{"metadata": {"schema_version": "0.1", "title": "None", "source_filename": "20211210_063437.mid", "source_format": "midi"}, "resolution": 220, "tempos": [{"time": 0, "qpm": 120.0}], "time_signatures": [{"time": 0, "numerator": 4, "denominator": 4}], "tracks": [{"program": 73, "is_drum": false, "name": "Soprano", "notes": [{"time": 165, "pitch": 85, "duration": 110, "velocity": 100}, {"time": 385, "pitch": 90, "duration": 110, "velocity": 100}, {"time": 715, "pitch": 85, "duration": 55, "velocity": 100}, {"time": 3245, "pitch": 85, "duration": 55, "velocity": 100}, {"time": 3465, "pitch": 90, "duration": 55, "velocity": 100}, {"time": 3850, "pitch": 90, "duration": 55, "velocity": 100}, {"time": 4895, "pitch": 78, "duration": 110, "velocity": 100}, {"time": 12705, "pitch": 80, "duration": 55, "velocity": 100}, {"time": 13750, "pitch": 80, "duration": 110, "velocity": 100}, {"time": 13860, "pitch": 92, "duration": 55, "velocity": 100}, {"time": 14025, "pitch": 97, "duration": 55, "velocity": 100}, {"time": 14245, "pitch": 92, "duration": 55, "velocity": 100}, {"time": 14410, "pitch": 99, "duration": 55, "velocity": 100}, {"time": 16060, "pitch": 80, "duration": 55, "velocity": 100}, {"time": 16445, "pitch": 80, "duration": 55, "velocity": 100}, {"time": 16885, "pitch": 87, "duration": 110, "velocity": 100}, {"time": 17050, "pitch": 94, "duration": 55, "velocity": 100}, {"time": 17105, "pitch": 92, "duration": 110, "velocity": 100}, {"time": 17325, "pitch": 92, "duration": 110, "velocity": 100}, {"time": 17435, "pitch": 97, "duration": 55, "velocity": 100}, {"time": 17490, "pitch": 99, "duration": 55, "velocity": 100}, {"time": 17545, "pitch": 97, "duration": 55, "velocity": 100}, {"time": 17765, "pitch": 94, "duration": 55, "velocity": 100}, {"time": 18315, "pitch": 92, "duration": 55, "velocity": 100}, {"time": 18700, "pitch": 87, "duration": 110, "velocity": 100}, {"time": 19580, "pitch": 80, "duration": 55, "velocity": 100}, {"time": 19800, "pitch": 90, "duration": 55, "velocity": 100}, {"time": 20020, "pitch": 80, "duration": 110, "velocity": 100}, {"time": 20405, "pitch": 78, "duration": 110, "velocity": 100}, {"time": 20515, "pitch": 80, "duration": 55, "velocity": 100}, {"time": 20625, "pitch": 80, "duration": 110, "velocity": 100}, {"time": 20735, "pitch": 90, "duration": 55, "velocity": 100}, {"time": 20845, "pitch": 78, "duration": 110, "velocity": 100}, {"time": 21340, "pitch": 78, "duration": 55, "velocity": 100}, {"time": 21395, "pitch": 82, "duration": 110, "velocity": 100}, {"time": 21780, "pitch": 78, "duration": 110, "velocity": 100}, {"time": 22165, "pitch": 82, "duration": 55, "velocity": 100}, {"time": 22275, "pitch": 82, "duration": 55, "velocity": 100}, {"time": 22660, "pitch": 82, "duration": 55, "velocity": 100}, {"time": 23045, "pitch": 94, "duration": 55, "velocity": 100}, {"time": 23265, "pitch": 92, "duration": 55, "velocity": 100}, {"time": 23485, "pitch": 90, "duration": 55, "velocity": 100}, {"time": 23815, "pitch": 82, "duration": 55, "velocity": 100}, {"time": 23980, "pitch": 94, "duration": 55, "velocity": 100}, {"time": 24750, "pitch": 85, "duration": 55, "velocity": 100}, {"time": 24970, "pitch": 85, "duration": 55, "velocity": 100}, {"time": 25300, "pitch": 85, "duration": 55, "velocity": 100}, {"time": 25740, "pitch": 82, "duration": 55, "velocity": 100}, {"time": 26125, "pitch": 97, "duration": 55, "velocity": 100}, {"time": 26565, "pitch": 85, "duration": 55, "velocity": 100}, {"time": 27445, "pitch": 85, "duration": 110, "velocity": 100}, {"time": 45870, "pitch": 90, "duration": 55, "velocity": 100}, {"time": 46310, "pitch": 85, "duration": 55, "velocity": 100}, {"time": 48455, "pitch": 87, "duration": 55, "velocity": 100}, {"time": 48950, "pitch": 94, "duration": 55, "velocity": 100}, {"time": 49830, "pitch": 80, "duration": 55, "velocity": 100}, {"time": 50710, "pitch": 90, "duration": 55, "velocity": 100}, {"time": 63140, "pitch": 85, "duration": 55, "velocity": 100}]}, {"program": 68, "is_drum": false, "name": "Alto", "notes": [{"time": 110, "pitch": 94, "duration": 55, "velocity": 100}, {"time": 275, "pitch": 90, "duration": 55, "velocity": 100}, {"time": 330, "pitch": 87, "duration": 55, "velocity": 100}, {"time": 495, "pitch": 85, "duration": 55, "velocity": 100}, {"time": 550, "pitch": 90, "duration": 110, "velocity": 100}, {"time": 660, "pitch": 82, "duration": 55, "velocity": 100}, {"time": 935, "pitch": 78, "duration": 55, "velocity": 100}, {"time": 990, "pitch": 82, "duration": 110, "velocity": 100}, {"time": 1155, "pitch": 78, "duration": 110, "velocity": 100}, {"time": 1320, "pitch": 78, "duration": 55, "velocity": 100}, {"time": 1485, "pitch": 78, "duration": 55, "velocity": 100}, {"time": 1595, "pitch": 73, "duration": 110, "velocity": 100}, {"time": 1925, "pitch": 73, "duration": 55, "velocity": 100}, {"time": 2090, "pitch": 73, "duration": 55, "velocity": 100}, {"time": 2200, "pitch": 80, "duration": 110, "velocity": 100}, {"time": 2365, "pitch": 80, "duration": 110, "velocity": 100}, {"time": 2475, "pitch": 75, "duration": 55, "velocity": 100}, {"time": 2530, "pitch": 80, "duration": 55, "velocity": 100}, {"time": 2585, "pitch": 75, "duration": 110, "velocity": 100}, {"time": 2695, "pitch": 87, "duration": 55, "velocity": 100}, {"time": 2805, "pitch": 87, "duration": 55, "velocity": 100}, {"time": 2860, "pitch": 80, "duration": 55, "velocity": 100}, {"time": 2915, "pitch": 87, "duration": 55, "velocity": 100}, {"time": 3025, "pitch": 92, "duration": 55, "velocity": 100}, {"time": 3080, "pitch": 80, "duration": 110, "velocity": 100}, {"time": 3190, "pitch": 92, "duration": 55, "velocity": 100}, {"time": 3300, "pitch": 92, "duration": 55, "velocity": 100}, {"time": 3355, "pitch": 85, "duration": 55, "velocity": 100}, {"time": 3410, "pitch": 97, "duration": 55, "velocity": 100}, {"time": 3520, "pitch": 94, "duration": 110, "velocity": 100}, {"time": 3685, "pitch": 90, "duration": 55, "velocity": 100}, {"time": 3850, "pitch": 73, "duration": 110, "velocity": 100}, {"time": 3905, "pitch": 85, "duration": 110, "velocity": 100}, {"time": 4015, "pitch": 90, "duration": 55, "velocity": 100}, {"time": 4070, "pitch": 82, "duration": 55, "velocity": 100}, {"time": 4125, "pitch": 85, "duration": 110, "velocity": 100}, {"time": 4290, "pitch": 82, "duration": 55, "velocity": 100}, {"time": 4345, "pitch": 78, "duration": 110, "velocity": 100}, {"time": 4675, "pitch": 75, "duration": 55, "velocity": 100}, {"time": 5335, "pitch": 75, "duration": 110, "velocity": 100}, {"time": 5665, "pitch": 80, "duration": 55, "velocity": 100}, {"time": 5720, "pitch": 75, "duration": 110, "velocity": 100}, {"time": 5885, "pitch": 75, "duration": 55, "velocity": 100}, {"time": 5940, "pitch": 87, "duration": 110, "velocity": 100}, {"time": 6105, "pitch": 92, "duration": 110, "velocity": 100}, {"time": 6270, "pitch": 94, "duration": 110, "velocity": 100}, {"time": 6435, "pitch": 94, "duration": 55, "velocity": 100}, {"time": 6490, "pitch": 82, "duration": 110, "velocity": 100}, {"time": 6600, "pitch": 94, "duration": 55, "velocity": 100}, {"time": 6655, "pitch": 82, "duration": 110, "velocity": 100}, {"time": 6765, "pitch": 94, "duration": 55, "velocity": 100}, {"time": 6930, "pitch": 94, "duration": 55, "velocity": 100}, {"time": 6985, "pitch": 82, "duration": 55, "velocity": 100}, {"time": 7095, "pitch": 94, "duration": 55, "velocity": 100}, {"time": 7205, "pitch": 94, "duration": 55, "velocity": 100}, {"time": 7315, "pitch": 90, "duration": 55, "velocity": 100}, {"time": 7370, "pitch": 87, "duration": 110, "velocity": 100}, {"time": 7480, "pitch": 90, "duration": 55, "velocity": 100}, {"time": 7535, "pitch": 85, "duration": 55, "velocity": 100}, {"time": 7590, "pitch": 90, "duration": 55, "velocity": 100}, {"time": 7645, "pitch": 82, "duration": 55, "velocity": 100}, {"time": 8085, "pitch": 78, "duration": 110, "velocity": 100}, {"time": 8415, "pitch": 78, "duration": 55, "velocity": 100}, {"time": 8525, "pitch": 73, "duration": 110, "velocity": 100}, {"time": 8855, "pitch": 73, "duration": 55, "velocity": 100}, {"time": 9130, "pitch": 80, "duration": 110, "velocity": 100}, {"time": 9295, "pitch": 80, "duration": 110, "velocity": 100}, {"time": 9625, "pitch": 87, "duration": 55, "velocity": 100}, {"time": 9735, "pitch": 87, "duration": 110, "velocity": 100}, {"time": 10065, "pitch": 92, "duration": 55, "velocity": 100}, {"time": 10285, "pitch": 85, "duration": 110, "velocity": 100}, {"time": 10395, "pitch": 92, "duration": 55, "velocity": 100}, {"time": 10505, "pitch": 97, "duration": 55, "velocity": 100}, {"time": 10835, "pitch": 90, "duration": 55, "velocity": 100}, {"time": 11055, "pitch": 85, "duration": 55, "velocity": 100}, {"time": 11275, "pitch": 85, "duration": 110, "velocity": 100}, {"time": 11440, "pitch": 82, "duration": 55, "velocity": 100}, {"time": 11715, "pitch": 78, "duration": 110, "velocity": 100}, {"time": 12045, "pitch": 78, "duration": 55, "velocity": 100}, {"time": 12375, "pitch": 70, "duration": 55, "velocity": 100}, {"time": 12430, "pitch": 73, "duration": 110, "velocity": 100}, {"time": 12540, "pitch": 75, "duration": 110, "velocity": 100}, {"time": 12650, "pitch": 76, "duration": 110, "velocity": 100}, {"time": 12760, "pitch": 76, "duration": 110, "velocity": 100}, {"time": 12870, "pitch": 76, "duration": 110, "velocity": 100}, {"time": 12980, "pitch": 87, "duration": 55, "velocity": 100}, {"time": 13090, "pitch": 80, "duration": 110, "velocity": 100}, {"time": 13090, "pitch": 87, "duration": 55, "velocity": 100}, {"time": 13255, "pitch": 80, "duration": 110, "velocity": 100}, {"time": 13365, "pitch": 87, "duration": 55, "velocity": 100}, {"time": 13420, "pitch": 73, "duration": 55, "velocity": 100}, {"time": 13530, "pitch": 85, "duration": 55, "velocity": 100}, {"time": 13585, "pitch": 78, "duration": 55, "velocity": 100}, {"time": 13585, "pitch": 80, "duration": 110, "velocity": 100}, {"time": 13695, "pitch": 85, "duration": 55, "velocity": 100}, {"time": 13750, "pitch": 76, "duration": 55, "velocity": 100}, {"time": 13860, "pitch": 78, "duration": 55, "velocity": 100}, {"time": 13915, "pitch": 78, "duration": 55, "velocity": 100}, {"time": 13915, "pitch": 85, "duration": 110, "velocity": 100}, {"time": 13970, "pitch": 80, "duration": 55, "velocity": 100}, {"time": 14025, "pitch": 78, "duration": 55, "velocity": 100}, {"time": 14080, "pitch": 92, "duration": 55, "velocity": 100}, {"time": 14135, "pitch": 87, "duration": 55, "velocity": 100}, {"time": 14135, "pitch": 94, "duration": 110, "velocity": 100}, {"time": 14245, "pitch": 87, "duration": 55, "velocity": 100}, {"time": 14300, "pitch": 87, "duration": 55, "velocity": 100}, {"time": 14300, "pitch": 87, "duration": 110, "velocity": 100}, {"time": 14465, "pitch": 87, "duration": 55, "velocity": 100}, {"time": 14465, "pitch": 87, "duration": 55, "velocity": 100}, {"time": 14520, "pitch": 92, "duration": 55, "velocity": 100}, {"time": 14630, "pitch": 87, "duration": 55, "velocity": 100}, {"time": 14685, "pitch": 85, "duration": 110, "velocity": 100}, {"time": 14850, "pitch": 92, "duration": 55, "velocity": 100}, {"time": 15125, "pitch": 80, "duration": 110, "velocity": 100}, {"time": 15455, "pitch": 73, "duration": 55, "velocity": 100}, {"time": 15510, "pitch": 75, "duration": 110, "velocity": 100}, {"time": 15620, "pitch": 73, "duration": 55, "velocity": 100}, {"time": 15675, "pitch": 68, "duration": 165, "velocity": 100}, {"time": 16005, "pitch": 75, "duration": 55, "velocity": 100}, {"time": 16060, "pitch": 63, "duration": 220, "velocity": 100}, {"time": 16115, "pitch": 82, "duration": 110, "velocity": 100}, {"time": 16225, "pitch": 80, "duration": 55, "velocity": 100}, {"time": 16280, "pitch": 75, "duration": 110, "velocity": 100}, {"time": 16390, "pitch": 73, "duration": 55, "velocity": 100}, {"time": 16500, "pitch": 68, "duration": 220, "velocity": 100}, {"time": 16500, "pitch": 85, "duration": 110, "velocity": 100}, {"time": 16610, "pitch": 87, "duration": 55, "velocity": 100}, {"time": 16665, "pitch": 85, "duration": 55, "velocity": 100}, {"time": 16995, "pitch": 92, "duration": 55, "velocity": 100}, {"time": 17215, "pitch": 87, "duration": 55, "velocity": 100}, {"time": 17270, "pitch": 85, "duration": 55, "velocity": 100}, {"time": 17655, "pitch": 94, "duration": 55, "velocity": 100}, {"time": 17710, "pitch": 92, "duration": 55, "velocity": 100}, {"time": 17820, "pitch": 92, "duration": 55, "velocity": 100}, {"time": 17875, "pitch": 87, "duration": 55, "velocity": 100}, {"time": 17930, "pitch": 99, "duration": 110, "velocity": 100}, {"time": 18040, "pitch": 87, "duration": 55, "velocity": 100}, {"time": 18095, "pitch": 85, "duration": 55, "velocity": 100}, {"time": 18150, "pitch": 87, "duration": 55, "velocity": 100}, {"time": 18205, "pitch": 85, "duration": 55, "velocity": 100}, {"time": 18260, "pitch": 80, "duration": 55, "velocity": 100}, {"time": 18370, "pitch": 80, "duration": 55, "velocity": 100}, {"time": 18425, "pitch": 80, "duration": 55, "velocity": 100}, {"time": 18480, "pitch": 82, "duration": 110, "velocity": 100}, {"time": 18590, "pitch": 80, "duration": 55, "velocity": 100}, {"time": 18645, "pitch": 75, "duration": 55, "velocity": 100}, {"time": 18700, "pitch": 63, "duration": 440, "velocity": 100}, {"time": 18810, "pitch": 75, "duration": 55, "velocity": 100}, {"time": 18865, "pitch": 73, "duration": 110, "velocity": 100}, {"time": 18975, "pitch": 75, "duration": 55, "velocity": 100}, {"time": 19030, "pitch": 73, "duration": 55, "velocity": 100}, {"time": 19085, "pitch": 68, "duration": 275, "velocity": 100}, {"time": 19140, "pitch": 68, "duration": 220, "velocity": 100}, {"time": 19415, "pitch": 80, "duration": 55, "velocity": 100}, {"time": 19470, "pitch": 78, "duration": 110, "velocity": 100}, {"time": 19580, "pitch": 63, "duration": 275, "velocity": 100}, {"time": 19635, "pitch": 78, "duration": 110, "velocity": 100}, {"time": 19745, "pitch": 80, "duration": 55, "velocity": 100}, {"time": 19855, "pitch": 80, "duration": 110, "velocity": 100}, {"time": 19965, "pitch": 78, "duration": 55, "velocity": 100}, {"time": 20020, "pitch": 68, "duration": 220, "velocity": 100}, {"time": 20130, "pitch": 78, "duration": 55, "velocity": 100}, {"time": 20185, "pitch": 80, "duration": 55, "velocity": 100}, {"time": 20350, "pitch": 80, "duration": 55, "velocity": 100}, {"time": 20460, "pitch": 63, "duration": 220, "velocity": 100}, {"time": 20570, "pitch": 78, "duration": 55, "velocity": 100}, {"time": 20790, "pitch": 80, "duration": 55, "velocity": 100}, {"time": 20900, "pitch": 63, "duration": 220, "velocity": 100}, {"time": 20955, "pitch": 80, "duration": 55, "velocity": 100}, {"time": 21010, "pitch": 66, "duration": 110, "velocity": 100}, {"time": 21010, "pitch": 78, "duration": 110, "velocity": 100}, {"time": 21120, "pitch": 80, "duration": 55, "velocity": 100}, {"time": 21175, "pitch": 70, "duration": 110, "velocity": 100}, {"time": 21285, "pitch": 82, "duration": 55, "velocity": 100}, {"time": 21340, "pitch": 61, "duration": 220, "velocity": 100}, {"time": 21505, "pitch": 78, "duration": 55, "velocity": 100}, {"time": 21560, "pitch": 61, "duration": 220, "velocity": 100}, {"time": 21560, "pitch": 82, "duration": 110, "velocity": 100}, {"time": 21670, "pitch": 90, "duration": 55, "velocity": 100}, {"time": 21725, "pitch": 82, "duration": 55, "velocity": 100}, {"time": 21780, "pitch": 61, "duration": 220, "velocity": 100}, {"time": 21890, "pitch": 82, "duration": 55, "velocity": 100}, {"time": 21945, "pitch": 78, "duration": 110, "velocity": 100}, {"time": 22055, "pitch": 82, "duration": 55, "velocity": 100}, {"time": 22110, "pitch": 70, "duration": 55, "velocity": 100}, {"time": 22220, "pitch": 78, "duration": 55, "velocity": 100}, {"time": 22330, "pitch": 78, "duration": 55, "velocity": 100}, {"time": 22385, "pitch": 82, "duration": 55, "velocity": 100}, {"time": 22440, "pitch": 90, "duration": 55, "velocity": 100}, {"time": 22495, "pitch": 82, "duration": 110, "velocity": 100}, {"time": 22605, "pitch": 78, "duration": 55, "velocity": 100}, {"time": 22660, "pitch": 54, "duration": 220, "velocity": 100}, {"time": 22715, "pitch": 78, "duration": 55, "velocity": 100}, {"time": 22770, "pitch": 82, "duration": 55, "velocity": 100}, {"time": 22825, "pitch": 78, "duration": 55, "velocity": 100}, {"time": 22880, "pitch": 82, "duration": 110, "velocity": 100}, {"time": 22990, "pitch": 78, "duration": 55, "velocity": 100}, {"time": 23100, "pitch": 82, "duration": 110, "velocity": 100}, {"time": 23210, "pitch": 78, "duration": 55, "velocity": 100}, {"time": 23320, "pitch": 82, "duration": 110, "velocity": 100}, {"time": 23430, "pitch": 78, "duration": 55, "velocity": 100}, {"time": 23540, "pitch": 82, "duration": 110, "velocity": 100}, {"time": 23650, "pitch": 78, "duration": 110, "velocity": 100}, {"time": 23760, "pitch": 85, "duration": 55, "velocity": 100}, {"time": 23870, "pitch": 78, "duration": 110, "velocity": 100}, {"time": 23980, "pitch": 54, "duration": 220, "velocity": 100}, {"time": 23980, "pitch": 57, "duration": 220, "velocity": 100}, {"time": 24035, "pitch": 82, "duration": 110, "velocity": 100}, {"time": 24145, "pitch": 78, "duration": 55, "velocity": 100}, {"time": 24200, "pitch": 92, "duration": 55, "velocity": 100}, {"time": 24255, "pitch": 82, "duration": 110, "velocity": 100}, {"time": 24365, "pitch": 78, "duration": 55, "velocity": 100}, {"time": 24420, "pitch": 57, "duration": 220, "velocity": 100}, {"time": 24420, "pitch": 90, "duration": 55, "velocity": 100}, {"time": 24475, "pitch": 82, "duration": 110, "velocity": 100}, {"time": 24585, "pitch": 78, "duration": 55, "velocity": 100}, {"time": 24640, "pitch": 73, "duration": 110, "velocity": 100}, {"time": 24750, "pitch": 64, "duration": 110, "velocity": 100}, {"time": 24805, "pitch": 82, "duration": 110, "velocity": 100}, {"time": 24860, "pitch": 61, "duration": 220, "velocity": 100}, {"time": 24860, "pitch": 64, "duration": 110, "velocity": 100}, {"time": 24915, "pitch": 85, "duration": 55, "velocity": 100}, {"time": 24970, "pitch": 64, "duration": 110, "velocity": 100}, {"time": 25025, "pitch": 97, "duration": 110, "velocity": 100}, {"time": 25135, "pitch": 94, "duration": 55, "velocity": 100}, {"time": 25190, "pitch": 97, "duration": 110, "velocity": 100}, {"time": 25300, "pitch": 61, "duration": 385, "velocity": 100}, {"time": 25355, "pitch": 85, "duration": 55, "velocity": 100}, {"time": 25410, "pitch": 82, "duration": 110, "velocity": 100}, {"time": 25520, "pitch": 85, "duration": 55, "velocity": 100}, {"time": 25575, "pitch": 73, "duration": 110, "velocity": 100}, {"time": 25685, "pitch": 85, "duration": 55, "velocity": 100}, {"time": 25740, "pitch": 61, "duration": 440, "velocity": 100}, {"time": 25795, "pitch": 85, "duration": 110, "velocity": 100}, {"time": 25905, "pitch": 85, "duration": 55, "velocity": 100}, {"time": 25960, "pitch": 97, "duration": 110, "velocity": 100}, {"time": 26070, "pitch": 94, "duration": 55, "velocity": 100}, {"time": 26180, "pitch": 85, "duration": 110, "velocity": 100}, {"time": 26290, "pitch": 85, "duration": 55, "velocity": 100}, {"time": 26345, "pitch": 82, "duration": 55, "velocity": 100}, {"time": 26400, "pitch": 85, "duration": 110, "velocity": 100}, {"time": 26510, "pitch": 73, "duration": 55, "velocity": 100}, {"time": 26620, "pitch": 61, "duration": 220, "velocity": 100}, {"time": 26620, "pitch": 82, "duration": 55, "velocity": 100}, {"time": 26675, "pitch": 85, "duration": 55, "velocity": 100}, {"time": 26730, "pitch": 85, "duration": 55, "velocity": 100}, {"time": 26785, "pitch": 97, "duration": 55, "velocity": 100}, {"time": 26950, "pitch": 97, "duration": 55, "velocity": 100}, {"time": 27005, "pitch": 85, "duration": 55, "velocity": 100}, {"time": 27060, "pitch": 61, "duration": 220, "velocity": 100}, {"time": 27060, "pitch": 85, "duration": 55, "velocity": 100}, {"time": 27115, "pitch": 80, "duration": 55, "velocity": 100}, {"time": 27170, "pitch": 85, "duration": 55, "velocity": 100}, {"time": 27225, "pitch": 73, "duration": 55, "velocity": 100}, {"time": 27280, "pitch": 85, "duration": 110, "velocity": 100}, {"time": 27390, "pitch": 78, "duration": 55, "velocity": 100}, {"time": 27555, "pitch": 73, "duration": 55, "velocity": 100}, {"time": 27610, "pitch": 73, "duration": 110, "velocity": 100}, {"time": 27720, "pitch": 66, "duration": 55, "velocity": 100}, {"time": 27775, "pitch": 73, "duration": 110, "velocity": 100}, {"time": 27830, "pitch": 54, "duration": 110, "velocity": 100}, {"time": 27885, "pitch": 52, "duration": 165, "velocity": 100}, {"time": 27885, "pitch": 61, "duration": 55, "velocity": 100}, {"time": 27940, "pitch": 56, "duration": 220, "velocity": 100}, {"time": 27940, "pitch": 61, "duration": 110, "velocity": 100}, {"time": 28050, "pitch": 54, "duration": 55, "velocity": 100}, {"time": 28050, "pitch": 54, "duration": 110, "velocity": 100}, {"time": 28050, "pitch": 56, "duration": 110, "velocity": 100}, {"time": 28105, "pitch": 52, "duration": 55, "velocity": 100}, {"time": 28105, "pitch": 61, "duration": 55, "velocity": 100}, {"time": 28215, "pitch": 56, "duration": 165, "velocity": 100}, {"time": 28270, "pitch": 54, "duration": 110, "velocity": 100}, {"time": 28270, "pitch": 61, "duration": 165, "velocity": 100}, {"time": 28325, "pitch": 64, "duration": 110, "velocity": 100}, {"time": 28380, "pitch": 61, "duration": 55, "velocity": 100}, {"time": 28380, "pitch": 68, "duration": 220, "velocity": 100}, {"time": 28435, "pitch": 63, "duration": 110, "velocity": 100}, {"time": 28490, "pitch": 61, "duration": 110, "velocity": 100}, {"time": 28600, "pitch": 61, "duration": 55, "velocity": 100}, {"time": 28655, "pitch": 63, "duration": 110, "velocity": 100}, {"time": 28765, "pitch": 57, "duration": 110, "velocity": 100}, {"time": 28765, "pitch": 66, "duration": 55, "velocity": 100}, {"time": 28820, "pitch": 61, "duration": 110, "velocity": 100}, {"time": 28820, "pitch": 61, "duration": 220, "velocity": 100}, {"time": 28930, "pitch": 63, "duration": 55, "velocity": 100}, {"time": 28985, "pitch": 66, "duration": 55, "velocity": 100}, {"time": 29040, "pitch": 73, "duration": 110, "velocity": 100}, {"time": 29150, "pitch": 63, "duration": 55, "velocity": 100}, {"time": 29205, "pitch": 66, "duration": 55, "velocity": 100}, {"time": 29260, "pitch": 61, "duration": 220, "velocity": 100}, {"time": 29260, "pitch": 73, "duration": 55, "velocity": 100}, {"time": 29315, "pitch": 75, "duration": 55, "velocity": 100}, {"time": 29370, "pitch": 66, "duration": 55, "velocity": 100}, {"time": 29425, "pitch": 73, "duration": 55, "velocity": 100}, {"time": 29480, "pitch": 75, "duration": 110, "velocity": 100}, {"time": 29590, "pitch": 78, "duration": 55, "velocity": 100}, {"time": 29645, "pitch": 57, "duration": 110, "velocity": 100}, {"time": 29645, "pitch": 73, "duration": 55, "velocity": 100}, {"time": 29700, "pitch": 64, "duration": 165, "velocity": 100}, {"time": 29700, "pitch": 75, "duration": 55, "velocity": 100}, {"time": 29755, "pitch": 85, "duration": 55, "velocity": 100}, {"time": 29810, "pitch": 78, "duration": 55, "velocity": 100}, {"time": 29865, "pitch": 75, "duration": 55, "velocity": 100}, {"time": 29975, "pitch": 78, "duration": 55, "velocity": 100}, {"time": 30030, "pitch": 87, "duration": 55, "velocity": 100}, {"time": 30085, "pitch": 85, "duration": 110, "velocity": 100}, {"time": 30195, "pitch": 78, "duration": 55, "velocity": 100}, {"time": 30250, "pitch": 75, "duration": 110, "velocity": 100}, {"time": 30360, "pitch": 85, "duration": 55, "velocity": 100}, {"time": 30415, "pitch": 78, "duration": 55, "velocity": 100}, {"time": 30470, "pitch": 75, "duration": 110, "velocity": 100}, {"time": 30580, "pitch": 68, "duration": 220, "velocity": 100}, {"time": 30580, "pitch": 73, "duration": 55, "velocity": 100}, {"time": 30635, "pitch": 78, "duration": 110, "velocity": 100}, {"time": 30690, "pitch": 61, "duration": 110, "velocity": 100}, {"time": 30745, "pitch": 75, "duration": 55, "velocity": 100}, {"time": 30800, "pitch": 73, "duration": 110, "velocity": 100}, {"time": 30910, "pitch": 66, "duration": 55, "velocity": 100}, {"time": 30965, "pitch": 75, "duration": 55, "velocity": 100}, {"time": 31020, "pitch": 61, "duration": 220, "velocity": 100}, {"time": 31020, "pitch": 73, "duration": 110, "velocity": 100}, {"time": 31130, "pitch": 57, "duration": 110, "velocity": 100}, {"time": 31130, "pitch": 66, "duration": 55, "velocity": 100}, {"time": 31185, "pitch": 63, "duration": 110, "velocity": 100}, {"time": 31295, "pitch": 73, "duration": 55, "velocity": 100}, {"time": 31350, "pitch": 66, "duration": 110, "velocity": 100}, {"time": 31405, "pitch": 57, "duration": 55, "velocity": 100}, {"time": 31460, "pitch": 63, "duration": 55, "velocity": 100}, {"time": 31460, "pitch": 64, "duration": 220, "velocity": 100}, {"time": 31515, "pitch": 61, "duration": 110, "velocity": 100}, {"time": 31570, "pitch": 57, "duration": 110, "velocity": 100}, {"time": 31625, "pitch": 66, "duration": 55, "velocity": 100}, {"time": 31680, "pitch": 63, "duration": 55, "velocity": 100}, {"time": 31735, "pitch": 56, "duration": 110, "velocity": 100}, {"time": 31790, "pitch": 57, "duration": 110, "velocity": 100}, {"time": 31845, "pitch": 61, "duration": 165, "velocity": 100}, {"time": 31845, "pitch": 63, "duration": 55, "velocity": 100}, {"time": 31900, "pitch": 66, "duration": 110, "velocity": 100}, {"time": 31900, "pitch": 66, "duration": 220, "velocity": 100}, {"time": 32010, "pitch": 68, "duration": 55, "velocity": 100}, {"time": 32065, "pitch": 63, "duration": 110, "velocity": 100}, {"time": 32175, "pitch": 66, "duration": 55, "velocity": 100}, {"time": 32230, "pitch": 68, "duration": 55, "velocity": 100}, {"time": 32285, "pitch": 75, "duration": 110, "velocity": 100}, {"time": 32340, "pitch": 63, "duration": 220, "velocity": 100}, {"time": 32395, "pitch": 66, "duration": 55, "velocity": 100}, {"time": 32450, "pitch": 68, "duration": 110, "velocity": 100}, {"time": 32560, "pitch": 75, "duration": 55, "velocity": 100}, {"time": 32615, "pitch": 78, "duration": 55, "velocity": 100}, {"time": 32670, "pitch": 68, "duration": 55, "velocity": 100}, {"time": 32725, "pitch": 59, "duration": 55, "velocity": 100}, {"time": 32725, "pitch": 75, "duration": 55, "velocity": 100}, {"time": 32780, "pitch": 78, "duration": 55, "velocity": 100}, {"time": 32835, "pitch": 80, "duration": 110, "velocity": 100}, {"time": 32945, "pitch": 59, "duration": 55, "velocity": 100}, {"time": 32945, "pitch": 75, "duration": 55, "velocity": 100}, {"time": 33000, "pitch": 78, "duration": 55, "velocity": 100}, {"time": 33055, "pitch": 80, "duration": 55, "velocity": 100}, {"time": 33110, "pitch": 66, "duration": 55, "velocity": 100}, {"time": 33110, "pitch": 87, "duration": 55, "velocity": 100}, {"time": 33165, "pitch": 78, "duration": 55, "velocity": 100}, {"time": 33220, "pitch": 59, "duration": 220, "velocity": 100}, {"time": 33220, "pitch": 63, "duration": 220, "velocity": 100}, {"time": 33220, "pitch": 71, "duration": 55, "velocity": 100}, {"time": 33220, "pitch": 80, "duration": 55, "velocity": 100}, {"time": 33275, "pitch": 71, "duration": 55, "velocity": 100}, {"time": 33275, "pitch": 90, "duration": 110, "velocity": 100}, {"time": 33330, "pitch": 66, "duration": 55, "velocity": 100}, {"time": 33385, "pitch": 66, "duration": 55, "velocity": 100}, {"time": 33385, "pitch": 87, "duration": 55, "velocity": 100}, {"time": 33440, "pitch": 80, "duration": 55, "velocity": 100}, {"time": 33495, "pitch": 78, "duration": 55, "velocity": 100}, {"time": 33550, "pitch": 87, "duration": 110, "velocity": 100}, {"time": 33605, "pitch": 63, "duration": 55, "velocity": 100}, {"time": 33660, "pitch": 63, "duration": 220, "velocity": 100}, {"time": 33660, "pitch": 80, "duration": 55, "velocity": 100}, {"time": 33715, "pitch": 78, "duration": 110, "velocity": 100}, {"time": 33825, "pitch": 75, "duration": 55, "velocity": 100}, {"time": 33880, "pitch": 80, "duration": 55, "velocity": 100}, {"time": 33935, "pitch": 78, "duration": 110, "velocity": 100}, {"time": 34045, "pitch": 75, "duration": 55, "velocity": 100}, {"time": 34100, "pitch": 63, "duration": 220, "velocity": 100}, {"time": 34100, "pitch": 68, "duration": 110, "velocity": 100}, {"time": 34210, "pitch": 78, "duration": 55, "velocity": 100}, {"time": 34265, "pitch": 75, "duration": 55, "velocity": 100}, {"time": 34430, "pitch": 66, "duration": 55, "velocity": 100}, {"time": 34485, "pitch": 75, "duration": 110, "velocity": 100}, {"time": 34595, "pitch": 68, "duration": 55, "velocity": 100}, {"time": 34650, "pitch": 66, "duration": 110, "velocity": 100}, {"time": 34760, "pitch": 63, "duration": 55, "velocity": 100}, {"time": 34815, "pitch": 68, "duration": 55, "velocity": 100}, {"time": 34870, "pitch": 66, "duration": 110, "velocity": 100}, {"time": 34980, "pitch": 63, "duration": 55, "velocity": 100}, {"time": 34980, "pitch": 63, "duration": 220, "velocity": 100}, {"time": 35035, "pitch": 56, "duration": 110, "velocity": 100}, {"time": 35090, "pitch": 59, "duration": 110, "velocity": 100}, {"time": 35145, "pitch": 59, "duration": 55, "velocity": 100}, {"time": 35145, "pitch": 66, "duration": 55, "velocity": 100}, {"time": 35200, "pitch": 63, "duration": 55, "velocity": 100}, {"time": 35255, "pitch": 61, "duration": 110, "velocity": 100}, {"time": 35255, "pitch": 63, "duration": 220, "velocity": 100}, {"time": 35310, "pitch": 66, "duration": 165, "velocity": 100}, {"time": 35365, "pitch": 71, "duration": 165, "velocity": 100}, {"time": 35365, "pitch": 73, "duration": 55, "velocity": 100}, {"time": 35420, "pitch": 68, "duration": 55, "velocity": 100}, {"time": 35420, "pitch": 73, "duration": 220, "velocity": 100}, {"time": 35475, "pitch": 73, "duration": 55, "velocity": 100}, {"time": 35530, "pitch": 65, "duration": 110, "velocity": 100}, {"time": 35530, "pitch": 68, "duration": 110, "velocity": 100}, {"time": 35640, "pitch": 80, "duration": 55, "velocity": 100}, {"time": 35695, "pitch": 73, "duration": 55, "velocity": 100}, {"time": 35750, "pitch": 61, "duration": 275, "velocity": 100}, {"time": 35750, "pitch": 80, "duration": 55, "velocity": 100}, {"time": 35805, "pitch": 68, "duration": 55, "velocity": 100}, {"time": 35860, "pitch": 68, "duration": 220, "velocity": 100}, {"time": 35860, "pitch": 73, "duration": 55, "velocity": 100}, {"time": 35915, "pitch": 68, "duration": 110, "velocity": 100}, {"time": 36025, "pitch": 73, "duration": 55, "velocity": 100}, {"time": 36135, "pitch": 73, "duration": 55, "velocity": 100}, {"time": 36190, "pitch": 68, "duration": 110, "velocity": 100}, {"time": 36245, "pitch": 61, "duration": 110, "velocity": 100}, {"time": 36300, "pitch": 68, "duration": 220, "velocity": 100}, {"time": 36300, "pitch": 73, "duration": 55, "velocity": 100}, {"time": 36355, "pitch": 68, "duration": 110, "velocity": 100}, {"time": 36410, "pitch": 64, "duration": 110, "velocity": 100}, {"time": 36465, "pitch": 80, "duration": 55, "velocity": 100}, {"time": 36520, "pitch": 73, "duration": 55, "velocity": 100}, {"time": 36575, "pitch": 80, "duration": 110, "velocity": 100}, {"time": 36685, "pitch": 61, "duration": 55, "velocity": 100}, {"time": 36685, "pitch": 68, "duration": 55, "velocity": 100}, {"time": 36685, "pitch": 85, "duration": 55, "velocity": 100}, {"time": 36740, "pitch": 68, "duration": 220, "velocity": 100}, {"time": 36740, "pitch": 73, "duration": 110, "velocity": 100}, {"time": 36740, "pitch": 85, "duration": 110, "velocity": 100}, {"time": 36850, "pitch": 68, "duration": 55, "velocity": 100}, {"time": 36850, "pitch": 85, "duration": 110, "velocity": 100}, {"time": 36905, "pitch": 73, "duration": 55, "velocity": 100}, {"time": 37015, "pitch": 61, "duration": 55, "velocity": 100}, {"time": 37070, "pitch": 64, "duration": 275, "velocity": 100}, {"time": 37070, "pitch": 73, "duration": 110, "velocity": 100}, {"time": 37180, "pitch": 68, "duration": 55, "velocity": 100}, {"time": 37180, "pitch": 68, "duration": 220, "velocity": 100}, {"time": 37235, "pitch": 73, "duration": 110, "velocity": 100}, {"time": 37345, "pitch": 73, "duration": 55, "velocity": 100}, {"time": 37400, "pitch": 85, "duration": 110, "velocity": 100}, {"time": 37510, "pitch": 80, "duration": 55, "velocity": 100}, {"time": 37565, "pitch": 64, "duration": 110, "velocity": 100}, {"time": 37565, "pitch": 85, "duration": 55, "velocity": 100}, {"time": 37620, "pitch": 73, "duration": 110, "velocity": 100}, {"time": 37620, "pitch": 73, "duration": 220, "velocity": 100}, {"time": 37730, "pitch": 68, "duration": 110, "velocity": 100}, {"time": 37730, "pitch": 73, "duration": 55, "velocity": 100}, {"time": 37785, "pitch": 68, "duration": 110, "velocity": 100}, {"time": 37895, "pitch": 73, "duration": 55, "velocity": 100}, {"time": 37950, "pitch": 68, "duration": 55, "velocity": 100}, {"time": 38005, "pitch": 61, "duration": 55, "velocity": 100}, {"time": 38005, "pitch": 80, "duration": 55, "velocity": 100}, {"time": 38060, "pitch": 68, "duration": 220, "velocity": 100}, {"time": 38060, "pitch": 73, "duration": 55, "velocity": 100}, {"time": 38115, "pitch": 80, "duration": 55, "velocity": 100}, {"time": 38170, "pitch": 64, "duration": 110, "velocity": 100}, {"time": 38170, "pitch": 80, "duration": 55, "velocity": 100}, {"time": 38225, "pitch": 92, "duration": 55, "velocity": 100}, {"time": 38280, "pitch": 85, "duration": 110, "velocity": 100}, {"time": 38390, "pitch": 61, "duration": 165, "velocity": 100}, {"time": 38390, "pitch": 92, "duration": 55, "velocity": 100}, {"time": 38445, "pitch": 64, "duration": 110, "velocity": 100}, {"time": 38445, "pitch": 80, "duration": 55, "velocity": 100}, {"time": 38500, "pitch": 68, "duration": 220, "velocity": 100}, {"time": 38500, "pitch": 76, "duration": 220, "velocity": 100}, {"time": 38500, "pitch": 80, "duration": 55, "velocity": 100}, {"time": 38555, "pitch": 73, "duration": 55, "velocity": 100}, {"time": 38610, "pitch": 64, "duration": 110, "velocity": 100}, {"time": 38610, "pitch": 80, "duration": 55, "velocity": 100}, {"time": 38665, "pitch": 73, "duration": 55, "velocity": 100}, {"time": 38775, "pitch": 75, "duration": 55, "velocity": 100}, {"time": 38830, "pitch": 63, "duration": 110, "velocity": 100}, {"time": 38830, "pitch": 73, "duration": 110, "velocity": 100}, {"time": 38885, "pitch": 66, "duration": 55, "velocity": 100}, {"time": 38940, "pitch": 71, "duration": 220, "velocity": 100}, {"time": 38940, "pitch": 87, "duration": 55, "velocity": 100}, {"time": 38995, "pitch": 85, "duration": 55, "velocity": 100}, {"time": 39050, "pitch": 99, "duration": 110, "velocity": 100}, {"time": 39160, "pitch": 97, "duration": 55, "velocity": 100}, {"time": 39215, "pitch": 99, "duration": 110, "velocity": 100}, {"time": 39325, "pitch": 63, "duration": 110, "velocity": 100}, {"time": 39325, "pitch": 97, "duration": 55, "velocity": 100}, {"time": 39380, "pitch": 71, "duration": 220, "velocity": 100}, {"time": 39380, "pitch": 85, "duration": 110, "velocity": 100}, {"time": 39490, "pitch": 87, "duration": 55, "velocity": 100}, {"time": 39545, "pitch": 85, "duration": 110, "velocity": 100}, {"time": 39655, "pitch": 73, "duration": 55, "velocity": 100}, {"time": 39710, "pitch": 75, "duration": 110, "velocity": 100}, {"time": 39765, "pitch": 66, "duration": 55, "velocity": 100}, {"time": 39820, "pitch": 73, "duration": 55, "velocity": 100}, {"time": 39875, "pitch": 87, "duration": 110, "velocity": 100}, {"time": 39930, "pitch": 63, "duration": 110, "velocity": 100}, {"time": 39985, "pitch": 85, "duration": 55, "velocity": 100}, {"time": 40040, "pitch": 99, "duration": 110, "velocity": 100}, {"time": 40150, "pitch": 66, "duration": 55, "velocity": 100}, {"time": 40150, "pitch": 97, "duration": 55, "velocity": 100}, {"time": 40205, "pitch": 87, "duration": 55, "velocity": 100}, {"time": 40205, "pitch": 99, "duration": 55, "velocity": 100}, {"time": 40260, "pitch": 63, "duration": 220, "velocity": 100}, {"time": 40260, "pitch": 66, "duration": 220, "velocity": 100}, {"time": 40260, "pitch": 87, "duration": 55, "velocity": 100}, {"time": 40260, "pitch": 97, "duration": 110, "velocity": 100}, {"time": 40315, "pitch": 87, "duration": 55, "velocity": 100}, {"time": 40370, "pitch": 85, "duration": 55, "velocity": 100}, {"time": 40370, "pitch": 87, "duration": 55, "velocity": 100}, {"time": 40425, "pitch": 87, "duration": 55, "velocity": 100}, {"time": 40425, "pitch": 87, "duration": 55, "velocity": 100}, {"time": 40480, "pitch": 83, "duration": 220, "velocity": 100}, {"time": 40535, "pitch": 85, "duration": 55, "velocity": 100}, {"time": 40590, "pitch": 97, "duration": 55, "velocity": 100}, {"time": 40645, "pitch": 66, "duration": 165, "velocity": 100}, {"time": 40645, "pitch": 99, "duration": 55, "velocity": 100}, {"time": 40700, "pitch": 71, "duration": 275, "velocity": 100}, {"time": 40700, "pitch": 97, "duration": 55, "velocity": 100}, {"time": 40755, "pitch": 85, "duration": 110, "velocity": 100}, {"time": 40865, "pitch": 87, "duration": 55, "velocity": 100}, {"time": 40920, "pitch": 85, "duration": 55, "velocity": 100}, {"time": 40975, "pitch": 97, "duration": 55, "velocity": 100}, {"time": 41030, "pitch": 99, "duration": 55, "velocity": 100}, {"time": 41085, "pitch": 63, "duration": 55, "velocity": 100}, {"time": 41085, "pitch": 83, "duration": 55, "velocity": 100}, {"time": 41085, "pitch": 97, "duration": 110, "velocity": 100}, {"time": 41140, "pitch": 71, "duration": 220, "velocity": 100}, {"time": 41195, "pitch": 85, "duration": 55, "velocity": 100}, {"time": 41250, "pitch": 87, "duration": 55, "velocity": 100}, {"time": 41305, "pitch": 85, "duration": 55, "velocity": 100}, {"time": 41360, "pitch": 97, "duration": 55, "velocity": 100}, {"time": 41415, "pitch": 99, "duration": 110, "velocity": 100}, {"time": 41525, "pitch": 97, "duration": 55, "velocity": 100}, {"time": 41580, "pitch": 85, "duration": 55, "velocity": 100}, {"time": 41635, "pitch": 87, "duration": 55, "velocity": 100}, {"time": 41690, "pitch": 63, "duration": 110, "velocity": 100}, {"time": 41690, "pitch": 85, "duration": 110, "velocity": 100}, {"time": 41800, "pitch": 97, "duration": 55, "velocity": 100}, {"time": 41855, "pitch": 99, "duration": 55, "velocity": 100}, {"time": 41910, "pitch": 97, "duration": 55, "velocity": 100}, {"time": 41965, "pitch": 85, "duration": 110, "velocity": 100}, {"time": 42075, "pitch": 87, "duration": 55, "velocity": 100}, {"time": 42130, "pitch": 85, "duration": 55, "velocity": 100}, {"time": 42185, "pitch": 63, "duration": 55, "velocity": 100}, {"time": 42185, "pitch": 90, "duration": 55, "velocity": 100}, {"time": 42240, "pitch": 94, "duration": 110, "velocity": 100}, {"time": 42350, "pitch": 61, "duration": 55, "velocity": 100}, {"time": 42350, "pitch": 85, "duration": 55, "velocity": 100}, {"time": 42405, "pitch": 66, "duration": 55, "velocity": 100}, {"time": 42405, "pitch": 90, "duration": 110, "velocity": 100}, {"time": 42460, "pitch": 69, "duration": 220, "velocity": 100}, {"time": 42515, "pitch": 87, "duration": 55, "velocity": 100}, {"time": 42570, "pitch": 66, "duration": 110, "velocity": 100}, {"time": 42570, "pitch": 90, "duration": 55, "velocity": 100}, {"time": 42625, "pitch": 85, "duration": 110, "velocity": 100}, {"time": 42735, "pitch": 90, "duration": 55, "velocity": 100}, {"time": 42790, "pitch": 66, "duration": 110, "velocity": 100}, {"time": 42790, "pitch": 82, "duration": 110, "velocity": 100}, {"time": 42845, "pitch": 66, "duration": 110, "velocity": 100}, {"time": 42900, "pitch": 69, "duration": 220, "velocity": 100}, {"time": 42900, "pitch": 85, "duration": 55, "velocity": 100}, {"time": 42955, "pitch": 78, "duration": 55, "velocity": 100}, {"time": 43010, "pitch": 69, "duration": 110, "velocity": 100}, {"time": 43010, "pitch": 82, "duration": 110, "velocity": 100}, {"time": 43120, "pitch": 78, "duration": 55, "velocity": 100}, {"time": 43175, "pitch": 82, "duration": 55, "velocity": 100}, {"time": 43230, "pitch": 73, "duration": 110, "velocity": 100}, {"time": 43340, "pitch": 61, "duration": 110, "velocity": 100}, {"time": 43340, "pitch": 78, "duration": 55, "velocity": 100}, {"time": 43395, "pitch": 75, "duration": 110, "velocity": 100}, {"time": 43505, "pitch": 66, "duration": 55, "velocity": 100}, {"time": 43505, "pitch": 78, "duration": 55, "velocity": 100}, {"time": 43560, "pitch": 73, "duration": 55, "velocity": 100}, {"time": 43615, "pitch": 78, "duration": 110, "velocity": 100}, {"time": 43670, "pitch": 66, "duration": 110, "velocity": 100}, {"time": 43670, "pitch": 85, "duration": 110, "velocity": 100}, {"time": 43725, "pitch": 69, "duration": 55, "velocity": 100}, {"time": 43725, "pitch": 70, "duration": 55, "velocity": 100}, {"time": 43780, "pitch": 73, "duration": 55, "velocity": 100}, {"time": 43780, "pitch": 73, "duration": 110, "velocity": 100}, {"time": 43780, "pitch": 81, "duration": 110, "velocity": 100}, {"time": 43890, "pitch": 69, "duration": 55, "velocity": 100}, {"time": 43890, "pitch": 81, "duration": 110, "velocity": 100}, {"time": 43945, "pitch": 70, "duration": 55, "velocity": 100}, {"time": 43945, "pitch": 73, "duration": 55, "velocity": 100}, {"time": 44000, "pitch": 78, "duration": 880, "velocity": 100}, {"time": 44110, "pitch": 73, "duration": 55, "velocity": 100}, {"time": 44165, "pitch": 66, "duration": 55, "velocity": 100}, {"time": 44165, "pitch": 68, "duration": 55, "velocity": 100}, {"time": 44220, "pitch": 69, "duration": 220, "velocity": 100}, {"time": 44220, "pitch": 73, "duration": 110, "velocity": 100}, {"time": 44330, "pitch": 66, "duration": 110, "velocity": 100}, {"time": 44330, "pitch": 68, "duration": 55, "velocity": 100}, {"time": 44385, "pitch": 80, "duration": 55, "velocity": 100}, {"time": 44440, "pitch": 68, "duration": 110, "velocity": 100}, {"time": 44550, "pitch": 66, "duration": 165, "velocity": 100}, {"time": 44550, "pitch": 80, "duration": 55, "velocity": 100}, {"time": 44605, "pitch": 69, "duration": 55, "velocity": 100}, {"time": 44605, "pitch": 75, "duration": 110, "velocity": 100}, {"time": 44660, "pitch": 69, "duration": 220, "velocity": 100}, {"time": 44715, "pitch": 80, "duration": 55, "velocity": 100}, {"time": 44770, "pitch": 66, "duration": 110, "velocity": 100}, {"time": 44770, "pitch": 75, "duration": 55, "velocity": 100}, {"time": 44825, "pitch": 87, "duration": 110, "velocity": 100}, {"time": 44935, "pitch": 75, "duration": 55, "velocity": 100}, {"time": 44990, "pitch": 66, "duration": 110, "velocity": 100}, {"time": 44990, "pitch": 87, "duration": 110, "velocity": 100}, {"time": 45100, "pitch": 69, "duration": 220, "velocity": 100}, {"time": 45100, "pitch": 80, "duration": 55, "velocity": 100}, {"time": 45155, "pitch": 87, "duration": 55, "velocity": 100}, {"time": 45210, "pitch": 66, "duration": 110, "velocity": 100}, {"time": 45210, "pitch": 80, "duration": 110, "velocity": 100}, {"time": 45320, "pitch": 92, "duration": 55, "velocity": 100}, {"time": 45375, "pitch": 80, "duration": 55, "velocity": 100}, {"time": 45375, "pitch": 80, "duration": 55, "velocity": 100}, {"time": 45430, "pitch": 81, "duration": 55, "velocity": 100}, {"time": 45430, "pitch": 92, "duration": 110, "velocity": 100}, {"time": 45485, "pitch": 83, "duration": 55, "velocity": 100}, {"time": 45540, "pitch": 69, "duration": 220, "velocity": 100}, {"time": 45540, "pitch": 85, "duration": 55, "velocity": 100}, {"time": 45595, "pitch": 92, "duration": 110, "velocity": 100}, {"time": 45650, "pitch": 66, "duration": 110, "velocity": 100}, {"time": 45650, "pitch": 73, "duration": 110, "velocity": 100}, {"time": 45705, "pitch": 85, "duration": 55, "velocity": 100}, {"time": 45760, "pitch": 97, "duration": 110, "velocity": 100}, {"time": 45815, "pitch": 64, "duration": 55, "velocity": 100}, {"time": 45870, "pitch": 66, "duration": 55, "velocity": 100}, {"time": 45925, "pitch": 94, "duration": 55, "velocity": 100}, {"time": 45980, "pitch": 64, "duration": 220, "velocity": 100}, {"time": 45980, "pitch": 85, "duration": 110, "velocity": 100}, {"time": 46090, "pitch": 90, "duration": 55, "velocity": 100}, {"time": 46145, "pitch": 87, "duration": 55, "velocity": 100}, {"time": 46200, "pitch": 90, "duration": 110, "velocity": 100}, {"time": 46255, "pitch": 64, "duration": 55, "velocity": 100}, {"time": 46310, "pitch": 66, "duration": 55, "velocity": 100}, {"time": 46365, "pitch": 90, "duration": 110, "velocity": 100}, {"time": 46475, "pitch": 82, "duration": 55, "velocity": 100}, {"time": 46530, "pitch": 85, "duration": 55, "velocity": 100}, {"time": 46585, "pitch": 61, "duration": 165, "velocity": 100}, {"time": 46585, "pitch": 78, "duration": 110, "velocity": 100}, {"time": 46695, "pitch": 82, "duration": 55, "velocity": 100}, {"time": 46750, "pitch": 78, "duration": 55, "velocity": 100}, {"time": 46805, "pitch": 59, "duration": 55, "velocity": 100}, {"time": 46805, "pitch": 82, "duration": 55, "velocity": 100}, {"time": 46860, "pitch": 59, "duration": 110, "velocity": 100}, {"time": 46860, "pitch": 63, "duration": 55, "velocity": 100}, {"time": 46860, "pitch": 73, "duration": 55, "velocity": 100}, {"time": 46915, "pitch": 64, "duration": 55, "velocity": 100}, {"time": 46915, "pitch": 78, "duration": 55, "velocity": 100}, {"time": 46970, "pitch": 75, "duration": 55, "velocity": 100}, {"time": 47025, "pitch": 61, "duration": 55, "velocity": 100}, {"time": 47025, "pitch": 78, "duration": 55, "velocity": 100}, {"time": 47080, "pitch": 71, "duration": 220, "velocity": 100}, {"time": 47080, "pitch": 73, "duration": 55, "velocity": 100}, {"time": 47135, "pitch": 78, "duration": 110, "velocity": 100}, {"time": 47190, "pitch": 68, "duration": 55, "velocity": 100}, {"time": 47245, "pitch": 61, "duration": 165, "velocity": 100}, {"time": 47245, "pitch": 70, "duration": 55, "velocity": 100}, {"time": 47300, "pitch": 64, "duration": 220, "velocity": 100}, {"time": 47300, "pitch": 73, "duration": 55, "velocity": 100}, {"time": 47355, "pitch": 66, "duration": 55, "velocity": 100}, {"time": 47410, "pitch": 61, "duration": 55, "velocity": 100}, {"time": 47410, "pitch": 70, "duration": 55, "velocity": 100}, {"time": 47465, "pitch": 63, "duration": 55, "velocity": 100}, {"time": 47520, "pitch": 75, "duration": 55, "velocity": 100}, {"time": 47575, "pitch": 68, "duration": 110, "velocity": 100}, {"time": 47685, "pitch": 56, "duration": 110, "velocity": 100}, {"time": 47685, "pitch": 75, "duration": 55, "velocity": 100}, {"time": 47740, "pitch": 64, "duration": 220, "velocity": 100}, {"time": 47740, "pitch": 68, "duration": 110, "velocity": 100}, {"time": 47795, "pitch": 66, "duration": 55, "velocity": 100}, {"time": 47850, "pitch": 61, "duration": 110, "velocity": 100}, {"time": 47850, "pitch": 80, "duration": 55, "velocity": 100}, {"time": 47905, "pitch": 63, "duration": 55, "velocity": 100}, {"time": 47905, "pitch": 70, "duration": 55, "velocity": 100}, {"time": 47960, "pitch": 61, "duration": 440, "velocity": 100}, {"time": 47960, "pitch": 82, "duration": 110, "velocity": 100}, {"time": 48070, "pitch": 70, "duration": 55, "velocity": 100}, {"time": 48125, "pitch": 82, "duration": 110, "velocity": 100}, {"time": 48180, "pitch": 61, "duration": 220, "velocity": 100}, {"time": 48235, "pitch": 70, "duration": 55, "velocity": 100}, {"time": 48290, "pitch": 82, "duration": 55, "velocity": 100}, {"time": 48345, "pitch": 75, "duration": 110, "velocity": 100}, {"time": 48455, "pitch": 68, "duration": 55, "velocity": 100}, {"time": 48510, "pitch": 68, "duration": 55, "velocity": 100}, {"time": 48510, "pitch": 80, "duration": 110, "velocity": 100}, {"time": 48565, "pitch": 68, "duration": 55, "velocity": 100}, {"time": 48620, "pitch": 64, "duration": 385, "velocity": 100}, {"time": 48620, "pitch": 68, "duration": 110, "velocity": 100}, {"time": 48620, "pitch": 87, "duration": 55, "velocity": 100}, {"time": 48675, "pitch": 80, "duration": 110, "velocity": 100}, {"time": 48730, "pitch": 61, "duration": 110, "velocity": 100}, {"time": 48785, "pitch": 92, "duration": 55, "velocity": 100}, {"time": 48840, "pitch": 73, "duration": 55, "velocity": 100}, {"time": 48840, "pitch": 82, "duration": 110, "velocity": 100}, {"time": 48895, "pitch": 73, "duration": 55, "velocity": 100}, {"time": 48950, "pitch": 78, "duration": 330, "velocity": 100}, {"time": 49005, "pitch": 82, "duration": 110, "velocity": 100}, {"time": 49060, "pitch": 64, "duration": 220, "velocity": 100}, {"time": 49115, "pitch": 94, "duration": 55, "velocity": 100}, {"time": 49170, "pitch": 61, "duration": 110, "velocity": 100}, {"time": 49170, "pitch": 82, "duration": 110, "velocity": 100}, {"time": 49280, "pitch": 94, "duration": 55, "velocity": 100}, {"time": 49335, "pitch": 82, "duration": 110, "velocity": 100}, {"time": 49445, "pitch": 56, "duration": 275, "velocity": 100}, {"time": 49445, "pitch": 94, "duration": 55, "velocity": 100}, {"time": 49500, "pitch": 64, "duration": 385, "velocity": 100}, {"time": 49500, "pitch": 87, "duration": 110, "velocity": 100}, {"time": 49610, "pitch": 94, "duration": 55, "velocity": 100}, {"time": 49665, "pitch": 80, "duration": 55, "velocity": 100}, {"time": 49720, "pitch": 92, "duration": 110, "velocity": 100}, {"time": 49775, "pitch": 78, "duration": 55, "velocity": 100}, {"time": 49830, "pitch": 78, "duration": 55, "velocity": 100}, {"time": 49885, "pitch": 78, "duration": 275, "velocity": 100}, {"time": 49885, "pitch": 92, "duration": 110, "velocity": 100}, {"time": 49995, "pitch": 85, "duration": 55, "velocity": 100}, {"time": 50050, "pitch": 61, "duration": 110, "velocity": 100}, {"time": 50050, "pitch": 92, "duration": 55, "velocity": 100}, {"time": 50105, "pitch": 78, "duration": 110, "velocity": 100}, {"time": 50215, "pitch": 90, "duration": 55, "velocity": 100}, {"time": 50270, "pitch": 73, "duration": 55, "velocity": 100}, {"time": 50325, "pitch": 85, "duration": 55, "velocity": 100}, {"time": 50380, "pitch": 63, "duration": 385, "velocity": 100}, {"time": 50380, "pitch": 80, "duration": 55, "velocity": 100}, {"time": 50435, "pitch": 85, "duration": 55, "velocity": 100}, {"time": 50490, "pitch": 61, "duration": 275, "velocity": 100}, {"time": 50490, "pitch": 71, "duration": 55, "velocity": 100}, {"time": 50490, "pitch": 80, "duration": 55, "velocity": 100}, {"time": 50545, "pitch": 71, "duration": 55, "velocity": 100}, {"time": 50545, "pitch": 92, "duration": 55, "velocity": 100}, {"time": 50600, "pitch": 78, "duration": 110, "velocity": 100}, {"time": 50655, "pitch": 73, "duration": 55, "velocity": 100}, {"time": 50710, "pitch": 71, "duration": 110, "velocity": 100}, {"time": 50765, "pitch": 85, "duration": 55, "velocity": 100}, {"time": 50820, "pitch": 63, "duration": 220, "velocity": 100}, {"time": 50820, "pitch": 90, "duration": 55, "velocity": 100}, {"time": 50875, "pitch": 85, "duration": 55, "velocity": 100}, {"time": 50930, "pitch": 61, "duration": 110, "velocity": 100}, {"time": 50930, "pitch": 97, "duration": 55, "velocity": 100}, {"time": 50985, "pitch": 82, "duration": 55, "velocity": 100}, {"time": 51040, "pitch": 94, "duration": 110, "velocity": 100}, {"time": 51095, "pitch": 63, "duration": 165, "velocity": 100}, {"time": 51150, "pitch": 66, "duration": 110, "velocity": 100}, {"time": 51150, "pitch": 87, "duration": 55, "velocity": 100}, {"time": 51205, "pitch": 71, "duration": 165, "velocity": 100}, {"time": 51205, "pitch": 94, "duration": 55, "velocity": 100}, {"time": 51260, "pitch": 75, "duration": 220, "velocity": 100}, {"time": 51260, "pitch": 80, "duration": 110, "velocity": 100}, {"time": 51370, "pitch": 92, "duration": 55, "velocity": 100}, {"time": 51425, "pitch": 80, "duration": 55, "velocity": 100}, {"time": 51480, "pitch": 92, "duration": 110, "velocity": 100}, {"time": 51590, "pitch": 85, "duration": 55, "velocity": 100}, {"time": 51645, "pitch": 92, "duration": 110, "velocity": 100}, {"time": 51700, "pitch": 71, "duration": 220, "velocity": 100}, {"time": 51755, "pitch": 78, "duration": 55, "velocity": 100}, {"time": 51810, "pitch": 90, "duration": 55, "velocity": 100}, {"time": 51865, "pitch": 73, "duration": 110, "velocity": 100}, {"time": 51975, "pitch": 85, "duration": 55, "velocity": 100}, {"time": 52030, "pitch": 80, "duration": 55, "velocity": 100}, {"time": 52085, "pitch": 85, "duration": 110, "velocity": 100}, {"time": 52140, "pitch": 66, "duration": 220, "velocity": 100}, {"time": 52195, "pitch": 80, "duration": 55, "velocity": 100}, {"time": 52250, "pitch": 63, "duration": 110, "velocity": 100}, {"time": 52250, "pitch": 92, "duration": 110, "velocity": 100}, {"time": 52360, "pitch": 78, "duration": 55, "velocity": 100}, {"time": 52415, "pitch": 90, "duration": 55, "velocity": 100}, {"time": 52470, "pitch": 85, "duration": 110, "velocity": 100}, {"time": 52525, "pitch": 63, "duration": 110, "velocity": 100}, {"time": 52580, "pitch": 71, "duration": 220, "velocity": 100}, {"time": 52580, "pitch": 90, "duration": 55, "velocity": 100}, {"time": 52635, "pitch": 85, "duration": 110, "velocity": 100}, {"time": 52745, "pitch": 97, "duration": 55, "velocity": 100}, {"time": 52800, "pitch": 82, "duration": 55, "velocity": 100}, {"time": 52855, "pitch": 94, "duration": 110, "velocity": 100}, {"time": 52965, "pitch": 87, "duration": 55, "velocity": 100}, {"time": 53020, "pitch": 66, "duration": 220, "velocity": 100}, {"time": 53020, "pitch": 94, "duration": 110, "velocity": 100}, {"time": 53130, "pitch": 80, "duration": 55, "velocity": 100}, {"time": 53185, "pitch": 92, "duration": 55, "velocity": 100}, {"time": 53350, "pitch": 94, "duration": 55, "velocity": 100}, {"time": 53405, "pitch": 66, "duration": 110, "velocity": 100}, {"time": 53405, "pitch": 87, "duration": 110, "velocity": 100}, {"time": 53460, "pitch": 71, "duration": 220, "velocity": 100}, {"time": 53515, "pitch": 94, "duration": 55, "velocity": 100}, {"time": 53570, "pitch": 66, "duration": 110, "velocity": 100}, {"time": 53570, "pitch": 80, "duration": 55, "velocity": 100}, {"time": 53625, "pitch": 92, "duration": 110, "velocity": 100}, {"time": 53735, "pitch": 82, "duration": 55, "velocity": 100}, {"time": 53790, "pitch": 94, "duration": 110, "velocity": 100}, {"time": 53900, "pitch": 66, "duration": 220, "velocity": 100}, {"time": 53900, "pitch": 87, "duration": 55, "velocity": 100}, {"time": 53955, "pitch": 94, "duration": 110, "velocity": 100}, {"time": 54010, "pitch": 63, "duration": 110, "velocity": 100}, {"time": 54065, "pitch": 80, "duration": 55, "velocity": 100}, {"time": 54120, "pitch": 92, "duration": 55, "velocity": 100}, {"time": 54175, "pitch": 82, "duration": 110, "velocity": 100}, {"time": 54285, "pitch": 63, "duration": 55, "velocity": 100}, {"time": 54285, "pitch": 94, "duration": 55, "velocity": 100}, {"time": 54340, "pitch": 71, "duration": 220, "velocity": 100}, {"time": 54340, "pitch": 87, "duration": 110, "velocity": 100}, {"time": 54450, "pitch": 94, "duration": 55, "velocity": 100}, {"time": 54505, "pitch": 80, "duration": 55, "velocity": 100}, {"time": 54560, "pitch": 92, "duration": 110, "velocity": 100}, {"time": 54670, "pitch": 85, "duration": 55, "velocity": 100}, {"time": 54725, "pitch": 66, "duration": 55, "velocity": 100}, {"time": 54725, "pitch": 94, "duration": 55, "velocity": 100}, {"time": 54780, "pitch": 71, "duration": 220, "velocity": 100}, {"time": 54780, "pitch": 80, "duration": 55, "velocity": 100}, {"time": 54835, "pitch": 92, "duration": 55, "velocity": 100}, {"time": 54890, "pitch": 85, "duration": 55, "velocity": 100}, {"time": 54945, "pitch": 94, "duration": 55, "velocity": 100}, {"time": 55000, "pitch": 80, "duration": 110, "velocity": 100}, {"time": 55110, "pitch": 92, "duration": 55, "velocity": 100}, {"time": 55165, "pitch": 85, "duration": 55, "velocity": 100}, {"time": 55220, "pitch": 71, "duration": 220, "velocity": 100}, {"time": 55220, "pitch": 94, "duration": 55, "velocity": 100}, {"time": 55275, "pitch": 80, "duration": 55, "velocity": 100}, {"time": 55330, "pitch": 92, "duration": 55, "velocity": 100}, {"time": 55385, "pitch": 85, "duration": 110, "velocity": 100}, {"time": 55495, "pitch": 94, "duration": 55, "velocity": 100}, {"time": 55550, "pitch": 80, "duration": 110, "velocity": 100}, {"time": 55605, "pitch": 66, "duration": 55, "velocity": 100}, {"time": 55660, "pitch": 92, "duration": 55, "velocity": 100}, {"time": 55715, "pitch": 85, "duration": 110, "velocity": 100}, {"time": 55770, "pitch": 63, "duration": 110, "velocity": 100}, {"time": 55825, "pitch": 94, "duration": 55, "velocity": 100}, {"time": 55880, "pitch": 80, "duration": 55, "velocity": 100}, {"time": 55935, "pitch": 63, "duration": 55, "velocity": 100}, {"time": 55935, "pitch": 92, "duration": 110, "velocity": 100}, {"time": 55990, "pitch": 66, "duration": 55, "velocity": 100}, {"time": 56045, "pitch": 71, "duration": 55, "velocity": 100}, {"time": 56045, "pitch": 85, "duration": 55, "velocity": 100}, {"time": 56100, "pitch": 63, "duration": 220, "velocity": 100}, {"time": 56100, "pitch": 66, "duration": 220, "velocity": 100}, {"time": 56100, "pitch": 75, "duration": 55, "velocity": 100}, {"time": 56100, "pitch": 94, "duration": 110, "velocity": 100}, {"time": 56155, "pitch": 75, "duration": 55, "velocity": 100}, {"time": 56210, "pitch": 75, "duration": 55, "velocity": 100}, {"time": 56210, "pitch": 80, "duration": 110, "velocity": 100}, {"time": 56265, "pitch": 71, "duration": 55, "velocity": 100}, {"time": 56320, "pitch": 71, "duration": 220, "velocity": 100}, {"time": 56320, "pitch": 92, "duration": 110, "velocity": 100}, {"time": 56430, "pitch": 99, "duration": 110, "velocity": 100}, {"time": 56485, "pitch": 66, "duration": 55, "velocity": 100}, {"time": 56540, "pitch": 71, "duration": 220, "velocity": 100}, {"time": 56540, "pitch": 97, "duration": 55, "velocity": 100}, {"time": 56595, "pitch": 94, "duration": 55, "velocity": 100}, {"time": 56650, "pitch": 92, "duration": 55, "velocity": 100}, {"time": 56705, "pitch": 90, "duration": 55, "velocity": 100}, {"time": 56760, "pitch": 87, "duration": 55, "velocity": 100}, {"time": 56815, "pitch": 85, "duration": 55, "velocity": 100}, {"time": 56870, "pitch": 82, "duration": 55, "velocity": 100}, {"time": 56925, "pitch": 80, "duration": 55, "velocity": 100}, {"time": 56980, "pitch": 71, "duration": 220, "velocity": 100}, {"time": 56980, "pitch": 78, "duration": 55, "velocity": 100}, {"time": 57035, "pitch": 75, "duration": 55, "velocity": 100}, {"time": 57090, "pitch": 73, "duration": 55, "velocity": 100}, {"time": 57145, "pitch": 68, "duration": 495, "velocity": 100}, {"time": 57310, "pitch": 59, "duration": 110, "velocity": 100}, {"time": 57475, "pitch": 59, "duration": 165, "velocity": 100}, {"time": 57530, "pitch": 63, "duration": 55, "velocity": 100}, {"time": 57640, "pitch": 70, "duration": 385, "velocity": 100}, {"time": 57750, "pitch": 59, "duration": 220, "velocity": 100}, {"time": 57805, "pitch": 63, "duration": 165, "velocity": 100}, {"time": 57860, "pitch": 71, "duration": 220, "velocity": 100}, {"time": 57970, "pitch": 66, "duration": 110, "velocity": 100}, {"time": 58025, "pitch": 59, "duration": 55, "velocity": 100}, {"time": 58025, "pitch": 63, "duration": 55, "velocity": 100}, {"time": 58025, "pitch": 68, "duration": 55, "velocity": 100}, {"time": 58135, "pitch": 59, "duration": 165, "velocity": 100}, {"time": 58135, "pitch": 66, "duration": 440, "velocity": 100}, {"time": 58190, "pitch": 63, "duration": 165, "velocity": 100}, {"time": 58245, "pitch": 66, "duration": 165, "velocity": 100}, {"time": 58300, "pitch": 71, "duration": 220, "velocity": 100}, {"time": 58575, "pitch": 92, "duration": 110, "velocity": 100}, {"time": 58685, "pitch": 94, "duration": 55, "velocity": 100}, {"time": 58740, "pitch": 66, "duration": 220, "velocity": 100}, {"time": 58740, "pitch": 92, "duration": 110, "velocity": 100}, {"time": 58850, "pitch": 85, "duration": 55, "velocity": 100}, {"time": 58905, "pitch": 97, "duration": 55, "velocity": 100}, {"time": 59070, "pitch": 85, "duration": 55, "velocity": 100}, {"time": 59125, "pitch": 87, "duration": 55, "velocity": 100}, {"time": 59180, "pitch": 63, "duration": 220, "velocity": 100}, {"time": 59180, "pitch": 85, "duration": 110, "velocity": 100}, {"time": 59290, "pitch": 78, "duration": 55, "velocity": 100}, {"time": 59345, "pitch": 90, "duration": 110, "velocity": 100}, {"time": 59455, "pitch": 78, "duration": 55, "velocity": 100}, {"time": 59510, "pitch": 80, "duration": 55, "velocity": 100}, {"time": 59565, "pitch": 59, "duration": 275, "velocity": 100}, {"time": 59565, "pitch": 82, "duration": 110, "velocity": 100}, {"time": 59565, "pitch": 83, "duration": 55, "velocity": 100}, {"time": 59620, "pitch": 83, "duration": 110, "velocity": 100}, {"time": 59675, "pitch": 80, "duration": 55, "velocity": 100}, {"time": 59730, "pitch": 73, "duration": 110, "velocity": 100}, {"time": 59730, "pitch": 83, "duration": 110, "velocity": 100}, {"time": 60005, "pitch": 78, "duration": 55, "velocity": 100}, {"time": 60060, "pitch": 80, "duration": 55, "velocity": 100}, {"time": 60115, "pitch": 82, "duration": 55, "velocity": 100}, {"time": 60170, "pitch": 80, "duration": 110, "velocity": 100}, {"time": 60335, "pitch": 73, "duration": 55, "velocity": 100}, {"time": 60390, "pitch": 80, "duration": 55, "velocity": 100}, {"time": 60445, "pitch": 85, "duration": 55, "velocity": 100}, {"time": 60500, "pitch": 69, "duration": 220, "velocity": 100}, {"time": 60500, "pitch": 87, "duration": 55, "velocity": 100}, {"time": 60555, "pitch": 85, "duration": 55, "velocity": 100}, {"time": 60610, "pitch": 64, "duration": 110, "velocity": 100}, {"time": 60610, "pitch": 80, "duration": 55, "velocity": 100}, {"time": 60665, "pitch": 78, "duration": 55, "velocity": 100}, {"time": 60720, "pitch": 85, "duration": 110, "velocity": 100}, {"time": 60830, "pitch": 90, "duration": 55, "velocity": 100}, {"time": 60885, "pitch": 92, "duration": 110, "velocity": 100}, {"time": 60940, "pitch": 64, "duration": 220, "velocity": 100}, {"time": 60995, "pitch": 90, "duration": 55, "velocity": 100}, {"time": 61050, "pitch": 87, "duration": 55, "velocity": 100}, {"time": 61105, "pitch": 85, "duration": 110, "velocity": 100}, {"time": 61215, "pitch": 92, "duration": 55, "velocity": 100}, {"time": 61270, "pitch": 97, "duration": 110, "velocity": 100}, {"time": 61325, "pitch": 61, "duration": 110, "velocity": 100}, {"time": 61380, "pitch": 66, "duration": 220, "velocity": 100}, {"time": 61380, "pitch": 69, "duration": 220, "velocity": 100}, {"time": 61380, "pitch": 99, "duration": 55, "velocity": 100}, {"time": 61435, "pitch": 97, "duration": 55, "velocity": 100}, {"time": 61490, "pitch": 61, "duration": 110, "velocity": 100}, {"time": 61490, "pitch": 92, "duration": 110, "velocity": 100}, {"time": 61600, "pitch": 90, "duration": 55, "velocity": 100}, {"time": 61655, "pitch": 92, "duration": 55, "velocity": 100}, {"time": 61710, "pitch": 90, "duration": 110, "velocity": 100}, {"time": 61765, "pitch": 61, "duration": 165, "velocity": 100}, {"time": 61820, "pitch": 66, "duration": 220, "velocity": 100}, {"time": 61820, "pitch": 85, "duration": 55, "velocity": 100}, {"time": 61875, "pitch": 97, "duration": 110, "velocity": 100}, {"time": 61985, "pitch": 85, "duration": 55, "velocity": 100}, {"time": 62040, "pitch": 85, "duration": 55, "velocity": 100}, {"time": 62095, "pitch": 87, "duration": 110, "velocity": 100}, {"time": 62205, "pitch": 85, "duration": 55, "velocity": 100}, {"time": 62260, "pitch": 66, "duration": 220, "velocity": 100}, {"time": 62260, "pitch": 80, "duration": 110, "velocity": 100}, {"time": 62370, "pitch": 92, "duration": 55, "velocity": 100}, {"time": 62425, "pitch": 80, "duration": 55, "velocity": 100}, {"time": 62480, "pitch": 80, "duration": 110, "velocity": 100}, {"time": 62590, "pitch": 82, "duration": 55, "velocity": 100}, {"time": 62645, "pitch": 61, "duration": 55, "velocity": 100}, {"time": 62645, "pitch": 80, "duration": 55, "velocity": 100}, {"time": 62700, "pitch": 78, "duration": 110, "velocity": 100}, {"time": 62810, "pitch": 90, "duration": 55, "velocity": 100}, {"time": 62865, "pitch": 78, "duration": 110, "velocity": 100}, {"time": 62975, "pitch": 73, "duration": 385, "velocity": 100}, {"time": 63030, "pitch": 61, "duration": 55, "velocity": 100}, {"time": 63085, "pitch": 85, "duration": 55, "velocity": 100}, {"time": 63140, "pitch": 57, "duration": 165, "velocity": 100}, {"time": 63140, "pitch": 61, "duration": 220, "velocity": 100}, {"time": 63140, "pitch": 66, "duration": 55, "velocity": 100}, {"time": 63195, "pitch": 81, "duration": 55, "velocity": 100}, {"time": 63250, "pitch": 81, "duration": 55, "velocity": 100}, {"time": 63305, "pitch": 81, "duration": 55, "velocity": 100}, {"time": 63360, "pitch": 78, "duration": 220, "velocity": 100}, {"time": 63470, "pitch": 78, "duration": 110, "velocity": 100}, {"time": 63525, "pitch": 61, "duration": 275, "velocity": 100}, {"time": 63580, "pitch": 66, "duration": 220, "velocity": 100}, {"time": 63580, "pitch": 80, "duration": 55, "velocity": 100}, {"time": 63635, "pitch": 82, "duration": 55, "velocity": 100}, {"time": 63690, "pitch": 61, "duration": 110, "velocity": 100}, {"time": 63690, "pitch": 80, "duration": 110, "velocity": 100}, {"time": 63800, "pitch": 78, "duration": 55, "velocity": 100}, {"time": 63855, "pitch": 73, "duration": 110, "velocity": 100}, {"time": 63965, "pitch": 78, "duration": 55, "velocity": 100}, {"time": 63965, "pitch": 80, "duration": 55, "velocity": 100}, {"time": 64020, "pitch": 66, "duration": 220, "velocity": 100}, {"time": 64020, "pitch": 81, "duration": 165, "velocity": 100}, {"time": 64020, "pitch": 85, "duration": 55, "velocity": 100}, {"time": 64075, "pitch": 87, "duration": 110, "velocity": 100}, {"time": 64185, "pitch": 85, "duration": 55, "velocity": 100}, {"time": 64240, "pitch": 80, "duration": 110, "velocity": 100}, {"time": 64350, "pitch": 78, "duration": 55, "velocity": 100}, {"time": 64405, "pitch": 85, "duration": 55, "velocity": 100}, {"time": 64460, "pitch": 90, "duration": 110, "velocity": 100}, {"time": 64570, "pitch": 92, "duration": 55, "velocity": 100}, {"time": 64625, "pitch": 90, "duration": 55, "velocity": 100}, {"time": 64680, "pitch": 85, "duration": 110, "velocity": 100}, {"time": 64790, "pitch": 80, "duration": 55, "velocity": 100}, {"time": 64845, "pitch": 85, "duration": 110, "velocity": 100}, {"time": 64955, "pitch": 92, "duration": 55, "velocity": 100}, {"time": 65010, "pitch": 94, "duration": 55, "velocity": 100}, {"time": 65065, "pitch": 92, "duration": 55, "velocity": 100}, {"time": 65175, "pitch": 85, "duration": 55, "velocity": 100}, {"time": 65230, "pitch": 94, "duration": 55, "velocity": 100}, {"time": 65285, "pitch": 85, "duration": 55, "velocity": 100}, {"time": 65340, "pitch": 61, "duration": 275, "velocity": 100}, {"time": 65340, "pitch": 92, "duration": 55, "velocity": 100}, {"time": 65395, "pitch": 82, "duration": 55, "velocity": 100}, {"time": 65450, "pitch": 92, "duration": 55, "velocity": 100}, {"time": 65505, "pitch": 85, "duration": 110, "velocity": 100}, {"time": 65615, "pitch": 90, "duration": 55, "velocity": 100}, {"time": 65670, "pitch": 82, "duration": 55, "velocity": 100}, {"time": 65725, "pitch": 87, "duration": 55, "velocity": 100}, {"time": 65780, "pitch": 61, "duration": 110, "velocity": 100}, {"time": 65780, "pitch": 80, "duration": 55, "velocity": 100}, {"time": 65835, "pitch": 85, "duration": 55, "velocity": 100}, {"time": 65890, "pitch": 73, "duration": 55, "velocity": 100}, {"time": 65945, "pitch": 82, "duration": 55, "velocity": 100}, {"time": 66000, "pitch": 73, "duration": 110, "velocity": 100}, {"time": 66110, "pitch": 80, "duration": 55, "velocity": 100}, {"time": 66165, "pitch": 56, "duration": 110, "velocity": 100}, {"time": 66165, "pitch": 70, "duration": 110, "velocity": 100}, {"time": 66220, "pitch": 61, "duration": 275, "velocity": 100}, {"time": 66275, "pitch": 80, "duration": 55, "velocity": 100}, {"time": 66330, "pitch": 73, "duration": 55, "velocity": 100}, {"time": 66385, "pitch": 57, "duration": 165, "velocity": 100}, {"time": 66385, "pitch": 78, "duration": 110, "velocity": 100}, {"time": 66495, "pitch": 70, "duration": 55, "velocity": 100}, {"time": 66550, "pitch": 75, "duration": 55, "velocity": 100}, {"time": 66605, "pitch": 56, "duration": 165, "velocity": 100}, {"time": 66605, "pitch": 68, "duration": 110, "velocity": 100}, {"time": 66660, "pitch": 61, "duration": 165, "velocity": 100}, {"time": 66715, "pitch": 73, "duration": 55, "velocity": 100}, {"time": 66770, "pitch": 61, "duration": 110, "velocity": 100}, {"time": 66825, "pitch": 56, "duration": 55, "velocity": 100}, {"time": 66880, "pitch": 70, "duration": 55, "velocity": 100}, {"time": 66935, "pitch": 61, "duration": 55, "velocity": 100}, {"time": 66990, "pitch": 68, "duration": 110, "velocity": 100}, {"time": 67045, "pitch": 54, "duration": 55, "velocity": 100}, {"time": 67100, "pitch": 58, "duration": 55, "velocity": 100}, {"time": 67100, "pitch": 61, "duration": 110, "velocity": 100}, {"time": 67155, "pitch": 52, "duration": 55, "velocity": 100}, {"time": 67155, "pitch": 68, "duration": 110, "velocity": 100}, {"time": 67265, "pitch": 56, "duration": 55, "velocity": 100}, {"time": 67265, "pitch": 61, "duration": 55, "velocity": 100}, {"time": 67320, "pitch": 66, "duration": 55, "velocity": 100}, {"time": 67375, "pitch": 52, "duration": 55, "velocity": 100}, {"time": 67375, "pitch": 58, "duration": 110, "velocity": 100}, {"time": 67430, "pitch": 52, "duration": 55, "velocity": 100}, {"time": 67485, "pitch": 51, "duration": 55, "velocity": 100}, {"time": 67485, "pitch": 63, "duration": 55, "velocity": 100}, {"time": 67540, "pitch": 56, "duration": 110, "velocity": 100}, {"time": 67540, "pitch": 63, "duration": 110, "velocity": 100}, {"time": 67595, "pitch": 56, "duration": 55, "velocity": 100}, {"time": 67650, "pitch": 54, "duration": 110, "velocity": 100}, {"time": 67650, "pitch": 61, "duration": 55, "velocity": 100}]}, {"program": 70, "is_drum": false, "name": "Tenor", "notes": [{"time": 0, "pitch": 90, "duration": 110, "velocity": 100}, {"time": 660, "pitch": 69, "duration": 330, "velocity": 100}, {"time": 770, "pitch": 78, "duration": 110, "velocity": 100}, {"time": 880, "pitch": 82, "duration": 55, "velocity": 100}, {"time": 1100, "pitch": 73, "duration": 55, "velocity": 100}, {"time": 1265, "pitch": 75, "duration": 55, "velocity": 100}, {"time": 1320, "pitch": 69, "duration": 440, "velocity": 100}, {"time": 1375, "pitch": 73, "duration": 110, "velocity": 100}, {"time": 1540, "pitch": 66, "duration": 220, "velocity": 100}, {"time": 1540, "pitch": 70, "duration": 55, "velocity": 100}, {"time": 1705, "pitch": 66, "duration": 55, "velocity": 100}, {"time": 1760, "pitch": 70, "duration": 110, "velocity": 100}, {"time": 1870, "pitch": 61, "duration": 55, "velocity": 100}, {"time": 1980, "pitch": 68, "duration": 110, "velocity": 100}, {"time": 2145, "pitch": 68, "duration": 55, "velocity": 100}, {"time": 2200, "pitch": 69, "duration": 880, "velocity": 100}, {"time": 2310, "pitch": 68, "duration": 55, "velocity": 100}, {"time": 2420, "pitch": 66, "duration": 550, "velocity": 100}, {"time": 2750, "pitch": 75, "duration": 55, "velocity": 100}, {"time": 2970, "pitch": 80, "duration": 55, "velocity": 100}, {"time": 3080, "pitch": 69, "duration": 440, "velocity": 100}, {"time": 3300, "pitch": 69, "duration": 220, "velocity": 100}, {"time": 3630, "pitch": 85, "duration": 55, "velocity": 100}, {"time": 3740, "pitch": 87, "duration": 110, "velocity": 100}, {"time": 3850, "pitch": 68, "duration": 110, "velocity": 100}, {"time": 3960, "pitch": 73, "duration": 440, "velocity": 100}, {"time": 4235, "pitch": 78, "duration": 55, "velocity": 100}, {"time": 4455, "pitch": 82, "duration": 55, "velocity": 100}, {"time": 4510, "pitch": 73, "duration": 110, "velocity": 100}, {"time": 4620, "pitch": 78, "duration": 55, "velocity": 100}, {"time": 4730, "pitch": 78, "duration": 110, "velocity": 100}, {"time": 4840, "pitch": 71, "duration": 440, "velocity": 100}, {"time": 4840, "pitch": 73, "duration": 55, "velocity": 100}, {"time": 5005, "pitch": 70, "duration": 55, "velocity": 100}, {"time": 5060, "pitch": 73, "duration": 55, "velocity": 100}, {"time": 5225, "pitch": 70, "duration": 55, "velocity": 100}, {"time": 5280, "pitch": 63, "duration": 55, "velocity": 100}, {"time": 5445, "pitch": 68, "duration": 55, "velocity": 100}, {"time": 5500, "pitch": 75, "duration": 110, "velocity": 100}, {"time": 5610, "pitch": 68, "duration": 55, "velocity": 100}, {"time": 5830, "pitch": 80, "duration": 55, "velocity": 100}, {"time": 6050, "pitch": 80, "duration": 55, "velocity": 100}, {"time": 6215, "pitch": 82, "duration": 55, "velocity": 100}, {"time": 6380, "pitch": 82, "duration": 55, "velocity": 100}, {"time": 6490, "pitch": 68, "duration": 55, "velocity": 100}, {"time": 6600, "pitch": 64, "duration": 220, "velocity": 100}, {"time": 6600, "pitch": 68, "duration": 275, "velocity": 100}, {"time": 6820, "pitch": 82, "duration": 110, "velocity": 100}, {"time": 6930, "pitch": 68, "duration": 55, "velocity": 100}, {"time": 7150, "pitch": 90, "duration": 55, "velocity": 100}, {"time": 7260, "pitch": 85, "duration": 55, "velocity": 100}, {"time": 7480, "pitch": 69, "duration": 880, "velocity": 100}, {"time": 7700, "pitch": 85, "duration": 55, "velocity": 100}, {"time": 7755, "pitch": 78, "duration": 55, "velocity": 100}, {"time": 7810, "pitch": 82, "duration": 55, "velocity": 100}, {"time": 7865, "pitch": 78, "duration": 55, "velocity": 100}, {"time": 7920, "pitch": 82, "duration": 110, "velocity": 100}, {"time": 8030, "pitch": 73, "duration": 55, "velocity": 100}, {"time": 8195, "pitch": 75, "duration": 55, "velocity": 100}, {"time": 8250, "pitch": 78, "duration": 55, "velocity": 100}, {"time": 8305, "pitch": 73, "duration": 110, "velocity": 100}, {"time": 8360, "pitch": 69, "duration": 440, "velocity": 100}, {"time": 8470, "pitch": 70, "duration": 55, "velocity": 100}, {"time": 8635, "pitch": 66, "duration": 55, "velocity": 100}, {"time": 8690, "pitch": 70, "duration": 110, "velocity": 100}, {"time": 8800, "pitch": 61, "duration": 55, "velocity": 100}, {"time": 8910, "pitch": 68, "duration": 110, "velocity": 100}, {"time": 9020, "pitch": 73, "duration": 55, "velocity": 100}, {"time": 9075, "pitch": 68, "duration": 55, "velocity": 100}, {"time": 9240, "pitch": 66, "duration": 440, "velocity": 100}, {"time": 9240, "pitch": 68, "duration": 55, "velocity": 100}, {"time": 9240, "pitch": 69, "duration": 440, "velocity": 100}, {"time": 9405, "pitch": 75, "duration": 55, "velocity": 100}, {"time": 9460, "pitch": 80, "duration": 55, "velocity": 100}, {"time": 9515, "pitch": 75, "duration": 110, "velocity": 100}, {"time": 9570, "pitch": 69, "duration": 495, "velocity": 100}, {"time": 9680, "pitch": 75, "duration": 55, "velocity": 100}, {"time": 9845, "pitch": 80, "duration": 55, "velocity": 100}, {"time": 9900, "pitch": 87, "duration": 110, "velocity": 100}, {"time": 10010, "pitch": 80, "duration": 55, "velocity": 100}, {"time": 10120, "pitch": 80, "duration": 110, "velocity": 100}, {"time": 10230, "pitch": 92, "duration": 55, "velocity": 100}, {"time": 10450, "pitch": 85, "duration": 55, "velocity": 100}, {"time": 10615, "pitch": 90, "duration": 55, "velocity": 100}, {"time": 10670, "pitch": 94, "duration": 110, "velocity": 100}, {"time": 10780, "pitch": 85, "duration": 55, "velocity": 100}, {"time": 10890, "pitch": 87, "duration": 110, "velocity": 100}, {"time": 11000, "pitch": 90, "duration": 55, "velocity": 100}, {"time": 11110, "pitch": 90, "duration": 110, "velocity": 100}, {"time": 11220, "pitch": 82, "duration": 55, "velocity": 100}, {"time": 11385, "pitch": 78, "duration": 55, "velocity": 100}, {"time": 11495, "pitch": 78, "duration": 110, "velocity": 100}, {"time": 11605, "pitch": 82, "duration": 55, "velocity": 100}, {"time": 11660, "pitch": 73, "duration": 55, "velocity": 100}, {"time": 11825, "pitch": 75, "duration": 55, "velocity": 100}, {"time": 11880, "pitch": 78, "duration": 110, "velocity": 100}, {"time": 11990, "pitch": 73, "duration": 55, "velocity": 100}, {"time": 12100, "pitch": 70, "duration": 110, "velocity": 100}, {"time": 12210, "pitch": 73, "duration": 55, "velocity": 100}, {"time": 12320, "pitch": 71, "duration": 110, "velocity": 100}, {"time": 12430, "pitch": 63, "duration": 55, "velocity": 100}, {"time": 12485, "pitch": 75, "duration": 55, "velocity": 100}, {"time": 12540, "pitch": 68, "duration": 55, "velocity": 100}, {"time": 12595, "pitch": 75, "duration": 55, "velocity": 100}, {"time": 12650, "pitch": 68, "duration": 55, "velocity": 100}, {"time": 12760, "pitch": 75, "duration": 55, "velocity": 100}, {"time": 12815, "pitch": 80, "duration": 55, "velocity": 100}, {"time": 12870, "pitch": 75, "duration": 110, "velocity": 100}, {"time": 12980, "pitch": 78, "duration": 110, "velocity": 100}, {"time": 13035, "pitch": 80, "duration": 55, "velocity": 100}, {"time": 13090, "pitch": 68, "duration": 275, "velocity": 100}, {"time": 13145, "pitch": 75, "duration": 55, "velocity": 100}, {"time": 13200, "pitch": 87, "duration": 55, "velocity": 100}, {"time": 13310, "pitch": 71, "duration": 55, "velocity": 100}, {"time": 13365, "pitch": 68, "duration": 55, "velocity": 100}, {"time": 13420, "pitch": 64, "duration": 220, "velocity": 100}, {"time": 13420, "pitch": 68, "duration": 110, "velocity": 100}, {"time": 13420, "pitch": 73, "duration": 110, "velocity": 100}, {"time": 13475, "pitch": 75, "duration": 55, "velocity": 100}, {"time": 13530, "pitch": 73, "duration": 55, "velocity": 100}, {"time": 13585, "pitch": 68, "duration": 55, "velocity": 100}, {"time": 13640, "pitch": 78, "duration": 55, "velocity": 100}, {"time": 13695, "pitch": 75, "duration": 55, "velocity": 100}, {"time": 13750, "pitch": 64, "duration": 55, "velocity": 100}, {"time": 13750, "pitch": 68, "duration": 55, "velocity": 100}, {"time": 13805, "pitch": 73, "duration": 55, "velocity": 100}, {"time": 13860, "pitch": 68, "duration": 55, "velocity": 100}, {"time": 13970, "pitch": 64, "duration": 55, "velocity": 100}, {"time": 13970, "pitch": 68, "duration": 55, "velocity": 100}, {"time": 14080, "pitch": 83, "duration": 55, "velocity": 100}, {"time": 14190, "pitch": 85, "duration": 55, "velocity": 100}, {"time": 14355, "pitch": 82, "duration": 55, "velocity": 100}, {"time": 14410, "pitch": 87, "duration": 55, "velocity": 100}, {"time": 14520, "pitch": 85, "duration": 110, "velocity": 100}, {"time": 14795, "pitch": 80, "duration": 55, "velocity": 100}, {"time": 14850, "pitch": 68, "duration": 110, "velocity": 100}, {"time": 14905, "pitch": 80, "duration": 110, "velocity": 100}, {"time": 15015, "pitch": 80, "duration": 55, "velocity": 100}, {"time": 15070, "pitch": 82, "duration": 55, "velocity": 100}, {"time": 15180, "pitch": 68, "duration": 220, "velocity": 100}, {"time": 15235, "pitch": 75, "duration": 55, "velocity": 100}, {"time": 15290, "pitch": 87, "duration": 110, "velocity": 100}, {"time": 15400, "pitch": 75, "duration": 55, "velocity": 100}, {"time": 15510, "pitch": 51, "duration": 275, "velocity": 100}, {"time": 15620, "pitch": 59, "duration": 220, "velocity": 100}, {"time": 15730, "pitch": 56, "duration": 110, "velocity": 100}, {"time": 15950, "pitch": 56, "duration": 110, "velocity": 100}, {"time": 16170, "pitch": 59, "duration": 165, "velocity": 100}, {"time": 16390, "pitch": 56, "duration": 165, "velocity": 100}, {"time": 16720, "pitch": 82, "duration": 110, "velocity": 100}, {"time": 16830, "pitch": 80, "duration": 55, "velocity": 100}, {"time": 16940, "pitch": 59, "duration": 220, "velocity": 100}, {"time": 17050, "pitch": 56, "duration": 110, "velocity": 100}, {"time": 17270, "pitch": 56, "duration": 330, "velocity": 100}, {"time": 17270, "pitch": 59, "duration": 330, "velocity": 100}, {"time": 17380, "pitch": 63, "duration": 220, "velocity": 100}, {"time": 17490, "pitch": 59, "duration": 110, "velocity": 100}, {"time": 17490, "pitch": 63, "duration": 110, "velocity": 100}, {"time": 17600, "pitch": 68, "duration": 110, "velocity": 100}, {"time": 17710, "pitch": 70, "duration": 110, "velocity": 100}, {"time": 17820, "pitch": 73, "duration": 110, "velocity": 100}, {"time": 17875, "pitch": 71, "duration": 55, "velocity": 100}, {"time": 17930, "pitch": 68, "duration": 110, "velocity": 100}, {"time": 18040, "pitch": 68, "duration": 440, "velocity": 100}, {"time": 18260, "pitch": 63, "duration": 385, "velocity": 100}, {"time": 18370, "pitch": 59, "duration": 330, "velocity": 100}, {"time": 18590, "pitch": 51, "duration": 330, "velocity": 100}, {"time": 18700, "pitch": 56, "duration": 220, "velocity": 100}, {"time": 18810, "pitch": 59, "duration": 550, "velocity": 100}, {"time": 19030, "pitch": 51, "duration": 330, "velocity": 100}, {"time": 19140, "pitch": 56, "duration": 220, "velocity": 100}, {"time": 19250, "pitch": 63, "duration": 110, "velocity": 100}, {"time": 19470, "pitch": 51, "duration": 165, "velocity": 100}, {"time": 19580, "pitch": 56, "duration": 110, "velocity": 100}, {"time": 19690, "pitch": 59, "duration": 495, "velocity": 100}, {"time": 19910, "pitch": 51, "duration": 110, "velocity": 100}, {"time": 20130, "pitch": 63, "duration": 110, "velocity": 100}, {"time": 20240, "pitch": 68, "duration": 110, "velocity": 100}, {"time": 20460, "pitch": 51, "duration": 110, "velocity": 100}, {"time": 20460, "pitch": 59, "duration": 220, "velocity": 100}, {"time": 20570, "pitch": 56, "duration": 110, "velocity": 100}, {"time": 20790, "pitch": 51, "duration": 330, "velocity": 100}, {"time": 20900, "pitch": 56, "duration": 220, "velocity": 100}, {"time": 21010, "pitch": 59, "duration": 110, "velocity": 100}, {"time": 21120, "pitch": 63, "duration": 110, "velocity": 100}, {"time": 21230, "pitch": 56, "duration": 110, "velocity": 100}, {"time": 21340, "pitch": 47, "duration": 110, "velocity": 100}, {"time": 21340, "pitch": 56, "duration": 110, "velocity": 100}, {"time": 21450, "pitch": 56, "duration": 110, "velocity": 100}, {"time": 21780, "pitch": 54, "duration": 220, "velocity": 100}, {"time": 21890, "pitch": 54, "duration": 165, "velocity": 100}, {"time": 22110, "pitch": 49, "duration": 110, "velocity": 100}, {"time": 22220, "pitch": 57, "duration": 220, "velocity": 100}, {"time": 22220, "pitch": 61, "duration": 220, "velocity": 100}, {"time": 22660, "pitch": 42, "duration": 110, "velocity": 100}, {"time": 22660, "pitch": 49, "duration": 220, "velocity": 100}, {"time": 22990, "pitch": 45, "duration": 165, "velocity": 100}, {"time": 23100, "pitch": 49, "duration": 55, "velocity": 100}, {"time": 23100, "pitch": 54, "duration": 220, "velocity": 100}, {"time": 23100, "pitch": 57, "duration": 220, "velocity": 100}, {"time": 23210, "pitch": 54, "duration": 110, "velocity": 100}, {"time": 23540, "pitch": 57, "duration": 220, "velocity": 100}, {"time": 23540, "pitch": 61, "duration": 220, "velocity": 100}, {"time": 23650, "pitch": 54, "duration": 110, "velocity": 100}, {"time": 23870, "pitch": 37, "duration": 165, "velocity": 100}, {"time": 23980, "pitch": 42, "duration": 110, "velocity": 100}, {"time": 24310, "pitch": 45, "duration": 330, "velocity": 100}, {"time": 24310, "pitch": 54, "duration": 110, "velocity": 100}, {"time": 24420, "pitch": 49, "duration": 220, "velocity": 100}, {"time": 24530, "pitch": 57, "duration": 110, "velocity": 100}, {"time": 24640, "pitch": 61, "duration": 55, "velocity": 100}, {"time": 24805, "pitch": 52, "duration": 110, "velocity": 100}, {"time": 24970, "pitch": 56, "duration": 110, "velocity": 100}, {"time": 25025, "pitch": 56, "duration": 55, "velocity": 100}, {"time": 25080, "pitch": 61, "duration": 440, "velocity": 100}, {"time": 25300, "pitch": 56, "duration": 385, "velocity": 100}, {"time": 25630, "pitch": 44, "duration": 330, "velocity": 100}, {"time": 25740, "pitch": 49, "duration": 110, "velocity": 100}, {"time": 26070, "pitch": 44, "duration": 330, "velocity": 100}, {"time": 26180, "pitch": 61, "duration": 220, "velocity": 100}, {"time": 26290, "pitch": 56, "duration": 110, "velocity": 100}, {"time": 26620, "pitch": 49, "duration": 110, "velocity": 100}, {"time": 26840, "pitch": 92, "duration": 110, "velocity": 100}, {"time": 26950, "pitch": 49, "duration": 110, "velocity": 100}, {"time": 27005, "pitch": 52, "duration": 55, "velocity": 100}, {"time": 27170, "pitch": 56, "duration": 110, "velocity": 100}, {"time": 27500, "pitch": 49, "duration": 220, "velocity": 100}, {"time": 27500, "pitch": 52, "duration": 220, "velocity": 100}, {"time": 27610, "pitch": 49, "duration": 110, "velocity": 100}, {"time": 27775, "pitch": 44, "duration": 165, "velocity": 100}, {"time": 27830, "pitch": 49, "duration": 110, "velocity": 100}, {"time": 27995, "pitch": 49, "duration": 165, "velocity": 100}, {"time": 28105, "pitch": 49, "duration": 55, "velocity": 100}, {"time": 28160, "pitch": 49, "duration": 330, "velocity": 100}, {"time": 28215, "pitch": 51, "duration": 55, "velocity": 100}, {"time": 28435, "pitch": 56, "duration": 55, "velocity": 100}, {"time": 28545, "pitch": 54, "duration": 55, "velocity": 100}, {"time": 28655, "pitch": 49, "duration": 275, "velocity": 100}, {"time": 28710, "pitch": 54, "duration": 220, "velocity": 100}, {"time": 29150, "pitch": 49, "duration": 110, "velocity": 100}, {"time": 29205, "pitch": 54, "duration": 110, "velocity": 100}, {"time": 29370, "pitch": 57, "duration": 110, "velocity": 100}, {"time": 29590, "pitch": 49, "duration": 220, "velocity": 100}, {"time": 29975, "pitch": 49, "duration": 55, "velocity": 100}, {"time": 30030, "pitch": 57, "duration": 330, "velocity": 100}, {"time": 30140, "pitch": 61, "duration": 220, "velocity": 100}, {"time": 30470, "pitch": 54, "duration": 110, "velocity": 100}, {"time": 30525, "pitch": 57, "duration": 110, "velocity": 100}, {"time": 30635, "pitch": 54, "duration": 55, "velocity": 100}, {"time": 30910, "pitch": 49, "duration": 110, "velocity": 100}, {"time": 30965, "pitch": 54, "duration": 55, "velocity": 100}, {"time": 31185, "pitch": 54, "duration": 55, "velocity": 100}, {"time": 31295, "pitch": 49, "duration": 385, "velocity": 100}, {"time": 31350, "pitch": 54, "duration": 165, "velocity": 100}, {"time": 31515, "pitch": 54, "duration": 55, "velocity": 100}, {"time": 31625, "pitch": 54, "duration": 55, "velocity": 100}, {"time": 31735, "pitch": 54, "duration": 220, "velocity": 100}, {"time": 31955, "pitch": 54, "duration": 55, "velocity": 100}, {"time": 32010, "pitch": 57, "duration": 110, "velocity": 100}, {"time": 32175, "pitch": 47, "duration": 275, "velocity": 100}, {"time": 32230, "pitch": 51, "duration": 165, "velocity": 100}, {"time": 32285, "pitch": 54, "duration": 110, "velocity": 100}, {"time": 32395, "pitch": 54, "duration": 55, "velocity": 100}, {"time": 32450, "pitch": 54, "duration": 110, "velocity": 100}, {"time": 32615, "pitch": 54, "duration": 55, "velocity": 100}, {"time": 32670, "pitch": 54, "duration": 110, "velocity": 100}, {"time": 32835, "pitch": 54, "duration": 55, "velocity": 100}, {"time": 32890, "pitch": 54, "duration": 110, "velocity": 100}, {"time": 33055, "pitch": 54, "duration": 55, "velocity": 100}, {"time": 33165, "pitch": 63, "duration": 55, "velocity": 100}, {"time": 33220, "pitch": 54, "duration": 165, "velocity": 100}, {"time": 33385, "pitch": 59, "duration": 55, "velocity": 100}, {"time": 33440, "pitch": 63, "duration": 220, "velocity": 100}, {"time": 33550, "pitch": 54, "duration": 165, "velocity": 100}, {"time": 33605, "pitch": 59, "duration": 55, "velocity": 100}, {"time": 33770, "pitch": 59, "duration": 110, "velocity": 100}, {"time": 33990, "pitch": 51, "duration": 110, "velocity": 100}, {"time": 34045, "pitch": 54, "duration": 110, "velocity": 100}, {"time": 34210, "pitch": 54, "duration": 110, "velocity": 100}, {"time": 34320, "pitch": 68, "duration": 110, "velocity": 100}, {"time": 34430, "pitch": 47, "duration": 110, "velocity": 100}, {"time": 34485, "pitch": 54, "duration": 55, "velocity": 100}, {"time": 34595, "pitch": 51, "duration": 55, "velocity": 100}, {"time": 34650, "pitch": 54, "duration": 110, "velocity": 100}, {"time": 34815, "pitch": 47, "duration": 275, "velocity": 100}, {"time": 34870, "pitch": 51, "duration": 165, "velocity": 100}, {"time": 34925, "pitch": 54, "duration": 55, "velocity": 100}, {"time": 35145, "pitch": 54, "duration": 55, "velocity": 100}, {"time": 35200, "pitch": 51, "duration": 330, "velocity": 100}, {"time": 35475, "pitch": 61, "duration": 55, "velocity": 100}, {"time": 35695, "pitch": 56, "duration": 275, "velocity": 100}, {"time": 35805, "pitch": 61, "duration": 275, "velocity": 100}, {"time": 36080, "pitch": 61, "duration": 55, "velocity": 100}, {"time": 36190, "pitch": 56, "duration": 110, "velocity": 100}, {"time": 36355, "pitch": 56, "duration": 55, "velocity": 100}, {"time": 36630, "pitch": 56, "duration": 165, "velocity": 100}, {"time": 37015, "pitch": 56, "duration": 220, "velocity": 100}, {"time": 37455, "pitch": 56, "duration": 275, "velocity": 100}, {"time": 37510, "pitch": 61, "duration": 165, "velocity": 100}, {"time": 37675, "pitch": 61, "duration": 55, "velocity": 100}, {"time": 37895, "pitch": 52, "duration": 275, "velocity": 100}, {"time": 37950, "pitch": 56, "duration": 110, "velocity": 100}, {"time": 38225, "pitch": 61, "duration": 55, "velocity": 100}, {"time": 38555, "pitch": 61, "duration": 55, "velocity": 100}, {"time": 38665, "pitch": 61, "duration": 55, "velocity": 100}, {"time": 38775, "pitch": 59, "duration": 165, "velocity": 100}, {"time": 38995, "pitch": 59, "duration": 55, "velocity": 100}, {"time": 39050, "pitch": 63, "duration": 110, "velocity": 100}, {"time": 39270, "pitch": 59, "duration": 165, "velocity": 100}, {"time": 39435, "pitch": 59, "duration": 55, "velocity": 100}, {"time": 39490, "pitch": 63, "duration": 110, "velocity": 100}, {"time": 39655, "pitch": 59, "duration": 55, "velocity": 100}, {"time": 39710, "pitch": 63, "duration": 110, "velocity": 100}, {"time": 39875, "pitch": 59, "duration": 55, "velocity": 100}, {"time": 39985, "pitch": 59, "duration": 55, "velocity": 100}, {"time": 40095, "pitch": 59, "duration": 55, "velocity": 100}, {"time": 40260, "pitch": 59, "duration": 55, "velocity": 100}, {"time": 40425, "pitch": 63, "duration": 55, "velocity": 100}, {"time": 40535, "pitch": 59, "duration": 165, "velocity": 100}, {"time": 40590, "pitch": 63, "duration": 165, "velocity": 100}, {"time": 40755, "pitch": 59, "duration": 165, "velocity": 100}, {"time": 40810, "pitch": 63, "duration": 110, "velocity": 100}, {"time": 41030, "pitch": 59, "duration": 110, "velocity": 100}, {"time": 41250, "pitch": 63, "duration": 110, "velocity": 100}, {"time": 41470, "pitch": 54, "duration": 110, "velocity": 100}, {"time": 41525, "pitch": 59, "duration": 110, "velocity": 100}, {"time": 41635, "pitch": 54, "duration": 55, "velocity": 100}, {"time": 41910, "pitch": 54, "duration": 110, "velocity": 100}, {"time": 42020, "pitch": 63, "duration": 110, "velocity": 100}, {"time": 42020, "pitch": 66, "duration": 110, "velocity": 100}, {"time": 42130, "pitch": 59, "duration": 55, "velocity": 100}, {"time": 42295, "pitch": 57, "duration": 165, "velocity": 100}, {"time": 42625, "pitch": 61, "duration": 55, "velocity": 100}, {"time": 42735, "pitch": 61, "duration": 165, "velocity": 100}, {"time": 42955, "pitch": 61, "duration": 55, "velocity": 100}, {"time": 43065, "pitch": 66, "duration": 55, "velocity": 100}, {"time": 43175, "pitch": 54, "duration": 165, "velocity": 100}, {"time": 43230, "pitch": 57, "duration": 110, "velocity": 100}, {"time": 43285, "pitch": 54, "duration": 55, "velocity": 100}, {"time": 43395, "pitch": 54, "duration": 165, "velocity": 100}, {"time": 43450, "pitch": 57, "duration": 110, "velocity": 100}, {"time": 43615, "pitch": 54, "duration": 165, "velocity": 100}, {"time": 43835, "pitch": 66, "duration": 55, "velocity": 100}, {"time": 43835, "pitch": 66, "duration": 110, "velocity": 100}, {"time": 44000, "pitch": 61, "duration": 110, "velocity": 100}, {"time": 44055, "pitch": 57, "duration": 165, "velocity": 100}, {"time": 44110, "pitch": 61, "duration": 110, "velocity": 100}, {"time": 44275, "pitch": 57, "duration": 165, "velocity": 100}, {"time": 44385, "pitch": 61, "duration": 55, "velocity": 100}, {"time": 44495, "pitch": 61, "duration": 165, "velocity": 100}, {"time": 44715, "pitch": 61, "duration": 55, "velocity": 100}, {"time": 44825, "pitch": 61, "duration": 55, "velocity": 100}, {"time": 44935, "pitch": 61, "duration": 55, "velocity": 100}, {"time": 45045, "pitch": 61, "duration": 55, "velocity": 100}, {"time": 45155, "pitch": 61, "duration": 55, "velocity": 100}, {"time": 45265, "pitch": 61, "duration": 55, "velocity": 100}, {"time": 45375, "pitch": 61, "duration": 55, "velocity": 100}, {"time": 45430, "pitch": 66, "duration": 55, "velocity": 100}, {"time": 45485, "pitch": 61, "duration": 55, "velocity": 100}, {"time": 45595, "pitch": 61, "duration": 55, "velocity": 100}, {"time": 45705, "pitch": 61, "duration": 55, "velocity": 100}, {"time": 45925, "pitch": 57, "duration": 165, "velocity": 100}, {"time": 45925, "pitch": 61, "duration": 55, "velocity": 100}, {"time": 46090, "pitch": 61, "duration": 110, "velocity": 100}, {"time": 46145, "pitch": 56, "duration": 55, "velocity": 100}, {"time": 46310, "pitch": 56, "duration": 55, "velocity": 100}, {"time": 46365, "pitch": 56, "duration": 55, "velocity": 100}, {"time": 46365, "pitch": 61, "duration": 275, "velocity": 100}, {"time": 46420, "pitch": 59, "duration": 220, "velocity": 100}, {"time": 46420, "pitch": 61, "duration": 220, "velocity": 100}, {"time": 46530, "pitch": 56, "duration": 110, "velocity": 100}, {"time": 46750, "pitch": 49, "duration": 110, "velocity": 100}, {"time": 46805, "pitch": 52, "duration": 55, "velocity": 100}, {"time": 46970, "pitch": 59, "duration": 165, "velocity": 100}, {"time": 47245, "pitch": 56, "duration": 275, "velocity": 100}, {"time": 47465, "pitch": 56, "duration": 55, "velocity": 100}, {"time": 47575, "pitch": 44, "duration": 275, "velocity": 100}, {"time": 47630, "pitch": 49, "duration": 165, "velocity": 100}, {"time": 47905, "pitch": 56, "duration": 55, "velocity": 100}, {"time": 48070, "pitch": 52, "duration": 110, "velocity": 100}, {"time": 48125, "pitch": 56, "duration": 55, "velocity": 100}, {"time": 48290, "pitch": 56, "duration": 110, "velocity": 100}, {"time": 48565, "pitch": 56, "duration": 110, "velocity": 100}, {"time": 48785, "pitch": 56, "duration": 55, "velocity": 100}, {"time": 49390, "pitch": 49, "duration": 110, "velocity": 100}, {"time": 49610, "pitch": 61, "duration": 220, "velocity": 100}, {"time": 49665, "pitch": 59, "duration": 220, "velocity": 100}, {"time": 49830, "pitch": 47, "duration": 110, "velocity": 100}, {"time": 49885, "pitch": 54, "duration": 275, "velocity": 100}, {"time": 49940, "pitch": 63, "duration": 220, "velocity": 100}, {"time": 50105, "pitch": 59, "duration": 55, "velocity": 100}, {"time": 50270, "pitch": 47, "duration": 165, "velocity": 100}, {"time": 50325, "pitch": 54, "duration": 165, "velocity": 100}, {"time": 50545, "pitch": 59, "duration": 165, "velocity": 100}, {"time": 50600, "pitch": 68, "duration": 55, "velocity": 100}, {"time": 50765, "pitch": 54, "duration": 275, "velocity": 100}, {"time": 50985, "pitch": 59, "duration": 55, "velocity": 100}, {"time": 51315, "pitch": 63, "duration": 55, "velocity": 100}, {"time": 51370, "pitch": 66, "duration": 110, "velocity": 100}, {"time": 51590, "pitch": 59, "duration": 220, "velocity": 100}, {"time": 51645, "pitch": 63, "duration": 55, "velocity": 100}, {"time": 51975, "pitch": 54, "duration": 275, "velocity": 100}, {"time": 52030, "pitch": 59, "duration": 110, "velocity": 100}, {"time": 52085, "pitch": 59, "duration": 110, "velocity": 100}, {"time": 52195, "pitch": 59, "duration": 55, "velocity": 100}, {"time": 52470, "pitch": 59, "duration": 165, "velocity": 100}, {"time": 52855, "pitch": 59, "duration": 165, "velocity": 100}, {"time": 52910, "pitch": 63, "duration": 330, "velocity": 100}, {"time": 53240, "pitch": 82, "duration": 110, "velocity": 100}, {"time": 53350, "pitch": 63, "duration": 110, "velocity": 100}, {"time": 53515, "pitch": 59, "duration": 55, "velocity": 100}, {"time": 53790, "pitch": 54, "duration": 110, "velocity": 100}, {"time": 53845, "pitch": 59, "duration": 55, "velocity": 100}, {"time": 53955, "pitch": 54, "duration": 55, "velocity": 100}, {"time": 54065, "pitch": 59, "duration": 55, "velocity": 100}, {"time": 54175, "pitch": 54, "duration": 385, "velocity": 100}, {"time": 54230, "pitch": 59, "duration": 165, "velocity": 100}, {"time": 54395, "pitch": 59, "duration": 55, "velocity": 100}, {"time": 54450, "pitch": 66, "duration": 110, "velocity": 100}, {"time": 54505, "pitch": 63, "duration": 55, "velocity": 100}, {"time": 54615, "pitch": 59, "duration": 165, "velocity": 100}, {"time": 54670, "pitch": 63, "duration": 110, "velocity": 100}, {"time": 54835, "pitch": 59, "duration": 55, "velocity": 100}, {"time": 54890, "pitch": 63, "duration": 110, "velocity": 100}, {"time": 55110, "pitch": 59, "duration": 165, "velocity": 100}, {"time": 55165, "pitch": 63, "duration": 110, "velocity": 100}, {"time": 55275, "pitch": 59, "duration": 55, "velocity": 100}, {"time": 55330, "pitch": 63, "duration": 110, "velocity": 100}, {"time": 55495, "pitch": 59, "duration": 55, "velocity": 100}, {"time": 55550, "pitch": 63, "duration": 110, "velocity": 100}, {"time": 55715, "pitch": 59, "duration": 55, "velocity": 100}, {"time": 55825, "pitch": 59, "duration": 55, "velocity": 100}, {"time": 56100, "pitch": 59, "duration": 165, "velocity": 100}, {"time": 56265, "pitch": 63, "duration": 55, "velocity": 100}, {"time": 56375, "pitch": 54, "duration": 165, "velocity": 100}, {"time": 56430, "pitch": 63, "duration": 110, "velocity": 100}, {"time": 56595, "pitch": 59, "duration": 55, "velocity": 100}, {"time": 56650, "pitch": 63, "duration": 165, "velocity": 100}, {"time": 56870, "pitch": 59, "duration": 110, "velocity": 100}, {"time": 56925, "pitch": 63, "duration": 110, "velocity": 100}, {"time": 57035, "pitch": 59, "duration": 55, "velocity": 100}, {"time": 57090, "pitch": 63, "duration": 110, "velocity": 100}, {"time": 57145, "pitch": 59, "duration": 55, "velocity": 100}, {"time": 57255, "pitch": 54, "duration": 165, "velocity": 100}, {"time": 57365, "pitch": 54, "duration": 55, "velocity": 100}, {"time": 57640, "pitch": 47, "duration": 385, "velocity": 100}, {"time": 57695, "pitch": 54, "duration": 385, "velocity": 100}, {"time": 57915, "pitch": 59, "duration": 165, "velocity": 100}, {"time": 58355, "pitch": 59, "duration": 55, "velocity": 100}, {"time": 58410, "pitch": 63, "duration": 110, "velocity": 100}, {"time": 58575, "pitch": 51, "duration": 275, "velocity": 100}, {"time": 58630, "pitch": 54, "duration": 275, "velocity": 100}, {"time": 58685, "pitch": 59, "duration": 55, "velocity": 100}, {"time": 58960, "pitch": 85, "duration": 110, "velocity": 100}, {"time": 59070, "pitch": 51, "duration": 110, "velocity": 100}, {"time": 59125, "pitch": 54, "duration": 165, "velocity": 100}, {"time": 59235, "pitch": 54, "duration": 55, "velocity": 100}, {"time": 59290, "pitch": 59, "duration": 110, "velocity": 100}, {"time": 59510, "pitch": 54, "duration": 165, "velocity": 100}, {"time": 59620, "pitch": 66, "duration": 165, "velocity": 100}, {"time": 59895, "pitch": 54, "duration": 110, "velocity": 100}, {"time": 59950, "pitch": 59, "duration": 330, "velocity": 100}, {"time": 60060, "pitch": 61, "duration": 220, "velocity": 100}, {"time": 60280, "pitch": 78, "duration": 55, "velocity": 100}, {"time": 60390, "pitch": 57, "duration": 165, "velocity": 100}, {"time": 60445, "pitch": 61, "duration": 110, "velocity": 100}, {"time": 60555, "pitch": 57, "duration": 55, "velocity": 100}, {"time": 60830, "pitch": 54, "duration": 110, "velocity": 100}, {"time": 60885, "pitch": 57, "duration": 55, "velocity": 100}, {"time": 61050, "pitch": 57, "duration": 110, "velocity": 100}, {"time": 61105, "pitch": 57, "duration": 55, "velocity": 100}, {"time": 61215, "pitch": 49, "duration": 385, "velocity": 100}, {"time": 61270, "pitch": 54, "duration": 165, "velocity": 100}, {"time": 61545, "pitch": 57, "duration": 55, "velocity": 100}, {"time": 61655, "pitch": 54, "duration": 165, "velocity": 100}, {"time": 61710, "pitch": 57, "duration": 110, "velocity": 100}, {"time": 61875, "pitch": 54, "duration": 55, "velocity": 100}, {"time": 61930, "pitch": 57, "duration": 110, "velocity": 100}, {"time": 62095, "pitch": 49, "duration": 275, "velocity": 100}, {"time": 62150, "pitch": 54, "duration": 165, "velocity": 100}, {"time": 62205, "pitch": 57, "duration": 110, "velocity": 100}, {"time": 62370, "pitch": 57, "duration": 110, "velocity": 100}, {"time": 62590, "pitch": 57, "duration": 110, "velocity": 100}, {"time": 62755, "pitch": 54, "duration": 55, "velocity": 100}, {"time": 62810, "pitch": 57, "duration": 110, "velocity": 100}, {"time": 62865, "pitch": 57, "duration": 55, "velocity": 100}, {"time": 62975, "pitch": 57, "duration": 55, "velocity": 100}, {"time": 63140, "pitch": 54, "duration": 55, "velocity": 100}, {"time": 63305, "pitch": 61, "duration": 55, "velocity": 100}, {"time": 63415, "pitch": 54, "duration": 220, "velocity": 100}, {"time": 63470, "pitch": 57, "duration": 165, "velocity": 100}, {"time": 63635, "pitch": 54, "duration": 165, "velocity": 100}, {"time": 63910, "pitch": 54, "duration": 110, "velocity": 100}, {"time": 63965, "pitch": 57, "duration": 110, "velocity": 100}, {"time": 64130, "pitch": 57, "duration": 110, "velocity": 100}, {"time": 64350, "pitch": 54, "duration": 110, "velocity": 100}, {"time": 64405, "pitch": 57, "duration": 55, "velocity": 100}, {"time": 64515, "pitch": 54, "duration": 55, "velocity": 100}, {"time": 64570, "pitch": 57, "duration": 110, "velocity": 100}, {"time": 64900, "pitch": 57, "duration": 110, "velocity": 100}, {"time": 64900, "pitch": 61, "duration": 220, "velocity": 100}, {"time": 65010, "pitch": 54, "duration": 55, "velocity": 100}, {"time": 65065, "pitch": 57, "duration": 55, "velocity": 100}, {"time": 65175, "pitch": 49, "duration": 165, "velocity": 100}, {"time": 65230, "pitch": 54, "duration": 110, "velocity": 100}, {"time": 65285, "pitch": 49, "duration": 55, "velocity": 100}, {"time": 65450, "pitch": 54, "duration": 110, "velocity": 100}, {"time": 65505, "pitch": 56, "duration": 55, "velocity": 100}, {"time": 65615, "pitch": 49, "duration": 220, "velocity": 100}, {"time": 65670, "pitch": 52, "duration": 55, "velocity": 100}, {"time": 65725, "pitch": 56, "duration": 55, "velocity": 100}, {"time": 65890, "pitch": 52, "duration": 110, "velocity": 100}, {"time": 65945, "pitch": 54, "duration": 55, "velocity": 100}, {"time": 66055, "pitch": 45, "duration": 385, "velocity": 100}, {"time": 66110, "pitch": 52, "duration": 110, "velocity": 100}, {"time": 66330, "pitch": 54, "duration": 220, "velocity": 100}, {"time": 66495, "pitch": 49, "duration": 275, "velocity": 100}, {"time": 66550, "pitch": 52, "duration": 110, "velocity": 100}, {"time": 66715, "pitch": 49, "duration": 55, "velocity": 100}, {"time": 66770, "pitch": 52, "duration": 110, "velocity": 100}, {"time": 66935, "pitch": 44, "duration": 385, "velocity": 100}, {"time": 66935, "pitch": 49, "duration": 55, "velocity": 100}, {"time": 66990, "pitch": 49, "duration": 110, "velocity": 100}, {"time": 67155, "pitch": 49, "duration": 165, "velocity": 100}, {"time": 67210, "pitch": 54, "duration": 55, "velocity": 100}, {"time": 67320, "pitch": 37, "duration": 330, "velocity": 100}, {"time": 67375, "pitch": 44, "duration": 275, "velocity": 100}, {"time": 67430, "pitch": 49, "duration": 165, "velocity": 100}, {"time": 67595, "pitch": 49, "duration": 55, "velocity": 100}, {"time": 67705, "pitch": 49, "duration": 55, "velocity": 100}]}, {"program": 71, "is_drum": false, "name": "Bass", "notes": [{"time": 0, "pitch": 45, "duration": 825, "velocity": 100}, {"time": 110, "pitch": 52, "duration": 770, "velocity": 100}, {"time": 220, "pitch": 57, "duration": 275, "velocity": 100}, {"time": 330, "pitch": 61, "duration": 330, "velocity": 100}, {"time": 440, "pitch": 64, "duration": 220, "velocity": 100}, {"time": 550, "pitch": 54, "duration": 110, "velocity": 100}, {"time": 770, "pitch": 64, "duration": 275, "velocity": 100}, {"time": 880, "pitch": 42, "duration": 660, "velocity": 100}, {"time": 990, "pitch": 54, "duration": 385, "velocity": 100}, {"time": 1100, "pitch": 57, "duration": 110, "velocity": 100}, {"time": 1210, "pitch": 61, "duration": 165, "velocity": 100}, {"time": 1430, "pitch": 54, "duration": 55, "velocity": 100}, {"time": 1650, "pitch": 61, "duration": 110, "velocity": 100}, {"time": 1760, "pitch": 42, "duration": 825, "velocity": 100}, {"time": 1870, "pitch": 49, "duration": 770, "velocity": 100}, {"time": 1980, "pitch": 54, "duration": 275, "velocity": 100}, {"time": 2090, "pitch": 61, "duration": 330, "velocity": 100}, {"time": 2310, "pitch": 54, "duration": 220, "velocity": 100}, {"time": 2530, "pitch": 61, "duration": 275, "velocity": 100}, {"time": 2640, "pitch": 42, "duration": 660, "velocity": 100}, {"time": 2750, "pitch": 49, "duration": 550, "velocity": 100}, {"time": 2860, "pitch": 54, "duration": 275, "velocity": 100}, {"time": 2970, "pitch": 61, "duration": 220, "velocity": 100}, {"time": 3190, "pitch": 54, "duration": 165, "velocity": 100}, {"time": 3300, "pitch": 66, "duration": 220, "velocity": 100}, {"time": 3410, "pitch": 61, "duration": 110, "velocity": 100}, {"time": 3520, "pitch": 49, "duration": 825, "velocity": 100}, {"time": 3630, "pitch": 56, "duration": 770, "velocity": 100}, {"time": 3740, "pitch": 61, "duration": 165, "velocity": 100}, {"time": 3850, "pitch": 64, "duration": 110, "velocity": 100}, {"time": 3960, "pitch": 68, "duration": 440, "velocity": 100}, {"time": 4070, "pitch": 61, "duration": 330, "velocity": 100}, {"time": 4180, "pitch": 64, "duration": 220, "velocity": 100}, {"time": 4290, "pitch": 68, "duration": 110, "velocity": 100}, {"time": 4400, "pitch": 49, "duration": 660, "velocity": 100}, {"time": 4510, "pitch": 56, "duration": 385, "velocity": 100}, {"time": 4620, "pitch": 61, "duration": 165, "velocity": 100}, {"time": 4730, "pitch": 64, "duration": 165, "velocity": 100}, {"time": 4840, "pitch": 68, "duration": 385, "velocity": 100}, {"time": 4950, "pitch": 56, "duration": 110, "velocity": 100}, {"time": 5060, "pitch": 64, "duration": 220, "velocity": 100}, {"time": 5115, "pitch": 66, "duration": 110, "velocity": 100}, {"time": 5170, "pitch": 66, "duration": 110, "velocity": 100}, {"time": 5280, "pitch": 40, "duration": 770, "velocity": 100}, {"time": 5390, "pitch": 49, "duration": 770, "velocity": 100}, {"time": 5500, "pitch": 56, "duration": 275, "velocity": 100}, {"time": 5610, "pitch": 56, "duration": 165, "velocity": 100}, {"time": 5720, "pitch": 61, "duration": 220, "velocity": 100}, {"time": 5720, "pitch": 64, "duration": 440, "velocity": 100}, {"time": 5830, "pitch": 56, "duration": 330, "velocity": 100}, {"time": 5940, "pitch": 59, "duration": 275, "velocity": 100}, {"time": 6050, "pitch": 61, "duration": 110, "velocity": 100}, {"time": 6160, "pitch": 44, "duration": 660, "velocity": 100}, {"time": 6270, "pitch": 56, "duration": 385, "velocity": 100}, {"time": 6380, "pitch": 61, "duration": 165, "velocity": 100}, {"time": 6490, "pitch": 64, "duration": 110, "velocity": 100}, {"time": 6600, "pitch": 61, "duration": 55, "velocity": 100}, {"time": 6710, "pitch": 56, "duration": 165, "velocity": 100}, {"time": 6820, "pitch": 61, "duration": 220, "velocity": 100}, {"time": 6930, "pitch": 64, "duration": 110, "velocity": 100}, {"time": 7040, "pitch": 44, "duration": 825, "velocity": 100}, {"time": 7150, "pitch": 52, "duration": 770, "velocity": 100}, {"time": 7260, "pitch": 57, "duration": 275, "velocity": 100}, {"time": 7370, "pitch": 61, "duration": 220, "velocity": 100}, {"time": 7370, "pitch": 64, "duration": 110, "velocity": 100}, {"time": 7590, "pitch": 57, "duration": 550, "velocity": 100}, {"time": 7700, "pitch": 64, "duration": 550, "velocity": 100}, {"time": 7810, "pitch": 61, "duration": 330, "velocity": 100}, {"time": 7920, "pitch": 42, "duration": 880, "velocity": 100}, {"time": 8030, "pitch": 54, "duration": 550, "velocity": 100}, {"time": 8140, "pitch": 57, "duration": 275, "velocity": 100}, {"time": 8250, "pitch": 61, "duration": 165, "velocity": 100}, {"time": 8360, "pitch": 66, "duration": 385, "velocity": 100}, {"time": 8470, "pitch": 57, "duration": 110, "velocity": 100}, {"time": 8580, "pitch": 61, "duration": 220, "velocity": 100}, {"time": 8690, "pitch": 66, "duration": 110, "velocity": 100}, {"time": 8800, "pitch": 42, "duration": 825, "velocity": 100}, {"time": 8910, "pitch": 49, "duration": 770, "velocity": 100}, {"time": 9020, "pitch": 54, "duration": 275, "velocity": 100}, {"time": 9130, "pitch": 61, "duration": 165, "velocity": 100}, {"time": 9350, "pitch": 54, "duration": 165, "velocity": 100}, {"time": 9460, "pitch": 61, "duration": 495, "velocity": 100}, {"time": 9680, "pitch": 42, "duration": 660, "velocity": 100}, {"time": 9790, "pitch": 49, "duration": 550, "velocity": 100}, {"time": 9900, "pitch": 54, "duration": 275, "velocity": 100}, {"time": 10010, "pitch": 61, "duration": 330, "velocity": 100}, {"time": 10120, "pitch": 69, "duration": 440, "velocity": 100}, {"time": 10230, "pitch": 54, "duration": 110, "velocity": 100}, {"time": 10340, "pitch": 66, "duration": 220, "velocity": 100}, {"time": 10450, "pitch": 61, "duration": 110, "velocity": 100}, {"time": 10560, "pitch": 49, "duration": 660, "velocity": 100}, {"time": 10670, "pitch": 56, "duration": 385, "velocity": 100}, {"time": 10780, "pitch": 61, "duration": 330, "velocity": 100}, {"time": 10890, "pitch": 64, "duration": 110, "velocity": 100}, {"time": 11000, "pitch": 68, "duration": 440, "velocity": 100}, {"time": 11110, "pitch": 56, "duration": 110, "velocity": 100}, {"time": 11220, "pitch": 64, "duration": 275, "velocity": 100}, {"time": 11330, "pitch": 61, "duration": 110, "velocity": 100}, {"time": 11385, "pitch": 49, "duration": 880, "velocity": 100}, {"time": 11550, "pitch": 56, "duration": 385, "velocity": 100}, {"time": 11660, "pitch": 61, "duration": 275, "velocity": 100}, {"time": 11770, "pitch": 64, "duration": 110, "velocity": 100}, {"time": 11880, "pitch": 68, "duration": 440, "velocity": 100}, {"time": 11990, "pitch": 56, "duration": 55, "velocity": 100}, {"time": 12100, "pitch": 64, "duration": 220, "velocity": 100}, {"time": 12210, "pitch": 61, "duration": 110, "velocity": 100}, {"time": 12265, "pitch": 66, "duration": 55, "velocity": 100}, {"time": 12320, "pitch": 44, "duration": 825, "velocity": 100}, {"time": 12430, "pitch": 49, "duration": 770, "velocity": 100}, {"time": 12540, "pitch": 56, "duration": 275, "velocity": 100}, {"time": 12650, "pitch": 61, "duration": 165, "velocity": 100}, {"time": 12760, "pitch": 64, "duration": 275, "velocity": 100}, {"time": 12870, "pitch": 56, "duration": 550, "velocity": 100}, {"time": 12980, "pitch": 61, "duration": 440, "velocity": 100}, {"time": 13090, "pitch": 64, "duration": 110, "velocity": 100}, {"time": 13200, "pitch": 37, "duration": 715, "velocity": 100}, {"time": 13310, "pitch": 49, "duration": 605, "velocity": 100}, {"time": 13420, "pitch": 61, "duration": 220, "velocity": 100}, {"time": 13530, "pitch": 56, "duration": 55, "velocity": 100}, {"time": 13585, "pitch": 61, "duration": 55, "velocity": 100}, {"time": 13585, "pitch": 64, "duration": 55, "velocity": 100}, {"time": 13750, "pitch": 61, "duration": 55, "velocity": 100}, {"time": 13805, "pitch": 56, "duration": 55, "velocity": 100}, {"time": 13860, "pitch": 64, "duration": 55, "velocity": 100}, {"time": 13970, "pitch": 61, "duration": 55, "velocity": 100}, {"time": 14080, "pitch": 44, "duration": 385, "velocity": 100}, {"time": 14190, "pitch": 56, "duration": 110, "velocity": 100}, {"time": 14300, "pitch": 63, "duration": 220, "velocity": 100}, {"time": 14355, "pitch": 56, "duration": 165, "velocity": 100}, {"time": 14410, "pitch": 61, "duration": 110, "velocity": 100}, {"time": 14465, "pitch": 59, "duration": 110, "velocity": 100}, {"time": 14520, "pitch": 44, "duration": 385, "velocity": 100}, {"time": 14630, "pitch": 56, "duration": 330, "velocity": 100}, {"time": 14740, "pitch": 63, "duration": 220, "velocity": 100}, {"time": 14850, "pitch": 59, "duration": 110, "velocity": 100}, {"time": 14960, "pitch": 44, "duration": 275, "velocity": 100}, {"time": 15070, "pitch": 56, "duration": 165, "velocity": 100}, {"time": 15290, "pitch": 59, "duration": 110, "velocity": 100}, {"time": 15400, "pitch": 44, "duration": 330, "velocity": 100}, {"time": 15840, "pitch": 44, "duration": 275, "velocity": 100}, {"time": 16115, "pitch": 56, "duration": 55, "velocity": 100}, {"time": 16280, "pitch": 51, "duration": 275, "velocity": 100}, {"time": 16610, "pitch": 59, "duration": 110, "velocity": 100}, {"time": 16720, "pitch": 44, "duration": 330, "velocity": 100}, {"time": 16830, "pitch": 51, "duration": 220, "velocity": 100}, {"time": 17160, "pitch": 44, "duration": 385, "velocity": 100}, {"time": 17600, "pitch": 44, "duration": 440, "velocity": 100}, {"time": 17710, "pitch": 56, "duration": 165, "velocity": 100}, {"time": 17820, "pitch": 63, "duration": 110, "velocity": 100}, {"time": 17930, "pitch": 56, "duration": 110, "velocity": 100}, {"time": 18040, "pitch": 44, "duration": 385, "velocity": 100}, {"time": 18150, "pitch": 56, "duration": 330, "velocity": 100}, {"time": 18480, "pitch": 44, "duration": 385, "velocity": 100}, {"time": 18920, "pitch": 44, "duration": 385, "velocity": 100}, {"time": 19360, "pitch": 44, "duration": 330, "velocity": 100}, {"time": 19800, "pitch": 44, "duration": 220, "velocity": 100}, {"time": 20240, "pitch": 44, "duration": 330, "velocity": 100}, {"time": 20350, "pitch": 47, "duration": 165, "velocity": 100}, {"time": 20680, "pitch": 44, "duration": 385, "velocity": 100}, {"time": 21120, "pitch": 35, "duration": 385, "velocity": 100}, {"time": 21230, "pitch": 44, "duration": 330, "velocity": 100}, {"time": 21450, "pitch": 52, "duration": 330, "velocity": 100}, {"time": 21560, "pitch": 42, "duration": 275, "velocity": 100}, {"time": 21670, "pitch": 45, "duration": 165, "velocity": 100}, {"time": 21780, "pitch": 49, "duration": 110, "velocity": 100}, {"time": 22000, "pitch": 42, "duration": 275, "velocity": 100}, {"time": 22330, "pitch": 54, "duration": 110, "velocity": 100}, {"time": 22440, "pitch": 30, "duration": 275, "velocity": 100}, {"time": 22550, "pitch": 37, "duration": 165, "velocity": 100}, {"time": 22770, "pitch": 49, "duration": 110, "velocity": 100}, {"time": 22880, "pitch": 30, "duration": 275, "velocity": 100}, {"time": 23320, "pitch": 42, "duration": 220, "velocity": 100}, {"time": 23430, "pitch": 49, "duration": 110, "velocity": 100}, {"time": 23760, "pitch": 30, "duration": 275, "velocity": 100}, {"time": 24090, "pitch": 45, "duration": 110, "velocity": 100}, {"time": 24200, "pitch": 30, "duration": 385, "velocity": 100}, {"time": 24530, "pitch": 54, "duration": 110, "velocity": 100}, {"time": 24640, "pitch": 37, "duration": 440, "velocity": 100}, {"time": 24695, "pitch": 44, "duration": 385, "velocity": 100}, {"time": 24750, "pitch": 49, "duration": 110, "velocity": 100}, {"time": 24915, "pitch": 49, "duration": 165, "velocity": 100}, {"time": 25080, "pitch": 37, "duration": 440, "velocity": 100}, {"time": 25190, "pitch": 44, "duration": 330, "velocity": 100}, {"time": 25300, "pitch": 49, "duration": 440, "velocity": 100}, {"time": 25410, "pitch": 52, "duration": 330, "velocity": 100}, {"time": 25520, "pitch": 37, "duration": 385, "velocity": 100}, {"time": 25850, "pitch": 56, "duration": 165, "velocity": 100}, {"time": 25960, "pitch": 37, "duration": 385, "velocity": 100}, {"time": 26180, "pitch": 49, "duration": 220, "velocity": 100}, {"time": 26400, "pitch": 37, "duration": 330, "velocity": 100}, {"time": 26510, "pitch": 44, "duration": 165, "velocity": 100}, {"time": 26730, "pitch": 56, "duration": 110, "velocity": 100}, {"time": 26840, "pitch": 37, "duration": 275, "velocity": 100}, {"time": 26895, "pitch": 44, "duration": 275, "velocity": 100}, {"time": 27280, "pitch": 25, "duration": 275, "velocity": 100}, {"time": 27390, "pitch": 37, "duration": 165, "velocity": 100}, {"time": 27500, "pitch": 37, "duration": 110, "velocity": 100}, {"time": 27720, "pitch": 37, "duration": 385, "velocity": 100}, {"time": 28600, "pitch": 42, "duration": 330, "velocity": 100}, {"time": 29040, "pitch": 37, "duration": 330, "velocity": 100}, {"time": 29095, "pitch": 45, "duration": 275, "velocity": 100}, {"time": 29315, "pitch": 49, "duration": 55, "velocity": 100}, {"time": 29480, "pitch": 42, "duration": 330, "velocity": 100}, {"time": 29535, "pitch": 49, "duration": 220, "velocity": 100}, {"time": 29920, "pitch": 42, "duration": 275, "velocity": 100}, {"time": 30360, "pitch": 42, "duration": 330, "velocity": 100}, {"time": 30415, "pitch": 49, "duration": 275, "velocity": 100}, {"time": 30800, "pitch": 42, "duration": 330, "velocity": 100}, {"time": 30855, "pitch": 45, "duration": 275, "velocity": 100}, {"time": 31075, "pitch": 49, "duration": 55, "velocity": 100}, {"time": 31240, "pitch": 42, "duration": 385, "velocity": 100}, {"time": 31680, "pitch": 42, "duration": 330, "velocity": 100}, {"time": 32120, "pitch": 35, "duration": 330, "velocity": 100}, {"time": 32560, "pitch": 47, "duration": 220, "velocity": 100}, {"time": 32780, "pitch": 42, "duration": 165, "velocity": 100}, {"time": 33000, "pitch": 47, "duration": 220, "velocity": 100}, {"time": 33220, "pitch": 47, "duration": 220, "velocity": 100}, {"time": 33330, "pitch": 54, "duration": 110, "velocity": 100}, {"time": 33440, "pitch": 47, "duration": 385, "velocity": 100}, {"time": 33495, "pitch": 51, "duration": 165, "velocity": 100}, {"time": 33715, "pitch": 51, "duration": 165, "velocity": 100}, {"time": 33880, "pitch": 35, "duration": 330, "velocity": 100}, {"time": 33935, "pitch": 47, "duration": 275, "velocity": 100}, {"time": 34155, "pitch": 54, "duration": 55, "velocity": 100}, {"time": 34320, "pitch": 35, "duration": 110, "velocity": 100}, {"time": 34375, "pitch": 42, "duration": 165, "velocity": 100}, {"time": 34540, "pitch": 35, "duration": 110, "velocity": 100}, {"time": 34760, "pitch": 35, "duration": 330, "velocity": 100}, {"time": 35035, "pitch": 47, "duration": 165, "velocity": 100}, {"time": 35640, "pitch": 49, "duration": 330, "velocity": 100}, {"time": 36080, "pitch": 44, "duration": 330, "velocity": 100}, {"time": 36135, "pitch": 52, "duration": 275, "velocity": 100}, {"time": 36520, "pitch": 49, "duration": 330, "velocity": 100}, {"time": 36575, "pitch": 52, "duration": 275, "velocity": 100}, {"time": 36960, "pitch": 49, "duration": 275, "velocity": 100}, {"time": 37400, "pitch": 49, "duration": 330, "velocity": 100}, {"time": 37840, "pitch": 44, "duration": 330, "velocity": 100}, {"time": 38115, "pitch": 56, "duration": 55, "velocity": 100}, {"time": 38280, "pitch": 49, "duration": 385, "velocity": 100}, {"time": 38335, "pitch": 52, "duration": 385, "velocity": 100}, {"time": 38720, "pitch": 51, "duration": 330, "velocity": 100}, {"time": 39160, "pitch": 47, "duration": 385, "velocity": 100}, {"time": 39215, "pitch": 54, "duration": 275, "velocity": 100}, {"time": 39600, "pitch": 47, "duration": 165, "velocity": 100}, {"time": 39820, "pitch": 47, "duration": 220, "velocity": 100}, {"time": 40040, "pitch": 47, "duration": 220, "velocity": 100}, {"time": 40260, "pitch": 47, "duration": 220, "velocity": 100}, {"time": 40370, "pitch": 59, "duration": 110, "velocity": 100}, {"time": 40480, "pitch": 51, "duration": 385, "velocity": 100}, {"time": 40920, "pitch": 47, "duration": 330, "velocity": 100}, {"time": 40975, "pitch": 54, "duration": 275, "velocity": 100}, {"time": 41195, "pitch": 59, "duration": 55, "velocity": 100}, {"time": 41360, "pitch": 47, "duration": 220, "velocity": 100}, {"time": 41415, "pitch": 54, "duration": 165, "velocity": 100}, {"time": 41580, "pitch": 47, "duration": 110, "velocity": 100}, {"time": 41800, "pitch": 47, "duration": 330, "velocity": 100}, {"time": 42075, "pitch": 54, "duration": 55, "velocity": 100}, {"time": 42240, "pitch": 49, "duration": 385, "velocity": 100}, {"time": 42515, "pitch": 57, "duration": 55, "velocity": 100}, {"time": 42680, "pitch": 54, "duration": 330, "velocity": 100}, {"time": 43120, "pitch": 42, "duration": 385, "velocity": 100}, {"time": 43560, "pitch": 42, "duration": 330, "velocity": 100}, {"time": 44000, "pitch": 49, "duration": 330, "velocity": 100}, {"time": 44440, "pitch": 54, "duration": 330, "velocity": 100}, {"time": 44880, "pitch": 54, "duration": 330, "velocity": 100}, {"time": 45320, "pitch": 54, "duration": 330, "velocity": 100}, {"time": 45760, "pitch": 42, "duration": 330, "velocity": 100}, {"time": 45815, "pitch": 45, "duration": 275, "velocity": 100}, {"time": 45870, "pitch": 49, "duration": 165, "velocity": 100}, {"time": 46035, "pitch": 49, "duration": 55, "velocity": 100}, {"time": 46200, "pitch": 37, "duration": 385, "velocity": 100}, {"time": 46255, "pitch": 49, "duration": 165, "velocity": 100}, {"time": 46475, "pitch": 49, "duration": 55, "velocity": 100}, {"time": 46640, "pitch": 37, "duration": 385, "velocity": 100}, {"time": 46695, "pitch": 44, "duration": 385, "velocity": 100}, {"time": 46915, "pitch": 49, "duration": 55, "velocity": 100}, {"time": 47080, "pitch": 37, "duration": 385, "velocity": 100}, {"time": 47135, "pitch": 44, "duration": 385, "velocity": 100}, {"time": 47190, "pitch": 49, "duration": 110, "velocity": 100}, {"time": 47355, "pitch": 49, "duration": 55, "velocity": 100}, {"time": 47520, "pitch": 37, "duration": 330, "velocity": 100}, {"time": 47795, "pitch": 49, "duration": 55, "velocity": 100}, {"time": 47960, "pitch": 37, "duration": 330, "velocity": 100}, {"time": 48015, "pitch": 49, "duration": 220, "velocity": 100}, {"time": 48235, "pitch": 49, "duration": 55, "velocity": 100}, {"time": 48400, "pitch": 37, "duration": 385, "velocity": 100}, {"time": 48455, "pitch": 44, "duration": 385, "velocity": 100}, {"time": 48510, "pitch": 49, "duration": 110, "velocity": 100}, {"time": 48675, "pitch": 49, "duration": 165, "velocity": 100}, {"time": 48840, "pitch": 37, "duration": 385, "velocity": 100}, {"time": 48895, "pitch": 44, "duration": 385, "velocity": 100}, {"time": 48950, "pitch": 49, "duration": 110, "velocity": 100}, {"time": 49005, "pitch": 52, "duration": 55, "velocity": 100}, {"time": 49115, "pitch": 49, "duration": 55, "velocity": 100}, {"time": 49280, "pitch": 37, "duration": 440, "velocity": 100}, {"time": 49335, "pitch": 44, "duration": 385, "velocity": 100}, {"time": 49555, "pitch": 47, "duration": 55, "velocity": 100}, {"time": 49720, "pitch": 35, "duration": 385, "velocity": 100}, {"time": 49775, "pitch": 42, "duration": 385, "velocity": 100}, {"time": 49995, "pitch": 47, "duration": 55, "velocity": 100}, {"time": 50160, "pitch": 35, "duration": 385, "velocity": 100}, {"time": 50215, "pitch": 42, "duration": 385, "velocity": 100}, {"time": 50435, "pitch": 47, "duration": 55, "velocity": 100}, {"time": 50600, "pitch": 35, "duration": 385, "velocity": 100}, {"time": 50655, "pitch": 42, "duration": 385, "velocity": 100}, {"time": 50710, "pitch": 47, "duration": 110, "velocity": 100}, {"time": 50875, "pitch": 47, "duration": 165, "velocity": 100}, {"time": 51040, "pitch": 51, "duration": 330, "velocity": 100}, {"time": 51480, "pitch": 47, "duration": 330, "velocity": 100}, {"time": 51535, "pitch": 54, "duration": 275, "velocity": 100}, {"time": 51920, "pitch": 47, "duration": 330, "velocity": 100}, {"time": 52360, "pitch": 47, "duration": 330, "velocity": 100}, {"time": 52415, "pitch": 54, "duration": 275, "velocity": 100}, {"time": 52800, "pitch": 51, "duration": 275, "velocity": 100}, {"time": 53240, "pitch": 47, "duration": 330, "velocity": 100}, {"time": 53295, "pitch": 54, "duration": 220, "velocity": 100}, {"time": 53680, "pitch": 47, "duration": 330, "velocity": 100}, {"time": 53735, "pitch": 51, "duration": 275, "velocity": 100}, {"time": 54120, "pitch": 47, "duration": 385, "velocity": 100}, {"time": 54560, "pitch": 47, "duration": 330, "velocity": 100}, {"time": 55000, "pitch": 47, "duration": 385, "velocity": 100}, {"time": 55055, "pitch": 54, "duration": 275, "velocity": 100}, {"time": 55440, "pitch": 47, "duration": 165, "velocity": 100}, {"time": 55660, "pitch": 47, "duration": 165, "velocity": 100}, {"time": 55880, "pitch": 47, "duration": 220, "velocity": 100}, {"time": 56100, "pitch": 47, "duration": 220, "velocity": 100}, {"time": 56210, "pitch": 59, "duration": 110, "velocity": 100}, {"time": 56320, "pitch": 47, "duration": 385, "velocity": 100}, {"time": 56760, "pitch": 47, "duration": 385, "velocity": 100}, {"time": 56815, "pitch": 54, "duration": 385, "velocity": 100}, {"time": 57200, "pitch": 47, "duration": 110, "velocity": 100}, {"time": 57420, "pitch": 47, "duration": 110, "velocity": 100}, {"time": 58080, "pitch": 47, "duration": 330, "velocity": 100}, {"time": 58520, "pitch": 42, "duration": 385, "velocity": 100}, {"time": 58960, "pitch": 35, "duration": 330, "velocity": 100}, {"time": 59015, "pitch": 47, "duration": 275, "velocity": 100}, {"time": 59400, "pitch": 35, "duration": 330, "velocity": 100}, {"time": 59455, "pitch": 47, "duration": 275, "velocity": 100}, {"time": 59840, "pitch": 47, "duration": 275, "velocity": 100}, {"time": 60280, "pitch": 42, "duration": 330, "velocity": 100}, {"time": 60335, "pitch": 54, "duration": 275, "velocity": 100}, {"time": 60720, "pitch": 42, "duration": 330, "velocity": 100}, {"time": 60775, "pitch": 49, "duration": 275, "velocity": 100}, {"time": 60995, "pitch": 54, "duration": 55, "velocity": 100}, {"time": 61160, "pitch": 42, "duration": 385, "velocity": 100}, {"time": 61435, "pitch": 54, "duration": 55, "velocity": 100}, {"time": 61600, "pitch": 42, "duration": 330, "velocity": 100}, {"time": 62040, "pitch": 42, "duration": 330, "velocity": 100}, {"time": 62315, "pitch": 54, "duration": 55, "velocity": 100}, {"time": 62480, "pitch": 42, "duration": 165, "velocity": 100}, {"time": 62535, "pitch": 54, "duration": 55, "velocity": 100}, {"time": 62700, "pitch": 42, "duration": 165, "velocity": 100}, {"time": 62920, "pitch": 42, "duration": 220, "velocity": 100}, {"time": 63140, "pitch": 42, "duration": 220, "velocity": 100}, {"time": 63250, "pitch": 57, "duration": 110, "velocity": 100}, {"time": 63360, "pitch": 49, "duration": 385, "velocity": 100}, {"time": 63800, "pitch": 42, "duration": 330, "velocity": 100}, {"time": 63855, "pitch": 49, "duration": 275, "velocity": 100}, {"time": 64075, "pitch": 54, "duration": 55, "velocity": 100}, {"time": 64240, "pitch": 42, "duration": 165, "velocity": 100}, {"time": 64295, "pitch": 49, "duration": 165, "velocity": 100}, {"time": 64460, "pitch": 42, "duration": 110, "velocity": 100}, {"time": 64680, "pitch": 42, "duration": 330, "velocity": 100}, {"time": 64790, "pitch": 49, "duration": 110, "velocity": 100}, {"time": 64955, "pitch": 49, "duration": 55, "velocity": 100}, {"time": 65120, "pitch": 42, "duration": 385, "velocity": 100}, {"time": 65395, "pitch": 49, "duration": 165, "velocity": 100}, {"time": 65560, "pitch": 42, "duration": 330, "velocity": 100}, {"time": 65835, "pitch": 49, "duration": 55, "velocity": 100}, {"time": 66000, "pitch": 42, "duration": 385, "velocity": 100}, {"time": 66275, "pitch": 49, "duration": 165, "velocity": 100}, {"time": 66440, "pitch": 42, "duration": 330, "velocity": 100}, {"time": 66880, "pitch": 37, "duration": 385, "velocity": 100}]}]}