{"metadata": {"schema_version": "0.1", "title": "None", "source_filename": "20211209_162305.mid", "source_format": "midi"}, "resolution": 220, "tempos": [{"time": 0, "qpm": 120.0}], "time_signatures": [{"time": 0, "numerator": 4, "denominator": 4}], "tracks": [{"program": 0, "is_drum": false, "name": "Piano", "notes": [{"time": 0, "pitch": 58, "duration": 440, "velocity": 100}, {"time": 0, "pitch": 73, "duration": 165, "velocity": 100}]}, {"program": 24, "is_drum": false, "name": "Guitar", "notes": [{"time": 110, "pitch": 49, "duration": 110, "velocity": 100}, {"time": 165, "pitch": 53, "duration": 55, "velocity": 100}, {"time": 220, "pitch": 53, "duration": 55, "velocity": 100}, {"time": 220, "pitch": 58, "duration": 55, "velocity": 100}, {"time": 220, "pitch": 73, "duration": 220, "velocity": 100}, {"time": 330, "pitch": 53, "duration": 55, "velocity": 100}, {"time": 440, "pitch": 53, "duration": 165, "velocity": 100}, {"time": 440, "pitch": 58, "duration": 165, "velocity": 100}, {"time": 440, "pitch": 60, "duration": 330, "velocity": 100}, {"time": 660, "pitch": 61, "duration": 110, "velocity": 100}, {"time": 770, "pitch": 61, "duration": 110, "velocity": 100}, {"time": 770, "pitch": 65, "duration": 55, "velocity": 100}, {"time": 880, "pitch": 58, "duration": 55, "velocity": 100}, {"time": 880, "pitch": 61, "duration": 110, "velocity": 100}, {"time": 880, "pitch": 63, "duration": 220, "velocity": 100}, {"time": 990, "pitch": 53, "duration": 165, "velocity": 100}, {"time": 1100, "pitch": 58, "duration": 55, "velocity": 100}, {"time": 1100, "pitch": 60, "duration": 220, "velocity": 100}, {"time": 1100, "pitch": 61, "duration": 55, "velocity": 100}, {"time": 1100, "pitch": 65, "duration": 55, "velocity": 100}, {"time": 1320, "pitch": 53, "duration": 275, "velocity": 100}, {"time": 1320, "pitch": 58, "duration": 55, "velocity": 100}, {"time": 1320, "pitch": 65, "duration": 220, "velocity": 100}, {"time": 1320, "pitch": 66, "duration": 330, "velocity": 100}, {"time": 1430, "pitch": 58, "duration": 110, "velocity": 100}, {"time": 1540, "pitch": 65, "duration": 110, "velocity": 100}, {"time": 1650, "pitch": 58, "duration": 55, "velocity": 100}, {"time": 1650, "pitch": 63, "duration": 110, "velocity": 100}, {"time": 1760, "pitch": 58, "duration": 165, "velocity": 100}, {"time": 1760, "pitch": 61, "duration": 55, "velocity": 100}, {"time": 1760, "pitch": 65, "duration": 220, "velocity": 100}, {"time": 1870, "pitch": 53, "duration": 165, "velocity": 100}, {"time": 1980, "pitch": 58, "duration": 55, "velocity": 100}, {"time": 1980, "pitch": 65, "duration": 55, "velocity": 100}, {"time": 1980, "pitch": 65, "duration": 660, "velocity": 100}, {"time": 2200, "pitch": 61, "duration": 220, "velocity": 100}, {"time": 2200, "pitch": 65, "duration": 440, "velocity": 100}, {"time": 2310, "pitch": 53, "duration": 220, "velocity": 100}, {"time": 2420, "pitch": 58, "duration": 110, "velocity": 100}, {"time": 2640, "pitch": 58, "duration": 220, "velocity": 100}, {"time": 2640, "pitch": 58, "duration": 440, "velocity": 100}, {"time": 2640, "pitch": 61, "duration": 220, "velocity": 100}, {"time": 2860, "pitch": 65, "duration": 220, "velocity": 100}, {"time": 2970, "pitch": 58, "duration": 110, "velocity": 100}, {"time": 3080, "pitch": 58, "duration": 55, "velocity": 100}, {"time": 3080, "pitch": 60, "duration": 330, "velocity": 100}, {"time": 3080, "pitch": 61, "duration": 165, "velocity": 100}, {"time": 3080, "pitch": 65, "duration": 220, "velocity": 100}, {"time": 3190, "pitch": 58, "duration": 110, "velocity": 100}, {"time": 3300, "pitch": 65, "duration": 165, "velocity": 100}, {"time": 3410, "pitch": 61, "duration": 110, "velocity": 100}, {"time": 3520, "pitch": 51, "duration": 110, "velocity": 100}, {"time": 3520, "pitch": 54, "duration": 110, "velocity": 100}, {"time": 3520, "pitch": 63, "duration": 220, "velocity": 100}, {"time": 3630, "pitch": 75, "duration": 55, "velocity": 100}, {"time": 3685, "pitch": 77, "duration": 55, "velocity": 100}, {"time": 3740, "pitch": 51, "duration": 55, "velocity": 100}, {"time": 3740, "pitch": 54, "duration": 110, "velocity": 100}, {"time": 3740, "pitch": 60, "duration": 220, "velocity": 100}, {"time": 3740, "pitch": 75, "duration": 55, "velocity": 100}, {"time": 3795, "pitch": 80, "duration": 165, "velocity": 100}, {"time": 3960, "pitch": 51, "duration": 220, "velocity": 100}, {"time": 3960, "pitch": 66, "duration": 330, "velocity": 100}, {"time": 3960, "pitch": 78, "duration": 440, "velocity": 100}, {"time": 4180, "pitch": 54, "duration": 110, "velocity": 100}, {"time": 4290, "pitch": 65, "duration": 110, "velocity": 100}, {"time": 4400, "pitch": 51, "duration": 220, "velocity": 100}, {"time": 4400, "pitch": 54, "duration": 220, "velocity": 100}, {"time": 4400, "pitch": 63, "duration": 220, "velocity": 100}, {"time": 4620, "pitch": 58, "duration": 110, "velocity": 100}, {"time": 4620, "pitch": 63, "duration": 660, "velocity": 100}, {"time": 4730, "pitch": 54, "duration": 110, "velocity": 100}, {"time": 4840, "pitch": 58, "duration": 220, "velocity": 100}, {"time": 5060, "pitch": 51, "duration": 110, "velocity": 100}, {"time": 5060, "pitch": 54, "duration": 110, "velocity": 100}, {"time": 5280, "pitch": 51, "duration": 165, "velocity": 100}, {"time": 5280, "pitch": 54, "duration": 165, "velocity": 100}, {"time": 5280, "pitch": 58, "duration": 440, "velocity": 100}, {"time": 5500, "pitch": 58, "duration": 110, "velocity": 100}, {"time": 5610, "pitch": 54, "duration": 55, "velocity": 100}, {"time": 5720, "pitch": 54, "duration": 165, "velocity": 100}, {"time": 5720, "pitch": 60, "duration": 330, "velocity": 100}, {"time": 5940, "pitch": 51, "duration": 55, "velocity": 100}, {"time": 5940, "pitch": 54, "duration": 55, "velocity": 100}, {"time": 6050, "pitch": 61, "duration": 110, "velocity": 100}, {"time": 6160, "pitch": 51, "duration": 110, "velocity": 100}, {"time": 6160, "pitch": 54, "duration": 110, "velocity": 100}, {"time": 6160, "pitch": 63, "duration": 220, "velocity": 100}, {"time": 6380, "pitch": 60, "duration": 220, "velocity": 100}, {"time": 6435, "pitch": 53, "duration": 55, "velocity": 100}, {"time": 6490, "pitch": 53, "duration": 55, "velocity": 100}, {"time": 6600, "pitch": 51, "duration": 165, "velocity": 100}, {"time": 6600, "pitch": 54, "duration": 110, "velocity": 100}, {"time": 6600, "pitch": 66, "duration": 330, "velocity": 100}, {"time": 6820, "pitch": 51, "duration": 110, "velocity": 100}, {"time": 6820, "pitch": 54, "duration": 110, "velocity": 100}, {"time": 6930, "pitch": 63, "duration": 110, "velocity": 100}, {"time": 7040, "pitch": 57, "duration": 110, "velocity": 100}, {"time": 7040, "pitch": 65, "duration": 110, "velocity": 100}, {"time": 7040, "pitch": 65, "duration": 220, "velocity": 100}, {"time": 7260, "pitch": 48, "duration": 55, "velocity": 100}, {"time": 7260, "pitch": 53, "duration": 55, "velocity": 100}, {"time": 7260, "pitch": 60, "duration": 110, "velocity": 100}, {"time": 7260, "pitch": 65, "duration": 660, "velocity": 100}, {"time": 7370, "pitch": 55, "duration": 55, "velocity": 100}, {"time": 7480, "pitch": 53, "duration": 220, "velocity": 100}, {"time": 7480, "pitch": 57, "duration": 440, "velocity": 100}, {"time": 7590, "pitch": 82, "duration": 55, "velocity": 100}, {"time": 7645, "pitch": 82, "duration": 55, "velocity": 100}, {"time": 7700, "pitch": 60, "duration": 110, "velocity": 100}, {"time": 7700, "pitch": 81, "duration": 55, "velocity": 100}, {"time": 7755, "pitch": 84, "duration": 55, "velocity": 100}, {"time": 7920, "pitch": 57, "duration": 220, "velocity": 100}, {"time": 7920, "pitch": 58, "duration": 440, "velocity": 100}, {"time": 7920, "pitch": 60, "duration": 220, "velocity": 100}, {"time": 7920, "pitch": 84, "duration": 440, "velocity": 100}, {"time": 8140, "pitch": 65, "duration": 110, "velocity": 100}, {"time": 8140, "pitch": 69, "duration": 110, "velocity": 100}, {"time": 8250, "pitch": 60, "duration": 110, "velocity": 100}, {"time": 8250, "pitch": 65, "duration": 55, "velocity": 100}, {"time": 8360, "pitch": 60, "duration": 330, "velocity": 100}, {"time": 8360, "pitch": 65, "duration": 440, "velocity": 100}, {"time": 8470, "pitch": 53, "duration": 165, "velocity": 100}, {"time": 8580, "pitch": 57, "duration": 55, "velocity": 100}, {"time": 8580, "pitch": 60, "duration": 220, "velocity": 100}, {"time": 8690, "pitch": 61, "duration": 110, "velocity": 100}, {"time": 8800, "pitch": 57, "duration": 220, "velocity": 100}, {"time": 8800, "pitch": 60, "duration": 220, "velocity": 100}, {"time": 8800, "pitch": 63, "duration": 220, "velocity": 100}, {"time": 8800, "pitch": 65, "duration": 220, "velocity": 100}, {"time": 8910, "pitch": 53, "duration": 165, "velocity": 100}, {"time": 9020, "pitch": 60, "duration": 110, "velocity": 100}, {"time": 9020, "pitch": 60, "duration": 220, "velocity": 100}, {"time": 9020, "pitch": 65, "duration": 110, "velocity": 100}, {"time": 9130, "pitch": 57, "duration": 110, "velocity": 100}, {"time": 9130, "pitch": 60, "duration": 55, "velocity": 100}, {"time": 9240, "pitch": 60, "duration": 275, "velocity": 100}, {"time": 9240, "pitch": 66, "duration": 330, "velocity": 100}, {"time": 9350, "pitch": 53, "duration": 165, "velocity": 100}, {"time": 9460, "pitch": 60, "duration": 220, "velocity": 100}, {"time": 9570, "pitch": 65, "duration": 110, "velocity": 100}, {"time": 9680, "pitch": 57, "duration": 220, "velocity": 100}, {"time": 9680, "pitch": 60, "duration": 220, "velocity": 100}, {"time": 9680, "pitch": 63, "duration": 220, "velocity": 100}, {"time": 9790, "pitch": 58, "duration": 55, "velocity": 100}, {"time": 9900, "pitch": 53, "duration": 110, "velocity": 100}, {"time": 9900, "pitch": 60, "duration": 110, "velocity": 100}, {"time": 9900, "pitch": 63, "duration": 660, "velocity": 100}, {"time": 9955, "pitch": 62, "duration": 55, "velocity": 100}, {"time": 10010, "pitch": 60, "duration": 55, "velocity": 100}, {"time": 10010, "pitch": 67, "duration": 55, "velocity": 100}, {"time": 10065, "pitch": 67, "duration": 55, "velocity": 100}, {"time": 10120, "pitch": 53, "duration": 165, "velocity": 100}, {"time": 10120, "pitch": 60, "duration": 220, "velocity": 100}, {"time": 10120, "pitch": 62, "duration": 330, "velocity": 100}, {"time": 10120, "pitch": 65, "duration": 220, "velocity": 100}, {"time": 10340, "pitch": 57, "duration": 110, "velocity": 100}, {"time": 10340, "pitch": 62, "duration": 220, "velocity": 100}, {"time": 10450, "pitch": 53, "duration": 55, "velocity": 100}]}, {"program": 32, "is_drum": false, "name": "Bass", "notes": [{"time": 0, "pitch": 58, "duration": 55, "velocity": 100}, {"time": 275, "pitch": 48, "duration": 55, "velocity": 100}, {"time": 440, "pitch": 46, "duration": 330, "velocity": 100}, {"time": 550, "pitch": 49, "duration": 165, "velocity": 100}, {"time": 880, "pitch": 46, "duration": 385, "velocity": 100}, {"time": 1760, "pitch": 46, "duration": 275, "velocity": 100}, {"time": 2200, "pitch": 46, "duration": 275, "velocity": 100}, {"time": 2640, "pitch": 46, "duration": 275, "velocity": 100}, {"time": 2750, "pitch": 49, "duration": 165, "velocity": 100}, {"time": 3080, "pitch": 46, "duration": 275, "velocity": 100}, {"time": 3520, "pitch": 39, "duration": 220, "velocity": 100}, {"time": 3630, "pitch": 42, "duration": 110, "velocity": 100}, {"time": 3740, "pitch": 46, "duration": 55, "velocity": 100}, {"time": 3850, "pitch": 46, "duration": 55, "velocity": 100}, {"time": 3960, "pitch": 39, "duration": 275, "velocity": 100}, {"time": 3960, "pitch": 46, "duration": 220, "velocity": 100}, {"time": 4070, "pitch": 42, "duration": 220, "velocity": 100}, {"time": 4400, "pitch": 39, "duration": 385, "velocity": 100}, {"time": 4510, "pitch": 46, "duration": 220, "velocity": 100}, {"time": 4840, "pitch": 39, "duration": 275, "velocity": 100}, {"time": 4950, "pitch": 46, "duration": 165, "velocity": 100}, {"time": 5280, "pitch": 39, "duration": 330, "velocity": 100}, {"time": 5390, "pitch": 46, "duration": 165, "velocity": 100}, {"time": 5720, "pitch": 39, "duration": 275, "velocity": 100}, {"time": 5830, "pitch": 46, "duration": 165, "velocity": 100}, {"time": 6160, "pitch": 39, "duration": 385, "velocity": 100}, {"time": 6270, "pitch": 42, "duration": 220, "velocity": 100}, {"time": 6380, "pitch": 46, "duration": 110, "velocity": 100}, {"time": 6600, "pitch": 39, "duration": 330, "velocity": 100}, {"time": 6710, "pitch": 46, "duration": 165, "velocity": 100}, {"time": 6930, "pitch": 46, "duration": 55, "velocity": 100}, {"time": 7040, "pitch": 41, "duration": 165, "velocity": 100}, {"time": 7150, "pitch": 48, "duration": 110, "velocity": 100}, {"time": 7480, "pitch": 41, "duration": 330, "velocity": 100}, {"time": 7590, "pitch": 48, "duration": 220, "velocity": 100}, {"time": 7920, "pitch": 41, "duration": 330, "velocity": 100}, {"time": 8030, "pitch": 48, "duration": 220, "velocity": 100}, {"time": 8360, "pitch": 45, "duration": 275, "velocity": 100}, {"time": 8800, "pitch": 41, "duration": 275, "velocity": 100}, {"time": 9240, "pitch": 45, "duration": 275, "velocity": 100}, {"time": 9680, "pitch": 41, "duration": 330, "velocity": 100}, {"time": 9790, "pitch": 48, "duration": 275, "velocity": 100}, {"time": 10120, "pitch": 41, "duration": 275, "velocity": 100}, {"time": 10230, "pitch": 48, "duration": 165, "velocity": 100}]}, {"program": 48, "is_drum": false, "name": "Strings"}, {"program": 61, "is_drum": false, "name": "Brass"}, {"program": 0, "is_drum": false, "name": "Piano", "notes": [{"time": 0, "pitch": 58, "duration": 440, "velocity": 100}, {"time": 440, "pitch": 60, "duration": 330, "velocity": 100}, {"time": 770, "pitch": 61, "duration": 110, "velocity": 100}, {"time": 880, "pitch": 63, "duration": 220, "velocity": 100}, {"time": 1100, "pitch": 60, "duration": 220, "velocity": 100}, {"time": 1320, "pitch": 66, "duration": 330, "velocity": 100}, {"time": 1650, "pitch": 63, "duration": 110, "velocity": 100}, {"time": 1760, "pitch": 65, "duration": 220, "velocity": 100}, {"time": 1980, "pitch": 65, "duration": 660, "velocity": 100}, {"time": 2640, "pitch": 58, "duration": 440, "velocity": 100}, {"time": 3080, "pitch": 60, "duration": 330, "velocity": 100}, {"time": 3410, "pitch": 61, "duration": 110, "velocity": 100}, {"time": 3520, "pitch": 63, "duration": 220, "velocity": 100}, {"time": 3740, "pitch": 60, "duration": 220, "velocity": 100}, {"time": 3960, "pitch": 66, "duration": 330, "velocity": 100}, {"time": 4290, "pitch": 65, "duration": 110, "velocity": 100}, {"time": 4400, "pitch": 63, "duration": 220, "velocity": 100}, {"time": 4620, "pitch": 63, "duration": 660, "velocity": 100}, {"time": 5280, "pitch": 58, "duration": 440, "velocity": 100}, {"time": 5720, "pitch": 60, "duration": 330, "velocity": 100}, {"time": 6050, "pitch": 61, "duration": 110, "velocity": 100}, {"time": 6160, "pitch": 63, "duration": 220, "velocity": 100}, {"time": 6380, "pitch": 60, "duration": 220, "velocity": 100}, {"time": 6600, "pitch": 66, "duration": 330, "velocity": 100}, {"time": 6930, "pitch": 63, "duration": 110, "velocity": 100}, {"time": 7040, "pitch": 65, "duration": 220, "velocity": 100}, {"time": 7260, "pitch": 65, "duration": 660, "velocity": 100}, {"time": 7920, "pitch": 58, "duration": 440, "velocity": 100}, {"time": 8360, "pitch": 60, "duration": 330, "velocity": 100}, {"time": 8690, "pitch": 61, "duration": 110, "velocity": 100}, {"time": 8800, "pitch": 63, "duration": 220, "velocity": 100}, {"time": 9020, "pitch": 60, "duration": 220, "velocity": 100}, {"time": 9240, "pitch": 66, "duration": 330, "velocity": 100}, {"time": 9570, "pitch": 65, "duration": 110, "velocity": 100}, {"time": 9680, "pitch": 63, "duration": 220, "velocity": 100}, {"time": 9900, "pitch": 63, "duration": 660, "velocity": 100}, {"time": 0, "pitch": 58, "duration": 55, "velocity": 100}, {"time": 0, "pitch": 73, "duration": 165, "velocity": 100}, {"time": 110, "pitch": 49, "duration": 110, "velocity": 100}, {"time": 165, "pitch": 53, "duration": 55, "velocity": 100}, {"time": 220, "pitch": 53, "duration": 55, "velocity": 100}, {"time": 220, "pitch": 58, "duration": 55, "velocity": 100}, {"time": 220, "pitch": 73, "duration": 220, "velocity": 100}, {"time": 275, "pitch": 48, "duration": 55, "velocity": 100}, {"time": 330, "pitch": 53, "duration": 55, "velocity": 100}, {"time": 440, "pitch": 46, "duration": 330, "velocity": 100}, {"time": 440, "pitch": 53, "duration": 165, "velocity": 100}, {"time": 440, "pitch": 58, "duration": 165, "velocity": 100}, {"time": 550, "pitch": 49, "duration": 165, "velocity": 100}, {"time": 660, "pitch": 61, "duration": 110, "velocity": 100}, {"time": 770, "pitch": 65, "duration": 55, "velocity": 100}, {"time": 880, "pitch": 46, "duration": 385, "velocity": 100}, {"time": 880, "pitch": 58, "duration": 55, "velocity": 100}, {"time": 880, "pitch": 61, "duration": 110, "velocity": 100}, {"time": 990, "pitch": 53, "duration": 165, "velocity": 100}, {"time": 1100, "pitch": 58, "duration": 55, "velocity": 100}, {"time": 1100, "pitch": 61, "duration": 55, "velocity": 100}, {"time": 1100, "pitch": 65, "duration": 55, "velocity": 100}, {"time": 1320, "pitch": 53, "duration": 275, "velocity": 100}, {"time": 1320, "pitch": 58, "duration": 55, "velocity": 100}, {"time": 1320, "pitch": 65, "duration": 220, "velocity": 100}, {"time": 1430, "pitch": 58, "duration": 110, "velocity": 100}, {"time": 1540, "pitch": 65, "duration": 110, "velocity": 100}, {"time": 1650, "pitch": 58, "duration": 55, "velocity": 100}, {"time": 1760, "pitch": 46, "duration": 275, "velocity": 100}, {"time": 1760, "pitch": 58, "duration": 165, "velocity": 100}, {"time": 1760, "pitch": 61, "duration": 55, "velocity": 100}, {"time": 1870, "pitch": 53, "duration": 165, "velocity": 100}, {"time": 1980, "pitch": 58, "duration": 55, "velocity": 100}, {"time": 1980, "pitch": 65, "duration": 55, "velocity": 100}, {"time": 2200, "pitch": 46, "duration": 275, "velocity": 100}, {"time": 2200, "pitch": 61, "duration": 220, "velocity": 100}, {"time": 2200, "pitch": 65, "duration": 440, "velocity": 100}, {"time": 2310, "pitch": 53, "duration": 220, "velocity": 100}, {"time": 2420, "pitch": 58, "duration": 110, "velocity": 100}, {"time": 2640, "pitch": 46, "duration": 275, "velocity": 100}, {"time": 2640, "pitch": 58, "duration": 220, "velocity": 100}, {"time": 2640, "pitch": 61, "duration": 220, "velocity": 100}, {"time": 2750, "pitch": 49, "duration": 165, "velocity": 100}, {"time": 2860, "pitch": 65, "duration": 220, "velocity": 100}, {"time": 2970, "pitch": 58, "duration": 110, "velocity": 100}, {"time": 3080, "pitch": 46, "duration": 275, "velocity": 100}, {"time": 3080, "pitch": 58, "duration": 55, "velocity": 100}, {"time": 3080, "pitch": 61, "duration": 165, "velocity": 100}, {"time": 3080, "pitch": 65, "duration": 220, "velocity": 100}, {"time": 3190, "pitch": 58, "duration": 110, "velocity": 100}, {"time": 3300, "pitch": 65, "duration": 165, "velocity": 100}, {"time": 3520, "pitch": 39, "duration": 220, "velocity": 100}, {"time": 3520, "pitch": 51, "duration": 110, "velocity": 100}, {"time": 3520, "pitch": 54, "duration": 110, "velocity": 100}, {"time": 3630, "pitch": 42, "duration": 110, "velocity": 100}, {"time": 3630, "pitch": 75, "duration": 55, "velocity": 100}, {"time": 3685, "pitch": 77, "duration": 55, "velocity": 100}, {"time": 3740, "pitch": 46, "duration": 55, "velocity": 100}, {"time": 3740, "pitch": 51, "duration": 55, "velocity": 100}, {"time": 3740, "pitch": 54, "duration": 110, "velocity": 100}, {"time": 3740, "pitch": 75, "duration": 55, "velocity": 100}, {"time": 3795, "pitch": 80, "duration": 165, "velocity": 100}, {"time": 3850, "pitch": 46, "duration": 55, "velocity": 100}, {"time": 3960, "pitch": 39, "duration": 275, "velocity": 100}, {"time": 3960, "pitch": 46, "duration": 220, "velocity": 100}, {"time": 3960, "pitch": 51, "duration": 220, "velocity": 100}, {"time": 3960, "pitch": 78, "duration": 440, "velocity": 100}, {"time": 4070, "pitch": 42, "duration": 220, "velocity": 100}, {"time": 4180, "pitch": 54, "duration": 110, "velocity": 100}, {"time": 4400, "pitch": 39, "duration": 385, "velocity": 100}, {"time": 4400, "pitch": 51, "duration": 220, "velocity": 100}, {"time": 4400, "pitch": 54, "duration": 220, "velocity": 100}, {"time": 4510, "pitch": 46, "duration": 220, "velocity": 100}, {"time": 4620, "pitch": 58, "duration": 110, "velocity": 100}, {"time": 4730, "pitch": 54, "duration": 110, "velocity": 100}, {"time": 4840, "pitch": 39, "duration": 275, "velocity": 100}, {"time": 4840, "pitch": 58, "duration": 220, "velocity": 100}, {"time": 4950, "pitch": 46, "duration": 165, "velocity": 100}, {"time": 5060, "pitch": 51, "duration": 110, "velocity": 100}, {"time": 5060, "pitch": 54, "duration": 110, "velocity": 100}, {"time": 5280, "pitch": 39, "duration": 330, "velocity": 100}, {"time": 5280, "pitch": 51, "duration": 165, "velocity": 100}, {"time": 5280, "pitch": 54, "duration": 165, "velocity": 100}, {"time": 5390, "pitch": 46, "duration": 165, "velocity": 100}, {"time": 5500, "pitch": 58, "duration": 110, "velocity": 100}, {"time": 5610, "pitch": 54, "duration": 55, "velocity": 100}, {"time": 5720, "pitch": 39, "duration": 275, "velocity": 100}, {"time": 5720, "pitch": 54, "duration": 165, "velocity": 100}, {"time": 5830, "pitch": 46, "duration": 165, "velocity": 100}, {"time": 5940, "pitch": 51, "duration": 55, "velocity": 100}, {"time": 5940, "pitch": 54, "duration": 55, "velocity": 100}, {"time": 6160, "pitch": 39, "duration": 385, "velocity": 100}, {"time": 6160, "pitch": 51, "duration": 110, "velocity": 100}, {"time": 6160, "pitch": 54, "duration": 110, "velocity": 100}, {"time": 6270, "pitch": 42, "duration": 220, "velocity": 100}, {"time": 6380, "pitch": 46, "duration": 110, "velocity": 100}, {"time": 6435, "pitch": 53, "duration": 55, "velocity": 100}, {"time": 6490, "pitch": 53, "duration": 55, "velocity": 100}, {"time": 6600, "pitch": 39, "duration": 330, "velocity": 100}, {"time": 6600, "pitch": 51, "duration": 165, "velocity": 100}, {"time": 6600, "pitch": 54, "duration": 110, "velocity": 100}, {"time": 6710, "pitch": 46, "duration": 165, "velocity": 100}, {"time": 6820, "pitch": 51, "duration": 110, "velocity": 100}, {"time": 6820, "pitch": 54, "duration": 110, "velocity": 100}, {"time": 6930, "pitch": 46, "duration": 55, "velocity": 100}, {"time": 7040, "pitch": 41, "duration": 165, "velocity": 100}, {"time": 7040, "pitch": 57, "duration": 110, "velocity": 100}, {"time": 7040, "pitch": 65, "duration": 110, "velocity": 100}, {"time": 7150, "pitch": 48, "duration": 110, "velocity": 100}, {"time": 7260, "pitch": 48, "duration": 55, "velocity": 100}, {"time": 7260, "pitch": 53, "duration": 55, "velocity": 100}, {"time": 7260, "pitch": 60, "duration": 110, "velocity": 100}, {"time": 7370, "pitch": 55, "duration": 55, "velocity": 100}, {"time": 7480, "pitch": 41, "duration": 330, "velocity": 100}, {"time": 7480, "pitch": 53, "duration": 220, "velocity": 100}, {"time": 7480, "pitch": 57, "duration": 440, "velocity": 100}, {"time": 7590, "pitch": 48, "duration": 220, "velocity": 100}, {"time": 7590, "pitch": 82, "duration": 55, "velocity": 100}, {"time": 7645, "pitch": 82, "duration": 55, "velocity": 100}, {"time": 7700, "pitch": 60, "duration": 110, "velocity": 100}, {"time": 7700, "pitch": 81, "duration": 55, "velocity": 100}, {"time": 7755, "pitch": 84, "duration": 55, "velocity": 100}, {"time": 7920, "pitch": 41, "duration": 330, "velocity": 100}, {"time": 7920, "pitch": 57, "duration": 220, "velocity": 100}, {"time": 7920, "pitch": 60, "duration": 220, "velocity": 100}, {"time": 7920, "pitch": 84, "duration": 440, "velocity": 100}, {"time": 8030, "pitch": 48, "duration": 220, "velocity": 100}, {"time": 8140, "pitch": 65, "duration": 110, "velocity": 100}, {"time": 8140, "pitch": 69, "duration": 110, "velocity": 100}, {"time": 8250, "pitch": 60, "duration": 110, "velocity": 100}, {"time": 8250, "pitch": 65, "duration": 55, "velocity": 100}, {"time": 8360, "pitch": 45, "duration": 275, "velocity": 100}, {"time": 8360, "pitch": 65, "duration": 440, "velocity": 100}, {"time": 8470, "pitch": 53, "duration": 165, "velocity": 100}, {"time": 8580, "pitch": 57, "duration": 55, "velocity": 100}, {"time": 8580, "pitch": 60, "duration": 220, "velocity": 100}, {"time": 8800, "pitch": 41, "duration": 275, "velocity": 100}, {"time": 8800, "pitch": 57, "duration": 220, "velocity": 100}, {"time": 8800, "pitch": 60, "duration": 220, "velocity": 100}, {"time": 8800, "pitch": 65, "duration": 220, "velocity": 100}, {"time": 8910, "pitch": 53, "duration": 165, "velocity": 100}, {"time": 9020, "pitch": 60, "duration": 110, "velocity": 100}, {"time": 9020, "pitch": 65, "duration": 110, "velocity": 100}, {"time": 9130, "pitch": 57, "duration": 110, "velocity": 100}, {"time": 9130, "pitch": 60, "duration": 55, "velocity": 100}, {"time": 9240, "pitch": 45, "duration": 275, "velocity": 100}, {"time": 9240, "pitch": 60, "duration": 275, "velocity": 100}, {"time": 9350, "pitch": 53, "duration": 165, "velocity": 100}, {"time": 9460, "pitch": 60, "duration": 220, "velocity": 100}, {"time": 9680, "pitch": 41, "duration": 330, "velocity": 100}, {"time": 9680, "pitch": 57, "duration": 220, "velocity": 100}, {"time": 9680, "pitch": 60, "duration": 220, "velocity": 100}, {"time": 9790, "pitch": 48, "duration": 275, "velocity": 100}, {"time": 9790, "pitch": 58, "duration": 55, "velocity": 100}, {"time": 9900, "pitch": 53, "duration": 110, "velocity": 100}, {"time": 9900, "pitch": 60, "duration": 110, "velocity": 100}, {"time": 9955, "pitch": 62, "duration": 55, "velocity": 100}, {"time": 10010, "pitch": 60, "duration": 55, "velocity": 100}, {"time": 10010, "pitch": 67, "duration": 55, "velocity": 100}, {"time": 10065, "pitch": 67, "duration": 55, "velocity": 100}, {"time": 10120, "pitch": 41, "duration": 275, "velocity": 100}, {"time": 10120, "pitch": 53, "duration": 165, "velocity": 100}, {"time": 10120, "pitch": 60, "duration": 220, "velocity": 100}, {"time": 10120, "pitch": 62, "duration": 330, "velocity": 100}, {"time": 10120, "pitch": 65, "duration": 220, "velocity": 100}, {"time": 10230, "pitch": 48, "duration": 165, "velocity": 100}, {"time": 10340, "pitch": 57, "duration": 110, "velocity": 100}, {"time": 10340, "pitch": 62, "duration": 220, "velocity": 100}, {"time": 10450, "pitch": 53, "duration": 55, "velocity": 100}]}]}