{"metadata": {"schema_version": "0.1", "title": "None", "source_filename": "20211209_051553.mid", "source_format": "midi"}, "resolution": 220, "tempos": [{"time": 0, "qpm": 120.0}], "time_signatures": [{"time": 0, "numerator": 4, "denominator": 4}], "tracks": [{"program": 0, "is_drum": false, "name": "Piano", "notes": [{"time": 0, "pitch": 55, "duration": 110, "velocity": 100}, {"time": 0, "pitch": 62, "duration": 110, "velocity": 100}, {"time": 0, "pitch": 79, "duration": 220, "velocity": 100}]}, {"program": 24, "is_drum": false, "name": "Guitar", "notes": [{"time": 110, "pitch": 50, "duration": 110, "velocity": 100}, {"time": 110, "pitch": 79, "duration": 55, "velocity": 100}, {"time": 165, "pitch": 81, "duration": 55, "velocity": 100}, {"time": 220, "pitch": 55, "duration": 55, "velocity": 100}, {"time": 220, "pitch": 59, "duration": 110, "velocity": 100}, {"time": 220, "pitch": 74, "duration": 110, "velocity": 100}, {"time": 220, "pitch": 79, "duration": 165, "velocity": 100}, {"time": 275, "pitch": 83, "duration": 55, "velocity": 100}, {"time": 330, "pitch": 55, "duration": 55, "velocity": 100}, {"time": 330, "pitch": 79, "duration": 110, "velocity": 100}, {"time": 440, "pitch": 50, "duration": 220, "velocity": 100}, {"time": 440, "pitch": 55, "duration": 220, "velocity": 100}, {"time": 440, "pitch": 71, "duration": 110, "velocity": 100}, {"time": 440, "pitch": 83, "duration": 440, "velocity": 100}, {"time": 550, "pitch": 79, "duration": 110, "velocity": 100}, {"time": 660, "pitch": 59, "duration": 110, "velocity": 100}, {"time": 660, "pitch": 74, "duration": 110, "velocity": 100}, {"time": 770, "pitch": 79, "duration": 110, "velocity": 100}, {"time": 880, "pitch": 57, "duration": 220, "velocity": 100}, {"time": 880, "pitch": 60, "duration": 220, "velocity": 100}, {"time": 880, "pitch": 76, "duration": 110, "velocity": 100}, {"time": 990, "pitch": 74, "duration": 110, "velocity": 100}, {"time": 1100, "pitch": 64, "duration": 110, "velocity": 100}, {"time": 1100, "pitch": 72, "duration": 110, "velocity": 100}, {"time": 1210, "pitch": 60, "duration": 110, "velocity": 100}, {"time": 1210, "pitch": 74, "duration": 110, "velocity": 100}, {"time": 1320, "pitch": 62, "duration": 220, "velocity": 100}, {"time": 1320, "pitch": 76, "duration": 110, "velocity": 100}, {"time": 1430, "pitch": 54, "duration": 165, "velocity": 100}, {"time": 1430, "pitch": 74, "duration": 110, "velocity": 100}, {"time": 1540, "pitch": 57, "duration": 55, "velocity": 100}, {"time": 1540, "pitch": 62, "duration": 110, "velocity": 100}, {"time": 1540, "pitch": 76, "duration": 110, "velocity": 100}, {"time": 1650, "pitch": 78, "duration": 110, "velocity": 100}, {"time": 1760, "pitch": 55, "duration": 165, "velocity": 100}, {"time": 1760, "pitch": 59, "duration": 220, "velocity": 100}, {"time": 1760, "pitch": 79, "duration": 220, "velocity": 100}, {"time": 1980, "pitch": 62, "duration": 110, "velocity": 100}, {"time": 1980, "pitch": 74, "duration": 110, "velocity": 100}, {"time": 2090, "pitch": 59, "duration": 55, "velocity": 100}, {"time": 2090, "pitch": 79, "duration": 110, "velocity": 100}, {"time": 2200, "pitch": 62, "duration": 165, "velocity": 100}, {"time": 2200, "pitch": 71, "duration": 110, "velocity": 100}, {"time": 2310, "pitch": 79, "duration": 110, "velocity": 100}, {"time": 2420, "pitch": 55, "duration": 55, "velocity": 100}, {"time": 2420, "pitch": 59, "duration": 55, "velocity": 100}, {"time": 2420, "pitch": 74, "duration": 110, "velocity": 100}, {"time": 2530, "pitch": 79, "duration": 110, "velocity": 100}, {"time": 2640, "pitch": 54, "duration": 220, "velocity": 100}, {"time": 2640, "pitch": 57, "duration": 165, "velocity": 100}, {"time": 2640, "pitch": 72, "duration": 110, "velocity": 100}, {"time": 2750, "pitch": 76, "duration": 110, "velocity": 100}, {"time": 2860, "pitch": 74, "duration": 110, "velocity": 100}, {"time": 2915, "pitch": 57, "duration": 55, "velocity": 100}, {"time": 2970, "pitch": 59, "duration": 55, "velocity": 100}, {"time": 2970, "pitch": 72, "duration": 110, "velocity": 100}, {"time": 3080, "pitch": 55, "duration": 165, "velocity": 100}, {"time": 3080, "pitch": 59, "duration": 55, "velocity": 100}, {"time": 3080, "pitch": 62, "duration": 110, "velocity": 100}, {"time": 3080, "pitch": 71, "duration": 110, "velocity": 100}, {"time": 3190, "pitch": 67, "duration": 110, "velocity": 100}, {"time": 3300, "pitch": 55, "duration": 110, "velocity": 100}, {"time": 3300, "pitch": 62, "duration": 110, "velocity": 100}, {"time": 3300, "pitch": 67, "duration": 110, "velocity": 100}, {"time": 3410, "pitch": 55, "duration": 55, "velocity": 100}, {"time": 3410, "pitch": 74, "duration": 110, "velocity": 100}, {"time": 3520, "pitch": 55, "duration": 110, "velocity": 100}, {"time": 3520, "pitch": 62, "duration": 110, "velocity": 100}, {"time": 3520, "pitch": 79, "duration": 220, "velocity": 100}, {"time": 3740, "pitch": 50, "duration": 55, "velocity": 100}, {"time": 3740, "pitch": 55, "duration": 55, "velocity": 100}, {"time": 3740, "pitch": 59, "duration": 110, "velocity": 100}, {"time": 3740, "pitch": 74, "duration": 110, "velocity": 100}, {"time": 3850, "pitch": 55, "duration": 55, "velocity": 100}, {"time": 3850, "pitch": 79, "duration": 110, "velocity": 100}, {"time": 3960, "pitch": 50, "duration": 220, "velocity": 100}, {"time": 3960, "pitch": 55, "duration": 440, "velocity": 100}, {"time": 3960, "pitch": 71, "duration": 110, "velocity": 100}, {"time": 4070, "pitch": 79, "duration": 110, "velocity": 100}, {"time": 4070, "pitch": 81, "duration": 55, "velocity": 100}, {"time": 4125, "pitch": 83, "duration": 55, "velocity": 100}, {"time": 4180, "pitch": 59, "duration": 110, "velocity": 100}, {"time": 4180, "pitch": 74, "duration": 110, "velocity": 100}, {"time": 4180, "pitch": 79, "duration": 55, "velocity": 100}, {"time": 4235, "pitch": 83, "duration": 55, "velocity": 100}, {"time": 4290, "pitch": 79, "duration": 110, "velocity": 100}, {"time": 4400, "pitch": 57, "duration": 220, "velocity": 100}, {"time": 4400, "pitch": 60, "duration": 220, "velocity": 100}, {"time": 4400, "pitch": 76, "duration": 110, "velocity": 100}, {"time": 4400, "pitch": 84, "duration": 440, "velocity": 100}, {"time": 4510, "pitch": 52, "duration": 220, "velocity": 100}, {"time": 4510, "pitch": 74, "duration": 110, "velocity": 100}, {"time": 4620, "pitch": 64, "duration": 110, "velocity": 100}, {"time": 4620, "pitch": 69, "duration": 110, "velocity": 100}, {"time": 4620, "pitch": 72, "duration": 110, "velocity": 100}, {"time": 4730, "pitch": 60, "duration": 110, "velocity": 100}, {"time": 4730, "pitch": 64, "duration": 110, "velocity": 100}, {"time": 4730, "pitch": 74, "duration": 110, "velocity": 100}, {"time": 4840, "pitch": 62, "duration": 330, "velocity": 100}, {"time": 4840, "pitch": 76, "duration": 110, "velocity": 100}, {"time": 4950, "pitch": 54, "duration": 165, "velocity": 100}, {"time": 4950, "pitch": 74, "duration": 110, "velocity": 100}, {"time": 5060, "pitch": 57, "duration": 165, "velocity": 100}, {"time": 5060, "pitch": 62, "duration": 220, "velocity": 100}, {"time": 5060, "pitch": 76, "duration": 110, "velocity": 100}, {"time": 5170, "pitch": 78, "duration": 110, "velocity": 100}, {"time": 5280, "pitch": 55, "duration": 165, "velocity": 100}, {"time": 5280, "pitch": 59, "duration": 220, "velocity": 100}, {"time": 5280, "pitch": 62, "duration": 220, "velocity": 100}, {"time": 5280, "pitch": 79, "duration": 220, "velocity": 100}, {"time": 5500, "pitch": 59, "duration": 110, "velocity": 100}, {"time": 5500, "pitch": 62, "duration": 110, "velocity": 100}, {"time": 5500, "pitch": 74, "duration": 110, "velocity": 100}, {"time": 5610, "pitch": 55, "duration": 110, "velocity": 100}, {"time": 5610, "pitch": 59, "duration": 55, "velocity": 100}, {"time": 5610, "pitch": 79, "duration": 110, "velocity": 100}, {"time": 5720, "pitch": 62, "duration": 440, "velocity": 100}, {"time": 5720, "pitch": 71, "duration": 110, "velocity": 100}, {"time": 5830, "pitch": 79, "duration": 110, "velocity": 100}, {"time": 5940, "pitch": 57, "duration": 55, "velocity": 100}, {"time": 5940, "pitch": 59, "duration": 55, "velocity": 100}, {"time": 5940, "pitch": 74, "duration": 110, "velocity": 100}, {"time": 6050, "pitch": 79, "duration": 110, "velocity": 100}, {"time": 6160, "pitch": 54, "duration": 220, "velocity": 100}, {"time": 6160, "pitch": 57, "duration": 165, "velocity": 100}, {"time": 6160, "pitch": 72, "duration": 110, "velocity": 100}, {"time": 6270, "pitch": 57, "duration": 110, "velocity": 100}, {"time": 6270, "pitch": 76, "duration": 110, "velocity": 100}, {"time": 6380, "pitch": 57, "duration": 110, "velocity": 100}, {"time": 6380, "pitch": 62, "duration": 55, "velocity": 100}, {"time": 6380, "pitch": 74, "duration": 110, "velocity": 100}, {"time": 6435, "pitch": 64, "duration": 55, "velocity": 100}, {"time": 6490, "pitch": 62, "duration": 55, "velocity": 100}, {"time": 6490, "pitch": 67, "duration": 55, "velocity": 100}, {"time": 6490, "pitch": 72, "duration": 110, "velocity": 100}, {"time": 6545, "pitch": 66, "duration": 55, "velocity": 100}, {"time": 6600, "pitch": 55, "duration": 165, "velocity": 100}, {"time": 6600, "pitch": 59, "duration": 220, "velocity": 100}, {"time": 6600, "pitch": 62, "duration": 330, "velocity": 100}, {"time": 6600, "pitch": 64, "duration": 220, "velocity": 100}, {"time": 6600, "pitch": 71, "duration": 110, "velocity": 100}, {"time": 6710, "pitch": 67, "duration": 110, "velocity": 100}, {"time": 6820, "pitch": 55, "duration": 110, "velocity": 100}, {"time": 6820, "pitch": 62, "duration": 220, "velocity": 100}, {"time": 6820, "pitch": 67, "duration": 110, "velocity": 100}, {"time": 6930, "pitch": 55, "duration": 55, "velocity": 100}, {"time": 6930, "pitch": 74, "duration": 110, "velocity": 100}, {"time": 7040, "pitch": 62, "duration": 110, "velocity": 100}, {"time": 7040, "pitch": 67, "duration": 165, "velocity": 100}, {"time": 7040, "pitch": 71, "duration": 110, "velocity": 100}, {"time": 7150, "pitch": 74, "duration": 110, "velocity": 100}, {"time": 7205, "pitch": 62, "duration": 110, "velocity": 100}, {"time": 7205, "pitch": 67, "duration": 110, "velocity": 100}, {"time": 7260, "pitch": 67, "duration": 110, "velocity": 100}, {"time": 7315, "pitch": 55, "duration": 110, "velocity": 100}, {"time": 7370, "pitch": 62, "duration": 55, "velocity": 100}, {"time": 7370, "pitch": 74, "duration": 110, "velocity": 100}, {"time": 7425, "pitch": 67, "duration": 55, "velocity": 100}, {"time": 7480, "pitch": 62, "duration": 165, "velocity": 100}, {"time": 7480, "pitch": 67, "duration": 165, "velocity": 100}, {"time": 7480, "pitch": 71, "duration": 110, "velocity": 100}, {"time": 7590, "pitch": 74, "duration": 110, "velocity": 100}, {"time": 7645, "pitch": 62, "duration": 110, "velocity": 100}, {"time": 7645, "pitch": 67, "duration": 110, "velocity": 100}, {"time": 7700, "pitch": 67, "duration": 110, "velocity": 100}, {"time": 7755, "pitch": 55, "duration": 55, "velocity": 100}, {"time": 7810, "pitch": 62, "duration": 55, "velocity": 100}, {"time": 7810, "pitch": 69, "duration": 110, "velocity": 100}, {"time": 7810, "pitch": 74, "duration": 110, "velocity": 100}, {"time": 7920, "pitch": 62, "duration": 165, "velocity": 100}, {"time": 7920, "pitch": 69, "duration": 275, "velocity": 100}, {"time": 7920, "pitch": 72, "duration": 110, "velocity": 100}, {"time": 8030, "pitch": 74, "duration": 110, "velocity": 100}, {"time": 8085, "pitch": 57, "duration": 165, "velocity": 100}, {"time": 8140, "pitch": 69, "duration": 110, "velocity": 100}, {"time": 8195, "pitch": 66, "duration": 55, "velocity": 100}, {"time": 8250, "pitch": 69, "duration": 110, "velocity": 100}, {"time": 8250, "pitch": 74, "duration": 110, "velocity": 100}, {"time": 8360, "pitch": 57, "duration": 165, "velocity": 100}, {"time": 8360, "pitch": 69, "duration": 330, "velocity": 100}, {"time": 8360, "pitch": 72, "duration": 110, "velocity": 100}, {"time": 8470, "pitch": 74, "duration": 110, "velocity": 100}, {"time": 8525, "pitch": 57, "duration": 165, "velocity": 100}, {"time": 8580, "pitch": 69, "duration": 110, "velocity": 100}, {"time": 8635, "pitch": 62, "duration": 55, "velocity": 100}, {"time": 8690, "pitch": 69, "duration": 110, "velocity": 100}, {"time": 8690, "pitch": 74, "duration": 110, "velocity": 100}, {"time": 8800, "pitch": 67, "duration": 165, "velocity": 100}, {"time": 8800, "pitch": 71, "duration": 110, "velocity": 100}, {"time": 8910, "pitch": 55, "duration": 330, "velocity": 100}, {"time": 8910, "pitch": 74, "duration": 110, "velocity": 100}, {"time": 8965, "pitch": 59, "duration": 55, "velocity": 100}, {"time": 9020, "pitch": 62, "duration": 55, "velocity": 100}, {"time": 9020, "pitch": 67, "duration": 110, "velocity": 100}, {"time": 9075, "pitch": 67, "duration": 55, "velocity": 100}, {"time": 9130, "pitch": 69, "duration": 110, "velocity": 100}, {"time": 9130, "pitch": 74, "duration": 110, "velocity": 100}, {"time": 9240, "pitch": 67, "duration": 165, "velocity": 100}, {"time": 9240, "pitch": 71, "duration": 110, "velocity": 100}, {"time": 9350, "pitch": 59, "duration": 55, "velocity": 100}, {"time": 9350, "pitch": 74, "duration": 110, "velocity": 100}, {"time": 9405, "pitch": 62, "duration": 165, "velocity": 100}, {"time": 9405, "pitch": 71, "duration": 165, "velocity": 100}, {"time": 9460, "pitch": 67, "duration": 110, "velocity": 100}, {"time": 9515, "pitch": 55, "duration": 55, "velocity": 100}, {"time": 9570, "pitch": 67, "duration": 110, "velocity": 100}, {"time": 9570, "pitch": 74, "duration": 110, "velocity": 100}, {"time": 9680, "pitch": 64, "duration": 165, "velocity": 100}, {"time": 9680, "pitch": 69, "duration": 165, "velocity": 100}, {"time": 9680, "pitch": 76, "duration": 110, "velocity": 100}, {"time": 9790, "pitch": 74, "duration": 110, "velocity": 100}, {"time": 9845, "pitch": 60, "duration": 110, "velocity": 100}, {"time": 9845, "pitch": 69, "duration": 110, "velocity": 100}, {"time": 9900, "pitch": 57, "duration": 55, "velocity": 100}, {"time": 9900, "pitch": 72, "duration": 110, "velocity": 100}, {"time": 9955, "pitch": 60, "duration": 110, "velocity": 100}, {"time": 9955, "pitch": 69, "duration": 165, "velocity": 100}, {"time": 10010, "pitch": 71, "duration": 110, "velocity": 100}, {"time": 10065, "pitch": 57, "duration": 385, "velocity": 100}, {"time": 10120, "pitch": 62, "duration": 220, "velocity": 100}, {"time": 10120, "pitch": 66, "duration": 220, "velocity": 100}, {"time": 10120, "pitch": 69, "duration": 110, "velocity": 100}, {"time": 10230, "pitch": 66, "duration": 110, "velocity": 100}, {"time": 10340, "pitch": 54, "duration": 165, "velocity": 100}, {"time": 10340, "pitch": 62, "duration": 110, "velocity": 100}, {"time": 10340, "pitch": 74, "duration": 55, "velocity": 100}, {"time": 10395, "pitch": 62, "duration": 55, "velocity": 100}, {"time": 10395, "pitch": 72, "duration": 55, "velocity": 100}, {"time": 10450, "pitch": 66, "duration": 110, "velocity": 100}, {"time": 10450, "pitch": 69, "duration": 55, "velocity": 100}, {"time": 10450, "pitch": 72, "duration": 55, "velocity": 100}, {"time": 10505, "pitch": 74, "duration": 55, "velocity": 100}, {"time": 10560, "pitch": 62, "duration": 165, "velocity": 100}, {"time": 10560, "pitch": 67, "duration": 165, "velocity": 100}, {"time": 10560, "pitch": 71, "duration": 110, "velocity": 100}, {"time": 10560, "pitch": 74, "duration": 110, "velocity": 100}, {"time": 10670, "pitch": 74, "duration": 110, "velocity": 100}, {"time": 10725, "pitch": 62, "duration": 110, "velocity": 100}, {"time": 10725, "pitch": 67, "duration": 110, "velocity": 100}, {"time": 10780, "pitch": 67, "duration": 110, "velocity": 100}, {"time": 10835, "pitch": 55, "duration": 110, "velocity": 100}, {"time": 10890, "pitch": 62, "duration": 55, "velocity": 100}, {"time": 10890, "pitch": 74, "duration": 110, "velocity": 100}, {"time": 10945, "pitch": 67, "duration": 55, "velocity": 100}, {"time": 11000, "pitch": 62, "duration": 165, "velocity": 100}, {"time": 11000, "pitch": 67, "duration": 165, "velocity": 100}, {"time": 11000, "pitch": 71, "duration": 110, "velocity": 100}, {"time": 11110, "pitch": 74, "duration": 110, "velocity": 100}, {"time": 11165, "pitch": 62, "duration": 110, "velocity": 100}, {"time": 11165, "pitch": 67, "duration": 110, "velocity": 100}, {"time": 11220, "pitch": 67, "duration": 110, "velocity": 100}, {"time": 11275, "pitch": 55, "duration": 55, "velocity": 100}, {"time": 11330, "pitch": 62, "duration": 55, "velocity": 100}, {"time": 11330, "pitch": 69, "duration": 110, "velocity": 100}, {"time": 11330, "pitch": 72, "duration": 55, "velocity": 100}, {"time": 11330, "pitch": 74, "duration": 110, "velocity": 100}, {"time": 11440, "pitch": 64, "duration": 220, "velocity": 100}, {"time": 11440, "pitch": 67, "duration": 110, "velocity": 100}, {"time": 11440, "pitch": 72, "duration": 330, "velocity": 100}, {"time": 11550, "pitch": 76, "duration": 110, "velocity": 100}, {"time": 11605, "pitch": 60, "duration": 165, "velocity": 100}, {"time": 11660, "pitch": 72, "duration": 110, "velocity": 100}, {"time": 11715, "pitch": 67, "duration": 55, "velocity": 100}, {"time": 11770, "pitch": 72, "duration": 110, "velocity": 100}, {"time": 11770, "pitch": 76, "duration": 110, "velocity": 100}, {"time": 11880, "pitch": 60, "duration": 220, "velocity": 100}, {"time": 11880, "pitch": 67, "duration": 110, "velocity": 100}, {"time": 11880, "pitch": 67, "duration": 275, "velocity": 100}, {"time": 11990, "pitch": 76, "duration": 110, "velocity": 100}, {"time": 12045, "pitch": 55, "duration": 165, "velocity": 100}, {"time": 12100, "pitch": 72, "duration": 110, "velocity": 100}, {"time": 12155, "pitch": 60, "duration": 55, "velocity": 100}, {"time": 12210, "pitch": 69, "duration": 110, "velocity": 100}, {"time": 12210, "pitch": 76, "duration": 110, "velocity": 100}, {"time": 12320, "pitch": 69, "duration": 110, "velocity": 100}, {"time": 12320, "pitch": 74, "duration": 110, "velocity": 100}, {"time": 12320, "pitch": 74, "duration": 110, "velocity": 100}, {"time": 12430, "pitch": 69, "duration": 55, "velocity": 100}, {"time": 12430, "pitch": 76, "duration": 110, "velocity": 100}, {"time": 12485, "pitch": 62, "duration": 55, "velocity": 100}, {"time": 12485, "pitch": 74, "duration": 55, "velocity": 100}, {"time": 12540, "pitch": 62, "duration": 55, "velocity": 100}, {"time": 12540, "pitch": 66, "duration": 110, "velocity": 100}, {"time": 12595, "pitch": 66, "duration": 55, "velocity": 100}, {"time": 12650, "pitch": 69, "duration": 110, "velocity": 100}, {"time": 12650, "pitch": 79, "duration": 110, "velocity": 100}, {"time": 12760, "pitch": 69, "duration": 220, "velocity": 100}, {"time": 12760, "pitch": 81, "duration": 110, "velocity": 100}, {"time": 12870, "pitch": 57, "duration": 55, "velocity": 100}, {"time": 12870, "pitch": 84, "duration": 110, "velocity": 100}, {"time": 12925, "pitch": 66, "duration": 165, "velocity": 100}, {"time": 12925, "pitch": 69, "duration": 165, "velocity": 100}, {"time": 12980, "pitch": 83, "duration": 110, "velocity": 100}, {"time": 13035, "pitch": 57, "duration": 55, "velocity": 100}, {"time": 13090, "pitch": 69, "duration": 110, "velocity": 100}, {"time": 13090, "pitch": 81, "duration": 110, "velocity": 100}, {"time": 13200, "pitch": 62, "duration": 165, "velocity": 100}, {"time": 13200, "pitch": 69, "duration": 165, "velocity": 100}, {"time": 13200, "pitch": 79, "duration": 440, "velocity": 100}, {"time": 13310, "pitch": 69, "duration": 110, "velocity": 100}, {"time": 13365, "pitch": 62, "duration": 110, "velocity": 100}, {"time": 13365, "pitch": 67, "duration": 110, "velocity": 100}, {"time": 13365, "pitch": 71, "duration": 110, "velocity": 100}, {"time": 13420, "pitch": 55, "duration": 110, "velocity": 100}, {"time": 13475, "pitch": 62, "duration": 110, "velocity": 100}, {"time": 13475, "pitch": 67, "duration": 165, "velocity": 100}, {"time": 13585, "pitch": 55, "duration": 220, "velocity": 100}, {"time": 13640, "pitch": 62, "duration": 165, "velocity": 100}, {"time": 13640, "pitch": 67, "duration": 220, "velocity": 100}, {"time": 13640, "pitch": 79, "duration": 220, "velocity": 100}, {"time": 13750, "pitch": 62, "duration": 55, "velocity": 100}, {"time": 13860, "pitch": 55, "duration": 165, "velocity": 100}, {"time": 13860, "pitch": 67, "duration": 55, "velocity": 100}, {"time": 13860, "pitch": 74, "duration": 220, "velocity": 100}, {"time": 13915, "pitch": 62, "duration": 55, "velocity": 100}, {"time": 13970, "pitch": 69, "duration": 110, "velocity": 100}, {"time": 14080, "pitch": 62, "duration": 165, "velocity": 100}, {"time": 14080, "pitch": 67, "duration": 165, "velocity": 100}, {"time": 14080, "pitch": 71, "duration": 110, "velocity": 100}, {"time": 14190, "pitch": 74, "duration": 110, "velocity": 100}, {"time": 14245, "pitch": 62, "duration": 110, "velocity": 100}, {"time": 14245, "pitch": 67, "duration": 110, "velocity": 100}, {"time": 14300, "pitch": 67, "duration": 110, "velocity": 100}, {"time": 14355, "pitch": 55, "duration": 110, "velocity": 100}, {"time": 14410, "pitch": 62, "duration": 55, "velocity": 100}, {"time": 14410, "pitch": 74, "duration": 110, "velocity": 100}, {"time": 14465, "pitch": 67, "duration": 55, "velocity": 100}, {"time": 14520, "pitch": 62, "duration": 165, "velocity": 100}, {"time": 14520, "pitch": 69, "duration": 165, "velocity": 100}, {"time": 14520, "pitch": 71, "duration": 110, "velocity": 100}, {"time": 14630, "pitch": 74, "duration": 110, "velocity": 100}, {"time": 14685, "pitch": 62, "duration": 110, "velocity": 100}, {"time": 14685, "pitch": 67, "duration": 110, "velocity": 100}, {"time": 14740, "pitch": 67, "duration": 110, "velocity": 100}, {"time": 14795, "pitch": 55, "duration": 55, "velocity": 100}, {"time": 14850, "pitch": 62, "duration": 55, "velocity": 100}, {"time": 14850, "pitch": 69, "duration": 110, "velocity": 100}, {"time": 14850, "pitch": 74, "duration": 110, "velocity": 100}, {"time": 14960, "pitch": 62, "duration": 165, "velocity": 100}, {"time": 14960, "pitch": 69, "duration": 330, "velocity": 100}, {"time": 14960, "pitch": 72, "duration": 110, "velocity": 100}, {"time": 15070, "pitch": 74, "duration": 110, "velocity": 100}, {"time": 15125, "pitch": 57, "duration": 165, "velocity": 100}, {"time": 15180, "pitch": 69, "duration": 110, "velocity": 100}, {"time": 15235, "pitch": 66, "duration": 55, "velocity": 100}, {"time": 15290, "pitch": 69, "duration": 110, "velocity": 100}, {"time": 15290, "pitch": 74, "duration": 110, "velocity": 100}, {"time": 15400, "pitch": 57, "duration": 165, "velocity": 100}, {"time": 15400, "pitch": 69, "duration": 275, "velocity": 100}, {"time": 15400, "pitch": 72, "duration": 110, "velocity": 100}, {"time": 15510, "pitch": 74, "duration": 110, "velocity": 100}, {"time": 15565, "pitch": 57, "duration": 165, "velocity": 100}, {"time": 15620, "pitch": 69, "duration": 110, "velocity": 100}, {"time": 15675, "pitch": 62, "duration": 55, "velocity": 100}, {"time": 15730, "pitch": 69, "duration": 110, "velocity": 100}, {"time": 15730, "pitch": 74, "duration": 110, "velocity": 100}, {"time": 15840, "pitch": 67, "duration": 165, "velocity": 100}, {"time": 15840, "pitch": 71, "duration": 110, "velocity": 100}, {"time": 15950, "pitch": 74, "duration": 110, "velocity": 100}, {"time": 16005, "pitch": 59, "duration": 55, "velocity": 100}, {"time": 16060, "pitch": 62, "duration": 55, "velocity": 100}, {"time": 16060, "pitch": 67, "duration": 110, "velocity": 100}, {"time": 16115, "pitch": 67, "duration": 55, "velocity": 100}, {"time": 16170, "pitch": 69, "duration": 110, "velocity": 100}, {"time": 16170, "pitch": 74, "duration": 110, "velocity": 100}, {"time": 16280, "pitch": 67, "duration": 165, "velocity": 100}, {"time": 16280, "pitch": 71, "duration": 110, "velocity": 100}, {"time": 16390, "pitch": 59, "duration": 55, "velocity": 100}, {"time": 16390, "pitch": 74, "duration": 110, "velocity": 100}, {"time": 16445, "pitch": 67, "duration": 165, "velocity": 100}, {"time": 16445, "pitch": 71, "duration": 110, "velocity": 100}, {"time": 16500, "pitch": 67, "duration": 110, "velocity": 100}, {"time": 16610, "pitch": 69, "duration": 110, "velocity": 100}, {"time": 16610, "pitch": 74, "duration": 110, "velocity": 100}, {"time": 16720, "pitch": 64, "duration": 165, "velocity": 100}, {"time": 16720, "pitch": 69, "duration": 165, "velocity": 100}, {"time": 16720, "pitch": 76, "duration": 110, "velocity": 100}, {"time": 16830, "pitch": 74, "duration": 110, "velocity": 100}, {"time": 16885, "pitch": 60, "duration": 110, "velocity": 100}, {"time": 16885, "pitch": 69, "duration": 110, "velocity": 100}, {"time": 16940, "pitch": 57, "duration": 55, "velocity": 100}, {"time": 16940, "pitch": 72, "duration": 110, "velocity": 100}, {"time": 16995, "pitch": 60, "duration": 110, "velocity": 100}, {"time": 16995, "pitch": 69, "duration": 165, "velocity": 100}, {"time": 17050, "pitch": 71, "duration": 110, "velocity": 100}, {"time": 17105, "pitch": 57, "duration": 220, "velocity": 100}, {"time": 17160, "pitch": 62, "duration": 220, "velocity": 100}, {"time": 17160, "pitch": 66, "duration": 330, "velocity": 100}, {"time": 17160, "pitch": 69, "duration": 110, "velocity": 100}, {"time": 17270, "pitch": 66, "duration": 110, "velocity": 100}, {"time": 17380, "pitch": 62, "duration": 110, "velocity": 100}, {"time": 17435, "pitch": 62, "duration": 55, "velocity": 100}, {"time": 17490, "pitch": 66, "duration": 110, "velocity": 100}, {"time": 17490, "pitch": 69, "duration": 55, "velocity": 100}, {"time": 17600, "pitch": 62, "duration": 165, "velocity": 100}, {"time": 17600, "pitch": 67, "duration": 165, "velocity": 100}, {"time": 17600, "pitch": 71, "duration": 110, "velocity": 100}, {"time": 17710, "pitch": 74, "duration": 110, "velocity": 100}, {"time": 17765, "pitch": 62, "duration": 110, "velocity": 100}, {"time": 17765, "pitch": 67, "duration": 110, "velocity": 100}, {"time": 17820, "pitch": 67, "duration": 110, "velocity": 100}, {"time": 17930, "pitch": 62, "duration": 55, "velocity": 100}, {"time": 17930, "pitch": 74, "duration": 110, "velocity": 100}, {"time": 17985, "pitch": 67, "duration": 55, "velocity": 100}, {"time": 18040, "pitch": 62, "duration": 165, "velocity": 100}, {"time": 18040, "pitch": 67, "duration": 165, "velocity": 100}, {"time": 18040, "pitch": 71, "duration": 110, "velocity": 100}, {"time": 18150, "pitch": 74, "duration": 110, "velocity": 100}, {"time": 18205, "pitch": 62, "duration": 110, "velocity": 100}, {"time": 18205, "pitch": 67, "duration": 110, "velocity": 100}, {"time": 18260, "pitch": 67, "duration": 110, "velocity": 100}, {"time": 18370, "pitch": 62, "duration": 55, "velocity": 100}, {"time": 18370, "pitch": 69, "duration": 110, "velocity": 100}, {"time": 18370, "pitch": 74, "duration": 110, "velocity": 100}, {"time": 18480, "pitch": 60, "duration": 165, "velocity": 100}, {"time": 18480, "pitch": 67, "duration": 110, "velocity": 100}, {"time": 18480, "pitch": 72, "duration": 330, "velocity": 100}, {"time": 18590, "pitch": 76, "duration": 110, "velocity": 100}, {"time": 18645, "pitch": 60, "duration": 165, "velocity": 100}, {"time": 18700, "pitch": 72, "duration": 110, "velocity": 100}, {"time": 18755, "pitch": 67, "duration": 55, "velocity": 100}, {"time": 18810, "pitch": 72, "duration": 110, "velocity": 100}, {"time": 18810, "pitch": 76, "duration": 110, "velocity": 100}, {"time": 18920, "pitch": 60, "duration": 220, "velocity": 100}, {"time": 18920, "pitch": 67, "duration": 110, "velocity": 100}, {"time": 18920, "pitch": 67, "duration": 330, "velocity": 100}, {"time": 19030, "pitch": 76, "duration": 110, "velocity": 100}, {"time": 19140, "pitch": 72, "duration": 110, "velocity": 100}, {"time": 19195, "pitch": 60, "duration": 55, "velocity": 100}, {"time": 19250, "pitch": 69, "duration": 110, "velocity": 100}, {"time": 19250, "pitch": 76, "duration": 110, "velocity": 100}, {"time": 19360, "pitch": 66, "duration": 165, "velocity": 100}, {"time": 19360, "pitch": 74, "duration": 110, "velocity": 100}, {"time": 19470, "pitch": 76, "duration": 110, "velocity": 100}, {"time": 19525, "pitch": 57, "duration": 55, "velocity": 100}, {"time": 19580, "pitch": 62, "duration": 55, "velocity": 100}, {"time": 19580, "pitch": 66, "duration": 110, "velocity": 100}, {"time": 19635, "pitch": 66, "duration": 55, "velocity": 100}, {"time": 19690, "pitch": 69, "duration": 110, "velocity": 100}, {"time": 19690, "pitch": 79, "duration": 110, "velocity": 100}, {"time": 19800, "pitch": 69, "duration": 165, "velocity": 100}, {"time": 19800, "pitch": 81, "duration": 110, "velocity": 100}, {"time": 19910, "pitch": 57, "duration": 55, "velocity": 100}, {"time": 19910, "pitch": 84, "duration": 110, "velocity": 100}, {"time": 19965, "pitch": 66, "duration": 55, "velocity": 100}, {"time": 19965, "pitch": 69, "duration": 110, "velocity": 100}, {"time": 20020, "pitch": 83, "duration": 110, "velocity": 100}, {"time": 20075, "pitch": 57, "duration": 55, "velocity": 100}, {"time": 20130, "pitch": 69, "duration": 110, "velocity": 100}, {"time": 20130, "pitch": 81, "duration": 110, "velocity": 100}, {"time": 20240, "pitch": 62, "duration": 165, "velocity": 100}, {"time": 20240, "pitch": 69, "duration": 165, "velocity": 100}, {"time": 20240, "pitch": 79, "duration": 220, "velocity": 100}, {"time": 20405, "pitch": 62, "duration": 110, "velocity": 100}, {"time": 20405, "pitch": 71, "duration": 110, "velocity": 100}, {"time": 20460, "pitch": 79, "duration": 220, "velocity": 100}, {"time": 20515, "pitch": 62, "duration": 110, "velocity": 100}, {"time": 20515, "pitch": 67, "duration": 110, "velocity": 100}, {"time": 20680, "pitch": 62, "duration": 220, "velocity": 100}, {"time": 20680, "pitch": 67, "duration": 220, "velocity": 100}, {"time": 20680, "pitch": 79, "duration": 220, "velocity": 100}, {"time": 20900, "pitch": 79, "duration": 220, "velocity": 100}, {"time": 20955, "pitch": 62, "duration": 55, "velocity": 100}, {"time": 21010, "pitch": 69, "duration": 55, "velocity": 100}]}, {"program": 32, "is_drum": false, "name": "Bass", "notes": [{"time": 0, "pitch": 43, "duration": 220, "velocity": 100}, {"time": 220, "pitch": 50, "duration": 55, "velocity": 100}, {"time": 440, "pitch": 43, "duration": 330, "velocity": 100}, {"time": 550, "pitch": 47, "duration": 220, "velocity": 100}, {"time": 880, "pitch": 45, "duration": 330, "velocity": 100}, {"time": 990, "pitch": 52, "duration": 220, "velocity": 100}, {"time": 1320, "pitch": 50, "duration": 275, "velocity": 100}, {"time": 1760, "pitch": 43, "duration": 275, "velocity": 100}, {"time": 1870, "pitch": 50, "duration": 165, "velocity": 100}, {"time": 2200, "pitch": 43, "duration": 275, "velocity": 100}, {"time": 2310, "pitch": 50, "duration": 165, "velocity": 100}, {"time": 2640, "pitch": 38, "duration": 330, "velocity": 100}, {"time": 2750, "pitch": 45, "duration": 220, "velocity": 100}, {"time": 2860, "pitch": 50, "duration": 110, "velocity": 100}, {"time": 3080, "pitch": 43, "duration": 330, "velocity": 100}, {"time": 3190, "pitch": 50, "duration": 165, "velocity": 100}, {"time": 3520, "pitch": 43, "duration": 220, "velocity": 100}, {"time": 3630, "pitch": 50, "duration": 110, "velocity": 100}, {"time": 3960, "pitch": 43, "duration": 330, "velocity": 100}, {"time": 4070, "pitch": 47, "duration": 220, "velocity": 100}, {"time": 4400, "pitch": 45, "duration": 330, "velocity": 100}, {"time": 4840, "pitch": 50, "duration": 275, "velocity": 100}, {"time": 5280, "pitch": 43, "duration": 275, "velocity": 100}, {"time": 5390, "pitch": 50, "duration": 165, "velocity": 100}, {"time": 5720, "pitch": 43, "duration": 275, "velocity": 100}, {"time": 5830, "pitch": 50, "duration": 165, "velocity": 100}, {"time": 6160, "pitch": 38, "duration": 330, "velocity": 100}, {"time": 6270, "pitch": 45, "duration": 275, "velocity": 100}, {"time": 6380, "pitch": 50, "duration": 110, "velocity": 100}, {"time": 6600, "pitch": 43, "duration": 330, "velocity": 100}, {"time": 6710, "pitch": 50, "duration": 165, "velocity": 100}, {"time": 7040, "pitch": 43, "duration": 385, "velocity": 100}, {"time": 7150, "pitch": 50, "duration": 330, "velocity": 100}, {"time": 7480, "pitch": 43, "duration": 385, "velocity": 100}, {"time": 7590, "pitch": 50, "duration": 220, "velocity": 100}, {"time": 7920, "pitch": 38, "duration": 55, "velocity": 100}, {"time": 8030, "pitch": 50, "duration": 220, "velocity": 100}, {"time": 8360, "pitch": 50, "duration": 330, "velocity": 100}, {"time": 8800, "pitch": 47, "duration": 330, "velocity": 100}, {"time": 9240, "pitch": 47, "duration": 330, "velocity": 100}, {"time": 9680, "pitch": 45, "duration": 770, "velocity": 100}, {"time": 9790, "pitch": 52, "duration": 495, "velocity": 100}, {"time": 10560, "pitch": 43, "duration": 385, "velocity": 100}, {"time": 10670, "pitch": 50, "duration": 330, "velocity": 100}, {"time": 11000, "pitch": 43, "duration": 385, "velocity": 100}, {"time": 11110, "pitch": 50, "duration": 165, "velocity": 100}, {"time": 11440, "pitch": 36, "duration": 55, "velocity": 100}, {"time": 11550, "pitch": 52, "duration": 220, "velocity": 100}, {"time": 11880, "pitch": 48, "duration": 330, "velocity": 100}, {"time": 12320, "pitch": 50, "duration": 330, "velocity": 100}, {"time": 12430, "pitch": 54, "duration": 275, "velocity": 100}, {"time": 12760, "pitch": 50, "duration": 330, "velocity": 100}, {"time": 13200, "pitch": 43, "duration": 825, "velocity": 100}, {"time": 13310, "pitch": 50, "duration": 715, "velocity": 100}, {"time": 14080, "pitch": 43, "duration": 385, "velocity": 100}, {"time": 14190, "pitch": 50, "duration": 330, "velocity": 100}, {"time": 14520, "pitch": 43, "duration": 385, "velocity": 100}, {"time": 14630, "pitch": 50, "duration": 220, "velocity": 100}, {"time": 14960, "pitch": 38, "duration": 55, "velocity": 100}, {"time": 15070, "pitch": 50, "duration": 220, "velocity": 100}, {"time": 15400, "pitch": 50, "duration": 330, "velocity": 100}, {"time": 15840, "pitch": 47, "duration": 330, "velocity": 100}, {"time": 15950, "pitch": 55, "duration": 330, "velocity": 100}, {"time": 16280, "pitch": 47, "duration": 330, "velocity": 100}, {"time": 16555, "pitch": 55, "duration": 55, "velocity": 100}, {"time": 16720, "pitch": 45, "duration": 715, "velocity": 100}, {"time": 16830, "pitch": 52, "duration": 605, "velocity": 100}, {"time": 17380, "pitch": 54, "duration": 220, "velocity": 100}, {"time": 17600, "pitch": 43, "duration": 385, "velocity": 100}, {"time": 17710, "pitch": 50, "duration": 330, "velocity": 100}, {"time": 17875, "pitch": 55, "duration": 110, "velocity": 100}, {"time": 18040, "pitch": 43, "duration": 385, "velocity": 100}, {"time": 18150, "pitch": 50, "duration": 220, "velocity": 100}, {"time": 18315, "pitch": 55, "duration": 55, "velocity": 100}, {"time": 18480, "pitch": 36, "duration": 55, "velocity": 100}, {"time": 18590, "pitch": 52, "duration": 220, "velocity": 100}, {"time": 18920, "pitch": 48, "duration": 330, "velocity": 100}, {"time": 19085, "pitch": 55, "duration": 165, "velocity": 100}, {"time": 19360, "pitch": 50, "duration": 330, "velocity": 100}, {"time": 19470, "pitch": 54, "duration": 330, "velocity": 100}, {"time": 19800, "pitch": 50, "duration": 330, "velocity": 100}, {"time": 20240, "pitch": 43, "duration": 770, "velocity": 100}, {"time": 20350, "pitch": 50, "duration": 495, "velocity": 100}, {"time": 20460, "pitch": 55, "duration": 55, "velocity": 100}, {"time": 20625, "pitch": 55, "duration": 220, "velocity": 100}, {"time": 20900, "pitch": 55, "duration": 165, "velocity": 100}]}, {"program": 48, "is_drum": false, "name": "Strings"}, {"program": 61, "is_drum": false, "name": "Brass"}, {"program": 0, "is_drum": false, "name": "Piano", "notes": [{"time": 0, "pitch": 79, "duration": 220, "velocity": 100}, {"time": 220, "pitch": 74, "duration": 110, "velocity": 100}, {"time": 330, "pitch": 79, "duration": 110, "velocity": 100}, {"time": 440, "pitch": 71, "duration": 110, "velocity": 100}, {"time": 550, "pitch": 79, "duration": 110, "velocity": 100}, {"time": 660, "pitch": 74, "duration": 110, "velocity": 100}, {"time": 770, "pitch": 79, "duration": 110, "velocity": 100}, {"time": 880, "pitch": 76, "duration": 110, "velocity": 100}, {"time": 990, "pitch": 74, "duration": 110, "velocity": 100}, {"time": 1100, "pitch": 72, "duration": 110, "velocity": 100}, {"time": 1210, "pitch": 74, "duration": 110, "velocity": 100}, {"time": 1320, "pitch": 76, "duration": 110, "velocity": 100}, {"time": 1430, "pitch": 74, "duration": 110, "velocity": 100}, {"time": 1540, "pitch": 76, "duration": 110, "velocity": 100}, {"time": 1650, "pitch": 78, "duration": 110, "velocity": 100}, {"time": 1760, "pitch": 79, "duration": 220, "velocity": 100}, {"time": 1980, "pitch": 74, "duration": 110, "velocity": 100}, {"time": 2090, "pitch": 79, "duration": 110, "velocity": 100}, {"time": 2200, "pitch": 71, "duration": 110, "velocity": 100}, {"time": 2310, "pitch": 79, "duration": 110, "velocity": 100}, {"time": 2420, "pitch": 74, "duration": 110, "velocity": 100}, {"time": 2530, "pitch": 79, "duration": 110, "velocity": 100}, {"time": 2640, "pitch": 72, "duration": 110, "velocity": 100}, {"time": 2750, "pitch": 76, "duration": 110, "velocity": 100}, {"time": 2860, "pitch": 74, "duration": 110, "velocity": 100}, {"time": 2970, "pitch": 72, "duration": 110, "velocity": 100}, {"time": 3080, "pitch": 71, "duration": 110, "velocity": 100}, {"time": 3190, "pitch": 67, "duration": 110, "velocity": 100}, {"time": 3300, "pitch": 67, "duration": 110, "velocity": 100}, {"time": 3410, "pitch": 74, "duration": 110, "velocity": 100}, {"time": 3520, "pitch": 79, "duration": 220, "velocity": 100}, {"time": 3740, "pitch": 74, "duration": 110, "velocity": 100}, {"time": 3850, "pitch": 79, "duration": 110, "velocity": 100}, {"time": 3960, "pitch": 71, "duration": 110, "velocity": 100}, {"time": 4070, "pitch": 79, "duration": 110, "velocity": 100}, {"time": 4180, "pitch": 74, "duration": 110, "velocity": 100}, {"time": 4290, "pitch": 79, "duration": 110, "velocity": 100}, {"time": 4400, "pitch": 76, "duration": 110, "velocity": 100}, {"time": 4510, "pitch": 74, "duration": 110, "velocity": 100}, {"time": 4620, "pitch": 72, "duration": 110, "velocity": 100}, {"time": 4730, "pitch": 74, "duration": 110, "velocity": 100}, {"time": 4840, "pitch": 76, "duration": 110, "velocity": 100}, {"time": 4950, "pitch": 74, "duration": 110, "velocity": 100}, {"time": 5060, "pitch": 76, "duration": 110, "velocity": 100}, {"time": 5170, "pitch": 78, "duration": 110, "velocity": 100}, {"time": 5280, "pitch": 79, "duration": 220, "velocity": 100}, {"time": 5500, "pitch": 74, "duration": 110, "velocity": 100}, {"time": 5610, "pitch": 79, "duration": 110, "velocity": 100}, {"time": 5720, "pitch": 71, "duration": 110, "velocity": 100}, {"time": 5830, "pitch": 79, "duration": 110, "velocity": 100}, {"time": 5940, "pitch": 74, "duration": 110, "velocity": 100}, {"time": 6050, "pitch": 79, "duration": 110, "velocity": 100}, {"time": 6160, "pitch": 72, "duration": 110, "velocity": 100}, {"time": 6270, "pitch": 76, "duration": 110, "velocity": 100}, {"time": 6380, "pitch": 74, "duration": 110, "velocity": 100}, {"time": 6490, "pitch": 72, "duration": 110, "velocity": 100}, {"time": 6600, "pitch": 71, "duration": 110, "velocity": 100}, {"time": 6710, "pitch": 67, "duration": 110, "velocity": 100}, {"time": 6820, "pitch": 67, "duration": 110, "velocity": 100}, {"time": 6930, "pitch": 74, "duration": 110, "velocity": 100}, {"time": 7040, "pitch": 71, "duration": 110, "velocity": 100}, {"time": 7150, "pitch": 74, "duration": 110, "velocity": 100}, {"time": 7260, "pitch": 67, "duration": 110, "velocity": 100}, {"time": 7370, "pitch": 74, "duration": 110, "velocity": 100}, {"time": 7480, "pitch": 71, "duration": 110, "velocity": 100}, {"time": 7590, "pitch": 74, "duration": 110, "velocity": 100}, {"time": 7700, "pitch": 67, "duration": 110, "velocity": 100}, {"time": 7810, "pitch": 74, "duration": 110, "velocity": 100}, {"time": 7920, "pitch": 72, "duration": 110, "velocity": 100}, {"time": 8030, "pitch": 74, "duration": 110, "velocity": 100}, {"time": 8140, "pitch": 69, "duration": 110, "velocity": 100}, {"time": 8250, "pitch": 74, "duration": 110, "velocity": 100}, {"time": 8360, "pitch": 72, "duration": 110, "velocity": 100}, {"time": 8470, "pitch": 74, "duration": 110, "velocity": 100}, {"time": 8580, "pitch": 69, "duration": 110, "velocity": 100}, {"time": 8690, "pitch": 74, "duration": 110, "velocity": 100}, {"time": 8800, "pitch": 71, "duration": 110, "velocity": 100}, {"time": 8910, "pitch": 74, "duration": 110, "velocity": 100}, {"time": 9020, "pitch": 67, "duration": 110, "velocity": 100}, {"time": 9130, "pitch": 74, "duration": 110, "velocity": 100}, {"time": 9240, "pitch": 71, "duration": 110, "velocity": 100}, {"time": 9350, "pitch": 74, "duration": 110, "velocity": 100}, {"time": 9460, "pitch": 67, "duration": 110, "velocity": 100}, {"time": 9570, "pitch": 74, "duration": 110, "velocity": 100}, {"time": 9680, "pitch": 76, "duration": 110, "velocity": 100}, {"time": 9790, "pitch": 74, "duration": 110, "velocity": 100}, {"time": 9900, "pitch": 72, "duration": 110, "velocity": 100}, {"time": 10010, "pitch": 71, "duration": 110, "velocity": 100}, {"time": 10120, "pitch": 69, "duration": 110, "velocity": 100}, {"time": 10230, "pitch": 66, "duration": 110, "velocity": 100}, {"time": 10340, "pitch": 62, "duration": 110, "velocity": 100}, {"time": 10450, "pitch": 66, "duration": 110, "velocity": 100}, {"time": 10560, "pitch": 71, "duration": 110, "velocity": 100}, {"time": 10670, "pitch": 74, "duration": 110, "velocity": 100}, {"time": 10780, "pitch": 67, "duration": 110, "velocity": 100}, {"time": 10890, "pitch": 74, "duration": 110, "velocity": 100}, {"time": 11000, "pitch": 71, "duration": 110, "velocity": 100}, {"time": 11110, "pitch": 74, "duration": 110, "velocity": 100}, {"time": 11220, "pitch": 67, "duration": 110, "velocity": 100}, {"time": 11330, "pitch": 74, "duration": 110, "velocity": 100}, {"time": 11440, "pitch": 67, "duration": 110, "velocity": 100}, {"time": 11550, "pitch": 76, "duration": 110, "velocity": 100}, {"time": 11660, "pitch": 72, "duration": 110, "velocity": 100}, {"time": 11770, "pitch": 76, "duration": 110, "velocity": 100}, {"time": 11880, "pitch": 67, "duration": 110, "velocity": 100}, {"time": 11990, "pitch": 76, "duration": 110, "velocity": 100}, {"time": 12100, "pitch": 72, "duration": 110, "velocity": 100}, {"time": 12210, "pitch": 76, "duration": 110, "velocity": 100}, {"time": 12320, "pitch": 74, "duration": 110, "velocity": 100}, {"time": 12430, "pitch": 76, "duration": 110, "velocity": 100}, {"time": 12540, "pitch": 66, "duration": 110, "velocity": 100}, {"time": 12650, "pitch": 79, "duration": 110, "velocity": 100}, {"time": 12760, "pitch": 81, "duration": 110, "velocity": 100}, {"time": 12870, "pitch": 84, "duration": 110, "velocity": 100}, {"time": 12980, "pitch": 83, "duration": 110, "velocity": 100}, {"time": 13090, "pitch": 81, "duration": 110, "velocity": 100}, {"time": 13200, "pitch": 79, "duration": 440, "velocity": 100}, {"time": 13640, "pitch": 79, "duration": 220, "velocity": 100}, {"time": 13860, "pitch": 74, "duration": 220, "velocity": 100}, {"time": 14080, "pitch": 71, "duration": 110, "velocity": 100}, {"time": 14190, "pitch": 74, "duration": 110, "velocity": 100}, {"time": 14300, "pitch": 67, "duration": 110, "velocity": 100}, {"time": 14410, "pitch": 74, "duration": 110, "velocity": 100}, {"time": 14520, "pitch": 71, "duration": 110, "velocity": 100}, {"time": 14630, "pitch": 74, "duration": 110, "velocity": 100}, {"time": 14740, "pitch": 67, "duration": 110, "velocity": 100}, {"time": 14850, "pitch": 74, "duration": 110, "velocity": 100}, {"time": 14960, "pitch": 72, "duration": 110, "velocity": 100}, {"time": 15070, "pitch": 74, "duration": 110, "velocity": 100}, {"time": 15180, "pitch": 69, "duration": 110, "velocity": 100}, {"time": 15290, "pitch": 74, "duration": 110, "velocity": 100}, {"time": 15400, "pitch": 72, "duration": 110, "velocity": 100}, {"time": 15510, "pitch": 74, "duration": 110, "velocity": 100}, {"time": 15620, "pitch": 69, "duration": 110, "velocity": 100}, {"time": 15730, "pitch": 74, "duration": 110, "velocity": 100}, {"time": 15840, "pitch": 71, "duration": 110, "velocity": 100}, {"time": 15950, "pitch": 74, "duration": 110, "velocity": 100}, {"time": 16060, "pitch": 67, "duration": 110, "velocity": 100}, {"time": 16170, "pitch": 74, "duration": 110, "velocity": 100}, {"time": 16280, "pitch": 71, "duration": 110, "velocity": 100}, {"time": 16390, "pitch": 74, "duration": 110, "velocity": 100}, {"time": 16500, "pitch": 67, "duration": 110, "velocity": 100}, {"time": 16610, "pitch": 74, "duration": 110, "velocity": 100}, {"time": 16720, "pitch": 76, "duration": 110, "velocity": 100}, {"time": 16830, "pitch": 74, "duration": 110, "velocity": 100}, {"time": 16940, "pitch": 72, "duration": 110, "velocity": 100}, {"time": 17050, "pitch": 71, "duration": 110, "velocity": 100}, {"time": 17160, "pitch": 69, "duration": 110, "velocity": 100}, {"time": 17270, "pitch": 66, "duration": 110, "velocity": 100}, {"time": 17380, "pitch": 62, "duration": 110, "velocity": 100}, {"time": 17490, "pitch": 66, "duration": 110, "velocity": 100}, {"time": 17600, "pitch": 71, "duration": 110, "velocity": 100}, {"time": 17710, "pitch": 74, "duration": 110, "velocity": 100}, {"time": 17820, "pitch": 67, "duration": 110, "velocity": 100}, {"time": 17930, "pitch": 74, "duration": 110, "velocity": 100}, {"time": 18040, "pitch": 71, "duration": 110, "velocity": 100}, {"time": 18150, "pitch": 74, "duration": 110, "velocity": 100}, {"time": 18260, "pitch": 67, "duration": 110, "velocity": 100}, {"time": 18370, "pitch": 74, "duration": 110, "velocity": 100}, {"time": 18480, "pitch": 67, "duration": 110, "velocity": 100}, {"time": 18590, "pitch": 76, "duration": 110, "velocity": 100}, {"time": 18700, "pitch": 72, "duration": 110, "velocity": 100}, {"time": 18810, "pitch": 76, "duration": 110, "velocity": 100}, {"time": 18920, "pitch": 67, "duration": 110, "velocity": 100}, {"time": 19030, "pitch": 76, "duration": 110, "velocity": 100}, {"time": 19140, "pitch": 72, "duration": 110, "velocity": 100}, {"time": 19250, "pitch": 76, "duration": 110, "velocity": 100}, {"time": 19360, "pitch": 74, "duration": 110, "velocity": 100}, {"time": 19470, "pitch": 76, "duration": 110, "velocity": 100}, {"time": 19580, "pitch": 66, "duration": 110, "velocity": 100}, {"time": 19690, "pitch": 79, "duration": 110, "velocity": 100}, {"time": 19800, "pitch": 81, "duration": 110, "velocity": 100}, {"time": 19910, "pitch": 84, "duration": 110, "velocity": 100}, {"time": 20020, "pitch": 83, "duration": 110, "velocity": 100}, {"time": 20130, "pitch": 81, "duration": 110, "velocity": 100}, {"time": 20240, "pitch": 79, "duration": 220, "velocity": 100}, {"time": 20460, "pitch": 79, "duration": 220, "velocity": 100}, {"time": 20680, "pitch": 79, "duration": 220, "velocity": 100}, {"time": 20900, "pitch": 79, "duration": 220, "velocity": 100}, {"time": 0, "pitch": 43, "duration": 220, "velocity": 100}, {"time": 0, "pitch": 55, "duration": 110, "velocity": 100}, {"time": 0, "pitch": 62, "duration": 110, "velocity": 100}, {"time": 110, "pitch": 50, "duration": 110, "velocity": 100}, {"time": 110, "pitch": 79, "duration": 55, "velocity": 100}, {"time": 165, "pitch": 81, "duration": 55, "velocity": 100}, {"time": 220, "pitch": 50, "duration": 55, "velocity": 100}, {"time": 220, "pitch": 55, "duration": 55, "velocity": 100}, {"time": 220, "pitch": 59, "duration": 110, "velocity": 100}, {"time": 220, "pitch": 79, "duration": 165, "velocity": 100}, {"time": 275, "pitch": 83, "duration": 55, "velocity": 100}, {"time": 330, "pitch": 55, "duration": 55, "velocity": 100}, {"time": 440, "pitch": 43, "duration": 330, "velocity": 100}, {"time": 440, "pitch": 50, "duration": 220, "velocity": 100}, {"time": 440, "pitch": 55, "duration": 220, "velocity": 100}, {"time": 440, "pitch": 83, "duration": 440, "velocity": 100}, {"time": 550, "pitch": 47, "duration": 220, "velocity": 100}, {"time": 660, "pitch": 59, "duration": 110, "velocity": 100}, {"time": 880, "pitch": 45, "duration": 330, "velocity": 100}, {"time": 880, "pitch": 57, "duration": 220, "velocity": 100}, {"time": 880, "pitch": 60, "duration": 220, "velocity": 100}, {"time": 990, "pitch": 52, "duration": 220, "velocity": 100}, {"time": 1100, "pitch": 64, "duration": 110, "velocity": 100}, {"time": 1210, "pitch": 60, "duration": 110, "velocity": 100}, {"time": 1320, "pitch": 50, "duration": 275, "velocity": 100}, {"time": 1320, "pitch": 62, "duration": 220, "velocity": 100}, {"time": 1430, "pitch": 54, "duration": 165, "velocity": 100}, {"time": 1540, "pitch": 57, "duration": 55, "velocity": 100}, {"time": 1540, "pitch": 62, "duration": 110, "velocity": 100}, {"time": 1760, "pitch": 43, "duration": 275, "velocity": 100}, {"time": 1760, "pitch": 55, "duration": 165, "velocity": 100}, {"time": 1760, "pitch": 59, "duration": 220, "velocity": 100}, {"time": 1870, "pitch": 50, "duration": 165, "velocity": 100}, {"time": 1980, "pitch": 62, "duration": 110, "velocity": 100}, {"time": 2090, "pitch": 59, "duration": 55, "velocity": 100}, {"time": 2200, "pitch": 43, "duration": 275, "velocity": 100}, {"time": 2200, "pitch": 62, "duration": 165, "velocity": 100}, {"time": 2310, "pitch": 50, "duration": 165, "velocity": 100}, {"time": 2420, "pitch": 55, "duration": 55, "velocity": 100}, {"time": 2420, "pitch": 59, "duration": 55, "velocity": 100}, {"time": 2640, "pitch": 38, "duration": 330, "velocity": 100}, {"time": 2640, "pitch": 54, "duration": 220, "velocity": 100}, {"time": 2640, "pitch": 57, "duration": 165, "velocity": 100}, {"time": 2750, "pitch": 45, "duration": 220, "velocity": 100}, {"time": 2860, "pitch": 50, "duration": 110, "velocity": 100}, {"time": 2915, "pitch": 57, "duration": 55, "velocity": 100}, {"time": 2970, "pitch": 59, "duration": 55, "velocity": 100}, {"time": 3080, "pitch": 43, "duration": 330, "velocity": 100}, {"time": 3080, "pitch": 55, "duration": 165, "velocity": 100}, {"time": 3080, "pitch": 59, "duration": 55, "velocity": 100}, {"time": 3080, "pitch": 62, "duration": 110, "velocity": 100}, {"time": 3190, "pitch": 50, "duration": 165, "velocity": 100}, {"time": 3300, "pitch": 55, "duration": 110, "velocity": 100}, {"time": 3300, "pitch": 62, "duration": 110, "velocity": 100}, {"time": 3410, "pitch": 55, "duration": 55, "velocity": 100}, {"time": 3520, "pitch": 43, "duration": 220, "velocity": 100}, {"time": 3520, "pitch": 55, "duration": 110, "velocity": 100}, {"time": 3520, "pitch": 62, "duration": 110, "velocity": 100}, {"time": 3630, "pitch": 50, "duration": 110, "velocity": 100}, {"time": 3740, "pitch": 50, "duration": 55, "velocity": 100}, {"time": 3740, "pitch": 55, "duration": 55, "velocity": 100}, {"time": 3740, "pitch": 59, "duration": 110, "velocity": 100}, {"time": 3850, "pitch": 55, "duration": 55, "velocity": 100}, {"time": 3960, "pitch": 43, "duration": 330, "velocity": 100}, {"time": 3960, "pitch": 50, "duration": 220, "velocity": 100}, {"time": 3960, "pitch": 55, "duration": 440, "velocity": 100}, {"time": 4070, "pitch": 47, "duration": 220, "velocity": 100}, {"time": 4070, "pitch": 81, "duration": 55, "velocity": 100}, {"time": 4125, "pitch": 83, "duration": 55, "velocity": 100}, {"time": 4180, "pitch": 59, "duration": 110, "velocity": 100}, {"time": 4180, "pitch": 79, "duration": 55, "velocity": 100}, {"time": 4235, "pitch": 83, "duration": 55, "velocity": 100}, {"time": 4400, "pitch": 45, "duration": 330, "velocity": 100}, {"time": 4400, "pitch": 57, "duration": 220, "velocity": 100}, {"time": 4400, "pitch": 60, "duration": 220, "velocity": 100}, {"time": 4400, "pitch": 84, "duration": 440, "velocity": 100}, {"time": 4510, "pitch": 52, "duration": 220, "velocity": 100}, {"time": 4620, "pitch": 64, "duration": 110, "velocity": 100}, {"time": 4620, "pitch": 69, "duration": 110, "velocity": 100}, {"time": 4730, "pitch": 60, "duration": 110, "velocity": 100}, {"time": 4730, "pitch": 64, "duration": 110, "velocity": 100}, {"time": 4840, "pitch": 50, "duration": 275, "velocity": 100}, {"time": 4840, "pitch": 62, "duration": 330, "velocity": 100}, {"time": 4950, "pitch": 54, "duration": 165, "velocity": 100}, {"time": 5060, "pitch": 57, "duration": 165, "velocity": 100}, {"time": 5060, "pitch": 62, "duration": 220, "velocity": 100}, {"time": 5280, "pitch": 43, "duration": 275, "velocity": 100}, {"time": 5280, "pitch": 55, "duration": 165, "velocity": 100}, {"time": 5280, "pitch": 59, "duration": 220, "velocity": 100}, {"time": 5280, "pitch": 62, "duration": 220, "velocity": 100}, {"time": 5390, "pitch": 50, "duration": 165, "velocity": 100}, {"time": 5500, "pitch": 59, "duration": 110, "velocity": 100}, {"time": 5500, "pitch": 62, "duration": 110, "velocity": 100}, {"time": 5610, "pitch": 55, "duration": 110, "velocity": 100}, {"time": 5610, "pitch": 59, "duration": 55, "velocity": 100}, {"time": 5720, "pitch": 43, "duration": 275, "velocity": 100}, {"time": 5720, "pitch": 62, "duration": 440, "velocity": 100}, {"time": 5830, "pitch": 50, "duration": 165, "velocity": 100}, {"time": 5940, "pitch": 57, "duration": 55, "velocity": 100}, {"time": 5940, "pitch": 59, "duration": 55, "velocity": 100}, {"time": 6160, "pitch": 38, "duration": 330, "velocity": 100}, {"time": 6160, "pitch": 54, "duration": 220, "velocity": 100}, {"time": 6160, "pitch": 57, "duration": 165, "velocity": 100}, {"time": 6270, "pitch": 45, "duration": 275, "velocity": 100}, {"time": 6270, "pitch": 57, "duration": 110, "velocity": 100}, {"time": 6380, "pitch": 50, "duration": 110, "velocity": 100}, {"time": 6380, "pitch": 57, "duration": 110, "velocity": 100}, {"time": 6380, "pitch": 62, "duration": 55, "velocity": 100}, {"time": 6435, "pitch": 64, "duration": 55, "velocity": 100}, {"time": 6490, "pitch": 62, "duration": 55, "velocity": 100}, {"time": 6490, "pitch": 67, "duration": 55, "velocity": 100}, {"time": 6545, "pitch": 66, "duration": 55, "velocity": 100}, {"time": 6600, "pitch": 43, "duration": 330, "velocity": 100}, {"time": 6600, "pitch": 55, "duration": 165, "velocity": 100}, {"time": 6600, "pitch": 59, "duration": 220, "velocity": 100}, {"time": 6600, "pitch": 62, "duration": 330, "velocity": 100}, {"time": 6600, "pitch": 64, "duration": 220, "velocity": 100}, {"time": 6710, "pitch": 50, "duration": 165, "velocity": 100}, {"time": 6820, "pitch": 55, "duration": 110, "velocity": 100}, {"time": 6820, "pitch": 62, "duration": 220, "velocity": 100}, {"time": 6930, "pitch": 55, "duration": 55, "velocity": 100}, {"time": 7040, "pitch": 43, "duration": 385, "velocity": 100}, {"time": 7040, "pitch": 62, "duration": 110, "velocity": 100}, {"time": 7040, "pitch": 67, "duration": 165, "velocity": 100}, {"time": 7150, "pitch": 50, "duration": 330, "velocity": 100}, {"time": 7205, "pitch": 62, "duration": 110, "velocity": 100}, {"time": 7205, "pitch": 67, "duration": 110, "velocity": 100}, {"time": 7315, "pitch": 55, "duration": 110, "velocity": 100}, {"time": 7370, "pitch": 62, "duration": 55, "velocity": 100}, {"time": 7425, "pitch": 67, "duration": 55, "velocity": 100}, {"time": 7480, "pitch": 43, "duration": 385, "velocity": 100}, {"time": 7480, "pitch": 62, "duration": 165, "velocity": 100}, {"time": 7480, "pitch": 67, "duration": 165, "velocity": 100}, {"time": 7590, "pitch": 50, "duration": 220, "velocity": 100}, {"time": 7645, "pitch": 62, "duration": 110, "velocity": 100}, {"time": 7645, "pitch": 67, "duration": 110, "velocity": 100}, {"time": 7755, "pitch": 55, "duration": 55, "velocity": 100}, {"time": 7810, "pitch": 62, "duration": 55, "velocity": 100}, {"time": 7810, "pitch": 69, "duration": 110, "velocity": 100}, {"time": 7920, "pitch": 38, "duration": 55, "velocity": 100}, {"time": 7920, "pitch": 62, "duration": 165, "velocity": 100}, {"time": 7920, "pitch": 69, "duration": 275, "velocity": 100}, {"time": 8030, "pitch": 50, "duration": 220, "velocity": 100}, {"time": 8085, "pitch": 57, "duration": 165, "velocity": 100}, {"time": 8195, "pitch": 66, "duration": 55, "velocity": 100}, {"time": 8250, "pitch": 69, "duration": 110, "velocity": 100}, {"time": 8360, "pitch": 50, "duration": 330, "velocity": 100}, {"time": 8360, "pitch": 57, "duration": 165, "velocity": 100}, {"time": 8360, "pitch": 69, "duration": 330, "velocity": 100}, {"time": 8525, "pitch": 57, "duration": 165, "velocity": 100}, {"time": 8635, "pitch": 62, "duration": 55, "velocity": 100}, {"time": 8690, "pitch": 69, "duration": 110, "velocity": 100}, {"time": 8800, "pitch": 47, "duration": 330, "velocity": 100}, {"time": 8800, "pitch": 67, "duration": 165, "velocity": 100}, {"time": 8910, "pitch": 55, "duration": 330, "velocity": 100}, {"time": 8965, "pitch": 59, "duration": 55, "velocity": 100}, {"time": 9020, "pitch": 62, "duration": 55, "velocity": 100}, {"time": 9075, "pitch": 67, "duration": 55, "velocity": 100}, {"time": 9130, "pitch": 69, "duration": 110, "velocity": 100}, {"time": 9240, "pitch": 47, "duration": 330, "velocity": 100}, {"time": 9240, "pitch": 67, "duration": 165, "velocity": 100}, {"time": 9350, "pitch": 59, "duration": 55, "velocity": 100}, {"time": 9405, "pitch": 62, "duration": 165, "velocity": 100}, {"time": 9405, "pitch": 71, "duration": 165, "velocity": 100}, {"time": 9515, "pitch": 55, "duration": 55, "velocity": 100}, {"time": 9570, "pitch": 67, "duration": 110, "velocity": 100}, {"time": 9680, "pitch": 45, "duration": 770, "velocity": 100}, {"time": 9680, "pitch": 64, "duration": 165, "velocity": 100}, {"time": 9680, "pitch": 69, "duration": 165, "velocity": 100}, {"time": 9790, "pitch": 52, "duration": 495, "velocity": 100}, {"time": 9845, "pitch": 60, "duration": 110, "velocity": 100}, {"time": 9845, "pitch": 69, "duration": 110, "velocity": 100}, {"time": 9900, "pitch": 57, "duration": 55, "velocity": 100}, {"time": 9955, "pitch": 60, "duration": 110, "velocity": 100}, {"time": 9955, "pitch": 69, "duration": 165, "velocity": 100}, {"time": 10065, "pitch": 57, "duration": 385, "velocity": 100}, {"time": 10120, "pitch": 62, "duration": 220, "velocity": 100}, {"time": 10120, "pitch": 66, "duration": 220, "velocity": 100}, {"time": 10340, "pitch": 54, "duration": 165, "velocity": 100}, {"time": 10340, "pitch": 74, "duration": 55, "velocity": 100}, {"time": 10395, "pitch": 62, "duration": 55, "velocity": 100}, {"time": 10395, "pitch": 72, "duration": 55, "velocity": 100}, {"time": 10450, "pitch": 69, "duration": 55, "velocity": 100}, {"time": 10450, "pitch": 72, "duration": 55, "velocity": 100}, {"time": 10505, "pitch": 74, "duration": 55, "velocity": 100}, {"time": 10560, "pitch": 43, "duration": 385, "velocity": 100}, {"time": 10560, "pitch": 62, "duration": 165, "velocity": 100}, {"time": 10560, "pitch": 67, "duration": 165, "velocity": 100}, {"time": 10560, "pitch": 74, "duration": 110, "velocity": 100}, {"time": 10670, "pitch": 50, "duration": 330, "velocity": 100}, {"time": 10725, "pitch": 62, "duration": 110, "velocity": 100}, {"time": 10725, "pitch": 67, "duration": 110, "velocity": 100}, {"time": 10835, "pitch": 55, "duration": 110, "velocity": 100}, {"time": 10890, "pitch": 62, "duration": 55, "velocity": 100}, {"time": 10945, "pitch": 67, "duration": 55, "velocity": 100}, {"time": 11000, "pitch": 43, "duration": 385, "velocity": 100}, {"time": 11000, "pitch": 62, "duration": 165, "velocity": 100}, {"time": 11000, "pitch": 67, "duration": 165, "velocity": 100}, {"time": 11110, "pitch": 50, "duration": 165, "velocity": 100}, {"time": 11165, "pitch": 62, "duration": 110, "velocity": 100}, {"time": 11165, "pitch": 67, "duration": 110, "velocity": 100}, {"time": 11275, "pitch": 55, "duration": 55, "velocity": 100}, {"time": 11330, "pitch": 62, "duration": 55, "velocity": 100}, {"time": 11330, "pitch": 69, "duration": 110, "velocity": 100}, {"time": 11330, "pitch": 72, "duration": 55, "velocity": 100}, {"time": 11440, "pitch": 36, "duration": 55, "velocity": 100}, {"time": 11440, "pitch": 64, "duration": 220, "velocity": 100}, {"time": 11440, "pitch": 72, "duration": 330, "velocity": 100}, {"time": 11550, "pitch": 52, "duration": 220, "velocity": 100}, {"time": 11605, "pitch": 60, "duration": 165, "velocity": 100}, {"time": 11715, "pitch": 67, "duration": 55, "velocity": 100}, {"time": 11770, "pitch": 72, "duration": 110, "velocity": 100}, {"time": 11880, "pitch": 48, "duration": 330, "velocity": 100}, {"time": 11880, "pitch": 60, "duration": 220, "velocity": 100}, {"time": 11880, "pitch": 67, "duration": 275, "velocity": 100}, {"time": 12045, "pitch": 55, "duration": 165, "velocity": 100}, {"time": 12155, "pitch": 60, "duration": 55, "velocity": 100}, {"time": 12210, "pitch": 69, "duration": 110, "velocity": 100}, {"time": 12320, "pitch": 50, "duration": 330, "velocity": 100}, {"time": 12320, "pitch": 69, "duration": 110, "velocity": 100}, {"time": 12320, "pitch": 74, "duration": 110, "velocity": 100}, {"time": 12430, "pitch": 54, "duration": 275, "velocity": 100}, {"time": 12430, "pitch": 69, "duration": 55, "velocity": 100}, {"time": 12485, "pitch": 62, "duration": 55, "velocity": 100}, {"time": 12485, "pitch": 74, "duration": 55, "velocity": 100}, {"time": 12540, "pitch": 62, "duration": 55, "velocity": 100}, {"time": 12595, "pitch": 66, "duration": 55, "velocity": 100}, {"time": 12650, "pitch": 69, "duration": 110, "velocity": 100}, {"time": 12760, "pitch": 50, "duration": 330, "velocity": 100}, {"time": 12760, "pitch": 69, "duration": 220, "velocity": 100}, {"time": 12870, "pitch": 57, "duration": 55, "velocity": 100}, {"time": 12925, "pitch": 66, "duration": 165, "velocity": 100}, {"time": 12925, "pitch": 69, "duration": 165, "velocity": 100}, {"time": 13035, "pitch": 57, "duration": 55, "velocity": 100}, {"time": 13090, "pitch": 69, "duration": 110, "velocity": 100}, {"time": 13200, "pitch": 43, "duration": 825, "velocity": 100}, {"time": 13200, "pitch": 62, "duration": 165, "velocity": 100}, {"time": 13200, "pitch": 69, "duration": 165, "velocity": 100}, {"time": 13310, "pitch": 50, "duration": 715, "velocity": 100}, {"time": 13310, "pitch": 69, "duration": 110, "velocity": 100}, {"time": 13365, "pitch": 62, "duration": 110, "velocity": 100}, {"time": 13365, "pitch": 67, "duration": 110, "velocity": 100}, {"time": 13365, "pitch": 71, "duration": 110, "velocity": 100}, {"time": 13420, "pitch": 55, "duration": 110, "velocity": 100}, {"time": 13475, "pitch": 62, "duration": 110, "velocity": 100}, {"time": 13475, "pitch": 67, "duration": 165, "velocity": 100}, {"time": 13585, "pitch": 55, "duration": 220, "velocity": 100}, {"time": 13640, "pitch": 62, "duration": 165, "velocity": 100}, {"time": 13640, "pitch": 67, "duration": 220, "velocity": 100}, {"time": 13750, "pitch": 62, "duration": 55, "velocity": 100}, {"time": 13860, "pitch": 55, "duration": 165, "velocity": 100}, {"time": 13860, "pitch": 67, "duration": 55, "velocity": 100}, {"time": 13915, "pitch": 62, "duration": 55, "velocity": 100}, {"time": 13970, "pitch": 69, "duration": 110, "velocity": 100}, {"time": 14080, "pitch": 43, "duration": 385, "velocity": 100}, {"time": 14080, "pitch": 62, "duration": 165, "velocity": 100}, {"time": 14080, "pitch": 67, "duration": 165, "velocity": 100}, {"time": 14190, "pitch": 50, "duration": 330, "velocity": 100}, {"time": 14245, "pitch": 62, "duration": 110, "velocity": 100}, {"time": 14245, "pitch": 67, "duration": 110, "velocity": 100}, {"time": 14355, "pitch": 55, "duration": 110, "velocity": 100}, {"time": 14410, "pitch": 62, "duration": 55, "velocity": 100}, {"time": 14465, "pitch": 67, "duration": 55, "velocity": 100}, {"time": 14520, "pitch": 43, "duration": 385, "velocity": 100}, {"time": 14520, "pitch": 62, "duration": 165, "velocity": 100}, {"time": 14520, "pitch": 69, "duration": 165, "velocity": 100}, {"time": 14630, "pitch": 50, "duration": 220, "velocity": 100}, {"time": 14685, "pitch": 62, "duration": 110, "velocity": 100}, {"time": 14685, "pitch": 67, "duration": 110, "velocity": 100}, {"time": 14795, "pitch": 55, "duration": 55, "velocity": 100}, {"time": 14850, "pitch": 62, "duration": 55, "velocity": 100}, {"time": 14850, "pitch": 69, "duration": 110, "velocity": 100}, {"time": 14960, "pitch": 38, "duration": 55, "velocity": 100}, {"time": 14960, "pitch": 62, "duration": 165, "velocity": 100}, {"time": 14960, "pitch": 69, "duration": 330, "velocity": 100}, {"time": 15070, "pitch": 50, "duration": 220, "velocity": 100}, {"time": 15125, "pitch": 57, "duration": 165, "velocity": 100}, {"time": 15235, "pitch": 66, "duration": 55, "velocity": 100}, {"time": 15290, "pitch": 69, "duration": 110, "velocity": 100}, {"time": 15400, "pitch": 50, "duration": 330, "velocity": 100}, {"time": 15400, "pitch": 57, "duration": 165, "velocity": 100}, {"time": 15400, "pitch": 69, "duration": 275, "velocity": 100}, {"time": 15565, "pitch": 57, "duration": 165, "velocity": 100}, {"time": 15675, "pitch": 62, "duration": 55, "velocity": 100}, {"time": 15730, "pitch": 69, "duration": 110, "velocity": 100}, {"time": 15840, "pitch": 47, "duration": 330, "velocity": 100}, {"time": 15840, "pitch": 67, "duration": 165, "velocity": 100}, {"time": 15950, "pitch": 55, "duration": 330, "velocity": 100}, {"time": 16005, "pitch": 59, "duration": 55, "velocity": 100}, {"time": 16060, "pitch": 62, "duration": 55, "velocity": 100}, {"time": 16115, "pitch": 67, "duration": 55, "velocity": 100}, {"time": 16170, "pitch": 69, "duration": 110, "velocity": 100}, {"time": 16280, "pitch": 47, "duration": 330, "velocity": 100}, {"time": 16280, "pitch": 67, "duration": 165, "velocity": 100}, {"time": 16390, "pitch": 59, "duration": 55, "velocity": 100}, {"time": 16445, "pitch": 67, "duration": 165, "velocity": 100}, {"time": 16445, "pitch": 71, "duration": 110, "velocity": 100}, {"time": 16555, "pitch": 55, "duration": 55, "velocity": 100}, {"time": 16610, "pitch": 69, "duration": 110, "velocity": 100}, {"time": 16720, "pitch": 45, "duration": 715, "velocity": 100}, {"time": 16720, "pitch": 64, "duration": 165, "velocity": 100}, {"time": 16720, "pitch": 69, "duration": 165, "velocity": 100}, {"time": 16830, "pitch": 52, "duration": 605, "velocity": 100}, {"time": 16885, "pitch": 60, "duration": 110, "velocity": 100}, {"time": 16885, "pitch": 69, "duration": 110, "velocity": 100}, {"time": 16940, "pitch": 57, "duration": 55, "velocity": 100}, {"time": 16995, "pitch": 60, "duration": 110, "velocity": 100}, {"time": 16995, "pitch": 69, "duration": 165, "velocity": 100}, {"time": 17105, "pitch": 57, "duration": 220, "velocity": 100}, {"time": 17160, "pitch": 62, "duration": 220, "velocity": 100}, {"time": 17160, "pitch": 66, "duration": 330, "velocity": 100}, {"time": 17380, "pitch": 54, "duration": 220, "velocity": 100}, {"time": 17435, "pitch": 62, "duration": 55, "velocity": 100}, {"time": 17490, "pitch": 69, "duration": 55, "velocity": 100}, {"time": 17600, "pitch": 43, "duration": 385, "velocity": 100}, {"time": 17600, "pitch": 62, "duration": 165, "velocity": 100}, {"time": 17600, "pitch": 67, "duration": 165, "velocity": 100}, {"time": 17710, "pitch": 50, "duration": 330, "velocity": 100}, {"time": 17765, "pitch": 62, "duration": 110, "velocity": 100}, {"time": 17765, "pitch": 67, "duration": 110, "velocity": 100}, {"time": 17875, "pitch": 55, "duration": 110, "velocity": 100}, {"time": 17930, "pitch": 62, "duration": 55, "velocity": 100}, {"time": 17985, "pitch": 67, "duration": 55, "velocity": 100}, {"time": 18040, "pitch": 43, "duration": 385, "velocity": 100}, {"time": 18040, "pitch": 62, "duration": 165, "velocity": 100}, {"time": 18040, "pitch": 67, "duration": 165, "velocity": 100}, {"time": 18150, "pitch": 50, "duration": 220, "velocity": 100}, {"time": 18205, "pitch": 62, "duration": 110, "velocity": 100}, {"time": 18205, "pitch": 67, "duration": 110, "velocity": 100}, {"time": 18315, "pitch": 55, "duration": 55, "velocity": 100}, {"time": 18370, "pitch": 62, "duration": 55, "velocity": 100}, {"time": 18370, "pitch": 69, "duration": 110, "velocity": 100}, {"time": 18480, "pitch": 36, "duration": 55, "velocity": 100}, {"time": 18480, "pitch": 60, "duration": 165, "velocity": 100}, {"time": 18480, "pitch": 72, "duration": 330, "velocity": 100}, {"time": 18590, "pitch": 52, "duration": 220, "velocity": 100}, {"time": 18645, "pitch": 60, "duration": 165, "velocity": 100}, {"time": 18755, "pitch": 67, "duration": 55, "velocity": 100}, {"time": 18810, "pitch": 72, "duration": 110, "velocity": 100}, {"time": 18920, "pitch": 48, "duration": 330, "velocity": 100}, {"time": 18920, "pitch": 60, "duration": 220, "velocity": 100}, {"time": 18920, "pitch": 67, "duration": 330, "velocity": 100}, {"time": 19085, "pitch": 55, "duration": 165, "velocity": 100}, {"time": 19195, "pitch": 60, "duration": 55, "velocity": 100}, {"time": 19250, "pitch": 69, "duration": 110, "velocity": 100}, {"time": 19360, "pitch": 50, "duration": 330, "velocity": 100}, {"time": 19360, "pitch": 66, "duration": 165, "velocity": 100}, {"time": 19470, "pitch": 54, "duration": 330, "velocity": 100}, {"time": 19525, "pitch": 57, "duration": 55, "velocity": 100}, {"time": 19580, "pitch": 62, "duration": 55, "velocity": 100}, {"time": 19635, "pitch": 66, "duration": 55, "velocity": 100}, {"time": 19690, "pitch": 69, "duration": 110, "velocity": 100}, {"time": 19800, "pitch": 50, "duration": 330, "velocity": 100}, {"time": 19800, "pitch": 69, "duration": 165, "velocity": 100}, {"time": 19910, "pitch": 57, "duration": 55, "velocity": 100}, {"time": 19965, "pitch": 66, "duration": 55, "velocity": 100}, {"time": 19965, "pitch": 69, "duration": 110, "velocity": 100}, {"time": 20075, "pitch": 57, "duration": 55, "velocity": 100}, {"time": 20130, "pitch": 69, "duration": 110, "velocity": 100}, {"time": 20240, "pitch": 43, "duration": 770, "velocity": 100}, {"time": 20240, "pitch": 62, "duration": 165, "velocity": 100}, {"time": 20240, "pitch": 69, "duration": 165, "velocity": 100}, {"time": 20350, "pitch": 50, "duration": 495, "velocity": 100}, {"time": 20405, "pitch": 62, "duration": 110, "velocity": 100}, {"time": 20405, "pitch": 71, "duration": 110, "velocity": 100}, {"time": 20460, "pitch": 55, "duration": 55, "velocity": 100}, {"time": 20515, "pitch": 62, "duration": 110, "velocity": 100}, {"time": 20515, "pitch": 67, "duration": 110, "velocity": 100}, {"time": 20625, "pitch": 55, "duration": 220, "velocity": 100}, {"time": 20680, "pitch": 62, "duration": 220, "velocity": 100}, {"time": 20680, "pitch": 67, "duration": 220, "velocity": 100}, {"time": 20900, "pitch": 55, "duration": 165, "velocity": 100}, {"time": 20955, "pitch": 62, "duration": 55, "velocity": 100}, {"time": 21010, "pitch": 69, "duration": 55, "velocity": 100}]}]}