{"metadata": {"schema_version": "0.1", "title": "None", "source_filename": "20211209_172718.mid", "source_format": "midi"}, "resolution": 220, "tempos": [{"time": 0, "qpm": 120.0}], "time_signatures": [{"time": 0, "numerator": 4, "denominator": 4}], "tracks": [{"program": 73, "is_drum": false, "name": "Soprano", "notes": [{"time": 220, "pitch": 74, "duration": 385, "velocity": 100}, {"time": 605, "pitch": 69, "duration": 55, "velocity": 100}, {"time": 660, "pitch": 74, "duration": 110, "velocity": 100}, {"time": 1760, "pitch": 72, "duration": 165, "velocity": 100}, {"time": 3520, "pitch": 69, "duration": 165, "velocity": 100}, {"time": 3960, "pitch": 69, "duration": 165, "velocity": 100}, {"time": 4180, "pitch": 71, "duration": 110, "velocity": 100}, {"time": 4400, "pitch": 69, "duration": 220, "velocity": 100}, {"time": 4620, "pitch": 69, "duration": 110, "velocity": 100}, {"time": 4840, "pitch": 74, "duration": 220, "velocity": 100}, {"time": 5445, "pitch": 71, "duration": 55, "velocity": 100}, {"time": 5500, "pitch": 72, "duration": 165, "velocity": 100}, {"time": 5500, "pitch": 74, "duration": 440, "velocity": 100}, {"time": 5665, "pitch": 76, "duration": 55, "velocity": 100}, {"time": 5885, "pitch": 71, "duration": 55, "velocity": 100}, {"time": 6325, "pitch": 72, "duration": 55, "velocity": 100}, {"time": 6820, "pitch": 69, "duration": 165, "velocity": 100}, {"time": 7920, "pitch": 69, "duration": 165, "velocity": 100}, {"time": 8800, "pitch": 72, "duration": 165, "velocity": 100}, {"time": 9185, "pitch": 76, "duration": 55, "velocity": 100}, {"time": 9240, "pitch": 74, "duration": 165, "velocity": 100}, {"time": 10120, "pitch": 74, "duration": 220, "velocity": 100}, {"time": 10340, "pitch": 74, "duration": 220, "velocity": 100}, {"time": 12320, "pitch": 72, "duration": 165, "velocity": 100}, {"time": 13860, "pitch": 74, "duration": 220, "velocity": 100}, {"time": 14080, "pitch": 76, "duration": 220, "velocity": 100}, {"time": 14465, "pitch": 79, "duration": 55, "velocity": 100}, {"time": 15840, "pitch": 72, "duration": 165, "velocity": 100}, {"time": 15840, "pitch": 78, "duration": 330, "velocity": 100}, {"time": 16225, "pitch": 76, "duration": 55, "velocity": 100}, {"time": 17270, "pitch": 74, "duration": 165, "velocity": 100}, {"time": 17270, "pitch": 86, "duration": 110, "velocity": 100}, {"time": 17490, "pitch": 81, "duration": 55, "velocity": 100}, {"time": 17545, "pitch": 83, "duration": 55, "velocity": 100}, {"time": 18480, "pitch": 67, "duration": 165, "velocity": 100}, {"time": 19030, "pitch": 86, "duration": 110, "velocity": 100}, {"time": 19140, "pitch": 83, "duration": 110, "velocity": 100}, {"time": 19305, "pitch": 83, "duration": 55, "velocity": 100}, {"time": 19360, "pitch": 86, "duration": 440, "velocity": 100}, {"time": 21340, "pitch": 76, "duration": 165, "velocity": 100}, {"time": 22660, "pitch": 81, "duration": 55, "velocity": 100}]}, {"program": 68, "is_drum": false, "name": "Alto", "notes": [{"time": 165, "pitch": 69, "duration": 55, "velocity": 100}, {"time": 385, "pitch": 71, "duration": 55, "velocity": 100}, {"time": 550, "pitch": 66, "duration": 165, "velocity": 100}, {"time": 770, "pitch": 69, "duration": 110, "velocity": 100}, {"time": 1100, "pitch": 67, "duration": 165, "velocity": 100}, {"time": 1210, "pitch": 66, "duration": 55, "velocity": 100}, {"time": 1265, "pitch": 69, "duration": 55, "velocity": 100}, {"time": 1320, "pitch": 71, "duration": 440, "velocity": 100}, {"time": 1540, "pitch": 69, "duration": 165, "velocity": 100}, {"time": 1760, "pitch": 66, "duration": 165, "velocity": 100}, {"time": 1925, "pitch": 71, "duration": 55, "velocity": 100}, {"time": 1980, "pitch": 72, "duration": 165, "velocity": 100}, {"time": 2145, "pitch": 76, "duration": 55, "velocity": 100}, {"time": 2200, "pitch": 74, "duration": 165, "velocity": 100}, {"time": 2365, "pitch": 71, "duration": 55, "velocity": 100}, {"time": 2420, "pitch": 69, "duration": 165, "velocity": 100}, {"time": 2640, "pitch": 69, "duration": 165, "velocity": 100}, {"time": 2640, "pitch": 69, "duration": 165, "velocity": 100}, {"time": 2805, "pitch": 71, "duration": 55, "velocity": 100}, {"time": 2860, "pitch": 69, "duration": 110, "velocity": 100}, {"time": 2860, "pitch": 69, "duration": 165, "velocity": 100}, {"time": 3080, "pitch": 64, "duration": 220, "velocity": 100}, {"time": 3300, "pitch": 66, "duration": 220, "velocity": 100}, {"time": 3520, "pitch": 67, "duration": 220, "velocity": 100}, {"time": 3740, "pitch": 67, "duration": 165, "velocity": 100}, {"time": 3740, "pitch": 69, "duration": 165, "velocity": 100}, {"time": 3905, "pitch": 71, "duration": 55, "velocity": 100}, {"time": 3960, "pitch": 66, "duration": 165, "velocity": 100}, {"time": 4180, "pitch": 66, "duration": 55, "velocity": 100}, {"time": 4400, "pitch": 67, "duration": 165, "velocity": 100}, {"time": 4620, "pitch": 67, "duration": 165, "velocity": 100}, {"time": 4785, "pitch": 69, "duration": 55, "velocity": 100}, {"time": 4840, "pitch": 71, "duration": 440, "velocity": 100}, {"time": 5060, "pitch": 74, "duration": 220, "velocity": 100}, {"time": 5280, "pitch": 72, "duration": 165, "velocity": 100}, {"time": 5445, "pitch": 69, "duration": 275, "velocity": 100}, {"time": 5885, "pitch": 69, "duration": 55, "velocity": 100}, {"time": 5940, "pitch": 74, "duration": 110, "velocity": 100}, {"time": 6380, "pitch": 71, "duration": 165, "velocity": 100}, {"time": 6490, "pitch": 66, "duration": 55, "velocity": 100}, {"time": 6545, "pitch": 66, "duration": 55, "velocity": 100}, {"time": 6545, "pitch": 69, "duration": 55, "velocity": 100}, {"time": 7040, "pitch": 66, "duration": 165, "velocity": 100}, {"time": 7040, "pitch": 67, "duration": 220, "velocity": 100}, {"time": 7260, "pitch": 66, "duration": 220, "velocity": 100}, {"time": 7260, "pitch": 67, "duration": 165, "velocity": 100}, {"time": 7425, "pitch": 71, "duration": 55, "velocity": 100}, {"time": 7480, "pitch": 66, "duration": 165, "velocity": 100}, {"time": 7700, "pitch": 62, "duration": 110, "velocity": 100}, {"time": 7700, "pitch": 66, "duration": 110, "velocity": 100}, {"time": 7810, "pitch": 64, "duration": 110, "velocity": 100}, {"time": 7920, "pitch": 67, "duration": 165, "velocity": 100}, {"time": 8140, "pitch": 66, "duration": 110, "velocity": 100}, {"time": 8140, "pitch": 67, "duration": 165, "velocity": 100}, {"time": 8140, "pitch": 69, "duration": 110, "velocity": 100}, {"time": 8305, "pitch": 69, "duration": 55, "velocity": 100}, {"time": 8360, "pitch": 71, "duration": 440, "velocity": 100}, {"time": 8580, "pitch": 66, "duration": 220, "velocity": 100}, {"time": 8800, "pitch": 69, "duration": 165, "velocity": 100}, {"time": 8965, "pitch": 71, "duration": 55, "velocity": 100}, {"time": 9020, "pitch": 69, "duration": 165, "velocity": 100}, {"time": 9020, "pitch": 72, "duration": 165, "velocity": 100}, {"time": 9240, "pitch": 69, "duration": 165, "velocity": 100}, {"time": 9460, "pitch": 69, "duration": 165, "velocity": 100}, {"time": 9460, "pitch": 71, "duration": 110, "velocity": 100}, {"time": 9625, "pitch": 67, "duration": 55, "velocity": 100}, {"time": 9680, "pitch": 69, "duration": 165, "velocity": 100}, {"time": 9680, "pitch": 69, "duration": 220, "velocity": 100}, {"time": 9845, "pitch": 71, "duration": 55, "velocity": 100}, {"time": 9900, "pitch": 69, "duration": 110, "velocity": 100}, {"time": 9900, "pitch": 69, "duration": 165, "velocity": 100}, {"time": 10065, "pitch": 67, "duration": 55, "velocity": 100}, {"time": 10120, "pitch": 69, "duration": 220, "velocity": 100}, {"time": 10340, "pitch": 69, "duration": 220, "velocity": 100}, {"time": 10725, "pitch": 69, "duration": 55, "velocity": 100}, {"time": 10780, "pitch": 67, "duration": 165, "velocity": 100}, {"time": 10780, "pitch": 74, "duration": 385, "velocity": 100}, {"time": 10945, "pitch": 71, "duration": 55, "velocity": 100}, {"time": 11055, "pitch": 62, "duration": 275, "velocity": 100}, {"time": 11110, "pitch": 66, "duration": 165, "velocity": 100}, {"time": 11165, "pitch": 69, "duration": 55, "velocity": 100}, {"time": 11220, "pitch": 74, "duration": 110, "velocity": 100}, {"time": 11330, "pitch": 69, "duration": 110, "velocity": 100}, {"time": 11605, "pitch": 66, "duration": 55, "velocity": 100}, {"time": 11660, "pitch": 67, "duration": 165, "velocity": 100}, {"time": 11770, "pitch": 66, "duration": 55, "velocity": 100}, {"time": 11825, "pitch": 66, "duration": 55, "velocity": 100}, {"time": 11825, "pitch": 69, "duration": 55, "velocity": 100}, {"time": 12100, "pitch": 69, "duration": 165, "velocity": 100}, {"time": 12320, "pitch": 66, "duration": 165, "velocity": 100}, {"time": 12485, "pitch": 71, "duration": 55, "velocity": 100}, {"time": 12540, "pitch": 72, "duration": 165, "velocity": 100}, {"time": 12760, "pitch": 74, "duration": 165, "velocity": 100}, {"time": 12980, "pitch": 67, "duration": 165, "velocity": 100}, {"time": 13145, "pitch": 69, "duration": 55, "velocity": 100}, {"time": 13200, "pitch": 69, "duration": 165, "velocity": 100}, {"time": 13200, "pitch": 71, "duration": 165, "velocity": 100}, {"time": 13420, "pitch": 69, "duration": 110, "velocity": 100}, {"time": 13420, "pitch": 71, "duration": 165, "velocity": 100}, {"time": 13585, "pitch": 69, "duration": 55, "velocity": 100}, {"time": 13640, "pitch": 67, "duration": 220, "velocity": 100}, {"time": 13860, "pitch": 66, "duration": 220, "velocity": 100}, {"time": 14080, "pitch": 69, "duration": 165, "velocity": 100}, {"time": 14300, "pitch": 76, "duration": 165, "velocity": 100}, {"time": 14520, "pitch": 69, "duration": 165, "velocity": 100}, {"time": 14520, "pitch": 74, "duration": 385, "velocity": 100}, {"time": 14740, "pitch": 71, "duration": 110, "velocity": 100}, {"time": 14905, "pitch": 71, "duration": 55, "velocity": 100}, {"time": 14960, "pitch": 69, "duration": 220, "velocity": 100}, {"time": 14960, "pitch": 72, "duration": 165, "velocity": 100}, {"time": 15125, "pitch": 71, "duration": 55, "velocity": 100}, {"time": 15180, "pitch": 69, "duration": 110, "velocity": 100}, {"time": 15180, "pitch": 72, "duration": 165, "velocity": 100}, {"time": 15345, "pitch": 74, "duration": 55, "velocity": 100}, {"time": 15400, "pitch": 71, "duration": 440, "velocity": 100}, {"time": 15400, "pitch": 74, "duration": 220, "velocity": 100}, {"time": 15620, "pitch": 74, "duration": 220, "velocity": 100}, {"time": 15840, "pitch": 54, "duration": 880, "velocity": 100}, {"time": 15840, "pitch": 69, "duration": 275, "velocity": 100}, {"time": 15840, "pitch": 74, "duration": 275, "velocity": 100}, {"time": 16005, "pitch": 71, "duration": 55, "velocity": 100}, {"time": 16060, "pitch": 62, "duration": 385, "velocity": 100}, {"time": 16060, "pitch": 72, "duration": 165, "velocity": 100}, {"time": 16170, "pitch": 66, "duration": 165, "velocity": 100}, {"time": 16280, "pitch": 69, "duration": 165, "velocity": 100}, {"time": 16280, "pitch": 74, "duration": 165, "velocity": 100}, {"time": 16280, "pitch": 74, "duration": 165, "velocity": 100}, {"time": 16390, "pitch": 66, "duration": 55, "velocity": 100}, {"time": 16445, "pitch": 71, "duration": 55, "velocity": 100}, {"time": 16500, "pitch": 69, "duration": 165, "velocity": 100}, {"time": 16500, "pitch": 69, "duration": 220, "velocity": 100}, {"time": 16500, "pitch": 74, "duration": 220, "velocity": 100}, {"time": 16665, "pitch": 67, "duration": 55, "velocity": 100}, {"time": 16720, "pitch": 69, "duration": 165, "velocity": 100}, {"time": 16885, "pitch": 71, "duration": 55, "velocity": 100}, {"time": 16940, "pitch": 66, "duration": 110, "velocity": 100}, {"time": 16940, "pitch": 69, "duration": 165, "velocity": 100}, {"time": 16940, "pitch": 74, "duration": 110, "velocity": 100}, {"time": 17050, "pitch": 64, "duration": 110, "velocity": 100}, {"time": 17105, "pitch": 67, "duration": 55, "velocity": 100}, {"time": 17160, "pitch": 64, "duration": 220, "velocity": 100}, {"time": 17270, "pitch": 62, "duration": 330, "velocity": 100}, {"time": 17380, "pitch": 62, "duration": 110, "velocity": 100}, {"time": 17490, "pitch": 64, "duration": 110, "velocity": 100}, {"time": 17490, "pitch": 69, "duration": 110, "velocity": 100}, {"time": 17600, "pitch": 81, "duration": 220, "velocity": 100}, {"time": 17820, "pitch": 66, "duration": 220, "velocity": 100}, {"time": 17820, "pitch": 67, "duration": 165, "velocity": 100}, {"time": 17930, "pitch": 62, "duration": 330, "velocity": 100}, {"time": 17985, "pitch": 71, "duration": 55, "velocity": 100}, {"time": 18040, "pitch": 62, "duration": 220, "velocity": 100}, {"time": 18040, "pitch": 66, "duration": 165, "velocity": 100}, {"time": 18040, "pitch": 69, "duration": 165, "velocity": 100}, {"time": 18260, "pitch": 62, "duration": 110, "velocity": 100}, {"time": 18260, "pitch": 66, "duration": 165, "velocity": 100}, {"time": 18260, "pitch": 69, "duration": 220, "velocity": 100}, {"time": 18260, "pitch": 74, "duration": 220, "velocity": 100}, {"time": 18370, "pitch": 64, "duration": 110, "velocity": 100}, {"time": 18480, "pitch": 62, "duration": 165, "velocity": 100}, {"time": 18480, "pitch": 66, "duration": 165, "velocity": 100}, {"time": 18590, "pitch": 57, "duration": 330, "velocity": 100}, {"time": 18645, "pitch": 66, "duration": 55, "velocity": 100}, {"time": 18700, "pitch": 62, "duration": 110, "velocity": 100}, {"time": 18700, "pitch": 67, "duration": 165, "velocity": 100}, {"time": 18810, "pitch": 66, "duration": 110, "velocity": 100}, {"time": 18865, "pitch": 69, "duration": 55, "velocity": 100}, {"time": 18920, "pitch": 66, "duration": 220, "velocity": 100}, {"time": 18920, "pitch": 69, "duration": 165, "velocity": 100}, {"time": 18920, "pitch": 71, "duration": 440, "velocity": 100}, {"time": 19140, "pitch": 66, "duration": 110, "velocity": 100}, {"time": 19250, "pitch": 69, "duration": 110, "velocity": 100}, {"time": 19250, "pitch": 81, "duration": 55, "velocity": 100}, {"time": 19360, "pitch": 72, "duration": 165, "velocity": 100}, {"time": 19360, "pitch": 74, "duration": 220, "velocity": 100}, {"time": 19580, "pitch": 69, "duration": 220, "velocity": 100}, {"time": 19580, "pitch": 72, "duration": 165, "velocity": 100}, {"time": 19580, "pitch": 74, "duration": 220, "velocity": 100}, {"time": 19690, "pitch": 66, "duration": 110, "velocity": 100}, {"time": 19745, "pitch": 76, "duration": 55, "velocity": 100}, {"time": 19800, "pitch": 69, "duration": 165, "velocity": 100}, {"time": 19800, "pitch": 74, "duration": 165, "velocity": 100}, {"time": 19965, "pitch": 71, "duration": 55, "velocity": 100}, {"time": 20020, "pitch": 66, "duration": 220, "velocity": 100}, {"time": 20020, "pitch": 67, "duration": 165, "velocity": 100}, {"time": 20020, "pitch": 69, "duration": 220, "velocity": 100}, {"time": 20185, "pitch": 69, "duration": 55, "velocity": 100}, {"time": 20240, "pitch": 71, "duration": 165, "velocity": 100}, {"time": 20405, "pitch": 72, "duration": 55, "velocity": 100}, {"time": 20460, "pitch": 71, "duration": 165, "velocity": 100}, {"time": 20515, "pitch": 62, "duration": 275, "velocity": 100}, {"time": 20625, "pitch": 69, "duration": 55, "velocity": 100}, {"time": 20680, "pitch": 67, "duration": 220, "velocity": 100}, {"time": 20680, "pitch": 74, "duration": 220, "velocity": 100}, {"time": 20900, "pitch": 66, "duration": 220, "velocity": 100}, {"time": 20900, "pitch": 74, "duration": 220, "velocity": 100}, {"time": 20900, "pitch": 74, "duration": 220, "velocity": 100}, {"time": 21120, "pitch": 76, "duration": 220, "velocity": 100}, {"time": 21340, "pitch": 62, "duration": 220, "velocity": 100}, {"time": 21450, "pitch": 66, "duration": 165, "velocity": 100}, {"time": 21505, "pitch": 79, "duration": 55, "velocity": 100}, {"time": 21560, "pitch": 74, "duration": 385, "velocity": 100}, {"time": 21670, "pitch": 64, "duration": 110, "velocity": 100}, {"time": 21780, "pitch": 66, "duration": 110, "velocity": 100}, {"time": 21890, "pitch": 69, "duration": 110, "velocity": 100}, {"time": 21945, "pitch": 71, "duration": 55, "velocity": 100}, {"time": 22000, "pitch": 72, "duration": 165, "velocity": 100}, {"time": 22165, "pitch": 71, "duration": 55, "velocity": 100}, {"time": 22220, "pitch": 62, "duration": 220, "velocity": 100}, {"time": 22220, "pitch": 69, "duration": 110, "velocity": 100}, {"time": 22220, "pitch": 72, "duration": 165, "velocity": 100}, {"time": 22330, "pitch": 66, "duration": 110, "velocity": 100}, {"time": 22385, "pitch": 74, "duration": 55, "velocity": 100}, {"time": 22440, "pitch": 66, "duration": 220, "velocity": 100}, {"time": 22440, "pitch": 71, "duration": 440, "velocity": 100}, {"time": 22550, "pitch": 62, "duration": 330, "velocity": 100}, {"time": 22660, "pitch": 66, "duration": 110, "velocity": 100}, {"time": 22715, "pitch": 69, "duration": 55, "velocity": 100}, {"time": 22715, "pitch": 81, "duration": 55, "velocity": 100}, {"time": 22770, "pitch": 69, "duration": 110, "velocity": 100}, {"time": 22770, "pitch": 83, "duration": 55, "velocity": 100}, {"time": 22825, "pitch": 86, "duration": 55, "velocity": 100}, {"time": 22990, "pitch": 66, "duration": 220, "velocity": 100}, {"time": 23045, "pitch": 69, "duration": 55, "velocity": 100}, {"time": 23045, "pitch": 71, "duration": 55, "velocity": 100}, {"time": 23100, "pitch": 72, "duration": 165, "velocity": 100}, {"time": 23100, "pitch": 74, "duration": 385, "velocity": 100}, {"time": 23265, "pitch": 76, "duration": 55, "velocity": 100}, {"time": 23320, "pitch": 74, "duration": 165, "velocity": 100}, {"time": 23375, "pitch": 62, "duration": 275, "velocity": 100}, {"time": 23430, "pitch": 66, "duration": 165, "velocity": 100}, {"time": 23485, "pitch": 69, "duration": 55, "velocity": 100}, {"time": 23485, "pitch": 71, "duration": 55, "velocity": 100}, {"time": 23540, "pitch": 69, "duration": 165, "velocity": 100}, {"time": 23540, "pitch": 74, "duration": 110, "velocity": 100}, {"time": 23650, "pitch": 69, "duration": 110, "velocity": 100}, {"time": 23705, "pitch": 67, "duration": 55, "velocity": 100}, {"time": 23760, "pitch": 69, "duration": 165, "velocity": 100}, {"time": 23870, "pitch": 62, "duration": 110, "velocity": 100}, {"time": 23925, "pitch": 57, "duration": 55, "velocity": 100}, {"time": 23925, "pitch": 71, "duration": 55, "velocity": 100}, {"time": 23980, "pitch": 66, "duration": 55, "velocity": 100}, {"time": 23980, "pitch": 69, "duration": 165, "velocity": 100}, {"time": 24090, "pitch": 62, "duration": 110, "velocity": 100}, {"time": 24090, "pitch": 66, "duration": 55, "velocity": 100}, {"time": 24145, "pitch": 66, "duration": 55, "velocity": 100}, {"time": 24145, "pitch": 67, "duration": 55, "velocity": 100}, {"time": 24200, "pitch": 64, "duration": 220, "velocity": 100}, {"time": 24255, "pitch": 57, "duration": 275, "velocity": 100}, {"time": 24310, "pitch": 66, "duration": 330, "velocity": 100}, {"time": 24420, "pitch": 62, "duration": 110, "velocity": 100}, {"time": 24420, "pitch": 69, "duration": 165, "velocity": 100}, {"time": 24530, "pitch": 64, "duration": 110, "velocity": 100}, {"time": 24640, "pitch": 62, "duration": 165, "velocity": 100}, {"time": 24640, "pitch": 66, "duration": 165, "velocity": 100}, {"time": 24640, "pitch": 67, "duration": 220, "velocity": 100}, {"time": 24860, "pitch": 62, "duration": 220, "velocity": 100}, {"time": 24860, "pitch": 66, "duration": 220, "velocity": 100}, {"time": 24860, "pitch": 67, "duration": 165, "velocity": 100}, {"time": 25025, "pitch": 71, "duration": 55, "velocity": 100}, {"time": 25080, "pitch": 62, "duration": 165, "velocity": 100}, {"time": 25080, "pitch": 62, "duration": 220, "velocity": 100}, {"time": 25080, "pitch": 66, "duration": 165, "velocity": 100}, {"time": 25300, "pitch": 62, "duration": 110, "velocity": 100}, {"time": 25300, "pitch": 62, "duration": 110, "velocity": 100}, {"time": 25300, "pitch": 66, "duration": 110, "velocity": 100}, {"time": 25410, "pitch": 64, "duration": 110, "velocity": 100}, {"time": 25520, "pitch": 66, "duration": 165, "velocity": 100}, {"time": 25520, "pitch": 67, "duration": 165, "velocity": 100}, {"time": 25520, "pitch": 69, "duration": 165, "velocity": 100}, {"time": 25685, "pitch": 66, "duration": 55, "velocity": 100}, {"time": 25740, "pitch": 66, "duration": 110, "velocity": 100}, {"time": 25740, "pitch": 67, "duration": 165, "velocity": 100}, {"time": 25740, "pitch": 69, "duration": 110, "velocity": 100}, {"time": 25905, "pitch": 69, "duration": 55, "velocity": 100}, {"time": 25960, "pitch": 71, "duration": 440, "velocity": 100}, {"time": 26180, "pitch": 62, "duration": 220, "velocity": 100}, {"time": 26180, "pitch": 66, "duration": 220, "velocity": 100}, {"time": 26400, "pitch": 66, "duration": 220, "velocity": 100}, {"time": 26400, "pitch": 69, "duration": 165, "velocity": 100}, {"time": 26400, "pitch": 72, "duration": 165, "velocity": 100}, {"time": 26565, "pitch": 71, "duration": 55, "velocity": 100}, {"time": 26620, "pitch": 66, "duration": 165, "velocity": 100}, {"time": 26620, "pitch": 69, "duration": 165, "velocity": 100}, {"time": 26620, "pitch": 72, "duration": 165, "velocity": 100}, {"time": 26785, "pitch": 76, "duration": 55, "velocity": 100}, {"time": 26840, "pitch": 66, "duration": 165, "velocity": 100}, {"time": 26840, "pitch": 69, "duration": 165, "velocity": 100}, {"time": 26840, "pitch": 74, "duration": 165, "velocity": 100}, {"time": 27005, "pitch": 71, "duration": 55, "velocity": 100}, {"time": 27060, "pitch": 66, "duration": 55, "velocity": 100}, {"time": 27060, "pitch": 67, "duration": 165, "velocity": 100}, {"time": 27060, "pitch": 71, "duration": 110, "velocity": 100}, {"time": 27225, "pitch": 69, "duration": 55, "velocity": 100}, {"time": 27280, "pitch": 66, "duration": 330, "velocity": 100}, {"time": 27280, "pitch": 69, "duration": 220, "velocity": 100}, {"time": 27280, "pitch": 71, "duration": 165, "velocity": 100}, {"time": 27445, "pitch": 72, "duration": 55, "velocity": 100}, {"time": 27500, "pitch": 66, "duration": 110, "velocity": 100}, {"time": 27500, "pitch": 69, "duration": 110, "velocity": 100}, {"time": 27500, "pitch": 71, "duration": 165, "velocity": 100}, {"time": 27665, "pitch": 69, "duration": 55, "velocity": 100}, {"time": 27720, "pitch": 67, "duration": 220, "velocity": 100}, {"time": 27720, "pitch": 69, "duration": 220, "velocity": 100}, {"time": 27720, "pitch": 74, "duration": 220, "velocity": 100}, {"time": 27940, "pitch": 67, "duration": 220, "velocity": 100}, {"time": 27940, "pitch": 69, "duration": 220, "velocity": 100}, {"time": 27940, "pitch": 74, "duration": 220, "velocity": 100}]}, {"program": 70, "is_drum": false, "name": "Tenor", "notes": [{"time": 0, "pitch": 67, "duration": 220, "velocity": 100}, {"time": 110, "pitch": 66, "duration": 220, "velocity": 100}, {"time": 220, "pitch": 67, "duration": 165, "velocity": 100}, {"time": 440, "pitch": 62, "duration": 220, "velocity": 100}, {"time": 495, "pitch": 62, "duration": 275, "velocity": 100}, {"time": 770, "pitch": 64, "duration": 110, "velocity": 100}, {"time": 880, "pitch": 67, "duration": 165, "velocity": 100}, {"time": 990, "pitch": 62, "duration": 110, "velocity": 100}, {"time": 1045, "pitch": 66, "duration": 55, "velocity": 100}, {"time": 1100, "pitch": 66, "duration": 55, "velocity": 100}, {"time": 1210, "pitch": 62, "duration": 110, "velocity": 100}, {"time": 1265, "pitch": 66, "duration": 55, "velocity": 100}, {"time": 1430, "pitch": 66, "duration": 330, "velocity": 100}, {"time": 1760, "pitch": 62, "duration": 165, "velocity": 100}, {"time": 1980, "pitch": 66, "duration": 220, "velocity": 100}, {"time": 2200, "pitch": 66, "duration": 165, "velocity": 100}, {"time": 2420, "pitch": 66, "duration": 110, "velocity": 100}, {"time": 2585, "pitch": 67, "duration": 55, "velocity": 100}, {"time": 2640, "pitch": 66, "duration": 165, "velocity": 100}, {"time": 2860, "pitch": 66, "duration": 110, "velocity": 100}, {"time": 3025, "pitch": 67, "duration": 55, "velocity": 100}, {"time": 3080, "pitch": 62, "duration": 220, "velocity": 100}, {"time": 3300, "pitch": 62, "duration": 110, "velocity": 100}, {"time": 3300, "pitch": 62, "duration": 220, "velocity": 100}, {"time": 3410, "pitch": 64, "duration": 110, "velocity": 100}, {"time": 3520, "pitch": 66, "duration": 220, "velocity": 100}, {"time": 3740, "pitch": 66, "duration": 165, "velocity": 100}, {"time": 3960, "pitch": 62, "duration": 220, "velocity": 100}, {"time": 4180, "pitch": 62, "duration": 110, "velocity": 100}, {"time": 4290, "pitch": 64, "duration": 110, "velocity": 100}, {"time": 4400, "pitch": 66, "duration": 330, "velocity": 100}, {"time": 4565, "pitch": 66, "duration": 55, "velocity": 100}, {"time": 4620, "pitch": 66, "duration": 110, "velocity": 100}, {"time": 4840, "pitch": 69, "duration": 220, "velocity": 100}, {"time": 5060, "pitch": 69, "duration": 220, "velocity": 100}, {"time": 5390, "pitch": 66, "duration": 220, "velocity": 100}, {"time": 5720, "pitch": 74, "duration": 165, "velocity": 100}, {"time": 5830, "pitch": 66, "duration": 220, "velocity": 100}, {"time": 5940, "pitch": 67, "duration": 165, "velocity": 100}, {"time": 6050, "pitch": 69, "duration": 110, "velocity": 100}, {"time": 6105, "pitch": 69, "duration": 55, "velocity": 100}, {"time": 6160, "pitch": 71, "duration": 165, "velocity": 100}, {"time": 6270, "pitch": 62, "duration": 110, "velocity": 100}, {"time": 6380, "pitch": 66, "duration": 55, "velocity": 100}, {"time": 6490, "pitch": 62, "duration": 110, "velocity": 100}, {"time": 6600, "pitch": 67, "duration": 220, "velocity": 100}, {"time": 6710, "pitch": 66, "duration": 330, "velocity": 100}, {"time": 6820, "pitch": 62, "duration": 110, "velocity": 100}, {"time": 6930, "pitch": 64, "duration": 110, "velocity": 100}, {"time": 7040, "pitch": 62, "duration": 165, "velocity": 100}, {"time": 7260, "pitch": 62, "duration": 220, "velocity": 100}, {"time": 7480, "pitch": 62, "duration": 165, "velocity": 100}, {"time": 7480, "pitch": 62, "duration": 220, "velocity": 100}, {"time": 7700, "pitch": 62, "duration": 110, "velocity": 100}, {"time": 7920, "pitch": 66, "duration": 165, "velocity": 100}, {"time": 8085, "pitch": 66, "duration": 55, "velocity": 100}, {"time": 8360, "pitch": 62, "duration": 220, "velocity": 100}, {"time": 8580, "pitch": 62, "duration": 220, "velocity": 100}, {"time": 8800, "pitch": 66, "duration": 220, "velocity": 100}, {"time": 9020, "pitch": 66, "duration": 165, "velocity": 100}, {"time": 9240, "pitch": 66, "duration": 165, "velocity": 100}, {"time": 9405, "pitch": 71, "duration": 55, "velocity": 100}, {"time": 9460, "pitch": 66, "duration": 55, "velocity": 100}, {"time": 9680, "pitch": 66, "duration": 330, "velocity": 100}, {"time": 9900, "pitch": 66, "duration": 110, "velocity": 100}, {"time": 10120, "pitch": 64, "duration": 220, "velocity": 100}, {"time": 10340, "pitch": 62, "duration": 110, "velocity": 100}, {"time": 10560, "pitch": 67, "duration": 220, "velocity": 100}, {"time": 10670, "pitch": 66, "duration": 220, "velocity": 100}, {"time": 11000, "pitch": 62, "duration": 220, "velocity": 100}, {"time": 11220, "pitch": 62, "duration": 110, "velocity": 100}, {"time": 11330, "pitch": 64, "duration": 110, "velocity": 100}, {"time": 11440, "pitch": 67, "duration": 165, "velocity": 100}, {"time": 11550, "pitch": 62, "duration": 110, "velocity": 100}, {"time": 11660, "pitch": 66, "duration": 55, "velocity": 100}, {"time": 11715, "pitch": 57, "duration": 165, "velocity": 100}, {"time": 11770, "pitch": 62, "duration": 110, "velocity": 100}, {"time": 11880, "pitch": 71, "duration": 440, "velocity": 100}, {"time": 11990, "pitch": 66, "duration": 330, "velocity": 100}, {"time": 12320, "pitch": 62, "duration": 165, "velocity": 100}, {"time": 12540, "pitch": 66, "duration": 220, "velocity": 100}, {"time": 12705, "pitch": 76, "duration": 55, "velocity": 100}, {"time": 12760, "pitch": 62, "duration": 165, "velocity": 100}, {"time": 12760, "pitch": 66, "duration": 165, "velocity": 100}, {"time": 12925, "pitch": 71, "duration": 55, "velocity": 100}, {"time": 12980, "pitch": 66, "duration": 110, "velocity": 100}, {"time": 13200, "pitch": 66, "duration": 165, "velocity": 100}, {"time": 13365, "pitch": 72, "duration": 55, "velocity": 100}, {"time": 13420, "pitch": 66, "duration": 110, "velocity": 100}, {"time": 13640, "pitch": 62, "duration": 220, "velocity": 100}, {"time": 13860, "pitch": 62, "duration": 220, "velocity": 100}, {"time": 14080, "pitch": 66, "duration": 220, "velocity": 100}, {"time": 14300, "pitch": 66, "duration": 165, "velocity": 100}, {"time": 14300, "pitch": 69, "duration": 165, "velocity": 100}, {"time": 14520, "pitch": 66, "duration": 165, "velocity": 100}, {"time": 14740, "pitch": 66, "duration": 55, "velocity": 100}, {"time": 14960, "pitch": 66, "duration": 330, "velocity": 100}, {"time": 15180, "pitch": 66, "duration": 110, "velocity": 100}, {"time": 15400, "pitch": 69, "duration": 220, "velocity": 100}, {"time": 15620, "pitch": 69, "duration": 220, "velocity": 100}, {"time": 17380, "pitch": 66, "duration": 110, "velocity": 100}, {"time": 17600, "pitch": 67, "duration": 220, "velocity": 100}, {"time": 17710, "pitch": 62, "duration": 165, "velocity": 100}, {"time": 19030, "pitch": 57, "duration": 275, "velocity": 100}, {"time": 19360, "pitch": 69, "duration": 220, "velocity": 100}, {"time": 19470, "pitch": 62, "duration": 330, "velocity": 100}, {"time": 19525, "pitch": 71, "duration": 55, "velocity": 100}, {"time": 19800, "pitch": 66, "duration": 220, "velocity": 100}, {"time": 20350, "pitch": 54, "duration": 110, "velocity": 100}, {"time": 20405, "pitch": 57, "duration": 495, "velocity": 100}, {"time": 21230, "pitch": 54, "duration": 770, "velocity": 100}, {"time": 21560, "pitch": 57, "duration": 275, "velocity": 100}, {"time": 22110, "pitch": 57, "duration": 275, "velocity": 100}, {"time": 22880, "pitch": 72, "duration": 165, "velocity": 100}, {"time": 22935, "pitch": 62, "duration": 385, "velocity": 100}, {"time": 23815, "pitch": 54, "duration": 165, "velocity": 100}, {"time": 23980, "pitch": 50, "duration": 165, "velocity": 100}, {"time": 24035, "pitch": 57, "duration": 165, "velocity": 100}, {"time": 24970, "pitch": 54, "duration": 330, "velocity": 100}, {"time": 25190, "pitch": 57, "duration": 330, "velocity": 100}, {"time": 25630, "pitch": 57, "duration": 165, "velocity": 100}, {"time": 25960, "pitch": 62, "duration": 220, "velocity": 100}, {"time": 26070, "pitch": 50, "duration": 330, "velocity": 100}, {"time": 26400, "pitch": 50, "duration": 330, "velocity": 100}, {"time": 27830, "pitch": 62, "duration": 330, "velocity": 100}]}, {"program": 71, "is_drum": false, "name": "Bass", "notes": [{"time": 0, "pitch": 54, "duration": 385, "velocity": 100}, {"time": 55, "pitch": 62, "duration": 385, "velocity": 100}, {"time": 440, "pitch": 54, "duration": 385, "velocity": 100}, {"time": 660, "pitch": 62, "duration": 110, "velocity": 100}, {"time": 880, "pitch": 50, "duration": 220, "velocity": 100}, {"time": 935, "pitch": 54, "duration": 165, "velocity": 100}, {"time": 1045, "pitch": 57, "duration": 55, "velocity": 100}, {"time": 1100, "pitch": 50, "duration": 165, "velocity": 100}, {"time": 1155, "pitch": 57, "duration": 165, "velocity": 100}, {"time": 1320, "pitch": 50, "duration": 385, "velocity": 100}, {"time": 1375, "pitch": 57, "duration": 275, "velocity": 100}, {"time": 1760, "pitch": 45, "duration": 770, "velocity": 100}, {"time": 1980, "pitch": 62, "duration": 220, "velocity": 100}, {"time": 2090, "pitch": 54, "duration": 330, "velocity": 100}, {"time": 2200, "pitch": 62, "duration": 165, "velocity": 100}, {"time": 2310, "pitch": 57, "duration": 330, "velocity": 100}, {"time": 2420, "pitch": 62, "duration": 110, "velocity": 100}, {"time": 2640, "pitch": 50, "duration": 330, "velocity": 100}, {"time": 2750, "pitch": 57, "duration": 165, "velocity": 100}, {"time": 3080, "pitch": 42, "duration": 385, "velocity": 100}, {"time": 3190, "pitch": 50, "duration": 330, "velocity": 100}, {"time": 3520, "pitch": 50, "duration": 330, "velocity": 100}, {"time": 3960, "pitch": 50, "duration": 330, "velocity": 100}, {"time": 4070, "pitch": 57, "duration": 165, "velocity": 100}, {"time": 4400, "pitch": 50, "duration": 330, "velocity": 100}, {"time": 4840, "pitch": 54, "duration": 440, "velocity": 100}, {"time": 4950, "pitch": 62, "duration": 330, "velocity": 100}, {"time": 5280, "pitch": 54, "duration": 385, "velocity": 100}, {"time": 5335, "pitch": 62, "duration": 385, "velocity": 100}, {"time": 5720, "pitch": 54, "duration": 385, "velocity": 100}, {"time": 5775, "pitch": 62, "duration": 275, "velocity": 100}, {"time": 6160, "pitch": 50, "duration": 220, "velocity": 100}, {"time": 6215, "pitch": 57, "duration": 165, "velocity": 100}, {"time": 6325, "pitch": 57, "duration": 55, "velocity": 100}, {"time": 6380, "pitch": 50, "duration": 165, "velocity": 100}, {"time": 6435, "pitch": 57, "duration": 165, "velocity": 100}, {"time": 6600, "pitch": 50, "duration": 385, "velocity": 100}, {"time": 6655, "pitch": 57, "duration": 275, "velocity": 100}, {"time": 7040, "pitch": 45, "duration": 770, "velocity": 100}, {"time": 7370, "pitch": 54, "duration": 330, "velocity": 100}, {"time": 7590, "pitch": 57, "duration": 330, "velocity": 100}, {"time": 7920, "pitch": 50, "duration": 330, "velocity": 100}, {"time": 8030, "pitch": 57, "duration": 165, "velocity": 100}, {"time": 8360, "pitch": 42, "duration": 385, "velocity": 100}, {"time": 8470, "pitch": 50, "duration": 330, "velocity": 100}, {"time": 8800, "pitch": 50, "duration": 330, "velocity": 100}, {"time": 9240, "pitch": 50, "duration": 330, "velocity": 100}, {"time": 9350, "pitch": 57, "duration": 165, "velocity": 100}, {"time": 9680, "pitch": 50, "duration": 330, "velocity": 100}, {"time": 10120, "pitch": 54, "duration": 440, "velocity": 100}, {"time": 10230, "pitch": 62, "duration": 330, "velocity": 100}, {"time": 10450, "pitch": 64, "duration": 110, "velocity": 100}, {"time": 10560, "pitch": 54, "duration": 385, "velocity": 100}, {"time": 10615, "pitch": 62, "duration": 385, "velocity": 100}, {"time": 11000, "pitch": 54, "duration": 385, "velocity": 100}, {"time": 11440, "pitch": 50, "duration": 220, "velocity": 100}, {"time": 11495, "pitch": 54, "duration": 165, "velocity": 100}, {"time": 11605, "pitch": 57, "duration": 55, "velocity": 100}, {"time": 11660, "pitch": 50, "duration": 165, "velocity": 100}, {"time": 11880, "pitch": 50, "duration": 385, "velocity": 100}, {"time": 11935, "pitch": 57, "duration": 275, "velocity": 100}, {"time": 12320, "pitch": 45, "duration": 770, "velocity": 100}, {"time": 12540, "pitch": 62, "duration": 220, "velocity": 100}, {"time": 12650, "pitch": 54, "duration": 330, "velocity": 100}, {"time": 12870, "pitch": 57, "duration": 330, "velocity": 100}, {"time": 12980, "pitch": 62, "duration": 110, "velocity": 100}, {"time": 13200, "pitch": 50, "duration": 330, "velocity": 100}, {"time": 13310, "pitch": 57, "duration": 165, "velocity": 100}, {"time": 13640, "pitch": 42, "duration": 385, "velocity": 100}, {"time": 13750, "pitch": 50, "duration": 330, "velocity": 100}, {"time": 14080, "pitch": 50, "duration": 330, "velocity": 100}, {"time": 14520, "pitch": 50, "duration": 330, "velocity": 100}, {"time": 14630, "pitch": 57, "duration": 165, "velocity": 100}, {"time": 14960, "pitch": 50, "duration": 330, "velocity": 100}, {"time": 15400, "pitch": 54, "duration": 440, "velocity": 100}, {"time": 15510, "pitch": 62, "duration": 330, "velocity": 100}, {"time": 16720, "pitch": 50, "duration": 385, "velocity": 100}, {"time": 16830, "pitch": 57, "duration": 330, "velocity": 100}, {"time": 17160, "pitch": 54, "duration": 385, "velocity": 100}, {"time": 17600, "pitch": 50, "duration": 770, "velocity": 100}, {"time": 18480, "pitch": 50, "duration": 385, "velocity": 100}, {"time": 18920, "pitch": 50, "duration": 385, "velocity": 100}, {"time": 19360, "pitch": 50, "duration": 385, "velocity": 100}, {"time": 19800, "pitch": 50, "duration": 440, "velocity": 100}, {"time": 20240, "pitch": 50, "duration": 495, "velocity": 100}, {"time": 20515, "pitch": 50, "duration": 495, "velocity": 100}, {"time": 21120, "pitch": 45, "duration": 880, "velocity": 100}, {"time": 22000, "pitch": 50, "duration": 330, "velocity": 100}, {"time": 22440, "pitch": 54, "duration": 440, "velocity": 100}, {"time": 22880, "pitch": 54, "duration": 385, "velocity": 100}, {"time": 23320, "pitch": 54, "duration": 385, "velocity": 100}, {"time": 23760, "pitch": 50, "duration": 220, "velocity": 100}, {"time": 24200, "pitch": 50, "duration": 385, "velocity": 100}, {"time": 24640, "pitch": 45, "duration": 770, "velocity": 100}, {"time": 25520, "pitch": 50, "duration": 330, "velocity": 100}, {"time": 25960, "pitch": 42, "duration": 385, "velocity": 100}, {"time": 26840, "pitch": 50, "duration": 330, "velocity": 100}, {"time": 26950, "pitch": 57, "duration": 165, "velocity": 100}, {"time": 27280, "pitch": 50, "duration": 330, "velocity": 100}, {"time": 27720, "pitch": 54, "duration": 440, "velocity": 100}]}]}