{"metadata": {"schema_version": "0.1", "title": "None", "source_filename": "20211209_141443.mid", "source_format": "midi"}, "resolution": 220, "tempos": [{"time": 0, "qpm": 120.0}], "time_signatures": [{"time": 0, "numerator": 4, "denominator": 4}], "tracks": [{"program": 73, "is_drum": false, "name": "Soprano", "notes": [{"time": 550, "pitch": 58, "duration": 165, "velocity": 100}, {"time": 550, "pitch": 63, "duration": 110, "velocity": 100}, {"time": 770, "pitch": 63, "duration": 55, "velocity": 100}, {"time": 770, "pitch": 70, "duration": 330, "velocity": 100}, {"time": 1430, "pitch": 63, "duration": 165, "velocity": 100}, {"time": 1430, "pitch": 65, "duration": 55, "velocity": 100}, {"time": 1540, "pitch": 67, "duration": 110, "velocity": 100}, {"time": 1650, "pitch": 65, "duration": 55, "velocity": 100}, {"time": 1705, "pitch": 65, "duration": 55, "velocity": 100}, {"time": 1760, "pitch": 67, "duration": 275, "velocity": 100}, {"time": 2035, "pitch": 67, "duration": 165, "velocity": 100}, {"time": 2200, "pitch": 67, "duration": 385, "velocity": 100}, {"time": 2365, "pitch": 63, "duration": 55, "velocity": 100}, {"time": 2530, "pitch": 72, "duration": 330, "velocity": 100}, {"time": 3190, "pitch": 63, "duration": 110, "velocity": 100}, {"time": 3410, "pitch": 60, "duration": 110, "velocity": 100}, {"time": 3520, "pitch": 75, "duration": 55, "velocity": 100}, {"time": 3630, "pitch": 67, "duration": 165, "velocity": 100}, {"time": 3630, "pitch": 72, "duration": 110, "velocity": 100}, {"time": 4070, "pitch": 67, "duration": 165, "velocity": 100}, {"time": 4070, "pitch": 72, "duration": 55, "velocity": 100}, {"time": 4180, "pitch": 74, "duration": 55, "velocity": 100}, {"time": 4290, "pitch": 70, "duration": 55, "velocity": 100}, {"time": 4675, "pitch": 67, "duration": 165, "velocity": 100}, {"time": 4950, "pitch": 70, "duration": 55, "velocity": 100}, {"time": 5170, "pitch": 70, "duration": 55, "velocity": 100}, {"time": 5280, "pitch": 75, "duration": 330, "velocity": 100}, {"time": 6160, "pitch": 72, "duration": 110, "velocity": 100}, {"time": 6160, "pitch": 79, "duration": 55, "velocity": 100}, {"time": 6270, "pitch": 79, "duration": 55, "velocity": 100}, {"time": 6270, "pitch": 84, "duration": 55, "velocity": 100}, {"time": 6380, "pitch": 79, "duration": 55, "velocity": 100}, {"time": 6490, "pitch": 79, "duration": 55, "velocity": 100}, {"time": 6545, "pitch": 79, "duration": 55, "velocity": 100}, {"time": 7260, "pitch": 70, "duration": 220, "velocity": 100}, {"time": 7810, "pitch": 63, "duration": 110, "velocity": 100}, {"time": 7920, "pitch": 67, "duration": 165, "velocity": 100}, {"time": 8030, "pitch": 70, "duration": 110, "velocity": 100}, {"time": 8140, "pitch": 70, "duration": 660, "velocity": 100}, {"time": 8525, "pitch": 63, "duration": 165, "velocity": 100}, {"time": 8690, "pitch": 65, "duration": 110, "velocity": 100}, {"time": 8800, "pitch": 67, "duration": 275, "velocity": 100}, {"time": 8910, "pitch": 70, "duration": 110, "velocity": 100}, {"time": 9020, "pitch": 70, "duration": 165, "velocity": 100}, {"time": 9240, "pitch": 65, "duration": 165, "velocity": 100}, {"time": 9240, "pitch": 67, "duration": 220, "velocity": 100}, {"time": 9350, "pitch": 63, "duration": 110, "velocity": 100}, {"time": 9625, "pitch": 72, "duration": 220, "velocity": 100}, {"time": 9955, "pitch": 63, "duration": 110, "velocity": 100}, {"time": 10230, "pitch": 67, "duration": 110, "velocity": 100}, {"time": 10560, "pitch": 67, "duration": 385, "velocity": 100}, {"time": 10780, "pitch": 70, "duration": 165, "velocity": 100}, {"time": 11165, "pitch": 67, "duration": 165, "velocity": 100}, {"time": 11330, "pitch": 63, "duration": 220, "velocity": 100}, {"time": 11550, "pitch": 75, "duration": 110, "velocity": 100}, {"time": 12100, "pitch": 75, "duration": 165, "velocity": 100}, {"time": 12265, "pitch": 70, "duration": 55, "velocity": 100}, {"time": 12540, "pitch": 70, "duration": 165, "velocity": 100}, {"time": 12595, "pitch": 74, "duration": 110, "velocity": 100}, {"time": 12760, "pitch": 67, "duration": 110, "velocity": 100}, {"time": 12815, "pitch": 74, "duration": 110, "velocity": 100}, {"time": 12925, "pitch": 75, "duration": 165, "velocity": 100}, {"time": 13090, "pitch": 63, "duration": 110, "velocity": 100}, {"time": 13200, "pitch": 67, "duration": 440, "velocity": 100}, {"time": 14080, "pitch": 72, "duration": 385, "velocity": 100}, {"time": 14300, "pitch": 75, "duration": 220, "velocity": 100}, {"time": 14630, "pitch": 67, "duration": 110, "velocity": 100}, {"time": 14960, "pitch": 72, "duration": 165, "velocity": 100}, {"time": 15180, "pitch": 75, "duration": 220, "velocity": 100}, {"time": 15235, "pitch": 79, "duration": 110, "velocity": 100}, {"time": 15455, "pitch": 82, "duration": 110, "velocity": 100}, {"time": 15840, "pitch": 72, "duration": 275, "velocity": 100}, {"time": 16060, "pitch": 75, "duration": 220, "velocity": 100}, {"time": 16280, "pitch": 70, "duration": 165, "velocity": 100}, {"time": 16280, "pitch": 72, "duration": 165, "velocity": 100}, {"time": 16390, "pitch": 67, "duration": 110, "velocity": 100}, {"time": 16500, "pitch": 72, "duration": 220, "velocity": 100}, {"time": 16720, "pitch": 72, "duration": 385, "velocity": 100}, {"time": 16940, "pitch": 75, "duration": 110, "velocity": 100}, {"time": 17050, "pitch": 75, "duration": 330, "velocity": 100}, {"time": 17050, "pitch": 79, "duration": 110, "velocity": 100}, {"time": 17160, "pitch": 79, "duration": 165, "velocity": 100}, {"time": 17270, "pitch": 72, "duration": 165, "velocity": 100}, {"time": 17380, "pitch": 79, "duration": 165, "velocity": 100}, {"time": 17545, "pitch": 72, "duration": 55, "velocity": 100}, {"time": 17600, "pitch": 72, "duration": 385, "velocity": 100}, {"time": 17820, "pitch": 75, "duration": 220, "velocity": 100}, {"time": 17985, "pitch": 80, "duration": 110, "velocity": 100}, {"time": 18095, "pitch": 80, "duration": 110, "velocity": 100}, {"time": 18205, "pitch": 79, "duration": 165, "velocity": 100}, {"time": 18480, "pitch": 72, "duration": 165, "velocity": 100}, {"time": 18700, "pitch": 75, "duration": 220, "velocity": 100}, {"time": 19360, "pitch": 72, "duration": 275, "velocity": 100}, {"time": 19580, "pitch": 75, "duration": 220, "velocity": 100}, {"time": 19580, "pitch": 79, "duration": 110, "velocity": 100}, {"time": 19800, "pitch": 72, "duration": 165, "velocity": 100}, {"time": 19800, "pitch": 74, "duration": 110, "velocity": 100}, {"time": 19910, "pitch": 74, "duration": 220, "velocity": 100}, {"time": 20240, "pitch": 72, "duration": 385, "velocity": 100}, {"time": 20515, "pitch": 75, "duration": 110, "velocity": 100}, {"time": 20625, "pitch": 79, "duration": 110, "velocity": 100}, {"time": 20790, "pitch": 72, "duration": 165, "velocity": 100}, {"time": 20845, "pitch": 79, "duration": 165, "velocity": 100}, {"time": 21010, "pitch": 80, "duration": 110, "velocity": 100}, {"time": 21230, "pitch": 75, "duration": 110, "velocity": 100}, {"time": 21340, "pitch": 70, "duration": 220, "velocity": 100}, {"time": 21560, "pitch": 80, "duration": 165, "velocity": 100}, {"time": 21725, "pitch": 72, "duration": 220, "velocity": 100}, {"time": 21890, "pitch": 67, "duration": 110, "velocity": 100}, {"time": 22000, "pitch": 70, "duration": 220, "velocity": 100}, {"time": 22220, "pitch": 67, "duration": 220, "velocity": 100}, {"time": 22880, "pitch": 67, "duration": 165, "velocity": 100}, {"time": 23100, "pitch": 70, "duration": 165, "velocity": 100}, {"time": 23320, "pitch": 67, "duration": 110, "velocity": 100}, {"time": 23760, "pitch": 67, "duration": 385, "velocity": 100}, {"time": 23980, "pitch": 67, "duration": 220, "velocity": 100}, {"time": 24530, "pitch": 68, "duration": 110, "velocity": 100}, {"time": 24640, "pitch": 72, "duration": 385, "velocity": 100}, {"time": 25520, "pitch": 72, "duration": 165, "velocity": 100}, {"time": 26400, "pitch": 72, "duration": 275, "velocity": 100}, {"time": 26840, "pitch": 72, "duration": 165, "velocity": 100}, {"time": 27280, "pitch": 72, "duration": 385, "velocity": 100}, {"time": 35640, "pitch": 63, "duration": 165, "velocity": 100}, {"time": 36575, "pitch": 82, "duration": 110, "velocity": 100}, {"time": 38280, "pitch": 79, "duration": 165, "velocity": 100}, {"time": 42460, "pitch": 75, "duration": 110, "velocity": 100}, {"time": 42680, "pitch": 80, "duration": 165, "velocity": 100}, {"time": 43120, "pitch": 84, "duration": 440, "velocity": 100}, {"time": 51920, "pitch": 80, "duration": 55, "velocity": 100}, {"time": 52030, "pitch": 80, "duration": 55, "velocity": 100}, {"time": 52140, "pitch": 80, "duration": 55, "velocity": 100}, {"time": 54780, "pitch": 63, "duration": 55, "velocity": 100}]}, {"program": 68, "is_drum": false, "name": "Alto", "notes": [{"time": 110, "pitch": 65, "duration": 165, "velocity": 100}, {"time": 330, "pitch": 61, "duration": 55, "velocity": 100}, {"time": 550, "pitch": 55, "duration": 165, "velocity": 100}, {"time": 550, "pitch": 63, "duration": 110, "velocity": 100}, {"time": 660, "pitch": 67, "duration": 110, "velocity": 100}, {"time": 770, "pitch": 58, "duration": 55, "velocity": 100}, {"time": 825, "pitch": 63, "duration": 55, "velocity": 100}, {"time": 990, "pitch": 58, "duration": 165, "velocity": 100}, {"time": 1210, "pitch": 58, "duration": 55, "velocity": 100}, {"time": 1320, "pitch": 65, "duration": 110, "velocity": 100}, {"time": 1430, "pitch": 58, "duration": 55, "velocity": 100}, {"time": 1485, "pitch": 58, "duration": 55, "velocity": 100}, {"time": 1595, "pitch": 63, "duration": 110, "velocity": 100}, {"time": 1650, "pitch": 58, "duration": 55, "velocity": 100}, {"time": 1870, "pitch": 58, "duration": 165, "velocity": 100}, {"time": 2090, "pitch": 58, "duration": 55, "velocity": 100}, {"time": 2255, "pitch": 62, "duration": 55, "velocity": 100}, {"time": 2310, "pitch": 58, "duration": 110, "velocity": 100}, {"time": 2420, "pitch": 63, "duration": 110, "velocity": 100}, {"time": 2530, "pitch": 58, "duration": 55, "velocity": 100}, {"time": 2640, "pitch": 63, "duration": 660, "velocity": 100}, {"time": 2805, "pitch": 58, "duration": 55, "velocity": 100}, {"time": 2860, "pitch": 67, "duration": 220, "velocity": 100}, {"time": 2970, "pitch": 58, "duration": 165, "velocity": 100}, {"time": 3080, "pitch": 65, "duration": 110, "velocity": 100}, {"time": 3190, "pitch": 60, "duration": 220, "velocity": 100}, {"time": 3300, "pitch": 63, "duration": 110, "velocity": 100}, {"time": 3410, "pitch": 58, "duration": 110, "velocity": 100}, {"time": 3630, "pitch": 60, "duration": 220, "velocity": 100}, {"time": 3630, "pitch": 63, "duration": 165, "velocity": 100}, {"time": 3850, "pitch": 63, "duration": 55, "velocity": 100}, {"time": 3850, "pitch": 67, "duration": 55, "velocity": 100}, {"time": 4070, "pitch": 63, "duration": 165, "velocity": 100}, {"time": 4070, "pitch": 63, "duration": 165, "velocity": 100}, {"time": 4290, "pitch": 63, "duration": 55, "velocity": 100}, {"time": 4290, "pitch": 67, "duration": 55, "velocity": 100}, {"time": 4345, "pitch": 67, "duration": 55, "velocity": 100}, {"time": 4510, "pitch": 60, "duration": 165, "velocity": 100}, {"time": 4510, "pitch": 63, "duration": 165, "velocity": 100}, {"time": 4730, "pitch": 63, "duration": 55, "velocity": 100}, {"time": 4895, "pitch": 65, "duration": 55, "velocity": 100}, {"time": 4950, "pitch": 60, "duration": 55, "velocity": 100}, {"time": 4950, "pitch": 63, "duration": 55, "velocity": 100}, {"time": 5005, "pitch": 63, "duration": 55, "velocity": 100}, {"time": 5060, "pitch": 74, "duration": 55, "velocity": 100}, {"time": 5170, "pitch": 62, "duration": 110, "velocity": 100}, {"time": 5390, "pitch": 63, "duration": 165, "velocity": 100}, {"time": 5500, "pitch": 67, "duration": 220, "velocity": 100}, {"time": 5610, "pitch": 63, "duration": 55, "velocity": 100}, {"time": 5720, "pitch": 74, "duration": 220, "velocity": 100}, {"time": 5830, "pitch": 63, "duration": 110, "velocity": 100}, {"time": 5940, "pitch": 67, "duration": 220, "velocity": 100}, {"time": 6050, "pitch": 72, "duration": 330, "velocity": 100}, {"time": 6160, "pitch": 60, "duration": 55, "velocity": 100}, {"time": 6270, "pitch": 60, "duration": 110, "velocity": 100}, {"time": 6380, "pitch": 63, "duration": 55, "velocity": 100}, {"time": 6380, "pitch": 63, "duration": 220, "velocity": 100}, {"time": 6490, "pitch": 67, "duration": 55, "velocity": 100}, {"time": 6545, "pitch": 75, "duration": 55, "velocity": 100}, {"time": 7040, "pitch": 67, "duration": 385, "velocity": 100}, {"time": 7590, "pitch": 58, "duration": 110, "velocity": 100}, {"time": 7590, "pitch": 63, "duration": 110, "velocity": 100}, {"time": 7810, "pitch": 58, "duration": 55, "velocity": 100}, {"time": 7920, "pitch": 55, "duration": 165, "velocity": 100}, {"time": 8030, "pitch": 63, "duration": 165, "velocity": 100}, {"time": 8140, "pitch": 58, "duration": 165, "velocity": 100}, {"time": 8140, "pitch": 63, "duration": 110, "velocity": 100}, {"time": 8250, "pitch": 70, "duration": 110, "velocity": 100}, {"time": 8470, "pitch": 58, "duration": 55, "velocity": 100}, {"time": 8690, "pitch": 58, "duration": 55, "velocity": 100}, {"time": 8800, "pitch": 55, "duration": 165, "velocity": 100}, {"time": 8910, "pitch": 63, "duration": 275, "velocity": 100}, {"time": 9020, "pitch": 58, "duration": 165, "velocity": 100}, {"time": 9020, "pitch": 62, "duration": 110, "velocity": 100}, {"time": 9240, "pitch": 55, "duration": 110, "velocity": 100}, {"time": 9350, "pitch": 58, "duration": 110, "velocity": 100}, {"time": 9460, "pitch": 70, "duration": 220, "velocity": 100}, {"time": 9570, "pitch": 58, "duration": 110, "velocity": 100}, {"time": 9570, "pitch": 63, "duration": 110, "velocity": 100}, {"time": 9680, "pitch": 67, "duration": 330, "velocity": 100}, {"time": 9790, "pitch": 63, "duration": 385, "velocity": 100}, {"time": 9845, "pitch": 67, "duration": 110, "velocity": 100}, {"time": 9900, "pitch": 58, "duration": 275, "velocity": 100}, {"time": 10010, "pitch": 70, "duration": 275, "velocity": 100}, {"time": 10065, "pitch": 67, "duration": 110, "velocity": 100}, {"time": 10230, "pitch": 58, "duration": 55, "velocity": 100}, {"time": 10285, "pitch": 63, "duration": 165, "velocity": 100}, {"time": 10450, "pitch": 55, "duration": 55, "velocity": 100}, {"time": 10450, "pitch": 60, "duration": 110, "velocity": 100}, {"time": 10560, "pitch": 55, "duration": 165, "velocity": 100}, {"time": 10670, "pitch": 63, "duration": 110, "velocity": 100}, {"time": 10780, "pitch": 58, "duration": 165, "velocity": 100}, {"time": 10780, "pitch": 60, "duration": 110, "velocity": 100}, {"time": 11000, "pitch": 68, "duration": 165, "velocity": 100}, {"time": 11110, "pitch": 58, "duration": 110, "velocity": 100}, {"time": 11110, "pitch": 63, "duration": 110, "velocity": 100}, {"time": 11330, "pitch": 58, "duration": 55, "velocity": 100}, {"time": 11330, "pitch": 67, "duration": 110, "velocity": 100}, {"time": 11440, "pitch": 55, "duration": 165, "velocity": 100}, {"time": 11550, "pitch": 63, "duration": 165, "velocity": 100}, {"time": 11660, "pitch": 58, "duration": 165, "velocity": 100}, {"time": 11660, "pitch": 70, "duration": 110, "velocity": 100}, {"time": 11660, "pitch": 70, "duration": 220, "velocity": 100}, {"time": 11770, "pitch": 67, "duration": 275, "velocity": 100}, {"time": 11990, "pitch": 58, "duration": 55, "velocity": 100}, {"time": 12210, "pitch": 58, "duration": 55, "velocity": 100}, {"time": 12210, "pitch": 63, "duration": 110, "velocity": 100}, {"time": 12320, "pitch": 67, "duration": 220, "velocity": 100}, {"time": 12430, "pitch": 63, "duration": 385, "velocity": 100}, {"time": 12485, "pitch": 70, "duration": 110, "velocity": 100}, {"time": 12540, "pitch": 58, "duration": 165, "velocity": 100}, {"time": 12760, "pitch": 55, "duration": 55, "velocity": 100}, {"time": 12870, "pitch": 58, "duration": 110, "velocity": 100}, {"time": 12870, "pitch": 63, "duration": 110, "velocity": 100}, {"time": 13090, "pitch": 58, "duration": 55, "velocity": 100}, {"time": 13090, "pitch": 67, "duration": 220, "velocity": 100}, {"time": 13200, "pitch": 55, "duration": 165, "velocity": 100}, {"time": 13310, "pitch": 63, "duration": 110, "velocity": 100}, {"time": 13420, "pitch": 58, "duration": 275, "velocity": 100}, {"time": 13420, "pitch": 63, "duration": 110, "velocity": 100}, {"time": 13750, "pitch": 51, "duration": 55, "velocity": 100}, {"time": 13750, "pitch": 58, "duration": 55, "velocity": 100}, {"time": 13750, "pitch": 63, "duration": 55, "velocity": 100}, {"time": 13805, "pitch": 60, "duration": 165, "velocity": 100}, {"time": 13860, "pitch": 67, "duration": 110, "velocity": 100}, {"time": 13970, "pitch": 55, "duration": 55, "velocity": 100}, {"time": 13970, "pitch": 68, "duration": 110, "velocity": 100}, {"time": 13970, "pitch": 70, "duration": 110, "velocity": 100}, {"time": 14080, "pitch": 60, "duration": 165, "velocity": 100}, {"time": 14190, "pitch": 60, "duration": 110, "velocity": 100}, {"time": 14190, "pitch": 67, "duration": 385, "velocity": 100}, {"time": 14300, "pitch": 55, "duration": 55, "velocity": 100}, {"time": 14300, "pitch": 60, "duration": 110, "velocity": 100}, {"time": 14300, "pitch": 60, "duration": 165, "velocity": 100}, {"time": 14300, "pitch": 63, "duration": 165, "velocity": 100}, {"time": 14410, "pitch": 60, "duration": 110, "velocity": 100}, {"time": 14520, "pitch": 72, "duration": 165, "velocity": 100}, {"time": 14630, "pitch": 60, "duration": 110, "velocity": 100}, {"time": 14630, "pitch": 63, "duration": 110, "velocity": 100}, {"time": 14740, "pitch": 63, "duration": 165, "velocity": 100}, {"time": 14740, "pitch": 75, "duration": 165, "velocity": 100}, {"time": 14850, "pitch": 60, "duration": 55, "velocity": 100}, {"time": 14850, "pitch": 63, "duration": 55, "velocity": 100}, {"time": 14850, "pitch": 67, "duration": 110, "velocity": 100}, {"time": 14905, "pitch": 63, "duration": 220, "velocity": 100}, {"time": 14960, "pitch": 60, "duration": 165, "velocity": 100}, {"time": 15070, "pitch": 67, "duration": 165, "velocity": 100}, {"time": 15180, "pitch": 60, "duration": 55, "velocity": 100}, {"time": 15180, "pitch": 63, "duration": 55, "velocity": 100}, {"time": 15345, "pitch": 79, "duration": 110, "velocity": 100}, {"time": 15510, "pitch": 63, "duration": 55, "velocity": 100}, {"time": 15565, "pitch": 63, "duration": 165, "velocity": 100}, {"time": 15730, "pitch": 60, "duration": 55, "velocity": 100}, {"time": 15730, "pitch": 63, "duration": 55, "velocity": 100}, {"time": 15730, "pitch": 65, "duration": 110, "velocity": 100}, {"time": 15840, "pitch": 60, "duration": 165, "velocity": 100}, {"time": 15950, "pitch": 67, "duration": 275, "velocity": 100}, {"time": 16060, "pitch": 60, "duration": 110, "velocity": 100}, {"time": 16060, "pitch": 63, "duration": 165, "velocity": 100}, {"time": 16060, "pitch": 67, "duration": 110, "velocity": 100}, {"time": 16170, "pitch": 67, "duration": 110, "velocity": 100}, {"time": 16280, "pitch": 60, "duration": 55, "velocity": 100}, {"time": 16390, "pitch": 55, "duration": 110, "velocity": 100}, {"time": 16390, "pitch": 60, "duration": 110, "velocity": 100}, {"time": 16390, "pitch": 63, "duration": 110, "velocity": 100}, {"time": 16445, "pitch": 62, "duration": 165, "velocity": 100}, {"time": 16610, "pitch": 55, "duration": 55, "velocity": 100}, {"time": 16610, "pitch": 60, "duration": 55, "velocity": 100}, {"time": 16610, "pitch": 63, "duration": 55, "velocity": 100}, {"time": 16610, "pitch": 63, "duration": 220, "velocity": 100}, {"time": 16610, "pitch": 67, "duration": 110, "velocity": 100}, {"time": 16720, "pitch": 60, "duration": 165, "velocity": 100}, {"time": 16830, "pitch": 67, "duration": 165, "velocity": 100}, {"time": 16830, "pitch": 72, "duration": 110, "velocity": 100}, {"time": 16940, "pitch": 63, "duration": 275, "velocity": 100}, {"time": 17270, "pitch": 63, "duration": 55, "velocity": 100}, {"time": 17380, "pitch": 67, "duration": 110, "velocity": 100}, {"time": 17490, "pitch": 60, "duration": 55, "velocity": 100}, {"time": 17490, "pitch": 63, "duration": 55, "velocity": 100}, {"time": 17600, "pitch": 60, "duration": 165, "velocity": 100}, {"time": 17710, "pitch": 67, "duration": 385, "velocity": 100}, {"time": 17765, "pitch": 72, "duration": 110, "velocity": 100}, {"time": 17820, "pitch": 63, "duration": 165, "velocity": 100}, {"time": 17875, "pitch": 68, "duration": 110, "velocity": 100}, {"time": 18040, "pitch": 72, "duration": 165, "velocity": 100}, {"time": 18150, "pitch": 63, "duration": 110, "velocity": 100}, {"time": 18150, "pitch": 67, "duration": 110, "velocity": 100}, {"time": 18260, "pitch": 75, "duration": 165, "velocity": 100}, {"time": 18370, "pitch": 60, "duration": 55, "velocity": 100}, {"time": 18370, "pitch": 63, "duration": 55, "velocity": 100}, {"time": 18370, "pitch": 67, "duration": 110, "velocity": 100}, {"time": 18370, "pitch": 70, "duration": 220, "velocity": 100}, {"time": 18480, "pitch": 60, "duration": 165, "velocity": 100}, {"time": 18590, "pitch": 67, "duration": 165, "velocity": 100}, {"time": 18700, "pitch": 60, "duration": 55, "velocity": 100}, {"time": 18700, "pitch": 63, "duration": 55, "velocity": 100}, {"time": 18700, "pitch": 67, "duration": 110, "velocity": 100}, {"time": 18810, "pitch": 67, "duration": 275, "velocity": 100}, {"time": 18920, "pitch": 75, "duration": 110, "velocity": 100}, {"time": 19030, "pitch": 55, "duration": 55, "velocity": 100}, {"time": 19030, "pitch": 60, "duration": 55, "velocity": 100}, {"time": 19030, "pitch": 63, "duration": 55, "velocity": 100}, {"time": 19030, "pitch": 63, "duration": 220, "velocity": 100}, {"time": 19250, "pitch": 60, "duration": 55, "velocity": 100}, {"time": 19250, "pitch": 62, "duration": 110, "velocity": 100}, {"time": 19250, "pitch": 63, "duration": 55, "velocity": 100}, {"time": 19360, "pitch": 55, "duration": 165, "velocity": 100}, {"time": 19360, "pitch": 60, "duration": 165, "velocity": 100}, {"time": 19470, "pitch": 67, "duration": 275, "velocity": 100}, {"time": 19580, "pitch": 60, "duration": 110, "velocity": 100}, {"time": 19580, "pitch": 63, "duration": 165, "velocity": 100}, {"time": 19800, "pitch": 60, "duration": 55, "velocity": 100}, {"time": 19910, "pitch": 63, "duration": 110, "velocity": 100}, {"time": 19910, "pitch": 67, "duration": 110, "velocity": 100}, {"time": 20020, "pitch": 72, "duration": 220, "velocity": 100}, {"time": 20130, "pitch": 60, "duration": 55, "velocity": 100}, {"time": 20130, "pitch": 63, "duration": 55, "velocity": 100}, {"time": 20130, "pitch": 67, "duration": 110, "velocity": 100}, {"time": 20185, "pitch": 63, "duration": 220, "velocity": 100}, {"time": 20240, "pitch": 60, "duration": 165, "velocity": 100}, {"time": 20350, "pitch": 67, "duration": 165, "velocity": 100}, {"time": 20405, "pitch": 75, "duration": 110, "velocity": 100}, {"time": 20460, "pitch": 63, "duration": 275, "velocity": 100}, {"time": 20570, "pitch": 75, "duration": 330, "velocity": 100}, {"time": 20735, "pitch": 79, "duration": 110, "velocity": 100}, {"time": 20790, "pitch": 60, "duration": 55, "velocity": 100}, {"time": 20790, "pitch": 63, "duration": 55, "velocity": 100}, {"time": 20900, "pitch": 67, "duration": 110, "velocity": 100}, {"time": 21010, "pitch": 60, "duration": 55, "velocity": 100}, {"time": 21010, "pitch": 63, "duration": 55, "velocity": 100}, {"time": 21120, "pitch": 67, "duration": 385, "velocity": 100}, {"time": 21230, "pitch": 63, "duration": 275, "velocity": 100}, {"time": 21340, "pitch": 58, "duration": 165, "velocity": 100}, {"time": 21340, "pitch": 72, "duration": 110, "velocity": 100}, {"time": 21450, "pitch": 75, "duration": 110, "velocity": 100}, {"time": 21560, "pitch": 67, "duration": 165, "velocity": 100}, {"time": 21670, "pitch": 58, "duration": 110, "velocity": 100}, {"time": 21670, "pitch": 63, "duration": 110, "velocity": 100}, {"time": 21780, "pitch": 70, "duration": 165, "velocity": 100}, {"time": 21890, "pitch": 55, "duration": 55, "velocity": 100}, {"time": 21890, "pitch": 58, "duration": 55, "velocity": 100}, {"time": 22000, "pitch": 55, "duration": 165, "velocity": 100}, {"time": 22110, "pitch": 63, "duration": 165, "velocity": 100}, {"time": 22220, "pitch": 58, "duration": 165, "velocity": 100}, {"time": 22220, "pitch": 70, "duration": 220, "velocity": 100}, {"time": 22330, "pitch": 67, "duration": 275, "velocity": 100}, {"time": 22440, "pitch": 65, "duration": 110, "velocity": 100}, {"time": 22550, "pitch": 55, "duration": 55, "velocity": 100}, {"time": 22550, "pitch": 58, "duration": 55, "velocity": 100}, {"time": 22550, "pitch": 63, "duration": 165, "velocity": 100}, {"time": 22715, "pitch": 63, "duration": 110, "velocity": 100}, {"time": 22770, "pitch": 58, "duration": 55, "velocity": 100}, {"time": 22770, "pitch": 63, "duration": 110, "velocity": 100}, {"time": 22825, "pitch": 70, "duration": 55, "velocity": 100}, {"time": 22880, "pitch": 55, "duration": 165, "velocity": 100}, {"time": 22990, "pitch": 63, "duration": 275, "velocity": 100}, {"time": 23045, "pitch": 62, "duration": 165, "velocity": 100}, {"time": 23100, "pitch": 58, "duration": 165, "velocity": 100}, {"time": 23265, "pitch": 65, "duration": 165, "velocity": 100}, {"time": 23320, "pitch": 55, "duration": 110, "velocity": 100}, {"time": 23430, "pitch": 58, "duration": 110, "velocity": 100}, {"time": 23430, "pitch": 63, "duration": 110, "velocity": 100}, {"time": 23485, "pitch": 63, "duration": 55, "velocity": 100}, {"time": 23540, "pitch": 63, "duration": 110, "velocity": 100}, {"time": 23540, "pitch": 70, "duration": 165, "velocity": 100}, {"time": 23650, "pitch": 58, "duration": 55, "velocity": 100}, {"time": 23650, "pitch": 63, "duration": 110, "velocity": 100}, {"time": 23650, "pitch": 63, "duration": 330, "velocity": 100}, {"time": 23760, "pitch": 55, "duration": 165, "velocity": 100}, {"time": 23980, "pitch": 58, "duration": 275, "velocity": 100}, {"time": 24200, "pitch": 65, "duration": 110, "velocity": 100}, {"time": 24310, "pitch": 51, "duration": 55, "velocity": 100}, {"time": 24310, "pitch": 55, "duration": 55, "velocity": 100}, {"time": 24310, "pitch": 58, "duration": 55, "velocity": 100}, {"time": 24310, "pitch": 60, "duration": 110, "velocity": 100}, {"time": 24420, "pitch": 63, "duration": 110, "velocity": 100}, {"time": 24530, "pitch": 55, "duration": 55, "velocity": 100}, {"time": 24530, "pitch": 58, "duration": 55, "velocity": 100}, {"time": 24640, "pitch": 60, "duration": 165, "velocity": 100}, {"time": 24750, "pitch": 60, "duration": 220, "velocity": 100}, {"time": 24750, "pitch": 67, "duration": 385, "velocity": 100}, {"time": 24860, "pitch": 60, "duration": 165, "velocity": 100}, {"time": 24860, "pitch": 63, "duration": 165, "velocity": 100}, {"time": 24860, "pitch": 75, "duration": 220, "velocity": 100}, {"time": 25080, "pitch": 72, "duration": 165, "velocity": 100}, {"time": 25190, "pitch": 60, "duration": 110, "velocity": 100}, {"time": 25190, "pitch": 63, "duration": 110, "velocity": 100}, {"time": 25190, "pitch": 63, "duration": 165, "velocity": 100}, {"time": 25190, "pitch": 67, "duration": 110, "velocity": 100}, {"time": 25300, "pitch": 75, "duration": 165, "velocity": 100}, {"time": 25355, "pitch": 63, "duration": 110, "velocity": 100}, {"time": 25410, "pitch": 60, "duration": 55, "velocity": 100}, {"time": 25410, "pitch": 63, "duration": 55, "velocity": 100}, {"time": 25410, "pitch": 67, "duration": 110, "velocity": 100}, {"time": 25465, "pitch": 63, "duration": 275, "velocity": 100}, {"time": 25520, "pitch": 60, "duration": 165, "velocity": 100}, {"time": 25630, "pitch": 67, "duration": 165, "velocity": 100}, {"time": 25740, "pitch": 63, "duration": 55, "velocity": 100}, {"time": 25740, "pitch": 75, "duration": 220, "velocity": 100}, {"time": 25795, "pitch": 63, "duration": 165, "velocity": 100}, {"time": 25850, "pitch": 67, "duration": 275, "velocity": 100}, {"time": 26015, "pitch": 65, "duration": 55, "velocity": 100}, {"time": 26070, "pitch": 60, "duration": 55, "velocity": 100}, {"time": 26070, "pitch": 63, "duration": 55, "velocity": 100}, {"time": 26125, "pitch": 63, "duration": 55, "velocity": 100}, {"time": 26180, "pitch": 63, "duration": 110, "velocity": 100}, {"time": 26290, "pitch": 60, "duration": 55, "velocity": 100}, {"time": 26290, "pitch": 62, "duration": 110, "velocity": 100}, {"time": 26290, "pitch": 63, "duration": 55, "velocity": 100}, {"time": 26400, "pitch": 60, "duration": 165, "velocity": 100}, {"time": 26510, "pitch": 62, "duration": 220, "velocity": 100}, {"time": 26510, "pitch": 67, "duration": 275, "velocity": 100}, {"time": 26620, "pitch": 60, "duration": 110, "velocity": 100}, {"time": 26620, "pitch": 63, "duration": 165, "velocity": 100}, {"time": 26620, "pitch": 75, "duration": 220, "velocity": 100}, {"time": 26730, "pitch": 65, "duration": 220, "velocity": 100}, {"time": 26840, "pitch": 60, "duration": 55, "velocity": 100}, {"time": 26950, "pitch": 60, "duration": 110, "velocity": 100}, {"time": 26950, "pitch": 63, "duration": 110, "velocity": 100}, {"time": 26950, "pitch": 63, "duration": 110, "velocity": 100}, {"time": 26950, "pitch": 67, "duration": 110, "velocity": 100}, {"time": 27060, "pitch": 63, "duration": 110, "velocity": 100}, {"time": 27060, "pitch": 72, "duration": 220, "velocity": 100}, {"time": 27170, "pitch": 60, "duration": 55, "velocity": 100}, {"time": 27170, "pitch": 63, "duration": 55, "velocity": 100}, {"time": 27170, "pitch": 67, "duration": 110, "velocity": 100}, {"time": 27170, "pitch": 72, "duration": 330, "velocity": 100}, {"time": 27280, "pitch": 60, "duration": 165, "velocity": 100}, {"time": 27390, "pitch": 67, "duration": 165, "velocity": 100}, {"time": 27500, "pitch": 60, "duration": 275, "velocity": 100}, {"time": 27500, "pitch": 63, "duration": 275, "velocity": 100}, {"time": 27610, "pitch": 75, "duration": 330, "velocity": 100}, {"time": 27720, "pitch": 65, "duration": 110, "velocity": 100}, {"time": 27830, "pitch": 60, "duration": 55, "velocity": 100}, {"time": 27830, "pitch": 60, "duration": 165, "velocity": 100}, {"time": 27830, "pitch": 63, "duration": 55, "velocity": 100}, {"time": 27830, "pitch": 72, "duration": 165, "velocity": 100}, {"time": 27940, "pitch": 67, "duration": 110, "velocity": 100}, {"time": 28050, "pitch": 60, "duration": 55, "velocity": 100}, {"time": 28050, "pitch": 63, "duration": 55, "velocity": 100}, {"time": 28105, "pitch": 60, "duration": 55, "velocity": 100}, {"time": 28160, "pitch": 75, "duration": 55, "velocity": 100}, {"time": 28270, "pitch": 60, "duration": 165, "velocity": 100}, {"time": 28270, "pitch": 63, "duration": 165, "velocity": 100}, {"time": 28270, "pitch": 67, "duration": 165, "velocity": 100}, {"time": 28270, "pitch": 72, "duration": 110, "velocity": 100}, {"time": 28490, "pitch": 60, "duration": 55, "velocity": 100}, {"time": 28490, "pitch": 63, "duration": 55, "velocity": 100}, {"time": 28490, "pitch": 67, "duration": 55, "velocity": 100}, {"time": 28545, "pitch": 63, "duration": 385, "velocity": 100}, {"time": 28710, "pitch": 60, "duration": 165, "velocity": 100}, {"time": 28710, "pitch": 63, "duration": 165, "velocity": 100}, {"time": 28710, "pitch": 67, "duration": 165, "velocity": 100}, {"time": 28710, "pitch": 72, "duration": 55, "velocity": 100}, {"time": 28820, "pitch": 75, "duration": 55, "velocity": 100}, {"time": 28930, "pitch": 60, "duration": 55, "velocity": 100}, {"time": 28930, "pitch": 63, "duration": 55, "velocity": 100}, {"time": 28930, "pitch": 67, "duration": 55, "velocity": 100}, {"time": 28930, "pitch": 72, "duration": 55, "velocity": 100}, {"time": 28985, "pitch": 67, "duration": 55, "velocity": 100}, {"time": 29150, "pitch": 60, "duration": 165, "velocity": 100}, {"time": 29150, "pitch": 63, "duration": 165, "velocity": 100}, {"time": 29150, "pitch": 67, "duration": 165, "velocity": 100}, {"time": 29150, "pitch": 70, "duration": 110, "velocity": 100}, {"time": 29260, "pitch": 63, "duration": 110, "velocity": 100}, {"time": 29370, "pitch": 60, "duration": 55, "velocity": 100}, {"time": 29370, "pitch": 63, "duration": 55, "velocity": 100}, {"time": 29370, "pitch": 67, "duration": 55, "velocity": 100}, {"time": 29370, "pitch": 70, "duration": 110, "velocity": 100}, {"time": 29480, "pitch": 63, "duration": 55, "velocity": 100}, {"time": 29480, "pitch": 63, "duration": 165, "velocity": 100}, {"time": 29590, "pitch": 60, "duration": 55, "velocity": 100}, {"time": 29590, "pitch": 63, "duration": 55, "velocity": 100}, {"time": 29590, "pitch": 67, "duration": 55, "velocity": 100}, {"time": 29590, "pitch": 72, "duration": 55, "velocity": 100}, {"time": 29645, "pitch": 63, "duration": 165, "velocity": 100}, {"time": 29645, "pitch": 67, "duration": 55, "velocity": 100}, {"time": 29700, "pitch": 75, "duration": 55, "velocity": 100}, {"time": 29810, "pitch": 60, "duration": 55, "velocity": 100}, {"time": 29810, "pitch": 63, "duration": 55, "velocity": 100}, {"time": 29810, "pitch": 65, "duration": 110, "velocity": 100}, {"time": 29810, "pitch": 67, "duration": 55, "velocity": 100}, {"time": 29810, "pitch": 72, "duration": 55, "velocity": 100}, {"time": 29920, "pitch": 75, "duration": 275, "velocity": 100}, {"time": 30030, "pitch": 60, "duration": 165, "velocity": 100}, {"time": 30030, "pitch": 63, "duration": 165, "velocity": 100}, {"time": 30030, "pitch": 65, "duration": 110, "velocity": 100}, {"time": 30140, "pitch": 65, "duration": 110, "velocity": 100}, {"time": 30250, "pitch": 60, "duration": 55, "velocity": 100}, {"time": 30250, "pitch": 63, "duration": 55, "velocity": 100}, {"time": 30250, "pitch": 65, "duration": 220, "velocity": 100}, {"time": 30360, "pitch": 75, "duration": 220, "velocity": 100}, {"time": 30470, "pitch": 60, "duration": 165, "velocity": 100}, {"time": 30470, "pitch": 63, "duration": 110, "velocity": 100}, {"time": 30470, "pitch": 65, "duration": 165, "velocity": 100}, {"time": 30580, "pitch": 70, "duration": 165, "velocity": 100}, {"time": 30635, "pitch": 74, "duration": 110, "velocity": 100}, {"time": 30690, "pitch": 63, "duration": 55, "velocity": 100}, {"time": 30745, "pitch": 63, "duration": 220, "velocity": 100}, {"time": 30800, "pitch": 72, "duration": 440, "velocity": 100}, {"time": 30910, "pitch": 60, "duration": 55, "velocity": 100}, {"time": 30910, "pitch": 63, "duration": 55, "velocity": 100}, {"time": 30910, "pitch": 67, "duration": 55, "velocity": 100}, {"time": 30965, "pitch": 63, "duration": 55, "velocity": 100}, {"time": 30965, "pitch": 67, "duration": 55, "velocity": 100}, {"time": 31075, "pitch": 60, "duration": 110, "velocity": 100}, {"time": 31130, "pitch": 60, "duration": 110, "velocity": 100}, {"time": 31130, "pitch": 63, "duration": 110, "velocity": 100}, {"time": 31130, "pitch": 67, "duration": 110, "velocity": 100}, {"time": 31185, "pitch": 67, "duration": 110, "velocity": 100}, {"time": 31240, "pitch": 63, "duration": 55, "velocity": 100}, {"time": 31295, "pitch": 67, "duration": 110, "velocity": 100}, {"time": 31350, "pitch": 63, "duration": 110, "velocity": 100}, {"time": 31350, "pitch": 67, "duration": 165, "velocity": 100}, {"time": 31405, "pitch": 67, "duration": 165, "velocity": 100}, {"time": 31460, "pitch": 70, "duration": 165, "velocity": 100}, {"time": 31570, "pitch": 60, "duration": 55, "velocity": 100}, {"time": 31570, "pitch": 63, "duration": 110, "velocity": 100}, {"time": 31570, "pitch": 67, "duration": 55, "velocity": 100}, {"time": 31570, "pitch": 68, "duration": 110, "velocity": 100}, {"time": 31680, "pitch": 79, "duration": 55, "velocity": 100}, {"time": 31790, "pitch": 63, "duration": 165, "velocity": 100}, {"time": 31790, "pitch": 67, "duration": 165, "velocity": 100}, {"time": 31790, "pitch": 68, "duration": 110, "velocity": 100}, {"time": 31790, "pitch": 72, "duration": 165, "velocity": 100}, {"time": 32010, "pitch": 63, "duration": 55, "velocity": 100}, {"time": 32010, "pitch": 67, "duration": 55, "velocity": 100}, {"time": 32010, "pitch": 68, "duration": 110, "velocity": 100}, {"time": 32010, "pitch": 72, "duration": 55, "velocity": 100}, {"time": 32120, "pitch": 68, "duration": 165, "velocity": 100}, {"time": 32230, "pitch": 63, "duration": 165, "velocity": 100}, {"time": 32230, "pitch": 68, "duration": 165, "velocity": 100}, {"time": 32230, "pitch": 72, "duration": 165, "velocity": 100}, {"time": 32340, "pitch": 77, "duration": 55, "velocity": 100}, {"time": 32450, "pitch": 63, "duration": 55, "velocity": 100}, {"time": 32450, "pitch": 68, "duration": 55, "velocity": 100}, {"time": 32450, "pitch": 72, "duration": 55, "velocity": 100}, {"time": 32450, "pitch": 75, "duration": 55, "velocity": 100}, {"time": 32505, "pitch": 68, "duration": 55, "velocity": 100}, {"time": 32505, "pitch": 72, "duration": 55, "velocity": 100}, {"time": 32670, "pitch": 63, "duration": 165, "velocity": 100}, {"time": 32670, "pitch": 67, "duration": 110, "velocity": 100}, {"time": 32670, "pitch": 68, "duration": 165, "velocity": 100}, {"time": 32780, "pitch": 70, "duration": 110, "velocity": 100}, {"time": 32890, "pitch": 60, "duration": 55, "velocity": 100}, {"time": 32890, "pitch": 63, "duration": 55, "velocity": 100}, {"time": 32890, "pitch": 68, "duration": 55, "velocity": 100}, {"time": 32890, "pitch": 75, "duration": 110, "velocity": 100}, {"time": 33000, "pitch": 75, "duration": 165, "velocity": 100}, {"time": 33110, "pitch": 68, "duration": 55, "velocity": 100}, {"time": 33110, "pitch": 75, "duration": 55, "velocity": 100}, {"time": 33165, "pitch": 68, "duration": 55, "velocity": 100}, {"time": 33220, "pitch": 75, "duration": 165, "velocity": 100}, {"time": 33220, "pitch": 77, "duration": 55, "velocity": 100}, {"time": 33330, "pitch": 68, "duration": 55, "velocity": 100}, {"time": 33330, "pitch": 75, "duration": 55, "velocity": 100}, {"time": 33385, "pitch": 74, "duration": 55, "velocity": 100}, {"time": 33440, "pitch": 80, "duration": 440, "velocity": 100}, {"time": 33550, "pitch": 63, "duration": 165, "velocity": 100}, {"time": 33550, "pitch": 68, "duration": 165, "velocity": 100}, {"time": 33605, "pitch": 65, "duration": 110, "velocity": 100}, {"time": 33715, "pitch": 65, "duration": 110, "velocity": 100}, {"time": 33770, "pitch": 60, "duration": 55, "velocity": 100}, {"time": 33770, "pitch": 63, "duration": 55, "velocity": 100}, {"time": 33770, "pitch": 68, "duration": 55, "velocity": 100}, {"time": 33825, "pitch": 70, "duration": 110, "velocity": 100}, {"time": 33880, "pitch": 75, "duration": 220, "velocity": 100}, {"time": 33935, "pitch": 74, "duration": 110, "velocity": 100}, {"time": 34045, "pitch": 70, "duration": 165, "velocity": 100}, {"time": 34100, "pitch": 70, "duration": 220, "velocity": 100}, {"time": 34210, "pitch": 63, "duration": 110, "velocity": 100}, {"time": 34210, "pitch": 72, "duration": 220, "velocity": 100}, {"time": 34320, "pitch": 68, "duration": 110, "velocity": 100}, {"time": 34320, "pitch": 80, "duration": 55, "velocity": 100}, {"time": 34430, "pitch": 63, "duration": 55, "velocity": 100}, {"time": 34430, "pitch": 67, "duration": 110, "velocity": 100}, {"time": 34430, "pitch": 80, "duration": 55, "velocity": 100}, {"time": 34430, "pitch": 84, "duration": 55, "velocity": 100}, {"time": 34540, "pitch": 67, "duration": 110, "velocity": 100}, {"time": 34540, "pitch": 68, "duration": 55, "velocity": 100}, {"time": 34540, "pitch": 80, "duration": 55, "velocity": 100}, {"time": 34650, "pitch": 60, "duration": 110, "velocity": 100}, {"time": 34650, "pitch": 63, "duration": 55, "velocity": 100}, {"time": 34650, "pitch": 68, "duration": 55, "velocity": 100}, {"time": 34650, "pitch": 80, "duration": 55, "velocity": 100}, {"time": 34705, "pitch": 80, "duration": 55, "velocity": 100}, {"time": 34705, "pitch": 84, "duration": 55, "velocity": 100}, {"time": 34760, "pitch": 67, "duration": 165, "velocity": 100}, {"time": 35200, "pitch": 72, "duration": 165, "velocity": 100}, {"time": 35310, "pitch": 63, "duration": 110, "velocity": 100}, {"time": 35420, "pitch": 55, "duration": 55, "velocity": 100}, {"time": 35420, "pitch": 63, "duration": 110, "velocity": 100}, {"time": 35420, "pitch": 70, "duration": 220, "velocity": 100}, {"time": 35530, "pitch": 63, "duration": 110, "velocity": 100}, {"time": 35640, "pitch": 55, "duration": 165, "velocity": 100}, {"time": 35860, "pitch": 58, "duration": 110, "velocity": 100}, {"time": 35860, "pitch": 67, "duration": 165, "velocity": 100}, {"time": 35970, "pitch": 63, "duration": 55, "velocity": 100}, {"time": 36025, "pitch": 63, "duration": 220, "velocity": 100}, {"time": 36080, "pitch": 58, "duration": 110, "velocity": 100}, {"time": 36300, "pitch": 55, "duration": 55, "velocity": 100}, {"time": 36300, "pitch": 58, "duration": 55, "velocity": 100}, {"time": 36300, "pitch": 63, "duration": 55, "velocity": 100}, {"time": 36355, "pitch": 67, "duration": 110, "velocity": 100}, {"time": 36465, "pitch": 67, "duration": 110, "velocity": 100}, {"time": 36520, "pitch": 63, "duration": 220, "velocity": 100}, {"time": 36740, "pitch": 63, "duration": 110, "velocity": 100}, {"time": 36850, "pitch": 70, "duration": 110, "velocity": 100}, {"time": 36960, "pitch": 58, "duration": 165, "velocity": 100}, {"time": 37180, "pitch": 55, "duration": 55, "velocity": 100}, {"time": 37180, "pitch": 63, "duration": 55, "velocity": 100}, {"time": 37180, "pitch": 67, "duration": 110, "velocity": 100}, {"time": 37290, "pitch": 67, "duration": 110, "velocity": 100}, {"time": 37400, "pitch": 63, "duration": 440, "velocity": 100}, {"time": 37400, "pitch": 70, "duration": 165, "velocity": 100}, {"time": 37565, "pitch": 62, "duration": 165, "velocity": 100}, {"time": 37730, "pitch": 63, "duration": 220, "velocity": 100}, {"time": 37840, "pitch": 55, "duration": 220, "velocity": 100}, {"time": 37840, "pitch": 58, "duration": 220, "velocity": 100}, {"time": 37950, "pitch": 79, "duration": 110, "velocity": 100}, {"time": 38060, "pitch": 63, "duration": 220, "velocity": 100}, {"time": 38060, "pitch": 79, "duration": 110, "velocity": 100}, {"time": 38170, "pitch": 67, "duration": 110, "velocity": 100}, {"time": 38280, "pitch": 58, "duration": 165, "velocity": 100}, {"time": 38500, "pitch": 63, "duration": 165, "velocity": 100}, {"time": 38500, "pitch": 79, "duration": 165, "velocity": 100}, {"time": 38665, "pitch": 68, "duration": 55, "velocity": 100}, {"time": 38720, "pitch": 67, "duration": 110, "velocity": 100}, {"time": 38830, "pitch": 84, "duration": 55, "velocity": 100}, {"time": 38885, "pitch": 80, "duration": 110, "velocity": 100}, {"time": 38885, "pitch": 85, "duration": 55, "velocity": 100}, {"time": 38940, "pitch": 63, "duration": 110, "velocity": 100}, {"time": 38940, "pitch": 84, "duration": 55, "velocity": 100}, {"time": 38995, "pitch": 80, "duration": 110, "velocity": 100}, {"time": 38995, "pitch": 89, "duration": 55, "velocity": 100}, {"time": 39105, "pitch": 75, "duration": 110, "velocity": 100}, {"time": 39160, "pitch": 60, "duration": 220, "velocity": 100}, {"time": 39160, "pitch": 87, "duration": 440, "velocity": 100}, {"time": 39215, "pitch": 75, "duration": 110, "velocity": 100}, {"time": 39325, "pitch": 72, "duration": 165, "velocity": 100}, {"time": 39380, "pitch": 63, "duration": 110, "velocity": 100}, {"time": 39490, "pitch": 67, "duration": 220, "velocity": 100}, {"time": 39600, "pitch": 60, "duration": 220, "velocity": 100}, {"time": 39600, "pitch": 63, "duration": 220, "velocity": 100}, {"time": 39820, "pitch": 67, "duration": 110, "velocity": 100}, {"time": 39820, "pitch": 68, "duration": 110, "velocity": 100}, {"time": 39930, "pitch": 63, "duration": 110, "velocity": 100}, {"time": 40040, "pitch": 68, "duration": 220, "velocity": 100}, {"time": 40040, "pitch": 82, "duration": 110, "velocity": 100}, {"time": 40150, "pitch": 75, "duration": 220, "velocity": 100}, {"time": 40260, "pitch": 63, "duration": 110, "velocity": 100}, {"time": 40370, "pitch": 70, "duration": 110, "velocity": 100}, {"time": 40480, "pitch": 60, "duration": 220, "velocity": 100}, {"time": 40480, "pitch": 63, "duration": 220, "velocity": 100}, {"time": 40700, "pitch": 68, "duration": 110, "velocity": 100}, {"time": 40700, "pitch": 79, "duration": 110, "velocity": 100}, {"time": 40810, "pitch": 63, "duration": 55, "velocity": 100}, {"time": 40920, "pitch": 63, "duration": 165, "velocity": 100}, {"time": 40920, "pitch": 70, "duration": 110, "velocity": 100}, {"time": 41030, "pitch": 62, "duration": 220, "velocity": 100}, {"time": 41140, "pitch": 60, "duration": 55, "velocity": 100}, {"time": 41140, "pitch": 63, "duration": 55, "velocity": 100}, {"time": 41305, "pitch": 60, "duration": 220, "velocity": 100}, {"time": 41360, "pitch": 60, "duration": 220, "velocity": 100}, {"time": 41360, "pitch": 63, "duration": 110, "velocity": 100}, {"time": 41525, "pitch": 72, "duration": 110, "velocity": 100}, {"time": 41635, "pitch": 60, "duration": 55, "velocity": 100}, {"time": 41635, "pitch": 67, "duration": 110, "velocity": 100}, {"time": 41690, "pitch": 63, "duration": 55, "velocity": 100}, {"time": 41745, "pitch": 79, "duration": 110, "velocity": 100}, {"time": 41800, "pitch": 63, "duration": 110, "velocity": 100}, {"time": 41855, "pitch": 67, "duration": 110, "velocity": 100}, {"time": 41965, "pitch": 72, "duration": 165, "velocity": 100}, {"time": 42020, "pitch": 60, "duration": 110, "velocity": 100}, {"time": 42020, "pitch": 65, "duration": 110, "velocity": 100}, {"time": 42130, "pitch": 72, "duration": 110, "velocity": 100}, {"time": 42240, "pitch": 60, "duration": 165, "velocity": 100}, {"time": 42350, "pitch": 72, "duration": 110, "velocity": 100}, {"time": 42460, "pitch": 58, "duration": 110, "velocity": 100}, {"time": 42570, "pitch": 75, "duration": 110, "velocity": 100}, {"time": 42680, "pitch": 55, "duration": 330, "velocity": 100}, {"time": 42790, "pitch": 79, "duration": 55, "velocity": 100}, {"time": 42845, "pitch": 72, "duration": 165, "velocity": 100}, {"time": 42845, "pitch": 82, "duration": 55, "velocity": 100}, {"time": 42900, "pitch": 75, "duration": 55, "velocity": 100}, {"time": 42955, "pitch": 82, "duration": 55, "velocity": 100}, {"time": 43010, "pitch": 67, "duration": 220, "velocity": 100}, {"time": 43120, "pitch": 60, "duration": 220, "velocity": 100}, {"time": 43230, "pitch": 67, "duration": 110, "velocity": 100}, {"time": 43340, "pitch": 63, "duration": 110, "velocity": 100}, {"time": 43340, "pitch": 67, "duration": 110, "velocity": 100}, {"time": 43340, "pitch": 75, "duration": 110, "velocity": 100}, {"time": 43450, "pitch": 67, "duration": 110, "velocity": 100}, {"time": 43560, "pitch": 63, "duration": 440, "velocity": 100}, {"time": 43560, "pitch": 75, "duration": 165, "velocity": 100}, {"time": 43780, "pitch": 60, "duration": 110, "velocity": 100}, {"time": 43780, "pitch": 67, "duration": 165, "velocity": 100}, {"time": 43945, "pitch": 74, "duration": 55, "velocity": 100}, {"time": 44000, "pitch": 60, "duration": 220, "velocity": 100}, {"time": 44000, "pitch": 63, "duration": 220, "velocity": 100}, {"time": 44165, "pitch": 70, "duration": 110, "velocity": 100}, {"time": 44220, "pitch": 60, "duration": 110, "velocity": 100}, {"time": 44220, "pitch": 63, "duration": 110, "velocity": 100}, {"time": 44275, "pitch": 65, "duration": 110, "velocity": 100}, {"time": 44385, "pitch": 65, "duration": 110, "velocity": 100}, {"time": 44440, "pitch": 60, "duration": 275, "velocity": 100}, {"time": 44495, "pitch": 65, "duration": 110, "velocity": 100}, {"time": 44605, "pitch": 75, "duration": 165, "velocity": 100}, {"time": 44660, "pitch": 60, "duration": 220, "velocity": 100}, {"time": 44770, "pitch": 72, "duration": 220, "velocity": 100}, {"time": 44880, "pitch": 60, "duration": 220, "velocity": 100}, {"time": 44990, "pitch": 55, "duration": 110, "velocity": 100}, {"time": 44990, "pitch": 72, "duration": 110, "velocity": 100}, {"time": 45100, "pitch": 72, "duration": 110, "velocity": 100}, {"time": 45155, "pitch": 60, "duration": 55, "velocity": 100}, {"time": 45210, "pitch": 60, "duration": 55, "velocity": 100}, {"time": 45210, "pitch": 63, "duration": 110, "velocity": 100}, {"time": 45210, "pitch": 67, "duration": 55, "velocity": 100}, {"time": 45265, "pitch": 65, "duration": 55, "velocity": 100}, {"time": 45320, "pitch": 55, "duration": 220, "velocity": 100}, {"time": 45320, "pitch": 60, "duration": 220, "velocity": 100}, {"time": 45320, "pitch": 63, "duration": 165, "velocity": 100}, {"time": 45320, "pitch": 63, "duration": 440, "velocity": 100}, {"time": 45485, "pitch": 60, "duration": 165, "velocity": 100}, {"time": 45540, "pitch": 60, "duration": 110, "velocity": 100}, {"time": 45650, "pitch": 68, "duration": 110, "velocity": 100}, {"time": 45760, "pitch": 75, "duration": 55, "velocity": 100}, {"time": 45870, "pitch": 60, "duration": 165, "velocity": 100}, {"time": 45870, "pitch": 63, "duration": 165, "velocity": 100}, {"time": 45870, "pitch": 68, "duration": 110, "velocity": 100}, {"time": 45870, "pitch": 68, "duration": 165, "velocity": 100}, {"time": 45870, "pitch": 72, "duration": 110, "velocity": 100}, {"time": 45980, "pitch": 63, "duration": 110, "velocity": 100}, {"time": 46090, "pitch": 60, "duration": 55, "velocity": 100}, {"time": 46090, "pitch": 63, "duration": 55, "velocity": 100}, {"time": 46090, "pitch": 68, "duration": 55, "velocity": 100}, {"time": 46090, "pitch": 72, "duration": 110, "velocity": 100}, {"time": 46200, "pitch": 63, "duration": 165, "velocity": 100}, {"time": 46310, "pitch": 60, "duration": 165, "velocity": 100}, {"time": 46310, "pitch": 63, "duration": 165, "velocity": 100}, {"time": 46310, "pitch": 68, "duration": 165, "velocity": 100}, {"time": 46310, "pitch": 72, "duration": 55, "velocity": 100}, {"time": 46420, "pitch": 74, "duration": 165, "velocity": 100}, {"time": 46420, "pitch": 75, "duration": 55, "velocity": 100}, {"time": 46530, "pitch": 68, "duration": 55, "velocity": 100}, {"time": 46530, "pitch": 72, "duration": 55, "velocity": 100}, {"time": 46585, "pitch": 68, "duration": 55, "velocity": 100}, {"time": 46585, "pitch": 70, "duration": 220, "velocity": 100}, {"time": 46750, "pitch": 60, "duration": 165, "velocity": 100}, {"time": 46750, "pitch": 63, "duration": 165, "velocity": 100}, {"time": 46805, "pitch": 75, "duration": 110, "velocity": 100}, {"time": 46915, "pitch": 75, "duration": 110, "velocity": 100}, {"time": 46970, "pitch": 60, "duration": 55, "velocity": 100}, {"time": 46970, "pitch": 63, "duration": 55, "velocity": 100}, {"time": 46970, "pitch": 68, "duration": 55, "velocity": 100}, {"time": 47025, "pitch": 67, "duration": 110, "velocity": 100}, {"time": 47080, "pitch": 63, "duration": 55, "velocity": 100}, {"time": 47135, "pitch": 70, "duration": 110, "velocity": 100}, {"time": 47190, "pitch": 63, "duration": 55, "velocity": 100}, {"time": 47190, "pitch": 72, "duration": 55, "velocity": 100}, {"time": 47245, "pitch": 67, "duration": 165, "velocity": 100}, {"time": 47245, "pitch": 68, "duration": 55, "velocity": 100}, {"time": 47300, "pitch": 75, "duration": 55, "velocity": 100}, {"time": 47410, "pitch": 63, "duration": 55, "velocity": 100}, {"time": 47410, "pitch": 68, "duration": 55, "velocity": 100}, {"time": 47410, "pitch": 70, "duration": 110, "velocity": 100}, {"time": 47410, "pitch": 72, "duration": 55, "velocity": 100}, {"time": 47520, "pitch": 75, "duration": 275, "velocity": 100}, {"time": 47630, "pitch": 63, "duration": 165, "velocity": 100}, {"time": 47630, "pitch": 74, "duration": 110, "velocity": 100}, {"time": 47740, "pitch": 74, "duration": 110, "velocity": 100}, {"time": 47850, "pitch": 60, "duration": 55, "velocity": 100}, {"time": 47850, "pitch": 63, "duration": 55, "velocity": 100}, {"time": 47850, "pitch": 70, "duration": 110, "velocity": 100}, {"time": 47960, "pitch": 74, "duration": 165, "velocity": 100}, {"time": 47960, "pitch": 75, "duration": 220, "velocity": 100}, {"time": 48070, "pitch": 63, "duration": 110, "velocity": 100}, {"time": 48125, "pitch": 70, "duration": 165, "velocity": 100}, {"time": 48180, "pitch": 70, "duration": 165, "velocity": 100}, {"time": 48290, "pitch": 60, "duration": 55, "velocity": 100}, {"time": 48290, "pitch": 63, "duration": 55, "velocity": 100}, {"time": 48290, "pitch": 63, "duration": 220, "velocity": 100}, {"time": 48400, "pitch": 72, "duration": 440, "velocity": 100}, {"time": 48510, "pitch": 60, "duration": 55, "velocity": 100}, {"time": 48510, "pitch": 63, "duration": 55, "velocity": 100}, {"time": 48510, "pitch": 67, "duration": 110, "velocity": 100}, {"time": 48510, "pitch": 68, "duration": 55, "velocity": 100}, {"time": 48565, "pitch": 63, "duration": 55, "velocity": 100}, {"time": 48565, "pitch": 68, "duration": 55, "velocity": 100}, {"time": 48620, "pitch": 79, "duration": 110, "velocity": 100}, {"time": 48730, "pitch": 60, "duration": 110, "velocity": 100}, {"time": 48730, "pitch": 63, "duration": 110, "velocity": 100}, {"time": 48730, "pitch": 68, "duration": 110, "velocity": 100}, {"time": 48730, "pitch": 75, "duration": 110, "velocity": 100}, {"time": 48840, "pitch": 67, "duration": 110, "velocity": 100}, {"time": 48950, "pitch": 63, "duration": 110, "velocity": 100}, {"time": 48950, "pitch": 68, "duration": 165, "velocity": 100}, {"time": 49060, "pitch": 67, "duration": 165, "velocity": 100}, {"time": 49060, "pitch": 70, "duration": 220, "velocity": 100}, {"time": 49170, "pitch": 65, "duration": 55, "velocity": 100}, {"time": 49225, "pitch": 75, "duration": 55, "velocity": 100}, {"time": 49280, "pitch": 80, "duration": 55, "velocity": 100}, {"time": 49390, "pitch": 63, "duration": 165, "velocity": 100}, {"time": 49390, "pitch": 68, "duration": 165, "velocity": 100}, {"time": 49390, "pitch": 72, "duration": 165, "velocity": 100}, {"time": 49445, "pitch": 80, "duration": 110, "velocity": 100}, {"time": 49555, "pitch": 75, "duration": 110, "velocity": 100}, {"time": 49610, "pitch": 63, "duration": 55, "velocity": 100}, {"time": 49610, "pitch": 68, "duration": 55, "velocity": 100}, {"time": 49610, "pitch": 72, "duration": 55, "velocity": 100}, {"time": 49665, "pitch": 72, "duration": 110, "velocity": 100}, {"time": 49775, "pitch": 80, "duration": 110, "velocity": 100}, {"time": 49830, "pitch": 63, "duration": 165, "velocity": 100}, {"time": 49830, "pitch": 68, "duration": 165, "velocity": 100}, {"time": 49830, "pitch": 72, "duration": 165, "velocity": 100}, {"time": 49885, "pitch": 79, "duration": 165, "velocity": 100}, {"time": 49940, "pitch": 77, "duration": 55, "velocity": 100}, {"time": 50050, "pitch": 63, "duration": 55, "velocity": 100}, {"time": 50050, "pitch": 68, "duration": 55, "velocity": 100}, {"time": 50050, "pitch": 70, "duration": 220, "velocity": 100}, {"time": 50050, "pitch": 72, "duration": 55, "velocity": 100}, {"time": 50050, "pitch": 75, "duration": 55, "velocity": 100}, {"time": 50105, "pitch": 68, "duration": 55, "velocity": 100}, {"time": 50105, "pitch": 72, "duration": 55, "velocity": 100}, {"time": 50270, "pitch": 63, "duration": 165, "velocity": 100}, {"time": 50270, "pitch": 68, "duration": 165, "velocity": 100}, {"time": 50380, "pitch": 67, "duration": 110, "velocity": 100}, {"time": 50490, "pitch": 60, "duration": 55, "velocity": 100}, {"time": 50490, "pitch": 63, "duration": 55, "velocity": 100}, {"time": 50490, "pitch": 68, "duration": 55, "velocity": 100}, {"time": 50490, "pitch": 70, "duration": 110, "velocity": 100}, {"time": 50600, "pitch": 63, "duration": 55, "velocity": 100}, {"time": 50600, "pitch": 75, "duration": 165, "velocity": 100}, {"time": 50710, "pitch": 63, "duration": 55, "velocity": 100}, {"time": 50710, "pitch": 68, "duration": 55, "velocity": 100}, {"time": 50710, "pitch": 75, "duration": 55, "velocity": 100}, {"time": 50765, "pitch": 68, "duration": 55, "velocity": 100}, {"time": 50765, "pitch": 75, "duration": 165, "velocity": 100}, {"time": 50820, "pitch": 77, "duration": 55, "velocity": 100}, {"time": 50930, "pitch": 68, "duration": 55, "velocity": 100}, {"time": 50930, "pitch": 70, "duration": 110, "velocity": 100}, {"time": 50930, "pitch": 75, "duration": 55, "velocity": 100}, {"time": 51040, "pitch": 80, "duration": 440, "velocity": 100}, {"time": 51150, "pitch": 68, "duration": 165, "velocity": 100}, {"time": 51260, "pitch": 70, "duration": 110, "velocity": 100}, {"time": 51370, "pitch": 63, "duration": 55, "velocity": 100}, {"time": 51370, "pitch": 68, "duration": 55, "velocity": 100}, {"time": 51370, "pitch": 74, "duration": 110, "velocity": 100}, {"time": 51480, "pitch": 75, "duration": 220, "velocity": 100}, {"time": 51480, "pitch": 82, "duration": 165, "velocity": 100}, {"time": 51700, "pitch": 62, "duration": 165, "velocity": 100}, {"time": 51700, "pitch": 70, "duration": 220, "velocity": 100}, {"time": 51810, "pitch": 63, "duration": 110, "velocity": 100}, {"time": 51920, "pitch": 56, "duration": 55, "velocity": 100}, {"time": 51920, "pitch": 68, "duration": 110, "velocity": 100}, {"time": 52030, "pitch": 63, "duration": 55, "velocity": 100}, {"time": 52030, "pitch": 84, "duration": 55, "velocity": 100}, {"time": 52085, "pitch": 75, "duration": 110, "velocity": 100}, {"time": 52140, "pitch": 68, "duration": 55, "velocity": 100}, {"time": 52195, "pitch": 79, "duration": 110, "velocity": 100}, {"time": 52250, "pitch": 63, "duration": 55, "velocity": 100}, {"time": 52250, "pitch": 68, "duration": 55, "velocity": 100}, {"time": 52250, "pitch": 80, "duration": 55, "velocity": 100}, {"time": 52305, "pitch": 75, "duration": 110, "velocity": 100}, {"time": 52305, "pitch": 80, "duration": 55, "velocity": 100}, {"time": 52305, "pitch": 84, "duration": 55, "velocity": 100}, {"time": 52525, "pitch": 79, "duration": 165, "velocity": 100}, {"time": 52690, "pitch": 75, "duration": 110, "velocity": 100}, {"time": 52800, "pitch": 75, "duration": 55, "velocity": 100}, {"time": 52910, "pitch": 80, "duration": 110, "velocity": 100}, {"time": 53020, "pitch": 63, "duration": 55, "velocity": 100}, {"time": 53020, "pitch": 68, "duration": 55, "velocity": 100}, {"time": 53020, "pitch": 72, "duration": 110, "velocity": 100}, {"time": 53130, "pitch": 63, "duration": 55, "velocity": 100}, {"time": 53130, "pitch": 68, "duration": 55, "velocity": 100}, {"time": 53130, "pitch": 75, "duration": 110, "velocity": 100}, {"time": 53240, "pitch": 68, "duration": 165, "velocity": 100}, {"time": 53405, "pitch": 72, "duration": 165, "velocity": 100}, {"time": 53460, "pitch": 56, "duration": 55, "velocity": 100}, {"time": 53460, "pitch": 63, "duration": 55, "velocity": 100}, {"time": 53460, "pitch": 68, "duration": 55, "velocity": 100}, {"time": 53460, "pitch": 72, "duration": 55, "velocity": 100}, {"time": 53460, "pitch": 75, "duration": 55, "velocity": 100}, {"time": 53460, "pitch": 80, "duration": 55, "velocity": 100}, {"time": 53570, "pitch": 63, "duration": 55, "velocity": 100}, {"time": 53570, "pitch": 68, "duration": 55, "velocity": 100}, {"time": 53570, "pitch": 70, "duration": 220, "velocity": 100}, {"time": 53570, "pitch": 72, "duration": 55, "velocity": 100}, {"time": 53570, "pitch": 75, "duration": 55, "velocity": 100}, {"time": 53570, "pitch": 80, "duration": 55, "velocity": 100}, {"time": 53790, "pitch": 63, "duration": 165, "velocity": 100}, {"time": 53790, "pitch": 68, "duration": 165, "velocity": 100}, {"time": 53900, "pitch": 75, "duration": 110, "velocity": 100}, {"time": 54010, "pitch": 68, "duration": 55, "velocity": 100}, {"time": 54120, "pitch": 79, "duration": 110, "velocity": 100}, {"time": 54230, "pitch": 60, "duration": 165, "velocity": 100}, {"time": 54230, "pitch": 68, "duration": 165, "velocity": 100}, {"time": 54230, "pitch": 75, "duration": 220, "velocity": 100}, {"time": 54450, "pitch": 63, "duration": 55, "velocity": 100}, {"time": 54450, "pitch": 68, "duration": 55, "velocity": 100}, {"time": 54505, "pitch": 74, "duration": 55, "velocity": 100}, {"time": 54780, "pitch": 56, "duration": 55, "velocity": 100}, {"time": 54780, "pitch": 68, "duration": 55, "velocity": 100}, {"time": 54780, "pitch": 72, "duration": 55, "velocity": 100}, {"time": 54780, "pitch": 75, "duration": 55, "velocity": 100}, {"time": 54780, "pitch": 80, "duration": 55, "velocity": 100}, {"time": 54835, "pitch": 79, "duration": 110, "velocity": 100}, {"time": 54890, "pitch": 63, "duration": 55, "velocity": 100}, {"time": 54890, "pitch": 68, "duration": 55, "velocity": 100}, {"time": 55055, "pitch": 82, "duration": 55, "velocity": 100}, {"time": 55165, "pitch": 67, "duration": 165, "velocity": 100}, {"time": 55220, "pitch": 56, "duration": 55, "velocity": 100}, {"time": 55220, "pitch": 63, "duration": 55, "velocity": 100}, {"time": 55220, "pitch": 68, "duration": 55, "velocity": 100}, {"time": 55220, "pitch": 72, "duration": 55, "velocity": 100}, {"time": 55220, "pitch": 75, "duration": 55, "velocity": 100}, {"time": 55220, "pitch": 80, "duration": 55, "velocity": 100}, {"time": 55330, "pitch": 60, "duration": 220, "velocity": 100}, {"time": 55330, "pitch": 63, "duration": 55, "velocity": 100}, {"time": 55330, "pitch": 68, "duration": 55, "velocity": 100}, {"time": 55330, "pitch": 72, "duration": 55, "velocity": 100}, {"time": 55330, "pitch": 75, "duration": 55, "velocity": 100}, {"time": 55330, "pitch": 80, "duration": 55, "velocity": 100}, {"time": 55550, "pitch": 63, "duration": 55, "velocity": 100}, {"time": 55550, "pitch": 68, "duration": 55, "velocity": 100}, {"time": 55550, "pitch": 79, "duration": 110, "velocity": 100}, {"time": 55660, "pitch": 68, "duration": 55, "velocity": 100}, {"time": 55660, "pitch": 72, "duration": 110, "velocity": 100}, {"time": 55770, "pitch": 68, "duration": 55, "velocity": 100}, {"time": 55770, "pitch": 79, "duration": 110, "velocity": 100}, {"time": 55880, "pitch": 68, "duration": 55, "velocity": 100}, {"time": 55880, "pitch": 72, "duration": 165, "velocity": 100}, {"time": 55990, "pitch": 68, "duration": 110, "velocity": 100}, {"time": 56045, "pitch": 63, "duration": 110, "velocity": 100}, {"time": 56045, "pitch": 68, "duration": 110, "velocity": 100}, {"time": 56045, "pitch": 75, "duration": 165, "velocity": 100}, {"time": 56210, "pitch": 63, "duration": 55, "velocity": 100}, {"time": 56210, "pitch": 68, "duration": 55, "velocity": 100}, {"time": 56210, "pitch": 72, "duration": 110, "velocity": 100}, {"time": 56320, "pitch": 67, "duration": 330, "velocity": 100}, {"time": 56430, "pitch": 63, "duration": 110, "velocity": 100}, {"time": 56430, "pitch": 65, "duration": 110, "velocity": 100}, {"time": 56430, "pitch": 75, "duration": 110, "velocity": 100}, {"time": 56540, "pitch": 75, "duration": 110, "velocity": 100}, {"time": 56650, "pitch": 63, "duration": 55, "velocity": 100}, {"time": 56650, "pitch": 65, "duration": 55, "velocity": 100}, {"time": 56650, "pitch": 68, "duration": 110, "velocity": 100}, {"time": 56760, "pitch": 75, "duration": 165, "velocity": 100}, {"time": 56870, "pitch": 63, "duration": 110, "velocity": 100}, {"time": 56980, "pitch": 60, "duration": 55, "velocity": 100}, {"time": 56980, "pitch": 72, "duration": 165, "velocity": 100}, {"time": 57090, "pitch": 63, "duration": 55, "velocity": 100}, {"time": 57090, "pitch": 65, "duration": 55, "velocity": 100}, {"time": 57145, "pitch": 75, "duration": 935, "velocity": 100}, {"time": 57200, "pitch": 67, "duration": 55, "velocity": 100}, {"time": 57310, "pitch": 63, "duration": 165, "velocity": 100}, {"time": 57310, "pitch": 67, "duration": 55, "velocity": 100}, {"time": 57365, "pitch": 67, "duration": 55, "velocity": 100}, {"time": 57530, "pitch": 58, "duration": 55, "velocity": 100}, {"time": 57530, "pitch": 63, "duration": 55, "velocity": 100}, {"time": 57530, "pitch": 67, "duration": 55, "velocity": 100}, {"time": 57585, "pitch": 70, "duration": 55, "velocity": 100}, {"time": 57640, "pitch": 67, "duration": 55, "velocity": 100}, {"time": 57750, "pitch": 58, "duration": 165, "velocity": 100}, {"time": 57750, "pitch": 63, "duration": 165, "velocity": 100}, {"time": 57750, "pitch": 67, "duration": 165, "velocity": 100}, {"time": 57805, "pitch": 70, "duration": 55, "velocity": 100}, {"time": 57860, "pitch": 70, "duration": 55, "velocity": 100}, {"time": 57970, "pitch": 63, "duration": 55, "velocity": 100}, {"time": 57970, "pitch": 67, "duration": 55, "velocity": 100}, {"time": 57970, "pitch": 70, "duration": 55, "velocity": 100}]}, {"program": 70, "is_drum": false, "name": "Tenor", "notes": [{"time": 0, "pitch": 68, "duration": 55, "velocity": 100}, {"time": 110, "pitch": 55, "duration": 165, "velocity": 100}, {"time": 110, "pitch": 58, "duration": 165, "velocity": 100}, {"time": 330, "pitch": 53, "duration": 55, "velocity": 100}, {"time": 330, "pitch": 58, "duration": 55, "velocity": 100}, {"time": 550, "pitch": 51, "duration": 165, "velocity": 100}, {"time": 660, "pitch": 63, "duration": 110, "velocity": 100}, {"time": 770, "pitch": 55, "duration": 55, "velocity": 100}, {"time": 825, "pitch": 58, "duration": 55, "velocity": 100}, {"time": 990, "pitch": 51, "duration": 165, "velocity": 100}, {"time": 990, "pitch": 55, "duration": 165, "velocity": 100}, {"time": 1100, "pitch": 63, "duration": 220, "velocity": 100}, {"time": 1210, "pitch": 55, "duration": 55, "velocity": 100}, {"time": 1320, "pitch": 55, "duration": 55, "velocity": 100}, {"time": 1430, "pitch": 55, "duration": 55, "velocity": 100}, {"time": 1485, "pitch": 55, "duration": 55, "velocity": 100}, {"time": 1650, "pitch": 55, "duration": 55, "velocity": 100}, {"time": 1870, "pitch": 55, "duration": 165, "velocity": 100}, {"time": 2090, "pitch": 51, "duration": 55, "velocity": 100}, {"time": 2090, "pitch": 55, "duration": 55, "velocity": 100}, {"time": 2310, "pitch": 55, "duration": 165, "velocity": 100}, {"time": 2420, "pitch": 63, "duration": 110, "velocity": 100}, {"time": 2530, "pitch": 55, "duration": 55, "velocity": 100}, {"time": 2750, "pitch": 58, "duration": 55, "velocity": 100}, {"time": 2805, "pitch": 55, "duration": 55, "velocity": 100}, {"time": 2970, "pitch": 55, "duration": 110, "velocity": 100}, {"time": 3080, "pitch": 58, "duration": 110, "velocity": 100}, {"time": 3190, "pitch": 55, "duration": 55, "velocity": 100}, {"time": 3190, "pitch": 58, "duration": 165, "velocity": 100}, {"time": 3300, "pitch": 63, "duration": 110, "velocity": 100}, {"time": 3410, "pitch": 55, "duration": 55, "velocity": 100}, {"time": 3630, "pitch": 60, "duration": 165, "velocity": 100}, {"time": 3850, "pitch": 60, "duration": 55, "velocity": 100}, {"time": 3850, "pitch": 63, "duration": 220, "velocity": 100}, {"time": 4070, "pitch": 60, "duration": 165, "velocity": 100}, {"time": 4235, "pitch": 63, "duration": 110, "velocity": 100}, {"time": 4290, "pitch": 60, "duration": 55, "velocity": 100}, {"time": 4345, "pitch": 63, "duration": 55, "velocity": 100}, {"time": 4510, "pitch": 55, "duration": 165, "velocity": 100}, {"time": 4730, "pitch": 55, "duration": 55, "velocity": 100}, {"time": 4730, "pitch": 60, "duration": 55, "velocity": 100}, {"time": 4840, "pitch": 63, "duration": 55, "velocity": 100}, {"time": 4950, "pitch": 55, "duration": 55, "velocity": 100}, {"time": 5005, "pitch": 60, "duration": 55, "velocity": 100}, {"time": 5005, "pitch": 63, "duration": 55, "velocity": 100}, {"time": 5060, "pitch": 63, "duration": 110, "velocity": 100}, {"time": 5170, "pitch": 58, "duration": 55, "velocity": 100}, {"time": 5170, "pitch": 60, "duration": 55, "velocity": 100}, {"time": 5170, "pitch": 63, "duration": 55, "velocity": 100}, {"time": 5390, "pitch": 60, "duration": 165, "velocity": 100}, {"time": 5610, "pitch": 55, "duration": 55, "velocity": 100}, {"time": 5610, "pitch": 60, "duration": 55, "velocity": 100}, {"time": 5720, "pitch": 65, "duration": 110, "velocity": 100}, {"time": 5830, "pitch": 55, "duration": 165, "velocity": 100}, {"time": 5830, "pitch": 60, "duration": 220, "velocity": 100}, {"time": 5940, "pitch": 63, "duration": 110, "velocity": 100}, {"time": 6050, "pitch": 58, "duration": 110, "velocity": 100}, {"time": 6160, "pitch": 48, "duration": 55, "velocity": 100}, {"time": 6270, "pitch": 55, "duration": 55, "velocity": 100}, {"time": 6380, "pitch": 50, "duration": 55, "velocity": 100}, {"time": 6490, "pitch": 60, "duration": 55, "velocity": 100}, {"time": 6600, "pitch": 65, "duration": 110, "velocity": 100}, {"time": 6875, "pitch": 63, "duration": 110, "velocity": 100}, {"time": 7040, "pitch": 55, "duration": 165, "velocity": 100}, {"time": 7150, "pitch": 63, "duration": 275, "velocity": 100}, {"time": 7205, "pitch": 63, "duration": 165, "velocity": 100}, {"time": 7260, "pitch": 55, "duration": 165, "velocity": 100}, {"time": 7260, "pitch": 58, "duration": 165, "velocity": 100}, {"time": 7425, "pitch": 60, "duration": 385, "velocity": 100}, {"time": 7480, "pitch": 67, "duration": 165, "velocity": 100}, {"time": 7590, "pitch": 55, "duration": 110, "velocity": 100}, {"time": 7700, "pitch": 70, "duration": 165, "velocity": 100}, {"time": 7810, "pitch": 55, "duration": 55, "velocity": 100}, {"time": 7920, "pitch": 51, "duration": 165, "velocity": 100}, {"time": 8140, "pitch": 55, "duration": 165, "velocity": 100}, {"time": 8250, "pitch": 63, "duration": 275, "velocity": 100}, {"time": 8360, "pitch": 67, "duration": 165, "velocity": 100}, {"time": 8470, "pitch": 55, "duration": 55, "velocity": 100}, {"time": 8690, "pitch": 55, "duration": 55, "velocity": 100}, {"time": 8800, "pitch": 51, "duration": 55, "velocity": 100}, {"time": 9020, "pitch": 55, "duration": 110, "velocity": 100}, {"time": 9130, "pitch": 70, "duration": 110, "velocity": 100}, {"time": 9240, "pitch": 51, "duration": 55, "velocity": 100}, {"time": 9350, "pitch": 55, "duration": 110, "velocity": 100}, {"time": 9460, "pitch": 65, "duration": 165, "velocity": 100}, {"time": 9570, "pitch": 55, "duration": 55, "velocity": 100}, {"time": 9680, "pitch": 51, "duration": 165, "velocity": 100}, {"time": 9680, "pitch": 55, "duration": 165, "velocity": 100}, {"time": 9900, "pitch": 55, "duration": 275, "velocity": 100}, {"time": 10175, "pitch": 60, "duration": 110, "velocity": 100}, {"time": 10230, "pitch": 55, "duration": 55, "velocity": 100}, {"time": 10340, "pitch": 63, "duration": 110, "velocity": 100}, {"time": 10450, "pitch": 51, "duration": 55, "velocity": 100}, {"time": 10450, "pitch": 58, "duration": 55, "velocity": 100}, {"time": 10560, "pitch": 51, "duration": 165, "velocity": 100}, {"time": 10670, "pitch": 63, "duration": 275, "velocity": 100}, {"time": 10780, "pitch": 55, "duration": 165, "velocity": 100}, {"time": 10890, "pitch": 68, "duration": 110, "velocity": 100}, {"time": 11000, "pitch": 67, "duration": 165, "velocity": 100}, {"time": 11110, "pitch": 51, "duration": 110, "velocity": 100}, {"time": 11110, "pitch": 55, "duration": 110, "velocity": 100}, {"time": 11220, "pitch": 70, "duration": 165, "velocity": 100}, {"time": 11330, "pitch": 55, "duration": 55, "velocity": 100}, {"time": 11440, "pitch": 51, "duration": 165, "velocity": 100}, {"time": 11660, "pitch": 55, "duration": 220, "velocity": 100}, {"time": 11770, "pitch": 67, "duration": 110, "velocity": 100}, {"time": 11880, "pitch": 70, "duration": 165, "velocity": 100}, {"time": 11990, "pitch": 51, "duration": 55, "velocity": 100}, {"time": 11990, "pitch": 55, "duration": 55, "velocity": 100}, {"time": 12210, "pitch": 55, "duration": 55, "velocity": 100}, {"time": 12320, "pitch": 51, "duration": 165, "velocity": 100}, {"time": 12320, "pitch": 55, "duration": 165, "velocity": 100}, {"time": 12540, "pitch": 55, "duration": 55, "velocity": 100}, {"time": 12705, "pitch": 70, "duration": 110, "velocity": 100}, {"time": 12760, "pitch": 51, "duration": 55, "velocity": 100}, {"time": 12870, "pitch": 55, "duration": 110, "velocity": 100}, {"time": 12980, "pitch": 70, "duration": 165, "velocity": 100}, {"time": 13090, "pitch": 55, "duration": 55, "velocity": 100}, {"time": 13200, "pitch": 51, "duration": 165, "velocity": 100}, {"time": 13420, "pitch": 55, "duration": 275, "velocity": 100}, {"time": 13530, "pitch": 67, "duration": 110, "velocity": 100}, {"time": 13640, "pitch": 60, "duration": 165, "velocity": 100}, {"time": 13750, "pitch": 55, "duration": 55, "velocity": 100}, {"time": 13970, "pitch": 51, "duration": 55, "velocity": 100}, {"time": 13970, "pitch": 58, "duration": 55, "velocity": 100}, {"time": 14080, "pitch": 55, "duration": 165, "velocity": 100}, {"time": 14410, "pitch": 55, "duration": 110, "velocity": 100}, {"time": 14520, "pitch": 60, "duration": 165, "velocity": 100}, {"time": 14630, "pitch": 55, "duration": 110, "velocity": 100}, {"time": 14850, "pitch": 55, "duration": 55, "velocity": 100}, {"time": 14960, "pitch": 55, "duration": 165, "velocity": 100}, {"time": 15290, "pitch": 67, "duration": 275, "velocity": 100}, {"time": 15510, "pitch": 55, "duration": 55, "velocity": 100}, {"time": 15510, "pitch": 60, "duration": 55, "velocity": 100}, {"time": 15840, "pitch": 55, "duration": 165, "velocity": 100}, {"time": 16280, "pitch": 55, "duration": 55, "velocity": 100}, {"time": 16720, "pitch": 55, "duration": 165, "velocity": 100}, {"time": 16940, "pitch": 60, "duration": 275, "velocity": 100}, {"time": 17050, "pitch": 55, "duration": 165, "velocity": 100}, {"time": 17270, "pitch": 55, "duration": 55, "velocity": 100}, {"time": 17270, "pitch": 60, "duration": 55, "velocity": 100}, {"time": 17490, "pitch": 55, "duration": 55, "velocity": 100}, {"time": 17600, "pitch": 55, "duration": 165, "velocity": 100}, {"time": 17820, "pitch": 60, "duration": 165, "velocity": 100}, {"time": 18150, "pitch": 55, "duration": 110, "velocity": 100}, {"time": 18150, "pitch": 60, "duration": 110, "velocity": 100}, {"time": 18370, "pitch": 55, "duration": 55, "velocity": 100}, {"time": 18480, "pitch": 55, "duration": 165, "velocity": 100}, {"time": 18700, "pitch": 55, "duration": 55, "velocity": 100}, {"time": 19250, "pitch": 55, "duration": 55, "velocity": 100}, {"time": 19580, "pitch": 55, "duration": 55, "velocity": 100}, {"time": 19800, "pitch": 55, "duration": 55, "velocity": 100}, {"time": 19910, "pitch": 60, "duration": 110, "velocity": 100}, {"time": 20130, "pitch": 55, "duration": 55, "velocity": 100}, {"time": 20240, "pitch": 55, "duration": 165, "velocity": 100}, {"time": 20460, "pitch": 60, "duration": 275, "velocity": 100}, {"time": 20570, "pitch": 55, "duration": 165, "velocity": 100}, {"time": 20790, "pitch": 55, "duration": 55, "velocity": 100}, {"time": 21010, "pitch": 55, "duration": 55, "velocity": 100}, {"time": 21120, "pitch": 55, "duration": 165, "velocity": 100}, {"time": 21340, "pitch": 55, "duration": 165, "velocity": 100}, {"time": 21670, "pitch": 51, "duration": 110, "velocity": 100}, {"time": 21670, "pitch": 55, "duration": 110, "velocity": 100}, {"time": 21890, "pitch": 51, "duration": 55, "velocity": 100}, {"time": 22000, "pitch": 51, "duration": 165, "velocity": 100}, {"time": 22220, "pitch": 55, "duration": 220, "velocity": 100}, {"time": 22550, "pitch": 51, "duration": 55, "velocity": 100}, {"time": 22770, "pitch": 51, "duration": 55, "velocity": 100}, {"time": 22770, "pitch": 55, "duration": 55, "velocity": 100}, {"time": 22880, "pitch": 51, "duration": 165, "velocity": 100}, {"time": 23100, "pitch": 55, "duration": 165, "velocity": 100}, {"time": 23210, "pitch": 51, "duration": 55, "velocity": 100}, {"time": 23320, "pitch": 51, "duration": 55, "velocity": 100}, {"time": 23430, "pitch": 51, "duration": 110, "velocity": 100}, {"time": 23430, "pitch": 55, "duration": 110, "velocity": 100}, {"time": 23650, "pitch": 51, "duration": 55, "velocity": 100}, {"time": 23650, "pitch": 55, "duration": 55, "velocity": 100}, {"time": 23760, "pitch": 51, "duration": 165, "velocity": 100}, {"time": 23980, "pitch": 51, "duration": 55, "velocity": 100}, {"time": 23980, "pitch": 55, "duration": 275, "velocity": 100}, {"time": 24090, "pitch": 51, "duration": 165, "velocity": 100}, {"time": 24530, "pitch": 51, "duration": 55, "velocity": 100}, {"time": 24640, "pitch": 55, "duration": 165, "velocity": 100}, {"time": 24860, "pitch": 55, "duration": 55, "velocity": 100}, {"time": 24970, "pitch": 55, "duration": 110, "velocity": 100}, {"time": 24970, "pitch": 60, "duration": 220, "velocity": 100}, {"time": 25190, "pitch": 55, "duration": 110, "velocity": 100}, {"time": 25410, "pitch": 55, "duration": 55, "velocity": 100}, {"time": 25520, "pitch": 55, "duration": 165, "velocity": 100}, {"time": 25740, "pitch": 60, "duration": 55, "velocity": 100}, {"time": 26070, "pitch": 55, "duration": 55, "velocity": 100}, {"time": 26290, "pitch": 55, "duration": 55, "velocity": 100}, {"time": 26400, "pitch": 55, "duration": 165, "velocity": 100}, {"time": 26620, "pitch": 55, "duration": 55, "velocity": 100}, {"time": 26730, "pitch": 55, "duration": 55, "velocity": 100}, {"time": 26840, "pitch": 55, "duration": 55, "velocity": 100}, {"time": 26950, "pitch": 55, "duration": 110, "velocity": 100}, {"time": 27170, "pitch": 55, "duration": 55, "velocity": 100}, {"time": 27280, "pitch": 55, "duration": 165, "velocity": 100}, {"time": 27500, "pitch": 60, "duration": 220, "velocity": 100}, {"time": 27610, "pitch": 55, "duration": 165, "velocity": 100}, {"time": 27830, "pitch": 55, "duration": 55, "velocity": 100}, {"time": 27995, "pitch": 60, "duration": 110, "velocity": 100}, {"time": 28050, "pitch": 55, "duration": 55, "velocity": 100}, {"time": 28325, "pitch": 60, "duration": 165, "velocity": 100}, {"time": 28380, "pitch": 55, "duration": 165, "velocity": 100}, {"time": 28985, "pitch": 60, "duration": 55, "velocity": 100}, {"time": 28985, "pitch": 63, "duration": 55, "velocity": 100}, {"time": 29645, "pitch": 60, "duration": 55, "velocity": 100}, {"time": 29645, "pitch": 63, "duration": 55, "velocity": 100}, {"time": 29700, "pitch": 55, "duration": 165, "velocity": 100}, {"time": 30030, "pitch": 55, "duration": 165, "velocity": 100}, {"time": 30250, "pitch": 55, "duration": 55, "velocity": 100}, {"time": 30470, "pitch": 55, "duration": 165, "velocity": 100}, {"time": 30580, "pitch": 55, "duration": 110, "velocity": 100}, {"time": 30690, "pitch": 55, "duration": 55, "velocity": 100}, {"time": 30690, "pitch": 60, "duration": 55, "velocity": 100}, {"time": 30965, "pitch": 60, "duration": 55, "velocity": 100}, {"time": 30965, "pitch": 60, "duration": 110, "velocity": 100}, {"time": 31020, "pitch": 55, "duration": 220, "velocity": 100}, {"time": 31350, "pitch": 60, "duration": 110, "velocity": 100}, {"time": 31900, "pitch": 60, "duration": 110, "velocity": 100}, {"time": 32285, "pitch": 63, "duration": 165, "velocity": 100}, {"time": 32450, "pitch": 63, "duration": 220, "velocity": 100}, {"time": 32505, "pitch": 63, "duration": 55, "velocity": 100}, {"time": 32560, "pitch": 56, "duration": 220, "velocity": 100}, {"time": 32670, "pitch": 60, "duration": 165, "velocity": 100}, {"time": 33000, "pitch": 63, "duration": 55, "velocity": 100}, {"time": 33110, "pitch": 60, "duration": 55, "velocity": 100}, {"time": 33110, "pitch": 63, "duration": 55, "velocity": 100}, {"time": 33165, "pitch": 63, "duration": 55, "velocity": 100}, {"time": 33220, "pitch": 56, "duration": 165, "velocity": 100}, {"time": 33330, "pitch": 60, "duration": 55, "velocity": 100}, {"time": 33330, "pitch": 63, "duration": 55, "velocity": 100}, {"time": 33550, "pitch": 60, "duration": 165, "velocity": 100}, {"time": 33660, "pitch": 56, "duration": 165, "velocity": 100}, {"time": 33990, "pitch": 60, "duration": 165, "velocity": 100}, {"time": 33990, "pitch": 63, "duration": 165, "velocity": 100}, {"time": 34100, "pitch": 56, "duration": 220, "velocity": 100}, {"time": 34320, "pitch": 56, "duration": 55, "velocity": 100}, {"time": 34430, "pitch": 56, "duration": 55, "velocity": 100}, {"time": 34540, "pitch": 56, "duration": 55, "velocity": 100}, {"time": 34650, "pitch": 56, "duration": 55, "velocity": 100}, {"time": 34705, "pitch": 56, "duration": 55, "velocity": 100}, {"time": 34925, "pitch": 63, "duration": 165, "velocity": 100}, {"time": 35090, "pitch": 63, "duration": 110, "velocity": 100}, {"time": 35420, "pitch": 51, "duration": 55, "velocity": 100}, {"time": 35530, "pitch": 51, "duration": 55, "velocity": 100}, {"time": 35640, "pitch": 51, "duration": 165, "velocity": 100}, {"time": 36080, "pitch": 55, "duration": 165, "velocity": 100}, {"time": 36190, "pitch": 51, "duration": 165, "velocity": 100}, {"time": 36520, "pitch": 55, "duration": 55, "velocity": 100}, {"time": 36630, "pitch": 55, "duration": 110, "velocity": 100}, {"time": 36685, "pitch": 63, "duration": 165, "velocity": 100}, {"time": 36850, "pitch": 55, "duration": 55, "velocity": 100}, {"time": 36960, "pitch": 55, "duration": 165, "velocity": 100}, {"time": 37070, "pitch": 51, "duration": 165, "velocity": 100}, {"time": 37400, "pitch": 58, "duration": 220, "velocity": 100}, {"time": 37620, "pitch": 55, "duration": 110, "velocity": 100}, {"time": 37950, "pitch": 46, "duration": 165, "velocity": 100}, {"time": 38280, "pitch": 55, "duration": 55, "velocity": 100}, {"time": 38390, "pitch": 55, "duration": 110, "velocity": 100}, {"time": 38720, "pitch": 58, "duration": 110, "velocity": 100}, {"time": 38830, "pitch": 51, "duration": 110, "velocity": 100}, {"time": 38940, "pitch": 58, "duration": 55, "velocity": 100}, {"time": 39160, "pitch": 56, "duration": 220, "velocity": 100}, {"time": 39710, "pitch": 56, "duration": 220, "velocity": 100}, {"time": 40150, "pitch": 56, "duration": 165, "velocity": 100}, {"time": 40260, "pitch": 60, "duration": 55, "velocity": 100}, {"time": 40590, "pitch": 56, "duration": 165, "velocity": 100}, {"time": 41030, "pitch": 56, "duration": 165, "velocity": 100}, {"time": 41470, "pitch": 51, "duration": 220, "velocity": 100}, {"time": 41580, "pitch": 56, "duration": 110, "velocity": 100}, {"time": 41800, "pitch": 56, "duration": 165, "velocity": 100}, {"time": 42130, "pitch": 58, "duration": 55, "velocity": 100}, {"time": 42240, "pitch": 51, "duration": 110, "velocity": 100}, {"time": 42350, "pitch": 48, "duration": 110, "velocity": 100}, {"time": 42460, "pitch": 48, "duration": 55, "velocity": 100}, {"time": 42460, "pitch": 51, "duration": 55, "velocity": 100}, {"time": 42570, "pitch": 53, "duration": 55, "velocity": 100}, {"time": 42680, "pitch": 51, "duration": 110, "velocity": 100}, {"time": 43120, "pitch": 55, "duration": 165, "velocity": 100}, {"time": 43450, "pitch": 60, "duration": 110, "velocity": 100}, {"time": 43450, "pitch": 63, "duration": 110, "velocity": 100}, {"time": 43780, "pitch": 55, "duration": 165, "velocity": 100}, {"time": 44000, "pitch": 55, "duration": 220, "velocity": 100}, {"time": 44330, "pitch": 55, "duration": 110, "velocity": 100}, {"time": 44330, "pitch": 58, "duration": 110, "velocity": 100}, {"time": 44550, "pitch": 51, "duration": 165, "velocity": 100}, {"time": 44660, "pitch": 55, "duration": 55, "velocity": 100}, {"time": 44880, "pitch": 55, "duration": 165, "velocity": 100}, {"time": 44990, "pitch": 48, "duration": 275, "velocity": 100}, {"time": 45100, "pitch": 51, "duration": 110, "velocity": 100}, {"time": 45100, "pitch": 55, "duration": 110, "velocity": 100}, {"time": 45320, "pitch": 51, "duration": 55, "velocity": 100}, {"time": 45540, "pitch": 55, "duration": 110, "velocity": 100}, {"time": 45650, "pitch": 51, "duration": 55, "velocity": 100}, {"time": 45760, "pitch": 48, "duration": 220, "velocity": 100}, {"time": 45980, "pitch": 56, "duration": 165, "velocity": 100}, {"time": 46420, "pitch": 56, "duration": 165, "velocity": 100}, {"time": 46530, "pitch": 60, "duration": 55, "velocity": 100}, {"time": 46530, "pitch": 63, "duration": 55, "velocity": 100}, {"time": 46585, "pitch": 60, "duration": 55, "velocity": 100}, {"time": 46585, "pitch": 63, "duration": 55, "velocity": 100}, {"time": 46750, "pitch": 56, "duration": 165, "velocity": 100}, {"time": 47190, "pitch": 56, "duration": 55, "velocity": 100}, {"time": 47190, "pitch": 60, "duration": 55, "velocity": 100}, {"time": 47245, "pitch": 60, "duration": 55, "velocity": 100}, {"time": 47245, "pitch": 63, "duration": 55, "velocity": 100}, {"time": 47410, "pitch": 58, "duration": 55, "velocity": 100}, {"time": 47630, "pitch": 56, "duration": 165, "velocity": 100}, {"time": 47630, "pitch": 60, "duration": 165, "velocity": 100}, {"time": 47850, "pitch": 56, "duration": 55, "velocity": 100}, {"time": 48070, "pitch": 56, "duration": 165, "velocity": 100}, {"time": 48070, "pitch": 60, "duration": 165, "velocity": 100}, {"time": 48180, "pitch": 56, "duration": 110, "velocity": 100}, {"time": 48290, "pitch": 56, "duration": 55, "velocity": 100}, {"time": 48565, "pitch": 60, "duration": 55, "velocity": 100}, {"time": 48840, "pitch": 63, "duration": 55, "velocity": 100}, {"time": 48950, "pitch": 60, "duration": 110, "velocity": 100}, {"time": 49170, "pitch": 60, "duration": 55, "velocity": 100}, {"time": 49170, "pitch": 63, "duration": 55, "velocity": 100}, {"time": 50105, "pitch": 63, "duration": 55, "velocity": 100}, {"time": 50160, "pitch": 56, "duration": 220, "velocity": 100}, {"time": 50270, "pitch": 60, "duration": 165, "velocity": 100}, {"time": 50765, "pitch": 60, "duration": 55, "velocity": 100}, {"time": 50765, "pitch": 63, "duration": 55, "velocity": 100}, {"time": 50820, "pitch": 56, "duration": 165, "velocity": 100}, {"time": 50930, "pitch": 60, "duration": 55, "velocity": 100}, {"time": 50930, "pitch": 63, "duration": 55, "velocity": 100}, {"time": 51150, "pitch": 60, "duration": 165, "velocity": 100}, {"time": 51150, "pitch": 63, "duration": 165, "velocity": 100}, {"time": 51260, "pitch": 56, "duration": 165, "velocity": 100}, {"time": 51370, "pitch": 60, "duration": 55, "velocity": 100}, {"time": 51590, "pitch": 60, "duration": 165, "velocity": 100}, {"time": 51590, "pitch": 63, "duration": 165, "velocity": 100}, {"time": 51700, "pitch": 56, "duration": 220, "velocity": 100}, {"time": 51865, "pitch": 60, "duration": 220, "velocity": 100}, {"time": 52030, "pitch": 56, "duration": 55, "velocity": 100}, {"time": 52140, "pitch": 56, "duration": 55, "velocity": 100}, {"time": 52250, "pitch": 56, "duration": 55, "velocity": 100}, {"time": 52305, "pitch": 56, "duration": 55, "velocity": 100}, {"time": 52415, "pitch": 67, "duration": 110, "velocity": 100}, {"time": 53020, "pitch": 56, "duration": 55, "velocity": 100}, {"time": 53130, "pitch": 60, "duration": 55, "velocity": 100}, {"time": 53570, "pitch": 56, "duration": 55, "velocity": 100}, {"time": 53790, "pitch": 60, "duration": 165, "velocity": 100}, {"time": 53900, "pitch": 56, "duration": 220, "velocity": 100}, {"time": 54010, "pitch": 60, "duration": 55, "velocity": 100}, {"time": 54010, "pitch": 63, "duration": 55, "velocity": 100}, {"time": 54230, "pitch": 63, "duration": 165, "velocity": 100}, {"time": 54340, "pitch": 56, "duration": 165, "velocity": 100}, {"time": 54450, "pitch": 60, "duration": 55, "velocity": 100}, {"time": 54890, "pitch": 56, "duration": 55, "velocity": 100}, {"time": 55110, "pitch": 51, "duration": 55, "velocity": 100}, {"time": 55330, "pitch": 56, "duration": 55, "velocity": 100}, {"time": 55550, "pitch": 60, "duration": 110, "velocity": 100}, {"time": 55660, "pitch": 56, "duration": 165, "velocity": 100}, {"time": 55770, "pitch": 60, "duration": 55, "velocity": 100}, {"time": 55770, "pitch": 63, "duration": 55, "velocity": 100}, {"time": 55990, "pitch": 60, "duration": 165, "velocity": 100}, {"time": 55990, "pitch": 63, "duration": 110, "velocity": 100}, {"time": 56210, "pitch": 60, "duration": 55, "velocity": 100}, {"time": 56430, "pitch": 58, "duration": 110, "velocity": 100}, {"time": 56540, "pitch": 55, "duration": 165, "velocity": 100}, {"time": 56650, "pitch": 58, "duration": 55, "velocity": 100}, {"time": 56870, "pitch": 58, "duration": 165, "velocity": 100}, {"time": 56980, "pitch": 55, "duration": 165, "velocity": 100}, {"time": 57090, "pitch": 58, "duration": 55, "velocity": 100}, {"time": 57090, "pitch": 60, "duration": 55, "velocity": 100}, {"time": 57200, "pitch": 63, "duration": 110, "velocity": 100}, {"time": 57310, "pitch": 58, "duration": 55, "velocity": 100}, {"time": 57420, "pitch": 51, "duration": 165, "velocity": 100}, {"time": 57970, "pitch": 58, "duration": 55, "velocity": 100}]}, {"program": 71, "is_drum": false, "name": "Bass", "notes": [{"time": 0, "pitch": 43, "duration": 220, "velocity": 100}, {"time": 110, "pitch": 53, "duration": 165, "velocity": 100}, {"time": 220, "pitch": 47, "duration": 165, "velocity": 100}, {"time": 440, "pitch": 39, "duration": 385, "velocity": 100}, {"time": 660, "pitch": 46, "duration": 165, "velocity": 100}, {"time": 770, "pitch": 51, "duration": 55, "velocity": 100}, {"time": 825, "pitch": 51, "duration": 55, "velocity": 100}, {"time": 880, "pitch": 39, "duration": 220, "velocity": 100}, {"time": 1100, "pitch": 46, "duration": 220, "velocity": 100}, {"time": 1210, "pitch": 51, "duration": 55, "velocity": 100}, {"time": 1320, "pitch": 39, "duration": 330, "velocity": 100}, {"time": 1430, "pitch": 51, "duration": 55, "velocity": 100}, {"time": 1485, "pitch": 51, "duration": 55, "velocity": 100}, {"time": 1540, "pitch": 46, "duration": 165, "velocity": 100}, {"time": 1650, "pitch": 51, "duration": 55, "velocity": 100}, {"time": 1760, "pitch": 39, "duration": 330, "velocity": 100}, {"time": 1870, "pitch": 51, "duration": 165, "velocity": 100}, {"time": 1980, "pitch": 46, "duration": 165, "velocity": 100}, {"time": 2200, "pitch": 39, "duration": 275, "velocity": 100}, {"time": 2310, "pitch": 51, "duration": 165, "velocity": 100}, {"time": 2420, "pitch": 46, "duration": 110, "velocity": 100}, {"time": 2530, "pitch": 51, "duration": 55, "velocity": 100}, {"time": 2640, "pitch": 39, "duration": 220, "velocity": 100}, {"time": 2750, "pitch": 51, "duration": 55, "velocity": 100}, {"time": 2805, "pitch": 51, "duration": 55, "velocity": 100}, {"time": 2860, "pitch": 46, "duration": 220, "velocity": 100}, {"time": 2970, "pitch": 51, "duration": 55, "velocity": 100}, {"time": 3080, "pitch": 39, "duration": 385, "velocity": 100}, {"time": 3300, "pitch": 46, "duration": 55, "velocity": 100}, {"time": 3410, "pitch": 51, "duration": 55, "velocity": 100}, {"time": 3520, "pitch": 48, "duration": 220, "velocity": 100}, {"time": 3740, "pitch": 55, "duration": 165, "velocity": 100}, {"time": 3960, "pitch": 48, "duration": 385, "velocity": 100}, {"time": 4180, "pitch": 55, "duration": 165, "velocity": 100}, {"time": 4345, "pitch": 60, "duration": 55, "velocity": 100}, {"time": 4345, "pitch": 63, "duration": 275, "velocity": 100}, {"time": 4400, "pitch": 48, "duration": 220, "velocity": 100}, {"time": 4620, "pitch": 51, "duration": 220, "velocity": 100}, {"time": 4840, "pitch": 48, "duration": 330, "velocity": 100}, {"time": 5005, "pitch": 55, "duration": 55, "velocity": 100}, {"time": 5060, "pitch": 51, "duration": 165, "velocity": 100}, {"time": 5280, "pitch": 43, "duration": 330, "velocity": 100}, {"time": 5390, "pitch": 55, "duration": 165, "velocity": 100}, {"time": 5500, "pitch": 51, "duration": 165, "velocity": 100}, {"time": 5720, "pitch": 48, "duration": 275, "velocity": 100}, {"time": 5940, "pitch": 55, "duration": 220, "velocity": 100}, {"time": 6160, "pitch": 36, "duration": 55, "velocity": 100}, {"time": 6270, "pitch": 36, "duration": 55, "velocity": 100}, {"time": 6380, "pitch": 38, "duration": 110, "velocity": 100}, {"time": 6490, "pitch": 36, "duration": 55, "velocity": 100}, {"time": 6490, "pitch": 51, "duration": 55, "velocity": 100}, {"time": 6545, "pitch": 36, "duration": 55, "velocity": 100}, {"time": 6545, "pitch": 51, "duration": 55, "velocity": 100}, {"time": 6710, "pitch": 60, "duration": 165, "velocity": 100}, {"time": 6985, "pitch": 63, "duration": 55, "velocity": 100}, {"time": 7040, "pitch": 48, "duration": 440, "velocity": 100}, {"time": 7040, "pitch": 51, "duration": 165, "velocity": 100}, {"time": 7260, "pitch": 51, "duration": 55, "velocity": 100}, {"time": 7370, "pitch": 51, "duration": 110, "velocity": 100}, {"time": 7480, "pitch": 39, "duration": 275, "velocity": 100}, {"time": 7590, "pitch": 51, "duration": 110, "velocity": 100}, {"time": 7700, "pitch": 46, "duration": 165, "velocity": 100}, {"time": 7810, "pitch": 51, "duration": 55, "velocity": 100}, {"time": 7920, "pitch": 39, "duration": 385, "velocity": 100}, {"time": 8140, "pitch": 51, "duration": 110, "velocity": 100}, {"time": 8250, "pitch": 51, "duration": 165, "velocity": 100}, {"time": 8360, "pitch": 39, "duration": 165, "velocity": 100}, {"time": 8470, "pitch": 51, "duration": 55, "velocity": 100}, {"time": 8690, "pitch": 51, "duration": 55, "velocity": 100}, {"time": 8800, "pitch": 39, "duration": 385, "velocity": 100}, {"time": 9020, "pitch": 51, "duration": 55, "velocity": 100}, {"time": 9130, "pitch": 51, "duration": 55, "velocity": 100}, {"time": 9240, "pitch": 39, "duration": 165, "velocity": 100}, {"time": 9350, "pitch": 51, "duration": 110, "velocity": 100}, {"time": 9460, "pitch": 46, "duration": 165, "velocity": 100}, {"time": 9570, "pitch": 51, "duration": 55, "velocity": 100}, {"time": 9680, "pitch": 39, "duration": 385, "velocity": 100}, {"time": 9900, "pitch": 51, "duration": 55, "velocity": 100}, {"time": 10010, "pitch": 51, "duration": 165, "velocity": 100}, {"time": 10120, "pitch": 39, "duration": 165, "velocity": 100}, {"time": 10230, "pitch": 51, "duration": 55, "velocity": 100}, {"time": 10450, "pitch": 39, "duration": 110, "velocity": 100}, {"time": 10560, "pitch": 43, "duration": 440, "velocity": 100}, {"time": 10780, "pitch": 51, "duration": 55, "velocity": 100}, {"time": 10890, "pitch": 51, "duration": 110, "velocity": 100}, {"time": 11000, "pitch": 39, "duration": 275, "velocity": 100}, {"time": 11220, "pitch": 46, "duration": 165, "velocity": 100}, {"time": 11330, "pitch": 51, "duration": 55, "velocity": 100}, {"time": 11440, "pitch": 39, "duration": 385, "velocity": 100}, {"time": 11660, "pitch": 51, "duration": 110, "velocity": 100}, {"time": 11770, "pitch": 51, "duration": 165, "velocity": 100}, {"time": 11880, "pitch": 39, "duration": 165, "velocity": 100}, {"time": 12210, "pitch": 51, "duration": 55, "velocity": 100}, {"time": 12320, "pitch": 43, "duration": 385, "velocity": 100}, {"time": 12540, "pitch": 51, "duration": 55, "velocity": 100}, {"time": 12650, "pitch": 51, "duration": 55, "velocity": 100}, {"time": 12760, "pitch": 39, "duration": 220, "velocity": 100}, {"time": 12870, "pitch": 51, "duration": 110, "velocity": 100}, {"time": 12980, "pitch": 46, "duration": 165, "velocity": 100}, {"time": 13090, "pitch": 51, "duration": 55, "velocity": 100}, {"time": 13200, "pitch": 39, "duration": 385, "velocity": 100}, {"time": 13420, "pitch": 51, "duration": 55, "velocity": 100}, {"time": 13530, "pitch": 51, "duration": 165, "velocity": 100}, {"time": 13640, "pitch": 39, "duration": 165, "velocity": 100}, {"time": 13970, "pitch": 39, "duration": 110, "velocity": 100}, {"time": 14080, "pitch": 48, "duration": 440, "velocity": 100}, {"time": 14520, "pitch": 43, "duration": 385, "velocity": 100}, {"time": 14740, "pitch": 51, "duration": 165, "velocity": 100}, {"time": 14960, "pitch": 48, "duration": 440, "velocity": 100}, {"time": 15180, "pitch": 55, "duration": 55, "velocity": 100}, {"time": 15290, "pitch": 55, "duration": 165, "velocity": 100}, {"time": 15400, "pitch": 43, "duration": 165, "velocity": 100}, {"time": 15730, "pitch": 55, "duration": 55, "velocity": 100}, {"time": 15840, "pitch": 48, "duration": 385, "velocity": 100}, {"time": 16060, "pitch": 55, "duration": 55, "velocity": 100}, {"time": 16170, "pitch": 55, "duration": 55, "velocity": 100}, {"time": 16280, "pitch": 48, "duration": 165, "velocity": 100}, {"time": 16500, "pitch": 48, "duration": 165, "velocity": 100}, {"time": 16720, "pitch": 48, "duration": 440, "velocity": 100}, {"time": 16940, "pitch": 55, "duration": 55, "velocity": 100}, {"time": 17160, "pitch": 43, "duration": 165, "velocity": 100}, {"time": 17490, "pitch": 43, "duration": 110, "velocity": 100}, {"time": 17600, "pitch": 48, "duration": 440, "velocity": 100}, {"time": 17820, "pitch": 55, "duration": 55, "velocity": 100}, {"time": 17930, "pitch": 55, "duration": 110, "velocity": 100}, {"time": 18040, "pitch": 43, "duration": 385, "velocity": 100}, {"time": 18260, "pitch": 51, "duration": 165, "velocity": 100}, {"time": 18480, "pitch": 48, "duration": 440, "velocity": 100}, {"time": 18810, "pitch": 55, "duration": 165, "velocity": 100}, {"time": 18920, "pitch": 43, "duration": 165, "velocity": 100}, {"time": 19360, "pitch": 48, "duration": 385, "velocity": 100}, {"time": 19690, "pitch": 55, "duration": 55, "velocity": 100}, {"time": 19800, "pitch": 48, "duration": 165, "velocity": 100}, {"time": 19910, "pitch": 55, "duration": 110, "velocity": 100}, {"time": 20020, "pitch": 48, "duration": 165, "velocity": 100}, {"time": 20240, "pitch": 48, "duration": 440, "velocity": 100}, {"time": 20460, "pitch": 55, "duration": 55, "velocity": 100}, {"time": 20680, "pitch": 43, "duration": 165, "velocity": 100}, {"time": 21010, "pitch": 43, "duration": 110, "velocity": 100}, {"time": 21120, "pitch": 48, "duration": 440, "velocity": 100}, {"time": 21120, "pitch": 51, "duration": 165, "velocity": 100}, {"time": 21340, "pitch": 51, "duration": 55, "velocity": 100}, {"time": 21450, "pitch": 51, "duration": 110, "velocity": 100}, {"time": 21560, "pitch": 39, "duration": 275, "velocity": 100}, {"time": 21780, "pitch": 46, "duration": 165, "velocity": 100}, {"time": 22000, "pitch": 39, "duration": 385, "velocity": 100}, {"time": 22220, "pitch": 51, "duration": 110, "velocity": 100}, {"time": 22330, "pitch": 51, "duration": 165, "velocity": 100}, {"time": 22440, "pitch": 39, "duration": 165, "velocity": 100}, {"time": 22880, "pitch": 39, "duration": 385, "velocity": 100}, {"time": 23100, "pitch": 51, "duration": 55, "velocity": 100}, {"time": 23320, "pitch": 39, "duration": 220, "velocity": 100}, {"time": 23540, "pitch": 46, "duration": 165, "velocity": 100}, {"time": 23760, "pitch": 39, "duration": 385, "velocity": 100}, {"time": 24200, "pitch": 39, "duration": 165, "velocity": 100}, {"time": 24530, "pitch": 39, "duration": 55, "velocity": 100}, {"time": 24640, "pitch": 48, "duration": 440, "velocity": 100}, {"time": 25080, "pitch": 43, "duration": 385, "velocity": 100}, {"time": 25300, "pitch": 51, "duration": 165, "velocity": 100}, {"time": 25520, "pitch": 48, "duration": 440, "velocity": 100}, {"time": 25740, "pitch": 55, "duration": 55, "velocity": 100}, {"time": 25850, "pitch": 55, "duration": 165, "velocity": 100}, {"time": 25960, "pitch": 43, "duration": 165, "velocity": 100}, {"time": 26400, "pitch": 48, "duration": 385, "velocity": 100}, {"time": 26840, "pitch": 48, "duration": 165, "velocity": 100}, {"time": 27060, "pitch": 48, "duration": 165, "velocity": 100}, {"time": 27280, "pitch": 48, "duration": 440, "velocity": 100}, {"time": 27500, "pitch": 55, "duration": 55, "velocity": 100}, {"time": 27720, "pitch": 43, "duration": 165, "velocity": 100}, {"time": 28050, "pitch": 43, "duration": 110, "velocity": 100}, {"time": 28160, "pitch": 48, "duration": 220, "velocity": 100}, {"time": 28600, "pitch": 48, "duration": 385, "velocity": 100}, {"time": 28820, "pitch": 55, "duration": 165, "velocity": 100}, {"time": 29040, "pitch": 48, "duration": 220, "velocity": 100}, {"time": 29260, "pitch": 55, "duration": 220, "velocity": 100}, {"time": 29480, "pitch": 48, "duration": 330, "velocity": 100}, {"time": 29920, "pitch": 48, "duration": 330, "velocity": 100}, {"time": 30140, "pitch": 51, "duration": 165, "velocity": 100}, {"time": 30360, "pitch": 48, "duration": 330, "velocity": 100}, {"time": 30800, "pitch": 48, "duration": 220, "velocity": 100}, {"time": 31240, "pitch": 48, "duration": 385, "velocity": 100}, {"time": 31460, "pitch": 55, "duration": 110, "velocity": 100}, {"time": 31680, "pitch": 51, "duration": 220, "velocity": 100}, {"time": 31900, "pitch": 55, "duration": 220, "velocity": 100}, {"time": 32120, "pitch": 56, "duration": 385, "velocity": 100}, {"time": 32340, "pitch": 56, "duration": 165, "velocity": 100}, {"time": 32780, "pitch": 51, "duration": 220, "velocity": 100}, {"time": 33000, "pitch": 44, "duration": 330, "velocity": 100}, {"time": 33440, "pitch": 44, "duration": 330, "velocity": 100}, {"time": 33880, "pitch": 44, "duration": 275, "velocity": 100}, {"time": 34320, "pitch": 44, "duration": 55, "velocity": 100}, {"time": 34430, "pitch": 44, "duration": 55, "velocity": 100}, {"time": 34540, "pitch": 44, "duration": 110, "velocity": 100}, {"time": 34650, "pitch": 44, "duration": 55, "velocity": 100}, {"time": 34705, "pitch": 44, "duration": 55, "velocity": 100}, {"time": 35200, "pitch": 51, "duration": 55, "velocity": 100}, {"time": 35310, "pitch": 46, "duration": 110, "velocity": 100}, {"time": 35365, "pitch": 51, "duration": 55, "velocity": 100}, {"time": 35475, "pitch": 46, "duration": 55, "velocity": 100}, {"time": 35640, "pitch": 39, "duration": 330, "velocity": 100}, {"time": 35750, "pitch": 46, "duration": 165, "velocity": 100}, {"time": 36080, "pitch": 39, "duration": 275, "velocity": 100}, {"time": 36520, "pitch": 51, "duration": 275, "velocity": 100}, {"time": 36960, "pitch": 43, "duration": 275, "velocity": 100}, {"time": 37400, "pitch": 39, "duration": 275, "velocity": 100}, {"time": 37510, "pitch": 51, "duration": 220, "velocity": 100}, {"time": 37840, "pitch": 39, "duration": 275, "velocity": 100}, {"time": 38170, "pitch": 55, "duration": 110, "velocity": 100}, {"time": 38280, "pitch": 46, "duration": 275, "velocity": 100}, {"time": 38720, "pitch": 46, "duration": 165, "velocity": 100}, {"time": 38940, "pitch": 51, "duration": 55, "velocity": 100}, {"time": 39050, "pitch": 58, "duration": 55, "velocity": 100}, {"time": 39160, "pitch": 44, "duration": 330, "velocity": 100}, {"time": 39270, "pitch": 51, "duration": 220, "velocity": 100}, {"time": 39600, "pitch": 48, "duration": 330, "velocity": 100}, {"time": 40040, "pitch": 51, "duration": 275, "velocity": 100}, {"time": 40480, "pitch": 48, "duration": 330, "velocity": 100}, {"time": 40920, "pitch": 44, "duration": 275, "velocity": 100}, {"time": 41360, "pitch": 44, "duration": 330, "velocity": 100}, {"time": 41800, "pitch": 44, "duration": 330, "velocity": 100}, {"time": 41910, "pitch": 51, "duration": 165, "velocity": 100}, {"time": 42240, "pitch": 44, "duration": 220, "velocity": 100}, {"time": 42680, "pitch": 36, "duration": 330, "velocity": 100}, {"time": 42790, "pitch": 43, "duration": 220, "velocity": 100}, {"time": 42900, "pitch": 55, "duration": 220, "velocity": 100}, {"time": 43120, "pitch": 48, "duration": 385, "velocity": 100}, {"time": 43230, "pitch": 51, "duration": 385, "velocity": 100}, {"time": 43560, "pitch": 48, "duration": 275, "velocity": 100}, {"time": 43670, "pitch": 51, "duration": 165, "velocity": 100}, {"time": 44000, "pitch": 43, "duration": 275, "velocity": 100}, {"time": 44110, "pitch": 51, "duration": 165, "velocity": 100}, {"time": 44440, "pitch": 43, "duration": 275, "velocity": 100}, {"time": 44880, "pitch": 36, "duration": 385, "velocity": 100}, {"time": 45320, "pitch": 36, "duration": 275, "velocity": 100}, {"time": 45430, "pitch": 48, "duration": 165, "velocity": 100}, {"time": 46200, "pitch": 48, "duration": 385, "velocity": 100}, {"time": 46640, "pitch": 44, "duration": 220, "velocity": 100}, {"time": 46860, "pitch": 51, "duration": 220, "velocity": 100}, {"time": 47080, "pitch": 44, "duration": 330, "velocity": 100}, {"time": 47300, "pitch": 51, "duration": 165, "velocity": 100}, {"time": 47520, "pitch": 44, "duration": 330, "velocity": 100}, {"time": 47740, "pitch": 51, "duration": 165, "velocity": 100}, {"time": 47960, "pitch": 44, "duration": 330, "velocity": 100}, {"time": 48400, "pitch": 44, "duration": 220, "velocity": 100}, {"time": 48620, "pitch": 51, "duration": 220, "velocity": 100}, {"time": 48840, "pitch": 44, "duration": 385, "velocity": 100}, {"time": 49060, "pitch": 51, "duration": 165, "velocity": 100}, {"time": 49280, "pitch": 51, "duration": 220, "velocity": 100}, {"time": 49500, "pitch": 56, "duration": 220, "velocity": 100}, {"time": 49720, "pitch": 56, "duration": 385, "velocity": 100}, {"time": 49940, "pitch": 56, "duration": 165, "velocity": 100}, {"time": 50380, "pitch": 51, "duration": 220, "velocity": 100}, {"time": 50600, "pitch": 44, "duration": 330, "velocity": 100}, {"time": 51040, "pitch": 44, "duration": 330, "velocity": 100}, {"time": 51480, "pitch": 44, "duration": 275, "velocity": 100}, {"time": 51920, "pitch": 44, "duration": 55, "velocity": 100}, {"time": 52030, "pitch": 44, "duration": 55, "velocity": 100}, {"time": 52140, "pitch": 44, "duration": 110, "velocity": 100}, {"time": 52250, "pitch": 44, "duration": 55, "velocity": 100}, {"time": 52305, "pitch": 44, "duration": 55, "velocity": 100}, {"time": 52800, "pitch": 44, "duration": 55, "velocity": 100}, {"time": 52910, "pitch": 51, "duration": 55, "velocity": 100}, {"time": 53020, "pitch": 44, "duration": 55, "velocity": 100}, {"time": 53130, "pitch": 44, "duration": 55, "velocity": 100}, {"time": 53240, "pitch": 51, "duration": 55, "velocity": 100}, {"time": 53350, "pitch": 44, "duration": 55, "velocity": 100}, {"time": 53460, "pitch": 44, "duration": 55, "velocity": 100}, {"time": 53570, "pitch": 44, "duration": 55, "velocity": 100}, {"time": 53680, "pitch": 44, "duration": 220, "velocity": 100}, {"time": 54120, "pitch": 48, "duration": 385, "velocity": 100}, {"time": 54560, "pitch": 44, "duration": 55, "velocity": 100}, {"time": 54670, "pitch": 44, "duration": 55, "velocity": 100}, {"time": 54780, "pitch": 44, "duration": 55, "velocity": 100}, {"time": 54890, "pitch": 44, "duration": 55, "velocity": 100}, {"time": 55000, "pitch": 44, "duration": 55, "velocity": 100}, {"time": 55220, "pitch": 44, "duration": 55, "velocity": 100}, {"time": 55330, "pitch": 44, "duration": 55, "velocity": 100}, {"time": 55440, "pitch": 44, "duration": 220, "velocity": 100}, {"time": 55660, "pitch": 44, "duration": 165, "velocity": 100}, {"time": 55880, "pitch": 44, "duration": 330, "velocity": 100}, {"time": 56100, "pitch": 51, "duration": 165, "velocity": 100}, {"time": 56320, "pitch": 46, "duration": 330, "velocity": 100}, {"time": 56760, "pitch": 46, "duration": 385, "velocity": 100}, {"time": 57200, "pitch": 39, "duration": 220, "velocity": 100}, {"time": 57420, "pitch": 46, "duration": 220, "velocity": 100}, {"time": 57640, "pitch": 39, "duration": 330, "velocity": 100}, {"time": 57860, "pitch": 51, "duration": 110, "velocity": 100}]}]}