{"metadata": {"schema_version": "0.1", "title": "None", "source_filename": "20211210_082954.mid", "source_format": "midi"}, "resolution": 220, "tempos": [{"time": 0, "qpm": 120.0}], "time_signatures": [{"time": 0, "numerator": 4, "denominator": 4}], "tracks": [{"program": 73, "is_drum": false, "name": "Soprano", "notes": [{"time": 0, "pitch": 75, "duration": 55, "velocity": 100}, {"time": 55, "pitch": 75, "duration": 110, "velocity": 100}, {"time": 165, "pitch": 75, "duration": 55, "velocity": 100}, {"time": 220, "pitch": 75, "duration": 55, "velocity": 100}, {"time": 275, "pitch": 75, "duration": 110, "velocity": 100}, {"time": 385, "pitch": 75, "duration": 55, "velocity": 100}, {"time": 440, "pitch": 73, "duration": 165, "velocity": 100}, {"time": 605, "pitch": 75, "duration": 55, "velocity": 100}, {"time": 715, "pitch": 75, "duration": 55, "velocity": 100}, {"time": 1485, "pitch": 78, "duration": 110, "velocity": 100}, {"time": 3740, "pitch": 74, "duration": 110, "velocity": 100}, {"time": 3740, "pitch": 77, "duration": 55, "velocity": 100}, {"time": 3795, "pitch": 77, "duration": 165, "velocity": 100}, {"time": 3905, "pitch": 67, "duration": 55, "velocity": 100}, {"time": 3960, "pitch": 74, "duration": 110, "velocity": 100}, {"time": 4070, "pitch": 71, "duration": 55, "velocity": 100}, {"time": 4125, "pitch": 75, "duration": 55, "velocity": 100}, {"time": 4180, "pitch": 75, "duration": 55, "velocity": 100}, {"time": 4235, "pitch": 75, "duration": 55, "velocity": 100}, {"time": 4290, "pitch": 71, "duration": 110, "velocity": 100}, {"time": 4290, "pitch": 75, "duration": 110, "velocity": 100}, {"time": 4510, "pitch": 71, "duration": 55, "velocity": 100}, {"time": 4510, "pitch": 75, "duration": 55, "velocity": 100}, {"time": 4565, "pitch": 73, "duration": 110, "velocity": 100}, {"time": 4675, "pitch": 75, "duration": 55, "velocity": 100}, {"time": 4730, "pitch": 75, "duration": 110, "velocity": 100}, {"time": 4840, "pitch": 75, "duration": 55, "velocity": 100}, {"time": 4895, "pitch": 75, "duration": 55, "velocity": 100}, {"time": 4950, "pitch": 71, "duration": 110, "velocity": 100}, {"time": 5005, "pitch": 75, "duration": 110, "velocity": 100}, {"time": 5170, "pitch": 83, "duration": 110, "velocity": 100}, {"time": 5280, "pitch": 79, "duration": 220, "velocity": 100}, {"time": 5390, "pitch": 75, "duration": 110, "velocity": 100}, {"time": 5500, "pitch": 77, "duration": 110, "velocity": 100}, {"time": 5610, "pitch": 78, "duration": 110, "velocity": 100}, {"time": 5720, "pitch": 77, "duration": 55, "velocity": 100}, {"time": 5775, "pitch": 75, "duration": 165, "velocity": 100}, {"time": 5940, "pitch": 67, "duration": 110, "velocity": 100}, {"time": 6050, "pitch": 67, "duration": 55, "velocity": 100}, {"time": 6050, "pitch": 79, "duration": 110, "velocity": 100}, {"time": 6160, "pitch": 84, "duration": 165, "velocity": 100}, {"time": 6325, "pitch": 79, "duration": 110, "velocity": 100}, {"time": 6380, "pitch": 67, "duration": 110, "velocity": 100}, {"time": 6435, "pitch": 77, "duration": 110, "velocity": 100}, {"time": 6545, "pitch": 79, "duration": 165, "velocity": 100}, {"time": 6710, "pitch": 77, "duration": 110, "velocity": 100}, {"time": 7150, "pitch": 67, "duration": 55, "velocity": 100}, {"time": 7205, "pitch": 79, "duration": 110, "velocity": 100}, {"time": 7315, "pitch": 77, "duration": 110, "velocity": 100}, {"time": 7425, "pitch": 75, "duration": 165, "velocity": 100}, {"time": 7590, "pitch": 77, "duration": 55, "velocity": 100}, {"time": 7645, "pitch": 75, "duration": 1155, "velocity": 100}, {"time": 7920, "pitch": 67, "duration": 55, "velocity": 100}, {"time": 8140, "pitch": 62, "duration": 55, "velocity": 100}, {"time": 8305, "pitch": 67, "duration": 55, "velocity": 100}, {"time": 8470, "pitch": 67, "duration": 165, "velocity": 100}, {"time": 8690, "pitch": 67, "duration": 110, "velocity": 100}]}, {"program": 68, "is_drum": false, "name": "Alto", "notes": [{"time": 0, "pitch": 55, "duration": 165, "velocity": 100}, {"time": 660, "pitch": 75, "duration": 55, "velocity": 100}, {"time": 770, "pitch": 75, "duration": 110, "velocity": 100}, {"time": 935, "pitch": 75, "duration": 55, "velocity": 100}, {"time": 1045, "pitch": 72, "duration": 55, "velocity": 100}, {"time": 1155, "pitch": 75, "duration": 110, "velocity": 100}, {"time": 1320, "pitch": 75, "duration": 55, "velocity": 100}, {"time": 1430, "pitch": 77, "duration": 55, "velocity": 100}, {"time": 1595, "pitch": 77, "duration": 110, "velocity": 100}, {"time": 1705, "pitch": 75, "duration": 55, "velocity": 100}, {"time": 1925, "pitch": 79, "duration": 165, "velocity": 100}, {"time": 2090, "pitch": 84, "duration": 110, "velocity": 100}, {"time": 2200, "pitch": 79, "duration": 110, "velocity": 100}, {"time": 2310, "pitch": 77, "duration": 165, "velocity": 100}, {"time": 2475, "pitch": 79, "duration": 110, "velocity": 100}, {"time": 2585, "pitch": 77, "duration": 110, "velocity": 100}, {"time": 2695, "pitch": 75, "duration": 165, "velocity": 100}, {"time": 2970, "pitch": 70, "duration": 110, "velocity": 100}, {"time": 3080, "pitch": 72, "duration": 165, "velocity": 100}, {"time": 3245, "pitch": 75, "duration": 55, "velocity": 100}, {"time": 3355, "pitch": 75, "duration": 110, "velocity": 100}, {"time": 3465, "pitch": 77, "duration": 55, "velocity": 100}, {"time": 3520, "pitch": 71, "duration": 220, "velocity": 100}, {"time": 3575, "pitch": 79, "duration": 165, "velocity": 100}, {"time": 3630, "pitch": 67, "duration": 55, "velocity": 100}, {"time": 3740, "pitch": 62, "duration": 110, "velocity": 100}, {"time": 3740, "pitch": 67, "duration": 110, "velocity": 100}, {"time": 3850, "pitch": 71, "duration": 55, "velocity": 100}, {"time": 3905, "pitch": 62, "duration": 55, "velocity": 100}, {"time": 4070, "pitch": 67, "duration": 55, "velocity": 100}, {"time": 4180, "pitch": 74, "duration": 110, "velocity": 100}, {"time": 4290, "pitch": 67, "duration": 110, "velocity": 100}, {"time": 4400, "pitch": 75, "duration": 55, "velocity": 100}, {"time": 4510, "pitch": 67, "duration": 55, "velocity": 100}, {"time": 4565, "pitch": 74, "duration": 55, "velocity": 100}, {"time": 4620, "pitch": 71, "duration": 55, "velocity": 100}, {"time": 4730, "pitch": 67, "duration": 55, "velocity": 100}, {"time": 4785, "pitch": 67, "duration": 55, "velocity": 100}, {"time": 4950, "pitch": 67, "duration": 110, "velocity": 100}, {"time": 5060, "pitch": 74, "duration": 55, "velocity": 100}, {"time": 5170, "pitch": 79, "duration": 110, "velocity": 100}, {"time": 5280, "pitch": 75, "duration": 55, "velocity": 100}, {"time": 5390, "pitch": 67, "duration": 55, "velocity": 100}, {"time": 5500, "pitch": 67, "duration": 55, "velocity": 100}, {"time": 5665, "pitch": 62, "duration": 55, "velocity": 100}, {"time": 5830, "pitch": 64, "duration": 55, "velocity": 100}, {"time": 5940, "pitch": 62, "duration": 110, "velocity": 100}, {"time": 6050, "pitch": 62, "duration": 110, "velocity": 100}, {"time": 6270, "pitch": 67, "duration": 55, "velocity": 100}, {"time": 6380, "pitch": 62, "duration": 110, "velocity": 100}, {"time": 6545, "pitch": 67, "duration": 55, "velocity": 100}, {"time": 6710, "pitch": 64, "duration": 165, "velocity": 100}, {"time": 6820, "pitch": 75, "duration": 165, "velocity": 100}, {"time": 6875, "pitch": 67, "duration": 165, "velocity": 100}, {"time": 7150, "pitch": 62, "duration": 55, "velocity": 100}, {"time": 7260, "pitch": 67, "duration": 110, "velocity": 100}, {"time": 7425, "pitch": 67, "duration": 55, "velocity": 100}, {"time": 7590, "pitch": 67, "duration": 165, "velocity": 100}, {"time": 7810, "pitch": 67, "duration": 110, "velocity": 100}, {"time": 7920, "pitch": 62, "duration": 110, "velocity": 100}, {"time": 8140, "pitch": 59, "duration": 110, "velocity": 100}, {"time": 8140, "pitch": 67, "duration": 55, "velocity": 100}, {"time": 8250, "pitch": 67, "duration": 55, "velocity": 100}, {"time": 8305, "pitch": 62, "duration": 55, "velocity": 100}, {"time": 8470, "pitch": 62, "duration": 165, "velocity": 100}, {"time": 8690, "pitch": 62, "duration": 110, "velocity": 100}]}, {"program": 70, "is_drum": false, "name": "Tenor", "notes": [{"time": 0, "pitch": 51, "duration": 55, "velocity": 100}, {"time": 220, "pitch": 59, "duration": 440, "velocity": 100}, {"time": 660, "pitch": 55, "duration": 220, "velocity": 100}, {"time": 1100, "pitch": 59, "duration": 55, "velocity": 100}, {"time": 1760, "pitch": 55, "duration": 165, "velocity": 100}, {"time": 1980, "pitch": 59, "duration": 220, "velocity": 100}, {"time": 2420, "pitch": 59, "duration": 330, "velocity": 100}, {"time": 3300, "pitch": 55, "duration": 220, "velocity": 100}, {"time": 3630, "pitch": 59, "duration": 55, "velocity": 100}, {"time": 3630, "pitch": 62, "duration": 55, "velocity": 100}, {"time": 3740, "pitch": 55, "duration": 110, "velocity": 100}, {"time": 3905, "pitch": 59, "duration": 55, "velocity": 100}, {"time": 4070, "pitch": 62, "duration": 55, "velocity": 100}, {"time": 4290, "pitch": 62, "duration": 110, "velocity": 100}, {"time": 4510, "pitch": 62, "duration": 55, "velocity": 100}, {"time": 4620, "pitch": 55, "duration": 110, "velocity": 100}, {"time": 4620, "pitch": 62, "duration": 110, "velocity": 100}, {"time": 4785, "pitch": 59, "duration": 55, "velocity": 100}, {"time": 4950, "pitch": 59, "duration": 110, "velocity": 100}, {"time": 4950, "pitch": 62, "duration": 110, "velocity": 100}, {"time": 5115, "pitch": 72, "duration": 110, "velocity": 100}, {"time": 5170, "pitch": 62, "duration": 55, "velocity": 100}, {"time": 5390, "pitch": 59, "duration": 55, "velocity": 100}, {"time": 5390, "pitch": 62, "duration": 55, "velocity": 100}, {"time": 5500, "pitch": 62, "duration": 55, "velocity": 100}, {"time": 5665, "pitch": 55, "duration": 55, "velocity": 100}, {"time": 5665, "pitch": 59, "duration": 55, "velocity": 100}, {"time": 5830, "pitch": 62, "duration": 55, "velocity": 100}, {"time": 5940, "pitch": 59, "duration": 110, "velocity": 100}, {"time": 6050, "pitch": 57, "duration": 110, "velocity": 100}, {"time": 6270, "pitch": 62, "duration": 55, "velocity": 100}, {"time": 6380, "pitch": 59, "duration": 110, "velocity": 100}, {"time": 6545, "pitch": 62, "duration": 55, "velocity": 100}, {"time": 6710, "pitch": 59, "duration": 55, "velocity": 100}, {"time": 6710, "pitch": 62, "duration": 55, "velocity": 100}, {"time": 6820, "pitch": 59, "duration": 55, "velocity": 100}, {"time": 6875, "pitch": 59, "duration": 165, "velocity": 100}, {"time": 6875, "pitch": 62, "duration": 165, "velocity": 100}, {"time": 7150, "pitch": 59, "duration": 55, "velocity": 100}, {"time": 7260, "pitch": 62, "duration": 165, "velocity": 100}, {"time": 7425, "pitch": 59, "duration": 55, "velocity": 100}, {"time": 7425, "pitch": 62, "duration": 55, "velocity": 100}, {"time": 7590, "pitch": 62, "duration": 165, "velocity": 100}, {"time": 7810, "pitch": 59, "duration": 110, "velocity": 100}, {"time": 7810, "pitch": 62, "duration": 110, "velocity": 100}, {"time": 7920, "pitch": 55, "duration": 110, "velocity": 100}, {"time": 7920, "pitch": 59, "duration": 110, "velocity": 100}, {"time": 8030, "pitch": 62, "duration": 55, "velocity": 100}, {"time": 8140, "pitch": 55, "duration": 55, "velocity": 100}, {"time": 8250, "pitch": 62, "duration": 55, "velocity": 100}, {"time": 8305, "pitch": 55, "duration": 55, "velocity": 100}, {"time": 8470, "pitch": 59, "duration": 165, "velocity": 100}, {"time": 8690, "pitch": 59, "duration": 110, "velocity": 100}]}, {"program": 71, "is_drum": false, "name": "Bass", "notes": [{"time": 0, "pitch": 43, "duration": 385, "velocity": 100}, {"time": 220, "pitch": 51, "duration": 55, "velocity": 100}, {"time": 330, "pitch": 51, "duration": 165, "velocity": 100}, {"time": 440, "pitch": 43, "duration": 330, "velocity": 100}, {"time": 550, "pitch": 51, "duration": 55, "velocity": 100}, {"time": 660, "pitch": 51, "duration": 55, "velocity": 100}, {"time": 770, "pitch": 51, "duration": 165, "velocity": 100}, {"time": 880, "pitch": 43, "duration": 715, "velocity": 100}, {"time": 1100, "pitch": 51, "duration": 55, "velocity": 100}, {"time": 1210, "pitch": 51, "duration": 55, "velocity": 100}, {"time": 1320, "pitch": 55, "duration": 55, "velocity": 100}, {"time": 1430, "pitch": 51, "duration": 55, "velocity": 100}, {"time": 1540, "pitch": 51, "duration": 55, "velocity": 100}, {"time": 1540, "pitch": 55, "duration": 55, "velocity": 100}, {"time": 1650, "pitch": 51, "duration": 55, "velocity": 100}, {"time": 1760, "pitch": 43, "duration": 385, "velocity": 100}, {"time": 1760, "pitch": 51, "duration": 165, "velocity": 100}, {"time": 1980, "pitch": 55, "duration": 55, "velocity": 100}, {"time": 2090, "pitch": 51, "duration": 110, "velocity": 100}, {"time": 2200, "pitch": 43, "duration": 275, "velocity": 100}, {"time": 2310, "pitch": 51, "duration": 55, "velocity": 100}, {"time": 2420, "pitch": 55, "duration": 440, "velocity": 100}, {"time": 2530, "pitch": 51, "duration": 165, "velocity": 100}, {"time": 2640, "pitch": 39, "duration": 275, "velocity": 100}, {"time": 2860, "pitch": 55, "duration": 220, "velocity": 100}, {"time": 2970, "pitch": 51, "duration": 110, "velocity": 100}, {"time": 3080, "pitch": 35, "duration": 385, "velocity": 100}, {"time": 3190, "pitch": 43, "duration": 220, "velocity": 100}, {"time": 3300, "pitch": 47, "duration": 220, "velocity": 100}, {"time": 3300, "pitch": 51, "duration": 220, "velocity": 100}, {"time": 3410, "pitch": 47, "duration": 110, "velocity": 100}, {"time": 3520, "pitch": 38, "duration": 165, "velocity": 100}, {"time": 3740, "pitch": 43, "duration": 165, "velocity": 100}, {"time": 3740, "pitch": 50, "duration": 165, "velocity": 100}, {"time": 3905, "pitch": 55, "duration": 55, "velocity": 100}, {"time": 3960, "pitch": 43, "duration": 220, "velocity": 100}, {"time": 4070, "pitch": 55, "duration": 55, "velocity": 100}, {"time": 4180, "pitch": 43, "duration": 165, "velocity": 100}, {"time": 4180, "pitch": 50, "duration": 220, "velocity": 100}, {"time": 4290, "pitch": 59, "duration": 110, "velocity": 100}, {"time": 4400, "pitch": 31, "duration": 220, "velocity": 100}, {"time": 4510, "pitch": 59, "duration": 55, "velocity": 100}, {"time": 4620, "pitch": 43, "duration": 165, "velocity": 100}, {"time": 4785, "pitch": 55, "duration": 55, "velocity": 100}, {"time": 4840, "pitch": 31, "duration": 165, "velocity": 100}, {"time": 5060, "pitch": 43, "duration": 220, "velocity": 100}, {"time": 5115, "pitch": 43, "duration": 165, "velocity": 100}, {"time": 5170, "pitch": 55, "duration": 110, "velocity": 100}, {"time": 5225, "pitch": 43, "duration": 55, "velocity": 100}, {"time": 5225, "pitch": 55, "duration": 55, "velocity": 100}, {"time": 5500, "pitch": 43, "duration": 110, "velocity": 100}, {"time": 5500, "pitch": 55, "duration": 55, "velocity": 100}, {"time": 5665, "pitch": 43, "duration": 55, "velocity": 100}, {"time": 5830, "pitch": 59, "duration": 55, "velocity": 100}, {"time": 5940, "pitch": 55, "duration": 55, "velocity": 100}, {"time": 5995, "pitch": 50, "duration": 165, "velocity": 100}, {"time": 6160, "pitch": 43, "duration": 275, "velocity": 100}, {"time": 6270, "pitch": 59, "duration": 55, "velocity": 100}, {"time": 6380, "pitch": 50, "duration": 220, "velocity": 100}, {"time": 6380, "pitch": 55, "duration": 165, "velocity": 100}, {"time": 6545, "pitch": 59, "duration": 55, "velocity": 100}, {"time": 6600, "pitch": 43, "duration": 385, "velocity": 100}, {"time": 6820, "pitch": 55, "duration": 220, "velocity": 100}, {"time": 7040, "pitch": 43, "duration": 330, "velocity": 100}, {"time": 7260, "pitch": 59, "duration": 220, "velocity": 100}, {"time": 7425, "pitch": 55, "duration": 275, "velocity": 100}, {"time": 7590, "pitch": 59, "duration": 165, "velocity": 100}, {"time": 7700, "pitch": 55, "duration": 165, "velocity": 100}, {"time": 7920, "pitch": 43, "duration": 275, "velocity": 100}, {"time": 8140, "pitch": 50, "duration": 165, "velocity": 100}, {"time": 8250, "pitch": 55, "duration": 55, "velocity": 100}, {"time": 8305, "pitch": 43, "duration": 495, "velocity": 100}, {"time": 8470, "pitch": 55, "duration": 165, "velocity": 100}, {"time": 8525, "pitch": 50, "duration": 55, "velocity": 100}]}]}