{"metadata": {"schema_version": "0.1", "title": "None", "source_filename": "20211210_023522.mid", "source_format": "midi"}, "resolution": 220, "tempos": [{"time": 0, "qpm": 120.0}], "time_signatures": [{"time": 0, "numerator": 4, "denominator": 4}], "tracks": [{"program": 73, "is_drum": false, "name": "Soprano", "notes": [{"time": 1430, "pitch": 70, "duration": 220, "velocity": 100}, {"time": 1980, "pitch": 65, "duration": 660, "velocity": 100}, {"time": 1980, "pitch": 73, "duration": 220, "velocity": 100}, {"time": 2310, "pitch": 65, "duration": 110, "velocity": 100}, {"time": 2420, "pitch": 73, "duration": 220, "velocity": 100}, {"time": 2860, "pitch": 70, "duration": 110, "velocity": 100}, {"time": 2970, "pitch": 77, "duration": 440, "velocity": 100}, {"time": 3190, "pitch": 70, "duration": 110, "velocity": 100}, {"time": 3740, "pitch": 75, "duration": 220, "velocity": 100}, {"time": 3850, "pitch": 82, "duration": 330, "velocity": 100}, {"time": 4510, "pitch": 75, "duration": 275, "velocity": 100}, {"time": 4620, "pitch": 70, "duration": 275, "velocity": 100}, {"time": 4730, "pitch": 82, "duration": 330, "velocity": 100}, {"time": 4950, "pitch": 75, "duration": 330, "velocity": 100}, {"time": 5500, "pitch": 78, "duration": 220, "velocity": 100}, {"time": 5830, "pitch": 70, "duration": 110, "velocity": 100}, {"time": 5940, "pitch": 78, "duration": 220, "velocity": 100}, {"time": 6380, "pitch": 66, "duration": 275, "velocity": 100}, {"time": 6380, "pitch": 75, "duration": 110, "velocity": 100}, {"time": 6490, "pitch": 82, "duration": 330, "velocity": 100}, {"time": 6710, "pitch": 75, "duration": 275, "velocity": 100}, {"time": 7260, "pitch": 72, "duration": 110, "velocity": 100}, {"time": 7370, "pitch": 77, "duration": 220, "velocity": 100}, {"time": 8250, "pitch": 77, "duration": 330, "velocity": 100}, {"time": 8470, "pitch": 69, "duration": 220, "velocity": 100}, {"time": 9020, "pitch": 65, "duration": 220, "velocity": 100}, {"time": 9020, "pitch": 72, "duration": 220, "velocity": 100}, {"time": 9350, "pitch": 65, "duration": 110, "velocity": 100}, {"time": 9900, "pitch": 69, "duration": 110, "velocity": 100}, {"time": 10230, "pitch": 60, "duration": 110, "velocity": 100}, {"time": 10230, "pitch": 69, "duration": 330, "velocity": 100}]}, {"program": 68, "is_drum": false, "name": "Alto", "notes": [{"time": 220, "pitch": 70, "duration": 110, "velocity": 100}, {"time": 330, "pitch": 77, "duration": 385, "velocity": 100}, {"time": 770, "pitch": 61, "duration": 110, "velocity": 100}, {"time": 990, "pitch": 70, "duration": 385, "velocity": 100}, {"time": 1100, "pitch": 65, "duration": 275, "velocity": 100}, {"time": 1210, "pitch": 77, "duration": 330, "velocity": 100}, {"time": 1430, "pitch": 61, "duration": 110, "velocity": 100}, {"time": 1650, "pitch": 61, "duration": 55, "velocity": 100}, {"time": 1650, "pitch": 63, "duration": 110, "velocity": 100}, {"time": 1760, "pitch": 65, "duration": 220, "velocity": 100}, {"time": 1980, "pitch": 61, "duration": 220, "velocity": 100}, {"time": 2310, "pitch": 58, "duration": 110, "velocity": 100}, {"time": 2310, "pitch": 61, "duration": 110, "velocity": 100}, {"time": 2750, "pitch": 65, "duration": 165, "velocity": 100}, {"time": 2860, "pitch": 61, "duration": 275, "velocity": 100}, {"time": 3190, "pitch": 61, "duration": 110, "velocity": 100}, {"time": 3410, "pitch": 61, "duration": 110, "velocity": 100}, {"time": 3630, "pitch": 70, "duration": 110, "velocity": 100}, {"time": 3740, "pitch": 63, "duration": 55, "velocity": 100}, {"time": 3740, "pitch": 66, "duration": 275, "velocity": 100}, {"time": 4290, "pitch": 65, "duration": 110, "velocity": 100}, {"time": 4620, "pitch": 66, "duration": 275, "velocity": 100}, {"time": 4950, "pitch": 63, "duration": 55, "velocity": 100}, {"time": 4950, "pitch": 66, "duration": 55, "velocity": 100}, {"time": 5170, "pitch": 66, "duration": 55, "velocity": 100}, {"time": 5500, "pitch": 63, "duration": 110, "velocity": 100}, {"time": 5500, "pitch": 66, "duration": 165, "velocity": 100}, {"time": 5830, "pitch": 66, "duration": 110, "velocity": 100}, {"time": 6050, "pitch": 70, "duration": 110, "velocity": 100}, {"time": 6270, "pitch": 70, "duration": 220, "velocity": 100}, {"time": 6380, "pitch": 63, "duration": 55, "velocity": 100}, {"time": 6710, "pitch": 66, "duration": 110, "velocity": 100}, {"time": 6930, "pitch": 63, "duration": 110, "velocity": 100}, {"time": 7150, "pitch": 65, "duration": 110, "velocity": 100}, {"time": 7260, "pitch": 65, "duration": 275, "velocity": 100}, {"time": 7260, "pitch": 65, "duration": 660, "velocity": 100}, {"time": 7590, "pitch": 60, "duration": 55, "velocity": 100}, {"time": 7810, "pitch": 60, "duration": 110, "velocity": 100}, {"time": 8030, "pitch": 69, "duration": 165, "velocity": 100}, {"time": 8140, "pitch": 65, "duration": 330, "velocity": 100}, {"time": 8470, "pitch": 60, "duration": 110, "velocity": 100}, {"time": 8690, "pitch": 60, "duration": 55, "velocity": 100}, {"time": 8690, "pitch": 61, "duration": 110, "velocity": 100}, {"time": 9020, "pitch": 60, "duration": 220, "velocity": 100}, {"time": 9350, "pitch": 60, "duration": 110, "velocity": 100}, {"time": 9570, "pitch": 65, "duration": 220, "velocity": 100}, {"time": 9790, "pitch": 65, "duration": 165, "velocity": 100}, {"time": 9900, "pitch": 60, "duration": 275, "velocity": 100}, {"time": 9900, "pitch": 63, "duration": 660, "velocity": 100}, {"time": 10230, "pitch": 57, "duration": 110, "velocity": 100}, {"time": 10450, "pitch": 60, "duration": 110, "velocity": 100}]}, {"program": 70, "is_drum": false, "name": "Tenor", "notes": [{"time": 0, "pitch": 58, "duration": 440, "velocity": 100}, {"time": 110, "pitch": 65, "duration": 110, "velocity": 100}, {"time": 220, "pitch": 61, "duration": 275, "velocity": 100}, {"time": 440, "pitch": 60, "duration": 330, "velocity": 100}, {"time": 550, "pitch": 58, "duration": 55, "velocity": 100}, {"time": 550, "pitch": 61, "duration": 55, "velocity": 100}, {"time": 770, "pitch": 58, "duration": 165, "velocity": 100}, {"time": 770, "pitch": 61, "duration": 165, "velocity": 100}, {"time": 880, "pitch": 63, "duration": 220, "velocity": 100}, {"time": 1100, "pitch": 58, "duration": 55, "velocity": 100}, {"time": 1100, "pitch": 60, "duration": 220, "velocity": 100}, {"time": 1100, "pitch": 61, "duration": 220, "velocity": 100}, {"time": 1320, "pitch": 66, "duration": 330, "velocity": 100}, {"time": 1430, "pitch": 58, "duration": 55, "velocity": 100}, {"time": 1650, "pitch": 58, "duration": 55, "velocity": 100}, {"time": 1980, "pitch": 58, "duration": 220, "velocity": 100}, {"time": 2090, "pitch": 65, "duration": 165, "velocity": 100}, {"time": 2310, "pitch": 53, "duration": 110, "velocity": 100}, {"time": 2530, "pitch": 65, "duration": 110, "velocity": 100}, {"time": 2640, "pitch": 58, "duration": 440, "velocity": 100}, {"time": 2860, "pitch": 58, "duration": 275, "velocity": 100}, {"time": 3080, "pitch": 60, "duration": 330, "velocity": 100}, {"time": 3190, "pitch": 58, "duration": 110, "velocity": 100}, {"time": 3410, "pitch": 58, "duration": 110, "velocity": 100}, {"time": 3520, "pitch": 63, "duration": 220, "velocity": 100}, {"time": 3740, "pitch": 60, "duration": 220, "velocity": 100}, {"time": 3960, "pitch": 66, "duration": 330, "velocity": 100}, {"time": 4070, "pitch": 63, "duration": 55, "velocity": 100}, {"time": 4070, "pitch": 66, "duration": 55, "velocity": 100}, {"time": 4290, "pitch": 63, "duration": 110, "velocity": 100}, {"time": 4290, "pitch": 66, "duration": 110, "velocity": 100}, {"time": 4400, "pitch": 63, "duration": 220, "velocity": 100}, {"time": 4620, "pitch": 63, "duration": 55, "velocity": 100}, {"time": 4620, "pitch": 63, "duration": 660, "velocity": 100}, {"time": 4950, "pitch": 58, "duration": 55, "velocity": 100}, {"time": 5170, "pitch": 63, "duration": 55, "velocity": 100}, {"time": 5280, "pitch": 58, "duration": 440, "velocity": 100}, {"time": 5500, "pitch": 58, "duration": 55, "velocity": 100}, {"time": 5610, "pitch": 70, "duration": 110, "velocity": 100}, {"time": 5720, "pitch": 60, "duration": 330, "velocity": 100}, {"time": 5830, "pitch": 63, "duration": 110, "velocity": 100}, {"time": 6050, "pitch": 61, "duration": 110, "velocity": 100}, {"time": 6160, "pitch": 63, "duration": 220, "velocity": 100}, {"time": 6380, "pitch": 58, "duration": 55, "velocity": 100}, {"time": 6380, "pitch": 60, "duration": 220, "velocity": 100}, {"time": 6600, "pitch": 66, "duration": 330, "velocity": 100}, {"time": 6710, "pitch": 63, "duration": 110, "velocity": 100}, {"time": 6930, "pitch": 58, "duration": 110, "velocity": 100}, {"time": 6930, "pitch": 63, "duration": 110, "velocity": 100}, {"time": 7040, "pitch": 65, "duration": 220, "velocity": 100}, {"time": 7260, "pitch": 57, "duration": 275, "velocity": 100}, {"time": 7590, "pitch": 57, "duration": 55, "velocity": 100}, {"time": 7810, "pitch": 57, "duration": 220, "velocity": 100}, {"time": 7920, "pitch": 58, "duration": 440, "velocity": 100}, {"time": 8140, "pitch": 57, "duration": 275, "velocity": 100}, {"time": 8140, "pitch": 60, "duration": 55, "velocity": 100}, {"time": 8360, "pitch": 60, "duration": 330, "velocity": 100}, {"time": 8470, "pitch": 57, "duration": 55, "velocity": 100}, {"time": 8690, "pitch": 57, "duration": 55, "velocity": 100}, {"time": 8800, "pitch": 63, "duration": 220, "velocity": 100}, {"time": 9020, "pitch": 60, "duration": 220, "velocity": 100}, {"time": 9130, "pitch": 65, "duration": 165, "velocity": 100}, {"time": 9240, "pitch": 66, "duration": 330, "velocity": 100}, {"time": 9350, "pitch": 57, "duration": 110, "velocity": 100}, {"time": 9460, "pitch": 72, "duration": 220, "velocity": 100}, {"time": 9570, "pitch": 65, "duration": 110, "velocity": 100}, {"time": 9680, "pitch": 63, "duration": 220, "velocity": 100}, {"time": 9900, "pitch": 53, "duration": 55, "velocity": 100}, {"time": 9900, "pitch": 57, "duration": 275, "velocity": 100}, {"time": 10010, "pitch": 77, "duration": 440, "velocity": 100}, {"time": 10230, "pitch": 53, "duration": 55, "velocity": 100}, {"time": 10450, "pitch": 53, "duration": 110, "velocity": 100}]}, {"program": 71, "is_drum": false, "name": "Bass", "notes": [{"time": 0, "pitch": 46, "duration": 440, "velocity": 100}, {"time": 220, "pitch": 58, "duration": 55, "velocity": 100}, {"time": 330, "pitch": 53, "duration": 165, "velocity": 100}, {"time": 440, "pitch": 41, "duration": 385, "velocity": 100}, {"time": 770, "pitch": 53, "duration": 165, "velocity": 100}, {"time": 880, "pitch": 46, "duration": 440, "velocity": 100}, {"time": 1210, "pitch": 53, "duration": 165, "velocity": 100}, {"time": 1320, "pitch": 41, "duration": 165, "velocity": 100}, {"time": 1430, "pitch": 53, "duration": 55, "velocity": 100}, {"time": 1650, "pitch": 53, "duration": 55, "velocity": 100}, {"time": 1760, "pitch": 41, "duration": 275, "velocity": 100}, {"time": 1980, "pitch": 53, "duration": 55, "velocity": 100}, {"time": 2090, "pitch": 53, "duration": 110, "velocity": 100}, {"time": 2200, "pitch": 41, "duration": 165, "velocity": 100}, {"time": 2420, "pitch": 46, "duration": 165, "velocity": 100}, {"time": 2530, "pitch": 53, "duration": 110, "velocity": 100}, {"time": 2640, "pitch": 46, "duration": 440, "velocity": 100}, {"time": 2860, "pitch": 53, "duration": 55, "velocity": 100}, {"time": 2970, "pitch": 53, "duration": 165, "velocity": 100}, {"time": 3080, "pitch": 41, "duration": 220, "velocity": 100}, {"time": 3190, "pitch": 53, "duration": 55, "velocity": 100}, {"time": 3410, "pitch": 46, "duration": 110, "velocity": 100}, {"time": 3410, "pitch": 53, "duration": 110, "velocity": 100}, {"time": 3520, "pitch": 51, "duration": 440, "velocity": 100}, {"time": 3850, "pitch": 58, "duration": 165, "velocity": 100}, {"time": 3960, "pitch": 46, "duration": 385, "velocity": 100}, {"time": 4290, "pitch": 58, "duration": 110, "velocity": 100}, {"time": 4400, "pitch": 51, "duration": 385, "velocity": 100}, {"time": 4730, "pitch": 58, "duration": 165, "velocity": 100}, {"time": 4840, "pitch": 46, "duration": 165, "velocity": 100}, {"time": 5170, "pitch": 58, "duration": 55, "velocity": 100}, {"time": 5280, "pitch": 46, "duration": 275, "velocity": 100}, {"time": 5610, "pitch": 58, "duration": 55, "velocity": 100}, {"time": 5720, "pitch": 46, "duration": 165, "velocity": 100}, {"time": 5830, "pitch": 58, "duration": 110, "velocity": 100}, {"time": 5940, "pitch": 51, "duration": 165, "velocity": 100}, {"time": 6050, "pitch": 58, "duration": 110, "velocity": 100}, {"time": 6160, "pitch": 51, "duration": 440, "velocity": 100}, {"time": 6490, "pitch": 58, "duration": 165, "velocity": 100}, {"time": 6600, "pitch": 46, "duration": 165, "velocity": 100}, {"time": 6710, "pitch": 58, "duration": 55, "velocity": 100}, {"time": 6930, "pitch": 51, "duration": 110, "velocity": 100}, {"time": 7040, "pitch": 41, "duration": 440, "velocity": 100}, {"time": 7370, "pitch": 53, "duration": 165, "velocity": 100}, {"time": 7480, "pitch": 41, "duration": 385, "velocity": 100}, {"time": 7810, "pitch": 53, "duration": 165, "velocity": 100}, {"time": 7920, "pitch": 41, "duration": 440, "velocity": 100}, {"time": 8250, "pitch": 53, "duration": 165, "velocity": 100}, {"time": 8360, "pitch": 41, "duration": 165, "velocity": 100}, {"time": 8470, "pitch": 53, "duration": 55, "velocity": 100}, {"time": 8690, "pitch": 53, "duration": 55, "velocity": 100}, {"time": 8800, "pitch": 41, "duration": 275, "velocity": 100}, {"time": 9020, "pitch": 53, "duration": 55, "velocity": 100}, {"time": 9130, "pitch": 53, "duration": 110, "velocity": 100}, {"time": 9240, "pitch": 41, "duration": 165, "velocity": 100}, {"time": 9350, "pitch": 53, "duration": 110, "velocity": 100}, {"time": 9460, "pitch": 48, "duration": 165, "velocity": 100}, {"time": 9570, "pitch": 53, "duration": 110, "velocity": 100}, {"time": 9680, "pitch": 41, "duration": 440, "velocity": 100}, {"time": 10010, "pitch": 53, "duration": 165, "velocity": 100}, {"time": 10120, "pitch": 41, "duration": 220, "velocity": 100}, {"time": 10450, "pitch": 48, "duration": 110, "velocity": 100}]}]}