{"metadata": {"schema_version": "0.1", "title": "None", "source_filename": "20211209_140709.mid", "source_format": "midi"}, "resolution": 220, "tempos": [{"time": 0, "qpm": 120.0}], "time_signatures": [{"time": 0, "numerator": 4, "denominator": 4}], "tracks": [{"program": 73, "is_drum": false, "name": "Soprano", "notes": [{"time": 0, "pitch": 80, "duration": 495, "velocity": 100}, {"time": 165, "pitch": 83, "duration": 55, "velocity": 100}, {"time": 220, "pitch": 80, "duration": 55, "velocity": 100}, {"time": 275, "pitch": 85, "duration": 55, "velocity": 100}, {"time": 2530, "pitch": 73, "duration": 165, "velocity": 100}, {"time": 3080, "pitch": 64, "duration": 110, "velocity": 100}, {"time": 3080, "pitch": 72, "duration": 110, "velocity": 100}, {"time": 3795, "pitch": 72, "duration": 165, "velocity": 100}, {"time": 4015, "pitch": 72, "duration": 165, "velocity": 100}, {"time": 4070, "pitch": 80, "duration": 55, "velocity": 100}, {"time": 4125, "pitch": 85, "duration": 55, "velocity": 100}, {"time": 6655, "pitch": 68, "duration": 110, "velocity": 100}, {"time": 6820, "pitch": 72, "duration": 165, "velocity": 100}, {"time": 7040, "pitch": 68, "duration": 550, "velocity": 100}, {"time": 7260, "pitch": 68, "duration": 110, "velocity": 100}, {"time": 7370, "pitch": 72, "duration": 110, "velocity": 100}, {"time": 7480, "pitch": 76, "duration": 220, "velocity": 100}, {"time": 7700, "pitch": 68, "duration": 220, "velocity": 100}, {"time": 7700, "pitch": 72, "duration": 220, "velocity": 100}, {"time": 7920, "pitch": 68, "duration": 330, "velocity": 100}, {"time": 7920, "pitch": 72, "duration": 330, "velocity": 100}, {"time": 8250, "pitch": 73, "duration": 55, "velocity": 100}, {"time": 8360, "pitch": 72, "duration": 385, "velocity": 100}, {"time": 8360, "pitch": 76, "duration": 330, "velocity": 100}, {"time": 8800, "pitch": 68, "duration": 440, "velocity": 100}, {"time": 8800, "pitch": 72, "duration": 440, "velocity": 100}, {"time": 9020, "pitch": 76, "duration": 220, "velocity": 100}, {"time": 9240, "pitch": 67, "duration": 110, "velocity": 100}, {"time": 9240, "pitch": 76, "duration": 220, "velocity": 100}, {"time": 9460, "pitch": 72, "duration": 220, "velocity": 100}, {"time": 9515, "pitch": 75, "duration": 440, "velocity": 100}, {"time": 9680, "pitch": 72, "duration": 440, "velocity": 100}, {"time": 9900, "pitch": 73, "duration": 220, "velocity": 100}, {"time": 10120, "pitch": 72, "duration": 165, "velocity": 100}, {"time": 10120, "pitch": 72, "duration": 440, "velocity": 100}, {"time": 10120, "pitch": 76, "duration": 440, "velocity": 100}, {"time": 10395, "pitch": 77, "duration": 165, "velocity": 100}, {"time": 10780, "pitch": 65, "duration": 220, "velocity": 100}, {"time": 11000, "pitch": 70, "duration": 220, "velocity": 100}, {"time": 11220, "pitch": 65, "duration": 220, "velocity": 100}, {"time": 11220, "pitch": 68, "duration": 220, "velocity": 100}, {"time": 11330, "pitch": 78, "duration": 495, "velocity": 100}, {"time": 11440, "pitch": 65, "duration": 385, "velocity": 100}, {"time": 11440, "pitch": 68, "duration": 330, "velocity": 100}, {"time": 11880, "pitch": 72, "duration": 385, "velocity": 100}, {"time": 11990, "pitch": 79, "duration": 220, "velocity": 100}, {"time": 12320, "pitch": 65, "duration": 440, "velocity": 100}, {"time": 12320, "pitch": 68, "duration": 440, "velocity": 100}, {"time": 12540, "pitch": 72, "duration": 220, "velocity": 100}, {"time": 12760, "pitch": 68, "duration": 220, "velocity": 100}, {"time": 12760, "pitch": 77, "duration": 275, "velocity": 100}, {"time": 12980, "pitch": 68, "duration": 220, "velocity": 100}, {"time": 13200, "pitch": 65, "duration": 440, "velocity": 100}, {"time": 13420, "pitch": 70, "duration": 220, "velocity": 100}, {"time": 13530, "pitch": 63, "duration": 330, "velocity": 100}, {"time": 13640, "pitch": 72, "duration": 440, "velocity": 100}, {"time": 13695, "pitch": 80, "duration": 330, "velocity": 100}, {"time": 14080, "pitch": 68, "duration": 165, "velocity": 100}, {"time": 14080, "pitch": 80, "duration": 440, "velocity": 100}, {"time": 14300, "pitch": 72, "duration": 110, "velocity": 100}, {"time": 14520, "pitch": 80, "duration": 165, "velocity": 100}, {"time": 14520, "pitch": 80, "duration": 440, "velocity": 100}, {"time": 14960, "pitch": 80, "duration": 440, "velocity": 100}, {"time": 15290, "pitch": 73, "duration": 110, "velocity": 100}, {"time": 15455, "pitch": 80, "duration": 220, "velocity": 100}, {"time": 16280, "pitch": 68, "duration": 220, "velocity": 100}, {"time": 16280, "pitch": 72, "duration": 440, "velocity": 100}, {"time": 16280, "pitch": 84, "duration": 110, "velocity": 100}, {"time": 16720, "pitch": 68, "duration": 220, "velocity": 100}, {"time": 16720, "pitch": 85, "duration": 275, "velocity": 100}, {"time": 16940, "pitch": 76, "duration": 110, "velocity": 100}, {"time": 17050, "pitch": 76, "duration": 110, "velocity": 100}, {"time": 17160, "pitch": 77, "duration": 330, "velocity": 100}, {"time": 17160, "pitch": 80, "duration": 220, "velocity": 100}, {"time": 17380, "pitch": 80, "duration": 220, "velocity": 100}, {"time": 17655, "pitch": 72, "duration": 220, "velocity": 100}, {"time": 17710, "pitch": 84, "duration": 55, "velocity": 100}, {"time": 17765, "pitch": 89, "duration": 55, "velocity": 100}, {"time": 17820, "pitch": 84, "duration": 165, "velocity": 100}, {"time": 17875, "pitch": 89, "duration": 55, "velocity": 100}, {"time": 18040, "pitch": 88, "duration": 440, "velocity": 100}, {"time": 18975, "pitch": 68, "duration": 220, "velocity": 100}, {"time": 21615, "pitch": 72, "duration": 165, "velocity": 100}, {"time": 21670, "pitch": 84, "duration": 55, "velocity": 100}, {"time": 21725, "pitch": 84, "duration": 55, "velocity": 100}, {"time": 21835, "pitch": 88, "duration": 55, "velocity": 100}, {"time": 22000, "pitch": 88, "duration": 220, "velocity": 100}, {"time": 24640, "pitch": 76, "duration": 220, "velocity": 100}, {"time": 24970, "pitch": 72, "duration": 110, "velocity": 100}, {"time": 25135, "pitch": 72, "duration": 165, "velocity": 100}, {"time": 26840, "pitch": 72, "duration": 110, "velocity": 100}, {"time": 28215, "pitch": 75, "duration": 495, "velocity": 100}, {"time": 31240, "pitch": 67, "duration": 55, "velocity": 100}, {"time": 33495, "pitch": 73, "duration": 550, "velocity": 100}, {"time": 38720, "pitch": 73, "duration": 275, "velocity": 100}, {"time": 39215, "pitch": 68, "duration": 55, "velocity": 100}, {"time": 39600, "pitch": 72, "duration": 165, "velocity": 100}, {"time": 39875, "pitch": 73, "duration": 165, "velocity": 100}, {"time": 40920, "pitch": 76, "duration": 55, "velocity": 100}, {"time": 42240, "pitch": 77, "duration": 220, "velocity": 100}, {"time": 43175, "pitch": 77, "duration": 550, "velocity": 100}, {"time": 47960, "pitch": 61, "duration": 165, "velocity": 100}, {"time": 48400, "pitch": 78, "duration": 165, "velocity": 100}, {"time": 49335, "pitch": 76, "duration": 165, "velocity": 100}, {"time": 51480, "pitch": 76, "duration": 110, "velocity": 100}, {"time": 52195, "pitch": 78, "duration": 165, "velocity": 100}, {"time": 54780, "pitch": 68, "duration": 165, "velocity": 100}, {"time": 55000, "pitch": 74, "duration": 165, "velocity": 100}, {"time": 55880, "pitch": 67, "duration": 55, "velocity": 100}, {"time": 56320, "pitch": 75, "duration": 330, "velocity": 100}, {"time": 57200, "pitch": 77, "duration": 220, "velocity": 100}, {"time": 57805, "pitch": 79, "duration": 165, "velocity": 100}, {"time": 58520, "pitch": 74, "duration": 110, "velocity": 100}, {"time": 61600, "pitch": 78, "duration": 165, "velocity": 100}, {"time": 62975, "pitch": 70, "duration": 165, "velocity": 100}, {"time": 63415, "pitch": 71, "duration": 220, "velocity": 100}, {"time": 65120, "pitch": 76, "duration": 165, "velocity": 100}, {"time": 66055, "pitch": 81, "duration": 165, "velocity": 100}, {"time": 66275, "pitch": 80, "duration": 165, "velocity": 100}, {"time": 66495, "pitch": 81, "duration": 165, "velocity": 100}, {"time": 67430, "pitch": 80, "duration": 55, "velocity": 100}, {"time": 69575, "pitch": 73, "duration": 495, "velocity": 100}, {"time": 70400, "pitch": 75, "duration": 220, "velocity": 100}, {"time": 73040, "pitch": 73, "duration": 110, "velocity": 100}, {"time": 73920, "pitch": 76, "duration": 220, "velocity": 100}, {"time": 74800, "pitch": 76, "duration": 220, "velocity": 100}, {"time": 75680, "pitch": 80, "duration": 110, "velocity": 100}, {"time": 76560, "pitch": 80, "duration": 110, "velocity": 100}, {"time": 77440, "pitch": 76, "duration": 165, "velocity": 100}, {"time": 78320, "pitch": 76, "duration": 110, "velocity": 100}, {"time": 80080, "pitch": 73, "duration": 110, "velocity": 100}, {"time": 84480, "pitch": 80, "duration": 495, "velocity": 100}]}, {"program": 68, "is_drum": false, "name": "Alto", "notes": [{"time": 0, "pitch": 64, "duration": 110, "velocity": 100}, {"time": 110, "pitch": 80, "duration": 55, "velocity": 100}, {"time": 440, "pitch": 84, "duration": 440, "velocity": 100}, {"time": 495, "pitch": 72, "duration": 110, "velocity": 100}, {"time": 660, "pitch": 68, "duration": 165, "velocity": 100}, {"time": 935, "pitch": 72, "duration": 495, "velocity": 100}, {"time": 1430, "pitch": 72, "duration": 110, "velocity": 100}, {"time": 1595, "pitch": 68, "duration": 165, "velocity": 100}, {"time": 1870, "pitch": 70, "duration": 495, "velocity": 100}, {"time": 2365, "pitch": 70, "duration": 110, "velocity": 100}, {"time": 2420, "pitch": 63, "duration": 55, "velocity": 100}, {"time": 2640, "pitch": 60, "duration": 110, "velocity": 100}, {"time": 2750, "pitch": 72, "duration": 330, "velocity": 100}, {"time": 2970, "pitch": 60, "duration": 55, "velocity": 100}, {"time": 3080, "pitch": 60, "duration": 110, "velocity": 100}, {"time": 3355, "pitch": 68, "duration": 165, "velocity": 100}, {"time": 3520, "pitch": 64, "duration": 110, "velocity": 100}, {"time": 3740, "pitch": 60, "duration": 110, "velocity": 100}, {"time": 3960, "pitch": 56, "duration": 220, "velocity": 100}, {"time": 4180, "pitch": 80, "duration": 55, "velocity": 100}, {"time": 4235, "pitch": 68, "duration": 495, "velocity": 100}, {"time": 4235, "pitch": 80, "duration": 55, "velocity": 100}, {"time": 4400, "pitch": 84, "duration": 440, "velocity": 100}, {"time": 4620, "pitch": 68, "duration": 110, "velocity": 100}, {"time": 4730, "pitch": 72, "duration": 165, "velocity": 100}, {"time": 5170, "pitch": 65, "duration": 110, "velocity": 100}, {"time": 5280, "pitch": 64, "duration": 220, "velocity": 100}, {"time": 5500, "pitch": 64, "duration": 110, "velocity": 100}, {"time": 5720, "pitch": 70, "duration": 110, "velocity": 100}, {"time": 5885, "pitch": 73, "duration": 165, "velocity": 100}, {"time": 6105, "pitch": 72, "duration": 550, "velocity": 100}, {"time": 6160, "pitch": 60, "duration": 220, "velocity": 100}, {"time": 6435, "pitch": 64, "duration": 55, "velocity": 100}, {"time": 6490, "pitch": 68, "duration": 55, "velocity": 100}, {"time": 6545, "pitch": 68, "duration": 55, "velocity": 100}, {"time": 6600, "pitch": 64, "duration": 330, "velocity": 100}, {"time": 6820, "pitch": 64, "duration": 220, "velocity": 100}, {"time": 7040, "pitch": 64, "duration": 220, "velocity": 100}, {"time": 7260, "pitch": 64, "duration": 110, "velocity": 100}, {"time": 7480, "pitch": 64, "duration": 165, "velocity": 100}, {"time": 7700, "pitch": 64, "duration": 165, "velocity": 100}, {"time": 7920, "pitch": 60, "duration": 165, "velocity": 100}, {"time": 7975, "pitch": 67, "duration": 550, "velocity": 100}, {"time": 8140, "pitch": 64, "duration": 110, "velocity": 100}, {"time": 8525, "pitch": 72, "duration": 110, "velocity": 100}, {"time": 8800, "pitch": 64, "duration": 220, "velocity": 100}, {"time": 9020, "pitch": 64, "duration": 220, "velocity": 100}, {"time": 9240, "pitch": 64, "duration": 165, "velocity": 100}, {"time": 9460, "pitch": 64, "duration": 110, "velocity": 100}, {"time": 9680, "pitch": 68, "duration": 440, "velocity": 100}, {"time": 9900, "pitch": 64, "duration": 220, "velocity": 100}, {"time": 9955, "pitch": 67, "duration": 110, "velocity": 100}, {"time": 10010, "pitch": 68, "duration": 110, "velocity": 100}, {"time": 10120, "pitch": 64, "duration": 440, "velocity": 100}, {"time": 10560, "pitch": 60, "duration": 330, "velocity": 100}, {"time": 10780, "pitch": 60, "duration": 220, "velocity": 100}, {"time": 10890, "pitch": 68, "duration": 110, "velocity": 100}, {"time": 11000, "pitch": 60, "duration": 165, "velocity": 100}, {"time": 11055, "pitch": 67, "duration": 220, "velocity": 100}, {"time": 11220, "pitch": 56, "duration": 165, "velocity": 100}, {"time": 11220, "pitch": 60, "duration": 220, "velocity": 100}, {"time": 11440, "pitch": 56, "duration": 165, "velocity": 100}, {"time": 11660, "pitch": 60, "duration": 110, "velocity": 100}, {"time": 11770, "pitch": 70, "duration": 55, "velocity": 100}, {"time": 11825, "pitch": 67, "duration": 110, "velocity": 100}, {"time": 11880, "pitch": 68, "duration": 385, "velocity": 100}, {"time": 12265, "pitch": 67, "duration": 55, "velocity": 100}, {"time": 12320, "pitch": 56, "duration": 220, "velocity": 100}, {"time": 12540, "pitch": 60, "duration": 220, "velocity": 100}, {"time": 12760, "pitch": 60, "duration": 165, "velocity": 100}, {"time": 12980, "pitch": 56, "duration": 110, "velocity": 100}, {"time": 12980, "pitch": 60, "duration": 110, "velocity": 100}, {"time": 13200, "pitch": 60, "duration": 220, "velocity": 100}, {"time": 13200, "pitch": 68, "duration": 220, "velocity": 100}, {"time": 13255, "pitch": 68, "duration": 275, "velocity": 100}, {"time": 13420, "pitch": 56, "duration": 220, "velocity": 100}, {"time": 13530, "pitch": 48, "duration": 165, "velocity": 100}, {"time": 13640, "pitch": 56, "duration": 110, "velocity": 100}, {"time": 13640, "pitch": 60, "duration": 110, "velocity": 100}, {"time": 13860, "pitch": 56, "duration": 110, "velocity": 100}, {"time": 14080, "pitch": 65, "duration": 110, "velocity": 100}, {"time": 14190, "pitch": 60, "duration": 165, "velocity": 100}, {"time": 14190, "pitch": 68, "duration": 165, "velocity": 100}, {"time": 14300, "pitch": 65, "duration": 55, "velocity": 100}, {"time": 14300, "pitch": 68, "duration": 110, "velocity": 100}, {"time": 14410, "pitch": 65, "duration": 55, "velocity": 100}, {"time": 14520, "pitch": 68, "duration": 165, "velocity": 100}, {"time": 14740, "pitch": 64, "duration": 110, "velocity": 100}, {"time": 14740, "pitch": 68, "duration": 165, "velocity": 100}, {"time": 14850, "pitch": 60, "duration": 55, "velocity": 100}, {"time": 14850, "pitch": 73, "duration": 440, "velocity": 100}, {"time": 14960, "pitch": 68, "duration": 165, "velocity": 100}, {"time": 15180, "pitch": 68, "duration": 110, "velocity": 100}, {"time": 15290, "pitch": 72, "duration": 55, "velocity": 100}, {"time": 15345, "pitch": 75, "duration": 55, "velocity": 100}, {"time": 15400, "pitch": 77, "duration": 110, "velocity": 100}, {"time": 15620, "pitch": 75, "duration": 110, "velocity": 100}, {"time": 15730, "pitch": 68, "duration": 110, "velocity": 100}, {"time": 15730, "pitch": 72, "duration": 110, "velocity": 100}, {"time": 15730, "pitch": 75, "duration": 110, "velocity": 100}, {"time": 15840, "pitch": 72, "duration": 440, "velocity": 100}, {"time": 16060, "pitch": 68, "duration": 220, "velocity": 100}, {"time": 16280, "pitch": 64, "duration": 165, "velocity": 100}, {"time": 16390, "pitch": 56, "duration": 275, "velocity": 100}, {"time": 16445, "pitch": 75, "duration": 165, "velocity": 100}, {"time": 16500, "pitch": 60, "duration": 55, "velocity": 100}, {"time": 16500, "pitch": 64, "duration": 110, "velocity": 100}, {"time": 16500, "pitch": 68, "duration": 220, "velocity": 100}, {"time": 16610, "pitch": 60, "duration": 110, "velocity": 100}, {"time": 16720, "pitch": 64, "duration": 165, "velocity": 100}, {"time": 16830, "pitch": 60, "duration": 165, "velocity": 100}, {"time": 16830, "pitch": 71, "duration": 110, "velocity": 100}, {"time": 16940, "pitch": 64, "duration": 55, "velocity": 100}, {"time": 16940, "pitch": 68, "duration": 110, "velocity": 100}, {"time": 16940, "pitch": 72, "duration": 110, "velocity": 100}, {"time": 17050, "pitch": 64, "duration": 55, "velocity": 100}, {"time": 17160, "pitch": 68, "duration": 165, "velocity": 100}, {"time": 17380, "pitch": 64, "duration": 110, "velocity": 100}, {"time": 17380, "pitch": 68, "duration": 165, "velocity": 100}, {"time": 17490, "pitch": 60, "duration": 55, "velocity": 100}, {"time": 17600, "pitch": 67, "duration": 110, "velocity": 100}, {"time": 17985, "pitch": 84, "duration": 220, "velocity": 100}, {"time": 18040, "pitch": 60, "duration": 220, "velocity": 100}, {"time": 18370, "pitch": 80, "duration": 440, "velocity": 100}, {"time": 18480, "pitch": 64, "duration": 220, "velocity": 100}, {"time": 18700, "pitch": 67, "duration": 110, "velocity": 100}, {"time": 18810, "pitch": 64, "duration": 110, "velocity": 100}, {"time": 18810, "pitch": 68, "duration": 110, "velocity": 100}, {"time": 18920, "pitch": 67, "duration": 220, "velocity": 100}, {"time": 19140, "pitch": 60, "duration": 55, "velocity": 100}, {"time": 19140, "pitch": 64, "duration": 110, "velocity": 100}, {"time": 19250, "pitch": 68, "duration": 110, "velocity": 100}, {"time": 19360, "pitch": 60, "duration": 165, "velocity": 100}, {"time": 19360, "pitch": 64, "duration": 220, "velocity": 100}, {"time": 19580, "pitch": 67, "duration": 110, "velocity": 100}, {"time": 19690, "pitch": 64, "duration": 55, "velocity": 100}, {"time": 19745, "pitch": 72, "duration": 110, "velocity": 100}, {"time": 19800, "pitch": 67, "duration": 220, "velocity": 100}, {"time": 19910, "pitch": 55, "duration": 165, "velocity": 100}, {"time": 19965, "pitch": 72, "duration": 165, "velocity": 100}, {"time": 20020, "pitch": 62, "duration": 55, "velocity": 100}, {"time": 20020, "pitch": 67, "duration": 55, "velocity": 100}, {"time": 20185, "pitch": 70, "duration": 495, "velocity": 100}, {"time": 20240, "pitch": 60, "duration": 110, "velocity": 100}, {"time": 20240, "pitch": 64, "duration": 110, "velocity": 100}, {"time": 20515, "pitch": 60, "duration": 55, "velocity": 100}, {"time": 20570, "pitch": 64, "duration": 55, "velocity": 100}, {"time": 20680, "pitch": 60, "duration": 165, "velocity": 100}, {"time": 20680, "pitch": 64, "duration": 110, "velocity": 100}, {"time": 20680, "pitch": 67, "duration": 110, "velocity": 100}, {"time": 20680, "pitch": 73, "duration": 110, "velocity": 100}, {"time": 20900, "pitch": 62, "duration": 110, "velocity": 100}, {"time": 20900, "pitch": 67, "duration": 110, "velocity": 100}, {"time": 20900, "pitch": 73, "duration": 165, "velocity": 100}, {"time": 21010, "pitch": 60, "duration": 55, "velocity": 100}, {"time": 21120, "pitch": 60, "duration": 165, "velocity": 100}, {"time": 21120, "pitch": 68, "duration": 495, "velocity": 100}, {"time": 21340, "pitch": 56, "duration": 55, "velocity": 100}, {"time": 21340, "pitch": 64, "duration": 110, "velocity": 100}, {"time": 21450, "pitch": 59, "duration": 55, "velocity": 100}, {"time": 21560, "pitch": 56, "duration": 220, "velocity": 100}, {"time": 21560, "pitch": 60, "duration": 440, "velocity": 100}, {"time": 21780, "pitch": 64, "duration": 110, "velocity": 100}, {"time": 21780, "pitch": 84, "duration": 55, "velocity": 100}, {"time": 21835, "pitch": 72, "duration": 165, "velocity": 100}, {"time": 22000, "pitch": 64, "duration": 220, "velocity": 100}, {"time": 22055, "pitch": 72, "duration": 550, "velocity": 100}, {"time": 22220, "pitch": 72, "duration": 110, "velocity": 100}, {"time": 22440, "pitch": 68, "duration": 440, "velocity": 100}, {"time": 22605, "pitch": 72, "duration": 110, "velocity": 100}, {"time": 22770, "pitch": 72, "duration": 110, "velocity": 100}, {"time": 22880, "pitch": 64, "duration": 220, "velocity": 100}, {"time": 22880, "pitch": 68, "duration": 220, "velocity": 100}, {"time": 22990, "pitch": 72, "duration": 550, "velocity": 100}, {"time": 23100, "pitch": 64, "duration": 110, "velocity": 100}, {"time": 23100, "pitch": 68, "duration": 110, "velocity": 100}, {"time": 23210, "pitch": 63, "duration": 55, "velocity": 100}, {"time": 23320, "pitch": 64, "duration": 275, "velocity": 100}, {"time": 23540, "pitch": 60, "duration": 55, "velocity": 100}, {"time": 23540, "pitch": 64, "duration": 220, "velocity": 100}, {"time": 23540, "pitch": 72, "duration": 110, "velocity": 100}, {"time": 23705, "pitch": 72, "duration": 165, "velocity": 100}, {"time": 23760, "pitch": 64, "duration": 220, "velocity": 100}, {"time": 23870, "pitch": 60, "duration": 110, "velocity": 100}, {"time": 23870, "pitch": 65, "duration": 385, "velocity": 100}, {"time": 23980, "pitch": 60, "duration": 55, "velocity": 100}, {"time": 23980, "pitch": 64, "duration": 55, "velocity": 100}, {"time": 24035, "pitch": 64, "duration": 55, "velocity": 100}, {"time": 24090, "pitch": 64, "duration": 55, "velocity": 100}, {"time": 24090, "pitch": 71, "duration": 55, "velocity": 100}, {"time": 24145, "pitch": 71, "duration": 55, "velocity": 100}, {"time": 24200, "pitch": 64, "duration": 165, "velocity": 100}, {"time": 24200, "pitch": 68, "duration": 440, "velocity": 100}, {"time": 24255, "pitch": 73, "duration": 55, "velocity": 100}, {"time": 24365, "pitch": 73, "duration": 110, "velocity": 100}, {"time": 24420, "pitch": 60, "duration": 110, "velocity": 100}, {"time": 24420, "pitch": 64, "duration": 110, "velocity": 100}, {"time": 24530, "pitch": 72, "duration": 110, "velocity": 100}, {"time": 24640, "pitch": 55, "duration": 165, "velocity": 100}, {"time": 24640, "pitch": 60, "duration": 165, "velocity": 100}, {"time": 24860, "pitch": 60, "duration": 110, "velocity": 100}, {"time": 25080, "pitch": 60, "duration": 110, "velocity": 100}, {"time": 25300, "pitch": 60, "duration": 110, "velocity": 100}, {"time": 25355, "pitch": 65, "duration": 550, "velocity": 100}, {"time": 25520, "pitch": 52, "duration": 110, "velocity": 100}, {"time": 25740, "pitch": 52, "duration": 110, "velocity": 100}, {"time": 25740, "pitch": 55, "duration": 110, "velocity": 100}, {"time": 25905, "pitch": 62, "duration": 110, "velocity": 100}, {"time": 25960, "pitch": 55, "duration": 110, "velocity": 100}, {"time": 25960, "pitch": 60, "duration": 55, "velocity": 100}, {"time": 26070, "pitch": 62, "duration": 165, "velocity": 100}, {"time": 26180, "pitch": 55, "duration": 110, "velocity": 100}, {"time": 26180, "pitch": 60, "duration": 110, "velocity": 100}, {"time": 26345, "pitch": 72, "duration": 55, "velocity": 100}, {"time": 26400, "pitch": 55, "duration": 165, "velocity": 100}, {"time": 26400, "pitch": 60, "duration": 165, "velocity": 100}, {"time": 26620, "pitch": 55, "duration": 110, "velocity": 100}, {"time": 26620, "pitch": 60, "duration": 110, "velocity": 100}, {"time": 26840, "pitch": 55, "duration": 110, "velocity": 100}, {"time": 26840, "pitch": 60, "duration": 110, "velocity": 100}, {"time": 27005, "pitch": 72, "duration": 165, "velocity": 100}, {"time": 27060, "pitch": 55, "duration": 110, "velocity": 100}, {"time": 27060, "pitch": 60, "duration": 110, "velocity": 100}, {"time": 27280, "pitch": 55, "duration": 55, "velocity": 100}, {"time": 27280, "pitch": 60, "duration": 165, "velocity": 100}, {"time": 27280, "pitch": 64, "duration": 110, "velocity": 100}, {"time": 27280, "pitch": 67, "duration": 495, "velocity": 100}, {"time": 27500, "pitch": 55, "duration": 110, "velocity": 100}, {"time": 27500, "pitch": 60, "duration": 110, "velocity": 100}, {"time": 27720, "pitch": 55, "duration": 55, "velocity": 100}, {"time": 27720, "pitch": 60, "duration": 110, "velocity": 100}, {"time": 27720, "pitch": 64, "duration": 110, "velocity": 100}, {"time": 27775, "pitch": 62, "duration": 110, "velocity": 100}, {"time": 27885, "pitch": 60, "duration": 55, "velocity": 100}, {"time": 27940, "pitch": 60, "duration": 55, "velocity": 100}, {"time": 27940, "pitch": 62, "duration": 220, "velocity": 100}, {"time": 27940, "pitch": 64, "duration": 55, "velocity": 100}, {"time": 28050, "pitch": 60, "duration": 55, "velocity": 100}, {"time": 28160, "pitch": 52, "duration": 110, "velocity": 100}, {"time": 28160, "pitch": 55, "duration": 110, "velocity": 100}, {"time": 28380, "pitch": 51, "duration": 55, "velocity": 100}, {"time": 28380, "pitch": 55, "duration": 110, "velocity": 100}, {"time": 28600, "pitch": 51, "duration": 110, "velocity": 100}, {"time": 28600, "pitch": 55, "duration": 110, "velocity": 100}, {"time": 28600, "pitch": 58, "duration": 110, "velocity": 100}, {"time": 28710, "pitch": 72, "duration": 110, "velocity": 100}, {"time": 28820, "pitch": 55, "duration": 110, "velocity": 100}, {"time": 28875, "pitch": 72, "duration": 220, "velocity": 100}, {"time": 29040, "pitch": 51, "duration": 110, "velocity": 100}, {"time": 29040, "pitch": 55, "duration": 110, "velocity": 100}, {"time": 29150, "pitch": 67, "duration": 495, "velocity": 100}, {"time": 29260, "pitch": 55, "duration": 110, "velocity": 100}, {"time": 29260, "pitch": 58, "duration": 165, "velocity": 100}, {"time": 29480, "pitch": 51, "duration": 165, "velocity": 100}, {"time": 29480, "pitch": 55, "duration": 165, "velocity": 100}, {"time": 29645, "pitch": 67, "duration": 110, "velocity": 100}, {"time": 29700, "pitch": 51, "duration": 110, "velocity": 100}, {"time": 29700, "pitch": 55, "duration": 110, "velocity": 100}, {"time": 29700, "pitch": 58, "duration": 110, "velocity": 100}, {"time": 29865, "pitch": 67, "duration": 55, "velocity": 100}, {"time": 29920, "pitch": 51, "duration": 110, "velocity": 100}, {"time": 29920, "pitch": 55, "duration": 110, "velocity": 100}, {"time": 30030, "pitch": 67, "duration": 330, "velocity": 100}, {"time": 30140, "pitch": 55, "duration": 55, "velocity": 100}, {"time": 30360, "pitch": 51, "duration": 110, "velocity": 100}, {"time": 30360, "pitch": 55, "duration": 110, "velocity": 100}, {"time": 30360, "pitch": 58, "duration": 165, "velocity": 100}, {"time": 30360, "pitch": 67, "duration": 110, "velocity": 100}, {"time": 30525, "pitch": 67, "duration": 110, "velocity": 100}, {"time": 30580, "pitch": 55, "duration": 55, "velocity": 100}, {"time": 30580, "pitch": 58, "duration": 55, "velocity": 100}, {"time": 30635, "pitch": 67, "duration": 495, "velocity": 100}, {"time": 30800, "pitch": 51, "duration": 55, "velocity": 100}, {"time": 30800, "pitch": 55, "duration": 110, "velocity": 100}, {"time": 30800, "pitch": 58, "duration": 165, "velocity": 100}, {"time": 31020, "pitch": 55, "duration": 110, "velocity": 100}, {"time": 31020, "pitch": 58, "duration": 110, "velocity": 100}, {"time": 31130, "pitch": 67, "duration": 55, "velocity": 100}, {"time": 31130, "pitch": 68, "duration": 220, "velocity": 100}, {"time": 31185, "pitch": 67, "duration": 55, "velocity": 100}, {"time": 31240, "pitch": 55, "duration": 165, "velocity": 100}, {"time": 31295, "pitch": 70, "duration": 55, "velocity": 100}, {"time": 31350, "pitch": 67, "duration": 110, "velocity": 100}, {"time": 31460, "pitch": 55, "duration": 55, "velocity": 100}, {"time": 31460, "pitch": 58, "duration": 55, "velocity": 100}, {"time": 31570, "pitch": 68, "duration": 110, "velocity": 100}, {"time": 31570, "pitch": 70, "duration": 55, "velocity": 100}, {"time": 31625, "pitch": 67, "duration": 55, "velocity": 100}, {"time": 31680, "pitch": 56, "duration": 165, "velocity": 100}, {"time": 31680, "pitch": 60, "duration": 165, "velocity": 100}, {"time": 31900, "pitch": 56, "duration": 110, "velocity": 100}, {"time": 31900, "pitch": 60, "duration": 110, "velocity": 100}, {"time": 32065, "pitch": 68, "duration": 275, "velocity": 100}, {"time": 32120, "pitch": 60, "duration": 110, "velocity": 100}, {"time": 32340, "pitch": 56, "duration": 110, "velocity": 100}, {"time": 32340, "pitch": 60, "duration": 110, "velocity": 100}, {"time": 32505, "pitch": 68, "duration": 330, "velocity": 100}, {"time": 32560, "pitch": 56, "duration": 110, "velocity": 100}, {"time": 32780, "pitch": 56, "duration": 110, "velocity": 100}, {"time": 32780, "pitch": 60, "duration": 110, "velocity": 100}, {"time": 33000, "pitch": 56, "duration": 110, "velocity": 100}, {"time": 33000, "pitch": 60, "duration": 110, "velocity": 100}, {"time": 33000, "pitch": 73, "duration": 330, "velocity": 100}, {"time": 33220, "pitch": 60, "duration": 55, "velocity": 100}, {"time": 33220, "pitch": 64, "duration": 110, "velocity": 100}, {"time": 33440, "pitch": 56, "duration": 165, "velocity": 100}, {"time": 33440, "pitch": 60, "duration": 165, "velocity": 100}, {"time": 33660, "pitch": 60, "duration": 110, "velocity": 100}, {"time": 33880, "pitch": 56, "duration": 110, "velocity": 100}, {"time": 33880, "pitch": 60, "duration": 110, "velocity": 100}, {"time": 34045, "pitch": 73, "duration": 110, "velocity": 100}, {"time": 34100, "pitch": 56, "duration": 110, "velocity": 100}, {"time": 34100, "pitch": 60, "duration": 110, "velocity": 100}, {"time": 34265, "pitch": 73, "duration": 110, "velocity": 100}, {"time": 34320, "pitch": 56, "duration": 55, "velocity": 100}, {"time": 34320, "pitch": 60, "duration": 165, "velocity": 100}, {"time": 34320, "pitch": 64, "duration": 165, "velocity": 100}, {"time": 34430, "pitch": 75, "duration": 385, "velocity": 100}, {"time": 34540, "pitch": 60, "duration": 110, "velocity": 100}, {"time": 34540, "pitch": 64, "duration": 110, "velocity": 100}, {"time": 34760, "pitch": 56, "duration": 55, "velocity": 100}, {"time": 34760, "pitch": 60, "duration": 110, "velocity": 100}, {"time": 34760, "pitch": 64, "duration": 110, "velocity": 100}, {"time": 34815, "pitch": 75, "duration": 55, "velocity": 100}, {"time": 34925, "pitch": 60, "duration": 55, "velocity": 100}, {"time": 34925, "pitch": 75, "duration": 110, "velocity": 100}, {"time": 34980, "pitch": 68, "duration": 55, "velocity": 100}, {"time": 35090, "pitch": 60, "duration": 55, "velocity": 100}, {"time": 35090, "pitch": 64, "duration": 55, "velocity": 100}, {"time": 35090, "pitch": 73, "duration": 110, "velocity": 100}, {"time": 35200, "pitch": 56, "duration": 110, "velocity": 100}, {"time": 35200, "pitch": 61, "duration": 110, "velocity": 100}, {"time": 35420, "pitch": 56, "duration": 55, "velocity": 100}, {"time": 35420, "pitch": 61, "duration": 55, "velocity": 100}, {"time": 35530, "pitch": 71, "duration": 275, "velocity": 100}, {"time": 35640, "pitch": 52, "duration": 110, "velocity": 100}, {"time": 35640, "pitch": 56, "duration": 110, "velocity": 100}, {"time": 35640, "pitch": 61, "duration": 110, "velocity": 100}, {"time": 35860, "pitch": 61, "duration": 110, "velocity": 100}, {"time": 36025, "pitch": 72, "duration": 275, "velocity": 100}, {"time": 36080, "pitch": 56, "duration": 165, "velocity": 100}, {"time": 36300, "pitch": 52, "duration": 55, "velocity": 100}, {"time": 36300, "pitch": 56, "duration": 220, "velocity": 100}, {"time": 36300, "pitch": 61, "duration": 165, "velocity": 100}, {"time": 36520, "pitch": 56, "duration": 165, "velocity": 100}, {"time": 36520, "pitch": 72, "duration": 330, "velocity": 100}, {"time": 36740, "pitch": 56, "duration": 110, "velocity": 100}, {"time": 36740, "pitch": 61, "duration": 110, "velocity": 100}, {"time": 36960, "pitch": 56, "duration": 110, "velocity": 100}, {"time": 36960, "pitch": 61, "duration": 110, "velocity": 100}, {"time": 37015, "pitch": 72, "duration": 550, "velocity": 100}, {"time": 37180, "pitch": 61, "duration": 55, "velocity": 100}, {"time": 37400, "pitch": 56, "duration": 165, "velocity": 100}, {"time": 37400, "pitch": 61, "duration": 165, "velocity": 100}, {"time": 37565, "pitch": 72, "duration": 110, "velocity": 100}, {"time": 37620, "pitch": 56, "duration": 55, "velocity": 100}, {"time": 37620, "pitch": 61, "duration": 55, "velocity": 100}, {"time": 37730, "pitch": 72, "duration": 165, "velocity": 100}, {"time": 37840, "pitch": 52, "duration": 55, "velocity": 100}, {"time": 37840, "pitch": 56, "duration": 110, "velocity": 100}, {"time": 37840, "pitch": 61, "duration": 165, "velocity": 100}, {"time": 37950, "pitch": 72, "duration": 550, "velocity": 100}, {"time": 38060, "pitch": 56, "duration": 110, "velocity": 100}, {"time": 38060, "pitch": 61, "duration": 110, "velocity": 100}, {"time": 38170, "pitch": 68, "duration": 55, "velocity": 100}, {"time": 38225, "pitch": 56, "duration": 55, "velocity": 100}, {"time": 38225, "pitch": 61, "duration": 55, "velocity": 100}, {"time": 38225, "pitch": 68, "duration": 55, "velocity": 100}, {"time": 38280, "pitch": 56, "duration": 55, "velocity": 100}, {"time": 38280, "pitch": 68, "duration": 110, "velocity": 100}, {"time": 38335, "pitch": 73, "duration": 55, "velocity": 100}, {"time": 38390, "pitch": 71, "duration": 110, "velocity": 100}, {"time": 38500, "pitch": 61, "duration": 55, "velocity": 100}, {"time": 38500, "pitch": 72, "duration": 110, "velocity": 100}, {"time": 38610, "pitch": 73, "duration": 55, "velocity": 100}, {"time": 38665, "pitch": 71, "duration": 55, "velocity": 100}, {"time": 38665, "pitch": 72, "duration": 55, "velocity": 100}, {"time": 38720, "pitch": 56, "duration": 165, "velocity": 100}, {"time": 38830, "pitch": 68, "duration": 385, "velocity": 100}, {"time": 38940, "pitch": 56, "duration": 110, "velocity": 100}, {"time": 39160, "pitch": 52, "duration": 110, "velocity": 100}, {"time": 39160, "pitch": 56, "duration": 110, "velocity": 100}, {"time": 39325, "pitch": 68, "duration": 110, "velocity": 100}, {"time": 39380, "pitch": 56, "duration": 110, "velocity": 100}, {"time": 39490, "pitch": 77, "duration": 110, "velocity": 100}, {"time": 39600, "pitch": 52, "duration": 110, "velocity": 100}, {"time": 39820, "pitch": 56, "duration": 110, "velocity": 100}, {"time": 40040, "pitch": 52, "duration": 110, "velocity": 100}, {"time": 40040, "pitch": 56, "duration": 110, "velocity": 100}, {"time": 40205, "pitch": 69, "duration": 55, "velocity": 100}, {"time": 40260, "pitch": 52, "duration": 55, "velocity": 100}, {"time": 40260, "pitch": 56, "duration": 55, "velocity": 100}, {"time": 40260, "pitch": 60, "duration": 55, "velocity": 100}, {"time": 40260, "pitch": 68, "duration": 55, "velocity": 100}, {"time": 40315, "pitch": 66, "duration": 55, "velocity": 100}, {"time": 40370, "pitch": 68, "duration": 110, "velocity": 100}, {"time": 40370, "pitch": 68, "duration": 110, "velocity": 100}, {"time": 40480, "pitch": 56, "duration": 165, "velocity": 100}, {"time": 40480, "pitch": 60, "duration": 220, "velocity": 100}, {"time": 40480, "pitch": 64, "duration": 385, "velocity": 100}, {"time": 40700, "pitch": 56, "duration": 110, "velocity": 100}, {"time": 40865, "pitch": 68, "duration": 110, "velocity": 100}, {"time": 40865, "pitch": 73, "duration": 55, "velocity": 100}, {"time": 40920, "pitch": 56, "duration": 110, "velocity": 100}, {"time": 40975, "pitch": 73, "duration": 55, "velocity": 100}, {"time": 41030, "pitch": 72, "duration": 55, "velocity": 100}, {"time": 41085, "pitch": 68, "duration": 165, "velocity": 100}, {"time": 41085, "pitch": 72, "duration": 385, "velocity": 100}, {"time": 41305, "pitch": 77, "duration": 165, "velocity": 100}, {"time": 41360, "pitch": 56, "duration": 165, "velocity": 100}, {"time": 41360, "pitch": 60, "duration": 55, "velocity": 100}, {"time": 41580, "pitch": 56, "duration": 110, "velocity": 100}, {"time": 41580, "pitch": 60, "duration": 110, "velocity": 100}, {"time": 41580, "pitch": 64, "duration": 110, "velocity": 100}, {"time": 41745, "pitch": 73, "duration": 165, "velocity": 100}, {"time": 41800, "pitch": 56, "duration": 110, "velocity": 100}, {"time": 41800, "pitch": 60, "duration": 110, "velocity": 100}, {"time": 41800, "pitch": 64, "duration": 110, "velocity": 100}, {"time": 41800, "pitch": 68, "duration": 110, "velocity": 100}, {"time": 41855, "pitch": 68, "duration": 55, "velocity": 100}, {"time": 41910, "pitch": 68, "duration": 110, "velocity": 100}, {"time": 42020, "pitch": 60, "duration": 55, "velocity": 100}, {"time": 42020, "pitch": 64, "duration": 55, "velocity": 100}, {"time": 42020, "pitch": 68, "duration": 55, "velocity": 100}, {"time": 42130, "pitch": 56, "duration": 55, "velocity": 100}, {"time": 42130, "pitch": 60, "duration": 55, "velocity": 100}, {"time": 42130, "pitch": 68, "duration": 55, "velocity": 100}, {"time": 42240, "pitch": 56, "duration": 165, "velocity": 100}, {"time": 42240, "pitch": 60, "duration": 165, "velocity": 100}, {"time": 42240, "pitch": 77, "duration": 550, "velocity": 100}, {"time": 42460, "pitch": 60, "duration": 110, "velocity": 100}, {"time": 42680, "pitch": 56, "duration": 110, "velocity": 100}, {"time": 42680, "pitch": 60, "duration": 110, "velocity": 100}, {"time": 42790, "pitch": 77, "duration": 110, "velocity": 100}, {"time": 42900, "pitch": 56, "duration": 110, "velocity": 100}, {"time": 42900, "pitch": 60, "duration": 110, "velocity": 100}, {"time": 42955, "pitch": 77, "duration": 165, "velocity": 100}, {"time": 43120, "pitch": 56, "duration": 110, "velocity": 100}, {"time": 43340, "pitch": 60, "duration": 110, "velocity": 100}, {"time": 43560, "pitch": 56, "duration": 110, "velocity": 100}, {"time": 43560, "pitch": 60, "duration": 110, "velocity": 100}, {"time": 43725, "pitch": 77, "duration": 110, "velocity": 100}, {"time": 43780, "pitch": 56, "duration": 55, "velocity": 100}, {"time": 43780, "pitch": 60, "duration": 55, "velocity": 100}, {"time": 43780, "pitch": 65, "duration": 110, "velocity": 100}, {"time": 43890, "pitch": 77, "duration": 110, "velocity": 100}, {"time": 44000, "pitch": 56, "duration": 165, "velocity": 100}, {"time": 44000, "pitch": 60, "duration": 165, "velocity": 100}, {"time": 44110, "pitch": 73, "duration": 550, "velocity": 100}, {"time": 44220, "pitch": 56, "duration": 110, "velocity": 100}, {"time": 44220, "pitch": 60, "duration": 110, "velocity": 100}, {"time": 44440, "pitch": 56, "duration": 110, "velocity": 100}, {"time": 44440, "pitch": 60, "duration": 110, "velocity": 100}, {"time": 44660, "pitch": 56, "duration": 110, "velocity": 100}, {"time": 44660, "pitch": 60, "duration": 110, "velocity": 100}, {"time": 44660, "pitch": 73, "duration": 110, "velocity": 100}, {"time": 44825, "pitch": 73, "duration": 165, "velocity": 100}, {"time": 44880, "pitch": 56, "duration": 55, "velocity": 100}, {"time": 44880, "pitch": 60, "duration": 165, "velocity": 100}, {"time": 44880, "pitch": 65, "duration": 165, "velocity": 100}, {"time": 44990, "pitch": 82, "duration": 165, "velocity": 100}, {"time": 45100, "pitch": 60, "duration": 110, "velocity": 100}, {"time": 45100, "pitch": 65, "duration": 110, "velocity": 100}, {"time": 45320, "pitch": 56, "duration": 55, "velocity": 100}, {"time": 45320, "pitch": 60, "duration": 110, "velocity": 100}, {"time": 45320, "pitch": 65, "duration": 110, "velocity": 100}, {"time": 45320, "pitch": 78, "duration": 110, "velocity": 100}, {"time": 45485, "pitch": 60, "duration": 55, "velocity": 100}, {"time": 45540, "pitch": 60, "duration": 55, "velocity": 100}, {"time": 45540, "pitch": 68, "duration": 55, "velocity": 100}, {"time": 45650, "pitch": 65, "duration": 55, "velocity": 100}, {"time": 45650, "pitch": 73, "duration": 110, "velocity": 100}, {"time": 45760, "pitch": 56, "duration": 110, "velocity": 100}, {"time": 45760, "pitch": 61, "duration": 110, "velocity": 100}, {"time": 45980, "pitch": 56, "duration": 55, "velocity": 100}, {"time": 45980, "pitch": 61, "duration": 55, "velocity": 100}, {"time": 46090, "pitch": 73, "duration": 110, "velocity": 100}, {"time": 46200, "pitch": 52, "duration": 110, "velocity": 100}, {"time": 46200, "pitch": 56, "duration": 110, "velocity": 100}, {"time": 46200, "pitch": 61, "duration": 110, "velocity": 100}, {"time": 46310, "pitch": 73, "duration": 165, "velocity": 100}, {"time": 46420, "pitch": 61, "duration": 110, "velocity": 100}, {"time": 46530, "pitch": 82, "duration": 165, "velocity": 100}, {"time": 46640, "pitch": 56, "duration": 165, "velocity": 100}, {"time": 46860, "pitch": 52, "duration": 55, "velocity": 100}, {"time": 46860, "pitch": 56, "duration": 220, "velocity": 100}, {"time": 46860, "pitch": 61, "duration": 165, "velocity": 100}, {"time": 46970, "pitch": 78, "duration": 220, "velocity": 100}, {"time": 47080, "pitch": 56, "duration": 165, "velocity": 100}, {"time": 47300, "pitch": 52, "duration": 110, "velocity": 100}, {"time": 47300, "pitch": 56, "duration": 110, "velocity": 100}, {"time": 47300, "pitch": 61, "duration": 110, "velocity": 100}, {"time": 47465, "pitch": 82, "duration": 55, "velocity": 100}, {"time": 47520, "pitch": 56, "duration": 110, "velocity": 100}, {"time": 47520, "pitch": 61, "duration": 110, "velocity": 100}, {"time": 47685, "pitch": 70, "duration": 220, "velocity": 100}, {"time": 47740, "pitch": 56, "duration": 55, "velocity": 100}, {"time": 47740, "pitch": 61, "duration": 55, "velocity": 100}, {"time": 47960, "pitch": 56, "duration": 165, "velocity": 100}, {"time": 47960, "pitch": 73, "duration": 165, "velocity": 100}, {"time": 48180, "pitch": 61, "duration": 55, "velocity": 100}, {"time": 48180, "pitch": 70, "duration": 165, "velocity": 100}, {"time": 48400, "pitch": 56, "duration": 110, "velocity": 100}, {"time": 48400, "pitch": 61, "duration": 165, "velocity": 100}, {"time": 48620, "pitch": 56, "duration": 110, "velocity": 100}, {"time": 48620, "pitch": 61, "duration": 110, "velocity": 100}, {"time": 48620, "pitch": 66, "duration": 220, "velocity": 100}, {"time": 48730, "pitch": 68, "duration": 55, "velocity": 100}, {"time": 48785, "pitch": 56, "duration": 55, "velocity": 100}, {"time": 48785, "pitch": 61, "duration": 55, "velocity": 100}, {"time": 48785, "pitch": 68, "duration": 55, "velocity": 100}, {"time": 48840, "pitch": 56, "duration": 55, "velocity": 100}, {"time": 48840, "pitch": 68, "duration": 110, "velocity": 100}, {"time": 48895, "pitch": 73, "duration": 55, "velocity": 100}, {"time": 48895, "pitch": 74, "duration": 165, "velocity": 100}, {"time": 48950, "pitch": 71, "duration": 110, "velocity": 100}, {"time": 49060, "pitch": 61, "duration": 55, "velocity": 100}, {"time": 49115, "pitch": 66, "duration": 165, "velocity": 100}, {"time": 49170, "pitch": 73, "duration": 55, "velocity": 100}, {"time": 49225, "pitch": 71, "duration": 55, "velocity": 100}, {"time": 49280, "pitch": 56, "duration": 165, "velocity": 100}, {"time": 49280, "pitch": 59, "duration": 165, "velocity": 100}, {"time": 49500, "pitch": 60, "duration": 110, "velocity": 100}, {"time": 49555, "pitch": 67, "duration": 220, "velocity": 100}, {"time": 49720, "pitch": 60, "duration": 110, "velocity": 100}, {"time": 49830, "pitch": 73, "duration": 165, "velocity": 100}, {"time": 49940, "pitch": 55, "duration": 110, "velocity": 100}, {"time": 49940, "pitch": 60, "duration": 110, "velocity": 100}, {"time": 50050, "pitch": 67, "duration": 165, "velocity": 100}, {"time": 50160, "pitch": 52, "duration": 110, "velocity": 100}, {"time": 50270, "pitch": 71, "duration": 165, "velocity": 100}, {"time": 50380, "pitch": 52, "duration": 110, "velocity": 100}, {"time": 50380, "pitch": 55, "duration": 110, "velocity": 100}, {"time": 50490, "pitch": 66, "duration": 220, "velocity": 100}, {"time": 50600, "pitch": 55, "duration": 110, "velocity": 100}, {"time": 50600, "pitch": 60, "duration": 110, "velocity": 100}, {"time": 50765, "pitch": 74, "duration": 165, "velocity": 100}, {"time": 50820, "pitch": 55, "duration": 110, "velocity": 100}, {"time": 50820, "pitch": 60, "duration": 110, "velocity": 100}, {"time": 50985, "pitch": 66, "duration": 55, "velocity": 100}, {"time": 51040, "pitch": 55, "duration": 165, "velocity": 100}, {"time": 51040, "pitch": 60, "duration": 165, "velocity": 100}, {"time": 51150, "pitch": 79, "duration": 110, "velocity": 100}, {"time": 51260, "pitch": 55, "duration": 110, "velocity": 100}, {"time": 51260, "pitch": 60, "duration": 110, "velocity": 100}, {"time": 51315, "pitch": 70, "duration": 110, "velocity": 100}, {"time": 51480, "pitch": 55, "duration": 110, "velocity": 100}, {"time": 51480, "pitch": 60, "duration": 110, "velocity": 100}, {"time": 51645, "pitch": 70, "duration": 110, "velocity": 100}, {"time": 51700, "pitch": 60, "duration": 110, "velocity": 100}, {"time": 51810, "pitch": 78, "duration": 110, "velocity": 100}, {"time": 51920, "pitch": 55, "duration": 55, "velocity": 100}, {"time": 51920, "pitch": 60, "duration": 165, "velocity": 100}, {"time": 51920, "pitch": 64, "duration": 110, "velocity": 100}, {"time": 51920, "pitch": 70, "duration": 220, "velocity": 100}, {"time": 52140, "pitch": 55, "duration": 110, "velocity": 100}, {"time": 52140, "pitch": 60, "duration": 110, "velocity": 100}, {"time": 52360, "pitch": 60, "duration": 110, "velocity": 100}, {"time": 52360, "pitch": 64, "duration": 110, "velocity": 100}, {"time": 52415, "pitch": 71, "duration": 165, "velocity": 100}, {"time": 52525, "pitch": 60, "duration": 55, "velocity": 100}, {"time": 52580, "pitch": 60, "duration": 55, "velocity": 100}, {"time": 52580, "pitch": 64, "duration": 55, "velocity": 100}, {"time": 52635, "pitch": 83, "duration": 165, "velocity": 100}, {"time": 52800, "pitch": 51, "duration": 110, "velocity": 100}, {"time": 52800, "pitch": 55, "duration": 110, "velocity": 100}, {"time": 52910, "pitch": 71, "duration": 165, "velocity": 100}, {"time": 53020, "pitch": 51, "duration": 55, "velocity": 100}, {"time": 53020, "pitch": 55, "duration": 55, "velocity": 100}, {"time": 53130, "pitch": 79, "duration": 165, "velocity": 100}, {"time": 53240, "pitch": 51, "duration": 110, "velocity": 100}, {"time": 53240, "pitch": 55, "duration": 110, "velocity": 100}, {"time": 53240, "pitch": 58, "duration": 110, "velocity": 100}, {"time": 53350, "pitch": 71, "duration": 165, "velocity": 100}, {"time": 53460, "pitch": 55, "duration": 110, "velocity": 100}, {"time": 53570, "pitch": 79, "duration": 165, "velocity": 100}, {"time": 53680, "pitch": 51, "duration": 110, "velocity": 100}, {"time": 53680, "pitch": 55, "duration": 110, "velocity": 100}, {"time": 53845, "pitch": 67, "duration": 165, "velocity": 100}, {"time": 53900, "pitch": 51, "duration": 55, "velocity": 100}, {"time": 53900, "pitch": 55, "duration": 110, "velocity": 100}, {"time": 53900, "pitch": 58, "duration": 165, "velocity": 100}, {"time": 54065, "pitch": 75, "duration": 165, "velocity": 100}, {"time": 54120, "pitch": 55, "duration": 165, "velocity": 100}, {"time": 54285, "pitch": 67, "duration": 165, "velocity": 100}, {"time": 54340, "pitch": 55, "duration": 110, "velocity": 100}, {"time": 54340, "pitch": 58, "duration": 110, "velocity": 100}, {"time": 54505, "pitch": 77, "duration": 55, "velocity": 100}, {"time": 54560, "pitch": 51, "duration": 110, "velocity": 100}, {"time": 54560, "pitch": 55, "duration": 110, "velocity": 100}, {"time": 54780, "pitch": 51, "duration": 55, "velocity": 100}, {"time": 54780, "pitch": 55, "duration": 55, "velocity": 100}, {"time": 55000, "pitch": 51, "duration": 110, "velocity": 100}, {"time": 55000, "pitch": 55, "duration": 110, "velocity": 100}, {"time": 55000, "pitch": 58, "duration": 165, "velocity": 100}, {"time": 55220, "pitch": 55, "duration": 55, "velocity": 100}, {"time": 55220, "pitch": 58, "duration": 55, "velocity": 100}, {"time": 55220, "pitch": 68, "duration": 165, "velocity": 100}, {"time": 55440, "pitch": 51, "duration": 55, "velocity": 100}, {"time": 55440, "pitch": 55, "duration": 110, "velocity": 100}, {"time": 55440, "pitch": 58, "duration": 165, "velocity": 100}, {"time": 55440, "pitch": 72, "duration": 165, "velocity": 100}, {"time": 55660, "pitch": 55, "duration": 110, "velocity": 100}, {"time": 55660, "pitch": 58, "duration": 110, "velocity": 100}, {"time": 55715, "pitch": 67, "duration": 165, "velocity": 100}, {"time": 55770, "pitch": 67, "duration": 55, "velocity": 100}, {"time": 55825, "pitch": 55, "duration": 55, "velocity": 100}, {"time": 55825, "pitch": 67, "duration": 55, "velocity": 100}, {"time": 55880, "pitch": 55, "duration": 165, "velocity": 100}, {"time": 55935, "pitch": 70, "duration": 55, "velocity": 100}, {"time": 55935, "pitch": 75, "duration": 165, "velocity": 100}, {"time": 55990, "pitch": 67, "duration": 110, "velocity": 100}, {"time": 56100, "pitch": 58, "duration": 55, "velocity": 100}, {"time": 56155, "pitch": 67, "duration": 165, "velocity": 100}, {"time": 56210, "pitch": 70, "duration": 55, "velocity": 100}, {"time": 56265, "pitch": 67, "duration": 55, "velocity": 100}, {"time": 56320, "pitch": 56, "duration": 165, "velocity": 100}, {"time": 56320, "pitch": 58, "duration": 165, "velocity": 100}, {"time": 56375, "pitch": 80, "duration": 165, "velocity": 100}, {"time": 56540, "pitch": 60, "duration": 110, "velocity": 100}, {"time": 56650, "pitch": 71, "duration": 165, "velocity": 100}, {"time": 56760, "pitch": 60, "duration": 110, "velocity": 100}, {"time": 56870, "pitch": 77, "duration": 165, "velocity": 100}, {"time": 56980, "pitch": 56, "duration": 110, "velocity": 100}, {"time": 56980, "pitch": 60, "duration": 110, "velocity": 100}, {"time": 57090, "pitch": 71, "duration": 165, "velocity": 100}, {"time": 57200, "pitch": 53, "duration": 110, "velocity": 100}, {"time": 57200, "pitch": 56, "duration": 110, "velocity": 100}, {"time": 57310, "pitch": 79, "duration": 165, "velocity": 100}, {"time": 57420, "pitch": 60, "duration": 110, "velocity": 100}, {"time": 57585, "pitch": 71, "duration": 165, "velocity": 100}, {"time": 57640, "pitch": 56, "duration": 110, "velocity": 100}, {"time": 57640, "pitch": 60, "duration": 110, "velocity": 100}, {"time": 57805, "pitch": 75, "duration": 55, "velocity": 100}, {"time": 57860, "pitch": 65, "duration": 55, "velocity": 100}, {"time": 57860, "pitch": 72, "duration": 55, "velocity": 100}, {"time": 57915, "pitch": 70, "duration": 55, "velocity": 100}, {"time": 57970, "pitch": 72, "duration": 110, "velocity": 100}, {"time": 58025, "pitch": 72, "duration": 55, "velocity": 100}, {"time": 58080, "pitch": 60, "duration": 165, "velocity": 100}, {"time": 58080, "pitch": 65, "duration": 220, "velocity": 100}, {"time": 58080, "pitch": 68, "duration": 385, "velocity": 100}, {"time": 58190, "pitch": 70, "duration": 110, "velocity": 100}, {"time": 58300, "pitch": 60, "duration": 110, "velocity": 100}, {"time": 58355, "pitch": 75, "duration": 110, "velocity": 100}, {"time": 58465, "pitch": 77, "duration": 55, "velocity": 100}, {"time": 58520, "pitch": 60, "duration": 110, "velocity": 100}, {"time": 58520, "pitch": 80, "duration": 55, "velocity": 100}, {"time": 58575, "pitch": 77, "duration": 55, "velocity": 100}, {"time": 58630, "pitch": 75, "duration": 55, "velocity": 100}, {"time": 58685, "pitch": 75, "duration": 110, "velocity": 100}, {"time": 58685, "pitch": 77, "duration": 385, "velocity": 100}, {"time": 58850, "pitch": 75, "duration": 110, "velocity": 100}, {"time": 58960, "pitch": 56, "duration": 165, "velocity": 100}, {"time": 58960, "pitch": 60, "duration": 165, "velocity": 100}, {"time": 58960, "pitch": 65, "duration": 110, "velocity": 100}, {"time": 59015, "pitch": 80, "duration": 165, "velocity": 100}, {"time": 59180, "pitch": 65, "duration": 110, "velocity": 100}, {"time": 59180, "pitch": 68, "duration": 110, "velocity": 100}, {"time": 59235, "pitch": 79, "duration": 165, "velocity": 100}, {"time": 59400, "pitch": 60, "duration": 110, "velocity": 100}, {"time": 59400, "pitch": 65, "duration": 110, "velocity": 100}, {"time": 59400, "pitch": 68, "duration": 110, "velocity": 100}, {"time": 59400, "pitch": 72, "duration": 110, "velocity": 100}, {"time": 59455, "pitch": 72, "duration": 55, "velocity": 100}, {"time": 59455, "pitch": 80, "duration": 165, "velocity": 100}, {"time": 59510, "pitch": 72, "duration": 110, "velocity": 100}, {"time": 59620, "pitch": 65, "duration": 55, "velocity": 100}, {"time": 59620, "pitch": 68, "duration": 55, "velocity": 100}, {"time": 59620, "pitch": 72, "duration": 55, "velocity": 100}, {"time": 59675, "pitch": 87, "duration": 165, "velocity": 100}, {"time": 59730, "pitch": 60, "duration": 55, "velocity": 100}, {"time": 59730, "pitch": 65, "duration": 55, "velocity": 100}, {"time": 59730, "pitch": 72, "duration": 55, "velocity": 100}, {"time": 59840, "pitch": 72, "duration": 165, "velocity": 100}, {"time": 59950, "pitch": 75, "duration": 165, "velocity": 100}, {"time": 60060, "pitch": 55, "duration": 55, "velocity": 100}, {"time": 60060, "pitch": 70, "duration": 220, "velocity": 100}, {"time": 60170, "pitch": 79, "duration": 165, "velocity": 100}, {"time": 60280, "pitch": 55, "duration": 165, "velocity": 100}, {"time": 60390, "pitch": 75, "duration": 165, "velocity": 100}, {"time": 60500, "pitch": 58, "duration": 110, "velocity": 100}, {"time": 60610, "pitch": 63, "duration": 55, "velocity": 100}, {"time": 60610, "pitch": 75, "duration": 220, "velocity": 100}, {"time": 60720, "pitch": 58, "duration": 110, "velocity": 100}, {"time": 60885, "pitch": 80, "duration": 165, "velocity": 100}, {"time": 60940, "pitch": 55, "duration": 55, "velocity": 100}, {"time": 60940, "pitch": 58, "duration": 55, "velocity": 100}, {"time": 60940, "pitch": 63, "duration": 55, "velocity": 100}, {"time": 61105, "pitch": 79, "duration": 165, "velocity": 100}, {"time": 61160, "pitch": 63, "duration": 220, "velocity": 100}, {"time": 61325, "pitch": 80, "duration": 165, "velocity": 100}, {"time": 61380, "pitch": 63, "duration": 110, "velocity": 100}, {"time": 61600, "pitch": 55, "duration": 165, "velocity": 100}, {"time": 61600, "pitch": 58, "duration": 165, "velocity": 100}, {"time": 61820, "pitch": 63, "duration": 55, "velocity": 100}, {"time": 61820, "pitch": 66, "duration": 165, "velocity": 100}, {"time": 62040, "pitch": 58, "duration": 220, "velocity": 100}, {"time": 62040, "pitch": 63, "duration": 440, "velocity": 100}, {"time": 62040, "pitch": 70, "duration": 165, "velocity": 100}, {"time": 62260, "pitch": 66, "duration": 165, "velocity": 100}, {"time": 62480, "pitch": 55, "duration": 220, "velocity": 100}, {"time": 62480, "pitch": 58, "duration": 220, "velocity": 100}, {"time": 62480, "pitch": 66, "duration": 220, "velocity": 100}, {"time": 62700, "pitch": 63, "duration": 220, "velocity": 100}, {"time": 62755, "pitch": 71, "duration": 165, "velocity": 100}, {"time": 62920, "pitch": 55, "duration": 55, "velocity": 100}, {"time": 62920, "pitch": 58, "duration": 165, "velocity": 100}, {"time": 63140, "pitch": 63, "duration": 165, "velocity": 100}, {"time": 63195, "pitch": 71, "duration": 165, "velocity": 100}, {"time": 63360, "pitch": 58, "duration": 110, "velocity": 100}, {"time": 63470, "pitch": 77, "duration": 55, "velocity": 100}, {"time": 63525, "pitch": 77, "duration": 55, "velocity": 100}, {"time": 63580, "pitch": 55, "duration": 110, "velocity": 100}, {"time": 63580, "pitch": 76, "duration": 55, "velocity": 100}, {"time": 63635, "pitch": 81, "duration": 165, "velocity": 100}, {"time": 63690, "pitch": 76, "duration": 165, "velocity": 100}, {"time": 63800, "pitch": 52, "duration": 220, "velocity": 100}, {"time": 63800, "pitch": 79, "duration": 440, "velocity": 100}, {"time": 63910, "pitch": 75, "duration": 165, "velocity": 100}, {"time": 64020, "pitch": 55, "duration": 110, "velocity": 100}, {"time": 64130, "pitch": 76, "duration": 165, "velocity": 100}, {"time": 64240, "pitch": 55, "duration": 220, "velocity": 100}, {"time": 64350, "pitch": 76, "duration": 110, "velocity": 100}, {"time": 64460, "pitch": 60, "duration": 110, "velocity": 100}, {"time": 64515, "pitch": 81, "duration": 110, "velocity": 100}, {"time": 64625, "pitch": 80, "duration": 165, "velocity": 100}, {"time": 64680, "pitch": 60, "duration": 220, "velocity": 100}, {"time": 64790, "pitch": 81, "duration": 110, "velocity": 100}, {"time": 64955, "pitch": 88, "duration": 110, "velocity": 100}, {"time": 65120, "pitch": 55, "duration": 165, "velocity": 100}, {"time": 65340, "pitch": 60, "duration": 110, "velocity": 100}, {"time": 65340, "pitch": 80, "duration": 165, "velocity": 100}, {"time": 65560, "pitch": 60, "duration": 165, "velocity": 100}, {"time": 65560, "pitch": 76, "duration": 165, "velocity": 100}, {"time": 65780, "pitch": 55, "duration": 55, "velocity": 100}, {"time": 65835, "pitch": 76, "duration": 165, "velocity": 100}, {"time": 66000, "pitch": 55, "duration": 110, "velocity": 100}, {"time": 66275, "pitch": 52, "duration": 55, "velocity": 100}, {"time": 66330, "pitch": 55, "duration": 55, "velocity": 100}, {"time": 66440, "pitch": 55, "duration": 165, "velocity": 100}, {"time": 66660, "pitch": 55, "duration": 110, "velocity": 100}, {"time": 66770, "pitch": 79, "duration": 110, "velocity": 100}, {"time": 66880, "pitch": 51, "duration": 110, "velocity": 100}, {"time": 66880, "pitch": 58, "duration": 165, "velocity": 100}, {"time": 66990, "pitch": 67, "duration": 165, "velocity": 100}, {"time": 67100, "pitch": 51, "duration": 55, "velocity": 100}, {"time": 67100, "pitch": 58, "duration": 110, "velocity": 100}, {"time": 67210, "pitch": 53, "duration": 55, "velocity": 100}, {"time": 67210, "pitch": 71, "duration": 165, "velocity": 100}, {"time": 67320, "pitch": 51, "duration": 110, "velocity": 100}, {"time": 67320, "pitch": 55, "duration": 440, "velocity": 100}, {"time": 67430, "pitch": 67, "duration": 165, "velocity": 100}, {"time": 67485, "pitch": 82, "duration": 55, "velocity": 100}, {"time": 67540, "pitch": 79, "duration": 55, "velocity": 100}, {"time": 67595, "pitch": 82, "duration": 55, "velocity": 100}, {"time": 67705, "pitch": 67, "duration": 165, "velocity": 100}, {"time": 67760, "pitch": 58, "duration": 220, "velocity": 100}, {"time": 67760, "pitch": 82, "duration": 220, "velocity": 100}, {"time": 67925, "pitch": 72, "duration": 165, "velocity": 100}, {"time": 67980, "pitch": 63, "duration": 110, "velocity": 100}, {"time": 67980, "pitch": 67, "duration": 110, "velocity": 100}, {"time": 68090, "pitch": 65, "duration": 110, "velocity": 100}, {"time": 68145, "pitch": 71, "duration": 165, "velocity": 100}, {"time": 68200, "pitch": 63, "duration": 440, "velocity": 100}, {"time": 68365, "pitch": 72, "duration": 165, "velocity": 100}, {"time": 68640, "pitch": 55, "duration": 165, "velocity": 100}, {"time": 68640, "pitch": 58, "duration": 220, "velocity": 100}, {"time": 68640, "pitch": 63, "duration": 220, "velocity": 100}, {"time": 68640, "pitch": 73, "duration": 495, "velocity": 100}, {"time": 68860, "pitch": 63, "duration": 110, "velocity": 100}, {"time": 68970, "pitch": 58, "duration": 110, "velocity": 100}, {"time": 69080, "pitch": 58, "duration": 275, "velocity": 100}, {"time": 69135, "pitch": 73, "duration": 165, "velocity": 100}, {"time": 69300, "pitch": 58, "duration": 220, "velocity": 100}, {"time": 69300, "pitch": 73, "duration": 275, "velocity": 100}, {"time": 69520, "pitch": 58, "duration": 165, "velocity": 100}, {"time": 69630, "pitch": 58, "duration": 110, "velocity": 100}, {"time": 69740, "pitch": 58, "duration": 110, "velocity": 100}, {"time": 69795, "pitch": 58, "duration": 55, "velocity": 100}, {"time": 69850, "pitch": 58, "duration": 55, "velocity": 100}, {"time": 69850, "pitch": 67, "duration": 55, "velocity": 100}, {"time": 69905, "pitch": 65, "duration": 55, "velocity": 100}, {"time": 69960, "pitch": 55, "duration": 220, "velocity": 100}, {"time": 69960, "pitch": 58, "duration": 220, "velocity": 100}, {"time": 69960, "pitch": 63, "duration": 385, "velocity": 100}, {"time": 70070, "pitch": 73, "duration": 165, "velocity": 100}, {"time": 70180, "pitch": 55, "duration": 110, "velocity": 100}, {"time": 70235, "pitch": 73, "duration": 165, "velocity": 100}, {"time": 70400, "pitch": 51, "duration": 110, "velocity": 100}, {"time": 70400, "pitch": 56, "duration": 220, "velocity": 100}, {"time": 70510, "pitch": 73, "duration": 495, "velocity": 100}, {"time": 70620, "pitch": 61, "duration": 220, "velocity": 100}, {"time": 70620, "pitch": 78, "duration": 220, "velocity": 100}, {"time": 70840, "pitch": 61, "duration": 110, "velocity": 100}, {"time": 70840, "pitch": 75, "duration": 110, "velocity": 100}, {"time": 70950, "pitch": 68, "duration": 110, "velocity": 100}, {"time": 71005, "pitch": 73, "duration": 165, "velocity": 100}, {"time": 71060, "pitch": 75, "duration": 110, "velocity": 100}, {"time": 71170, "pitch": 66, "duration": 55, "velocity": 100}, {"time": 71225, "pitch": 73, "duration": 165, "velocity": 100}, {"time": 71280, "pitch": 52, "duration": 220, "velocity": 100}, {"time": 71280, "pitch": 76, "duration": 220, "velocity": 100}, {"time": 71390, "pitch": 79, "duration": 385, "velocity": 100}, {"time": 71500, "pitch": 56, "duration": 110, "velocity": 100}, {"time": 71500, "pitch": 73, "duration": 110, "velocity": 100}, {"time": 71610, "pitch": 68, "duration": 110, "velocity": 100}, {"time": 71720, "pitch": 56, "duration": 110, "velocity": 100}, {"time": 71720, "pitch": 76, "duration": 110, "velocity": 100}, {"time": 71775, "pitch": 84, "duration": 110, "velocity": 100}, {"time": 71885, "pitch": 84, "duration": 165, "velocity": 100}, {"time": 71940, "pitch": 59, "duration": 110, "velocity": 100}, {"time": 71940, "pitch": 73, "duration": 165, "velocity": 100}, {"time": 72050, "pitch": 73, "duration": 110, "velocity": 100}, {"time": 72160, "pitch": 56, "duration": 330, "velocity": 100}, {"time": 72160, "pitch": 76, "duration": 55, "velocity": 100}, {"time": 72380, "pitch": 76, "duration": 110, "velocity": 100}, {"time": 72490, "pitch": 68, "duration": 55, "velocity": 100}, {"time": 72545, "pitch": 73, "duration": 165, "velocity": 100}, {"time": 72600, "pitch": 76, "duration": 110, "velocity": 100}, {"time": 72710, "pitch": 68, "duration": 110, "velocity": 100}, {"time": 72710, "pitch": 73, "duration": 220, "velocity": 100}, {"time": 72820, "pitch": 73, "duration": 55, "velocity": 100}, {"time": 72930, "pitch": 73, "duration": 550, "velocity": 100}, {"time": 73040, "pitch": 56, "duration": 165, "velocity": 100}, {"time": 73260, "pitch": 56, "duration": 220, "velocity": 100}, {"time": 73260, "pitch": 73, "duration": 110, "velocity": 100}, {"time": 73370, "pitch": 68, "duration": 55, "velocity": 100}, {"time": 73480, "pitch": 56, "duration": 110, "velocity": 100}, {"time": 73480, "pitch": 73, "duration": 110, "velocity": 100}, {"time": 73480, "pitch": 73, "duration": 165, "velocity": 100}, {"time": 73590, "pitch": 68, "duration": 110, "velocity": 100}, {"time": 73645, "pitch": 73, "duration": 220, "velocity": 100}, {"time": 73700, "pitch": 56, "duration": 110, "velocity": 100}, {"time": 73700, "pitch": 71, "duration": 110, "velocity": 100}, {"time": 73865, "pitch": 73, "duration": 55, "velocity": 100}, {"time": 73920, "pitch": 52, "duration": 220, "velocity": 100}, {"time": 74140, "pitch": 56, "duration": 220, "velocity": 100}, {"time": 74140, "pitch": 75, "duration": 110, "velocity": 100}, {"time": 74250, "pitch": 64, "duration": 110, "velocity": 100}, {"time": 74360, "pitch": 61, "duration": 220, "velocity": 100}, {"time": 74360, "pitch": 75, "duration": 110, "velocity": 100}, {"time": 74415, "pitch": 73, "duration": 165, "velocity": 100}, {"time": 74470, "pitch": 68, "duration": 110, "velocity": 100}, {"time": 74580, "pitch": 73, "duration": 220, "velocity": 100}, {"time": 74580, "pitch": 75, "duration": 110, "velocity": 100}, {"time": 74690, "pitch": 68, "duration": 110, "velocity": 100}, {"time": 74800, "pitch": 56, "duration": 440, "velocity": 100}, {"time": 74855, "pitch": 79, "duration": 495, "velocity": 100}, {"time": 75020, "pitch": 75, "duration": 110, "velocity": 100}, {"time": 75130, "pitch": 66, "duration": 55, "velocity": 100}, {"time": 75240, "pitch": 61, "duration": 220, "velocity": 100}, {"time": 75240, "pitch": 76, "duration": 110, "velocity": 100}, {"time": 75350, "pitch": 66, "duration": 110, "velocity": 100}, {"time": 75350, "pitch": 84, "duration": 220, "velocity": 100}, {"time": 75460, "pitch": 56, "duration": 55, "velocity": 100}, {"time": 75460, "pitch": 80, "duration": 55, "velocity": 100}, {"time": 75570, "pitch": 84, "duration": 110, "velocity": 100}, {"time": 75680, "pitch": 56, "duration": 165, "velocity": 100}, {"time": 75790, "pitch": 73, "duration": 110, "velocity": 100}, {"time": 75790, "pitch": 73, "duration": 330, "velocity": 100}, {"time": 75900, "pitch": 80, "duration": 110, "velocity": 100}, {"time": 76010, "pitch": 73, "duration": 110, "velocity": 100}, {"time": 76120, "pitch": 56, "duration": 165, "velocity": 100}, {"time": 76120, "pitch": 73, "duration": 110, "velocity": 100}, {"time": 76120, "pitch": 80, "duration": 110, "velocity": 100}, {"time": 76230, "pitch": 73, "duration": 110, "velocity": 100}, {"time": 76230, "pitch": 73, "duration": 165, "velocity": 100}, {"time": 76340, "pitch": 80, "duration": 165, "velocity": 100}, {"time": 76450, "pitch": 79, "duration": 440, "velocity": 100}, {"time": 76560, "pitch": 52, "duration": 220, "velocity": 100}, {"time": 76670, "pitch": 73, "duration": 110, "velocity": 100}, {"time": 76780, "pitch": 56, "duration": 165, "velocity": 100}, {"time": 76780, "pitch": 76, "duration": 110, "velocity": 100}, {"time": 76890, "pitch": 73, "duration": 110, "velocity": 100}, {"time": 76890, "pitch": 84, "duration": 165, "velocity": 100}, {"time": 77000, "pitch": 80, "duration": 110, "velocity": 100}, {"time": 77110, "pitch": 73, "duration": 110, "velocity": 100}, {"time": 77110, "pitch": 84, "duration": 220, "velocity": 100}, {"time": 77220, "pitch": 56, "duration": 110, "velocity": 100}, {"time": 77220, "pitch": 80, "duration": 165, "velocity": 100}, {"time": 77330, "pitch": 60, "duration": 110, "velocity": 100}, {"time": 77440, "pitch": 52, "duration": 110, "velocity": 100}, {"time": 77440, "pitch": 56, "duration": 110, "velocity": 100}, {"time": 77660, "pitch": 52, "duration": 165, "velocity": 100}, {"time": 77660, "pitch": 73, "duration": 165, "velocity": 100}, {"time": 77825, "pitch": 61, "duration": 165, "velocity": 100}, {"time": 77880, "pitch": 61, "duration": 110, "velocity": 100}, {"time": 77880, "pitch": 76, "duration": 110, "velocity": 100}, {"time": 77990, "pitch": 68, "duration": 110, "velocity": 100}, {"time": 78045, "pitch": 60, "duration": 165, "velocity": 100}, {"time": 78100, "pitch": 56, "duration": 110, "velocity": 100}, {"time": 78100, "pitch": 75, "duration": 110, "velocity": 100}, {"time": 78210, "pitch": 66, "duration": 55, "velocity": 100}, {"time": 78265, "pitch": 61, "duration": 275, "velocity": 100}, {"time": 78320, "pitch": 52, "duration": 220, "velocity": 100}, {"time": 78540, "pitch": 56, "duration": 110, "velocity": 100}, {"time": 78540, "pitch": 73, "duration": 110, "velocity": 100}, {"time": 78650, "pitch": 68, "duration": 110, "velocity": 100}, {"time": 78760, "pitch": 56, "duration": 110, "velocity": 100}, {"time": 78760, "pitch": 60, "duration": 165, "velocity": 100}, {"time": 78760, "pitch": 76, "duration": 110, "velocity": 100}, {"time": 78870, "pitch": 64, "duration": 110, "velocity": 100}, {"time": 78980, "pitch": 56, "duration": 110, "velocity": 100}, {"time": 78980, "pitch": 59, "duration": 110, "velocity": 100}, {"time": 78980, "pitch": 62, "duration": 165, "velocity": 100}, {"time": 78980, "pitch": 73, "duration": 165, "velocity": 100}, {"time": 79200, "pitch": 56, "duration": 330, "velocity": 100}, {"time": 79200, "pitch": 64, "duration": 275, "velocity": 100}, {"time": 79200, "pitch": 76, "duration": 55, "velocity": 100}, {"time": 79420, "pitch": 76, "duration": 110, "velocity": 100}, {"time": 79530, "pitch": 68, "duration": 55, "velocity": 100}, {"time": 79640, "pitch": 56, "duration": 110, "velocity": 100}, {"time": 79640, "pitch": 76, "duration": 110, "velocity": 100}, {"time": 79695, "pitch": 65, "duration": 165, "velocity": 100}, {"time": 79750, "pitch": 68, "duration": 110, "velocity": 100}, {"time": 79860, "pitch": 56, "duration": 55, "velocity": 100}, {"time": 79860, "pitch": 73, "duration": 55, "velocity": 100}, {"time": 79915, "pitch": 64, "duration": 165, "velocity": 100}, {"time": 80080, "pitch": 49, "duration": 55, "velocity": 100}, {"time": 80080, "pitch": 56, "duration": 165, "velocity": 100}, {"time": 80135, "pitch": 65, "duration": 275, "velocity": 100}, {"time": 80300, "pitch": 56, "duration": 220, "velocity": 100}, {"time": 80300, "pitch": 73, "duration": 110, "velocity": 100}, {"time": 80410, "pitch": 68, "duration": 55, "velocity": 100}, {"time": 80520, "pitch": 56, "duration": 110, "velocity": 100}, {"time": 80520, "pitch": 73, "duration": 110, "velocity": 100}, {"time": 80630, "pitch": 64, "duration": 165, "velocity": 100}, {"time": 80630, "pitch": 68, "duration": 110, "velocity": 100}, {"time": 80740, "pitch": 56, "duration": 110, "velocity": 100}, {"time": 80740, "pitch": 71, "duration": 110, "velocity": 100}, {"time": 80850, "pitch": 66, "duration": 110, "velocity": 100}, {"time": 80960, "pitch": 56, "duration": 110, "velocity": 100}, {"time": 80960, "pitch": 64, "duration": 110, "velocity": 100}, {"time": 81070, "pitch": 67, "duration": 550, "velocity": 100}, {"time": 81070, "pitch": 80, "duration": 55, "velocity": 100}, {"time": 81125, "pitch": 83, "duration": 55, "velocity": 100}, {"time": 81180, "pitch": 83, "duration": 55, "velocity": 100}, {"time": 81235, "pitch": 85, "duration": 55, "velocity": 100}, {"time": 81400, "pitch": 84, "duration": 440, "velocity": 100}, {"time": 81620, "pitch": 68, "duration": 220, "velocity": 100}, {"time": 81840, "pitch": 60, "duration": 220, "velocity": 100}, {"time": 81840, "pitch": 67, "duration": 165, "velocity": 100}, {"time": 82005, "pitch": 70, "duration": 330, "velocity": 100}, {"time": 82060, "pitch": 64, "duration": 110, "velocity": 100}, {"time": 82280, "pitch": 64, "duration": 220, "velocity": 100}, {"time": 82335, "pitch": 68, "duration": 110, "velocity": 100}, {"time": 82445, "pitch": 73, "duration": 165, "velocity": 100}, {"time": 82500, "pitch": 60, "duration": 55, "velocity": 100}, {"time": 82500, "pitch": 64, "duration": 110, "velocity": 100}, {"time": 82610, "pitch": 72, "duration": 110, "velocity": 100}, {"time": 82720, "pitch": 56, "duration": 220, "velocity": 100}, {"time": 82720, "pitch": 60, "duration": 220, "velocity": 100}, {"time": 82940, "pitch": 64, "duration": 110, "velocity": 100}, {"time": 83050, "pitch": 60, "duration": 55, "velocity": 100}, {"time": 83050, "pitch": 74, "duration": 220, "velocity": 100}, {"time": 83160, "pitch": 64, "duration": 165, "velocity": 100}, {"time": 83270, "pitch": 75, "duration": 220, "velocity": 100}, {"time": 83380, "pitch": 60, "duration": 55, "velocity": 100}, {"time": 83380, "pitch": 64, "duration": 55, "velocity": 100}, {"time": 83490, "pitch": 76, "duration": 495, "velocity": 100}, {"time": 83600, "pitch": 60, "duration": 220, "velocity": 100}, {"time": 83820, "pitch": 56, "duration": 110, "velocity": 100}, {"time": 83875, "pitch": 59, "duration": 55, "velocity": 100}, {"time": 83930, "pitch": 60, "duration": 55, "velocity": 100}, {"time": 83985, "pitch": 77, "duration": 275, "velocity": 100}, {"time": 84040, "pitch": 56, "duration": 165, "velocity": 100}, {"time": 84040, "pitch": 60, "duration": 110, "velocity": 100}, {"time": 84040, "pitch": 64, "duration": 110, "velocity": 100}, {"time": 84260, "pitch": 60, "duration": 110, "velocity": 100}, {"time": 84260, "pitch": 64, "duration": 110, "velocity": 100}, {"time": 84260, "pitch": 79, "duration": 220, "velocity": 100}, {"time": 84480, "pitch": 56, "duration": 110, "velocity": 100}, {"time": 84480, "pitch": 64, "duration": 110, "velocity": 100}, {"time": 84700, "pitch": 54, "duration": 55, "velocity": 100}, {"time": 84700, "pitch": 60, "duration": 110, "velocity": 100}, {"time": 84920, "pitch": 52, "duration": 110, "velocity": 100}, {"time": 84920, "pitch": 56, "duration": 220, "velocity": 100}, {"time": 84975, "pitch": 68, "duration": 110, "velocity": 100}, {"time": 85030, "pitch": 80, "duration": 55, "velocity": 100}, {"time": 85085, "pitch": 85, "duration": 55, "velocity": 100}, {"time": 85140, "pitch": 80, "duration": 55, "velocity": 100}, {"time": 85195, "pitch": 80, "duration": 55, "velocity": 100}, {"time": 85360, "pitch": 84, "duration": 440, "velocity": 100}, {"time": 85415, "pitch": 68, "duration": 495, "velocity": 100}, {"time": 85580, "pitch": 68, "duration": 110, "velocity": 100}, {"time": 85690, "pitch": 66, "duration": 110, "velocity": 100}, {"time": 85800, "pitch": 64, "duration": 440, "velocity": 100}, {"time": 85910, "pitch": 72, "duration": 110, "velocity": 100}, {"time": 86020, "pitch": 56, "duration": 55, "velocity": 100}, {"time": 86020, "pitch": 60, "duration": 165, "velocity": 100}, {"time": 86075, "pitch": 72, "duration": 165, "velocity": 100}, {"time": 86240, "pitch": 56, "duration": 220, "velocity": 100}, {"time": 86240, "pitch": 60, "duration": 220, "velocity": 100}, {"time": 86240, "pitch": 64, "duration": 220, "velocity": 100}, {"time": 86350, "pitch": 70, "duration": 495, "velocity": 100}, {"time": 86460, "pitch": 60, "duration": 110, "velocity": 100}, {"time": 86460, "pitch": 64, "duration": 110, "velocity": 100}, {"time": 86570, "pitch": 60, "duration": 55, "velocity": 100}, {"time": 86680, "pitch": 60, "duration": 275, "velocity": 100}, {"time": 86845, "pitch": 73, "duration": 110, "velocity": 100}, {"time": 86900, "pitch": 60, "duration": 220, "velocity": 100}, {"time": 87010, "pitch": 73, "duration": 165, "velocity": 100}, {"time": 87120, "pitch": 56, "duration": 220, "velocity": 100}, {"time": 87120, "pitch": 60, "duration": 220, "velocity": 100}, {"time": 87230, "pitch": 59, "duration": 55, "velocity": 100}, {"time": 87230, "pitch": 68, "duration": 330, "velocity": 100}, {"time": 87340, "pitch": 60, "duration": 110, "velocity": 100}, {"time": 87395, "pitch": 64, "duration": 55, "velocity": 100}, {"time": 87450, "pitch": 60, "duration": 55, "velocity": 100}, {"time": 87450, "pitch": 68, "duration": 55, "velocity": 100}, {"time": 87505, "pitch": 68, "duration": 55, "velocity": 100}]}, {"program": 70, "is_drum": false, "name": "Tenor", "notes": [{"time": 0, "pitch": 56, "duration": 110, "velocity": 100}, {"time": 220, "pitch": 56, "duration": 55, "velocity": 100}, {"time": 220, "pitch": 60, "duration": 110, "velocity": 100}, {"time": 440, "pitch": 52, "duration": 220, "velocity": 100}, {"time": 440, "pitch": 56, "duration": 220, "velocity": 100}, {"time": 660, "pitch": 60, "duration": 110, "velocity": 100}, {"time": 880, "pitch": 56, "duration": 220, "velocity": 100}, {"time": 880, "pitch": 60, "duration": 220, "velocity": 100}, {"time": 1100, "pitch": 64, "duration": 110, "velocity": 100}, {"time": 1320, "pitch": 64, "duration": 220, "velocity": 100}, {"time": 1540, "pitch": 60, "duration": 110, "velocity": 100}, {"time": 1760, "pitch": 56, "duration": 165, "velocity": 100}, {"time": 1760, "pitch": 60, "duration": 220, "velocity": 100}, {"time": 1980, "pitch": 64, "duration": 110, "velocity": 100}, {"time": 2090, "pitch": 60, "duration": 55, "velocity": 100}, {"time": 2200, "pitch": 64, "duration": 165, "velocity": 100}, {"time": 2420, "pitch": 59, "duration": 55, "velocity": 100}, {"time": 2640, "pitch": 56, "duration": 110, "velocity": 100}, {"time": 2915, "pitch": 56, "duration": 55, "velocity": 100}, {"time": 3080, "pitch": 56, "duration": 165, "velocity": 100}, {"time": 3245, "pitch": 72, "duration": 110, "velocity": 100}, {"time": 3300, "pitch": 64, "duration": 110, "velocity": 100}, {"time": 3520, "pitch": 56, "duration": 110, "velocity": 100}, {"time": 3740, "pitch": 54, "duration": 55, "velocity": 100}, {"time": 3960, "pitch": 52, "duration": 110, "velocity": 100}, {"time": 4180, "pitch": 60, "duration": 110, "velocity": 100}, {"time": 4400, "pitch": 56, "duration": 220, "velocity": 100}, {"time": 4400, "pitch": 60, "duration": 220, "velocity": 100}, {"time": 4620, "pitch": 64, "duration": 110, "velocity": 100}, {"time": 4730, "pitch": 66, "duration": 110, "velocity": 100}, {"time": 4840, "pitch": 64, "duration": 440, "velocity": 100}, {"time": 4950, "pitch": 68, "duration": 165, "velocity": 100}, {"time": 5060, "pitch": 60, "duration": 165, "velocity": 100}, {"time": 5280, "pitch": 56, "duration": 220, "velocity": 100}, {"time": 5280, "pitch": 60, "duration": 220, "velocity": 100}, {"time": 5500, "pitch": 60, "duration": 110, "velocity": 100}, {"time": 5610, "pitch": 60, "duration": 55, "velocity": 100}, {"time": 5720, "pitch": 60, "duration": 275, "velocity": 100}, {"time": 5940, "pitch": 60, "duration": 220, "velocity": 100}, {"time": 6160, "pitch": 56, "duration": 220, "velocity": 100}, {"time": 6270, "pitch": 59, "duration": 55, "velocity": 100}, {"time": 6380, "pitch": 60, "duration": 110, "velocity": 100}, {"time": 6490, "pitch": 60, "duration": 55, "velocity": 100}, {"time": 6600, "pitch": 56, "duration": 165, "velocity": 100}, {"time": 6600, "pitch": 60, "duration": 220, "velocity": 100}, {"time": 6820, "pitch": 56, "duration": 110, "velocity": 100}, {"time": 7040, "pitch": 60, "duration": 165, "velocity": 100}, {"time": 7260, "pitch": 60, "duration": 55, "velocity": 100}, {"time": 7480, "pitch": 60, "duration": 165, "velocity": 100}, {"time": 7590, "pitch": 62, "duration": 110, "velocity": 100}, {"time": 7700, "pitch": 60, "duration": 220, "velocity": 100}, {"time": 7920, "pitch": 56, "duration": 165, "velocity": 100}, {"time": 8140, "pitch": 60, "duration": 110, "velocity": 100}, {"time": 8360, "pitch": 56, "duration": 165, "velocity": 100}, {"time": 8360, "pitch": 60, "duration": 165, "velocity": 100}, {"time": 8580, "pitch": 64, "duration": 110, "velocity": 100}, {"time": 8690, "pitch": 62, "duration": 110, "velocity": 100}, {"time": 8800, "pitch": 56, "duration": 165, "velocity": 100}, {"time": 8910, "pitch": 67, "duration": 330, "velocity": 100}, {"time": 9020, "pitch": 60, "duration": 110, "velocity": 100}, {"time": 9240, "pitch": 60, "duration": 165, "velocity": 100}, {"time": 9350, "pitch": 62, "duration": 110, "velocity": 100}, {"time": 9460, "pitch": 60, "duration": 110, "velocity": 100}, {"time": 9680, "pitch": 64, "duration": 220, "velocity": 100}, {"time": 9900, "pitch": 60, "duration": 110, "velocity": 100}, {"time": 10120, "pitch": 56, "duration": 220, "velocity": 100}, {"time": 10340, "pitch": 56, "duration": 220, "velocity": 100}, {"time": 10560, "pitch": 56, "duration": 220, "velocity": 100}, {"time": 10780, "pitch": 56, "duration": 55, "velocity": 100}, {"time": 10890, "pitch": 67, "duration": 110, "velocity": 100}, {"time": 11000, "pitch": 53, "duration": 165, "velocity": 100}, {"time": 11220, "pitch": 53, "duration": 55, "velocity": 100}, {"time": 11440, "pitch": 53, "duration": 165, "velocity": 100}, {"time": 11660, "pitch": 56, "duration": 110, "velocity": 100}, {"time": 11880, "pitch": 53, "duration": 165, "velocity": 100}, {"time": 11880, "pitch": 56, "duration": 165, "velocity": 100}, {"time": 12100, "pitch": 56, "duration": 55, "velocity": 100}, {"time": 12100, "pitch": 60, "duration": 110, "velocity": 100}, {"time": 12210, "pitch": 58, "duration": 110, "velocity": 100}, {"time": 12320, "pitch": 53, "duration": 55, "velocity": 100}, {"time": 12540, "pitch": 56, "duration": 110, "velocity": 100}, {"time": 12760, "pitch": 53, "duration": 165, "velocity": 100}, {"time": 12980, "pitch": 53, "duration": 55, "velocity": 100}, {"time": 13200, "pitch": 53, "duration": 110, "velocity": 100}, {"time": 13420, "pitch": 53, "duration": 55, "velocity": 100}, {"time": 13750, "pitch": 53, "duration": 110, "velocity": 100}, {"time": 13860, "pitch": 48, "duration": 110, "velocity": 100}, {"time": 14080, "pitch": 53, "duration": 275, "velocity": 100}, {"time": 14520, "pitch": 64, "duration": 165, "velocity": 100}, {"time": 14740, "pitch": 60, "duration": 55, "velocity": 100}, {"time": 14960, "pitch": 60, "duration": 220, "velocity": 100}, {"time": 15070, "pitch": 56, "duration": 165, "velocity": 100}, {"time": 15180, "pitch": 64, "duration": 110, "velocity": 100}, {"time": 15400, "pitch": 68, "duration": 165, "velocity": 100}, {"time": 15510, "pitch": 75, "duration": 110, "velocity": 100}, {"time": 15620, "pitch": 64, "duration": 55, "velocity": 100}, {"time": 15620, "pitch": 68, "duration": 110, "velocity": 100}, {"time": 15840, "pitch": 64, "duration": 220, "velocity": 100}, {"time": 15950, "pitch": 60, "duration": 110, "velocity": 100}, {"time": 16060, "pitch": 64, "duration": 110, "velocity": 100}, {"time": 16170, "pitch": 60, "duration": 165, "velocity": 100}, {"time": 17160, "pitch": 64, "duration": 165, "velocity": 100}, {"time": 17380, "pitch": 60, "duration": 55, "velocity": 100}, {"time": 17600, "pitch": 60, "duration": 110, "velocity": 100}, {"time": 17710, "pitch": 55, "duration": 110, "velocity": 100}, {"time": 17820, "pitch": 60, "duration": 55, "velocity": 100}, {"time": 17820, "pitch": 64, "duration": 110, "velocity": 100}, {"time": 17930, "pitch": 60, "duration": 55, "velocity": 100}, {"time": 18040, "pitch": 55, "duration": 220, "velocity": 100}, {"time": 18150, "pitch": 52, "duration": 220, "velocity": 100}, {"time": 18260, "pitch": 64, "duration": 110, "velocity": 100}, {"time": 18480, "pitch": 60, "duration": 220, "velocity": 100}, {"time": 18590, "pitch": 55, "duration": 220, "velocity": 100}, {"time": 18920, "pitch": 48, "duration": 330, "velocity": 100}, {"time": 19030, "pitch": 55, "duration": 165, "velocity": 100}, {"time": 19470, "pitch": 55, "duration": 165, "velocity": 100}, {"time": 20350, "pitch": 52, "duration": 220, "velocity": 100}, {"time": 20460, "pitch": 55, "duration": 110, "velocity": 100}, {"time": 20790, "pitch": 55, "duration": 165, "velocity": 100}, {"time": 21230, "pitch": 52, "duration": 110, "velocity": 100}, {"time": 21340, "pitch": 52, "duration": 55, "velocity": 100}, {"time": 22000, "pitch": 60, "duration": 110, "velocity": 100}, {"time": 22220, "pitch": 68, "duration": 110, "velocity": 100}, {"time": 22330, "pitch": 64, "duration": 110, "velocity": 100}, {"time": 22330, "pitch": 68, "duration": 110, "velocity": 100}, {"time": 22550, "pitch": 56, "duration": 165, "velocity": 100}, {"time": 22660, "pitch": 60, "duration": 220, "velocity": 100}, {"time": 22660, "pitch": 64, "duration": 110, "velocity": 100}, {"time": 22880, "pitch": 60, "duration": 220, "velocity": 100}, {"time": 22990, "pitch": 56, "duration": 165, "velocity": 100}, {"time": 23210, "pitch": 60, "duration": 110, "velocity": 100}, {"time": 23430, "pitch": 56, "duration": 165, "velocity": 100}, {"time": 23760, "pitch": 60, "duration": 165, "velocity": 100}, {"time": 23870, "pitch": 52, "duration": 220, "velocity": 100}, {"time": 23980, "pitch": 56, "duration": 55, "velocity": 100}, {"time": 24200, "pitch": 60, "duration": 165, "velocity": 100}, {"time": 24530, "pitch": 56, "duration": 55, "velocity": 100}, {"time": 24640, "pitch": 52, "duration": 165, "velocity": 100}, {"time": 24860, "pitch": 55, "duration": 110, "velocity": 100}, {"time": 25080, "pitch": 55, "duration": 110, "velocity": 100}, {"time": 25300, "pitch": 55, "duration": 110, "velocity": 100}, {"time": 25520, "pitch": 48, "duration": 165, "velocity": 100}, {"time": 25630, "pitch": 43, "duration": 110, "velocity": 100}, {"time": 25850, "pitch": 48, "duration": 55, "velocity": 100}, {"time": 26070, "pitch": 48, "duration": 110, "velocity": 100}, {"time": 26510, "pitch": 48, "duration": 165, "velocity": 100}, {"time": 26730, "pitch": 52, "duration": 110, "velocity": 100}, {"time": 27060, "pitch": 52, "duration": 110, "velocity": 100}, {"time": 27280, "pitch": 48, "duration": 440, "velocity": 100}, {"time": 27390, "pitch": 55, "duration": 55, "velocity": 100}, {"time": 27500, "pitch": 52, "duration": 55, "velocity": 100}, {"time": 27610, "pitch": 55, "duration": 55, "velocity": 100}, {"time": 27885, "pitch": 55, "duration": 55, "velocity": 100}, {"time": 27940, "pitch": 55, "duration": 55, "velocity": 100}, {"time": 28050, "pitch": 55, "duration": 55, "velocity": 100}, {"time": 28160, "pitch": 48, "duration": 165, "velocity": 100}, {"time": 28380, "pitch": 48, "duration": 55, "velocity": 100}, {"time": 28490, "pitch": 48, "duration": 55, "velocity": 100}, {"time": 28820, "pitch": 51, "duration": 110, "velocity": 100}, {"time": 29150, "pitch": 46, "duration": 110, "velocity": 100}, {"time": 29260, "pitch": 51, "duration": 55, "velocity": 100}, {"time": 29370, "pitch": 51, "duration": 55, "velocity": 100}, {"time": 29590, "pitch": 46, "duration": 165, "velocity": 100}, {"time": 29920, "pitch": 39, "duration": 275, "velocity": 100}, {"time": 30030, "pitch": 46, "duration": 110, "velocity": 100}, {"time": 30140, "pitch": 51, "duration": 55, "velocity": 100}, {"time": 30580, "pitch": 51, "duration": 55, "velocity": 100}, {"time": 30910, "pitch": 51, "duration": 55, "velocity": 100}, {"time": 31020, "pitch": 51, "duration": 55, "velocity": 100}, {"time": 31130, "pitch": 46, "duration": 55, "velocity": 100}, {"time": 31185, "pitch": 51, "duration": 55, "velocity": 100}, {"time": 31185, "pitch": 55, "duration": 55, "velocity": 100}, {"time": 31240, "pitch": 51, "duration": 55, "velocity": 100}, {"time": 31460, "pitch": 51, "duration": 55, "velocity": 100}, {"time": 31515, "pitch": 46, "duration": 165, "velocity": 100}, {"time": 31570, "pitch": 51, "duration": 110, "velocity": 100}, {"time": 31625, "pitch": 55, "duration": 55, "velocity": 100}, {"time": 31680, "pitch": 52, "duration": 165, "velocity": 100}, {"time": 32120, "pitch": 56, "duration": 110, "velocity": 100}, {"time": 32230, "pitch": 48, "duration": 110, "velocity": 100}, {"time": 32450, "pitch": 52, "duration": 55, "velocity": 100}, {"time": 32560, "pitch": 52, "duration": 55, "velocity": 100}, {"time": 32670, "pitch": 48, "duration": 110, "velocity": 100}, {"time": 32890, "pitch": 52, "duration": 55, "velocity": 100}, {"time": 33220, "pitch": 56, "duration": 55, "velocity": 100}, {"time": 33660, "pitch": 56, "duration": 110, "velocity": 100}, {"time": 33770, "pitch": 52, "duration": 110, "velocity": 100}, {"time": 33990, "pitch": 52, "duration": 55, "velocity": 100}, {"time": 34100, "pitch": 52, "duration": 110, "velocity": 100}, {"time": 34320, "pitch": 48, "duration": 385, "velocity": 100}, {"time": 34430, "pitch": 56, "duration": 55, "velocity": 100}, {"time": 34540, "pitch": 56, "duration": 55, "velocity": 100}, {"time": 34650, "pitch": 56, "duration": 55, "velocity": 100}, {"time": 34870, "pitch": 56, "duration": 55, "velocity": 100}, {"time": 34925, "pitch": 56, "duration": 55, "velocity": 100}, {"time": 34980, "pitch": 56, "duration": 55, "velocity": 100}, {"time": 34980, "pitch": 60, "duration": 55, "velocity": 100}, {"time": 35090, "pitch": 56, "duration": 55, "velocity": 100}, {"time": 35200, "pitch": 52, "duration": 110, "velocity": 100}, {"time": 35420, "pitch": 52, "duration": 55, "velocity": 100}, {"time": 35530, "pitch": 49, "duration": 55, "velocity": 100}, {"time": 35860, "pitch": 52, "duration": 110, "velocity": 100}, {"time": 35970, "pitch": 52, "duration": 55, "velocity": 100}, {"time": 36080, "pitch": 52, "duration": 110, "velocity": 100}, {"time": 36190, "pitch": 44, "duration": 110, "velocity": 100}, {"time": 36410, "pitch": 52, "duration": 55, "velocity": 100}, {"time": 36630, "pitch": 49, "duration": 165, "velocity": 100}, {"time": 36740, "pitch": 52, "duration": 110, "velocity": 100}, {"time": 37180, "pitch": 56, "duration": 55, "velocity": 100}, {"time": 37510, "pitch": 49, "duration": 165, "velocity": 100}, {"time": 37840, "pitch": 49, "duration": 385, "velocity": 100}, {"time": 37950, "pitch": 52, "duration": 55, "velocity": 100}, {"time": 38060, "pitch": 52, "duration": 55, "velocity": 100}, {"time": 38170, "pitch": 49, "duration": 55, "velocity": 100}, {"time": 38390, "pitch": 56, "duration": 55, "velocity": 100}, {"time": 38500, "pitch": 56, "duration": 110, "velocity": 100}, {"time": 38610, "pitch": 52, "duration": 110, "velocity": 100}, {"time": 38665, "pitch": 56, "duration": 55, "velocity": 100}, {"time": 38720, "pitch": 49, "duration": 165, "velocity": 100}, {"time": 38720, "pitch": 52, "duration": 165, "velocity": 100}, {"time": 38940, "pitch": 52, "duration": 110, "velocity": 100}, {"time": 39380, "pitch": 52, "duration": 110, "velocity": 100}, {"time": 39490, "pitch": 48, "duration": 55, "velocity": 100}, {"time": 39600, "pitch": 48, "duration": 55, "velocity": 100}, {"time": 39820, "pitch": 52, "duration": 110, "velocity": 100}, {"time": 40150, "pitch": 44, "duration": 110, "velocity": 100}, {"time": 40480, "pitch": 52, "duration": 165, "velocity": 100}, {"time": 40700, "pitch": 52, "duration": 110, "velocity": 100}, {"time": 40810, "pitch": 48, "duration": 110, "velocity": 100}, {"time": 40920, "pitch": 52, "duration": 110, "velocity": 100}, {"time": 41140, "pitch": 52, "duration": 55, "velocity": 100}, {"time": 41140, "pitch": 56, "duration": 110, "velocity": 100}, {"time": 41360, "pitch": 40, "duration": 385, "velocity": 100}, {"time": 41470, "pitch": 52, "duration": 110, "velocity": 100}, {"time": 41690, "pitch": 52, "duration": 110, "velocity": 100}, {"time": 42020, "pitch": 56, "duration": 55, "velocity": 100}, {"time": 42130, "pitch": 52, "duration": 55, "velocity": 100}, {"time": 42240, "pitch": 52, "duration": 165, "velocity": 100}, {"time": 42460, "pitch": 56, "duration": 110, "velocity": 100}, {"time": 42790, "pitch": 48, "duration": 110, "velocity": 100}, {"time": 43010, "pitch": 53, "duration": 55, "velocity": 100}, {"time": 43120, "pitch": 53, "duration": 55, "velocity": 100}, {"time": 43340, "pitch": 56, "duration": 110, "velocity": 100}, {"time": 43450, "pitch": 48, "duration": 55, "velocity": 100}, {"time": 43670, "pitch": 53, "duration": 110, "velocity": 100}, {"time": 44110, "pitch": 48, "duration": 165, "velocity": 100}, {"time": 44330, "pitch": 53, "duration": 110, "velocity": 100}, {"time": 44550, "pitch": 53, "duration": 55, "velocity": 100}, {"time": 44660, "pitch": 53, "duration": 110, "velocity": 100}, {"time": 44990, "pitch": 56, "duration": 55, "velocity": 100}, {"time": 45100, "pitch": 56, "duration": 55, "velocity": 100}, {"time": 45210, "pitch": 56, "duration": 55, "velocity": 100}, {"time": 45485, "pitch": 56, "duration": 55, "velocity": 100}, {"time": 45540, "pitch": 56, "duration": 55, "velocity": 100}, {"time": 45650, "pitch": 56, "duration": 55, "velocity": 100}, {"time": 45650, "pitch": 60, "duration": 55, "velocity": 100}, {"time": 45760, "pitch": 52, "duration": 110, "velocity": 100}, {"time": 45980, "pitch": 52, "duration": 55, "velocity": 100}, {"time": 46090, "pitch": 49, "duration": 55, "velocity": 100}, {"time": 46420, "pitch": 52, "duration": 110, "velocity": 100}, {"time": 46530, "pitch": 52, "duration": 55, "velocity": 100}, {"time": 46640, "pitch": 52, "duration": 110, "velocity": 100}, {"time": 46750, "pitch": 44, "duration": 110, "velocity": 100}, {"time": 46970, "pitch": 52, "duration": 55, "velocity": 100}, {"time": 47190, "pitch": 49, "duration": 165, "velocity": 100}, {"time": 47630, "pitch": 44, "duration": 110, "velocity": 100}, {"time": 48180, "pitch": 56, "duration": 55, "velocity": 100}, {"time": 48400, "pitch": 49, "duration": 385, "velocity": 100}, {"time": 48400, "pitch": 52, "duration": 55, "velocity": 100}, {"time": 48620, "pitch": 52, "duration": 55, "velocity": 100}, {"time": 49060, "pitch": 56, "duration": 110, "velocity": 100}, {"time": 49170, "pitch": 52, "duration": 110, "velocity": 100}, {"time": 49225, "pitch": 56, "duration": 55, "velocity": 100}, {"time": 49280, "pitch": 52, "duration": 165, "velocity": 100}, {"time": 49500, "pitch": 56, "duration": 110, "velocity": 100}, {"time": 49720, "pitch": 55, "duration": 110, "velocity": 100}, {"time": 49830, "pitch": 48, "duration": 110, "velocity": 100}, {"time": 50050, "pitch": 52, "duration": 55, "velocity": 100}, {"time": 50160, "pitch": 48, "duration": 165, "velocity": 100}, {"time": 50270, "pitch": 43, "duration": 110, "velocity": 100}, {"time": 50490, "pitch": 48, "duration": 55, "velocity": 100}, {"time": 50600, "pitch": 36, "duration": 275, "velocity": 100}, {"time": 50710, "pitch": 48, "duration": 110, "velocity": 100}, {"time": 51040, "pitch": 36, "duration": 385, "velocity": 100}, {"time": 51150, "pitch": 48, "duration": 165, "velocity": 100}, {"time": 51370, "pitch": 52, "duration": 110, "velocity": 100}, {"time": 51590, "pitch": 52, "duration": 55, "velocity": 100}, {"time": 51700, "pitch": 52, "duration": 110, "velocity": 100}, {"time": 51700, "pitch": 55, "duration": 110, "velocity": 100}, {"time": 51920, "pitch": 48, "duration": 440, "velocity": 100}, {"time": 52030, "pitch": 55, "duration": 55, "velocity": 100}, {"time": 52140, "pitch": 52, "duration": 55, "velocity": 100}, {"time": 52250, "pitch": 55, "duration": 55, "velocity": 100}, {"time": 52360, "pitch": 55, "duration": 55, "velocity": 100}, {"time": 52525, "pitch": 55, "duration": 55, "velocity": 100}, {"time": 52580, "pitch": 55, "duration": 55, "velocity": 100}, {"time": 52690, "pitch": 55, "duration": 55, "velocity": 100}, {"time": 52690, "pitch": 60, "duration": 55, "velocity": 100}, {"time": 52800, "pitch": 46, "duration": 165, "velocity": 100}, {"time": 52910, "pitch": 46, "duration": 110, "velocity": 100}, {"time": 53020, "pitch": 46, "duration": 55, "velocity": 100}, {"time": 53130, "pitch": 46, "duration": 55, "velocity": 100}, {"time": 53240, "pitch": 39, "duration": 275, "velocity": 100}, {"time": 53460, "pitch": 51, "duration": 110, "velocity": 100}, {"time": 53570, "pitch": 46, "duration": 55, "velocity": 100}, {"time": 53680, "pitch": 39, "duration": 275, "velocity": 100}, {"time": 53790, "pitch": 46, "duration": 110, "velocity": 100}, {"time": 54010, "pitch": 51, "duration": 55, "velocity": 100}, {"time": 54120, "pitch": 51, "duration": 165, "velocity": 100}, {"time": 54230, "pitch": 46, "duration": 165, "velocity": 100}, {"time": 54340, "pitch": 51, "duration": 110, "velocity": 100}, {"time": 54560, "pitch": 39, "duration": 275, "velocity": 100}, {"time": 54670, "pitch": 46, "duration": 110, "velocity": 100}, {"time": 55220, "pitch": 51, "duration": 55, "velocity": 100}, {"time": 55550, "pitch": 51, "duration": 55, "velocity": 100}, {"time": 55660, "pitch": 51, "duration": 55, "velocity": 100}, {"time": 55825, "pitch": 51, "duration": 55, "velocity": 100}, {"time": 55880, "pitch": 51, "duration": 55, "velocity": 100}, {"time": 56100, "pitch": 55, "duration": 55, "velocity": 100}, {"time": 56210, "pitch": 51, "duration": 110, "velocity": 100}, {"time": 56265, "pitch": 55, "duration": 55, "velocity": 100}, {"time": 56320, "pitch": 51, "duration": 165, "velocity": 100}, {"time": 56540, "pitch": 56, "duration": 110, "velocity": 100}, {"time": 56760, "pitch": 56, "duration": 110, "velocity": 100}, {"time": 56870, "pitch": 48, "duration": 110, "velocity": 100}, {"time": 57090, "pitch": 53, "duration": 55, "velocity": 100}, {"time": 57420, "pitch": 53, "duration": 110, "velocity": 100}, {"time": 57530, "pitch": 53, "duration": 55, "velocity": 100}, {"time": 57750, "pitch": 48, "duration": 110, "velocity": 100}, {"time": 57860, "pitch": 56, "duration": 55, "velocity": 100}, {"time": 57860, "pitch": 60, "duration": 55, "velocity": 100}, {"time": 58080, "pitch": 56, "duration": 165, "velocity": 100}, {"time": 58300, "pitch": 56, "duration": 110, "velocity": 100}, {"time": 58410, "pitch": 53, "duration": 110, "velocity": 100}, {"time": 58520, "pitch": 56, "duration": 110, "velocity": 100}, {"time": 58740, "pitch": 56, "duration": 55, "velocity": 100}, {"time": 58740, "pitch": 60, "duration": 110, "velocity": 100}, {"time": 59070, "pitch": 56, "duration": 110, "velocity": 100}, {"time": 59180, "pitch": 60, "duration": 110, "velocity": 100}, {"time": 59400, "pitch": 53, "duration": 275, "velocity": 100}, {"time": 59620, "pitch": 60, "duration": 55, "velocity": 100}, {"time": 59730, "pitch": 56, "duration": 55, "velocity": 100}, {"time": 60005, "pitch": 51, "duration": 55, "velocity": 100}, {"time": 60060, "pitch": 51, "duration": 55, "velocity": 100}, {"time": 60170, "pitch": 51, "duration": 55, "velocity": 100}, {"time": 60280, "pitch": 51, "duration": 165, "velocity": 100}, {"time": 60390, "pitch": 46, "duration": 165, "velocity": 100}, {"time": 60720, "pitch": 55, "duration": 165, "velocity": 100}, {"time": 60830, "pitch": 51, "duration": 165, "velocity": 100}, {"time": 61160, "pitch": 55, "duration": 55, "velocity": 100}, {"time": 61270, "pitch": 55, "duration": 110, "velocity": 100}, {"time": 61490, "pitch": 55, "duration": 55, "velocity": 100}, {"time": 61820, "pitch": 55, "duration": 55, "velocity": 100}, {"time": 62260, "pitch": 55, "duration": 110, "velocity": 100}, {"time": 62810, "pitch": 55, "duration": 110, "velocity": 100}, {"time": 63030, "pitch": 55, "duration": 110, "velocity": 100}, {"time": 63360, "pitch": 51, "duration": 110, "velocity": 100}, {"time": 63580, "pitch": 52, "duration": 55, "velocity": 100}, {"time": 63800, "pitch": 48, "duration": 220, "velocity": 100}, {"time": 64240, "pitch": 52, "duration": 220, "velocity": 100}, {"time": 64350, "pitch": 43, "duration": 220, "velocity": 100}, {"time": 64570, "pitch": 55, "duration": 110, "velocity": 100}, {"time": 64900, "pitch": 52, "duration": 110, "velocity": 100}, {"time": 64900, "pitch": 55, "duration": 110, "velocity": 100}, {"time": 65120, "pitch": 52, "duration": 165, "velocity": 100}, {"time": 65230, "pitch": 48, "duration": 165, "velocity": 100}, {"time": 65450, "pitch": 55, "duration": 55, "velocity": 100}, {"time": 65670, "pitch": 48, "duration": 165, "velocity": 100}, {"time": 65780, "pitch": 52, "duration": 55, "velocity": 100}, {"time": 66000, "pitch": 52, "duration": 110, "velocity": 100}, {"time": 66220, "pitch": 48, "duration": 110, "velocity": 100}, {"time": 66440, "pitch": 48, "duration": 165, "velocity": 100}, {"time": 66660, "pitch": 52, "duration": 110, "velocity": 100}, {"time": 66770, "pitch": 48, "duration": 55, "velocity": 100}, {"time": 66880, "pitch": 39, "duration": 220, "velocity": 100}, {"time": 66990, "pitch": 46, "duration": 110, "velocity": 100}, {"time": 67100, "pitch": 46, "duration": 55, "velocity": 100}, {"time": 67430, "pitch": 46, "duration": 220, "velocity": 100}, {"time": 67540, "pitch": 58, "duration": 110, "velocity": 100}, {"time": 67760, "pitch": 51, "duration": 165, "velocity": 100}, {"time": 67870, "pitch": 51, "duration": 220, "velocity": 100}, {"time": 68090, "pitch": 58, "duration": 110, "velocity": 100}, {"time": 68310, "pitch": 51, "duration": 165, "velocity": 100}, {"time": 68420, "pitch": 55, "duration": 165, "velocity": 100}, {"time": 68420, "pitch": 58, "duration": 110, "velocity": 100}, {"time": 68750, "pitch": 51, "duration": 165, "velocity": 100}, {"time": 68860, "pitch": 58, "duration": 110, "velocity": 100}, {"time": 68970, "pitch": 55, "duration": 110, "velocity": 100}, {"time": 69190, "pitch": 51, "duration": 165, "velocity": 100}, {"time": 69300, "pitch": 55, "duration": 55, "velocity": 100}, {"time": 69520, "pitch": 55, "duration": 220, "velocity": 100}, {"time": 69740, "pitch": 51, "duration": 110, "velocity": 100}, {"time": 69960, "pitch": 51, "duration": 55, "velocity": 100}, {"time": 70180, "pitch": 58, "duration": 110, "velocity": 100}, {"time": 70290, "pitch": 51, "duration": 55, "velocity": 100}, {"time": 70510, "pitch": 51, "duration": 110, "velocity": 100}, {"time": 70620, "pitch": 52, "duration": 220, "velocity": 100}, {"time": 70730, "pitch": 49, "duration": 110, "velocity": 100}, {"time": 70950, "pitch": 52, "duration": 55, "velocity": 100}, {"time": 71060, "pitch": 52, "duration": 55, "velocity": 100}, {"time": 71060, "pitch": 56, "duration": 110, "velocity": 100}, {"time": 71170, "pitch": 52, "duration": 55, "velocity": 100}, {"time": 71280, "pitch": 49, "duration": 220, "velocity": 100}, {"time": 71390, "pitch": 44, "duration": 605, "velocity": 100}, {"time": 71610, "pitch": 52, "duration": 55, "velocity": 100}, {"time": 71720, "pitch": 52, "duration": 55, "velocity": 100}, {"time": 71830, "pitch": 64, "duration": 110, "velocity": 100}, {"time": 71940, "pitch": 52, "duration": 55, "velocity": 100}, {"time": 71940, "pitch": 56, "duration": 110, "velocity": 100}, {"time": 72050, "pitch": 49, "duration": 55, "velocity": 100}, {"time": 72380, "pitch": 52, "duration": 165, "velocity": 100}, {"time": 72490, "pitch": 49, "duration": 55, "velocity": 100}, {"time": 72600, "pitch": 52, "duration": 55, "velocity": 100}, {"time": 72600, "pitch": 56, "duration": 110, "velocity": 100}, {"time": 72710, "pitch": 49, "duration": 110, "velocity": 100}, {"time": 72820, "pitch": 52, "duration": 55, "velocity": 100}, {"time": 72820, "pitch": 56, "duration": 55, "velocity": 100}, {"time": 72930, "pitch": 49, "duration": 55, "velocity": 100}, {"time": 73040, "pitch": 49, "duration": 55, "velocity": 100}, {"time": 73150, "pitch": 49, "duration": 110, "velocity": 100}, {"time": 73370, "pitch": 52, "duration": 110, "velocity": 100}, {"time": 73700, "pitch": 49, "duration": 55, "velocity": 100}, {"time": 73700, "pitch": 52, "duration": 110, "velocity": 100}, {"time": 73810, "pitch": 49, "duration": 55, "velocity": 100}, {"time": 73920, "pitch": 49, "duration": 220, "velocity": 100}, {"time": 74250, "pitch": 49, "duration": 110, "velocity": 100}, {"time": 74360, "pitch": 52, "duration": 110, "velocity": 100}, {"time": 74580, "pitch": 52, "duration": 110, "velocity": 100}, {"time": 74800, "pitch": 49, "duration": 220, "velocity": 100}, {"time": 75020, "pitch": 49, "duration": 110, "velocity": 100}, {"time": 75130, "pitch": 52, "duration": 110, "velocity": 100}, {"time": 75240, "pitch": 52, "duration": 165, "velocity": 100}, {"time": 75460, "pitch": 52, "duration": 55, "velocity": 100}, {"time": 75570, "pitch": 49, "duration": 55, "velocity": 100}, {"time": 75680, "pitch": 49, "duration": 165, "velocity": 100}, {"time": 75900, "pitch": 49, "duration": 165, "velocity": 100}, {"time": 75900, "pitch": 56, "duration": 110, "velocity": 100}, {"time": 76120, "pitch": 49, "duration": 165, "velocity": 100}, {"time": 76340, "pitch": 49, "duration": 55, "velocity": 100}, {"time": 76340, "pitch": 52, "duration": 110, "velocity": 100}, {"time": 76450, "pitch": 49, "duration": 55, "velocity": 100}, {"time": 76560, "pitch": 49, "duration": 110, "velocity": 100}, {"time": 76670, "pitch": 49, "duration": 110, "velocity": 100}, {"time": 76890, "pitch": 49, "duration": 110, "velocity": 100}, {"time": 77000, "pitch": 52, "duration": 110, "velocity": 100}, {"time": 77110, "pitch": 49, "duration": 55, "velocity": 100}, {"time": 77220, "pitch": 52, "duration": 110, "velocity": 100}, {"time": 77330, "pitch": 49, "duration": 55, "velocity": 100}, {"time": 77550, "pitch": 52, "duration": 110, "velocity": 100}, {"time": 77770, "pitch": 49, "duration": 110, "velocity": 100}, {"time": 77990, "pitch": 52, "duration": 55, "velocity": 100}, {"time": 78100, "pitch": 52, "duration": 55, "velocity": 100}, {"time": 78210, "pitch": 52, "duration": 55, "velocity": 100}, {"time": 78320, "pitch": 49, "duration": 220, "velocity": 100}, {"time": 78650, "pitch": 52, "duration": 55, "velocity": 100}, {"time": 78760, "pitch": 52, "duration": 55, "velocity": 100}, {"time": 78870, "pitch": 52, "duration": 55, "velocity": 100}, {"time": 78980, "pitch": 52, "duration": 110, "velocity": 100}, {"time": 79090, "pitch": 49, "duration": 55, "velocity": 100}, {"time": 79420, "pitch": 52, "duration": 165, "velocity": 100}, {"time": 79530, "pitch": 49, "duration": 55, "velocity": 100}, {"time": 79640, "pitch": 52, "duration": 55, "velocity": 100}, {"time": 79860, "pitch": 52, "duration": 55, "velocity": 100}, {"time": 80410, "pitch": 52, "duration": 110, "velocity": 100}, {"time": 80630, "pitch": 49, "duration": 110, "velocity": 100}, {"time": 80740, "pitch": 49, "duration": 55, "velocity": 100}, {"time": 80740, "pitch": 52, "duration": 110, "velocity": 100}, {"time": 80850, "pitch": 49, "duration": 55, "velocity": 100}, {"time": 80960, "pitch": 49, "duration": 165, "velocity": 100}, {"time": 81070, "pitch": 49, "duration": 110, "velocity": 100}, {"time": 81180, "pitch": 56, "duration": 55, "velocity": 100}, {"time": 81180, "pitch": 60, "duration": 110, "velocity": 100}, {"time": 81400, "pitch": 52, "duration": 220, "velocity": 100}, {"time": 81400, "pitch": 56, "duration": 220, "velocity": 100}, {"time": 81510, "pitch": 48, "duration": 220, "velocity": 100}, {"time": 81620, "pitch": 60, "duration": 110, "velocity": 100}, {"time": 81840, "pitch": 48, "duration": 385, "velocity": 100}, {"time": 81950, "pitch": 52, "duration": 220, "velocity": 100}, {"time": 82170, "pitch": 60, "duration": 110, "velocity": 100}, {"time": 82390, "pitch": 52, "duration": 165, "velocity": 100}, {"time": 82830, "pitch": 52, "duration": 165, "velocity": 100}, {"time": 83160, "pitch": 48, "duration": 275, "velocity": 100}, {"time": 83270, "pitch": 55, "duration": 165, "velocity": 100}, {"time": 84150, "pitch": 52, "duration": 165, "velocity": 100}, {"time": 84370, "pitch": 56, "duration": 55, "velocity": 100}, {"time": 84590, "pitch": 51, "duration": 110, "velocity": 100}, {"time": 84810, "pitch": 54, "duration": 55, "velocity": 100}, {"time": 85030, "pitch": 48, "duration": 220, "velocity": 100}, {"time": 85140, "pitch": 60, "duration": 110, "velocity": 100}, {"time": 85140, "pitch": 68, "duration": 165, "velocity": 100}, {"time": 85360, "pitch": 56, "duration": 220, "velocity": 100}, {"time": 85360, "pitch": 60, "duration": 220, "velocity": 100}, {"time": 85580, "pitch": 64, "duration": 110, "velocity": 100}, {"time": 85690, "pitch": 60, "duration": 110, "velocity": 100}, {"time": 85910, "pitch": 52, "duration": 165, "velocity": 100}, {"time": 86240, "pitch": 44, "duration": 275, "velocity": 100}, {"time": 86350, "pitch": 52, "duration": 165, "velocity": 100}, {"time": 86570, "pitch": 56, "duration": 110, "velocity": 100}, {"time": 86680, "pitch": 48, "duration": 275, "velocity": 100}, {"time": 86790, "pitch": 52, "duration": 165, "velocity": 100}, {"time": 87230, "pitch": 48, "duration": 275, "velocity": 100}, {"time": 87340, "pitch": 52, "duration": 110, "velocity": 100}]}, {"program": 71, "is_drum": false, "name": "Bass", "notes": [{"time": 0, "pitch": 44, "duration": 220, "velocity": 100}, {"time": 110, "pitch": 51, "duration": 110, "velocity": 100}, {"time": 220, "pitch": 52, "duration": 55, "velocity": 100}, {"time": 330, "pitch": 54, "duration": 55, "velocity": 100}, {"time": 440, "pitch": 40, "duration": 330, "velocity": 100}, {"time": 550, "pitch": 48, "duration": 220, "velocity": 100}, {"time": 880, "pitch": 48, "duration": 330, "velocity": 100}, {"time": 990, "pitch": 52, "duration": 220, "velocity": 100}, {"time": 1210, "pitch": 60, "duration": 110, "velocity": 100}, {"time": 1320, "pitch": 48, "duration": 275, "velocity": 100}, {"time": 1430, "pitch": 52, "duration": 165, "velocity": 100}, {"time": 1540, "pitch": 56, "duration": 55, "velocity": 100}, {"time": 1760, "pitch": 44, "duration": 275, "velocity": 100}, {"time": 1870, "pitch": 52, "duration": 165, "velocity": 100}, {"time": 2200, "pitch": 44, "duration": 275, "velocity": 100}, {"time": 2310, "pitch": 52, "duration": 165, "velocity": 100}, {"time": 2640, "pitch": 40, "duration": 330, "velocity": 100}, {"time": 2750, "pitch": 48, "duration": 220, "velocity": 100}, {"time": 2860, "pitch": 52, "duration": 110, "velocity": 100}, {"time": 3080, "pitch": 40, "duration": 330, "velocity": 100}, {"time": 3190, "pitch": 48, "duration": 165, "velocity": 100}, {"time": 3300, "pitch": 56, "duration": 110, "velocity": 100}, {"time": 3410, "pitch": 56, "duration": 55, "velocity": 100}, {"time": 3520, "pitch": 44, "duration": 220, "velocity": 100}, {"time": 3630, "pitch": 51, "duration": 110, "velocity": 100}, {"time": 3740, "pitch": 48, "duration": 55, "velocity": 100}, {"time": 3850, "pitch": 54, "duration": 55, "velocity": 100}, {"time": 3960, "pitch": 40, "duration": 330, "velocity": 100}, {"time": 4070, "pitch": 48, "duration": 220, "velocity": 100}, {"time": 4400, "pitch": 48, "duration": 275, "velocity": 100}, {"time": 4510, "pitch": 52, "duration": 220, "velocity": 100}, {"time": 4730, "pitch": 60, "duration": 110, "velocity": 100}, {"time": 4840, "pitch": 48, "duration": 275, "velocity": 100}, {"time": 4950, "pitch": 52, "duration": 165, "velocity": 100}, {"time": 5060, "pitch": 56, "duration": 55, "velocity": 100}, {"time": 5280, "pitch": 44, "duration": 275, "velocity": 100}, {"time": 5390, "pitch": 52, "duration": 165, "velocity": 100}, {"time": 5610, "pitch": 56, "duration": 110, "velocity": 100}, {"time": 5720, "pitch": 48, "duration": 275, "velocity": 100}, {"time": 5830, "pitch": 52, "duration": 165, "velocity": 100}, {"time": 6160, "pitch": 40, "duration": 330, "velocity": 100}, {"time": 6270, "pitch": 48, "duration": 275, "velocity": 100}, {"time": 6380, "pitch": 52, "duration": 110, "velocity": 100}, {"time": 6600, "pitch": 40, "duration": 275, "velocity": 100}, {"time": 6710, "pitch": 48, "duration": 165, "velocity": 100}, {"time": 6930, "pitch": 56, "duration": 55, "velocity": 100}, {"time": 7040, "pitch": 48, "duration": 275, "velocity": 100}, {"time": 7150, "pitch": 56, "duration": 165, "velocity": 100}, {"time": 7370, "pitch": 60, "duration": 55, "velocity": 100}, {"time": 7480, "pitch": 48, "duration": 275, "velocity": 100}, {"time": 7590, "pitch": 51, "duration": 165, "velocity": 100}, {"time": 7700, "pitch": 56, "duration": 55, "velocity": 100}, {"time": 7755, "pitch": 62, "duration": 165, "velocity": 100}, {"time": 7810, "pitch": 56, "duration": 55, "velocity": 100}, {"time": 7920, "pitch": 40, "duration": 715, "velocity": 100}, {"time": 8030, "pitch": 52, "duration": 165, "velocity": 100}, {"time": 8250, "pitch": 52, "duration": 165, "velocity": 100}, {"time": 8470, "pitch": 52, "duration": 220, "velocity": 100}, {"time": 8580, "pitch": 60, "duration": 110, "velocity": 100}, {"time": 8690, "pitch": 60, "duration": 110, "velocity": 100}, {"time": 8800, "pitch": 48, "duration": 440, "velocity": 100}, {"time": 8910, "pitch": 56, "duration": 110, "velocity": 100}, {"time": 9130, "pitch": 52, "duration": 165, "velocity": 100}, {"time": 9240, "pitch": 48, "duration": 385, "velocity": 100}, {"time": 9350, "pitch": 51, "duration": 275, "velocity": 100}, {"time": 9460, "pitch": 56, "duration": 55, "velocity": 100}, {"time": 9570, "pitch": 56, "duration": 110, "velocity": 100}, {"time": 9680, "pitch": 48, "duration": 110, "velocity": 100}, {"time": 9790, "pitch": 56, "duration": 110, "velocity": 100}, {"time": 9900, "pitch": 48, "duration": 220, "velocity": 100}, {"time": 10010, "pitch": 56, "duration": 110, "velocity": 100}, {"time": 10120, "pitch": 40, "duration": 220, "velocity": 100}, {"time": 10230, "pitch": 56, "duration": 275, "velocity": 100}, {"time": 10340, "pitch": 44, "duration": 220, "velocity": 100}, {"time": 10560, "pitch": 41, "duration": 275, "velocity": 100}, {"time": 10670, "pitch": 48, "duration": 165, "velocity": 100}, {"time": 10890, "pitch": 53, "duration": 55, "velocity": 100}, {"time": 11000, "pitch": 41, "duration": 275, "velocity": 100}, {"time": 11110, "pitch": 48, "duration": 165, "velocity": 100}, {"time": 11330, "pitch": 53, "duration": 55, "velocity": 100}, {"time": 11440, "pitch": 41, "duration": 715, "velocity": 100}, {"time": 11550, "pitch": 48, "duration": 165, "velocity": 100}, {"time": 11770, "pitch": 48, "duration": 165, "velocity": 100}, {"time": 11990, "pitch": 48, "duration": 220, "velocity": 100}, {"time": 12320, "pitch": 41, "duration": 385, "velocity": 100}, {"time": 12430, "pitch": 48, "duration": 110, "velocity": 100}, {"time": 12650, "pitch": 53, "duration": 165, "velocity": 100}, {"time": 12760, "pitch": 41, "duration": 385, "velocity": 100}, {"time": 12870, "pitch": 48, "duration": 275, "velocity": 100}, {"time": 13090, "pitch": 53, "duration": 110, "velocity": 100}, {"time": 13200, "pitch": 41, "duration": 715, "velocity": 100}, {"time": 13310, "pitch": 48, "duration": 165, "velocity": 100}, {"time": 13860, "pitch": 41, "duration": 110, "velocity": 100}, {"time": 13970, "pitch": 48, "duration": 110, "velocity": 100}, {"time": 14520, "pitch": 48, "duration": 275, "velocity": 100}, {"time": 14630, "pitch": 55, "duration": 165, "velocity": 100}, {"time": 14960, "pitch": 48, "duration": 825, "velocity": 100}, {"time": 15290, "pitch": 56, "duration": 165, "velocity": 100}, {"time": 15400, "pitch": 60, "duration": 220, "velocity": 100}, {"time": 15510, "pitch": 56, "duration": 220, "velocity": 100}, {"time": 15840, "pitch": 52, "duration": 440, "velocity": 100}, {"time": 16280, "pitch": 48, "duration": 385, "velocity": 100}, {"time": 16720, "pitch": 48, "duration": 275, "velocity": 100}, {"time": 17160, "pitch": 48, "duration": 330, "velocity": 100}, {"time": 17270, "pitch": 56, "duration": 165, "velocity": 100}, {"time": 17600, "pitch": 48, "duration": 220, "velocity": 100}, {"time": 17820, "pitch": 55, "duration": 55, "velocity": 100}, {"time": 18040, "pitch": 48, "duration": 330, "velocity": 100}, {"time": 18480, "pitch": 48, "duration": 330, "velocity": 100}, {"time": 19360, "pitch": 48, "duration": 330, "velocity": 100}, {"time": 19800, "pitch": 48, "duration": 275, "velocity": 100}, {"time": 20240, "pitch": 48, "duration": 330, "velocity": 100}, {"time": 20680, "pitch": 48, "duration": 330, "velocity": 100}, {"time": 21120, "pitch": 48, "duration": 220, "velocity": 100}, {"time": 21560, "pitch": 44, "duration": 330, "velocity": 100}, {"time": 21670, "pitch": 51, "duration": 220, "velocity": 100}, {"time": 22000, "pitch": 48, "duration": 330, "velocity": 100}, {"time": 22110, "pitch": 56, "duration": 220, "velocity": 100}, {"time": 22440, "pitch": 48, "duration": 275, "velocity": 100}, {"time": 22880, "pitch": 48, "duration": 275, "velocity": 100}, {"time": 23320, "pitch": 48, "duration": 275, "velocity": 100}, {"time": 23760, "pitch": 44, "duration": 330, "velocity": 100}, {"time": 24200, "pitch": 44, "duration": 275, "velocity": 100}, {"time": 24310, "pitch": 52, "duration": 165, "velocity": 100}, {"time": 24640, "pitch": 36, "duration": 330, "velocity": 100}, {"time": 24750, "pitch": 48, "duration": 110, "velocity": 100}, {"time": 25080, "pitch": 36, "duration": 275, "velocity": 100}, {"time": 25190, "pitch": 48, "duration": 110, "velocity": 100}, {"time": 25410, "pitch": 52, "duration": 55, "velocity": 100}, {"time": 25520, "pitch": 36, "duration": 275, "velocity": 100}, {"time": 25960, "pitch": 36, "duration": 275, "velocity": 100}, {"time": 26290, "pitch": 43, "duration": 55, "velocity": 100}, {"time": 26400, "pitch": 36, "duration": 385, "velocity": 100}, {"time": 26840, "pitch": 36, "duration": 275, "velocity": 100}, {"time": 26950, "pitch": 52, "duration": 55, "velocity": 100}, {"time": 27170, "pitch": 36, "duration": 55, "velocity": 100}, {"time": 27720, "pitch": 48, "duration": 385, "velocity": 100}, {"time": 27830, "pitch": 52, "duration": 55, "velocity": 100}, {"time": 28160, "pitch": 36, "duration": 275, "velocity": 100}, {"time": 28270, "pitch": 43, "duration": 110, "velocity": 100}, {"time": 28600, "pitch": 39, "duration": 275, "velocity": 100}, {"time": 28710, "pitch": 46, "duration": 110, "velocity": 100}, {"time": 28930, "pitch": 46, "duration": 55, "velocity": 100}, {"time": 29040, "pitch": 39, "duration": 275, "velocity": 100}, {"time": 29480, "pitch": 39, "duration": 275, "velocity": 100}, {"time": 29810, "pitch": 39, "duration": 55, "velocity": 100}, {"time": 30250, "pitch": 39, "duration": 55, "velocity": 100}, {"time": 30360, "pitch": 39, "duration": 275, "velocity": 100}, {"time": 30470, "pitch": 46, "duration": 165, "velocity": 100}, {"time": 30690, "pitch": 39, "duration": 55, "velocity": 100}, {"time": 30800, "pitch": 39, "duration": 275, "velocity": 100}, {"time": 31240, "pitch": 39, "duration": 275, "velocity": 100}, {"time": 31350, "pitch": 51, "duration": 55, "velocity": 100}, {"time": 31680, "pitch": 40, "duration": 330, "velocity": 100}, {"time": 31790, "pitch": 48, "duration": 110, "velocity": 100}, {"time": 32120, "pitch": 40, "duration": 275, "velocity": 100}, {"time": 32560, "pitch": 40, "duration": 275, "velocity": 100}, {"time": 33000, "pitch": 44, "duration": 275, "velocity": 100}, {"time": 33110, "pitch": 52, "duration": 110, "velocity": 100}, {"time": 33330, "pitch": 44, "duration": 55, "velocity": 100}, {"time": 33440, "pitch": 40, "duration": 385, "velocity": 100}, {"time": 33550, "pitch": 48, "duration": 165, "velocity": 100}, {"time": 33880, "pitch": 36, "duration": 275, "velocity": 100}, {"time": 34210, "pitch": 40, "duration": 55, "velocity": 100}, {"time": 34760, "pitch": 48, "duration": 385, "velocity": 100}, {"time": 35200, "pitch": 37, "duration": 275, "velocity": 100}, {"time": 35310, "pitch": 44, "duration": 110, "velocity": 100}, {"time": 35640, "pitch": 37, "duration": 275, "velocity": 100}, {"time": 35750, "pitch": 44, "duration": 110, "velocity": 100}, {"time": 36080, "pitch": 37, "duration": 220, "velocity": 100}, {"time": 36520, "pitch": 37, "duration": 275, "velocity": 100}, {"time": 36850, "pitch": 44, "duration": 55, "velocity": 100}, {"time": 36960, "pitch": 37, "duration": 275, "velocity": 100}, {"time": 37070, "pitch": 44, "duration": 110, "velocity": 100}, {"time": 37290, "pitch": 44, "duration": 55, "velocity": 100}, {"time": 37400, "pitch": 37, "duration": 275, "velocity": 100}, {"time": 37730, "pitch": 37, "duration": 55, "velocity": 100}, {"time": 38280, "pitch": 44, "duration": 275, "velocity": 100}, {"time": 38500, "pitch": 52, "duration": 55, "velocity": 100}, {"time": 38555, "pitch": 49, "duration": 55, "velocity": 100}, {"time": 38720, "pitch": 37, "duration": 330, "velocity": 100}, {"time": 38830, "pitch": 44, "duration": 110, "velocity": 100}, {"time": 39160, "pitch": 36, "duration": 275, "velocity": 100}, {"time": 39270, "pitch": 44, "duration": 110, "velocity": 100}, {"time": 39600, "pitch": 36, "duration": 275, "velocity": 100}, {"time": 39710, "pitch": 44, "duration": 110, "velocity": 100}, {"time": 39930, "pitch": 48, "duration": 55, "velocity": 100}, {"time": 40040, "pitch": 36, "duration": 275, "velocity": 100}, {"time": 40370, "pitch": 40, "duration": 55, "velocity": 100}, {"time": 40480, "pitch": 36, "duration": 385, "velocity": 100}, {"time": 40590, "pitch": 48, "duration": 165, "velocity": 100}, {"time": 40920, "pitch": 36, "duration": 275, "velocity": 100}, {"time": 41030, "pitch": 48, "duration": 55, "velocity": 100}, {"time": 41140, "pitch": 48, "duration": 55, "velocity": 100}, {"time": 41250, "pitch": 40, "duration": 55, "velocity": 100}, {"time": 41800, "pitch": 44, "duration": 275, "velocity": 100}, {"time": 41910, "pitch": 48, "duration": 165, "velocity": 100}, {"time": 42130, "pitch": 44, "duration": 55, "velocity": 100}, {"time": 42240, "pitch": 40, "duration": 330, "velocity": 100}, {"time": 42350, "pitch": 48, "duration": 110, "velocity": 100}, {"time": 42680, "pitch": 41, "duration": 275, "velocity": 100}, {"time": 43120, "pitch": 41, "duration": 275, "velocity": 100}, {"time": 43230, "pitch": 48, "duration": 110, "velocity": 100}, {"time": 43560, "pitch": 41, "duration": 275, "velocity": 100}, {"time": 43890, "pitch": 41, "duration": 55, "velocity": 100}, {"time": 44000, "pitch": 41, "duration": 385, "velocity": 100}, {"time": 44440, "pitch": 41, "duration": 275, "velocity": 100}, {"time": 44770, "pitch": 41, "duration": 55, "velocity": 100}, {"time": 44880, "pitch": 48, "duration": 385, "velocity": 100}, {"time": 45320, "pitch": 48, "duration": 385, "velocity": 100}, {"time": 45430, "pitch": 53, "duration": 55, "velocity": 100}, {"time": 45760, "pitch": 37, "duration": 275, "velocity": 100}, {"time": 45870, "pitch": 44, "duration": 110, "velocity": 100}, {"time": 46200, "pitch": 37, "duration": 275, "velocity": 100}, {"time": 46310, "pitch": 44, "duration": 110, "velocity": 100}, {"time": 46640, "pitch": 37, "duration": 220, "velocity": 100}, {"time": 47080, "pitch": 37, "duration": 275, "velocity": 100}, {"time": 47410, "pitch": 44, "duration": 55, "velocity": 100}, {"time": 47520, "pitch": 37, "duration": 275, "velocity": 100}, {"time": 47850, "pitch": 44, "duration": 55, "velocity": 100}, {"time": 47960, "pitch": 37, "duration": 275, "velocity": 100}, {"time": 48070, "pitch": 49, "duration": 165, "velocity": 100}, {"time": 48290, "pitch": 37, "duration": 55, "velocity": 100}, {"time": 48510, "pitch": 52, "duration": 55, "velocity": 100}, {"time": 48730, "pitch": 49, "duration": 55, "velocity": 100}, {"time": 48840, "pitch": 44, "duration": 275, "velocity": 100}, {"time": 48950, "pitch": 56, "duration": 55, "velocity": 100}, {"time": 49060, "pitch": 52, "duration": 55, "velocity": 100}, {"time": 49115, "pitch": 49, "duration": 55, "velocity": 100}, {"time": 49280, "pitch": 37, "duration": 330, "velocity": 100}, {"time": 49390, "pitch": 48, "duration": 110, "velocity": 100}, {"time": 49720, "pitch": 36, "duration": 275, "velocity": 100}, {"time": 50160, "pitch": 36, "duration": 275, "velocity": 100}, {"time": 50930, "pitch": 43, "duration": 55, "velocity": 100}, {"time": 51480, "pitch": 36, "duration": 275, "velocity": 100}, {"time": 51810, "pitch": 36, "duration": 55, "velocity": 100}, {"time": 52360, "pitch": 48, "duration": 385, "velocity": 100}, {"time": 52470, "pitch": 52, "duration": 55, "velocity": 100}, {"time": 52800, "pitch": 39, "duration": 275, "velocity": 100}, {"time": 53350, "pitch": 46, "duration": 110, "velocity": 100}, {"time": 54120, "pitch": 39, "duration": 275, "velocity": 100}, {"time": 54450, "pitch": 39, "duration": 55, "velocity": 100}, {"time": 54890, "pitch": 39, "duration": 55, "velocity": 100}, {"time": 55000, "pitch": 39, "duration": 275, "velocity": 100}, {"time": 55110, "pitch": 46, "duration": 165, "velocity": 100}, {"time": 55330, "pitch": 39, "duration": 55, "velocity": 100}, {"time": 55440, "pitch": 39, "duration": 275, "velocity": 100}, {"time": 55770, "pitch": 46, "duration": 55, "velocity": 100}, {"time": 55880, "pitch": 39, "duration": 275, "velocity": 100}, {"time": 55990, "pitch": 51, "duration": 55, "velocity": 100}, {"time": 56100, "pitch": 51, "duration": 55, "velocity": 100}, {"time": 56155, "pitch": 46, "duration": 165, "velocity": 100}, {"time": 56320, "pitch": 39, "duration": 330, "velocity": 100}, {"time": 56430, "pitch": 51, "duration": 110, "velocity": 100}, {"time": 56760, "pitch": 41, "duration": 275, "velocity": 100}, {"time": 57200, "pitch": 41, "duration": 275, "velocity": 100}, {"time": 57310, "pitch": 48, "duration": 110, "velocity": 100}, {"time": 57640, "pitch": 41, "duration": 275, "velocity": 100}, {"time": 57970, "pitch": 41, "duration": 55, "velocity": 100}, {"time": 58080, "pitch": 41, "duration": 385, "velocity": 100}, {"time": 58190, "pitch": 48, "duration": 165, "velocity": 100}, {"time": 58520, "pitch": 41, "duration": 275, "velocity": 100}, {"time": 58630, "pitch": 53, "duration": 55, "velocity": 100}, {"time": 58740, "pitch": 53, "duration": 55, "velocity": 100}, {"time": 58850, "pitch": 41, "duration": 55, "velocity": 100}, {"time": 58960, "pitch": 41, "duration": 385, "velocity": 100}, {"time": 59290, "pitch": 53, "duration": 110, "velocity": 100}, {"time": 59510, "pitch": 53, "duration": 165, "velocity": 100}, {"time": 59730, "pitch": 48, "duration": 55, "velocity": 100}, {"time": 59840, "pitch": 51, "duration": 55, "velocity": 100}, {"time": 59950, "pitch": 46, "duration": 110, "velocity": 100}, {"time": 60115, "pitch": 46, "duration": 55, "velocity": 100}, {"time": 60280, "pitch": 39, "duration": 330, "velocity": 100}, {"time": 60720, "pitch": 39, "duration": 275, "velocity": 100}, {"time": 61160, "pitch": 51, "duration": 275, "velocity": 100}, {"time": 61600, "pitch": 43, "duration": 275, "velocity": 100}, {"time": 61710, "pitch": 51, "duration": 165, "velocity": 100}, {"time": 62040, "pitch": 39, "duration": 275, "velocity": 100}, {"time": 62150, "pitch": 51, "duration": 220, "velocity": 100}, {"time": 62480, "pitch": 39, "duration": 275, "velocity": 100}, {"time": 62590, "pitch": 46, "duration": 165, "velocity": 100}, {"time": 62920, "pitch": 46, "duration": 275, "velocity": 100}, {"time": 63360, "pitch": 39, "duration": 220, "velocity": 100}, {"time": 63470, "pitch": 46, "duration": 110, "velocity": 100}, {"time": 63580, "pitch": 48, "duration": 110, "velocity": 100}, {"time": 63690, "pitch": 48, "duration": 55, "velocity": 100}, {"time": 63800, "pitch": 36, "duration": 275, "velocity": 100}, {"time": 63910, "pitch": 43, "duration": 220, "velocity": 100}, {"time": 64240, "pitch": 36, "duration": 385, "velocity": 100}, {"time": 64680, "pitch": 43, "duration": 275, "velocity": 100}, {"time": 64790, "pitch": 48, "duration": 165, "velocity": 100}, {"time": 65120, "pitch": 36, "duration": 330, "velocity": 100}, {"time": 65560, "pitch": 36, "duration": 275, "velocity": 100}, {"time": 66000, "pitch": 36, "duration": 330, "velocity": 100}, {"time": 66110, "pitch": 43, "duration": 220, "velocity": 100}, {"time": 66440, "pitch": 36, "duration": 330, "velocity": 100}, {"time": 66550, "pitch": 43, "duration": 165, "velocity": 100}, {"time": 67320, "pitch": 39, "duration": 330, "velocity": 100}, {"time": 67760, "pitch": 39, "duration": 385, "velocity": 100}, {"time": 68200, "pitch": 46, "duration": 275, "velocity": 100}, {"time": 68640, "pitch": 39, "duration": 275, "velocity": 100}, {"time": 69080, "pitch": 39, "duration": 275, "velocity": 100}, {"time": 69520, "pitch": 39, "duration": 385, "velocity": 100}, {"time": 69630, "pitch": 46, "duration": 275, "velocity": 100}, {"time": 69960, "pitch": 39, "duration": 275, "velocity": 100}, {"time": 70070, "pitch": 46, "duration": 165, "velocity": 100}, {"time": 70400, "pitch": 37, "duration": 715, "velocity": 100}, {"time": 70510, "pitch": 44, "duration": 605, "velocity": 100}, {"time": 71280, "pitch": 37, "duration": 715, "velocity": 100}, {"time": 71830, "pitch": 52, "duration": 55, "velocity": 100}, {"time": 72160, "pitch": 37, "duration": 715, "velocity": 100}, {"time": 72270, "pitch": 44, "duration": 605, "velocity": 100}, {"time": 73040, "pitch": 37, "duration": 385, "velocity": 100}, {"time": 73590, "pitch": 49, "duration": 110, "velocity": 100}, {"time": 73920, "pitch": 37, "duration": 825, "velocity": 100}, {"time": 74030, "pitch": 44, "duration": 605, "velocity": 100}, {"time": 74470, "pitch": 49, "duration": 110, "velocity": 100}, {"time": 74690, "pitch": 49, "duration": 110, "velocity": 100}, {"time": 74800, "pitch": 37, "duration": 825, "velocity": 100}, {"time": 74910, "pitch": 44, "duration": 770, "velocity": 100}, {"time": 75460, "pitch": 49, "duration": 55, "velocity": 100}, {"time": 75680, "pitch": 37, "duration": 880, "velocity": 100}, {"time": 75790, "pitch": 44, "duration": 165, "velocity": 100}, {"time": 76010, "pitch": 44, "duration": 165, "velocity": 100}, {"time": 76230, "pitch": 44, "duration": 275, "velocity": 100}, {"time": 76560, "pitch": 37, "duration": 385, "velocity": 100}, {"time": 77000, "pitch": 37, "duration": 330, "velocity": 100}, {"time": 77220, "pitch": 49, "duration": 55, "velocity": 100}, {"time": 77440, "pitch": 37, "duration": 715, "velocity": 100}, {"time": 77550, "pitch": 44, "duration": 495, "velocity": 100}, {"time": 78320, "pitch": 37, "duration": 715, "velocity": 100}, {"time": 78430, "pitch": 44, "duration": 605, "velocity": 100}, {"time": 79200, "pitch": 37, "duration": 715, "velocity": 100}, {"time": 79310, "pitch": 44, "duration": 605, "velocity": 100}, {"time": 79750, "pitch": 49, "duration": 110, "velocity": 100}, {"time": 79970, "pitch": 49, "duration": 55, "velocity": 100}, {"time": 80080, "pitch": 37, "duration": 385, "velocity": 100}, {"time": 80190, "pitch": 49, "duration": 110, "velocity": 100}, {"time": 81180, "pitch": 52, "duration": 55, "velocity": 100}, {"time": 81290, "pitch": 56, "duration": 55, "velocity": 100}, {"time": 81400, "pitch": 40, "duration": 330, "velocity": 100}, {"time": 82280, "pitch": 48, "duration": 275, "velocity": 100}, {"time": 82720, "pitch": 44, "duration": 330, "velocity": 100}, {"time": 83600, "pitch": 40, "duration": 330, "velocity": 100}, {"time": 83710, "pitch": 48, "duration": 220, "velocity": 100}, {"time": 84040, "pitch": 40, "duration": 275, "velocity": 100}, {"time": 84480, "pitch": 44, "duration": 220, "velocity": 100}, {"time": 84700, "pitch": 48, "duration": 55, "velocity": 100}, {"time": 84920, "pitch": 40, "duration": 330, "velocity": 100}, {"time": 85360, "pitch": 48, "duration": 275, "velocity": 100}, {"time": 85470, "pitch": 52, "duration": 220, "velocity": 100}, {"time": 85800, "pitch": 48, "duration": 275, "velocity": 100}, {"time": 87120, "pitch": 40, "duration": 330, "velocity": 100}, {"time": 87560, "pitch": 40, "duration": 275, "velocity": 100}]}]}