{"metadata": {"schema_version": "0.1", "title": "None", "source_filename": "20211210_094006.mid", "source_format": "midi"}, "resolution": 220, "tempos": [{"time": 0, "qpm": 120.0}], "time_signatures": [{"time": 0, "numerator": 4, "denominator": 4}], "tracks": [{"program": 80, "is_drum": false, "name": "Pulse 1", "notes": [{"time": 0, "pitch": 58, "duration": 220, "velocity": 100}, {"time": 220, "pitch": 62, "duration": 385, "velocity": 100}, {"time": 440, "pitch": 58, "duration": 220, "velocity": 100}, {"time": 660, "pitch": 62, "duration": 220, "velocity": 100}, {"time": 770, "pitch": 58, "duration": 110, "velocity": 100}, {"time": 880, "pitch": 56, "duration": 220, "velocity": 100}, {"time": 1100, "pitch": 65, "duration": 220, "velocity": 100}, {"time": 1540, "pitch": 62, "duration": 220, "velocity": 100}, {"time": 1650, "pitch": 58, "duration": 110, "velocity": 100}, {"time": 1760, "pitch": 58, "duration": 110, "velocity": 100}, {"time": 1925, "pitch": 58, "duration": 55, "velocity": 100}, {"time": 1980, "pitch": 62, "duration": 220, "velocity": 100}, {"time": 2420, "pitch": 58, "duration": 220, "velocity": 100}, {"time": 2420, "pitch": 62, "duration": 220, "velocity": 100}, {"time": 2530, "pitch": 60, "duration": 110, "velocity": 100}, {"time": 2640, "pitch": 63, "duration": 220, "velocity": 100}, {"time": 2860, "pitch": 60, "duration": 385, "velocity": 100}, {"time": 2860, "pitch": 63, "duration": 220, "velocity": 100}, {"time": 3080, "pitch": 63, "duration": 220, "velocity": 100}, {"time": 3300, "pitch": 58, "duration": 110, "velocity": 100}, {"time": 3300, "pitch": 62, "duration": 220, "velocity": 100}, {"time": 3300, "pitch": 63, "duration": 220, "velocity": 100}, {"time": 3520, "pitch": 61, "duration": 220, "velocity": 100}, {"time": 3685, "pitch": 62, "duration": 55, "velocity": 100}, {"time": 3740, "pitch": 66, "duration": 110, "velocity": 100}, {"time": 3740, "pitch": 71, "duration": 385, "velocity": 100}, {"time": 3850, "pitch": 62, "duration": 275, "velocity": 100}, {"time": 3905, "pitch": 66, "duration": 55, "velocity": 100}, {"time": 4125, "pitch": 62, "duration": 55, "velocity": 100}, {"time": 4180, "pitch": 66, "duration": 110, "velocity": 100}, {"time": 4180, "pitch": 71, "duration": 220, "velocity": 100}, {"time": 4290, "pitch": 62, "duration": 110, "velocity": 100}, {"time": 4345, "pitch": 66, "duration": 55, "velocity": 100}, {"time": 4565, "pitch": 62, "duration": 55, "velocity": 100}, {"time": 4620, "pitch": 66, "duration": 220, "velocity": 100}, {"time": 4620, "pitch": 71, "duration": 220, "velocity": 100}, {"time": 4785, "pitch": 66, "duration": 55, "velocity": 100}, {"time": 4950, "pitch": 62, "duration": 165, "velocity": 100}, {"time": 4950, "pitch": 71, "duration": 55, "velocity": 100}, {"time": 4950, "pitch": 83, "duration": 55, "velocity": 100}, {"time": 5005, "pitch": 71, "duration": 55, "velocity": 100}, {"time": 5060, "pitch": 71, "duration": 220, "velocity": 100}, {"time": 5060, "pitch": 78, "duration": 55, "velocity": 100}, {"time": 5115, "pitch": 74, "duration": 55, "velocity": 100}, {"time": 5225, "pitch": 66, "duration": 55, "velocity": 100}, {"time": 5280, "pitch": 74, "duration": 220, "velocity": 100}, {"time": 5445, "pitch": 66, "duration": 55, "velocity": 100}, {"time": 5500, "pitch": 71, "duration": 110, "velocity": 100}, {"time": 5610, "pitch": 66, "duration": 110, "velocity": 100}, {"time": 5830, "pitch": 66, "duration": 110, "velocity": 100}, {"time": 5885, "pitch": 66, "duration": 110, "velocity": 100}, {"time": 5940, "pitch": 71, "duration": 220, "velocity": 100}, {"time": 6105, "pitch": 66, "duration": 55, "velocity": 100}, {"time": 6325, "pitch": 66, "duration": 55, "velocity": 100}, {"time": 6380, "pitch": 71, "duration": 110, "velocity": 100}, {"time": 6380, "pitch": 73, "duration": 55, "velocity": 100}, {"time": 6435, "pitch": 69, "duration": 55, "velocity": 100}, {"time": 6490, "pitch": 69, "duration": 55, "velocity": 100}, {"time": 6655, "pitch": 71, "duration": 55, "velocity": 100}, {"time": 6710, "pitch": 71, "duration": 55, "velocity": 100}, {"time": 6765, "pitch": 74, "duration": 55, "velocity": 100}, {"time": 6820, "pitch": 66, "duration": 220, "velocity": 100}, {"time": 6820, "pitch": 71, "duration": 110, "velocity": 100}, {"time": 6820, "pitch": 76, "duration": 55, "velocity": 100}, {"time": 6875, "pitch": 74, "duration": 55, "velocity": 100}, {"time": 6930, "pitch": 78, "duration": 55, "velocity": 100}, {"time": 6985, "pitch": 78, "duration": 55, "velocity": 100}, {"time": 7040, "pitch": 74, "duration": 440, "velocity": 100}, {"time": 7260, "pitch": 62, "duration": 275, "velocity": 100}, {"time": 7700, "pitch": 62, "duration": 220, "velocity": 100}, {"time": 7810, "pitch": 61, "duration": 110, "velocity": 100}, {"time": 8140, "pitch": 66, "duration": 220, "velocity": 100}, {"time": 8250, "pitch": 62, "duration": 55, "velocity": 100}, {"time": 8580, "pitch": 62, "duration": 220, "velocity": 100}, {"time": 9020, "pitch": 65, "duration": 165, "velocity": 100}, {"time": 9130, "pitch": 62, "duration": 110, "velocity": 100}, {"time": 9460, "pitch": 66, "duration": 220, "velocity": 100}, {"time": 9570, "pitch": 62, "duration": 110, "velocity": 100}, {"time": 9735, "pitch": 70, "duration": 55, "velocity": 100}, {"time": 9790, "pitch": 74, "duration": 55, "velocity": 100}, {"time": 9845, "pitch": 73, "duration": 55, "velocity": 100}, {"time": 9900, "pitch": 70, "duration": 55, "velocity": 100}, {"time": 9900, "pitch": 74, "duration": 55, "velocity": 100}, {"time": 9955, "pitch": 70, "duration": 55, "velocity": 100}, {"time": 9955, "pitch": 74, "duration": 55, "velocity": 100}, {"time": 10065, "pitch": 69, "duration": 55, "velocity": 100}, {"time": 10065, "pitch": 72, "duration": 55, "velocity": 100}, {"time": 10120, "pitch": 70, "duration": 55, "velocity": 100}, {"time": 10120, "pitch": 71, "duration": 55, "velocity": 100}, {"time": 10175, "pitch": 66, "duration": 55, "velocity": 100}, {"time": 10175, "pitch": 70, "duration": 55, "velocity": 100}, {"time": 10285, "pitch": 66, "duration": 55, "velocity": 100}, {"time": 10285, "pitch": 70, "duration": 55, "velocity": 100}, {"time": 10340, "pitch": 66, "duration": 55, "velocity": 100}, {"time": 10340, "pitch": 69, "duration": 55, "velocity": 100}, {"time": 10395, "pitch": 66, "duration": 55, "velocity": 100}, {"time": 10450, "pitch": 67, "duration": 55, "velocity": 100}, {"time": 10505, "pitch": 69, "duration": 55, "velocity": 100}]}, {"program": 81, "is_drum": false, "name": "Pulse 2", "notes": [{"time": 220, "pitch": 58, "duration": 220, "velocity": 100}, {"time": 330, "pitch": 58, "duration": 275, "velocity": 100}, {"time": 660, "pitch": 58, "duration": 220, "velocity": 100}, {"time": 1210, "pitch": 58, "duration": 55, "velocity": 100}, {"time": 1265, "pitch": 58, "duration": 55, "velocity": 100}, {"time": 1320, "pitch": 54, "duration": 220, "velocity": 100}, {"time": 2090, "pitch": 58, "duration": 110, "velocity": 100}, {"time": 2200, "pitch": 54, "duration": 220, "velocity": 100}, {"time": 3025, "pitch": 58, "duration": 165, "velocity": 100}, {"time": 3465, "pitch": 58, "duration": 55, "velocity": 100}, {"time": 3740, "pitch": 59, "duration": 220, "velocity": 100}, {"time": 3960, "pitch": 59, "duration": 220, "velocity": 100}, {"time": 4400, "pitch": 56, "duration": 220, "velocity": 100}, {"time": 4730, "pitch": 59, "duration": 110, "velocity": 100}, {"time": 4840, "pitch": 58, "duration": 220, "velocity": 100}, {"time": 4895, "pitch": 59, "duration": 165, "velocity": 100}, {"time": 5005, "pitch": 66, "duration": 55, "velocity": 100}, {"time": 5115, "pitch": 66, "duration": 55, "velocity": 100}, {"time": 5280, "pitch": 58, "duration": 220, "velocity": 100}, {"time": 5390, "pitch": 62, "duration": 165, "velocity": 100}, {"time": 5665, "pitch": 62, "duration": 55, "velocity": 100}, {"time": 5775, "pitch": 62, "duration": 55, "velocity": 100}, {"time": 5995, "pitch": 66, "duration": 55, "velocity": 100}, {"time": 6160, "pitch": 59, "duration": 220, "velocity": 100}, {"time": 6270, "pitch": 59, "duration": 110, "velocity": 100}, {"time": 6325, "pitch": 62, "duration": 55, "velocity": 100}, {"time": 6490, "pitch": 66, "duration": 330, "velocity": 100}, {"time": 6600, "pitch": 58, "duration": 220, "velocity": 100}, {"time": 6930, "pitch": 66, "duration": 110, "velocity": 100}, {"time": 7370, "pitch": 61, "duration": 275, "velocity": 100}, {"time": 8085, "pitch": 58, "duration": 110, "velocity": 100}, {"time": 9405, "pitch": 58, "duration": 110, "velocity": 100}, {"time": 9900, "pitch": 62, "duration": 440, "velocity": 100}]}, {"program": 38, "is_drum": false, "name": "Triangle", "notes": [{"time": 0, "pitch": 34, "duration": 385, "velocity": 100}, {"time": 55, "pitch": 41, "duration": 385, "velocity": 100}, {"time": 110, "pitch": 46, "duration": 110, "velocity": 100}, {"time": 165, "pitch": 53, "duration": 110, "velocity": 100}, {"time": 275, "pitch": 46, "duration": 165, "velocity": 100}, {"time": 385, "pitch": 53, "duration": 165, "velocity": 100}, {"time": 440, "pitch": 34, "duration": 330, "velocity": 100}, {"time": 495, "pitch": 41, "duration": 220, "velocity": 100}, {"time": 550, "pitch": 46, "duration": 110, "velocity": 100}, {"time": 605, "pitch": 53, "duration": 110, "velocity": 100}, {"time": 715, "pitch": 46, "duration": 55, "velocity": 100}, {"time": 825, "pitch": 53, "duration": 55, "velocity": 100}, {"time": 880, "pitch": 34, "duration": 275, "velocity": 100}, {"time": 935, "pitch": 41, "duration": 220, "velocity": 100}, {"time": 990, "pitch": 46, "duration": 110, "velocity": 100}, {"time": 1045, "pitch": 53, "duration": 110, "velocity": 100}, {"time": 1100, "pitch": 54, "duration": 220, "velocity": 100}, {"time": 1155, "pitch": 46, "duration": 55, "velocity": 100}, {"time": 1320, "pitch": 34, "duration": 330, "velocity": 100}, {"time": 1375, "pitch": 46, "duration": 275, "velocity": 100}, {"time": 1430, "pitch": 50, "duration": 110, "velocity": 100}, {"time": 1485, "pitch": 53, "duration": 55, "velocity": 100}, {"time": 1540, "pitch": 53, "duration": 55, "velocity": 100}, {"time": 1540, "pitch": 53, "duration": 220, "velocity": 100}, {"time": 1595, "pitch": 46, "duration": 55, "velocity": 100}, {"time": 1705, "pitch": 53, "duration": 55, "velocity": 100}, {"time": 1760, "pitch": 46, "duration": 385, "velocity": 100}, {"time": 1760, "pitch": 51, "duration": 220, "velocity": 100}, {"time": 1815, "pitch": 50, "duration": 385, "velocity": 100}, {"time": 1870, "pitch": 53, "duration": 110, "velocity": 100}, {"time": 1980, "pitch": 51, "duration": 220, "velocity": 100}, {"time": 2035, "pitch": 53, "duration": 55, "velocity": 100}, {"time": 2145, "pitch": 53, "duration": 110, "velocity": 100}, {"time": 2200, "pitch": 34, "duration": 330, "velocity": 100}, {"time": 2255, "pitch": 41, "duration": 275, "velocity": 100}, {"time": 2310, "pitch": 46, "duration": 110, "velocity": 100}, {"time": 2365, "pitch": 53, "duration": 110, "velocity": 100}, {"time": 2475, "pitch": 46, "duration": 165, "velocity": 100}, {"time": 2585, "pitch": 53, "duration": 55, "velocity": 100}, {"time": 2640, "pitch": 41, "duration": 385, "velocity": 100}, {"time": 2695, "pitch": 46, "duration": 165, "velocity": 100}, {"time": 2750, "pitch": 53, "duration": 110, "velocity": 100}, {"time": 2805, "pitch": 53, "duration": 55, "velocity": 100}, {"time": 2915, "pitch": 50, "duration": 165, "velocity": 100}, {"time": 2970, "pitch": 53, "duration": 110, "velocity": 100}, {"time": 3080, "pitch": 41, "duration": 330, "velocity": 100}, {"time": 3135, "pitch": 46, "duration": 220, "velocity": 100}, {"time": 3190, "pitch": 53, "duration": 110, "velocity": 100}, {"time": 3245, "pitch": 53, "duration": 110, "velocity": 100}, {"time": 3355, "pitch": 53, "duration": 55, "velocity": 100}, {"time": 3410, "pitch": 53, "duration": 110, "velocity": 100}, {"time": 3520, "pitch": 47, "duration": 385, "velocity": 100}, {"time": 3575, "pitch": 50, "duration": 385, "velocity": 100}, {"time": 3630, "pitch": 54, "duration": 110, "velocity": 100}, {"time": 3795, "pitch": 59, "duration": 55, "velocity": 100}, {"time": 3960, "pitch": 47, "duration": 275, "velocity": 100}, {"time": 4015, "pitch": 47, "duration": 275, "velocity": 100}, {"time": 4070, "pitch": 54, "duration": 110, "velocity": 100}, {"time": 4180, "pitch": 58, "duration": 220, "velocity": 100}, {"time": 4235, "pitch": 59, "duration": 55, "velocity": 100}, {"time": 4400, "pitch": 35, "duration": 330, "velocity": 100}, {"time": 4455, "pitch": 47, "duration": 275, "velocity": 100}, {"time": 4510, "pitch": 54, "duration": 110, "velocity": 100}, {"time": 4620, "pitch": 56, "duration": 220, "velocity": 100}, {"time": 4675, "pitch": 54, "duration": 55, "velocity": 100}, {"time": 4840, "pitch": 47, "duration": 330, "velocity": 100}, {"time": 5060, "pitch": 59, "duration": 220, "velocity": 100}, {"time": 5170, "pitch": 62, "duration": 110, "velocity": 100}, {"time": 5280, "pitch": 52, "duration": 275, "velocity": 100}, {"time": 5335, "pitch": 59, "duration": 165, "velocity": 100}, {"time": 5500, "pitch": 59, "duration": 220, "velocity": 100}, {"time": 5555, "pitch": 59, "duration": 165, "velocity": 100}, {"time": 5720, "pitch": 58, "duration": 220, "velocity": 100}, {"time": 5720, "pitch": 59, "duration": 330, "velocity": 100}, {"time": 5940, "pitch": 62, "duration": 220, "velocity": 100}, {"time": 6050, "pitch": 62, "duration": 165, "velocity": 100}, {"time": 6160, "pitch": 47, "duration": 385, "velocity": 100}, {"time": 6215, "pitch": 54, "duration": 385, "velocity": 100}, {"time": 6380, "pitch": 58, "duration": 220, "velocity": 100}, {"time": 6435, "pitch": 54, "duration": 385, "velocity": 100}, {"time": 6545, "pitch": 62, "duration": 55, "velocity": 100}, {"time": 6600, "pitch": 47, "duration": 440, "velocity": 100}, {"time": 6600, "pitch": 59, "duration": 440, "velocity": 100}, {"time": 6710, "pitch": 54, "duration": 330, "velocity": 100}, {"time": 6820, "pitch": 56, "duration": 220, "velocity": 100}, {"time": 7040, "pitch": 38, "duration": 385, "velocity": 100}, {"time": 7040, "pitch": 54, "duration": 220, "velocity": 100}, {"time": 7095, "pitch": 41, "duration": 385, "velocity": 100}, {"time": 7150, "pitch": 50, "duration": 110, "velocity": 100}, {"time": 7205, "pitch": 54, "duration": 110, "velocity": 100}, {"time": 7260, "pitch": 54, "duration": 220, "velocity": 100}, {"time": 7315, "pitch": 50, "duration": 165, "velocity": 100}, {"time": 7425, "pitch": 58, "duration": 165, "velocity": 100}, {"time": 7480, "pitch": 38, "duration": 275, "velocity": 100}, {"time": 7480, "pitch": 53, "duration": 220, "velocity": 100}, {"time": 7535, "pitch": 41, "duration": 275, "velocity": 100}, {"time": 7590, "pitch": 50, "duration": 110, "velocity": 100}, {"time": 7645, "pitch": 54, "duration": 110, "velocity": 100}, {"time": 7700, "pitch": 51, "duration": 220, "velocity": 100}, {"time": 7755, "pitch": 50, "duration": 55, "velocity": 100}, {"time": 7865, "pitch": 58, "duration": 55, "velocity": 100}, {"time": 7920, "pitch": 38, "duration": 275, "velocity": 100}, {"time": 7920, "pitch": 53, "duration": 220, "velocity": 100}, {"time": 7975, "pitch": 42, "duration": 220, "velocity": 100}, {"time": 8030, "pitch": 46, "duration": 110, "velocity": 100}, {"time": 8140, "pitch": 53, "duration": 220, "velocity": 100}, {"time": 8195, "pitch": 46, "duration": 55, "velocity": 100}, {"time": 8305, "pitch": 58, "duration": 55, "velocity": 100}, {"time": 8360, "pitch": 38, "duration": 330, "velocity": 100}, {"time": 8360, "pitch": 53, "duration": 220, "velocity": 100}, {"time": 8415, "pitch": 46, "duration": 275, "velocity": 100}, {"time": 8470, "pitch": 50, "duration": 110, "velocity": 100}, {"time": 8525, "pitch": 54, "duration": 110, "velocity": 100}, {"time": 8580, "pitch": 53, "duration": 220, "velocity": 100}, {"time": 8635, "pitch": 50, "duration": 55, "velocity": 100}, {"time": 8690, "pitch": 58, "duration": 110, "velocity": 100}, {"time": 8745, "pitch": 54, "duration": 55, "velocity": 100}, {"time": 8800, "pitch": 42, "duration": 330, "velocity": 100}, {"time": 8800, "pitch": 54, "duration": 220, "velocity": 100}, {"time": 8855, "pitch": 54, "duration": 220, "velocity": 100}, {"time": 8910, "pitch": 58, "duration": 110, "velocity": 100}, {"time": 8965, "pitch": 58, "duration": 55, "velocity": 100}, {"time": 9020, "pitch": 53, "duration": 220, "velocity": 100}, {"time": 9075, "pitch": 54, "duration": 55, "velocity": 100}, {"time": 9185, "pitch": 58, "duration": 55, "velocity": 100}, {"time": 9240, "pitch": 38, "duration": 330, "velocity": 100}, {"time": 9240, "pitch": 51, "duration": 220, "velocity": 100}, {"time": 9295, "pitch": 46, "duration": 275, "velocity": 100}, {"time": 9350, "pitch": 50, "duration": 110, "velocity": 100}, {"time": 9460, "pitch": 51, "duration": 220, "velocity": 100}, {"time": 9515, "pitch": 50, "duration": 165, "velocity": 100}, {"time": 9625, "pitch": 58, "duration": 55, "velocity": 100}, {"time": 9680, "pitch": 42, "duration": 385, "velocity": 100}, {"time": 9680, "pitch": 49, "duration": 220, "velocity": 100}, {"time": 9735, "pitch": 50, "duration": 165, "velocity": 100}, {"time": 9790, "pitch": 54, "duration": 110, "velocity": 100}, {"time": 9845, "pitch": 58, "duration": 55, "velocity": 100}, {"time": 9900, "pitch": 51, "duration": 660, "velocity": 100}, {"time": 9955, "pitch": 50, "duration": 165, "velocity": 100}, {"time": 10010, "pitch": 58, "duration": 110, "velocity": 100}, {"time": 10065, "pitch": 54, "duration": 165, "velocity": 100}, {"time": 10120, "pitch": 42, "duration": 330, "velocity": 100}, {"time": 10175, "pitch": 50, "duration": 165, "velocity": 100}, {"time": 10230, "pitch": 54, "duration": 110, "velocity": 100}, {"time": 10285, "pitch": 58, "duration": 55, "velocity": 100}, {"time": 10340, "pitch": 61, "duration": 110, "velocity": 100}, {"time": 10395, "pitch": 50, "duration": 55, "velocity": 100}, {"time": 10450, "pitch": 58, "duration": 110, "velocity": 100}, {"time": 10505, "pitch": 62, "duration": 55, "velocity": 100}]}]}