{"metadata": {"schema_version": "0.1", "title": "None", "source_filename": "20211215_135953.mid", "source_format": "midi"}, "resolution": 220, "tempos": [{"time": 0, "qpm": 120.0}], "time_signatures": [{"time": 0, "numerator": 4, "denominator": 4}], "tracks": [{"program": 0, "is_drum": false, "name": "Piano", "notes": [{"time": 0, "pitch": 58, "duration": 110, "velocity": 100}, {"time": 0, "pitch": 74, "duration": 165, "velocity": 100}]}, {"program": 24, "is_drum": false, "name": "Guitar", "notes": [{"time": 110, "pitch": 48, "duration": 110, "velocity": 100}, {"time": 110, "pitch": 58, "duration": 110, "velocity": 100}, {"time": 220, "pitch": 53, "duration": 55, "velocity": 100}, {"time": 220, "pitch": 53, "duration": 110, "velocity": 100}, {"time": 220, "pitch": 58, "duration": 55, "velocity": 100}, {"time": 220, "pitch": 72, "duration": 110, "velocity": 100}, {"time": 330, "pitch": 53, "duration": 55, "velocity": 100}, {"time": 330, "pitch": 58, "duration": 110, "velocity": 100}, {"time": 440, "pitch": 53, "duration": 165, "velocity": 100}, {"time": 440, "pitch": 58, "duration": 165, "velocity": 100}, {"time": 440, "pitch": 61, "duration": 110, "velocity": 100}, {"time": 550, "pitch": 58, "duration": 110, "velocity": 100}, {"time": 660, "pitch": 53, "duration": 110, "velocity": 100}, {"time": 660, "pitch": 58, "duration": 110, "velocity": 100}, {"time": 770, "pitch": 56, "duration": 110, "velocity": 100}, {"time": 770, "pitch": 65, "duration": 55, "velocity": 100}, {"time": 880, "pitch": 53, "duration": 55, "velocity": 100}, {"time": 880, "pitch": 58, "duration": 110, "velocity": 100}, {"time": 880, "pitch": 58, "duration": 165, "velocity": 100}, {"time": 990, "pitch": 53, "duration": 165, "velocity": 100}, {"time": 990, "pitch": 58, "duration": 110, "velocity": 100}, {"time": 1100, "pitch": 53, "duration": 110, "velocity": 100}, {"time": 1100, "pitch": 58, "duration": 55, "velocity": 100}, {"time": 1100, "pitch": 62, "duration": 55, "velocity": 100}, {"time": 1210, "pitch": 58, "duration": 165, "velocity": 100}, {"time": 1320, "pitch": 58, "duration": 55, "velocity": 100}, {"time": 1320, "pitch": 62, "duration": 220, "velocity": 100}, {"time": 1375, "pitch": 61, "duration": 110, "velocity": 100}, {"time": 1430, "pitch": 58, "duration": 110, "velocity": 100}, {"time": 1485, "pitch": 58, "duration": 110, "velocity": 100}, {"time": 1540, "pitch": 65, "duration": 110, "velocity": 100}, {"time": 1595, "pitch": 53, "duration": 110, "velocity": 100}, {"time": 1650, "pitch": 58, "duration": 55, "velocity": 100}, {"time": 1705, "pitch": 56, "duration": 55, "velocity": 100}, {"time": 1760, "pitch": 58, "duration": 165, "velocity": 100}, {"time": 1760, "pitch": 62, "duration": 165, "velocity": 100}, {"time": 1815, "pitch": 58, "duration": 110, "velocity": 100}, {"time": 1870, "pitch": 53, "duration": 165, "velocity": 100}, {"time": 1925, "pitch": 58, "duration": 110, "velocity": 100}, {"time": 1980, "pitch": 58, "duration": 55, "velocity": 100}, {"time": 1980, "pitch": 62, "duration": 55, "velocity": 100}, {"time": 2035, "pitch": 53, "duration": 110, "velocity": 100}, {"time": 2145, "pitch": 58, "duration": 110, "velocity": 100}, {"time": 2200, "pitch": 62, "duration": 220, "velocity": 100}, {"time": 2200, "pitch": 65, "duration": 440, "velocity": 100}, {"time": 2255, "pitch": 61, "duration": 110, "velocity": 100}, {"time": 2310, "pitch": 53, "duration": 220, "velocity": 100}, {"time": 2365, "pitch": 58, "duration": 110, "velocity": 100}, {"time": 2420, "pitch": 58, "duration": 55, "velocity": 100}, {"time": 2475, "pitch": 53, "duration": 110, "velocity": 100}, {"time": 2585, "pitch": 56, "duration": 110, "velocity": 100}, {"time": 2640, "pitch": 58, "duration": 220, "velocity": 100}, {"time": 2695, "pitch": 58, "duration": 110, "velocity": 100}, {"time": 2805, "pitch": 58, "duration": 110, "velocity": 100}, {"time": 2860, "pitch": 65, "duration": 220, "velocity": 100}, {"time": 2915, "pitch": 53, "duration": 110, "velocity": 100}, {"time": 2970, "pitch": 58, "duration": 110, "velocity": 100}, {"time": 3025, "pitch": 58, "duration": 110, "velocity": 100}, {"time": 3080, "pitch": 58, "duration": 55, "velocity": 100}, {"time": 3080, "pitch": 62, "duration": 220, "velocity": 100}, {"time": 3135, "pitch": 61, "duration": 110, "velocity": 100}, {"time": 3190, "pitch": 58, "duration": 110, "velocity": 100}, {"time": 3245, "pitch": 58, "duration": 55, "velocity": 100}, {"time": 3300, "pitch": 53, "duration": 110, "velocity": 100}, {"time": 3300, "pitch": 65, "duration": 165, "velocity": 100}, {"time": 3410, "pitch": 56, "duration": 110, "velocity": 100}, {"time": 3520, "pitch": 58, "duration": 110, "velocity": 100}, {"time": 3520, "pitch": 58, "duration": 110, "velocity": 100}, {"time": 3520, "pitch": 65, "duration": 110, "velocity": 100}, {"time": 3630, "pitch": 53, "duration": 110, "velocity": 100}, {"time": 3630, "pitch": 58, "duration": 110, "velocity": 100}, {"time": 3630, "pitch": 89, "duration": 55, "velocity": 100}, {"time": 3685, "pitch": 89, "duration": 55, "velocity": 100}, {"time": 3740, "pitch": 53, "duration": 55, "velocity": 100}, {"time": 3740, "pitch": 54, "duration": 110, "velocity": 100}, {"time": 3740, "pitch": 58, "duration": 55, "velocity": 100}, {"time": 3740, "pitch": 65, "duration": 110, "velocity": 100}, {"time": 3740, "pitch": 86, "duration": 55, "velocity": 100}, {"time": 3795, "pitch": 89, "duration": 55, "velocity": 100}, {"time": 3850, "pitch": 56, "duration": 110, "velocity": 100}, {"time": 3850, "pitch": 60, "duration": 55, "velocity": 100}, {"time": 3960, "pitch": 58, "duration": 220, "velocity": 100}, {"time": 3960, "pitch": 61, "duration": 110, "velocity": 100}, {"time": 3960, "pitch": 62, "duration": 220, "velocity": 100}, {"time": 3960, "pitch": 89, "duration": 440, "velocity": 100}, {"time": 4070, "pitch": 53, "duration": 220, "velocity": 100}, {"time": 4070, "pitch": 58, "duration": 110, "velocity": 100}, {"time": 4180, "pitch": 54, "duration": 110, "velocity": 100}, {"time": 4180, "pitch": 65, "duration": 110, "velocity": 100}, {"time": 4290, "pitch": 56, "duration": 110, "velocity": 100}, {"time": 4400, "pitch": 58, "duration": 110, "velocity": 100}, {"time": 4400, "pitch": 62, "duration": 220, "velocity": 100}, {"time": 4400, "pitch": 65, "duration": 220, "velocity": 100}, {"time": 4510, "pitch": 58, "duration": 110, "velocity": 100}, {"time": 4510, "pitch": 58, "duration": 220, "velocity": 100}, {"time": 4620, "pitch": 54, "duration": 110, "velocity": 100}, {"time": 4620, "pitch": 70, "duration": 110, "velocity": 100}, {"time": 4730, "pitch": 56, "duration": 110, "velocity": 100}, {"time": 4730, "pitch": 65, "duration": 110, "velocity": 100}, {"time": 4840, "pitch": 61, "duration": 165, "velocity": 100}, {"time": 4840, "pitch": 70, "duration": 220, "velocity": 100}, {"time": 4950, "pitch": 58, "duration": 165, "velocity": 100}, {"time": 5005, "pitch": 58, "duration": 110, "velocity": 100}, {"time": 5060, "pitch": 62, "duration": 55, "velocity": 100}, {"time": 5060, "pitch": 65, "duration": 110, "velocity": 100}, {"time": 5115, "pitch": 54, "duration": 110, "velocity": 100}, {"time": 5225, "pitch": 56, "duration": 55, "velocity": 100}, {"time": 5280, "pitch": 62, "duration": 220, "velocity": 100}, {"time": 5280, "pitch": 65, "duration": 220, "velocity": 100}, {"time": 5335, "pitch": 58, "duration": 110, "velocity": 100}, {"time": 5390, "pitch": 58, "duration": 165, "velocity": 100}, {"time": 5445, "pitch": 58, "duration": 110, "velocity": 100}, {"time": 5500, "pitch": 70, "duration": 110, "velocity": 100}, {"time": 5555, "pitch": 54, "duration": 110, "velocity": 100}, {"time": 5610, "pitch": 65, "duration": 55, "velocity": 100}, {"time": 5665, "pitch": 56, "duration": 110, "velocity": 100}, {"time": 5720, "pitch": 65, "duration": 165, "velocity": 100}, {"time": 5775, "pitch": 61, "duration": 110, "velocity": 100}, {"time": 5830, "pitch": 58, "duration": 165, "velocity": 100}, {"time": 5885, "pitch": 58, "duration": 110, "velocity": 100}, {"time": 5940, "pitch": 62, "duration": 55, "velocity": 100}, {"time": 5940, "pitch": 65, "duration": 55, "velocity": 100}, {"time": 5995, "pitch": 54, "duration": 110, "velocity": 100}, {"time": 6105, "pitch": 56, "duration": 110, "velocity": 100}, {"time": 6160, "pitch": 62, "duration": 165, "velocity": 100}, {"time": 6160, "pitch": 65, "duration": 110, "velocity": 100}, {"time": 6215, "pitch": 58, "duration": 110, "velocity": 100}, {"time": 6270, "pitch": 53, "duration": 220, "velocity": 100}, {"time": 6325, "pitch": 58, "duration": 110, "velocity": 100}, {"time": 6380, "pitch": 58, "duration": 110, "velocity": 100}, {"time": 6435, "pitch": 54, "duration": 55, "velocity": 100}, {"time": 6435, "pitch": 62, "duration": 55, "velocity": 100}, {"time": 6490, "pitch": 56, "duration": 110, "velocity": 100}, {"time": 6490, "pitch": 65, "duration": 55, "velocity": 100}, {"time": 6600, "pitch": 58, "duration": 55, "velocity": 100}, {"time": 6600, "pitch": 61, "duration": 110, "velocity": 100}, {"time": 6600, "pitch": 62, "duration": 110, "velocity": 100}, {"time": 6600, "pitch": 65, "duration": 165, "velocity": 100}, {"time": 6710, "pitch": 53, "duration": 165, "velocity": 100}, {"time": 6710, "pitch": 58, "duration": 110, "velocity": 100}, {"time": 6820, "pitch": 54, "duration": 110, "velocity": 100}, {"time": 6820, "pitch": 62, "duration": 110, "velocity": 100}, {"time": 6820, "pitch": 65, "duration": 110, "velocity": 100}, {"time": 6930, "pitch": 56, "duration": 110, "velocity": 100}, {"time": 6930, "pitch": 58, "duration": 55, "velocity": 100}, {"time": 7040, "pitch": 53, "duration": 440, "velocity": 100}, {"time": 7040, "pitch": 61, "duration": 165, "velocity": 100}, {"time": 7040, "pitch": 65, "duration": 165, "velocity": 100}, {"time": 7150, "pitch": 56, "duration": 55, "velocity": 100}, {"time": 7150, "pitch": 85, "duration": 55, "velocity": 100}, {"time": 7205, "pitch": 87, "duration": 55, "velocity": 100}, {"time": 7260, "pitch": 61, "duration": 110, "velocity": 100}, {"time": 7260, "pitch": 65, "duration": 165, "velocity": 100}, {"time": 7260, "pitch": 89, "duration": 55, "velocity": 100}, {"time": 7370, "pitch": 56, "duration": 110, "velocity": 100}, {"time": 7370, "pitch": 85, "duration": 55, "velocity": 100}, {"time": 7480, "pitch": 58, "duration": 330, "velocity": 100}, {"time": 7480, "pitch": 61, "duration": 110, "velocity": 100}, {"time": 7480, "pitch": 65, "duration": 165, "velocity": 100}, {"time": 7590, "pitch": 56, "duration": 110, "velocity": 100}, {"time": 7590, "pitch": 80, "duration": 55, "velocity": 100}, {"time": 7645, "pitch": 82, "duration": 55, "velocity": 100}, {"time": 7700, "pitch": 61, "duration": 55, "velocity": 100}, {"time": 7700, "pitch": 65, "duration": 55, "velocity": 100}, {"time": 7700, "pitch": 85, "duration": 55, "velocity": 100}, {"time": 7755, "pitch": 80, "duration": 55, "velocity": 100}, {"time": 7810, "pitch": 60, "duration": 110, "velocity": 100}, {"time": 7810, "pitch": 80, "duration": 55, "velocity": 100}, {"time": 7920, "pitch": 53, "duration": 55, "velocity": 100}, {"time": 7920, "pitch": 58, "duration": 110, "velocity": 100}, {"time": 7920, "pitch": 61, "duration": 220, "velocity": 100}, {"time": 8030, "pitch": 53, "duration": 55, "velocity": 100}, {"time": 8030, "pitch": 77, "duration": 55, "velocity": 100}, {"time": 8085, "pitch": 80, "duration": 55, "velocity": 100}, {"time": 8140, "pitch": 58, "duration": 55, "velocity": 100}, {"time": 8140, "pitch": 58, "duration": 220, "velocity": 100}, {"time": 8140, "pitch": 62, "duration": 55, "velocity": 100}, {"time": 8140, "pitch": 65, "duration": 55, "velocity": 100}, {"time": 8140, "pitch": 77, "duration": 55, "velocity": 100}, {"time": 8195, "pitch": 75, "duration": 55, "velocity": 100}, {"time": 8250, "pitch": 58, "duration": 110, "velocity": 100}, {"time": 8250, "pitch": 75, "duration": 55, "velocity": 100}, {"time": 8305, "pitch": 77, "duration": 55, "velocity": 100}, {"time": 8360, "pitch": 62, "duration": 110, "velocity": 100}, {"time": 8360, "pitch": 66, "duration": 385, "velocity": 100}, {"time": 8360, "pitch": 77, "duration": 110, "velocity": 100}, {"time": 8470, "pitch": 53, "duration": 55, "velocity": 100}, {"time": 8470, "pitch": 80, "duration": 55, "velocity": 100}, {"time": 8525, "pitch": 82, "duration": 55, "velocity": 100}, {"time": 8580, "pitch": 58, "duration": 110, "velocity": 100}, {"time": 8580, "pitch": 62, "duration": 110, "velocity": 100}, {"time": 8580, "pitch": 80, "duration": 55, "velocity": 100}, {"time": 8635, "pitch": 82, "duration": 55, "velocity": 100}, {"time": 8690, "pitch": 58, "duration": 55, "velocity": 100}, {"time": 8690, "pitch": 77, "duration": 110, "velocity": 100}, {"time": 8745, "pitch": 63, "duration": 55, "velocity": 100}, {"time": 8800, "pitch": 53, "duration": 110, "velocity": 100}, {"time": 8800, "pitch": 58, "duration": 110, "velocity": 100}, {"time": 8855, "pitch": 65, "duration": 110, "velocity": 100}, {"time": 8910, "pitch": 82, "duration": 55, "velocity": 100}, {"time": 8965, "pitch": 85, "duration": 55, "velocity": 100}, {"time": 9020, "pitch": 53, "duration": 55, "velocity": 100}, {"time": 9020, "pitch": 58, "duration": 55, "velocity": 100}, {"time": 9020, "pitch": 61, "duration": 110, "velocity": 100}, {"time": 9075, "pitch": 65, "duration": 220, "velocity": 100}, {"time": 9075, "pitch": 85, "duration": 55, "velocity": 100}, {"time": 9130, "pitch": 53, "duration": 55, "velocity": 100}, {"time": 9130, "pitch": 82, "duration": 55, "velocity": 100}, {"time": 9240, "pitch": 56, "duration": 55, "velocity": 100}, {"time": 9240, "pitch": 61, "duration": 110, "velocity": 100}, {"time": 9240, "pitch": 80, "duration": 165, "velocity": 100}, {"time": 9350, "pitch": 56, "duration": 55, "velocity": 100}, {"time": 9460, "pitch": 61, "duration": 110, "velocity": 100}, {"time": 9460, "pitch": 65, "duration": 55, "velocity": 100}, {"time": 9515, "pitch": 80, "duration": 55, "velocity": 100}, {"time": 9570, "pitch": 56, "duration": 55, "velocity": 100}, {"time": 9570, "pitch": 80, "duration": 55, "velocity": 100}, {"time": 9625, "pitch": 80, "duration": 55, "velocity": 100}, {"time": 9680, "pitch": 53, "duration": 440, "velocity": 100}, {"time": 9680, "pitch": 61, "duration": 165, "velocity": 100}, {"time": 9680, "pitch": 65, "duration": 165, "velocity": 100}, {"time": 9790, "pitch": 56, "duration": 55, "velocity": 100}, {"time": 9790, "pitch": 75, "duration": 55, "velocity": 100}, {"time": 9845, "pitch": 77, "duration": 55, "velocity": 100}, {"time": 9900, "pitch": 61, "duration": 110, "velocity": 100}, {"time": 9900, "pitch": 68, "duration": 110, "velocity": 100}, {"time": 9900, "pitch": 73, "duration": 55, "velocity": 100}, {"time": 9955, "pitch": 75, "duration": 55, "velocity": 100}, {"time": 10010, "pitch": 56, "duration": 55, "velocity": 100}, {"time": 10010, "pitch": 70, "duration": 55, "velocity": 100}, {"time": 10065, "pitch": 73, "duration": 55, "velocity": 100}, {"time": 10120, "pitch": 56, "duration": 110, "velocity": 100}, {"time": 10120, "pitch": 58, "duration": 330, "velocity": 100}, {"time": 10120, "pitch": 61, "duration": 110, "velocity": 100}, {"time": 10120, "pitch": 65, "duration": 55, "velocity": 100}, {"time": 10120, "pitch": 68, "duration": 55, "velocity": 100}, {"time": 10175, "pitch": 80, "duration": 55, "velocity": 100}, {"time": 10230, "pitch": 75, "duration": 55, "velocity": 100}, {"time": 10285, "pitch": 77, "duration": 55, "velocity": 100}, {"time": 10340, "pitch": 56, "duration": 55, "velocity": 100}, {"time": 10340, "pitch": 61, "duration": 55, "velocity": 100}, {"time": 10340, "pitch": 65, "duration": 55, "velocity": 100}, {"time": 10340, "pitch": 80, "duration": 55, "velocity": 100}, {"time": 10395, "pitch": 80, "duration": 55, "velocity": 100}, {"time": 10450, "pitch": 56, "duration": 55, "velocity": 100}, {"time": 10450, "pitch": 60, "duration": 110, "velocity": 100}, {"time": 10450, "pitch": 77, "duration": 55, "velocity": 100}, {"time": 10505, "pitch": 75, "duration": 55, "velocity": 100}, {"time": 10560, "pitch": 58, "duration": 110, "velocity": 100}, {"time": 10560, "pitch": 61, "duration": 220, "velocity": 100}, {"time": 10560, "pitch": 62, "duration": 110, "velocity": 100}, {"time": 10560, "pitch": 74, "duration": 220, "velocity": 100}, {"time": 10780, "pitch": 58, "duration": 55, "velocity": 100}, {"time": 10780, "pitch": 58, "duration": 275, "velocity": 100}, {"time": 10780, "pitch": 62, "duration": 110, "velocity": 100}, {"time": 10780, "pitch": 65, "duration": 110, "velocity": 100}, {"time": 10780, "pitch": 70, "duration": 110, "velocity": 100}, {"time": 10890, "pitch": 58, "duration": 55, "velocity": 100}, {"time": 10890, "pitch": 74, "duration": 110, "velocity": 100}, {"time": 11000, "pitch": 62, "duration": 165, "velocity": 100}, {"time": 11000, "pitch": 65, "duration": 165, "velocity": 100}, {"time": 11000, "pitch": 70, "duration": 110, "velocity": 100}, {"time": 11055, "pitch": 66, "duration": 330, "velocity": 100}, {"time": 11110, "pitch": 77, "duration": 110, "velocity": 100}, {"time": 11220, "pitch": 58, "duration": 55, "velocity": 100}, {"time": 11220, "pitch": 65, "duration": 55, "velocity": 100}, {"time": 11220, "pitch": 70, "duration": 110, "velocity": 100}, {"time": 11220, "pitch": 80, "duration": 110, "velocity": 100}, {"time": 11330, "pitch": 65, "duration": 55, "velocity": 100}, {"time": 11330, "pitch": 77, "duration": 110, "velocity": 100}, {"time": 11385, "pitch": 65, "duration": 110, "velocity": 100}, {"time": 11440, "pitch": 53, "duration": 110, "velocity": 100}, {"time": 11440, "pitch": 58, "duration": 165, "velocity": 100}, {"time": 11440, "pitch": 70, "duration": 110, "velocity": 100}, {"time": 11495, "pitch": 63, "duration": 825, "velocity": 100}, {"time": 11550, "pitch": 77, "duration": 110, "velocity": 100}, {"time": 11660, "pitch": 58, "duration": 110, "velocity": 100}, {"time": 11660, "pitch": 82, "duration": 110, "velocity": 100}, {"time": 11770, "pitch": 78, "duration": 110, "velocity": 100}, {"time": 11825, "pitch": 54, "duration": 55, "velocity": 100}, {"time": 11880, "pitch": 51, "duration": 55, "velocity": 100}, {"time": 11880, "pitch": 82, "duration": 110, "velocity": 100}, {"time": 11990, "pitch": 54, "duration": 55, "velocity": 100}, {"time": 11990, "pitch": 75, "duration": 110, "velocity": 100}, {"time": 12045, "pitch": 58, "duration": 55, "velocity": 100}, {"time": 12100, "pitch": 54, "duration": 55, "velocity": 100}, {"time": 12100, "pitch": 63, "duration": 55, "velocity": 100}, {"time": 12100, "pitch": 78, "duration": 110, "velocity": 100}, {"time": 12210, "pitch": 75, "duration": 110, "velocity": 100}]}, {"program": 32, "is_drum": false, "name": "Bass", "notes": [{"time": 0, "pitch": 58, "duration": 55, "velocity": 100}, {"time": 165, "pitch": 53, "duration": 55, "velocity": 100}, {"time": 275, "pitch": 46, "duration": 55, "velocity": 100}, {"time": 440, "pitch": 46, "duration": 330, "velocity": 100}, {"time": 550, "pitch": 50, "duration": 165, "velocity": 100}, {"time": 880, "pitch": 46, "duration": 275, "velocity": 100}, {"time": 1320, "pitch": 46, "duration": 275, "velocity": 100}, {"time": 1760, "pitch": 46, "duration": 275, "velocity": 100}, {"time": 2200, "pitch": 46, "duration": 275, "velocity": 100}, {"time": 2640, "pitch": 34, "duration": 275, "velocity": 100}, {"time": 2750, "pitch": 46, "duration": 165, "velocity": 100}, {"time": 3080, "pitch": 46, "duration": 275, "velocity": 100}, {"time": 3520, "pitch": 46, "duration": 165, "velocity": 100}, {"time": 3960, "pitch": 46, "duration": 330, "velocity": 100}, {"time": 4400, "pitch": 46, "duration": 330, "velocity": 100}, {"time": 4840, "pitch": 50, "duration": 275, "velocity": 100}, {"time": 5280, "pitch": 50, "duration": 330, "velocity": 100}, {"time": 5720, "pitch": 50, "duration": 275, "velocity": 100}, {"time": 6160, "pitch": 46, "duration": 330, "velocity": 100}, {"time": 6600, "pitch": 46, "duration": 275, "velocity": 100}, {"time": 7040, "pitch": 49, "duration": 275, "velocity": 100}, {"time": 7480, "pitch": 49, "duration": 275, "velocity": 100}, {"time": 7920, "pitch": 46, "duration": 275, "velocity": 100}, {"time": 8360, "pitch": 46, "duration": 220, "velocity": 100}, {"time": 8580, "pitch": 46, "duration": 110, "velocity": 100}, {"time": 8800, "pitch": 46, "duration": 275, "velocity": 100}, {"time": 8910, "pitch": 49, "duration": 165, "velocity": 100}, {"time": 9240, "pitch": 49, "duration": 165, "velocity": 100}, {"time": 9460, "pitch": 49, "duration": 110, "velocity": 100}, {"time": 9680, "pitch": 49, "duration": 275, "velocity": 100}, {"time": 10120, "pitch": 49, "duration": 220, "velocity": 100}, {"time": 10230, "pitch": 49, "duration": 165, "velocity": 100}, {"time": 10340, "pitch": 49, "duration": 110, "velocity": 100}, {"time": 10560, "pitch": 46, "duration": 330, "velocity": 100}, {"time": 10670, "pitch": 53, "duration": 165, "velocity": 100}, {"time": 11000, "pitch": 34, "duration": 275, "velocity": 100}, {"time": 11110, "pitch": 46, "duration": 165, "velocity": 100}, {"time": 11440, "pitch": 38, "duration": 275, "velocity": 100}, {"time": 11550, "pitch": 46, "duration": 165, "velocity": 100}, {"time": 11660, "pitch": 53, "duration": 110, "velocity": 100}, {"time": 11770, "pitch": 46, "duration": 55, "velocity": 100}, {"time": 11880, "pitch": 42, "duration": 385, "velocity": 100}, {"time": 12210, "pitch": 51, "duration": 110, "velocity": 100}]}, {"program": 48, "is_drum": false, "name": "Strings"}, {"program": 61, "is_drum": false, "name": "Brass"}, {"program": 0, "is_drum": false, "name": "Piano", "notes": [{"time": 0, "pitch": 58, "duration": 110, "velocity": 100}, {"time": 110, "pitch": 58, "duration": 110, "velocity": 100}, {"time": 220, "pitch": 53, "duration": 110, "velocity": 100}, {"time": 330, "pitch": 58, "duration": 110, "velocity": 100}, {"time": 440, "pitch": 61, "duration": 110, "velocity": 100}, {"time": 550, "pitch": 58, "duration": 110, "velocity": 100}, {"time": 660, "pitch": 53, "duration": 110, "velocity": 100}, {"time": 770, "pitch": 56, "duration": 110, "velocity": 100}, {"time": 880, "pitch": 58, "duration": 110, "velocity": 100}, {"time": 990, "pitch": 58, "duration": 110, "velocity": 100}, {"time": 1100, "pitch": 53, "duration": 110, "velocity": 100}, {"time": 1210, "pitch": 58, "duration": 165, "velocity": 100}, {"time": 1375, "pitch": 61, "duration": 110, "velocity": 100}, {"time": 1485, "pitch": 58, "duration": 110, "velocity": 100}, {"time": 1595, "pitch": 53, "duration": 110, "velocity": 100}, {"time": 1705, "pitch": 56, "duration": 55, "velocity": 100}, {"time": 1815, "pitch": 58, "duration": 110, "velocity": 100}, {"time": 1925, "pitch": 58, "duration": 110, "velocity": 100}, {"time": 2035, "pitch": 53, "duration": 110, "velocity": 100}, {"time": 2145, "pitch": 58, "duration": 110, "velocity": 100}, {"time": 2255, "pitch": 61, "duration": 110, "velocity": 100}, {"time": 2365, "pitch": 58, "duration": 110, "velocity": 100}, {"time": 2475, "pitch": 53, "duration": 110, "velocity": 100}, {"time": 2585, "pitch": 56, "duration": 110, "velocity": 100}, {"time": 2695, "pitch": 58, "duration": 110, "velocity": 100}, {"time": 2805, "pitch": 58, "duration": 110, "velocity": 100}, {"time": 2915, "pitch": 53, "duration": 110, "velocity": 100}, {"time": 3025, "pitch": 58, "duration": 110, "velocity": 100}, {"time": 3135, "pitch": 61, "duration": 110, "velocity": 100}, {"time": 3245, "pitch": 58, "duration": 55, "velocity": 100}, {"time": 3300, "pitch": 53, "duration": 110, "velocity": 100}, {"time": 3410, "pitch": 56, "duration": 110, "velocity": 100}, {"time": 3520, "pitch": 58, "duration": 110, "velocity": 100}, {"time": 3630, "pitch": 58, "duration": 110, "velocity": 100}, {"time": 3740, "pitch": 54, "duration": 110, "velocity": 100}, {"time": 3850, "pitch": 56, "duration": 110, "velocity": 100}, {"time": 3960, "pitch": 61, "duration": 110, "velocity": 100}, {"time": 4070, "pitch": 58, "duration": 110, "velocity": 100}, {"time": 4180, "pitch": 54, "duration": 110, "velocity": 100}, {"time": 4290, "pitch": 56, "duration": 110, "velocity": 100}, {"time": 4400, "pitch": 58, "duration": 110, "velocity": 100}, {"time": 4510, "pitch": 58, "duration": 110, "velocity": 100}, {"time": 4620, "pitch": 54, "duration": 110, "velocity": 100}, {"time": 4730, "pitch": 56, "duration": 110, "velocity": 100}, {"time": 4840, "pitch": 61, "duration": 165, "velocity": 100}, {"time": 5005, "pitch": 58, "duration": 110, "velocity": 100}, {"time": 5115, "pitch": 54, "duration": 110, "velocity": 100}, {"time": 5225, "pitch": 56, "duration": 55, "velocity": 100}, {"time": 5335, "pitch": 58, "duration": 110, "velocity": 100}, {"time": 5445, "pitch": 58, "duration": 110, "velocity": 100}, {"time": 5555, "pitch": 54, "duration": 110, "velocity": 100}, {"time": 5665, "pitch": 56, "duration": 110, "velocity": 100}, {"time": 5775, "pitch": 61, "duration": 110, "velocity": 100}, {"time": 5885, "pitch": 58, "duration": 110, "velocity": 100}, {"time": 5995, "pitch": 54, "duration": 110, "velocity": 100}, {"time": 6105, "pitch": 56, "duration": 110, "velocity": 100}, {"time": 6215, "pitch": 58, "duration": 110, "velocity": 100}, {"time": 6325, "pitch": 58, "duration": 110, "velocity": 100}, {"time": 6435, "pitch": 54, "duration": 55, "velocity": 100}, {"time": 6490, "pitch": 56, "duration": 110, "velocity": 100}, {"time": 6600, "pitch": 61, "duration": 110, "velocity": 100}, {"time": 6710, "pitch": 58, "duration": 110, "velocity": 100}, {"time": 6820, "pitch": 54, "duration": 110, "velocity": 100}, {"time": 6930, "pitch": 56, "duration": 110, "velocity": 100}, {"time": 7040, "pitch": 53, "duration": 440, "velocity": 100}, {"time": 7480, "pitch": 58, "duration": 330, "velocity": 100}, {"time": 7810, "pitch": 60, "duration": 110, "velocity": 100}, {"time": 7920, "pitch": 61, "duration": 220, "velocity": 100}, {"time": 8140, "pitch": 58, "duration": 220, "velocity": 100}, {"time": 8360, "pitch": 66, "duration": 385, "velocity": 100}, {"time": 8745, "pitch": 63, "duration": 55, "velocity": 100}, {"time": 8855, "pitch": 65, "duration": 110, "velocity": 100}, {"time": 9075, "pitch": 65, "duration": 220, "velocity": 100}, {"time": 9680, "pitch": 53, "duration": 440, "velocity": 100}, {"time": 10120, "pitch": 58, "duration": 330, "velocity": 100}, {"time": 10450, "pitch": 60, "duration": 110, "velocity": 100}, {"time": 10560, "pitch": 61, "duration": 220, "velocity": 100}, {"time": 10780, "pitch": 58, "duration": 275, "velocity": 100}, {"time": 11055, "pitch": 66, "duration": 330, "velocity": 100}, {"time": 11385, "pitch": 65, "duration": 110, "velocity": 100}, {"time": 11495, "pitch": 63, "duration": 825, "velocity": 100}, {"time": 0, "pitch": 58, "duration": 55, "velocity": 100}, {"time": 0, "pitch": 74, "duration": 165, "velocity": 100}, {"time": 110, "pitch": 48, "duration": 110, "velocity": 100}, {"time": 165, "pitch": 53, "duration": 55, "velocity": 100}, {"time": 220, "pitch": 53, "duration": 55, "velocity": 100}, {"time": 220, "pitch": 58, "duration": 55, "velocity": 100}, {"time": 220, "pitch": 72, "duration": 110, "velocity": 100}, {"time": 275, "pitch": 46, "duration": 55, "velocity": 100}, {"time": 330, "pitch": 53, "duration": 55, "velocity": 100}, {"time": 440, "pitch": 46, "duration": 330, "velocity": 100}, {"time": 440, "pitch": 53, "duration": 165, "velocity": 100}, {"time": 440, "pitch": 58, "duration": 165, "velocity": 100}, {"time": 550, "pitch": 50, "duration": 165, "velocity": 100}, {"time": 660, "pitch": 58, "duration": 110, "velocity": 100}, {"time": 770, "pitch": 65, "duration": 55, "velocity": 100}, {"time": 880, "pitch": 46, "duration": 275, "velocity": 100}, {"time": 880, "pitch": 53, "duration": 55, "velocity": 100}, {"time": 880, "pitch": 58, "duration": 165, "velocity": 100}, {"time": 990, "pitch": 53, "duration": 165, "velocity": 100}, {"time": 1100, "pitch": 58, "duration": 55, "velocity": 100}, {"time": 1100, "pitch": 62, "duration": 55, "velocity": 100}, {"time": 1320, "pitch": 46, "duration": 275, "velocity": 100}, {"time": 1320, "pitch": 58, "duration": 55, "velocity": 100}, {"time": 1320, "pitch": 62, "duration": 220, "velocity": 100}, {"time": 1430, "pitch": 58, "duration": 110, "velocity": 100}, {"time": 1540, "pitch": 65, "duration": 110, "velocity": 100}, {"time": 1650, "pitch": 58, "duration": 55, "velocity": 100}, {"time": 1760, "pitch": 46, "duration": 275, "velocity": 100}, {"time": 1760, "pitch": 58, "duration": 165, "velocity": 100}, {"time": 1760, "pitch": 62, "duration": 165, "velocity": 100}, {"time": 1870, "pitch": 53, "duration": 165, "velocity": 100}, {"time": 1980, "pitch": 58, "duration": 55, "velocity": 100}, {"time": 1980, "pitch": 62, "duration": 55, "velocity": 100}, {"time": 2200, "pitch": 46, "duration": 275, "velocity": 100}, {"time": 2200, "pitch": 62, "duration": 220, "velocity": 100}, {"time": 2200, "pitch": 65, "duration": 440, "velocity": 100}, {"time": 2310, "pitch": 53, "duration": 220, "velocity": 100}, {"time": 2420, "pitch": 58, "duration": 55, "velocity": 100}, {"time": 2640, "pitch": 34, "duration": 275, "velocity": 100}, {"time": 2640, "pitch": 58, "duration": 220, "velocity": 100}, {"time": 2750, "pitch": 46, "duration": 165, "velocity": 100}, {"time": 2860, "pitch": 65, "duration": 220, "velocity": 100}, {"time": 2970, "pitch": 58, "duration": 110, "velocity": 100}, {"time": 3080, "pitch": 46, "duration": 275, "velocity": 100}, {"time": 3080, "pitch": 58, "duration": 55, "velocity": 100}, {"time": 3080, "pitch": 62, "duration": 220, "velocity": 100}, {"time": 3190, "pitch": 58, "duration": 110, "velocity": 100}, {"time": 3300, "pitch": 65, "duration": 165, "velocity": 100}, {"time": 3520, "pitch": 46, "duration": 165, "velocity": 100}, {"time": 3520, "pitch": 58, "duration": 110, "velocity": 100}, {"time": 3520, "pitch": 65, "duration": 110, "velocity": 100}, {"time": 3630, "pitch": 53, "duration": 110, "velocity": 100}, {"time": 3630, "pitch": 89, "duration": 55, "velocity": 100}, {"time": 3685, "pitch": 89, "duration": 55, "velocity": 100}, {"time": 3740, "pitch": 53, "duration": 55, "velocity": 100}, {"time": 3740, "pitch": 58, "duration": 55, "velocity": 100}, {"time": 3740, "pitch": 65, "duration": 110, "velocity": 100}, {"time": 3740, "pitch": 86, "duration": 55, "velocity": 100}, {"time": 3795, "pitch": 89, "duration": 55, "velocity": 100}, {"time": 3850, "pitch": 60, "duration": 55, "velocity": 100}, {"time": 3960, "pitch": 46, "duration": 330, "velocity": 100}, {"time": 3960, "pitch": 58, "duration": 220, "velocity": 100}, {"time": 3960, "pitch": 62, "duration": 220, "velocity": 100}, {"time": 3960, "pitch": 89, "duration": 440, "velocity": 100}, {"time": 4070, "pitch": 53, "duration": 220, "velocity": 100}, {"time": 4180, "pitch": 65, "duration": 110, "velocity": 100}, {"time": 4400, "pitch": 46, "duration": 330, "velocity": 100}, {"time": 4400, "pitch": 62, "duration": 220, "velocity": 100}, {"time": 4400, "pitch": 65, "duration": 220, "velocity": 100}, {"time": 4510, "pitch": 58, "duration": 220, "velocity": 100}, {"time": 4620, "pitch": 70, "duration": 110, "velocity": 100}, {"time": 4730, "pitch": 65, "duration": 110, "velocity": 100}, {"time": 4840, "pitch": 50, "duration": 275, "velocity": 100}, {"time": 4840, "pitch": 70, "duration": 220, "velocity": 100}, {"time": 4950, "pitch": 58, "duration": 165, "velocity": 100}, {"time": 5060, "pitch": 62, "duration": 55, "velocity": 100}, {"time": 5060, "pitch": 65, "duration": 110, "velocity": 100}, {"time": 5280, "pitch": 50, "duration": 330, "velocity": 100}, {"time": 5280, "pitch": 62, "duration": 220, "velocity": 100}, {"time": 5280, "pitch": 65, "duration": 220, "velocity": 100}, {"time": 5390, "pitch": 58, "duration": 165, "velocity": 100}, {"time": 5500, "pitch": 70, "duration": 110, "velocity": 100}, {"time": 5610, "pitch": 65, "duration": 55, "velocity": 100}, {"time": 5720, "pitch": 50, "duration": 275, "velocity": 100}, {"time": 5720, "pitch": 65, "duration": 165, "velocity": 100}, {"time": 5830, "pitch": 58, "duration": 165, "velocity": 100}, {"time": 5940, "pitch": 62, "duration": 55, "velocity": 100}, {"time": 5940, "pitch": 65, "duration": 55, "velocity": 100}, {"time": 6160, "pitch": 46, "duration": 330, "velocity": 100}, {"time": 6160, "pitch": 62, "duration": 165, "velocity": 100}, {"time": 6160, "pitch": 65, "duration": 110, "velocity": 100}, {"time": 6270, "pitch": 53, "duration": 220, "velocity": 100}, {"time": 6380, "pitch": 58, "duration": 110, "velocity": 100}, {"time": 6435, "pitch": 62, "duration": 55, "velocity": 100}, {"time": 6490, "pitch": 65, "duration": 55, "velocity": 100}, {"time": 6600, "pitch": 46, "duration": 275, "velocity": 100}, {"time": 6600, "pitch": 58, "duration": 55, "velocity": 100}, {"time": 6600, "pitch": 62, "duration": 110, "velocity": 100}, {"time": 6600, "pitch": 65, "duration": 165, "velocity": 100}, {"time": 6710, "pitch": 53, "duration": 165, "velocity": 100}, {"time": 6820, "pitch": 62, "duration": 110, "velocity": 100}, {"time": 6820, "pitch": 65, "duration": 110, "velocity": 100}, {"time": 6930, "pitch": 58, "duration": 55, "velocity": 100}, {"time": 7040, "pitch": 49, "duration": 275, "velocity": 100}, {"time": 7040, "pitch": 61, "duration": 165, "velocity": 100}, {"time": 7040, "pitch": 65, "duration": 165, "velocity": 100}, {"time": 7150, "pitch": 56, "duration": 55, "velocity": 100}, {"time": 7150, "pitch": 85, "duration": 55, "velocity": 100}, {"time": 7205, "pitch": 87, "duration": 55, "velocity": 100}, {"time": 7260, "pitch": 61, "duration": 110, "velocity": 100}, {"time": 7260, "pitch": 65, "duration": 165, "velocity": 100}, {"time": 7260, "pitch": 89, "duration": 55, "velocity": 100}, {"time": 7370, "pitch": 56, "duration": 110, "velocity": 100}, {"time": 7370, "pitch": 85, "duration": 55, "velocity": 100}, {"time": 7480, "pitch": 49, "duration": 275, "velocity": 100}, {"time": 7480, "pitch": 61, "duration": 110, "velocity": 100}, {"time": 7480, "pitch": 65, "duration": 165, "velocity": 100}, {"time": 7590, "pitch": 56, "duration": 110, "velocity": 100}, {"time": 7590, "pitch": 80, "duration": 55, "velocity": 100}, {"time": 7645, "pitch": 82, "duration": 55, "velocity": 100}, {"time": 7700, "pitch": 61, "duration": 55, "velocity": 100}, {"time": 7700, "pitch": 65, "duration": 55, "velocity": 100}, {"time": 7700, "pitch": 85, "duration": 55, "velocity": 100}, {"time": 7755, "pitch": 80, "duration": 55, "velocity": 100}, {"time": 7810, "pitch": 80, "duration": 55, "velocity": 100}, {"time": 7920, "pitch": 46, "duration": 275, "velocity": 100}, {"time": 7920, "pitch": 53, "duration": 55, "velocity": 100}, {"time": 7920, "pitch": 58, "duration": 110, "velocity": 100}, {"time": 8030, "pitch": 53, "duration": 55, "velocity": 100}, {"time": 8030, "pitch": 77, "duration": 55, "velocity": 100}, {"time": 8085, "pitch": 80, "duration": 55, "velocity": 100}, {"time": 8140, "pitch": 58, "duration": 55, "velocity": 100}, {"time": 8140, "pitch": 62, "duration": 55, "velocity": 100}, {"time": 8140, "pitch": 65, "duration": 55, "velocity": 100}, {"time": 8140, "pitch": 77, "duration": 55, "velocity": 100}, {"time": 8195, "pitch": 75, "duration": 55, "velocity": 100}, {"time": 8250, "pitch": 58, "duration": 110, "velocity": 100}, {"time": 8250, "pitch": 75, "duration": 55, "velocity": 100}, {"time": 8305, "pitch": 77, "duration": 55, "velocity": 100}, {"time": 8360, "pitch": 46, "duration": 220, "velocity": 100}, {"time": 8360, "pitch": 62, "duration": 110, "velocity": 100}, {"time": 8360, "pitch": 77, "duration": 110, "velocity": 100}, {"time": 8470, "pitch": 53, "duration": 55, "velocity": 100}, {"time": 8470, "pitch": 80, "duration": 55, "velocity": 100}, {"time": 8525, "pitch": 82, "duration": 55, "velocity": 100}, {"time": 8580, "pitch": 46, "duration": 110, "velocity": 100}, {"time": 8580, "pitch": 58, "duration": 110, "velocity": 100}, {"time": 8580, "pitch": 62, "duration": 110, "velocity": 100}, {"time": 8580, "pitch": 80, "duration": 55, "velocity": 100}, {"time": 8635, "pitch": 82, "duration": 55, "velocity": 100}, {"time": 8690, "pitch": 58, "duration": 55, "velocity": 100}, {"time": 8690, "pitch": 77, "duration": 110, "velocity": 100}, {"time": 8800, "pitch": 46, "duration": 275, "velocity": 100}, {"time": 8800, "pitch": 53, "duration": 110, "velocity": 100}, {"time": 8800, "pitch": 58, "duration": 110, "velocity": 100}, {"time": 8910, "pitch": 49, "duration": 165, "velocity": 100}, {"time": 8910, "pitch": 82, "duration": 55, "velocity": 100}, {"time": 8965, "pitch": 85, "duration": 55, "velocity": 100}, {"time": 9020, "pitch": 53, "duration": 55, "velocity": 100}, {"time": 9020, "pitch": 58, "duration": 55, "velocity": 100}, {"time": 9020, "pitch": 61, "duration": 110, "velocity": 100}, {"time": 9075, "pitch": 85, "duration": 55, "velocity": 100}, {"time": 9130, "pitch": 53, "duration": 55, "velocity": 100}, {"time": 9130, "pitch": 82, "duration": 55, "velocity": 100}, {"time": 9240, "pitch": 49, "duration": 165, "velocity": 100}, {"time": 9240, "pitch": 56, "duration": 55, "velocity": 100}, {"time": 9240, "pitch": 61, "duration": 110, "velocity": 100}, {"time": 9240, "pitch": 80, "duration": 165, "velocity": 100}, {"time": 9350, "pitch": 56, "duration": 55, "velocity": 100}, {"time": 9460, "pitch": 49, "duration": 110, "velocity": 100}, {"time": 9460, "pitch": 61, "duration": 110, "velocity": 100}, {"time": 9460, "pitch": 65, "duration": 55, "velocity": 100}, {"time": 9515, "pitch": 80, "duration": 55, "velocity": 100}, {"time": 9570, "pitch": 56, "duration": 55, "velocity": 100}, {"time": 9570, "pitch": 80, "duration": 55, "velocity": 100}, {"time": 9625, "pitch": 80, "duration": 55, "velocity": 100}, {"time": 9680, "pitch": 49, "duration": 275, "velocity": 100}, {"time": 9680, "pitch": 61, "duration": 165, "velocity": 100}, {"time": 9680, "pitch": 65, "duration": 165, "velocity": 100}, {"time": 9790, "pitch": 56, "duration": 55, "velocity": 100}, {"time": 9790, "pitch": 75, "duration": 55, "velocity": 100}, {"time": 9845, "pitch": 77, "duration": 55, "velocity": 100}, {"time": 9900, "pitch": 61, "duration": 110, "velocity": 100}, {"time": 9900, "pitch": 68, "duration": 110, "velocity": 100}, {"time": 9900, "pitch": 73, "duration": 55, "velocity": 100}, {"time": 9955, "pitch": 75, "duration": 55, "velocity": 100}, {"time": 10010, "pitch": 56, "duration": 55, "velocity": 100}, {"time": 10010, "pitch": 70, "duration": 55, "velocity": 100}, {"time": 10065, "pitch": 73, "duration": 55, "velocity": 100}, {"time": 10120, "pitch": 49, "duration": 220, "velocity": 100}, {"time": 10120, "pitch": 56, "duration": 110, "velocity": 100}, {"time": 10120, "pitch": 61, "duration": 110, "velocity": 100}, {"time": 10120, "pitch": 65, "duration": 55, "velocity": 100}, {"time": 10120, "pitch": 68, "duration": 55, "velocity": 100}, {"time": 10175, "pitch": 80, "duration": 55, "velocity": 100}, {"time": 10230, "pitch": 49, "duration": 165, "velocity": 100}, {"time": 10230, "pitch": 75, "duration": 55, "velocity": 100}, {"time": 10285, "pitch": 77, "duration": 55, "velocity": 100}, {"time": 10340, "pitch": 49, "duration": 110, "velocity": 100}, {"time": 10340, "pitch": 56, "duration": 55, "velocity": 100}, {"time": 10340, "pitch": 61, "duration": 55, "velocity": 100}, {"time": 10340, "pitch": 65, "duration": 55, "velocity": 100}, {"time": 10340, "pitch": 80, "duration": 55, "velocity": 100}, {"time": 10395, "pitch": 80, "duration": 55, "velocity": 100}, {"time": 10450, "pitch": 56, "duration": 55, "velocity": 100}, {"time": 10450, "pitch": 77, "duration": 55, "velocity": 100}, {"time": 10505, "pitch": 75, "duration": 55, "velocity": 100}, {"time": 10560, "pitch": 46, "duration": 330, "velocity": 100}, {"time": 10560, "pitch": 58, "duration": 110, "velocity": 100}, {"time": 10560, "pitch": 62, "duration": 110, "velocity": 100}, {"time": 10560, "pitch": 74, "duration": 220, "velocity": 100}, {"time": 10670, "pitch": 53, "duration": 165, "velocity": 100}, {"time": 10780, "pitch": 58, "duration": 55, "velocity": 100}, {"time": 10780, "pitch": 62, "duration": 110, "velocity": 100}, {"time": 10780, "pitch": 65, "duration": 110, "velocity": 100}, {"time": 10780, "pitch": 70, "duration": 110, "velocity": 100}, {"time": 10890, "pitch": 58, "duration": 55, "velocity": 100}, {"time": 10890, "pitch": 74, "duration": 110, "velocity": 100}, {"time": 11000, "pitch": 34, "duration": 275, "velocity": 100}, {"time": 11000, "pitch": 62, "duration": 165, "velocity": 100}, {"time": 11000, "pitch": 65, "duration": 165, "velocity": 100}, {"time": 11000, "pitch": 70, "duration": 110, "velocity": 100}, {"time": 11110, "pitch": 46, "duration": 165, "velocity": 100}, {"time": 11110, "pitch": 77, "duration": 110, "velocity": 100}, {"time": 11220, "pitch": 58, "duration": 55, "velocity": 100}, {"time": 11220, "pitch": 65, "duration": 55, "velocity": 100}, {"time": 11220, "pitch": 70, "duration": 110, "velocity": 100}, {"time": 11220, "pitch": 80, "duration": 110, "velocity": 100}, {"time": 11330, "pitch": 65, "duration": 55, "velocity": 100}, {"time": 11330, "pitch": 77, "duration": 110, "velocity": 100}, {"time": 11440, "pitch": 38, "duration": 275, "velocity": 100}, {"time": 11440, "pitch": 53, "duration": 110, "velocity": 100}, {"time": 11440, "pitch": 58, "duration": 165, "velocity": 100}, {"time": 11440, "pitch": 70, "duration": 110, "velocity": 100}, {"time": 11550, "pitch": 46, "duration": 165, "velocity": 100}, {"time": 11550, "pitch": 77, "duration": 110, "velocity": 100}, {"time": 11660, "pitch": 53, "duration": 110, "velocity": 100}, {"time": 11660, "pitch": 58, "duration": 110, "velocity": 100}, {"time": 11660, "pitch": 82, "duration": 110, "velocity": 100}, {"time": 11770, "pitch": 46, "duration": 55, "velocity": 100}, {"time": 11770, "pitch": 78, "duration": 110, "velocity": 100}, {"time": 11825, "pitch": 54, "duration": 55, "velocity": 100}, {"time": 11880, "pitch": 42, "duration": 385, "velocity": 100}, {"time": 11880, "pitch": 51, "duration": 55, "velocity": 100}, {"time": 11880, "pitch": 82, "duration": 110, "velocity": 100}, {"time": 11990, "pitch": 54, "duration": 55, "velocity": 100}, {"time": 11990, "pitch": 75, "duration": 110, "velocity": 100}, {"time": 12045, "pitch": 58, "duration": 55, "velocity": 100}, {"time": 12100, "pitch": 54, "duration": 55, "velocity": 100}, {"time": 12100, "pitch": 63, "duration": 55, "velocity": 100}, {"time": 12100, "pitch": 78, "duration": 110, "velocity": 100}, {"time": 12210, "pitch": 51, "duration": 110, "velocity": 100}, {"time": 12210, "pitch": 75, "duration": 110, "velocity": 100}]}]}