{"metadata": {"schema_version": "0.1", "title": "None", "source_filename": "20211210_085114.mid", "source_format": "midi"}, "resolution": 220, "tempos": [{"time": 0, "qpm": 120.0}], "time_signatures": [{"time": 0, "numerator": 4, "denominator": 4}], "tracks": [{"program": 73, "is_drum": false, "name": "Soprano", "notes": [{"time": 0, "pitch": 81, "duration": 165, "velocity": 100}, {"time": 220, "pitch": 81, "duration": 165, "velocity": 100}, {"time": 440, "pitch": 81, "duration": 110, "velocity": 100}, {"time": 550, "pitch": 81, "duration": 55, "velocity": 100}, {"time": 605, "pitch": 79, "duration": 110, "velocity": 100}, {"time": 1045, "pitch": 78, "duration": 110, "velocity": 100}, {"time": 1925, "pitch": 74, "duration": 110, "velocity": 100}, {"time": 2475, "pitch": 74, "duration": 110, "velocity": 100}, {"time": 3685, "pitch": 81, "duration": 110, "velocity": 100}, {"time": 3740, "pitch": 74, "duration": 55, "velocity": 100}, {"time": 3795, "pitch": 81, "duration": 110, "velocity": 100}, {"time": 3905, "pitch": 79, "duration": 55, "velocity": 100}, {"time": 3960, "pitch": 78, "duration": 110, "velocity": 100}, {"time": 4180, "pitch": 74, "duration": 55, "velocity": 100}, {"time": 4180, "pitch": 76, "duration": 110, "velocity": 100}, {"time": 4400, "pitch": 74, "duration": 165, "velocity": 100}, {"time": 4620, "pitch": 70, "duration": 55, "velocity": 100}, {"time": 4620, "pitch": 74, "duration": 55, "velocity": 100}, {"time": 4730, "pitch": 74, "duration": 55, "velocity": 100}, {"time": 4895, "pitch": 74, "duration": 110, "velocity": 100}, {"time": 4950, "pitch": 74, "duration": 55, "velocity": 100}, {"time": 5060, "pitch": 74, "duration": 55, "velocity": 100}, {"time": 5060, "pitch": 74, "duration": 110, "velocity": 100}, {"time": 5280, "pitch": 73, "duration": 220, "velocity": 100}, {"time": 5280, "pitch": 86, "duration": 880, "velocity": 100}, {"time": 5500, "pitch": 69, "duration": 110, "velocity": 100}, {"time": 5610, "pitch": 71, "duration": 55, "velocity": 100}, {"time": 6820, "pitch": 70, "duration": 220, "velocity": 100}, {"time": 7700, "pitch": 71, "duration": 220, "velocity": 100}, {"time": 8580, "pitch": 71, "duration": 220, "velocity": 100}]}, {"program": 68, "is_drum": false, "name": "Alto", "notes": [{"time": 0, "pitch": 55, "duration": 165, "velocity": 100}, {"time": 715, "pitch": 78, "duration": 110, "velocity": 100}, {"time": 825, "pitch": 76, "duration": 110, "velocity": 100}, {"time": 935, "pitch": 76, "duration": 110, "velocity": 100}, {"time": 1155, "pitch": 74, "duration": 165, "velocity": 100}, {"time": 1540, "pitch": 71, "duration": 55, "velocity": 100}, {"time": 1595, "pitch": 73, "duration": 55, "velocity": 100}, {"time": 1650, "pitch": 74, "duration": 110, "velocity": 100}, {"time": 1760, "pitch": 74, "duration": 110, "velocity": 100}, {"time": 2035, "pitch": 73, "duration": 220, "velocity": 100}, {"time": 2365, "pitch": 71, "duration": 55, "velocity": 100}, {"time": 2420, "pitch": 73, "duration": 55, "velocity": 100}, {"time": 2585, "pitch": 74, "duration": 110, "velocity": 100}, {"time": 2750, "pitch": 74, "duration": 55, "velocity": 100}, {"time": 2860, "pitch": 74, "duration": 220, "velocity": 100}, {"time": 3080, "pitch": 76, "duration": 110, "velocity": 100}, {"time": 3245, "pitch": 81, "duration": 165, "velocity": 100}, {"time": 3465, "pitch": 81, "duration": 55, "velocity": 100}, {"time": 3520, "pitch": 67, "duration": 55, "velocity": 100}, {"time": 3740, "pitch": 67, "duration": 55, "velocity": 100}, {"time": 3850, "pitch": 65, "duration": 110, "velocity": 100}, {"time": 4070, "pitch": 72, "duration": 55, "velocity": 100}, {"time": 4070, "pitch": 76, "duration": 110, "velocity": 100}, {"time": 4180, "pitch": 65, "duration": 110, "velocity": 100}, {"time": 4290, "pitch": 78, "duration": 110, "velocity": 100}, {"time": 4400, "pitch": 67, "duration": 55, "velocity": 100}, {"time": 4620, "pitch": 62, "duration": 55, "velocity": 100}, {"time": 4730, "pitch": 67, "duration": 110, "velocity": 100}, {"time": 4785, "pitch": 71, "duration": 55, "velocity": 100}, {"time": 4840, "pitch": 73, "duration": 55, "velocity": 100}, {"time": 4950, "pitch": 67, "duration": 55, "velocity": 100}, {"time": 5060, "pitch": 67, "duration": 55, "velocity": 100}, {"time": 5170, "pitch": 74, "duration": 110, "velocity": 100}, {"time": 5280, "pitch": 62, "duration": 220, "velocity": 100}, {"time": 5500, "pitch": 67, "duration": 55, "velocity": 100}, {"time": 5610, "pitch": 67, "duration": 165, "velocity": 100}, {"time": 5720, "pitch": 71, "duration": 1320, "velocity": 100}, {"time": 5940, "pitch": 67, "duration": 220, "velocity": 100}, {"time": 6160, "pitch": 82, "duration": 880, "velocity": 100}, {"time": 6380, "pitch": 67, "duration": 55, "velocity": 100}, {"time": 6380, "pitch": 70, "duration": 55, "velocity": 100}, {"time": 6490, "pitch": 67, "duration": 385, "velocity": 100}, {"time": 6820, "pitch": 67, "duration": 220, "velocity": 100}, {"time": 7040, "pitch": 83, "duration": 880, "velocity": 100}, {"time": 7150, "pitch": 71, "duration": 1650, "velocity": 100}, {"time": 7260, "pitch": 71, "duration": 55, "velocity": 100}, {"time": 7370, "pitch": 71, "duration": 165, "velocity": 100}, {"time": 7700, "pitch": 66, "duration": 220, "velocity": 100}, {"time": 7920, "pitch": 86, "duration": 880, "velocity": 100}, {"time": 8140, "pitch": 66, "duration": 55, "velocity": 100}, {"time": 8140, "pitch": 71, "duration": 55, "velocity": 100}, {"time": 8250, "pitch": 66, "duration": 275, "velocity": 100}, {"time": 8250, "pitch": 71, "duration": 275, "velocity": 100}, {"time": 8580, "pitch": 66, "duration": 220, "velocity": 100}]}, {"program": 70, "is_drum": false, "name": "Tenor", "notes": [{"time": 0, "pitch": 50, "duration": 165, "velocity": 100}, {"time": 220, "pitch": 58, "duration": 220, "velocity": 100}, {"time": 660, "pitch": 55, "duration": 220, "velocity": 100}, {"time": 1100, "pitch": 58, "duration": 55, "velocity": 100}, {"time": 1540, "pitch": 58, "duration": 55, "velocity": 100}, {"time": 1760, "pitch": 50, "duration": 165, "velocity": 100}, {"time": 1760, "pitch": 55, "duration": 165, "velocity": 100}, {"time": 1980, "pitch": 58, "duration": 220, "velocity": 100}, {"time": 2310, "pitch": 50, "duration": 55, "velocity": 100}, {"time": 2420, "pitch": 55, "duration": 220, "velocity": 100}, {"time": 2420, "pitch": 58, "duration": 220, "velocity": 100}, {"time": 3300, "pitch": 55, "duration": 220, "velocity": 100}, {"time": 3520, "pitch": 55, "duration": 385, "velocity": 100}, {"time": 3740, "pitch": 58, "duration": 55, "velocity": 100}, {"time": 3740, "pitch": 62, "duration": 55, "velocity": 100}, {"time": 3850, "pitch": 62, "duration": 220, "velocity": 100}, {"time": 3960, "pitch": 67, "duration": 55, "velocity": 100}, {"time": 4180, "pitch": 62, "duration": 110, "velocity": 100}, {"time": 4400, "pitch": 55, "duration": 220, "velocity": 100}, {"time": 4620, "pitch": 55, "duration": 55, "velocity": 100}, {"time": 4620, "pitch": 58, "duration": 55, "velocity": 100}, {"time": 4730, "pitch": 62, "duration": 110, "velocity": 100}, {"time": 4840, "pitch": 67, "duration": 55, "velocity": 100}, {"time": 4950, "pitch": 58, "duration": 55, "velocity": 100}, {"time": 4950, "pitch": 62, "duration": 55, "velocity": 100}, {"time": 5060, "pitch": 62, "duration": 55, "velocity": 100}, {"time": 5225, "pitch": 60, "duration": 55, "velocity": 100}, {"time": 5280, "pitch": 55, "duration": 440, "velocity": 100}, {"time": 5500, "pitch": 62, "duration": 55, "velocity": 100}, {"time": 5610, "pitch": 62, "duration": 165, "velocity": 100}, {"time": 5940, "pitch": 62, "duration": 220, "velocity": 100}, {"time": 6160, "pitch": 55, "duration": 385, "velocity": 100}, {"time": 6380, "pitch": 62, "duration": 55, "velocity": 100}, {"time": 6490, "pitch": 62, "duration": 220, "velocity": 100}, {"time": 6820, "pitch": 62, "duration": 220, "velocity": 100}, {"time": 7040, "pitch": 59, "duration": 385, "velocity": 100}, {"time": 7260, "pitch": 62, "duration": 55, "velocity": 100}, {"time": 7260, "pitch": 66, "duration": 55, "velocity": 100}, {"time": 7370, "pitch": 62, "duration": 165, "velocity": 100}, {"time": 7370, "pitch": 66, "duration": 220, "velocity": 100}, {"time": 7700, "pitch": 62, "duration": 220, "velocity": 100}, {"time": 8140, "pitch": 62, "duration": 55, "velocity": 100}, {"time": 8250, "pitch": 62, "duration": 385, "velocity": 100}, {"time": 8580, "pitch": 62, "duration": 220, "velocity": 100}]}, {"program": 71, "is_drum": false, "name": "Bass", "notes": [{"time": 0, "pitch": 43, "duration": 385, "velocity": 100}, {"time": 220, "pitch": 50, "duration": 55, "velocity": 100}, {"time": 330, "pitch": 50, "duration": 165, "velocity": 100}, {"time": 440, "pitch": 43, "duration": 330, "velocity": 100}, {"time": 550, "pitch": 50, "duration": 55, "velocity": 100}, {"time": 660, "pitch": 50, "duration": 55, "velocity": 100}, {"time": 770, "pitch": 50, "duration": 165, "velocity": 100}, {"time": 880, "pitch": 43, "duration": 770, "velocity": 100}, {"time": 1100, "pitch": 50, "duration": 55, "velocity": 100}, {"time": 1210, "pitch": 50, "duration": 55, "velocity": 100}, {"time": 1320, "pitch": 55, "duration": 55, "velocity": 100}, {"time": 1430, "pitch": 50, "duration": 55, "velocity": 100}, {"time": 1540, "pitch": 50, "duration": 55, "velocity": 100}, {"time": 1650, "pitch": 50, "duration": 55, "velocity": 100}, {"time": 1760, "pitch": 43, "duration": 385, "velocity": 100}, {"time": 1980, "pitch": 50, "duration": 220, "velocity": 100}, {"time": 2090, "pitch": 50, "duration": 110, "velocity": 100}, {"time": 2200, "pitch": 43, "duration": 275, "velocity": 100}, {"time": 2530, "pitch": 50, "duration": 165, "velocity": 100}, {"time": 2640, "pitch": 43, "duration": 275, "velocity": 100}, {"time": 2860, "pitch": 55, "duration": 220, "velocity": 100}, {"time": 2970, "pitch": 50, "duration": 110, "velocity": 100}, {"time": 3080, "pitch": 31, "duration": 275, "velocity": 100}, {"time": 3190, "pitch": 43, "duration": 220, "velocity": 100}, {"time": 3300, "pitch": 46, "duration": 220, "velocity": 100}, {"time": 3300, "pitch": 50, "duration": 220, "velocity": 100}, {"time": 3410, "pitch": 46, "duration": 110, "velocity": 100}, {"time": 3520, "pitch": 43, "duration": 385, "velocity": 100}, {"time": 3850, "pitch": 58, "duration": 220, "velocity": 100}, {"time": 3960, "pitch": 50, "duration": 275, "velocity": 100}, {"time": 4180, "pitch": 58, "duration": 110, "velocity": 100}, {"time": 4235, "pitch": 60, "duration": 55, "velocity": 100}, {"time": 4290, "pitch": 58, "duration": 55, "velocity": 100}, {"time": 4345, "pitch": 57, "duration": 55, "velocity": 100}, {"time": 4400, "pitch": 43, "duration": 385, "velocity": 100}, {"time": 4620, "pitch": 43, "duration": 165, "velocity": 100}, {"time": 4730, "pitch": 58, "duration": 165, "velocity": 100}, {"time": 4840, "pitch": 50, "duration": 275, "velocity": 100}, {"time": 4950, "pitch": 55, "duration": 55, "velocity": 100}, {"time": 5005, "pitch": 57, "duration": 55, "velocity": 100}, {"time": 5060, "pitch": 58, "duration": 55, "velocity": 100}, {"time": 5115, "pitch": 57, "duration": 55, "velocity": 100}, {"time": 5170, "pitch": 58, "duration": 55, "velocity": 100}, {"time": 5280, "pitch": 43, "duration": 385, "velocity": 100}, {"time": 5500, "pitch": 58, "duration": 55, "velocity": 100}, {"time": 5610, "pitch": 58, "duration": 165, "velocity": 100}, {"time": 5720, "pitch": 50, "duration": 385, "velocity": 100}, {"time": 5940, "pitch": 58, "duration": 220, "velocity": 100}, {"time": 6160, "pitch": 43, "duration": 385, "velocity": 100}, {"time": 6490, "pitch": 58, "duration": 220, "velocity": 100}, {"time": 6600, "pitch": 50, "duration": 275, "velocity": 100}, {"time": 7040, "pitch": 47, "duration": 385, "velocity": 100}, {"time": 7480, "pitch": 54, "duration": 275, "velocity": 100}, {"time": 7920, "pitch": 42, "duration": 275, "velocity": 100}, {"time": 7920, "pitch": 47, "duration": 385, "velocity": 100}, {"time": 8360, "pitch": 47, "duration": 275, "velocity": 100}]}]}