{"metadata": {"schema_version": "0.1", "title": "None", "source_filename": "20211215_144937.mid", "source_format": "midi"}, "resolution": 220, "tempos": [{"time": 0, "qpm": 120.0}], "time_signatures": [{"time": 0, "numerator": 4, "denominator": 4}], "tracks": [{"program": 40, "is_drum": false, "name": "Violin 1", "notes": [{"time": 0, "pitch": 61, "duration": 110, "velocity": 100}, {"time": 0, "pitch": 64, "duration": 110, "velocity": 100}, {"time": 0, "pitch": 81, "duration": 220, "velocity": 100}, {"time": 220, "pitch": 61, "duration": 55, "velocity": 100}, {"time": 220, "pitch": 64, "duration": 55, "velocity": 100}, {"time": 220, "pitch": 69, "duration": 55, "velocity": 100}, {"time": 220, "pitch": 80, "duration": 220, "velocity": 100}, {"time": 385, "pitch": 61, "duration": 55, "velocity": 100}, {"time": 440, "pitch": 45, "duration": 220, "velocity": 100}, {"time": 440, "pitch": 61, "duration": 55, "velocity": 100}, {"time": 440, "pitch": 64, "duration": 55, "velocity": 100}, {"time": 440, "pitch": 81, "duration": 220, "velocity": 100}, {"time": 550, "pitch": 61, "duration": 55, "velocity": 100}, {"time": 660, "pitch": 61, "duration": 55, "velocity": 100}, {"time": 660, "pitch": 64, "duration": 55, "velocity": 100}, {"time": 660, "pitch": 69, "duration": 55, "velocity": 100}, {"time": 660, "pitch": 69, "duration": 220, "velocity": 100}, {"time": 880, "pitch": 38, "duration": 275, "velocity": 100}, {"time": 880, "pitch": 57, "duration": 110, "velocity": 100}, {"time": 880, "pitch": 62, "duration": 110, "velocity": 100}, {"time": 880, "pitch": 78, "duration": 165, "velocity": 100}, {"time": 990, "pitch": 54, "duration": 110, "velocity": 100}, {"time": 1045, "pitch": 76, "duration": 55, "velocity": 100}, {"time": 1100, "pitch": 57, "duration": 55, "velocity": 100}, {"time": 1100, "pitch": 62, "duration": 55, "velocity": 100}, {"time": 1100, "pitch": 66, "duration": 55, "velocity": 100}, {"time": 1100, "pitch": 74, "duration": 165, "velocity": 100}, {"time": 1265, "pitch": 61, "duration": 55, "velocity": 100}, {"time": 1265, "pitch": 78, "duration": 55, "velocity": 100}, {"time": 1320, "pitch": 45, "duration": 275, "velocity": 100}, {"time": 1320, "pitch": 64, "duration": 110, "velocity": 100}, {"time": 1320, "pitch": 76, "duration": 220, "velocity": 100}, {"time": 1485, "pitch": 57, "duration": 55, "velocity": 100}, {"time": 1540, "pitch": 61, "duration": 55, "velocity": 100}, {"time": 1540, "pitch": 64, "duration": 55, "velocity": 100}, {"time": 1540, "pitch": 69, "duration": 55, "velocity": 100}, {"time": 1540, "pitch": 73, "duration": 165, "velocity": 100}, {"time": 1650, "pitch": 61, "duration": 55, "velocity": 100}, {"time": 1705, "pitch": 69, "duration": 55, "velocity": 100}, {"time": 1760, "pitch": 50, "duration": 220, "velocity": 100}, {"time": 1760, "pitch": 62, "duration": 110, "velocity": 100}, {"time": 1760, "pitch": 64, "duration": 110, "velocity": 100}, {"time": 1760, "pitch": 71, "duration": 220, "velocity": 100}, {"time": 1980, "pitch": 62, "duration": 55, "velocity": 100}, {"time": 1980, "pitch": 68, "duration": 55, "velocity": 100}, {"time": 1980, "pitch": 70, "duration": 220, "velocity": 100}, {"time": 2090, "pitch": 52, "duration": 55, "velocity": 100}, {"time": 2145, "pitch": 62, "duration": 55, "velocity": 100}, {"time": 2200, "pitch": 44, "duration": 275, "velocity": 100}, {"time": 2200, "pitch": 59, "duration": 110, "velocity": 100}, {"time": 2200, "pitch": 64, "duration": 110, "velocity": 100}, {"time": 2200, "pitch": 71, "duration": 220, "velocity": 100}, {"time": 2365, "pitch": 59, "duration": 55, "velocity": 100}, {"time": 2420, "pitch": 59, "duration": 55, "velocity": 100}, {"time": 2420, "pitch": 64, "duration": 110, "velocity": 100}, {"time": 2420, "pitch": 64, "duration": 220, "velocity": 100}, {"time": 2420, "pitch": 68, "duration": 110, "velocity": 100}, {"time": 2530, "pitch": 59, "duration": 55, "velocity": 100}, {"time": 2640, "pitch": 40, "duration": 275, "velocity": 100}, {"time": 2640, "pitch": 59, "duration": 110, "velocity": 100}, {"time": 2640, "pitch": 64, "duration": 165, "velocity": 100}, {"time": 2640, "pitch": 68, "duration": 110, "velocity": 100}, {"time": 2805, "pitch": 69, "duration": 55, "velocity": 100}, {"time": 2860, "pitch": 59, "duration": 110, "velocity": 100}, {"time": 2860, "pitch": 62, "duration": 110, "velocity": 100}, {"time": 2860, "pitch": 68, "duration": 165, "velocity": 100}, {"time": 2860, "pitch": 68, "duration": 165, "velocity": 100}, {"time": 2970, "pitch": 44, "duration": 55, "velocity": 100}, {"time": 3025, "pitch": 56, "duration": 55, "velocity": 100}, {"time": 3025, "pitch": 71, "duration": 55, "velocity": 100}, {"time": 3080, "pitch": 45, "duration": 220, "velocity": 100}, {"time": 3080, "pitch": 57, "duration": 110, "velocity": 100}, {"time": 3080, "pitch": 61, "duration": 110, "velocity": 100}, {"time": 3080, "pitch": 69, "duration": 165, "velocity": 100}, {"time": 3190, "pitch": 52, "duration": 110, "velocity": 100}, {"time": 3245, "pitch": 57, "duration": 110, "velocity": 100}, {"time": 3245, "pitch": 73, "duration": 55, "velocity": 100}, {"time": 3300, "pitch": 61, "duration": 165, "velocity": 100}, {"time": 3300, "pitch": 64, "duration": 165, "velocity": 100}, {"time": 3300, "pitch": 69, "duration": 165, "velocity": 100}, {"time": 3300, "pitch": 76, "duration": 165, "velocity": 100}, {"time": 3410, "pitch": 52, "duration": 55, "velocity": 100}, {"time": 3465, "pitch": 80, "duration": 55, "velocity": 100}, {"time": 3520, "pitch": 49, "duration": 275, "velocity": 100}, {"time": 3520, "pitch": 61, "duration": 110, "velocity": 100}, {"time": 3520, "pitch": 64, "duration": 110, "velocity": 100}, {"time": 3520, "pitch": 81, "duration": 220, "velocity": 100}, {"time": 3740, "pitch": 61, "duration": 55, "velocity": 100}, {"time": 3740, "pitch": 64, "duration": 110, "velocity": 100}, {"time": 3740, "pitch": 69, "duration": 110, "velocity": 100}, {"time": 3740, "pitch": 80, "duration": 220, "velocity": 100}, {"time": 3905, "pitch": 61, "duration": 55, "velocity": 100}, {"time": 3960, "pitch": 45, "duration": 220, "velocity": 100}, {"time": 3960, "pitch": 61, "duration": 55, "velocity": 100}, {"time": 3960, "pitch": 64, "duration": 110, "velocity": 100}, {"time": 3960, "pitch": 81, "duration": 220, "velocity": 100}, {"time": 4070, "pitch": 59, "duration": 55, "velocity": 100}, {"time": 4180, "pitch": 61, "duration": 55, "velocity": 100}, {"time": 4180, "pitch": 64, "duration": 55, "velocity": 100}, {"time": 4180, "pitch": 69, "duration": 55, "velocity": 100}, {"time": 4180, "pitch": 69, "duration": 220, "velocity": 100}, {"time": 4400, "pitch": 38, "duration": 275, "velocity": 100}, {"time": 4400, "pitch": 57, "duration": 55, "velocity": 100}, {"time": 4400, "pitch": 62, "duration": 110, "velocity": 100}, {"time": 4400, "pitch": 66, "duration": 110, "velocity": 100}, {"time": 4400, "pitch": 78, "duration": 165, "velocity": 100}, {"time": 4510, "pitch": 54, "duration": 110, "velocity": 100}, {"time": 4565, "pitch": 76, "duration": 55, "velocity": 100}, {"time": 4620, "pitch": 57, "duration": 55, "velocity": 100}, {"time": 4620, "pitch": 62, "duration": 55, "velocity": 100}, {"time": 4620, "pitch": 66, "duration": 55, "velocity": 100}, {"time": 4620, "pitch": 74, "duration": 165, "velocity": 100}, {"time": 4785, "pitch": 59, "duration": 55, "velocity": 100}, {"time": 4785, "pitch": 78, "duration": 55, "velocity": 100}, {"time": 4840, "pitch": 45, "duration": 275, "velocity": 100}, {"time": 4840, "pitch": 61, "duration": 110, "velocity": 100}, {"time": 4840, "pitch": 64, "duration": 110, "velocity": 100}, {"time": 4840, "pitch": 76, "duration": 220, "velocity": 100}, {"time": 5005, "pitch": 61, "duration": 55, "velocity": 100}, {"time": 5005, "pitch": 73, "duration": 55, "velocity": 100}, {"time": 5060, "pitch": 61, "duration": 55, "velocity": 100}, {"time": 5060, "pitch": 64, "duration": 55, "velocity": 100}, {"time": 5060, "pitch": 69, "duration": 110, "velocity": 100}, {"time": 5060, "pitch": 73, "duration": 165, "velocity": 100}, {"time": 5060, "pitch": 76, "duration": 110, "velocity": 100}, {"time": 5170, "pitch": 61, "duration": 55, "velocity": 100}, {"time": 5170, "pitch": 76, "duration": 110, "velocity": 100}, {"time": 5225, "pitch": 69, "duration": 55, "velocity": 100}, {"time": 5280, "pitch": 50, "duration": 275, "velocity": 100}, {"time": 5280, "pitch": 62, "duration": 55, "velocity": 100}, {"time": 5280, "pitch": 68, "duration": 110, "velocity": 100}, {"time": 5280, "pitch": 71, "duration": 220, "velocity": 100}, {"time": 5280, "pitch": 74, "duration": 440, "velocity": 100}, {"time": 5500, "pitch": 62, "duration": 55, "velocity": 100}, {"time": 5500, "pitch": 68, "duration": 55, "velocity": 100}, {"time": 5500, "pitch": 70, "duration": 220, "velocity": 100}, {"time": 5610, "pitch": 52, "duration": 55, "velocity": 100}, {"time": 5665, "pitch": 62, "duration": 55, "velocity": 100}, {"time": 5720, "pitch": 44, "duration": 275, "velocity": 100}, {"time": 5720, "pitch": 59, "duration": 110, "velocity": 100}, {"time": 5720, "pitch": 64, "duration": 165, "velocity": 100}, {"time": 5720, "pitch": 71, "duration": 220, "velocity": 100}, {"time": 5885, "pitch": 59, "duration": 55, "velocity": 100}, {"time": 5940, "pitch": 59, "duration": 110, "velocity": 100}, {"time": 5940, "pitch": 64, "duration": 110, "velocity": 100}, {"time": 5940, "pitch": 64, "duration": 220, "velocity": 100}, {"time": 5940, "pitch": 68, "duration": 110, "velocity": 100}, {"time": 6050, "pitch": 59, "duration": 55, "velocity": 100}, {"time": 6050, "pitch": 76, "duration": 110, "velocity": 100}, {"time": 6160, "pitch": 40, "duration": 275, "velocity": 100}, {"time": 6160, "pitch": 59, "duration": 110, "velocity": 100}, {"time": 6160, "pitch": 64, "duration": 110, "velocity": 100}, {"time": 6160, "pitch": 64, "duration": 165, "velocity": 100}, {"time": 6160, "pitch": 74, "duration": 385, "velocity": 100}, {"time": 6325, "pitch": 69, "duration": 55, "velocity": 100}, {"time": 6380, "pitch": 59, "duration": 110, "velocity": 100}, {"time": 6380, "pitch": 62, "duration": 110, "velocity": 100}, {"time": 6380, "pitch": 68, "duration": 165, "velocity": 100}, {"time": 6380, "pitch": 68, "duration": 220, "velocity": 100}, {"time": 6490, "pitch": 44, "duration": 55, "velocity": 100}, {"time": 6545, "pitch": 56, "duration": 55, "velocity": 100}, {"time": 6545, "pitch": 71, "duration": 55, "velocity": 100}, {"time": 6600, "pitch": 45, "duration": 275, "velocity": 100}, {"time": 6600, "pitch": 57, "duration": 110, "velocity": 100}, {"time": 6600, "pitch": 61, "duration": 110, "velocity": 100}, {"time": 6600, "pitch": 69, "duration": 440, "velocity": 100}, {"time": 6710, "pitch": 52, "duration": 110, "velocity": 100}, {"time": 6765, "pitch": 57, "duration": 110, "velocity": 100}, {"time": 6820, "pitch": 61, "duration": 165, "velocity": 100}, {"time": 6820, "pitch": 64, "duration": 165, "velocity": 100}, {"time": 6820, "pitch": 69, "duration": 220, "velocity": 100}, {"time": 6930, "pitch": 52, "duration": 55, "velocity": 100}, {"time": 7040, "pitch": 49, "duration": 275, "velocity": 100}, {"time": 7040, "pitch": 61, "duration": 110, "velocity": 100}, {"time": 7040, "pitch": 64, "duration": 110, "velocity": 100}, {"time": 7040, "pitch": 73, "duration": 220, "velocity": 100}, {"time": 7260, "pitch": 61, "duration": 55, "velocity": 100}, {"time": 7260, "pitch": 64, "duration": 55, "velocity": 100}, {"time": 7260, "pitch": 69, "duration": 110, "velocity": 100}, {"time": 7260, "pitch": 81, "duration": 220, "velocity": 100}, {"time": 7425, "pitch": 61, "duration": 55, "velocity": 100}, {"time": 7480, "pitch": 45, "duration": 220, "velocity": 100}, {"time": 7480, "pitch": 61, "duration": 55, "velocity": 100}, {"time": 7480, "pitch": 64, "duration": 110, "velocity": 100}, {"time": 7480, "pitch": 73, "duration": 220, "velocity": 100}, {"time": 7590, "pitch": 59, "duration": 55, "velocity": 100}, {"time": 7700, "pitch": 61, "duration": 55, "velocity": 100}, {"time": 7700, "pitch": 64, "duration": 55, "velocity": 100}, {"time": 7700, "pitch": 69, "duration": 55, "velocity": 100}, {"time": 7700, "pitch": 73, "duration": 165, "velocity": 100}, {"time": 7865, "pitch": 74, "duration": 55, "velocity": 100}, {"time": 7920, "pitch": 47, "duration": 275, "velocity": 100}, {"time": 7920, "pitch": 59, "duration": 110, "velocity": 100}, {"time": 7920, "pitch": 62, "duration": 110, "velocity": 100}, {"time": 7920, "pitch": 66, "duration": 55, "velocity": 100}, {"time": 7920, "pitch": 71, "duration": 220, "velocity": 100}, {"time": 8030, "pitch": 54, "duration": 110, "velocity": 100}, {"time": 8140, "pitch": 59, "duration": 55, "velocity": 100}, {"time": 8140, "pitch": 62, "duration": 55, "velocity": 100}, {"time": 8140, "pitch": 66, "duration": 55, "velocity": 100}, {"time": 8140, "pitch": 83, "duration": 220, "velocity": 100}, {"time": 8305, "pitch": 59, "duration": 55, "velocity": 100}, {"time": 8360, "pitch": 38, "duration": 275, "velocity": 100}, {"time": 8360, "pitch": 59, "duration": 55, "velocity": 100}, {"time": 8360, "pitch": 66, "duration": 110, "velocity": 100}, {"time": 8360, "pitch": 71, "duration": 220, "velocity": 100}, {"time": 8525, "pitch": 59, "duration": 55, "velocity": 100}, {"time": 8580, "pitch": 59, "duration": 55, "velocity": 100}, {"time": 8580, "pitch": 66, "duration": 55, "velocity": 100}, {"time": 8580, "pitch": 69, "duration": 55, "velocity": 100}, {"time": 8580, "pitch": 71, "duration": 165, "velocity": 100}, {"time": 8690, "pitch": 59, "duration": 55, "velocity": 100}, {"time": 8745, "pitch": 73, "duration": 55, "velocity": 100}, {"time": 8800, "pitch": 50, "duration": 220, "velocity": 100}, {"time": 8800, "pitch": 62, "duration": 110, "velocity": 100}, {"time": 8800, "pitch": 66, "duration": 110, "velocity": 100}, {"time": 8800, "pitch": 74, "duration": 165, "velocity": 100}, {"time": 8965, "pitch": 76, "duration": 55, "velocity": 100}, {"time": 9020, "pitch": 62, "duration": 55, "velocity": 100}, {"time": 9020, "pitch": 66, "duration": 55, "velocity": 100}, {"time": 9020, "pitch": 69, "duration": 55, "velocity": 100}, {"time": 9020, "pitch": 78, "duration": 165, "velocity": 100}, {"time": 9130, "pitch": 50, "duration": 55, "velocity": 100}, {"time": 9185, "pitch": 62, "duration": 55, "velocity": 100}, {"time": 9185, "pitch": 80, "duration": 55, "velocity": 100}, {"time": 9240, "pitch": 50, "duration": 275, "velocity": 100}, {"time": 9240, "pitch": 57, "duration": 110, "velocity": 100}, {"time": 9240, "pitch": 66, "duration": 110, "velocity": 100}, {"time": 9240, "pitch": 81, "duration": 220, "velocity": 100}, {"time": 9405, "pitch": 57, "duration": 55, "velocity": 100}, {"time": 9460, "pitch": 62, "duration": 55, "velocity": 100}, {"time": 9460, "pitch": 66, "duration": 110, "velocity": 100}, {"time": 9460, "pitch": 69, "duration": 110, "velocity": 100}, {"time": 9460, "pitch": 80, "duration": 165, "velocity": 100}, {"time": 9570, "pitch": 62, "duration": 55, "velocity": 100}, {"time": 9625, "pitch": 78, "duration": 55, "velocity": 100}, {"time": 9680, "pitch": 40, "duration": 275, "velocity": 100}, {"time": 9680, "pitch": 59, "duration": 110, "velocity": 100}, {"time": 9680, "pitch": 68, "duration": 110, "velocity": 100}, {"time": 9680, "pitch": 76, "duration": 165, "velocity": 100}, {"time": 9845, "pitch": 74, "duration": 55, "velocity": 100}, {"time": 9900, "pitch": 59, "duration": 110, "velocity": 100}, {"time": 9900, "pitch": 64, "duration": 110, "velocity": 100}, {"time": 9900, "pitch": 68, "duration": 220, "velocity": 100}, {"time": 9900, "pitch": 73, "duration": 165, "velocity": 100}, {"time": 10010, "pitch": 47, "duration": 55, "velocity": 100}, {"time": 10065, "pitch": 56, "duration": 55, "velocity": 100}, {"time": 10065, "pitch": 71, "duration": 55, "velocity": 100}, {"time": 10120, "pitch": 45, "duration": 275, "velocity": 100}, {"time": 10120, "pitch": 57, "duration": 110, "velocity": 100}, {"time": 10120, "pitch": 61, "duration": 110, "velocity": 100}, {"time": 10120, "pitch": 73, "duration": 220, "velocity": 100}, {"time": 10230, "pitch": 52, "duration": 110, "velocity": 100}, {"time": 10285, "pitch": 57, "duration": 110, "velocity": 100}, {"time": 10340, "pitch": 61, "duration": 165, "velocity": 100}, {"time": 10340, "pitch": 64, "duration": 165, "velocity": 100}, {"time": 10340, "pitch": 69, "duration": 220, "velocity": 100}, {"time": 10340, "pitch": 69, "duration": 220, "velocity": 100}, {"time": 10450, "pitch": 52, "duration": 55, "velocity": 100}, {"time": 10560, "pitch": 49, "duration": 275, "velocity": 100}, {"time": 10560, "pitch": 61, "duration": 55, "velocity": 100}, {"time": 10560, "pitch": 64, "duration": 110, "velocity": 100}, {"time": 10560, "pitch": 73, "duration": 220, "velocity": 100}, {"time": 10780, "pitch": 61, "duration": 55, "velocity": 100}, {"time": 10780, "pitch": 64, "duration": 110, "velocity": 100}, {"time": 10780, "pitch": 69, "duration": 220, "velocity": 100}, {"time": 10780, "pitch": 81, "duration": 220, "velocity": 100}, {"time": 10945, "pitch": 61, "duration": 55, "velocity": 100}, {"time": 11000, "pitch": 45, "duration": 220, "velocity": 100}, {"time": 11000, "pitch": 61, "duration": 110, "velocity": 100}, {"time": 11000, "pitch": 64, "duration": 110, "velocity": 100}, {"time": 11000, "pitch": 73, "duration": 220, "velocity": 100}, {"time": 11110, "pitch": 61, "duration": 55, "velocity": 100}, {"time": 11220, "pitch": 61, "duration": 55, "velocity": 100}, {"time": 11220, "pitch": 64, "duration": 55, "velocity": 100}, {"time": 11220, "pitch": 69, "duration": 55, "velocity": 100}, {"time": 11220, "pitch": 73, "duration": 165, "velocity": 100}, {"time": 11385, "pitch": 74, "duration": 55, "velocity": 100}, {"time": 11440, "pitch": 47, "duration": 275, "velocity": 100}, {"time": 11440, "pitch": 59, "duration": 110, "velocity": 100}, {"time": 11440, "pitch": 62, "duration": 110, "velocity": 100}, {"time": 11440, "pitch": 66, "duration": 110, "velocity": 100}, {"time": 11440, "pitch": 71, "duration": 220, "velocity": 100}, {"time": 11550, "pitch": 54, "duration": 110, "velocity": 100}, {"time": 11660, "pitch": 59, "duration": 55, "velocity": 100}, {"time": 11660, "pitch": 62, "duration": 55, "velocity": 100}, {"time": 11660, "pitch": 66, "duration": 55, "velocity": 100}, {"time": 11660, "pitch": 83, "duration": 220, "velocity": 100}, {"time": 11825, "pitch": 59, "duration": 55, "velocity": 100}, {"time": 11880, "pitch": 35, "duration": 275, "velocity": 100}, {"time": 11880, "pitch": 59, "duration": 55, "velocity": 100}, {"time": 11880, "pitch": 66, "duration": 110, "velocity": 100}, {"time": 11880, "pitch": 71, "duration": 220, "velocity": 100}, {"time": 12045, "pitch": 59, "duration": 55, "velocity": 100}, {"time": 12045, "pitch": 71, "duration": 55, "velocity": 100}, {"time": 12100, "pitch": 59, "duration": 55, "velocity": 100}, {"time": 12100, "pitch": 66, "duration": 55, "velocity": 100}, {"time": 12100, "pitch": 71, "duration": 110, "velocity": 100}, {"time": 12100, "pitch": 71, "duration": 165, "velocity": 100}, {"time": 12100, "pitch": 76, "duration": 110, "velocity": 100}, {"time": 12210, "pitch": 59, "duration": 55, "velocity": 100}, {"time": 12210, "pitch": 76, "duration": 110, "velocity": 100}, {"time": 12265, "pitch": 73, "duration": 55, "velocity": 100}, {"time": 12320, "pitch": 50, "duration": 275, "velocity": 100}, {"time": 12320, "pitch": 62, "duration": 110, "velocity": 100}, {"time": 12320, "pitch": 66, "duration": 55, "velocity": 100}, {"time": 12320, "pitch": 74, "duration": 165, "velocity": 100}, {"time": 12320, "pitch": 74, "duration": 440, "velocity": 100}, {"time": 12485, "pitch": 73, "duration": 55, "velocity": 100}, {"time": 12540, "pitch": 62, "duration": 55, "velocity": 100}, {"time": 12540, "pitch": 66, "duration": 55, "velocity": 100}, {"time": 12540, "pitch": 69, "duration": 55, "velocity": 100}, {"time": 12540, "pitch": 74, "duration": 165, "velocity": 100}, {"time": 12650, "pitch": 50, "duration": 55, "velocity": 100}, {"time": 12705, "pitch": 62, "duration": 55, "velocity": 100}, {"time": 12705, "pitch": 76, "duration": 55, "velocity": 100}, {"time": 12760, "pitch": 50, "duration": 275, "velocity": 100}, {"time": 12760, "pitch": 62, "duration": 110, "velocity": 100}, {"time": 12760, "pitch": 66, "duration": 165, "velocity": 100}, {"time": 12760, "pitch": 78, "duration": 165, "velocity": 100}, {"time": 12925, "pitch": 57, "duration": 55, "velocity": 100}, {"time": 12925, "pitch": 80, "duration": 55, "velocity": 100}, {"time": 12980, "pitch": 62, "duration": 55, "velocity": 100}, {"time": 12980, "pitch": 66, "duration": 110, "velocity": 100}, {"time": 12980, "pitch": 69, "duration": 110, "velocity": 100}, {"time": 12980, "pitch": 81, "duration": 165, "velocity": 100}, {"time": 13090, "pitch": 62, "duration": 55, "velocity": 100}, {"time": 13090, "pitch": 76, "duration": 110, "velocity": 100}, {"time": 13145, "pitch": 78, "duration": 55, "velocity": 100}, {"time": 13200, "pitch": 40, "duration": 275, "velocity": 100}, {"time": 13200, "pitch": 59, "duration": 110, "velocity": 100}, {"time": 13200, "pitch": 64, "duration": 110, "velocity": 100}, {"time": 13200, "pitch": 74, "duration": 385, "velocity": 100}, {"time": 13200, "pitch": 76, "duration": 110, "velocity": 100}, {"time": 13310, "pitch": 78, "duration": 110, "velocity": 100}, {"time": 13420, "pitch": 59, "duration": 110, "velocity": 100}, {"time": 13420, "pitch": 64, "duration": 110, "velocity": 100}, {"time": 13420, "pitch": 68, "duration": 110, "velocity": 100}, {"time": 13420, "pitch": 74, "duration": 110, "velocity": 100}, {"time": 13530, "pitch": 40, "duration": 55, "velocity": 100}, {"time": 13530, "pitch": 73, "duration": 110, "velocity": 100}, {"time": 13585, "pitch": 56, "duration": 55, "velocity": 100}, {"time": 13640, "pitch": 45, "duration": 275, "velocity": 100}, {"time": 13640, "pitch": 57, "duration": 110, "velocity": 100}, {"time": 13640, "pitch": 61, "duration": 110, "velocity": 100}, {"time": 13640, "pitch": 69, "duration": 220, "velocity": 100}, {"time": 13750, "pitch": 52, "duration": 110, "velocity": 100}, {"time": 13805, "pitch": 57, "duration": 165, "velocity": 100}, {"time": 13860, "pitch": 61, "duration": 165, "velocity": 100}, {"time": 13860, "pitch": 64, "duration": 220, "velocity": 100}, {"time": 13860, "pitch": 69, "duration": 220, "velocity": 100}, {"time": 13860, "pitch": 76, "duration": 110, "velocity": 100}, {"time": 13970, "pitch": 52, "duration": 110, "velocity": 100}, {"time": 13970, "pitch": 78, "duration": 110, "velocity": 100}, {"time": 14080, "pitch": 49, "duration": 275, "velocity": 100}, {"time": 14080, "pitch": 61, "duration": 110, "velocity": 100}, {"time": 14080, "pitch": 64, "duration": 110, "velocity": 100}, {"time": 14080, "pitch": 81, "duration": 220, "velocity": 100}, {"time": 14300, "pitch": 61, "duration": 55, "velocity": 100}, {"time": 14300, "pitch": 64, "duration": 55, "velocity": 100}, {"time": 14300, "pitch": 69, "duration": 55, "velocity": 100}, {"time": 14300, "pitch": 80, "duration": 220, "velocity": 100}, {"time": 14465, "pitch": 61, "duration": 55, "velocity": 100}, {"time": 14520, "pitch": 45, "duration": 220, "velocity": 100}, {"time": 14520, "pitch": 61, "duration": 55, "velocity": 100}, {"time": 14520, "pitch": 64, "duration": 55, "velocity": 100}, {"time": 14520, "pitch": 81, "duration": 220, "velocity": 100}, {"time": 14630, "pitch": 61, "duration": 55, "velocity": 100}, {"time": 14740, "pitch": 61, "duration": 55, "velocity": 100}, {"time": 14740, "pitch": 64, "duration": 55, "velocity": 100}, {"time": 14740, "pitch": 69, "duration": 55, "velocity": 100}, {"time": 14740, "pitch": 69, "duration": 220, "velocity": 100}, {"time": 14960, "pitch": 38, "duration": 275, "velocity": 100}, {"time": 14960, "pitch": 57, "duration": 110, "velocity": 100}, {"time": 14960, "pitch": 62, "duration": 110, "velocity": 100}, {"time": 14960, "pitch": 78, "duration": 165, "velocity": 100}, {"time": 15070, "pitch": 54, "duration": 110, "velocity": 100}, {"time": 15125, "pitch": 76, "duration": 55, "velocity": 100}, {"time": 15180, "pitch": 57, "duration": 55, "velocity": 100}, {"time": 15180, "pitch": 62, "duration": 55, "velocity": 100}, {"time": 15180, "pitch": 66, "duration": 55, "velocity": 100}, {"time": 15180, "pitch": 74, "duration": 165, "velocity": 100}, {"time": 15345, "pitch": 61, "duration": 55, "velocity": 100}, {"time": 15345, "pitch": 78, "duration": 55, "velocity": 100}, {"time": 15400, "pitch": 45, "duration": 275, "velocity": 100}, {"time": 15400, "pitch": 64, "duration": 110, "velocity": 100}, {"time": 15400, "pitch": 76, "duration": 220, "velocity": 100}, {"time": 15565, "pitch": 57, "duration": 55, "velocity": 100}, {"time": 15620, "pitch": 61, "duration": 55, "velocity": 100}, {"time": 15620, "pitch": 64, "duration": 55, "velocity": 100}, {"time": 15620, "pitch": 69, "duration": 55, "velocity": 100}, {"time": 15620, "pitch": 73, "duration": 165, "velocity": 100}, {"time": 15730, "pitch": 61, "duration": 55, "velocity": 100}, {"time": 15785, "pitch": 69, "duration": 55, "velocity": 100}, {"time": 15840, "pitch": 50, "duration": 220, "velocity": 100}, {"time": 15840, "pitch": 62, "duration": 110, "velocity": 100}, {"time": 15840, "pitch": 64, "duration": 110, "velocity": 100}, {"time": 15840, "pitch": 71, "duration": 220, "velocity": 100}, {"time": 16060, "pitch": 62, "duration": 55, "velocity": 100}, {"time": 16060, "pitch": 68, "duration": 55, "velocity": 100}, {"time": 16060, "pitch": 70, "duration": 220, "velocity": 100}, {"time": 16170, "pitch": 52, "duration": 55, "velocity": 100}, {"time": 16225, "pitch": 62, "duration": 55, "velocity": 100}, {"time": 16280, "pitch": 44, "duration": 275, "velocity": 100}, {"time": 16280, "pitch": 59, "duration": 110, "velocity": 100}, {"time": 16280, "pitch": 64, "duration": 110, "velocity": 100}, {"time": 16280, "pitch": 71, "duration": 220, "velocity": 100}, {"time": 16445, "pitch": 59, "duration": 55, "velocity": 100}, {"time": 16500, "pitch": 59, "duration": 55, "velocity": 100}, {"time": 16500, "pitch": 64, "duration": 110, "velocity": 100}, {"time": 16500, "pitch": 64, "duration": 220, "velocity": 100}, {"time": 16500, "pitch": 68, "duration": 110, "velocity": 100}, {"time": 16610, "pitch": 59, "duration": 55, "velocity": 100}, {"time": 16720, "pitch": 40, "duration": 275, "velocity": 100}, {"time": 16720, "pitch": 59, "duration": 110, "velocity": 100}, {"time": 16720, "pitch": 64, "duration": 165, "velocity": 100}, {"time": 16720, "pitch": 68, "duration": 110, "velocity": 100}, {"time": 16885, "pitch": 69, "duration": 55, "velocity": 100}, {"time": 16940, "pitch": 59, "duration": 110, "velocity": 100}, {"time": 16940, "pitch": 62, "duration": 110, "velocity": 100}, {"time": 16940, "pitch": 68, "duration": 165, "velocity": 100}, {"time": 16940, "pitch": 68, "duration": 165, "velocity": 100}, {"time": 17050, "pitch": 44, "duration": 55, "velocity": 100}, {"time": 17105, "pitch": 56, "duration": 55, "velocity": 100}, {"time": 17105, "pitch": 71, "duration": 55, "velocity": 100}, {"time": 17160, "pitch": 45, "duration": 220, "velocity": 100}, {"time": 17160, "pitch": 57, "duration": 110, "velocity": 100}, {"time": 17160, "pitch": 61, "duration": 110, "velocity": 100}, {"time": 17160, "pitch": 69, "duration": 165, "velocity": 100}, {"time": 17270, "pitch": 52, "duration": 110, "velocity": 100}, {"time": 17325, "pitch": 57, "duration": 110, "velocity": 100}, {"time": 17325, "pitch": 73, "duration": 55, "velocity": 100}, {"time": 17380, "pitch": 61, "duration": 165, "velocity": 100}, {"time": 17380, "pitch": 64, "duration": 165, "velocity": 100}, {"time": 17380, "pitch": 69, "duration": 165, "velocity": 100}, {"time": 17380, "pitch": 76, "duration": 165, "velocity": 100}, {"time": 17490, "pitch": 52, "duration": 55, "velocity": 100}, {"time": 17545, "pitch": 80, "duration": 55, "velocity": 100}, {"time": 17600, "pitch": 49, "duration": 275, "velocity": 100}, {"time": 17600, "pitch": 61, "duration": 110, "velocity": 100}, {"time": 17600, "pitch": 64, "duration": 110, "velocity": 100}, {"time": 17600, "pitch": 81, "duration": 220, "velocity": 100}, {"time": 17820, "pitch": 61, "duration": 55, "velocity": 100}, {"time": 17820, "pitch": 64, "duration": 110, "velocity": 100}, {"time": 17820, "pitch": 69, "duration": 110, "velocity": 100}, {"time": 17820, "pitch": 80, "duration": 220, "velocity": 100}, {"time": 17985, "pitch": 61, "duration": 55, "velocity": 100}, {"time": 18040, "pitch": 45, "duration": 220, "velocity": 100}, {"time": 18040, "pitch": 61, "duration": 55, "velocity": 100}, {"time": 18040, "pitch": 64, "duration": 110, "velocity": 100}, {"time": 18040, "pitch": 81, "duration": 220, "velocity": 100}, {"time": 18150, "pitch": 59, "duration": 55, "velocity": 100}, {"time": 18260, "pitch": 61, "duration": 55, "velocity": 100}, {"time": 18260, "pitch": 64, "duration": 55, "velocity": 100}, {"time": 18260, "pitch": 69, "duration": 55, "velocity": 100}, {"time": 18260, "pitch": 69, "duration": 220, "velocity": 100}, {"time": 18480, "pitch": 38, "duration": 275, "velocity": 100}, {"time": 18480, "pitch": 57, "duration": 55, "velocity": 100}, {"time": 18480, "pitch": 62, "duration": 110, "velocity": 100}, {"time": 18480, "pitch": 66, "duration": 110, "velocity": 100}, {"time": 18480, "pitch": 78, "duration": 165, "velocity": 100}, {"time": 18590, "pitch": 54, "duration": 110, "velocity": 100}, {"time": 18645, "pitch": 76, "duration": 55, "velocity": 100}, {"time": 18700, "pitch": 57, "duration": 55, "velocity": 100}, {"time": 18700, "pitch": 62, "duration": 55, "velocity": 100}, {"time": 18700, "pitch": 66, "duration": 55, "velocity": 100}, {"time": 18700, "pitch": 74, "duration": 165, "velocity": 100}, {"time": 18865, "pitch": 59, "duration": 55, "velocity": 100}, {"time": 18865, "pitch": 78, "duration": 55, "velocity": 100}, {"time": 18920, "pitch": 45, "duration": 275, "velocity": 100}, {"time": 18920, "pitch": 61, "duration": 110, "velocity": 100}, {"time": 18920, "pitch": 64, "duration": 110, "velocity": 100}, {"time": 18920, "pitch": 76, "duration": 220, "velocity": 100}, {"time": 19085, "pitch": 61, "duration": 55, "velocity": 100}, {"time": 19085, "pitch": 73, "duration": 55, "velocity": 100}, {"time": 19140, "pitch": 61, "duration": 55, "velocity": 100}, {"time": 19140, "pitch": 64, "duration": 55, "velocity": 100}, {"time": 19140, "pitch": 69, "duration": 110, "velocity": 100}, {"time": 19140, "pitch": 73, "duration": 165, "velocity": 100}, {"time": 19140, "pitch": 76, "duration": 110, "velocity": 100}, {"time": 19250, "pitch": 61, "duration": 55, "velocity": 100}, {"time": 19250, "pitch": 76, "duration": 110, "velocity": 100}, {"time": 19305, "pitch": 69, "duration": 55, "velocity": 100}, {"time": 19360, "pitch": 50, "duration": 275, "velocity": 100}, {"time": 19360, "pitch": 62, "duration": 55, "velocity": 100}, {"time": 19360, "pitch": 68, "duration": 110, "velocity": 100}, {"time": 19360, "pitch": 71, "duration": 220, "velocity": 100}, {"time": 19360, "pitch": 74, "duration": 440, "velocity": 100}, {"time": 19580, "pitch": 62, "duration": 55, "velocity": 100}, {"time": 19580, "pitch": 68, "duration": 55, "velocity": 100}, {"time": 19580, "pitch": 70, "duration": 220, "velocity": 100}, {"time": 19690, "pitch": 52, "duration": 55, "velocity": 100}, {"time": 19745, "pitch": 62, "duration": 55, "velocity": 100}, {"time": 19800, "pitch": 44, "duration": 275, "velocity": 100}, {"time": 19800, "pitch": 59, "duration": 110, "velocity": 100}, {"time": 19800, "pitch": 64, "duration": 165, "velocity": 100}, {"time": 19800, "pitch": 71, "duration": 220, "velocity": 100}, {"time": 19965, "pitch": 59, "duration": 55, "velocity": 100}, {"time": 20020, "pitch": 59, "duration": 110, "velocity": 100}, {"time": 20020, "pitch": 64, "duration": 110, "velocity": 100}, {"time": 20020, "pitch": 64, "duration": 220, "velocity": 100}, {"time": 20020, "pitch": 68, "duration": 110, "velocity": 100}, {"time": 20130, "pitch": 59, "duration": 55, "velocity": 100}, {"time": 20130, "pitch": 76, "duration": 110, "velocity": 100}, {"time": 20240, "pitch": 40, "duration": 275, "velocity": 100}, {"time": 20240, "pitch": 59, "duration": 110, "velocity": 100}, {"time": 20240, "pitch": 64, "duration": 110, "velocity": 100}, {"time": 20240, "pitch": 64, "duration": 165, "velocity": 100}, {"time": 20240, "pitch": 74, "duration": 385, "velocity": 100}, {"time": 20405, "pitch": 69, "duration": 55, "velocity": 100}, {"time": 20460, "pitch": 59, "duration": 110, "velocity": 100}, {"time": 20460, "pitch": 62, "duration": 110, "velocity": 100}, {"time": 20460, "pitch": 68, "duration": 165, "velocity": 100}, {"time": 20460, "pitch": 68, "duration": 220, "velocity": 100}, {"time": 20570, "pitch": 44, "duration": 55, "velocity": 100}, {"time": 20625, "pitch": 56, "duration": 55, "velocity": 100}, {"time": 20625, "pitch": 71, "duration": 55, "velocity": 100}, {"time": 20680, "pitch": 45, "duration": 275, "velocity": 100}, {"time": 20680, "pitch": 57, "duration": 110, "velocity": 100}, {"time": 20680, "pitch": 61, "duration": 110, "velocity": 100}, {"time": 20680, "pitch": 69, "duration": 440, "velocity": 100}, {"time": 20790, "pitch": 52, "duration": 110, "velocity": 100}, {"time": 20845, "pitch": 57, "duration": 110, "velocity": 100}, {"time": 20900, "pitch": 61, "duration": 165, "velocity": 100}, {"time": 20900, "pitch": 64, "duration": 165, "velocity": 100}, {"time": 20900, "pitch": 69, "duration": 220, "velocity": 100}, {"time": 21010, "pitch": 52, "duration": 55, "velocity": 100}, {"time": 21120, "pitch": 49, "duration": 275, "velocity": 100}, {"time": 21120, "pitch": 61, "duration": 110, "velocity": 100}, {"time": 21120, "pitch": 64, "duration": 110, "velocity": 100}, {"time": 21120, "pitch": 73, "duration": 220, "velocity": 100}, {"time": 21340, "pitch": 61, "duration": 55, "velocity": 100}, {"time": 21340, "pitch": 64, "duration": 55, "velocity": 100}, {"time": 21340, "pitch": 69, "duration": 110, "velocity": 100}, {"time": 21340, "pitch": 81, "duration": 220, "velocity": 100}, {"time": 21505, "pitch": 61, "duration": 55, "velocity": 100}, {"time": 21560, "pitch": 45, "duration": 220, "velocity": 100}, {"time": 21560, "pitch": 61, "duration": 55, "velocity": 100}, {"time": 21560, "pitch": 64, "duration": 110, "velocity": 100}, {"time": 21560, "pitch": 73, "duration": 220, "velocity": 100}, {"time": 21670, "pitch": 59, "duration": 55, "velocity": 100}, {"time": 21780, "pitch": 61, "duration": 55, "velocity": 100}, {"time": 21780, "pitch": 64, "duration": 55, "velocity": 100}, {"time": 21780, "pitch": 69, "duration": 55, "velocity": 100}, {"time": 21780, "pitch": 73, "duration": 165, "velocity": 100}, {"time": 21945, "pitch": 74, "duration": 55, "velocity": 100}, {"time": 22000, "pitch": 47, "duration": 275, "velocity": 100}, {"time": 22000, "pitch": 59, "duration": 110, "velocity": 100}, {"time": 22000, "pitch": 62, "duration": 110, "velocity": 100}, {"time": 22000, "pitch": 66, "duration": 55, "velocity": 100}, {"time": 22000, "pitch": 71, "duration": 220, "velocity": 100}, {"time": 22110, "pitch": 54, "duration": 110, "velocity": 100}, {"time": 22220, "pitch": 59, "duration": 55, "velocity": 100}, {"time": 22220, "pitch": 62, "duration": 55, "velocity": 100}, {"time": 22220, "pitch": 66, "duration": 55, "velocity": 100}, {"time": 22220, "pitch": 83, "duration": 220, "velocity": 100}, {"time": 22385, "pitch": 59, "duration": 55, "velocity": 100}, {"time": 22440, "pitch": 38, "duration": 275, "velocity": 100}, {"time": 22440, "pitch": 59, "duration": 55, "velocity": 100}, {"time": 22440, "pitch": 66, "duration": 110, "velocity": 100}, {"time": 22440, "pitch": 71, "duration": 220, "velocity": 100}, {"time": 22605, "pitch": 59, "duration": 55, "velocity": 100}, {"time": 22660, "pitch": 59, "duration": 55, "velocity": 100}, {"time": 22660, "pitch": 66, "duration": 55, "velocity": 100}, {"time": 22660, "pitch": 69, "duration": 55, "velocity": 100}, {"time": 22660, "pitch": 71, "duration": 165, "velocity": 100}, {"time": 22770, "pitch": 59, "duration": 55, "velocity": 100}, {"time": 22825, "pitch": 73, "duration": 55, "velocity": 100}, {"time": 22880, "pitch": 50, "duration": 220, "velocity": 100}, {"time": 22880, "pitch": 62, "duration": 110, "velocity": 100}, {"time": 22880, "pitch": 66, "duration": 110, "velocity": 100}, {"time": 22880, "pitch": 74, "duration": 165, "velocity": 100}, {"time": 23045, "pitch": 76, "duration": 55, "velocity": 100}, {"time": 23100, "pitch": 62, "duration": 55, "velocity": 100}, {"time": 23100, "pitch": 66, "duration": 55, "velocity": 100}, {"time": 23100, "pitch": 69, "duration": 55, "velocity": 100}, {"time": 23100, "pitch": 78, "duration": 165, "velocity": 100}, {"time": 23210, "pitch": 50, "duration": 55, "velocity": 100}, {"time": 23265, "pitch": 62, "duration": 55, "velocity": 100}, {"time": 23265, "pitch": 80, "duration": 55, "velocity": 100}, {"time": 23320, "pitch": 50, "duration": 275, "velocity": 100}, {"time": 23320, "pitch": 57, "duration": 110, "velocity": 100}, {"time": 23320, "pitch": 66, "duration": 110, "velocity": 100}, {"time": 23320, "pitch": 81, "duration": 220, "velocity": 100}, {"time": 23485, "pitch": 57, "duration": 55, "velocity": 100}, {"time": 23540, "pitch": 62, "duration": 55, "velocity": 100}, {"time": 23540, "pitch": 66, "duration": 110, "velocity": 100}, {"time": 23540, "pitch": 69, "duration": 110, "velocity": 100}, {"time": 23540, "pitch": 80, "duration": 165, "velocity": 100}, {"time": 23650, "pitch": 62, "duration": 55, "velocity": 100}, {"time": 23705, "pitch": 78, "duration": 55, "velocity": 100}, {"time": 23760, "pitch": 40, "duration": 275, "velocity": 100}, {"time": 23760, "pitch": 59, "duration": 110, "velocity": 100}, {"time": 23760, "pitch": 68, "duration": 110, "velocity": 100}, {"time": 23760, "pitch": 76, "duration": 165, "velocity": 100}, {"time": 23925, "pitch": 74, "duration": 55, "velocity": 100}, {"time": 23980, "pitch": 59, "duration": 110, "velocity": 100}, {"time": 23980, "pitch": 64, "duration": 110, "velocity": 100}, {"time": 23980, "pitch": 68, "duration": 220, "velocity": 100}, {"time": 23980, "pitch": 73, "duration": 165, "velocity": 100}, {"time": 24090, "pitch": 47, "duration": 55, "velocity": 100}, {"time": 24145, "pitch": 56, "duration": 55, "velocity": 100}, {"time": 24145, "pitch": 71, "duration": 55, "velocity": 100}, {"time": 24200, "pitch": 45, "duration": 275, "velocity": 100}, {"time": 24200, "pitch": 57, "duration": 110, "velocity": 100}, {"time": 24200, "pitch": 61, "duration": 110, "velocity": 100}, {"time": 24200, "pitch": 73, "duration": 220, "velocity": 100}, {"time": 24310, "pitch": 52, "duration": 110, "velocity": 100}, {"time": 24365, "pitch": 57, "duration": 110, "velocity": 100}, {"time": 24420, "pitch": 61, "duration": 165, "velocity": 100}, {"time": 24420, "pitch": 64, "duration": 165, "velocity": 100}, {"time": 24420, "pitch": 69, "duration": 220, "velocity": 100}, {"time": 24420, "pitch": 69, "duration": 220, "velocity": 100}, {"time": 24530, "pitch": 52, "duration": 55, "velocity": 100}, {"time": 24640, "pitch": 45, "duration": 275, "velocity": 100}, {"time": 24640, "pitch": 57, "duration": 110, "velocity": 100}, {"time": 24640, "pitch": 64, "duration": 110, "velocity": 100}, {"time": 24640, "pitch": 73, "duration": 220, "velocity": 100}, {"time": 24860, "pitch": 57, "duration": 55, "velocity": 100}, {"time": 24860, "pitch": 64, "duration": 110, "velocity": 100}, {"time": 24860, "pitch": 69, "duration": 110, "velocity": 100}, {"time": 24860, "pitch": 81, "duration": 220, "velocity": 100}, {"time": 25025, "pitch": 57, "duration": 55, "velocity": 100}, {"time": 25080, "pitch": 45, "duration": 220, "velocity": 100}, {"time": 25080, "pitch": 57, "duration": 110, "velocity": 100}, {"time": 25080, "pitch": 61, "duration": 110, "velocity": 100}, {"time": 25080, "pitch": 73, "duration": 220, "velocity": 100}, {"time": 25190, "pitch": 57, "duration": 55, "velocity": 100}, {"time": 25300, "pitch": 57, "duration": 55, "velocity": 100}, {"time": 25300, "pitch": 61, "duration": 55, "velocity": 100}, {"time": 25300, "pitch": 64, "duration": 55, "velocity": 100}, {"time": 25300, "pitch": 73, "duration": 165, "velocity": 100}, {"time": 25465, "pitch": 74, "duration": 55, "velocity": 100}, {"time": 25520, "pitch": 35, "duration": 275, "velocity": 100}, {"time": 25520, "pitch": 54, "duration": 110, "velocity": 100}, {"time": 25520, "pitch": 59, "duration": 110, "velocity": 100}, {"time": 25520, "pitch": 62, "duration": 110, "velocity": 100}, {"time": 25520, "pitch": 71, "duration": 220, "velocity": 100}, {"time": 25630, "pitch": 54, "duration": 110, "velocity": 100}, {"time": 25740, "pitch": 54, "duration": 55, "velocity": 100}, {"time": 25740, "pitch": 59, "duration": 55, "velocity": 100}, {"time": 25740, "pitch": 62, "duration": 55, "velocity": 100}, {"time": 25740, "pitch": 83, "duration": 220, "velocity": 100}, {"time": 25905, "pitch": 59, "duration": 55, "velocity": 100}, {"time": 25960, "pitch": 35, "duration": 275, "velocity": 100}, {"time": 25960, "pitch": 59, "duration": 110, "velocity": 100}, {"time": 25960, "pitch": 62, "duration": 110, "velocity": 100}, {"time": 25960, "pitch": 71, "duration": 220, "velocity": 100}, {"time": 26125, "pitch": 59, "duration": 55, "velocity": 100}, {"time": 26125, "pitch": 71, "duration": 55, "velocity": 100}, {"time": 26180, "pitch": 59, "duration": 55, "velocity": 100}, {"time": 26180, "pitch": 62, "duration": 55, "velocity": 100}, {"time": 26180, "pitch": 66, "duration": 55, "velocity": 100}, {"time": 26180, "pitch": 71, "duration": 165, "velocity": 100}, {"time": 26180, "pitch": 74, "duration": 110, "velocity": 100}, {"time": 26290, "pitch": 54, "duration": 55, "velocity": 100}, {"time": 26290, "pitch": 73, "duration": 110, "velocity": 100}, {"time": 26345, "pitch": 73, "duration": 55, "velocity": 100}, {"time": 26400, "pitch": 50, "duration": 275, "velocity": 100}, {"time": 26400, "pitch": 57, "duration": 55, "velocity": 100}, {"time": 26400, "pitch": 62, "duration": 165, "velocity": 100}, {"time": 26400, "pitch": 69, "duration": 440, "velocity": 100}, {"time": 26400, "pitch": 74, "duration": 165, "velocity": 100}, {"time": 26565, "pitch": 73, "duration": 55, "velocity": 100}, {"time": 26620, "pitch": 57, "duration": 55, "velocity": 100}, {"time": 26620, "pitch": 62, "duration": 55, "velocity": 100}, {"time": 26620, "pitch": 66, "duration": 110, "velocity": 100}, {"time": 26620, "pitch": 74, "duration": 165, "velocity": 100}, {"time": 26730, "pitch": 45, "duration": 55, "velocity": 100}, {"time": 26785, "pitch": 57, "duration": 55, "velocity": 100}, {"time": 26785, "pitch": 76, "duration": 55, "velocity": 100}, {"time": 26840, "pitch": 38, "duration": 275, "velocity": 100}, {"time": 26840, "pitch": 57, "duration": 110, "velocity": 100}, {"time": 26840, "pitch": 62, "duration": 165, "velocity": 100}, {"time": 26840, "pitch": 78, "duration": 165, "velocity": 100}, {"time": 27005, "pitch": 57, "duration": 55, "velocity": 100}, {"time": 27005, "pitch": 80, "duration": 55, "velocity": 100}, {"time": 27060, "pitch": 57, "duration": 55, "velocity": 100}, {"time": 27060, "pitch": 62, "duration": 110, "velocity": 100}, {"time": 27060, "pitch": 66, "duration": 110, "velocity": 100}, {"time": 27060, "pitch": 81, "duration": 165, "velocity": 100}, {"time": 27170, "pitch": 57, "duration": 55, "velocity": 100}, {"time": 27170, "pitch": 73, "duration": 110, "velocity": 100}, {"time": 27225, "pitch": 78, "duration": 55, "velocity": 100}, {"time": 27280, "pitch": 40, "duration": 275, "velocity": 100}, {"time": 27280, "pitch": 52, "duration": 110, "velocity": 100}, {"time": 27280, "pitch": 64, "duration": 110, "velocity": 100}, {"time": 27280, "pitch": 71, "duration": 440, "velocity": 100}, {"time": 27280, "pitch": 76, "duration": 110, "velocity": 100}, {"time": 27390, "pitch": 78, "duration": 110, "velocity": 100}, {"time": 27500, "pitch": 56, "duration": 110, "velocity": 100}, {"time": 27500, "pitch": 59, "duration": 110, "velocity": 100}, {"time": 27500, "pitch": 64, "duration": 110, "velocity": 100}, {"time": 27500, "pitch": 74, "duration": 110, "velocity": 100}, {"time": 27610, "pitch": 40, "duration": 55, "velocity": 100}, {"time": 27610, "pitch": 73, "duration": 110, "velocity": 100}, {"time": 27665, "pitch": 52, "duration": 55, "velocity": 100}, {"time": 27720, "pitch": 40, "duration": 275, "velocity": 100}, {"time": 27720, "pitch": 52, "duration": 110, "velocity": 100}, {"time": 27720, "pitch": 59, "duration": 110, "velocity": 100}, {"time": 27720, "pitch": 69, "duration": 220, "velocity": 100}, {"time": 27830, "pitch": 50, "duration": 110, "velocity": 100}, {"time": 27885, "pitch": 52, "duration": 165, "velocity": 100}, {"time": 27940, "pitch": 56, "duration": 220, "velocity": 100}, {"time": 27940, "pitch": 62, "duration": 220, "velocity": 100}, {"time": 27940, "pitch": 64, "duration": 220, "velocity": 100}, {"time": 27940, "pitch": 69, "duration": 220, "velocity": 100}, {"time": 28050, "pitch": 50, "duration": 110, "velocity": 100}]}, {"program": 40, "is_drum": false, "name": "Violin 2", "notes": [{"time": 0, "pitch": 49, "duration": 275, "velocity": 100}]}, {"program": 41, "is_drum": false, "name": "Viola"}, {"program": 42, "is_drum": false, "name": "Cello"}]}