{"metadata": {"schema_version": "0.1", "title": "None", "source_filename": "20211210_095935.mid", "source_format": "midi"}, "resolution": 220, "tempos": [{"time": 0, "qpm": 120.0}], "time_signatures": [{"time": 0, "numerator": 4, "denominator": 4}], "tracks": [{"program": 80, "is_drum": false, "name": "Pulse 1", "notes": [{"time": 0, "pitch": 57, "duration": 220, "velocity": 100}, {"time": 0, "pitch": 64, "duration": 220, "velocity": 100}, {"time": 880, "pitch": 64, "duration": 440, "velocity": 100}, {"time": 880, "pitch": 69, "duration": 440, "velocity": 100}, {"time": 1540, "pitch": 64, "duration": 220, "velocity": 100}, {"time": 1760, "pitch": 64, "duration": 220, "velocity": 100}, {"time": 1760, "pitch": 69, "duration": 660, "velocity": 100}, {"time": 1760, "pitch": 72, "duration": 880, "velocity": 100}, {"time": 1980, "pitch": 64, "duration": 55, "velocity": 100}, {"time": 2200, "pitch": 64, "duration": 220, "velocity": 100}, {"time": 2365, "pitch": 69, "duration": 275, "velocity": 100}, {"time": 2420, "pitch": 64, "duration": 220, "velocity": 100}, {"time": 2420, "pitch": 76, "duration": 220, "velocity": 100}, {"time": 2640, "pitch": 60, "duration": 220, "velocity": 100}, {"time": 2640, "pitch": 69, "duration": 880, "velocity": 100}, {"time": 2640, "pitch": 72, "duration": 880, "velocity": 100}, {"time": 3300, "pitch": 60, "duration": 220, "velocity": 100}, {"time": 3520, "pitch": 60, "duration": 440, "velocity": 100}, {"time": 3520, "pitch": 64, "duration": 880, "velocity": 100}, {"time": 3520, "pitch": 69, "duration": 55, "velocity": 100}, {"time": 3575, "pitch": 71, "duration": 55, "velocity": 100}, {"time": 3630, "pitch": 72, "duration": 55, "velocity": 100}, {"time": 3685, "pitch": 76, "duration": 55, "velocity": 100}, {"time": 3740, "pitch": 71, "duration": 110, "velocity": 100}, {"time": 3795, "pitch": 72, "duration": 55, "velocity": 100}, {"time": 3850, "pitch": 79, "duration": 55, "velocity": 100}, {"time": 3960, "pitch": 64, "duration": 440, "velocity": 100}, {"time": 3960, "pitch": 72, "duration": 55, "velocity": 100}, {"time": 4015, "pitch": 71, "duration": 55, "velocity": 100}, {"time": 4070, "pitch": 72, "duration": 55, "velocity": 100}, {"time": 4125, "pitch": 79, "duration": 55, "velocity": 100}, {"time": 4180, "pitch": 72, "duration": 55, "velocity": 100}, {"time": 4235, "pitch": 72, "duration": 55, "velocity": 100}, {"time": 4290, "pitch": 79, "duration": 55, "velocity": 100}, {"time": 4400, "pitch": 72, "duration": 55, "velocity": 100}, {"time": 4455, "pitch": 69, "duration": 55, "velocity": 100}, {"time": 4510, "pitch": 72, "duration": 55, "velocity": 100}, {"time": 4565, "pitch": 79, "duration": 55, "velocity": 100}, {"time": 4620, "pitch": 71, "duration": 55, "velocity": 100}, {"time": 4675, "pitch": 72, "duration": 55, "velocity": 100}, {"time": 4730, "pitch": 79, "duration": 55, "velocity": 100}, {"time": 4840, "pitch": 76, "duration": 55, "velocity": 100}, {"time": 4895, "pitch": 69, "duration": 55, "velocity": 100}, {"time": 4950, "pitch": 71, "duration": 55, "velocity": 100}, {"time": 5005, "pitch": 79, "duration": 55, "velocity": 100}, {"time": 5060, "pitch": 69, "duration": 55, "velocity": 100}, {"time": 5115, "pitch": 72, "duration": 55, "velocity": 100}, {"time": 5170, "pitch": 79, "duration": 55, "velocity": 100}, {"time": 5280, "pitch": 64, "duration": 715, "velocity": 100}, {"time": 5280, "pitch": 72, "duration": 55, "velocity": 100}, {"time": 5335, "pitch": 71, "duration": 55, "velocity": 100}, {"time": 5390, "pitch": 74, "duration": 55, "velocity": 100}, {"time": 5445, "pitch": 79, "duration": 55, "velocity": 100}, {"time": 5500, "pitch": 71, "duration": 55, "velocity": 100}, {"time": 5555, "pitch": 72, "duration": 55, "velocity": 100}, {"time": 5610, "pitch": 76, "duration": 55, "velocity": 100}, {"time": 5720, "pitch": 72, "duration": 55, "velocity": 100}, {"time": 5775, "pitch": 72, "duration": 55, "velocity": 100}, {"time": 5940, "pitch": 64, "duration": 55, "velocity": 100}, {"time": 5940, "pitch": 79, "duration": 55, "velocity": 100}, {"time": 6105, "pitch": 79, "duration": 55, "velocity": 100}, {"time": 6160, "pitch": 79, "duration": 55, "velocity": 100}, {"time": 6215, "pitch": 71, "duration": 55, "velocity": 100}, {"time": 6270, "pitch": 72, "duration": 55, "velocity": 100}, {"time": 6380, "pitch": 71, "duration": 55, "velocity": 100}, {"time": 6435, "pitch": 71, "duration": 55, "velocity": 100}, {"time": 6490, "pitch": 76, "duration": 55, "velocity": 100}, {"time": 6600, "pitch": 64, "duration": 275, "velocity": 100}, {"time": 6600, "pitch": 72, "duration": 55, "velocity": 100}, {"time": 6655, "pitch": 71, "duration": 55, "velocity": 100}, {"time": 6710, "pitch": 72, "duration": 55, "velocity": 100}, {"time": 6765, "pitch": 76, "duration": 55, "velocity": 100}, {"time": 6820, "pitch": 71, "duration": 55, "velocity": 100}, {"time": 6875, "pitch": 72, "duration": 55, "velocity": 100}, {"time": 6930, "pitch": 76, "duration": 55, "velocity": 100}, {"time": 7040, "pitch": 64, "duration": 825, "velocity": 100}, {"time": 7040, "pitch": 71, "duration": 55, "velocity": 100}, {"time": 7095, "pitch": 69, "duration": 55, "velocity": 100}, {"time": 7150, "pitch": 71, "duration": 55, "velocity": 100}, {"time": 7260, "pitch": 71, "duration": 55, "velocity": 100}, {"time": 7370, "pitch": 79, "duration": 55, "velocity": 100}, {"time": 7425, "pitch": 79, "duration": 55, "velocity": 100}, {"time": 7480, "pitch": 72, "duration": 55, "velocity": 100}, {"time": 7535, "pitch": 72, "duration": 55, "velocity": 100}, {"time": 7590, "pitch": 76, "duration": 55, "velocity": 100}, {"time": 7700, "pitch": 72, "duration": 55, "velocity": 100}, {"time": 7755, "pitch": 74, "duration": 55, "velocity": 100}, {"time": 7920, "pitch": 76, "duration": 55, "velocity": 100}, {"time": 7975, "pitch": 71, "duration": 55, "velocity": 100}, {"time": 8030, "pitch": 72, "duration": 55, "velocity": 100}, {"time": 8085, "pitch": 76, "duration": 55, "velocity": 100}, {"time": 8085, "pitch": 79, "duration": 55, "velocity": 100}, {"time": 8140, "pitch": 71, "duration": 55, "velocity": 100}, {"time": 8195, "pitch": 72, "duration": 55, "velocity": 100}, {"time": 8250, "pitch": 79, "duration": 55, "velocity": 100}, {"time": 8360, "pitch": 76, "duration": 55, "velocity": 100}, {"time": 8470, "pitch": 71, "duration": 55, "velocity": 100}, {"time": 8525, "pitch": 72, "duration": 55, "velocity": 100}, {"time": 8580, "pitch": 67, "duration": 55, "velocity": 100}, {"time": 8635, "pitch": 72, "duration": 55, "velocity": 100}, {"time": 8690, "pitch": 79, "duration": 55, "velocity": 100}, {"time": 8800, "pitch": 64, "duration": 880, "velocity": 100}, {"time": 8800, "pitch": 72, "duration": 55, "velocity": 100}, {"time": 8910, "pitch": 71, "duration": 55, "velocity": 100}, {"time": 8965, "pitch": 72, "duration": 55, "velocity": 100}, {"time": 9020, "pitch": 74, "duration": 55, "velocity": 100}, {"time": 9075, "pitch": 72, "duration": 55, "velocity": 100}, {"time": 9185, "pitch": 74, "duration": 55, "velocity": 100}, {"time": 9240, "pitch": 71, "duration": 55, "velocity": 100}, {"time": 9295, "pitch": 69, "duration": 55, "velocity": 100}, {"time": 9405, "pitch": 71, "duration": 55, "velocity": 100}, {"time": 9460, "pitch": 74, "duration": 55, "velocity": 100}, {"time": 9625, "pitch": 72, "duration": 55, "velocity": 100}, {"time": 9680, "pitch": 72, "duration": 110, "velocity": 100}, {"time": 9845, "pitch": 69, "duration": 55, "velocity": 100}, {"time": 9900, "pitch": 69, "duration": 55, "velocity": 100}, {"time": 10010, "pitch": 67, "duration": 55, "velocity": 100}, {"time": 10065, "pitch": 72, "duration": 55, "velocity": 100}, {"time": 10120, "pitch": 64, "duration": 110, "velocity": 100}, {"time": 10120, "pitch": 69, "duration": 55, "velocity": 100}, {"time": 10395, "pitch": 64, "duration": 55, "velocity": 100}, {"time": 10450, "pitch": 69, "duration": 55, "velocity": 100}, {"time": 10505, "pitch": 69, "duration": 55, "velocity": 100}, {"time": 10505, "pitch": 72, "duration": 55, "velocity": 100}, {"time": 10505, "pitch": 74, "duration": 55, "velocity": 100}]}, {"program": 81, "is_drum": false, "name": "Pulse 2", "notes": [{"time": 220, "pitch": 57, "duration": 55, "velocity": 100}, {"time": 220, "pitch": 57, "duration": 220, "velocity": 100}, {"time": 220, "pitch": 60, "duration": 55, "velocity": 100}, {"time": 220, "pitch": 64, "duration": 55, "velocity": 100}, {"time": 275, "pitch": 60, "duration": 55, "velocity": 100}, {"time": 275, "pitch": 64, "duration": 55, "velocity": 100}, {"time": 385, "pitch": 62, "duration": 55, "velocity": 100}, {"time": 440, "pitch": 57, "duration": 165, "velocity": 100}, {"time": 440, "pitch": 60, "duration": 165, "velocity": 100}, {"time": 440, "pitch": 64, "duration": 165, "velocity": 100}, {"time": 605, "pitch": 64, "duration": 55, "velocity": 100}, {"time": 660, "pitch": 60, "duration": 220, "velocity": 100}, {"time": 660, "pitch": 64, "duration": 220, "velocity": 100}, {"time": 880, "pitch": 60, "duration": 220, "velocity": 100}, {"time": 1100, "pitch": 57, "duration": 220, "velocity": 100}, {"time": 1155, "pitch": 57, "duration": 55, "velocity": 100}, {"time": 1540, "pitch": 55, "duration": 220, "velocity": 100}, {"time": 1540, "pitch": 57, "duration": 220, "velocity": 100}, {"time": 1760, "pitch": 57, "duration": 165, "velocity": 100}, {"time": 1760, "pitch": 57, "duration": 220, "velocity": 100}, {"time": 1980, "pitch": 60, "duration": 55, "velocity": 100}, {"time": 2035, "pitch": 60, "duration": 55, "velocity": 100}, {"time": 2145, "pitch": 60, "duration": 55, "velocity": 100}, {"time": 2200, "pitch": 57, "duration": 165, "velocity": 100}, {"time": 2200, "pitch": 60, "duration": 220, "velocity": 100}, {"time": 2420, "pitch": 57, "duration": 220, "velocity": 100}, {"time": 2420, "pitch": 60, "duration": 220, "velocity": 100}, {"time": 2640, "pitch": 60, "duration": 440, "velocity": 100}, {"time": 2860, "pitch": 57, "duration": 220, "velocity": 100}, {"time": 3300, "pitch": 55, "duration": 220, "velocity": 100}, {"time": 3300, "pitch": 57, "duration": 220, "velocity": 100}, {"time": 3520, "pitch": 57, "duration": 440, "velocity": 100}, {"time": 3905, "pitch": 72, "duration": 55, "velocity": 100}, {"time": 3960, "pitch": 57, "duration": 275, "velocity": 100}, {"time": 3960, "pitch": 60, "duration": 440, "velocity": 100}, {"time": 4345, "pitch": 72, "duration": 55, "velocity": 100}, {"time": 4400, "pitch": 57, "duration": 385, "velocity": 100}, {"time": 4400, "pitch": 60, "duration": 220, "velocity": 100}, {"time": 4400, "pitch": 60, "duration": 440, "velocity": 100}, {"time": 4785, "pitch": 71, "duration": 55, "velocity": 100}, {"time": 4840, "pitch": 57, "duration": 440, "velocity": 100}, {"time": 4840, "pitch": 60, "duration": 440, "velocity": 100}, {"time": 5225, "pitch": 64, "duration": 55, "velocity": 100}, {"time": 5280, "pitch": 60, "duration": 715, "velocity": 100}, {"time": 5665, "pitch": 72, "duration": 55, "velocity": 100}, {"time": 5830, "pitch": 71, "duration": 55, "velocity": 100}, {"time": 5885, "pitch": 72, "duration": 55, "velocity": 100}, {"time": 5995, "pitch": 71, "duration": 55, "velocity": 100}, {"time": 6050, "pitch": 72, "duration": 55, "velocity": 100}, {"time": 6160, "pitch": 60, "duration": 220, "velocity": 100}, {"time": 6160, "pitch": 60, "duration": 330, "velocity": 100}, {"time": 6545, "pitch": 71, "duration": 55, "velocity": 100}, {"time": 6600, "pitch": 60, "duration": 440, "velocity": 100}, {"time": 6985, "pitch": 67, "duration": 55, "velocity": 100}, {"time": 7040, "pitch": 60, "duration": 825, "velocity": 100}, {"time": 7645, "pitch": 71, "duration": 55, "velocity": 100}, {"time": 7810, "pitch": 72, "duration": 55, "velocity": 100}, {"time": 7865, "pitch": 72, "duration": 55, "velocity": 100}, {"time": 7920, "pitch": 60, "duration": 220, "velocity": 100}, {"time": 7920, "pitch": 60, "duration": 275, "velocity": 100}, {"time": 8305, "pitch": 72, "duration": 55, "velocity": 100}, {"time": 8360, "pitch": 60, "duration": 440, "velocity": 100}, {"time": 8415, "pitch": 69, "duration": 55, "velocity": 100}, {"time": 8745, "pitch": 67, "duration": 55, "velocity": 100}, {"time": 8800, "pitch": 60, "duration": 825, "velocity": 100}, {"time": 8855, "pitch": 69, "duration": 55, "velocity": 100}, {"time": 9130, "pitch": 71, "duration": 55, "velocity": 100}, {"time": 9350, "pitch": 69, "duration": 55, "velocity": 100}, {"time": 9515, "pitch": 69, "duration": 55, "velocity": 100}, {"time": 9570, "pitch": 69, "duration": 55, "velocity": 100}, {"time": 9680, "pitch": 60, "duration": 55, "velocity": 100}, {"time": 9680, "pitch": 60, "duration": 220, "velocity": 100}, {"time": 9735, "pitch": 64, "duration": 55, "velocity": 100}, {"time": 9790, "pitch": 64, "duration": 110, "velocity": 100}, {"time": 9955, "pitch": 64, "duration": 55, "velocity": 100}, {"time": 10230, "pitch": 60, "duration": 55, "velocity": 100}, {"time": 10285, "pitch": 60, "duration": 55, "velocity": 100}, {"time": 10340, "pitch": 60, "duration": 55, "velocity": 100}]}, {"program": 38, "is_drum": false, "name": "Triangle", "notes": [{"time": 0, "pitch": 33, "duration": 275, "velocity": 100}, {"time": 0, "pitch": 45, "duration": 165, "velocity": 100}, {"time": 275, "pitch": 57, "duration": 55, "velocity": 100}, {"time": 385, "pitch": 57, "duration": 55, "velocity": 100}, {"time": 440, "pitch": 52, "duration": 220, "velocity": 100}, {"time": 660, "pitch": 57, "duration": 220, "velocity": 100}, {"time": 660, "pitch": 57, "duration": 220, "velocity": 100}, {"time": 880, "pitch": 52, "duration": 220, "velocity": 100}, {"time": 1100, "pitch": 45, "duration": 110, "velocity": 100}, {"time": 1155, "pitch": 45, "duration": 55, "velocity": 100}, {"time": 1155, "pitch": 52, "duration": 55, "velocity": 100}, {"time": 1265, "pitch": 45, "duration": 55, "velocity": 100}, {"time": 1320, "pitch": 40, "duration": 220, "velocity": 100}, {"time": 1320, "pitch": 48, "duration": 220, "velocity": 100}, {"time": 1320, "pitch": 52, "duration": 220, "velocity": 100}, {"time": 1540, "pitch": 45, "duration": 220, "velocity": 100}, {"time": 1760, "pitch": 33, "duration": 440, "velocity": 100}, {"time": 1980, "pitch": 57, "duration": 55, "velocity": 100}, {"time": 1980, "pitch": 57, "duration": 220, "velocity": 100}, {"time": 2035, "pitch": 57, "duration": 55, "velocity": 100}, {"time": 2145, "pitch": 57, "duration": 55, "velocity": 100}, {"time": 2200, "pitch": 52, "duration": 220, "velocity": 100}, {"time": 2420, "pitch": 57, "duration": 220, "velocity": 100}, {"time": 2640, "pitch": 45, "duration": 220, "velocity": 100}, {"time": 2860, "pitch": 45, "duration": 110, "velocity": 100}, {"time": 2915, "pitch": 45, "duration": 55, "velocity": 100}, {"time": 2915, "pitch": 52, "duration": 55, "velocity": 100}, {"time": 3025, "pitch": 45, "duration": 55, "velocity": 100}, {"time": 3080, "pitch": 45, "duration": 220, "velocity": 100}, {"time": 3080, "pitch": 52, "duration": 220, "velocity": 100}, {"time": 3080, "pitch": 52, "duration": 220, "velocity": 100}, {"time": 3300, "pitch": 45, "duration": 220, "velocity": 100}, {"time": 3520, "pitch": 57, "duration": 220, "velocity": 100}, {"time": 3740, "pitch": 57, "duration": 220, "velocity": 100}, {"time": 3960, "pitch": 53, "duration": 220, "velocity": 100}, {"time": 4180, "pitch": 57, "duration": 220, "velocity": 100}, {"time": 4400, "pitch": 52, "duration": 385, "velocity": 100}, {"time": 4620, "pitch": 57, "duration": 220, "velocity": 100}, {"time": 4840, "pitch": 52, "duration": 440, "velocity": 100}, {"time": 4840, "pitch": 53, "duration": 220, "velocity": 100}, {"time": 5060, "pitch": 55, "duration": 220, "velocity": 100}, {"time": 5280, "pitch": 57, "duration": 220, "velocity": 100}, {"time": 5280, "pitch": 57, "duration": 715, "velocity": 100}, {"time": 5500, "pitch": 57, "duration": 220, "velocity": 100}, {"time": 5720, "pitch": 53, "duration": 220, "velocity": 100}, {"time": 5940, "pitch": 57, "duration": 220, "velocity": 100}, {"time": 6160, "pitch": 52, "duration": 440, "velocity": 100}, {"time": 6380, "pitch": 57, "duration": 220, "velocity": 100}, {"time": 6600, "pitch": 53, "duration": 220, "velocity": 100}, {"time": 6600, "pitch": 57, "duration": 440, "velocity": 100}, {"time": 6820, "pitch": 55, "duration": 220, "velocity": 100}, {"time": 7040, "pitch": 57, "duration": 220, "velocity": 100}, {"time": 7040, "pitch": 57, "duration": 605, "velocity": 100}, {"time": 7260, "pitch": 57, "duration": 220, "velocity": 100}, {"time": 7480, "pitch": 52, "duration": 220, "velocity": 100}, {"time": 7700, "pitch": 57, "duration": 220, "velocity": 100}, {"time": 7920, "pitch": 52, "duration": 440, "velocity": 100}, {"time": 7920, "pitch": 57, "duration": 440, "velocity": 100}, {"time": 8140, "pitch": 57, "duration": 220, "velocity": 100}, {"time": 8360, "pitch": 52, "duration": 220, "velocity": 100}, {"time": 8360, "pitch": 52, "duration": 440, "velocity": 100}, {"time": 8360, "pitch": 57, "duration": 440, "velocity": 100}, {"time": 8580, "pitch": 55, "duration": 220, "velocity": 100}, {"time": 8800, "pitch": 57, "duration": 220, "velocity": 100}, {"time": 8800, "pitch": 57, "duration": 825, "velocity": 100}, {"time": 9020, "pitch": 57, "duration": 220, "velocity": 100}, {"time": 9240, "pitch": 52, "duration": 220, "velocity": 100}, {"time": 9460, "pitch": 57, "duration": 220, "velocity": 100}, {"time": 9680, "pitch": 48, "duration": 385, "velocity": 100}, {"time": 9680, "pitch": 57, "duration": 275, "velocity": 100}, {"time": 9900, "pitch": 57, "duration": 220, "velocity": 100}, {"time": 10120, "pitch": 45, "duration": 330, "velocity": 100}, {"time": 10120, "pitch": 52, "duration": 220, "velocity": 100}, {"time": 10175, "pitch": 52, "duration": 275, "velocity": 100}, {"time": 10230, "pitch": 57, "duration": 165, "velocity": 100}, {"time": 10340, "pitch": 55, "duration": 220, "velocity": 100}]}]}