{"metadata": {"schema_version": "0.1", "title": "None", "source_filename": "20211215_132524.mid", "source_format": "midi"}, "resolution": 220, "tempos": [{"time": 0, "qpm": 120.0}], "time_signatures": [{"time": 0, "numerator": 4, "denominator": 4}], "tracks": [{"program": 73, "is_drum": false, "name": "Soprano", "notes": [{"time": 0, "pitch": 63, "duration": 110, "velocity": 100}, {"time": 0, "pitch": 63, "duration": 165, "velocity": 100}, {"time": 0, "pitch": 68, "duration": 440, "velocity": 100}, {"time": 440, "pitch": 68, "duration": 110, "velocity": 100}, {"time": 660, "pitch": 72, "duration": 110, "velocity": 100}, {"time": 1320, "pitch": 68, "duration": 220, "velocity": 100}, {"time": 1980, "pitch": 68, "duration": 110, "velocity": 100}, {"time": 2090, "pitch": 68, "duration": 110, "velocity": 100}, {"time": 2200, "pitch": 70, "duration": 110, "velocity": 100}, {"time": 2310, "pitch": 72, "duration": 110, "velocity": 100}, {"time": 2640, "pitch": 67, "duration": 220, "velocity": 100}, {"time": 3080, "pitch": 67, "duration": 165, "velocity": 100}, {"time": 3300, "pitch": 67, "duration": 165, "velocity": 100}, {"time": 3300, "pitch": 79, "duration": 220, "velocity": 100}, {"time": 3520, "pitch": 72, "duration": 110, "velocity": 100}, {"time": 3740, "pitch": 72, "duration": 110, "velocity": 100}, {"time": 3960, "pitch": 68, "duration": 110, "velocity": 100}, {"time": 3960, "pitch": 72, "duration": 110, "velocity": 100}, {"time": 4180, "pitch": 72, "duration": 165, "velocity": 100}, {"time": 4180, "pitch": 75, "duration": 110, "velocity": 100}, {"time": 4400, "pitch": 72, "duration": 110, "velocity": 100}, {"time": 4620, "pitch": 72, "duration": 220, "velocity": 100}, {"time": 5940, "pitch": 72, "duration": 110, "velocity": 100}, {"time": 6820, "pitch": 70, "duration": 220, "velocity": 100}, {"time": 7700, "pitch": 72, "duration": 110, "velocity": 100}, {"time": 7920, "pitch": 68, "duration": 440, "velocity": 100}, {"time": 8360, "pitch": 63, "duration": 220, "velocity": 100}, {"time": 8360, "pitch": 65, "duration": 220, "velocity": 100}, {"time": 8580, "pitch": 63, "duration": 220, "velocity": 100}, {"time": 8800, "pitch": 63, "duration": 110, "velocity": 100}, {"time": 8800, "pitch": 68, "duration": 440, "velocity": 100}, {"time": 9240, "pitch": 63, "duration": 220, "velocity": 100}, {"time": 9240, "pitch": 68, "duration": 440, "velocity": 100}, {"time": 9240, "pitch": 70, "duration": 110, "velocity": 100}, {"time": 9350, "pitch": 72, "duration": 110, "velocity": 100}, {"time": 9570, "pitch": 68, "duration": 110, "velocity": 100}, {"time": 9680, "pitch": 67, "duration": 660, "velocity": 100}, {"time": 10120, "pitch": 61, "duration": 165, "velocity": 100}, {"time": 10340, "pitch": 67, "duration": 220, "velocity": 100}, {"time": 10340, "pitch": 70, "duration": 220, "velocity": 100}, {"time": 10560, "pitch": 63, "duration": 110, "velocity": 100}, {"time": 11000, "pitch": 63, "duration": 110, "velocity": 100}, {"time": 11220, "pitch": 75, "duration": 110, "velocity": 100}, {"time": 11440, "pitch": 63, "duration": 220, "velocity": 100}, {"time": 11660, "pitch": 65, "duration": 110, "velocity": 100}, {"time": 11880, "pitch": 65, "duration": 440, "velocity": 100}, {"time": 12430, "pitch": 73, "duration": 110, "velocity": 100}, {"time": 12540, "pitch": 73, "duration": 110, "velocity": 100}, {"time": 12650, "pitch": 73, "duration": 110, "velocity": 100}, {"time": 12980, "pitch": 72, "duration": 110, "velocity": 100}, {"time": 13530, "pitch": 68, "duration": 330, "velocity": 100}, {"time": 13530, "pitch": 70, "duration": 110, "velocity": 100}, {"time": 13640, "pitch": 68, "duration": 440, "velocity": 100}, {"time": 13860, "pitch": 63, "duration": 165, "velocity": 100}, {"time": 14080, "pitch": 63, "duration": 220, "velocity": 100}, {"time": 14080, "pitch": 68, "duration": 220, "velocity": 100}, {"time": 14080, "pitch": 72, "duration": 220, "velocity": 100}, {"time": 14300, "pitch": 75, "duration": 220, "velocity": 100}, {"time": 14520, "pitch": 75, "duration": 220, "velocity": 100}, {"time": 14740, "pitch": 72, "duration": 110, "velocity": 100}, {"time": 14850, "pitch": 75, "duration": 990, "velocity": 100}, {"time": 14960, "pitch": 68, "duration": 165, "velocity": 100}, {"time": 15070, "pitch": 75, "duration": 495, "velocity": 100}, {"time": 15290, "pitch": 80, "duration": 330, "velocity": 100}, {"time": 15620, "pitch": 63, "duration": 110, "velocity": 100}, {"time": 15620, "pitch": 68, "duration": 110, "velocity": 100}, {"time": 15840, "pitch": 65, "duration": 110, "velocity": 100}, {"time": 15840, "pitch": 68, "duration": 110, "velocity": 100}, {"time": 15840, "pitch": 72, "duration": 330, "velocity": 100}, {"time": 15840, "pitch": 77, "duration": 220, "velocity": 100}, {"time": 16060, "pitch": 77, "duration": 440, "velocity": 100}, {"time": 16170, "pitch": 80, "duration": 440, "velocity": 100}, {"time": 16500, "pitch": 72, "duration": 220, "velocity": 100}, {"time": 16500, "pitch": 75, "duration": 110, "velocity": 100}, {"time": 16610, "pitch": 68, "duration": 55, "velocity": 100}, {"time": 16610, "pitch": 72, "duration": 110, "velocity": 100}, {"time": 16720, "pitch": 77, "duration": 110, "velocity": 100}, {"time": 16940, "pitch": 77, "duration": 220, "velocity": 100}, {"time": 17050, "pitch": 77, "duration": 220, "velocity": 100}, {"time": 17600, "pitch": 67, "duration": 110, "velocity": 100}, {"time": 17600, "pitch": 75, "duration": 220, "velocity": 100}, {"time": 17820, "pitch": 77, "duration": 440, "velocity": 100}, {"time": 18480, "pitch": 72, "duration": 440, "velocity": 100}, {"time": 19140, "pitch": 76, "duration": 220, "velocity": 100}, {"time": 21340, "pitch": 75, "duration": 220, "velocity": 100}, {"time": 21780, "pitch": 72, "duration": 110, "velocity": 100}, {"time": 24640, "pitch": 58, "duration": 110, "velocity": 100}, {"time": 25080, "pitch": 68, "duration": 220, "velocity": 100}, {"time": 29040, "pitch": 73, "duration": 55, "velocity": 100}, {"time": 32120, "pitch": 72, "duration": 220, "velocity": 100}, {"time": 34320, "pitch": 70, "duration": 110, "velocity": 100}, {"time": 35200, "pitch": 65, "duration": 165, "velocity": 100}, {"time": 41800, "pitch": 80, "duration": 440, "velocity": 100}, {"time": 42240, "pitch": 79, "duration": 1760, "velocity": 100}, {"time": 46640, "pitch": 75, "duration": 110, "velocity": 100}, {"time": 71720, "pitch": 82, "duration": 385, "velocity": 100}, {"time": 72160, "pitch": 72, "duration": 55, "velocity": 100}]}, {"program": 68, "is_drum": false, "name": "Alto", "notes": [{"time": 0, "pitch": 60, "duration": 165, "velocity": 100}, {"time": 330, "pitch": 65, "duration": 55, "velocity": 100}, {"time": 440, "pitch": 63, "duration": 110, "velocity": 100}, {"time": 660, "pitch": 68, "duration": 55, "velocity": 100}, {"time": 770, "pitch": 68, "duration": 770, "velocity": 100}, {"time": 880, "pitch": 63, "duration": 165, "velocity": 100}, {"time": 1100, "pitch": 68, "duration": 110, "velocity": 100}, {"time": 1320, "pitch": 63, "duration": 165, "velocity": 100}, {"time": 1540, "pitch": 68, "duration": 220, "velocity": 100}, {"time": 1760, "pitch": 63, "duration": 110, "velocity": 100}, {"time": 1760, "pitch": 63, "duration": 165, "velocity": 100}, {"time": 1870, "pitch": 68, "duration": 110, "velocity": 100}, {"time": 1980, "pitch": 63, "duration": 110, "velocity": 100}, {"time": 2200, "pitch": 63, "duration": 110, "velocity": 100}, {"time": 2420, "pitch": 68, "duration": 55, "velocity": 100}, {"time": 2530, "pitch": 68, "duration": 110, "velocity": 100}, {"time": 2640, "pitch": 63, "duration": 660, "velocity": 100}, {"time": 2860, "pitch": 67, "duration": 110, "velocity": 100}, {"time": 3080, "pitch": 63, "duration": 110, "velocity": 100}, {"time": 3300, "pitch": 75, "duration": 220, "velocity": 100}, {"time": 3520, "pitch": 68, "duration": 55, "velocity": 100}, {"time": 3740, "pitch": 68, "duration": 110, "velocity": 100}, {"time": 3960, "pitch": 63, "duration": 110, "velocity": 100}, {"time": 4180, "pitch": 68, "duration": 165, "velocity": 100}, {"time": 4400, "pitch": 68, "duration": 110, "velocity": 100}, {"time": 4620, "pitch": 68, "duration": 110, "velocity": 100}, {"time": 4840, "pitch": 63, "duration": 220, "velocity": 100}, {"time": 5060, "pitch": 68, "duration": 220, "velocity": 100}, {"time": 5390, "pitch": 73, "duration": 110, "velocity": 100}, {"time": 5500, "pitch": 73, "duration": 110, "velocity": 100}, {"time": 5610, "pitch": 73, "duration": 110, "velocity": 100}, {"time": 5720, "pitch": 70, "duration": 110, "velocity": 100}, {"time": 5830, "pitch": 72, "duration": 110, "velocity": 100}, {"time": 5940, "pitch": 65, "duration": 55, "velocity": 100}, {"time": 6050, "pitch": 68, "duration": 110, "velocity": 100}, {"time": 6160, "pitch": 63, "duration": 220, "velocity": 100}, {"time": 6380, "pitch": 72, "duration": 110, "velocity": 100}, {"time": 6490, "pitch": 70, "duration": 330, "velocity": 100}, {"time": 6600, "pitch": 67, "duration": 110, "velocity": 100}, {"time": 6820, "pitch": 67, "duration": 110, "velocity": 100}, {"time": 7040, "pitch": 60, "duration": 220, "velocity": 100}, {"time": 7040, "pitch": 63, "duration": 110, "velocity": 100}, {"time": 7040, "pitch": 63, "duration": 880, "velocity": 100}, {"time": 7370, "pitch": 63, "duration": 110, "velocity": 100}, {"time": 7480, "pitch": 63, "duration": 110, "velocity": 100}, {"time": 7700, "pitch": 60, "duration": 55, "velocity": 100}, {"time": 7920, "pitch": 56, "duration": 110, "velocity": 100}, {"time": 7920, "pitch": 63, "duration": 275, "velocity": 100}, {"time": 8140, "pitch": 60, "duration": 55, "velocity": 100}, {"time": 8360, "pitch": 60, "duration": 220, "velocity": 100}, {"time": 8580, "pitch": 56, "duration": 220, "velocity": 100}, {"time": 8800, "pitch": 60, "duration": 110, "velocity": 100}, {"time": 8800, "pitch": 63, "duration": 220, "velocity": 100}, {"time": 9020, "pitch": 68, "duration": 110, "velocity": 100}, {"time": 9130, "pitch": 68, "duration": 110, "velocity": 100}, {"time": 9240, "pitch": 56, "duration": 110, "velocity": 100}, {"time": 9570, "pitch": 65, "duration": 110, "velocity": 100}, {"time": 9680, "pitch": 63, "duration": 660, "velocity": 100}, {"time": 9900, "pitch": 61, "duration": 110, "velocity": 100}, {"time": 10120, "pitch": 58, "duration": 165, "velocity": 100}, {"time": 10120, "pitch": 63, "duration": 220, "velocity": 100}, {"time": 10340, "pitch": 63, "duration": 220, "velocity": 100}, {"time": 10560, "pitch": 60, "duration": 220, "velocity": 100}, {"time": 10560, "pitch": 63, "duration": 330, "velocity": 100}, {"time": 10560, "pitch": 65, "duration": 440, "velocity": 100}, {"time": 10670, "pitch": 63, "duration": 110, "velocity": 100}, {"time": 10780, "pitch": 60, "duration": 55, "velocity": 100}, {"time": 10780, "pitch": 63, "duration": 110, "velocity": 100}, {"time": 10780, "pitch": 63, "duration": 220, "velocity": 100}, {"time": 10890, "pitch": 63, "duration": 110, "velocity": 100}, {"time": 11000, "pitch": 60, "duration": 165, "velocity": 100}, {"time": 11000, "pitch": 65, "duration": 220, "velocity": 100}, {"time": 11220, "pitch": 60, "duration": 220, "velocity": 100}, {"time": 11220, "pitch": 63, "duration": 220, "velocity": 100}, {"time": 11440, "pitch": 60, "duration": 165, "velocity": 100}, {"time": 11440, "pitch": 65, "duration": 220, "velocity": 100}, {"time": 11660, "pitch": 60, "duration": 220, "velocity": 100}, {"time": 11770, "pitch": 65, "duration": 110, "velocity": 100}, {"time": 11880, "pitch": 60, "duration": 220, "velocity": 100}, {"time": 12100, "pitch": 63, "duration": 220, "velocity": 100}, {"time": 12540, "pitch": 63, "duration": 110, "velocity": 100}, {"time": 12650, "pitch": 65, "duration": 110, "velocity": 100}, {"time": 12760, "pitch": 62, "duration": 110, "velocity": 100}, {"time": 12760, "pitch": 65, "duration": 440, "velocity": 100}, {"time": 12870, "pitch": 72, "duration": 110, "velocity": 100}, {"time": 12980, "pitch": 58, "duration": 110, "velocity": 100}, {"time": 13090, "pitch": 68, "duration": 110, "velocity": 100}, {"time": 13200, "pitch": 55, "duration": 220, "velocity": 100}, {"time": 13200, "pitch": 63, "duration": 220, "velocity": 100}, {"time": 13200, "pitch": 63, "duration": 330, "velocity": 100}, {"time": 13200, "pitch": 67, "duration": 330, "velocity": 100}, {"time": 13420, "pitch": 70, "duration": 110, "velocity": 100}, {"time": 13530, "pitch": 58, "duration": 55, "velocity": 100}, {"time": 13640, "pitch": 56, "duration": 165, "velocity": 100}, {"time": 13640, "pitch": 60, "duration": 220, "velocity": 100}, {"time": 13640, "pitch": 63, "duration": 220, "velocity": 100}, {"time": 13860, "pitch": 60, "duration": 110, "velocity": 100}, {"time": 14080, "pitch": 60, "duration": 165, "velocity": 100}, {"time": 14080, "pitch": 72, "duration": 660, "velocity": 100}, {"time": 14300, "pitch": 68, "duration": 110, "velocity": 100}, {"time": 14520, "pitch": 63, "duration": 110, "velocity": 100}, {"time": 14630, "pitch": 60, "duration": 55, "velocity": 100}, {"time": 14740, "pitch": 63, "duration": 110, "velocity": 100}, {"time": 14740, "pitch": 68, "duration": 165, "velocity": 100}, {"time": 14960, "pitch": 63, "duration": 165, "velocity": 100}, {"time": 15070, "pitch": 60, "duration": 55, "velocity": 100}, {"time": 15180, "pitch": 63, "duration": 165, "velocity": 100}, {"time": 15180, "pitch": 68, "duration": 165, "velocity": 100}, {"time": 15180, "pitch": 72, "duration": 220, "velocity": 100}, {"time": 15400, "pitch": 68, "duration": 55, "velocity": 100}, {"time": 15620, "pitch": 60, "duration": 110, "velocity": 100}, {"time": 15840, "pitch": 60, "duration": 55, "velocity": 100}, {"time": 15950, "pitch": 60, "duration": 110, "velocity": 100}, {"time": 15950, "pitch": 72, "duration": 275, "velocity": 100}, {"time": 16060, "pitch": 65, "duration": 110, "velocity": 100}, {"time": 16060, "pitch": 68, "duration": 110, "velocity": 100}, {"time": 16170, "pitch": 60, "duration": 55, "velocity": 100}, {"time": 16170, "pitch": 68, "duration": 110, "velocity": 100}, {"time": 16280, "pitch": 65, "duration": 110, "velocity": 100}, {"time": 16280, "pitch": 68, "duration": 110, "velocity": 100}, {"time": 16280, "pitch": 70, "duration": 220, "velocity": 100}, {"time": 16500, "pitch": 68, "duration": 55, "velocity": 100}, {"time": 16610, "pitch": 63, "duration": 55, "velocity": 100}, {"time": 16720, "pitch": 65, "duration": 110, "velocity": 100}, {"time": 16720, "pitch": 65, "duration": 880, "velocity": 100}, {"time": 16720, "pitch": 68, "duration": 110, "velocity": 100}, {"time": 16830, "pitch": 61, "duration": 55, "velocity": 100}, {"time": 16830, "pitch": 73, "duration": 220, "velocity": 100}, {"time": 16940, "pitch": 65, "duration": 110, "velocity": 100}, {"time": 16940, "pitch": 68, "duration": 110, "velocity": 100}, {"time": 17160, "pitch": 68, "duration": 55, "velocity": 100}, {"time": 17380, "pitch": 65, "duration": 110, "velocity": 100}, {"time": 17600, "pitch": 58, "duration": 55, "velocity": 100}, {"time": 17600, "pitch": 63, "duration": 110, "velocity": 100}, {"time": 17600, "pitch": 67, "duration": 330, "velocity": 100}, {"time": 17710, "pitch": 67, "duration": 165, "velocity": 100}, {"time": 17820, "pitch": 67, "duration": 55, "velocity": 100}, {"time": 17930, "pitch": 70, "duration": 330, "velocity": 100}, {"time": 18040, "pitch": 67, "duration": 110, "velocity": 100}, {"time": 18040, "pitch": 70, "duration": 220, "velocity": 100}, {"time": 18260, "pitch": 63, "duration": 110, "velocity": 100}, {"time": 18260, "pitch": 67, "duration": 165, "velocity": 100}, {"time": 18370, "pitch": 72, "duration": 110, "velocity": 100}, {"time": 18480, "pitch": 64, "duration": 110, "velocity": 100}, {"time": 18480, "pitch": 67, "duration": 110, "velocity": 100}, {"time": 18480, "pitch": 72, "duration": 880, "velocity": 100}, {"time": 18700, "pitch": 64, "duration": 55, "velocity": 100}, {"time": 18700, "pitch": 67, "duration": 55, "velocity": 100}, {"time": 18920, "pitch": 67, "duration": 55, "velocity": 100}, {"time": 18975, "pitch": 64, "duration": 55, "velocity": 100}, {"time": 19140, "pitch": 67, "duration": 110, "velocity": 100}, {"time": 19140, "pitch": 72, "duration": 165, "velocity": 100}, {"time": 19360, "pitch": 61, "duration": 110, "velocity": 100}, {"time": 19360, "pitch": 65, "duration": 110, "velocity": 100}, {"time": 19360, "pitch": 70, "duration": 330, "velocity": 100}, {"time": 19360, "pitch": 73, "duration": 330, "velocity": 100}, {"time": 19360, "pitch": 73, "duration": 440, "velocity": 100}, {"time": 19580, "pitch": 61, "duration": 110, "velocity": 100}, {"time": 19580, "pitch": 65, "duration": 55, "velocity": 100}, {"time": 19690, "pitch": 72, "duration": 110, "velocity": 100}, {"time": 19800, "pitch": 65, "duration": 110, "velocity": 100}, {"time": 19800, "pitch": 70, "duration": 110, "velocity": 100}, {"time": 19800, "pitch": 70, "duration": 110, "velocity": 100}, {"time": 19910, "pitch": 72, "duration": 110, "velocity": 100}, {"time": 19910, "pitch": 72, "duration": 220, "velocity": 100}, {"time": 20020, "pitch": 65, "duration": 220, "velocity": 100}, {"time": 20020, "pitch": 73, "duration": 110, "velocity": 100}, {"time": 20130, "pitch": 68, "duration": 110, "velocity": 100}, {"time": 20130, "pitch": 77, "duration": 110, "velocity": 100}, {"time": 20240, "pitch": 63, "duration": 110, "velocity": 100}, {"time": 20240, "pitch": 63, "duration": 880, "velocity": 100}, {"time": 20240, "pitch": 70, "duration": 605, "velocity": 100}, {"time": 20240, "pitch": 75, "duration": 660, "velocity": 100}, {"time": 20460, "pitch": 63, "duration": 110, "velocity": 100}, {"time": 20460, "pitch": 67, "duration": 110, "velocity": 100}, {"time": 20680, "pitch": 63, "duration": 110, "velocity": 100}, {"time": 20900, "pitch": 63, "duration": 110, "velocity": 100}, {"time": 20900, "pitch": 67, "duration": 165, "velocity": 100}, {"time": 21120, "pitch": 56, "duration": 220, "velocity": 100}, {"time": 21120, "pitch": 60, "duration": 220, "velocity": 100}, {"time": 21120, "pitch": 63, "duration": 880, "velocity": 100}, {"time": 21120, "pitch": 72, "duration": 220, "velocity": 100}, {"time": 21340, "pitch": 60, "duration": 110, "velocity": 100}, {"time": 21560, "pitch": 56, "duration": 110, "velocity": 100}, {"time": 21560, "pitch": 75, "duration": 220, "velocity": 100}, {"time": 21780, "pitch": 56, "duration": 110, "velocity": 100}, {"time": 21780, "pitch": 60, "duration": 165, "velocity": 100}, {"time": 21890, "pitch": 75, "duration": 990, "velocity": 100}, {"time": 22000, "pitch": 56, "duration": 165, "velocity": 100}, {"time": 22000, "pitch": 60, "duration": 165, "velocity": 100}, {"time": 22110, "pitch": 68, "duration": 550, "velocity": 100}, {"time": 22220, "pitch": 56, "duration": 165, "velocity": 100}, {"time": 22220, "pitch": 60, "duration": 165, "velocity": 100}, {"time": 22220, "pitch": 63, "duration": 110, "velocity": 100}, {"time": 22330, "pitch": 75, "duration": 220, "velocity": 100}, {"time": 22440, "pitch": 56, "duration": 110, "velocity": 100}, {"time": 22440, "pitch": 60, "duration": 110, "velocity": 100}, {"time": 22660, "pitch": 56, "duration": 110, "velocity": 100}, {"time": 22660, "pitch": 60, "duration": 110, "velocity": 100}, {"time": 22880, "pitch": 53, "duration": 55, "velocity": 100}, {"time": 22880, "pitch": 56, "duration": 110, "velocity": 100}, {"time": 22880, "pitch": 61, "duration": 110, "velocity": 100}, {"time": 22880, "pitch": 68, "duration": 220, "velocity": 100}, {"time": 22880, "pitch": 73, "duration": 330, "velocity": 100}, {"time": 22990, "pitch": 65, "duration": 330, "velocity": 100}, {"time": 23100, "pitch": 56, "duration": 110, "velocity": 100}, {"time": 23100, "pitch": 61, "duration": 110, "velocity": 100}, {"time": 23100, "pitch": 70, "duration": 330, "velocity": 100}, {"time": 23210, "pitch": 72, "duration": 110, "velocity": 100}, {"time": 23210, "pitch": 73, "duration": 330, "velocity": 100}, {"time": 23320, "pitch": 70, "duration": 220, "velocity": 100}, {"time": 23540, "pitch": 61, "duration": 55, "velocity": 100}, {"time": 23540, "pitch": 68, "duration": 110, "velocity": 100}, {"time": 23540, "pitch": 68, "duration": 220, "velocity": 100}, {"time": 23650, "pitch": 56, "duration": 55, "velocity": 100}, {"time": 23650, "pitch": 61, "duration": 55, "velocity": 100}, {"time": 23650, "pitch": 63, "duration": 110, "velocity": 100}, {"time": 23760, "pitch": 56, "duration": 110, "velocity": 100}, {"time": 23760, "pitch": 61, "duration": 110, "velocity": 100}, {"time": 23760, "pitch": 68, "duration": 220, "velocity": 100}, {"time": 23760, "pitch": 77, "duration": 880, "velocity": 100}, {"time": 23870, "pitch": 65, "duration": 110, "velocity": 100}, {"time": 23980, "pitch": 61, "duration": 110, "velocity": 100}, {"time": 23980, "pitch": 68, "duration": 220, "velocity": 100}, {"time": 24090, "pitch": 70, "duration": 550, "velocity": 100}, {"time": 24200, "pitch": 61, "duration": 110, "velocity": 100}, {"time": 24420, "pitch": 56, "duration": 55, "velocity": 100}, {"time": 24420, "pitch": 61, "duration": 110, "velocity": 100}, {"time": 24640, "pitch": 53, "duration": 110, "velocity": 100}, {"time": 24640, "pitch": 65, "duration": 220, "velocity": 100}, {"time": 24640, "pitch": 65, "duration": 330, "velocity": 100}, {"time": 24750, "pitch": 61, "duration": 220, "velocity": 100}, {"time": 24860, "pitch": 58, "duration": 110, "velocity": 100}, {"time": 24860, "pitch": 70, "duration": 440, "velocity": 100}, {"time": 24970, "pitch": 65, "duration": 550, "velocity": 100}, {"time": 24970, "pitch": 67, "duration": 110, "velocity": 100}, {"time": 25080, "pitch": 58, "duration": 220, "velocity": 100}, {"time": 25300, "pitch": 58, "duration": 110, "velocity": 100}, {"time": 25300, "pitch": 61, "duration": 110, "velocity": 100}, {"time": 25300, "pitch": 65, "duration": 220, "velocity": 100}, {"time": 25410, "pitch": 65, "duration": 330, "velocity": 100}, {"time": 25520, "pitch": 53, "duration": 55, "velocity": 100}, {"time": 25520, "pitch": 58, "duration": 110, "velocity": 100}, {"time": 25520, "pitch": 61, "duration": 110, "velocity": 100}, {"time": 25520, "pitch": 65, "duration": 440, "velocity": 100}, {"time": 25520, "pitch": 73, "duration": 880, "velocity": 100}, {"time": 25740, "pitch": 58, "duration": 55, "velocity": 100}, {"time": 25740, "pitch": 61, "duration": 55, "velocity": 100}, {"time": 25960, "pitch": 58, "duration": 55, "velocity": 100}, {"time": 25960, "pitch": 61, "duration": 55, "velocity": 100}, {"time": 26180, "pitch": 58, "duration": 110, "velocity": 100}, {"time": 26180, "pitch": 61, "duration": 165, "velocity": 100}, {"time": 26180, "pitch": 68, "duration": 220, "velocity": 100}, {"time": 26400, "pitch": 53, "duration": 110, "velocity": 100}, {"time": 26400, "pitch": 58, "duration": 220, "velocity": 100}, {"time": 26400, "pitch": 62, "duration": 385, "velocity": 100}, {"time": 26400, "pitch": 65, "duration": 440, "velocity": 100}, {"time": 26400, "pitch": 70, "duration": 330, "velocity": 100}, {"time": 26730, "pitch": 70, "duration": 110, "velocity": 100}, {"time": 26840, "pitch": 58, "duration": 110, "velocity": 100}, {"time": 26840, "pitch": 62, "duration": 110, "velocity": 100}, {"time": 26840, "pitch": 72, "duration": 220, "velocity": 100}, {"time": 26950, "pitch": 65, "duration": 110, "velocity": 100}, {"time": 27060, "pitch": 58, "duration": 110, "velocity": 100}, {"time": 27060, "pitch": 65, "duration": 110, "velocity": 100}, {"time": 27060, "pitch": 74, "duration": 220, "velocity": 100}, {"time": 27170, "pitch": 70, "duration": 110, "velocity": 100}, {"time": 27280, "pitch": 55, "duration": 110, "velocity": 100}, {"time": 27280, "pitch": 63, "duration": 660, "velocity": 100}, {"time": 27280, "pitch": 67, "duration": 660, "velocity": 100}, {"time": 27280, "pitch": 75, "duration": 880, "velocity": 100}, {"time": 27500, "pitch": 55, "duration": 110, "velocity": 100}, {"time": 27500, "pitch": 58, "duration": 110, "velocity": 100}, {"time": 27720, "pitch": 51, "duration": 110, "velocity": 100}, {"time": 27720, "pitch": 55, "duration": 110, "velocity": 100}, {"time": 27940, "pitch": 55, "duration": 220, "velocity": 100}, {"time": 27940, "pitch": 58, "duration": 220, "velocity": 100}, {"time": 28160, "pitch": 51, "duration": 165, "velocity": 100}, {"time": 28160, "pitch": 56, "duration": 165, "velocity": 100}, {"time": 28160, "pitch": 63, "duration": 220, "velocity": 100}, {"time": 28160, "pitch": 72, "duration": 55, "velocity": 100}, {"time": 28160, "pitch": 77, "duration": 55, "velocity": 100}, {"time": 28270, "pitch": 72, "duration": 55, "velocity": 100}, {"time": 28380, "pitch": 56, "duration": 110, "velocity": 100}, {"time": 28380, "pitch": 60, "duration": 110, "velocity": 100}, {"time": 28380, "pitch": 68, "duration": 110, "velocity": 100}, {"time": 28380, "pitch": 75, "duration": 110, "velocity": 100}, {"time": 28380, "pitch": 80, "duration": 110, "velocity": 100}, {"time": 28490, "pitch": 68, "duration": 110, "velocity": 100}, {"time": 28490, "pitch": 68, "duration": 110, "velocity": 100}, {"time": 28600, "pitch": 70, "duration": 220, "velocity": 100}, {"time": 28820, "pitch": 60, "duration": 165, "velocity": 100}, {"time": 28820, "pitch": 72, "duration": 220, "velocity": 100}, {"time": 28820, "pitch": 75, "duration": 55, "velocity": 100}, {"time": 28820, "pitch": 80, "duration": 165, "velocity": 100}, {"time": 29040, "pitch": 73, "duration": 220, "velocity": 100}, {"time": 29040, "pitch": 77, "duration": 55, "velocity": 100}, {"time": 29150, "pitch": 70, "duration": 55, "velocity": 100}, {"time": 29260, "pitch": 61, "duration": 55, "velocity": 100}, {"time": 29260, "pitch": 72, "duration": 165, "velocity": 100}, {"time": 29260, "pitch": 73, "duration": 55, "velocity": 100}, {"time": 29260, "pitch": 77, "duration": 55, "velocity": 100}, {"time": 29370, "pitch": 70, "duration": 110, "velocity": 100}, {"time": 29425, "pitch": 72, "duration": 55, "velocity": 100}, {"time": 29480, "pitch": 70, "duration": 220, "velocity": 100}, {"time": 29700, "pitch": 58, "duration": 110, "velocity": 100}, {"time": 29700, "pitch": 65, "duration": 220, "velocity": 100}, {"time": 29700, "pitch": 73, "duration": 55, "velocity": 100}, {"time": 29700, "pitch": 77, "duration": 55, "velocity": 100}, {"time": 29920, "pitch": 56, "duration": 165, "velocity": 100}, {"time": 29920, "pitch": 63, "duration": 110, "velocity": 100}, {"time": 29920, "pitch": 75, "duration": 110, "velocity": 100}, {"time": 29920, "pitch": 80, "duration": 55, "velocity": 100}, {"time": 30030, "pitch": 68, "duration": 110, "velocity": 100}, {"time": 30030, "pitch": 72, "duration": 110, "velocity": 100}, {"time": 30140, "pitch": 68, "duration": 110, "velocity": 100}, {"time": 30140, "pitch": 75, "duration": 110, "velocity": 100}, {"time": 30140, "pitch": 80, "duration": 110, "velocity": 100}, {"time": 30250, "pitch": 68, "duration": 110, "velocity": 100}, {"time": 30250, "pitch": 72, "duration": 110, "velocity": 100}, {"time": 30360, "pitch": 67, "duration": 110, "velocity": 100}, {"time": 30470, "pitch": 68, "duration": 110, "velocity": 100}, {"time": 30580, "pitch": 70, "duration": 110, "velocity": 100}, {"time": 30690, "pitch": 56, "duration": 55, "velocity": 100}, {"time": 30690, "pitch": 60, "duration": 55, "velocity": 100}, {"time": 30690, "pitch": 70, "duration": 110, "velocity": 100}, {"time": 30800, "pitch": 56, "duration": 110, "velocity": 100}, {"time": 30800, "pitch": 60, "duration": 110, "velocity": 100}, {"time": 30800, "pitch": 68, "duration": 110, "velocity": 100}, {"time": 30800, "pitch": 72, "duration": 55, "velocity": 100}, {"time": 30800, "pitch": 80, "duration": 55, "velocity": 100}, {"time": 30910, "pitch": 68, "duration": 110, "velocity": 100}, {"time": 30910, "pitch": 68, "duration": 220, "velocity": 100}, {"time": 31020, "pitch": 60, "duration": 55, "velocity": 100}, {"time": 31020, "pitch": 75, "duration": 55, "velocity": 100}, {"time": 31020, "pitch": 80, "duration": 55, "velocity": 100}, {"time": 31130, "pitch": 68, "duration": 110, "velocity": 100}, {"time": 31130, "pitch": 70, "duration": 110, "velocity": 100}, {"time": 31240, "pitch": 60, "duration": 110, "velocity": 100}, {"time": 31240, "pitch": 72, "duration": 440, "velocity": 100}, {"time": 31460, "pitch": 56, "duration": 110, "velocity": 100}, {"time": 31460, "pitch": 60, "duration": 110, "velocity": 100}, {"time": 31460, "pitch": 75, "duration": 165, "velocity": 100}, {"time": 31460, "pitch": 80, "duration": 165, "velocity": 100}, {"time": 31680, "pitch": 53, "duration": 110, "velocity": 100}, {"time": 31680, "pitch": 58, "duration": 110, "velocity": 100}, {"time": 31680, "pitch": 65, "duration": 220, "velocity": 100}, {"time": 31680, "pitch": 73, "duration": 110, "velocity": 100}, {"time": 31680, "pitch": 77, "duration": 165, "velocity": 100}, {"time": 31790, "pitch": 70, "duration": 55, "velocity": 100}, {"time": 31900, "pitch": 58, "duration": 55, "velocity": 100}, {"time": 31900, "pitch": 70, "duration": 165, "velocity": 100}, {"time": 31900, "pitch": 73, "duration": 55, "velocity": 100}, {"time": 31900, "pitch": 77, "duration": 165, "velocity": 100}, {"time": 32010, "pitch": 70, "duration": 220, "velocity": 100}, {"time": 32065, "pitch": 70, "duration": 55, "velocity": 100}, {"time": 32120, "pitch": 58, "duration": 110, "velocity": 100}, {"time": 32120, "pitch": 77, "duration": 385, "velocity": 100}, {"time": 32340, "pitch": 58, "duration": 165, "velocity": 100}, {"time": 32340, "pitch": 73, "duration": 220, "velocity": 100}, {"time": 32560, "pitch": 53, "duration": 55, "velocity": 100}, {"time": 32560, "pitch": 58, "duration": 110, "velocity": 100}, {"time": 32560, "pitch": 61, "duration": 110, "velocity": 100}, {"time": 32560, "pitch": 77, "duration": 55, "velocity": 100}, {"time": 32560, "pitch": 77, "duration": 220, "velocity": 100}, {"time": 32670, "pitch": 73, "duration": 110, "velocity": 100}, {"time": 32780, "pitch": 58, "duration": 55, "velocity": 100}, {"time": 32780, "pitch": 61, "duration": 55, "velocity": 100}, {"time": 32780, "pitch": 75, "duration": 165, "velocity": 100}, {"time": 32780, "pitch": 77, "duration": 165, "velocity": 100}, {"time": 32780, "pitch": 82, "duration": 165, "velocity": 100}, {"time": 32890, "pitch": 70, "duration": 275, "velocity": 100}, {"time": 32945, "pitch": 77, "duration": 55, "velocity": 100}, {"time": 33000, "pitch": 61, "duration": 55, "velocity": 100}, {"time": 33000, "pitch": 73, "duration": 220, "velocity": 100}, {"time": 33220, "pitch": 58, "duration": 165, "velocity": 100}, {"time": 33220, "pitch": 72, "duration": 220, "velocity": 100}, {"time": 33440, "pitch": 53, "duration": 110, "velocity": 100}, {"time": 33440, "pitch": 58, "duration": 110, "velocity": 100}, {"time": 33440, "pitch": 65, "duration": 110, "velocity": 100}, {"time": 33440, "pitch": 73, "duration": 110, "velocity": 100}, {"time": 33440, "pitch": 77, "duration": 110, "velocity": 100}, {"time": 33550, "pitch": 70, "duration": 55, "velocity": 100}, {"time": 33550, "pitch": 70, "duration": 110, "velocity": 100}, {"time": 33660, "pitch": 58, "duration": 55, "velocity": 100}, {"time": 33660, "pitch": 70, "duration": 110, "velocity": 100}, {"time": 33660, "pitch": 73, "duration": 55, "velocity": 100}, {"time": 33660, "pitch": 77, "duration": 55, "velocity": 100}, {"time": 33770, "pitch": 70, "duration": 110, "velocity": 100}, {"time": 33770, "pitch": 70, "duration": 275, "velocity": 100}, {"time": 33880, "pitch": 58, "duration": 110, "velocity": 100}, {"time": 33880, "pitch": 61, "duration": 55, "velocity": 100}, {"time": 33880, "pitch": 68, "duration": 110, "velocity": 100}, {"time": 33990, "pitch": 72, "duration": 110, "velocity": 100}, {"time": 34100, "pitch": 58, "duration": 110, "velocity": 100}, {"time": 34100, "pitch": 72, "duration": 110, "velocity": 100}, {"time": 34210, "pitch": 72, "duration": 110, "velocity": 100}, {"time": 34320, "pitch": 53, "duration": 110, "velocity": 100}, {"time": 34320, "pitch": 73, "duration": 55, "velocity": 100}, {"time": 34320, "pitch": 77, "duration": 110, "velocity": 100}, {"time": 34430, "pitch": 70, "duration": 110, "velocity": 100}, {"time": 34430, "pitch": 70, "duration": 220, "velocity": 100}, {"time": 34540, "pitch": 58, "duration": 110, "velocity": 100}, {"time": 34540, "pitch": 73, "duration": 55, "velocity": 100}, {"time": 34540, "pitch": 77, "duration": 165, "velocity": 100}, {"time": 34650, "pitch": 70, "duration": 110, "velocity": 100}, {"time": 34650, "pitch": 72, "duration": 110, "velocity": 100}, {"time": 34760, "pitch": 53, "duration": 110, "velocity": 100}, {"time": 34760, "pitch": 73, "duration": 385, "velocity": 100}, {"time": 34760, "pitch": 73, "duration": 440, "velocity": 100}, {"time": 34760, "pitch": 77, "duration": 275, "velocity": 100}, {"time": 34980, "pitch": 58, "duration": 165, "velocity": 100}, {"time": 35200, "pitch": 56, "duration": 165, "velocity": 100}, {"time": 35200, "pitch": 68, "duration": 220, "velocity": 100}, {"time": 35200, "pitch": 80, "duration": 55, "velocity": 100}, {"time": 35200, "pitch": 85, "duration": 55, "velocity": 100}, {"time": 35310, "pitch": 77, "duration": 55, "velocity": 100}, {"time": 35420, "pitch": 61, "duration": 110, "velocity": 100}, {"time": 35420, "pitch": 65, "duration": 110, "velocity": 100}, {"time": 35420, "pitch": 73, "duration": 165, "velocity": 100}, {"time": 35420, "pitch": 80, "duration": 110, "velocity": 100}, {"time": 35420, "pitch": 85, "duration": 110, "velocity": 100}, {"time": 35530, "pitch": 77, "duration": 110, "velocity": 100}, {"time": 35585, "pitch": 73, "duration": 55, "velocity": 100}, {"time": 35640, "pitch": 75, "duration": 220, "velocity": 100}, {"time": 35860, "pitch": 65, "duration": 165, "velocity": 100}, {"time": 35860, "pitch": 77, "duration": 220, "velocity": 100}, {"time": 35860, "pitch": 80, "duration": 110, "velocity": 100}, {"time": 35860, "pitch": 85, "duration": 110, "velocity": 100}, {"time": 35970, "pitch": 80, "duration": 55, "velocity": 100}, {"time": 36080, "pitch": 61, "duration": 165, "velocity": 100}, {"time": 36080, "pitch": 77, "duration": 220, "velocity": 100}, {"time": 36080, "pitch": 80, "duration": 110, "velocity": 100}, {"time": 36080, "pitch": 85, "duration": 110, "velocity": 100}, {"time": 36190, "pitch": 77, "duration": 55, "velocity": 100}, {"time": 36300, "pitch": 61, "duration": 55, "velocity": 100}, {"time": 36300, "pitch": 65, "duration": 110, "velocity": 100}, {"time": 36300, "pitch": 75, "duration": 165, "velocity": 100}, {"time": 36300, "pitch": 80, "duration": 110, "velocity": 100}, {"time": 36300, "pitch": 85, "duration": 110, "velocity": 100}, {"time": 36410, "pitch": 77, "duration": 110, "velocity": 100}, {"time": 36465, "pitch": 77, "duration": 55, "velocity": 100}, {"time": 36520, "pitch": 65, "duration": 110, "velocity": 100}, {"time": 36520, "pitch": 73, "duration": 220, "velocity": 100}, {"time": 36740, "pitch": 61, "duration": 110, "velocity": 100}, {"time": 36740, "pitch": 65, "duration": 110, "velocity": 100}, {"time": 36740, "pitch": 68, "duration": 220, "velocity": 100}, {"time": 36740, "pitch": 80, "duration": 110, "velocity": 100}, {"time": 36740, "pitch": 85, "duration": 110, "velocity": 100}, {"time": 36960, "pitch": 65, "duration": 165, "velocity": 100}, {"time": 36960, "pitch": 68, "duration": 220, "velocity": 100}, {"time": 36960, "pitch": 80, "duration": 110, "velocity": 100}, {"time": 36960, "pitch": 85, "duration": 110, "velocity": 100}, {"time": 37070, "pitch": 77, "duration": 110, "velocity": 100}, {"time": 37180, "pitch": 61, "duration": 55, "velocity": 100}, {"time": 37180, "pitch": 68, "duration": 110, "velocity": 100}, {"time": 37180, "pitch": 73, "duration": 165, "velocity": 100}, {"time": 37180, "pitch": 80, "duration": 110, "velocity": 100}, {"time": 37180, "pitch": 85, "duration": 110, "velocity": 100}, {"time": 37290, "pitch": 77, "duration": 110, "velocity": 100}, {"time": 37345, "pitch": 73, "duration": 55, "velocity": 100}, {"time": 37400, "pitch": 75, "duration": 220, "velocity": 100}, {"time": 37620, "pitch": 65, "duration": 55, "velocity": 100}, {"time": 37620, "pitch": 77, "duration": 220, "velocity": 100}, {"time": 37730, "pitch": 61, "duration": 55, "velocity": 100}, {"time": 37730, "pitch": 68, "duration": 55, "velocity": 100}, {"time": 37840, "pitch": 61, "duration": 110, "velocity": 100}, {"time": 37840, "pitch": 65, "duration": 110, "velocity": 100}, {"time": 37840, "pitch": 77, "duration": 220, "velocity": 100}, {"time": 37840, "pitch": 80, "duration": 110, "velocity": 100}, {"time": 37840, "pitch": 85, "duration": 110, "velocity": 100}, {"time": 37950, "pitch": 77, "duration": 55, "velocity": 100}, {"time": 38060, "pitch": 61, "duration": 55, "velocity": 100}, {"time": 38060, "pitch": 65, "duration": 55, "velocity": 100}, {"time": 38060, "pitch": 75, "duration": 165, "velocity": 100}, {"time": 38060, "pitch": 80, "duration": 220, "velocity": 100}, {"time": 38060, "pitch": 85, "duration": 220, "velocity": 100}, {"time": 38170, "pitch": 77, "duration": 165, "velocity": 100}, {"time": 38225, "pitch": 77, "duration": 55, "velocity": 100}, {"time": 38280, "pitch": 65, "duration": 55, "velocity": 100}, {"time": 38280, "pitch": 73, "duration": 220, "velocity": 100}, {"time": 38500, "pitch": 61, "duration": 55, "velocity": 100}, {"time": 38500, "pitch": 65, "duration": 110, "velocity": 100}, {"time": 38500, "pitch": 68, "duration": 220, "velocity": 100}, {"time": 38500, "pitch": 80, "duration": 165, "velocity": 100}, {"time": 38500, "pitch": 85, "duration": 165, "velocity": 100}, {"time": 38720, "pitch": 56, "duration": 55, "velocity": 100}, {"time": 38720, "pitch": 61, "duration": 110, "velocity": 100}, {"time": 38720, "pitch": 65, "duration": 110, "velocity": 100}, {"time": 38720, "pitch": 80, "duration": 110, "velocity": 100}, {"time": 38720, "pitch": 85, "duration": 110, "velocity": 100}, {"time": 38830, "pitch": 77, "duration": 55, "velocity": 100}, {"time": 38940, "pitch": 65, "duration": 55, "velocity": 100}, {"time": 38940, "pitch": 68, "duration": 220, "velocity": 100}, {"time": 38940, "pitch": 80, "duration": 165, "velocity": 100}, {"time": 38940, "pitch": 85, "duration": 220, "velocity": 100}, {"time": 39050, "pitch": 77, "duration": 220, "velocity": 100}, {"time": 39160, "pitch": 61, "duration": 165, "velocity": 100}, {"time": 39160, "pitch": 65, "duration": 165, "velocity": 100}, {"time": 39160, "pitch": 77, "duration": 330, "velocity": 100}, {"time": 39160, "pitch": 85, "duration": 440, "velocity": 100}, {"time": 39380, "pitch": 65, "duration": 165, "velocity": 100}, {"time": 39490, "pitch": 68, "duration": 110, "velocity": 100}, {"time": 39600, "pitch": 61, "duration": 55, "velocity": 100}, {"time": 39600, "pitch": 65, "duration": 165, "velocity": 100}, {"time": 39600, "pitch": 68, "duration": 110, "velocity": 100}, {"time": 39600, "pitch": 77, "duration": 880, "velocity": 100}, {"time": 39600, "pitch": 85, "duration": 220, "velocity": 100}, {"time": 39710, "pitch": 77, "duration": 110, "velocity": 100}, {"time": 39820, "pitch": 61, "duration": 55, "velocity": 100}, {"time": 39820, "pitch": 65, "duration": 55, "velocity": 100}, {"time": 39820, "pitch": 68, "duration": 55, "velocity": 100}, {"time": 39820, "pitch": 85, "duration": 220, "velocity": 100}, {"time": 39930, "pitch": 77, "duration": 275, "velocity": 100}, {"time": 40260, "pitch": 61, "duration": 110, "velocity": 100}, {"time": 40260, "pitch": 65, "duration": 110, "velocity": 100}, {"time": 40480, "pitch": 56, "duration": 55, "velocity": 100}, {"time": 40480, "pitch": 59, "duration": 110, "velocity": 100}, {"time": 40480, "pitch": 65, "duration": 110, "velocity": 100}, {"time": 40480, "pitch": 80, "duration": 110, "velocity": 100}, {"time": 40480, "pitch": 83, "duration": 110, "velocity": 100}, {"time": 40590, "pitch": 73, "duration": 55, "velocity": 100}, {"time": 40700, "pitch": 61, "duration": 55, "velocity": 100}, {"time": 40700, "pitch": 65, "duration": 55, "velocity": 100}, {"time": 40700, "pitch": 68, "duration": 220, "velocity": 100}, {"time": 40700, "pitch": 80, "duration": 220, "velocity": 100}, {"time": 40700, "pitch": 83, "duration": 110, "velocity": 100}, {"time": 40810, "pitch": 73, "duration": 275, "velocity": 100}, {"time": 40920, "pitch": 65, "duration": 110, "velocity": 100}, {"time": 40920, "pitch": 77, "duration": 330, "velocity": 100}, {"time": 41140, "pitch": 61, "duration": 110, "velocity": 100}, {"time": 41250, "pitch": 68, "duration": 110, "velocity": 100}, {"time": 41360, "pitch": 56, "duration": 55, "velocity": 100}, {"time": 41360, "pitch": 61, "duration": 110, "velocity": 100}, {"time": 41360, "pitch": 77, "duration": 880, "velocity": 100}, {"time": 41360, "pitch": 80, "duration": 110, "velocity": 100}, {"time": 41360, "pitch": 85, "duration": 110, "velocity": 100}, {"time": 41470, "pitch": 77, "duration": 110, "velocity": 100}, {"time": 41580, "pitch": 65, "duration": 110, "velocity": 100}, {"time": 41580, "pitch": 80, "duration": 220, "velocity": 100}, {"time": 41580, "pitch": 85, "duration": 220, "velocity": 100}, {"time": 41690, "pitch": 77, "duration": 110, "velocity": 100}, {"time": 41800, "pitch": 61, "duration": 110, "velocity": 100}, {"time": 41800, "pitch": 85, "duration": 440, "velocity": 100}, {"time": 42020, "pitch": 61, "duration": 165, "velocity": 100}, {"time": 42020, "pitch": 65, "duration": 165, "velocity": 100}, {"time": 42240, "pitch": 61, "duration": 330, "velocity": 100}, {"time": 42240, "pitch": 87, "duration": 110, "velocity": 100}, {"time": 42460, "pitch": 61, "duration": 220, "velocity": 100}, {"time": 42680, "pitch": 58, "duration": 110, "velocity": 100}, {"time": 42680, "pitch": 61, "duration": 110, "velocity": 100}, {"time": 42900, "pitch": 55, "duration": 55, "velocity": 100}, {"time": 42900, "pitch": 58, "duration": 110, "velocity": 100}, {"time": 42900, "pitch": 61, "duration": 110, "velocity": 100}, {"time": 42900, "pitch": 63, "duration": 110, "velocity": 100}, {"time": 42900, "pitch": 65, "duration": 110, "velocity": 100}, {"time": 43120, "pitch": 55, "duration": 220, "velocity": 100}, {"time": 43120, "pitch": 58, "duration": 220, "velocity": 100}, {"time": 43340, "pitch": 58, "duration": 110, "velocity": 100}, {"time": 43340, "pitch": 61, "duration": 110, "velocity": 100}, {"time": 43560, "pitch": 60, "duration": 220, "velocity": 100}, {"time": 43560, "pitch": 63, "duration": 220, "velocity": 100}, {"time": 43780, "pitch": 60, "duration": 220, "velocity": 100}, {"time": 43780, "pitch": 63, "duration": 220, "velocity": 100}, {"time": 43780, "pitch": 68, "duration": 110, "velocity": 100}, {"time": 44000, "pitch": 59, "duration": 220, "velocity": 100}, {"time": 44000, "pitch": 62, "duration": 220, "velocity": 100}, {"time": 44000, "pitch": 79, "duration": 1540, "velocity": 100}, {"time": 44220, "pitch": 59, "duration": 110, "velocity": 100}, {"time": 44220, "pitch": 62, "duration": 110, "velocity": 100}, {"time": 44220, "pitch": 67, "duration": 110, "velocity": 100}, {"time": 44440, "pitch": 55, "duration": 110, "velocity": 100}, {"time": 44440, "pitch": 59, "duration": 110, "velocity": 100}, {"time": 44550, "pitch": 55, "duration": 55, "velocity": 100}, {"time": 44880, "pitch": 55, "duration": 495, "velocity": 100}, {"time": 44880, "pitch": 59, "duration": 275, "velocity": 100}, {"time": 44880, "pitch": 62, "duration": 220, "velocity": 100}, {"time": 44880, "pitch": 71, "duration": 220, "velocity": 100}, {"time": 45100, "pitch": 67, "duration": 220, "velocity": 100}, {"time": 45100, "pitch": 71, "duration": 220, "velocity": 100}, {"time": 45210, "pitch": 62, "duration": 110, "velocity": 100}, {"time": 45320, "pitch": 62, "duration": 165, "velocity": 100}, {"time": 45320, "pitch": 67, "duration": 55, "velocity": 100}, {"time": 45320, "pitch": 71, "duration": 110, "velocity": 100}, {"time": 45430, "pitch": 67, "duration": 55, "velocity": 100}, {"time": 45540, "pitch": 72, "duration": 55, "velocity": 100}, {"time": 45650, "pitch": 67, "duration": 55, "velocity": 100}, {"time": 45705, "pitch": 72, "duration": 55, "velocity": 100}, {"time": 45760, "pitch": 68, "duration": 110, "velocity": 100}, {"time": 45760, "pitch": 75, "duration": 110, "velocity": 100}, {"time": 45870, "pitch": 75, "duration": 110, "velocity": 100}, {"time": 45980, "pitch": 68, "duration": 110, "velocity": 100}, {"time": 45980, "pitch": 72, "duration": 110, "velocity": 100}, {"time": 46090, "pitch": 72, "duration": 110, "velocity": 100}, {"time": 46200, "pitch": 63, "duration": 110, "velocity": 100}, {"time": 46200, "pitch": 75, "duration": 220, "velocity": 100}, {"time": 46420, "pitch": 63, "duration": 110, "velocity": 100}, {"time": 46420, "pitch": 68, "duration": 110, "velocity": 100}, {"time": 46640, "pitch": 60, "duration": 110, "velocity": 100}, {"time": 46750, "pitch": 75, "duration": 110, "velocity": 100}, {"time": 46860, "pitch": 63, "duration": 110, "velocity": 100}, {"time": 46970, "pitch": 72, "duration": 110, "velocity": 100}, {"time": 47080, "pitch": 60, "duration": 110, "velocity": 100}, {"time": 47080, "pitch": 63, "duration": 110, "velocity": 100}, {"time": 47080, "pitch": 75, "duration": 220, "velocity": 100}, {"time": 47300, "pitch": 61, "duration": 55, "velocity": 100}, {"time": 47300, "pitch": 65, "duration": 55, "velocity": 100}, {"time": 47300, "pitch": 75, "duration": 110, "velocity": 100}, {"time": 47410, "pitch": 77, "duration": 110, "velocity": 100}, {"time": 47520, "pitch": 61, "duration": 55, "velocity": 100}, {"time": 47520, "pitch": 77, "duration": 110, "velocity": 100}, {"time": 47520, "pitch": 82, "duration": 440, "velocity": 100}, {"time": 47630, "pitch": 77, "duration": 110, "velocity": 100}, {"time": 47740, "pitch": 65, "duration": 55, "velocity": 100}, {"time": 47740, "pitch": 84, "duration": 220, "velocity": 100}, {"time": 47850, "pitch": 73, "duration": 110, "velocity": 100}, {"time": 47960, "pitch": 61, "duration": 110, "velocity": 100}, {"time": 47960, "pitch": 68, "duration": 110, "velocity": 100}, {"time": 47960, "pitch": 77, "duration": 220, "velocity": 100}, {"time": 47960, "pitch": 80, "duration": 440, "velocity": 100}, {"time": 48180, "pitch": 68, "duration": 55, "velocity": 100}, {"time": 48400, "pitch": 65, "duration": 110, "velocity": 100}, {"time": 48400, "pitch": 70, "duration": 110, "velocity": 100}, {"time": 48400, "pitch": 77, "duration": 110, "velocity": 100}, {"time": 48400, "pitch": 77, "duration": 440, "velocity": 100}, {"time": 48510, "pitch": 77, "duration": 110, "velocity": 100}, {"time": 48620, "pitch": 70, "duration": 110, "velocity": 100}, {"time": 48730, "pitch": 73, "duration": 110, "velocity": 100}, {"time": 48730, "pitch": 75, "duration": 110, "velocity": 100}, {"time": 48840, "pitch": 61, "duration": 110, "velocity": 100}, {"time": 48840, "pitch": 68, "duration": 110, "velocity": 100}, {"time": 48840, "pitch": 73, "duration": 110, "velocity": 100}, {"time": 48840, "pitch": 77, "duration": 220, "velocity": 100}, {"time": 48950, "pitch": 72, "duration": 110, "velocity": 100}, {"time": 49060, "pitch": 63, "duration": 220, "velocity": 100}, {"time": 49060, "pitch": 67, "duration": 220, "velocity": 100}, {"time": 49060, "pitch": 70, "duration": 220, "velocity": 100}, {"time": 49170, "pitch": 75, "duration": 55, "velocity": 100}, {"time": 49225, "pitch": 75, "duration": 55, "velocity": 100}, {"time": 49280, "pitch": 67, "duration": 110, "velocity": 100}, {"time": 49280, "pitch": 75, "duration": 110, "velocity": 100}, {"time": 49280, "pitch": 75, "duration": 330, "velocity": 100}, {"time": 49390, "pitch": 75, "duration": 110, "velocity": 100}, {"time": 49500, "pitch": 67, "duration": 110, "velocity": 100}, {"time": 49500, "pitch": 75, "duration": 110, "velocity": 100}, {"time": 49610, "pitch": 75, "duration": 110, "velocity": 100}, {"time": 49610, "pitch": 75, "duration": 110, "velocity": 100}, {"time": 49720, "pitch": 63, "duration": 110, "velocity": 100}, {"time": 49720, "pitch": 67, "duration": 220, "velocity": 100}, {"time": 49720, "pitch": 75, "duration": 110, "velocity": 100}, {"time": 49830, "pitch": 68, "duration": 110, "velocity": 100}, {"time": 49830, "pitch": 75, "duration": 110, "velocity": 100}, {"time": 49940, "pitch": 70, "duration": 110, "velocity": 100}, {"time": 49940, "pitch": 73, "duration": 110, "velocity": 100}, {"time": 50050, "pitch": 70, "duration": 110, "velocity": 100}, {"time": 50160, "pitch": 67, "duration": 165, "velocity": 100}, {"time": 50160, "pitch": 75, "duration": 220, "velocity": 100}, {"time": 50270, "pitch": 80, "duration": 110, "velocity": 100}, {"time": 50380, "pitch": 63, "duration": 55, "velocity": 100}, {"time": 50380, "pitch": 67, "duration": 110, "velocity": 100}, {"time": 50380, "pitch": 70, "duration": 110, "velocity": 100}, {"time": 50380, "pitch": 75, "duration": 660, "velocity": 100}, {"time": 50380, "pitch": 82, "duration": 110, "velocity": 100}, {"time": 50490, "pitch": 77, "duration": 110, "velocity": 100}, {"time": 50600, "pitch": 63, "duration": 55, "velocity": 100}, {"time": 50600, "pitch": 79, "duration": 220, "velocity": 100}, {"time": 50820, "pitch": 67, "duration": 110, "velocity": 100}, {"time": 50820, "pitch": 70, "duration": 110, "velocity": 100}, {"time": 50820, "pitch": 77, "duration": 220, "velocity": 100}, {"time": 51040, "pitch": 63, "duration": 110, "velocity": 100}, {"time": 51040, "pitch": 63, "duration": 220, "velocity": 100}, {"time": 51040, "pitch": 68, "duration": 220, "velocity": 100}, {"time": 51040, "pitch": 72, "duration": 660, "velocity": 100}, {"time": 51150, "pitch": 63, "duration": 110, "velocity": 100}, {"time": 51260, "pitch": 63, "duration": 110, "velocity": 100}, {"time": 51260, "pitch": 63, "duration": 110, "velocity": 100}, {"time": 51260, "pitch": 68, "duration": 110, "velocity": 100}, {"time": 51480, "pitch": 63, "duration": 110, "velocity": 100}, {"time": 51480, "pitch": 63, "duration": 110, "velocity": 100}, {"time": 51700, "pitch": 63, "duration": 110, "velocity": 100}, {"time": 51700, "pitch": 68, "duration": 165, "velocity": 100}, {"time": 51700, "pitch": 72, "duration": 110, "velocity": 100}, {"time": 51810, "pitch": 68, "duration": 770, "velocity": 100}, {"time": 51920, "pitch": 60, "duration": 55, "velocity": 100}, {"time": 51920, "pitch": 63, "duration": 165, "velocity": 100}, {"time": 51920, "pitch": 68, "duration": 165, "velocity": 100}, {"time": 52030, "pitch": 75, "duration": 495, "velocity": 100}, {"time": 52140, "pitch": 63, "duration": 165, "velocity": 100}, {"time": 52140, "pitch": 68, "duration": 165, "velocity": 100}, {"time": 52140, "pitch": 72, "duration": 165, "velocity": 100}, {"time": 52250, "pitch": 80, "duration": 330, "velocity": 100}, {"time": 52360, "pitch": 68, "duration": 55, "velocity": 100}, {"time": 52580, "pitch": 63, "duration": 110, "velocity": 100}, {"time": 52580, "pitch": 68, "duration": 110, "velocity": 100}, {"time": 52800, "pitch": 60, "duration": 55, "velocity": 100}, {"time": 52800, "pitch": 63, "duration": 110, "velocity": 100}, {"time": 52800, "pitch": 63, "duration": 110, "velocity": 100}, {"time": 52800, "pitch": 68, "duration": 110, "velocity": 100}, {"time": 52800, "pitch": 75, "duration": 220, "velocity": 100}, {"time": 52910, "pitch": 68, "duration": 110, "velocity": 100}, {"time": 52910, "pitch": 72, "duration": 275, "velocity": 100}, {"time": 53020, "pitch": 63, "duration": 110, "velocity": 100}, {"time": 53020, "pitch": 68, "duration": 110, "velocity": 100}, {"time": 53020, "pitch": 68, "duration": 110, "velocity": 100}, {"time": 53020, "pitch": 80, "duration": 440, "velocity": 100}, {"time": 53130, "pitch": 68, "duration": 110, "velocity": 100}, {"time": 53130, "pitch": 80, "duration": 440, "velocity": 100}, {"time": 53240, "pitch": 70, "duration": 110, "velocity": 100}, {"time": 53350, "pitch": 72, "duration": 110, "velocity": 100}, {"time": 53460, "pitch": 68, "duration": 55, "velocity": 100}, {"time": 53460, "pitch": 75, "duration": 110, "velocity": 100}, {"time": 53570, "pitch": 63, "duration": 55, "velocity": 100}, {"time": 53570, "pitch": 68, "duration": 55, "velocity": 100}, {"time": 53570, "pitch": 68, "duration": 110, "velocity": 100}, {"time": 53570, "pitch": 72, "duration": 110, "velocity": 100}, {"time": 53680, "pitch": 63, "duration": 110, "velocity": 100}, {"time": 53680, "pitch": 63, "duration": 660, "velocity": 100}, {"time": 53680, "pitch": 67, "duration": 110, "velocity": 100}, {"time": 53680, "pitch": 75, "duration": 220, "velocity": 100}, {"time": 53790, "pitch": 70, "duration": 220, "velocity": 100}, {"time": 53900, "pitch": 63, "duration": 55, "velocity": 100}, {"time": 53900, "pitch": 67, "duration": 55, "velocity": 100}, {"time": 53900, "pitch": 75, "duration": 165, "velocity": 100}, {"time": 54010, "pitch": 79, "duration": 330, "velocity": 100}, {"time": 54120, "pitch": 67, "duration": 110, "velocity": 100}, {"time": 54340, "pitch": 63, "duration": 55, "velocity": 100}, {"time": 54340, "pitch": 67, "duration": 110, "velocity": 100}, {"time": 54560, "pitch": 56, "duration": 55, "velocity": 100}, {"time": 54560, "pitch": 60, "duration": 110, "velocity": 100}, {"time": 54560, "pitch": 63, "duration": 110, "velocity": 100}, {"time": 54560, "pitch": 68, "duration": 110, "velocity": 100}, {"time": 54560, "pitch": 75, "duration": 220, "velocity": 100}, {"time": 54670, "pitch": 68, "duration": 165, "velocity": 100}, {"time": 54780, "pitch": 63, "duration": 110, "velocity": 100}, {"time": 54780, "pitch": 75, "duration": 220, "velocity": 100}, {"time": 54890, "pitch": 72, "duration": 275, "velocity": 100}, {"time": 55000, "pitch": 63, "duration": 110, "velocity": 100}, {"time": 55000, "pitch": 63, "duration": 110, "velocity": 100}, {"time": 55000, "pitch": 68, "duration": 110, "velocity": 100}, {"time": 55220, "pitch": 63, "duration": 110, "velocity": 100}, {"time": 55220, "pitch": 68, "duration": 220, "velocity": 100}, {"time": 55220, "pitch": 75, "duration": 110, "velocity": 100}, {"time": 55330, "pitch": 72, "duration": 220, "velocity": 100}, {"time": 55330, "pitch": 72, "duration": 770, "velocity": 100}, {"time": 55440, "pitch": 63, "duration": 110, "velocity": 100}, {"time": 55440, "pitch": 68, "duration": 110, "velocity": 100}, {"time": 55440, "pitch": 72, "duration": 440, "velocity": 100}, {"time": 55660, "pitch": 63, "duration": 55, "velocity": 100}, {"time": 55660, "pitch": 68, "duration": 55, "velocity": 100}, {"time": 55880, "pitch": 63, "duration": 55, "velocity": 100}, {"time": 55880, "pitch": 68, "duration": 55, "velocity": 100}, {"time": 55935, "pitch": 63, "duration": 55, "velocity": 100}, {"time": 56100, "pitch": 63, "duration": 110, "velocity": 100}, {"time": 56100, "pitch": 68, "duration": 110, "velocity": 100}, {"time": 56100, "pitch": 72, "duration": 165, "velocity": 100}, {"time": 56100, "pitch": 75, "duration": 220, "velocity": 100}, {"time": 56320, "pitch": 58, "duration": 110, "velocity": 100}, {"time": 56320, "pitch": 61, "duration": 110, "velocity": 100}, {"time": 56320, "pitch": 65, "duration": 110, "velocity": 100}, {"time": 56320, "pitch": 65, "duration": 110, "velocity": 100}, {"time": 56320, "pitch": 70, "duration": 330, "velocity": 100}, {"time": 56320, "pitch": 73, "duration": 440, "velocity": 100}, {"time": 56430, "pitch": 73, "duration": 110, "velocity": 100}, {"time": 56540, "pitch": 65, "duration": 55, "velocity": 100}, {"time": 56540, "pitch": 73, "duration": 110, "velocity": 100}, {"time": 56650, "pitch": 73, "duration": 110, "velocity": 100}, {"time": 56760, "pitch": 65, "duration": 110, "velocity": 100}, {"time": 56760, "pitch": 70, "duration": 110, "velocity": 100}, {"time": 56870, "pitch": 72, "duration": 110, "velocity": 100}, {"time": 56870, "pitch": 72, "duration": 110, "velocity": 100}, {"time": 56980, "pitch": 65, "duration": 110, "velocity": 100}, {"time": 56980, "pitch": 72, "duration": 110, "velocity": 100}, {"time": 56980, "pitch": 74, "duration": 110, "velocity": 100}, {"time": 57090, "pitch": 68, "duration": 110, "velocity": 100}, {"time": 57090, "pitch": 77, "duration": 110, "velocity": 100}, {"time": 57200, "pitch": 63, "duration": 110, "velocity": 100}, {"time": 57200, "pitch": 63, "duration": 220, "velocity": 100}, {"time": 57200, "pitch": 70, "duration": 660, "velocity": 100}, {"time": 57200, "pitch": 75, "duration": 660, "velocity": 100}, {"time": 57420, "pitch": 63, "duration": 55, "velocity": 100}, {"time": 57420, "pitch": 67, "duration": 110, "velocity": 100}, {"time": 57420, "pitch": 72, "duration": 110, "velocity": 100}, {"time": 57530, "pitch": 70, "duration": 330, "velocity": 100}, {"time": 57640, "pitch": 63, "duration": 110, "velocity": 100}, {"time": 57860, "pitch": 63, "duration": 110, "velocity": 100}, {"time": 57860, "pitch": 67, "duration": 165, "velocity": 100}, {"time": 58080, "pitch": 60, "duration": 165, "velocity": 100}, {"time": 58080, "pitch": 63, "duration": 110, "velocity": 100}, {"time": 58080, "pitch": 63, "duration": 220, "velocity": 100}, {"time": 58080, "pitch": 68, "duration": 220, "velocity": 100}, {"time": 58080, "pitch": 72, "duration": 660, "velocity": 100}, {"time": 58190, "pitch": 63, "duration": 110, "velocity": 100}, {"time": 58300, "pitch": 63, "duration": 110, "velocity": 100}, {"time": 58300, "pitch": 63, "duration": 110, "velocity": 100}, {"time": 58300, "pitch": 68, "duration": 110, "velocity": 100}, {"time": 58520, "pitch": 63, "duration": 110, "velocity": 100}, {"time": 58520, "pitch": 63, "duration": 110, "velocity": 100}, {"time": 58740, "pitch": 63, "duration": 110, "velocity": 100}, {"time": 58740, "pitch": 68, "duration": 165, "velocity": 100}, {"time": 58740, "pitch": 72, "duration": 110, "velocity": 100}, {"time": 58850, "pitch": 68, "duration": 770, "velocity": 100}, {"time": 58960, "pitch": 60, "duration": 55, "velocity": 100}, {"time": 58960, "pitch": 63, "duration": 165, "velocity": 100}, {"time": 58960, "pitch": 68, "duration": 165, "velocity": 100}, {"time": 59070, "pitch": 75, "duration": 495, "velocity": 100}, {"time": 59180, "pitch": 63, "duration": 165, "velocity": 100}, {"time": 59180, "pitch": 68, "duration": 165, "velocity": 100}, {"time": 59180, "pitch": 72, "duration": 165, "velocity": 100}, {"time": 59290, "pitch": 80, "duration": 330, "velocity": 100}, {"time": 59400, "pitch": 68, "duration": 55, "velocity": 100}, {"time": 59620, "pitch": 63, "duration": 110, "velocity": 100}, {"time": 59620, "pitch": 68, "duration": 110, "velocity": 100}, {"time": 59840, "pitch": 60, "duration": 55, "velocity": 100}, {"time": 59840, "pitch": 63, "duration": 110, "velocity": 100}, {"time": 59840, "pitch": 63, "duration": 110, "velocity": 100}, {"time": 59840, "pitch": 68, "duration": 110, "velocity": 100}, {"time": 59840, "pitch": 75, "duration": 220, "velocity": 100}, {"time": 59950, "pitch": 68, "duration": 110, "velocity": 100}, {"time": 59950, "pitch": 72, "duration": 275, "velocity": 100}, {"time": 60060, "pitch": 63, "duration": 110, "velocity": 100}, {"time": 60060, "pitch": 68, "duration": 110, "velocity": 100}, {"time": 60060, "pitch": 68, "duration": 110, "velocity": 100}, {"time": 60060, "pitch": 80, "duration": 440, "velocity": 100}, {"time": 60170, "pitch": 68, "duration": 110, "velocity": 100}, {"time": 60170, "pitch": 80, "duration": 440, "velocity": 100}, {"time": 60280, "pitch": 70, "duration": 110, "velocity": 100}, {"time": 60390, "pitch": 72, "duration": 110, "velocity": 100}, {"time": 60500, "pitch": 68, "duration": 55, "velocity": 100}, {"time": 60500, "pitch": 75, "duration": 110, "velocity": 100}, {"time": 60610, "pitch": 63, "duration": 55, "velocity": 100}, {"time": 60610, "pitch": 68, "duration": 55, "velocity": 100}, {"time": 60610, "pitch": 68, "duration": 110, "velocity": 100}, {"time": 60610, "pitch": 72, "duration": 110, "velocity": 100}, {"time": 60720, "pitch": 63, "duration": 110, "velocity": 100}, {"time": 60720, "pitch": 63, "duration": 660, "velocity": 100}, {"time": 60720, "pitch": 67, "duration": 110, "velocity": 100}, {"time": 60720, "pitch": 75, "duration": 220, "velocity": 100}, {"time": 60830, "pitch": 70, "duration": 220, "velocity": 100}, {"time": 60940, "pitch": 63, "duration": 55, "velocity": 100}, {"time": 60940, "pitch": 67, "duration": 55, "velocity": 100}, {"time": 60940, "pitch": 75, "duration": 165, "velocity": 100}, {"time": 61050, "pitch": 79, "duration": 330, "velocity": 100}, {"time": 61160, "pitch": 67, "duration": 110, "velocity": 100}, {"time": 61380, "pitch": 63, "duration": 55, "velocity": 100}, {"time": 61380, "pitch": 67, "duration": 110, "velocity": 100}, {"time": 61600, "pitch": 56, "duration": 55, "velocity": 100}, {"time": 61600, "pitch": 60, "duration": 110, "velocity": 100}, {"time": 61600, "pitch": 63, "duration": 110, "velocity": 100}, {"time": 61600, "pitch": 68, "duration": 110, "velocity": 100}, {"time": 61600, "pitch": 75, "duration": 220, "velocity": 100}, {"time": 61710, "pitch": 68, "duration": 165, "velocity": 100}, {"time": 61820, "pitch": 63, "duration": 110, "velocity": 100}, {"time": 61820, "pitch": 75, "duration": 220, "velocity": 100}, {"time": 61930, "pitch": 72, "duration": 275, "velocity": 100}, {"time": 62040, "pitch": 63, "duration": 110, "velocity": 100}, {"time": 62040, "pitch": 63, "duration": 110, "velocity": 100}, {"time": 62040, "pitch": 68, "duration": 110, "velocity": 100}, {"time": 62260, "pitch": 63, "duration": 110, "velocity": 100}, {"time": 62260, "pitch": 68, "duration": 220, "velocity": 100}, {"time": 62260, "pitch": 75, "duration": 110, "velocity": 100}, {"time": 62370, "pitch": 72, "duration": 220, "velocity": 100}, {"time": 62370, "pitch": 72, "duration": 770, "velocity": 100}, {"time": 62480, "pitch": 63, "duration": 110, "velocity": 100}, {"time": 62480, "pitch": 68, "duration": 110, "velocity": 100}, {"time": 62480, "pitch": 72, "duration": 440, "velocity": 100}, {"time": 62700, "pitch": 63, "duration": 55, "velocity": 100}, {"time": 62700, "pitch": 68, "duration": 55, "velocity": 100}, {"time": 62920, "pitch": 63, "duration": 55, "velocity": 100}, {"time": 62920, "pitch": 68, "duration": 55, "velocity": 100}, {"time": 62975, "pitch": 63, "duration": 55, "velocity": 100}, {"time": 63140, "pitch": 63, "duration": 110, "velocity": 100}, {"time": 63140, "pitch": 68, "duration": 110, "velocity": 100}, {"time": 63140, "pitch": 72, "duration": 165, "velocity": 100}, {"time": 63140, "pitch": 75, "duration": 220, "velocity": 100}, {"time": 63360, "pitch": 58, "duration": 110, "velocity": 100}, {"time": 63360, "pitch": 61, "duration": 110, "velocity": 100}, {"time": 63360, "pitch": 65, "duration": 110, "velocity": 100}, {"time": 63360, "pitch": 65, "duration": 110, "velocity": 100}, {"time": 63360, "pitch": 70, "duration": 330, "velocity": 100}, {"time": 63360, "pitch": 73, "duration": 440, "velocity": 100}, {"time": 63470, "pitch": 73, "duration": 110, "velocity": 100}, {"time": 63580, "pitch": 65, "duration": 55, "velocity": 100}, {"time": 63580, "pitch": 73, "duration": 110, "velocity": 100}, {"time": 63690, "pitch": 73, "duration": 110, "velocity": 100}, {"time": 63800, "pitch": 65, "duration": 110, "velocity": 100}, {"time": 63800, "pitch": 70, "duration": 110, "velocity": 100}, {"time": 63910, "pitch": 72, "duration": 110, "velocity": 100}, {"time": 63910, "pitch": 72, "duration": 110, "velocity": 100}, {"time": 64020, "pitch": 65, "duration": 110, "velocity": 100}, {"time": 64020, "pitch": 72, "duration": 110, "velocity": 100}, {"time": 64020, "pitch": 74, "duration": 110, "velocity": 100}, {"time": 64130, "pitch": 68, "duration": 110, "velocity": 100}, {"time": 64130, "pitch": 77, "duration": 110, "velocity": 100}, {"time": 64240, "pitch": 63, "duration": 110, "velocity": 100}, {"time": 64240, "pitch": 63, "duration": 220, "velocity": 100}, {"time": 64240, "pitch": 70, "duration": 660, "velocity": 100}, {"time": 64240, "pitch": 75, "duration": 660, "velocity": 100}, {"time": 64460, "pitch": 63, "duration": 55, "velocity": 100}, {"time": 64460, "pitch": 67, "duration": 110, "velocity": 100}, {"time": 64460, "pitch": 70, "duration": 110, "velocity": 100}, {"time": 64570, "pitch": 68, "duration": 330, "velocity": 100}, {"time": 64680, "pitch": 60, "duration": 55, "velocity": 100}, {"time": 64680, "pitch": 63, "duration": 110, "velocity": 100}, {"time": 64900, "pitch": 60, "duration": 55, "velocity": 100}, {"time": 64900, "pitch": 63, "duration": 110, "velocity": 100}, {"time": 64900, "pitch": 68, "duration": 165, "velocity": 100}, {"time": 65120, "pitch": 60, "duration": 165, "velocity": 100}, {"time": 65120, "pitch": 63, "duration": 165, "velocity": 100}, {"time": 65120, "pitch": 72, "duration": 220, "velocity": 100}, {"time": 65120, "pitch": 80, "duration": 110, "velocity": 100}, {"time": 65120, "pitch": 87, "duration": 55, "velocity": 100}, {"time": 65230, "pitch": 80, "duration": 110, "velocity": 100}, {"time": 65340, "pitch": 63, "duration": 110, "velocity": 100}, {"time": 65340, "pitch": 75, "duration": 220, "velocity": 100}, {"time": 65340, "pitch": 84, "duration": 110, "velocity": 100}, {"time": 65340, "pitch": 87, "duration": 110, "velocity": 100}, {"time": 65450, "pitch": 80, "duration": 55, "velocity": 100}, {"time": 65560, "pitch": 75, "duration": 220, "velocity": 100}, {"time": 65780, "pitch": 68, "duration": 165, "velocity": 100}, {"time": 65780, "pitch": 72, "duration": 110, "velocity": 100}, {"time": 65780, "pitch": 84, "duration": 110, "velocity": 100}, {"time": 65780, "pitch": 87, "duration": 110, "velocity": 100}, {"time": 65890, "pitch": 80, "duration": 55, "velocity": 100}, {"time": 66000, "pitch": 63, "duration": 165, "velocity": 100}, {"time": 66000, "pitch": 68, "duration": 165, "velocity": 100}, {"time": 66000, "pitch": 84, "duration": 110, "velocity": 100}, {"time": 66000, "pitch": 87, "duration": 110, "velocity": 100}, {"time": 66110, "pitch": 80, "duration": 55, "velocity": 100}, {"time": 66220, "pitch": 84, "duration": 110, "velocity": 100}, {"time": 66220, "pitch": 87, "duration": 110, "velocity": 100}, {"time": 66330, "pitch": 80, "duration": 55, "velocity": 100}, {"time": 66440, "pitch": 68, "duration": 110, "velocity": 100}, {"time": 66660, "pitch": 68, "duration": 110, "velocity": 100}, {"time": 66660, "pitch": 84, "duration": 55, "velocity": 100}, {"time": 66660, "pitch": 87, "duration": 110, "velocity": 100}, {"time": 66880, "pitch": 65, "duration": 165, "velocity": 100}, {"time": 66880, "pitch": 68, "duration": 165, "velocity": 100}, {"time": 66880, "pitch": 72, "duration": 330, "velocity": 100}, {"time": 66880, "pitch": 84, "duration": 110, "velocity": 100}, {"time": 66880, "pitch": 89, "duration": 110, "velocity": 100}, {"time": 66990, "pitch": 80, "duration": 110, "velocity": 100}, {"time": 67100, "pitch": 84, "duration": 110, "velocity": 100}, {"time": 67210, "pitch": 80, "duration": 110, "velocity": 100}, {"time": 67320, "pitch": 70, "duration": 220, "velocity": 100}, {"time": 67540, "pitch": 68, "duration": 55, "velocity": 100}, {"time": 67540, "pitch": 72, "duration": 220, "velocity": 100}, {"time": 67650, "pitch": 63, "duration": 55, "velocity": 100}, {"time": 67650, "pitch": 68, "duration": 55, "velocity": 100}, {"time": 67760, "pitch": 61, "duration": 55, "velocity": 100}, {"time": 67760, "pitch": 65, "duration": 110, "velocity": 100}, {"time": 67760, "pitch": 65, "duration": 880, "velocity": 100}, {"time": 67760, "pitch": 68, "duration": 110, "velocity": 100}, {"time": 67760, "pitch": 84, "duration": 110, "velocity": 100}, {"time": 67760, "pitch": 85, "duration": 110, "velocity": 100}, {"time": 67870, "pitch": 80, "duration": 110, "velocity": 100}, {"time": 67980, "pitch": 80, "duration": 110, "velocity": 100}, {"time": 67980, "pitch": 85, "duration": 165, "velocity": 100}, {"time": 68090, "pitch": 77, "duration": 220, "velocity": 100}, {"time": 68200, "pitch": 68, "duration": 55, "velocity": 100}, {"time": 68420, "pitch": 65, "duration": 55, "velocity": 100}, {"time": 68420, "pitch": 70, "duration": 110, "velocity": 100}, {"time": 68420, "pitch": 82, "duration": 165, "velocity": 100}, {"time": 68420, "pitch": 85, "duration": 165, "velocity": 100}, {"time": 68640, "pitch": 58, "duration": 55, "velocity": 100}, {"time": 68640, "pitch": 63, "duration": 110, "velocity": 100}, {"time": 68640, "pitch": 67, "duration": 110, "velocity": 100}, {"time": 68640, "pitch": 67, "duration": 330, "velocity": 100}, {"time": 68640, "pitch": 82, "duration": 220, "velocity": 100}, {"time": 68750, "pitch": 82, "duration": 110, "velocity": 100}, {"time": 68860, "pitch": 67, "duration": 55, "velocity": 100}, {"time": 68860, "pitch": 82, "duration": 165, "velocity": 100}, {"time": 68860, "pitch": 87, "duration": 220, "velocity": 100}, {"time": 68970, "pitch": 79, "duration": 440, "velocity": 100}, {"time": 69080, "pitch": 67, "duration": 165, "velocity": 100}, {"time": 69080, "pitch": 70, "duration": 220, "velocity": 100}, {"time": 69080, "pitch": 87, "duration": 440, "velocity": 100}, {"time": 69300, "pitch": 63, "duration": 165, "velocity": 100}, {"time": 69300, "pitch": 63, "duration": 220, "velocity": 100}, {"time": 69520, "pitch": 60, "duration": 55, "velocity": 100}, {"time": 69520, "pitch": 64, "duration": 55, "velocity": 100}, {"time": 69520, "pitch": 67, "duration": 110, "velocity": 100}, {"time": 69520, "pitch": 72, "duration": 880, "velocity": 100}, {"time": 69520, "pitch": 84, "duration": 220, "velocity": 100}, {"time": 69520, "pitch": 88, "duration": 220, "velocity": 100}, {"time": 69630, "pitch": 79, "duration": 110, "velocity": 100}, {"time": 69740, "pitch": 67, "duration": 55, "velocity": 100}, {"time": 69740, "pitch": 84, "duration": 385, "velocity": 100}, {"time": 69740, "pitch": 88, "duration": 220, "velocity": 100}, {"time": 69850, "pitch": 79, "duration": 220, "velocity": 100}, {"time": 69960, "pitch": 67, "duration": 55, "velocity": 100}, {"time": 70180, "pitch": 64, "duration": 110, "velocity": 100}, {"time": 70180, "pitch": 67, "duration": 55, "velocity": 100}, {"time": 70400, "pitch": 58, "duration": 110, "velocity": 100}, {"time": 70400, "pitch": 61, "duration": 110, "velocity": 100}, {"time": 70400, "pitch": 65, "duration": 110, "velocity": 100}, {"time": 70400, "pitch": 73, "duration": 330, "velocity": 100}, {"time": 70400, "pitch": 82, "duration": 110, "velocity": 100}, {"time": 70400, "pitch": 85, "duration": 110, "velocity": 100}, {"time": 70510, "pitch": 77, "duration": 55, "velocity": 100}, {"time": 70620, "pitch": 65, "duration": 110, "velocity": 100}, {"time": 70620, "pitch": 82, "duration": 110, "velocity": 100}, {"time": 70620, "pitch": 85, "duration": 110, "velocity": 100}, {"time": 70730, "pitch": 72, "duration": 110, "velocity": 100}, {"time": 70730, "pitch": 77, "duration": 165, "velocity": 100}, {"time": 70840, "pitch": 65, "duration": 110, "velocity": 100}, {"time": 70840, "pitch": 70, "duration": 55, "velocity": 100}, {"time": 70840, "pitch": 70, "duration": 110, "velocity": 100}, {"time": 70950, "pitch": 72, "duration": 220, "velocity": 100}, {"time": 71060, "pitch": 65, "duration": 110, "velocity": 100}, {"time": 71170, "pitch": 68, "duration": 110, "velocity": 100}, {"time": 71280, "pitch": 58, "duration": 55, "velocity": 100}, {"time": 71280, "pitch": 63, "duration": 110, "velocity": 100}, {"time": 71280, "pitch": 63, "duration": 880, "velocity": 100}, {"time": 71280, "pitch": 82, "duration": 110, "velocity": 100}, {"time": 71280, "pitch": 87, "duration": 110, "velocity": 100}, {"time": 71390, "pitch": 79, "duration": 110, "velocity": 100}, {"time": 71500, "pitch": 67, "duration": 110, "velocity": 100}, {"time": 71500, "pitch": 82, "duration": 165, "velocity": 100}, {"time": 71500, "pitch": 87, "duration": 165, "velocity": 100}, {"time": 71610, "pitch": 79, "duration": 110, "velocity": 100}, {"time": 71720, "pitch": 63, "duration": 110, "velocity": 100}, {"time": 71720, "pitch": 87, "duration": 440, "velocity": 100}, {"time": 71940, "pitch": 67, "duration": 165, "velocity": 100}, {"time": 72160, "pitch": 56, "duration": 165, "velocity": 100}, {"time": 72160, "pitch": 72, "duration": 220, "velocity": 100}, {"time": 72160, "pitch": 80, "duration": 55, "velocity": 100}, {"time": 72270, "pitch": 72, "duration": 55, "velocity": 100}, {"time": 72380, "pitch": 75, "duration": 110, "velocity": 100}, {"time": 72380, "pitch": 75, "duration": 220, "velocity": 100}, {"time": 72380, "pitch": 80, "duration": 110, "velocity": 100}, {"time": 72490, "pitch": 72, "duration": 110, "velocity": 100}, {"time": 72600, "pitch": 75, "duration": 220, "velocity": 100}, {"time": 72820, "pitch": 56, "duration": 110, "velocity": 100}, {"time": 72820, "pitch": 60, "duration": 165, "velocity": 100}, {"time": 72820, "pitch": 72, "duration": 110, "velocity": 100}, {"time": 72820, "pitch": 75, "duration": 55, "velocity": 100}, {"time": 72820, "pitch": 80, "duration": 55, "velocity": 100}, {"time": 72930, "pitch": 75, "duration": 990, "velocity": 100}, {"time": 73040, "pitch": 56, "duration": 165, "velocity": 100}, {"time": 73040, "pitch": 60, "duration": 165, "velocity": 100}, {"time": 73040, "pitch": 75, "duration": 55, "velocity": 100}, {"time": 73040, "pitch": 80, "duration": 55, "velocity": 100}, {"time": 73150, "pitch": 72, "duration": 110, "velocity": 100}, {"time": 73260, "pitch": 75, "duration": 110, "velocity": 100}, {"time": 73260, "pitch": 80, "duration": 55, "velocity": 100}, {"time": 73370, "pitch": 68, "duration": 110, "velocity": 100}, {"time": 73480, "pitch": 60, "duration": 110, "velocity": 100}, {"time": 73700, "pitch": 56, "duration": 110, "velocity": 100}, {"time": 73700, "pitch": 60, "duration": 110, "velocity": 100}, {"time": 73700, "pitch": 75, "duration": 55, "velocity": 100}, {"time": 73700, "pitch": 80, "duration": 110, "velocity": 100}, {"time": 73920, "pitch": 56, "duration": 165, "velocity": 100}, {"time": 73920, "pitch": 61, "duration": 165, "velocity": 100}, {"time": 73920, "pitch": 73, "duration": 330, "velocity": 100}, {"time": 73920, "pitch": 77, "duration": 110, "velocity": 100}, {"time": 73920, "pitch": 80, "duration": 110, "velocity": 100}, {"time": 74030, "pitch": 73, "duration": 110, "velocity": 100}, {"time": 74140, "pitch": 73, "duration": 110, "velocity": 100}, {"time": 74140, "pitch": 77, "duration": 55, "velocity": 100}, {"time": 74250, "pitch": 72, "duration": 110, "velocity": 100}, {"time": 74250, "pitch": 73, "duration": 110, "velocity": 100}, {"time": 74360, "pitch": 70, "duration": 220, "velocity": 100}, {"time": 74580, "pitch": 68, "duration": 220, "velocity": 100}, {"time": 74690, "pitch": 56, "duration": 55, "velocity": 100}, {"time": 74690, "pitch": 61, "duration": 55, "velocity": 100}, {"time": 74800, "pitch": 53, "duration": 55, "velocity": 100}, {"time": 74800, "pitch": 56, "duration": 110, "velocity": 100}, {"time": 74800, "pitch": 61, "duration": 110, "velocity": 100}, {"time": 74800, "pitch": 73, "duration": 55, "velocity": 100}, {"time": 74800, "pitch": 77, "duration": 55, "velocity": 100}, {"time": 74800, "pitch": 77, "duration": 880, "velocity": 100}, {"time": 74910, "pitch": 70, "duration": 55, "velocity": 100}]}, {"program": 70, "is_drum": false, "name": "Tenor", "notes": [{"time": 0, "pitch": 56, "duration": 55, "velocity": 100}, {"time": 110, "pitch": 63, "duration": 110, "velocity": 100}, {"time": 220, "pitch": 63, "duration": 110, "velocity": 100}, {"time": 330, "pitch": 63, "duration": 110, "velocity": 100}, {"time": 440, "pitch": 60, "duration": 110, "velocity": 100}, {"time": 660, "pitch": 63, "duration": 55, "velocity": 100}, {"time": 880, "pitch": 60, "duration": 165, "velocity": 100}, {"time": 990, "pitch": 56, "duration": 220, "velocity": 100}, {"time": 1100, "pitch": 60, "duration": 55, "velocity": 100}, {"time": 1320, "pitch": 56, "duration": 55, "velocity": 100}, {"time": 1540, "pitch": 60, "duration": 165, "velocity": 100}, {"time": 1760, "pitch": 60, "duration": 110, "velocity": 100}, {"time": 1980, "pitch": 60, "duration": 55, "velocity": 100}, {"time": 2090, "pitch": 60, "duration": 55, "velocity": 100}, {"time": 2200, "pitch": 60, "duration": 55, "velocity": 100}, {"time": 2310, "pitch": 58, "duration": 110, "velocity": 100}, {"time": 2420, "pitch": 63, "duration": 55, "velocity": 100}, {"time": 2640, "pitch": 58, "duration": 110, "velocity": 100}, {"time": 2860, "pitch": 63, "duration": 110, "velocity": 100}, {"time": 2970, "pitch": 58, "duration": 55, "velocity": 100}, {"time": 3520, "pitch": 63, "duration": 55, "velocity": 100}, {"time": 3520, "pitch": 63, "duration": 110, "velocity": 100}, {"time": 3630, "pitch": 63, "duration": 55, "velocity": 100}, {"time": 3630, "pitch": 63, "duration": 110, "velocity": 100}, {"time": 3740, "pitch": 63, "duration": 55, "velocity": 100}, {"time": 3740, "pitch": 63, "duration": 110, "velocity": 100}, {"time": 3960, "pitch": 63, "duration": 110, "velocity": 100}, {"time": 4070, "pitch": 63, "duration": 55, "velocity": 100}, {"time": 4180, "pitch": 63, "duration": 110, "velocity": 100}, {"time": 4290, "pitch": 72, "duration": 770, "velocity": 100}, {"time": 4400, "pitch": 63, "duration": 55, "velocity": 100}, {"time": 4510, "pitch": 63, "duration": 55, "velocity": 100}, {"time": 4620, "pitch": 63, "duration": 55, "velocity": 100}, {"time": 4730, "pitch": 63, "duration": 55, "velocity": 100}, {"time": 4840, "pitch": 60, "duration": 165, "velocity": 100}, {"time": 5060, "pitch": 63, "duration": 220, "velocity": 100}, {"time": 5280, "pitch": 65, "duration": 110, "velocity": 100}, {"time": 5500, "pitch": 61, "duration": 165, "velocity": 100}, {"time": 5610, "pitch": 65, "duration": 110, "velocity": 100}, {"time": 5940, "pitch": 62, "duration": 55, "velocity": 100}, {"time": 6160, "pitch": 58, "duration": 110, "velocity": 100}, {"time": 6160, "pitch": 63, "duration": 220, "velocity": 100}, {"time": 6380, "pitch": 58, "duration": 275, "velocity": 100}, {"time": 6490, "pitch": 63, "duration": 55, "velocity": 100}, {"time": 6600, "pitch": 63, "duration": 55, "velocity": 100}, {"time": 6820, "pitch": 63, "duration": 110, "velocity": 100}, {"time": 7040, "pitch": 51, "duration": 220, "velocity": 100}, {"time": 7040, "pitch": 56, "duration": 220, "velocity": 100}, {"time": 7150, "pitch": 63, "duration": 110, "velocity": 100}, {"time": 7260, "pitch": 63, "duration": 110, "velocity": 100}, {"time": 7370, "pitch": 56, "duration": 55, "velocity": 100}, {"time": 7480, "pitch": 60, "duration": 220, "velocity": 100}, {"time": 7700, "pitch": 56, "duration": 55, "velocity": 100}, {"time": 7810, "pitch": 68, "duration": 770, "velocity": 100}, {"time": 7920, "pitch": 51, "duration": 110, "velocity": 100}, {"time": 8140, "pitch": 51, "duration": 55, "velocity": 100}, {"time": 8360, "pitch": 51, "duration": 165, "velocity": 100}, {"time": 8580, "pitch": 51, "duration": 165, "velocity": 100}, {"time": 8800, "pitch": 56, "duration": 55, "velocity": 100}, {"time": 8910, "pitch": 68, "duration": 110, "velocity": 100}, {"time": 9020, "pitch": 60, "duration": 110, "velocity": 100}, {"time": 9130, "pitch": 56, "duration": 55, "velocity": 100}, {"time": 9240, "pitch": 51, "duration": 55, "velocity": 100}, {"time": 9460, "pitch": 60, "duration": 55, "velocity": 100}, {"time": 9680, "pitch": 51, "duration": 110, "velocity": 100}, {"time": 9680, "pitch": 61, "duration": 220, "velocity": 100}, {"time": 9900, "pitch": 55, "duration": 110, "velocity": 100}, {"time": 10010, "pitch": 51, "duration": 55, "velocity": 100}, {"time": 10120, "pitch": 51, "duration": 55, "velocity": 100}, {"time": 10340, "pitch": 58, "duration": 165, "velocity": 100}, {"time": 10560, "pitch": 56, "duration": 165, "velocity": 100}, {"time": 10670, "pitch": 56, "duration": 110, "velocity": 100}, {"time": 11000, "pitch": 56, "duration": 55, "velocity": 100}, {"time": 11110, "pitch": 56, "duration": 55, "velocity": 100}, {"time": 11220, "pitch": 56, "duration": 110, "velocity": 100}, {"time": 11330, "pitch": 72, "duration": 770, "velocity": 100}, {"time": 11440, "pitch": 56, "duration": 165, "velocity": 100}, {"time": 11550, "pitch": 56, "duration": 55, "velocity": 100}, {"time": 11660, "pitch": 56, "duration": 55, "velocity": 100}, {"time": 11880, "pitch": 56, "duration": 220, "velocity": 100}, {"time": 12100, "pitch": 58, "duration": 220, "velocity": 100}, {"time": 12320, "pitch": 65, "duration": 110, "velocity": 100}, {"time": 12430, "pitch": 46, "duration": 605, "velocity": 100}, {"time": 12540, "pitch": 53, "duration": 55, "velocity": 100}, {"time": 12650, "pitch": 58, "duration": 110, "velocity": 100}, {"time": 12980, "pitch": 50, "duration": 55, "velocity": 100}, {"time": 12980, "pitch": 53, "duration": 55, "velocity": 100}, {"time": 13200, "pitch": 51, "duration": 220, "velocity": 100}, {"time": 13420, "pitch": 51, "duration": 275, "velocity": 100}, {"time": 13860, "pitch": 56, "duration": 110, "velocity": 100}, {"time": 14300, "pitch": 63, "duration": 110, "velocity": 100}, {"time": 14410, "pitch": 60, "duration": 55, "velocity": 100}, {"time": 14520, "pitch": 60, "duration": 55, "velocity": 100}, {"time": 14740, "pitch": 60, "duration": 110, "velocity": 100}, {"time": 14960, "pitch": 60, "duration": 55, "velocity": 100}, {"time": 15400, "pitch": 60, "duration": 55, "velocity": 100}, {"time": 15400, "pitch": 63, "duration": 55, "velocity": 100}, {"time": 15510, "pitch": 56, "duration": 55, "velocity": 100}, {"time": 16390, "pitch": 60, "duration": 110, "velocity": 100}, {"time": 16500, "pitch": 65, "duration": 55, "velocity": 100}, {"time": 16610, "pitch": 60, "duration": 55, "velocity": 100}, {"time": 16720, "pitch": 61, "duration": 55, "velocity": 100}, {"time": 17050, "pitch": 56, "duration": 55, "velocity": 100}, {"time": 17160, "pitch": 61, "duration": 55, "velocity": 100}, {"time": 17160, "pitch": 65, "duration": 55, "velocity": 100}, {"time": 17270, "pitch": 56, "duration": 55, "velocity": 100}, {"time": 17380, "pitch": 58, "duration": 55, "velocity": 100}, {"time": 17380, "pitch": 61, "duration": 55, "velocity": 100}, {"time": 17600, "pitch": 51, "duration": 385, "velocity": 100}, {"time": 17710, "pitch": 58, "duration": 110, "velocity": 100}, {"time": 17820, "pitch": 58, "duration": 55, "velocity": 100}, {"time": 17930, "pitch": 55, "duration": 110, "velocity": 100}, {"time": 17930, "pitch": 68, "duration": 110, "velocity": 100}, {"time": 18040, "pitch": 63, "duration": 110, "velocity": 100}, {"time": 18150, "pitch": 58, "duration": 110, "velocity": 100}, {"time": 18260, "pitch": 58, "duration": 110, "velocity": 100}, {"time": 18260, "pitch": 63, "duration": 220, "velocity": 100}, {"time": 18480, "pitch": 60, "duration": 55, "velocity": 100}, {"time": 18590, "pitch": 60, "duration": 110, "velocity": 100}, {"time": 18700, "pitch": 60, "duration": 55, "velocity": 100}, {"time": 18810, "pitch": 60, "duration": 55, "velocity": 100}, {"time": 18920, "pitch": 60, "duration": 55, "velocity": 100}, {"time": 18920, "pitch": 64, "duration": 55, "velocity": 100}, {"time": 19030, "pitch": 60, "duration": 55, "velocity": 100}, {"time": 19140, "pitch": 60, "duration": 110, "velocity": 100}, {"time": 19140, "pitch": 64, "duration": 110, "velocity": 100}, {"time": 19360, "pitch": 58, "duration": 110, "velocity": 100}, {"time": 19580, "pitch": 58, "duration": 55, "velocity": 100}, {"time": 19690, "pitch": 53, "duration": 275, "velocity": 100}, {"time": 19800, "pitch": 58, "duration": 55, "velocity": 100}, {"time": 19800, "pitch": 61, "duration": 110, "velocity": 100}, {"time": 19910, "pitch": 58, "duration": 55, "velocity": 100}, {"time": 20020, "pitch": 58, "duration": 110, "velocity": 100}, {"time": 20020, "pitch": 61, "duration": 110, "velocity": 100}, {"time": 20240, "pitch": 58, "duration": 55, "velocity": 100}, {"time": 20350, "pitch": 58, "duration": 55, "velocity": 100}, {"time": 20460, "pitch": 58, "duration": 55, "velocity": 100}, {"time": 20570, "pitch": 58, "duration": 55, "velocity": 100}, {"time": 20680, "pitch": 58, "duration": 55, "velocity": 100}, {"time": 20790, "pitch": 58, "duration": 55, "velocity": 100}, {"time": 20900, "pitch": 58, "duration": 55, "velocity": 100}, {"time": 21010, "pitch": 58, "duration": 55, "velocity": 100}, {"time": 21120, "pitch": 51, "duration": 220, "velocity": 100}, {"time": 21340, "pitch": 56, "duration": 110, "velocity": 100}, {"time": 21670, "pitch": 51, "duration": 55, "velocity": 100}, {"time": 22000, "pitch": 51, "duration": 55, "velocity": 100}, {"time": 22110, "pitch": 51, "duration": 55, "velocity": 100}, {"time": 22330, "pitch": 51, "duration": 55, "velocity": 100}, {"time": 22440, "pitch": 51, "duration": 55, "velocity": 100}, {"time": 22550, "pitch": 51, "duration": 55, "velocity": 100}, {"time": 22660, "pitch": 51, "duration": 55, "velocity": 100}, {"time": 23210, "pitch": 53, "duration": 55, "velocity": 100}, {"time": 23320, "pitch": 56, "duration": 55, "velocity": 100}, {"time": 23320, "pitch": 61, "duration": 110, "velocity": 100}, {"time": 23430, "pitch": 53, "duration": 110, "velocity": 100}, {"time": 23540, "pitch": 56, "duration": 55, "velocity": 100}, {"time": 23650, "pitch": 53, "duration": 55, "velocity": 100}, {"time": 23760, "pitch": 53, "duration": 55, "velocity": 100}, {"time": 23980, "pitch": 56, "duration": 55, "velocity": 100}, {"time": 24090, "pitch": 53, "duration": 55, "velocity": 100}, {"time": 24200, "pitch": 53, "duration": 55, "velocity": 100}, {"time": 24200, "pitch": 56, "duration": 110, "velocity": 100}, {"time": 24310, "pitch": 49, "duration": 55, "velocity": 100}, {"time": 24420, "pitch": 53, "duration": 55, "velocity": 100}, {"time": 24640, "pitch": 46, "duration": 55, "velocity": 100}, {"time": 24860, "pitch": 53, "duration": 55, "velocity": 100}, {"time": 25080, "pitch": 53, "duration": 110, "velocity": 100}, {"time": 25300, "pitch": 53, "duration": 55, "velocity": 100}, {"time": 25630, "pitch": 53, "duration": 110, "velocity": 100}, {"time": 25740, "pitch": 53, "duration": 55, "velocity": 100}, {"time": 25850, "pitch": 53, "duration": 55, "velocity": 100}, {"time": 25960, "pitch": 53, "duration": 55, "velocity": 100}, {"time": 26015, "pitch": 53, "duration": 55, "velocity": 100}, {"time": 26070, "pitch": 53, "duration": 55, "velocity": 100}, {"time": 26180, "pitch": 53, "duration": 110, "velocity": 100}, {"time": 26400, "pitch": 50, "duration": 110, "velocity": 100}, {"time": 26620, "pitch": 50, "duration": 110, "velocity": 100}, {"time": 26620, "pitch": 53, "duration": 110, "velocity": 100}, {"time": 26730, "pitch": 46, "duration": 385, "velocity": 100}, {"time": 26840, "pitch": 53, "duration": 110, "velocity": 100}, {"time": 27060, "pitch": 50, "duration": 110, "velocity": 100}, {"time": 27060, "pitch": 53, "duration": 110, "velocity": 100}, {"time": 27280, "pitch": 51, "duration": 55, "velocity": 100}, {"time": 27500, "pitch": 51, "duration": 55, "velocity": 100}, {"time": 27610, "pitch": 51, "duration": 55, "velocity": 100}, {"time": 27830, "pitch": 51, "duration": 55, "velocity": 100}, {"time": 27940, "pitch": 51, "duration": 55, "velocity": 100}, {"time": 28050, "pitch": 51, "duration": 55, "velocity": 100}, {"time": 28600, "pitch": 51, "duration": 55, "velocity": 100}, {"time": 28600, "pitch": 56, "duration": 110, "velocity": 100}, {"time": 28710, "pitch": 51, "duration": 55, "velocity": 100}, {"time": 28820, "pitch": 56, "duration": 110, "velocity": 100}, {"time": 28930, "pitch": 72, "duration": 55, "velocity": 100}, {"time": 29040, "pitch": 49, "duration": 55, "velocity": 100}, {"time": 29040, "pitch": 53, "duration": 165, "velocity": 100}, {"time": 29040, "pitch": 58, "duration": 165, "velocity": 100}, {"time": 29260, "pitch": 56, "duration": 55, "velocity": 100}, {"time": 29480, "pitch": 53, "duration": 110, "velocity": 100}, {"time": 29480, "pitch": 56, "duration": 110, "velocity": 100}, {"time": 29590, "pitch": 49, "duration": 55, "velocity": 100}, {"time": 29700, "pitch": 53, "duration": 110, "velocity": 100}, {"time": 29810, "pitch": 70, "duration": 55, "velocity": 100}, {"time": 29920, "pitch": 51, "duration": 55, "velocity": 100}, {"time": 29920, "pitch": 60, "duration": 165, "velocity": 100}, {"time": 30140, "pitch": 56, "duration": 55, "velocity": 100}, {"time": 30140, "pitch": 60, "duration": 110, "velocity": 100}, {"time": 30360, "pitch": 56, "duration": 55, "velocity": 100}, {"time": 30360, "pitch": 60, "duration": 110, "velocity": 100}, {"time": 30470, "pitch": 51, "duration": 110, "velocity": 100}, {"time": 30580, "pitch": 56, "duration": 55, "velocity": 100}, {"time": 30580, "pitch": 60, "duration": 55, "velocity": 100}, {"time": 30690, "pitch": 51, "duration": 55, "velocity": 100}, {"time": 30800, "pitch": 51, "duration": 55, "velocity": 100}, {"time": 31020, "pitch": 51, "duration": 55, "velocity": 100}, {"time": 31240, "pitch": 51, "duration": 55, "velocity": 100}, {"time": 31240, "pitch": 56, "duration": 110, "velocity": 100}, {"time": 31680, "pitch": 49, "duration": 110, "velocity": 100}, {"time": 31900, "pitch": 53, "duration": 55, "velocity": 100}, {"time": 32120, "pitch": 53, "duration": 110, "velocity": 100}, {"time": 32340, "pitch": 53, "duration": 110, "velocity": 100}, {"time": 32780, "pitch": 53, "duration": 55, "velocity": 100}, {"time": 33000, "pitch": 53, "duration": 55, "velocity": 100}, {"time": 33000, "pitch": 58, "duration": 55, "velocity": 100}, {"time": 33055, "pitch": 53, "duration": 55, "velocity": 100}, {"time": 33110, "pitch": 53, "duration": 55, "velocity": 100}, {"time": 33220, "pitch": 53, "duration": 110, "velocity": 100}, {"time": 33440, "pitch": 49, "duration": 110, "velocity": 100}, {"time": 33660, "pitch": 49, "duration": 55, "velocity": 100}, {"time": 33660, "pitch": 53, "duration": 55, "velocity": 100}, {"time": 33880, "pitch": 53, "duration": 110, "velocity": 100}, {"time": 34100, "pitch": 49, "duration": 110, "velocity": 100}, {"time": 34100, "pitch": 53, "duration": 110, "velocity": 100}, {"time": 34320, "pitch": 49, "duration": 55, "velocity": 100}, {"time": 34540, "pitch": 53, "duration": 55, "velocity": 100}, {"time": 34760, "pitch": 49, "duration": 55, "velocity": 100}, {"time": 34980, "pitch": 53, "duration": 110, "velocity": 100}, {"time": 35090, "pitch": 49, "duration": 55, "velocity": 100}, {"time": 35530, "pitch": 56, "duration": 55, "velocity": 100}, {"time": 35640, "pitch": 61, "duration": 55, "velocity": 100}, {"time": 35640, "pitch": 65, "duration": 55, "velocity": 100}, {"time": 35750, "pitch": 56, "duration": 55, "velocity": 100}, {"time": 35860, "pitch": 56, "duration": 110, "velocity": 100}, {"time": 35860, "pitch": 61, "duration": 165, "velocity": 100}, {"time": 36080, "pitch": 56, "duration": 55, "velocity": 100}, {"time": 36080, "pitch": 65, "duration": 165, "velocity": 100}, {"time": 36190, "pitch": 56, "duration": 110, "velocity": 100}, {"time": 36410, "pitch": 56, "duration": 55, "velocity": 100}, {"time": 36520, "pitch": 56, "duration": 110, "velocity": 100}, {"time": 36520, "pitch": 61, "duration": 110, "velocity": 100}, {"time": 36630, "pitch": 56, "duration": 55, "velocity": 100}, {"time": 36740, "pitch": 56, "duration": 55, "velocity": 100}, {"time": 36850, "pitch": 77, "duration": 55, "velocity": 100}, {"time": 36960, "pitch": 61, "duration": 110, "velocity": 100}, {"time": 37070, "pitch": 56, "duration": 110, "velocity": 100}, {"time": 37290, "pitch": 56, "duration": 55, "velocity": 100}, {"time": 37400, "pitch": 61, "duration": 110, "velocity": 100}, {"time": 37400, "pitch": 68, "duration": 110, "velocity": 100}, {"time": 37510, "pitch": 56, "duration": 110, "velocity": 100}, {"time": 37620, "pitch": 61, "duration": 55, "velocity": 100}, {"time": 37730, "pitch": 56, "duration": 55, "velocity": 100}, {"time": 37840, "pitch": 56, "duration": 55, "velocity": 100}, {"time": 37950, "pitch": 56, "duration": 55, "velocity": 100}, {"time": 38170, "pitch": 56, "duration": 55, "velocity": 100}, {"time": 38280, "pitch": 56, "duration": 55, "velocity": 100}, {"time": 38280, "pitch": 61, "duration": 55, "velocity": 100}, {"time": 38390, "pitch": 56, "duration": 55, "velocity": 100}, {"time": 38500, "pitch": 56, "duration": 55, "velocity": 100}, {"time": 38720, "pitch": 49, "duration": 385, "velocity": 100}, {"time": 38830, "pitch": 56, "duration": 110, "velocity": 100}, {"time": 38940, "pitch": 56, "duration": 55, "velocity": 100}, {"time": 39050, "pitch": 56, "duration": 110, "velocity": 100}, {"time": 39270, "pitch": 56, "duration": 110, "velocity": 100}, {"time": 39380, "pitch": 56, "duration": 110, "velocity": 100}, {"time": 39600, "pitch": 49, "duration": 715, "velocity": 100}, {"time": 39710, "pitch": 56, "duration": 110, "velocity": 100}, {"time": 39930, "pitch": 56, "duration": 55, "velocity": 100}, {"time": 40040, "pitch": 61, "duration": 55, "velocity": 100}, {"time": 40040, "pitch": 65, "duration": 55, "velocity": 100}, {"time": 40095, "pitch": 61, "duration": 55, "velocity": 100}, {"time": 40150, "pitch": 56, "duration": 55, "velocity": 100}, {"time": 40260, "pitch": 56, "duration": 110, "velocity": 100}, {"time": 40700, "pitch": 56, "duration": 55, "velocity": 100}, {"time": 40920, "pitch": 56, "duration": 55, "velocity": 100}, {"time": 40920, "pitch": 59, "duration": 110, "velocity": 100}, {"time": 41030, "pitch": 56, "duration": 55, "velocity": 100}, {"time": 41140, "pitch": 56, "duration": 110, "velocity": 100}, {"time": 41140, "pitch": 59, "duration": 110, "velocity": 100}, {"time": 41360, "pitch": 49, "duration": 165, "velocity": 100}, {"time": 41470, "pitch": 56, "duration": 55, "velocity": 100}, {"time": 41580, "pitch": 56, "duration": 55, "velocity": 100}, {"time": 41580, "pitch": 61, "duration": 110, "velocity": 100}, {"time": 41690, "pitch": 56, "duration": 55, "velocity": 100}, {"time": 41800, "pitch": 56, "duration": 55, "velocity": 100}, {"time": 41910, "pitch": 56, "duration": 55, "velocity": 100}, {"time": 42020, "pitch": 56, "duration": 55, "velocity": 100}, {"time": 42130, "pitch": 56, "duration": 55, "velocity": 100}, {"time": 42240, "pitch": 55, "duration": 440, "velocity": 100}, {"time": 42460, "pitch": 58, "duration": 110, "velocity": 100}, {"time": 42570, "pitch": 55, "duration": 110, "velocity": 100}, {"time": 42680, "pitch": 55, "duration": 110, "velocity": 100}, {"time": 43010, "pitch": 55, "duration": 55, "velocity": 100}, {"time": 43230, "pitch": 49, "duration": 220, "velocity": 100}, {"time": 43450, "pitch": 55, "duration": 110, "velocity": 100}, {"time": 43670, "pitch": 48, "duration": 165, "velocity": 100}, {"time": 43890, "pitch": 60, "duration": 110, "velocity": 100}, {"time": 44000, "pitch": 55, "duration": 220, "velocity": 100}, {"time": 44220, "pitch": 55, "duration": 55, "velocity": 100}, {"time": 44330, "pitch": 55, "duration": 55, "velocity": 100}, {"time": 44440, "pitch": 50, "duration": 55, "velocity": 100}, {"time": 44550, "pitch": 50, "duration": 110, "velocity": 100}, {"time": 44660, "pitch": 50, "duration": 55, "velocity": 100}, {"time": 44880, "pitch": 43, "duration": 220, "velocity": 100}, {"time": 44990, "pitch": 55, "duration": 605, "velocity": 100}, {"time": 45320, "pitch": 55, "duration": 330, "velocity": 100}, {"time": 45540, "pitch": 67, "duration": 110, "velocity": 100}, {"time": 45650, "pitch": 56, "duration": 110, "velocity": 100}, {"time": 45650, "pitch": 60, "duration": 110, "velocity": 100}, {"time": 45760, "pitch": 63, "duration": 55, "velocity": 100}, {"time": 45870, "pitch": 63, "duration": 55, "velocity": 100}, {"time": 46090, "pitch": 63, "duration": 55, "velocity": 100}, {"time": 46200, "pitch": 60, "duration": 110, "velocity": 100}, {"time": 46310, "pitch": 56, "duration": 275, "velocity": 100}, {"time": 46420, "pitch": 60, "duration": 55, "velocity": 100}, {"time": 46530, "pitch": 60, "duration": 55, "velocity": 100}, {"time": 46640, "pitch": 56, "duration": 110, "velocity": 100}, {"time": 46860, "pitch": 56, "duration": 55, "velocity": 100}, {"time": 46860, "pitch": 60, "duration": 55, "velocity": 100}, {"time": 46970, "pitch": 56, "duration": 55, "velocity": 100}, {"time": 47190, "pitch": 56, "duration": 165, "velocity": 100}, {"time": 47300, "pitch": 58, "duration": 55, "velocity": 100}, {"time": 47520, "pitch": 56, "duration": 55, "velocity": 100}, {"time": 47740, "pitch": 58, "duration": 55, "velocity": 100}, {"time": 47850, "pitch": 58, "duration": 165, "velocity": 100}, {"time": 48070, "pitch": 60, "duration": 55, "velocity": 100}, {"time": 48180, "pitch": 61, "duration": 55, "velocity": 100}, {"time": 48455, "pitch": 65, "duration": 55, "velocity": 100}, {"time": 48620, "pitch": 61, "duration": 55, "velocity": 100}, {"time": 48620, "pitch": 65, "duration": 110, "velocity": 100}, {"time": 48730, "pitch": 61, "duration": 55, "velocity": 100}, {"time": 48840, "pitch": 58, "duration": 55, "velocity": 100}, {"time": 48950, "pitch": 61, "duration": 55, "velocity": 100}, {"time": 49170, "pitch": 58, "duration": 55, "velocity": 100}, {"time": 49280, "pitch": 61, "duration": 110, "velocity": 100}, {"time": 49500, "pitch": 61, "duration": 55, "velocity": 100}, {"time": 49500, "pitch": 63, "duration": 110, "velocity": 100}, {"time": 49610, "pitch": 61, "duration": 55, "velocity": 100}, {"time": 49830, "pitch": 58, "duration": 110, "velocity": 100}, {"time": 49940, "pitch": 63, "duration": 55, "velocity": 100}, {"time": 49940, "pitch": 67, "duration": 110, "velocity": 100}, {"time": 50050, "pitch": 63, "duration": 55, "velocity": 100}, {"time": 50160, "pitch": 63, "duration": 165, "velocity": 100}, {"time": 50490, "pitch": 63, "duration": 55, "velocity": 100}, {"time": 50600, "pitch": 61, "duration": 165, "velocity": 100}, {"time": 50710, "pitch": 55, "duration": 220, "velocity": 100}, {"time": 50820, "pitch": 61, "duration": 55, "velocity": 100}, {"time": 50930, "pitch": 61, "duration": 55, "velocity": 100}, {"time": 51040, "pitch": 60, "duration": 165, "velocity": 100}, {"time": 51370, "pitch": 60, "duration": 55, "velocity": 100}, {"time": 51370, "pitch": 63, "duration": 110, "velocity": 100}, {"time": 51480, "pitch": 60, "duration": 55, "velocity": 100}, {"time": 51590, "pitch": 60, "duration": 55, "velocity": 100}, {"time": 51700, "pitch": 60, "duration": 110, "velocity": 100}, {"time": 52030, "pitch": 60, "duration": 55, "velocity": 100}, {"time": 52250, "pitch": 56, "duration": 55, "velocity": 100}, {"time": 52360, "pitch": 60, "duration": 55, "velocity": 100}, {"time": 52360, "pitch": 63, "duration": 55, "velocity": 100}, {"time": 52470, "pitch": 56, "duration": 55, "velocity": 100}, {"time": 52580, "pitch": 60, "duration": 110, "velocity": 100}, {"time": 52910, "pitch": 60, "duration": 110, "velocity": 100}, {"time": 53130, "pitch": 56, "duration": 55, "velocity": 100}, {"time": 53240, "pitch": 63, "duration": 110, "velocity": 100}, {"time": 53240, "pitch": 68, "duration": 110, "velocity": 100}, {"time": 53350, "pitch": 60, "duration": 110, "velocity": 100}, {"time": 53460, "pitch": 63, "duration": 55, "velocity": 100}, {"time": 53570, "pitch": 60, "duration": 55, "velocity": 100}, {"time": 53680, "pitch": 58, "duration": 55, "velocity": 100}, {"time": 53790, "pitch": 58, "duration": 55, "velocity": 100}, {"time": 54010, "pitch": 58, "duration": 55, "velocity": 100}, {"time": 54120, "pitch": 58, "duration": 55, "velocity": 100}, {"time": 54120, "pitch": 63, "duration": 55, "velocity": 100}, {"time": 54230, "pitch": 58, "duration": 55, "velocity": 100}, {"time": 54340, "pitch": 58, "duration": 55, "velocity": 100}, {"time": 54560, "pitch": 48, "duration": 385, "velocity": 100}, {"time": 54670, "pitch": 56, "duration": 110, "velocity": 100}, {"time": 54670, "pitch": 63, "duration": 110, "velocity": 100}, {"time": 54780, "pitch": 60, "duration": 55, "velocity": 100}, {"time": 54780, "pitch": 63, "duration": 55, "velocity": 100}, {"time": 54890, "pitch": 56, "duration": 110, "velocity": 100}, {"time": 54890, "pitch": 63, "duration": 110, "velocity": 100}, {"time": 55110, "pitch": 56, "duration": 110, "velocity": 100}, {"time": 55220, "pitch": 60, "duration": 110, "velocity": 100}, {"time": 55440, "pitch": 60, "duration": 55, "velocity": 100}, {"time": 55550, "pitch": 60, "duration": 110, "velocity": 100}, {"time": 55660, "pitch": 60, "duration": 55, "velocity": 100}, {"time": 55770, "pitch": 60, "duration": 55, "velocity": 100}, {"time": 55880, "pitch": 60, "duration": 55, "velocity": 100}, {"time": 55990, "pitch": 60, "duration": 55, "velocity": 100}, {"time": 56100, "pitch": 60, "duration": 110, "velocity": 100}, {"time": 56540, "pitch": 58, "duration": 55, "velocity": 100}, {"time": 56540, "pitch": 61, "duration": 110, "velocity": 100}, {"time": 56650, "pitch": 53, "duration": 275, "velocity": 100}, {"time": 56760, "pitch": 58, "duration": 55, "velocity": 100}, {"time": 56760, "pitch": 62, "duration": 110, "velocity": 100}, {"time": 56870, "pitch": 58, "duration": 55, "velocity": 100}, {"time": 56980, "pitch": 58, "duration": 110, "velocity": 100}, {"time": 56980, "pitch": 62, "duration": 110, "velocity": 100}, {"time": 57200, "pitch": 51, "duration": 275, "velocity": 100}, {"time": 57200, "pitch": 58, "duration": 55, "velocity": 100}, {"time": 57310, "pitch": 58, "duration": 55, "velocity": 100}, {"time": 57420, "pitch": 58, "duration": 55, "velocity": 100}, {"time": 57530, "pitch": 58, "duration": 55, "velocity": 100}, {"time": 57640, "pitch": 58, "duration": 55, "velocity": 100}, {"time": 57750, "pitch": 58, "duration": 55, "velocity": 100}, {"time": 57860, "pitch": 58, "duration": 55, "velocity": 100}, {"time": 57970, "pitch": 58, "duration": 55, "velocity": 100}, {"time": 58410, "pitch": 60, "duration": 55, "velocity": 100}, {"time": 58410, "pitch": 63, "duration": 110, "velocity": 100}, {"time": 58520, "pitch": 60, "duration": 55, "velocity": 100}, {"time": 58630, "pitch": 60, "duration": 55, "velocity": 100}, {"time": 58740, "pitch": 60, "duration": 110, "velocity": 100}, {"time": 59070, "pitch": 60, "duration": 55, "velocity": 100}, {"time": 59290, "pitch": 56, "duration": 55, "velocity": 100}, {"time": 59400, "pitch": 60, "duration": 55, "velocity": 100}, {"time": 59400, "pitch": 63, "duration": 55, "velocity": 100}, {"time": 59510, "pitch": 56, "duration": 55, "velocity": 100}, {"time": 59620, "pitch": 60, "duration": 110, "velocity": 100}, {"time": 59950, "pitch": 60, "duration": 110, "velocity": 100}, {"time": 60170, "pitch": 56, "duration": 55, "velocity": 100}, {"time": 60280, "pitch": 63, "duration": 110, "velocity": 100}, {"time": 60280, "pitch": 68, "duration": 110, "velocity": 100}, {"time": 60390, "pitch": 60, "duration": 110, "velocity": 100}, {"time": 60500, "pitch": 63, "duration": 55, "velocity": 100}, {"time": 60610, "pitch": 60, "duration": 55, "velocity": 100}, {"time": 60720, "pitch": 58, "duration": 55, "velocity": 100}, {"time": 60830, "pitch": 58, "duration": 55, "velocity": 100}, {"time": 61050, "pitch": 58, "duration": 55, "velocity": 100}, {"time": 61160, "pitch": 58, "duration": 55, "velocity": 100}, {"time": 61160, "pitch": 63, "duration": 55, "velocity": 100}, {"time": 61270, "pitch": 58, "duration": 55, "velocity": 100}, {"time": 61380, "pitch": 58, "duration": 55, "velocity": 100}, {"time": 61600, "pitch": 48, "duration": 385, "velocity": 100}, {"time": 61710, "pitch": 56, "duration": 110, "velocity": 100}, {"time": 61710, "pitch": 63, "duration": 110, "velocity": 100}, {"time": 61820, "pitch": 60, "duration": 55, "velocity": 100}, {"time": 61820, "pitch": 63, "duration": 55, "velocity": 100}, {"time": 61930, "pitch": 56, "duration": 110, "velocity": 100}, {"time": 61930, "pitch": 63, "duration": 110, "velocity": 100}, {"time": 62150, "pitch": 56, "duration": 110, "velocity": 100}, {"time": 62260, "pitch": 60, "duration": 110, "velocity": 100}, {"time": 62480, "pitch": 60, "duration": 55, "velocity": 100}, {"time": 62590, "pitch": 60, "duration": 110, "velocity": 100}, {"time": 62700, "pitch": 60, "duration": 55, "velocity": 100}, {"time": 62810, "pitch": 60, "duration": 55, "velocity": 100}, {"time": 62920, "pitch": 60, "duration": 55, "velocity": 100}, {"time": 63030, "pitch": 60, "duration": 55, "velocity": 100}, {"time": 63140, "pitch": 60, "duration": 110, "velocity": 100}, {"time": 63470, "pitch": 53, "duration": 165, "velocity": 100}, {"time": 63580, "pitch": 58, "duration": 55, "velocity": 100}, {"time": 63580, "pitch": 61, "duration": 110, "velocity": 100}, {"time": 63690, "pitch": 53, "duration": 275, "velocity": 100}, {"time": 63800, "pitch": 58, "duration": 55, "velocity": 100}, {"time": 63800, "pitch": 62, "duration": 110, "velocity": 100}, {"time": 63910, "pitch": 58, "duration": 55, "velocity": 100}, {"time": 64020, "pitch": 58, "duration": 110, "velocity": 100}, {"time": 64020, "pitch": 62, "duration": 110, "velocity": 100}, {"time": 64240, "pitch": 51, "duration": 220, "velocity": 100}, {"time": 64240, "pitch": 58, "duration": 55, "velocity": 100}, {"time": 64350, "pitch": 58, "duration": 55, "velocity": 100}, {"time": 64460, "pitch": 58, "duration": 55, "velocity": 100}, {"time": 64570, "pitch": 58, "duration": 55, "velocity": 100}, {"time": 64790, "pitch": 56, "duration": 55, "velocity": 100}, {"time": 65010, "pitch": 56, "duration": 55, "velocity": 100}, {"time": 65340, "pitch": 68, "duration": 110, "velocity": 100}, {"time": 65450, "pitch": 60, "duration": 55, "velocity": 100}, {"time": 65560, "pitch": 60, "duration": 55, "velocity": 100}, {"time": 65560, "pitch": 63, "duration": 55, "velocity": 100}, {"time": 65670, "pitch": 60, "duration": 55, "velocity": 100}, {"time": 65780, "pitch": 60, "duration": 110, "velocity": 100}, {"time": 65780, "pitch": 63, "duration": 165, "velocity": 100}, {"time": 65890, "pitch": 75, "duration": 990, "velocity": 100}, {"time": 66000, "pitch": 60, "duration": 55, "velocity": 100}, {"time": 66110, "pitch": 60, "duration": 110, "velocity": 100}, {"time": 66220, "pitch": 63, "duration": 55, "velocity": 100}, {"time": 66220, "pitch": 68, "duration": 110, "velocity": 100}, {"time": 66330, "pitch": 60, "duration": 55, "velocity": 100}, {"time": 66440, "pitch": 60, "duration": 55, "velocity": 100}, {"time": 66440, "pitch": 63, "duration": 110, "velocity": 100}, {"time": 66550, "pitch": 60, "duration": 55, "velocity": 100}, {"time": 66660, "pitch": 60, "duration": 55, "velocity": 100}, {"time": 66660, "pitch": 63, "duration": 110, "velocity": 100}, {"time": 66770, "pitch": 80, "duration": 55, "velocity": 100}, {"time": 66880, "pitch": 60, "duration": 55, "velocity": 100}, {"time": 66990, "pitch": 60, "duration": 110, "velocity": 100}, {"time": 67100, "pitch": 65, "duration": 55, "velocity": 100}, {"time": 67100, "pitch": 68, "duration": 110, "velocity": 100}, {"time": 67210, "pitch": 60, "duration": 55, "velocity": 100}, {"time": 67210, "pitch": 68, "duration": 110, "velocity": 100}, {"time": 67320, "pitch": 65, "duration": 110, "velocity": 100}, {"time": 67320, "pitch": 68, "duration": 110, "velocity": 100}, {"time": 67430, "pitch": 60, "duration": 110, "velocity": 100}, {"time": 67540, "pitch": 65, "duration": 55, "velocity": 100}, {"time": 67650, "pitch": 60, "duration": 55, "velocity": 100}, {"time": 67870, "pitch": 61, "duration": 55, "velocity": 100}, {"time": 67980, "pitch": 61, "duration": 55, "velocity": 100}, {"time": 67980, "pitch": 68, "duration": 55, "velocity": 100}, {"time": 68200, "pitch": 61, "duration": 55, "velocity": 100}, {"time": 68200, "pitch": 65, "duration": 55, "velocity": 100}, {"time": 68310, "pitch": 61, "duration": 55, "velocity": 100}, {"time": 68420, "pitch": 61, "duration": 55, "velocity": 100}, {"time": 68640, "pitch": 51, "duration": 385, "velocity": 100}, {"time": 68750, "pitch": 58, "duration": 110, "velocity": 100}, {"time": 68860, "pitch": 58, "duration": 55, "velocity": 100}, {"time": 68970, "pitch": 58, "duration": 55, "velocity": 100}, {"time": 68970, "pitch": 68, "duration": 110, "velocity": 100}, {"time": 69080, "pitch": 63, "duration": 110, "velocity": 100}, {"time": 69190, "pitch": 58, "duration": 110, "velocity": 100}, {"time": 69300, "pitch": 58, "duration": 110, "velocity": 100}, {"time": 69410, "pitch": 51, "duration": 55, "velocity": 100}, {"time": 69630, "pitch": 60, "duration": 110, "velocity": 100}, {"time": 69740, "pitch": 60, "duration": 55, "velocity": 100}, {"time": 69740, "pitch": 64, "duration": 55, "velocity": 100}, {"time": 69850, "pitch": 60, "duration": 55, "velocity": 100}, {"time": 69960, "pitch": 60, "duration": 55, "velocity": 100}, {"time": 69960, "pitch": 64, "duration": 55, "velocity": 100}, {"time": 70015, "pitch": 60, "duration": 55, "velocity": 100}, {"time": 70070, "pitch": 60, "duration": 55, "velocity": 100}, {"time": 70180, "pitch": 60, "duration": 110, "velocity": 100}, {"time": 70620, "pitch": 58, "duration": 110, "velocity": 100}, {"time": 70620, "pitch": 61, "duration": 110, "velocity": 100}, {"time": 70840, "pitch": 58, "duration": 55, "velocity": 100}, {"time": 70840, "pitch": 61, "duration": 110, "velocity": 100}, {"time": 70950, "pitch": 58, "duration": 55, "velocity": 100}, {"time": 71060, "pitch": 58, "duration": 110, "velocity": 100}, {"time": 71060, "pitch": 61, "duration": 110, "velocity": 100}, {"time": 71280, "pitch": 51, "duration": 165, "velocity": 100}, {"time": 71390, "pitch": 58, "duration": 55, "velocity": 100}, {"time": 71500, "pitch": 58, "duration": 55, "velocity": 100}, {"time": 71500, "pitch": 63, "duration": 110, "velocity": 100}, {"time": 71610, "pitch": 58, "duration": 55, "velocity": 100}, {"time": 71720, "pitch": 58, "duration": 55, "velocity": 100}, {"time": 71830, "pitch": 58, "duration": 55, "velocity": 100}, {"time": 71940, "pitch": 58, "duration": 55, "velocity": 100}, {"time": 71940, "pitch": 63, "duration": 165, "velocity": 100}, {"time": 72050, "pitch": 58, "duration": 55, "velocity": 100}, {"time": 72160, "pitch": 51, "duration": 165, "velocity": 100}, {"time": 72380, "pitch": 56, "duration": 110, "velocity": 100}, {"time": 72380, "pitch": 60, "duration": 110, "velocity": 100}, {"time": 72600, "pitch": 56, "duration": 110, "velocity": 100}, {"time": 72710, "pitch": 51, "duration": 55, "velocity": 100}, {"time": 72930, "pitch": 72, "duration": 55, "velocity": 100}, {"time": 73040, "pitch": 51, "duration": 55, "velocity": 100}, {"time": 73260, "pitch": 56, "duration": 55, "velocity": 100}, {"time": 73260, "pitch": 60, "duration": 110, "velocity": 100}, {"time": 73480, "pitch": 56, "duration": 110, "velocity": 100}, {"time": 73590, "pitch": 51, "duration": 55, "velocity": 100}, {"time": 73700, "pitch": 51, "duration": 55, "velocity": 100}, {"time": 73810, "pitch": 72, "duration": 55, "velocity": 100}, {"time": 73920, "pitch": 53, "duration": 55, "velocity": 100}, {"time": 74140, "pitch": 56, "duration": 55, "velocity": 100}, {"time": 74140, "pitch": 61, "duration": 110, "velocity": 100}, {"time": 74250, "pitch": 53, "duration": 55, "velocity": 100}, {"time": 74360, "pitch": 56, "duration": 55, "velocity": 100}, {"time": 74360, "pitch": 61, "duration": 110, "velocity": 100}, {"time": 74470, "pitch": 53, "duration": 110, "velocity": 100}, {"time": 74580, "pitch": 56, "duration": 55, "velocity": 100}, {"time": 74580, "pitch": 58, "duration": 55, "velocity": 100}, {"time": 74690, "pitch": 53, "duration": 55, "velocity": 100}, {"time": 75020, "pitch": 56, "duration": 55, "velocity": 100}]}, {"program": 71, "is_drum": false, "name": "Bass", "notes": [{"time": 0, "pitch": 44, "duration": 715, "velocity": 100}, {"time": 110, "pitch": 51, "duration": 605, "velocity": 100}, {"time": 220, "pitch": 56, "duration": 165, "velocity": 100}, {"time": 660, "pitch": 56, "duration": 55, "velocity": 100}, {"time": 770, "pitch": 44, "duration": 55, "velocity": 100}, {"time": 880, "pitch": 44, "duration": 275, "velocity": 100}, {"time": 1320, "pitch": 51, "duration": 165, "velocity": 100}, {"time": 1540, "pitch": 51, "duration": 220, "velocity": 100}, {"time": 1760, "pitch": 48, "duration": 385, "velocity": 100}, {"time": 1870, "pitch": 56, "duration": 220, "velocity": 100}, {"time": 2200, "pitch": 51, "duration": 275, "velocity": 100}, {"time": 2640, "pitch": 39, "duration": 605, "velocity": 100}, {"time": 2750, "pitch": 51, "duration": 385, "velocity": 100}, {"time": 3080, "pitch": 58, "duration": 55, "velocity": 100}, {"time": 3300, "pitch": 43, "duration": 220, "velocity": 100}, {"time": 3520, "pitch": 44, "duration": 110, "velocity": 100}, {"time": 3850, "pitch": 63, "duration": 110, "velocity": 100}, {"time": 3960, "pitch": 51, "duration": 275, "velocity": 100}, {"time": 4290, "pitch": 51, "duration": 55, "velocity": 100}, {"time": 4400, "pitch": 56, "duration": 385, "velocity": 100}, {"time": 4840, "pitch": 48, "duration": 275, "velocity": 100}, {"time": 4950, "pitch": 56, "duration": 220, "velocity": 100}, {"time": 5280, "pitch": 46, "duration": 715, "velocity": 100}, {"time": 5390, "pitch": 53, "duration": 605, "velocity": 100}, {"time": 5830, "pitch": 58, "duration": 55, "velocity": 100}, {"time": 5940, "pitch": 58, "duration": 55, "velocity": 100}, {"time": 6160, "pitch": 39, "duration": 55, "velocity": 100}, {"time": 6270, "pitch": 51, "duration": 605, "velocity": 100}, {"time": 6710, "pitch": 58, "duration": 110, "velocity": 100}, {"time": 6930, "pitch": 58, "duration": 55, "velocity": 100}, {"time": 7040, "pitch": 36, "duration": 715, "velocity": 100}, {"time": 7150, "pitch": 44, "duration": 605, "velocity": 100}, {"time": 7260, "pitch": 51, "duration": 165, "velocity": 100}, {"time": 7480, "pitch": 51, "duration": 55, "velocity": 100}, {"time": 7700, "pitch": 51, "duration": 55, "velocity": 100}, {"time": 7810, "pitch": 44, "duration": 55, "velocity": 100}, {"time": 7920, "pitch": 44, "duration": 385, "velocity": 100}, {"time": 8030, "pitch": 48, "duration": 220, "velocity": 100}, {"time": 8360, "pitch": 44, "duration": 220, "velocity": 100}, {"time": 8580, "pitch": 44, "duration": 220, "velocity": 100}, {"time": 8800, "pitch": 44, "duration": 330, "velocity": 100}, {"time": 8910, "pitch": 51, "duration": 275, "velocity": 100}, {"time": 9020, "pitch": 56, "duration": 55, "velocity": 100}, {"time": 9240, "pitch": 44, "duration": 275, "velocity": 100}, {"time": 9350, "pitch": 51, "duration": 110, "velocity": 100}, {"time": 9460, "pitch": 56, "duration": 55, "velocity": 100}, {"time": 9680, "pitch": 39, "duration": 660, "velocity": 100}, {"time": 9790, "pitch": 46, "duration": 385, "velocity": 100}, {"time": 10340, "pitch": 37, "duration": 110, "velocity": 100}, {"time": 10560, "pitch": 32, "duration": 220, "velocity": 100}, {"time": 11000, "pitch": 44, "duration": 220, "velocity": 100}, {"time": 11330, "pitch": 44, "duration": 55, "velocity": 100}, {"time": 11440, "pitch": 44, "duration": 385, "velocity": 100}, {"time": 11770, "pitch": 56, "duration": 55, "velocity": 100}, {"time": 11880, "pitch": 44, "duration": 385, "velocity": 100}, {"time": 11990, "pitch": 51, "duration": 220, "velocity": 100}, {"time": 12320, "pitch": 34, "duration": 715, "velocity": 100}, {"time": 12870, "pitch": 53, "duration": 55, "velocity": 100}, {"time": 13200, "pitch": 39, "duration": 55, "velocity": 100}, {"time": 13310, "pitch": 46, "duration": 495, "velocity": 100}, {"time": 13750, "pitch": 51, "duration": 110, "velocity": 100}, {"time": 13970, "pitch": 51, "duration": 55, "velocity": 100}, {"time": 14080, "pitch": 44, "duration": 715, "velocity": 100}, {"time": 14190, "pitch": 51, "duration": 605, "velocity": 100}, {"time": 14850, "pitch": 44, "duration": 55, "velocity": 100}, {"time": 14960, "pitch": 44, "duration": 385, "velocity": 100}, {"time": 15290, "pitch": 56, "duration": 55, "velocity": 100}, {"time": 15730, "pitch": 44, "duration": 55, "velocity": 100}, {"time": 15840, "pitch": 41, "duration": 220, "velocity": 100}, {"time": 16610, "pitch": 41, "duration": 55, "velocity": 100}, {"time": 16720, "pitch": 37, "duration": 275, "velocity": 100}, {"time": 17490, "pitch": 37, "duration": 55, "velocity": 100}, {"time": 18040, "pitch": 51, "duration": 275, "velocity": 100}, {"time": 18370, "pitch": 51, "duration": 55, "velocity": 100}, {"time": 18480, "pitch": 48, "duration": 715, "velocity": 100}, {"time": 19250, "pitch": 48, "duration": 55, "velocity": 100}, {"time": 19360, "pitch": 46, "duration": 275, "velocity": 100}, {"time": 19470, "pitch": 53, "duration": 165, "velocity": 100}, {"time": 20130, "pitch": 46, "duration": 110, "velocity": 100}, {"time": 20240, "pitch": 51, "duration": 275, "velocity": 100}, {"time": 20680, "pitch": 39, "duration": 220, "velocity": 100}, {"time": 21120, "pitch": 32, "duration": 715, "velocity": 100}, {"time": 21230, "pitch": 44, "duration": 495, "velocity": 100}, {"time": 21450, "pitch": 51, "duration": 55, "velocity": 100}, {"time": 21560, "pitch": 51, "duration": 55, "velocity": 100}, {"time": 21780, "pitch": 51, "duration": 110, "velocity": 100}, {"time": 21890, "pitch": 32, "duration": 55, "velocity": 100}, {"time": 22000, "pitch": 32, "duration": 605, "velocity": 100}, {"time": 22770, "pitch": 32, "duration": 55, "velocity": 100}, {"time": 22880, "pitch": 34, "duration": 275, "velocity": 100}, {"time": 22990, "pitch": 53, "duration": 55, "velocity": 100}, {"time": 23650, "pitch": 34, "duration": 55, "velocity": 100}, {"time": 23760, "pitch": 34, "duration": 275, "velocity": 100}, {"time": 23870, "pitch": 53, "duration": 55, "velocity": 100}, {"time": 24530, "pitch": 34, "duration": 55, "velocity": 100}, {"time": 24640, "pitch": 34, "duration": 385, "velocity": 100}, {"time": 24750, "pitch": 49, "duration": 110, "velocity": 100}, {"time": 24970, "pitch": 46, "duration": 110, "velocity": 100}, {"time": 25080, "pitch": 34, "duration": 275, "velocity": 100}, {"time": 25190, "pitch": 49, "duration": 110, "velocity": 100}, {"time": 25410, "pitch": 41, "duration": 110, "velocity": 100}, {"time": 25520, "pitch": 46, "duration": 715, "velocity": 100}, {"time": 26290, "pitch": 41, "duration": 55, "velocity": 100}, {"time": 26400, "pitch": 34, "duration": 275, "velocity": 100}, {"time": 26510, "pitch": 46, "duration": 165, "velocity": 100}, {"time": 26950, "pitch": 50, "duration": 55, "velocity": 100}, {"time": 27170, "pitch": 41, "duration": 110, "velocity": 100}, {"time": 27280, "pitch": 39, "duration": 220, "velocity": 100}, {"time": 27390, "pitch": 51, "duration": 55, "velocity": 100}, {"time": 27720, "pitch": 39, "duration": 275, "velocity": 100}, {"time": 28160, "pitch": 36, "duration": 770, "velocity": 100}, {"time": 28270, "pitch": 44, "duration": 605, "velocity": 100}, {"time": 28490, "pitch": 51, "duration": 55, "velocity": 100}, {"time": 28820, "pitch": 51, "duration": 110, "velocity": 100}, {"time": 28930, "pitch": 32, "duration": 55, "velocity": 100}, {"time": 29040, "pitch": 34, "duration": 385, "velocity": 100}, {"time": 29150, "pitch": 49, "duration": 110, "velocity": 100}, {"time": 29370, "pitch": 49, "duration": 55, "velocity": 100}, {"time": 29480, "pitch": 49, "duration": 55, "velocity": 100}, {"time": 29700, "pitch": 49, "duration": 55, "velocity": 100}, {"time": 29810, "pitch": 34, "duration": 55, "velocity": 100}, {"time": 29920, "pitch": 32, "duration": 275, "velocity": 100}, {"time": 30030, "pitch": 51, "duration": 110, "velocity": 100}, {"time": 30250, "pitch": 51, "duration": 55, "velocity": 100}, {"time": 30690, "pitch": 32, "duration": 55, "velocity": 100}, {"time": 30800, "pitch": 32, "duration": 275, "velocity": 100}, {"time": 30910, "pitch": 51, "duration": 55, "velocity": 100}, {"time": 31130, "pitch": 51, "duration": 55, "velocity": 100}, {"time": 31350, "pitch": 51, "duration": 55, "velocity": 100}, {"time": 31460, "pitch": 51, "duration": 55, "velocity": 100}, {"time": 31570, "pitch": 32, "duration": 55, "velocity": 100}, {"time": 31680, "pitch": 34, "duration": 385, "velocity": 100}, {"time": 31790, "pitch": 46, "duration": 110, "velocity": 100}, {"time": 32010, "pitch": 46, "duration": 110, "velocity": 100}, {"time": 32120, "pitch": 34, "duration": 275, "velocity": 100}, {"time": 32230, "pitch": 49, "duration": 110, "velocity": 100}, {"time": 32450, "pitch": 41, "duration": 55, "velocity": 100}, {"time": 32560, "pitch": 46, "duration": 715, "velocity": 100}, {"time": 32670, "pitch": 49, "duration": 110, "velocity": 100}, {"time": 32890, "pitch": 49, "duration": 55, "velocity": 100}, {"time": 33330, "pitch": 34, "duration": 55, "velocity": 100}, {"time": 33440, "pitch": 34, "duration": 275, "velocity": 100}, {"time": 33550, "pitch": 46, "duration": 165, "velocity": 100}, {"time": 33770, "pitch": 46, "duration": 165, "velocity": 100}, {"time": 33880, "pitch": 49, "duration": 55, "velocity": 100}, {"time": 33990, "pitch": 49, "duration": 55, "velocity": 100}, {"time": 34210, "pitch": 34, "duration": 55, "velocity": 100}, {"time": 34320, "pitch": 34, "duration": 165, "velocity": 100}, {"time": 34430, "pitch": 49, "duration": 55, "velocity": 100}, {"time": 34540, "pitch": 49, "duration": 55, "velocity": 100}, {"time": 34650, "pitch": 53, "duration": 55, "velocity": 100}, {"time": 34760, "pitch": 34, "duration": 165, "velocity": 100}, {"time": 34870, "pitch": 49, "duration": 55, "velocity": 100}, {"time": 34980, "pitch": 49, "duration": 55, "velocity": 100}, {"time": 35200, "pitch": 41, "duration": 715, "velocity": 100}, {"time": 35310, "pitch": 49, "duration": 495, "velocity": 100}, {"time": 35970, "pitch": 44, "duration": 55, "velocity": 100}, {"time": 36080, "pitch": 37, "duration": 385, "velocity": 100}, {"time": 36850, "pitch": 37, "duration": 55, "velocity": 100}, {"time": 36960, "pitch": 37, "duration": 220, "velocity": 100}, {"time": 37730, "pitch": 37, "duration": 55, "velocity": 100}, {"time": 37840, "pitch": 37, "duration": 275, "velocity": 100}, {"time": 38610, "pitch": 37, "duration": 55, "velocity": 100}, {"time": 39160, "pitch": 49, "duration": 275, "velocity": 100}, {"time": 39490, "pitch": 49, "duration": 55, "velocity": 100}, {"time": 40370, "pitch": 49, "duration": 55, "velocity": 100}, {"time": 40480, "pitch": 41, "duration": 275, "velocity": 100}, {"time": 40590, "pitch": 53, "duration": 165, "velocity": 100}, {"time": 40810, "pitch": 49, "duration": 165, "velocity": 100}, {"time": 41250, "pitch": 44, "duration": 110, "velocity": 100}, {"time": 41800, "pitch": 37, "duration": 220, "velocity": 100}, {"time": 42240, "pitch": 43, "duration": 660, "velocity": 100}, {"time": 42350, "pitch": 49, "duration": 165, "velocity": 100}, {"time": 42790, "pitch": 49, "duration": 165, "velocity": 100}, {"time": 43120, "pitch": 43, "duration": 330, "velocity": 100}, {"time": 43560, "pitch": 44, "duration": 55, "velocity": 100}, {"time": 44000, "pitch": 43, "duration": 275, "velocity": 100}, {"time": 44110, "pitch": 50, "duration": 220, "velocity": 100}, {"time": 44440, "pitch": 43, "duration": 110, "velocity": 100}, {"time": 45760, "pitch": 44, "duration": 275, "velocity": 100}, {"time": 46200, "pitch": 44, "duration": 385, "velocity": 100}, {"time": 46640, "pitch": 44, "duration": 275, "velocity": 100}, {"time": 46750, "pitch": 51, "duration": 165, "velocity": 100}, {"time": 47080, "pitch": 44, "duration": 275, "velocity": 100}, {"time": 47520, "pitch": 46, "duration": 385, "velocity": 100}, {"time": 47630, "pitch": 53, "duration": 275, "velocity": 100}, {"time": 47960, "pitch": 46, "duration": 275, "velocity": 100}, {"time": 48070, "pitch": 53, "duration": 55, "velocity": 100}, {"time": 48400, "pitch": 46, "duration": 220, "velocity": 100}, {"time": 48840, "pitch": 46, "duration": 275, "velocity": 100}, {"time": 49280, "pitch": 51, "duration": 275, "velocity": 100}, {"time": 49390, "pitch": 55, "duration": 165, "velocity": 100}, {"time": 49720, "pitch": 51, "duration": 275, "velocity": 100}, {"time": 50160, "pitch": 39, "duration": 220, "velocity": 100}, {"time": 50270, "pitch": 51, "duration": 110, "velocity": 100}, {"time": 50600, "pitch": 49, "duration": 330, "velocity": 100}, {"time": 51040, "pitch": 44, "duration": 715, "velocity": 100}, {"time": 51150, "pitch": 51, "duration": 605, "velocity": 100}, {"time": 51810, "pitch": 44, "duration": 55, "velocity": 100}, {"time": 51920, "pitch": 44, "duration": 385, "velocity": 100}, {"time": 52690, "pitch": 44, "duration": 55, "velocity": 100}, {"time": 52800, "pitch": 44, "duration": 385, "velocity": 100}, {"time": 53570, "pitch": 44, "duration": 55, "velocity": 100}, {"time": 53680, "pitch": 39, "duration": 275, "velocity": 100}, {"time": 54450, "pitch": 39, "duration": 55, "velocity": 100}, {"time": 55000, "pitch": 44, "duration": 275, "velocity": 100}, {"time": 55330, "pitch": 51, "duration": 55, "velocity": 100}, {"time": 55440, "pitch": 48, "duration": 715, "velocity": 100}, {"time": 56210, "pitch": 48, "duration": 55, "velocity": 100}, {"time": 56320, "pitch": 46, "duration": 275, "velocity": 100}, {"time": 56430, "pitch": 53, "duration": 165, "velocity": 100}, {"time": 57090, "pitch": 46, "duration": 110, "velocity": 100}, {"time": 57640, "pitch": 39, "duration": 220, "velocity": 100}, {"time": 58080, "pitch": 44, "duration": 715, "velocity": 100}, {"time": 58190, "pitch": 51, "duration": 605, "velocity": 100}, {"time": 58850, "pitch": 44, "duration": 55, "velocity": 100}, {"time": 58960, "pitch": 44, "duration": 385, "velocity": 100}, {"time": 59730, "pitch": 44, "duration": 55, "velocity": 100}, {"time": 59840, "pitch": 44, "duration": 385, "velocity": 100}, {"time": 60610, "pitch": 44, "duration": 55, "velocity": 100}, {"time": 60720, "pitch": 39, "duration": 275, "velocity": 100}, {"time": 61490, "pitch": 39, "duration": 55, "velocity": 100}, {"time": 62040, "pitch": 44, "duration": 275, "velocity": 100}, {"time": 62370, "pitch": 51, "duration": 55, "velocity": 100}, {"time": 62480, "pitch": 48, "duration": 715, "velocity": 100}, {"time": 63250, "pitch": 48, "duration": 55, "velocity": 100}, {"time": 63360, "pitch": 46, "duration": 275, "velocity": 100}, {"time": 64130, "pitch": 46, "duration": 110, "velocity": 100}, {"time": 64680, "pitch": 44, "duration": 275, "velocity": 100}, {"time": 65120, "pitch": 44, "duration": 715, "velocity": 100}, {"time": 65230, "pitch": 51, "duration": 495, "velocity": 100}, {"time": 65890, "pitch": 44, "duration": 55, "velocity": 100}, {"time": 66000, "pitch": 44, "duration": 385, "velocity": 100}, {"time": 66770, "pitch": 39, "duration": 55, "velocity": 100}, {"time": 66880, "pitch": 41, "duration": 220, "velocity": 100}, {"time": 67650, "pitch": 41, "duration": 55, "velocity": 100}, {"time": 67760, "pitch": 37, "duration": 275, "velocity": 100}, {"time": 68090, "pitch": 56, "duration": 55, "velocity": 100}, {"time": 68530, "pitch": 37, "duration": 55, "velocity": 100}, {"time": 69080, "pitch": 51, "duration": 275, "velocity": 100}, {"time": 69520, "pitch": 48, "duration": 495, "velocity": 100}, {"time": 70290, "pitch": 48, "duration": 55, "velocity": 100}, {"time": 70400, "pitch": 46, "duration": 275, "velocity": 100}, {"time": 70510, "pitch": 53, "duration": 165, "velocity": 100}, {"time": 70730, "pitch": 53, "duration": 385, "velocity": 100}, {"time": 71170, "pitch": 46, "duration": 110, "velocity": 100}, {"time": 71720, "pitch": 39, "duration": 220, "velocity": 100}, {"time": 72160, "pitch": 36, "duration": 715, "velocity": 100}, {"time": 72270, "pitch": 44, "duration": 605, "velocity": 100}, {"time": 72490, "pitch": 51, "duration": 55, "velocity": 100}, {"time": 72600, "pitch": 51, "duration": 55, "velocity": 100}, {"time": 72820, "pitch": 51, "duration": 110, "velocity": 100}, {"time": 72930, "pitch": 32, "duration": 55, "velocity": 100}, {"time": 73040, "pitch": 32, "duration": 385, "velocity": 100}, {"time": 73150, "pitch": 51, "duration": 110, "velocity": 100}, {"time": 73370, "pitch": 51, "duration": 55, "velocity": 100}, {"time": 73480, "pitch": 51, "duration": 55, "velocity": 100}, {"time": 73810, "pitch": 32, "duration": 55, "velocity": 100}, {"time": 73920, "pitch": 34, "duration": 220, "velocity": 100}, {"time": 74030, "pitch": 53, "duration": 110, "velocity": 100}, {"time": 74690, "pitch": 34, "duration": 55, "velocity": 100}, {"time": 74800, "pitch": 34, "duration": 275, "velocity": 100}, {"time": 74910, "pitch": 53, "duration": 55, "velocity": 100}]}]}