{"metadata": {"schema_version": "0.1", "title": "None", "source_filename": "20211209_144444.mid", "source_format": "midi"}, "resolution": 220, "tempos": [{"time": 0, "qpm": 120.0}], "time_signatures": [{"time": 0, "numerator": 4, "denominator": 4}], "tracks": [{"program": 0, "is_drum": false, "name": "Piano", "notes": [{"time": 0, "pitch": 66, "duration": 110, "velocity": 100}, {"time": 0, "pitch": 78, "duration": 55, "velocity": 100}]}, {"program": 24, "is_drum": false, "name": "Guitar", "notes": [{"time": 110, "pitch": 62, "duration": 55, "velocity": 100}, {"time": 110, "pitch": 66, "duration": 165, "velocity": 100}, {"time": 110, "pitch": 70, "duration": 165, "velocity": 100}, {"time": 110, "pitch": 74, "duration": 55, "velocity": 100}, {"time": 220, "pitch": 58, "duration": 220, "velocity": 100}, {"time": 220, "pitch": 66, "duration": 110, "velocity": 100}, {"time": 330, "pitch": 66, "duration": 55, "velocity": 100}, {"time": 330, "pitch": 70, "duration": 55, "velocity": 100}, {"time": 440, "pitch": 50, "duration": 330, "velocity": 100}, {"time": 440, "pitch": 66, "duration": 110, "velocity": 100}, {"time": 550, "pitch": 62, "duration": 165, "velocity": 100}, {"time": 550, "pitch": 66, "duration": 165, "velocity": 100}, {"time": 550, "pitch": 70, "duration": 165, "velocity": 100}, {"time": 550, "pitch": 74, "duration": 55, "velocity": 100}, {"time": 660, "pitch": 58, "duration": 165, "velocity": 100}, {"time": 660, "pitch": 70, "duration": 110, "velocity": 100}, {"time": 660, "pitch": 78, "duration": 55, "velocity": 100}, {"time": 770, "pitch": 62, "duration": 55, "velocity": 100}, {"time": 770, "pitch": 66, "duration": 55, "velocity": 100}, {"time": 770, "pitch": 70, "duration": 55, "velocity": 100}, {"time": 770, "pitch": 74, "duration": 55, "velocity": 100}, {"time": 825, "pitch": 66, "duration": 55, "velocity": 100}, {"time": 825, "pitch": 70, "duration": 55, "velocity": 100}, {"time": 880, "pitch": 75, "duration": 110, "velocity": 100}, {"time": 990, "pitch": 62, "duration": 165, "velocity": 100}, {"time": 990, "pitch": 66, "duration": 165, "velocity": 100}, {"time": 990, "pitch": 70, "duration": 165, "velocity": 100}, {"time": 1100, "pitch": 58, "duration": 220, "velocity": 100}, {"time": 1100, "pitch": 75, "duration": 110, "velocity": 100}, {"time": 1210, "pitch": 62, "duration": 55, "velocity": 100}, {"time": 1210, "pitch": 66, "duration": 55, "velocity": 100}, {"time": 1210, "pitch": 70, "duration": 55, "velocity": 100}, {"time": 1320, "pitch": 66, "duration": 55, "velocity": 100}, {"time": 1320, "pitch": 75, "duration": 110, "velocity": 100}, {"time": 1430, "pitch": 62, "duration": 55, "velocity": 100}, {"time": 1430, "pitch": 66, "duration": 55, "velocity": 100}, {"time": 1430, "pitch": 70, "duration": 55, "velocity": 100}, {"time": 1430, "pitch": 74, "duration": 55, "velocity": 100}, {"time": 1485, "pitch": 62, "duration": 55, "velocity": 100}, {"time": 1485, "pitch": 66, "duration": 55, "velocity": 100}, {"time": 1485, "pitch": 70, "duration": 55, "velocity": 100}, {"time": 1540, "pitch": 58, "duration": 165, "velocity": 100}, {"time": 1540, "pitch": 73, "duration": 110, "velocity": 100}, {"time": 1540, "pitch": 80, "duration": 55, "velocity": 100}, {"time": 1650, "pitch": 62, "duration": 55, "velocity": 100}, {"time": 1650, "pitch": 66, "duration": 55, "velocity": 100}, {"time": 1650, "pitch": 70, "duration": 55, "velocity": 100}, {"time": 1650, "pitch": 78, "duration": 55, "velocity": 100}, {"time": 1760, "pitch": 70, "duration": 110, "velocity": 100}, {"time": 1760, "pitch": 78, "duration": 330, "velocity": 100}, {"time": 1870, "pitch": 58, "duration": 165, "velocity": 100}, {"time": 1870, "pitch": 62, "duration": 165, "velocity": 100}, {"time": 1870, "pitch": 66, "duration": 165, "velocity": 100}, {"time": 1980, "pitch": 54, "duration": 110, "velocity": 100}, {"time": 1980, "pitch": 70, "duration": 110, "velocity": 100}, {"time": 2090, "pitch": 58, "duration": 55, "velocity": 100}, {"time": 2090, "pitch": 62, "duration": 55, "velocity": 100}, {"time": 2090, "pitch": 66, "duration": 55, "velocity": 100}, {"time": 2200, "pitch": 70, "duration": 110, "velocity": 100}, {"time": 2200, "pitch": 78, "duration": 220, "velocity": 100}, {"time": 2310, "pitch": 62, "duration": 165, "velocity": 100}, {"time": 2310, "pitch": 66, "duration": 55, "velocity": 100}, {"time": 2420, "pitch": 58, "duration": 110, "velocity": 100}, {"time": 2420, "pitch": 70, "duration": 110, "velocity": 100}, {"time": 2420, "pitch": 74, "duration": 220, "velocity": 100}, {"time": 2530, "pitch": 58, "duration": 55, "velocity": 100}, {"time": 2530, "pitch": 62, "duration": 55, "velocity": 100}, {"time": 2530, "pitch": 66, "duration": 55, "velocity": 100}, {"time": 2640, "pitch": 65, "duration": 110, "velocity": 100}, {"time": 2640, "pitch": 74, "duration": 440, "velocity": 100}, {"time": 2750, "pitch": 62, "duration": 55, "velocity": 100}, {"time": 2750, "pitch": 66, "duration": 55, "velocity": 100}, {"time": 2750, "pitch": 70, "duration": 55, "velocity": 100}, {"time": 2805, "pitch": 62, "duration": 55, "velocity": 100}, {"time": 2805, "pitch": 66, "duration": 55, "velocity": 100}, {"time": 2805, "pitch": 70, "duration": 55, "velocity": 100}, {"time": 2860, "pitch": 58, "duration": 220, "velocity": 100}, {"time": 2860, "pitch": 65, "duration": 110, "velocity": 100}, {"time": 2970, "pitch": 62, "duration": 110, "velocity": 100}, {"time": 2970, "pitch": 66, "duration": 110, "velocity": 100}, {"time": 2970, "pitch": 70, "duration": 110, "velocity": 100}, {"time": 3080, "pitch": 65, "duration": 110, "velocity": 100}, {"time": 3080, "pitch": 66, "duration": 110, "velocity": 100}, {"time": 3190, "pitch": 66, "duration": 55, "velocity": 100}, {"time": 3190, "pitch": 70, "duration": 165, "velocity": 100}, {"time": 3300, "pitch": 58, "duration": 110, "velocity": 100}, {"time": 3300, "pitch": 63, "duration": 110, "velocity": 100}, {"time": 3300, "pitch": 74, "duration": 220, "velocity": 100}, {"time": 3410, "pitch": 62, "duration": 55, "velocity": 100}, {"time": 3410, "pitch": 66, "duration": 55, "velocity": 100}, {"time": 3410, "pitch": 70, "duration": 110, "velocity": 100}, {"time": 3520, "pitch": 66, "duration": 110, "velocity": 100}, {"time": 3520, "pitch": 72, "duration": 55, "velocity": 100}, {"time": 3630, "pitch": 58, "duration": 165, "velocity": 100}, {"time": 3630, "pitch": 62, "duration": 165, "velocity": 100}, {"time": 3630, "pitch": 66, "duration": 165, "velocity": 100}, {"time": 3740, "pitch": 54, "duration": 220, "velocity": 100}, {"time": 3740, "pitch": 66, "duration": 110, "velocity": 100}, {"time": 3850, "pitch": 58, "duration": 55, "velocity": 100}, {"time": 3850, "pitch": 62, "duration": 55, "velocity": 100}, {"time": 3850, "pitch": 66, "duration": 55, "velocity": 100}, {"time": 3960, "pitch": 66, "duration": 110, "velocity": 100}, {"time": 4070, "pitch": 58, "duration": 165, "velocity": 100}, {"time": 4070, "pitch": 62, "duration": 165, "velocity": 100}, {"time": 4070, "pitch": 66, "duration": 55, "velocity": 100}, {"time": 4180, "pitch": 54, "duration": 165, "velocity": 100}, {"time": 4180, "pitch": 70, "duration": 110, "velocity": 100}, {"time": 4180, "pitch": 73, "duration": 55, "velocity": 100}, {"time": 4290, "pitch": 58, "duration": 55, "velocity": 100}, {"time": 4290, "pitch": 62, "duration": 55, "velocity": 100}, {"time": 4290, "pitch": 66, "duration": 55, "velocity": 100}, {"time": 4290, "pitch": 70, "duration": 55, "velocity": 100}, {"time": 4345, "pitch": 58, "duration": 55, "velocity": 100}, {"time": 4345, "pitch": 62, "duration": 55, "velocity": 100}, {"time": 4345, "pitch": 66, "duration": 55, "velocity": 100}, {"time": 4400, "pitch": 75, "duration": 110, "velocity": 100}, {"time": 4510, "pitch": 54, "duration": 165, "velocity": 100}, {"time": 4510, "pitch": 58, "duration": 165, "velocity": 100}, {"time": 4510, "pitch": 62, "duration": 165, "velocity": 100}, {"time": 4620, "pitch": 75, "duration": 110, "velocity": 100}, {"time": 4730, "pitch": 54, "duration": 55, "velocity": 100}, {"time": 4730, "pitch": 58, "duration": 55, "velocity": 100}, {"time": 4730, "pitch": 62, "duration": 55, "velocity": 100}, {"time": 4840, "pitch": 58, "duration": 55, "velocity": 100}, {"time": 4840, "pitch": 75, "duration": 110, "velocity": 100}, {"time": 4950, "pitch": 54, "duration": 55, "velocity": 100}, {"time": 4950, "pitch": 58, "duration": 55, "velocity": 100}, {"time": 4950, "pitch": 62, "duration": 55, "velocity": 100}, {"time": 4950, "pitch": 70, "duration": 55, "velocity": 100}, {"time": 5005, "pitch": 54, "duration": 55, "velocity": 100}, {"time": 5005, "pitch": 58, "duration": 55, "velocity": 100}, {"time": 5005, "pitch": 62, "duration": 55, "velocity": 100}, {"time": 5060, "pitch": 70, "duration": 110, "velocity": 100}, {"time": 5060, "pitch": 73, "duration": 110, "velocity": 100}, {"time": 5170, "pitch": 54, "duration": 55, "velocity": 100}, {"time": 5170, "pitch": 58, "duration": 55, "velocity": 100}, {"time": 5170, "pitch": 62, "duration": 55, "velocity": 100}, {"time": 5170, "pitch": 70, "duration": 55, "velocity": 100}, {"time": 5280, "pitch": 70, "duration": 110, "velocity": 100}, {"time": 5280, "pitch": 73, "duration": 275, "velocity": 100}, {"time": 5390, "pitch": 54, "duration": 165, "velocity": 100}, {"time": 5390, "pitch": 58, "duration": 165, "velocity": 100}, {"time": 5390, "pitch": 62, "duration": 165, "velocity": 100}, {"time": 5500, "pitch": 70, "duration": 110, "velocity": 100}, {"time": 5610, "pitch": 54, "duration": 55, "velocity": 100}, {"time": 5610, "pitch": 58, "duration": 55, "velocity": 100}, {"time": 5610, "pitch": 62, "duration": 55, "velocity": 100}, {"time": 5720, "pitch": 70, "duration": 110, "velocity": 100}, {"time": 5720, "pitch": 73, "duration": 220, "velocity": 100}, {"time": 5830, "pitch": 54, "duration": 165, "velocity": 100}, {"time": 5830, "pitch": 58, "duration": 330, "velocity": 100}, {"time": 5940, "pitch": 66, "duration": 220, "velocity": 100}, {"time": 5940, "pitch": 70, "duration": 110, "velocity": 100}, {"time": 6050, "pitch": 54, "duration": 110, "velocity": 100}, {"time": 6160, "pitch": 50, "duration": 110, "velocity": 100}, {"time": 6160, "pitch": 62, "duration": 110, "velocity": 100}, {"time": 6160, "pitch": 65, "duration": 110, "velocity": 100}, {"time": 6160, "pitch": 74, "duration": 110, "velocity": 100}, {"time": 6270, "pitch": 50, "duration": 55, "velocity": 100}, {"time": 6270, "pitch": 58, "duration": 55, "velocity": 100}, {"time": 6270, "pitch": 78, "duration": 55, "velocity": 100}, {"time": 6270, "pitch": 82, "duration": 55, "velocity": 100}, {"time": 6380, "pitch": 50, "duration": 55, "velocity": 100}, {"time": 6380, "pitch": 62, "duration": 55, "velocity": 100}, {"time": 6380, "pitch": 65, "duration": 110, "velocity": 100}, {"time": 6380, "pitch": 75, "duration": 55, "velocity": 100}, {"time": 6380, "pitch": 80, "duration": 55, "velocity": 100}, {"time": 6490, "pitch": 50, "duration": 55, "velocity": 100}, {"time": 6490, "pitch": 58, "duration": 55, "velocity": 100}, {"time": 6490, "pitch": 66, "duration": 55, "velocity": 100}, {"time": 6490, "pitch": 78, "duration": 55, "velocity": 100}, {"time": 6545, "pitch": 50, "duration": 55, "velocity": 100}, {"time": 6545, "pitch": 78, "duration": 55, "velocity": 100}, {"time": 6600, "pitch": 65, "duration": 110, "velocity": 100}, {"time": 6820, "pitch": 63, "duration": 110, "velocity": 100}, {"time": 7040, "pitch": 66, "duration": 110, "velocity": 100}, {"time": 7040, "pitch": 70, "duration": 385, "velocity": 100}, {"time": 7150, "pitch": 54, "duration": 55, "velocity": 100}, {"time": 7150, "pitch": 58, "duration": 55, "velocity": 100}, {"time": 7150, "pitch": 62, "duration": 55, "velocity": 100}, {"time": 7260, "pitch": 66, "duration": 110, "velocity": 100}, {"time": 7370, "pitch": 54, "duration": 110, "velocity": 100}, {"time": 7370, "pitch": 58, "duration": 110, "velocity": 100}, {"time": 7370, "pitch": 62, "duration": 110, "velocity": 100}, {"time": 7480, "pitch": 66, "duration": 110, "velocity": 100}, {"time": 7590, "pitch": 54, "duration": 55, "velocity": 100}, {"time": 7590, "pitch": 58, "duration": 165, "velocity": 100}, {"time": 7700, "pitch": 70, "duration": 110, "velocity": 100}, {"time": 7810, "pitch": 54, "duration": 55, "velocity": 100}, {"time": 7810, "pitch": 58, "duration": 55, "velocity": 100}, {"time": 7810, "pitch": 62, "duration": 55, "velocity": 100}, {"time": 7920, "pitch": 75, "duration": 110, "velocity": 100}, {"time": 8030, "pitch": 54, "duration": 165, "velocity": 100}, {"time": 8030, "pitch": 58, "duration": 165, "velocity": 100}, {"time": 8140, "pitch": 75, "duration": 110, "velocity": 100}, {"time": 8250, "pitch": 54, "duration": 55, "velocity": 100}, {"time": 8250, "pitch": 58, "duration": 55, "velocity": 100}, {"time": 8360, "pitch": 75, "duration": 110, "velocity": 100}, {"time": 8470, "pitch": 50, "duration": 165, "velocity": 100}, {"time": 8470, "pitch": 54, "duration": 165, "velocity": 100}, {"time": 8470, "pitch": 62, "duration": 110, "velocity": 100}, {"time": 8580, "pitch": 66, "duration": 110, "velocity": 100}, {"time": 8580, "pitch": 73, "duration": 110, "velocity": 100}, {"time": 8690, "pitch": 50, "duration": 55, "velocity": 100}, {"time": 8690, "pitch": 54, "duration": 55, "velocity": 100}, {"time": 8690, "pitch": 70, "duration": 110, "velocity": 100}, {"time": 8800, "pitch": 66, "duration": 440, "velocity": 100}, {"time": 8800, "pitch": 70, "duration": 110, "velocity": 100}, {"time": 8910, "pitch": 54, "duration": 110, "velocity": 100}, {"time": 8910, "pitch": 58, "duration": 110, "velocity": 100}, {"time": 9020, "pitch": 70, "duration": 110, "velocity": 100}, {"time": 9130, "pitch": 54, "duration": 55, "velocity": 100}, {"time": 9130, "pitch": 58, "duration": 55, "velocity": 100}, {"time": 9240, "pitch": 70, "duration": 110, "velocity": 100}, {"time": 9350, "pitch": 54, "duration": 165, "velocity": 100}, {"time": 9350, "pitch": 58, "duration": 165, "velocity": 100}, {"time": 9460, "pitch": 70, "duration": 110, "velocity": 100}, {"time": 9570, "pitch": 54, "duration": 55, "velocity": 100}, {"time": 9570, "pitch": 58, "duration": 55, "velocity": 100}, {"time": 9680, "pitch": 58, "duration": 110, "velocity": 100}, {"time": 9680, "pitch": 62, "duration": 330, "velocity": 100}, {"time": 9680, "pitch": 65, "duration": 110, "velocity": 100}, {"time": 9680, "pitch": 66, "duration": 440, "velocity": 100}, {"time": 9790, "pitch": 54, "duration": 55, "velocity": 100}, {"time": 9790, "pitch": 58, "duration": 110, "velocity": 100}, {"time": 9790, "pitch": 62, "duration": 275, "velocity": 100}, {"time": 9900, "pitch": 65, "duration": 110, "velocity": 100}, {"time": 10010, "pitch": 54, "duration": 55, "velocity": 100}, {"time": 10010, "pitch": 58, "duration": 55, "velocity": 100}, {"time": 10010, "pitch": 62, "duration": 110, "velocity": 100}, {"time": 10120, "pitch": 58, "duration": 275, "velocity": 100}, {"time": 10120, "pitch": 65, "duration": 110, "velocity": 100}, {"time": 10230, "pitch": 54, "duration": 165, "velocity": 100}, {"time": 10230, "pitch": 58, "duration": 165, "velocity": 100}, {"time": 10230, "pitch": 62, "duration": 165, "velocity": 100}, {"time": 10340, "pitch": 63, "duration": 110, "velocity": 100}, {"time": 10450, "pitch": 54, "duration": 55, "velocity": 100}, {"time": 10450, "pitch": 58, "duration": 55, "velocity": 100}, {"time": 10450, "pitch": 62, "duration": 55, "velocity": 100}, {"time": 10560, "pitch": 66, "duration": 110, "velocity": 100}, {"time": 10560, "pitch": 70, "duration": 385, "velocity": 100}, {"time": 10670, "pitch": 54, "duration": 55, "velocity": 100}, {"time": 10670, "pitch": 58, "duration": 55, "velocity": 100}, {"time": 10670, "pitch": 62, "duration": 55, "velocity": 100}, {"time": 10670, "pitch": 66, "duration": 110, "velocity": 100}, {"time": 10780, "pitch": 66, "duration": 110, "velocity": 100}, {"time": 10890, "pitch": 54, "duration": 110, "velocity": 100}, {"time": 10890, "pitch": 58, "duration": 110, "velocity": 100}, {"time": 10890, "pitch": 62, "duration": 110, "velocity": 100}, {"time": 10890, "pitch": 66, "duration": 110, "velocity": 100}, {"time": 11000, "pitch": 66, "duration": 110, "velocity": 100}, {"time": 11110, "pitch": 54, "duration": 55, "velocity": 100}, {"time": 11110, "pitch": 58, "duration": 165, "velocity": 100}, {"time": 11110, "pitch": 66, "duration": 110, "velocity": 100}, {"time": 11220, "pitch": 66, "duration": 110, "velocity": 100}, {"time": 11330, "pitch": 54, "duration": 55, "velocity": 100}, {"time": 11330, "pitch": 58, "duration": 55, "velocity": 100}, {"time": 11330, "pitch": 62, "duration": 55, "velocity": 100}, {"time": 11330, "pitch": 70, "duration": 110, "velocity": 100}, {"time": 11440, "pitch": 75, "duration": 110, "velocity": 100}, {"time": 11550, "pitch": 54, "duration": 165, "velocity": 100}, {"time": 11550, "pitch": 58, "duration": 165, "velocity": 100}, {"time": 11550, "pitch": 75, "duration": 110, "velocity": 100}, {"time": 11660, "pitch": 75, "duration": 110, "velocity": 100}, {"time": 11770, "pitch": 54, "duration": 55, "velocity": 100}, {"time": 11770, "pitch": 58, "duration": 55, "velocity": 100}, {"time": 11770, "pitch": 75, "duration": 110, "velocity": 100}, {"time": 11880, "pitch": 75, "duration": 110, "velocity": 100}, {"time": 11990, "pitch": 50, "duration": 165, "velocity": 100}, {"time": 11990, "pitch": 54, "duration": 165, "velocity": 100}, {"time": 11990, "pitch": 62, "duration": 110, "velocity": 100}, {"time": 11990, "pitch": 75, "duration": 110, "velocity": 100}, {"time": 12100, "pitch": 66, "duration": 110, "velocity": 100}, {"time": 12100, "pitch": 73, "duration": 110, "velocity": 100}, {"time": 12210, "pitch": 50, "duration": 55, "velocity": 100}, {"time": 12210, "pitch": 54, "duration": 55, "velocity": 100}, {"time": 12210, "pitch": 70, "duration": 110, "velocity": 100}, {"time": 12210, "pitch": 73, "duration": 110, "velocity": 100}, {"time": 12320, "pitch": 66, "duration": 440, "velocity": 100}, {"time": 12320, "pitch": 70, "duration": 110, "velocity": 100}, {"time": 12430, "pitch": 54, "duration": 110, "velocity": 100}, {"time": 12430, "pitch": 58, "duration": 110, "velocity": 100}, {"time": 12430, "pitch": 70, "duration": 110, "velocity": 100}, {"time": 12540, "pitch": 70, "duration": 110, "velocity": 100}, {"time": 12650, "pitch": 54, "duration": 55, "velocity": 100}, {"time": 12650, "pitch": 58, "duration": 55, "velocity": 100}, {"time": 12650, "pitch": 70, "duration": 110, "velocity": 100}, {"time": 12760, "pitch": 70, "duration": 110, "velocity": 100}, {"time": 12870, "pitch": 54, "duration": 165, "velocity": 100}, {"time": 12870, "pitch": 58, "duration": 165, "velocity": 100}, {"time": 12870, "pitch": 70, "duration": 110, "velocity": 100}, {"time": 12980, "pitch": 70, "duration": 110, "velocity": 100}, {"time": 13090, "pitch": 54, "duration": 55, "velocity": 100}, {"time": 13090, "pitch": 58, "duration": 55, "velocity": 100}, {"time": 13090, "pitch": 70, "duration": 110, "velocity": 100}, {"time": 13200, "pitch": 58, "duration": 110, "velocity": 100}, {"time": 13200, "pitch": 62, "duration": 330, "velocity": 100}, {"time": 13200, "pitch": 65, "duration": 110, "velocity": 100}, {"time": 13200, "pitch": 66, "duration": 440, "velocity": 100}, {"time": 13310, "pitch": 58, "duration": 110, "velocity": 100}, {"time": 13310, "pitch": 62, "duration": 275, "velocity": 100}, {"time": 13310, "pitch": 65, "duration": 110, "velocity": 100}, {"time": 13420, "pitch": 65, "duration": 110, "velocity": 100}, {"time": 13530, "pitch": 58, "duration": 55, "velocity": 100}, {"time": 13530, "pitch": 62, "duration": 110, "velocity": 100}, {"time": 13530, "pitch": 65, "duration": 110, "velocity": 100}, {"time": 13640, "pitch": 58, "duration": 275, "velocity": 100}, {"time": 13640, "pitch": 65, "duration": 110, "velocity": 100}, {"time": 13750, "pitch": 58, "duration": 165, "velocity": 100}, {"time": 13750, "pitch": 62, "duration": 165, "velocity": 100}, {"time": 13750, "pitch": 65, "duration": 110, "velocity": 100}, {"time": 13860, "pitch": 65, "duration": 110, "velocity": 100}, {"time": 13970, "pitch": 58, "duration": 55, "velocity": 100}, {"time": 13970, "pitch": 62, "duration": 55, "velocity": 100}, {"time": 13970, "pitch": 65, "duration": 110, "velocity": 100}, {"time": 14080, "pitch": 66, "duration": 110, "velocity": 100}, {"time": 14080, "pitch": 78, "duration": 55, "velocity": 100}, {"time": 14190, "pitch": 62, "duration": 55, "velocity": 100}, {"time": 14190, "pitch": 66, "duration": 110, "velocity": 100}, {"time": 14190, "pitch": 66, "duration": 165, "velocity": 100}, {"time": 14190, "pitch": 70, "duration": 165, "velocity": 100}, {"time": 14190, "pitch": 74, "duration": 55, "velocity": 100}, {"time": 14300, "pitch": 58, "duration": 220, "velocity": 100}, {"time": 14300, "pitch": 66, "duration": 110, "velocity": 100}, {"time": 14410, "pitch": 66, "duration": 55, "velocity": 100}, {"time": 14410, "pitch": 66, "duration": 110, "velocity": 100}, {"time": 14410, "pitch": 70, "duration": 55, "velocity": 100}, {"time": 14520, "pitch": 66, "duration": 110, "velocity": 100}, {"time": 14630, "pitch": 62, "duration": 165, "velocity": 100}, {"time": 14630, "pitch": 66, "duration": 110, "velocity": 100}, {"time": 14630, "pitch": 66, "duration": 165, "velocity": 100}, {"time": 14630, "pitch": 70, "duration": 165, "velocity": 100}, {"time": 14630, "pitch": 74, "duration": 55, "velocity": 100}, {"time": 14740, "pitch": 58, "duration": 165, "velocity": 100}, {"time": 14740, "pitch": 66, "duration": 110, "velocity": 100}, {"time": 14740, "pitch": 78, "duration": 55, "velocity": 100}, {"time": 14850, "pitch": 62, "duration": 55, "velocity": 100}, {"time": 14850, "pitch": 66, "duration": 55, "velocity": 100}, {"time": 14850, "pitch": 70, "duration": 55, "velocity": 100}, {"time": 14850, "pitch": 70, "duration": 110, "velocity": 100}, {"time": 14850, "pitch": 74, "duration": 55, "velocity": 100}, {"time": 14905, "pitch": 66, "duration": 55, "velocity": 100}, {"time": 14905, "pitch": 70, "duration": 55, "velocity": 100}, {"time": 14960, "pitch": 75, "duration": 110, "velocity": 100}, {"time": 15070, "pitch": 62, "duration": 165, "velocity": 100}, {"time": 15070, "pitch": 66, "duration": 165, "velocity": 100}, {"time": 15070, "pitch": 70, "duration": 165, "velocity": 100}, {"time": 15070, "pitch": 75, "duration": 110, "velocity": 100}, {"time": 15180, "pitch": 58, "duration": 220, "velocity": 100}, {"time": 15180, "pitch": 75, "duration": 110, "velocity": 100}, {"time": 15290, "pitch": 62, "duration": 55, "velocity": 100}, {"time": 15290, "pitch": 66, "duration": 55, "velocity": 100}, {"time": 15290, "pitch": 70, "duration": 55, "velocity": 100}, {"time": 15290, "pitch": 75, "duration": 110, "velocity": 100}, {"time": 15400, "pitch": 66, "duration": 55, "velocity": 100}, {"time": 15400, "pitch": 75, "duration": 110, "velocity": 100}, {"time": 15510, "pitch": 62, "duration": 55, "velocity": 100}, {"time": 15510, "pitch": 66, "duration": 55, "velocity": 100}, {"time": 15510, "pitch": 70, "duration": 55, "velocity": 100}, {"time": 15510, "pitch": 74, "duration": 55, "velocity": 100}, {"time": 15510, "pitch": 75, "duration": 110, "velocity": 100}, {"time": 15565, "pitch": 62, "duration": 55, "velocity": 100}, {"time": 15565, "pitch": 66, "duration": 55, "velocity": 100}, {"time": 15565, "pitch": 70, "duration": 55, "velocity": 100}, {"time": 15620, "pitch": 58, "duration": 165, "velocity": 100}, {"time": 15620, "pitch": 73, "duration": 110, "velocity": 100}, {"time": 15620, "pitch": 80, "duration": 55, "velocity": 100}, {"time": 15730, "pitch": 62, "duration": 55, "velocity": 100}, {"time": 15730, "pitch": 66, "duration": 55, "velocity": 100}, {"time": 15730, "pitch": 70, "duration": 55, "velocity": 100}, {"time": 15730, "pitch": 73, "duration": 110, "velocity": 100}, {"time": 15730, "pitch": 78, "duration": 55, "velocity": 100}, {"time": 15840, "pitch": 70, "duration": 110, "velocity": 100}, {"time": 15840, "pitch": 78, "duration": 330, "velocity": 100}, {"time": 15950, "pitch": 58, "duration": 165, "velocity": 100}, {"time": 15950, "pitch": 62, "duration": 165, "velocity": 100}, {"time": 15950, "pitch": 66, "duration": 165, "velocity": 100}, {"time": 15950, "pitch": 70, "duration": 110, "velocity": 100}, {"time": 16060, "pitch": 70, "duration": 110, "velocity": 100}, {"time": 16170, "pitch": 58, "duration": 55, "velocity": 100}, {"time": 16170, "pitch": 62, "duration": 55, "velocity": 100}, {"time": 16170, "pitch": 66, "duration": 55, "velocity": 100}, {"time": 16170, "pitch": 70, "duration": 110, "velocity": 100}, {"time": 16280, "pitch": 70, "duration": 110, "velocity": 100}, {"time": 16280, "pitch": 78, "duration": 220, "velocity": 100}, {"time": 16390, "pitch": 62, "duration": 165, "velocity": 100}, {"time": 16390, "pitch": 66, "duration": 55, "velocity": 100}, {"time": 16390, "pitch": 70, "duration": 110, "velocity": 100}, {"time": 16500, "pitch": 58, "duration": 110, "velocity": 100}, {"time": 16500, "pitch": 70, "duration": 110, "velocity": 100}, {"time": 16500, "pitch": 74, "duration": 220, "velocity": 100}, {"time": 16610, "pitch": 58, "duration": 55, "velocity": 100}, {"time": 16610, "pitch": 62, "duration": 55, "velocity": 100}, {"time": 16610, "pitch": 66, "duration": 55, "velocity": 100}, {"time": 16610, "pitch": 70, "duration": 110, "velocity": 100}, {"time": 16720, "pitch": 65, "duration": 110, "velocity": 100}, {"time": 16720, "pitch": 74, "duration": 440, "velocity": 100}, {"time": 16830, "pitch": 62, "duration": 55, "velocity": 100}, {"time": 16830, "pitch": 65, "duration": 110, "velocity": 100}, {"time": 16830, "pitch": 66, "duration": 55, "velocity": 100}, {"time": 16830, "pitch": 70, "duration": 55, "velocity": 100}, {"time": 16885, "pitch": 62, "duration": 55, "velocity": 100}, {"time": 16885, "pitch": 66, "duration": 55, "velocity": 100}, {"time": 16885, "pitch": 70, "duration": 55, "velocity": 100}, {"time": 16940, "pitch": 58, "duration": 220, "velocity": 100}, {"time": 16940, "pitch": 65, "duration": 110, "velocity": 100}, {"time": 17050, "pitch": 62, "duration": 110, "velocity": 100}, {"time": 17050, "pitch": 65, "duration": 110, "velocity": 100}, {"time": 17050, "pitch": 66, "duration": 110, "velocity": 100}, {"time": 17050, "pitch": 70, "duration": 110, "velocity": 100}, {"time": 17160, "pitch": 65, "duration": 110, "velocity": 100}, {"time": 17160, "pitch": 66, "duration": 110, "velocity": 100}, {"time": 17270, "pitch": 65, "duration": 110, "velocity": 100}, {"time": 17270, "pitch": 66, "duration": 55, "velocity": 100}, {"time": 17270, "pitch": 70, "duration": 165, "velocity": 100}, {"time": 17380, "pitch": 58, "duration": 110, "velocity": 100}, {"time": 17380, "pitch": 65, "duration": 110, "velocity": 100}, {"time": 17380, "pitch": 74, "duration": 220, "velocity": 100}, {"time": 17490, "pitch": 62, "duration": 55, "velocity": 100}, {"time": 17490, "pitch": 65, "duration": 110, "velocity": 100}, {"time": 17490, "pitch": 66, "duration": 55, "velocity": 100}, {"time": 17490, "pitch": 70, "duration": 110, "velocity": 100}, {"time": 17600, "pitch": 66, "duration": 110, "velocity": 100}, {"time": 17600, "pitch": 72, "duration": 55, "velocity": 100}, {"time": 17710, "pitch": 58, "duration": 165, "velocity": 100}, {"time": 17710, "pitch": 62, "duration": 165, "velocity": 100}, {"time": 17710, "pitch": 66, "duration": 110, "velocity": 100}, {"time": 17710, "pitch": 66, "duration": 165, "velocity": 100}, {"time": 17820, "pitch": 66, "duration": 110, "velocity": 100}, {"time": 17930, "pitch": 58, "duration": 55, "velocity": 100}, {"time": 17930, "pitch": 62, "duration": 55, "velocity": 100}, {"time": 17930, "pitch": 66, "duration": 55, "velocity": 100}, {"time": 17930, "pitch": 66, "duration": 110, "velocity": 100}, {"time": 18040, "pitch": 70, "duration": 110, "velocity": 100}, {"time": 18150, "pitch": 58, "duration": 165, "velocity": 100}, {"time": 18150, "pitch": 62, "duration": 165, "velocity": 100}, {"time": 18150, "pitch": 66, "duration": 55, "velocity": 100}, {"time": 18150, "pitch": 70, "duration": 110, "velocity": 100}, {"time": 18260, "pitch": 73, "duration": 55, "velocity": 100}, {"time": 18260, "pitch": 78, "duration": 110, "velocity": 100}, {"time": 18370, "pitch": 58, "duration": 55, "velocity": 100}, {"time": 18370, "pitch": 62, "duration": 55, "velocity": 100}, {"time": 18370, "pitch": 66, "duration": 55, "velocity": 100}, {"time": 18370, "pitch": 70, "duration": 55, "velocity": 100}, {"time": 18370, "pitch": 77, "duration": 110, "velocity": 100}, {"time": 18425, "pitch": 58, "duration": 55, "velocity": 100}, {"time": 18425, "pitch": 62, "duration": 55, "velocity": 100}, {"time": 18425, "pitch": 66, "duration": 55, "velocity": 100}, {"time": 18480, "pitch": 75, "duration": 110, "velocity": 100}, {"time": 18590, "pitch": 58, "duration": 165, "velocity": 100}, {"time": 18590, "pitch": 62, "duration": 165, "velocity": 100}, {"time": 18590, "pitch": 75, "duration": 110, "velocity": 100}, {"time": 18700, "pitch": 75, "duration": 110, "velocity": 100}, {"time": 18810, "pitch": 58, "duration": 55, "velocity": 100}, {"time": 18810, "pitch": 62, "duration": 55, "velocity": 100}, {"time": 18810, "pitch": 73, "duration": 110, "velocity": 100}, {"time": 18920, "pitch": 58, "duration": 55, "velocity": 100}, {"time": 18920, "pitch": 73, "duration": 110, "velocity": 100}, {"time": 19030, "pitch": 58, "duration": 55, "velocity": 100}, {"time": 19030, "pitch": 62, "duration": 55, "velocity": 100}, {"time": 19030, "pitch": 70, "duration": 55, "velocity": 100}, {"time": 19030, "pitch": 73, "duration": 110, "velocity": 100}, {"time": 19085, "pitch": 58, "duration": 55, "velocity": 100}, {"time": 19085, "pitch": 62, "duration": 55, "velocity": 100}, {"time": 19140, "pitch": 68, "duration": 110, "velocity": 100}, {"time": 19140, "pitch": 70, "duration": 110, "velocity": 100}, {"time": 19250, "pitch": 58, "duration": 55, "velocity": 100}, {"time": 19250, "pitch": 62, "duration": 55, "velocity": 100}, {"time": 19250, "pitch": 68, "duration": 110, "velocity": 100}, {"time": 19250, "pitch": 70, "duration": 55, "velocity": 100}, {"time": 19360, "pitch": 70, "duration": 110, "velocity": 100}, {"time": 19360, "pitch": 73, "duration": 275, "velocity": 100}, {"time": 19470, "pitch": 58, "duration": 165, "velocity": 100}, {"time": 19470, "pitch": 62, "duration": 165, "velocity": 100}, {"time": 19470, "pitch": 70, "duration": 110, "velocity": 100}, {"time": 19580, "pitch": 70, "duration": 110, "velocity": 100}, {"time": 19690, "pitch": 58, "duration": 55, "velocity": 100}, {"time": 19690, "pitch": 62, "duration": 55, "velocity": 100}, {"time": 19690, "pitch": 70, "duration": 110, "velocity": 100}, {"time": 19800, "pitch": 73, "duration": 110, "velocity": 100}, {"time": 19800, "pitch": 73, "duration": 220, "velocity": 100}, {"time": 19910, "pitch": 58, "duration": 330, "velocity": 100}, {"time": 19910, "pitch": 71, "duration": 110, "velocity": 100}, {"time": 20020, "pitch": 66, "duration": 220, "velocity": 100}, {"time": 20020, "pitch": 70, "duration": 110, "velocity": 100}, {"time": 20130, "pitch": 66, "duration": 110, "velocity": 100}, {"time": 20240, "pitch": 62, "duration": 110, "velocity": 100}, {"time": 20240, "pitch": 65, "duration": 110, "velocity": 100}, {"time": 20240, "pitch": 74, "duration": 110, "velocity": 100}, {"time": 20350, "pitch": 58, "duration": 55, "velocity": 100}, {"time": 20350, "pitch": 65, "duration": 110, "velocity": 100}, {"time": 20350, "pitch": 78, "duration": 55, "velocity": 100}, {"time": 20350, "pitch": 82, "duration": 55, "velocity": 100}, {"time": 20460, "pitch": 62, "duration": 55, "velocity": 100}, {"time": 20460, "pitch": 65, "duration": 110, "velocity": 100}, {"time": 20460, "pitch": 75, "duration": 55, "velocity": 100}, {"time": 20460, "pitch": 80, "duration": 55, "velocity": 100}, {"time": 20570, "pitch": 58, "duration": 55, "velocity": 100}, {"time": 20570, "pitch": 65, "duration": 110, "velocity": 100}, {"time": 20570, "pitch": 66, "duration": 55, "velocity": 100}, {"time": 20570, "pitch": 78, "duration": 55, "velocity": 100}, {"time": 20625, "pitch": 78, "duration": 55, "velocity": 100}, {"time": 20680, "pitch": 68, "duration": 220, "velocity": 100}, {"time": 20900, "pitch": 65, "duration": 220, "velocity": 100}, {"time": 21120, "pitch": 66, "duration": 110, "velocity": 100}, {"time": 21120, "pitch": 78, "duration": 55, "velocity": 100}, {"time": 21230, "pitch": 66, "duration": 110, "velocity": 100}, {"time": 21340, "pitch": 62, "duration": 55, "velocity": 100}, {"time": 21340, "pitch": 66, "duration": 55, "velocity": 100}, {"time": 21340, "pitch": 66, "duration": 110, "velocity": 100}, {"time": 21340, "pitch": 70, "duration": 55, "velocity": 100}, {"time": 21340, "pitch": 74, "duration": 55, "velocity": 100}, {"time": 21450, "pitch": 62, "duration": 55, "velocity": 100}, {"time": 21450, "pitch": 66, "duration": 55, "velocity": 100}, {"time": 21450, "pitch": 66, "duration": 110, "velocity": 100}, {"time": 21450, "pitch": 70, "duration": 55, "velocity": 100}, {"time": 21560, "pitch": 70, "duration": 110, "velocity": 100}, {"time": 21670, "pitch": 70, "duration": 110, "velocity": 100}, {"time": 21780, "pitch": 62, "duration": 55, "velocity": 100}, {"time": 21780, "pitch": 66, "duration": 55, "velocity": 100}, {"time": 21780, "pitch": 70, "duration": 55, "velocity": 100}, {"time": 21780, "pitch": 74, "duration": 55, "velocity": 100}, {"time": 21780, "pitch": 78, "duration": 55, "velocity": 100}, {"time": 21780, "pitch": 78, "duration": 110, "velocity": 100}, {"time": 21780, "pitch": 82, "duration": 55, "velocity": 100}, {"time": 21890, "pitch": 62, "duration": 55, "velocity": 100}, {"time": 21890, "pitch": 66, "duration": 55, "velocity": 100}, {"time": 21890, "pitch": 70, "duration": 55, "velocity": 100}, {"time": 21890, "pitch": 74, "duration": 55, "velocity": 100}, {"time": 21890, "pitch": 77, "duration": 110, "velocity": 100}, {"time": 21890, "pitch": 78, "duration": 55, "velocity": 100}, {"time": 21890, "pitch": 82, "duration": 55, "velocity": 100}, {"time": 22000, "pitch": 75, "duration": 110, "velocity": 100}, {"time": 22110, "pitch": 62, "duration": 165, "velocity": 100}, {"time": 22110, "pitch": 66, "duration": 165, "velocity": 100}, {"time": 22110, "pitch": 70, "duration": 165, "velocity": 100}, {"time": 22110, "pitch": 75, "duration": 110, "velocity": 100}, {"time": 22220, "pitch": 58, "duration": 220, "velocity": 100}, {"time": 22220, "pitch": 75, "duration": 110, "velocity": 100}, {"time": 22330, "pitch": 66, "duration": 55, "velocity": 100}, {"time": 22330, "pitch": 70, "duration": 55, "velocity": 100}, {"time": 22330, "pitch": 73, "duration": 110, "velocity": 100}, {"time": 22440, "pitch": 73, "duration": 110, "velocity": 100}, {"time": 22550, "pitch": 62, "duration": 165, "velocity": 100}, {"time": 22550, "pitch": 66, "duration": 165, "velocity": 100}, {"time": 22550, "pitch": 70, "duration": 165, "velocity": 100}, {"time": 22550, "pitch": 73, "duration": 110, "velocity": 100}, {"time": 22660, "pitch": 58, "duration": 165, "velocity": 100}, {"time": 22660, "pitch": 68, "duration": 110, "velocity": 100}, {"time": 22770, "pitch": 62, "duration": 55, "velocity": 100}, {"time": 22770, "pitch": 66, "duration": 55, "velocity": 100}, {"time": 22770, "pitch": 68, "duration": 110, "velocity": 100}, {"time": 22770, "pitch": 70, "duration": 55, "velocity": 100}, {"time": 22880, "pitch": 70, "duration": 110, "velocity": 100}, {"time": 22990, "pitch": 70, "duration": 110, "velocity": 100}, {"time": 23100, "pitch": 62, "duration": 55, "velocity": 100}, {"time": 23100, "pitch": 66, "duration": 55, "velocity": 100}, {"time": 23100, "pitch": 70, "duration": 55, "velocity": 100}, {"time": 23100, "pitch": 70, "duration": 110, "velocity": 100}, {"time": 23100, "pitch": 74, "duration": 55, "velocity": 100}, {"time": 23100, "pitch": 78, "duration": 55, "velocity": 100}, {"time": 23100, "pitch": 82, "duration": 55, "velocity": 100}, {"time": 23210, "pitch": 62, "duration": 55, "velocity": 100}, {"time": 23210, "pitch": 66, "duration": 55, "velocity": 100}, {"time": 23210, "pitch": 70, "duration": 110, "velocity": 100}, {"time": 23210, "pitch": 74, "duration": 55, "velocity": 100}, {"time": 23320, "pitch": 73, "duration": 110, "velocity": 100}, {"time": 23430, "pitch": 71, "duration": 110, "velocity": 100}, {"time": 23540, "pitch": 62, "duration": 55, "velocity": 100}, {"time": 23540, "pitch": 66, "duration": 55, "velocity": 100}, {"time": 23540, "pitch": 70, "duration": 55, "velocity": 100}, {"time": 23540, "pitch": 70, "duration": 110, "velocity": 100}, {"time": 23540, "pitch": 74, "duration": 55, "velocity": 100}, {"time": 23540, "pitch": 78, "duration": 55, "velocity": 100}, {"time": 23540, "pitch": 82, "duration": 55, "velocity": 100}, {"time": 23650, "pitch": 62, "duration": 55, "velocity": 100}, {"time": 23650, "pitch": 66, "duration": 55, "velocity": 100}, {"time": 23650, "pitch": 66, "duration": 110, "velocity": 100}, {"time": 23650, "pitch": 70, "duration": 55, "velocity": 100}, {"time": 23650, "pitch": 74, "duration": 55, "velocity": 100}, {"time": 23650, "pitch": 78, "duration": 55, "velocity": 100}, {"time": 23650, "pitch": 82, "duration": 55, "velocity": 100}, {"time": 23760, "pitch": 65, "duration": 110, "velocity": 100}, {"time": 23870, "pitch": 65, "duration": 110, "velocity": 100}, {"time": 23870, "pitch": 66, "duration": 55, "velocity": 100}, {"time": 23870, "pitch": 70, "duration": 55, "velocity": 100}, {"time": 23870, "pitch": 74, "duration": 55, "velocity": 100}, {"time": 23980, "pitch": 58, "duration": 220, "velocity": 100}, {"time": 23980, "pitch": 65, "duration": 110, "velocity": 100}, {"time": 23980, "pitch": 70, "duration": 55, "velocity": 100}, {"time": 24090, "pitch": 62, "duration": 55, "velocity": 100}, {"time": 24090, "pitch": 65, "duration": 110, "velocity": 100}, {"time": 24090, "pitch": 66, "duration": 55, "velocity": 100}, {"time": 24090, "pitch": 70, "duration": 55, "velocity": 100}, {"time": 24200, "pitch": 66, "duration": 220, "velocity": 100}, {"time": 24200, "pitch": 74, "duration": 55, "velocity": 100}, {"time": 24310, "pitch": 62, "duration": 165, "velocity": 100}, {"time": 24310, "pitch": 66, "duration": 110, "velocity": 100}, {"time": 24310, "pitch": 70, "duration": 55, "velocity": 100}, {"time": 24310, "pitch": 74, "duration": 55, "velocity": 100}, {"time": 24365, "pitch": 66, "duration": 110, "velocity": 100}, {"time": 24365, "pitch": 70, "duration": 55, "velocity": 100}, {"time": 24420, "pitch": 68, "duration": 110, "velocity": 100}, {"time": 24530, "pitch": 65, "duration": 55, "velocity": 100}, {"time": 24530, "pitch": 66, "duration": 110, "velocity": 100}, {"time": 24530, "pitch": 70, "duration": 55, "velocity": 100}, {"time": 24530, "pitch": 74, "duration": 55, "velocity": 100}, {"time": 24640, "pitch": 70, "duration": 220, "velocity": 100}, {"time": 24750, "pitch": 62, "duration": 110, "velocity": 100}, {"time": 24750, "pitch": 66, "duration": 110, "velocity": 100}, {"time": 24750, "pitch": 70, "duration": 220, "velocity": 100}, {"time": 24970, "pitch": 62, "duration": 55, "velocity": 100}, {"time": 24970, "pitch": 66, "duration": 55, "velocity": 100}, {"time": 24970, "pitch": 70, "duration": 55, "velocity": 100}, {"time": 25190, "pitch": 62, "duration": 165, "velocity": 100}, {"time": 25190, "pitch": 66, "duration": 55, "velocity": 100}, {"time": 25190, "pitch": 70, "duration": 110, "velocity": 100}, {"time": 25300, "pitch": 62, "duration": 55, "velocity": 100}, {"time": 25410, "pitch": 62, "duration": 55, "velocity": 100}, {"time": 25410, "pitch": 66, "duration": 55, "velocity": 100}, {"time": 25410, "pitch": 68, "duration": 55, "velocity": 100}, {"time": 25410, "pitch": 70, "duration": 55, "velocity": 100}, {"time": 25520, "pitch": 66, "duration": 110, "velocity": 100}, {"time": 25520, "pitch": 70, "duration": 55, "velocity": 100}, {"time": 25630, "pitch": 62, "duration": 165, "velocity": 100}, {"time": 25630, "pitch": 66, "duration": 165, "velocity": 100}, {"time": 25630, "pitch": 70, "duration": 165, "velocity": 100}, {"time": 25685, "pitch": 70, "duration": 110, "velocity": 100}, {"time": 25740, "pitch": 54, "duration": 165, "velocity": 100}, {"time": 25850, "pitch": 62, "duration": 55, "velocity": 100}, {"time": 25850, "pitch": 66, "duration": 55, "velocity": 100}, {"time": 25850, "pitch": 70, "duration": 55, "velocity": 100}, {"time": 25905, "pitch": 74, "duration": 55, "velocity": 100}, {"time": 25960, "pitch": 70, "duration": 55, "velocity": 100}, {"time": 26070, "pitch": 62, "duration": 165, "velocity": 100}, {"time": 26070, "pitch": 66, "duration": 165, "velocity": 100}, {"time": 26070, "pitch": 70, "duration": 165, "velocity": 100}, {"time": 26070, "pitch": 74, "duration": 55, "velocity": 100}, {"time": 26125, "pitch": 74, "duration": 55, "velocity": 100}, {"time": 26180, "pitch": 74, "duration": 55, "velocity": 100}, {"time": 26290, "pitch": 62, "duration": 55, "velocity": 100}, {"time": 26290, "pitch": 66, "duration": 55, "velocity": 100}, {"time": 26290, "pitch": 70, "duration": 55, "velocity": 100}, {"time": 26290, "pitch": 74, "duration": 55, "velocity": 100}]}, {"program": 32, "is_drum": false, "name": "Bass", "notes": [{"time": 0, "pitch": 50, "duration": 220, "velocity": 100}, {"time": 880, "pitch": 50, "duration": 220, "velocity": 100}, {"time": 1320, "pitch": 50, "duration": 330, "velocity": 100}, {"time": 1760, "pitch": 46, "duration": 330, "velocity": 100}, {"time": 2200, "pitch": 50, "duration": 275, "velocity": 100}, {"time": 2640, "pitch": 50, "duration": 220, "velocity": 100}, {"time": 3080, "pitch": 50, "duration": 385, "velocity": 100}, {"time": 3520, "pitch": 46, "duration": 220, "velocity": 100}, {"time": 3960, "pitch": 46, "duration": 385, "velocity": 100}, {"time": 4400, "pitch": 46, "duration": 220, "velocity": 100}, {"time": 4620, "pitch": 50, "duration": 220, "velocity": 100}, {"time": 4840, "pitch": 42, "duration": 330, "velocity": 100}, {"time": 5060, "pitch": 50, "duration": 165, "velocity": 100}, {"time": 5280, "pitch": 42, "duration": 220, "velocity": 100}, {"time": 5500, "pitch": 49, "duration": 165, "velocity": 100}, {"time": 5720, "pitch": 38, "duration": 220, "velocity": 100}, {"time": 5940, "pitch": 50, "duration": 220, "velocity": 100}, {"time": 6160, "pitch": 38, "duration": 55, "velocity": 100}, {"time": 6270, "pitch": 38, "duration": 55, "velocity": 100}, {"time": 6380, "pitch": 38, "duration": 110, "velocity": 100}, {"time": 6490, "pitch": 38, "duration": 55, "velocity": 100}, {"time": 6545, "pitch": 38, "duration": 55, "velocity": 100}, {"time": 7040, "pitch": 46, "duration": 165, "velocity": 100}, {"time": 7260, "pitch": 42, "duration": 165, "velocity": 100}, {"time": 7480, "pitch": 46, "duration": 165, "velocity": 100}, {"time": 7700, "pitch": 42, "duration": 165, "velocity": 100}, {"time": 7920, "pitch": 42, "duration": 165, "velocity": 100}, {"time": 8030, "pitch": 50, "duration": 165, "velocity": 100}, {"time": 8140, "pitch": 46, "duration": 165, "velocity": 100}, {"time": 8250, "pitch": 50, "duration": 55, "velocity": 100}, {"time": 8360, "pitch": 38, "duration": 165, "velocity": 100}, {"time": 8470, "pitch": 46, "duration": 165, "velocity": 100}, {"time": 8580, "pitch": 38, "duration": 165, "velocity": 100}, {"time": 8690, "pitch": 46, "duration": 55, "velocity": 100}, {"time": 8800, "pitch": 38, "duration": 165, "velocity": 100}, {"time": 8910, "pitch": 50, "duration": 110, "velocity": 100}, {"time": 9020, "pitch": 46, "duration": 165, "velocity": 100}, {"time": 9240, "pitch": 38, "duration": 275, "velocity": 100}, {"time": 9350, "pitch": 50, "duration": 165, "velocity": 100}, {"time": 9460, "pitch": 46, "duration": 165, "velocity": 100}, {"time": 9570, "pitch": 50, "duration": 55, "velocity": 100}, {"time": 9680, "pitch": 38, "duration": 220, "velocity": 100}, {"time": 9900, "pitch": 50, "duration": 165, "velocity": 100}, {"time": 10120, "pitch": 38, "duration": 220, "velocity": 100}, {"time": 10340, "pitch": 42, "duration": 165, "velocity": 100}, {"time": 10560, "pitch": 46, "duration": 165, "velocity": 100}, {"time": 10780, "pitch": 42, "duration": 165, "velocity": 100}, {"time": 11000, "pitch": 46, "duration": 165, "velocity": 100}, {"time": 11220, "pitch": 42, "duration": 165, "velocity": 100}, {"time": 11440, "pitch": 42, "duration": 165, "velocity": 100}, {"time": 11550, "pitch": 50, "duration": 165, "velocity": 100}, {"time": 11660, "pitch": 46, "duration": 165, "velocity": 100}, {"time": 11770, "pitch": 50, "duration": 55, "velocity": 100}, {"time": 11880, "pitch": 38, "duration": 165, "velocity": 100}, {"time": 11990, "pitch": 46, "duration": 165, "velocity": 100}, {"time": 12100, "pitch": 38, "duration": 165, "velocity": 100}, {"time": 12210, "pitch": 46, "duration": 55, "velocity": 100}, {"time": 12320, "pitch": 38, "duration": 165, "velocity": 100}, {"time": 12430, "pitch": 50, "duration": 110, "velocity": 100}, {"time": 12540, "pitch": 46, "duration": 165, "velocity": 100}, {"time": 12760, "pitch": 38, "duration": 275, "velocity": 100}, {"time": 12870, "pitch": 50, "duration": 165, "velocity": 100}, {"time": 12980, "pitch": 46, "duration": 165, "velocity": 100}, {"time": 13090, "pitch": 50, "duration": 55, "velocity": 100}, {"time": 13200, "pitch": 38, "duration": 220, "velocity": 100}, {"time": 13310, "pitch": 54, "duration": 55, "velocity": 100}, {"time": 13420, "pitch": 50, "duration": 165, "velocity": 100}, {"time": 13530, "pitch": 54, "duration": 55, "velocity": 100}, {"time": 13640, "pitch": 38, "duration": 220, "velocity": 100}, {"time": 13750, "pitch": 54, "duration": 165, "velocity": 100}, {"time": 13860, "pitch": 42, "duration": 165, "velocity": 100}, {"time": 13970, "pitch": 54, "duration": 55, "velocity": 100}, {"time": 14080, "pitch": 50, "duration": 220, "velocity": 100}, {"time": 14520, "pitch": 50, "duration": 330, "velocity": 100}, {"time": 14960, "pitch": 50, "duration": 220, "velocity": 100}, {"time": 15400, "pitch": 50, "duration": 330, "velocity": 100}, {"time": 15840, "pitch": 46, "duration": 330, "velocity": 100}, {"time": 16060, "pitch": 54, "duration": 110, "velocity": 100}, {"time": 16280, "pitch": 50, "duration": 275, "velocity": 100}, {"time": 16720, "pitch": 50, "duration": 220, "velocity": 100}, {"time": 17160, "pitch": 50, "duration": 385, "velocity": 100}, {"time": 17600, "pitch": 46, "duration": 220, "velocity": 100}, {"time": 17820, "pitch": 54, "duration": 220, "velocity": 100}, {"time": 18040, "pitch": 46, "duration": 385, "velocity": 100}, {"time": 18260, "pitch": 54, "duration": 165, "velocity": 100}, {"time": 18480, "pitch": 46, "duration": 220, "velocity": 100}, {"time": 18590, "pitch": 54, "duration": 165, "velocity": 100}, {"time": 18700, "pitch": 50, "duration": 220, "velocity": 100}, {"time": 18810, "pitch": 54, "duration": 55, "velocity": 100}, {"time": 18920, "pitch": 42, "duration": 330, "velocity": 100}, {"time": 19030, "pitch": 54, "duration": 55, "velocity": 100}, {"time": 19085, "pitch": 54, "duration": 55, "velocity": 100}, {"time": 19140, "pitch": 50, "duration": 165, "velocity": 100}, {"time": 19250, "pitch": 54, "duration": 55, "velocity": 100}, {"time": 19360, "pitch": 42, "duration": 220, "velocity": 100}, {"time": 19470, "pitch": 54, "duration": 165, "velocity": 100}, {"time": 19580, "pitch": 49, "duration": 165, "velocity": 100}, {"time": 19690, "pitch": 54, "duration": 55, "velocity": 100}, {"time": 19800, "pitch": 38, "duration": 220, "velocity": 100}, {"time": 19910, "pitch": 54, "duration": 165, "velocity": 100}, {"time": 20020, "pitch": 50, "duration": 220, "velocity": 100}, {"time": 20130, "pitch": 54, "duration": 110, "velocity": 100}, {"time": 20240, "pitch": 38, "duration": 55, "velocity": 100}, {"time": 20240, "pitch": 50, "duration": 110, "velocity": 100}, {"time": 20350, "pitch": 38, "duration": 55, "velocity": 100}, {"time": 20350, "pitch": 50, "duration": 55, "velocity": 100}, {"time": 20460, "pitch": 38, "duration": 110, "velocity": 100}, {"time": 20460, "pitch": 50, "duration": 55, "velocity": 100}, {"time": 20570, "pitch": 38, "duration": 55, "velocity": 100}, {"time": 20570, "pitch": 50, "duration": 55, "velocity": 100}, {"time": 20625, "pitch": 38, "duration": 55, "velocity": 100}, {"time": 20625, "pitch": 50, "duration": 55, "velocity": 100}, {"time": 21120, "pitch": 50, "duration": 55, "velocity": 100}, {"time": 21230, "pitch": 54, "duration": 55, "velocity": 100}, {"time": 21340, "pitch": 50, "duration": 55, "velocity": 100}, {"time": 21450, "pitch": 54, "duration": 55, "velocity": 100}, {"time": 21560, "pitch": 50, "duration": 55, "velocity": 100}, {"time": 21670, "pitch": 50, "duration": 55, "velocity": 100}, {"time": 21780, "pitch": 50, "duration": 55, "velocity": 100}, {"time": 21890, "pitch": 50, "duration": 55, "velocity": 100}, {"time": 22000, "pitch": 50, "duration": 220, "velocity": 100}, {"time": 22440, "pitch": 50, "duration": 275, "velocity": 100}, {"time": 22880, "pitch": 50, "duration": 55, "velocity": 100}, {"time": 22990, "pitch": 50, "duration": 55, "velocity": 100}, {"time": 23100, "pitch": 50, "duration": 55, "velocity": 100}, {"time": 23210, "pitch": 54, "duration": 55, "velocity": 100}, {"time": 23320, "pitch": 50, "duration": 55, "velocity": 100}, {"time": 23430, "pitch": 54, "duration": 55, "velocity": 100}, {"time": 23540, "pitch": 50, "duration": 55, "velocity": 100}, {"time": 23650, "pitch": 50, "duration": 55, "velocity": 100}, {"time": 23760, "pitch": 46, "duration": 220, "velocity": 100}, {"time": 23980, "pitch": 50, "duration": 220, "velocity": 100}, {"time": 24200, "pitch": 46, "duration": 275, "velocity": 100}, {"time": 24420, "pitch": 58, "duration": 220, "velocity": 100}, {"time": 24640, "pitch": 50, "duration": 330, "velocity": 100}, {"time": 24860, "pitch": 58, "duration": 165, "velocity": 100}, {"time": 25080, "pitch": 50, "duration": 330, "velocity": 100}, {"time": 25300, "pitch": 58, "duration": 165, "velocity": 100}, {"time": 25520, "pitch": 42, "duration": 220, "velocity": 100}, {"time": 25740, "pitch": 50, "duration": 220, "velocity": 100}, {"time": 25960, "pitch": 46, "duration": 275, "velocity": 100}, {"time": 26180, "pitch": 54, "duration": 110, "velocity": 100}]}, {"program": 48, "is_drum": false, "name": "Strings"}, {"program": 61, "is_drum": false, "name": "Brass"}]}