{"metadata": {"schema_version": "0.1", "title": "None", "source_filename": "20211209_025800.mid", "source_format": "midi"}, "resolution": 220, "tempos": [{"time": 0, "qpm": 120.0}], "time_signatures": [{"time": 0, "numerator": 4, "denominator": 4}], "tracks": [{"program": 73, "is_drum": false, "name": "Soprano", "notes": [{"time": 220, "pitch": 67, "duration": 220, "velocity": 100}, {"time": 440, "pitch": 71, "duration": 220, "velocity": 100}, {"time": 660, "pitch": 67, "duration": 220, "velocity": 100}, {"time": 1100, "pitch": 69, "duration": 165, "velocity": 100}, {"time": 1265, "pitch": 71, "duration": 55, "velocity": 100}, {"time": 1320, "pitch": 69, "duration": 165, "velocity": 100}, {"time": 1485, "pitch": 67, "duration": 55, "velocity": 100}, {"time": 1540, "pitch": 64, "duration": 220, "velocity": 100}, {"time": 1760, "pitch": 64, "duration": 220, "velocity": 100}, {"time": 1980, "pitch": 64, "duration": 220, "velocity": 100}, {"time": 1980, "pitch": 67, "duration": 220, "velocity": 100}, {"time": 2200, "pitch": 71, "duration": 220, "velocity": 100}, {"time": 2420, "pitch": 67, "duration": 220, "velocity": 100}, {"time": 2640, "pitch": 69, "duration": 220, "velocity": 100}, {"time": 2860, "pitch": 69, "duration": 165, "velocity": 100}, {"time": 3025, "pitch": 71, "duration": 55, "velocity": 100}, {"time": 3080, "pitch": 69, "duration": 440, "velocity": 100}, {"time": 3740, "pitch": 67, "duration": 220, "velocity": 100}, {"time": 3960, "pitch": 71, "duration": 220, "velocity": 100}, {"time": 4620, "pitch": 69, "duration": 165, "velocity": 100}, {"time": 4785, "pitch": 71, "duration": 55, "velocity": 100}, {"time": 5005, "pitch": 67, "duration": 55, "velocity": 100}, {"time": 5445, "pitch": 67, "duration": 55, "velocity": 100}, {"time": 5500, "pitch": 69, "duration": 165, "velocity": 100}, {"time": 5665, "pitch": 71, "duration": 55, "velocity": 100}, {"time": 5940, "pitch": 67, "duration": 165, "velocity": 100}, {"time": 6105, "pitch": 69, "duration": 55, "velocity": 100}, {"time": 6160, "pitch": 71, "duration": 220, "velocity": 100}, {"time": 6380, "pitch": 71, "duration": 165, "velocity": 100}, {"time": 6545, "pitch": 69, "duration": 55, "velocity": 100}, {"time": 7260, "pitch": 67, "duration": 220, "velocity": 100}, {"time": 7480, "pitch": 71, "duration": 220, "velocity": 100}, {"time": 7700, "pitch": 64, "duration": 220, "velocity": 100}, {"time": 7700, "pitch": 67, "duration": 220, "velocity": 100}, {"time": 7920, "pitch": 69, "duration": 220, "velocity": 100}, {"time": 8140, "pitch": 62, "duration": 220, "velocity": 100}, {"time": 8140, "pitch": 69, "duration": 165, "velocity": 100}, {"time": 8305, "pitch": 71, "duration": 55, "velocity": 100}, {"time": 8800, "pitch": 64, "duration": 220, "velocity": 100}, {"time": 9240, "pitch": 71, "duration": 220, "velocity": 100}, {"time": 9460, "pitch": 67, "duration": 220, "velocity": 100}, {"time": 9900, "pitch": 69, "duration": 165, "velocity": 100}, {"time": 10065, "pitch": 71, "duration": 55, "velocity": 100}, {"time": 11000, "pitch": 71, "duration": 220, "velocity": 100}, {"time": 11220, "pitch": 67, "duration": 220, "velocity": 100}, {"time": 11660, "pitch": 69, "duration": 165, "velocity": 100}, {"time": 12540, "pitch": 69, "duration": 165, "velocity": 100}, {"time": 13420, "pitch": 71, "duration": 165, "velocity": 100}, {"time": 13860, "pitch": 63, "duration": 220, "velocity": 100}, {"time": 14080, "pitch": 67, "duration": 165, "velocity": 100}, {"time": 14080, "pitch": 67, "duration": 165, "velocity": 100}, {"time": 14300, "pitch": 71, "duration": 165, "velocity": 100}, {"time": 14465, "pitch": 73, "duration": 55, "velocity": 100}, {"time": 14520, "pitch": 74, "duration": 220, "velocity": 100}, {"time": 14740, "pitch": 66, "duration": 165, "velocity": 100}, {"time": 14740, "pitch": 73, "duration": 165, "velocity": 100}, {"time": 14905, "pitch": 71, "duration": 55, "velocity": 100}, {"time": 14960, "pitch": 73, "duration": 220, "velocity": 100}, {"time": 15180, "pitch": 61, "duration": 220, "velocity": 100}, {"time": 15180, "pitch": 71, "duration": 165, "velocity": 100}, {"time": 15345, "pitch": 69, "duration": 55, "velocity": 100}, {"time": 15565, "pitch": 69, "duration": 55, "velocity": 100}, {"time": 16005, "pitch": 64, "duration": 55, "velocity": 100}, {"time": 16005, "pitch": 69, "duration": 55, "velocity": 100}, {"time": 16060, "pitch": 71, "duration": 165, "velocity": 100}, {"time": 16225, "pitch": 73, "duration": 55, "velocity": 100}, {"time": 16280, "pitch": 74, "duration": 220, "velocity": 100}, {"time": 16500, "pitch": 66, "duration": 220, "velocity": 100}, {"time": 16500, "pitch": 73, "duration": 165, "velocity": 100}, {"time": 16665, "pitch": 71, "duration": 55, "velocity": 100}, {"time": 16720, "pitch": 69, "duration": 220, "velocity": 100}, {"time": 16940, "pitch": 71, "duration": 220, "velocity": 100}, {"time": 17160, "pitch": 73, "duration": 440, "velocity": 100}, {"time": 17380, "pitch": 61, "duration": 220, "velocity": 100}, {"time": 17600, "pitch": 67, "duration": 165, "velocity": 100}, {"time": 17765, "pitch": 69, "duration": 55, "velocity": 100}, {"time": 17820, "pitch": 71, "duration": 165, "velocity": 100}, {"time": 17985, "pitch": 73, "duration": 55, "velocity": 100}, {"time": 18040, "pitch": 74, "duration": 220, "velocity": 100}, {"time": 18260, "pitch": 67, "duration": 220, "velocity": 100}, {"time": 18260, "pitch": 73, "duration": 165, "velocity": 100}, {"time": 18425, "pitch": 71, "duration": 55, "velocity": 100}, {"time": 18480, "pitch": 73, "duration": 220, "velocity": 100}, {"time": 18700, "pitch": 61, "duration": 220, "velocity": 100}, {"time": 18700, "pitch": 71, "duration": 165, "velocity": 100}, {"time": 18865, "pitch": 69, "duration": 55, "velocity": 100}, {"time": 19085, "pitch": 69, "duration": 55, "velocity": 100}, {"time": 19525, "pitch": 69, "duration": 55, "velocity": 100}, {"time": 19745, "pitch": 73, "duration": 55, "velocity": 100}, {"time": 19965, "pitch": 73, "duration": 55, "velocity": 100}, {"time": 20185, "pitch": 71, "duration": 55, "velocity": 100}, {"time": 20460, "pitch": 71, "duration": 220, "velocity": 100}, {"time": 20900, "pitch": 62, "duration": 220, "velocity": 100}, {"time": 21120, "pitch": 67, "duration": 165, "velocity": 100}, {"time": 21285, "pitch": 69, "duration": 55, "velocity": 100}, {"time": 21945, "pitch": 71, "duration": 55, "velocity": 100}, {"time": 22220, "pitch": 64, "duration": 220, "velocity": 100}, {"time": 22385, "pitch": 69, "duration": 55, "velocity": 100}, {"time": 22605, "pitch": 69, "duration": 55, "velocity": 100}, {"time": 23045, "pitch": 69, "duration": 55, "velocity": 100}, {"time": 23265, "pitch": 73, "duration": 55, "velocity": 100}, {"time": 23540, "pitch": 73, "duration": 165, "velocity": 100}, {"time": 23705, "pitch": 71, "duration": 55, "velocity": 100}, {"time": 23980, "pitch": 57, "duration": 110, "velocity": 100}, {"time": 24420, "pitch": 61, "duration": 110, "velocity": 100}, {"time": 24805, "pitch": 62, "duration": 55, "velocity": 100}, {"time": 25025, "pitch": 73, "duration": 55, "velocity": 100}, {"time": 25300, "pitch": 67, "duration": 165, "velocity": 100}, {"time": 25740, "pitch": 64, "duration": 220, "velocity": 100}, {"time": 25905, "pitch": 69, "duration": 55, "velocity": 100}, {"time": 26125, "pitch": 69, "duration": 55, "velocity": 100}, {"time": 26565, "pitch": 69, "duration": 55, "velocity": 100}, {"time": 27005, "pitch": 73, "duration": 55, "velocity": 100}, {"time": 27940, "pitch": 67, "duration": 165, "velocity": 100}]}, {"program": 68, "is_drum": false, "name": "Alto", "notes": [{"time": 220, "pitch": 64, "duration": 220, "velocity": 100}, {"time": 660, "pitch": 55, "duration": 220, "velocity": 100}, {"time": 880, "pitch": 69, "duration": 220, "velocity": 100}, {"time": 1045, "pitch": 54, "duration": 55, "velocity": 100}, {"time": 1100, "pitch": 57, "duration": 110, "velocity": 100}, {"time": 1265, "pitch": 57, "duration": 55, "velocity": 100}, {"time": 1485, "pitch": 62, "duration": 55, "velocity": 100}, {"time": 1925, "pitch": 55, "duration": 110, "velocity": 100}, {"time": 2090, "pitch": 60, "duration": 110, "velocity": 100}, {"time": 2420, "pitch": 55, "duration": 220, "velocity": 100}, {"time": 2860, "pitch": 59, "duration": 385, "velocity": 100}, {"time": 3300, "pitch": 59, "duration": 220, "velocity": 100}, {"time": 3520, "pitch": 64, "duration": 220, "velocity": 100}, {"time": 3740, "pitch": 64, "duration": 220, "velocity": 100}, {"time": 4180, "pitch": 55, "duration": 220, "velocity": 100}, {"time": 4180, "pitch": 67, "duration": 220, "velocity": 100}, {"time": 4400, "pitch": 69, "duration": 220, "velocity": 100}, {"time": 4620, "pitch": 57, "duration": 110, "velocity": 100}, {"time": 4785, "pitch": 57, "duration": 55, "velocity": 100}, {"time": 4840, "pitch": 69, "duration": 165, "velocity": 100}, {"time": 5005, "pitch": 61, "duration": 55, "velocity": 100}, {"time": 5060, "pitch": 64, "duration": 220, "velocity": 100}, {"time": 5280, "pitch": 64, "duration": 165, "velocity": 100}, {"time": 5445, "pitch": 55, "duration": 110, "velocity": 100}, {"time": 5500, "pitch": 64, "duration": 220, "velocity": 100}, {"time": 5720, "pitch": 69, "duration": 220, "velocity": 100}, {"time": 5940, "pitch": 57, "duration": 220, "velocity": 100}, {"time": 6325, "pitch": 51, "duration": 110, "velocity": 100}, {"time": 6380, "pitch": 59, "duration": 385, "velocity": 100}, {"time": 6600, "pitch": 67, "duration": 440, "velocity": 100}, {"time": 6820, "pitch": 59, "duration": 220, "velocity": 100}, {"time": 7040, "pitch": 59, "duration": 440, "velocity": 100}, {"time": 7040, "pitch": 64, "duration": 220, "velocity": 100}, {"time": 7700, "pitch": 59, "duration": 220, "velocity": 100}, {"time": 8140, "pitch": 57, "duration": 220, "velocity": 100}, {"time": 8580, "pitch": 64, "duration": 220, "velocity": 100}, {"time": 8800, "pitch": 60, "duration": 220, "velocity": 100}, {"time": 8800, "pitch": 64, "duration": 220, "velocity": 100}, {"time": 9020, "pitch": 64, "duration": 220, "velocity": 100}, {"time": 9020, "pitch": 67, "duration": 220, "velocity": 100}, {"time": 9460, "pitch": 60, "duration": 220, "velocity": 100}, {"time": 10120, "pitch": 69, "duration": 440, "velocity": 100}, {"time": 10450, "pitch": 54, "duration": 110, "velocity": 100}, {"time": 10450, "pitch": 57, "duration": 110, "velocity": 100}, {"time": 10560, "pitch": 59, "duration": 220, "velocity": 100}, {"time": 10560, "pitch": 64, "duration": 165, "velocity": 100}, {"time": 10560, "pitch": 64, "duration": 220, "velocity": 100}, {"time": 10725, "pitch": 62, "duration": 55, "velocity": 100}, {"time": 10780, "pitch": 62, "duration": 220, "velocity": 100}, {"time": 10780, "pitch": 64, "duration": 220, "velocity": 100}, {"time": 10780, "pitch": 67, "duration": 220, "velocity": 100}, {"time": 10945, "pitch": 54, "duration": 55, "velocity": 100}, {"time": 11220, "pitch": 59, "duration": 220, "velocity": 100}, {"time": 11660, "pitch": 61, "duration": 220, "velocity": 100}, {"time": 12100, "pitch": 64, "duration": 220, "velocity": 100}, {"time": 12100, "pitch": 64, "duration": 220, "velocity": 100}, {"time": 12485, "pitch": 67, "duration": 55, "velocity": 100}, {"time": 12540, "pitch": 55, "duration": 165, "velocity": 100}, {"time": 12980, "pitch": 60, "duration": 275, "velocity": 100}, {"time": 12980, "pitch": 65, "duration": 275, "velocity": 100}, {"time": 12980, "pitch": 67, "duration": 165, "velocity": 100}, {"time": 13145, "pitch": 69, "duration": 55, "velocity": 100}, {"time": 13200, "pitch": 71, "duration": 220, "velocity": 100}, {"time": 13420, "pitch": 59, "duration": 110, "velocity": 100}, {"time": 13420, "pitch": 63, "duration": 220, "velocity": 100}, {"time": 13585, "pitch": 69, "duration": 55, "velocity": 100}, {"time": 13860, "pitch": 59, "duration": 110, "velocity": 100}, {"time": 13860, "pitch": 66, "duration": 110, "velocity": 100}, {"time": 14080, "pitch": 64, "duration": 220, "velocity": 100}, {"time": 14245, "pitch": 69, "duration": 55, "velocity": 100}, {"time": 14300, "pitch": 67, "duration": 220, "velocity": 100}, {"time": 14300, "pitch": 71, "duration": 165, "velocity": 100}, {"time": 14465, "pitch": 64, "duration": 55, "velocity": 100}, {"time": 14685, "pitch": 57, "duration": 110, "velocity": 100}, {"time": 14795, "pitch": 57, "duration": 55, "velocity": 100}, {"time": 14850, "pitch": 62, "duration": 110, "velocity": 100}, {"time": 14905, "pitch": 57, "duration": 55, "velocity": 100}, {"time": 15125, "pitch": 52, "duration": 110, "velocity": 100}, {"time": 15400, "pitch": 71, "duration": 165, "velocity": 100}, {"time": 15565, "pitch": 55, "duration": 55, "velocity": 100}, {"time": 15620, "pitch": 59, "duration": 110, "velocity": 100}, {"time": 15620, "pitch": 67, "duration": 220, "velocity": 100}, {"time": 15785, "pitch": 59, "duration": 55, "velocity": 100}, {"time": 15840, "pitch": 67, "duration": 165, "velocity": 100}, {"time": 15895, "pitch": 52, "duration": 55, "velocity": 100}, {"time": 15950, "pitch": 59, "duration": 110, "velocity": 100}, {"time": 16060, "pitch": 40, "duration": 220, "velocity": 100}, {"time": 16170, "pitch": 59, "duration": 110, "velocity": 100}, {"time": 16445, "pitch": 59, "duration": 110, "velocity": 100}, {"time": 16555, "pitch": 54, "duration": 165, "velocity": 100}, {"time": 16610, "pitch": 62, "duration": 110, "velocity": 100}, {"time": 16665, "pitch": 59, "duration": 55, "velocity": 100}, {"time": 16885, "pitch": 57, "duration": 110, "velocity": 100}, {"time": 16940, "pitch": 61, "duration": 220, "velocity": 100}, {"time": 17105, "pitch": 52, "duration": 55, "velocity": 100}, {"time": 17325, "pitch": 52, "duration": 165, "velocity": 100}, {"time": 17435, "pitch": 49, "duration": 165, "velocity": 100}, {"time": 17490, "pitch": 57, "duration": 110, "velocity": 100}, {"time": 17545, "pitch": 52, "duration": 55, "velocity": 100}, {"time": 17545, "pitch": 57, "duration": 55, "velocity": 100}, {"time": 17710, "pitch": 50, "duration": 110, "velocity": 100}, {"time": 17765, "pitch": 55, "duration": 110, "velocity": 100}, {"time": 17820, "pitch": 62, "duration": 220, "velocity": 100}, {"time": 17930, "pitch": 59, "duration": 110, "velocity": 100}, {"time": 17985, "pitch": 55, "duration": 55, "velocity": 100}, {"time": 18150, "pitch": 55, "duration": 110, "velocity": 100}, {"time": 18205, "pitch": 59, "duration": 110, "velocity": 100}, {"time": 18370, "pitch": 62, "duration": 110, "velocity": 100}, {"time": 18425, "pitch": 59, "duration": 55, "velocity": 100}, {"time": 18645, "pitch": 52, "duration": 110, "velocity": 100}, {"time": 18810, "pitch": 57, "duration": 110, "velocity": 100}, {"time": 18865, "pitch": 52, "duration": 55, "velocity": 100}, {"time": 18920, "pitch": 71, "duration": 165, "velocity": 100}, {"time": 19030, "pitch": 52, "duration": 110, "velocity": 100}, {"time": 19085, "pitch": 55, "duration": 55, "velocity": 100}, {"time": 19140, "pitch": 59, "duration": 110, "velocity": 100}, {"time": 19140, "pitch": 67, "duration": 220, "velocity": 100}, {"time": 19305, "pitch": 59, "duration": 55, "velocity": 100}, {"time": 19360, "pitch": 67, "duration": 165, "velocity": 100}, {"time": 19470, "pitch": 59, "duration": 110, "velocity": 100}, {"time": 19525, "pitch": 62, "duration": 55, "velocity": 100}, {"time": 19580, "pitch": 71, "duration": 165, "velocity": 100}, {"time": 19690, "pitch": 59, "duration": 110, "velocity": 100}, {"time": 19800, "pitch": 74, "duration": 165, "velocity": 100}, {"time": 19965, "pitch": 61, "duration": 110, "velocity": 100}, {"time": 20020, "pitch": 67, "duration": 220, "velocity": 100}, {"time": 20020, "pitch": 69, "duration": 165, "velocity": 100}, {"time": 20130, "pitch": 64, "duration": 110, "velocity": 100}, {"time": 20185, "pitch": 61, "duration": 55, "velocity": 100}, {"time": 20240, "pitch": 73, "duration": 220, "velocity": 100}, {"time": 20405, "pitch": 55, "duration": 55, "velocity": 100}, {"time": 20460, "pitch": 59, "duration": 220, "velocity": 100}, {"time": 20625, "pitch": 55, "duration": 55, "velocity": 100}, {"time": 20680, "pitch": 71, "duration": 440, "velocity": 100}, {"time": 20790, "pitch": 52, "duration": 110, "velocity": 100}, {"time": 20845, "pitch": 55, "duration": 55, "velocity": 100}, {"time": 21010, "pitch": 55, "duration": 110, "velocity": 100}, {"time": 21065, "pitch": 52, "duration": 55, "velocity": 100}, {"time": 21065, "pitch": 57, "duration": 55, "velocity": 100}, {"time": 21120, "pitch": 55, "duration": 55, "velocity": 100}, {"time": 21120, "pitch": 59, "duration": 110, "velocity": 100}, {"time": 21230, "pitch": 55, "duration": 55, "velocity": 100}, {"time": 21340, "pitch": 52, "duration": 220, "velocity": 100}, {"time": 21340, "pitch": 55, "duration": 220, "velocity": 100}, {"time": 21340, "pitch": 59, "duration": 220, "velocity": 100}, {"time": 21340, "pitch": 64, "duration": 220, "velocity": 100}, {"time": 21340, "pitch": 71, "duration": 165, "velocity": 100}, {"time": 21505, "pitch": 73, "duration": 55, "velocity": 100}, {"time": 21560, "pitch": 74, "duration": 220, "velocity": 100}, {"time": 21725, "pitch": 62, "duration": 55, "velocity": 100}, {"time": 21780, "pitch": 62, "duration": 110, "velocity": 100}, {"time": 21780, "pitch": 66, "duration": 220, "velocity": 100}, {"time": 21780, "pitch": 73, "duration": 165, "velocity": 100}, {"time": 21945, "pitch": 62, "duration": 55, "velocity": 100}, {"time": 22000, "pitch": 73, "duration": 220, "velocity": 100}, {"time": 22165, "pitch": 57, "duration": 110, "velocity": 100}, {"time": 22220, "pitch": 71, "duration": 165, "velocity": 100}, {"time": 22330, "pitch": 61, "duration": 110, "velocity": 100}, {"time": 22385, "pitch": 57, "duration": 110, "velocity": 100}, {"time": 22440, "pitch": 71, "duration": 165, "velocity": 100}, {"time": 22605, "pitch": 59, "duration": 110, "velocity": 100}, {"time": 22660, "pitch": 67, "duration": 220, "velocity": 100}, {"time": 22660, "pitch": 67, "duration": 220, "velocity": 100}, {"time": 22770, "pitch": 64, "duration": 110, "velocity": 100}, {"time": 22825, "pitch": 55, "duration": 55, "velocity": 100}, {"time": 22880, "pitch": 67, "duration": 165, "velocity": 100}, {"time": 22990, "pitch": 55, "duration": 55, "velocity": 100}, {"time": 23045, "pitch": 59, "duration": 55, "velocity": 100}, {"time": 23100, "pitch": 71, "duration": 165, "velocity": 100}, {"time": 23210, "pitch": 55, "duration": 110, "velocity": 100}, {"time": 23265, "pitch": 57, "duration": 55, "velocity": 100}, {"time": 23320, "pitch": 74, "duration": 220, "velocity": 100}, {"time": 23485, "pitch": 50, "duration": 55, "velocity": 100}, {"time": 23540, "pitch": 54, "duration": 110, "velocity": 100}, {"time": 23705, "pitch": 54, "duration": 55, "velocity": 100}, {"time": 23760, "pitch": 69, "duration": 220, "velocity": 100}, {"time": 23925, "pitch": 52, "duration": 55, "velocity": 100}, {"time": 23980, "pitch": 61, "duration": 220, "velocity": 100}, {"time": 23980, "pitch": 71, "duration": 220, "velocity": 100}, {"time": 24145, "pitch": 57, "duration": 55, "velocity": 100}, {"time": 24145, "pitch": 61, "duration": 55, "velocity": 100}, {"time": 24200, "pitch": 73, "duration": 440, "velocity": 100}, {"time": 24365, "pitch": 57, "duration": 110, "velocity": 100}, {"time": 24420, "pitch": 64, "duration": 110, "velocity": 100}, {"time": 24585, "pitch": 61, "duration": 55, "velocity": 100}, {"time": 24585, "pitch": 64, "duration": 55, "velocity": 100}, {"time": 24640, "pitch": 67, "duration": 165, "velocity": 100}, {"time": 24805, "pitch": 59, "duration": 55, "velocity": 100}, {"time": 24805, "pitch": 67, "duration": 55, "velocity": 100}, {"time": 24805, "pitch": 69, "duration": 55, "velocity": 100}, {"time": 24860, "pitch": 59, "duration": 55, "velocity": 100}, {"time": 24860, "pitch": 62, "duration": 110, "velocity": 100}, {"time": 24860, "pitch": 67, "duration": 220, "velocity": 100}, {"time": 24860, "pitch": 71, "duration": 165, "velocity": 100}, {"time": 25025, "pitch": 62, "duration": 55, "velocity": 100}, {"time": 25080, "pitch": 74, "duration": 220, "velocity": 100}, {"time": 25245, "pitch": 59, "duration": 110, "velocity": 100}, {"time": 25300, "pitch": 73, "duration": 165, "velocity": 100}, {"time": 25410, "pitch": 62, "duration": 55, "velocity": 100}, {"time": 25465, "pitch": 59, "duration": 55, "velocity": 100}, {"time": 25465, "pitch": 71, "duration": 55, "velocity": 100}, {"time": 25520, "pitch": 73, "duration": 220, "velocity": 100}, {"time": 25685, "pitch": 57, "duration": 110, "velocity": 100}, {"time": 25740, "pitch": 71, "duration": 165, "velocity": 100}, {"time": 25850, "pitch": 61, "duration": 110, "velocity": 100}, {"time": 25905, "pitch": 57, "duration": 55, "velocity": 100}, {"time": 25960, "pitch": 71, "duration": 165, "velocity": 100}, {"time": 26125, "pitch": 59, "duration": 110, "velocity": 100}, {"time": 26180, "pitch": 67, "duration": 165, "velocity": 100}, {"time": 26180, "pitch": 67, "duration": 220, "velocity": 100}, {"time": 26290, "pitch": 64, "duration": 55, "velocity": 100}, {"time": 26345, "pitch": 59, "duration": 55, "velocity": 100}, {"time": 26400, "pitch": 67, "duration": 165, "velocity": 100}, {"time": 26565, "pitch": 55, "duration": 110, "velocity": 100}, {"time": 26620, "pitch": 62, "duration": 220, "velocity": 100}, {"time": 26620, "pitch": 71, "duration": 165, "velocity": 100}, {"time": 26730, "pitch": 59, "duration": 110, "velocity": 100}, {"time": 26785, "pitch": 55, "duration": 55, "velocity": 100}, {"time": 26785, "pitch": 73, "duration": 55, "velocity": 100}, {"time": 26840, "pitch": 74, "duration": 165, "velocity": 100}, {"time": 27005, "pitch": 57, "duration": 55, "velocity": 100}, {"time": 27060, "pitch": 61, "duration": 110, "velocity": 100}, {"time": 27060, "pitch": 64, "duration": 220, "velocity": 100}, {"time": 27060, "pitch": 69, "duration": 165, "velocity": 100}, {"time": 27170, "pitch": 57, "duration": 110, "velocity": 100}, {"time": 27225, "pitch": 61, "duration": 55, "velocity": 100}, {"time": 27225, "pitch": 64, "duration": 55, "velocity": 100}, {"time": 27225, "pitch": 71, "duration": 55, "velocity": 100}, {"time": 27280, "pitch": 73, "duration": 220, "velocity": 100}, {"time": 27445, "pitch": 59, "duration": 55, "velocity": 100}, {"time": 27500, "pitch": 59, "duration": 110, "velocity": 100}, {"time": 27500, "pitch": 64, "duration": 110, "velocity": 100}, {"time": 27500, "pitch": 71, "duration": 220, "velocity": 100}, {"time": 27665, "pitch": 64, "duration": 55, "velocity": 100}, {"time": 27720, "pitch": 71, "duration": 440, "velocity": 100}, {"time": 27885, "pitch": 59, "duration": 165, "velocity": 100}, {"time": 28050, "pitch": 64, "duration": 55, "velocity": 100}, {"time": 28105, "pitch": 59, "duration": 55, "velocity": 100}]}, {"program": 70, "is_drum": false, "name": "Tenor", "notes": [{"time": 0, "pitch": 64, "duration": 220, "velocity": 100}, {"time": 165, "pitch": 55, "duration": 110, "velocity": 100}, {"time": 330, "pitch": 59, "duration": 110, "velocity": 100}, {"time": 605, "pitch": 47, "duration": 165, "velocity": 100}, {"time": 770, "pitch": 52, "duration": 110, "velocity": 100}, {"time": 990, "pitch": 50, "duration": 110, "velocity": 100}, {"time": 1210, "pitch": 54, "duration": 55, "velocity": 100}, {"time": 1430, "pitch": 54, "duration": 110, "velocity": 100}, {"time": 1650, "pitch": 54, "duration": 110, "velocity": 100}, {"time": 1870, "pitch": 48, "duration": 110, "velocity": 100}, {"time": 2145, "pitch": 55, "duration": 55, "velocity": 100}, {"time": 2310, "pitch": 48, "duration": 165, "velocity": 100}, {"time": 2365, "pitch": 52, "duration": 110, "velocity": 100}, {"time": 2530, "pitch": 52, "duration": 110, "velocity": 100}, {"time": 2805, "pitch": 50, "duration": 110, "velocity": 100}, {"time": 2970, "pitch": 54, "duration": 275, "velocity": 100}, {"time": 3190, "pitch": 47, "duration": 110, "velocity": 100}, {"time": 3245, "pitch": 50, "duration": 110, "velocity": 100}, {"time": 3410, "pitch": 54, "duration": 110, "velocity": 100}, {"time": 3685, "pitch": 55, "duration": 110, "velocity": 100}, {"time": 3850, "pitch": 59, "duration": 110, "velocity": 100}, {"time": 4125, "pitch": 47, "duration": 165, "velocity": 100}, {"time": 4290, "pitch": 52, "duration": 110, "velocity": 100}, {"time": 4565, "pitch": 52, "duration": 55, "velocity": 100}, {"time": 4950, "pitch": 57, "duration": 110, "velocity": 100}, {"time": 5610, "pitch": 60, "duration": 110, "velocity": 100}, {"time": 5830, "pitch": 48, "duration": 165, "velocity": 100}, {"time": 5885, "pitch": 53, "duration": 110, "velocity": 100}, {"time": 6050, "pitch": 53, "duration": 110, "velocity": 100}, {"time": 6270, "pitch": 47, "duration": 110, "velocity": 100}, {"time": 6490, "pitch": 54, "duration": 275, "velocity": 100}, {"time": 6710, "pitch": 47, "duration": 110, "velocity": 100}, {"time": 6765, "pitch": 51, "duration": 110, "velocity": 100}, {"time": 6930, "pitch": 54, "duration": 110, "velocity": 100}, {"time": 7040, "pitch": 47, "duration": 385, "velocity": 100}, {"time": 7700, "pitch": 55, "duration": 220, "velocity": 100}, {"time": 8140, "pitch": 50, "duration": 55, "velocity": 100}, {"time": 8360, "pitch": 69, "duration": 165, "velocity": 100}, {"time": 8525, "pitch": 67, "duration": 55, "velocity": 100}, {"time": 8690, "pitch": 54, "duration": 110, "velocity": 100}, {"time": 8690, "pitch": 57, "duration": 110, "velocity": 100}, {"time": 9130, "pitch": 60, "duration": 110, "velocity": 100}, {"time": 9350, "pitch": 48, "duration": 275, "velocity": 100}, {"time": 9460, "pitch": 52, "duration": 110, "velocity": 100}, {"time": 9680, "pitch": 69, "duration": 220, "velocity": 100}, {"time": 9900, "pitch": 54, "duration": 220, "velocity": 100}, {"time": 10010, "pitch": 54, "duration": 110, "velocity": 100}, {"time": 10340, "pitch": 47, "duration": 220, "velocity": 100}, {"time": 10670, "pitch": 64, "duration": 220, "velocity": 100}, {"time": 10780, "pitch": 59, "duration": 110, "velocity": 100}, {"time": 10835, "pitch": 55, "duration": 55, "velocity": 100}, {"time": 10890, "pitch": 57, "duration": 110, "velocity": 100}, {"time": 11000, "pitch": 52, "duration": 220, "velocity": 100}, {"time": 11220, "pitch": 52, "duration": 110, "velocity": 100}, {"time": 11440, "pitch": 69, "duration": 220, "velocity": 100}, {"time": 11660, "pitch": 52, "duration": 55, "velocity": 100}, {"time": 11825, "pitch": 71, "duration": 55, "velocity": 100}, {"time": 11880, "pitch": 69, "duration": 165, "velocity": 100}, {"time": 12045, "pitch": 67, "duration": 55, "velocity": 100}, {"time": 12100, "pitch": 61, "duration": 220, "velocity": 100}, {"time": 12210, "pitch": 57, "duration": 110, "velocity": 100}, {"time": 12320, "pitch": 64, "duration": 165, "velocity": 100}, {"time": 12430, "pitch": 43, "duration": 165, "velocity": 100}, {"time": 12540, "pitch": 48, "duration": 220, "velocity": 100}, {"time": 12540, "pitch": 52, "duration": 165, "velocity": 100}, {"time": 12705, "pitch": 71, "duration": 55, "velocity": 100}, {"time": 12760, "pitch": 69, "duration": 220, "velocity": 100}, {"time": 12870, "pitch": 53, "duration": 330, "velocity": 100}, {"time": 12980, "pitch": 57, "duration": 55, "velocity": 100}, {"time": 13200, "pitch": 59, "duration": 55, "velocity": 100}, {"time": 13310, "pitch": 51, "duration": 110, "velocity": 100}, {"time": 13310, "pitch": 59, "duration": 110, "velocity": 100}, {"time": 13420, "pitch": 54, "duration": 55, "velocity": 100}, {"time": 13530, "pitch": 54, "duration": 275, "velocity": 100}, {"time": 13585, "pitch": 57, "duration": 55, "velocity": 100}, {"time": 13640, "pitch": 67, "duration": 440, "velocity": 100}, {"time": 13860, "pitch": 47, "duration": 110, "velocity": 100}, {"time": 14080, "pitch": 59, "duration": 110, "velocity": 100}, {"time": 14190, "pitch": 52, "duration": 110, "velocity": 100}, {"time": 14410, "pitch": 64, "duration": 110, "velocity": 100}, {"time": 14630, "pitch": 54, "duration": 110, "velocity": 100}, {"time": 15070, "pitch": 45, "duration": 220, "velocity": 100}, {"time": 15290, "pitch": 57, "duration": 110, "velocity": 100}, {"time": 15455, "pitch": 47, "duration": 275, "velocity": 100}, {"time": 15510, "pitch": 52, "duration": 110, "velocity": 100}, {"time": 15730, "pitch": 55, "duration": 55, "velocity": 100}, {"time": 16335, "pitch": 47, "duration": 385, "velocity": 100}, {"time": 16390, "pitch": 50, "duration": 110, "velocity": 100}, {"time": 16775, "pitch": 45, "duration": 385, "velocity": 100}, {"time": 16830, "pitch": 52, "duration": 110, "velocity": 100}, {"time": 17050, "pitch": 57, "duration": 110, "velocity": 100}, {"time": 17215, "pitch": 45, "duration": 385, "velocity": 100}, {"time": 17270, "pitch": 49, "duration": 110, "velocity": 100}, {"time": 17600, "pitch": 38, "duration": 385, "velocity": 100}, {"time": 17655, "pitch": 43, "duration": 275, "velocity": 100}, {"time": 18095, "pitch": 50, "duration": 275, "velocity": 100}, {"time": 18315, "pitch": 55, "duration": 55, "velocity": 100}, {"time": 18590, "pitch": 45, "duration": 110, "velocity": 100}, {"time": 18920, "pitch": 40, "duration": 385, "velocity": 100}, {"time": 18975, "pitch": 47, "duration": 275, "velocity": 100}, {"time": 19195, "pitch": 52, "duration": 55, "velocity": 100}, {"time": 19250, "pitch": 55, "duration": 55, "velocity": 100}, {"time": 19360, "pitch": 43, "duration": 165, "velocity": 100}, {"time": 19415, "pitch": 50, "duration": 55, "velocity": 100}, {"time": 19855, "pitch": 49, "duration": 385, "velocity": 100}, {"time": 19910, "pitch": 52, "duration": 110, "velocity": 100}, {"time": 20295, "pitch": 47, "duration": 275, "velocity": 100}, {"time": 20350, "pitch": 52, "duration": 110, "velocity": 100}, {"time": 20515, "pitch": 52, "duration": 165, "velocity": 100}, {"time": 20570, "pitch": 55, "duration": 110, "velocity": 100}, {"time": 20735, "pitch": 47, "duration": 385, "velocity": 100}, {"time": 20955, "pitch": 47, "duration": 165, "velocity": 100}, {"time": 21120, "pitch": 47, "duration": 110, "velocity": 100}, {"time": 21175, "pitch": 52, "duration": 55, "velocity": 100}, {"time": 21175, "pitch": 55, "duration": 55, "velocity": 100}, {"time": 21340, "pitch": 47, "duration": 220, "velocity": 100}, {"time": 21670, "pitch": 50, "duration": 110, "velocity": 100}, {"time": 21890, "pitch": 57, "duration": 110, "velocity": 100}, {"time": 22110, "pitch": 45, "duration": 110, "velocity": 100}, {"time": 22495, "pitch": 47, "duration": 275, "velocity": 100}, {"time": 22550, "pitch": 52, "duration": 110, "velocity": 100}, {"time": 22935, "pitch": 52, "duration": 55, "velocity": 100}, {"time": 23155, "pitch": 52, "duration": 55, "velocity": 100}, {"time": 23430, "pitch": 47, "duration": 110, "velocity": 100}, {"time": 23595, "pitch": 47, "duration": 55, "velocity": 100}, {"time": 23650, "pitch": 54, "duration": 55, "velocity": 100}, {"time": 23870, "pitch": 45, "duration": 110, "velocity": 100}, {"time": 24090, "pitch": 52, "duration": 110, "velocity": 100}, {"time": 24255, "pitch": 40, "duration": 385, "velocity": 100}, {"time": 24310, "pitch": 45, "duration": 110, "velocity": 100}, {"time": 24530, "pitch": 52, "duration": 110, "velocity": 100}, {"time": 24750, "pitch": 43, "duration": 110, "velocity": 100}, {"time": 24970, "pitch": 59, "duration": 110, "velocity": 100}, {"time": 25190, "pitch": 50, "duration": 110, "velocity": 100}, {"time": 25630, "pitch": 45, "duration": 110, "velocity": 100}, {"time": 26015, "pitch": 47, "duration": 275, "velocity": 100}, {"time": 26070, "pitch": 52, "duration": 165, "velocity": 100}, {"time": 26455, "pitch": 38, "duration": 275, "velocity": 100}, {"time": 26510, "pitch": 43, "duration": 110, "velocity": 100}, {"time": 26950, "pitch": 45, "duration": 110, "velocity": 100}, {"time": 27390, "pitch": 47, "duration": 110, "velocity": 100}, {"time": 27610, "pitch": 55, "duration": 110, "velocity": 100}, {"time": 27775, "pitch": 43, "duration": 385, "velocity": 100}, {"time": 27830, "pitch": 52, "duration": 220, "velocity": 100}, {"time": 27995, "pitch": 52, "duration": 55, "velocity": 100}]}, {"program": 71, "is_drum": false, "name": "Bass", "notes": [{"time": 0, "pitch": 40, "duration": 330, "velocity": 100}, {"time": 55, "pitch": 47, "duration": 165, "velocity": 100}, {"time": 110, "pitch": 52, "duration": 110, "velocity": 100}, {"time": 275, "pitch": 52, "duration": 55, "velocity": 100}, {"time": 385, "pitch": 55, "duration": 55, "velocity": 100}, {"time": 440, "pitch": 40, "duration": 220, "velocity": 100}, {"time": 495, "pitch": 40, "duration": 275, "velocity": 100}, {"time": 550, "pitch": 40, "duration": 220, "velocity": 100}, {"time": 715, "pitch": 47, "duration": 55, "velocity": 100}, {"time": 825, "pitch": 47, "duration": 55, "velocity": 100}, {"time": 880, "pitch": 38, "duration": 385, "velocity": 100}, {"time": 935, "pitch": 45, "duration": 385, "velocity": 100}, {"time": 1155, "pitch": 50, "duration": 55, "velocity": 100}, {"time": 1320, "pitch": 42, "duration": 165, "velocity": 100}, {"time": 1375, "pitch": 50, "duration": 55, "velocity": 100}, {"time": 1540, "pitch": 42, "duration": 220, "velocity": 100}, {"time": 1760, "pitch": 36, "duration": 385, "velocity": 100}, {"time": 1815, "pitch": 43, "duration": 275, "velocity": 100}, {"time": 2035, "pitch": 48, "duration": 55, "velocity": 100}, {"time": 2200, "pitch": 36, "duration": 385, "velocity": 100}, {"time": 2255, "pitch": 43, "duration": 165, "velocity": 100}, {"time": 2475, "pitch": 48, "duration": 55, "velocity": 100}, {"time": 2585, "pitch": 48, "duration": 55, "velocity": 100}, {"time": 2640, "pitch": 35, "duration": 385, "velocity": 100}, {"time": 2695, "pitch": 42, "duration": 385, "velocity": 100}, {"time": 2750, "pitch": 47, "duration": 110, "velocity": 100}, {"time": 2915, "pitch": 47, "duration": 220, "velocity": 100}, {"time": 3025, "pitch": 50, "duration": 165, "velocity": 100}, {"time": 3080, "pitch": 35, "duration": 385, "velocity": 100}, {"time": 3135, "pitch": 42, "duration": 275, "velocity": 100}, {"time": 3355, "pitch": 47, "duration": 110, "velocity": 100}, {"time": 3465, "pitch": 50, "duration": 55, "velocity": 100}, {"time": 3520, "pitch": 40, "duration": 330, "velocity": 100}, {"time": 3575, "pitch": 47, "duration": 165, "velocity": 100}, {"time": 3630, "pitch": 52, "duration": 110, "velocity": 100}, {"time": 3795, "pitch": 52, "duration": 55, "velocity": 100}, {"time": 3905, "pitch": 55, "duration": 55, "velocity": 100}, {"time": 3960, "pitch": 40, "duration": 220, "velocity": 100}, {"time": 4015, "pitch": 40, "duration": 275, "velocity": 100}, {"time": 4070, "pitch": 40, "duration": 220, "velocity": 100}, {"time": 4235, "pitch": 47, "duration": 55, "velocity": 100}, {"time": 4345, "pitch": 47, "duration": 55, "velocity": 100}, {"time": 4400, "pitch": 33, "duration": 385, "velocity": 100}, {"time": 4455, "pitch": 45, "duration": 385, "velocity": 100}, {"time": 4510, "pitch": 49, "duration": 110, "velocity": 100}, {"time": 4675, "pitch": 52, "duration": 55, "velocity": 100}, {"time": 4730, "pitch": 52, "duration": 55, "velocity": 100}, {"time": 4840, "pitch": 45, "duration": 165, "velocity": 100}, {"time": 4895, "pitch": 52, "duration": 55, "velocity": 100}, {"time": 5060, "pitch": 40, "duration": 220, "velocity": 100}, {"time": 5170, "pitch": 52, "duration": 110, "velocity": 100}, {"time": 5280, "pitch": 36, "duration": 385, "velocity": 100}, {"time": 5335, "pitch": 43, "duration": 275, "velocity": 100}, {"time": 5390, "pitch": 48, "duration": 110, "velocity": 100}, {"time": 5555, "pitch": 48, "duration": 55, "velocity": 100}, {"time": 5665, "pitch": 55, "duration": 55, "velocity": 100}, {"time": 5720, "pitch": 41, "duration": 385, "velocity": 100}, {"time": 5775, "pitch": 45, "duration": 165, "velocity": 100}, {"time": 5995, "pitch": 48, "duration": 165, "velocity": 100}, {"time": 6105, "pitch": 48, "duration": 55, "velocity": 100}, {"time": 6160, "pitch": 35, "duration": 385, "velocity": 100}, {"time": 6215, "pitch": 42, "duration": 385, "velocity": 100}, {"time": 6435, "pitch": 47, "duration": 165, "velocity": 100}, {"time": 6545, "pitch": 51, "duration": 165, "velocity": 100}, {"time": 6600, "pitch": 35, "duration": 385, "velocity": 100}, {"time": 6655, "pitch": 42, "duration": 275, "velocity": 100}, {"time": 6875, "pitch": 47, "duration": 55, "velocity": 100}, {"time": 6985, "pitch": 51, "duration": 55, "velocity": 100}, {"time": 7040, "pitch": 35, "duration": 440, "velocity": 100}, {"time": 7480, "pitch": 40, "duration": 385, "velocity": 100}, {"time": 7590, "pitch": 47, "duration": 165, "velocity": 100}, {"time": 7810, "pitch": 55, "duration": 110, "velocity": 100}, {"time": 7920, "pitch": 38, "duration": 330, "velocity": 100}, {"time": 8030, "pitch": 45, "duration": 165, "velocity": 100}, {"time": 8250, "pitch": 54, "duration": 110, "velocity": 100}, {"time": 8360, "pitch": 38, "duration": 440, "velocity": 100}, {"time": 8470, "pitch": 45, "duration": 330, "velocity": 100}, {"time": 8580, "pitch": 50, "duration": 220, "velocity": 100}, {"time": 8910, "pitch": 48, "duration": 110, "velocity": 100}, {"time": 9075, "pitch": 48, "duration": 55, "velocity": 100}, {"time": 9185, "pitch": 55, "duration": 55, "velocity": 100}, {"time": 9240, "pitch": 36, "duration": 385, "velocity": 100}, {"time": 9570, "pitch": 55, "duration": 110, "velocity": 100}, {"time": 9680, "pitch": 35, "duration": 330, "velocity": 100}, {"time": 9790, "pitch": 45, "duration": 165, "velocity": 100}, {"time": 10120, "pitch": 35, "duration": 440, "velocity": 100}, {"time": 10230, "pitch": 42, "duration": 330, "velocity": 100}, {"time": 10670, "pitch": 47, "duration": 110, "velocity": 100}, {"time": 10835, "pitch": 40, "duration": 55, "velocity": 100}, {"time": 10890, "pitch": 52, "duration": 55, "velocity": 100}, {"time": 11000, "pitch": 40, "duration": 330, "velocity": 100}, {"time": 11110, "pitch": 47, "duration": 165, "velocity": 100}, {"time": 11330, "pitch": 55, "duration": 110, "velocity": 100}, {"time": 11440, "pitch": 33, "duration": 330, "velocity": 100}, {"time": 11550, "pitch": 45, "duration": 165, "velocity": 100}, {"time": 11770, "pitch": 52, "duration": 110, "velocity": 100}, {"time": 11880, "pitch": 33, "duration": 275, "velocity": 100}, {"time": 11990, "pitch": 40, "duration": 165, "velocity": 100}, {"time": 12100, "pitch": 49, "duration": 55, "velocity": 100}, {"time": 12320, "pitch": 36, "duration": 440, "velocity": 100}, {"time": 12650, "pitch": 43, "duration": 55, "velocity": 100}, {"time": 12760, "pitch": 41, "duration": 440, "velocity": 100}, {"time": 13090, "pitch": 57, "duration": 330, "velocity": 100}, {"time": 13200, "pitch": 42, "duration": 385, "velocity": 100}, {"time": 13365, "pitch": 57, "duration": 55, "velocity": 100}, {"time": 13475, "pitch": 51, "duration": 55, "velocity": 100}, {"time": 13640, "pitch": 35, "duration": 440, "velocity": 100}, {"time": 13750, "pitch": 42, "duration": 330, "velocity": 100}, {"time": 13970, "pitch": 47, "duration": 110, "velocity": 100}, {"time": 14355, "pitch": 52, "duration": 55, "velocity": 100}, {"time": 14520, "pitch": 42, "duration": 330, "velocity": 100}, {"time": 14575, "pitch": 50, "duration": 275, "velocity": 100}, {"time": 14960, "pitch": 33, "duration": 330, "velocity": 100}, {"time": 15015, "pitch": 45, "duration": 165, "velocity": 100}, {"time": 15235, "pitch": 49, "duration": 55, "velocity": 100}, {"time": 15345, "pitch": 52, "duration": 55, "velocity": 100}, {"time": 15400, "pitch": 40, "duration": 385, "velocity": 100}, {"time": 15675, "pitch": 52, "duration": 55, "velocity": 100}, {"time": 15840, "pitch": 47, "duration": 165, "velocity": 100}, {"time": 16280, "pitch": 35, "duration": 440, "velocity": 100}, {"time": 16720, "pitch": 33, "duration": 330, "velocity": 100}, {"time": 16995, "pitch": 49, "duration": 165, "velocity": 100}, {"time": 17160, "pitch": 33, "duration": 440, "velocity": 100}, {"time": 17875, "pitch": 50, "duration": 55, "velocity": 100}, {"time": 18040, "pitch": 43, "duration": 330, "velocity": 100}, {"time": 18480, "pitch": 33, "duration": 330, "velocity": 100}, {"time": 18535, "pitch": 40, "duration": 275, "velocity": 100}, {"time": 18755, "pitch": 49, "duration": 55, "velocity": 100}, {"time": 19580, "pitch": 43, "duration": 220, "velocity": 100}, {"time": 19800, "pitch": 45, "duration": 440, "velocity": 100}, {"time": 20075, "pitch": 52, "duration": 165, "velocity": 100}, {"time": 20240, "pitch": 40, "duration": 385, "velocity": 100}, {"time": 20680, "pitch": 40, "duration": 440, "velocity": 100}, {"time": 21340, "pitch": 40, "duration": 220, "velocity": 100}, {"time": 21560, "pitch": 38, "duration": 385, "velocity": 100}, {"time": 21615, "pitch": 45, "duration": 275, "velocity": 100}, {"time": 21835, "pitch": 50, "duration": 55, "velocity": 100}, {"time": 22000, "pitch": 33, "duration": 330, "velocity": 100}, {"time": 22055, "pitch": 40, "duration": 275, "velocity": 100}, {"time": 22275, "pitch": 45, "duration": 55, "velocity": 100}, {"time": 22440, "pitch": 40, "duration": 330, "velocity": 100}, {"time": 22715, "pitch": 47, "duration": 55, "velocity": 100}, {"time": 22880, "pitch": 43, "duration": 165, "velocity": 100}, {"time": 23100, "pitch": 40, "duration": 220, "velocity": 100}, {"time": 23320, "pitch": 35, "duration": 385, "velocity": 100}, {"time": 23375, "pitch": 42, "duration": 275, "velocity": 100}, {"time": 23760, "pitch": 33, "duration": 385, "velocity": 100}, {"time": 23815, "pitch": 40, "duration": 385, "velocity": 100}, {"time": 24035, "pitch": 45, "duration": 55, "velocity": 100}, {"time": 24200, "pitch": 33, "duration": 385, "velocity": 100}, {"time": 24475, "pitch": 45, "duration": 55, "velocity": 100}, {"time": 24640, "pitch": 31, "duration": 330, "velocity": 100}, {"time": 24695, "pitch": 38, "duration": 275, "velocity": 100}, {"time": 24915, "pitch": 43, "duration": 55, "velocity": 100}, {"time": 25080, "pitch": 43, "duration": 330, "velocity": 100}, {"time": 25135, "pitch": 47, "duration": 220, "velocity": 100}, {"time": 25355, "pitch": 50, "duration": 55, "velocity": 100}, {"time": 25520, "pitch": 33, "duration": 330, "velocity": 100}, {"time": 25575, "pitch": 40, "duration": 275, "velocity": 100}, {"time": 25795, "pitch": 45, "duration": 55, "velocity": 100}, {"time": 25960, "pitch": 40, "duration": 330, "velocity": 100}, {"time": 26235, "pitch": 52, "duration": 55, "velocity": 100}, {"time": 26400, "pitch": 31, "duration": 330, "velocity": 100}, {"time": 26675, "pitch": 43, "duration": 55, "velocity": 100}, {"time": 26840, "pitch": 33, "duration": 330, "velocity": 100}, {"time": 26895, "pitch": 40, "duration": 275, "velocity": 100}, {"time": 27115, "pitch": 45, "duration": 55, "velocity": 100}, {"time": 27280, "pitch": 40, "duration": 330, "velocity": 100}, {"time": 27335, "pitch": 40, "duration": 330, "velocity": 100}, {"time": 27555, "pitch": 40, "duration": 165, "velocity": 100}, {"time": 27720, "pitch": 40, "duration": 440, "velocity": 100}]}]}