{"metadata": {"schema_version": "0.1", "title": "None", "source_filename": "20211215_132826.mid", "source_format": "midi"}, "resolution": 220, "tempos": [{"time": 0, "qpm": 120.0}], "time_signatures": [{"time": 0, "numerator": 4, "denominator": 4}], "tracks": [{"program": 73, "is_drum": false, "name": "Soprano", "notes": [{"time": 660, "pitch": 72, "duration": 110, "velocity": 100}, {"time": 3520, "pitch": 63, "duration": 110, "velocity": 100}, {"time": 4620, "pitch": 80, "duration": 220, "velocity": 100}, {"time": 4840, "pitch": 75, "duration": 385, "velocity": 100}, {"time": 5500, "pitch": 73, "duration": 110, "velocity": 100}, {"time": 5830, "pitch": 72, "duration": 110, "velocity": 100}, {"time": 5940, "pitch": 72, "duration": 110, "velocity": 100}, {"time": 6050, "pitch": 68, "duration": 110, "velocity": 100}, {"time": 6435, "pitch": 89, "duration": 55, "velocity": 100}, {"time": 6545, "pitch": 87, "duration": 55, "velocity": 100}, {"time": 6545, "pitch": 89, "duration": 55, "velocity": 100}, {"time": 7480, "pitch": 63, "duration": 110, "velocity": 100}, {"time": 7700, "pitch": 72, "duration": 110, "velocity": 100}, {"time": 7920, "pitch": 68, "duration": 385, "velocity": 100}, {"time": 8360, "pitch": 63, "duration": 165, "velocity": 100}, {"time": 8360, "pitch": 72, "duration": 165, "velocity": 100}, {"time": 8800, "pitch": 68, "duration": 440, "velocity": 100}, {"time": 8800, "pitch": 75, "duration": 440, "velocity": 100}, {"time": 9240, "pitch": 63, "duration": 275, "velocity": 100}, {"time": 9240, "pitch": 68, "duration": 440, "velocity": 100}, {"time": 9240, "pitch": 70, "duration": 110, "velocity": 100}, {"time": 9350, "pitch": 72, "duration": 110, "velocity": 100}, {"time": 9680, "pitch": 63, "duration": 660, "velocity": 100}, {"time": 9680, "pitch": 67, "duration": 275, "velocity": 100}, {"time": 9680, "pitch": 70, "duration": 385, "velocity": 100}, {"time": 10010, "pitch": 63, "duration": 55, "velocity": 100}, {"time": 10120, "pitch": 67, "duration": 110, "velocity": 100}, {"time": 10120, "pitch": 70, "duration": 165, "velocity": 100}, {"time": 10285, "pitch": 75, "duration": 55, "velocity": 100}, {"time": 10340, "pitch": 79, "duration": 110, "velocity": 100}, {"time": 10560, "pitch": 75, "duration": 440, "velocity": 100}, {"time": 11220, "pitch": 75, "duration": 220, "velocity": 100}, {"time": 12320, "pitch": 68, "duration": 440, "velocity": 100}, {"time": 12760, "pitch": 70, "duration": 110, "velocity": 100}, {"time": 12980, "pitch": 72, "duration": 110, "velocity": 100}, {"time": 12980, "pitch": 74, "duration": 220, "velocity": 100}, {"time": 13200, "pitch": 63, "duration": 220, "velocity": 100}, {"time": 13200, "pitch": 75, "duration": 440, "velocity": 100}, {"time": 13420, "pitch": 70, "duration": 110, "velocity": 100}, {"time": 13640, "pitch": 60, "duration": 110, "velocity": 100}, {"time": 13805, "pitch": 68, "duration": 55, "velocity": 100}, {"time": 13860, "pitch": 68, "duration": 55, "velocity": 100}, {"time": 13915, "pitch": 70, "duration": 55, "velocity": 100}, {"time": 13970, "pitch": 73, "duration": 55, "velocity": 100}, {"time": 14025, "pitch": 73, "duration": 55, "velocity": 100}, {"time": 14080, "pitch": 72, "duration": 220, "velocity": 100}, {"time": 14080, "pitch": 80, "duration": 440, "velocity": 100}, {"time": 14300, "pitch": 75, "duration": 220, "velocity": 100}, {"time": 14520, "pitch": 60, "duration": 110, "velocity": 100}, {"time": 14520, "pitch": 75, "duration": 220, "velocity": 100}, {"time": 14740, "pitch": 60, "duration": 55, "velocity": 100}, {"time": 14740, "pitch": 63, "duration": 55, "velocity": 100}, {"time": 14740, "pitch": 72, "duration": 110, "velocity": 100}, {"time": 14850, "pitch": 75, "duration": 990, "velocity": 100}, {"time": 14960, "pitch": 80, "duration": 660, "velocity": 100}, {"time": 15620, "pitch": 68, "duration": 55, "velocity": 100}, {"time": 15620, "pitch": 72, "duration": 55, "velocity": 100}, {"time": 15675, "pitch": 75, "duration": 55, "velocity": 100}, {"time": 15730, "pitch": 75, "duration": 55, "velocity": 100}, {"time": 15785, "pitch": 79, "duration": 55, "velocity": 100}, {"time": 15840, "pitch": 72, "duration": 330, "velocity": 100}, {"time": 15840, "pitch": 77, "duration": 440, "velocity": 100}, {"time": 16280, "pitch": 68, "duration": 110, "velocity": 100}, {"time": 16280, "pitch": 77, "duration": 440, "velocity": 100}, {"time": 16500, "pitch": 68, "duration": 110, "velocity": 100}, {"time": 16500, "pitch": 72, "duration": 220, "velocity": 100}, {"time": 16720, "pitch": 65, "duration": 110, "velocity": 100}, {"time": 16830, "pitch": 72, "duration": 55, "velocity": 100}, {"time": 16885, "pitch": 72, "duration": 55, "velocity": 100}, {"time": 16940, "pitch": 72, "duration": 55, "velocity": 100}, {"time": 17270, "pitch": 70, "duration": 55, "velocity": 100}, {"time": 17325, "pitch": 72, "duration": 55, "velocity": 100}, {"time": 17435, "pitch": 75, "duration": 55, "velocity": 100}, {"time": 17490, "pitch": 75, "duration": 55, "velocity": 100}, {"time": 17545, "pitch": 77, "duration": 55, "velocity": 100}, {"time": 17600, "pitch": 67, "duration": 330, "velocity": 100}, {"time": 17600, "pitch": 79, "duration": 440, "velocity": 100}, {"time": 17820, "pitch": 67, "duration": 55, "velocity": 100}, {"time": 18040, "pitch": 67, "duration": 165, "velocity": 100}, {"time": 18040, "pitch": 79, "duration": 385, "velocity": 100}, {"time": 18480, "pitch": 72, "duration": 880, "velocity": 100}, {"time": 18480, "pitch": 76, "duration": 440, "velocity": 100}, {"time": 18920, "pitch": 72, "duration": 440, "velocity": 100}, {"time": 18920, "pitch": 76, "duration": 330, "velocity": 100}, {"time": 19360, "pitch": 73, "duration": 330, "velocity": 100}, {"time": 20680, "pitch": 63, "duration": 110, "velocity": 100}, {"time": 21340, "pitch": 70, "duration": 110, "velocity": 100}, {"time": 21560, "pitch": 72, "duration": 330, "velocity": 100}, {"time": 21780, "pitch": 72, "duration": 110, "velocity": 100}, {"time": 22000, "pitch": 75, "duration": 330, "velocity": 100}, {"time": 22440, "pitch": 75, "duration": 440, "velocity": 100}, {"time": 22880, "pitch": 73, "duration": 330, "velocity": 100}, {"time": 22880, "pitch": 85, "duration": 55, "velocity": 100}, {"time": 23760, "pitch": 70, "duration": 330, "velocity": 100}, {"time": 25520, "pitch": 73, "duration": 880, "velocity": 100}, {"time": 27610, "pitch": 70, "duration": 110, "velocity": 100}, {"time": 27720, "pitch": 63, "duration": 440, "velocity": 100}, {"time": 44440, "pitch": 67, "duration": 440, "velocity": 100}, {"time": 45760, "pitch": 75, "duration": 110, "velocity": 100}, {"time": 47960, "pitch": 77, "duration": 220, "velocity": 100}, {"time": 48840, "pitch": 77, "duration": 220, "velocity": 100}, {"time": 55660, "pitch": 80, "duration": 220, "velocity": 100}, {"time": 55880, "pitch": 75, "duration": 385, "velocity": 100}, {"time": 58740, "pitch": 72, "duration": 110, "velocity": 100}, {"time": 62040, "pitch": 75, "duration": 110, "velocity": 100}, {"time": 64240, "pitch": 75, "duration": 440, "velocity": 100}, {"time": 65560, "pitch": 75, "duration": 220, "velocity": 100}, {"time": 66000, "pitch": 80, "duration": 660, "velocity": 100}]}, {"program": 68, "is_drum": false, "name": "Alto", "notes": [{"time": 0, "pitch": 63, "duration": 110, "velocity": 100}, {"time": 220, "pitch": 63, "duration": 330, "velocity": 100}, {"time": 660, "pitch": 60, "duration": 110, "velocity": 100}, {"time": 770, "pitch": 68, "duration": 770, "velocity": 100}, {"time": 880, "pitch": 63, "duration": 165, "velocity": 100}, {"time": 1155, "pitch": 63, "duration": 110, "velocity": 100}, {"time": 1540, "pitch": 63, "duration": 55, "velocity": 100}, {"time": 1595, "pitch": 63, "duration": 55, "velocity": 100}, {"time": 1650, "pitch": 63, "duration": 110, "velocity": 100}, {"time": 1650, "pitch": 68, "duration": 110, "velocity": 100}, {"time": 1705, "pitch": 65, "duration": 55, "velocity": 100}, {"time": 1760, "pitch": 68, "duration": 440, "velocity": 100}, {"time": 1870, "pitch": 68, "duration": 110, "velocity": 100}, {"time": 1980, "pitch": 68, "duration": 110, "velocity": 100}, {"time": 2090, "pitch": 68, "duration": 110, "velocity": 100}, {"time": 2200, "pitch": 70, "duration": 110, "velocity": 100}, {"time": 2310, "pitch": 72, "duration": 110, "velocity": 100}, {"time": 2530, "pitch": 68, "duration": 110, "velocity": 100}, {"time": 2640, "pitch": 61, "duration": 220, "velocity": 100}, {"time": 2640, "pitch": 63, "duration": 660, "velocity": 100}, {"time": 2915, "pitch": 63, "duration": 55, "velocity": 100}, {"time": 3080, "pitch": 61, "duration": 165, "velocity": 100}, {"time": 3520, "pitch": 60, "duration": 220, "velocity": 100}, {"time": 3740, "pitch": 63, "duration": 110, "velocity": 100}, {"time": 3960, "pitch": 63, "duration": 330, "velocity": 100}, {"time": 4180, "pitch": 75, "duration": 110, "velocity": 100}, {"time": 4290, "pitch": 72, "duration": 770, "velocity": 100}, {"time": 4400, "pitch": 80, "duration": 220, "velocity": 100}, {"time": 4620, "pitch": 60, "duration": 220, "velocity": 100}, {"time": 5115, "pitch": 63, "duration": 55, "velocity": 100}, {"time": 5280, "pitch": 65, "duration": 110, "velocity": 100}, {"time": 5390, "pitch": 73, "duration": 110, "velocity": 100}, {"time": 5500, "pitch": 65, "duration": 220, "velocity": 100}, {"time": 5500, "pitch": 68, "duration": 220, "velocity": 100}, {"time": 5610, "pitch": 73, "duration": 110, "velocity": 100}, {"time": 5830, "pitch": 62, "duration": 55, "velocity": 100}, {"time": 5885, "pitch": 65, "duration": 165, "velocity": 100}, {"time": 6050, "pitch": 62, "duration": 55, "velocity": 100}, {"time": 6160, "pitch": 63, "duration": 165, "velocity": 100}, {"time": 6160, "pitch": 63, "duration": 220, "velocity": 100}, {"time": 6380, "pitch": 72, "duration": 110, "velocity": 100}, {"time": 6435, "pitch": 63, "duration": 55, "velocity": 100}, {"time": 6490, "pitch": 70, "duration": 330, "velocity": 100}, {"time": 6600, "pitch": 63, "duration": 165, "velocity": 100}, {"time": 6600, "pitch": 67, "duration": 55, "velocity": 100}, {"time": 7040, "pitch": 63, "duration": 110, "velocity": 100}, {"time": 7040, "pitch": 68, "duration": 385, "velocity": 100}, {"time": 7260, "pitch": 60, "duration": 165, "velocity": 100}, {"time": 7480, "pitch": 60, "duration": 110, "velocity": 100}, {"time": 7480, "pitch": 63, "duration": 385, "velocity": 100}, {"time": 7480, "pitch": 68, "duration": 385, "velocity": 100}, {"time": 7810, "pitch": 68, "duration": 770, "velocity": 100}, {"time": 7920, "pitch": 63, "duration": 110, "velocity": 100}, {"time": 8140, "pitch": 60, "duration": 110, "velocity": 100}, {"time": 8360, "pitch": 60, "duration": 110, "velocity": 100}, {"time": 8525, "pitch": 77, "duration": 55, "velocity": 100}, {"time": 8580, "pitch": 77, "duration": 110, "velocity": 100}, {"time": 8690, "pitch": 77, "duration": 110, "velocity": 100}, {"time": 8800, "pitch": 56, "duration": 220, "velocity": 100}, {"time": 8800, "pitch": 60, "duration": 275, "velocity": 100}, {"time": 8800, "pitch": 63, "duration": 110, "velocity": 100}, {"time": 8910, "pitch": 68, "duration": 110, "velocity": 100}, {"time": 9020, "pitch": 68, "duration": 110, "velocity": 100}, {"time": 9240, "pitch": 60, "duration": 165, "velocity": 100}, {"time": 9570, "pitch": 68, "duration": 110, "velocity": 100}, {"time": 9680, "pitch": 61, "duration": 165, "velocity": 100}, {"time": 9955, "pitch": 58, "duration": 55, "velocity": 100}, {"time": 10120, "pitch": 55, "duration": 110, "velocity": 100}, {"time": 10780, "pitch": 72, "duration": 385, "velocity": 100}, {"time": 11000, "pitch": 75, "duration": 110, "velocity": 100}, {"time": 11110, "pitch": 75, "duration": 110, "velocity": 100}, {"time": 11220, "pitch": 75, "duration": 110, "velocity": 100}, {"time": 11330, "pitch": 72, "duration": 770, "velocity": 100}, {"time": 11440, "pitch": 77, "duration": 220, "velocity": 100}, {"time": 11660, "pitch": 77, "duration": 220, "velocity": 100}, {"time": 11880, "pitch": 75, "duration": 440, "velocity": 100}, {"time": 12100, "pitch": 56, "duration": 110, "velocity": 100}, {"time": 12100, "pitch": 60, "duration": 220, "velocity": 100}, {"time": 12210, "pitch": 60, "duration": 110, "velocity": 100}, {"time": 12320, "pitch": 65, "duration": 110, "velocity": 100}, {"time": 12540, "pitch": 73, "duration": 110, "velocity": 100}, {"time": 12650, "pitch": 73, "duration": 110, "velocity": 100}, {"time": 12760, "pitch": 62, "duration": 220, "velocity": 100}, {"time": 12870, "pitch": 72, "duration": 110, "velocity": 100}, {"time": 12980, "pitch": 50, "duration": 110, "velocity": 100}, {"time": 12980, "pitch": 53, "duration": 220, "velocity": 100}, {"time": 13090, "pitch": 68, "duration": 110, "velocity": 100}, {"time": 13200, "pitch": 55, "duration": 165, "velocity": 100}, {"time": 13420, "pitch": 55, "duration": 55, "velocity": 100}, {"time": 13530, "pitch": 68, "duration": 330, "velocity": 100}, {"time": 13585, "pitch": 55, "duration": 55, "velocity": 100}, {"time": 13585, "pitch": 58, "duration": 55, "velocity": 100}, {"time": 13640, "pitch": 56, "duration": 110, "velocity": 100}, {"time": 13640, "pitch": 63, "duration": 110, "velocity": 100}, {"time": 13750, "pitch": 63, "duration": 55, "velocity": 100}, {"time": 13805, "pitch": 51, "duration": 55, "velocity": 100}, {"time": 13860, "pitch": 56, "duration": 55, "velocity": 100}, {"time": 13860, "pitch": 60, "duration": 55, "velocity": 100}, {"time": 14080, "pitch": 56, "duration": 55, "velocity": 100}, {"time": 14080, "pitch": 60, "duration": 110, "velocity": 100}, {"time": 14300, "pitch": 63, "duration": 110, "velocity": 100}, {"time": 14410, "pitch": 60, "duration": 55, "velocity": 100}, {"time": 14520, "pitch": 56, "duration": 110, "velocity": 100}, {"time": 14740, "pitch": 56, "duration": 55, "velocity": 100}, {"time": 14795, "pitch": 51, "duration": 55, "velocity": 100}, {"time": 14960, "pitch": 60, "duration": 55, "velocity": 100}, {"time": 14960, "pitch": 63, "duration": 110, "velocity": 100}, {"time": 15070, "pitch": 60, "duration": 55, "velocity": 100}, {"time": 15125, "pitch": 63, "duration": 55, "velocity": 100}, {"time": 15180, "pitch": 60, "duration": 55, "velocity": 100}, {"time": 15180, "pitch": 63, "duration": 55, "velocity": 100}, {"time": 15180, "pitch": 68, "duration": 55, "velocity": 100}, {"time": 15400, "pitch": 60, "duration": 110, "velocity": 100}, {"time": 15400, "pitch": 63, "duration": 110, "velocity": 100}, {"time": 15565, "pitch": 60, "duration": 55, "velocity": 100}, {"time": 15620, "pitch": 60, "duration": 55, "velocity": 100}, {"time": 15620, "pitch": 63, "duration": 55, "velocity": 100}, {"time": 15730, "pitch": 60, "duration": 55, "velocity": 100}, {"time": 15840, "pitch": 65, "duration": 110, "velocity": 100}, {"time": 16060, "pitch": 60, "duration": 110, "velocity": 100}, {"time": 16060, "pitch": 65, "duration": 110, "velocity": 100}, {"time": 16170, "pitch": 68, "duration": 110, "velocity": 100}, {"time": 16280, "pitch": 60, "duration": 110, "velocity": 100}, {"time": 16280, "pitch": 65, "duration": 110, "velocity": 100}, {"time": 16280, "pitch": 70, "duration": 220, "velocity": 100}, {"time": 16500, "pitch": 60, "duration": 55, "velocity": 100}, {"time": 16500, "pitch": 65, "duration": 55, "velocity": 100}, {"time": 16720, "pitch": 61, "duration": 110, "velocity": 100}, {"time": 16720, "pitch": 65, "duration": 880, "velocity": 100}, {"time": 16830, "pitch": 56, "duration": 110, "velocity": 100}, {"time": 16940, "pitch": 61, "duration": 55, "velocity": 100}, {"time": 16940, "pitch": 65, "duration": 55, "velocity": 100}, {"time": 16995, "pitch": 68, "duration": 55, "velocity": 100}, {"time": 17050, "pitch": 68, "duration": 55, "velocity": 100}, {"time": 17105, "pitch": 61, "duration": 55, "velocity": 100}, {"time": 17160, "pitch": 65, "duration": 55, "velocity": 100}, {"time": 17215, "pitch": 68, "duration": 55, "velocity": 100}, {"time": 17325, "pitch": 56, "duration": 55, "velocity": 100}, {"time": 17325, "pitch": 61, "duration": 55, "velocity": 100}, {"time": 17380, "pitch": 72, "duration": 55, "velocity": 100}, {"time": 17435, "pitch": 58, "duration": 110, "velocity": 100}, {"time": 17435, "pitch": 61, "duration": 110, "velocity": 100}, {"time": 17435, "pitch": 65, "duration": 55, "velocity": 100}, {"time": 17600, "pitch": 63, "duration": 110, "velocity": 100}, {"time": 17820, "pitch": 63, "duration": 55, "velocity": 100}, {"time": 17930, "pitch": 68, "duration": 110, "velocity": 100}, {"time": 18040, "pitch": 58, "duration": 165, "velocity": 100}, {"time": 18040, "pitch": 63, "duration": 165, "velocity": 100}, {"time": 18040, "pitch": 70, "duration": 220, "velocity": 100}, {"time": 18260, "pitch": 63, "duration": 55, "velocity": 100}, {"time": 18260, "pitch": 63, "duration": 220, "velocity": 100}, {"time": 18260, "pitch": 67, "duration": 55, "velocity": 100}, {"time": 18480, "pitch": 55, "duration": 55, "velocity": 100}, {"time": 18480, "pitch": 60, "duration": 55, "velocity": 100}, {"time": 18480, "pitch": 64, "duration": 165, "velocity": 100}, {"time": 18480, "pitch": 79, "duration": 440, "velocity": 100}, {"time": 18920, "pitch": 60, "duration": 440, "velocity": 100}, {"time": 18920, "pitch": 64, "duration": 440, "velocity": 100}, {"time": 19360, "pitch": 61, "duration": 165, "velocity": 100}, {"time": 19360, "pitch": 65, "duration": 220, "velocity": 100}, {"time": 19360, "pitch": 73, "duration": 825, "velocity": 100}, {"time": 19360, "pitch": 77, "duration": 880, "velocity": 100}, {"time": 19580, "pitch": 61, "duration": 110, "velocity": 100}, {"time": 19580, "pitch": 65, "duration": 110, "velocity": 100}, {"time": 19690, "pitch": 72, "duration": 110, "velocity": 100}, {"time": 19800, "pitch": 70, "duration": 110, "velocity": 100}, {"time": 19910, "pitch": 72, "duration": 220, "velocity": 100}, {"time": 20020, "pitch": 65, "duration": 55, "velocity": 100}, {"time": 20130, "pitch": 68, "duration": 110, "velocity": 100}, {"time": 20240, "pitch": 58, "duration": 110, "velocity": 100}, {"time": 20240, "pitch": 63, "duration": 110, "velocity": 100}, {"time": 20240, "pitch": 63, "duration": 880, "velocity": 100}, {"time": 20460, "pitch": 58, "duration": 55, "velocity": 100}, {"time": 20680, "pitch": 51, "duration": 110, "velocity": 100}, {"time": 20680, "pitch": 55, "duration": 110, "velocity": 100}, {"time": 20845, "pitch": 51, "duration": 55, "velocity": 100}, {"time": 20845, "pitch": 58, "duration": 165, "velocity": 100}, {"time": 20845, "pitch": 63, "duration": 165, "velocity": 100}, {"time": 21010, "pitch": 55, "duration": 110, "velocity": 100}, {"time": 21010, "pitch": 70, "duration": 110, "velocity": 100}, {"time": 21120, "pitch": 72, "duration": 220, "velocity": 100}, {"time": 21175, "pitch": 56, "duration": 55, "velocity": 100}, {"time": 21175, "pitch": 70, "duration": 55, "velocity": 100}, {"time": 21340, "pitch": 60, "duration": 220, "velocity": 100}, {"time": 21340, "pitch": 75, "duration": 220, "velocity": 100}, {"time": 21395, "pitch": 70, "duration": 55, "velocity": 100}, {"time": 21450, "pitch": 68, "duration": 110, "velocity": 100}, {"time": 21560, "pitch": 60, "duration": 165, "velocity": 100}, {"time": 21560, "pitch": 75, "duration": 220, "velocity": 100}, {"time": 21780, "pitch": 56, "duration": 110, "velocity": 100}, {"time": 21780, "pitch": 60, "duration": 165, "velocity": 100}, {"time": 21890, "pitch": 70, "duration": 55, "velocity": 100}, {"time": 21890, "pitch": 75, "duration": 990, "velocity": 100}, {"time": 21945, "pitch": 72, "duration": 55, "velocity": 100}, {"time": 22000, "pitch": 56, "duration": 110, "velocity": 100}, {"time": 22000, "pitch": 60, "duration": 110, "velocity": 100}, {"time": 22220, "pitch": 56, "duration": 110, "velocity": 100}, {"time": 22220, "pitch": 60, "duration": 110, "velocity": 100}, {"time": 22330, "pitch": 56, "duration": 55, "velocity": 100}, {"time": 22330, "pitch": 75, "duration": 55, "velocity": 100}, {"time": 22385, "pitch": 75, "duration": 55, "velocity": 100}, {"time": 22440, "pitch": 60, "duration": 110, "velocity": 100}, {"time": 22660, "pitch": 63, "duration": 55, "velocity": 100}, {"time": 22770, "pitch": 56, "duration": 55, "velocity": 100}, {"time": 22825, "pitch": 75, "duration": 55, "velocity": 100}, {"time": 22880, "pitch": 58, "duration": 110, "velocity": 100}, {"time": 22935, "pitch": 82, "duration": 55, "velocity": 100}, {"time": 22990, "pitch": 82, "duration": 55, "velocity": 100}, {"time": 23045, "pitch": 82, "duration": 55, "velocity": 100}, {"time": 23100, "pitch": 80, "duration": 55, "velocity": 100}, {"time": 23155, "pitch": 77, "duration": 55, "velocity": 100}, {"time": 23210, "pitch": 72, "duration": 55, "velocity": 100}, {"time": 23210, "pitch": 72, "duration": 110, "velocity": 100}, {"time": 23210, "pitch": 77, "duration": 55, "velocity": 100}, {"time": 23265, "pitch": 68, "duration": 55, "velocity": 100}, {"time": 23265, "pitch": 77, "duration": 55, "velocity": 100}, {"time": 23320, "pitch": 61, "duration": 110, "velocity": 100}, {"time": 23320, "pitch": 70, "duration": 220, "velocity": 100}, {"time": 23320, "pitch": 70, "duration": 275, "velocity": 100}, {"time": 23320, "pitch": 73, "duration": 165, "velocity": 100}, {"time": 23485, "pitch": 56, "duration": 110, "velocity": 100}, {"time": 23540, "pitch": 68, "duration": 220, "velocity": 100}, {"time": 23595, "pitch": 68, "duration": 55, "velocity": 100}, {"time": 23650, "pitch": 56, "duration": 55, "velocity": 100}, {"time": 23650, "pitch": 68, "duration": 55, "velocity": 100}, {"time": 23705, "pitch": 68, "duration": 55, "velocity": 100}, {"time": 23760, "pitch": 61, "duration": 165, "velocity": 100}, {"time": 23760, "pitch": 77, "duration": 880, "velocity": 100}, {"time": 23980, "pitch": 61, "duration": 110, "velocity": 100}, {"time": 24090, "pitch": 70, "duration": 55, "velocity": 100}, {"time": 24145, "pitch": 70, "duration": 55, "velocity": 100}, {"time": 24200, "pitch": 61, "duration": 165, "velocity": 100}, {"time": 24200, "pitch": 68, "duration": 275, "velocity": 100}, {"time": 24200, "pitch": 73, "duration": 275, "velocity": 100}, {"time": 24475, "pitch": 61, "duration": 55, "velocity": 100}, {"time": 24530, "pitch": 65, "duration": 55, "velocity": 100}, {"time": 24640, "pitch": 58, "duration": 110, "velocity": 100}, {"time": 24640, "pitch": 65, "duration": 330, "velocity": 100}, {"time": 24640, "pitch": 70, "duration": 110, "velocity": 100}, {"time": 24640, "pitch": 82, "duration": 110, "velocity": 100}, {"time": 24750, "pitch": 77, "duration": 110, "velocity": 100}, {"time": 24860, "pitch": 65, "duration": 55, "velocity": 100}, {"time": 24860, "pitch": 80, "duration": 110, "velocity": 100}, {"time": 24970, "pitch": 67, "duration": 110, "velocity": 100}, {"time": 24970, "pitch": 82, "duration": 110, "velocity": 100}, {"time": 25080, "pitch": 61, "duration": 220, "velocity": 100}, {"time": 25080, "pitch": 68, "duration": 220, "velocity": 100}, {"time": 25080, "pitch": 73, "duration": 440, "velocity": 100}, {"time": 25245, "pitch": 61, "duration": 55, "velocity": 100}, {"time": 25300, "pitch": 65, "duration": 220, "velocity": 100}, {"time": 25355, "pitch": 61, "duration": 55, "velocity": 100}, {"time": 25465, "pitch": 53, "duration": 220, "velocity": 100}, {"time": 25520, "pitch": 65, "duration": 440, "velocity": 100}, {"time": 25740, "pitch": 53, "duration": 110, "velocity": 100}, {"time": 25795, "pitch": 58, "duration": 55, "velocity": 100}, {"time": 25850, "pitch": 53, "duration": 55, "velocity": 100}, {"time": 25905, "pitch": 58, "duration": 55, "velocity": 100}, {"time": 25960, "pitch": 70, "duration": 220, "velocity": 100}, {"time": 26070, "pitch": 53, "duration": 55, "velocity": 100}, {"time": 26125, "pitch": 58, "duration": 55, "velocity": 100}, {"time": 26180, "pitch": 68, "duration": 220, "velocity": 100}, {"time": 26290, "pitch": 49, "duration": 110, "velocity": 100}, {"time": 26345, "pitch": 58, "duration": 55, "velocity": 100}, {"time": 26400, "pitch": 62, "duration": 330, "velocity": 100}, {"time": 26400, "pitch": 70, "duration": 330, "velocity": 100}, {"time": 26620, "pitch": 50, "duration": 55, "velocity": 100}, {"time": 26620, "pitch": 53, "duration": 55, "velocity": 100}, {"time": 26620, "pitch": 58, "duration": 220, "velocity": 100}, {"time": 26730, "pitch": 70, "duration": 110, "velocity": 100}, {"time": 26730, "pitch": 79, "duration": 110, "velocity": 100}, {"time": 26840, "pitch": 70, "duration": 385, "velocity": 100}, {"time": 26840, "pitch": 72, "duration": 220, "velocity": 100}, {"time": 26840, "pitch": 74, "duration": 385, "velocity": 100}, {"time": 26840, "pitch": 77, "duration": 385, "velocity": 100}, {"time": 27060, "pitch": 58, "duration": 220, "velocity": 100}, {"time": 27060, "pitch": 74, "duration": 220, "velocity": 100}, {"time": 27280, "pitch": 70, "duration": 440, "velocity": 100}, {"time": 27280, "pitch": 75, "duration": 880, "velocity": 100}, {"time": 27500, "pitch": 58, "duration": 110, "velocity": 100}, {"time": 27720, "pitch": 55, "duration": 220, "velocity": 100}, {"time": 27720, "pitch": 67, "duration": 440, "velocity": 100}, {"time": 27720, "pitch": 70, "duration": 385, "velocity": 100}, {"time": 27940, "pitch": 58, "duration": 110, "velocity": 100}, {"time": 28105, "pitch": 55, "duration": 55, "velocity": 100}, {"time": 28105, "pitch": 58, "duration": 55, "velocity": 100}, {"time": 28160, "pitch": 56, "duration": 220, "velocity": 100}, {"time": 28160, "pitch": 60, "duration": 220, "velocity": 100}, {"time": 28160, "pitch": 63, "duration": 220, "velocity": 100}, {"time": 28160, "pitch": 63, "duration": 220, "velocity": 100}, {"time": 28270, "pitch": 73, "duration": 55, "velocity": 100}, {"time": 28325, "pitch": 60, "duration": 165, "velocity": 100}, {"time": 28380, "pitch": 63, "duration": 110, "velocity": 100}, {"time": 28380, "pitch": 68, "duration": 110, "velocity": 100}, {"time": 28380, "pitch": 68, "duration": 110, "velocity": 100}, {"time": 28380, "pitch": 75, "duration": 55, "velocity": 100}, {"time": 28435, "pitch": 75, "duration": 55, "velocity": 100}, {"time": 28490, "pitch": 68, "duration": 110, "velocity": 100}, {"time": 28490, "pitch": 75, "duration": 55, "velocity": 100}, {"time": 28545, "pitch": 63, "duration": 55, "velocity": 100}, {"time": 28545, "pitch": 80, "duration": 55, "velocity": 100}, {"time": 28600, "pitch": 60, "duration": 110, "velocity": 100}, {"time": 28600, "pitch": 63, "duration": 110, "velocity": 100}, {"time": 28600, "pitch": 70, "duration": 220, "velocity": 100}, {"time": 28600, "pitch": 84, "duration": 385, "velocity": 100}, {"time": 28765, "pitch": 60, "duration": 55, "velocity": 100}, {"time": 28820, "pitch": 60, "duration": 55, "velocity": 100}, {"time": 28820, "pitch": 68, "duration": 110, "velocity": 100}, {"time": 28820, "pitch": 72, "duration": 220, "velocity": 100}, {"time": 28930, "pitch": 63, "duration": 55, "velocity": 100}, {"time": 29040, "pitch": 56, "duration": 110, "velocity": 100}, {"time": 29040, "pitch": 61, "duration": 110, "velocity": 100}, {"time": 29040, "pitch": 65, "duration": 110, "velocity": 100}, {"time": 29040, "pitch": 73, "duration": 220, "velocity": 100}, {"time": 29260, "pitch": 61, "duration": 55, "velocity": 100}, {"time": 29260, "pitch": 68, "duration": 55, "velocity": 100}, {"time": 29260, "pitch": 72, "duration": 165, "velocity": 100}, {"time": 29425, "pitch": 72, "duration": 55, "velocity": 100}, {"time": 29480, "pitch": 61, "duration": 55, "velocity": 100}, {"time": 29480, "pitch": 65, "duration": 55, "velocity": 100}, {"time": 29480, "pitch": 70, "duration": 220, "velocity": 100}, {"time": 29480, "pitch": 77, "duration": 330, "velocity": 100}, {"time": 29645, "pitch": 65, "duration": 55, "velocity": 100}, {"time": 29700, "pitch": 65, "duration": 55, "velocity": 100}, {"time": 29700, "pitch": 65, "duration": 220, "velocity": 100}, {"time": 29700, "pitch": 68, "duration": 55, "velocity": 100}, {"time": 29920, "pitch": 63, "duration": 110, "velocity": 100}, {"time": 29920, "pitch": 63, "duration": 110, "velocity": 100}, {"time": 29920, "pitch": 68, "duration": 110, "velocity": 100}, {"time": 30030, "pitch": 68, "duration": 110, "velocity": 100}, {"time": 30085, "pitch": 63, "duration": 55, "velocity": 100}, {"time": 30140, "pitch": 63, "duration": 55, "velocity": 100}, {"time": 30140, "pitch": 68, "duration": 55, "velocity": 100}, {"time": 30140, "pitch": 68, "duration": 110, "velocity": 100}, {"time": 30140, "pitch": 72, "duration": 55, "velocity": 100}, {"time": 30140, "pitch": 80, "duration": 55, "velocity": 100}, {"time": 30195, "pitch": 82, "duration": 55, "velocity": 100}, {"time": 30250, "pitch": 63, "duration": 55, "velocity": 100}, {"time": 30250, "pitch": 68, "duration": 110, "velocity": 100}, {"time": 30250, "pitch": 77, "duration": 55, "velocity": 100}, {"time": 30305, "pitch": 82, "duration": 55, "velocity": 100}, {"time": 30360, "pitch": 67, "duration": 110, "velocity": 100}, {"time": 30360, "pitch": 68, "duration": 110, "velocity": 100}, {"time": 30360, "pitch": 80, "duration": 440, "velocity": 100}, {"time": 30470, "pitch": 68, "duration": 110, "velocity": 100}, {"time": 30580, "pitch": 63, "duration": 110, "velocity": 100}, {"time": 30580, "pitch": 68, "duration": 110, "velocity": 100}, {"time": 30580, "pitch": 70, "duration": 110, "velocity": 100}, {"time": 30690, "pitch": 70, "duration": 110, "velocity": 100}, {"time": 30800, "pitch": 63, "duration": 165, "velocity": 100}, {"time": 30800, "pitch": 68, "duration": 110, "velocity": 100}, {"time": 30800, "pitch": 68, "duration": 110, "velocity": 100}, {"time": 30800, "pitch": 72, "duration": 275, "velocity": 100}, {"time": 30800, "pitch": 80, "duration": 440, "velocity": 100}, {"time": 30910, "pitch": 68, "duration": 220, "velocity": 100}, {"time": 31020, "pitch": 63, "duration": 110, "velocity": 100}, {"time": 31020, "pitch": 68, "duration": 110, "velocity": 100}, {"time": 31020, "pitch": 72, "duration": 165, "velocity": 100}, {"time": 31130, "pitch": 70, "duration": 110, "velocity": 100}, {"time": 31240, "pitch": 60, "duration": 110, "velocity": 100}, {"time": 31240, "pitch": 63, "duration": 110, "velocity": 100}, {"time": 31240, "pitch": 72, "duration": 440, "velocity": 100}, {"time": 31240, "pitch": 75, "duration": 55, "velocity": 100}, {"time": 31295, "pitch": 75, "duration": 55, "velocity": 100}, {"time": 31350, "pitch": 72, "duration": 55, "velocity": 100}, {"time": 31405, "pitch": 75, "duration": 55, "velocity": 100}, {"time": 31460, "pitch": 68, "duration": 55, "velocity": 100}, {"time": 31515, "pitch": 75, "duration": 55, "velocity": 100}, {"time": 31570, "pitch": 72, "duration": 55, "velocity": 100}, {"time": 31625, "pitch": 63, "duration": 55, "velocity": 100}, {"time": 31680, "pitch": 61, "duration": 55, "velocity": 100}, {"time": 31680, "pitch": 65, "duration": 55, "velocity": 100}, {"time": 31680, "pitch": 65, "duration": 220, "velocity": 100}, {"time": 31735, "pitch": 70, "duration": 55, "velocity": 100}, {"time": 31790, "pitch": 70, "duration": 55, "velocity": 100}, {"time": 31845, "pitch": 58, "duration": 55, "velocity": 100}, {"time": 31845, "pitch": 61, "duration": 55, "velocity": 100}, {"time": 31845, "pitch": 65, "duration": 55, "velocity": 100}, {"time": 31845, "pitch": 73, "duration": 55, "velocity": 100}, {"time": 31900, "pitch": 70, "duration": 165, "velocity": 100}, {"time": 31900, "pitch": 77, "duration": 55, "velocity": 100}, {"time": 31955, "pitch": 61, "duration": 55, "velocity": 100}, {"time": 31955, "pitch": 65, "duration": 55, "velocity": 100}, {"time": 31955, "pitch": 73, "duration": 55, "velocity": 100}, {"time": 32010, "pitch": 77, "duration": 55, "velocity": 100}, {"time": 32065, "pitch": 58, "duration": 55, "velocity": 100}, {"time": 32065, "pitch": 70, "duration": 55, "velocity": 100}, {"time": 32065, "pitch": 77, "duration": 55, "velocity": 100}, {"time": 32120, "pitch": 61, "duration": 110, "velocity": 100}, {"time": 32120, "pitch": 65, "duration": 220, "velocity": 100}, {"time": 32120, "pitch": 72, "duration": 220, "velocity": 100}, {"time": 32120, "pitch": 82, "duration": 440, "velocity": 100}, {"time": 32340, "pitch": 61, "duration": 55, "velocity": 100}, {"time": 32340, "pitch": 65, "duration": 110, "velocity": 100}, {"time": 32340, "pitch": 73, "duration": 220, "velocity": 100}, {"time": 32560, "pitch": 61, "duration": 110, "velocity": 100}, {"time": 32560, "pitch": 65, "duration": 110, "velocity": 100}, {"time": 32560, "pitch": 70, "duration": 275, "velocity": 100}, {"time": 32560, "pitch": 77, "duration": 220, "velocity": 100}, {"time": 32560, "pitch": 82, "duration": 440, "velocity": 100}, {"time": 32780, "pitch": 61, "duration": 55, "velocity": 100}, {"time": 32780, "pitch": 70, "duration": 110, "velocity": 100}, {"time": 32780, "pitch": 73, "duration": 55, "velocity": 100}, {"time": 32780, "pitch": 75, "duration": 165, "velocity": 100}, {"time": 32945, "pitch": 77, "duration": 55, "velocity": 100}, {"time": 33000, "pitch": 58, "duration": 55, "velocity": 100}, {"time": 33000, "pitch": 61, "duration": 55, "velocity": 100}, {"time": 33000, "pitch": 65, "duration": 110, "velocity": 100}, {"time": 33000, "pitch": 70, "duration": 110, "velocity": 100}, {"time": 33000, "pitch": 73, "duration": 220, "velocity": 100}, {"time": 33000, "pitch": 82, "duration": 440, "velocity": 100}, {"time": 33000, "pitch": 85, "duration": 440, "velocity": 100}, {"time": 33220, "pitch": 65, "duration": 110, "velocity": 100}, {"time": 33220, "pitch": 70, "duration": 55, "velocity": 100}, {"time": 33220, "pitch": 72, "duration": 220, "velocity": 100}, {"time": 33440, "pitch": 65, "duration": 110, "velocity": 100}, {"time": 33440, "pitch": 65, "duration": 440, "velocity": 100}, {"time": 33440, "pitch": 70, "duration": 440, "velocity": 100}, {"time": 33440, "pitch": 73, "duration": 440, "velocity": 100}, {"time": 33440, "pitch": 77, "duration": 440, "velocity": 100}, {"time": 33550, "pitch": 70, "duration": 110, "velocity": 100}, {"time": 33660, "pitch": 70, "duration": 110, "velocity": 100}, {"time": 33770, "pitch": 70, "duration": 110, "velocity": 100}, {"time": 33880, "pitch": 65, "duration": 165, "velocity": 100}, {"time": 33880, "pitch": 68, "duration": 110, "velocity": 100}, {"time": 33880, "pitch": 70, "duration": 165, "velocity": 100}, {"time": 33880, "pitch": 73, "duration": 440, "velocity": 100}, {"time": 33880, "pitch": 77, "duration": 880, "velocity": 100}, {"time": 33990, "pitch": 72, "duration": 110, "velocity": 100}, {"time": 34100, "pitch": 65, "duration": 55, "velocity": 100}, {"time": 34100, "pitch": 68, "duration": 55, "velocity": 100}, {"time": 34100, "pitch": 72, "duration": 110, "velocity": 100}, {"time": 34210, "pitch": 72, "duration": 110, "velocity": 100}, {"time": 34320, "pitch": 65, "duration": 55, "velocity": 100}, {"time": 34320, "pitch": 70, "duration": 110, "velocity": 100}, {"time": 34430, "pitch": 70, "duration": 220, "velocity": 100}, {"time": 34540, "pitch": 65, "duration": 55, "velocity": 100}, {"time": 34540, "pitch": 70, "duration": 55, "velocity": 100}, {"time": 34650, "pitch": 72, "duration": 110, "velocity": 100}, {"time": 34760, "pitch": 61, "duration": 110, "velocity": 100}, {"time": 34760, "pitch": 65, "duration": 110, "velocity": 100}, {"time": 34760, "pitch": 73, "duration": 440, "velocity": 100}, {"time": 34980, "pitch": 58, "duration": 55, "velocity": 100}, {"time": 34980, "pitch": 61, "duration": 55, "velocity": 100}, {"time": 35200, "pitch": 56, "duration": 110, "velocity": 100}, {"time": 35200, "pitch": 61, "duration": 110, "velocity": 100}, {"time": 35200, "pitch": 65, "duration": 110, "velocity": 100}, {"time": 35200, "pitch": 68, "duration": 165, "velocity": 100}, {"time": 35200, "pitch": 68, "duration": 220, "velocity": 100}, {"time": 35365, "pitch": 63, "duration": 55, "velocity": 100}, {"time": 35365, "pitch": 68, "duration": 55, "velocity": 100}, {"time": 35420, "pitch": 73, "duration": 165, "velocity": 100}, {"time": 35530, "pitch": 73, "duration": 110, "velocity": 100}, {"time": 35585, "pitch": 73, "duration": 55, "velocity": 100}, {"time": 35640, "pitch": 75, "duration": 220, "velocity": 100}, {"time": 35695, "pitch": 68, "duration": 55, "velocity": 100}, {"time": 35860, "pitch": 56, "duration": 220, "velocity": 100}, {"time": 35860, "pitch": 65, "duration": 110, "velocity": 100}, {"time": 35860, "pitch": 77, "duration": 110, "velocity": 100}, {"time": 35860, "pitch": 77, "duration": 220, "velocity": 100}, {"time": 35970, "pitch": 68, "duration": 110, "velocity": 100}, {"time": 35970, "pitch": 80, "duration": 110, "velocity": 100}, {"time": 36080, "pitch": 61, "duration": 110, "velocity": 100}, {"time": 36080, "pitch": 65, "duration": 110, "velocity": 100}, {"time": 36080, "pitch": 77, "duration": 220, "velocity": 100}, {"time": 36080, "pitch": 80, "duration": 330, "velocity": 100}, {"time": 36300, "pitch": 65, "duration": 165, "velocity": 100}, {"time": 36300, "pitch": 68, "duration": 165, "velocity": 100}, {"time": 36300, "pitch": 75, "duration": 165, "velocity": 100}, {"time": 36410, "pitch": 77, "duration": 55, "velocity": 100}, {"time": 36410, "pitch": 82, "duration": 55, "velocity": 100}, {"time": 36465, "pitch": 77, "duration": 55, "velocity": 100}, {"time": 36465, "pitch": 80, "duration": 55, "velocity": 100}, {"time": 36520, "pitch": 68, "duration": 110, "velocity": 100}, {"time": 36520, "pitch": 73, "duration": 220, "velocity": 100}, {"time": 36520, "pitch": 80, "duration": 330, "velocity": 100}, {"time": 36685, "pitch": 65, "duration": 55, "velocity": 100}, {"time": 36740, "pitch": 65, "duration": 110, "velocity": 100}, {"time": 36740, "pitch": 68, "duration": 220, "velocity": 100}, {"time": 36850, "pitch": 77, "duration": 55, "velocity": 100}, {"time": 36905, "pitch": 80, "duration": 55, "velocity": 100}, {"time": 36960, "pitch": 65, "duration": 110, "velocity": 100}, {"time": 36960, "pitch": 68, "duration": 110, "velocity": 100}, {"time": 36960, "pitch": 68, "duration": 220, "velocity": 100}, {"time": 36960, "pitch": 85, "duration": 440, "velocity": 100}, {"time": 37180, "pitch": 68, "duration": 55, "velocity": 100}, {"time": 37180, "pitch": 73, "duration": 55, "velocity": 100}, {"time": 37180, "pitch": 73, "duration": 165, "velocity": 100}, {"time": 37345, "pitch": 73, "duration": 55, "velocity": 100}, {"time": 37345, "pitch": 85, "duration": 55, "velocity": 100}, {"time": 37400, "pitch": 65, "duration": 110, "velocity": 100}, {"time": 37400, "pitch": 75, "duration": 220, "velocity": 100}, {"time": 37400, "pitch": 89, "duration": 55, "velocity": 100}, {"time": 37565, "pitch": 87, "duration": 55, "velocity": 100}, {"time": 37620, "pitch": 68, "duration": 55, "velocity": 100}, {"time": 37620, "pitch": 77, "duration": 220, "velocity": 100}, {"time": 37620, "pitch": 85, "duration": 55, "velocity": 100}, {"time": 37675, "pitch": 68, "duration": 55, "velocity": 100}, {"time": 37675, "pitch": 82, "duration": 55, "velocity": 100}, {"time": 37730, "pitch": 80, "duration": 55, "velocity": 100}, {"time": 37730, "pitch": 85, "duration": 55, "velocity": 100}, {"time": 37785, "pitch": 77, "duration": 55, "velocity": 100}, {"time": 37785, "pitch": 85, "duration": 55, "velocity": 100}, {"time": 37840, "pitch": 68, "duration": 110, "velocity": 100}, {"time": 37840, "pitch": 77, "duration": 220, "velocity": 100}, {"time": 37840, "pitch": 80, "duration": 330, "velocity": 100}, {"time": 38005, "pitch": 61, "duration": 110, "velocity": 100}, {"time": 38060, "pitch": 75, "duration": 165, "velocity": 100}, {"time": 38115, "pitch": 73, "duration": 55, "velocity": 100}, {"time": 38170, "pitch": 75, "duration": 55, "velocity": 100}, {"time": 38225, "pitch": 77, "duration": 55, "velocity": 100}, {"time": 38225, "pitch": 77, "duration": 55, "velocity": 100}, {"time": 38280, "pitch": 68, "duration": 165, "velocity": 100}, {"time": 38280, "pitch": 73, "duration": 220, "velocity": 100}, {"time": 38280, "pitch": 77, "duration": 330, "velocity": 100}, {"time": 38500, "pitch": 68, "duration": 110, "velocity": 100}, {"time": 38500, "pitch": 68, "duration": 220, "velocity": 100}, {"time": 38610, "pitch": 75, "duration": 55, "velocity": 100}, {"time": 38665, "pitch": 77, "duration": 55, "velocity": 100}, {"time": 38720, "pitch": 73, "duration": 110, "velocity": 100}, {"time": 38720, "pitch": 77, "duration": 330, "velocity": 100}, {"time": 38720, "pitch": 89, "duration": 330, "velocity": 100}, {"time": 38885, "pitch": 68, "duration": 110, "velocity": 100}, {"time": 38940, "pitch": 68, "duration": 220, "velocity": 100}, {"time": 38995, "pitch": 68, "duration": 55, "velocity": 100}, {"time": 39050, "pitch": 73, "duration": 55, "velocity": 100}, {"time": 39160, "pitch": 61, "duration": 55, "velocity": 100}, {"time": 39160, "pitch": 68, "duration": 110, "velocity": 100}, {"time": 39160, "pitch": 77, "duration": 110, "velocity": 100}, {"time": 39160, "pitch": 77, "duration": 330, "velocity": 100}, {"time": 39160, "pitch": 92, "duration": 110, "velocity": 100}, {"time": 39270, "pitch": 73, "duration": 110, "velocity": 100}, {"time": 39270, "pitch": 87, "duration": 110, "velocity": 100}, {"time": 39380, "pitch": 73, "duration": 55, "velocity": 100}, {"time": 39380, "pitch": 85, "duration": 220, "velocity": 100}, {"time": 39380, "pitch": 92, "duration": 110, "velocity": 100}, {"time": 39490, "pitch": 68, "duration": 110, "velocity": 100}, {"time": 39490, "pitch": 89, "duration": 110, "velocity": 100}, {"time": 39600, "pitch": 68, "duration": 110, "velocity": 100}, {"time": 39600, "pitch": 73, "duration": 440, "velocity": 100}, {"time": 39600, "pitch": 77, "duration": 880, "velocity": 100}, {"time": 39600, "pitch": 89, "duration": 440, "velocity": 100}, {"time": 39875, "pitch": 65, "duration": 55, "velocity": 100}, {"time": 40040, "pitch": 73, "duration": 385, "velocity": 100}, {"time": 40205, "pitch": 56, "duration": 110, "velocity": 100}, {"time": 40260, "pitch": 61, "duration": 220, "velocity": 100}, {"time": 40315, "pitch": 65, "duration": 55, "velocity": 100}, {"time": 40425, "pitch": 61, "duration": 55, "velocity": 100}, {"time": 40480, "pitch": 77, "duration": 220, "velocity": 100}, {"time": 40535, "pitch": 56, "duration": 55, "velocity": 100}, {"time": 40590, "pitch": 61, "duration": 55, "velocity": 100}, {"time": 40645, "pitch": 65, "duration": 55, "velocity": 100}, {"time": 40700, "pitch": 68, "duration": 220, "velocity": 100}, {"time": 40700, "pitch": 73, "duration": 220, "velocity": 100}, {"time": 40810, "pitch": 61, "duration": 110, "velocity": 100}, {"time": 40865, "pitch": 65, "duration": 55, "velocity": 100}, {"time": 40920, "pitch": 73, "duration": 330, "velocity": 100}, {"time": 40920, "pitch": 77, "duration": 330, "velocity": 100}, {"time": 41140, "pitch": 59, "duration": 55, "velocity": 100}, {"time": 41140, "pitch": 61, "duration": 220, "velocity": 100}, {"time": 41140, "pitch": 65, "duration": 165, "velocity": 100}, {"time": 41250, "pitch": 68, "duration": 110, "velocity": 100}, {"time": 41250, "pitch": 85, "duration": 110, "velocity": 100}, {"time": 41360, "pitch": 77, "duration": 385, "velocity": 100}, {"time": 41360, "pitch": 77, "duration": 880, "velocity": 100}, {"time": 41360, "pitch": 80, "duration": 440, "velocity": 100}, {"time": 41360, "pitch": 85, "duration": 440, "velocity": 100}, {"time": 41580, "pitch": 65, "duration": 110, "velocity": 100}, {"time": 41745, "pitch": 65, "duration": 55, "velocity": 100}, {"time": 41800, "pitch": 68, "duration": 220, "velocity": 100}, {"time": 41800, "pitch": 80, "duration": 330, "velocity": 100}, {"time": 42020, "pitch": 59, "duration": 110, "velocity": 100}, {"time": 42020, "pitch": 65, "duration": 110, "velocity": 100}, {"time": 42130, "pitch": 78, "duration": 110, "velocity": 100}, {"time": 42240, "pitch": 58, "duration": 55, "velocity": 100}, {"time": 42240, "pitch": 61, "duration": 330, "velocity": 100}, {"time": 42240, "pitch": 79, "duration": 1760, "velocity": 100}, {"time": 42460, "pitch": 58, "duration": 110, "velocity": 100}, {"time": 42460, "pitch": 61, "duration": 220, "velocity": 100}, {"time": 42625, "pitch": 55, "duration": 55, "velocity": 100}, {"time": 42680, "pitch": 55, "duration": 110, "velocity": 100}, {"time": 42680, "pitch": 61, "duration": 110, "velocity": 100}, {"time": 42680, "pitch": 67, "duration": 110, "velocity": 100}, {"time": 42680, "pitch": 70, "duration": 330, "velocity": 100}, {"time": 42900, "pitch": 55, "duration": 55, "velocity": 100}, {"time": 42900, "pitch": 61, "duration": 55, "velocity": 100}, {"time": 43010, "pitch": 55, "duration": 55, "velocity": 100}, {"time": 43010, "pitch": 68, "duration": 110, "velocity": 100}, {"time": 43120, "pitch": 55, "duration": 110, "velocity": 100}, {"time": 43120, "pitch": 58, "duration": 165, "velocity": 100}, {"time": 43120, "pitch": 61, "duration": 220, "velocity": 100}, {"time": 43340, "pitch": 55, "duration": 55, "velocity": 100}, {"time": 43340, "pitch": 61, "duration": 55, "velocity": 100}, {"time": 43450, "pitch": 53, "duration": 55, "velocity": 100}, {"time": 43560, "pitch": 56, "duration": 110, "velocity": 100}, {"time": 43560, "pitch": 60, "duration": 110, "velocity": 100}, {"time": 43560, "pitch": 68, "duration": 330, "velocity": 100}, {"time": 43560, "pitch": 70, "duration": 330, "velocity": 100}, {"time": 43780, "pitch": 60, "duration": 110, "velocity": 100}, {"time": 43890, "pitch": 68, "duration": 110, "velocity": 100}, {"time": 43945, "pitch": 56, "duration": 55, "velocity": 100}, {"time": 44000, "pitch": 55, "duration": 110, "velocity": 100}, {"time": 44000, "pitch": 59, "duration": 110, "velocity": 100}, {"time": 44000, "pitch": 62, "duration": 110, "velocity": 100}, {"time": 44000, "pitch": 74, "duration": 220, "velocity": 100}, {"time": 44000, "pitch": 79, "duration": 1540, "velocity": 100}, {"time": 44165, "pitch": 74, "duration": 55, "velocity": 100}, {"time": 44220, "pitch": 62, "duration": 55, "velocity": 100}, {"time": 44330, "pitch": 55, "duration": 55, "velocity": 100}, {"time": 44440, "pitch": 55, "duration": 165, "velocity": 100}, {"time": 44660, "pitch": 55, "duration": 110, "velocity": 100}, {"time": 44660, "pitch": 59, "duration": 110, "velocity": 100}, {"time": 44880, "pitch": 55, "duration": 110, "velocity": 100}, {"time": 44880, "pitch": 59, "duration": 110, "velocity": 100}, {"time": 44880, "pitch": 67, "duration": 440, "velocity": 100}, {"time": 44880, "pitch": 71, "duration": 440, "velocity": 100}, {"time": 45100, "pitch": 59, "duration": 55, "velocity": 100}, {"time": 45210, "pitch": 55, "duration": 55, "velocity": 100}, {"time": 45210, "pitch": 57, "duration": 55, "velocity": 100}, {"time": 45320, "pitch": 55, "duration": 110, "velocity": 100}, {"time": 45320, "pitch": 59, "duration": 110, "velocity": 100}, {"time": 45320, "pitch": 63, "duration": 110, "velocity": 100}, {"time": 45320, "pitch": 67, "duration": 220, "velocity": 100}, {"time": 45320, "pitch": 71, "duration": 220, "velocity": 100}, {"time": 45540, "pitch": 56, "duration": 55, "velocity": 100}, {"time": 45595, "pitch": 56, "duration": 55, "velocity": 100}, {"time": 45595, "pitch": 60, "duration": 55, "velocity": 100}, {"time": 45650, "pitch": 63, "duration": 55, "velocity": 100}, {"time": 45705, "pitch": 63, "duration": 55, "velocity": 100}, {"time": 45760, "pitch": 56, "duration": 55, "velocity": 100}, {"time": 45760, "pitch": 75, "duration": 165, "velocity": 100}, {"time": 45760, "pitch": 80, "duration": 440, "velocity": 100}, {"time": 45760, "pitch": 84, "duration": 440, "velocity": 100}, {"time": 45870, "pitch": 60, "duration": 55, "velocity": 100}, {"time": 45870, "pitch": 75, "duration": 110, "velocity": 100}, {"time": 45980, "pitch": 56, "duration": 55, "velocity": 100}, {"time": 45980, "pitch": 60, "duration": 55, "velocity": 100}, {"time": 45980, "pitch": 63, "duration": 55, "velocity": 100}, {"time": 46090, "pitch": 72, "duration": 110, "velocity": 100}, {"time": 46145, "pitch": 60, "duration": 55, "velocity": 100}, {"time": 46200, "pitch": 63, "duration": 55, "velocity": 100}, {"time": 46200, "pitch": 68, "duration": 110, "velocity": 100}, {"time": 46200, "pitch": 75, "duration": 220, "velocity": 100}, {"time": 46200, "pitch": 75, "duration": 275, "velocity": 100}, {"time": 46200, "pitch": 84, "duration": 385, "velocity": 100}, {"time": 46310, "pitch": 63, "duration": 55, "velocity": 100}, {"time": 46365, "pitch": 63, "duration": 55, "velocity": 100}, {"time": 46365, "pitch": 72, "duration": 55, "velocity": 100}, {"time": 46420, "pitch": 72, "duration": 55, "velocity": 100}, {"time": 46530, "pitch": 63, "duration": 55, "velocity": 100}, {"time": 46530, "pitch": 72, "duration": 55, "velocity": 100}, {"time": 46585, "pitch": 63, "duration": 55, "velocity": 100}, {"time": 46585, "pitch": 72, "duration": 55, "velocity": 100}, {"time": 46640, "pitch": 63, "duration": 55, "velocity": 100}, {"time": 46640, "pitch": 72, "duration": 165, "velocity": 100}, {"time": 46640, "pitch": 75, "duration": 110, "velocity": 100}, {"time": 46640, "pitch": 75, "duration": 220, "velocity": 100}, {"time": 46750, "pitch": 75, "duration": 110, "velocity": 100}, {"time": 46805, "pitch": 63, "duration": 55, "velocity": 100}, {"time": 46860, "pitch": 63, "duration": 110, "velocity": 100}, {"time": 46860, "pitch": 68, "duration": 220, "velocity": 100}, {"time": 46860, "pitch": 72, "duration": 165, "velocity": 100}, {"time": 46970, "pitch": 72, "duration": 110, "velocity": 100}, {"time": 47080, "pitch": 60, "duration": 110, "velocity": 100}, {"time": 47080, "pitch": 68, "duration": 275, "velocity": 100}, {"time": 47080, "pitch": 72, "duration": 275, "velocity": 100}, {"time": 47080, "pitch": 75, "duration": 220, "velocity": 100}, {"time": 47300, "pitch": 61, "duration": 55, "velocity": 100}, {"time": 47300, "pitch": 65, "duration": 55, "velocity": 100}, {"time": 47410, "pitch": 73, "duration": 55, "velocity": 100}, {"time": 47465, "pitch": 70, "duration": 55, "velocity": 100}, {"time": 47520, "pitch": 61, "duration": 110, "velocity": 100}, {"time": 47520, "pitch": 65, "duration": 55, "velocity": 100}, {"time": 47520, "pitch": 70, "duration": 660, "velocity": 100}, {"time": 47520, "pitch": 77, "duration": 110, "velocity": 100}, {"time": 47630, "pitch": 77, "duration": 110, "velocity": 100}, {"time": 47685, "pitch": 61, "duration": 55, "velocity": 100}, {"time": 47740, "pitch": 65, "duration": 110, "velocity": 100}, {"time": 47850, "pitch": 73, "duration": 110, "velocity": 100}, {"time": 47905, "pitch": 61, "duration": 55, "velocity": 100}, {"time": 47960, "pitch": 61, "duration": 55, "velocity": 100}, {"time": 48180, "pitch": 65, "duration": 110, "velocity": 100}, {"time": 48290, "pitch": 60, "duration": 55, "velocity": 100}, {"time": 48345, "pitch": 65, "duration": 55, "velocity": 100}, {"time": 48400, "pitch": 58, "duration": 55, "velocity": 100}, {"time": 48400, "pitch": 65, "duration": 110, "velocity": 100}, {"time": 48400, "pitch": 70, "duration": 660, "velocity": 100}, {"time": 48400, "pitch": 73, "duration": 660, "velocity": 100}, {"time": 48400, "pitch": 77, "duration": 110, "velocity": 100}, {"time": 48510, "pitch": 77, "duration": 110, "velocity": 100}, {"time": 48620, "pitch": 65, "duration": 55, "velocity": 100}, {"time": 48730, "pitch": 58, "duration": 55, "velocity": 100}, {"time": 48730, "pitch": 73, "duration": 110, "velocity": 100}, {"time": 48840, "pitch": 61, "duration": 110, "velocity": 100}, {"time": 49060, "pitch": 63, "duration": 110, "velocity": 100}, {"time": 49170, "pitch": 56, "duration": 55, "velocity": 100}, {"time": 49170, "pitch": 75, "duration": 55, "velocity": 100}, {"time": 49225, "pitch": 75, "duration": 55, "velocity": 100}, {"time": 49280, "pitch": 61, "duration": 55, "velocity": 100}, {"time": 49280, "pitch": 70, "duration": 825, "velocity": 100}, {"time": 49280, "pitch": 73, "duration": 660, "velocity": 100}, {"time": 49280, "pitch": 75, "duration": 110, "velocity": 100}, {"time": 49390, "pitch": 75, "duration": 110, "velocity": 100}, {"time": 49500, "pitch": 61, "duration": 55, "velocity": 100}, {"time": 49500, "pitch": 63, "duration": 55, "velocity": 100}, {"time": 49500, "pitch": 75, "duration": 110, "velocity": 100}, {"time": 49610, "pitch": 75, "duration": 110, "velocity": 100}, {"time": 49665, "pitch": 61, "duration": 55, "velocity": 100}, {"time": 49720, "pitch": 58, "duration": 110, "velocity": 100}, {"time": 49720, "pitch": 61, "duration": 110, "velocity": 100}, {"time": 49720, "pitch": 75, "duration": 110, "velocity": 100}, {"time": 49830, "pitch": 75, "duration": 110, "velocity": 100}, {"time": 49885, "pitch": 58, "duration": 55, "velocity": 100}, {"time": 49940, "pitch": 61, "duration": 55, "velocity": 100}, {"time": 49940, "pitch": 65, "duration": 55, "velocity": 100}, {"time": 50050, "pitch": 75, "duration": 55, "velocity": 100}, {"time": 50105, "pitch": 77, "duration": 55, "velocity": 100}, {"time": 50160, "pitch": 61, "duration": 110, "velocity": 100}, {"time": 50160, "pitch": 67, "duration": 110, "velocity": 100}, {"time": 50160, "pitch": 75, "duration": 220, "velocity": 100}, {"time": 50160, "pitch": 79, "duration": 330, "velocity": 100}, {"time": 50380, "pitch": 58, "duration": 55, "velocity": 100}, {"time": 50380, "pitch": 61, "duration": 55, "velocity": 100}, {"time": 50380, "pitch": 67, "duration": 110, "velocity": 100}, {"time": 50380, "pitch": 75, "duration": 660, "velocity": 100}, {"time": 50490, "pitch": 75, "duration": 55, "velocity": 100}, {"time": 50545, "pitch": 75, "duration": 55, "velocity": 100}, {"time": 50600, "pitch": 61, "duration": 110, "velocity": 100}, {"time": 50600, "pitch": 67, "duration": 110, "velocity": 100}, {"time": 50600, "pitch": 75, "duration": 385, "velocity": 100}, {"time": 50600, "pitch": 77, "duration": 385, "velocity": 100}, {"time": 50820, "pitch": 63, "duration": 55, "velocity": 100}, {"time": 50820, "pitch": 67, "duration": 55, "velocity": 100}, {"time": 51040, "pitch": 56, "duration": 220, "velocity": 100}, {"time": 51040, "pitch": 63, "duration": 110, "velocity": 100}, {"time": 51150, "pitch": 63, "duration": 110, "velocity": 100}, {"time": 51260, "pitch": 56, "duration": 165, "velocity": 100}, {"time": 51260, "pitch": 63, "duration": 110, "velocity": 100}, {"time": 51260, "pitch": 63, "duration": 330, "velocity": 100}, {"time": 51370, "pitch": 63, "duration": 110, "velocity": 100}, {"time": 51480, "pitch": 63, "duration": 110, "velocity": 100}, {"time": 51645, "pitch": 56, "duration": 55, "velocity": 100}, {"time": 51700, "pitch": 60, "duration": 110, "velocity": 100}, {"time": 51700, "pitch": 72, "duration": 110, "velocity": 100}, {"time": 51810, "pitch": 68, "duration": 770, "velocity": 100}, {"time": 51920, "pitch": 56, "duration": 110, "velocity": 100}, {"time": 51920, "pitch": 63, "duration": 165, "velocity": 100}, {"time": 52085, "pitch": 56, "duration": 110, "velocity": 100}, {"time": 52195, "pitch": 63, "duration": 110, "velocity": 100}, {"time": 52360, "pitch": 60, "duration": 165, "velocity": 100}, {"time": 52580, "pitch": 56, "duration": 110, "velocity": 100}, {"time": 52580, "pitch": 63, "duration": 55, "velocity": 100}, {"time": 52635, "pitch": 63, "duration": 55, "velocity": 100}, {"time": 52690, "pitch": 63, "duration": 110, "velocity": 100}, {"time": 52690, "pitch": 68, "duration": 110, "velocity": 100}, {"time": 52745, "pitch": 65, "duration": 55, "velocity": 100}, {"time": 52800, "pitch": 63, "duration": 110, "velocity": 100}, {"time": 52800, "pitch": 68, "duration": 440, "velocity": 100}, {"time": 52910, "pitch": 68, "duration": 110, "velocity": 100}, {"time": 53020, "pitch": 60, "duration": 110, "velocity": 100}, {"time": 53020, "pitch": 68, "duration": 110, "velocity": 100}, {"time": 53130, "pitch": 68, "duration": 110, "velocity": 100}, {"time": 53240, "pitch": 60, "duration": 165, "velocity": 100}, {"time": 53240, "pitch": 70, "duration": 110, "velocity": 100}, {"time": 53350, "pitch": 72, "duration": 110, "velocity": 100}, {"time": 53515, "pitch": 60, "duration": 55, "velocity": 100}, {"time": 53570, "pitch": 68, "duration": 110, "velocity": 100}, {"time": 53680, "pitch": 55, "duration": 110, "velocity": 100}, {"time": 53680, "pitch": 61, "duration": 220, "velocity": 100}, {"time": 53680, "pitch": 63, "duration": 660, "velocity": 100}, {"time": 53845, "pitch": 63, "duration": 110, "velocity": 100}, {"time": 53955, "pitch": 63, "duration": 55, "velocity": 100}, {"time": 54120, "pitch": 55, "duration": 110, "velocity": 100}, {"time": 54120, "pitch": 61, "duration": 165, "velocity": 100}, {"time": 54285, "pitch": 58, "duration": 55, "velocity": 100}, {"time": 54340, "pitch": 55, "duration": 55, "velocity": 100}, {"time": 54340, "pitch": 61, "duration": 110, "velocity": 100}, {"time": 54560, "pitch": 56, "duration": 55, "velocity": 100}, {"time": 54560, "pitch": 60, "duration": 220, "velocity": 100}, {"time": 54560, "pitch": 63, "duration": 110, "velocity": 100}, {"time": 54670, "pitch": 63, "duration": 110, "velocity": 100}, {"time": 54780, "pitch": 63, "duration": 110, "velocity": 100}, {"time": 54780, "pitch": 63, "duration": 220, "velocity": 100}, {"time": 54890, "pitch": 63, "duration": 110, "velocity": 100}, {"time": 54945, "pitch": 60, "duration": 55, "velocity": 100}, {"time": 55000, "pitch": 63, "duration": 110, "velocity": 100}, {"time": 55000, "pitch": 63, "duration": 330, "velocity": 100}, {"time": 55220, "pitch": 75, "duration": 110, "velocity": 100}, {"time": 55275, "pitch": 56, "duration": 165, "velocity": 100}, {"time": 55330, "pitch": 63, "duration": 220, "velocity": 100}, {"time": 55330, "pitch": 72, "duration": 770, "velocity": 100}, {"time": 55440, "pitch": 80, "duration": 220, "velocity": 100}, {"time": 55550, "pitch": 56, "duration": 55, "velocity": 100}, {"time": 55660, "pitch": 56, "duration": 110, "velocity": 100}, {"time": 55660, "pitch": 60, "duration": 220, "velocity": 100}, {"time": 55880, "pitch": 60, "duration": 165, "velocity": 100}, {"time": 56155, "pitch": 63, "duration": 55, "velocity": 100}, {"time": 56320, "pitch": 65, "duration": 110, "velocity": 100}, {"time": 56430, "pitch": 53, "duration": 165, "velocity": 100}, {"time": 56430, "pitch": 73, "duration": 110, "velocity": 100}, {"time": 56540, "pitch": 58, "duration": 55, "velocity": 100}, {"time": 56540, "pitch": 61, "duration": 220, "velocity": 100}, {"time": 56540, "pitch": 65, "duration": 220, "velocity": 100}, {"time": 56540, "pitch": 68, "duration": 220, "velocity": 100}, {"time": 56540, "pitch": 73, "duration": 110, "velocity": 100}, {"time": 56650, "pitch": 73, "duration": 110, "velocity": 100}, {"time": 56870, "pitch": 62, "duration": 55, "velocity": 100}, {"time": 56870, "pitch": 72, "duration": 110, "velocity": 100}, {"time": 56925, "pitch": 65, "duration": 165, "velocity": 100}, {"time": 56980, "pitch": 72, "duration": 110, "velocity": 100}, {"time": 57035, "pitch": 58, "duration": 55, "velocity": 100}, {"time": 57090, "pitch": 62, "duration": 55, "velocity": 100}, {"time": 57090, "pitch": 68, "duration": 110, "velocity": 100}, {"time": 57200, "pitch": 58, "duration": 110, "velocity": 100}, {"time": 57200, "pitch": 63, "duration": 165, "velocity": 100}, {"time": 57200, "pitch": 63, "duration": 220, "velocity": 100}, {"time": 57420, "pitch": 72, "duration": 110, "velocity": 100}, {"time": 57475, "pitch": 63, "duration": 55, "velocity": 100}, {"time": 57475, "pitch": 89, "duration": 55, "velocity": 100}, {"time": 57530, "pitch": 70, "duration": 330, "velocity": 100}, {"time": 57585, "pitch": 63, "duration": 55, "velocity": 100}, {"time": 57585, "pitch": 87, "duration": 55, "velocity": 100}, {"time": 57585, "pitch": 89, "duration": 55, "velocity": 100}, {"time": 57640, "pitch": 63, "duration": 165, "velocity": 100}, {"time": 57640, "pitch": 67, "duration": 55, "velocity": 100}, {"time": 57860, "pitch": 63, "duration": 220, "velocity": 100}, {"time": 58080, "pitch": 56, "duration": 110, "velocity": 100}, {"time": 58080, "pitch": 63, "duration": 110, "velocity": 100}, {"time": 58080, "pitch": 63, "duration": 275, "velocity": 100}, {"time": 58080, "pitch": 68, "duration": 385, "velocity": 100}, {"time": 58190, "pitch": 63, "duration": 110, "velocity": 100}, {"time": 58300, "pitch": 56, "duration": 110, "velocity": 100}, {"time": 58300, "pitch": 60, "duration": 165, "velocity": 100}, {"time": 58300, "pitch": 63, "duration": 110, "velocity": 100}, {"time": 58410, "pitch": 63, "duration": 110, "velocity": 100}, {"time": 58520, "pitch": 51, "duration": 110, "velocity": 100}, {"time": 58520, "pitch": 60, "duration": 110, "velocity": 100}, {"time": 58520, "pitch": 63, "duration": 110, "velocity": 100}, {"time": 58520, "pitch": 63, "duration": 385, "velocity": 100}, {"time": 58520, "pitch": 68, "duration": 385, "velocity": 100}, {"time": 58740, "pitch": 56, "duration": 110, "velocity": 100}, {"time": 58850, "pitch": 68, "duration": 770, "velocity": 100}, {"time": 58960, "pitch": 56, "duration": 110, "velocity": 100}, {"time": 58960, "pitch": 63, "duration": 110, "velocity": 100}, {"time": 58960, "pitch": 68, "duration": 385, "velocity": 100}, {"time": 59180, "pitch": 60, "duration": 110, "velocity": 100}, {"time": 59290, "pitch": 56, "duration": 55, "velocity": 100}, {"time": 59400, "pitch": 56, "duration": 55, "velocity": 100}, {"time": 59400, "pitch": 60, "duration": 110, "velocity": 100}, {"time": 59400, "pitch": 63, "duration": 165, "velocity": 100}, {"time": 59400, "pitch": 72, "duration": 165, "velocity": 100}, {"time": 59565, "pitch": 77, "duration": 55, "velocity": 100}, {"time": 59620, "pitch": 77, "duration": 110, "velocity": 100}, {"time": 59730, "pitch": 77, "duration": 110, "velocity": 100}, {"time": 59840, "pitch": 56, "duration": 220, "velocity": 100}, {"time": 59840, "pitch": 60, "duration": 275, "velocity": 100}, {"time": 59840, "pitch": 63, "duration": 110, "velocity": 100}, {"time": 59840, "pitch": 68, "duration": 440, "velocity": 100}, {"time": 59840, "pitch": 75, "duration": 440, "velocity": 100}, {"time": 59950, "pitch": 68, "duration": 110, "velocity": 100}, {"time": 60060, "pitch": 68, "duration": 110, "velocity": 100}, {"time": 60115, "pitch": 56, "duration": 55, "velocity": 100}, {"time": 60170, "pitch": 68, "duration": 110, "velocity": 100}, {"time": 60280, "pitch": 51, "duration": 55, "velocity": 100}, {"time": 60280, "pitch": 60, "duration": 165, "velocity": 100}, {"time": 60280, "pitch": 63, "duration": 275, "velocity": 100}, {"time": 60280, "pitch": 68, "duration": 440, "velocity": 100}, {"time": 60280, "pitch": 70, "duration": 110, "velocity": 100}, {"time": 60390, "pitch": 72, "duration": 110, "velocity": 100}, {"time": 60500, "pitch": 60, "duration": 110, "velocity": 100}, {"time": 60610, "pitch": 68, "duration": 110, "velocity": 100}, {"time": 60720, "pitch": 61, "duration": 165, "velocity": 100}, {"time": 60720, "pitch": 63, "duration": 660, "velocity": 100}, {"time": 60720, "pitch": 67, "duration": 275, "velocity": 100}, {"time": 60720, "pitch": 70, "duration": 385, "velocity": 100}, {"time": 60995, "pitch": 58, "duration": 55, "velocity": 100}, {"time": 61050, "pitch": 63, "duration": 55, "velocity": 100}, {"time": 61160, "pitch": 55, "duration": 110, "velocity": 100}, {"time": 61160, "pitch": 67, "duration": 110, "velocity": 100}, {"time": 61160, "pitch": 70, "duration": 165, "velocity": 100}, {"time": 61270, "pitch": 72, "duration": 55, "velocity": 100}, {"time": 61325, "pitch": 58, "duration": 55, "velocity": 100}, {"time": 61325, "pitch": 75, "duration": 55, "velocity": 100}, {"time": 61380, "pitch": 79, "duration": 110, "velocity": 100}, {"time": 61600, "pitch": 56, "duration": 220, "velocity": 100}, {"time": 61600, "pitch": 63, "duration": 110, "velocity": 100}, {"time": 61600, "pitch": 75, "duration": 440, "velocity": 100}, {"time": 61710, "pitch": 63, "duration": 110, "velocity": 100}, {"time": 61820, "pitch": 63, "duration": 110, "velocity": 100}, {"time": 61820, "pitch": 72, "duration": 385, "velocity": 100}, {"time": 61930, "pitch": 63, "duration": 110, "velocity": 100}, {"time": 62040, "pitch": 63, "duration": 110, "velocity": 100}, {"time": 62150, "pitch": 75, "duration": 110, "velocity": 100}, {"time": 62260, "pitch": 75, "duration": 110, "velocity": 100}, {"time": 62260, "pitch": 75, "duration": 220, "velocity": 100}, {"time": 62370, "pitch": 72, "duration": 770, "velocity": 100}, {"time": 62480, "pitch": 77, "duration": 220, "velocity": 100}, {"time": 62590, "pitch": 51, "duration": 55, "velocity": 100}, {"time": 62700, "pitch": 77, "duration": 220, "velocity": 100}, {"time": 62755, "pitch": 51, "duration": 55, "velocity": 100}, {"time": 62865, "pitch": 51, "duration": 55, "velocity": 100}, {"time": 62920, "pitch": 75, "duration": 440, "velocity": 100}, {"time": 63030, "pitch": 51, "duration": 110, "velocity": 100}, {"time": 63140, "pitch": 51, "duration": 55, "velocity": 100}, {"time": 63140, "pitch": 56, "duration": 110, "velocity": 100}, {"time": 63140, "pitch": 60, "duration": 220, "velocity": 100}, {"time": 63250, "pitch": 60, "duration": 110, "velocity": 100}, {"time": 63360, "pitch": 61, "duration": 385, "velocity": 100}, {"time": 63360, "pitch": 65, "duration": 110, "velocity": 100}, {"time": 63360, "pitch": 68, "duration": 440, "velocity": 100}, {"time": 63470, "pitch": 73, "duration": 110, "velocity": 100}, {"time": 63580, "pitch": 58, "duration": 110, "velocity": 100}, {"time": 63580, "pitch": 73, "duration": 110, "velocity": 100}, {"time": 63690, "pitch": 73, "duration": 110, "velocity": 100}, {"time": 63745, "pitch": 58, "duration": 55, "velocity": 100}, {"time": 63800, "pitch": 58, "duration": 220, "velocity": 100}, {"time": 63800, "pitch": 62, "duration": 220, "velocity": 100}, {"time": 63800, "pitch": 70, "duration": 110, "velocity": 100}, {"time": 63910, "pitch": 72, "duration": 110, "velocity": 100}, {"time": 63910, "pitch": 72, "duration": 110, "velocity": 100}, {"time": 64020, "pitch": 72, "duration": 110, "velocity": 100}, {"time": 64020, "pitch": 74, "duration": 220, "velocity": 100}, {"time": 64130, "pitch": 68, "duration": 110, "velocity": 100}, {"time": 64240, "pitch": 63, "duration": 220, "velocity": 100}, {"time": 64460, "pitch": 55, "duration": 55, "velocity": 100}, {"time": 64460, "pitch": 70, "duration": 110, "velocity": 100}, {"time": 64570, "pitch": 68, "duration": 330, "velocity": 100}, {"time": 64625, "pitch": 55, "duration": 55, "velocity": 100}, {"time": 64625, "pitch": 58, "duration": 55, "velocity": 100}, {"time": 64680, "pitch": 51, "duration": 110, "velocity": 100}, {"time": 64680, "pitch": 56, "duration": 110, "velocity": 100}, {"time": 64680, "pitch": 60, "duration": 110, "velocity": 100}, {"time": 64680, "pitch": 63, "duration": 110, "velocity": 100}, {"time": 64790, "pitch": 63, "duration": 55, "velocity": 100}, {"time": 64845, "pitch": 68, "duration": 55, "velocity": 100}, {"time": 64900, "pitch": 56, "duration": 55, "velocity": 100}, {"time": 64900, "pitch": 60, "duration": 55, "velocity": 100}, {"time": 64900, "pitch": 68, "duration": 55, "velocity": 100}, {"time": 64955, "pitch": 70, "duration": 55, "velocity": 100}, {"time": 65010, "pitch": 73, "duration": 55, "velocity": 100}, {"time": 65065, "pitch": 73, "duration": 55, "velocity": 100}, {"time": 65120, "pitch": 56, "duration": 55, "velocity": 100}, {"time": 65120, "pitch": 60, "duration": 110, "velocity": 100}, {"time": 65120, "pitch": 72, "duration": 220, "velocity": 100}, {"time": 65120, "pitch": 80, "duration": 440, "velocity": 100}, {"time": 65340, "pitch": 56, "duration": 55, "velocity": 100}, {"time": 65340, "pitch": 63, "duration": 110, "velocity": 100}, {"time": 65340, "pitch": 75, "duration": 220, "velocity": 100}, {"time": 65450, "pitch": 60, "duration": 55, "velocity": 100}, {"time": 65560, "pitch": 56, "duration": 110, "velocity": 100}, {"time": 65560, "pitch": 60, "duration": 110, "velocity": 100}, {"time": 65780, "pitch": 56, "duration": 55, "velocity": 100}, {"time": 65780, "pitch": 60, "duration": 55, "velocity": 100}, {"time": 65780, "pitch": 63, "duration": 55, "velocity": 100}, {"time": 65780, "pitch": 72, "duration": 110, "velocity": 100}, {"time": 65890, "pitch": 75, "duration": 990, "velocity": 100}, {"time": 66000, "pitch": 60, "duration": 55, "velocity": 100}, {"time": 66000, "pitch": 63, "duration": 110, "velocity": 100}, {"time": 66165, "pitch": 63, "duration": 55, "velocity": 100}, {"time": 66220, "pitch": 60, "duration": 55, "velocity": 100}, {"time": 66220, "pitch": 63, "duration": 55, "velocity": 100}, {"time": 66220, "pitch": 68, "duration": 55, "velocity": 100}, {"time": 66440, "pitch": 60, "duration": 110, "velocity": 100}, {"time": 66440, "pitch": 63, "duration": 110, "velocity": 100}, {"time": 66605, "pitch": 60, "duration": 55, "velocity": 100}, {"time": 66660, "pitch": 60, "duration": 55, "velocity": 100}, {"time": 66660, "pitch": 63, "duration": 55, "velocity": 100}, {"time": 66660, "pitch": 68, "duration": 55, "velocity": 100}, {"time": 66660, "pitch": 72, "duration": 55, "velocity": 100}, {"time": 66715, "pitch": 75, "duration": 55, "velocity": 100}, {"time": 66770, "pitch": 60, "duration": 55, "velocity": 100}, {"time": 66770, "pitch": 75, "duration": 55, "velocity": 100}, {"time": 66825, "pitch": 79, "duration": 55, "velocity": 100}, {"time": 66880, "pitch": 65, "duration": 110, "velocity": 100}, {"time": 66880, "pitch": 72, "duration": 330, "velocity": 100}, {"time": 66880, "pitch": 77, "duration": 440, "velocity": 100}, {"time": 67100, "pitch": 60, "duration": 110, "velocity": 100}, {"time": 67100, "pitch": 65, "duration": 110, "velocity": 100}, {"time": 67210, "pitch": 56, "duration": 55, "velocity": 100}, {"time": 67210, "pitch": 68, "duration": 110, "velocity": 100}, {"time": 67320, "pitch": 60, "duration": 110, "velocity": 100}, {"time": 67320, "pitch": 65, "duration": 110, "velocity": 100}, {"time": 67320, "pitch": 68, "duration": 110, "velocity": 100}, {"time": 67320, "pitch": 70, "duration": 220, "velocity": 100}, {"time": 67320, "pitch": 77, "duration": 440, "velocity": 100}, {"time": 67540, "pitch": 60, "duration": 55, "velocity": 100}, {"time": 67540, "pitch": 65, "duration": 55, "velocity": 100}, {"time": 67540, "pitch": 68, "duration": 110, "velocity": 100}, {"time": 67540, "pitch": 72, "duration": 220, "velocity": 100}, {"time": 67760, "pitch": 61, "duration": 110, "velocity": 100}, {"time": 67760, "pitch": 65, "duration": 110, "velocity": 100}, {"time": 67760, "pitch": 65, "duration": 880, "velocity": 100}, {"time": 67870, "pitch": 72, "duration": 55, "velocity": 100}, {"time": 67925, "pitch": 72, "duration": 55, "velocity": 100}, {"time": 67980, "pitch": 72, "duration": 55, "velocity": 100}, {"time": 68035, "pitch": 68, "duration": 55, "velocity": 100}, {"time": 68090, "pitch": 68, "duration": 55, "velocity": 100}, {"time": 68145, "pitch": 61, "duration": 55, "velocity": 100}, {"time": 68200, "pitch": 56, "duration": 55, "velocity": 100}, {"time": 68200, "pitch": 65, "duration": 55, "velocity": 100}, {"time": 68255, "pitch": 68, "duration": 55, "velocity": 100}, {"time": 68310, "pitch": 70, "duration": 55, "velocity": 100}, {"time": 68365, "pitch": 56, "duration": 55, "velocity": 100}, {"time": 68365, "pitch": 61, "duration": 55, "velocity": 100}, {"time": 68365, "pitch": 72, "duration": 55, "velocity": 100}, {"time": 68420, "pitch": 72, "duration": 55, "velocity": 100}, {"time": 68475, "pitch": 58, "duration": 110, "velocity": 100}, {"time": 68475, "pitch": 61, "duration": 110, "velocity": 100}, {"time": 68475, "pitch": 65, "duration": 55, "velocity": 100}, {"time": 68475, "pitch": 75, "duration": 55, "velocity": 100}, {"time": 68530, "pitch": 75, "duration": 55, "velocity": 100}, {"time": 68585, "pitch": 77, "duration": 55, "velocity": 100}, {"time": 68640, "pitch": 63, "duration": 110, "velocity": 100}, {"time": 68640, "pitch": 67, "duration": 330, "velocity": 100}, {"time": 68640, "pitch": 79, "duration": 440, "velocity": 100}, {"time": 68860, "pitch": 63, "duration": 55, "velocity": 100}, {"time": 68860, "pitch": 67, "duration": 55, "velocity": 100}, {"time": 68970, "pitch": 58, "duration": 55, "velocity": 100}, {"time": 68970, "pitch": 68, "duration": 110, "velocity": 100}, {"time": 69080, "pitch": 58, "duration": 165, "velocity": 100}, {"time": 69080, "pitch": 63, "duration": 165, "velocity": 100}, {"time": 69080, "pitch": 67, "duration": 165, "velocity": 100}, {"time": 69080, "pitch": 70, "duration": 220, "velocity": 100}, {"time": 69080, "pitch": 79, "duration": 385, "velocity": 100}, {"time": 69300, "pitch": 63, "duration": 55, "velocity": 100}, {"time": 69300, "pitch": 63, "duration": 220, "velocity": 100}, {"time": 69300, "pitch": 67, "duration": 55, "velocity": 100}, {"time": 69520, "pitch": 55, "duration": 55, "velocity": 100}, {"time": 69520, "pitch": 60, "duration": 55, "velocity": 100}, {"time": 69520, "pitch": 64, "duration": 165, "velocity": 100}, {"time": 69520, "pitch": 72, "duration": 880, "velocity": 100}, {"time": 69520, "pitch": 76, "duration": 440, "velocity": 100}, {"time": 69520, "pitch": 79, "duration": 440, "velocity": 100}, {"time": 69740, "pitch": 64, "duration": 110, "velocity": 100}, {"time": 69960, "pitch": 60, "duration": 440, "velocity": 100}, {"time": 69960, "pitch": 64, "duration": 440, "velocity": 100}, {"time": 69960, "pitch": 72, "duration": 440, "velocity": 100}, {"time": 69960, "pitch": 76, "duration": 330, "velocity": 100}, {"time": 70400, "pitch": 61, "duration": 165, "velocity": 100}, {"time": 70400, "pitch": 65, "duration": 220, "velocity": 100}, {"time": 70400, "pitch": 73, "duration": 330, "velocity": 100}, {"time": 70400, "pitch": 73, "duration": 825, "velocity": 100}, {"time": 70400, "pitch": 77, "duration": 880, "velocity": 100}, {"time": 70620, "pitch": 61, "duration": 110, "velocity": 100}, {"time": 70620, "pitch": 65, "duration": 110, "velocity": 100}, {"time": 70730, "pitch": 72, "duration": 110, "velocity": 100}, {"time": 70840, "pitch": 70, "duration": 110, "velocity": 100}, {"time": 70950, "pitch": 72, "duration": 220, "velocity": 100}, {"time": 71060, "pitch": 65, "duration": 55, "velocity": 100}, {"time": 71170, "pitch": 68, "duration": 110, "velocity": 100}, {"time": 71280, "pitch": 58, "duration": 110, "velocity": 100}, {"time": 71280, "pitch": 63, "duration": 110, "velocity": 100}, {"time": 71280, "pitch": 63, "duration": 880, "velocity": 100}, {"time": 71500, "pitch": 58, "duration": 55, "velocity": 100}, {"time": 71720, "pitch": 51, "duration": 110, "velocity": 100}, {"time": 71720, "pitch": 55, "duration": 110, "velocity": 100}, {"time": 71720, "pitch": 63, "duration": 110, "velocity": 100}, {"time": 71885, "pitch": 51, "duration": 55, "velocity": 100}, {"time": 71885, "pitch": 58, "duration": 165, "velocity": 100}]}, {"program": 70, "is_drum": false, "name": "Tenor", "notes": [{"time": 0, "pitch": 56, "duration": 220, "velocity": 100}, {"time": 110, "pitch": 63, "duration": 110, "velocity": 100}, {"time": 220, "pitch": 63, "duration": 110, "velocity": 100}, {"time": 330, "pitch": 63, "duration": 110, "velocity": 100}, {"time": 440, "pitch": 63, "duration": 110, "velocity": 100}, {"time": 605, "pitch": 56, "duration": 55, "velocity": 100}, {"time": 715, "pitch": 56, "duration": 55, "velocity": 100}, {"time": 880, "pitch": 56, "duration": 110, "velocity": 100}, {"time": 1045, "pitch": 56, "duration": 110, "velocity": 100}, {"time": 1210, "pitch": 56, "duration": 55, "velocity": 100}, {"time": 1320, "pitch": 60, "duration": 165, "velocity": 100}, {"time": 1540, "pitch": 56, "duration": 110, "velocity": 100}, {"time": 1760, "pitch": 63, "duration": 110, "velocity": 100}, {"time": 1980, "pitch": 60, "duration": 110, "velocity": 100}, {"time": 2200, "pitch": 60, "duration": 165, "velocity": 100}, {"time": 2475, "pitch": 60, "duration": 55, "velocity": 100}, {"time": 2640, "pitch": 55, "duration": 110, "velocity": 100}, {"time": 2805, "pitch": 63, "duration": 110, "velocity": 100}, {"time": 3080, "pitch": 55, "duration": 110, "velocity": 100}, {"time": 3245, "pitch": 58, "duration": 55, "velocity": 100}, {"time": 3300, "pitch": 61, "duration": 110, "velocity": 100}, {"time": 3520, "pitch": 56, "duration": 55, "velocity": 100}, {"time": 3630, "pitch": 63, "duration": 110, "velocity": 100}, {"time": 3740, "pitch": 63, "duration": 220, "velocity": 100}, {"time": 3850, "pitch": 63, "duration": 110, "velocity": 100}, {"time": 3905, "pitch": 60, "duration": 55, "velocity": 100}, {"time": 3960, "pitch": 63, "duration": 110, "velocity": 100}, {"time": 4235, "pitch": 56, "duration": 165, "velocity": 100}, {"time": 4290, "pitch": 63, "duration": 220, "velocity": 100}, {"time": 4510, "pitch": 56, "duration": 55, "velocity": 100}, {"time": 4620, "pitch": 56, "duration": 110, "velocity": 100}, {"time": 4840, "pitch": 56, "duration": 110, "velocity": 100}, {"time": 4840, "pitch": 60, "duration": 165, "velocity": 100}, {"time": 5005, "pitch": 56, "duration": 110, "velocity": 100}, {"time": 5500, "pitch": 58, "duration": 55, "velocity": 100}, {"time": 5500, "pitch": 61, "duration": 220, "velocity": 100}, {"time": 5775, "pitch": 58, "duration": 55, "velocity": 100}, {"time": 5995, "pitch": 58, "duration": 55, "velocity": 100}, {"time": 6105, "pitch": 58, "duration": 55, "velocity": 100}, {"time": 6160, "pitch": 58, "duration": 110, "velocity": 100}, {"time": 6325, "pitch": 51, "duration": 165, "velocity": 100}, {"time": 6490, "pitch": 58, "duration": 110, "velocity": 100}, {"time": 6545, "pitch": 63, "duration": 55, "velocity": 100}, {"time": 6600, "pitch": 58, "duration": 165, "velocity": 100}, {"time": 6820, "pitch": 63, "duration": 220, "velocity": 100}, {"time": 7040, "pitch": 51, "duration": 165, "velocity": 100}, {"time": 7040, "pitch": 56, "duration": 110, "velocity": 100}, {"time": 7040, "pitch": 63, "duration": 275, "velocity": 100}, {"time": 7150, "pitch": 63, "duration": 110, "velocity": 100}, {"time": 7260, "pitch": 56, "duration": 110, "velocity": 100}, {"time": 7260, "pitch": 63, "duration": 110, "velocity": 100}, {"time": 7370, "pitch": 63, "duration": 110, "velocity": 100}, {"time": 7480, "pitch": 51, "duration": 110, "velocity": 100}, {"time": 7645, "pitch": 51, "duration": 55, "velocity": 100}, {"time": 7700, "pitch": 51, "duration": 55, "velocity": 100}, {"time": 7700, "pitch": 56, "duration": 110, "velocity": 100}, {"time": 7920, "pitch": 56, "duration": 110, "velocity": 100}, {"time": 8140, "pitch": 56, "duration": 55, "velocity": 100}, {"time": 8250, "pitch": 56, "duration": 55, "velocity": 100}, {"time": 8360, "pitch": 56, "duration": 55, "velocity": 100}, {"time": 8525, "pitch": 56, "duration": 55, "velocity": 100}, {"time": 8580, "pitch": 56, "duration": 110, "velocity": 100}, {"time": 8690, "pitch": 56, "duration": 55, "velocity": 100}, {"time": 8800, "pitch": 51, "duration": 55, "velocity": 100}, {"time": 8910, "pitch": 51, "duration": 55, "velocity": 100}, {"time": 9075, "pitch": 56, "duration": 55, "velocity": 100}, {"time": 9130, "pitch": 68, "duration": 110, "velocity": 100}, {"time": 9240, "pitch": 51, "duration": 55, "velocity": 100}, {"time": 9460, "pitch": 60, "duration": 110, "velocity": 100}, {"time": 9680, "pitch": 51, "duration": 110, "velocity": 100}, {"time": 9845, "pitch": 55, "duration": 110, "velocity": 100}, {"time": 10120, "pitch": 51, "duration": 55, "velocity": 100}, {"time": 10230, "pitch": 72, "duration": 55, "velocity": 100}, {"time": 10285, "pitch": 58, "duration": 55, "velocity": 100}, {"time": 10395, "pitch": 63, "duration": 55, "velocity": 100}, {"time": 10560, "pitch": 51, "duration": 110, "velocity": 100}, {"time": 10560, "pitch": 56, "duration": 220, "velocity": 100}, {"time": 10560, "pitch": 63, "duration": 110, "velocity": 100}, {"time": 10670, "pitch": 63, "duration": 110, "velocity": 100}, {"time": 10780, "pitch": 63, "duration": 110, "velocity": 100}, {"time": 10835, "pitch": 56, "duration": 110, "velocity": 100}, {"time": 10890, "pitch": 63, "duration": 110, "velocity": 100}, {"time": 11000, "pitch": 63, "duration": 110, "velocity": 100}, {"time": 11220, "pitch": 48, "duration": 110, "velocity": 100}, {"time": 11275, "pitch": 56, "duration": 165, "velocity": 100}, {"time": 11385, "pitch": 51, "duration": 55, "velocity": 100}, {"time": 11495, "pitch": 39, "duration": 55, "velocity": 100}, {"time": 11550, "pitch": 51, "duration": 55, "velocity": 100}, {"time": 11660, "pitch": 39, "duration": 165, "velocity": 100}, {"time": 11715, "pitch": 51, "duration": 55, "velocity": 100}, {"time": 11770, "pitch": 51, "duration": 110, "velocity": 100}, {"time": 11825, "pitch": 51, "duration": 55, "velocity": 100}, {"time": 11935, "pitch": 44, "duration": 165, "velocity": 100}, {"time": 11990, "pitch": 51, "duration": 110, "velocity": 100}, {"time": 12100, "pitch": 51, "duration": 55, "velocity": 100}, {"time": 12320, "pitch": 61, "duration": 385, "velocity": 100}, {"time": 12430, "pitch": 73, "duration": 110, "velocity": 100}, {"time": 12540, "pitch": 53, "duration": 55, "velocity": 100}, {"time": 12540, "pitch": 58, "duration": 110, "velocity": 100}, {"time": 12650, "pitch": 53, "duration": 55, "velocity": 100}, {"time": 12705, "pitch": 58, "duration": 55, "velocity": 100}, {"time": 12760, "pitch": 58, "duration": 220, "velocity": 100}, {"time": 12870, "pitch": 72, "duration": 110, "velocity": 100}, {"time": 12980, "pitch": 41, "duration": 110, "velocity": 100}, {"time": 13200, "pitch": 51, "duration": 165, "velocity": 100}, {"time": 13420, "pitch": 51, "duration": 55, "velocity": 100}, {"time": 13530, "pitch": 51, "duration": 55, "velocity": 100}, {"time": 13640, "pitch": 51, "duration": 110, "velocity": 100}, {"time": 13860, "pitch": 51, "duration": 55, "velocity": 100}, {"time": 14080, "pitch": 44, "duration": 385, "velocity": 100}, {"time": 14080, "pitch": 51, "duration": 55, "velocity": 100}, {"time": 14190, "pitch": 56, "duration": 55, "velocity": 100}, {"time": 14300, "pitch": 56, "duration": 55, "velocity": 100}, {"time": 14520, "pitch": 51, "duration": 110, "velocity": 100}, {"time": 14685, "pitch": 51, "duration": 55, "velocity": 100}, {"time": 14960, "pitch": 44, "duration": 330, "velocity": 100}, {"time": 15015, "pitch": 56, "duration": 165, "velocity": 100}, {"time": 15235, "pitch": 56, "duration": 55, "velocity": 100}, {"time": 15290, "pitch": 60, "duration": 55, "velocity": 100}, {"time": 15510, "pitch": 56, "duration": 110, "velocity": 100}, {"time": 15675, "pitch": 56, "duration": 55, "velocity": 100}, {"time": 15840, "pitch": 60, "duration": 110, "velocity": 100}, {"time": 16060, "pitch": 56, "duration": 55, "velocity": 100}, {"time": 16170, "pitch": 56, "duration": 55, "velocity": 100}, {"time": 16390, "pitch": 60, "duration": 55, "velocity": 100}, {"time": 16995, "pitch": 56, "duration": 55, "velocity": 100}, {"time": 17050, "pitch": 56, "duration": 55, "velocity": 100}, {"time": 17160, "pitch": 56, "duration": 55, "velocity": 100}, {"time": 17215, "pitch": 44, "duration": 165, "velocity": 100}, {"time": 17270, "pitch": 53, "duration": 55, "velocity": 100}, {"time": 17325, "pitch": 53, "duration": 55, "velocity": 100}, {"time": 17545, "pitch": 53, "duration": 55, "velocity": 100}, {"time": 17600, "pitch": 55, "duration": 165, "velocity": 100}, {"time": 17820, "pitch": 55, "duration": 55, "velocity": 100}, {"time": 17930, "pitch": 58, "duration": 55, "velocity": 100}, {"time": 18260, "pitch": 58, "duration": 55, "velocity": 100}, {"time": 18315, "pitch": 55, "duration": 55, "velocity": 100}, {"time": 18590, "pitch": 60, "duration": 55, "velocity": 100}, {"time": 18700, "pitch": 60, "duration": 55, "velocity": 100}, {"time": 18700, "pitch": 64, "duration": 110, "velocity": 100}, {"time": 18810, "pitch": 55, "duration": 110, "velocity": 100}, {"time": 19360, "pitch": 58, "duration": 165, "velocity": 100}, {"time": 19580, "pitch": 58, "duration": 55, "velocity": 100}, {"time": 19690, "pitch": 58, "duration": 55, "velocity": 100}, {"time": 19800, "pitch": 58, "duration": 55, "velocity": 100}, {"time": 20020, "pitch": 58, "duration": 55, "velocity": 100}, {"time": 20020, "pitch": 61, "duration": 55, "velocity": 100}, {"time": 20130, "pitch": 58, "duration": 55, "velocity": 100}, {"time": 20240, "pitch": 51, "duration": 110, "velocity": 100}, {"time": 20460, "pitch": 51, "duration": 55, "velocity": 100}, {"time": 20570, "pitch": 46, "duration": 55, "velocity": 100}, {"time": 20790, "pitch": 46, "duration": 275, "velocity": 100}, {"time": 21010, "pitch": 51, "duration": 110, "velocity": 100}, {"time": 21285, "pitch": 51, "duration": 55, "velocity": 100}, {"time": 21340, "pitch": 51, "duration": 110, "velocity": 100}, {"time": 21560, "pitch": 51, "duration": 165, "velocity": 100}, {"time": 21945, "pitch": 51, "duration": 55, "velocity": 100}, {"time": 22165, "pitch": 56, "duration": 55, "velocity": 100}, {"time": 22330, "pitch": 48, "duration": 55, "velocity": 100}, {"time": 22440, "pitch": 56, "duration": 110, "velocity": 100}, {"time": 22660, "pitch": 56, "duration": 55, "velocity": 100}, {"time": 22715, "pitch": 51, "duration": 55, "velocity": 100}, {"time": 22880, "pitch": 53, "duration": 55, "velocity": 100}, {"time": 23100, "pitch": 61, "duration": 55, "velocity": 100}, {"time": 23155, "pitch": 61, "duration": 55, "velocity": 100}, {"time": 23210, "pitch": 60, "duration": 110, "velocity": 100}, {"time": 23320, "pitch": 53, "duration": 55, "velocity": 100}, {"time": 23430, "pitch": 53, "duration": 55, "velocity": 100}, {"time": 23595, "pitch": 53, "duration": 55, "velocity": 100}, {"time": 23760, "pitch": 53, "duration": 220, "velocity": 100}, {"time": 23980, "pitch": 56, "duration": 110, "velocity": 100}, {"time": 24200, "pitch": 58, "duration": 110, "velocity": 100}, {"time": 24365, "pitch": 58, "duration": 110, "velocity": 100}, {"time": 24640, "pitch": 53, "duration": 55, "velocity": 100}, {"time": 24750, "pitch": 61, "duration": 55, "velocity": 100}, {"time": 24805, "pitch": 58, "duration": 55, "velocity": 100}, {"time": 24915, "pitch": 61, "duration": 55, "velocity": 100}, {"time": 24970, "pitch": 58, "duration": 55, "velocity": 100}, {"time": 25080, "pitch": 53, "duration": 110, "velocity": 100}, {"time": 25245, "pitch": 53, "duration": 110, "velocity": 100}, {"time": 25355, "pitch": 58, "duration": 55, "velocity": 100}, {"time": 25630, "pitch": 46, "duration": 275, "velocity": 100}, {"time": 25685, "pitch": 49, "duration": 110, "velocity": 100}, {"time": 26015, "pitch": 49, "duration": 55, "velocity": 100}, {"time": 26235, "pitch": 46, "duration": 165, "velocity": 100}, {"time": 27060, "pitch": 53, "duration": 55, "velocity": 100}, {"time": 27170, "pitch": 53, "duration": 55, "velocity": 100}, {"time": 27225, "pitch": 58, "duration": 55, "velocity": 100}, {"time": 27280, "pitch": 55, "duration": 220, "velocity": 100}, {"time": 27500, "pitch": 51, "duration": 110, "velocity": 100}, {"time": 27720, "pitch": 51, "duration": 165, "velocity": 100}, {"time": 27940, "pitch": 51, "duration": 220, "velocity": 100}, {"time": 28050, "pitch": 53, "duration": 55, "velocity": 100}, {"time": 28160, "pitch": 48, "duration": 440, "velocity": 100}, {"time": 28270, "pitch": 56, "duration": 110, "velocity": 100}, {"time": 28380, "pitch": 60, "duration": 220, "velocity": 100}, {"time": 28490, "pitch": 58, "duration": 55, "velocity": 100}, {"time": 28600, "pitch": 56, "duration": 55, "velocity": 100}, {"time": 28710, "pitch": 56, "duration": 55, "velocity": 100}, {"time": 28820, "pitch": 56, "duration": 55, "velocity": 100}, {"time": 28985, "pitch": 56, "duration": 55, "velocity": 100}, {"time": 29205, "pitch": 56, "duration": 55, "velocity": 100}, {"time": 29260, "pitch": 56, "duration": 55, "velocity": 100}, {"time": 29535, "pitch": 56, "duration": 55, "velocity": 100}, {"time": 29590, "pitch": 61, "duration": 55, "velocity": 100}, {"time": 29755, "pitch": 58, "duration": 55, "velocity": 100}, {"time": 29810, "pitch": 61, "duration": 55, "velocity": 100}, {"time": 30030, "pitch": 60, "duration": 110, "velocity": 100}, {"time": 30195, "pitch": 60, "duration": 55, "velocity": 100}, {"time": 30360, "pitch": 63, "duration": 110, "velocity": 100}, {"time": 30580, "pitch": 60, "duration": 55, "velocity": 100}, {"time": 30690, "pitch": 60, "duration": 55, "velocity": 100}, {"time": 30910, "pitch": 56, "duration": 165, "velocity": 100}, {"time": 31075, "pitch": 60, "duration": 55, "velocity": 100}, {"time": 31460, "pitch": 60, "duration": 55, "velocity": 100}, {"time": 31460, "pitch": 63, "duration": 55, "velocity": 100}, {"time": 31515, "pitch": 56, "duration": 55, "velocity": 100}, {"time": 31570, "pitch": 60, "duration": 55, "velocity": 100}, {"time": 31790, "pitch": 53, "duration": 55, "velocity": 100}, {"time": 31845, "pitch": 53, "duration": 55, "velocity": 100}, {"time": 31955, "pitch": 53, "duration": 55, "velocity": 100}, {"time": 31955, "pitch": 58, "duration": 55, "velocity": 100}, {"time": 32120, "pitch": 58, "duration": 110, "velocity": 100}, {"time": 32340, "pitch": 58, "duration": 55, "velocity": 100}, {"time": 32450, "pitch": 58, "duration": 55, "velocity": 100}, {"time": 32670, "pitch": 58, "duration": 110, "velocity": 100}, {"time": 32835, "pitch": 58, "duration": 55, "velocity": 100}, {"time": 33110, "pitch": 61, "duration": 55, "velocity": 100}, {"time": 33220, "pitch": 58, "duration": 55, "velocity": 100}, {"time": 33220, "pitch": 61, "duration": 55, "velocity": 100}, {"time": 33330, "pitch": 58, "duration": 55, "velocity": 100}, {"time": 33880, "pitch": 61, "duration": 165, "velocity": 100}, {"time": 33990, "pitch": 58, "duration": 165, "velocity": 100}, {"time": 34100, "pitch": 61, "duration": 55, "velocity": 100}, {"time": 34210, "pitch": 61, "duration": 55, "velocity": 100}, {"time": 34320, "pitch": 58, "duration": 55, "velocity": 100}, {"time": 34320, "pitch": 61, "duration": 55, "velocity": 100}, {"time": 34540, "pitch": 61, "duration": 55, "velocity": 100}, {"time": 34650, "pitch": 61, "duration": 55, "velocity": 100}, {"time": 34760, "pitch": 58, "duration": 110, "velocity": 100}, {"time": 35090, "pitch": 53, "duration": 55, "velocity": 100}, {"time": 35365, "pitch": 56, "duration": 110, "velocity": 100}, {"time": 35530, "pitch": 61, "duration": 165, "velocity": 100}, {"time": 35695, "pitch": 56, "duration": 110, "velocity": 100}, {"time": 36300, "pitch": 61, "duration": 110, "velocity": 100}, {"time": 36465, "pitch": 61, "duration": 55, "velocity": 100}, {"time": 36520, "pitch": 61, "duration": 110, "velocity": 100}, {"time": 36740, "pitch": 61, "duration": 110, "velocity": 100}, {"time": 36850, "pitch": 56, "duration": 110, "velocity": 100}, {"time": 37070, "pitch": 61, "duration": 110, "velocity": 100}, {"time": 37180, "pitch": 65, "duration": 55, "velocity": 100}, {"time": 37235, "pitch": 61, "duration": 55, "velocity": 100}, {"time": 37290, "pitch": 65, "duration": 55, "velocity": 100}, {"time": 37400, "pitch": 61, "duration": 55, "velocity": 100}, {"time": 37510, "pitch": 61, "duration": 110, "velocity": 100}, {"time": 37565, "pitch": 65, "duration": 55, "velocity": 100}, {"time": 37730, "pitch": 65, "duration": 55, "velocity": 100}, {"time": 37840, "pitch": 61, "duration": 110, "velocity": 100}, {"time": 37950, "pitch": 61, "duration": 55, "velocity": 100}, {"time": 38115, "pitch": 61, "duration": 55, "velocity": 100}, {"time": 38170, "pitch": 56, "duration": 110, "velocity": 100}, {"time": 38280, "pitch": 61, "duration": 165, "velocity": 100}, {"time": 38500, "pitch": 61, "duration": 110, "velocity": 100}, {"time": 38720, "pitch": 65, "duration": 110, "velocity": 100}, {"time": 39270, "pitch": 61, "duration": 165, "velocity": 100}, {"time": 39325, "pitch": 65, "duration": 55, "velocity": 100}, {"time": 39435, "pitch": 65, "duration": 55, "velocity": 100}, {"time": 39435, "pitch": 68, "duration": 55, "velocity": 100}, {"time": 39490, "pitch": 65, "duration": 55, "velocity": 100}, {"time": 39600, "pitch": 61, "duration": 110, "velocity": 100}, {"time": 39765, "pitch": 61, "duration": 110, "velocity": 100}, {"time": 39930, "pitch": 61, "duration": 55, "velocity": 100}, {"time": 39985, "pitch": 61, "duration": 220, "velocity": 100}, {"time": 40150, "pitch": 49, "duration": 220, "velocity": 100}, {"time": 40755, "pitch": 56, "duration": 110, "velocity": 100}, {"time": 40975, "pitch": 53, "duration": 55, "velocity": 100}, {"time": 41030, "pitch": 56, "duration": 110, "velocity": 100}, {"time": 41470, "pitch": 61, "duration": 55, "velocity": 100}, {"time": 41580, "pitch": 61, "duration": 55, "velocity": 100}, {"time": 41690, "pitch": 61, "duration": 55, "velocity": 100}, {"time": 42020, "pitch": 56, "duration": 55, "velocity": 100}, {"time": 42240, "pitch": 55, "duration": 55, "velocity": 100}, {"time": 42460, "pitch": 53, "duration": 55, "velocity": 100}, {"time": 42570, "pitch": 51, "duration": 110, "velocity": 100}, {"time": 42680, "pitch": 43, "duration": 330, "velocity": 100}, {"time": 42845, "pitch": 55, "duration": 55, "velocity": 100}, {"time": 42955, "pitch": 49, "duration": 55, "velocity": 100}, {"time": 43395, "pitch": 49, "duration": 55, "velocity": 100}, {"time": 43780, "pitch": 56, "duration": 55, "velocity": 100}, {"time": 43890, "pitch": 51, "duration": 55, "velocity": 100}, {"time": 44220, "pitch": 55, "duration": 55, "velocity": 100}, {"time": 44220, "pitch": 59, "duration": 55, "velocity": 100}, {"time": 44275, "pitch": 50, "duration": 55, "velocity": 100}, {"time": 44440, "pitch": 50, "duration": 165, "velocity": 100}, {"time": 44550, "pitch": 50, "duration": 110, "velocity": 100}, {"time": 44660, "pitch": 50, "duration": 110, "velocity": 100}, {"time": 44770, "pitch": 47, "duration": 55, "velocity": 100}, {"time": 45045, "pitch": 55, "duration": 55, "velocity": 100}, {"time": 45100, "pitch": 55, "duration": 55, "velocity": 100}, {"time": 45155, "pitch": 50, "duration": 55, "velocity": 100}, {"time": 45485, "pitch": 51, "duration": 110, "velocity": 100}, {"time": 45650, "pitch": 56, "duration": 55, "velocity": 100}, {"time": 45705, "pitch": 56, "duration": 55, "velocity": 100}, {"time": 45760, "pitch": 51, "duration": 55, "velocity": 100}, {"time": 45870, "pitch": 56, "duration": 55, "velocity": 100}, {"time": 45870, "pitch": 63, "duration": 55, "velocity": 100}, {"time": 45980, "pitch": 51, "duration": 55, "velocity": 100}, {"time": 46090, "pitch": 51, "duration": 55, "velocity": 100}, {"time": 46420, "pitch": 63, "duration": 55, "velocity": 100}, {"time": 46640, "pitch": 60, "duration": 55, "velocity": 100}, {"time": 46750, "pitch": 60, "duration": 55, "velocity": 100}, {"time": 46860, "pitch": 60, "duration": 55, "velocity": 100}, {"time": 46970, "pitch": 56, "duration": 55, "velocity": 100}, {"time": 47025, "pitch": 60, "duration": 55, "velocity": 100}, {"time": 47080, "pitch": 56, "duration": 110, "velocity": 100}, {"time": 47300, "pitch": 56, "duration": 55, "velocity": 100}, {"time": 47355, "pitch": 53, "duration": 55, "velocity": 100}, {"time": 47410, "pitch": 56, "duration": 55, "velocity": 100}, {"time": 47520, "pitch": 56, "duration": 55, "velocity": 100}, {"time": 47630, "pitch": 56, "duration": 110, "velocity": 100}, {"time": 47850, "pitch": 56, "duration": 55, "velocity": 100}, {"time": 47960, "pitch": 56, "duration": 55, "velocity": 100}, {"time": 48070, "pitch": 58, "duration": 55, "velocity": 100}, {"time": 48125, "pitch": 61, "duration": 55, "velocity": 100}, {"time": 48235, "pitch": 53, "duration": 110, "velocity": 100}, {"time": 48510, "pitch": 56, "duration": 110, "velocity": 100}, {"time": 48620, "pitch": 58, "duration": 55, "velocity": 100}, {"time": 48620, "pitch": 61, "duration": 110, "velocity": 100}, {"time": 48675, "pitch": 53, "duration": 55, "velocity": 100}, {"time": 48840, "pitch": 56, "duration": 55, "velocity": 100}, {"time": 48950, "pitch": 56, "duration": 110, "velocity": 100}, {"time": 49115, "pitch": 51, "duration": 110, "velocity": 100}, {"time": 49280, "pitch": 55, "duration": 55, "velocity": 100}, {"time": 49500, "pitch": 55, "duration": 55, "velocity": 100}, {"time": 49610, "pitch": 55, "duration": 55, "velocity": 100}, {"time": 49720, "pitch": 55, "duration": 110, "velocity": 100}, {"time": 49940, "pitch": 58, "duration": 55, "velocity": 100}, {"time": 50050, "pitch": 51, "duration": 55, "velocity": 100}, {"time": 50160, "pitch": 58, "duration": 110, "velocity": 100}, {"time": 50270, "pitch": 55, "duration": 110, "velocity": 100}, {"time": 50490, "pitch": 58, "duration": 55, "velocity": 100}, {"time": 50600, "pitch": 58, "duration": 110, "velocity": 100}, {"time": 50820, "pitch": 58, "duration": 55, "velocity": 100}, {"time": 51150, "pitch": 51, "duration": 275, "velocity": 100}, {"time": 51590, "pitch": 51, "duration": 110, "velocity": 100}, {"time": 51755, "pitch": 56, "duration": 55, "velocity": 100}, {"time": 52030, "pitch": 51, "duration": 275, "velocity": 100}, {"time": 52250, "pitch": 56, "duration": 55, "velocity": 100}, {"time": 52525, "pitch": 51, "duration": 165, "velocity": 100}, {"time": 52910, "pitch": 51, "duration": 165, "velocity": 100}, {"time": 53020, "pitch": 56, "duration": 55, "velocity": 100}, {"time": 53130, "pitch": 56, "duration": 55, "velocity": 100}, {"time": 53350, "pitch": 51, "duration": 165, "velocity": 100}, {"time": 53405, "pitch": 56, "duration": 110, "velocity": 100}, {"time": 53570, "pitch": 56, "duration": 55, "velocity": 100}, {"time": 54010, "pitch": 55, "duration": 55, "velocity": 100}, {"time": 54230, "pitch": 53, "duration": 165, "velocity": 100}, {"time": 54560, "pitch": 48, "duration": 330, "velocity": 100}, {"time": 54670, "pitch": 56, "duration": 110, "velocity": 100}, {"time": 54890, "pitch": 56, "duration": 55, "velocity": 100}, {"time": 55165, "pitch": 51, "duration": 165, "velocity": 100}, {"time": 55495, "pitch": 51, "duration": 55, "velocity": 100}, {"time": 55880, "pitch": 56, "duration": 110, "velocity": 100}, {"time": 56045, "pitch": 56, "duration": 110, "velocity": 100}, {"time": 56210, "pitch": 56, "duration": 55, "velocity": 100}, {"time": 56265, "pitch": 51, "duration": 55, "velocity": 100}, {"time": 56815, "pitch": 58, "duration": 55, "velocity": 100}, {"time": 57145, "pitch": 58, "duration": 55, "velocity": 100}, {"time": 57365, "pitch": 51, "duration": 165, "velocity": 100}, {"time": 57530, "pitch": 58, "duration": 110, "velocity": 100}, {"time": 57640, "pitch": 58, "duration": 165, "velocity": 100}, {"time": 57860, "pitch": 58, "duration": 110, "velocity": 100}, {"time": 57970, "pitch": 58, "duration": 110, "velocity": 100}, {"time": 58080, "pitch": 51, "duration": 165, "velocity": 100}, {"time": 58300, "pitch": 51, "duration": 55, "velocity": 100}, {"time": 58465, "pitch": 51, "duration": 55, "velocity": 100}, {"time": 58520, "pitch": 44, "duration": 275, "velocity": 100}, {"time": 58685, "pitch": 51, "duration": 55, "velocity": 100}, {"time": 58740, "pitch": 51, "duration": 55, "velocity": 100}, {"time": 59180, "pitch": 56, "duration": 55, "velocity": 100}, {"time": 59235, "pitch": 51, "duration": 55, "velocity": 100}, {"time": 59565, "pitch": 56, "duration": 55, "velocity": 100}, {"time": 59620, "pitch": 56, "duration": 110, "velocity": 100}, {"time": 59730, "pitch": 56, "duration": 55, "velocity": 100}, {"time": 59840, "pitch": 51, "duration": 55, "velocity": 100}, {"time": 59950, "pitch": 51, "duration": 55, "velocity": 100}, {"time": 60005, "pitch": 56, "duration": 110, "velocity": 100}, {"time": 60115, "pitch": 51, "duration": 55, "velocity": 100}, {"time": 60280, "pitch": 44, "duration": 275, "velocity": 100}, {"time": 60500, "pitch": 51, "duration": 55, "velocity": 100}, {"time": 60720, "pitch": 51, "duration": 110, "velocity": 100}, {"time": 60885, "pitch": 55, "duration": 110, "velocity": 100}, {"time": 61160, "pitch": 51, "duration": 55, "velocity": 100}, {"time": 61435, "pitch": 63, "duration": 55, "velocity": 100}, {"time": 61490, "pitch": 55, "duration": 55, "velocity": 100}, {"time": 61600, "pitch": 51, "duration": 110, "velocity": 100}, {"time": 61765, "pitch": 51, "duration": 110, "velocity": 100}, {"time": 61875, "pitch": 56, "duration": 110, "velocity": 100}, {"time": 61985, "pitch": 51, "duration": 220, "velocity": 100}, {"time": 62205, "pitch": 48, "duration": 55, "velocity": 100}, {"time": 62260, "pitch": 48, "duration": 110, "velocity": 100}, {"time": 62315, "pitch": 56, "duration": 165, "velocity": 100}, {"time": 62425, "pitch": 51, "duration": 55, "velocity": 100}, {"time": 62535, "pitch": 39, "duration": 55, "velocity": 100}, {"time": 62645, "pitch": 48, "duration": 55, "velocity": 100}, {"time": 62700, "pitch": 39, "duration": 165, "velocity": 100}, {"time": 62810, "pitch": 51, "duration": 110, "velocity": 100}, {"time": 62920, "pitch": 32, "duration": 220, "velocity": 100}, {"time": 62975, "pitch": 44, "duration": 165, "velocity": 100}, {"time": 63140, "pitch": 44, "duration": 110, "velocity": 100}, {"time": 63580, "pitch": 53, "duration": 55, "velocity": 100}, {"time": 63690, "pitch": 53, "duration": 55, "velocity": 100}, {"time": 64020, "pitch": 50, "duration": 110, "velocity": 100}, {"time": 64020, "pitch": 53, "duration": 220, "velocity": 100}, {"time": 64240, "pitch": 51, "duration": 165, "velocity": 100}, {"time": 64240, "pitch": 55, "duration": 165, "velocity": 100}, {"time": 64460, "pitch": 51, "duration": 55, "velocity": 100}, {"time": 64570, "pitch": 51, "duration": 55, "velocity": 100}, {"time": 64845, "pitch": 51, "duration": 55, "velocity": 100}, {"time": 64900, "pitch": 51, "duration": 55, "velocity": 100}, {"time": 65120, "pitch": 51, "duration": 55, "velocity": 100}, {"time": 65230, "pitch": 56, "duration": 55, "velocity": 100}, {"time": 65285, "pitch": 56, "duration": 55, "velocity": 100}, {"time": 65340, "pitch": 51, "duration": 165, "velocity": 100}, {"time": 65505, "pitch": 56, "duration": 55, "velocity": 100}, {"time": 65560, "pitch": 51, "duration": 110, "velocity": 100}, {"time": 65725, "pitch": 51, "duration": 55, "velocity": 100}, {"time": 65780, "pitch": 51, "duration": 55, "velocity": 100}, {"time": 65835, "pitch": 51, "duration": 55, "velocity": 100}, {"time": 66055, "pitch": 56, "duration": 165, "velocity": 100}, {"time": 66110, "pitch": 60, "duration": 55, "velocity": 100}, {"time": 66275, "pitch": 56, "duration": 55, "velocity": 100}, {"time": 66330, "pitch": 60, "duration": 55, "velocity": 100}, {"time": 66550, "pitch": 56, "duration": 110, "velocity": 100}, {"time": 66715, "pitch": 56, "duration": 55, "velocity": 100}, {"time": 66880, "pitch": 60, "duration": 110, "velocity": 100}, {"time": 67100, "pitch": 56, "duration": 55, "velocity": 100}, {"time": 67430, "pitch": 53, "duration": 110, "velocity": 100}, {"time": 67430, "pitch": 60, "duration": 55, "velocity": 100}, {"time": 67595, "pitch": 53, "duration": 55, "velocity": 100}, {"time": 67760, "pitch": 49, "duration": 330, "velocity": 100}, {"time": 67870, "pitch": 56, "duration": 110, "velocity": 100}, {"time": 67980, "pitch": 61, "duration": 55, "velocity": 100}, {"time": 67980, "pitch": 65, "duration": 55, "velocity": 100}, {"time": 68035, "pitch": 56, "duration": 55, "velocity": 100}, {"time": 68090, "pitch": 56, "duration": 55, "velocity": 100}, {"time": 68255, "pitch": 44, "duration": 165, "velocity": 100}, {"time": 68310, "pitch": 53, "duration": 55, "velocity": 100}, {"time": 68365, "pitch": 53, "duration": 55, "velocity": 100}, {"time": 68585, "pitch": 53, "duration": 55, "velocity": 100}, {"time": 68640, "pitch": 55, "duration": 165, "velocity": 100}, {"time": 68860, "pitch": 55, "duration": 55, "velocity": 100}, {"time": 69190, "pitch": 55, "duration": 110, "velocity": 100}, {"time": 69300, "pitch": 58, "duration": 55, "velocity": 100}, {"time": 69355, "pitch": 55, "duration": 55, "velocity": 100}, {"time": 69410, "pitch": 51, "duration": 55, "velocity": 100}, {"time": 69520, "pitch": 48, "duration": 275, "velocity": 100}, {"time": 69630, "pitch": 60, "duration": 55, "velocity": 100}, {"time": 69740, "pitch": 60, "duration": 55, "velocity": 100}, {"time": 69850, "pitch": 55, "duration": 110, "velocity": 100}, {"time": 70400, "pitch": 58, "duration": 165, "velocity": 100}, {"time": 70620, "pitch": 58, "duration": 55, "velocity": 100}, {"time": 70730, "pitch": 58, "duration": 55, "velocity": 100}, {"time": 70840, "pitch": 58, "duration": 55, "velocity": 100}, {"time": 71060, "pitch": 58, "duration": 55, "velocity": 100}, {"time": 71060, "pitch": 61, "duration": 55, "velocity": 100}, {"time": 71170, "pitch": 58, "duration": 55, "velocity": 100}, {"time": 71280, "pitch": 51, "duration": 110, "velocity": 100}, {"time": 71500, "pitch": 51, "duration": 55, "velocity": 100}, {"time": 71610, "pitch": 46, "duration": 55, "velocity": 100}, {"time": 71830, "pitch": 46, "duration": 275, "velocity": 100}]}, {"program": 71, "is_drum": false, "name": "Bass", "notes": [{"time": 0, "pitch": 44, "duration": 385, "velocity": 100}, {"time": 110, "pitch": 51, "duration": 275, "velocity": 100}, {"time": 220, "pitch": 56, "duration": 165, "velocity": 100}, {"time": 440, "pitch": 44, "duration": 385, "velocity": 100}, {"time": 550, "pitch": 51, "duration": 110, "velocity": 100}, {"time": 880, "pitch": 44, "duration": 385, "velocity": 100}, {"time": 990, "pitch": 51, "duration": 275, "velocity": 100}, {"time": 1320, "pitch": 44, "duration": 385, "velocity": 100}, {"time": 1485, "pitch": 51, "duration": 165, "velocity": 100}, {"time": 1760, "pitch": 44, "duration": 385, "velocity": 100}, {"time": 1870, "pitch": 51, "duration": 165, "velocity": 100}, {"time": 1980, "pitch": 56, "duration": 55, "velocity": 100}, {"time": 2090, "pitch": 56, "duration": 55, "velocity": 100}, {"time": 2200, "pitch": 44, "duration": 330, "velocity": 100}, {"time": 2310, "pitch": 51, "duration": 165, "velocity": 100}, {"time": 2365, "pitch": 56, "duration": 110, "velocity": 100}, {"time": 2530, "pitch": 56, "duration": 55, "velocity": 100}, {"time": 2640, "pitch": 43, "duration": 385, "velocity": 100}, {"time": 2750, "pitch": 51, "duration": 275, "velocity": 100}, {"time": 2970, "pitch": 55, "duration": 55, "velocity": 100}, {"time": 3080, "pitch": 43, "duration": 330, "velocity": 100}, {"time": 3190, "pitch": 53, "duration": 165, "velocity": 100}, {"time": 3300, "pitch": 55, "duration": 55, "velocity": 100}, {"time": 3520, "pitch": 48, "duration": 330, "velocity": 100}, {"time": 3630, "pitch": 56, "duration": 110, "velocity": 100}, {"time": 3850, "pitch": 56, "duration": 55, "velocity": 100}, {"time": 3960, "pitch": 32, "duration": 330, "velocity": 100}, {"time": 4070, "pitch": 44, "duration": 165, "velocity": 100}, {"time": 4125, "pitch": 51, "duration": 165, "velocity": 100}, {"time": 4345, "pitch": 51, "duration": 55, "velocity": 100}, {"time": 4400, "pitch": 44, "duration": 165, "velocity": 100}, {"time": 4455, "pitch": 51, "duration": 55, "velocity": 100}, {"time": 4620, "pitch": 44, "duration": 165, "velocity": 100}, {"time": 4840, "pitch": 44, "duration": 330, "velocity": 100}, {"time": 4950, "pitch": 51, "duration": 165, "velocity": 100}, {"time": 5170, "pitch": 56, "duration": 55, "velocity": 100}, {"time": 5225, "pitch": 51, "duration": 55, "velocity": 100}, {"time": 5280, "pitch": 46, "duration": 275, "velocity": 100}, {"time": 5390, "pitch": 53, "duration": 165, "velocity": 100}, {"time": 5720, "pitch": 46, "duration": 220, "velocity": 100}, {"time": 5940, "pitch": 46, "duration": 110, "velocity": 100}, {"time": 6160, "pitch": 39, "duration": 385, "velocity": 100}, {"time": 6270, "pitch": 46, "duration": 330, "velocity": 100}, {"time": 6600, "pitch": 39, "duration": 440, "velocity": 100}, {"time": 6820, "pitch": 58, "duration": 110, "velocity": 100}, {"time": 6930, "pitch": 58, "duration": 110, "velocity": 100}, {"time": 7040, "pitch": 39, "duration": 385, "velocity": 100}, {"time": 7150, "pitch": 48, "duration": 165, "velocity": 100}, {"time": 7260, "pitch": 51, "duration": 55, "velocity": 100}, {"time": 7370, "pitch": 44, "duration": 110, "velocity": 100}, {"time": 7425, "pitch": 51, "duration": 55, "velocity": 100}, {"time": 7480, "pitch": 44, "duration": 275, "velocity": 100}, {"time": 7590, "pitch": 48, "duration": 165, "velocity": 100}, {"time": 7810, "pitch": 48, "duration": 110, "velocity": 100}, {"time": 7920, "pitch": 44, "duration": 275, "velocity": 100}, {"time": 8030, "pitch": 51, "duration": 110, "velocity": 100}, {"time": 8195, "pitch": 51, "duration": 55, "velocity": 100}, {"time": 8360, "pitch": 44, "duration": 330, "velocity": 100}, {"time": 8470, "pitch": 51, "duration": 110, "velocity": 100}, {"time": 8800, "pitch": 32, "duration": 385, "velocity": 100}, {"time": 8855, "pitch": 39, "duration": 165, "velocity": 100}, {"time": 8965, "pitch": 56, "duration": 110, "velocity": 100}, {"time": 9075, "pitch": 51, "duration": 55, "velocity": 100}, {"time": 9130, "pitch": 44, "duration": 110, "velocity": 100}, {"time": 9240, "pitch": 44, "duration": 275, "velocity": 100}, {"time": 9350, "pitch": 48, "duration": 165, "velocity": 100}, {"time": 9460, "pitch": 51, "duration": 55, "velocity": 100}, {"time": 9680, "pitch": 39, "duration": 275, "velocity": 100}, {"time": 9790, "pitch": 46, "duration": 220, "velocity": 100}, {"time": 10120, "pitch": 39, "duration": 330, "velocity": 100}, {"time": 10230, "pitch": 49, "duration": 110, "velocity": 100}, {"time": 10395, "pitch": 51, "duration": 55, "velocity": 100}, {"time": 10450, "pitch": 55, "duration": 55, "velocity": 100}, {"time": 10560, "pitch": 44, "duration": 385, "velocity": 100}, {"time": 10670, "pitch": 48, "duration": 110, "velocity": 100}, {"time": 10725, "pitch": 51, "duration": 110, "velocity": 100}, {"time": 10890, "pitch": 48, "duration": 55, "velocity": 100}, {"time": 10945, "pitch": 51, "duration": 220, "velocity": 100}, {"time": 11000, "pitch": 32, "duration": 385, "velocity": 100}, {"time": 11110, "pitch": 39, "duration": 275, "velocity": 100}, {"time": 11165, "pitch": 48, "duration": 55, "velocity": 100}, {"time": 11330, "pitch": 51, "duration": 55, "velocity": 100}, {"time": 11440, "pitch": 32, "duration": 165, "velocity": 100}, {"time": 11605, "pitch": 48, "duration": 55, "velocity": 100}, {"time": 11880, "pitch": 32, "duration": 220, "velocity": 100}, {"time": 12100, "pitch": 44, "duration": 110, "velocity": 100}, {"time": 12320, "pitch": 41, "duration": 275, "velocity": 100}, {"time": 12430, "pitch": 49, "duration": 55, "velocity": 100}, {"time": 12760, "pitch": 34, "duration": 220, "velocity": 100}, {"time": 12870, "pitch": 41, "duration": 110, "velocity": 100}, {"time": 13200, "pitch": 39, "duration": 385, "velocity": 100}, {"time": 13310, "pitch": 46, "duration": 110, "velocity": 100}, {"time": 13475, "pitch": 46, "duration": 55, "velocity": 100}, {"time": 13640, "pitch": 44, "duration": 275, "velocity": 100}, {"time": 13750, "pitch": 44, "duration": 165, "velocity": 100}, {"time": 13915, "pitch": 44, "duration": 55, "velocity": 100}, {"time": 13970, "pitch": 44, "duration": 55, "velocity": 100}, {"time": 14135, "pitch": 51, "duration": 220, "velocity": 100}, {"time": 14245, "pitch": 56, "duration": 55, "velocity": 100}, {"time": 14300, "pitch": 51, "duration": 165, "velocity": 100}, {"time": 14465, "pitch": 56, "duration": 55, "velocity": 100}, {"time": 14520, "pitch": 44, "duration": 275, "velocity": 100}, {"time": 14630, "pitch": 48, "duration": 165, "velocity": 100}, {"time": 14740, "pitch": 51, "duration": 55, "velocity": 100}, {"time": 15400, "pitch": 44, "duration": 275, "velocity": 100}, {"time": 15840, "pitch": 36, "duration": 275, "velocity": 100}, {"time": 15950, "pitch": 48, "duration": 110, "velocity": 100}, {"time": 16115, "pitch": 48, "duration": 55, "velocity": 100}, {"time": 16280, "pitch": 41, "duration": 275, "velocity": 100}, {"time": 16390, "pitch": 53, "duration": 110, "velocity": 100}, {"time": 16555, "pitch": 53, "duration": 55, "velocity": 100}, {"time": 16610, "pitch": 48, "duration": 55, "velocity": 100}, {"time": 16720, "pitch": 49, "duration": 330, "velocity": 100}, {"time": 17160, "pitch": 37, "duration": 275, "velocity": 100}, {"time": 17380, "pitch": 49, "duration": 55, "velocity": 100}, {"time": 17435, "pitch": 46, "duration": 55, "velocity": 100}, {"time": 17490, "pitch": 46, "duration": 55, "velocity": 100}, {"time": 17600, "pitch": 39, "duration": 275, "velocity": 100}, {"time": 17710, "pitch": 46, "duration": 110, "velocity": 100}, {"time": 17875, "pitch": 46, "duration": 55, "velocity": 100}, {"time": 18040, "pitch": 39, "duration": 275, "velocity": 100}, {"time": 18150, "pitch": 55, "duration": 110, "velocity": 100}, {"time": 18370, "pitch": 51, "duration": 55, "velocity": 100}, {"time": 18480, "pitch": 48, "duration": 275, "velocity": 100}, {"time": 18535, "pitch": 55, "duration": 55, "velocity": 100}, {"time": 18920, "pitch": 48, "duration": 275, "velocity": 100}, {"time": 19360, "pitch": 46, "duration": 715, "velocity": 100}, {"time": 19470, "pitch": 53, "duration": 165, "velocity": 100}, {"time": 20240, "pitch": 39, "duration": 385, "velocity": 100}, {"time": 20350, "pitch": 46, "duration": 275, "velocity": 100}, {"time": 20680, "pitch": 39, "duration": 440, "velocity": 100}, {"time": 20735, "pitch": 46, "duration": 330, "velocity": 100}, {"time": 21120, "pitch": 44, "duration": 55, "velocity": 100}, {"time": 21230, "pitch": 44, "duration": 275, "velocity": 100}, {"time": 21450, "pitch": 51, "duration": 110, "velocity": 100}, {"time": 21560, "pitch": 44, "duration": 275, "velocity": 100}, {"time": 21670, "pitch": 48, "duration": 165, "velocity": 100}, {"time": 21780, "pitch": 51, "duration": 110, "velocity": 100}, {"time": 21890, "pitch": 44, "duration": 110, "velocity": 100}, {"time": 22000, "pitch": 44, "duration": 275, "velocity": 100}, {"time": 22110, "pitch": 51, "duration": 165, "velocity": 100}, {"time": 22440, "pitch": 44, "duration": 275, "velocity": 100}, {"time": 22550, "pitch": 51, "duration": 110, "velocity": 100}, {"time": 22880, "pitch": 46, "duration": 385, "velocity": 100}, {"time": 22990, "pitch": 53, "duration": 110, "velocity": 100}, {"time": 23045, "pitch": 56, "duration": 55, "velocity": 100}, {"time": 23320, "pitch": 46, "duration": 385, "velocity": 100}, {"time": 23375, "pitch": 49, "duration": 220, "velocity": 100}, {"time": 23650, "pitch": 46, "duration": 55, "velocity": 100}, {"time": 23760, "pitch": 46, "duration": 275, "velocity": 100}, {"time": 23870, "pitch": 49, "duration": 165, "velocity": 100}, {"time": 24200, "pitch": 34, "duration": 275, "velocity": 100}, {"time": 24310, "pitch": 41, "duration": 165, "velocity": 100}, {"time": 24640, "pitch": 46, "duration": 385, "velocity": 100}, {"time": 24750, "pitch": 53, "duration": 55, "velocity": 100}, {"time": 24915, "pitch": 53, "duration": 55, "velocity": 100}, {"time": 25080, "pitch": 46, "duration": 385, "velocity": 100}, {"time": 25190, "pitch": 49, "duration": 110, "velocity": 100}, {"time": 25410, "pitch": 49, "duration": 55, "velocity": 100}, {"time": 25520, "pitch": 34, "duration": 275, "velocity": 100}, {"time": 25960, "pitch": 46, "duration": 165, "velocity": 100}, {"time": 26180, "pitch": 41, "duration": 220, "velocity": 100}, {"time": 26400, "pitch": 34, "duration": 275, "velocity": 100}, {"time": 26455, "pitch": 41, "duration": 110, "velocity": 100}, {"time": 26510, "pitch": 46, "duration": 110, "velocity": 100}, {"time": 26840, "pitch": 46, "duration": 220, "velocity": 100}, {"time": 26950, "pitch": 53, "duration": 55, "velocity": 100}, {"time": 27280, "pitch": 39, "duration": 220, "velocity": 100}, {"time": 27390, "pitch": 46, "duration": 55, "velocity": 100}, {"time": 27500, "pitch": 46, "duration": 110, "velocity": 100}, {"time": 27720, "pitch": 39, "duration": 385, "velocity": 100}, {"time": 27830, "pitch": 46, "duration": 110, "velocity": 100}, {"time": 28435, "pitch": 51, "duration": 165, "velocity": 100}, {"time": 28600, "pitch": 44, "duration": 385, "velocity": 100}, {"time": 28655, "pitch": 51, "duration": 55, "velocity": 100}, {"time": 29040, "pitch": 46, "duration": 220, "velocity": 100}, {"time": 29150, "pitch": 53, "duration": 165, "velocity": 100}, {"time": 29315, "pitch": 53, "duration": 55, "velocity": 100}, {"time": 29480, "pitch": 46, "duration": 275, "velocity": 100}, {"time": 29920, "pitch": 48, "duration": 275, "velocity": 100}, {"time": 30360, "pitch": 32, "duration": 275, "velocity": 100}, {"time": 30470, "pitch": 51, "duration": 110, "velocity": 100}, {"time": 30635, "pitch": 44, "duration": 55, "velocity": 100}, {"time": 30800, "pitch": 48, "duration": 275, "velocity": 100}, {"time": 31130, "pitch": 51, "duration": 55, "velocity": 100}, {"time": 31240, "pitch": 44, "duration": 275, "velocity": 100}, {"time": 31350, "pitch": 56, "duration": 110, "velocity": 100}, {"time": 31680, "pitch": 42, "duration": 330, "velocity": 100}, {"time": 31735, "pitch": 49, "duration": 110, "velocity": 100}, {"time": 31900, "pitch": 46, "duration": 55, "velocity": 100}, {"time": 32010, "pitch": 46, "duration": 55, "velocity": 100}, {"time": 32120, "pitch": 46, "duration": 275, "velocity": 100}, {"time": 32230, "pitch": 49, "duration": 110, "velocity": 100}, {"time": 32395, "pitch": 46, "duration": 55, "velocity": 100}, {"time": 32560, "pitch": 46, "duration": 220, "velocity": 100}, {"time": 32615, "pitch": 53, "duration": 55, "velocity": 100}, {"time": 32890, "pitch": 53, "duration": 55, "velocity": 100}, {"time": 33000, "pitch": 46, "duration": 275, "velocity": 100}, {"time": 33440, "pitch": 46, "duration": 275, "velocity": 100}, {"time": 33880, "pitch": 46, "duration": 385, "velocity": 100}, {"time": 34760, "pitch": 46, "duration": 275, "velocity": 100}, {"time": 34870, "pitch": 49, "duration": 165, "velocity": 100}, {"time": 35200, "pitch": 41, "duration": 715, "velocity": 100}, {"time": 35310, "pitch": 49, "duration": 275, "velocity": 100}, {"time": 35530, "pitch": 56, "duration": 165, "velocity": 100}, {"time": 35640, "pitch": 49, "duration": 55, "velocity": 100}, {"time": 35750, "pitch": 49, "duration": 275, "velocity": 100}, {"time": 35970, "pitch": 56, "duration": 110, "velocity": 100}, {"time": 36080, "pitch": 49, "duration": 385, "velocity": 100}, {"time": 36190, "pitch": 56, "duration": 165, "velocity": 100}, {"time": 36410, "pitch": 56, "duration": 110, "velocity": 100}, {"time": 36520, "pitch": 49, "duration": 275, "velocity": 100}, {"time": 36630, "pitch": 56, "duration": 165, "velocity": 100}, {"time": 36960, "pitch": 53, "duration": 275, "velocity": 100}, {"time": 37400, "pitch": 49, "duration": 330, "velocity": 100}, {"time": 37840, "pitch": 49, "duration": 385, "velocity": 100}, {"time": 37895, "pitch": 56, "duration": 220, "velocity": 100}, {"time": 38280, "pitch": 49, "duration": 330, "velocity": 100}, {"time": 38390, "pitch": 56, "duration": 165, "velocity": 100}, {"time": 38720, "pitch": 37, "duration": 275, "velocity": 100}, {"time": 38830, "pitch": 49, "duration": 165, "velocity": 100}, {"time": 39160, "pitch": 49, "duration": 330, "velocity": 100}, {"time": 39600, "pitch": 49, "duration": 275, "velocity": 100}, {"time": 39710, "pitch": 56, "duration": 110, "velocity": 100}, {"time": 40040, "pitch": 44, "duration": 330, "velocity": 100}, {"time": 40480, "pitch": 49, "duration": 110, "velocity": 100}, {"time": 40700, "pitch": 49, "duration": 220, "velocity": 100}, {"time": 40920, "pitch": 49, "duration": 55, "velocity": 100}, {"time": 41360, "pitch": 49, "duration": 275, "velocity": 100}, {"time": 41800, "pitch": 49, "duration": 220, "velocity": 100}, {"time": 41910, "pitch": 49, "duration": 110, "velocity": 100}, {"time": 42240, "pitch": 37, "duration": 385, "velocity": 100}, {"time": 42350, "pitch": 46, "duration": 110, "velocity": 100}, {"time": 42515, "pitch": 49, "duration": 165, "velocity": 100}, {"time": 42790, "pitch": 49, "duration": 165, "velocity": 100}, {"time": 43120, "pitch": 31, "duration": 275, "velocity": 100}, {"time": 43230, "pitch": 46, "duration": 110, "velocity": 100}, {"time": 43560, "pitch": 44, "duration": 275, "velocity": 100}, {"time": 43670, "pitch": 51, "duration": 165, "velocity": 100}, {"time": 44000, "pitch": 31, "duration": 275, "velocity": 100}, {"time": 44110, "pitch": 38, "duration": 110, "velocity": 100}, {"time": 44440, "pitch": 43, "duration": 330, "velocity": 100}, {"time": 44880, "pitch": 43, "duration": 330, "velocity": 100}, {"time": 44990, "pitch": 50, "duration": 110, "velocity": 100}, {"time": 45320, "pitch": 36, "duration": 110, "velocity": 100}, {"time": 45430, "pitch": 47, "duration": 165, "velocity": 100}, {"time": 45760, "pitch": 44, "duration": 165, "velocity": 100}, {"time": 45870, "pitch": 44, "duration": 55, "velocity": 100}, {"time": 45980, "pitch": 44, "duration": 55, "velocity": 100}, {"time": 46090, "pitch": 44, "duration": 55, "velocity": 100}, {"time": 46200, "pitch": 44, "duration": 330, "velocity": 100}, {"time": 46255, "pitch": 51, "duration": 220, "velocity": 100}, {"time": 46475, "pitch": 51, "duration": 55, "velocity": 100}, {"time": 46640, "pitch": 44, "duration": 385, "velocity": 100}, {"time": 46695, "pitch": 51, "duration": 165, "velocity": 100}, {"time": 46860, "pitch": 56, "duration": 55, "velocity": 100}, {"time": 46915, "pitch": 51, "duration": 55, "velocity": 100}, {"time": 47080, "pitch": 44, "duration": 385, "velocity": 100}, {"time": 47190, "pitch": 51, "duration": 110, "velocity": 100}, {"time": 47520, "pitch": 46, "duration": 385, "velocity": 100}, {"time": 47575, "pitch": 53, "duration": 330, "velocity": 100}, {"time": 47960, "pitch": 46, "duration": 110, "velocity": 100}, {"time": 48180, "pitch": 46, "duration": 165, "velocity": 100}, {"time": 48400, "pitch": 46, "duration": 330, "velocity": 100}, {"time": 48840, "pitch": 46, "duration": 330, "velocity": 100}, {"time": 48895, "pitch": 53, "duration": 165, "velocity": 100}, {"time": 49280, "pitch": 43, "duration": 275, "velocity": 100}, {"time": 49390, "pitch": 51, "duration": 110, "velocity": 100}, {"time": 49555, "pitch": 51, "duration": 55, "velocity": 100}, {"time": 49720, "pitch": 49, "duration": 275, "velocity": 100}, {"time": 49830, "pitch": 53, "duration": 110, "velocity": 100}, {"time": 49995, "pitch": 51, "duration": 55, "velocity": 100}, {"time": 50160, "pitch": 39, "duration": 275, "velocity": 100}, {"time": 50270, "pitch": 46, "duration": 165, "velocity": 100}, {"time": 50600, "pitch": 39, "duration": 275, "velocity": 100}, {"time": 50710, "pitch": 51, "duration": 165, "velocity": 100}, {"time": 50930, "pitch": 46, "duration": 55, "velocity": 100}, {"time": 51040, "pitch": 44, "duration": 385, "velocity": 100}, {"time": 51480, "pitch": 44, "duration": 385, "velocity": 100}, {"time": 51920, "pitch": 44, "duration": 385, "velocity": 100}, {"time": 52360, "pitch": 44, "duration": 385, "velocity": 100}, {"time": 52800, "pitch": 44, "duration": 385, "velocity": 100}, {"time": 53240, "pitch": 44, "duration": 330, "velocity": 100}, {"time": 53680, "pitch": 43, "duration": 385, "velocity": 100}, {"time": 53790, "pitch": 51, "duration": 275, "velocity": 100}, {"time": 54120, "pitch": 43, "duration": 330, "velocity": 100}, {"time": 55000, "pitch": 32, "duration": 330, "velocity": 100}, {"time": 55110, "pitch": 44, "duration": 165, "velocity": 100}, {"time": 55385, "pitch": 51, "duration": 55, "velocity": 100}, {"time": 55440, "pitch": 44, "duration": 165, "velocity": 100}, {"time": 55660, "pitch": 44, "duration": 165, "velocity": 100}, {"time": 55880, "pitch": 44, "duration": 330, "velocity": 100}, {"time": 55990, "pitch": 51, "duration": 165, "velocity": 100}, {"time": 56320, "pitch": 46, "duration": 275, "velocity": 100}, {"time": 56760, "pitch": 46, "duration": 220, "velocity": 100}, {"time": 56980, "pitch": 46, "duration": 110, "velocity": 100}, {"time": 57200, "pitch": 39, "duration": 385, "velocity": 100}, {"time": 57310, "pitch": 46, "duration": 330, "velocity": 100}, {"time": 57640, "pitch": 39, "duration": 440, "velocity": 100}, {"time": 58080, "pitch": 39, "duration": 385, "velocity": 100}, {"time": 58190, "pitch": 48, "duration": 165, "velocity": 100}, {"time": 58410, "pitch": 44, "duration": 110, "velocity": 100}, {"time": 58630, "pitch": 48, "duration": 165, "velocity": 100}, {"time": 58850, "pitch": 48, "duration": 110, "velocity": 100}, {"time": 58960, "pitch": 44, "duration": 275, "velocity": 100}, {"time": 59070, "pitch": 51, "duration": 110, "velocity": 100}, {"time": 59400, "pitch": 44, "duration": 330, "velocity": 100}, {"time": 59510, "pitch": 51, "duration": 110, "velocity": 100}, {"time": 59840, "pitch": 32, "duration": 385, "velocity": 100}, {"time": 59895, "pitch": 39, "duration": 165, "velocity": 100}, {"time": 60170, "pitch": 44, "duration": 110, "velocity": 100}, {"time": 60390, "pitch": 48, "duration": 165, "velocity": 100}, {"time": 60720, "pitch": 39, "duration": 275, "velocity": 100}, {"time": 60830, "pitch": 46, "duration": 220, "velocity": 100}, {"time": 61160, "pitch": 39, "duration": 330, "velocity": 100}, {"time": 61270, "pitch": 49, "duration": 110, "velocity": 100}, {"time": 61435, "pitch": 51, "duration": 55, "velocity": 100}, {"time": 61600, "pitch": 44, "duration": 385, "velocity": 100}, {"time": 61710, "pitch": 48, "duration": 110, "velocity": 100}, {"time": 61930, "pitch": 48, "duration": 55, "velocity": 100}, {"time": 62040, "pitch": 32, "duration": 385, "velocity": 100}, {"time": 62150, "pitch": 39, "duration": 275, "velocity": 100}, {"time": 62370, "pitch": 51, "duration": 55, "velocity": 100}, {"time": 62480, "pitch": 32, "duration": 165, "velocity": 100}, {"time": 63360, "pitch": 41, "duration": 275, "velocity": 100}, {"time": 63470, "pitch": 49, "duration": 55, "velocity": 100}, {"time": 63800, "pitch": 34, "duration": 220, "velocity": 100}, {"time": 63910, "pitch": 41, "duration": 110, "velocity": 100}, {"time": 64020, "pitch": 41, "duration": 110, "velocity": 100}, {"time": 64240, "pitch": 39, "duration": 385, "velocity": 100}, {"time": 64350, "pitch": 46, "duration": 110, "velocity": 100}, {"time": 64515, "pitch": 46, "duration": 55, "velocity": 100}, {"time": 64680, "pitch": 44, "duration": 275, "velocity": 100}, {"time": 64790, "pitch": 44, "duration": 165, "velocity": 100}, {"time": 64955, "pitch": 44, "duration": 55, "velocity": 100}, {"time": 65010, "pitch": 44, "duration": 55, "velocity": 100}, {"time": 65120, "pitch": 44, "duration": 385, "velocity": 100}, {"time": 65175, "pitch": 51, "duration": 220, "velocity": 100}, {"time": 65560, "pitch": 44, "duration": 275, "velocity": 100}, {"time": 65670, "pitch": 48, "duration": 165, "velocity": 100}, {"time": 66000, "pitch": 44, "duration": 330, "velocity": 100}, {"time": 66440, "pitch": 44, "duration": 275, "velocity": 100}, {"time": 66880, "pitch": 36, "duration": 275, "velocity": 100}, {"time": 66990, "pitch": 48, "duration": 110, "velocity": 100}, {"time": 67155, "pitch": 48, "duration": 55, "velocity": 100}, {"time": 67320, "pitch": 41, "duration": 275, "velocity": 100}, {"time": 67650, "pitch": 48, "duration": 55, "velocity": 100}, {"time": 68200, "pitch": 37, "duration": 275, "velocity": 100}, {"time": 68420, "pitch": 49, "duration": 55, "velocity": 100}, {"time": 68475, "pitch": 46, "duration": 55, "velocity": 100}, {"time": 68530, "pitch": 46, "duration": 55, "velocity": 100}, {"time": 68640, "pitch": 39, "duration": 275, "velocity": 100}, {"time": 68750, "pitch": 46, "duration": 110, "velocity": 100}, {"time": 68915, "pitch": 46, "duration": 55, "velocity": 100}, {"time": 69080, "pitch": 39, "duration": 275, "velocity": 100}, {"time": 69575, "pitch": 55, "duration": 55, "velocity": 100}, {"time": 69960, "pitch": 48, "duration": 275, "velocity": 100}, {"time": 70400, "pitch": 46, "duration": 715, "velocity": 100}, {"time": 70510, "pitch": 53, "duration": 165, "velocity": 100}, {"time": 71280, "pitch": 39, "duration": 385, "velocity": 100}, {"time": 71390, "pitch": 46, "duration": 275, "velocity": 100}, {"time": 71720, "pitch": 39, "duration": 440, "velocity": 100}, {"time": 71775, "pitch": 46, "duration": 330, "velocity": 100}]}]}