{"metadata": {"schema_version": "0.1", "title": "None", "source_filename": "20211209_032853.mid", "source_format": "midi"}, "resolution": 220, "tempos": [{"time": 0, "qpm": 120.0}], "time_signatures": [{"time": 0, "numerator": 4, "denominator": 4}], "tracks": [{"program": 0, "is_drum": false, "name": "Piano", "notes": [{"time": 0, "pitch": 67, "duration": 220, "velocity": 100}]}, {"program": 24, "is_drum": false, "name": "Guitar", "notes": [{"time": 110, "pitch": 50, "duration": 55, "velocity": 100}, {"time": 165, "pitch": 55, "duration": 55, "velocity": 100}, {"time": 220, "pitch": 59, "duration": 55, "velocity": 100}, {"time": 220, "pitch": 67, "duration": 165, "velocity": 100}, {"time": 275, "pitch": 55, "duration": 55, "velocity": 100}, {"time": 330, "pitch": 50, "duration": 55, "velocity": 100}, {"time": 385, "pitch": 55, "duration": 110, "velocity": 100}, {"time": 385, "pitch": 71, "duration": 55, "velocity": 100}, {"time": 440, "pitch": 62, "duration": 220, "velocity": 100}, {"time": 550, "pitch": 54, "duration": 55, "velocity": 100}, {"time": 605, "pitch": 50, "duration": 55, "velocity": 100}, {"time": 660, "pitch": 60, "duration": 55, "velocity": 100}, {"time": 660, "pitch": 62, "duration": 110, "velocity": 100}, {"time": 770, "pitch": 54, "duration": 55, "velocity": 100}, {"time": 770, "pitch": 64, "duration": 110, "velocity": 100}, {"time": 880, "pitch": 67, "duration": 165, "velocity": 100}, {"time": 1045, "pitch": 55, "duration": 55, "velocity": 100}, {"time": 1045, "pitch": 66, "duration": 55, "velocity": 100}, {"time": 1100, "pitch": 59, "duration": 55, "velocity": 100}, {"time": 1100, "pitch": 67, "duration": 165, "velocity": 100}, {"time": 1155, "pitch": 55, "duration": 55, "velocity": 100}, {"time": 1210, "pitch": 50, "duration": 55, "velocity": 100}, {"time": 1265, "pitch": 55, "duration": 55, "velocity": 100}, {"time": 1265, "pitch": 69, "duration": 55, "velocity": 100}, {"time": 1320, "pitch": 71, "duration": 440, "velocity": 100}, {"time": 1430, "pitch": 55, "duration": 55, "velocity": 100}, {"time": 1485, "pitch": 79, "duration": 55, "velocity": 100}, {"time": 1540, "pitch": 59, "duration": 55, "velocity": 100}, {"time": 1540, "pitch": 76, "duration": 55, "velocity": 100}, {"time": 1595, "pitch": 74, "duration": 55, "velocity": 100}, {"time": 1650, "pitch": 55, "duration": 55, "velocity": 100}, {"time": 1650, "pitch": 71, "duration": 110, "velocity": 100}, {"time": 1760, "pitch": 72, "duration": 165, "velocity": 100}, {"time": 1870, "pitch": 52, "duration": 55, "velocity": 100}, {"time": 1870, "pitch": 79, "duration": 55, "velocity": 100}, {"time": 1925, "pitch": 55, "duration": 55, "velocity": 100}, {"time": 1925, "pitch": 71, "duration": 55, "velocity": 100}, {"time": 1925, "pitch": 79, "duration": 55, "velocity": 100}, {"time": 1980, "pitch": 60, "duration": 110, "velocity": 100}, {"time": 1980, "pitch": 72, "duration": 165, "velocity": 100}, {"time": 1980, "pitch": 79, "duration": 55, "velocity": 100}, {"time": 2035, "pitch": 55, "duration": 55, "velocity": 100}, {"time": 2035, "pitch": 76, "duration": 55, "velocity": 100}, {"time": 2090, "pitch": 52, "duration": 55, "velocity": 100}, {"time": 2090, "pitch": 79, "duration": 110, "velocity": 100}, {"time": 2145, "pitch": 55, "duration": 55, "velocity": 100}, {"time": 2145, "pitch": 76, "duration": 55, "velocity": 100}, {"time": 2200, "pitch": 74, "duration": 165, "velocity": 100}, {"time": 2200, "pitch": 74, "duration": 165, "velocity": 100}, {"time": 2310, "pitch": 55, "duration": 55, "velocity": 100}, {"time": 2365, "pitch": 59, "duration": 110, "velocity": 100}, {"time": 2365, "pitch": 71, "duration": 55, "velocity": 100}, {"time": 2420, "pitch": 69, "duration": 165, "velocity": 100}, {"time": 2475, "pitch": 74, "duration": 55, "velocity": 100}, {"time": 2530, "pitch": 74, "duration": 55, "velocity": 100}, {"time": 2585, "pitch": 59, "duration": 55, "velocity": 100}, {"time": 2585, "pitch": 67, "duration": 55, "velocity": 100}, {"time": 2585, "pitch": 74, "duration": 55, "velocity": 100}, {"time": 2640, "pitch": 69, "duration": 165, "velocity": 100}, {"time": 2695, "pitch": 52, "duration": 55, "velocity": 100}, {"time": 2750, "pitch": 57, "duration": 55, "velocity": 100}, {"time": 2750, "pitch": 69, "duration": 55, "velocity": 100}, {"time": 2805, "pitch": 60, "duration": 55, "velocity": 100}, {"time": 2805, "pitch": 71, "duration": 55, "velocity": 100}, {"time": 2805, "pitch": 71, "duration": 55, "velocity": 100}, {"time": 2860, "pitch": 57, "duration": 55, "velocity": 100}, {"time": 2860, "pitch": 67, "duration": 55, "velocity": 100}, {"time": 2860, "pitch": 69, "duration": 165, "velocity": 100}, {"time": 2915, "pitch": 52, "duration": 55, "velocity": 100}, {"time": 2915, "pitch": 67, "duration": 55, "velocity": 100}, {"time": 2970, "pitch": 57, "duration": 55, "velocity": 100}, {"time": 2970, "pitch": 67, "duration": 55, "velocity": 100}, {"time": 3025, "pitch": 52, "duration": 55, "velocity": 100}, {"time": 3025, "pitch": 64, "duration": 55, "velocity": 100}, {"time": 3025, "pitch": 67, "duration": 55, "velocity": 100}, {"time": 3080, "pitch": 62, "duration": 55, "velocity": 100}, {"time": 3080, "pitch": 64, "duration": 220, "velocity": 100}, {"time": 3135, "pitch": 69, "duration": 55, "velocity": 100}, {"time": 3190, "pitch": 69, "duration": 55, "velocity": 100}, {"time": 3245, "pitch": 57, "duration": 55, "velocity": 100}, {"time": 3245, "pitch": 69, "duration": 55, "velocity": 100}, {"time": 3300, "pitch": 62, "duration": 55, "velocity": 100}, {"time": 3300, "pitch": 62, "duration": 110, "velocity": 100}, {"time": 3300, "pitch": 74, "duration": 55, "velocity": 100}, {"time": 3355, "pitch": 57, "duration": 55, "velocity": 100}, {"time": 3355, "pitch": 74, "duration": 55, "velocity": 100}, {"time": 3410, "pitch": 64, "duration": 110, "velocity": 100}, {"time": 3410, "pitch": 71, "duration": 55, "velocity": 100}, {"time": 3465, "pitch": 57, "duration": 55, "velocity": 100}, {"time": 3465, "pitch": 71, "duration": 55, "velocity": 100}, {"time": 3520, "pitch": 67, "duration": 220, "velocity": 100}, {"time": 3520, "pitch": 67, "duration": 220, "velocity": 100}, {"time": 3685, "pitch": 55, "duration": 55, "velocity": 100}, {"time": 3740, "pitch": 59, "duration": 55, "velocity": 100}, {"time": 3740, "pitch": 67, "duration": 110, "velocity": 100}, {"time": 3740, "pitch": 67, "duration": 165, "velocity": 100}, {"time": 3795, "pitch": 55, "duration": 55, "velocity": 100}, {"time": 3850, "pitch": 55, "duration": 55, "velocity": 100}, {"time": 3850, "pitch": 67, "duration": 110, "velocity": 100}, {"time": 3905, "pitch": 55, "duration": 55, "velocity": 100}, {"time": 3905, "pitch": 71, "duration": 55, "velocity": 100}, {"time": 3960, "pitch": 62, "duration": 110, "velocity": 100}, {"time": 3960, "pitch": 62, "duration": 220, "velocity": 100}, {"time": 4070, "pitch": 50, "duration": 110, "velocity": 100}, {"time": 4070, "pitch": 69, "duration": 110, "velocity": 100}, {"time": 4125, "pitch": 54, "duration": 55, "velocity": 100}, {"time": 4180, "pitch": 60, "duration": 55, "velocity": 100}, {"time": 4180, "pitch": 62, "duration": 110, "velocity": 100}, {"time": 4180, "pitch": 74, "duration": 110, "velocity": 100}, {"time": 4235, "pitch": 57, "duration": 55, "velocity": 100}, {"time": 4290, "pitch": 64, "duration": 110, "velocity": 100}, {"time": 4290, "pitch": 72, "duration": 110, "velocity": 100}, {"time": 4400, "pitch": 67, "duration": 110, "velocity": 100}, {"time": 4400, "pitch": 67, "duration": 165, "velocity": 100}, {"time": 4510, "pitch": 47, "duration": 110, "velocity": 100}, {"time": 4510, "pitch": 71, "duration": 110, "velocity": 100}, {"time": 4565, "pitch": 66, "duration": 55, "velocity": 100}, {"time": 4620, "pitch": 55, "duration": 55, "velocity": 100}, {"time": 4620, "pitch": 67, "duration": 165, "velocity": 100}, {"time": 4620, "pitch": 74, "duration": 220, "velocity": 100}, {"time": 4675, "pitch": 59, "duration": 55, "velocity": 100}, {"time": 4730, "pitch": 71, "duration": 220, "velocity": 100}, {"time": 4785, "pitch": 69, "duration": 55, "velocity": 100}, {"time": 4840, "pitch": 71, "duration": 440, "velocity": 100}, {"time": 4840, "pitch": 74, "duration": 110, "velocity": 100}, {"time": 4950, "pitch": 50, "duration": 55, "velocity": 100}, {"time": 4950, "pitch": 71, "duration": 110, "velocity": 100}, {"time": 5005, "pitch": 59, "duration": 55, "velocity": 100}, {"time": 5060, "pitch": 62, "duration": 55, "velocity": 100}, {"time": 5060, "pitch": 74, "duration": 110, "velocity": 100}, {"time": 5115, "pitch": 59, "duration": 55, "velocity": 100}, {"time": 5170, "pitch": 69, "duration": 110, "velocity": 100}, {"time": 5225, "pitch": 55, "duration": 55, "velocity": 100}, {"time": 5280, "pitch": 72, "duration": 165, "velocity": 100}, {"time": 5390, "pitch": 52, "duration": 55, "velocity": 100}, {"time": 5390, "pitch": 79, "duration": 55, "velocity": 100}, {"time": 5445, "pitch": 55, "duration": 55, "velocity": 100}, {"time": 5445, "pitch": 71, "duration": 55, "velocity": 100}, {"time": 5445, "pitch": 83, "duration": 55, "velocity": 100}, {"time": 5500, "pitch": 60, "duration": 55, "velocity": 100}, {"time": 5500, "pitch": 72, "duration": 165, "velocity": 100}, {"time": 5500, "pitch": 84, "duration": 55, "velocity": 100}, {"time": 5555, "pitch": 55, "duration": 55, "velocity": 100}, {"time": 5610, "pitch": 52, "duration": 55, "velocity": 100}, {"time": 5610, "pitch": 79, "duration": 110, "velocity": 100}, {"time": 5665, "pitch": 55, "duration": 55, "velocity": 100}, {"time": 5665, "pitch": 76, "duration": 55, "velocity": 100}, {"time": 5720, "pitch": 74, "duration": 165, "velocity": 100}, {"time": 5830, "pitch": 55, "duration": 55, "velocity": 100}, {"time": 5830, "pitch": 74, "duration": 55, "velocity": 100}, {"time": 5885, "pitch": 71, "duration": 55, "velocity": 100}, {"time": 5885, "pitch": 79, "duration": 55, "velocity": 100}, {"time": 5940, "pitch": 59, "duration": 55, "velocity": 100}, {"time": 5940, "pitch": 67, "duration": 165, "velocity": 100}, {"time": 5940, "pitch": 79, "duration": 55, "velocity": 100}, {"time": 5995, "pitch": 74, "duration": 55, "velocity": 100}, {"time": 6050, "pitch": 55, "duration": 55, "velocity": 100}, {"time": 6050, "pitch": 74, "duration": 110, "velocity": 100}, {"time": 6105, "pitch": 69, "duration": 55, "velocity": 100}, {"time": 6160, "pitch": 71, "duration": 165, "velocity": 100}, {"time": 6270, "pitch": 69, "duration": 55, "velocity": 100}, {"time": 6325, "pitch": 57, "duration": 55, "velocity": 100}, {"time": 6325, "pitch": 72, "duration": 55, "velocity": 100}, {"time": 6325, "pitch": 74, "duration": 55, "velocity": 100}, {"time": 6380, "pitch": 60, "duration": 55, "velocity": 100}, {"time": 6380, "pitch": 69, "duration": 55, "velocity": 100}, {"time": 6380, "pitch": 71, "duration": 165, "velocity": 100}, {"time": 6435, "pitch": 57, "duration": 55, "velocity": 100}, {"time": 6435, "pitch": 72, "duration": 55, "velocity": 100}, {"time": 6490, "pitch": 69, "duration": 55, "velocity": 100}, {"time": 6545, "pitch": 57, "duration": 55, "velocity": 100}, {"time": 6545, "pitch": 69, "duration": 55, "velocity": 100}, {"time": 6545, "pitch": 72, "duration": 55, "velocity": 100}, {"time": 6600, "pitch": 67, "duration": 220, "velocity": 100}, {"time": 6600, "pitch": 71, "duration": 55, "velocity": 100}, {"time": 6710, "pitch": 55, "duration": 55, "velocity": 100}, {"time": 6710, "pitch": 74, "duration": 55, "velocity": 100}, {"time": 6765, "pitch": 76, "duration": 55, "velocity": 100}, {"time": 6820, "pitch": 59, "duration": 55, "velocity": 100}, {"time": 6820, "pitch": 62, "duration": 110, "velocity": 100}, {"time": 6820, "pitch": 76, "duration": 110, "velocity": 100}, {"time": 6875, "pitch": 74, "duration": 55, "velocity": 100}, {"time": 6930, "pitch": 55, "duration": 55, "velocity": 100}, {"time": 6930, "pitch": 64, "duration": 110, "velocity": 100}, {"time": 6930, "pitch": 71, "duration": 110, "velocity": 100}, {"time": 7040, "pitch": 67, "duration": 220, "velocity": 100}, {"time": 7040, "pitch": 79, "duration": 55, "velocity": 100}, {"time": 7150, "pitch": 76, "duration": 55, "velocity": 100}, {"time": 7205, "pitch": 55, "duration": 55, "velocity": 100}, {"time": 7205, "pitch": 79, "duration": 55, "velocity": 100}, {"time": 7260, "pitch": 59, "duration": 110, "velocity": 100}, {"time": 7260, "pitch": 67, "duration": 165, "velocity": 100}, {"time": 7260, "pitch": 81, "duration": 55, "velocity": 100}, {"time": 7315, "pitch": 55, "duration": 55, "velocity": 100}, {"time": 7315, "pitch": 79, "duration": 55, "velocity": 100}, {"time": 7370, "pitch": 76, "duration": 55, "velocity": 100}, {"time": 7425, "pitch": 55, "duration": 55, "velocity": 100}, {"time": 7425, "pitch": 71, "duration": 55, "velocity": 100}, {"time": 7480, "pitch": 62, "duration": 220, "velocity": 100}, {"time": 7480, "pitch": 74, "duration": 165, "velocity": 100}, {"time": 7590, "pitch": 54, "duration": 55, "velocity": 100}, {"time": 7645, "pitch": 57, "duration": 55, "velocity": 100}, {"time": 7700, "pitch": 62, "duration": 110, "velocity": 100}, {"time": 7755, "pitch": 72, "duration": 55, "velocity": 100}, {"time": 7810, "pitch": 64, "duration": 110, "velocity": 100}, {"time": 7810, "pitch": 74, "duration": 55, "velocity": 100}, {"time": 7865, "pitch": 57, "duration": 55, "velocity": 100}, {"time": 7865, "pitch": 72, "duration": 55, "velocity": 100}, {"time": 7920, "pitch": 67, "duration": 165, "velocity": 100}, {"time": 7920, "pitch": 69, "duration": 110, "velocity": 100}, {"time": 8030, "pitch": 55, "duration": 55, "velocity": 100}, {"time": 8030, "pitch": 67, "duration": 55, "velocity": 100}, {"time": 8085, "pitch": 59, "duration": 55, "velocity": 100}, {"time": 8085, "pitch": 66, "duration": 55, "velocity": 100}, {"time": 8085, "pitch": 69, "duration": 55, "velocity": 100}, {"time": 8140, "pitch": 62, "duration": 55, "velocity": 100}, {"time": 8140, "pitch": 67, "duration": 165, "velocity": 100}, {"time": 8195, "pitch": 69, "duration": 55, "velocity": 100}, {"time": 8250, "pitch": 67, "duration": 55, "velocity": 100}, {"time": 8305, "pitch": 55, "duration": 55, "velocity": 100}, {"time": 8305, "pitch": 69, "duration": 55, "velocity": 100}, {"time": 8305, "pitch": 69, "duration": 55, "velocity": 100}, {"time": 8360, "pitch": 67, "duration": 55, "velocity": 100}, {"time": 8360, "pitch": 71, "duration": 440, "velocity": 100}, {"time": 8470, "pitch": 55, "duration": 55, "velocity": 100}, {"time": 8470, "pitch": 71, "duration": 55, "velocity": 100}, {"time": 8525, "pitch": 72, "duration": 55, "velocity": 100}, {"time": 8580, "pitch": 59, "duration": 55, "velocity": 100}, {"time": 8580, "pitch": 74, "duration": 55, "velocity": 100}, {"time": 8635, "pitch": 74, "duration": 55, "velocity": 100}, {"time": 8690, "pitch": 55, "duration": 55, "velocity": 100}, {"time": 8690, "pitch": 67, "duration": 55, "velocity": 100}, {"time": 8745, "pitch": 55, "duration": 55, "velocity": 100}, {"time": 8745, "pitch": 60, "duration": 55, "velocity": 100}, {"time": 8800, "pitch": 60, "duration": 220, "velocity": 100}, {"time": 8800, "pitch": 67, "duration": 880, "velocity": 100}, {"time": 8800, "pitch": 72, "duration": 165, "velocity": 100}, {"time": 8965, "pitch": 71, "duration": 55, "velocity": 100}, {"time": 9020, "pitch": 55, "duration": 55, "velocity": 100}, {"time": 9020, "pitch": 72, "duration": 165, "velocity": 100}, {"time": 9185, "pitch": 76, "duration": 55, "velocity": 100}, {"time": 9240, "pitch": 55, "duration": 110, "velocity": 100}, {"time": 9240, "pitch": 74, "duration": 165, "velocity": 100}, {"time": 9350, "pitch": 71, "duration": 110, "velocity": 100}, {"time": 9405, "pitch": 71, "duration": 55, "velocity": 100}, {"time": 9460, "pitch": 55, "duration": 55, "velocity": 100}, {"time": 9460, "pitch": 62, "duration": 110, "velocity": 100}, {"time": 9460, "pitch": 69, "duration": 165, "velocity": 100}, {"time": 9460, "pitch": 74, "duration": 110, "velocity": 100}, {"time": 9570, "pitch": 69, "duration": 110, "velocity": 100}, {"time": 9625, "pitch": 67, "duration": 55, "velocity": 100}, {"time": 9680, "pitch": 59, "duration": 220, "velocity": 100}, {"time": 9680, "pitch": 69, "duration": 165, "velocity": 100}, {"time": 9680, "pitch": 71, "duration": 440, "velocity": 100}, {"time": 9845, "pitch": 71, "duration": 55, "velocity": 100}, {"time": 9900, "pitch": 55, "duration": 110, "velocity": 100}, {"time": 9900, "pitch": 69, "duration": 165, "velocity": 100}, {"time": 10065, "pitch": 67, "duration": 55, "velocity": 100}, {"time": 10120, "pitch": 54, "duration": 110, "velocity": 100}, {"time": 10120, "pitch": 64, "duration": 220, "velocity": 100}, {"time": 10230, "pitch": 74, "duration": 110, "velocity": 100}, {"time": 10340, "pitch": 57, "duration": 110, "velocity": 100}, {"time": 10340, "pitch": 62, "duration": 110, "velocity": 100}, {"time": 10340, "pitch": 76, "duration": 110, "velocity": 100}, {"time": 10395, "pitch": 54, "duration": 55, "velocity": 100}, {"time": 10450, "pitch": 50, "duration": 55, "velocity": 100}, {"time": 10450, "pitch": 64, "duration": 110, "velocity": 100}, {"time": 10450, "pitch": 71, "duration": 110, "velocity": 100}, {"time": 10560, "pitch": 59, "duration": 110, "velocity": 100}, {"time": 10560, "pitch": 62, "duration": 110, "velocity": 100}, {"time": 10560, "pitch": 67, "duration": 220, "velocity": 100}, {"time": 10670, "pitch": 62, "duration": 55, "velocity": 100}, {"time": 10725, "pitch": 59, "duration": 55, "velocity": 100}, {"time": 10780, "pitch": 59, "duration": 55, "velocity": 100}, {"time": 10780, "pitch": 62, "duration": 55, "velocity": 100}, {"time": 10780, "pitch": 67, "duration": 55, "velocity": 100}, {"time": 10780, "pitch": 67, "duration": 165, "velocity": 100}, {"time": 10835, "pitch": 62, "duration": 55, "velocity": 100}, {"time": 10890, "pitch": 59, "duration": 55, "velocity": 100}, {"time": 10890, "pitch": 64, "duration": 55, "velocity": 100}, {"time": 10890, "pitch": 67, "duration": 110, "velocity": 100}, {"time": 10945, "pitch": 55, "duration": 55, "velocity": 100}, {"time": 10945, "pitch": 71, "duration": 55, "velocity": 100}, {"time": 11000, "pitch": 57, "duration": 55, "velocity": 100}, {"time": 11000, "pitch": 60, "duration": 110, "velocity": 100}, {"time": 11000, "pitch": 62, "duration": 220, "velocity": 100}, {"time": 11000, "pitch": 69, "duration": 440, "velocity": 100}, {"time": 11110, "pitch": 57, "duration": 55, "velocity": 100}, {"time": 11165, "pitch": 60, "duration": 55, "velocity": 100}, {"time": 11220, "pitch": 57, "duration": 55, "velocity": 100}, {"time": 11220, "pitch": 60, "duration": 110, "velocity": 100}, {"time": 11220, "pitch": 62, "duration": 110, "velocity": 100}, {"time": 11220, "pitch": 65, "duration": 220, "velocity": 100}, {"time": 11330, "pitch": 57, "duration": 55, "velocity": 100}, {"time": 11330, "pitch": 64, "duration": 110, "velocity": 100}, {"time": 11385, "pitch": 60, "duration": 55, "velocity": 100}, {"time": 11440, "pitch": 55, "duration": 110, "velocity": 100}, {"time": 11440, "pitch": 59, "duration": 110, "velocity": 100}, {"time": 11440, "pitch": 67, "duration": 165, "velocity": 100}, {"time": 11440, "pitch": 74, "duration": 440, "velocity": 100}, {"time": 11605, "pitch": 66, "duration": 55, "velocity": 100}, {"time": 11660, "pitch": 55, "duration": 55, "velocity": 100}, {"time": 11660, "pitch": 59, "duration": 55, "velocity": 100}, {"time": 11660, "pitch": 62, "duration": 55, "velocity": 100}, {"time": 11660, "pitch": 67, "duration": 165, "velocity": 100}, {"time": 11770, "pitch": 55, "duration": 55, "velocity": 100}, {"time": 11825, "pitch": 69, "duration": 55, "velocity": 100}, {"time": 11880, "pitch": 55, "duration": 55, "velocity": 100}, {"time": 11880, "pitch": 59, "duration": 110, "velocity": 100}, {"time": 11880, "pitch": 62, "duration": 55, "velocity": 100}, {"time": 11880, "pitch": 71, "duration": 440, "velocity": 100}, {"time": 11880, "pitch": 74, "duration": 330, "velocity": 100}, {"time": 11990, "pitch": 55, "duration": 110, "velocity": 100}, {"time": 12045, "pitch": 59, "duration": 55, "velocity": 100}, {"time": 12100, "pitch": 62, "duration": 110, "velocity": 100}, {"time": 12210, "pitch": 55, "duration": 55, "velocity": 100}, {"time": 12210, "pitch": 74, "duration": 55, "velocity": 100}, {"time": 12265, "pitch": 59, "duration": 55, "velocity": 100}, {"time": 12265, "pitch": 72, "duration": 55, "velocity": 100}, {"time": 12320, "pitch": 55, "duration": 55, "velocity": 100}, {"time": 12320, "pitch": 60, "duration": 110, "velocity": 100}, {"time": 12320, "pitch": 72, "duration": 165, "velocity": 100}, {"time": 12320, "pitch": 76, "duration": 440, "velocity": 100}, {"time": 12430, "pitch": 55, "duration": 55, "velocity": 100}, {"time": 12485, "pitch": 60, "duration": 55, "velocity": 100}, {"time": 12485, "pitch": 71, "duration": 55, "velocity": 100}, {"time": 12540, "pitch": 64, "duration": 110, "velocity": 100}, {"time": 12540, "pitch": 72, "duration": 165, "velocity": 100}, {"time": 12650, "pitch": 59, "duration": 55, "velocity": 100}, {"time": 12705, "pitch": 64, "duration": 55, "velocity": 100}, {"time": 12705, "pitch": 76, "duration": 55, "velocity": 100}, {"time": 12760, "pitch": 55, "duration": 110, "velocity": 100}, {"time": 12760, "pitch": 62, "duration": 110, "velocity": 100}, {"time": 12760, "pitch": 67, "duration": 275, "velocity": 100}, {"time": 12760, "pitch": 74, "duration": 165, "velocity": 100}, {"time": 12925, "pitch": 71, "duration": 55, "velocity": 100}, {"time": 12980, "pitch": 55, "duration": 55, "velocity": 100}, {"time": 12980, "pitch": 62, "duration": 55, "velocity": 100}, {"time": 12980, "pitch": 67, "duration": 165, "velocity": 100}, {"time": 12980, "pitch": 67, "duration": 220, "velocity": 100}, {"time": 13090, "pitch": 55, "duration": 55, "velocity": 100}, {"time": 13145, "pitch": 69, "duration": 55, "velocity": 100}, {"time": 13200, "pitch": 57, "duration": 55, "velocity": 100}, {"time": 13200, "pitch": 60, "duration": 110, "velocity": 100}, {"time": 13200, "pitch": 66, "duration": 385, "velocity": 100}, {"time": 13200, "pitch": 71, "duration": 165, "velocity": 100}, {"time": 13200, "pitch": 72, "duration": 440, "velocity": 100}, {"time": 13310, "pitch": 57, "duration": 110, "velocity": 100}, {"time": 13365, "pitch": 72, "duration": 55, "velocity": 100}, {"time": 13420, "pitch": 62, "duration": 110, "velocity": 100}, {"time": 13420, "pitch": 71, "duration": 165, "velocity": 100}, {"time": 13530, "pitch": 57, "duration": 55, "velocity": 100}, {"time": 13585, "pitch": 69, "duration": 55, "velocity": 100}, {"time": 13640, "pitch": 55, "duration": 110, "velocity": 100}, {"time": 13640, "pitch": 62, "duration": 110, "velocity": 100}, {"time": 13640, "pitch": 67, "duration": 220, "velocity": 100}, {"time": 13640, "pitch": 74, "duration": 220, "velocity": 100}, {"time": 13750, "pitch": 67, "duration": 220, "velocity": 100}, {"time": 13860, "pitch": 55, "duration": 55, "velocity": 100}, {"time": 13860, "pitch": 59, "duration": 55, "velocity": 100}, {"time": 13860, "pitch": 62, "duration": 55, "velocity": 100}, {"time": 13860, "pitch": 71, "duration": 220, "velocity": 100}, {"time": 13860, "pitch": 74, "duration": 220, "velocity": 100}, {"time": 13970, "pitch": 55, "duration": 55, "velocity": 100}, {"time": 14025, "pitch": 59, "duration": 55, "velocity": 100}, {"time": 14080, "pitch": 55, "duration": 110, "velocity": 100}, {"time": 14080, "pitch": 60, "duration": 110, "velocity": 100}, {"time": 14080, "pitch": 72, "duration": 220, "velocity": 100}, {"time": 14080, "pitch": 76, "duration": 220, "velocity": 100}, {"time": 14190, "pitch": 67, "duration": 165, "velocity": 100}, {"time": 14245, "pitch": 55, "duration": 55, "velocity": 100}, {"time": 14300, "pitch": 55, "duration": 55, "velocity": 100}, {"time": 14300, "pitch": 60, "duration": 55, "velocity": 100}, {"time": 14300, "pitch": 64, "duration": 110, "velocity": 100}, {"time": 14300, "pitch": 76, "duration": 165, "velocity": 100}, {"time": 14300, "pitch": 76, "duration": 165, "velocity": 100}, {"time": 14465, "pitch": 79, "duration": 55, "velocity": 100}, {"time": 14520, "pitch": 55, "duration": 110, "velocity": 100}, {"time": 14520, "pitch": 59, "duration": 110, "velocity": 100}, {"time": 14520, "pitch": 62, "duration": 110, "velocity": 100}, {"time": 14520, "pitch": 74, "duration": 110, "velocity": 100}, {"time": 14520, "pitch": 74, "duration": 385, "velocity": 100}, {"time": 14630, "pitch": 67, "duration": 55, "velocity": 100}, {"time": 14630, "pitch": 71, "duration": 110, "velocity": 100}, {"time": 14740, "pitch": 55, "duration": 55, "velocity": 100}, {"time": 14740, "pitch": 59, "duration": 110, "velocity": 100}, {"time": 14740, "pitch": 62, "duration": 110, "velocity": 100}, {"time": 14740, "pitch": 74, "duration": 220, "velocity": 100}, {"time": 14850, "pitch": 55, "duration": 55, "velocity": 100}, {"time": 14905, "pitch": 71, "duration": 55, "velocity": 100}, {"time": 14960, "pitch": 57, "duration": 110, "velocity": 100}, {"time": 14960, "pitch": 62, "duration": 110, "velocity": 100}, {"time": 14960, "pitch": 66, "duration": 110, "velocity": 100}, {"time": 14960, "pitch": 72, "duration": 165, "velocity": 100}, {"time": 14960, "pitch": 74, "duration": 440, "velocity": 100}, {"time": 14960, "pitch": 78, "duration": 385, "velocity": 100}, {"time": 15125, "pitch": 71, "duration": 55, "velocity": 100}, {"time": 15180, "pitch": 57, "duration": 55, "velocity": 100}, {"time": 15180, "pitch": 62, "duration": 55, "velocity": 100}, {"time": 15180, "pitch": 66, "duration": 110, "velocity": 100}, {"time": 15180, "pitch": 72, "duration": 165, "velocity": 100}, {"time": 15345, "pitch": 74, "duration": 55, "velocity": 100}, {"time": 15400, "pitch": 59, "duration": 55, "velocity": 100}, {"time": 15400, "pitch": 62, "duration": 110, "velocity": 100}, {"time": 15400, "pitch": 67, "duration": 110, "velocity": 100}, {"time": 15400, "pitch": 71, "duration": 440, "velocity": 100}, {"time": 15400, "pitch": 74, "duration": 110, "velocity": 100}, {"time": 15510, "pitch": 55, "duration": 55, "velocity": 100}, {"time": 15510, "pitch": 71, "duration": 220, "velocity": 100}, {"time": 15620, "pitch": 59, "duration": 55, "velocity": 100}, {"time": 15620, "pitch": 62, "duration": 55, "velocity": 100}, {"time": 15620, "pitch": 67, "duration": 55, "velocity": 100}, {"time": 15620, "pitch": 74, "duration": 165, "velocity": 100}, {"time": 15730, "pitch": 59, "duration": 55, "velocity": 100}, {"time": 15840, "pitch": 72, "duration": 165, "velocity": 100}, {"time": 15895, "pitch": 55, "duration": 220, "velocity": 100}, {"time": 15895, "pitch": 72, "duration": 165, "velocity": 100}, {"time": 16005, "pitch": 71, "duration": 55, "velocity": 100}, {"time": 16060, "pitch": 55, "duration": 110, "velocity": 100}, {"time": 16060, "pitch": 60, "duration": 110, "velocity": 100}, {"time": 16060, "pitch": 72, "duration": 110, "velocity": 100}, {"time": 16060, "pitch": 72, "duration": 165, "velocity": 100}, {"time": 16170, "pitch": 67, "duration": 110, "velocity": 100}, {"time": 16225, "pitch": 76, "duration": 55, "velocity": 100}, {"time": 16280, "pitch": 55, "duration": 165, "velocity": 100}, {"time": 16280, "pitch": 59, "duration": 165, "velocity": 100}, {"time": 16280, "pitch": 74, "duration": 165, "velocity": 100}, {"time": 16280, "pitch": 74, "duration": 330, "velocity": 100}, {"time": 16445, "pitch": 71, "duration": 55, "velocity": 100}, {"time": 16500, "pitch": 55, "duration": 110, "velocity": 100}, {"time": 16500, "pitch": 59, "duration": 220, "velocity": 100}, {"time": 16500, "pitch": 62, "duration": 165, "velocity": 100}, {"time": 16500, "pitch": 69, "duration": 165, "velocity": 100}, {"time": 16610, "pitch": 69, "duration": 55, "velocity": 100}, {"time": 16665, "pitch": 55, "duration": 55, "velocity": 100}, {"time": 16665, "pitch": 67, "duration": 55, "velocity": 100}, {"time": 16665, "pitch": 74, "duration": 55, "velocity": 100}, {"time": 16720, "pitch": 57, "duration": 110, "velocity": 100}, {"time": 16720, "pitch": 60, "duration": 110, "velocity": 100}, {"time": 16720, "pitch": 69, "duration": 165, "velocity": 100}, {"time": 16720, "pitch": 76, "duration": 330, "velocity": 100}, {"time": 16885, "pitch": 57, "duration": 55, "velocity": 100}, {"time": 16885, "pitch": 71, "duration": 55, "velocity": 100}, {"time": 16940, "pitch": 57, "duration": 110, "velocity": 100}, {"time": 16940, "pitch": 60, "duration": 110, "velocity": 100}, {"time": 16940, "pitch": 69, "duration": 165, "velocity": 100}, {"time": 17050, "pitch": 74, "duration": 55, "velocity": 100}, {"time": 17105, "pitch": 67, "duration": 55, "velocity": 100}, {"time": 17105, "pitch": 76, "duration": 55, "velocity": 100}, {"time": 17160, "pitch": 57, "duration": 110, "velocity": 100}, {"time": 17160, "pitch": 62, "duration": 110, "velocity": 100}, {"time": 17160, "pitch": 64, "duration": 220, "velocity": 100}, {"time": 17160, "pitch": 78, "duration": 440, "velocity": 100}, {"time": 17380, "pitch": 57, "duration": 55, "velocity": 100}, {"time": 17380, "pitch": 62, "duration": 110, "velocity": 100}, {"time": 17380, "pitch": 66, "duration": 55, "velocity": 100}, {"time": 17490, "pitch": 57, "duration": 55, "velocity": 100}, {"time": 17490, "pitch": 64, "duration": 110, "velocity": 100}, {"time": 17545, "pitch": 76, "duration": 55, "velocity": 100}, {"time": 17600, "pitch": 55, "duration": 55, "velocity": 100}, {"time": 17600, "pitch": 59, "duration": 110, "velocity": 100}, {"time": 17600, "pitch": 67, "duration": 220, "velocity": 100}, {"time": 17600, "pitch": 86, "duration": 55, "velocity": 100}, {"time": 17655, "pitch": 86, "duration": 55, "velocity": 100}, {"time": 17710, "pitch": 86, "duration": 55, "velocity": 100}, {"time": 17765, "pitch": 59, "duration": 55, "velocity": 100}, {"time": 17765, "pitch": 83, "duration": 55, "velocity": 100}, {"time": 17820, "pitch": 62, "duration": 55, "velocity": 100}, {"time": 17820, "pitch": 67, "duration": 165, "velocity": 100}, {"time": 17820, "pitch": 83, "duration": 55, "velocity": 100}, {"time": 17875, "pitch": 67, "duration": 55, "velocity": 100}, {"time": 17875, "pitch": 79, "duration": 55, "velocity": 100}, {"time": 17930, "pitch": 62, "duration": 55, "velocity": 100}, {"time": 17930, "pitch": 74, "duration": 55, "velocity": 100}, {"time": 17930, "pitch": 79, "duration": 55, "velocity": 100}, {"time": 17985, "pitch": 67, "duration": 55, "velocity": 100}, {"time": 17985, "pitch": 71, "duration": 55, "velocity": 100}, {"time": 17985, "pitch": 79, "duration": 55, "velocity": 100}, {"time": 18040, "pitch": 54, "duration": 55, "velocity": 100}, {"time": 18040, "pitch": 60, "duration": 110, "velocity": 100}, {"time": 18040, "pitch": 62, "duration": 220, "velocity": 100}, {"time": 18040, "pitch": 69, "duration": 275, "velocity": 100}, {"time": 18040, "pitch": 74, "duration": 165, "velocity": 100}, {"time": 18150, "pitch": 55, "duration": 55, "velocity": 100}, {"time": 18205, "pitch": 57, "duration": 110, "velocity": 100}, {"time": 18260, "pitch": 62, "duration": 110, "velocity": 100}, {"time": 18315, "pitch": 57, "duration": 55, "velocity": 100}, {"time": 18315, "pitch": 69, "duration": 55, "velocity": 100}, {"time": 18370, "pitch": 64, "duration": 110, "velocity": 100}, {"time": 18370, "pitch": 67, "duration": 55, "velocity": 100}, {"time": 18425, "pitch": 72, "duration": 55, "velocity": 100}, {"time": 18480, "pitch": 55, "duration": 165, "velocity": 100}, {"time": 18480, "pitch": 59, "duration": 165, "velocity": 100}, {"time": 18480, "pitch": 67, "duration": 165, "velocity": 100}, {"time": 18480, "pitch": 71, "duration": 330, "velocity": 100}, {"time": 18645, "pitch": 66, "duration": 55, "velocity": 100}, {"time": 18700, "pitch": 62, "duration": 165, "velocity": 100}, {"time": 18700, "pitch": 67, "duration": 165, "velocity": 100}, {"time": 18810, "pitch": 71, "duration": 55, "velocity": 100}, {"time": 18865, "pitch": 69, "duration": 55, "velocity": 100}, {"time": 18865, "pitch": 74, "duration": 55, "velocity": 100}, {"time": 18920, "pitch": 59, "duration": 110, "velocity": 100}, {"time": 18920, "pitch": 65, "duration": 165, "velocity": 100}, {"time": 18920, "pitch": 71, "duration": 275, "velocity": 100}, {"time": 18920, "pitch": 71, "duration": 440, "velocity": 100}, {"time": 18920, "pitch": 74, "duration": 275, "velocity": 100}, {"time": 19085, "pitch": 59, "duration": 110, "velocity": 100}, {"time": 19195, "pitch": 62, "duration": 55, "velocity": 100}, {"time": 19250, "pitch": 67, "duration": 55, "velocity": 100}, {"time": 19360, "pitch": 55, "duration": 55, "velocity": 100}, {"time": 19360, "pitch": 64, "duration": 110, "velocity": 100}, {"time": 19360, "pitch": 72, "duration": 165, "velocity": 100}, {"time": 19360, "pitch": 76, "duration": 110, "velocity": 100}, {"time": 19360, "pitch": 88, "duration": 110, "velocity": 100}, {"time": 19470, "pitch": 67, "duration": 110, "velocity": 100}, {"time": 19470, "pitch": 79, "duration": 110, "velocity": 100}, {"time": 19525, "pitch": 60, "duration": 55, "velocity": 100}, {"time": 19525, "pitch": 71, "duration": 55, "velocity": 100}, {"time": 19580, "pitch": 67, "duration": 165, "velocity": 100}, {"time": 19580, "pitch": 72, "duration": 165, "velocity": 100}, {"time": 19580, "pitch": 81, "duration": 110, "velocity": 100}, {"time": 19690, "pitch": 60, "duration": 55, "velocity": 100}, {"time": 19690, "pitch": 83, "duration": 110, "velocity": 100}, {"time": 19745, "pitch": 60, "duration": 55, "velocity": 100}, {"time": 19745, "pitch": 76, "duration": 55, "velocity": 100}, {"time": 19800, "pitch": 55, "duration": 110, "velocity": 100}, {"time": 19800, "pitch": 59, "duration": 110, "velocity": 100}, {"time": 19800, "pitch": 71, "duration": 440, "velocity": 100}, {"time": 19800, "pitch": 74, "duration": 165, "velocity": 100}, {"time": 19800, "pitch": 83, "duration": 330, "velocity": 100}, {"time": 19965, "pitch": 55, "duration": 110, "velocity": 100}, {"time": 19965, "pitch": 71, "duration": 55, "velocity": 100}, {"time": 20020, "pitch": 67, "duration": 165, "velocity": 100}, {"time": 20075, "pitch": 62, "duration": 55, "velocity": 100}, {"time": 20185, "pitch": 55, "duration": 165, "velocity": 100}, {"time": 20185, "pitch": 69, "duration": 55, "velocity": 100}, {"time": 20240, "pitch": 66, "duration": 440, "velocity": 100}, {"time": 20240, "pitch": 71, "duration": 165, "velocity": 100}, {"time": 20240, "pitch": 72, "duration": 440, "velocity": 100}, {"time": 20405, "pitch": 72, "duration": 55, "velocity": 100}, {"time": 20460, "pitch": 71, "duration": 165, "velocity": 100}, {"time": 20515, "pitch": 57, "duration": 55, "velocity": 100}, {"time": 20570, "pitch": 60, "duration": 55, "velocity": 100}, {"time": 20625, "pitch": 57, "duration": 110, "velocity": 100}, {"time": 20625, "pitch": 69, "duration": 55, "velocity": 100}, {"time": 20680, "pitch": 67, "duration": 220, "velocity": 100}, {"time": 20680, "pitch": 71, "duration": 220, "velocity": 100}, {"time": 20790, "pitch": 55, "duration": 55, "velocity": 100}, {"time": 20845, "pitch": 59, "duration": 55, "velocity": 100}, {"time": 20900, "pitch": 71, "duration": 220, "velocity": 100}, {"time": 20900, "pitch": 74, "duration": 220, "velocity": 100}, {"time": 21010, "pitch": 55, "duration": 110, "velocity": 100}, {"time": 21065, "pitch": 59, "duration": 55, "velocity": 100}, {"time": 21120, "pitch": 64, "duration": 440, "velocity": 100}, {"time": 21120, "pitch": 76, "duration": 220, "velocity": 100}, {"time": 21230, "pitch": 52, "duration": 110, "velocity": 100}, {"time": 21340, "pitch": 55, "duration": 55, "velocity": 100}, {"time": 21340, "pitch": 60, "duration": 220, "velocity": 100}, {"time": 21340, "pitch": 76, "duration": 165, "velocity": 100}, {"time": 21450, "pitch": 81, "duration": 55, "velocity": 100}, {"time": 21505, "pitch": 79, "duration": 55, "velocity": 100}, {"time": 21560, "pitch": 71, "duration": 385, "velocity": 100}, {"time": 21560, "pitch": 74, "duration": 385, "velocity": 100}, {"time": 21560, "pitch": 74, "duration": 440, "velocity": 100}, {"time": 21560, "pitch": 79, "duration": 440, "velocity": 100}, {"time": 21780, "pitch": 55, "duration": 55, "velocity": 100}, {"time": 21780, "pitch": 59, "duration": 110, "velocity": 100}, {"time": 21945, "pitch": 59, "duration": 55, "velocity": 100}, {"time": 21945, "pitch": 71, "duration": 55, "velocity": 100}, {"time": 22000, "pitch": 60, "duration": 220, "velocity": 100}, {"time": 22000, "pitch": 72, "duration": 165, "velocity": 100}, {"time": 22000, "pitch": 72, "duration": 440, "velocity": 100}, {"time": 22165, "pitch": 71, "duration": 55, "velocity": 100}, {"time": 22220, "pitch": 54, "duration": 110, "velocity": 100}, {"time": 22220, "pitch": 57, "duration": 110, "velocity": 100}, {"time": 22220, "pitch": 72, "duration": 165, "velocity": 100}, {"time": 22330, "pitch": 72, "duration": 110, "velocity": 100}, {"time": 22385, "pitch": 74, "duration": 55, "velocity": 100}, {"time": 22440, "pitch": 55, "duration": 220, "velocity": 100}, {"time": 22440, "pitch": 59, "duration": 220, "velocity": 100}, {"time": 22440, "pitch": 67, "duration": 440, "velocity": 100}, {"time": 22440, "pitch": 71, "duration": 385, "velocity": 100}, {"time": 22440, "pitch": 71, "duration": 440, "velocity": 100}, {"time": 22660, "pitch": 55, "duration": 110, "velocity": 100}, {"time": 22660, "pitch": 59, "duration": 110, "velocity": 100}, {"time": 22770, "pitch": 55, "duration": 55, "velocity": 100}, {"time": 22825, "pitch": 59, "duration": 55, "velocity": 100}, {"time": 22825, "pitch": 62, "duration": 55, "velocity": 100}, {"time": 22880, "pitch": 67, "duration": 440, "velocity": 100}, {"time": 22880, "pitch": 72, "duration": 165, "velocity": 100}, {"time": 22880, "pitch": 72, "duration": 825, "velocity": 100}, {"time": 22880, "pitch": 76, "duration": 880, "velocity": 100}, {"time": 23045, "pitch": 71, "duration": 55, "velocity": 100}, {"time": 23100, "pitch": 60, "duration": 55, "velocity": 100}, {"time": 23100, "pitch": 64, "duration": 55, "velocity": 100}, {"time": 23100, "pitch": 72, "duration": 165, "velocity": 100}, {"time": 23155, "pitch": 60, "duration": 55, "velocity": 100}, {"time": 23265, "pitch": 60, "duration": 55, "velocity": 100}, {"time": 23265, "pitch": 62, "duration": 55, "velocity": 100}, {"time": 23265, "pitch": 76, "duration": 55, "velocity": 100}, {"time": 23320, "pitch": 59, "duration": 220, "velocity": 100}, {"time": 23320, "pitch": 64, "duration": 220, "velocity": 100}, {"time": 23320, "pitch": 74, "duration": 165, "velocity": 100}, {"time": 23485, "pitch": 71, "duration": 55, "velocity": 100}, {"time": 23540, "pitch": 69, "duration": 165, "velocity": 100}, {"time": 23540, "pitch": 71, "duration": 220, "velocity": 100}, {"time": 23540, "pitch": 74, "duration": 220, "velocity": 100}, {"time": 23705, "pitch": 67, "duration": 55, "velocity": 100}, {"time": 23760, "pitch": 52, "duration": 110, "velocity": 100}, {"time": 23760, "pitch": 69, "duration": 165, "velocity": 100}, {"time": 23760, "pitch": 76, "duration": 385, "velocity": 100}, {"time": 23760, "pitch": 79, "duration": 880, "velocity": 100}, {"time": 23925, "pitch": 71, "duration": 55, "velocity": 100}, {"time": 23980, "pitch": 60, "duration": 55, "velocity": 100}, {"time": 23980, "pitch": 64, "duration": 55, "velocity": 100}, {"time": 23980, "pitch": 69, "duration": 165, "velocity": 100}, {"time": 24035, "pitch": 57, "duration": 55, "velocity": 100}, {"time": 24035, "pitch": 64, "duration": 55, "velocity": 100}, {"time": 24035, "pitch": 67, "duration": 55, "velocity": 100}, {"time": 24145, "pitch": 60, "duration": 55, "velocity": 100}, {"time": 24145, "pitch": 67, "duration": 55, "velocity": 100}, {"time": 24200, "pitch": 60, "duration": 165, "velocity": 100}, {"time": 24200, "pitch": 64, "duration": 220, "velocity": 100}, {"time": 24200, "pitch": 66, "duration": 220, "velocity": 100}, {"time": 24420, "pitch": 60, "duration": 220, "velocity": 100}, {"time": 24420, "pitch": 62, "duration": 110, "velocity": 100}, {"time": 24420, "pitch": 62, "duration": 220, "velocity": 100}, {"time": 24530, "pitch": 64, "duration": 110, "velocity": 100}, {"time": 24640, "pitch": 55, "duration": 165, "velocity": 100}, {"time": 24640, "pitch": 67, "duration": 220, "velocity": 100}, {"time": 24640, "pitch": 71, "duration": 440, "velocity": 100}, {"time": 24640, "pitch": 79, "duration": 880, "velocity": 100}, {"time": 24860, "pitch": 55, "duration": 55, "velocity": 100}, {"time": 24860, "pitch": 62, "duration": 55, "velocity": 100}, {"time": 24860, "pitch": 67, "duration": 165, "velocity": 100}, {"time": 24915, "pitch": 59, "duration": 55, "velocity": 100}, {"time": 25025, "pitch": 59, "duration": 55, "velocity": 100}, {"time": 25025, "pitch": 71, "duration": 55, "velocity": 100}, {"time": 25080, "pitch": 62, "duration": 220, "velocity": 100}, {"time": 25080, "pitch": 78, "duration": 220, "velocity": 100}, {"time": 25080, "pitch": 81, "duration": 220, "velocity": 100}, {"time": 25300, "pitch": 62, "duration": 110, "velocity": 100}, {"time": 25300, "pitch": 78, "duration": 220, "velocity": 100}, {"time": 25300, "pitch": 81, "duration": 220, "velocity": 100}, {"time": 25410, "pitch": 64, "duration": 110, "velocity": 100}, {"time": 25520, "pitch": 55, "duration": 110, "velocity": 100}, {"time": 25520, "pitch": 67, "duration": 165, "velocity": 100}, {"time": 25520, "pitch": 71, "duration": 440, "velocity": 100}, {"time": 25520, "pitch": 79, "duration": 880, "velocity": 100}, {"time": 25685, "pitch": 66, "duration": 55, "velocity": 100}, {"time": 25740, "pitch": 59, "duration": 55, "velocity": 100}, {"time": 25740, "pitch": 62, "duration": 55, "velocity": 100}, {"time": 25740, "pitch": 67, "duration": 165, "velocity": 100}, {"time": 25795, "pitch": 59, "duration": 55, "velocity": 100}, {"time": 25795, "pitch": 62, "duration": 55, "velocity": 100}, {"time": 25905, "pitch": 62, "duration": 55, "velocity": 100}, {"time": 25905, "pitch": 69, "duration": 55, "velocity": 100}, {"time": 25960, "pitch": 59, "duration": 55, "velocity": 100}, {"time": 25960, "pitch": 62, "duration": 165, "velocity": 100}, {"time": 25960, "pitch": 67, "duration": 220, "velocity": 100}, {"time": 25960, "pitch": 71, "duration": 440, "velocity": 100}, {"time": 26180, "pitch": 59, "duration": 220, "velocity": 100}, {"time": 26180, "pitch": 62, "duration": 220, "velocity": 100}, {"time": 26180, "pitch": 65, "duration": 220, "velocity": 100}, {"time": 26180, "pitch": 79, "duration": 220, "velocity": 100}, {"time": 26180, "pitch": 83, "duration": 220, "velocity": 100}, {"time": 26400, "pitch": 55, "duration": 165, "velocity": 100}, {"time": 26400, "pitch": 72, "duration": 165, "velocity": 100}, {"time": 26400, "pitch": 76, "duration": 385, "velocity": 100}, {"time": 26400, "pitch": 79, "duration": 880, "velocity": 100}, {"time": 26400, "pitch": 84, "duration": 880, "velocity": 100}, {"time": 26565, "pitch": 71, "duration": 55, "velocity": 100}, {"time": 26620, "pitch": 57, "duration": 55, "velocity": 100}, {"time": 26620, "pitch": 60, "duration": 55, "velocity": 100}, {"time": 26620, "pitch": 64, "duration": 55, "velocity": 100}, {"time": 26620, "pitch": 72, "duration": 165, "velocity": 100}, {"time": 26675, "pitch": 55, "duration": 55, "velocity": 100}, {"time": 26675, "pitch": 60, "duration": 55, "velocity": 100}, {"time": 26675, "pitch": 64, "duration": 55, "velocity": 100}, {"time": 26785, "pitch": 55, "duration": 55, "velocity": 100}, {"time": 26785, "pitch": 60, "duration": 55, "velocity": 100}, {"time": 26785, "pitch": 64, "duration": 55, "velocity": 100}, {"time": 26785, "pitch": 76, "duration": 55, "velocity": 100}, {"time": 26840, "pitch": 59, "duration": 220, "velocity": 100}, {"time": 26840, "pitch": 62, "duration": 220, "velocity": 100}, {"time": 26840, "pitch": 67, "duration": 165, "velocity": 100}, {"time": 26840, "pitch": 74, "duration": 165, "velocity": 100}, {"time": 27005, "pitch": 71, "duration": 55, "velocity": 100}, {"time": 27060, "pitch": 59, "duration": 220, "velocity": 100}, {"time": 27060, "pitch": 62, "duration": 220, "velocity": 100}, {"time": 27060, "pitch": 67, "duration": 165, "velocity": 100}, {"time": 27060, "pitch": 67, "duration": 165, "velocity": 100}, {"time": 27225, "pitch": 69, "duration": 55, "velocity": 100}, {"time": 27225, "pitch": 71, "duration": 55, "velocity": 100}, {"time": 27280, "pitch": 57, "duration": 220, "velocity": 100}, {"time": 27280, "pitch": 62, "duration": 385, "velocity": 100}, {"time": 27280, "pitch": 66, "duration": 440, "velocity": 100}, {"time": 27280, "pitch": 71, "duration": 165, "velocity": 100}, {"time": 27280, "pitch": 72, "duration": 440, "velocity": 100}, {"time": 27280, "pitch": 74, "duration": 385, "velocity": 100}, {"time": 27445, "pitch": 72, "duration": 55, "velocity": 100}, {"time": 27500, "pitch": 71, "duration": 165, "velocity": 100}, {"time": 27665, "pitch": 69, "duration": 55, "velocity": 100}, {"time": 27720, "pitch": 67, "duration": 220, "velocity": 100}, {"time": 27940, "pitch": 67, "duration": 220, "velocity": 100}]}, {"program": 32, "is_drum": false, "name": "Bass", "notes": [{"time": 0, "pitch": 43, "duration": 330, "velocity": 100}, {"time": 440, "pitch": 42, "duration": 385, "velocity": 100}, {"time": 715, "pitch": 50, "duration": 55, "velocity": 100}, {"time": 825, "pitch": 50, "duration": 55, "velocity": 100}, {"time": 880, "pitch": 43, "duration": 385, "velocity": 100}, {"time": 990, "pitch": 50, "duration": 110, "velocity": 100}, {"time": 1320, "pitch": 43, "duration": 275, "velocity": 100}, {"time": 1375, "pitch": 50, "duration": 55, "velocity": 100}, {"time": 1485, "pitch": 50, "duration": 55, "velocity": 100}, {"time": 1595, "pitch": 50, "duration": 55, "velocity": 100}, {"time": 1705, "pitch": 50, "duration": 55, "velocity": 100}, {"time": 1760, "pitch": 36, "duration": 385, "velocity": 100}, {"time": 2200, "pitch": 43, "duration": 110, "velocity": 100}, {"time": 2255, "pitch": 50, "duration": 110, "velocity": 100}, {"time": 2420, "pitch": 43, "duration": 165, "velocity": 100}, {"time": 2475, "pitch": 50, "duration": 110, "velocity": 100}, {"time": 2530, "pitch": 50, "duration": 55, "velocity": 100}, {"time": 2640, "pitch": 45, "duration": 330, "velocity": 100}, {"time": 3080, "pitch": 38, "duration": 385, "velocity": 100}, {"time": 3135, "pitch": 45, "duration": 330, "velocity": 100}, {"time": 3190, "pitch": 50, "duration": 55, "velocity": 100}, {"time": 3410, "pitch": 50, "duration": 55, "velocity": 100}, {"time": 3520, "pitch": 43, "duration": 330, "velocity": 100}, {"time": 3630, "pitch": 47, "duration": 220, "velocity": 100}, {"time": 3960, "pitch": 38, "duration": 385, "velocity": 100}, {"time": 4015, "pitch": 45, "duration": 275, "velocity": 100}, {"time": 4290, "pitch": 50, "duration": 55, "velocity": 100}, {"time": 4345, "pitch": 50, "duration": 55, "velocity": 100}, {"time": 4400, "pitch": 31, "duration": 385, "velocity": 100}, {"time": 4455, "pitch": 38, "duration": 330, "velocity": 100}, {"time": 4565, "pitch": 50, "duration": 55, "velocity": 100}, {"time": 4730, "pitch": 50, "duration": 55, "velocity": 100}, {"time": 4785, "pitch": 50, "duration": 55, "velocity": 100}, {"time": 4840, "pitch": 38, "duration": 385, "velocity": 100}, {"time": 4895, "pitch": 45, "duration": 330, "velocity": 100}, {"time": 5170, "pitch": 50, "duration": 55, "velocity": 100}, {"time": 5280, "pitch": 43, "duration": 330, "velocity": 100}, {"time": 5720, "pitch": 43, "duration": 385, "velocity": 100}, {"time": 5885, "pitch": 50, "duration": 55, "velocity": 100}, {"time": 5995, "pitch": 50, "duration": 55, "velocity": 100}, {"time": 6105, "pitch": 50, "duration": 55, "velocity": 100}, {"time": 6160, "pitch": 38, "duration": 385, "velocity": 100}, {"time": 6270, "pitch": 50, "duration": 110, "velocity": 100}, {"time": 6490, "pitch": 50, "duration": 55, "velocity": 100}, {"time": 6600, "pitch": 43, "duration": 330, "velocity": 100}, {"time": 6655, "pitch": 50, "duration": 55, "velocity": 100}, {"time": 6765, "pitch": 50, "duration": 55, "velocity": 100}, {"time": 6875, "pitch": 50, "duration": 55, "velocity": 100}, {"time": 6985, "pitch": 50, "duration": 55, "velocity": 100}, {"time": 7040, "pitch": 38, "duration": 385, "velocity": 100}, {"time": 7150, "pitch": 50, "duration": 55, "velocity": 100}, {"time": 7370, "pitch": 50, "duration": 55, "velocity": 100}, {"time": 7480, "pitch": 42, "duration": 165, "velocity": 100}, {"time": 7535, "pitch": 50, "duration": 55, "velocity": 100}, {"time": 7700, "pitch": 38, "duration": 165, "velocity": 100}, {"time": 7755, "pitch": 50, "duration": 110, "velocity": 100}, {"time": 7810, "pitch": 50, "duration": 55, "velocity": 100}, {"time": 7920, "pitch": 43, "duration": 165, "velocity": 100}, {"time": 7975, "pitch": 50, "duration": 55, "velocity": 100}, {"time": 8140, "pitch": 38, "duration": 165, "velocity": 100}, {"time": 8195, "pitch": 50, "duration": 110, "velocity": 100}, {"time": 8250, "pitch": 50, "duration": 55, "velocity": 100}, {"time": 8360, "pitch": 43, "duration": 385, "velocity": 100}, {"time": 8415, "pitch": 50, "duration": 55, "velocity": 100}, {"time": 8525, "pitch": 50, "duration": 55, "velocity": 100}, {"time": 8635, "pitch": 50, "duration": 55, "velocity": 100}, {"time": 8745, "pitch": 43, "duration": 55, "velocity": 100}, {"time": 8800, "pitch": 36, "duration": 275, "velocity": 100}, {"time": 8910, "pitch": 52, "duration": 110, "velocity": 100}, {"time": 9185, "pitch": 50, "duration": 220, "velocity": 100}, {"time": 9240, "pitch": 35, "duration": 385, "velocity": 100}, {"time": 9350, "pitch": 47, "duration": 275, "velocity": 100}, {"time": 9405, "pitch": 50, "duration": 55, "velocity": 100}, {"time": 9570, "pitch": 50, "duration": 110, "velocity": 100}, {"time": 9625, "pitch": 52, "duration": 55, "velocity": 100}, {"time": 9790, "pitch": 48, "duration": 110, "velocity": 100}, {"time": 10065, "pitch": 50, "duration": 55, "velocity": 100}, {"time": 10230, "pitch": 38, "duration": 275, "velocity": 100}, {"time": 10505, "pitch": 50, "duration": 55, "velocity": 100}, {"time": 10560, "pitch": 43, "duration": 330, "velocity": 100}, {"time": 10670, "pitch": 50, "duration": 55, "velocity": 100}, {"time": 10780, "pitch": 50, "duration": 55, "velocity": 100}, {"time": 11000, "pitch": 45, "duration": 385, "velocity": 100}, {"time": 11055, "pitch": 50, "duration": 165, "velocity": 100}, {"time": 11275, "pitch": 50, "duration": 110, "velocity": 100}, {"time": 11440, "pitch": 43, "duration": 275, "velocity": 100}, {"time": 11550, "pitch": 50, "duration": 110, "velocity": 100}, {"time": 11715, "pitch": 50, "duration": 55, "velocity": 100}, {"time": 11880, "pitch": 43, "duration": 385, "velocity": 100}, {"time": 11935, "pitch": 50, "duration": 275, "velocity": 100}, {"time": 12320, "pitch": 48, "duration": 110, "velocity": 100}, {"time": 12540, "pitch": 40, "duration": 220, "velocity": 100}, {"time": 12595, "pitch": 48, "duration": 110, "velocity": 100}, {"time": 12760, "pitch": 43, "duration": 275, "velocity": 100}, {"time": 12870, "pitch": 50, "duration": 110, "velocity": 100}, {"time": 13035, "pitch": 50, "duration": 55, "velocity": 100}, {"time": 13200, "pitch": 42, "duration": 385, "velocity": 100}, {"time": 13255, "pitch": 50, "duration": 220, "velocity": 100}, {"time": 13475, "pitch": 50, "duration": 110, "velocity": 100}, {"time": 13640, "pitch": 43, "duration": 275, "velocity": 100}, {"time": 13750, "pitch": 50, "duration": 110, "velocity": 100}, {"time": 13915, "pitch": 50, "duration": 55, "velocity": 100}, {"time": 14080, "pitch": 48, "duration": 275, "velocity": 100}, {"time": 14190, "pitch": 52, "duration": 110, "velocity": 100}, {"time": 14355, "pitch": 52, "duration": 55, "velocity": 100}, {"time": 14410, "pitch": 48, "duration": 55, "velocity": 100}, {"time": 14520, "pitch": 43, "duration": 275, "velocity": 100}, {"time": 14630, "pitch": 50, "duration": 165, "velocity": 100}, {"time": 14960, "pitch": 38, "duration": 275, "velocity": 100}, {"time": 15070, "pitch": 50, "duration": 165, "velocity": 100}, {"time": 15290, "pitch": 50, "duration": 55, "velocity": 100}, {"time": 15400, "pitch": 43, "duration": 165, "velocity": 100}, {"time": 15840, "pitch": 36, "duration": 55, "velocity": 100}, {"time": 15950, "pitch": 48, "duration": 275, "velocity": 100}, {"time": 16170, "pitch": 48, "duration": 110, "velocity": 100}, {"time": 16280, "pitch": 43, "duration": 330, "velocity": 100}, {"time": 16390, "pitch": 50, "duration": 165, "velocity": 100}, {"time": 16610, "pitch": 43, "duration": 110, "velocity": 100}, {"time": 16720, "pitch": 45, "duration": 275, "velocity": 100}, {"time": 16830, "pitch": 52, "duration": 165, "velocity": 100}, {"time": 17050, "pitch": 52, "duration": 110, "velocity": 100}, {"time": 17160, "pitch": 42, "duration": 275, "velocity": 100}, {"time": 17270, "pitch": 54, "duration": 110, "velocity": 100}, {"time": 17435, "pitch": 50, "duration": 55, "velocity": 100}, {"time": 17600, "pitch": 43, "duration": 330, "velocity": 100}, {"time": 17710, "pitch": 55, "duration": 110, "velocity": 100}, {"time": 18040, "pitch": 42, "duration": 385, "velocity": 100}, {"time": 18095, "pitch": 50, "duration": 275, "velocity": 100}, {"time": 18370, "pitch": 50, "duration": 110, "velocity": 100}, {"time": 18480, "pitch": 43, "duration": 275, "velocity": 100}, {"time": 18590, "pitch": 50, "duration": 165, "velocity": 100}, {"time": 18700, "pitch": 55, "duration": 110, "velocity": 100}, {"time": 18920, "pitch": 38, "duration": 275, "velocity": 100}, {"time": 19030, "pitch": 43, "duration": 165, "velocity": 100}, {"time": 19360, "pitch": 48, "duration": 330, "velocity": 100}, {"time": 19470, "pitch": 55, "duration": 110, "velocity": 100}, {"time": 19635, "pitch": 55, "duration": 55, "velocity": 100}, {"time": 19800, "pitch": 43, "duration": 385, "velocity": 100}, {"time": 19910, "pitch": 50, "duration": 110, "velocity": 100}, {"time": 20130, "pitch": 55, "duration": 55, "velocity": 100}, {"time": 20240, "pitch": 38, "duration": 330, "velocity": 100}, {"time": 20350, "pitch": 45, "duration": 275, "velocity": 100}, {"time": 20405, "pitch": 50, "duration": 110, "velocity": 100}, {"time": 20460, "pitch": 54, "duration": 55, "velocity": 100}, {"time": 20680, "pitch": 43, "duration": 165, "velocity": 100}, {"time": 20735, "pitch": 50, "duration": 55, "velocity": 100}, {"time": 20900, "pitch": 43, "duration": 165, "velocity": 100}, {"time": 20955, "pitch": 50, "duration": 55, "velocity": 100}, {"time": 21120, "pitch": 40, "duration": 275, "velocity": 100}, {"time": 21175, "pitch": 43, "duration": 110, "velocity": 100}, {"time": 21340, "pitch": 52, "duration": 55, "velocity": 100}, {"time": 21560, "pitch": 43, "duration": 220, "velocity": 100}, {"time": 21670, "pitch": 50, "duration": 55, "velocity": 100}, {"time": 21890, "pitch": 55, "duration": 55, "velocity": 100}, {"time": 22000, "pitch": 38, "duration": 220, "velocity": 100}, {"time": 22110, "pitch": 45, "duration": 110, "velocity": 100}, {"time": 22220, "pitch": 50, "duration": 110, "velocity": 100}, {"time": 22440, "pitch": 43, "duration": 440, "velocity": 100}, {"time": 22550, "pitch": 50, "duration": 110, "velocity": 100}, {"time": 22715, "pitch": 50, "duration": 55, "velocity": 100}, {"time": 22880, "pitch": 36, "duration": 385, "velocity": 100}, {"time": 22880, "pitch": 48, "duration": 165, "velocity": 100}, {"time": 23100, "pitch": 48, "duration": 55, "velocity": 100}, {"time": 23155, "pitch": 55, "duration": 55, "velocity": 100}, {"time": 23320, "pitch": 55, "duration": 165, "velocity": 100}, {"time": 23540, "pitch": 35, "duration": 220, "velocity": 100}, {"time": 23540, "pitch": 47, "duration": 220, "velocity": 100}, {"time": 23760, "pitch": 33, "duration": 275, "velocity": 100}, {"time": 23980, "pitch": 57, "duration": 55, "velocity": 100}, {"time": 24035, "pitch": 55, "duration": 55, "velocity": 100}, {"time": 24145, "pitch": 57, "duration": 55, "velocity": 100}, {"time": 24200, "pitch": 57, "duration": 165, "velocity": 100}, {"time": 24420, "pitch": 57, "duration": 220, "velocity": 100}, {"time": 24640, "pitch": 43, "duration": 330, "velocity": 100}, {"time": 24860, "pitch": 50, "duration": 55, "velocity": 100}, {"time": 24915, "pitch": 55, "duration": 55, "velocity": 100}, {"time": 25025, "pitch": 55, "duration": 55, "velocity": 100}, {"time": 25080, "pitch": 38, "duration": 165, "velocity": 100}, {"time": 25080, "pitch": 45, "duration": 220, "velocity": 100}, {"time": 25300, "pitch": 38, "duration": 165, "velocity": 100}, {"time": 25300, "pitch": 50, "duration": 55, "velocity": 100}, {"time": 25520, "pitch": 43, "duration": 385, "velocity": 100}, {"time": 25795, "pitch": 55, "duration": 55, "velocity": 100}, {"time": 25905, "pitch": 55, "duration": 55, "velocity": 100}, {"time": 25960, "pitch": 55, "duration": 55, "velocity": 100}, {"time": 26180, "pitch": 55, "duration": 220, "velocity": 100}, {"time": 26400, "pitch": 40, "duration": 385, "velocity": 100}, {"time": 26620, "pitch": 55, "duration": 55, "velocity": 100}, {"time": 26675, "pitch": 48, "duration": 55, "velocity": 100}, {"time": 26785, "pitch": 52, "duration": 55, "velocity": 100}, {"time": 26840, "pitch": 55, "duration": 220, "velocity": 100}, {"time": 27060, "pitch": 50, "duration": 220, "velocity": 100}, {"time": 27280, "pitch": 38, "duration": 110, "velocity": 100}, {"time": 27500, "pitch": 38, "duration": 55, "velocity": 100}, {"time": 27555, "pitch": 38, "duration": 55, "velocity": 100}, {"time": 27555, "pitch": 50, "duration": 55, "velocity": 100}, {"time": 27665, "pitch": 38, "duration": 55, "velocity": 100}, {"time": 27720, "pitch": 38, "duration": 275, "velocity": 100}, {"time": 27720, "pitch": 48, "duration": 55, "velocity": 100}]}, {"program": 48, "is_drum": false, "name": "Strings"}, {"program": 61, "is_drum": false, "name": "Brass"}]}