{"metadata": {"schema_version": "0.1", "title": "None", "source_filename": "20211210_053247.mid", "source_format": "midi"}, "resolution": 220, "tempos": [{"time": 0, "qpm": 120.0}], "time_signatures": [{"time": 0, "numerator": 4, "denominator": 4}], "tracks": [{"program": 0, "is_drum": false, "name": "Piano", "notes": [{"time": 0, "pitch": 62, "duration": 220, "velocity": 100}]}, {"program": 24, "is_drum": false, "name": "Guitar", "notes": [{"time": 110, "pitch": 57, "duration": 275, "velocity": 100}, {"time": 220, "pitch": 64, "duration": 220, "velocity": 100}, {"time": 220, "pitch": 70, "duration": 220, "velocity": 100}, {"time": 440, "pitch": 50, "duration": 385, "velocity": 100}, {"time": 495, "pitch": 74, "duration": 220, "velocity": 100}, {"time": 550, "pitch": 59, "duration": 110, "velocity": 100}, {"time": 605, "pitch": 62, "duration": 55, "velocity": 100}, {"time": 660, "pitch": 66, "duration": 55, "velocity": 100}, {"time": 715, "pitch": 62, "duration": 55, "velocity": 100}, {"time": 715, "pitch": 74, "duration": 220, "velocity": 100}, {"time": 880, "pitch": 62, "duration": 110, "velocity": 100}, {"time": 880, "pitch": 66, "duration": 165, "velocity": 100}, {"time": 935, "pitch": 71, "duration": 165, "velocity": 100}, {"time": 990, "pitch": 57, "duration": 275, "velocity": 100}, {"time": 1045, "pitch": 62, "duration": 110, "velocity": 100}, {"time": 1100, "pitch": 74, "duration": 55, "velocity": 100}, {"time": 1155, "pitch": 66, "duration": 55, "velocity": 100}, {"time": 1155, "pitch": 71, "duration": 165, "velocity": 100}, {"time": 1210, "pitch": 62, "duration": 55, "velocity": 100}, {"time": 1320, "pitch": 66, "duration": 220, "velocity": 100}, {"time": 1320, "pitch": 67, "duration": 165, "velocity": 100}, {"time": 1485, "pitch": 57, "duration": 165, "velocity": 100}, {"time": 1485, "pitch": 71, "duration": 55, "velocity": 100}, {"time": 1540, "pitch": 62, "duration": 110, "velocity": 100}, {"time": 1540, "pitch": 67, "duration": 220, "velocity": 100}, {"time": 1540, "pitch": 69, "duration": 55, "velocity": 100}, {"time": 1595, "pitch": 66, "duration": 55, "velocity": 100}, {"time": 1650, "pitch": 69, "duration": 110, "velocity": 100}, {"time": 1650, "pitch": 73, "duration": 110, "velocity": 100}, {"time": 1705, "pitch": 74, "duration": 55, "velocity": 100}, {"time": 1760, "pitch": 74, "duration": 440, "velocity": 100}, {"time": 1870, "pitch": 57, "duration": 165, "velocity": 100}, {"time": 1980, "pitch": 62, "duration": 55, "velocity": 100}, {"time": 1980, "pitch": 66, "duration": 110, "velocity": 100}, {"time": 2090, "pitch": 62, "duration": 55, "velocity": 100}, {"time": 2200, "pitch": 66, "duration": 165, "velocity": 100}, {"time": 2255, "pitch": 74, "duration": 220, "velocity": 100}, {"time": 2310, "pitch": 57, "duration": 165, "velocity": 100}, {"time": 2365, "pitch": 62, "duration": 110, "velocity": 100}, {"time": 2475, "pitch": 66, "duration": 55, "velocity": 100}, {"time": 2475, "pitch": 72, "duration": 55, "velocity": 100}, {"time": 2530, "pitch": 62, "duration": 55, "velocity": 100}, {"time": 2530, "pitch": 74, "duration": 110, "velocity": 100}, {"time": 2640, "pitch": 62, "duration": 110, "velocity": 100}, {"time": 2640, "pitch": 66, "duration": 165, "velocity": 100}, {"time": 2640, "pitch": 76, "duration": 55, "velocity": 100}, {"time": 2695, "pitch": 74, "duration": 220, "velocity": 100}, {"time": 2750, "pitch": 57, "duration": 275, "velocity": 100}, {"time": 2805, "pitch": 69, "duration": 110, "velocity": 100}, {"time": 2915, "pitch": 69, "duration": 55, "velocity": 100}, {"time": 2970, "pitch": 62, "duration": 55, "velocity": 100}, {"time": 3080, "pitch": 62, "duration": 110, "velocity": 100}, {"time": 3080, "pitch": 66, "duration": 165, "velocity": 100}, {"time": 3135, "pitch": 71, "duration": 275, "velocity": 100}, {"time": 3190, "pitch": 57, "duration": 165, "velocity": 100}, {"time": 3245, "pitch": 66, "duration": 55, "velocity": 100}, {"time": 3300, "pitch": 62, "duration": 55, "velocity": 100}, {"time": 3300, "pitch": 66, "duration": 110, "velocity": 100}, {"time": 3410, "pitch": 69, "duration": 55, "velocity": 100}, {"time": 3465, "pitch": 71, "duration": 55, "velocity": 100}, {"time": 3520, "pitch": 57, "duration": 275, "velocity": 100}, {"time": 3520, "pitch": 60, "duration": 55, "velocity": 100}, {"time": 3520, "pitch": 64, "duration": 220, "velocity": 100}, {"time": 3520, "pitch": 72, "duration": 55, "velocity": 100}, {"time": 3575, "pitch": 71, "duration": 220, "velocity": 100}, {"time": 3630, "pitch": 64, "duration": 110, "velocity": 100}, {"time": 3740, "pitch": 72, "duration": 220, "velocity": 100}, {"time": 3850, "pitch": 64, "duration": 55, "velocity": 100}, {"time": 3905, "pitch": 69, "duration": 55, "velocity": 100}, {"time": 3960, "pitch": 69, "duration": 440, "velocity": 100}, {"time": 3960, "pitch": 74, "duration": 220, "velocity": 100}, {"time": 4070, "pitch": 52, "duration": 165, "velocity": 100}, {"time": 4125, "pitch": 57, "duration": 165, "velocity": 100}, {"time": 4180, "pitch": 78, "duration": 55, "velocity": 100}, {"time": 4235, "pitch": 60, "duration": 165, "velocity": 100}, {"time": 4235, "pitch": 76, "duration": 55, "velocity": 100}, {"time": 4290, "pitch": 69, "duration": 220, "velocity": 100}, {"time": 4290, "pitch": 74, "duration": 110, "velocity": 100}, {"time": 4345, "pitch": 57, "duration": 55, "velocity": 100}, {"time": 4400, "pitch": 76, "duration": 110, "velocity": 100}, {"time": 4400, "pitch": 88, "duration": 220, "velocity": 100}, {"time": 4455, "pitch": 57, "duration": 55, "velocity": 100}, {"time": 4510, "pitch": 60, "duration": 55, "velocity": 100}, {"time": 4510, "pitch": 78, "duration": 110, "velocity": 100}, {"time": 4620, "pitch": 57, "duration": 165, "velocity": 100}, {"time": 4620, "pitch": 60, "duration": 220, "velocity": 100}, {"time": 4620, "pitch": 69, "duration": 220, "velocity": 100}, {"time": 4620, "pitch": 79, "duration": 110, "velocity": 100}, {"time": 4620, "pitch": 88, "duration": 165, "velocity": 100}, {"time": 4730, "pitch": 78, "duration": 110, "velocity": 100}, {"time": 4840, "pitch": 60, "duration": 110, "velocity": 100}, {"time": 4840, "pitch": 64, "duration": 165, "velocity": 100}, {"time": 4840, "pitch": 76, "duration": 165, "velocity": 100}, {"time": 4840, "pitch": 84, "duration": 440, "velocity": 100}, {"time": 4950, "pitch": 52, "duration": 165, "velocity": 100}, {"time": 5005, "pitch": 64, "duration": 110, "velocity": 100}, {"time": 5005, "pitch": 74, "duration": 110, "velocity": 100}, {"time": 5115, "pitch": 69, "duration": 55, "velocity": 100}, {"time": 5115, "pitch": 72, "duration": 110, "velocity": 100}, {"time": 5170, "pitch": 60, "duration": 55, "velocity": 100}, {"time": 5225, "pitch": 64, "duration": 55, "velocity": 100}, {"time": 5225, "pitch": 72, "duration": 55, "velocity": 100}, {"time": 5280, "pitch": 57, "duration": 275, "velocity": 100}, {"time": 5280, "pitch": 74, "duration": 55, "velocity": 100}, {"time": 5335, "pitch": 72, "duration": 55, "velocity": 100}, {"time": 5390, "pitch": 64, "duration": 165, "velocity": 100}, {"time": 5390, "pitch": 71, "duration": 55, "velocity": 100}, {"time": 5445, "pitch": 72, "duration": 55, "velocity": 100}, {"time": 5500, "pitch": 69, "duration": 220, "velocity": 100}, {"time": 5500, "pitch": 71, "duration": 220, "velocity": 100}, {"time": 5500, "pitch": 72, "duration": 220, "velocity": 100}, {"time": 5720, "pitch": 57, "duration": 220, "velocity": 100}, {"time": 5720, "pitch": 71, "duration": 165, "velocity": 100}, {"time": 5775, "pitch": 64, "duration": 55, "velocity": 100}, {"time": 5830, "pitch": 69, "duration": 55, "velocity": 100}, {"time": 5885, "pitch": 69, "duration": 110, "velocity": 100}, {"time": 5885, "pitch": 69, "duration": 165, "velocity": 100}, {"time": 5940, "pitch": 52, "duration": 110, "velocity": 100}, {"time": 5995, "pitch": 67, "duration": 55, "velocity": 100}, {"time": 5995, "pitch": 72, "duration": 165, "velocity": 100}, {"time": 6050, "pitch": 67, "duration": 55, "velocity": 100}, {"time": 6105, "pitch": 64, "duration": 55, "velocity": 100}, {"time": 6160, "pitch": 64, "duration": 110, "velocity": 100}, {"time": 6160, "pitch": 69, "duration": 165, "velocity": 100}, {"time": 6160, "pitch": 71, "duration": 110, "velocity": 100}, {"time": 6270, "pitch": 52, "duration": 110, "velocity": 100}, {"time": 6270, "pitch": 69, "duration": 110, "velocity": 100}, {"time": 6325, "pitch": 64, "duration": 110, "velocity": 100}, {"time": 6380, "pitch": 76, "duration": 220, "velocity": 100}, {"time": 6435, "pitch": 72, "duration": 55, "velocity": 100}, {"time": 6435, "pitch": 93, "duration": 55, "velocity": 100}, {"time": 6490, "pitch": 64, "duration": 110, "velocity": 100}, {"time": 6545, "pitch": 69, "duration": 55, "velocity": 100}, {"time": 6545, "pitch": 81, "duration": 55, "velocity": 100}, {"time": 6600, "pitch": 64, "duration": 110, "velocity": 100}, {"time": 6600, "pitch": 67, "duration": 275, "velocity": 100}, {"time": 6600, "pitch": 72, "duration": 55, "velocity": 100}, {"time": 6600, "pitch": 93, "duration": 275, "velocity": 100}, {"time": 6820, "pitch": 64, "duration": 55, "velocity": 100}, {"time": 6820, "pitch": 69, "duration": 220, "velocity": 100}, {"time": 6875, "pitch": 67, "duration": 165, "velocity": 100}, {"time": 6930, "pitch": 64, "duration": 110, "velocity": 100}, {"time": 7040, "pitch": 55, "duration": 165, "velocity": 100}, {"time": 7040, "pitch": 62, "duration": 165, "velocity": 100}, {"time": 7040, "pitch": 66, "duration": 220, "velocity": 100}, {"time": 7040, "pitch": 67, "duration": 385, "velocity": 100}, {"time": 7040, "pitch": 71, "duration": 385, "velocity": 100}, {"time": 7260, "pitch": 55, "duration": 55, "velocity": 100}, {"time": 7260, "pitch": 59, "duration": 110, "velocity": 100}, {"time": 7260, "pitch": 62, "duration": 165, "velocity": 100}, {"time": 7370, "pitch": 81, "duration": 110, "velocity": 100}, {"time": 7425, "pitch": 55, "duration": 55, "velocity": 100}, {"time": 7480, "pitch": 55, "duration": 110, "velocity": 100}, {"time": 7480, "pitch": 62, "duration": 110, "velocity": 100}, {"time": 7480, "pitch": 67, "duration": 385, "velocity": 100}, {"time": 7480, "pitch": 71, "duration": 385, "velocity": 100}, {"time": 7535, "pitch": 81, "duration": 165, "velocity": 100}, {"time": 7645, "pitch": 55, "duration": 55, "velocity": 100}, {"time": 7700, "pitch": 55, "duration": 55, "velocity": 100}, {"time": 7700, "pitch": 62, "duration": 110, "velocity": 100}, {"time": 7755, "pitch": 81, "duration": 165, "velocity": 100}, {"time": 7920, "pitch": 59, "duration": 110, "velocity": 100}, {"time": 7920, "pitch": 67, "duration": 110, "velocity": 100}, {"time": 7920, "pitch": 71, "duration": 385, "velocity": 100}, {"time": 7920, "pitch": 74, "duration": 385, "velocity": 100}, {"time": 7975, "pitch": 81, "duration": 165, "velocity": 100}, {"time": 8030, "pitch": 55, "duration": 110, "velocity": 100}, {"time": 8140, "pitch": 59, "duration": 55, "velocity": 100}, {"time": 8140, "pitch": 62, "duration": 55, "velocity": 100}, {"time": 8195, "pitch": 55, "duration": 55, "velocity": 100}, {"time": 8195, "pitch": 81, "duration": 165, "velocity": 100}, {"time": 8250, "pitch": 59, "duration": 55, "velocity": 100}, {"time": 8360, "pitch": 55, "duration": 55, "velocity": 100}, {"time": 8360, "pitch": 59, "duration": 110, "velocity": 100}, {"time": 8360, "pitch": 62, "duration": 165, "velocity": 100}, {"time": 8360, "pitch": 71, "duration": 220, "velocity": 100}, {"time": 8470, "pitch": 55, "duration": 110, "velocity": 100}, {"time": 8470, "pitch": 81, "duration": 110, "velocity": 100}, {"time": 8525, "pitch": 59, "duration": 55, "velocity": 100}, {"time": 8580, "pitch": 62, "duration": 110, "velocity": 100}, {"time": 8580, "pitch": 79, "duration": 110, "velocity": 100}, {"time": 8580, "pitch": 79, "duration": 110, "velocity": 100}, {"time": 8690, "pitch": 59, "duration": 55, "velocity": 100}, {"time": 8690, "pitch": 81, "duration": 55, "velocity": 100}, {"time": 8690, "pitch": 81, "duration": 110, "velocity": 100}, {"time": 8745, "pitch": 79, "duration": 55, "velocity": 100}, {"time": 8800, "pitch": 55, "duration": 55, "velocity": 100}, {"time": 8800, "pitch": 59, "duration": 110, "velocity": 100}, {"time": 8800, "pitch": 67, "duration": 110, "velocity": 100}, {"time": 8800, "pitch": 71, "duration": 440, "velocity": 100}, {"time": 8800, "pitch": 79, "duration": 440, "velocity": 100}, {"time": 8855, "pitch": 78, "duration": 220, "velocity": 100}, {"time": 8910, "pitch": 55, "duration": 55, "velocity": 100}, {"time": 8965, "pitch": 59, "duration": 110, "velocity": 100}, {"time": 9075, "pitch": 55, "duration": 55, "velocity": 100}, {"time": 9075, "pitch": 59, "duration": 55, "velocity": 100}, {"time": 9075, "pitch": 76, "duration": 110, "velocity": 100}, {"time": 9185, "pitch": 78, "duration": 55, "velocity": 100}, {"time": 9240, "pitch": 55, "duration": 110, "velocity": 100}, {"time": 9240, "pitch": 59, "duration": 165, "velocity": 100}, {"time": 9240, "pitch": 67, "duration": 275, "velocity": 100}, {"time": 9240, "pitch": 71, "duration": 440, "velocity": 100}, {"time": 9240, "pitch": 76, "duration": 110, "velocity": 100}, {"time": 9350, "pitch": 74, "duration": 220, "velocity": 100}, {"time": 9460, "pitch": 55, "duration": 55, "velocity": 100}, {"time": 9460, "pitch": 62, "duration": 55, "velocity": 100}, {"time": 9570, "pitch": 73, "duration": 55, "velocity": 100}, {"time": 9625, "pitch": 71, "duration": 55, "velocity": 100}, {"time": 9680, "pitch": 55, "duration": 110, "velocity": 100}, {"time": 9680, "pitch": 62, "duration": 220, "velocity": 100}, {"time": 9680, "pitch": 69, "duration": 55, "velocity": 100}, {"time": 9680, "pitch": 71, "duration": 275, "velocity": 100}, {"time": 9735, "pitch": 74, "duration": 220, "velocity": 100}, {"time": 9845, "pitch": 62, "duration": 110, "velocity": 100}, {"time": 9955, "pitch": 59, "duration": 55, "velocity": 100}, {"time": 10010, "pitch": 67, "duration": 55, "velocity": 100}, {"time": 10065, "pitch": 79, "duration": 110, "velocity": 100}, {"time": 10120, "pitch": 55, "duration": 55, "velocity": 100}, {"time": 10120, "pitch": 59, "duration": 110, "velocity": 100}, {"time": 10120, "pitch": 71, "duration": 110, "velocity": 100}, {"time": 10120, "pitch": 74, "duration": 165, "velocity": 100}, {"time": 10230, "pitch": 55, "duration": 110, "velocity": 100}, {"time": 10230, "pitch": 74, "duration": 55, "velocity": 100}, {"time": 10230, "pitch": 79, "duration": 110, "velocity": 100}, {"time": 10285, "pitch": 59, "duration": 55, "velocity": 100}, {"time": 10285, "pitch": 79, "duration": 55, "velocity": 100}, {"time": 10340, "pitch": 83, "duration": 110, "velocity": 100}, {"time": 10395, "pitch": 59, "duration": 55, "velocity": 100}, {"time": 10395, "pitch": 62, "duration": 55, "velocity": 100}, {"time": 10450, "pitch": 59, "duration": 110, "velocity": 100}, {"time": 10450, "pitch": 79, "duration": 110, "velocity": 100}, {"time": 10560, "pitch": 55, "duration": 110, "velocity": 100}, {"time": 10560, "pitch": 59, "duration": 220, "velocity": 100}, {"time": 10560, "pitch": 79, "duration": 440, "velocity": 100}, {"time": 10670, "pitch": 79, "duration": 165, "velocity": 100}, {"time": 10725, "pitch": 55, "duration": 110, "velocity": 100}, {"time": 10780, "pitch": 74, "duration": 220, "velocity": 100}, {"time": 10835, "pitch": 59, "duration": 110, "velocity": 100}, {"time": 10945, "pitch": 55, "duration": 165, "velocity": 100}, {"time": 10945, "pitch": 79, "duration": 110, "velocity": 100}, {"time": 11000, "pitch": 79, "duration": 110, "velocity": 100}, {"time": 11110, "pitch": 79, "duration": 110, "velocity": 100}, {"time": 11165, "pitch": 79, "duration": 110, "velocity": 100}, {"time": 11220, "pitch": 55, "duration": 55, "velocity": 100}, {"time": 11220, "pitch": 79, "duration": 220, "velocity": 100}, {"time": 11275, "pitch": 59, "duration": 110, "velocity": 100}, {"time": 11275, "pitch": 78, "duration": 110, "velocity": 100}, {"time": 11330, "pitch": 59, "duration": 110, "velocity": 100}, {"time": 11385, "pitch": 55, "duration": 55, "velocity": 100}, {"time": 11385, "pitch": 76, "duration": 55, "velocity": 100}, {"time": 11440, "pitch": 74, "duration": 55, "velocity": 100}, {"time": 11440, "pitch": 83, "duration": 220, "velocity": 100}, {"time": 11495, "pitch": 73, "duration": 55, "velocity": 100}, {"time": 11550, "pitch": 55, "duration": 55, "velocity": 100}, {"time": 11550, "pitch": 71, "duration": 110, "velocity": 100}, {"time": 11605, "pitch": 59, "duration": 55, "velocity": 100}, {"time": 11660, "pitch": 69, "duration": 55, "velocity": 100}, {"time": 11660, "pitch": 81, "duration": 220, "velocity": 100}, {"time": 11715, "pitch": 76, "duration": 55, "velocity": 100}, {"time": 11770, "pitch": 55, "duration": 110, "velocity": 100}, {"time": 11770, "pitch": 78, "duration": 55, "velocity": 100}, {"time": 11825, "pitch": 59, "duration": 55, "velocity": 100}, {"time": 11825, "pitch": 76, "duration": 55, "velocity": 100}, {"time": 11880, "pitch": 78, "duration": 55, "velocity": 100}, {"time": 11880, "pitch": 79, "duration": 220, "velocity": 100}, {"time": 11935, "pitch": 76, "duration": 55, "velocity": 100}, {"time": 11990, "pitch": 74, "duration": 55, "velocity": 100}, {"time": 12045, "pitch": 76, "duration": 55, "velocity": 100}, {"time": 12100, "pitch": 55, "duration": 55, "velocity": 100}, {"time": 12100, "pitch": 59, "duration": 110, "velocity": 100}, {"time": 12100, "pitch": 62, "duration": 220, "velocity": 100}, {"time": 12100, "pitch": 74, "duration": 220, "velocity": 100}, {"time": 12210, "pitch": 62, "duration": 110, "velocity": 100}, {"time": 12320, "pitch": 67, "duration": 385, "velocity": 100}, {"time": 12320, "pitch": 71, "duration": 440, "velocity": 100}, {"time": 12375, "pitch": 86, "duration": 220, "velocity": 100}, {"time": 12430, "pitch": 55, "duration": 55, "velocity": 100}, {"time": 12540, "pitch": 55, "duration": 55, "velocity": 100}, {"time": 12540, "pitch": 59, "duration": 110, "velocity": 100}, {"time": 12595, "pitch": 85, "duration": 220, "velocity": 100}, {"time": 12650, "pitch": 55, "duration": 55, "velocity": 100}, {"time": 12705, "pitch": 59, "duration": 55, "velocity": 100}, {"time": 12760, "pitch": 59, "duration": 220, "velocity": 100}, {"time": 12760, "pitch": 67, "duration": 220, "velocity": 100}, {"time": 12760, "pitch": 74, "duration": 110, "velocity": 100}, {"time": 12815, "pitch": 83, "duration": 275, "velocity": 100}, {"time": 12870, "pitch": 76, "duration": 110, "velocity": 100}, {"time": 12980, "pitch": 55, "duration": 110, "velocity": 100}, {"time": 12980, "pitch": 59, "duration": 220, "velocity": 100}, {"time": 12980, "pitch": 79, "duration": 220, "velocity": 100}, {"time": 13090, "pitch": 81, "duration": 165, "velocity": 100}, {"time": 13200, "pitch": 55, "duration": 110, "velocity": 100}, {"time": 13200, "pitch": 59, "duration": 165, "velocity": 100}, {"time": 13200, "pitch": 79, "duration": 440, "velocity": 100}, {"time": 13255, "pitch": 83, "duration": 55, "velocity": 100}, {"time": 13310, "pitch": 81, "duration": 110, "velocity": 100}, {"time": 13420, "pitch": 55, "duration": 55, "velocity": 100}, {"time": 13420, "pitch": 59, "duration": 55, "velocity": 100}, {"time": 13420, "pitch": 79, "duration": 55, "velocity": 100}, {"time": 13475, "pitch": 78, "duration": 165, "velocity": 100}, {"time": 13530, "pitch": 55, "duration": 55, "velocity": 100}, {"time": 13585, "pitch": 59, "duration": 55, "velocity": 100}, {"time": 13585, "pitch": 62, "duration": 55, "velocity": 100}, {"time": 13640, "pitch": 55, "duration": 110, "velocity": 100}, {"time": 13640, "pitch": 59, "duration": 110, "velocity": 100}, {"time": 13640, "pitch": 62, "duration": 110, "velocity": 100}, {"time": 13640, "pitch": 67, "duration": 55, "velocity": 100}, {"time": 13640, "pitch": 76, "duration": 55, "velocity": 100}, {"time": 13695, "pitch": 78, "duration": 55, "velocity": 100}, {"time": 13750, "pitch": 67, "duration": 55, "velocity": 100}, {"time": 13750, "pitch": 76, "duration": 55, "velocity": 100}, {"time": 13805, "pitch": 55, "duration": 55, "velocity": 100}, {"time": 13805, "pitch": 71, "duration": 55, "velocity": 100}, {"time": 13805, "pitch": 76, "duration": 55, "velocity": 100}, {"time": 13860, "pitch": 55, "duration": 55, "velocity": 100}, {"time": 13860, "pitch": 59, "duration": 55, "velocity": 100}, {"time": 13860, "pitch": 62, "duration": 55, "velocity": 100}, {"time": 13860, "pitch": 71, "duration": 55, "velocity": 100}, {"time": 13860, "pitch": 74, "duration": 220, "velocity": 100}, {"time": 13915, "pitch": 74, "duration": 55, "velocity": 100}, {"time": 13970, "pitch": 78, "duration": 55, "velocity": 100}, {"time": 14025, "pitch": 78, "duration": 55, "velocity": 100}, {"time": 14080, "pitch": 54, "duration": 55, "velocity": 100}, {"time": 14080, "pitch": 57, "duration": 110, "velocity": 100}, {"time": 14080, "pitch": 62, "duration": 110, "velocity": 100}, {"time": 14080, "pitch": 81, "duration": 440, "velocity": 100}, {"time": 14190, "pitch": 54, "duration": 55, "velocity": 100}, {"time": 14245, "pitch": 57, "duration": 55, "velocity": 100}, {"time": 14300, "pitch": 54, "duration": 55, "velocity": 100}, {"time": 14300, "pitch": 57, "duration": 55, "velocity": 100}, {"time": 14300, "pitch": 66, "duration": 110, "velocity": 100}, {"time": 14410, "pitch": 62, "duration": 55, "velocity": 100}, {"time": 14465, "pitch": 57, "duration": 55, "velocity": 100}, {"time": 14520, "pitch": 54, "duration": 110, "velocity": 100}, {"time": 14520, "pitch": 57, "duration": 110, "velocity": 100}, {"time": 14520, "pitch": 62, "duration": 110, "velocity": 100}, {"time": 14630, "pitch": 74, "duration": 165, "velocity": 100}, {"time": 14740, "pitch": 54, "duration": 55, "velocity": 100}, {"time": 14740, "pitch": 57, "duration": 55, "velocity": 100}, {"time": 14740, "pitch": 62, "duration": 55, "velocity": 100}, {"time": 14740, "pitch": 66, "duration": 55, "velocity": 100}, {"time": 14795, "pitch": 79, "duration": 55, "velocity": 100}, {"time": 14850, "pitch": 74, "duration": 165, "velocity": 100}, {"time": 14960, "pitch": 57, "duration": 55, "velocity": 100}, {"time": 14960, "pitch": 66, "duration": 110, "velocity": 100}, {"time": 14960, "pitch": 81, "duration": 660, "velocity": 100}, {"time": 15015, "pitch": 57, "duration": 55, "velocity": 100}, {"time": 15015, "pitch": 71, "duration": 165, "velocity": 100}, {"time": 15070, "pitch": 62, "duration": 55, "velocity": 100}, {"time": 15125, "pitch": 66, "duration": 55, "velocity": 100}, {"time": 15180, "pitch": 57, "duration": 55, "velocity": 100}, {"time": 15180, "pitch": 66, "duration": 55, "velocity": 100}, {"time": 15180, "pitch": 69, "duration": 55, "velocity": 100}, {"time": 15180, "pitch": 74, "duration": 55, "velocity": 100}, {"time": 15235, "pitch": 57, "duration": 55, "velocity": 100}, {"time": 15235, "pitch": 71, "duration": 165, "velocity": 100}, {"time": 15290, "pitch": 62, "duration": 55, "velocity": 100}, {"time": 15400, "pitch": 62, "duration": 110, "velocity": 100}, {"time": 15400, "pitch": 66, "duration": 110, "velocity": 100}, {"time": 15400, "pitch": 67, "duration": 165, "velocity": 100}, {"time": 15510, "pitch": 57, "duration": 110, "velocity": 100}, {"time": 15565, "pitch": 62, "duration": 55, "velocity": 100}, {"time": 15565, "pitch": 71, "duration": 55, "velocity": 100}, {"time": 15620, "pitch": 62, "duration": 55, "velocity": 100}, {"time": 15620, "pitch": 66, "duration": 55, "velocity": 100}, {"time": 15620, "pitch": 67, "duration": 220, "velocity": 100}, {"time": 15620, "pitch": 69, "duration": 55, "velocity": 100}, {"time": 15675, "pitch": 57, "duration": 55, "velocity": 100}, {"time": 15675, "pitch": 76, "duration": 55, "velocity": 100}, {"time": 15730, "pitch": 62, "duration": 55, "velocity": 100}, {"time": 15730, "pitch": 78, "duration": 55, "velocity": 100}, {"time": 15785, "pitch": 81, "duration": 55, "velocity": 100}, {"time": 15840, "pitch": 62, "duration": 110, "velocity": 100}, {"time": 15840, "pitch": 66, "duration": 110, "velocity": 100}, {"time": 15840, "pitch": 78, "duration": 440, "velocity": 100}, {"time": 16060, "pitch": 57, "duration": 55, "velocity": 100}, {"time": 16060, "pitch": 62, "duration": 110, "velocity": 100}, {"time": 16060, "pitch": 66, "duration": 110, "velocity": 100}, {"time": 16170, "pitch": 57, "duration": 55, "velocity": 100}, {"time": 16280, "pitch": 62, "duration": 110, "velocity": 100}, {"time": 16280, "pitch": 66, "duration": 110, "velocity": 100}, {"time": 16280, "pitch": 69, "duration": 220, "velocity": 100}, {"time": 16280, "pitch": 74, "duration": 440, "velocity": 100}, {"time": 16335, "pitch": 74, "duration": 220, "velocity": 100}, {"time": 16390, "pitch": 57, "duration": 165, "velocity": 100}, {"time": 16500, "pitch": 57, "duration": 55, "velocity": 100}, {"time": 16500, "pitch": 66, "duration": 55, "velocity": 100}, {"time": 16500, "pitch": 69, "duration": 110, "velocity": 100}, {"time": 16555, "pitch": 57, "duration": 55, "velocity": 100}, {"time": 16555, "pitch": 72, "duration": 55, "velocity": 100}, {"time": 16610, "pitch": 74, "duration": 55, "velocity": 100}, {"time": 16665, "pitch": 76, "duration": 110, "velocity": 100}, {"time": 16720, "pitch": 57, "duration": 110, "velocity": 100}, {"time": 16720, "pitch": 62, "duration": 110, "velocity": 100}, {"time": 16720, "pitch": 74, "duration": 110, "velocity": 100}, {"time": 16775, "pitch": 74, "duration": 165, "velocity": 100}, {"time": 16830, "pitch": 57, "duration": 110, "velocity": 100}, {"time": 16830, "pitch": 74, "duration": 55, "velocity": 100}, {"time": 16885, "pitch": 74, "duration": 55, "velocity": 100}, {"time": 16940, "pitch": 62, "duration": 55, "velocity": 100}, {"time": 16940, "pitch": 66, "duration": 55, "velocity": 100}, {"time": 16940, "pitch": 69, "duration": 55, "velocity": 100}, {"time": 16995, "pitch": 57, "duration": 55, "velocity": 100}, {"time": 16995, "pitch": 69, "duration": 55, "velocity": 100}, {"time": 17050, "pitch": 57, "duration": 55, "velocity": 100}, {"time": 17050, "pitch": 69, "duration": 55, "velocity": 100}, {"time": 17105, "pitch": 62, "duration": 55, "velocity": 100}, {"time": 17105, "pitch": 71, "duration": 55, "velocity": 100}, {"time": 17105, "pitch": 71, "duration": 220, "velocity": 100}, {"time": 17160, "pitch": 57, "duration": 55, "velocity": 100}, {"time": 17160, "pitch": 62, "duration": 55, "velocity": 100}, {"time": 17215, "pitch": 69, "duration": 55, "velocity": 100}, {"time": 17270, "pitch": 71, "duration": 55, "velocity": 100}, {"time": 17325, "pitch": 57, "duration": 55, "velocity": 100}, {"time": 17325, "pitch": 62, "duration": 55, "velocity": 100}, {"time": 17325, "pitch": 69, "duration": 55, "velocity": 100}, {"time": 17325, "pitch": 71, "duration": 55, "velocity": 100}, {"time": 17380, "pitch": 71, "duration": 110, "velocity": 100}, {"time": 17380, "pitch": 74, "duration": 55, "velocity": 100}, {"time": 17435, "pitch": 59, "duration": 110, "velocity": 100}, {"time": 17435, "pitch": 62, "duration": 110, "velocity": 100}, {"time": 17435, "pitch": 66, "duration": 55, "velocity": 100}, {"time": 17490, "pitch": 72, "duration": 55, "velocity": 100}, {"time": 17490, "pitch": 76, "duration": 55, "velocity": 100}, {"time": 17545, "pitch": 71, "duration": 55, "velocity": 100}, {"time": 17545, "pitch": 78, "duration": 55, "velocity": 100}, {"time": 17600, "pitch": 59, "duration": 55, "velocity": 100}, {"time": 17600, "pitch": 62, "duration": 110, "velocity": 100}, {"time": 17600, "pitch": 78, "duration": 385, "velocity": 100}, {"time": 17820, "pitch": 59, "duration": 55, "velocity": 100}, {"time": 17820, "pitch": 62, "duration": 55, "velocity": 100}, {"time": 17820, "pitch": 66, "duration": 110, "velocity": 100}, {"time": 17930, "pitch": 59, "duration": 55, "velocity": 100}, {"time": 17985, "pitch": 74, "duration": 275, "velocity": 100}, {"time": 18040, "pitch": 59, "duration": 165, "velocity": 100}, {"time": 18040, "pitch": 62, "duration": 110, "velocity": 100}, {"time": 18040, "pitch": 66, "duration": 165, "velocity": 100}, {"time": 18040, "pitch": 78, "duration": 440, "velocity": 100}, {"time": 18260, "pitch": 59, "duration": 55, "velocity": 100}, {"time": 18260, "pitch": 62, "duration": 55, "velocity": 100}, {"time": 18260, "pitch": 66, "duration": 55, "velocity": 100}, {"time": 18260, "pitch": 76, "duration": 55, "velocity": 100}, {"time": 18315, "pitch": 76, "duration": 55, "velocity": 100}, {"time": 18370, "pitch": 74, "duration": 110, "velocity": 100}, {"time": 18480, "pitch": 59, "duration": 55, "velocity": 100}, {"time": 18480, "pitch": 62, "duration": 110, "velocity": 100}, {"time": 18480, "pitch": 66, "duration": 110, "velocity": 100}, {"time": 18480, "pitch": 74, "duration": 440, "velocity": 100}, {"time": 18480, "pitch": 76, "duration": 110, "velocity": 100}, {"time": 18480, "pitch": 78, "duration": 440, "velocity": 100}, {"time": 18535, "pitch": 59, "duration": 55, "velocity": 100}, {"time": 18590, "pitch": 59, "duration": 55, "velocity": 100}, {"time": 18590, "pitch": 78, "duration": 165, "velocity": 100}, {"time": 18700, "pitch": 59, "duration": 55, "velocity": 100}, {"time": 18700, "pitch": 62, "duration": 55, "velocity": 100}, {"time": 18700, "pitch": 66, "duration": 110, "velocity": 100}, {"time": 18755, "pitch": 79, "duration": 110, "velocity": 100}, {"time": 18810, "pitch": 59, "duration": 55, "velocity": 100}, {"time": 18865, "pitch": 78, "duration": 110, "velocity": 100}, {"time": 18920, "pitch": 62, "duration": 440, "velocity": 100}, {"time": 18920, "pitch": 66, "duration": 440, "velocity": 100}, {"time": 18920, "pitch": 71, "duration": 440, "velocity": 100}, {"time": 18920, "pitch": 74, "duration": 440, "velocity": 100}, {"time": 18975, "pitch": 76, "duration": 110, "velocity": 100}, {"time": 19085, "pitch": 74, "duration": 110, "velocity": 100}, {"time": 19195, "pitch": 72, "duration": 110, "velocity": 100}, {"time": 19305, "pitch": 74, "duration": 55, "velocity": 100}, {"time": 19360, "pitch": 59, "duration": 165, "velocity": 100}, {"time": 19360, "pitch": 62, "duration": 110, "velocity": 100}, {"time": 19360, "pitch": 71, "duration": 550, "velocity": 100}, {"time": 19360, "pitch": 72, "duration": 55, "velocity": 100}, {"time": 19360, "pitch": 74, "duration": 825, "velocity": 100}, {"time": 19360, "pitch": 78, "duration": 880, "velocity": 100}, {"time": 19415, "pitch": 72, "duration": 55, "velocity": 100}, {"time": 19470, "pitch": 71, "duration": 55, "velocity": 100}, {"time": 19525, "pitch": 72, "duration": 55, "velocity": 100}, {"time": 19580, "pitch": 59, "duration": 55, "velocity": 100}, {"time": 19580, "pitch": 62, "duration": 110, "velocity": 100}, {"time": 19580, "pitch": 66, "duration": 110, "velocity": 100}, {"time": 19580, "pitch": 71, "duration": 220, "velocity": 100}, {"time": 19690, "pitch": 59, "duration": 55, "velocity": 100}, {"time": 19800, "pitch": 59, "duration": 55, "velocity": 100}, {"time": 19800, "pitch": 62, "duration": 55, "velocity": 100}, {"time": 19800, "pitch": 71, "duration": 220, "velocity": 100}, {"time": 20020, "pitch": 59, "duration": 55, "velocity": 100}, {"time": 20020, "pitch": 62, "duration": 55, "velocity": 100}, {"time": 20020, "pitch": 66, "duration": 55, "velocity": 100}, {"time": 20020, "pitch": 69, "duration": 110, "velocity": 100}, {"time": 20130, "pitch": 59, "duration": 55, "velocity": 100}, {"time": 20130, "pitch": 72, "duration": 110, "velocity": 100}, {"time": 20240, "pitch": 54, "duration": 110, "velocity": 100}, {"time": 20240, "pitch": 59, "duration": 110, "velocity": 100}, {"time": 20240, "pitch": 62, "duration": 110, "velocity": 100}, {"time": 20240, "pitch": 71, "duration": 110, "velocity": 100}, {"time": 20350, "pitch": 69, "duration": 110, "velocity": 100}, {"time": 20460, "pitch": 59, "duration": 55, "velocity": 100}, {"time": 20460, "pitch": 76, "duration": 220, "velocity": 100}, {"time": 20680, "pitch": 54, "duration": 110, "velocity": 100}, {"time": 20680, "pitch": 59, "duration": 110, "velocity": 100}, {"time": 20680, "pitch": 66, "duration": 110, "velocity": 100}, {"time": 20680, "pitch": 67, "duration": 275, "velocity": 100}, {"time": 20845, "pitch": 54, "duration": 110, "velocity": 100}, {"time": 20845, "pitch": 59, "duration": 110, "velocity": 100}, {"time": 20845, "pitch": 71, "duration": 165, "velocity": 100}, {"time": 20955, "pitch": 67, "duration": 165, "velocity": 100}, {"time": 21010, "pitch": 59, "duration": 110, "velocity": 100}, {"time": 21010, "pitch": 71, "duration": 110, "velocity": 100}, {"time": 21175, "pitch": 62, "duration": 220, "velocity": 100}, {"time": 21175, "pitch": 66, "duration": 165, "velocity": 100}, {"time": 21175, "pitch": 74, "duration": 165, "velocity": 100}, {"time": 21285, "pitch": 76, "duration": 55, "velocity": 100}, {"time": 21340, "pitch": 62, "duration": 110, "velocity": 100}, {"time": 21340, "pitch": 66, "duration": 110, "velocity": 100}, {"time": 21340, "pitch": 78, "duration": 110, "velocity": 100}, {"time": 21450, "pitch": 57, "duration": 110, "velocity": 100}, {"time": 21450, "pitch": 69, "duration": 110, "velocity": 100}, {"time": 21450, "pitch": 81, "duration": 110, "velocity": 100}, {"time": 21560, "pitch": 62, "duration": 110, "velocity": 100}, {"time": 21560, "pitch": 66, "duration": 110, "velocity": 100}, {"time": 21560, "pitch": 78, "duration": 440, "velocity": 100}, {"time": 21670, "pitch": 57, "duration": 165, "velocity": 100}, {"time": 21670, "pitch": 81, "duration": 110, "velocity": 100}, {"time": 21780, "pitch": 62, "duration": 220, "velocity": 100}, {"time": 21780, "pitch": 66, "duration": 220, "velocity": 100}, {"time": 21780, "pitch": 69, "duration": 165, "velocity": 100}, {"time": 21835, "pitch": 81, "duration": 165, "velocity": 100}, {"time": 21890, "pitch": 76, "duration": 55, "velocity": 100}, {"time": 21945, "pitch": 79, "duration": 55, "velocity": 100}, {"time": 21945, "pitch": 81, "duration": 55, "velocity": 100}, {"time": 22000, "pitch": 62, "duration": 110, "velocity": 100}, {"time": 22000, "pitch": 69, "duration": 110, "velocity": 100}, {"time": 22000, "pitch": 81, "duration": 330, "velocity": 100}, {"time": 22110, "pitch": 81, "duration": 110, "velocity": 100}, {"time": 22165, "pitch": 62, "duration": 55, "velocity": 100}, {"time": 22220, "pitch": 62, "duration": 110, "velocity": 100}, {"time": 22220, "pitch": 69, "duration": 110, "velocity": 100}, {"time": 22330, "pitch": 81, "duration": 55, "velocity": 100}, {"time": 22330, "pitch": 81, "duration": 110, "velocity": 100}, {"time": 22385, "pitch": 86, "duration": 55, "velocity": 100}, {"time": 22440, "pitch": 62, "duration": 110, "velocity": 100}, {"time": 22440, "pitch": 69, "duration": 110, "velocity": 100}, {"time": 22440, "pitch": 86, "duration": 330, "velocity": 100}, {"time": 22550, "pitch": 62, "duration": 110, "velocity": 100}, {"time": 22550, "pitch": 81, "duration": 165, "velocity": 100}, {"time": 22660, "pitch": 66, "duration": 55, "velocity": 100}, {"time": 22660, "pitch": 69, "duration": 110, "velocity": 100}, {"time": 22715, "pitch": 62, "duration": 55, "velocity": 100}, {"time": 22715, "pitch": 79, "duration": 55, "velocity": 100}, {"time": 22770, "pitch": 66, "duration": 55, "velocity": 100}, {"time": 22770, "pitch": 81, "duration": 55, "velocity": 100}, {"time": 22825, "pitch": 79, "duration": 55, "velocity": 100}, {"time": 22825, "pitch": 83, "duration": 55, "velocity": 100}, {"time": 22880, "pitch": 62, "duration": 55, "velocity": 100}, {"time": 22880, "pitch": 66, "duration": 110, "velocity": 100}, {"time": 22880, "pitch": 78, "duration": 220, "velocity": 100}, {"time": 22880, "pitch": 90, "duration": 110, "velocity": 100}, {"time": 22990, "pitch": 62, "duration": 110, "velocity": 100}, {"time": 23045, "pitch": 66, "duration": 55, "velocity": 100}, {"time": 23045, "pitch": 88, "duration": 55, "velocity": 100}, {"time": 23100, "pitch": 69, "duration": 110, "velocity": 100}, {"time": 23100, "pitch": 76, "duration": 55, "velocity": 100}, {"time": 23100, "pitch": 86, "duration": 55, "velocity": 100}, {"time": 23155, "pitch": 66, "duration": 55, "velocity": 100}, {"time": 23155, "pitch": 78, "duration": 55, "velocity": 100}, {"time": 23155, "pitch": 83, "duration": 55, "velocity": 100}, {"time": 23210, "pitch": 69, "duration": 55, "velocity": 100}, {"time": 23210, "pitch": 76, "duration": 110, "velocity": 100}, {"time": 23210, "pitch": 81, "duration": 55, "velocity": 100}, {"time": 23210, "pitch": 86, "duration": 55, "velocity": 100}, {"time": 23265, "pitch": 78, "duration": 55, "velocity": 100}, {"time": 23265, "pitch": 86, "duration": 55, "velocity": 100}, {"time": 23320, "pitch": 62, "duration": 55, "velocity": 100}, {"time": 23320, "pitch": 66, "duration": 110, "velocity": 100}, {"time": 23320, "pitch": 74, "duration": 165, "velocity": 100}, {"time": 23320, "pitch": 78, "duration": 275, "velocity": 100}, {"time": 23320, "pitch": 81, "duration": 275, "velocity": 100}, {"time": 23430, "pitch": 62, "duration": 55, "velocity": 100}, {"time": 23485, "pitch": 66, "duration": 110, "velocity": 100}, {"time": 23485, "pitch": 73, "duration": 110, "velocity": 100}, {"time": 23595, "pitch": 62, "duration": 55, "velocity": 100}, {"time": 23595, "pitch": 71, "duration": 55, "velocity": 100}, {"time": 23650, "pitch": 64, "duration": 55, "velocity": 100}, {"time": 23650, "pitch": 69, "duration": 55, "velocity": 100}, {"time": 23650, "pitch": 78, "duration": 55, "velocity": 100}, {"time": 23705, "pitch": 74, "duration": 275, "velocity": 100}, {"time": 23705, "pitch": 78, "duration": 55, "velocity": 100}, {"time": 23760, "pitch": 62, "duration": 110, "velocity": 100}, {"time": 23760, "pitch": 66, "duration": 110, "velocity": 100}, {"time": 23760, "pitch": 78, "duration": 220, "velocity": 100}, {"time": 23980, "pitch": 62, "duration": 55, "velocity": 100}, {"time": 23980, "pitch": 69, "duration": 220, "velocity": 100}, {"time": 24090, "pitch": 78, "duration": 55, "velocity": 100}, {"time": 24090, "pitch": 79, "duration": 110, "velocity": 100}, {"time": 24145, "pitch": 78, "duration": 55, "velocity": 100}, {"time": 24200, "pitch": 66, "duration": 110, "velocity": 100}, {"time": 24200, "pitch": 69, "duration": 165, "velocity": 100}, {"time": 24200, "pitch": 78, "duration": 275, "velocity": 100}, {"time": 24310, "pitch": 79, "duration": 165, "velocity": 100}, {"time": 24365, "pitch": 69, "duration": 110, "velocity": 100}, {"time": 24475, "pitch": 69, "duration": 55, "velocity": 100}, {"time": 24530, "pitch": 74, "duration": 55, "velocity": 100}, {"time": 24530, "pitch": 79, "duration": 110, "velocity": 100}, {"time": 24640, "pitch": 62, "duration": 55, "velocity": 100}, {"time": 24640, "pitch": 67, "duration": 110, "velocity": 100}, {"time": 24640, "pitch": 83, "duration": 110, "velocity": 100}, {"time": 24640, "pitch": 91, "duration": 110, "velocity": 100}, {"time": 24750, "pitch": 62, "duration": 110, "velocity": 100}, {"time": 24750, "pitch": 74, "duration": 110, "velocity": 100}, {"time": 24750, "pitch": 86, "duration": 110, "velocity": 100}, {"time": 24805, "pitch": 67, "duration": 55, "velocity": 100}, {"time": 24805, "pitch": 79, "duration": 110, "velocity": 100}, {"time": 24860, "pitch": 79, "duration": 165, "velocity": 100}, {"time": 24860, "pitch": 88, "duration": 220, "velocity": 100}, {"time": 24915, "pitch": 67, "duration": 55, "velocity": 100}, {"time": 24915, "pitch": 71, "duration": 55, "velocity": 100}, {"time": 24970, "pitch": 67, "duration": 55, "velocity": 100}, {"time": 24970, "pitch": 91, "duration": 110, "velocity": 100}, {"time": 25025, "pitch": 79, "duration": 110, "velocity": 100}, {"time": 25080, "pitch": 62, "duration": 110, "velocity": 100}, {"time": 25080, "pitch": 67, "duration": 110, "velocity": 100}, {"time": 25080, "pitch": 74, "duration": 440, "velocity": 100}, {"time": 25080, "pitch": 91, "duration": 440, "velocity": 100}, {"time": 25190, "pitch": 59, "duration": 110, "velocity": 100}, {"time": 25245, "pitch": 62, "duration": 110, "velocity": 100}, {"time": 25245, "pitch": 79, "duration": 165, "velocity": 100}, {"time": 25355, "pitch": 67, "duration": 55, "velocity": 100}, {"time": 25410, "pitch": 62, "duration": 55, "velocity": 100}, {"time": 25410, "pitch": 78, "duration": 55, "velocity": 100}, {"time": 25465, "pitch": 62, "duration": 110, "velocity": 100}, {"time": 25465, "pitch": 76, "duration": 55, "velocity": 100}, {"time": 25520, "pitch": 74, "duration": 55, "velocity": 100}, {"time": 25520, "pitch": 74, "duration": 440, "velocity": 100}, {"time": 25575, "pitch": 73, "duration": 110, "velocity": 100}, {"time": 25685, "pitch": 55, "duration": 110, "velocity": 100}, {"time": 25685, "pitch": 71, "duration": 55, "velocity": 100}, {"time": 25740, "pitch": 59, "duration": 110, "velocity": 100}, {"time": 25740, "pitch": 69, "duration": 55, "velocity": 100}, {"time": 25795, "pitch": 67, "duration": 55, "velocity": 100}, {"time": 25795, "pitch": 76, "duration": 55, "velocity": 100}, {"time": 25850, "pitch": 67, "duration": 55, "velocity": 100}, {"time": 25850, "pitch": 78, "duration": 55, "velocity": 100}, {"time": 25905, "pitch": 59, "duration": 55, "velocity": 100}, {"time": 25905, "pitch": 76, "duration": 110, "velocity": 100}, {"time": 25960, "pitch": 79, "duration": 220, "velocity": 100}, {"time": 26015, "pitch": 59, "duration": 110, "velocity": 100}, {"time": 26015, "pitch": 78, "duration": 55, "velocity": 100}, {"time": 26070, "pitch": 62, "duration": 55, "velocity": 100}, {"time": 26070, "pitch": 74, "duration": 55, "velocity": 100}, {"time": 26125, "pitch": 67, "duration": 55, "velocity": 100}, {"time": 26125, "pitch": 76, "duration": 55, "velocity": 100}, {"time": 26180, "pitch": 74, "duration": 220, "velocity": 100}, {"time": 26180, "pitch": 76, "duration": 220, "velocity": 100}, {"time": 26290, "pitch": 59, "duration": 110, "velocity": 100}, {"time": 26345, "pitch": 62, "duration": 55, "velocity": 100}, {"time": 26400, "pitch": 71, "duration": 440, "velocity": 100}, {"time": 26400, "pitch": 86, "duration": 220, "velocity": 100}, {"time": 26510, "pitch": 59, "duration": 110, "velocity": 100}, {"time": 26510, "pitch": 62, "duration": 55, "velocity": 100}, {"time": 26620, "pitch": 59, "duration": 55, "velocity": 100}, {"time": 26620, "pitch": 62, "duration": 220, "velocity": 100}, {"time": 26620, "pitch": 67, "duration": 165, "velocity": 100}, {"time": 26620, "pitch": 85, "duration": 165, "velocity": 100}, {"time": 26730, "pitch": 86, "duration": 55, "velocity": 100}, {"time": 26785, "pitch": 83, "duration": 220, "velocity": 100}, {"time": 26840, "pitch": 79, "duration": 330, "velocity": 100}, {"time": 26840, "pitch": 83, "duration": 440, "velocity": 100}, {"time": 26840, "pitch": 86, "duration": 440, "velocity": 100}, {"time": 26950, "pitch": 62, "duration": 55, "velocity": 100}, {"time": 27005, "pitch": 81, "duration": 220, "velocity": 100}, {"time": 27060, "pitch": 67, "duration": 55, "velocity": 100}, {"time": 27060, "pitch": 71, "duration": 110, "velocity": 100}, {"time": 27170, "pitch": 62, "duration": 55, "velocity": 100}, {"time": 27225, "pitch": 67, "duration": 55, "velocity": 100}, {"time": 27225, "pitch": 83, "duration": 110, "velocity": 100}, {"time": 27280, "pitch": 67, "duration": 220, "velocity": 100}, {"time": 27280, "pitch": 79, "duration": 440, "velocity": 100}, {"time": 27335, "pitch": 81, "duration": 55, "velocity": 100}, {"time": 27390, "pitch": 79, "duration": 110, "velocity": 100}, {"time": 27500, "pitch": 59, "duration": 55, "velocity": 100}, {"time": 27500, "pitch": 62, "duration": 110, "velocity": 100}, {"time": 27500, "pitch": 67, "duration": 110, "velocity": 100}, {"time": 27500, "pitch": 78, "duration": 220, "velocity": 100}, {"time": 27610, "pitch": 79, "duration": 110, "velocity": 100}, {"time": 27720, "pitch": 62, "duration": 110, "velocity": 100}, {"time": 27720, "pitch": 67, "duration": 220, "velocity": 100}, {"time": 27720, "pitch": 71, "duration": 385, "velocity": 100}, {"time": 27720, "pitch": 76, "duration": 55, "velocity": 100}, {"time": 27720, "pitch": 79, "duration": 385, "velocity": 100}, {"time": 27775, "pitch": 78, "duration": 55, "velocity": 100}, {"time": 27830, "pitch": 76, "duration": 55, "velocity": 100}, {"time": 27885, "pitch": 74, "duration": 55, "velocity": 100}, {"time": 27940, "pitch": 62, "duration": 110, "velocity": 100}, {"time": 27940, "pitch": 74, "duration": 220, "velocity": 100}, {"time": 28050, "pitch": 62, "duration": 55, "velocity": 100}, {"time": 28105, "pitch": 66, "duration": 55, "velocity": 100}, {"time": 28105, "pitch": 69, "duration": 55, "velocity": 100}, {"time": 28160, "pitch": 57, "duration": 55, "velocity": 100}, {"time": 28160, "pitch": 62, "duration": 110, "velocity": 100}, {"time": 28160, "pitch": 81, "duration": 330, "velocity": 100}, {"time": 28380, "pitch": 54, "duration": 55, "velocity": 100}, {"time": 28380, "pitch": 57, "duration": 55, "velocity": 100}, {"time": 28380, "pitch": 62, "duration": 55, "velocity": 100}, {"time": 28490, "pitch": 54, "duration": 55, "velocity": 100}, {"time": 28490, "pitch": 79, "duration": 110, "velocity": 100}, {"time": 28600, "pitch": 54, "duration": 110, "velocity": 100}, {"time": 28600, "pitch": 57, "duration": 110, "velocity": 100}, {"time": 28600, "pitch": 62, "duration": 110, "velocity": 100}, {"time": 28600, "pitch": 81, "duration": 330, "velocity": 100}, {"time": 28655, "pitch": 74, "duration": 165, "velocity": 100}, {"time": 28820, "pitch": 54, "duration": 55, "velocity": 100}, {"time": 28820, "pitch": 57, "duration": 55, "velocity": 100}, {"time": 28820, "pitch": 62, "duration": 55, "velocity": 100}, {"time": 28820, "pitch": 78, "duration": 55, "velocity": 100}, {"time": 28875, "pitch": 74, "duration": 220, "velocity": 100}, {"time": 28930, "pitch": 76, "duration": 110, "velocity": 100}, {"time": 29040, "pitch": 57, "duration": 110, "velocity": 100}, {"time": 29040, "pitch": 62, "duration": 110, "velocity": 100}, {"time": 29040, "pitch": 81, "duration": 330, "velocity": 100}, {"time": 29150, "pitch": 84, "duration": 110, "velocity": 100}, {"time": 29260, "pitch": 57, "duration": 55, "velocity": 100}, {"time": 29260, "pitch": 62, "duration": 55, "velocity": 100}, {"time": 29370, "pitch": 57, "duration": 55, "velocity": 100}, {"time": 29370, "pitch": 78, "duration": 110, "velocity": 100}, {"time": 29370, "pitch": 81, "duration": 110, "velocity": 100}, {"time": 29480, "pitch": 57, "duration": 110, "velocity": 100}, {"time": 29480, "pitch": 81, "duration": 110, "velocity": 100}, {"time": 29535, "pitch": 81, "duration": 165, "velocity": 100}, {"time": 29590, "pitch": 78, "duration": 110, "velocity": 100}, {"time": 29700, "pitch": 62, "duration": 55, "velocity": 100}, {"time": 29700, "pitch": 78, "duration": 110, "velocity": 100}, {"time": 29755, "pitch": 79, "duration": 165, "velocity": 100}, {"time": 29810, "pitch": 57, "duration": 55, "velocity": 100}, {"time": 29810, "pitch": 78, "duration": 110, "velocity": 100}, {"time": 29920, "pitch": 62, "duration": 110, "velocity": 100}, {"time": 29920, "pitch": 81, "duration": 330, "velocity": 100}, {"time": 29920, "pitch": 83, "duration": 110, "velocity": 100}, {"time": 30030, "pitch": 74, "duration": 110, "velocity": 100}, {"time": 30140, "pitch": 62, "duration": 55, "velocity": 100}, {"time": 30140, "pitch": 72, "duration": 110, "velocity": 100}, {"time": 30250, "pitch": 57, "duration": 55, "velocity": 100}, {"time": 30250, "pitch": 74, "duration": 55, "velocity": 100}, {"time": 30250, "pitch": 83, "duration": 110, "velocity": 100}, {"time": 30305, "pitch": 76, "duration": 110, "velocity": 100}, {"time": 30360, "pitch": 57, "duration": 110, "velocity": 100}, {"time": 30360, "pitch": 62, "duration": 110, "velocity": 100}, {"time": 30360, "pitch": 78, "duration": 220, "velocity": 100}, {"time": 30415, "pitch": 69, "duration": 55, "velocity": 100}, {"time": 30470, "pitch": 71, "duration": 110, "velocity": 100}, {"time": 30580, "pitch": 57, "duration": 55, "velocity": 100}, {"time": 30580, "pitch": 62, "duration": 110, "velocity": 100}, {"time": 30580, "pitch": 72, "duration": 55, "velocity": 100}, {"time": 30580, "pitch": 74, "duration": 110, "velocity": 100}, {"time": 30635, "pitch": 71, "duration": 55, "velocity": 100}, {"time": 30690, "pitch": 57, "duration": 110, "velocity": 100}, {"time": 30690, "pitch": 72, "duration": 110, "velocity": 100}, {"time": 30690, "pitch": 74, "duration": 110, "velocity": 100}, {"time": 30800, "pitch": 57, "duration": 55, "velocity": 100}, {"time": 30800, "pitch": 74, "duration": 55, "velocity": 100}, {"time": 30800, "pitch": 74, "duration": 440, "velocity": 100}, {"time": 30855, "pitch": 72, "duration": 55, "velocity": 100}, {"time": 30910, "pitch": 57, "duration": 55, "velocity": 100}, {"time": 30910, "pitch": 74, "duration": 55, "velocity": 100}, {"time": 30965, "pitch": 76, "duration": 110, "velocity": 100}, {"time": 31020, "pitch": 57, "duration": 55, "velocity": 100}, {"time": 31020, "pitch": 62, "duration": 110, "velocity": 100}, {"time": 31075, "pitch": 74, "duration": 165, "velocity": 100}, {"time": 31130, "pitch": 69, "duration": 110, "velocity": 100}, {"time": 31240, "pitch": 57, "duration": 110, "velocity": 100}, {"time": 31240, "pitch": 74, "duration": 110, "velocity": 100}, {"time": 31240, "pitch": 74, "duration": 165, "velocity": 100}, {"time": 31350, "pitch": 71, "duration": 110, "velocity": 100}, {"time": 31405, "pitch": 79, "duration": 55, "velocity": 100}, {"time": 31460, "pitch": 57, "duration": 55, "velocity": 100}, {"time": 31460, "pitch": 62, "duration": 110, "velocity": 100}, {"time": 31460, "pitch": 69, "duration": 220, "velocity": 100}, {"time": 31460, "pitch": 74, "duration": 220, "velocity": 100}, {"time": 31570, "pitch": 57, "duration": 55, "velocity": 100}, {"time": 31680, "pitch": 57, "duration": 110, "velocity": 100}, {"time": 31680, "pitch": 66, "duration": 275, "velocity": 100}, {"time": 31680, "pitch": 74, "duration": 660, "velocity": 100}, {"time": 31900, "pitch": 57, "duration": 55, "velocity": 100}, {"time": 31900, "pitch": 62, "duration": 55, "velocity": 100}, {"time": 31955, "pitch": 67, "duration": 220, "velocity": 100}, {"time": 32120, "pitch": 57, "duration": 110, "velocity": 100}, {"time": 32175, "pitch": 69, "duration": 220, "velocity": 100}, {"time": 32340, "pitch": 57, "duration": 110, "velocity": 100}, {"time": 32340, "pitch": 62, "duration": 110, "velocity": 100}, {"time": 32340, "pitch": 71, "duration": 110, "velocity": 100}, {"time": 32395, "pitch": 71, "duration": 220, "velocity": 100}, {"time": 32450, "pitch": 74, "duration": 55, "velocity": 100}, {"time": 32560, "pitch": 57, "duration": 110, "velocity": 100}, {"time": 32560, "pitch": 74, "duration": 550, "velocity": 100}, {"time": 32615, "pitch": 72, "duration": 55, "velocity": 100}, {"time": 32670, "pitch": 72, "duration": 55, "velocity": 100}, {"time": 32725, "pitch": 71, "duration": 55, "velocity": 100}, {"time": 32780, "pitch": 62, "duration": 55, "velocity": 100}, {"time": 32780, "pitch": 74, "duration": 220, "velocity": 100}, {"time": 32890, "pitch": 57, "duration": 55, "velocity": 100}, {"time": 33000, "pitch": 57, "duration": 110, "velocity": 100}, {"time": 33000, "pitch": 79, "duration": 165, "velocity": 100}, {"time": 33165, "pitch": 83, "duration": 55, "velocity": 100}, {"time": 33220, "pitch": 57, "duration": 55, "velocity": 100}, {"time": 33220, "pitch": 62, "duration": 55, "velocity": 100}, {"time": 33220, "pitch": 79, "duration": 220, "velocity": 100}, {"time": 33330, "pitch": 74, "duration": 110, "velocity": 100}, {"time": 33440, "pitch": 62, "duration": 165, "velocity": 100}, {"time": 33440, "pitch": 71, "duration": 275, "velocity": 100}, {"time": 33440, "pitch": 74, "duration": 440, "velocity": 100}, {"time": 33660, "pitch": 57, "duration": 110, "velocity": 100}, {"time": 33715, "pitch": 72, "duration": 220, "velocity": 100}, {"time": 33880, "pitch": 81, "duration": 220, "velocity": 100}, {"time": 33935, "pitch": 74, "duration": 220, "velocity": 100}, {"time": 34100, "pitch": 57, "duration": 110, "velocity": 100}, {"time": 34100, "pitch": 62, "duration": 110, "velocity": 100}, {"time": 34100, "pitch": 81, "duration": 220, "velocity": 100}, {"time": 34155, "pitch": 76, "duration": 220, "velocity": 100}, {"time": 34320, "pitch": 74, "duration": 825, "velocity": 100}, {"time": 34320, "pitch": 78, "duration": 825, "velocity": 100}, {"time": 34375, "pitch": 79, "duration": 55, "velocity": 100}, {"time": 34430, "pitch": 77, "duration": 55, "velocity": 100}, {"time": 34485, "pitch": 77, "duration": 55, "velocity": 100}, {"time": 34540, "pitch": 57, "duration": 55, "velocity": 100}, {"time": 34540, "pitch": 79, "duration": 220, "velocity": 100}, {"time": 34705, "pitch": 57, "duration": 55, "velocity": 100}, {"time": 34760, "pitch": 62, "duration": 110, "velocity": 100}, {"time": 34760, "pitch": 76, "duration": 165, "velocity": 100}, {"time": 34925, "pitch": 79, "duration": 55, "velocity": 100}, {"time": 34980, "pitch": 60, "duration": 110, "velocity": 100}, {"time": 34980, "pitch": 64, "duration": 220, "velocity": 100}, {"time": 34980, "pitch": 72, "duration": 55, "velocity": 100}, {"time": 34980, "pitch": 74, "duration": 220, "velocity": 100}, {"time": 35090, "pitch": 69, "duration": 55, "velocity": 100}, {"time": 35145, "pitch": 60, "duration": 55, "velocity": 100}, {"time": 35200, "pitch": 60, "duration": 110, "velocity": 100}, {"time": 35200, "pitch": 72, "duration": 55, "velocity": 100}, {"time": 35200, "pitch": 79, "duration": 330, "velocity": 100}, {"time": 35255, "pitch": 74, "duration": 55, "velocity": 100}, {"time": 35310, "pitch": 72, "duration": 110, "velocity": 100}, {"time": 35420, "pitch": 60, "duration": 55, "velocity": 100}, {"time": 35420, "pitch": 64, "duration": 55, "velocity": 100}, {"time": 35420, "pitch": 71, "duration": 220, "velocity": 100}, {"time": 35530, "pitch": 79, "duration": 110, "velocity": 100}, {"time": 35640, "pitch": 60, "duration": 110, "velocity": 100}, {"time": 35640, "pitch": 64, "duration": 110, "velocity": 100}, {"time": 35640, "pitch": 74, "duration": 55, "velocity": 100}, {"time": 35640, "pitch": 79, "duration": 330, "velocity": 100}, {"time": 35695, "pitch": 72, "duration": 110, "velocity": 100}, {"time": 35805, "pitch": 71, "duration": 55, "velocity": 100}, {"time": 35860, "pitch": 60, "duration": 55, "velocity": 100}, {"time": 35860, "pitch": 69, "duration": 275, "velocity": 100}, {"time": 35970, "pitch": 77, "duration": 110, "velocity": 100}, {"time": 36080, "pitch": 64, "duration": 110, "velocity": 100}, {"time": 36080, "pitch": 84, "duration": 330, "velocity": 100}, {"time": 36135, "pitch": 72, "duration": 55, "velocity": 100}, {"time": 36190, "pitch": 71, "duration": 55, "velocity": 100}, {"time": 36245, "pitch": 69, "duration": 110, "velocity": 100}, {"time": 36300, "pitch": 60, "duration": 55, "velocity": 100}, {"time": 36355, "pitch": 76, "duration": 220, "velocity": 100}, {"time": 36410, "pitch": 81, "duration": 110, "velocity": 100}, {"time": 36520, "pitch": 60, "duration": 110, "velocity": 100}, {"time": 36520, "pitch": 81, "duration": 110, "velocity": 100}, {"time": 36575, "pitch": 67, "duration": 165, "velocity": 100}, {"time": 36630, "pitch": 77, "duration": 110, "velocity": 100}, {"time": 36740, "pitch": 60, "duration": 55, "velocity": 100}, {"time": 36740, "pitch": 76, "duration": 110, "velocity": 100}, {"time": 36795, "pitch": 67, "duration": 110, "velocity": 100}, {"time": 36850, "pitch": 74, "duration": 55, "velocity": 100}, {"time": 36905, "pitch": 69, "duration": 55, "velocity": 100}, {"time": 36960, "pitch": 60, "duration": 110, "velocity": 100}, {"time": 36960, "pitch": 67, "duration": 110, "velocity": 100}, {"time": 36960, "pitch": 84, "duration": 330, "velocity": 100}, {"time": 37070, "pitch": 66, "duration": 220, "velocity": 100}, {"time": 37180, "pitch": 60, "duration": 55, "velocity": 100}, {"time": 37180, "pitch": 64, "duration": 55, "velocity": 100}, {"time": 37290, "pitch": 81, "duration": 110, "velocity": 100}, {"time": 37400, "pitch": 60, "duration": 110, "velocity": 100}, {"time": 37400, "pitch": 64, "duration": 110, "velocity": 100}, {"time": 37400, "pitch": 79, "duration": 220, "velocity": 100}, {"time": 37510, "pitch": 74, "duration": 165, "velocity": 100}, {"time": 37620, "pitch": 60, "duration": 110, "velocity": 100}, {"time": 37620, "pitch": 64, "duration": 110, "velocity": 100}, {"time": 37620, "pitch": 74, "duration": 110, "velocity": 100}, {"time": 37675, "pitch": 74, "duration": 220, "velocity": 100}, {"time": 37730, "pitch": 60, "duration": 110, "velocity": 100}, {"time": 37730, "pitch": 74, "duration": 110, "velocity": 100}, {"time": 37840, "pitch": 60, "duration": 55, "velocity": 100}, {"time": 37840, "pitch": 76, "duration": 330, "velocity": 100}, {"time": 37895, "pitch": 71, "duration": 165, "velocity": 100}, {"time": 38060, "pitch": 64, "duration": 110, "velocity": 100}, {"time": 38060, "pitch": 74, "duration": 55, "velocity": 100}, {"time": 38115, "pitch": 71, "duration": 165, "velocity": 100}, {"time": 38170, "pitch": 72, "duration": 110, "velocity": 100}, {"time": 38280, "pitch": 67, "duration": 165, "velocity": 100}, {"time": 38280, "pitch": 74, "duration": 110, "velocity": 100}, {"time": 38390, "pitch": 72, "duration": 110, "velocity": 100}, {"time": 38445, "pitch": 71, "duration": 55, "velocity": 100}, {"time": 38500, "pitch": 62, "duration": 110, "velocity": 100}, {"time": 38500, "pitch": 67, "duration": 220, "velocity": 100}, {"time": 38500, "pitch": 69, "duration": 220, "velocity": 100}, {"time": 38720, "pitch": 74, "duration": 660, "velocity": 100}, {"time": 38940, "pitch": 62, "duration": 55, "velocity": 100}, {"time": 39215, "pitch": 74, "duration": 220, "velocity": 100}, {"time": 39380, "pitch": 62, "duration": 110, "velocity": 100}, {"time": 39380, "pitch": 71, "duration": 110, "velocity": 100}, {"time": 39435, "pitch": 72, "duration": 55, "velocity": 100}, {"time": 39490, "pitch": 74, "duration": 55, "velocity": 100}, {"time": 39490, "pitch": 74, "duration": 110, "velocity": 100}, {"time": 39600, "pitch": 74, "duration": 550, "velocity": 100}, {"time": 39600, "pitch": 76, "duration": 55, "velocity": 100}, {"time": 39655, "pitch": 74, "duration": 275, "velocity": 100}, {"time": 39820, "pitch": 62, "duration": 55, "velocity": 100}, {"time": 40150, "pitch": 71, "duration": 220, "velocity": 100}, {"time": 40260, "pitch": 62, "duration": 55, "velocity": 100}, {"time": 40370, "pitch": 69, "duration": 55, "velocity": 100}, {"time": 40370, "pitch": 74, "duration": 110, "velocity": 100}, {"time": 40425, "pitch": 71, "duration": 55, "velocity": 100}, {"time": 40480, "pitch": 72, "duration": 55, "velocity": 100}, {"time": 40480, "pitch": 74, "duration": 440, "velocity": 100}, {"time": 40535, "pitch": 71, "duration": 220, "velocity": 100}, {"time": 40920, "pitch": 74, "duration": 220, "velocity": 100}, {"time": 40920, "pitch": 81, "duration": 220, "velocity": 100}, {"time": 41140, "pitch": 62, "duration": 110, "velocity": 100}, {"time": 41140, "pitch": 78, "duration": 55, "velocity": 100}, {"time": 41140, "pitch": 81, "duration": 165, "velocity": 100}, {"time": 41195, "pitch": 76, "duration": 55, "velocity": 100}, {"time": 41250, "pitch": 74, "duration": 110, "velocity": 100}, {"time": 41360, "pitch": 74, "duration": 660, "velocity": 100}, {"time": 41360, "pitch": 76, "duration": 110, "velocity": 100}, {"time": 41360, "pitch": 78, "duration": 660, "velocity": 100}, {"time": 41470, "pitch": 78, "duration": 110, "velocity": 100}, {"time": 41580, "pitch": 79, "duration": 110, "velocity": 100}, {"time": 41690, "pitch": 78, "duration": 165, "velocity": 100}, {"time": 41855, "pitch": 76, "duration": 110, "velocity": 100}, {"time": 41965, "pitch": 74, "duration": 110, "velocity": 100}, {"time": 42075, "pitch": 72, "duration": 110, "velocity": 100}, {"time": 42185, "pitch": 74, "duration": 55, "velocity": 100}, {"time": 42240, "pitch": 60, "duration": 220, "velocity": 100}, {"time": 42240, "pitch": 74, "duration": 55, "velocity": 100}, {"time": 42295, "pitch": 72, "duration": 55, "velocity": 100}, {"time": 42350, "pitch": 71, "duration": 55, "velocity": 100}, {"time": 42405, "pitch": 72, "duration": 55, "velocity": 100}, {"time": 42460, "pitch": 67, "duration": 330, "velocity": 100}, {"time": 42460, "pitch": 71, "duration": 220, "velocity": 100}, {"time": 42680, "pitch": 71, "duration": 220, "velocity": 100}, {"time": 42845, "pitch": 60, "duration": 55, "velocity": 100}, {"time": 42900, "pitch": 64, "duration": 110, "velocity": 100}, {"time": 42900, "pitch": 69, "duration": 110, "velocity": 100}, {"time": 43010, "pitch": 72, "duration": 110, "velocity": 100}, {"time": 43120, "pitch": 64, "duration": 165, "velocity": 100}, {"time": 43120, "pitch": 71, "duration": 110, "velocity": 100}, {"time": 43230, "pitch": 69, "duration": 110, "velocity": 100}, {"time": 43340, "pitch": 76, "duration": 220, "velocity": 100}, {"time": 43395, "pitch": 67, "duration": 110, "velocity": 100}, {"time": 43560, "pitch": 64, "duration": 165, "velocity": 100}, {"time": 43560, "pitch": 67, "duration": 275, "velocity": 100}, {"time": 43780, "pitch": 69, "duration": 55, "velocity": 100}, {"time": 43835, "pitch": 67, "duration": 165, "velocity": 100}, {"time": 43890, "pitch": 67, "duration": 110, "velocity": 100}, {"time": 43890, "pitch": 69, "duration": 110, "velocity": 100}, {"time": 43945, "pitch": 72, "duration": 55, "velocity": 100}, {"time": 44000, "pitch": 72, "duration": 440, "velocity": 100}, {"time": 44055, "pitch": 66, "duration": 165, "velocity": 100}, {"time": 44220, "pitch": 64, "duration": 110, "velocity": 100}, {"time": 44330, "pitch": 86, "duration": 110, "velocity": 100}, {"time": 44440, "pitch": 64, "duration": 165, "velocity": 100}, {"time": 44495, "pitch": 86, "duration": 165, "velocity": 100}, {"time": 44715, "pitch": 64, "duration": 55, "velocity": 100}, {"time": 44715, "pitch": 86, "duration": 165, "velocity": 100}, {"time": 44880, "pitch": 64, "duration": 165, "velocity": 100}, {"time": 44935, "pitch": 86, "duration": 165, "velocity": 100}, {"time": 45045, "pitch": 67, "duration": 110, "velocity": 100}, {"time": 45155, "pitch": 67, "duration": 55, "velocity": 100}, {"time": 45210, "pitch": 86, "duration": 110, "velocity": 100}, {"time": 45320, "pitch": 64, "duration": 165, "velocity": 100}, {"time": 45430, "pitch": 86, "duration": 165, "velocity": 100}, {"time": 45540, "pitch": 64, "duration": 110, "velocity": 100}, {"time": 45595, "pitch": 84, "duration": 55, "velocity": 100}, {"time": 45650, "pitch": 86, "duration": 55, "velocity": 100}, {"time": 45705, "pitch": 84, "duration": 55, "velocity": 100}, {"time": 45760, "pitch": 64, "duration": 220, "velocity": 100}, {"time": 45760, "pitch": 83, "duration": 220, "velocity": 100}, {"time": 45980, "pitch": 72, "duration": 165, "velocity": 100}, {"time": 45980, "pitch": 81, "duration": 55, "velocity": 100}, {"time": 46035, "pitch": 83, "duration": 55, "velocity": 100}, {"time": 46090, "pitch": 81, "duration": 110, "velocity": 100}, {"time": 46200, "pitch": 67, "duration": 330, "velocity": 100}, {"time": 46200, "pitch": 79, "duration": 165, "velocity": 100}, {"time": 46365, "pitch": 78, "duration": 55, "velocity": 100}, {"time": 46420, "pitch": 76, "duration": 110, "velocity": 100}, {"time": 46530, "pitch": 67, "duration": 220, "velocity": 100}, {"time": 46530, "pitch": 74, "duration": 55, "velocity": 100}, {"time": 46585, "pitch": 79, "duration": 275, "velocity": 100}, {"time": 46640, "pitch": 84, "duration": 220, "velocity": 100}, {"time": 46860, "pitch": 64, "duration": 220, "velocity": 100}, {"time": 46860, "pitch": 84, "duration": 220, "velocity": 100}, {"time": 46970, "pitch": 84, "duration": 110, "velocity": 100}, {"time": 47080, "pitch": 64, "duration": 165, "velocity": 100}, {"time": 47080, "pitch": 79, "duration": 440, "velocity": 100}, {"time": 47190, "pitch": 84, "duration": 165, "velocity": 100}, {"time": 47355, "pitch": 67, "duration": 55, "velocity": 100}, {"time": 47410, "pitch": 84, "duration": 110, "velocity": 100}, {"time": 47630, "pitch": 84, "duration": 165, "velocity": 100}, {"time": 47740, "pitch": 67, "duration": 220, "velocity": 100}, {"time": 47740, "pitch": 72, "duration": 220, "velocity": 100}, {"time": 47905, "pitch": 84, "duration": 110, "velocity": 100}, {"time": 48070, "pitch": 67, "duration": 55, "velocity": 100}, {"time": 48125, "pitch": 67, "duration": 165, "velocity": 100}, {"time": 48125, "pitch": 84, "duration": 165, "velocity": 100}, {"time": 48235, "pitch": 64, "duration": 55, "velocity": 100}, {"time": 48290, "pitch": 67, "duration": 55, "velocity": 100}, {"time": 48290, "pitch": 83, "duration": 55, "velocity": 100}, {"time": 48345, "pitch": 81, "duration": 55, "velocity": 100}, {"time": 48400, "pitch": 64, "duration": 110, "velocity": 100}, {"time": 48400, "pitch": 67, "duration": 165, "velocity": 100}, {"time": 48400, "pitch": 79, "duration": 55, "velocity": 100}, {"time": 48455, "pitch": 78, "duration": 55, "velocity": 100}, {"time": 48510, "pitch": 76, "duration": 110, "velocity": 100}, {"time": 48620, "pitch": 74, "duration": 55, "velocity": 100}, {"time": 48675, "pitch": 67, "duration": 55, "velocity": 100}, {"time": 48675, "pitch": 81, "duration": 55, "velocity": 100}, {"time": 48675, "pitch": 91, "duration": 55, "velocity": 100}, {"time": 48730, "pitch": 83, "duration": 55, "velocity": 100}, {"time": 48785, "pitch": 67, "duration": 55, "velocity": 100}, {"time": 48785, "pitch": 81, "duration": 55, "velocity": 100}, {"time": 48785, "pitch": 86, "duration": 55, "velocity": 100}, {"time": 48785, "pitch": 91, "duration": 55, "velocity": 100}, {"time": 48840, "pitch": 67, "duration": 55, "velocity": 100}, {"time": 48840, "pitch": 76, "duration": 275, "velocity": 100}, {"time": 48840, "pitch": 83, "duration": 55, "velocity": 100}, {"time": 48895, "pitch": 81, "duration": 55, "velocity": 100}, {"time": 48950, "pitch": 79, "duration": 55, "velocity": 100}, {"time": 49005, "pitch": 81, "duration": 55, "velocity": 100}, {"time": 49060, "pitch": 67, "duration": 220, "velocity": 100}, {"time": 49060, "pitch": 79, "duration": 220, "velocity": 100}, {"time": 49280, "pitch": 62, "duration": 165, "velocity": 100}, {"time": 49280, "pitch": 67, "duration": 385, "velocity": 100}, {"time": 49280, "pitch": 71, "duration": 385, "velocity": 100}, {"time": 49335, "pitch": 79, "duration": 220, "velocity": 100}, {"time": 49555, "pitch": 78, "duration": 275, "velocity": 100}, {"time": 49720, "pitch": 67, "duration": 385, "velocity": 100}, {"time": 49720, "pitch": 71, "duration": 385, "velocity": 100}, {"time": 49830, "pitch": 76, "duration": 220, "velocity": 100}, {"time": 49940, "pitch": 62, "duration": 110, "velocity": 100}, {"time": 50050, "pitch": 74, "duration": 165, "velocity": 100}, {"time": 50160, "pitch": 67, "duration": 110, "velocity": 100}, {"time": 50160, "pitch": 71, "duration": 385, "velocity": 100}, {"time": 50160, "pitch": 74, "duration": 385, "velocity": 100}, {"time": 50215, "pitch": 76, "duration": 110, "velocity": 100}, {"time": 50325, "pitch": 74, "duration": 55, "velocity": 100}, {"time": 50380, "pitch": 62, "duration": 55, "velocity": 100}, {"time": 50380, "pitch": 72, "duration": 55, "velocity": 100}, {"time": 50435, "pitch": 71, "duration": 165, "velocity": 100}, {"time": 50600, "pitch": 69, "duration": 55, "velocity": 100}, {"time": 50600, "pitch": 71, "duration": 220, "velocity": 100}, {"time": 50655, "pitch": 71, "duration": 55, "velocity": 100}, {"time": 50710, "pitch": 69, "duration": 55, "velocity": 100}, {"time": 50765, "pitch": 67, "duration": 55, "velocity": 100}, {"time": 50820, "pitch": 67, "duration": 220, "velocity": 100}, {"time": 50820, "pitch": 79, "duration": 110, "velocity": 100}, {"time": 50930, "pitch": 81, "duration": 110, "velocity": 100}, {"time": 51040, "pitch": 67, "duration": 110, "velocity": 100}, {"time": 51040, "pitch": 71, "duration": 440, "velocity": 100}, {"time": 51040, "pitch": 79, "duration": 440, "velocity": 100}, {"time": 51095, "pitch": 79, "duration": 165, "velocity": 100}, {"time": 51260, "pitch": 78, "duration": 220, "velocity": 100}, {"time": 51480, "pitch": 67, "duration": 275, "velocity": 100}, {"time": 51480, "pitch": 71, "duration": 440, "velocity": 100}, {"time": 51480, "pitch": 76, "duration": 220, "velocity": 100}, {"time": 51700, "pitch": 74, "duration": 220, "velocity": 100}, {"time": 51920, "pitch": 71, "duration": 275, "velocity": 100}, {"time": 51920, "pitch": 76, "duration": 110, "velocity": 100}, {"time": 52030, "pitch": 74, "duration": 55, "velocity": 100}, {"time": 52085, "pitch": 72, "duration": 55, "velocity": 100}, {"time": 52140, "pitch": 71, "duration": 275, "velocity": 100}, {"time": 52250, "pitch": 67, "duration": 55, "velocity": 100}, {"time": 52360, "pitch": 71, "duration": 110, "velocity": 100}, {"time": 52360, "pitch": 74, "duration": 165, "velocity": 100}, {"time": 52415, "pitch": 71, "duration": 55, "velocity": 100}, {"time": 52470, "pitch": 69, "duration": 55, "velocity": 100}, {"time": 52470, "pitch": 74, "duration": 55, "velocity": 100}, {"time": 52525, "pitch": 67, "duration": 55, "velocity": 100}, {"time": 52525, "pitch": 79, "duration": 55, "velocity": 100}, {"time": 52580, "pitch": 69, "duration": 55, "velocity": 100}, {"time": 52580, "pitch": 83, "duration": 110, "velocity": 100}, {"time": 52635, "pitch": 67, "duration": 165, "velocity": 100}, {"time": 52800, "pitch": 79, "duration": 440, "velocity": 100}, {"time": 53020, "pitch": 74, "duration": 220, "velocity": 100}, {"time": 53240, "pitch": 79, "duration": 110, "velocity": 100}, {"time": 53295, "pitch": 74, "duration": 110, "velocity": 100}, {"time": 53350, "pitch": 79, "duration": 110, "velocity": 100}, {"time": 53405, "pitch": 78, "duration": 55, "velocity": 100}, {"time": 53460, "pitch": 74, "duration": 275, "velocity": 100}, {"time": 53460, "pitch": 79, "duration": 220, "velocity": 100}, {"time": 53680, "pitch": 83, "duration": 220, "velocity": 100}, {"time": 53790, "pitch": 84, "duration": 165, "velocity": 100}, {"time": 53900, "pitch": 81, "duration": 220, "velocity": 100}, {"time": 54065, "pitch": 78, "duration": 110, "velocity": 100}, {"time": 54120, "pitch": 79, "duration": 220, "velocity": 100}, {"time": 54285, "pitch": 81, "duration": 165, "velocity": 100}, {"time": 54505, "pitch": 79, "duration": 55, "velocity": 100}, {"time": 54560, "pitch": 67, "duration": 385, "velocity": 100}, {"time": 54560, "pitch": 71, "duration": 440, "velocity": 100}, {"time": 54615, "pitch": 83, "duration": 110, "velocity": 100}, {"time": 54725, "pitch": 74, "duration": 110, "velocity": 100}, {"time": 54835, "pitch": 72, "duration": 55, "velocity": 100}, {"time": 54890, "pitch": 74, "duration": 55, "velocity": 100}, {"time": 54945, "pitch": 76, "duration": 110, "velocity": 100}, {"time": 55000, "pitch": 67, "duration": 220, "velocity": 100}, {"time": 55000, "pitch": 74, "duration": 110, "velocity": 100}, {"time": 55055, "pitch": 69, "duration": 55, "velocity": 100}, {"time": 55110, "pitch": 71, "duration": 55, "velocity": 100}, {"time": 55110, "pitch": 76, "duration": 110, "velocity": 100}, {"time": 55165, "pitch": 72, "duration": 55, "velocity": 100}, {"time": 55220, "pitch": 71, "duration": 110, "velocity": 100}, {"time": 55220, "pitch": 79, "duration": 220, "velocity": 100}, {"time": 55330, "pitch": 72, "duration": 55, "velocity": 100}, {"time": 55385, "pitch": 74, "duration": 55, "velocity": 100}, {"time": 55440, "pitch": 72, "duration": 55, "velocity": 100}, {"time": 55440, "pitch": 79, "duration": 440, "velocity": 100}, {"time": 55495, "pitch": 74, "duration": 110, "velocity": 100}, {"time": 55605, "pitch": 76, "duration": 55, "velocity": 100}, {"time": 55660, "pitch": 74, "duration": 220, "velocity": 100}, {"time": 55880, "pitch": 67, "duration": 55, "velocity": 100}, {"time": 55880, "pitch": 74, "duration": 110, "velocity": 100}, {"time": 55990, "pitch": 67, "duration": 55, "velocity": 100}, {"time": 55990, "pitch": 79, "duration": 55, "velocity": 100}, {"time": 56045, "pitch": 71, "duration": 55, "velocity": 100}, {"time": 56045, "pitch": 74, "duration": 275, "velocity": 100}, {"time": 56100, "pitch": 71, "duration": 55, "velocity": 100}, {"time": 56155, "pitch": 74, "duration": 55, "velocity": 100}, {"time": 56210, "pitch": 78, "duration": 55, "velocity": 100}, {"time": 56265, "pitch": 78, "duration": 55, "velocity": 100}, {"time": 56320, "pitch": 66, "duration": 220, "velocity": 100}, {"time": 56320, "pitch": 81, "duration": 440, "velocity": 100}, {"time": 56540, "pitch": 66, "duration": 110, "velocity": 100}, {"time": 56760, "pitch": 69, "duration": 275, "velocity": 100}, {"time": 57035, "pitch": 71, "duration": 165, "velocity": 100}, {"time": 57200, "pitch": 66, "duration": 110, "velocity": 100}, {"time": 57200, "pitch": 72, "duration": 55, "velocity": 100}, {"time": 57200, "pitch": 81, "duration": 660, "velocity": 100}, {"time": 57255, "pitch": 74, "duration": 55, "velocity": 100}, {"time": 57310, "pitch": 71, "duration": 55, "velocity": 100}, {"time": 57365, "pitch": 72, "duration": 55, "velocity": 100}, {"time": 57420, "pitch": 66, "duration": 55, "velocity": 100}, {"time": 57420, "pitch": 69, "duration": 55, "velocity": 100}, {"time": 57420, "pitch": 74, "duration": 165, "velocity": 100}, {"time": 57585, "pitch": 79, "duration": 165, "velocity": 100}, {"time": 57640, "pitch": 66, "duration": 110, "velocity": 100}, {"time": 57750, "pitch": 83, "duration": 55, "velocity": 100}, {"time": 57805, "pitch": 79, "duration": 220, "velocity": 100}, {"time": 57860, "pitch": 66, "duration": 55, "velocity": 100}, {"time": 57860, "pitch": 69, "duration": 55, "velocity": 100}, {"time": 57915, "pitch": 76, "duration": 55, "velocity": 100}, {"time": 57970, "pitch": 78, "duration": 55, "velocity": 100}, {"time": 58025, "pitch": 71, "duration": 55, "velocity": 100}, {"time": 58025, "pitch": 81, "duration": 55, "velocity": 100}, {"time": 58080, "pitch": 66, "duration": 110, "velocity": 100}, {"time": 58080, "pitch": 78, "duration": 440, "velocity": 100}, {"time": 58300, "pitch": 72, "duration": 220, "velocity": 100}, {"time": 58520, "pitch": 69, "duration": 220, "velocity": 100}, {"time": 58520, "pitch": 74, "duration": 220, "velocity": 100}, {"time": 58520, "pitch": 74, "duration": 440, "velocity": 100}, {"time": 58740, "pitch": 66, "duration": 55, "velocity": 100}, {"time": 58740, "pitch": 69, "duration": 110, "velocity": 100}, {"time": 58740, "pitch": 76, "duration": 275, "velocity": 100}, {"time": 58960, "pitch": 74, "duration": 110, "velocity": 100}, {"time": 59015, "pitch": 79, "duration": 55, "velocity": 100}, {"time": 59070, "pitch": 74, "duration": 55, "velocity": 100}, {"time": 59070, "pitch": 77, "duration": 55, "velocity": 100}, {"time": 59125, "pitch": 74, "duration": 55, "velocity": 100}, {"time": 59125, "pitch": 76, "duration": 55, "velocity": 100}, {"time": 59180, "pitch": 66, "duration": 55, "velocity": 100}, {"time": 59180, "pitch": 69, "duration": 55, "velocity": 100}, {"time": 59180, "pitch": 77, "duration": 55, "velocity": 100}, {"time": 59235, "pitch": 69, "duration": 55, "velocity": 100}, {"time": 59235, "pitch": 79, "duration": 220, "velocity": 100}, {"time": 59290, "pitch": 69, "duration": 55, "velocity": 100}, {"time": 59345, "pitch": 71, "duration": 55, "velocity": 100}, {"time": 59455, "pitch": 69, "duration": 55, "velocity": 100}, {"time": 59455, "pitch": 76, "duration": 165, "velocity": 100}, {"time": 59510, "pitch": 69, "duration": 55, "velocity": 100}, {"time": 59620, "pitch": 74, "duration": 55, "velocity": 100}, {"time": 59620, "pitch": 79, "duration": 55, "velocity": 100}, {"time": 59675, "pitch": 74, "duration": 55, "velocity": 100}, {"time": 59675, "pitch": 74, "duration": 165, "velocity": 100}, {"time": 59730, "pitch": 76, "duration": 55, "velocity": 100}, {"time": 59785, "pitch": 78, "duration": 55, "velocity": 100}, {"time": 59840, "pitch": 78, "duration": 275, "velocity": 100}, {"time": 59895, "pitch": 72, "duration": 55, "velocity": 100}, {"time": 59950, "pitch": 74, "duration": 55, "velocity": 100}, {"time": 60005, "pitch": 72, "duration": 55, "velocity": 100}, {"time": 60060, "pitch": 71, "duration": 220, "velocity": 100}, {"time": 60280, "pitch": 74, "duration": 55, "velocity": 100}, {"time": 60280, "pitch": 78, "duration": 385, "velocity": 100}, {"time": 60335, "pitch": 72, "duration": 55, "velocity": 100}, {"time": 60390, "pitch": 71, "duration": 110, "velocity": 100}, {"time": 60500, "pitch": 69, "duration": 55, "velocity": 100}, {"time": 60500, "pitch": 69, "duration": 220, "velocity": 100}, {"time": 60720, "pitch": 72, "duration": 55, "velocity": 100}, {"time": 60720, "pitch": 74, "duration": 440, "velocity": 100}, {"time": 60720, "pitch": 81, "duration": 440, "velocity": 100}, {"time": 60775, "pitch": 71, "duration": 55, "velocity": 100}, {"time": 60830, "pitch": 69, "duration": 110, "velocity": 100}, {"time": 60940, "pitch": 76, "duration": 220, "velocity": 100}, {"time": 61160, "pitch": 69, "duration": 440, "velocity": 100}, {"time": 61160, "pitch": 74, "duration": 440, "velocity": 100}, {"time": 61490, "pitch": 69, "duration": 55, "velocity": 100}, {"time": 61600, "pitch": 69, "duration": 660, "velocity": 100}, {"time": 61600, "pitch": 74, "duration": 825, "velocity": 100}, {"time": 61600, "pitch": 78, "duration": 880, "velocity": 100}, {"time": 62095, "pitch": 74, "duration": 165, "velocity": 100}, {"time": 62260, "pitch": 79, "duration": 55, "velocity": 100}, {"time": 62315, "pitch": 74, "duration": 220, "velocity": 100}, {"time": 62535, "pitch": 71, "duration": 165, "velocity": 100}, {"time": 62700, "pitch": 74, "duration": 110, "velocity": 100}, {"time": 62810, "pitch": 71, "duration": 220, "velocity": 100}, {"time": 63195, "pitch": 71, "duration": 55, "velocity": 100}, {"time": 63250, "pitch": 74, "duration": 110, "velocity": 100}, {"time": 63415, "pitch": 71, "duration": 165, "velocity": 100}, {"time": 63580, "pitch": 71, "duration": 110, "velocity": 100}, {"time": 63690, "pitch": 69, "duration": 110, "velocity": 100}, {"time": 63800, "pitch": 71, "duration": 330, "velocity": 100}, {"time": 63855, "pitch": 74, "duration": 165, "velocity": 100}, {"time": 64020, "pitch": 72, "duration": 110, "velocity": 100}, {"time": 64130, "pitch": 69, "duration": 55, "velocity": 100}, {"time": 64130, "pitch": 74, "duration": 55, "velocity": 100}, {"time": 64185, "pitch": 74, "duration": 55, "velocity": 100}, {"time": 64185, "pitch": 76, "duration": 55, "velocity": 100}, {"time": 64240, "pitch": 74, "duration": 275, "velocity": 100}, {"time": 64240, "pitch": 74, "duration": 330, "velocity": 100}, {"time": 64570, "pitch": 74, "duration": 55, "velocity": 100}, {"time": 64625, "pitch": 76, "duration": 55, "velocity": 100}, {"time": 64680, "pitch": 79, "duration": 440, "velocity": 100}, {"time": 64955, "pitch": 69, "duration": 55, "velocity": 100}, {"time": 65010, "pitch": 71, "duration": 55, "velocity": 100}, {"time": 65065, "pitch": 72, "duration": 55, "velocity": 100}, {"time": 65065, "pitch": 76, "duration": 55, "velocity": 100}, {"time": 65120, "pitch": 86, "duration": 55, "velocity": 100}, {"time": 65175, "pitch": 86, "duration": 55, "velocity": 100}, {"time": 65230, "pitch": 86, "duration": 55, "velocity": 100}, {"time": 65285, "pitch": 83, "duration": 55, "velocity": 100}, {"time": 65340, "pitch": 83, "duration": 55, "velocity": 100}, {"time": 65395, "pitch": 76, "duration": 55, "velocity": 100}, {"time": 65450, "pitch": 74, "duration": 55, "velocity": 100}, {"time": 65450, "pitch": 79, "duration": 55, "velocity": 100}, {"time": 65505, "pitch": 74, "duration": 220, "velocity": 100}, {"time": 65505, "pitch": 79, "duration": 55, "velocity": 100}, {"time": 65560, "pitch": 71, "duration": 275, "velocity": 100}, {"time": 65560, "pitch": 74, "duration": 165, "velocity": 100}, {"time": 65725, "pitch": 76, "duration": 55, "velocity": 100}, {"time": 65780, "pitch": 76, "duration": 55, "velocity": 100}, {"time": 65835, "pitch": 69, "duration": 55, "velocity": 100}, {"time": 65835, "pitch": 74, "duration": 110, "velocity": 100}, {"time": 65945, "pitch": 76, "duration": 110, "velocity": 100}, {"time": 66000, "pitch": 71, "duration": 330, "velocity": 100}, {"time": 66055, "pitch": 78, "duration": 110, "velocity": 100}, {"time": 66165, "pitch": 79, "duration": 165, "velocity": 100}, {"time": 66330, "pitch": 71, "duration": 55, "velocity": 100}, {"time": 66330, "pitch": 78, "duration": 110, "velocity": 100}, {"time": 66385, "pitch": 74, "duration": 55, "velocity": 100}]}, {"program": 32, "is_drum": false, "name": "Bass", "notes": [{"time": 0, "pitch": 47, "duration": 330, "velocity": 100}, {"time": 880, "pitch": 50, "duration": 385, "velocity": 100}, {"time": 1320, "pitch": 50, "duration": 330, "velocity": 100}, {"time": 1760, "pitch": 50, "duration": 330, "velocity": 100}, {"time": 2200, "pitch": 50, "duration": 330, "velocity": 100}, {"time": 2640, "pitch": 50, "duration": 385, "velocity": 100}, {"time": 3080, "pitch": 50, "duration": 330, "velocity": 100}, {"time": 3960, "pitch": 45, "duration": 330, "velocity": 100}, {"time": 4400, "pitch": 45, "duration": 165, "velocity": 100}, {"time": 4840, "pitch": 45, "duration": 330, "velocity": 100}, {"time": 6160, "pitch": 45, "duration": 385, "velocity": 100}, {"time": 6600, "pitch": 45, "duration": 385, "velocity": 100}, {"time": 7040, "pitch": 43, "duration": 385, "velocity": 100}, {"time": 7150, "pitch": 50, "duration": 165, "velocity": 100}, {"time": 7370, "pitch": 50, "duration": 110, "velocity": 100}, {"time": 7480, "pitch": 43, "duration": 275, "velocity": 100}, {"time": 7590, "pitch": 50, "duration": 165, "velocity": 100}, {"time": 7810, "pitch": 50, "duration": 110, "velocity": 100}, {"time": 7920, "pitch": 43, "duration": 275, "velocity": 100}, {"time": 8360, "pitch": 43, "duration": 330, "velocity": 100}, {"time": 8800, "pitch": 43, "duration": 385, "velocity": 100}, {"time": 8855, "pitch": 50, "duration": 220, "velocity": 100}, {"time": 9130, "pitch": 50, "duration": 110, "velocity": 100}, {"time": 9240, "pitch": 43, "duration": 275, "velocity": 100}, {"time": 9350, "pitch": 50, "duration": 165, "velocity": 100}, {"time": 9680, "pitch": 31, "duration": 275, "velocity": 100}, {"time": 9790, "pitch": 43, "duration": 220, "velocity": 100}, {"time": 10120, "pitch": 43, "duration": 330, "velocity": 100}, {"time": 10560, "pitch": 43, "duration": 330, "velocity": 100}, {"time": 10670, "pitch": 50, "duration": 110, "velocity": 100}, {"time": 10890, "pitch": 50, "duration": 55, "velocity": 100}, {"time": 11000, "pitch": 31, "duration": 440, "velocity": 100}, {"time": 11110, "pitch": 43, "duration": 275, "velocity": 100}, {"time": 11165, "pitch": 50, "duration": 55, "velocity": 100}, {"time": 11440, "pitch": 31, "duration": 165, "velocity": 100}, {"time": 11495, "pitch": 50, "duration": 110, "velocity": 100}, {"time": 11660, "pitch": 38, "duration": 220, "velocity": 100}, {"time": 11715, "pitch": 50, "duration": 110, "velocity": 100}, {"time": 11880, "pitch": 43, "duration": 275, "velocity": 100}, {"time": 11935, "pitch": 50, "duration": 55, "velocity": 100}, {"time": 11990, "pitch": 50, "duration": 110, "velocity": 100}, {"time": 12100, "pitch": 50, "duration": 55, "velocity": 100}, {"time": 12320, "pitch": 43, "duration": 275, "velocity": 100}, {"time": 12760, "pitch": 31, "duration": 275, "velocity": 100}, {"time": 12870, "pitch": 43, "duration": 110, "velocity": 100}, {"time": 12980, "pitch": 50, "duration": 55, "velocity": 100}, {"time": 13200, "pitch": 43, "duration": 385, "velocity": 100}, {"time": 13310, "pitch": 50, "duration": 110, "velocity": 100}, {"time": 13475, "pitch": 50, "duration": 110, "velocity": 100}, {"time": 13640, "pitch": 43, "duration": 275, "velocity": 100}, {"time": 13750, "pitch": 50, "duration": 165, "velocity": 100}, {"time": 13915, "pitch": 45, "duration": 55, "velocity": 100}, {"time": 13970, "pitch": 45, "duration": 55, "velocity": 100}, {"time": 14080, "pitch": 38, "duration": 385, "velocity": 100}, {"time": 14135, "pitch": 50, "duration": 330, "velocity": 100}, {"time": 14520, "pitch": 38, "duration": 275, "velocity": 100}, {"time": 14630, "pitch": 45, "duration": 165, "velocity": 100}, {"time": 14685, "pitch": 54, "duration": 55, "velocity": 100}, {"time": 14795, "pitch": 50, "duration": 55, "velocity": 100}, {"time": 14960, "pitch": 50, "duration": 330, "velocity": 100}, {"time": 15400, "pitch": 50, "duration": 275, "velocity": 100}, {"time": 15840, "pitch": 38, "duration": 275, "velocity": 100}, {"time": 15950, "pitch": 45, "duration": 110, "velocity": 100}, {"time": 16115, "pitch": 45, "duration": 55, "velocity": 100}, {"time": 16280, "pitch": 50, "duration": 275, "velocity": 100}, {"time": 16610, "pitch": 50, "duration": 55, "velocity": 100}, {"time": 16720, "pitch": 50, "duration": 275, "velocity": 100}, {"time": 17160, "pitch": 38, "duration": 275, "velocity": 100}, {"time": 17215, "pitch": 45, "duration": 110, "velocity": 100}, {"time": 17270, "pitch": 54, "duration": 55, "velocity": 100}, {"time": 17325, "pitch": 54, "duration": 55, "velocity": 100}, {"time": 17380, "pitch": 47, "duration": 55, "velocity": 100}, {"time": 17435, "pitch": 54, "duration": 55, "velocity": 100}, {"time": 17490, "pitch": 47, "duration": 55, "velocity": 100}, {"time": 17545, "pitch": 47, "duration": 55, "velocity": 100}, {"time": 17600, "pitch": 35, "duration": 385, "velocity": 100}, {"time": 17710, "pitch": 47, "duration": 110, "velocity": 100}, {"time": 17875, "pitch": 47, "duration": 55, "velocity": 100}, {"time": 18040, "pitch": 47, "duration": 275, "velocity": 100}, {"time": 18150, "pitch": 54, "duration": 110, "velocity": 100}, {"time": 18315, "pitch": 54, "duration": 55, "velocity": 100}, {"time": 18370, "pitch": 47, "duration": 55, "velocity": 100}, {"time": 18480, "pitch": 47, "duration": 275, "velocity": 100}, {"time": 18920, "pitch": 47, "duration": 275, "velocity": 100}, {"time": 19360, "pitch": 47, "duration": 715, "velocity": 100}, {"time": 19470, "pitch": 54, "duration": 165, "velocity": 100}, {"time": 20240, "pitch": 35, "duration": 275, "velocity": 100}, {"time": 20350, "pitch": 42, "duration": 275, "velocity": 100}, {"time": 20460, "pitch": 54, "duration": 55, "velocity": 100}, {"time": 20570, "pitch": 47, "duration": 55, "velocity": 100}, {"time": 20680, "pitch": 35, "duration": 440, "velocity": 100}, {"time": 20680, "pitch": 47, "duration": 110, "velocity": 100}, {"time": 20735, "pitch": 42, "duration": 330, "velocity": 100}, {"time": 20790, "pitch": 50, "duration": 220, "velocity": 100}, {"time": 21010, "pitch": 54, "duration": 110, "velocity": 100}, {"time": 21120, "pitch": 50, "duration": 55, "velocity": 100}, {"time": 21230, "pitch": 50, "duration": 275, "velocity": 100}, {"time": 21560, "pitch": 50, "duration": 275, "velocity": 100}, {"time": 21890, "pitch": 54, "duration": 110, "velocity": 100}, {"time": 22000, "pitch": 50, "duration": 275, "velocity": 100}, {"time": 22110, "pitch": 57, "duration": 55, "velocity": 100}, {"time": 22330, "pitch": 57, "duration": 110, "velocity": 100}, {"time": 22440, "pitch": 50, "duration": 275, "velocity": 100}, {"time": 22880, "pitch": 50, "duration": 330, "velocity": 100}, {"time": 23320, "pitch": 50, "duration": 440, "velocity": 100}, {"time": 23375, "pitch": 57, "duration": 220, "velocity": 100}, {"time": 23650, "pitch": 57, "duration": 55, "velocity": 100}, {"time": 23760, "pitch": 50, "duration": 275, "velocity": 100}, {"time": 23870, "pitch": 57, "duration": 110, "velocity": 100}, {"time": 24200, "pitch": 38, "duration": 275, "velocity": 100}, {"time": 24310, "pitch": 50, "duration": 165, "velocity": 100}, {"time": 24640, "pitch": 55, "duration": 330, "velocity": 100}, {"time": 25080, "pitch": 55, "duration": 330, "velocity": 100}, {"time": 25520, "pitch": 43, "duration": 275, "velocity": 100}, {"time": 25630, "pitch": 50, "duration": 275, "velocity": 100}, {"time": 25960, "pitch": 50, "duration": 110, "velocity": 100}, {"time": 26180, "pitch": 50, "duration": 165, "velocity": 100}, {"time": 26235, "pitch": 55, "duration": 55, "velocity": 100}, {"time": 26400, "pitch": 47, "duration": 275, "velocity": 100}, {"time": 26455, "pitch": 55, "duration": 55, "velocity": 100}, {"time": 26840, "pitch": 55, "duration": 220, "velocity": 100}, {"time": 27280, "pitch": 43, "duration": 220, "velocity": 100}, {"time": 27390, "pitch": 50, "duration": 110, "velocity": 100}, {"time": 27720, "pitch": 50, "duration": 330, "velocity": 100}, {"time": 27830, "pitch": 59, "duration": 55, "velocity": 100}, {"time": 27995, "pitch": 57, "duration": 55, "velocity": 100}, {"time": 28160, "pitch": 38, "duration": 385, "velocity": 100}, {"time": 28270, "pitch": 54, "duration": 55, "velocity": 100}, {"time": 28435, "pitch": 45, "duration": 110, "velocity": 100}, {"time": 28545, "pitch": 57, "duration": 55, "velocity": 100}, {"time": 28600, "pitch": 38, "duration": 275, "velocity": 100}, {"time": 28710, "pitch": 45, "duration": 110, "velocity": 100}, {"time": 28875, "pitch": 45, "duration": 55, "velocity": 100}, {"time": 28930, "pitch": 54, "duration": 55, "velocity": 100}, {"time": 29040, "pitch": 38, "duration": 385, "velocity": 100}, {"time": 29150, "pitch": 50, "duration": 110, "velocity": 100}, {"time": 29260, "pitch": 54, "duration": 55, "velocity": 100}, {"time": 29315, "pitch": 45, "duration": 110, "velocity": 100}, {"time": 29425, "pitch": 57, "duration": 55, "velocity": 100}, {"time": 29480, "pitch": 38, "duration": 385, "velocity": 100}, {"time": 29480, "pitch": 54, "duration": 110, "velocity": 100}, {"time": 29590, "pitch": 50, "duration": 110, "velocity": 100}, {"time": 29700, "pitch": 54, "duration": 55, "velocity": 100}, {"time": 29755, "pitch": 50, "duration": 55, "velocity": 100}, {"time": 29810, "pitch": 50, "duration": 55, "velocity": 100}, {"time": 29865, "pitch": 57, "duration": 55, "velocity": 100}, {"time": 29920, "pitch": 50, "duration": 220, "velocity": 100}, {"time": 30030, "pitch": 54, "duration": 55, "velocity": 100}, {"time": 30140, "pitch": 57, "duration": 55, "velocity": 100}, {"time": 30195, "pitch": 45, "duration": 55, "velocity": 100}, {"time": 30305, "pitch": 57, "duration": 55, "velocity": 100}, {"time": 30360, "pitch": 38, "duration": 220, "velocity": 100}, {"time": 30360, "pitch": 54, "duration": 55, "velocity": 100}, {"time": 30470, "pitch": 54, "duration": 55, "velocity": 100}, {"time": 30580, "pitch": 50, "duration": 55, "velocity": 100}, {"time": 30690, "pitch": 38, "duration": 55, "velocity": 100}, {"time": 30690, "pitch": 54, "duration": 55, "velocity": 100}, {"time": 30800, "pitch": 50, "duration": 55, "velocity": 100}, {"time": 30800, "pitch": 54, "duration": 55, "velocity": 100}, {"time": 30910, "pitch": 54, "duration": 55, "velocity": 100}, {"time": 31020, "pitch": 50, "duration": 55, "velocity": 100}, {"time": 31130, "pitch": 54, "duration": 55, "velocity": 100}, {"time": 31240, "pitch": 38, "duration": 220, "velocity": 100}, {"time": 31240, "pitch": 50, "duration": 55, "velocity": 100}, {"time": 31350, "pitch": 54, "duration": 55, "velocity": 100}, {"time": 31460, "pitch": 54, "duration": 55, "velocity": 100}, {"time": 31570, "pitch": 45, "duration": 55, "velocity": 100}, {"time": 31570, "pitch": 54, "duration": 55, "velocity": 100}, {"time": 31680, "pitch": 38, "duration": 275, "velocity": 100}, {"time": 31680, "pitch": 50, "duration": 55, "velocity": 100}, {"time": 31680, "pitch": 54, "duration": 110, "velocity": 100}, {"time": 31790, "pitch": 50, "duration": 110, "velocity": 100}, {"time": 31955, "pitch": 50, "duration": 110, "velocity": 100}, {"time": 32010, "pitch": 54, "duration": 55, "velocity": 100}, {"time": 32065, "pitch": 54, "duration": 55, "velocity": 100}, {"time": 32120, "pitch": 38, "duration": 165, "velocity": 100}, {"time": 32120, "pitch": 54, "duration": 55, "velocity": 100}, {"time": 32175, "pitch": 50, "duration": 55, "velocity": 100}, {"time": 32230, "pitch": 54, "duration": 55, "velocity": 100}, {"time": 32340, "pitch": 38, "duration": 110, "velocity": 100}, {"time": 32340, "pitch": 50, "duration": 55, "velocity": 100}, {"time": 32450, "pitch": 45, "duration": 55, "velocity": 100}, {"time": 32560, "pitch": 38, "duration": 275, "velocity": 100}, {"time": 32560, "pitch": 50, "duration": 55, "velocity": 100}, {"time": 32670, "pitch": 50, "duration": 110, "velocity": 100}, {"time": 32780, "pitch": 54, "duration": 55, "velocity": 100}, {"time": 32835, "pitch": 50, "duration": 55, "velocity": 100}, {"time": 32945, "pitch": 54, "duration": 55, "velocity": 100}, {"time": 33000, "pitch": 38, "duration": 330, "velocity": 100}, {"time": 33000, "pitch": 54, "duration": 110, "velocity": 100}, {"time": 33110, "pitch": 50, "duration": 110, "velocity": 100}, {"time": 33165, "pitch": 54, "duration": 55, "velocity": 100}, {"time": 33220, "pitch": 54, "duration": 55, "velocity": 100}, {"time": 33275, "pitch": 45, "duration": 55, "velocity": 100}, {"time": 33330, "pitch": 54, "duration": 55, "velocity": 100}, {"time": 33440, "pitch": 38, "duration": 330, "velocity": 100}, {"time": 33440, "pitch": 50, "duration": 110, "velocity": 100}, {"time": 33440, "pitch": 54, "duration": 110, "velocity": 100}, {"time": 33550, "pitch": 45, "duration": 110, "velocity": 100}, {"time": 33660, "pitch": 54, "duration": 55, "velocity": 100}, {"time": 33715, "pitch": 45, "duration": 110, "velocity": 100}, {"time": 33770, "pitch": 50, "duration": 55, "velocity": 100}, {"time": 33825, "pitch": 54, "duration": 55, "velocity": 100}, {"time": 33880, "pitch": 38, "duration": 275, "velocity": 100}, {"time": 33880, "pitch": 50, "duration": 55, "velocity": 100}, {"time": 33880, "pitch": 54, "duration": 110, "velocity": 100}, {"time": 33990, "pitch": 54, "duration": 55, "velocity": 100}, {"time": 34100, "pitch": 54, "duration": 55, "velocity": 100}, {"time": 34210, "pitch": 50, "duration": 55, "velocity": 100}, {"time": 34320, "pitch": 38, "duration": 275, "velocity": 100}, {"time": 34320, "pitch": 50, "duration": 55, "velocity": 100}, {"time": 34320, "pitch": 54, "duration": 110, "velocity": 100}, {"time": 34430, "pitch": 45, "duration": 110, "velocity": 100}, {"time": 34540, "pitch": 50, "duration": 55, "velocity": 100}, {"time": 34705, "pitch": 50, "duration": 55, "velocity": 100}, {"time": 34760, "pitch": 38, "duration": 385, "velocity": 100}, {"time": 34760, "pitch": 54, "duration": 110, "velocity": 100}, {"time": 34760, "pitch": 57, "duration": 110, "velocity": 100}, {"time": 34870, "pitch": 45, "duration": 110, "velocity": 100}, {"time": 34980, "pitch": 52, "duration": 55, "velocity": 100}, {"time": 34980, "pitch": 55, "duration": 110, "velocity": 100}, {"time": 35035, "pitch": 43, "duration": 55, "velocity": 100}, {"time": 35090, "pitch": 48, "duration": 110, "velocity": 100}, {"time": 35090, "pitch": 52, "duration": 110, "velocity": 100}, {"time": 35145, "pitch": 52, "duration": 55, "velocity": 100}, {"time": 35200, "pitch": 36, "duration": 385, "velocity": 100}, {"time": 35200, "pitch": 55, "duration": 55, "velocity": 100}, {"time": 35310, "pitch": 55, "duration": 55, "velocity": 100}, {"time": 35420, "pitch": 55, "duration": 55, "velocity": 100}, {"time": 35475, "pitch": 43, "duration": 110, "velocity": 100}, {"time": 35530, "pitch": 55, "duration": 55, "velocity": 100}, {"time": 35585, "pitch": 60, "duration": 55, "velocity": 100}, {"time": 35640, "pitch": 36, "duration": 275, "velocity": 100}, {"time": 35640, "pitch": 55, "duration": 110, "velocity": 100}, {"time": 35750, "pitch": 43, "duration": 110, "velocity": 100}, {"time": 35860, "pitch": 55, "duration": 55, "velocity": 100}, {"time": 35915, "pitch": 43, "duration": 55, "velocity": 100}, {"time": 35970, "pitch": 55, "duration": 55, "velocity": 100}, {"time": 36080, "pitch": 36, "duration": 385, "velocity": 100}, {"time": 36080, "pitch": 55, "duration": 110, "velocity": 100}, {"time": 36190, "pitch": 52, "duration": 110, "velocity": 100}, {"time": 36300, "pitch": 55, "duration": 55, "velocity": 100}, {"time": 36355, "pitch": 48, "duration": 110, "velocity": 100}, {"time": 36410, "pitch": 57, "duration": 55, "velocity": 100}, {"time": 36465, "pitch": 60, "duration": 55, "velocity": 100}, {"time": 36520, "pitch": 40, "duration": 385, "velocity": 100}, {"time": 36520, "pitch": 55, "duration": 110, "velocity": 100}, {"time": 36630, "pitch": 52, "duration": 110, "velocity": 100}, {"time": 36740, "pitch": 55, "duration": 55, "velocity": 100}, {"time": 36795, "pitch": 48, "duration": 55, "velocity": 100}, {"time": 36850, "pitch": 52, "duration": 55, "velocity": 100}, {"time": 36905, "pitch": 55, "duration": 55, "velocity": 100}, {"time": 36960, "pitch": 48, "duration": 220, "velocity": 100}, {"time": 37070, "pitch": 55, "duration": 55, "velocity": 100}, {"time": 37180, "pitch": 55, "duration": 55, "velocity": 100}, {"time": 37235, "pitch": 43, "duration": 55, "velocity": 100}, {"time": 37290, "pitch": 55, "duration": 55, "velocity": 100}, {"time": 37345, "pitch": 60, "duration": 55, "velocity": 100}, {"time": 37400, "pitch": 36, "duration": 220, "velocity": 100}, {"time": 37400, "pitch": 55, "duration": 55, "velocity": 100}, {"time": 37510, "pitch": 55, "duration": 55, "velocity": 100}, {"time": 37620, "pitch": 48, "duration": 55, "velocity": 100}, {"time": 37730, "pitch": 43, "duration": 55, "velocity": 100}, {"time": 37730, "pitch": 55, "duration": 55, "velocity": 100}, {"time": 37840, "pitch": 48, "duration": 110, "velocity": 100}, {"time": 37840, "pitch": 55, "duration": 55, "velocity": 100}, {"time": 37950, "pitch": 52, "duration": 55, "velocity": 100}, {"time": 37950, "pitch": 55, "duration": 55, "velocity": 100}, {"time": 38060, "pitch": 52, "duration": 55, "velocity": 100}, {"time": 38060, "pitch": 55, "duration": 55, "velocity": 100}, {"time": 38170, "pitch": 55, "duration": 55, "velocity": 100}, {"time": 38280, "pitch": 48, "duration": 220, "velocity": 100}, {"time": 38280, "pitch": 52, "duration": 55, "velocity": 100}, {"time": 38280, "pitch": 55, "duration": 110, "velocity": 100}, {"time": 38390, "pitch": 55, "duration": 55, "velocity": 100}, {"time": 38500, "pitch": 50, "duration": 55, "velocity": 100}, {"time": 38500, "pitch": 57, "duration": 55, "velocity": 100}, {"time": 38610, "pitch": 45, "duration": 55, "velocity": 100}, {"time": 38610, "pitch": 54, "duration": 110, "velocity": 100}, {"time": 38720, "pitch": 38, "duration": 275, "velocity": 100}, {"time": 38720, "pitch": 50, "duration": 55, "velocity": 100}, {"time": 38720, "pitch": 54, "duration": 110, "velocity": 100}, {"time": 38720, "pitch": 57, "duration": 110, "velocity": 100}, {"time": 38830, "pitch": 50, "duration": 110, "velocity": 100}, {"time": 38940, "pitch": 57, "duration": 55, "velocity": 100}, {"time": 38995, "pitch": 50, "duration": 110, "velocity": 100}, {"time": 39050, "pitch": 54, "duration": 55, "velocity": 100}, {"time": 39105, "pitch": 54, "duration": 55, "velocity": 100}, {"time": 39160, "pitch": 38, "duration": 165, "velocity": 100}, {"time": 39160, "pitch": 54, "duration": 55, "velocity": 100}, {"time": 39160, "pitch": 57, "duration": 110, "velocity": 100}, {"time": 39215, "pitch": 50, "duration": 55, "velocity": 100}, {"time": 39270, "pitch": 54, "duration": 55, "velocity": 100}, {"time": 39380, "pitch": 38, "duration": 110, "velocity": 100}, {"time": 39380, "pitch": 50, "duration": 55, "velocity": 100}, {"time": 39380, "pitch": 57, "duration": 110, "velocity": 100}, {"time": 39490, "pitch": 45, "duration": 55, "velocity": 100}, {"time": 39600, "pitch": 38, "duration": 275, "velocity": 100}, {"time": 39600, "pitch": 50, "duration": 55, "velocity": 100}, {"time": 39600, "pitch": 57, "duration": 110, "velocity": 100}, {"time": 39710, "pitch": 50, "duration": 110, "velocity": 100}, {"time": 39820, "pitch": 54, "duration": 55, "velocity": 100}, {"time": 39875, "pitch": 50, "duration": 55, "velocity": 100}, {"time": 39930, "pitch": 57, "duration": 55, "velocity": 100}, {"time": 39985, "pitch": 54, "duration": 55, "velocity": 100}, {"time": 40040, "pitch": 38, "duration": 330, "velocity": 100}, {"time": 40040, "pitch": 54, "duration": 110, "velocity": 100}, {"time": 40040, "pitch": 57, "duration": 110, "velocity": 100}, {"time": 40150, "pitch": 50, "duration": 110, "velocity": 100}, {"time": 40205, "pitch": 54, "duration": 55, "velocity": 100}, {"time": 40260, "pitch": 54, "duration": 55, "velocity": 100}, {"time": 40260, "pitch": 57, "duration": 55, "velocity": 100}, {"time": 40315, "pitch": 45, "duration": 55, "velocity": 100}, {"time": 40370, "pitch": 54, "duration": 55, "velocity": 100}, {"time": 40480, "pitch": 38, "duration": 385, "velocity": 100}, {"time": 40480, "pitch": 50, "duration": 165, "velocity": 100}, {"time": 40480, "pitch": 54, "duration": 165, "velocity": 100}, {"time": 40480, "pitch": 57, "duration": 165, "velocity": 100}, {"time": 40590, "pitch": 45, "duration": 110, "velocity": 100}, {"time": 40700, "pitch": 54, "duration": 55, "velocity": 100}, {"time": 40700, "pitch": 57, "duration": 110, "velocity": 100}, {"time": 40755, "pitch": 45, "duration": 110, "velocity": 100}, {"time": 40810, "pitch": 50, "duration": 55, "velocity": 100}, {"time": 40865, "pitch": 54, "duration": 55, "velocity": 100}, {"time": 40920, "pitch": 38, "duration": 275, "velocity": 100}, {"time": 40920, "pitch": 54, "duration": 55, "velocity": 100}, {"time": 40920, "pitch": 57, "duration": 110, "velocity": 100}, {"time": 41030, "pitch": 50, "duration": 55, "velocity": 100}, {"time": 41140, "pitch": 54, "duration": 55, "velocity": 100}, {"time": 41140, "pitch": 57, "duration": 110, "velocity": 100}, {"time": 41250, "pitch": 50, "duration": 55, "velocity": 100}, {"time": 41360, "pitch": 38, "duration": 385, "velocity": 100}, {"time": 41360, "pitch": 57, "duration": 220, "velocity": 100}, {"time": 41470, "pitch": 45, "duration": 275, "velocity": 100}, {"time": 41580, "pitch": 62, "duration": 220, "velocity": 100}, {"time": 41690, "pitch": 50, "duration": 165, "velocity": 100}, {"time": 41800, "pitch": 38, "duration": 385, "velocity": 100}, {"time": 41800, "pitch": 54, "duration": 165, "velocity": 100}, {"time": 41800, "pitch": 57, "duration": 55, "velocity": 100}, {"time": 41910, "pitch": 45, "duration": 275, "velocity": 100}, {"time": 42020, "pitch": 50, "duration": 165, "velocity": 100}, {"time": 42020, "pitch": 54, "duration": 165, "velocity": 100}, {"time": 42240, "pitch": 48, "duration": 385, "velocity": 100}, {"time": 42350, "pitch": 55, "duration": 275, "velocity": 100}, {"time": 42460, "pitch": 60, "duration": 55, "velocity": 100}, {"time": 42680, "pitch": 48, "duration": 385, "velocity": 100}, {"time": 42790, "pitch": 55, "duration": 110, "velocity": 100}, {"time": 42955, "pitch": 60, "duration": 55, "velocity": 100}, {"time": 43120, "pitch": 48, "duration": 385, "velocity": 100}, {"time": 43120, "pitch": 60, "duration": 110, "velocity": 100}, {"time": 43230, "pitch": 55, "duration": 275, "velocity": 100}, {"time": 43285, "pitch": 60, "duration": 110, "velocity": 100}, {"time": 43450, "pitch": 60, "duration": 55, "velocity": 100}, {"time": 43560, "pitch": 48, "duration": 385, "velocity": 100}, {"time": 43725, "pitch": 55, "duration": 165, "velocity": 100}, {"time": 43780, "pitch": 60, "duration": 110, "velocity": 100}, {"time": 43835, "pitch": 64, "duration": 55, "velocity": 100}, {"time": 44000, "pitch": 48, "duration": 385, "velocity": 100}, {"time": 44110, "pitch": 55, "duration": 220, "velocity": 100}, {"time": 44220, "pitch": 60, "duration": 55, "velocity": 100}, {"time": 44330, "pitch": 60, "duration": 55, "velocity": 100}, {"time": 44440, "pitch": 48, "duration": 330, "velocity": 100}, {"time": 44550, "pitch": 55, "duration": 165, "velocity": 100}, {"time": 44605, "pitch": 60, "duration": 110, "velocity": 100}, {"time": 44770, "pitch": 60, "duration": 55, "velocity": 100}, {"time": 44880, "pitch": 48, "duration": 385, "velocity": 100}, {"time": 44880, "pitch": 60, "duration": 110, "velocity": 100}, {"time": 44990, "pitch": 55, "duration": 275, "velocity": 100}, {"time": 45210, "pitch": 60, "duration": 55, "velocity": 100}, {"time": 45320, "pitch": 48, "duration": 330, "velocity": 100}, {"time": 45320, "pitch": 60, "duration": 110, "velocity": 100}, {"time": 45430, "pitch": 55, "duration": 165, "velocity": 100}, {"time": 45485, "pitch": 64, "duration": 55, "velocity": 100}, {"time": 45540, "pitch": 60, "duration": 55, "velocity": 100}, {"time": 45760, "pitch": 52, "duration": 275, "velocity": 100}, {"time": 45760, "pitch": 60, "duration": 55, "velocity": 100}, {"time": 45870, "pitch": 60, "duration": 110, "velocity": 100}, {"time": 46090, "pitch": 60, "duration": 55, "velocity": 100}, {"time": 46145, "pitch": 64, "duration": 55, "velocity": 100}, {"time": 46200, "pitch": 36, "duration": 330, "velocity": 100}, {"time": 46310, "pitch": 48, "duration": 165, "velocity": 100}, {"time": 46365, "pitch": 55, "duration": 275, "velocity": 100}, {"time": 46475, "pitch": 60, "duration": 165, "velocity": 100}, {"time": 46585, "pitch": 55, "duration": 165, "velocity": 100}, {"time": 46640, "pitch": 48, "duration": 165, "velocity": 100}, {"time": 46695, "pitch": 55, "duration": 55, "velocity": 100}, {"time": 46750, "pitch": 60, "duration": 55, "velocity": 100}, {"time": 46860, "pitch": 48, "duration": 165, "velocity": 100}, {"time": 46860, "pitch": 60, "duration": 165, "velocity": 100}, {"time": 47080, "pitch": 48, "duration": 330, "velocity": 100}, {"time": 47080, "pitch": 60, "duration": 110, "velocity": 100}, {"time": 47190, "pitch": 55, "duration": 165, "velocity": 100}, {"time": 47245, "pitch": 60, "duration": 110, "velocity": 100}, {"time": 47410, "pitch": 60, "duration": 55, "velocity": 100}, {"time": 47465, "pitch": 60, "duration": 55, "velocity": 100}, {"time": 47520, "pitch": 52, "duration": 275, "velocity": 100}, {"time": 47630, "pitch": 60, "duration": 165, "velocity": 100}, {"time": 47740, "pitch": 64, "duration": 55, "velocity": 100}, {"time": 47960, "pitch": 48, "duration": 220, "velocity": 100}, {"time": 48015, "pitch": 60, "duration": 55, "velocity": 100}, {"time": 48180, "pitch": 52, "duration": 110, "velocity": 100}, {"time": 48345, "pitch": 64, "duration": 55, "velocity": 100}, {"time": 48400, "pitch": 36, "duration": 385, "velocity": 100}, {"time": 48510, "pitch": 48, "duration": 275, "velocity": 100}, {"time": 48565, "pitch": 60, "duration": 110, "velocity": 100}, {"time": 48730, "pitch": 62, "duration": 110, "velocity": 100}, {"time": 48840, "pitch": 40, "duration": 440, "velocity": 100}, {"time": 48840, "pitch": 60, "duration": 55, "velocity": 100}, {"time": 49060, "pitch": 62, "duration": 55, "velocity": 100}, {"time": 49170, "pitch": 62, "duration": 110, "velocity": 100}, {"time": 49280, "pitch": 43, "duration": 385, "velocity": 100}, {"time": 49280, "pitch": 55, "duration": 165, "velocity": 100}, {"time": 49390, "pitch": 50, "duration": 165, "velocity": 100}, {"time": 49500, "pitch": 55, "duration": 55, "velocity": 100}, {"time": 49500, "pitch": 59, "duration": 110, "velocity": 100}, {"time": 49500, "pitch": 62, "duration": 165, "velocity": 100}, {"time": 49610, "pitch": 50, "duration": 110, "velocity": 100}, {"time": 49665, "pitch": 55, "duration": 55, "velocity": 100}, {"time": 49720, "pitch": 43, "duration": 275, "velocity": 100}, {"time": 49720, "pitch": 55, "duration": 110, "velocity": 100}, {"time": 49720, "pitch": 62, "duration": 110, "velocity": 100}, {"time": 49830, "pitch": 50, "duration": 165, "velocity": 100}, {"time": 49885, "pitch": 55, "duration": 55, "velocity": 100}, {"time": 49940, "pitch": 55, "duration": 55, "velocity": 100}, {"time": 50050, "pitch": 50, "duration": 110, "velocity": 100}, {"time": 50160, "pitch": 43, "duration": 275, "velocity": 100}, {"time": 50160, "pitch": 59, "duration": 110, "velocity": 100}, {"time": 50270, "pitch": 55, "duration": 110, "velocity": 100}, {"time": 50380, "pitch": 59, "duration": 55, "velocity": 100}, {"time": 50435, "pitch": 55, "duration": 55, "velocity": 100}, {"time": 50490, "pitch": 59, "duration": 55, "velocity": 100}, {"time": 50600, "pitch": 43, "duration": 330, "velocity": 100}, {"time": 50600, "pitch": 55, "duration": 55, "velocity": 100}, {"time": 50600, "pitch": 59, "duration": 110, "velocity": 100}, {"time": 50600, "pitch": 62, "duration": 165, "velocity": 100}, {"time": 50710, "pitch": 55, "duration": 110, "velocity": 100}, {"time": 50765, "pitch": 59, "duration": 55, "velocity": 100}, {"time": 50820, "pitch": 62, "duration": 110, "velocity": 100}, {"time": 50930, "pitch": 59, "duration": 55, "velocity": 100}, {"time": 51040, "pitch": 43, "duration": 385, "velocity": 100}, {"time": 51040, "pitch": 55, "duration": 55, "velocity": 100}, {"time": 51040, "pitch": 59, "duration": 110, "velocity": 100}, {"time": 51095, "pitch": 50, "duration": 220, "velocity": 100}, {"time": 51150, "pitch": 55, "duration": 55, "velocity": 100}, {"time": 51205, "pitch": 59, "duration": 110, "velocity": 100}, {"time": 51315, "pitch": 55, "duration": 55, "velocity": 100}, {"time": 51315, "pitch": 59, "duration": 55, "velocity": 100}, {"time": 51370, "pitch": 50, "duration": 110, "velocity": 100}, {"time": 51480, "pitch": 43, "duration": 275, "velocity": 100}, {"time": 51480, "pitch": 55, "duration": 110, "velocity": 100}, {"time": 51480, "pitch": 59, "duration": 165, "velocity": 100}, {"time": 51590, "pitch": 50, "duration": 165, "velocity": 100}, {"time": 51700, "pitch": 55, "duration": 55, "velocity": 100}, {"time": 51700, "pitch": 62, "duration": 55, "velocity": 100}, {"time": 51920, "pitch": 31, "duration": 275, "velocity": 100}, {"time": 51920, "pitch": 55, "duration": 110, "velocity": 100}, {"time": 51920, "pitch": 62, "duration": 220, "velocity": 100}, {"time": 52030, "pitch": 43, "duration": 220, "velocity": 100}, {"time": 52085, "pitch": 62, "duration": 110, "velocity": 100}, {"time": 52195, "pitch": 59, "duration": 55, "velocity": 100}, {"time": 52360, "pitch": 43, "duration": 330, "velocity": 100}, {"time": 52360, "pitch": 55, "duration": 55, "velocity": 100}, {"time": 52360, "pitch": 59, "duration": 110, "velocity": 100}, {"time": 52470, "pitch": 55, "duration": 110, "velocity": 100}, {"time": 52525, "pitch": 59, "duration": 55, "velocity": 100}, {"time": 52635, "pitch": 59, "duration": 55, "velocity": 100}, {"time": 52635, "pitch": 62, "duration": 55, "velocity": 100}, {"time": 52690, "pitch": 59, "duration": 110, "velocity": 100}, {"time": 52800, "pitch": 43, "duration": 330, "velocity": 100}, {"time": 52800, "pitch": 55, "duration": 110, "velocity": 100}, {"time": 52800, "pitch": 59, "duration": 220, "velocity": 100}, {"time": 52910, "pitch": 50, "duration": 110, "velocity": 100}, {"time": 52965, "pitch": 55, "duration": 110, "velocity": 100}, {"time": 53075, "pitch": 59, "duration": 110, "velocity": 100}, {"time": 53130, "pitch": 50, "duration": 55, "velocity": 100}, {"time": 53185, "pitch": 55, "duration": 165, "velocity": 100}, {"time": 53240, "pitch": 31, "duration": 440, "velocity": 100}, {"time": 53350, "pitch": 43, "duration": 275, "velocity": 100}, {"time": 53405, "pitch": 50, "duration": 55, "velocity": 100}, {"time": 53460, "pitch": 55, "duration": 55, "velocity": 100}, {"time": 53515, "pitch": 59, "duration": 110, "velocity": 100}, {"time": 53570, "pitch": 59, "duration": 110, "velocity": 100}, {"time": 53625, "pitch": 55, "duration": 55, "velocity": 100}, {"time": 53680, "pitch": 31, "duration": 165, "velocity": 100}, {"time": 53735, "pitch": 50, "duration": 110, "velocity": 100}, {"time": 53790, "pitch": 55, "duration": 55, "velocity": 100}, {"time": 53845, "pitch": 59, "duration": 55, "velocity": 100}, {"time": 53900, "pitch": 38, "duration": 220, "velocity": 100}, {"time": 53955, "pitch": 50, "duration": 110, "velocity": 100}, {"time": 54010, "pitch": 55, "duration": 110, "velocity": 100}, {"time": 54065, "pitch": 59, "duration": 55, "velocity": 100}, {"time": 54120, "pitch": 43, "duration": 275, "velocity": 100}, {"time": 54175, "pitch": 50, "duration": 55, "velocity": 100}, {"time": 54230, "pitch": 50, "duration": 110, "velocity": 100}, {"time": 54340, "pitch": 50, "duration": 55, "velocity": 100}, {"time": 54340, "pitch": 55, "duration": 55, "velocity": 100}, {"time": 54340, "pitch": 59, "duration": 110, "velocity": 100}, {"time": 54340, "pitch": 62, "duration": 220, "velocity": 100}, {"time": 54450, "pitch": 62, "duration": 110, "velocity": 100}, {"time": 54560, "pitch": 43, "duration": 275, "velocity": 100}, {"time": 54670, "pitch": 55, "duration": 55, "velocity": 100}, {"time": 54780, "pitch": 55, "duration": 55, "velocity": 100}, {"time": 54780, "pitch": 59, "duration": 110, "velocity": 100}, {"time": 54890, "pitch": 55, "duration": 55, "velocity": 100}, {"time": 54945, "pitch": 59, "duration": 55, "velocity": 100}, {"time": 55000, "pitch": 31, "duration": 275, "velocity": 100}, {"time": 55000, "pitch": 59, "duration": 220, "velocity": 100}, {"time": 55110, "pitch": 43, "duration": 110, "velocity": 100}, {"time": 55220, "pitch": 50, "duration": 55, "velocity": 100}, {"time": 55220, "pitch": 55, "duration": 110, "velocity": 100}, {"time": 55220, "pitch": 59, "duration": 220, "velocity": 100}, {"time": 55440, "pitch": 43, "duration": 385, "velocity": 100}, {"time": 55440, "pitch": 55, "duration": 110, "velocity": 100}, {"time": 55440, "pitch": 59, "duration": 165, "velocity": 100}, {"time": 55550, "pitch": 50, "duration": 110, "velocity": 100}, {"time": 55660, "pitch": 55, "duration": 55, "velocity": 100}, {"time": 55660, "pitch": 59, "duration": 55, "velocity": 100}, {"time": 55715, "pitch": 50, "duration": 110, "velocity": 100}, {"time": 55770, "pitch": 55, "duration": 55, "velocity": 100}, {"time": 55825, "pitch": 59, "duration": 55, "velocity": 100}, {"time": 55825, "pitch": 62, "duration": 55, "velocity": 100}, {"time": 55880, "pitch": 43, "duration": 275, "velocity": 100}, {"time": 55880, "pitch": 55, "duration": 110, "velocity": 100}, {"time": 55880, "pitch": 59, "duration": 110, "velocity": 100}, {"time": 55880, "pitch": 62, "duration": 110, "velocity": 100}, {"time": 55990, "pitch": 50, "duration": 165, "velocity": 100}, {"time": 56045, "pitch": 55, "duration": 55, "velocity": 100}, {"time": 56100, "pitch": 55, "duration": 55, "velocity": 100}, {"time": 56100, "pitch": 59, "duration": 55, "velocity": 100}, {"time": 56100, "pitch": 62, "duration": 55, "velocity": 100}, {"time": 56155, "pitch": 45, "duration": 55, "velocity": 100}, {"time": 56210, "pitch": 45, "duration": 55, "velocity": 100}, {"time": 56320, "pitch": 38, "duration": 385, "velocity": 100}, {"time": 56320, "pitch": 54, "duration": 55, "velocity": 100}, {"time": 56320, "pitch": 57, "duration": 110, "velocity": 100}, {"time": 56320, "pitch": 62, "duration": 110, "velocity": 100}, {"time": 56375, "pitch": 50, "duration": 330, "velocity": 100}, {"time": 56430, "pitch": 54, "duration": 55, "velocity": 100}, {"time": 56485, "pitch": 57, "duration": 55, "velocity": 100}, {"time": 56540, "pitch": 54, "duration": 55, "velocity": 100}, {"time": 56540, "pitch": 57, "duration": 55, "velocity": 100}, {"time": 56540, "pitch": 67, "duration": 220, "velocity": 100}, {"time": 56650, "pitch": 62, "duration": 55, "velocity": 100}, {"time": 56705, "pitch": 57, "duration": 55, "velocity": 100}, {"time": 56760, "pitch": 38, "duration": 275, "velocity": 100}, {"time": 56760, "pitch": 54, "duration": 110, "velocity": 100}, {"time": 56760, "pitch": 57, "duration": 110, "velocity": 100}, {"time": 56760, "pitch": 62, "duration": 110, "velocity": 100}, {"time": 56870, "pitch": 45, "duration": 165, "velocity": 100}, {"time": 56925, "pitch": 54, "duration": 55, "velocity": 100}, {"time": 56980, "pitch": 54, "duration": 55, "velocity": 100}, {"time": 56980, "pitch": 57, "duration": 55, "velocity": 100}, {"time": 56980, "pitch": 62, "duration": 55, "velocity": 100}, {"time": 56980, "pitch": 66, "duration": 55, "velocity": 100}, {"time": 57035, "pitch": 50, "duration": 55, "velocity": 100}, {"time": 57200, "pitch": 50, "duration": 330, "velocity": 100}, {"time": 57200, "pitch": 57, "duration": 55, "velocity": 100}, {"time": 57255, "pitch": 57, "duration": 55, "velocity": 100}, {"time": 57310, "pitch": 62, "duration": 55, "velocity": 100}, {"time": 57365, "pitch": 66, "duration": 55, "velocity": 100}, {"time": 57420, "pitch": 57, "duration": 55, "velocity": 100}, {"time": 57475, "pitch": 57, "duration": 55, "velocity": 100}, {"time": 57530, "pitch": 62, "duration": 55, "velocity": 100}, {"time": 57640, "pitch": 50, "duration": 275, "velocity": 100}, {"time": 57640, "pitch": 62, "duration": 110, "velocity": 100}, {"time": 57750, "pitch": 57, "duration": 110, "velocity": 100}, {"time": 57805, "pitch": 62, "duration": 55, "velocity": 100}, {"time": 57860, "pitch": 62, "duration": 55, "velocity": 100}, {"time": 57915, "pitch": 57, "duration": 55, "velocity": 100}, {"time": 57970, "pitch": 62, "duration": 55, "velocity": 100}, {"time": 58080, "pitch": 38, "duration": 275, "velocity": 100}, {"time": 58080, "pitch": 62, "duration": 110, "velocity": 100}, {"time": 58190, "pitch": 45, "duration": 110, "velocity": 100}, {"time": 58300, "pitch": 57, "duration": 55, "velocity": 100}, {"time": 58300, "pitch": 62, "duration": 110, "velocity": 100}, {"time": 58300, "pitch": 66, "duration": 110, "velocity": 100}, {"time": 58355, "pitch": 45, "duration": 55, "velocity": 100}, {"time": 58410, "pitch": 57, "duration": 55, "velocity": 100}, {"time": 58520, "pitch": 50, "duration": 275, "velocity": 100}, {"time": 58520, "pitch": 57, "duration": 110, "velocity": 100}, {"time": 58520, "pitch": 66, "duration": 110, "velocity": 100}, {"time": 58630, "pitch": 57, "duration": 165, "velocity": 100}, {"time": 58740, "pitch": 57, "duration": 55, "velocity": 100}, {"time": 58795, "pitch": 57, "duration": 55, "velocity": 100}, {"time": 58850, "pitch": 50, "duration": 55, "velocity": 100}, {"time": 58960, "pitch": 50, "duration": 275, "velocity": 100}, {"time": 58960, "pitch": 57, "duration": 110, "velocity": 100}, {"time": 58960, "pitch": 66, "duration": 110, "velocity": 100}, {"time": 59070, "pitch": 57, "duration": 110, "velocity": 100}, {"time": 59180, "pitch": 62, "duration": 55, "velocity": 100}, {"time": 59235, "pitch": 57, "duration": 55, "velocity": 100}, {"time": 59290, "pitch": 57, "duration": 55, "velocity": 100}, {"time": 59345, "pitch": 62, "duration": 55, "velocity": 100}, {"time": 59400, "pitch": 38, "duration": 275, "velocity": 100}, {"time": 59400, "pitch": 57, "duration": 55, "velocity": 100}, {"time": 59400, "pitch": 62, "duration": 55, "velocity": 100}, {"time": 59455, "pitch": 45, "duration": 110, "velocity": 100}, {"time": 59510, "pitch": 50, "duration": 55, "velocity": 100}, {"time": 59565, "pitch": 54, "duration": 55, "velocity": 100}, {"time": 59565, "pitch": 57, "duration": 55, "velocity": 100}, {"time": 59565, "pitch": 62, "duration": 55, "velocity": 100}, {"time": 59565, "pitch": 66, "duration": 55, "velocity": 100}, {"time": 59620, "pitch": 45, "duration": 55, "velocity": 100}, {"time": 59675, "pitch": 50, "duration": 55, "velocity": 100}, {"time": 59675, "pitch": 57, "duration": 110, "velocity": 100}, {"time": 59675, "pitch": 62, "duration": 110, "velocity": 100}, {"time": 59675, "pitch": 66, "duration": 55, "velocity": 100}, {"time": 59730, "pitch": 45, "duration": 55, "velocity": 100}, {"time": 59785, "pitch": 50, "duration": 55, "velocity": 100}, {"time": 59840, "pitch": 38, "duration": 275, "velocity": 100}, {"time": 59840, "pitch": 57, "duration": 55, "velocity": 100}, {"time": 59840, "pitch": 62, "duration": 110, "velocity": 100}, {"time": 59950, "pitch": 45, "duration": 110, "velocity": 100}, {"time": 60060, "pitch": 57, "duration": 55, "velocity": 100}, {"time": 60060, "pitch": 62, "duration": 55, "velocity": 100}, {"time": 60060, "pitch": 66, "duration": 55, "velocity": 100}, {"time": 60115, "pitch": 45, "duration": 55, "velocity": 100}, {"time": 60170, "pitch": 57, "duration": 55, "velocity": 100}, {"time": 60280, "pitch": 50, "duration": 275, "velocity": 100}, {"time": 60280, "pitch": 57, "duration": 55, "velocity": 100}, {"time": 60280, "pitch": 62, "duration": 55, "velocity": 100}, {"time": 60280, "pitch": 66, "duration": 165, "velocity": 100}, {"time": 60390, "pitch": 57, "duration": 110, "velocity": 100}, {"time": 60500, "pitch": 62, "duration": 55, "velocity": 100}, {"time": 60500, "pitch": 66, "duration": 55, "velocity": 100}, {"time": 60555, "pitch": 57, "duration": 55, "velocity": 100}, {"time": 60610, "pitch": 50, "duration": 55, "velocity": 100}, {"time": 60720, "pitch": 50, "duration": 275, "velocity": 100}, {"time": 60720, "pitch": 57, "duration": 55, "velocity": 100}, {"time": 60720, "pitch": 62, "duration": 110, "velocity": 100}, {"time": 60720, "pitch": 66, "duration": 110, "velocity": 100}, {"time": 60775, "pitch": 57, "duration": 55, "velocity": 100}, {"time": 60830, "pitch": 62, "duration": 55, "velocity": 100}, {"time": 60940, "pitch": 57, "duration": 55, "velocity": 100}, {"time": 60940, "pitch": 62, "duration": 55, "velocity": 100}, {"time": 60940, "pitch": 66, "duration": 110, "velocity": 100}, {"time": 61050, "pitch": 57, "duration": 110, "velocity": 100}, {"time": 61160, "pitch": 38, "duration": 55, "velocity": 100}, {"time": 61160, "pitch": 62, "duration": 385, "velocity": 100}, {"time": 61160, "pitch": 66, "duration": 440, "velocity": 100}, {"time": 61160, "pitch": 67, "duration": 165, "velocity": 100}, {"time": 61435, "pitch": 67, "duration": 55, "velocity": 100}, {"time": 61545, "pitch": 67, "duration": 55, "velocity": 100}, {"time": 61600, "pitch": 42, "duration": 715, "velocity": 100}, {"time": 61600, "pitch": 62, "duration": 165, "velocity": 100}, {"time": 61600, "pitch": 66, "duration": 110, "velocity": 100}, {"time": 61655, "pitch": 66, "duration": 220, "velocity": 100}, {"time": 61710, "pitch": 57, "duration": 165, "velocity": 100}, {"time": 61820, "pitch": 57, "duration": 55, "velocity": 100}, {"time": 61820, "pitch": 62, "duration": 110, "velocity": 100}, {"time": 61820, "pitch": 66, "duration": 110, "velocity": 100}, {"time": 61930, "pitch": 57, "duration": 55, "velocity": 100}, {"time": 62040, "pitch": 57, "duration": 55, "velocity": 100}, {"time": 62040, "pitch": 66, "duration": 55, "velocity": 100}, {"time": 62260, "pitch": 57, "duration": 55, "velocity": 100}, {"time": 62260, "pitch": 62, "duration": 55, "velocity": 100}, {"time": 62260, "pitch": 66, "duration": 55, "velocity": 100}, {"time": 62370, "pitch": 57, "duration": 55, "velocity": 100}, {"time": 62480, "pitch": 38, "duration": 330, "velocity": 100}, {"time": 62480, "pitch": 54, "duration": 110, "velocity": 100}, {"time": 62480, "pitch": 57, "duration": 110, "velocity": 100}, {"time": 62480, "pitch": 62, "duration": 110, "velocity": 100}, {"time": 62590, "pitch": 45, "duration": 275, "velocity": 100}, {"time": 62700, "pitch": 54, "duration": 55, "velocity": 100}, {"time": 62700, "pitch": 57, "duration": 55, "velocity": 100}, {"time": 62810, "pitch": 50, "duration": 55, "velocity": 100}, {"time": 62920, "pitch": 38, "duration": 440, "velocity": 100}, {"time": 62920, "pitch": 50, "duration": 110, "velocity": 100}, {"time": 62920, "pitch": 54, "duration": 110, "velocity": 100}, {"time": 62920, "pitch": 62, "duration": 110, "velocity": 100}, {"time": 62920, "pitch": 66, "duration": 110, "velocity": 100}, {"time": 62975, "pitch": 45, "duration": 330, "velocity": 100}, {"time": 63030, "pitch": 50, "duration": 220, "velocity": 100}, {"time": 63030, "pitch": 67, "duration": 165, "velocity": 100}, {"time": 63085, "pitch": 54, "duration": 55, "velocity": 100}, {"time": 63085, "pitch": 57, "duration": 110, "velocity": 100}, {"time": 63085, "pitch": 62, "duration": 165, "velocity": 100}, {"time": 63250, "pitch": 50, "duration": 110, "velocity": 100}, {"time": 63250, "pitch": 57, "duration": 110, "velocity": 100}, {"time": 63250, "pitch": 62, "duration": 110, "velocity": 100}, {"time": 63250, "pitch": 67, "duration": 110, "velocity": 100}, {"time": 63360, "pitch": 43, "duration": 55, "velocity": 100}, {"time": 63415, "pitch": 55, "duration": 220, "velocity": 100}, {"time": 63470, "pitch": 47, "duration": 275, "velocity": 100}, {"time": 63580, "pitch": 55, "duration": 220, "velocity": 100}, {"time": 63580, "pitch": 59, "duration": 110, "velocity": 100}, {"time": 63690, "pitch": 50, "duration": 110, "velocity": 100}, {"time": 63800, "pitch": 43, "duration": 330, "velocity": 100}, {"time": 63800, "pitch": 55, "duration": 165, "velocity": 100}, {"time": 63800, "pitch": 59, "duration": 165, "velocity": 100}, {"time": 63910, "pitch": 50, "duration": 165, "velocity": 100}, {"time": 64020, "pitch": 55, "duration": 110, "velocity": 100}, {"time": 64020, "pitch": 59, "duration": 220, "velocity": 100}, {"time": 64020, "pitch": 62, "duration": 165, "velocity": 100}, {"time": 64130, "pitch": 43, "duration": 110, "velocity": 100}, {"time": 64185, "pitch": 55, "duration": 55, "velocity": 100}, {"time": 64240, "pitch": 43, "duration": 275, "velocity": 100}, {"time": 64240, "pitch": 55, "duration": 110, "velocity": 100}, {"time": 64240, "pitch": 59, "duration": 110, "velocity": 100}, {"time": 64350, "pitch": 50, "duration": 165, "velocity": 100}, {"time": 64460, "pitch": 55, "duration": 110, "velocity": 100}, {"time": 64460, "pitch": 59, "duration": 110, "velocity": 100}, {"time": 64570, "pitch": 50, "duration": 110, "velocity": 100}, {"time": 64680, "pitch": 43, "duration": 275, "velocity": 100}, {"time": 64680, "pitch": 55, "duration": 110, "velocity": 100}, {"time": 64680, "pitch": 62, "duration": 110, "velocity": 100}, {"time": 64735, "pitch": 71, "duration": 220, "velocity": 100}, {"time": 64790, "pitch": 55, "duration": 110, "velocity": 100}, {"time": 64900, "pitch": 59, "duration": 55, "velocity": 100}, {"time": 64900, "pitch": 67, "duration": 55, "velocity": 100}, {"time": 64955, "pitch": 55, "duration": 55, "velocity": 100}, {"time": 65010, "pitch": 59, "duration": 55, "velocity": 100}, {"time": 65120, "pitch": 43, "duration": 330, "velocity": 100}, {"time": 65120, "pitch": 55, "duration": 55, "velocity": 100}, {"time": 65120, "pitch": 59, "duration": 110, "velocity": 100}, {"time": 65175, "pitch": 71, "duration": 165, "velocity": 100}, {"time": 65230, "pitch": 55, "duration": 110, "velocity": 100}, {"time": 65285, "pitch": 59, "duration": 55, "velocity": 100}, {"time": 65340, "pitch": 62, "duration": 55, "velocity": 100}, {"time": 65395, "pitch": 67, "duration": 55, "velocity": 100}, {"time": 65450, "pitch": 62, "duration": 55, "velocity": 100}, {"time": 65505, "pitch": 67, "duration": 55, "velocity": 100}, {"time": 65560, "pitch": 43, "duration": 385, "velocity": 100}, {"time": 65560, "pitch": 55, "duration": 55, "velocity": 100}, {"time": 65560, "pitch": 59, "duration": 110, "velocity": 100}, {"time": 65615, "pitch": 50, "duration": 275, "velocity": 100}, {"time": 65670, "pitch": 55, "duration": 55, "velocity": 100}, {"time": 65725, "pitch": 59, "duration": 110, "velocity": 100}, {"time": 65835, "pitch": 55, "duration": 55, "velocity": 100}, {"time": 65890, "pitch": 50, "duration": 110, "velocity": 100}, {"time": 65890, "pitch": 67, "duration": 55, "velocity": 100}, {"time": 65945, "pitch": 69, "duration": 55, "velocity": 100}, {"time": 66000, "pitch": 43, "duration": 275, "velocity": 100}, {"time": 66000, "pitch": 55, "duration": 165, "velocity": 100}, {"time": 66000, "pitch": 59, "duration": 165, "velocity": 100}, {"time": 66110, "pitch": 50, "duration": 165, "velocity": 100}, {"time": 66220, "pitch": 55, "duration": 110, "velocity": 100}, {"time": 66220, "pitch": 62, "duration": 165, "velocity": 100}, {"time": 66440, "pitch": 36, "duration": 275, "velocity": 100}]}, {"program": 48, "is_drum": false, "name": "Strings"}, {"program": 61, "is_drum": false, "name": "Brass"}, {"program": 0, "is_drum": false, "name": "Piano", "notes": [{"time": 495, "pitch": 74, "duration": 220, "velocity": 100}, {"time": 715, "pitch": 74, "duration": 220, "velocity": 100}, {"time": 935, "pitch": 71, "duration": 165, "velocity": 100}, {"time": 1100, "pitch": 74, "duration": 55, "velocity": 100}, {"time": 1155, "pitch": 71, "duration": 165, "velocity": 100}, {"time": 1320, "pitch": 67, "duration": 165, "velocity": 100}, {"time": 1485, "pitch": 71, "duration": 55, "velocity": 100}, {"time": 1540, "pitch": 67, "duration": 220, "velocity": 100}, {"time": 2255, "pitch": 74, "duration": 220, "velocity": 100}, {"time": 2475, "pitch": 72, "duration": 55, "velocity": 100}, {"time": 2530, "pitch": 74, "duration": 110, "velocity": 100}, {"time": 2640, "pitch": 76, "duration": 55, "velocity": 100}, {"time": 2695, "pitch": 74, "duration": 220, "velocity": 100}, {"time": 3135, "pitch": 71, "duration": 275, "velocity": 100}, {"time": 3410, "pitch": 69, "duration": 55, "velocity": 100}, {"time": 3465, "pitch": 71, "duration": 55, "velocity": 100}, {"time": 3520, "pitch": 72, "duration": 55, "velocity": 100}, {"time": 3575, "pitch": 71, "duration": 220, "velocity": 100}, {"time": 3960, "pitch": 74, "duration": 220, "velocity": 100}, {"time": 4180, "pitch": 78, "duration": 55, "velocity": 100}, {"time": 4235, "pitch": 76, "duration": 55, "velocity": 100}, {"time": 4290, "pitch": 74, "duration": 110, "velocity": 100}, {"time": 4400, "pitch": 76, "duration": 110, "velocity": 100}, {"time": 4510, "pitch": 78, "duration": 110, "velocity": 100}, {"time": 4620, "pitch": 79, "duration": 110, "velocity": 100}, {"time": 4730, "pitch": 78, "duration": 110, "velocity": 100}, {"time": 4840, "pitch": 76, "duration": 165, "velocity": 100}, {"time": 5005, "pitch": 74, "duration": 110, "velocity": 100}, {"time": 5115, "pitch": 72, "duration": 110, "velocity": 100}, {"time": 5225, "pitch": 72, "duration": 55, "velocity": 100}, {"time": 5280, "pitch": 74, "duration": 55, "velocity": 100}, {"time": 5335, "pitch": 72, "duration": 55, "velocity": 100}, {"time": 5390, "pitch": 71, "duration": 55, "velocity": 100}, {"time": 5445, "pitch": 72, "duration": 55, "velocity": 100}, {"time": 5500, "pitch": 71, "duration": 220, "velocity": 100}, {"time": 5720, "pitch": 71, "duration": 165, "velocity": 100}, {"time": 5885, "pitch": 69, "duration": 110, "velocity": 100}, {"time": 5995, "pitch": 72, "duration": 165, "velocity": 100}, {"time": 6160, "pitch": 71, "duration": 110, "velocity": 100}, {"time": 6270, "pitch": 69, "duration": 110, "velocity": 100}, {"time": 6380, "pitch": 76, "duration": 220, "velocity": 100}, {"time": 6600, "pitch": 67, "duration": 275, "velocity": 100}, {"time": 6875, "pitch": 67, "duration": 165, "velocity": 100}, {"time": 7040, "pitch": 66, "duration": 220, "velocity": 100}, {"time": 7370, "pitch": 81, "duration": 110, "velocity": 100}, {"time": 7535, "pitch": 81, "duration": 165, "velocity": 100}, {"time": 7755, "pitch": 81, "duration": 165, "velocity": 100}, {"time": 7975, "pitch": 81, "duration": 165, "velocity": 100}, {"time": 8195, "pitch": 81, "duration": 165, "velocity": 100}, {"time": 8470, "pitch": 81, "duration": 110, "velocity": 100}, {"time": 8580, "pitch": 79, "duration": 110, "velocity": 100}, {"time": 8690, "pitch": 81, "duration": 55, "velocity": 100}, {"time": 8745, "pitch": 79, "duration": 55, "velocity": 100}, {"time": 8855, "pitch": 78, "duration": 220, "velocity": 100}, {"time": 9075, "pitch": 76, "duration": 110, "velocity": 100}, {"time": 9185, "pitch": 78, "duration": 55, "velocity": 100}, {"time": 9240, "pitch": 76, "duration": 110, "velocity": 100}, {"time": 9350, "pitch": 74, "duration": 220, "velocity": 100}, {"time": 9570, "pitch": 73, "duration": 55, "velocity": 100}, {"time": 9625, "pitch": 71, "duration": 55, "velocity": 100}, {"time": 9680, "pitch": 69, "duration": 55, "velocity": 100}, {"time": 9735, "pitch": 74, "duration": 220, "velocity": 100}, {"time": 10065, "pitch": 79, "duration": 110, "velocity": 100}, {"time": 10230, "pitch": 79, "duration": 110, "velocity": 100}, {"time": 10450, "pitch": 79, "duration": 110, "velocity": 100}, {"time": 10670, "pitch": 79, "duration": 165, "velocity": 100}, {"time": 10945, "pitch": 79, "duration": 110, "velocity": 100}, {"time": 11165, "pitch": 79, "duration": 110, "velocity": 100}, {"time": 11275, "pitch": 78, "duration": 110, "velocity": 100}, {"time": 11385, "pitch": 76, "duration": 55, "velocity": 100}, {"time": 11440, "pitch": 74, "duration": 55, "velocity": 100}, {"time": 11495, "pitch": 73, "duration": 55, "velocity": 100}, {"time": 11550, "pitch": 71, "duration": 110, "velocity": 100}, {"time": 11660, "pitch": 69, "duration": 55, "velocity": 100}, {"time": 11715, "pitch": 76, "duration": 55, "velocity": 100}, {"time": 11770, "pitch": 78, "duration": 55, "velocity": 100}, {"time": 11825, "pitch": 76, "duration": 55, "velocity": 100}, {"time": 11880, "pitch": 78, "duration": 55, "velocity": 100}, {"time": 11935, "pitch": 76, "duration": 55, "velocity": 100}, {"time": 11990, "pitch": 74, "duration": 55, "velocity": 100}, {"time": 12045, "pitch": 76, "duration": 55, "velocity": 100}, {"time": 12100, "pitch": 74, "duration": 220, "velocity": 100}, {"time": 12375, "pitch": 86, "duration": 220, "velocity": 100}, {"time": 12595, "pitch": 85, "duration": 220, "velocity": 100}, {"time": 12815, "pitch": 83, "duration": 275, "velocity": 100}, {"time": 13090, "pitch": 81, "duration": 165, "velocity": 100}, {"time": 13255, "pitch": 83, "duration": 55, "velocity": 100}, {"time": 13310, "pitch": 81, "duration": 110, "velocity": 100}, {"time": 13420, "pitch": 79, "duration": 55, "velocity": 100}, {"time": 13475, "pitch": 78, "duration": 165, "velocity": 100}, {"time": 13640, "pitch": 76, "duration": 55, "velocity": 100}, {"time": 13695, "pitch": 78, "duration": 55, "velocity": 100}, {"time": 13750, "pitch": 76, "duration": 55, "velocity": 100}, {"time": 13805, "pitch": 76, "duration": 55, "velocity": 100}, {"time": 13860, "pitch": 74, "duration": 220, "velocity": 100}, {"time": 14630, "pitch": 74, "duration": 165, "velocity": 100}, {"time": 14795, "pitch": 79, "duration": 55, "velocity": 100}, {"time": 14850, "pitch": 74, "duration": 165, "velocity": 100}, {"time": 15015, "pitch": 71, "duration": 165, "velocity": 100}, {"time": 15180, "pitch": 74, "duration": 55, "velocity": 100}, {"time": 15235, "pitch": 71, "duration": 165, "velocity": 100}, {"time": 15400, "pitch": 67, "duration": 165, "velocity": 100}, {"time": 15565, "pitch": 71, "duration": 55, "velocity": 100}, {"time": 15620, "pitch": 67, "duration": 220, "velocity": 100}, {"time": 16335, "pitch": 74, "duration": 220, "velocity": 100}, {"time": 16555, "pitch": 72, "duration": 55, "velocity": 100}, {"time": 16610, "pitch": 74, "duration": 55, "velocity": 100}, {"time": 16665, "pitch": 76, "duration": 110, "velocity": 100}, {"time": 16775, "pitch": 74, "duration": 165, "velocity": 100}, {"time": 17105, "pitch": 71, "duration": 220, "velocity": 100}, {"time": 17325, "pitch": 69, "duration": 55, "velocity": 100}, {"time": 17380, "pitch": 71, "duration": 110, "velocity": 100}, {"time": 17490, "pitch": 72, "duration": 55, "velocity": 100}, {"time": 17545, "pitch": 71, "duration": 55, "velocity": 100}, {"time": 17985, "pitch": 74, "duration": 275, "velocity": 100}, {"time": 18260, "pitch": 76, "duration": 55, "velocity": 100}, {"time": 18315, "pitch": 76, "duration": 55, "velocity": 100}, {"time": 18370, "pitch": 74, "duration": 110, "velocity": 100}, {"time": 18480, "pitch": 76, "duration": 110, "velocity": 100}, {"time": 18590, "pitch": 78, "duration": 165, "velocity": 100}, {"time": 18755, "pitch": 79, "duration": 110, "velocity": 100}, {"time": 18865, "pitch": 78, "duration": 110, "velocity": 100}, {"time": 18975, "pitch": 76, "duration": 110, "velocity": 100}, {"time": 19085, "pitch": 74, "duration": 110, "velocity": 100}, {"time": 19195, "pitch": 72, "duration": 110, "velocity": 100}, {"time": 19305, "pitch": 74, "duration": 55, "velocity": 100}, {"time": 19360, "pitch": 72, "duration": 55, "velocity": 100}, {"time": 19415, "pitch": 72, "duration": 55, "velocity": 100}, {"time": 19470, "pitch": 71, "duration": 55, "velocity": 100}, {"time": 19525, "pitch": 72, "duration": 55, "velocity": 100}, {"time": 19580, "pitch": 71, "duration": 220, "velocity": 100}, {"time": 19800, "pitch": 71, "duration": 220, "velocity": 100}, {"time": 20020, "pitch": 69, "duration": 110, "velocity": 100}, {"time": 20130, "pitch": 72, "duration": 110, "velocity": 100}, {"time": 20240, "pitch": 71, "duration": 110, "velocity": 100}, {"time": 20350, "pitch": 69, "duration": 110, "velocity": 100}, {"time": 20460, "pitch": 76, "duration": 220, "velocity": 100}, {"time": 20680, "pitch": 67, "duration": 275, "velocity": 100}, {"time": 20955, "pitch": 67, "duration": 165, "velocity": 100}, {"time": 21175, "pitch": 66, "duration": 165, "velocity": 100}, {"time": 21450, "pitch": 81, "duration": 110, "velocity": 100}, {"time": 21670, "pitch": 81, "duration": 110, "velocity": 100}, {"time": 21835, "pitch": 81, "duration": 165, "velocity": 100}, {"time": 22110, "pitch": 81, "duration": 110, "velocity": 100}, {"time": 22330, "pitch": 81, "duration": 110, "velocity": 100}, {"time": 22550, "pitch": 81, "duration": 165, "velocity": 100}, {"time": 22715, "pitch": 79, "duration": 55, "velocity": 100}, {"time": 22770, "pitch": 81, "duration": 55, "velocity": 100}, {"time": 22825, "pitch": 79, "duration": 55, "velocity": 100}, {"time": 22880, "pitch": 78, "duration": 220, "velocity": 100}, {"time": 23100, "pitch": 76, "duration": 55, "velocity": 100}, {"time": 23155, "pitch": 78, "duration": 55, "velocity": 100}, {"time": 23210, "pitch": 76, "duration": 110, "velocity": 100}, {"time": 23320, "pitch": 74, "duration": 165, "velocity": 100}, {"time": 23485, "pitch": 73, "duration": 110, "velocity": 100}, {"time": 23595, "pitch": 71, "duration": 55, "velocity": 100}, {"time": 23650, "pitch": 69, "duration": 55, "velocity": 100}, {"time": 23705, "pitch": 74, "duration": 275, "velocity": 100}, {"time": 24090, "pitch": 79, "duration": 110, "velocity": 100}, {"time": 24310, "pitch": 79, "duration": 165, "velocity": 100}, {"time": 24530, "pitch": 79, "duration": 110, "velocity": 100}, {"time": 24805, "pitch": 79, "duration": 110, "velocity": 100}, {"time": 25025, "pitch": 79, "duration": 110, "velocity": 100}, {"time": 25245, "pitch": 79, "duration": 165, "velocity": 100}, {"time": 25410, "pitch": 78, "duration": 55, "velocity": 100}, {"time": 25465, "pitch": 76, "duration": 55, "velocity": 100}, {"time": 25520, "pitch": 74, "duration": 55, "velocity": 100}, {"time": 25575, "pitch": 73, "duration": 110, "velocity": 100}, {"time": 25685, "pitch": 71, "duration": 55, "velocity": 100}, {"time": 25740, "pitch": 69, "duration": 55, "velocity": 100}, {"time": 25795, "pitch": 76, "duration": 55, "velocity": 100}, {"time": 25850, "pitch": 78, "duration": 55, "velocity": 100}, {"time": 25905, "pitch": 76, "duration": 110, "velocity": 100}, {"time": 26015, "pitch": 78, "duration": 55, "velocity": 100}, {"time": 26070, "pitch": 74, "duration": 55, "velocity": 100}, {"time": 26125, "pitch": 76, "duration": 55, "velocity": 100}, {"time": 26180, "pitch": 74, "duration": 220, "velocity": 100}, {"time": 26400, "pitch": 86, "duration": 220, "velocity": 100}, {"time": 26620, "pitch": 85, "duration": 165, "velocity": 100}, {"time": 26785, "pitch": 83, "duration": 220, "velocity": 100}, {"time": 27005, "pitch": 81, "duration": 220, "velocity": 100}, {"time": 27225, "pitch": 83, "duration": 110, "velocity": 100}, {"time": 27335, "pitch": 81, "duration": 55, "velocity": 100}, {"time": 27390, "pitch": 79, "duration": 110, "velocity": 100}, {"time": 27500, "pitch": 78, "duration": 220, "velocity": 100}, {"time": 27720, "pitch": 76, "duration": 55, "velocity": 100}, {"time": 27775, "pitch": 78, "duration": 55, "velocity": 100}, {"time": 27830, "pitch": 76, "duration": 55, "velocity": 100}, {"time": 27885, "pitch": 74, "duration": 55, "velocity": 100}, {"time": 27940, "pitch": 74, "duration": 220, "velocity": 100}, {"time": 28655, "pitch": 74, "duration": 165, "velocity": 100}, {"time": 28820, "pitch": 78, "duration": 55, "velocity": 100}, {"time": 28875, "pitch": 74, "duration": 220, "velocity": 100}, {"time": 29150, "pitch": 84, "duration": 110, "velocity": 100}, {"time": 29370, "pitch": 78, "duration": 110, "velocity": 100}, {"time": 29535, "pitch": 81, "duration": 165, "velocity": 100}, {"time": 29755, "pitch": 79, "duration": 165, "velocity": 100}, {"time": 29920, "pitch": 83, "duration": 110, "velocity": 100}, {"time": 30030, "pitch": 74, "duration": 110, "velocity": 100}, {"time": 30140, "pitch": 72, "duration": 110, "velocity": 100}, {"time": 30250, "pitch": 74, "duration": 55, "velocity": 100}, {"time": 30305, "pitch": 76, "duration": 110, "velocity": 100}, {"time": 30415, "pitch": 69, "duration": 55, "velocity": 100}, {"time": 30470, "pitch": 71, "duration": 110, "velocity": 100}, {"time": 30580, "pitch": 72, "duration": 55, "velocity": 100}, {"time": 30635, "pitch": 71, "duration": 55, "velocity": 100}, {"time": 30690, "pitch": 72, "duration": 110, "velocity": 100}, {"time": 30800, "pitch": 74, "duration": 55, "velocity": 100}, {"time": 30855, "pitch": 72, "duration": 55, "velocity": 100}, {"time": 30910, "pitch": 74, "duration": 55, "velocity": 100}, {"time": 30965, "pitch": 76, "duration": 110, "velocity": 100}, {"time": 31075, "pitch": 74, "duration": 165, "velocity": 100}, {"time": 31240, "pitch": 74, "duration": 165, "velocity": 100}, {"time": 31405, "pitch": 79, "duration": 55, "velocity": 100}, {"time": 31460, "pitch": 74, "duration": 220, "velocity": 100}, {"time": 31680, "pitch": 66, "duration": 275, "velocity": 100}, {"time": 31955, "pitch": 67, "duration": 220, "velocity": 100}, {"time": 32175, "pitch": 69, "duration": 220, "velocity": 100}, {"time": 32395, "pitch": 71, "duration": 220, "velocity": 100}, {"time": 32615, "pitch": 72, "duration": 55, "velocity": 100}, {"time": 32670, "pitch": 72, "duration": 55, "velocity": 100}, {"time": 32725, "pitch": 71, "duration": 55, "velocity": 100}, {"time": 32780, "pitch": 74, "duration": 220, "velocity": 100}, {"time": 33000, "pitch": 79, "duration": 165, "velocity": 100}, {"time": 33165, "pitch": 83, "duration": 55, "velocity": 100}, {"time": 33220, "pitch": 79, "duration": 220, "velocity": 100}, {"time": 33440, "pitch": 71, "duration": 275, "velocity": 100}, {"time": 33715, "pitch": 72, "duration": 220, "velocity": 100}, {"time": 33935, "pitch": 74, "duration": 220, "velocity": 100}, {"time": 34155, "pitch": 76, "duration": 220, "velocity": 100}, {"time": 34375, "pitch": 79, "duration": 55, "velocity": 100}, {"time": 34430, "pitch": 77, "duration": 55, "velocity": 100}, {"time": 34485, "pitch": 77, "duration": 55, "velocity": 100}, {"time": 34540, "pitch": 79, "duration": 220, "velocity": 100}, {"time": 34760, "pitch": 76, "duration": 165, "velocity": 100}, {"time": 34925, "pitch": 79, "duration": 55, "velocity": 100}, {"time": 34980, "pitch": 74, "duration": 220, "velocity": 100}, {"time": 35200, "pitch": 72, "duration": 55, "velocity": 100}, {"time": 35255, "pitch": 74, "duration": 55, "velocity": 100}, {"time": 35310, "pitch": 72, "duration": 110, "velocity": 100}, {"time": 35420, "pitch": 71, "duration": 220, "velocity": 100}, {"time": 35640, "pitch": 74, "duration": 55, "velocity": 100}, {"time": 35695, "pitch": 72, "duration": 110, "velocity": 100}, {"time": 35805, "pitch": 71, "duration": 55, "velocity": 100}, {"time": 35860, "pitch": 69, "duration": 275, "velocity": 100}, {"time": 36135, "pitch": 72, "duration": 55, "velocity": 100}, {"time": 36190, "pitch": 71, "duration": 55, "velocity": 100}, {"time": 36245, "pitch": 69, "duration": 110, "velocity": 100}, {"time": 36355, "pitch": 76, "duration": 220, "velocity": 100}, {"time": 36575, "pitch": 67, "duration": 165, "velocity": 100}, {"time": 36795, "pitch": 67, "duration": 110, "velocity": 100}, {"time": 36905, "pitch": 69, "duration": 55, "velocity": 100}, {"time": 36960, "pitch": 67, "duration": 110, "velocity": 100}, {"time": 37070, "pitch": 66, "duration": 220, "velocity": 100}, {"time": 37510, "pitch": 74, "duration": 165, "velocity": 100}, {"time": 37675, "pitch": 74, "duration": 220, "velocity": 100}, {"time": 37895, "pitch": 71, "duration": 165, "velocity": 100}, {"time": 38060, "pitch": 74, "duration": 55, "velocity": 100}, {"time": 38115, "pitch": 71, "duration": 165, "velocity": 100}, {"time": 38280, "pitch": 67, "duration": 165, "velocity": 100}, {"time": 38445, "pitch": 71, "duration": 55, "velocity": 100}, {"time": 38500, "pitch": 67, "duration": 220, "velocity": 100}, {"time": 39215, "pitch": 74, "duration": 220, "velocity": 100}, {"time": 39435, "pitch": 72, "duration": 55, "velocity": 100}, {"time": 39490, "pitch": 74, "duration": 110, "velocity": 100}, {"time": 39600, "pitch": 76, "duration": 55, "velocity": 100}, {"time": 39655, "pitch": 74, "duration": 275, "velocity": 100}, {"time": 40150, "pitch": 71, "duration": 220, "velocity": 100}, {"time": 40370, "pitch": 69, "duration": 55, "velocity": 100}, {"time": 40425, "pitch": 71, "duration": 55, "velocity": 100}, {"time": 40480, "pitch": 72, "duration": 55, "velocity": 100}, {"time": 40535, "pitch": 71, "duration": 220, "velocity": 100}, {"time": 40920, "pitch": 74, "duration": 220, "velocity": 100}, {"time": 41140, "pitch": 78, "duration": 55, "velocity": 100}, {"time": 41195, "pitch": 76, "duration": 55, "velocity": 100}, {"time": 41250, "pitch": 74, "duration": 110, "velocity": 100}, {"time": 41360, "pitch": 76, "duration": 110, "velocity": 100}, {"time": 41470, "pitch": 78, "duration": 110, "velocity": 100}, {"time": 41580, "pitch": 79, "duration": 110, "velocity": 100}, {"time": 41690, "pitch": 78, "duration": 165, "velocity": 100}, {"time": 41855, "pitch": 76, "duration": 110, "velocity": 100}, {"time": 41965, "pitch": 74, "duration": 110, "velocity": 100}, {"time": 42075, "pitch": 72, "duration": 110, "velocity": 100}, {"time": 42185, "pitch": 74, "duration": 55, "velocity": 100}, {"time": 42240, "pitch": 74, "duration": 55, "velocity": 100}, {"time": 42295, "pitch": 72, "duration": 55, "velocity": 100}, {"time": 42350, "pitch": 71, "duration": 55, "velocity": 100}, {"time": 42405, "pitch": 72, "duration": 55, "velocity": 100}, {"time": 42460, "pitch": 71, "duration": 220, "velocity": 100}, {"time": 42680, "pitch": 71, "duration": 220, "velocity": 100}, {"time": 42900, "pitch": 69, "duration": 110, "velocity": 100}, {"time": 43010, "pitch": 72, "duration": 110, "velocity": 100}, {"time": 43120, "pitch": 71, "duration": 110, "velocity": 100}, {"time": 43230, "pitch": 69, "duration": 110, "velocity": 100}, {"time": 43340, "pitch": 76, "duration": 220, "velocity": 100}, {"time": 43560, "pitch": 67, "duration": 275, "velocity": 100}, {"time": 43835, "pitch": 67, "duration": 165, "velocity": 100}, {"time": 44055, "pitch": 66, "duration": 165, "velocity": 100}, {"time": 44330, "pitch": 86, "duration": 110, "velocity": 100}, {"time": 44495, "pitch": 86, "duration": 165, "velocity": 100}, {"time": 44715, "pitch": 86, "duration": 165, "velocity": 100}, {"time": 44935, "pitch": 86, "duration": 165, "velocity": 100}, {"time": 45210, "pitch": 86, "duration": 110, "velocity": 100}, {"time": 45430, "pitch": 86, "duration": 165, "velocity": 100}, {"time": 45595, "pitch": 84, "duration": 55, "velocity": 100}, {"time": 45650, "pitch": 86, "duration": 55, "velocity": 100}, {"time": 45705, "pitch": 84, "duration": 55, "velocity": 100}, {"time": 45760, "pitch": 83, "duration": 220, "velocity": 100}, {"time": 45980, "pitch": 81, "duration": 55, "velocity": 100}, {"time": 46035, "pitch": 83, "duration": 55, "velocity": 100}, {"time": 46090, "pitch": 81, "duration": 110, "velocity": 100}, {"time": 46200, "pitch": 79, "duration": 165, "velocity": 100}, {"time": 46365, "pitch": 78, "duration": 55, "velocity": 100}, {"time": 46420, "pitch": 76, "duration": 110, "velocity": 100}, {"time": 46530, "pitch": 74, "duration": 55, "velocity": 100}, {"time": 46585, "pitch": 79, "duration": 275, "velocity": 100}, {"time": 46970, "pitch": 84, "duration": 110, "velocity": 100}, {"time": 47190, "pitch": 84, "duration": 165, "velocity": 100}, {"time": 47410, "pitch": 84, "duration": 110, "velocity": 100}, {"time": 47630, "pitch": 84, "duration": 165, "velocity": 100}, {"time": 47905, "pitch": 84, "duration": 110, "velocity": 100}, {"time": 48125, "pitch": 84, "duration": 165, "velocity": 100}, {"time": 48290, "pitch": 83, "duration": 55, "velocity": 100}, {"time": 48345, "pitch": 81, "duration": 55, "velocity": 100}, {"time": 48400, "pitch": 79, "duration": 55, "velocity": 100}, {"time": 48455, "pitch": 78, "duration": 55, "velocity": 100}, {"time": 48510, "pitch": 76, "duration": 110, "velocity": 100}, {"time": 48620, "pitch": 74, "duration": 55, "velocity": 100}, {"time": 48675, "pitch": 81, "duration": 55, "velocity": 100}, {"time": 48730, "pitch": 83, "duration": 55, "velocity": 100}, {"time": 48785, "pitch": 81, "duration": 55, "velocity": 100}, {"time": 48840, "pitch": 83, "duration": 55, "velocity": 100}, {"time": 48895, "pitch": 81, "duration": 55, "velocity": 100}, {"time": 48950, "pitch": 79, "duration": 55, "velocity": 100}, {"time": 49005, "pitch": 81, "duration": 55, "velocity": 100}, {"time": 49060, "pitch": 79, "duration": 220, "velocity": 100}, {"time": 49335, "pitch": 79, "duration": 220, "velocity": 100}, {"time": 49555, "pitch": 78, "duration": 275, "velocity": 100}, {"time": 49830, "pitch": 76, "duration": 220, "velocity": 100}, {"time": 50050, "pitch": 74, "duration": 165, "velocity": 100}, {"time": 50215, "pitch": 76, "duration": 110, "velocity": 100}, {"time": 50325, "pitch": 74, "duration": 55, "velocity": 100}, {"time": 50380, "pitch": 72, "duration": 55, "velocity": 100}, {"time": 50435, "pitch": 71, "duration": 165, "velocity": 100}, {"time": 50600, "pitch": 69, "duration": 55, "velocity": 100}, {"time": 50655, "pitch": 71, "duration": 55, "velocity": 100}, {"time": 50710, "pitch": 69, "duration": 55, "velocity": 100}, {"time": 50765, "pitch": 67, "duration": 55, "velocity": 100}, {"time": 50820, "pitch": 67, "duration": 220, "velocity": 100}, {"time": 51095, "pitch": 79, "duration": 165, "velocity": 100}, {"time": 51260, "pitch": 78, "duration": 220, "velocity": 100}, {"time": 51480, "pitch": 76, "duration": 220, "velocity": 100}, {"time": 51700, "pitch": 74, "duration": 220, "velocity": 100}, {"time": 51920, "pitch": 76, "duration": 110, "velocity": 100}, {"time": 52030, "pitch": 74, "duration": 55, "velocity": 100}, {"time": 52085, "pitch": 72, "duration": 55, "velocity": 100}, {"time": 52140, "pitch": 71, "duration": 275, "velocity": 100}, {"time": 52415, "pitch": 71, "duration": 55, "velocity": 100}, {"time": 52470, "pitch": 69, "duration": 55, "velocity": 100}, {"time": 52525, "pitch": 67, "duration": 55, "velocity": 100}, {"time": 52580, "pitch": 69, "duration": 55, "velocity": 100}, {"time": 52635, "pitch": 67, "duration": 165, "velocity": 100}, {"time": 53295, "pitch": 74, "duration": 110, "velocity": 100}, {"time": 53405, "pitch": 78, "duration": 55, "velocity": 100}, {"time": 53460, "pitch": 74, "duration": 275, "velocity": 100}, {"time": 53790, "pitch": 84, "duration": 165, "velocity": 100}, {"time": 54065, "pitch": 78, "duration": 110, "velocity": 100}, {"time": 54285, "pitch": 81, "duration": 165, "velocity": 100}, {"time": 54505, "pitch": 79, "duration": 55, "velocity": 100}, {"time": 54615, "pitch": 83, "duration": 110, "velocity": 100}, {"time": 54725, "pitch": 74, "duration": 110, "velocity": 100}, {"time": 54835, "pitch": 72, "duration": 55, "velocity": 100}, {"time": 54890, "pitch": 74, "duration": 55, "velocity": 100}, {"time": 54945, "pitch": 76, "duration": 110, "velocity": 100}, {"time": 55055, "pitch": 69, "duration": 55, "velocity": 100}, {"time": 55110, "pitch": 71, "duration": 55, "velocity": 100}, {"time": 55165, "pitch": 72, "duration": 55, "velocity": 100}, {"time": 55220, "pitch": 71, "duration": 110, "velocity": 100}, {"time": 55330, "pitch": 72, "duration": 55, "velocity": 100}, {"time": 55385, "pitch": 74, "duration": 55, "velocity": 100}, {"time": 55440, "pitch": 72, "duration": 55, "velocity": 100}, {"time": 55495, "pitch": 74, "duration": 110, "velocity": 100}, {"time": 55605, "pitch": 76, "duration": 55, "velocity": 100}, {"time": 55660, "pitch": 74, "duration": 220, "velocity": 100}, {"time": 55880, "pitch": 74, "duration": 110, "velocity": 100}, {"time": 55990, "pitch": 79, "duration": 55, "velocity": 100}, {"time": 56045, "pitch": 74, "duration": 275, "velocity": 100}, {"time": 56320, "pitch": 66, "duration": 220, "velocity": 100}, {"time": 56540, "pitch": 67, "duration": 220, "velocity": 100}, {"time": 56760, "pitch": 69, "duration": 275, "velocity": 100}, {"time": 57035, "pitch": 71, "duration": 165, "velocity": 100}, {"time": 57200, "pitch": 72, "duration": 55, "velocity": 100}, {"time": 57255, "pitch": 74, "duration": 55, "velocity": 100}, {"time": 57310, "pitch": 71, "duration": 55, "velocity": 100}, {"time": 57365, "pitch": 72, "duration": 55, "velocity": 100}, {"time": 57420, "pitch": 74, "duration": 165, "velocity": 100}, {"time": 57585, "pitch": 79, "duration": 165, "velocity": 100}, {"time": 57750, "pitch": 83, "duration": 55, "velocity": 100}, {"time": 57805, "pitch": 79, "duration": 220, "velocity": 100}, {"time": 58025, "pitch": 71, "duration": 55, "velocity": 100}, {"time": 58300, "pitch": 72, "duration": 220, "velocity": 100}, {"time": 58520, "pitch": 74, "duration": 220, "velocity": 100}, {"time": 58740, "pitch": 76, "duration": 275, "velocity": 100}, {"time": 59015, "pitch": 79, "duration": 55, "velocity": 100}, {"time": 59070, "pitch": 77, "duration": 55, "velocity": 100}, {"time": 59125, "pitch": 76, "duration": 55, "velocity": 100}, {"time": 59180, "pitch": 77, "duration": 55, "velocity": 100}, {"time": 59235, "pitch": 79, "duration": 220, "velocity": 100}, {"time": 59455, "pitch": 76, "duration": 165, "velocity": 100}, {"time": 59620, "pitch": 79, "duration": 55, "velocity": 100}, {"time": 59675, "pitch": 74, "duration": 165, "velocity": 100}, {"time": 59895, "pitch": 72, "duration": 55, "velocity": 100}, {"time": 59950, "pitch": 74, "duration": 55, "velocity": 100}, {"time": 60005, "pitch": 72, "duration": 55, "velocity": 100}, {"time": 60060, "pitch": 71, "duration": 220, "velocity": 100}, {"time": 60280, "pitch": 74, "duration": 55, "velocity": 100}, {"time": 60335, "pitch": 72, "duration": 55, "velocity": 100}, {"time": 60390, "pitch": 71, "duration": 110, "velocity": 100}, {"time": 60500, "pitch": 69, "duration": 220, "velocity": 100}, {"time": 60720, "pitch": 72, "duration": 55, "velocity": 100}, {"time": 60775, "pitch": 71, "duration": 55, "velocity": 100}, {"time": 60830, "pitch": 69, "duration": 110, "velocity": 100}, {"time": 60940, "pitch": 76, "duration": 220, "velocity": 100}, {"time": 61160, "pitch": 67, "duration": 165, "velocity": 100}, {"time": 61435, "pitch": 67, "duration": 55, "velocity": 100}, {"time": 61490, "pitch": 69, "duration": 55, "velocity": 100}, {"time": 61545, "pitch": 67, "duration": 55, "velocity": 100}, {"time": 61655, "pitch": 66, "duration": 220, "velocity": 100}, {"time": 62095, "pitch": 74, "duration": 165, "velocity": 100}, {"time": 62260, "pitch": 79, "duration": 55, "velocity": 100}, {"time": 62315, "pitch": 74, "duration": 220, "velocity": 100}, {"time": 62535, "pitch": 71, "duration": 165, "velocity": 100}, {"time": 62700, "pitch": 74, "duration": 110, "velocity": 100}, {"time": 62810, "pitch": 71, "duration": 220, "velocity": 100}, {"time": 63030, "pitch": 67, "duration": 165, "velocity": 100}, {"time": 63195, "pitch": 71, "duration": 55, "velocity": 100}, {"time": 63250, "pitch": 67, "duration": 110, "velocity": 100}, {"time": 63855, "pitch": 74, "duration": 165, "velocity": 100}, {"time": 64020, "pitch": 72, "duration": 110, "velocity": 100}, {"time": 64130, "pitch": 74, "duration": 55, "velocity": 100}, {"time": 64185, "pitch": 76, "duration": 55, "velocity": 100}, {"time": 64240, "pitch": 74, "duration": 275, "velocity": 100}, {"time": 64735, "pitch": 71, "duration": 220, "velocity": 100}, {"time": 64955, "pitch": 69, "duration": 55, "velocity": 100}, {"time": 65010, "pitch": 71, "duration": 55, "velocity": 100}, {"time": 65065, "pitch": 72, "duration": 55, "velocity": 100}, {"time": 65175, "pitch": 71, "duration": 165, "velocity": 100}, {"time": 65505, "pitch": 74, "duration": 220, "velocity": 100}, {"time": 65725, "pitch": 76, "duration": 55, "velocity": 100}, {"time": 65780, "pitch": 76, "duration": 55, "velocity": 100}, {"time": 65835, "pitch": 74, "duration": 110, "velocity": 100}, {"time": 65945, "pitch": 76, "duration": 110, "velocity": 100}, {"time": 66055, "pitch": 78, "duration": 110, "velocity": 100}, {"time": 66165, "pitch": 79, "duration": 165, "velocity": 100}, {"time": 66330, "pitch": 78, "duration": 110, "velocity": 100}, {"time": 66440, "pitch": 76, "duration": 110, "velocity": 100}, {"time": 66550, "pitch": 74, "duration": 110, "velocity": 100}, {"time": 66660, "pitch": 72, "duration": 110, "velocity": 100}, {"time": 66770, "pitch": 74, "duration": 55, "velocity": 100}, {"time": 66825, "pitch": 72, "duration": 55, "velocity": 100}, {"time": 66880, "pitch": 74, "duration": 55, "velocity": 100}, {"time": 66935, "pitch": 72, "duration": 55, "velocity": 100}, {"time": 66990, "pitch": 71, "duration": 110, "velocity": 100}, {"time": 67100, "pitch": 72, "duration": 55, "velocity": 100}, {"time": 67155, "pitch": 71, "duration": 220, "velocity": 100}, {"time": 67375, "pitch": 71, "duration": 275, "velocity": 100}, {"time": 67650, "pitch": 69, "duration": 55, "velocity": 100}, {"time": 67705, "pitch": 72, "duration": 110, "velocity": 100}, {"time": 67815, "pitch": 71, "duration": 110, "velocity": 100}, {"time": 67925, "pitch": 69, "duration": 110, "velocity": 100}, {"time": 68035, "pitch": 76, "duration": 165, "velocity": 100}, {"time": 68200, "pitch": 67, "duration": 220, "velocity": 100}, {"time": 68420, "pitch": 67, "duration": 220, "velocity": 100}, {"time": 68640, "pitch": 66, "duration": 275, "velocity": 100}, {"time": 69025, "pitch": 86, "duration": 110, "velocity": 100}, {"time": 69245, "pitch": 86, "duration": 165, "velocity": 100}, {"time": 69465, "pitch": 86, "duration": 110, "velocity": 100}, {"time": 69630, "pitch": 86, "duration": 165, "velocity": 100}, {"time": 69850, "pitch": 86, "duration": 110, "velocity": 100}, {"time": 70070, "pitch": 86, "duration": 110, "velocity": 100}, {"time": 70180, "pitch": 84, "duration": 55, "velocity": 100}, {"time": 70235, "pitch": 86, "duration": 110, "velocity": 100}, {"time": 70345, "pitch": 84, "duration": 55, "velocity": 100}, {"time": 70400, "pitch": 83, "duration": 275, "velocity": 100}, {"time": 70675, "pitch": 81, "duration": 55, "velocity": 100}, {"time": 70730, "pitch": 83, "duration": 55, "velocity": 100}, {"time": 70785, "pitch": 81, "duration": 110, "velocity": 100}, {"time": 70895, "pitch": 79, "duration": 220, "velocity": 100}, {"time": 71115, "pitch": 78, "duration": 55, "velocity": 100}, {"time": 71170, "pitch": 76, "duration": 110, "velocity": 100}, {"time": 71280, "pitch": 74, "duration": 55, "velocity": 100}, {"time": 71335, "pitch": 79, "duration": 165, "velocity": 100}, {"time": 71610, "pitch": 84, "duration": 110, "velocity": 100}, {"time": 71830, "pitch": 84, "duration": 110, "velocity": 100}, {"time": 71995, "pitch": 84, "duration": 165, "velocity": 100}, {"time": 72270, "pitch": 84, "duration": 110, "velocity": 100}, {"time": 72490, "pitch": 84, "duration": 110, "velocity": 100}, {"time": 72710, "pitch": 84, "duration": 165, "velocity": 100}, {"time": 72875, "pitch": 83, "duration": 55, "velocity": 100}, {"time": 72930, "pitch": 81, "duration": 55, "velocity": 100}, {"time": 72985, "pitch": 79, "duration": 55, "velocity": 100}, {"time": 73040, "pitch": 78, "duration": 110, "velocity": 100}, {"time": 73150, "pitch": 76, "duration": 55, "velocity": 100}, {"time": 73205, "pitch": 74, "duration": 55, "velocity": 100}, {"time": 73260, "pitch": 81, "duration": 55, "velocity": 100}, {"time": 73315, "pitch": 83, "duration": 110, "velocity": 100}, {"time": 73425, "pitch": 81, "duration": 55, "velocity": 100}, {"time": 73480, "pitch": 83, "duration": 55, "velocity": 100}, {"time": 73535, "pitch": 81, "duration": 55, "velocity": 100}, {"time": 73590, "pitch": 81, "duration": 55, "velocity": 100}, {"time": 73645, "pitch": 79, "duration": 275, "velocity": 100}, {"time": 73920, "pitch": 79, "duration": 220, "velocity": 100}, {"time": 74140, "pitch": 78, "duration": 275, "velocity": 100}, {"time": 74415, "pitch": 76, "duration": 220, "velocity": 100}, {"time": 74635, "pitch": 74, "duration": 220, "velocity": 100}, {"time": 74855, "pitch": 76, "duration": 55, "velocity": 100}, {"time": 74910, "pitch": 74, "duration": 55, "velocity": 100}, {"time": 74965, "pitch": 72, "duration": 55, "velocity": 100}, {"time": 75020, "pitch": 71, "duration": 220, "velocity": 100}, {"time": 75240, "pitch": 69, "duration": 55, "velocity": 100}, {"time": 75295, "pitch": 69, "duration": 55, "velocity": 100}, {"time": 75350, "pitch": 67, "duration": 55, "velocity": 100}, {"time": 75405, "pitch": 69, "duration": 55, "velocity": 100}, {"time": 75460, "pitch": 67, "duration": 220, "velocity": 100}, {"time": 75680, "pitch": 79, "duration": 220, "velocity": 100}, {"time": 75900, "pitch": 78, "duration": 220, "velocity": 100}, {"time": 76120, "pitch": 76, "duration": 220, "velocity": 100}, {"time": 76340, "pitch": 74, "duration": 220, "velocity": 100}, {"time": 76560, "pitch": 76, "duration": 55, "velocity": 100}, {"time": 76615, "pitch": 74, "duration": 110, "velocity": 100}, {"time": 76725, "pitch": 72, "duration": 55, "velocity": 100}, {"time": 76780, "pitch": 71, "duration": 220, "velocity": 100}, {"time": 77000, "pitch": 69, "duration": 55, "velocity": 100}, {"time": 77055, "pitch": 71, "duration": 55, "velocity": 100}, {"time": 77110, "pitch": 69, "duration": 55, "velocity": 100}, {"time": 77165, "pitch": 67, "duration": 55, "velocity": 100}, {"time": 77220, "pitch": 69, "duration": 55, "velocity": 100}, {"time": 77275, "pitch": 67, "duration": 165, "velocity": 100}, {"time": 77660, "pitch": 67, "duration": 1540, "velocity": 100}, {"time": 0, "pitch": 47, "duration": 330, "velocity": 100}, {"time": 0, "pitch": 62, "duration": 220, "velocity": 100}, {"time": 110, "pitch": 57, "duration": 275, "velocity": 100}, {"time": 220, "pitch": 64, "duration": 220, "velocity": 100}, {"time": 220, "pitch": 70, "duration": 220, "velocity": 100}, {"time": 440, "pitch": 50, "duration": 385, "velocity": 100}, {"time": 550, "pitch": 59, "duration": 110, "velocity": 100}, {"time": 605, "pitch": 62, "duration": 55, "velocity": 100}, {"time": 660, "pitch": 66, "duration": 55, "velocity": 100}, {"time": 715, "pitch": 62, "duration": 55, "velocity": 100}, {"time": 880, "pitch": 50, "duration": 385, "velocity": 100}, {"time": 880, "pitch": 62, "duration": 110, "velocity": 100}, {"time": 880, "pitch": 66, "duration": 165, "velocity": 100}, {"time": 990, "pitch": 57, "duration": 275, "velocity": 100}, {"time": 1045, "pitch": 62, "duration": 110, "velocity": 100}, {"time": 1155, "pitch": 66, "duration": 55, "velocity": 100}, {"time": 1210, "pitch": 62, "duration": 55, "velocity": 100}, {"time": 1320, "pitch": 50, "duration": 330, "velocity": 100}, {"time": 1320, "pitch": 66, "duration": 220, "velocity": 100}, {"time": 1485, "pitch": 57, "duration": 165, "velocity": 100}, {"time": 1540, "pitch": 62, "duration": 110, "velocity": 100}, {"time": 1540, "pitch": 69, "duration": 55, "velocity": 100}, {"time": 1595, "pitch": 66, "duration": 55, "velocity": 100}, {"time": 1650, "pitch": 69, "duration": 110, "velocity": 100}, {"time": 1650, "pitch": 73, "duration": 110, "velocity": 100}, {"time": 1705, "pitch": 74, "duration": 55, "velocity": 100}, {"time": 1760, "pitch": 50, "duration": 330, "velocity": 100}, {"time": 1760, "pitch": 74, "duration": 440, "velocity": 100}, {"time": 1870, "pitch": 57, "duration": 165, "velocity": 100}, {"time": 1980, "pitch": 62, "duration": 55, "velocity": 100}, {"time": 1980, "pitch": 66, "duration": 110, "velocity": 100}, {"time": 2090, "pitch": 62, "duration": 55, "velocity": 100}, {"time": 2200, "pitch": 50, "duration": 330, "velocity": 100}, {"time": 2200, "pitch": 66, "duration": 165, "velocity": 100}, {"time": 2310, "pitch": 57, "duration": 165, "velocity": 100}, {"time": 2365, "pitch": 62, "duration": 110, "velocity": 100}, {"time": 2475, "pitch": 66, "duration": 55, "velocity": 100}, {"time": 2530, "pitch": 62, "duration": 55, "velocity": 100}, {"time": 2640, "pitch": 50, "duration": 385, "velocity": 100}, {"time": 2640, "pitch": 62, "duration": 110, "velocity": 100}, {"time": 2640, "pitch": 66, "duration": 165, "velocity": 100}, {"time": 2750, "pitch": 57, "duration": 275, "velocity": 100}, {"time": 2805, "pitch": 69, "duration": 110, "velocity": 100}, {"time": 2915, "pitch": 69, "duration": 55, "velocity": 100}, {"time": 2970, "pitch": 62, "duration": 55, "velocity": 100}, {"time": 3080, "pitch": 50, "duration": 330, "velocity": 100}, {"time": 3080, "pitch": 62, "duration": 110, "velocity": 100}, {"time": 3080, "pitch": 66, "duration": 165, "velocity": 100}, {"time": 3190, "pitch": 57, "duration": 165, "velocity": 100}, {"time": 3245, "pitch": 66, "duration": 55, "velocity": 100}, {"time": 3300, "pitch": 62, "duration": 55, "velocity": 100}, {"time": 3300, "pitch": 66, "duration": 110, "velocity": 100}, {"time": 3520, "pitch": 57, "duration": 275, "velocity": 100}, {"time": 3520, "pitch": 60, "duration": 55, "velocity": 100}, {"time": 3520, "pitch": 64, "duration": 220, "velocity": 100}, {"time": 3630, "pitch": 64, "duration": 110, "velocity": 100}, {"time": 3740, "pitch": 72, "duration": 220, "velocity": 100}, {"time": 3850, "pitch": 64, "duration": 55, "velocity": 100}, {"time": 3905, "pitch": 69, "duration": 55, "velocity": 100}, {"time": 3960, "pitch": 45, "duration": 330, "velocity": 100}, {"time": 3960, "pitch": 69, "duration": 440, "velocity": 100}, {"time": 4070, "pitch": 52, "duration": 165, "velocity": 100}, {"time": 4125, "pitch": 57, "duration": 165, "velocity": 100}, {"time": 4235, "pitch": 60, "duration": 165, "velocity": 100}, {"time": 4290, "pitch": 69, "duration": 220, "velocity": 100}, {"time": 4345, "pitch": 57, "duration": 55, "velocity": 100}, {"time": 4400, "pitch": 45, "duration": 165, "velocity": 100}, {"time": 4400, "pitch": 88, "duration": 220, "velocity": 100}, {"time": 4455, "pitch": 57, "duration": 55, "velocity": 100}, {"time": 4510, "pitch": 60, "duration": 55, "velocity": 100}, {"time": 4620, "pitch": 57, "duration": 165, "velocity": 100}, {"time": 4620, "pitch": 60, "duration": 220, "velocity": 100}, {"time": 4620, "pitch": 69, "duration": 220, "velocity": 100}, {"time": 4620, "pitch": 88, "duration": 165, "velocity": 100}, {"time": 4840, "pitch": 45, "duration": 330, "velocity": 100}, {"time": 4840, "pitch": 60, "duration": 110, "velocity": 100}, {"time": 4840, "pitch": 64, "duration": 165, "velocity": 100}, {"time": 4840, "pitch": 84, "duration": 440, "velocity": 100}, {"time": 4950, "pitch": 52, "duration": 165, "velocity": 100}, {"time": 5005, "pitch": 64, "duration": 110, "velocity": 100}, {"time": 5115, "pitch": 69, "duration": 55, "velocity": 100}, {"time": 5170, "pitch": 60, "duration": 55, "velocity": 100}, {"time": 5225, "pitch": 64, "duration": 55, "velocity": 100}, {"time": 5280, "pitch": 57, "duration": 275, "velocity": 100}, {"time": 5390, "pitch": 64, "duration": 165, "velocity": 100}, {"time": 5500, "pitch": 69, "duration": 220, "velocity": 100}, {"time": 5500, "pitch": 72, "duration": 220, "velocity": 100}, {"time": 5720, "pitch": 57, "duration": 220, "velocity": 100}, {"time": 5775, "pitch": 64, "duration": 55, "velocity": 100}, {"time": 5830, "pitch": 69, "duration": 55, "velocity": 100}, {"time": 5885, "pitch": 69, "duration": 165, "velocity": 100}, {"time": 5940, "pitch": 52, "duration": 110, "velocity": 100}, {"time": 5995, "pitch": 67, "duration": 55, "velocity": 100}, {"time": 6050, "pitch": 67, "duration": 55, "velocity": 100}, {"time": 6105, "pitch": 64, "duration": 55, "velocity": 100}, {"time": 6160, "pitch": 45, "duration": 385, "velocity": 100}, {"time": 6160, "pitch": 64, "duration": 110, "velocity": 100}, {"time": 6160, "pitch": 69, "duration": 165, "velocity": 100}, {"time": 6270, "pitch": 52, "duration": 110, "velocity": 100}, {"time": 6325, "pitch": 64, "duration": 110, "velocity": 100}, {"time": 6435, "pitch": 72, "duration": 55, "velocity": 100}, {"time": 6435, "pitch": 93, "duration": 55, "velocity": 100}, {"time": 6490, "pitch": 64, "duration": 110, "velocity": 100}, {"time": 6545, "pitch": 69, "duration": 55, "velocity": 100}, {"time": 6545, "pitch": 81, "duration": 55, "velocity": 100}, {"time": 6600, "pitch": 45, "duration": 385, "velocity": 100}, {"time": 6600, "pitch": 64, "duration": 110, "velocity": 100}, {"time": 6600, "pitch": 72, "duration": 55, "velocity": 100}, {"time": 6600, "pitch": 93, "duration": 275, "velocity": 100}, {"time": 6820, "pitch": 64, "duration": 55, "velocity": 100}, {"time": 6820, "pitch": 69, "duration": 220, "velocity": 100}, {"time": 6930, "pitch": 64, "duration": 110, "velocity": 100}, {"time": 7040, "pitch": 43, "duration": 385, "velocity": 100}, {"time": 7040, "pitch": 55, "duration": 165, "velocity": 100}, {"time": 7040, "pitch": 62, "duration": 165, "velocity": 100}, {"time": 7040, "pitch": 67, "duration": 385, "velocity": 100}, {"time": 7040, "pitch": 71, "duration": 385, "velocity": 100}, {"time": 7150, "pitch": 50, "duration": 165, "velocity": 100}, {"time": 7260, "pitch": 55, "duration": 55, "velocity": 100}, {"time": 7260, "pitch": 59, "duration": 110, "velocity": 100}, {"time": 7260, "pitch": 62, "duration": 165, "velocity": 100}, {"time": 7370, "pitch": 50, "duration": 110, "velocity": 100}, {"time": 7425, "pitch": 55, "duration": 55, "velocity": 100}, {"time": 7480, "pitch": 43, "duration": 275, "velocity": 100}, {"time": 7480, "pitch": 55, "duration": 110, "velocity": 100}, {"time": 7480, "pitch": 62, "duration": 110, "velocity": 100}, {"time": 7480, "pitch": 67, "duration": 385, "velocity": 100}, {"time": 7480, "pitch": 71, "duration": 385, "velocity": 100}, {"time": 7590, "pitch": 50, "duration": 165, "velocity": 100}, {"time": 7645, "pitch": 55, "duration": 55, "velocity": 100}, {"time": 7700, "pitch": 55, "duration": 55, "velocity": 100}, {"time": 7700, "pitch": 62, "duration": 110, "velocity": 100}, {"time": 7810, "pitch": 50, "duration": 110, "velocity": 100}, {"time": 7920, "pitch": 43, "duration": 275, "velocity": 100}, {"time": 7920, "pitch": 59, "duration": 110, "velocity": 100}, {"time": 7920, "pitch": 67, "duration": 110, "velocity": 100}, {"time": 7920, "pitch": 71, "duration": 385, "velocity": 100}, {"time": 7920, "pitch": 74, "duration": 385, "velocity": 100}, {"time": 8030, "pitch": 55, "duration": 110, "velocity": 100}, {"time": 8140, "pitch": 59, "duration": 55, "velocity": 100}, {"time": 8140, "pitch": 62, "duration": 55, "velocity": 100}, {"time": 8195, "pitch": 55, "duration": 55, "velocity": 100}, {"time": 8250, "pitch": 59, "duration": 55, "velocity": 100}, {"time": 8360, "pitch": 43, "duration": 330, "velocity": 100}, {"time": 8360, "pitch": 55, "duration": 55, "velocity": 100}, {"time": 8360, "pitch": 59, "duration": 110, "velocity": 100}, {"time": 8360, "pitch": 62, "duration": 165, "velocity": 100}, {"time": 8360, "pitch": 71, "duration": 220, "velocity": 100}, {"time": 8470, "pitch": 55, "duration": 110, "velocity": 100}, {"time": 8525, "pitch": 59, "duration": 55, "velocity": 100}, {"time": 8580, "pitch": 62, "duration": 110, "velocity": 100}, {"time": 8580, "pitch": 79, "duration": 110, "velocity": 100}, {"time": 8690, "pitch": 59, "duration": 55, "velocity": 100}, {"time": 8690, "pitch": 81, "duration": 110, "velocity": 100}, {"time": 8800, "pitch": 43, "duration": 385, "velocity": 100}, {"time": 8800, "pitch": 55, "duration": 55, "velocity": 100}, {"time": 8800, "pitch": 59, "duration": 110, "velocity": 100}, {"time": 8800, "pitch": 67, "duration": 110, "velocity": 100}, {"time": 8800, "pitch": 71, "duration": 440, "velocity": 100}, {"time": 8800, "pitch": 79, "duration": 440, "velocity": 100}, {"time": 8855, "pitch": 50, "duration": 220, "velocity": 100}, {"time": 8910, "pitch": 55, "duration": 55, "velocity": 100}, {"time": 8965, "pitch": 59, "duration": 110, "velocity": 100}, {"time": 9075, "pitch": 55, "duration": 55, "velocity": 100}, {"time": 9075, "pitch": 59, "duration": 55, "velocity": 100}, {"time": 9130, "pitch": 50, "duration": 110, "velocity": 100}, {"time": 9240, "pitch": 43, "duration": 275, "velocity": 100}, {"time": 9240, "pitch": 55, "duration": 110, "velocity": 100}, {"time": 9240, "pitch": 59, "duration": 165, "velocity": 100}, {"time": 9240, "pitch": 67, "duration": 275, "velocity": 100}, {"time": 9240, "pitch": 71, "duration": 440, "velocity": 100}, {"time": 9350, "pitch": 50, "duration": 165, "velocity": 100}, {"time": 9460, "pitch": 55, "duration": 55, "velocity": 100}, {"time": 9460, "pitch": 62, "duration": 55, "velocity": 100}, {"time": 9680, "pitch": 31, "duration": 275, "velocity": 100}, {"time": 9680, "pitch": 55, "duration": 110, "velocity": 100}, {"time": 9680, "pitch": 62, "duration": 220, "velocity": 100}, {"time": 9680, "pitch": 71, "duration": 275, "velocity": 100}, {"time": 9790, "pitch": 43, "duration": 220, "velocity": 100}, {"time": 9845, "pitch": 62, "duration": 110, "velocity": 100}, {"time": 9955, "pitch": 59, "duration": 55, "velocity": 100}, {"time": 10010, "pitch": 67, "duration": 55, "velocity": 100}, {"time": 10120, "pitch": 43, "duration": 330, "velocity": 100}, {"time": 10120, "pitch": 55, "duration": 55, "velocity": 100}, {"time": 10120, "pitch": 59, "duration": 110, "velocity": 100}, {"time": 10120, "pitch": 71, "duration": 110, "velocity": 100}, {"time": 10120, "pitch": 74, "duration": 165, "velocity": 100}, {"time": 10230, "pitch": 55, "duration": 110, "velocity": 100}, {"time": 10230, "pitch": 74, "duration": 55, "velocity": 100}, {"time": 10285, "pitch": 59, "duration": 55, "velocity": 100}, {"time": 10285, "pitch": 79, "duration": 55, "velocity": 100}, {"time": 10340, "pitch": 83, "duration": 110, "velocity": 100}, {"time": 10395, "pitch": 59, "duration": 55, "velocity": 100}, {"time": 10395, "pitch": 62, "duration": 55, "velocity": 100}, {"time": 10450, "pitch": 59, "duration": 110, "velocity": 100}, {"time": 10560, "pitch": 43, "duration": 330, "velocity": 100}, {"time": 10560, "pitch": 55, "duration": 110, "velocity": 100}, {"time": 10560, "pitch": 59, "duration": 220, "velocity": 100}, {"time": 10560, "pitch": 79, "duration": 440, "velocity": 100}, {"time": 10670, "pitch": 50, "duration": 110, "velocity": 100}, {"time": 10725, "pitch": 55, "duration": 110, "velocity": 100}, {"time": 10780, "pitch": 74, "duration": 220, "velocity": 100}, {"time": 10835, "pitch": 59, "duration": 110, "velocity": 100}, {"time": 10890, "pitch": 50, "duration": 55, "velocity": 100}, {"time": 10945, "pitch": 55, "duration": 165, "velocity": 100}, {"time": 11000, "pitch": 31, "duration": 440, "velocity": 100}, {"time": 11000, "pitch": 79, "duration": 110, "velocity": 100}, {"time": 11110, "pitch": 43, "duration": 275, "velocity": 100}, {"time": 11110, "pitch": 79, "duration": 110, "velocity": 100}, {"time": 11165, "pitch": 50, "duration": 55, "velocity": 100}, {"time": 11220, "pitch": 55, "duration": 55, "velocity": 100}, {"time": 11220, "pitch": 79, "duration": 220, "velocity": 100}, {"time": 11275, "pitch": 59, "duration": 110, "velocity": 100}, {"time": 11330, "pitch": 59, "duration": 110, "velocity": 100}, {"time": 11385, "pitch": 55, "duration": 55, "velocity": 100}, {"time": 11440, "pitch": 31, "duration": 165, "velocity": 100}, {"time": 11440, "pitch": 83, "duration": 220, "velocity": 100}, {"time": 11495, "pitch": 50, "duration": 110, "velocity": 100}, {"time": 11550, "pitch": 55, "duration": 55, "velocity": 100}, {"time": 11605, "pitch": 59, "duration": 55, "velocity": 100}, {"time": 11660, "pitch": 38, "duration": 220, "velocity": 100}, {"time": 11660, "pitch": 81, "duration": 220, "velocity": 100}, {"time": 11715, "pitch": 50, "duration": 110, "velocity": 100}, {"time": 11770, "pitch": 55, "duration": 110, "velocity": 100}, {"time": 11825, "pitch": 59, "duration": 55, "velocity": 100}, {"time": 11880, "pitch": 43, "duration": 275, "velocity": 100}, {"time": 11880, "pitch": 79, "duration": 220, "velocity": 100}, {"time": 11935, "pitch": 50, "duration": 55, "velocity": 100}, {"time": 11990, "pitch": 50, "duration": 110, "velocity": 100}, {"time": 12100, "pitch": 50, "duration": 55, "velocity": 100}, {"time": 12100, "pitch": 55, "duration": 55, "velocity": 100}, {"time": 12100, "pitch": 59, "duration": 110, "velocity": 100}, {"time": 12100, "pitch": 62, "duration": 220, "velocity": 100}, {"time": 12210, "pitch": 62, "duration": 110, "velocity": 100}, {"time": 12320, "pitch": 43, "duration": 275, "velocity": 100}, {"time": 12320, "pitch": 67, "duration": 385, "velocity": 100}, {"time": 12320, "pitch": 71, "duration": 440, "velocity": 100}, {"time": 12430, "pitch": 55, "duration": 55, "velocity": 100}, {"time": 12540, "pitch": 55, "duration": 55, "velocity": 100}, {"time": 12540, "pitch": 59, "duration": 110, "velocity": 100}, {"time": 12650, "pitch": 55, "duration": 55, "velocity": 100}, {"time": 12705, "pitch": 59, "duration": 55, "velocity": 100}, {"time": 12760, "pitch": 31, "duration": 275, "velocity": 100}, {"time": 12760, "pitch": 59, "duration": 220, "velocity": 100}, {"time": 12760, "pitch": 67, "duration": 220, "velocity": 100}, {"time": 12760, "pitch": 74, "duration": 110, "velocity": 100}, {"time": 12870, "pitch": 43, "duration": 110, "velocity": 100}, {"time": 12870, "pitch": 76, "duration": 110, "velocity": 100}, {"time": 12980, "pitch": 50, "duration": 55, "velocity": 100}, {"time": 12980, "pitch": 55, "duration": 110, "velocity": 100}, {"time": 12980, "pitch": 59, "duration": 220, "velocity": 100}, {"time": 12980, "pitch": 79, "duration": 220, "velocity": 100}, {"time": 13200, "pitch": 43, "duration": 385, "velocity": 100}, {"time": 13200, "pitch": 55, "duration": 110, "velocity": 100}, {"time": 13200, "pitch": 59, "duration": 165, "velocity": 100}, {"time": 13200, "pitch": 79, "duration": 440, "velocity": 100}, {"time": 13310, "pitch": 50, "duration": 110, "velocity": 100}, {"time": 13420, "pitch": 55, "duration": 55, "velocity": 100}, {"time": 13420, "pitch": 59, "duration": 55, "velocity": 100}, {"time": 13475, "pitch": 50, "duration": 110, "velocity": 100}, {"time": 13530, "pitch": 55, "duration": 55, "velocity": 100}, {"time": 13585, "pitch": 59, "duration": 55, "velocity": 100}, {"time": 13585, "pitch": 62, "duration": 55, "velocity": 100}, {"time": 13640, "pitch": 43, "duration": 275, "velocity": 100}, {"time": 13640, "pitch": 55, "duration": 110, "velocity": 100}, {"time": 13640, "pitch": 59, "duration": 110, "velocity": 100}, {"time": 13640, "pitch": 62, "duration": 110, "velocity": 100}, {"time": 13640, "pitch": 67, "duration": 55, "velocity": 100}, {"time": 13750, "pitch": 50, "duration": 165, "velocity": 100}, {"time": 13750, "pitch": 67, "duration": 55, "velocity": 100}, {"time": 13805, "pitch": 55, "duration": 55, "velocity": 100}, {"time": 13805, "pitch": 71, "duration": 55, "velocity": 100}, {"time": 13860, "pitch": 55, "duration": 55, "velocity": 100}, {"time": 13860, "pitch": 59, "duration": 55, "velocity": 100}, {"time": 13860, "pitch": 62, "duration": 55, "velocity": 100}, {"time": 13860, "pitch": 71, "duration": 55, "velocity": 100}, {"time": 13915, "pitch": 45, "duration": 55, "velocity": 100}, {"time": 13915, "pitch": 74, "duration": 55, "velocity": 100}, {"time": 13970, "pitch": 45, "duration": 55, "velocity": 100}, {"time": 13970, "pitch": 78, "duration": 55, "velocity": 100}, {"time": 14025, "pitch": 78, "duration": 55, "velocity": 100}, {"time": 14080, "pitch": 38, "duration": 385, "velocity": 100}, {"time": 14080, "pitch": 54, "duration": 55, "velocity": 100}, {"time": 14080, "pitch": 57, "duration": 110, "velocity": 100}, {"time": 14080, "pitch": 62, "duration": 110, "velocity": 100}, {"time": 14080, "pitch": 81, "duration": 440, "velocity": 100}, {"time": 14135, "pitch": 50, "duration": 330, "velocity": 100}, {"time": 14190, "pitch": 54, "duration": 55, "velocity": 100}, {"time": 14245, "pitch": 57, "duration": 55, "velocity": 100}, {"time": 14300, "pitch": 54, "duration": 55, "velocity": 100}, {"time": 14300, "pitch": 57, "duration": 55, "velocity": 100}, {"time": 14300, "pitch": 66, "duration": 110, "velocity": 100}, {"time": 14410, "pitch": 62, "duration": 55, "velocity": 100}, {"time": 14465, "pitch": 57, "duration": 55, "velocity": 100}, {"time": 14520, "pitch": 38, "duration": 275, "velocity": 100}, {"time": 14520, "pitch": 54, "duration": 110, "velocity": 100}, {"time": 14520, "pitch": 57, "duration": 110, "velocity": 100}, {"time": 14520, "pitch": 62, "duration": 110, "velocity": 100}, {"time": 14630, "pitch": 45, "duration": 165, "velocity": 100}, {"time": 14685, "pitch": 54, "duration": 55, "velocity": 100}, {"time": 14740, "pitch": 54, "duration": 55, "velocity": 100}, {"time": 14740, "pitch": 57, "duration": 55, "velocity": 100}, {"time": 14740, "pitch": 62, "duration": 55, "velocity": 100}, {"time": 14740, "pitch": 66, "duration": 55, "velocity": 100}, {"time": 14795, "pitch": 50, "duration": 55, "velocity": 100}, {"time": 14960, "pitch": 50, "duration": 330, "velocity": 100}, {"time": 14960, "pitch": 57, "duration": 55, "velocity": 100}, {"time": 14960, "pitch": 66, "duration": 110, "velocity": 100}, {"time": 14960, "pitch": 81, "duration": 660, "velocity": 100}, {"time": 15015, "pitch": 57, "duration": 55, "velocity": 100}, {"time": 15070, "pitch": 62, "duration": 55, "velocity": 100}, {"time": 15125, "pitch": 66, "duration": 55, "velocity": 100}, {"time": 15180, "pitch": 57, "duration": 55, "velocity": 100}, {"time": 15180, "pitch": 66, "duration": 55, "velocity": 100}, {"time": 15180, "pitch": 69, "duration": 55, "velocity": 100}, {"time": 15235, "pitch": 57, "duration": 55, "velocity": 100}, {"time": 15290, "pitch": 62, "duration": 55, "velocity": 100}, {"time": 15400, "pitch": 50, "duration": 275, "velocity": 100}, {"time": 15400, "pitch": 62, "duration": 110, "velocity": 100}, {"time": 15400, "pitch": 66, "duration": 110, "velocity": 100}, {"time": 15510, "pitch": 57, "duration": 110, "velocity": 100}, {"time": 15565, "pitch": 62, "duration": 55, "velocity": 100}, {"time": 15620, "pitch": 62, "duration": 55, "velocity": 100}, {"time": 15620, "pitch": 66, "duration": 55, "velocity": 100}, {"time": 15620, "pitch": 69, "duration": 55, "velocity": 100}, {"time": 15675, "pitch": 57, "duration": 55, "velocity": 100}, {"time": 15675, "pitch": 76, "duration": 55, "velocity": 100}, {"time": 15730, "pitch": 62, "duration": 55, "velocity": 100}, {"time": 15730, "pitch": 78, "duration": 55, "velocity": 100}, {"time": 15785, "pitch": 81, "duration": 55, "velocity": 100}, {"time": 15840, "pitch": 38, "duration": 275, "velocity": 100}, {"time": 15840, "pitch": 62, "duration": 110, "velocity": 100}, {"time": 15840, "pitch": 66, "duration": 110, "velocity": 100}, {"time": 15840, "pitch": 78, "duration": 440, "velocity": 100}, {"time": 15950, "pitch": 45, "duration": 110, "velocity": 100}, {"time": 16060, "pitch": 57, "duration": 55, "velocity": 100}, {"time": 16060, "pitch": 62, "duration": 110, "velocity": 100}, {"time": 16060, "pitch": 66, "duration": 110, "velocity": 100}, {"time": 16115, "pitch": 45, "duration": 55, "velocity": 100}, {"time": 16170, "pitch": 57, "duration": 55, "velocity": 100}, {"time": 16280, "pitch": 50, "duration": 275, "velocity": 100}, {"time": 16280, "pitch": 62, "duration": 110, "velocity": 100}, {"time": 16280, "pitch": 66, "duration": 110, "velocity": 100}, {"time": 16280, "pitch": 69, "duration": 220, "velocity": 100}, {"time": 16280, "pitch": 74, "duration": 440, "velocity": 100}, {"time": 16390, "pitch": 57, "duration": 165, "velocity": 100}, {"time": 16500, "pitch": 57, "duration": 55, "velocity": 100}, {"time": 16500, "pitch": 66, "duration": 55, "velocity": 100}, {"time": 16500, "pitch": 69, "duration": 110, "velocity": 100}, {"time": 16555, "pitch": 57, "duration": 55, "velocity": 100}, {"time": 16610, "pitch": 50, "duration": 55, "velocity": 100}, {"time": 16720, "pitch": 50, "duration": 275, "velocity": 100}, {"time": 16720, "pitch": 57, "duration": 110, "velocity": 100}, {"time": 16720, "pitch": 62, "duration": 110, "velocity": 100}, {"time": 16720, "pitch": 74, "duration": 110, "velocity": 100}, {"time": 16830, "pitch": 57, "duration": 110, "velocity": 100}, {"time": 16830, "pitch": 74, "duration": 55, "velocity": 100}, {"time": 16885, "pitch": 74, "duration": 55, "velocity": 100}, {"time": 16940, "pitch": 62, "duration": 55, "velocity": 100}, {"time": 16940, "pitch": 66, "duration": 55, "velocity": 100}, {"time": 16940, "pitch": 69, "duration": 55, "velocity": 100}, {"time": 16995, "pitch": 57, "duration": 55, "velocity": 100}, {"time": 16995, "pitch": 69, "duration": 55, "velocity": 100}, {"time": 17050, "pitch": 57, "duration": 55, "velocity": 100}, {"time": 17050, "pitch": 69, "duration": 55, "velocity": 100}, {"time": 17105, "pitch": 62, "duration": 55, "velocity": 100}, {"time": 17105, "pitch": 71, "duration": 55, "velocity": 100}, {"time": 17160, "pitch": 38, "duration": 275, "velocity": 100}, {"time": 17160, "pitch": 57, "duration": 55, "velocity": 100}, {"time": 17160, "pitch": 62, "duration": 55, "velocity": 100}, {"time": 17215, "pitch": 45, "duration": 110, "velocity": 100}, {"time": 17215, "pitch": 69, "duration": 55, "velocity": 100}, {"time": 17270, "pitch": 54, "duration": 55, "velocity": 100}, {"time": 17270, "pitch": 71, "duration": 55, "velocity": 100}, {"time": 17325, "pitch": 54, "duration": 55, "velocity": 100}, {"time": 17325, "pitch": 57, "duration": 55, "velocity": 100}, {"time": 17325, "pitch": 62, "duration": 55, "velocity": 100}, {"time": 17325, "pitch": 71, "duration": 55, "velocity": 100}, {"time": 17380, "pitch": 47, "duration": 55, "velocity": 100}, {"time": 17380, "pitch": 74, "duration": 55, "velocity": 100}, {"time": 17435, "pitch": 54, "duration": 55, "velocity": 100}, {"time": 17435, "pitch": 59, "duration": 110, "velocity": 100}, {"time": 17435, "pitch": 62, "duration": 110, "velocity": 100}, {"time": 17435, "pitch": 66, "duration": 55, "velocity": 100}, {"time": 17490, "pitch": 47, "duration": 55, "velocity": 100}, {"time": 17490, "pitch": 76, "duration": 55, "velocity": 100}, {"time": 17545, "pitch": 47, "duration": 55, "velocity": 100}, {"time": 17545, "pitch": 78, "duration": 55, "velocity": 100}, {"time": 17600, "pitch": 35, "duration": 385, "velocity": 100}, {"time": 17600, "pitch": 59, "duration": 55, "velocity": 100}, {"time": 17600, "pitch": 62, "duration": 110, "velocity": 100}, {"time": 17600, "pitch": 78, "duration": 385, "velocity": 100}, {"time": 17710, "pitch": 47, "duration": 110, "velocity": 100}, {"time": 17820, "pitch": 59, "duration": 55, "velocity": 100}, {"time": 17820, "pitch": 62, "duration": 55, "velocity": 100}, {"time": 17820, "pitch": 66, "duration": 110, "velocity": 100}, {"time": 17875, "pitch": 47, "duration": 55, "velocity": 100}, {"time": 17930, "pitch": 59, "duration": 55, "velocity": 100}, {"time": 18040, "pitch": 47, "duration": 275, "velocity": 100}, {"time": 18040, "pitch": 59, "duration": 165, "velocity": 100}, {"time": 18040, "pitch": 62, "duration": 110, "velocity": 100}, {"time": 18040, "pitch": 66, "duration": 165, "velocity": 100}, {"time": 18040, "pitch": 78, "duration": 440, "velocity": 100}, {"time": 18150, "pitch": 54, "duration": 110, "velocity": 100}, {"time": 18260, "pitch": 59, "duration": 55, "velocity": 100}, {"time": 18260, "pitch": 62, "duration": 55, "velocity": 100}, {"time": 18260, "pitch": 66, "duration": 55, "velocity": 100}, {"time": 18315, "pitch": 54, "duration": 55, "velocity": 100}, {"time": 18370, "pitch": 47, "duration": 55, "velocity": 100}, {"time": 18480, "pitch": 47, "duration": 275, "velocity": 100}, {"time": 18480, "pitch": 59, "duration": 55, "velocity": 100}, {"time": 18480, "pitch": 62, "duration": 110, "velocity": 100}, {"time": 18480, "pitch": 66, "duration": 110, "velocity": 100}, {"time": 18480, "pitch": 74, "duration": 440, "velocity": 100}, {"time": 18480, "pitch": 78, "duration": 440, "velocity": 100}, {"time": 18535, "pitch": 59, "duration": 55, "velocity": 100}, {"time": 18590, "pitch": 59, "duration": 55, "velocity": 100}, {"time": 18700, "pitch": 59, "duration": 55, "velocity": 100}, {"time": 18700, "pitch": 62, "duration": 55, "velocity": 100}, {"time": 18700, "pitch": 66, "duration": 110, "velocity": 100}, {"time": 18810, "pitch": 59, "duration": 55, "velocity": 100}, {"time": 18920, "pitch": 47, "duration": 275, "velocity": 100}, {"time": 18920, "pitch": 62, "duration": 440, "velocity": 100}, {"time": 18920, "pitch": 66, "duration": 440, "velocity": 100}, {"time": 18920, "pitch": 71, "duration": 440, "velocity": 100}, {"time": 18920, "pitch": 74, "duration": 440, "velocity": 100}, {"time": 19360, "pitch": 47, "duration": 715, "velocity": 100}, {"time": 19360, "pitch": 59, "duration": 165, "velocity": 100}, {"time": 19360, "pitch": 62, "duration": 110, "velocity": 100}, {"time": 19360, "pitch": 71, "duration": 550, "velocity": 100}, {"time": 19360, "pitch": 74, "duration": 825, "velocity": 100}, {"time": 19360, "pitch": 78, "duration": 880, "velocity": 100}, {"time": 19470, "pitch": 54, "duration": 165, "velocity": 100}, {"time": 19580, "pitch": 59, "duration": 55, "velocity": 100}, {"time": 19580, "pitch": 62, "duration": 110, "velocity": 100}, {"time": 19580, "pitch": 66, "duration": 110, "velocity": 100}, {"time": 19690, "pitch": 59, "duration": 55, "velocity": 100}, {"time": 19800, "pitch": 59, "duration": 55, "velocity": 100}, {"time": 19800, "pitch": 62, "duration": 55, "velocity": 100}, {"time": 20020, "pitch": 59, "duration": 55, "velocity": 100}, {"time": 20020, "pitch": 62, "duration": 55, "velocity": 100}, {"time": 20020, "pitch": 66, "duration": 55, "velocity": 100}, {"time": 20130, "pitch": 59, "duration": 55, "velocity": 100}, {"time": 20240, "pitch": 35, "duration": 275, "velocity": 100}, {"time": 20240, "pitch": 54, "duration": 110, "velocity": 100}, {"time": 20240, "pitch": 59, "duration": 110, "velocity": 100}, {"time": 20240, "pitch": 62, "duration": 110, "velocity": 100}, {"time": 20350, "pitch": 42, "duration": 275, "velocity": 100}, {"time": 20460, "pitch": 54, "duration": 55, "velocity": 100}, {"time": 20460, "pitch": 59, "duration": 55, "velocity": 100}, {"time": 20570, "pitch": 47, "duration": 55, "velocity": 100}, {"time": 20680, "pitch": 35, "duration": 440, "velocity": 100}, {"time": 20680, "pitch": 47, "duration": 110, "velocity": 100}, {"time": 20680, "pitch": 54, "duration": 110, "velocity": 100}, {"time": 20680, "pitch": 59, "duration": 110, "velocity": 100}, {"time": 20680, "pitch": 66, "duration": 110, "velocity": 100}, {"time": 20735, "pitch": 42, "duration": 330, "velocity": 100}, {"time": 20790, "pitch": 50, "duration": 220, "velocity": 100}, {"time": 20845, "pitch": 54, "duration": 110, "velocity": 100}, {"time": 20845, "pitch": 59, "duration": 110, "velocity": 100}, {"time": 20845, "pitch": 71, "duration": 165, "velocity": 100}, {"time": 21010, "pitch": 54, "duration": 110, "velocity": 100}, {"time": 21010, "pitch": 59, "duration": 110, "velocity": 100}, {"time": 21010, "pitch": 71, "duration": 110, "velocity": 100}, {"time": 21120, "pitch": 50, "duration": 55, "velocity": 100}, {"time": 21175, "pitch": 62, "duration": 220, "velocity": 100}, {"time": 21175, "pitch": 74, "duration": 165, "velocity": 100}, {"time": 21230, "pitch": 50, "duration": 275, "velocity": 100}, {"time": 21285, "pitch": 76, "duration": 55, "velocity": 100}, {"time": 21340, "pitch": 62, "duration": 110, "velocity": 100}, {"time": 21340, "pitch": 66, "duration": 110, "velocity": 100}, {"time": 21340, "pitch": 78, "duration": 110, "velocity": 100}, {"time": 21450, "pitch": 57, "duration": 110, "velocity": 100}, {"time": 21450, "pitch": 69, "duration": 110, "velocity": 100}, {"time": 21560, "pitch": 50, "duration": 275, "velocity": 100}, {"time": 21560, "pitch": 62, "duration": 110, "velocity": 100}, {"time": 21560, "pitch": 66, "duration": 110, "velocity": 100}, {"time": 21560, "pitch": 78, "duration": 440, "velocity": 100}, {"time": 21670, "pitch": 57, "duration": 165, "velocity": 100}, {"time": 21780, "pitch": 62, "duration": 220, "velocity": 100}, {"time": 21780, "pitch": 66, "duration": 220, "velocity": 100}, {"time": 21780, "pitch": 69, "duration": 165, "velocity": 100}, {"time": 21890, "pitch": 54, "duration": 110, "velocity": 100}, {"time": 21890, "pitch": 76, "duration": 55, "velocity": 100}, {"time": 21945, "pitch": 79, "duration": 55, "velocity": 100}, {"time": 21945, "pitch": 81, "duration": 55, "velocity": 100}, {"time": 22000, "pitch": 50, "duration": 275, "velocity": 100}, {"time": 22000, "pitch": 62, "duration": 110, "velocity": 100}, {"time": 22000, "pitch": 69, "duration": 110, "velocity": 100}, {"time": 22000, "pitch": 81, "duration": 330, "velocity": 100}, {"time": 22110, "pitch": 57, "duration": 55, "velocity": 100}, {"time": 22165, "pitch": 62, "duration": 55, "velocity": 100}, {"time": 22220, "pitch": 62, "duration": 110, "velocity": 100}, {"time": 22220, "pitch": 69, "duration": 110, "velocity": 100}, {"time": 22330, "pitch": 57, "duration": 110, "velocity": 100}, {"time": 22330, "pitch": 81, "duration": 55, "velocity": 100}, {"time": 22385, "pitch": 86, "duration": 55, "velocity": 100}, {"time": 22440, "pitch": 50, "duration": 275, "velocity": 100}, {"time": 22440, "pitch": 62, "duration": 110, "velocity": 100}, {"time": 22440, "pitch": 69, "duration": 110, "velocity": 100}, {"time": 22440, "pitch": 86, "duration": 330, "velocity": 100}, {"time": 22550, "pitch": 62, "duration": 110, "velocity": 100}, {"time": 22660, "pitch": 66, "duration": 55, "velocity": 100}, {"time": 22660, "pitch": 69, "duration": 110, "velocity": 100}, {"time": 22715, "pitch": 62, "duration": 55, "velocity": 100}, {"time": 22770, "pitch": 66, "duration": 55, "velocity": 100}, {"time": 22825, "pitch": 83, "duration": 55, "velocity": 100}, {"time": 22880, "pitch": 50, "duration": 330, "velocity": 100}, {"time": 22880, "pitch": 62, "duration": 55, "velocity": 100}, {"time": 22880, "pitch": 66, "duration": 110, "velocity": 100}, {"time": 22880, "pitch": 90, "duration": 110, "velocity": 100}, {"time": 22990, "pitch": 62, "duration": 110, "velocity": 100}, {"time": 23045, "pitch": 66, "duration": 55, "velocity": 100}, {"time": 23045, "pitch": 88, "duration": 55, "velocity": 100}, {"time": 23100, "pitch": 69, "duration": 110, "velocity": 100}, {"time": 23100, "pitch": 86, "duration": 55, "velocity": 100}, {"time": 23155, "pitch": 66, "duration": 55, "velocity": 100}, {"time": 23155, "pitch": 83, "duration": 55, "velocity": 100}, {"time": 23210, "pitch": 69, "duration": 55, "velocity": 100}, {"time": 23210, "pitch": 81, "duration": 55, "velocity": 100}, {"time": 23210, "pitch": 86, "duration": 55, "velocity": 100}, {"time": 23265, "pitch": 78, "duration": 55, "velocity": 100}, {"time": 23265, "pitch": 86, "duration": 55, "velocity": 100}, {"time": 23320, "pitch": 50, "duration": 440, "velocity": 100}, {"time": 23320, "pitch": 62, "duration": 55, "velocity": 100}, {"time": 23320, "pitch": 66, "duration": 110, "velocity": 100}, {"time": 23320, "pitch": 78, "duration": 275, "velocity": 100}, {"time": 23320, "pitch": 81, "duration": 275, "velocity": 100}, {"time": 23375, "pitch": 57, "duration": 220, "velocity": 100}, {"time": 23430, "pitch": 62, "duration": 55, "velocity": 100}, {"time": 23485, "pitch": 66, "duration": 110, "velocity": 100}, {"time": 23595, "pitch": 62, "duration": 55, "velocity": 100}, {"time": 23650, "pitch": 57, "duration": 55, "velocity": 100}, {"time": 23650, "pitch": 64, "duration": 55, "velocity": 100}, {"time": 23650, "pitch": 78, "duration": 55, "velocity": 100}, {"time": 23705, "pitch": 78, "duration": 55, "velocity": 100}, {"time": 23760, "pitch": 50, "duration": 275, "velocity": 100}, {"time": 23760, "pitch": 62, "duration": 110, "velocity": 100}, {"time": 23760, "pitch": 66, "duration": 110, "velocity": 100}, {"time": 23760, "pitch": 78, "duration": 220, "velocity": 100}, {"time": 23870, "pitch": 57, "duration": 110, "velocity": 100}, {"time": 23980, "pitch": 62, "duration": 55, "velocity": 100}, {"time": 23980, "pitch": 69, "duration": 220, "velocity": 100}, {"time": 24090, "pitch": 78, "duration": 55, "velocity": 100}, {"time": 24145, "pitch": 78, "duration": 55, "velocity": 100}, {"time": 24200, "pitch": 38, "duration": 275, "velocity": 100}, {"time": 24200, "pitch": 66, "duration": 110, "velocity": 100}, {"time": 24200, "pitch": 69, "duration": 165, "velocity": 100}, {"time": 24200, "pitch": 78, "duration": 275, "velocity": 100}, {"time": 24310, "pitch": 50, "duration": 165, "velocity": 100}, {"time": 24365, "pitch": 69, "duration": 110, "velocity": 100}, {"time": 24475, "pitch": 69, "duration": 55, "velocity": 100}, {"time": 24530, "pitch": 74, "duration": 55, "velocity": 100}, {"time": 24640, "pitch": 55, "duration": 330, "velocity": 100}, {"time": 24640, "pitch": 62, "duration": 55, "velocity": 100}, {"time": 24640, "pitch": 67, "duration": 110, "velocity": 100}, {"time": 24640, "pitch": 83, "duration": 110, "velocity": 100}, {"time": 24640, "pitch": 91, "duration": 110, "velocity": 100}, {"time": 24750, "pitch": 62, "duration": 110, "velocity": 100}, {"time": 24750, "pitch": 74, "duration": 110, "velocity": 100}, {"time": 24750, "pitch": 86, "duration": 110, "velocity": 100}, {"time": 24805, "pitch": 67, "duration": 55, "velocity": 100}, {"time": 24860, "pitch": 79, "duration": 165, "velocity": 100}, {"time": 24860, "pitch": 88, "duration": 220, "velocity": 100}, {"time": 24915, "pitch": 67, "duration": 55, "velocity": 100}, {"time": 24915, "pitch": 71, "duration": 55, "velocity": 100}, {"time": 24970, "pitch": 67, "duration": 55, "velocity": 100}, {"time": 24970, "pitch": 91, "duration": 110, "velocity": 100}, {"time": 25080, "pitch": 55, "duration": 330, "velocity": 100}, {"time": 25080, "pitch": 62, "duration": 110, "velocity": 100}, {"time": 25080, "pitch": 67, "duration": 110, "velocity": 100}, {"time": 25080, "pitch": 74, "duration": 440, "velocity": 100}, {"time": 25080, "pitch": 91, "duration": 440, "velocity": 100}, {"time": 25190, "pitch": 59, "duration": 110, "velocity": 100}, {"time": 25245, "pitch": 62, "duration": 110, "velocity": 100}, {"time": 25355, "pitch": 67, "duration": 55, "velocity": 100}, {"time": 25410, "pitch": 62, "duration": 55, "velocity": 100}, {"time": 25465, "pitch": 62, "duration": 110, "velocity": 100}, {"time": 25520, "pitch": 43, "duration": 275, "velocity": 100}, {"time": 25520, "pitch": 74, "duration": 440, "velocity": 100}, {"time": 25630, "pitch": 50, "duration": 275, "velocity": 100}, {"time": 25685, "pitch": 55, "duration": 110, "velocity": 100}, {"time": 25740, "pitch": 59, "duration": 110, "velocity": 100}, {"time": 25795, "pitch": 67, "duration": 55, "velocity": 100}, {"time": 25850, "pitch": 67, "duration": 55, "velocity": 100}, {"time": 25905, "pitch": 59, "duration": 55, "velocity": 100}, {"time": 25960, "pitch": 50, "duration": 110, "velocity": 100}, {"time": 25960, "pitch": 79, "duration": 220, "velocity": 100}, {"time": 26015, "pitch": 59, "duration": 110, "velocity": 100}, {"time": 26070, "pitch": 62, "duration": 55, "velocity": 100}, {"time": 26125, "pitch": 67, "duration": 55, "velocity": 100}, {"time": 26180, "pitch": 50, "duration": 165, "velocity": 100}, {"time": 26180, "pitch": 76, "duration": 220, "velocity": 100}, {"time": 26235, "pitch": 55, "duration": 55, "velocity": 100}, {"time": 26290, "pitch": 59, "duration": 110, "velocity": 100}, {"time": 26345, "pitch": 62, "duration": 55, "velocity": 100}, {"time": 26400, "pitch": 47, "duration": 275, "velocity": 100}, {"time": 26400, "pitch": 71, "duration": 440, "velocity": 100}, {"time": 26455, "pitch": 55, "duration": 55, "velocity": 100}, {"time": 26510, "pitch": 59, "duration": 110, "velocity": 100}, {"time": 26510, "pitch": 62, "duration": 55, "velocity": 100}, {"time": 26620, "pitch": 59, "duration": 55, "velocity": 100}, {"time": 26620, "pitch": 62, "duration": 220, "velocity": 100}, {"time": 26620, "pitch": 67, "duration": 165, "velocity": 100}, {"time": 26730, "pitch": 86, "duration": 55, "velocity": 100}, {"time": 26840, "pitch": 55, "duration": 220, "velocity": 100}, {"time": 26840, "pitch": 79, "duration": 330, "velocity": 100}, {"time": 26840, "pitch": 83, "duration": 440, "velocity": 100}, {"time": 26840, "pitch": 86, "duration": 440, "velocity": 100}, {"time": 26950, "pitch": 62, "duration": 55, "velocity": 100}, {"time": 27060, "pitch": 67, "duration": 55, "velocity": 100}, {"time": 27060, "pitch": 71, "duration": 110, "velocity": 100}, {"time": 27170, "pitch": 62, "duration": 55, "velocity": 100}, {"time": 27225, "pitch": 67, "duration": 55, "velocity": 100}, {"time": 27280, "pitch": 43, "duration": 220, "velocity": 100}, {"time": 27280, "pitch": 67, "duration": 220, "velocity": 100}, {"time": 27280, "pitch": 79, "duration": 440, "velocity": 100}, {"time": 27390, "pitch": 50, "duration": 110, "velocity": 100}, {"time": 27500, "pitch": 59, "duration": 55, "velocity": 100}, {"time": 27500, "pitch": 62, "duration": 110, "velocity": 100}, {"time": 27500, "pitch": 67, "duration": 110, "velocity": 100}, {"time": 27610, "pitch": 79, "duration": 110, "velocity": 100}, {"time": 27720, "pitch": 50, "duration": 330, "velocity": 100}, {"time": 27720, "pitch": 62, "duration": 110, "velocity": 100}, {"time": 27720, "pitch": 67, "duration": 220, "velocity": 100}, {"time": 27720, "pitch": 71, "duration": 385, "velocity": 100}, {"time": 27720, "pitch": 79, "duration": 385, "velocity": 100}, {"time": 27830, "pitch": 59, "duration": 55, "velocity": 100}, {"time": 27940, "pitch": 62, "duration": 110, "velocity": 100}, {"time": 27995, "pitch": 57, "duration": 55, "velocity": 100}, {"time": 28050, "pitch": 62, "duration": 55, "velocity": 100}, {"time": 28105, "pitch": 66, "duration": 55, "velocity": 100}, {"time": 28105, "pitch": 69, "duration": 55, "velocity": 100}, {"time": 28160, "pitch": 38, "duration": 385, "velocity": 100}, {"time": 28160, "pitch": 57, "duration": 55, "velocity": 100}, {"time": 28160, "pitch": 62, "duration": 110, "velocity": 100}, {"time": 28160, "pitch": 81, "duration": 330, "velocity": 100}, {"time": 28270, "pitch": 54, "duration": 55, "velocity": 100}, {"time": 28380, "pitch": 54, "duration": 55, "velocity": 100}, {"time": 28380, "pitch": 57, "duration": 55, "velocity": 100}, {"time": 28380, "pitch": 62, "duration": 55, "velocity": 100}, {"time": 28435, "pitch": 45, "duration": 110, "velocity": 100}, {"time": 28490, "pitch": 54, "duration": 55, "velocity": 100}, {"time": 28490, "pitch": 79, "duration": 110, "velocity": 100}, {"time": 28545, "pitch": 57, "duration": 55, "velocity": 100}, {"time": 28600, "pitch": 38, "duration": 275, "velocity": 100}, {"time": 28600, "pitch": 54, "duration": 110, "velocity": 100}, {"time": 28600, "pitch": 57, "duration": 110, "velocity": 100}, {"time": 28600, "pitch": 62, "duration": 110, "velocity": 100}, {"time": 28600, "pitch": 81, "duration": 330, "velocity": 100}, {"time": 28710, "pitch": 45, "duration": 110, "velocity": 100}, {"time": 28820, "pitch": 54, "duration": 55, "velocity": 100}, {"time": 28820, "pitch": 57, "duration": 55, "velocity": 100}, {"time": 28820, "pitch": 62, "duration": 55, "velocity": 100}, {"time": 28875, "pitch": 45, "duration": 55, "velocity": 100}, {"time": 28930, "pitch": 54, "duration": 55, "velocity": 100}, {"time": 28930, "pitch": 76, "duration": 110, "velocity": 100}, {"time": 29040, "pitch": 38, "duration": 385, "velocity": 100}, {"time": 29040, "pitch": 57, "duration": 110, "velocity": 100}, {"time": 29040, "pitch": 62, "duration": 110, "velocity": 100}, {"time": 29040, "pitch": 81, "duration": 330, "velocity": 100}, {"time": 29150, "pitch": 50, "duration": 110, "velocity": 100}, {"time": 29260, "pitch": 54, "duration": 55, "velocity": 100}, {"time": 29260, "pitch": 57, "duration": 55, "velocity": 100}, {"time": 29260, "pitch": 62, "duration": 55, "velocity": 100}, {"time": 29315, "pitch": 45, "duration": 110, "velocity": 100}, {"time": 29370, "pitch": 57, "duration": 55, "velocity": 100}, {"time": 29370, "pitch": 81, "duration": 110, "velocity": 100}, {"time": 29425, "pitch": 57, "duration": 55, "velocity": 100}, {"time": 29480, "pitch": 38, "duration": 385, "velocity": 100}, {"time": 29480, "pitch": 54, "duration": 110, "velocity": 100}, {"time": 29480, "pitch": 57, "duration": 110, "velocity": 100}, {"time": 29480, "pitch": 81, "duration": 110, "velocity": 100}, {"time": 29590, "pitch": 50, "duration": 110, "velocity": 100}, {"time": 29590, "pitch": 78, "duration": 110, "velocity": 100}, {"time": 29700, "pitch": 54, "duration": 55, "velocity": 100}, {"time": 29700, "pitch": 62, "duration": 55, "velocity": 100}, {"time": 29700, "pitch": 78, "duration": 110, "velocity": 100}, {"time": 29755, "pitch": 50, "duration": 55, "velocity": 100}, {"time": 29810, "pitch": 50, "duration": 55, "velocity": 100}, {"time": 29810, "pitch": 57, "duration": 55, "velocity": 100}, {"time": 29810, "pitch": 78, "duration": 110, "velocity": 100}, {"time": 29865, "pitch": 57, "duration": 55, "velocity": 100}, {"time": 29920, "pitch": 50, "duration": 220, "velocity": 100}, {"time": 29920, "pitch": 62, "duration": 110, "velocity": 100}, {"time": 29920, "pitch": 81, "duration": 330, "velocity": 100}, {"time": 30030, "pitch": 54, "duration": 55, "velocity": 100}, {"time": 30140, "pitch": 57, "duration": 55, "velocity": 100}, {"time": 30140, "pitch": 62, "duration": 55, "velocity": 100}, {"time": 30195, "pitch": 45, "duration": 55, "velocity": 100}, {"time": 30250, "pitch": 57, "duration": 55, "velocity": 100}, {"time": 30250, "pitch": 83, "duration": 110, "velocity": 100}, {"time": 30305, "pitch": 57, "duration": 55, "velocity": 100}, {"time": 30360, "pitch": 38, "duration": 220, "velocity": 100}, {"time": 30360, "pitch": 54, "duration": 55, "velocity": 100}, {"time": 30360, "pitch": 57, "duration": 110, "velocity": 100}, {"time": 30360, "pitch": 62, "duration": 110, "velocity": 100}, {"time": 30360, "pitch": 78, "duration": 220, "velocity": 100}, {"time": 30470, "pitch": 54, "duration": 55, "velocity": 100}, {"time": 30580, "pitch": 50, "duration": 55, "velocity": 100}, {"time": 30580, "pitch": 57, "duration": 55, "velocity": 100}, {"time": 30580, "pitch": 62, "duration": 110, "velocity": 100}, {"time": 30580, "pitch": 74, "duration": 110, "velocity": 100}, {"time": 30690, "pitch": 38, "duration": 55, "velocity": 100}, {"time": 30690, "pitch": 54, "duration": 55, "velocity": 100}, {"time": 30690, "pitch": 57, "duration": 110, "velocity": 100}, {"time": 30690, "pitch": 74, "duration": 110, "velocity": 100}, {"time": 30800, "pitch": 50, "duration": 55, "velocity": 100}, {"time": 30800, "pitch": 54, "duration": 55, "velocity": 100}, {"time": 30800, "pitch": 57, "duration": 55, "velocity": 100}, {"time": 30800, "pitch": 74, "duration": 440, "velocity": 100}, {"time": 30910, "pitch": 54, "duration": 55, "velocity": 100}, {"time": 30910, "pitch": 57, "duration": 55, "velocity": 100}, {"time": 31020, "pitch": 50, "duration": 55, "velocity": 100}, {"time": 31020, "pitch": 57, "duration": 55, "velocity": 100}, {"time": 31020, "pitch": 62, "duration": 110, "velocity": 100}, {"time": 31130, "pitch": 54, "duration": 55, "velocity": 100}, {"time": 31130, "pitch": 69, "duration": 110, "velocity": 100}, {"time": 31240, "pitch": 38, "duration": 220, "velocity": 100}, {"time": 31240, "pitch": 50, "duration": 55, "velocity": 100}, {"time": 31240, "pitch": 57, "duration": 110, "velocity": 100}, {"time": 31240, "pitch": 74, "duration": 110, "velocity": 100}, {"time": 31350, "pitch": 54, "duration": 55, "velocity": 100}, {"time": 31350, "pitch": 71, "duration": 110, "velocity": 100}, {"time": 31460, "pitch": 54, "duration": 55, "velocity": 100}, {"time": 31460, "pitch": 57, "duration": 55, "velocity": 100}, {"time": 31460, "pitch": 62, "duration": 110, "velocity": 100}, {"time": 31460, "pitch": 69, "duration": 220, "velocity": 100}, {"time": 31570, "pitch": 45, "duration": 55, "velocity": 100}, {"time": 31570, "pitch": 54, "duration": 55, "velocity": 100}, {"time": 31570, "pitch": 57, "duration": 55, "velocity": 100}, {"time": 31680, "pitch": 38, "duration": 275, "velocity": 100}, {"time": 31680, "pitch": 50, "duration": 55, "velocity": 100}, {"time": 31680, "pitch": 54, "duration": 110, "velocity": 100}, {"time": 31680, "pitch": 57, "duration": 110, "velocity": 100}, {"time": 31680, "pitch": 74, "duration": 660, "velocity": 100}, {"time": 31790, "pitch": 50, "duration": 110, "velocity": 100}, {"time": 31900, "pitch": 57, "duration": 55, "velocity": 100}, {"time": 31900, "pitch": 62, "duration": 55, "velocity": 100}, {"time": 31955, "pitch": 50, "duration": 110, "velocity": 100}, {"time": 32010, "pitch": 54, "duration": 55, "velocity": 100}, {"time": 32065, "pitch": 54, "duration": 55, "velocity": 100}, {"time": 32120, "pitch": 38, "duration": 165, "velocity": 100}, {"time": 32120, "pitch": 54, "duration": 55, "velocity": 100}, {"time": 32120, "pitch": 57, "duration": 110, "velocity": 100}, {"time": 32175, "pitch": 50, "duration": 55, "velocity": 100}, {"time": 32230, "pitch": 54, "duration": 55, "velocity": 100}, {"time": 32340, "pitch": 38, "duration": 110, "velocity": 100}, {"time": 32340, "pitch": 50, "duration": 55, "velocity": 100}, {"time": 32340, "pitch": 57, "duration": 110, "velocity": 100}, {"time": 32340, "pitch": 62, "duration": 110, "velocity": 100}, {"time": 32340, "pitch": 71, "duration": 110, "velocity": 100}, {"time": 32450, "pitch": 45, "duration": 55, "velocity": 100}, {"time": 32450, "pitch": 74, "duration": 55, "velocity": 100}, {"time": 32560, "pitch": 38, "duration": 275, "velocity": 100}, {"time": 32560, "pitch": 50, "duration": 55, "velocity": 100}, {"time": 32560, "pitch": 57, "duration": 110, "velocity": 100}, {"time": 32560, "pitch": 74, "duration": 550, "velocity": 100}, {"time": 32670, "pitch": 50, "duration": 110, "velocity": 100}, {"time": 32780, "pitch": 54, "duration": 55, "velocity": 100}, {"time": 32780, "pitch": 62, "duration": 55, "velocity": 100}, {"time": 32835, "pitch": 50, "duration": 55, "velocity": 100}, {"time": 32890, "pitch": 57, "duration": 55, "velocity": 100}, {"time": 32945, "pitch": 54, "duration": 55, "velocity": 100}, {"time": 33000, "pitch": 38, "duration": 330, "velocity": 100}, {"time": 33000, "pitch": 54, "duration": 110, "velocity": 100}, {"time": 33000, "pitch": 57, "duration": 110, "velocity": 100}, {"time": 33110, "pitch": 50, "duration": 110, "velocity": 100}, {"time": 33165, "pitch": 54, "duration": 55, "velocity": 100}, {"time": 33220, "pitch": 54, "duration": 55, "velocity": 100}, {"time": 33220, "pitch": 57, "duration": 55, "velocity": 100}, {"time": 33220, "pitch": 62, "duration": 55, "velocity": 100}, {"time": 33275, "pitch": 45, "duration": 55, "velocity": 100}, {"time": 33330, "pitch": 54, "duration": 55, "velocity": 100}, {"time": 33330, "pitch": 74, "duration": 110, "velocity": 100}, {"time": 33440, "pitch": 38, "duration": 330, "velocity": 100}, {"time": 33440, "pitch": 50, "duration": 110, "velocity": 100}, {"time": 33440, "pitch": 54, "duration": 110, "velocity": 100}, {"time": 33440, "pitch": 62, "duration": 165, "velocity": 100}, {"time": 33440, "pitch": 74, "duration": 440, "velocity": 100}, {"time": 33550, "pitch": 45, "duration": 110, "velocity": 100}, {"time": 33660, "pitch": 54, "duration": 55, "velocity": 100}, {"time": 33660, "pitch": 57, "duration": 110, "velocity": 100}, {"time": 33715, "pitch": 45, "duration": 110, "velocity": 100}, {"time": 33770, "pitch": 50, "duration": 55, "velocity": 100}, {"time": 33825, "pitch": 54, "duration": 55, "velocity": 100}, {"time": 33880, "pitch": 38, "duration": 275, "velocity": 100}, {"time": 33880, "pitch": 50, "duration": 55, "velocity": 100}, {"time": 33880, "pitch": 54, "duration": 110, "velocity": 100}, {"time": 33880, "pitch": 81, "duration": 220, "velocity": 100}, {"time": 33990, "pitch": 54, "duration": 55, "velocity": 100}, {"time": 34100, "pitch": 54, "duration": 55, "velocity": 100}, {"time": 34100, "pitch": 57, "duration": 110, "velocity": 100}, {"time": 34100, "pitch": 62, "duration": 110, "velocity": 100}, {"time": 34100, "pitch": 81, "duration": 220, "velocity": 100}, {"time": 34210, "pitch": 50, "duration": 55, "velocity": 100}, {"time": 34320, "pitch": 38, "duration": 275, "velocity": 100}, {"time": 34320, "pitch": 50, "duration": 55, "velocity": 100}, {"time": 34320, "pitch": 54, "duration": 110, "velocity": 100}, {"time": 34320, "pitch": 74, "duration": 825, "velocity": 100}, {"time": 34320, "pitch": 78, "duration": 825, "velocity": 100}, {"time": 34430, "pitch": 45, "duration": 110, "velocity": 100}, {"time": 34540, "pitch": 50, "duration": 55, "velocity": 100}, {"time": 34540, "pitch": 57, "duration": 55, "velocity": 100}, {"time": 34705, "pitch": 50, "duration": 55, "velocity": 100}, {"time": 34705, "pitch": 57, "duration": 55, "velocity": 100}, {"time": 34760, "pitch": 38, "duration": 385, "velocity": 100}, {"time": 34760, "pitch": 54, "duration": 110, "velocity": 100}, {"time": 34760, "pitch": 57, "duration": 110, "velocity": 100}, {"time": 34760, "pitch": 62, "duration": 110, "velocity": 100}, {"time": 34870, "pitch": 45, "duration": 110, "velocity": 100}, {"time": 34980, "pitch": 52, "duration": 55, "velocity": 100}, {"time": 34980, "pitch": 55, "duration": 110, "velocity": 100}, {"time": 34980, "pitch": 60, "duration": 110, "velocity": 100}, {"time": 34980, "pitch": 64, "duration": 220, "velocity": 100}, {"time": 34980, "pitch": 72, "duration": 55, "velocity": 100}, {"time": 35035, "pitch": 43, "duration": 55, "velocity": 100}, {"time": 35090, "pitch": 48, "duration": 110, "velocity": 100}, {"time": 35090, "pitch": 52, "duration": 110, "velocity": 100}, {"time": 35090, "pitch": 69, "duration": 55, "velocity": 100}, {"time": 35145, "pitch": 52, "duration": 55, "velocity": 100}, {"time": 35145, "pitch": 60, "duration": 55, "velocity": 100}, {"time": 35200, "pitch": 36, "duration": 385, "velocity": 100}, {"time": 35200, "pitch": 55, "duration": 55, "velocity": 100}, {"time": 35200, "pitch": 60, "duration": 110, "velocity": 100}, {"time": 35200, "pitch": 79, "duration": 330, "velocity": 100}, {"time": 35310, "pitch": 55, "duration": 55, "velocity": 100}, {"time": 35420, "pitch": 55, "duration": 55, "velocity": 100}, {"time": 35420, "pitch": 60, "duration": 55, "velocity": 100}, {"time": 35420, "pitch": 64, "duration": 55, "velocity": 100}, {"time": 35475, "pitch": 43, "duration": 110, "velocity": 100}, {"time": 35530, "pitch": 55, "duration": 55, "velocity": 100}, {"time": 35530, "pitch": 79, "duration": 110, "velocity": 100}, {"time": 35585, "pitch": 60, "duration": 55, "velocity": 100}, {"time": 35640, "pitch": 36, "duration": 275, "velocity": 100}, {"time": 35640, "pitch": 55, "duration": 110, "velocity": 100}, {"time": 35640, "pitch": 60, "duration": 110, "velocity": 100}, {"time": 35640, "pitch": 64, "duration": 110, "velocity": 100}, {"time": 35640, "pitch": 79, "duration": 330, "velocity": 100}, {"time": 35750, "pitch": 43, "duration": 110, "velocity": 100}, {"time": 35860, "pitch": 55, "duration": 55, "velocity": 100}, {"time": 35860, "pitch": 60, "duration": 55, "velocity": 100}, {"time": 35915, "pitch": 43, "duration": 55, "velocity": 100}, {"time": 35970, "pitch": 55, "duration": 55, "velocity": 100}, {"time": 35970, "pitch": 77, "duration": 110, "velocity": 100}, {"time": 36080, "pitch": 36, "duration": 385, "velocity": 100}, {"time": 36080, "pitch": 55, "duration": 110, "velocity": 100}, {"time": 36080, "pitch": 64, "duration": 110, "velocity": 100}, {"time": 36080, "pitch": 84, "duration": 330, "velocity": 100}, {"time": 36190, "pitch": 52, "duration": 110, "velocity": 100}, {"time": 36300, "pitch": 55, "duration": 55, "velocity": 100}, {"time": 36300, "pitch": 60, "duration": 55, "velocity": 100}, {"time": 36355, "pitch": 48, "duration": 110, "velocity": 100}, {"time": 36410, "pitch": 57, "duration": 55, "velocity": 100}, {"time": 36410, "pitch": 81, "duration": 110, "velocity": 100}, {"time": 36465, "pitch": 60, "duration": 55, "velocity": 100}, {"time": 36520, "pitch": 40, "duration": 385, "velocity": 100}, {"time": 36520, "pitch": 55, "duration": 110, "velocity": 100}, {"time": 36520, "pitch": 60, "duration": 110, "velocity": 100}, {"time": 36520, "pitch": 81, "duration": 110, "velocity": 100}, {"time": 36630, "pitch": 52, "duration": 110, "velocity": 100}, {"time": 36630, "pitch": 77, "duration": 110, "velocity": 100}, {"time": 36740, "pitch": 55, "duration": 55, "velocity": 100}, {"time": 36740, "pitch": 60, "duration": 55, "velocity": 100}, {"time": 36740, "pitch": 76, "duration": 110, "velocity": 100}, {"time": 36795, "pitch": 48, "duration": 55, "velocity": 100}, {"time": 36850, "pitch": 52, "duration": 55, "velocity": 100}, {"time": 36850, "pitch": 74, "duration": 55, "velocity": 100}, {"time": 36905, "pitch": 55, "duration": 55, "velocity": 100}, {"time": 36960, "pitch": 48, "duration": 220, "velocity": 100}, {"time": 36960, "pitch": 60, "duration": 110, "velocity": 100}, {"time": 36960, "pitch": 84, "duration": 330, "velocity": 100}, {"time": 37070, "pitch": 55, "duration": 55, "velocity": 100}, {"time": 37180, "pitch": 55, "duration": 55, "velocity": 100}, {"time": 37180, "pitch": 60, "duration": 55, "velocity": 100}, {"time": 37180, "pitch": 64, "duration": 55, "velocity": 100}, {"time": 37235, "pitch": 43, "duration": 55, "velocity": 100}, {"time": 37290, "pitch": 55, "duration": 55, "velocity": 100}, {"time": 37290, "pitch": 81, "duration": 110, "velocity": 100}, {"time": 37345, "pitch": 60, "duration": 55, "velocity": 100}, {"time": 37400, "pitch": 36, "duration": 220, "velocity": 100}, {"time": 37400, "pitch": 55, "duration": 55, "velocity": 100}, {"time": 37400, "pitch": 60, "duration": 110, "velocity": 100}, {"time": 37400, "pitch": 64, "duration": 110, "velocity": 100}, {"time": 37400, "pitch": 79, "duration": 220, "velocity": 100}, {"time": 37510, "pitch": 55, "duration": 55, "velocity": 100}, {"time": 37620, "pitch": 48, "duration": 55, "velocity": 100}, {"time": 37620, "pitch": 60, "duration": 110, "velocity": 100}, {"time": 37620, "pitch": 64, "duration": 110, "velocity": 100}, {"time": 37620, "pitch": 74, "duration": 110, "velocity": 100}, {"time": 37730, "pitch": 43, "duration": 55, "velocity": 100}, {"time": 37730, "pitch": 55, "duration": 55, "velocity": 100}, {"time": 37730, "pitch": 60, "duration": 110, "velocity": 100}, {"time": 37730, "pitch": 74, "duration": 110, "velocity": 100}, {"time": 37840, "pitch": 48, "duration": 110, "velocity": 100}, {"time": 37840, "pitch": 55, "duration": 55, "velocity": 100}, {"time": 37840, "pitch": 60, "duration": 55, "velocity": 100}, {"time": 37840, "pitch": 76, "duration": 330, "velocity": 100}, {"time": 37950, "pitch": 52, "duration": 55, "velocity": 100}, {"time": 37950, "pitch": 55, "duration": 55, "velocity": 100}, {"time": 38060, "pitch": 52, "duration": 55, "velocity": 100}, {"time": 38060, "pitch": 55, "duration": 55, "velocity": 100}, {"time": 38060, "pitch": 64, "duration": 110, "velocity": 100}, {"time": 38170, "pitch": 55, "duration": 55, "velocity": 100}, {"time": 38170, "pitch": 72, "duration": 110, "velocity": 100}, {"time": 38280, "pitch": 48, "duration": 220, "velocity": 100}, {"time": 38280, "pitch": 52, "duration": 55, "velocity": 100}, {"time": 38280, "pitch": 55, "duration": 110, "velocity": 100}, {"time": 38280, "pitch": 74, "duration": 110, "velocity": 100}, {"time": 38390, "pitch": 55, "duration": 55, "velocity": 100}, {"time": 38390, "pitch": 72, "duration": 110, "velocity": 100}, {"time": 38500, "pitch": 50, "duration": 55, "velocity": 100}, {"time": 38500, "pitch": 57, "duration": 55, "velocity": 100}, {"time": 38500, "pitch": 62, "duration": 110, "velocity": 100}, {"time": 38500, "pitch": 69, "duration": 220, "velocity": 100}, {"time": 38610, "pitch": 45, "duration": 55, "velocity": 100}, {"time": 38610, "pitch": 54, "duration": 110, "velocity": 100}, {"time": 38720, "pitch": 38, "duration": 275, "velocity": 100}, {"time": 38720, "pitch": 50, "duration": 55, "velocity": 100}, {"time": 38720, "pitch": 54, "duration": 110, "velocity": 100}, {"time": 38720, "pitch": 57, "duration": 110, "velocity": 100}, {"time": 38720, "pitch": 74, "duration": 660, "velocity": 100}, {"time": 38830, "pitch": 50, "duration": 110, "velocity": 100}, {"time": 38940, "pitch": 57, "duration": 55, "velocity": 100}, {"time": 38940, "pitch": 62, "duration": 55, "velocity": 100}, {"time": 38995, "pitch": 50, "duration": 110, "velocity": 100}, {"time": 39050, "pitch": 54, "duration": 55, "velocity": 100}, {"time": 39105, "pitch": 54, "duration": 55, "velocity": 100}, {"time": 39160, "pitch": 38, "duration": 165, "velocity": 100}, {"time": 39160, "pitch": 54, "duration": 55, "velocity": 100}, {"time": 39160, "pitch": 57, "duration": 110, "velocity": 100}, {"time": 39215, "pitch": 50, "duration": 55, "velocity": 100}, {"time": 39270, "pitch": 54, "duration": 55, "velocity": 100}, {"time": 39380, "pitch": 38, "duration": 110, "velocity": 100}, {"time": 39380, "pitch": 50, "duration": 55, "velocity": 100}, {"time": 39380, "pitch": 57, "duration": 110, "velocity": 100}, {"time": 39380, "pitch": 62, "duration": 110, "velocity": 100}, {"time": 39380, "pitch": 71, "duration": 110, "velocity": 100}, {"time": 39490, "pitch": 45, "duration": 55, "velocity": 100}, {"time": 39490, "pitch": 74, "duration": 55, "velocity": 100}, {"time": 39600, "pitch": 38, "duration": 275, "velocity": 100}, {"time": 39600, "pitch": 50, "duration": 55, "velocity": 100}, {"time": 39600, "pitch": 57, "duration": 110, "velocity": 100}, {"time": 39600, "pitch": 74, "duration": 550, "velocity": 100}, {"time": 39710, "pitch": 50, "duration": 110, "velocity": 100}, {"time": 39820, "pitch": 54, "duration": 55, "velocity": 100}, {"time": 39820, "pitch": 62, "duration": 55, "velocity": 100}, {"time": 39875, "pitch": 50, "duration": 55, "velocity": 100}, {"time": 39930, "pitch": 57, "duration": 55, "velocity": 100}, {"time": 39985, "pitch": 54, "duration": 55, "velocity": 100}, {"time": 40040, "pitch": 38, "duration": 330, "velocity": 100}, {"time": 40040, "pitch": 54, "duration": 110, "velocity": 100}, {"time": 40040, "pitch": 57, "duration": 110, "velocity": 100}, {"time": 40150, "pitch": 50, "duration": 110, "velocity": 100}, {"time": 40205, "pitch": 54, "duration": 55, "velocity": 100}, {"time": 40260, "pitch": 54, "duration": 55, "velocity": 100}, {"time": 40260, "pitch": 57, "duration": 55, "velocity": 100}, {"time": 40260, "pitch": 62, "duration": 55, "velocity": 100}, {"time": 40315, "pitch": 45, "duration": 55, "velocity": 100}, {"time": 40370, "pitch": 54, "duration": 55, "velocity": 100}, {"time": 40370, "pitch": 74, "duration": 110, "velocity": 100}, {"time": 40480, "pitch": 38, "duration": 385, "velocity": 100}, {"time": 40480, "pitch": 50, "duration": 165, "velocity": 100}, {"time": 40480, "pitch": 54, "duration": 165, "velocity": 100}, {"time": 40480, "pitch": 57, "duration": 165, "velocity": 100}, {"time": 40480, "pitch": 74, "duration": 440, "velocity": 100}, {"time": 40590, "pitch": 45, "duration": 110, "velocity": 100}, {"time": 40700, "pitch": 54, "duration": 55, "velocity": 100}, {"time": 40700, "pitch": 57, "duration": 110, "velocity": 100}, {"time": 40755, "pitch": 45, "duration": 110, "velocity": 100}, {"time": 40810, "pitch": 50, "duration": 55, "velocity": 100}, {"time": 40865, "pitch": 54, "duration": 55, "velocity": 100}, {"time": 40920, "pitch": 38, "duration": 275, "velocity": 100}, {"time": 40920, "pitch": 54, "duration": 55, "velocity": 100}, {"time": 40920, "pitch": 57, "duration": 110, "velocity": 100}, {"time": 40920, "pitch": 81, "duration": 220, "velocity": 100}, {"time": 41030, "pitch": 50, "duration": 55, "velocity": 100}, {"time": 41140, "pitch": 54, "duration": 55, "velocity": 100}, {"time": 41140, "pitch": 57, "duration": 110, "velocity": 100}, {"time": 41140, "pitch": 62, "duration": 110, "velocity": 100}, {"time": 41140, "pitch": 81, "duration": 165, "velocity": 100}, {"time": 41250, "pitch": 50, "duration": 55, "velocity": 100}, {"time": 41360, "pitch": 38, "duration": 385, "velocity": 100}, {"time": 41360, "pitch": 57, "duration": 220, "velocity": 100}, {"time": 41360, "pitch": 74, "duration": 660, "velocity": 100}, {"time": 41360, "pitch": 78, "duration": 660, "velocity": 100}, {"time": 41470, "pitch": 45, "duration": 275, "velocity": 100}, {"time": 41580, "pitch": 62, "duration": 220, "velocity": 100}, {"time": 41690, "pitch": 50, "duration": 165, "velocity": 100}, {"time": 41800, "pitch": 38, "duration": 385, "velocity": 100}, {"time": 41800, "pitch": 54, "duration": 165, "velocity": 100}, {"time": 41800, "pitch": 57, "duration": 55, "velocity": 100}, {"time": 41910, "pitch": 45, "duration": 275, "velocity": 100}, {"time": 42020, "pitch": 50, "duration": 165, "velocity": 100}, {"time": 42020, "pitch": 54, "duration": 165, "velocity": 100}, {"time": 42240, "pitch": 48, "duration": 385, "velocity": 100}, {"time": 42240, "pitch": 60, "duration": 220, "velocity": 100}, {"time": 42350, "pitch": 55, "duration": 275, "velocity": 100}, {"time": 42460, "pitch": 60, "duration": 55, "velocity": 100}, {"time": 42460, "pitch": 67, "duration": 330, "velocity": 100}, {"time": 42680, "pitch": 48, "duration": 385, "velocity": 100}, {"time": 42790, "pitch": 55, "duration": 110, "velocity": 100}, {"time": 42845, "pitch": 60, "duration": 55, "velocity": 100}, {"time": 42900, "pitch": 64, "duration": 110, "velocity": 100}, {"time": 42955, "pitch": 60, "duration": 55, "velocity": 100}, {"time": 43120, "pitch": 48, "duration": 385, "velocity": 100}, {"time": 43120, "pitch": 60, "duration": 110, "velocity": 100}, {"time": 43120, "pitch": 64, "duration": 165, "velocity": 100}, {"time": 43230, "pitch": 55, "duration": 275, "velocity": 100}, {"time": 43285, "pitch": 60, "duration": 110, "velocity": 100}, {"time": 43395, "pitch": 67, "duration": 110, "velocity": 100}, {"time": 43450, "pitch": 60, "duration": 55, "velocity": 100}, {"time": 43560, "pitch": 48, "duration": 385, "velocity": 100}, {"time": 43560, "pitch": 64, "duration": 165, "velocity": 100}, {"time": 43725, "pitch": 55, "duration": 165, "velocity": 100}, {"time": 43780, "pitch": 60, "duration": 110, "velocity": 100}, {"time": 43780, "pitch": 69, "duration": 55, "velocity": 100}, {"time": 43835, "pitch": 64, "duration": 55, "velocity": 100}, {"time": 43890, "pitch": 67, "duration": 110, "velocity": 100}, {"time": 43890, "pitch": 69, "duration": 110, "velocity": 100}, {"time": 43945, "pitch": 72, "duration": 55, "velocity": 100}, {"time": 44000, "pitch": 48, "duration": 385, "velocity": 100}, {"time": 44000, "pitch": 72, "duration": 440, "velocity": 100}, {"time": 44110, "pitch": 55, "duration": 220, "velocity": 100}, {"time": 44220, "pitch": 60, "duration": 55, "velocity": 100}, {"time": 44220, "pitch": 64, "duration": 110, "velocity": 100}, {"time": 44330, "pitch": 60, "duration": 55, "velocity": 100}, {"time": 44440, "pitch": 48, "duration": 330, "velocity": 100}, {"time": 44440, "pitch": 64, "duration": 165, "velocity": 100}, {"time": 44550, "pitch": 55, "duration": 165, "velocity": 100}, {"time": 44605, "pitch": 60, "duration": 110, "velocity": 100}, {"time": 44715, "pitch": 64, "duration": 55, "velocity": 100}, {"time": 44770, "pitch": 60, "duration": 55, "velocity": 100}, {"time": 44880, "pitch": 48, "duration": 385, "velocity": 100}, {"time": 44880, "pitch": 60, "duration": 110, "velocity": 100}, {"time": 44880, "pitch": 64, "duration": 165, "velocity": 100}, {"time": 44990, "pitch": 55, "duration": 275, "velocity": 100}, {"time": 45045, "pitch": 67, "duration": 110, "velocity": 100}, {"time": 45155, "pitch": 67, "duration": 55, "velocity": 100}, {"time": 45210, "pitch": 60, "duration": 55, "velocity": 100}, {"time": 45320, "pitch": 48, "duration": 330, "velocity": 100}, {"time": 45320, "pitch": 60, "duration": 110, "velocity": 100}, {"time": 45320, "pitch": 64, "duration": 165, "velocity": 100}, {"time": 45430, "pitch": 55, "duration": 165, "velocity": 100}, {"time": 45485, "pitch": 64, "duration": 55, "velocity": 100}, {"time": 45540, "pitch": 60, "duration": 55, "velocity": 100}, {"time": 45540, "pitch": 64, "duration": 110, "velocity": 100}, {"time": 45760, "pitch": 52, "duration": 275, "velocity": 100}, {"time": 45760, "pitch": 60, "duration": 55, "velocity": 100}, {"time": 45760, "pitch": 64, "duration": 220, "velocity": 100}, {"time": 45870, "pitch": 60, "duration": 110, "velocity": 100}, {"time": 45980, "pitch": 72, "duration": 165, "velocity": 100}, {"time": 46090, "pitch": 60, "duration": 55, "velocity": 100}, {"time": 46145, "pitch": 64, "duration": 55, "velocity": 100}, {"time": 46200, "pitch": 36, "duration": 330, "velocity": 100}, {"time": 46200, "pitch": 67, "duration": 330, "velocity": 100}, {"time": 46310, "pitch": 48, "duration": 165, "velocity": 100}, {"time": 46365, "pitch": 55, "duration": 275, "velocity": 100}, {"time": 46475, "pitch": 60, "duration": 165, "velocity": 100}, {"time": 46530, "pitch": 67, "duration": 220, "velocity": 100}, {"time": 46585, "pitch": 55, "duration": 165, "velocity": 100}, {"time": 46640, "pitch": 48, "duration": 165, "velocity": 100}, {"time": 46640, "pitch": 84, "duration": 220, "velocity": 100}, {"time": 46695, "pitch": 55, "duration": 55, "velocity": 100}, {"time": 46750, "pitch": 60, "duration": 55, "velocity": 100}, {"time": 46860, "pitch": 48, "duration": 165, "velocity": 100}, {"time": 46860, "pitch": 60, "duration": 165, "velocity": 100}, {"time": 46860, "pitch": 64, "duration": 220, "velocity": 100}, {"time": 46860, "pitch": 84, "duration": 220, "velocity": 100}, {"time": 47080, "pitch": 48, "duration": 330, "velocity": 100}, {"time": 47080, "pitch": 60, "duration": 110, "velocity": 100}, {"time": 47080, "pitch": 64, "duration": 165, "velocity": 100}, {"time": 47080, "pitch": 79, "duration": 440, "velocity": 100}, {"time": 47190, "pitch": 55, "duration": 165, "velocity": 100}, {"time": 47245, "pitch": 60, "duration": 110, "velocity": 100}, {"time": 47355, "pitch": 67, "duration": 55, "velocity": 100}, {"time": 47410, "pitch": 60, "duration": 55, "velocity": 100}, {"time": 47465, "pitch": 60, "duration": 55, "velocity": 100}, {"time": 47520, "pitch": 52, "duration": 275, "velocity": 100}, {"time": 47630, "pitch": 60, "duration": 165, "velocity": 100}, {"time": 47740, "pitch": 64, "duration": 55, "velocity": 100}, {"time": 47740, "pitch": 67, "duration": 220, "velocity": 100}, {"time": 47740, "pitch": 72, "duration": 220, "velocity": 100}, {"time": 47960, "pitch": 48, "duration": 220, "velocity": 100}, {"time": 48015, "pitch": 60, "duration": 55, "velocity": 100}, {"time": 48070, "pitch": 67, "duration": 55, "velocity": 100}, {"time": 48125, "pitch": 67, "duration": 165, "velocity": 100}, {"time": 48180, "pitch": 52, "duration": 110, "velocity": 100}, {"time": 48235, "pitch": 64, "duration": 55, "velocity": 100}, {"time": 48290, "pitch": 67, "duration": 55, "velocity": 100}, {"time": 48345, "pitch": 64, "duration": 55, "velocity": 100}, {"time": 48400, "pitch": 36, "duration": 385, "velocity": 100}, {"time": 48400, "pitch": 64, "duration": 110, "velocity": 100}, {"time": 48400, "pitch": 67, "duration": 165, "velocity": 100}, {"time": 48510, "pitch": 48, "duration": 275, "velocity": 100}, {"time": 48565, "pitch": 60, "duration": 110, "velocity": 100}, {"time": 48675, "pitch": 67, "duration": 55, "velocity": 100}, {"time": 48675, "pitch": 91, "duration": 55, "velocity": 100}, {"time": 48730, "pitch": 62, "duration": 110, "velocity": 100}, {"time": 48785, "pitch": 67, "duration": 55, "velocity": 100}, {"time": 48785, "pitch": 86, "duration": 55, "velocity": 100}, {"time": 48785, "pitch": 91, "duration": 55, "velocity": 100}, {"time": 48840, "pitch": 40, "duration": 440, "velocity": 100}, {"time": 48840, "pitch": 60, "duration": 55, "velocity": 100}, {"time": 48840, "pitch": 67, "duration": 55, "velocity": 100}, {"time": 48840, "pitch": 76, "duration": 275, "velocity": 100}, {"time": 49060, "pitch": 62, "duration": 55, "velocity": 100}, {"time": 49060, "pitch": 67, "duration": 220, "velocity": 100}, {"time": 49170, "pitch": 62, "duration": 110, "velocity": 100}, {"time": 49280, "pitch": 43, "duration": 385, "velocity": 100}, {"time": 49280, "pitch": 55, "duration": 165, "velocity": 100}, {"time": 49280, "pitch": 62, "duration": 165, "velocity": 100}, {"time": 49280, "pitch": 67, "duration": 385, "velocity": 100}, {"time": 49280, "pitch": 71, "duration": 385, "velocity": 100}, {"time": 49390, "pitch": 50, "duration": 165, "velocity": 100}, {"time": 49500, "pitch": 55, "duration": 55, "velocity": 100}, {"time": 49500, "pitch": 59, "duration": 110, "velocity": 100}, {"time": 49500, "pitch": 62, "duration": 165, "velocity": 100}, {"time": 49610, "pitch": 50, "duration": 110, "velocity": 100}, {"time": 49665, "pitch": 55, "duration": 55, "velocity": 100}, {"time": 49720, "pitch": 43, "duration": 275, "velocity": 100}, {"time": 49720, "pitch": 55, "duration": 110, "velocity": 100}, {"time": 49720, "pitch": 62, "duration": 110, "velocity": 100}, {"time": 49720, "pitch": 67, "duration": 385, "velocity": 100}, {"time": 49720, "pitch": 71, "duration": 385, "velocity": 100}, {"time": 49830, "pitch": 50, "duration": 165, "velocity": 100}, {"time": 49885, "pitch": 55, "duration": 55, "velocity": 100}, {"time": 49940, "pitch": 55, "duration": 55, "velocity": 100}, {"time": 49940, "pitch": 62, "duration": 110, "velocity": 100}, {"time": 50050, "pitch": 50, "duration": 110, "velocity": 100}, {"time": 50160, "pitch": 43, "duration": 275, "velocity": 100}, {"time": 50160, "pitch": 59, "duration": 110, "velocity": 100}, {"time": 50160, "pitch": 67, "duration": 110, "velocity": 100}, {"time": 50160, "pitch": 71, "duration": 385, "velocity": 100}, {"time": 50160, "pitch": 74, "duration": 385, "velocity": 100}, {"time": 50270, "pitch": 55, "duration": 110, "velocity": 100}, {"time": 50380, "pitch": 59, "duration": 55, "velocity": 100}, {"time": 50380, "pitch": 62, "duration": 55, "velocity": 100}, {"time": 50435, "pitch": 55, "duration": 55, "velocity": 100}, {"time": 50490, "pitch": 59, "duration": 55, "velocity": 100}, {"time": 50600, "pitch": 43, "duration": 330, "velocity": 100}, {"time": 50600, "pitch": 55, "duration": 55, "velocity": 100}, {"time": 50600, "pitch": 59, "duration": 110, "velocity": 100}, {"time": 50600, "pitch": 62, "duration": 165, "velocity": 100}, {"time": 50600, "pitch": 71, "duration": 220, "velocity": 100}, {"time": 50710, "pitch": 55, "duration": 110, "velocity": 100}, {"time": 50765, "pitch": 59, "duration": 55, "velocity": 100}, {"time": 50820, "pitch": 62, "duration": 110, "velocity": 100}, {"time": 50820, "pitch": 79, "duration": 110, "velocity": 100}, {"time": 50930, "pitch": 59, "duration": 55, "velocity": 100}, {"time": 50930, "pitch": 81, "duration": 110, "velocity": 100}, {"time": 51040, "pitch": 43, "duration": 385, "velocity": 100}, {"time": 51040, "pitch": 55, "duration": 55, "velocity": 100}, {"time": 51040, "pitch": 59, "duration": 110, "velocity": 100}, {"time": 51040, "pitch": 67, "duration": 110, "velocity": 100}, {"time": 51040, "pitch": 71, "duration": 440, "velocity": 100}, {"time": 51040, "pitch": 79, "duration": 440, "velocity": 100}, {"time": 51095, "pitch": 50, "duration": 220, "velocity": 100}, {"time": 51150, "pitch": 55, "duration": 55, "velocity": 100}, {"time": 51205, "pitch": 59, "duration": 110, "velocity": 100}, {"time": 51315, "pitch": 55, "duration": 55, "velocity": 100}, {"time": 51315, "pitch": 59, "duration": 55, "velocity": 100}, {"time": 51370, "pitch": 50, "duration": 110, "velocity": 100}, {"time": 51480, "pitch": 43, "duration": 275, "velocity": 100}, {"time": 51480, "pitch": 55, "duration": 110, "velocity": 100}, {"time": 51480, "pitch": 59, "duration": 165, "velocity": 100}, {"time": 51480, "pitch": 67, "duration": 275, "velocity": 100}, {"time": 51480, "pitch": 71, "duration": 440, "velocity": 100}, {"time": 51590, "pitch": 50, "duration": 165, "velocity": 100}, {"time": 51700, "pitch": 55, "duration": 55, "velocity": 100}, {"time": 51700, "pitch": 62, "duration": 55, "velocity": 100}, {"time": 51920, "pitch": 31, "duration": 275, "velocity": 100}, {"time": 51920, "pitch": 55, "duration": 110, "velocity": 100}, {"time": 51920, "pitch": 62, "duration": 220, "velocity": 100}, {"time": 51920, "pitch": 71, "duration": 275, "velocity": 100}, {"time": 52030, "pitch": 43, "duration": 220, "velocity": 100}, {"time": 52085, "pitch": 62, "duration": 110, "velocity": 100}, {"time": 52195, "pitch": 59, "duration": 55, "velocity": 100}, {"time": 52250, "pitch": 67, "duration": 55, "velocity": 100}, {"time": 52360, "pitch": 43, "duration": 330, "velocity": 100}, {"time": 52360, "pitch": 55, "duration": 55, "velocity": 100}, {"time": 52360, "pitch": 59, "duration": 110, "velocity": 100}, {"time": 52360, "pitch": 71, "duration": 110, "velocity": 100}, {"time": 52360, "pitch": 74, "duration": 165, "velocity": 100}, {"time": 52470, "pitch": 55, "duration": 110, "velocity": 100}, {"time": 52470, "pitch": 74, "duration": 55, "velocity": 100}, {"time": 52525, "pitch": 59, "duration": 55, "velocity": 100}, {"time": 52525, "pitch": 79, "duration": 55, "velocity": 100}, {"time": 52580, "pitch": 83, "duration": 110, "velocity": 100}, {"time": 52635, "pitch": 59, "duration": 55, "velocity": 100}, {"time": 52635, "pitch": 62, "duration": 55, "velocity": 100}, {"time": 52690, "pitch": 59, "duration": 110, "velocity": 100}, {"time": 52800, "pitch": 43, "duration": 330, "velocity": 100}, {"time": 52800, "pitch": 55, "duration": 110, "velocity": 100}, {"time": 52800, "pitch": 59, "duration": 220, "velocity": 100}, {"time": 52800, "pitch": 79, "duration": 440, "velocity": 100}, {"time": 52910, "pitch": 50, "duration": 110, "velocity": 100}, {"time": 52965, "pitch": 55, "duration": 110, "velocity": 100}, {"time": 53020, "pitch": 74, "duration": 220, "velocity": 100}, {"time": 53075, "pitch": 59, "duration": 110, "velocity": 100}, {"time": 53130, "pitch": 50, "duration": 55, "velocity": 100}, {"time": 53185, "pitch": 55, "duration": 165, "velocity": 100}, {"time": 53240, "pitch": 31, "duration": 440, "velocity": 100}, {"time": 53240, "pitch": 79, "duration": 110, "velocity": 100}, {"time": 53350, "pitch": 43, "duration": 275, "velocity": 100}, {"time": 53350, "pitch": 79, "duration": 110, "velocity": 100}, {"time": 53405, "pitch": 50, "duration": 55, "velocity": 100}, {"time": 53460, "pitch": 55, "duration": 55, "velocity": 100}, {"time": 53460, "pitch": 79, "duration": 220, "velocity": 100}, {"time": 53515, "pitch": 59, "duration": 110, "velocity": 100}, {"time": 53570, "pitch": 59, "duration": 110, "velocity": 100}, {"time": 53625, "pitch": 55, "duration": 55, "velocity": 100}, {"time": 53680, "pitch": 31, "duration": 165, "velocity": 100}, {"time": 53680, "pitch": 83, "duration": 220, "velocity": 100}, {"time": 53735, "pitch": 50, "duration": 110, "velocity": 100}, {"time": 53790, "pitch": 55, "duration": 55, "velocity": 100}, {"time": 53845, "pitch": 59, "duration": 55, "velocity": 100}, {"time": 53900, "pitch": 38, "duration": 220, "velocity": 100}, {"time": 53900, "pitch": 81, "duration": 220, "velocity": 100}, {"time": 53955, "pitch": 50, "duration": 110, "velocity": 100}, {"time": 54010, "pitch": 55, "duration": 110, "velocity": 100}, {"time": 54065, "pitch": 59, "duration": 55, "velocity": 100}, {"time": 54120, "pitch": 43, "duration": 275, "velocity": 100}, {"time": 54120, "pitch": 79, "duration": 220, "velocity": 100}, {"time": 54175, "pitch": 50, "duration": 55, "velocity": 100}, {"time": 54230, "pitch": 50, "duration": 110, "velocity": 100}, {"time": 54340, "pitch": 50, "duration": 55, "velocity": 100}, {"time": 54340, "pitch": 55, "duration": 55, "velocity": 100}, {"time": 54340, "pitch": 59, "duration": 110, "velocity": 100}, {"time": 54340, "pitch": 62, "duration": 220, "velocity": 100}, {"time": 54450, "pitch": 62, "duration": 110, "velocity": 100}, {"time": 54560, "pitch": 43, "duration": 275, "velocity": 100}, {"time": 54560, "pitch": 67, "duration": 385, "velocity": 100}, {"time": 54560, "pitch": 71, "duration": 440, "velocity": 100}, {"time": 54670, "pitch": 55, "duration": 55, "velocity": 100}, {"time": 54780, "pitch": 55, "duration": 55, "velocity": 100}, {"time": 54780, "pitch": 59, "duration": 110, "velocity": 100}, {"time": 54890, "pitch": 55, "duration": 55, "velocity": 100}, {"time": 54945, "pitch": 59, "duration": 55, "velocity": 100}, {"time": 55000, "pitch": 31, "duration": 275, "velocity": 100}, {"time": 55000, "pitch": 59, "duration": 220, "velocity": 100}, {"time": 55000, "pitch": 67, "duration": 220, "velocity": 100}, {"time": 55000, "pitch": 74, "duration": 110, "velocity": 100}, {"time": 55110, "pitch": 43, "duration": 110, "velocity": 100}, {"time": 55110, "pitch": 76, "duration": 110, "velocity": 100}, {"time": 55220, "pitch": 50, "duration": 55, "velocity": 100}, {"time": 55220, "pitch": 55, "duration": 110, "velocity": 100}, {"time": 55220, "pitch": 59, "duration": 220, "velocity": 100}, {"time": 55220, "pitch": 79, "duration": 220, "velocity": 100}, {"time": 55440, "pitch": 43, "duration": 385, "velocity": 100}, {"time": 55440, "pitch": 55, "duration": 110, "velocity": 100}, {"time": 55440, "pitch": 59, "duration": 165, "velocity": 100}, {"time": 55440, "pitch": 79, "duration": 440, "velocity": 100}, {"time": 55550, "pitch": 50, "duration": 110, "velocity": 100}, {"time": 55660, "pitch": 55, "duration": 55, "velocity": 100}, {"time": 55660, "pitch": 59, "duration": 55, "velocity": 100}, {"time": 55715, "pitch": 50, "duration": 110, "velocity": 100}, {"time": 55770, "pitch": 55, "duration": 55, "velocity": 100}, {"time": 55825, "pitch": 59, "duration": 55, "velocity": 100}, {"time": 55825, "pitch": 62, "duration": 55, "velocity": 100}, {"time": 55880, "pitch": 43, "duration": 275, "velocity": 100}, {"time": 55880, "pitch": 55, "duration": 110, "velocity": 100}, {"time": 55880, "pitch": 59, "duration": 110, "velocity": 100}, {"time": 55880, "pitch": 62, "duration": 110, "velocity": 100}, {"time": 55880, "pitch": 67, "duration": 55, "velocity": 100}, {"time": 55990, "pitch": 50, "duration": 165, "velocity": 100}, {"time": 55990, "pitch": 67, "duration": 55, "velocity": 100}, {"time": 56045, "pitch": 55, "duration": 55, "velocity": 100}, {"time": 56045, "pitch": 71, "duration": 55, "velocity": 100}, {"time": 56100, "pitch": 55, "duration": 55, "velocity": 100}, {"time": 56100, "pitch": 59, "duration": 55, "velocity": 100}, {"time": 56100, "pitch": 62, "duration": 55, "velocity": 100}, {"time": 56100, "pitch": 71, "duration": 55, "velocity": 100}, {"time": 56155, "pitch": 45, "duration": 55, "velocity": 100}, {"time": 56155, "pitch": 74, "duration": 55, "velocity": 100}, {"time": 56210, "pitch": 45, "duration": 55, "velocity": 100}, {"time": 56210, "pitch": 78, "duration": 55, "velocity": 100}, {"time": 56265, "pitch": 78, "duration": 55, "velocity": 100}, {"time": 56320, "pitch": 38, "duration": 385, "velocity": 100}, {"time": 56320, "pitch": 54, "duration": 55, "velocity": 100}, {"time": 56320, "pitch": 57, "duration": 110, "velocity": 100}, {"time": 56320, "pitch": 62, "duration": 110, "velocity": 100}, {"time": 56320, "pitch": 81, "duration": 440, "velocity": 100}, {"time": 56375, "pitch": 50, "duration": 330, "velocity": 100}, {"time": 56430, "pitch": 54, "duration": 55, "velocity": 100}, {"time": 56485, "pitch": 57, "duration": 55, "velocity": 100}, {"time": 56540, "pitch": 54, "duration": 55, "velocity": 100}, {"time": 56540, "pitch": 57, "duration": 55, "velocity": 100}, {"time": 56540, "pitch": 66, "duration": 110, "velocity": 100}, {"time": 56650, "pitch": 62, "duration": 55, "velocity": 100}, {"time": 56705, "pitch": 57, "duration": 55, "velocity": 100}, {"time": 56760, "pitch": 38, "duration": 275, "velocity": 100}, {"time": 56760, "pitch": 54, "duration": 110, "velocity": 100}, {"time": 56760, "pitch": 57, "duration": 110, "velocity": 100}, {"time": 56760, "pitch": 62, "duration": 110, "velocity": 100}, {"time": 56870, "pitch": 45, "duration": 165, "velocity": 100}, {"time": 56925, "pitch": 54, "duration": 55, "velocity": 100}, {"time": 56980, "pitch": 54, "duration": 55, "velocity": 100}, {"time": 56980, "pitch": 57, "duration": 55, "velocity": 100}, {"time": 56980, "pitch": 62, "duration": 55, "velocity": 100}, {"time": 56980, "pitch": 66, "duration": 55, "velocity": 100}, {"time": 57035, "pitch": 50, "duration": 55, "velocity": 100}, {"time": 57200, "pitch": 50, "duration": 330, "velocity": 100}, {"time": 57200, "pitch": 57, "duration": 55, "velocity": 100}, {"time": 57200, "pitch": 66, "duration": 110, "velocity": 100}, {"time": 57200, "pitch": 81, "duration": 660, "velocity": 100}, {"time": 57255, "pitch": 57, "duration": 55, "velocity": 100}, {"time": 57310, "pitch": 62, "duration": 55, "velocity": 100}, {"time": 57365, "pitch": 66, "duration": 55, "velocity": 100}, {"time": 57420, "pitch": 57, "duration": 55, "velocity": 100}, {"time": 57420, "pitch": 66, "duration": 55, "velocity": 100}, {"time": 57420, "pitch": 69, "duration": 55, "velocity": 100}, {"time": 57475, "pitch": 57, "duration": 55, "velocity": 100}, {"time": 57530, "pitch": 62, "duration": 55, "velocity": 100}, {"time": 57640, "pitch": 50, "duration": 275, "velocity": 100}, {"time": 57640, "pitch": 62, "duration": 110, "velocity": 100}, {"time": 57640, "pitch": 66, "duration": 110, "velocity": 100}, {"time": 57750, "pitch": 57, "duration": 110, "velocity": 100}, {"time": 57805, "pitch": 62, "duration": 55, "velocity": 100}, {"time": 57860, "pitch": 62, "duration": 55, "velocity": 100}, {"time": 57860, "pitch": 66, "duration": 55, "velocity": 100}, {"time": 57860, "pitch": 69, "duration": 55, "velocity": 100}, {"time": 57915, "pitch": 57, "duration": 55, "velocity": 100}, {"time": 57915, "pitch": 76, "duration": 55, "velocity": 100}, {"time": 57970, "pitch": 62, "duration": 55, "velocity": 100}, {"time": 57970, "pitch": 78, "duration": 55, "velocity": 100}, {"time": 58025, "pitch": 81, "duration": 55, "velocity": 100}, {"time": 58080, "pitch": 38, "duration": 275, "velocity": 100}, {"time": 58080, "pitch": 62, "duration": 110, "velocity": 100}, {"time": 58080, "pitch": 66, "duration": 110, "velocity": 100}, {"time": 58080, "pitch": 78, "duration": 440, "velocity": 100}, {"time": 58190, "pitch": 45, "duration": 110, "velocity": 100}, {"time": 58300, "pitch": 57, "duration": 55, "velocity": 100}, {"time": 58300, "pitch": 62, "duration": 110, "velocity": 100}, {"time": 58300, "pitch": 66, "duration": 110, "velocity": 100}, {"time": 58355, "pitch": 45, "duration": 55, "velocity": 100}, {"time": 58410, "pitch": 57, "duration": 55, "velocity": 100}, {"time": 58520, "pitch": 50, "duration": 275, "velocity": 100}, {"time": 58520, "pitch": 57, "duration": 110, "velocity": 100}, {"time": 58520, "pitch": 66, "duration": 110, "velocity": 100}, {"time": 58520, "pitch": 69, "duration": 220, "velocity": 100}, {"time": 58520, "pitch": 74, "duration": 440, "velocity": 100}, {"time": 58630, "pitch": 57, "duration": 165, "velocity": 100}, {"time": 58740, "pitch": 57, "duration": 55, "velocity": 100}, {"time": 58740, "pitch": 66, "duration": 55, "velocity": 100}, {"time": 58740, "pitch": 69, "duration": 110, "velocity": 100}, {"time": 58795, "pitch": 57, "duration": 55, "velocity": 100}, {"time": 58850, "pitch": 50, "duration": 55, "velocity": 100}, {"time": 58960, "pitch": 50, "duration": 275, "velocity": 100}, {"time": 58960, "pitch": 57, "duration": 110, "velocity": 100}, {"time": 58960, "pitch": 66, "duration": 110, "velocity": 100}, {"time": 58960, "pitch": 74, "duration": 110, "velocity": 100}, {"time": 59070, "pitch": 57, "duration": 110, "velocity": 100}, {"time": 59070, "pitch": 74, "duration": 55, "velocity": 100}, {"time": 59125, "pitch": 74, "duration": 55, "velocity": 100}, {"time": 59180, "pitch": 62, "duration": 55, "velocity": 100}, {"time": 59180, "pitch": 66, "duration": 55, "velocity": 100}, {"time": 59180, "pitch": 69, "duration": 55, "velocity": 100}, {"time": 59235, "pitch": 57, "duration": 55, "velocity": 100}, {"time": 59235, "pitch": 69, "duration": 55, "velocity": 100}, {"time": 59290, "pitch": 57, "duration": 55, "velocity": 100}, {"time": 59290, "pitch": 69, "duration": 55, "velocity": 100}, {"time": 59345, "pitch": 62, "duration": 55, "velocity": 100}, {"time": 59345, "pitch": 71, "duration": 55, "velocity": 100}, {"time": 59400, "pitch": 38, "duration": 275, "velocity": 100}, {"time": 59400, "pitch": 57, "duration": 55, "velocity": 100}, {"time": 59400, "pitch": 62, "duration": 55, "velocity": 100}, {"time": 59455, "pitch": 45, "duration": 110, "velocity": 100}, {"time": 59455, "pitch": 69, "duration": 55, "velocity": 100}, {"time": 59510, "pitch": 50, "duration": 55, "velocity": 100}, {"time": 59510, "pitch": 69, "duration": 55, "velocity": 100}, {"time": 59565, "pitch": 54, "duration": 55, "velocity": 100}, {"time": 59565, "pitch": 57, "duration": 55, "velocity": 100}, {"time": 59565, "pitch": 62, "duration": 55, "velocity": 100}, {"time": 59565, "pitch": 66, "duration": 55, "velocity": 100}, {"time": 59620, "pitch": 45, "duration": 55, "velocity": 100}, {"time": 59620, "pitch": 74, "duration": 55, "velocity": 100}, {"time": 59675, "pitch": 50, "duration": 55, "velocity": 100}, {"time": 59675, "pitch": 57, "duration": 110, "velocity": 100}, {"time": 59675, "pitch": 62, "duration": 110, "velocity": 100}, {"time": 59675, "pitch": 66, "duration": 55, "velocity": 100}, {"time": 59675, "pitch": 74, "duration": 55, "velocity": 100}, {"time": 59730, "pitch": 45, "duration": 55, "velocity": 100}, {"time": 59730, "pitch": 76, "duration": 55, "velocity": 100}, {"time": 59785, "pitch": 50, "duration": 55, "velocity": 100}, {"time": 59785, "pitch": 78, "duration": 55, "velocity": 100}, {"time": 59840, "pitch": 38, "duration": 275, "velocity": 100}, {"time": 59840, "pitch": 57, "duration": 55, "velocity": 100}, {"time": 59840, "pitch": 62, "duration": 110, "velocity": 100}, {"time": 59840, "pitch": 78, "duration": 275, "velocity": 100}, {"time": 59950, "pitch": 45, "duration": 110, "velocity": 100}, {"time": 60060, "pitch": 57, "duration": 55, "velocity": 100}, {"time": 60060, "pitch": 62, "duration": 55, "velocity": 100}, {"time": 60060, "pitch": 66, "duration": 55, "velocity": 100}, {"time": 60115, "pitch": 45, "duration": 55, "velocity": 100}, {"time": 60170, "pitch": 57, "duration": 55, "velocity": 100}, {"time": 60280, "pitch": 50, "duration": 275, "velocity": 100}, {"time": 60280, "pitch": 57, "duration": 55, "velocity": 100}, {"time": 60280, "pitch": 62, "duration": 55, "velocity": 100}, {"time": 60280, "pitch": 66, "duration": 165, "velocity": 100}, {"time": 60280, "pitch": 78, "duration": 385, "velocity": 100}, {"time": 60390, "pitch": 57, "duration": 110, "velocity": 100}, {"time": 60500, "pitch": 62, "duration": 55, "velocity": 100}, {"time": 60500, "pitch": 66, "duration": 55, "velocity": 100}, {"time": 60500, "pitch": 69, "duration": 55, "velocity": 100}, {"time": 60555, "pitch": 57, "duration": 55, "velocity": 100}, {"time": 60610, "pitch": 50, "duration": 55, "velocity": 100}, {"time": 60720, "pitch": 50, "duration": 275, "velocity": 100}, {"time": 60720, "pitch": 57, "duration": 55, "velocity": 100}, {"time": 60720, "pitch": 62, "duration": 110, "velocity": 100}, {"time": 60720, "pitch": 66, "duration": 110, "velocity": 100}, {"time": 60720, "pitch": 74, "duration": 440, "velocity": 100}, {"time": 60720, "pitch": 81, "duration": 440, "velocity": 100}, {"time": 60775, "pitch": 57, "duration": 55, "velocity": 100}, {"time": 60830, "pitch": 62, "duration": 55, "velocity": 100}, {"time": 60940, "pitch": 57, "duration": 55, "velocity": 100}, {"time": 60940, "pitch": 62, "duration": 55, "velocity": 100}, {"time": 60940, "pitch": 66, "duration": 110, "velocity": 100}, {"time": 61050, "pitch": 57, "duration": 110, "velocity": 100}, {"time": 61160, "pitch": 38, "duration": 55, "velocity": 100}, {"time": 61160, "pitch": 62, "duration": 385, "velocity": 100}, {"time": 61160, "pitch": 66, "duration": 440, "velocity": 100}, {"time": 61160, "pitch": 69, "duration": 440, "velocity": 100}, {"time": 61160, "pitch": 74, "duration": 440, "velocity": 100}, {"time": 61600, "pitch": 42, "duration": 715, "velocity": 100}, {"time": 61600, "pitch": 62, "duration": 165, "velocity": 100}, {"time": 61600, "pitch": 66, "duration": 110, "velocity": 100}, {"time": 61600, "pitch": 69, "duration": 660, "velocity": 100}, {"time": 61600, "pitch": 74, "duration": 825, "velocity": 100}, {"time": 61600, "pitch": 78, "duration": 880, "velocity": 100}, {"time": 61710, "pitch": 57, "duration": 165, "velocity": 100}, {"time": 61820, "pitch": 57, "duration": 55, "velocity": 100}, {"time": 61820, "pitch": 62, "duration": 110, "velocity": 100}, {"time": 61820, "pitch": 66, "duration": 110, "velocity": 100}, {"time": 61930, "pitch": 57, "duration": 55, "velocity": 100}, {"time": 62040, "pitch": 57, "duration": 55, "velocity": 100}, {"time": 62040, "pitch": 66, "duration": 55, "velocity": 100}, {"time": 62260, "pitch": 57, "duration": 55, "velocity": 100}, {"time": 62260, "pitch": 62, "duration": 55, "velocity": 100}, {"time": 62260, "pitch": 66, "duration": 55, "velocity": 100}, {"time": 62370, "pitch": 57, "duration": 55, "velocity": 100}, {"time": 62480, "pitch": 38, "duration": 330, "velocity": 100}, {"time": 62480, "pitch": 54, "duration": 110, "velocity": 100}, {"time": 62480, "pitch": 57, "duration": 110, "velocity": 100}, {"time": 62480, "pitch": 62, "duration": 110, "velocity": 100}, {"time": 62590, "pitch": 45, "duration": 275, "velocity": 100}, {"time": 62700, "pitch": 54, "duration": 55, "velocity": 100}, {"time": 62700, "pitch": 57, "duration": 55, "velocity": 100}, {"time": 62810, "pitch": 50, "duration": 55, "velocity": 100}, {"time": 62920, "pitch": 38, "duration": 440, "velocity": 100}, {"time": 62920, "pitch": 50, "duration": 110, "velocity": 100}, {"time": 62920, "pitch": 54, "duration": 110, "velocity": 100}, {"time": 62920, "pitch": 62, "duration": 110, "velocity": 100}, {"time": 62920, "pitch": 66, "duration": 110, "velocity": 100}, {"time": 62975, "pitch": 45, "duration": 330, "velocity": 100}, {"time": 63030, "pitch": 50, "duration": 220, "velocity": 100}, {"time": 63085, "pitch": 54, "duration": 55, "velocity": 100}, {"time": 63085, "pitch": 57, "duration": 110, "velocity": 100}, {"time": 63085, "pitch": 62, "duration": 165, "velocity": 100}, {"time": 63250, "pitch": 50, "duration": 110, "velocity": 100}, {"time": 63250, "pitch": 57, "duration": 110, "velocity": 100}, {"time": 63250, "pitch": 62, "duration": 110, "velocity": 100}, {"time": 63250, "pitch": 74, "duration": 110, "velocity": 100}, {"time": 63360, "pitch": 43, "duration": 55, "velocity": 100}, {"time": 63415, "pitch": 55, "duration": 220, "velocity": 100}, {"time": 63415, "pitch": 71, "duration": 165, "velocity": 100}, {"time": 63470, "pitch": 47, "duration": 275, "velocity": 100}, {"time": 63580, "pitch": 55, "duration": 220, "velocity": 100}, {"time": 63580, "pitch": 59, "duration": 110, "velocity": 100}, {"time": 63580, "pitch": 71, "duration": 110, "velocity": 100}, {"time": 63690, "pitch": 50, "duration": 110, "velocity": 100}, {"time": 63690, "pitch": 69, "duration": 110, "velocity": 100}, {"time": 63800, "pitch": 43, "duration": 330, "velocity": 100}, {"time": 63800, "pitch": 55, "duration": 165, "velocity": 100}, {"time": 63800, "pitch": 59, "duration": 165, "velocity": 100}, {"time": 63800, "pitch": 71, "duration": 330, "velocity": 100}, {"time": 63910, "pitch": 50, "duration": 165, "velocity": 100}, {"time": 64020, "pitch": 55, "duration": 110, "velocity": 100}, {"time": 64020, "pitch": 59, "duration": 220, "velocity": 100}, {"time": 64020, "pitch": 62, "duration": 165, "velocity": 100}, {"time": 64130, "pitch": 43, "duration": 110, "velocity": 100}, {"time": 64130, "pitch": 69, "duration": 55, "velocity": 100}, {"time": 64185, "pitch": 55, "duration": 55, "velocity": 100}, {"time": 64185, "pitch": 74, "duration": 55, "velocity": 100}, {"time": 64240, "pitch": 43, "duration": 275, "velocity": 100}, {"time": 64240, "pitch": 55, "duration": 110, "velocity": 100}, {"time": 64240, "pitch": 59, "duration": 110, "velocity": 100}, {"time": 64240, "pitch": 74, "duration": 330, "velocity": 100}, {"time": 64350, "pitch": 50, "duration": 165, "velocity": 100}, {"time": 64460, "pitch": 55, "duration": 110, "velocity": 100}, {"time": 64460, "pitch": 59, "duration": 110, "velocity": 100}, {"time": 64570, "pitch": 50, "duration": 110, "velocity": 100}, {"time": 64570, "pitch": 74, "duration": 55, "velocity": 100}, {"time": 64625, "pitch": 76, "duration": 55, "velocity": 100}, {"time": 64680, "pitch": 43, "duration": 275, "velocity": 100}, {"time": 64680, "pitch": 55, "duration": 110, "velocity": 100}, {"time": 64680, "pitch": 62, "duration": 110, "velocity": 100}, {"time": 64680, "pitch": 79, "duration": 440, "velocity": 100}, {"time": 64790, "pitch": 55, "duration": 110, "velocity": 100}, {"time": 64900, "pitch": 59, "duration": 55, "velocity": 100}, {"time": 64900, "pitch": 67, "duration": 55, "velocity": 100}, {"time": 64955, "pitch": 55, "duration": 55, "velocity": 100}, {"time": 65010, "pitch": 59, "duration": 55, "velocity": 100}, {"time": 65065, "pitch": 76, "duration": 55, "velocity": 100}, {"time": 65120, "pitch": 43, "duration": 330, "velocity": 100}, {"time": 65120, "pitch": 55, "duration": 55, "velocity": 100}, {"time": 65120, "pitch": 59, "duration": 110, "velocity": 100}, {"time": 65120, "pitch": 86, "duration": 55, "velocity": 100}, {"time": 65175, "pitch": 86, "duration": 55, "velocity": 100}, {"time": 65230, "pitch": 55, "duration": 110, "velocity": 100}, {"time": 65230, "pitch": 86, "duration": 55, "velocity": 100}, {"time": 65285, "pitch": 59, "duration": 55, "velocity": 100}, {"time": 65285, "pitch": 83, "duration": 55, "velocity": 100}, {"time": 65340, "pitch": 62, "duration": 55, "velocity": 100}, {"time": 65340, "pitch": 83, "duration": 55, "velocity": 100}, {"time": 65395, "pitch": 67, "duration": 55, "velocity": 100}, {"time": 65395, "pitch": 76, "duration": 55, "velocity": 100}, {"time": 65450, "pitch": 62, "duration": 55, "velocity": 100}, {"time": 65450, "pitch": 74, "duration": 55, "velocity": 100}, {"time": 65450, "pitch": 79, "duration": 55, "velocity": 100}, {"time": 65505, "pitch": 67, "duration": 55, "velocity": 100}, {"time": 65505, "pitch": 79, "duration": 55, "velocity": 100}, {"time": 65560, "pitch": 43, "duration": 385, "velocity": 100}, {"time": 65560, "pitch": 55, "duration": 55, "velocity": 100}, {"time": 65560, "pitch": 59, "duration": 110, "velocity": 100}, {"time": 65560, "pitch": 71, "duration": 275, "velocity": 100}, {"time": 65560, "pitch": 74, "duration": 165, "velocity": 100}, {"time": 65615, "pitch": 50, "duration": 275, "velocity": 100}, {"time": 65670, "pitch": 55, "duration": 55, "velocity": 100}, {"time": 65725, "pitch": 59, "duration": 110, "velocity": 100}, {"time": 65835, "pitch": 55, "duration": 55, "velocity": 100}, {"time": 65835, "pitch": 69, "duration": 55, "velocity": 100}, {"time": 65890, "pitch": 50, "duration": 110, "velocity": 100}, {"time": 65890, "pitch": 67, "duration": 55, "velocity": 100}, {"time": 65945, "pitch": 69, "duration": 55, "velocity": 100}, {"time": 66000, "pitch": 43, "duration": 275, "velocity": 100}, {"time": 66000, "pitch": 55, "duration": 165, "velocity": 100}, {"time": 66000, "pitch": 59, "duration": 165, "velocity": 100}, {"time": 66000, "pitch": 71, "duration": 330, "velocity": 100}, {"time": 66110, "pitch": 50, "duration": 165, "velocity": 100}, {"time": 66220, "pitch": 55, "duration": 110, "velocity": 100}, {"time": 66220, "pitch": 62, "duration": 165, "velocity": 100}, {"time": 66330, "pitch": 71, "duration": 55, "velocity": 100}, {"time": 66385, "pitch": 74, "duration": 55, "velocity": 100}, {"time": 66440, "pitch": 36, "duration": 275, "velocity": 100}, {"time": 66440, "pitch": 60, "duration": 110, "velocity": 100}, {"time": 66440, "pitch": 64, "duration": 165, "velocity": 100}, {"time": 66440, "pitch": 71, "duration": 275, "velocity": 100}, {"time": 66440, "pitch": 74, "duration": 275, "velocity": 100}, {"time": 66550, "pitch": 43, "duration": 165, "velocity": 100}, {"time": 66605, "pitch": 60, "duration": 110, "velocity": 100}, {"time": 66715, "pitch": 60, "duration": 55, "velocity": 100}, {"time": 66770, "pitch": 67, "duration": 55, "velocity": 100}, {"time": 66880, "pitch": 48, "duration": 385, "velocity": 100}, {"time": 66880, "pitch": 55, "duration": 55, "velocity": 100}, {"time": 66880, "pitch": 64, "duration": 110, "velocity": 100}, {"time": 66880, "pitch": 76, "duration": 110, "velocity": 100}, {"time": 66880, "pitch": 84, "duration": 110, "velocity": 100}, {"time": 66990, "pitch": 55, "duration": 55, "velocity": 100}, {"time": 66990, "pitch": 67, "duration": 110, "velocity": 100}, {"time": 66990, "pitch": 79, "duration": 110, "velocity": 100}, {"time": 67045, "pitch": 60, "duration": 55, "velocity": 100}, {"time": 67100, "pitch": 67, "duration": 110, "velocity": 100}, {"time": 67100, "pitch": 81, "duration": 110, "velocity": 100}, {"time": 67155, "pitch": 55, "duration": 55, "velocity": 100}, {"time": 67210, "pitch": 60, "duration": 55, "velocity": 100}, {"time": 67210, "pitch": 84, "duration": 110, "velocity": 100}, {"time": 67320, "pitch": 48, "duration": 385, "velocity": 100}, {"time": 67320, "pitch": 55, "duration": 110, "velocity": 100}, {"time": 67320, "pitch": 60, "duration": 110, "velocity": 100}, {"time": 67320, "pitch": 72, "duration": 440, "velocity": 100}, {"time": 67320, "pitch": 84, "duration": 330, "velocity": 100}, {"time": 67430, "pitch": 52, "duration": 110, "velocity": 100}, {"time": 67485, "pitch": 55, "duration": 110, "velocity": 100}, {"time": 67595, "pitch": 60, "duration": 165, "velocity": 100}, {"time": 67650, "pitch": 55, "duration": 55, "velocity": 100}, {"time": 67705, "pitch": 55, "duration": 165, "velocity": 100}, {"time": 67760, "pitch": 36, "duration": 385, "velocity": 100}, {"time": 67760, "pitch": 67, "duration": 440, "velocity": 100}, {"time": 67870, "pitch": 43, "duration": 275, "velocity": 100}, {"time": 67925, "pitch": 52, "duration": 110, "velocity": 100}, {"time": 67980, "pitch": 52, "duration": 110, "velocity": 100}, {"time": 68035, "pitch": 60, "duration": 55, "velocity": 100}, {"time": 68090, "pitch": 60, "duration": 55, "velocity": 100}, {"time": 68145, "pitch": 55, "duration": 110, "velocity": 100}, {"time": 68200, "pitch": 36, "duration": 165, "velocity": 100}, {"time": 68200, "pitch": 72, "duration": 220, "velocity": 100}, {"time": 68255, "pitch": 48, "duration": 110, "velocity": 100}, {"time": 68310, "pitch": 55, "duration": 55, "velocity": 100}, {"time": 68365, "pitch": 60, "duration": 55, "velocity": 100}, {"time": 68420, "pitch": 43, "duration": 165, "velocity": 100}, {"time": 68420, "pitch": 67, "duration": 220, "velocity": 100}, {"time": 68475, "pitch": 48, "duration": 55, "velocity": 100}, {"time": 68530, "pitch": 55, "duration": 110, "velocity": 100}, {"time": 68585, "pitch": 60, "duration": 55, "velocity": 100}, {"time": 68640, "pitch": 36, "duration": 275, "velocity": 100}, {"time": 68640, "pitch": 64, "duration": 440, "velocity": 100}, {"time": 68695, "pitch": 43, "duration": 110, "velocity": 100}, {"time": 68750, "pitch": 52, "duration": 110, "velocity": 100}, {"time": 68860, "pitch": 52, "duration": 55, "velocity": 100}, {"time": 68860, "pitch": 55, "duration": 55, "velocity": 100}, {"time": 68860, "pitch": 60, "duration": 220, "velocity": 100}, {"time": 68970, "pitch": 81, "duration": 55, "velocity": 100}, {"time": 69080, "pitch": 48, "duration": 220, "velocity": 100}, {"time": 69080, "pitch": 72, "duration": 385, "velocity": 100}, {"time": 69080, "pitch": 76, "duration": 440, "velocity": 100}, {"time": 69080, "pitch": 79, "duration": 385, "velocity": 100}, {"time": 69190, "pitch": 55, "duration": 55, "velocity": 100}, {"time": 69300, "pitch": 55, "duration": 55, "velocity": 100}, {"time": 69300, "pitch": 60, "duration": 110, "velocity": 100}, {"time": 69410, "pitch": 55, "duration": 55, "velocity": 100}, {"time": 69465, "pitch": 60, "duration": 55, "velocity": 100}, {"time": 69520, "pitch": 36, "duration": 275, "velocity": 100}, {"time": 69520, "pitch": 60, "duration": 440, "velocity": 100}, {"time": 69520, "pitch": 72, "duration": 440, "velocity": 100}, {"time": 69630, "pitch": 43, "duration": 110, "velocity": 100}, {"time": 69740, "pitch": 52, "duration": 110, "velocity": 100}, {"time": 69740, "pitch": 55, "duration": 220, "velocity": 100}, {"time": 69850, "pitch": 72, "duration": 110, "velocity": 100}, {"time": 69960, "pitch": 48, "duration": 440, "velocity": 100}, {"time": 69960, "pitch": 55, "duration": 220, "velocity": 100}, {"time": 69960, "pitch": 60, "duration": 220, "velocity": 100}, {"time": 69960, "pitch": 67, "duration": 440, "velocity": 100}, {"time": 69960, "pitch": 72, "duration": 440, "velocity": 100}, {"time": 70070, "pitch": 52, "duration": 110, "velocity": 100}, {"time": 70180, "pitch": 55, "duration": 165, "velocity": 100}, {"time": 70235, "pitch": 52, "duration": 55, "velocity": 100}, {"time": 70290, "pitch": 55, "duration": 110, "velocity": 100}, {"time": 70345, "pitch": 60, "duration": 55, "velocity": 100}, {"time": 70345, "pitch": 62, "duration": 55, "velocity": 100}, {"time": 70400, "pitch": 48, "duration": 385, "velocity": 100}, {"time": 70400, "pitch": 64, "duration": 55, "velocity": 100}, {"time": 70400, "pitch": 67, "duration": 110, "velocity": 100}, {"time": 70400, "pitch": 76, "duration": 440, "velocity": 100}, {"time": 70455, "pitch": 55, "duration": 165, "velocity": 100}, {"time": 70510, "pitch": 62, "duration": 55, "velocity": 100}, {"time": 70565, "pitch": 64, "duration": 55, "velocity": 100}, {"time": 70620, "pitch": 60, "duration": 55, "velocity": 100}, {"time": 70620, "pitch": 67, "duration": 110, "velocity": 100}, {"time": 70675, "pitch": 55, "duration": 110, "velocity": 100}, {"time": 70730, "pitch": 62, "duration": 55, "velocity": 100}, {"time": 70785, "pitch": 67, "duration": 55, "velocity": 100}, {"time": 70840, "pitch": 48, "duration": 385, "velocity": 100}, {"time": 70840, "pitch": 60, "duration": 110, "velocity": 100}, {"time": 70840, "pitch": 64, "duration": 110, "velocity": 100}, {"time": 70840, "pitch": 79, "duration": 330, "velocity": 100}, {"time": 70950, "pitch": 55, "duration": 110, "velocity": 100}, {"time": 71060, "pitch": 60, "duration": 55, "velocity": 100}, {"time": 71060, "pitch": 64, "duration": 55, "velocity": 100}, {"time": 71060, "pitch": 67, "duration": 55, "velocity": 100}, {"time": 71115, "pitch": 55, "duration": 55, "velocity": 100}, {"time": 71170, "pitch": 60, "duration": 55, "velocity": 100}, {"time": 71280, "pitch": 48, "duration": 385, "velocity": 100}, {"time": 71280, "pitch": 60, "duration": 55, "velocity": 100}, {"time": 71280, "pitch": 64, "duration": 110, "velocity": 100}, {"time": 71280, "pitch": 67, "duration": 110, "velocity": 100}, {"time": 71280, "pitch": 79, "duration": 330, "velocity": 100}, {"time": 71335, "pitch": 55, "duration": 275, "velocity": 100}, {"time": 71390, "pitch": 60, "duration": 110, "velocity": 100}, {"time": 71445, "pitch": 64, "duration": 55, "velocity": 100}, {"time": 71500, "pitch": 67, "duration": 110, "velocity": 100}, {"time": 71610, "pitch": 60, "duration": 55, "velocity": 100}, {"time": 71610, "pitch": 79, "duration": 55, "velocity": 100}, {"time": 71665, "pitch": 64, "duration": 55, "velocity": 100}, {"time": 71665, "pitch": 79, "duration": 55, "velocity": 100}, {"time": 71720, "pitch": 48, "duration": 110, "velocity": 100}, {"time": 71720, "pitch": 60, "duration": 55, "velocity": 100}, {"time": 71720, "pitch": 64, "duration": 55, "velocity": 100}, {"time": 71720, "pitch": 79, "duration": 440, "velocity": 100}, {"time": 71830, "pitch": 60, "duration": 55, "velocity": 100}, {"time": 71885, "pitch": 64, "duration": 55, "velocity": 100}, {"time": 71940, "pitch": 48, "duration": 110, "velocity": 100}, {"time": 71940, "pitch": 67, "duration": 110, "velocity": 100}, {"time": 71995, "pitch": 55, "duration": 55, "velocity": 100}, {"time": 72050, "pitch": 64, "duration": 55, "velocity": 100}, {"time": 72105, "pitch": 67, "duration": 55, "velocity": 100}, {"time": 72160, "pitch": 48, "duration": 385, "velocity": 100}, {"time": 72160, "pitch": 60, "duration": 110, "velocity": 100}, {"time": 72160, "pitch": 67, "duration": 165, "velocity": 100}, {"time": 72160, "pitch": 76, "duration": 385, "velocity": 100}, {"time": 72270, "pitch": 55, "duration": 110, "velocity": 100}, {"time": 72380, "pitch": 60, "duration": 55, "velocity": 100}, {"time": 72380, "pitch": 67, "duration": 110, "velocity": 100}, {"time": 72435, "pitch": 55, "duration": 55, "velocity": 100}, {"time": 72490, "pitch": 60, "duration": 55, "velocity": 100}, {"time": 72600, "pitch": 48, "duration": 385, "velocity": 100}, {"time": 72600, "pitch": 60, "duration": 55, "velocity": 100}, {"time": 72600, "pitch": 64, "duration": 110, "velocity": 100}, {"time": 72600, "pitch": 72, "duration": 385, "velocity": 100}, {"time": 72600, "pitch": 76, "duration": 385, "velocity": 100}, {"time": 72655, "pitch": 55, "duration": 220, "velocity": 100}, {"time": 72710, "pitch": 60, "duration": 110, "velocity": 100}, {"time": 72820, "pitch": 67, "duration": 220, "velocity": 100}, {"time": 72875, "pitch": 55, "duration": 55, "velocity": 100}, {"time": 72930, "pitch": 60, "duration": 55, "velocity": 100}, {"time": 73040, "pitch": 48, "duration": 275, "velocity": 100}, {"time": 73040, "pitch": 60, "duration": 110, "velocity": 100}, {"time": 73040, "pitch": 64, "duration": 110, "velocity": 100}, {"time": 73040, "pitch": 79, "duration": 220, "velocity": 100}, {"time": 73150, "pitch": 55, "duration": 110, "velocity": 100}, {"time": 73150, "pitch": 72, "duration": 220, "velocity": 100}, {"time": 73260, "pitch": 60, "duration": 55, "velocity": 100}, {"time": 73260, "pitch": 64, "duration": 55, "velocity": 100}, {"time": 73260, "pitch": 67, "duration": 110, "velocity": 100}, {"time": 73260, "pitch": 79, "duration": 165, "velocity": 100}, {"time": 73315, "pitch": 55, "duration": 110, "velocity": 100}, {"time": 73370, "pitch": 60, "duration": 55, "velocity": 100}, {"time": 73425, "pitch": 64, "duration": 55, "velocity": 100}, {"time": 73480, "pitch": 48, "duration": 275, "velocity": 100}, {"time": 73480, "pitch": 60, "duration": 110, "velocity": 100}, {"time": 73480, "pitch": 64, "duration": 110, "velocity": 100}, {"time": 73480, "pitch": 76, "duration": 220, "velocity": 100}, {"time": 73590, "pitch": 55, "duration": 110, "velocity": 100}, {"time": 73590, "pitch": 72, "duration": 220, "velocity": 100}, {"time": 73645, "pitch": 60, "duration": 55, "velocity": 100}, {"time": 73700, "pitch": 59, "duration": 55, "velocity": 100}, {"time": 73700, "pitch": 67, "duration": 55, "velocity": 100}, {"time": 73700, "pitch": 79, "duration": 110, "velocity": 100}, {"time": 73755, "pitch": 55, "duration": 55, "velocity": 100}, {"time": 73810, "pitch": 55, "duration": 55, "velocity": 100}, {"time": 73920, "pitch": 43, "duration": 275, "velocity": 100}, {"time": 73920, "pitch": 62, "duration": 110, "velocity": 100}, {"time": 73920, "pitch": 67, "duration": 110, "velocity": 100}, {"time": 73920, "pitch": 71, "duration": 110, "velocity": 100}, {"time": 73920, "pitch": 79, "duration": 110, "velocity": 100}, {"time": 74030, "pitch": 50, "duration": 165, "velocity": 100}, {"time": 74030, "pitch": 62, "duration": 55, "velocity": 100}, {"time": 74030, "pitch": 74, "duration": 110, "velocity": 100}, {"time": 74140, "pitch": 62, "duration": 55, "velocity": 100}, {"time": 74140, "pitch": 67, "duration": 110, "velocity": 100}, {"time": 74140, "pitch": 71, "duration": 110, "velocity": 100}, {"time": 74140, "pitch": 83, "duration": 220, "velocity": 100}, {"time": 74250, "pitch": 62, "duration": 55, "velocity": 100}, {"time": 74360, "pitch": 43, "duration": 275, "velocity": 100}, {"time": 74360, "pitch": 62, "duration": 110, "velocity": 100}, {"time": 74360, "pitch": 67, "duration": 110, "velocity": 100}, {"time": 74360, "pitch": 71, "duration": 385, "velocity": 100}, {"time": 74360, "pitch": 79, "duration": 440, "velocity": 100}, {"time": 74470, "pitch": 55, "duration": 165, "velocity": 100}, {"time": 74580, "pitch": 62, "duration": 110, "velocity": 100}, {"time": 74580, "pitch": 67, "duration": 110, "velocity": 100}, {"time": 74690, "pitch": 50, "duration": 55, "velocity": 100}, {"time": 74800, "pitch": 43, "duration": 55, "velocity": 100}, {"time": 74800, "pitch": 62, "duration": 55, "velocity": 100}, {"time": 74800, "pitch": 67, "duration": 110, "velocity": 100}, {"time": 74800, "pitch": 71, "duration": 110, "velocity": 100}, {"time": 74800, "pitch": 79, "duration": 110, "velocity": 100}, {"time": 74910, "pitch": 62, "duration": 55, "velocity": 100}, {"time": 74910, "pitch": 74, "duration": 165, "velocity": 100}, {"time": 75020, "pitch": 62, "duration": 55, "velocity": 100}, {"time": 75020, "pitch": 67, "duration": 110, "velocity": 100}, {"time": 75020, "pitch": 71, "duration": 110, "velocity": 100}, {"time": 75020, "pitch": 79, "duration": 110, "velocity": 100}, {"time": 75130, "pitch": 62, "duration": 55, "velocity": 100}, {"time": 75240, "pitch": 43, "duration": 55, "velocity": 100}, {"time": 75240, "pitch": 62, "duration": 55, "velocity": 100}, {"time": 75240, "pitch": 67, "duration": 55, "velocity": 100}, {"time": 75240, "pitch": 74, "duration": 55, "velocity": 100}, {"time": 75240, "pitch": 79, "duration": 110, "velocity": 100}, {"time": 75350, "pitch": 50, "duration": 55, "velocity": 100}, {"time": 75350, "pitch": 67, "duration": 55, "velocity": 100}, {"time": 75350, "pitch": 71, "duration": 55, "velocity": 100}, {"time": 75350, "pitch": 79, "duration": 55, "velocity": 100}, {"time": 75460, "pitch": 43, "duration": 55, "velocity": 100}, {"time": 75460, "pitch": 62, "duration": 55, "velocity": 100}, {"time": 75460, "pitch": 71, "duration": 55, "velocity": 100}, {"time": 75460, "pitch": 74, "duration": 55, "velocity": 100}, {"time": 75460, "pitch": 79, "duration": 55, "velocity": 100}, {"time": 75570, "pitch": 62, "duration": 55, "velocity": 100}, {"time": 75570, "pitch": 67, "duration": 55, "velocity": 100}, {"time": 75570, "pitch": 74, "duration": 55, "velocity": 100}, {"time": 75570, "pitch": 79, "duration": 55, "velocity": 100}, {"time": 75680, "pitch": 43, "duration": 275, "velocity": 100}, {"time": 75680, "pitch": 55, "duration": 110, "velocity": 100}, {"time": 75680, "pitch": 71, "duration": 440, "velocity": 100}, {"time": 75790, "pitch": 50, "duration": 55, "velocity": 100}, {"time": 75790, "pitch": 62, "duration": 275, "velocity": 100}, {"time": 75900, "pitch": 50, "duration": 55, "velocity": 100}, {"time": 75900, "pitch": 55, "duration": 110, "velocity": 100}, {"time": 75900, "pitch": 59, "duration": 110, "velocity": 100}, {"time": 75900, "pitch": 67, "duration": 220, "velocity": 100}, {"time": 76010, "pitch": 50, "duration": 55, "velocity": 100}, {"time": 76065, "pitch": 55, "duration": 55, "velocity": 100}, {"time": 76120, "pitch": 43, "duration": 275, "velocity": 100}, {"time": 76120, "pitch": 50, "duration": 55, "velocity": 100}, {"time": 76120, "pitch": 59, "duration": 220, "velocity": 100}, {"time": 76120, "pitch": 71, "duration": 330, "velocity": 100}, {"time": 76230, "pitch": 55, "duration": 55, "velocity": 100}, {"time": 76230, "pitch": 62, "duration": 165, "velocity": 100}, {"time": 76340, "pitch": 55, "duration": 110, "velocity": 100}, {"time": 76340, "pitch": 59, "duration": 110, "velocity": 100}, {"time": 76340, "pitch": 71, "duration": 220, "velocity": 100}, {"time": 76450, "pitch": 50, "duration": 55, "velocity": 100}, {"time": 76560, "pitch": 31, "duration": 220, "velocity": 100}, {"time": 76560, "pitch": 59, "duration": 110, "velocity": 100}, {"time": 76560, "pitch": 71, "duration": 220, "velocity": 100}, {"time": 76670, "pitch": 50, "duration": 55, "velocity": 100}, {"time": 76670, "pitch": 62, "duration": 330, "velocity": 100}, {"time": 76780, "pitch": 55, "duration": 110, "velocity": 100}, {"time": 76780, "pitch": 62, "duration": 275, "velocity": 100}, {"time": 76780, "pitch": 74, "duration": 440, "velocity": 100}, {"time": 76890, "pitch": 55, "duration": 220, "velocity": 100}, {"time": 77000, "pitch": 31, "duration": 275, "velocity": 100}, {"time": 77000, "pitch": 59, "duration": 110, "velocity": 100}, {"time": 77110, "pitch": 38, "duration": 110, "velocity": 100}, {"time": 77110, "pitch": 55, "duration": 110, "velocity": 100}, {"time": 77110, "pitch": 67, "duration": 110, "velocity": 100}, {"time": 77220, "pitch": 55, "duration": 55, "velocity": 100}, {"time": 77220, "pitch": 62, "duration": 220, "velocity": 100}, {"time": 77220, "pitch": 74, "duration": 110, "velocity": 100}, {"time": 77330, "pitch": 59, "duration": 55, "velocity": 100}, {"time": 77330, "pitch": 72, "duration": 110, "velocity": 100}, {"time": 77385, "pitch": 67, "duration": 55, "velocity": 100}, {"time": 77385, "pitch": 71, "duration": 55, "velocity": 100}, {"time": 77440, "pitch": 31, "duration": 55, "velocity": 100}, {"time": 77440, "pitch": 55, "duration": 220, "velocity": 100}, {"time": 77550, "pitch": 43, "duration": 165, "velocity": 100}, {"time": 77550, "pitch": 67, "duration": 110, "velocity": 100}, {"time": 77660, "pitch": 55, "duration": 110, "velocity": 100}, {"time": 77660, "pitch": 59, "duration": 110, "velocity": 100}, {"time": 77660, "pitch": 71, "duration": 220, "velocity": 100}, {"time": 77770, "pitch": 57, "duration": 55, "velocity": 100}, {"time": 77825, "pitch": 55, "duration": 55, "velocity": 100}, {"time": 77880, "pitch": 43, "duration": 275, "velocity": 100}, {"time": 77880, "pitch": 50, "duration": 55, "velocity": 100}, {"time": 77880, "pitch": 59, "duration": 110, "velocity": 100}, {"time": 77880, "pitch": 71, "duration": 110, "velocity": 100}, {"time": 77990, "pitch": 50, "duration": 55, "velocity": 100}, {"time": 77990, "pitch": 62, "duration": 385, "velocity": 100}, {"time": 78100, "pitch": 55, "duration": 55, "velocity": 100}, {"time": 78100, "pitch": 59, "duration": 110, "velocity": 100}, {"time": 78100, "pitch": 74, "duration": 110, "velocity": 100}, {"time": 78210, "pitch": 59, "duration": 55, "velocity": 100}, {"time": 78210, "pitch": 69, "duration": 110, "velocity": 100}, {"time": 78320, "pitch": 43, "duration": 165, "velocity": 100}, {"time": 78320, "pitch": 55, "duration": 110, "velocity": 100}, {"time": 78320, "pitch": 59, "duration": 110, "velocity": 100}, {"time": 78320, "pitch": 71, "duration": 330, "velocity": 100}, {"time": 78430, "pitch": 50, "duration": 55, "velocity": 100}, {"time": 78430, "pitch": 62, "duration": 110, "velocity": 100}, {"time": 78540, "pitch": 55, "duration": 55, "velocity": 100}, {"time": 78540, "pitch": 59, "duration": 220, "velocity": 100}, {"time": 78540, "pitch": 67, "duration": 330, "velocity": 100}, {"time": 78650, "pitch": 62, "duration": 165, "velocity": 100}, {"time": 78705, "pitch": 50, "duration": 55, "velocity": 100}, {"time": 78760, "pitch": 43, "duration": 220, "velocity": 100}, {"time": 78760, "pitch": 55, "duration": 55, "velocity": 100}, {"time": 78760, "pitch": 71, "duration": 220, "velocity": 100}, {"time": 78815, "pitch": 50, "duration": 55, "velocity": 100}, {"time": 78870, "pitch": 55, "duration": 55, "velocity": 100}, {"time": 78925, "pitch": 50, "duration": 55, "velocity": 100}, {"time": 78980, "pitch": 50, "duration": 55, "velocity": 100}, {"time": 78980, "pitch": 59, "duration": 110, "velocity": 100}, {"time": 78980, "pitch": 62, "duration": 110, "velocity": 100}, {"time": 78980, "pitch": 67, "duration": 220, "velocity": 100}, {"time": 79035, "pitch": 43, "duration": 55, "velocity": 100}, {"time": 79090, "pitch": 50, "duration": 55, "velocity": 100}, {"time": 79090, "pitch": 55, "duration": 55, "velocity": 100}]}]}