{"metadata": {"schema_version": "0.1", "title": "None", "source_filename": "20211210_090615.mid", "source_format": "midi"}, "resolution": 220, "tempos": [{"time": 0, "qpm": 120.0}], "time_signatures": [{"time": 0, "numerator": 4, "denominator": 4}], "tracks": [{"program": 0, "is_drum": false, "name": "Piano", "notes": [{"time": 0, "pitch": 83, "duration": 165, "velocity": 100}, {"time": 165, "pitch": 81, "duration": 110, "velocity": 100}, {"time": 385, "pitch": 81, "duration": 110, "velocity": 100}, {"time": 550, "pitch": 83, "duration": 55, "velocity": 100}, {"time": 660, "pitch": 81, "duration": 220, "velocity": 100}, {"time": 935, "pitch": 79, "duration": 110, "velocity": 100}, {"time": 1045, "pitch": 83, "duration": 330, "velocity": 100}, {"time": 1430, "pitch": 76, "duration": 110, "velocity": 100}, {"time": 1540, "pitch": 79, "duration": 110, "velocity": 100}, {"time": 1705, "pitch": 86, "duration": 55, "velocity": 100}, {"time": 1925, "pitch": 86, "duration": 110, "velocity": 100}, {"time": 2090, "pitch": 84, "duration": 55, "velocity": 100}, {"time": 2200, "pitch": 84, "duration": 110, "velocity": 100}, {"time": 2310, "pitch": 83, "duration": 165, "velocity": 100}, {"time": 2475, "pitch": 81, "duration": 55, "velocity": 100}, {"time": 2585, "pitch": 79, "duration": 110, "velocity": 100}, {"time": 2695, "pitch": 81, "duration": 275, "velocity": 100}, {"time": 2970, "pitch": 83, "duration": 110, "velocity": 100}, {"time": 3080, "pitch": 83, "duration": 440, "velocity": 100}, {"time": 4125, "pitch": 83, "duration": 110, "velocity": 100}, {"time": 4235, "pitch": 81, "duration": 165, "velocity": 100}, {"time": 4510, "pitch": 81, "duration": 110, "velocity": 100}, {"time": 4620, "pitch": 83, "duration": 110, "velocity": 100}, {"time": 4730, "pitch": 81, "duration": 275, "velocity": 100}, {"time": 5005, "pitch": 79, "duration": 110, "velocity": 100}, {"time": 5115, "pitch": 83, "duration": 165, "velocity": 100}, {"time": 5500, "pitch": 76, "duration": 165, "velocity": 100}, {"time": 5665, "pitch": 78, "duration": 55, "velocity": 100}, {"time": 5775, "pitch": 79, "duration": 660, "velocity": 100}, {"time": 6545, "pitch": 79, "duration": 110, "velocity": 100}, {"time": 6655, "pitch": 81, "duration": 110, "velocity": 100}, {"time": 6820, "pitch": 84, "duration": 220, "velocity": 100}, {"time": 7040, "pitch": 84, "duration": 110, "velocity": 100}, {"time": 7205, "pitch": 83, "duration": 55, "velocity": 100}, {"time": 7315, "pitch": 83, "duration": 110, "velocity": 100}, {"time": 7425, "pitch": 79, "duration": 110, "velocity": 100}, {"time": 7590, "pitch": 79, "duration": 55, "velocity": 100}, {"time": 7700, "pitch": 81, "duration": 275, "velocity": 100}, {"time": 7975, "pitch": 78, "duration": 110, "velocity": 100}, {"time": 8085, "pitch": 76, "duration": 715, "velocity": 100}, {"time": 0, "pitch": 47, "duration": 440, "velocity": 100}, {"time": 0, "pitch": 54, "duration": 55, "velocity": 100}, {"time": 0, "pitch": 59, "duration": 165, "velocity": 100}, {"time": 220, "pitch": 54, "duration": 55, "velocity": 100}, {"time": 220, "pitch": 62, "duration": 220, "velocity": 100}, {"time": 330, "pitch": 54, "duration": 165, "velocity": 100}, {"time": 440, "pitch": 47, "duration": 330, "velocity": 100}, {"time": 550, "pitch": 54, "duration": 55, "velocity": 100}, {"time": 660, "pitch": 54, "duration": 55, "velocity": 100}, {"time": 660, "pitch": 59, "duration": 165, "velocity": 100}, {"time": 770, "pitch": 54, "duration": 165, "velocity": 100}, {"time": 880, "pitch": 47, "duration": 825, "velocity": 100}, {"time": 1100, "pitch": 54, "duration": 55, "velocity": 100}, {"time": 1100, "pitch": 62, "duration": 55, "velocity": 100}, {"time": 1210, "pitch": 54, "duration": 55, "velocity": 100}, {"time": 1320, "pitch": 59, "duration": 55, "velocity": 100}, {"time": 1430, "pitch": 54, "duration": 55, "velocity": 100}, {"time": 1540, "pitch": 54, "duration": 55, "velocity": 100}, {"time": 1540, "pitch": 62, "duration": 55, "velocity": 100}, {"time": 1650, "pitch": 54, "duration": 55, "velocity": 100}, {"time": 1760, "pitch": 47, "duration": 385, "velocity": 100}, {"time": 1760, "pitch": 54, "duration": 55, "velocity": 100}, {"time": 1760, "pitch": 59, "duration": 165, "velocity": 100}, {"time": 1980, "pitch": 54, "duration": 55, "velocity": 100}, {"time": 1980, "pitch": 62, "duration": 220, "velocity": 100}, {"time": 2090, "pitch": 54, "duration": 110, "velocity": 100}, {"time": 2200, "pitch": 47, "duration": 275, "velocity": 100}, {"time": 2310, "pitch": 54, "duration": 55, "velocity": 100}, {"time": 2420, "pitch": 59, "duration": 110, "velocity": 100}, {"time": 2420, "pitch": 62, "duration": 440, "velocity": 100}, {"time": 2530, "pitch": 54, "duration": 165, "velocity": 100}, {"time": 2640, "pitch": 47, "duration": 275, "velocity": 100}, {"time": 2860, "pitch": 59, "duration": 220, "velocity": 100}, {"time": 2970, "pitch": 54, "duration": 110, "velocity": 100}, {"time": 3080, "pitch": 35, "duration": 275, "velocity": 100}, {"time": 3190, "pitch": 47, "duration": 220, "velocity": 100}, {"time": 3300, "pitch": 50, "duration": 110, "velocity": 100}, {"time": 3300, "pitch": 54, "duration": 220, "velocity": 100}, {"time": 3300, "pitch": 59, "duration": 220, "velocity": 100}, {"time": 3410, "pitch": 50, "duration": 110, "velocity": 100}, {"time": 3520, "pitch": 35, "duration": 165, "velocity": 100}, {"time": 3520, "pitch": 71, "duration": 220, "velocity": 100}, {"time": 3630, "pitch": 59, "duration": 55, "velocity": 100}, {"time": 3630, "pitch": 62, "duration": 55, "velocity": 100}, {"time": 3630, "pitch": 66, "duration": 55, "velocity": 100}, {"time": 3740, "pitch": 35, "duration": 165, "velocity": 100}, {"time": 3740, "pitch": 47, "duration": 165, "velocity": 100}, {"time": 3740, "pitch": 59, "duration": 110, "velocity": 100}, {"time": 3740, "pitch": 62, "duration": 110, "velocity": 100}, {"time": 3740, "pitch": 71, "duration": 110, "velocity": 100}, {"time": 3850, "pitch": 71, "duration": 55, "velocity": 100}, {"time": 3905, "pitch": 54, "duration": 55, "velocity": 100}, {"time": 3905, "pitch": 59, "duration": 55, "velocity": 100}, {"time": 3905, "pitch": 62, "duration": 55, "velocity": 100}, {"time": 3905, "pitch": 66, "duration": 55, "velocity": 100}, {"time": 3960, "pitch": 35, "duration": 220, "velocity": 100}, {"time": 3960, "pitch": 74, "duration": 110, "velocity": 100}, {"time": 4070, "pitch": 59, "duration": 55, "velocity": 100}, {"time": 4070, "pitch": 62, "duration": 55, "velocity": 100}, {"time": 4070, "pitch": 66, "duration": 55, "velocity": 100}, {"time": 4070, "pitch": 71, "duration": 55, "velocity": 100}, {"time": 4180, "pitch": 42, "duration": 165, "velocity": 100}, {"time": 4180, "pitch": 47, "duration": 220, "velocity": 100}, {"time": 4180, "pitch": 74, "duration": 110, "velocity": 100}, {"time": 4290, "pitch": 59, "duration": 110, "velocity": 100}, {"time": 4290, "pitch": 62, "duration": 110, "velocity": 100}, {"time": 4290, "pitch": 66, "duration": 110, "velocity": 100}, {"time": 4290, "pitch": 71, "duration": 110, "velocity": 100}, {"time": 4400, "pitch": 35, "duration": 220, "velocity": 100}, {"time": 4510, "pitch": 59, "duration": 55, "velocity": 100}, {"time": 4510, "pitch": 62, "duration": 55, "velocity": 100}, {"time": 4510, "pitch": 66, "duration": 55, "velocity": 100}, {"time": 4510, "pitch": 71, "duration": 55, "velocity": 100}, {"time": 4565, "pitch": 73, "duration": 55, "velocity": 100}, {"time": 4620, "pitch": 35, "duration": 165, "velocity": 100}, {"time": 4620, "pitch": 47, "duration": 165, "velocity": 100}, {"time": 4620, "pitch": 59, "duration": 110, "velocity": 100}, {"time": 4620, "pitch": 62, "duration": 110, "velocity": 100}, {"time": 4620, "pitch": 71, "duration": 55, "velocity": 100}, {"time": 4730, "pitch": 71, "duration": 55, "velocity": 100}, {"time": 4785, "pitch": 54, "duration": 55, "velocity": 100}, {"time": 4785, "pitch": 62, "duration": 55, "velocity": 100}, {"time": 4785, "pitch": 66, "duration": 55, "velocity": 100}, {"time": 4840, "pitch": 35, "duration": 220, "velocity": 100}, {"time": 4950, "pitch": 59, "duration": 110, "velocity": 100}, {"time": 4950, "pitch": 62, "duration": 110, "velocity": 100}, {"time": 4950, "pitch": 66, "duration": 110, "velocity": 100}, {"time": 4950, "pitch": 71, "duration": 110, "velocity": 100}, {"time": 5060, "pitch": 47, "duration": 220, "velocity": 100}, {"time": 5060, "pitch": 74, "duration": 110, "velocity": 100}, {"time": 5115, "pitch": 42, "duration": 165, "velocity": 100}, {"time": 5170, "pitch": 54, "duration": 110, "velocity": 100}, {"time": 5170, "pitch": 62, "duration": 110, "velocity": 100}, {"time": 5170, "pitch": 78, "duration": 110, "velocity": 100}, {"time": 5225, "pitch": 47, "duration": 55, "velocity": 100}, {"time": 5225, "pitch": 54, "duration": 55, "velocity": 100}, {"time": 5280, "pitch": 78, "duration": 220, "velocity": 100}, {"time": 5390, "pitch": 59, "duration": 55, "velocity": 100}, {"time": 5390, "pitch": 62, "duration": 55, "velocity": 100}, {"time": 5390, "pitch": 66, "duration": 55, "velocity": 100}, {"time": 5500, "pitch": 47, "duration": 110, "velocity": 100}, {"time": 5500, "pitch": 59, "duration": 55, "velocity": 100}, {"time": 5500, "pitch": 62, "duration": 55, "velocity": 100}, {"time": 5500, "pitch": 66, "duration": 55, "velocity": 100}, {"time": 5665, "pitch": 47, "duration": 55, "velocity": 100}, {"time": 5665, "pitch": 59, "duration": 55, "velocity": 100}, {"time": 5665, "pitch": 62, "duration": 55, "velocity": 100}, {"time": 5665, "pitch": 66, "duration": 55, "velocity": 100}, {"time": 5830, "pitch": 59, "duration": 55, "velocity": 100}, {"time": 5830, "pitch": 62, "duration": 55, "velocity": 100}, {"time": 5830, "pitch": 64, "duration": 55, "velocity": 100}, {"time": 5940, "pitch": 54, "duration": 55, "velocity": 100}, {"time": 5940, "pitch": 59, "duration": 110, "velocity": 100}, {"time": 5940, "pitch": 62, "duration": 110, "velocity": 100}, {"time": 5940, "pitch": 66, "duration": 110, "velocity": 100}, {"time": 5995, "pitch": 47, "duration": 165, "velocity": 100}, {"time": 6050, "pitch": 59, "duration": 110, "velocity": 100}, {"time": 6050, "pitch": 62, "duration": 110, "velocity": 100}, {"time": 6050, "pitch": 66, "duration": 55, "velocity": 100}, {"time": 6160, "pitch": 47, "duration": 220, "velocity": 100}, {"time": 6270, "pitch": 59, "duration": 55, "velocity": 100}, {"time": 6270, "pitch": 62, "duration": 55, "velocity": 100}, {"time": 6270, "pitch": 66, "duration": 55, "velocity": 100}, {"time": 6380, "pitch": 47, "duration": 165, "velocity": 100}, {"time": 6380, "pitch": 54, "duration": 165, "velocity": 100}, {"time": 6380, "pitch": 59, "duration": 110, "velocity": 100}, {"time": 6380, "pitch": 62, "duration": 110, "velocity": 100}, {"time": 6380, "pitch": 66, "duration": 110, "velocity": 100}, {"time": 6545, "pitch": 59, "duration": 55, "velocity": 100}, {"time": 6545, "pitch": 62, "duration": 55, "velocity": 100}, {"time": 6545, "pitch": 66, "duration": 55, "velocity": 100}, {"time": 6600, "pitch": 47, "duration": 385, "velocity": 100}, {"time": 6710, "pitch": 59, "duration": 110, "velocity": 100}, {"time": 6710, "pitch": 62, "duration": 55, "velocity": 100}, {"time": 6710, "pitch": 66, "duration": 55, "velocity": 100}, {"time": 6820, "pitch": 54, "duration": 220, "velocity": 100}, {"time": 6820, "pitch": 59, "duration": 55, "velocity": 100}, {"time": 6875, "pitch": 59, "duration": 165, "velocity": 100}, {"time": 6875, "pitch": 62, "duration": 165, "velocity": 100}, {"time": 6875, "pitch": 66, "duration": 165, "velocity": 100}, {"time": 7040, "pitch": 48, "duration": 330, "velocity": 100}, {"time": 7150, "pitch": 60, "duration": 55, "velocity": 100}, {"time": 7150, "pitch": 64, "duration": 55, "velocity": 100}, {"time": 7150, "pitch": 67, "duration": 55, "velocity": 100}, {"time": 7260, "pitch": 60, "duration": 165, "velocity": 100}, {"time": 7260, "pitch": 64, "duration": 165, "velocity": 100}, {"time": 7260, "pitch": 67, "duration": 110, "velocity": 100}, {"time": 7425, "pitch": 48, "duration": 275, "velocity": 100}, {"time": 7425, "pitch": 60, "duration": 55, "velocity": 100}, {"time": 7425, "pitch": 64, "duration": 55, "velocity": 100}, {"time": 7425, "pitch": 67, "duration": 55, "velocity": 100}, {"time": 7590, "pitch": 60, "duration": 165, "velocity": 100}, {"time": 7590, "pitch": 64, "duration": 165, "velocity": 100}, {"time": 7590, "pitch": 67, "duration": 165, "velocity": 100}, {"time": 7700, "pitch": 55, "duration": 165, "velocity": 100}, {"time": 7810, "pitch": 60, "duration": 110, "velocity": 100}, {"time": 7810, "pitch": 64, "duration": 110, "velocity": 100}, {"time": 7810, "pitch": 67, "duration": 110, "velocity": 100}, {"time": 7920, "pitch": 48, "duration": 385, "velocity": 100}, {"time": 7920, "pitch": 60, "duration": 110, "velocity": 100}, {"time": 7920, "pitch": 64, "duration": 110, "velocity": 100}, {"time": 8030, "pitch": 60, "duration": 55, "velocity": 100}, {"time": 8030, "pitch": 67, "duration": 55, "velocity": 100}, {"time": 8140, "pitch": 48, "duration": 220, "velocity": 100}, {"time": 8140, "pitch": 55, "duration": 110, "velocity": 100}, {"time": 8140, "pitch": 60, "duration": 110, "velocity": 100}, {"time": 8140, "pitch": 64, "duration": 110, "velocity": 100}, {"time": 8140, "pitch": 67, "duration": 55, "velocity": 100}, {"time": 8250, "pitch": 60, "duration": 55, "velocity": 100}, {"time": 8250, "pitch": 64, "duration": 55, "velocity": 100}, {"time": 8250, "pitch": 67, "duration": 55, "velocity": 100}, {"time": 8305, "pitch": 48, "duration": 275, "velocity": 100}, {"time": 8305, "pitch": 55, "duration": 55, "velocity": 100}, {"time": 8305, "pitch": 60, "duration": 55, "velocity": 100}, {"time": 8305, "pitch": 64, "duration": 55, "velocity": 100}, {"time": 8470, "pitch": 55, "duration": 165, "velocity": 100}, {"time": 8470, "pitch": 60, "duration": 165, "velocity": 100}, {"time": 8470, "pitch": 64, "duration": 165, "velocity": 100}, {"time": 8470, "pitch": 67, "duration": 55, "velocity": 100}, {"time": 8525, "pitch": 48, "duration": 275, "velocity": 100}, {"time": 8690, "pitch": 60, "duration": 110, "velocity": 100}, {"time": 8690, "pitch": 64, "duration": 110, "velocity": 100}, {"time": 8690, "pitch": 67, "duration": 110, "velocity": 100}]}]}