{"metadata": {"schema_version": "0.1", "title": "None", "source_filename": "20211209_140709.mid", "source_format": "midi"}, "resolution": 220, "tempos": [{"time": 0, "qpm": 120.0}], "time_signatures": [{"time": 0, "numerator": 4, "denominator": 4}], "tracks": [{"program": 0, "is_drum": false, "name": "Piano", "notes": [{"time": 0, "pitch": 80, "duration": 495, "velocity": 100}, {"time": 495, "pitch": 72, "duration": 110, "velocity": 100}, {"time": 660, "pitch": 68, "duration": 165, "velocity": 100}, {"time": 935, "pitch": 72, "duration": 495, "velocity": 100}, {"time": 1430, "pitch": 72, "duration": 110, "velocity": 100}, {"time": 1595, "pitch": 68, "duration": 165, "velocity": 100}, {"time": 1870, "pitch": 70, "duration": 495, "velocity": 100}, {"time": 2365, "pitch": 70, "duration": 110, "velocity": 100}, {"time": 2530, "pitch": 73, "duration": 165, "velocity": 100}, {"time": 2750, "pitch": 72, "duration": 330, "velocity": 100}, {"time": 3080, "pitch": 72, "duration": 110, "velocity": 100}, {"time": 3245, "pitch": 72, "duration": 110, "velocity": 100}, {"time": 3355, "pitch": 68, "duration": 165, "velocity": 100}, {"time": 3795, "pitch": 72, "duration": 165, "velocity": 100}, {"time": 4015, "pitch": 72, "duration": 165, "velocity": 100}, {"time": 4235, "pitch": 68, "duration": 495, "velocity": 100}, {"time": 4730, "pitch": 72, "duration": 165, "velocity": 100}, {"time": 4950, "pitch": 68, "duration": 165, "velocity": 100}, {"time": 5170, "pitch": 65, "duration": 110, "velocity": 100}, {"time": 5720, "pitch": 70, "duration": 110, "velocity": 100}, {"time": 5885, "pitch": 73, "duration": 165, "velocity": 100}, {"time": 6105, "pitch": 72, "duration": 550, "velocity": 100}, {"time": 6655, "pitch": 68, "duration": 110, "velocity": 100}, {"time": 6820, "pitch": 72, "duration": 165, "velocity": 100}, {"time": 7040, "pitch": 68, "duration": 550, "velocity": 100}, {"time": 7590, "pitch": 62, "duration": 110, "velocity": 100}, {"time": 7755, "pitch": 62, "duration": 165, "velocity": 100}, {"time": 7975, "pitch": 67, "duration": 550, "velocity": 100}, {"time": 8525, "pitch": 72, "duration": 110, "velocity": 100}, {"time": 8690, "pitch": 60, "duration": 110, "velocity": 100}, {"time": 8910, "pitch": 67, "duration": 330, "velocity": 100}, {"time": 9240, "pitch": 67, "duration": 110, "velocity": 100}, {"time": 9350, "pitch": 62, "duration": 110, "velocity": 100}, {"time": 9515, "pitch": 75, "duration": 440, "velocity": 100}, {"time": 9955, "pitch": 67, "duration": 110, "velocity": 100}, {"time": 10120, "pitch": 72, "duration": 165, "velocity": 100}, {"time": 10395, "pitch": 77, "duration": 165, "velocity": 100}, {"time": 10890, "pitch": 67, "duration": 110, "velocity": 100}, {"time": 11055, "pitch": 67, "duration": 220, "velocity": 100}, {"time": 11330, "pitch": 78, "duration": 495, "velocity": 100}, {"time": 11825, "pitch": 67, "duration": 110, "velocity": 100}, {"time": 11990, "pitch": 79, "duration": 220, "velocity": 100}, {"time": 12265, "pitch": 67, "duration": 55, "velocity": 100}, {"time": 12760, "pitch": 77, "duration": 275, "velocity": 100}, {"time": 13255, "pitch": 68, "duration": 275, "velocity": 100}, {"time": 13695, "pitch": 80, "duration": 330, "velocity": 100}, {"time": 14190, "pitch": 68, "duration": 165, "velocity": 100}, {"time": 14520, "pitch": 80, "duration": 165, "velocity": 100}, {"time": 14850, "pitch": 73, "duration": 440, "velocity": 100}, {"time": 15290, "pitch": 73, "duration": 110, "velocity": 100}, {"time": 15455, "pitch": 80, "duration": 220, "velocity": 100}, {"time": 15730, "pitch": 75, "duration": 110, "velocity": 100}, {"time": 16280, "pitch": 84, "duration": 110, "velocity": 100}, {"time": 16445, "pitch": 75, "duration": 165, "velocity": 100}, {"time": 16720, "pitch": 85, "duration": 275, "velocity": 100}, {"time": 17160, "pitch": 77, "duration": 330, "velocity": 100}, {"time": 17655, "pitch": 72, "duration": 220, "velocity": 100}, {"time": 17985, "pitch": 84, "duration": 220, "velocity": 100}, {"time": 18370, "pitch": 80, "duration": 440, "velocity": 100}, {"time": 18810, "pitch": 68, "duration": 110, "velocity": 100}, {"time": 18975, "pitch": 68, "duration": 220, "velocity": 100}, {"time": 19250, "pitch": 68, "duration": 110, "velocity": 100}, {"time": 19745, "pitch": 72, "duration": 110, "velocity": 100}, {"time": 19965, "pitch": 72, "duration": 165, "velocity": 100}, {"time": 20185, "pitch": 70, "duration": 495, "velocity": 100}, {"time": 20680, "pitch": 73, "duration": 110, "velocity": 100}, {"time": 20900, "pitch": 73, "duration": 165, "velocity": 100}, {"time": 21120, "pitch": 68, "duration": 495, "velocity": 100}, {"time": 21615, "pitch": 72, "duration": 165, "velocity": 100}, {"time": 21835, "pitch": 72, "duration": 165, "velocity": 100}, {"time": 22055, "pitch": 72, "duration": 550, "velocity": 100}, {"time": 22605, "pitch": 72, "duration": 110, "velocity": 100}, {"time": 22770, "pitch": 72, "duration": 110, "velocity": 100}, {"time": 22990, "pitch": 72, "duration": 550, "velocity": 100}, {"time": 23540, "pitch": 72, "duration": 110, "velocity": 100}, {"time": 23705, "pitch": 72, "duration": 165, "velocity": 100}, {"time": 23870, "pitch": 65, "duration": 385, "velocity": 100}, {"time": 24255, "pitch": 73, "duration": 55, "velocity": 100}, {"time": 24365, "pitch": 73, "duration": 110, "velocity": 100}, {"time": 24530, "pitch": 72, "duration": 110, "velocity": 100}, {"time": 24970, "pitch": 72, "duration": 110, "velocity": 100}, {"time": 25135, "pitch": 72, "duration": 165, "velocity": 100}, {"time": 25355, "pitch": 65, "duration": 550, "velocity": 100}, {"time": 25905, "pitch": 62, "duration": 110, "velocity": 100}, {"time": 26070, "pitch": 62, "duration": 165, "velocity": 100}, {"time": 26345, "pitch": 72, "duration": 55, "velocity": 100}, {"time": 26840, "pitch": 72, "duration": 110, "velocity": 100}, {"time": 27005, "pitch": 72, "duration": 165, "velocity": 100}, {"time": 27280, "pitch": 67, "duration": 495, "velocity": 100}, {"time": 27775, "pitch": 62, "duration": 110, "velocity": 100}, {"time": 27940, "pitch": 62, "duration": 220, "velocity": 100}, {"time": 28215, "pitch": 75, "duration": 495, "velocity": 100}, {"time": 28710, "pitch": 72, "duration": 110, "velocity": 100}, {"time": 28875, "pitch": 72, "duration": 220, "velocity": 100}, {"time": 29150, "pitch": 67, "duration": 495, "velocity": 100}, {"time": 29645, "pitch": 67, "duration": 110, "velocity": 100}, {"time": 29865, "pitch": 67, "duration": 55, "velocity": 100}, {"time": 30030, "pitch": 67, "duration": 330, "velocity": 100}, {"time": 30360, "pitch": 67, "duration": 110, "velocity": 100}, {"time": 30525, "pitch": 67, "duration": 110, "velocity": 100}, {"time": 30635, "pitch": 67, "duration": 495, "velocity": 100}, {"time": 31130, "pitch": 68, "duration": 220, "velocity": 100}, {"time": 31570, "pitch": 68, "duration": 110, "velocity": 100}, {"time": 32065, "pitch": 68, "duration": 275, "velocity": 100}, {"time": 32505, "pitch": 68, "duration": 330, "velocity": 100}, {"time": 33000, "pitch": 73, "duration": 330, "velocity": 100}, {"time": 33495, "pitch": 73, "duration": 550, "velocity": 100}, {"time": 34045, "pitch": 73, "duration": 110, "velocity": 100}, {"time": 34265, "pitch": 73, "duration": 110, "velocity": 100}, {"time": 34430, "pitch": 75, "duration": 385, "velocity": 100}, {"time": 34815, "pitch": 75, "duration": 55, "velocity": 100}, {"time": 34925, "pitch": 75, "duration": 110, "velocity": 100}, {"time": 35090, "pitch": 73, "duration": 110, "velocity": 100}, {"time": 35530, "pitch": 71, "duration": 275, "velocity": 100}, {"time": 36025, "pitch": 72, "duration": 275, "velocity": 100}, {"time": 36520, "pitch": 72, "duration": 330, "velocity": 100}, {"time": 37015, "pitch": 72, "duration": 550, "velocity": 100}, {"time": 37565, "pitch": 72, "duration": 110, "velocity": 100}, {"time": 37730, "pitch": 72, "duration": 165, "velocity": 100}, {"time": 37950, "pitch": 72, "duration": 550, "velocity": 100}, {"time": 38500, "pitch": 72, "duration": 110, "velocity": 100}, {"time": 38665, "pitch": 72, "duration": 55, "velocity": 100}, {"time": 38830, "pitch": 68, "duration": 385, "velocity": 100}, {"time": 39215, "pitch": 68, "duration": 55, "velocity": 100}, {"time": 39325, "pitch": 68, "duration": 110, "velocity": 100}, {"time": 39490, "pitch": 77, "duration": 110, "velocity": 100}, {"time": 39875, "pitch": 73, "duration": 165, "velocity": 100}, {"time": 40370, "pitch": 68, "duration": 110, "velocity": 100}, {"time": 40865, "pitch": 68, "duration": 110, "velocity": 100}, {"time": 41085, "pitch": 68, "duration": 165, "velocity": 100}, {"time": 41305, "pitch": 77, "duration": 165, "velocity": 100}, {"time": 41745, "pitch": 73, "duration": 165, "velocity": 100}, {"time": 42240, "pitch": 77, "duration": 550, "velocity": 100}, {"time": 42790, "pitch": 77, "duration": 110, "velocity": 100}, {"time": 42955, "pitch": 77, "duration": 165, "velocity": 100}, {"time": 43175, "pitch": 77, "duration": 550, "velocity": 100}, {"time": 43725, "pitch": 77, "duration": 110, "velocity": 100}, {"time": 43890, "pitch": 77, "duration": 110, "velocity": 100}, {"time": 44110, "pitch": 73, "duration": 550, "velocity": 100}, {"time": 44660, "pitch": 73, "duration": 110, "velocity": 100}, {"time": 44825, "pitch": 73, "duration": 165, "velocity": 100}, {"time": 44990, "pitch": 82, "duration": 165, "velocity": 100}, {"time": 45320, "pitch": 78, "duration": 110, "velocity": 100}, {"time": 45650, "pitch": 73, "duration": 110, "velocity": 100}, {"time": 46090, "pitch": 73, "duration": 110, "velocity": 100}, {"time": 46310, "pitch": 73, "duration": 165, "velocity": 100}, {"time": 46530, "pitch": 82, "duration": 165, "velocity": 100}, {"time": 46970, "pitch": 78, "duration": 220, "velocity": 100}, {"time": 47465, "pitch": 82, "duration": 55, "velocity": 100}, {"time": 47685, "pitch": 70, "duration": 220, "velocity": 100}, {"time": 47960, "pitch": 73, "duration": 165, "velocity": 100}, {"time": 48180, "pitch": 70, "duration": 165, "velocity": 100}, {"time": 48400, "pitch": 78, "duration": 165, "velocity": 100}, {"time": 48620, "pitch": 66, "duration": 220, "velocity": 100}, {"time": 48895, "pitch": 74, "duration": 165, "velocity": 100}, {"time": 49115, "pitch": 66, "duration": 165, "velocity": 100}, {"time": 49335, "pitch": 76, "duration": 165, "velocity": 100}, {"time": 49555, "pitch": 67, "duration": 220, "velocity": 100}, {"time": 49830, "pitch": 73, "duration": 165, "velocity": 100}, {"time": 50050, "pitch": 67, "duration": 165, "velocity": 100}, {"time": 50270, "pitch": 71, "duration": 165, "velocity": 100}, {"time": 50490, "pitch": 66, "duration": 220, "velocity": 100}, {"time": 50765, "pitch": 74, "duration": 165, "velocity": 100}, {"time": 50985, "pitch": 66, "duration": 55, "velocity": 100}, {"time": 51150, "pitch": 79, "duration": 110, "velocity": 100}, {"time": 51315, "pitch": 70, "duration": 110, "velocity": 100}, {"time": 51480, "pitch": 76, "duration": 110, "velocity": 100}, {"time": 51645, "pitch": 70, "duration": 110, "velocity": 100}, {"time": 51810, "pitch": 78, "duration": 110, "velocity": 100}, {"time": 51920, "pitch": 70, "duration": 220, "velocity": 100}, {"time": 52195, "pitch": 78, "duration": 165, "velocity": 100}, {"time": 52415, "pitch": 71, "duration": 165, "velocity": 100}, {"time": 52635, "pitch": 83, "duration": 165, "velocity": 100}, {"time": 52910, "pitch": 71, "duration": 165, "velocity": 100}, {"time": 53130, "pitch": 79, "duration": 165, "velocity": 100}, {"time": 53350, "pitch": 71, "duration": 165, "velocity": 100}, {"time": 53570, "pitch": 79, "duration": 165, "velocity": 100}, {"time": 53845, "pitch": 67, "duration": 165, "velocity": 100}, {"time": 54065, "pitch": 75, "duration": 165, "velocity": 100}, {"time": 54285, "pitch": 67, "duration": 165, "velocity": 100}, {"time": 54505, "pitch": 77, "duration": 55, "velocity": 100}, {"time": 54780, "pitch": 68, "duration": 165, "velocity": 100}, {"time": 55000, "pitch": 74, "duration": 165, "velocity": 100}, {"time": 55220, "pitch": 68, "duration": 165, "velocity": 100}, {"time": 55440, "pitch": 72, "duration": 165, "velocity": 100}, {"time": 55715, "pitch": 67, "duration": 165, "velocity": 100}, {"time": 55935, "pitch": 75, "duration": 165, "velocity": 100}, {"time": 56155, "pitch": 67, "duration": 165, "velocity": 100}, {"time": 56375, "pitch": 80, "duration": 165, "velocity": 100}, {"time": 56650, "pitch": 71, "duration": 165, "velocity": 100}, {"time": 56870, "pitch": 77, "duration": 165, "velocity": 100}, {"time": 57090, "pitch": 71, "duration": 165, "velocity": 100}, {"time": 57310, "pitch": 79, "duration": 165, "velocity": 100}, {"time": 57585, "pitch": 71, "duration": 165, "velocity": 100}, {"time": 57805, "pitch": 79, "duration": 165, "velocity": 100}, {"time": 58025, "pitch": 72, "duration": 55, "velocity": 100}, {"time": 58190, "pitch": 70, "duration": 110, "velocity": 100}, {"time": 58355, "pitch": 75, "duration": 110, "velocity": 100}, {"time": 58520, "pitch": 74, "duration": 110, "velocity": 100}, {"time": 58685, "pitch": 75, "duration": 110, "velocity": 100}, {"time": 58850, "pitch": 75, "duration": 110, "velocity": 100}, {"time": 59015, "pitch": 80, "duration": 165, "velocity": 100}, {"time": 59235, "pitch": 79, "duration": 165, "velocity": 100}, {"time": 59455, "pitch": 80, "duration": 165, "velocity": 100}, {"time": 59675, "pitch": 87, "duration": 165, "velocity": 100}, {"time": 59950, "pitch": 75, "duration": 165, "velocity": 100}, {"time": 60170, "pitch": 79, "duration": 165, "velocity": 100}, {"time": 60390, "pitch": 75, "duration": 165, "velocity": 100}, {"time": 60610, "pitch": 75, "duration": 220, "velocity": 100}, {"time": 60885, "pitch": 80, "duration": 165, "velocity": 100}, {"time": 61105, "pitch": 79, "duration": 165, "velocity": 100}, {"time": 61325, "pitch": 80, "duration": 165, "velocity": 100}, {"time": 61600, "pitch": 78, "duration": 165, "velocity": 100}, {"time": 61820, "pitch": 66, "duration": 165, "velocity": 100}, {"time": 62040, "pitch": 70, "duration": 165, "velocity": 100}, {"time": 62260, "pitch": 66, "duration": 165, "velocity": 100}, {"time": 62480, "pitch": 66, "duration": 220, "velocity": 100}, {"time": 62755, "pitch": 71, "duration": 165, "velocity": 100}, {"time": 62975, "pitch": 70, "duration": 165, "velocity": 100}, {"time": 63195, "pitch": 71, "duration": 165, "velocity": 100}, {"time": 63415, "pitch": 71, "duration": 220, "velocity": 100}, {"time": 63690, "pitch": 76, "duration": 165, "velocity": 100}, {"time": 63910, "pitch": 75, "duration": 165, "velocity": 100}, {"time": 64130, "pitch": 76, "duration": 165, "velocity": 100}, {"time": 64350, "pitch": 76, "duration": 110, "velocity": 100}, {"time": 64515, "pitch": 81, "duration": 110, "velocity": 100}, {"time": 64625, "pitch": 80, "duration": 165, "velocity": 100}, {"time": 64790, "pitch": 81, "duration": 110, "velocity": 100}, {"time": 64955, "pitch": 88, "duration": 110, "velocity": 100}, {"time": 65120, "pitch": 76, "duration": 165, "velocity": 100}, {"time": 65340, "pitch": 80, "duration": 165, "velocity": 100}, {"time": 65560, "pitch": 76, "duration": 165, "velocity": 100}, {"time": 65835, "pitch": 76, "duration": 165, "velocity": 100}, {"time": 66055, "pitch": 81, "duration": 165, "velocity": 100}, {"time": 66275, "pitch": 80, "duration": 165, "velocity": 100}, {"time": 66495, "pitch": 81, "duration": 165, "velocity": 100}, {"time": 66770, "pitch": 79, "duration": 110, "velocity": 100}, {"time": 66990, "pitch": 67, "duration": 165, "velocity": 100}, {"time": 67210, "pitch": 71, "duration": 165, "velocity": 100}, {"time": 67430, "pitch": 67, "duration": 165, "velocity": 100}, {"time": 67705, "pitch": 67, "duration": 165, "velocity": 100}, {"time": 67925, "pitch": 72, "duration": 165, "velocity": 100}, {"time": 68145, "pitch": 71, "duration": 165, "velocity": 100}, {"time": 68365, "pitch": 72, "duration": 165, "velocity": 100}, {"time": 68640, "pitch": 73, "duration": 495, "velocity": 100}, {"time": 69135, "pitch": 73, "duration": 165, "velocity": 100}, {"time": 69300, "pitch": 73, "duration": 275, "velocity": 100}, {"time": 69575, "pitch": 73, "duration": 495, "velocity": 100}, {"time": 70070, "pitch": 73, "duration": 165, "velocity": 100}, {"time": 70235, "pitch": 73, "duration": 165, "velocity": 100}, {"time": 70510, "pitch": 73, "duration": 495, "velocity": 100}, {"time": 71005, "pitch": 73, "duration": 165, "velocity": 100}, {"time": 71225, "pitch": 73, "duration": 165, "velocity": 100}, {"time": 71390, "pitch": 79, "duration": 385, "velocity": 100}, {"time": 71775, "pitch": 84, "duration": 110, "velocity": 100}, {"time": 71885, "pitch": 84, "duration": 165, "velocity": 100}, {"time": 72050, "pitch": 73, "duration": 110, "velocity": 100}, {"time": 72545, "pitch": 73, "duration": 165, "velocity": 100}, {"time": 72710, "pitch": 73, "duration": 220, "velocity": 100}, {"time": 72930, "pitch": 73, "duration": 550, "velocity": 100}, {"time": 73480, "pitch": 73, "duration": 165, "velocity": 100}, {"time": 73645, "pitch": 73, "duration": 220, "velocity": 100}, {"time": 73865, "pitch": 73, "duration": 55, "velocity": 100}, {"time": 74415, "pitch": 73, "duration": 165, "velocity": 100}, {"time": 74580, "pitch": 73, "duration": 220, "velocity": 100}, {"time": 74855, "pitch": 79, "duration": 495, "velocity": 100}, {"time": 75350, "pitch": 84, "duration": 220, "velocity": 100}, {"time": 75570, "pitch": 84, "duration": 110, "velocity": 100}, {"time": 75790, "pitch": 73, "duration": 330, "velocity": 100}, {"time": 76120, "pitch": 73, "duration": 110, "velocity": 100}, {"time": 76230, "pitch": 73, "duration": 165, "velocity": 100}, {"time": 76450, "pitch": 79, "duration": 440, "velocity": 100}, {"time": 76890, "pitch": 84, "duration": 165, "velocity": 100}, {"time": 77110, "pitch": 84, "duration": 220, "velocity": 100}, {"time": 77330, "pitch": 60, "duration": 110, "velocity": 100}, {"time": 77825, "pitch": 61, "duration": 165, "velocity": 100}, {"time": 78045, "pitch": 60, "duration": 165, "velocity": 100}, {"time": 78265, "pitch": 61, "duration": 275, "velocity": 100}, {"time": 78760, "pitch": 60, "duration": 165, "velocity": 100}, {"time": 78980, "pitch": 62, "duration": 165, "velocity": 100}, {"time": 79200, "pitch": 64, "duration": 275, "velocity": 100}, {"time": 79695, "pitch": 65, "duration": 165, "velocity": 100}, {"time": 79915, "pitch": 64, "duration": 165, "velocity": 100}, {"time": 80135, "pitch": 65, "duration": 275, "velocity": 100}, {"time": 80630, "pitch": 64, "duration": 165, "velocity": 100}, {"time": 80850, "pitch": 66, "duration": 110, "velocity": 100}, {"time": 81070, "pitch": 67, "duration": 550, "velocity": 100}, {"time": 81620, "pitch": 68, "duration": 220, "velocity": 100}, {"time": 81840, "pitch": 67, "duration": 165, "velocity": 100}, {"time": 82005, "pitch": 70, "duration": 330, "velocity": 100}, {"time": 82335, "pitch": 68, "duration": 110, "velocity": 100}, {"time": 82445, "pitch": 73, "duration": 165, "velocity": 100}, {"time": 82610, "pitch": 72, "duration": 110, "velocity": 100}, {"time": 83050, "pitch": 74, "duration": 220, "velocity": 100}, {"time": 83270, "pitch": 75, "duration": 220, "velocity": 100}, {"time": 83490, "pitch": 76, "duration": 495, "velocity": 100}, {"time": 83985, "pitch": 77, "duration": 275, "velocity": 100}, {"time": 84260, "pitch": 79, "duration": 220, "velocity": 100}, {"time": 84480, "pitch": 80, "duration": 495, "velocity": 100}, {"time": 84975, "pitch": 68, "duration": 110, "velocity": 100}, {"time": 85140, "pitch": 68, "duration": 165, "velocity": 100}, {"time": 85415, "pitch": 68, "duration": 495, "velocity": 100}, {"time": 85910, "pitch": 72, "duration": 110, "velocity": 100}, {"time": 86075, "pitch": 72, "duration": 165, "velocity": 100}, {"time": 86350, "pitch": 70, "duration": 495, "velocity": 100}, {"time": 86845, "pitch": 73, "duration": 110, "velocity": 100}, {"time": 87010, "pitch": 73, "duration": 165, "velocity": 100}, {"time": 87230, "pitch": 68, "duration": 330, "velocity": 100}, {"time": 87560, "pitch": 72, "duration": 110, "velocity": 100}, {"time": 87670, "pitch": 72, "duration": 165, "velocity": 100}, {"time": 87835, "pitch": 72, "duration": 165, "velocity": 100}, {"time": 88275, "pitch": 72, "duration": 110, "velocity": 100}, {"time": 88495, "pitch": 72, "duration": 165, "velocity": 100}, {"time": 88715, "pitch": 72, "duration": 495, "velocity": 100}, {"time": 89210, "pitch": 72, "duration": 165, "velocity": 100}, {"time": 89430, "pitch": 72, "duration": 165, "velocity": 100}, {"time": 89650, "pitch": 65, "duration": 110, "velocity": 100}, {"time": 90200, "pitch": 73, "duration": 110, "velocity": 100}, {"time": 90365, "pitch": 73, "duration": 165, "velocity": 100}, {"time": 90585, "pitch": 72, "duration": 550, "velocity": 100}, {"time": 91135, "pitch": 72, "duration": 110, "velocity": 100}, {"time": 91300, "pitch": 72, "duration": 165, "velocity": 100}, {"time": 91520, "pitch": 70, "duration": 550, "velocity": 100}, {"time": 92070, "pitch": 67, "duration": 110, "velocity": 100}, {"time": 92235, "pitch": 67, "duration": 165, "velocity": 100}, {"time": 92455, "pitch": 77, "duration": 550, "velocity": 100}, {"time": 93005, "pitch": 77, "duration": 110, "velocity": 100}, {"time": 93170, "pitch": 77, "duration": 110, "velocity": 100}, {"time": 93390, "pitch": 72, "duration": 550, "velocity": 100}, {"time": 93940, "pitch": 67, "duration": 110, "velocity": 100}, {"time": 94105, "pitch": 67, "duration": 165, "velocity": 100}, {"time": 94270, "pitch": 80, "duration": 385, "velocity": 100}, {"time": 94655, "pitch": 77, "duration": 55, "velocity": 100}, {"time": 94765, "pitch": 77, "duration": 110, "velocity": 100}, {"time": 94930, "pitch": 72, "duration": 110, "velocity": 100}, {"time": 95370, "pitch": 72, "duration": 110, "velocity": 100}, {"time": 95535, "pitch": 72, "duration": 165, "velocity": 100}, {"time": 95810, "pitch": 72, "duration": 495, "velocity": 100}, {"time": 96305, "pitch": 72, "duration": 110, "velocity": 100}, {"time": 96470, "pitch": 72, "duration": 220, "velocity": 100}, {"time": 96745, "pitch": 72, "duration": 55, "velocity": 100}, {"time": 97240, "pitch": 73, "duration": 275, "velocity": 100}, {"time": 97735, "pitch": 73, "duration": 275, "velocity": 100}, {"time": 98175, "pitch": 73, "duration": 330, "velocity": 100}, {"time": 98670, "pitch": 73, "duration": 165, "velocity": 100}, {"time": 99000, "pitch": 78, "duration": 165, "velocity": 100}, {"time": 99330, "pitch": 78, "duration": 440, "velocity": 100}, {"time": 99770, "pitch": 78, "duration": 110, "velocity": 100}, {"time": 99935, "pitch": 78, "duration": 220, "velocity": 100}, {"time": 100210, "pitch": 80, "duration": 110, "velocity": 100}, {"time": 100760, "pitch": 80, "duration": 110, "velocity": 100}, {"time": 100925, "pitch": 80, "duration": 165, "velocity": 100}, {"time": 101200, "pitch": 78, "duration": 275, "velocity": 100}, {"time": 101640, "pitch": 71, "duration": 330, "velocity": 100}, {"time": 102135, "pitch": 72, "duration": 220, "velocity": 100}, {"time": 102465, "pitch": 72, "duration": 220, "velocity": 100}, {"time": 102850, "pitch": 77, "duration": 495, "velocity": 100}, {"time": 103345, "pitch": 65, "duration": 275, "velocity": 100}, {"time": 103620, "pitch": 67, "duration": 220, "velocity": 100}, {"time": 103840, "pitch": 69, "duration": 440, "velocity": 100}, {"time": 104280, "pitch": 70, "duration": 110, "velocity": 100}, {"time": 104500, "pitch": 72, "duration": 165, "velocity": 100}, {"time": 104720, "pitch": 74, "duration": 495, "velocity": 100}, {"time": 105215, "pitch": 76, "duration": 110, "velocity": 100}, {"time": 105435, "pitch": 76, "duration": 165, "velocity": 100}, {"time": 105655, "pitch": 76, "duration": 495, "velocity": 100}, {"time": 106150, "pitch": 77, "duration": 110, "velocity": 100}, {"time": 106370, "pitch": 77, "duration": 165, "velocity": 100}, {"time": 106590, "pitch": 72, "duration": 495, "velocity": 100}, {"time": 107085, "pitch": 70, "duration": 165, "velocity": 100}, {"time": 107305, "pitch": 70, "duration": 55, "velocity": 100}, {"time": 107470, "pitch": 81, "duration": 110, "velocity": 100}, {"time": 107800, "pitch": 77, "duration": 110, "velocity": 100}, {"time": 108130, "pitch": 72, "duration": 440, "velocity": 100}, {"time": 108570, "pitch": 74, "duration": 110, "velocity": 100}, {"time": 108735, "pitch": 74, "duration": 165, "velocity": 100}, {"time": 108955, "pitch": 76, "duration": 165, "velocity": 100}, {"time": 109505, "pitch": 77, "duration": 110, "velocity": 100}, {"time": 109670, "pitch": 77, "duration": 165, "velocity": 100}, {"time": 109890, "pitch": 72, "duration": 550, "velocity": 100}, {"time": 110440, "pitch": 70, "duration": 110, "velocity": 100}, {"time": 110605, "pitch": 70, "duration": 165, "velocity": 100}, {"time": 110880, "pitch": 81, "duration": 165, "velocity": 100}, {"time": 111320, "pitch": 77, "duration": 165, "velocity": 100}, {"time": 111815, "pitch": 72, "duration": 495, "velocity": 100}, {"time": 112310, "pitch": 70, "duration": 165, "velocity": 100}, {"time": 112530, "pitch": 70, "duration": 110, "velocity": 100}, {"time": 112750, "pitch": 81, "duration": 110, "velocity": 100}, {"time": 113080, "pitch": 77, "duration": 110, "velocity": 100}, {"time": 113355, "pitch": 72, "duration": 440, "velocity": 100}, {"time": 113795, "pitch": 70, "duration": 165, "velocity": 100}, {"time": 114015, "pitch": 70, "duration": 220, "velocity": 100}, {"time": 114290, "pitch": 89, "duration": 110, "velocity": 100}, {"time": 114785, "pitch": 77, "duration": 550, "velocity": 100}, {"time": 116215, "pitch": 72, "duration": 550, "velocity": 100}, {"time": 116765, "pitch": 72, "duration": 110, "velocity": 100}, {"time": 116930, "pitch": 72, "duration": 165, "velocity": 100}, {"time": 117150, "pitch": 72, "duration": 330, "velocity": 100}, {"time": 117480, "pitch": 72, "duration": 110, "velocity": 100}, {"time": 117590, "pitch": 72, "duration": 110, "velocity": 100}, {"time": 117755, "pitch": 68, "duration": 165, "velocity": 100}, {"time": 118195, "pitch": 68, "duration": 110, "velocity": 100}, {"time": 118360, "pitch": 68, "duration": 220, "velocity": 100}, {"time": 118635, "pitch": 77, "duration": 165, "velocity": 100}, {"time": 119075, "pitch": 73, "duration": 165, "velocity": 100}, {"time": 119570, "pitch": 68, "duration": 110, "velocity": 100}, {"time": 120120, "pitch": 68, "duration": 110, "velocity": 100}, {"time": 120285, "pitch": 68, "duration": 165, "velocity": 100}, {"time": 120505, "pitch": 77, "duration": 165, "velocity": 100}, {"time": 121000, "pitch": 73, "duration": 165, "velocity": 100}, {"time": 121440, "pitch": 77, "duration": 550, "velocity": 100}, {"time": 121990, "pitch": 77, "duration": 110, "velocity": 100}, {"time": 122155, "pitch": 77, "duration": 165, "velocity": 100}, {"time": 122375, "pitch": 77, "duration": 550, "velocity": 100}, {"time": 122925, "pitch": 77, "duration": 110, "velocity": 100}, {"time": 123090, "pitch": 77, "duration": 110, "velocity": 100}, {"time": 123310, "pitch": 73, "duration": 330, "velocity": 100}, {"time": 123640, "pitch": 73, "duration": 110, "velocity": 100}, {"time": 123750, "pitch": 73, "duration": 165, "velocity": 100}, {"time": 123915, "pitch": 82, "duration": 110, "velocity": 100}, {"time": 124300, "pitch": 78, "duration": 165, "velocity": 100}, {"time": 124795, "pitch": 73, "duration": 165, "velocity": 100}, {"time": 125345, "pitch": 73, "duration": 110, "velocity": 100}, {"time": 125510, "pitch": 73, "duration": 165, "velocity": 100}, {"time": 125730, "pitch": 82, "duration": 165, "velocity": 100}, {"time": 126225, "pitch": 78, "duration": 165, "velocity": 100}, {"time": 126720, "pitch": 82, "duration": 165, "velocity": 100}, {"time": 126940, "pitch": 70, "duration": 165, "velocity": 100}, {"time": 127160, "pitch": 73, "duration": 165, "velocity": 100}, {"time": 127380, "pitch": 70, "duration": 165, "velocity": 100}, {"time": 127655, "pitch": 78, "duration": 165, "velocity": 100}, {"time": 127875, "pitch": 66, "duration": 165, "velocity": 100}, {"time": 128095, "pitch": 74, "duration": 165, "velocity": 100}, {"time": 128315, "pitch": 66, "duration": 165, "velocity": 100}, {"time": 128590, "pitch": 76, "duration": 165, "velocity": 100}, {"time": 128810, "pitch": 67, "duration": 165, "velocity": 100}, {"time": 129030, "pitch": 73, "duration": 165, "velocity": 100}, {"time": 129250, "pitch": 67, "duration": 165, "velocity": 100}, {"time": 129470, "pitch": 71, "duration": 110, "velocity": 100}, {"time": 129635, "pitch": 66, "duration": 110, "velocity": 100}, {"time": 129800, "pitch": 74, "duration": 110, "velocity": 100}, {"time": 129910, "pitch": 66, "duration": 110, "velocity": 100}, {"time": 130075, "pitch": 79, "duration": 110, "velocity": 100}, {"time": 130240, "pitch": 70, "duration": 165, "velocity": 100}, {"time": 130460, "pitch": 76, "duration": 165, "velocity": 100}, {"time": 130680, "pitch": 70, "duration": 165, "velocity": 100}, {"time": 130955, "pitch": 78, "duration": 165, "velocity": 100}, {"time": 131175, "pitch": 70, "duration": 165, "velocity": 100}, {"time": 131395, "pitch": 78, "duration": 165, "velocity": 100}, {"time": 131615, "pitch": 71, "duration": 165, "velocity": 100}, {"time": 131890, "pitch": 83, "duration": 110, "velocity": 100}, {"time": 132110, "pitch": 71, "duration": 165, "velocity": 100}, {"time": 132330, "pitch": 79, "duration": 165, "velocity": 100}, {"time": 132550, "pitch": 71, "duration": 165, "velocity": 100}, {"time": 132825, "pitch": 79, "duration": 165, "velocity": 100}, {"time": 133045, "pitch": 67, "duration": 165, "velocity": 100}, {"time": 133265, "pitch": 75, "duration": 165, "velocity": 100}, {"time": 133485, "pitch": 67, "duration": 165, "velocity": 100}, {"time": 133760, "pitch": 77, "duration": 165, "velocity": 100}, {"time": 133980, "pitch": 68, "duration": 165, "velocity": 100}, {"time": 134200, "pitch": 74, "duration": 165, "velocity": 100}, {"time": 134420, "pitch": 68, "duration": 165, "velocity": 100}, {"time": 134695, "pitch": 72, "duration": 165, "velocity": 100}, {"time": 134915, "pitch": 67, "duration": 165, "velocity": 100}, {"time": 135135, "pitch": 75, "duration": 165, "velocity": 100}, {"time": 135355, "pitch": 67, "duration": 165, "velocity": 100}, {"time": 135630, "pitch": 80, "duration": 165, "velocity": 100}, {"time": 135850, "pitch": 71, "duration": 165, "velocity": 100}, {"time": 136070, "pitch": 77, "duration": 165, "velocity": 100}, {"time": 136290, "pitch": 71, "duration": 165, "velocity": 100}, {"time": 136510, "pitch": 79, "duration": 110, "velocity": 100}, {"time": 136675, "pitch": 71, "duration": 110, "velocity": 100}, {"time": 136840, "pitch": 79, "duration": 110, "velocity": 100}, {"time": 136950, "pitch": 72, "duration": 110, "velocity": 100}, {"time": 137115, "pitch": 70, "duration": 110, "velocity": 100}, {"time": 137280, "pitch": 75, "duration": 165, "velocity": 100}, {"time": 137500, "pitch": 74, "duration": 165, "velocity": 100}, {"time": 137720, "pitch": 75, "duration": 220, "velocity": 100}, {"time": 137995, "pitch": 75, "duration": 165, "velocity": 100}, {"time": 138215, "pitch": 80, "duration": 165, "velocity": 100}, {"time": 138435, "pitch": 79, "duration": 165, "velocity": 100}, {"time": 138655, "pitch": 80, "duration": 220, "velocity": 100}, {"time": 138930, "pitch": 87, "duration": 110, "velocity": 100}, {"time": 139150, "pitch": 75, "duration": 165, "velocity": 100}, {"time": 139370, "pitch": 79, "duration": 165, "velocity": 100}, {"time": 139590, "pitch": 75, "duration": 220, "velocity": 100}, {"time": 139865, "pitch": 75, "duration": 165, "velocity": 100}, {"time": 140085, "pitch": 80, "duration": 165, "velocity": 100}, {"time": 140305, "pitch": 79, "duration": 165, "velocity": 100}, {"time": 140525, "pitch": 80, "duration": 220, "velocity": 100}, {"time": 140800, "pitch": 78, "duration": 165, "velocity": 100}, {"time": 141020, "pitch": 66, "duration": 165, "velocity": 100}, {"time": 141240, "pitch": 70, "duration": 165, "velocity": 100}, {"time": 141515, "pitch": 66, "duration": 165, "velocity": 100}, {"time": 141735, "pitch": 66, "duration": 165, "velocity": 100}, {"time": 141955, "pitch": 71, "duration": 165, "velocity": 100}, {"time": 142175, "pitch": 70, "duration": 165, "velocity": 100}, {"time": 142450, "pitch": 71, "duration": 110, "velocity": 100}, {"time": 142670, "pitch": 71, "duration": 165, "velocity": 100}, {"time": 142890, "pitch": 76, "duration": 165, "velocity": 100}, {"time": 143110, "pitch": 75, "duration": 165, "velocity": 100}, {"time": 143385, "pitch": 76, "duration": 110, "velocity": 100}, {"time": 143550, "pitch": 76, "duration": 110, "velocity": 100}, {"time": 143715, "pitch": 81, "duration": 110, "velocity": 100}, {"time": 143880, "pitch": 80, "duration": 110, "velocity": 100}, {"time": 144045, "pitch": 81, "duration": 110, "velocity": 100}, {"time": 144155, "pitch": 88, "duration": 110, "velocity": 100}, {"time": 144320, "pitch": 76, "duration": 165, "velocity": 100}, {"time": 144540, "pitch": 80, "duration": 165, "velocity": 100}, {"time": 144815, "pitch": 76, "duration": 165, "velocity": 100}, {"time": 145035, "pitch": 76, "duration": 165, "velocity": 100}, {"time": 145255, "pitch": 81, "duration": 165, "velocity": 100}, {"time": 145475, "pitch": 80, "duration": 165, "velocity": 100}, {"time": 145750, "pitch": 81, "duration": 165, "velocity": 100}, {"time": 145970, "pitch": 79, "duration": 110, "velocity": 100}, {"time": 146190, "pitch": 67, "duration": 165, "velocity": 100}, {"time": 146410, "pitch": 71, "duration": 165, "velocity": 100}, {"time": 146685, "pitch": 67, "duration": 165, "velocity": 100}, {"time": 146905, "pitch": 67, "duration": 165, "velocity": 100}, {"time": 147125, "pitch": 72, "duration": 165, "velocity": 100}, {"time": 147345, "pitch": 71, "duration": 165, "velocity": 100}, {"time": 147620, "pitch": 72, "duration": 165, "velocity": 100}, {"time": 147840, "pitch": 73, "duration": 495, "velocity": 100}, {"time": 148335, "pitch": 73, "duration": 220, "velocity": 100}, {"time": 148555, "pitch": 73, "duration": 220, "velocity": 100}, {"time": 148775, "pitch": 73, "duration": 550, "velocity": 100}, {"time": 149325, "pitch": 73, "duration": 165, "velocity": 100}, {"time": 149490, "pitch": 73, "duration": 110, "velocity": 100}, {"time": 149710, "pitch": 73, "duration": 330, "velocity": 100}, {"time": 150040, "pitch": 73, "duration": 110, "velocity": 100}, {"time": 150150, "pitch": 73, "duration": 165, "velocity": 100}, {"time": 150315, "pitch": 79, "duration": 440, "velocity": 100}, {"time": 150755, "pitch": 84, "duration": 220, "velocity": 100}, {"time": 150975, "pitch": 84, "duration": 220, "velocity": 100}, {"time": 151195, "pitch": 73, "duration": 165, "velocity": 100}, {"time": 151745, "pitch": 73, "duration": 165, "velocity": 100}, {"time": 151910, "pitch": 73, "duration": 220, "velocity": 100}, {"time": 152130, "pitch": 73, "duration": 550, "velocity": 100}, {"time": 152680, "pitch": 73, "duration": 165, "velocity": 100}, {"time": 152845, "pitch": 73, "duration": 220, "velocity": 100}, {"time": 153065, "pitch": 73, "duration": 55, "velocity": 100}, {"time": 153615, "pitch": 73, "duration": 165, "velocity": 100}, {"time": 153780, "pitch": 73, "duration": 275, "velocity": 100}, {"time": 154055, "pitch": 79, "duration": 550, "velocity": 100}, {"time": 154605, "pitch": 84, "duration": 165, "velocity": 100}, {"time": 154770, "pitch": 84, "duration": 110, "velocity": 100}, {"time": 154990, "pitch": 73, "duration": 330, "velocity": 100}, {"time": 155320, "pitch": 73, "duration": 110, "velocity": 100}, {"time": 155485, "pitch": 73, "duration": 165, "velocity": 100}, {"time": 155650, "pitch": 79, "duration": 440, "velocity": 100}, {"time": 156090, "pitch": 84, "duration": 220, "velocity": 100}, {"time": 156310, "pitch": 84, "duration": 220, "velocity": 100}, {"time": 156530, "pitch": 60, "duration": 110, "velocity": 100}, {"time": 157025, "pitch": 61, "duration": 165, "velocity": 100}, {"time": 157245, "pitch": 60, "duration": 165, "velocity": 100}, {"time": 157465, "pitch": 61, "duration": 330, "velocity": 100}, {"time": 157960, "pitch": 60, "duration": 165, "velocity": 100}, {"time": 158180, "pitch": 62, "duration": 165, "velocity": 100}, {"time": 158400, "pitch": 64, "duration": 330, "velocity": 100}, {"time": 158895, "pitch": 65, "duration": 165, "velocity": 100}, {"time": 159115, "pitch": 64, "duration": 165, "velocity": 100}, {"time": 159335, "pitch": 65, "duration": 330, "velocity": 100}, {"time": 159830, "pitch": 64, "duration": 165, "velocity": 100}, {"time": 160050, "pitch": 66, "duration": 110, "velocity": 100}, {"time": 160270, "pitch": 67, "duration": 550, "velocity": 100}, {"time": 160820, "pitch": 68, "duration": 220, "velocity": 100}, {"time": 161040, "pitch": 67, "duration": 165, "velocity": 100}, {"time": 161205, "pitch": 70, "duration": 330, "velocity": 100}, {"time": 161535, "pitch": 68, "duration": 165, "velocity": 100}, {"time": 161700, "pitch": 73, "duration": 110, "velocity": 100}, {"time": 161810, "pitch": 72, "duration": 110, "velocity": 100}, {"time": 162250, "pitch": 74, "duration": 220, "velocity": 100}, {"time": 162470, "pitch": 75, "duration": 220, "velocity": 100}, {"time": 162690, "pitch": 76, "duration": 495, "velocity": 100}, {"time": 163185, "pitch": 77, "duration": 275, "velocity": 100}, {"time": 163460, "pitch": 79, "duration": 220, "velocity": 100}, {"time": 163735, "pitch": 80, "duration": 440, "velocity": 100}, {"time": 164175, "pitch": 68, "duration": 110, "velocity": 100}, {"time": 164395, "pitch": 68, "duration": 165, "velocity": 100}, {"time": 164615, "pitch": 68, "duration": 495, "velocity": 100}, {"time": 165110, "pitch": 72, "duration": 110, "velocity": 100}, {"time": 165330, "pitch": 72, "duration": 110, "velocity": 100}, {"time": 165550, "pitch": 70, "duration": 495, "velocity": 100}, {"time": 166045, "pitch": 73, "duration": 165, "velocity": 100}, {"time": 166265, "pitch": 73, "duration": 220, "velocity": 100}, {"time": 166485, "pitch": 68, "duration": 275, "velocity": 100}, {"time": 166760, "pitch": 72, "duration": 110, "velocity": 100}, {"time": 166925, "pitch": 72, "duration": 110, "velocity": 100}, {"time": 167090, "pitch": 72, "duration": 110, "velocity": 100}, {"time": 167530, "pitch": 72, "duration": 110, "velocity": 100}, {"time": 167695, "pitch": 72, "duration": 165, "velocity": 100}, {"time": 167915, "pitch": 72, "duration": 550, "velocity": 100}, {"time": 168465, "pitch": 72, "duration": 110, "velocity": 100}, {"time": 168630, "pitch": 72, "duration": 165, "velocity": 100}, {"time": 168850, "pitch": 65, "duration": 110, "velocity": 100}, {"time": 169400, "pitch": 73, "duration": 110, "velocity": 100}, {"time": 169565, "pitch": 73, "duration": 165, "velocity": 100}, {"time": 169785, "pitch": 72, "duration": 550, "velocity": 100}, {"time": 170335, "pitch": 72, "duration": 110, "velocity": 100}, {"time": 170500, "pitch": 72, "duration": 165, "velocity": 100}, {"time": 170775, "pitch": 70, "duration": 495, "velocity": 100}, {"time": 171270, "pitch": 67, "duration": 110, "velocity": 100}, {"time": 171435, "pitch": 67, "duration": 220, "velocity": 100}, {"time": 171710, "pitch": 77, "duration": 495, "velocity": 100}, {"time": 172205, "pitch": 77, "duration": 110, "velocity": 100}, {"time": 172370, "pitch": 77, "duration": 110, "velocity": 100}, {"time": 172590, "pitch": 72, "duration": 330, "velocity": 100}, {"time": 172920, "pitch": 67, "duration": 110, "velocity": 100}, {"time": 173085, "pitch": 67, "duration": 110, "velocity": 100}, {"time": 173195, "pitch": 80, "duration": 440, "velocity": 100}, {"time": 173635, "pitch": 77, "duration": 110, "velocity": 100}, {"time": 173855, "pitch": 77, "duration": 165, "velocity": 100}, {"time": 174075, "pitch": 72, "duration": 165, "velocity": 100}, {"time": 174570, "pitch": 72, "duration": 165, "velocity": 100}, {"time": 174790, "pitch": 72, "duration": 165, "velocity": 100}, {"time": 175010, "pitch": 72, "duration": 495, "velocity": 100}, {"time": 175505, "pitch": 72, "duration": 165, "velocity": 100}, {"time": 175725, "pitch": 72, "duration": 165, "velocity": 100}, {"time": 175945, "pitch": 72, "duration": 55, "velocity": 100}, {"time": 176495, "pitch": 73, "duration": 220, "velocity": 100}, {"time": 176935, "pitch": 73, "duration": 275, "velocity": 100}, {"time": 177430, "pitch": 73, "duration": 275, "velocity": 100}, {"time": 177870, "pitch": 73, "duration": 220, "velocity": 100}, {"time": 178200, "pitch": 78, "duration": 220, "velocity": 100}, {"time": 178530, "pitch": 78, "duration": 440, "velocity": 100}, {"time": 178970, "pitch": 78, "duration": 110, "velocity": 100}, {"time": 179190, "pitch": 78, "duration": 165, "velocity": 100}, {"time": 179410, "pitch": 80, "duration": 110, "velocity": 100}, {"time": 179960, "pitch": 80, "duration": 110, "velocity": 100}, {"time": 180125, "pitch": 80, "duration": 220, "velocity": 100}, {"time": 180400, "pitch": 78, "duration": 275, "velocity": 100}, {"time": 180895, "pitch": 71, "duration": 275, "velocity": 100}, {"time": 181335, "pitch": 72, "duration": 220, "velocity": 100}, {"time": 181720, "pitch": 72, "duration": 220, "velocity": 100}, {"time": 182050, "pitch": 77, "duration": 550, "velocity": 100}, {"time": 182600, "pitch": 65, "duration": 220, "velocity": 100}, {"time": 182820, "pitch": 67, "duration": 220, "velocity": 100}, {"time": 183040, "pitch": 69, "duration": 495, "velocity": 100}, {"time": 183535, "pitch": 70, "duration": 110, "velocity": 100}, {"time": 183700, "pitch": 72, "duration": 165, "velocity": 100}, {"time": 183920, "pitch": 74, "duration": 550, "velocity": 100}, {"time": 184470, "pitch": 76, "duration": 110, "velocity": 100}, {"time": 184635, "pitch": 76, "duration": 165, "velocity": 100}, {"time": 184855, "pitch": 76, "duration": 550, "velocity": 100}, {"time": 185405, "pitch": 77, "duration": 110, "velocity": 100}, {"time": 185570, "pitch": 77, "duration": 165, "velocity": 100}, {"time": 185790, "pitch": 72, "duration": 550, "velocity": 100}, {"time": 186340, "pitch": 70, "duration": 110, "velocity": 100}, {"time": 186505, "pitch": 70, "duration": 55, "velocity": 100}, {"time": 186670, "pitch": 81, "duration": 165, "velocity": 100}, {"time": 187000, "pitch": 77, "duration": 110, "velocity": 100}, {"time": 187330, "pitch": 72, "duration": 440, "velocity": 100}, {"time": 187770, "pitch": 74, "duration": 110, "velocity": 100}, {"time": 187935, "pitch": 74, "duration": 220, "velocity": 100}, {"time": 188210, "pitch": 76, "duration": 110, "velocity": 100}, {"time": 188705, "pitch": 77, "duration": 110, "velocity": 100}, {"time": 188870, "pitch": 77, "duration": 220, "velocity": 100}, {"time": 189145, "pitch": 72, "duration": 495, "velocity": 100}, {"time": 189640, "pitch": 70, "duration": 110, "velocity": 100}, {"time": 189860, "pitch": 70, "duration": 165, "velocity": 100}, {"time": 190080, "pitch": 81, "duration": 165, "velocity": 100}, {"time": 190575, "pitch": 77, "duration": 165, "velocity": 100}, {"time": 191015, "pitch": 72, "duration": 550, "velocity": 100}, {"time": 191565, "pitch": 70, "duration": 110, "velocity": 100}, {"time": 191730, "pitch": 70, "duration": 110, "velocity": 100}, {"time": 191950, "pitch": 81, "duration": 110, "velocity": 100}, {"time": 192280, "pitch": 77, "duration": 110, "velocity": 100}, {"time": 192610, "pitch": 72, "duration": 440, "velocity": 100}, {"time": 193050, "pitch": 70, "duration": 165, "velocity": 100}, {"time": 193325, "pitch": 70, "duration": 165, "velocity": 100}, {"time": 193600, "pitch": 89, "duration": 385, "velocity": 100}, {"time": 193985, "pitch": 77, "duration": 440, "velocity": 100}, {"time": 194425, "pitch": 65, "duration": 935, "velocity": 100}, {"time": 0, "pitch": 44, "duration": 220, "velocity": 100}, {"time": 0, "pitch": 56, "duration": 110, "velocity": 100}, {"time": 0, "pitch": 64, "duration": 110, "velocity": 100}, {"time": 110, "pitch": 51, "duration": 110, "velocity": 100}, {"time": 110, "pitch": 80, "duration": 55, "velocity": 100}, {"time": 165, "pitch": 83, "duration": 55, "velocity": 100}, {"time": 220, "pitch": 52, "duration": 55, "velocity": 100}, {"time": 220, "pitch": 56, "duration": 55, "velocity": 100}, {"time": 220, "pitch": 60, "duration": 110, "velocity": 100}, {"time": 220, "pitch": 80, "duration": 55, "velocity": 100}, {"time": 275, "pitch": 85, "duration": 55, "velocity": 100}, {"time": 330, "pitch": 54, "duration": 55, "velocity": 100}, {"time": 440, "pitch": 40, "duration": 330, "velocity": 100}, {"time": 440, "pitch": 52, "duration": 220, "velocity": 100}, {"time": 440, "pitch": 56, "duration": 220, "velocity": 100}, {"time": 440, "pitch": 84, "duration": 440, "velocity": 100}, {"time": 550, "pitch": 48, "duration": 220, "velocity": 100}, {"time": 660, "pitch": 60, "duration": 110, "velocity": 100}, {"time": 880, "pitch": 48, "duration": 330, "velocity": 100}, {"time": 880, "pitch": 56, "duration": 220, "velocity": 100}, {"time": 880, "pitch": 60, "duration": 220, "velocity": 100}, {"time": 990, "pitch": 52, "duration": 220, "velocity": 100}, {"time": 1100, "pitch": 64, "duration": 110, "velocity": 100}, {"time": 1210, "pitch": 60, "duration": 110, "velocity": 100}, {"time": 1320, "pitch": 48, "duration": 275, "velocity": 100}, {"time": 1320, "pitch": 64, "duration": 220, "velocity": 100}, {"time": 1430, "pitch": 52, "duration": 165, "velocity": 100}, {"time": 1540, "pitch": 56, "duration": 55, "velocity": 100}, {"time": 1540, "pitch": 60, "duration": 110, "velocity": 100}, {"time": 1760, "pitch": 44, "duration": 275, "velocity": 100}, {"time": 1760, "pitch": 56, "duration": 165, "velocity": 100}, {"time": 1760, "pitch": 60, "duration": 220, "velocity": 100}, {"time": 1870, "pitch": 52, "duration": 165, "velocity": 100}, {"time": 1980, "pitch": 64, "duration": 110, "velocity": 100}, {"time": 2090, "pitch": 60, "duration": 55, "velocity": 100}, {"time": 2200, "pitch": 44, "duration": 275, "velocity": 100}, {"time": 2200, "pitch": 64, "duration": 165, "velocity": 100}, {"time": 2310, "pitch": 52, "duration": 165, "velocity": 100}, {"time": 2420, "pitch": 59, "duration": 55, "velocity": 100}, {"time": 2420, "pitch": 63, "duration": 55, "velocity": 100}, {"time": 2640, "pitch": 40, "duration": 330, "velocity": 100}, {"time": 2640, "pitch": 56, "duration": 110, "velocity": 100}, {"time": 2640, "pitch": 60, "duration": 110, "velocity": 100}, {"time": 2750, "pitch": 48, "duration": 220, "velocity": 100}, {"time": 2860, "pitch": 52, "duration": 110, "velocity": 100}, {"time": 2915, "pitch": 56, "duration": 55, "velocity": 100}, {"time": 2970, "pitch": 60, "duration": 55, "velocity": 100}, {"time": 3080, "pitch": 40, "duration": 330, "velocity": 100}, {"time": 3080, "pitch": 56, "duration": 165, "velocity": 100}, {"time": 3080, "pitch": 60, "duration": 110, "velocity": 100}, {"time": 3080, "pitch": 64, "duration": 110, "velocity": 100}, {"time": 3190, "pitch": 48, "duration": 165, "velocity": 100}, {"time": 3300, "pitch": 56, "duration": 110, "velocity": 100}, {"time": 3300, "pitch": 64, "duration": 110, "velocity": 100}, {"time": 3410, "pitch": 56, "duration": 55, "velocity": 100}, {"time": 3520, "pitch": 44, "duration": 220, "velocity": 100}, {"time": 3520, "pitch": 56, "duration": 110, "velocity": 100}, {"time": 3520, "pitch": 64, "duration": 110, "velocity": 100}, {"time": 3630, "pitch": 51, "duration": 110, "velocity": 100}, {"time": 3740, "pitch": 48, "duration": 55, "velocity": 100}, {"time": 3740, "pitch": 54, "duration": 55, "velocity": 100}, {"time": 3740, "pitch": 60, "duration": 110, "velocity": 100}, {"time": 3850, "pitch": 54, "duration": 55, "velocity": 100}, {"time": 3960, "pitch": 40, "duration": 330, "velocity": 100}, {"time": 3960, "pitch": 52, "duration": 110, "velocity": 100}, {"time": 3960, "pitch": 56, "duration": 220, "velocity": 100}, {"time": 4070, "pitch": 48, "duration": 220, "velocity": 100}, {"time": 4070, "pitch": 80, "duration": 55, "velocity": 100}, {"time": 4125, "pitch": 85, "duration": 55, "velocity": 100}, {"time": 4180, "pitch": 60, "duration": 110, "velocity": 100}, {"time": 4180, "pitch": 80, "duration": 55, "velocity": 100}, {"time": 4235, "pitch": 80, "duration": 55, "velocity": 100}, {"time": 4400, "pitch": 48, "duration": 275, "velocity": 100}, {"time": 4400, "pitch": 56, "duration": 220, "velocity": 100}, {"time": 4400, "pitch": 60, "duration": 220, "velocity": 100}, {"time": 4400, "pitch": 84, "duration": 440, "velocity": 100}, {"time": 4510, "pitch": 52, "duration": 220, "velocity": 100}, {"time": 4620, "pitch": 64, "duration": 110, "velocity": 100}, {"time": 4620, "pitch": 68, "duration": 110, "velocity": 100}, {"time": 4730, "pitch": 60, "duration": 110, "velocity": 100}, {"time": 4730, "pitch": 66, "duration": 110, "velocity": 100}, {"time": 4840, "pitch": 48, "duration": 275, "velocity": 100}, {"time": 4840, "pitch": 64, "duration": 440, "velocity": 100}, {"time": 4950, "pitch": 52, "duration": 165, "velocity": 100}, {"time": 5060, "pitch": 56, "duration": 55, "velocity": 100}, {"time": 5060, "pitch": 60, "duration": 165, "velocity": 100}, {"time": 5280, "pitch": 44, "duration": 275, "velocity": 100}, {"time": 5280, "pitch": 56, "duration": 220, "velocity": 100}, {"time": 5280, "pitch": 60, "duration": 220, "velocity": 100}, {"time": 5280, "pitch": 64, "duration": 220, "velocity": 100}, {"time": 5390, "pitch": 52, "duration": 165, "velocity": 100}, {"time": 5500, "pitch": 60, "duration": 110, "velocity": 100}, {"time": 5500, "pitch": 64, "duration": 110, "velocity": 100}, {"time": 5610, "pitch": 56, "duration": 110, "velocity": 100}, {"time": 5610, "pitch": 60, "duration": 55, "velocity": 100}, {"time": 5720, "pitch": 48, "duration": 275, "velocity": 100}, {"time": 5720, "pitch": 60, "duration": 275, "velocity": 100}, {"time": 5830, "pitch": 52, "duration": 165, "velocity": 100}, {"time": 5940, "pitch": 60, "duration": 220, "velocity": 100}, {"time": 6160, "pitch": 40, "duration": 330, "velocity": 100}, {"time": 6160, "pitch": 56, "duration": 220, "velocity": 100}, {"time": 6160, "pitch": 60, "duration": 220, "velocity": 100}, {"time": 6270, "pitch": 48, "duration": 275, "velocity": 100}, {"time": 6270, "pitch": 59, "duration": 55, "velocity": 100}, {"time": 6380, "pitch": 52, "duration": 110, "velocity": 100}, {"time": 6380, "pitch": 60, "duration": 110, "velocity": 100}, {"time": 6435, "pitch": 64, "duration": 55, "velocity": 100}, {"time": 6490, "pitch": 60, "duration": 55, "velocity": 100}, {"time": 6490, "pitch": 68, "duration": 55, "velocity": 100}, {"time": 6545, "pitch": 68, "duration": 55, "velocity": 100}, {"time": 6600, "pitch": 40, "duration": 275, "velocity": 100}, {"time": 6600, "pitch": 56, "duration": 165, "velocity": 100}, {"time": 6600, "pitch": 60, "duration": 220, "velocity": 100}, {"time": 6600, "pitch": 64, "duration": 330, "velocity": 100}, {"time": 6710, "pitch": 48, "duration": 165, "velocity": 100}, {"time": 6820, "pitch": 56, "duration": 110, "velocity": 100}, {"time": 6820, "pitch": 64, "duration": 220, "velocity": 100}, {"time": 6930, "pitch": 56, "duration": 55, "velocity": 100}, {"time": 7040, "pitch": 48, "duration": 275, "velocity": 100}, {"time": 7040, "pitch": 60, "duration": 165, "velocity": 100}, {"time": 7040, "pitch": 64, "duration": 220, "velocity": 100}, {"time": 7150, "pitch": 56, "duration": 165, "velocity": 100}, {"time": 7260, "pitch": 60, "duration": 55, "velocity": 100}, {"time": 7260, "pitch": 64, "duration": 110, "velocity": 100}, {"time": 7260, "pitch": 68, "duration": 110, "velocity": 100}, {"time": 7370, "pitch": 60, "duration": 55, "velocity": 100}, {"time": 7370, "pitch": 72, "duration": 110, "velocity": 100}, {"time": 7480, "pitch": 48, "duration": 275, "velocity": 100}, {"time": 7480, "pitch": 60, "duration": 165, "velocity": 100}, {"time": 7480, "pitch": 64, "duration": 165, "velocity": 100}, {"time": 7480, "pitch": 76, "duration": 220, "velocity": 100}, {"time": 7590, "pitch": 51, "duration": 165, "velocity": 100}, {"time": 7700, "pitch": 56, "duration": 55, "velocity": 100}, {"time": 7700, "pitch": 60, "duration": 220, "velocity": 100}, {"time": 7700, "pitch": 64, "duration": 165, "velocity": 100}, {"time": 7700, "pitch": 68, "duration": 220, "velocity": 100}, {"time": 7700, "pitch": 72, "duration": 220, "velocity": 100}, {"time": 7810, "pitch": 56, "duration": 55, "velocity": 100}, {"time": 7920, "pitch": 40, "duration": 715, "velocity": 100}, {"time": 7920, "pitch": 56, "duration": 165, "velocity": 100}, {"time": 7920, "pitch": 60, "duration": 165, "velocity": 100}, {"time": 7920, "pitch": 68, "duration": 330, "velocity": 100}, {"time": 7920, "pitch": 72, "duration": 330, "velocity": 100}, {"time": 8030, "pitch": 52, "duration": 165, "velocity": 100}, {"time": 8140, "pitch": 60, "duration": 110, "velocity": 100}, {"time": 8140, "pitch": 64, "duration": 110, "velocity": 100}, {"time": 8250, "pitch": 52, "duration": 165, "velocity": 100}, {"time": 8250, "pitch": 73, "duration": 55, "velocity": 100}, {"time": 8360, "pitch": 56, "duration": 165, "velocity": 100}, {"time": 8360, "pitch": 60, "duration": 165, "velocity": 100}, {"time": 8360, "pitch": 72, "duration": 385, "velocity": 100}, {"time": 8360, "pitch": 76, "duration": 330, "velocity": 100}, {"time": 8470, "pitch": 52, "duration": 220, "velocity": 100}, {"time": 8580, "pitch": 60, "duration": 110, "velocity": 100}, {"time": 8580, "pitch": 64, "duration": 110, "velocity": 100}, {"time": 8690, "pitch": 62, "duration": 110, "velocity": 100}, {"time": 8800, "pitch": 48, "duration": 440, "velocity": 100}, {"time": 8800, "pitch": 56, "duration": 165, "velocity": 100}, {"time": 8800, "pitch": 64, "duration": 220, "velocity": 100}, {"time": 8800, "pitch": 68, "duration": 440, "velocity": 100}, {"time": 8800, "pitch": 72, "duration": 440, "velocity": 100}, {"time": 8910, "pitch": 56, "duration": 110, "velocity": 100}, {"time": 9020, "pitch": 60, "duration": 110, "velocity": 100}, {"time": 9020, "pitch": 64, "duration": 220, "velocity": 100}, {"time": 9020, "pitch": 76, "duration": 220, "velocity": 100}, {"time": 9130, "pitch": 52, "duration": 165, "velocity": 100}, {"time": 9240, "pitch": 48, "duration": 385, "velocity": 100}, {"time": 9240, "pitch": 60, "duration": 165, "velocity": 100}, {"time": 9240, "pitch": 64, "duration": 165, "velocity": 100}, {"time": 9240, "pitch": 76, "duration": 220, "velocity": 100}, {"time": 9350, "pitch": 51, "duration": 275, "velocity": 100}, {"time": 9460, "pitch": 56, "duration": 55, "velocity": 100}, {"time": 9460, "pitch": 60, "duration": 110, "velocity": 100}, {"time": 9460, "pitch": 64, "duration": 110, "velocity": 100}, {"time": 9460, "pitch": 72, "duration": 220, "velocity": 100}, {"time": 9570, "pitch": 56, "duration": 110, "velocity": 100}, {"time": 9680, "pitch": 48, "duration": 110, "velocity": 100}, {"time": 9680, "pitch": 64, "duration": 220, "velocity": 100}, {"time": 9680, "pitch": 68, "duration": 440, "velocity": 100}, {"time": 9680, "pitch": 72, "duration": 440, "velocity": 100}, {"time": 9790, "pitch": 56, "duration": 110, "velocity": 100}, {"time": 9900, "pitch": 48, "duration": 220, "velocity": 100}, {"time": 9900, "pitch": 60, "duration": 110, "velocity": 100}, {"time": 9900, "pitch": 64, "duration": 220, "velocity": 100}, {"time": 9900, "pitch": 73, "duration": 220, "velocity": 100}, {"time": 10010, "pitch": 56, "duration": 110, "velocity": 100}, {"time": 10010, "pitch": 68, "duration": 110, "velocity": 100}, {"time": 10120, "pitch": 40, "duration": 220, "velocity": 100}, {"time": 10120, "pitch": 56, "duration": 220, "velocity": 100}, {"time": 10120, "pitch": 64, "duration": 440, "velocity": 100}, {"time": 10120, "pitch": 72, "duration": 440, "velocity": 100}, {"time": 10120, "pitch": 76, "duration": 440, "velocity": 100}, {"time": 10230, "pitch": 56, "duration": 275, "velocity": 100}, {"time": 10340, "pitch": 44, "duration": 220, "velocity": 100}, {"time": 10340, "pitch": 56, "duration": 220, "velocity": 100}, {"time": 10560, "pitch": 41, "duration": 275, "velocity": 100}, {"time": 10560, "pitch": 56, "duration": 220, "velocity": 100}, {"time": 10560, "pitch": 60, "duration": 330, "velocity": 100}, {"time": 10670, "pitch": 48, "duration": 165, "velocity": 100}, {"time": 10780, "pitch": 56, "duration": 55, "velocity": 100}, {"time": 10780, "pitch": 60, "duration": 220, "velocity": 100}, {"time": 10780, "pitch": 65, "duration": 220, "velocity": 100}, {"time": 10890, "pitch": 53, "duration": 55, "velocity": 100}, {"time": 10890, "pitch": 68, "duration": 110, "velocity": 100}, {"time": 11000, "pitch": 41, "duration": 275, "velocity": 100}, {"time": 11000, "pitch": 53, "duration": 165, "velocity": 100}, {"time": 11000, "pitch": 60, "duration": 165, "velocity": 100}, {"time": 11000, "pitch": 70, "duration": 220, "velocity": 100}, {"time": 11110, "pitch": 48, "duration": 165, "velocity": 100}, {"time": 11220, "pitch": 53, "duration": 55, "velocity": 100}, {"time": 11220, "pitch": 56, "duration": 165, "velocity": 100}, {"time": 11220, "pitch": 60, "duration": 220, "velocity": 100}, {"time": 11220, "pitch": 65, "duration": 220, "velocity": 100}, {"time": 11220, "pitch": 68, "duration": 220, "velocity": 100}, {"time": 11330, "pitch": 53, "duration": 55, "velocity": 100}, {"time": 11440, "pitch": 41, "duration": 715, "velocity": 100}, {"time": 11440, "pitch": 53, "duration": 165, "velocity": 100}, {"time": 11440, "pitch": 56, "duration": 165, "velocity": 100}, {"time": 11440, "pitch": 65, "duration": 385, "velocity": 100}, {"time": 11440, "pitch": 68, "duration": 330, "velocity": 100}, {"time": 11550, "pitch": 48, "duration": 165, "velocity": 100}, {"time": 11660, "pitch": 56, "duration": 110, "velocity": 100}, {"time": 11660, "pitch": 60, "duration": 110, "velocity": 100}, {"time": 11770, "pitch": 48, "duration": 165, "velocity": 100}, {"time": 11770, "pitch": 70, "duration": 55, "velocity": 100}, {"time": 11880, "pitch": 53, "duration": 165, "velocity": 100}, {"time": 11880, "pitch": 56, "duration": 165, "velocity": 100}, {"time": 11880, "pitch": 68, "duration": 385, "velocity": 100}, {"time": 11880, "pitch": 72, "duration": 385, "velocity": 100}, {"time": 11990, "pitch": 48, "duration": 220, "velocity": 100}, {"time": 12100, "pitch": 56, "duration": 55, "velocity": 100}, {"time": 12100, "pitch": 60, "duration": 110, "velocity": 100}, {"time": 12210, "pitch": 58, "duration": 110, "velocity": 100}, {"time": 12320, "pitch": 41, "duration": 385, "velocity": 100}, {"time": 12320, "pitch": 53, "duration": 55, "velocity": 100}, {"time": 12320, "pitch": 56, "duration": 220, "velocity": 100}, {"time": 12320, "pitch": 65, "duration": 440, "velocity": 100}, {"time": 12320, "pitch": 68, "duration": 440, "velocity": 100}, {"time": 12430, "pitch": 48, "duration": 110, "velocity": 100}, {"time": 12540, "pitch": 56, "duration": 110, "velocity": 100}, {"time": 12540, "pitch": 60, "duration": 220, "velocity": 100}, {"time": 12540, "pitch": 72, "duration": 220, "velocity": 100}, {"time": 12650, "pitch": 53, "duration": 165, "velocity": 100}, {"time": 12760, "pitch": 41, "duration": 385, "velocity": 100}, {"time": 12760, "pitch": 53, "duration": 165, "velocity": 100}, {"time": 12760, "pitch": 60, "duration": 165, "velocity": 100}, {"time": 12760, "pitch": 68, "duration": 220, "velocity": 100}, {"time": 12870, "pitch": 48, "duration": 275, "velocity": 100}, {"time": 12980, "pitch": 53, "duration": 55, "velocity": 100}, {"time": 12980, "pitch": 56, "duration": 110, "velocity": 100}, {"time": 12980, "pitch": 60, "duration": 110, "velocity": 100}, {"time": 12980, "pitch": 68, "duration": 220, "velocity": 100}, {"time": 13090, "pitch": 53, "duration": 110, "velocity": 100}, {"time": 13200, "pitch": 41, "duration": 715, "velocity": 100}, {"time": 13200, "pitch": 53, "duration": 110, "velocity": 100}, {"time": 13200, "pitch": 60, "duration": 220, "velocity": 100}, {"time": 13200, "pitch": 65, "duration": 440, "velocity": 100}, {"time": 13200, "pitch": 68, "duration": 220, "velocity": 100}, {"time": 13310, "pitch": 48, "duration": 165, "velocity": 100}, {"time": 13420, "pitch": 53, "duration": 55, "velocity": 100}, {"time": 13420, "pitch": 56, "duration": 220, "velocity": 100}, {"time": 13420, "pitch": 70, "duration": 220, "velocity": 100}, {"time": 13530, "pitch": 48, "duration": 165, "velocity": 100}, {"time": 13530, "pitch": 63, "duration": 330, "velocity": 100}, {"time": 13640, "pitch": 56, "duration": 110, "velocity": 100}, {"time": 13640, "pitch": 60, "duration": 110, "velocity": 100}, {"time": 13640, "pitch": 72, "duration": 440, "velocity": 100}, {"time": 13750, "pitch": 53, "duration": 110, "velocity": 100}, {"time": 13860, "pitch": 41, "duration": 110, "velocity": 100}, {"time": 13860, "pitch": 48, "duration": 110, "velocity": 100}, {"time": 13860, "pitch": 56, "duration": 110, "velocity": 100}, {"time": 13970, "pitch": 48, "duration": 110, "velocity": 100}, {"time": 14080, "pitch": 53, "duration": 275, "velocity": 100}, {"time": 14080, "pitch": 65, "duration": 110, "velocity": 100}, {"time": 14080, "pitch": 68, "duration": 165, "velocity": 100}, {"time": 14080, "pitch": 80, "duration": 440, "velocity": 100}, {"time": 14190, "pitch": 60, "duration": 165, "velocity": 100}, {"time": 14300, "pitch": 65, "duration": 55, "velocity": 100}, {"time": 14300, "pitch": 68, "duration": 110, "velocity": 100}, {"time": 14300, "pitch": 72, "duration": 110, "velocity": 100}, {"time": 14410, "pitch": 65, "duration": 55, "velocity": 100}, {"time": 14520, "pitch": 48, "duration": 275, "velocity": 100}, {"time": 14520, "pitch": 64, "duration": 165, "velocity": 100}, {"time": 14520, "pitch": 68, "duration": 165, "velocity": 100}, {"time": 14520, "pitch": 80, "duration": 440, "velocity": 100}, {"time": 14630, "pitch": 55, "duration": 165, "velocity": 100}, {"time": 14740, "pitch": 60, "duration": 55, "velocity": 100}, {"time": 14740, "pitch": 64, "duration": 110, "velocity": 100}, {"time": 14740, "pitch": 68, "duration": 165, "velocity": 100}, {"time": 14850, "pitch": 60, "duration": 55, "velocity": 100}, {"time": 14960, "pitch": 48, "duration": 825, "velocity": 100}, {"time": 14960, "pitch": 60, "duration": 220, "velocity": 100}, {"time": 14960, "pitch": 68, "duration": 165, "velocity": 100}, {"time": 14960, "pitch": 80, "duration": 440, "velocity": 100}, {"time": 15070, "pitch": 56, "duration": 165, "velocity": 100}, {"time": 15180, "pitch": 64, "duration": 110, "velocity": 100}, {"time": 15180, "pitch": 68, "duration": 110, "velocity": 100}, {"time": 15290, "pitch": 56, "duration": 165, "velocity": 100}, {"time": 15290, "pitch": 72, "duration": 55, "velocity": 100}, {"time": 15345, "pitch": 75, "duration": 55, "velocity": 100}, {"time": 15400, "pitch": 60, "duration": 220, "velocity": 100}, {"time": 15400, "pitch": 68, "duration": 165, "velocity": 100}, {"time": 15400, "pitch": 77, "duration": 110, "velocity": 100}, {"time": 15510, "pitch": 56, "duration": 220, "velocity": 100}, {"time": 15510, "pitch": 75, "duration": 110, "velocity": 100}, {"time": 15620, "pitch": 64, "duration": 55, "velocity": 100}, {"time": 15620, "pitch": 68, "duration": 110, "velocity": 100}, {"time": 15620, "pitch": 75, "duration": 110, "velocity": 100}, {"time": 15730, "pitch": 68, "duration": 110, "velocity": 100}, {"time": 15730, "pitch": 72, "duration": 110, "velocity": 100}, {"time": 15840, "pitch": 52, "duration": 440, "velocity": 100}, {"time": 15840, "pitch": 64, "duration": 220, "velocity": 100}, {"time": 15840, "pitch": 72, "duration": 440, "velocity": 100}, {"time": 15950, "pitch": 60, "duration": 110, "velocity": 100}, {"time": 16060, "pitch": 64, "duration": 110, "velocity": 100}, {"time": 16060, "pitch": 68, "duration": 220, "velocity": 100}, {"time": 16170, "pitch": 60, "duration": 165, "velocity": 100}, {"time": 16280, "pitch": 48, "duration": 385, "velocity": 100}, {"time": 16280, "pitch": 64, "duration": 165, "velocity": 100}, {"time": 16280, "pitch": 68, "duration": 220, "velocity": 100}, {"time": 16280, "pitch": 72, "duration": 440, "velocity": 100}, {"time": 16390, "pitch": 56, "duration": 275, "velocity": 100}, {"time": 16500, "pitch": 60, "duration": 55, "velocity": 100}, {"time": 16500, "pitch": 64, "duration": 110, "velocity": 100}, {"time": 16500, "pitch": 68, "duration": 220, "velocity": 100}, {"time": 16610, "pitch": 60, "duration": 110, "velocity": 100}, {"time": 16720, "pitch": 48, "duration": 275, "velocity": 100}, {"time": 16720, "pitch": 64, "duration": 165, "velocity": 100}, {"time": 16720, "pitch": 68, "duration": 220, "velocity": 100}, {"time": 16830, "pitch": 60, "duration": 165, "velocity": 100}, {"time": 16830, "pitch": 71, "duration": 110, "velocity": 100}, {"time": 16940, "pitch": 64, "duration": 55, "velocity": 100}, {"time": 16940, "pitch": 68, "duration": 110, "velocity": 100}, {"time": 16940, "pitch": 72, "duration": 110, "velocity": 100}, {"time": 16940, "pitch": 76, "duration": 110, "velocity": 100}, {"time": 17050, "pitch": 64, "duration": 55, "velocity": 100}, {"time": 17050, "pitch": 76, "duration": 110, "velocity": 100}, {"time": 17160, "pitch": 48, "duration": 330, "velocity": 100}, {"time": 17160, "pitch": 64, "duration": 165, "velocity": 100}, {"time": 17160, "pitch": 68, "duration": 165, "velocity": 100}, {"time": 17160, "pitch": 80, "duration": 220, "velocity": 100}, {"time": 17270, "pitch": 56, "duration": 165, "velocity": 100}, {"time": 17380, "pitch": 60, "duration": 55, "velocity": 100}, {"time": 17380, "pitch": 64, "duration": 110, "velocity": 100}, {"time": 17380, "pitch": 68, "duration": 165, "velocity": 100}, {"time": 17380, "pitch": 80, "duration": 220, "velocity": 100}, {"time": 17490, "pitch": 60, "duration": 55, "velocity": 100}, {"time": 17600, "pitch": 48, "duration": 220, "velocity": 100}, {"time": 17600, "pitch": 60, "duration": 110, "velocity": 100}, {"time": 17600, "pitch": 67, "duration": 110, "velocity": 100}, {"time": 17710, "pitch": 55, "duration": 110, "velocity": 100}, {"time": 17710, "pitch": 84, "duration": 55, "velocity": 100}, {"time": 17765, "pitch": 89, "duration": 55, "velocity": 100}, {"time": 17820, "pitch": 55, "duration": 55, "velocity": 100}, {"time": 17820, "pitch": 60, "duration": 55, "velocity": 100}, {"time": 17820, "pitch": 64, "duration": 110, "velocity": 100}, {"time": 17820, "pitch": 84, "duration": 165, "velocity": 100}, {"time": 17875, "pitch": 89, "duration": 55, "velocity": 100}, {"time": 17930, "pitch": 60, "duration": 55, "velocity": 100}, {"time": 18040, "pitch": 48, "duration": 330, "velocity": 100}, {"time": 18040, "pitch": 55, "duration": 220, "velocity": 100}, {"time": 18040, "pitch": 60, "duration": 220, "velocity": 100}, {"time": 18040, "pitch": 88, "duration": 440, "velocity": 100}, {"time": 18150, "pitch": 52, "duration": 220, "velocity": 100}, {"time": 18260, "pitch": 64, "duration": 110, "velocity": 100}, {"time": 18480, "pitch": 48, "duration": 330, "velocity": 100}, {"time": 18480, "pitch": 60, "duration": 220, "velocity": 100}, {"time": 18480, "pitch": 64, "duration": 220, "velocity": 100}, {"time": 18590, "pitch": 55, "duration": 220, "velocity": 100}, {"time": 18700, "pitch": 67, "duration": 110, "velocity": 100}, {"time": 18810, "pitch": 64, "duration": 110, "velocity": 100}, {"time": 18920, "pitch": 48, "duration": 330, "velocity": 100}, {"time": 18920, "pitch": 67, "duration": 220, "velocity": 100}, {"time": 19030, "pitch": 55, "duration": 165, "velocity": 100}, {"time": 19140, "pitch": 60, "duration": 55, "velocity": 100}, {"time": 19140, "pitch": 64, "duration": 110, "velocity": 100}, {"time": 19360, "pitch": 48, "duration": 330, "velocity": 100}, {"time": 19360, "pitch": 60, "duration": 165, "velocity": 100}, {"time": 19360, "pitch": 64, "duration": 220, "velocity": 100}, {"time": 19470, "pitch": 55, "duration": 165, "velocity": 100}, {"time": 19580, "pitch": 67, "duration": 110, "velocity": 100}, {"time": 19690, "pitch": 64, "duration": 55, "velocity": 100}, {"time": 19800, "pitch": 48, "duration": 275, "velocity": 100}, {"time": 19800, "pitch": 67, "duration": 220, "velocity": 100}, {"time": 19910, "pitch": 55, "duration": 165, "velocity": 100}, {"time": 20020, "pitch": 62, "duration": 55, "velocity": 100}, {"time": 20020, "pitch": 67, "duration": 55, "velocity": 100}, {"time": 20240, "pitch": 48, "duration": 330, "velocity": 100}, {"time": 20240, "pitch": 60, "duration": 110, "velocity": 100}, {"time": 20240, "pitch": 64, "duration": 110, "velocity": 100}, {"time": 20350, "pitch": 52, "duration": 220, "velocity": 100}, {"time": 20460, "pitch": 55, "duration": 110, "velocity": 100}, {"time": 20515, "pitch": 60, "duration": 55, "velocity": 100}, {"time": 20570, "pitch": 64, "duration": 55, "velocity": 100}, {"time": 20680, "pitch": 48, "duration": 330, "velocity": 100}, {"time": 20680, "pitch": 60, "duration": 165, "velocity": 100}, {"time": 20680, "pitch": 64, "duration": 110, "velocity": 100}, {"time": 20680, "pitch": 67, "duration": 110, "velocity": 100}, {"time": 20790, "pitch": 55, "duration": 165, "velocity": 100}, {"time": 20900, "pitch": 62, "duration": 110, "velocity": 100}, {"time": 20900, "pitch": 67, "duration": 110, "velocity": 100}, {"time": 21010, "pitch": 60, "duration": 55, "velocity": 100}, {"time": 21120, "pitch": 48, "duration": 220, "velocity": 100}, {"time": 21120, "pitch": 60, "duration": 165, "velocity": 100}, {"time": 21230, "pitch": 52, "duration": 110, "velocity": 100}, {"time": 21340, "pitch": 52, "duration": 55, "velocity": 100}, {"time": 21340, "pitch": 56, "duration": 55, "velocity": 100}, {"time": 21340, "pitch": 64, "duration": 110, "velocity": 100}, {"time": 21450, "pitch": 59, "duration": 55, "velocity": 100}, {"time": 21560, "pitch": 44, "duration": 330, "velocity": 100}, {"time": 21560, "pitch": 56, "duration": 220, "velocity": 100}, {"time": 21560, "pitch": 60, "duration": 440, "velocity": 100}, {"time": 21670, "pitch": 51, "duration": 220, "velocity": 100}, {"time": 21670, "pitch": 84, "duration": 55, "velocity": 100}, {"time": 21725, "pitch": 84, "duration": 55, "velocity": 100}, {"time": 21780, "pitch": 64, "duration": 110, "velocity": 100}, {"time": 21780, "pitch": 84, "duration": 55, "velocity": 100}, {"time": 21835, "pitch": 88, "duration": 55, "velocity": 100}, {"time": 22000, "pitch": 48, "duration": 330, "velocity": 100}, {"time": 22000, "pitch": 60, "duration": 110, "velocity": 100}, {"time": 22000, "pitch": 64, "duration": 220, "velocity": 100}, {"time": 22000, "pitch": 88, "duration": 220, "velocity": 100}, {"time": 22110, "pitch": 56, "duration": 220, "velocity": 100}, {"time": 22220, "pitch": 68, "duration": 110, "velocity": 100}, {"time": 22220, "pitch": 72, "duration": 110, "velocity": 100}, {"time": 22330, "pitch": 64, "duration": 110, "velocity": 100}, {"time": 22330, "pitch": 68, "duration": 110, "velocity": 100}, {"time": 22440, "pitch": 48, "duration": 275, "velocity": 100}, {"time": 22440, "pitch": 68, "duration": 440, "velocity": 100}, {"time": 22550, "pitch": 56, "duration": 165, "velocity": 100}, {"time": 22660, "pitch": 60, "duration": 220, "velocity": 100}, {"time": 22660, "pitch": 64, "duration": 110, "velocity": 100}, {"time": 22880, "pitch": 48, "duration": 275, "velocity": 100}, {"time": 22880, "pitch": 60, "duration": 220, "velocity": 100}, {"time": 22880, "pitch": 64, "duration": 220, "velocity": 100}, {"time": 22880, "pitch": 68, "duration": 220, "velocity": 100}, {"time": 22990, "pitch": 56, "duration": 165, "velocity": 100}, {"time": 23100, "pitch": 64, "duration": 110, "velocity": 100}, {"time": 23100, "pitch": 68, "duration": 110, "velocity": 100}, {"time": 23210, "pitch": 60, "duration": 110, "velocity": 100}, {"time": 23210, "pitch": 63, "duration": 55, "velocity": 100}, {"time": 23320, "pitch": 48, "duration": 275, "velocity": 100}, {"time": 23320, "pitch": 64, "duration": 275, "velocity": 100}, {"time": 23430, "pitch": 56, "duration": 165, "velocity": 100}, {"time": 23540, "pitch": 60, "duration": 55, "velocity": 100}, {"time": 23540, "pitch": 64, "duration": 220, "velocity": 100}, {"time": 23760, "pitch": 44, "duration": 330, "velocity": 100}, {"time": 23760, "pitch": 60, "duration": 165, "velocity": 100}, {"time": 23760, "pitch": 64, "duration": 220, "velocity": 100}, {"time": 23870, "pitch": 52, "duration": 220, "velocity": 100}, {"time": 23870, "pitch": 60, "duration": 110, "velocity": 100}, {"time": 23980, "pitch": 56, "duration": 55, "velocity": 100}, {"time": 23980, "pitch": 60, "duration": 55, "velocity": 100}, {"time": 23980, "pitch": 64, "duration": 55, "velocity": 100}, {"time": 24035, "pitch": 64, "duration": 55, "velocity": 100}, {"time": 24090, "pitch": 64, "duration": 55, "velocity": 100}, {"time": 24090, "pitch": 71, "duration": 55, "velocity": 100}, {"time": 24145, "pitch": 71, "duration": 55, "velocity": 100}, {"time": 24200, "pitch": 44, "duration": 275, "velocity": 100}, {"time": 24200, "pitch": 60, "duration": 165, "velocity": 100}, {"time": 24200, "pitch": 64, "duration": 165, "velocity": 100}, {"time": 24200, "pitch": 68, "duration": 440, "velocity": 100}, {"time": 24310, "pitch": 52, "duration": 165, "velocity": 100}, {"time": 24420, "pitch": 60, "duration": 110, "velocity": 100}, {"time": 24420, "pitch": 64, "duration": 110, "velocity": 100}, {"time": 24530, "pitch": 56, "duration": 55, "velocity": 100}, {"time": 24640, "pitch": 36, "duration": 330, "velocity": 100}, {"time": 24640, "pitch": 52, "duration": 165, "velocity": 100}, {"time": 24640, "pitch": 55, "duration": 165, "velocity": 100}, {"time": 24640, "pitch": 60, "duration": 165, "velocity": 100}, {"time": 24640, "pitch": 76, "duration": 220, "velocity": 100}, {"time": 24750, "pitch": 48, "duration": 110, "velocity": 100}, {"time": 24860, "pitch": 55, "duration": 110, "velocity": 100}, {"time": 24860, "pitch": 60, "duration": 110, "velocity": 100}, {"time": 25080, "pitch": 36, "duration": 275, "velocity": 100}, {"time": 25080, "pitch": 55, "duration": 110, "velocity": 100}, {"time": 25080, "pitch": 60, "duration": 110, "velocity": 100}, {"time": 25190, "pitch": 48, "duration": 110, "velocity": 100}, {"time": 25300, "pitch": 55, "duration": 110, "velocity": 100}, {"time": 25300, "pitch": 60, "duration": 110, "velocity": 100}, {"time": 25410, "pitch": 52, "duration": 55, "velocity": 100}, {"time": 25520, "pitch": 36, "duration": 275, "velocity": 100}, {"time": 25520, "pitch": 48, "duration": 165, "velocity": 100}, {"time": 25520, "pitch": 52, "duration": 110, "velocity": 100}, {"time": 25630, "pitch": 43, "duration": 110, "velocity": 100}, {"time": 25740, "pitch": 52, "duration": 110, "velocity": 100}, {"time": 25740, "pitch": 55, "duration": 110, "velocity": 100}, {"time": 25850, "pitch": 48, "duration": 55, "velocity": 100}, {"time": 25960, "pitch": 36, "duration": 275, "velocity": 100}, {"time": 25960, "pitch": 55, "duration": 110, "velocity": 100}, {"time": 25960, "pitch": 60, "duration": 55, "velocity": 100}, {"time": 26070, "pitch": 48, "duration": 110, "velocity": 100}, {"time": 26180, "pitch": 55, "duration": 110, "velocity": 100}, {"time": 26180, "pitch": 60, "duration": 110, "velocity": 100}, {"time": 26290, "pitch": 43, "duration": 55, "velocity": 100}, {"time": 26400, "pitch": 36, "duration": 385, "velocity": 100}, {"time": 26400, "pitch": 55, "duration": 165, "velocity": 100}, {"time": 26400, "pitch": 60, "duration": 165, "velocity": 100}, {"time": 26510, "pitch": 48, "duration": 165, "velocity": 100}, {"time": 26620, "pitch": 55, "duration": 110, "velocity": 100}, {"time": 26620, "pitch": 60, "duration": 110, "velocity": 100}, {"time": 26730, "pitch": 52, "duration": 110, "velocity": 100}, {"time": 26840, "pitch": 36, "duration": 275, "velocity": 100}, {"time": 26840, "pitch": 55, "duration": 110, "velocity": 100}, {"time": 26840, "pitch": 60, "duration": 110, "velocity": 100}, {"time": 26950, "pitch": 52, "duration": 55, "velocity": 100}, {"time": 27060, "pitch": 52, "duration": 110, "velocity": 100}, {"time": 27060, "pitch": 55, "duration": 110, "velocity": 100}, {"time": 27060, "pitch": 60, "duration": 110, "velocity": 100}, {"time": 27170, "pitch": 36, "duration": 55, "velocity": 100}, {"time": 27280, "pitch": 48, "duration": 440, "velocity": 100}, {"time": 27280, "pitch": 55, "duration": 55, "velocity": 100}, {"time": 27280, "pitch": 60, "duration": 165, "velocity": 100}, {"time": 27280, "pitch": 64, "duration": 110, "velocity": 100}, {"time": 27390, "pitch": 55, "duration": 55, "velocity": 100}, {"time": 27500, "pitch": 52, "duration": 55, "velocity": 100}, {"time": 27500, "pitch": 55, "duration": 110, "velocity": 100}, {"time": 27500, "pitch": 60, "duration": 110, "velocity": 100}, {"time": 27610, "pitch": 55, "duration": 55, "velocity": 100}, {"time": 27720, "pitch": 48, "duration": 385, "velocity": 100}, {"time": 27720, "pitch": 55, "duration": 55, "velocity": 100}, {"time": 27720, "pitch": 60, "duration": 110, "velocity": 100}, {"time": 27720, "pitch": 64, "duration": 110, "velocity": 100}, {"time": 27830, "pitch": 52, "duration": 55, "velocity": 100}, {"time": 27885, "pitch": 55, "duration": 55, "velocity": 100}, {"time": 27885, "pitch": 60, "duration": 55, "velocity": 100}, {"time": 27940, "pitch": 55, "duration": 55, "velocity": 100}, {"time": 27940, "pitch": 60, "duration": 55, "velocity": 100}, {"time": 27940, "pitch": 64, "duration": 55, "velocity": 100}, {"time": 28050, "pitch": 55, "duration": 55, "velocity": 100}, {"time": 28050, "pitch": 60, "duration": 55, "velocity": 100}, {"time": 28160, "pitch": 36, "duration": 275, "velocity": 100}, {"time": 28160, "pitch": 48, "duration": 165, "velocity": 100}, {"time": 28160, "pitch": 52, "duration": 110, "velocity": 100}, {"time": 28160, "pitch": 55, "duration": 110, "velocity": 100}, {"time": 28270, "pitch": 43, "duration": 110, "velocity": 100}, {"time": 28380, "pitch": 48, "duration": 55, "velocity": 100}, {"time": 28380, "pitch": 51, "duration": 55, "velocity": 100}, {"time": 28380, "pitch": 55, "duration": 110, "velocity": 100}, {"time": 28490, "pitch": 48, "duration": 55, "velocity": 100}, {"time": 28600, "pitch": 39, "duration": 275, "velocity": 100}, {"time": 28600, "pitch": 51, "duration": 110, "velocity": 100}, {"time": 28600, "pitch": 55, "duration": 110, "velocity": 100}, {"time": 28600, "pitch": 58, "duration": 110, "velocity": 100}, {"time": 28710, "pitch": 46, "duration": 110, "velocity": 100}, {"time": 28820, "pitch": 51, "duration": 110, "velocity": 100}, {"time": 28820, "pitch": 55, "duration": 110, "velocity": 100}, {"time": 28930, "pitch": 46, "duration": 55, "velocity": 100}, {"time": 29040, "pitch": 39, "duration": 275, "velocity": 100}, {"time": 29040, "pitch": 51, "duration": 110, "velocity": 100}, {"time": 29040, "pitch": 55, "duration": 110, "velocity": 100}, {"time": 29150, "pitch": 46, "duration": 110, "velocity": 100}, {"time": 29260, "pitch": 51, "duration": 55, "velocity": 100}, {"time": 29260, "pitch": 55, "duration": 110, "velocity": 100}, {"time": 29260, "pitch": 58, "duration": 165, "velocity": 100}, {"time": 29370, "pitch": 51, "duration": 55, "velocity": 100}, {"time": 29480, "pitch": 39, "duration": 275, "velocity": 100}, {"time": 29480, "pitch": 51, "duration": 165, "velocity": 100}, {"time": 29480, "pitch": 55, "duration": 165, "velocity": 100}, {"time": 29590, "pitch": 46, "duration": 165, "velocity": 100}, {"time": 29700, "pitch": 51, "duration": 110, "velocity": 100}, {"time": 29700, "pitch": 55, "duration": 110, "velocity": 100}, {"time": 29700, "pitch": 58, "duration": 110, "velocity": 100}, {"time": 29810, "pitch": 39, "duration": 55, "velocity": 100}, {"time": 29920, "pitch": 39, "duration": 275, "velocity": 100}, {"time": 29920, "pitch": 51, "duration": 110, "velocity": 100}, {"time": 29920, "pitch": 55, "duration": 110, "velocity": 100}, {"time": 30030, "pitch": 46, "duration": 110, "velocity": 100}, {"time": 30140, "pitch": 51, "duration": 55, "velocity": 100}, {"time": 30140, "pitch": 55, "duration": 55, "velocity": 100}, {"time": 30250, "pitch": 39, "duration": 55, "velocity": 100}, {"time": 30360, "pitch": 39, "duration": 275, "velocity": 100}, {"time": 30360, "pitch": 51, "duration": 110, "velocity": 100}, {"time": 30360, "pitch": 55, "duration": 110, "velocity": 100}, {"time": 30360, "pitch": 58, "duration": 165, "velocity": 100}, {"time": 30470, "pitch": 46, "duration": 165, "velocity": 100}, {"time": 30580, "pitch": 51, "duration": 55, "velocity": 100}, {"time": 30580, "pitch": 55, "duration": 55, "velocity": 100}, {"time": 30580, "pitch": 58, "duration": 55, "velocity": 100}, {"time": 30690, "pitch": 39, "duration": 55, "velocity": 100}, {"time": 30800, "pitch": 39, "duration": 275, "velocity": 100}, {"time": 30800, "pitch": 51, "duration": 55, "velocity": 100}, {"time": 30800, "pitch": 55, "duration": 110, "velocity": 100}, {"time": 30800, "pitch": 58, "duration": 165, "velocity": 100}, {"time": 30910, "pitch": 51, "duration": 55, "velocity": 100}, {"time": 31020, "pitch": 51, "duration": 55, "velocity": 100}, {"time": 31020, "pitch": 55, "duration": 110, "velocity": 100}, {"time": 31020, "pitch": 58, "duration": 110, "velocity": 100}, {"time": 31130, "pitch": 46, "duration": 55, "velocity": 100}, {"time": 31130, "pitch": 67, "duration": 55, "velocity": 100}, {"time": 31185, "pitch": 51, "duration": 55, "velocity": 100}, {"time": 31185, "pitch": 55, "duration": 55, "velocity": 100}, {"time": 31185, "pitch": 67, "duration": 55, "velocity": 100}, {"time": 31240, "pitch": 39, "duration": 275, "velocity": 100}, {"time": 31240, "pitch": 51, "duration": 55, "velocity": 100}, {"time": 31240, "pitch": 55, "duration": 165, "velocity": 100}, {"time": 31240, "pitch": 67, "duration": 55, "velocity": 100}, {"time": 31295, "pitch": 70, "duration": 55, "velocity": 100}, {"time": 31350, "pitch": 51, "duration": 55, "velocity": 100}, {"time": 31350, "pitch": 67, "duration": 110, "velocity": 100}, {"time": 31460, "pitch": 51, "duration": 55, "velocity": 100}, {"time": 31460, "pitch": 55, "duration": 55, "velocity": 100}, {"time": 31460, "pitch": 58, "duration": 55, "velocity": 100}, {"time": 31515, "pitch": 46, "duration": 165, "velocity": 100}, {"time": 31570, "pitch": 51, "duration": 110, "velocity": 100}, {"time": 31570, "pitch": 70, "duration": 55, "velocity": 100}, {"time": 31625, "pitch": 55, "duration": 55, "velocity": 100}, {"time": 31625, "pitch": 67, "duration": 55, "velocity": 100}, {"time": 31680, "pitch": 40, "duration": 330, "velocity": 100}, {"time": 31680, "pitch": 52, "duration": 165, "velocity": 100}, {"time": 31680, "pitch": 56, "duration": 165, "velocity": 100}, {"time": 31680, "pitch": 60, "duration": 165, "velocity": 100}, {"time": 31790, "pitch": 48, "duration": 110, "velocity": 100}, {"time": 31900, "pitch": 56, "duration": 110, "velocity": 100}, {"time": 31900, "pitch": 60, "duration": 110, "velocity": 100}, {"time": 32120, "pitch": 40, "duration": 275, "velocity": 100}, {"time": 32120, "pitch": 56, "duration": 110, "velocity": 100}, {"time": 32120, "pitch": 60, "duration": 110, "velocity": 100}, {"time": 32230, "pitch": 48, "duration": 110, "velocity": 100}, {"time": 32340, "pitch": 56, "duration": 110, "velocity": 100}, {"time": 32340, "pitch": 60, "duration": 110, "velocity": 100}, {"time": 32450, "pitch": 52, "duration": 55, "velocity": 100}, {"time": 32560, "pitch": 40, "duration": 275, "velocity": 100}, {"time": 32560, "pitch": 52, "duration": 55, "velocity": 100}, {"time": 32560, "pitch": 56, "duration": 110, "velocity": 100}, {"time": 32670, "pitch": 48, "duration": 110, "velocity": 100}, {"time": 32780, "pitch": 56, "duration": 110, "velocity": 100}, {"time": 32780, "pitch": 60, "duration": 110, "velocity": 100}, {"time": 32890, "pitch": 52, "duration": 55, "velocity": 100}, {"time": 33000, "pitch": 44, "duration": 275, "velocity": 100}, {"time": 33000, "pitch": 56, "duration": 110, "velocity": 100}, {"time": 33000, "pitch": 60, "duration": 110, "velocity": 100}, {"time": 33110, "pitch": 52, "duration": 110, "velocity": 100}, {"time": 33220, "pitch": 56, "duration": 55, "velocity": 100}, {"time": 33220, "pitch": 60, "duration": 55, "velocity": 100}, {"time": 33220, "pitch": 64, "duration": 110, "velocity": 100}, {"time": 33330, "pitch": 44, "duration": 55, "velocity": 100}, {"time": 33440, "pitch": 40, "duration": 385, "velocity": 100}, {"time": 33440, "pitch": 56, "duration": 165, "velocity": 100}, {"time": 33440, "pitch": 60, "duration": 165, "velocity": 100}, {"time": 33550, "pitch": 48, "duration": 165, "velocity": 100}, {"time": 33660, "pitch": 56, "duration": 110, "velocity": 100}, {"time": 33660, "pitch": 60, "duration": 110, "velocity": 100}, {"time": 33770, "pitch": 52, "duration": 110, "velocity": 100}, {"time": 33880, "pitch": 36, "duration": 275, "velocity": 100}, {"time": 33880, "pitch": 56, "duration": 110, "velocity": 100}, {"time": 33880, "pitch": 60, "duration": 110, "velocity": 100}, {"time": 33990, "pitch": 52, "duration": 55, "velocity": 100}, {"time": 34100, "pitch": 52, "duration": 110, "velocity": 100}, {"time": 34100, "pitch": 56, "duration": 110, "velocity": 100}, {"time": 34100, "pitch": 60, "duration": 110, "velocity": 100}, {"time": 34210, "pitch": 40, "duration": 55, "velocity": 100}, {"time": 34320, "pitch": 48, "duration": 385, "velocity": 100}, {"time": 34320, "pitch": 56, "duration": 55, "velocity": 100}, {"time": 34320, "pitch": 60, "duration": 165, "velocity": 100}, {"time": 34320, "pitch": 64, "duration": 165, "velocity": 100}, {"time": 34430, "pitch": 56, "duration": 55, "velocity": 100}, {"time": 34540, "pitch": 56, "duration": 55, "velocity": 100}, {"time": 34540, "pitch": 60, "duration": 110, "velocity": 100}, {"time": 34540, "pitch": 64, "duration": 110, "velocity": 100}, {"time": 34650, "pitch": 56, "duration": 55, "velocity": 100}, {"time": 34760, "pitch": 48, "duration": 385, "velocity": 100}, {"time": 34760, "pitch": 56, "duration": 55, "velocity": 100}, {"time": 34760, "pitch": 60, "duration": 110, "velocity": 100}, {"time": 34760, "pitch": 64, "duration": 110, "velocity": 100}, {"time": 34870, "pitch": 56, "duration": 55, "velocity": 100}, {"time": 34925, "pitch": 56, "duration": 55, "velocity": 100}, {"time": 34925, "pitch": 60, "duration": 55, "velocity": 100}, {"time": 34980, "pitch": 56, "duration": 55, "velocity": 100}, {"time": 34980, "pitch": 60, "duration": 55, "velocity": 100}, {"time": 34980, "pitch": 68, "duration": 55, "velocity": 100}, {"time": 35090, "pitch": 56, "duration": 55, "velocity": 100}, {"time": 35090, "pitch": 60, "duration": 55, "velocity": 100}, {"time": 35090, "pitch": 64, "duration": 55, "velocity": 100}, {"time": 35200, "pitch": 37, "duration": 275, "velocity": 100}, {"time": 35200, "pitch": 52, "duration": 110, "velocity": 100}, {"time": 35200, "pitch": 56, "duration": 110, "velocity": 100}, {"time": 35200, "pitch": 61, "duration": 110, "velocity": 100}, {"time": 35310, "pitch": 44, "duration": 110, "velocity": 100}, {"time": 35420, "pitch": 52, "duration": 55, "velocity": 100}, {"time": 35420, "pitch": 56, "duration": 55, "velocity": 100}, {"time": 35420, "pitch": 61, "duration": 55, "velocity": 100}, {"time": 35530, "pitch": 49, "duration": 55, "velocity": 100}, {"time": 35640, "pitch": 37, "duration": 275, "velocity": 100}, {"time": 35640, "pitch": 52, "duration": 110, "velocity": 100}, {"time": 35640, "pitch": 56, "duration": 110, "velocity": 100}, {"time": 35640, "pitch": 61, "duration": 110, "velocity": 100}, {"time": 35750, "pitch": 44, "duration": 110, "velocity": 100}, {"time": 35860, "pitch": 52, "duration": 110, "velocity": 100}, {"time": 35860, "pitch": 61, "duration": 110, "velocity": 100}, {"time": 35970, "pitch": 52, "duration": 55, "velocity": 100}, {"time": 36080, "pitch": 37, "duration": 220, "velocity": 100}, {"time": 36080, "pitch": 52, "duration": 110, "velocity": 100}, {"time": 36080, "pitch": 56, "duration": 165, "velocity": 100}, {"time": 36190, "pitch": 44, "duration": 110, "velocity": 100}, {"time": 36300, "pitch": 52, "duration": 55, "velocity": 100}, {"time": 36300, "pitch": 56, "duration": 220, "velocity": 100}, {"time": 36300, "pitch": 61, "duration": 165, "velocity": 100}, {"time": 36410, "pitch": 52, "duration": 55, "velocity": 100}, {"time": 36520, "pitch": 37, "duration": 275, "velocity": 100}, {"time": 36520, "pitch": 56, "duration": 165, "velocity": 100}, {"time": 36630, "pitch": 49, "duration": 165, "velocity": 100}, {"time": 36740, "pitch": 52, "duration": 110, "velocity": 100}, {"time": 36740, "pitch": 56, "duration": 110, "velocity": 100}, {"time": 36740, "pitch": 61, "duration": 110, "velocity": 100}, {"time": 36850, "pitch": 44, "duration": 55, "velocity": 100}, {"time": 36960, "pitch": 37, "duration": 275, "velocity": 100}, {"time": 36960, "pitch": 56, "duration": 110, "velocity": 100}, {"time": 36960, "pitch": 61, "duration": 110, "velocity": 100}, {"time": 37070, "pitch": 44, "duration": 110, "velocity": 100}, {"time": 37180, "pitch": 56, "duration": 55, "velocity": 100}, {"time": 37180, "pitch": 61, "duration": 55, "velocity": 100}, {"time": 37290, "pitch": 44, "duration": 55, "velocity": 100}, {"time": 37400, "pitch": 37, "duration": 275, "velocity": 100}, {"time": 37400, "pitch": 56, "duration": 165, "velocity": 100}, {"time": 37400, "pitch": 61, "duration": 165, "velocity": 100}, {"time": 37510, "pitch": 49, "duration": 165, "velocity": 100}, {"time": 37620, "pitch": 56, "duration": 55, "velocity": 100}, {"time": 37620, "pitch": 61, "duration": 55, "velocity": 100}, {"time": 37730, "pitch": 37, "duration": 55, "velocity": 100}, {"time": 37840, "pitch": 49, "duration": 385, "velocity": 100}, {"time": 37840, "pitch": 52, "duration": 55, "velocity": 100}, {"time": 37840, "pitch": 56, "duration": 110, "velocity": 100}, {"time": 37840, "pitch": 61, "duration": 165, "velocity": 100}, {"time": 37950, "pitch": 52, "duration": 55, "velocity": 100}, {"time": 38060, "pitch": 52, "duration": 55, "velocity": 100}, {"time": 38060, "pitch": 56, "duration": 110, "velocity": 100}, {"time": 38060, "pitch": 61, "duration": 110, "velocity": 100}, {"time": 38170, "pitch": 49, "duration": 55, "velocity": 100}, {"time": 38170, "pitch": 68, "duration": 55, "velocity": 100}, {"time": 38225, "pitch": 56, "duration": 55, "velocity": 100}, {"time": 38225, "pitch": 61, "duration": 55, "velocity": 100}, {"time": 38225, "pitch": 68, "duration": 55, "velocity": 100}, {"time": 38280, "pitch": 44, "duration": 275, "velocity": 100}, {"time": 38280, "pitch": 56, "duration": 55, "velocity": 100}, {"time": 38280, "pitch": 68, "duration": 110, "velocity": 100}, {"time": 38335, "pitch": 73, "duration": 55, "velocity": 100}, {"time": 38390, "pitch": 56, "duration": 55, "velocity": 100}, {"time": 38390, "pitch": 71, "duration": 110, "velocity": 100}, {"time": 38500, "pitch": 52, "duration": 55, "velocity": 100}, {"time": 38500, "pitch": 56, "duration": 110, "velocity": 100}, {"time": 38500, "pitch": 61, "duration": 55, "velocity": 100}, {"time": 38555, "pitch": 49, "duration": 55, "velocity": 100}, {"time": 38610, "pitch": 52, "duration": 110, "velocity": 100}, {"time": 38610, "pitch": 73, "duration": 55, "velocity": 100}, {"time": 38665, "pitch": 56, "duration": 55, "velocity": 100}, {"time": 38665, "pitch": 71, "duration": 55, "velocity": 100}, {"time": 38720, "pitch": 37, "duration": 330, "velocity": 100}, {"time": 38720, "pitch": 49, "duration": 165, "velocity": 100}, {"time": 38720, "pitch": 52, "duration": 165, "velocity": 100}, {"time": 38720, "pitch": 56, "duration": 165, "velocity": 100}, {"time": 38720, "pitch": 73, "duration": 275, "velocity": 100}, {"time": 38830, "pitch": 44, "duration": 110, "velocity": 100}, {"time": 38940, "pitch": 52, "duration": 110, "velocity": 100}, {"time": 38940, "pitch": 56, "duration": 110, "velocity": 100}, {"time": 39160, "pitch": 36, "duration": 275, "velocity": 100}, {"time": 39160, "pitch": 52, "duration": 110, "velocity": 100}, {"time": 39160, "pitch": 56, "duration": 110, "velocity": 100}, {"time": 39270, "pitch": 44, "duration": 110, "velocity": 100}, {"time": 39380, "pitch": 52, "duration": 110, "velocity": 100}, {"time": 39380, "pitch": 56, "duration": 110, "velocity": 100}, {"time": 39490, "pitch": 48, "duration": 55, "velocity": 100}, {"time": 39600, "pitch": 36, "duration": 275, "velocity": 100}, {"time": 39600, "pitch": 48, "duration": 55, "velocity": 100}, {"time": 39600, "pitch": 52, "duration": 110, "velocity": 100}, {"time": 39600, "pitch": 72, "duration": 165, "velocity": 100}, {"time": 39710, "pitch": 44, "duration": 110, "velocity": 100}, {"time": 39820, "pitch": 52, "duration": 110, "velocity": 100}, {"time": 39820, "pitch": 56, "duration": 110, "velocity": 100}, {"time": 39930, "pitch": 48, "duration": 55, "velocity": 100}, {"time": 40040, "pitch": 36, "duration": 275, "velocity": 100}, {"time": 40040, "pitch": 52, "duration": 110, "velocity": 100}, {"time": 40040, "pitch": 56, "duration": 110, "velocity": 100}, {"time": 40150, "pitch": 44, "duration": 110, "velocity": 100}, {"time": 40205, "pitch": 69, "duration": 55, "velocity": 100}, {"time": 40260, "pitch": 52, "duration": 55, "velocity": 100}, {"time": 40260, "pitch": 56, "duration": 55, "velocity": 100}, {"time": 40260, "pitch": 60, "duration": 55, "velocity": 100}, {"time": 40260, "pitch": 68, "duration": 55, "velocity": 100}, {"time": 40315, "pitch": 66, "duration": 55, "velocity": 100}, {"time": 40370, "pitch": 40, "duration": 55, "velocity": 100}, {"time": 40370, "pitch": 68, "duration": 110, "velocity": 100}, {"time": 40480, "pitch": 36, "duration": 385, "velocity": 100}, {"time": 40480, "pitch": 52, "duration": 165, "velocity": 100}, {"time": 40480, "pitch": 56, "duration": 165, "velocity": 100}, {"time": 40480, "pitch": 60, "duration": 220, "velocity": 100}, {"time": 40480, "pitch": 64, "duration": 385, "velocity": 100}, {"time": 40590, "pitch": 48, "duration": 165, "velocity": 100}, {"time": 40700, "pitch": 52, "duration": 110, "velocity": 100}, {"time": 40700, "pitch": 56, "duration": 110, "velocity": 100}, {"time": 40810, "pitch": 48, "duration": 110, "velocity": 100}, {"time": 40865, "pitch": 73, "duration": 55, "velocity": 100}, {"time": 40920, "pitch": 36, "duration": 275, "velocity": 100}, {"time": 40920, "pitch": 52, "duration": 110, "velocity": 100}, {"time": 40920, "pitch": 56, "duration": 110, "velocity": 100}, {"time": 40920, "pitch": 76, "duration": 55, "velocity": 100}, {"time": 40975, "pitch": 73, "duration": 55, "velocity": 100}, {"time": 41030, "pitch": 48, "duration": 55, "velocity": 100}, {"time": 41030, "pitch": 72, "duration": 55, "velocity": 100}, {"time": 41085, "pitch": 72, "duration": 385, "velocity": 100}, {"time": 41140, "pitch": 48, "duration": 55, "velocity": 100}, {"time": 41140, "pitch": 52, "duration": 55, "velocity": 100}, {"time": 41140, "pitch": 56, "duration": 110, "velocity": 100}, {"time": 41250, "pitch": 40, "duration": 55, "velocity": 100}, {"time": 41360, "pitch": 40, "duration": 385, "velocity": 100}, {"time": 41360, "pitch": 56, "duration": 165, "velocity": 100}, {"time": 41360, "pitch": 60, "duration": 55, "velocity": 100}, {"time": 41470, "pitch": 52, "duration": 110, "velocity": 100}, {"time": 41580, "pitch": 56, "duration": 110, "velocity": 100}, {"time": 41580, "pitch": 60, "duration": 110, "velocity": 100}, {"time": 41580, "pitch": 64, "duration": 110, "velocity": 100}, {"time": 41690, "pitch": 52, "duration": 110, "velocity": 100}, {"time": 41800, "pitch": 44, "duration": 275, "velocity": 100}, {"time": 41800, "pitch": 56, "duration": 110, "velocity": 100}, {"time": 41800, "pitch": 60, "duration": 110, "velocity": 100}, {"time": 41800, "pitch": 64, "duration": 110, "velocity": 100}, {"time": 41800, "pitch": 68, "duration": 110, "velocity": 100}, {"time": 41855, "pitch": 68, "duration": 55, "velocity": 100}, {"time": 41910, "pitch": 48, "duration": 165, "velocity": 100}, {"time": 41910, "pitch": 68, "duration": 110, "velocity": 100}, {"time": 42020, "pitch": 56, "duration": 55, "velocity": 100}, {"time": 42020, "pitch": 60, "duration": 55, "velocity": 100}, {"time": 42020, "pitch": 64, "duration": 55, "velocity": 100}, {"time": 42020, "pitch": 68, "duration": 55, "velocity": 100}, {"time": 42130, "pitch": 44, "duration": 55, "velocity": 100}, {"time": 42130, "pitch": 52, "duration": 55, "velocity": 100}, {"time": 42130, "pitch": 56, "duration": 55, "velocity": 100}, {"time": 42130, "pitch": 60, "duration": 55, "velocity": 100}, {"time": 42130, "pitch": 68, "duration": 55, "velocity": 100}, {"time": 42240, "pitch": 40, "duration": 330, "velocity": 100}, {"time": 42240, "pitch": 52, "duration": 165, "velocity": 100}, {"time": 42240, "pitch": 56, "duration": 165, "velocity": 100}, {"time": 42240, "pitch": 60, "duration": 165, "velocity": 100}, {"time": 42240, "pitch": 77, "duration": 220, "velocity": 100}, {"time": 42350, "pitch": 48, "duration": 110, "velocity": 100}, {"time": 42460, "pitch": 56, "duration": 110, "velocity": 100}, {"time": 42460, "pitch": 60, "duration": 110, "velocity": 100}, {"time": 42680, "pitch": 41, "duration": 275, "velocity": 100}, {"time": 42680, "pitch": 56, "duration": 110, "velocity": 100}, {"time": 42680, "pitch": 60, "duration": 110, "velocity": 100}, {"time": 42790, "pitch": 48, "duration": 110, "velocity": 100}, {"time": 42900, "pitch": 56, "duration": 110, "velocity": 100}, {"time": 42900, "pitch": 60, "duration": 110, "velocity": 100}, {"time": 43010, "pitch": 53, "duration": 55, "velocity": 100}, {"time": 43120, "pitch": 41, "duration": 275, "velocity": 100}, {"time": 43120, "pitch": 53, "duration": 55, "velocity": 100}, {"time": 43120, "pitch": 56, "duration": 110, "velocity": 100}, {"time": 43230, "pitch": 48, "duration": 110, "velocity": 100}, {"time": 43340, "pitch": 56, "duration": 110, "velocity": 100}, {"time": 43340, "pitch": 60, "duration": 110, "velocity": 100}, {"time": 43450, "pitch": 48, "duration": 55, "velocity": 100}, {"time": 43560, "pitch": 41, "duration": 275, "velocity": 100}, {"time": 43560, "pitch": 56, "duration": 110, "velocity": 100}, {"time": 43560, "pitch": 60, "duration": 110, "velocity": 100}, {"time": 43670, "pitch": 53, "duration": 110, "velocity": 100}, {"time": 43780, "pitch": 56, "duration": 55, "velocity": 100}, {"time": 43780, "pitch": 60, "duration": 55, "velocity": 100}, {"time": 43780, "pitch": 65, "duration": 110, "velocity": 100}, {"time": 43890, "pitch": 41, "duration": 55, "velocity": 100}, {"time": 44000, "pitch": 41, "duration": 385, "velocity": 100}, {"time": 44000, "pitch": 56, "duration": 165, "velocity": 100}, {"time": 44000, "pitch": 60, "duration": 165, "velocity": 100}, {"time": 44110, "pitch": 48, "duration": 165, "velocity": 100}, {"time": 44220, "pitch": 56, "duration": 110, "velocity": 100}, {"time": 44220, "pitch": 60, "duration": 110, "velocity": 100}, {"time": 44330, "pitch": 53, "duration": 110, "velocity": 100}, {"time": 44440, "pitch": 41, "duration": 275, "velocity": 100}, {"time": 44440, "pitch": 56, "duration": 110, "velocity": 100}, {"time": 44440, "pitch": 60, "duration": 110, "velocity": 100}, {"time": 44550, "pitch": 53, "duration": 55, "velocity": 100}, {"time": 44660, "pitch": 53, "duration": 110, "velocity": 100}, {"time": 44660, "pitch": 56, "duration": 110, "velocity": 100}, {"time": 44660, "pitch": 60, "duration": 110, "velocity": 100}, {"time": 44770, "pitch": 41, "duration": 55, "velocity": 100}, {"time": 44880, "pitch": 48, "duration": 385, "velocity": 100}, {"time": 44880, "pitch": 56, "duration": 55, "velocity": 100}, {"time": 44880, "pitch": 60, "duration": 165, "velocity": 100}, {"time": 44880, "pitch": 65, "duration": 165, "velocity": 100}, {"time": 44990, "pitch": 56, "duration": 55, "velocity": 100}, {"time": 45100, "pitch": 56, "duration": 55, "velocity": 100}, {"time": 45100, "pitch": 60, "duration": 110, "velocity": 100}, {"time": 45100, "pitch": 65, "duration": 110, "velocity": 100}, {"time": 45210, "pitch": 56, "duration": 55, "velocity": 100}, {"time": 45320, "pitch": 48, "duration": 385, "velocity": 100}, {"time": 45320, "pitch": 56, "duration": 55, "velocity": 100}, {"time": 45320, "pitch": 60, "duration": 110, "velocity": 100}, {"time": 45320, "pitch": 65, "duration": 110, "velocity": 100}, {"time": 45430, "pitch": 53, "duration": 55, "velocity": 100}, {"time": 45485, "pitch": 56, "duration": 55, "velocity": 100}, {"time": 45485, "pitch": 60, "duration": 55, "velocity": 100}, {"time": 45540, "pitch": 56, "duration": 55, "velocity": 100}, {"time": 45540, "pitch": 60, "duration": 55, "velocity": 100}, {"time": 45540, "pitch": 68, "duration": 55, "velocity": 100}, {"time": 45650, "pitch": 56, "duration": 55, "velocity": 100}, {"time": 45650, "pitch": 60, "duration": 55, "velocity": 100}, {"time": 45650, "pitch": 65, "duration": 55, "velocity": 100}, {"time": 45760, "pitch": 37, "duration": 275, "velocity": 100}, {"time": 45760, "pitch": 52, "duration": 110, "velocity": 100}, {"time": 45760, "pitch": 56, "duration": 110, "velocity": 100}, {"time": 45760, "pitch": 61, "duration": 110, "velocity": 100}, {"time": 45870, "pitch": 44, "duration": 110, "velocity": 100}, {"time": 45980, "pitch": 52, "duration": 55, "velocity": 100}, {"time": 45980, "pitch": 56, "duration": 55, "velocity": 100}, {"time": 45980, "pitch": 61, "duration": 55, "velocity": 100}, {"time": 46090, "pitch": 49, "duration": 55, "velocity": 100}, {"time": 46200, "pitch": 37, "duration": 275, "velocity": 100}, {"time": 46200, "pitch": 52, "duration": 110, "velocity": 100}, {"time": 46200, "pitch": 56, "duration": 110, "velocity": 100}, {"time": 46200, "pitch": 61, "duration": 110, "velocity": 100}, {"time": 46310, "pitch": 44, "duration": 110, "velocity": 100}, {"time": 46420, "pitch": 52, "duration": 110, "velocity": 100}, {"time": 46420, "pitch": 61, "duration": 110, "velocity": 100}, {"time": 46530, "pitch": 52, "duration": 55, "velocity": 100}, {"time": 46640, "pitch": 37, "duration": 220, "velocity": 100}, {"time": 46640, "pitch": 52, "duration": 110, "velocity": 100}, {"time": 46640, "pitch": 56, "duration": 165, "velocity": 100}, {"time": 46750, "pitch": 44, "duration": 110, "velocity": 100}, {"time": 46860, "pitch": 52, "duration": 55, "velocity": 100}, {"time": 46860, "pitch": 56, "duration": 220, "velocity": 100}, {"time": 46860, "pitch": 61, "duration": 165, "velocity": 100}, {"time": 46970, "pitch": 52, "duration": 55, "velocity": 100}, {"time": 47080, "pitch": 37, "duration": 275, "velocity": 100}, {"time": 47080, "pitch": 56, "duration": 165, "velocity": 100}, {"time": 47190, "pitch": 49, "duration": 165, "velocity": 100}, {"time": 47300, "pitch": 52, "duration": 110, "velocity": 100}, {"time": 47300, "pitch": 56, "duration": 110, "velocity": 100}, {"time": 47300, "pitch": 61, "duration": 110, "velocity": 100}, {"time": 47410, "pitch": 44, "duration": 55, "velocity": 100}, {"time": 47520, "pitch": 37, "duration": 275, "velocity": 100}, {"time": 47520, "pitch": 56, "duration": 110, "velocity": 100}, {"time": 47520, "pitch": 61, "duration": 110, "velocity": 100}, {"time": 47630, "pitch": 44, "duration": 110, "velocity": 100}, {"time": 47740, "pitch": 56, "duration": 55, "velocity": 100}, {"time": 47740, "pitch": 61, "duration": 55, "velocity": 100}, {"time": 47850, "pitch": 44, "duration": 55, "velocity": 100}, {"time": 47960, "pitch": 37, "duration": 275, "velocity": 100}, {"time": 47960, "pitch": 56, "duration": 165, "velocity": 100}, {"time": 47960, "pitch": 61, "duration": 165, "velocity": 100}, {"time": 48070, "pitch": 49, "duration": 165, "velocity": 100}, {"time": 48180, "pitch": 56, "duration": 55, "velocity": 100}, {"time": 48180, "pitch": 61, "duration": 55, "velocity": 100}, {"time": 48290, "pitch": 37, "duration": 55, "velocity": 100}, {"time": 48400, "pitch": 49, "duration": 385, "velocity": 100}, {"time": 48400, "pitch": 52, "duration": 55, "velocity": 100}, {"time": 48400, "pitch": 56, "duration": 110, "velocity": 100}, {"time": 48400, "pitch": 61, "duration": 165, "velocity": 100}, {"time": 48510, "pitch": 52, "duration": 55, "velocity": 100}, {"time": 48620, "pitch": 52, "duration": 55, "velocity": 100}, {"time": 48620, "pitch": 56, "duration": 110, "velocity": 100}, {"time": 48620, "pitch": 61, "duration": 110, "velocity": 100}, {"time": 48730, "pitch": 49, "duration": 55, "velocity": 100}, {"time": 48730, "pitch": 68, "duration": 55, "velocity": 100}, {"time": 48785, "pitch": 56, "duration": 55, "velocity": 100}, {"time": 48785, "pitch": 61, "duration": 55, "velocity": 100}, {"time": 48785, "pitch": 68, "duration": 55, "velocity": 100}, {"time": 48840, "pitch": 44, "duration": 275, "velocity": 100}, {"time": 48840, "pitch": 56, "duration": 55, "velocity": 100}, {"time": 48840, "pitch": 68, "duration": 110, "velocity": 100}, {"time": 48895, "pitch": 73, "duration": 55, "velocity": 100}, {"time": 48950, "pitch": 56, "duration": 55, "velocity": 100}, {"time": 48950, "pitch": 71, "duration": 110, "velocity": 100}, {"time": 49060, "pitch": 52, "duration": 55, "velocity": 100}, {"time": 49060, "pitch": 56, "duration": 110, "velocity": 100}, {"time": 49060, "pitch": 61, "duration": 55, "velocity": 100}, {"time": 49115, "pitch": 49, "duration": 55, "velocity": 100}, {"time": 49170, "pitch": 52, "duration": 110, "velocity": 100}, {"time": 49170, "pitch": 73, "duration": 55, "velocity": 100}, {"time": 49225, "pitch": 56, "duration": 55, "velocity": 100}, {"time": 49225, "pitch": 71, "duration": 55, "velocity": 100}, {"time": 49280, "pitch": 37, "duration": 330, "velocity": 100}, {"time": 49280, "pitch": 52, "duration": 165, "velocity": 100}, {"time": 49280, "pitch": 56, "duration": 165, "velocity": 100}, {"time": 49280, "pitch": 59, "duration": 165, "velocity": 100}, {"time": 49390, "pitch": 48, "duration": 110, "velocity": 100}, {"time": 49500, "pitch": 56, "duration": 110, "velocity": 100}, {"time": 49500, "pitch": 60, "duration": 110, "velocity": 100}, {"time": 49720, "pitch": 36, "duration": 275, "velocity": 100}, {"time": 49720, "pitch": 55, "duration": 110, "velocity": 100}, {"time": 49720, "pitch": 60, "duration": 110, "velocity": 100}, {"time": 49830, "pitch": 48, "duration": 110, "velocity": 100}, {"time": 49940, "pitch": 55, "duration": 110, "velocity": 100}, {"time": 49940, "pitch": 60, "duration": 110, "velocity": 100}, {"time": 50050, "pitch": 52, "duration": 55, "velocity": 100}, {"time": 50160, "pitch": 36, "duration": 275, "velocity": 100}, {"time": 50160, "pitch": 48, "duration": 165, "velocity": 100}, {"time": 50160, "pitch": 52, "duration": 110, "velocity": 100}, {"time": 50270, "pitch": 43, "duration": 110, "velocity": 100}, {"time": 50380, "pitch": 52, "duration": 110, "velocity": 100}, {"time": 50380, "pitch": 55, "duration": 110, "velocity": 100}, {"time": 50490, "pitch": 48, "duration": 55, "velocity": 100}, {"time": 50600, "pitch": 36, "duration": 275, "velocity": 100}, {"time": 50600, "pitch": 55, "duration": 110, "velocity": 100}, {"time": 50600, "pitch": 60, "duration": 110, "velocity": 100}, {"time": 50710, "pitch": 48, "duration": 110, "velocity": 100}, {"time": 50820, "pitch": 55, "duration": 110, "velocity": 100}, {"time": 50820, "pitch": 60, "duration": 110, "velocity": 100}, {"time": 50930, "pitch": 43, "duration": 55, "velocity": 100}, {"time": 51040, "pitch": 36, "duration": 385, "velocity": 100}, {"time": 51040, "pitch": 55, "duration": 165, "velocity": 100}, {"time": 51040, "pitch": 60, "duration": 165, "velocity": 100}, {"time": 51150, "pitch": 48, "duration": 165, "velocity": 100}, {"time": 51260, "pitch": 55, "duration": 110, "velocity": 100}, {"time": 51260, "pitch": 60, "duration": 110, "velocity": 100}, {"time": 51370, "pitch": 52, "duration": 110, "velocity": 100}, {"time": 51480, "pitch": 36, "duration": 275, "velocity": 100}, {"time": 51480, "pitch": 55, "duration": 110, "velocity": 100}, {"time": 51480, "pitch": 60, "duration": 110, "velocity": 100}, {"time": 51590, "pitch": 52, "duration": 55, "velocity": 100}, {"time": 51700, "pitch": 52, "duration": 110, "velocity": 100}, {"time": 51700, "pitch": 55, "duration": 110, "velocity": 100}, {"time": 51700, "pitch": 60, "duration": 110, "velocity": 100}, {"time": 51810, "pitch": 36, "duration": 55, "velocity": 100}, {"time": 51920, "pitch": 48, "duration": 440, "velocity": 100}, {"time": 51920, "pitch": 55, "duration": 55, "velocity": 100}, {"time": 51920, "pitch": 60, "duration": 165, "velocity": 100}, {"time": 51920, "pitch": 64, "duration": 110, "velocity": 100}, {"time": 52030, "pitch": 55, "duration": 55, "velocity": 100}, {"time": 52140, "pitch": 52, "duration": 55, "velocity": 100}, {"time": 52140, "pitch": 55, "duration": 110, "velocity": 100}, {"time": 52140, "pitch": 60, "duration": 110, "velocity": 100}, {"time": 52250, "pitch": 55, "duration": 55, "velocity": 100}, {"time": 52360, "pitch": 48, "duration": 385, "velocity": 100}, {"time": 52360, "pitch": 55, "duration": 55, "velocity": 100}, {"time": 52360, "pitch": 60, "duration": 110, "velocity": 100}, {"time": 52360, "pitch": 64, "duration": 110, "velocity": 100}, {"time": 52470, "pitch": 52, "duration": 55, "velocity": 100}, {"time": 52525, "pitch": 55, "duration": 55, "velocity": 100}, {"time": 52525, "pitch": 60, "duration": 55, "velocity": 100}, {"time": 52580, "pitch": 55, "duration": 55, "velocity": 100}, {"time": 52580, "pitch": 60, "duration": 55, "velocity": 100}, {"time": 52580, "pitch": 64, "duration": 55, "velocity": 100}, {"time": 52690, "pitch": 55, "duration": 55, "velocity": 100}, {"time": 52690, "pitch": 60, "duration": 55, "velocity": 100}, {"time": 52800, "pitch": 39, "duration": 275, "velocity": 100}, {"time": 52800, "pitch": 46, "duration": 165, "velocity": 100}, {"time": 52800, "pitch": 51, "duration": 110, "velocity": 100}, {"time": 52800, "pitch": 55, "duration": 110, "velocity": 100}, {"time": 52910, "pitch": 46, "duration": 110, "velocity": 100}, {"time": 53020, "pitch": 46, "duration": 55, "velocity": 100}, {"time": 53020, "pitch": 51, "duration": 55, "velocity": 100}, {"time": 53020, "pitch": 55, "duration": 55, "velocity": 100}, {"time": 53130, "pitch": 46, "duration": 55, "velocity": 100}, {"time": 53240, "pitch": 39, "duration": 275, "velocity": 100}, {"time": 53240, "pitch": 51, "duration": 110, "velocity": 100}, {"time": 53240, "pitch": 55, "duration": 110, "velocity": 100}, {"time": 53240, "pitch": 58, "duration": 110, "velocity": 100}, {"time": 53350, "pitch": 46, "duration": 110, "velocity": 100}, {"time": 53460, "pitch": 51, "duration": 110, "velocity": 100}, {"time": 53460, "pitch": 55, "duration": 110, "velocity": 100}, {"time": 53570, "pitch": 46, "duration": 55, "velocity": 100}, {"time": 53680, "pitch": 39, "duration": 275, "velocity": 100}, {"time": 53680, "pitch": 51, "duration": 110, "velocity": 100}, {"time": 53680, "pitch": 55, "duration": 110, "velocity": 100}, {"time": 53790, "pitch": 46, "duration": 110, "velocity": 100}, {"time": 53900, "pitch": 51, "duration": 55, "velocity": 100}, {"time": 53900, "pitch": 55, "duration": 110, "velocity": 100}, {"time": 53900, "pitch": 58, "duration": 165, "velocity": 100}, {"time": 54010, "pitch": 51, "duration": 55, "velocity": 100}, {"time": 54120, "pitch": 39, "duration": 275, "velocity": 100}, {"time": 54120, "pitch": 51, "duration": 165, "velocity": 100}, {"time": 54120, "pitch": 55, "duration": 165, "velocity": 100}, {"time": 54230, "pitch": 46, "duration": 165, "velocity": 100}, {"time": 54340, "pitch": 51, "duration": 110, "velocity": 100}, {"time": 54340, "pitch": 55, "duration": 110, "velocity": 100}, {"time": 54340, "pitch": 58, "duration": 110, "velocity": 100}, {"time": 54450, "pitch": 39, "duration": 55, "velocity": 100}, {"time": 54560, "pitch": 39, "duration": 275, "velocity": 100}, {"time": 54560, "pitch": 51, "duration": 110, "velocity": 100}, {"time": 54560, "pitch": 55, "duration": 110, "velocity": 100}, {"time": 54670, "pitch": 46, "duration": 110, "velocity": 100}, {"time": 54780, "pitch": 51, "duration": 55, "velocity": 100}, {"time": 54780, "pitch": 55, "duration": 55, "velocity": 100}, {"time": 54890, "pitch": 39, "duration": 55, "velocity": 100}, {"time": 55000, "pitch": 39, "duration": 275, "velocity": 100}, {"time": 55000, "pitch": 51, "duration": 110, "velocity": 100}, {"time": 55000, "pitch": 55, "duration": 110, "velocity": 100}, {"time": 55000, "pitch": 58, "duration": 165, "velocity": 100}, {"time": 55110, "pitch": 46, "duration": 165, "velocity": 100}, {"time": 55220, "pitch": 51, "duration": 55, "velocity": 100}, {"time": 55220, "pitch": 55, "duration": 55, "velocity": 100}, {"time": 55220, "pitch": 58, "duration": 55, "velocity": 100}, {"time": 55330, "pitch": 39, "duration": 55, "velocity": 100}, {"time": 55440, "pitch": 39, "duration": 275, "velocity": 100}, {"time": 55440, "pitch": 51, "duration": 55, "velocity": 100}, {"time": 55440, "pitch": 55, "duration": 110, "velocity": 100}, {"time": 55440, "pitch": 58, "duration": 165, "velocity": 100}, {"time": 55550, "pitch": 51, "duration": 55, "velocity": 100}, {"time": 55660, "pitch": 51, "duration": 55, "velocity": 100}, {"time": 55660, "pitch": 55, "duration": 110, "velocity": 100}, {"time": 55660, "pitch": 58, "duration": 110, "velocity": 100}, {"time": 55770, "pitch": 46, "duration": 55, "velocity": 100}, {"time": 55770, "pitch": 67, "duration": 55, "velocity": 100}, {"time": 55825, "pitch": 51, "duration": 55, "velocity": 100}, {"time": 55825, "pitch": 55, "duration": 55, "velocity": 100}, {"time": 55825, "pitch": 67, "duration": 55, "velocity": 100}, {"time": 55880, "pitch": 39, "duration": 275, "velocity": 100}, {"time": 55880, "pitch": 51, "duration": 55, "velocity": 100}, {"time": 55880, "pitch": 55, "duration": 165, "velocity": 100}, {"time": 55880, "pitch": 67, "duration": 55, "velocity": 100}, {"time": 55935, "pitch": 70, "duration": 55, "velocity": 100}, {"time": 55990, "pitch": 51, "duration": 55, "velocity": 100}, {"time": 55990, "pitch": 67, "duration": 110, "velocity": 100}, {"time": 56100, "pitch": 51, "duration": 55, "velocity": 100}, {"time": 56100, "pitch": 55, "duration": 55, "velocity": 100}, {"time": 56100, "pitch": 58, "duration": 55, "velocity": 100}, {"time": 56155, "pitch": 46, "duration": 165, "velocity": 100}, {"time": 56210, "pitch": 51, "duration": 110, "velocity": 100}, {"time": 56210, "pitch": 70, "duration": 55, "velocity": 100}, {"time": 56265, "pitch": 55, "duration": 55, "velocity": 100}, {"time": 56265, "pitch": 67, "duration": 55, "velocity": 100}, {"time": 56320, "pitch": 39, "duration": 330, "velocity": 100}, {"time": 56320, "pitch": 51, "duration": 165, "velocity": 100}, {"time": 56320, "pitch": 56, "duration": 165, "velocity": 100}, {"time": 56320, "pitch": 58, "duration": 165, "velocity": 100}, {"time": 56320, "pitch": 75, "duration": 330, "velocity": 100}, {"time": 56430, "pitch": 51, "duration": 110, "velocity": 100}, {"time": 56540, "pitch": 56, "duration": 110, "velocity": 100}, {"time": 56540, "pitch": 60, "duration": 110, "velocity": 100}, {"time": 56760, "pitch": 41, "duration": 275, "velocity": 100}, {"time": 56760, "pitch": 56, "duration": 110, "velocity": 100}, {"time": 56760, "pitch": 60, "duration": 110, "velocity": 100}, {"time": 56870, "pitch": 48, "duration": 110, "velocity": 100}, {"time": 56980, "pitch": 56, "duration": 110, "velocity": 100}, {"time": 56980, "pitch": 60, "duration": 110, "velocity": 100}, {"time": 57090, "pitch": 53, "duration": 55, "velocity": 100}, {"time": 57200, "pitch": 41, "duration": 275, "velocity": 100}, {"time": 57200, "pitch": 53, "duration": 110, "velocity": 100}, {"time": 57200, "pitch": 56, "duration": 110, "velocity": 100}, {"time": 57200, "pitch": 77, "duration": 220, "velocity": 100}, {"time": 57310, "pitch": 48, "duration": 110, "velocity": 100}, {"time": 57420, "pitch": 53, "duration": 110, "velocity": 100}, {"time": 57420, "pitch": 60, "duration": 110, "velocity": 100}, {"time": 57530, "pitch": 53, "duration": 55, "velocity": 100}, {"time": 57640, "pitch": 41, "duration": 275, "velocity": 100}, {"time": 57640, "pitch": 56, "duration": 110, "velocity": 100}, {"time": 57640, "pitch": 60, "duration": 110, "velocity": 100}, {"time": 57750, "pitch": 48, "duration": 110, "velocity": 100}, {"time": 57805, "pitch": 75, "duration": 55, "velocity": 100}, {"time": 57860, "pitch": 56, "duration": 55, "velocity": 100}, {"time": 57860, "pitch": 60, "duration": 55, "velocity": 100}, {"time": 57860, "pitch": 65, "duration": 55, "velocity": 100}, {"time": 57860, "pitch": 72, "duration": 55, "velocity": 100}, {"time": 57915, "pitch": 70, "duration": 55, "velocity": 100}, {"time": 57970, "pitch": 41, "duration": 55, "velocity": 100}, {"time": 57970, "pitch": 72, "duration": 110, "velocity": 100}, {"time": 58080, "pitch": 41, "duration": 385, "velocity": 100}, {"time": 58080, "pitch": 56, "duration": 165, "velocity": 100}, {"time": 58080, "pitch": 60, "duration": 165, "velocity": 100}, {"time": 58080, "pitch": 65, "duration": 220, "velocity": 100}, {"time": 58080, "pitch": 68, "duration": 385, "velocity": 100}, {"time": 58190, "pitch": 48, "duration": 165, "velocity": 100}, {"time": 58300, "pitch": 56, "duration": 110, "velocity": 100}, {"time": 58300, "pitch": 60, "duration": 110, "velocity": 100}, {"time": 58410, "pitch": 53, "duration": 110, "velocity": 100}, {"time": 58465, "pitch": 77, "duration": 55, "velocity": 100}, {"time": 58520, "pitch": 41, "duration": 275, "velocity": 100}, {"time": 58520, "pitch": 56, "duration": 110, "velocity": 100}, {"time": 58520, "pitch": 60, "duration": 110, "velocity": 100}, {"time": 58520, "pitch": 80, "duration": 55, "velocity": 100}, {"time": 58575, "pitch": 77, "duration": 55, "velocity": 100}, {"time": 58630, "pitch": 53, "duration": 55, "velocity": 100}, {"time": 58630, "pitch": 75, "duration": 55, "velocity": 100}, {"time": 58685, "pitch": 77, "duration": 385, "velocity": 100}, {"time": 58740, "pitch": 53, "duration": 55, "velocity": 100}, {"time": 58740, "pitch": 56, "duration": 55, "velocity": 100}, {"time": 58740, "pitch": 60, "duration": 110, "velocity": 100}, {"time": 58850, "pitch": 41, "duration": 55, "velocity": 100}, {"time": 58960, "pitch": 41, "duration": 385, "velocity": 100}, {"time": 58960, "pitch": 56, "duration": 165, "velocity": 100}, {"time": 58960, "pitch": 60, "duration": 165, "velocity": 100}, {"time": 58960, "pitch": 65, "duration": 110, "velocity": 100}, {"time": 59070, "pitch": 56, "duration": 110, "velocity": 100}, {"time": 59180, "pitch": 60, "duration": 110, "velocity": 100}, {"time": 59180, "pitch": 65, "duration": 110, "velocity": 100}, {"time": 59180, "pitch": 68, "duration": 110, "velocity": 100}, {"time": 59290, "pitch": 53, "duration": 110, "velocity": 100}, {"time": 59400, "pitch": 53, "duration": 275, "velocity": 100}, {"time": 59400, "pitch": 60, "duration": 110, "velocity": 100}, {"time": 59400, "pitch": 65, "duration": 110, "velocity": 100}, {"time": 59400, "pitch": 68, "duration": 110, "velocity": 100}, {"time": 59400, "pitch": 72, "duration": 110, "velocity": 100}, {"time": 59455, "pitch": 72, "duration": 55, "velocity": 100}, {"time": 59510, "pitch": 53, "duration": 165, "velocity": 100}, {"time": 59510, "pitch": 72, "duration": 110, "velocity": 100}, {"time": 59620, "pitch": 60, "duration": 55, "velocity": 100}, {"time": 59620, "pitch": 65, "duration": 55, "velocity": 100}, {"time": 59620, "pitch": 68, "duration": 55, "velocity": 100}, {"time": 59620, "pitch": 72, "duration": 55, "velocity": 100}, {"time": 59730, "pitch": 48, "duration": 55, "velocity": 100}, {"time": 59730, "pitch": 56, "duration": 55, "velocity": 100}, {"time": 59730, "pitch": 60, "duration": 55, "velocity": 100}, {"time": 59730, "pitch": 65, "duration": 55, "velocity": 100}, {"time": 59730, "pitch": 72, "duration": 55, "velocity": 100}, {"time": 59840, "pitch": 51, "duration": 55, "velocity": 100}, {"time": 59840, "pitch": 72, "duration": 165, "velocity": 100}, {"time": 59950, "pitch": 46, "duration": 110, "velocity": 100}, {"time": 60005, "pitch": 51, "duration": 55, "velocity": 100}, {"time": 60060, "pitch": 51, "duration": 55, "velocity": 100}, {"time": 60060, "pitch": 55, "duration": 55, "velocity": 100}, {"time": 60060, "pitch": 70, "duration": 220, "velocity": 100}, {"time": 60115, "pitch": 46, "duration": 55, "velocity": 100}, {"time": 60170, "pitch": 51, "duration": 55, "velocity": 100}, {"time": 60280, "pitch": 39, "duration": 330, "velocity": 100}, {"time": 60280, "pitch": 51, "duration": 165, "velocity": 100}, {"time": 60280, "pitch": 55, "duration": 165, "velocity": 100}, {"time": 60390, "pitch": 46, "duration": 165, "velocity": 100}, {"time": 60500, "pitch": 58, "duration": 110, "velocity": 100}, {"time": 60610, "pitch": 63, "duration": 55, "velocity": 100}, {"time": 60720, "pitch": 39, "duration": 275, "velocity": 100}, {"time": 60720, "pitch": 55, "duration": 165, "velocity": 100}, {"time": 60720, "pitch": 58, "duration": 110, "velocity": 100}, {"time": 60830, "pitch": 51, "duration": 165, "velocity": 100}, {"time": 60940, "pitch": 55, "duration": 55, "velocity": 100}, {"time": 60940, "pitch": 58, "duration": 55, "velocity": 100}, {"time": 60940, "pitch": 63, "duration": 55, "velocity": 100}, {"time": 61160, "pitch": 51, "duration": 275, "velocity": 100}, {"time": 61160, "pitch": 55, "duration": 55, "velocity": 100}, {"time": 61160, "pitch": 63, "duration": 220, "velocity": 100}, {"time": 61270, "pitch": 55, "duration": 110, "velocity": 100}, {"time": 61380, "pitch": 63, "duration": 110, "velocity": 100}, {"time": 61490, "pitch": 55, "duration": 55, "velocity": 100}, {"time": 61600, "pitch": 43, "duration": 275, "velocity": 100}, {"time": 61600, "pitch": 55, "duration": 165, "velocity": 100}, {"time": 61600, "pitch": 58, "duration": 165, "velocity": 100}, {"time": 61710, "pitch": 51, "duration": 165, "velocity": 100}, {"time": 61820, "pitch": 55, "duration": 55, "velocity": 100}, {"time": 61820, "pitch": 63, "duration": 55, "velocity": 100}, {"time": 62040, "pitch": 39, "duration": 275, "velocity": 100}, {"time": 62040, "pitch": 58, "duration": 220, "velocity": 100}, {"time": 62040, "pitch": 63, "duration": 440, "velocity": 100}, {"time": 62150, "pitch": 51, "duration": 220, "velocity": 100}, {"time": 62260, "pitch": 55, "duration": 110, "velocity": 100}, {"time": 62480, "pitch": 39, "duration": 275, "velocity": 100}, {"time": 62480, "pitch": 55, "duration": 220, "velocity": 100}, {"time": 62480, "pitch": 58, "duration": 220, "velocity": 100}, {"time": 62590, "pitch": 46, "duration": 165, "velocity": 100}, {"time": 62700, "pitch": 63, "duration": 220, "velocity": 100}, {"time": 62810, "pitch": 55, "duration": 110, "velocity": 100}, {"time": 62920, "pitch": 46, "duration": 275, "velocity": 100}, {"time": 62920, "pitch": 55, "duration": 55, "velocity": 100}, {"time": 62920, "pitch": 58, "duration": 165, "velocity": 100}, {"time": 63030, "pitch": 55, "duration": 110, "velocity": 100}, {"time": 63140, "pitch": 63, "duration": 165, "velocity": 100}, {"time": 63360, "pitch": 39, "duration": 220, "velocity": 100}, {"time": 63360, "pitch": 51, "duration": 110, "velocity": 100}, {"time": 63360, "pitch": 58, "duration": 110, "velocity": 100}, {"time": 63470, "pitch": 46, "duration": 110, "velocity": 100}, {"time": 63470, "pitch": 77, "duration": 55, "velocity": 100}, {"time": 63525, "pitch": 77, "duration": 55, "velocity": 100}, {"time": 63580, "pitch": 48, "duration": 110, "velocity": 100}, {"time": 63580, "pitch": 52, "duration": 55, "velocity": 100}, {"time": 63580, "pitch": 55, "duration": 110, "velocity": 100}, {"time": 63580, "pitch": 76, "duration": 55, "velocity": 100}, {"time": 63635, "pitch": 81, "duration": 165, "velocity": 100}, {"time": 63690, "pitch": 48, "duration": 55, "velocity": 100}, {"time": 63800, "pitch": 36, "duration": 275, "velocity": 100}, {"time": 63800, "pitch": 48, "duration": 220, "velocity": 100}, {"time": 63800, "pitch": 52, "duration": 220, "velocity": 100}, {"time": 63800, "pitch": 79, "duration": 440, "velocity": 100}, {"time": 63910, "pitch": 43, "duration": 220, "velocity": 100}, {"time": 64020, "pitch": 55, "duration": 110, "velocity": 100}, {"time": 64240, "pitch": 36, "duration": 385, "velocity": 100}, {"time": 64240, "pitch": 52, "duration": 220, "velocity": 100}, {"time": 64240, "pitch": 55, "duration": 220, "velocity": 100}, {"time": 64350, "pitch": 43, "duration": 220, "velocity": 100}, {"time": 64460, "pitch": 60, "duration": 110, "velocity": 100}, {"time": 64570, "pitch": 55, "duration": 110, "velocity": 100}, {"time": 64680, "pitch": 43, "duration": 275, "velocity": 100}, {"time": 64680, "pitch": 60, "duration": 220, "velocity": 100}, {"time": 64790, "pitch": 48, "duration": 165, "velocity": 100}, {"time": 64900, "pitch": 52, "duration": 110, "velocity": 100}, {"time": 64900, "pitch": 55, "duration": 110, "velocity": 100}, {"time": 65120, "pitch": 36, "duration": 330, "velocity": 100}, {"time": 65120, "pitch": 52, "duration": 165, "velocity": 100}, {"time": 65120, "pitch": 55, "duration": 165, "velocity": 100}, {"time": 65230, "pitch": 48, "duration": 165, "velocity": 100}, {"time": 65340, "pitch": 60, "duration": 110, "velocity": 100}, {"time": 65450, "pitch": 55, "duration": 55, "velocity": 100}, {"time": 65560, "pitch": 36, "duration": 275, "velocity": 100}, {"time": 65560, "pitch": 60, "duration": 165, "velocity": 100}, {"time": 65670, "pitch": 48, "duration": 165, "velocity": 100}, {"time": 65780, "pitch": 52, "duration": 55, "velocity": 100}, {"time": 65780, "pitch": 55, "duration": 55, "velocity": 100}, {"time": 66000, "pitch": 36, "duration": 330, "velocity": 100}, {"time": 66000, "pitch": 52, "duration": 110, "velocity": 100}, {"time": 66000, "pitch": 55, "duration": 110, "velocity": 100}, {"time": 66110, "pitch": 43, "duration": 220, "velocity": 100}, {"time": 66220, "pitch": 48, "duration": 110, "velocity": 100}, {"time": 66275, "pitch": 52, "duration": 55, "velocity": 100}, {"time": 66330, "pitch": 55, "duration": 55, "velocity": 100}, {"time": 66440, "pitch": 36, "duration": 330, "velocity": 100}, {"time": 66440, "pitch": 48, "duration": 165, "velocity": 100}, {"time": 66440, "pitch": 55, "duration": 165, "velocity": 100}, {"time": 66550, "pitch": 43, "duration": 165, "velocity": 100}, {"time": 66660, "pitch": 52, "duration": 110, "velocity": 100}, {"time": 66660, "pitch": 55, "duration": 110, "velocity": 100}, {"time": 66770, "pitch": 48, "duration": 55, "velocity": 100}, {"time": 66880, "pitch": 39, "duration": 220, "velocity": 100}, {"time": 66880, "pitch": 51, "duration": 110, "velocity": 100}, {"time": 66880, "pitch": 58, "duration": 165, "velocity": 100}, {"time": 66990, "pitch": 46, "duration": 110, "velocity": 100}, {"time": 67100, "pitch": 46, "duration": 55, "velocity": 100}, {"time": 67100, "pitch": 51, "duration": 55, "velocity": 100}, {"time": 67100, "pitch": 58, "duration": 110, "velocity": 100}, {"time": 67210, "pitch": 53, "duration": 55, "velocity": 100}, {"time": 67320, "pitch": 39, "duration": 330, "velocity": 100}, {"time": 67320, "pitch": 51, "duration": 110, "velocity": 100}, {"time": 67320, "pitch": 55, "duration": 440, "velocity": 100}, {"time": 67430, "pitch": 46, "duration": 220, "velocity": 100}, {"time": 67430, "pitch": 80, "duration": 55, "velocity": 100}, {"time": 67485, "pitch": 82, "duration": 55, "velocity": 100}, {"time": 67540, "pitch": 58, "duration": 110, "velocity": 100}, {"time": 67540, "pitch": 79, "duration": 55, "velocity": 100}, {"time": 67595, "pitch": 82, "duration": 55, "velocity": 100}, {"time": 67760, "pitch": 39, "duration": 385, "velocity": 100}, {"time": 67760, "pitch": 51, "duration": 165, "velocity": 100}, {"time": 67760, "pitch": 58, "duration": 220, "velocity": 100}, {"time": 67760, "pitch": 82, "duration": 220, "velocity": 100}, {"time": 67870, "pitch": 51, "duration": 220, "velocity": 100}, {"time": 67980, "pitch": 63, "duration": 110, "velocity": 100}, {"time": 67980, "pitch": 67, "duration": 110, "velocity": 100}, {"time": 68090, "pitch": 58, "duration": 110, "velocity": 100}, {"time": 68090, "pitch": 65, "duration": 110, "velocity": 100}, {"time": 68200, "pitch": 46, "duration": 275, "velocity": 100}, {"time": 68200, "pitch": 63, "duration": 440, "velocity": 100}, {"time": 68310, "pitch": 51, "duration": 165, "velocity": 100}, {"time": 68420, "pitch": 55, "duration": 165, "velocity": 100}, {"time": 68420, "pitch": 58, "duration": 110, "velocity": 100}, {"time": 68640, "pitch": 39, "duration": 275, "velocity": 100}, {"time": 68640, "pitch": 55, "duration": 165, "velocity": 100}, {"time": 68640, "pitch": 58, "duration": 220, "velocity": 100}, {"time": 68640, "pitch": 63, "duration": 220, "velocity": 100}, {"time": 68750, "pitch": 51, "duration": 165, "velocity": 100}, {"time": 68860, "pitch": 58, "duration": 110, "velocity": 100}, {"time": 68860, "pitch": 63, "duration": 110, "velocity": 100}, {"time": 68970, "pitch": 55, "duration": 110, "velocity": 100}, {"time": 68970, "pitch": 58, "duration": 110, "velocity": 100}, {"time": 69080, "pitch": 39, "duration": 275, "velocity": 100}, {"time": 69080, "pitch": 58, "duration": 275, "velocity": 100}, {"time": 69190, "pitch": 51, "duration": 165, "velocity": 100}, {"time": 69300, "pitch": 55, "duration": 55, "velocity": 100}, {"time": 69300, "pitch": 58, "duration": 220, "velocity": 100}, {"time": 69520, "pitch": 39, "duration": 385, "velocity": 100}, {"time": 69520, "pitch": 55, "duration": 220, "velocity": 100}, {"time": 69520, "pitch": 58, "duration": 165, "velocity": 100}, {"time": 69630, "pitch": 46, "duration": 275, "velocity": 100}, {"time": 69630, "pitch": 58, "duration": 110, "velocity": 100}, {"time": 69740, "pitch": 51, "duration": 110, "velocity": 100}, {"time": 69740, "pitch": 58, "duration": 110, "velocity": 100}, {"time": 69795, "pitch": 58, "duration": 55, "velocity": 100}, {"time": 69850, "pitch": 58, "duration": 55, "velocity": 100}, {"time": 69850, "pitch": 67, "duration": 55, "velocity": 100}, {"time": 69905, "pitch": 65, "duration": 55, "velocity": 100}, {"time": 69960, "pitch": 39, "duration": 275, "velocity": 100}, {"time": 69960, "pitch": 51, "duration": 55, "velocity": 100}, {"time": 69960, "pitch": 55, "duration": 220, "velocity": 100}, {"time": 69960, "pitch": 58, "duration": 220, "velocity": 100}, {"time": 69960, "pitch": 63, "duration": 385, "velocity": 100}, {"time": 70070, "pitch": 46, "duration": 165, "velocity": 100}, {"time": 70180, "pitch": 55, "duration": 110, "velocity": 100}, {"time": 70180, "pitch": 58, "duration": 110, "velocity": 100}, {"time": 70290, "pitch": 51, "duration": 55, "velocity": 100}, {"time": 70400, "pitch": 37, "duration": 715, "velocity": 100}, {"time": 70400, "pitch": 51, "duration": 110, "velocity": 100}, {"time": 70400, "pitch": 56, "duration": 220, "velocity": 100}, {"time": 70400, "pitch": 75, "duration": 220, "velocity": 100}, {"time": 70510, "pitch": 44, "duration": 605, "velocity": 100}, {"time": 70510, "pitch": 51, "duration": 110, "velocity": 100}, {"time": 70620, "pitch": 52, "duration": 220, "velocity": 100}, {"time": 70620, "pitch": 61, "duration": 220, "velocity": 100}, {"time": 70620, "pitch": 78, "duration": 220, "velocity": 100}, {"time": 70730, "pitch": 49, "duration": 110, "velocity": 100}, {"time": 70840, "pitch": 61, "duration": 110, "velocity": 100}, {"time": 70840, "pitch": 75, "duration": 110, "velocity": 100}, {"time": 70950, "pitch": 52, "duration": 55, "velocity": 100}, {"time": 70950, "pitch": 68, "duration": 110, "velocity": 100}, {"time": 71060, "pitch": 52, "duration": 55, "velocity": 100}, {"time": 71060, "pitch": 56, "duration": 110, "velocity": 100}, {"time": 71060, "pitch": 75, "duration": 110, "velocity": 100}, {"time": 71170, "pitch": 52, "duration": 55, "velocity": 100}, {"time": 71170, "pitch": 66, "duration": 55, "velocity": 100}, {"time": 71280, "pitch": 37, "duration": 715, "velocity": 100}, {"time": 71280, "pitch": 49, "duration": 220, "velocity": 100}, {"time": 71280, "pitch": 52, "duration": 220, "velocity": 100}, {"time": 71280, "pitch": 76, "duration": 220, "velocity": 100}, {"time": 71390, "pitch": 44, "duration": 605, "velocity": 100}, {"time": 71500, "pitch": 56, "duration": 110, "velocity": 100}, {"time": 71500, "pitch": 73, "duration": 110, "velocity": 100}, {"time": 71610, "pitch": 52, "duration": 55, "velocity": 100}, {"time": 71610, "pitch": 68, "duration": 110, "velocity": 100}, {"time": 71720, "pitch": 52, "duration": 55, "velocity": 100}, {"time": 71720, "pitch": 56, "duration": 110, "velocity": 100}, {"time": 71720, "pitch": 76, "duration": 110, "velocity": 100}, {"time": 71830, "pitch": 52, "duration": 55, "velocity": 100}, {"time": 71830, "pitch": 64, "duration": 110, "velocity": 100}, {"time": 71940, "pitch": 52, "duration": 55, "velocity": 100}, {"time": 71940, "pitch": 56, "duration": 110, "velocity": 100}, {"time": 71940, "pitch": 59, "duration": 110, "velocity": 100}, {"time": 71940, "pitch": 73, "duration": 165, "velocity": 100}, {"time": 72050, "pitch": 49, "duration": 55, "velocity": 100}, {"time": 72160, "pitch": 37, "duration": 715, "velocity": 100}, {"time": 72160, "pitch": 56, "duration": 330, "velocity": 100}, {"time": 72160, "pitch": 76, "duration": 55, "velocity": 100}, {"time": 72270, "pitch": 44, "duration": 605, "velocity": 100}, {"time": 72380, "pitch": 52, "duration": 165, "velocity": 100}, {"time": 72380, "pitch": 76, "duration": 110, "velocity": 100}, {"time": 72490, "pitch": 49, "duration": 55, "velocity": 100}, {"time": 72490, "pitch": 68, "duration": 55, "velocity": 100}, {"time": 72600, "pitch": 52, "duration": 55, "velocity": 100}, {"time": 72600, "pitch": 56, "duration": 110, "velocity": 100}, {"time": 72600, "pitch": 76, "duration": 110, "velocity": 100}, {"time": 72710, "pitch": 49, "duration": 110, "velocity": 100}, {"time": 72710, "pitch": 68, "duration": 110, "velocity": 100}, {"time": 72820, "pitch": 52, "duration": 55, "velocity": 100}, {"time": 72820, "pitch": 56, "duration": 55, "velocity": 100}, {"time": 72820, "pitch": 73, "duration": 55, "velocity": 100}, {"time": 72930, "pitch": 49, "duration": 55, "velocity": 100}, {"time": 73040, "pitch": 37, "duration": 385, "velocity": 100}, {"time": 73040, "pitch": 49, "duration": 55, "velocity": 100}, {"time": 73040, "pitch": 56, "duration": 165, "velocity": 100}, {"time": 73040, "pitch": 73, "duration": 110, "velocity": 100}, {"time": 73150, "pitch": 49, "duration": 110, "velocity": 100}, {"time": 73260, "pitch": 56, "duration": 220, "velocity": 100}, {"time": 73260, "pitch": 73, "duration": 110, "velocity": 100}, {"time": 73370, "pitch": 52, "duration": 110, "velocity": 100}, {"time": 73370, "pitch": 68, "duration": 55, "velocity": 100}, {"time": 73480, "pitch": 56, "duration": 110, "velocity": 100}, {"time": 73480, "pitch": 73, "duration": 110, "velocity": 100}, {"time": 73590, "pitch": 49, "duration": 110, "velocity": 100}, {"time": 73590, "pitch": 68, "duration": 110, "velocity": 100}, {"time": 73700, "pitch": 49, "duration": 55, "velocity": 100}, {"time": 73700, "pitch": 52, "duration": 110, "velocity": 100}, {"time": 73700, "pitch": 56, "duration": 110, "velocity": 100}, {"time": 73700, "pitch": 71, "duration": 110, "velocity": 100}, {"time": 73810, "pitch": 49, "duration": 55, "velocity": 100}, {"time": 73920, "pitch": 37, "duration": 825, "velocity": 100}, {"time": 73920, "pitch": 49, "duration": 220, "velocity": 100}, {"time": 73920, "pitch": 52, "duration": 220, "velocity": 100}, {"time": 73920, "pitch": 76, "duration": 220, "velocity": 100}, {"time": 74030, "pitch": 44, "duration": 605, "velocity": 100}, {"time": 74140, "pitch": 56, "duration": 220, "velocity": 100}, {"time": 74140, "pitch": 75, "duration": 110, "velocity": 100}, {"time": 74250, "pitch": 49, "duration": 110, "velocity": 100}, {"time": 74250, "pitch": 64, "duration": 110, "velocity": 100}, {"time": 74360, "pitch": 52, "duration": 110, "velocity": 100}, {"time": 74360, "pitch": 61, "duration": 220, "velocity": 100}, {"time": 74360, "pitch": 75, "duration": 110, "velocity": 100}, {"time": 74470, "pitch": 49, "duration": 110, "velocity": 100}, {"time": 74470, "pitch": 68, "duration": 110, "velocity": 100}, {"time": 74580, "pitch": 52, "duration": 110, "velocity": 100}, {"time": 74580, "pitch": 75, "duration": 110, "velocity": 100}, {"time": 74690, "pitch": 49, "duration": 110, "velocity": 100}, {"time": 74690, "pitch": 68, "duration": 110, "velocity": 100}, {"time": 74800, "pitch": 37, "duration": 825, "velocity": 100}, {"time": 74800, "pitch": 49, "duration": 220, "velocity": 100}, {"time": 74800, "pitch": 56, "duration": 440, "velocity": 100}, {"time": 74800, "pitch": 76, "duration": 220, "velocity": 100}, {"time": 74910, "pitch": 44, "duration": 770, "velocity": 100}, {"time": 75020, "pitch": 49, "duration": 110, "velocity": 100}, {"time": 75020, "pitch": 75, "duration": 110, "velocity": 100}, {"time": 75130, "pitch": 52, "duration": 110, "velocity": 100}, {"time": 75130, "pitch": 66, "duration": 55, "velocity": 100}, {"time": 75240, "pitch": 52, "duration": 165, "velocity": 100}, {"time": 75240, "pitch": 61, "duration": 220, "velocity": 100}, {"time": 75240, "pitch": 76, "duration": 110, "velocity": 100}, {"time": 75350, "pitch": 66, "duration": 110, "velocity": 100}, {"time": 75460, "pitch": 49, "duration": 55, "velocity": 100}, {"time": 75460, "pitch": 52, "duration": 55, "velocity": 100}, {"time": 75460, "pitch": 56, "duration": 55, "velocity": 100}, {"time": 75460, "pitch": 80, "duration": 55, "velocity": 100}, {"time": 75570, "pitch": 49, "duration": 55, "velocity": 100}, {"time": 75680, "pitch": 37, "duration": 880, "velocity": 100}, {"time": 75680, "pitch": 49, "duration": 165, "velocity": 100}, {"time": 75680, "pitch": 56, "duration": 165, "velocity": 100}, {"time": 75680, "pitch": 80, "duration": 110, "velocity": 100}, {"time": 75790, "pitch": 44, "duration": 165, "velocity": 100}, {"time": 75790, "pitch": 73, "duration": 110, "velocity": 100}, {"time": 75900, "pitch": 49, "duration": 165, "velocity": 100}, {"time": 75900, "pitch": 56, "duration": 110, "velocity": 100}, {"time": 75900, "pitch": 80, "duration": 110, "velocity": 100}, {"time": 76010, "pitch": 44, "duration": 165, "velocity": 100}, {"time": 76010, "pitch": 73, "duration": 110, "velocity": 100}, {"time": 76120, "pitch": 49, "duration": 165, "velocity": 100}, {"time": 76120, "pitch": 56, "duration": 165, "velocity": 100}, {"time": 76120, "pitch": 80, "duration": 110, "velocity": 100}, {"time": 76230, "pitch": 44, "duration": 275, "velocity": 100}, {"time": 76230, "pitch": 73, "duration": 110, "velocity": 100}, {"time": 76340, "pitch": 49, "duration": 55, "velocity": 100}, {"time": 76340, "pitch": 52, "duration": 110, "velocity": 100}, {"time": 76340, "pitch": 80, "duration": 165, "velocity": 100}, {"time": 76450, "pitch": 49, "duration": 55, "velocity": 100}, {"time": 76560, "pitch": 37, "duration": 385, "velocity": 100}, {"time": 76560, "pitch": 49, "duration": 110, "velocity": 100}, {"time": 76560, "pitch": 52, "duration": 220, "velocity": 100}, {"time": 76560, "pitch": 80, "duration": 110, "velocity": 100}, {"time": 76670, "pitch": 49, "duration": 110, "velocity": 100}, {"time": 76670, "pitch": 73, "duration": 110, "velocity": 100}, {"time": 76780, "pitch": 56, "duration": 165, "velocity": 100}, {"time": 76780, "pitch": 76, "duration": 110, "velocity": 100}, {"time": 76890, "pitch": 49, "duration": 110, "velocity": 100}, {"time": 76890, "pitch": 73, "duration": 110, "velocity": 100}, {"time": 77000, "pitch": 37, "duration": 330, "velocity": 100}, {"time": 77000, "pitch": 52, "duration": 110, "velocity": 100}, {"time": 77000, "pitch": 80, "duration": 110, "velocity": 100}, {"time": 77110, "pitch": 49, "duration": 55, "velocity": 100}, {"time": 77110, "pitch": 73, "duration": 110, "velocity": 100}, {"time": 77220, "pitch": 49, "duration": 55, "velocity": 100}, {"time": 77220, "pitch": 52, "duration": 110, "velocity": 100}, {"time": 77220, "pitch": 56, "duration": 110, "velocity": 100}, {"time": 77220, "pitch": 80, "duration": 165, "velocity": 100}, {"time": 77330, "pitch": 49, "duration": 55, "velocity": 100}, {"time": 77440, "pitch": 37, "duration": 715, "velocity": 100}, {"time": 77440, "pitch": 52, "duration": 110, "velocity": 100}, {"time": 77440, "pitch": 56, "duration": 110, "velocity": 100}, {"time": 77440, "pitch": 76, "duration": 165, "velocity": 100}, {"time": 77550, "pitch": 44, "duration": 495, "velocity": 100}, {"time": 77550, "pitch": 52, "duration": 110, "velocity": 100}, {"time": 77660, "pitch": 52, "duration": 165, "velocity": 100}, {"time": 77660, "pitch": 73, "duration": 165, "velocity": 100}, {"time": 77770, "pitch": 49, "duration": 110, "velocity": 100}, {"time": 77880, "pitch": 61, "duration": 110, "velocity": 100}, {"time": 77880, "pitch": 76, "duration": 110, "velocity": 100}, {"time": 77990, "pitch": 52, "duration": 55, "velocity": 100}, {"time": 77990, "pitch": 68, "duration": 110, "velocity": 100}, {"time": 78100, "pitch": 52, "duration": 55, "velocity": 100}, {"time": 78100, "pitch": 56, "duration": 110, "velocity": 100}, {"time": 78100, "pitch": 75, "duration": 110, "velocity": 100}, {"time": 78210, "pitch": 52, "duration": 55, "velocity": 100}, {"time": 78210, "pitch": 66, "duration": 55, "velocity": 100}, {"time": 78320, "pitch": 37, "duration": 715, "velocity": 100}, {"time": 78320, "pitch": 49, "duration": 220, "velocity": 100}, {"time": 78320, "pitch": 52, "duration": 220, "velocity": 100}, {"time": 78320, "pitch": 76, "duration": 110, "velocity": 100}, {"time": 78430, "pitch": 44, "duration": 605, "velocity": 100}, {"time": 78540, "pitch": 56, "duration": 110, "velocity": 100}, {"time": 78540, "pitch": 73, "duration": 110, "velocity": 100}, {"time": 78650, "pitch": 52, "duration": 55, "velocity": 100}, {"time": 78650, "pitch": 68, "duration": 110, "velocity": 100}, {"time": 78760, "pitch": 52, "duration": 55, "velocity": 100}, {"time": 78760, "pitch": 56, "duration": 110, "velocity": 100}, {"time": 78760, "pitch": 76, "duration": 110, "velocity": 100}, {"time": 78870, "pitch": 52, "duration": 55, "velocity": 100}, {"time": 78870, "pitch": 64, "duration": 110, "velocity": 100}, {"time": 78980, "pitch": 52, "duration": 110, "velocity": 100}, {"time": 78980, "pitch": 56, "duration": 110, "velocity": 100}, {"time": 78980, "pitch": 59, "duration": 110, "velocity": 100}, {"time": 78980, "pitch": 73, "duration": 165, "velocity": 100}, {"time": 79090, "pitch": 49, "duration": 55, "velocity": 100}, {"time": 79200, "pitch": 37, "duration": 715, "velocity": 100}, {"time": 79200, "pitch": 56, "duration": 330, "velocity": 100}, {"time": 79200, "pitch": 76, "duration": 55, "velocity": 100}, {"time": 79310, "pitch": 44, "duration": 605, "velocity": 100}, {"time": 79420, "pitch": 52, "duration": 165, "velocity": 100}, {"time": 79420, "pitch": 76, "duration": 110, "velocity": 100}, {"time": 79530, "pitch": 49, "duration": 55, "velocity": 100}, {"time": 79530, "pitch": 68, "duration": 55, "velocity": 100}, {"time": 79640, "pitch": 52, "duration": 55, "velocity": 100}, {"time": 79640, "pitch": 56, "duration": 110, "velocity": 100}, {"time": 79640, "pitch": 76, "duration": 110, "velocity": 100}, {"time": 79750, "pitch": 49, "duration": 110, "velocity": 100}, {"time": 79750, "pitch": 68, "duration": 110, "velocity": 100}, {"time": 79860, "pitch": 52, "duration": 55, "velocity": 100}, {"time": 79860, "pitch": 56, "duration": 55, "velocity": 100}, {"time": 79860, "pitch": 73, "duration": 55, "velocity": 100}, {"time": 79970, "pitch": 49, "duration": 55, "velocity": 100}, {"time": 80080, "pitch": 37, "duration": 385, "velocity": 100}, {"time": 80080, "pitch": 49, "duration": 55, "velocity": 100}, {"time": 80080, "pitch": 56, "duration": 165, "velocity": 100}, {"time": 80080, "pitch": 73, "duration": 110, "velocity": 100}, {"time": 80190, "pitch": 49, "duration": 110, "velocity": 100}, {"time": 80300, "pitch": 56, "duration": 220, "velocity": 100}, {"time": 80300, "pitch": 73, "duration": 110, "velocity": 100}, {"time": 80410, "pitch": 52, "duration": 110, "velocity": 100}, {"time": 80410, "pitch": 68, "duration": 55, "velocity": 100}, {"time": 80520, "pitch": 56, "duration": 110, "velocity": 100}, {"time": 80520, "pitch": 73, "duration": 110, "velocity": 100}, {"time": 80630, "pitch": 49, "duration": 110, "velocity": 100}, {"time": 80630, "pitch": 68, "duration": 110, "velocity": 100}, {"time": 80740, "pitch": 49, "duration": 55, "velocity": 100}, {"time": 80740, "pitch": 52, "duration": 110, "velocity": 100}, {"time": 80740, "pitch": 56, "duration": 110, "velocity": 100}, {"time": 80740, "pitch": 71, "duration": 110, "velocity": 100}, {"time": 80850, "pitch": 49, "duration": 55, "velocity": 100}, {"time": 80960, "pitch": 49, "duration": 165, "velocity": 100}, {"time": 80960, "pitch": 56, "duration": 110, "velocity": 100}, {"time": 80960, "pitch": 64, "duration": 110, "velocity": 100}, {"time": 81070, "pitch": 49, "duration": 110, "velocity": 100}, {"time": 81070, "pitch": 80, "duration": 55, "velocity": 100}, {"time": 81125, "pitch": 83, "duration": 55, "velocity": 100}, {"time": 81180, "pitch": 52, "duration": 55, "velocity": 100}, {"time": 81180, "pitch": 56, "duration": 55, "velocity": 100}, {"time": 81180, "pitch": 60, "duration": 110, "velocity": 100}, {"time": 81180, "pitch": 83, "duration": 55, "velocity": 100}, {"time": 81235, "pitch": 85, "duration": 55, "velocity": 100}, {"time": 81290, "pitch": 56, "duration": 55, "velocity": 100}, {"time": 81400, "pitch": 40, "duration": 330, "velocity": 100}, {"time": 81400, "pitch": 52, "duration": 220, "velocity": 100}, {"time": 81400, "pitch": 56, "duration": 220, "velocity": 100}, {"time": 81400, "pitch": 84, "duration": 440, "velocity": 100}, {"time": 81510, "pitch": 48, "duration": 220, "velocity": 100}, {"time": 81620, "pitch": 60, "duration": 110, "velocity": 100}, {"time": 81840, "pitch": 48, "duration": 385, "velocity": 100}, {"time": 81840, "pitch": 60, "duration": 220, "velocity": 100}, {"time": 81950, "pitch": 52, "duration": 220, "velocity": 100}, {"time": 82060, "pitch": 64, "duration": 110, "velocity": 100}, {"time": 82170, "pitch": 60, "duration": 110, "velocity": 100}, {"time": 82280, "pitch": 48, "duration": 275, "velocity": 100}, {"time": 82280, "pitch": 64, "duration": 220, "velocity": 100}, {"time": 82390, "pitch": 52, "duration": 165, "velocity": 100}, {"time": 82500, "pitch": 60, "duration": 55, "velocity": 100}, {"time": 82500, "pitch": 64, "duration": 110, "velocity": 100}, {"time": 82720, "pitch": 44, "duration": 330, "velocity": 100}, {"time": 82720, "pitch": 56, "duration": 220, "velocity": 100}, {"time": 82720, "pitch": 60, "duration": 220, "velocity": 100}, {"time": 82830, "pitch": 52, "duration": 165, "velocity": 100}, {"time": 82940, "pitch": 64, "duration": 110, "velocity": 100}, {"time": 83050, "pitch": 60, "duration": 55, "velocity": 100}, {"time": 83160, "pitch": 48, "duration": 275, "velocity": 100}, {"time": 83160, "pitch": 64, "duration": 165, "velocity": 100}, {"time": 83270, "pitch": 55, "duration": 165, "velocity": 100}, {"time": 83380, "pitch": 60, "duration": 55, "velocity": 100}, {"time": 83380, "pitch": 64, "duration": 55, "velocity": 100}, {"time": 83600, "pitch": 40, "duration": 330, "velocity": 100}, {"time": 83600, "pitch": 60, "duration": 220, "velocity": 100}, {"time": 83710, "pitch": 48, "duration": 220, "velocity": 100}, {"time": 83820, "pitch": 56, "duration": 110, "velocity": 100}, {"time": 83875, "pitch": 59, "duration": 55, "velocity": 100}, {"time": 83930, "pitch": 60, "duration": 55, "velocity": 100}, {"time": 84040, "pitch": 40, "duration": 275, "velocity": 100}, {"time": 84040, "pitch": 56, "duration": 165, "velocity": 100}, {"time": 84040, "pitch": 60, "duration": 110, "velocity": 100}, {"time": 84040, "pitch": 64, "duration": 110, "velocity": 100}, {"time": 84150, "pitch": 52, "duration": 165, "velocity": 100}, {"time": 84260, "pitch": 60, "duration": 110, "velocity": 100}, {"time": 84260, "pitch": 64, "duration": 110, "velocity": 100}, {"time": 84370, "pitch": 56, "duration": 55, "velocity": 100}, {"time": 84480, "pitch": 44, "duration": 220, "velocity": 100}, {"time": 84480, "pitch": 56, "duration": 110, "velocity": 100}, {"time": 84480, "pitch": 64, "duration": 110, "velocity": 100}, {"time": 84590, "pitch": 51, "duration": 110, "velocity": 100}, {"time": 84700, "pitch": 48, "duration": 55, "velocity": 100}, {"time": 84700, "pitch": 54, "duration": 55, "velocity": 100}, {"time": 84700, "pitch": 60, "duration": 110, "velocity": 100}, {"time": 84810, "pitch": 54, "duration": 55, "velocity": 100}, {"time": 84920, "pitch": 40, "duration": 330, "velocity": 100}, {"time": 84920, "pitch": 52, "duration": 110, "velocity": 100}, {"time": 84920, "pitch": 56, "duration": 220, "velocity": 100}, {"time": 85030, "pitch": 48, "duration": 220, "velocity": 100}, {"time": 85030, "pitch": 80, "duration": 55, "velocity": 100}, {"time": 85085, "pitch": 85, "duration": 55, "velocity": 100}, {"time": 85140, "pitch": 60, "duration": 110, "velocity": 100}, {"time": 85140, "pitch": 80, "duration": 55, "velocity": 100}, {"time": 85195, "pitch": 80, "duration": 55, "velocity": 100}, {"time": 85360, "pitch": 48, "duration": 275, "velocity": 100}, {"time": 85360, "pitch": 56, "duration": 220, "velocity": 100}, {"time": 85360, "pitch": 60, "duration": 220, "velocity": 100}, {"time": 85360, "pitch": 84, "duration": 440, "velocity": 100}, {"time": 85470, "pitch": 52, "duration": 220, "velocity": 100}, {"time": 85580, "pitch": 64, "duration": 110, "velocity": 100}, {"time": 85580, "pitch": 68, "duration": 110, "velocity": 100}, {"time": 85690, "pitch": 60, "duration": 110, "velocity": 100}, {"time": 85690, "pitch": 66, "duration": 110, "velocity": 100}, {"time": 85800, "pitch": 48, "duration": 275, "velocity": 100}, {"time": 85800, "pitch": 64, "duration": 440, "velocity": 100}, {"time": 85910, "pitch": 52, "duration": 165, "velocity": 100}, {"time": 86020, "pitch": 56, "duration": 55, "velocity": 100}, {"time": 86020, "pitch": 60, "duration": 165, "velocity": 100}, {"time": 86240, "pitch": 44, "duration": 275, "velocity": 100}, {"time": 86240, "pitch": 56, "duration": 220, "velocity": 100}, {"time": 86240, "pitch": 60, "duration": 220, "velocity": 100}, {"time": 86240, "pitch": 64, "duration": 220, "velocity": 100}, {"time": 86350, "pitch": 52, "duration": 165, "velocity": 100}, {"time": 86460, "pitch": 60, "duration": 110, "velocity": 100}, {"time": 86460, "pitch": 64, "duration": 110, "velocity": 100}, {"time": 86570, "pitch": 56, "duration": 110, "velocity": 100}, {"time": 86570, "pitch": 60, "duration": 55, "velocity": 100}, {"time": 86680, "pitch": 48, "duration": 275, "velocity": 100}, {"time": 86680, "pitch": 60, "duration": 275, "velocity": 100}, {"time": 86790, "pitch": 52, "duration": 165, "velocity": 100}, {"time": 86900, "pitch": 60, "duration": 220, "velocity": 100}, {"time": 87120, "pitch": 40, "duration": 330, "velocity": 100}, {"time": 87120, "pitch": 56, "duration": 220, "velocity": 100}, {"time": 87120, "pitch": 60, "duration": 220, "velocity": 100}, {"time": 87230, "pitch": 48, "duration": 275, "velocity": 100}, {"time": 87230, "pitch": 59, "duration": 55, "velocity": 100}, {"time": 87340, "pitch": 52, "duration": 110, "velocity": 100}, {"time": 87340, "pitch": 60, "duration": 110, "velocity": 100}, {"time": 87395, "pitch": 64, "duration": 55, "velocity": 100}, {"time": 87450, "pitch": 60, "duration": 55, "velocity": 100}, {"time": 87450, "pitch": 68, "duration": 55, "velocity": 100}, {"time": 87505, "pitch": 68, "duration": 55, "velocity": 100}, {"time": 87560, "pitch": 40, "duration": 275, "velocity": 100}, {"time": 87560, "pitch": 56, "duration": 165, "velocity": 100}, {"time": 87560, "pitch": 60, "duration": 220, "velocity": 100}, {"time": 87560, "pitch": 64, "duration": 330, "velocity": 100}, {"time": 87670, "pitch": 48, "duration": 165, "velocity": 100}, {"time": 87780, "pitch": 56, "duration": 110, "velocity": 100}, {"time": 87780, "pitch": 64, "duration": 220, "velocity": 100}, {"time": 87890, "pitch": 56, "duration": 55, "velocity": 100}, {"time": 88000, "pitch": 36, "duration": 330, "velocity": 100}, {"time": 88000, "pitch": 52, "duration": 165, "velocity": 100}, {"time": 88000, "pitch": 55, "duration": 165, "velocity": 100}, {"time": 88000, "pitch": 60, "duration": 165, "velocity": 100}, {"time": 88000, "pitch": 76, "duration": 220, "velocity": 100}, {"time": 88110, "pitch": 48, "duration": 110, "velocity": 100}, {"time": 88220, "pitch": 55, "duration": 110, "velocity": 100}, {"time": 88220, "pitch": 60, "duration": 110, "velocity": 100}, {"time": 88440, "pitch": 36, "duration": 275, "velocity": 100}, {"time": 88440, "pitch": 55, "duration": 110, "velocity": 100}, {"time": 88440, "pitch": 60, "duration": 110, "velocity": 100}, {"time": 88550, "pitch": 48, "duration": 110, "velocity": 100}, {"time": 88660, "pitch": 55, "duration": 110, "velocity": 100}, {"time": 88660, "pitch": 60, "duration": 110, "velocity": 100}, {"time": 88770, "pitch": 52, "duration": 55, "velocity": 100}, {"time": 88880, "pitch": 36, "duration": 275, "velocity": 100}, {"time": 88880, "pitch": 48, "duration": 165, "velocity": 100}, {"time": 88880, "pitch": 52, "duration": 110, "velocity": 100}, {"time": 88990, "pitch": 43, "duration": 110, "velocity": 100}, {"time": 89100, "pitch": 52, "duration": 110, "velocity": 100}, {"time": 89100, "pitch": 55, "duration": 110, "velocity": 100}, {"time": 89210, "pitch": 48, "duration": 55, "velocity": 100}, {"time": 89320, "pitch": 36, "duration": 275, "velocity": 100}, {"time": 89320, "pitch": 55, "duration": 110, "velocity": 100}, {"time": 89320, "pitch": 60, "duration": 55, "velocity": 100}, {"time": 89430, "pitch": 48, "duration": 110, "velocity": 100}, {"time": 89540, "pitch": 55, "duration": 110, "velocity": 100}, {"time": 89540, "pitch": 60, "duration": 110, "velocity": 100}, {"time": 89650, "pitch": 43, "duration": 55, "velocity": 100}, {"time": 89760, "pitch": 36, "duration": 385, "velocity": 100}, {"time": 89760, "pitch": 55, "duration": 165, "velocity": 100}, {"time": 89760, "pitch": 60, "duration": 165, "velocity": 100}, {"time": 89870, "pitch": 48, "duration": 165, "velocity": 100}, {"time": 89980, "pitch": 55, "duration": 110, "velocity": 100}, {"time": 89980, "pitch": 60, "duration": 110, "velocity": 100}, {"time": 90090, "pitch": 52, "duration": 110, "velocity": 100}, {"time": 90200, "pitch": 36, "duration": 275, "velocity": 100}, {"time": 90200, "pitch": 55, "duration": 110, "velocity": 100}, {"time": 90200, "pitch": 60, "duration": 110, "velocity": 100}, {"time": 90310, "pitch": 52, "duration": 55, "velocity": 100}, {"time": 90420, "pitch": 52, "duration": 110, "velocity": 100}, {"time": 90420, "pitch": 55, "duration": 110, "velocity": 100}, {"time": 90420, "pitch": 60, "duration": 110, "velocity": 100}, {"time": 90530, "pitch": 36, "duration": 55, "velocity": 100}, {"time": 90640, "pitch": 48, "duration": 440, "velocity": 100}, {"time": 90640, "pitch": 55, "duration": 55, "velocity": 100}, {"time": 90640, "pitch": 60, "duration": 165, "velocity": 100}, {"time": 90640, "pitch": 64, "duration": 110, "velocity": 100}, {"time": 90750, "pitch": 55, "duration": 55, "velocity": 100}, {"time": 90860, "pitch": 52, "duration": 55, "velocity": 100}, {"time": 90860, "pitch": 55, "duration": 110, "velocity": 100}, {"time": 90860, "pitch": 60, "duration": 110, "velocity": 100}, {"time": 90970, "pitch": 55, "duration": 55, "velocity": 100}, {"time": 91080, "pitch": 48, "duration": 385, "velocity": 100}, {"time": 91080, "pitch": 55, "duration": 55, "velocity": 100}, {"time": 91080, "pitch": 60, "duration": 110, "velocity": 100}, {"time": 91080, "pitch": 64, "duration": 110, "velocity": 100}, {"time": 91190, "pitch": 52, "duration": 55, "velocity": 100}, {"time": 91245, "pitch": 55, "duration": 55, "velocity": 100}, {"time": 91245, "pitch": 60, "duration": 55, "velocity": 100}, {"time": 91300, "pitch": 55, "duration": 55, "velocity": 100}, {"time": 91300, "pitch": 60, "duration": 55, "velocity": 100}, {"time": 91300, "pitch": 64, "duration": 55, "velocity": 100}, {"time": 91410, "pitch": 55, "duration": 55, "velocity": 100}, {"time": 91410, "pitch": 60, "duration": 55, "velocity": 100}, {"time": 91520, "pitch": 36, "duration": 275, "velocity": 100}, {"time": 91520, "pitch": 48, "duration": 165, "velocity": 100}, {"time": 91520, "pitch": 52, "duration": 110, "velocity": 100}, {"time": 91520, "pitch": 55, "duration": 110, "velocity": 100}, {"time": 91630, "pitch": 43, "duration": 110, "velocity": 100}, {"time": 91740, "pitch": 48, "duration": 55, "velocity": 100}, {"time": 91740, "pitch": 51, "duration": 55, "velocity": 100}, {"time": 91740, "pitch": 55, "duration": 110, "velocity": 100}, {"time": 91850, "pitch": 48, "duration": 55, "velocity": 100}, {"time": 91960, "pitch": 39, "duration": 275, "velocity": 100}, {"time": 91960, "pitch": 51, "duration": 110, "velocity": 100}, {"time": 91960, "pitch": 55, "duration": 110, "velocity": 100}, {"time": 91960, "pitch": 58, "duration": 110, "velocity": 100}, {"time": 92070, "pitch": 46, "duration": 110, "velocity": 100}, {"time": 92180, "pitch": 51, "duration": 110, "velocity": 100}, {"time": 92180, "pitch": 55, "duration": 110, "velocity": 100}, {"time": 92290, "pitch": 46, "duration": 55, "velocity": 100}, {"time": 92400, "pitch": 39, "duration": 275, "velocity": 100}, {"time": 92400, "pitch": 51, "duration": 110, "velocity": 100}, {"time": 92400, "pitch": 55, "duration": 110, "velocity": 100}, {"time": 92510, "pitch": 46, "duration": 110, "velocity": 100}, {"time": 92620, "pitch": 51, "duration": 55, "velocity": 100}, {"time": 92620, "pitch": 55, "duration": 110, "velocity": 100}, {"time": 92620, "pitch": 58, "duration": 165, "velocity": 100}, {"time": 92730, "pitch": 51, "duration": 55, "velocity": 100}, {"time": 92840, "pitch": 39, "duration": 275, "velocity": 100}, {"time": 92840, "pitch": 51, "duration": 165, "velocity": 100}, {"time": 92840, "pitch": 55, "duration": 165, "velocity": 100}, {"time": 92950, "pitch": 46, "duration": 165, "velocity": 100}, {"time": 93060, "pitch": 51, "duration": 110, "velocity": 100}, {"time": 93060, "pitch": 55, "duration": 110, "velocity": 100}, {"time": 93060, "pitch": 58, "duration": 110, "velocity": 100}, {"time": 93170, "pitch": 39, "duration": 55, "velocity": 100}, {"time": 93280, "pitch": 39, "duration": 275, "velocity": 100}, {"time": 93280, "pitch": 51, "duration": 110, "velocity": 100}, {"time": 93280, "pitch": 55, "duration": 110, "velocity": 100}, {"time": 93390, "pitch": 46, "duration": 110, "velocity": 100}, {"time": 93500, "pitch": 51, "duration": 55, "velocity": 100}, {"time": 93500, "pitch": 55, "duration": 55, "velocity": 100}, {"time": 93610, "pitch": 39, "duration": 55, "velocity": 100}, {"time": 93720, "pitch": 39, "duration": 275, "velocity": 100}, {"time": 93720, "pitch": 51, "duration": 110, "velocity": 100}, {"time": 93720, "pitch": 55, "duration": 110, "velocity": 100}, {"time": 93720, "pitch": 58, "duration": 165, "velocity": 100}, {"time": 93830, "pitch": 46, "duration": 165, "velocity": 100}, {"time": 93940, "pitch": 51, "duration": 55, "velocity": 100}, {"time": 93940, "pitch": 55, "duration": 55, "velocity": 100}, {"time": 93940, "pitch": 58, "duration": 55, "velocity": 100}, {"time": 94050, "pitch": 39, "duration": 55, "velocity": 100}, {"time": 94160, "pitch": 39, "duration": 275, "velocity": 100}, {"time": 94160, "pitch": 51, "duration": 55, "velocity": 100}, {"time": 94160, "pitch": 55, "duration": 110, "velocity": 100}, {"time": 94160, "pitch": 58, "duration": 165, "velocity": 100}, {"time": 94270, "pitch": 51, "duration": 55, "velocity": 100}, {"time": 94380, "pitch": 51, "duration": 55, "velocity": 100}, {"time": 94380, "pitch": 55, "duration": 110, "velocity": 100}, {"time": 94380, "pitch": 58, "duration": 110, "velocity": 100}, {"time": 94490, "pitch": 46, "duration": 55, "velocity": 100}, {"time": 94490, "pitch": 67, "duration": 55, "velocity": 100}, {"time": 94545, "pitch": 51, "duration": 55, "velocity": 100}, {"time": 94545, "pitch": 55, "duration": 55, "velocity": 100}, {"time": 94545, "pitch": 67, "duration": 55, "velocity": 100}, {"time": 94600, "pitch": 39, "duration": 275, "velocity": 100}, {"time": 94600, "pitch": 51, "duration": 55, "velocity": 100}, {"time": 94600, "pitch": 55, "duration": 165, "velocity": 100}, {"time": 94600, "pitch": 67, "duration": 55, "velocity": 100}, {"time": 94655, "pitch": 70, "duration": 55, "velocity": 100}, {"time": 94710, "pitch": 51, "duration": 55, "velocity": 100}, {"time": 94710, "pitch": 67, "duration": 110, "velocity": 100}, {"time": 94820, "pitch": 51, "duration": 55, "velocity": 100}, {"time": 94820, "pitch": 55, "duration": 55, "velocity": 100}, {"time": 94820, "pitch": 58, "duration": 55, "velocity": 100}, {"time": 94875, "pitch": 46, "duration": 165, "velocity": 100}, {"time": 94930, "pitch": 51, "duration": 110, "velocity": 100}, {"time": 94930, "pitch": 70, "duration": 55, "velocity": 100}, {"time": 94985, "pitch": 55, "duration": 55, "velocity": 100}, {"time": 94985, "pitch": 67, "duration": 55, "velocity": 100}, {"time": 95040, "pitch": 36, "duration": 330, "velocity": 100}, {"time": 95040, "pitch": 52, "duration": 165, "velocity": 100}, {"time": 95040, "pitch": 55, "duration": 165, "velocity": 100}, {"time": 95040, "pitch": 60, "duration": 165, "velocity": 100}, {"time": 95150, "pitch": 48, "duration": 110, "velocity": 100}, {"time": 95260, "pitch": 55, "duration": 110, "velocity": 100}, {"time": 95260, "pitch": 60, "duration": 110, "velocity": 100}, {"time": 95480, "pitch": 36, "duration": 275, "velocity": 100}, {"time": 95480, "pitch": 55, "duration": 110, "velocity": 100}, {"time": 95480, "pitch": 60, "duration": 110, "velocity": 100}, {"time": 95590, "pitch": 48, "duration": 110, "velocity": 100}, {"time": 95700, "pitch": 55, "duration": 110, "velocity": 100}, {"time": 95700, "pitch": 60, "duration": 110, "velocity": 100}, {"time": 95810, "pitch": 52, "duration": 55, "velocity": 100}, {"time": 95920, "pitch": 36, "duration": 275, "velocity": 100}, {"time": 95920, "pitch": 48, "duration": 165, "velocity": 100}, {"time": 95920, "pitch": 52, "duration": 110, "velocity": 100}, {"time": 96030, "pitch": 43, "duration": 110, "velocity": 100}, {"time": 96140, "pitch": 52, "duration": 110, "velocity": 100}, {"time": 96140, "pitch": 55, "duration": 110, "velocity": 100}, {"time": 96250, "pitch": 48, "duration": 55, "velocity": 100}, {"time": 96360, "pitch": 36, "duration": 275, "velocity": 100}, {"time": 96360, "pitch": 55, "duration": 110, "velocity": 100}, {"time": 96360, "pitch": 60, "duration": 110, "velocity": 100}, {"time": 96470, "pitch": 48, "duration": 110, "velocity": 100}, {"time": 96580, "pitch": 55, "duration": 110, "velocity": 100}, {"time": 96580, "pitch": 60, "duration": 110, "velocity": 100}, {"time": 96690, "pitch": 43, "duration": 55, "velocity": 100}, {"time": 96800, "pitch": 36, "duration": 385, "velocity": 100}, {"time": 96800, "pitch": 55, "duration": 165, "velocity": 100}, {"time": 96800, "pitch": 60, "duration": 165, "velocity": 100}, {"time": 96910, "pitch": 48, "duration": 165, "velocity": 100}, {"time": 97020, "pitch": 55, "duration": 110, "velocity": 100}, {"time": 97020, "pitch": 60, "duration": 110, "velocity": 100}, {"time": 97130, "pitch": 52, "duration": 110, "velocity": 100}, {"time": 97240, "pitch": 36, "duration": 275, "velocity": 100}, {"time": 97240, "pitch": 55, "duration": 110, "velocity": 100}, {"time": 97240, "pitch": 60, "duration": 110, "velocity": 100}, {"time": 97350, "pitch": 52, "duration": 55, "velocity": 100}, {"time": 97460, "pitch": 52, "duration": 110, "velocity": 100}, {"time": 97460, "pitch": 55, "duration": 110, "velocity": 100}, {"time": 97460, "pitch": 60, "duration": 110, "velocity": 100}, {"time": 97570, "pitch": 36, "duration": 55, "velocity": 100}, {"time": 97680, "pitch": 48, "duration": 440, "velocity": 100}, {"time": 97680, "pitch": 55, "duration": 55, "velocity": 100}, {"time": 97680, "pitch": 60, "duration": 165, "velocity": 100}, {"time": 97680, "pitch": 64, "duration": 110, "velocity": 100}, {"time": 97790, "pitch": 55, "duration": 55, "velocity": 100}, {"time": 97900, "pitch": 52, "duration": 55, "velocity": 100}, {"time": 97900, "pitch": 55, "duration": 110, "velocity": 100}, {"time": 97900, "pitch": 60, "duration": 110, "velocity": 100}, {"time": 98010, "pitch": 55, "duration": 55, "velocity": 100}, {"time": 98120, "pitch": 48, "duration": 385, "velocity": 100}, {"time": 98120, "pitch": 55, "duration": 55, "velocity": 100}, {"time": 98120, "pitch": 60, "duration": 110, "velocity": 100}, {"time": 98120, "pitch": 64, "duration": 110, "velocity": 100}, {"time": 98230, "pitch": 52, "duration": 55, "velocity": 100}, {"time": 98285, "pitch": 55, "duration": 55, "velocity": 100}, {"time": 98285, "pitch": 60, "duration": 55, "velocity": 100}, {"time": 98340, "pitch": 55, "duration": 55, "velocity": 100}, {"time": 98340, "pitch": 60, "duration": 55, "velocity": 100}, {"time": 98340, "pitch": 64, "duration": 55, "velocity": 100}, {"time": 98450, "pitch": 55, "duration": 55, "velocity": 100}, {"time": 98450, "pitch": 60, "duration": 55, "velocity": 100}, {"time": 98560, "pitch": 40, "duration": 275, "velocity": 100}, {"time": 98560, "pitch": 52, "duration": 110, "velocity": 100}, {"time": 98560, "pitch": 55, "duration": 110, "velocity": 100}, {"time": 98560, "pitch": 60, "duration": 110, "velocity": 100}, {"time": 98670, "pitch": 48, "duration": 110, "velocity": 100}, {"time": 98780, "pitch": 52, "duration": 55, "velocity": 100}, {"time": 98780, "pitch": 55, "duration": 55, "velocity": 100}, {"time": 98780, "pitch": 60, "duration": 55, "velocity": 100}, {"time": 98890, "pitch": 52, "duration": 55, "velocity": 100}, {"time": 99000, "pitch": 37, "duration": 275, "velocity": 100}, {"time": 99000, "pitch": 52, "duration": 110, "velocity": 100}, {"time": 99000, "pitch": 56, "duration": 110, "velocity": 100}, {"time": 99000, "pitch": 61, "duration": 110, "velocity": 100}, {"time": 99110, "pitch": 44, "duration": 110, "velocity": 100}, {"time": 99220, "pitch": 52, "duration": 110, "velocity": 100}, {"time": 99220, "pitch": 61, "duration": 110, "velocity": 100}, {"time": 99330, "pitch": 52, "duration": 55, "velocity": 100}, {"time": 99440, "pitch": 37, "duration": 220, "velocity": 100}, {"time": 99440, "pitch": 52, "duration": 110, "velocity": 100}, {"time": 99440, "pitch": 56, "duration": 165, "velocity": 100}, {"time": 99550, "pitch": 44, "duration": 110, "velocity": 100}, {"time": 99660, "pitch": 52, "duration": 55, "velocity": 100}, {"time": 99660, "pitch": 56, "duration": 110, "velocity": 100}, {"time": 99660, "pitch": 61, "duration": 165, "velocity": 100}, {"time": 99770, "pitch": 52, "duration": 55, "velocity": 100}, {"time": 99880, "pitch": 37, "duration": 275, "velocity": 100}, {"time": 99880, "pitch": 56, "duration": 165, "velocity": 100}, {"time": 99990, "pitch": 49, "duration": 165, "velocity": 100}, {"time": 100100, "pitch": 52, "duration": 110, "velocity": 100}, {"time": 100100, "pitch": 56, "duration": 110, "velocity": 100}, {"time": 100100, "pitch": 61, "duration": 110, "velocity": 100}, {"time": 100210, "pitch": 44, "duration": 55, "velocity": 100}, {"time": 100320, "pitch": 37, "duration": 275, "velocity": 100}, {"time": 100320, "pitch": 56, "duration": 110, "velocity": 100}, {"time": 100320, "pitch": 61, "duration": 110, "velocity": 100}, {"time": 100430, "pitch": 44, "duration": 110, "velocity": 100}, {"time": 100540, "pitch": 56, "duration": 55, "velocity": 100}, {"time": 100540, "pitch": 61, "duration": 55, "velocity": 100}, {"time": 100650, "pitch": 44, "duration": 55, "velocity": 100}, {"time": 100760, "pitch": 37, "duration": 275, "velocity": 100}, {"time": 100760, "pitch": 56, "duration": 165, "velocity": 100}, {"time": 100760, "pitch": 61, "duration": 165, "velocity": 100}, {"time": 100870, "pitch": 49, "duration": 165, "velocity": 100}, {"time": 100980, "pitch": 56, "duration": 55, "velocity": 100}, {"time": 100980, "pitch": 61, "duration": 55, "velocity": 100}, {"time": 101090, "pitch": 37, "duration": 55, "velocity": 100}, {"time": 101200, "pitch": 49, "duration": 385, "velocity": 100}, {"time": 101200, "pitch": 52, "duration": 55, "velocity": 100}, {"time": 101200, "pitch": 56, "duration": 110, "velocity": 100}, {"time": 101200, "pitch": 61, "duration": 165, "velocity": 100}, {"time": 101310, "pitch": 52, "duration": 55, "velocity": 100}, {"time": 101420, "pitch": 52, "duration": 55, "velocity": 100}, {"time": 101420, "pitch": 56, "duration": 110, "velocity": 100}, {"time": 101420, "pitch": 61, "duration": 110, "velocity": 100}, {"time": 101530, "pitch": 49, "duration": 55, "velocity": 100}, {"time": 101530, "pitch": 68, "duration": 55, "velocity": 100}, {"time": 101585, "pitch": 56, "duration": 55, "velocity": 100}, {"time": 101585, "pitch": 61, "duration": 55, "velocity": 100}, {"time": 101585, "pitch": 68, "duration": 55, "velocity": 100}, {"time": 101640, "pitch": 44, "duration": 275, "velocity": 100}, {"time": 101640, "pitch": 56, "duration": 55, "velocity": 100}, {"time": 101640, "pitch": 68, "duration": 110, "velocity": 100}, {"time": 101695, "pitch": 73, "duration": 55, "velocity": 100}, {"time": 101750, "pitch": 56, "duration": 55, "velocity": 100}, {"time": 101750, "pitch": 71, "duration": 110, "velocity": 100}, {"time": 101860, "pitch": 52, "duration": 55, "velocity": 100}, {"time": 101860, "pitch": 56, "duration": 110, "velocity": 100}, {"time": 101860, "pitch": 61, "duration": 55, "velocity": 100}, {"time": 101915, "pitch": 49, "duration": 55, "velocity": 100}, {"time": 101970, "pitch": 52, "duration": 110, "velocity": 100}, {"time": 101970, "pitch": 73, "duration": 55, "velocity": 100}, {"time": 102025, "pitch": 56, "duration": 55, "velocity": 100}, {"time": 102025, "pitch": 71, "duration": 55, "velocity": 100}, {"time": 102080, "pitch": 37, "duration": 330, "velocity": 100}, {"time": 102080, "pitch": 52, "duration": 165, "velocity": 100}, {"time": 102080, "pitch": 56, "duration": 165, "velocity": 100}, {"time": 102080, "pitch": 61, "duration": 165, "velocity": 100}, {"time": 102080, "pitch": 76, "duration": 220, "velocity": 100}, {"time": 102190, "pitch": 49, "duration": 110, "velocity": 100}, {"time": 102300, "pitch": 56, "duration": 110, "velocity": 100}, {"time": 102300, "pitch": 60, "duration": 110, "velocity": 100}, {"time": 102520, "pitch": 36, "duration": 275, "velocity": 100}, {"time": 102520, "pitch": 55, "duration": 110, "velocity": 100}, {"time": 102520, "pitch": 60, "duration": 110, "velocity": 100}, {"time": 102630, "pitch": 48, "duration": 110, "velocity": 100}, {"time": 102740, "pitch": 55, "duration": 110, "velocity": 100}, {"time": 102740, "pitch": 60, "duration": 110, "velocity": 100}, {"time": 102850, "pitch": 52, "duration": 55, "velocity": 100}, {"time": 102960, "pitch": 36, "duration": 275, "velocity": 100}, {"time": 102960, "pitch": 48, "duration": 165, "velocity": 100}, {"time": 102960, "pitch": 52, "duration": 110, "velocity": 100}, {"time": 103070, "pitch": 43, "duration": 110, "velocity": 100}, {"time": 103180, "pitch": 52, "duration": 110, "velocity": 100}, {"time": 103180, "pitch": 55, "duration": 110, "velocity": 100}, {"time": 103290, "pitch": 48, "duration": 55, "velocity": 100}, {"time": 103400, "pitch": 36, "duration": 275, "velocity": 100}, {"time": 103400, "pitch": 55, "duration": 110, "velocity": 100}, {"time": 103400, "pitch": 60, "duration": 55, "velocity": 100}, {"time": 103510, "pitch": 48, "duration": 110, "velocity": 100}, {"time": 103620, "pitch": 55, "duration": 110, "velocity": 100}, {"time": 103620, "pitch": 60, "duration": 110, "velocity": 100}, {"time": 103730, "pitch": 43, "duration": 55, "velocity": 100}, {"time": 103840, "pitch": 36, "duration": 385, "velocity": 100}, {"time": 103840, "pitch": 55, "duration": 165, "velocity": 100}, {"time": 103840, "pitch": 60, "duration": 165, "velocity": 100}, {"time": 103950, "pitch": 48, "duration": 165, "velocity": 100}, {"time": 104060, "pitch": 55, "duration": 110, "velocity": 100}, {"time": 104060, "pitch": 60, "duration": 110, "velocity": 100}, {"time": 104170, "pitch": 52, "duration": 110, "velocity": 100}, {"time": 104280, "pitch": 36, "duration": 275, "velocity": 100}, {"time": 104280, "pitch": 55, "duration": 110, "velocity": 100}, {"time": 104280, "pitch": 60, "duration": 110, "velocity": 100}, {"time": 104390, "pitch": 52, "duration": 55, "velocity": 100}, {"time": 104500, "pitch": 52, "duration": 110, "velocity": 100}, {"time": 104500, "pitch": 55, "duration": 110, "velocity": 100}, {"time": 104500, "pitch": 60, "duration": 110, "velocity": 100}, {"time": 104610, "pitch": 36, "duration": 55, "velocity": 100}, {"time": 104720, "pitch": 48, "duration": 440, "velocity": 100}, {"time": 104720, "pitch": 55, "duration": 55, "velocity": 100}, {"time": 104720, "pitch": 60, "duration": 165, "velocity": 100}, {"time": 104720, "pitch": 64, "duration": 110, "velocity": 100}, {"time": 104830, "pitch": 55, "duration": 55, "velocity": 100}, {"time": 104940, "pitch": 52, "duration": 55, "velocity": 100}, {"time": 104940, "pitch": 55, "duration": 110, "velocity": 100}, {"time": 104940, "pitch": 60, "duration": 110, "velocity": 100}, {"time": 105050, "pitch": 55, "duration": 55, "velocity": 100}, {"time": 105160, "pitch": 48, "duration": 385, "velocity": 100}, {"time": 105160, "pitch": 55, "duration": 55, "velocity": 100}, {"time": 105160, "pitch": 60, "duration": 110, "velocity": 100}, {"time": 105160, "pitch": 64, "duration": 110, "velocity": 100}, {"time": 105270, "pitch": 52, "duration": 55, "velocity": 100}, {"time": 105325, "pitch": 55, "duration": 55, "velocity": 100}, {"time": 105325, "pitch": 60, "duration": 55, "velocity": 100}, {"time": 105380, "pitch": 55, "duration": 55, "velocity": 100}, {"time": 105380, "pitch": 60, "duration": 55, "velocity": 100}, {"time": 105380, "pitch": 64, "duration": 55, "velocity": 100}, {"time": 105490, "pitch": 55, "duration": 55, "velocity": 100}, {"time": 105490, "pitch": 60, "duration": 55, "velocity": 100}, {"time": 105600, "pitch": 40, "duration": 275, "velocity": 100}, {"time": 105600, "pitch": 52, "duration": 110, "velocity": 100}, {"time": 105600, "pitch": 55, "duration": 110, "velocity": 100}, {"time": 105600, "pitch": 60, "duration": 110, "velocity": 100}, {"time": 105710, "pitch": 48, "duration": 110, "velocity": 100}, {"time": 105820, "pitch": 52, "duration": 55, "velocity": 100}, {"time": 105820, "pitch": 55, "duration": 55, "velocity": 100}, {"time": 105820, "pitch": 60, "duration": 55, "velocity": 100}, {"time": 105930, "pitch": 52, "duration": 55, "velocity": 100}, {"time": 106040, "pitch": 41, "duration": 275, "velocity": 100}, {"time": 106040, "pitch": 53, "duration": 110, "velocity": 100}, {"time": 106040, "pitch": 56, "duration": 110, "velocity": 100}, {"time": 106040, "pitch": 65, "duration": 110, "velocity": 100}, {"time": 106150, "pitch": 48, "duration": 110, "velocity": 100}, {"time": 106260, "pitch": 56, "duration": 110, "velocity": 100}, {"time": 106260, "pitch": 60, "duration": 110, "velocity": 100}, {"time": 106370, "pitch": 53, "duration": 55, "velocity": 100}, {"time": 106480, "pitch": 41, "duration": 220, "velocity": 100}, {"time": 106480, "pitch": 56, "duration": 55, "velocity": 100}, {"time": 106480, "pitch": 60, "duration": 110, "velocity": 100}, {"time": 106590, "pitch": 48, "duration": 110, "velocity": 100}, {"time": 106700, "pitch": 56, "duration": 55, "velocity": 100}, {"time": 106700, "pitch": 60, "duration": 110, "velocity": 100}, {"time": 106700, "pitch": 65, "duration": 165, "velocity": 100}, {"time": 106810, "pitch": 53, "duration": 55, "velocity": 100}, {"time": 106920, "pitch": 41, "duration": 275, "velocity": 100}, {"time": 106920, "pitch": 56, "duration": 165, "velocity": 100}, {"time": 106920, "pitch": 60, "duration": 165, "velocity": 100}, {"time": 107030, "pitch": 48, "duration": 165, "velocity": 100}, {"time": 107140, "pitch": 56, "duration": 110, "velocity": 100}, {"time": 107140, "pitch": 60, "duration": 110, "velocity": 100}, {"time": 107140, "pitch": 65, "duration": 110, "velocity": 100}, {"time": 107250, "pitch": 41, "duration": 55, "velocity": 100}, {"time": 107360, "pitch": 41, "duration": 275, "velocity": 100}, {"time": 107360, "pitch": 56, "duration": 110, "velocity": 100}, {"time": 107360, "pitch": 60, "duration": 110, "velocity": 100}, {"time": 107470, "pitch": 48, "duration": 110, "velocity": 100}, {"time": 107580, "pitch": 56, "duration": 55, "velocity": 100}, {"time": 107580, "pitch": 60, "duration": 55, "velocity": 100}, {"time": 107690, "pitch": 41, "duration": 55, "velocity": 100}, {"time": 107800, "pitch": 41, "duration": 275, "velocity": 100}, {"time": 107800, "pitch": 56, "duration": 165, "velocity": 100}, {"time": 107800, "pitch": 60, "duration": 165, "velocity": 100}, {"time": 107800, "pitch": 65, "duration": 165, "velocity": 100}, {"time": 107910, "pitch": 48, "duration": 165, "velocity": 100}, {"time": 108020, "pitch": 56, "duration": 55, "velocity": 100}, {"time": 108020, "pitch": 60, "duration": 55, "velocity": 100}, {"time": 108020, "pitch": 65, "duration": 110, "velocity": 100}, {"time": 108130, "pitch": 41, "duration": 55, "velocity": 100}, {"time": 108240, "pitch": 41, "duration": 275, "velocity": 100}, {"time": 108240, "pitch": 56, "duration": 55, "velocity": 100}, {"time": 108240, "pitch": 60, "duration": 165, "velocity": 100}, {"time": 108350, "pitch": 56, "duration": 55, "velocity": 100}, {"time": 108460, "pitch": 56, "duration": 110, "velocity": 100}, {"time": 108460, "pitch": 60, "duration": 110, "velocity": 100}, {"time": 108460, "pitch": 65, "duration": 110, "velocity": 100}, {"time": 108570, "pitch": 53, "duration": 55, "velocity": 100}, {"time": 108570, "pitch": 72, "duration": 55, "velocity": 100}, {"time": 108625, "pitch": 56, "duration": 55, "velocity": 100}, {"time": 108625, "pitch": 60, "duration": 55, "velocity": 100}, {"time": 108625, "pitch": 70, "duration": 55, "velocity": 100}, {"time": 108680, "pitch": 48, "duration": 275, "velocity": 100}, {"time": 108680, "pitch": 56, "duration": 55, "velocity": 100}, {"time": 108680, "pitch": 60, "duration": 55, "velocity": 100}, {"time": 108680, "pitch": 72, "duration": 55, "velocity": 100}, {"time": 108735, "pitch": 75, "duration": 55, "velocity": 100}, {"time": 108790, "pitch": 56, "duration": 55, "velocity": 100}, {"time": 108790, "pitch": 72, "duration": 110, "velocity": 100}, {"time": 108900, "pitch": 56, "duration": 55, "velocity": 100}, {"time": 108900, "pitch": 60, "duration": 110, "velocity": 100}, {"time": 108900, "pitch": 65, "duration": 55, "velocity": 100}, {"time": 108955, "pitch": 48, "duration": 55, "velocity": 100}, {"time": 109010, "pitch": 53, "duration": 110, "velocity": 100}, {"time": 109010, "pitch": 75, "duration": 55, "velocity": 100}, {"time": 109065, "pitch": 60, "duration": 55, "velocity": 100}, {"time": 109065, "pitch": 72, "duration": 55, "velocity": 100}, {"time": 109120, "pitch": 41, "duration": 330, "velocity": 100}, {"time": 109120, "pitch": 53, "duration": 165, "velocity": 100}, {"time": 109120, "pitch": 56, "duration": 165, "velocity": 100}, {"time": 109120, "pitch": 60, "duration": 165, "velocity": 100}, {"time": 109230, "pitch": 48, "duration": 110, "velocity": 100}, {"time": 109340, "pitch": 56, "duration": 110, "velocity": 100}, {"time": 109340, "pitch": 60, "duration": 110, "velocity": 100}, {"time": 109560, "pitch": 41, "duration": 275, "velocity": 100}, {"time": 109560, "pitch": 56, "duration": 110, "velocity": 100}, {"time": 109560, "pitch": 60, "duration": 110, "velocity": 100}, {"time": 109670, "pitch": 48, "duration": 110, "velocity": 100}, {"time": 109780, "pitch": 56, "duration": 110, "velocity": 100}, {"time": 109780, "pitch": 60, "duration": 110, "velocity": 100}, {"time": 109890, "pitch": 53, "duration": 55, "velocity": 100}, {"time": 110000, "pitch": 41, "duration": 275, "velocity": 100}, {"time": 110000, "pitch": 53, "duration": 55, "velocity": 100}, {"time": 110000, "pitch": 56, "duration": 110, "velocity": 100}, {"time": 110110, "pitch": 48, "duration": 110, "velocity": 100}, {"time": 110220, "pitch": 56, "duration": 110, "velocity": 100}, {"time": 110220, "pitch": 60, "duration": 110, "velocity": 100}, {"time": 110330, "pitch": 48, "duration": 55, "velocity": 100}, {"time": 110440, "pitch": 41, "duration": 275, "velocity": 100}, {"time": 110440, "pitch": 56, "duration": 110, "velocity": 100}, {"time": 110440, "pitch": 60, "duration": 110, "velocity": 100}, {"time": 110550, "pitch": 48, "duration": 110, "velocity": 100}, {"time": 110660, "pitch": 56, "duration": 55, "velocity": 100}, {"time": 110660, "pitch": 60, "duration": 55, "velocity": 100}, {"time": 110660, "pitch": 65, "duration": 110, "velocity": 100}, {"time": 110770, "pitch": 41, "duration": 55, "velocity": 100}, {"time": 110880, "pitch": 41, "duration": 385, "velocity": 100}, {"time": 110880, "pitch": 56, "duration": 165, "velocity": 100}, {"time": 110880, "pitch": 60, "duration": 165, "velocity": 100}, {"time": 110990, "pitch": 48, "duration": 165, "velocity": 100}, {"time": 111100, "pitch": 56, "duration": 110, "velocity": 100}, {"time": 111100, "pitch": 60, "duration": 110, "velocity": 100}, {"time": 111210, "pitch": 53, "duration": 110, "velocity": 100}, {"time": 111320, "pitch": 41, "duration": 275, "velocity": 100}, {"time": 111320, "pitch": 56, "duration": 110, "velocity": 100}, {"time": 111320, "pitch": 60, "duration": 110, "velocity": 100}, {"time": 111430, "pitch": 53, "duration": 55, "velocity": 100}, {"time": 111540, "pitch": 53, "duration": 110, "velocity": 100}, {"time": 111540, "pitch": 56, "duration": 110, "velocity": 100}, {"time": 111540, "pitch": 60, "duration": 110, "velocity": 100}, {"time": 111650, "pitch": 41, "duration": 55, "velocity": 100}, {"time": 111760, "pitch": 48, "duration": 385, "velocity": 100}, {"time": 111760, "pitch": 56, "duration": 55, "velocity": 100}, {"time": 111760, "pitch": 60, "duration": 165, "velocity": 100}, {"time": 111760, "pitch": 65, "duration": 165, "velocity": 100}, {"time": 111870, "pitch": 56, "duration": 55, "velocity": 100}, {"time": 111980, "pitch": 56, "duration": 55, "velocity": 100}, {"time": 111980, "pitch": 60, "duration": 110, "velocity": 100}, {"time": 111980, "pitch": 65, "duration": 110, "velocity": 100}, {"time": 112090, "pitch": 56, "duration": 55, "velocity": 100}, {"time": 112200, "pitch": 48, "duration": 385, "velocity": 100}, {"time": 112200, "pitch": 56, "duration": 55, "velocity": 100}, {"time": 112200, "pitch": 60, "duration": 110, "velocity": 100}, {"time": 112200, "pitch": 65, "duration": 110, "velocity": 100}, {"time": 112310, "pitch": 53, "duration": 55, "velocity": 100}, {"time": 112365, "pitch": 56, "duration": 55, "velocity": 100}, {"time": 112365, "pitch": 60, "duration": 55, "velocity": 100}, {"time": 112420, "pitch": 56, "duration": 55, "velocity": 100}, {"time": 112420, "pitch": 60, "duration": 55, "velocity": 100}, {"time": 112420, "pitch": 68, "duration": 55, "velocity": 100}, {"time": 112530, "pitch": 56, "duration": 55, "velocity": 100}, {"time": 112530, "pitch": 60, "duration": 55, "velocity": 100}, {"time": 112530, "pitch": 65, "duration": 55, "velocity": 100}, {"time": 112640, "pitch": 41, "duration": 275, "velocity": 100}, {"time": 112640, "pitch": 53, "duration": 110, "velocity": 100}, {"time": 112640, "pitch": 56, "duration": 110, "velocity": 100}, {"time": 112640, "pitch": 60, "duration": 110, "velocity": 100}, {"time": 112750, "pitch": 48, "duration": 110, "velocity": 100}, {"time": 112860, "pitch": 53, "duration": 55, "velocity": 100}, {"time": 112860, "pitch": 56, "duration": 55, "velocity": 100}, {"time": 112860, "pitch": 60, "duration": 55, "velocity": 100}, {"time": 112970, "pitch": 53, "duration": 55, "velocity": 100}, {"time": 113080, "pitch": 41, "duration": 275, "velocity": 100}, {"time": 113080, "pitch": 53, "duration": 110, "velocity": 100}, {"time": 113080, "pitch": 56, "duration": 110, "velocity": 100}, {"time": 113080, "pitch": 65, "duration": 110, "velocity": 100}, {"time": 113190, "pitch": 48, "duration": 110, "velocity": 100}, {"time": 113300, "pitch": 56, "duration": 110, "velocity": 100}, {"time": 113300, "pitch": 60, "duration": 110, "velocity": 100}, {"time": 113410, "pitch": 53, "duration": 55, "velocity": 100}, {"time": 113520, "pitch": 41, "duration": 220, "velocity": 100}, {"time": 113520, "pitch": 56, "duration": 55, "velocity": 100}, {"time": 113520, "pitch": 60, "duration": 110, "velocity": 100}, {"time": 113630, "pitch": 48, "duration": 110, "velocity": 100}, {"time": 113740, "pitch": 56, "duration": 55, "velocity": 100}, {"time": 113740, "pitch": 60, "duration": 110, "velocity": 100}, {"time": 113740, "pitch": 65, "duration": 165, "velocity": 100}, {"time": 113850, "pitch": 53, "duration": 55, "velocity": 100}, {"time": 113960, "pitch": 41, "duration": 275, "velocity": 100}, {"time": 113960, "pitch": 56, "duration": 165, "velocity": 100}, {"time": 113960, "pitch": 60, "duration": 165, "velocity": 100}, {"time": 114070, "pitch": 48, "duration": 165, "velocity": 100}, {"time": 114180, "pitch": 56, "duration": 110, "velocity": 100}, {"time": 114180, "pitch": 60, "duration": 110, "velocity": 100}, {"time": 114180, "pitch": 65, "duration": 110, "velocity": 100}, {"time": 114290, "pitch": 41, "duration": 55, "velocity": 100}, {"time": 114400, "pitch": 41, "duration": 275, "velocity": 100}, {"time": 114400, "pitch": 56, "duration": 110, "velocity": 100}, {"time": 114400, "pitch": 60, "duration": 110, "velocity": 100}, {"time": 114510, "pitch": 48, "duration": 110, "velocity": 100}, {"time": 114620, "pitch": 56, "duration": 55, "velocity": 100}, {"time": 114620, "pitch": 60, "duration": 55, "velocity": 100}, {"time": 114730, "pitch": 41, "duration": 55, "velocity": 100}, {"time": 114840, "pitch": 41, "duration": 275, "velocity": 100}, {"time": 114840, "pitch": 56, "duration": 165, "velocity": 100}, {"time": 114840, "pitch": 60, "duration": 165, "velocity": 100}, {"time": 114840, "pitch": 65, "duration": 165, "velocity": 100}, {"time": 114950, "pitch": 48, "duration": 165, "velocity": 100}, {"time": 115060, "pitch": 56, "duration": 55, "velocity": 100}, {"time": 115060, "pitch": 60, "duration": 55, "velocity": 100}, {"time": 115060, "pitch": 65, "duration": 110, "velocity": 100}, {"time": 115170, "pitch": 41, "duration": 55, "velocity": 100}, {"time": 115280, "pitch": 41, "duration": 275, "velocity": 100}, {"time": 115280, "pitch": 56, "duration": 55, "velocity": 100}, {"time": 115280, "pitch": 60, "duration": 165, "velocity": 100}, {"time": 115390, "pitch": 56, "duration": 55, "velocity": 100}, {"time": 115500, "pitch": 56, "duration": 110, "velocity": 100}, {"time": 115500, "pitch": 60, "duration": 110, "velocity": 100}, {"time": 115500, "pitch": 65, "duration": 110, "velocity": 100}, {"time": 115610, "pitch": 53, "duration": 55, "velocity": 100}, {"time": 115610, "pitch": 72, "duration": 55, "velocity": 100}, {"time": 115665, "pitch": 56, "duration": 55, "velocity": 100}, {"time": 115665, "pitch": 60, "duration": 55, "velocity": 100}, {"time": 115665, "pitch": 70, "duration": 55, "velocity": 100}, {"time": 115720, "pitch": 48, "duration": 275, "velocity": 100}, {"time": 115720, "pitch": 56, "duration": 55, "velocity": 100}, {"time": 115720, "pitch": 60, "duration": 55, "velocity": 100}, {"time": 115720, "pitch": 72, "duration": 55, "velocity": 100}, {"time": 115775, "pitch": 75, "duration": 55, "velocity": 100}, {"time": 115830, "pitch": 56, "duration": 55, "velocity": 100}, {"time": 115830, "pitch": 72, "duration": 110, "velocity": 100}, {"time": 115940, "pitch": 56, "duration": 55, "velocity": 100}, {"time": 115940, "pitch": 60, "duration": 110, "velocity": 100}, {"time": 115940, "pitch": 65, "duration": 55, "velocity": 100}, {"time": 115995, "pitch": 48, "duration": 55, "velocity": 100}, {"time": 116050, "pitch": 53, "duration": 110, "velocity": 100}, {"time": 116050, "pitch": 75, "duration": 55, "velocity": 100}, {"time": 116105, "pitch": 60, "duration": 55, "velocity": 100}, {"time": 116105, "pitch": 72, "duration": 55, "velocity": 100}, {"time": 116160, "pitch": 41, "duration": 220, "velocity": 100}, {"time": 116160, "pitch": 53, "duration": 110, "velocity": 100}, {"time": 116270, "pitch": 43, "duration": 110, "velocity": 100}, {"time": 116270, "pitch": 77, "duration": 55, "velocity": 100}, {"time": 116325, "pitch": 77, "duration": 55, "velocity": 100}, {"time": 116380, "pitch": 48, "duration": 55, "velocity": 100}, {"time": 116380, "pitch": 55, "duration": 110, "velocity": 100}, {"time": 116380, "pitch": 76, "duration": 110, "velocity": 100}, {"time": 116435, "pitch": 81, "duration": 165, "velocity": 100}, {"time": 116490, "pitch": 48, "duration": 55, "velocity": 100}, {"time": 116600, "pitch": 36, "duration": 275, "velocity": 100}, {"time": 116600, "pitch": 48, "duration": 220, "velocity": 100}, {"time": 116600, "pitch": 52, "duration": 220, "velocity": 100}, {"time": 116600, "pitch": 79, "duration": 440, "velocity": 100}, {"time": 116710, "pitch": 43, "duration": 220, "velocity": 100}, {"time": 116820, "pitch": 55, "duration": 110, "velocity": 100}, {"time": 117040, "pitch": 36, "duration": 385, "velocity": 100}, {"time": 117040, "pitch": 52, "duration": 220, "velocity": 100}, {"time": 117040, "pitch": 55, "duration": 220, "velocity": 100}, {"time": 117150, "pitch": 43, "duration": 220, "velocity": 100}, {"time": 117260, "pitch": 60, "duration": 110, "velocity": 100}, {"time": 117370, "pitch": 55, "duration": 110, "velocity": 100}, {"time": 117480, "pitch": 36, "duration": 275, "velocity": 100}, {"time": 117480, "pitch": 60, "duration": 220, "velocity": 100}, {"time": 117590, "pitch": 48, "duration": 165, "velocity": 100}, {"time": 117700, "pitch": 52, "duration": 110, "velocity": 100}, {"time": 117700, "pitch": 55, "duration": 110, "velocity": 100}, {"time": 117920, "pitch": 36, "duration": 330, "velocity": 100}, {"time": 117920, "pitch": 52, "duration": 165, "velocity": 100}, {"time": 117920, "pitch": 55, "duration": 165, "velocity": 100}, {"time": 118030, "pitch": 48, "duration": 165, "velocity": 100}, {"time": 118140, "pitch": 60, "duration": 110, "velocity": 100}, {"time": 118250, "pitch": 55, "duration": 55, "velocity": 100}, {"time": 118360, "pitch": 36, "duration": 275, "velocity": 100}, {"time": 118360, "pitch": 60, "duration": 165, "velocity": 100}, {"time": 118470, "pitch": 48, "duration": 165, "velocity": 100}, {"time": 118580, "pitch": 52, "duration": 55, "velocity": 100}, {"time": 118580, "pitch": 55, "duration": 55, "velocity": 100}, {"time": 118800, "pitch": 36, "duration": 330, "velocity": 100}, {"time": 118800, "pitch": 52, "duration": 110, "velocity": 100}, {"time": 118800, "pitch": 55, "duration": 110, "velocity": 100}, {"time": 118910, "pitch": 43, "duration": 220, "velocity": 100}, {"time": 119020, "pitch": 48, "duration": 110, "velocity": 100}, {"time": 119075, "pitch": 52, "duration": 55, "velocity": 100}, {"time": 119130, "pitch": 55, "duration": 55, "velocity": 100}, {"time": 119240, "pitch": 36, "duration": 330, "velocity": 100}, {"time": 119240, "pitch": 48, "duration": 165, "velocity": 100}, {"time": 119240, "pitch": 55, "duration": 165, "velocity": 100}, {"time": 119350, "pitch": 43, "duration": 165, "velocity": 100}, {"time": 119460, "pitch": 52, "duration": 110, "velocity": 100}, {"time": 119460, "pitch": 55, "duration": 110, "velocity": 100}, {"time": 119570, "pitch": 48, "duration": 55, "velocity": 100}, {"time": 119680, "pitch": 44, "duration": 220, "velocity": 100}, {"time": 119680, "pitch": 56, "duration": 110, "velocity": 100}, {"time": 119680, "pitch": 64, "duration": 110, "velocity": 100}, {"time": 119790, "pitch": 51, "duration": 110, "velocity": 100}, {"time": 119900, "pitch": 48, "duration": 55, "velocity": 100}, {"time": 119900, "pitch": 54, "duration": 55, "velocity": 100}, {"time": 119900, "pitch": 60, "duration": 110, "velocity": 100}, {"time": 120010, "pitch": 54, "duration": 55, "velocity": 100}, {"time": 120120, "pitch": 40, "duration": 330, "velocity": 100}, {"time": 120120, "pitch": 52, "duration": 110, "velocity": 100}, {"time": 120120, "pitch": 56, "duration": 220, "velocity": 100}, {"time": 120230, "pitch": 48, "duration": 220, "velocity": 100}, {"time": 120230, "pitch": 80, "duration": 55, "velocity": 100}, {"time": 120285, "pitch": 85, "duration": 55, "velocity": 100}, {"time": 120340, "pitch": 60, "duration": 110, "velocity": 100}, {"time": 120340, "pitch": 80, "duration": 55, "velocity": 100}, {"time": 120395, "pitch": 80, "duration": 55, "velocity": 100}, {"time": 120560, "pitch": 48, "duration": 275, "velocity": 100}, {"time": 120560, "pitch": 56, "duration": 220, "velocity": 100}, {"time": 120560, "pitch": 60, "duration": 220, "velocity": 100}, {"time": 120560, "pitch": 84, "duration": 440, "velocity": 100}, {"time": 120670, "pitch": 52, "duration": 220, "velocity": 100}, {"time": 120780, "pitch": 64, "duration": 110, "velocity": 100}, {"time": 120780, "pitch": 68, "duration": 110, "velocity": 100}, {"time": 120890, "pitch": 60, "duration": 110, "velocity": 100}, {"time": 120890, "pitch": 66, "duration": 110, "velocity": 100}, {"time": 121000, "pitch": 48, "duration": 275, "velocity": 100}, {"time": 121000, "pitch": 64, "duration": 440, "velocity": 100}, {"time": 121110, "pitch": 52, "duration": 165, "velocity": 100}, {"time": 121220, "pitch": 56, "duration": 55, "velocity": 100}, {"time": 121220, "pitch": 60, "duration": 165, "velocity": 100}, {"time": 121440, "pitch": 44, "duration": 275, "velocity": 100}, {"time": 121440, "pitch": 56, "duration": 220, "velocity": 100}, {"time": 121440, "pitch": 60, "duration": 220, "velocity": 100}, {"time": 121440, "pitch": 64, "duration": 220, "velocity": 100}, {"time": 121550, "pitch": 52, "duration": 165, "velocity": 100}, {"time": 121660, "pitch": 60, "duration": 110, "velocity": 100}, {"time": 121660, "pitch": 64, "duration": 110, "velocity": 100}, {"time": 121770, "pitch": 56, "duration": 110, "velocity": 100}, {"time": 121770, "pitch": 60, "duration": 55, "velocity": 100}, {"time": 121880, "pitch": 48, "duration": 275, "velocity": 100}, {"time": 121880, "pitch": 60, "duration": 275, "velocity": 100}, {"time": 121990, "pitch": 52, "duration": 165, "velocity": 100}, {"time": 122100, "pitch": 60, "duration": 220, "velocity": 100}, {"time": 122320, "pitch": 40, "duration": 330, "velocity": 100}, {"time": 122320, "pitch": 56, "duration": 220, "velocity": 100}, {"time": 122320, "pitch": 60, "duration": 220, "velocity": 100}, {"time": 122430, "pitch": 48, "duration": 275, "velocity": 100}, {"time": 122430, "pitch": 59, "duration": 55, "velocity": 100}, {"time": 122540, "pitch": 52, "duration": 110, "velocity": 100}, {"time": 122540, "pitch": 60, "duration": 110, "velocity": 100}, {"time": 122595, "pitch": 64, "duration": 55, "velocity": 100}, {"time": 122650, "pitch": 60, "duration": 55, "velocity": 100}, {"time": 122650, "pitch": 68, "duration": 55, "velocity": 100}, {"time": 122705, "pitch": 68, "duration": 55, "velocity": 100}, {"time": 122760, "pitch": 40, "duration": 275, "velocity": 100}, {"time": 122760, "pitch": 56, "duration": 165, "velocity": 100}, {"time": 122760, "pitch": 60, "duration": 220, "velocity": 100}, {"time": 122760, "pitch": 64, "duration": 330, "velocity": 100}, {"time": 122870, "pitch": 48, "duration": 165, "velocity": 100}, {"time": 122980, "pitch": 56, "duration": 110, "velocity": 100}, {"time": 122980, "pitch": 64, "duration": 220, "velocity": 100}, {"time": 123090, "pitch": 56, "duration": 55, "velocity": 100}, {"time": 123200, "pitch": 48, "duration": 330, "velocity": 100}, {"time": 123200, "pitch": 60, "duration": 110, "velocity": 100}, {"time": 123200, "pitch": 64, "duration": 110, "velocity": 100}, {"time": 123200, "pitch": 68, "duration": 110, "velocity": 100}, {"time": 123310, "pitch": 56, "duration": 110, "velocity": 100}, {"time": 123365, "pitch": 61, "duration": 55, "velocity": 100}, {"time": 123420, "pitch": 61, "duration": 55, "velocity": 100}, {"time": 123420, "pitch": 64, "duration": 110, "velocity": 100}, {"time": 123420, "pitch": 68, "duration": 110, "velocity": 100}, {"time": 123640, "pitch": 49, "duration": 330, "velocity": 100}, {"time": 123640, "pitch": 61, "duration": 55, "velocity": 100}, {"time": 123640, "pitch": 64, "duration": 165, "velocity": 100}, {"time": 123640, "pitch": 68, "duration": 110, "velocity": 100}, {"time": 123750, "pitch": 56, "duration": 110, "velocity": 100}, {"time": 123750, "pitch": 78, "duration": 110, "velocity": 100}, {"time": 123860, "pitch": 61, "duration": 55, "velocity": 100}, {"time": 123860, "pitch": 64, "duration": 55, "velocity": 100}, {"time": 123860, "pitch": 78, "duration": 55, "velocity": 100}, {"time": 123915, "pitch": 56, "duration": 165, "velocity": 100}, {"time": 123915, "pitch": 78, "duration": 55, "velocity": 100}, {"time": 123970, "pitch": 63, "duration": 55, "velocity": 100}, {"time": 123970, "pitch": 75, "duration": 55, "velocity": 100}, {"time": 124025, "pitch": 61, "duration": 55, "velocity": 100}, {"time": 124025, "pitch": 75, "duration": 55, "velocity": 100}, {"time": 124080, "pitch": 49, "duration": 385, "velocity": 100}, {"time": 124080, "pitch": 61, "duration": 110, "velocity": 100}, {"time": 124080, "pitch": 64, "duration": 110, "velocity": 100}, {"time": 124080, "pitch": 76, "duration": 220, "velocity": 100}, {"time": 124190, "pitch": 56, "duration": 110, "velocity": 100}, {"time": 124300, "pitch": 61, "duration": 55, "velocity": 100}, {"time": 124300, "pitch": 64, "duration": 165, "velocity": 100}, {"time": 124300, "pitch": 68, "duration": 165, "velocity": 100}, {"time": 124410, "pitch": 56, "duration": 55, "velocity": 100}, {"time": 124465, "pitch": 56, "duration": 55, "velocity": 100}, {"time": 124520, "pitch": 49, "duration": 275, "velocity": 100}, {"time": 124520, "pitch": 61, "duration": 165, "velocity": 100}, {"time": 124520, "pitch": 64, "duration": 110, "velocity": 100}, {"time": 124630, "pitch": 56, "duration": 110, "velocity": 100}, {"time": 124630, "pitch": 80, "duration": 55, "velocity": 100}, {"time": 124685, "pitch": 76, "duration": 55, "velocity": 100}, {"time": 124740, "pitch": 61, "duration": 165, "velocity": 100}, {"time": 124740, "pitch": 64, "duration": 165, "velocity": 100}, {"time": 124740, "pitch": 68, "duration": 220, "velocity": 100}, {"time": 124740, "pitch": 73, "duration": 55, "velocity": 100}, {"time": 124740, "pitch": 80, "duration": 55, "velocity": 100}, {"time": 124795, "pitch": 78, "duration": 55, "velocity": 100}, {"time": 124850, "pitch": 56, "duration": 55, "velocity": 100}, {"time": 124850, "pitch": 78, "duration": 55, "velocity": 100}, {"time": 124905, "pitch": 78, "duration": 55, "velocity": 100}, {"time": 124960, "pitch": 49, "duration": 275, "velocity": 100}, {"time": 124960, "pitch": 61, "duration": 110, "velocity": 100}, {"time": 124960, "pitch": 64, "duration": 110, "velocity": 100}, {"time": 124960, "pitch": 68, "duration": 110, "velocity": 100}, {"time": 124960, "pitch": 80, "duration": 440, "velocity": 100}, {"time": 125070, "pitch": 56, "duration": 110, "velocity": 100}, {"time": 125125, "pitch": 61, "duration": 55, "velocity": 100}, {"time": 125180, "pitch": 61, "duration": 110, "velocity": 100}, {"time": 125180, "pitch": 64, "duration": 110, "velocity": 100}, {"time": 125180, "pitch": 68, "duration": 110, "velocity": 100}, {"time": 125400, "pitch": 49, "duration": 330, "velocity": 100}, {"time": 125400, "pitch": 61, "duration": 110, "velocity": 100}, {"time": 125400, "pitch": 64, "duration": 110, "velocity": 100}, {"time": 125400, "pitch": 68, "duration": 110, "velocity": 100}, {"time": 125510, "pitch": 56, "duration": 110, "velocity": 100}, {"time": 125620, "pitch": 61, "duration": 55, "velocity": 100}, {"time": 125620, "pitch": 64, "duration": 55, "velocity": 100}, {"time": 125620, "pitch": 78, "duration": 55, "velocity": 100}, {"time": 125675, "pitch": 56, "duration": 165, "velocity": 100}, {"time": 125675, "pitch": 78, "duration": 55, "velocity": 100}, {"time": 125730, "pitch": 63, "duration": 55, "velocity": 100}, {"time": 125730, "pitch": 75, "duration": 55, "velocity": 100}, {"time": 125785, "pitch": 61, "duration": 55, "velocity": 100}, {"time": 125785, "pitch": 75, "duration": 55, "velocity": 100}, {"time": 125840, "pitch": 49, "duration": 385, "velocity": 100}, {"time": 125840, "pitch": 61, "duration": 110, "velocity": 100}, {"time": 125840, "pitch": 64, "duration": 110, "velocity": 100}, {"time": 125840, "pitch": 76, "duration": 110, "velocity": 100}, {"time": 125950, "pitch": 56, "duration": 110, "velocity": 100}, {"time": 126060, "pitch": 61, "duration": 165, "velocity": 100}, {"time": 126060, "pitch": 64, "duration": 165, "velocity": 100}, {"time": 126060, "pitch": 68, "duration": 165, "velocity": 100}, {"time": 126170, "pitch": 56, "duration": 55, "velocity": 100}, {"time": 126170, "pitch": 73, "duration": 110, "velocity": 100}, {"time": 126170, "pitch": 76, "duration": 55, "velocity": 100}, {"time": 126225, "pitch": 61, "duration": 55, "velocity": 100}, {"time": 126280, "pitch": 49, "duration": 275, "velocity": 100}, {"time": 126280, "pitch": 61, "duration": 165, "velocity": 100}, {"time": 126280, "pitch": 64, "duration": 110, "velocity": 100}, {"time": 126280, "pitch": 68, "duration": 110, "velocity": 100}, {"time": 126280, "pitch": 76, "duration": 220, "velocity": 100}, {"time": 126390, "pitch": 56, "duration": 110, "velocity": 100}, {"time": 126500, "pitch": 61, "duration": 165, "velocity": 100}, {"time": 126500, "pitch": 64, "duration": 165, "velocity": 100}, {"time": 126500, "pitch": 68, "duration": 165, "velocity": 100}, {"time": 126500, "pitch": 73, "duration": 55, "velocity": 100}, {"time": 126610, "pitch": 56, "duration": 55, "velocity": 100}, {"time": 126610, "pitch": 75, "duration": 55, "velocity": 100}, {"time": 126720, "pitch": 49, "duration": 330, "velocity": 100}, {"time": 126720, "pitch": 56, "duration": 165, "velocity": 100}, {"time": 126720, "pitch": 61, "duration": 110, "velocity": 100}, {"time": 126720, "pitch": 68, "duration": 110, "velocity": 100}, {"time": 126720, "pitch": 73, "duration": 275, "velocity": 100}, {"time": 126830, "pitch": 56, "duration": 110, "velocity": 100}, {"time": 126885, "pitch": 61, "duration": 55, "velocity": 100}, {"time": 126940, "pitch": 58, "duration": 55, "velocity": 100}, {"time": 126940, "pitch": 61, "duration": 110, "velocity": 100}, {"time": 126940, "pitch": 65, "duration": 165, "velocity": 100}, {"time": 127160, "pitch": 46, "duration": 330, "velocity": 100}, {"time": 127160, "pitch": 58, "duration": 110, "velocity": 100}, {"time": 127160, "pitch": 61, "duration": 110, "velocity": 100}, {"time": 127270, "pitch": 53, "duration": 110, "velocity": 100}, {"time": 127325, "pitch": 80, "duration": 55, "velocity": 100}, {"time": 127380, "pitch": 58, "duration": 55, "velocity": 100}, {"time": 127380, "pitch": 61, "duration": 55, "velocity": 100}, {"time": 127380, "pitch": 65, "duration": 55, "velocity": 100}, {"time": 127380, "pitch": 77, "duration": 55, "velocity": 100}, {"time": 127435, "pitch": 53, "duration": 55, "velocity": 100}, {"time": 127435, "pitch": 75, "duration": 55, "velocity": 100}, {"time": 127490, "pitch": 60, "duration": 55, "velocity": 100}, {"time": 127490, "pitch": 72, "duration": 55, "velocity": 100}, {"time": 127545, "pitch": 58, "duration": 55, "velocity": 100}, {"time": 127545, "pitch": 73, "duration": 55, "velocity": 100}, {"time": 127600, "pitch": 46, "duration": 385, "velocity": 100}, {"time": 127600, "pitch": 58, "duration": 165, "velocity": 100}, {"time": 127600, "pitch": 61, "duration": 165, "velocity": 100}, {"time": 127600, "pitch": 65, "duration": 165, "velocity": 100}, {"time": 127600, "pitch": 70, "duration": 275, "velocity": 100}, {"time": 127710, "pitch": 53, "duration": 110, "velocity": 100}, {"time": 127820, "pitch": 56, "duration": 110, "velocity": 100}, {"time": 127820, "pitch": 58, "duration": 165, "velocity": 100}, {"time": 127820, "pitch": 61, "duration": 165, "velocity": 100}, {"time": 127820, "pitch": 65, "duration": 110, "velocity": 100}, {"time": 127930, "pitch": 53, "duration": 55, "velocity": 100}, {"time": 127985, "pitch": 53, "duration": 55, "velocity": 100}, {"time": 128040, "pitch": 46, "duration": 330, "velocity": 100}, {"time": 128040, "pitch": 58, "duration": 165, "velocity": 100}, {"time": 128040, "pitch": 61, "duration": 55, "velocity": 100}, {"time": 128150, "pitch": 53, "duration": 110, "velocity": 100}, {"time": 128150, "pitch": 75, "duration": 55, "velocity": 100}, {"time": 128205, "pitch": 70, "duration": 55, "velocity": 100}, {"time": 128205, "pitch": 77, "duration": 55, "velocity": 100}, {"time": 128260, "pitch": 58, "duration": 165, "velocity": 100}, {"time": 128260, "pitch": 61, "duration": 165, "velocity": 100}, {"time": 128260, "pitch": 65, "duration": 165, "velocity": 100}, {"time": 128260, "pitch": 70, "duration": 55, "velocity": 100}, {"time": 128260, "pitch": 75, "duration": 55, "velocity": 100}, {"time": 128315, "pitch": 75, "duration": 55, "velocity": 100}, {"time": 128370, "pitch": 53, "duration": 55, "velocity": 100}, {"time": 128370, "pitch": 73, "duration": 110, "velocity": 100}, {"time": 128370, "pitch": 77, "duration": 55, "velocity": 100}, {"time": 128480, "pitch": 46, "duration": 330, "velocity": 100}, {"time": 128480, "pitch": 58, "duration": 110, "velocity": 100}, {"time": 128480, "pitch": 61, "duration": 110, "velocity": 100}, {"time": 128480, "pitch": 65, "duration": 110, "velocity": 100}, {"time": 128480, "pitch": 70, "duration": 330, "velocity": 100}, {"time": 128480, "pitch": 73, "duration": 275, "velocity": 100}, {"time": 128590, "pitch": 53, "duration": 110, "velocity": 100}, {"time": 128645, "pitch": 58, "duration": 55, "velocity": 100}, {"time": 128700, "pitch": 58, "duration": 110, "velocity": 100}, {"time": 128700, "pitch": 61, "duration": 110, "velocity": 100}, {"time": 128700, "pitch": 65, "duration": 165, "velocity": 100}, {"time": 128920, "pitch": 46, "duration": 330, "velocity": 100}, {"time": 128920, "pitch": 58, "duration": 110, "velocity": 100}, {"time": 128920, "pitch": 61, "duration": 110, "velocity": 100}, {"time": 128975, "pitch": 75, "duration": 55, "velocity": 100}, {"time": 129030, "pitch": 53, "duration": 110, "velocity": 100}, {"time": 129030, "pitch": 70, "duration": 55, "velocity": 100}, {"time": 129030, "pitch": 75, "duration": 110, "velocity": 100}, {"time": 129140, "pitch": 58, "duration": 55, "velocity": 100}, {"time": 129140, "pitch": 61, "duration": 55, "velocity": 100}, {"time": 129140, "pitch": 65, "duration": 55, "velocity": 100}, {"time": 129140, "pitch": 75, "duration": 55, "velocity": 100}, {"time": 129195, "pitch": 53, "duration": 55, "velocity": 100}, {"time": 129195, "pitch": 75, "duration": 55, "velocity": 100}, {"time": 129250, "pitch": 58, "duration": 55, "velocity": 100}, {"time": 129250, "pitch": 73, "duration": 55, "velocity": 100}, {"time": 129305, "pitch": 61, "duration": 55, "velocity": 100}, {"time": 129305, "pitch": 72, "duration": 55, "velocity": 100}, {"time": 129360, "pitch": 46, "duration": 385, "velocity": 100}, {"time": 129360, "pitch": 58, "duration": 165, "velocity": 100}, {"time": 129360, "pitch": 61, "duration": 165, "velocity": 100}, {"time": 129360, "pitch": 65, "duration": 110, "velocity": 100}, {"time": 129360, "pitch": 73, "duration": 330, "velocity": 100}, {"time": 129470, "pitch": 53, "duration": 110, "velocity": 100}, {"time": 129580, "pitch": 58, "duration": 110, "velocity": 100}, {"time": 129580, "pitch": 61, "duration": 165, "velocity": 100}, {"time": 129580, "pitch": 65, "duration": 165, "velocity": 100}, {"time": 129690, "pitch": 53, "duration": 55, "velocity": 100}, {"time": 129690, "pitch": 70, "duration": 55, "velocity": 100}, {"time": 129745, "pitch": 53, "duration": 55, "velocity": 100}, {"time": 129745, "pitch": 70, "duration": 55, "velocity": 100}, {"time": 129745, "pitch": 73, "duration": 55, "velocity": 100}, {"time": 129800, "pitch": 46, "duration": 275, "velocity": 100}, {"time": 129800, "pitch": 58, "duration": 110, "velocity": 100}, {"time": 129800, "pitch": 70, "duration": 110, "velocity": 100}, {"time": 129910, "pitch": 53, "duration": 110, "velocity": 100}, {"time": 129910, "pitch": 70, "duration": 330, "velocity": 100}, {"time": 130020, "pitch": 58, "duration": 110, "velocity": 100}, {"time": 130020, "pitch": 61, "duration": 165, "velocity": 100}, {"time": 130020, "pitch": 65, "duration": 165, "velocity": 100}, {"time": 130130, "pitch": 53, "duration": 110, "velocity": 100}, {"time": 130130, "pitch": 65, "duration": 110, "velocity": 100}, {"time": 130185, "pitch": 68, "duration": 55, "velocity": 100}, {"time": 130240, "pitch": 51, "duration": 330, "velocity": 100}, {"time": 130240, "pitch": 63, "duration": 110, "velocity": 100}, {"time": 130240, "pitch": 67, "duration": 110, "velocity": 100}, {"time": 130240, "pitch": 70, "duration": 110, "velocity": 100}, {"time": 130350, "pitch": 58, "duration": 110, "velocity": 100}, {"time": 130405, "pitch": 63, "duration": 55, "velocity": 100}, {"time": 130460, "pitch": 63, "duration": 55, "velocity": 100}, {"time": 130460, "pitch": 67, "duration": 110, "velocity": 100}, {"time": 130460, "pitch": 70, "duration": 110, "velocity": 100}, {"time": 130680, "pitch": 51, "duration": 330, "velocity": 100}, {"time": 130680, "pitch": 63, "duration": 55, "velocity": 100}, {"time": 130680, "pitch": 67, "duration": 165, "velocity": 100}, {"time": 130680, "pitch": 70, "duration": 110, "velocity": 100}, {"time": 130790, "pitch": 58, "duration": 110, "velocity": 100}, {"time": 130790, "pitch": 82, "duration": 110, "velocity": 100}, {"time": 130900, "pitch": 63, "duration": 55, "velocity": 100}, {"time": 130900, "pitch": 67, "duration": 55, "velocity": 100}, {"time": 130900, "pitch": 82, "duration": 55, "velocity": 100}, {"time": 130955, "pitch": 58, "duration": 165, "velocity": 100}, {"time": 130955, "pitch": 82, "duration": 55, "velocity": 100}, {"time": 131010, "pitch": 67, "duration": 55, "velocity": 100}, {"time": 131010, "pitch": 79, "duration": 55, "velocity": 100}, {"time": 131065, "pitch": 63, "duration": 55, "velocity": 100}, {"time": 131065, "pitch": 79, "duration": 55, "velocity": 100}, {"time": 131120, "pitch": 51, "duration": 385, "velocity": 100}, {"time": 131120, "pitch": 63, "duration": 110, "velocity": 100}, {"time": 131120, "pitch": 67, "duration": 110, "velocity": 100}, {"time": 131120, "pitch": 79, "duration": 220, "velocity": 100}, {"time": 131230, "pitch": 58, "duration": 110, "velocity": 100}, {"time": 131340, "pitch": 63, "duration": 110, "velocity": 100}, {"time": 131340, "pitch": 67, "duration": 110, "velocity": 100}, {"time": 131340, "pitch": 70, "duration": 165, "velocity": 100}, {"time": 131450, "pitch": 58, "duration": 55, "velocity": 100}, {"time": 131505, "pitch": 63, "duration": 55, "velocity": 100}, {"time": 131560, "pitch": 51, "duration": 385, "velocity": 100}, {"time": 131560, "pitch": 63, "duration": 110, "velocity": 100}, {"time": 131560, "pitch": 67, "duration": 110, "velocity": 100}, {"time": 131670, "pitch": 58, "duration": 110, "velocity": 100}, {"time": 131670, "pitch": 82, "duration": 55, "velocity": 100}, {"time": 131725, "pitch": 82, "duration": 55, "velocity": 100}, {"time": 131780, "pitch": 63, "duration": 165, "velocity": 100}, {"time": 131780, "pitch": 67, "duration": 165, "velocity": 100}, {"time": 131780, "pitch": 70, "duration": 220, "velocity": 100}, {"time": 131780, "pitch": 79, "duration": 55, "velocity": 100}, {"time": 131780, "pitch": 84, "duration": 55, "velocity": 100}, {"time": 131835, "pitch": 82, "duration": 55, "velocity": 100}, {"time": 131890, "pitch": 63, "duration": 55, "velocity": 100}, {"time": 131890, "pitch": 82, "duration": 55, "velocity": 100}, {"time": 131945, "pitch": 82, "duration": 55, "velocity": 100}, {"time": 132000, "pitch": 51, "duration": 330, "velocity": 100}, {"time": 132000, "pitch": 63, "duration": 110, "velocity": 100}, {"time": 132000, "pitch": 67, "duration": 110, "velocity": 100}, {"time": 132000, "pitch": 70, "duration": 110, "velocity": 100}, {"time": 132000, "pitch": 82, "duration": 440, "velocity": 100}, {"time": 132110, "pitch": 58, "duration": 110, "velocity": 100}, {"time": 132165, "pitch": 63, "duration": 55, "velocity": 100}, {"time": 132220, "pitch": 63, "duration": 110, "velocity": 100}, {"time": 132220, "pitch": 67, "duration": 110, "velocity": 100}, {"time": 132220, "pitch": 70, "duration": 110, "velocity": 100}, {"time": 132440, "pitch": 51, "duration": 385, "velocity": 100}, {"time": 132440, "pitch": 63, "duration": 110, "velocity": 100}, {"time": 132440, "pitch": 67, "duration": 110, "velocity": 100}, {"time": 132440, "pitch": 70, "duration": 110, "velocity": 100}, {"time": 132550, "pitch": 58, "duration": 110, "velocity": 100}, {"time": 132660, "pitch": 63, "duration": 55, "velocity": 100}, {"time": 132660, "pitch": 70, "duration": 55, "velocity": 100}, {"time": 132660, "pitch": 82, "duration": 55, "velocity": 100}, {"time": 132715, "pitch": 58, "duration": 165, "velocity": 100}, {"time": 132715, "pitch": 82, "duration": 55, "velocity": 100}, {"time": 132770, "pitch": 67, "duration": 55, "velocity": 100}, {"time": 132770, "pitch": 79, "duration": 55, "velocity": 100}, {"time": 132825, "pitch": 67, "duration": 55, "velocity": 100}, {"time": 132825, "pitch": 79, "duration": 55, "velocity": 100}, {"time": 132880, "pitch": 51, "duration": 385, "velocity": 100}, {"time": 132880, "pitch": 63, "duration": 110, "velocity": 100}, {"time": 132880, "pitch": 67, "duration": 110, "velocity": 100}, {"time": 132880, "pitch": 79, "duration": 220, "velocity": 100}, {"time": 132990, "pitch": 58, "duration": 110, "velocity": 100}, {"time": 133100, "pitch": 63, "duration": 110, "velocity": 100}, {"time": 133100, "pitch": 67, "duration": 165, "velocity": 100}, {"time": 133100, "pitch": 70, "duration": 165, "velocity": 100}, {"time": 133210, "pitch": 58, "duration": 55, "velocity": 100}, {"time": 133210, "pitch": 77, "duration": 110, "velocity": 100}, {"time": 133265, "pitch": 63, "duration": 55, "velocity": 100}, {"time": 133320, "pitch": 51, "duration": 385, "velocity": 100}, {"time": 133320, "pitch": 63, "duration": 55, "velocity": 100}, {"time": 133320, "pitch": 67, "duration": 55, "velocity": 100}, {"time": 133320, "pitch": 75, "duration": 110, "velocity": 100}, {"time": 133320, "pitch": 79, "duration": 220, "velocity": 100}, {"time": 133430, "pitch": 58, "duration": 110, "velocity": 100}, {"time": 133540, "pitch": 63, "duration": 165, "velocity": 100}, {"time": 133540, "pitch": 67, "duration": 165, "velocity": 100}, {"time": 133540, "pitch": 70, "duration": 165, "velocity": 100}, {"time": 133540, "pitch": 75, "duration": 110, "velocity": 100}, {"time": 133650, "pitch": 58, "duration": 55, "velocity": 100}, {"time": 133650, "pitch": 79, "duration": 55, "velocity": 100}, {"time": 133760, "pitch": 51, "duration": 330, "velocity": 100}, {"time": 133760, "pitch": 63, "duration": 110, "velocity": 100}, {"time": 133760, "pitch": 67, "duration": 110, "velocity": 100}, {"time": 133760, "pitch": 70, "duration": 110, "velocity": 100}, {"time": 133760, "pitch": 79, "duration": 220, "velocity": 100}, {"time": 133760, "pitch": 82, "duration": 330, "velocity": 100}, {"time": 133870, "pitch": 60, "duration": 110, "velocity": 100}, {"time": 133925, "pitch": 67, "duration": 55, "velocity": 100}, {"time": 133980, "pitch": 65, "duration": 55, "velocity": 100}, {"time": 133980, "pitch": 68, "duration": 110, "velocity": 100}, {"time": 133980, "pitch": 72, "duration": 220, "velocity": 100}, {"time": 134200, "pitch": 53, "duration": 330, "velocity": 100}, {"time": 134200, "pitch": 65, "duration": 110, "velocity": 100}, {"time": 134200, "pitch": 68, "duration": 110, "velocity": 100}, {"time": 134200, "pitch": 72, "duration": 110, "velocity": 100}, {"time": 134310, "pitch": 60, "duration": 110, "velocity": 100}, {"time": 134420, "pitch": 65, "duration": 55, "velocity": 100}, {"time": 134420, "pitch": 68, "duration": 55, "velocity": 100}, {"time": 134420, "pitch": 80, "duration": 55, "velocity": 100}, {"time": 134475, "pitch": 60, "duration": 165, "velocity": 100}, {"time": 134475, "pitch": 82, "duration": 55, "velocity": 100}, {"time": 134530, "pitch": 67, "duration": 55, "velocity": 100}, {"time": 134530, "pitch": 80, "duration": 55, "velocity": 100}, {"time": 134585, "pitch": 65, "duration": 55, "velocity": 100}, {"time": 134585, "pitch": 79, "duration": 55, "velocity": 100}, {"time": 134640, "pitch": 53, "duration": 385, "velocity": 100}, {"time": 134640, "pitch": 65, "duration": 110, "velocity": 100}, {"time": 134640, "pitch": 68, "duration": 110, "velocity": 100}, {"time": 134640, "pitch": 72, "duration": 110, "velocity": 100}, {"time": 134640, "pitch": 80, "duration": 440, "velocity": 100}, {"time": 134750, "pitch": 60, "duration": 110, "velocity": 100}, {"time": 134860, "pitch": 63, "duration": 110, "velocity": 100}, {"time": 134860, "pitch": 65, "duration": 110, "velocity": 100}, {"time": 134860, "pitch": 68, "duration": 110, "velocity": 100}, {"time": 134860, "pitch": 72, "duration": 110, "velocity": 100}, {"time": 134970, "pitch": 60, "duration": 55, "velocity": 100}, {"time": 135025, "pitch": 60, "duration": 55, "velocity": 100}, {"time": 135080, "pitch": 53, "duration": 330, "velocity": 100}, {"time": 135080, "pitch": 65, "duration": 165, "velocity": 100}, {"time": 135080, "pitch": 68, "duration": 165, "velocity": 100}, {"time": 135190, "pitch": 60, "duration": 110, "velocity": 100}, {"time": 135190, "pitch": 82, "duration": 55, "velocity": 100}, {"time": 135245, "pitch": 80, "duration": 55, "velocity": 100}, {"time": 135300, "pitch": 65, "duration": 165, "velocity": 100}, {"time": 135300, "pitch": 68, "duration": 165, "velocity": 100}, {"time": 135300, "pitch": 72, "duration": 165, "velocity": 100}, {"time": 135300, "pitch": 79, "duration": 55, "velocity": 100}, {"time": 135300, "pitch": 82, "duration": 55, "velocity": 100}, {"time": 135355, "pitch": 82, "duration": 55, "velocity": 100}, {"time": 135410, "pitch": 60, "duration": 55, "velocity": 100}, {"time": 135410, "pitch": 80, "duration": 110, "velocity": 100}, {"time": 135520, "pitch": 53, "duration": 330, "velocity": 100}, {"time": 135520, "pitch": 65, "duration": 110, "velocity": 100}, {"time": 135520, "pitch": 68, "duration": 110, "velocity": 100}, {"time": 135520, "pitch": 72, "duration": 110, "velocity": 100}, {"time": 135520, "pitch": 77, "duration": 385, "velocity": 100}, {"time": 135520, "pitch": 80, "duration": 330, "velocity": 100}, {"time": 135630, "pitch": 60, "duration": 110, "velocity": 100}, {"time": 135685, "pitch": 65, "duration": 55, "velocity": 100}, {"time": 135740, "pitch": 65, "duration": 55, "velocity": 100}, {"time": 135740, "pitch": 68, "duration": 110, "velocity": 100}, {"time": 135740, "pitch": 72, "duration": 110, "velocity": 100}, {"time": 135960, "pitch": 53, "duration": 330, "velocity": 100}, {"time": 135960, "pitch": 65, "duration": 110, "velocity": 100}, {"time": 135960, "pitch": 68, "duration": 110, "velocity": 100}, {"time": 135960, "pitch": 72, "duration": 110, "velocity": 100}, {"time": 136070, "pitch": 60, "duration": 110, "velocity": 100}, {"time": 136070, "pitch": 77, "duration": 110, "velocity": 100}, {"time": 136070, "pitch": 80, "duration": 110, "velocity": 100}, {"time": 136180, "pitch": 65, "duration": 55, "velocity": 100}, {"time": 136180, "pitch": 68, "duration": 55, "velocity": 100}, {"time": 136180, "pitch": 77, "duration": 110, "velocity": 100}, {"time": 136180, "pitch": 80, "duration": 55, "velocity": 100}, {"time": 136235, "pitch": 60, "duration": 165, "velocity": 100}, {"time": 136235, "pitch": 79, "duration": 55, "velocity": 100}, {"time": 136290, "pitch": 67, "duration": 55, "velocity": 100}, {"time": 136345, "pitch": 68, "duration": 55, "velocity": 100}, {"time": 136345, "pitch": 79, "duration": 55, "velocity": 100}, {"time": 136400, "pitch": 53, "duration": 385, "velocity": 100}, {"time": 136400, "pitch": 65, "duration": 110, "velocity": 100}, {"time": 136400, "pitch": 68, "duration": 110, "velocity": 100}, {"time": 136400, "pitch": 72, "duration": 275, "velocity": 100}, {"time": 136400, "pitch": 80, "duration": 330, "velocity": 100}, {"time": 136510, "pitch": 60, "duration": 110, "velocity": 100}, {"time": 136620, "pitch": 65, "duration": 110, "velocity": 100}, {"time": 136620, "pitch": 68, "duration": 110, "velocity": 100}, {"time": 136620, "pitch": 72, "duration": 110, "velocity": 100}, {"time": 136730, "pitch": 60, "duration": 55, "velocity": 100}, {"time": 136730, "pitch": 79, "duration": 55, "velocity": 100}, {"time": 136785, "pitch": 60, "duration": 55, "velocity": 100}, {"time": 136785, "pitch": 77, "duration": 55, "velocity": 100}, {"time": 136840, "pitch": 53, "duration": 275, "velocity": 100}, {"time": 136840, "pitch": 65, "duration": 165, "velocity": 100}, {"time": 136840, "pitch": 68, "duration": 55, "velocity": 100}, {"time": 136840, "pitch": 80, "duration": 110, "velocity": 100}, {"time": 136950, "pitch": 60, "duration": 165, "velocity": 100}, {"time": 136950, "pitch": 77, "duration": 220, "velocity": 100}, {"time": 137060, "pitch": 65, "duration": 110, "velocity": 100}, {"time": 137060, "pitch": 68, "duration": 165, "velocity": 100}, {"time": 137060, "pitch": 72, "duration": 220, "velocity": 100}, {"time": 137170, "pitch": 60, "duration": 55, "velocity": 100}, {"time": 137280, "pitch": 46, "duration": 330, "velocity": 100}, {"time": 137280, "pitch": 58, "duration": 110, "velocity": 100}, {"time": 137280, "pitch": 61, "duration": 110, "velocity": 100}, {"time": 137280, "pitch": 65, "duration": 110, "velocity": 100}, {"time": 137390, "pitch": 53, "duration": 110, "velocity": 100}, {"time": 137445, "pitch": 58, "duration": 55, "velocity": 100}, {"time": 137500, "pitch": 58, "duration": 55, "velocity": 100}, {"time": 137500, "pitch": 61, "duration": 110, "velocity": 100}, {"time": 137500, "pitch": 65, "duration": 110, "velocity": 100}, {"time": 137720, "pitch": 46, "duration": 330, "velocity": 100}, {"time": 137720, "pitch": 58, "duration": 165, "velocity": 100}, {"time": 137720, "pitch": 61, "duration": 55, "velocity": 100}, {"time": 137830, "pitch": 53, "duration": 110, "velocity": 100}, {"time": 137830, "pitch": 75, "duration": 110, "velocity": 100}, {"time": 137940, "pitch": 58, "duration": 55, "velocity": 100}, {"time": 137940, "pitch": 61, "duration": 55, "velocity": 100}, {"time": 137940, "pitch": 65, "duration": 55, "velocity": 100}, {"time": 137940, "pitch": 77, "duration": 55, "velocity": 100}, {"time": 137995, "pitch": 53, "duration": 55, "velocity": 100}, {"time": 137995, "pitch": 75, "duration": 55, "velocity": 100}, {"time": 138050, "pitch": 60, "duration": 55, "velocity": 100}, {"time": 138050, "pitch": 72, "duration": 55, "velocity": 100}, {"time": 138105, "pitch": 58, "duration": 55, "velocity": 100}, {"time": 138105, "pitch": 73, "duration": 55, "velocity": 100}, {"time": 138160, "pitch": 46, "duration": 385, "velocity": 100}, {"time": 138160, "pitch": 58, "duration": 110, "velocity": 100}, {"time": 138160, "pitch": 61, "duration": 110, "velocity": 100}, {"time": 138160, "pitch": 73, "duration": 220, "velocity": 100}, {"time": 138270, "pitch": 53, "duration": 110, "velocity": 100}, {"time": 138380, "pitch": 56, "duration": 110, "velocity": 100}, {"time": 138380, "pitch": 58, "duration": 165, "velocity": 100}, {"time": 138380, "pitch": 65, "duration": 165, "velocity": 100}, {"time": 138490, "pitch": 46, "duration": 55, "velocity": 100}, {"time": 138545, "pitch": 58, "duration": 55, "velocity": 100}, {"time": 138600, "pitch": 46, "duration": 275, "velocity": 100}, {"time": 138600, "pitch": 58, "duration": 165, "velocity": 100}, {"time": 138600, "pitch": 61, "duration": 110, "velocity": 100}, {"time": 138710, "pitch": 53, "duration": 110, "velocity": 100}, {"time": 138765, "pitch": 73, "duration": 55, "velocity": 100}, {"time": 138765, "pitch": 77, "duration": 55, "velocity": 100}, {"time": 138820, "pitch": 58, "duration": 165, "velocity": 100}, {"time": 138820, "pitch": 61, "duration": 165, "velocity": 100}, {"time": 138820, "pitch": 65, "duration": 165, "velocity": 100}, {"time": 138820, "pitch": 73, "duration": 55, "velocity": 100}, {"time": 138820, "pitch": 77, "duration": 55, "velocity": 100}, {"time": 138875, "pitch": 75, "duration": 55, "velocity": 100}, {"time": 138930, "pitch": 53, "duration": 55, "velocity": 100}, {"time": 138930, "pitch": 75, "duration": 55, "velocity": 100}, {"time": 138985, "pitch": 75, "duration": 55, "velocity": 100}, {"time": 139040, "pitch": 46, "duration": 330, "velocity": 100}, {"time": 139040, "pitch": 58, "duration": 110, "velocity": 100}, {"time": 139040, "pitch": 61, "duration": 110, "velocity": 100}, {"time": 139040, "pitch": 65, "duration": 110, "velocity": 100}, {"time": 139040, "pitch": 77, "duration": 440, "velocity": 100}, {"time": 139150, "pitch": 53, "duration": 110, "velocity": 100}, {"time": 139205, "pitch": 58, "duration": 55, "velocity": 100}, {"time": 139260, "pitch": 58, "duration": 110, "velocity": 100}, {"time": 139260, "pitch": 61, "duration": 110, "velocity": 100}, {"time": 139260, "pitch": 65, "duration": 110, "velocity": 100}, {"time": 139480, "pitch": 46, "duration": 330, "velocity": 100}, {"time": 139480, "pitch": 58, "duration": 110, "velocity": 100}, {"time": 139480, "pitch": 61, "duration": 110, "velocity": 100}, {"time": 139590, "pitch": 53, "duration": 110, "velocity": 100}, {"time": 139700, "pitch": 58, "duration": 55, "velocity": 100}, {"time": 139700, "pitch": 61, "duration": 55, "velocity": 100}, {"time": 139700, "pitch": 75, "duration": 55, "velocity": 100}, {"time": 139755, "pitch": 53, "duration": 110, "velocity": 100}, {"time": 139755, "pitch": 72, "duration": 55, "velocity": 100}, {"time": 139810, "pitch": 60, "duration": 55, "velocity": 100}, {"time": 139810, "pitch": 72, "duration": 55, "velocity": 100}, {"time": 139865, "pitch": 58, "duration": 55, "velocity": 100}, {"time": 139865, "pitch": 72, "duration": 55, "velocity": 100}, {"time": 139920, "pitch": 46, "duration": 385, "velocity": 100}, {"time": 139920, "pitch": 58, "duration": 165, "velocity": 100}, {"time": 139920, "pitch": 61, "duration": 165, "velocity": 100}, {"time": 139920, "pitch": 73, "duration": 110, "velocity": 100}, {"time": 140030, "pitch": 53, "duration": 110, "velocity": 100}, {"time": 140140, "pitch": 56, "duration": 55, "velocity": 100}, {"time": 140140, "pitch": 58, "duration": 165, "velocity": 100}, {"time": 140140, "pitch": 65, "duration": 165, "velocity": 100}, {"time": 140250, "pitch": 53, "duration": 55, "velocity": 100}, {"time": 140250, "pitch": 68, "duration": 110, "velocity": 100}, {"time": 140250, "pitch": 72, "duration": 55, "velocity": 100}, {"time": 140305, "pitch": 58, "duration": 55, "velocity": 100}, {"time": 140360, "pitch": 46, "duration": 330, "velocity": 100}, {"time": 140360, "pitch": 58, "duration": 165, "velocity": 100}, {"time": 140360, "pitch": 61, "duration": 55, "velocity": 100}, {"time": 140360, "pitch": 65, "duration": 110, "velocity": 100}, {"time": 140360, "pitch": 73, "duration": 110, "velocity": 100}, {"time": 140470, "pitch": 53, "duration": 110, "velocity": 100}, {"time": 140580, "pitch": 58, "duration": 165, "velocity": 100}, {"time": 140580, "pitch": 61, "duration": 220, "velocity": 100}, {"time": 140580, "pitch": 65, "duration": 165, "velocity": 100}, {"time": 140580, "pitch": 68, "duration": 55, "velocity": 100}, {"time": 140635, "pitch": 72, "duration": 55, "velocity": 100}, {"time": 140690, "pitch": 53, "duration": 55, "velocity": 100}, {"time": 140690, "pitch": 73, "duration": 55, "velocity": 100}, {"time": 140800, "pitch": 46, "duration": 330, "velocity": 100}, {"time": 140800, "pitch": 58, "duration": 110, "velocity": 100}, {"time": 140800, "pitch": 61, "duration": 110, "velocity": 100}, {"time": 140800, "pitch": 65, "duration": 110, "velocity": 100}, {"time": 140800, "pitch": 70, "duration": 275, "velocity": 100}, {"time": 140800, "pitch": 73, "duration": 275, "velocity": 100}, {"time": 140910, "pitch": 53, "duration": 110, "velocity": 100}, {"time": 140965, "pitch": 58, "duration": 55, "velocity": 100}, {"time": 141020, "pitch": 58, "duration": 55, "velocity": 100}, {"time": 141020, "pitch": 61, "duration": 110, "velocity": 100}, {"time": 141020, "pitch": 65, "duration": 165, "velocity": 100}, {"time": 141240, "pitch": 46, "duration": 330, "velocity": 100}, {"time": 141240, "pitch": 58, "duration": 110, "velocity": 100}, {"time": 141240, "pitch": 61, "duration": 110, "velocity": 100}, {"time": 141350, "pitch": 53, "duration": 110, "velocity": 100}, {"time": 141405, "pitch": 80, "duration": 55, "velocity": 100}, {"time": 141460, "pitch": 58, "duration": 55, "velocity": 100}, {"time": 141460, "pitch": 61, "duration": 55, "velocity": 100}, {"time": 141460, "pitch": 65, "duration": 55, "velocity": 100}, {"time": 141460, "pitch": 77, "duration": 55, "velocity": 100}, {"time": 141515, "pitch": 53, "duration": 55, "velocity": 100}, {"time": 141515, "pitch": 75, "duration": 55, "velocity": 100}, {"time": 141570, "pitch": 58, "duration": 55, "velocity": 100}, {"time": 141570, "pitch": 72, "duration": 55, "velocity": 100}, {"time": 141625, "pitch": 58, "duration": 55, "velocity": 100}, {"time": 141625, "pitch": 73, "duration": 55, "velocity": 100}, {"time": 141680, "pitch": 46, "duration": 385, "velocity": 100}, {"time": 141680, "pitch": 58, "duration": 110, "velocity": 100}, {"time": 141680, "pitch": 61, "duration": 55, "velocity": 100}, {"time": 141680, "pitch": 65, "duration": 110, "velocity": 100}, {"time": 141680, "pitch": 70, "duration": 275, "velocity": 100}, {"time": 141790, "pitch": 53, "duration": 110, "velocity": 100}, {"time": 141900, "pitch": 58, "duration": 110, "velocity": 100}, {"time": 141900, "pitch": 61, "duration": 165, "velocity": 100}, {"time": 141900, "pitch": 65, "duration": 165, "velocity": 100}, {"time": 142010, "pitch": 53, "duration": 55, "velocity": 100}, {"time": 142065, "pitch": 58, "duration": 55, "velocity": 100}, {"time": 142120, "pitch": 46, "duration": 330, "velocity": 100}, {"time": 142120, "pitch": 58, "duration": 165, "velocity": 100}, {"time": 142120, "pitch": 61, "duration": 110, "velocity": 100}, {"time": 142230, "pitch": 53, "duration": 110, "velocity": 100}, {"time": 142230, "pitch": 75, "duration": 55, "velocity": 100}, {"time": 142285, "pitch": 70, "duration": 55, "velocity": 100}, {"time": 142285, "pitch": 77, "duration": 55, "velocity": 100}, {"time": 142340, "pitch": 58, "duration": 165, "velocity": 100}, {"time": 142340, "pitch": 61, "duration": 165, "velocity": 100}, {"time": 142340, "pitch": 65, "duration": 165, "velocity": 100}, {"time": 142340, "pitch": 70, "duration": 55, "velocity": 100}, {"time": 142340, "pitch": 75, "duration": 55, "velocity": 100}, {"time": 142395, "pitch": 75, "duration": 55, "velocity": 100}, {"time": 142450, "pitch": 53, "duration": 55, "velocity": 100}, {"time": 142450, "pitch": 73, "duration": 110, "velocity": 100}, {"time": 142450, "pitch": 77, "duration": 55, "velocity": 100}, {"time": 142560, "pitch": 46, "duration": 330, "velocity": 100}, {"time": 142560, "pitch": 58, "duration": 110, "velocity": 100}, {"time": 142560, "pitch": 61, "duration": 110, "velocity": 100}, {"time": 142560, "pitch": 65, "duration": 110, "velocity": 100}, {"time": 142560, "pitch": 70, "duration": 330, "velocity": 100}, {"time": 142560, "pitch": 73, "duration": 275, "velocity": 100}, {"time": 142670, "pitch": 53, "duration": 110, "velocity": 100}, {"time": 142725, "pitch": 58, "duration": 55, "velocity": 100}, {"time": 142780, "pitch": 58, "duration": 110, "velocity": 100}, {"time": 142780, "pitch": 61, "duration": 110, "velocity": 100}, {"time": 142780, "pitch": 65, "duration": 165, "velocity": 100}, {"time": 143000, "pitch": 46, "duration": 330, "velocity": 100}, {"time": 143000, "pitch": 58, "duration": 110, "velocity": 100}, {"time": 143000, "pitch": 61, "duration": 110, "velocity": 100}, {"time": 143055, "pitch": 75, "duration": 55, "velocity": 100}, {"time": 143110, "pitch": 53, "duration": 110, "velocity": 100}, {"time": 143110, "pitch": 70, "duration": 55, "velocity": 100}, {"time": 143110, "pitch": 75, "duration": 110, "velocity": 100}, {"time": 143220, "pitch": 58, "duration": 55, "velocity": 100}, {"time": 143220, "pitch": 61, "duration": 55, "velocity": 100}, {"time": 143220, "pitch": 65, "duration": 55, "velocity": 100}, {"time": 143220, "pitch": 75, "duration": 55, "velocity": 100}, {"time": 143275, "pitch": 53, "duration": 55, "velocity": 100}, {"time": 143275, "pitch": 75, "duration": 55, "velocity": 100}, {"time": 143330, "pitch": 58, "duration": 55, "velocity": 100}, {"time": 143330, "pitch": 73, "duration": 55, "velocity": 100}, {"time": 143385, "pitch": 61, "duration": 55, "velocity": 100}, {"time": 143385, "pitch": 72, "duration": 55, "velocity": 100}, {"time": 143440, "pitch": 46, "duration": 385, "velocity": 100}, {"time": 143440, "pitch": 58, "duration": 165, "velocity": 100}, {"time": 143440, "pitch": 61, "duration": 165, "velocity": 100}, {"time": 143440, "pitch": 65, "duration": 110, "velocity": 100}, {"time": 143440, "pitch": 73, "duration": 330, "velocity": 100}, {"time": 143550, "pitch": 53, "duration": 110, "velocity": 100}, {"time": 143660, "pitch": 58, "duration": 110, "velocity": 100}, {"time": 143660, "pitch": 61, "duration": 165, "velocity": 100}, {"time": 143660, "pitch": 65, "duration": 165, "velocity": 100}, {"time": 143770, "pitch": 53, "duration": 55, "velocity": 100}, {"time": 143770, "pitch": 70, "duration": 55, "velocity": 100}, {"time": 143825, "pitch": 53, "duration": 55, "velocity": 100}, {"time": 143825, "pitch": 70, "duration": 55, "velocity": 100}, {"time": 143825, "pitch": 73, "duration": 55, "velocity": 100}, {"time": 143880, "pitch": 46, "duration": 275, "velocity": 100}, {"time": 143880, "pitch": 58, "duration": 110, "velocity": 100}, {"time": 143880, "pitch": 70, "duration": 110, "velocity": 100}, {"time": 143990, "pitch": 53, "duration": 110, "velocity": 100}, {"time": 143990, "pitch": 70, "duration": 330, "velocity": 100}, {"time": 144100, "pitch": 58, "duration": 110, "velocity": 100}, {"time": 144100, "pitch": 61, "duration": 165, "velocity": 100}, {"time": 144100, "pitch": 65, "duration": 165, "velocity": 100}, {"time": 144210, "pitch": 53, "duration": 110, "velocity": 100}, {"time": 144210, "pitch": 65, "duration": 110, "velocity": 100}, {"time": 144265, "pitch": 68, "duration": 55, "velocity": 100}, {"time": 144320, "pitch": 48, "duration": 220, "velocity": 100}, {"time": 144320, "pitch": 60, "duration": 110, "velocity": 100}, {"time": 144320, "pitch": 67, "duration": 110, "velocity": 100}, {"time": 144430, "pitch": 55, "duration": 110, "velocity": 100}, {"time": 144430, "pitch": 84, "duration": 55, "velocity": 100}, {"time": 144485, "pitch": 89, "duration": 55, "velocity": 100}, {"time": 144540, "pitch": 55, "duration": 55, "velocity": 100}, {"time": 144540, "pitch": 60, "duration": 55, "velocity": 100}, {"time": 144540, "pitch": 64, "duration": 110, "velocity": 100}, {"time": 144540, "pitch": 84, "duration": 165, "velocity": 100}, {"time": 144595, "pitch": 89, "duration": 55, "velocity": 100}, {"time": 144650, "pitch": 60, "duration": 55, "velocity": 100}, {"time": 144760, "pitch": 48, "duration": 330, "velocity": 100}, {"time": 144760, "pitch": 55, "duration": 220, "velocity": 100}, {"time": 144760, "pitch": 60, "duration": 220, "velocity": 100}, {"time": 144760, "pitch": 88, "duration": 440, "velocity": 100}, {"time": 144870, "pitch": 52, "duration": 220, "velocity": 100}, {"time": 144980, "pitch": 64, "duration": 110, "velocity": 100}, {"time": 145200, "pitch": 48, "duration": 330, "velocity": 100}, {"time": 145200, "pitch": 60, "duration": 220, "velocity": 100}, {"time": 145200, "pitch": 64, "duration": 220, "velocity": 100}, {"time": 145310, "pitch": 55, "duration": 220, "velocity": 100}, {"time": 145420, "pitch": 67, "duration": 110, "velocity": 100}, {"time": 145530, "pitch": 64, "duration": 110, "velocity": 100}, {"time": 145640, "pitch": 48, "duration": 330, "velocity": 100}, {"time": 145640, "pitch": 67, "duration": 220, "velocity": 100}, {"time": 145750, "pitch": 55, "duration": 165, "velocity": 100}, {"time": 145860, "pitch": 60, "duration": 55, "velocity": 100}, {"time": 145860, "pitch": 64, "duration": 110, "velocity": 100}, {"time": 146080, "pitch": 48, "duration": 330, "velocity": 100}, {"time": 146080, "pitch": 60, "duration": 165, "velocity": 100}, {"time": 146080, "pitch": 64, "duration": 220, "velocity": 100}, {"time": 146190, "pitch": 55, "duration": 165, "velocity": 100}, {"time": 146300, "pitch": 67, "duration": 110, "velocity": 100}, {"time": 146410, "pitch": 64, "duration": 55, "velocity": 100}, {"time": 146520, "pitch": 48, "duration": 275, "velocity": 100}, {"time": 146520, "pitch": 67, "duration": 220, "velocity": 100}, {"time": 146630, "pitch": 55, "duration": 165, "velocity": 100}, {"time": 146740, "pitch": 62, "duration": 55, "velocity": 100}, {"time": 146740, "pitch": 67, "duration": 55, "velocity": 100}, {"time": 146960, "pitch": 48, "duration": 330, "velocity": 100}, {"time": 146960, "pitch": 60, "duration": 110, "velocity": 100}, {"time": 146960, "pitch": 64, "duration": 110, "velocity": 100}, {"time": 147070, "pitch": 52, "duration": 220, "velocity": 100}, {"time": 147180, "pitch": 55, "duration": 110, "velocity": 100}, {"time": 147235, "pitch": 60, "duration": 55, "velocity": 100}, {"time": 147290, "pitch": 64, "duration": 55, "velocity": 100}, {"time": 147400, "pitch": 48, "duration": 330, "velocity": 100}, {"time": 147400, "pitch": 60, "duration": 165, "velocity": 100}, {"time": 147400, "pitch": 64, "duration": 110, "velocity": 100}, {"time": 147400, "pitch": 67, "duration": 110, "velocity": 100}, {"time": 147510, "pitch": 55, "duration": 165, "velocity": 100}, {"time": 147620, "pitch": 62, "duration": 110, "velocity": 100}, {"time": 147620, "pitch": 67, "duration": 110, "velocity": 100}, {"time": 147730, "pitch": 60, "duration": 55, "velocity": 100}, {"time": 147840, "pitch": 40, "duration": 165, "velocity": 100}, {"time": 147840, "pitch": 55, "duration": 110, "velocity": 100}, {"time": 147840, "pitch": 64, "duration": 165, "velocity": 100}, {"time": 147950, "pitch": 51, "duration": 110, "velocity": 100}, {"time": 148060, "pitch": 49, "duration": 55, "velocity": 100}, {"time": 148060, "pitch": 56, "duration": 55, "velocity": 100}, {"time": 148060, "pitch": 60, "duration": 110, "velocity": 100}, {"time": 148170, "pitch": 56, "duration": 55, "velocity": 100}, {"time": 148280, "pitch": 37, "duration": 385, "velocity": 100}, {"time": 148280, "pitch": 52, "duration": 275, "velocity": 100}, {"time": 148280, "pitch": 56, "duration": 440, "velocity": 100}, {"time": 148390, "pitch": 49, "duration": 220, "velocity": 100}, {"time": 148390, "pitch": 80, "duration": 55, "velocity": 100}, {"time": 148445, "pitch": 83, "duration": 55, "velocity": 100}, {"time": 148500, "pitch": 61, "duration": 110, "velocity": 100}, {"time": 148500, "pitch": 80, "duration": 55, "velocity": 100}, {"time": 148555, "pitch": 83, "duration": 55, "velocity": 100}, {"time": 148720, "pitch": 49, "duration": 385, "velocity": 100}, {"time": 148720, "pitch": 56, "duration": 165, "velocity": 100}, {"time": 148720, "pitch": 64, "duration": 220, "velocity": 100}, {"time": 148720, "pitch": 85, "duration": 220, "velocity": 100}, {"time": 148830, "pitch": 52, "duration": 220, "velocity": 100}, {"time": 148940, "pitch": 64, "duration": 110, "velocity": 100}, {"time": 148940, "pitch": 71, "duration": 110, "velocity": 100}, {"time": 149050, "pitch": 61, "duration": 110, "velocity": 100}, {"time": 149050, "pitch": 66, "duration": 55, "velocity": 100}, {"time": 149160, "pitch": 49, "duration": 275, "velocity": 100}, {"time": 149160, "pitch": 64, "duration": 330, "velocity": 100}, {"time": 149270, "pitch": 56, "duration": 165, "velocity": 100}, {"time": 149380, "pitch": 61, "duration": 165, "velocity": 100}, {"time": 149380, "pitch": 64, "duration": 220, "velocity": 100}, {"time": 149600, "pitch": 49, "duration": 275, "velocity": 100}, {"time": 149600, "pitch": 56, "duration": 220, "velocity": 100}, {"time": 149600, "pitch": 61, "duration": 220, "velocity": 100}, {"time": 149600, "pitch": 64, "duration": 220, "velocity": 100}, {"time": 149710, "pitch": 56, "duration": 165, "velocity": 100}, {"time": 149820, "pitch": 61, "duration": 110, "velocity": 100}, {"time": 149820, "pitch": 64, "duration": 110, "velocity": 100}, {"time": 149930, "pitch": 56, "duration": 110, "velocity": 100}, {"time": 149930, "pitch": 61, "duration": 110, "velocity": 100}, {"time": 150040, "pitch": 49, "duration": 275, "velocity": 100}, {"time": 150040, "pitch": 64, "duration": 275, "velocity": 100}, {"time": 150150, "pitch": 56, "duration": 165, "velocity": 100}, {"time": 150260, "pitch": 61, "duration": 55, "velocity": 100}, {"time": 150260, "pitch": 64, "duration": 220, "velocity": 100}, {"time": 150480, "pitch": 37, "duration": 385, "velocity": 100}, {"time": 150480, "pitch": 56, "duration": 220, "velocity": 100}, {"time": 150480, "pitch": 61, "duration": 220, "velocity": 100}, {"time": 150590, "pitch": 49, "duration": 275, "velocity": 100}, {"time": 150590, "pitch": 59, "duration": 110, "velocity": 100}, {"time": 150700, "pitch": 56, "duration": 110, "velocity": 100}, {"time": 150700, "pitch": 61, "duration": 55, "velocity": 100}, {"time": 150755, "pitch": 64, "duration": 55, "velocity": 100}, {"time": 150810, "pitch": 63, "duration": 55, "velocity": 100}, {"time": 150810, "pitch": 68, "duration": 55, "velocity": 100}, {"time": 150865, "pitch": 68, "duration": 55, "velocity": 100}, {"time": 150920, "pitch": 37, "duration": 275, "velocity": 100}, {"time": 150920, "pitch": 56, "duration": 165, "velocity": 100}, {"time": 150920, "pitch": 61, "duration": 220, "velocity": 100}, {"time": 150920, "pitch": 64, "duration": 220, "velocity": 100}, {"time": 150920, "pitch": 66, "duration": 220, "velocity": 100}, {"time": 151030, "pitch": 49, "duration": 165, "velocity": 100}, {"time": 151140, "pitch": 56, "duration": 110, "velocity": 100}, {"time": 151140, "pitch": 64, "duration": 220, "velocity": 100}, {"time": 151250, "pitch": 56, "duration": 55, "velocity": 100}, {"time": 151360, "pitch": 49, "duration": 825, "velocity": 100}, {"time": 151360, "pitch": 61, "duration": 110, "velocity": 100}, {"time": 151360, "pitch": 64, "duration": 110, "velocity": 100}, {"time": 151470, "pitch": 56, "duration": 165, "velocity": 100}, {"time": 151580, "pitch": 61, "duration": 110, "velocity": 100}, {"time": 151580, "pitch": 64, "duration": 110, "velocity": 100}, {"time": 151580, "pitch": 76, "duration": 110, "velocity": 100}, {"time": 151690, "pitch": 56, "duration": 165, "velocity": 100}, {"time": 151690, "pitch": 76, "duration": 110, "velocity": 100}, {"time": 151800, "pitch": 61, "duration": 55, "velocity": 100}, {"time": 151800, "pitch": 64, "duration": 110, "velocity": 100}, {"time": 151800, "pitch": 68, "duration": 220, "velocity": 100}, {"time": 151800, "pitch": 73, "duration": 330, "velocity": 100}, {"time": 151910, "pitch": 56, "duration": 220, "velocity": 100}, {"time": 152020, "pitch": 61, "duration": 55, "velocity": 100}, {"time": 152020, "pitch": 64, "duration": 55, "velocity": 100}, {"time": 152130, "pitch": 63, "duration": 110, "velocity": 100}, {"time": 152240, "pitch": 44, "duration": 770, "velocity": 100}, {"time": 152240, "pitch": 64, "duration": 220, "velocity": 100}, {"time": 152350, "pitch": 52, "duration": 165, "velocity": 100}, {"time": 152460, "pitch": 61, "duration": 165, "velocity": 100}, {"time": 152460, "pitch": 76, "duration": 110, "velocity": 100}, {"time": 152570, "pitch": 52, "duration": 165, "velocity": 100}, {"time": 152570, "pitch": 76, "duration": 55, "velocity": 100}, {"time": 152680, "pitch": 61, "duration": 165, "velocity": 100}, {"time": 152680, "pitch": 64, "duration": 165, "velocity": 100}, {"time": 152680, "pitch": 76, "duration": 385, "velocity": 100}, {"time": 152790, "pitch": 52, "duration": 220, "velocity": 100}, {"time": 152900, "pitch": 56, "duration": 110, "velocity": 100}, {"time": 153010, "pitch": 56, "duration": 110, "velocity": 100}, {"time": 153120, "pitch": 40, "duration": 550, "velocity": 100}, {"time": 153120, "pitch": 52, "duration": 110, "velocity": 100}, {"time": 153230, "pitch": 49, "duration": 385, "velocity": 100}, {"time": 153340, "pitch": 52, "duration": 220, "velocity": 100}, {"time": 153340, "pitch": 61, "duration": 110, "velocity": 100}, {"time": 153340, "pitch": 73, "duration": 55, "velocity": 100}, {"time": 153450, "pitch": 49, "duration": 165, "velocity": 100}, {"time": 153450, "pitch": 71, "duration": 55, "velocity": 100}, {"time": 153560, "pitch": 56, "duration": 220, "velocity": 100}, {"time": 153560, "pitch": 64, "duration": 220, "velocity": 100}, {"time": 153560, "pitch": 68, "duration": 440, "velocity": 100}, {"time": 153670, "pitch": 49, "duration": 165, "velocity": 100}, {"time": 153780, "pitch": 56, "duration": 110, "velocity": 100}, {"time": 153780, "pitch": 61, "duration": 110, "velocity": 100}, {"time": 153890, "pitch": 52, "duration": 55, "velocity": 100}, {"time": 154000, "pitch": 49, "duration": 385, "velocity": 100}, {"time": 154000, "pitch": 61, "duration": 330, "velocity": 100}, {"time": 154000, "pitch": 73, "duration": 220, "velocity": 100}, {"time": 154110, "pitch": 56, "duration": 165, "velocity": 100}, {"time": 154220, "pitch": 68, "duration": 110, "velocity": 100}, {"time": 154330, "pitch": 52, "duration": 110, "velocity": 100}, {"time": 154330, "pitch": 73, "duration": 55, "velocity": 100}, {"time": 154440, "pitch": 49, "duration": 385, "velocity": 100}, {"time": 154440, "pitch": 61, "duration": 165, "velocity": 100}, {"time": 154440, "pitch": 64, "duration": 165, "velocity": 100}, {"time": 154440, "pitch": 68, "duration": 110, "velocity": 100}, {"time": 154440, "pitch": 71, "duration": 110, "velocity": 100}, {"time": 154550, "pitch": 56, "duration": 220, "velocity": 100}, {"time": 154550, "pitch": 68, "duration": 110, "velocity": 100}, {"time": 154660, "pitch": 61, "duration": 220, "velocity": 100}, {"time": 154660, "pitch": 64, "duration": 220, "velocity": 100}, {"time": 154660, "pitch": 66, "duration": 220, "velocity": 100}, {"time": 154770, "pitch": 56, "duration": 110, "velocity": 100}, {"time": 154770, "pitch": 64, "duration": 110, "velocity": 100}, {"time": 154880, "pitch": 37, "duration": 715, "velocity": 100}, {"time": 154880, "pitch": 64, "duration": 330, "velocity": 100}, {"time": 154990, "pitch": 49, "duration": 165, "velocity": 100}, {"time": 155100, "pitch": 56, "duration": 440, "velocity": 100}, {"time": 155210, "pitch": 49, "duration": 385, "velocity": 100}, {"time": 155320, "pitch": 61, "duration": 165, "velocity": 100}, {"time": 155430, "pitch": 56, "duration": 110, "velocity": 100}, {"time": 155430, "pitch": 73, "duration": 110, "velocity": 100}, {"time": 155540, "pitch": 56, "duration": 55, "velocity": 100}, {"time": 155540, "pitch": 64, "duration": 110, "velocity": 100}, {"time": 155540, "pitch": 73, "duration": 110, "velocity": 100}, {"time": 155650, "pitch": 66, "duration": 110, "velocity": 100}, {"time": 155760, "pitch": 49, "duration": 715, "velocity": 100}, {"time": 155760, "pitch": 56, "duration": 220, "velocity": 100}, {"time": 155760, "pitch": 64, "duration": 440, "velocity": 100}, {"time": 155870, "pitch": 52, "duration": 385, "velocity": 100}, {"time": 155980, "pitch": 61, "duration": 165, "velocity": 100}, {"time": 156090, "pitch": 56, "duration": 110, "velocity": 100}, {"time": 156200, "pitch": 61, "duration": 220, "velocity": 100}, {"time": 156200, "pitch": 64, "duration": 220, "velocity": 100}, {"time": 156310, "pitch": 52, "duration": 220, "velocity": 100}, {"time": 156310, "pitch": 73, "duration": 110, "velocity": 100}, {"time": 156420, "pitch": 61, "duration": 110, "velocity": 100}, {"time": 156420, "pitch": 68, "duration": 110, "velocity": 100}, {"time": 156530, "pitch": 56, "duration": 110, "velocity": 100}, {"time": 156530, "pitch": 64, "duration": 110, "velocity": 100}, {"time": 156640, "pitch": 49, "duration": 715, "velocity": 100}, {"time": 156640, "pitch": 61, "duration": 440, "velocity": 100}, {"time": 156640, "pitch": 64, "duration": 440, "velocity": 100}, {"time": 156750, "pitch": 56, "duration": 385, "velocity": 100}, {"time": 156860, "pitch": 68, "duration": 165, "velocity": 100}, {"time": 156970, "pitch": 56, "duration": 165, "velocity": 100}, {"time": 157080, "pitch": 64, "duration": 220, "velocity": 100}, {"time": 157080, "pitch": 68, "duration": 220, "velocity": 100}, {"time": 157080, "pitch": 73, "duration": 440, "velocity": 100}, {"time": 157190, "pitch": 56, "duration": 165, "velocity": 100}, {"time": 157300, "pitch": 61, "duration": 110, "velocity": 100}, {"time": 157300, "pitch": 68, "duration": 220, "velocity": 100}, {"time": 157410, "pitch": 61, "duration": 55, "velocity": 100}, {"time": 157520, "pitch": 37, "duration": 715, "velocity": 100}, {"time": 157520, "pitch": 61, "duration": 220, "velocity": 100}, {"time": 157520, "pitch": 64, "duration": 220, "velocity": 100}, {"time": 157520, "pitch": 68, "duration": 330, "velocity": 100}, {"time": 157630, "pitch": 49, "duration": 495, "velocity": 100}, {"time": 157740, "pitch": 61, "duration": 55, "velocity": 100}, {"time": 157740, "pitch": 68, "duration": 220, "velocity": 100}, {"time": 157850, "pitch": 64, "duration": 110, "velocity": 100}, {"time": 157850, "pitch": 68, "duration": 220, "velocity": 100}, {"time": 157960, "pitch": 68, "duration": 110, "velocity": 100}, {"time": 157960, "pitch": 71, "duration": 220, "velocity": 100}, {"time": 158070, "pitch": 64, "duration": 55, "velocity": 100}, {"time": 158070, "pitch": 68, "duration": 110, "velocity": 100}, {"time": 158180, "pitch": 61, "duration": 55, "velocity": 100}, {"time": 158180, "pitch": 64, "duration": 110, "velocity": 100}, {"time": 158180, "pitch": 71, "duration": 220, "velocity": 100}, {"time": 158290, "pitch": 64, "duration": 55, "velocity": 100}, {"time": 158400, "pitch": 49, "duration": 770, "velocity": 100}, {"time": 158400, "pitch": 61, "duration": 165, "velocity": 100}, {"time": 158400, "pitch": 64, "duration": 220, "velocity": 100}, {"time": 158400, "pitch": 72, "duration": 660, "velocity": 100}, {"time": 158510, "pitch": 55, "duration": 165, "velocity": 100}, {"time": 158620, "pitch": 60, "duration": 110, "velocity": 100}, {"time": 158620, "pitch": 64, "duration": 110, "velocity": 100}, {"time": 158730, "pitch": 55, "duration": 165, "velocity": 100}, {"time": 158840, "pitch": 60, "duration": 165, "velocity": 100}, {"time": 158840, "pitch": 64, "duration": 165, "velocity": 100}, {"time": 158840, "pitch": 67, "duration": 165, "velocity": 100}, {"time": 158950, "pitch": 55, "duration": 165, "velocity": 100}, {"time": 158950, "pitch": 74, "duration": 110, "velocity": 100}, {"time": 159060, "pitch": 60, "duration": 55, "velocity": 100}, {"time": 159060, "pitch": 64, "duration": 110, "velocity": 100}, {"time": 159060, "pitch": 77, "duration": 110, "velocity": 100}, {"time": 159170, "pitch": 64, "duration": 110, "velocity": 100}, {"time": 159170, "pitch": 76, "duration": 110, "velocity": 100}, {"time": 159280, "pitch": 48, "duration": 715, "velocity": 100}, {"time": 159280, "pitch": 64, "duration": 220, "velocity": 100}, {"time": 159280, "pitch": 79, "duration": 440, "velocity": 100}, {"time": 159390, "pitch": 55, "duration": 165, "velocity": 100}, {"time": 159500, "pitch": 60, "duration": 165, "velocity": 100}, {"time": 159500, "pitch": 84, "duration": 110, "velocity": 100}, {"time": 159610, "pitch": 55, "duration": 165, "velocity": 100}, {"time": 159610, "pitch": 84, "duration": 110, "velocity": 100}, {"time": 159720, "pitch": 60, "duration": 55, "velocity": 100}, {"time": 159720, "pitch": 67, "duration": 165, "velocity": 100}, {"time": 159720, "pitch": 84, "duration": 330, "velocity": 100}, {"time": 159830, "pitch": 52, "duration": 220, "velocity": 100}, {"time": 159940, "pitch": 60, "duration": 110, "velocity": 100}, {"time": 160050, "pitch": 55, "duration": 110, "velocity": 100}, {"time": 160160, "pitch": 48, "duration": 275, "velocity": 100}, {"time": 160160, "pitch": 55, "duration": 165, "velocity": 100}, {"time": 160160, "pitch": 60, "duration": 110, "velocity": 100}, {"time": 160160, "pitch": 84, "duration": 440, "velocity": 100}, {"time": 160270, "pitch": 48, "duration": 220, "velocity": 100}, {"time": 160380, "pitch": 55, "duration": 55, "velocity": 100}, {"time": 160380, "pitch": 60, "duration": 110, "velocity": 100}, {"time": 160380, "pitch": 64, "duration": 220, "velocity": 100}, {"time": 160380, "pitch": 67, "duration": 220, "velocity": 100}, {"time": 160380, "pitch": 88, "duration": 220, "velocity": 100}, {"time": 160490, "pitch": 55, "duration": 110, "velocity": 100}, {"time": 160600, "pitch": 48, "duration": 275, "velocity": 100}, {"time": 160600, "pitch": 84, "duration": 440, "velocity": 100}, {"time": 160600, "pitch": 88, "duration": 440, "velocity": 100}, {"time": 160710, "pitch": 55, "duration": 165, "velocity": 100}, {"time": 160820, "pitch": 60, "duration": 55, "velocity": 100}, {"time": 160820, "pitch": 64, "duration": 110, "velocity": 100}, {"time": 160820, "pitch": 67, "duration": 220, "velocity": 100}, {"time": 160930, "pitch": 60, "duration": 110, "velocity": 100}, {"time": 161040, "pitch": 36, "duration": 385, "velocity": 100}, {"time": 161040, "pitch": 60, "duration": 165, "velocity": 100}, {"time": 161040, "pitch": 64, "duration": 165, "velocity": 100}, {"time": 161040, "pitch": 79, "duration": 440, "velocity": 100}, {"time": 161040, "pitch": 84, "duration": 440, "velocity": 100}, {"time": 161150, "pitch": 48, "duration": 275, "velocity": 100}, {"time": 161260, "pitch": 64, "duration": 110, "velocity": 100}, {"time": 161260, "pitch": 67, "duration": 110, "velocity": 100}, {"time": 161370, "pitch": 60, "duration": 110, "velocity": 100}, {"time": 161370, "pitch": 72, "duration": 110, "velocity": 100}, {"time": 161480, "pitch": 36, "duration": 385, "velocity": 100}, {"time": 161480, "pitch": 64, "duration": 165, "velocity": 100}, {"time": 161480, "pitch": 67, "duration": 165, "velocity": 100}, {"time": 161480, "pitch": 76, "duration": 110, "velocity": 100}, {"time": 161590, "pitch": 48, "duration": 330, "velocity": 100}, {"time": 161590, "pitch": 74, "duration": 110, "velocity": 100}, {"time": 161700, "pitch": 60, "duration": 55, "velocity": 100}, {"time": 161700, "pitch": 64, "duration": 110, "velocity": 100}, {"time": 161700, "pitch": 79, "duration": 110, "velocity": 100}, {"time": 161810, "pitch": 67, "duration": 110, "velocity": 100}, {"time": 161810, "pitch": 81, "duration": 110, "velocity": 100}, {"time": 161920, "pitch": 48, "duration": 770, "velocity": 100}, {"time": 161920, "pitch": 64, "duration": 110, "velocity": 100}, {"time": 161920, "pitch": 67, "duration": 110, "velocity": 100}, {"time": 161920, "pitch": 76, "duration": 660, "velocity": 100}, {"time": 162030, "pitch": 60, "duration": 165, "velocity": 100}, {"time": 162140, "pitch": 64, "duration": 110, "velocity": 100}, {"time": 162140, "pitch": 67, "duration": 110, "velocity": 100}, {"time": 162250, "pitch": 60, "duration": 165, "velocity": 100}, {"time": 162360, "pitch": 64, "duration": 165, "velocity": 100}, {"time": 162360, "pitch": 67, "duration": 110, "velocity": 100}, {"time": 162360, "pitch": 72, "duration": 110, "velocity": 100}, {"time": 162470, "pitch": 60, "duration": 220, "velocity": 100}, {"time": 162470, "pitch": 76, "duration": 110, "velocity": 100}, {"time": 162580, "pitch": 62, "duration": 55, "velocity": 100}, {"time": 162580, "pitch": 67, "duration": 110, "velocity": 100}, {"time": 162580, "pitch": 79, "duration": 110, "velocity": 100}, {"time": 162690, "pitch": 64, "duration": 110, "velocity": 100}, {"time": 162690, "pitch": 76, "duration": 110, "velocity": 100}, {"time": 162800, "pitch": 48, "duration": 770, "velocity": 100}, {"time": 162800, "pitch": 67, "duration": 220, "velocity": 100}, {"time": 162800, "pitch": 84, "duration": 440, "velocity": 100}, {"time": 162910, "pitch": 55, "duration": 165, "velocity": 100}, {"time": 163020, "pitch": 64, "duration": 165, "velocity": 100}, {"time": 163020, "pitch": 88, "duration": 110, "velocity": 100}, {"time": 163130, "pitch": 55, "duration": 165, "velocity": 100}, {"time": 163130, "pitch": 84, "duration": 110, "velocity": 100}, {"time": 163240, "pitch": 64, "duration": 165, "velocity": 100}, {"time": 163240, "pitch": 67, "duration": 165, "velocity": 100}, {"time": 163240, "pitch": 88, "duration": 330, "velocity": 100}, {"time": 163350, "pitch": 55, "duration": 220, "velocity": 100}, {"time": 163460, "pitch": 60, "duration": 110, "velocity": 100}, {"time": 163570, "pitch": 55, "duration": 110, "velocity": 100}, {"time": 163680, "pitch": 48, "duration": 275, "velocity": 100}, {"time": 163680, "pitch": 55, "duration": 110, "velocity": 100}, {"time": 163680, "pitch": 64, "duration": 110, "velocity": 100}, {"time": 163680, "pitch": 84, "duration": 440, "velocity": 100}, {"time": 163790, "pitch": 52, "duration": 165, "velocity": 100}, {"time": 163900, "pitch": 55, "duration": 55, "velocity": 100}, {"time": 163900, "pitch": 60, "duration": 110, "velocity": 100}, {"time": 163900, "pitch": 64, "duration": 220, "velocity": 100}, {"time": 163900, "pitch": 67, "duration": 220, "velocity": 100}, {"time": 163900, "pitch": 88, "duration": 220, "velocity": 100}, {"time": 164010, "pitch": 55, "duration": 110, "velocity": 100}, {"time": 164120, "pitch": 48, "duration": 275, "velocity": 100}, {"time": 164120, "pitch": 84, "duration": 440, "velocity": 100}, {"time": 164120, "pitch": 88, "duration": 440, "velocity": 100}, {"time": 164230, "pitch": 55, "duration": 165, "velocity": 100}, {"time": 164340, "pitch": 60, "duration": 55, "velocity": 100}, {"time": 164340, "pitch": 64, "duration": 110, "velocity": 100}, {"time": 164340, "pitch": 67, "duration": 220, "velocity": 100}, {"time": 164450, "pitch": 60, "duration": 110, "velocity": 100}, {"time": 164560, "pitch": 48, "duration": 385, "velocity": 100}, {"time": 164560, "pitch": 55, "duration": 165, "velocity": 100}, {"time": 164560, "pitch": 60, "duration": 165, "velocity": 100}, {"time": 164560, "pitch": 64, "duration": 220, "velocity": 100}, {"time": 164560, "pitch": 84, "duration": 440, "velocity": 100}, {"time": 164670, "pitch": 52, "duration": 110, "velocity": 100}, {"time": 164780, "pitch": 60, "duration": 110, "velocity": 100}, {"time": 164780, "pitch": 64, "duration": 110, "velocity": 100}, {"time": 164890, "pitch": 55, "duration": 55, "velocity": 100}, {"time": 164890, "pitch": 81, "duration": 55, "velocity": 100}, {"time": 164945, "pitch": 79, "duration": 55, "velocity": 100}, {"time": 165000, "pitch": 48, "duration": 275, "velocity": 100}, {"time": 165000, "pitch": 60, "duration": 165, "velocity": 100}, {"time": 165000, "pitch": 64, "duration": 165, "velocity": 100}, {"time": 165000, "pitch": 79, "duration": 220, "velocity": 100}, {"time": 165110, "pitch": 55, "duration": 165, "velocity": 100}, {"time": 165220, "pitch": 60, "duration": 55, "velocity": 100}, {"time": 165220, "pitch": 64, "duration": 220, "velocity": 100}, {"time": 165220, "pitch": 67, "duration": 220, "velocity": 100}, {"time": 165220, "pitch": 72, "duration": 220, "velocity": 100}, {"time": 165220, "pitch": 76, "duration": 110, "velocity": 100}, {"time": 165330, "pitch": 74, "duration": 110, "velocity": 100}, {"time": 165440, "pitch": 41, "duration": 715, "velocity": 100}, {"time": 165550, "pitch": 48, "duration": 165, "velocity": 100}, {"time": 165660, "pitch": 58, "duration": 440, "velocity": 100}, {"time": 165770, "pitch": 49, "duration": 385, "velocity": 100}, {"time": 165880, "pitch": 61, "duration": 165, "velocity": 100}, {"time": 165990, "pitch": 53, "duration": 110, "velocity": 100}, {"time": 165990, "pitch": 72, "duration": 110, "velocity": 100}, {"time": 166100, "pitch": 58, "duration": 55, "velocity": 100}, {"time": 166100, "pitch": 61, "duration": 55, "velocity": 100}, {"time": 166100, "pitch": 70, "duration": 110, "velocity": 100}, {"time": 166210, "pitch": 65, "duration": 110, "velocity": 100}, {"time": 166320, "pitch": 46, "duration": 715, "velocity": 100}, {"time": 166320, "pitch": 58, "duration": 220, "velocity": 100}, {"time": 166320, "pitch": 61, "duration": 220, "velocity": 100}, {"time": 166320, "pitch": 65, "duration": 440, "velocity": 100}, {"time": 166430, "pitch": 53, "duration": 385, "velocity": 100}, {"time": 166540, "pitch": 61, "duration": 165, "velocity": 100}, {"time": 166650, "pitch": 58, "duration": 110, "velocity": 100}, {"time": 166760, "pitch": 61, "duration": 220, "velocity": 100}, {"time": 166760, "pitch": 65, "duration": 440, "velocity": 100}, {"time": 166870, "pitch": 53, "duration": 220, "velocity": 100}, {"time": 166870, "pitch": 73, "duration": 110, "velocity": 100}, {"time": 166980, "pitch": 61, "duration": 110, "velocity": 100}, {"time": 166980, "pitch": 70, "duration": 110, "velocity": 100}, {"time": 167090, "pitch": 58, "duration": 110, "velocity": 100}, {"time": 167090, "pitch": 65, "duration": 110, "velocity": 100}, {"time": 167200, "pitch": 46, "duration": 715, "velocity": 100}, {"time": 167200, "pitch": 58, "duration": 440, "velocity": 100}, {"time": 167200, "pitch": 61, "duration": 440, "velocity": 100}, {"time": 167310, "pitch": 53, "duration": 385, "velocity": 100}, {"time": 167420, "pitch": 65, "duration": 165, "velocity": 100}, {"time": 167530, "pitch": 58, "duration": 165, "velocity": 100}, {"time": 167640, "pitch": 61, "duration": 220, "velocity": 100}, {"time": 167640, "pitch": 65, "duration": 220, "velocity": 100}, {"time": 167640, "pitch": 70, "duration": 440, "velocity": 100}, {"time": 167750, "pitch": 53, "duration": 165, "velocity": 100}, {"time": 167860, "pitch": 61, "duration": 110, "velocity": 100}, {"time": 167860, "pitch": 65, "duration": 220, "velocity": 100}, {"time": 167970, "pitch": 58, "duration": 55, "velocity": 100}, {"time": 168080, "pitch": 46, "duration": 715, "velocity": 100}, {"time": 168080, "pitch": 61, "duration": 220, "velocity": 100}, {"time": 168080, "pitch": 65, "duration": 220, "velocity": 100}, {"time": 168080, "pitch": 70, "duration": 440, "velocity": 100}, {"time": 168190, "pitch": 53, "duration": 495, "velocity": 100}, {"time": 168300, "pitch": 61, "duration": 165, "velocity": 100}, {"time": 168300, "pitch": 65, "duration": 110, "velocity": 100}, {"time": 168410, "pitch": 65, "duration": 110, "velocity": 100}, {"time": 168410, "pitch": 68, "duration": 110, "velocity": 100}, {"time": 168520, "pitch": 65, "duration": 110, "velocity": 100}, {"time": 168520, "pitch": 70, "duration": 220, "velocity": 100}, {"time": 168630, "pitch": 63, "duration": 55, "velocity": 100}, {"time": 168630, "pitch": 68, "duration": 110, "velocity": 100}, {"time": 168740, "pitch": 61, "duration": 55, "velocity": 100}, {"time": 168740, "pitch": 65, "duration": 110, "velocity": 100}, {"time": 168740, "pitch": 70, "duration": 220, "velocity": 100}, {"time": 168850, "pitch": 65, "duration": 55, "velocity": 100}, {"time": 168960, "pitch": 53, "duration": 770, "velocity": 100}, {"time": 168960, "pitch": 65, "duration": 110, "velocity": 100}, {"time": 168960, "pitch": 68, "duration": 110, "velocity": 100}, {"time": 168960, "pitch": 77, "duration": 660, "velocity": 100}, {"time": 169070, "pitch": 60, "duration": 165, "velocity": 100}, {"time": 169180, "pitch": 65, "duration": 110, "velocity": 100}, {"time": 169180, "pitch": 68, "duration": 110, "velocity": 100}, {"time": 169290, "pitch": 60, "duration": 165, "velocity": 100}, {"time": 169400, "pitch": 65, "duration": 165, "velocity": 100}, {"time": 169400, "pitch": 68, "duration": 165, "velocity": 100}, {"time": 169400, "pitch": 72, "duration": 110, "velocity": 100}, {"time": 169510, "pitch": 60, "duration": 220, "velocity": 100}, {"time": 169510, "pitch": 77, "duration": 110, "velocity": 100}, {"time": 169620, "pitch": 65, "duration": 55, "velocity": 100}, {"time": 169620, "pitch": 68, "duration": 110, "velocity": 100}, {"time": 169620, "pitch": 82, "duration": 110, "velocity": 100}, {"time": 169730, "pitch": 68, "duration": 110, "velocity": 100}, {"time": 169730, "pitch": 79, "duration": 110, "velocity": 100}, {"time": 169840, "pitch": 48, "duration": 770, "velocity": 100}, {"time": 169840, "pitch": 68, "duration": 220, "velocity": 100}, {"time": 169840, "pitch": 84, "duration": 440, "velocity": 100}, {"time": 169950, "pitch": 56, "duration": 165, "velocity": 100}, {"time": 170060, "pitch": 65, "duration": 165, "velocity": 100}, {"time": 170060, "pitch": 87, "duration": 110, "velocity": 100}, {"time": 170170, "pitch": 56, "duration": 165, "velocity": 100}, {"time": 170170, "pitch": 87, "duration": 110, "velocity": 100}, {"time": 170280, "pitch": 65, "duration": 55, "velocity": 100}, {"time": 170280, "pitch": 68, "duration": 165, "velocity": 100}, {"time": 170280, "pitch": 89, "duration": 440, "velocity": 100}, {"time": 170390, "pitch": 56, "duration": 220, "velocity": 100}, {"time": 170500, "pitch": 60, "duration": 110, "velocity": 100}, {"time": 170610, "pitch": 60, "duration": 110, "velocity": 100}, {"time": 170720, "pitch": 41, "duration": 330, "velocity": 100}, {"time": 170720, "pitch": 60, "duration": 110, "velocity": 100}, {"time": 170720, "pitch": 65, "duration": 110, "velocity": 100}, {"time": 170720, "pitch": 84, "duration": 440, "velocity": 100}, {"time": 170830, "pitch": 53, "duration": 165, "velocity": 100}, {"time": 170940, "pitch": 60, "duration": 55, "velocity": 100}, {"time": 170940, "pitch": 65, "duration": 110, "velocity": 100}, {"time": 170940, "pitch": 68, "duration": 220, "velocity": 100}, {"time": 170940, "pitch": 72, "duration": 220, "velocity": 100}, {"time": 170940, "pitch": 89, "duration": 220, "velocity": 100}, {"time": 171050, "pitch": 56, "duration": 110, "velocity": 100}, {"time": 171160, "pitch": 53, "duration": 275, "velocity": 100}, {"time": 171160, "pitch": 84, "duration": 440, "velocity": 100}, {"time": 171160, "pitch": 89, "duration": 440, "velocity": 100}, {"time": 171270, "pitch": 60, "duration": 165, "velocity": 100}, {"time": 171380, "pitch": 65, "duration": 110, "velocity": 100}, {"time": 171380, "pitch": 68, "duration": 110, "velocity": 100}, {"time": 171380, "pitch": 72, "duration": 110, "velocity": 100}, {"time": 171490, "pitch": 60, "duration": 110, "velocity": 100}, {"time": 171600, "pitch": 41, "duration": 330, "velocity": 100}, {"time": 171600, "pitch": 56, "duration": 165, "velocity": 100}, {"time": 171600, "pitch": 60, "duration": 165, "velocity": 100}, {"time": 171600, "pitch": 65, "duration": 165, "velocity": 100}, {"time": 171600, "pitch": 84, "duration": 330, "velocity": 100}, {"time": 171600, "pitch": 89, "duration": 330, "velocity": 100}, {"time": 171710, "pitch": 53, "duration": 110, "velocity": 100}, {"time": 171820, "pitch": 60, "duration": 110, "velocity": 100}, {"time": 171820, "pitch": 65, "duration": 110, "velocity": 100}, {"time": 171820, "pitch": 68, "duration": 110, "velocity": 100}, {"time": 171930, "pitch": 56, "duration": 55, "velocity": 100}, {"time": 171930, "pitch": 82, "duration": 55, "velocity": 100}, {"time": 171985, "pitch": 80, "duration": 55, "velocity": 100}, {"time": 172040, "pitch": 53, "duration": 275, "velocity": 100}, {"time": 172040, "pitch": 65, "duration": 165, "velocity": 100}, {"time": 172040, "pitch": 68, "duration": 165, "velocity": 100}, {"time": 172040, "pitch": 80, "duration": 220, "velocity": 100}, {"time": 172150, "pitch": 60, "duration": 165, "velocity": 100}, {"time": 172260, "pitch": 65, "duration": 165, "velocity": 100}, {"time": 172260, "pitch": 68, "duration": 220, "velocity": 100}, {"time": 172260, "pitch": 72, "duration": 220, "velocity": 100}, {"time": 172260, "pitch": 75, "duration": 220, "velocity": 100}, {"time": 172480, "pitch": 41, "duration": 220, "velocity": 100}, {"time": 172480, "pitch": 53, "duration": 110, "velocity": 100}, {"time": 172590, "pitch": 43, "duration": 110, "velocity": 100}, {"time": 172590, "pitch": 77, "duration": 55, "velocity": 100}, {"time": 172645, "pitch": 77, "duration": 55, "velocity": 100}, {"time": 172700, "pitch": 48, "duration": 55, "velocity": 100}, {"time": 172700, "pitch": 55, "duration": 110, "velocity": 100}, {"time": 172700, "pitch": 76, "duration": 110, "velocity": 100}, {"time": 172755, "pitch": 81, "duration": 165, "velocity": 100}, {"time": 172810, "pitch": 48, "duration": 55, "velocity": 100}, {"time": 172920, "pitch": 36, "duration": 275, "velocity": 100}, {"time": 172920, "pitch": 48, "duration": 220, "velocity": 100}, {"time": 172920, "pitch": 52, "duration": 220, "velocity": 100}, {"time": 172920, "pitch": 79, "duration": 440, "velocity": 100}, {"time": 173030, "pitch": 43, "duration": 220, "velocity": 100}, {"time": 173140, "pitch": 55, "duration": 110, "velocity": 100}, {"time": 173360, "pitch": 36, "duration": 385, "velocity": 100}, {"time": 173360, "pitch": 52, "duration": 220, "velocity": 100}, {"time": 173360, "pitch": 55, "duration": 220, "velocity": 100}, {"time": 173470, "pitch": 43, "duration": 220, "velocity": 100}, {"time": 173580, "pitch": 60, "duration": 110, "velocity": 100}, {"time": 173690, "pitch": 55, "duration": 110, "velocity": 100}, {"time": 173800, "pitch": 36, "duration": 275, "velocity": 100}, {"time": 173800, "pitch": 60, "duration": 220, "velocity": 100}, {"time": 173910, "pitch": 48, "duration": 165, "velocity": 100}, {"time": 174020, "pitch": 52, "duration": 110, "velocity": 100}, {"time": 174020, "pitch": 55, "duration": 110, "velocity": 100}, {"time": 174240, "pitch": 36, "duration": 330, "velocity": 100}, {"time": 174240, "pitch": 52, "duration": 165, "velocity": 100}, {"time": 174240, "pitch": 55, "duration": 165, "velocity": 100}, {"time": 174350, "pitch": 48, "duration": 165, "velocity": 100}, {"time": 174460, "pitch": 60, "duration": 110, "velocity": 100}, {"time": 174570, "pitch": 55, "duration": 55, "velocity": 100}, {"time": 174680, "pitch": 36, "duration": 275, "velocity": 100}, {"time": 174680, "pitch": 60, "duration": 165, "velocity": 100}, {"time": 174790, "pitch": 48, "duration": 165, "velocity": 100}, {"time": 174900, "pitch": 52, "duration": 55, "velocity": 100}, {"time": 174900, "pitch": 55, "duration": 55, "velocity": 100}, {"time": 175120, "pitch": 36, "duration": 330, "velocity": 100}, {"time": 175120, "pitch": 52, "duration": 110, "velocity": 100}, {"time": 175120, "pitch": 55, "duration": 110, "velocity": 100}, {"time": 175230, "pitch": 43, "duration": 220, "velocity": 100}, {"time": 175340, "pitch": 48, "duration": 110, "velocity": 100}, {"time": 175395, "pitch": 52, "duration": 55, "velocity": 100}, {"time": 175450, "pitch": 55, "duration": 55, "velocity": 100}, {"time": 175560, "pitch": 36, "duration": 330, "velocity": 100}, {"time": 175560, "pitch": 48, "duration": 165, "velocity": 100}, {"time": 175560, "pitch": 55, "duration": 165, "velocity": 100}, {"time": 175670, "pitch": 43, "duration": 165, "velocity": 100}, {"time": 175780, "pitch": 52, "duration": 110, "velocity": 100}, {"time": 175780, "pitch": 55, "duration": 110, "velocity": 100}, {"time": 175890, "pitch": 48, "duration": 55, "velocity": 100}, {"time": 176000, "pitch": 48, "duration": 220, "velocity": 100}, {"time": 176000, "pitch": 60, "duration": 110, "velocity": 100}, {"time": 176000, "pitch": 67, "duration": 110, "velocity": 100}, {"time": 176110, "pitch": 55, "duration": 110, "velocity": 100}, {"time": 176220, "pitch": 55, "duration": 55, "velocity": 100}, {"time": 176220, "pitch": 60, "duration": 55, "velocity": 100}, {"time": 176220, "pitch": 64, "duration": 110, "velocity": 100}, {"time": 176330, "pitch": 60, "duration": 55, "velocity": 100}, {"time": 176440, "pitch": 48, "duration": 330, "velocity": 100}, {"time": 176440, "pitch": 55, "duration": 220, "velocity": 100}, {"time": 176440, "pitch": 64, "duration": 330, "velocity": 100}, {"time": 176495, "pitch": 88, "duration": 55, "velocity": 100}, {"time": 176550, "pitch": 52, "duration": 220, "velocity": 100}, {"time": 176550, "pitch": 84, "duration": 55, "velocity": 100}, {"time": 176605, "pitch": 88, "duration": 55, "velocity": 100}, {"time": 176660, "pitch": 64, "duration": 110, "velocity": 100}, {"time": 176660, "pitch": 88, "duration": 55, "velocity": 100}, {"time": 176715, "pitch": 88, "duration": 55, "velocity": 100}, {"time": 176770, "pitch": 91, "duration": 55, "velocity": 100}, {"time": 176880, "pitch": 48, "duration": 330, "velocity": 100}, {"time": 176880, "pitch": 60, "duration": 220, "velocity": 100}, {"time": 176880, "pitch": 64, "duration": 220, "velocity": 100}, {"time": 176880, "pitch": 88, "duration": 220, "velocity": 100}, {"time": 176990, "pitch": 55, "duration": 220, "velocity": 100}, {"time": 177100, "pitch": 67, "duration": 110, "velocity": 100}, {"time": 177100, "pitch": 72, "duration": 110, "velocity": 100}, {"time": 177210, "pitch": 64, "duration": 110, "velocity": 100}, {"time": 177210, "pitch": 72, "duration": 110, "velocity": 100}, {"time": 177320, "pitch": 48, "duration": 275, "velocity": 100}, {"time": 177320, "pitch": 67, "duration": 330, "velocity": 100}, {"time": 177430, "pitch": 55, "duration": 165, "velocity": 100}, {"time": 177540, "pitch": 60, "duration": 110, "velocity": 100}, {"time": 177540, "pitch": 67, "duration": 220, "velocity": 100}, {"time": 177760, "pitch": 48, "duration": 275, "velocity": 100}, {"time": 177760, "pitch": 60, "duration": 165, "velocity": 100}, {"time": 177760, "pitch": 64, "duration": 220, "velocity": 100}, {"time": 177760, "pitch": 67, "duration": 220, "velocity": 100}, {"time": 177870, "pitch": 55, "duration": 165, "velocity": 100}, {"time": 177980, "pitch": 64, "duration": 110, "velocity": 100}, {"time": 177980, "pitch": 67, "duration": 110, "velocity": 100}, {"time": 178090, "pitch": 60, "duration": 110, "velocity": 100}, {"time": 178090, "pitch": 64, "duration": 55, "velocity": 100}, {"time": 178200, "pitch": 48, "duration": 330, "velocity": 100}, {"time": 178200, "pitch": 64, "duration": 275, "velocity": 100}, {"time": 178310, "pitch": 55, "duration": 165, "velocity": 100}, {"time": 178420, "pitch": 64, "duration": 220, "velocity": 100}, {"time": 178420, "pitch": 67, "duration": 55, "velocity": 100}, {"time": 178640, "pitch": 48, "duration": 330, "velocity": 100}, {"time": 178640, "pitch": 60, "duration": 165, "velocity": 100}, {"time": 178640, "pitch": 64, "duration": 220, "velocity": 100}, {"time": 178750, "pitch": 55, "duration": 275, "velocity": 100}, {"time": 178750, "pitch": 60, "duration": 110, "velocity": 100}, {"time": 178860, "pitch": 60, "duration": 55, "velocity": 100}, {"time": 178860, "pitch": 64, "duration": 55, "velocity": 100}, {"time": 178915, "pitch": 67, "duration": 55, "velocity": 100}, {"time": 178970, "pitch": 64, "duration": 55, "velocity": 100}, {"time": 178970, "pitch": 72, "duration": 55, "velocity": 100}, {"time": 179025, "pitch": 72, "duration": 55, "velocity": 100}, {"time": 179080, "pitch": 48, "duration": 330, "velocity": 100}, {"time": 179080, "pitch": 60, "duration": 165, "velocity": 100}, {"time": 179080, "pitch": 64, "duration": 165, "velocity": 100}, {"time": 179080, "pitch": 67, "duration": 330, "velocity": 100}, {"time": 179190, "pitch": 55, "duration": 165, "velocity": 100}, {"time": 179300, "pitch": 60, "duration": 110, "velocity": 100}, {"time": 179300, "pitch": 67, "duration": 220, "velocity": 100}, {"time": 179410, "pitch": 60, "duration": 55, "velocity": 100}, {"time": 179520, "pitch": 40, "duration": 385, "velocity": 100}, {"time": 179630, "pitch": 48, "duration": 275, "velocity": 100}, {"time": 179740, "pitch": 56, "duration": 110, "velocity": 100}, {"time": 179740, "pitch": 60, "duration": 220, "velocity": 100}, {"time": 179850, "pitch": 52, "duration": 55, "velocity": 100}, {"time": 179960, "pitch": 44, "duration": 275, "velocity": 100}, {"time": 179960, "pitch": 56, "duration": 165, "velocity": 100}, {"time": 179960, "pitch": 60, "duration": 165, "velocity": 100}, {"time": 180070, "pitch": 51, "duration": 110, "velocity": 100}, {"time": 180180, "pitch": 56, "duration": 110, "velocity": 100}, {"time": 180180, "pitch": 64, "duration": 110, "velocity": 100}, {"time": 180400, "pitch": 40, "duration": 275, "velocity": 100}, {"time": 180400, "pitch": 56, "duration": 55, "velocity": 100}, {"time": 180400, "pitch": 60, "duration": 165, "velocity": 100}, {"time": 180510, "pitch": 56, "duration": 55, "velocity": 100}, {"time": 180620, "pitch": 56, "duration": 110, "velocity": 100}, {"time": 180620, "pitch": 60, "duration": 110, "velocity": 100}, {"time": 180840, "pitch": 40, "duration": 330, "velocity": 100}, {"time": 180840, "pitch": 52, "duration": 165, "velocity": 100}, {"time": 180840, "pitch": 56, "duration": 165, "velocity": 100}, {"time": 180950, "pitch": 48, "duration": 220, "velocity": 100}, {"time": 181060, "pitch": 56, "duration": 110, "velocity": 100}, {"time": 181060, "pitch": 60, "duration": 110, "velocity": 100}, {"time": 181170, "pitch": 52, "duration": 55, "velocity": 100}, {"time": 181280, "pitch": 48, "duration": 275, "velocity": 100}, {"time": 181280, "pitch": 60, "duration": 220, "velocity": 100}, {"time": 181390, "pitch": 52, "duration": 110, "velocity": 100}, {"time": 181500, "pitch": 60, "duration": 110, "velocity": 100}, {"time": 181720, "pitch": 48, "duration": 110, "velocity": 100}, {"time": 181720, "pitch": 60, "duration": 165, "velocity": 100}, {"time": 181720, "pitch": 64, "duration": 110, "velocity": 100}, {"time": 181940, "pitch": 48, "duration": 110, "velocity": 100}, {"time": 181940, "pitch": 56, "duration": 110, "velocity": 100}, {"time": 181940, "pitch": 60, "duration": 110, "velocity": 100}, {"time": 182160, "pitch": 40, "duration": 385, "velocity": 100}, {"time": 182160, "pitch": 56, "duration": 220, "velocity": 100}, {"time": 182160, "pitch": 60, "duration": 220, "velocity": 100}, {"time": 182270, "pitch": 48, "duration": 220, "velocity": 100}, {"time": 182380, "pitch": 64, "duration": 220, "velocity": 100}, {"time": 182490, "pitch": 56, "duration": 110, "velocity": 100}, {"time": 182600, "pitch": 40, "duration": 330, "velocity": 100}, {"time": 182710, "pitch": 48, "duration": 165, "velocity": 100}, {"time": 182820, "pitch": 52, "duration": 55, "velocity": 100}, {"time": 182820, "pitch": 56, "duration": 110, "velocity": 100}, {"time": 182930, "pitch": 52, "duration": 55, "velocity": 100}, {"time": 183040, "pitch": 46, "duration": 165, "velocity": 100}, {"time": 183040, "pitch": 58, "duration": 110, "velocity": 100}, {"time": 183040, "pitch": 61, "duration": 110, "velocity": 100}, {"time": 183150, "pitch": 49, "duration": 110, "velocity": 100}, {"time": 183150, "pitch": 82, "duration": 55, "velocity": 100}, {"time": 183205, "pitch": 84, "duration": 55, "velocity": 100}, {"time": 183260, "pitch": 53, "duration": 55, "velocity": 100}, {"time": 183260, "pitch": 56, "duration": 55, "velocity": 100}, {"time": 183260, "pitch": 61, "duration": 110, "velocity": 100}, {"time": 183260, "pitch": 82, "duration": 55, "velocity": 100}, {"time": 183315, "pitch": 85, "duration": 55, "velocity": 100}, {"time": 183370, "pitch": 56, "duration": 55, "velocity": 100}, {"time": 183480, "pitch": 46, "duration": 330, "velocity": 100}, {"time": 183480, "pitch": 53, "duration": 220, "velocity": 100}, {"time": 183480, "pitch": 58, "duration": 220, "velocity": 100}, {"time": 183480, "pitch": 85, "duration": 440, "velocity": 100}, {"time": 183590, "pitch": 49, "duration": 220, "velocity": 100}, {"time": 183700, "pitch": 61, "duration": 110, "velocity": 100}, {"time": 183920, "pitch": 46, "duration": 275, "velocity": 100}, {"time": 183920, "pitch": 58, "duration": 220, "velocity": 100}, {"time": 183920, "pitch": 61, "duration": 220, "velocity": 100}, {"time": 184030, "pitch": 53, "duration": 220, "velocity": 100}, {"time": 184140, "pitch": 65, "duration": 110, "velocity": 100}, {"time": 184250, "pitch": 61, "duration": 110, "velocity": 100}, {"time": 184360, "pitch": 46, "duration": 275, "velocity": 100}, {"time": 184360, "pitch": 65, "duration": 220, "velocity": 100}, {"time": 184470, "pitch": 53, "duration": 165, "velocity": 100}, {"time": 184580, "pitch": 58, "duration": 55, "velocity": 100}, {"time": 184580, "pitch": 61, "duration": 110, "velocity": 100}, {"time": 184800, "pitch": 46, "duration": 275, "velocity": 100}, {"time": 184800, "pitch": 58, "duration": 220, "velocity": 100}, {"time": 184800, "pitch": 61, "duration": 220, "velocity": 100}, {"time": 184910, "pitch": 53, "duration": 165, "velocity": 100}, {"time": 185020, "pitch": 65, "duration": 110, "velocity": 100}, {"time": 185130, "pitch": 61, "duration": 55, "velocity": 100}, {"time": 185240, "pitch": 46, "duration": 275, "velocity": 100}, {"time": 185240, "pitch": 61, "duration": 165, "velocity": 100}, {"time": 185350, "pitch": 53, "duration": 165, "velocity": 100}, {"time": 185460, "pitch": 58, "duration": 55, "velocity": 100}, {"time": 185460, "pitch": 61, "duration": 55, "velocity": 100}, {"time": 185460, "pitch": 65, "duration": 55, "velocity": 100}, {"time": 185680, "pitch": 46, "duration": 330, "velocity": 100}, {"time": 185680, "pitch": 58, "duration": 165, "velocity": 100}, {"time": 185680, "pitch": 61, "duration": 110, "velocity": 100}, {"time": 185790, "pitch": 49, "duration": 220, "velocity": 100}, {"time": 185900, "pitch": 53, "duration": 110, "velocity": 100}, {"time": 185955, "pitch": 58, "duration": 55, "velocity": 100}, {"time": 186010, "pitch": 60, "duration": 55, "velocity": 100}, {"time": 186120, "pitch": 46, "duration": 275, "velocity": 100}, {"time": 186120, "pitch": 58, "duration": 110, "velocity": 100}, {"time": 186120, "pitch": 61, "duration": 165, "velocity": 100}, {"time": 186230, "pitch": 53, "duration": 165, "velocity": 100}, {"time": 186340, "pitch": 58, "duration": 110, "velocity": 100}, {"time": 186340, "pitch": 61, "duration": 110, "velocity": 100}, {"time": 186340, "pitch": 65, "duration": 55, "velocity": 100}, {"time": 186450, "pitch": 56, "duration": 55, "velocity": 100}, {"time": 186560, "pitch": 46, "duration": 220, "velocity": 100}, {"time": 186560, "pitch": 61, "duration": 110, "velocity": 100}, {"time": 186560, "pitch": 65, "duration": 110, "velocity": 100}, {"time": 186670, "pitch": 53, "duration": 110, "velocity": 100}, {"time": 186780, "pitch": 53, "duration": 55, "velocity": 100}, {"time": 186780, "pitch": 58, "duration": 55, "velocity": 100}, {"time": 186780, "pitch": 64, "duration": 110, "velocity": 100}, {"time": 186890, "pitch": 58, "duration": 55, "velocity": 100}, {"time": 187000, "pitch": 48, "duration": 330, "velocity": 100}, {"time": 187000, "pitch": 55, "duration": 220, "velocity": 100}, {"time": 187000, "pitch": 64, "duration": 330, "velocity": 100}, {"time": 187110, "pitch": 52, "duration": 220, "velocity": 100}, {"time": 187110, "pitch": 84, "duration": 55, "velocity": 100}, {"time": 187165, "pitch": 89, "duration": 55, "velocity": 100}, {"time": 187220, "pitch": 64, "duration": 220, "velocity": 100}, {"time": 187220, "pitch": 84, "duration": 55, "velocity": 100}, {"time": 187275, "pitch": 89, "duration": 55, "velocity": 100}, {"time": 187440, "pitch": 48, "duration": 330, "velocity": 100}, {"time": 187440, "pitch": 60, "duration": 220, "velocity": 100}, {"time": 187440, "pitch": 64, "duration": 220, "velocity": 100}, {"time": 187440, "pitch": 88, "duration": 220, "velocity": 100}, {"time": 187550, "pitch": 55, "duration": 220, "velocity": 100}, {"time": 187660, "pitch": 67, "duration": 110, "velocity": 100}, {"time": 187660, "pitch": 72, "duration": 110, "velocity": 100}, {"time": 187770, "pitch": 64, "duration": 110, "velocity": 100}, {"time": 187770, "pitch": 72, "duration": 110, "velocity": 100}, {"time": 187880, "pitch": 48, "duration": 275, "velocity": 100}, {"time": 187880, "pitch": 67, "duration": 330, "velocity": 100}, {"time": 187990, "pitch": 55, "duration": 165, "velocity": 100}, {"time": 188100, "pitch": 60, "duration": 110, "velocity": 100}, {"time": 188100, "pitch": 67, "duration": 220, "velocity": 100}, {"time": 188320, "pitch": 48, "duration": 275, "velocity": 100}, {"time": 188320, "pitch": 60, "duration": 165, "velocity": 100}, {"time": 188320, "pitch": 64, "duration": 220, "velocity": 100}, {"time": 188320, "pitch": 67, "duration": 220, "velocity": 100}, {"time": 188430, "pitch": 55, "duration": 165, "velocity": 100}, {"time": 188540, "pitch": 64, "duration": 110, "velocity": 100}, {"time": 188540, "pitch": 67, "duration": 110, "velocity": 100}, {"time": 188650, "pitch": 60, "duration": 110, "velocity": 100}, {"time": 188650, "pitch": 64, "duration": 55, "velocity": 100}, {"time": 188760, "pitch": 48, "duration": 330, "velocity": 100}, {"time": 188760, "pitch": 64, "duration": 275, "velocity": 100}, {"time": 188870, "pitch": 55, "duration": 165, "velocity": 100}, {"time": 188980, "pitch": 64, "duration": 220, "velocity": 100}, {"time": 188980, "pitch": 67, "duration": 55, "velocity": 100}, {"time": 189200, "pitch": 48, "duration": 330, "velocity": 100}, {"time": 189200, "pitch": 60, "duration": 165, "velocity": 100}, {"time": 189200, "pitch": 64, "duration": 220, "velocity": 100}, {"time": 189310, "pitch": 55, "duration": 275, "velocity": 100}, {"time": 189310, "pitch": 60, "duration": 110, "velocity": 100}, {"time": 189420, "pitch": 60, "duration": 55, "velocity": 100}, {"time": 189420, "pitch": 64, "duration": 55, "velocity": 100}, {"time": 189475, "pitch": 67, "duration": 55, "velocity": 100}, {"time": 189530, "pitch": 64, "duration": 55, "velocity": 100}, {"time": 189530, "pitch": 72, "duration": 55, "velocity": 100}, {"time": 189585, "pitch": 72, "duration": 55, "velocity": 100}, {"time": 189640, "pitch": 48, "duration": 330, "velocity": 100}, {"time": 189640, "pitch": 60, "duration": 165, "velocity": 100}, {"time": 189640, "pitch": 64, "duration": 165, "velocity": 100}, {"time": 189640, "pitch": 67, "duration": 330, "velocity": 100}, {"time": 189750, "pitch": 55, "duration": 165, "velocity": 100}, {"time": 189860, "pitch": 60, "duration": 110, "velocity": 100}, {"time": 189860, "pitch": 67, "duration": 220, "velocity": 100}, {"time": 189970, "pitch": 60, "duration": 55, "velocity": 100}, {"time": 190080, "pitch": 48, "duration": 275, "velocity": 100}, {"time": 190080, "pitch": 64, "duration": 110, "velocity": 100}, {"time": 190080, "pitch": 67, "duration": 110, "velocity": 100}, {"time": 190190, "pitch": 64, "duration": 55, "velocity": 100}, {"time": 190300, "pitch": 67, "duration": 110, "velocity": 100}, {"time": 190300, "pitch": 72, "duration": 110, "velocity": 100}, {"time": 190410, "pitch": 64, "duration": 55, "velocity": 100}, {"time": 190520, "pitch": 48, "duration": 385, "velocity": 100}, {"time": 190520, "pitch": 60, "duration": 110, "velocity": 100}, {"time": 190520, "pitch": 64, "duration": 110, "velocity": 100}, {"time": 190630, "pitch": 55, "duration": 275, "velocity": 100}, {"time": 190740, "pitch": 60, "duration": 55, "velocity": 100}, {"time": 190740, "pitch": 64, "duration": 110, "velocity": 100}, {"time": 190740, "pitch": 67, "duration": 110, "velocity": 100}, {"time": 190850, "pitch": 60, "duration": 55, "velocity": 100}, {"time": 190960, "pitch": 48, "duration": 275, "velocity": 100}, {"time": 190960, "pitch": 55, "duration": 110, "velocity": 100}, {"time": 190960, "pitch": 60, "duration": 110, "velocity": 100}, {"time": 191070, "pitch": 52, "duration": 165, "velocity": 100}, {"time": 191180, "pitch": 55, "duration": 55, "velocity": 100}, {"time": 191180, "pitch": 60, "duration": 55, "velocity": 100}, {"time": 191180, "pitch": 64, "duration": 110, "velocity": 100}, {"time": 191290, "pitch": 55, "duration": 55, "velocity": 100}, {"time": 191400, "pitch": 48, "duration": 275, "velocity": 100}, {"time": 191400, "pitch": 60, "duration": 110, "velocity": 100}, {"time": 191400, "pitch": 64, "duration": 110, "velocity": 100}, {"time": 191510, "pitch": 55, "duration": 165, "velocity": 100}, {"time": 191620, "pitch": 60, "duration": 55, "velocity": 100}, {"time": 191620, "pitch": 64, "duration": 55, "velocity": 100}, {"time": 191620, "pitch": 67, "duration": 55, "velocity": 100}, {"time": 191620, "pitch": 76, "duration": 110, "velocity": 100}, {"time": 191730, "pitch": 79, "duration": 110, "velocity": 100}, {"time": 191840, "pitch": 48, "duration": 385, "velocity": 100}, {"time": 191840, "pitch": 60, "duration": 55, "velocity": 100}, {"time": 191840, "pitch": 64, "duration": 55, "velocity": 100}, {"time": 191840, "pitch": 84, "duration": 440, "velocity": 100}, {"time": 191950, "pitch": 52, "duration": 275, "velocity": 100}, {"time": 192060, "pitch": 60, "duration": 55, "velocity": 100}, {"time": 192060, "pitch": 67, "duration": 55, "velocity": 100}, {"time": 192060, "pitch": 84, "duration": 220, "velocity": 100}, {"time": 192170, "pitch": 60, "duration": 165, "velocity": 100}, {"time": 192280, "pitch": 48, "duration": 275, "velocity": 100}, {"time": 192280, "pitch": 64, "duration": 110, "velocity": 100}, {"time": 192280, "pitch": 67, "duration": 110, "velocity": 100}, {"time": 192280, "pitch": 81, "duration": 440, "velocity": 100}, {"time": 192390, "pitch": 55, "duration": 110, "velocity": 100}, {"time": 192390, "pitch": 60, "duration": 55, "velocity": 100}, {"time": 192500, "pitch": 64, "duration": 55, "velocity": 100}, {"time": 192500, "pitch": 67, "duration": 55, "velocity": 100}, {"time": 192720, "pitch": 48, "duration": 220, "velocity": 100}, {"time": 192720, "pitch": 67, "duration": 110, "velocity": 100}, {"time": 192720, "pitch": 72, "duration": 110, "velocity": 100}, {"time": 192720, "pitch": 79, "duration": 330, "velocity": 100}, {"time": 192775, "pitch": 67, "duration": 55, "velocity": 100}, {"time": 192940, "pitch": 64, "duration": 55, "velocity": 100}, {"time": 192940, "pitch": 67, "duration": 110, "velocity": 100}, {"time": 192940, "pitch": 72, "duration": 110, "velocity": 100}, {"time": 193050, "pitch": 64, "duration": 55, "velocity": 100}, {"time": 193050, "pitch": 74, "duration": 110, "velocity": 100}, {"time": 193160, "pitch": 48, "duration": 275, "velocity": 100}, {"time": 193160, "pitch": 60, "duration": 55, "velocity": 100}, {"time": 193160, "pitch": 64, "duration": 110, "velocity": 100}, {"time": 193160, "pitch": 67, "duration": 110, "velocity": 100}, {"time": 193160, "pitch": 76, "duration": 110, "velocity": 100}, {"time": 193270, "pitch": 60, "duration": 55, "velocity": 100}, {"time": 193270, "pitch": 74, "duration": 110, "velocity": 100}, {"time": 193380, "pitch": 64, "duration": 165, "velocity": 100}, {"time": 193380, "pitch": 67, "duration": 220, "velocity": 100}, {"time": 193380, "pitch": 72, "duration": 220, "velocity": 100}, {"time": 193490, "pitch": 60, "duration": 55, "velocity": 100}, {"time": 193600, "pitch": 48, "duration": 275, "velocity": 100}, {"time": 193600, "pitch": 60, "duration": 110, "velocity": 100}, {"time": 193600, "pitch": 67, "duration": 110, "velocity": 100}, {"time": 193600, "pitch": 75, "duration": 330, "velocity": 100}, {"time": 193710, "pitch": 55, "duration": 165, "velocity": 100}, {"time": 193820, "pitch": 60, "duration": 55, "velocity": 100}, {"time": 193820, "pitch": 65, "duration": 110, "velocity": 100}, {"time": 193820, "pitch": 68, "duration": 110, "velocity": 100}, {"time": 193930, "pitch": 60, "duration": 55, "velocity": 100}, {"time": 193930, "pitch": 75, "duration": 110, "velocity": 100}, {"time": 194040, "pitch": 53, "duration": 275, "velocity": 100}, {"time": 194040, "pitch": 65, "duration": 110, "velocity": 100}, {"time": 194040, "pitch": 68, "duration": 220, "velocity": 100}, {"time": 194150, "pitch": 60, "duration": 110, "velocity": 100}, {"time": 194150, "pitch": 70, "duration": 110, "velocity": 100}, {"time": 194260, "pitch": 65, "duration": 55, "velocity": 100}, {"time": 194260, "pitch": 68, "duration": 110, "velocity": 100}, {"time": 194260, "pitch": 72, "duration": 110, "velocity": 100}, {"time": 194370, "pitch": 65, "duration": 55, "velocity": 100}, {"time": 194370, "pitch": 72, "duration": 110, "velocity": 100}, {"time": 194480, "pitch": 41, "duration": 220, "velocity": 100}, {"time": 194480, "pitch": 65, "duration": 165, "velocity": 100}, {"time": 194480, "pitch": 68, "duration": 165, "velocity": 100}, {"time": 194590, "pitch": 53, "duration": 110, "velocity": 100}, {"time": 194590, "pitch": 82, "duration": 110, "velocity": 100}, {"time": 194700, "pitch": 65, "duration": 55, "velocity": 100}, {"time": 194700, "pitch": 68, "duration": 110, "velocity": 100}, {"time": 194700, "pitch": 72, "duration": 110, "velocity": 100}, {"time": 194700, "pitch": 84, "duration": 110, "velocity": 100}, {"time": 194810, "pitch": 65, "duration": 55, "velocity": 100}, {"time": 194810, "pitch": 79, "duration": 110, "velocity": 100}, {"time": 194920, "pitch": 53, "duration": 385, "velocity": 100}, {"time": 194920, "pitch": 60, "duration": 165, "velocity": 100}, {"time": 194920, "pitch": 68, "duration": 165, "velocity": 100}, {"time": 194920, "pitch": 80, "duration": 220, "velocity": 100}, {"time": 195030, "pitch": 56, "duration": 220, "velocity": 100}, {"time": 195140, "pitch": 65, "duration": 55, "velocity": 100}, {"time": 195140, "pitch": 68, "duration": 110, "velocity": 100}, {"time": 195140, "pitch": 72, "duration": 220, "velocity": 100}, {"time": 195140, "pitch": 80, "duration": 220, "velocity": 100}, {"time": 195250, "pitch": 60, "duration": 55, "velocity": 100}]}]}