{"metadata": {"schema_version": "0.1", "title": "None", "source_filename": "20211209_123557.mid", "source_format": "midi"}, "resolution": 220, "tempos": [{"time": 0, "qpm": 120.0}], "time_signatures": [{"time": 0, "numerator": 4, "denominator": 4}], "tracks": [{"program": 0, "is_drum": false, "name": "Piano", "notes": [{"time": 0, "pitch": 79, "duration": 220, "velocity": 100}, {"time": 220, "pitch": 74, "duration": 110, "velocity": 100}, {"time": 330, "pitch": 79, "duration": 110, "velocity": 100}, {"time": 440, "pitch": 71, "duration": 110, "velocity": 100}, {"time": 550, "pitch": 79, "duration": 110, "velocity": 100}, {"time": 660, "pitch": 74, "duration": 110, "velocity": 100}, {"time": 770, "pitch": 79, "duration": 110, "velocity": 100}, {"time": 880, "pitch": 76, "duration": 110, "velocity": 100}, {"time": 990, "pitch": 74, "duration": 110, "velocity": 100}, {"time": 1100, "pitch": 72, "duration": 110, "velocity": 100}, {"time": 1210, "pitch": 74, "duration": 110, "velocity": 100}, {"time": 1320, "pitch": 76, "duration": 110, "velocity": 100}, {"time": 1430, "pitch": 74, "duration": 110, "velocity": 100}, {"time": 1540, "pitch": 76, "duration": 110, "velocity": 100}, {"time": 1650, "pitch": 78, "duration": 110, "velocity": 100}, {"time": 1760, "pitch": 79, "duration": 220, "velocity": 100}, {"time": 1980, "pitch": 74, "duration": 110, "velocity": 100}, {"time": 2090, "pitch": 79, "duration": 110, "velocity": 100}, {"time": 2200, "pitch": 71, "duration": 110, "velocity": 100}, {"time": 2310, "pitch": 79, "duration": 110, "velocity": 100}, {"time": 2420, "pitch": 74, "duration": 110, "velocity": 100}, {"time": 2530, "pitch": 79, "duration": 110, "velocity": 100}, {"time": 2640, "pitch": 72, "duration": 110, "velocity": 100}, {"time": 2750, "pitch": 76, "duration": 110, "velocity": 100}, {"time": 2860, "pitch": 74, "duration": 110, "velocity": 100}, {"time": 2970, "pitch": 72, "duration": 110, "velocity": 100}, {"time": 3080, "pitch": 71, "duration": 110, "velocity": 100}, {"time": 3190, "pitch": 67, "duration": 110, "velocity": 100}, {"time": 3300, "pitch": 67, "duration": 110, "velocity": 100}, {"time": 3410, "pitch": 74, "duration": 110, "velocity": 100}, {"time": 3520, "pitch": 79, "duration": 220, "velocity": 100}, {"time": 3740, "pitch": 74, "duration": 110, "velocity": 100}, {"time": 3850, "pitch": 79, "duration": 110, "velocity": 100}, {"time": 3960, "pitch": 71, "duration": 110, "velocity": 100}, {"time": 4070, "pitch": 79, "duration": 110, "velocity": 100}, {"time": 4180, "pitch": 74, "duration": 110, "velocity": 100}, {"time": 4290, "pitch": 79, "duration": 110, "velocity": 100}, {"time": 4400, "pitch": 76, "duration": 110, "velocity": 100}, {"time": 4510, "pitch": 74, "duration": 110, "velocity": 100}, {"time": 4620, "pitch": 72, "duration": 110, "velocity": 100}, {"time": 4730, "pitch": 74, "duration": 110, "velocity": 100}, {"time": 4840, "pitch": 76, "duration": 110, "velocity": 100}, {"time": 4950, "pitch": 74, "duration": 110, "velocity": 100}, {"time": 5060, "pitch": 76, "duration": 110, "velocity": 100}, {"time": 5170, "pitch": 78, "duration": 110, "velocity": 100}, {"time": 5280, "pitch": 79, "duration": 220, "velocity": 100}, {"time": 5500, "pitch": 74, "duration": 110, "velocity": 100}, {"time": 5610, "pitch": 79, "duration": 110, "velocity": 100}, {"time": 5720, "pitch": 71, "duration": 110, "velocity": 100}, {"time": 5830, "pitch": 79, "duration": 110, "velocity": 100}, {"time": 5940, "pitch": 74, "duration": 110, "velocity": 100}, {"time": 6050, "pitch": 79, "duration": 110, "velocity": 100}, {"time": 6160, "pitch": 72, "duration": 110, "velocity": 100}, {"time": 6270, "pitch": 76, "duration": 110, "velocity": 100}, {"time": 6380, "pitch": 74, "duration": 110, "velocity": 100}, {"time": 6490, "pitch": 72, "duration": 110, "velocity": 100}, {"time": 6600, "pitch": 71, "duration": 110, "velocity": 100}, {"time": 6710, "pitch": 67, "duration": 110, "velocity": 100}, {"time": 6820, "pitch": 67, "duration": 110, "velocity": 100}, {"time": 6930, "pitch": 74, "duration": 110, "velocity": 100}, {"time": 7040, "pitch": 71, "duration": 110, "velocity": 100}, {"time": 7150, "pitch": 74, "duration": 110, "velocity": 100}, {"time": 7260, "pitch": 67, "duration": 110, "velocity": 100}, {"time": 7370, "pitch": 74, "duration": 110, "velocity": 100}, {"time": 7480, "pitch": 71, "duration": 110, "velocity": 100}, {"time": 7590, "pitch": 74, "duration": 110, "velocity": 100}, {"time": 7700, "pitch": 67, "duration": 110, "velocity": 100}, {"time": 7810, "pitch": 74, "duration": 110, "velocity": 100}, {"time": 7920, "pitch": 72, "duration": 110, "velocity": 100}, {"time": 8030, "pitch": 74, "duration": 110, "velocity": 100}, {"time": 8140, "pitch": 69, "duration": 110, "velocity": 100}, {"time": 8250, "pitch": 74, "duration": 110, "velocity": 100}, {"time": 8360, "pitch": 72, "duration": 110, "velocity": 100}, {"time": 8470, "pitch": 74, "duration": 110, "velocity": 100}, {"time": 8580, "pitch": 69, "duration": 110, "velocity": 100}, {"time": 8690, "pitch": 74, "duration": 110, "velocity": 100}, {"time": 8800, "pitch": 71, "duration": 110, "velocity": 100}, {"time": 8910, "pitch": 74, "duration": 110, "velocity": 100}, {"time": 9020, "pitch": 67, "duration": 110, "velocity": 100}, {"time": 9130, "pitch": 74, "duration": 110, "velocity": 100}, {"time": 9240, "pitch": 71, "duration": 110, "velocity": 100}, {"time": 9350, "pitch": 74, "duration": 110, "velocity": 100}, {"time": 9460, "pitch": 67, "duration": 110, "velocity": 100}, {"time": 9570, "pitch": 74, "duration": 110, "velocity": 100}, {"time": 9680, "pitch": 76, "duration": 110, "velocity": 100}, {"time": 9790, "pitch": 74, "duration": 110, "velocity": 100}, {"time": 9900, "pitch": 72, "duration": 110, "velocity": 100}, {"time": 10010, "pitch": 71, "duration": 110, "velocity": 100}, {"time": 10120, "pitch": 69, "duration": 110, "velocity": 100}, {"time": 10230, "pitch": 66, "duration": 110, "velocity": 100}, {"time": 10340, "pitch": 62, "duration": 110, "velocity": 100}, {"time": 10450, "pitch": 66, "duration": 110, "velocity": 100}, {"time": 10560, "pitch": 71, "duration": 110, "velocity": 100}, {"time": 10670, "pitch": 74, "duration": 110, "velocity": 100}, {"time": 10780, "pitch": 67, "duration": 110, "velocity": 100}, {"time": 10890, "pitch": 74, "duration": 110, "velocity": 100}, {"time": 11000, "pitch": 71, "duration": 110, "velocity": 100}, {"time": 11110, "pitch": 74, "duration": 110, "velocity": 100}, {"time": 11220, "pitch": 67, "duration": 110, "velocity": 100}, {"time": 11330, "pitch": 74, "duration": 110, "velocity": 100}, {"time": 11440, "pitch": 67, "duration": 110, "velocity": 100}, {"time": 11550, "pitch": 76, "duration": 110, "velocity": 100}, {"time": 11660, "pitch": 72, "duration": 110, "velocity": 100}, {"time": 11770, "pitch": 76, "duration": 110, "velocity": 100}, {"time": 11880, "pitch": 67, "duration": 110, "velocity": 100}, {"time": 11990, "pitch": 76, "duration": 110, "velocity": 100}, {"time": 12100, "pitch": 72, "duration": 110, "velocity": 100}, {"time": 12210, "pitch": 76, "duration": 110, "velocity": 100}, {"time": 12320, "pitch": 74, "duration": 110, "velocity": 100}, {"time": 12430, "pitch": 76, "duration": 110, "velocity": 100}, {"time": 12540, "pitch": 66, "duration": 110, "velocity": 100}, {"time": 12650, "pitch": 79, "duration": 110, "velocity": 100}, {"time": 12760, "pitch": 81, "duration": 110, "velocity": 100}, {"time": 12870, "pitch": 84, "duration": 110, "velocity": 100}, {"time": 12980, "pitch": 83, "duration": 110, "velocity": 100}, {"time": 13090, "pitch": 81, "duration": 110, "velocity": 100}, {"time": 13200, "pitch": 79, "duration": 440, "velocity": 100}, {"time": 13640, "pitch": 79, "duration": 220, "velocity": 100}, {"time": 13860, "pitch": 74, "duration": 220, "velocity": 100}, {"time": 14080, "pitch": 71, "duration": 110, "velocity": 100}, {"time": 14190, "pitch": 74, "duration": 110, "velocity": 100}, {"time": 14300, "pitch": 67, "duration": 110, "velocity": 100}, {"time": 14410, "pitch": 74, "duration": 110, "velocity": 100}, {"time": 14520, "pitch": 71, "duration": 110, "velocity": 100}, {"time": 14630, "pitch": 74, "duration": 110, "velocity": 100}, {"time": 14740, "pitch": 67, "duration": 110, "velocity": 100}, {"time": 14850, "pitch": 74, "duration": 110, "velocity": 100}, {"time": 14960, "pitch": 72, "duration": 110, "velocity": 100}, {"time": 15070, "pitch": 74, "duration": 110, "velocity": 100}, {"time": 15180, "pitch": 69, "duration": 110, "velocity": 100}, {"time": 15290, "pitch": 74, "duration": 110, "velocity": 100}, {"time": 15400, "pitch": 72, "duration": 110, "velocity": 100}, {"time": 15510, "pitch": 74, "duration": 110, "velocity": 100}, {"time": 15620, "pitch": 69, "duration": 110, "velocity": 100}, {"time": 15730, "pitch": 74, "duration": 110, "velocity": 100}, {"time": 15840, "pitch": 71, "duration": 110, "velocity": 100}, {"time": 15950, "pitch": 74, "duration": 110, "velocity": 100}, {"time": 16060, "pitch": 67, "duration": 110, "velocity": 100}, {"time": 16170, "pitch": 74, "duration": 110, "velocity": 100}, {"time": 16280, "pitch": 71, "duration": 110, "velocity": 100}, {"time": 16390, "pitch": 74, "duration": 110, "velocity": 100}, {"time": 16500, "pitch": 67, "duration": 110, "velocity": 100}, {"time": 16610, "pitch": 74, "duration": 110, "velocity": 100}, {"time": 16720, "pitch": 76, "duration": 110, "velocity": 100}, {"time": 16830, "pitch": 74, "duration": 110, "velocity": 100}, {"time": 16940, "pitch": 72, "duration": 110, "velocity": 100}, {"time": 17050, "pitch": 71, "duration": 110, "velocity": 100}, {"time": 17160, "pitch": 69, "duration": 110, "velocity": 100}, {"time": 17270, "pitch": 66, "duration": 110, "velocity": 100}, {"time": 17380, "pitch": 62, "duration": 110, "velocity": 100}, {"time": 17490, "pitch": 66, "duration": 110, "velocity": 100}, {"time": 17600, "pitch": 71, "duration": 110, "velocity": 100}, {"time": 17710, "pitch": 74, "duration": 110, "velocity": 100}, {"time": 17820, "pitch": 67, "duration": 110, "velocity": 100}, {"time": 17930, "pitch": 74, "duration": 110, "velocity": 100}, {"time": 18040, "pitch": 71, "duration": 110, "velocity": 100}, {"time": 18150, "pitch": 74, "duration": 110, "velocity": 100}, {"time": 18260, "pitch": 67, "duration": 110, "velocity": 100}, {"time": 18370, "pitch": 74, "duration": 110, "velocity": 100}, {"time": 18480, "pitch": 67, "duration": 110, "velocity": 100}, {"time": 18590, "pitch": 76, "duration": 110, "velocity": 100}, {"time": 18700, "pitch": 72, "duration": 110, "velocity": 100}, {"time": 18810, "pitch": 76, "duration": 110, "velocity": 100}, {"time": 18920, "pitch": 67, "duration": 110, "velocity": 100}, {"time": 19030, "pitch": 76, "duration": 110, "velocity": 100}, {"time": 19140, "pitch": 72, "duration": 110, "velocity": 100}, {"time": 19250, "pitch": 76, "duration": 110, "velocity": 100}, {"time": 19360, "pitch": 74, "duration": 110, "velocity": 100}, {"time": 19470, "pitch": 76, "duration": 110, "velocity": 100}, {"time": 19580, "pitch": 66, "duration": 110, "velocity": 100}, {"time": 19690, "pitch": 79, "duration": 110, "velocity": 100}, {"time": 19800, "pitch": 81, "duration": 110, "velocity": 100}, {"time": 19910, "pitch": 84, "duration": 110, "velocity": 100}, {"time": 20020, "pitch": 83, "duration": 110, "velocity": 100}, {"time": 20130, "pitch": 81, "duration": 110, "velocity": 100}, {"time": 20240, "pitch": 79, "duration": 220, "velocity": 100}, {"time": 20460, "pitch": 79, "duration": 220, "velocity": 100}, {"time": 20680, "pitch": 79, "duration": 220, "velocity": 100}, {"time": 20900, "pitch": 79, "duration": 220, "velocity": 100}, {"time": 0, "pitch": 38, "duration": 275, "velocity": 100}, {"time": 0, "pitch": 50, "duration": 110, "velocity": 100}, {"time": 0, "pitch": 57, "duration": 110, "velocity": 100}, {"time": 110, "pitch": 45, "duration": 110, "velocity": 100}, {"time": 220, "pitch": 50, "duration": 55, "velocity": 100}, {"time": 220, "pitch": 54, "duration": 55, "velocity": 100}, {"time": 220, "pitch": 57, "duration": 55, "velocity": 100}, {"time": 275, "pitch": 45, "duration": 55, "velocity": 100}, {"time": 275, "pitch": 62, "duration": 55, "velocity": 100}, {"time": 330, "pitch": 50, "duration": 55, "velocity": 100}, {"time": 330, "pitch": 59, "duration": 55, "velocity": 100}, {"time": 385, "pitch": 54, "duration": 55, "velocity": 100}, {"time": 440, "pitch": 38, "duration": 275, "velocity": 100}, {"time": 440, "pitch": 50, "duration": 165, "velocity": 100}, {"time": 440, "pitch": 54, "duration": 220, "velocity": 100}, {"time": 550, "pitch": 50, "duration": 55, "velocity": 100}, {"time": 660, "pitch": 54, "duration": 220, "velocity": 100}, {"time": 660, "pitch": 57, "duration": 220, "velocity": 100}, {"time": 770, "pitch": 54, "duration": 165, "velocity": 100}, {"time": 880, "pitch": 38, "duration": 385, "velocity": 100}, {"time": 880, "pitch": 50, "duration": 165, "velocity": 100}, {"time": 880, "pitch": 54, "duration": 220, "velocity": 100}, {"time": 990, "pitch": 45, "duration": 165, "velocity": 100}, {"time": 1100, "pitch": 54, "duration": 110, "velocity": 100}, {"time": 1100, "pitch": 57, "duration": 110, "velocity": 100}, {"time": 1155, "pitch": 60, "duration": 55, "velocity": 100}, {"time": 1210, "pitch": 45, "duration": 55, "velocity": 100}, {"time": 1210, "pitch": 57, "duration": 55, "velocity": 100}, {"time": 1265, "pitch": 50, "duration": 55, "velocity": 100}, {"time": 1265, "pitch": 57, "duration": 55, "velocity": 100}, {"time": 1320, "pitch": 50, "duration": 55, "velocity": 100}, {"time": 1320, "pitch": 54, "duration": 220, "velocity": 100}, {"time": 1430, "pitch": 50, "duration": 55, "velocity": 100}, {"time": 1540, "pitch": 54, "duration": 110, "velocity": 100}, {"time": 1540, "pitch": 57, "duration": 220, "velocity": 100}, {"time": 1650, "pitch": 50, "duration": 110, "velocity": 100}, {"time": 1650, "pitch": 54, "duration": 110, "velocity": 100}, {"time": 1760, "pitch": 38, "duration": 385, "velocity": 100}, {"time": 1760, "pitch": 50, "duration": 165, "velocity": 100}, {"time": 1760, "pitch": 54, "duration": 165, "velocity": 100}, {"time": 1870, "pitch": 45, "duration": 110, "velocity": 100}, {"time": 1980, "pitch": 50, "duration": 55, "velocity": 100}, {"time": 1980, "pitch": 54, "duration": 55, "velocity": 100}, {"time": 1980, "pitch": 57, "duration": 55, "velocity": 100}, {"time": 2035, "pitch": 45, "duration": 55, "velocity": 100}, {"time": 2035, "pitch": 62, "duration": 55, "velocity": 100}, {"time": 2090, "pitch": 52, "duration": 55, "velocity": 100}, {"time": 2090, "pitch": 57, "duration": 55, "velocity": 100}, {"time": 2145, "pitch": 54, "duration": 55, "velocity": 100}, {"time": 2145, "pitch": 57, "duration": 55, "velocity": 100}, {"time": 2200, "pitch": 38, "duration": 275, "velocity": 100}, {"time": 2200, "pitch": 50, "duration": 165, "velocity": 100}, {"time": 2200, "pitch": 54, "duration": 220, "velocity": 100}, {"time": 2420, "pitch": 54, "duration": 110, "velocity": 100}, {"time": 2420, "pitch": 57, "duration": 220, "velocity": 100}, {"time": 2530, "pitch": 50, "duration": 110, "velocity": 100}, {"time": 2530, "pitch": 54, "duration": 110, "velocity": 100}, {"time": 2640, "pitch": 38, "duration": 385, "velocity": 100}, {"time": 2640, "pitch": 50, "duration": 165, "velocity": 100}, {"time": 2640, "pitch": 54, "duration": 165, "velocity": 100}, {"time": 2750, "pitch": 45, "duration": 275, "velocity": 100}, {"time": 2860, "pitch": 50, "duration": 55, "velocity": 100}, {"time": 2860, "pitch": 54, "duration": 110, "velocity": 100}, {"time": 2860, "pitch": 57, "duration": 110, "velocity": 100}, {"time": 2860, "pitch": 66, "duration": 55, "velocity": 100}, {"time": 2915, "pitch": 67, "duration": 55, "velocity": 100}, {"time": 2970, "pitch": 50, "duration": 55, "velocity": 100}, {"time": 3025, "pitch": 69, "duration": 55, "velocity": 100}, {"time": 3080, "pitch": 43, "duration": 385, "velocity": 100}, {"time": 3080, "pitch": 50, "duration": 165, "velocity": 100}, {"time": 3080, "pitch": 54, "duration": 220, "velocity": 100}, {"time": 3080, "pitch": 69, "duration": 165, "velocity": 100}, {"time": 3190, "pitch": 50, "duration": 55, "velocity": 100}, {"time": 3245, "pitch": 71, "duration": 165, "velocity": 100}, {"time": 3300, "pitch": 50, "duration": 55, "velocity": 100}, {"time": 3300, "pitch": 55, "duration": 110, "velocity": 100}, {"time": 3355, "pitch": 67, "duration": 165, "velocity": 100}, {"time": 3410, "pitch": 55, "duration": 110, "velocity": 100}, {"time": 3520, "pitch": 43, "duration": 275, "velocity": 100}, {"time": 3520, "pitch": 55, "duration": 110, "velocity": 100}, {"time": 3520, "pitch": 62, "duration": 110, "velocity": 100}, {"time": 3630, "pitch": 50, "duration": 110, "velocity": 100}, {"time": 3740, "pitch": 55, "duration": 55, "velocity": 100}, {"time": 3740, "pitch": 59, "duration": 55, "velocity": 100}, {"time": 3740, "pitch": 62, "duration": 110, "velocity": 100}, {"time": 3740, "pitch": 67, "duration": 110, "velocity": 100}, {"time": 3795, "pitch": 50, "duration": 55, "velocity": 100}, {"time": 3850, "pitch": 55, "duration": 55, "velocity": 100}, {"time": 3850, "pitch": 62, "duration": 110, "velocity": 100}, {"time": 3960, "pitch": 43, "duration": 330, "velocity": 100}, {"time": 3960, "pitch": 55, "duration": 55, "velocity": 100}, {"time": 3960, "pitch": 59, "duration": 110, "velocity": 100}, {"time": 3960, "pitch": 62, "duration": 165, "velocity": 100}, {"time": 4070, "pitch": 55, "duration": 55, "velocity": 100}, {"time": 4180, "pitch": 55, "duration": 55, "velocity": 100}, {"time": 4180, "pitch": 62, "duration": 55, "velocity": 100}, {"time": 4235, "pitch": 64, "duration": 55, "velocity": 100}, {"time": 4290, "pitch": 59, "duration": 55, "velocity": 100}, {"time": 4290, "pitch": 62, "duration": 110, "velocity": 100}, {"time": 4345, "pitch": 60, "duration": 55, "velocity": 100}, {"time": 4400, "pitch": 43, "duration": 275, "velocity": 100}, {"time": 4400, "pitch": 55, "duration": 165, "velocity": 100}, {"time": 4400, "pitch": 59, "duration": 220, "velocity": 100}, {"time": 4510, "pitch": 50, "duration": 165, "velocity": 100}, {"time": 4620, "pitch": 59, "duration": 110, "velocity": 100}, {"time": 4620, "pitch": 62, "duration": 220, "velocity": 100}, {"time": 4620, "pitch": 67, "duration": 220, "velocity": 100}, {"time": 4730, "pitch": 50, "duration": 55, "velocity": 100}, {"time": 4785, "pitch": 55, "duration": 55, "velocity": 100}, {"time": 4840, "pitch": 43, "duration": 275, "velocity": 100}, {"time": 4840, "pitch": 55, "duration": 55, "velocity": 100}, {"time": 4840, "pitch": 59, "duration": 220, "velocity": 100}, {"time": 4840, "pitch": 62, "duration": 330, "velocity": 100}, {"time": 4950, "pitch": 55, "duration": 55, "velocity": 100}, {"time": 5060, "pitch": 59, "duration": 55, "velocity": 100}, {"time": 5060, "pitch": 62, "duration": 220, "velocity": 100}, {"time": 5170, "pitch": 55, "duration": 55, "velocity": 100}, {"time": 5170, "pitch": 59, "duration": 110, "velocity": 100}, {"time": 5170, "pitch": 62, "duration": 110, "velocity": 100}, {"time": 5280, "pitch": 43, "duration": 385, "velocity": 100}, {"time": 5280, "pitch": 55, "duration": 110, "velocity": 100}, {"time": 5280, "pitch": 59, "duration": 110, "velocity": 100}, {"time": 5280, "pitch": 67, "duration": 330, "velocity": 100}, {"time": 5390, "pitch": 50, "duration": 110, "velocity": 100}, {"time": 5500, "pitch": 55, "duration": 55, "velocity": 100}, {"time": 5500, "pitch": 59, "duration": 55, "velocity": 100}, {"time": 5500, "pitch": 62, "duration": 55, "velocity": 100}, {"time": 5555, "pitch": 50, "duration": 55, "velocity": 100}, {"time": 5555, "pitch": 57, "duration": 55, "velocity": 100}, {"time": 5610, "pitch": 57, "duration": 55, "velocity": 100}, {"time": 5610, "pitch": 62, "duration": 55, "velocity": 100}, {"time": 5665, "pitch": 59, "duration": 55, "velocity": 100}, {"time": 5665, "pitch": 67, "duration": 55, "velocity": 100}, {"time": 5720, "pitch": 43, "duration": 275, "velocity": 100}, {"time": 5720, "pitch": 55, "duration": 55, "velocity": 100}, {"time": 5720, "pitch": 59, "duration": 55, "velocity": 100}, {"time": 5720, "pitch": 62, "duration": 165, "velocity": 100}, {"time": 5940, "pitch": 55, "duration": 55, "velocity": 100}, {"time": 5940, "pitch": 62, "duration": 220, "velocity": 100}, {"time": 6050, "pitch": 55, "duration": 110, "velocity": 100}, {"time": 6160, "pitch": 43, "duration": 385, "velocity": 100}, {"time": 6160, "pitch": 55, "duration": 110, "velocity": 100}, {"time": 6160, "pitch": 59, "duration": 110, "velocity": 100}, {"time": 6160, "pitch": 71, "duration": 55, "velocity": 100}, {"time": 6270, "pitch": 50, "duration": 275, "velocity": 100}, {"time": 6325, "pitch": 74, "duration": 55, "velocity": 100}, {"time": 6380, "pitch": 55, "duration": 55, "velocity": 100}, {"time": 6380, "pitch": 59, "duration": 110, "velocity": 100}, {"time": 6380, "pitch": 62, "duration": 110, "velocity": 100}, {"time": 6435, "pitch": 74, "duration": 165, "velocity": 100}, {"time": 6490, "pitch": 55, "duration": 55, "velocity": 100}, {"time": 6600, "pitch": 43, "duration": 385, "velocity": 100}, {"time": 6600, "pitch": 55, "duration": 110, "velocity": 100}, {"time": 6600, "pitch": 59, "duration": 165, "velocity": 100}, {"time": 6600, "pitch": 62, "duration": 165, "velocity": 100}, {"time": 6600, "pitch": 67, "duration": 385, "velocity": 100}, {"time": 6710, "pitch": 50, "duration": 110, "velocity": 100}, {"time": 6765, "pitch": 55, "duration": 55, "velocity": 100}, {"time": 6820, "pitch": 55, "duration": 55, "velocity": 100}, {"time": 6820, "pitch": 62, "duration": 110, "velocity": 100}, {"time": 6820, "pitch": 64, "duration": 110, "velocity": 100}, {"time": 6875, "pitch": 50, "duration": 55, "velocity": 100}, {"time": 6930, "pitch": 55, "duration": 110, "velocity": 100}, {"time": 6985, "pitch": 59, "duration": 55, "velocity": 100}, {"time": 7040, "pitch": 31, "duration": 330, "velocity": 100}, {"time": 7040, "pitch": 50, "duration": 110, "velocity": 100}, {"time": 7040, "pitch": 55, "duration": 110, "velocity": 100}, {"time": 7040, "pitch": 67, "duration": 220, "velocity": 100}, {"time": 7150, "pitch": 45, "duration": 110, "velocity": 100}, {"time": 7260, "pitch": 50, "duration": 55, "velocity": 100}, {"time": 7260, "pitch": 55, "duration": 55, "velocity": 100}, {"time": 7260, "pitch": 59, "duration": 110, "velocity": 100}, {"time": 7260, "pitch": 62, "duration": 165, "velocity": 100}, {"time": 7315, "pitch": 43, "duration": 55, "velocity": 100}, {"time": 7370, "pitch": 50, "duration": 55, "velocity": 100}, {"time": 7425, "pitch": 55, "duration": 55, "velocity": 100}, {"time": 7480, "pitch": 43, "duration": 275, "velocity": 100}, {"time": 7480, "pitch": 55, "duration": 110, "velocity": 100}, {"time": 7480, "pitch": 67, "duration": 385, "velocity": 100}, {"time": 7590, "pitch": 50, "duration": 110, "velocity": 100}, {"time": 7700, "pitch": 55, "duration": 55, "velocity": 100}, {"time": 7700, "pitch": 59, "duration": 110, "velocity": 100}, {"time": 7755, "pitch": 50, "duration": 55, "velocity": 100}, {"time": 7810, "pitch": 55, "duration": 55, "velocity": 100}, {"time": 7865, "pitch": 55, "duration": 55, "velocity": 100}, {"time": 7920, "pitch": 43, "duration": 275, "velocity": 100}, {"time": 7920, "pitch": 50, "duration": 110, "velocity": 100}, {"time": 7920, "pitch": 55, "duration": 110, "velocity": 100}, {"time": 8030, "pitch": 47, "duration": 110, "velocity": 100}, {"time": 8140, "pitch": 50, "duration": 55, "velocity": 100}, {"time": 8140, "pitch": 59, "duration": 110, "velocity": 100}, {"time": 8140, "pitch": 62, "duration": 110, "velocity": 100}, {"time": 8140, "pitch": 67, "duration": 220, "velocity": 100}, {"time": 8250, "pitch": 50, "duration": 55, "velocity": 100}, {"time": 8360, "pitch": 43, "duration": 220, "velocity": 100}, {"time": 8360, "pitch": 55, "duration": 110, "velocity": 100}, {"time": 8360, "pitch": 67, "duration": 110, "velocity": 100}, {"time": 8470, "pitch": 50, "duration": 110, "velocity": 100}, {"time": 8470, "pitch": 62, "duration": 330, "velocity": 100}, {"time": 8580, "pitch": 43, "duration": 110, "velocity": 100}, {"time": 8580, "pitch": 55, "duration": 110, "velocity": 100}, {"time": 8580, "pitch": 59, "duration": 220, "velocity": 100}, {"time": 8580, "pitch": 67, "duration": 220, "velocity": 100}, {"time": 8690, "pitch": 43, "duration": 55, "velocity": 100}, {"time": 8800, "pitch": 43, "duration": 275, "velocity": 100}, {"time": 8800, "pitch": 50, "duration": 110, "velocity": 100}, {"time": 8800, "pitch": 55, "duration": 220, "velocity": 100}, {"time": 8910, "pitch": 50, "duration": 110, "velocity": 100}, {"time": 8910, "pitch": 64, "duration": 330, "velocity": 100}, {"time": 9020, "pitch": 50, "duration": 110, "velocity": 100}, {"time": 9020, "pitch": 55, "duration": 110, "velocity": 100}, {"time": 9020, "pitch": 62, "duration": 110, "velocity": 100}, {"time": 9020, "pitch": 69, "duration": 165, "velocity": 100}, {"time": 9130, "pitch": 38, "duration": 110, "velocity": 100}, {"time": 9240, "pitch": 43, "duration": 220, "velocity": 100}, {"time": 9240, "pitch": 50, "duration": 55, "velocity": 100}, {"time": 9240, "pitch": 59, "duration": 110, "velocity": 100}, {"time": 9240, "pitch": 62, "duration": 110, "velocity": 100}, {"time": 9240, "pitch": 69, "duration": 220, "velocity": 100}, {"time": 9350, "pitch": 50, "duration": 55, "velocity": 100}, {"time": 9460, "pitch": 50, "duration": 55, "velocity": 100}, {"time": 9460, "pitch": 55, "duration": 110, "velocity": 100}, {"time": 9460, "pitch": 62, "duration": 110, "velocity": 100}, {"time": 9460, "pitch": 69, "duration": 110, "velocity": 100}, {"time": 9570, "pitch": 50, "duration": 110, "velocity": 100}, {"time": 9570, "pitch": 64, "duration": 220, "velocity": 100}, {"time": 9625, "pitch": 55, "duration": 55, "velocity": 100}, {"time": 9680, "pitch": 43, "duration": 165, "velocity": 100}, {"time": 9680, "pitch": 50, "duration": 55, "velocity": 100}, {"time": 9680, "pitch": 55, "duration": 110, "velocity": 100}, {"time": 9680, "pitch": 59, "duration": 110, "velocity": 100}, {"time": 9680, "pitch": 69, "duration": 220, "velocity": 100}, {"time": 9790, "pitch": 50, "duration": 55, "velocity": 100}, {"time": 9900, "pitch": 55, "duration": 55, "velocity": 100}, {"time": 9900, "pitch": 59, "duration": 55, "velocity": 100}, {"time": 9900, "pitch": 69, "duration": 110, "velocity": 100}, {"time": 10010, "pitch": 59, "duration": 55, "velocity": 100}, {"time": 10120, "pitch": 43, "duration": 275, "velocity": 100}, {"time": 10120, "pitch": 55, "duration": 110, "velocity": 100}, {"time": 10120, "pitch": 59, "duration": 110, "velocity": 100}, {"time": 10120, "pitch": 67, "duration": 275, "velocity": 100}, {"time": 10120, "pitch": 71, "duration": 440, "velocity": 100}, {"time": 10230, "pitch": 50, "duration": 110, "velocity": 100}, {"time": 10340, "pitch": 57, "duration": 55, "velocity": 100}, {"time": 10340, "pitch": 62, "duration": 110, "velocity": 100}, {"time": 10450, "pitch": 50, "duration": 55, "velocity": 100}, {"time": 10505, "pitch": 57, "duration": 55, "velocity": 100}, {"time": 10560, "pitch": 38, "duration": 275, "velocity": 100}, {"time": 10560, "pitch": 57, "duration": 55, "velocity": 100}, {"time": 10560, "pitch": 66, "duration": 110, "velocity": 100}, {"time": 10560, "pitch": 69, "duration": 220, "velocity": 100}, {"time": 10670, "pitch": 45, "duration": 110, "velocity": 100}, {"time": 10725, "pitch": 50, "duration": 55, "velocity": 100}, {"time": 10780, "pitch": 54, "duration": 55, "velocity": 100}, {"time": 10780, "pitch": 69, "duration": 165, "velocity": 100}, {"time": 10835, "pitch": 45, "duration": 55, "velocity": 100}, {"time": 10890, "pitch": 50, "duration": 55, "velocity": 100}, {"time": 10945, "pitch": 54, "duration": 55, "velocity": 100}, {"time": 11000, "pitch": 38, "duration": 275, "velocity": 100}, {"time": 11000, "pitch": 57, "duration": 110, "velocity": 100}, {"time": 11000, "pitch": 66, "duration": 330, "velocity": 100}, {"time": 11000, "pitch": 69, "duration": 330, "velocity": 100}, {"time": 11110, "pitch": 50, "duration": 110, "velocity": 100}, {"time": 11220, "pitch": 54, "duration": 55, "velocity": 100}, {"time": 11220, "pitch": 57, "duration": 55, "velocity": 100}, {"time": 11275, "pitch": 45, "duration": 55, "velocity": 100}, {"time": 11330, "pitch": 54, "duration": 55, "velocity": 100}, {"time": 11330, "pitch": 69, "duration": 110, "velocity": 100}, {"time": 11385, "pitch": 57, "duration": 55, "velocity": 100}, {"time": 11440, "pitch": 38, "duration": 275, "velocity": 100}, {"time": 11440, "pitch": 50, "duration": 110, "velocity": 100}, {"time": 11440, "pitch": 57, "duration": 110, "velocity": 100}, {"time": 11440, "pitch": 62, "duration": 330, "velocity": 100}, {"time": 11440, "pitch": 66, "duration": 440, "velocity": 100}, {"time": 11550, "pitch": 45, "duration": 110, "velocity": 100}, {"time": 11660, "pitch": 50, "duration": 55, "velocity": 100}, {"time": 11660, "pitch": 54, "duration": 55, "velocity": 100}, {"time": 11660, "pitch": 57, "duration": 110, "velocity": 100}, {"time": 11715, "pitch": 45, "duration": 55, "velocity": 100}, {"time": 11770, "pitch": 50, "duration": 55, "velocity": 100}, {"time": 11880, "pitch": 38, "duration": 275, "velocity": 100}, {"time": 11880, "pitch": 50, "duration": 110, "velocity": 100}, {"time": 11880, "pitch": 54, "duration": 110, "velocity": 100}, {"time": 11880, "pitch": 62, "duration": 220, "velocity": 100}, {"time": 11880, "pitch": 66, "duration": 385, "velocity": 100}, {"time": 11990, "pitch": 45, "duration": 110, "velocity": 100}, {"time": 12100, "pitch": 50, "duration": 55, "velocity": 100}, {"time": 12100, "pitch": 54, "duration": 55, "velocity": 100}, {"time": 12100, "pitch": 62, "duration": 110, "velocity": 100}, {"time": 12155, "pitch": 45, "duration": 55, "velocity": 100}, {"time": 12210, "pitch": 50, "duration": 55, "velocity": 100}, {"time": 12320, "pitch": 38, "duration": 275, "velocity": 100}, {"time": 12320, "pitch": 57, "duration": 110, "velocity": 100}, {"time": 12320, "pitch": 62, "duration": 165, "velocity": 100}, {"time": 12320, "pitch": 66, "duration": 275, "velocity": 100}, {"time": 12320, "pitch": 74, "duration": 275, "velocity": 100}, {"time": 12430, "pitch": 45, "duration": 110, "velocity": 100}, {"time": 12485, "pitch": 50, "duration": 55, "velocity": 100}, {"time": 12540, "pitch": 57, "duration": 55, "velocity": 100}, {"time": 12595, "pitch": 54, "duration": 55, "velocity": 100}, {"time": 12595, "pitch": 62, "duration": 55, "velocity": 100}, {"time": 12650, "pitch": 57, "duration": 55, "velocity": 100}, {"time": 12760, "pitch": 38, "duration": 275, "velocity": 100}, {"time": 12760, "pitch": 50, "duration": 55, "velocity": 100}, {"time": 12760, "pitch": 54, "duration": 110, "velocity": 100}, {"time": 12760, "pitch": 62, "duration": 110, "velocity": 100}, {"time": 12760, "pitch": 66, "duration": 110, "velocity": 100}, {"time": 12815, "pitch": 45, "duration": 110, "velocity": 100}, {"time": 12870, "pitch": 50, "duration": 55, "velocity": 100}, {"time": 12870, "pitch": 66, "duration": 165, "velocity": 100}, {"time": 12925, "pitch": 50, "duration": 55, "velocity": 100}, {"time": 12925, "pitch": 57, "duration": 110, "velocity": 100}, {"time": 12980, "pitch": 69, "duration": 220, "velocity": 100}, {"time": 13035, "pitch": 50, "duration": 55, "velocity": 100}, {"time": 13035, "pitch": 57, "duration": 55, "velocity": 100}, {"time": 13090, "pitch": 50, "duration": 55, "velocity": 100}, {"time": 13090, "pitch": 64, "duration": 110, "velocity": 100}, {"time": 13145, "pitch": 54, "duration": 55, "velocity": 100}, {"time": 13200, "pitch": 38, "duration": 275, "velocity": 100}, {"time": 13200, "pitch": 50, "duration": 55, "velocity": 100}, {"time": 13200, "pitch": 57, "duration": 55, "velocity": 100}, {"time": 13200, "pitch": 66, "duration": 330, "velocity": 100}, {"time": 13255, "pitch": 45, "duration": 110, "velocity": 100}, {"time": 13310, "pitch": 50, "duration": 55, "velocity": 100}, {"time": 13310, "pitch": 62, "duration": 55, "velocity": 100}, {"time": 13365, "pitch": 50, "duration": 55, "velocity": 100}, {"time": 13365, "pitch": 57, "duration": 55, "velocity": 100}, {"time": 13365, "pitch": 62, "duration": 55, "velocity": 100}, {"time": 13420, "pitch": 45, "duration": 55, "velocity": 100}, {"time": 13475, "pitch": 54, "duration": 55, "velocity": 100}, {"time": 13475, "pitch": 57, "duration": 55, "velocity": 100}, {"time": 13475, "pitch": 62, "duration": 55, "velocity": 100}, {"time": 13530, "pitch": 50, "duration": 55, "velocity": 100}, {"time": 13640, "pitch": 38, "duration": 330, "velocity": 100}, {"time": 13640, "pitch": 50, "duration": 110, "velocity": 100}, {"time": 13640, "pitch": 57, "duration": 110, "velocity": 100}, {"time": 13640, "pitch": 66, "duration": 165, "velocity": 100}, {"time": 13640, "pitch": 69, "duration": 220, "velocity": 100}, {"time": 13750, "pitch": 45, "duration": 165, "velocity": 100}, {"time": 13805, "pitch": 50, "duration": 55, "velocity": 100}, {"time": 13860, "pitch": 57, "duration": 55, "velocity": 100}, {"time": 13860, "pitch": 62, "duration": 110, "velocity": 100}, {"time": 13860, "pitch": 66, "duration": 220, "velocity": 100}, {"time": 13915, "pitch": 50, "duration": 55, "velocity": 100}, {"time": 13970, "pitch": 50, "duration": 55, "velocity": 100}, {"time": 14080, "pitch": 38, "duration": 275, "velocity": 100}, {"time": 14080, "pitch": 62, "duration": 110, "velocity": 100}, {"time": 14080, "pitch": 66, "duration": 165, "velocity": 100}, {"time": 14135, "pitch": 45, "duration": 220, "velocity": 100}, {"time": 14190, "pitch": 50, "duration": 55, "velocity": 100}, {"time": 14245, "pitch": 50, "duration": 55, "velocity": 100}, {"time": 14245, "pitch": 54, "duration": 55, "velocity": 100}, {"time": 14245, "pitch": 57, "duration": 55, "velocity": 100}, {"time": 14300, "pitch": 50, "duration": 55, "velocity": 100}, {"time": 14300, "pitch": 62, "duration": 165, "velocity": 100}, {"time": 14355, "pitch": 45, "duration": 55, "velocity": 100}, {"time": 14410, "pitch": 50, "duration": 55, "velocity": 100}, {"time": 14520, "pitch": 38, "duration": 330, "velocity": 100}, {"time": 14520, "pitch": 50, "duration": 110, "velocity": 100}, {"time": 14520, "pitch": 54, "duration": 110, "velocity": 100}, {"time": 14520, "pitch": 62, "duration": 55, "velocity": 100}, {"time": 14520, "pitch": 66, "duration": 385, "velocity": 100}, {"time": 14630, "pitch": 50, "duration": 55, "velocity": 100}, {"time": 14685, "pitch": 50, "duration": 55, "velocity": 100}, {"time": 14685, "pitch": 57, "duration": 55, "velocity": 100}, {"time": 14740, "pitch": 45, "duration": 55, "velocity": 100}, {"time": 14795, "pitch": 50, "duration": 55, "velocity": 100}, {"time": 14795, "pitch": 57, "duration": 55, "velocity": 100}, {"time": 14850, "pitch": 45, "duration": 110, "velocity": 100}, {"time": 14905, "pitch": 54, "duration": 55, "velocity": 100}, {"time": 14960, "pitch": 38, "duration": 275, "velocity": 100}, {"time": 14960, "pitch": 50, "duration": 110, "velocity": 100}, {"time": 14960, "pitch": 54, "duration": 110, "velocity": 100}, {"time": 15070, "pitch": 45, "duration": 110, "velocity": 100}, {"time": 15180, "pitch": 50, "duration": 55, "velocity": 100}, {"time": 15180, "pitch": 54, "duration": 55, "velocity": 100}, {"time": 15180, "pitch": 57, "duration": 55, "velocity": 100}, {"time": 15180, "pitch": 62, "duration": 55, "velocity": 100}, {"time": 15180, "pitch": 66, "duration": 220, "velocity": 100}, {"time": 15235, "pitch": 45, "duration": 55, "velocity": 100}, {"time": 15290, "pitch": 50, "duration": 55, "velocity": 100}, {"time": 15400, "pitch": 38, "duration": 275, "velocity": 100}, {"time": 15400, "pitch": 45, "duration": 55, "velocity": 100}, {"time": 15400, "pitch": 54, "duration": 110, "velocity": 100}, {"time": 15400, "pitch": 62, "duration": 220, "velocity": 100}, {"time": 15510, "pitch": 45, "duration": 110, "velocity": 100}, {"time": 15510, "pitch": 62, "duration": 220, "velocity": 100}, {"time": 15620, "pitch": 45, "duration": 110, "velocity": 100}, {"time": 15620, "pitch": 50, "duration": 110, "velocity": 100}, {"time": 15620, "pitch": 62, "duration": 220, "velocity": 100}, {"time": 15620, "pitch": 66, "duration": 220, "velocity": 100}, {"time": 15675, "pitch": 45, "duration": 55, "velocity": 100}, {"time": 15730, "pitch": 50, "duration": 55, "velocity": 100}, {"time": 15785, "pitch": 54, "duration": 55, "velocity": 100}, {"time": 15840, "pitch": 38, "duration": 275, "velocity": 100}, {"time": 15895, "pitch": 45, "duration": 110, "velocity": 100}, {"time": 15950, "pitch": 50, "duration": 55, "velocity": 100}, {"time": 15950, "pitch": 62, "duration": 110, "velocity": 100}, {"time": 16005, "pitch": 50, "duration": 55, "velocity": 100}, {"time": 16060, "pitch": 45, "duration": 55, "velocity": 100}, {"time": 16060, "pitch": 64, "duration": 165, "velocity": 100}, {"time": 16115, "pitch": 50, "duration": 55, "velocity": 100}, {"time": 16115, "pitch": 57, "duration": 55, "velocity": 100}, {"time": 16170, "pitch": 45, "duration": 55, "velocity": 100}, {"time": 16225, "pitch": 50, "duration": 55, "velocity": 100}, {"time": 16280, "pitch": 38, "duration": 55, "velocity": 100}, {"time": 16280, "pitch": 50, "duration": 55, "velocity": 100}, {"time": 16280, "pitch": 54, "duration": 110, "velocity": 100}, {"time": 16280, "pitch": 62, "duration": 110, "velocity": 100}, {"time": 16280, "pitch": 66, "duration": 220, "velocity": 100}, {"time": 16335, "pitch": 45, "duration": 55, "velocity": 100}, {"time": 16445, "pitch": 50, "duration": 55, "velocity": 100}, {"time": 16445, "pitch": 54, "duration": 110, "velocity": 100}, {"time": 16445, "pitch": 57, "duration": 110, "velocity": 100}, {"time": 16500, "pitch": 69, "duration": 220, "velocity": 100}, {"time": 16555, "pitch": 50, "duration": 55, "velocity": 100}, {"time": 16555, "pitch": 54, "duration": 55, "velocity": 100}, {"time": 16555, "pitch": 62, "duration": 55, "velocity": 100}, {"time": 16610, "pitch": 45, "duration": 55, "velocity": 100}, {"time": 16610, "pitch": 64, "duration": 110, "velocity": 100}, {"time": 16665, "pitch": 50, "duration": 55, "velocity": 100}, {"time": 16720, "pitch": 38, "duration": 110, "velocity": 100}, {"time": 16720, "pitch": 50, "duration": 55, "velocity": 100}, {"time": 16720, "pitch": 54, "duration": 110, "velocity": 100}, {"time": 16720, "pitch": 66, "duration": 220, "velocity": 100}, {"time": 16830, "pitch": 45, "duration": 55, "velocity": 100}, {"time": 16885, "pitch": 50, "duration": 55, "velocity": 100}, {"time": 16940, "pitch": 45, "duration": 55, "velocity": 100}, {"time": 16940, "pitch": 69, "duration": 110, "velocity": 100}, {"time": 16995, "pitch": 50, "duration": 55, "velocity": 100}, {"time": 16995, "pitch": 57, "duration": 55, "velocity": 100}, {"time": 17050, "pitch": 66, "duration": 55, "velocity": 100}, {"time": 17160, "pitch": 50, "duration": 110, "velocity": 100}, {"time": 17160, "pitch": 54, "duration": 55, "velocity": 100}, {"time": 17160, "pitch": 62, "duration": 110, "velocity": 100}, {"time": 17160, "pitch": 66, "duration": 275, "velocity": 100}, {"time": 17160, "pitch": 69, "duration": 275, "velocity": 100}, {"time": 17215, "pitch": 50, "duration": 220, "velocity": 100}, {"time": 17270, "pitch": 57, "duration": 55, "velocity": 100}, {"time": 17325, "pitch": 57, "duration": 55, "velocity": 100}, {"time": 17325, "pitch": 62, "duration": 110, "velocity": 100}, {"time": 17380, "pitch": 50, "duration": 55, "velocity": 100}, {"time": 17435, "pitch": 57, "duration": 55, "velocity": 100}, {"time": 17490, "pitch": 54, "duration": 55, "velocity": 100}, {"time": 17545, "pitch": 57, "duration": 55, "velocity": 100}, {"time": 17600, "pitch": 38, "duration": 330, "velocity": 100}, {"time": 17600, "pitch": 57, "duration": 55, "velocity": 100}, {"time": 17600, "pitch": 66, "duration": 165, "velocity": 100}, {"time": 17600, "pitch": 69, "duration": 385, "velocity": 100}, {"time": 17655, "pitch": 45, "duration": 110, "velocity": 100}, {"time": 17710, "pitch": 50, "duration": 55, "velocity": 100}, {"time": 17765, "pitch": 57, "duration": 55, "velocity": 100}, {"time": 17765, "pitch": 62, "duration": 55, "velocity": 100}, {"time": 17820, "pitch": 45, "duration": 55, "velocity": 100}, {"time": 17820, "pitch": 69, "duration": 220, "velocity": 100}, {"time": 17875, "pitch": 57, "duration": 55, "velocity": 100}, {"time": 17875, "pitch": 62, "duration": 55, "velocity": 100}, {"time": 17875, "pitch": 66, "duration": 55, "velocity": 100}, {"time": 18040, "pitch": 38, "duration": 275, "velocity": 100}, {"time": 18040, "pitch": 62, "duration": 110, "velocity": 100}, {"time": 18040, "pitch": 66, "duration": 330, "velocity": 100}, {"time": 18150, "pitch": 45, "duration": 110, "velocity": 100}, {"time": 18205, "pitch": 57, "duration": 55, "velocity": 100}, {"time": 18205, "pitch": 66, "duration": 165, "velocity": 100}, {"time": 18260, "pitch": 45, "duration": 55, "velocity": 100}, {"time": 18315, "pitch": 62, "duration": 55, "velocity": 100}, {"time": 18315, "pitch": 66, "duration": 165, "velocity": 100}, {"time": 18370, "pitch": 45, "duration": 55, "velocity": 100}, {"time": 18370, "pitch": 67, "duration": 110, "velocity": 100}, {"time": 18425, "pitch": 62, "duration": 55, "velocity": 100}, {"time": 18480, "pitch": 38, "duration": 275, "velocity": 100}, {"time": 18480, "pitch": 57, "duration": 110, "velocity": 100}, {"time": 18480, "pitch": 62, "duration": 165, "velocity": 100}, {"time": 18480, "pitch": 66, "duration": 220, "velocity": 100}, {"time": 18590, "pitch": 45, "duration": 55, "velocity": 100}, {"time": 18645, "pitch": 57, "duration": 55, "velocity": 100}, {"time": 18645, "pitch": 62, "duration": 55, "velocity": 100}, {"time": 18645, "pitch": 66, "duration": 220, "velocity": 100}, {"time": 18700, "pitch": 45, "duration": 55, "velocity": 100}, {"time": 18755, "pitch": 57, "duration": 55, "velocity": 100}, {"time": 18755, "pitch": 62, "duration": 55, "velocity": 100}, {"time": 18810, "pitch": 45, "duration": 110, "velocity": 100}, {"time": 18920, "pitch": 38, "duration": 275, "velocity": 100}, {"time": 18920, "pitch": 54, "duration": 110, "velocity": 100}, {"time": 18920, "pitch": 57, "duration": 165, "velocity": 100}, {"time": 18920, "pitch": 62, "duration": 220, "velocity": 100}, {"time": 19030, "pitch": 45, "duration": 55, "velocity": 100}, {"time": 19085, "pitch": 57, "duration": 55, "velocity": 100}, {"time": 19085, "pitch": 62, "duration": 165, "velocity": 100}, {"time": 19140, "pitch": 45, "duration": 110, "velocity": 100}, {"time": 19195, "pitch": 57, "duration": 55, "velocity": 100}, {"time": 19195, "pitch": 62, "duration": 110, "velocity": 100}, {"time": 19250, "pitch": 54, "duration": 55, "velocity": 100}, {"time": 19360, "pitch": 38, "duration": 1705, "velocity": 100}, {"time": 19360, "pitch": 57, "duration": 220, "velocity": 100}, {"time": 19470, "pitch": 45, "duration": 1650, "velocity": 100}, {"time": 19580, "pitch": 54, "duration": 165, "velocity": 100}, {"time": 19690, "pitch": 54, "duration": 55, "velocity": 100}, {"time": 19690, "pitch": 57, "duration": 55, "velocity": 100}, {"time": 19800, "pitch": 62, "duration": 220, "velocity": 100}, {"time": 19910, "pitch": 50, "duration": 55, "velocity": 100}, {"time": 20020, "pitch": 54, "duration": 220, "velocity": 100}, {"time": 20020, "pitch": 57, "duration": 440, "velocity": 100}, {"time": 20570, "pitch": 69, "duration": 110, "velocity": 100}, {"time": 20680, "pitch": 38, "duration": 440, "velocity": 100}, {"time": 20680, "pitch": 69, "duration": 220, "velocity": 100}, {"time": 20790, "pitch": 50, "duration": 330, "velocity": 100}, {"time": 20790, "pitch": 62, "duration": 110, "velocity": 100}, {"time": 20900, "pitch": 54, "duration": 220, "velocity": 100}, {"time": 20900, "pitch": 62, "duration": 110, "velocity": 100}, {"time": 21010, "pitch": 57, "duration": 110, "velocity": 100}, {"time": 21010, "pitch": 66, "duration": 110, "velocity": 100}]}]}