{"metadata": {"schema_version": "0.1", "title": "None", "source_filename": "20211215_140959.mid", "source_format": "midi"}, "resolution": 220, "tempos": [{"time": 0, "qpm": 120.0}], "time_signatures": [{"time": 0, "numerator": 4, "denominator": 4}], "tracks": [{"program": 0, "is_drum": false, "name": "Piano", "notes": [{"time": 0, "pitch": 63, "duration": 110, "velocity": 100}, {"time": 110, "pitch": 63, "duration": 110, "velocity": 100}, {"time": 220, "pitch": 63, "duration": 110, "velocity": 100}, {"time": 330, "pitch": 63, "duration": 110, "velocity": 100}, {"time": 440, "pitch": 63, "duration": 110, "velocity": 100}, {"time": 660, "pitch": 72, "duration": 110, "velocity": 100}, {"time": 770, "pitch": 68, "duration": 770, "velocity": 100}, {"time": 1760, "pitch": 63, "duration": 110, "velocity": 100}, {"time": 1870, "pitch": 68, "duration": 110, "velocity": 100}, {"time": 1980, "pitch": 68, "duration": 110, "velocity": 100}, {"time": 2090, "pitch": 68, "duration": 110, "velocity": 100}, {"time": 2200, "pitch": 70, "duration": 110, "velocity": 100}, {"time": 2310, "pitch": 72, "duration": 110, "velocity": 100}, {"time": 2530, "pitch": 68, "duration": 110, "velocity": 100}, {"time": 2640, "pitch": 63, "duration": 660, "velocity": 100}, {"time": 3520, "pitch": 63, "duration": 110, "velocity": 100}, {"time": 3630, "pitch": 63, "duration": 110, "velocity": 100}, {"time": 3740, "pitch": 63, "duration": 110, "velocity": 100}, {"time": 3850, "pitch": 63, "duration": 110, "velocity": 100}, {"time": 3960, "pitch": 63, "duration": 110, "velocity": 100}, {"time": 4180, "pitch": 75, "duration": 110, "velocity": 100}, {"time": 4290, "pitch": 72, "duration": 770, "velocity": 100}, {"time": 5280, "pitch": 65, "duration": 110, "velocity": 100}, {"time": 5390, "pitch": 73, "duration": 110, "velocity": 100}, {"time": 5500, "pitch": 73, "duration": 110, "velocity": 100}, {"time": 5610, "pitch": 73, "duration": 110, "velocity": 100}, {"time": 5830, "pitch": 72, "duration": 110, "velocity": 100}, {"time": 5940, "pitch": 72, "duration": 110, "velocity": 100}, {"time": 6050, "pitch": 68, "duration": 110, "velocity": 100}, {"time": 6160, "pitch": 63, "duration": 220, "velocity": 100}, {"time": 6380, "pitch": 72, "duration": 110, "velocity": 100}, {"time": 6490, "pitch": 70, "duration": 330, "velocity": 100}, {"time": 7040, "pitch": 63, "duration": 110, "velocity": 100}, {"time": 7150, "pitch": 63, "duration": 110, "velocity": 100}, {"time": 7260, "pitch": 63, "duration": 110, "velocity": 100}, {"time": 7370, "pitch": 63, "duration": 110, "velocity": 100}, {"time": 7480, "pitch": 63, "duration": 110, "velocity": 100}, {"time": 7700, "pitch": 72, "duration": 110, "velocity": 100}, {"time": 7810, "pitch": 68, "duration": 770, "velocity": 100}, {"time": 8800, "pitch": 63, "duration": 110, "velocity": 100}, {"time": 8910, "pitch": 68, "duration": 110, "velocity": 100}, {"time": 9020, "pitch": 68, "duration": 110, "velocity": 100}, {"time": 9130, "pitch": 68, "duration": 110, "velocity": 100}, {"time": 9240, "pitch": 70, "duration": 110, "velocity": 100}, {"time": 9350, "pitch": 72, "duration": 110, "velocity": 100}, {"time": 9570, "pitch": 68, "duration": 110, "velocity": 100}, {"time": 9680, "pitch": 63, "duration": 660, "velocity": 100}, {"time": 10560, "pitch": 63, "duration": 110, "velocity": 100}, {"time": 10670, "pitch": 63, "duration": 110, "velocity": 100}, {"time": 10780, "pitch": 63, "duration": 110, "velocity": 100}, {"time": 10890, "pitch": 63, "duration": 110, "velocity": 100}, {"time": 11000, "pitch": 63, "duration": 110, "velocity": 100}, {"time": 11220, "pitch": 75, "duration": 110, "velocity": 100}, {"time": 11330, "pitch": 72, "duration": 770, "velocity": 100}, {"time": 12320, "pitch": 65, "duration": 110, "velocity": 100}, {"time": 12430, "pitch": 73, "duration": 110, "velocity": 100}, {"time": 12540, "pitch": 73, "duration": 110, "velocity": 100}, {"time": 12650, "pitch": 73, "duration": 110, "velocity": 100}, {"time": 12870, "pitch": 72, "duration": 110, "velocity": 100}, {"time": 12980, "pitch": 72, "duration": 110, "velocity": 100}, {"time": 13090, "pitch": 68, "duration": 110, "velocity": 100}, {"time": 13200, "pitch": 63, "duration": 220, "velocity": 100}, {"time": 13420, "pitch": 70, "duration": 110, "velocity": 100}, {"time": 13530, "pitch": 68, "duration": 330, "velocity": 100}, {"time": 14080, "pitch": 72, "duration": 220, "velocity": 100}, {"time": 14300, "pitch": 75, "duration": 220, "velocity": 100}, {"time": 14520, "pitch": 75, "duration": 220, "velocity": 100}, {"time": 14740, "pitch": 72, "duration": 110, "velocity": 100}, {"time": 14850, "pitch": 75, "duration": 990, "velocity": 100}, {"time": 15840, "pitch": 72, "duration": 330, "velocity": 100}, {"time": 16170, "pitch": 68, "duration": 110, "velocity": 100}, {"time": 16280, "pitch": 70, "duration": 220, "velocity": 100}, {"time": 16500, "pitch": 72, "duration": 220, "velocity": 100}, {"time": 16720, "pitch": 65, "duration": 880, "velocity": 100}, {"time": 17600, "pitch": 67, "duration": 330, "velocity": 100}, {"time": 17930, "pitch": 68, "duration": 110, "velocity": 100}, {"time": 18040, "pitch": 70, "duration": 220, "velocity": 100}, {"time": 18260, "pitch": 63, "duration": 220, "velocity": 100}, {"time": 18480, "pitch": 72, "duration": 880, "velocity": 100}, {"time": 19360, "pitch": 73, "duration": 330, "velocity": 100}, {"time": 19690, "pitch": 72, "duration": 110, "velocity": 100}, {"time": 19800, "pitch": 70, "duration": 110, "velocity": 100}, {"time": 19910, "pitch": 72, "duration": 220, "velocity": 100}, {"time": 20130, "pitch": 68, "duration": 110, "velocity": 100}, {"time": 20240, "pitch": 63, "duration": 880, "velocity": 100}, {"time": 21120, "pitch": 72, "duration": 220, "velocity": 100}, {"time": 21340, "pitch": 75, "duration": 220, "velocity": 100}, {"time": 21560, "pitch": 75, "duration": 220, "velocity": 100}, {"time": 21780, "pitch": 72, "duration": 110, "velocity": 100}, {"time": 21890, "pitch": 75, "duration": 990, "velocity": 100}, {"time": 22880, "pitch": 73, "duration": 330, "velocity": 100}, {"time": 23210, "pitch": 72, "duration": 110, "velocity": 100}, {"time": 23320, "pitch": 70, "duration": 220, "velocity": 100}, {"time": 23540, "pitch": 68, "duration": 220, "velocity": 100}, {"time": 23760, "pitch": 77, "duration": 880, "velocity": 100}, {"time": 24640, "pitch": 65, "duration": 330, "velocity": 100}, {"time": 24970, "pitch": 67, "duration": 110, "velocity": 100}, {"time": 25080, "pitch": 68, "duration": 220, "velocity": 100}, {"time": 25300, "pitch": 65, "duration": 220, "velocity": 100}, {"time": 25520, "pitch": 73, "duration": 880, "velocity": 100}, {"time": 26400, "pitch": 70, "duration": 330, "velocity": 100}, {"time": 26730, "pitch": 70, "duration": 110, "velocity": 100}, {"time": 26840, "pitch": 72, "duration": 220, "velocity": 100}, {"time": 27060, "pitch": 74, "duration": 220, "velocity": 100}, {"time": 27280, "pitch": 75, "duration": 880, "velocity": 100}, {"time": 28160, "pitch": 63, "duration": 220, "velocity": 100}, {"time": 28380, "pitch": 68, "duration": 110, "velocity": 100}, {"time": 28490, "pitch": 68, "duration": 110, "velocity": 100}, {"time": 28600, "pitch": 70, "duration": 220, "velocity": 100}, {"time": 28820, "pitch": 72, "duration": 220, "velocity": 100}, {"time": 29040, "pitch": 73, "duration": 220, "velocity": 100}, {"time": 29260, "pitch": 72, "duration": 165, "velocity": 100}, {"time": 29425, "pitch": 72, "duration": 55, "velocity": 100}, {"time": 29480, "pitch": 70, "duration": 220, "velocity": 100}, {"time": 29700, "pitch": 65, "duration": 220, "velocity": 100}, {"time": 29920, "pitch": 63, "duration": 110, "velocity": 100}, {"time": 30030, "pitch": 68, "duration": 110, "velocity": 100}, {"time": 30140, "pitch": 68, "duration": 110, "velocity": 100}, {"time": 30250, "pitch": 68, "duration": 110, "velocity": 100}, {"time": 30360, "pitch": 67, "duration": 110, "velocity": 100}, {"time": 30470, "pitch": 68, "duration": 110, "velocity": 100}, {"time": 30580, "pitch": 70, "duration": 110, "velocity": 100}, {"time": 30690, "pitch": 70, "duration": 110, "velocity": 100}, {"time": 30800, "pitch": 68, "duration": 110, "velocity": 100}, {"time": 30910, "pitch": 68, "duration": 220, "velocity": 100}, {"time": 31130, "pitch": 70, "duration": 110, "velocity": 100}, {"time": 31240, "pitch": 72, "duration": 440, "velocity": 100}, {"time": 31680, "pitch": 65, "duration": 220, "velocity": 100}, {"time": 31900, "pitch": 70, "duration": 165, "velocity": 100}, {"time": 32065, "pitch": 70, "duration": 55, "velocity": 100}, {"time": 32120, "pitch": 72, "duration": 220, "velocity": 100}, {"time": 32340, "pitch": 73, "duration": 220, "velocity": 100}, {"time": 32560, "pitch": 77, "duration": 220, "velocity": 100}, {"time": 32780, "pitch": 75, "duration": 165, "velocity": 100}, {"time": 32945, "pitch": 77, "duration": 55, "velocity": 100}, {"time": 33000, "pitch": 73, "duration": 220, "velocity": 100}, {"time": 33220, "pitch": 72, "duration": 220, "velocity": 100}, {"time": 33440, "pitch": 65, "duration": 110, "velocity": 100}, {"time": 33550, "pitch": 70, "duration": 110, "velocity": 100}, {"time": 33660, "pitch": 70, "duration": 110, "velocity": 100}, {"time": 33770, "pitch": 70, "duration": 110, "velocity": 100}, {"time": 33880, "pitch": 68, "duration": 110, "velocity": 100}, {"time": 33990, "pitch": 72, "duration": 110, "velocity": 100}, {"time": 34100, "pitch": 72, "duration": 110, "velocity": 100}, {"time": 34210, "pitch": 72, "duration": 110, "velocity": 100}, {"time": 34320, "pitch": 70, "duration": 110, "velocity": 100}, {"time": 34430, "pitch": 70, "duration": 220, "velocity": 100}, {"time": 34650, "pitch": 72, "duration": 110, "velocity": 100}, {"time": 34760, "pitch": 73, "duration": 440, "velocity": 100}, {"time": 35200, "pitch": 68, "duration": 220, "velocity": 100}, {"time": 35420, "pitch": 73, "duration": 165, "velocity": 100}, {"time": 35585, "pitch": 73, "duration": 55, "velocity": 100}, {"time": 35640, "pitch": 75, "duration": 220, "velocity": 100}, {"time": 35860, "pitch": 77, "duration": 220, "velocity": 100}, {"time": 36080, "pitch": 77, "duration": 220, "velocity": 100}, {"time": 36300, "pitch": 75, "duration": 165, "velocity": 100}, {"time": 36465, "pitch": 77, "duration": 55, "velocity": 100}, {"time": 36520, "pitch": 73, "duration": 220, "velocity": 100}, {"time": 36740, "pitch": 68, "duration": 220, "velocity": 100}, {"time": 36960, "pitch": 68, "duration": 220, "velocity": 100}, {"time": 37180, "pitch": 73, "duration": 165, "velocity": 100}, {"time": 37345, "pitch": 73, "duration": 55, "velocity": 100}, {"time": 37400, "pitch": 75, "duration": 220, "velocity": 100}, {"time": 37620, "pitch": 77, "duration": 220, "velocity": 100}, {"time": 37840, "pitch": 77, "duration": 220, "velocity": 100}, {"time": 38060, "pitch": 75, "duration": 165, "velocity": 100}, {"time": 38225, "pitch": 77, "duration": 55, "velocity": 100}, {"time": 38280, "pitch": 73, "duration": 220, "velocity": 100}, {"time": 38500, "pitch": 68, "duration": 220, "velocity": 100}, {"time": 38940, "pitch": 68, "duration": 220, "velocity": 100}, {"time": 39160, "pitch": 77, "duration": 330, "velocity": 100}, {"time": 39490, "pitch": 68, "duration": 110, "velocity": 100}, {"time": 39600, "pitch": 77, "duration": 880, "velocity": 100}, {"time": 40700, "pitch": 68, "duration": 220, "velocity": 100}, {"time": 40920, "pitch": 77, "duration": 330, "velocity": 100}, {"time": 41250, "pitch": 68, "duration": 110, "velocity": 100}, {"time": 41360, "pitch": 77, "duration": 880, "velocity": 100}, {"time": 42240, "pitch": 79, "duration": 1760, "velocity": 100}, {"time": 44000, "pitch": 79, "duration": 1540, "velocity": 100}, {"time": 45760, "pitch": 75, "duration": 110, "velocity": 100}, {"time": 45870, "pitch": 75, "duration": 110, "velocity": 100}, {"time": 46090, "pitch": 72, "duration": 110, "velocity": 100}, {"time": 46200, "pitch": 75, "duration": 220, "velocity": 100}, {"time": 46640, "pitch": 75, "duration": 110, "velocity": 100}, {"time": 46750, "pitch": 75, "duration": 110, "velocity": 100}, {"time": 46970, "pitch": 72, "duration": 110, "velocity": 100}, {"time": 47080, "pitch": 75, "duration": 220, "velocity": 100}, {"time": 47520, "pitch": 77, "duration": 110, "velocity": 100}, {"time": 47630, "pitch": 77, "duration": 110, "velocity": 100}, {"time": 47850, "pitch": 73, "duration": 110, "velocity": 100}, {"time": 47960, "pitch": 77, "duration": 220, "velocity": 100}, {"time": 48400, "pitch": 77, "duration": 110, "velocity": 100}, {"time": 48510, "pitch": 77, "duration": 110, "velocity": 100}, {"time": 48730, "pitch": 73, "duration": 110, "velocity": 100}, {"time": 48840, "pitch": 77, "duration": 220, "velocity": 100}, {"time": 49170, "pitch": 75, "duration": 55, "velocity": 100}, {"time": 49225, "pitch": 75, "duration": 55, "velocity": 100}, {"time": 49280, "pitch": 75, "duration": 110, "velocity": 100}, {"time": 49390, "pitch": 75, "duration": 110, "velocity": 100}, {"time": 49500, "pitch": 75, "duration": 110, "velocity": 100}, {"time": 49610, "pitch": 75, "duration": 110, "velocity": 100}, {"time": 49720, "pitch": 75, "duration": 110, "velocity": 100}, {"time": 49830, "pitch": 75, "duration": 110, "velocity": 100}, {"time": 50160, "pitch": 75, "duration": 220, "velocity": 100}, {"time": 50380, "pitch": 75, "duration": 660, "velocity": 100}, {"time": 51040, "pitch": 63, "duration": 110, "velocity": 100}, {"time": 51150, "pitch": 63, "duration": 110, "velocity": 100}, {"time": 51260, "pitch": 63, "duration": 110, "velocity": 100}, {"time": 51370, "pitch": 63, "duration": 110, "velocity": 100}, {"time": 51480, "pitch": 63, "duration": 110, "velocity": 100}, {"time": 51700, "pitch": 72, "duration": 110, "velocity": 100}, {"time": 51810, "pitch": 68, "duration": 770, "velocity": 100}, {"time": 52800, "pitch": 63, "duration": 110, "velocity": 100}, {"time": 52910, "pitch": 68, "duration": 110, "velocity": 100}, {"time": 53020, "pitch": 68, "duration": 110, "velocity": 100}, {"time": 53130, "pitch": 68, "duration": 110, "velocity": 100}, {"time": 53240, "pitch": 70, "duration": 110, "velocity": 100}, {"time": 53350, "pitch": 72, "duration": 110, "velocity": 100}, {"time": 53570, "pitch": 68, "duration": 110, "velocity": 100}, {"time": 53680, "pitch": 63, "duration": 660, "velocity": 100}, {"time": 54560, "pitch": 63, "duration": 110, "velocity": 100}, {"time": 54670, "pitch": 63, "duration": 110, "velocity": 100}, {"time": 54780, "pitch": 63, "duration": 110, "velocity": 100}, {"time": 54890, "pitch": 63, "duration": 110, "velocity": 100}, {"time": 55000, "pitch": 63, "duration": 110, "velocity": 100}, {"time": 55220, "pitch": 75, "duration": 110, "velocity": 100}, {"time": 55330, "pitch": 72, "duration": 770, "velocity": 100}, {"time": 56320, "pitch": 65, "duration": 110, "velocity": 100}, {"time": 56430, "pitch": 73, "duration": 110, "velocity": 100}, {"time": 56540, "pitch": 73, "duration": 110, "velocity": 100}, {"time": 56650, "pitch": 73, "duration": 110, "velocity": 100}, {"time": 56870, "pitch": 72, "duration": 110, "velocity": 100}, {"time": 56980, "pitch": 72, "duration": 110, "velocity": 100}, {"time": 57090, "pitch": 68, "duration": 110, "velocity": 100}, {"time": 57200, "pitch": 63, "duration": 220, "velocity": 100}, {"time": 57420, "pitch": 72, "duration": 110, "velocity": 100}, {"time": 57530, "pitch": 70, "duration": 330, "velocity": 100}, {"time": 58080, "pitch": 63, "duration": 110, "velocity": 100}, {"time": 58190, "pitch": 63, "duration": 110, "velocity": 100}, {"time": 58300, "pitch": 63, "duration": 110, "velocity": 100}, {"time": 58410, "pitch": 63, "duration": 110, "velocity": 100}, {"time": 58520, "pitch": 63, "duration": 110, "velocity": 100}, {"time": 58740, "pitch": 72, "duration": 110, "velocity": 100}, {"time": 58850, "pitch": 68, "duration": 770, "velocity": 100}, {"time": 59840, "pitch": 63, "duration": 110, "velocity": 100}, {"time": 59950, "pitch": 68, "duration": 110, "velocity": 100}, {"time": 60060, "pitch": 68, "duration": 110, "velocity": 100}, {"time": 60170, "pitch": 68, "duration": 110, "velocity": 100}, {"time": 60280, "pitch": 70, "duration": 110, "velocity": 100}, {"time": 60390, "pitch": 72, "duration": 110, "velocity": 100}, {"time": 60610, "pitch": 68, "duration": 110, "velocity": 100}, {"time": 60720, "pitch": 63, "duration": 660, "velocity": 100}, {"time": 61600, "pitch": 63, "duration": 110, "velocity": 100}, {"time": 61710, "pitch": 63, "duration": 110, "velocity": 100}, {"time": 61820, "pitch": 63, "duration": 110, "velocity": 100}, {"time": 61930, "pitch": 63, "duration": 110, "velocity": 100}, {"time": 62040, "pitch": 63, "duration": 110, "velocity": 100}, {"time": 62260, "pitch": 75, "duration": 110, "velocity": 100}, {"time": 62370, "pitch": 72, "duration": 770, "velocity": 100}, {"time": 63360, "pitch": 65, "duration": 110, "velocity": 100}, {"time": 63470, "pitch": 73, "duration": 110, "velocity": 100}, {"time": 63580, "pitch": 73, "duration": 110, "velocity": 100}, {"time": 63690, "pitch": 73, "duration": 110, "velocity": 100}, {"time": 63910, "pitch": 72, "duration": 110, "velocity": 100}, {"time": 64020, "pitch": 72, "duration": 110, "velocity": 100}, {"time": 64130, "pitch": 68, "duration": 110, "velocity": 100}, {"time": 64240, "pitch": 63, "duration": 220, "velocity": 100}, {"time": 64460, "pitch": 70, "duration": 110, "velocity": 100}, {"time": 64570, "pitch": 68, "duration": 330, "velocity": 100}, {"time": 65120, "pitch": 72, "duration": 220, "velocity": 100}, {"time": 65340, "pitch": 75, "duration": 220, "velocity": 100}, {"time": 65560, "pitch": 75, "duration": 220, "velocity": 100}, {"time": 65780, "pitch": 72, "duration": 110, "velocity": 100}, {"time": 65890, "pitch": 75, "duration": 990, "velocity": 100}, {"time": 66880, "pitch": 72, "duration": 330, "velocity": 100}, {"time": 67210, "pitch": 68, "duration": 110, "velocity": 100}, {"time": 67320, "pitch": 70, "duration": 220, "velocity": 100}, {"time": 67540, "pitch": 72, "duration": 220, "velocity": 100}, {"time": 67760, "pitch": 65, "duration": 880, "velocity": 100}, {"time": 68640, "pitch": 67, "duration": 330, "velocity": 100}, {"time": 68970, "pitch": 68, "duration": 110, "velocity": 100}, {"time": 69080, "pitch": 70, "duration": 220, "velocity": 100}, {"time": 69300, "pitch": 63, "duration": 220, "velocity": 100}, {"time": 69520, "pitch": 72, "duration": 880, "velocity": 100}, {"time": 70400, "pitch": 73, "duration": 330, "velocity": 100}, {"time": 70730, "pitch": 72, "duration": 110, "velocity": 100}, {"time": 70840, "pitch": 70, "duration": 110, "velocity": 100}, {"time": 70950, "pitch": 72, "duration": 220, "velocity": 100}, {"time": 71170, "pitch": 68, "duration": 110, "velocity": 100}, {"time": 71280, "pitch": 63, "duration": 880, "velocity": 100}, {"time": 72160, "pitch": 72, "duration": 220, "velocity": 100}, {"time": 72380, "pitch": 75, "duration": 220, "velocity": 100}, {"time": 72600, "pitch": 75, "duration": 220, "velocity": 100}, {"time": 72820, "pitch": 72, "duration": 110, "velocity": 100}, {"time": 72930, "pitch": 75, "duration": 990, "velocity": 100}, {"time": 73920, "pitch": 73, "duration": 330, "velocity": 100}, {"time": 74250, "pitch": 72, "duration": 110, "velocity": 100}, {"time": 74360, "pitch": 70, "duration": 220, "velocity": 100}, {"time": 74580, "pitch": 68, "duration": 220, "velocity": 100}, {"time": 74800, "pitch": 77, "duration": 880, "velocity": 100}, {"time": 75680, "pitch": 65, "duration": 330, "velocity": 100}, {"time": 76010, "pitch": 67, "duration": 110, "velocity": 100}, {"time": 76120, "pitch": 68, "duration": 220, "velocity": 100}, {"time": 76340, "pitch": 65, "duration": 220, "velocity": 100}, {"time": 76560, "pitch": 73, "duration": 880, "velocity": 100}, {"time": 77440, "pitch": 70, "duration": 330, "velocity": 100}, {"time": 77770, "pitch": 70, "duration": 110, "velocity": 100}, {"time": 77880, "pitch": 72, "duration": 220, "velocity": 100}, {"time": 78100, "pitch": 74, "duration": 220, "velocity": 100}, {"time": 78320, "pitch": 75, "duration": 880, "velocity": 100}, {"time": 79200, "pitch": 63, "duration": 220, "velocity": 100}, {"time": 79420, "pitch": 68, "duration": 110, "velocity": 100}, {"time": 79530, "pitch": 68, "duration": 110, "velocity": 100}, {"time": 79640, "pitch": 70, "duration": 220, "velocity": 100}, {"time": 79860, "pitch": 72, "duration": 220, "velocity": 100}, {"time": 80080, "pitch": 73, "duration": 220, "velocity": 100}, {"time": 80300, "pitch": 72, "duration": 165, "velocity": 100}, {"time": 80465, "pitch": 72, "duration": 55, "velocity": 100}, {"time": 80520, "pitch": 70, "duration": 220, "velocity": 100}, {"time": 80740, "pitch": 65, "duration": 220, "velocity": 100}, {"time": 80960, "pitch": 63, "duration": 110, "velocity": 100}, {"time": 81070, "pitch": 68, "duration": 110, "velocity": 100}, {"time": 81180, "pitch": 68, "duration": 110, "velocity": 100}, {"time": 81290, "pitch": 68, "duration": 110, "velocity": 100}, {"time": 81400, "pitch": 67, "duration": 110, "velocity": 100}, {"time": 81510, "pitch": 68, "duration": 110, "velocity": 100}, {"time": 81620, "pitch": 70, "duration": 110, "velocity": 100}, {"time": 81730, "pitch": 70, "duration": 110, "velocity": 100}, {"time": 81840, "pitch": 68, "duration": 110, "velocity": 100}, {"time": 81950, "pitch": 68, "duration": 220, "velocity": 100}, {"time": 82170, "pitch": 70, "duration": 110, "velocity": 100}, {"time": 82280, "pitch": 72, "duration": 440, "velocity": 100}, {"time": 82720, "pitch": 65, "duration": 220, "velocity": 100}, {"time": 82940, "pitch": 70, "duration": 165, "velocity": 100}, {"time": 83105, "pitch": 70, "duration": 55, "velocity": 100}, {"time": 83160, "pitch": 72, "duration": 220, "velocity": 100}, {"time": 83380, "pitch": 73, "duration": 220, "velocity": 100}, {"time": 83600, "pitch": 77, "duration": 220, "velocity": 100}, {"time": 83820, "pitch": 75, "duration": 165, "velocity": 100}, {"time": 83985, "pitch": 77, "duration": 55, "velocity": 100}, {"time": 84040, "pitch": 73, "duration": 220, "velocity": 100}, {"time": 84260, "pitch": 72, "duration": 220, "velocity": 100}, {"time": 84480, "pitch": 65, "duration": 110, "velocity": 100}, {"time": 84590, "pitch": 70, "duration": 110, "velocity": 100}, {"time": 84700, "pitch": 70, "duration": 110, "velocity": 100}, {"time": 84810, "pitch": 70, "duration": 110, "velocity": 100}, {"time": 84920, "pitch": 68, "duration": 110, "velocity": 100}, {"time": 85030, "pitch": 72, "duration": 110, "velocity": 100}, {"time": 85140, "pitch": 72, "duration": 110, "velocity": 100}, {"time": 85250, "pitch": 72, "duration": 110, "velocity": 100}, {"time": 85360, "pitch": 70, "duration": 110, "velocity": 100}, {"time": 85470, "pitch": 70, "duration": 220, "velocity": 100}, {"time": 85690, "pitch": 72, "duration": 110, "velocity": 100}, {"time": 85800, "pitch": 73, "duration": 440, "velocity": 100}, {"time": 86240, "pitch": 68, "duration": 220, "velocity": 100}, {"time": 86460, "pitch": 73, "duration": 165, "velocity": 100}, {"time": 86625, "pitch": 73, "duration": 55, "velocity": 100}, {"time": 86680, "pitch": 75, "duration": 220, "velocity": 100}, {"time": 86900, "pitch": 77, "duration": 220, "velocity": 100}, {"time": 87120, "pitch": 77, "duration": 220, "velocity": 100}, {"time": 87340, "pitch": 75, "duration": 165, "velocity": 100}, {"time": 87505, "pitch": 77, "duration": 55, "velocity": 100}, {"time": 87560, "pitch": 73, "duration": 220, "velocity": 100}, {"time": 87780, "pitch": 68, "duration": 220, "velocity": 100}, {"time": 88000, "pitch": 68, "duration": 220, "velocity": 100}, {"time": 88220, "pitch": 73, "duration": 165, "velocity": 100}, {"time": 88385, "pitch": 73, "duration": 55, "velocity": 100}, {"time": 88440, "pitch": 75, "duration": 220, "velocity": 100}, {"time": 88660, "pitch": 77, "duration": 220, "velocity": 100}, {"time": 88880, "pitch": 77, "duration": 220, "velocity": 100}, {"time": 89100, "pitch": 75, "duration": 165, "velocity": 100}, {"time": 89265, "pitch": 77, "duration": 55, "velocity": 100}, {"time": 89320, "pitch": 73, "duration": 220, "velocity": 100}, {"time": 89540, "pitch": 68, "duration": 220, "velocity": 100}, {"time": 89980, "pitch": 68, "duration": 220, "velocity": 100}, {"time": 90200, "pitch": 77, "duration": 330, "velocity": 100}, {"time": 90530, "pitch": 68, "duration": 110, "velocity": 100}, {"time": 90640, "pitch": 77, "duration": 880, "velocity": 100}, {"time": 91740, "pitch": 68, "duration": 220, "velocity": 100}, {"time": 91960, "pitch": 77, "duration": 330, "velocity": 100}, {"time": 92290, "pitch": 68, "duration": 110, "velocity": 100}, {"time": 92400, "pitch": 77, "duration": 880, "velocity": 100}, {"time": 93280, "pitch": 79, "duration": 1760, "velocity": 100}, {"time": 95040, "pitch": 79, "duration": 1540, "velocity": 100}, {"time": 96800, "pitch": 75, "duration": 110, "velocity": 100}, {"time": 96910, "pitch": 75, "duration": 110, "velocity": 100}, {"time": 97130, "pitch": 72, "duration": 110, "velocity": 100}, {"time": 97240, "pitch": 75, "duration": 220, "velocity": 100}, {"time": 97680, "pitch": 75, "duration": 110, "velocity": 100}, {"time": 97790, "pitch": 75, "duration": 110, "velocity": 100}, {"time": 98010, "pitch": 72, "duration": 110, "velocity": 100}, {"time": 98120, "pitch": 75, "duration": 220, "velocity": 100}, {"time": 98560, "pitch": 77, "duration": 110, "velocity": 100}, {"time": 98670, "pitch": 77, "duration": 110, "velocity": 100}, {"time": 98890, "pitch": 73, "duration": 110, "velocity": 100}, {"time": 99000, "pitch": 77, "duration": 220, "velocity": 100}, {"time": 99440, "pitch": 77, "duration": 110, "velocity": 100}, {"time": 99550, "pitch": 77, "duration": 110, "velocity": 100}, {"time": 99770, "pitch": 73, "duration": 110, "velocity": 100}, {"time": 99880, "pitch": 77, "duration": 220, "velocity": 100}, {"time": 100210, "pitch": 75, "duration": 55, "velocity": 100}, {"time": 100265, "pitch": 75, "duration": 55, "velocity": 100}, {"time": 100320, "pitch": 75, "duration": 110, "velocity": 100}, {"time": 100430, "pitch": 75, "duration": 110, "velocity": 100}, {"time": 100540, "pitch": 75, "duration": 110, "velocity": 100}, {"time": 100650, "pitch": 75, "duration": 110, "velocity": 100}, {"time": 100760, "pitch": 75, "duration": 110, "velocity": 100}, {"time": 100870, "pitch": 75, "duration": 110, "velocity": 100}, {"time": 101200, "pitch": 75, "duration": 440, "velocity": 100}, {"time": 101640, "pitch": 80, "duration": 440, "velocity": 100}, {"time": 0, "pitch": 32, "duration": 385, "velocity": 100}, {"time": 55, "pitch": 44, "duration": 110, "velocity": 100}, {"time": 110, "pitch": 51, "duration": 165, "velocity": 100}, {"time": 165, "pitch": 44, "duration": 55, "velocity": 100}, {"time": 220, "pitch": 51, "duration": 110, "velocity": 100}, {"time": 220, "pitch": 60, "duration": 220, "velocity": 100}, {"time": 275, "pitch": 44, "duration": 55, "velocity": 100}, {"time": 330, "pitch": 48, "duration": 110, "velocity": 100}, {"time": 385, "pitch": 56, "duration": 55, "velocity": 100}, {"time": 440, "pitch": 32, "duration": 275, "velocity": 100}, {"time": 495, "pitch": 44, "duration": 55, "velocity": 100}, {"time": 550, "pitch": 51, "duration": 110, "velocity": 100}, {"time": 605, "pitch": 44, "duration": 55, "velocity": 100}, {"time": 660, "pitch": 56, "duration": 110, "velocity": 100}, {"time": 715, "pitch": 44, "duration": 55, "velocity": 100}, {"time": 770, "pitch": 51, "duration": 55, "velocity": 100}, {"time": 825, "pitch": 56, "duration": 55, "velocity": 100}, {"time": 880, "pitch": 32, "duration": 385, "velocity": 100}, {"time": 935, "pitch": 44, "duration": 110, "velocity": 100}, {"time": 990, "pitch": 51, "duration": 55, "velocity": 100}, {"time": 1045, "pitch": 44, "duration": 55, "velocity": 100}, {"time": 1100, "pitch": 56, "duration": 110, "velocity": 100}, {"time": 1155, "pitch": 44, "duration": 165, "velocity": 100}, {"time": 1210, "pitch": 60, "duration": 550, "velocity": 100}, {"time": 1265, "pitch": 63, "duration": 495, "velocity": 100}, {"time": 1320, "pitch": 32, "duration": 275, "velocity": 100}, {"time": 1320, "pitch": 56, "duration": 440, "velocity": 100}, {"time": 1760, "pitch": 32, "duration": 220, "velocity": 100}, {"time": 1815, "pitch": 51, "duration": 165, "velocity": 100}, {"time": 1815, "pitch": 58, "duration": 55, "velocity": 100}, {"time": 1870, "pitch": 56, "duration": 110, "velocity": 100}, {"time": 1870, "pitch": 63, "duration": 110, "velocity": 100}, {"time": 1925, "pitch": 58, "duration": 55, "velocity": 100}, {"time": 1980, "pitch": 32, "duration": 220, "velocity": 100}, {"time": 1980, "pitch": 68, "duration": 110, "velocity": 100}, {"time": 2090, "pitch": 58, "duration": 110, "velocity": 100}, {"time": 2145, "pitch": 60, "duration": 55, "velocity": 100}, {"time": 2145, "pitch": 66, "duration": 55, "velocity": 100}, {"time": 2200, "pitch": 32, "duration": 330, "velocity": 100}, {"time": 2200, "pitch": 65, "duration": 55, "velocity": 100}, {"time": 2255, "pitch": 44, "duration": 165, "velocity": 100}, {"time": 2255, "pitch": 70, "duration": 55, "velocity": 100}, {"time": 2310, "pitch": 48, "duration": 110, "velocity": 100}, {"time": 2310, "pitch": 68, "duration": 55, "velocity": 100}, {"time": 2365, "pitch": 51, "duration": 55, "velocity": 100}, {"time": 2420, "pitch": 56, "duration": 220, "velocity": 100}, {"time": 2475, "pitch": 44, "duration": 55, "velocity": 100}, {"time": 2530, "pitch": 51, "duration": 110, "velocity": 100}, {"time": 2585, "pitch": 48, "duration": 55, "velocity": 100}, {"time": 2640, "pitch": 27, "duration": 385, "velocity": 100}, {"time": 2695, "pitch": 37, "duration": 385, "velocity": 100}, {"time": 2750, "pitch": 46, "duration": 110, "velocity": 100}, {"time": 2750, "pitch": 68, "duration": 55, "velocity": 100}, {"time": 2805, "pitch": 49, "duration": 110, "velocity": 100}, {"time": 2805, "pitch": 75, "duration": 55, "velocity": 100}, {"time": 2860, "pitch": 55, "duration": 165, "velocity": 100}, {"time": 2860, "pitch": 73, "duration": 110, "velocity": 100}, {"time": 2915, "pitch": 39, "duration": 165, "velocity": 100}, {"time": 2970, "pitch": 55, "duration": 110, "velocity": 100}, {"time": 3025, "pitch": 39, "duration": 495, "velocity": 100}, {"time": 3025, "pitch": 68, "duration": 55, "velocity": 100}, {"time": 3080, "pitch": 37, "duration": 440, "velocity": 100}, {"time": 3080, "pitch": 46, "duration": 440, "velocity": 100}, {"time": 3080, "pitch": 55, "duration": 440, "velocity": 100}, {"time": 3080, "pitch": 58, "duration": 440, "velocity": 100}, {"time": 3080, "pitch": 63, "duration": 440, "velocity": 100}, {"time": 3520, "pitch": 44, "duration": 55, "velocity": 100}, {"time": 3575, "pitch": 44, "duration": 165, "velocity": 100}, {"time": 3630, "pitch": 51, "duration": 110, "velocity": 100}, {"time": 3685, "pitch": 56, "duration": 165, "velocity": 100}, {"time": 3740, "pitch": 60, "duration": 220, "velocity": 100}, {"time": 3850, "pitch": 56, "duration": 110, "velocity": 100}, {"time": 3960, "pitch": 32, "duration": 275, "velocity": 100}, {"time": 4015, "pitch": 39, "duration": 220, "velocity": 100}, {"time": 4070, "pitch": 44, "duration": 110, "velocity": 100}, {"time": 4125, "pitch": 56, "duration": 165, "velocity": 100}, {"time": 4180, "pitch": 60, "duration": 220, "velocity": 100}, {"time": 4235, "pitch": 44, "duration": 55, "velocity": 100}, {"time": 4290, "pitch": 60, "duration": 110, "velocity": 100}, {"time": 4400, "pitch": 44, "duration": 330, "velocity": 100}, {"time": 4455, "pitch": 48, "duration": 275, "velocity": 100}, {"time": 4510, "pitch": 51, "duration": 165, "velocity": 100}, {"time": 4565, "pitch": 56, "duration": 165, "velocity": 100}, {"time": 4620, "pitch": 68, "duration": 220, "velocity": 100}, {"time": 4675, "pitch": 56, "duration": 55, "velocity": 100}, {"time": 4730, "pitch": 60, "duration": 110, "velocity": 100}, {"time": 4785, "pitch": 60, "duration": 55, "velocity": 100}, {"time": 4840, "pitch": 32, "duration": 330, "velocity": 100}, {"time": 4895, "pitch": 39, "duration": 220, "velocity": 100}, {"time": 4950, "pitch": 44, "duration": 110, "velocity": 100}, {"time": 5005, "pitch": 51, "duration": 55, "velocity": 100}, {"time": 5060, "pitch": 56, "duration": 220, "velocity": 100}, {"time": 5060, "pitch": 60, "duration": 220, "velocity": 100}, {"time": 5170, "pitch": 51, "duration": 110, "velocity": 100}, {"time": 5280, "pitch": 41, "duration": 330, "velocity": 100}, {"time": 5335, "pitch": 49, "duration": 275, "velocity": 100}, {"time": 5390, "pitch": 53, "duration": 110, "velocity": 100}, {"time": 5445, "pitch": 61, "duration": 275, "velocity": 100}, {"time": 5445, "pitch": 65, "duration": 275, "velocity": 100}, {"time": 5555, "pitch": 53, "duration": 55, "velocity": 100}, {"time": 5610, "pitch": 61, "duration": 220, "velocity": 100}, {"time": 5720, "pitch": 34, "duration": 330, "velocity": 100}, {"time": 5775, "pitch": 41, "duration": 275, "velocity": 100}, {"time": 5830, "pitch": 46, "duration": 110, "velocity": 100}, {"time": 5885, "pitch": 53, "duration": 275, "velocity": 100}, {"time": 5940, "pitch": 62, "duration": 220, "velocity": 100}, {"time": 5995, "pitch": 46, "duration": 55, "velocity": 100}, {"time": 6050, "pitch": 58, "duration": 110, "velocity": 100}, {"time": 6160, "pitch": 39, "duration": 330, "velocity": 100}, {"time": 6215, "pitch": 46, "duration": 165, "velocity": 100}, {"time": 6270, "pitch": 51, "duration": 110, "velocity": 100}, {"time": 6325, "pitch": 58, "duration": 275, "velocity": 100}, {"time": 6380, "pitch": 55, "duration": 110, "velocity": 100}, {"time": 6435, "pitch": 46, "duration": 55, "velocity": 100}, {"time": 6490, "pitch": 51, "duration": 110, "velocity": 100}, {"time": 6545, "pitch": 55, "duration": 55, "velocity": 100}, {"time": 6600, "pitch": 27, "duration": 330, "velocity": 100}, {"time": 6655, "pitch": 39, "duration": 275, "velocity": 100}, {"time": 6710, "pitch": 43, "duration": 165, "velocity": 100}, {"time": 6765, "pitch": 51, "duration": 55, "velocity": 100}, {"time": 6765, "pitch": 55, "duration": 55, "velocity": 100}, {"time": 6765, "pitch": 58, "duration": 55, "velocity": 100}, {"time": 6820, "pitch": 55, "duration": 110, "velocity": 100}, {"time": 6820, "pitch": 58, "duration": 220, "velocity": 100}, {"time": 6875, "pitch": 46, "duration": 55, "velocity": 100}, {"time": 6930, "pitch": 51, "duration": 110, "velocity": 100}, {"time": 6985, "pitch": 55, "duration": 55, "velocity": 100}, {"time": 7040, "pitch": 44, "duration": 385, "velocity": 100}, {"time": 7040, "pitch": 87, "duration": 330, "velocity": 100}, {"time": 7095, "pitch": 56, "duration": 55, "velocity": 100}, {"time": 7150, "pitch": 63, "duration": 110, "velocity": 100}, {"time": 7205, "pitch": 56, "duration": 110, "velocity": 100}, {"time": 7260, "pitch": 68, "duration": 220, "velocity": 100}, {"time": 7315, "pitch": 56, "duration": 55, "velocity": 100}, {"time": 7370, "pitch": 63, "duration": 55, "velocity": 100}, {"time": 7370, "pitch": 87, "duration": 110, "velocity": 100}, {"time": 7425, "pitch": 60, "duration": 55, "velocity": 100}, {"time": 7480, "pitch": 44, "duration": 330, "velocity": 100}, {"time": 7480, "pitch": 84, "duration": 220, "velocity": 100}, {"time": 7535, "pitch": 56, "duration": 165, "velocity": 100}, {"time": 7590, "pitch": 60, "duration": 110, "velocity": 100}, {"time": 7590, "pitch": 63, "duration": 55, "velocity": 100}, {"time": 7645, "pitch": 60, "duration": 110, "velocity": 100}, {"time": 7700, "pitch": 68, "duration": 110, "velocity": 100}, {"time": 7700, "pitch": 80, "duration": 165, "velocity": 100}, {"time": 7755, "pitch": 60, "duration": 55, "velocity": 100}, {"time": 7810, "pitch": 44, "duration": 110, "velocity": 100}, {"time": 7865, "pitch": 60, "duration": 55, "velocity": 100}, {"time": 7920, "pitch": 44, "duration": 385, "velocity": 100}, {"time": 7920, "pitch": 84, "duration": 440, "velocity": 100}, {"time": 7975, "pitch": 51, "duration": 165, "velocity": 100}, {"time": 8030, "pitch": 63, "duration": 110, "velocity": 100}, {"time": 8085, "pitch": 51, "duration": 110, "velocity": 100}, {"time": 8140, "pitch": 68, "duration": 220, "velocity": 100}, {"time": 8195, "pitch": 56, "duration": 55, "velocity": 100}, {"time": 8250, "pitch": 63, "duration": 55, "velocity": 100}, {"time": 8305, "pitch": 60, "duration": 55, "velocity": 100}, {"time": 8360, "pitch": 44, "duration": 220, "velocity": 100}, {"time": 8415, "pitch": 51, "duration": 165, "velocity": 100}, {"time": 8470, "pitch": 68, "duration": 165, "velocity": 100}, {"time": 8525, "pitch": 63, "duration": 110, "velocity": 100}, {"time": 8580, "pitch": 44, "duration": 165, "velocity": 100}, {"time": 8635, "pitch": 51, "duration": 55, "velocity": 100}, {"time": 8690, "pitch": 63, "duration": 110, "velocity": 100}, {"time": 8690, "pitch": 68, "duration": 110, "velocity": 100}, {"time": 8745, "pitch": 63, "duration": 55, "velocity": 100}, {"time": 8800, "pitch": 48, "duration": 330, "velocity": 100}, {"time": 8855, "pitch": 56, "duration": 220, "velocity": 100}, {"time": 8910, "pitch": 60, "duration": 110, "velocity": 100}, {"time": 8965, "pitch": 63, "duration": 55, "velocity": 100}, {"time": 9020, "pitch": 68, "duration": 110, "velocity": 100}, {"time": 9020, "pitch": 72, "duration": 220, "velocity": 100}, {"time": 9075, "pitch": 60, "duration": 55, "velocity": 100}, {"time": 9130, "pitch": 63, "duration": 110, "velocity": 100}, {"time": 9185, "pitch": 68, "duration": 55, "velocity": 100}, {"time": 9240, "pitch": 44, "duration": 330, "velocity": 100}, {"time": 9295, "pitch": 51, "duration": 165, "velocity": 100}, {"time": 9350, "pitch": 60, "duration": 110, "velocity": 100}, {"time": 9405, "pitch": 56, "duration": 55, "velocity": 100}, {"time": 9460, "pitch": 60, "duration": 110, "velocity": 100}, {"time": 9460, "pitch": 63, "duration": 220, "velocity": 100}, {"time": 9515, "pitch": 51, "duration": 55, "velocity": 100}, {"time": 9570, "pitch": 56, "duration": 110, "velocity": 100}, {"time": 9625, "pitch": 60, "duration": 55, "velocity": 100}, {"time": 9680, "pitch": 39, "duration": 440, "velocity": 100}, {"time": 9735, "pitch": 51, "duration": 330, "velocity": 100}, {"time": 9790, "pitch": 58, "duration": 55, "velocity": 100}, {"time": 9845, "pitch": 67, "duration": 55, "velocity": 100}, {"time": 9900, "pitch": 75, "duration": 55, "velocity": 100}, {"time": 9955, "pitch": 79, "duration": 55, "velocity": 100}, {"time": 10010, "pitch": 75, "duration": 55, "velocity": 100}, {"time": 10065, "pitch": 67, "duration": 55, "velocity": 100}, {"time": 10120, "pitch": 39, "duration": 330, "velocity": 100}, {"time": 10120, "pitch": 63, "duration": 55, "velocity": 100}, {"time": 10175, "pitch": 46, "duration": 55, "velocity": 100}, {"time": 10230, "pitch": 55, "duration": 110, "velocity": 100}, {"time": 10230, "pitch": 58, "duration": 55, "velocity": 100}, {"time": 10285, "pitch": 55, "duration": 55, "velocity": 100}, {"time": 10285, "pitch": 58, "duration": 55, "velocity": 100}, {"time": 10340, "pitch": 51, "duration": 110, "velocity": 100}, {"time": 10340, "pitch": 63, "duration": 55, "velocity": 100}, {"time": 10340, "pitch": 67, "duration": 55, "velocity": 100}, {"time": 10395, "pitch": 63, "duration": 55, "velocity": 100}, {"time": 10395, "pitch": 67, "duration": 55, "velocity": 100}, {"time": 10450, "pitch": 63, "duration": 110, "velocity": 100}, {"time": 10450, "pitch": 67, "duration": 110, "velocity": 100}, {"time": 10505, "pitch": 58, "duration": 55, "velocity": 100}, {"time": 10560, "pitch": 44, "duration": 385, "velocity": 100}, {"time": 10615, "pitch": 51, "duration": 220, "velocity": 100}, {"time": 10670, "pitch": 56, "duration": 110, "velocity": 100}, {"time": 10670, "pitch": 80, "duration": 55, "velocity": 100}, {"time": 10725, "pitch": 63, "duration": 55, "velocity": 100}, {"time": 10780, "pitch": 72, "duration": 220, "velocity": 100}, {"time": 10780, "pitch": 80, "duration": 110, "velocity": 100}, {"time": 10835, "pitch": 51, "duration": 55, "velocity": 100}, {"time": 10890, "pitch": 63, "duration": 110, "velocity": 100}, {"time": 10890, "pitch": 72, "duration": 110, "velocity": 100}, {"time": 10890, "pitch": 82, "duration": 110, "velocity": 100}, {"time": 10945, "pitch": 51, "duration": 55, "velocity": 100}, {"time": 11000, "pitch": 44, "duration": 275, "velocity": 100}, {"time": 11000, "pitch": 75, "duration": 165, "velocity": 100}, {"time": 11055, "pitch": 51, "duration": 220, "velocity": 100}, {"time": 11110, "pitch": 56, "duration": 110, "velocity": 100}, {"time": 11165, "pitch": 68, "duration": 55, "velocity": 100}, {"time": 11165, "pitch": 72, "duration": 55, "velocity": 100}, {"time": 11220, "pitch": 63, "duration": 110, "velocity": 100}, {"time": 11220, "pitch": 68, "duration": 110, "velocity": 100}, {"time": 11220, "pitch": 72, "duration": 110, "velocity": 100}, {"time": 11275, "pitch": 44, "duration": 55, "velocity": 100}, {"time": 11330, "pitch": 44, "duration": 110, "velocity": 100}, {"time": 11440, "pitch": 44, "duration": 385, "velocity": 100}, {"time": 11495, "pitch": 44, "duration": 385, "velocity": 100}, {"time": 11550, "pitch": 56, "duration": 110, "velocity": 100}, {"time": 11605, "pitch": 60, "duration": 165, "velocity": 100}, {"time": 11660, "pitch": 68, "duration": 275, "velocity": 100}, {"time": 11715, "pitch": 51, "duration": 55, "velocity": 100}, {"time": 11770, "pitch": 60, "duration": 55, "velocity": 100}, {"time": 11770, "pitch": 63, "duration": 110, "velocity": 100}, {"time": 11825, "pitch": 60, "duration": 220, "velocity": 100}, {"time": 11880, "pitch": 44, "duration": 330, "velocity": 100}, {"time": 11935, "pitch": 51, "duration": 220, "velocity": 100}, {"time": 11990, "pitch": 60, "duration": 165, "velocity": 100}, {"time": 12045, "pitch": 63, "duration": 55, "velocity": 100}, {"time": 12100, "pitch": 68, "duration": 220, "velocity": 100}, {"time": 12155, "pitch": 44, "duration": 55, "velocity": 100}, {"time": 12210, "pitch": 63, "duration": 110, "velocity": 100}, {"time": 12265, "pitch": 60, "duration": 55, "velocity": 100}, {"time": 12320, "pitch": 34, "duration": 385, "velocity": 100}, {"time": 12375, "pitch": 46, "duration": 165, "velocity": 100}, {"time": 12430, "pitch": 53, "duration": 110, "velocity": 100}, {"time": 12430, "pitch": 61, "duration": 55, "velocity": 100}, {"time": 12485, "pitch": 53, "duration": 110, "velocity": 100}, {"time": 12540, "pitch": 61, "duration": 110, "velocity": 100}, {"time": 12540, "pitch": 65, "duration": 220, "velocity": 100}, {"time": 12595, "pitch": 46, "duration": 55, "velocity": 100}, {"time": 12650, "pitch": 58, "duration": 110, "velocity": 100}, {"time": 12705, "pitch": 61, "duration": 55, "velocity": 100}, {"time": 12760, "pitch": 34, "duration": 330, "velocity": 100}, {"time": 12815, "pitch": 46, "duration": 55, "velocity": 100}, {"time": 12870, "pitch": 58, "duration": 110, "velocity": 100}, {"time": 12925, "pitch": 46, "duration": 55, "velocity": 100}, {"time": 12980, "pitch": 62, "duration": 110, "velocity": 100}, {"time": 13035, "pitch": 46, "duration": 55, "velocity": 100}, {"time": 13090, "pitch": 58, "duration": 55, "velocity": 100}, {"time": 13145, "pitch": 62, "duration": 55, "velocity": 100}, {"time": 13200, "pitch": 39, "duration": 385, "velocity": 100}, {"time": 13255, "pitch": 51, "duration": 110, "velocity": 100}, {"time": 13310, "pitch": 58, "duration": 55, "velocity": 100}, {"time": 13365, "pitch": 51, "duration": 55, "velocity": 100}, {"time": 13420, "pitch": 63, "duration": 220, "velocity": 100}, {"time": 13475, "pitch": 51, "duration": 165, "velocity": 100}, {"time": 13640, "pitch": 44, "duration": 330, "velocity": 100}, {"time": 13640, "pitch": 63, "duration": 440, "velocity": 100}, {"time": 13640, "pitch": 68, "duration": 440, "velocity": 100}, {"time": 13640, "pitch": 72, "duration": 440, "velocity": 100}, {"time": 14025, "pitch": 84, "duration": 55, "velocity": 100}, {"time": 14080, "pitch": 36, "duration": 440, "velocity": 100}, {"time": 14080, "pitch": 80, "duration": 330, "velocity": 100}, {"time": 14135, "pitch": 44, "duration": 385, "velocity": 100}, {"time": 14190, "pitch": 51, "duration": 110, "velocity": 100}, {"time": 14245, "pitch": 51, "duration": 55, "velocity": 100}, {"time": 14300, "pitch": 60, "duration": 110, "velocity": 100}, {"time": 14355, "pitch": 51, "duration": 55, "velocity": 100}, {"time": 14410, "pitch": 56, "duration": 165, "velocity": 100}, {"time": 14465, "pitch": 60, "duration": 110, "velocity": 100}, {"time": 14520, "pitch": 60, "duration": 165, "velocity": 100}, {"time": 14575, "pitch": 39, "duration": 165, "velocity": 100}, {"time": 14630, "pitch": 56, "duration": 165, "velocity": 100}, {"time": 14685, "pitch": 44, "duration": 55, "velocity": 100}, {"time": 14740, "pitch": 60, "duration": 110, "velocity": 100}, {"time": 14740, "pitch": 63, "duration": 220, "velocity": 100}, {"time": 14795, "pitch": 44, "duration": 55, "velocity": 100}, {"time": 14850, "pitch": 56, "duration": 110, "velocity": 100}, {"time": 14905, "pitch": 56, "duration": 55, "velocity": 100}, {"time": 14960, "pitch": 32, "duration": 385, "velocity": 100}, {"time": 14960, "pitch": 87, "duration": 440, "velocity": 100}, {"time": 15015, "pitch": 44, "duration": 385, "velocity": 100}, {"time": 15070, "pitch": 48, "duration": 110, "velocity": 100}, {"time": 15125, "pitch": 51, "duration": 110, "velocity": 100}, {"time": 15180, "pitch": 60, "duration": 385, "velocity": 100}, {"time": 15180, "pitch": 92, "duration": 220, "velocity": 100}, {"time": 15235, "pitch": 44, "duration": 165, "velocity": 100}, {"time": 15290, "pitch": 56, "duration": 165, "velocity": 100}, {"time": 15290, "pitch": 87, "duration": 110, "velocity": 100}, {"time": 15345, "pitch": 51, "duration": 165, "velocity": 100}, {"time": 15400, "pitch": 32, "duration": 330, "velocity": 100}, {"time": 15400, "pitch": 87, "duration": 110, "velocity": 100}, {"time": 15455, "pitch": 39, "duration": 275, "velocity": 100}, {"time": 15510, "pitch": 44, "duration": 110, "velocity": 100}, {"time": 15510, "pitch": 82, "duration": 55, "velocity": 100}, {"time": 15565, "pitch": 51, "duration": 165, "velocity": 100}, {"time": 15565, "pitch": 84, "duration": 55, "velocity": 100}, {"time": 15620, "pitch": 60, "duration": 220, "velocity": 100}, {"time": 15620, "pitch": 80, "duration": 220, "velocity": 100}, {"time": 15675, "pitch": 44, "duration": 165, "velocity": 100}, {"time": 15730, "pitch": 56, "duration": 55, "velocity": 100}, {"time": 15785, "pitch": 51, "duration": 55, "velocity": 100}, {"time": 15840, "pitch": 41, "duration": 385, "velocity": 100}, {"time": 15895, "pitch": 48, "duration": 165, "velocity": 100}, {"time": 15950, "pitch": 53, "duration": 55, "velocity": 100}, {"time": 16005, "pitch": 56, "duration": 55, "velocity": 100}, {"time": 16060, "pitch": 60, "duration": 220, "velocity": 100}, {"time": 16115, "pitch": 48, "duration": 165, "velocity": 100}, {"time": 16170, "pitch": 56, "duration": 110, "velocity": 100}, {"time": 16225, "pitch": 53, "duration": 55, "velocity": 100}, {"time": 16280, "pitch": 41, "duration": 385, "velocity": 100}, {"time": 16335, "pitch": 48, "duration": 275, "velocity": 100}, {"time": 16390, "pitch": 53, "duration": 110, "velocity": 100}, {"time": 16445, "pitch": 56, "duration": 110, "velocity": 100}, {"time": 16500, "pitch": 60, "duration": 220, "velocity": 100}, {"time": 16555, "pitch": 53, "duration": 55, "velocity": 100}, {"time": 16610, "pitch": 60, "duration": 110, "velocity": 100}, {"time": 16665, "pitch": 56, "duration": 55, "velocity": 100}, {"time": 16720, "pitch": 37, "duration": 385, "velocity": 100}, {"time": 16720, "pitch": 89, "duration": 165, "velocity": 100}, {"time": 16775, "pitch": 44, "duration": 385, "velocity": 100}, {"time": 16830, "pitch": 49, "duration": 110, "velocity": 100}, {"time": 16885, "pitch": 53, "duration": 110, "velocity": 100}, {"time": 16940, "pitch": 61, "duration": 385, "velocity": 100}, {"time": 16940, "pitch": 84, "duration": 110, "velocity": 100}, {"time": 16995, "pitch": 49, "duration": 165, "velocity": 100}, {"time": 17050, "pitch": 56, "duration": 275, "velocity": 100}, {"time": 17050, "pitch": 82, "duration": 110, "velocity": 100}, {"time": 17105, "pitch": 53, "duration": 165, "velocity": 100}, {"time": 17160, "pitch": 37, "duration": 330, "velocity": 100}, {"time": 17160, "pitch": 80, "duration": 110, "velocity": 100}, {"time": 17215, "pitch": 44, "duration": 275, "velocity": 100}, {"time": 17270, "pitch": 49, "duration": 110, "velocity": 100}, {"time": 17270, "pitch": 80, "duration": 55, "velocity": 100}, {"time": 17325, "pitch": 53, "duration": 110, "velocity": 100}, {"time": 17325, "pitch": 80, "duration": 55, "velocity": 100}, {"time": 17380, "pitch": 61, "duration": 220, "velocity": 100}, {"time": 17380, "pitch": 75, "duration": 220, "velocity": 100}, {"time": 17435, "pitch": 49, "duration": 55, "velocity": 100}, {"time": 17490, "pitch": 56, "duration": 55, "velocity": 100}, {"time": 17545, "pitch": 53, "duration": 55, "velocity": 100}, {"time": 17600, "pitch": 39, "duration": 385, "velocity": 100}, {"time": 17655, "pitch": 46, "duration": 385, "velocity": 100}, {"time": 17710, "pitch": 51, "duration": 110, "velocity": 100}, {"time": 17765, "pitch": 55, "duration": 110, "velocity": 100}, {"time": 17820, "pitch": 63, "duration": 220, "velocity": 100}, {"time": 17875, "pitch": 51, "duration": 55, "velocity": 100}, {"time": 17930, "pitch": 55, "duration": 110, "velocity": 100}, {"time": 17985, "pitch": 58, "duration": 55, "velocity": 100}, {"time": 18040, "pitch": 39, "duration": 385, "velocity": 100}, {"time": 18095, "pitch": 46, "duration": 385, "velocity": 100}, {"time": 18150, "pitch": 51, "duration": 165, "velocity": 100}, {"time": 18205, "pitch": 55, "duration": 110, "velocity": 100}, {"time": 18260, "pitch": 58, "duration": 110, "velocity": 100}, {"time": 18260, "pitch": 63, "duration": 110, "velocity": 100}, {"time": 18315, "pitch": 51, "duration": 55, "velocity": 100}, {"time": 18370, "pitch": 55, "duration": 110, "velocity": 100}, {"time": 18425, "pitch": 58, "duration": 55, "velocity": 100}, {"time": 18480, "pitch": 36, "duration": 330, "velocity": 100}, {"time": 18535, "pitch": 48, "duration": 165, "velocity": 100}, {"time": 18590, "pitch": 52, "duration": 110, "velocity": 100}, {"time": 18645, "pitch": 55, "duration": 55, "velocity": 100}, {"time": 18700, "pitch": 60, "duration": 220, "velocity": 100}, {"time": 18755, "pitch": 48, "duration": 55, "velocity": 100}, {"time": 18810, "pitch": 55, "duration": 110, "velocity": 100}, {"time": 18865, "pitch": 52, "duration": 55, "velocity": 100}, {"time": 18920, "pitch": 36, "duration": 330, "velocity": 100}, {"time": 18975, "pitch": 43, "duration": 220, "velocity": 100}, {"time": 19030, "pitch": 48, "duration": 110, "velocity": 100}, {"time": 19085, "pitch": 52, "duration": 55, "velocity": 100}, {"time": 19140, "pitch": 55, "duration": 220, "velocity": 100}, {"time": 19195, "pitch": 43, "duration": 55, "velocity": 100}, {"time": 19250, "pitch": 52, "duration": 110, "velocity": 100}, {"time": 19305, "pitch": 48, "duration": 55, "velocity": 100}, {"time": 19360, "pitch": 34, "duration": 385, "velocity": 100}, {"time": 19415, "pitch": 41, "duration": 385, "velocity": 100}, {"time": 19470, "pitch": 46, "duration": 110, "velocity": 100}, {"time": 19525, "pitch": 53, "duration": 110, "velocity": 100}, {"time": 19580, "pitch": 61, "duration": 165, "velocity": 100}, {"time": 19635, "pitch": 46, "duration": 165, "velocity": 100}, {"time": 19690, "pitch": 58, "duration": 110, "velocity": 100}, {"time": 19745, "pitch": 53, "duration": 55, "velocity": 100}, {"time": 19800, "pitch": 34, "duration": 330, "velocity": 100}, {"time": 19800, "pitch": 53, "duration": 110, "velocity": 100}, {"time": 19800, "pitch": 58, "duration": 220, "velocity": 100}, {"time": 19800, "pitch": 61, "duration": 220, "velocity": 100}, {"time": 19855, "pitch": 41, "duration": 275, "velocity": 100}, {"time": 19910, "pitch": 46, "duration": 110, "velocity": 100}, {"time": 20020, "pitch": 65, "duration": 220, "velocity": 100}, {"time": 20075, "pitch": 46, "duration": 55, "velocity": 100}, {"time": 20130, "pitch": 58, "duration": 110, "velocity": 100}, {"time": 20240, "pitch": 39, "duration": 440, "velocity": 100}, {"time": 20295, "pitch": 46, "duration": 385, "velocity": 100}, {"time": 20350, "pitch": 51, "duration": 110, "velocity": 100}, {"time": 20405, "pitch": 58, "duration": 110, "velocity": 100}, {"time": 20460, "pitch": 67, "duration": 275, "velocity": 100}, {"time": 20460, "pitch": 87, "duration": 55, "velocity": 100}, {"time": 20515, "pitch": 51, "duration": 165, "velocity": 100}, {"time": 20515, "pitch": 84, "duration": 55, "velocity": 100}, {"time": 20570, "pitch": 65, "duration": 110, "velocity": 100}, {"time": 20570, "pitch": 84, "duration": 55, "velocity": 100}, {"time": 20625, "pitch": 58, "duration": 165, "velocity": 100}, {"time": 20625, "pitch": 65, "duration": 220, "velocity": 100}, {"time": 20625, "pitch": 84, "duration": 55, "velocity": 100}, {"time": 20680, "pitch": 39, "duration": 385, "velocity": 100}, {"time": 20680, "pitch": 82, "duration": 55, "velocity": 100}, {"time": 20735, "pitch": 46, "duration": 275, "velocity": 100}, {"time": 20735, "pitch": 82, "duration": 55, "velocity": 100}, {"time": 20790, "pitch": 51, "duration": 110, "velocity": 100}, {"time": 20790, "pitch": 82, "duration": 55, "velocity": 100}, {"time": 20845, "pitch": 58, "duration": 55, "velocity": 100}, {"time": 20845, "pitch": 84, "duration": 55, "velocity": 100}, {"time": 20900, "pitch": 67, "duration": 220, "velocity": 100}, {"time": 20900, "pitch": 79, "duration": 220, "velocity": 100}, {"time": 20955, "pitch": 51, "duration": 55, "velocity": 100}, {"time": 21010, "pitch": 65, "duration": 110, "velocity": 100}, {"time": 21065, "pitch": 63, "duration": 55, "velocity": 100}, {"time": 21120, "pitch": 32, "duration": 660, "velocity": 100}, {"time": 21120, "pitch": 84, "duration": 880, "velocity": 100}, {"time": 21175, "pitch": 39, "duration": 385, "velocity": 100}, {"time": 21230, "pitch": 44, "duration": 110, "velocity": 100}, {"time": 21285, "pitch": 48, "duration": 55, "velocity": 100}, {"time": 21340, "pitch": 51, "duration": 110, "velocity": 100}, {"time": 21395, "pitch": 44, "duration": 55, "velocity": 100}, {"time": 21450, "pitch": 48, "duration": 165, "velocity": 100}, {"time": 21505, "pitch": 51, "duration": 110, "velocity": 100}, {"time": 21560, "pitch": 51, "duration": 110, "velocity": 100}, {"time": 21615, "pitch": 39, "duration": 165, "velocity": 100}, {"time": 21670, "pitch": 48, "duration": 165, "velocity": 100}, {"time": 21725, "pitch": 39, "duration": 55, "velocity": 100}, {"time": 21780, "pitch": 51, "duration": 110, "velocity": 100}, {"time": 21780, "pitch": 56, "duration": 220, "velocity": 100}, {"time": 21780, "pitch": 82, "duration": 220, "velocity": 100}, {"time": 21835, "pitch": 44, "duration": 55, "velocity": 100}, {"time": 21890, "pitch": 48, "duration": 110, "velocity": 100}, {"time": 21945, "pitch": 51, "duration": 55, "velocity": 100}, {"time": 22000, "pitch": 32, "duration": 385, "velocity": 100}, {"time": 22000, "pitch": 80, "duration": 880, "velocity": 100}, {"time": 22055, "pitch": 39, "duration": 385, "velocity": 100}, {"time": 22110, "pitch": 44, "duration": 110, "velocity": 100}, {"time": 22165, "pitch": 44, "duration": 110, "velocity": 100}, {"time": 22220, "pitch": 51, "duration": 385, "velocity": 100}, {"time": 22275, "pitch": 44, "duration": 165, "velocity": 100}, {"time": 22330, "pitch": 48, "duration": 165, "velocity": 100}, {"time": 22385, "pitch": 44, "duration": 165, "velocity": 100}, {"time": 22440, "pitch": 32, "duration": 330, "velocity": 100}, {"time": 22495, "pitch": 39, "duration": 275, "velocity": 100}, {"time": 22550, "pitch": 44, "duration": 110, "velocity": 100}, {"time": 22605, "pitch": 44, "duration": 165, "velocity": 100}, {"time": 22660, "pitch": 51, "duration": 220, "velocity": 100}, {"time": 22715, "pitch": 44, "duration": 165, "velocity": 100}, {"time": 22770, "pitch": 48, "duration": 55, "velocity": 100}, {"time": 22825, "pitch": 44, "duration": 55, "velocity": 100}, {"time": 22880, "pitch": 34, "duration": 385, "velocity": 100}, {"time": 22880, "pitch": 77, "duration": 440, "velocity": 100}, {"time": 22935, "pitch": 41, "duration": 220, "velocity": 100}, {"time": 22990, "pitch": 46, "duration": 55, "velocity": 100}, {"time": 23045, "pitch": 44, "duration": 55, "velocity": 100}, {"time": 23100, "pitch": 53, "duration": 220, "velocity": 100}, {"time": 23155, "pitch": 41, "duration": 165, "velocity": 100}, {"time": 23210, "pitch": 49, "duration": 110, "velocity": 100}, {"time": 23265, "pitch": 44, "duration": 55, "velocity": 100}, {"time": 23320, "pitch": 34, "duration": 385, "velocity": 100}, {"time": 23375, "pitch": 41, "duration": 275, "velocity": 100}, {"time": 23430, "pitch": 44, "duration": 110, "velocity": 100}, {"time": 23485, "pitch": 46, "duration": 110, "velocity": 100}, {"time": 23540, "pitch": 53, "duration": 220, "velocity": 100}, {"time": 23595, "pitch": 44, "duration": 55, "velocity": 100}, {"time": 23650, "pitch": 53, "duration": 110, "velocity": 100}, {"time": 23705, "pitch": 46, "duration": 55, "velocity": 100}, {"time": 23760, "pitch": 34, "duration": 385, "velocity": 100}, {"time": 23760, "pitch": 75, "duration": 660, "velocity": 100}, {"time": 23815, "pitch": 41, "duration": 165, "velocity": 100}, {"time": 23870, "pitch": 41, "duration": 330, "velocity": 100}, {"time": 23925, "pitch": 44, "duration": 110, "velocity": 100}, {"time": 23980, "pitch": 53, "duration": 385, "velocity": 100}, {"time": 24035, "pitch": 41, "duration": 165, "velocity": 100}, {"time": 24090, "pitch": 49, "duration": 275, "velocity": 100}, {"time": 24145, "pitch": 46, "duration": 165, "velocity": 100}, {"time": 24200, "pitch": 34, "duration": 330, "velocity": 100}, {"time": 24255, "pitch": 41, "duration": 165, "velocity": 100}, {"time": 24310, "pitch": 41, "duration": 220, "velocity": 100}, {"time": 24365, "pitch": 44, "duration": 165, "velocity": 100}, {"time": 24420, "pitch": 53, "duration": 220, "velocity": 100}, {"time": 24475, "pitch": 41, "duration": 55, "velocity": 100}, {"time": 24530, "pitch": 49, "duration": 55, "velocity": 100}, {"time": 24585, "pitch": 44, "duration": 55, "velocity": 100}, {"time": 24640, "pitch": 34, "duration": 385, "velocity": 100}, {"time": 24695, "pitch": 41, "duration": 385, "velocity": 100}, {"time": 24750, "pitch": 46, "duration": 110, "velocity": 100}, {"time": 24805, "pitch": 49, "duration": 110, "velocity": 100}, {"time": 24860, "pitch": 53, "duration": 220, "velocity": 100}, {"time": 24915, "pitch": 46, "duration": 55, "velocity": 100}, {"time": 24970, "pitch": 49, "duration": 110, "velocity": 100}, {"time": 25025, "pitch": 49, "duration": 55, "velocity": 100}, {"time": 25080, "pitch": 34, "duration": 385, "velocity": 100}, {"time": 25080, "pitch": 82, "duration": 880, "velocity": 100}, {"time": 25135, "pitch": 41, "duration": 385, "velocity": 100}, {"time": 25190, "pitch": 46, "duration": 165, "velocity": 100}, {"time": 25245, "pitch": 49, "duration": 110, "velocity": 100}, {"time": 25300, "pitch": 53, "duration": 110, "velocity": 100}, {"time": 25355, "pitch": 46, "duration": 55, "velocity": 100}, {"time": 25410, "pitch": 49, "duration": 110, "velocity": 100}, {"time": 25465, "pitch": 53, "duration": 55, "velocity": 100}, {"time": 25520, "pitch": 34, "duration": 330, "velocity": 100}, {"time": 25575, "pitch": 41, "duration": 220, "velocity": 100}, {"time": 25630, "pitch": 46, "duration": 110, "velocity": 100}, {"time": 25685, "pitch": 49, "duration": 55, "velocity": 100}, {"time": 25740, "pitch": 53, "duration": 220, "velocity": 100}, {"time": 25795, "pitch": 41, "duration": 55, "velocity": 100}, {"time": 25850, "pitch": 49, "duration": 110, "velocity": 100}, {"time": 25905, "pitch": 46, "duration": 55, "velocity": 100}, {"time": 25960, "pitch": 34, "duration": 330, "velocity": 100}, {"time": 25960, "pitch": 85, "duration": 385, "velocity": 100}, {"time": 26015, "pitch": 41, "duration": 165, "velocity": 100}, {"time": 26070, "pitch": 41, "duration": 110, "velocity": 100}, {"time": 26125, "pitch": 46, "duration": 55, "velocity": 100}, {"time": 26180, "pitch": 49, "duration": 220, "velocity": 100}, {"time": 26235, "pitch": 41, "duration": 55, "velocity": 100}, {"time": 26290, "pitch": 46, "duration": 110, "velocity": 100}, {"time": 26345, "pitch": 46, "duration": 55, "velocity": 100}, {"time": 26400, "pitch": 34, "duration": 385, "velocity": 100}, {"time": 26455, "pitch": 41, "duration": 165, "velocity": 100}, {"time": 26510, "pitch": 41, "duration": 165, "velocity": 100}, {"time": 26565, "pitch": 41, "duration": 275, "velocity": 100}, {"time": 26620, "pitch": 50, "duration": 220, "velocity": 100}, {"time": 26675, "pitch": 41, "duration": 165, "velocity": 100}, {"time": 26730, "pitch": 41, "duration": 165, "velocity": 100}, {"time": 26785, "pitch": 46, "duration": 55, "velocity": 100}, {"time": 26840, "pitch": 34, "duration": 330, "velocity": 100}, {"time": 26840, "pitch": 82, "duration": 440, "velocity": 100}, {"time": 26895, "pitch": 41, "duration": 165, "velocity": 100}, {"time": 26950, "pitch": 41, "duration": 165, "velocity": 100}, {"time": 27005, "pitch": 41, "duration": 110, "velocity": 100}, {"time": 27060, "pitch": 50, "duration": 220, "velocity": 100}, {"time": 27115, "pitch": 41, "duration": 55, "velocity": 100}, {"time": 27170, "pitch": 46, "duration": 110, "velocity": 100}, {"time": 27225, "pitch": 41, "duration": 55, "velocity": 100}, {"time": 27280, "pitch": 27, "duration": 385, "velocity": 100}, {"time": 27280, "pitch": 82, "duration": 880, "velocity": 100}, {"time": 27335, "pitch": 34, "duration": 385, "velocity": 100}, {"time": 27390, "pitch": 39, "duration": 110, "velocity": 100}, {"time": 27445, "pitch": 43, "duration": 110, "velocity": 100}, {"time": 27500, "pitch": 51, "duration": 220, "velocity": 100}, {"time": 27555, "pitch": 39, "duration": 165, "velocity": 100}, {"time": 27610, "pitch": 43, "duration": 165, "velocity": 100}, {"time": 27665, "pitch": 46, "duration": 110, "velocity": 100}, {"time": 27720, "pitch": 27, "duration": 275, "velocity": 100}, {"time": 27720, "pitch": 77, "duration": 220, "velocity": 100}, {"time": 27775, "pitch": 34, "duration": 275, "velocity": 100}, {"time": 27830, "pitch": 39, "duration": 165, "velocity": 100}, {"time": 27885, "pitch": 43, "duration": 110, "velocity": 100}, {"time": 27940, "pitch": 51, "duration": 220, "velocity": 100}, {"time": 27940, "pitch": 75, "duration": 220, "velocity": 100}, {"time": 27995, "pitch": 39, "duration": 55, "velocity": 100}, {"time": 28050, "pitch": 43, "duration": 110, "velocity": 100}, {"time": 28105, "pitch": 46, "duration": 55, "velocity": 100}, {"time": 28160, "pitch": 32, "duration": 385, "velocity": 100}, {"time": 28215, "pitch": 44, "duration": 110, "velocity": 100}, {"time": 28270, "pitch": 51, "duration": 165, "velocity": 100}, {"time": 28325, "pitch": 44, "duration": 55, "velocity": 100}, {"time": 28380, "pitch": 56, "duration": 110, "velocity": 100}, {"time": 28380, "pitch": 60, "duration": 220, "velocity": 100}, {"time": 28435, "pitch": 44, "duration": 55, "velocity": 100}, {"time": 28490, "pitch": 48, "duration": 110, "velocity": 100}, {"time": 28545, "pitch": 56, "duration": 55, "velocity": 100}, {"time": 28600, "pitch": 32, "duration": 275, "velocity": 100}, {"time": 28655, "pitch": 44, "duration": 55, "velocity": 100}, {"time": 28710, "pitch": 51, "duration": 110, "velocity": 100}, {"time": 28765, "pitch": 44, "duration": 55, "velocity": 100}, {"time": 28820, "pitch": 56, "duration": 110, "velocity": 100}, {"time": 28875, "pitch": 44, "duration": 55, "velocity": 100}, {"time": 28930, "pitch": 51, "duration": 55, "velocity": 100}, {"time": 28985, "pitch": 56, "duration": 55, "velocity": 100}, {"time": 29040, "pitch": 34, "duration": 330, "velocity": 100}, {"time": 29095, "pitch": 46, "duration": 110, "velocity": 100}, {"time": 29150, "pitch": 53, "duration": 110, "velocity": 100}, {"time": 29205, "pitch": 44, "duration": 55, "velocity": 100}, {"time": 29260, "pitch": 56, "duration": 110, "velocity": 100}, {"time": 29315, "pitch": 46, "duration": 165, "velocity": 100}, {"time": 29370, "pitch": 61, "duration": 550, "velocity": 100}, {"time": 29425, "pitch": 65, "duration": 495, "velocity": 100}, {"time": 29480, "pitch": 34, "duration": 275, "velocity": 100}, {"time": 29480, "pitch": 56, "duration": 440, "velocity": 100}, {"time": 29920, "pitch": 32, "duration": 220, "velocity": 100}, {"time": 29975, "pitch": 51, "duration": 55, "velocity": 100}, {"time": 29975, "pitch": 58, "duration": 55, "velocity": 100}, {"time": 30030, "pitch": 58, "duration": 110, "velocity": 100}, {"time": 30030, "pitch": 63, "duration": 110, "velocity": 100}, {"time": 30085, "pitch": 56, "duration": 55, "velocity": 100}, {"time": 30140, "pitch": 32, "duration": 110, "velocity": 100}, {"time": 30140, "pitch": 68, "duration": 110, "velocity": 100}, {"time": 30250, "pitch": 58, "duration": 110, "velocity": 100}, {"time": 30305, "pitch": 58, "duration": 55, "velocity": 100}, {"time": 30305, "pitch": 66, "duration": 55, "velocity": 100}, {"time": 30360, "pitch": 32, "duration": 330, "velocity": 100}, {"time": 30360, "pitch": 65, "duration": 55, "velocity": 100}, {"time": 30415, "pitch": 44, "duration": 165, "velocity": 100}, {"time": 30415, "pitch": 70, "duration": 55, "velocity": 100}, {"time": 30470, "pitch": 51, "duration": 110, "velocity": 100}, {"time": 30470, "pitch": 68, "duration": 55, "velocity": 100}, {"time": 30525, "pitch": 44, "duration": 55, "velocity": 100}, {"time": 30580, "pitch": 56, "duration": 220, "velocity": 100}, {"time": 30635, "pitch": 44, "duration": 55, "velocity": 100}, {"time": 30690, "pitch": 51, "duration": 110, "velocity": 100}, {"time": 30745, "pitch": 48, "duration": 55, "velocity": 100}, {"time": 30800, "pitch": 32, "duration": 440, "velocity": 100}, {"time": 30855, "pitch": 39, "duration": 385, "velocity": 100}, {"time": 30910, "pitch": 44, "duration": 110, "velocity": 100}, {"time": 30910, "pitch": 68, "duration": 55, "velocity": 100}, {"time": 30965, "pitch": 48, "duration": 275, "velocity": 100}, {"time": 30965, "pitch": 75, "duration": 55, "velocity": 100}, {"time": 31020, "pitch": 56, "duration": 165, "velocity": 100}, {"time": 31020, "pitch": 75, "duration": 110, "velocity": 100}, {"time": 31075, "pitch": 44, "duration": 55, "velocity": 100}, {"time": 31130, "pitch": 56, "duration": 110, "velocity": 100}, {"time": 31185, "pitch": 32, "duration": 495, "velocity": 100}, {"time": 31185, "pitch": 68, "duration": 55, "velocity": 100}, {"time": 31240, "pitch": 32, "duration": 440, "velocity": 100}, {"time": 31240, "pitch": 44, "duration": 440, "velocity": 100}, {"time": 31240, "pitch": 51, "duration": 440, "velocity": 100}, {"time": 31240, "pitch": 60, "duration": 440, "velocity": 100}, {"time": 31240, "pitch": 63, "duration": 440, "velocity": 100}, {"time": 31680, "pitch": 46, "duration": 55, "velocity": 100}, {"time": 31735, "pitch": 46, "duration": 165, "velocity": 100}, {"time": 31790, "pitch": 49, "duration": 110, "velocity": 100}, {"time": 31845, "pitch": 53, "duration": 165, "velocity": 100}, {"time": 31900, "pitch": 61, "duration": 220, "velocity": 100}, {"time": 32010, "pitch": 58, "duration": 110, "velocity": 100}, {"time": 32120, "pitch": 34, "duration": 275, "velocity": 100}, {"time": 32175, "pitch": 41, "duration": 220, "velocity": 100}, {"time": 32230, "pitch": 46, "duration": 110, "velocity": 100}, {"time": 32285, "pitch": 53, "duration": 165, "velocity": 100}, {"time": 32340, "pitch": 61, "duration": 220, "velocity": 100}, {"time": 32395, "pitch": 46, "duration": 55, "velocity": 100}, {"time": 32450, "pitch": 58, "duration": 110, "velocity": 100}, {"time": 32560, "pitch": 34, "duration": 330, "velocity": 100}, {"time": 32615, "pitch": 46, "duration": 275, "velocity": 100}, {"time": 32670, "pitch": 53, "duration": 165, "velocity": 100}, {"time": 32725, "pitch": 58, "duration": 165, "velocity": 100}, {"time": 32780, "pitch": 65, "duration": 220, "velocity": 100}, {"time": 32835, "pitch": 53, "duration": 55, "velocity": 100}, {"time": 32890, "pitch": 61, "duration": 110, "velocity": 100}, {"time": 32945, "pitch": 58, "duration": 55, "velocity": 100}, {"time": 33000, "pitch": 34, "duration": 330, "velocity": 100}, {"time": 33055, "pitch": 41, "duration": 220, "velocity": 100}, {"time": 33110, "pitch": 46, "duration": 110, "velocity": 100}, {"time": 33165, "pitch": 49, "duration": 55, "velocity": 100}, {"time": 33220, "pitch": 53, "duration": 220, "velocity": 100}, {"time": 33220, "pitch": 61, "duration": 220, "velocity": 100}, {"time": 33330, "pitch": 53, "duration": 110, "velocity": 100}, {"time": 33440, "pitch": 46, "duration": 330, "velocity": 100}, {"time": 33495, "pitch": 49, "duration": 275, "velocity": 100}, {"time": 33550, "pitch": 53, "duration": 110, "velocity": 100}, {"time": 33605, "pitch": 61, "duration": 275, "velocity": 100}, {"time": 33605, "pitch": 65, "duration": 275, "velocity": 100}, {"time": 33715, "pitch": 53, "duration": 55, "velocity": 100}, {"time": 33770, "pitch": 61, "duration": 220, "velocity": 100}, {"time": 33880, "pitch": 34, "duration": 330, "velocity": 100}, {"time": 33935, "pitch": 41, "duration": 275, "velocity": 100}, {"time": 33990, "pitch": 46, "duration": 110, "velocity": 100}, {"time": 34045, "pitch": 53, "duration": 275, "velocity": 100}, {"time": 34100, "pitch": 61, "duration": 220, "velocity": 100}, {"time": 34155, "pitch": 46, "duration": 55, "velocity": 100}, {"time": 34210, "pitch": 58, "duration": 110, "velocity": 100}, {"time": 34320, "pitch": 34, "duration": 330, "velocity": 100}, {"time": 34375, "pitch": 46, "duration": 165, "velocity": 100}, {"time": 34430, "pitch": 49, "duration": 110, "velocity": 100}, {"time": 34485, "pitch": 58, "duration": 275, "velocity": 100}, {"time": 34540, "pitch": 53, "duration": 110, "velocity": 100}, {"time": 34595, "pitch": 46, "duration": 55, "velocity": 100}, {"time": 34650, "pitch": 53, "duration": 110, "velocity": 100}, {"time": 34705, "pitch": 58, "duration": 55, "velocity": 100}, {"time": 34760, "pitch": 34, "duration": 330, "velocity": 100}, {"time": 34815, "pitch": 41, "duration": 275, "velocity": 100}, {"time": 34870, "pitch": 46, "duration": 165, "velocity": 100}, {"time": 34925, "pitch": 53, "duration": 55, "velocity": 100}, {"time": 34925, "pitch": 58, "duration": 55, "velocity": 100}, {"time": 34925, "pitch": 61, "duration": 55, "velocity": 100}, {"time": 34980, "pitch": 58, "duration": 220, "velocity": 100}, {"time": 35035, "pitch": 46, "duration": 55, "velocity": 100}, {"time": 35090, "pitch": 49, "duration": 110, "velocity": 100}, {"time": 35145, "pitch": 58, "duration": 55, "velocity": 100}, {"time": 35200, "pitch": 37, "duration": 385, "velocity": 100}, {"time": 35200, "pitch": 85, "duration": 440, "velocity": 100}, {"time": 35255, "pitch": 56, "duration": 165, "velocity": 100}, {"time": 35310, "pitch": 61, "duration": 110, "velocity": 100}, {"time": 35365, "pitch": 56, "duration": 110, "velocity": 100}, {"time": 35420, "pitch": 65, "duration": 220, "velocity": 100}, {"time": 35475, "pitch": 56, "duration": 55, "velocity": 100}, {"time": 35530, "pitch": 61, "duration": 55, "velocity": 100}, {"time": 35530, "pitch": 84, "duration": 110, "velocity": 100}, {"time": 35585, "pitch": 56, "duration": 55, "velocity": 100}, {"time": 35640, "pitch": 44, "duration": 330, "velocity": 100}, {"time": 35640, "pitch": 82, "duration": 220, "velocity": 100}, {"time": 35695, "pitch": 56, "duration": 165, "velocity": 100}, {"time": 35750, "pitch": 56, "duration": 110, "velocity": 100}, {"time": 35750, "pitch": 61, "duration": 55, "velocity": 100}, {"time": 35805, "pitch": 56, "duration": 110, "velocity": 100}, {"time": 35860, "pitch": 65, "duration": 110, "velocity": 100}, {"time": 35860, "pitch": 80, "duration": 165, "velocity": 100}, {"time": 35915, "pitch": 56, "duration": 55, "velocity": 100}, {"time": 35970, "pitch": 44, "duration": 110, "velocity": 100}, {"time": 36025, "pitch": 61, "duration": 55, "velocity": 100}, {"time": 36080, "pitch": 37, "duration": 385, "velocity": 100}, {"time": 36080, "pitch": 82, "duration": 440, "velocity": 100}, {"time": 36135, "pitch": 44, "duration": 220, "velocity": 100}, {"time": 36190, "pitch": 61, "duration": 110, "velocity": 100}, {"time": 36245, "pitch": 49, "duration": 55, "velocity": 100}, {"time": 36300, "pitch": 65, "duration": 165, "velocity": 100}, {"time": 36355, "pitch": 49, "duration": 55, "velocity": 100}, {"time": 36410, "pitch": 61, "duration": 55, "velocity": 100}, {"time": 36465, "pitch": 61, "duration": 55, "velocity": 100}, {"time": 36520, "pitch": 37, "duration": 220, "velocity": 100}, {"time": 36575, "pitch": 49, "duration": 55, "velocity": 100}, {"time": 36630, "pitch": 65, "duration": 165, "velocity": 100}, {"time": 36685, "pitch": 61, "duration": 110, "velocity": 100}, {"time": 36740, "pitch": 37, "duration": 165, "velocity": 100}, {"time": 36795, "pitch": 49, "duration": 110, "velocity": 100}, {"time": 36850, "pitch": 61, "duration": 110, "velocity": 100}, {"time": 36850, "pitch": 65, "duration": 110, "velocity": 100}, {"time": 36905, "pitch": 61, "duration": 55, "velocity": 100}, {"time": 36960, "pitch": 49, "duration": 330, "velocity": 100}, {"time": 37015, "pitch": 56, "duration": 220, "velocity": 100}, {"time": 37070, "pitch": 61, "duration": 110, "velocity": 100}, {"time": 37125, "pitch": 65, "duration": 55, "velocity": 100}, {"time": 37180, "pitch": 68, "duration": 110, "velocity": 100}, {"time": 37180, "pitch": 70, "duration": 220, "velocity": 100}, {"time": 37235, "pitch": 56, "duration": 55, "velocity": 100}, {"time": 37290, "pitch": 63, "duration": 110, "velocity": 100}, {"time": 37345, "pitch": 65, "duration": 55, "velocity": 100}, {"time": 37400, "pitch": 37, "duration": 330, "velocity": 100}, {"time": 37455, "pitch": 49, "duration": 165, "velocity": 100}, {"time": 37510, "pitch": 56, "duration": 110, "velocity": 100}, {"time": 37565, "pitch": 53, "duration": 55, "velocity": 100}, {"time": 37620, "pitch": 56, "duration": 110, "velocity": 100}, {"time": 37620, "pitch": 65, "duration": 220, "velocity": 100}, {"time": 37675, "pitch": 49, "duration": 55, "velocity": 100}, {"time": 37730, "pitch": 56, "duration": 110, "velocity": 100}, {"time": 37785, "pitch": 56, "duration": 55, "velocity": 100}, {"time": 37840, "pitch": 37, "duration": 385, "velocity": 100}, {"time": 37895, "pitch": 49, "duration": 330, "velocity": 100}, {"time": 37950, "pitch": 56, "duration": 55, "velocity": 100}, {"time": 38005, "pitch": 65, "duration": 55, "velocity": 100}, {"time": 38060, "pitch": 73, "duration": 55, "velocity": 100}, {"time": 38115, "pitch": 80, "duration": 55, "velocity": 100}, {"time": 38170, "pitch": 73, "duration": 55, "velocity": 100}, {"time": 38225, "pitch": 68, "duration": 55, "velocity": 100}, {"time": 38280, "pitch": 37, "duration": 330, "velocity": 100}, {"time": 38280, "pitch": 61, "duration": 55, "velocity": 100}, {"time": 38335, "pitch": 44, "duration": 275, "velocity": 100}, {"time": 38390, "pitch": 53, "duration": 55, "velocity": 100}, {"time": 38390, "pitch": 56, "duration": 55, "velocity": 100}, {"time": 38445, "pitch": 53, "duration": 55, "velocity": 100}, {"time": 38445, "pitch": 56, "duration": 55, "velocity": 100}, {"time": 38500, "pitch": 49, "duration": 110, "velocity": 100}, {"time": 38500, "pitch": 61, "duration": 55, "velocity": 100}, {"time": 38500, "pitch": 65, "duration": 55, "velocity": 100}, {"time": 38555, "pitch": 61, "duration": 55, "velocity": 100}, {"time": 38555, "pitch": 65, "duration": 55, "velocity": 100}, {"time": 38610, "pitch": 61, "duration": 110, "velocity": 100}, {"time": 38610, "pitch": 65, "duration": 110, "velocity": 100}, {"time": 38665, "pitch": 56, "duration": 55, "velocity": 100}, {"time": 38720, "pitch": 41, "duration": 385, "velocity": 100}, {"time": 38775, "pitch": 49, "duration": 220, "velocity": 100}, {"time": 38830, "pitch": 56, "duration": 110, "velocity": 100}, {"time": 38830, "pitch": 77, "duration": 55, "velocity": 100}, {"time": 38885, "pitch": 61, "duration": 55, "velocity": 100}, {"time": 38940, "pitch": 68, "duration": 110, "velocity": 100}, {"time": 38940, "pitch": 77, "duration": 110, "velocity": 100}, {"time": 38995, "pitch": 49, "duration": 55, "velocity": 100}, {"time": 39050, "pitch": 61, "duration": 110, "velocity": 100}, {"time": 39050, "pitch": 68, "duration": 110, "velocity": 100}, {"time": 39050, "pitch": 78, "duration": 110, "velocity": 100}, {"time": 39105, "pitch": 49, "duration": 55, "velocity": 100}, {"time": 39160, "pitch": 37, "duration": 275, "velocity": 100}, {"time": 39160, "pitch": 73, "duration": 220, "velocity": 100}, {"time": 39215, "pitch": 44, "duration": 220, "velocity": 100}, {"time": 39270, "pitch": 49, "duration": 110, "velocity": 100}, {"time": 39325, "pitch": 65, "duration": 55, "velocity": 100}, {"time": 39325, "pitch": 68, "duration": 55, "velocity": 100}, {"time": 39380, "pitch": 61, "duration": 110, "velocity": 100}, {"time": 39380, "pitch": 65, "duration": 110, "velocity": 100}, {"time": 39380, "pitch": 68, "duration": 110, "velocity": 100}, {"time": 39435, "pitch": 44, "duration": 55, "velocity": 100}, {"time": 39490, "pitch": 37, "duration": 110, "velocity": 100}, {"time": 39600, "pitch": 37, "duration": 385, "velocity": 100}, {"time": 39655, "pitch": 44, "duration": 385, "velocity": 100}, {"time": 39710, "pitch": 49, "duration": 110, "velocity": 100}, {"time": 39765, "pitch": 61, "duration": 165, "velocity": 100}, {"time": 39820, "pitch": 65, "duration": 275, "velocity": 100}, {"time": 39875, "pitch": 49, "duration": 55, "velocity": 100}, {"time": 39930, "pitch": 61, "duration": 110, "velocity": 100}, {"time": 39985, "pitch": 56, "duration": 165, "velocity": 100}, {"time": 40040, "pitch": 37, "duration": 330, "velocity": 100}, {"time": 40095, "pitch": 44, "duration": 220, "velocity": 100}, {"time": 40150, "pitch": 56, "duration": 165, "velocity": 100}, {"time": 40205, "pitch": 61, "duration": 55, "velocity": 100}, {"time": 40260, "pitch": 65, "duration": 220, "velocity": 100}, {"time": 40315, "pitch": 44, "duration": 55, "velocity": 100}, {"time": 40370, "pitch": 61, "duration": 110, "velocity": 100}, {"time": 40425, "pitch": 61, "duration": 55, "velocity": 100}, {"time": 40480, "pitch": 37, "duration": 385, "velocity": 100}, {"time": 40535, "pitch": 44, "duration": 165, "velocity": 100}, {"time": 40590, "pitch": 56, "duration": 110, "velocity": 100}, {"time": 40645, "pitch": 49, "duration": 110, "velocity": 100}, {"time": 40700, "pitch": 59, "duration": 110, "velocity": 100}, {"time": 40700, "pitch": 61, "duration": 220, "velocity": 100}, {"time": 40755, "pitch": 49, "duration": 55, "velocity": 100}, {"time": 40810, "pitch": 56, "duration": 110, "velocity": 100}, {"time": 40865, "pitch": 59, "duration": 55, "velocity": 100}, {"time": 40920, "pitch": 37, "duration": 330, "velocity": 100}, {"time": 40975, "pitch": 44, "duration": 55, "velocity": 100}, {"time": 41030, "pitch": 56, "duration": 110, "velocity": 100}, {"time": 41085, "pitch": 47, "duration": 55, "velocity": 100}, {"time": 41140, "pitch": 59, "duration": 110, "velocity": 100}, {"time": 41195, "pitch": 49, "duration": 55, "velocity": 100}, {"time": 41250, "pitch": 56, "duration": 55, "velocity": 100}, {"time": 41305, "pitch": 59, "duration": 55, "velocity": 100}, {"time": 41360, "pitch": 37, "duration": 385, "velocity": 100}, {"time": 41415, "pitch": 49, "duration": 55, "velocity": 100}, {"time": 41470, "pitch": 56, "duration": 110, "velocity": 100}, {"time": 41525, "pitch": 49, "duration": 110, "velocity": 100}, {"time": 41580, "pitch": 61, "duration": 220, "velocity": 100}, {"time": 41635, "pitch": 49, "duration": 165, "velocity": 100}, {"time": 41800, "pitch": 37, "duration": 440, "velocity": 100}, {"time": 41800, "pitch": 61, "duration": 440, "velocity": 100}, {"time": 41800, "pitch": 65, "duration": 440, "velocity": 100}, {"time": 41800, "pitch": 68, "duration": 440, "velocity": 100}, {"time": 42185, "pitch": 83, "duration": 55, "velocity": 100}, {"time": 42240, "pitch": 34, "duration": 385, "velocity": 100}, {"time": 42295, "pitch": 43, "duration": 275, "velocity": 100}, {"time": 42350, "pitch": 49, "duration": 110, "velocity": 100}, {"time": 42405, "pitch": 55, "duration": 55, "velocity": 100}, {"time": 42460, "pitch": 61, "duration": 220, "velocity": 100}, {"time": 42515, "pitch": 43, "duration": 165, "velocity": 100}, {"time": 42570, "pitch": 58, "duration": 55, "velocity": 100}, {"time": 42570, "pitch": 61, "duration": 165, "velocity": 100}, {"time": 42625, "pitch": 55, "duration": 165, "velocity": 100}, {"time": 42680, "pitch": 31, "duration": 330, "velocity": 100}, {"time": 42735, "pitch": 43, "duration": 220, "velocity": 100}, {"time": 42790, "pitch": 55, "duration": 165, "velocity": 100}, {"time": 42845, "pitch": 58, "duration": 55, "velocity": 100}, {"time": 42900, "pitch": 61, "duration": 220, "velocity": 100}, {"time": 42955, "pitch": 43, "duration": 55, "velocity": 100}, {"time": 43010, "pitch": 58, "duration": 110, "velocity": 100}, {"time": 43065, "pitch": 55, "duration": 55, "velocity": 100}, {"time": 43120, "pitch": 31, "duration": 385, "velocity": 100}, {"time": 43175, "pitch": 43, "duration": 220, "velocity": 100}, {"time": 43230, "pitch": 49, "duration": 110, "velocity": 100}, {"time": 43285, "pitch": 49, "duration": 110, "velocity": 100}, {"time": 43340, "pitch": 55, "duration": 110, "velocity": 100}, {"time": 43340, "pitch": 58, "duration": 220, "velocity": 100}, {"time": 43395, "pitch": 43, "duration": 55, "velocity": 100}, {"time": 43450, "pitch": 49, "duration": 110, "velocity": 100}, {"time": 43505, "pitch": 55, "duration": 55, "velocity": 100}, {"time": 43560, "pitch": 32, "duration": 330, "velocity": 100}, {"time": 43615, "pitch": 44, "duration": 55, "velocity": 100}, {"time": 43670, "pitch": 51, "duration": 110, "velocity": 100}, {"time": 43725, "pitch": 44, "duration": 55, "velocity": 100}, {"time": 43780, "pitch": 56, "duration": 110, "velocity": 100}, {"time": 43835, "pitch": 44, "duration": 55, "velocity": 100}, {"time": 43890, "pitch": 51, "duration": 55, "velocity": 100}, {"time": 43945, "pitch": 56, "duration": 55, "velocity": 100}, {"time": 44000, "pitch": 38, "duration": 385, "velocity": 100}, {"time": 44055, "pitch": 43, "duration": 220, "velocity": 100}, {"time": 44110, "pitch": 50, "duration": 55, "velocity": 100}, {"time": 44165, "pitch": 50, "duration": 110, "velocity": 100}, {"time": 44220, "pitch": 59, "duration": 220, "velocity": 100}, {"time": 44275, "pitch": 43, "duration": 275, "velocity": 100}, {"time": 44440, "pitch": 43, "duration": 330, "velocity": 100}, {"time": 44440, "pitch": 59, "duration": 440, "velocity": 100}, {"time": 44440, "pitch": 62, "duration": 440, "velocity": 100}, {"time": 44440, "pitch": 67, "duration": 440, "velocity": 100}, {"time": 44880, "pitch": 43, "duration": 330, "velocity": 100}, {"time": 44935, "pitch": 50, "duration": 275, "velocity": 100}, {"time": 44990, "pitch": 55, "duration": 55, "velocity": 100}, {"time": 44990, "pitch": 57, "duration": 55, "velocity": 100}, {"time": 45045, "pitch": 55, "duration": 55, "velocity": 100}, {"time": 45045, "pitch": 59, "duration": 55, "velocity": 100}, {"time": 45100, "pitch": 59, "duration": 55, "velocity": 100}, {"time": 45100, "pitch": 62, "duration": 55, "velocity": 100}, {"time": 45155, "pitch": 55, "duration": 55, "velocity": 100}, {"time": 45210, "pitch": 59, "duration": 55, "velocity": 100}, {"time": 45210, "pitch": 64, "duration": 55, "velocity": 100}, {"time": 45265, "pitch": 59, "duration": 55, "velocity": 100}, {"time": 45265, "pitch": 67, "duration": 55, "velocity": 100}, {"time": 45320, "pitch": 43, "duration": 330, "velocity": 100}, {"time": 45320, "pitch": 67, "duration": 55, "velocity": 100}, {"time": 45375, "pitch": 55, "duration": 110, "velocity": 100}, {"time": 45375, "pitch": 67, "duration": 55, "velocity": 100}, {"time": 45430, "pitch": 59, "duration": 55, "velocity": 100}, {"time": 45485, "pitch": 59, "duration": 55, "velocity": 100}, {"time": 45485, "pitch": 63, "duration": 165, "velocity": 100}, {"time": 45595, "pitch": 56, "duration": 165, "velocity": 100}, {"time": 45650, "pitch": 58, "duration": 110, "velocity": 100}, {"time": 45705, "pitch": 63, "duration": 55, "velocity": 100}, {"time": 45760, "pitch": 44, "duration": 385, "velocity": 100}, {"time": 45815, "pitch": 56, "duration": 385, "velocity": 100}, {"time": 45870, "pitch": 60, "duration": 220, "velocity": 100}, {"time": 45925, "pitch": 63, "duration": 275, "velocity": 100}, {"time": 45980, "pitch": 68, "duration": 275, "velocity": 100}, {"time": 46200, "pitch": 48, "duration": 385, "velocity": 100}, {"time": 46255, "pitch": 56, "duration": 275, "velocity": 100}, {"time": 46310, "pitch": 60, "duration": 165, "velocity": 100}, {"time": 46365, "pitch": 63, "duration": 55, "velocity": 100}, {"time": 46420, "pitch": 68, "duration": 110, "velocity": 100}, {"time": 46530, "pitch": 63, "duration": 110, "velocity": 100}, {"time": 46640, "pitch": 44, "duration": 220, "velocity": 100}, {"time": 46695, "pitch": 48, "duration": 165, "velocity": 100}, {"time": 46750, "pitch": 51, "duration": 110, "velocity": 100}, {"time": 46805, "pitch": 56, "duration": 55, "velocity": 100}, {"time": 46860, "pitch": 44, "duration": 110, "velocity": 100}, {"time": 46860, "pitch": 60, "duration": 55, "velocity": 100}, {"time": 46915, "pitch": 51, "duration": 55, "velocity": 100}, {"time": 46970, "pitch": 56, "duration": 110, "velocity": 100}, {"time": 46970, "pitch": 58, "duration": 55, "velocity": 100}, {"time": 47025, "pitch": 63, "duration": 55, "velocity": 100}, {"time": 47080, "pitch": 46, "duration": 385, "velocity": 100}, {"time": 47135, "pitch": 56, "duration": 275, "velocity": 100}, {"time": 47190, "pitch": 61, "duration": 275, "velocity": 100}, {"time": 47300, "pitch": 63, "duration": 165, "velocity": 100}, {"time": 47520, "pitch": 44, "duration": 880, "velocity": 100}, {"time": 47520, "pitch": 56, "duration": 165, "velocity": 100}, {"time": 47520, "pitch": 61, "duration": 165, "velocity": 100}, {"time": 47740, "pitch": 56, "duration": 165, "velocity": 100}, {"time": 47740, "pitch": 61, "duration": 165, "velocity": 100}, {"time": 47850, "pitch": 49, "duration": 330, "velocity": 100}, {"time": 47960, "pitch": 56, "duration": 165, "velocity": 100}, {"time": 47960, "pitch": 61, "duration": 165, "velocity": 100}, {"time": 48070, "pitch": 53, "duration": 330, "velocity": 100}, {"time": 48180, "pitch": 56, "duration": 110, "velocity": 100}, {"time": 48180, "pitch": 61, "duration": 110, "velocity": 100}, {"time": 48400, "pitch": 46, "duration": 330, "velocity": 100}, {"time": 48400, "pitch": 61, "duration": 165, "velocity": 100}, {"time": 48400, "pitch": 65, "duration": 165, "velocity": 100}, {"time": 48510, "pitch": 53, "duration": 165, "velocity": 100}, {"time": 48620, "pitch": 61, "duration": 110, "velocity": 100}, {"time": 48620, "pitch": 65, "duration": 110, "velocity": 100}, {"time": 48840, "pitch": 37, "duration": 440, "velocity": 100}, {"time": 48840, "pitch": 56, "duration": 220, "velocity": 100}, {"time": 48840, "pitch": 58, "duration": 220, "velocity": 100}, {"time": 48950, "pitch": 46, "duration": 330, "velocity": 100}, {"time": 49060, "pitch": 55, "duration": 220, "velocity": 100}, {"time": 49060, "pitch": 58, "duration": 220, "velocity": 100}, {"time": 49280, "pitch": 43, "duration": 330, "velocity": 100}, {"time": 49280, "pitch": 58, "duration": 165, "velocity": 100}, {"time": 49280, "pitch": 63, "duration": 165, "velocity": 100}, {"time": 49500, "pitch": 61, "duration": 165, "velocity": 100}, {"time": 49500, "pitch": 63, "duration": 165, "velocity": 100}, {"time": 49720, "pitch": 43, "duration": 330, "velocity": 100}, {"time": 49720, "pitch": 61, "duration": 220, "velocity": 100}, {"time": 49720, "pitch": 67, "duration": 220, "velocity": 100}, {"time": 49830, "pitch": 55, "duration": 165, "velocity": 100}, {"time": 49940, "pitch": 61, "duration": 110, "velocity": 100}, {"time": 49940, "pitch": 65, "duration": 110, "velocity": 100}, {"time": 50160, "pitch": 43, "duration": 330, "velocity": 100}, {"time": 50160, "pitch": 58, "duration": 220, "velocity": 100}, {"time": 50160, "pitch": 63, "duration": 220, "velocity": 100}, {"time": 50380, "pitch": 58, "duration": 110, "velocity": 100}, {"time": 50380, "pitch": 63, "duration": 110, "velocity": 100}, {"time": 50600, "pitch": 49, "duration": 385, "velocity": 100}, {"time": 50600, "pitch": 63, "duration": 220, "velocity": 100}, {"time": 50600, "pitch": 67, "duration": 220, "velocity": 100}, {"time": 50710, "pitch": 55, "duration": 330, "velocity": 100}, {"time": 50820, "pitch": 63, "duration": 220, "velocity": 100}, {"time": 50820, "pitch": 67, "duration": 220, "velocity": 100}, {"time": 51040, "pitch": 32, "duration": 385, "velocity": 100}, {"time": 51095, "pitch": 44, "duration": 110, "velocity": 100}, {"time": 51150, "pitch": 51, "duration": 165, "velocity": 100}, {"time": 51205, "pitch": 44, "duration": 55, "velocity": 100}, {"time": 51260, "pitch": 51, "duration": 110, "velocity": 100}, {"time": 51260, "pitch": 60, "duration": 220, "velocity": 100}, {"time": 51315, "pitch": 44, "duration": 55, "velocity": 100}, {"time": 51370, "pitch": 48, "duration": 110, "velocity": 100}, {"time": 51425, "pitch": 56, "duration": 55, "velocity": 100}, {"time": 51480, "pitch": 32, "duration": 275, "velocity": 100}, {"time": 51535, "pitch": 44, "duration": 55, "velocity": 100}, {"time": 51590, "pitch": 51, "duration": 110, "velocity": 100}, {"time": 51645, "pitch": 44, "duration": 55, "velocity": 100}, {"time": 51700, "pitch": 56, "duration": 110, "velocity": 100}, {"time": 51755, "pitch": 44, "duration": 55, "velocity": 100}, {"time": 51810, "pitch": 51, "duration": 55, "velocity": 100}, {"time": 51865, "pitch": 56, "duration": 55, "velocity": 100}, {"time": 51920, "pitch": 32, "duration": 385, "velocity": 100}, {"time": 51975, "pitch": 44, "duration": 110, "velocity": 100}, {"time": 52030, "pitch": 51, "duration": 55, "velocity": 100}, {"time": 52085, "pitch": 44, "duration": 55, "velocity": 100}, {"time": 52140, "pitch": 56, "duration": 110, "velocity": 100}, {"time": 52195, "pitch": 44, "duration": 165, "velocity": 100}, {"time": 52250, "pitch": 60, "duration": 550, "velocity": 100}, {"time": 52305, "pitch": 63, "duration": 495, "velocity": 100}, {"time": 52360, "pitch": 32, "duration": 275, "velocity": 100}, {"time": 52360, "pitch": 56, "duration": 440, "velocity": 100}, {"time": 52800, "pitch": 32, "duration": 220, "velocity": 100}, {"time": 52855, "pitch": 51, "duration": 165, "velocity": 100}, {"time": 52855, "pitch": 58, "duration": 55, "velocity": 100}, {"time": 52910, "pitch": 56, "duration": 110, "velocity": 100}, {"time": 52910, "pitch": 63, "duration": 110, "velocity": 100}, {"time": 52965, "pitch": 58, "duration": 55, "velocity": 100}, {"time": 53020, "pitch": 32, "duration": 220, "velocity": 100}, {"time": 53020, "pitch": 68, "duration": 110, "velocity": 100}, {"time": 53130, "pitch": 58, "duration": 110, "velocity": 100}, {"time": 53185, "pitch": 60, "duration": 55, "velocity": 100}, {"time": 53185, "pitch": 66, "duration": 55, "velocity": 100}, {"time": 53240, "pitch": 32, "duration": 330, "velocity": 100}, {"time": 53240, "pitch": 65, "duration": 55, "velocity": 100}, {"time": 53295, "pitch": 44, "duration": 165, "velocity": 100}, {"time": 53295, "pitch": 70, "duration": 55, "velocity": 100}, {"time": 53350, "pitch": 48, "duration": 110, "velocity": 100}, {"time": 53350, "pitch": 68, "duration": 55, "velocity": 100}, {"time": 53405, "pitch": 51, "duration": 55, "velocity": 100}, {"time": 53460, "pitch": 56, "duration": 220, "velocity": 100}, {"time": 53515, "pitch": 44, "duration": 55, "velocity": 100}, {"time": 53570, "pitch": 51, "duration": 110, "velocity": 100}, {"time": 53625, "pitch": 48, "duration": 55, "velocity": 100}, {"time": 53680, "pitch": 27, "duration": 385, "velocity": 100}, {"time": 53735, "pitch": 37, "duration": 385, "velocity": 100}, {"time": 53790, "pitch": 46, "duration": 110, "velocity": 100}, {"time": 53790, "pitch": 68, "duration": 55, "velocity": 100}, {"time": 53845, "pitch": 49, "duration": 110, "velocity": 100}, {"time": 53845, "pitch": 75, "duration": 55, "velocity": 100}, {"time": 53900, "pitch": 55, "duration": 165, "velocity": 100}, {"time": 53900, "pitch": 73, "duration": 110, "velocity": 100}, {"time": 53955, "pitch": 39, "duration": 165, "velocity": 100}, {"time": 54010, "pitch": 55, "duration": 110, "velocity": 100}, {"time": 54065, "pitch": 39, "duration": 495, "velocity": 100}, {"time": 54065, "pitch": 68, "duration": 55, "velocity": 100}, {"time": 54120, "pitch": 37, "duration": 440, "velocity": 100}, {"time": 54120, "pitch": 46, "duration": 440, "velocity": 100}, {"time": 54120, "pitch": 55, "duration": 440, "velocity": 100}, {"time": 54120, "pitch": 58, "duration": 440, "velocity": 100}, {"time": 54120, "pitch": 63, "duration": 440, "velocity": 100}, {"time": 54560, "pitch": 44, "duration": 55, "velocity": 100}, {"time": 54615, "pitch": 44, "duration": 165, "velocity": 100}, {"time": 54670, "pitch": 51, "duration": 110, "velocity": 100}, {"time": 54725, "pitch": 56, "duration": 165, "velocity": 100}, {"time": 54780, "pitch": 60, "duration": 220, "velocity": 100}, {"time": 54890, "pitch": 56, "duration": 110, "velocity": 100}, {"time": 55000, "pitch": 32, "duration": 275, "velocity": 100}, {"time": 55055, "pitch": 39, "duration": 220, "velocity": 100}, {"time": 55110, "pitch": 44, "duration": 110, "velocity": 100}, {"time": 55165, "pitch": 56, "duration": 165, "velocity": 100}, {"time": 55220, "pitch": 60, "duration": 220, "velocity": 100}, {"time": 55275, "pitch": 44, "duration": 55, "velocity": 100}, {"time": 55330, "pitch": 60, "duration": 110, "velocity": 100}, {"time": 55440, "pitch": 44, "duration": 330, "velocity": 100}, {"time": 55495, "pitch": 48, "duration": 275, "velocity": 100}, {"time": 55550, "pitch": 51, "duration": 165, "velocity": 100}, {"time": 55605, "pitch": 56, "duration": 165, "velocity": 100}, {"time": 55660, "pitch": 68, "duration": 220, "velocity": 100}, {"time": 55715, "pitch": 56, "duration": 55, "velocity": 100}, {"time": 55770, "pitch": 60, "duration": 110, "velocity": 100}, {"time": 55825, "pitch": 60, "duration": 55, "velocity": 100}, {"time": 55880, "pitch": 32, "duration": 330, "velocity": 100}, {"time": 55935, "pitch": 39, "duration": 220, "velocity": 100}, {"time": 55990, "pitch": 44, "duration": 110, "velocity": 100}, {"time": 56045, "pitch": 51, "duration": 55, "velocity": 100}, {"time": 56100, "pitch": 56, "duration": 220, "velocity": 100}, {"time": 56100, "pitch": 60, "duration": 220, "velocity": 100}, {"time": 56210, "pitch": 51, "duration": 110, "velocity": 100}, {"time": 56320, "pitch": 41, "duration": 330, "velocity": 100}, {"time": 56375, "pitch": 49, "duration": 275, "velocity": 100}, {"time": 56430, "pitch": 53, "duration": 110, "velocity": 100}, {"time": 56485, "pitch": 61, "duration": 275, "velocity": 100}, {"time": 56485, "pitch": 65, "duration": 275, "velocity": 100}, {"time": 56595, "pitch": 53, "duration": 55, "velocity": 100}, {"time": 56650, "pitch": 61, "duration": 220, "velocity": 100}, {"time": 56760, "pitch": 34, "duration": 330, "velocity": 100}, {"time": 56815, "pitch": 41, "duration": 275, "velocity": 100}, {"time": 56870, "pitch": 46, "duration": 110, "velocity": 100}, {"time": 56925, "pitch": 53, "duration": 275, "velocity": 100}, {"time": 56980, "pitch": 62, "duration": 220, "velocity": 100}, {"time": 57035, "pitch": 46, "duration": 55, "velocity": 100}, {"time": 57090, "pitch": 58, "duration": 110, "velocity": 100}, {"time": 57200, "pitch": 39, "duration": 330, "velocity": 100}, {"time": 57255, "pitch": 46, "duration": 165, "velocity": 100}, {"time": 57310, "pitch": 51, "duration": 110, "velocity": 100}, {"time": 57365, "pitch": 58, "duration": 275, "velocity": 100}, {"time": 57420, "pitch": 55, "duration": 110, "velocity": 100}, {"time": 57475, "pitch": 46, "duration": 55, "velocity": 100}, {"time": 57530, "pitch": 51, "duration": 110, "velocity": 100}, {"time": 57585, "pitch": 55, "duration": 55, "velocity": 100}, {"time": 57640, "pitch": 27, "duration": 330, "velocity": 100}, {"time": 57695, "pitch": 39, "duration": 275, "velocity": 100}, {"time": 57750, "pitch": 43, "duration": 165, "velocity": 100}, {"time": 57805, "pitch": 51, "duration": 55, "velocity": 100}, {"time": 57805, "pitch": 55, "duration": 55, "velocity": 100}, {"time": 57805, "pitch": 58, "duration": 55, "velocity": 100}, {"time": 57860, "pitch": 55, "duration": 110, "velocity": 100}, {"time": 57860, "pitch": 58, "duration": 220, "velocity": 100}, {"time": 57915, "pitch": 46, "duration": 55, "velocity": 100}, {"time": 57970, "pitch": 51, "duration": 110, "velocity": 100}, {"time": 58025, "pitch": 55, "duration": 55, "velocity": 100}, {"time": 58080, "pitch": 44, "duration": 385, "velocity": 100}, {"time": 58080, "pitch": 87, "duration": 330, "velocity": 100}, {"time": 58135, "pitch": 56, "duration": 55, "velocity": 100}, {"time": 58190, "pitch": 63, "duration": 110, "velocity": 100}, {"time": 58245, "pitch": 56, "duration": 110, "velocity": 100}, {"time": 58300, "pitch": 68, "duration": 220, "velocity": 100}, {"time": 58355, "pitch": 56, "duration": 55, "velocity": 100}, {"time": 58410, "pitch": 63, "duration": 55, "velocity": 100}, {"time": 58410, "pitch": 87, "duration": 110, "velocity": 100}, {"time": 58465, "pitch": 60, "duration": 55, "velocity": 100}, {"time": 58520, "pitch": 44, "duration": 330, "velocity": 100}, {"time": 58520, "pitch": 84, "duration": 220, "velocity": 100}, {"time": 58575, "pitch": 56, "duration": 165, "velocity": 100}, {"time": 58630, "pitch": 60, "duration": 110, "velocity": 100}, {"time": 58630, "pitch": 63, "duration": 55, "velocity": 100}, {"time": 58685, "pitch": 60, "duration": 110, "velocity": 100}, {"time": 58740, "pitch": 68, "duration": 110, "velocity": 100}, {"time": 58740, "pitch": 80, "duration": 165, "velocity": 100}, {"time": 58795, "pitch": 60, "duration": 55, "velocity": 100}, {"time": 58850, "pitch": 44, "duration": 110, "velocity": 100}, {"time": 58905, "pitch": 60, "duration": 55, "velocity": 100}, {"time": 58960, "pitch": 44, "duration": 385, "velocity": 100}, {"time": 58960, "pitch": 84, "duration": 440, "velocity": 100}, {"time": 59015, "pitch": 51, "duration": 165, "velocity": 100}, {"time": 59070, "pitch": 63, "duration": 110, "velocity": 100}, {"time": 59125, "pitch": 51, "duration": 110, "velocity": 100}, {"time": 59180, "pitch": 68, "duration": 220, "velocity": 100}, {"time": 59235, "pitch": 56, "duration": 55, "velocity": 100}, {"time": 59290, "pitch": 63, "duration": 55, "velocity": 100}, {"time": 59345, "pitch": 60, "duration": 55, "velocity": 100}, {"time": 59400, "pitch": 44, "duration": 220, "velocity": 100}, {"time": 59455, "pitch": 51, "duration": 165, "velocity": 100}, {"time": 59510, "pitch": 68, "duration": 165, "velocity": 100}, {"time": 59565, "pitch": 63, "duration": 110, "velocity": 100}, {"time": 59620, "pitch": 44, "duration": 165, "velocity": 100}, {"time": 59675, "pitch": 51, "duration": 55, "velocity": 100}, {"time": 59730, "pitch": 63, "duration": 110, "velocity": 100}, {"time": 59730, "pitch": 68, "duration": 110, "velocity": 100}, {"time": 59785, "pitch": 63, "duration": 55, "velocity": 100}, {"time": 59840, "pitch": 48, "duration": 330, "velocity": 100}, {"time": 59895, "pitch": 56, "duration": 220, "velocity": 100}, {"time": 59950, "pitch": 60, "duration": 110, "velocity": 100}, {"time": 60005, "pitch": 63, "duration": 55, "velocity": 100}, {"time": 60060, "pitch": 68, "duration": 110, "velocity": 100}, {"time": 60060, "pitch": 72, "duration": 220, "velocity": 100}, {"time": 60115, "pitch": 60, "duration": 55, "velocity": 100}, {"time": 60170, "pitch": 63, "duration": 110, "velocity": 100}, {"time": 60225, "pitch": 68, "duration": 55, "velocity": 100}, {"time": 60280, "pitch": 44, "duration": 330, "velocity": 100}, {"time": 60335, "pitch": 51, "duration": 165, "velocity": 100}, {"time": 60390, "pitch": 60, "duration": 110, "velocity": 100}, {"time": 60445, "pitch": 56, "duration": 55, "velocity": 100}, {"time": 60500, "pitch": 60, "duration": 110, "velocity": 100}, {"time": 60500, "pitch": 63, "duration": 220, "velocity": 100}, {"time": 60555, "pitch": 51, "duration": 55, "velocity": 100}, {"time": 60610, "pitch": 56, "duration": 110, "velocity": 100}, {"time": 60665, "pitch": 60, "duration": 55, "velocity": 100}, {"time": 60720, "pitch": 39, "duration": 440, "velocity": 100}, {"time": 60775, "pitch": 51, "duration": 330, "velocity": 100}, {"time": 60830, "pitch": 58, "duration": 55, "velocity": 100}, {"time": 60885, "pitch": 67, "duration": 55, "velocity": 100}, {"time": 60940, "pitch": 75, "duration": 55, "velocity": 100}, {"time": 60995, "pitch": 79, "duration": 55, "velocity": 100}, {"time": 61050, "pitch": 75, "duration": 55, "velocity": 100}, {"time": 61105, "pitch": 67, "duration": 55, "velocity": 100}, {"time": 61160, "pitch": 39, "duration": 330, "velocity": 100}, {"time": 61160, "pitch": 63, "duration": 55, "velocity": 100}, {"time": 61215, "pitch": 46, "duration": 55, "velocity": 100}, {"time": 61270, "pitch": 55, "duration": 110, "velocity": 100}, {"time": 61270, "pitch": 58, "duration": 55, "velocity": 100}, {"time": 61325, "pitch": 55, "duration": 55, "velocity": 100}, {"time": 61325, "pitch": 58, "duration": 55, "velocity": 100}, {"time": 61380, "pitch": 51, "duration": 110, "velocity": 100}, {"time": 61380, "pitch": 63, "duration": 55, "velocity": 100}, {"time": 61380, "pitch": 67, "duration": 55, "velocity": 100}, {"time": 61435, "pitch": 63, "duration": 55, "velocity": 100}, {"time": 61435, "pitch": 67, "duration": 55, "velocity": 100}, {"time": 61490, "pitch": 63, "duration": 110, "velocity": 100}, {"time": 61490, "pitch": 67, "duration": 110, "velocity": 100}, {"time": 61545, "pitch": 58, "duration": 55, "velocity": 100}, {"time": 61600, "pitch": 44, "duration": 385, "velocity": 100}, {"time": 61655, "pitch": 51, "duration": 220, "velocity": 100}, {"time": 61710, "pitch": 56, "duration": 110, "velocity": 100}, {"time": 61710, "pitch": 80, "duration": 55, "velocity": 100}, {"time": 61765, "pitch": 63, "duration": 55, "velocity": 100}, {"time": 61820, "pitch": 72, "duration": 220, "velocity": 100}, {"time": 61820, "pitch": 80, "duration": 110, "velocity": 100}, {"time": 61875, "pitch": 51, "duration": 55, "velocity": 100}, {"time": 61930, "pitch": 63, "duration": 110, "velocity": 100}, {"time": 61930, "pitch": 72, "duration": 110, "velocity": 100}, {"time": 61930, "pitch": 82, "duration": 110, "velocity": 100}, {"time": 61985, "pitch": 51, "duration": 55, "velocity": 100}, {"time": 62040, "pitch": 44, "duration": 275, "velocity": 100}, {"time": 62040, "pitch": 75, "duration": 165, "velocity": 100}, {"time": 62095, "pitch": 51, "duration": 220, "velocity": 100}, {"time": 62150, "pitch": 56, "duration": 110, "velocity": 100}, {"time": 62205, "pitch": 68, "duration": 55, "velocity": 100}, {"time": 62205, "pitch": 72, "duration": 55, "velocity": 100}, {"time": 62260, "pitch": 63, "duration": 110, "velocity": 100}, {"time": 62260, "pitch": 68, "duration": 110, "velocity": 100}, {"time": 62260, "pitch": 72, "duration": 110, "velocity": 100}, {"time": 62315, "pitch": 44, "duration": 55, "velocity": 100}, {"time": 62370, "pitch": 44, "duration": 110, "velocity": 100}, {"time": 62480, "pitch": 44, "duration": 385, "velocity": 100}, {"time": 62535, "pitch": 44, "duration": 385, "velocity": 100}, {"time": 62590, "pitch": 56, "duration": 110, "velocity": 100}, {"time": 62645, "pitch": 60, "duration": 165, "velocity": 100}, {"time": 62700, "pitch": 68, "duration": 275, "velocity": 100}, {"time": 62755, "pitch": 51, "duration": 55, "velocity": 100}, {"time": 62810, "pitch": 60, "duration": 55, "velocity": 100}, {"time": 62810, "pitch": 63, "duration": 110, "velocity": 100}, {"time": 62865, "pitch": 60, "duration": 220, "velocity": 100}, {"time": 62920, "pitch": 44, "duration": 330, "velocity": 100}, {"time": 62975, "pitch": 51, "duration": 220, "velocity": 100}, {"time": 63030, "pitch": 60, "duration": 165, "velocity": 100}, {"time": 63085, "pitch": 63, "duration": 55, "velocity": 100}, {"time": 63140, "pitch": 68, "duration": 220, "velocity": 100}, {"time": 63195, "pitch": 44, "duration": 55, "velocity": 100}, {"time": 63250, "pitch": 63, "duration": 110, "velocity": 100}, {"time": 63305, "pitch": 60, "duration": 55, "velocity": 100}, {"time": 63360, "pitch": 34, "duration": 385, "velocity": 100}, {"time": 63415, "pitch": 46, "duration": 165, "velocity": 100}, {"time": 63470, "pitch": 53, "duration": 110, "velocity": 100}, {"time": 63470, "pitch": 61, "duration": 55, "velocity": 100}, {"time": 63525, "pitch": 53, "duration": 110, "velocity": 100}, {"time": 63580, "pitch": 61, "duration": 110, "velocity": 100}, {"time": 63580, "pitch": 65, "duration": 220, "velocity": 100}, {"time": 63635, "pitch": 46, "duration": 55, "velocity": 100}, {"time": 63690, "pitch": 58, "duration": 110, "velocity": 100}, {"time": 63745, "pitch": 61, "duration": 55, "velocity": 100}, {"time": 63800, "pitch": 34, "duration": 330, "velocity": 100}, {"time": 63855, "pitch": 46, "duration": 55, "velocity": 100}, {"time": 63910, "pitch": 58, "duration": 110, "velocity": 100}, {"time": 63965, "pitch": 46, "duration": 55, "velocity": 100}, {"time": 64020, "pitch": 62, "duration": 110, "velocity": 100}, {"time": 64075, "pitch": 46, "duration": 55, "velocity": 100}, {"time": 64130, "pitch": 58, "duration": 55, "velocity": 100}, {"time": 64185, "pitch": 62, "duration": 55, "velocity": 100}, {"time": 64240, "pitch": 39, "duration": 385, "velocity": 100}, {"time": 64295, "pitch": 51, "duration": 110, "velocity": 100}, {"time": 64350, "pitch": 58, "duration": 55, "velocity": 100}, {"time": 64405, "pitch": 51, "duration": 55, "velocity": 100}, {"time": 64460, "pitch": 63, "duration": 220, "velocity": 100}, {"time": 64515, "pitch": 51, "duration": 165, "velocity": 100}, {"time": 64680, "pitch": 44, "duration": 330, "velocity": 100}, {"time": 64680, "pitch": 63, "duration": 440, "velocity": 100}, {"time": 64680, "pitch": 68, "duration": 440, "velocity": 100}, {"time": 64680, "pitch": 72, "duration": 440, "velocity": 100}, {"time": 65065, "pitch": 84, "duration": 55, "velocity": 100}, {"time": 65120, "pitch": 36, "duration": 440, "velocity": 100}, {"time": 65120, "pitch": 80, "duration": 330, "velocity": 100}, {"time": 65175, "pitch": 44, "duration": 385, "velocity": 100}, {"time": 65230, "pitch": 51, "duration": 110, "velocity": 100}, {"time": 65285, "pitch": 51, "duration": 55, "velocity": 100}, {"time": 65340, "pitch": 60, "duration": 110, "velocity": 100}, {"time": 65395, "pitch": 51, "duration": 55, "velocity": 100}, {"time": 65450, "pitch": 56, "duration": 165, "velocity": 100}, {"time": 65505, "pitch": 60, "duration": 110, "velocity": 100}, {"time": 65560, "pitch": 60, "duration": 165, "velocity": 100}, {"time": 65615, "pitch": 39, "duration": 165, "velocity": 100}, {"time": 65670, "pitch": 56, "duration": 165, "velocity": 100}, {"time": 65725, "pitch": 44, "duration": 55, "velocity": 100}, {"time": 65780, "pitch": 60, "duration": 110, "velocity": 100}, {"time": 65780, "pitch": 63, "duration": 220, "velocity": 100}, {"time": 65835, "pitch": 44, "duration": 55, "velocity": 100}, {"time": 65890, "pitch": 56, "duration": 110, "velocity": 100}, {"time": 65945, "pitch": 56, "duration": 55, "velocity": 100}, {"time": 66000, "pitch": 32, "duration": 385, "velocity": 100}, {"time": 66000, "pitch": 87, "duration": 440, "velocity": 100}, {"time": 66055, "pitch": 44, "duration": 385, "velocity": 100}, {"time": 66110, "pitch": 48, "duration": 110, "velocity": 100}, {"time": 66165, "pitch": 51, "duration": 110, "velocity": 100}, {"time": 66220, "pitch": 60, "duration": 385, "velocity": 100}, {"time": 66220, "pitch": 92, "duration": 220, "velocity": 100}, {"time": 66275, "pitch": 44, "duration": 165, "velocity": 100}, {"time": 66330, "pitch": 56, "duration": 165, "velocity": 100}, {"time": 66330, "pitch": 87, "duration": 110, "velocity": 100}, {"time": 66385, "pitch": 51, "duration": 165, "velocity": 100}, {"time": 66440, "pitch": 32, "duration": 330, "velocity": 100}, {"time": 66440, "pitch": 87, "duration": 110, "velocity": 100}, {"time": 66495, "pitch": 39, "duration": 275, "velocity": 100}, {"time": 66550, "pitch": 44, "duration": 110, "velocity": 100}, {"time": 66550, "pitch": 82, "duration": 55, "velocity": 100}, {"time": 66605, "pitch": 51, "duration": 165, "velocity": 100}, {"time": 66605, "pitch": 84, "duration": 55, "velocity": 100}, {"time": 66660, "pitch": 60, "duration": 220, "velocity": 100}, {"time": 66660, "pitch": 80, "duration": 220, "velocity": 100}, {"time": 66715, "pitch": 44, "duration": 165, "velocity": 100}, {"time": 66770, "pitch": 56, "duration": 55, "velocity": 100}, {"time": 66825, "pitch": 51, "duration": 55, "velocity": 100}, {"time": 66880, "pitch": 41, "duration": 385, "velocity": 100}, {"time": 66935, "pitch": 48, "duration": 165, "velocity": 100}, {"time": 66990, "pitch": 53, "duration": 55, "velocity": 100}, {"time": 67045, "pitch": 56, "duration": 55, "velocity": 100}, {"time": 67100, "pitch": 60, "duration": 220, "velocity": 100}, {"time": 67155, "pitch": 48, "duration": 165, "velocity": 100}, {"time": 67210, "pitch": 56, "duration": 110, "velocity": 100}, {"time": 67265, "pitch": 53, "duration": 55, "velocity": 100}, {"time": 67320, "pitch": 41, "duration": 385, "velocity": 100}, {"time": 67375, "pitch": 48, "duration": 275, "velocity": 100}, {"time": 67430, "pitch": 53, "duration": 110, "velocity": 100}, {"time": 67485, "pitch": 56, "duration": 110, "velocity": 100}, {"time": 67540, "pitch": 60, "duration": 220, "velocity": 100}, {"time": 67595, "pitch": 53, "duration": 55, "velocity": 100}, {"time": 67650, "pitch": 60, "duration": 110, "velocity": 100}, {"time": 67705, "pitch": 56, "duration": 55, "velocity": 100}, {"time": 67760, "pitch": 37, "duration": 385, "velocity": 100}, {"time": 67760, "pitch": 89, "duration": 165, "velocity": 100}, {"time": 67815, "pitch": 44, "duration": 385, "velocity": 100}, {"time": 67870, "pitch": 49, "duration": 110, "velocity": 100}, {"time": 67925, "pitch": 53, "duration": 110, "velocity": 100}, {"time": 67980, "pitch": 61, "duration": 385, "velocity": 100}, {"time": 67980, "pitch": 84, "duration": 110, "velocity": 100}, {"time": 68035, "pitch": 49, "duration": 165, "velocity": 100}, {"time": 68090, "pitch": 56, "duration": 275, "velocity": 100}, {"time": 68090, "pitch": 82, "duration": 110, "velocity": 100}, {"time": 68145, "pitch": 53, "duration": 165, "velocity": 100}, {"time": 68200, "pitch": 37, "duration": 330, "velocity": 100}, {"time": 68200, "pitch": 80, "duration": 110, "velocity": 100}, {"time": 68255, "pitch": 44, "duration": 275, "velocity": 100}, {"time": 68310, "pitch": 49, "duration": 110, "velocity": 100}, {"time": 68310, "pitch": 80, "duration": 55, "velocity": 100}, {"time": 68365, "pitch": 53, "duration": 110, "velocity": 100}, {"time": 68365, "pitch": 80, "duration": 55, "velocity": 100}, {"time": 68420, "pitch": 61, "duration": 220, "velocity": 100}, {"time": 68420, "pitch": 75, "duration": 220, "velocity": 100}, {"time": 68475, "pitch": 49, "duration": 55, "velocity": 100}, {"time": 68530, "pitch": 56, "duration": 55, "velocity": 100}, {"time": 68585, "pitch": 53, "duration": 55, "velocity": 100}, {"time": 68640, "pitch": 39, "duration": 385, "velocity": 100}, {"time": 68695, "pitch": 46, "duration": 385, "velocity": 100}, {"time": 68750, "pitch": 51, "duration": 110, "velocity": 100}, {"time": 68805, "pitch": 55, "duration": 110, "velocity": 100}, {"time": 68860, "pitch": 63, "duration": 220, "velocity": 100}, {"time": 68915, "pitch": 51, "duration": 55, "velocity": 100}, {"time": 68970, "pitch": 55, "duration": 110, "velocity": 100}, {"time": 69025, "pitch": 58, "duration": 55, "velocity": 100}, {"time": 69080, "pitch": 39, "duration": 385, "velocity": 100}, {"time": 69135, "pitch": 46, "duration": 385, "velocity": 100}, {"time": 69190, "pitch": 51, "duration": 165, "velocity": 100}, {"time": 69245, "pitch": 55, "duration": 110, "velocity": 100}, {"time": 69300, "pitch": 58, "duration": 110, "velocity": 100}, {"time": 69300, "pitch": 63, "duration": 110, "velocity": 100}, {"time": 69355, "pitch": 51, "duration": 55, "velocity": 100}, {"time": 69410, "pitch": 55, "duration": 110, "velocity": 100}, {"time": 69465, "pitch": 58, "duration": 55, "velocity": 100}, {"time": 69520, "pitch": 36, "duration": 330, "velocity": 100}, {"time": 69575, "pitch": 48, "duration": 165, "velocity": 100}, {"time": 69630, "pitch": 52, "duration": 110, "velocity": 100}, {"time": 69685, "pitch": 55, "duration": 55, "velocity": 100}, {"time": 69740, "pitch": 60, "duration": 220, "velocity": 100}, {"time": 69795, "pitch": 48, "duration": 55, "velocity": 100}, {"time": 69850, "pitch": 55, "duration": 110, "velocity": 100}, {"time": 69905, "pitch": 52, "duration": 55, "velocity": 100}, {"time": 69960, "pitch": 36, "duration": 330, "velocity": 100}, {"time": 70015, "pitch": 43, "duration": 220, "velocity": 100}, {"time": 70070, "pitch": 48, "duration": 110, "velocity": 100}, {"time": 70125, "pitch": 52, "duration": 55, "velocity": 100}, {"time": 70180, "pitch": 55, "duration": 220, "velocity": 100}, {"time": 70235, "pitch": 43, "duration": 55, "velocity": 100}, {"time": 70290, "pitch": 52, "duration": 110, "velocity": 100}, {"time": 70345, "pitch": 48, "duration": 55, "velocity": 100}, {"time": 70400, "pitch": 34, "duration": 385, "velocity": 100}, {"time": 70455, "pitch": 41, "duration": 385, "velocity": 100}, {"time": 70510, "pitch": 46, "duration": 110, "velocity": 100}, {"time": 70565, "pitch": 53, "duration": 110, "velocity": 100}, {"time": 70620, "pitch": 61, "duration": 165, "velocity": 100}, {"time": 70675, "pitch": 46, "duration": 165, "velocity": 100}, {"time": 70730, "pitch": 58, "duration": 110, "velocity": 100}, {"time": 70785, "pitch": 53, "duration": 55, "velocity": 100}, {"time": 70840, "pitch": 34, "duration": 330, "velocity": 100}, {"time": 70840, "pitch": 53, "duration": 110, "velocity": 100}, {"time": 70840, "pitch": 58, "duration": 220, "velocity": 100}, {"time": 70840, "pitch": 61, "duration": 220, "velocity": 100}, {"time": 70895, "pitch": 41, "duration": 275, "velocity": 100}, {"time": 70950, "pitch": 46, "duration": 110, "velocity": 100}, {"time": 71060, "pitch": 65, "duration": 220, "velocity": 100}, {"time": 71115, "pitch": 46, "duration": 55, "velocity": 100}, {"time": 71170, "pitch": 58, "duration": 110, "velocity": 100}, {"time": 71280, "pitch": 39, "duration": 440, "velocity": 100}, {"time": 71335, "pitch": 46, "duration": 385, "velocity": 100}, {"time": 71390, "pitch": 51, "duration": 110, "velocity": 100}, {"time": 71445, "pitch": 58, "duration": 110, "velocity": 100}, {"time": 71500, "pitch": 67, "duration": 275, "velocity": 100}, {"time": 71500, "pitch": 87, "duration": 55, "velocity": 100}, {"time": 71555, "pitch": 51, "duration": 165, "velocity": 100}, {"time": 71555, "pitch": 84, "duration": 55, "velocity": 100}, {"time": 71610, "pitch": 65, "duration": 110, "velocity": 100}, {"time": 71610, "pitch": 84, "duration": 55, "velocity": 100}, {"time": 71665, "pitch": 58, "duration": 165, "velocity": 100}, {"time": 71665, "pitch": 65, "duration": 220, "velocity": 100}, {"time": 71665, "pitch": 84, "duration": 55, "velocity": 100}, {"time": 71720, "pitch": 39, "duration": 385, "velocity": 100}, {"time": 71720, "pitch": 82, "duration": 55, "velocity": 100}, {"time": 71775, "pitch": 46, "duration": 275, "velocity": 100}, {"time": 71775, "pitch": 82, "duration": 55, "velocity": 100}, {"time": 71830, "pitch": 51, "duration": 110, "velocity": 100}, {"time": 71830, "pitch": 82, "duration": 55, "velocity": 100}, {"time": 71885, "pitch": 58, "duration": 55, "velocity": 100}, {"time": 71885, "pitch": 84, "duration": 55, "velocity": 100}, {"time": 71940, "pitch": 67, "duration": 220, "velocity": 100}, {"time": 71940, "pitch": 79, "duration": 220, "velocity": 100}, {"time": 71995, "pitch": 51, "duration": 55, "velocity": 100}, {"time": 72050, "pitch": 65, "duration": 110, "velocity": 100}, {"time": 72105, "pitch": 63, "duration": 55, "velocity": 100}, {"time": 72160, "pitch": 32, "duration": 660, "velocity": 100}, {"time": 72160, "pitch": 84, "duration": 880, "velocity": 100}, {"time": 72215, "pitch": 39, "duration": 385, "velocity": 100}, {"time": 72270, "pitch": 44, "duration": 110, "velocity": 100}, {"time": 72325, "pitch": 48, "duration": 55, "velocity": 100}, {"time": 72380, "pitch": 51, "duration": 110, "velocity": 100}, {"time": 72435, "pitch": 44, "duration": 55, "velocity": 100}, {"time": 72490, "pitch": 48, "duration": 165, "velocity": 100}, {"time": 72545, "pitch": 51, "duration": 110, "velocity": 100}, {"time": 72600, "pitch": 51, "duration": 110, "velocity": 100}, {"time": 72655, "pitch": 39, "duration": 165, "velocity": 100}, {"time": 72710, "pitch": 48, "duration": 165, "velocity": 100}, {"time": 72765, "pitch": 39, "duration": 55, "velocity": 100}, {"time": 72820, "pitch": 51, "duration": 110, "velocity": 100}, {"time": 72820, "pitch": 56, "duration": 220, "velocity": 100}, {"time": 72820, "pitch": 82, "duration": 220, "velocity": 100}, {"time": 72875, "pitch": 44, "duration": 55, "velocity": 100}, {"time": 72930, "pitch": 48, "duration": 110, "velocity": 100}, {"time": 72985, "pitch": 51, "duration": 55, "velocity": 100}, {"time": 73040, "pitch": 32, "duration": 385, "velocity": 100}, {"time": 73040, "pitch": 80, "duration": 880, "velocity": 100}, {"time": 73095, "pitch": 39, "duration": 385, "velocity": 100}, {"time": 73150, "pitch": 44, "duration": 110, "velocity": 100}, {"time": 73205, "pitch": 44, "duration": 110, "velocity": 100}, {"time": 73260, "pitch": 51, "duration": 385, "velocity": 100}, {"time": 73315, "pitch": 44, "duration": 165, "velocity": 100}, {"time": 73370, "pitch": 48, "duration": 165, "velocity": 100}, {"time": 73425, "pitch": 44, "duration": 165, "velocity": 100}, {"time": 73480, "pitch": 32, "duration": 330, "velocity": 100}, {"time": 73535, "pitch": 39, "duration": 275, "velocity": 100}, {"time": 73590, "pitch": 44, "duration": 110, "velocity": 100}, {"time": 73645, "pitch": 44, "duration": 165, "velocity": 100}, {"time": 73700, "pitch": 51, "duration": 220, "velocity": 100}, {"time": 73755, "pitch": 44, "duration": 165, "velocity": 100}, {"time": 73810, "pitch": 48, "duration": 55, "velocity": 100}, {"time": 73865, "pitch": 44, "duration": 55, "velocity": 100}, {"time": 73920, "pitch": 34, "duration": 385, "velocity": 100}, {"time": 73920, "pitch": 77, "duration": 440, "velocity": 100}, {"time": 73975, "pitch": 41, "duration": 220, "velocity": 100}, {"time": 74030, "pitch": 46, "duration": 55, "velocity": 100}, {"time": 74085, "pitch": 44, "duration": 55, "velocity": 100}, {"time": 74140, "pitch": 53, "duration": 220, "velocity": 100}, {"time": 74195, "pitch": 41, "duration": 165, "velocity": 100}, {"time": 74250, "pitch": 49, "duration": 110, "velocity": 100}, {"time": 74305, "pitch": 44, "duration": 55, "velocity": 100}, {"time": 74360, "pitch": 34, "duration": 385, "velocity": 100}, {"time": 74415, "pitch": 41, "duration": 275, "velocity": 100}, {"time": 74470, "pitch": 44, "duration": 110, "velocity": 100}, {"time": 74525, "pitch": 46, "duration": 110, "velocity": 100}, {"time": 74580, "pitch": 53, "duration": 220, "velocity": 100}, {"time": 74635, "pitch": 44, "duration": 55, "velocity": 100}, {"time": 74690, "pitch": 53, "duration": 110, "velocity": 100}, {"time": 74745, "pitch": 46, "duration": 55, "velocity": 100}, {"time": 74800, "pitch": 34, "duration": 385, "velocity": 100}, {"time": 74800, "pitch": 75, "duration": 660, "velocity": 100}, {"time": 74855, "pitch": 41, "duration": 165, "velocity": 100}, {"time": 74910, "pitch": 41, "duration": 330, "velocity": 100}, {"time": 74965, "pitch": 44, "duration": 110, "velocity": 100}, {"time": 75020, "pitch": 53, "duration": 385, "velocity": 100}, {"time": 75075, "pitch": 41, "duration": 165, "velocity": 100}, {"time": 75130, "pitch": 49, "duration": 275, "velocity": 100}, {"time": 75185, "pitch": 46, "duration": 165, "velocity": 100}, {"time": 75240, "pitch": 34, "duration": 330, "velocity": 100}, {"time": 75295, "pitch": 41, "duration": 165, "velocity": 100}, {"time": 75350, "pitch": 41, "duration": 220, "velocity": 100}, {"time": 75405, "pitch": 44, "duration": 165, "velocity": 100}, {"time": 75460, "pitch": 53, "duration": 220, "velocity": 100}, {"time": 75515, "pitch": 41, "duration": 55, "velocity": 100}, {"time": 75570, "pitch": 49, "duration": 55, "velocity": 100}, {"time": 75625, "pitch": 44, "duration": 55, "velocity": 100}, {"time": 75680, "pitch": 34, "duration": 385, "velocity": 100}, {"time": 75735, "pitch": 41, "duration": 385, "velocity": 100}, {"time": 75790, "pitch": 46, "duration": 110, "velocity": 100}, {"time": 75845, "pitch": 49, "duration": 110, "velocity": 100}, {"time": 75900, "pitch": 53, "duration": 220, "velocity": 100}, {"time": 75955, "pitch": 46, "duration": 55, "velocity": 100}, {"time": 76010, "pitch": 49, "duration": 110, "velocity": 100}, {"time": 76065, "pitch": 49, "duration": 55, "velocity": 100}, {"time": 76120, "pitch": 34, "duration": 385, "velocity": 100}, {"time": 76120, "pitch": 82, "duration": 880, "velocity": 100}, {"time": 76175, "pitch": 41, "duration": 385, "velocity": 100}, {"time": 76230, "pitch": 46, "duration": 165, "velocity": 100}, {"time": 76285, "pitch": 49, "duration": 110, "velocity": 100}, {"time": 76340, "pitch": 53, "duration": 110, "velocity": 100}, {"time": 76395, "pitch": 46, "duration": 55, "velocity": 100}, {"time": 76450, "pitch": 49, "duration": 110, "velocity": 100}, {"time": 76505, "pitch": 53, "duration": 55, "velocity": 100}, {"time": 76560, "pitch": 34, "duration": 330, "velocity": 100}, {"time": 76615, "pitch": 41, "duration": 220, "velocity": 100}, {"time": 76670, "pitch": 46, "duration": 110, "velocity": 100}, {"time": 76725, "pitch": 49, "duration": 55, "velocity": 100}, {"time": 76780, "pitch": 53, "duration": 220, "velocity": 100}, {"time": 76835, "pitch": 41, "duration": 55, "velocity": 100}, {"time": 76890, "pitch": 49, "duration": 110, "velocity": 100}, {"time": 76945, "pitch": 46, "duration": 55, "velocity": 100}, {"time": 77000, "pitch": 34, "duration": 330, "velocity": 100}, {"time": 77000, "pitch": 85, "duration": 385, "velocity": 100}, {"time": 77055, "pitch": 41, "duration": 165, "velocity": 100}, {"time": 77110, "pitch": 41, "duration": 110, "velocity": 100}, {"time": 77165, "pitch": 46, "duration": 55, "velocity": 100}, {"time": 77220, "pitch": 49, "duration": 220, "velocity": 100}, {"time": 77275, "pitch": 41, "duration": 55, "velocity": 100}, {"time": 77330, "pitch": 46, "duration": 110, "velocity": 100}, {"time": 77385, "pitch": 46, "duration": 55, "velocity": 100}, {"time": 77440, "pitch": 34, "duration": 385, "velocity": 100}, {"time": 77495, "pitch": 41, "duration": 165, "velocity": 100}, {"time": 77550, "pitch": 41, "duration": 165, "velocity": 100}, {"time": 77605, "pitch": 41, "duration": 275, "velocity": 100}, {"time": 77660, "pitch": 50, "duration": 220, "velocity": 100}, {"time": 77715, "pitch": 41, "duration": 165, "velocity": 100}, {"time": 77770, "pitch": 41, "duration": 165, "velocity": 100}, {"time": 77825, "pitch": 46, "duration": 55, "velocity": 100}, {"time": 77880, "pitch": 34, "duration": 330, "velocity": 100}, {"time": 77880, "pitch": 82, "duration": 440, "velocity": 100}, {"time": 77935, "pitch": 41, "duration": 165, "velocity": 100}, {"time": 77990, "pitch": 41, "duration": 165, "velocity": 100}, {"time": 78045, "pitch": 41, "duration": 110, "velocity": 100}, {"time": 78100, "pitch": 50, "duration": 220, "velocity": 100}, {"time": 78155, "pitch": 41, "duration": 55, "velocity": 100}, {"time": 78210, "pitch": 46, "duration": 110, "velocity": 100}, {"time": 78265, "pitch": 41, "duration": 55, "velocity": 100}, {"time": 78320, "pitch": 27, "duration": 385, "velocity": 100}, {"time": 78320, "pitch": 82, "duration": 880, "velocity": 100}, {"time": 78375, "pitch": 34, "duration": 385, "velocity": 100}, {"time": 78430, "pitch": 39, "duration": 110, "velocity": 100}, {"time": 78485, "pitch": 43, "duration": 110, "velocity": 100}, {"time": 78540, "pitch": 51, "duration": 220, "velocity": 100}, {"time": 78595, "pitch": 39, "duration": 165, "velocity": 100}, {"time": 78650, "pitch": 43, "duration": 165, "velocity": 100}, {"time": 78705, "pitch": 46, "duration": 110, "velocity": 100}, {"time": 78760, "pitch": 27, "duration": 275, "velocity": 100}, {"time": 78760, "pitch": 77, "duration": 220, "velocity": 100}, {"time": 78815, "pitch": 34, "duration": 275, "velocity": 100}, {"time": 78870, "pitch": 39, "duration": 165, "velocity": 100}, {"time": 78925, "pitch": 43, "duration": 110, "velocity": 100}, {"time": 78980, "pitch": 51, "duration": 220, "velocity": 100}, {"time": 78980, "pitch": 75, "duration": 220, "velocity": 100}, {"time": 79035, "pitch": 39, "duration": 55, "velocity": 100}, {"time": 79090, "pitch": 43, "duration": 110, "velocity": 100}, {"time": 79145, "pitch": 46, "duration": 55, "velocity": 100}, {"time": 79200, "pitch": 32, "duration": 385, "velocity": 100}, {"time": 79255, "pitch": 44, "duration": 110, "velocity": 100}, {"time": 79310, "pitch": 51, "duration": 165, "velocity": 100}, {"time": 79365, "pitch": 44, "duration": 55, "velocity": 100}, {"time": 79420, "pitch": 56, "duration": 110, "velocity": 100}, {"time": 79420, "pitch": 60, "duration": 220, "velocity": 100}, {"time": 79475, "pitch": 44, "duration": 55, "velocity": 100}, {"time": 79530, "pitch": 48, "duration": 110, "velocity": 100}, {"time": 79585, "pitch": 56, "duration": 55, "velocity": 100}, {"time": 79640, "pitch": 32, "duration": 275, "velocity": 100}, {"time": 79695, "pitch": 44, "duration": 55, "velocity": 100}, {"time": 79750, "pitch": 51, "duration": 110, "velocity": 100}, {"time": 79805, "pitch": 44, "duration": 55, "velocity": 100}, {"time": 79860, "pitch": 56, "duration": 110, "velocity": 100}, {"time": 79915, "pitch": 44, "duration": 55, "velocity": 100}, {"time": 79970, "pitch": 51, "duration": 55, "velocity": 100}, {"time": 80025, "pitch": 56, "duration": 55, "velocity": 100}, {"time": 80080, "pitch": 34, "duration": 330, "velocity": 100}, {"time": 80135, "pitch": 46, "duration": 110, "velocity": 100}, {"time": 80190, "pitch": 53, "duration": 110, "velocity": 100}, {"time": 80245, "pitch": 44, "duration": 55, "velocity": 100}, {"time": 80300, "pitch": 56, "duration": 110, "velocity": 100}, {"time": 80355, "pitch": 46, "duration": 165, "velocity": 100}, {"time": 80410, "pitch": 61, "duration": 550, "velocity": 100}, {"time": 80465, "pitch": 65, "duration": 495, "velocity": 100}, {"time": 80520, "pitch": 34, "duration": 275, "velocity": 100}, {"time": 80520, "pitch": 56, "duration": 440, "velocity": 100}, {"time": 80960, "pitch": 32, "duration": 220, "velocity": 100}, {"time": 81015, "pitch": 51, "duration": 55, "velocity": 100}, {"time": 81015, "pitch": 58, "duration": 55, "velocity": 100}, {"time": 81070, "pitch": 58, "duration": 110, "velocity": 100}, {"time": 81070, "pitch": 63, "duration": 110, "velocity": 100}, {"time": 81125, "pitch": 56, "duration": 55, "velocity": 100}, {"time": 81180, "pitch": 32, "duration": 110, "velocity": 100}, {"time": 81180, "pitch": 68, "duration": 110, "velocity": 100}, {"time": 81290, "pitch": 58, "duration": 110, "velocity": 100}, {"time": 81345, "pitch": 58, "duration": 55, "velocity": 100}, {"time": 81345, "pitch": 66, "duration": 55, "velocity": 100}, {"time": 81400, "pitch": 32, "duration": 330, "velocity": 100}, {"time": 81400, "pitch": 65, "duration": 55, "velocity": 100}, {"time": 81455, "pitch": 44, "duration": 165, "velocity": 100}, {"time": 81455, "pitch": 70, "duration": 55, "velocity": 100}, {"time": 81510, "pitch": 51, "duration": 110, "velocity": 100}, {"time": 81510, "pitch": 68, "duration": 55, "velocity": 100}, {"time": 81565, "pitch": 44, "duration": 55, "velocity": 100}, {"time": 81620, "pitch": 56, "duration": 220, "velocity": 100}, {"time": 81675, "pitch": 44, "duration": 55, "velocity": 100}, {"time": 81730, "pitch": 51, "duration": 110, "velocity": 100}, {"time": 81785, "pitch": 48, "duration": 55, "velocity": 100}, {"time": 81840, "pitch": 32, "duration": 440, "velocity": 100}, {"time": 81895, "pitch": 39, "duration": 385, "velocity": 100}, {"time": 81950, "pitch": 44, "duration": 110, "velocity": 100}, {"time": 81950, "pitch": 68, "duration": 55, "velocity": 100}, {"time": 82005, "pitch": 48, "duration": 275, "velocity": 100}, {"time": 82005, "pitch": 75, "duration": 55, "velocity": 100}, {"time": 82060, "pitch": 56, "duration": 165, "velocity": 100}, {"time": 82060, "pitch": 75, "duration": 110, "velocity": 100}, {"time": 82115, "pitch": 44, "duration": 55, "velocity": 100}, {"time": 82170, "pitch": 56, "duration": 110, "velocity": 100}, {"time": 82225, "pitch": 32, "duration": 495, "velocity": 100}, {"time": 82225, "pitch": 68, "duration": 55, "velocity": 100}, {"time": 82280, "pitch": 32, "duration": 440, "velocity": 100}, {"time": 82280, "pitch": 44, "duration": 440, "velocity": 100}, {"time": 82280, "pitch": 51, "duration": 440, "velocity": 100}, {"time": 82280, "pitch": 60, "duration": 440, "velocity": 100}, {"time": 82280, "pitch": 63, "duration": 440, "velocity": 100}, {"time": 82720, "pitch": 46, "duration": 55, "velocity": 100}, {"time": 82775, "pitch": 46, "duration": 165, "velocity": 100}, {"time": 82830, "pitch": 49, "duration": 110, "velocity": 100}, {"time": 82885, "pitch": 53, "duration": 165, "velocity": 100}, {"time": 82940, "pitch": 61, "duration": 220, "velocity": 100}, {"time": 83050, "pitch": 58, "duration": 110, "velocity": 100}, {"time": 83160, "pitch": 34, "duration": 275, "velocity": 100}, {"time": 83215, "pitch": 41, "duration": 220, "velocity": 100}, {"time": 83270, "pitch": 46, "duration": 110, "velocity": 100}, {"time": 83325, "pitch": 53, "duration": 165, "velocity": 100}, {"time": 83380, "pitch": 61, "duration": 220, "velocity": 100}, {"time": 83435, "pitch": 46, "duration": 55, "velocity": 100}, {"time": 83490, "pitch": 58, "duration": 110, "velocity": 100}, {"time": 83600, "pitch": 34, "duration": 330, "velocity": 100}, {"time": 83655, "pitch": 46, "duration": 275, "velocity": 100}, {"time": 83710, "pitch": 53, "duration": 165, "velocity": 100}, {"time": 83765, "pitch": 58, "duration": 165, "velocity": 100}, {"time": 83820, "pitch": 65, "duration": 220, "velocity": 100}, {"time": 83875, "pitch": 53, "duration": 55, "velocity": 100}, {"time": 83930, "pitch": 61, "duration": 110, "velocity": 100}, {"time": 83985, "pitch": 58, "duration": 55, "velocity": 100}, {"time": 84040, "pitch": 34, "duration": 330, "velocity": 100}, {"time": 84095, "pitch": 41, "duration": 220, "velocity": 100}, {"time": 84150, "pitch": 46, "duration": 110, "velocity": 100}, {"time": 84205, "pitch": 49, "duration": 55, "velocity": 100}, {"time": 84260, "pitch": 53, "duration": 220, "velocity": 100}, {"time": 84260, "pitch": 61, "duration": 220, "velocity": 100}, {"time": 84370, "pitch": 53, "duration": 110, "velocity": 100}, {"time": 84480, "pitch": 46, "duration": 330, "velocity": 100}, {"time": 84535, "pitch": 49, "duration": 275, "velocity": 100}, {"time": 84590, "pitch": 53, "duration": 110, "velocity": 100}, {"time": 84645, "pitch": 61, "duration": 275, "velocity": 100}, {"time": 84645, "pitch": 65, "duration": 275, "velocity": 100}, {"time": 84755, "pitch": 53, "duration": 55, "velocity": 100}, {"time": 84810, "pitch": 61, "duration": 220, "velocity": 100}, {"time": 84920, "pitch": 34, "duration": 330, "velocity": 100}, {"time": 84975, "pitch": 41, "duration": 275, "velocity": 100}, {"time": 85030, "pitch": 46, "duration": 110, "velocity": 100}, {"time": 85085, "pitch": 53, "duration": 275, "velocity": 100}, {"time": 85140, "pitch": 61, "duration": 220, "velocity": 100}, {"time": 85195, "pitch": 46, "duration": 55, "velocity": 100}, {"time": 85250, "pitch": 58, "duration": 110, "velocity": 100}, {"time": 85360, "pitch": 34, "duration": 330, "velocity": 100}, {"time": 85415, "pitch": 46, "duration": 165, "velocity": 100}, {"time": 85470, "pitch": 49, "duration": 110, "velocity": 100}, {"time": 85525, "pitch": 58, "duration": 275, "velocity": 100}, {"time": 85580, "pitch": 53, "duration": 110, "velocity": 100}, {"time": 85635, "pitch": 46, "duration": 55, "velocity": 100}, {"time": 85690, "pitch": 53, "duration": 110, "velocity": 100}, {"time": 85745, "pitch": 58, "duration": 55, "velocity": 100}, {"time": 85800, "pitch": 34, "duration": 330, "velocity": 100}, {"time": 85855, "pitch": 41, "duration": 275, "velocity": 100}, {"time": 85910, "pitch": 46, "duration": 165, "velocity": 100}, {"time": 85965, "pitch": 53, "duration": 55, "velocity": 100}, {"time": 85965, "pitch": 58, "duration": 55, "velocity": 100}, {"time": 85965, "pitch": 61, "duration": 55, "velocity": 100}, {"time": 86020, "pitch": 58, "duration": 220, "velocity": 100}, {"time": 86075, "pitch": 46, "duration": 55, "velocity": 100}, {"time": 86130, "pitch": 49, "duration": 110, "velocity": 100}, {"time": 86185, "pitch": 58, "duration": 55, "velocity": 100}, {"time": 86240, "pitch": 37, "duration": 385, "velocity": 100}, {"time": 86240, "pitch": 85, "duration": 440, "velocity": 100}, {"time": 86295, "pitch": 56, "duration": 165, "velocity": 100}, {"time": 86350, "pitch": 61, "duration": 110, "velocity": 100}, {"time": 86405, "pitch": 56, "duration": 110, "velocity": 100}, {"time": 86460, "pitch": 65, "duration": 220, "velocity": 100}, {"time": 86515, "pitch": 56, "duration": 55, "velocity": 100}, {"time": 86570, "pitch": 61, "duration": 55, "velocity": 100}, {"time": 86570, "pitch": 84, "duration": 110, "velocity": 100}, {"time": 86625, "pitch": 56, "duration": 55, "velocity": 100}, {"time": 86680, "pitch": 44, "duration": 330, "velocity": 100}, {"time": 86680, "pitch": 82, "duration": 220, "velocity": 100}, {"time": 86735, "pitch": 56, "duration": 165, "velocity": 100}, {"time": 86790, "pitch": 56, "duration": 110, "velocity": 100}, {"time": 86790, "pitch": 61, "duration": 55, "velocity": 100}, {"time": 86845, "pitch": 56, "duration": 110, "velocity": 100}, {"time": 86900, "pitch": 65, "duration": 110, "velocity": 100}, {"time": 86900, "pitch": 80, "duration": 165, "velocity": 100}, {"time": 86955, "pitch": 56, "duration": 55, "velocity": 100}, {"time": 87010, "pitch": 44, "duration": 110, "velocity": 100}, {"time": 87065, "pitch": 61, "duration": 55, "velocity": 100}, {"time": 87120, "pitch": 37, "duration": 385, "velocity": 100}, {"time": 87120, "pitch": 82, "duration": 440, "velocity": 100}, {"time": 87175, "pitch": 44, "duration": 220, "velocity": 100}, {"time": 87230, "pitch": 61, "duration": 110, "velocity": 100}, {"time": 87285, "pitch": 49, "duration": 55, "velocity": 100}, {"time": 87340, "pitch": 65, "duration": 165, "velocity": 100}, {"time": 87395, "pitch": 49, "duration": 55, "velocity": 100}, {"time": 87450, "pitch": 61, "duration": 55, "velocity": 100}, {"time": 87505, "pitch": 61, "duration": 55, "velocity": 100}, {"time": 87560, "pitch": 37, "duration": 220, "velocity": 100}, {"time": 87615, "pitch": 49, "duration": 55, "velocity": 100}, {"time": 87670, "pitch": 65, "duration": 165, "velocity": 100}, {"time": 87725, "pitch": 61, "duration": 110, "velocity": 100}, {"time": 87780, "pitch": 37, "duration": 165, "velocity": 100}, {"time": 87835, "pitch": 49, "duration": 110, "velocity": 100}, {"time": 87890, "pitch": 61, "duration": 110, "velocity": 100}, {"time": 87890, "pitch": 65, "duration": 110, "velocity": 100}, {"time": 87945, "pitch": 61, "duration": 55, "velocity": 100}, {"time": 88000, "pitch": 49, "duration": 330, "velocity": 100}, {"time": 88055, "pitch": 56, "duration": 220, "velocity": 100}, {"time": 88110, "pitch": 61, "duration": 110, "velocity": 100}, {"time": 88165, "pitch": 65, "duration": 55, "velocity": 100}, {"time": 88220, "pitch": 68, "duration": 110, "velocity": 100}, {"time": 88220, "pitch": 70, "duration": 220, "velocity": 100}, {"time": 88275, "pitch": 56, "duration": 55, "velocity": 100}, {"time": 88330, "pitch": 63, "duration": 110, "velocity": 100}, {"time": 88385, "pitch": 65, "duration": 55, "velocity": 100}, {"time": 88440, "pitch": 37, "duration": 330, "velocity": 100}, {"time": 88495, "pitch": 49, "duration": 165, "velocity": 100}, {"time": 88550, "pitch": 56, "duration": 110, "velocity": 100}, {"time": 88605, "pitch": 53, "duration": 55, "velocity": 100}, {"time": 88660, "pitch": 56, "duration": 110, "velocity": 100}, {"time": 88660, "pitch": 65, "duration": 220, "velocity": 100}, {"time": 88715, "pitch": 49, "duration": 55, "velocity": 100}, {"time": 88770, "pitch": 56, "duration": 110, "velocity": 100}, {"time": 88825, "pitch": 56, "duration": 55, "velocity": 100}, {"time": 88880, "pitch": 37, "duration": 385, "velocity": 100}, {"time": 88935, "pitch": 49, "duration": 330, "velocity": 100}, {"time": 88990, "pitch": 56, "duration": 55, "velocity": 100}, {"time": 89045, "pitch": 65, "duration": 55, "velocity": 100}, {"time": 89100, "pitch": 73, "duration": 55, "velocity": 100}, {"time": 89155, "pitch": 80, "duration": 55, "velocity": 100}, {"time": 89210, "pitch": 73, "duration": 55, "velocity": 100}, {"time": 89265, "pitch": 68, "duration": 55, "velocity": 100}, {"time": 89320, "pitch": 37, "duration": 330, "velocity": 100}, {"time": 89320, "pitch": 61, "duration": 55, "velocity": 100}, {"time": 89375, "pitch": 44, "duration": 275, "velocity": 100}, {"time": 89430, "pitch": 53, "duration": 55, "velocity": 100}, {"time": 89430, "pitch": 56, "duration": 55, "velocity": 100}, {"time": 89485, "pitch": 53, "duration": 55, "velocity": 100}, {"time": 89485, "pitch": 56, "duration": 55, "velocity": 100}, {"time": 89540, "pitch": 49, "duration": 110, "velocity": 100}, {"time": 89540, "pitch": 61, "duration": 55, "velocity": 100}, {"time": 89540, "pitch": 65, "duration": 55, "velocity": 100}, {"time": 89595, "pitch": 61, "duration": 55, "velocity": 100}, {"time": 89595, "pitch": 65, "duration": 55, "velocity": 100}, {"time": 89650, "pitch": 61, "duration": 110, "velocity": 100}, {"time": 89650, "pitch": 65, "duration": 110, "velocity": 100}, {"time": 89705, "pitch": 56, "duration": 55, "velocity": 100}, {"time": 89760, "pitch": 41, "duration": 385, "velocity": 100}, {"time": 89815, "pitch": 49, "duration": 220, "velocity": 100}, {"time": 89870, "pitch": 56, "duration": 110, "velocity": 100}, {"time": 89870, "pitch": 77, "duration": 55, "velocity": 100}, {"time": 89925, "pitch": 61, "duration": 55, "velocity": 100}, {"time": 89980, "pitch": 68, "duration": 110, "velocity": 100}, {"time": 89980, "pitch": 77, "duration": 110, "velocity": 100}, {"time": 90035, "pitch": 49, "duration": 55, "velocity": 100}, {"time": 90090, "pitch": 61, "duration": 110, "velocity": 100}, {"time": 90090, "pitch": 68, "duration": 110, "velocity": 100}, {"time": 90090, "pitch": 78, "duration": 110, "velocity": 100}, {"time": 90145, "pitch": 49, "duration": 55, "velocity": 100}, {"time": 90200, "pitch": 37, "duration": 275, "velocity": 100}, {"time": 90200, "pitch": 73, "duration": 220, "velocity": 100}, {"time": 90255, "pitch": 44, "duration": 220, "velocity": 100}, {"time": 90310, "pitch": 49, "duration": 110, "velocity": 100}, {"time": 90365, "pitch": 65, "duration": 55, "velocity": 100}, {"time": 90365, "pitch": 68, "duration": 55, "velocity": 100}, {"time": 90420, "pitch": 61, "duration": 110, "velocity": 100}, {"time": 90420, "pitch": 65, "duration": 110, "velocity": 100}, {"time": 90420, "pitch": 68, "duration": 110, "velocity": 100}, {"time": 90475, "pitch": 44, "duration": 55, "velocity": 100}, {"time": 90530, "pitch": 37, "duration": 110, "velocity": 100}, {"time": 90640, "pitch": 37, "duration": 385, "velocity": 100}, {"time": 90695, "pitch": 44, "duration": 385, "velocity": 100}, {"time": 90750, "pitch": 49, "duration": 110, "velocity": 100}, {"time": 90805, "pitch": 61, "duration": 165, "velocity": 100}, {"time": 90860, "pitch": 65, "duration": 275, "velocity": 100}, {"time": 90915, "pitch": 49, "duration": 55, "velocity": 100}, {"time": 90970, "pitch": 61, "duration": 110, "velocity": 100}, {"time": 91025, "pitch": 56, "duration": 165, "velocity": 100}, {"time": 91080, "pitch": 37, "duration": 330, "velocity": 100}, {"time": 91135, "pitch": 44, "duration": 220, "velocity": 100}, {"time": 91190, "pitch": 56, "duration": 165, "velocity": 100}, {"time": 91245, "pitch": 61, "duration": 55, "velocity": 100}, {"time": 91300, "pitch": 65, "duration": 220, "velocity": 100}, {"time": 91355, "pitch": 44, "duration": 55, "velocity": 100}, {"time": 91410, "pitch": 61, "duration": 110, "velocity": 100}, {"time": 91465, "pitch": 61, "duration": 55, "velocity": 100}, {"time": 91520, "pitch": 37, "duration": 385, "velocity": 100}, {"time": 91575, "pitch": 44, "duration": 165, "velocity": 100}, {"time": 91630, "pitch": 56, "duration": 110, "velocity": 100}, {"time": 91685, "pitch": 49, "duration": 110, "velocity": 100}, {"time": 91740, "pitch": 59, "duration": 110, "velocity": 100}, {"time": 91740, "pitch": 61, "duration": 220, "velocity": 100}, {"time": 91795, "pitch": 49, "duration": 55, "velocity": 100}, {"time": 91850, "pitch": 56, "duration": 110, "velocity": 100}, {"time": 91905, "pitch": 59, "duration": 55, "velocity": 100}, {"time": 91960, "pitch": 37, "duration": 330, "velocity": 100}, {"time": 92015, "pitch": 44, "duration": 55, "velocity": 100}, {"time": 92070, "pitch": 56, "duration": 110, "velocity": 100}, {"time": 92125, "pitch": 47, "duration": 55, "velocity": 100}, {"time": 92180, "pitch": 59, "duration": 110, "velocity": 100}, {"time": 92235, "pitch": 49, "duration": 55, "velocity": 100}, {"time": 92290, "pitch": 56, "duration": 55, "velocity": 100}, {"time": 92345, "pitch": 59, "duration": 55, "velocity": 100}, {"time": 92400, "pitch": 37, "duration": 385, "velocity": 100}, {"time": 92455, "pitch": 49, "duration": 55, "velocity": 100}, {"time": 92510, "pitch": 56, "duration": 110, "velocity": 100}, {"time": 92565, "pitch": 49, "duration": 110, "velocity": 100}, {"time": 92620, "pitch": 61, "duration": 220, "velocity": 100}, {"time": 92675, "pitch": 49, "duration": 165, "velocity": 100}, {"time": 92840, "pitch": 37, "duration": 440, "velocity": 100}, {"time": 92840, "pitch": 61, "duration": 440, "velocity": 100}, {"time": 92840, "pitch": 65, "duration": 440, "velocity": 100}, {"time": 92840, "pitch": 68, "duration": 440, "velocity": 100}, {"time": 93225, "pitch": 83, "duration": 55, "velocity": 100}, {"time": 93280, "pitch": 34, "duration": 385, "velocity": 100}, {"time": 93335, "pitch": 43, "duration": 275, "velocity": 100}, {"time": 93390, "pitch": 49, "duration": 110, "velocity": 100}, {"time": 93445, "pitch": 55, "duration": 55, "velocity": 100}, {"time": 93500, "pitch": 61, "duration": 220, "velocity": 100}, {"time": 93555, "pitch": 43, "duration": 165, "velocity": 100}, {"time": 93610, "pitch": 58, "duration": 55, "velocity": 100}, {"time": 93610, "pitch": 61, "duration": 165, "velocity": 100}, {"time": 93665, "pitch": 55, "duration": 165, "velocity": 100}, {"time": 93720, "pitch": 31, "duration": 330, "velocity": 100}, {"time": 93775, "pitch": 43, "duration": 220, "velocity": 100}, {"time": 93830, "pitch": 55, "duration": 165, "velocity": 100}, {"time": 93885, "pitch": 58, "duration": 55, "velocity": 100}, {"time": 93940, "pitch": 61, "duration": 220, "velocity": 100}, {"time": 93995, "pitch": 43, "duration": 55, "velocity": 100}, {"time": 94050, "pitch": 58, "duration": 110, "velocity": 100}, {"time": 94105, "pitch": 55, "duration": 55, "velocity": 100}, {"time": 94160, "pitch": 31, "duration": 385, "velocity": 100}, {"time": 94215, "pitch": 43, "duration": 220, "velocity": 100}, {"time": 94270, "pitch": 49, "duration": 110, "velocity": 100}, {"time": 94325, "pitch": 49, "duration": 110, "velocity": 100}, {"time": 94380, "pitch": 55, "duration": 110, "velocity": 100}, {"time": 94380, "pitch": 58, "duration": 220, "velocity": 100}, {"time": 94435, "pitch": 43, "duration": 55, "velocity": 100}, {"time": 94490, "pitch": 49, "duration": 110, "velocity": 100}, {"time": 94545, "pitch": 55, "duration": 55, "velocity": 100}, {"time": 94600, "pitch": 32, "duration": 330, "velocity": 100}, {"time": 94655, "pitch": 44, "duration": 55, "velocity": 100}, {"time": 94710, "pitch": 51, "duration": 110, "velocity": 100}, {"time": 94765, "pitch": 44, "duration": 55, "velocity": 100}, {"time": 94820, "pitch": 56, "duration": 110, "velocity": 100}, {"time": 94875, "pitch": 44, "duration": 55, "velocity": 100}, {"time": 94930, "pitch": 51, "duration": 55, "velocity": 100}, {"time": 94985, "pitch": 56, "duration": 55, "velocity": 100}, {"time": 95040, "pitch": 38, "duration": 385, "velocity": 100}, {"time": 95095, "pitch": 43, "duration": 220, "velocity": 100}, {"time": 95150, "pitch": 50, "duration": 55, "velocity": 100}, {"time": 95205, "pitch": 50, "duration": 110, "velocity": 100}, {"time": 95260, "pitch": 59, "duration": 220, "velocity": 100}, {"time": 95315, "pitch": 43, "duration": 275, "velocity": 100}, {"time": 95480, "pitch": 43, "duration": 330, "velocity": 100}, {"time": 95480, "pitch": 59, "duration": 440, "velocity": 100}, {"time": 95480, "pitch": 62, "duration": 440, "velocity": 100}, {"time": 95480, "pitch": 67, "duration": 440, "velocity": 100}, {"time": 95920, "pitch": 43, "duration": 330, "velocity": 100}, {"time": 95975, "pitch": 50, "duration": 275, "velocity": 100}, {"time": 96030, "pitch": 55, "duration": 55, "velocity": 100}, {"time": 96030, "pitch": 57, "duration": 55, "velocity": 100}, {"time": 96085, "pitch": 55, "duration": 55, "velocity": 100}, {"time": 96085, "pitch": 59, "duration": 55, "velocity": 100}, {"time": 96140, "pitch": 59, "duration": 55, "velocity": 100}, {"time": 96140, "pitch": 62, "duration": 55, "velocity": 100}, {"time": 96195, "pitch": 55, "duration": 55, "velocity": 100}, {"time": 96250, "pitch": 59, "duration": 55, "velocity": 100}, {"time": 96250, "pitch": 64, "duration": 55, "velocity": 100}, {"time": 96305, "pitch": 59, "duration": 55, "velocity": 100}, {"time": 96305, "pitch": 67, "duration": 55, "velocity": 100}, {"time": 96360, "pitch": 43, "duration": 330, "velocity": 100}, {"time": 96360, "pitch": 67, "duration": 55, "velocity": 100}, {"time": 96415, "pitch": 55, "duration": 110, "velocity": 100}, {"time": 96415, "pitch": 67, "duration": 55, "velocity": 100}, {"time": 96470, "pitch": 59, "duration": 55, "velocity": 100}, {"time": 96525, "pitch": 59, "duration": 55, "velocity": 100}, {"time": 96525, "pitch": 63, "duration": 165, "velocity": 100}, {"time": 96635, "pitch": 56, "duration": 165, "velocity": 100}, {"time": 96690, "pitch": 58, "duration": 110, "velocity": 100}, {"time": 96745, "pitch": 63, "duration": 55, "velocity": 100}, {"time": 96800, "pitch": 44, "duration": 385, "velocity": 100}, {"time": 96855, "pitch": 56, "duration": 385, "velocity": 100}, {"time": 96910, "pitch": 60, "duration": 220, "velocity": 100}, {"time": 96965, "pitch": 63, "duration": 275, "velocity": 100}, {"time": 97020, "pitch": 68, "duration": 275, "velocity": 100}, {"time": 97240, "pitch": 48, "duration": 385, "velocity": 100}, {"time": 97295, "pitch": 56, "duration": 275, "velocity": 100}, {"time": 97350, "pitch": 60, "duration": 165, "velocity": 100}, {"time": 97405, "pitch": 63, "duration": 55, "velocity": 100}, {"time": 97460, "pitch": 68, "duration": 110, "velocity": 100}, {"time": 97570, "pitch": 63, "duration": 110, "velocity": 100}, {"time": 97680, "pitch": 44, "duration": 220, "velocity": 100}, {"time": 97735, "pitch": 48, "duration": 165, "velocity": 100}, {"time": 97790, "pitch": 51, "duration": 110, "velocity": 100}, {"time": 97845, "pitch": 56, "duration": 55, "velocity": 100}, {"time": 97900, "pitch": 44, "duration": 110, "velocity": 100}, {"time": 97900, "pitch": 60, "duration": 55, "velocity": 100}, {"time": 97955, "pitch": 51, "duration": 55, "velocity": 100}, {"time": 98010, "pitch": 56, "duration": 110, "velocity": 100}, {"time": 98010, "pitch": 58, "duration": 55, "velocity": 100}, {"time": 98065, "pitch": 63, "duration": 55, "velocity": 100}, {"time": 98120, "pitch": 46, "duration": 385, "velocity": 100}, {"time": 98175, "pitch": 56, "duration": 275, "velocity": 100}, {"time": 98230, "pitch": 61, "duration": 275, "velocity": 100}, {"time": 98340, "pitch": 63, "duration": 165, "velocity": 100}, {"time": 98560, "pitch": 44, "duration": 880, "velocity": 100}, {"time": 98560, "pitch": 56, "duration": 165, "velocity": 100}, {"time": 98560, "pitch": 61, "duration": 165, "velocity": 100}, {"time": 98780, "pitch": 56, "duration": 165, "velocity": 100}, {"time": 98780, "pitch": 61, "duration": 165, "velocity": 100}, {"time": 98890, "pitch": 49, "duration": 330, "velocity": 100}, {"time": 99000, "pitch": 56, "duration": 165, "velocity": 100}, {"time": 99000, "pitch": 61, "duration": 165, "velocity": 100}, {"time": 99110, "pitch": 53, "duration": 330, "velocity": 100}, {"time": 99220, "pitch": 56, "duration": 110, "velocity": 100}, {"time": 99220, "pitch": 61, "duration": 110, "velocity": 100}, {"time": 99440, "pitch": 46, "duration": 330, "velocity": 100}, {"time": 99440, "pitch": 61, "duration": 165, "velocity": 100}, {"time": 99440, "pitch": 65, "duration": 165, "velocity": 100}, {"time": 99550, "pitch": 53, "duration": 165, "velocity": 100}, {"time": 99660, "pitch": 61, "duration": 110, "velocity": 100}, {"time": 99660, "pitch": 65, "duration": 110, "velocity": 100}, {"time": 99880, "pitch": 37, "duration": 440, "velocity": 100}, {"time": 99880, "pitch": 56, "duration": 220, "velocity": 100}, {"time": 99880, "pitch": 58, "duration": 220, "velocity": 100}, {"time": 99990, "pitch": 46, "duration": 330, "velocity": 100}, {"time": 100100, "pitch": 55, "duration": 220, "velocity": 100}, {"time": 100100, "pitch": 58, "duration": 220, "velocity": 100}, {"time": 100320, "pitch": 43, "duration": 330, "velocity": 100}, {"time": 100320, "pitch": 58, "duration": 165, "velocity": 100}, {"time": 100320, "pitch": 63, "duration": 220, "velocity": 100}, {"time": 100540, "pitch": 61, "duration": 165, "velocity": 100}, {"time": 100540, "pitch": 63, "duration": 165, "velocity": 100}, {"time": 100760, "pitch": 43, "duration": 330, "velocity": 100}, {"time": 100760, "pitch": 61, "duration": 220, "velocity": 100}, {"time": 100760, "pitch": 65, "duration": 220, "velocity": 100}, {"time": 100870, "pitch": 55, "duration": 165, "velocity": 100}, {"time": 100980, "pitch": 61, "duration": 110, "velocity": 100}, {"time": 100980, "pitch": 65, "duration": 110, "velocity": 100}, {"time": 101200, "pitch": 43, "duration": 330, "velocity": 100}, {"time": 101200, "pitch": 58, "duration": 220, "velocity": 100}, {"time": 101200, "pitch": 63, "duration": 220, "velocity": 100}, {"time": 101420, "pitch": 58, "duration": 110, "velocity": 100}, {"time": 101420, "pitch": 63, "duration": 110, "velocity": 100}, {"time": 101640, "pitch": 44, "duration": 440, "velocity": 100}, {"time": 101640, "pitch": 63, "duration": 220, "velocity": 100}, {"time": 101640, "pitch": 68, "duration": 220, "velocity": 100}, {"time": 101750, "pitch": 56, "duration": 330, "velocity": 100}, {"time": 101860, "pitch": 63, "duration": 220, "velocity": 100}, {"time": 101860, "pitch": 68, "duration": 220, "velocity": 100}]}]}