{"metadata": {"schema_version": "0.1", "title": "None", "source_filename": "20211210_024023.mid", "source_format": "midi"}, "resolution": 220, "tempos": [{"time": 0, "qpm": 120.0}], "time_signatures": [{"time": 0, "numerator": 4, "denominator": 4}], "tracks": [{"program": 0, "is_drum": false, "name": "Piano", "notes": [{"time": 0, "pitch": 58, "duration": 440, "velocity": 100}, {"time": 440, "pitch": 60, "duration": 330, "velocity": 100}, {"time": 770, "pitch": 61, "duration": 110, "velocity": 100}, {"time": 880, "pitch": 63, "duration": 220, "velocity": 100}, {"time": 1100, "pitch": 60, "duration": 220, "velocity": 100}, {"time": 1320, "pitch": 66, "duration": 330, "velocity": 100}, {"time": 1650, "pitch": 63, "duration": 110, "velocity": 100}, {"time": 1760, "pitch": 65, "duration": 220, "velocity": 100}, {"time": 1980, "pitch": 65, "duration": 660, "velocity": 100}, {"time": 2640, "pitch": 58, "duration": 440, "velocity": 100}, {"time": 3080, "pitch": 60, "duration": 330, "velocity": 100}, {"time": 3410, "pitch": 61, "duration": 110, "velocity": 100}, {"time": 3520, "pitch": 63, "duration": 220, "velocity": 100}, {"time": 3740, "pitch": 60, "duration": 220, "velocity": 100}, {"time": 3960, "pitch": 66, "duration": 330, "velocity": 100}, {"time": 4290, "pitch": 65, "duration": 110, "velocity": 100}, {"time": 4400, "pitch": 63, "duration": 220, "velocity": 100}, {"time": 4620, "pitch": 63, "duration": 660, "velocity": 100}, {"time": 5280, "pitch": 58, "duration": 440, "velocity": 100}, {"time": 5720, "pitch": 60, "duration": 330, "velocity": 100}, {"time": 6050, "pitch": 61, "duration": 110, "velocity": 100}, {"time": 6160, "pitch": 63, "duration": 220, "velocity": 100}, {"time": 6380, "pitch": 60, "duration": 220, "velocity": 100}, {"time": 6600, "pitch": 66, "duration": 330, "velocity": 100}, {"time": 6930, "pitch": 63, "duration": 110, "velocity": 100}, {"time": 7040, "pitch": 65, "duration": 220, "velocity": 100}, {"time": 7260, "pitch": 65, "duration": 660, "velocity": 100}, {"time": 7920, "pitch": 58, "duration": 440, "velocity": 100}, {"time": 8360, "pitch": 60, "duration": 330, "velocity": 100}, {"time": 8690, "pitch": 61, "duration": 110, "velocity": 100}, {"time": 8800, "pitch": 63, "duration": 220, "velocity": 100}, {"time": 9020, "pitch": 60, "duration": 220, "velocity": 100}, {"time": 9240, "pitch": 66, "duration": 330, "velocity": 100}, {"time": 9570, "pitch": 65, "duration": 110, "velocity": 100}, {"time": 9680, "pitch": 63, "duration": 220, "velocity": 100}, {"time": 9900, "pitch": 63, "duration": 660, "velocity": 100}, {"time": 0, "pitch": 46, "duration": 275, "velocity": 100}, {"time": 0, "pitch": 53, "duration": 110, "velocity": 100}, {"time": 0, "pitch": 58, "duration": 110, "velocity": 100}, {"time": 110, "pitch": 49, "duration": 110, "velocity": 100}, {"time": 220, "pitch": 53, "duration": 55, "velocity": 100}, {"time": 220, "pitch": 58, "duration": 55, "velocity": 100}, {"time": 220, "pitch": 61, "duration": 55, "velocity": 100}, {"time": 275, "pitch": 46, "duration": 55, "velocity": 100}, {"time": 275, "pitch": 63, "duration": 55, "velocity": 100}, {"time": 330, "pitch": 53, "duration": 55, "velocity": 100}, {"time": 330, "pitch": 61, "duration": 55, "velocity": 100}, {"time": 385, "pitch": 58, "duration": 55, "velocity": 100}, {"time": 440, "pitch": 46, "duration": 275, "velocity": 100}, {"time": 440, "pitch": 53, "duration": 55, "velocity": 100}, {"time": 440, "pitch": 58, "duration": 440, "velocity": 100}, {"time": 550, "pitch": 53, "duration": 55, "velocity": 100}, {"time": 660, "pitch": 53, "duration": 55, "velocity": 100}, {"time": 660, "pitch": 61, "duration": 220, "velocity": 100}, {"time": 770, "pitch": 58, "duration": 165, "velocity": 100}, {"time": 880, "pitch": 34, "duration": 385, "velocity": 100}, {"time": 880, "pitch": 53, "duration": 165, "velocity": 100}, {"time": 880, "pitch": 58, "duration": 220, "velocity": 100}, {"time": 990, "pitch": 49, "duration": 165, "velocity": 100}, {"time": 1100, "pitch": 56, "duration": 110, "velocity": 100}, {"time": 1100, "pitch": 58, "duration": 110, "velocity": 100}, {"time": 1100, "pitch": 61, "duration": 55, "velocity": 100}, {"time": 1155, "pitch": 60, "duration": 55, "velocity": 100}, {"time": 1210, "pitch": 46, "duration": 55, "velocity": 100}, {"time": 1210, "pitch": 60, "duration": 55, "velocity": 100}, {"time": 1265, "pitch": 53, "duration": 55, "velocity": 100}, {"time": 1265, "pitch": 60, "duration": 55, "velocity": 100}, {"time": 1320, "pitch": 46, "duration": 275, "velocity": 100}, {"time": 1320, "pitch": 53, "duration": 55, "velocity": 100}, {"time": 1320, "pitch": 58, "duration": 220, "velocity": 100}, {"time": 1430, "pitch": 53, "duration": 55, "velocity": 100}, {"time": 1540, "pitch": 58, "duration": 110, "velocity": 100}, {"time": 1540, "pitch": 61, "duration": 220, "velocity": 100}, {"time": 1650, "pitch": 53, "duration": 110, "velocity": 100}, {"time": 1650, "pitch": 58, "duration": 110, "velocity": 100}, {"time": 1760, "pitch": 46, "duration": 385, "velocity": 100}, {"time": 1760, "pitch": 53, "duration": 165, "velocity": 100}, {"time": 1760, "pitch": 58, "duration": 220, "velocity": 100}, {"time": 1870, "pitch": 49, "duration": 110, "velocity": 100}, {"time": 1980, "pitch": 53, "duration": 55, "velocity": 100}, {"time": 1980, "pitch": 58, "duration": 55, "velocity": 100}, {"time": 1980, "pitch": 61, "duration": 55, "velocity": 100}, {"time": 2035, "pitch": 53, "duration": 55, "velocity": 100}, {"time": 2035, "pitch": 65, "duration": 55, "velocity": 100}, {"time": 2090, "pitch": 56, "duration": 55, "velocity": 100}, {"time": 2090, "pitch": 61, "duration": 55, "velocity": 100}, {"time": 2145, "pitch": 58, "duration": 55, "velocity": 100}, {"time": 2145, "pitch": 60, "duration": 55, "velocity": 100}, {"time": 2200, "pitch": 46, "duration": 275, "velocity": 100}, {"time": 2200, "pitch": 53, "duration": 165, "velocity": 100}, {"time": 2200, "pitch": 58, "duration": 440, "velocity": 100}, {"time": 2420, "pitch": 53, "duration": 55, "velocity": 100}, {"time": 2420, "pitch": 61, "duration": 220, "velocity": 100}, {"time": 2530, "pitch": 53, "duration": 110, "velocity": 100}, {"time": 2530, "pitch": 58, "duration": 110, "velocity": 100}, {"time": 2640, "pitch": 46, "duration": 385, "velocity": 100}, {"time": 2640, "pitch": 53, "duration": 165, "velocity": 100}, {"time": 2640, "pitch": 58, "duration": 220, "velocity": 100}, {"time": 2750, "pitch": 49, "duration": 275, "velocity": 100}, {"time": 2860, "pitch": 53, "duration": 55, "velocity": 100}, {"time": 2860, "pitch": 58, "duration": 110, "velocity": 100}, {"time": 2860, "pitch": 61, "duration": 110, "velocity": 100}, {"time": 2860, "pitch": 68, "duration": 55, "velocity": 100}, {"time": 2915, "pitch": 70, "duration": 55, "velocity": 100}, {"time": 2970, "pitch": 53, "duration": 55, "velocity": 100}, {"time": 3025, "pitch": 73, "duration": 55, "velocity": 100}, {"time": 3080, "pitch": 46, "duration": 385, "velocity": 100}, {"time": 3080, "pitch": 53, "duration": 55, "velocity": 100}, {"time": 3080, "pitch": 58, "duration": 220, "velocity": 100}, {"time": 3080, "pitch": 73, "duration": 165, "velocity": 100}, {"time": 3190, "pitch": 53, "duration": 55, "velocity": 100}, {"time": 3245, "pitch": 73, "duration": 165, "velocity": 100}, {"time": 3300, "pitch": 53, "duration": 165, "velocity": 100}, {"time": 3300, "pitch": 58, "duration": 110, "velocity": 100}, {"time": 3355, "pitch": 70, "duration": 55, "velocity": 100}, {"time": 3410, "pitch": 61, "duration": 110, "velocity": 100}, {"time": 3520, "pitch": 46, "duration": 275, "velocity": 100}, {"time": 3520, "pitch": 58, "duration": 55, "velocity": 100}, {"time": 3520, "pitch": 66, "duration": 110, "velocity": 100}, {"time": 3630, "pitch": 54, "duration": 110, "velocity": 100}, {"time": 3740, "pitch": 58, "duration": 55, "velocity": 100}, {"time": 3740, "pitch": 63, "duration": 55, "velocity": 100}, {"time": 3740, "pitch": 66, "duration": 110, "velocity": 100}, {"time": 3740, "pitch": 70, "duration": 110, "velocity": 100}, {"time": 3795, "pitch": 51, "duration": 55, "velocity": 100}, {"time": 3850, "pitch": 58, "duration": 55, "velocity": 100}, {"time": 3850, "pitch": 66, "duration": 110, "velocity": 100}, {"time": 3960, "pitch": 51, "duration": 330, "velocity": 100}, {"time": 3960, "pitch": 58, "duration": 55, "velocity": 100}, {"time": 3960, "pitch": 63, "duration": 110, "velocity": 100}, {"time": 3960, "pitch": 70, "duration": 165, "velocity": 100}, {"time": 4070, "pitch": 58, "duration": 55, "velocity": 100}, {"time": 4180, "pitch": 58, "duration": 55, "velocity": 100}, {"time": 4180, "pitch": 66, "duration": 55, "velocity": 100}, {"time": 4235, "pitch": 68, "duration": 55, "velocity": 100}, {"time": 4290, "pitch": 63, "duration": 55, "velocity": 100}, {"time": 4290, "pitch": 66, "duration": 110, "velocity": 100}, {"time": 4345, "pitch": 65, "duration": 55, "velocity": 100}, {"time": 4400, "pitch": 51, "duration": 275, "velocity": 100}, {"time": 4400, "pitch": 58, "duration": 165, "velocity": 100}, {"time": 4400, "pitch": 63, "duration": 220, "velocity": 100}, {"time": 4510, "pitch": 54, "duration": 165, "velocity": 100}, {"time": 4620, "pitch": 63, "duration": 110, "velocity": 100}, {"time": 4620, "pitch": 66, "duration": 165, "velocity": 100}, {"time": 4620, "pitch": 70, "duration": 220, "velocity": 100}, {"time": 4730, "pitch": 58, "duration": 55, "velocity": 100}, {"time": 4785, "pitch": 58, "duration": 55, "velocity": 100}, {"time": 4840, "pitch": 51, "duration": 275, "velocity": 100}, {"time": 4840, "pitch": 58, "duration": 55, "velocity": 100}, {"time": 4840, "pitch": 63, "duration": 220, "velocity": 100}, {"time": 4840, "pitch": 66, "duration": 330, "velocity": 100}, {"time": 4950, "pitch": 58, "duration": 55, "velocity": 100}, {"time": 5060, "pitch": 63, "duration": 55, "velocity": 100}, {"time": 5060, "pitch": 66, "duration": 220, "velocity": 100}, {"time": 5170, "pitch": 58, "duration": 55, "velocity": 100}, {"time": 5170, "pitch": 63, "duration": 110, "velocity": 100}, {"time": 5170, "pitch": 66, "duration": 110, "velocity": 100}, {"time": 5280, "pitch": 46, "duration": 385, "velocity": 100}, {"time": 5280, "pitch": 58, "duration": 110, "velocity": 100}, {"time": 5280, "pitch": 63, "duration": 110, "velocity": 100}, {"time": 5280, "pitch": 70, "duration": 330, "velocity": 100}, {"time": 5390, "pitch": 54, "duration": 110, "velocity": 100}, {"time": 5500, "pitch": 58, "duration": 55, "velocity": 100}, {"time": 5500, "pitch": 63, "duration": 55, "velocity": 100}, {"time": 5500, "pitch": 66, "duration": 55, "velocity": 100}, {"time": 5555, "pitch": 54, "duration": 55, "velocity": 100}, {"time": 5555, "pitch": 65, "duration": 55, "velocity": 100}, {"time": 5610, "pitch": 61, "duration": 55, "velocity": 100}, {"time": 5610, "pitch": 66, "duration": 55, "velocity": 100}, {"time": 5665, "pitch": 58, "duration": 55, "velocity": 100}, {"time": 5665, "pitch": 70, "duration": 55, "velocity": 100}, {"time": 5720, "pitch": 51, "duration": 275, "velocity": 100}, {"time": 5720, "pitch": 58, "duration": 55, "velocity": 100}, {"time": 5720, "pitch": 63, "duration": 165, "velocity": 100}, {"time": 5720, "pitch": 66, "duration": 220, "velocity": 100}, {"time": 5940, "pitch": 58, "duration": 55, "velocity": 100}, {"time": 5940, "pitch": 66, "duration": 220, "velocity": 100}, {"time": 6050, "pitch": 58, "duration": 110, "velocity": 100}, {"time": 6050, "pitch": 63, "duration": 55, "velocity": 100}, {"time": 6160, "pitch": 46, "duration": 385, "velocity": 100}, {"time": 6160, "pitch": 58, "duration": 110, "velocity": 100}, {"time": 6160, "pitch": 63, "duration": 110, "velocity": 100}, {"time": 6160, "pitch": 75, "duration": 55, "velocity": 100}, {"time": 6270, "pitch": 54, "duration": 275, "velocity": 100}, {"time": 6325, "pitch": 77, "duration": 55, "velocity": 100}, {"time": 6380, "pitch": 58, "duration": 55, "velocity": 100}, {"time": 6380, "pitch": 63, "duration": 55, "velocity": 100}, {"time": 6380, "pitch": 66, "duration": 110, "velocity": 100}, {"time": 6435, "pitch": 75, "duration": 165, "velocity": 100}, {"time": 6490, "pitch": 58, "duration": 55, "velocity": 100}, {"time": 6600, "pitch": 39, "duration": 385, "velocity": 100}, {"time": 6600, "pitch": 58, "duration": 110, "velocity": 100}, {"time": 6600, "pitch": 63, "duration": 110, "velocity": 100}, {"time": 6600, "pitch": 66, "duration": 165, "velocity": 100}, {"time": 6600, "pitch": 70, "duration": 165, "velocity": 100}, {"time": 6710, "pitch": 51, "duration": 110, "velocity": 100}, {"time": 6765, "pitch": 63, "duration": 55, "velocity": 100}, {"time": 6820, "pitch": 58, "duration": 55, "velocity": 100}, {"time": 6820, "pitch": 66, "duration": 110, "velocity": 100}, {"time": 6820, "pitch": 68, "duration": 110, "velocity": 100}, {"time": 6875, "pitch": 51, "duration": 165, "velocity": 100}, {"time": 6930, "pitch": 61, "duration": 110, "velocity": 100}, {"time": 6985, "pitch": 63, "duration": 55, "velocity": 100}, {"time": 7040, "pitch": 41, "duration": 330, "velocity": 100}, {"time": 7040, "pitch": 53, "duration": 110, "velocity": 100}, {"time": 7040, "pitch": 57, "duration": 110, "velocity": 100}, {"time": 7040, "pitch": 65, "duration": 275, "velocity": 100}, {"time": 7040, "pitch": 69, "duration": 330, "velocity": 100}, {"time": 7150, "pitch": 48, "duration": 165, "velocity": 100}, {"time": 7205, "pitch": 53, "duration": 55, "velocity": 100}, {"time": 7260, "pitch": 53, "duration": 55, "velocity": 100}, {"time": 7260, "pitch": 57, "duration": 55, "velocity": 100}, {"time": 7315, "pitch": 48, "duration": 55, "velocity": 100}, {"time": 7370, "pitch": 53, "duration": 55, "velocity": 100}, {"time": 7370, "pitch": 65, "duration": 110, "velocity": 100}, {"time": 7480, "pitch": 29, "duration": 275, "velocity": 100}, {"time": 7480, "pitch": 53, "duration": 110, "velocity": 100}, {"time": 7480, "pitch": 57, "duration": 165, "velocity": 100}, {"time": 7480, "pitch": 60, "duration": 220, "velocity": 100}, {"time": 7590, "pitch": 41, "duration": 110, "velocity": 100}, {"time": 7700, "pitch": 53, "duration": 55, "velocity": 100}, {"time": 7700, "pitch": 60, "duration": 55, "velocity": 100}, {"time": 7755, "pitch": 41, "duration": 55, "velocity": 100}, {"time": 7810, "pitch": 53, "duration": 55, "velocity": 100}, {"time": 7920, "pitch": 41, "duration": 275, "velocity": 100}, {"time": 7920, "pitch": 53, "duration": 110, "velocity": 100}, {"time": 7920, "pitch": 57, "duration": 110, "velocity": 100}, {"time": 7920, "pitch": 65, "duration": 110, "velocity": 100}, {"time": 7920, "pitch": 69, "duration": 330, "velocity": 100}, {"time": 8030, "pitch": 48, "duration": 165, "velocity": 100}, {"time": 8140, "pitch": 53, "duration": 55, "velocity": 100}, {"time": 8140, "pitch": 57, "duration": 55, "velocity": 100}, {"time": 8140, "pitch": 60, "duration": 110, "velocity": 100}, {"time": 8250, "pitch": 48, "duration": 55, "velocity": 100}, {"time": 8250, "pitch": 65, "duration": 110, "velocity": 100}, {"time": 8305, "pitch": 53, "duration": 55, "velocity": 100}, {"time": 8360, "pitch": 29, "duration": 275, "velocity": 100}, {"time": 8360, "pitch": 53, "duration": 110, "velocity": 100}, {"time": 8360, "pitch": 57, "duration": 110, "velocity": 100}, {"time": 8360, "pitch": 60, "duration": 110, "velocity": 100}, {"time": 8360, "pitch": 72, "duration": 110, "velocity": 100}, {"time": 8470, "pitch": 41, "duration": 110, "velocity": 100}, {"time": 8525, "pitch": 72, "duration": 55, "velocity": 100}, {"time": 8580, "pitch": 53, "duration": 55, "velocity": 100}, {"time": 8580, "pitch": 57, "duration": 55, "velocity": 100}, {"time": 8580, "pitch": 60, "duration": 55, "velocity": 100}, {"time": 8635, "pitch": 48, "duration": 55, "velocity": 100}, {"time": 8635, "pitch": 69, "duration": 55, "velocity": 100}, {"time": 8690, "pitch": 53, "duration": 55, "velocity": 100}, {"time": 8800, "pitch": 41, "duration": 385, "velocity": 100}, {"time": 8800, "pitch": 53, "duration": 110, "velocity": 100}, {"time": 8800, "pitch": 57, "duration": 110, "velocity": 100}, {"time": 8800, "pitch": 60, "duration": 110, "velocity": 100}, {"time": 8800, "pitch": 67, "duration": 330, "velocity": 100}, {"time": 8910, "pitch": 48, "duration": 110, "velocity": 100}, {"time": 9020, "pitch": 53, "duration": 110, "velocity": 100}, {"time": 9020, "pitch": 60, "duration": 110, "velocity": 100}, {"time": 9130, "pitch": 48, "duration": 55, "velocity": 100}, {"time": 9240, "pitch": 41, "duration": 330, "velocity": 100}, {"time": 9240, "pitch": 53, "duration": 110, "velocity": 100}, {"time": 9240, "pitch": 57, "duration": 110, "velocity": 100}, {"time": 9240, "pitch": 65, "duration": 385, "velocity": 100}, {"time": 9240, "pitch": 69, "duration": 440, "velocity": 100}, {"time": 9350, "pitch": 48, "duration": 110, "velocity": 100}, {"time": 9405, "pitch": 53, "duration": 55, "velocity": 100}, {"time": 9460, "pitch": 53, "duration": 55, "velocity": 100}, {"time": 9460, "pitch": 60, "duration": 110, "velocity": 100}, {"time": 9515, "pitch": 48, "duration": 55, "velocity": 100}, {"time": 9570, "pitch": 53, "duration": 55, "velocity": 100}, {"time": 9570, "pitch": 57, "duration": 55, "velocity": 100}, {"time": 9680, "pitch": 41, "duration": 55, "velocity": 100}, {"time": 9680, "pitch": 53, "duration": 110, "velocity": 100}, {"time": 9680, "pitch": 57, "duration": 110, "velocity": 100}, {"time": 9680, "pitch": 60, "duration": 110, "velocity": 100}, {"time": 9680, "pitch": 65, "duration": 275, "velocity": 100}, {"time": 9680, "pitch": 69, "duration": 330, "velocity": 100}, {"time": 9790, "pitch": 48, "duration": 165, "velocity": 100}, {"time": 9845, "pitch": 53, "duration": 110, "velocity": 100}, {"time": 9900, "pitch": 55, "duration": 55, "velocity": 100}, {"time": 9955, "pitch": 53, "duration": 55, "velocity": 100}, {"time": 9955, "pitch": 60, "duration": 55, "velocity": 100}, {"time": 10010, "pitch": 53, "duration": 55, "velocity": 100}, {"time": 10010, "pitch": 62, "duration": 55, "velocity": 100}, {"time": 10065, "pitch": 53, "duration": 55, "velocity": 100}, {"time": 10065, "pitch": 60, "duration": 55, "velocity": 100}, {"time": 10120, "pitch": 41, "duration": 165, "velocity": 100}, {"time": 10120, "pitch": 53, "duration": 55, "velocity": 100}, {"time": 10120, "pitch": 60, "duration": 110, "velocity": 100}, {"time": 10175, "pitch": 48, "duration": 55, "velocity": 100}, {"time": 10230, "pitch": 53, "duration": 55, "velocity": 100}, {"time": 10285, "pitch": 57, "duration": 55, "velocity": 100}, {"time": 10340, "pitch": 41, "duration": 220, "velocity": 100}, {"time": 10340, "pitch": 57, "duration": 110, "velocity": 100}, {"time": 10340, "pitch": 60, "duration": 220, "velocity": 100}, {"time": 10340, "pitch": 65, "duration": 220, "velocity": 100}, {"time": 10395, "pitch": 48, "duration": 165, "velocity": 100}, {"time": 10450, "pitch": 57, "duration": 110, "velocity": 100}, {"time": 10505, "pitch": 60, "duration": 55, "velocity": 100}]}]}