{"metadata": {"schema_version": "0.1", "title": "None", "source_filename": "20211209_161106.mid", "source_format": "midi"}, "resolution": 220, "tempos": [{"time": 0, "qpm": 120.0}], "time_signatures": [{"time": 0, "numerator": 4, "denominator": 4}], "tracks": [{"program": 0, "is_drum": false, "name": "Piano", "notes": [{"time": 0, "pitch": 58, "duration": 440, "velocity": 100}, {"time": 440, "pitch": 60, "duration": 330, "velocity": 100}, {"time": 770, "pitch": 61, "duration": 110, "velocity": 100}, {"time": 880, "pitch": 63, "duration": 220, "velocity": 100}, {"time": 1100, "pitch": 60, "duration": 220, "velocity": 100}, {"time": 1320, "pitch": 66, "duration": 330, "velocity": 100}, {"time": 1650, "pitch": 63, "duration": 110, "velocity": 100}, {"time": 1760, "pitch": 65, "duration": 220, "velocity": 100}, {"time": 1980, "pitch": 65, "duration": 660, "velocity": 100}, {"time": 2640, "pitch": 58, "duration": 440, "velocity": 100}, {"time": 3080, "pitch": 60, "duration": 330, "velocity": 100}, {"time": 3410, "pitch": 61, "duration": 110, "velocity": 100}, {"time": 3520, "pitch": 63, "duration": 220, "velocity": 100}, {"time": 3740, "pitch": 60, "duration": 220, "velocity": 100}, {"time": 3960, "pitch": 66, "duration": 330, "velocity": 100}, {"time": 4290, "pitch": 65, "duration": 110, "velocity": 100}, {"time": 4400, "pitch": 63, "duration": 220, "velocity": 100}, {"time": 4620, "pitch": 63, "duration": 660, "velocity": 100}, {"time": 5280, "pitch": 58, "duration": 440, "velocity": 100}, {"time": 5720, "pitch": 60, "duration": 330, "velocity": 100}, {"time": 6050, "pitch": 61, "duration": 110, "velocity": 100}, {"time": 6160, "pitch": 63, "duration": 220, "velocity": 100}, {"time": 6380, "pitch": 60, "duration": 220, "velocity": 100}, {"time": 6600, "pitch": 66, "duration": 330, "velocity": 100}, {"time": 6930, "pitch": 63, "duration": 110, "velocity": 100}, {"time": 7040, "pitch": 65, "duration": 220, "velocity": 100}, {"time": 7260, "pitch": 65, "duration": 660, "velocity": 100}, {"time": 7920, "pitch": 58, "duration": 440, "velocity": 100}, {"time": 8360, "pitch": 60, "duration": 330, "velocity": 100}, {"time": 8690, "pitch": 61, "duration": 110, "velocity": 100}, {"time": 8800, "pitch": 63, "duration": 220, "velocity": 100}, {"time": 9020, "pitch": 60, "duration": 220, "velocity": 100}, {"time": 9240, "pitch": 66, "duration": 330, "velocity": 100}, {"time": 9570, "pitch": 65, "duration": 110, "velocity": 100}, {"time": 9680, "pitch": 63, "duration": 220, "velocity": 100}, {"time": 9900, "pitch": 63, "duration": 660, "velocity": 100}, {"time": 0, "pitch": 46, "duration": 385, "velocity": 100}, {"time": 0, "pitch": 58, "duration": 385, "velocity": 100}, {"time": 0, "pitch": 70, "duration": 165, "velocity": 100}, {"time": 220, "pitch": 61, "duration": 55, "velocity": 100}, {"time": 220, "pitch": 65, "duration": 55, "velocity": 100}, {"time": 220, "pitch": 70, "duration": 55, "velocity": 100}, {"time": 220, "pitch": 77, "duration": 55, "velocity": 100}, {"time": 330, "pitch": 61, "duration": 220, "velocity": 100}, {"time": 330, "pitch": 65, "duration": 220, "velocity": 100}, {"time": 330, "pitch": 70, "duration": 110, "velocity": 100}, {"time": 440, "pitch": 53, "duration": 275, "velocity": 100}, {"time": 440, "pitch": 70, "duration": 55, "velocity": 100}, {"time": 550, "pitch": 77, "duration": 55, "velocity": 100}, {"time": 660, "pitch": 61, "duration": 110, "velocity": 100}, {"time": 660, "pitch": 65, "duration": 110, "velocity": 100}, {"time": 660, "pitch": 70, "duration": 110, "velocity": 100}, {"time": 660, "pitch": 77, "duration": 55, "velocity": 100}, {"time": 715, "pitch": 61, "duration": 55, "velocity": 100}, {"time": 770, "pitch": 61, "duration": 55, "velocity": 100}, {"time": 825, "pitch": 60, "duration": 55, "velocity": 100}, {"time": 880, "pitch": 46, "duration": 220, "velocity": 100}, {"time": 880, "pitch": 58, "duration": 220, "velocity": 100}, {"time": 880, "pitch": 70, "duration": 55, "velocity": 100}, {"time": 1100, "pitch": 46, "duration": 165, "velocity": 100}, {"time": 1100, "pitch": 58, "duration": 55, "velocity": 100}, {"time": 1100, "pitch": 61, "duration": 55, "velocity": 100}, {"time": 1100, "pitch": 65, "duration": 55, "velocity": 100}, {"time": 1100, "pitch": 70, "duration": 55, "velocity": 100}, {"time": 1100, "pitch": 77, "duration": 55, "velocity": 100}, {"time": 1210, "pitch": 61, "duration": 220, "velocity": 100}, {"time": 1210, "pitch": 65, "duration": 110, "velocity": 100}, {"time": 1210, "pitch": 70, "duration": 110, "velocity": 100}, {"time": 1210, "pitch": 77, "duration": 55, "velocity": 100}, {"time": 1320, "pitch": 53, "duration": 275, "velocity": 100}, {"time": 1320, "pitch": 70, "duration": 55, "velocity": 100}, {"time": 1430, "pitch": 58, "duration": 55, "velocity": 100}, {"time": 1430, "pitch": 61, "duration": 55, "velocity": 100}, {"time": 1430, "pitch": 65, "duration": 55, "velocity": 100}, {"time": 1430, "pitch": 70, "duration": 55, "velocity": 100}, {"time": 1430, "pitch": 77, "duration": 55, "velocity": 100}, {"time": 1485, "pitch": 60, "duration": 55, "velocity": 100}, {"time": 1540, "pitch": 61, "duration": 55, "velocity": 100}, {"time": 1540, "pitch": 65, "duration": 55, "velocity": 100}, {"time": 1540, "pitch": 70, "duration": 55, "velocity": 100}, {"time": 1540, "pitch": 77, "duration": 55, "velocity": 100}, {"time": 1595, "pitch": 60, "duration": 55, "velocity": 100}, {"time": 1650, "pitch": 61, "duration": 55, "velocity": 100}, {"time": 1705, "pitch": 63, "duration": 55, "velocity": 100}, {"time": 1760, "pitch": 46, "duration": 385, "velocity": 100}, {"time": 1760, "pitch": 58, "duration": 440, "velocity": 100}, {"time": 1760, "pitch": 65, "duration": 220, "velocity": 100}, {"time": 1760, "pitch": 89, "duration": 880, "velocity": 100}, {"time": 1980, "pitch": 61, "duration": 55, "velocity": 100}, {"time": 1980, "pitch": 65, "duration": 55, "velocity": 100}, {"time": 1980, "pitch": 70, "duration": 55, "velocity": 100}, {"time": 2090, "pitch": 61, "duration": 165, "velocity": 100}, {"time": 2090, "pitch": 65, "duration": 165, "velocity": 100}, {"time": 2090, "pitch": 70, "duration": 165, "velocity": 100}, {"time": 2200, "pitch": 53, "duration": 275, "velocity": 100}, {"time": 2420, "pitch": 61, "duration": 220, "velocity": 100}, {"time": 2420, "pitch": 65, "duration": 220, "velocity": 100}, {"time": 2420, "pitch": 70, "duration": 220, "velocity": 100}, {"time": 2640, "pitch": 46, "duration": 385, "velocity": 100}, {"time": 2640, "pitch": 58, "duration": 385, "velocity": 100}, {"time": 2640, "pitch": 85, "duration": 880, "velocity": 100}, {"time": 2860, "pitch": 65, "duration": 55, "velocity": 100}, {"time": 2860, "pitch": 70, "duration": 55, "velocity": 100}, {"time": 2860, "pitch": 73, "duration": 55, "velocity": 100}, {"time": 2970, "pitch": 61, "duration": 220, "velocity": 100}, {"time": 2970, "pitch": 70, "duration": 220, "velocity": 100}, {"time": 2970, "pitch": 73, "duration": 220, "velocity": 100}, {"time": 3080, "pitch": 53, "duration": 275, "velocity": 100}, {"time": 3300, "pitch": 65, "duration": 220, "velocity": 100}, {"time": 3300, "pitch": 70, "duration": 220, "velocity": 100}, {"time": 3300, "pitch": 73, "duration": 220, "velocity": 100}, {"time": 3520, "pitch": 51, "duration": 385, "velocity": 100}, {"time": 3520, "pitch": 58, "duration": 385, "velocity": 100}, {"time": 3520, "pitch": 87, "duration": 880, "velocity": 100}, {"time": 3740, "pitch": 63, "duration": 55, "velocity": 100}, {"time": 3740, "pitch": 70, "duration": 55, "velocity": 100}, {"time": 3850, "pitch": 63, "duration": 220, "velocity": 100}, {"time": 3850, "pitch": 70, "duration": 165, "velocity": 100}, {"time": 3960, "pitch": 58, "duration": 275, "velocity": 100}, {"time": 4180, "pitch": 63, "duration": 220, "velocity": 100}, {"time": 4180, "pitch": 66, "duration": 220, "velocity": 100}, {"time": 4180, "pitch": 70, "duration": 220, "velocity": 100}, {"time": 4400, "pitch": 39, "duration": 275, "velocity": 100}, {"time": 4400, "pitch": 51, "duration": 385, "velocity": 100}, {"time": 4400, "pitch": 87, "duration": 880, "velocity": 100}, {"time": 4620, "pitch": 66, "duration": 55, "velocity": 100}, {"time": 4620, "pitch": 70, "duration": 55, "velocity": 100}, {"time": 4620, "pitch": 73, "duration": 55, "velocity": 100}, {"time": 4730, "pitch": 63, "duration": 275, "velocity": 100}, {"time": 4730, "pitch": 66, "duration": 275, "velocity": 100}, {"time": 4730, "pitch": 70, "duration": 385, "velocity": 100}, {"time": 4840, "pitch": 46, "duration": 275, "velocity": 100}, {"time": 5060, "pitch": 63, "duration": 220, "velocity": 100}, {"time": 5060, "pitch": 66, "duration": 220, "velocity": 100}, {"time": 5060, "pitch": 70, "duration": 220, "velocity": 100}, {"time": 5280, "pitch": 51, "duration": 385, "velocity": 100}, {"time": 5280, "pitch": 63, "duration": 440, "velocity": 100}, {"time": 5280, "pitch": 94, "duration": 880, "velocity": 100}, {"time": 5500, "pitch": 66, "duration": 55, "velocity": 100}, {"time": 5500, "pitch": 70, "duration": 55, "velocity": 100}, {"time": 5500, "pitch": 75, "duration": 55, "velocity": 100}, {"time": 5500, "pitch": 82, "duration": 55, "velocity": 100}, {"time": 5610, "pitch": 66, "duration": 165, "velocity": 100}, {"time": 5610, "pitch": 70, "duration": 220, "velocity": 100}, {"time": 5610, "pitch": 75, "duration": 110, "velocity": 100}, {"time": 5720, "pitch": 58, "duration": 385, "velocity": 100}, {"time": 5720, "pitch": 75, "duration": 55, "velocity": 100}, {"time": 5830, "pitch": 82, "duration": 55, "velocity": 100}, {"time": 5940, "pitch": 66, "duration": 55, "velocity": 100}, {"time": 5940, "pitch": 70, "duration": 110, "velocity": 100}, {"time": 5940, "pitch": 75, "duration": 110, "velocity": 100}, {"time": 5940, "pitch": 82, "duration": 55, "velocity": 100}, {"time": 5995, "pitch": 68, "duration": 55, "velocity": 100}, {"time": 6050, "pitch": 66, "duration": 55, "velocity": 100}, {"time": 6105, "pitch": 65, "duration": 55, "velocity": 100}, {"time": 6160, "pitch": 51, "duration": 275, "velocity": 100}, {"time": 6160, "pitch": 63, "duration": 275, "velocity": 100}, {"time": 6160, "pitch": 75, "duration": 165, "velocity": 100}, {"time": 6380, "pitch": 51, "duration": 165, "velocity": 100}, {"time": 6380, "pitch": 63, "duration": 220, "velocity": 100}, {"time": 6380, "pitch": 66, "duration": 55, "velocity": 100}, {"time": 6380, "pitch": 70, "duration": 55, "velocity": 100}, {"time": 6380, "pitch": 78, "duration": 55, "velocity": 100}, {"time": 6380, "pitch": 82, "duration": 55, "velocity": 100}, {"time": 6490, "pitch": 66, "duration": 110, "velocity": 100}, {"time": 6490, "pitch": 70, "duration": 110, "velocity": 100}, {"time": 6490, "pitch": 75, "duration": 110, "velocity": 100}, {"time": 6490, "pitch": 82, "duration": 55, "velocity": 100}, {"time": 6600, "pitch": 58, "duration": 275, "velocity": 100}, {"time": 6600, "pitch": 75, "duration": 55, "velocity": 100}, {"time": 6710, "pitch": 63, "duration": 55, "velocity": 100}, {"time": 6710, "pitch": 66, "duration": 55, "velocity": 100}, {"time": 6710, "pitch": 70, "duration": 55, "velocity": 100}, {"time": 6710, "pitch": 75, "duration": 55, "velocity": 100}, {"time": 6710, "pitch": 82, "duration": 55, "velocity": 100}, {"time": 6765, "pitch": 65, "duration": 55, "velocity": 100}, {"time": 6820, "pitch": 66, "duration": 55, "velocity": 100}, {"time": 6820, "pitch": 70, "duration": 55, "velocity": 100}, {"time": 6820, "pitch": 75, "duration": 55, "velocity": 100}, {"time": 6820, "pitch": 82, "duration": 55, "velocity": 100}, {"time": 6875, "pitch": 65, "duration": 55, "velocity": 100}, {"time": 6930, "pitch": 66, "duration": 55, "velocity": 100}, {"time": 6985, "pitch": 68, "duration": 55, "velocity": 100}, {"time": 7040, "pitch": 53, "duration": 385, "velocity": 100}, {"time": 7040, "pitch": 65, "duration": 440, "velocity": 100}, {"time": 7040, "pitch": 69, "duration": 220, "velocity": 100}, {"time": 7040, "pitch": 93, "duration": 1320, "velocity": 100}, {"time": 7260, "pitch": 69, "duration": 55, "velocity": 100}, {"time": 7260, "pitch": 72, "duration": 55, "velocity": 100}, {"time": 7260, "pitch": 77, "duration": 55, "velocity": 100}, {"time": 7370, "pitch": 65, "duration": 165, "velocity": 100}, {"time": 7370, "pitch": 69, "duration": 220, "velocity": 100}, {"time": 7370, "pitch": 72, "duration": 165, "velocity": 100}, {"time": 7480, "pitch": 57, "duration": 385, "velocity": 100}, {"time": 7700, "pitch": 69, "duration": 220, "velocity": 100}, {"time": 7700, "pitch": 72, "duration": 220, "velocity": 100}, {"time": 7700, "pitch": 77, "duration": 220, "velocity": 100}, {"time": 7920, "pitch": 53, "duration": 385, "velocity": 100}, {"time": 7920, "pitch": 60, "duration": 440, "velocity": 100}, {"time": 7920, "pitch": 93, "duration": 880, "velocity": 100}, {"time": 8140, "pitch": 69, "duration": 55, "velocity": 100}, {"time": 8140, "pitch": 72, "duration": 55, "velocity": 100}, {"time": 8140, "pitch": 77, "duration": 55, "velocity": 100}, {"time": 8250, "pitch": 69, "duration": 165, "velocity": 100}, {"time": 8250, "pitch": 72, "duration": 220, "velocity": 100}, {"time": 8250, "pitch": 77, "duration": 220, "velocity": 100}, {"time": 8360, "pitch": 57, "duration": 275, "velocity": 100}, {"time": 8580, "pitch": 69, "duration": 220, "velocity": 100}, {"time": 8580, "pitch": 72, "duration": 165, "velocity": 100}, {"time": 8580, "pitch": 77, "duration": 165, "velocity": 100}, {"time": 8800, "pitch": 53, "duration": 440, "velocity": 100}, {"time": 8800, "pitch": 65, "duration": 440, "velocity": 100}, {"time": 8800, "pitch": 96, "duration": 220, "velocity": 100}, {"time": 9020, "pitch": 69, "duration": 55, "velocity": 100}, {"time": 9020, "pitch": 72, "duration": 55, "velocity": 100}, {"time": 9020, "pitch": 77, "duration": 55, "velocity": 100}, {"time": 9130, "pitch": 69, "duration": 165, "velocity": 100}, {"time": 9130, "pitch": 72, "duration": 220, "velocity": 100}, {"time": 9130, "pitch": 77, "duration": 220, "velocity": 100}, {"time": 9240, "pitch": 60, "duration": 275, "velocity": 100}, {"time": 9460, "pitch": 69, "duration": 220, "velocity": 100}, {"time": 9460, "pitch": 72, "duration": 220, "velocity": 100}, {"time": 9460, "pitch": 77, "duration": 220, "velocity": 100}, {"time": 9680, "pitch": 41, "duration": 385, "velocity": 100}, {"time": 9680, "pitch": 60, "duration": 385, "velocity": 100}, {"time": 9680, "pitch": 93, "duration": 220, "velocity": 100}, {"time": 9900, "pitch": 69, "duration": 55, "velocity": 100}, {"time": 9900, "pitch": 72, "duration": 55, "velocity": 100}, {"time": 9900, "pitch": 77, "duration": 55, "velocity": 100}, {"time": 10010, "pitch": 69, "duration": 165, "velocity": 100}, {"time": 10010, "pitch": 72, "duration": 330, "velocity": 100}, {"time": 10010, "pitch": 77, "duration": 440, "velocity": 100}, {"time": 10120, "pitch": 53, "duration": 275, "velocity": 100}, {"time": 10340, "pitch": 69, "duration": 220, "velocity": 100}, {"time": 10340, "pitch": 72, "duration": 220, "velocity": 100}, {"time": 10340, "pitch": 77, "duration": 220, "velocity": 100}]}]}