{"metadata": {"schema_version": "0.1", "title": "None", "source_filename": "20211210_092103.mid", "source_format": "midi"}, "resolution": 220, "tempos": [{"time": 0, "qpm": 120.0}], "time_signatures": [{"time": 0, "numerator": 4, "denominator": 4}], "tracks": [{"program": 0, "is_drum": false, "name": "Piano", "notes": [{"time": 0, "pitch": 67, "duration": 110, "velocity": 100}, {"time": 110, "pitch": 64, "duration": 110, "velocity": 100}, {"time": 220, "pitch": 67, "duration": 110, "velocity": 100}, {"time": 330, "pitch": 69, "duration": 110, "velocity": 100}, {"time": 440, "pitch": 69, "duration": 110, "velocity": 100}, {"time": 550, "pitch": 66, "duration": 110, "velocity": 100}, {"time": 660, "pitch": 69, "duration": 110, "velocity": 100}, {"time": 770, "pitch": 71, "duration": 110, "velocity": 100}, {"time": 880, "pitch": 67, "duration": 110, "velocity": 100}, {"time": 990, "pitch": 71, "duration": 110, "velocity": 100}, {"time": 1100, "pitch": 79, "duration": 110, "velocity": 100}, {"time": 1210, "pitch": 78, "duration": 110, "velocity": 100}, {"time": 1320, "pitch": 81, "duration": 110, "velocity": 100}, {"time": 1430, "pitch": 79, "duration": 110, "velocity": 100}, {"time": 1540, "pitch": 76, "duration": 110, "velocity": 100}, {"time": 1650, "pitch": 74, "duration": 110, "velocity": 100}, {"time": 1760, "pitch": 71, "duration": 110, "velocity": 100}, {"time": 1870, "pitch": 72, "duration": 110, "velocity": 100}, {"time": 1980, "pitch": 71, "duration": 110, "velocity": 100}, {"time": 2090, "pitch": 69, "duration": 110, "velocity": 100}, {"time": 2200, "pitch": 69, "duration": 110, "velocity": 100}, {"time": 2310, "pitch": 71, "duration": 110, "velocity": 100}, {"time": 2420, "pitch": 69, "duration": 110, "velocity": 100}, {"time": 2530, "pitch": 67, "duration": 110, "velocity": 100}, {"time": 2640, "pitch": 67, "duration": 110, "velocity": 100}, {"time": 2750, "pitch": 66, "duration": 110, "velocity": 100}, {"time": 2860, "pitch": 69, "duration": 110, "velocity": 100}, {"time": 2970, "pitch": 67, "duration": 110, "velocity": 100}, {"time": 3080, "pitch": 67, "duration": 110, "velocity": 100}, {"time": 3190, "pitch": 66, "duration": 110, "velocity": 100}, {"time": 3300, "pitch": 62, "duration": 110, "velocity": 100}, {"time": 3410, "pitch": 64, "duration": 110, "velocity": 100}, {"time": 3520, "pitch": 67, "duration": 110, "velocity": 100}, {"time": 3630, "pitch": 64, "duration": 110, "velocity": 100}, {"time": 3740, "pitch": 67, "duration": 110, "velocity": 100}, {"time": 3850, "pitch": 69, "duration": 110, "velocity": 100}, {"time": 3960, "pitch": 69, "duration": 110, "velocity": 100}, {"time": 4070, "pitch": 66, "duration": 110, "velocity": 100}, {"time": 4180, "pitch": 69, "duration": 110, "velocity": 100}, {"time": 4290, "pitch": 71, "duration": 110, "velocity": 100}, {"time": 4400, "pitch": 67, "duration": 110, "velocity": 100}, {"time": 4510, "pitch": 71, "duration": 110, "velocity": 100}, {"time": 4620, "pitch": 79, "duration": 110, "velocity": 100}, {"time": 4730, "pitch": 78, "duration": 110, "velocity": 100}, {"time": 4840, "pitch": 81, "duration": 110, "velocity": 100}, {"time": 4950, "pitch": 79, "duration": 110, "velocity": 100}, {"time": 5060, "pitch": 76, "duration": 110, "velocity": 100}, {"time": 5170, "pitch": 74, "duration": 110, "velocity": 100}, {"time": 5280, "pitch": 71, "duration": 110, "velocity": 100}, {"time": 5390, "pitch": 72, "duration": 110, "velocity": 100}, {"time": 5500, "pitch": 71, "duration": 110, "velocity": 100}, {"time": 5610, "pitch": 69, "duration": 110, "velocity": 100}, {"time": 5720, "pitch": 69, "duration": 110, "velocity": 100}, {"time": 5830, "pitch": 71, "duration": 110, "velocity": 100}, {"time": 5940, "pitch": 69, "duration": 110, "velocity": 100}, {"time": 6050, "pitch": 67, "duration": 110, "velocity": 100}, {"time": 6160, "pitch": 67, "duration": 110, "velocity": 100}, {"time": 6270, "pitch": 66, "duration": 110, "velocity": 100}, {"time": 6380, "pitch": 62, "duration": 110, "velocity": 100}, {"time": 6490, "pitch": 64, "duration": 110, "velocity": 100}, {"time": 6600, "pitch": 67, "duration": 110, "velocity": 100}, {"time": 6710, "pitch": 62, "duration": 110, "velocity": 100}, {"time": 6820, "pitch": 62, "duration": 220, "velocity": 100}, {"time": 7040, "pitch": 67, "duration": 110, "velocity": 100}, {"time": 7150, "pitch": 64, "duration": 110, "velocity": 100}, {"time": 7260, "pitch": 67, "duration": 110, "velocity": 100}, {"time": 7370, "pitch": 69, "duration": 110, "velocity": 100}, {"time": 7480, "pitch": 69, "duration": 110, "velocity": 100}, {"time": 7590, "pitch": 66, "duration": 110, "velocity": 100}, {"time": 7700, "pitch": 69, "duration": 110, "velocity": 100}, {"time": 7810, "pitch": 71, "duration": 110, "velocity": 100}, {"time": 7920, "pitch": 67, "duration": 110, "velocity": 100}, {"time": 8030, "pitch": 71, "duration": 110, "velocity": 100}, {"time": 8140, "pitch": 79, "duration": 110, "velocity": 100}, {"time": 8250, "pitch": 78, "duration": 110, "velocity": 100}, {"time": 8360, "pitch": 81, "duration": 110, "velocity": 100}, {"time": 8470, "pitch": 79, "duration": 110, "velocity": 100}, {"time": 8580, "pitch": 76, "duration": 110, "velocity": 100}, {"time": 8690, "pitch": 74, "duration": 110, "velocity": 100}, {"time": 8800, "pitch": 71, "duration": 110, "velocity": 100}, {"time": 8910, "pitch": 72, "duration": 110, "velocity": 100}, {"time": 9020, "pitch": 71, "duration": 110, "velocity": 100}, {"time": 9130, "pitch": 69, "duration": 110, "velocity": 100}, {"time": 9240, "pitch": 69, "duration": 110, "velocity": 100}, {"time": 9350, "pitch": 71, "duration": 110, "velocity": 100}, {"time": 9460, "pitch": 69, "duration": 110, "velocity": 100}, {"time": 9570, "pitch": 67, "duration": 110, "velocity": 100}, {"time": 9680, "pitch": 67, "duration": 110, "velocity": 100}, {"time": 9790, "pitch": 66, "duration": 110, "velocity": 100}, {"time": 9900, "pitch": 69, "duration": 110, "velocity": 100}, {"time": 10010, "pitch": 67, "duration": 110, "velocity": 100}, {"time": 10120, "pitch": 67, "duration": 110, "velocity": 100}, {"time": 10230, "pitch": 66, "duration": 110, "velocity": 100}, {"time": 10340, "pitch": 62, "duration": 110, "velocity": 100}, {"time": 10450, "pitch": 64, "duration": 110, "velocity": 100}, {"time": 10560, "pitch": 67, "duration": 110, "velocity": 100}, {"time": 10670, "pitch": 64, "duration": 110, "velocity": 100}, {"time": 10780, "pitch": 67, "duration": 110, "velocity": 100}, {"time": 10890, "pitch": 69, "duration": 110, "velocity": 100}, {"time": 11000, "pitch": 69, "duration": 110, "velocity": 100}, {"time": 11110, "pitch": 66, "duration": 110, "velocity": 100}, {"time": 11220, "pitch": 69, "duration": 110, "velocity": 100}, {"time": 11330, "pitch": 71, "duration": 110, "velocity": 100}, {"time": 11440, "pitch": 67, "duration": 110, "velocity": 100}, {"time": 11550, "pitch": 71, "duration": 110, "velocity": 100}, {"time": 11660, "pitch": 79, "duration": 110, "velocity": 100}, {"time": 11770, "pitch": 78, "duration": 110, "velocity": 100}, {"time": 11880, "pitch": 81, "duration": 110, "velocity": 100}, {"time": 11990, "pitch": 79, "duration": 110, "velocity": 100}, {"time": 12100, "pitch": 76, "duration": 110, "velocity": 100}, {"time": 12210, "pitch": 74, "duration": 110, "velocity": 100}, {"time": 12320, "pitch": 71, "duration": 110, "velocity": 100}, {"time": 12430, "pitch": 72, "duration": 110, "velocity": 100}, {"time": 12540, "pitch": 71, "duration": 110, "velocity": 100}, {"time": 12650, "pitch": 69, "duration": 110, "velocity": 100}, {"time": 12760, "pitch": 69, "duration": 110, "velocity": 100}, {"time": 12870, "pitch": 71, "duration": 110, "velocity": 100}, {"time": 12980, "pitch": 69, "duration": 110, "velocity": 100}, {"time": 13090, "pitch": 67, "duration": 110, "velocity": 100}, {"time": 13200, "pitch": 67, "duration": 110, "velocity": 100}, {"time": 13310, "pitch": 66, "duration": 110, "velocity": 100}, {"time": 13420, "pitch": 62, "duration": 110, "velocity": 100}, {"time": 13530, "pitch": 64, "duration": 110, "velocity": 100}, {"time": 13640, "pitch": 67, "duration": 110, "velocity": 100}, {"time": 13750, "pitch": 62, "duration": 110, "velocity": 100}, {"time": 13860, "pitch": 71, "duration": 165, "velocity": 100}, {"time": 14025, "pitch": 72, "duration": 55, "velocity": 100}, {"time": 14080, "pitch": 74, "duration": 110, "velocity": 100}, {"time": 14190, "pitch": 73, "duration": 110, "velocity": 100}, {"time": 14300, "pitch": 76, "duration": 110, "velocity": 100}, {"time": 14410, "pitch": 74, "duration": 110, "velocity": 100}, {"time": 14520, "pitch": 71, "duration": 110, "velocity": 100}, {"time": 14630, "pitch": 73, "duration": 110, "velocity": 100}, {"time": 14740, "pitch": 67, "duration": 110, "velocity": 100}, {"time": 14850, "pitch": 69, "duration": 110, "velocity": 100}, {"time": 14960, "pitch": 72, "duration": 110, "velocity": 100}, {"time": 15070, "pitch": 71, "duration": 110, "velocity": 100}, {"time": 15180, "pitch": 74, "duration": 110, "velocity": 100}, {"time": 15290, "pitch": 72, "duration": 110, "velocity": 100}, {"time": 15400, "pitch": 69, "duration": 110, "velocity": 100}, {"time": 15510, "pitch": 67, "duration": 110, "velocity": 100}, {"time": 15620, "pitch": 62, "duration": 110, "velocity": 100}, {"time": 15730, "pitch": 71, "duration": 110, "velocity": 100}, {"time": 15840, "pitch": 74, "duration": 110, "velocity": 100}, {"time": 15950, "pitch": 73, "duration": 110, "velocity": 100}, {"time": 16060, "pitch": 76, "duration": 110, "velocity": 100}, {"time": 16170, "pitch": 74, "duration": 110, "velocity": 100}, {"time": 16280, "pitch": 71, "duration": 110, "velocity": 100}, {"time": 16390, "pitch": 73, "duration": 110, "velocity": 100}, {"time": 16500, "pitch": 67, "duration": 110, "velocity": 100}, {"time": 16610, "pitch": 69, "duration": 110, "velocity": 100}, {"time": 16720, "pitch": 69, "duration": 110, "velocity": 100}, {"time": 16830, "pitch": 73, "duration": 110, "velocity": 100}, {"time": 16940, "pitch": 81, "duration": 110, "velocity": 100}, {"time": 17050, "pitch": 80, "duration": 110, "velocity": 100}, {"time": 17160, "pitch": 78, "duration": 110, "velocity": 100}, {"time": 17270, "pitch": 76, "duration": 110, "velocity": 100}, {"time": 17380, "pitch": 73, "duration": 110, "velocity": 100}, {"time": 17490, "pitch": 71, "duration": 110, "velocity": 100}, {"time": 17600, "pitch": 67, "duration": 110, "velocity": 100}, {"time": 17710, "pitch": 64, "duration": 110, "velocity": 100}, {"time": 17820, "pitch": 67, "duration": 110, "velocity": 100}, {"time": 17930, "pitch": 69, "duration": 110, "velocity": 100}, {"time": 18040, "pitch": 69, "duration": 110, "velocity": 100}, {"time": 18150, "pitch": 66, "duration": 110, "velocity": 100}, {"time": 18260, "pitch": 69, "duration": 110, "velocity": 100}, {"time": 18370, "pitch": 71, "duration": 110, "velocity": 100}, {"time": 18480, "pitch": 67, "duration": 110, "velocity": 100}, {"time": 18590, "pitch": 71, "duration": 110, "velocity": 100}, {"time": 18700, "pitch": 79, "duration": 110, "velocity": 100}, {"time": 18810, "pitch": 78, "duration": 110, "velocity": 100}, {"time": 18920, "pitch": 81, "duration": 110, "velocity": 100}, {"time": 19030, "pitch": 79, "duration": 110, "velocity": 100}, {"time": 19140, "pitch": 76, "duration": 110, "velocity": 100}, {"time": 19250, "pitch": 74, "duration": 110, "velocity": 100}, {"time": 19360, "pitch": 71, "duration": 110, "velocity": 100}, {"time": 19470, "pitch": 72, "duration": 110, "velocity": 100}, {"time": 19580, "pitch": 71, "duration": 110, "velocity": 100}, {"time": 19690, "pitch": 69, "duration": 110, "velocity": 100}, {"time": 19800, "pitch": 69, "duration": 110, "velocity": 100}, {"time": 19910, "pitch": 71, "duration": 110, "velocity": 100}, {"time": 20020, "pitch": 69, "duration": 110, "velocity": 100}, {"time": 20130, "pitch": 67, "duration": 110, "velocity": 100}, {"time": 20240, "pitch": 67, "duration": 110, "velocity": 100}, {"time": 20350, "pitch": 66, "duration": 110, "velocity": 100}, {"time": 20460, "pitch": 62, "duration": 110, "velocity": 100}, {"time": 20570, "pitch": 64, "duration": 110, "velocity": 100}, {"time": 20680, "pitch": 67, "duration": 110, "velocity": 100}, {"time": 20790, "pitch": 62, "duration": 110, "velocity": 100}, {"time": 20900, "pitch": 71, "duration": 165, "velocity": 100}, {"time": 21065, "pitch": 72, "duration": 55, "velocity": 100}, {"time": 21120, "pitch": 74, "duration": 110, "velocity": 100}, {"time": 21230, "pitch": 73, "duration": 110, "velocity": 100}, {"time": 21340, "pitch": 76, "duration": 110, "velocity": 100}, {"time": 21450, "pitch": 74, "duration": 110, "velocity": 100}, {"time": 21560, "pitch": 71, "duration": 110, "velocity": 100}, {"time": 21670, "pitch": 73, "duration": 110, "velocity": 100}, {"time": 21780, "pitch": 67, "duration": 110, "velocity": 100}, {"time": 21890, "pitch": 69, "duration": 110, "velocity": 100}, {"time": 22000, "pitch": 72, "duration": 110, "velocity": 100}, {"time": 22110, "pitch": 71, "duration": 110, "velocity": 100}, {"time": 22220, "pitch": 74, "duration": 110, "velocity": 100}, {"time": 22330, "pitch": 72, "duration": 110, "velocity": 100}, {"time": 22440, "pitch": 69, "duration": 110, "velocity": 100}, {"time": 22550, "pitch": 67, "duration": 110, "velocity": 100}, {"time": 22660, "pitch": 62, "duration": 110, "velocity": 100}, {"time": 22770, "pitch": 71, "duration": 110, "velocity": 100}, {"time": 22880, "pitch": 74, "duration": 110, "velocity": 100}, {"time": 22990, "pitch": 73, "duration": 110, "velocity": 100}, {"time": 23100, "pitch": 76, "duration": 110, "velocity": 100}, {"time": 23210, "pitch": 74, "duration": 110, "velocity": 100}, {"time": 23320, "pitch": 71, "duration": 110, "velocity": 100}, {"time": 23430, "pitch": 73, "duration": 110, "velocity": 100}, {"time": 23540, "pitch": 67, "duration": 110, "velocity": 100}, {"time": 23650, "pitch": 69, "duration": 110, "velocity": 100}, {"time": 23760, "pitch": 69, "duration": 110, "velocity": 100}, {"time": 23870, "pitch": 73, "duration": 110, "velocity": 100}, {"time": 23980, "pitch": 81, "duration": 110, "velocity": 100}, {"time": 24090, "pitch": 80, "duration": 110, "velocity": 100}, {"time": 24200, "pitch": 78, "duration": 110, "velocity": 100}, {"time": 24310, "pitch": 76, "duration": 110, "velocity": 100}, {"time": 24420, "pitch": 73, "duration": 110, "velocity": 100}, {"time": 24530, "pitch": 71, "duration": 110, "velocity": 100}, {"time": 24640, "pitch": 67, "duration": 110, "velocity": 100}, {"time": 24750, "pitch": 64, "duration": 110, "velocity": 100}, {"time": 24860, "pitch": 67, "duration": 110, "velocity": 100}, {"time": 24970, "pitch": 69, "duration": 110, "velocity": 100}, {"time": 25080, "pitch": 69, "duration": 110, "velocity": 100}, {"time": 25190, "pitch": 66, "duration": 110, "velocity": 100}, {"time": 25300, "pitch": 69, "duration": 110, "velocity": 100}, {"time": 25410, "pitch": 71, "duration": 110, "velocity": 100}, {"time": 25520, "pitch": 67, "duration": 110, "velocity": 100}, {"time": 25630, "pitch": 71, "duration": 110, "velocity": 100}, {"time": 25740, "pitch": 79, "duration": 110, "velocity": 100}, {"time": 25850, "pitch": 78, "duration": 110, "velocity": 100}, {"time": 25960, "pitch": 81, "duration": 110, "velocity": 100}, {"time": 26070, "pitch": 79, "duration": 110, "velocity": 100}, {"time": 26180, "pitch": 76, "duration": 110, "velocity": 100}, {"time": 26290, "pitch": 74, "duration": 110, "velocity": 100}, {"time": 26400, "pitch": 71, "duration": 110, "velocity": 100}, {"time": 26510, "pitch": 72, "duration": 110, "velocity": 100}, {"time": 26620, "pitch": 71, "duration": 110, "velocity": 100}, {"time": 26730, "pitch": 69, "duration": 110, "velocity": 100}, {"time": 26840, "pitch": 69, "duration": 110, "velocity": 100}, {"time": 26950, "pitch": 71, "duration": 110, "velocity": 100}, {"time": 27060, "pitch": 69, "duration": 110, "velocity": 100}, {"time": 27170, "pitch": 67, "duration": 110, "velocity": 100}, {"time": 27280, "pitch": 67, "duration": 110, "velocity": 100}, {"time": 27390, "pitch": 66, "duration": 110, "velocity": 100}, {"time": 27500, "pitch": 62, "duration": 110, "velocity": 100}, {"time": 27610, "pitch": 64, "duration": 110, "velocity": 100}, {"time": 27720, "pitch": 67, "duration": 110, "velocity": 100}, {"time": 27830, "pitch": 62, "duration": 110, "velocity": 100}, {"time": 27940, "pitch": 67, "duration": 220, "velocity": 100}, {"time": 0, "pitch": 43, "duration": 55, "velocity": 100}, {"time": 0, "pitch": 71, "duration": 330, "velocity": 100}, {"time": 110, "pitch": 55, "duration": 220, "velocity": 100}, {"time": 220, "pitch": 62, "duration": 110, "velocity": 100}, {"time": 330, "pitch": 67, "duration": 110, "velocity": 100}, {"time": 440, "pitch": 50, "duration": 275, "velocity": 100}, {"time": 440, "pitch": 69, "duration": 330, "velocity": 100}, {"time": 550, "pitch": 60, "duration": 165, "velocity": 100}, {"time": 660, "pitch": 62, "duration": 220, "velocity": 100}, {"time": 880, "pitch": 47, "duration": 770, "velocity": 100}, {"time": 990, "pitch": 55, "duration": 165, "velocity": 100}, {"time": 1100, "pitch": 62, "duration": 165, "velocity": 100}, {"time": 1210, "pitch": 55, "duration": 165, "velocity": 100}, {"time": 1210, "pitch": 76, "duration": 55, "velocity": 100}, {"time": 1265, "pitch": 79, "duration": 55, "velocity": 100}, {"time": 1320, "pitch": 60, "duration": 165, "velocity": 100}, {"time": 1320, "pitch": 64, "duration": 165, "velocity": 100}, {"time": 1320, "pitch": 79, "duration": 330, "velocity": 100}, {"time": 1430, "pitch": 55, "duration": 165, "velocity": 100}, {"time": 1485, "pitch": 74, "duration": 165, "velocity": 100}, {"time": 1540, "pitch": 55, "duration": 55, "velocity": 100}, {"time": 1540, "pitch": 64, "duration": 55, "velocity": 100}, {"time": 1650, "pitch": 71, "duration": 110, "velocity": 100}, {"time": 1760, "pitch": 43, "duration": 385, "velocity": 100}, {"time": 1760, "pitch": 59, "duration": 220, "velocity": 100}, {"time": 1760, "pitch": 74, "duration": 440, "velocity": 100}, {"time": 1870, "pitch": 50, "duration": 275, "velocity": 100}, {"time": 1980, "pitch": 55, "duration": 165, "velocity": 100}, {"time": 2090, "pitch": 59, "duration": 110, "velocity": 100}, {"time": 2200, "pitch": 54, "duration": 275, "velocity": 100}, {"time": 2200, "pitch": 62, "duration": 220, "velocity": 100}, {"time": 2310, "pitch": 57, "duration": 165, "velocity": 100}, {"time": 2420, "pitch": 66, "duration": 165, "velocity": 100}, {"time": 2640, "pitch": 50, "duration": 715, "velocity": 100}, {"time": 2640, "pitch": 59, "duration": 55, "velocity": 100}, {"time": 2640, "pitch": 62, "duration": 220, "velocity": 100}, {"time": 2640, "pitch": 67, "duration": 330, "velocity": 100}, {"time": 2750, "pitch": 59, "duration": 110, "velocity": 100}, {"time": 2860, "pitch": 64, "duration": 110, "velocity": 100}, {"time": 2970, "pitch": 60, "duration": 55, "velocity": 100}, {"time": 2970, "pitch": 64, "duration": 110, "velocity": 100}, {"time": 3080, "pitch": 57, "duration": 55, "velocity": 100}, {"time": 3080, "pitch": 62, "duration": 220, "velocity": 100}, {"time": 3080, "pitch": 66, "duration": 220, "velocity": 100}, {"time": 3190, "pitch": 57, "duration": 55, "velocity": 100}, {"time": 3300, "pitch": 57, "duration": 165, "velocity": 100}, {"time": 3300, "pitch": 60, "duration": 220, "velocity": 100}, {"time": 3410, "pitch": 57, "duration": 110, "velocity": 100}, {"time": 3520, "pitch": 43, "duration": 715, "velocity": 100}, {"time": 3520, "pitch": 59, "duration": 440, "velocity": 100}, {"time": 3520, "pitch": 62, "duration": 440, "velocity": 100}, {"time": 3630, "pitch": 50, "duration": 385, "velocity": 100}, {"time": 3740, "pitch": 59, "duration": 220, "velocity": 100}, {"time": 3850, "pitch": 62, "duration": 110, "velocity": 100}, {"time": 3960, "pitch": 66, "duration": 220, "velocity": 100}, {"time": 4070, "pitch": 50, "duration": 165, "velocity": 100}, {"time": 4180, "pitch": 57, "duration": 55, "velocity": 100}, {"time": 4180, "pitch": 62, "duration": 110, "velocity": 100}, {"time": 4400, "pitch": 47, "duration": 330, "velocity": 100}, {"time": 4400, "pitch": 59, "duration": 220, "velocity": 100}, {"time": 4400, "pitch": 62, "duration": 165, "velocity": 100}, {"time": 4510, "pitch": 55, "duration": 220, "velocity": 100}, {"time": 4620, "pitch": 62, "duration": 110, "velocity": 100}, {"time": 4620, "pitch": 67, "duration": 110, "velocity": 100}, {"time": 4730, "pitch": 59, "duration": 110, "velocity": 100}, {"time": 4840, "pitch": 48, "duration": 275, "velocity": 100}, {"time": 4840, "pitch": 64, "duration": 220, "velocity": 100}, {"time": 4840, "pitch": 67, "duration": 110, "velocity": 100}, {"time": 4950, "pitch": 55, "duration": 165, "velocity": 100}, {"time": 4950, "pitch": 66, "duration": 110, "velocity": 100}, {"time": 5060, "pitch": 67, "duration": 220, "velocity": 100}, {"time": 5170, "pitch": 69, "duration": 110, "velocity": 100}, {"time": 5280, "pitch": 43, "duration": 330, "velocity": 100}, {"time": 5280, "pitch": 55, "duration": 110, "velocity": 100}, {"time": 5280, "pitch": 59, "duration": 220, "velocity": 100}, {"time": 5280, "pitch": 71, "duration": 880, "velocity": 100}, {"time": 5390, "pitch": 50, "duration": 165, "velocity": 100}, {"time": 5500, "pitch": 62, "duration": 110, "velocity": 100}, {"time": 5610, "pitch": 59, "duration": 110, "velocity": 100}, {"time": 5720, "pitch": 50, "duration": 275, "velocity": 100}, {"time": 5720, "pitch": 57, "duration": 55, "velocity": 100}, {"time": 5720, "pitch": 62, "duration": 165, "velocity": 100}, {"time": 5830, "pitch": 54, "duration": 165, "velocity": 100}, {"time": 5940, "pitch": 57, "duration": 55, "velocity": 100}, {"time": 5940, "pitch": 66, "duration": 110, "velocity": 100}, {"time": 6160, "pitch": 43, "duration": 770, "velocity": 100}, {"time": 6160, "pitch": 59, "duration": 220, "velocity": 100}, {"time": 6160, "pitch": 62, "duration": 220, "velocity": 100}, {"time": 6160, "pitch": 67, "duration": 220, "velocity": 100}, {"time": 6270, "pitch": 50, "duration": 385, "velocity": 100}, {"time": 6270, "pitch": 86, "duration": 110, "velocity": 100}, {"time": 6380, "pitch": 59, "duration": 165, "velocity": 100}, {"time": 6380, "pitch": 83, "duration": 110, "velocity": 100}, {"time": 6490, "pitch": 62, "duration": 110, "velocity": 100}, {"time": 6490, "pitch": 81, "duration": 110, "velocity": 100}, {"time": 6600, "pitch": 59, "duration": 165, "velocity": 100}, {"time": 6600, "pitch": 67, "duration": 220, "velocity": 100}, {"time": 6600, "pitch": 79, "duration": 220, "velocity": 100}, {"time": 6710, "pitch": 50, "duration": 165, "velocity": 100}, {"time": 6820, "pitch": 55, "duration": 55, "velocity": 100}, {"time": 6820, "pitch": 59, "duration": 220, "velocity": 100}, {"time": 6820, "pitch": 62, "duration": 220, "velocity": 100}, {"time": 6820, "pitch": 67, "duration": 220, "velocity": 100}, {"time": 6930, "pitch": 57, "duration": 110, "velocity": 100}, {"time": 7040, "pitch": 47, "duration": 275, "velocity": 100}, {"time": 7040, "pitch": 62, "duration": 330, "velocity": 100}, {"time": 7040, "pitch": 74, "duration": 440, "velocity": 100}, {"time": 7150, "pitch": 55, "duration": 220, "velocity": 100}, {"time": 7260, "pitch": 62, "duration": 220, "velocity": 100}, {"time": 7370, "pitch": 67, "duration": 110, "velocity": 100}, {"time": 7480, "pitch": 50, "duration": 330, "velocity": 100}, {"time": 7480, "pitch": 69, "duration": 220, "velocity": 100}, {"time": 7590, "pitch": 60, "duration": 165, "velocity": 100}, {"time": 7700, "pitch": 57, "duration": 55, "velocity": 100}, {"time": 7700, "pitch": 62, "duration": 220, "velocity": 100}, {"time": 7810, "pitch": 60, "duration": 110, "velocity": 100}, {"time": 7920, "pitch": 43, "duration": 715, "velocity": 100}, {"time": 7920, "pitch": 62, "duration": 385, "velocity": 100}, {"time": 8030, "pitch": 55, "duration": 165, "velocity": 100}, {"time": 8140, "pitch": 62, "duration": 220, "velocity": 100}, {"time": 8250, "pitch": 55, "duration": 165, "velocity": 100}, {"time": 8360, "pitch": 60, "duration": 220, "velocity": 100}, {"time": 8360, "pitch": 64, "duration": 110, "velocity": 100}, {"time": 8470, "pitch": 55, "duration": 165, "velocity": 100}, {"time": 8580, "pitch": 60, "duration": 55, "velocity": 100}, {"time": 8580, "pitch": 64, "duration": 55, "velocity": 100}, {"time": 8800, "pitch": 43, "duration": 385, "velocity": 100}, {"time": 8800, "pitch": 59, "duration": 440, "velocity": 100}, {"time": 8910, "pitch": 50, "duration": 275, "velocity": 100}, {"time": 9020, "pitch": 55, "duration": 165, "velocity": 100}, {"time": 9130, "pitch": 59, "duration": 110, "velocity": 100}, {"time": 9240, "pitch": 50, "duration": 275, "velocity": 100}, {"time": 9240, "pitch": 62, "duration": 220, "velocity": 100}, {"time": 9350, "pitch": 57, "duration": 165, "velocity": 100}, {"time": 9460, "pitch": 62, "duration": 220, "velocity": 100}, {"time": 9460, "pitch": 66, "duration": 220, "velocity": 100}, {"time": 9680, "pitch": 50, "duration": 715, "velocity": 100}, {"time": 9680, "pitch": 55, "duration": 55, "velocity": 100}, {"time": 9680, "pitch": 62, "duration": 330, "velocity": 100}, {"time": 9790, "pitch": 59, "duration": 110, "velocity": 100}, {"time": 9900, "pitch": 62, "duration": 165, "velocity": 100}, {"time": 9900, "pitch": 81, "duration": 110, "velocity": 100}, {"time": 10010, "pitch": 62, "duration": 110, "velocity": 100}, {"time": 10010, "pitch": 79, "duration": 110, "velocity": 100}, {"time": 10120, "pitch": 57, "duration": 55, "velocity": 100}, {"time": 10120, "pitch": 66, "duration": 110, "velocity": 100}, {"time": 10120, "pitch": 76, "duration": 220, "velocity": 100}, {"time": 10230, "pitch": 57, "duration": 55, "velocity": 100}, {"time": 10340, "pitch": 57, "duration": 55, "velocity": 100}, {"time": 10340, "pitch": 62, "duration": 110, "velocity": 100}, {"time": 10340, "pitch": 74, "duration": 110, "velocity": 100}, {"time": 10450, "pitch": 57, "duration": 55, "velocity": 100}, {"time": 10450, "pitch": 76, "duration": 110, "velocity": 100}, {"time": 10560, "pitch": 43, "duration": 715, "velocity": 100}, {"time": 10560, "pitch": 59, "duration": 220, "velocity": 100}, {"time": 10560, "pitch": 62, "duration": 165, "velocity": 100}, {"time": 10560, "pitch": 79, "duration": 440, "velocity": 100}, {"time": 10670, "pitch": 50, "duration": 385, "velocity": 100}, {"time": 10780, "pitch": 59, "duration": 220, "velocity": 100}, {"time": 10890, "pitch": 62, "duration": 110, "velocity": 100}, {"time": 11000, "pitch": 66, "duration": 220, "velocity": 100}, {"time": 11110, "pitch": 50, "duration": 165, "velocity": 100}, {"time": 11220, "pitch": 57, "duration": 55, "velocity": 100}, {"time": 11220, "pitch": 62, "duration": 110, "velocity": 100}, {"time": 11440, "pitch": 47, "duration": 330, "velocity": 100}, {"time": 11440, "pitch": 59, "duration": 220, "velocity": 100}, {"time": 11440, "pitch": 62, "duration": 220, "velocity": 100}, {"time": 11440, "pitch": 71, "duration": 440, "velocity": 100}, {"time": 11550, "pitch": 55, "duration": 220, "velocity": 100}, {"time": 11660, "pitch": 62, "duration": 110, "velocity": 100}, {"time": 11660, "pitch": 67, "duration": 110, "velocity": 100}, {"time": 11770, "pitch": 59, "duration": 110, "velocity": 100}, {"time": 11880, "pitch": 48, "duration": 275, "velocity": 100}, {"time": 11880, "pitch": 64, "duration": 330, "velocity": 100}, {"time": 11880, "pitch": 76, "duration": 440, "velocity": 100}, {"time": 11990, "pitch": 55, "duration": 165, "velocity": 100}, {"time": 12100, "pitch": 67, "duration": 110, "velocity": 100}, {"time": 12320, "pitch": 43, "duration": 275, "velocity": 100}, {"time": 12320, "pitch": 55, "duration": 110, "velocity": 100}, {"time": 12320, "pitch": 59, "duration": 220, "velocity": 100}, {"time": 12320, "pitch": 71, "duration": 440, "velocity": 100}, {"time": 12430, "pitch": 50, "duration": 165, "velocity": 100}, {"time": 12540, "pitch": 62, "duration": 110, "velocity": 100}, {"time": 12650, "pitch": 59, "duration": 110, "velocity": 100}, {"time": 12760, "pitch": 50, "duration": 275, "velocity": 100}, {"time": 12760, "pitch": 57, "duration": 55, "velocity": 100}, {"time": 12760, "pitch": 62, "duration": 220, "velocity": 100}, {"time": 12760, "pitch": 69, "duration": 220, "velocity": 100}, {"time": 12870, "pitch": 54, "duration": 165, "velocity": 100}, {"time": 12980, "pitch": 57, "duration": 55, "velocity": 100}, {"time": 12980, "pitch": 66, "duration": 55, "velocity": 100}, {"time": 13200, "pitch": 43, "duration": 715, "velocity": 100}, {"time": 13200, "pitch": 59, "duration": 220, "velocity": 100}, {"time": 13200, "pitch": 62, "duration": 440, "velocity": 100}, {"time": 13200, "pitch": 67, "duration": 440, "velocity": 100}, {"time": 13200, "pitch": 79, "duration": 440, "velocity": 100}, {"time": 13310, "pitch": 50, "duration": 275, "velocity": 100}, {"time": 13420, "pitch": 59, "duration": 275, "velocity": 100}, {"time": 13420, "pitch": 83, "duration": 110, "velocity": 100}, {"time": 13530, "pitch": 62, "duration": 110, "velocity": 100}, {"time": 13530, "pitch": 81, "duration": 110, "velocity": 100}, {"time": 13640, "pitch": 67, "duration": 220, "velocity": 100}, {"time": 13640, "pitch": 83, "duration": 110, "velocity": 100}, {"time": 13750, "pitch": 50, "duration": 165, "velocity": 100}, {"time": 13750, "pitch": 86, "duration": 110, "velocity": 100}, {"time": 13860, "pitch": 59, "duration": 220, "velocity": 100}, {"time": 13860, "pitch": 62, "duration": 220, "velocity": 100}, {"time": 13860, "pitch": 67, "duration": 220, "velocity": 100}, {"time": 13860, "pitch": 86, "duration": 110, "velocity": 100}, {"time": 13970, "pitch": 86, "duration": 110, "velocity": 100}, {"time": 14080, "pitch": 43, "duration": 330, "velocity": 100}, {"time": 14080, "pitch": 50, "duration": 55, "velocity": 100}, {"time": 14080, "pitch": 55, "duration": 110, "velocity": 100}, {"time": 14080, "pitch": 59, "duration": 110, "velocity": 100}, {"time": 14080, "pitch": 74, "duration": 330, "velocity": 100}, {"time": 14190, "pitch": 50, "duration": 55, "velocity": 100}, {"time": 14300, "pitch": 55, "duration": 55, "velocity": 100}, {"time": 14300, "pitch": 59, "duration": 110, "velocity": 100}, {"time": 14410, "pitch": 57, "duration": 55, "velocity": 100}, {"time": 14410, "pitch": 72, "duration": 110, "velocity": 100}, {"time": 14520, "pitch": 40, "duration": 330, "velocity": 100}, {"time": 14520, "pitch": 52, "duration": 110, "velocity": 100}, {"time": 14520, "pitch": 55, "duration": 110, "velocity": 100}, {"time": 14520, "pitch": 76, "duration": 220, "velocity": 100}, {"time": 14630, "pitch": 47, "duration": 220, "velocity": 100}, {"time": 14740, "pitch": 52, "duration": 55, "velocity": 100}, {"time": 14740, "pitch": 55, "duration": 110, "velocity": 100}, {"time": 14740, "pitch": 59, "duration": 110, "velocity": 100}, {"time": 14740, "pitch": 79, "duration": 220, "velocity": 100}, {"time": 14850, "pitch": 52, "duration": 55, "velocity": 100}, {"time": 14960, "pitch": 33, "duration": 330, "velocity": 100}, {"time": 14960, "pitch": 48, "duration": 165, "velocity": 100}, {"time": 14960, "pitch": 52, "duration": 110, "velocity": 100}, {"time": 14960, "pitch": 69, "duration": 220, "velocity": 100}, {"time": 15070, "pitch": 40, "duration": 220, "velocity": 100}, {"time": 15180, "pitch": 52, "duration": 55, "velocity": 100}, {"time": 15180, "pitch": 57, "duration": 110, "velocity": 100}, {"time": 15290, "pitch": 48, "duration": 55, "velocity": 100}, {"time": 15290, "pitch": 71, "duration": 110, "velocity": 100}, {"time": 15400, "pitch": 38, "duration": 330, "velocity": 100}, {"time": 15400, "pitch": 50, "duration": 55, "velocity": 100}, {"time": 15400, "pitch": 54, "duration": 110, "velocity": 100}, {"time": 15400, "pitch": 74, "duration": 440, "velocity": 100}, {"time": 15510, "pitch": 50, "duration": 55, "velocity": 100}, {"time": 15620, "pitch": 50, "duration": 55, "velocity": 100}, {"time": 15620, "pitch": 54, "duration": 110, "velocity": 100}, {"time": 15620, "pitch": 57, "duration": 110, "velocity": 100}, {"time": 15730, "pitch": 54, "duration": 55, "velocity": 100}, {"time": 15840, "pitch": 43, "duration": 385, "velocity": 100}, {"time": 15840, "pitch": 50, "duration": 55, "velocity": 100}, {"time": 15840, "pitch": 55, "duration": 165, "velocity": 100}, {"time": 15840, "pitch": 59, "duration": 165, "velocity": 100}, {"time": 15840, "pitch": 79, "duration": 330, "velocity": 100}, {"time": 15950, "pitch": 50, "duration": 55, "velocity": 100}, {"time": 16060, "pitch": 50, "duration": 55, "velocity": 100}, {"time": 16060, "pitch": 55, "duration": 110, "velocity": 100}, {"time": 16060, "pitch": 59, "duration": 110, "velocity": 100}, {"time": 16170, "pitch": 57, "duration": 110, "velocity": 100}, {"time": 16170, "pitch": 74, "duration": 110, "velocity": 100}, {"time": 16280, "pitch": 40, "duration": 385, "velocity": 100}, {"time": 16280, "pitch": 52, "duration": 165, "velocity": 100}, {"time": 16280, "pitch": 55, "duration": 165, "velocity": 100}, {"time": 16280, "pitch": 76, "duration": 330, "velocity": 100}, {"time": 16390, "pitch": 47, "duration": 275, "velocity": 100}, {"time": 16500, "pitch": 55, "duration": 55, "velocity": 100}, {"time": 16500, "pitch": 59, "duration": 55, "velocity": 100}, {"time": 16610, "pitch": 54, "duration": 55, "velocity": 100}, {"time": 16610, "pitch": 74, "duration": 110, "velocity": 100}, {"time": 16720, "pitch": 33, "duration": 330, "velocity": 100}, {"time": 16720, "pitch": 49, "duration": 110, "velocity": 100}, {"time": 16720, "pitch": 52, "duration": 110, "velocity": 100}, {"time": 16720, "pitch": 69, "duration": 440, "velocity": 100}, {"time": 16830, "pitch": 40, "duration": 275, "velocity": 100}, {"time": 16940, "pitch": 48, "duration": 55, "velocity": 100}, {"time": 16940, "pitch": 52, "duration": 110, "velocity": 100}, {"time": 17050, "pitch": 52, "duration": 110, "velocity": 100}, {"time": 17160, "pitch": 38, "duration": 330, "velocity": 100}, {"time": 17160, "pitch": 50, "duration": 110, "velocity": 100}, {"time": 17160, "pitch": 54, "duration": 110, "velocity": 100}, {"time": 17160, "pitch": 69, "duration": 220, "velocity": 100}, {"time": 17270, "pitch": 45, "duration": 165, "velocity": 100}, {"time": 17380, "pitch": 50, "duration": 110, "velocity": 100}, {"time": 17380, "pitch": 54, "duration": 220, "velocity": 100}, {"time": 17380, "pitch": 57, "duration": 220, "velocity": 100}, {"time": 17380, "pitch": 71, "duration": 220, "velocity": 100}, {"time": 17490, "pitch": 50, "duration": 110, "velocity": 100}, {"time": 17600, "pitch": 43, "duration": 385, "velocity": 100}, {"time": 17600, "pitch": 50, "duration": 55, "velocity": 100}, {"time": 17600, "pitch": 55, "duration": 110, "velocity": 100}, {"time": 17710, "pitch": 50, "duration": 55, "velocity": 100}, {"time": 17710, "pitch": 71, "duration": 110, "velocity": 100}, {"time": 17820, "pitch": 50, "duration": 55, "velocity": 100}, {"time": 17820, "pitch": 55, "duration": 110, "velocity": 100}, {"time": 17820, "pitch": 59, "duration": 110, "velocity": 100}, {"time": 17820, "pitch": 69, "duration": 110, "velocity": 100}, {"time": 17930, "pitch": 50, "duration": 55, "velocity": 100}, {"time": 17930, "pitch": 71, "duration": 110, "velocity": 100}, {"time": 18040, "pitch": 38, "duration": 330, "velocity": 100}, {"time": 18040, "pitch": 50, "duration": 55, "velocity": 100}, {"time": 18040, "pitch": 57, "duration": 110, "velocity": 100}, {"time": 18040, "pitch": 76, "duration": 220, "velocity": 100}, {"time": 18150, "pitch": 50, "duration": 110, "velocity": 100}, {"time": 18260, "pitch": 54, "duration": 110, "velocity": 100}, {"time": 18260, "pitch": 60, "duration": 220, "velocity": 100}, {"time": 18260, "pitch": 79, "duration": 110, "velocity": 100}, {"time": 18370, "pitch": 50, "duration": 110, "velocity": 100}, {"time": 18370, "pitch": 76, "duration": 110, "velocity": 100}, {"time": 18480, "pitch": 43, "duration": 330, "velocity": 100}, {"time": 18480, "pitch": 55, "duration": 110, "velocity": 100}, {"time": 18480, "pitch": 79, "duration": 220, "velocity": 100}, {"time": 18590, "pitch": 47, "duration": 55, "velocity": 100}, {"time": 18700, "pitch": 43, "duration": 165, "velocity": 100}, {"time": 18700, "pitch": 50, "duration": 55, "velocity": 100}, {"time": 18700, "pitch": 55, "duration": 110, "velocity": 100}, {"time": 18700, "pitch": 59, "duration": 110, "velocity": 100}, {"time": 18700, "pitch": 79, "duration": 110, "velocity": 100}, {"time": 18810, "pitch": 50, "duration": 55, "velocity": 100}, {"time": 18810, "pitch": 79, "duration": 110, "velocity": 100}, {"time": 18920, "pitch": 36, "duration": 385, "velocity": 100}, {"time": 18920, "pitch": 52, "duration": 55, "velocity": 100}, {"time": 18920, "pitch": 55, "duration": 110, "velocity": 100}, {"time": 18920, "pitch": 79, "duration": 220, "velocity": 100}, {"time": 19030, "pitch": 52, "duration": 110, "velocity": 100}, {"time": 19140, "pitch": 55, "duration": 110, "velocity": 100}, {"time": 19140, "pitch": 76, "duration": 165, "velocity": 100}, {"time": 19250, "pitch": 55, "duration": 55, "velocity": 100}, {"time": 19360, "pitch": 43, "duration": 330, "velocity": 100}, {"time": 19360, "pitch": 50, "duration": 55, "velocity": 100}, {"time": 19360, "pitch": 55, "duration": 110, "velocity": 100}, {"time": 19360, "pitch": 59, "duration": 110, "velocity": 100}, {"time": 19360, "pitch": 74, "duration": 330, "velocity": 100}, {"time": 19470, "pitch": 50, "duration": 55, "velocity": 100}, {"time": 19580, "pitch": 55, "duration": 55, "velocity": 100}, {"time": 19580, "pitch": 59, "duration": 110, "velocity": 100}, {"time": 19690, "pitch": 57, "duration": 55, "velocity": 100}, {"time": 19690, "pitch": 72, "duration": 110, "velocity": 100}, {"time": 19800, "pitch": 38, "duration": 330, "velocity": 100}, {"time": 19800, "pitch": 50, "duration": 110, "velocity": 100}, {"time": 19800, "pitch": 57, "duration": 110, "velocity": 100}, {"time": 19800, "pitch": 76, "duration": 220, "velocity": 100}, {"time": 19910, "pitch": 45, "duration": 220, "velocity": 100}, {"time": 20020, "pitch": 50, "duration": 55, "velocity": 100}, {"time": 20020, "pitch": 54, "duration": 110, "velocity": 100}, {"time": 20020, "pitch": 57, "duration": 110, "velocity": 100}, {"time": 20020, "pitch": 78, "duration": 220, "velocity": 100}, {"time": 20130, "pitch": 50, "duration": 55, "velocity": 100}, {"time": 20240, "pitch": 31, "duration": 330, "velocity": 100}, {"time": 20240, "pitch": 47, "duration": 165, "velocity": 100}, {"time": 20240, "pitch": 55, "duration": 110, "velocity": 100}, {"time": 20240, "pitch": 71, "duration": 220, "velocity": 100}, {"time": 20350, "pitch": 38, "duration": 220, "velocity": 100}, {"time": 20460, "pitch": 50, "duration": 55, "velocity": 100}, {"time": 20460, "pitch": 55, "duration": 220, "velocity": 100}, {"time": 20570, "pitch": 50, "duration": 55, "velocity": 100}, {"time": 20570, "pitch": 72, "duration": 110, "velocity": 100}, {"time": 20680, "pitch": 43, "duration": 330, "velocity": 100}, {"time": 20680, "pitch": 50, "duration": 55, "velocity": 100}, {"time": 20680, "pitch": 55, "duration": 110, "velocity": 100}, {"time": 20680, "pitch": 74, "duration": 440, "velocity": 100}, {"time": 20790, "pitch": 50, "duration": 55, "velocity": 100}, {"time": 20900, "pitch": 50, "duration": 55, "velocity": 100}, {"time": 20900, "pitch": 55, "duration": 110, "velocity": 100}, {"time": 20900, "pitch": 59, "duration": 110, "velocity": 100}, {"time": 21010, "pitch": 55, "duration": 55, "velocity": 100}, {"time": 21120, "pitch": 43, "duration": 330, "velocity": 100}, {"time": 21120, "pitch": 50, "duration": 55, "velocity": 100}, {"time": 21120, "pitch": 55, "duration": 165, "velocity": 100}, {"time": 21120, "pitch": 59, "duration": 165, "velocity": 100}, {"time": 21120, "pitch": 79, "duration": 330, "velocity": 100}, {"time": 21230, "pitch": 50, "duration": 55, "velocity": 100}, {"time": 21340, "pitch": 50, "duration": 55, "velocity": 100}, {"time": 21340, "pitch": 55, "duration": 110, "velocity": 100}, {"time": 21340, "pitch": 59, "duration": 110, "velocity": 100}, {"time": 21450, "pitch": 57, "duration": 55, "velocity": 100}, {"time": 21450, "pitch": 74, "duration": 110, "velocity": 100}, {"time": 21560, "pitch": 40, "duration": 385, "velocity": 100}, {"time": 21560, "pitch": 52, "duration": 110, "velocity": 100}, {"time": 21560, "pitch": 55, "duration": 165, "velocity": 100}, {"time": 21560, "pitch": 76, "duration": 330, "velocity": 100}, {"time": 21670, "pitch": 47, "duration": 275, "velocity": 100}, {"time": 21780, "pitch": 55, "duration": 55, "velocity": 100}, {"time": 21780, "pitch": 59, "duration": 55, "velocity": 100}, {"time": 21890, "pitch": 55, "duration": 55, "velocity": 100}, {"time": 21890, "pitch": 74, "duration": 110, "velocity": 100}, {"time": 22000, "pitch": 33, "duration": 330, "velocity": 100}, {"time": 22000, "pitch": 48, "duration": 110, "velocity": 100}, {"time": 22000, "pitch": 52, "duration": 110, "velocity": 100}, {"time": 22000, "pitch": 69, "duration": 440, "velocity": 100}, {"time": 22110, "pitch": 40, "duration": 275, "velocity": 100}, {"time": 22110, "pitch": 48, "duration": 110, "velocity": 100}, {"time": 22220, "pitch": 48, "duration": 55, "velocity": 100}, {"time": 22220, "pitch": 52, "duration": 110, "velocity": 100}, {"time": 22330, "pitch": 52, "duration": 110, "velocity": 100}, {"time": 22440, "pitch": 38, "duration": 330, "velocity": 100}, {"time": 22440, "pitch": 50, "duration": 110, "velocity": 100}, {"time": 22440, "pitch": 54, "duration": 165, "velocity": 100}, {"time": 22440, "pitch": 69, "duration": 165, "velocity": 100}, {"time": 22550, "pitch": 45, "duration": 165, "velocity": 100}, {"time": 22550, "pitch": 81, "duration": 55, "velocity": 100}, {"time": 22660, "pitch": 50, "duration": 55, "velocity": 100}, {"time": 22660, "pitch": 54, "duration": 220, "velocity": 100}, {"time": 22660, "pitch": 57, "duration": 220, "velocity": 100}, {"time": 22660, "pitch": 72, "duration": 220, "velocity": 100}, {"time": 22660, "pitch": 79, "duration": 110, "velocity": 100}, {"time": 22715, "pitch": 79, "duration": 55, "velocity": 100}, {"time": 22770, "pitch": 50, "duration": 110, "velocity": 100}, {"time": 22770, "pitch": 79, "duration": 55, "velocity": 100}, {"time": 22880, "pitch": 43, "duration": 385, "velocity": 100}, {"time": 22880, "pitch": 50, "duration": 55, "velocity": 100}, {"time": 22880, "pitch": 55, "duration": 110, "velocity": 100}, {"time": 22880, "pitch": 74, "duration": 110, "velocity": 100}, {"time": 22990, "pitch": 50, "duration": 55, "velocity": 100}, {"time": 22990, "pitch": 71, "duration": 110, "velocity": 100}, {"time": 23100, "pitch": 50, "duration": 55, "velocity": 100}, {"time": 23100, "pitch": 55, "duration": 110, "velocity": 100}, {"time": 23100, "pitch": 59, "duration": 110, "velocity": 100}, {"time": 23100, "pitch": 69, "duration": 110, "velocity": 100}, {"time": 23210, "pitch": 50, "duration": 55, "velocity": 100}, {"time": 23210, "pitch": 71, "duration": 110, "velocity": 100}, {"time": 23320, "pitch": 40, "duration": 330, "velocity": 100}, {"time": 23320, "pitch": 52, "duration": 110, "velocity": 100}, {"time": 23320, "pitch": 55, "duration": 110, "velocity": 100}, {"time": 23320, "pitch": 76, "duration": 220, "velocity": 100}, {"time": 23430, "pitch": 52, "duration": 110, "velocity": 100}, {"time": 23540, "pitch": 55, "duration": 110, "velocity": 100}, {"time": 23540, "pitch": 59, "duration": 110, "velocity": 100}, {"time": 23540, "pitch": 79, "duration": 110, "velocity": 100}, {"time": 23650, "pitch": 52, "duration": 110, "velocity": 100}, {"time": 23650, "pitch": 76, "duration": 110, "velocity": 100}, {"time": 23760, "pitch": 37, "duration": 330, "velocity": 100}, {"time": 23760, "pitch": 55, "duration": 110, "velocity": 100}, {"time": 23760, "pitch": 79, "duration": 220, "velocity": 100}, {"time": 23870, "pitch": 49, "duration": 55, "velocity": 100}, {"time": 23980, "pitch": 43, "duration": 165, "velocity": 100}, {"time": 23980, "pitch": 49, "duration": 55, "velocity": 100}, {"time": 23980, "pitch": 52, "duration": 110, "velocity": 100}, {"time": 23980, "pitch": 55, "duration": 110, "velocity": 100}, {"time": 23980, "pitch": 76, "duration": 110, "velocity": 100}, {"time": 24090, "pitch": 49, "duration": 55, "velocity": 100}, {"time": 24090, "pitch": 81, "duration": 110, "velocity": 100}, {"time": 24200, "pitch": 38, "duration": 385, "velocity": 100}, {"time": 24200, "pitch": 50, "duration": 55, "velocity": 100}, {"time": 24200, "pitch": 54, "duration": 110, "velocity": 100}, {"time": 24200, "pitch": 81, "duration": 110, "velocity": 100}, {"time": 24310, "pitch": 50, "duration": 110, "velocity": 100}, {"time": 24310, "pitch": 81, "duration": 110, "velocity": 100}, {"time": 24420, "pitch": 57, "duration": 55, "velocity": 100}, {"time": 24420, "pitch": 76, "duration": 165, "velocity": 100}, {"time": 24420, "pitch": 81, "duration": 165, "velocity": 100}, {"time": 24530, "pitch": 54, "duration": 55, "velocity": 100}, {"time": 24530, "pitch": 79, "duration": 55, "velocity": 100}, {"time": 24640, "pitch": 43, "duration": 330, "velocity": 100}, {"time": 24640, "pitch": 50, "duration": 55, "velocity": 100}, {"time": 24640, "pitch": 55, "duration": 110, "velocity": 100}, {"time": 24640, "pitch": 59, "duration": 165, "velocity": 100}, {"time": 24640, "pitch": 74, "duration": 220, "velocity": 100}, {"time": 24640, "pitch": 83, "duration": 220, "velocity": 100}, {"time": 24750, "pitch": 50, "duration": 55, "velocity": 100}, {"time": 24860, "pitch": 55, "duration": 55, "velocity": 100}, {"time": 24860, "pitch": 59, "duration": 110, "velocity": 100}, {"time": 24860, "pitch": 79, "duration": 110, "velocity": 100}, {"time": 24970, "pitch": 57, "duration": 55, "velocity": 100}, {"time": 24970, "pitch": 71, "duration": 110, "velocity": 100}, {"time": 25080, "pitch": 38, "duration": 330, "velocity": 100}, {"time": 25080, "pitch": 50, "duration": 110, "velocity": 100}, {"time": 25080, "pitch": 57, "duration": 110, "velocity": 100}, {"time": 25080, "pitch": 78, "duration": 220, "velocity": 100}, {"time": 25080, "pitch": 81, "duration": 220, "velocity": 100}, {"time": 25190, "pitch": 45, "duration": 220, "velocity": 100}, {"time": 25300, "pitch": 50, "duration": 55, "velocity": 100}, {"time": 25300, "pitch": 54, "duration": 110, "velocity": 100}, {"time": 25300, "pitch": 57, "duration": 110, "velocity": 100}, {"time": 25300, "pitch": 74, "duration": 165, "velocity": 100}, {"time": 25410, "pitch": 50, "duration": 55, "velocity": 100}, {"time": 25520, "pitch": 31, "duration": 330, "velocity": 100}, {"time": 25520, "pitch": 50, "duration": 165, "velocity": 100}, {"time": 25520, "pitch": 55, "duration": 110, "velocity": 100}, {"time": 25520, "pitch": 71, "duration": 110, "velocity": 100}, {"time": 25630, "pitch": 43, "duration": 220, "velocity": 100}, {"time": 25740, "pitch": 50, "duration": 110, "velocity": 100}, {"time": 25740, "pitch": 55, "duration": 110, "velocity": 100}, {"time": 25850, "pitch": 50, "duration": 55, "velocity": 100}, {"time": 25850, "pitch": 69, "duration": 110, "velocity": 100}, {"time": 25960, "pitch": 48, "duration": 275, "velocity": 100}, {"time": 25960, "pitch": 52, "duration": 55, "velocity": 100}, {"time": 25960, "pitch": 60, "duration": 110, "velocity": 100}, {"time": 26015, "pitch": 55, "duration": 55, "velocity": 100}, {"time": 26180, "pitch": 55, "duration": 55, "velocity": 100}, {"time": 26180, "pitch": 60, "duration": 55, "velocity": 100}, {"time": 26180, "pitch": 64, "duration": 55, "velocity": 100}, {"time": 26400, "pitch": 43, "duration": 55, "velocity": 100}, {"time": 26400, "pitch": 50, "duration": 55, "velocity": 100}, {"time": 26400, "pitch": 55, "duration": 55, "velocity": 100}, {"time": 26400, "pitch": 59, "duration": 55, "velocity": 100}, {"time": 26620, "pitch": 43, "duration": 110, "velocity": 100}, {"time": 26620, "pitch": 55, "duration": 110, "velocity": 100}, {"time": 26620, "pitch": 59, "duration": 110, "velocity": 100}, {"time": 26620, "pitch": 62, "duration": 110, "velocity": 100}, {"time": 26840, "pitch": 45, "duration": 110, "velocity": 100}, {"time": 26840, "pitch": 50, "duration": 55, "velocity": 100}, {"time": 26840, "pitch": 57, "duration": 165, "velocity": 100}, {"time": 26840, "pitch": 60, "duration": 110, "velocity": 100}, {"time": 27060, "pitch": 38, "duration": 220, "velocity": 100}, {"time": 27060, "pitch": 50, "duration": 165, "velocity": 100}, {"time": 27060, "pitch": 54, "duration": 165, "velocity": 100}, {"time": 27060, "pitch": 57, "duration": 55, "velocity": 100}, {"time": 27280, "pitch": 31, "duration": 880, "velocity": 100}, {"time": 27280, "pitch": 38, "duration": 880, "velocity": 100}, {"time": 27280, "pitch": 50, "duration": 880, "velocity": 100}, {"time": 27280, "pitch": 55, "duration": 825, "velocity": 100}, {"time": 27280, "pitch": 62, "duration": 880, "velocity": 100}]}]}