{"metadata": {"schema_version": "0.1", "title": "None", "source_filename": "20211210_091106.mid", "source_format": "midi"}, "resolution": 220, "tempos": [{"time": 0, "qpm": 120.0}], "time_signatures": [{"time": 0, "numerator": 4, "denominator": 4}], "tracks": [{"program": 0, "is_drum": false, "name": "Piano", "notes": [{"time": 0, "pitch": 83, "duration": 165, "velocity": 100}, {"time": 165, "pitch": 81, "duration": 110, "velocity": 100}, {"time": 385, "pitch": 81, "duration": 110, "velocity": 100}, {"time": 550, "pitch": 83, "duration": 55, "velocity": 100}, {"time": 660, "pitch": 81, "duration": 220, "velocity": 100}, {"time": 935, "pitch": 79, "duration": 110, "velocity": 100}, {"time": 1045, "pitch": 83, "duration": 330, "velocity": 100}, {"time": 1430, "pitch": 76, "duration": 110, "velocity": 100}, {"time": 1540, "pitch": 79, "duration": 110, "velocity": 100}, {"time": 1705, "pitch": 86, "duration": 55, "velocity": 100}, {"time": 1925, "pitch": 86, "duration": 110, "velocity": 100}, {"time": 2090, "pitch": 84, "duration": 55, "velocity": 100}, {"time": 2200, "pitch": 84, "duration": 110, "velocity": 100}, {"time": 2310, "pitch": 83, "duration": 165, "velocity": 100}, {"time": 2475, "pitch": 81, "duration": 55, "velocity": 100}, {"time": 2585, "pitch": 79, "duration": 110, "velocity": 100}, {"time": 2695, "pitch": 81, "duration": 275, "velocity": 100}, {"time": 2970, "pitch": 83, "duration": 110, "velocity": 100}, {"time": 3080, "pitch": 83, "duration": 440, "velocity": 100}, {"time": 4125, "pitch": 83, "duration": 110, "velocity": 100}, {"time": 4235, "pitch": 81, "duration": 165, "velocity": 100}, {"time": 4510, "pitch": 81, "duration": 110, "velocity": 100}, {"time": 4620, "pitch": 83, "duration": 110, "velocity": 100}, {"time": 4730, "pitch": 81, "duration": 275, "velocity": 100}, {"time": 5005, "pitch": 79, "duration": 110, "velocity": 100}, {"time": 5115, "pitch": 83, "duration": 165, "velocity": 100}, {"time": 5500, "pitch": 76, "duration": 165, "velocity": 100}, {"time": 5665, "pitch": 78, "duration": 55, "velocity": 100}, {"time": 5775, "pitch": 79, "duration": 660, "velocity": 100}, {"time": 6545, "pitch": 79, "duration": 110, "velocity": 100}, {"time": 6655, "pitch": 81, "duration": 110, "velocity": 100}, {"time": 6820, "pitch": 84, "duration": 220, "velocity": 100}, {"time": 7040, "pitch": 84, "duration": 110, "velocity": 100}, {"time": 7205, "pitch": 83, "duration": 55, "velocity": 100}, {"time": 7315, "pitch": 83, "duration": 110, "velocity": 100}, {"time": 7425, "pitch": 79, "duration": 110, "velocity": 100}, {"time": 7590, "pitch": 79, "duration": 55, "velocity": 100}, {"time": 7700, "pitch": 81, "duration": 275, "velocity": 100}, {"time": 7975, "pitch": 78, "duration": 110, "velocity": 100}, {"time": 8085, "pitch": 76, "duration": 715, "velocity": 100}, {"time": 0, "pitch": 47, "duration": 220, "velocity": 100}, {"time": 0, "pitch": 59, "duration": 110, "velocity": 100}, {"time": 0, "pitch": 62, "duration": 110, "velocity": 100}, {"time": 110, "pitch": 54, "duration": 110, "velocity": 100}, {"time": 220, "pitch": 50, "duration": 55, "velocity": 100}, {"time": 220, "pitch": 57, "duration": 55, "velocity": 100}, {"time": 220, "pitch": 62, "duration": 110, "velocity": 100}, {"time": 330, "pitch": 57, "duration": 55, "velocity": 100}, {"time": 440, "pitch": 47, "duration": 330, "velocity": 100}, {"time": 440, "pitch": 54, "duration": 220, "velocity": 100}, {"time": 440, "pitch": 59, "duration": 440, "velocity": 100}, {"time": 550, "pitch": 50, "duration": 220, "velocity": 100}, {"time": 550, "pitch": 83, "duration": 55, "velocity": 100}, {"time": 605, "pitch": 85, "duration": 55, "velocity": 100}, {"time": 660, "pitch": 62, "duration": 110, "velocity": 100}, {"time": 660, "pitch": 83, "duration": 55, "velocity": 100}, {"time": 715, "pitch": 85, "duration": 55, "velocity": 100}, {"time": 880, "pitch": 47, "duration": 330, "velocity": 100}, {"time": 880, "pitch": 59, "duration": 165, "velocity": 100}, {"time": 880, "pitch": 62, "duration": 220, "velocity": 100}, {"time": 880, "pitch": 86, "duration": 220, "velocity": 100}, {"time": 990, "pitch": 54, "duration": 220, "velocity": 100}, {"time": 1100, "pitch": 66, "duration": 110, "velocity": 100}, {"time": 1100, "pitch": 71, "duration": 110, "velocity": 100}, {"time": 1210, "pitch": 62, "duration": 110, "velocity": 100}, {"time": 1210, "pitch": 69, "duration": 110, "velocity": 100}, {"time": 1320, "pitch": 47, "duration": 275, "velocity": 100}, {"time": 1320, "pitch": 66, "duration": 440, "velocity": 100}, {"time": 1430, "pitch": 54, "duration": 165, "velocity": 100}, {"time": 1540, "pitch": 59, "duration": 110, "velocity": 100}, {"time": 1540, "pitch": 62, "duration": 110, "velocity": 100}, {"time": 1760, "pitch": 47, "duration": 275, "velocity": 100}, {"time": 1760, "pitch": 59, "duration": 220, "velocity": 100}, {"time": 1760, "pitch": 62, "duration": 220, "velocity": 100}, {"time": 1760, "pitch": 66, "duration": 220, "velocity": 100}, {"time": 1870, "pitch": 54, "duration": 165, "velocity": 100}, {"time": 1980, "pitch": 62, "duration": 110, "velocity": 100}, {"time": 1980, "pitch": 66, "duration": 110, "velocity": 100}, {"time": 2090, "pitch": 59, "duration": 110, "velocity": 100}, {"time": 2090, "pitch": 62, "duration": 110, "velocity": 100}, {"time": 2200, "pitch": 47, "duration": 275, "velocity": 100}, {"time": 2200, "pitch": 62, "duration": 275, "velocity": 100}, {"time": 2310, "pitch": 54, "duration": 165, "velocity": 100}, {"time": 2420, "pitch": 59, "duration": 55, "velocity": 100}, {"time": 2420, "pitch": 62, "duration": 220, "velocity": 100}, {"time": 2640, "pitch": 47, "duration": 330, "velocity": 100}, {"time": 2640, "pitch": 59, "duration": 165, "velocity": 100}, {"time": 2640, "pitch": 62, "duration": 220, "velocity": 100}, {"time": 2750, "pitch": 50, "duration": 275, "velocity": 100}, {"time": 2750, "pitch": 59, "duration": 110, "velocity": 100}, {"time": 2860, "pitch": 54, "duration": 55, "velocity": 100}, {"time": 2860, "pitch": 61, "duration": 55, "velocity": 100}, {"time": 2915, "pitch": 64, "duration": 55, "velocity": 100}, {"time": 2970, "pitch": 62, "duration": 55, "velocity": 100}, {"time": 2970, "pitch": 69, "duration": 55, "velocity": 100}, {"time": 3025, "pitch": 69, "duration": 55, "velocity": 100}, {"time": 3080, "pitch": 47, "duration": 275, "velocity": 100}, {"time": 3080, "pitch": 59, "duration": 165, "velocity": 100}, {"time": 3080, "pitch": 62, "duration": 220, "velocity": 100}, {"time": 3080, "pitch": 66, "duration": 220, "velocity": 100}, {"time": 3190, "pitch": 50, "duration": 165, "velocity": 100}, {"time": 3300, "pitch": 59, "duration": 55, "velocity": 100}, {"time": 3300, "pitch": 62, "duration": 110, "velocity": 100}, {"time": 3410, "pitch": 57, "duration": 55, "velocity": 100}, {"time": 3520, "pitch": 47, "duration": 440, "velocity": 100}, {"time": 3520, "pitch": 59, "duration": 55, "velocity": 100}, {"time": 3520, "pitch": 62, "duration": 110, "velocity": 100}, {"time": 3630, "pitch": 57, "duration": 55, "velocity": 100}, {"time": 3740, "pitch": 62, "duration": 220, "velocity": 100}, {"time": 3740, "pitch": 71, "duration": 440, "velocity": 100}, {"time": 3850, "pitch": 57, "duration": 110, "velocity": 100}, {"time": 3960, "pitch": 50, "duration": 440, "velocity": 100}, {"time": 3960, "pitch": 62, "duration": 220, "velocity": 100}, {"time": 4070, "pitch": 57, "duration": 110, "velocity": 100}, {"time": 4180, "pitch": 59, "duration": 55, "velocity": 100}, {"time": 4180, "pitch": 62, "duration": 220, "velocity": 100}, {"time": 4180, "pitch": 66, "duration": 220, "velocity": 100}, {"time": 4290, "pitch": 57, "duration": 110, "velocity": 100}, {"time": 4400, "pitch": 47, "duration": 880, "velocity": 100}, {"time": 4400, "pitch": 54, "duration": 55, "velocity": 100}, {"time": 4400, "pitch": 62, "duration": 110, "velocity": 100}, {"time": 4510, "pitch": 59, "duration": 110, "velocity": 100}, {"time": 4620, "pitch": 62, "duration": 110, "velocity": 100}, {"time": 4895, "pitch": 61, "duration": 55, "velocity": 100}, {"time": 5115, "pitch": 59, "duration": 55, "velocity": 100}, {"time": 5280, "pitch": 54, "duration": 110, "velocity": 100}, {"time": 5390, "pitch": 47, "duration": 770, "velocity": 100}, {"time": 5390, "pitch": 59, "duration": 110, "velocity": 100}, {"time": 5390, "pitch": 62, "duration": 165, "velocity": 100}, {"time": 5390, "pitch": 66, "duration": 55, "velocity": 100}, {"time": 5500, "pitch": 54, "duration": 550, "velocity": 100}, {"time": 5610, "pitch": 59, "duration": 220, "velocity": 100}, {"time": 5610, "pitch": 62, "duration": 220, "velocity": 100}, {"time": 5885, "pitch": 59, "duration": 110, "velocity": 100}, {"time": 5885, "pitch": 62, "duration": 110, "velocity": 100}, {"time": 6105, "pitch": 62, "duration": 55, "velocity": 100}, {"time": 6325, "pitch": 47, "duration": 55, "velocity": 100}, {"time": 6380, "pitch": 62, "duration": 55, "velocity": 100}, {"time": 6490, "pitch": 47, "duration": 495, "velocity": 100}, {"time": 6600, "pitch": 54, "duration": 55, "velocity": 100}, {"time": 6600, "pitch": 59, "duration": 55, "velocity": 100}, {"time": 6600, "pitch": 62, "duration": 55, "velocity": 100}, {"time": 6875, "pitch": 59, "duration": 55, "velocity": 100}, {"time": 7040, "pitch": 60, "duration": 110, "velocity": 100}, {"time": 7425, "pitch": 43, "duration": 275, "velocity": 100}, {"time": 7480, "pitch": 55, "duration": 55, "velocity": 100}, {"time": 8085, "pitch": 43, "duration": 715, "velocity": 100}, {"time": 8140, "pitch": 48, "duration": 660, "velocity": 100}, {"time": 8195, "pitch": 52, "duration": 55, "velocity": 100}, {"time": 8250, "pitch": 60, "duration": 110, "velocity": 100}, {"time": 8360, "pitch": 60, "duration": 55, "velocity": 100}, {"time": 8415, "pitch": 67, "duration": 55, "velocity": 100}, {"time": 8470, "pitch": 67, "duration": 55, "velocity": 100}, {"time": 8635, "pitch": 72, "duration": 55, "velocity": 100}]}]}