{"metadata": {"schema_version": "0.1", "title": "None", "source_filename": "20211210_091216.mid", "source_format": "midi"}, "resolution": 220, "tempos": [{"time": 0, "qpm": 120.0}], "time_signatures": [{"time": 0, "numerator": 4, "denominator": 4}], "tracks": [{"program": 0, "is_drum": false, "name": "Piano", "notes": [{"time": 1705, "pitch": 75, "duration": 55, "velocity": 100}, {"time": 1760, "pitch": 75, "duration": 55, "velocity": 100}, {"time": 1870, "pitch": 75, "duration": 110, "velocity": 100}, {"time": 1980, "pitch": 70, "duration": 55, "velocity": 100}, {"time": 2035, "pitch": 75, "duration": 110, "velocity": 100}, {"time": 2145, "pitch": 79, "duration": 55, "velocity": 100}, {"time": 2200, "pitch": 77, "duration": 220, "velocity": 100}, {"time": 2420, "pitch": 79, "duration": 550, "velocity": 100}, {"time": 3135, "pitch": 75, "duration": 55, "velocity": 100}, {"time": 3190, "pitch": 75, "duration": 165, "velocity": 100}, {"time": 3355, "pitch": 70, "duration": 110, "velocity": 100}, {"time": 3465, "pitch": 75, "duration": 55, "velocity": 100}, {"time": 3575, "pitch": 79, "duration": 55, "velocity": 100}, {"time": 3630, "pitch": 77, "duration": 825, "velocity": 100}, {"time": 4565, "pitch": 75, "duration": 110, "velocity": 100}, {"time": 4730, "pitch": 75, "duration": 110, "velocity": 100}, {"time": 4840, "pitch": 70, "duration": 110, "velocity": 100}, {"time": 4950, "pitch": 75, "duration": 55, "velocity": 100}, {"time": 5005, "pitch": 79, "duration": 110, "velocity": 100}, {"time": 5115, "pitch": 80, "duration": 55, "velocity": 100}, {"time": 5170, "pitch": 79, "duration": 110, "velocity": 100}, {"time": 5280, "pitch": 75, "duration": 330, "velocity": 100}, {"time": 5665, "pitch": 72, "duration": 110, "velocity": 100}, {"time": 5775, "pitch": 80, "duration": 110, "velocity": 100}, {"time": 5885, "pitch": 79, "duration": 55, "velocity": 100}, {"time": 5940, "pitch": 75, "duration": 330, "velocity": 100}, {"time": 6435, "pitch": 70, "duration": 110, "velocity": 100}, {"time": 6545, "pitch": 75, "duration": 110, "velocity": 100}, {"time": 6655, "pitch": 70, "duration": 55, "velocity": 100}, {"time": 6710, "pitch": 75, "duration": 110, "velocity": 100}, {"time": 6820, "pitch": 79, "duration": 55, "velocity": 100}, {"time": 6875, "pitch": 82, "duration": 165, "velocity": 100}, {"time": 7480, "pitch": 82, "duration": 55, "velocity": 100}, {"time": 7590, "pitch": 82, "duration": 110, "velocity": 100}, {"time": 7700, "pitch": 80, "duration": 55, "velocity": 100}, {"time": 7755, "pitch": 79, "duration": 110, "velocity": 100}, {"time": 7865, "pitch": 80, "duration": 55, "velocity": 100}, {"time": 7920, "pitch": 82, "duration": 110, "velocity": 100}, {"time": 8030, "pitch": 75, "duration": 220, "velocity": 100}, {"time": 8525, "pitch": 75, "duration": 55, "velocity": 100}, {"time": 8635, "pitch": 77, "duration": 165, "velocity": 100}, {"time": 8800, "pitch": 79, "duration": 110, "velocity": 100}, {"time": 8910, "pitch": 75, "duration": 330, "velocity": 100}, {"time": 9295, "pitch": 77, "duration": 55, "velocity": 100}, {"time": 9350, "pitch": 79, "duration": 165, "velocity": 100}, {"time": 9515, "pitch": 77, "duration": 165, "velocity": 100}, {"time": 9680, "pitch": 75, "duration": 55, "velocity": 100}, {"time": 9735, "pitch": 77, "duration": 165, "velocity": 100}, {"time": 9900, "pitch": 79, "duration": 165, "velocity": 100}, {"time": 10065, "pitch": 84, "duration": 495, "velocity": 100}, {"time": 10945, "pitch": 75, "duration": 55, "velocity": 100}, {"time": 11055, "pitch": 75, "duration": 55, "velocity": 100}, {"time": 11110, "pitch": 75, "duration": 110, "velocity": 100}, {"time": 11220, "pitch": 70, "duration": 110, "velocity": 100}, {"time": 11330, "pitch": 75, "duration": 110, "velocity": 100}, {"time": 11440, "pitch": 79, "duration": 55, "velocity": 100}, {"time": 11495, "pitch": 77, "duration": 275, "velocity": 100}, {"time": 11770, "pitch": 79, "duration": 495, "velocity": 100}, {"time": 12320, "pitch": 75, "duration": 55, "velocity": 100}, {"time": 12375, "pitch": 75, "duration": 110, "velocity": 100}, {"time": 12485, "pitch": 75, "duration": 55, "velocity": 100}, {"time": 12540, "pitch": 75, "duration": 165, "velocity": 100}, {"time": 12705, "pitch": 70, "duration": 55, "velocity": 100}, {"time": 12760, "pitch": 75, "duration": 110, "velocity": 100}, {"time": 12870, "pitch": 79, "duration": 55, "velocity": 100}, {"time": 12925, "pitch": 77, "duration": 165, "velocity": 100}, {"time": 13090, "pitch": 75, "duration": 495, "velocity": 100}, {"time": 14355, "pitch": 75, "duration": 165, "velocity": 100}, {"time": 14520, "pitch": 74, "duration": 220, "velocity": 100}, {"time": 14740, "pitch": 75, "duration": 1100, "velocity": 100}, {"time": 0, "pitch": 45, "duration": 385, "velocity": 100}, {"time": 110, "pitch": 53, "duration": 330, "velocity": 100}, {"time": 220, "pitch": 58, "duration": 220, "velocity": 100}, {"time": 220, "pitch": 62, "duration": 220, "velocity": 100}, {"time": 220, "pitch": 70, "duration": 220, "velocity": 100}, {"time": 440, "pitch": 35, "duration": 275, "velocity": 100}, {"time": 440, "pitch": 52, "duration": 165, "velocity": 100}, {"time": 440, "pitch": 58, "duration": 110, "velocity": 100}, {"time": 550, "pitch": 46, "duration": 110, "velocity": 100}, {"time": 660, "pitch": 52, "duration": 55, "velocity": 100}, {"time": 660, "pitch": 57, "duration": 55, "velocity": 100}, {"time": 660, "pitch": 60, "duration": 55, "velocity": 100}, {"time": 715, "pitch": 50, "duration": 55, "velocity": 100}, {"time": 715, "pitch": 57, "duration": 55, "velocity": 100}, {"time": 770, "pitch": 52, "duration": 55, "velocity": 100}, {"time": 770, "pitch": 58, "duration": 55, "velocity": 100}, {"time": 825, "pitch": 55, "duration": 55, "velocity": 100}, {"time": 825, "pitch": 57, "duration": 55, "velocity": 100}, {"time": 880, "pitch": 45, "duration": 275, "velocity": 100}, {"time": 880, "pitch": 52, "duration": 55, "velocity": 100}, {"time": 880, "pitch": 55, "duration": 220, "velocity": 100}, {"time": 990, "pitch": 51, "duration": 55, "velocity": 100}, {"time": 1100, "pitch": 52, "duration": 110, "velocity": 100}, {"time": 1100, "pitch": 60, "duration": 220, "velocity": 100}, {"time": 1210, "pitch": 57, "duration": 165, "velocity": 100}, {"time": 1320, "pitch": 37, "duration": 330, "velocity": 100}, {"time": 1320, "pitch": 52, "duration": 220, "velocity": 100}, {"time": 1320, "pitch": 55, "duration": 220, "velocity": 100}, {"time": 1430, "pitch": 48, "duration": 165, "velocity": 100}, {"time": 1540, "pitch": 55, "duration": 110, "velocity": 100}, {"time": 1540, "pitch": 58, "duration": 110, "velocity": 100}, {"time": 1595, "pitch": 60, "duration": 55, "velocity": 100}, {"time": 1650, "pitch": 50, "duration": 110, "velocity": 100}, {"time": 1705, "pitch": 53, "duration": 55, "velocity": 100}, {"time": 1760, "pitch": 43, "duration": 220, "velocity": 100}, {"time": 1760, "pitch": 51, "duration": 165, "velocity": 100}, {"time": 1760, "pitch": 55, "duration": 220, "velocity": 100}, {"time": 1870, "pitch": 53, "duration": 55, "velocity": 100}, {"time": 1980, "pitch": 55, "duration": 110, "velocity": 100}, {"time": 1980, "pitch": 58, "duration": 220, "velocity": 100}, {"time": 2090, "pitch": 53, "duration": 110, "velocity": 100}, {"time": 2090, "pitch": 56, "duration": 110, "velocity": 100}, {"time": 2200, "pitch": 39, "duration": 330, "velocity": 100}, {"time": 2200, "pitch": 51, "duration": 220, "velocity": 100}, {"time": 2200, "pitch": 55, "duration": 220, "velocity": 100}, {"time": 2310, "pitch": 46, "duration": 110, "velocity": 100}, {"time": 2420, "pitch": 51, "duration": 55, "velocity": 100}, {"time": 2420, "pitch": 55, "duration": 110, "velocity": 100}, {"time": 2475, "pitch": 56, "duration": 55, "velocity": 100}, {"time": 2530, "pitch": 53, "duration": 55, "velocity": 100}, {"time": 2530, "pitch": 56, "duration": 55, "velocity": 100}, {"time": 2585, "pitch": 53, "duration": 55, "velocity": 100}, {"time": 2585, "pitch": 58, "duration": 55, "velocity": 100}, {"time": 2640, "pitch": 39, "duration": 275, "velocity": 100}, {"time": 2640, "pitch": 51, "duration": 220, "velocity": 100}, {"time": 2640, "pitch": 55, "duration": 220, "velocity": 100}, {"time": 2860, "pitch": 51, "duration": 55, "velocity": 100}, {"time": 2860, "pitch": 55, "duration": 110, "velocity": 100}, {"time": 2860, "pitch": 58, "duration": 110, "velocity": 100}, {"time": 2970, "pitch": 51, "duration": 110, "velocity": 100}, {"time": 2970, "pitch": 56, "duration": 110, "velocity": 100}, {"time": 3080, "pitch": 39, "duration": 385, "velocity": 100}, {"time": 3080, "pitch": 51, "duration": 220, "velocity": 100}, {"time": 3080, "pitch": 55, "duration": 220, "velocity": 100}, {"time": 3190, "pitch": 46, "duration": 275, "velocity": 100}, {"time": 3300, "pitch": 51, "duration": 55, "velocity": 100}, {"time": 3300, "pitch": 55, "duration": 110, "velocity": 100}, {"time": 3300, "pitch": 58, "duration": 110, "velocity": 100}, {"time": 3300, "pitch": 67, "duration": 55, "velocity": 100}, {"time": 3355, "pitch": 68, "duration": 55, "velocity": 100}, {"time": 3410, "pitch": 51, "duration": 55, "velocity": 100}, {"time": 3465, "pitch": 72, "duration": 55, "velocity": 100}, {"time": 3520, "pitch": 43, "duration": 385, "velocity": 100}, {"time": 3520, "pitch": 50, "duration": 55, "velocity": 100}, {"time": 3520, "pitch": 55, "duration": 110, "velocity": 100}, {"time": 3520, "pitch": 70, "duration": 110, "velocity": 100}, {"time": 3630, "pitch": 50, "duration": 55, "velocity": 100}, {"time": 3685, "pitch": 69, "duration": 55, "velocity": 100}, {"time": 3740, "pitch": 50, "duration": 55, "velocity": 100}, {"time": 3740, "pitch": 55, "duration": 55, "velocity": 100}, {"time": 3795, "pitch": 65, "duration": 55, "velocity": 100}, {"time": 3850, "pitch": 58, "duration": 110, "velocity": 100}, {"time": 3960, "pitch": 43, "duration": 275, "velocity": 100}, {"time": 3960, "pitch": 50, "duration": 110, "velocity": 100}, {"time": 3960, "pitch": 55, "duration": 110, "velocity": 100}, {"time": 4070, "pitch": 46, "duration": 110, "velocity": 100}, {"time": 4180, "pitch": 50, "duration": 55, "velocity": 100}, {"time": 4180, "pitch": 55, "duration": 55, "velocity": 100}, {"time": 4180, "pitch": 58, "duration": 110, "velocity": 100}, {"time": 4180, "pitch": 62, "duration": 110, "velocity": 100}, {"time": 4235, "pitch": 38, "duration": 55, "velocity": 100}, {"time": 4290, "pitch": 50, "duration": 55, "velocity": 100}, {"time": 4290, "pitch": 57, "duration": 110, "velocity": 100}, {"time": 4400, "pitch": 43, "duration": 330, "velocity": 100}, {"time": 4400, "pitch": 50, "duration": 55, "velocity": 100}, {"time": 4400, "pitch": 55, "duration": 110, "velocity": 100}, {"time": 4400, "pitch": 58, "duration": 165, "velocity": 100}, {"time": 4510, "pitch": 50, "duration": 55, "velocity": 100}, {"time": 4620, "pitch": 50, "duration": 55, "velocity": 100}, {"time": 4620, "pitch": 55, "duration": 55, "velocity": 100}, {"time": 4730, "pitch": 55, "duration": 55, "velocity": 100}, {"time": 4730, "pitch": 57, "duration": 55, "velocity": 100}, {"time": 4785, "pitch": 55, "duration": 55, "velocity": 100}, {"time": 4840, "pitch": 43, "duration": 330, "velocity": 100}, {"time": 4840, "pitch": 50, "duration": 165, "velocity": 100}, {"time": 4840, "pitch": 55, "duration": 220, "velocity": 100}, {"time": 4950, "pitch": 46, "duration": 165, "velocity": 100}, {"time": 5060, "pitch": 55, "duration": 55, "velocity": 100}, {"time": 5060, "pitch": 58, "duration": 220, "velocity": 100}, {"time": 5060, "pitch": 62, "duration": 220, "velocity": 100}, {"time": 5170, "pitch": 43, "duration": 55, "velocity": 100}, {"time": 5225, "pitch": 50, "duration": 55, "velocity": 100}, {"time": 5280, "pitch": 43, "duration": 275, "velocity": 100}, {"time": 5280, "pitch": 50, "duration": 55, "velocity": 100}, {"time": 5280, "pitch": 55, "duration": 220, "velocity": 100}, {"time": 5280, "pitch": 58, "duration": 275, "velocity": 100}, {"time": 5390, "pitch": 50, "duration": 55, "velocity": 100}, {"time": 5500, "pitch": 55, "duration": 110, "velocity": 100}, {"time": 5500, "pitch": 58, "duration": 220, "velocity": 100}, {"time": 5610, "pitch": 50, "duration": 110, "velocity": 100}, {"time": 5610, "pitch": 55, "duration": 110, "velocity": 100}, {"time": 5610, "pitch": 57, "duration": 110, "velocity": 100}, {"time": 5720, "pitch": 31, "duration": 385, "velocity": 100}, {"time": 5720, "pitch": 50, "duration": 110, "velocity": 100}, {"time": 5720, "pitch": 55, "duration": 110, "velocity": 100}, {"time": 5720, "pitch": 62, "duration": 220, "velocity": 100}, {"time": 5830, "pitch": 43, "duration": 110, "velocity": 100}, {"time": 5940, "pitch": 50, "duration": 55, "velocity": 100}, {"time": 5940, "pitch": 55, "duration": 55, "velocity": 100}, {"time": 5995, "pitch": 43, "duration": 55, "velocity": 100}, {"time": 5995, "pitch": 57, "duration": 55, "velocity": 100}, {"time": 6050, "pitch": 50, "duration": 55, "velocity": 100}, {"time": 6050, "pitch": 57, "duration": 55, "velocity": 100}, {"time": 6105, "pitch": 55, "duration": 55, "velocity": 100}, {"time": 6105, "pitch": 62, "duration": 55, "velocity": 100}, {"time": 6160, "pitch": 43, "duration": 330, "velocity": 100}, {"time": 6160, "pitch": 50, "duration": 55, "velocity": 100}, {"time": 6160, "pitch": 55, "duration": 165, "velocity": 100}, {"time": 6160, "pitch": 58, "duration": 165, "velocity": 100}, {"time": 6380, "pitch": 50, "duration": 110, "velocity": 100}, {"time": 6380, "pitch": 58, "duration": 220, "velocity": 100}, {"time": 6490, "pitch": 50, "duration": 110, "velocity": 100}, {"time": 6600, "pitch": 43, "duration": 385, "velocity": 100}, {"time": 6600, "pitch": 50, "duration": 165, "velocity": 100}, {"time": 6600, "pitch": 55, "duration": 165, "velocity": 100}, {"time": 6600, "pitch": 67, "duration": 110, "velocity": 100}, {"time": 6710, "pitch": 46, "duration": 220, "velocity": 100}, {"time": 6765, "pitch": 69, "duration": 55, "velocity": 100}, {"time": 6820, "pitch": 50, "duration": 55, "velocity": 100}, {"time": 6820, "pitch": 55, "duration": 110, "velocity": 100}, {"time": 6820, "pitch": 58, "duration": 55, "velocity": 100}, {"time": 6875, "pitch": 67, "duration": 165, "velocity": 100}, {"time": 6930, "pitch": 50, "duration": 55, "velocity": 100}, {"time": 7040, "pitch": 38, "duration": 385, "velocity": 100}, {"time": 7040, "pitch": 58, "duration": 110, "velocity": 100}, {"time": 7040, "pitch": 60, "duration": 55, "velocity": 100}, {"time": 7040, "pitch": 62, "duration": 110, "velocity": 100}, {"time": 7040, "pitch": 65, "duration": 220, "velocity": 100}, {"time": 7040, "pitch": 67, "duration": 220, "velocity": 100}, {"time": 7150, "pitch": 50, "duration": 110, "velocity": 100}, {"time": 7205, "pitch": 53, "duration": 55, "velocity": 100}, {"time": 7260, "pitch": 53, "duration": 55, "velocity": 100}, {"time": 7260, "pitch": 60, "duration": 110, "velocity": 100}, {"time": 7260, "pitch": 62, "duration": 110, "velocity": 100}, {"time": 7315, "pitch": 50, "duration": 165, "velocity": 100}, {"time": 7370, "pitch": 53, "duration": 110, "velocity": 100}, {"time": 7425, "pitch": 58, "duration": 55, "velocity": 100}, {"time": 7480, "pitch": 46, "duration": 330, "velocity": 100}, {"time": 7480, "pitch": 58, "duration": 110, "velocity": 100}, {"time": 7480, "pitch": 62, "duration": 110, "velocity": 100}, {"time": 7480, "pitch": 70, "duration": 330, "velocity": 100}, {"time": 7480, "pitch": 74, "duration": 330, "velocity": 100}, {"time": 7590, "pitch": 53, "duration": 165, "velocity": 100}, {"time": 7645, "pitch": 58, "duration": 55, "velocity": 100}, {"time": 7700, "pitch": 58, "duration": 55, "velocity": 100}, {"time": 7755, "pitch": 53, "duration": 55, "velocity": 100}, {"time": 7810, "pitch": 58, "duration": 55, "velocity": 100}, {"time": 7810, "pitch": 70, "duration": 110, "velocity": 100}, {"time": 7920, "pitch": 34, "duration": 275, "velocity": 100}, {"time": 7920, "pitch": 58, "duration": 165, "velocity": 100}, {"time": 7920, "pitch": 62, "duration": 165, "velocity": 100}, {"time": 7920, "pitch": 65, "duration": 220, "velocity": 100}, {"time": 8030, "pitch": 46, "duration": 110, "velocity": 100}, {"time": 8140, "pitch": 58, "duration": 55, "velocity": 100}, {"time": 8140, "pitch": 62, "duration": 55, "velocity": 100}, {"time": 8195, "pitch": 53, "duration": 55, "velocity": 100}, {"time": 8250, "pitch": 58, "duration": 55, "velocity": 100}, {"time": 8360, "pitch": 46, "duration": 275, "velocity": 100}, {"time": 8360, "pitch": 58, "duration": 110, "velocity": 100}, {"time": 8360, "pitch": 62, "duration": 110, "velocity": 100}, {"time": 8360, "pitch": 70, "duration": 330, "velocity": 100}, {"time": 8360, "pitch": 74, "duration": 275, "velocity": 100}, {"time": 8470, "pitch": 53, "duration": 165, "velocity": 100}, {"time": 8580, "pitch": 58, "duration": 55, "velocity": 100}, {"time": 8580, "pitch": 62, "duration": 110, "velocity": 100}, {"time": 8690, "pitch": 53, "duration": 55, "velocity": 100}, {"time": 8690, "pitch": 70, "duration": 110, "velocity": 100}, {"time": 8745, "pitch": 58, "duration": 55, "velocity": 100}, {"time": 8800, "pitch": 34, "duration": 275, "velocity": 100}, {"time": 8800, "pitch": 58, "duration": 110, "velocity": 100}, {"time": 8800, "pitch": 62, "duration": 110, "velocity": 100}, {"time": 8800, "pitch": 65, "duration": 110, "velocity": 100}, {"time": 8800, "pitch": 77, "duration": 220, "velocity": 100}, {"time": 8910, "pitch": 41, "duration": 110, "velocity": 100}, {"time": 8965, "pitch": 77, "duration": 55, "velocity": 100}, {"time": 9020, "pitch": 58, "duration": 55, "velocity": 100}, {"time": 9020, "pitch": 62, "duration": 55, "velocity": 100}, {"time": 9020, "pitch": 65, "duration": 110, "velocity": 100}, {"time": 9075, "pitch": 53, "duration": 55, "velocity": 100}, {"time": 9130, "pitch": 58, "duration": 55, "velocity": 100}, {"time": 9240, "pitch": 46, "duration": 330, "velocity": 100}, {"time": 9240, "pitch": 53, "duration": 165, "velocity": 100}, {"time": 9240, "pitch": 58, "duration": 165, "velocity": 100}, {"time": 9240, "pitch": 70, "duration": 385, "velocity": 100}, {"time": 9350, "pitch": 53, "duration": 110, "velocity": 100}, {"time": 9460, "pitch": 53, "duration": 110, "velocity": 100}, {"time": 9460, "pitch": 58, "duration": 110, "velocity": 100}, {"time": 9460, "pitch": 62, "duration": 165, "velocity": 100}, {"time": 9570, "pitch": 50, "duration": 55, "velocity": 100}, {"time": 9680, "pitch": 46, "duration": 275, "velocity": 100}, {"time": 9680, "pitch": 58, "duration": 110, "velocity": 100}, {"time": 9680, "pitch": 62, "duration": 110, "velocity": 100}, {"time": 9680, "pitch": 70, "duration": 275, "velocity": 100}, {"time": 9680, "pitch": 74, "duration": 275, "velocity": 100}, {"time": 9790, "pitch": 53, "duration": 110, "velocity": 100}, {"time": 9845, "pitch": 58, "duration": 55, "velocity": 100}, {"time": 9900, "pitch": 58, "duration": 55, "velocity": 100}, {"time": 9900, "pitch": 62, "duration": 55, "velocity": 100}, {"time": 9955, "pitch": 53, "duration": 55, "velocity": 100}, {"time": 10010, "pitch": 58, "duration": 55, "velocity": 100}, {"time": 10010, "pitch": 62, "duration": 55, "velocity": 100}, {"time": 10120, "pitch": 34, "duration": 55, "velocity": 100}, {"time": 10120, "pitch": 58, "duration": 110, "velocity": 100}, {"time": 10120, "pitch": 62, "duration": 110, "velocity": 100}, {"time": 10120, "pitch": 65, "duration": 110, "velocity": 100}, {"time": 10120, "pitch": 70, "duration": 275, "velocity": 100}, {"time": 10120, "pitch": 74, "duration": 275, "velocity": 100}, {"time": 10230, "pitch": 50, "duration": 165, "velocity": 100}, {"time": 10285, "pitch": 53, "duration": 110, "velocity": 100}, {"time": 10340, "pitch": 60, "duration": 55, "velocity": 100}, {"time": 10395, "pitch": 58, "duration": 55, "velocity": 100}, {"time": 10395, "pitch": 65, "duration": 55, "velocity": 100}, {"time": 10450, "pitch": 62, "duration": 55, "velocity": 100}, {"time": 10450, "pitch": 65, "duration": 55, "velocity": 100}, {"time": 10505, "pitch": 58, "duration": 55, "velocity": 100}, {"time": 10505, "pitch": 65, "duration": 55, "velocity": 100}, {"time": 10560, "pitch": 39, "duration": 275, "velocity": 100}, {"time": 10560, "pitch": 58, "duration": 110, "velocity": 100}, {"time": 10560, "pitch": 63, "duration": 110, "velocity": 100}, {"time": 10670, "pitch": 46, "duration": 165, "velocity": 100}, {"time": 10725, "pitch": 58, "duration": 55, "velocity": 100}, {"time": 10725, "pitch": 63, "duration": 55, "velocity": 100}, {"time": 10780, "pitch": 63, "duration": 55, "velocity": 100}, {"time": 10835, "pitch": 58, "duration": 55, "velocity": 100}, {"time": 10835, "pitch": 63, "duration": 55, "velocity": 100}, {"time": 10890, "pitch": 46, "duration": 55, "velocity": 100}, {"time": 10890, "pitch": 65, "duration": 55, "velocity": 100}, {"time": 10945, "pitch": 51, "duration": 55, "velocity": 100}, {"time": 10945, "pitch": 68, "duration": 55, "velocity": 100}, {"time": 11000, "pitch": 39, "duration": 275, "velocity": 100}, {"time": 11000, "pitch": 51, "duration": 55, "velocity": 100}, {"time": 11000, "pitch": 55, "duration": 55, "velocity": 100}, {"time": 11000, "pitch": 63, "duration": 55, "velocity": 100}, {"time": 11000, "pitch": 67, "duration": 55, "velocity": 100}, {"time": 11055, "pitch": 46, "duration": 110, "velocity": 100}, {"time": 11110, "pitch": 51, "duration": 55, "velocity": 100}, {"time": 11110, "pitch": 67, "duration": 55, "velocity": 100}, {"time": 11165, "pitch": 51, "duration": 55, "velocity": 100}, {"time": 11165, "pitch": 55, "duration": 55, "velocity": 100}, {"time": 11165, "pitch": 58, "duration": 55, "velocity": 100}, {"time": 11165, "pitch": 68, "duration": 55, "velocity": 100}, {"time": 11220, "pitch": 46, "duration": 55, "velocity": 100}, {"time": 11275, "pitch": 51, "duration": 55, "velocity": 100}, {"time": 11275, "pitch": 55, "duration": 55, "velocity": 100}, {"time": 11275, "pitch": 58, "duration": 110, "velocity": 100}, {"time": 11275, "pitch": 63, "duration": 55, "velocity": 100}, {"time": 11275, "pitch": 70, "duration": 165, "velocity": 100}, {"time": 11330, "pitch": 51, "duration": 110, "velocity": 100}, {"time": 11385, "pitch": 68, "duration": 55, "velocity": 100}, {"time": 11440, "pitch": 39, "duration": 165, "velocity": 100}, {"time": 11440, "pitch": 51, "duration": 55, "velocity": 100}, {"time": 11440, "pitch": 55, "duration": 55, "velocity": 100}, {"time": 11440, "pitch": 58, "duration": 55, "velocity": 100}, {"time": 11440, "pitch": 67, "duration": 275, "velocity": 100}, {"time": 11440, "pitch": 70, "duration": 440, "velocity": 100}, {"time": 11550, "pitch": 51, "duration": 55, "velocity": 100}, {"time": 11550, "pitch": 55, "duration": 55, "velocity": 100}, {"time": 11550, "pitch": 58, "duration": 55, "velocity": 100}, {"time": 11660, "pitch": 39, "duration": 55, "velocity": 100}, {"time": 11660, "pitch": 46, "duration": 55, "velocity": 100}, {"time": 11660, "pitch": 51, "duration": 55, "velocity": 100}, {"time": 11660, "pitch": 55, "duration": 55, "velocity": 100}, {"time": 11660, "pitch": 58, "duration": 55, "velocity": 100}, {"time": 11770, "pitch": 39, "duration": 55, "velocity": 100}, {"time": 11770, "pitch": 51, "duration": 55, "velocity": 100}, {"time": 11770, "pitch": 55, "duration": 55, "velocity": 100}, {"time": 11770, "pitch": 58, "duration": 55, "velocity": 100}, {"time": 11880, "pitch": 39, "duration": 165, "velocity": 100}, {"time": 11880, "pitch": 51, "duration": 55, "velocity": 100}, {"time": 11880, "pitch": 55, "duration": 55, "velocity": 100}, {"time": 11880, "pitch": 58, "duration": 55, "velocity": 100}, {"time": 11990, "pitch": 51, "duration": 55, "velocity": 100}, {"time": 11990, "pitch": 55, "duration": 55, "velocity": 100}, {"time": 11990, "pitch": 58, "duration": 55, "velocity": 100}, {"time": 12100, "pitch": 39, "duration": 55, "velocity": 100}, {"time": 12100, "pitch": 46, "duration": 55, "velocity": 100}, {"time": 12100, "pitch": 51, "duration": 55, "velocity": 100}, {"time": 12100, "pitch": 55, "duration": 55, "velocity": 100}, {"time": 12100, "pitch": 58, "duration": 55, "velocity": 100}, {"time": 12155, "pitch": 51, "duration": 55, "velocity": 100}, {"time": 12155, "pitch": 55, "duration": 55, "velocity": 100}, {"time": 12155, "pitch": 58, "duration": 55, "velocity": 100}, {"time": 12155, "pitch": 63, "duration": 55, "velocity": 100}, {"time": 12320, "pitch": 39, "duration": 165, "velocity": 100}, {"time": 12320, "pitch": 51, "duration": 55, "velocity": 100}, {"time": 12320, "pitch": 55, "duration": 55, "velocity": 100}, {"time": 12320, "pitch": 63, "duration": 55, "velocity": 100}, {"time": 12320, "pitch": 70, "duration": 275, "velocity": 100}, {"time": 12430, "pitch": 51, "duration": 55, "velocity": 100}, {"time": 12430, "pitch": 55, "duration": 55, "velocity": 100}, {"time": 12430, "pitch": 58, "duration": 55, "velocity": 100}, {"time": 12540, "pitch": 39, "duration": 55, "velocity": 100}, {"time": 12540, "pitch": 46, "duration": 55, "velocity": 100}, {"time": 12540, "pitch": 51, "duration": 55, "velocity": 100}, {"time": 12540, "pitch": 55, "duration": 55, "velocity": 100}, {"time": 12540, "pitch": 58, "duration": 55, "velocity": 100}, {"time": 12650, "pitch": 51, "duration": 55, "velocity": 100}, {"time": 12650, "pitch": 55, "duration": 55, "velocity": 100}, {"time": 12650, "pitch": 58, "duration": 55, "velocity": 100}, {"time": 12760, "pitch": 39, "duration": 165, "velocity": 100}, {"time": 12760, "pitch": 51, "duration": 55, "velocity": 100}, {"time": 12760, "pitch": 55, "duration": 55, "velocity": 100}, {"time": 12760, "pitch": 58, "duration": 55, "velocity": 100}, {"time": 12870, "pitch": 51, "duration": 55, "velocity": 100}, {"time": 12870, "pitch": 55, "duration": 55, "velocity": 100}, {"time": 12870, "pitch": 58, "duration": 55, "velocity": 100}, {"time": 12980, "pitch": 39, "duration": 55, "velocity": 100}, {"time": 12980, "pitch": 51, "duration": 55, "velocity": 100}, {"time": 12980, "pitch": 55, "duration": 55, "velocity": 100}, {"time": 12980, "pitch": 58, "duration": 55, "velocity": 100}, {"time": 13035, "pitch": 39, "duration": 55, "velocity": 100}, {"time": 13035, "pitch": 51, "duration": 55, "velocity": 100}, {"time": 13035, "pitch": 55, "duration": 55, "velocity": 100}, {"time": 13035, "pitch": 58, "duration": 55, "velocity": 100}, {"time": 13035, "pitch": 70, "duration": 55, "velocity": 100}, {"time": 13200, "pitch": 39, "duration": 165, "velocity": 100}, {"time": 13200, "pitch": 46, "duration": 55, "velocity": 100}, {"time": 13200, "pitch": 51, "duration": 55, "velocity": 100}, {"time": 13200, "pitch": 58, "duration": 55, "velocity": 100}, {"time": 13200, "pitch": 75, "duration": 275, "velocity": 100}, {"time": 13310, "pitch": 51, "duration": 55, "velocity": 100}, {"time": 13420, "pitch": 51, "duration": 55, "velocity": 100}, {"time": 13420, "pitch": 55, "duration": 55, "velocity": 100}, {"time": 13530, "pitch": 34, "duration": 55, "velocity": 100}, {"time": 13530, "pitch": 46, "duration": 55, "velocity": 100}, {"time": 13530, "pitch": 55, "duration": 55, "velocity": 100}, {"time": 13530, "pitch": 73, "duration": 55, "velocity": 100}, {"time": 13585, "pitch": 39, "duration": 55, "velocity": 100}, {"time": 13585, "pitch": 51, "duration": 55, "velocity": 100}, {"time": 13585, "pitch": 75, "duration": 55, "velocity": 100}, {"time": 13640, "pitch": 39, "duration": 55, "velocity": 100}, {"time": 13640, "pitch": 55, "duration": 55, "velocity": 100}, {"time": 13640, "pitch": 58, "duration": 55, "velocity": 100}, {"time": 13640, "pitch": 63, "duration": 55, "velocity": 100}, {"time": 13640, "pitch": 75, "duration": 330, "velocity": 100}, {"time": 13750, "pitch": 39, "duration": 55, "velocity": 100}, {"time": 13750, "pitch": 55, "duration": 55, "velocity": 100}, {"time": 13750, "pitch": 58, "duration": 55, "velocity": 100}, {"time": 13750, "pitch": 63, "duration": 55, "velocity": 100}, {"time": 13860, "pitch": 39, "duration": 110, "velocity": 100}, {"time": 13860, "pitch": 51, "duration": 220, "velocity": 100}, {"time": 13860, "pitch": 55, "duration": 220, "velocity": 100}, {"time": 13860, "pitch": 58, "duration": 220, "velocity": 100}, {"time": 13860, "pitch": 63, "duration": 220, "velocity": 100}, {"time": 13970, "pitch": 39, "duration": 110, "velocity": 100}, {"time": 14080, "pitch": 39, "duration": 330, "velocity": 100}, {"time": 14080, "pitch": 51, "duration": 110, "velocity": 100}, {"time": 14080, "pitch": 58, "duration": 110, "velocity": 100}, {"time": 14080, "pitch": 75, "duration": 440, "velocity": 100}, {"time": 14190, "pitch": 46, "duration": 165, "velocity": 100}, {"time": 14300, "pitch": 46, "duration": 55, "velocity": 100}, {"time": 14300, "pitch": 51, "duration": 55, "velocity": 100}, {"time": 14300, "pitch": 55, "duration": 55, "velocity": 100}, {"time": 14300, "pitch": 58, "duration": 55, "velocity": 100}, {"time": 14410, "pitch": 51, "duration": 55, "velocity": 100}, {"time": 14520, "pitch": 39, "duration": 275, "velocity": 100}, {"time": 14520, "pitch": 51, "duration": 110, "velocity": 100}, {"time": 14520, "pitch": 55, "duration": 110, "velocity": 100}, {"time": 14520, "pitch": 58, "duration": 110, "velocity": 100}, {"time": 14630, "pitch": 46, "duration": 220, "velocity": 100}, {"time": 14740, "pitch": 51, "duration": 55, "velocity": 100}, {"time": 14740, "pitch": 55, "duration": 55, "velocity": 100}, {"time": 14740, "pitch": 58, "duration": 55, "velocity": 100}, {"time": 14740, "pitch": 63, "duration": 110, "velocity": 100}, {"time": 14850, "pitch": 51, "duration": 55, "velocity": 100}, {"time": 14960, "pitch": 39, "duration": 55, "velocity": 100}, {"time": 14960, "pitch": 51, "duration": 55, "velocity": 100}, {"time": 14960, "pitch": 55, "duration": 55, "velocity": 100}, {"time": 14960, "pitch": 58, "duration": 55, "velocity": 100}, {"time": 14960, "pitch": 70, "duration": 220, "velocity": 100}, {"time": 15070, "pitch": 39, "duration": 55, "velocity": 100}, {"time": 15070, "pitch": 55, "duration": 55, "velocity": 100}, {"time": 15070, "pitch": 58, "duration": 55, "velocity": 100}, {"time": 15180, "pitch": 39, "duration": 110, "velocity": 100}, {"time": 15180, "pitch": 51, "duration": 55, "velocity": 100}, {"time": 15180, "pitch": 55, "duration": 55, "velocity": 100}, {"time": 15180, "pitch": 58, "duration": 110, "velocity": 100}, {"time": 15180, "pitch": 70, "duration": 165, "velocity": 100}, {"time": 15290, "pitch": 39, "duration": 55, "velocity": 100}, {"time": 15400, "pitch": 39, "duration": 275, "velocity": 100}, {"time": 15400, "pitch": 51, "duration": 55, "velocity": 100}, {"time": 15400, "pitch": 55, "duration": 55, "velocity": 100}, {"time": 15400, "pitch": 58, "duration": 55, "velocity": 100}, {"time": 15400, "pitch": 63, "duration": 165, "velocity": 100}, {"time": 15400, "pitch": 72, "duration": 220, "velocity": 100}, {"time": 15620, "pitch": 51, "duration": 55, "velocity": 100}, {"time": 15620, "pitch": 55, "duration": 165, "velocity": 100}, {"time": 15620, "pitch": 58, "duration": 165, "velocity": 100}, {"time": 15620, "pitch": 63, "duration": 165, "velocity": 100}, {"time": 15620, "pitch": 75, "duration": 220, "velocity": 100}]}]}