{"metadata": {"schema_version": "0.1", "title": "None", "source_filename": "20211209_160110.mid", "source_format": "midi"}, "resolution": 220, "tempos": [{"time": 0, "qpm": 120.0}], "time_signatures": [{"time": 0, "numerator": 4, "denominator": 4}], "tracks": [{"program": 0, "is_drum": false, "name": "Piano", "notes": [{"time": 0, "pitch": 58, "duration": 440, "velocity": 100}, {"time": 440, "pitch": 60, "duration": 330, "velocity": 100}, {"time": 770, "pitch": 61, "duration": 110, "velocity": 100}, {"time": 880, "pitch": 63, "duration": 220, "velocity": 100}, {"time": 1100, "pitch": 60, "duration": 220, "velocity": 100}, {"time": 1320, "pitch": 66, "duration": 330, "velocity": 100}, {"time": 1650, "pitch": 63, "duration": 110, "velocity": 100}, {"time": 1760, "pitch": 65, "duration": 220, "velocity": 100}, {"time": 1980, "pitch": 65, "duration": 660, "velocity": 100}, {"time": 2640, "pitch": 58, "duration": 440, "velocity": 100}, {"time": 3080, "pitch": 60, "duration": 330, "velocity": 100}, {"time": 3410, "pitch": 61, "duration": 110, "velocity": 100}, {"time": 3520, "pitch": 63, "duration": 220, "velocity": 100}, {"time": 3740, "pitch": 60, "duration": 220, "velocity": 100}, {"time": 3960, "pitch": 66, "duration": 330, "velocity": 100}, {"time": 4290, "pitch": 65, "duration": 110, "velocity": 100}, {"time": 4400, "pitch": 63, "duration": 220, "velocity": 100}, {"time": 4620, "pitch": 63, "duration": 660, "velocity": 100}, {"time": 5280, "pitch": 58, "duration": 440, "velocity": 100}, {"time": 5720, "pitch": 60, "duration": 330, "velocity": 100}, {"time": 6050, "pitch": 61, "duration": 110, "velocity": 100}, {"time": 6160, "pitch": 63, "duration": 220, "velocity": 100}, {"time": 6380, "pitch": 60, "duration": 220, "velocity": 100}, {"time": 6600, "pitch": 66, "duration": 330, "velocity": 100}, {"time": 6930, "pitch": 63, "duration": 110, "velocity": 100}, {"time": 7040, "pitch": 65, "duration": 220, "velocity": 100}, {"time": 7260, "pitch": 65, "duration": 660, "velocity": 100}, {"time": 7920, "pitch": 58, "duration": 440, "velocity": 100}, {"time": 8360, "pitch": 60, "duration": 330, "velocity": 100}, {"time": 8690, "pitch": 61, "duration": 110, "velocity": 100}, {"time": 8800, "pitch": 63, "duration": 220, "velocity": 100}, {"time": 9020, "pitch": 60, "duration": 220, "velocity": 100}, {"time": 9240, "pitch": 66, "duration": 330, "velocity": 100}, {"time": 9570, "pitch": 65, "duration": 110, "velocity": 100}, {"time": 9680, "pitch": 63, "duration": 220, "velocity": 100}, {"time": 9900, "pitch": 63, "duration": 660, "velocity": 100}, {"time": 0, "pitch": 46, "duration": 385, "velocity": 100}, {"time": 55, "pitch": 53, "duration": 385, "velocity": 100}, {"time": 110, "pitch": 58, "duration": 440, "velocity": 100}, {"time": 165, "pitch": 61, "duration": 275, "velocity": 100}, {"time": 220, "pitch": 65, "duration": 440, "velocity": 100}, {"time": 440, "pitch": 46, "duration": 385, "velocity": 100}, {"time": 495, "pitch": 53, "duration": 275, "velocity": 100}, {"time": 550, "pitch": 58, "duration": 165, "velocity": 100}, {"time": 605, "pitch": 61, "duration": 55, "velocity": 100}, {"time": 660, "pitch": 65, "duration": 110, "velocity": 100}, {"time": 770, "pitch": 61, "duration": 110, "velocity": 100}, {"time": 880, "pitch": 34, "duration": 220, "velocity": 100}, {"time": 935, "pitch": 46, "duration": 165, "velocity": 100}, {"time": 990, "pitch": 53, "duration": 110, "velocity": 100}, {"time": 1045, "pitch": 58, "duration": 55, "velocity": 100}, {"time": 1100, "pitch": 41, "duration": 110, "velocity": 100}, {"time": 1100, "pitch": 58, "duration": 55, "velocity": 100}, {"time": 1155, "pitch": 49, "duration": 55, "velocity": 100}, {"time": 1210, "pitch": 53, "duration": 110, "velocity": 100}, {"time": 1265, "pitch": 61, "duration": 55, "velocity": 100}, {"time": 1320, "pitch": 46, "duration": 385, "velocity": 100}, {"time": 1375, "pitch": 53, "duration": 275, "velocity": 100}, {"time": 1430, "pitch": 58, "duration": 275, "velocity": 100}, {"time": 1540, "pitch": 61, "duration": 220, "velocity": 100}, {"time": 1760, "pitch": 41, "duration": 880, "velocity": 100}, {"time": 1760, "pitch": 53, "duration": 165, "velocity": 100}, {"time": 1760, "pitch": 58, "duration": 165, "velocity": 100}, {"time": 1980, "pitch": 53, "duration": 165, "velocity": 100}, {"time": 1980, "pitch": 58, "duration": 165, "velocity": 100}, {"time": 2090, "pitch": 46, "duration": 440, "velocity": 100}, {"time": 2200, "pitch": 58, "duration": 165, "velocity": 100}, {"time": 2200, "pitch": 61, "duration": 165, "velocity": 100}, {"time": 2310, "pitch": 49, "duration": 330, "velocity": 100}, {"time": 2420, "pitch": 53, "duration": 110, "velocity": 100}, {"time": 2420, "pitch": 58, "duration": 110, "velocity": 100}, {"time": 2640, "pitch": 46, "duration": 330, "velocity": 100}, {"time": 2640, "pitch": 58, "duration": 165, "velocity": 100}, {"time": 2640, "pitch": 61, "duration": 165, "velocity": 100}, {"time": 2640, "pitch": 65, "duration": 110, "velocity": 100}, {"time": 2750, "pitch": 53, "duration": 165, "velocity": 100}, {"time": 2860, "pitch": 58, "duration": 110, "velocity": 100}, {"time": 2860, "pitch": 61, "duration": 110, "velocity": 100}, {"time": 2860, "pitch": 65, "duration": 110, "velocity": 100}, {"time": 3080, "pitch": 34, "duration": 440, "velocity": 100}, {"time": 3080, "pitch": 53, "duration": 220, "velocity": 100}, {"time": 3080, "pitch": 58, "duration": 220, "velocity": 100}, {"time": 3190, "pitch": 41, "duration": 330, "velocity": 100}, {"time": 3300, "pitch": 53, "duration": 220, "velocity": 100}, {"time": 3300, "pitch": 58, "duration": 220, "velocity": 100}, {"time": 3520, "pitch": 42, "duration": 330, "velocity": 100}, {"time": 3520, "pitch": 58, "duration": 220, "velocity": 100}, {"time": 3520, "pitch": 61, "duration": 220, "velocity": 100}, {"time": 3740, "pitch": 58, "duration": 165, "velocity": 100}, {"time": 3740, "pitch": 63, "duration": 165, "velocity": 100}, {"time": 3960, "pitch": 39, "duration": 330, "velocity": 100}, {"time": 3960, "pitch": 58, "duration": 220, "velocity": 100}, {"time": 3960, "pitch": 63, "duration": 220, "velocity": 100}, {"time": 4070, "pitch": 51, "duration": 165, "velocity": 100}, {"time": 4180, "pitch": 58, "duration": 110, "velocity": 100}, {"time": 4180, "pitch": 63, "duration": 110, "velocity": 100}, {"time": 4400, "pitch": 39, "duration": 385, "velocity": 100}, {"time": 4400, "pitch": 58, "duration": 220, "velocity": 100}, {"time": 4400, "pitch": 61, "duration": 220, "velocity": 100}, {"time": 4620, "pitch": 58, "duration": 110, "velocity": 100}, {"time": 4620, "pitch": 63, "duration": 110, "velocity": 100}, {"time": 4840, "pitch": 46, "duration": 440, "velocity": 100}, {"time": 4840, "pitch": 63, "duration": 220, "velocity": 100}, {"time": 4840, "pitch": 66, "duration": 220, "velocity": 100}, {"time": 4950, "pitch": 54, "duration": 330, "velocity": 100}, {"time": 5060, "pitch": 63, "duration": 220, "velocity": 100}, {"time": 5060, "pitch": 66, "duration": 220, "velocity": 100}, {"time": 5280, "pitch": 42, "duration": 385, "velocity": 100}, {"time": 5335, "pitch": 51, "duration": 275, "velocity": 100}, {"time": 5390, "pitch": 54, "duration": 220, "velocity": 100}, {"time": 5445, "pitch": 58, "duration": 55, "velocity": 100}, {"time": 5500, "pitch": 63, "duration": 275, "velocity": 100}, {"time": 5720, "pitch": 46, "duration": 385, "velocity": 100}, {"time": 5775, "pitch": 51, "duration": 275, "velocity": 100}, {"time": 5830, "pitch": 58, "duration": 110, "velocity": 100}, {"time": 5885, "pitch": 58, "duration": 165, "velocity": 100}, {"time": 5940, "pitch": 63, "duration": 110, "velocity": 100}, {"time": 6050, "pitch": 58, "duration": 110, "velocity": 100}, {"time": 6160, "pitch": 39, "duration": 220, "velocity": 100}, {"time": 6215, "pitch": 46, "duration": 165, "velocity": 100}, {"time": 6270, "pitch": 51, "duration": 110, "velocity": 100}, {"time": 6325, "pitch": 54, "duration": 55, "velocity": 100}, {"time": 6380, "pitch": 39, "duration": 110, "velocity": 100}, {"time": 6380, "pitch": 54, "duration": 55, "velocity": 100}, {"time": 6435, "pitch": 46, "duration": 55, "velocity": 100}, {"time": 6490, "pitch": 51, "duration": 110, "velocity": 100}, {"time": 6490, "pitch": 54, "duration": 55, "velocity": 100}, {"time": 6545, "pitch": 58, "duration": 55, "velocity": 100}, {"time": 6600, "pitch": 39, "duration": 385, "velocity": 100}, {"time": 6655, "pitch": 51, "duration": 275, "velocity": 100}, {"time": 6710, "pitch": 54, "duration": 220, "velocity": 100}, {"time": 6820, "pitch": 58, "duration": 220, "velocity": 100}, {"time": 7040, "pitch": 41, "duration": 880, "velocity": 100}, {"time": 7040, "pitch": 53, "duration": 165, "velocity": 100}, {"time": 7040, "pitch": 57, "duration": 165, "velocity": 100}, {"time": 7260, "pitch": 53, "duration": 165, "velocity": 100}, {"time": 7260, "pitch": 57, "duration": 165, "velocity": 100}, {"time": 7370, "pitch": 48, "duration": 440, "velocity": 100}, {"time": 7480, "pitch": 53, "duration": 165, "velocity": 100}, {"time": 7480, "pitch": 57, "duration": 165, "velocity": 100}, {"time": 7590, "pitch": 48, "duration": 330, "velocity": 100}, {"time": 7700, "pitch": 53, "duration": 110, "velocity": 100}, {"time": 7700, "pitch": 57, "duration": 110, "velocity": 100}, {"time": 7920, "pitch": 41, "duration": 330, "velocity": 100}, {"time": 7920, "pitch": 57, "duration": 220, "velocity": 100}, {"time": 7920, "pitch": 60, "duration": 165, "velocity": 100}, {"time": 8030, "pitch": 48, "duration": 165, "velocity": 100}, {"time": 8140, "pitch": 57, "duration": 110, "velocity": 100}, {"time": 8140, "pitch": 60, "duration": 110, "velocity": 100}, {"time": 8360, "pitch": 41, "duration": 440, "velocity": 100}, {"time": 8360, "pitch": 48, "duration": 220, "velocity": 100}, {"time": 8360, "pitch": 57, "duration": 220, "velocity": 100}, {"time": 8470, "pitch": 41, "duration": 330, "velocity": 100}, {"time": 8580, "pitch": 53, "duration": 220, "velocity": 100}, {"time": 8580, "pitch": 57, "duration": 220, "velocity": 100}, {"time": 8800, "pitch": 41, "duration": 330, "velocity": 100}, {"time": 8800, "pitch": 57, "duration": 165, "velocity": 100}, {"time": 8800, "pitch": 60, "duration": 220, "velocity": 100}, {"time": 9020, "pitch": 57, "duration": 165, "velocity": 100}, {"time": 9020, "pitch": 60, "duration": 165, "velocity": 100}, {"time": 9240, "pitch": 41, "duration": 330, "velocity": 100}, {"time": 9240, "pitch": 57, "duration": 220, "velocity": 100}, {"time": 9240, "pitch": 60, "duration": 220, "velocity": 100}, {"time": 9350, "pitch": 48, "duration": 165, "velocity": 100}, {"time": 9460, "pitch": 57, "duration": 110, "velocity": 100}, {"time": 9460, "pitch": 60, "duration": 110, "velocity": 100}, {"time": 9680, "pitch": 41, "duration": 330, "velocity": 100}, {"time": 9680, "pitch": 57, "duration": 220, "velocity": 100}, {"time": 9680, "pitch": 60, "duration": 220, "velocity": 100}, {"time": 9900, "pitch": 57, "duration": 110, "velocity": 100}, {"time": 9900, "pitch": 60, "duration": 110, "velocity": 100}, {"time": 10120, "pitch": 41, "duration": 385, "velocity": 100}, {"time": 10120, "pitch": 60, "duration": 220, "velocity": 100}, {"time": 10120, "pitch": 65, "duration": 220, "velocity": 100}, {"time": 10230, "pitch": 53, "duration": 330, "velocity": 100}, {"time": 10340, "pitch": 60, "duration": 220, "velocity": 100}, {"time": 10340, "pitch": 65, "duration": 220, "velocity": 100}]}]}