{"metadata": {"schema_version": "0.1", "title": "None", "source_filename": "20211209_143406.mid", "source_format": "midi"}, "resolution": 220, "tempos": [{"time": 0, "qpm": 120.0}], "time_signatures": [{"time": 0, "numerator": 4, "denominator": 4}], "tracks": [{"program": 0, "is_drum": false, "name": "Piano", "notes": [{"time": 2750, "pitch": 57, "duration": 220, "velocity": 100}, {"time": 2970, "pitch": 55, "duration": 275, "velocity": 100}, {"time": 3245, "pitch": 59, "duration": 165, "velocity": 100}, {"time": 3410, "pitch": 62, "duration": 110, "velocity": 100}, {"time": 3630, "pitch": 66, "duration": 165, "velocity": 100}, {"time": 3795, "pitch": 67, "duration": 220, "velocity": 100}, {"time": 4015, "pitch": 66, "duration": 55, "velocity": 100}, {"time": 4070, "pitch": 64, "duration": 110, "velocity": 100}, {"time": 4180, "pitch": 62, "duration": 55, "velocity": 100}, {"time": 4235, "pitch": 64, "duration": 165, "velocity": 100}, {"time": 4400, "pitch": 62, "duration": 220, "velocity": 100}, {"time": 4785, "pitch": 69, "duration": 330, "velocity": 100}, {"time": 5115, "pitch": 67, "duration": 110, "velocity": 100}, {"time": 5225, "pitch": 67, "duration": 55, "velocity": 100}, {"time": 5445, "pitch": 66, "duration": 165, "velocity": 100}, {"time": 5610, "pitch": 67, "duration": 220, "velocity": 100}, {"time": 5830, "pitch": 66, "duration": 55, "velocity": 100}, {"time": 5885, "pitch": 64, "duration": 55, "velocity": 100}, {"time": 5940, "pitch": 62, "duration": 55, "velocity": 100}, {"time": 5995, "pitch": 64, "duration": 110, "velocity": 100}, {"time": 6105, "pitch": 62, "duration": 110, "velocity": 100}, {"time": 6380, "pitch": 60, "duration": 165, "velocity": 100}, {"time": 6545, "pitch": 64, "duration": 55, "velocity": 100}, {"time": 6600, "pitch": 67, "duration": 220, "velocity": 100}, {"time": 6820, "pitch": 69, "duration": 110, "velocity": 100}, {"time": 6930, "pitch": 71, "duration": 110, "velocity": 100}, {"time": 7205, "pitch": 69, "duration": 220, "velocity": 100}, {"time": 7425, "pitch": 67, "duration": 110, "velocity": 100}, {"time": 7535, "pitch": 64, "duration": 275, "velocity": 100}, {"time": 8030, "pitch": 71, "duration": 110, "velocity": 100}, {"time": 8140, "pitch": 74, "duration": 55, "velocity": 100}, {"time": 8195, "pitch": 71, "duration": 110, "velocity": 100}, {"time": 8305, "pitch": 69, "duration": 110, "velocity": 100}, {"time": 8415, "pitch": 67, "duration": 220, "velocity": 100}, {"time": 8635, "pitch": 69, "duration": 165, "velocity": 100}, {"time": 8800, "pitch": 67, "duration": 220, "velocity": 100}, {"time": 9020, "pitch": 63, "duration": 110, "velocity": 100}, {"time": 9130, "pitch": 62, "duration": 275, "velocity": 100}, {"time": 9405, "pitch": 67, "duration": 220, "velocity": 100}, {"time": 9625, "pitch": 69, "duration": 220, "velocity": 100}, {"time": 9845, "pitch": 66, "duration": 165, "velocity": 100}, {"time": 10010, "pitch": 67, "duration": 220, "velocity": 100}, {"time": 10230, "pitch": 64, "duration": 165, "velocity": 100}, {"time": 10395, "pitch": 66, "duration": 165, "velocity": 100}, {"time": 10615, "pitch": 63, "duration": 385, "velocity": 100}, {"time": 11000, "pitch": 71, "duration": 220, "velocity": 100}, {"time": 11220, "pitch": 69, "duration": 110, "velocity": 100}, {"time": 11330, "pitch": 69, "duration": 110, "velocity": 100}, {"time": 11440, "pitch": 67, "duration": 165, "velocity": 100}, {"time": 11605, "pitch": 67, "duration": 220, "velocity": 100}, {"time": 11825, "pitch": 66, "duration": 220, "velocity": 100}, {"time": 12045, "pitch": 67, "duration": 165, "velocity": 100}, {"time": 12210, "pitch": 63, "duration": 110, "velocity": 100}, {"time": 12870, "pitch": 62, "duration": 110, "velocity": 100}, {"time": 12980, "pitch": 64, "duration": 110, "velocity": 100}, {"time": 13090, "pitch": 67, "duration": 220, "velocity": 100}, {"time": 13310, "pitch": 74, "duration": 220, "velocity": 100}, {"time": 13530, "pitch": 74, "duration": 220, "velocity": 100}, {"time": 13750, "pitch": 72, "duration": 275, "velocity": 100}, {"time": 14025, "pitch": 71, "duration": 55, "velocity": 100}, {"time": 14135, "pitch": 72, "duration": 55, "velocity": 100}, {"time": 14190, "pitch": 67, "duration": 220, "velocity": 100}, {"time": 14410, "pitch": 71, "duration": 220, "velocity": 100}, {"time": 14630, "pitch": 71, "duration": 55, "velocity": 100}, {"time": 14685, "pitch": 69, "duration": 110, "velocity": 100}, {"time": 14795, "pitch": 67, "duration": 55, "velocity": 100}, {"time": 14850, "pitch": 67, "duration": 220, "velocity": 100}, {"time": 15070, "pitch": 64, "duration": 220, "velocity": 100}, {"time": 15290, "pitch": 63, "duration": 110, "velocity": 100}, {"time": 15400, "pitch": 69, "duration": 110, "velocity": 100}, {"time": 15510, "pitch": 71, "duration": 275, "velocity": 100}, {"time": 15785, "pitch": 69, "duration": 55, "velocity": 100}, {"time": 16060, "pitch": 69, "duration": 165, "velocity": 100}, {"time": 16225, "pitch": 67, "duration": 1375, "velocity": 100}, {"time": 17600, "pitch": 71, "duration": 165, "velocity": 100}, {"time": 17765, "pitch": 71, "duration": 110, "velocity": 100}, {"time": 17875, "pitch": 69, "duration": 55, "velocity": 100}, {"time": 17930, "pitch": 67, "duration": 55, "velocity": 100}, {"time": 17985, "pitch": 64, "duration": 55, "velocity": 100}, {"time": 18040, "pitch": 67, "duration": 385, "velocity": 100}, {"time": 19360, "pitch": 55, "duration": 220, "velocity": 100}, {"time": 19580, "pitch": 59, "duration": 165, "velocity": 100}, {"time": 19745, "pitch": 62, "duration": 165, "velocity": 100}, {"time": 19910, "pitch": 66, "duration": 110, "velocity": 100}, {"time": 20020, "pitch": 67, "duration": 220, "velocity": 100}, {"time": 20240, "pitch": 66, "duration": 275, "velocity": 100}, {"time": 20515, "pitch": 64, "duration": 55, "velocity": 100}, {"time": 20570, "pitch": 62, "duration": 330, "velocity": 100}, {"time": 20900, "pitch": 69, "duration": 165, "velocity": 100}, {"time": 21065, "pitch": 67, "duration": 55, "velocity": 100}, {"time": 21230, "pitch": 67, "duration": 110, "velocity": 100}, {"time": 21340, "pitch": 66, "duration": 220, "velocity": 100}, {"time": 21560, "pitch": 67, "duration": 165, "velocity": 100}, {"time": 21725, "pitch": 66, "duration": 165, "velocity": 100}, {"time": 21890, "pitch": 64, "duration": 110, "velocity": 100}, {"time": 22000, "pitch": 62, "duration": 385, "velocity": 100}, {"time": 22550, "pitch": 64, "duration": 220, "velocity": 100}, {"time": 22770, "pitch": 67, "duration": 110, "velocity": 100}, {"time": 22935, "pitch": 69, "duration": 110, "velocity": 100}, {"time": 23045, "pitch": 71, "duration": 165, "velocity": 100}, {"time": 23210, "pitch": 69, "duration": 220, "velocity": 100}, {"time": 23430, "pitch": 67, "duration": 165, "velocity": 100}, {"time": 23595, "pitch": 64, "duration": 275, "velocity": 100}, {"time": 23870, "pitch": 60, "duration": 220, "velocity": 100}, {"time": 24090, "pitch": 63, "duration": 110, "velocity": 100}, {"time": 24200, "pitch": 67, "duration": 275, "velocity": 100}, {"time": 24475, "pitch": 69, "duration": 55, "velocity": 100}, {"time": 24530, "pitch": 70, "duration": 110, "velocity": 100}, {"time": 24750, "pitch": 69, "duration": 165, "velocity": 100}, {"time": 24915, "pitch": 65, "duration": 220, "velocity": 100}, {"time": 25135, "pitch": 63, "duration": 275, "velocity": 100}, {"time": 25410, "pitch": 55, "duration": 165, "velocity": 100}, {"time": 25575, "pitch": 59, "duration": 220, "velocity": 100}, {"time": 25795, "pitch": 62, "duration": 165, "velocity": 100}, {"time": 25960, "pitch": 66, "duration": 110, "velocity": 100}, {"time": 26070, "pitch": 67, "duration": 165, "velocity": 100}, {"time": 26235, "pitch": 66, "duration": 165, "velocity": 100}, {"time": 26510, "pitch": 64, "duration": 110, "velocity": 100}, {"time": 26620, "pitch": 62, "duration": 275, "velocity": 100}, {"time": 26895, "pitch": 69, "duration": 220, "velocity": 100}, {"time": 27115, "pitch": 67, "duration": 165, "velocity": 100}, {"time": 27280, "pitch": 67, "duration": 110, "velocity": 100}, {"time": 27390, "pitch": 66, "duration": 165, "velocity": 100}, {"time": 27555, "pitch": 67, "duration": 220, "velocity": 100}, {"time": 27775, "pitch": 66, "duration": 165, "velocity": 100}, {"time": 27940, "pitch": 64, "duration": 110, "velocity": 100}, {"time": 28050, "pitch": 62, "duration": 110, "velocity": 100}, {"time": 28600, "pitch": 64, "duration": 220, "velocity": 100}, {"time": 28820, "pitch": 67, "duration": 165, "velocity": 100}, {"time": 28985, "pitch": 69, "duration": 110, "velocity": 100}, {"time": 29095, "pitch": 71, "duration": 165, "velocity": 100}, {"time": 29260, "pitch": 69, "duration": 220, "velocity": 100}, {"time": 29480, "pitch": 67, "duration": 165, "velocity": 100}, {"time": 29645, "pitch": 64, "duration": 275, "velocity": 100}, {"time": 29920, "pitch": 60, "duration": 220, "velocity": 100}, {"time": 30140, "pitch": 63, "duration": 55, "velocity": 100}, {"time": 30195, "pitch": 67, "duration": 275, "velocity": 100}, {"time": 30470, "pitch": 69, "duration": 110, "velocity": 100}, {"time": 30580, "pitch": 70, "duration": 220, "velocity": 100}, {"time": 30800, "pitch": 69, "duration": 165, "velocity": 100}, {"time": 30965, "pitch": 65, "duration": 165, "velocity": 100}, {"time": 31130, "pitch": 63, "duration": 330, "velocity": 100}, {"time": 31460, "pitch": 67, "duration": 165, "velocity": 100}, {"time": 31625, "pitch": 69, "duration": 55, "velocity": 100}, {"time": 31790, "pitch": 66, "duration": 220, "velocity": 100}, {"time": 32010, "pitch": 67, "duration": 110, "velocity": 100}, {"time": 32120, "pitch": 64, "duration": 165, "velocity": 100}, {"time": 32285, "pitch": 66, "duration": 165, "velocity": 100}, {"time": 32450, "pitch": 63, "duration": 495, "velocity": 100}, {"time": 32945, "pitch": 67, "duration": 165, "velocity": 100}, {"time": 33110, "pitch": 69, "duration": 220, "velocity": 100}, {"time": 33330, "pitch": 66, "duration": 110, "velocity": 100}, {"time": 33495, "pitch": 67, "duration": 110, "velocity": 100}, {"time": 33605, "pitch": 64, "duration": 165, "velocity": 100}, {"time": 33770, "pitch": 66, "duration": 220, "velocity": 100}, {"time": 33990, "pitch": 63, "duration": 440, "velocity": 100}, {"time": 34430, "pitch": 62, "duration": 220, "velocity": 100}, {"time": 34650, "pitch": 64, "duration": 165, "velocity": 100}, {"time": 34815, "pitch": 67, "duration": 110, "velocity": 100}, {"time": 34925, "pitch": 74, "duration": 165, "velocity": 100}, {"time": 35090, "pitch": 72, "duration": 110, "velocity": 100}, {"time": 35310, "pitch": 74, "duration": 110, "velocity": 100}, {"time": 35420, "pitch": 72, "duration": 165, "velocity": 100}, {"time": 35970, "pitch": 71, "duration": 165, "velocity": 100}, {"time": 36135, "pitch": 69, "duration": 220, "velocity": 100}, {"time": 36355, "pitch": 67, "duration": 165, "velocity": 100}, {"time": 36520, "pitch": 64, "duration": 220, "velocity": 100}, {"time": 36740, "pitch": 63, "duration": 165, "velocity": 100}, {"time": 36905, "pitch": 69, "duration": 55, "velocity": 100}, {"time": 37290, "pitch": 71, "duration": 165, "velocity": 100}, {"time": 37455, "pitch": 69, "duration": 110, "velocity": 100}, {"time": 37565, "pitch": 67, "duration": 825, "velocity": 100}, {"time": 38995, "pitch": 71, "duration": 440, "velocity": 100}, {"time": 39435, "pitch": 74, "duration": 110, "velocity": 100}, {"time": 39545, "pitch": 71, "duration": 165, "velocity": 100}, {"time": 39710, "pitch": 71, "duration": 330, "velocity": 100}, {"time": 40040, "pitch": 69, "duration": 165, "velocity": 100}, {"time": 40205, "pitch": 67, "duration": 165, "velocity": 100}, {"time": 40370, "pitch": 69, "duration": 110, "velocity": 100}, {"time": 40480, "pitch": 55, "duration": 220, "velocity": 100}, {"time": 40700, "pitch": 59, "duration": 165, "velocity": 100}, {"time": 40865, "pitch": 62, "duration": 165, "velocity": 100}, {"time": 41030, "pitch": 66, "duration": 110, "velocity": 100}, {"time": 41140, "pitch": 67, "duration": 220, "velocity": 100}, {"time": 41360, "pitch": 66, "duration": 275, "velocity": 100}, {"time": 41635, "pitch": 64, "duration": 55, "velocity": 100}, {"time": 41690, "pitch": 62, "duration": 330, "velocity": 100}, {"time": 42020, "pitch": 69, "duration": 165, "velocity": 100}, {"time": 42185, "pitch": 67, "duration": 55, "velocity": 100}, {"time": 42350, "pitch": 67, "duration": 110, "velocity": 100}, {"time": 42460, "pitch": 66, "duration": 220, "velocity": 100}, {"time": 42680, "pitch": 67, "duration": 165, "velocity": 100}, {"time": 42845, "pitch": 66, "duration": 165, "velocity": 100}, {"time": 43010, "pitch": 64, "duration": 110, "velocity": 100}, {"time": 43120, "pitch": 62, "duration": 385, "velocity": 100}, {"time": 43670, "pitch": 64, "duration": 220, "velocity": 100}, {"time": 43890, "pitch": 67, "duration": 110, "velocity": 100}, {"time": 44055, "pitch": 69, "duration": 110, "velocity": 100}, {"time": 44165, "pitch": 71, "duration": 165, "velocity": 100}, {"time": 44330, "pitch": 69, "duration": 220, "velocity": 100}, {"time": 44550, "pitch": 67, "duration": 165, "velocity": 100}, {"time": 44715, "pitch": 64, "duration": 275, "velocity": 100}, {"time": 44990, "pitch": 60, "duration": 220, "velocity": 100}, {"time": 45210, "pitch": 63, "duration": 110, "velocity": 100}, {"time": 45320, "pitch": 67, "duration": 275, "velocity": 100}, {"time": 45595, "pitch": 69, "duration": 55, "velocity": 100}, {"time": 45650, "pitch": 70, "duration": 110, "velocity": 100}, {"time": 45870, "pitch": 69, "duration": 165, "velocity": 100}, {"time": 46035, "pitch": 65, "duration": 220, "velocity": 100}, {"time": 46255, "pitch": 63, "duration": 275, "velocity": 100}, {"time": 46530, "pitch": 55, "duration": 165, "velocity": 100}, {"time": 46695, "pitch": 59, "duration": 220, "velocity": 100}, {"time": 46915, "pitch": 62, "duration": 165, "velocity": 100}, {"time": 47080, "pitch": 66, "duration": 110, "velocity": 100}, {"time": 47190, "pitch": 67, "duration": 165, "velocity": 100}, {"time": 47355, "pitch": 66, "duration": 165, "velocity": 100}, {"time": 47630, "pitch": 64, "duration": 110, "velocity": 100}, {"time": 47740, "pitch": 62, "duration": 275, "velocity": 100}, {"time": 48015, "pitch": 69, "duration": 220, "velocity": 100}, {"time": 48235, "pitch": 67, "duration": 165, "velocity": 100}, {"time": 48400, "pitch": 67, "duration": 110, "velocity": 100}, {"time": 48510, "pitch": 66, "duration": 165, "velocity": 100}, {"time": 48675, "pitch": 67, "duration": 220, "velocity": 100}, {"time": 48895, "pitch": 66, "duration": 165, "velocity": 100}, {"time": 49060, "pitch": 64, "duration": 110, "velocity": 100}, {"time": 49170, "pitch": 62, "duration": 110, "velocity": 100}, {"time": 49720, "pitch": 64, "duration": 220, "velocity": 100}, {"time": 49940, "pitch": 67, "duration": 165, "velocity": 100}, {"time": 50105, "pitch": 69, "duration": 110, "velocity": 100}, {"time": 50215, "pitch": 71, "duration": 165, "velocity": 100}, {"time": 50380, "pitch": 69, "duration": 220, "velocity": 100}, {"time": 50600, "pitch": 67, "duration": 165, "velocity": 100}, {"time": 50765, "pitch": 64, "duration": 275, "velocity": 100}, {"time": 51040, "pitch": 60, "duration": 220, "velocity": 100}, {"time": 51260, "pitch": 63, "duration": 55, "velocity": 100}, {"time": 51315, "pitch": 67, "duration": 275, "velocity": 100}, {"time": 51590, "pitch": 69, "duration": 110, "velocity": 100}, {"time": 51700, "pitch": 70, "duration": 220, "velocity": 100}, {"time": 51920, "pitch": 69, "duration": 165, "velocity": 100}, {"time": 52085, "pitch": 65, "duration": 165, "velocity": 100}, {"time": 52250, "pitch": 63, "duration": 330, "velocity": 100}, {"time": 52580, "pitch": 67, "duration": 165, "velocity": 100}, {"time": 52745, "pitch": 69, "duration": 55, "velocity": 100}, {"time": 52910, "pitch": 66, "duration": 220, "velocity": 100}, {"time": 53130, "pitch": 67, "duration": 110, "velocity": 100}, {"time": 53240, "pitch": 64, "duration": 165, "velocity": 100}, {"time": 53405, "pitch": 66, "duration": 165, "velocity": 100}, {"time": 53570, "pitch": 63, "duration": 495, "velocity": 100}, {"time": 54065, "pitch": 67, "duration": 165, "velocity": 100}, {"time": 54230, "pitch": 69, "duration": 220, "velocity": 100}, {"time": 54450, "pitch": 66, "duration": 110, "velocity": 100}, {"time": 54615, "pitch": 67, "duration": 110, "velocity": 100}, {"time": 54725, "pitch": 64, "duration": 165, "velocity": 100}, {"time": 54890, "pitch": 66, "duration": 220, "velocity": 100}, {"time": 55110, "pitch": 63, "duration": 440, "velocity": 100}, {"time": 55550, "pitch": 62, "duration": 220, "velocity": 100}, {"time": 55770, "pitch": 64, "duration": 165, "velocity": 100}, {"time": 55935, "pitch": 67, "duration": 110, "velocity": 100}, {"time": 56045, "pitch": 74, "duration": 165, "velocity": 100}, {"time": 56210, "pitch": 72, "duration": 110, "velocity": 100}, {"time": 56430, "pitch": 74, "duration": 110, "velocity": 100}, {"time": 56540, "pitch": 72, "duration": 165, "velocity": 100}, {"time": 57090, "pitch": 71, "duration": 165, "velocity": 100}, {"time": 57255, "pitch": 69, "duration": 220, "velocity": 100}, {"time": 57475, "pitch": 67, "duration": 165, "velocity": 100}, {"time": 57640, "pitch": 64, "duration": 220, "velocity": 100}, {"time": 57860, "pitch": 63, "duration": 165, "velocity": 100}, {"time": 58025, "pitch": 69, "duration": 55, "velocity": 100}, {"time": 58410, "pitch": 71, "duration": 165, "velocity": 100}, {"time": 58575, "pitch": 69, "duration": 110, "velocity": 100}, {"time": 58685, "pitch": 67, "duration": 825, "velocity": 100}, {"time": 60115, "pitch": 71, "duration": 440, "velocity": 100}, {"time": 60555, "pitch": 74, "duration": 110, "velocity": 100}, {"time": 60665, "pitch": 71, "duration": 165, "velocity": 100}, {"time": 60830, "pitch": 71, "duration": 330, "velocity": 100}, {"time": 61160, "pitch": 69, "duration": 275, "velocity": 100}, {"time": 61435, "pitch": 74, "duration": 165, "velocity": 100}, {"time": 61600, "pitch": 71, "duration": 220, "velocity": 100}, {"time": 61985, "pitch": 71, "duration": 165, "velocity": 100}, {"time": 62150, "pitch": 71, "duration": 110, "velocity": 100}, {"time": 62260, "pitch": 72, "duration": 220, "velocity": 100}, {"time": 62480, "pitch": 71, "duration": 165, "velocity": 100}, {"time": 62645, "pitch": 69, "duration": 165, "velocity": 100}, {"time": 62810, "pitch": 67, "duration": 220, "velocity": 100}, {"time": 63030, "pitch": 67, "duration": 110, "velocity": 100}, {"time": 63140, "pitch": 64, "duration": 165, "velocity": 100}, {"time": 63305, "pitch": 66, "duration": 55, "velocity": 100}, {"time": 63415, "pitch": 67, "duration": 165, "velocity": 100}, {"time": 63580, "pitch": 69, "duration": 220, "velocity": 100}, {"time": 63800, "pitch": 69, "duration": 275, "velocity": 100}, {"time": 64075, "pitch": 67, "duration": 550, "velocity": 100}, {"time": 65010, "pitch": 69, "duration": 110, "velocity": 100}, {"time": 65120, "pitch": 71, "duration": 165, "velocity": 100}, {"time": 65285, "pitch": 76, "duration": 275, "velocity": 100}, {"time": 65560, "pitch": 74, "duration": 110, "velocity": 100}, {"time": 65670, "pitch": 69, "duration": 165, "velocity": 100}, {"time": 65835, "pitch": 67, "duration": 275, "velocity": 100}, {"time": 66110, "pitch": 71, "duration": 220, "velocity": 100}, {"time": 66330, "pitch": 74, "duration": 110, "velocity": 100}, {"time": 66440, "pitch": 69, "duration": 165, "velocity": 100}, {"time": 66605, "pitch": 67, "duration": 165, "velocity": 100}, {"time": 66770, "pitch": 71, "duration": 110, "velocity": 100}, {"time": 67925, "pitch": 62, "duration": 110, "velocity": 100}, {"time": 68035, "pitch": 67, "duration": 55, "velocity": 100}, {"time": 68090, "pitch": 69, "duration": 220, "velocity": 100}, {"time": 68310, "pitch": 69, "duration": 165, "velocity": 100}, {"time": 68475, "pitch": 69, "duration": 165, "velocity": 100}, {"time": 68695, "pitch": 67, "duration": 165, "velocity": 100}, {"time": 68860, "pitch": 67, "duration": 275, "velocity": 100}, {"time": 69410, "pitch": 62, "duration": 110, "velocity": 100}, {"time": 69520, "pitch": 67, "duration": 110, "velocity": 100}, {"time": 69630, "pitch": 69, "duration": 165, "velocity": 100}, {"time": 69795, "pitch": 76, "duration": 220, "velocity": 100}, {"time": 70015, "pitch": 74, "duration": 165, "velocity": 100}, {"time": 70180, "pitch": 69, "duration": 220, "velocity": 100}, {"time": 70400, "pitch": 67, "duration": 275, "velocity": 100}, {"time": 70675, "pitch": 71, "duration": 55, "velocity": 100}, {"time": 70730, "pitch": 71, "duration": 110, "velocity": 100}, {"time": 70840, "pitch": 71, "duration": 110, "velocity": 100}, {"time": 70950, "pitch": 71, "duration": 110, "velocity": 100}, {"time": 71060, "pitch": 71, "duration": 165, "velocity": 100}, {"time": 71225, "pitch": 71, "duration": 110, "velocity": 100}, {"time": 71335, "pitch": 71, "duration": 55, "velocity": 100}, {"time": 71390, "pitch": 71, "duration": 110, "velocity": 100}, {"time": 71500, "pitch": 71, "duration": 110, "velocity": 100}, {"time": 71610, "pitch": 71, "duration": 110, "velocity": 100}, {"time": 71720, "pitch": 71, "duration": 55, "velocity": 100}, {"time": 71775, "pitch": 71, "duration": 220, "velocity": 100}, {"time": 71995, "pitch": 71, "duration": 55, "velocity": 100}, {"time": 72050, "pitch": 71, "duration": 110, "velocity": 100}, {"time": 72160, "pitch": 76, "duration": 220, "velocity": 100}, {"time": 72380, "pitch": 74, "duration": 55, "velocity": 100}, {"time": 72435, "pitch": 71, "duration": 110, "velocity": 100}, {"time": 72545, "pitch": 74, "duration": 110, "velocity": 100}, {"time": 72655, "pitch": 71, "duration": 55, "velocity": 100}, {"time": 72710, "pitch": 74, "duration": 110, "velocity": 100}, {"time": 72820, "pitch": 76, "duration": 220, "velocity": 100}, {"time": 73040, "pitch": 74, "duration": 165, "velocity": 100}, {"time": 73205, "pitch": 71, "duration": 110, "velocity": 100}, {"time": 73315, "pitch": 69, "duration": 55, "velocity": 100}, {"time": 73370, "pitch": 67, "duration": 55, "velocity": 100}, {"time": 73425, "pitch": 64, "duration": 55, "velocity": 100}, {"time": 73480, "pitch": 67, "duration": 110, "velocity": 100}, {"time": 73590, "pitch": 69, "duration": 110, "velocity": 100}, {"time": 73700, "pitch": 55, "duration": 165, "velocity": 100}, {"time": 73865, "pitch": 59, "duration": 55, "velocity": 100}, {"time": 74030, "pitch": 62, "duration": 220, "velocity": 100}, {"time": 74250, "pitch": 66, "duration": 110, "velocity": 100}, {"time": 74360, "pitch": 67, "duration": 165, "velocity": 100}, {"time": 74525, "pitch": 66, "duration": 275, "velocity": 100}, {"time": 74800, "pitch": 64, "duration": 110, "velocity": 100}, {"time": 74910, "pitch": 62, "duration": 275, "velocity": 100}, {"time": 75185, "pitch": 69, "duration": 165, "velocity": 100}, {"time": 75350, "pitch": 67, "duration": 220, "velocity": 100}, {"time": 75570, "pitch": 67, "duration": 110, "velocity": 100}, {"time": 75680, "pitch": 66, "duration": 165, "velocity": 100}, {"time": 75845, "pitch": 67, "duration": 165, "velocity": 100}, {"time": 76010, "pitch": 66, "duration": 220, "velocity": 100}, {"time": 76230, "pitch": 64, "duration": 110, "velocity": 100}, {"time": 76340, "pitch": 62, "duration": 330, "velocity": 100}, {"time": 76890, "pitch": 64, "duration": 165, "velocity": 100}, {"time": 77055, "pitch": 67, "duration": 220, "velocity": 100}, {"time": 77275, "pitch": 69, "duration": 55, "velocity": 100}, {"time": 77330, "pitch": 71, "duration": 110, "velocity": 100}, {"time": 77550, "pitch": 69, "duration": 165, "velocity": 100}, {"time": 77715, "pitch": 67, "duration": 220, "velocity": 100}, {"time": 77935, "pitch": 64, "duration": 275, "velocity": 100}, {"time": 78210, "pitch": 60, "duration": 165, "velocity": 100}, {"time": 78375, "pitch": 63, "duration": 110, "velocity": 100}, {"time": 78485, "pitch": 67, "duration": 275, "velocity": 100}, {"time": 78760, "pitch": 69, "duration": 110, "velocity": 100}, {"time": 78870, "pitch": 70, "duration": 165, "velocity": 100}, {"time": 79035, "pitch": 69, "duration": 165, "velocity": 100}, {"time": 79255, "pitch": 65, "duration": 165, "velocity": 100}, {"time": 79420, "pitch": 63, "duration": 275, "velocity": 100}, {"time": 79695, "pitch": 67, "duration": 220, "velocity": 100}, {"time": 79915, "pitch": 69, "duration": 165, "velocity": 100}, {"time": 80080, "pitch": 66, "duration": 220, "velocity": 100}, {"time": 80300, "pitch": 67, "duration": 55, "velocity": 100}, {"time": 80355, "pitch": 64, "duration": 220, "velocity": 100}, {"time": 80575, "pitch": 66, "duration": 165, "velocity": 100}, {"time": 80740, "pitch": 63, "duration": 220, "velocity": 100}, {"time": 81235, "pitch": 67, "duration": 165, "velocity": 100}, {"time": 81400, "pitch": 69, "duration": 220, "velocity": 100}, {"time": 81620, "pitch": 66, "duration": 165, "velocity": 100}, {"time": 81785, "pitch": 67, "duration": 110, "velocity": 100}, {"time": 81895, "pitch": 64, "duration": 165, "velocity": 100}, {"time": 82060, "pitch": 66, "duration": 220, "velocity": 100}, {"time": 82280, "pitch": 63, "duration": 440, "velocity": 100}, {"time": 82720, "pitch": 62, "duration": 220, "velocity": 100}, {"time": 82940, "pitch": 64, "duration": 165, "velocity": 100}, {"time": 83105, "pitch": 67, "duration": 110, "velocity": 100}, {"time": 83215, "pitch": 74, "duration": 165, "velocity": 100}, {"time": 83380, "pitch": 72, "duration": 220, "velocity": 100}, {"time": 83600, "pitch": 74, "duration": 55, "velocity": 100}, {"time": 83655, "pitch": 72, "duration": 220, "velocity": 100}, {"time": 84205, "pitch": 71, "duration": 220, "velocity": 100}, {"time": 84425, "pitch": 69, "duration": 55, "velocity": 100}, {"time": 84590, "pitch": 67, "duration": 220, "velocity": 100}, {"time": 84810, "pitch": 64, "duration": 165, "velocity": 100}, {"time": 84975, "pitch": 63, "duration": 220, "velocity": 100}, {"time": 85195, "pitch": 67, "duration": 1045, "velocity": 100}, {"time": 86515, "pitch": 62, "duration": 55, "velocity": 100}, {"time": 86570, "pitch": 64, "duration": 110, "velocity": 100}, {"time": 86680, "pitch": 67, "duration": 110, "velocity": 100}, {"time": 86790, "pitch": 69, "duration": 110, "velocity": 100}, {"time": 86900, "pitch": 71, "duration": 55, "velocity": 100}, {"time": 86955, "pitch": 69, "duration": 275, "velocity": 100}, {"time": 87230, "pitch": 69, "duration": 110, "velocity": 100}, {"time": 87340, "pitch": 67, "duration": 660, "velocity": 100}, {"time": 88770, "pitch": 71, "duration": 440, "velocity": 100}, {"time": 89210, "pitch": 74, "duration": 110, "velocity": 100}, {"time": 89320, "pitch": 71, "duration": 220, "velocity": 100}, {"time": 89540, "pitch": 71, "duration": 220, "velocity": 100}, {"time": 89815, "pitch": 69, "duration": 165, "velocity": 100}, {"time": 90255, "pitch": 71, "duration": 220, "velocity": 100}, {"time": 90475, "pitch": 69, "duration": 165, "velocity": 100}, {"time": 90640, "pitch": 67, "duration": 220, "velocity": 100}, {"time": 90860, "pitch": 69, "duration": 165, "velocity": 100}, {"time": 91025, "pitch": 71, "duration": 165, "velocity": 100}, {"time": 91190, "pitch": 67, "duration": 330, "velocity": 100}, {"time": 91575, "pitch": 69, "duration": 220, "velocity": 100}, {"time": 91795, "pitch": 67, "duration": 385, "velocity": 100}, {"time": 92180, "pitch": 67, "duration": 55, "velocity": 100}, {"time": 92235, "pitch": 74, "duration": 110, "velocity": 100}, {"time": 92345, "pitch": 71, "duration": 165, "velocity": 100}, {"time": 92510, "pitch": 71, "duration": 330, "velocity": 100}, {"time": 92840, "pitch": 69, "duration": 440, "velocity": 100}, {"time": 93280, "pitch": 71, "duration": 220, "velocity": 100}, {"time": 93500, "pitch": 69, "duration": 165, "velocity": 100}, {"time": 93665, "pitch": 67, "duration": 165, "velocity": 100}, {"time": 93830, "pitch": 69, "duration": 220, "velocity": 100}, {"time": 94050, "pitch": 71, "duration": 165, "velocity": 100}, {"time": 94215, "pitch": 67, "duration": 385, "velocity": 100}, {"time": 94600, "pitch": 69, "duration": 220, "velocity": 100}, {"time": 94820, "pitch": 67, "duration": 220, "velocity": 100}, {"time": 95150, "pitch": 67, "duration": 110, "velocity": 100}, {"time": 95260, "pitch": 74, "duration": 110, "velocity": 100}, {"time": 95370, "pitch": 71, "duration": 165, "velocity": 100}, {"time": 95535, "pitch": 71, "duration": 275, "velocity": 100}, {"time": 95810, "pitch": 69, "duration": 495, "velocity": 100}, {"time": 96305, "pitch": 71, "duration": 165, "velocity": 100}, {"time": 96470, "pitch": 69, "duration": 220, "velocity": 100}, {"time": 96690, "pitch": 67, "duration": 110, "velocity": 100}, {"time": 96855, "pitch": 69, "duration": 220, "velocity": 100}, {"time": 97075, "pitch": 71, "duration": 165, "velocity": 100}, {"time": 97240, "pitch": 67, "duration": 385, "velocity": 100}, {"time": 97625, "pitch": 69, "duration": 165, "velocity": 100}, {"time": 97790, "pitch": 67, "duration": 385, "velocity": 100}, {"time": 98175, "pitch": 67, "duration": 110, "velocity": 100}, {"time": 98285, "pitch": 74, "duration": 110, "velocity": 100}, {"time": 98395, "pitch": 71, "duration": 165, "velocity": 100}, {"time": 98560, "pitch": 71, "duration": 275, "velocity": 100}, {"time": 98835, "pitch": 69, "duration": 495, "velocity": 100}, {"time": 99330, "pitch": 71, "duration": 165, "velocity": 100}, {"time": 99495, "pitch": 69, "duration": 220, "velocity": 100}, {"time": 99715, "pitch": 67, "duration": 165, "velocity": 100}, {"time": 99880, "pitch": 69, "duration": 220, "velocity": 100}, {"time": 100100, "pitch": 71, "duration": 165, "velocity": 100}, {"time": 100265, "pitch": 67, "duration": 55, "velocity": 100}, {"time": 100650, "pitch": 69, "duration": 165, "velocity": 100}, {"time": 100815, "pitch": 67, "duration": 385, "velocity": 100}, {"time": 101200, "pitch": 67, "duration": 110, "velocity": 100}, {"time": 101310, "pitch": 74, "duration": 110, "velocity": 100}, {"time": 101420, "pitch": 71, "duration": 165, "velocity": 100}, {"time": 101585, "pitch": 71, "duration": 275, "velocity": 100}, {"time": 101860, "pitch": 69, "duration": 220, "velocity": 100}, {"time": 102355, "pitch": 71, "duration": 165, "velocity": 100}, {"time": 102520, "pitch": 69, "duration": 220, "velocity": 100}, {"time": 102740, "pitch": 67, "duration": 165, "velocity": 100}, {"time": 102905, "pitch": 69, "duration": 165, "velocity": 100}, {"time": 103070, "pitch": 71, "duration": 220, "velocity": 100}, {"time": 103290, "pitch": 67, "duration": 385, "velocity": 100}, {"time": 103675, "pitch": 69, "duration": 165, "velocity": 100}, {"time": 103840, "pitch": 67, "duration": 385, "velocity": 100}, {"time": 104225, "pitch": 67, "duration": 110, "velocity": 100}, {"time": 104335, "pitch": 74, "duration": 55, "velocity": 100}, {"time": 104390, "pitch": 71, "duration": 220, "velocity": 100}, {"time": 104610, "pitch": 71, "duration": 275, "velocity": 100}, {"time": 104885, "pitch": 69, "duration": 495, "velocity": 100}, {"time": 105380, "pitch": 71, "duration": 165, "velocity": 100}, {"time": 105545, "pitch": 69, "duration": 55, "velocity": 100}, {"time": 105710, "pitch": 67, "duration": 220, "velocity": 100}, {"time": 105930, "pitch": 69, "duration": 165, "velocity": 100}, {"time": 106095, "pitch": 71, "duration": 220, "velocity": 100}, {"time": 106315, "pitch": 67, "duration": 385, "velocity": 100}, {"time": 106700, "pitch": 69, "duration": 165, "velocity": 100}, {"time": 106865, "pitch": 67, "duration": 385, "velocity": 100}, {"time": 107250, "pitch": 67, "duration": 110, "velocity": 100}, {"time": 107360, "pitch": 74, "duration": 55, "velocity": 100}, {"time": 107415, "pitch": 71, "duration": 220, "velocity": 100}, {"time": 107635, "pitch": 71, "duration": 275, "velocity": 100}, {"time": 107910, "pitch": 69, "duration": 1210, "velocity": 100}, {"time": 0, "pitch": 50, "duration": 275, "velocity": 100}, {"time": 0, "pitch": 62, "duration": 110, "velocity": 100}, {"time": 0, "pitch": 65, "duration": 110, "velocity": 100}, {"time": 220, "pitch": 62, "duration": 55, "velocity": 100}, {"time": 220, "pitch": 66, "duration": 55, "velocity": 100}, {"time": 220, "pitch": 69, "duration": 55, "velocity": 100}, {"time": 385, "pitch": 62, "duration": 55, "velocity": 100}, {"time": 440, "pitch": 47, "duration": 220, "velocity": 100}, {"time": 440, "pitch": 60, "duration": 55, "velocity": 100}, {"time": 440, "pitch": 65, "duration": 110, "velocity": 100}, {"time": 550, "pitch": 59, "duration": 55, "velocity": 100}, {"time": 660, "pitch": 59, "duration": 55, "velocity": 100}, {"time": 660, "pitch": 62, "duration": 55, "velocity": 100}, {"time": 660, "pitch": 67, "duration": 55, "velocity": 100}, {"time": 880, "pitch": 45, "duration": 275, "velocity": 100}, {"time": 880, "pitch": 60, "duration": 55, "velocity": 100}, {"time": 880, "pitch": 64, "duration": 110, "velocity": 100}, {"time": 990, "pitch": 55, "duration": 110, "velocity": 100}, {"time": 1100, "pitch": 58, "duration": 55, "velocity": 100}, {"time": 1100, "pitch": 62, "duration": 55, "velocity": 100}, {"time": 1100, "pitch": 65, "duration": 55, "velocity": 100}, {"time": 1265, "pitch": 59, "duration": 55, "velocity": 100}, {"time": 1320, "pitch": 38, "duration": 275, "velocity": 100}, {"time": 1320, "pitch": 65, "duration": 110, "velocity": 100}, {"time": 1485, "pitch": 59, "duration": 55, "velocity": 100}, {"time": 1540, "pitch": 61, "duration": 55, "velocity": 100}, {"time": 1540, "pitch": 65, "duration": 55, "velocity": 100}, {"time": 1540, "pitch": 69, "duration": 55, "velocity": 100}, {"time": 1650, "pitch": 59, "duration": 55, "velocity": 100}, {"time": 1760, "pitch": 47, "duration": 220, "velocity": 100}, {"time": 1760, "pitch": 62, "duration": 110, "velocity": 100}, {"time": 1760, "pitch": 65, "duration": 110, "velocity": 100}, {"time": 1980, "pitch": 62, "duration": 55, "velocity": 100}, {"time": 1980, "pitch": 66, "duration": 55, "velocity": 100}, {"time": 2090, "pitch": 50, "duration": 55, "velocity": 100}, {"time": 2145, "pitch": 62, "duration": 55, "velocity": 100}, {"time": 2200, "pitch": 47, "duration": 275, "velocity": 100}, {"time": 2200, "pitch": 59, "duration": 110, "velocity": 100}, {"time": 2200, "pitch": 64, "duration": 110, "velocity": 100}, {"time": 2365, "pitch": 59, "duration": 55, "velocity": 100}, {"time": 2420, "pitch": 59, "duration": 55, "velocity": 100}, {"time": 2420, "pitch": 64, "duration": 110, "velocity": 100}, {"time": 2420, "pitch": 69, "duration": 110, "velocity": 100}, {"time": 2530, "pitch": 62, "duration": 55, "velocity": 100}, {"time": 2640, "pitch": 45, "duration": 275, "velocity": 100}, {"time": 2640, "pitch": 60, "duration": 110, "velocity": 100}, {"time": 2640, "pitch": 69, "duration": 110, "velocity": 100}, {"time": 2860, "pitch": 57, "duration": 110, "velocity": 100}, {"time": 2860, "pitch": 64, "duration": 110, "velocity": 100}, {"time": 2860, "pitch": 67, "duration": 165, "velocity": 100}, {"time": 2970, "pitch": 45, "duration": 55, "velocity": 100}, {"time": 3025, "pitch": 57, "duration": 55, "velocity": 100}, {"time": 3080, "pitch": 45, "duration": 55, "velocity": 100}, {"time": 3080, "pitch": 57, "duration": 110, "velocity": 100}, {"time": 3080, "pitch": 60, "duration": 110, "velocity": 100}, {"time": 3190, "pitch": 52, "duration": 110, "velocity": 100}, {"time": 3245, "pitch": 57, "duration": 110, "velocity": 100}, {"time": 3300, "pitch": 60, "duration": 165, "velocity": 100}, {"time": 3300, "pitch": 64, "duration": 165, "velocity": 100}, {"time": 3300, "pitch": 69, "duration": 165, "velocity": 100}, {"time": 3410, "pitch": 52, "duration": 55, "velocity": 100}, {"time": 3520, "pitch": 50, "duration": 275, "velocity": 100}, {"time": 3520, "pitch": 57, "duration": 55, "velocity": 100}, {"time": 3520, "pitch": 62, "duration": 110, "velocity": 100}, {"time": 3740, "pitch": 57, "duration": 55, "velocity": 100}, {"time": 3740, "pitch": 62, "duration": 55, "velocity": 100}, {"time": 3740, "pitch": 66, "duration": 110, "velocity": 100}, {"time": 3905, "pitch": 57, "duration": 55, "velocity": 100}, {"time": 3960, "pitch": 38, "duration": 220, "velocity": 100}, {"time": 3960, "pitch": 57, "duration": 55, "velocity": 100}, {"time": 3960, "pitch": 62, "duration": 110, "velocity": 100}, {"time": 4070, "pitch": 57, "duration": 55, "velocity": 100}, {"time": 4180, "pitch": 57, "duration": 55, "velocity": 100}, {"time": 4180, "pitch": 62, "duration": 55, "velocity": 100}, {"time": 4180, "pitch": 66, "duration": 55, "velocity": 100}, {"time": 4400, "pitch": 38, "duration": 275, "velocity": 100}, {"time": 4400, "pitch": 57, "duration": 110, "velocity": 100}, {"time": 4400, "pitch": 62, "duration": 110, "velocity": 100}, {"time": 4510, "pitch": 50, "duration": 110, "velocity": 100}, {"time": 4620, "pitch": 54, "duration": 55, "velocity": 100}, {"time": 4620, "pitch": 57, "duration": 55, "velocity": 100}, {"time": 4620, "pitch": 62, "duration": 55, "velocity": 100}, {"time": 4785, "pitch": 57, "duration": 55, "velocity": 100}, {"time": 4840, "pitch": 38, "duration": 275, "velocity": 100}, {"time": 4840, "pitch": 57, "duration": 55, "velocity": 100}, {"time": 4840, "pitch": 62, "duration": 110, "velocity": 100}, {"time": 5005, "pitch": 57, "duration": 55, "velocity": 100}, {"time": 5005, "pitch": 69, "duration": 55, "velocity": 100}, {"time": 5060, "pitch": 57, "duration": 55, "velocity": 100}, {"time": 5060, "pitch": 62, "duration": 55, "velocity": 100}, {"time": 5060, "pitch": 66, "duration": 55, "velocity": 100}, {"time": 5060, "pitch": 74, "duration": 110, "velocity": 100}, {"time": 5170, "pitch": 57, "duration": 55, "velocity": 100}, {"time": 5170, "pitch": 73, "duration": 110, "velocity": 100}, {"time": 5280, "pitch": 50, "duration": 275, "velocity": 100}, {"time": 5280, "pitch": 57, "duration": 55, "velocity": 100}, {"time": 5280, "pitch": 62, "duration": 110, "velocity": 100}, {"time": 5280, "pitch": 69, "duration": 440, "velocity": 100}, {"time": 5500, "pitch": 57, "duration": 55, "velocity": 100}, {"time": 5500, "pitch": 62, "duration": 55, "velocity": 100}, {"time": 5500, "pitch": 66, "duration": 55, "velocity": 100}, {"time": 5610, "pitch": 45, "duration": 55, "velocity": 100}, {"time": 5665, "pitch": 57, "duration": 55, "velocity": 100}, {"time": 5720, "pitch": 38, "duration": 275, "velocity": 100}, {"time": 5720, "pitch": 57, "duration": 110, "velocity": 100}, {"time": 5720, "pitch": 62, "duration": 165, "velocity": 100}, {"time": 5885, "pitch": 57, "duration": 55, "velocity": 100}, {"time": 5940, "pitch": 57, "duration": 55, "velocity": 100}, {"time": 5940, "pitch": 62, "duration": 110, "velocity": 100}, {"time": 5940, "pitch": 66, "duration": 110, "velocity": 100}, {"time": 6050, "pitch": 57, "duration": 55, "velocity": 100}, {"time": 6050, "pitch": 73, "duration": 110, "velocity": 100}, {"time": 6160, "pitch": 38, "duration": 275, "velocity": 100}, {"time": 6160, "pitch": 50, "duration": 110, "velocity": 100}, {"time": 6160, "pitch": 62, "duration": 110, "velocity": 100}, {"time": 6160, "pitch": 69, "duration": 440, "velocity": 100}, {"time": 6380, "pitch": 54, "duration": 110, "velocity": 100}, {"time": 6380, "pitch": 57, "duration": 110, "velocity": 100}, {"time": 6380, "pitch": 62, "duration": 110, "velocity": 100}, {"time": 6490, "pitch": 38, "duration": 55, "velocity": 100}, {"time": 6545, "pitch": 54, "duration": 55, "velocity": 100}, {"time": 6600, "pitch": 38, "duration": 275, "velocity": 100}, {"time": 6600, "pitch": 54, "duration": 110, "velocity": 100}, {"time": 6600, "pitch": 57, "duration": 110, "velocity": 100}, {"time": 6710, "pitch": 50, "duration": 110, "velocity": 100}, {"time": 6765, "pitch": 54, "duration": 110, "velocity": 100}, {"time": 6820, "pitch": 57, "duration": 165, "velocity": 100}, {"time": 6820, "pitch": 62, "duration": 220, "velocity": 100}, {"time": 6820, "pitch": 66, "duration": 220, "velocity": 100}, {"time": 6930, "pitch": 50, "duration": 55, "velocity": 100}, {"time": 7040, "pitch": 45, "duration": 275, "velocity": 100}, {"time": 7040, "pitch": 60, "duration": 110, "velocity": 100}, {"time": 7040, "pitch": 64, "duration": 110, "velocity": 100}, {"time": 7260, "pitch": 60, "duration": 55, "velocity": 100}, {"time": 7260, "pitch": 64, "duration": 55, "velocity": 100}, {"time": 7260, "pitch": 69, "duration": 55, "velocity": 100}, {"time": 7425, "pitch": 60, "duration": 55, "velocity": 100}, {"time": 7480, "pitch": 45, "duration": 220, "velocity": 100}, {"time": 7480, "pitch": 60, "duration": 55, "velocity": 100}, {"time": 7480, "pitch": 64, "duration": 110, "velocity": 100}, {"time": 7590, "pitch": 60, "duration": 55, "velocity": 100}, {"time": 7700, "pitch": 60, "duration": 55, "velocity": 100}, {"time": 7700, "pitch": 64, "duration": 55, "velocity": 100}, {"time": 7700, "pitch": 69, "duration": 55, "velocity": 100}, {"time": 7920, "pitch": 45, "duration": 275, "velocity": 100}, {"time": 7920, "pitch": 57, "duration": 110, "velocity": 100}, {"time": 7920, "pitch": 64, "duration": 55, "velocity": 100}, {"time": 8030, "pitch": 52, "duration": 110, "velocity": 100}, {"time": 8140, "pitch": 57, "duration": 55, "velocity": 100}, {"time": 8140, "pitch": 60, "duration": 55, "velocity": 100}, {"time": 8140, "pitch": 64, "duration": 55, "velocity": 100}, {"time": 8305, "pitch": 60, "duration": 55, "velocity": 100}, {"time": 8360, "pitch": 40, "duration": 275, "velocity": 100}, {"time": 8360, "pitch": 60, "duration": 55, "velocity": 100}, {"time": 8360, "pitch": 64, "duration": 110, "velocity": 100}, {"time": 8525, "pitch": 60, "duration": 55, "velocity": 100}, {"time": 8580, "pitch": 60, "duration": 55, "velocity": 100}, {"time": 8580, "pitch": 64, "duration": 55, "velocity": 100}, {"time": 8580, "pitch": 69, "duration": 110, "velocity": 100}, {"time": 8690, "pitch": 60, "duration": 55, "velocity": 100}, {"time": 8800, "pitch": 45, "duration": 220, "velocity": 100}, {"time": 8800, "pitch": 60, "duration": 110, "velocity": 100}, {"time": 8800, "pitch": 64, "duration": 110, "velocity": 100}, {"time": 9020, "pitch": 64, "duration": 55, "velocity": 100}, {"time": 9020, "pitch": 67, "duration": 55, "velocity": 100}, {"time": 9130, "pitch": 52, "duration": 55, "velocity": 100}, {"time": 9185, "pitch": 60, "duration": 55, "velocity": 100}, {"time": 9240, "pitch": 45, "duration": 275, "velocity": 100}, {"time": 9240, "pitch": 60, "duration": 110, "velocity": 100}, {"time": 9240, "pitch": 64, "duration": 110, "velocity": 100}, {"time": 9405, "pitch": 60, "duration": 55, "velocity": 100}, {"time": 9460, "pitch": 60, "duration": 55, "velocity": 100}, {"time": 9460, "pitch": 64, "duration": 110, "velocity": 100}, {"time": 9460, "pitch": 69, "duration": 110, "velocity": 100}, {"time": 9570, "pitch": 60, "duration": 55, "velocity": 100}, {"time": 9680, "pitch": 45, "duration": 275, "velocity": 100}, {"time": 9680, "pitch": 57, "duration": 110, "velocity": 100}, {"time": 9680, "pitch": 69, "duration": 110, "velocity": 100}, {"time": 9900, "pitch": 57, "duration": 110, "velocity": 100}, {"time": 9900, "pitch": 64, "duration": 110, "velocity": 100}, {"time": 9900, "pitch": 69, "duration": 110, "velocity": 100}, {"time": 10010, "pitch": 45, "duration": 55, "velocity": 100}, {"time": 10065, "pitch": 57, "duration": 55, "velocity": 100}, {"time": 10120, "pitch": 45, "duration": 275, "velocity": 100}, {"time": 10120, "pitch": 57, "duration": 110, "velocity": 100}, {"time": 10120, "pitch": 60, "duration": 110, "velocity": 100}, {"time": 10230, "pitch": 52, "duration": 110, "velocity": 100}, {"time": 10285, "pitch": 57, "duration": 110, "velocity": 100}, {"time": 10340, "pitch": 60, "duration": 165, "velocity": 100}, {"time": 10340, "pitch": 64, "duration": 220, "velocity": 100}, {"time": 10340, "pitch": 69, "duration": 220, "velocity": 100}, {"time": 10450, "pitch": 52, "duration": 55, "velocity": 100}, {"time": 10560, "pitch": 51, "duration": 275, "velocity": 100}, {"time": 10560, "pitch": 63, "duration": 55, "velocity": 100}, {"time": 10560, "pitch": 66, "duration": 110, "velocity": 100}, {"time": 10780, "pitch": 63, "duration": 55, "velocity": 100}, {"time": 10780, "pitch": 66, "duration": 110, "velocity": 100}, {"time": 10780, "pitch": 71, "duration": 110, "velocity": 100}, {"time": 10945, "pitch": 63, "duration": 55, "velocity": 100}, {"time": 11000, "pitch": 47, "duration": 220, "velocity": 100}, {"time": 11000, "pitch": 63, "duration": 110, "velocity": 100}, {"time": 11000, "pitch": 66, "duration": 110, "velocity": 100}, {"time": 11110, "pitch": 59, "duration": 55, "velocity": 100}, {"time": 11220, "pitch": 59, "duration": 55, "velocity": 100}, {"time": 11220, "pitch": 63, "duration": 55, "velocity": 100}, {"time": 11220, "pitch": 71, "duration": 55, "velocity": 100}, {"time": 11440, "pitch": 47, "duration": 275, "velocity": 100}, {"time": 11440, "pitch": 59, "duration": 110, "velocity": 100}, {"time": 11440, "pitch": 63, "duration": 110, "velocity": 100}, {"time": 11440, "pitch": 66, "duration": 110, "velocity": 100}, {"time": 11550, "pitch": 54, "duration": 110, "velocity": 100}, {"time": 11660, "pitch": 59, "duration": 55, "velocity": 100}, {"time": 11660, "pitch": 63, "duration": 55, "velocity": 100}, {"time": 11660, "pitch": 66, "duration": 55, "velocity": 100}, {"time": 11825, "pitch": 61, "duration": 55, "velocity": 100}, {"time": 11880, "pitch": 47, "duration": 275, "velocity": 100}, {"time": 11880, "pitch": 59, "duration": 110, "velocity": 100}, {"time": 11880, "pitch": 66, "duration": 110, "velocity": 100}, {"time": 12045, "pitch": 59, "duration": 55, "velocity": 100}, {"time": 12045, "pitch": 75, "duration": 55, "velocity": 100}, {"time": 12100, "pitch": 59, "duration": 55, "velocity": 100}, {"time": 12100, "pitch": 66, "duration": 55, "velocity": 100}, {"time": 12100, "pitch": 71, "duration": 55, "velocity": 100}, {"time": 12100, "pitch": 78, "duration": 110, "velocity": 100}, {"time": 12210, "pitch": 61, "duration": 55, "velocity": 100}, {"time": 12210, "pitch": 76, "duration": 110, "velocity": 100}, {"time": 12320, "pitch": 51, "duration": 275, "velocity": 100}, {"time": 12320, "pitch": 63, "duration": 165, "velocity": 100}, {"time": 12320, "pitch": 66, "duration": 165, "velocity": 100}, {"time": 12320, "pitch": 75, "duration": 440, "velocity": 100}, {"time": 12540, "pitch": 63, "duration": 55, "velocity": 100}, {"time": 12540, "pitch": 66, "duration": 55, "velocity": 100}, {"time": 12540, "pitch": 71, "duration": 55, "velocity": 100}, {"time": 12650, "pitch": 54, "duration": 55, "velocity": 100}, {"time": 12705, "pitch": 63, "duration": 55, "velocity": 100}, {"time": 12760, "pitch": 47, "duration": 275, "velocity": 100}, {"time": 12760, "pitch": 59, "duration": 110, "velocity": 100}, {"time": 12760, "pitch": 66, "duration": 165, "velocity": 100}, {"time": 12925, "pitch": 59, "duration": 55, "velocity": 100}, {"time": 12980, "pitch": 59, "duration": 110, "velocity": 100}, {"time": 12980, "pitch": 66, "duration": 110, "velocity": 100}, {"time": 12980, "pitch": 71, "duration": 110, "velocity": 100}, {"time": 13090, "pitch": 61, "duration": 55, "velocity": 100}, {"time": 13090, "pitch": 78, "duration": 110, "velocity": 100}, {"time": 13200, "pitch": 47, "duration": 275, "velocity": 100}, {"time": 13200, "pitch": 59, "duration": 110, "velocity": 100}, {"time": 13200, "pitch": 66, "duration": 110, "velocity": 100}, {"time": 13200, "pitch": 75, "duration": 440, "velocity": 100}, {"time": 13420, "pitch": 59, "duration": 110, "velocity": 100}, {"time": 13420, "pitch": 63, "duration": 110, "velocity": 100}, {"time": 13420, "pitch": 66, "duration": 110, "velocity": 100}, {"time": 13530, "pitch": 47, "duration": 55, "velocity": 100}, {"time": 13585, "pitch": 54, "duration": 55, "velocity": 100}, {"time": 13640, "pitch": 47, "duration": 275, "velocity": 100}, {"time": 13640, "pitch": 59, "duration": 110, "velocity": 100}, {"time": 13640, "pitch": 63, "duration": 110, "velocity": 100}, {"time": 13750, "pitch": 54, "duration": 110, "velocity": 100}, {"time": 13805, "pitch": 59, "duration": 165, "velocity": 100}, {"time": 13860, "pitch": 59, "duration": 220, "velocity": 100}, {"time": 13860, "pitch": 66, "duration": 220, "velocity": 100}, {"time": 13860, "pitch": 71, "duration": 220, "velocity": 100}, {"time": 13970, "pitch": 54, "duration": 110, "velocity": 100}, {"time": 14080, "pitch": 48, "duration": 275, "velocity": 100}, {"time": 14080, "pitch": 55, "duration": 110, "velocity": 100}, {"time": 14080, "pitch": 63, "duration": 110, "velocity": 100}, {"time": 14190, "pitch": 51, "duration": 110, "velocity": 100}, {"time": 14300, "pitch": 55, "duration": 55, "velocity": 100}, {"time": 14300, "pitch": 60, "duration": 55, "velocity": 100}, {"time": 14300, "pitch": 63, "duration": 55, "velocity": 100}, {"time": 14355, "pitch": 48, "duration": 55, "velocity": 100}, {"time": 14355, "pitch": 67, "duration": 55, "velocity": 100}, {"time": 14410, "pitch": 55, "duration": 55, "velocity": 100}, {"time": 14410, "pitch": 63, "duration": 55, "velocity": 100}, {"time": 14465, "pitch": 60, "duration": 55, "velocity": 100}, {"time": 14520, "pitch": 48, "duration": 275, "velocity": 100}, {"time": 14520, "pitch": 55, "duration": 55, "velocity": 100}, {"time": 14520, "pitch": 63, "duration": 330, "velocity": 100}, {"time": 14630, "pitch": 55, "duration": 55, "velocity": 100}, {"time": 14740, "pitch": 55, "duration": 110, "velocity": 100}, {"time": 14740, "pitch": 63, "duration": 220, "velocity": 100}, {"time": 14850, "pitch": 60, "duration": 165, "velocity": 100}, {"time": 14960, "pitch": 48, "duration": 385, "velocity": 100}, {"time": 14960, "pitch": 55, "duration": 165, "velocity": 100}, {"time": 14960, "pitch": 60, "duration": 220, "velocity": 100}, {"time": 15070, "pitch": 51, "duration": 165, "velocity": 100}, {"time": 15180, "pitch": 60, "duration": 110, "velocity": 100}, {"time": 15180, "pitch": 63, "duration": 110, "velocity": 100}, {"time": 15180, "pitch": 65, "duration": 55, "velocity": 100}, {"time": 15235, "pitch": 65, "duration": 55, "velocity": 100}, {"time": 15290, "pitch": 55, "duration": 55, "velocity": 100}, {"time": 15290, "pitch": 65, "duration": 55, "velocity": 100}, {"time": 15345, "pitch": 55, "duration": 55, "velocity": 100}, {"time": 15345, "pitch": 60, "duration": 55, "velocity": 100}, {"time": 15400, "pitch": 48, "duration": 275, "velocity": 100}, {"time": 15400, "pitch": 60, "duration": 220, "velocity": 100}, {"time": 15510, "pitch": 55, "duration": 55, "velocity": 100}, {"time": 15620, "pitch": 60, "duration": 110, "velocity": 100}, {"time": 15620, "pitch": 63, "duration": 220, "velocity": 100}, {"time": 15730, "pitch": 55, "duration": 110, "velocity": 100}, {"time": 15730, "pitch": 62, "duration": 110, "velocity": 100}, {"time": 15840, "pitch": 48, "duration": 385, "velocity": 100}, {"time": 15840, "pitch": 55, "duration": 165, "velocity": 100}, {"time": 15840, "pitch": 60, "duration": 220, "velocity": 100}, {"time": 15950, "pitch": 51, "duration": 110, "velocity": 100}, {"time": 16060, "pitch": 55, "duration": 55, "velocity": 100}, {"time": 16060, "pitch": 60, "duration": 55, "velocity": 100}, {"time": 16060, "pitch": 63, "duration": 55, "velocity": 100}, {"time": 16115, "pitch": 55, "duration": 55, "velocity": 100}, {"time": 16115, "pitch": 67, "duration": 55, "velocity": 100}, {"time": 16170, "pitch": 60, "duration": 55, "velocity": 100}, {"time": 16170, "pitch": 63, "duration": 55, "velocity": 100}, {"time": 16225, "pitch": 60, "duration": 55, "velocity": 100}, {"time": 16225, "pitch": 63, "duration": 55, "velocity": 100}, {"time": 16280, "pitch": 48, "duration": 275, "velocity": 100}, {"time": 16280, "pitch": 55, "duration": 165, "velocity": 100}, {"time": 16280, "pitch": 60, "duration": 440, "velocity": 100}, {"time": 16500, "pitch": 55, "duration": 55, "velocity": 100}, {"time": 16500, "pitch": 63, "duration": 220, "velocity": 100}, {"time": 16610, "pitch": 58, "duration": 110, "velocity": 100}, {"time": 16610, "pitch": 60, "duration": 110, "velocity": 100}, {"time": 16720, "pitch": 48, "duration": 385, "velocity": 100}, {"time": 16720, "pitch": 55, "duration": 165, "velocity": 100}, {"time": 16720, "pitch": 60, "duration": 220, "velocity": 100}, {"time": 16830, "pitch": 51, "duration": 275, "velocity": 100}, {"time": 16940, "pitch": 55, "duration": 55, "velocity": 100}, {"time": 16940, "pitch": 60, "duration": 110, "velocity": 100}, {"time": 16940, "pitch": 63, "duration": 110, "velocity": 100}, {"time": 16940, "pitch": 72, "duration": 55, "velocity": 100}, {"time": 16995, "pitch": 74, "duration": 55, "velocity": 100}, {"time": 17050, "pitch": 55, "duration": 55, "velocity": 100}, {"time": 17105, "pitch": 75, "duration": 55, "velocity": 100}, {"time": 17160, "pitch": 48, "duration": 385, "velocity": 100}, {"time": 17160, "pitch": 55, "duration": 55, "velocity": 100}, {"time": 17160, "pitch": 60, "duration": 220, "velocity": 100}, {"time": 17160, "pitch": 75, "duration": 220, "velocity": 100}, {"time": 17270, "pitch": 55, "duration": 55, "velocity": 100}, {"time": 17325, "pitch": 77, "duration": 165, "velocity": 100}, {"time": 17380, "pitch": 55, "duration": 165, "velocity": 100}, {"time": 17380, "pitch": 60, "duration": 110, "velocity": 100}, {"time": 17435, "pitch": 72, "duration": 55, "velocity": 100}, {"time": 17490, "pitch": 63, "duration": 110, "velocity": 100}, {"time": 17600, "pitch": 51, "duration": 275, "velocity": 100}, {"time": 17600, "pitch": 63, "duration": 110, "velocity": 100}, {"time": 17600, "pitch": 66, "duration": 110, "velocity": 100}, {"time": 17820, "pitch": 63, "duration": 55, "velocity": 100}, {"time": 17820, "pitch": 66, "duration": 55, "velocity": 100}, {"time": 17820, "pitch": 71, "duration": 110, "velocity": 100}, {"time": 17985, "pitch": 63, "duration": 55, "velocity": 100}, {"time": 18040, "pitch": 47, "duration": 385, "velocity": 100}, {"time": 18040, "pitch": 59, "duration": 55, "velocity": 100}, {"time": 18040, "pitch": 66, "duration": 110, "velocity": 100}, {"time": 18150, "pitch": 59, "duration": 55, "velocity": 100}, {"time": 18260, "pitch": 59, "duration": 55, "velocity": 100}, {"time": 18260, "pitch": 63, "duration": 55, "velocity": 100}, {"time": 18260, "pitch": 66, "duration": 55, "velocity": 100}, {"time": 18480, "pitch": 47, "duration": 275, "velocity": 100}, {"time": 18480, "pitch": 59, "duration": 110, "velocity": 100}, {"time": 18480, "pitch": 63, "duration": 110, "velocity": 100}, {"time": 18480, "pitch": 66, "duration": 55, "velocity": 100}, {"time": 18590, "pitch": 54, "duration": 110, "velocity": 100}, {"time": 18700, "pitch": 59, "duration": 55, "velocity": 100}, {"time": 18700, "pitch": 63, "duration": 55, "velocity": 100}, {"time": 18700, "pitch": 66, "duration": 55, "velocity": 100}, {"time": 18865, "pitch": 61, "duration": 55, "velocity": 100}, {"time": 18920, "pitch": 39, "duration": 275, "velocity": 100}, {"time": 18920, "pitch": 66, "duration": 110, "velocity": 100}, {"time": 19085, "pitch": 59, "duration": 55, "velocity": 100}, {"time": 19140, "pitch": 59, "duration": 55, "velocity": 100}, {"time": 19140, "pitch": 66, "duration": 55, "velocity": 100}, {"time": 19140, "pitch": 71, "duration": 55, "velocity": 100}, {"time": 19250, "pitch": 61, "duration": 55, "velocity": 100}, {"time": 19360, "pitch": 47, "duration": 220, "velocity": 100}, {"time": 19360, "pitch": 63, "duration": 110, "velocity": 100}, {"time": 19360, "pitch": 66, "duration": 110, "velocity": 100}, {"time": 19580, "pitch": 63, "duration": 55, "velocity": 100}, {"time": 19580, "pitch": 66, "duration": 55, "velocity": 100}, {"time": 19580, "pitch": 71, "duration": 55, "velocity": 100}, {"time": 19690, "pitch": 54, "duration": 55, "velocity": 100}, {"time": 19745, "pitch": 63, "duration": 55, "velocity": 100}, {"time": 19800, "pitch": 47, "duration": 275, "velocity": 100}, {"time": 19800, "pitch": 59, "duration": 110, "velocity": 100}, {"time": 19800, "pitch": 66, "duration": 110, "velocity": 100}, {"time": 19965, "pitch": 59, "duration": 55, "velocity": 100}, {"time": 20020, "pitch": 59, "duration": 55, "velocity": 100}, {"time": 20020, "pitch": 66, "duration": 110, "velocity": 100}, {"time": 20020, "pitch": 71, "duration": 110, "velocity": 100}, {"time": 20130, "pitch": 61, "duration": 55, "velocity": 100}, {"time": 20240, "pitch": 47, "duration": 275, "velocity": 100}, {"time": 20240, "pitch": 59, "duration": 110, "velocity": 100}, {"time": 20240, "pitch": 66, "duration": 110, "velocity": 100}, {"time": 20460, "pitch": 59, "duration": 110, "velocity": 100}, {"time": 20460, "pitch": 63, "duration": 110, "velocity": 100}, {"time": 20460, "pitch": 66, "duration": 110, "velocity": 100}, {"time": 20570, "pitch": 47, "duration": 55, "velocity": 100}, {"time": 20625, "pitch": 59, "duration": 55, "velocity": 100}, {"time": 20680, "pitch": 47, "duration": 275, "velocity": 100}, {"time": 20680, "pitch": 59, "duration": 110, "velocity": 100}, {"time": 20680, "pitch": 63, "duration": 110, "velocity": 100}, {"time": 20790, "pitch": 54, "duration": 110, "velocity": 100}, {"time": 20845, "pitch": 59, "duration": 110, "velocity": 100}, {"time": 20900, "pitch": 63, "duration": 165, "velocity": 100}, {"time": 20900, "pitch": 66, "duration": 220, "velocity": 100}, {"time": 20900, "pitch": 71, "duration": 165, "velocity": 100}, {"time": 21010, "pitch": 54, "duration": 55, "velocity": 100}, {"time": 21120, "pitch": 43, "duration": 275, "velocity": 100}, {"time": 21120, "pitch": 55, "duration": 55, "velocity": 100}, {"time": 21120, "pitch": 59, "duration": 110, "velocity": 100}, {"time": 21340, "pitch": 55, "duration": 55, "velocity": 100}, {"time": 21340, "pitch": 59, "duration": 110, "velocity": 100}, {"time": 21340, "pitch": 63, "duration": 110, "velocity": 100}, {"time": 21505, "pitch": 55, "duration": 55, "velocity": 100}, {"time": 21560, "pitch": 39, "duration": 220, "velocity": 100}, {"time": 21560, "pitch": 55, "duration": 55, "velocity": 100}, {"time": 21560, "pitch": 59, "duration": 110, "velocity": 100}, {"time": 21670, "pitch": 54, "duration": 55, "velocity": 100}, {"time": 21780, "pitch": 55, "duration": 55, "velocity": 100}, {"time": 21780, "pitch": 59, "duration": 55, "velocity": 100}, {"time": 21780, "pitch": 63, "duration": 55, "velocity": 100}, {"time": 22000, "pitch": 39, "duration": 275, "velocity": 100}, {"time": 22000, "pitch": 51, "duration": 110, "velocity": 100}, {"time": 22000, "pitch": 55, "duration": 110, "velocity": 100}, {"time": 22000, "pitch": 59, "duration": 110, "velocity": 100}, {"time": 22110, "pitch": 47, "duration": 110, "velocity": 100}, {"time": 22220, "pitch": 51, "duration": 55, "velocity": 100}, {"time": 22220, "pitch": 55, "duration": 55, "velocity": 100}, {"time": 22220, "pitch": 59, "duration": 55, "velocity": 100}, {"time": 22385, "pitch": 55, "duration": 55, "velocity": 100}, {"time": 22440, "pitch": 39, "duration": 275, "velocity": 100}, {"time": 22440, "pitch": 55, "duration": 110, "velocity": 100}, {"time": 22440, "pitch": 59, "duration": 110, "velocity": 100}, {"time": 22605, "pitch": 55, "duration": 55, "velocity": 100}, {"time": 22605, "pitch": 67, "duration": 55, "velocity": 100}, {"time": 22660, "pitch": 55, "duration": 55, "velocity": 100}, {"time": 22660, "pitch": 59, "duration": 55, "velocity": 100}, {"time": 22660, "pitch": 63, "duration": 55, "velocity": 100}, {"time": 22660, "pitch": 71, "duration": 110, "velocity": 100}, {"time": 22770, "pitch": 54, "duration": 55, "velocity": 100}, {"time": 22770, "pitch": 71, "duration": 110, "velocity": 100}, {"time": 22880, "pitch": 43, "duration": 275, "velocity": 100}, {"time": 22880, "pitch": 55, "duration": 110, "velocity": 100}, {"time": 22880, "pitch": 59, "duration": 110, "velocity": 100}, {"time": 22880, "pitch": 67, "duration": 440, "velocity": 100}, {"time": 23100, "pitch": 55, "duration": 55, "velocity": 100}, {"time": 23100, "pitch": 59, "duration": 55, "velocity": 100}, {"time": 23100, "pitch": 63, "duration": 55, "velocity": 100}, {"time": 23210, "pitch": 43, "duration": 55, "velocity": 100}, {"time": 23265, "pitch": 55, "duration": 55, "velocity": 100}, {"time": 23320, "pitch": 39, "duration": 330, "velocity": 100}, {"time": 23320, "pitch": 55, "duration": 110, "velocity": 100}, {"time": 23320, "pitch": 59, "duration": 165, "velocity": 100}, {"time": 23485, "pitch": 55, "duration": 55, "velocity": 100}, {"time": 23540, "pitch": 55, "duration": 55, "velocity": 100}, {"time": 23540, "pitch": 59, "duration": 110, "velocity": 100}, {"time": 23540, "pitch": 63, "duration": 110, "velocity": 100}, {"time": 23650, "pitch": 55, "duration": 55, "velocity": 100}, {"time": 23650, "pitch": 71, "duration": 110, "velocity": 100}, {"time": 23760, "pitch": 39, "duration": 275, "velocity": 100}, {"time": 23760, "pitch": 51, "duration": 110, "velocity": 100}, {"time": 23760, "pitch": 63, "duration": 110, "velocity": 100}, {"time": 23760, "pitch": 67, "duration": 440, "velocity": 100}, {"time": 23980, "pitch": 51, "duration": 110, "velocity": 100}, {"time": 23980, "pitch": 55, "duration": 110, "velocity": 100}, {"time": 23980, "pitch": 59, "duration": 110, "velocity": 100}, {"time": 24090, "pitch": 39, "duration": 55, "velocity": 100}, {"time": 24145, "pitch": 51, "duration": 55, "velocity": 100}, {"time": 24200, "pitch": 39, "duration": 275, "velocity": 100}, {"time": 24200, "pitch": 51, "duration": 110, "velocity": 100}, {"time": 24200, "pitch": 55, "duration": 110, "velocity": 100}, {"time": 24310, "pitch": 47, "duration": 110, "velocity": 100}, {"time": 24365, "pitch": 51, "duration": 220, "velocity": 100}, {"time": 24420, "pitch": 55, "duration": 165, "velocity": 100}, {"time": 24420, "pitch": 59, "duration": 220, "velocity": 100}, {"time": 24420, "pitch": 63, "duration": 220, "velocity": 100}, {"time": 24530, "pitch": 47, "duration": 55, "velocity": 100}, {"time": 24640, "pitch": 45, "duration": 275, "velocity": 100}, {"time": 24640, "pitch": 60, "duration": 110, "velocity": 100}, {"time": 24640, "pitch": 64, "duration": 110, "velocity": 100}, {"time": 24860, "pitch": 60, "duration": 55, "velocity": 100}, {"time": 24860, "pitch": 64, "duration": 55, "velocity": 100}, {"time": 24860, "pitch": 69, "duration": 55, "velocity": 100}, {"time": 25025, "pitch": 60, "duration": 55, "velocity": 100}, {"time": 25080, "pitch": 45, "duration": 220, "velocity": 100}, {"time": 25080, "pitch": 60, "duration": 55, "velocity": 100}, {"time": 25080, "pitch": 64, "duration": 110, "velocity": 100}, {"time": 25190, "pitch": 60, "duration": 55, "velocity": 100}, {"time": 25300, "pitch": 60, "duration": 55, "velocity": 100}, {"time": 25300, "pitch": 64, "duration": 55, "velocity": 100}, {"time": 25300, "pitch": 69, "duration": 55, "velocity": 100}, {"time": 25520, "pitch": 45, "duration": 275, "velocity": 100}, {"time": 25520, "pitch": 57, "duration": 110, "velocity": 100}, {"time": 25520, "pitch": 64, "duration": 55, "velocity": 100}, {"time": 25630, "pitch": 52, "duration": 110, "velocity": 100}, {"time": 25740, "pitch": 57, "duration": 55, "velocity": 100}, {"time": 25740, "pitch": 60, "duration": 55, "velocity": 100}, {"time": 25740, "pitch": 64, "duration": 55, "velocity": 100}, {"time": 25905, "pitch": 60, "duration": 55, "velocity": 100}, {"time": 25960, "pitch": 40, "duration": 275, "velocity": 100}, {"time": 25960, "pitch": 60, "duration": 55, "velocity": 100}, {"time": 25960, "pitch": 64, "duration": 110, "velocity": 100}, {"time": 26125, "pitch": 60, "duration": 55, "velocity": 100}, {"time": 26180, "pitch": 60, "duration": 55, "velocity": 100}, {"time": 26180, "pitch": 64, "duration": 55, "velocity": 100}, {"time": 26180, "pitch": 69, "duration": 110, "velocity": 100}, {"time": 26290, "pitch": 60, "duration": 55, "velocity": 100}, {"time": 26400, "pitch": 45, "duration": 220, "velocity": 100}, {"time": 26400, "pitch": 60, "duration": 110, "velocity": 100}, {"time": 26400, "pitch": 64, "duration": 110, "velocity": 100}, {"time": 26620, "pitch": 64, "duration": 55, "velocity": 100}, {"time": 26620, "pitch": 67, "duration": 55, "velocity": 100}, {"time": 26730, "pitch": 52, "duration": 55, "velocity": 100}, {"time": 26785, "pitch": 60, "duration": 55, "velocity": 100}, {"time": 26840, "pitch": 45, "duration": 275, "velocity": 100}, {"time": 26840, "pitch": 60, "duration": 110, "velocity": 100}, {"time": 26840, "pitch": 64, "duration": 110, "velocity": 100}, {"time": 27005, "pitch": 60, "duration": 55, "velocity": 100}, {"time": 27060, "pitch": 60, "duration": 55, "velocity": 100}, {"time": 27060, "pitch": 64, "duration": 110, "velocity": 100}, {"time": 27060, "pitch": 69, "duration": 110, "velocity": 100}, {"time": 27170, "pitch": 60, "duration": 55, "velocity": 100}, {"time": 27280, "pitch": 45, "duration": 275, "velocity": 100}, {"time": 27280, "pitch": 57, "duration": 110, "velocity": 100}, {"time": 27280, "pitch": 69, "duration": 110, "velocity": 100}, {"time": 27500, "pitch": 57, "duration": 110, "velocity": 100}, {"time": 27500, "pitch": 64, "duration": 110, "velocity": 100}, {"time": 27500, "pitch": 69, "duration": 110, "velocity": 100}, {"time": 27610, "pitch": 45, "duration": 55, "velocity": 100}, {"time": 27665, "pitch": 57, "duration": 55, "velocity": 100}, {"time": 27720, "pitch": 45, "duration": 275, "velocity": 100}, {"time": 27720, "pitch": 57, "duration": 110, "velocity": 100}, {"time": 27720, "pitch": 60, "duration": 110, "velocity": 100}, {"time": 27830, "pitch": 52, "duration": 110, "velocity": 100}, {"time": 27885, "pitch": 57, "duration": 110, "velocity": 100}, {"time": 27940, "pitch": 60, "duration": 165, "velocity": 100}, {"time": 27940, "pitch": 64, "duration": 220, "velocity": 100}, {"time": 27940, "pitch": 69, "duration": 220, "velocity": 100}, {"time": 28050, "pitch": 52, "duration": 55, "velocity": 100}, {"time": 28160, "pitch": 40, "duration": 275, "velocity": 100}, {"time": 28160, "pitch": 55, "duration": 55, "velocity": 100}, {"time": 28160, "pitch": 59, "duration": 110, "velocity": 100}, {"time": 28380, "pitch": 55, "duration": 55, "velocity": 100}, {"time": 28380, "pitch": 59, "duration": 55, "velocity": 100}, {"time": 28380, "pitch": 64, "duration": 110, "velocity": 100}, {"time": 28545, "pitch": 55, "duration": 55, "velocity": 100}, {"time": 28600, "pitch": 40, "duration": 220, "velocity": 100}, {"time": 28600, "pitch": 55, "duration": 55, "velocity": 100}, {"time": 28600, "pitch": 59, "duration": 110, "velocity": 100}, {"time": 28710, "pitch": 55, "duration": 55, "velocity": 100}, {"time": 28820, "pitch": 55, "duration": 55, "velocity": 100}, {"time": 28820, "pitch": 59, "duration": 55, "velocity": 100}, {"time": 28820, "pitch": 64, "duration": 55, "velocity": 100}, {"time": 29040, "pitch": 40, "duration": 275, "velocity": 100}, {"time": 29040, "pitch": 52, "duration": 110, "velocity": 100}, {"time": 29040, "pitch": 55, "duration": 110, "velocity": 100}, {"time": 29040, "pitch": 59, "duration": 110, "velocity": 100}, {"time": 29150, "pitch": 47, "duration": 110, "velocity": 100}, {"time": 29260, "pitch": 52, "duration": 55, "velocity": 100}, {"time": 29260, "pitch": 55, "duration": 55, "velocity": 100}, {"time": 29260, "pitch": 59, "duration": 55, "velocity": 100}, {"time": 29425, "pitch": 55, "duration": 55, "velocity": 100}, {"time": 29480, "pitch": 40, "duration": 275, "velocity": 100}, {"time": 29480, "pitch": 55, "duration": 55, "velocity": 100}, {"time": 29480, "pitch": 59, "duration": 110, "velocity": 100}, {"time": 29645, "pitch": 55, "duration": 55, "velocity": 100}, {"time": 29645, "pitch": 67, "duration": 55, "velocity": 100}, {"time": 29700, "pitch": 55, "duration": 55, "velocity": 100}, {"time": 29700, "pitch": 59, "duration": 55, "velocity": 100}, {"time": 29700, "pitch": 64, "duration": 110, "velocity": 100}, {"time": 29700, "pitch": 71, "duration": 110, "velocity": 100}, {"time": 29810, "pitch": 55, "duration": 55, "velocity": 100}, {"time": 29810, "pitch": 71, "duration": 110, "velocity": 100}, {"time": 29920, "pitch": 40, "duration": 275, "velocity": 100}, {"time": 29920, "pitch": 55, "duration": 165, "velocity": 100}, {"time": 29920, "pitch": 59, "duration": 165, "velocity": 100}, {"time": 29920, "pitch": 67, "duration": 440, "velocity": 100}, {"time": 30140, "pitch": 55, "duration": 55, "velocity": 100}, {"time": 30140, "pitch": 59, "duration": 55, "velocity": 100}, {"time": 30140, "pitch": 64, "duration": 110, "velocity": 100}, {"time": 30250, "pitch": 47, "duration": 55, "velocity": 100}, {"time": 30305, "pitch": 55, "duration": 55, "velocity": 100}, {"time": 30360, "pitch": 40, "duration": 275, "velocity": 100}, {"time": 30360, "pitch": 55, "duration": 110, "velocity": 100}, {"time": 30360, "pitch": 59, "duration": 165, "velocity": 100}, {"time": 30525, "pitch": 55, "duration": 55, "velocity": 100}, {"time": 30580, "pitch": 55, "duration": 55, "velocity": 100}, {"time": 30580, "pitch": 59, "duration": 110, "velocity": 100}, {"time": 30580, "pitch": 64, "duration": 110, "velocity": 100}, {"time": 30690, "pitch": 55, "duration": 55, "velocity": 100}, {"time": 30690, "pitch": 71, "duration": 110, "velocity": 100}, {"time": 30800, "pitch": 40, "duration": 275, "velocity": 100}, {"time": 30800, "pitch": 52, "duration": 110, "velocity": 100}, {"time": 30800, "pitch": 64, "duration": 110, "velocity": 100}, {"time": 30800, "pitch": 71, "duration": 440, "velocity": 100}, {"time": 31020, "pitch": 52, "duration": 110, "velocity": 100}, {"time": 31020, "pitch": 59, "duration": 110, "velocity": 100}, {"time": 31020, "pitch": 64, "duration": 110, "velocity": 100}, {"time": 31130, "pitch": 40, "duration": 55, "velocity": 100}, {"time": 31185, "pitch": 52, "duration": 55, "velocity": 100}, {"time": 31240, "pitch": 40, "duration": 275, "velocity": 100}, {"time": 31240, "pitch": 52, "duration": 110, "velocity": 100}, {"time": 31240, "pitch": 55, "duration": 110, "velocity": 100}, {"time": 31350, "pitch": 47, "duration": 110, "velocity": 100}, {"time": 31405, "pitch": 52, "duration": 165, "velocity": 100}, {"time": 31460, "pitch": 55, "duration": 165, "velocity": 100}, {"time": 31460, "pitch": 59, "duration": 220, "velocity": 100}, {"time": 31460, "pitch": 64, "duration": 220, "velocity": 100}, {"time": 31570, "pitch": 47, "duration": 110, "velocity": 100}, {"time": 31680, "pitch": 50, "duration": 275, "velocity": 100}, {"time": 31680, "pitch": 57, "duration": 55, "velocity": 100}, {"time": 31680, "pitch": 62, "duration": 110, "velocity": 100}, {"time": 31900, "pitch": 57, "duration": 55, "velocity": 100}, {"time": 31900, "pitch": 62, "duration": 55, "velocity": 100}, {"time": 31900, "pitch": 66, "duration": 55, "velocity": 100}, {"time": 32065, "pitch": 57, "duration": 55, "velocity": 100}, {"time": 32120, "pitch": 38, "duration": 220, "velocity": 100}, {"time": 32120, "pitch": 57, "duration": 55, "velocity": 100}, {"time": 32120, "pitch": 62, "duration": 110, "velocity": 100}, {"time": 32230, "pitch": 57, "duration": 55, "velocity": 100}, {"time": 32340, "pitch": 57, "duration": 55, "velocity": 100}, {"time": 32340, "pitch": 62, "duration": 55, "velocity": 100}, {"time": 32340, "pitch": 66, "duration": 55, "velocity": 100}, {"time": 32560, "pitch": 38, "duration": 275, "velocity": 100}, {"time": 32560, "pitch": 57, "duration": 110, "velocity": 100}, {"time": 32560, "pitch": 62, "duration": 55, "velocity": 100}, {"time": 32670, "pitch": 50, "duration": 110, "velocity": 100}, {"time": 32780, "pitch": 54, "duration": 55, "velocity": 100}, {"time": 32780, "pitch": 57, "duration": 55, "velocity": 100}, {"time": 32780, "pitch": 62, "duration": 55, "velocity": 100}, {"time": 32945, "pitch": 57, "duration": 55, "velocity": 100}, {"time": 33000, "pitch": 38, "duration": 275, "velocity": 100}, {"time": 33000, "pitch": 62, "duration": 110, "velocity": 100}, {"time": 33165, "pitch": 57, "duration": 55, "velocity": 100}, {"time": 33220, "pitch": 57, "duration": 55, "velocity": 100}, {"time": 33220, "pitch": 62, "duration": 55, "velocity": 100}, {"time": 33220, "pitch": 66, "duration": 55, "velocity": 100}, {"time": 33330, "pitch": 57, "duration": 55, "velocity": 100}, {"time": 33440, "pitch": 50, "duration": 220, "velocity": 100}, {"time": 33440, "pitch": 57, "duration": 110, "velocity": 100}, {"time": 33440, "pitch": 62, "duration": 110, "velocity": 100}, {"time": 33660, "pitch": 57, "duration": 55, "velocity": 100}, {"time": 33660, "pitch": 62, "duration": 55, "velocity": 100}, {"time": 33660, "pitch": 66, "duration": 55, "velocity": 100}, {"time": 33770, "pitch": 50, "duration": 55, "velocity": 100}, {"time": 33825, "pitch": 57, "duration": 55, "velocity": 100}, {"time": 33880, "pitch": 38, "duration": 275, "velocity": 100}, {"time": 33880, "pitch": 57, "duration": 110, "velocity": 100}, {"time": 33880, "pitch": 62, "duration": 110, "velocity": 100}, {"time": 34045, "pitch": 57, "duration": 55, "velocity": 100}, {"time": 34100, "pitch": 57, "duration": 55, "velocity": 100}, {"time": 34100, "pitch": 62, "duration": 110, "velocity": 100}, {"time": 34100, "pitch": 66, "duration": 110, "velocity": 100}, {"time": 34210, "pitch": 57, "duration": 55, "velocity": 100}, {"time": 34320, "pitch": 38, "duration": 275, "velocity": 100}, {"time": 34320, "pitch": 50, "duration": 110, "velocity": 100}, {"time": 34320, "pitch": 62, "duration": 110, "velocity": 100}, {"time": 34540, "pitch": 54, "duration": 110, "velocity": 100}, {"time": 34540, "pitch": 57, "duration": 110, "velocity": 100}, {"time": 34540, "pitch": 62, "duration": 110, "velocity": 100}, {"time": 34650, "pitch": 38, "duration": 55, "velocity": 100}, {"time": 34705, "pitch": 54, "duration": 55, "velocity": 100}, {"time": 34760, "pitch": 38, "duration": 275, "velocity": 100}, {"time": 34760, "pitch": 54, "duration": 110, "velocity": 100}, {"time": 34760, "pitch": 57, "duration": 110, "velocity": 100}, {"time": 34870, "pitch": 50, "duration": 110, "velocity": 100}, {"time": 34925, "pitch": 54, "duration": 55, "velocity": 100}, {"time": 34980, "pitch": 57, "duration": 165, "velocity": 100}, {"time": 34980, "pitch": 62, "duration": 220, "velocity": 100}, {"time": 34980, "pitch": 66, "duration": 165, "velocity": 100}, {"time": 35090, "pitch": 50, "duration": 55, "velocity": 100}, {"time": 35200, "pitch": 48, "duration": 275, "velocity": 100}, {"time": 35200, "pitch": 60, "duration": 110, "velocity": 100}, {"time": 35200, "pitch": 63, "duration": 110, "velocity": 100}, {"time": 35420, "pitch": 60, "duration": 55, "velocity": 100}, {"time": 35420, "pitch": 63, "duration": 110, "velocity": 100}, {"time": 35420, "pitch": 67, "duration": 110, "velocity": 100}, {"time": 35585, "pitch": 60, "duration": 55, "velocity": 100}, {"time": 35640, "pitch": 48, "duration": 220, "velocity": 100}, {"time": 35640, "pitch": 60, "duration": 55, "velocity": 100}, {"time": 35640, "pitch": 63, "duration": 110, "velocity": 100}, {"time": 35750, "pitch": 55, "duration": 55, "velocity": 100}, {"time": 35860, "pitch": 60, "duration": 55, "velocity": 100}, {"time": 35860, "pitch": 63, "duration": 55, "velocity": 100}, {"time": 35860, "pitch": 67, "duration": 55, "velocity": 100}, {"time": 36080, "pitch": 36, "duration": 275, "velocity": 100}, {"time": 36080, "pitch": 55, "duration": 110, "velocity": 100}, {"time": 36080, "pitch": 60, "duration": 110, "velocity": 100}, {"time": 36080, "pitch": 63, "duration": 110, "velocity": 100}, {"time": 36190, "pitch": 55, "duration": 110, "velocity": 100}, {"time": 36300, "pitch": 55, "duration": 55, "velocity": 100}, {"time": 36300, "pitch": 60, "duration": 55, "velocity": 100}, {"time": 36300, "pitch": 63, "duration": 55, "velocity": 100}, {"time": 36465, "pitch": 60, "duration": 55, "velocity": 100}, {"time": 36520, "pitch": 36, "duration": 275, "velocity": 100}, {"time": 36520, "pitch": 60, "duration": 110, "velocity": 100}, {"time": 36520, "pitch": 63, "duration": 110, "velocity": 100}, {"time": 36685, "pitch": 60, "duration": 55, "velocity": 100}, {"time": 36685, "pitch": 72, "duration": 55, "velocity": 100}, {"time": 36740, "pitch": 60, "duration": 55, "velocity": 100}, {"time": 36740, "pitch": 63, "duration": 55, "velocity": 100}, {"time": 36740, "pitch": 67, "duration": 110, "velocity": 100}, {"time": 36740, "pitch": 75, "duration": 110, "velocity": 100}, {"time": 36850, "pitch": 55, "duration": 55, "velocity": 100}, {"time": 36850, "pitch": 74, "duration": 110, "velocity": 100}, {"time": 36960, "pitch": 48, "duration": 275, "velocity": 100}, {"time": 36960, "pitch": 60, "duration": 110, "velocity": 100}, {"time": 36960, "pitch": 63, "duration": 110, "velocity": 100}, {"time": 36960, "pitch": 72, "duration": 440, "velocity": 100}, {"time": 37180, "pitch": 60, "duration": 55, "velocity": 100}, {"time": 37180, "pitch": 63, "duration": 55, "velocity": 100}, {"time": 37180, "pitch": 67, "duration": 55, "velocity": 100}, {"time": 37290, "pitch": 48, "duration": 55, "velocity": 100}, {"time": 37345, "pitch": 60, "duration": 55, "velocity": 100}, {"time": 37400, "pitch": 48, "duration": 275, "velocity": 100}, {"time": 37400, "pitch": 60, "duration": 110, "velocity": 100}, {"time": 37400, "pitch": 63, "duration": 110, "velocity": 100}, {"time": 37565, "pitch": 60, "duration": 55, "velocity": 100}, {"time": 37620, "pitch": 60, "duration": 110, "velocity": 100}, {"time": 37620, "pitch": 63, "duration": 110, "velocity": 100}, {"time": 37620, "pitch": 67, "duration": 110, "velocity": 100}, {"time": 37730, "pitch": 60, "duration": 55, "velocity": 100}, {"time": 37730, "pitch": 74, "duration": 110, "velocity": 100}, {"time": 37840, "pitch": 36, "duration": 275, "velocity": 100}, {"time": 37840, "pitch": 55, "duration": 110, "velocity": 100}, {"time": 37840, "pitch": 63, "duration": 110, "velocity": 100}, {"time": 37840, "pitch": 72, "duration": 440, "velocity": 100}, {"time": 38060, "pitch": 55, "duration": 110, "velocity": 100}, {"time": 38060, "pitch": 60, "duration": 110, "velocity": 100}, {"time": 38060, "pitch": 63, "duration": 110, "velocity": 100}, {"time": 38170, "pitch": 36, "duration": 55, "velocity": 100}, {"time": 38225, "pitch": 55, "duration": 55, "velocity": 100}, {"time": 38280, "pitch": 48, "duration": 275, "velocity": 100}, {"time": 38280, "pitch": 55, "duration": 110, "velocity": 100}, {"time": 38280, "pitch": 60, "duration": 110, "velocity": 100}, {"time": 38390, "pitch": 51, "duration": 110, "velocity": 100}, {"time": 38445, "pitch": 55, "duration": 165, "velocity": 100}, {"time": 38500, "pitch": 60, "duration": 165, "velocity": 100}, {"time": 38500, "pitch": 63, "duration": 220, "velocity": 100}, {"time": 38500, "pitch": 67, "duration": 220, "velocity": 100}, {"time": 38610, "pitch": 48, "duration": 55, "velocity": 100}, {"time": 38720, "pitch": 51, "duration": 275, "velocity": 100}, {"time": 38720, "pitch": 63, "duration": 110, "velocity": 100}, {"time": 38720, "pitch": 66, "duration": 110, "velocity": 100}, {"time": 38940, "pitch": 63, "duration": 55, "velocity": 100}, {"time": 38940, "pitch": 66, "duration": 55, "velocity": 100}, {"time": 38940, "pitch": 71, "duration": 110, "velocity": 100}, {"time": 39105, "pitch": 63, "duration": 55, "velocity": 100}, {"time": 39160, "pitch": 47, "duration": 220, "velocity": 100}, {"time": 39160, "pitch": 59, "duration": 55, "velocity": 100}, {"time": 39160, "pitch": 66, "duration": 110, "velocity": 100}, {"time": 39270, "pitch": 59, "duration": 55, "velocity": 100}, {"time": 39380, "pitch": 59, "duration": 55, "velocity": 100}, {"time": 39380, "pitch": 63, "duration": 55, "velocity": 100}, {"time": 39380, "pitch": 71, "duration": 55, "velocity": 100}, {"time": 39600, "pitch": 47, "duration": 275, "velocity": 100}, {"time": 39600, "pitch": 59, "duration": 110, "velocity": 100}, {"time": 39600, "pitch": 63, "duration": 110, "velocity": 100}, {"time": 39600, "pitch": 66, "duration": 110, "velocity": 100}, {"time": 39710, "pitch": 54, "duration": 110, "velocity": 100}, {"time": 39820, "pitch": 59, "duration": 55, "velocity": 100}, {"time": 39820, "pitch": 63, "duration": 55, "velocity": 100}, {"time": 39820, "pitch": 66, "duration": 55, "velocity": 100}, {"time": 39985, "pitch": 61, "duration": 55, "velocity": 100}, {"time": 40040, "pitch": 39, "duration": 275, "velocity": 100}, {"time": 40040, "pitch": 59, "duration": 55, "velocity": 100}, {"time": 40040, "pitch": 66, "duration": 110, "velocity": 100}, {"time": 40205, "pitch": 59, "duration": 55, "velocity": 100}, {"time": 40260, "pitch": 63, "duration": 55, "velocity": 100}, {"time": 40260, "pitch": 66, "duration": 55, "velocity": 100}, {"time": 40260, "pitch": 71, "duration": 55, "velocity": 100}, {"time": 40370, "pitch": 61, "duration": 55, "velocity": 100}, {"time": 40480, "pitch": 47, "duration": 220, "velocity": 100}, {"time": 40480, "pitch": 63, "duration": 110, "velocity": 100}, {"time": 40480, "pitch": 66, "duration": 110, "velocity": 100}, {"time": 40700, "pitch": 63, "duration": 55, "velocity": 100}, {"time": 40700, "pitch": 66, "duration": 55, "velocity": 100}, {"time": 40700, "pitch": 71, "duration": 55, "velocity": 100}, {"time": 40810, "pitch": 54, "duration": 55, "velocity": 100}, {"time": 40865, "pitch": 63, "duration": 55, "velocity": 100}, {"time": 40920, "pitch": 47, "duration": 275, "velocity": 100}, {"time": 40920, "pitch": 59, "duration": 110, "velocity": 100}, {"time": 40920, "pitch": 66, "duration": 110, "velocity": 100}, {"time": 41085, "pitch": 59, "duration": 55, "velocity": 100}, {"time": 41140, "pitch": 59, "duration": 55, "velocity": 100}, {"time": 41140, "pitch": 66, "duration": 110, "velocity": 100}, {"time": 41140, "pitch": 71, "duration": 110, "velocity": 100}, {"time": 41250, "pitch": 61, "duration": 55, "velocity": 100}, {"time": 41360, "pitch": 47, "duration": 275, "velocity": 100}, {"time": 41360, "pitch": 59, "duration": 110, "velocity": 100}, {"time": 41360, "pitch": 66, "duration": 110, "velocity": 100}, {"time": 41580, "pitch": 59, "duration": 110, "velocity": 100}, {"time": 41580, "pitch": 63, "duration": 110, "velocity": 100}, {"time": 41580, "pitch": 66, "duration": 110, "velocity": 100}, {"time": 41690, "pitch": 47, "duration": 55, "velocity": 100}, {"time": 41745, "pitch": 59, "duration": 55, "velocity": 100}, {"time": 41800, "pitch": 47, "duration": 275, "velocity": 100}, {"time": 41800, "pitch": 59, "duration": 110, "velocity": 100}, {"time": 41800, "pitch": 63, "duration": 110, "velocity": 100}, {"time": 41910, "pitch": 54, "duration": 110, "velocity": 100}, {"time": 41965, "pitch": 59, "duration": 220, "velocity": 100}, {"time": 42020, "pitch": 63, "duration": 165, "velocity": 100}, {"time": 42020, "pitch": 66, "duration": 220, "velocity": 100}, {"time": 42020, "pitch": 71, "duration": 165, "velocity": 100}, {"time": 42130, "pitch": 54, "duration": 55, "velocity": 100}, {"time": 42240, "pitch": 43, "duration": 275, "velocity": 100}, {"time": 42240, "pitch": 55, "duration": 55, "velocity": 100}, {"time": 42240, "pitch": 59, "duration": 110, "velocity": 100}, {"time": 42460, "pitch": 55, "duration": 55, "velocity": 100}, {"time": 42460, "pitch": 59, "duration": 110, "velocity": 100}, {"time": 42460, "pitch": 63, "duration": 110, "velocity": 100}, {"time": 42625, "pitch": 55, "duration": 55, "velocity": 100}, {"time": 42680, "pitch": 39, "duration": 220, "velocity": 100}, {"time": 42680, "pitch": 55, "duration": 55, "velocity": 100}, {"time": 42680, "pitch": 59, "duration": 110, "velocity": 100}, {"time": 42790, "pitch": 54, "duration": 55, "velocity": 100}, {"time": 42900, "pitch": 55, "duration": 55, "velocity": 100}, {"time": 42900, "pitch": 59, "duration": 55, "velocity": 100}, {"time": 42900, "pitch": 63, "duration": 55, "velocity": 100}, {"time": 43120, "pitch": 39, "duration": 275, "velocity": 100}, {"time": 43120, "pitch": 51, "duration": 110, "velocity": 100}, {"time": 43120, "pitch": 55, "duration": 110, "velocity": 100}, {"time": 43120, "pitch": 59, "duration": 110, "velocity": 100}, {"time": 43230, "pitch": 47, "duration": 110, "velocity": 100}, {"time": 43340, "pitch": 51, "duration": 55, "velocity": 100}, {"time": 43340, "pitch": 55, "duration": 55, "velocity": 100}, {"time": 43340, "pitch": 59, "duration": 55, "velocity": 100}, {"time": 43505, "pitch": 55, "duration": 55, "velocity": 100}, {"time": 43560, "pitch": 39, "duration": 275, "velocity": 100}, {"time": 43560, "pitch": 55, "duration": 110, "velocity": 100}, {"time": 43560, "pitch": 59, "duration": 110, "velocity": 100}, {"time": 43725, "pitch": 55, "duration": 55, "velocity": 100}, {"time": 43725, "pitch": 67, "duration": 55, "velocity": 100}, {"time": 43780, "pitch": 55, "duration": 55, "velocity": 100}, {"time": 43780, "pitch": 59, "duration": 55, "velocity": 100}, {"time": 43780, "pitch": 63, "duration": 110, "velocity": 100}, {"time": 43780, "pitch": 71, "duration": 110, "velocity": 100}, {"time": 43890, "pitch": 54, "duration": 55, "velocity": 100}, {"time": 43890, "pitch": 71, "duration": 110, "velocity": 100}, {"time": 44000, "pitch": 43, "duration": 275, "velocity": 100}, {"time": 44000, "pitch": 55, "duration": 55, "velocity": 100}, {"time": 44000, "pitch": 59, "duration": 55, "velocity": 100}, {"time": 44000, "pitch": 67, "duration": 440, "velocity": 100}, {"time": 44220, "pitch": 55, "duration": 55, "velocity": 100}, {"time": 44220, "pitch": 59, "duration": 55, "velocity": 100}, {"time": 44220, "pitch": 63, "duration": 110, "velocity": 100}, {"time": 44330, "pitch": 43, "duration": 55, "velocity": 100}, {"time": 44385, "pitch": 55, "duration": 55, "velocity": 100}, {"time": 44440, "pitch": 39, "duration": 275, "velocity": 100}, {"time": 44440, "pitch": 55, "duration": 110, "velocity": 100}, {"time": 44440, "pitch": 59, "duration": 165, "velocity": 100}, {"time": 44605, "pitch": 55, "duration": 55, "velocity": 100}, {"time": 44660, "pitch": 55, "duration": 55, "velocity": 100}, {"time": 44660, "pitch": 59, "duration": 110, "velocity": 100}, {"time": 44660, "pitch": 63, "duration": 110, "velocity": 100}, {"time": 44770, "pitch": 55, "duration": 55, "velocity": 100}, {"time": 44770, "pitch": 71, "duration": 110, "velocity": 100}, {"time": 44880, "pitch": 39, "duration": 275, "velocity": 100}, {"time": 44880, "pitch": 51, "duration": 110, "velocity": 100}, {"time": 44880, "pitch": 63, "duration": 110, "velocity": 100}, {"time": 44880, "pitch": 67, "duration": 660, "velocity": 100}, {"time": 45100, "pitch": 51, "duration": 110, "velocity": 100}, {"time": 45100, "pitch": 55, "duration": 110, "velocity": 100}, {"time": 45100, "pitch": 59, "duration": 110, "velocity": 100}, {"time": 45210, "pitch": 39, "duration": 55, "velocity": 100}, {"time": 45265, "pitch": 51, "duration": 55, "velocity": 100}, {"time": 45320, "pitch": 39, "duration": 275, "velocity": 100}, {"time": 45320, "pitch": 51, "duration": 110, "velocity": 100}, {"time": 45320, "pitch": 55, "duration": 110, "velocity": 100}, {"time": 45430, "pitch": 47, "duration": 110, "velocity": 100}, {"time": 45485, "pitch": 51, "duration": 165, "velocity": 100}, {"time": 45540, "pitch": 55, "duration": 220, "velocity": 100}, {"time": 45540, "pitch": 59, "duration": 220, "velocity": 100}, {"time": 45540, "pitch": 63, "duration": 220, "velocity": 100}, {"time": 45650, "pitch": 47, "duration": 110, "velocity": 100}, {"time": 45760, "pitch": 45, "duration": 275, "velocity": 100}, {"time": 45760, "pitch": 57, "duration": 110, "velocity": 100}, {"time": 45760, "pitch": 64, "duration": 110, "velocity": 100}, {"time": 45870, "pitch": 52, "duration": 110, "velocity": 100}, {"time": 45980, "pitch": 57, "duration": 55, "velocity": 100}, {"time": 45980, "pitch": 60, "duration": 55, "velocity": 100}, {"time": 45980, "pitch": 64, "duration": 55, "velocity": 100}, {"time": 46035, "pitch": 52, "duration": 55, "velocity": 100}, {"time": 46035, "pitch": 67, "duration": 55, "velocity": 100}, {"time": 46090, "pitch": 57, "duration": 55, "velocity": 100}, {"time": 46090, "pitch": 64, "duration": 55, "velocity": 100}, {"time": 46145, "pitch": 60, "duration": 55, "velocity": 100}, {"time": 46200, "pitch": 45, "duration": 275, "velocity": 100}, {"time": 46200, "pitch": 57, "duration": 55, "velocity": 100}, {"time": 46200, "pitch": 64, "duration": 330, "velocity": 100}, {"time": 46310, "pitch": 57, "duration": 55, "velocity": 100}, {"time": 46420, "pitch": 57, "duration": 110, "velocity": 100}, {"time": 46420, "pitch": 64, "duration": 110, "velocity": 100}, {"time": 46530, "pitch": 62, "duration": 110, "velocity": 100}, {"time": 46640, "pitch": 45, "duration": 385, "velocity": 100}, {"time": 46640, "pitch": 57, "duration": 165, "velocity": 100}, {"time": 46640, "pitch": 60, "duration": 220, "velocity": 100}, {"time": 46750, "pitch": 52, "duration": 165, "velocity": 100}, {"time": 46860, "pitch": 60, "duration": 110, "velocity": 100}, {"time": 46860, "pitch": 64, "duration": 110, "velocity": 100}, {"time": 46915, "pitch": 64, "duration": 55, "velocity": 100}, {"time": 46970, "pitch": 52, "duration": 55, "velocity": 100}, {"time": 46970, "pitch": 64, "duration": 55, "velocity": 100}, {"time": 47025, "pitch": 57, "duration": 55, "velocity": 100}, {"time": 47025, "pitch": 62, "duration": 55, "velocity": 100}, {"time": 47080, "pitch": 45, "duration": 275, "velocity": 100}, {"time": 47080, "pitch": 57, "duration": 165, "velocity": 100}, {"time": 47080, "pitch": 60, "duration": 220, "velocity": 100}, {"time": 47080, "pitch": 64, "duration": 220, "velocity": 100}, {"time": 47190, "pitch": 57, "duration": 55, "velocity": 100}, {"time": 47300, "pitch": 60, "duration": 110, "velocity": 100}, {"time": 47300, "pitch": 64, "duration": 110, "velocity": 100}, {"time": 47410, "pitch": 57, "duration": 110, "velocity": 100}, {"time": 47410, "pitch": 64, "duration": 110, "velocity": 100}, {"time": 47520, "pitch": 45, "duration": 385, "velocity": 100}, {"time": 47520, "pitch": 57, "duration": 165, "velocity": 100}, {"time": 47520, "pitch": 60, "duration": 220, "velocity": 100}, {"time": 47630, "pitch": 52, "duration": 110, "velocity": 100}, {"time": 47740, "pitch": 57, "duration": 55, "velocity": 100}, {"time": 47740, "pitch": 60, "duration": 55, "velocity": 100}, {"time": 47740, "pitch": 64, "duration": 55, "velocity": 100}, {"time": 47795, "pitch": 52, "duration": 55, "velocity": 100}, {"time": 47795, "pitch": 67, "duration": 55, "velocity": 100}, {"time": 47850, "pitch": 60, "duration": 55, "velocity": 100}, {"time": 47850, "pitch": 64, "duration": 55, "velocity": 100}, {"time": 47905, "pitch": 60, "duration": 55, "velocity": 100}, {"time": 47905, "pitch": 64, "duration": 55, "velocity": 100}, {"time": 47960, "pitch": 45, "duration": 330, "velocity": 100}, {"time": 47960, "pitch": 57, "duration": 220, "velocity": 100}, {"time": 47960, "pitch": 60, "duration": 440, "velocity": 100}, {"time": 48180, "pitch": 57, "duration": 55, "velocity": 100}, {"time": 48180, "pitch": 64, "duration": 220, "velocity": 100}, {"time": 48290, "pitch": 57, "duration": 110, "velocity": 100}, {"time": 48290, "pitch": 62, "duration": 110, "velocity": 100}, {"time": 48400, "pitch": 45, "duration": 385, "velocity": 100}, {"time": 48400, "pitch": 57, "duration": 165, "velocity": 100}, {"time": 48400, "pitch": 60, "duration": 220, "velocity": 100}, {"time": 48510, "pitch": 52, "duration": 275, "velocity": 100}, {"time": 48620, "pitch": 57, "duration": 55, "velocity": 100}, {"time": 48620, "pitch": 60, "duration": 110, "velocity": 100}, {"time": 48620, "pitch": 64, "duration": 110, "velocity": 100}, {"time": 48620, "pitch": 72, "duration": 55, "velocity": 100}, {"time": 48675, "pitch": 74, "duration": 55, "velocity": 100}, {"time": 48730, "pitch": 57, "duration": 55, "velocity": 100}, {"time": 48785, "pitch": 79, "duration": 55, "velocity": 100}, {"time": 48840, "pitch": 45, "duration": 385, "velocity": 100}, {"time": 48840, "pitch": 57, "duration": 165, "velocity": 100}, {"time": 48840, "pitch": 60, "duration": 220, "velocity": 100}, {"time": 48840, "pitch": 76, "duration": 165, "velocity": 100}, {"time": 48950, "pitch": 57, "duration": 55, "velocity": 100}, {"time": 49005, "pitch": 76, "duration": 165, "velocity": 100}, {"time": 49060, "pitch": 57, "duration": 55, "velocity": 100}, {"time": 49060, "pitch": 60, "duration": 110, "velocity": 100}, {"time": 49115, "pitch": 72, "duration": 55, "velocity": 100}, {"time": 49170, "pitch": 64, "duration": 110, "velocity": 100}, {"time": 49280, "pitch": 40, "duration": 275, "velocity": 100}, {"time": 49280, "pitch": 55, "duration": 55, "velocity": 100}, {"time": 49280, "pitch": 59, "duration": 110, "velocity": 100}, {"time": 49500, "pitch": 55, "duration": 55, "velocity": 100}, {"time": 49500, "pitch": 59, "duration": 55, "velocity": 100}, {"time": 49500, "pitch": 64, "duration": 55, "velocity": 100}, {"time": 49665, "pitch": 55, "duration": 55, "velocity": 100}, {"time": 49720, "pitch": 40, "duration": 220, "velocity": 100}, {"time": 49720, "pitch": 55, "duration": 55, "velocity": 100}, {"time": 49720, "pitch": 59, "duration": 110, "velocity": 100}, {"time": 49830, "pitch": 55, "duration": 55, "velocity": 100}, {"time": 49940, "pitch": 55, "duration": 55, "velocity": 100}, {"time": 49940, "pitch": 59, "duration": 55, "velocity": 100}, {"time": 49940, "pitch": 64, "duration": 55, "velocity": 100}, {"time": 50160, "pitch": 40, "duration": 275, "velocity": 100}, {"time": 50160, "pitch": 52, "duration": 110, "velocity": 100}, {"time": 50160, "pitch": 55, "duration": 110, "velocity": 100}, {"time": 50160, "pitch": 59, "duration": 55, "velocity": 100}, {"time": 50270, "pitch": 47, "duration": 110, "velocity": 100}, {"time": 50380, "pitch": 52, "duration": 55, "velocity": 100}, {"time": 50380, "pitch": 55, "duration": 55, "velocity": 100}, {"time": 50380, "pitch": 59, "duration": 55, "velocity": 100}, {"time": 50545, "pitch": 55, "duration": 55, "velocity": 100}, {"time": 50600, "pitch": 40, "duration": 275, "velocity": 100}, {"time": 50600, "pitch": 59, "duration": 110, "velocity": 100}, {"time": 50765, "pitch": 55, "duration": 55, "velocity": 100}, {"time": 50820, "pitch": 55, "duration": 55, "velocity": 100}, {"time": 50820, "pitch": 59, "duration": 55, "velocity": 100}, {"time": 50820, "pitch": 64, "duration": 110, "velocity": 100}, {"time": 50930, "pitch": 55, "duration": 55, "velocity": 100}, {"time": 51040, "pitch": 40, "duration": 220, "velocity": 100}, {"time": 51040, "pitch": 55, "duration": 110, "velocity": 100}, {"time": 51040, "pitch": 59, "duration": 110, "velocity": 100}, {"time": 51260, "pitch": 55, "duration": 55, "velocity": 100}, {"time": 51260, "pitch": 59, "duration": 55, "velocity": 100}, {"time": 51260, "pitch": 64, "duration": 55, "velocity": 100}, {"time": 51370, "pitch": 47, "duration": 55, "velocity": 100}, {"time": 51425, "pitch": 55, "duration": 55, "velocity": 100}, {"time": 51480, "pitch": 40, "duration": 275, "velocity": 100}, {"time": 51480, "pitch": 55, "duration": 110, "velocity": 100}, {"time": 51480, "pitch": 59, "duration": 110, "velocity": 100}, {"time": 51645, "pitch": 55, "duration": 55, "velocity": 100}, {"time": 51700, "pitch": 55, "duration": 55, "velocity": 100}, {"time": 51700, "pitch": 59, "duration": 110, "velocity": 100}, {"time": 51700, "pitch": 64, "duration": 110, "velocity": 100}, {"time": 51810, "pitch": 55, "duration": 55, "velocity": 100}, {"time": 51920, "pitch": 40, "duration": 275, "velocity": 100}, {"time": 51920, "pitch": 52, "duration": 55, "velocity": 100}, {"time": 51920, "pitch": 64, "duration": 110, "velocity": 100}, {"time": 52140, "pitch": 52, "duration": 110, "velocity": 100}, {"time": 52140, "pitch": 59, "duration": 110, "velocity": 100}, {"time": 52140, "pitch": 64, "duration": 110, "velocity": 100}, {"time": 52250, "pitch": 40, "duration": 55, "velocity": 100}, {"time": 52305, "pitch": 52, "duration": 55, "velocity": 100}, {"time": 52360, "pitch": 40, "duration": 275, "velocity": 100}, {"time": 52360, "pitch": 52, "duration": 110, "velocity": 100}, {"time": 52360, "pitch": 55, "duration": 110, "velocity": 100}, {"time": 52470, "pitch": 47, "duration": 110, "velocity": 100}, {"time": 52525, "pitch": 52, "duration": 110, "velocity": 100}, {"time": 52580, "pitch": 55, "duration": 165, "velocity": 100}, {"time": 52580, "pitch": 59, "duration": 165, "velocity": 100}, {"time": 52580, "pitch": 64, "duration": 220, "velocity": 100}, {"time": 52690, "pitch": 47, "duration": 55, "velocity": 100}, {"time": 52800, "pitch": 50, "duration": 275, "velocity": 100}, {"time": 52800, "pitch": 57, "duration": 55, "velocity": 100}, {"time": 52800, "pitch": 62, "duration": 110, "velocity": 100}, {"time": 53020, "pitch": 57, "duration": 55, "velocity": 100}, {"time": 53020, "pitch": 62, "duration": 55, "velocity": 100}, {"time": 53020, "pitch": 66, "duration": 110, "velocity": 100}, {"time": 53185, "pitch": 57, "duration": 55, "velocity": 100}, {"time": 53240, "pitch": 38, "duration": 220, "velocity": 100}, {"time": 53240, "pitch": 57, "duration": 55, "velocity": 100}, {"time": 53240, "pitch": 62, "duration": 110, "velocity": 100}, {"time": 53350, "pitch": 57, "duration": 55, "velocity": 100}, {"time": 53460, "pitch": 57, "duration": 55, "velocity": 100}, {"time": 53460, "pitch": 62, "duration": 55, "velocity": 100}, {"time": 53460, "pitch": 66, "duration": 55, "velocity": 100}, {"time": 53680, "pitch": 38, "duration": 275, "velocity": 100}, {"time": 53680, "pitch": 57, "duration": 110, "velocity": 100}, {"time": 53680, "pitch": 62, "duration": 110, "velocity": 100}, {"time": 53790, "pitch": 50, "duration": 110, "velocity": 100}, {"time": 53900, "pitch": 54, "duration": 55, "velocity": 100}, {"time": 53900, "pitch": 57, "duration": 55, "velocity": 100}, {"time": 53900, "pitch": 62, "duration": 55, "velocity": 100}, {"time": 54065, "pitch": 57, "duration": 55, "velocity": 100}, {"time": 54120, "pitch": 38, "duration": 275, "velocity": 100}, {"time": 54120, "pitch": 57, "duration": 55, "velocity": 100}, {"time": 54120, "pitch": 62, "duration": 110, "velocity": 100}, {"time": 54285, "pitch": 57, "duration": 55, "velocity": 100}, {"time": 54285, "pitch": 69, "duration": 55, "velocity": 100}, {"time": 54340, "pitch": 57, "duration": 55, "velocity": 100}, {"time": 54340, "pitch": 62, "duration": 55, "velocity": 100}, {"time": 54340, "pitch": 66, "duration": 55, "velocity": 100}, {"time": 54340, "pitch": 74, "duration": 110, "velocity": 100}, {"time": 54450, "pitch": 57, "duration": 55, "velocity": 100}, {"time": 54450, "pitch": 73, "duration": 110, "velocity": 100}, {"time": 54560, "pitch": 50, "duration": 275, "velocity": 100}, {"time": 54560, "pitch": 57, "duration": 55, "velocity": 100}, {"time": 54560, "pitch": 62, "duration": 110, "velocity": 100}, {"time": 54560, "pitch": 69, "duration": 440, "velocity": 100}, {"time": 54780, "pitch": 57, "duration": 55, "velocity": 100}, {"time": 54780, "pitch": 62, "duration": 55, "velocity": 100}, {"time": 54780, "pitch": 66, "duration": 55, "velocity": 100}, {"time": 54890, "pitch": 45, "duration": 55, "velocity": 100}, {"time": 54945, "pitch": 57, "duration": 55, "velocity": 100}, {"time": 55000, "pitch": 38, "duration": 275, "velocity": 100}, {"time": 55000, "pitch": 57, "duration": 110, "velocity": 100}, {"time": 55000, "pitch": 62, "duration": 165, "velocity": 100}, {"time": 55165, "pitch": 57, "duration": 55, "velocity": 100}, {"time": 55220, "pitch": 57, "duration": 55, "velocity": 100}, {"time": 55220, "pitch": 62, "duration": 110, "velocity": 100}, {"time": 55220, "pitch": 66, "duration": 110, "velocity": 100}, {"time": 55330, "pitch": 57, "duration": 55, "velocity": 100}, {"time": 55330, "pitch": 73, "duration": 110, "velocity": 100}, {"time": 55440, "pitch": 38, "duration": 275, "velocity": 100}, {"time": 55440, "pitch": 50, "duration": 110, "velocity": 100}, {"time": 55440, "pitch": 62, "duration": 110, "velocity": 100}, {"time": 55440, "pitch": 69, "duration": 440, "velocity": 100}, {"time": 55660, "pitch": 54, "duration": 110, "velocity": 100}, {"time": 55660, "pitch": 57, "duration": 110, "velocity": 100}, {"time": 55660, "pitch": 62, "duration": 110, "velocity": 100}, {"time": 55770, "pitch": 38, "duration": 55, "velocity": 100}, {"time": 55825, "pitch": 54, "duration": 55, "velocity": 100}, {"time": 55880, "pitch": 38, "duration": 275, "velocity": 100}, {"time": 55880, "pitch": 54, "duration": 110, "velocity": 100}, {"time": 55880, "pitch": 57, "duration": 110, "velocity": 100}, {"time": 55990, "pitch": 50, "duration": 110, "velocity": 100}, {"time": 56045, "pitch": 54, "duration": 110, "velocity": 100}, {"time": 56100, "pitch": 57, "duration": 165, "velocity": 100}, {"time": 56100, "pitch": 62, "duration": 220, "velocity": 100}, {"time": 56100, "pitch": 66, "duration": 220, "velocity": 100}, {"time": 56210, "pitch": 50, "duration": 55, "velocity": 100}, {"time": 56320, "pitch": 48, "duration": 275, "velocity": 100}, {"time": 56320, "pitch": 60, "duration": 110, "velocity": 100}, {"time": 56320, "pitch": 63, "duration": 110, "velocity": 100}, {"time": 56540, "pitch": 60, "duration": 55, "velocity": 100}, {"time": 56540, "pitch": 63, "duration": 55, "velocity": 100}, {"time": 56540, "pitch": 67, "duration": 55, "velocity": 100}, {"time": 56705, "pitch": 60, "duration": 55, "velocity": 100}, {"time": 56760, "pitch": 48, "duration": 220, "velocity": 100}, {"time": 56760, "pitch": 60, "duration": 55, "velocity": 100}, {"time": 56760, "pitch": 63, "duration": 55, "velocity": 100}, {"time": 56870, "pitch": 55, "duration": 55, "velocity": 100}, {"time": 56980, "pitch": 60, "duration": 55, "velocity": 100}, {"time": 56980, "pitch": 63, "duration": 55, "velocity": 100}, {"time": 56980, "pitch": 67, "duration": 55, "velocity": 100}, {"time": 57200, "pitch": 36, "duration": 275, "velocity": 100}, {"time": 57200, "pitch": 55, "duration": 110, "velocity": 100}, {"time": 57200, "pitch": 60, "duration": 110, "velocity": 100}, {"time": 57200, "pitch": 63, "duration": 110, "velocity": 100}, {"time": 57310, "pitch": 51, "duration": 110, "velocity": 100}, {"time": 57420, "pitch": 55, "duration": 55, "velocity": 100}, {"time": 57420, "pitch": 60, "duration": 55, "velocity": 100}, {"time": 57420, "pitch": 63, "duration": 55, "velocity": 100}, {"time": 57585, "pitch": 60, "duration": 55, "velocity": 100}, {"time": 57640, "pitch": 36, "duration": 275, "velocity": 100}, {"time": 57640, "pitch": 60, "duration": 110, "velocity": 100}, {"time": 57640, "pitch": 63, "duration": 110, "velocity": 100}, {"time": 57805, "pitch": 55, "duration": 55, "velocity": 100}, {"time": 57860, "pitch": 60, "duration": 55, "velocity": 100}, {"time": 57860, "pitch": 63, "duration": 55, "velocity": 100}, {"time": 57860, "pitch": 67, "duration": 110, "velocity": 100}, {"time": 57970, "pitch": 60, "duration": 55, "velocity": 100}, {"time": 58080, "pitch": 48, "duration": 220, "velocity": 100}, {"time": 58080, "pitch": 60, "duration": 110, "velocity": 100}, {"time": 58080, "pitch": 63, "duration": 110, "velocity": 100}, {"time": 58300, "pitch": 60, "duration": 55, "velocity": 100}, {"time": 58300, "pitch": 63, "duration": 55, "velocity": 100}, {"time": 58300, "pitch": 67, "duration": 55, "velocity": 100}, {"time": 58410, "pitch": 48, "duration": 55, "velocity": 100}, {"time": 58465, "pitch": 60, "duration": 55, "velocity": 100}, {"time": 58520, "pitch": 48, "duration": 275, "velocity": 100}, {"time": 58520, "pitch": 60, "duration": 110, "velocity": 100}, {"time": 58520, "pitch": 63, "duration": 110, "velocity": 100}, {"time": 58685, "pitch": 60, "duration": 55, "velocity": 100}, {"time": 58740, "pitch": 60, "duration": 110, "velocity": 100}, {"time": 58740, "pitch": 63, "duration": 110, "velocity": 100}, {"time": 58740, "pitch": 67, "duration": 110, "velocity": 100}, {"time": 58850, "pitch": 60, "duration": 55, "velocity": 100}, {"time": 58960, "pitch": 36, "duration": 275, "velocity": 100}, {"time": 58960, "pitch": 55, "duration": 110, "velocity": 100}, {"time": 58960, "pitch": 67, "duration": 110, "velocity": 100}, {"time": 59180, "pitch": 55, "duration": 110, "velocity": 100}, {"time": 59180, "pitch": 60, "duration": 110, "velocity": 100}, {"time": 59180, "pitch": 63, "duration": 110, "velocity": 100}, {"time": 59290, "pitch": 43, "duration": 55, "velocity": 100}, {"time": 59345, "pitch": 55, "duration": 55, "velocity": 100}, {"time": 59400, "pitch": 48, "duration": 275, "velocity": 100}, {"time": 59400, "pitch": 55, "duration": 110, "velocity": 100}, {"time": 59400, "pitch": 60, "duration": 110, "velocity": 100}, {"time": 59510, "pitch": 51, "duration": 110, "velocity": 100}, {"time": 59565, "pitch": 55, "duration": 165, "velocity": 100}, {"time": 59620, "pitch": 60, "duration": 165, "velocity": 100}, {"time": 59620, "pitch": 63, "duration": 220, "velocity": 100}, {"time": 59620, "pitch": 67, "duration": 220, "velocity": 100}, {"time": 59730, "pitch": 48, "duration": 55, "velocity": 100}, {"time": 59840, "pitch": 51, "duration": 275, "velocity": 100}, {"time": 59840, "pitch": 63, "duration": 55, "velocity": 100}, {"time": 59840, "pitch": 66, "duration": 110, "velocity": 100}, {"time": 60060, "pitch": 63, "duration": 55, "velocity": 100}, {"time": 60060, "pitch": 66, "duration": 110, "velocity": 100}, {"time": 60060, "pitch": 71, "duration": 110, "velocity": 100}, {"time": 60225, "pitch": 63, "duration": 55, "velocity": 100}, {"time": 60280, "pitch": 47, "duration": 220, "velocity": 100}, {"time": 60280, "pitch": 63, "duration": 110, "velocity": 100}, {"time": 60280, "pitch": 66, "duration": 110, "velocity": 100}, {"time": 60390, "pitch": 59, "duration": 55, "velocity": 100}, {"time": 60500, "pitch": 59, "duration": 55, "velocity": 100}, {"time": 60500, "pitch": 63, "duration": 55, "velocity": 100}, {"time": 60500, "pitch": 71, "duration": 55, "velocity": 100}, {"time": 60720, "pitch": 47, "duration": 275, "velocity": 100}, {"time": 60720, "pitch": 59, "duration": 110, "velocity": 100}, {"time": 60720, "pitch": 63, "duration": 110, "velocity": 100}, {"time": 60720, "pitch": 66, "duration": 110, "velocity": 100}, {"time": 60830, "pitch": 54, "duration": 110, "velocity": 100}, {"time": 60940, "pitch": 59, "duration": 55, "velocity": 100}, {"time": 60940, "pitch": 63, "duration": 55, "velocity": 100}, {"time": 60940, "pitch": 66, "duration": 55, "velocity": 100}, {"time": 61105, "pitch": 61, "duration": 55, "velocity": 100}, {"time": 61160, "pitch": 47, "duration": 275, "velocity": 100}, {"time": 61160, "pitch": 59, "duration": 110, "velocity": 100}, {"time": 61160, "pitch": 66, "duration": 110, "velocity": 100}, {"time": 61325, "pitch": 59, "duration": 55, "velocity": 100}, {"time": 61325, "pitch": 75, "duration": 55, "velocity": 100}, {"time": 61380, "pitch": 59, "duration": 55, "velocity": 100}, {"time": 61380, "pitch": 66, "duration": 55, "velocity": 100}, {"time": 61380, "pitch": 71, "duration": 55, "velocity": 100}, {"time": 61380, "pitch": 78, "duration": 110, "velocity": 100}, {"time": 61490, "pitch": 61, "duration": 55, "velocity": 100}, {"time": 61490, "pitch": 76, "duration": 110, "velocity": 100}, {"time": 61600, "pitch": 51, "duration": 275, "velocity": 100}, {"time": 61600, "pitch": 63, "duration": 165, "velocity": 100}, {"time": 61600, "pitch": 66, "duration": 165, "velocity": 100}, {"time": 61600, "pitch": 75, "duration": 440, "velocity": 100}, {"time": 61820, "pitch": 63, "duration": 55, "velocity": 100}, {"time": 61820, "pitch": 66, "duration": 55, "velocity": 100}, {"time": 61820, "pitch": 71, "duration": 55, "velocity": 100}, {"time": 61930, "pitch": 54, "duration": 55, "velocity": 100}, {"time": 61985, "pitch": 63, "duration": 55, "velocity": 100}, {"time": 62040, "pitch": 47, "duration": 275, "velocity": 100}, {"time": 62040, "pitch": 59, "duration": 110, "velocity": 100}, {"time": 62040, "pitch": 66, "duration": 165, "velocity": 100}, {"time": 62205, "pitch": 59, "duration": 55, "velocity": 100}, {"time": 62260, "pitch": 59, "duration": 110, "velocity": 100}, {"time": 62260, "pitch": 66, "duration": 110, "velocity": 100}, {"time": 62260, "pitch": 71, "duration": 110, "velocity": 100}, {"time": 62370, "pitch": 61, "duration": 55, "velocity": 100}, {"time": 62370, "pitch": 78, "duration": 110, "velocity": 100}, {"time": 62480, "pitch": 47, "duration": 275, "velocity": 100}, {"time": 62480, "pitch": 59, "duration": 110, "velocity": 100}, {"time": 62480, "pitch": 66, "duration": 110, "velocity": 100}, {"time": 62480, "pitch": 75, "duration": 440, "velocity": 100}, {"time": 62700, "pitch": 59, "duration": 110, "velocity": 100}, {"time": 62700, "pitch": 63, "duration": 110, "velocity": 100}, {"time": 62700, "pitch": 66, "duration": 110, "velocity": 100}, {"time": 62810, "pitch": 47, "duration": 55, "velocity": 100}, {"time": 62865, "pitch": 54, "duration": 55, "velocity": 100}, {"time": 62920, "pitch": 47, "duration": 275, "velocity": 100}, {"time": 62920, "pitch": 59, "duration": 110, "velocity": 100}, {"time": 62920, "pitch": 63, "duration": 110, "velocity": 100}, {"time": 63030, "pitch": 54, "duration": 110, "velocity": 100}, {"time": 63085, "pitch": 59, "duration": 165, "velocity": 100}, {"time": 63140, "pitch": 59, "duration": 220, "velocity": 100}, {"time": 63140, "pitch": 66, "duration": 220, "velocity": 100}, {"time": 63140, "pitch": 71, "duration": 220, "velocity": 100}, {"time": 63250, "pitch": 54, "duration": 110, "velocity": 100}, {"time": 63360, "pitch": 43, "duration": 275, "velocity": 100}, {"time": 63360, "pitch": 55, "duration": 55, "velocity": 100}, {"time": 63360, "pitch": 59, "duration": 110, "velocity": 100}, {"time": 63580, "pitch": 55, "duration": 55, "velocity": 100}, {"time": 63580, "pitch": 59, "duration": 55, "velocity": 100}, {"time": 63580, "pitch": 63, "duration": 55, "velocity": 100}, {"time": 63745, "pitch": 55, "duration": 55, "velocity": 100}, {"time": 63800, "pitch": 39, "duration": 220, "velocity": 100}, {"time": 63800, "pitch": 55, "duration": 55, "velocity": 100}, {"time": 63800, "pitch": 59, "duration": 110, "velocity": 100}, {"time": 63910, "pitch": 55, "duration": 55, "velocity": 100}, {"time": 64020, "pitch": 55, "duration": 55, "velocity": 100}, {"time": 64020, "pitch": 59, "duration": 55, "velocity": 100}, {"time": 64020, "pitch": 63, "duration": 55, "velocity": 100}, {"time": 64240, "pitch": 39, "duration": 275, "velocity": 100}, {"time": 64240, "pitch": 51, "duration": 110, "velocity": 100}, {"time": 64240, "pitch": 55, "duration": 110, "velocity": 100}, {"time": 64240, "pitch": 59, "duration": 110, "velocity": 100}, {"time": 64350, "pitch": 47, "duration": 110, "velocity": 100}, {"time": 64460, "pitch": 51, "duration": 55, "velocity": 100}, {"time": 64460, "pitch": 55, "duration": 55, "velocity": 100}, {"time": 64460, "pitch": 59, "duration": 55, "velocity": 100}, {"time": 64625, "pitch": 55, "duration": 55, "velocity": 100}, {"time": 64680, "pitch": 39, "duration": 275, "velocity": 100}, {"time": 64680, "pitch": 59, "duration": 110, "velocity": 100}, {"time": 64845, "pitch": 55, "duration": 55, "velocity": 100}, {"time": 64900, "pitch": 55, "duration": 55, "velocity": 100}, {"time": 64900, "pitch": 59, "duration": 55, "velocity": 100}, {"time": 64900, "pitch": 63, "duration": 110, "velocity": 100}, {"time": 65010, "pitch": 55, "duration": 55, "velocity": 100}, {"time": 65120, "pitch": 43, "duration": 220, "velocity": 100}, {"time": 65120, "pitch": 55, "duration": 110, "velocity": 100}, {"time": 65120, "pitch": 59, "duration": 110, "velocity": 100}, {"time": 65340, "pitch": 55, "duration": 55, "velocity": 100}, {"time": 65340, "pitch": 59, "duration": 55, "velocity": 100}, {"time": 65340, "pitch": 63, "duration": 55, "velocity": 100}, {"time": 65450, "pitch": 43, "duration": 55, "velocity": 100}, {"time": 65505, "pitch": 55, "duration": 55, "velocity": 100}, {"time": 65560, "pitch": 39, "duration": 275, "velocity": 100}, {"time": 65560, "pitch": 55, "duration": 110, "velocity": 100}, {"time": 65560, "pitch": 59, "duration": 110, "velocity": 100}, {"time": 65725, "pitch": 55, "duration": 55, "velocity": 100}, {"time": 65780, "pitch": 55, "duration": 55, "velocity": 100}, {"time": 65780, "pitch": 59, "duration": 110, "velocity": 100}, {"time": 65780, "pitch": 63, "duration": 110, "velocity": 100}, {"time": 65890, "pitch": 55, "duration": 55, "velocity": 100}, {"time": 66000, "pitch": 39, "duration": 275, "velocity": 100}, {"time": 66000, "pitch": 51, "duration": 110, "velocity": 100}, {"time": 66000, "pitch": 63, "duration": 110, "velocity": 100}, {"time": 66220, "pitch": 51, "duration": 110, "velocity": 100}, {"time": 66220, "pitch": 55, "duration": 110, "velocity": 100}, {"time": 66220, "pitch": 59, "duration": 110, "velocity": 100}, {"time": 66330, "pitch": 39, "duration": 55, "velocity": 100}, {"time": 66385, "pitch": 51, "duration": 55, "velocity": 100}, {"time": 66440, "pitch": 39, "duration": 275, "velocity": 100}, {"time": 66440, "pitch": 51, "duration": 110, "velocity": 100}, {"time": 66440, "pitch": 55, "duration": 110, "velocity": 100}, {"time": 66550, "pitch": 47, "duration": 110, "velocity": 100}, {"time": 66605, "pitch": 51, "duration": 110, "velocity": 100}, {"time": 66660, "pitch": 55, "duration": 165, "velocity": 100}, {"time": 66660, "pitch": 59, "duration": 220, "velocity": 100}, {"time": 66660, "pitch": 63, "duration": 165, "velocity": 100}, {"time": 66770, "pitch": 47, "duration": 55, "velocity": 100}, {"time": 66880, "pitch": 43, "duration": 275, "velocity": 100}, {"time": 66880, "pitch": 55, "duration": 55, "velocity": 100}, {"time": 66880, "pitch": 59, "duration": 110, "velocity": 100}, {"time": 67100, "pitch": 55, "duration": 55, "velocity": 100}, {"time": 67100, "pitch": 59, "duration": 110, "velocity": 100}, {"time": 67100, "pitch": 63, "duration": 110, "velocity": 100}, {"time": 67265, "pitch": 55, "duration": 55, "velocity": 100}, {"time": 67320, "pitch": 39, "duration": 220, "velocity": 100}, {"time": 67320, "pitch": 55, "duration": 55, "velocity": 100}, {"time": 67320, "pitch": 59, "duration": 110, "velocity": 100}, {"time": 67430, "pitch": 54, "duration": 55, "velocity": 100}, {"time": 67540, "pitch": 55, "duration": 55, "velocity": 100}, {"time": 67540, "pitch": 59, "duration": 55, "velocity": 100}, {"time": 67540, "pitch": 63, "duration": 55, "velocity": 100}, {"time": 67760, "pitch": 39, "duration": 275, "velocity": 100}, {"time": 67760, "pitch": 51, "duration": 110, "velocity": 100}, {"time": 67760, "pitch": 55, "duration": 110, "velocity": 100}, {"time": 67760, "pitch": 59, "duration": 110, "velocity": 100}, {"time": 67870, "pitch": 47, "duration": 110, "velocity": 100}, {"time": 67980, "pitch": 51, "duration": 55, "velocity": 100}, {"time": 67980, "pitch": 55, "duration": 55, "velocity": 100}, {"time": 67980, "pitch": 59, "duration": 55, "velocity": 100}, {"time": 68145, "pitch": 55, "duration": 55, "velocity": 100}, {"time": 68200, "pitch": 39, "duration": 275, "velocity": 100}, {"time": 68200, "pitch": 55, "duration": 110, "velocity": 100}, {"time": 68200, "pitch": 59, "duration": 110, "velocity": 100}, {"time": 68365, "pitch": 55, "duration": 55, "velocity": 100}, {"time": 68365, "pitch": 67, "duration": 55, "velocity": 100}, {"time": 68420, "pitch": 55, "duration": 55, "velocity": 100}, {"time": 68420, "pitch": 59, "duration": 55, "velocity": 100}, {"time": 68420, "pitch": 63, "duration": 55, "velocity": 100}, {"time": 68420, "pitch": 71, "duration": 110, "velocity": 100}, {"time": 68530, "pitch": 54, "duration": 55, "velocity": 100}, {"time": 68530, "pitch": 71, "duration": 110, "velocity": 100}, {"time": 68640, "pitch": 43, "duration": 275, "velocity": 100}, {"time": 68640, "pitch": 55, "duration": 110, "velocity": 100}, {"time": 68640, "pitch": 59, "duration": 110, "velocity": 100}, {"time": 68640, "pitch": 67, "duration": 440, "velocity": 100}, {"time": 68860, "pitch": 55, "duration": 55, "velocity": 100}, {"time": 68860, "pitch": 59, "duration": 55, "velocity": 100}, {"time": 68860, "pitch": 63, "duration": 55, "velocity": 100}, {"time": 68970, "pitch": 43, "duration": 55, "velocity": 100}, {"time": 69025, "pitch": 55, "duration": 55, "velocity": 100}, {"time": 69080, "pitch": 39, "duration": 330, "velocity": 100}, {"time": 69080, "pitch": 55, "duration": 110, "velocity": 100}, {"time": 69080, "pitch": 59, "duration": 165, "velocity": 100}, {"time": 69245, "pitch": 55, "duration": 55, "velocity": 100}, {"time": 69300, "pitch": 55, "duration": 55, "velocity": 100}, {"time": 69300, "pitch": 59, "duration": 110, "velocity": 100}, {"time": 69300, "pitch": 63, "duration": 110, "velocity": 100}, {"time": 69410, "pitch": 55, "duration": 55, "velocity": 100}, {"time": 69410, "pitch": 71, "duration": 110, "velocity": 100}, {"time": 69520, "pitch": 39, "duration": 275, "velocity": 100}, {"time": 69520, "pitch": 51, "duration": 110, "velocity": 100}, {"time": 69520, "pitch": 63, "duration": 110, "velocity": 100}, {"time": 69520, "pitch": 67, "duration": 440, "velocity": 100}, {"time": 69740, "pitch": 51, "duration": 110, "velocity": 100}, {"time": 69740, "pitch": 55, "duration": 110, "velocity": 100}, {"time": 69740, "pitch": 59, "duration": 110, "velocity": 100}, {"time": 69850, "pitch": 39, "duration": 55, "velocity": 100}, {"time": 69905, "pitch": 51, "duration": 55, "velocity": 100}, {"time": 69960, "pitch": 39, "duration": 275, "velocity": 100}, {"time": 69960, "pitch": 51, "duration": 110, "velocity": 100}, {"time": 69960, "pitch": 55, "duration": 110, "velocity": 100}, {"time": 70070, "pitch": 47, "duration": 110, "velocity": 100}, {"time": 70125, "pitch": 51, "duration": 220, "velocity": 100}, {"time": 70180, "pitch": 55, "duration": 165, "velocity": 100}, {"time": 70180, "pitch": 59, "duration": 220, "velocity": 100}, {"time": 70180, "pitch": 63, "duration": 220, "velocity": 100}, {"time": 70290, "pitch": 47, "duration": 55, "velocity": 100}, {"time": 70400, "pitch": 51, "duration": 275, "velocity": 100}, {"time": 70400, "pitch": 63, "duration": 110, "velocity": 100}, {"time": 70400, "pitch": 66, "duration": 110, "velocity": 100}, {"time": 70620, "pitch": 63, "duration": 55, "velocity": 100}, {"time": 70620, "pitch": 66, "duration": 55, "velocity": 100}, {"time": 70620, "pitch": 71, "duration": 110, "velocity": 100}, {"time": 70785, "pitch": 63, "duration": 55, "velocity": 100}, {"time": 70840, "pitch": 47, "duration": 220, "velocity": 100}, {"time": 70840, "pitch": 59, "duration": 55, "velocity": 100}, {"time": 70840, "pitch": 66, "duration": 110, "velocity": 100}, {"time": 70950, "pitch": 59, "duration": 55, "velocity": 100}, {"time": 71060, "pitch": 59, "duration": 55, "velocity": 100}, {"time": 71060, "pitch": 63, "duration": 55, "velocity": 100}, {"time": 71060, "pitch": 71, "duration": 55, "velocity": 100}, {"time": 71280, "pitch": 47, "duration": 275, "velocity": 100}, {"time": 71280, "pitch": 59, "duration": 110, "velocity": 100}, {"time": 71280, "pitch": 63, "duration": 110, "velocity": 100}, {"time": 71280, "pitch": 66, "duration": 110, "velocity": 100}, {"time": 71390, "pitch": 54, "duration": 110, "velocity": 100}, {"time": 71500, "pitch": 59, "duration": 55, "velocity": 100}, {"time": 71500, "pitch": 63, "duration": 55, "velocity": 100}, {"time": 71500, "pitch": 66, "duration": 55, "velocity": 100}, {"time": 71665, "pitch": 61, "duration": 55, "velocity": 100}, {"time": 71720, "pitch": 39, "duration": 275, "velocity": 100}, {"time": 71720, "pitch": 59, "duration": 55, "velocity": 100}, {"time": 71720, "pitch": 66, "duration": 110, "velocity": 100}, {"time": 71885, "pitch": 59, "duration": 55, "velocity": 100}, {"time": 71940, "pitch": 63, "duration": 55, "velocity": 100}, {"time": 71940, "pitch": 66, "duration": 55, "velocity": 100}, {"time": 71940, "pitch": 71, "duration": 55, "velocity": 100}, {"time": 72050, "pitch": 61, "duration": 55, "velocity": 100}, {"time": 72160, "pitch": 47, "duration": 220, "velocity": 100}, {"time": 72160, "pitch": 63, "duration": 110, "velocity": 100}, {"time": 72160, "pitch": 66, "duration": 110, "velocity": 100}, {"time": 72380, "pitch": 63, "duration": 55, "velocity": 100}, {"time": 72380, "pitch": 66, "duration": 55, "velocity": 100}, {"time": 72380, "pitch": 71, "duration": 55, "velocity": 100}, {"time": 72490, "pitch": 54, "duration": 55, "velocity": 100}, {"time": 72545, "pitch": 63, "duration": 55, "velocity": 100}, {"time": 72600, "pitch": 47, "duration": 275, "velocity": 100}, {"time": 72600, "pitch": 59, "duration": 110, "velocity": 100}, {"time": 72600, "pitch": 66, "duration": 110, "velocity": 100}, {"time": 72765, "pitch": 59, "duration": 55, "velocity": 100}, {"time": 72820, "pitch": 59, "duration": 55, "velocity": 100}, {"time": 72820, "pitch": 66, "duration": 110, "velocity": 100}, {"time": 72820, "pitch": 71, "duration": 110, "velocity": 100}, {"time": 72930, "pitch": 61, "duration": 55, "velocity": 100}, {"time": 73040, "pitch": 47, "duration": 275, "velocity": 100}, {"time": 73040, "pitch": 59, "duration": 110, "velocity": 100}, {"time": 73040, "pitch": 66, "duration": 110, "velocity": 100}, {"time": 73260, "pitch": 59, "duration": 110, "velocity": 100}, {"time": 73260, "pitch": 63, "duration": 110, "velocity": 100}, {"time": 73260, "pitch": 66, "duration": 110, "velocity": 100}, {"time": 73370, "pitch": 47, "duration": 55, "velocity": 100}, {"time": 73425, "pitch": 59, "duration": 55, "velocity": 100}, {"time": 73480, "pitch": 47, "duration": 275, "velocity": 100}, {"time": 73480, "pitch": 59, "duration": 110, "velocity": 100}, {"time": 73480, "pitch": 63, "duration": 110, "velocity": 100}, {"time": 73590, "pitch": 54, "duration": 110, "velocity": 100}, {"time": 73645, "pitch": 59, "duration": 220, "velocity": 100}, {"time": 73700, "pitch": 63, "duration": 165, "velocity": 100}, {"time": 73700, "pitch": 66, "duration": 220, "velocity": 100}, {"time": 73700, "pitch": 71, "duration": 165, "velocity": 100}, {"time": 73810, "pitch": 54, "duration": 55, "velocity": 100}, {"time": 73920, "pitch": 50, "duration": 275, "velocity": 100}, {"time": 73920, "pitch": 57, "duration": 55, "velocity": 100}, {"time": 73920, "pitch": 62, "duration": 110, "velocity": 100}, {"time": 74140, "pitch": 57, "duration": 55, "velocity": 100}, {"time": 74140, "pitch": 62, "duration": 55, "velocity": 100}, {"time": 74140, "pitch": 66, "duration": 110, "velocity": 100}, {"time": 74305, "pitch": 57, "duration": 55, "velocity": 100}, {"time": 74360, "pitch": 38, "duration": 220, "velocity": 100}, {"time": 74360, "pitch": 57, "duration": 55, "velocity": 100}, {"time": 74360, "pitch": 62, "duration": 110, "velocity": 100}, {"time": 74470, "pitch": 57, "duration": 55, "velocity": 100}, {"time": 74580, "pitch": 57, "duration": 55, "velocity": 100}, {"time": 74580, "pitch": 62, "duration": 55, "velocity": 100}, {"time": 74580, "pitch": 66, "duration": 55, "velocity": 100}, {"time": 74800, "pitch": 38, "duration": 275, "velocity": 100}, {"time": 74800, "pitch": 57, "duration": 110, "velocity": 100}, {"time": 74800, "pitch": 62, "duration": 110, "velocity": 100}, {"time": 74910, "pitch": 50, "duration": 110, "velocity": 100}, {"time": 75020, "pitch": 54, "duration": 55, "velocity": 100}, {"time": 75020, "pitch": 57, "duration": 55, "velocity": 100}, {"time": 75020, "pitch": 62, "duration": 55, "velocity": 100}, {"time": 75185, "pitch": 57, "duration": 55, "velocity": 100}, {"time": 75240, "pitch": 38, "duration": 275, "velocity": 100}, {"time": 75240, "pitch": 57, "duration": 55, "velocity": 100}, {"time": 75240, "pitch": 62, "duration": 110, "velocity": 100}, {"time": 75405, "pitch": 57, "duration": 55, "velocity": 100}, {"time": 75405, "pitch": 69, "duration": 55, "velocity": 100}, {"time": 75460, "pitch": 57, "duration": 55, "velocity": 100}, {"time": 75460, "pitch": 62, "duration": 55, "velocity": 100}, {"time": 75460, "pitch": 66, "duration": 55, "velocity": 100}, {"time": 75460, "pitch": 74, "duration": 110, "velocity": 100}, {"time": 75570, "pitch": 57, "duration": 55, "velocity": 100}, {"time": 75570, "pitch": 73, "duration": 110, "velocity": 100}, {"time": 75680, "pitch": 50, "duration": 275, "velocity": 100}, {"time": 75680, "pitch": 57, "duration": 55, "velocity": 100}, {"time": 75680, "pitch": 62, "duration": 165, "velocity": 100}, {"time": 75680, "pitch": 69, "duration": 440, "velocity": 100}, {"time": 75900, "pitch": 57, "duration": 55, "velocity": 100}, {"time": 75900, "pitch": 62, "duration": 55, "velocity": 100}, {"time": 75900, "pitch": 66, "duration": 110, "velocity": 100}, {"time": 76010, "pitch": 45, "duration": 55, "velocity": 100}, {"time": 76065, "pitch": 57, "duration": 55, "velocity": 100}, {"time": 76120, "pitch": 38, "duration": 275, "velocity": 100}, {"time": 76120, "pitch": 57, "duration": 55, "velocity": 100}, {"time": 76120, "pitch": 62, "duration": 165, "velocity": 100}, {"time": 76285, "pitch": 57, "duration": 55, "velocity": 100}, {"time": 76340, "pitch": 57, "duration": 55, "velocity": 100}, {"time": 76340, "pitch": 62, "duration": 110, "velocity": 100}, {"time": 76340, "pitch": 66, "duration": 110, "velocity": 100}, {"time": 76450, "pitch": 57, "duration": 55, "velocity": 100}, {"time": 76450, "pitch": 73, "duration": 110, "velocity": 100}, {"time": 76560, "pitch": 38, "duration": 275, "velocity": 100}, {"time": 76560, "pitch": 50, "duration": 110, "velocity": 100}, {"time": 76560, "pitch": 62, "duration": 110, "velocity": 100}, {"time": 76560, "pitch": 69, "duration": 385, "velocity": 100}, {"time": 76780, "pitch": 54, "duration": 110, "velocity": 100}, {"time": 76780, "pitch": 57, "duration": 110, "velocity": 100}, {"time": 76780, "pitch": 62, "duration": 110, "velocity": 100}, {"time": 76890, "pitch": 38, "duration": 55, "velocity": 100}, {"time": 76945, "pitch": 54, "duration": 55, "velocity": 100}, {"time": 77000, "pitch": 38, "duration": 275, "velocity": 100}, {"time": 77000, "pitch": 54, "duration": 110, "velocity": 100}, {"time": 77000, "pitch": 57, "duration": 110, "velocity": 100}, {"time": 77110, "pitch": 50, "duration": 110, "velocity": 100}, {"time": 77165, "pitch": 54, "duration": 165, "velocity": 100}, {"time": 77220, "pitch": 57, "duration": 165, "velocity": 100}, {"time": 77220, "pitch": 62, "duration": 220, "velocity": 100}, {"time": 77220, "pitch": 66, "duration": 220, "velocity": 100}, {"time": 77330, "pitch": 50, "duration": 110, "velocity": 100}, {"time": 77440, "pitch": 45, "duration": 275, "velocity": 100}, {"time": 77440, "pitch": 57, "duration": 110, "velocity": 100}, {"time": 77440, "pitch": 64, "duration": 110, "velocity": 100}, {"time": 77550, "pitch": 52, "duration": 110, "velocity": 100}, {"time": 77660, "pitch": 57, "duration": 55, "velocity": 100}, {"time": 77660, "pitch": 60, "duration": 55, "velocity": 100}, {"time": 77660, "pitch": 64, "duration": 55, "velocity": 100}, {"time": 77715, "pitch": 52, "duration": 55, "velocity": 100}, {"time": 77715, "pitch": 67, "duration": 55, "velocity": 100}, {"time": 77770, "pitch": 57, "duration": 55, "velocity": 100}, {"time": 77770, "pitch": 64, "duration": 55, "velocity": 100}, {"time": 77825, "pitch": 60, "duration": 55, "velocity": 100}, {"time": 77880, "pitch": 45, "duration": 275, "velocity": 100}, {"time": 77880, "pitch": 57, "duration": 55, "velocity": 100}, {"time": 77880, "pitch": 64, "duration": 330, "velocity": 100}, {"time": 77990, "pitch": 57, "duration": 55, "velocity": 100}, {"time": 78100, "pitch": 57, "duration": 110, "velocity": 100}, {"time": 78100, "pitch": 64, "duration": 110, "velocity": 100}, {"time": 78210, "pitch": 62, "duration": 110, "velocity": 100}, {"time": 78320, "pitch": 45, "duration": 385, "velocity": 100}, {"time": 78320, "pitch": 57, "duration": 165, "velocity": 100}, {"time": 78320, "pitch": 60, "duration": 220, "velocity": 100}, {"time": 78430, "pitch": 52, "duration": 165, "velocity": 100}, {"time": 78540, "pitch": 60, "duration": 110, "velocity": 100}, {"time": 78540, "pitch": 64, "duration": 110, "velocity": 100}, {"time": 78595, "pitch": 64, "duration": 55, "velocity": 100}, {"time": 78650, "pitch": 52, "duration": 55, "velocity": 100}, {"time": 78650, "pitch": 64, "duration": 55, "velocity": 100}, {"time": 78705, "pitch": 57, "duration": 55, "velocity": 100}, {"time": 78705, "pitch": 62, "duration": 55, "velocity": 100}, {"time": 78760, "pitch": 45, "duration": 275, "velocity": 100}, {"time": 78760, "pitch": 57, "duration": 165, "velocity": 100}, {"time": 78760, "pitch": 60, "duration": 220, "velocity": 100}, {"time": 78760, "pitch": 64, "duration": 220, "velocity": 100}, {"time": 78870, "pitch": 57, "duration": 55, "velocity": 100}, {"time": 78980, "pitch": 60, "duration": 110, "velocity": 100}, {"time": 78980, "pitch": 64, "duration": 110, "velocity": 100}, {"time": 79090, "pitch": 57, "duration": 110, "velocity": 100}, {"time": 79090, "pitch": 64, "duration": 110, "velocity": 100}, {"time": 79200, "pitch": 45, "duration": 385, "velocity": 100}, {"time": 79200, "pitch": 57, "duration": 165, "velocity": 100}, {"time": 79200, "pitch": 60, "duration": 220, "velocity": 100}, {"time": 79310, "pitch": 52, "duration": 110, "velocity": 100}, {"time": 79420, "pitch": 57, "duration": 55, "velocity": 100}, {"time": 79420, "pitch": 60, "duration": 55, "velocity": 100}, {"time": 79420, "pitch": 64, "duration": 55, "velocity": 100}, {"time": 79475, "pitch": 52, "duration": 55, "velocity": 100}, {"time": 79475, "pitch": 67, "duration": 55, "velocity": 100}, {"time": 79530, "pitch": 60, "duration": 55, "velocity": 100}, {"time": 79530, "pitch": 64, "duration": 55, "velocity": 100}, {"time": 79585, "pitch": 60, "duration": 55, "velocity": 100}, {"time": 79585, "pitch": 64, "duration": 55, "velocity": 100}, {"time": 79640, "pitch": 45, "duration": 330, "velocity": 100}, {"time": 79640, "pitch": 57, "duration": 220, "velocity": 100}, {"time": 79640, "pitch": 60, "duration": 440, "velocity": 100}, {"time": 79860, "pitch": 57, "duration": 55, "velocity": 100}, {"time": 79860, "pitch": 64, "duration": 220, "velocity": 100}, {"time": 79970, "pitch": 57, "duration": 110, "velocity": 100}, {"time": 79970, "pitch": 62, "duration": 110, "velocity": 100}, {"time": 80080, "pitch": 45, "duration": 385, "velocity": 100}, {"time": 80080, "pitch": 57, "duration": 165, "velocity": 100}, {"time": 80080, "pitch": 60, "duration": 220, "velocity": 100}, {"time": 80190, "pitch": 52, "duration": 275, "velocity": 100}, {"time": 80300, "pitch": 57, "duration": 55, "velocity": 100}, {"time": 80300, "pitch": 60, "duration": 110, "velocity": 100}, {"time": 80300, "pitch": 64, "duration": 110, "velocity": 100}, {"time": 80300, "pitch": 72, "duration": 55, "velocity": 100}, {"time": 80355, "pitch": 74, "duration": 55, "velocity": 100}, {"time": 80410, "pitch": 57, "duration": 55, "velocity": 100}, {"time": 80465, "pitch": 79, "duration": 55, "velocity": 100}, {"time": 80520, "pitch": 45, "duration": 385, "velocity": 100}, {"time": 80520, "pitch": 57, "duration": 165, "velocity": 100}, {"time": 80520, "pitch": 60, "duration": 220, "velocity": 100}, {"time": 80520, "pitch": 76, "duration": 165, "velocity": 100}, {"time": 80630, "pitch": 57, "duration": 55, "velocity": 100}, {"time": 80685, "pitch": 76, "duration": 165, "velocity": 100}, {"time": 80740, "pitch": 57, "duration": 55, "velocity": 100}, {"time": 80740, "pitch": 60, "duration": 110, "velocity": 100}, {"time": 80795, "pitch": 72, "duration": 55, "velocity": 100}, {"time": 80850, "pitch": 64, "duration": 110, "velocity": 100}, {"time": 80960, "pitch": 43, "duration": 275, "velocity": 100}, {"time": 80960, "pitch": 55, "duration": 55, "velocity": 100}, {"time": 80960, "pitch": 59, "duration": 110, "velocity": 100}, {"time": 81180, "pitch": 55, "duration": 55, "velocity": 100}, {"time": 81180, "pitch": 59, "duration": 55, "velocity": 100}, {"time": 81180, "pitch": 63, "duration": 55, "velocity": 100}, {"time": 81345, "pitch": 55, "duration": 55, "velocity": 100}, {"time": 81400, "pitch": 39, "duration": 220, "velocity": 100}, {"time": 81400, "pitch": 55, "duration": 55, "velocity": 100}, {"time": 81400, "pitch": 59, "duration": 110, "velocity": 100}, {"time": 81510, "pitch": 55, "duration": 55, "velocity": 100}, {"time": 81620, "pitch": 55, "duration": 55, "velocity": 100}, {"time": 81620, "pitch": 59, "duration": 55, "velocity": 100}, {"time": 81620, "pitch": 63, "duration": 55, "velocity": 100}, {"time": 81840, "pitch": 39, "duration": 275, "velocity": 100}, {"time": 81840, "pitch": 51, "duration": 110, "velocity": 100}, {"time": 81840, "pitch": 55, "duration": 110, "velocity": 100}, {"time": 81840, "pitch": 59, "duration": 110, "velocity": 100}, {"time": 81950, "pitch": 47, "duration": 110, "velocity": 100}, {"time": 82060, "pitch": 51, "duration": 55, "velocity": 100}, {"time": 82060, "pitch": 55, "duration": 55, "velocity": 100}, {"time": 82060, "pitch": 59, "duration": 55, "velocity": 100}, {"time": 82225, "pitch": 55, "duration": 55, "velocity": 100}, {"time": 82280, "pitch": 39, "duration": 275, "velocity": 100}, {"time": 82280, "pitch": 59, "duration": 110, "velocity": 100}, {"time": 82445, "pitch": 55, "duration": 55, "velocity": 100}, {"time": 82500, "pitch": 55, "duration": 55, "velocity": 100}, {"time": 82500, "pitch": 59, "duration": 55, "velocity": 100}, {"time": 82500, "pitch": 63, "duration": 110, "velocity": 100}, {"time": 82610, "pitch": 55, "duration": 55, "velocity": 100}, {"time": 82720, "pitch": 43, "duration": 220, "velocity": 100}, {"time": 82720, "pitch": 55, "duration": 110, "velocity": 100}, {"time": 82720, "pitch": 59, "duration": 110, "velocity": 100}, {"time": 82940, "pitch": 55, "duration": 55, "velocity": 100}, {"time": 82940, "pitch": 59, "duration": 55, "velocity": 100}, {"time": 82940, "pitch": 63, "duration": 55, "velocity": 100}, {"time": 83050, "pitch": 43, "duration": 55, "velocity": 100}, {"time": 83105, "pitch": 55, "duration": 55, "velocity": 100}, {"time": 83160, "pitch": 39, "duration": 275, "velocity": 100}, {"time": 83160, "pitch": 55, "duration": 110, "velocity": 100}, {"time": 83160, "pitch": 59, "duration": 110, "velocity": 100}, {"time": 83325, "pitch": 55, "duration": 55, "velocity": 100}, {"time": 83380, "pitch": 55, "duration": 55, "velocity": 100}, {"time": 83380, "pitch": 59, "duration": 110, "velocity": 100}, {"time": 83380, "pitch": 63, "duration": 110, "velocity": 100}, {"time": 83490, "pitch": 55, "duration": 55, "velocity": 100}, {"time": 83600, "pitch": 39, "duration": 275, "velocity": 100}, {"time": 83600, "pitch": 51, "duration": 110, "velocity": 100}, {"time": 83600, "pitch": 63, "duration": 110, "velocity": 100}, {"time": 83820, "pitch": 51, "duration": 110, "velocity": 100}, {"time": 83820, "pitch": 55, "duration": 110, "velocity": 100}, {"time": 83820, "pitch": 59, "duration": 110, "velocity": 100}, {"time": 83930, "pitch": 39, "duration": 55, "velocity": 100}, {"time": 83985, "pitch": 51, "duration": 55, "velocity": 100}, {"time": 84040, "pitch": 39, "duration": 275, "velocity": 100}, {"time": 84040, "pitch": 51, "duration": 110, "velocity": 100}, {"time": 84040, "pitch": 55, "duration": 110, "velocity": 100}, {"time": 84150, "pitch": 47, "duration": 110, "velocity": 100}, {"time": 84205, "pitch": 51, "duration": 110, "velocity": 100}, {"time": 84260, "pitch": 55, "duration": 165, "velocity": 100}, {"time": 84260, "pitch": 59, "duration": 220, "velocity": 100}, {"time": 84260, "pitch": 63, "duration": 165, "velocity": 100}, {"time": 84370, "pitch": 47, "duration": 55, "velocity": 100}, {"time": 84480, "pitch": 43, "duration": 275, "velocity": 100}, {"time": 84480, "pitch": 55, "duration": 55, "velocity": 100}, {"time": 84480, "pitch": 59, "duration": 110, "velocity": 100}, {"time": 84700, "pitch": 55, "duration": 55, "velocity": 100}, {"time": 84700, "pitch": 59, "duration": 110, "velocity": 100}, {"time": 84700, "pitch": 63, "duration": 110, "velocity": 100}, {"time": 84865, "pitch": 55, "duration": 55, "velocity": 100}, {"time": 84920, "pitch": 39, "duration": 220, "velocity": 100}, {"time": 84920, "pitch": 55, "duration": 55, "velocity": 100}, {"time": 84920, "pitch": 59, "duration": 110, "velocity": 100}, {"time": 85030, "pitch": 54, "duration": 55, "velocity": 100}, {"time": 85140, "pitch": 55, "duration": 55, "velocity": 100}, {"time": 85140, "pitch": 59, "duration": 55, "velocity": 100}, {"time": 85140, "pitch": 63, "duration": 55, "velocity": 100}, {"time": 85360, "pitch": 39, "duration": 275, "velocity": 100}, {"time": 85360, "pitch": 51, "duration": 110, "velocity": 100}, {"time": 85360, "pitch": 55, "duration": 110, "velocity": 100}, {"time": 85360, "pitch": 59, "duration": 110, "velocity": 100}, {"time": 85470, "pitch": 47, "duration": 110, "velocity": 100}, {"time": 85580, "pitch": 51, "duration": 55, "velocity": 100}, {"time": 85580, "pitch": 55, "duration": 55, "velocity": 100}, {"time": 85580, "pitch": 59, "duration": 55, "velocity": 100}, {"time": 85745, "pitch": 55, "duration": 55, "velocity": 100}, {"time": 85800, "pitch": 39, "duration": 275, "velocity": 100}, {"time": 85800, "pitch": 55, "duration": 110, "velocity": 100}, {"time": 85800, "pitch": 59, "duration": 110, "velocity": 100}, {"time": 85965, "pitch": 55, "duration": 55, "velocity": 100}, {"time": 85965, "pitch": 67, "duration": 55, "velocity": 100}, {"time": 86020, "pitch": 55, "duration": 55, "velocity": 100}, {"time": 86020, "pitch": 59, "duration": 55, "velocity": 100}, {"time": 86020, "pitch": 63, "duration": 55, "velocity": 100}, {"time": 86020, "pitch": 71, "duration": 110, "velocity": 100}, {"time": 86130, "pitch": 54, "duration": 55, "velocity": 100}, {"time": 86130, "pitch": 71, "duration": 110, "velocity": 100}, {"time": 86240, "pitch": 43, "duration": 275, "velocity": 100}, {"time": 86240, "pitch": 55, "duration": 110, "velocity": 100}, {"time": 86240, "pitch": 59, "duration": 110, "velocity": 100}, {"time": 86240, "pitch": 67, "duration": 440, "velocity": 100}, {"time": 86460, "pitch": 55, "duration": 55, "velocity": 100}, {"time": 86460, "pitch": 59, "duration": 55, "velocity": 100}, {"time": 86460, "pitch": 63, "duration": 55, "velocity": 100}, {"time": 86570, "pitch": 43, "duration": 55, "velocity": 100}, {"time": 86625, "pitch": 55, "duration": 55, "velocity": 100}, {"time": 86680, "pitch": 39, "duration": 330, "velocity": 100}, {"time": 86680, "pitch": 55, "duration": 110, "velocity": 100}, {"time": 86680, "pitch": 59, "duration": 165, "velocity": 100}, {"time": 86845, "pitch": 55, "duration": 55, "velocity": 100}, {"time": 86900, "pitch": 55, "duration": 55, "velocity": 100}, {"time": 86900, "pitch": 59, "duration": 110, "velocity": 100}, {"time": 86900, "pitch": 63, "duration": 110, "velocity": 100}, {"time": 87010, "pitch": 55, "duration": 55, "velocity": 100}, {"time": 87010, "pitch": 71, "duration": 110, "velocity": 100}, {"time": 87120, "pitch": 39, "duration": 275, "velocity": 100}, {"time": 87120, "pitch": 51, "duration": 110, "velocity": 100}, {"time": 87120, "pitch": 63, "duration": 110, "velocity": 100}, {"time": 87120, "pitch": 67, "duration": 440, "velocity": 100}, {"time": 87340, "pitch": 51, "duration": 110, "velocity": 100}, {"time": 87340, "pitch": 55, "duration": 110, "velocity": 100}, {"time": 87340, "pitch": 59, "duration": 110, "velocity": 100}, {"time": 87450, "pitch": 39, "duration": 55, "velocity": 100}, {"time": 87505, "pitch": 51, "duration": 55, "velocity": 100}, {"time": 87560, "pitch": 39, "duration": 275, "velocity": 100}, {"time": 87560, "pitch": 51, "duration": 110, "velocity": 100}, {"time": 87560, "pitch": 55, "duration": 110, "velocity": 100}, {"time": 87670, "pitch": 47, "duration": 110, "velocity": 100}, {"time": 87725, "pitch": 51, "duration": 220, "velocity": 100}, {"time": 87780, "pitch": 55, "duration": 165, "velocity": 100}, {"time": 87780, "pitch": 59, "duration": 220, "velocity": 100}, {"time": 87780, "pitch": 63, "duration": 220, "velocity": 100}, {"time": 87890, "pitch": 47, "duration": 55, "velocity": 100}, {"time": 88000, "pitch": 51, "duration": 275, "velocity": 100}, {"time": 88000, "pitch": 63, "duration": 110, "velocity": 100}, {"time": 88000, "pitch": 66, "duration": 110, "velocity": 100}, {"time": 88220, "pitch": 63, "duration": 55, "velocity": 100}, {"time": 88220, "pitch": 66, "duration": 55, "velocity": 100}, {"time": 88220, "pitch": 71, "duration": 110, "velocity": 100}, {"time": 88385, "pitch": 63, "duration": 55, "velocity": 100}, {"time": 88440, "pitch": 47, "duration": 220, "velocity": 100}, {"time": 88440, "pitch": 59, "duration": 55, "velocity": 100}, {"time": 88440, "pitch": 66, "duration": 110, "velocity": 100}, {"time": 88550, "pitch": 59, "duration": 55, "velocity": 100}, {"time": 88660, "pitch": 59, "duration": 55, "velocity": 100}, {"time": 88660, "pitch": 63, "duration": 55, "velocity": 100}, {"time": 88660, "pitch": 71, "duration": 55, "velocity": 100}, {"time": 88880, "pitch": 47, "duration": 275, "velocity": 100}, {"time": 88880, "pitch": 59, "duration": 110, "velocity": 100}, {"time": 88880, "pitch": 63, "duration": 110, "velocity": 100}, {"time": 88880, "pitch": 66, "duration": 110, "velocity": 100}, {"time": 88990, "pitch": 54, "duration": 110, "velocity": 100}, {"time": 89100, "pitch": 59, "duration": 55, "velocity": 100}, {"time": 89100, "pitch": 63, "duration": 55, "velocity": 100}, {"time": 89100, "pitch": 66, "duration": 55, "velocity": 100}, {"time": 89265, "pitch": 61, "duration": 55, "velocity": 100}, {"time": 89320, "pitch": 39, "duration": 275, "velocity": 100}, {"time": 89320, "pitch": 59, "duration": 55, "velocity": 100}, {"time": 89320, "pitch": 66, "duration": 110, "velocity": 100}, {"time": 89485, "pitch": 59, "duration": 55, "velocity": 100}, {"time": 89540, "pitch": 63, "duration": 55, "velocity": 100}, {"time": 89540, "pitch": 66, "duration": 55, "velocity": 100}, {"time": 89540, "pitch": 71, "duration": 55, "velocity": 100}, {"time": 89650, "pitch": 61, "duration": 55, "velocity": 100}, {"time": 89760, "pitch": 47, "duration": 220, "velocity": 100}, {"time": 89760, "pitch": 63, "duration": 110, "velocity": 100}, {"time": 89760, "pitch": 66, "duration": 110, "velocity": 100}, {"time": 89980, "pitch": 63, "duration": 55, "velocity": 100}, {"time": 89980, "pitch": 66, "duration": 55, "velocity": 100}, {"time": 89980, "pitch": 71, "duration": 55, "velocity": 100}, {"time": 90090, "pitch": 54, "duration": 55, "velocity": 100}, {"time": 90145, "pitch": 63, "duration": 55, "velocity": 100}, {"time": 90200, "pitch": 47, "duration": 275, "velocity": 100}, {"time": 90200, "pitch": 59, "duration": 110, "velocity": 100}, {"time": 90200, "pitch": 66, "duration": 110, "velocity": 100}, {"time": 90365, "pitch": 59, "duration": 55, "velocity": 100}, {"time": 90420, "pitch": 59, "duration": 55, "velocity": 100}, {"time": 90420, "pitch": 66, "duration": 110, "velocity": 100}, {"time": 90420, "pitch": 71, "duration": 110, "velocity": 100}, {"time": 90530, "pitch": 61, "duration": 55, "velocity": 100}, {"time": 90640, "pitch": 47, "duration": 275, "velocity": 100}, {"time": 90640, "pitch": 59, "duration": 110, "velocity": 100}, {"time": 90640, "pitch": 66, "duration": 110, "velocity": 100}, {"time": 90860, "pitch": 59, "duration": 110, "velocity": 100}, {"time": 90860, "pitch": 63, "duration": 110, "velocity": 100}, {"time": 90860, "pitch": 66, "duration": 110, "velocity": 100}, {"time": 90970, "pitch": 47, "duration": 55, "velocity": 100}, {"time": 91025, "pitch": 59, "duration": 55, "velocity": 100}, {"time": 91080, "pitch": 47, "duration": 275, "velocity": 100}, {"time": 91080, "pitch": 59, "duration": 110, "velocity": 100}, {"time": 91080, "pitch": 63, "duration": 110, "velocity": 100}, {"time": 91190, "pitch": 54, "duration": 110, "velocity": 100}, {"time": 91245, "pitch": 59, "duration": 220, "velocity": 100}, {"time": 91300, "pitch": 63, "duration": 165, "velocity": 100}, {"time": 91300, "pitch": 66, "duration": 220, "velocity": 100}, {"time": 91300, "pitch": 71, "duration": 165, "velocity": 100}, {"time": 91410, "pitch": 54, "duration": 55, "velocity": 100}, {"time": 91520, "pitch": 45, "duration": 275, "velocity": 100}, {"time": 91520, "pitch": 60, "duration": 55, "velocity": 100}, {"time": 91520, "pitch": 64, "duration": 110, "velocity": 100}, {"time": 91740, "pitch": 60, "duration": 55, "velocity": 100}, {"time": 91740, "pitch": 69, "duration": 110, "velocity": 100}, {"time": 91905, "pitch": 60, "duration": 55, "velocity": 100}, {"time": 91960, "pitch": 45, "duration": 220, "velocity": 100}, {"time": 91960, "pitch": 60, "duration": 110, "velocity": 100}, {"time": 91960, "pitch": 64, "duration": 110, "velocity": 100}, {"time": 92070, "pitch": 60, "duration": 55, "velocity": 100}, {"time": 92180, "pitch": 60, "duration": 55, "velocity": 100}, {"time": 92180, "pitch": 64, "duration": 55, "velocity": 100}, {"time": 92180, "pitch": 69, "duration": 55, "velocity": 100}, {"time": 92400, "pitch": 45, "duration": 275, "velocity": 100}, {"time": 92400, "pitch": 57, "duration": 110, "velocity": 100}, {"time": 92400, "pitch": 60, "duration": 110, "velocity": 100}, {"time": 92400, "pitch": 64, "duration": 110, "velocity": 100}, {"time": 92510, "pitch": 52, "duration": 110, "velocity": 100}, {"time": 92620, "pitch": 57, "duration": 55, "velocity": 100}, {"time": 92620, "pitch": 60, "duration": 55, "velocity": 100}, {"time": 92620, "pitch": 64, "duration": 55, "velocity": 100}, {"time": 92785, "pitch": 60, "duration": 55, "velocity": 100}, {"time": 92840, "pitch": 45, "duration": 275, "velocity": 100}, {"time": 92840, "pitch": 60, "duration": 55, "velocity": 100}, {"time": 92840, "pitch": 64, "duration": 110, "velocity": 100}, {"time": 93005, "pitch": 60, "duration": 55, "velocity": 100}, {"time": 93005, "pitch": 72, "duration": 55, "velocity": 100}, {"time": 93060, "pitch": 60, "duration": 55, "velocity": 100}, {"time": 93060, "pitch": 64, "duration": 55, "velocity": 100}, {"time": 93060, "pitch": 69, "duration": 110, "velocity": 100}, {"time": 93060, "pitch": 76, "duration": 110, "velocity": 100}, {"time": 93170, "pitch": 60, "duration": 55, "velocity": 100}, {"time": 93170, "pitch": 76, "duration": 110, "velocity": 100}, {"time": 93280, "pitch": 45, "duration": 275, "velocity": 100}, {"time": 93280, "pitch": 64, "duration": 165, "velocity": 100}, {"time": 93280, "pitch": 69, "duration": 55, "velocity": 100}, {"time": 93280, "pitch": 76, "duration": 440, "velocity": 100}, {"time": 93500, "pitch": 64, "duration": 55, "velocity": 100}, {"time": 93500, "pitch": 69, "duration": 110, "velocity": 100}, {"time": 93610, "pitch": 52, "duration": 55, "velocity": 100}, {"time": 93665, "pitch": 64, "duration": 55, "velocity": 100}, {"time": 93720, "pitch": 45, "duration": 275, "velocity": 100}, {"time": 93720, "pitch": 60, "duration": 110, "velocity": 100}, {"time": 93720, "pitch": 64, "duration": 165, "velocity": 100}, {"time": 93885, "pitch": 60, "duration": 55, "velocity": 100}, {"time": 93940, "pitch": 60, "duration": 110, "velocity": 100}, {"time": 93940, "pitch": 64, "duration": 110, "velocity": 100}, {"time": 93940, "pitch": 69, "duration": 110, "velocity": 100}, {"time": 94050, "pitch": 60, "duration": 55, "velocity": 100}, {"time": 94050, "pitch": 76, "duration": 110, "velocity": 100}, {"time": 94160, "pitch": 45, "duration": 275, "velocity": 100}, {"time": 94160, "pitch": 57, "duration": 110, "velocity": 100}, {"time": 94160, "pitch": 69, "duration": 110, "velocity": 100}, {"time": 94160, "pitch": 72, "duration": 385, "velocity": 100}, {"time": 94380, "pitch": 57, "duration": 110, "velocity": 100}, {"time": 94380, "pitch": 64, "duration": 110, "velocity": 100}, {"time": 94380, "pitch": 69, "duration": 110, "velocity": 100}, {"time": 94490, "pitch": 45, "duration": 55, "velocity": 100}, {"time": 94545, "pitch": 57, "duration": 55, "velocity": 100}, {"time": 94600, "pitch": 45, "duration": 275, "velocity": 100}, {"time": 94600, "pitch": 57, "duration": 110, "velocity": 100}, {"time": 94600, "pitch": 60, "duration": 110, "velocity": 100}, {"time": 94710, "pitch": 52, "duration": 110, "velocity": 100}, {"time": 94765, "pitch": 57, "duration": 165, "velocity": 100}, {"time": 94820, "pitch": 60, "duration": 165, "velocity": 100}, {"time": 94820, "pitch": 64, "duration": 220, "velocity": 100}, {"time": 94820, "pitch": 69, "duration": 220, "velocity": 100}, {"time": 94930, "pitch": 52, "duration": 110, "velocity": 100}, {"time": 95040, "pitch": 43, "duration": 275, "velocity": 100}, {"time": 95040, "pitch": 55, "duration": 55, "velocity": 100}, {"time": 95040, "pitch": 59, "duration": 110, "velocity": 100}, {"time": 95260, "pitch": 55, "duration": 55, "velocity": 100}, {"time": 95260, "pitch": 59, "duration": 55, "velocity": 100}, {"time": 95260, "pitch": 63, "duration": 55, "velocity": 100}, {"time": 95425, "pitch": 55, "duration": 55, "velocity": 100}, {"time": 95480, "pitch": 39, "duration": 220, "velocity": 100}, {"time": 95480, "pitch": 55, "duration": 55, "velocity": 100}, {"time": 95480, "pitch": 59, "duration": 110, "velocity": 100}, {"time": 95590, "pitch": 55, "duration": 55, "velocity": 100}, {"time": 95700, "pitch": 55, "duration": 55, "velocity": 100}, {"time": 95700, "pitch": 59, "duration": 55, "velocity": 100}, {"time": 95700, "pitch": 63, "duration": 55, "velocity": 100}, {"time": 95920, "pitch": 39, "duration": 275, "velocity": 100}, {"time": 95920, "pitch": 51, "duration": 110, "velocity": 100}, {"time": 95920, "pitch": 55, "duration": 110, "velocity": 100}, {"time": 95920, "pitch": 59, "duration": 110, "velocity": 100}, {"time": 96030, "pitch": 47, "duration": 110, "velocity": 100}, {"time": 96140, "pitch": 51, "duration": 55, "velocity": 100}, {"time": 96140, "pitch": 55, "duration": 55, "velocity": 100}, {"time": 96140, "pitch": 59, "duration": 55, "velocity": 100}, {"time": 96305, "pitch": 55, "duration": 55, "velocity": 100}, {"time": 96360, "pitch": 39, "duration": 275, "velocity": 100}, {"time": 96360, "pitch": 59, "duration": 110, "velocity": 100}, {"time": 96525, "pitch": 55, "duration": 55, "velocity": 100}, {"time": 96580, "pitch": 55, "duration": 55, "velocity": 100}, {"time": 96580, "pitch": 59, "duration": 55, "velocity": 100}, {"time": 96580, "pitch": 63, "duration": 110, "velocity": 100}, {"time": 96690, "pitch": 55, "duration": 55, "velocity": 100}, {"time": 96800, "pitch": 43, "duration": 220, "velocity": 100}, {"time": 96800, "pitch": 55, "duration": 110, "velocity": 100}, {"time": 96800, "pitch": 59, "duration": 110, "velocity": 100}, {"time": 97020, "pitch": 55, "duration": 55, "velocity": 100}, {"time": 97020, "pitch": 59, "duration": 55, "velocity": 100}, {"time": 97020, "pitch": 63, "duration": 55, "velocity": 100}, {"time": 97130, "pitch": 43, "duration": 55, "velocity": 100}, {"time": 97185, "pitch": 55, "duration": 55, "velocity": 100}, {"time": 97240, "pitch": 39, "duration": 275, "velocity": 100}, {"time": 97240, "pitch": 55, "duration": 110, "velocity": 100}, {"time": 97240, "pitch": 59, "duration": 110, "velocity": 100}, {"time": 97405, "pitch": 55, "duration": 55, "velocity": 100}, {"time": 97460, "pitch": 55, "duration": 55, "velocity": 100}, {"time": 97460, "pitch": 59, "duration": 110, "velocity": 100}, {"time": 97460, "pitch": 63, "duration": 110, "velocity": 100}, {"time": 97570, "pitch": 55, "duration": 55, "velocity": 100}, {"time": 97680, "pitch": 39, "duration": 275, "velocity": 100}, {"time": 97680, "pitch": 51, "duration": 110, "velocity": 100}, {"time": 97680, "pitch": 63, "duration": 110, "velocity": 100}, {"time": 97900, "pitch": 51, "duration": 110, "velocity": 100}, {"time": 97900, "pitch": 55, "duration": 110, "velocity": 100}, {"time": 97900, "pitch": 59, "duration": 110, "velocity": 100}, {"time": 98010, "pitch": 39, "duration": 55, "velocity": 100}, {"time": 98065, "pitch": 51, "duration": 55, "velocity": 100}, {"time": 98120, "pitch": 39, "duration": 275, "velocity": 100}, {"time": 98120, "pitch": 51, "duration": 110, "velocity": 100}, {"time": 98120, "pitch": 55, "duration": 110, "velocity": 100}, {"time": 98230, "pitch": 47, "duration": 110, "velocity": 100}, {"time": 98285, "pitch": 51, "duration": 110, "velocity": 100}, {"time": 98340, "pitch": 55, "duration": 165, "velocity": 100}, {"time": 98340, "pitch": 59, "duration": 220, "velocity": 100}, {"time": 98340, "pitch": 63, "duration": 165, "velocity": 100}, {"time": 98450, "pitch": 47, "duration": 55, "velocity": 100}, {"time": 98560, "pitch": 52, "duration": 275, "velocity": 100}, {"time": 98560, "pitch": 60, "duration": 110, "velocity": 100}, {"time": 98560, "pitch": 64, "duration": 110, "velocity": 100}, {"time": 98780, "pitch": 64, "duration": 55, "velocity": 100}, {"time": 98780, "pitch": 69, "duration": 110, "velocity": 100}, {"time": 98945, "pitch": 60, "duration": 55, "velocity": 100}, {"time": 99000, "pitch": 45, "duration": 220, "velocity": 100}, {"time": 99000, "pitch": 60, "duration": 55, "velocity": 100}, {"time": 99000, "pitch": 64, "duration": 110, "velocity": 100}, {"time": 99110, "pitch": 60, "duration": 55, "velocity": 100}, {"time": 99220, "pitch": 60, "duration": 55, "velocity": 100}, {"time": 99220, "pitch": 64, "duration": 55, "velocity": 100}, {"time": 99220, "pitch": 69, "duration": 55, "velocity": 100}, {"time": 99440, "pitch": 45, "duration": 275, "velocity": 100}, {"time": 99440, "pitch": 57, "duration": 110, "velocity": 100}, {"time": 99440, "pitch": 60, "duration": 110, "velocity": 100}, {"time": 99440, "pitch": 64, "duration": 110, "velocity": 100}, {"time": 99550, "pitch": 52, "duration": 110, "velocity": 100}, {"time": 99660, "pitch": 57, "duration": 55, "velocity": 100}, {"time": 99660, "pitch": 60, "duration": 55, "velocity": 100}, {"time": 99660, "pitch": 64, "duration": 55, "velocity": 100}, {"time": 99825, "pitch": 60, "duration": 55, "velocity": 100}, {"time": 99880, "pitch": 45, "duration": 275, "velocity": 100}, {"time": 99880, "pitch": 60, "duration": 55, "velocity": 100}, {"time": 99880, "pitch": 64, "duration": 110, "velocity": 100}, {"time": 100045, "pitch": 60, "duration": 55, "velocity": 100}, {"time": 100045, "pitch": 72, "duration": 55, "velocity": 100}, {"time": 100100, "pitch": 60, "duration": 55, "velocity": 100}, {"time": 100100, "pitch": 64, "duration": 55, "velocity": 100}, {"time": 100100, "pitch": 69, "duration": 110, "velocity": 100}, {"time": 100100, "pitch": 76, "duration": 110, "velocity": 100}, {"time": 100210, "pitch": 60, "duration": 55, "velocity": 100}, {"time": 100210, "pitch": 76, "duration": 110, "velocity": 100}, {"time": 100320, "pitch": 45, "duration": 275, "velocity": 100}, {"time": 100320, "pitch": 60, "duration": 55, "velocity": 100}, {"time": 100320, "pitch": 69, "duration": 110, "velocity": 100}, {"time": 100320, "pitch": 76, "duration": 440, "velocity": 100}, {"time": 100540, "pitch": 64, "duration": 55, "velocity": 100}, {"time": 100540, "pitch": 69, "duration": 55, "velocity": 100}, {"time": 100650, "pitch": 52, "duration": 55, "velocity": 100}, {"time": 100705, "pitch": 60, "duration": 55, "velocity": 100}, {"time": 100760, "pitch": 45, "duration": 275, "velocity": 100}, {"time": 100760, "pitch": 60, "duration": 110, "velocity": 100}, {"time": 100760, "pitch": 64, "duration": 165, "velocity": 100}, {"time": 100925, "pitch": 60, "duration": 55, "velocity": 100}, {"time": 100980, "pitch": 60, "duration": 110, "velocity": 100}, {"time": 100980, "pitch": 64, "duration": 110, "velocity": 100}, {"time": 100980, "pitch": 69, "duration": 110, "velocity": 100}, {"time": 101090, "pitch": 60, "duration": 55, "velocity": 100}, {"time": 101090, "pitch": 76, "duration": 110, "velocity": 100}, {"time": 101200, "pitch": 45, "duration": 275, "velocity": 100}, {"time": 101200, "pitch": 57, "duration": 110, "velocity": 100}, {"time": 101200, "pitch": 69, "duration": 110, "velocity": 100}, {"time": 101200, "pitch": 76, "duration": 385, "velocity": 100}, {"time": 101420, "pitch": 57, "duration": 110, "velocity": 100}, {"time": 101420, "pitch": 64, "duration": 110, "velocity": 100}, {"time": 101420, "pitch": 69, "duration": 110, "velocity": 100}, {"time": 101530, "pitch": 45, "duration": 55, "velocity": 100}, {"time": 101585, "pitch": 57, "duration": 55, "velocity": 100}, {"time": 101640, "pitch": 45, "duration": 275, "velocity": 100}, {"time": 101640, "pitch": 57, "duration": 110, "velocity": 100}, {"time": 101640, "pitch": 60, "duration": 110, "velocity": 100}, {"time": 101750, "pitch": 52, "duration": 110, "velocity": 100}, {"time": 101805, "pitch": 57, "duration": 110, "velocity": 100}, {"time": 101860, "pitch": 60, "duration": 165, "velocity": 100}, {"time": 101860, "pitch": 64, "duration": 220, "velocity": 100}, {"time": 101860, "pitch": 69, "duration": 220, "velocity": 100}, {"time": 101970, "pitch": 52, "duration": 55, "velocity": 100}, {"time": 102080, "pitch": 51, "duration": 275, "velocity": 100}, {"time": 102080, "pitch": 63, "duration": 110, "velocity": 100}, {"time": 102080, "pitch": 66, "duration": 110, "velocity": 100}, {"time": 102300, "pitch": 63, "duration": 55, "velocity": 100}, {"time": 102300, "pitch": 66, "duration": 55, "velocity": 100}, {"time": 102300, "pitch": 71, "duration": 110, "velocity": 100}, {"time": 102465, "pitch": 63, "duration": 55, "velocity": 100}, {"time": 102520, "pitch": 47, "duration": 220, "velocity": 100}, {"time": 102520, "pitch": 59, "duration": 55, "velocity": 100}, {"time": 102520, "pitch": 66, "duration": 110, "velocity": 100}, {"time": 102630, "pitch": 59, "duration": 55, "velocity": 100}, {"time": 102740, "pitch": 59, "duration": 55, "velocity": 100}, {"time": 102740, "pitch": 63, "duration": 55, "velocity": 100}, {"time": 102740, "pitch": 71, "duration": 55, "velocity": 100}, {"time": 102960, "pitch": 47, "duration": 275, "velocity": 100}, {"time": 102960, "pitch": 59, "duration": 110, "velocity": 100}, {"time": 102960, "pitch": 63, "duration": 110, "velocity": 100}, {"time": 102960, "pitch": 66, "duration": 110, "velocity": 100}, {"time": 103070, "pitch": 54, "duration": 110, "velocity": 100}, {"time": 103180, "pitch": 59, "duration": 55, "velocity": 100}, {"time": 103180, "pitch": 63, "duration": 55, "velocity": 100}, {"time": 103180, "pitch": 66, "duration": 55, "velocity": 100}, {"time": 103345, "pitch": 61, "duration": 55, "velocity": 100}, {"time": 103400, "pitch": 39, "duration": 275, "velocity": 100}, {"time": 103400, "pitch": 59, "duration": 55, "velocity": 100}, {"time": 103400, "pitch": 66, "duration": 110, "velocity": 100}, {"time": 103565, "pitch": 59, "duration": 55, "velocity": 100}, {"time": 103620, "pitch": 63, "duration": 55, "velocity": 100}, {"time": 103620, "pitch": 66, "duration": 55, "velocity": 100}, {"time": 103620, "pitch": 71, "duration": 55, "velocity": 100}, {"time": 103730, "pitch": 61, "duration": 55, "velocity": 100}, {"time": 103840, "pitch": 47, "duration": 220, "velocity": 100}, {"time": 103840, "pitch": 63, "duration": 110, "velocity": 100}, {"time": 103840, "pitch": 66, "duration": 110, "velocity": 100}, {"time": 104060, "pitch": 63, "duration": 55, "velocity": 100}, {"time": 104060, "pitch": 66, "duration": 55, "velocity": 100}, {"time": 104060, "pitch": 71, "duration": 55, "velocity": 100}, {"time": 104170, "pitch": 54, "duration": 55, "velocity": 100}, {"time": 104225, "pitch": 63, "duration": 55, "velocity": 100}, {"time": 104280, "pitch": 47, "duration": 275, "velocity": 100}, {"time": 104280, "pitch": 59, "duration": 110, "velocity": 100}, {"time": 104280, "pitch": 66, "duration": 110, "velocity": 100}, {"time": 104445, "pitch": 59, "duration": 55, "velocity": 100}, {"time": 104500, "pitch": 59, "duration": 55, "velocity": 100}, {"time": 104500, "pitch": 66, "duration": 110, "velocity": 100}, {"time": 104500, "pitch": 71, "duration": 110, "velocity": 100}, {"time": 104610, "pitch": 61, "duration": 55, "velocity": 100}, {"time": 104720, "pitch": 47, "duration": 275, "velocity": 100}, {"time": 104720, "pitch": 59, "duration": 110, "velocity": 100}, {"time": 104720, "pitch": 66, "duration": 110, "velocity": 100}, {"time": 104940, "pitch": 59, "duration": 110, "velocity": 100}, {"time": 104940, "pitch": 63, "duration": 110, "velocity": 100}, {"time": 104940, "pitch": 66, "duration": 110, "velocity": 100}, {"time": 105050, "pitch": 47, "duration": 55, "velocity": 100}, {"time": 105105, "pitch": 59, "duration": 55, "velocity": 100}, {"time": 105160, "pitch": 47, "duration": 275, "velocity": 100}, {"time": 105160, "pitch": 59, "duration": 110, "velocity": 100}, {"time": 105160, "pitch": 63, "duration": 110, "velocity": 100}, {"time": 105270, "pitch": 54, "duration": 110, "velocity": 100}, {"time": 105325, "pitch": 59, "duration": 220, "velocity": 100}, {"time": 105380, "pitch": 63, "duration": 165, "velocity": 100}, {"time": 105380, "pitch": 66, "duration": 220, "velocity": 100}, {"time": 105380, "pitch": 71, "duration": 165, "velocity": 100}, {"time": 105490, "pitch": 54, "duration": 55, "velocity": 100}, {"time": 105600, "pitch": 43, "duration": 275, "velocity": 100}, {"time": 105600, "pitch": 55, "duration": 55, "velocity": 100}, {"time": 105600, "pitch": 59, "duration": 110, "velocity": 100}, {"time": 105820, "pitch": 55, "duration": 55, "velocity": 100}, {"time": 105820, "pitch": 59, "duration": 110, "velocity": 100}, {"time": 105820, "pitch": 63, "duration": 110, "velocity": 100}, {"time": 105985, "pitch": 55, "duration": 55, "velocity": 100}, {"time": 106040, "pitch": 39, "duration": 220, "velocity": 100}, {"time": 106040, "pitch": 55, "duration": 55, "velocity": 100}, {"time": 106040, "pitch": 59, "duration": 110, "velocity": 100}, {"time": 106150, "pitch": 54, "duration": 55, "velocity": 100}, {"time": 106260, "pitch": 55, "duration": 55, "velocity": 100}, {"time": 106260, "pitch": 59, "duration": 55, "velocity": 100}, {"time": 106260, "pitch": 63, "duration": 55, "velocity": 100}, {"time": 106480, "pitch": 39, "duration": 275, "velocity": 100}, {"time": 106480, "pitch": 51, "duration": 110, "velocity": 100}, {"time": 106480, "pitch": 55, "duration": 110, "velocity": 100}, {"time": 106480, "pitch": 59, "duration": 110, "velocity": 100}, {"time": 106590, "pitch": 47, "duration": 110, "velocity": 100}, {"time": 106700, "pitch": 51, "duration": 55, "velocity": 100}, {"time": 106700, "pitch": 55, "duration": 55, "velocity": 100}, {"time": 106700, "pitch": 59, "duration": 55, "velocity": 100}, {"time": 106865, "pitch": 55, "duration": 55, "velocity": 100}, {"time": 106920, "pitch": 39, "duration": 275, "velocity": 100}, {"time": 106920, "pitch": 55, "duration": 110, "velocity": 100}, {"time": 106920, "pitch": 59, "duration": 110, "velocity": 100}, {"time": 107085, "pitch": 55, "duration": 55, "velocity": 100}, {"time": 107085, "pitch": 67, "duration": 55, "velocity": 100}, {"time": 107140, "pitch": 55, "duration": 55, "velocity": 100}, {"time": 107140, "pitch": 59, "duration": 55, "velocity": 100}, {"time": 107140, "pitch": 63, "duration": 110, "velocity": 100}, {"time": 107140, "pitch": 71, "duration": 110, "velocity": 100}, {"time": 107250, "pitch": 54, "duration": 55, "velocity": 100}, {"time": 107250, "pitch": 71, "duration": 110, "velocity": 100}, {"time": 107360, "pitch": 43, "duration": 275, "velocity": 100}, {"time": 107360, "pitch": 55, "duration": 55, "velocity": 100}, {"time": 107360, "pitch": 59, "duration": 55, "velocity": 100}, {"time": 107360, "pitch": 67, "duration": 440, "velocity": 100}, {"time": 107580, "pitch": 55, "duration": 55, "velocity": 100}, {"time": 107580, "pitch": 59, "duration": 55, "velocity": 100}, {"time": 107580, "pitch": 63, "duration": 110, "velocity": 100}, {"time": 107690, "pitch": 43, "duration": 55, "velocity": 100}, {"time": 107745, "pitch": 55, "duration": 55, "velocity": 100}, {"time": 107800, "pitch": 39, "duration": 275, "velocity": 100}, {"time": 107800, "pitch": 55, "duration": 110, "velocity": 100}, {"time": 107800, "pitch": 59, "duration": 165, "velocity": 100}, {"time": 107965, "pitch": 55, "duration": 55, "velocity": 100}, {"time": 108020, "pitch": 55, "duration": 55, "velocity": 100}, {"time": 108020, "pitch": 59, "duration": 110, "velocity": 100}, {"time": 108020, "pitch": 63, "duration": 110, "velocity": 100}, {"time": 108130, "pitch": 55, "duration": 55, "velocity": 100}, {"time": 108130, "pitch": 71, "duration": 110, "velocity": 100}, {"time": 108240, "pitch": 39, "duration": 275, "velocity": 100}, {"time": 108240, "pitch": 51, "duration": 110, "velocity": 100}, {"time": 108240, "pitch": 63, "duration": 110, "velocity": 100}, {"time": 108240, "pitch": 67, "duration": 660, "velocity": 100}, {"time": 108460, "pitch": 51, "duration": 110, "velocity": 100}, {"time": 108460, "pitch": 55, "duration": 110, "velocity": 100}, {"time": 108460, "pitch": 59, "duration": 110, "velocity": 100}, {"time": 108570, "pitch": 39, "duration": 55, "velocity": 100}, {"time": 108625, "pitch": 51, "duration": 55, "velocity": 100}, {"time": 108680, "pitch": 39, "duration": 275, "velocity": 100}, {"time": 108680, "pitch": 51, "duration": 110, "velocity": 100}, {"time": 108680, "pitch": 55, "duration": 110, "velocity": 100}, {"time": 108790, "pitch": 47, "duration": 110, "velocity": 100}, {"time": 108845, "pitch": 51, "duration": 165, "velocity": 100}, {"time": 108900, "pitch": 55, "duration": 220, "velocity": 100}, {"time": 108900, "pitch": 59, "duration": 220, "velocity": 100}, {"time": 108900, "pitch": 63, "duration": 220, "velocity": 100}, {"time": 109010, "pitch": 47, "duration": 110, "velocity": 100}]}]}