{"metadata": {"schema_version": "0.1", "title": "None", "source_filename": "20211209_142145.mid", "source_format": "midi"}, "resolution": 220, "tempos": [{"time": 0, "qpm": 120.0}], "time_signatures": [{"time": 0, "numerator": 4, "denominator": 4}], "tracks": [{"program": 0, "is_drum": false, "name": "Piano", "notes": [{"time": 1815, "pitch": 43, "duration": 825, "velocity": 100}, {"time": 2640, "pitch": 47, "duration": 880, "velocity": 100}, {"time": 3575, "pitch": 48, "duration": 825, "velocity": 100}, {"time": 4400, "pitch": 39, "duration": 880, "velocity": 100}, {"time": 5335, "pitch": 38, "duration": 660, "velocity": 100}, {"time": 5995, "pitch": 47, "duration": 165, "velocity": 100}, {"time": 6160, "pitch": 40, "duration": 660, "velocity": 100}, {"time": 6820, "pitch": 39, "duration": 220, "velocity": 100}, {"time": 7040, "pitch": 38, "duration": 440, "velocity": 100}, {"time": 7480, "pitch": 40, "duration": 440, "velocity": 100}, {"time": 7920, "pitch": 45, "duration": 440, "velocity": 100}, {"time": 8360, "pitch": 38, "duration": 440, "velocity": 100}, {"time": 11550, "pitch": 38, "duration": 110, "velocity": 100}, {"time": 11660, "pitch": 38, "duration": 110, "velocity": 100}, {"time": 11770, "pitch": 38, "duration": 110, "velocity": 100}, {"time": 11880, "pitch": 38, "duration": 110, "velocity": 100}, {"time": 11990, "pitch": 38, "duration": 110, "velocity": 100}, {"time": 12100, "pitch": 38, "duration": 110, "velocity": 100}, {"time": 12210, "pitch": 38, "duration": 110, "velocity": 100}, {"time": 12320, "pitch": 43, "duration": 220, "velocity": 100}, {"time": 12540, "pitch": 43, "duration": 220, "velocity": 100}, {"time": 12760, "pitch": 43, "duration": 220, "velocity": 100}, {"time": 12980, "pitch": 43, "duration": 220, "velocity": 100}, {"time": 13200, "pitch": 43, "duration": 220, "velocity": 100}, {"time": 13420, "pitch": 43, "duration": 220, "velocity": 100}, {"time": 13640, "pitch": 43, "duration": 220, "velocity": 100}, {"time": 13860, "pitch": 43, "duration": 220, "velocity": 100}, {"time": 14080, "pitch": 43, "duration": 220, "velocity": 100}, {"time": 14300, "pitch": 43, "duration": 220, "velocity": 100}, {"time": 14520, "pitch": 43, "duration": 275, "velocity": 100}, {"time": 14795, "pitch": 43, "duration": 220, "velocity": 100}, {"time": 15015, "pitch": 43, "duration": 220, "velocity": 100}, {"time": 15235, "pitch": 45, "duration": 220, "velocity": 100}, {"time": 15455, "pitch": 46, "duration": 220, "velocity": 100}, {"time": 15675, "pitch": 47, "duration": 165, "velocity": 100}, {"time": 15895, "pitch": 48, "duration": 220, "velocity": 100}, {"time": 16115, "pitch": 48, "duration": 220, "velocity": 100}, {"time": 16335, "pitch": 48, "duration": 220, "velocity": 100}, {"time": 16555, "pitch": 48, "duration": 220, "velocity": 100}, {"time": 16775, "pitch": 48, "duration": 220, "velocity": 100}, {"time": 16995, "pitch": 48, "duration": 220, "velocity": 100}, {"time": 17215, "pitch": 48, "duration": 220, "velocity": 100}, {"time": 17435, "pitch": 48, "duration": 110, "velocity": 100}, {"time": 17545, "pitch": 38, "duration": 55, "velocity": 100}, {"time": 17600, "pitch": 39, "duration": 220, "velocity": 100}, {"time": 17820, "pitch": 39, "duration": 220, "velocity": 100}, {"time": 18040, "pitch": 39, "duration": 220, "velocity": 100}, {"time": 18260, "pitch": 39, "duration": 220, "velocity": 100}, {"time": 18480, "pitch": 39, "duration": 220, "velocity": 100}, {"time": 18700, "pitch": 39, "duration": 220, "velocity": 100}, {"time": 18920, "pitch": 39, "duration": 220, "velocity": 100}, {"time": 19140, "pitch": 39, "duration": 220, "velocity": 100}, {"time": 19360, "pitch": 43, "duration": 220, "velocity": 100}, {"time": 19580, "pitch": 43, "duration": 220, "velocity": 100}, {"time": 19800, "pitch": 43, "duration": 220, "velocity": 100}, {"time": 20020, "pitch": 43, "duration": 220, "velocity": 100}, {"time": 20240, "pitch": 43, "duration": 220, "velocity": 100}, {"time": 20460, "pitch": 43, "duration": 220, "velocity": 100}, {"time": 20680, "pitch": 43, "duration": 275, "velocity": 100}, {"time": 20955, "pitch": 43, "duration": 165, "velocity": 100}, {"time": 21175, "pitch": 43, "duration": 220, "velocity": 100}, {"time": 21395, "pitch": 43, "duration": 220, "velocity": 100}, {"time": 21615, "pitch": 43, "duration": 220, "velocity": 100}, {"time": 21835, "pitch": 43, "duration": 220, "velocity": 100}, {"time": 22055, "pitch": 43, "duration": 220, "velocity": 100}, {"time": 22275, "pitch": 45, "duration": 220, "velocity": 100}, {"time": 22495, "pitch": 46, "duration": 220, "velocity": 100}, {"time": 22715, "pitch": 47, "duration": 165, "velocity": 100}, {"time": 22935, "pitch": 48, "duration": 220, "velocity": 100}, {"time": 23155, "pitch": 48, "duration": 220, "velocity": 100}, {"time": 23375, "pitch": 48, "duration": 220, "velocity": 100}, {"time": 23595, "pitch": 48, "duration": 165, "velocity": 100}, {"time": 23760, "pitch": 48, "duration": 220, "velocity": 100}, {"time": 23980, "pitch": 48, "duration": 220, "velocity": 100}, {"time": 24200, "pitch": 48, "duration": 220, "velocity": 100}, {"time": 24420, "pitch": 48, "duration": 110, "velocity": 100}, {"time": 24530, "pitch": 38, "duration": 110, "velocity": 100}, {"time": 24640, "pitch": 39, "duration": 220, "velocity": 100}, {"time": 24860, "pitch": 39, "duration": 220, "velocity": 100}, {"time": 25080, "pitch": 39, "duration": 220, "velocity": 100}, {"time": 25300, "pitch": 39, "duration": 220, "velocity": 100}, {"time": 25520, "pitch": 39, "duration": 220, "velocity": 100}, {"time": 25740, "pitch": 39, "duration": 220, "velocity": 100}, {"time": 25960, "pitch": 39, "duration": 220, "velocity": 100}, {"time": 26180, "pitch": 39, "duration": 220, "velocity": 100}, {"time": 26400, "pitch": 43, "duration": 220, "velocity": 100}, {"time": 26620, "pitch": 43, "duration": 220, "velocity": 100}, {"time": 26840, "pitch": 43, "duration": 275, "velocity": 100}, {"time": 27115, "pitch": 43, "duration": 220, "velocity": 100}, {"time": 27335, "pitch": 43, "duration": 220, "velocity": 100}, {"time": 27555, "pitch": 43, "duration": 220, "velocity": 100}, {"time": 27775, "pitch": 47, "duration": 220, "velocity": 100}, {"time": 27995, "pitch": 47, "duration": 165, "velocity": 100}, {"time": 28215, "pitch": 40, "duration": 220, "velocity": 100}, {"time": 28435, "pitch": 40, "duration": 220, "velocity": 100}, {"time": 28655, "pitch": 40, "duration": 220, "velocity": 100}, {"time": 28875, "pitch": 40, "duration": 220, "velocity": 100}, {"time": 29095, "pitch": 40, "duration": 220, "velocity": 100}, {"time": 29315, "pitch": 40, "duration": 220, "velocity": 100}, {"time": 29535, "pitch": 39, "duration": 220, "velocity": 100}, {"time": 29755, "pitch": 39, "duration": 165, "velocity": 100}, {"time": 29920, "pitch": 38, "duration": 220, "velocity": 100}, {"time": 30140, "pitch": 38, "duration": 220, "velocity": 100}, {"time": 30360, "pitch": 38, "duration": 220, "velocity": 100}, {"time": 30580, "pitch": 38, "duration": 220, "velocity": 100}, {"time": 30800, "pitch": 40, "duration": 220, "velocity": 100}, {"time": 31020, "pitch": 40, "duration": 220, "velocity": 100}, {"time": 31240, "pitch": 40, "duration": 220, "velocity": 100}, {"time": 31460, "pitch": 43, "duration": 220, "velocity": 100}, {"time": 31680, "pitch": 45, "duration": 220, "velocity": 100}, {"time": 31900, "pitch": 45, "duration": 220, "velocity": 100}, {"time": 32120, "pitch": 45, "duration": 220, "velocity": 100}, {"time": 32340, "pitch": 45, "duration": 220, "velocity": 100}, {"time": 32560, "pitch": 38, "duration": 220, "velocity": 100}, {"time": 32780, "pitch": 38, "duration": 220, "velocity": 100}, {"time": 33000, "pitch": 38, "duration": 275, "velocity": 100}, {"time": 33275, "pitch": 38, "duration": 165, "velocity": 100}, {"time": 33495, "pitch": 43, "duration": 220, "velocity": 100}, {"time": 33715, "pitch": 43, "duration": 220, "velocity": 100}, {"time": 33935, "pitch": 43, "duration": 220, "velocity": 100}, {"time": 34155, "pitch": 43, "duration": 220, "velocity": 100}, {"time": 34375, "pitch": 40, "duration": 220, "velocity": 100}, {"time": 34595, "pitch": 40, "duration": 220, "velocity": 100}, {"time": 34815, "pitch": 40, "duration": 220, "velocity": 100}, {"time": 35035, "pitch": 40, "duration": 165, "velocity": 100}, {"time": 35255, "pitch": 45, "duration": 220, "velocity": 100}, {"time": 35475, "pitch": 45, "duration": 220, "velocity": 100}, {"time": 35695, "pitch": 45, "duration": 220, "velocity": 100}, {"time": 35915, "pitch": 45, "duration": 165, "velocity": 100}, {"time": 36190, "pitch": 38, "duration": 110, "velocity": 100}, {"time": 36300, "pitch": 38, "duration": 110, "velocity": 100}, {"time": 36410, "pitch": 38, "duration": 110, "velocity": 100}, {"time": 36520, "pitch": 38, "duration": 110, "velocity": 100}, {"time": 36630, "pitch": 38, "duration": 110, "velocity": 100}, {"time": 36740, "pitch": 38, "duration": 110, "velocity": 100}, {"time": 36850, "pitch": 38, "duration": 110, "velocity": 100}, {"time": 36960, "pitch": 43, "duration": 220, "velocity": 100}, {"time": 37180, "pitch": 43, "duration": 220, "velocity": 100}, {"time": 37400, "pitch": 43, "duration": 220, "velocity": 100}, {"time": 37620, "pitch": 43, "duration": 220, "velocity": 100}, {"time": 37840, "pitch": 43, "duration": 220, "velocity": 100}, {"time": 38060, "pitch": 43, "duration": 220, "velocity": 100}, {"time": 38280, "pitch": 43, "duration": 220, "velocity": 100}, {"time": 38500, "pitch": 43, "duration": 220, "velocity": 100}, {"time": 38720, "pitch": 43, "duration": 220, "velocity": 100}, {"time": 38940, "pitch": 43, "duration": 220, "velocity": 100}, {"time": 39160, "pitch": 43, "duration": 275, "velocity": 100}, {"time": 39435, "pitch": 43, "duration": 220, "velocity": 100}, {"time": 39655, "pitch": 43, "duration": 220, "velocity": 100}, {"time": 39875, "pitch": 45, "duration": 220, "velocity": 100}, {"time": 40095, "pitch": 46, "duration": 220, "velocity": 100}, {"time": 40315, "pitch": 47, "duration": 165, "velocity": 100}, {"time": 40535, "pitch": 48, "duration": 220, "velocity": 100}, {"time": 40755, "pitch": 48, "duration": 220, "velocity": 100}, {"time": 40975, "pitch": 48, "duration": 220, "velocity": 100}, {"time": 41195, "pitch": 48, "duration": 220, "velocity": 100}, {"time": 41415, "pitch": 48, "duration": 220, "velocity": 100}, {"time": 41635, "pitch": 48, "duration": 220, "velocity": 100}, {"time": 41855, "pitch": 48, "duration": 220, "velocity": 100}, {"time": 42075, "pitch": 48, "duration": 110, "velocity": 100}, {"time": 42185, "pitch": 38, "duration": 55, "velocity": 100}, {"time": 42240, "pitch": 39, "duration": 220, "velocity": 100}, {"time": 42460, "pitch": 39, "duration": 220, "velocity": 100}, {"time": 42680, "pitch": 39, "duration": 220, "velocity": 100}, {"time": 42900, "pitch": 39, "duration": 220, "velocity": 100}, {"time": 43120, "pitch": 39, "duration": 220, "velocity": 100}, {"time": 43340, "pitch": 39, "duration": 220, "velocity": 100}, {"time": 43560, "pitch": 39, "duration": 220, "velocity": 100}, {"time": 43780, "pitch": 39, "duration": 220, "velocity": 100}, {"time": 44000, "pitch": 43, "duration": 220, "velocity": 100}, {"time": 44220, "pitch": 43, "duration": 220, "velocity": 100}, {"time": 44440, "pitch": 43, "duration": 220, "velocity": 100}, {"time": 44660, "pitch": 43, "duration": 220, "velocity": 100}, {"time": 44880, "pitch": 43, "duration": 220, "velocity": 100}, {"time": 45100, "pitch": 43, "duration": 220, "velocity": 100}, {"time": 45320, "pitch": 43, "duration": 275, "velocity": 100}, {"time": 45595, "pitch": 43, "duration": 165, "velocity": 100}, {"time": 45815, "pitch": 43, "duration": 220, "velocity": 100}, {"time": 46035, "pitch": 43, "duration": 220, "velocity": 100}, {"time": 46255, "pitch": 43, "duration": 220, "velocity": 100}, {"time": 46475, "pitch": 43, "duration": 220, "velocity": 100}, {"time": 46695, "pitch": 43, "duration": 220, "velocity": 100}, {"time": 46915, "pitch": 45, "duration": 220, "velocity": 100}, {"time": 47135, "pitch": 46, "duration": 220, "velocity": 100}, {"time": 47355, "pitch": 47, "duration": 165, "velocity": 100}, {"time": 47575, "pitch": 48, "duration": 220, "velocity": 100}, {"time": 47795, "pitch": 48, "duration": 220, "velocity": 100}, {"time": 48015, "pitch": 48, "duration": 220, "velocity": 100}, {"time": 48235, "pitch": 48, "duration": 165, "velocity": 100}, {"time": 48400, "pitch": 48, "duration": 220, "velocity": 100}, {"time": 48620, "pitch": 48, "duration": 220, "velocity": 100}, {"time": 48840, "pitch": 48, "duration": 220, "velocity": 100}, {"time": 49060, "pitch": 48, "duration": 110, "velocity": 100}, {"time": 49170, "pitch": 38, "duration": 110, "velocity": 100}, {"time": 49280, "pitch": 39, "duration": 220, "velocity": 100}, {"time": 49500, "pitch": 39, "duration": 220, "velocity": 100}, {"time": 49720, "pitch": 39, "duration": 220, "velocity": 100}, {"time": 49940, "pitch": 39, "duration": 220, "velocity": 100}, {"time": 50160, "pitch": 39, "duration": 220, "velocity": 100}, {"time": 50380, "pitch": 39, "duration": 220, "velocity": 100}, {"time": 50600, "pitch": 39, "duration": 220, "velocity": 100}, {"time": 50820, "pitch": 39, "duration": 220, "velocity": 100}, {"time": 51040, "pitch": 43, "duration": 220, "velocity": 100}, {"time": 51260, "pitch": 43, "duration": 220, "velocity": 100}, {"time": 51480, "pitch": 43, "duration": 275, "velocity": 100}, {"time": 51755, "pitch": 43, "duration": 220, "velocity": 100}, {"time": 51975, "pitch": 43, "duration": 220, "velocity": 100}, {"time": 52195, "pitch": 43, "duration": 220, "velocity": 100}, {"time": 52415, "pitch": 47, "duration": 220, "velocity": 100}, {"time": 52635, "pitch": 47, "duration": 165, "velocity": 100}, {"time": 52855, "pitch": 40, "duration": 220, "velocity": 100}, {"time": 53075, "pitch": 40, "duration": 220, "velocity": 100}, {"time": 53295, "pitch": 40, "duration": 220, "velocity": 100}, {"time": 53515, "pitch": 40, "duration": 220, "velocity": 100}, {"time": 53735, "pitch": 40, "duration": 220, "velocity": 100}, {"time": 53955, "pitch": 40, "duration": 220, "velocity": 100}, {"time": 54175, "pitch": 39, "duration": 220, "velocity": 100}, {"time": 54395, "pitch": 39, "duration": 165, "velocity": 100}, {"time": 54560, "pitch": 38, "duration": 220, "velocity": 100}, {"time": 54780, "pitch": 38, "duration": 220, "velocity": 100}, {"time": 55000, "pitch": 38, "duration": 220, "velocity": 100}, {"time": 55220, "pitch": 38, "duration": 220, "velocity": 100}, {"time": 55440, "pitch": 40, "duration": 220, "velocity": 100}, {"time": 55660, "pitch": 40, "duration": 220, "velocity": 100}, {"time": 55880, "pitch": 40, "duration": 220, "velocity": 100}, {"time": 56100, "pitch": 43, "duration": 220, "velocity": 100}, {"time": 56320, "pitch": 45, "duration": 220, "velocity": 100}, {"time": 56540, "pitch": 45, "duration": 220, "velocity": 100}, {"time": 56760, "pitch": 45, "duration": 220, "velocity": 100}, {"time": 56980, "pitch": 45, "duration": 165, "velocity": 100}, {"time": 57145, "pitch": 38, "duration": 275, "velocity": 100}, {"time": 57420, "pitch": 38, "duration": 220, "velocity": 100}, {"time": 57640, "pitch": 38, "duration": 275, "velocity": 100}, {"time": 57915, "pitch": 38, "duration": 165, "velocity": 100}, {"time": 58135, "pitch": 43, "duration": 220, "velocity": 100}, {"time": 58355, "pitch": 43, "duration": 220, "velocity": 100}, {"time": 58575, "pitch": 43, "duration": 220, "velocity": 100}, {"time": 58795, "pitch": 43, "duration": 220, "velocity": 100}, {"time": 59015, "pitch": 40, "duration": 220, "velocity": 100}, {"time": 59235, "pitch": 40, "duration": 220, "velocity": 100}, {"time": 59455, "pitch": 40, "duration": 220, "velocity": 100}, {"time": 59675, "pitch": 40, "duration": 165, "velocity": 100}, {"time": 59895, "pitch": 45, "duration": 220, "velocity": 100}, {"time": 60115, "pitch": 45, "duration": 220, "velocity": 100}, {"time": 60335, "pitch": 45, "duration": 220, "velocity": 100}, {"time": 60555, "pitch": 45, "duration": 165, "velocity": 100}, {"time": 60830, "pitch": 38, "duration": 110, "velocity": 100}, {"time": 60940, "pitch": 38, "duration": 110, "velocity": 100}, {"time": 61050, "pitch": 38, "duration": 110, "velocity": 100}, {"time": 61160, "pitch": 38, "duration": 110, "velocity": 100}, {"time": 61270, "pitch": 38, "duration": 110, "velocity": 100}, {"time": 61380, "pitch": 38, "duration": 110, "velocity": 100}, {"time": 61490, "pitch": 38, "duration": 110, "velocity": 100}, {"time": 61600, "pitch": 47, "duration": 220, "velocity": 100}, {"time": 61820, "pitch": 47, "duration": 220, "velocity": 100}, {"time": 62040, "pitch": 47, "duration": 220, "velocity": 100}, {"time": 62260, "pitch": 47, "duration": 220, "velocity": 100}, {"time": 62480, "pitch": 47, "duration": 220, "velocity": 100}, {"time": 62700, "pitch": 47, "duration": 220, "velocity": 100}, {"time": 62920, "pitch": 47, "duration": 220, "velocity": 100}, {"time": 63140, "pitch": 47, "duration": 165, "velocity": 100}, {"time": 63305, "pitch": 40, "duration": 55, "velocity": 100}, {"time": 63580, "pitch": 40, "duration": 220, "velocity": 100}, {"time": 63800, "pitch": 40, "duration": 275, "velocity": 100}, {"time": 64075, "pitch": 40, "duration": 220, "velocity": 100}, {"time": 64295, "pitch": 40, "duration": 220, "velocity": 100}, {"time": 64515, "pitch": 40, "duration": 220, "velocity": 100}, {"time": 64735, "pitch": 40, "duration": 220, "velocity": 100}, {"time": 64955, "pitch": 45, "duration": 165, "velocity": 100}, {"time": 65175, "pitch": 47, "duration": 220, "velocity": 100}, {"time": 65395, "pitch": 47, "duration": 220, "velocity": 100}, {"time": 65615, "pitch": 47, "duration": 220, "velocity": 100}, {"time": 65835, "pitch": 47, "duration": 220, "velocity": 100}, {"time": 66055, "pitch": 47, "duration": 220, "velocity": 100}, {"time": 66275, "pitch": 47, "duration": 220, "velocity": 100}, {"time": 66495, "pitch": 47, "duration": 220, "velocity": 100}, {"time": 66715, "pitch": 47, "duration": 165, "velocity": 100}, {"time": 66880, "pitch": 40, "duration": 220, "velocity": 100}, {"time": 67100, "pitch": 40, "duration": 220, "velocity": 100}, {"time": 67320, "pitch": 40, "duration": 220, "velocity": 100}, {"time": 67540, "pitch": 40, "duration": 220, "velocity": 100}, {"time": 67760, "pitch": 40, "duration": 220, "velocity": 100}, {"time": 67980, "pitch": 40, "duration": 220, "velocity": 100}, {"time": 68200, "pitch": 40, "duration": 220, "velocity": 100}, {"time": 68420, "pitch": 45, "duration": 220, "velocity": 100}, {"time": 68640, "pitch": 39, "duration": 220, "velocity": 100}, {"time": 68860, "pitch": 39, "duration": 220, "velocity": 100}, {"time": 69080, "pitch": 39, "duration": 220, "velocity": 100}, {"time": 69300, "pitch": 39, "duration": 165, "velocity": 100}, {"time": 69465, "pitch": 39, "duration": 275, "velocity": 100}, {"time": 69740, "pitch": 39, "duration": 220, "velocity": 100}, {"time": 69960, "pitch": 39, "duration": 275, "velocity": 100}, {"time": 70235, "pitch": 39, "duration": 165, "velocity": 100}, {"time": 70455, "pitch": 38, "duration": 220, "velocity": 100}, {"time": 70675, "pitch": 38, "duration": 220, "velocity": 100}, {"time": 70895, "pitch": 38, "duration": 220, "velocity": 100}, {"time": 71115, "pitch": 38, "duration": 220, "velocity": 100}, {"time": 71335, "pitch": 40, "duration": 220, "velocity": 100}, {"time": 71555, "pitch": 40, "duration": 220, "velocity": 100}, {"time": 71775, "pitch": 40, "duration": 220, "velocity": 100}, {"time": 71995, "pitch": 40, "duration": 165, "velocity": 100}, {"time": 72215, "pitch": 45, "duration": 220, "velocity": 100}, {"time": 72435, "pitch": 45, "duration": 220, "velocity": 100}, {"time": 72655, "pitch": 45, "duration": 220, "velocity": 100}, {"time": 72875, "pitch": 45, "duration": 165, "velocity": 100}, {"time": 73040, "pitch": 45, "duration": 220, "velocity": 100}, {"time": 73260, "pitch": 45, "duration": 220, "velocity": 100}, {"time": 73480, "pitch": 45, "duration": 220, "velocity": 100}, {"time": 73700, "pitch": 45, "duration": 220, "velocity": 100}, {"time": 73920, "pitch": 38, "duration": 220, "velocity": 100}, {"time": 74140, "pitch": 38, "duration": 220, "velocity": 100}, {"time": 74360, "pitch": 38, "duration": 220, "velocity": 100}, {"time": 74580, "pitch": 38, "duration": 220, "velocity": 100}, {"time": 74855, "pitch": 38, "duration": 110, "velocity": 100}, {"time": 74965, "pitch": 38, "duration": 165, "velocity": 100}, {"time": 75130, "pitch": 38, "duration": 55, "velocity": 100}, {"time": 75185, "pitch": 38, "duration": 165, "velocity": 100}, {"time": 75350, "pitch": 38, "duration": 55, "velocity": 100}, {"time": 75405, "pitch": 38, "duration": 165, "velocity": 100}, {"time": 75570, "pitch": 38, "duration": 55, "velocity": 100}, {"time": 75625, "pitch": 43, "duration": 55, "velocity": 100}, {"time": 75900, "pitch": 43, "duration": 220, "velocity": 100}, {"time": 76120, "pitch": 43, "duration": 275, "velocity": 100}, {"time": 76395, "pitch": 43, "duration": 220, "velocity": 100}, {"time": 76615, "pitch": 43, "duration": 220, "velocity": 100}, {"time": 76835, "pitch": 43, "duration": 220, "velocity": 100}, {"time": 77055, "pitch": 43, "duration": 220, "velocity": 100}, {"time": 77275, "pitch": 43, "duration": 165, "velocity": 100}, {"time": 77495, "pitch": 43, "duration": 220, "velocity": 100}, {"time": 77715, "pitch": 43, "duration": 220, "velocity": 100}, {"time": 77935, "pitch": 43, "duration": 220, "velocity": 100}, {"time": 78155, "pitch": 43, "duration": 220, "velocity": 100}, {"time": 78375, "pitch": 43, "duration": 220, "velocity": 100}, {"time": 78595, "pitch": 45, "duration": 220, "velocity": 100}, {"time": 78815, "pitch": 46, "duration": 220, "velocity": 100}, {"time": 79035, "pitch": 47, "duration": 165, "velocity": 100}, {"time": 79200, "pitch": 48, "duration": 220, "velocity": 100}, {"time": 79420, "pitch": 48, "duration": 220, "velocity": 100}, {"time": 79640, "pitch": 48, "duration": 220, "velocity": 100}, {"time": 79860, "pitch": 48, "duration": 220, "velocity": 100}, {"time": 80080, "pitch": 48, "duration": 220, "velocity": 100}, {"time": 80300, "pitch": 48, "duration": 220, "velocity": 100}, {"time": 80520, "pitch": 48, "duration": 220, "velocity": 100}, {"time": 80740, "pitch": 48, "duration": 110, "velocity": 100}, {"time": 80850, "pitch": 38, "duration": 110, "velocity": 100}, {"time": 80960, "pitch": 39, "duration": 220, "velocity": 100}, {"time": 81180, "pitch": 39, "duration": 220, "velocity": 100}, {"time": 81400, "pitch": 39, "duration": 220, "velocity": 100}, {"time": 81620, "pitch": 39, "duration": 165, "velocity": 100}, {"time": 81785, "pitch": 39, "duration": 275, "velocity": 100}, {"time": 82060, "pitch": 39, "duration": 220, "velocity": 100}, {"time": 82280, "pitch": 39, "duration": 275, "velocity": 100}, {"time": 82555, "pitch": 39, "duration": 165, "velocity": 100}, {"time": 82775, "pitch": 43, "duration": 220, "velocity": 100}, {"time": 82995, "pitch": 43, "duration": 220, "velocity": 100}, {"time": 83215, "pitch": 43, "duration": 220, "velocity": 100}, {"time": 83435, "pitch": 43, "duration": 220, "velocity": 100}, {"time": 83655, "pitch": 43, "duration": 220, "velocity": 100}, {"time": 83875, "pitch": 43, "duration": 220, "velocity": 100}, {"time": 84095, "pitch": 47, "duration": 220, "velocity": 100}, {"time": 84315, "pitch": 47, "duration": 165, "velocity": 100}, {"time": 84535, "pitch": 40, "duration": 220, "velocity": 100}, {"time": 84755, "pitch": 40, "duration": 220, "velocity": 100}, {"time": 84975, "pitch": 40, "duration": 220, "velocity": 100}, {"time": 85195, "pitch": 40, "duration": 165, "velocity": 100}, {"time": 85360, "pitch": 40, "duration": 220, "velocity": 100}, {"time": 85580, "pitch": 40, "duration": 220, "velocity": 100}, {"time": 85800, "pitch": 39, "duration": 220, "velocity": 100}, {"time": 86020, "pitch": 39, "duration": 220, "velocity": 100}, {"time": 86240, "pitch": 38, "duration": 220, "velocity": 100}, {"time": 86460, "pitch": 38, "duration": 220, "velocity": 100}, {"time": 86680, "pitch": 38, "duration": 220, "velocity": 100}, {"time": 86900, "pitch": 38, "duration": 220, "velocity": 100}, {"time": 87120, "pitch": 40, "duration": 220, "velocity": 100}, {"time": 87340, "pitch": 40, "duration": 220, "velocity": 100}, {"time": 87560, "pitch": 40, "duration": 220, "velocity": 100}, {"time": 87780, "pitch": 43, "duration": 165, "velocity": 100}, {"time": 87945, "pitch": 45, "duration": 55, "velocity": 100}, {"time": 88220, "pitch": 45, "duration": 220, "velocity": 100}, {"time": 88440, "pitch": 45, "duration": 275, "velocity": 100}, {"time": 88715, "pitch": 45, "duration": 220, "velocity": 100}, {"time": 88935, "pitch": 38, "duration": 220, "velocity": 100}, {"time": 89155, "pitch": 38, "duration": 605, "velocity": 100}, {"time": 90750, "pitch": 38, "duration": 110, "velocity": 100}, {"time": 90860, "pitch": 38, "duration": 165, "velocity": 100}, {"time": 91025, "pitch": 38, "duration": 55, "velocity": 100}, {"time": 91080, "pitch": 38, "duration": 165, "velocity": 100}, {"time": 91245, "pitch": 38, "duration": 55, "velocity": 100}, {"time": 91300, "pitch": 38, "duration": 165, "velocity": 100}, {"time": 91465, "pitch": 38, "duration": 55, "velocity": 100}, {"time": 91520, "pitch": 43, "duration": 220, "velocity": 100}, {"time": 91740, "pitch": 43, "duration": 220, "velocity": 100}, {"time": 91960, "pitch": 43, "duration": 220, "velocity": 100}, {"time": 92180, "pitch": 43, "duration": 220, "velocity": 100}, {"time": 92400, "pitch": 40, "duration": 220, "velocity": 100}, {"time": 92620, "pitch": 40, "duration": 220, "velocity": 100}, {"time": 92840, "pitch": 40, "duration": 220, "velocity": 100}, {"time": 93060, "pitch": 40, "duration": 220, "velocity": 100}, {"time": 93280, "pitch": 45, "duration": 220, "velocity": 100}, {"time": 93500, "pitch": 45, "duration": 220, "velocity": 100}, {"time": 93720, "pitch": 45, "duration": 220, "velocity": 100}, {"time": 93940, "pitch": 45, "duration": 165, "velocity": 100}, {"time": 94215, "pitch": 38, "duration": 110, "velocity": 100}, {"time": 94325, "pitch": 38, "duration": 165, "velocity": 100}, {"time": 94490, "pitch": 38, "duration": 110, "velocity": 100}, {"time": 94600, "pitch": 38, "duration": 165, "velocity": 100}, {"time": 94765, "pitch": 38, "duration": 55, "velocity": 100}, {"time": 94820, "pitch": 38, "duration": 165, "velocity": 100}, {"time": 94985, "pitch": 38, "duration": 55, "velocity": 100}, {"time": 95095, "pitch": 43, "duration": 220, "velocity": 100}, {"time": 95315, "pitch": 43, "duration": 220, "velocity": 100}, {"time": 95535, "pitch": 43, "duration": 220, "velocity": 100}, {"time": 95755, "pitch": 43, "duration": 220, "velocity": 100}, {"time": 95975, "pitch": 40, "duration": 220, "velocity": 100}, {"time": 96195, "pitch": 40, "duration": 220, "velocity": 100}, {"time": 96415, "pitch": 40, "duration": 220, "velocity": 100}, {"time": 96635, "pitch": 40, "duration": 165, "velocity": 100}, {"time": 96855, "pitch": 45, "duration": 220, "velocity": 100}, {"time": 97075, "pitch": 45, "duration": 220, "velocity": 100}, {"time": 97295, "pitch": 45, "duration": 220, "velocity": 100}, {"time": 97515, "pitch": 45, "duration": 165, "velocity": 100}, {"time": 97790, "pitch": 38, "duration": 110, "velocity": 100}, {"time": 97900, "pitch": 38, "duration": 110, "velocity": 100}, {"time": 98010, "pitch": 38, "duration": 110, "velocity": 100}, {"time": 98120, "pitch": 38, "duration": 110, "velocity": 100}, {"time": 98230, "pitch": 38, "duration": 110, "velocity": 100}, {"time": 98340, "pitch": 38, "duration": 110, "velocity": 100}, {"time": 98450, "pitch": 38, "duration": 110, "velocity": 100}, {"time": 98560, "pitch": 43, "duration": 220, "velocity": 100}, {"time": 98780, "pitch": 43, "duration": 220, "velocity": 100}, {"time": 99000, "pitch": 43, "duration": 220, "velocity": 100}, {"time": 99220, "pitch": 43, "duration": 220, "velocity": 100}, {"time": 99440, "pitch": 40, "duration": 220, "velocity": 100}, {"time": 99660, "pitch": 40, "duration": 220, "velocity": 100}, {"time": 99880, "pitch": 40, "duration": 220, "velocity": 100}, {"time": 100100, "pitch": 40, "duration": 165, "velocity": 100}, {"time": 100265, "pitch": 45, "duration": 55, "velocity": 100}, {"time": 100540, "pitch": 45, "duration": 220, "velocity": 100}, {"time": 100760, "pitch": 45, "duration": 275, "velocity": 100}, {"time": 101035, "pitch": 45, "duration": 220, "velocity": 100}, {"time": 101365, "pitch": 38, "duration": 110, "velocity": 100}, {"time": 101475, "pitch": 38, "duration": 110, "velocity": 100}, {"time": 101585, "pitch": 38, "duration": 110, "velocity": 100}, {"time": 101695, "pitch": 38, "duration": 110, "velocity": 100}, {"time": 101805, "pitch": 38, "duration": 110, "velocity": 100}, {"time": 101915, "pitch": 38, "duration": 110, "velocity": 100}, {"time": 102025, "pitch": 38, "duration": 55, "velocity": 100}, {"time": 102135, "pitch": 43, "duration": 220, "velocity": 100}, {"time": 102355, "pitch": 43, "duration": 220, "velocity": 100}, {"time": 102575, "pitch": 43, "duration": 220, "velocity": 100}, {"time": 102795, "pitch": 43, "duration": 220, "velocity": 100}, {"time": 103015, "pitch": 40, "duration": 220, "velocity": 100}, {"time": 103235, "pitch": 40, "duration": 220, "velocity": 100}, {"time": 103455, "pitch": 40, "duration": 220, "velocity": 100}, {"time": 103675, "pitch": 40, "duration": 165, "velocity": 100}, {"time": 103840, "pitch": 45, "duration": 220, "velocity": 100}, {"time": 104060, "pitch": 45, "duration": 220, "velocity": 100}, {"time": 104280, "pitch": 45, "duration": 220, "velocity": 100}, {"time": 104500, "pitch": 45, "duration": 220, "velocity": 100}, {"time": 104830, "pitch": 38, "duration": 55, "velocity": 100}, {"time": 104885, "pitch": 38, "duration": 165, "velocity": 100}, {"time": 105050, "pitch": 38, "duration": 55, "velocity": 100}, {"time": 105105, "pitch": 38, "duration": 165, "velocity": 100}, {"time": 105270, "pitch": 38, "duration": 55, "velocity": 100}, {"time": 105325, "pitch": 38, "duration": 165, "velocity": 100}, {"time": 105490, "pitch": 38, "duration": 110, "velocity": 100}, {"time": 105600, "pitch": 43, "duration": 220, "velocity": 100}, {"time": 105820, "pitch": 43, "duration": 220, "velocity": 100}, {"time": 106040, "pitch": 43, "duration": 220, "velocity": 100}, {"time": 106260, "pitch": 43, "duration": 165, "velocity": 100}, {"time": 106425, "pitch": 40, "duration": 275, "velocity": 100}, {"time": 106700, "pitch": 40, "duration": 220, "velocity": 100}, {"time": 106920, "pitch": 40, "duration": 275, "velocity": 100}, {"time": 107195, "pitch": 40, "duration": 165, "velocity": 100}, {"time": 107415, "pitch": 45, "duration": 220, "velocity": 100}, {"time": 107635, "pitch": 45, "duration": 220, "velocity": 100}, {"time": 107855, "pitch": 45, "duration": 220, "velocity": 100}, {"time": 108075, "pitch": 45, "duration": 220, "velocity": 100}, {"time": 108405, "pitch": 38, "duration": 55, "velocity": 100}, {"time": 108460, "pitch": 38, "duration": 165, "velocity": 100}, {"time": 108625, "pitch": 38, "duration": 55, "velocity": 100}, {"time": 108680, "pitch": 38, "duration": 165, "velocity": 100}, {"time": 108845, "pitch": 38, "duration": 55, "velocity": 100}, {"time": 108900, "pitch": 38, "duration": 165, "velocity": 100}, {"time": 109065, "pitch": 38, "duration": 55, "velocity": 100}, {"time": 109175, "pitch": 43, "duration": 220, "velocity": 100}, {"time": 109395, "pitch": 43, "duration": 220, "velocity": 100}, {"time": 109615, "pitch": 43, "duration": 220, "velocity": 100}, {"time": 109835, "pitch": 43, "duration": 165, "velocity": 100}, {"time": 110000, "pitch": 40, "duration": 220, "velocity": 100}, {"time": 110220, "pitch": 40, "duration": 220, "velocity": 100}, {"time": 110440, "pitch": 40, "duration": 220, "velocity": 100}, {"time": 110660, "pitch": 40, "duration": 220, "velocity": 100}, {"time": 110880, "pitch": 45, "duration": 220, "velocity": 100}, {"time": 111100, "pitch": 45, "duration": 220, "velocity": 100}, {"time": 111320, "pitch": 45, "duration": 220, "velocity": 100}, {"time": 111540, "pitch": 45, "duration": 220, "velocity": 100}, {"time": 111815, "pitch": 38, "duration": 110, "velocity": 100}, {"time": 111925, "pitch": 38, "duration": 165, "velocity": 100}, {"time": 112090, "pitch": 38, "duration": 55, "velocity": 100}, {"time": 112145, "pitch": 38, "duration": 165, "velocity": 100}, {"time": 112310, "pitch": 38, "duration": 55, "velocity": 100}, {"time": 112365, "pitch": 38, "duration": 165, "velocity": 100}, {"time": 112530, "pitch": 38, "duration": 55, "velocity": 100}, {"time": 112585, "pitch": 43, "duration": 55, "velocity": 100}, {"time": 112860, "pitch": 43, "duration": 220, "velocity": 100}, {"time": 113080, "pitch": 43, "duration": 275, "velocity": 100}, {"time": 113355, "pitch": 43, "duration": 220, "velocity": 100}, {"time": 113575, "pitch": 40, "duration": 220, "velocity": 100}, {"time": 113795, "pitch": 40, "duration": 220, "velocity": 100}, {"time": 114015, "pitch": 40, "duration": 220, "velocity": 100}, {"time": 114235, "pitch": 40, "duration": 165, "velocity": 100}, {"time": 114455, "pitch": 45, "duration": 220, "velocity": 100}, {"time": 114675, "pitch": 45, "duration": 220, "velocity": 100}, {"time": 114895, "pitch": 45, "duration": 220, "velocity": 100}, {"time": 115115, "pitch": 45, "duration": 220, "velocity": 100}, {"time": 115390, "pitch": 38, "duration": 110, "velocity": 100}, {"time": 115500, "pitch": 38, "duration": 165, "velocity": 100}, {"time": 115665, "pitch": 38, "duration": 55, "velocity": 100}, {"time": 115720, "pitch": 38, "duration": 165, "velocity": 100}, {"time": 115885, "pitch": 38, "duration": 55, "velocity": 100}, {"time": 115940, "pitch": 38, "duration": 165, "velocity": 100}, {"time": 116105, "pitch": 38, "duration": 55, "velocity": 100}, {"time": 0, "pitch": 47, "duration": 275, "velocity": 100}, {"time": 0, "pitch": 55, "duration": 110, "velocity": 100}, {"time": 0, "pitch": 62, "duration": 110, "velocity": 100}, {"time": 110, "pitch": 52, "duration": 110, "velocity": 100}, {"time": 220, "pitch": 55, "duration": 55, "velocity": 100}, {"time": 220, "pitch": 59, "duration": 55, "velocity": 100}, {"time": 220, "pitch": 62, "duration": 55, "velocity": 100}, {"time": 275, "pitch": 47, "duration": 55, "velocity": 100}, {"time": 275, "pitch": 65, "duration": 55, "velocity": 100}, {"time": 330, "pitch": 55, "duration": 55, "velocity": 100}, {"time": 330, "pitch": 62, "duration": 55, "velocity": 100}, {"time": 385, "pitch": 59, "duration": 55, "velocity": 100}, {"time": 440, "pitch": 47, "duration": 275, "velocity": 100}, {"time": 440, "pitch": 55, "duration": 55, "velocity": 100}, {"time": 440, "pitch": 59, "duration": 220, "velocity": 100}, {"time": 550, "pitch": 54, "duration": 55, "velocity": 100}, {"time": 660, "pitch": 57, "duration": 110, "velocity": 100}, {"time": 660, "pitch": 62, "duration": 220, "velocity": 100}, {"time": 770, "pitch": 59, "duration": 110, "velocity": 100}, {"time": 880, "pitch": 45, "duration": 385, "velocity": 100}, {"time": 880, "pitch": 55, "duration": 165, "velocity": 100}, {"time": 880, "pitch": 60, "duration": 220, "velocity": 100}, {"time": 990, "pitch": 50, "duration": 165, "velocity": 100}, {"time": 1100, "pitch": 59, "duration": 110, "velocity": 100}, {"time": 1100, "pitch": 62, "duration": 165, "velocity": 100}, {"time": 1155, "pitch": 65, "duration": 55, "velocity": 100}, {"time": 1210, "pitch": 52, "duration": 55, "velocity": 100}, {"time": 1210, "pitch": 62, "duration": 55, "velocity": 100}, {"time": 1265, "pitch": 55, "duration": 55, "velocity": 100}, {"time": 1265, "pitch": 59, "duration": 55, "velocity": 100}, {"time": 1320, "pitch": 47, "duration": 220, "velocity": 100}, {"time": 1320, "pitch": 57, "duration": 55, "velocity": 100}, {"time": 1320, "pitch": 59, "duration": 220, "velocity": 100}, {"time": 1430, "pitch": 55, "duration": 55, "velocity": 100}, {"time": 1540, "pitch": 59, "duration": 110, "velocity": 100}, {"time": 1540, "pitch": 62, "duration": 220, "velocity": 100}, {"time": 1650, "pitch": 55, "duration": 110, "velocity": 100}, {"time": 1650, "pitch": 60, "duration": 110, "velocity": 100}, {"time": 1760, "pitch": 43, "duration": 385, "velocity": 100}, {"time": 1760, "pitch": 55, "duration": 165, "velocity": 100}, {"time": 1760, "pitch": 59, "duration": 220, "velocity": 100}, {"time": 1870, "pitch": 50, "duration": 110, "velocity": 100}, {"time": 1980, "pitch": 55, "duration": 55, "velocity": 100}, {"time": 1980, "pitch": 59, "duration": 55, "velocity": 100}, {"time": 1980, "pitch": 62, "duration": 55, "velocity": 100}, {"time": 2035, "pitch": 50, "duration": 55, "velocity": 100}, {"time": 2035, "pitch": 66, "duration": 55, "velocity": 100}, {"time": 2090, "pitch": 57, "duration": 55, "velocity": 100}, {"time": 2090, "pitch": 62, "duration": 55, "velocity": 100}, {"time": 2145, "pitch": 59, "duration": 55, "velocity": 100}, {"time": 2145, "pitch": 62, "duration": 55, "velocity": 100}, {"time": 2200, "pitch": 43, "duration": 275, "velocity": 100}, {"time": 2200, "pitch": 55, "duration": 165, "velocity": 100}, {"time": 2200, "pitch": 59, "duration": 440, "velocity": 100}, {"time": 2420, "pitch": 55, "duration": 55, "velocity": 100}, {"time": 2420, "pitch": 62, "duration": 220, "velocity": 100}, {"time": 2530, "pitch": 55, "duration": 110, "velocity": 100}, {"time": 2530, "pitch": 59, "duration": 110, "velocity": 100}, {"time": 2640, "pitch": 43, "duration": 385, "velocity": 100}, {"time": 2640, "pitch": 55, "duration": 165, "velocity": 100}, {"time": 2640, "pitch": 59, "duration": 220, "velocity": 100}, {"time": 2750, "pitch": 50, "duration": 275, "velocity": 100}, {"time": 2860, "pitch": 55, "duration": 55, "velocity": 100}, {"time": 2860, "pitch": 59, "duration": 110, "velocity": 100}, {"time": 2860, "pitch": 62, "duration": 110, "velocity": 100}, {"time": 2860, "pitch": 71, "duration": 55, "velocity": 100}, {"time": 2915, "pitch": 71, "duration": 55, "velocity": 100}, {"time": 2970, "pitch": 55, "duration": 55, "velocity": 100}, {"time": 3025, "pitch": 74, "duration": 55, "velocity": 100}, {"time": 3080, "pitch": 43, "duration": 385, "velocity": 100}, {"time": 3080, "pitch": 55, "duration": 165, "velocity": 100}, {"time": 3080, "pitch": 59, "duration": 220, "velocity": 100}, {"time": 3080, "pitch": 74, "duration": 220, "velocity": 100}, {"time": 3190, "pitch": 55, "duration": 55, "velocity": 100}, {"time": 3245, "pitch": 74, "duration": 165, "velocity": 100}, {"time": 3300, "pitch": 55, "duration": 55, "velocity": 100}, {"time": 3300, "pitch": 59, "duration": 110, "velocity": 100}, {"time": 3355, "pitch": 71, "duration": 55, "velocity": 100}, {"time": 3410, "pitch": 62, "duration": 110, "velocity": 100}, {"time": 3520, "pitch": 47, "duration": 275, "velocity": 100}, {"time": 3520, "pitch": 59, "duration": 110, "velocity": 100}, {"time": 3520, "pitch": 67, "duration": 110, "velocity": 100}, {"time": 3630, "pitch": 55, "duration": 110, "velocity": 100}, {"time": 3740, "pitch": 59, "duration": 55, "velocity": 100}, {"time": 3740, "pitch": 62, "duration": 55, "velocity": 100}, {"time": 3740, "pitch": 67, "duration": 110, "velocity": 100}, {"time": 3740, "pitch": 71, "duration": 110, "velocity": 100}, {"time": 3795, "pitch": 55, "duration": 55, "velocity": 100}, {"time": 3850, "pitch": 60, "duration": 55, "velocity": 100}, {"time": 3850, "pitch": 67, "duration": 110, "velocity": 100}, {"time": 3960, "pitch": 48, "duration": 330, "velocity": 100}, {"time": 3960, "pitch": 60, "duration": 55, "velocity": 100}, {"time": 3960, "pitch": 64, "duration": 110, "velocity": 100}, {"time": 3960, "pitch": 67, "duration": 165, "velocity": 100}, {"time": 4070, "pitch": 60, "duration": 55, "velocity": 100}, {"time": 4180, "pitch": 60, "duration": 55, "velocity": 100}, {"time": 4180, "pitch": 67, "duration": 55, "velocity": 100}, {"time": 4235, "pitch": 69, "duration": 55, "velocity": 100}, {"time": 4290, "pitch": 62, "duration": 55, "velocity": 100}, {"time": 4290, "pitch": 67, "duration": 110, "velocity": 100}, {"time": 4345, "pitch": 64, "duration": 55, "velocity": 100}, {"time": 4400, "pitch": 48, "duration": 275, "velocity": 100}, {"time": 4400, "pitch": 60, "duration": 165, "velocity": 100}, {"time": 4400, "pitch": 64, "duration": 165, "velocity": 100}, {"time": 4510, "pitch": 55, "duration": 165, "velocity": 100}, {"time": 4620, "pitch": 64, "duration": 165, "velocity": 100}, {"time": 4620, "pitch": 67, "duration": 220, "velocity": 100}, {"time": 4620, "pitch": 72, "duration": 220, "velocity": 100}, {"time": 4730, "pitch": 55, "duration": 55, "velocity": 100}, {"time": 4785, "pitch": 60, "duration": 55, "velocity": 100}, {"time": 4840, "pitch": 48, "duration": 275, "velocity": 100}, {"time": 4840, "pitch": 60, "duration": 165, "velocity": 100}, {"time": 4840, "pitch": 64, "duration": 220, "velocity": 100}, {"time": 4840, "pitch": 67, "duration": 330, "velocity": 100}, {"time": 4950, "pitch": 60, "duration": 55, "velocity": 100}, {"time": 5060, "pitch": 64, "duration": 55, "velocity": 100}, {"time": 5060, "pitch": 67, "duration": 220, "velocity": 100}, {"time": 5170, "pitch": 60, "duration": 55, "velocity": 100}, {"time": 5170, "pitch": 64, "duration": 110, "velocity": 100}, {"time": 5170, "pitch": 67, "duration": 110, "velocity": 100}, {"time": 5280, "pitch": 48, "duration": 385, "velocity": 100}, {"time": 5280, "pitch": 60, "duration": 110, "velocity": 100}, {"time": 5280, "pitch": 64, "duration": 110, "velocity": 100}, {"time": 5280, "pitch": 72, "duration": 330, "velocity": 100}, {"time": 5390, "pitch": 55, "duration": 110, "velocity": 100}, {"time": 5500, "pitch": 60, "duration": 55, "velocity": 100}, {"time": 5500, "pitch": 64, "duration": 55, "velocity": 100}, {"time": 5500, "pitch": 67, "duration": 55, "velocity": 100}, {"time": 5555, "pitch": 55, "duration": 55, "velocity": 100}, {"time": 5555, "pitch": 60, "duration": 55, "velocity": 100}, {"time": 5610, "pitch": 62, "duration": 55, "velocity": 100}, {"time": 5610, "pitch": 67, "duration": 55, "velocity": 100}, {"time": 5665, "pitch": 60, "duration": 55, "velocity": 100}, {"time": 5665, "pitch": 69, "duration": 55, "velocity": 100}, {"time": 5720, "pitch": 48, "duration": 275, "velocity": 100}, {"time": 5720, "pitch": 60, "duration": 165, "velocity": 100}, {"time": 5720, "pitch": 64, "duration": 165, "velocity": 100}, {"time": 5720, "pitch": 67, "duration": 220, "velocity": 100}, {"time": 5940, "pitch": 60, "duration": 55, "velocity": 100}, {"time": 5940, "pitch": 67, "duration": 220, "velocity": 100}, {"time": 6050, "pitch": 60, "duration": 110, "velocity": 100}, {"time": 6050, "pitch": 64, "duration": 55, "velocity": 100}, {"time": 6160, "pitch": 48, "duration": 385, "velocity": 100}, {"time": 6160, "pitch": 60, "duration": 110, "velocity": 100}, {"time": 6160, "pitch": 64, "duration": 55, "velocity": 100}, {"time": 6160, "pitch": 76, "duration": 55, "velocity": 100}, {"time": 6270, "pitch": 55, "duration": 275, "velocity": 100}, {"time": 6325, "pitch": 76, "duration": 55, "velocity": 100}, {"time": 6380, "pitch": 60, "duration": 55, "velocity": 100}, {"time": 6380, "pitch": 64, "duration": 110, "velocity": 100}, {"time": 6380, "pitch": 67, "duration": 110, "velocity": 100}, {"time": 6435, "pitch": 76, "duration": 165, "velocity": 100}, {"time": 6490, "pitch": 60, "duration": 55, "velocity": 100}, {"time": 6600, "pitch": 48, "duration": 385, "velocity": 100}, {"time": 6600, "pitch": 60, "duration": 110, "velocity": 100}, {"time": 6600, "pitch": 64, "duration": 165, "velocity": 100}, {"time": 6600, "pitch": 67, "duration": 165, "velocity": 100}, {"time": 6600, "pitch": 72, "duration": 385, "velocity": 100}, {"time": 6710, "pitch": 55, "duration": 110, "velocity": 100}, {"time": 6765, "pitch": 60, "duration": 55, "velocity": 100}, {"time": 6820, "pitch": 60, "duration": 55, "velocity": 100}, {"time": 6820, "pitch": 67, "duration": 110, "velocity": 100}, {"time": 6875, "pitch": 48, "duration": 165, "velocity": 100}, {"time": 6930, "pitch": 60, "duration": 110, "velocity": 100}, {"time": 6985, "pitch": 64, "duration": 55, "velocity": 100}, {"time": 7040, "pitch": 42, "duration": 385, "velocity": 100}, {"time": 7150, "pitch": 50, "duration": 275, "velocity": 100}, {"time": 7260, "pitch": 57, "duration": 55, "velocity": 100}, {"time": 7260, "pitch": 62, "duration": 220, "velocity": 100}, {"time": 7260, "pitch": 69, "duration": 220, "velocity": 100}, {"time": 7480, "pitch": 38, "duration": 275, "velocity": 100}, {"time": 7480, "pitch": 50, "duration": 110, "velocity": 100}, {"time": 7480, "pitch": 57, "duration": 110, "velocity": 100}, {"time": 7590, "pitch": 45, "duration": 110, "velocity": 100}, {"time": 7700, "pitch": 50, "duration": 55, "velocity": 100}, {"time": 7700, "pitch": 54, "duration": 55, "velocity": 100}, {"time": 7700, "pitch": 57, "duration": 55, "velocity": 100}, {"time": 7755, "pitch": 52, "duration": 55, "velocity": 100}, {"time": 7810, "pitch": 50, "duration": 55, "velocity": 100}, {"time": 7810, "pitch": 57, "duration": 55, "velocity": 100}, {"time": 7865, "pitch": 52, "duration": 55, "velocity": 100}, {"time": 7865, "pitch": 57, "duration": 55, "velocity": 100}, {"time": 7920, "pitch": 38, "duration": 275, "velocity": 100}, {"time": 7920, "pitch": 50, "duration": 55, "velocity": 100}, {"time": 7920, "pitch": 54, "duration": 220, "velocity": 100}, {"time": 8030, "pitch": 50, "duration": 55, "velocity": 100}, {"time": 8140, "pitch": 50, "duration": 110, "velocity": 100}, {"time": 8140, "pitch": 57, "duration": 220, "velocity": 100}, {"time": 8250, "pitch": 54, "duration": 165, "velocity": 100}, {"time": 8360, "pitch": 38, "duration": 330, "velocity": 100}, {"time": 8360, "pitch": 50, "duration": 165, "velocity": 100}, {"time": 8360, "pitch": 54, "duration": 220, "velocity": 100}, {"time": 8470, "pitch": 45, "duration": 165, "velocity": 100}, {"time": 8580, "pitch": 54, "duration": 110, "velocity": 100}, {"time": 8580, "pitch": 57, "duration": 165, "velocity": 100}, {"time": 8690, "pitch": 50, "duration": 110, "velocity": 100}, {"time": 8690, "pitch": 57, "duration": 110, "velocity": 100}, {"time": 8745, "pitch": 52, "duration": 55, "velocity": 100}, {"time": 8745, "pitch": 55, "duration": 55, "velocity": 100}, {"time": 8800, "pitch": 45, "duration": 275, "velocity": 100}, {"time": 8800, "pitch": 50, "duration": 165, "velocity": 100}, {"time": 8800, "pitch": 54, "duration": 220, "velocity": 100}, {"time": 8910, "pitch": 52, "duration": 55, "velocity": 100}, {"time": 9020, "pitch": 54, "duration": 110, "velocity": 100}, {"time": 9020, "pitch": 57, "duration": 220, "velocity": 100}, {"time": 9130, "pitch": 52, "duration": 110, "velocity": 100}, {"time": 9130, "pitch": 55, "duration": 110, "velocity": 100}, {"time": 9240, "pitch": 38, "duration": 385, "velocity": 100}, {"time": 9240, "pitch": 50, "duration": 220, "velocity": 100}, {"time": 9240, "pitch": 54, "duration": 220, "velocity": 100}, {"time": 9350, "pitch": 45, "duration": 110, "velocity": 100}, {"time": 9460, "pitch": 50, "duration": 55, "velocity": 100}, {"time": 9460, "pitch": 54, "duration": 110, "velocity": 100}, {"time": 9515, "pitch": 45, "duration": 55, "velocity": 100}, {"time": 9515, "pitch": 59, "duration": 55, "velocity": 100}, {"time": 9570, "pitch": 52, "duration": 55, "velocity": 100}, {"time": 9570, "pitch": 55, "duration": 55, "velocity": 100}, {"time": 9625, "pitch": 52, "duration": 55, "velocity": 100}, {"time": 9625, "pitch": 57, "duration": 55, "velocity": 100}, {"time": 9680, "pitch": 38, "duration": 385, "velocity": 100}, {"time": 9680, "pitch": 50, "duration": 220, "velocity": 100}, {"time": 9680, "pitch": 54, "duration": 220, "velocity": 100}, {"time": 9900, "pitch": 50, "duration": 55, "velocity": 100}, {"time": 9900, "pitch": 57, "duration": 220, "velocity": 100}, {"time": 10010, "pitch": 50, "duration": 110, "velocity": 100}, {"time": 10010, "pitch": 54, "duration": 110, "velocity": 100}, {"time": 10120, "pitch": 38, "duration": 385, "velocity": 100}, {"time": 10120, "pitch": 50, "duration": 220, "velocity": 100}, {"time": 10120, "pitch": 54, "duration": 220, "velocity": 100}, {"time": 10230, "pitch": 45, "duration": 275, "velocity": 100}, {"time": 10340, "pitch": 50, "duration": 55, "velocity": 100}, {"time": 10340, "pitch": 54, "duration": 110, "velocity": 100}, {"time": 10340, "pitch": 57, "duration": 110, "velocity": 100}, {"time": 10340, "pitch": 66, "duration": 55, "velocity": 100}, {"time": 10395, "pitch": 67, "duration": 55, "velocity": 100}, {"time": 10450, "pitch": 50, "duration": 55, "velocity": 100}, {"time": 10505, "pitch": 71, "duration": 55, "velocity": 100}, {"time": 10560, "pitch": 38, "duration": 385, "velocity": 100}, {"time": 10560, "pitch": 50, "duration": 55, "velocity": 100}, {"time": 10560, "pitch": 54, "duration": 110, "velocity": 100}, {"time": 10560, "pitch": 69, "duration": 55, "velocity": 100}, {"time": 10670, "pitch": 50, "duration": 55, "velocity": 100}, {"time": 10725, "pitch": 69, "duration": 55, "velocity": 100}, {"time": 10780, "pitch": 50, "duration": 55, "velocity": 100}, {"time": 10780, "pitch": 54, "duration": 55, "velocity": 100}, {"time": 10835, "pitch": 64, "duration": 55, "velocity": 100}, {"time": 10890, "pitch": 57, "duration": 110, "velocity": 100}, {"time": 11000, "pitch": 38, "duration": 275, "velocity": 100}, {"time": 11000, "pitch": 50, "duration": 110, "velocity": 100}, {"time": 11000, "pitch": 54, "duration": 110, "velocity": 100}, {"time": 11110, "pitch": 45, "duration": 110, "velocity": 100}, {"time": 11220, "pitch": 50, "duration": 55, "velocity": 100}, {"time": 11220, "pitch": 54, "duration": 55, "velocity": 100}, {"time": 11220, "pitch": 57, "duration": 110, "velocity": 100}, {"time": 11220, "pitch": 62, "duration": 110, "velocity": 100}, {"time": 11275, "pitch": 45, "duration": 55, "velocity": 100}, {"time": 11330, "pitch": 50, "duration": 55, "velocity": 100}, {"time": 11330, "pitch": 57, "duration": 110, "velocity": 100}, {"time": 11440, "pitch": 38, "duration": 330, "velocity": 100}, {"time": 11440, "pitch": 50, "duration": 55, "velocity": 100}, {"time": 11440, "pitch": 54, "duration": 110, "velocity": 100}, {"time": 11440, "pitch": 57, "duration": 165, "velocity": 100}, {"time": 11550, "pitch": 50, "duration": 55, "velocity": 100}, {"time": 11660, "pitch": 50, "duration": 55, "velocity": 100}, {"time": 11660, "pitch": 57, "duration": 55, "velocity": 100}, {"time": 11770, "pitch": 54, "duration": 55, "velocity": 100}, {"time": 11770, "pitch": 59, "duration": 55, "velocity": 100}, {"time": 11825, "pitch": 54, "duration": 55, "velocity": 100}, {"time": 11880, "pitch": 38, "duration": 330, "velocity": 100}, {"time": 11880, "pitch": 50, "duration": 165, "velocity": 100}, {"time": 11880, "pitch": 54, "duration": 220, "velocity": 100}, {"time": 11990, "pitch": 45, "duration": 165, "velocity": 100}, {"time": 12100, "pitch": 50, "duration": 55, "velocity": 100}, {"time": 12100, "pitch": 57, "duration": 220, "velocity": 100}, {"time": 12100, "pitch": 62, "duration": 220, "velocity": 100}, {"time": 12210, "pitch": 45, "duration": 55, "velocity": 100}, {"time": 12265, "pitch": 50, "duration": 55, "velocity": 100}, {"time": 12320, "pitch": 50, "duration": 55, "velocity": 100}, {"time": 12320, "pitch": 54, "duration": 220, "velocity": 100}, {"time": 12320, "pitch": 57, "duration": 275, "velocity": 100}, {"time": 12430, "pitch": 50, "duration": 55, "velocity": 100}, {"time": 12540, "pitch": 54, "duration": 110, "velocity": 100}, {"time": 12540, "pitch": 57, "duration": 220, "velocity": 100}, {"time": 12650, "pitch": 50, "duration": 110, "velocity": 100}, {"time": 12650, "pitch": 54, "duration": 110, "velocity": 100}, {"time": 12650, "pitch": 57, "duration": 110, "velocity": 100}, {"time": 12760, "pitch": 38, "duration": 440, "velocity": 100}, {"time": 12760, "pitch": 50, "duration": 110, "velocity": 100}, {"time": 12760, "pitch": 54, "duration": 110, "velocity": 100}, {"time": 12760, "pitch": 62, "duration": 165, "velocity": 100}, {"time": 12870, "pitch": 45, "duration": 110, "velocity": 100}, {"time": 12980, "pitch": 50, "duration": 55, "velocity": 100}, {"time": 12980, "pitch": 54, "duration": 55, "velocity": 100}, {"time": 12980, "pitch": 57, "duration": 55, "velocity": 100}, {"time": 13035, "pitch": 45, "duration": 55, "velocity": 100}, {"time": 13035, "pitch": 59, "duration": 55, "velocity": 100}, {"time": 13090, "pitch": 50, "duration": 55, "velocity": 100}, {"time": 13090, "pitch": 57, "duration": 110, "velocity": 100}, {"time": 13145, "pitch": 54, "duration": 55, "velocity": 100}, {"time": 13145, "pitch": 62, "duration": 55, "velocity": 100}, {"time": 13200, "pitch": 38, "duration": 330, "velocity": 100}, {"time": 13200, "pitch": 50, "duration": 55, "velocity": 100}, {"time": 13200, "pitch": 54, "duration": 165, "velocity": 100}, {"time": 13200, "pitch": 57, "duration": 220, "velocity": 100}, {"time": 13420, "pitch": 54, "duration": 110, "velocity": 100}, {"time": 13420, "pitch": 57, "duration": 110, "velocity": 100}, {"time": 13530, "pitch": 50, "duration": 110, "velocity": 100}, {"time": 13640, "pitch": 38, "duration": 385, "velocity": 100}, {"time": 13640, "pitch": 50, "duration": 165, "velocity": 100}, {"time": 13640, "pitch": 54, "duration": 165, "velocity": 100}, {"time": 13640, "pitch": 66, "duration": 110, "velocity": 100}, {"time": 13750, "pitch": 45, "duration": 220, "velocity": 100}, {"time": 13805, "pitch": 69, "duration": 55, "velocity": 100}, {"time": 13860, "pitch": 50, "duration": 110, "velocity": 100}, {"time": 13860, "pitch": 54, "duration": 110, "velocity": 100}, {"time": 13860, "pitch": 57, "duration": 110, "velocity": 100}, {"time": 13915, "pitch": 66, "duration": 165, "velocity": 100}, {"time": 13970, "pitch": 50, "duration": 55, "velocity": 100}, {"time": 14080, "pitch": 43, "duration": 110, "velocity": 100}, {"time": 14080, "pitch": 55, "duration": 55, "velocity": 100}, {"time": 14080, "pitch": 59, "duration": 110, "velocity": 100}, {"time": 14080, "pitch": 62, "duration": 220, "velocity": 100}, {"time": 14135, "pitch": 50, "duration": 55, "velocity": 100}, {"time": 14190, "pitch": 55, "duration": 55, "velocity": 100}, {"time": 14245, "pitch": 59, "duration": 55, "velocity": 100}, {"time": 14300, "pitch": 43, "duration": 220, "velocity": 100}, {"time": 14300, "pitch": 55, "duration": 55, "velocity": 100}, {"time": 14300, "pitch": 62, "duration": 165, "velocity": 100}, {"time": 14300, "pitch": 64, "duration": 220, "velocity": 100}, {"time": 14355, "pitch": 50, "duration": 165, "velocity": 100}, {"time": 14410, "pitch": 59, "duration": 110, "velocity": 100}, {"time": 14465, "pitch": 62, "duration": 55, "velocity": 100}, {"time": 14520, "pitch": 43, "duration": 275, "velocity": 100}, {"time": 14520, "pitch": 50, "duration": 110, "velocity": 100}, {"time": 14520, "pitch": 59, "duration": 110, "velocity": 100}, {"time": 14520, "pitch": 62, "duration": 275, "velocity": 100}, {"time": 14520, "pitch": 67, "duration": 275, "velocity": 100}, {"time": 14630, "pitch": 47, "duration": 110, "velocity": 100}, {"time": 14685, "pitch": 50, "duration": 55, "velocity": 100}, {"time": 14740, "pitch": 50, "duration": 55, "velocity": 100}, {"time": 14740, "pitch": 55, "duration": 55, "velocity": 100}, {"time": 14740, "pitch": 59, "duration": 55, "velocity": 100}, {"time": 14795, "pitch": 43, "duration": 55, "velocity": 100}, {"time": 14850, "pitch": 50, "duration": 55, "velocity": 100}, {"time": 14960, "pitch": 43, "duration": 385, "velocity": 100}, {"time": 14960, "pitch": 50, "duration": 55, "velocity": 100}, {"time": 14960, "pitch": 55, "duration": 165, "velocity": 100}, {"time": 14960, "pitch": 59, "duration": 165, "velocity": 100}, {"time": 14960, "pitch": 71, "duration": 440, "velocity": 100}, {"time": 15070, "pitch": 50, "duration": 165, "velocity": 100}, {"time": 15180, "pitch": 55, "duration": 55, "velocity": 100}, {"time": 15180, "pitch": 59, "duration": 110, "velocity": 100}, {"time": 15180, "pitch": 62, "duration": 110, "velocity": 100}, {"time": 15290, "pitch": 50, "duration": 55, "velocity": 100}, {"time": 15345, "pitch": 55, "duration": 55, "velocity": 100}, {"time": 15400, "pitch": 31, "duration": 275, "velocity": 100}, {"time": 15400, "pitch": 55, "duration": 165, "velocity": 100}, {"time": 15400, "pitch": 59, "duration": 165, "velocity": 100}, {"time": 15400, "pitch": 62, "duration": 275, "velocity": 100}, {"time": 15400, "pitch": 67, "duration": 440, "velocity": 100}, {"time": 15510, "pitch": 43, "duration": 110, "velocity": 100}, {"time": 15620, "pitch": 55, "duration": 55, "velocity": 100}, {"time": 15620, "pitch": 59, "duration": 55, "velocity": 100}, {"time": 15620, "pitch": 62, "duration": 165, "velocity": 100}, {"time": 15675, "pitch": 43, "duration": 55, "velocity": 100}, {"time": 15730, "pitch": 55, "duration": 55, "velocity": 100}, {"time": 15840, "pitch": 43, "duration": 330, "velocity": 100}, {"time": 15840, "pitch": 50, "duration": 55, "velocity": 100}, {"time": 15840, "pitch": 55, "duration": 165, "velocity": 100}, {"time": 15840, "pitch": 59, "duration": 110, "velocity": 100}, {"time": 15840, "pitch": 62, "duration": 220, "velocity": 100}, {"time": 15840, "pitch": 71, "duration": 440, "velocity": 100}, {"time": 15950, "pitch": 50, "duration": 110, "velocity": 100}, {"time": 16060, "pitch": 55, "duration": 110, "velocity": 100}, {"time": 16060, "pitch": 62, "duration": 165, "velocity": 100}, {"time": 16170, "pitch": 50, "duration": 55, "velocity": 100}, {"time": 16280, "pitch": 43, "duration": 330, "velocity": 100}, {"time": 16280, "pitch": 50, "duration": 110, "velocity": 100}, {"time": 16280, "pitch": 59, "duration": 110, "velocity": 100}, {"time": 16280, "pitch": 62, "duration": 275, "velocity": 100}, {"time": 16280, "pitch": 67, "duration": 385, "velocity": 100}, {"time": 16390, "pitch": 50, "duration": 110, "velocity": 100}, {"time": 16500, "pitch": 50, "duration": 55, "velocity": 100}, {"time": 16500, "pitch": 55, "duration": 55, "velocity": 100}, {"time": 16500, "pitch": 59, "duration": 55, "velocity": 100}, {"time": 16555, "pitch": 50, "duration": 55, "velocity": 100}, {"time": 16610, "pitch": 50, "duration": 55, "velocity": 100}, {"time": 16720, "pitch": 43, "duration": 275, "velocity": 100}, {"time": 16720, "pitch": 55, "duration": 110, "velocity": 100}, {"time": 16720, "pitch": 59, "duration": 110, "velocity": 100}, {"time": 16720, "pitch": 62, "duration": 165, "velocity": 100}, {"time": 16720, "pitch": 69, "duration": 220, "velocity": 100}, {"time": 16830, "pitch": 50, "duration": 110, "velocity": 100}, {"time": 16940, "pitch": 55, "duration": 55, "velocity": 100}, {"time": 16940, "pitch": 59, "duration": 110, "velocity": 100}, {"time": 16940, "pitch": 62, "duration": 110, "velocity": 100}, {"time": 16940, "pitch": 69, "duration": 220, "velocity": 100}, {"time": 16995, "pitch": 50, "duration": 55, "velocity": 100}, {"time": 17050, "pitch": 43, "duration": 55, "velocity": 100}, {"time": 17160, "pitch": 31, "duration": 275, "velocity": 100}, {"time": 17160, "pitch": 50, "duration": 55, "velocity": 100}, {"time": 17160, "pitch": 55, "duration": 110, "velocity": 100}, {"time": 17160, "pitch": 59, "duration": 110, "velocity": 100}, {"time": 17160, "pitch": 67, "duration": 330, "velocity": 100}, {"time": 17215, "pitch": 38, "duration": 220, "velocity": 100}, {"time": 17270, "pitch": 50, "duration": 55, "velocity": 100}, {"time": 17325, "pitch": 55, "duration": 55, "velocity": 100}, {"time": 17380, "pitch": 50, "duration": 110, "velocity": 100}, {"time": 17380, "pitch": 55, "duration": 110, "velocity": 100}, {"time": 17380, "pitch": 62, "duration": 110, "velocity": 100}, {"time": 17490, "pitch": 38, "duration": 55, "velocity": 100}, {"time": 17490, "pitch": 67, "duration": 55, "velocity": 100}, {"time": 17545, "pitch": 69, "duration": 55, "velocity": 100}, {"time": 17600, "pitch": 31, "duration": 165, "velocity": 100}, {"time": 17600, "pitch": 55, "duration": 55, "velocity": 100}, {"time": 17600, "pitch": 59, "duration": 110, "velocity": 100}, {"time": 17600, "pitch": 62, "duration": 110, "velocity": 100}, {"time": 17600, "pitch": 67, "duration": 220, "velocity": 100}, {"time": 17600, "pitch": 71, "duration": 220, "velocity": 100}, {"time": 17655, "pitch": 38, "duration": 55, "velocity": 100}, {"time": 17710, "pitch": 55, "duration": 55, "velocity": 100}, {"time": 17765, "pitch": 59, "duration": 55, "velocity": 100}, {"time": 17820, "pitch": 31, "duration": 165, "velocity": 100}, {"time": 17820, "pitch": 55, "duration": 110, "velocity": 100}, {"time": 17820, "pitch": 62, "duration": 110, "velocity": 100}, {"time": 17820, "pitch": 67, "duration": 220, "velocity": 100}, {"time": 17820, "pitch": 71, "duration": 220, "velocity": 100}, {"time": 17875, "pitch": 38, "duration": 55, "velocity": 100}, {"time": 17930, "pitch": 55, "duration": 55, "velocity": 100}, {"time": 17985, "pitch": 59, "duration": 55, "velocity": 100}, {"time": 18040, "pitch": 31, "duration": 330, "velocity": 100}, {"time": 18040, "pitch": 43, "duration": 55, "velocity": 100}, {"time": 18040, "pitch": 55, "duration": 110, "velocity": 100}, {"time": 18040, "pitch": 74, "duration": 385, "velocity": 100}, {"time": 18040, "pitch": 79, "duration": 330, "velocity": 100}, {"time": 18095, "pitch": 38, "duration": 165, "velocity": 100}, {"time": 18150, "pitch": 50, "duration": 55, "velocity": 100}, {"time": 18205, "pitch": 55, "duration": 55, "velocity": 100}, {"time": 18260, "pitch": 50, "duration": 55, "velocity": 100}, {"time": 18260, "pitch": 62, "duration": 110, "velocity": 100}, {"time": 18315, "pitch": 43, "duration": 55, "velocity": 100}, {"time": 18370, "pitch": 55, "duration": 55, "velocity": 100}, {"time": 18370, "pitch": 78, "duration": 110, "velocity": 100}, {"time": 18425, "pitch": 50, "duration": 55, "velocity": 100}, {"time": 18480, "pitch": 43, "duration": 330, "velocity": 100}, {"time": 18480, "pitch": 55, "duration": 55, "velocity": 100}, {"time": 18480, "pitch": 59, "duration": 110, "velocity": 100}, {"time": 18480, "pitch": 79, "duration": 440, "velocity": 100}, {"time": 18590, "pitch": 59, "duration": 55, "velocity": 100}, {"time": 18645, "pitch": 50, "duration": 55, "velocity": 100}, {"time": 18700, "pitch": 55, "duration": 55, "velocity": 100}, {"time": 18700, "pitch": 62, "duration": 110, "velocity": 100}, {"time": 18755, "pitch": 50, "duration": 55, "velocity": 100}, {"time": 18810, "pitch": 59, "duration": 55, "velocity": 100}, {"time": 18865, "pitch": 55, "duration": 55, "velocity": 100}, {"time": 18920, "pitch": 31, "duration": 330, "velocity": 100}, {"time": 18920, "pitch": 50, "duration": 55, "velocity": 100}, {"time": 18920, "pitch": 59, "duration": 110, "velocity": 100}, {"time": 18920, "pitch": 79, "duration": 110, "velocity": 100}, {"time": 18975, "pitch": 50, "duration": 55, "velocity": 100}, {"time": 19030, "pitch": 59, "duration": 55, "velocity": 100}, {"time": 19030, "pitch": 78, "duration": 110, "velocity": 100}, {"time": 19085, "pitch": 55, "duration": 55, "velocity": 100}, {"time": 19140, "pitch": 55, "duration": 55, "velocity": 100}, {"time": 19140, "pitch": 59, "duration": 110, "velocity": 100}, {"time": 19140, "pitch": 74, "duration": 110, "velocity": 100}, {"time": 19195, "pitch": 38, "duration": 55, "velocity": 100}, {"time": 19250, "pitch": 55, "duration": 55, "velocity": 100}, {"time": 19250, "pitch": 71, "duration": 110, "velocity": 100}, {"time": 19360, "pitch": 43, "duration": 385, "velocity": 100}, {"time": 19360, "pitch": 55, "duration": 55, "velocity": 100}, {"time": 19360, "pitch": 59, "duration": 220, "velocity": 100}, {"time": 19360, "pitch": 71, "duration": 275, "velocity": 100}, {"time": 19415, "pitch": 50, "duration": 110, "velocity": 100}, {"time": 19470, "pitch": 55, "duration": 55, "velocity": 100}, {"time": 19525, "pitch": 50, "duration": 55, "velocity": 100}, {"time": 19580, "pitch": 55, "duration": 110, "velocity": 100}, {"time": 19580, "pitch": 59, "duration": 110, "velocity": 100}, {"time": 19635, "pitch": 50, "duration": 110, "velocity": 100}, {"time": 19690, "pitch": 55, "duration": 55, "velocity": 100}, {"time": 19690, "pitch": 76, "duration": 55, "velocity": 100}, {"time": 19745, "pitch": 55, "duration": 55, "velocity": 100}, {"time": 19745, "pitch": 76, "duration": 55, "velocity": 100}, {"time": 19800, "pitch": 43, "duration": 385, "velocity": 100}, {"time": 19800, "pitch": 50, "duration": 55, "velocity": 100}, {"time": 19800, "pitch": 59, "duration": 110, "velocity": 100}, {"time": 19800, "pitch": 79, "duration": 330, "velocity": 100}, {"time": 19855, "pitch": 47, "duration": 165, "velocity": 100}, {"time": 19910, "pitch": 50, "duration": 110, "velocity": 100}, {"time": 20020, "pitch": 59, "duration": 110, "velocity": 100}, {"time": 20075, "pitch": 43, "duration": 110, "velocity": 100}, {"time": 20130, "pitch": 50, "duration": 55, "velocity": 100}, {"time": 20130, "pitch": 69, "duration": 55, "velocity": 100}, {"time": 20185, "pitch": 55, "duration": 55, "velocity": 100}, {"time": 20185, "pitch": 74, "duration": 55, "velocity": 100}, {"time": 20240, "pitch": 43, "duration": 385, "velocity": 100}, {"time": 20240, "pitch": 55, "duration": 55, "velocity": 100}, {"time": 20240, "pitch": 59, "duration": 110, "velocity": 100}, {"time": 20240, "pitch": 79, "duration": 440, "velocity": 100}, {"time": 20350, "pitch": 59, "duration": 110, "velocity": 100}, {"time": 20405, "pitch": 50, "duration": 55, "velocity": 100}, {"time": 20460, "pitch": 50, "duration": 110, "velocity": 100}, {"time": 20515, "pitch": 55, "duration": 55, "velocity": 100}, {"time": 20570, "pitch": 59, "duration": 55, "velocity": 100}, {"time": 20625, "pitch": 50, "duration": 55, "velocity": 100}, {"time": 20680, "pitch": 43, "duration": 330, "velocity": 100}, {"time": 20680, "pitch": 50, "duration": 55, "velocity": 100}, {"time": 20680, "pitch": 55, "duration": 55, "velocity": 100}, {"time": 20680, "pitch": 79, "duration": 220, "velocity": 100}, {"time": 20735, "pitch": 50, "duration": 55, "velocity": 100}, {"time": 20790, "pitch": 55, "duration": 55, "velocity": 100}, {"time": 20845, "pitch": 50, "duration": 55, "velocity": 100}, {"time": 20900, "pitch": 50, "duration": 55, "velocity": 100}, {"time": 20900, "pitch": 59, "duration": 110, "velocity": 100}, {"time": 20900, "pitch": 74, "duration": 110, "velocity": 100}, {"time": 20955, "pitch": 50, "duration": 55, "velocity": 100}, {"time": 21010, "pitch": 55, "duration": 55, "velocity": 100}, {"time": 21010, "pitch": 71, "duration": 110, "velocity": 100}, {"time": 21065, "pitch": 50, "duration": 55, "velocity": 100}, {"time": 21120, "pitch": 43, "duration": 55, "velocity": 100}, {"time": 21120, "pitch": 67, "duration": 220, "velocity": 100}, {"time": 21120, "pitch": 71, "duration": 330, "velocity": 100}, {"time": 21120, "pitch": 86, "duration": 440, "velocity": 100}, {"time": 21175, "pitch": 55, "duration": 220, "velocity": 100}, {"time": 21230, "pitch": 62, "duration": 110, "velocity": 100}, {"time": 21285, "pitch": 67, "duration": 55, "velocity": 100}, {"time": 21340, "pitch": 67, "duration": 55, "velocity": 100}, {"time": 21340, "pitch": 71, "duration": 220, "velocity": 100}, {"time": 21340, "pitch": 74, "duration": 220, "velocity": 100}, {"time": 21395, "pitch": 62, "duration": 55, "velocity": 100}, {"time": 21450, "pitch": 67, "duration": 110, "velocity": 100}, {"time": 21505, "pitch": 71, "duration": 55, "velocity": 100}, {"time": 21560, "pitch": 43, "duration": 330, "velocity": 100}, {"time": 21560, "pitch": 67, "duration": 165, "velocity": 100}, {"time": 21560, "pitch": 71, "duration": 220, "velocity": 100}, {"time": 21560, "pitch": 83, "duration": 220, "velocity": 100}, {"time": 21615, "pitch": 50, "duration": 165, "velocity": 100}, {"time": 21670, "pitch": 67, "duration": 110, "velocity": 100}, {"time": 21725, "pitch": 74, "duration": 55, "velocity": 100}, {"time": 21780, "pitch": 67, "duration": 55, "velocity": 100}, {"time": 21780, "pitch": 71, "duration": 220, "velocity": 100}, {"time": 21780, "pitch": 79, "duration": 220, "velocity": 100}, {"time": 21835, "pitch": 50, "duration": 55, "velocity": 100}, {"time": 21890, "pitch": 69, "duration": 110, "velocity": 100}, {"time": 21945, "pitch": 74, "duration": 55, "velocity": 100}, {"time": 22000, "pitch": 55, "duration": 330, "velocity": 100}, {"time": 22000, "pitch": 71, "duration": 110, "velocity": 100}, {"time": 22000, "pitch": 83, "duration": 220, "velocity": 100}, {"time": 22055, "pitch": 62, "duration": 110, "velocity": 100}, {"time": 22110, "pitch": 67, "duration": 55, "velocity": 100}, {"time": 22165, "pitch": 67, "duration": 55, "velocity": 100}, {"time": 22165, "pitch": 71, "duration": 55, "velocity": 100}, {"time": 22220, "pitch": 62, "duration": 55, "velocity": 100}, {"time": 22220, "pitch": 83, "duration": 110, "velocity": 100}, {"time": 22275, "pitch": 67, "duration": 55, "velocity": 100}, {"time": 22275, "pitch": 69, "duration": 55, "velocity": 100}, {"time": 22330, "pitch": 62, "duration": 55, "velocity": 100}, {"time": 22330, "pitch": 67, "duration": 110, "velocity": 100}, {"time": 22330, "pitch": 88, "duration": 110, "velocity": 100}, {"time": 22440, "pitch": 43, "duration": 330, "velocity": 100}, {"time": 22440, "pitch": 59, "duration": 55, "velocity": 100}, {"time": 22440, "pitch": 67, "duration": 220, "velocity": 100}, {"time": 22440, "pitch": 86, "duration": 220, "velocity": 100}, {"time": 22495, "pitch": 50, "duration": 165, "velocity": 100}, {"time": 22550, "pitch": 62, "duration": 55, "velocity": 100}, {"time": 22605, "pitch": 67, "duration": 55, "velocity": 100}, {"time": 22660, "pitch": 62, "duration": 55, "velocity": 100}, {"time": 22660, "pitch": 67, "duration": 220, "velocity": 100}, {"time": 22660, "pitch": 79, "duration": 110, "velocity": 100}, {"time": 22715, "pitch": 55, "duration": 55, "velocity": 100}, {"time": 22715, "pitch": 83, "duration": 55, "velocity": 100}, {"time": 22770, "pitch": 62, "duration": 110, "velocity": 100}, {"time": 22770, "pitch": 81, "duration": 55, "velocity": 100}, {"time": 22825, "pitch": 67, "duration": 55, "velocity": 100}, {"time": 22880, "pitch": 55, "duration": 440, "velocity": 100}, {"time": 22880, "pitch": 62, "duration": 55, "velocity": 100}, {"time": 22880, "pitch": 67, "duration": 165, "velocity": 100}, {"time": 22880, "pitch": 79, "duration": 220, "velocity": 100}, {"time": 22935, "pitch": 59, "duration": 110, "velocity": 100}, {"time": 22990, "pitch": 62, "duration": 55, "velocity": 100}, {"time": 23045, "pitch": 62, "duration": 55, "velocity": 100}, {"time": 23045, "pitch": 67, "duration": 55, "velocity": 100}, {"time": 23100, "pitch": 59, "duration": 55, "velocity": 100}, {"time": 23100, "pitch": 79, "duration": 110, "velocity": 100}, {"time": 23155, "pitch": 67, "duration": 55, "velocity": 100}, {"time": 23155, "pitch": 71, "duration": 55, "velocity": 100}, {"time": 23210, "pitch": 62, "duration": 110, "velocity": 100}, {"time": 23210, "pitch": 74, "duration": 110, "velocity": 100}, {"time": 23265, "pitch": 67, "duration": 55, "velocity": 100}, {"time": 23320, "pitch": 43, "duration": 330, "velocity": 100}, {"time": 23320, "pitch": 62, "duration": 110, "velocity": 100}, {"time": 23320, "pitch": 71, "duration": 110, "velocity": 100}, {"time": 23320, "pitch": 74, "duration": 220, "velocity": 100}, {"time": 23375, "pitch": 50, "duration": 165, "velocity": 100}, {"time": 23430, "pitch": 62, "duration": 55, "velocity": 100}, {"time": 23485, "pitch": 67, "duration": 55, "velocity": 100}, {"time": 23540, "pitch": 59, "duration": 55, "velocity": 100}, {"time": 23540, "pitch": 67, "duration": 110, "velocity": 100}, {"time": 23540, "pitch": 69, "duration": 220, "velocity": 100}, {"time": 23540, "pitch": 79, "duration": 110, "velocity": 100}, {"time": 23595, "pitch": 50, "duration": 55, "velocity": 100}, {"time": 23650, "pitch": 62, "duration": 55, "velocity": 100}, {"time": 23650, "pitch": 74, "duration": 110, "velocity": 100}, {"time": 23650, "pitch": 81, "duration": 110, "velocity": 100}, {"time": 23705, "pitch": 74, "duration": 55, "velocity": 100}, {"time": 23760, "pitch": 55, "duration": 330, "velocity": 100}, {"time": 23760, "pitch": 62, "duration": 55, "velocity": 100}, {"time": 23760, "pitch": 67, "duration": 110, "velocity": 100}, {"time": 23760, "pitch": 71, "duration": 110, "velocity": 100}, {"time": 23760, "pitch": 86, "duration": 220, "velocity": 100}, {"time": 23870, "pitch": 59, "duration": 110, "velocity": 100}, {"time": 23870, "pitch": 69, "duration": 110, "velocity": 100}, {"time": 23980, "pitch": 62, "duration": 55, "velocity": 100}, {"time": 23980, "pitch": 67, "duration": 110, "velocity": 100}, {"time": 23980, "pitch": 71, "duration": 110, "velocity": 100}, {"time": 23980, "pitch": 74, "duration": 110, "velocity": 100}, {"time": 23980, "pitch": 83, "duration": 220, "velocity": 100}, {"time": 24035, "pitch": 55, "duration": 55, "velocity": 100}, {"time": 24090, "pitch": 62, "duration": 55, "velocity": 100}, {"time": 24090, "pitch": 69, "duration": 110, "velocity": 100}, {"time": 24200, "pitch": 47, "duration": 275, "velocity": 100}, {"time": 24200, "pitch": 62, "duration": 165, "velocity": 100}, {"time": 24200, "pitch": 67, "duration": 165, "velocity": 100}, {"time": 24200, "pitch": 79, "duration": 110, "velocity": 100}, {"time": 24310, "pitch": 55, "duration": 110, "velocity": 100}, {"time": 24310, "pitch": 69, "duration": 110, "velocity": 100}, {"time": 24310, "pitch": 79, "duration": 110, "velocity": 100}, {"time": 24420, "pitch": 59, "duration": 55, "velocity": 100}, {"time": 24420, "pitch": 67, "duration": 110, "velocity": 100}, {"time": 24420, "pitch": 69, "duration": 110, "velocity": 100}, {"time": 24420, "pitch": 74, "duration": 110, "velocity": 100}, {"time": 24420, "pitch": 79, "duration": 110, "velocity": 100}, {"time": 24475, "pitch": 55, "duration": 55, "velocity": 100}, {"time": 24530, "pitch": 50, "duration": 55, "velocity": 100}, {"time": 24530, "pitch": 72, "duration": 110, "velocity": 100}, {"time": 24530, "pitch": 81, "duration": 110, "velocity": 100}, {"time": 24640, "pitch": 43, "duration": 275, "velocity": 100}, {"time": 24640, "pitch": 55, "duration": 110, "velocity": 100}, {"time": 24640, "pitch": 62, "duration": 110, "velocity": 100}, {"time": 24750, "pitch": 50, "duration": 110, "velocity": 100}, {"time": 24860, "pitch": 55, "duration": 55, "velocity": 100}, {"time": 24860, "pitch": 59, "duration": 55, "velocity": 100}, {"time": 24860, "pitch": 62, "duration": 55, "velocity": 100}, {"time": 24915, "pitch": 50, "duration": 55, "velocity": 100}, {"time": 24915, "pitch": 64, "duration": 55, "velocity": 100}, {"time": 24970, "pitch": 55, "duration": 55, "velocity": 100}, {"time": 24970, "pitch": 62, "duration": 55, "velocity": 100}, {"time": 25025, "pitch": 59, "duration": 55, "velocity": 100}, {"time": 25080, "pitch": 43, "duration": 275, "velocity": 100}, {"time": 25080, "pitch": 55, "duration": 55, "velocity": 100}, {"time": 25080, "pitch": 59, "duration": 440, "velocity": 100}, {"time": 25190, "pitch": 55, "duration": 55, "velocity": 100}, {"time": 25300, "pitch": 55, "duration": 55, "velocity": 100}, {"time": 25300, "pitch": 62, "duration": 220, "velocity": 100}, {"time": 25410, "pitch": 59, "duration": 110, "velocity": 100}, {"time": 25520, "pitch": 43, "duration": 385, "velocity": 100}, {"time": 25520, "pitch": 55, "duration": 165, "velocity": 100}, {"time": 25520, "pitch": 59, "duration": 220, "velocity": 100}, {"time": 25630, "pitch": 50, "duration": 165, "velocity": 100}, {"time": 25740, "pitch": 59, "duration": 110, "velocity": 100}, {"time": 25740, "pitch": 62, "duration": 165, "velocity": 100}, {"time": 25795, "pitch": 67, "duration": 55, "velocity": 100}, {"time": 25850, "pitch": 50, "duration": 55, "velocity": 100}, {"time": 25850, "pitch": 62, "duration": 110, "velocity": 100}, {"time": 25905, "pitch": 55, "duration": 55, "velocity": 100}, {"time": 25905, "pitch": 59, "duration": 55, "velocity": 100}, {"time": 25960, "pitch": 43, "duration": 220, "velocity": 100}, {"time": 25960, "pitch": 55, "duration": 55, "velocity": 100}, {"time": 25960, "pitch": 59, "duration": 220, "velocity": 100}, {"time": 25960, "pitch": 62, "duration": 220, "velocity": 100}, {"time": 26070, "pitch": 55, "duration": 55, "velocity": 100}, {"time": 26180, "pitch": 59, "duration": 110, "velocity": 100}, {"time": 26180, "pitch": 62, "duration": 220, "velocity": 100}, {"time": 26290, "pitch": 55, "duration": 110, "velocity": 100}, {"time": 26290, "pitch": 60, "duration": 110, "velocity": 100}, {"time": 26400, "pitch": 43, "duration": 385, "velocity": 100}, {"time": 26400, "pitch": 55, "duration": 165, "velocity": 100}, {"time": 26400, "pitch": 59, "duration": 220, "velocity": 100}, {"time": 26510, "pitch": 50, "duration": 110, "velocity": 100}, {"time": 26620, "pitch": 55, "duration": 55, "velocity": 100}, {"time": 26620, "pitch": 59, "duration": 55, "velocity": 100}, {"time": 26620, "pitch": 62, "duration": 55, "velocity": 100}, {"time": 26675, "pitch": 50, "duration": 55, "velocity": 100}, {"time": 26730, "pitch": 57, "duration": 55, "velocity": 100}, {"time": 26730, "pitch": 62, "duration": 55, "velocity": 100}, {"time": 26785, "pitch": 59, "duration": 55, "velocity": 100}, {"time": 26785, "pitch": 62, "duration": 55, "velocity": 100}, {"time": 26840, "pitch": 43, "duration": 275, "velocity": 100}, {"time": 26840, "pitch": 55, "duration": 165, "velocity": 100}, {"time": 26840, "pitch": 59, "duration": 440, "velocity": 100}, {"time": 27060, "pitch": 55, "duration": 55, "velocity": 100}, {"time": 27060, "pitch": 62, "duration": 220, "velocity": 100}, {"time": 27170, "pitch": 55, "duration": 110, "velocity": 100}, {"time": 27170, "pitch": 59, "duration": 110, "velocity": 100}, {"time": 27280, "pitch": 43, "duration": 385, "velocity": 100}, {"time": 27280, "pitch": 55, "duration": 165, "velocity": 100}, {"time": 27280, "pitch": 59, "duration": 220, "velocity": 100}, {"time": 27390, "pitch": 50, "duration": 275, "velocity": 100}, {"time": 27500, "pitch": 55, "duration": 55, "velocity": 100}, {"time": 27500, "pitch": 59, "duration": 110, "velocity": 100}, {"time": 27500, "pitch": 62, "duration": 110, "velocity": 100}, {"time": 27500, "pitch": 71, "duration": 55, "velocity": 100}, {"time": 27555, "pitch": 74, "duration": 55, "velocity": 100}, {"time": 27610, "pitch": 55, "duration": 55, "velocity": 100}, {"time": 27665, "pitch": 74, "duration": 55, "velocity": 100}, {"time": 27720, "pitch": 43, "duration": 385, "velocity": 100}, {"time": 27720, "pitch": 55, "duration": 165, "velocity": 100}, {"time": 27720, "pitch": 59, "duration": 220, "velocity": 100}, {"time": 27720, "pitch": 74, "duration": 220, "velocity": 100}, {"time": 27830, "pitch": 55, "duration": 55, "velocity": 100}, {"time": 27885, "pitch": 74, "duration": 165, "velocity": 100}, {"time": 27940, "pitch": 55, "duration": 55, "velocity": 100}, {"time": 27940, "pitch": 59, "duration": 110, "velocity": 100}, {"time": 27995, "pitch": 71, "duration": 55, "velocity": 100}, {"time": 28050, "pitch": 62, "duration": 110, "velocity": 100}, {"time": 28160, "pitch": 43, "duration": 275, "velocity": 100}, {"time": 28160, "pitch": 50, "duration": 110, "velocity": 100}, {"time": 28160, "pitch": 59, "duration": 110, "velocity": 100}, {"time": 28270, "pitch": 47, "duration": 110, "velocity": 100}, {"time": 28380, "pitch": 50, "duration": 55, "velocity": 100}, {"time": 28380, "pitch": 55, "duration": 55, "velocity": 100}, {"time": 28380, "pitch": 59, "duration": 55, "velocity": 100}, {"time": 28380, "pitch": 64, "duration": 110, "velocity": 100}, {"time": 28435, "pitch": 47, "duration": 55, "velocity": 100}, {"time": 28490, "pitch": 55, "duration": 55, "velocity": 100}, {"time": 28490, "pitch": 59, "duration": 110, "velocity": 100}, {"time": 28600, "pitch": 40, "duration": 275, "velocity": 100}, {"time": 28600, "pitch": 52, "duration": 55, "velocity": 100}, {"time": 28600, "pitch": 55, "duration": 110, "velocity": 100}, {"time": 28600, "pitch": 64, "duration": 165, "velocity": 100}, {"time": 28710, "pitch": 52, "duration": 55, "velocity": 100}, {"time": 28820, "pitch": 52, "duration": 55, "velocity": 100}, {"time": 28820, "pitch": 59, "duration": 55, "velocity": 100}, {"time": 28875, "pitch": 62, "duration": 55, "velocity": 100}, {"time": 28930, "pitch": 55, "duration": 55, "velocity": 100}, {"time": 28930, "pitch": 59, "duration": 110, "velocity": 100}, {"time": 28985, "pitch": 55, "duration": 55, "velocity": 100}, {"time": 29040, "pitch": 40, "duration": 275, "velocity": 100}, {"time": 29040, "pitch": 52, "duration": 165, "velocity": 100}, {"time": 29040, "pitch": 55, "duration": 220, "velocity": 100}, {"time": 29150, "pitch": 47, "duration": 165, "velocity": 100}, {"time": 29260, "pitch": 55, "duration": 110, "velocity": 100}, {"time": 29260, "pitch": 59, "duration": 220, "velocity": 100}, {"time": 29260, "pitch": 64, "duration": 220, "velocity": 100}, {"time": 29370, "pitch": 47, "duration": 55, "velocity": 100}, {"time": 29425, "pitch": 52, "duration": 55, "velocity": 100}, {"time": 29480, "pitch": 40, "duration": 275, "velocity": 100}, {"time": 29480, "pitch": 52, "duration": 55, "velocity": 100}, {"time": 29480, "pitch": 55, "duration": 220, "velocity": 100}, {"time": 29480, "pitch": 59, "duration": 330, "velocity": 100}, {"time": 29590, "pitch": 52, "duration": 55, "velocity": 100}, {"time": 29700, "pitch": 55, "duration": 55, "velocity": 100}, {"time": 29700, "pitch": 59, "duration": 220, "velocity": 100}, {"time": 29810, "pitch": 52, "duration": 55, "velocity": 100}, {"time": 29810, "pitch": 55, "duration": 110, "velocity": 100}, {"time": 29810, "pitch": 59, "duration": 110, "velocity": 100}, {"time": 29920, "pitch": 40, "duration": 385, "velocity": 100}, {"time": 29920, "pitch": 52, "duration": 110, "velocity": 100}, {"time": 29920, "pitch": 55, "duration": 110, "velocity": 100}, {"time": 29920, "pitch": 64, "duration": 330, "velocity": 100}, {"time": 30030, "pitch": 47, "duration": 110, "velocity": 100}, {"time": 30140, "pitch": 52, "duration": 55, "velocity": 100}, {"time": 30140, "pitch": 55, "duration": 55, "velocity": 100}, {"time": 30140, "pitch": 59, "duration": 55, "velocity": 100}, {"time": 30195, "pitch": 47, "duration": 55, "velocity": 100}, {"time": 30195, "pitch": 57, "duration": 55, "velocity": 100}, {"time": 30250, "pitch": 54, "duration": 55, "velocity": 100}, {"time": 30250, "pitch": 59, "duration": 55, "velocity": 100}, {"time": 30305, "pitch": 55, "duration": 55, "velocity": 100}, {"time": 30305, "pitch": 62, "duration": 55, "velocity": 100}, {"time": 30360, "pitch": 47, "duration": 330, "velocity": 100}, {"time": 30360, "pitch": 52, "duration": 55, "velocity": 100}, {"time": 30360, "pitch": 55, "duration": 110, "velocity": 100}, {"time": 30360, "pitch": 59, "duration": 165, "velocity": 100}, {"time": 30580, "pitch": 52, "duration": 55, "velocity": 100}, {"time": 30580, "pitch": 59, "duration": 220, "velocity": 100}, {"time": 30690, "pitch": 52, "duration": 110, "velocity": 100}, {"time": 30800, "pitch": 40, "duration": 385, "velocity": 100}, {"time": 30800, "pitch": 52, "duration": 110, "velocity": 100}, {"time": 30800, "pitch": 55, "duration": 110, "velocity": 100}, {"time": 30800, "pitch": 67, "duration": 110, "velocity": 100}, {"time": 30910, "pitch": 47, "duration": 275, "velocity": 100}, {"time": 30965, "pitch": 69, "duration": 55, "velocity": 100}, {"time": 31020, "pitch": 52, "duration": 55, "velocity": 100}, {"time": 31020, "pitch": 55, "duration": 55, "velocity": 100}, {"time": 31020, "pitch": 59, "duration": 110, "velocity": 100}, {"time": 31075, "pitch": 71, "duration": 165, "velocity": 100}, {"time": 31130, "pitch": 52, "duration": 55, "velocity": 100}, {"time": 31240, "pitch": 40, "duration": 385, "velocity": 100}, {"time": 31240, "pitch": 55, "duration": 110, "velocity": 100}, {"time": 31240, "pitch": 59, "duration": 165, "velocity": 100}, {"time": 31240, "pitch": 62, "duration": 165, "velocity": 100}, {"time": 31240, "pitch": 64, "duration": 330, "velocity": 100}, {"time": 31350, "pitch": 47, "duration": 110, "velocity": 100}, {"time": 31405, "pitch": 52, "duration": 55, "velocity": 100}, {"time": 31460, "pitch": 55, "duration": 55, "velocity": 100}, {"time": 31460, "pitch": 59, "duration": 110, "velocity": 100}, {"time": 31460, "pitch": 64, "duration": 165, "velocity": 100}, {"time": 31515, "pitch": 47, "duration": 165, "velocity": 100}, {"time": 31570, "pitch": 55, "duration": 110, "velocity": 100}, {"time": 31625, "pitch": 59, "duration": 55, "velocity": 100}, {"time": 31680, "pitch": 52, "duration": 385, "velocity": 100}, {"time": 31790, "pitch": 57, "duration": 275, "velocity": 100}, {"time": 31900, "pitch": 64, "duration": 165, "velocity": 100}, {"time": 31900, "pitch": 69, "duration": 220, "velocity": 100}, {"time": 31900, "pitch": 72, "duration": 220, "velocity": 100}, {"time": 32120, "pitch": 45, "duration": 275, "velocity": 100}, {"time": 32120, "pitch": 57, "duration": 110, "velocity": 100}, {"time": 32120, "pitch": 64, "duration": 110, "velocity": 100}, {"time": 32230, "pitch": 52, "duration": 110, "velocity": 100}, {"time": 32340, "pitch": 57, "duration": 55, "velocity": 100}, {"time": 32340, "pitch": 60, "duration": 55, "velocity": 100}, {"time": 32340, "pitch": 67, "duration": 55, "velocity": 100}, {"time": 32395, "pitch": 59, "duration": 55, "velocity": 100}, {"time": 32450, "pitch": 59, "duration": 55, "velocity": 100}, {"time": 32450, "pitch": 62, "duration": 55, "velocity": 100}, {"time": 32505, "pitch": 59, "duration": 55, "velocity": 100}, {"time": 32505, "pitch": 62, "duration": 55, "velocity": 100}, {"time": 32560, "pitch": 45, "duration": 330, "velocity": 100}, {"time": 32560, "pitch": 57, "duration": 55, "velocity": 100}, {"time": 32560, "pitch": 60, "duration": 220, "velocity": 100}, {"time": 32670, "pitch": 57, "duration": 55, "velocity": 100}, {"time": 32780, "pitch": 57, "duration": 110, "velocity": 100}, {"time": 32780, "pitch": 64, "duration": 220, "velocity": 100}, {"time": 32890, "pitch": 62, "duration": 165, "velocity": 100}, {"time": 33000, "pitch": 45, "duration": 330, "velocity": 100}, {"time": 33000, "pitch": 57, "duration": 165, "velocity": 100}, {"time": 33000, "pitch": 60, "duration": 220, "velocity": 100}, {"time": 33110, "pitch": 52, "duration": 165, "velocity": 100}, {"time": 33220, "pitch": 60, "duration": 110, "velocity": 100}, {"time": 33220, "pitch": 64, "duration": 110, "velocity": 100}, {"time": 33275, "pitch": 64, "duration": 55, "velocity": 100}, {"time": 33330, "pitch": 57, "duration": 55, "velocity": 100}, {"time": 33385, "pitch": 59, "duration": 55, "velocity": 100}, {"time": 33440, "pitch": 52, "duration": 275, "velocity": 100}, {"time": 33440, "pitch": 57, "duration": 165, "velocity": 100}, {"time": 33440, "pitch": 60, "duration": 220, "velocity": 100}, {"time": 33550, "pitch": 57, "duration": 110, "velocity": 100}, {"time": 33660, "pitch": 60, "duration": 110, "velocity": 100}, {"time": 33660, "pitch": 64, "duration": 110, "velocity": 100}, {"time": 33770, "pitch": 57, "duration": 110, "velocity": 100}, {"time": 33770, "pitch": 62, "duration": 110, "velocity": 100}, {"time": 33880, "pitch": 45, "duration": 330, "velocity": 100}, {"time": 33880, "pitch": 57, "duration": 220, "velocity": 100}, {"time": 33880, "pitch": 60, "duration": 220, "velocity": 100}, {"time": 33990, "pitch": 52, "duration": 110, "velocity": 100}, {"time": 34100, "pitch": 57, "duration": 55, "velocity": 100}, {"time": 34100, "pitch": 64, "duration": 55, "velocity": 100}, {"time": 34155, "pitch": 52, "duration": 55, "velocity": 100}, {"time": 34155, "pitch": 67, "duration": 55, "velocity": 100}, {"time": 34210, "pitch": 59, "duration": 55, "velocity": 100}, {"time": 34210, "pitch": 62, "duration": 55, "velocity": 100}, {"time": 34265, "pitch": 59, "duration": 55, "velocity": 100}, {"time": 34265, "pitch": 64, "duration": 55, "velocity": 100}, {"time": 34320, "pitch": 45, "duration": 330, "velocity": 100}, {"time": 34320, "pitch": 57, "duration": 220, "velocity": 100}, {"time": 34320, "pitch": 64, "duration": 330, "velocity": 100}, {"time": 34540, "pitch": 57, "duration": 55, "velocity": 100}, {"time": 34540, "pitch": 64, "duration": 220, "velocity": 100}, {"time": 34650, "pitch": 59, "duration": 110, "velocity": 100}, {"time": 34650, "pitch": 62, "duration": 110, "velocity": 100}, {"time": 34760, "pitch": 45, "duration": 385, "velocity": 100}, {"time": 34760, "pitch": 57, "duration": 220, "velocity": 100}, {"time": 34760, "pitch": 60, "duration": 220, "velocity": 100}, {"time": 34870, "pitch": 52, "duration": 275, "velocity": 100}, {"time": 34980, "pitch": 57, "duration": 55, "velocity": 100}, {"time": 34980, "pitch": 60, "duration": 110, "velocity": 100}, {"time": 34980, "pitch": 64, "duration": 110, "velocity": 100}, {"time": 34980, "pitch": 74, "duration": 55, "velocity": 100}, {"time": 35035, "pitch": 74, "duration": 55, "velocity": 100}, {"time": 35090, "pitch": 57, "duration": 55, "velocity": 100}, {"time": 35145, "pitch": 79, "duration": 55, "velocity": 100}, {"time": 35200, "pitch": 45, "duration": 385, "velocity": 100}, {"time": 35200, "pitch": 57, "duration": 55, "velocity": 100}, {"time": 35200, "pitch": 64, "duration": 165, "velocity": 100}, {"time": 35200, "pitch": 76, "duration": 110, "velocity": 100}, {"time": 35255, "pitch": 79, "duration": 55, "velocity": 100}, {"time": 35310, "pitch": 57, "duration": 55, "velocity": 100}, {"time": 35365, "pitch": 76, "duration": 165, "velocity": 100}, {"time": 35420, "pitch": 57, "duration": 55, "velocity": 100}, {"time": 35420, "pitch": 64, "duration": 110, "velocity": 100}, {"time": 35475, "pitch": 76, "duration": 55, "velocity": 100}, {"time": 35530, "pitch": 64, "duration": 110, "velocity": 100}, {"time": 35640, "pitch": 45, "duration": 275, "velocity": 100}, {"time": 35640, "pitch": 57, "duration": 110, "velocity": 100}, {"time": 35640, "pitch": 64, "duration": 110, "velocity": 100}, {"time": 35750, "pitch": 52, "duration": 110, "velocity": 100}, {"time": 35860, "pitch": 57, "duration": 55, "velocity": 100}, {"time": 35860, "pitch": 60, "duration": 55, "velocity": 100}, {"time": 35860, "pitch": 64, "duration": 110, "velocity": 100}, {"time": 35860, "pitch": 69, "duration": 110, "velocity": 100}, {"time": 35915, "pitch": 52, "duration": 55, "velocity": 100}, {"time": 35970, "pitch": 57, "duration": 55, "velocity": 100}, {"time": 35970, "pitch": 64, "duration": 110, "velocity": 100}, {"time": 36080, "pitch": 45, "duration": 330, "velocity": 100}, {"time": 36080, "pitch": 57, "duration": 55, "velocity": 100}, {"time": 36080, "pitch": 60, "duration": 110, "velocity": 100}, {"time": 36080, "pitch": 67, "duration": 220, "velocity": 100}, {"time": 36190, "pitch": 57, "duration": 55, "velocity": 100}, {"time": 36300, "pitch": 57, "duration": 55, "velocity": 100}, {"time": 36300, "pitch": 64, "duration": 55, "velocity": 100}, {"time": 36355, "pitch": 67, "duration": 55, "velocity": 100}, {"time": 36410, "pitch": 60, "duration": 55, "velocity": 100}, {"time": 36410, "pitch": 64, "duration": 55, "velocity": 100}, {"time": 36465, "pitch": 60, "duration": 55, "velocity": 100}, {"time": 36520, "pitch": 45, "duration": 275, "velocity": 100}, {"time": 36520, "pitch": 57, "duration": 165, "velocity": 100}, {"time": 36520, "pitch": 60, "duration": 165, "velocity": 100}, {"time": 36630, "pitch": 52, "duration": 165, "velocity": 100}, {"time": 36740, "pitch": 60, "duration": 110, "velocity": 100}, {"time": 36740, "pitch": 64, "duration": 220, "velocity": 100}, {"time": 36740, "pitch": 69, "duration": 220, "velocity": 100}, {"time": 36850, "pitch": 52, "duration": 55, "velocity": 100}, {"time": 36905, "pitch": 57, "duration": 55, "velocity": 100}, {"time": 36960, "pitch": 52, "duration": 330, "velocity": 100}, {"time": 36960, "pitch": 57, "duration": 110, "velocity": 100}, {"time": 36960, "pitch": 64, "duration": 275, "velocity": 100}, {"time": 37070, "pitch": 57, "duration": 55, "velocity": 100}, {"time": 37180, "pitch": 60, "duration": 55, "velocity": 100}, {"time": 37180, "pitch": 64, "duration": 220, "velocity": 100}, {"time": 37290, "pitch": 57, "duration": 55, "velocity": 100}, {"time": 37290, "pitch": 60, "duration": 55, "velocity": 100}, {"time": 37290, "pitch": 64, "duration": 110, "velocity": 100}, {"time": 37400, "pitch": 45, "duration": 330, "velocity": 100}, {"time": 37400, "pitch": 57, "duration": 110, "velocity": 100}, {"time": 37400, "pitch": 64, "duration": 110, "velocity": 100}, {"time": 37400, "pitch": 69, "duration": 220, "velocity": 100}, {"time": 37510, "pitch": 52, "duration": 110, "velocity": 100}, {"time": 37620, "pitch": 57, "duration": 55, "velocity": 100}, {"time": 37620, "pitch": 64, "duration": 55, "velocity": 100}, {"time": 37675, "pitch": 52, "duration": 55, "velocity": 100}, {"time": 37675, "pitch": 67, "duration": 55, "velocity": 100}, {"time": 37730, "pitch": 60, "duration": 55, "velocity": 100}, {"time": 37730, "pitch": 64, "duration": 55, "velocity": 100}, {"time": 37785, "pitch": 62, "duration": 55, "velocity": 100}, {"time": 37785, "pitch": 67, "duration": 55, "velocity": 100}, {"time": 37840, "pitch": 45, "duration": 330, "velocity": 100}, {"time": 37840, "pitch": 57, "duration": 165, "velocity": 100}, {"time": 37840, "pitch": 60, "duration": 165, "velocity": 100}, {"time": 37840, "pitch": 67, "duration": 440, "velocity": 100}, {"time": 38060, "pitch": 57, "duration": 55, "velocity": 100}, {"time": 38060, "pitch": 64, "duration": 110, "velocity": 100}, {"time": 38170, "pitch": 57, "duration": 110, "velocity": 100}, {"time": 38280, "pitch": 45, "duration": 385, "velocity": 100}, {"time": 38280, "pitch": 57, "duration": 165, "velocity": 100}, {"time": 38280, "pitch": 60, "duration": 165, "velocity": 100}, {"time": 38280, "pitch": 72, "duration": 110, "velocity": 100}, {"time": 38390, "pitch": 52, "duration": 275, "velocity": 100}, {"time": 38445, "pitch": 74, "duration": 165, "velocity": 100}, {"time": 38500, "pitch": 57, "duration": 55, "velocity": 100}, {"time": 38500, "pitch": 60, "duration": 55, "velocity": 100}, {"time": 38500, "pitch": 64, "duration": 55, "velocity": 100}, {"time": 38555, "pitch": 74, "duration": 165, "velocity": 100}, {"time": 38610, "pitch": 57, "duration": 55, "velocity": 100}, {"time": 38720, "pitch": 43, "duration": 110, "velocity": 100}, {"time": 38720, "pitch": 55, "duration": 55, "velocity": 100}, {"time": 38720, "pitch": 59, "duration": 110, "velocity": 100}, {"time": 38720, "pitch": 62, "duration": 220, "velocity": 100}, {"time": 38775, "pitch": 50, "duration": 55, "velocity": 100}, {"time": 38830, "pitch": 55, "duration": 55, "velocity": 100}, {"time": 38885, "pitch": 59, "duration": 55, "velocity": 100}, {"time": 38940, "pitch": 43, "duration": 220, "velocity": 100}, {"time": 38940, "pitch": 55, "duration": 55, "velocity": 100}, {"time": 38940, "pitch": 62, "duration": 165, "velocity": 100}, {"time": 38940, "pitch": 64, "duration": 220, "velocity": 100}, {"time": 38995, "pitch": 50, "duration": 165, "velocity": 100}, {"time": 39050, "pitch": 59, "duration": 110, "velocity": 100}, {"time": 39105, "pitch": 62, "duration": 55, "velocity": 100}, {"time": 39160, "pitch": 43, "duration": 275, "velocity": 100}, {"time": 39160, "pitch": 50, "duration": 110, "velocity": 100}, {"time": 39160, "pitch": 59, "duration": 110, "velocity": 100}, {"time": 39160, "pitch": 62, "duration": 275, "velocity": 100}, {"time": 39160, "pitch": 67, "duration": 275, "velocity": 100}, {"time": 39270, "pitch": 47, "duration": 110, "velocity": 100}, {"time": 39325, "pitch": 50, "duration": 55, "velocity": 100}, {"time": 39380, "pitch": 50, "duration": 55, "velocity": 100}, {"time": 39380, "pitch": 55, "duration": 55, "velocity": 100}, {"time": 39380, "pitch": 59, "duration": 55, "velocity": 100}, {"time": 39435, "pitch": 43, "duration": 55, "velocity": 100}, {"time": 39490, "pitch": 50, "duration": 55, "velocity": 100}, {"time": 39600, "pitch": 43, "duration": 385, "velocity": 100}, {"time": 39600, "pitch": 50, "duration": 55, "velocity": 100}, {"time": 39600, "pitch": 55, "duration": 165, "velocity": 100}, {"time": 39600, "pitch": 59, "duration": 165, "velocity": 100}, {"time": 39600, "pitch": 71, "duration": 440, "velocity": 100}, {"time": 39710, "pitch": 50, "duration": 165, "velocity": 100}, {"time": 39820, "pitch": 55, "duration": 55, "velocity": 100}, {"time": 39820, "pitch": 59, "duration": 110, "velocity": 100}, {"time": 39820, "pitch": 62, "duration": 110, "velocity": 100}, {"time": 39930, "pitch": 50, "duration": 55, "velocity": 100}, {"time": 39985, "pitch": 55, "duration": 55, "velocity": 100}, {"time": 40040, "pitch": 31, "duration": 275, "velocity": 100}, {"time": 40040, "pitch": 55, "duration": 165, "velocity": 100}, {"time": 40040, "pitch": 59, "duration": 165, "velocity": 100}, {"time": 40040, "pitch": 62, "duration": 275, "velocity": 100}, {"time": 40040, "pitch": 67, "duration": 440, "velocity": 100}, {"time": 40150, "pitch": 43, "duration": 110, "velocity": 100}, {"time": 40260, "pitch": 55, "duration": 55, "velocity": 100}, {"time": 40260, "pitch": 59, "duration": 55, "velocity": 100}, {"time": 40260, "pitch": 62, "duration": 165, "velocity": 100}, {"time": 40315, "pitch": 43, "duration": 55, "velocity": 100}, {"time": 40370, "pitch": 55, "duration": 55, "velocity": 100}, {"time": 40480, "pitch": 43, "duration": 330, "velocity": 100}, {"time": 40480, "pitch": 50, "duration": 55, "velocity": 100}, {"time": 40480, "pitch": 55, "duration": 165, "velocity": 100}, {"time": 40480, "pitch": 59, "duration": 110, "velocity": 100}, {"time": 40480, "pitch": 62, "duration": 220, "velocity": 100}, {"time": 40480, "pitch": 71, "duration": 440, "velocity": 100}, {"time": 40590, "pitch": 50, "duration": 110, "velocity": 100}, {"time": 40700, "pitch": 55, "duration": 110, "velocity": 100}, {"time": 40700, "pitch": 62, "duration": 165, "velocity": 100}, {"time": 40810, "pitch": 50, "duration": 55, "velocity": 100}, {"time": 40920, "pitch": 43, "duration": 330, "velocity": 100}, {"time": 40920, "pitch": 50, "duration": 110, "velocity": 100}, {"time": 40920, "pitch": 59, "duration": 110, "velocity": 100}, {"time": 40920, "pitch": 62, "duration": 275, "velocity": 100}, {"time": 40920, "pitch": 67, "duration": 385, "velocity": 100}, {"time": 41030, "pitch": 50, "duration": 110, "velocity": 100}, {"time": 41140, "pitch": 50, "duration": 55, "velocity": 100}, {"time": 41140, "pitch": 55, "duration": 55, "velocity": 100}, {"time": 41140, "pitch": 59, "duration": 55, "velocity": 100}, {"time": 41195, "pitch": 50, "duration": 55, "velocity": 100}, {"time": 41250, "pitch": 50, "duration": 55, "velocity": 100}, {"time": 41360, "pitch": 43, "duration": 275, "velocity": 100}, {"time": 41360, "pitch": 55, "duration": 110, "velocity": 100}, {"time": 41360, "pitch": 59, "duration": 110, "velocity": 100}, {"time": 41360, "pitch": 62, "duration": 165, "velocity": 100}, {"time": 41360, "pitch": 69, "duration": 220, "velocity": 100}, {"time": 41470, "pitch": 50, "duration": 110, "velocity": 100}, {"time": 41580, "pitch": 55, "duration": 55, "velocity": 100}, {"time": 41580, "pitch": 59, "duration": 110, "velocity": 100}, {"time": 41580, "pitch": 62, "duration": 110, "velocity": 100}, {"time": 41580, "pitch": 69, "duration": 220, "velocity": 100}, {"time": 41635, "pitch": 50, "duration": 55, "velocity": 100}, {"time": 41690, "pitch": 43, "duration": 55, "velocity": 100}, {"time": 41800, "pitch": 31, "duration": 275, "velocity": 100}, {"time": 41800, "pitch": 50, "duration": 55, "velocity": 100}, {"time": 41800, "pitch": 55, "duration": 110, "velocity": 100}, {"time": 41800, "pitch": 59, "duration": 110, "velocity": 100}, {"time": 41800, "pitch": 67, "duration": 330, "velocity": 100}, {"time": 41855, "pitch": 38, "duration": 220, "velocity": 100}, {"time": 41910, "pitch": 50, "duration": 55, "velocity": 100}, {"time": 41965, "pitch": 55, "duration": 55, "velocity": 100}, {"time": 42020, "pitch": 50, "duration": 110, "velocity": 100}, {"time": 42020, "pitch": 55, "duration": 110, "velocity": 100}, {"time": 42020, "pitch": 62, "duration": 110, "velocity": 100}, {"time": 42130, "pitch": 38, "duration": 55, "velocity": 100}, {"time": 42130, "pitch": 67, "duration": 55, "velocity": 100}, {"time": 42185, "pitch": 69, "duration": 55, "velocity": 100}, {"time": 42240, "pitch": 31, "duration": 165, "velocity": 100}, {"time": 42240, "pitch": 55, "duration": 55, "velocity": 100}, {"time": 42240, "pitch": 59, "duration": 110, "velocity": 100}, {"time": 42240, "pitch": 62, "duration": 110, "velocity": 100}, {"time": 42240, "pitch": 67, "duration": 220, "velocity": 100}, {"time": 42240, "pitch": 71, "duration": 220, "velocity": 100}, {"time": 42295, "pitch": 38, "duration": 55, "velocity": 100}, {"time": 42350, "pitch": 55, "duration": 55, "velocity": 100}, {"time": 42405, "pitch": 59, "duration": 55, "velocity": 100}, {"time": 42460, "pitch": 31, "duration": 165, "velocity": 100}, {"time": 42460, "pitch": 55, "duration": 110, "velocity": 100}, {"time": 42460, "pitch": 62, "duration": 110, "velocity": 100}, {"time": 42460, "pitch": 67, "duration": 220, "velocity": 100}, {"time": 42460, "pitch": 71, "duration": 220, "velocity": 100}, {"time": 42515, "pitch": 38, "duration": 55, "velocity": 100}, {"time": 42570, "pitch": 55, "duration": 55, "velocity": 100}, {"time": 42625, "pitch": 59, "duration": 55, "velocity": 100}, {"time": 42680, "pitch": 31, "duration": 330, "velocity": 100}, {"time": 42680, "pitch": 43, "duration": 55, "velocity": 100}, {"time": 42680, "pitch": 55, "duration": 110, "velocity": 100}, {"time": 42680, "pitch": 74, "duration": 385, "velocity": 100}, {"time": 42680, "pitch": 79, "duration": 330, "velocity": 100}, {"time": 42735, "pitch": 38, "duration": 165, "velocity": 100}, {"time": 42790, "pitch": 50, "duration": 55, "velocity": 100}, {"time": 42845, "pitch": 55, "duration": 55, "velocity": 100}, {"time": 42900, "pitch": 50, "duration": 55, "velocity": 100}, {"time": 42900, "pitch": 62, "duration": 110, "velocity": 100}, {"time": 42955, "pitch": 43, "duration": 55, "velocity": 100}, {"time": 43010, "pitch": 55, "duration": 55, "velocity": 100}, {"time": 43010, "pitch": 78, "duration": 110, "velocity": 100}, {"time": 43065, "pitch": 50, "duration": 55, "velocity": 100}, {"time": 43120, "pitch": 43, "duration": 330, "velocity": 100}, {"time": 43120, "pitch": 55, "duration": 55, "velocity": 100}, {"time": 43120, "pitch": 59, "duration": 110, "velocity": 100}, {"time": 43120, "pitch": 79, "duration": 440, "velocity": 100}, {"time": 43230, "pitch": 59, "duration": 55, "velocity": 100}, {"time": 43285, "pitch": 50, "duration": 55, "velocity": 100}, {"time": 43340, "pitch": 55, "duration": 55, "velocity": 100}, {"time": 43340, "pitch": 62, "duration": 110, "velocity": 100}, {"time": 43395, "pitch": 50, "duration": 55, "velocity": 100}, {"time": 43450, "pitch": 59, "duration": 55, "velocity": 100}, {"time": 43505, "pitch": 55, "duration": 55, "velocity": 100}, {"time": 43560, "pitch": 31, "duration": 330, "velocity": 100}, {"time": 43560, "pitch": 50, "duration": 55, "velocity": 100}, {"time": 43560, "pitch": 59, "duration": 110, "velocity": 100}, {"time": 43560, "pitch": 79, "duration": 110, "velocity": 100}, {"time": 43615, "pitch": 50, "duration": 55, "velocity": 100}, {"time": 43670, "pitch": 59, "duration": 55, "velocity": 100}, {"time": 43670, "pitch": 78, "duration": 110, "velocity": 100}, {"time": 43725, "pitch": 55, "duration": 55, "velocity": 100}, {"time": 43780, "pitch": 55, "duration": 55, "velocity": 100}, {"time": 43780, "pitch": 59, "duration": 110, "velocity": 100}, {"time": 43780, "pitch": 74, "duration": 110, "velocity": 100}, {"time": 43835, "pitch": 38, "duration": 55, "velocity": 100}, {"time": 43890, "pitch": 55, "duration": 55, "velocity": 100}, {"time": 43890, "pitch": 71, "duration": 110, "velocity": 100}, {"time": 44000, "pitch": 43, "duration": 385, "velocity": 100}, {"time": 44000, "pitch": 55, "duration": 55, "velocity": 100}, {"time": 44000, "pitch": 59, "duration": 220, "velocity": 100}, {"time": 44000, "pitch": 71, "duration": 275, "velocity": 100}, {"time": 44055, "pitch": 50, "duration": 110, "velocity": 100}, {"time": 44110, "pitch": 55, "duration": 55, "velocity": 100}, {"time": 44165, "pitch": 50, "duration": 55, "velocity": 100}, {"time": 44220, "pitch": 55, "duration": 110, "velocity": 100}, {"time": 44220, "pitch": 59, "duration": 110, "velocity": 100}, {"time": 44275, "pitch": 50, "duration": 110, "velocity": 100}, {"time": 44330, "pitch": 55, "duration": 55, "velocity": 100}, {"time": 44330, "pitch": 76, "duration": 55, "velocity": 100}, {"time": 44385, "pitch": 55, "duration": 55, "velocity": 100}, {"time": 44385, "pitch": 76, "duration": 55, "velocity": 100}, {"time": 44440, "pitch": 43, "duration": 385, "velocity": 100}, {"time": 44440, "pitch": 50, "duration": 55, "velocity": 100}, {"time": 44440, "pitch": 59, "duration": 110, "velocity": 100}, {"time": 44440, "pitch": 79, "duration": 330, "velocity": 100}, {"time": 44495, "pitch": 47, "duration": 165, "velocity": 100}, {"time": 44550, "pitch": 50, "duration": 110, "velocity": 100}, {"time": 44660, "pitch": 59, "duration": 110, "velocity": 100}, {"time": 44715, "pitch": 43, "duration": 110, "velocity": 100}, {"time": 44770, "pitch": 50, "duration": 55, "velocity": 100}, {"time": 44770, "pitch": 69, "duration": 55, "velocity": 100}, {"time": 44825, "pitch": 55, "duration": 55, "velocity": 100}, {"time": 44825, "pitch": 74, "duration": 55, "velocity": 100}, {"time": 44880, "pitch": 43, "duration": 385, "velocity": 100}, {"time": 44880, "pitch": 55, "duration": 55, "velocity": 100}, {"time": 44880, "pitch": 59, "duration": 110, "velocity": 100}, {"time": 44880, "pitch": 79, "duration": 440, "velocity": 100}, {"time": 44990, "pitch": 59, "duration": 110, "velocity": 100}, {"time": 45045, "pitch": 50, "duration": 55, "velocity": 100}, {"time": 45100, "pitch": 50, "duration": 110, "velocity": 100}, {"time": 45155, "pitch": 55, "duration": 55, "velocity": 100}, {"time": 45210, "pitch": 59, "duration": 55, "velocity": 100}, {"time": 45265, "pitch": 50, "duration": 55, "velocity": 100}, {"time": 45320, "pitch": 43, "duration": 330, "velocity": 100}, {"time": 45320, "pitch": 50, "duration": 55, "velocity": 100}, {"time": 45320, "pitch": 55, "duration": 55, "velocity": 100}, {"time": 45320, "pitch": 79, "duration": 220, "velocity": 100}, {"time": 45375, "pitch": 50, "duration": 55, "velocity": 100}, {"time": 45430, "pitch": 55, "duration": 55, "velocity": 100}, {"time": 45485, "pitch": 50, "duration": 55, "velocity": 100}, {"time": 45540, "pitch": 50, "duration": 55, "velocity": 100}, {"time": 45540, "pitch": 59, "duration": 110, "velocity": 100}, {"time": 45540, "pitch": 74, "duration": 110, "velocity": 100}, {"time": 45595, "pitch": 50, "duration": 55, "velocity": 100}, {"time": 45650, "pitch": 55, "duration": 55, "velocity": 100}, {"time": 45650, "pitch": 71, "duration": 110, "velocity": 100}, {"time": 45705, "pitch": 50, "duration": 55, "velocity": 100}, {"time": 45760, "pitch": 43, "duration": 275, "velocity": 100}, {"time": 45760, "pitch": 55, "duration": 110, "velocity": 100}, {"time": 45760, "pitch": 62, "duration": 110, "velocity": 100}, {"time": 45870, "pitch": 50, "duration": 110, "velocity": 100}, {"time": 45980, "pitch": 55, "duration": 55, "velocity": 100}, {"time": 45980, "pitch": 59, "duration": 55, "velocity": 100}, {"time": 45980, "pitch": 62, "duration": 55, "velocity": 100}, {"time": 46035, "pitch": 50, "duration": 55, "velocity": 100}, {"time": 46035, "pitch": 64, "duration": 55, "velocity": 100}, {"time": 46090, "pitch": 55, "duration": 55, "velocity": 100}, {"time": 46090, "pitch": 62, "duration": 55, "velocity": 100}, {"time": 46145, "pitch": 59, "duration": 55, "velocity": 100}, {"time": 46200, "pitch": 43, "duration": 275, "velocity": 100}, {"time": 46200, "pitch": 55, "duration": 55, "velocity": 100}, {"time": 46200, "pitch": 59, "duration": 440, "velocity": 100}, {"time": 46310, "pitch": 55, "duration": 55, "velocity": 100}, {"time": 46420, "pitch": 55, "duration": 55, "velocity": 100}, {"time": 46420, "pitch": 62, "duration": 220, "velocity": 100}, {"time": 46530, "pitch": 59, "duration": 110, "velocity": 100}, {"time": 46640, "pitch": 43, "duration": 385, "velocity": 100}, {"time": 46640, "pitch": 55, "duration": 165, "velocity": 100}, {"time": 46640, "pitch": 59, "duration": 220, "velocity": 100}, {"time": 46750, "pitch": 50, "duration": 165, "velocity": 100}, {"time": 46860, "pitch": 59, "duration": 110, "velocity": 100}, {"time": 46860, "pitch": 62, "duration": 165, "velocity": 100}, {"time": 46915, "pitch": 67, "duration": 55, "velocity": 100}, {"time": 46970, "pitch": 50, "duration": 55, "velocity": 100}, {"time": 46970, "pitch": 62, "duration": 110, "velocity": 100}, {"time": 47025, "pitch": 55, "duration": 55, "velocity": 100}, {"time": 47025, "pitch": 59, "duration": 55, "velocity": 100}, {"time": 47080, "pitch": 43, "duration": 220, "velocity": 100}, {"time": 47080, "pitch": 55, "duration": 55, "velocity": 100}, {"time": 47080, "pitch": 59, "duration": 220, "velocity": 100}, {"time": 47080, "pitch": 62, "duration": 220, "velocity": 100}, {"time": 47190, "pitch": 55, "duration": 55, "velocity": 100}, {"time": 47300, "pitch": 59, "duration": 110, "velocity": 100}, {"time": 47300, "pitch": 62, "duration": 220, "velocity": 100}, {"time": 47410, "pitch": 55, "duration": 110, "velocity": 100}, {"time": 47410, "pitch": 60, "duration": 110, "velocity": 100}, {"time": 47520, "pitch": 43, "duration": 385, "velocity": 100}, {"time": 47520, "pitch": 55, "duration": 165, "velocity": 100}, {"time": 47520, "pitch": 59, "duration": 220, "velocity": 100}, {"time": 47630, "pitch": 50, "duration": 110, "velocity": 100}, {"time": 47740, "pitch": 55, "duration": 55, "velocity": 100}, {"time": 47740, "pitch": 59, "duration": 55, "velocity": 100}, {"time": 47740, "pitch": 62, "duration": 55, "velocity": 100}, {"time": 47795, "pitch": 50, "duration": 55, "velocity": 100}, {"time": 47850, "pitch": 57, "duration": 55, "velocity": 100}, {"time": 47850, "pitch": 62, "duration": 55, "velocity": 100}, {"time": 47905, "pitch": 59, "duration": 55, "velocity": 100}, {"time": 47905, "pitch": 62, "duration": 55, "velocity": 100}, {"time": 47960, "pitch": 43, "duration": 275, "velocity": 100}, {"time": 47960, "pitch": 55, "duration": 165, "velocity": 100}, {"time": 47960, "pitch": 59, "duration": 440, "velocity": 100}, {"time": 48180, "pitch": 55, "duration": 55, "velocity": 100}, {"time": 48180, "pitch": 62, "duration": 220, "velocity": 100}, {"time": 48290, "pitch": 55, "duration": 110, "velocity": 100}, {"time": 48290, "pitch": 59, "duration": 110, "velocity": 100}, {"time": 48400, "pitch": 43, "duration": 385, "velocity": 100}, {"time": 48400, "pitch": 55, "duration": 165, "velocity": 100}, {"time": 48400, "pitch": 59, "duration": 220, "velocity": 100}, {"time": 48510, "pitch": 50, "duration": 275, "velocity": 100}, {"time": 48620, "pitch": 55, "duration": 55, "velocity": 100}, {"time": 48620, "pitch": 59, "duration": 110, "velocity": 100}, {"time": 48620, "pitch": 62, "duration": 110, "velocity": 100}, {"time": 48620, "pitch": 71, "duration": 55, "velocity": 100}, {"time": 48675, "pitch": 74, "duration": 55, "velocity": 100}, {"time": 48730, "pitch": 55, "duration": 55, "velocity": 100}, {"time": 48785, "pitch": 74, "duration": 55, "velocity": 100}, {"time": 48840, "pitch": 43, "duration": 385, "velocity": 100}, {"time": 48840, "pitch": 55, "duration": 165, "velocity": 100}, {"time": 48840, "pitch": 59, "duration": 220, "velocity": 100}, {"time": 48840, "pitch": 74, "duration": 220, "velocity": 100}, {"time": 48950, "pitch": 55, "duration": 55, "velocity": 100}, {"time": 49005, "pitch": 74, "duration": 165, "velocity": 100}, {"time": 49060, "pitch": 55, "duration": 55, "velocity": 100}, {"time": 49060, "pitch": 59, "duration": 110, "velocity": 100}, {"time": 49115, "pitch": 71, "duration": 55, "velocity": 100}, {"time": 49170, "pitch": 62, "duration": 110, "velocity": 100}, {"time": 49280, "pitch": 43, "duration": 275, "velocity": 100}, {"time": 49280, "pitch": 55, "duration": 110, "velocity": 100}, {"time": 49280, "pitch": 62, "duration": 110, "velocity": 100}, {"time": 49390, "pitch": 50, "duration": 110, "velocity": 100}, {"time": 49500, "pitch": 55, "duration": 55, "velocity": 100}, {"time": 49500, "pitch": 59, "duration": 55, "velocity": 100}, {"time": 49500, "pitch": 62, "duration": 110, "velocity": 100}, {"time": 49500, "pitch": 67, "duration": 110, "velocity": 100}, {"time": 49555, "pitch": 50, "duration": 55, "velocity": 100}, {"time": 49610, "pitch": 55, "duration": 55, "velocity": 100}, {"time": 49610, "pitch": 62, "duration": 110, "velocity": 100}, {"time": 49720, "pitch": 43, "duration": 330, "velocity": 100}, {"time": 49720, "pitch": 55, "duration": 55, "velocity": 100}, {"time": 49720, "pitch": 59, "duration": 110, "velocity": 100}, {"time": 49720, "pitch": 62, "duration": 165, "velocity": 100}, {"time": 49830, "pitch": 55, "duration": 55, "velocity": 100}, {"time": 49940, "pitch": 55, "duration": 55, "velocity": 100}, {"time": 49940, "pitch": 62, "duration": 55, "velocity": 100}, {"time": 49995, "pitch": 64, "duration": 55, "velocity": 100}, {"time": 50050, "pitch": 59, "duration": 55, "velocity": 100}, {"time": 50050, "pitch": 62, "duration": 110, "velocity": 100}, {"time": 50105, "pitch": 60, "duration": 55, "velocity": 100}, {"time": 50160, "pitch": 43, "duration": 275, "velocity": 100}, {"time": 50160, "pitch": 55, "duration": 165, "velocity": 100}, {"time": 50160, "pitch": 59, "duration": 220, "velocity": 100}, {"time": 50270, "pitch": 50, "duration": 165, "velocity": 100}, {"time": 50380, "pitch": 59, "duration": 110, "velocity": 100}, {"time": 50380, "pitch": 62, "duration": 220, "velocity": 100}, {"time": 50380, "pitch": 67, "duration": 220, "velocity": 100}, {"time": 50490, "pitch": 50, "duration": 55, "velocity": 100}, {"time": 50545, "pitch": 55, "duration": 55, "velocity": 100}, {"time": 50600, "pitch": 43, "duration": 275, "velocity": 100}, {"time": 50600, "pitch": 55, "duration": 55, "velocity": 100}, {"time": 50600, "pitch": 59, "duration": 220, "velocity": 100}, {"time": 50600, "pitch": 62, "duration": 330, "velocity": 100}, {"time": 50710, "pitch": 55, "duration": 55, "velocity": 100}, {"time": 50820, "pitch": 59, "duration": 55, "velocity": 100}, {"time": 50820, "pitch": 62, "duration": 220, "velocity": 100}, {"time": 50930, "pitch": 55, "duration": 55, "velocity": 100}, {"time": 50930, "pitch": 59, "duration": 110, "velocity": 100}, {"time": 50930, "pitch": 62, "duration": 110, "velocity": 100}, {"time": 51040, "pitch": 43, "duration": 385, "velocity": 100}, {"time": 51040, "pitch": 55, "duration": 110, "velocity": 100}, {"time": 51040, "pitch": 59, "duration": 110, "velocity": 100}, {"time": 51040, "pitch": 67, "duration": 330, "velocity": 100}, {"time": 51150, "pitch": 50, "duration": 110, "velocity": 100}, {"time": 51260, "pitch": 55, "duration": 55, "velocity": 100}, {"time": 51260, "pitch": 59, "duration": 55, "velocity": 100}, {"time": 51260, "pitch": 62, "duration": 55, "velocity": 100}, {"time": 51315, "pitch": 50, "duration": 55, "velocity": 100}, {"time": 51315, "pitch": 57, "duration": 55, "velocity": 100}, {"time": 51370, "pitch": 57, "duration": 55, "velocity": 100}, {"time": 51370, "pitch": 62, "duration": 55, "velocity": 100}, {"time": 51425, "pitch": 59, "duration": 55, "velocity": 100}, {"time": 51425, "pitch": 67, "duration": 55, "velocity": 100}, {"time": 51480, "pitch": 43, "duration": 275, "velocity": 100}, {"time": 51480, "pitch": 55, "duration": 55, "velocity": 100}, {"time": 51480, "pitch": 59, "duration": 55, "velocity": 100}, {"time": 51480, "pitch": 62, "duration": 165, "velocity": 100}, {"time": 51700, "pitch": 55, "duration": 55, "velocity": 100}, {"time": 51700, "pitch": 62, "duration": 220, "velocity": 100}, {"time": 51810, "pitch": 55, "duration": 110, "velocity": 100}, {"time": 51920, "pitch": 43, "duration": 385, "velocity": 100}, {"time": 51920, "pitch": 55, "duration": 110, "velocity": 100}, {"time": 51920, "pitch": 59, "duration": 110, "velocity": 100}, {"time": 51920, "pitch": 71, "duration": 55, "velocity": 100}, {"time": 52030, "pitch": 50, "duration": 275, "velocity": 100}, {"time": 52085, "pitch": 74, "duration": 55, "velocity": 100}, {"time": 52140, "pitch": 55, "duration": 55, "velocity": 100}, {"time": 52140, "pitch": 59, "duration": 110, "velocity": 100}, {"time": 52140, "pitch": 62, "duration": 110, "velocity": 100}, {"time": 52195, "pitch": 74, "duration": 165, "velocity": 100}, {"time": 52250, "pitch": 55, "duration": 55, "velocity": 100}, {"time": 52360, "pitch": 43, "duration": 385, "velocity": 100}, {"time": 52360, "pitch": 55, "duration": 110, "velocity": 100}, {"time": 52360, "pitch": 59, "duration": 165, "velocity": 100}, {"time": 52360, "pitch": 62, "duration": 165, "velocity": 100}, {"time": 52360, "pitch": 67, "duration": 385, "velocity": 100}, {"time": 52470, "pitch": 50, "duration": 110, "velocity": 100}, {"time": 52525, "pitch": 55, "duration": 55, "velocity": 100}, {"time": 52580, "pitch": 55, "duration": 55, "velocity": 100}, {"time": 52580, "pitch": 62, "duration": 110, "velocity": 100}, {"time": 52580, "pitch": 64, "duration": 110, "velocity": 100}, {"time": 52635, "pitch": 50, "duration": 55, "velocity": 100}, {"time": 52690, "pitch": 55, "duration": 110, "velocity": 100}, {"time": 52745, "pitch": 59, "duration": 55, "velocity": 100}, {"time": 52800, "pitch": 43, "duration": 385, "velocity": 100}, {"time": 52910, "pitch": 52, "duration": 275, "velocity": 100}, {"time": 53020, "pitch": 59, "duration": 220, "velocity": 100}, {"time": 53020, "pitch": 64, "duration": 220, "velocity": 100}, {"time": 53020, "pitch": 71, "duration": 220, "velocity": 100}, {"time": 53240, "pitch": 40, "duration": 275, "velocity": 100}, {"time": 53240, "pitch": 52, "duration": 55, "velocity": 100}, {"time": 53240, "pitch": 59, "duration": 110, "velocity": 100}, {"time": 53350, "pitch": 47, "duration": 110, "velocity": 100}, {"time": 53460, "pitch": 52, "duration": 55, "velocity": 100}, {"time": 53460, "pitch": 55, "duration": 55, "velocity": 100}, {"time": 53460, "pitch": 62, "duration": 55, "velocity": 100}, {"time": 53515, "pitch": 57, "duration": 55, "velocity": 100}, {"time": 53570, "pitch": 54, "duration": 55, "velocity": 100}, {"time": 53570, "pitch": 57, "duration": 55, "velocity": 100}, {"time": 53625, "pitch": 54, "duration": 55, "velocity": 100}, {"time": 53625, "pitch": 57, "duration": 55, "velocity": 100}, {"time": 53680, "pitch": 40, "duration": 275, "velocity": 100}, {"time": 53680, "pitch": 52, "duration": 55, "velocity": 100}, {"time": 53680, "pitch": 55, "duration": 220, "velocity": 100}, {"time": 53790, "pitch": 52, "duration": 55, "velocity": 100}, {"time": 53900, "pitch": 52, "duration": 110, "velocity": 100}, {"time": 53900, "pitch": 59, "duration": 220, "velocity": 100}, {"time": 54010, "pitch": 57, "duration": 165, "velocity": 100}, {"time": 54120, "pitch": 40, "duration": 330, "velocity": 100}, {"time": 54120, "pitch": 52, "duration": 165, "velocity": 100}, {"time": 54120, "pitch": 55, "duration": 165, "velocity": 100}, {"time": 54230, "pitch": 47, "duration": 165, "velocity": 100}, {"time": 54340, "pitch": 55, "duration": 110, "velocity": 100}, {"time": 54340, "pitch": 59, "duration": 110, "velocity": 100}, {"time": 54395, "pitch": 62, "duration": 55, "velocity": 100}, {"time": 54450, "pitch": 52, "duration": 110, "velocity": 100}, {"time": 54505, "pitch": 54, "duration": 55, "velocity": 100}, {"time": 54505, "pitch": 57, "duration": 55, "velocity": 100}, {"time": 54560, "pitch": 40, "duration": 220, "velocity": 100}, {"time": 54560, "pitch": 52, "duration": 165, "velocity": 100}, {"time": 54560, "pitch": 55, "duration": 220, "velocity": 100}, {"time": 54670, "pitch": 54, "duration": 55, "velocity": 100}, {"time": 54780, "pitch": 55, "duration": 110, "velocity": 100}, {"time": 54780, "pitch": 59, "duration": 220, "velocity": 100}, {"time": 54890, "pitch": 52, "duration": 110, "velocity": 100}, {"time": 54890, "pitch": 57, "duration": 110, "velocity": 100}, {"time": 55000, "pitch": 40, "duration": 330, "velocity": 100}, {"time": 55000, "pitch": 52, "duration": 165, "velocity": 100}, {"time": 55000, "pitch": 55, "duration": 220, "velocity": 100}, {"time": 55110, "pitch": 47, "duration": 110, "velocity": 100}, {"time": 55220, "pitch": 52, "duration": 55, "velocity": 100}, {"time": 55220, "pitch": 57, "duration": 55, "velocity": 100}, {"time": 55220, "pitch": 59, "duration": 55, "velocity": 100}, {"time": 55275, "pitch": 47, "duration": 55, "velocity": 100}, {"time": 55275, "pitch": 57, "duration": 55, "velocity": 100}, {"time": 55330, "pitch": 54, "duration": 55, "velocity": 100}, {"time": 55330, "pitch": 57, "duration": 55, "velocity": 100}, {"time": 55385, "pitch": 54, "duration": 55, "velocity": 100}, {"time": 55385, "pitch": 59, "duration": 55, "velocity": 100}, {"time": 55440, "pitch": 40, "duration": 275, "velocity": 100}, {"time": 55440, "pitch": 52, "duration": 220, "velocity": 100}, {"time": 55440, "pitch": 55, "duration": 220, "velocity": 100}, {"time": 55660, "pitch": 52, "duration": 55, "velocity": 100}, {"time": 55660, "pitch": 59, "duration": 110, "velocity": 100}, {"time": 55770, "pitch": 52, "duration": 110, "velocity": 100}, {"time": 55770, "pitch": 57, "duration": 110, "velocity": 100}, {"time": 55880, "pitch": 40, "duration": 385, "velocity": 100}, {"time": 55880, "pitch": 52, "duration": 220, "velocity": 100}, {"time": 55880, "pitch": 55, "duration": 220, "velocity": 100}, {"time": 55990, "pitch": 47, "duration": 275, "velocity": 100}, {"time": 56100, "pitch": 52, "duration": 55, "velocity": 100}, {"time": 56100, "pitch": 55, "duration": 110, "velocity": 100}, {"time": 56100, "pitch": 59, "duration": 110, "velocity": 100}, {"time": 56100, "pitch": 69, "duration": 55, "velocity": 100}, {"time": 56155, "pitch": 69, "duration": 55, "velocity": 100}, {"time": 56210, "pitch": 52, "duration": 55, "velocity": 100}, {"time": 56265, "pitch": 74, "duration": 55, "velocity": 100}, {"time": 56320, "pitch": 45, "duration": 385, "velocity": 100}, {"time": 56320, "pitch": 57, "duration": 55, "velocity": 100}, {"time": 56320, "pitch": 64, "duration": 165, "velocity": 100}, {"time": 56320, "pitch": 76, "duration": 110, "velocity": 100}, {"time": 56375, "pitch": 79, "duration": 55, "velocity": 100}, {"time": 56430, "pitch": 57, "duration": 55, "velocity": 100}, {"time": 56485, "pitch": 76, "duration": 165, "velocity": 100}, {"time": 56540, "pitch": 57, "duration": 55, "velocity": 100}, {"time": 56540, "pitch": 64, "duration": 110, "velocity": 100}, {"time": 56595, "pitch": 76, "duration": 55, "velocity": 100}, {"time": 56650, "pitch": 64, "duration": 110, "velocity": 100}, {"time": 56760, "pitch": 45, "duration": 275, "velocity": 100}, {"time": 56760, "pitch": 57, "duration": 110, "velocity": 100}, {"time": 56760, "pitch": 64, "duration": 110, "velocity": 100}, {"time": 56870, "pitch": 52, "duration": 110, "velocity": 100}, {"time": 56980, "pitch": 57, "duration": 55, "velocity": 100}, {"time": 56980, "pitch": 60, "duration": 55, "velocity": 100}, {"time": 56980, "pitch": 64, "duration": 110, "velocity": 100}, {"time": 56980, "pitch": 69, "duration": 110, "velocity": 100}, {"time": 57035, "pitch": 52, "duration": 55, "velocity": 100}, {"time": 57090, "pitch": 57, "duration": 55, "velocity": 100}, {"time": 57090, "pitch": 64, "duration": 110, "velocity": 100}, {"time": 57200, "pitch": 45, "duration": 330, "velocity": 100}, {"time": 57200, "pitch": 57, "duration": 55, "velocity": 100}, {"time": 57200, "pitch": 60, "duration": 110, "velocity": 100}, {"time": 57200, "pitch": 67, "duration": 220, "velocity": 100}, {"time": 57310, "pitch": 57, "duration": 55, "velocity": 100}, {"time": 57420, "pitch": 57, "duration": 55, "velocity": 100}, {"time": 57420, "pitch": 64, "duration": 55, "velocity": 100}, {"time": 57475, "pitch": 67, "duration": 55, "velocity": 100}, {"time": 57530, "pitch": 60, "duration": 55, "velocity": 100}, {"time": 57530, "pitch": 64, "duration": 55, "velocity": 100}, {"time": 57585, "pitch": 60, "duration": 55, "velocity": 100}, {"time": 57640, "pitch": 45, "duration": 275, "velocity": 100}, {"time": 57640, "pitch": 57, "duration": 165, "velocity": 100}, {"time": 57640, "pitch": 60, "duration": 165, "velocity": 100}, {"time": 57750, "pitch": 52, "duration": 165, "velocity": 100}, {"time": 57860, "pitch": 60, "duration": 110, "velocity": 100}, {"time": 57860, "pitch": 64, "duration": 220, "velocity": 100}, {"time": 57860, "pitch": 69, "duration": 220, "velocity": 100}, {"time": 57970, "pitch": 52, "duration": 55, "velocity": 100}, {"time": 58025, "pitch": 57, "duration": 55, "velocity": 100}, {"time": 58080, "pitch": 52, "duration": 330, "velocity": 100}, {"time": 58080, "pitch": 57, "duration": 110, "velocity": 100}, {"time": 58080, "pitch": 64, "duration": 275, "velocity": 100}, {"time": 58190, "pitch": 57, "duration": 55, "velocity": 100}, {"time": 58300, "pitch": 60, "duration": 55, "velocity": 100}, {"time": 58300, "pitch": 64, "duration": 220, "velocity": 100}, {"time": 58410, "pitch": 57, "duration": 55, "velocity": 100}, {"time": 58410, "pitch": 60, "duration": 55, "velocity": 100}, {"time": 58410, "pitch": 64, "duration": 110, "velocity": 100}, {"time": 58520, "pitch": 45, "duration": 330, "velocity": 100}, {"time": 58520, "pitch": 57, "duration": 110, "velocity": 100}, {"time": 58520, "pitch": 64, "duration": 110, "velocity": 100}, {"time": 58520, "pitch": 69, "duration": 220, "velocity": 100}, {"time": 58630, "pitch": 52, "duration": 110, "velocity": 100}, {"time": 58740, "pitch": 57, "duration": 55, "velocity": 100}, {"time": 58740, "pitch": 64, "duration": 55, "velocity": 100}, {"time": 58795, "pitch": 52, "duration": 55, "velocity": 100}, {"time": 58795, "pitch": 67, "duration": 55, "velocity": 100}, {"time": 58850, "pitch": 60, "duration": 55, "velocity": 100}, {"time": 58850, "pitch": 64, "duration": 55, "velocity": 100}, {"time": 58905, "pitch": 62, "duration": 55, "velocity": 100}, {"time": 58905, "pitch": 67, "duration": 55, "velocity": 100}, {"time": 58960, "pitch": 45, "duration": 330, "velocity": 100}, {"time": 58960, "pitch": 57, "duration": 165, "velocity": 100}, {"time": 58960, "pitch": 60, "duration": 165, "velocity": 100}, {"time": 58960, "pitch": 67, "duration": 440, "velocity": 100}, {"time": 59180, "pitch": 57, "duration": 55, "velocity": 100}, {"time": 59180, "pitch": 64, "duration": 110, "velocity": 100}, {"time": 59290, "pitch": 57, "duration": 110, "velocity": 100}, {"time": 59400, "pitch": 45, "duration": 385, "velocity": 100}, {"time": 59400, "pitch": 57, "duration": 165, "velocity": 100}, {"time": 59400, "pitch": 60, "duration": 165, "velocity": 100}, {"time": 59400, "pitch": 72, "duration": 110, "velocity": 100}, {"time": 59510, "pitch": 52, "duration": 275, "velocity": 100}, {"time": 59565, "pitch": 74, "duration": 165, "velocity": 100}, {"time": 59620, "pitch": 57, "duration": 55, "velocity": 100}, {"time": 59620, "pitch": 60, "duration": 55, "velocity": 100}, {"time": 59620, "pitch": 64, "duration": 55, "velocity": 100}, {"time": 59675, "pitch": 74, "duration": 165, "velocity": 100}, {"time": 59730, "pitch": 57, "duration": 55, "velocity": 100}, {"time": 59840, "pitch": 45, "duration": 220, "velocity": 100}, {"time": 59840, "pitch": 60, "duration": 55, "velocity": 100}, {"time": 59840, "pitch": 64, "duration": 110, "velocity": 100}, {"time": 59895, "pitch": 52, "duration": 55, "velocity": 100}, {"time": 59950, "pitch": 57, "duration": 55, "velocity": 100}, {"time": 60005, "pitch": 60, "duration": 55, "velocity": 100}, {"time": 60060, "pitch": 45, "duration": 220, "velocity": 100}, {"time": 60060, "pitch": 57, "duration": 55, "velocity": 100}, {"time": 60060, "pitch": 64, "duration": 165, "velocity": 100}, {"time": 60060, "pitch": 67, "duration": 220, "velocity": 100}, {"time": 60115, "pitch": 52, "duration": 165, "velocity": 100}, {"time": 60170, "pitch": 60, "duration": 110, "velocity": 100}, {"time": 60225, "pitch": 64, "duration": 55, "velocity": 100}, {"time": 60280, "pitch": 45, "duration": 275, "velocity": 100}, {"time": 60280, "pitch": 52, "duration": 110, "velocity": 100}, {"time": 60280, "pitch": 60, "duration": 110, "velocity": 100}, {"time": 60280, "pitch": 64, "duration": 385, "velocity": 100}, {"time": 60280, "pitch": 69, "duration": 275, "velocity": 100}, {"time": 60390, "pitch": 48, "duration": 110, "velocity": 100}, {"time": 60445, "pitch": 52, "duration": 55, "velocity": 100}, {"time": 60500, "pitch": 52, "duration": 55, "velocity": 100}, {"time": 60500, "pitch": 57, "duration": 55, "velocity": 100}, {"time": 60500, "pitch": 60, "duration": 110, "velocity": 100}, {"time": 60555, "pitch": 48, "duration": 55, "velocity": 100}, {"time": 60610, "pitch": 52, "duration": 55, "velocity": 100}, {"time": 60720, "pitch": 45, "duration": 385, "velocity": 100}, {"time": 60720, "pitch": 57, "duration": 165, "velocity": 100}, {"time": 60720, "pitch": 60, "duration": 165, "velocity": 100}, {"time": 60720, "pitch": 69, "duration": 440, "velocity": 100}, {"time": 60720, "pitch": 72, "duration": 440, "velocity": 100}, {"time": 60830, "pitch": 52, "duration": 165, "velocity": 100}, {"time": 60940, "pitch": 57, "duration": 55, "velocity": 100}, {"time": 60940, "pitch": 60, "duration": 110, "velocity": 100}, {"time": 60940, "pitch": 64, "duration": 110, "velocity": 100}, {"time": 61050, "pitch": 52, "duration": 55, "velocity": 100}, {"time": 61105, "pitch": 57, "duration": 55, "velocity": 100}, {"time": 61160, "pitch": 33, "duration": 275, "velocity": 100}, {"time": 61160, "pitch": 57, "duration": 165, "velocity": 100}, {"time": 61160, "pitch": 60, "duration": 165, "velocity": 100}, {"time": 61160, "pitch": 64, "duration": 275, "velocity": 100}, {"time": 61160, "pitch": 69, "duration": 440, "velocity": 100}, {"time": 61270, "pitch": 45, "duration": 110, "velocity": 100}, {"time": 61380, "pitch": 57, "duration": 55, "velocity": 100}, {"time": 61380, "pitch": 60, "duration": 55, "velocity": 100}, {"time": 61380, "pitch": 64, "duration": 165, "velocity": 100}, {"time": 61435, "pitch": 45, "duration": 55, "velocity": 100}, {"time": 61490, "pitch": 57, "duration": 55, "velocity": 100}, {"time": 61600, "pitch": 45, "duration": 330, "velocity": 100}, {"time": 61600, "pitch": 57, "duration": 165, "velocity": 100}, {"time": 61600, "pitch": 60, "duration": 110, "velocity": 100}, {"time": 61600, "pitch": 64, "duration": 110, "velocity": 100}, {"time": 61600, "pitch": 69, "duration": 440, "velocity": 100}, {"time": 61600, "pitch": 72, "duration": 440, "velocity": 100}, {"time": 61710, "pitch": 52, "duration": 110, "velocity": 100}, {"time": 61820, "pitch": 57, "duration": 110, "velocity": 100}, {"time": 61820, "pitch": 60, "duration": 110, "velocity": 100}, {"time": 61820, "pitch": 64, "duration": 110, "velocity": 100}, {"time": 61930, "pitch": 52, "duration": 55, "velocity": 100}, {"time": 62040, "pitch": 45, "duration": 330, "velocity": 100}, {"time": 62040, "pitch": 57, "duration": 110, "velocity": 100}, {"time": 62040, "pitch": 60, "duration": 110, "velocity": 100}, {"time": 62040, "pitch": 64, "duration": 275, "velocity": 100}, {"time": 62040, "pitch": 69, "duration": 385, "velocity": 100}, {"time": 62150, "pitch": 52, "duration": 110, "velocity": 100}, {"time": 62260, "pitch": 57, "duration": 55, "velocity": 100}, {"time": 62260, "pitch": 60, "duration": 55, "velocity": 100}, {"time": 62260, "pitch": 64, "duration": 165, "velocity": 100}, {"time": 62315, "pitch": 52, "duration": 110, "velocity": 100}, {"time": 62370, "pitch": 55, "duration": 55, "velocity": 100}, {"time": 62480, "pitch": 45, "duration": 275, "velocity": 100}, {"time": 62480, "pitch": 57, "duration": 110, "velocity": 100}, {"time": 62480, "pitch": 60, "duration": 110, "velocity": 100}, {"time": 62480, "pitch": 64, "duration": 165, "velocity": 100}, {"time": 62480, "pitch": 72, "duration": 220, "velocity": 100}, {"time": 62590, "pitch": 52, "duration": 110, "velocity": 100}, {"time": 62700, "pitch": 57, "duration": 55, "velocity": 100}, {"time": 62700, "pitch": 60, "duration": 110, "velocity": 100}, {"time": 62700, "pitch": 64, "duration": 110, "velocity": 100}, {"time": 62700, "pitch": 69, "duration": 220, "velocity": 100}, {"time": 62755, "pitch": 52, "duration": 55, "velocity": 100}, {"time": 62810, "pitch": 45, "duration": 55, "velocity": 100}, {"time": 62920, "pitch": 33, "duration": 330, "velocity": 100}, {"time": 62920, "pitch": 52, "duration": 55, "velocity": 100}, {"time": 62920, "pitch": 57, "duration": 110, "velocity": 100}, {"time": 62920, "pitch": 60, "duration": 110, "velocity": 100}, {"time": 62920, "pitch": 69, "duration": 330, "velocity": 100}, {"time": 62975, "pitch": 40, "duration": 220, "velocity": 100}, {"time": 63030, "pitch": 52, "duration": 55, "velocity": 100}, {"time": 63085, "pitch": 57, "duration": 55, "velocity": 100}, {"time": 63140, "pitch": 52, "duration": 110, "velocity": 100}, {"time": 63140, "pitch": 60, "duration": 110, "velocity": 100}, {"time": 63140, "pitch": 64, "duration": 110, "velocity": 100}, {"time": 63250, "pitch": 40, "duration": 55, "velocity": 100}, {"time": 63250, "pitch": 69, "duration": 55, "velocity": 100}, {"time": 63305, "pitch": 69, "duration": 55, "velocity": 100}, {"time": 63360, "pitch": 40, "duration": 165, "velocity": 100}, {"time": 63360, "pitch": 64, "duration": 55, "velocity": 100}, {"time": 63360, "pitch": 67, "duration": 110, "velocity": 100}, {"time": 63360, "pitch": 71, "duration": 110, "velocity": 100}, {"time": 63360, "pitch": 76, "duration": 165, "velocity": 100}, {"time": 63360, "pitch": 83, "duration": 220, "velocity": 100}, {"time": 63415, "pitch": 47, "duration": 55, "velocity": 100}, {"time": 63470, "pitch": 67, "duration": 55, "velocity": 100}, {"time": 63525, "pitch": 71, "duration": 55, "velocity": 100}, {"time": 63580, "pitch": 40, "duration": 220, "velocity": 100}, {"time": 63580, "pitch": 67, "duration": 110, "velocity": 100}, {"time": 63580, "pitch": 71, "duration": 110, "velocity": 100}, {"time": 63580, "pitch": 79, "duration": 220, "velocity": 100}, {"time": 63580, "pitch": 83, "duration": 220, "velocity": 100}, {"time": 63635, "pitch": 47, "duration": 110, "velocity": 100}, {"time": 63690, "pitch": 64, "duration": 55, "velocity": 100}, {"time": 63745, "pitch": 67, "duration": 55, "velocity": 100}, {"time": 63800, "pitch": 40, "duration": 330, "velocity": 100}, {"time": 63800, "pitch": 59, "duration": 55, "velocity": 100}, {"time": 63800, "pitch": 67, "duration": 55, "velocity": 100}, {"time": 63800, "pitch": 83, "duration": 275, "velocity": 100}, {"time": 63800, "pitch": 88, "duration": 330, "velocity": 100}, {"time": 63855, "pitch": 47, "duration": 220, "velocity": 100}, {"time": 63910, "pitch": 64, "duration": 55, "velocity": 100}, {"time": 63965, "pitch": 64, "duration": 55, "velocity": 100}, {"time": 64020, "pitch": 59, "duration": 55, "velocity": 100}, {"time": 64020, "pitch": 71, "duration": 55, "velocity": 100}, {"time": 64020, "pitch": 88, "duration": 220, "velocity": 100}, {"time": 64075, "pitch": 59, "duration": 55, "velocity": 100}, {"time": 64130, "pitch": 67, "duration": 55, "velocity": 100}, {"time": 64130, "pitch": 88, "duration": 110, "velocity": 100}, {"time": 64185, "pitch": 59, "duration": 55, "velocity": 100}, {"time": 64240, "pitch": 52, "duration": 275, "velocity": 100}, {"time": 64240, "pitch": 64, "duration": 55, "velocity": 100}, {"time": 64240, "pitch": 67, "duration": 55, "velocity": 100}, {"time": 64240, "pitch": 88, "duration": 440, "velocity": 100}, {"time": 64350, "pitch": 67, "duration": 55, "velocity": 100}, {"time": 64405, "pitch": 64, "duration": 55, "velocity": 100}, {"time": 64460, "pitch": 64, "duration": 55, "velocity": 100}, {"time": 64460, "pitch": 71, "duration": 55, "velocity": 100}, {"time": 64515, "pitch": 59, "duration": 55, "velocity": 100}, {"time": 64570, "pitch": 67, "duration": 55, "velocity": 100}, {"time": 64625, "pitch": 64, "duration": 55, "velocity": 100}, {"time": 64680, "pitch": 40, "duration": 275, "velocity": 100}, {"time": 64680, "pitch": 64, "duration": 55, "velocity": 100}, {"time": 64680, "pitch": 71, "duration": 110, "velocity": 100}, {"time": 64735, "pitch": 52, "duration": 165, "velocity": 100}, {"time": 64790, "pitch": 67, "duration": 55, "velocity": 100}, {"time": 64790, "pitch": 86, "duration": 110, "velocity": 100}, {"time": 64845, "pitch": 64, "duration": 55, "velocity": 100}, {"time": 64900, "pitch": 64, "duration": 55, "velocity": 100}, {"time": 64900, "pitch": 67, "duration": 110, "velocity": 100}, {"time": 64900, "pitch": 86, "duration": 110, "velocity": 100}, {"time": 64955, "pitch": 52, "duration": 55, "velocity": 100}, {"time": 65010, "pitch": 64, "duration": 55, "velocity": 100}, {"time": 65010, "pitch": 83, "duration": 110, "velocity": 100}, {"time": 65120, "pitch": 52, "duration": 385, "velocity": 100}, {"time": 65120, "pitch": 64, "duration": 55, "velocity": 100}, {"time": 65120, "pitch": 67, "duration": 110, "velocity": 100}, {"time": 65120, "pitch": 79, "duration": 330, "velocity": 100}, {"time": 65175, "pitch": 59, "duration": 55, "velocity": 100}, {"time": 65230, "pitch": 64, "duration": 55, "velocity": 100}, {"time": 65285, "pitch": 59, "duration": 55, "velocity": 100}, {"time": 65340, "pitch": 64, "duration": 55, "velocity": 100}, {"time": 65340, "pitch": 71, "duration": 110, "velocity": 100}, {"time": 65395, "pitch": 59, "duration": 55, "velocity": 100}, {"time": 65450, "pitch": 67, "duration": 55, "velocity": 100}, {"time": 65450, "pitch": 86, "duration": 55, "velocity": 100}, {"time": 65505, "pitch": 64, "duration": 55, "velocity": 100}, {"time": 65505, "pitch": 86, "duration": 55, "velocity": 100}, {"time": 65560, "pitch": 52, "duration": 385, "velocity": 100}, {"time": 65560, "pitch": 64, "duration": 55, "velocity": 100}, {"time": 65560, "pitch": 67, "duration": 220, "velocity": 100}, {"time": 65615, "pitch": 59, "duration": 165, "velocity": 100}, {"time": 65670, "pitch": 64, "duration": 110, "velocity": 100}, {"time": 65780, "pitch": 67, "duration": 110, "velocity": 100}, {"time": 65835, "pitch": 59, "duration": 110, "velocity": 100}, {"time": 65890, "pitch": 64, "duration": 55, "velocity": 100}, {"time": 65890, "pitch": 83, "duration": 55, "velocity": 100}, {"time": 65945, "pitch": 64, "duration": 55, "velocity": 100}, {"time": 65945, "pitch": 86, "duration": 55, "velocity": 100}, {"time": 66000, "pitch": 52, "duration": 385, "velocity": 100}, {"time": 66000, "pitch": 64, "duration": 55, "velocity": 100}, {"time": 66000, "pitch": 67, "duration": 110, "velocity": 100}, {"time": 66000, "pitch": 83, "duration": 330, "velocity": 100}, {"time": 66110, "pitch": 67, "duration": 110, "velocity": 100}, {"time": 66165, "pitch": 64, "duration": 55, "velocity": 100}, {"time": 66220, "pitch": 59, "duration": 55, "velocity": 100}, {"time": 66275, "pitch": 64, "duration": 55, "velocity": 100}, {"time": 66330, "pitch": 67, "duration": 55, "velocity": 100}, {"time": 66385, "pitch": 64, "duration": 55, "velocity": 100}, {"time": 66440, "pitch": 52, "duration": 275, "velocity": 100}, {"time": 66440, "pitch": 59, "duration": 55, "velocity": 100}, {"time": 66440, "pitch": 64, "duration": 110, "velocity": 100}, {"time": 66440, "pitch": 88, "duration": 220, "velocity": 100}, {"time": 66495, "pitch": 59, "duration": 55, "velocity": 100}, {"time": 66550, "pitch": 64, "duration": 55, "velocity": 100}, {"time": 66605, "pitch": 59, "duration": 55, "velocity": 100}, {"time": 66660, "pitch": 59, "duration": 55, "velocity": 100}, {"time": 66660, "pitch": 67, "duration": 110, "velocity": 100}, {"time": 66660, "pitch": 86, "duration": 110, "velocity": 100}, {"time": 66715, "pitch": 59, "duration": 55, "velocity": 100}, {"time": 66770, "pitch": 67, "duration": 55, "velocity": 100}, {"time": 66770, "pitch": 83, "duration": 110, "velocity": 100}, {"time": 66825, "pitch": 59, "duration": 55, "velocity": 100}, {"time": 66880, "pitch": 40, "duration": 275, "velocity": 100}, {"time": 66880, "pitch": 52, "duration": 55, "velocity": 100}, {"time": 66880, "pitch": 55, "duration": 110, "velocity": 100}, {"time": 66880, "pitch": 67, "duration": 440, "velocity": 100}, {"time": 66935, "pitch": 47, "duration": 275, "velocity": 100}, {"time": 66990, "pitch": 52, "duration": 55, "velocity": 100}, {"time": 67045, "pitch": 55, "duration": 55, "velocity": 100}, {"time": 67100, "pitch": 59, "duration": 55, "velocity": 100}, {"time": 67155, "pitch": 52, "duration": 55, "velocity": 100}, {"time": 67210, "pitch": 55, "duration": 55, "velocity": 100}, {"time": 67265, "pitch": 52, "duration": 55, "velocity": 100}, {"time": 67320, "pitch": 40, "duration": 330, "velocity": 100}, {"time": 67320, "pitch": 55, "duration": 110, "velocity": 100}, {"time": 67320, "pitch": 64, "duration": 385, "velocity": 100}, {"time": 67320, "pitch": 67, "duration": 440, "velocity": 100}, {"time": 67375, "pitch": 47, "duration": 275, "velocity": 100}, {"time": 67430, "pitch": 52, "duration": 110, "velocity": 100}, {"time": 67485, "pitch": 52, "duration": 55, "velocity": 100}, {"time": 67540, "pitch": 59, "duration": 110, "velocity": 100}, {"time": 67595, "pitch": 55, "duration": 55, "velocity": 100}, {"time": 67650, "pitch": 52, "duration": 55, "velocity": 100}, {"time": 67705, "pitch": 47, "duration": 55, "velocity": 100}, {"time": 67760, "pitch": 40, "duration": 385, "velocity": 100}, {"time": 67760, "pitch": 47, "duration": 55, "velocity": 100}, {"time": 67760, "pitch": 52, "duration": 110, "velocity": 100}, {"time": 67760, "pitch": 64, "duration": 440, "velocity": 100}, {"time": 67815, "pitch": 47, "duration": 165, "velocity": 100}, {"time": 67870, "pitch": 55, "duration": 55, "velocity": 100}, {"time": 67925, "pitch": 47, "duration": 165, "velocity": 100}, {"time": 67980, "pitch": 59, "duration": 220, "velocity": 100}, {"time": 68035, "pitch": 47, "duration": 55, "velocity": 100}, {"time": 68090, "pitch": 52, "duration": 55, "velocity": 100}, {"time": 68090, "pitch": 57, "duration": 110, "velocity": 100}, {"time": 68145, "pitch": 47, "duration": 55, "velocity": 100}, {"time": 68200, "pitch": 40, "duration": 440, "velocity": 100}, {"time": 68200, "pitch": 55, "duration": 220, "velocity": 100}, {"time": 68200, "pitch": 59, "duration": 440, "velocity": 100}, {"time": 68255, "pitch": 47, "duration": 220, "velocity": 100}, {"time": 68310, "pitch": 52, "duration": 55, "velocity": 100}, {"time": 68365, "pitch": 55, "duration": 55, "velocity": 100}, {"time": 68420, "pitch": 52, "duration": 55, "velocity": 100}, {"time": 68420, "pitch": 55, "duration": 110, "velocity": 100}, {"time": 68475, "pitch": 47, "duration": 55, "velocity": 100}, {"time": 68530, "pitch": 52, "duration": 55, "velocity": 100}, {"time": 68585, "pitch": 55, "duration": 55, "velocity": 100}, {"time": 68640, "pitch": 40, "duration": 330, "velocity": 100}, {"time": 68640, "pitch": 55, "duration": 220, "velocity": 100}, {"time": 68640, "pitch": 59, "duration": 330, "velocity": 100}, {"time": 68695, "pitch": 47, "duration": 165, "velocity": 100}, {"time": 68750, "pitch": 52, "duration": 55, "velocity": 100}, {"time": 68805, "pitch": 55, "duration": 55, "velocity": 100}, {"time": 68860, "pitch": 59, "duration": 330, "velocity": 100}, {"time": 68915, "pitch": 52, "duration": 55, "velocity": 100}, {"time": 68970, "pitch": 55, "duration": 55, "velocity": 100}, {"time": 69025, "pitch": 52, "duration": 55, "velocity": 100}, {"time": 69080, "pitch": 40, "duration": 330, "velocity": 100}, {"time": 69080, "pitch": 59, "duration": 220, "velocity": 100}, {"time": 69080, "pitch": 62, "duration": 220, "velocity": 100}, {"time": 69135, "pitch": 47, "duration": 220, "velocity": 100}, {"time": 69190, "pitch": 52, "duration": 55, "velocity": 100}, {"time": 69245, "pitch": 55, "duration": 55, "velocity": 100}, {"time": 69300, "pitch": 59, "duration": 110, "velocity": 100}, {"time": 69355, "pitch": 47, "duration": 55, "velocity": 100}, {"time": 69410, "pitch": 55, "duration": 55, "velocity": 100}, {"time": 69410, "pitch": 59, "duration": 110, "velocity": 100}, {"time": 69465, "pitch": 52, "duration": 55, "velocity": 100}, {"time": 69520, "pitch": 40, "duration": 495, "velocity": 100}, {"time": 69520, "pitch": 55, "duration": 110, "velocity": 100}, {"time": 69520, "pitch": 59, "duration": 220, "velocity": 100}, {"time": 69520, "pitch": 64, "duration": 220, "velocity": 100}, {"time": 69520, "pitch": 67, "duration": 880, "velocity": 100}, {"time": 69630, "pitch": 47, "duration": 165, "velocity": 100}, {"time": 69740, "pitch": 55, "duration": 55, "velocity": 100}, {"time": 69740, "pitch": 59, "duration": 110, "velocity": 100}, {"time": 69850, "pitch": 52, "duration": 165, "velocity": 100}, {"time": 69960, "pitch": 55, "duration": 55, "velocity": 100}, {"time": 69960, "pitch": 59, "duration": 165, "velocity": 100}, {"time": 70070, "pitch": 69, "duration": 110, "velocity": 100}, {"time": 70180, "pitch": 52, "duration": 55, "velocity": 100}, {"time": 70180, "pitch": 55, "duration": 165, "velocity": 100}, {"time": 70180, "pitch": 59, "duration": 165, "velocity": 100}, {"time": 70235, "pitch": 71, "duration": 165, "velocity": 100}, {"time": 70345, "pitch": 74, "duration": 55, "velocity": 100}, {"time": 70400, "pitch": 40, "duration": 275, "velocity": 100}, {"time": 70400, "pitch": 52, "duration": 110, "velocity": 100}, {"time": 70400, "pitch": 59, "duration": 110, "velocity": 100}, {"time": 70510, "pitch": 47, "duration": 110, "velocity": 100}, {"time": 70620, "pitch": 52, "duration": 55, "velocity": 100}, {"time": 70620, "pitch": 55, "duration": 55, "velocity": 100}, {"time": 70675, "pitch": 45, "duration": 55, "velocity": 100}, {"time": 70730, "pitch": 50, "duration": 55, "velocity": 100}, {"time": 70730, "pitch": 59, "duration": 55, "velocity": 100}, {"time": 70785, "pitch": 55, "duration": 55, "velocity": 100}, {"time": 70840, "pitch": 38, "duration": 275, "velocity": 100}, {"time": 70840, "pitch": 50, "duration": 165, "velocity": 100}, {"time": 70840, "pitch": 54, "duration": 220, "velocity": 100}, {"time": 70950, "pitch": 50, "duration": 55, "velocity": 100}, {"time": 71060, "pitch": 54, "duration": 220, "velocity": 100}, {"time": 71060, "pitch": 57, "duration": 220, "velocity": 100}, {"time": 71170, "pitch": 54, "duration": 165, "velocity": 100}, {"time": 71280, "pitch": 38, "duration": 385, "velocity": 100}, {"time": 71280, "pitch": 50, "duration": 220, "velocity": 100}, {"time": 71280, "pitch": 54, "duration": 220, "velocity": 100}, {"time": 71390, "pitch": 45, "duration": 165, "velocity": 100}, {"time": 71500, "pitch": 54, "duration": 110, "velocity": 100}, {"time": 71500, "pitch": 57, "duration": 110, "velocity": 100}, {"time": 71555, "pitch": 59, "duration": 55, "velocity": 100}, {"time": 71610, "pitch": 45, "duration": 55, "velocity": 100}, {"time": 71610, "pitch": 57, "duration": 55, "velocity": 100}, {"time": 71665, "pitch": 50, "duration": 55, "velocity": 100}, {"time": 71665, "pitch": 57, "duration": 55, "velocity": 100}, {"time": 71720, "pitch": 50, "duration": 55, "velocity": 100}, {"time": 71720, "pitch": 54, "duration": 220, "velocity": 100}, {"time": 71830, "pitch": 50, "duration": 55, "velocity": 100}, {"time": 71940, "pitch": 54, "duration": 110, "velocity": 100}, {"time": 71940, "pitch": 57, "duration": 220, "velocity": 100}, {"time": 72050, "pitch": 50, "duration": 110, "velocity": 100}, {"time": 72050, "pitch": 54, "duration": 110, "velocity": 100}, {"time": 72160, "pitch": 38, "duration": 385, "velocity": 100}, {"time": 72160, "pitch": 50, "duration": 165, "velocity": 100}, {"time": 72160, "pitch": 54, "duration": 165, "velocity": 100}, {"time": 72270, "pitch": 45, "duration": 110, "velocity": 100}, {"time": 72380, "pitch": 50, "duration": 55, "velocity": 100}, {"time": 72380, "pitch": 54, "duration": 55, "velocity": 100}, {"time": 72380, "pitch": 57, "duration": 55, "velocity": 100}, {"time": 72435, "pitch": 45, "duration": 55, "velocity": 100}, {"time": 72435, "pitch": 62, "duration": 55, "velocity": 100}, {"time": 72490, "pitch": 52, "duration": 55, "velocity": 100}, {"time": 72490, "pitch": 57, "duration": 55, "velocity": 100}, {"time": 72545, "pitch": 54, "duration": 55, "velocity": 100}, {"time": 72545, "pitch": 57, "duration": 55, "velocity": 100}, {"time": 72600, "pitch": 38, "duration": 275, "velocity": 100}, {"time": 72600, "pitch": 50, "duration": 165, "velocity": 100}, {"time": 72600, "pitch": 54, "duration": 220, "velocity": 100}, {"time": 72820, "pitch": 50, "duration": 110, "velocity": 100}, {"time": 72820, "pitch": 57, "duration": 220, "velocity": 100}, {"time": 72930, "pitch": 50, "duration": 110, "velocity": 100}, {"time": 72930, "pitch": 54, "duration": 110, "velocity": 100}, {"time": 73040, "pitch": 38, "duration": 385, "velocity": 100}, {"time": 73040, "pitch": 50, "duration": 165, "velocity": 100}, {"time": 73040, "pitch": 54, "duration": 165, "velocity": 100}, {"time": 73150, "pitch": 45, "duration": 275, "velocity": 100}, {"time": 73260, "pitch": 50, "duration": 55, "velocity": 100}, {"time": 73260, "pitch": 54, "duration": 110, "velocity": 100}, {"time": 73260, "pitch": 57, "duration": 110, "velocity": 100}, {"time": 73260, "pitch": 66, "duration": 55, "velocity": 100}, {"time": 73315, "pitch": 67, "duration": 55, "velocity": 100}, {"time": 73370, "pitch": 50, "duration": 55, "velocity": 100}, {"time": 73425, "pitch": 69, "duration": 55, "velocity": 100}, {"time": 73480, "pitch": 38, "duration": 385, "velocity": 100}, {"time": 73480, "pitch": 50, "duration": 165, "velocity": 100}, {"time": 73480, "pitch": 54, "duration": 220, "velocity": 100}, {"time": 73480, "pitch": 69, "duration": 165, "velocity": 100}, {"time": 73590, "pitch": 50, "duration": 55, "velocity": 100}, {"time": 73645, "pitch": 71, "duration": 165, "velocity": 100}, {"time": 73700, "pitch": 50, "duration": 55, "velocity": 100}, {"time": 73700, "pitch": 54, "duration": 110, "velocity": 100}, {"time": 73755, "pitch": 69, "duration": 165, "velocity": 100}, {"time": 73810, "pitch": 57, "duration": 110, "velocity": 100}, {"time": 73920, "pitch": 38, "duration": 275, "velocity": 100}, {"time": 73920, "pitch": 50, "duration": 110, "velocity": 100}, {"time": 73920, "pitch": 57, "duration": 110, "velocity": 100}, {"time": 74030, "pitch": 45, "duration": 110, "velocity": 100}, {"time": 74140, "pitch": 50, "duration": 55, "velocity": 100}, {"time": 74140, "pitch": 54, "duration": 55, "velocity": 100}, {"time": 74140, "pitch": 57, "duration": 110, "velocity": 100}, {"time": 74140, "pitch": 62, "duration": 110, "velocity": 100}, {"time": 74195, "pitch": 45, "duration": 55, "velocity": 100}, {"time": 74250, "pitch": 50, "duration": 55, "velocity": 100}, {"time": 74250, "pitch": 57, "duration": 110, "velocity": 100}, {"time": 74360, "pitch": 38, "duration": 275, "velocity": 100}, {"time": 74360, "pitch": 50, "duration": 55, "velocity": 100}, {"time": 74360, "pitch": 54, "duration": 55, "velocity": 100}, {"time": 74360, "pitch": 57, "duration": 165, "velocity": 100}, {"time": 74470, "pitch": 50, "duration": 55, "velocity": 100}, {"time": 74580, "pitch": 50, "duration": 55, "velocity": 100}, {"time": 74580, "pitch": 57, "duration": 55, "velocity": 100}, {"time": 74635, "pitch": 59, "duration": 55, "velocity": 100}, {"time": 74690, "pitch": 54, "duration": 55, "velocity": 100}, {"time": 74690, "pitch": 57, "duration": 110, "velocity": 100}, {"time": 74745, "pitch": 54, "duration": 55, "velocity": 100}, {"time": 74800, "pitch": 38, "duration": 275, "velocity": 100}, {"time": 74800, "pitch": 50, "duration": 165, "velocity": 100}, {"time": 74800, "pitch": 54, "duration": 220, "velocity": 100}, {"time": 74910, "pitch": 45, "duration": 165, "velocity": 100}, {"time": 75020, "pitch": 54, "duration": 55, "velocity": 100}, {"time": 75020, "pitch": 57, "duration": 220, "velocity": 100}, {"time": 75020, "pitch": 62, "duration": 220, "velocity": 100}, {"time": 75130, "pitch": 45, "duration": 55, "velocity": 100}, {"time": 75185, "pitch": 50, "duration": 55, "velocity": 100}, {"time": 75240, "pitch": 38, "duration": 275, "velocity": 100}, {"time": 75240, "pitch": 50, "duration": 55, "velocity": 100}, {"time": 75240, "pitch": 54, "duration": 220, "velocity": 100}, {"time": 75240, "pitch": 57, "duration": 220, "velocity": 100}, {"time": 75240, "pitch": 59, "duration": 440, "velocity": 100}, {"time": 75350, "pitch": 50, "duration": 55, "velocity": 100}, {"time": 75460, "pitch": 54, "duration": 110, "velocity": 100}, {"time": 75460, "pitch": 57, "duration": 110, "velocity": 100}, {"time": 75570, "pitch": 50, "duration": 55, "velocity": 100}, {"time": 75570, "pitch": 54, "duration": 110, "velocity": 100}, {"time": 75570, "pitch": 57, "duration": 110, "velocity": 100}, {"time": 75680, "pitch": 38, "duration": 385, "velocity": 100}, {"time": 75680, "pitch": 50, "duration": 110, "velocity": 100}, {"time": 75680, "pitch": 54, "duration": 110, "velocity": 100}, {"time": 75680, "pitch": 62, "duration": 220, "velocity": 100}, {"time": 75790, "pitch": 45, "duration": 110, "velocity": 100}, {"time": 75900, "pitch": 50, "duration": 55, "velocity": 100}, {"time": 75900, "pitch": 54, "duration": 55, "velocity": 100}, {"time": 75900, "pitch": 57, "duration": 55, "velocity": 100}, {"time": 75955, "pitch": 45, "duration": 55, "velocity": 100}, {"time": 75955, "pitch": 54, "duration": 55, "velocity": 100}, {"time": 76010, "pitch": 52, "duration": 55, "velocity": 100}, {"time": 76010, "pitch": 57, "duration": 55, "velocity": 100}, {"time": 76065, "pitch": 54, "duration": 55, "velocity": 100}, {"time": 76065, "pitch": 59, "duration": 55, "velocity": 100}, {"time": 76120, "pitch": 38, "duration": 275, "velocity": 100}, {"time": 76120, "pitch": 50, "duration": 55, "velocity": 100}, {"time": 76120, "pitch": 54, "duration": 165, "velocity": 100}, {"time": 76120, "pitch": 57, "duration": 165, "velocity": 100}, {"time": 76340, "pitch": 54, "duration": 110, "velocity": 100}, {"time": 76340, "pitch": 57, "duration": 220, "velocity": 100}, {"time": 76450, "pitch": 50, "duration": 110, "velocity": 100}, {"time": 76560, "pitch": 38, "duration": 385, "velocity": 100}, {"time": 76560, "pitch": 50, "duration": 110, "velocity": 100}, {"time": 76560, "pitch": 54, "duration": 110, "velocity": 100}, {"time": 76560, "pitch": 66, "duration": 110, "velocity": 100}, {"time": 76670, "pitch": 45, "duration": 275, "velocity": 100}, {"time": 76725, "pitch": 66, "duration": 110, "velocity": 100}, {"time": 76780, "pitch": 50, "duration": 110, "velocity": 100}, {"time": 76780, "pitch": 54, "duration": 55, "velocity": 100}, {"time": 76780, "pitch": 57, "duration": 55, "velocity": 100}, {"time": 76835, "pitch": 69, "duration": 55, "velocity": 100}, {"time": 76890, "pitch": 50, "duration": 55, "velocity": 100}, {"time": 77000, "pitch": 38, "duration": 385, "velocity": 100}, {"time": 77000, "pitch": 50, "duration": 110, "velocity": 100}, {"time": 77000, "pitch": 54, "duration": 165, "velocity": 100}, {"time": 77000, "pitch": 57, "duration": 165, "velocity": 100}, {"time": 77000, "pitch": 62, "duration": 165, "velocity": 100}, {"time": 77000, "pitch": 64, "duration": 330, "velocity": 100}, {"time": 77110, "pitch": 45, "duration": 110, "velocity": 100}, {"time": 77165, "pitch": 50, "duration": 55, "velocity": 100}, {"time": 77220, "pitch": 50, "duration": 55, "velocity": 100}, {"time": 77220, "pitch": 54, "duration": 110, "velocity": 100}, {"time": 77220, "pitch": 57, "duration": 110, "velocity": 100}, {"time": 77275, "pitch": 45, "duration": 165, "velocity": 100}, {"time": 77330, "pitch": 54, "duration": 110, "velocity": 100}, {"time": 77385, "pitch": 57, "duration": 55, "velocity": 100}, {"time": 77440, "pitch": 50, "duration": 385, "velocity": 100}, {"time": 77550, "pitch": 57, "duration": 330, "velocity": 100}, {"time": 77660, "pitch": 62, "duration": 220, "velocity": 100}, {"time": 77660, "pitch": 66, "duration": 220, "velocity": 100}, {"time": 77660, "pitch": 74, "duration": 220, "velocity": 100}, {"time": 77880, "pitch": 43, "duration": 275, "velocity": 100}, {"time": 77880, "pitch": 55, "duration": 110, "velocity": 100}, {"time": 77880, "pitch": 62, "duration": 110, "velocity": 100}, {"time": 77990, "pitch": 50, "duration": 110, "velocity": 100}, {"time": 78100, "pitch": 55, "duration": 55, "velocity": 100}, {"time": 78100, "pitch": 59, "duration": 55, "velocity": 100}, {"time": 78100, "pitch": 64, "duration": 55, "velocity": 100}, {"time": 78155, "pitch": 57, "duration": 55, "velocity": 100}, {"time": 78210, "pitch": 57, "duration": 55, "velocity": 100}, {"time": 78210, "pitch": 62, "duration": 55, "velocity": 100}, {"time": 78265, "pitch": 57, "duration": 55, "velocity": 100}, {"time": 78265, "pitch": 59, "duration": 55, "velocity": 100}, {"time": 78320, "pitch": 43, "duration": 275, "velocity": 100}, {"time": 78320, "pitch": 55, "duration": 55, "velocity": 100}, {"time": 78320, "pitch": 59, "duration": 220, "velocity": 100}, {"time": 78430, "pitch": 55, "duration": 55, "velocity": 100}, {"time": 78540, "pitch": 57, "duration": 110, "velocity": 100}, {"time": 78540, "pitch": 62, "duration": 220, "velocity": 100}, {"time": 78650, "pitch": 59, "duration": 165, "velocity": 100}, {"time": 78760, "pitch": 43, "duration": 330, "velocity": 100}, {"time": 78760, "pitch": 55, "duration": 165, "velocity": 100}, {"time": 78760, "pitch": 59, "duration": 220, "velocity": 100}, {"time": 78870, "pitch": 50, "duration": 165, "velocity": 100}, {"time": 78980, "pitch": 59, "duration": 110, "velocity": 100}, {"time": 78980, "pitch": 62, "duration": 110, "velocity": 100}, {"time": 79035, "pitch": 64, "duration": 55, "velocity": 100}, {"time": 79090, "pitch": 55, "duration": 110, "velocity": 100}, {"time": 79145, "pitch": 57, "duration": 55, "velocity": 100}, {"time": 79200, "pitch": 43, "duration": 220, "velocity": 100}, {"time": 79200, "pitch": 55, "duration": 165, "velocity": 100}, {"time": 79200, "pitch": 59, "duration": 330, "velocity": 100}, {"time": 79310, "pitch": 55, "duration": 55, "velocity": 100}, {"time": 79420, "pitch": 59, "duration": 220, "velocity": 100}, {"time": 79420, "pitch": 62, "duration": 110, "velocity": 100}, {"time": 79530, "pitch": 55, "duration": 110, "velocity": 100}, {"time": 79530, "pitch": 59, "duration": 110, "velocity": 100}, {"time": 79640, "pitch": 43, "duration": 330, "velocity": 100}, {"time": 79640, "pitch": 55, "duration": 220, "velocity": 100}, {"time": 79640, "pitch": 59, "duration": 220, "velocity": 100}, {"time": 79750, "pitch": 50, "duration": 110, "velocity": 100}, {"time": 79860, "pitch": 55, "duration": 55, "velocity": 100}, {"time": 79860, "pitch": 59, "duration": 110, "velocity": 100}, {"time": 79860, "pitch": 62, "duration": 55, "velocity": 100}, {"time": 79915, "pitch": 57, "duration": 55, "velocity": 100}, {"time": 79970, "pitch": 57, "duration": 55, "velocity": 100}, {"time": 79970, "pitch": 62, "duration": 55, "velocity": 100}, {"time": 80025, "pitch": 59, "duration": 55, "velocity": 100}, {"time": 80080, "pitch": 43, "duration": 330, "velocity": 100}, {"time": 80080, "pitch": 55, "duration": 55, "velocity": 100}, {"time": 80080, "pitch": 59, "duration": 330, "velocity": 100}, {"time": 80300, "pitch": 55, "duration": 55, "velocity": 100}, {"time": 80300, "pitch": 59, "duration": 220, "velocity": 100}, {"time": 80300, "pitch": 62, "duration": 110, "velocity": 100}, {"time": 80410, "pitch": 55, "duration": 110, "velocity": 100}, {"time": 80410, "pitch": 59, "duration": 110, "velocity": 100}, {"time": 80520, "pitch": 43, "duration": 385, "velocity": 100}, {"time": 80520, "pitch": 55, "duration": 220, "velocity": 100}, {"time": 80520, "pitch": 59, "duration": 220, "velocity": 100}, {"time": 80630, "pitch": 50, "duration": 275, "velocity": 100}, {"time": 80740, "pitch": 55, "duration": 55, "velocity": 100}, {"time": 80740, "pitch": 59, "duration": 110, "velocity": 100}, {"time": 80740, "pitch": 62, "duration": 110, "velocity": 100}, {"time": 80740, "pitch": 71, "duration": 55, "velocity": 100}, {"time": 80795, "pitch": 74, "duration": 55, "velocity": 100}, {"time": 80850, "pitch": 55, "duration": 55, "velocity": 100}, {"time": 80905, "pitch": 76, "duration": 55, "velocity": 100}, {"time": 80960, "pitch": 43, "duration": 385, "velocity": 100}, {"time": 80960, "pitch": 55, "duration": 55, "velocity": 100}, {"time": 80960, "pitch": 59, "duration": 110, "velocity": 100}, {"time": 80960, "pitch": 74, "duration": 55, "velocity": 100}, {"time": 81070, "pitch": 55, "duration": 55, "velocity": 100}, {"time": 81125, "pitch": 74, "duration": 165, "velocity": 100}, {"time": 81180, "pitch": 55, "duration": 165, "velocity": 100}, {"time": 81180, "pitch": 59, "duration": 110, "velocity": 100}, {"time": 81235, "pitch": 74, "duration": 55, "velocity": 100}, {"time": 81290, "pitch": 62, "duration": 110, "velocity": 100}, {"time": 81400, "pitch": 43, "duration": 275, "velocity": 100}, {"time": 81400, "pitch": 55, "duration": 110, "velocity": 100}, {"time": 81400, "pitch": 62, "duration": 110, "velocity": 100}, {"time": 81510, "pitch": 50, "duration": 110, "velocity": 100}, {"time": 81620, "pitch": 55, "duration": 55, "velocity": 100}, {"time": 81620, "pitch": 59, "duration": 55, "velocity": 100}, {"time": 81620, "pitch": 67, "duration": 110, "velocity": 100}, {"time": 81675, "pitch": 50, "duration": 55, "velocity": 100}, {"time": 81730, "pitch": 57, "duration": 55, "velocity": 100}, {"time": 81730, "pitch": 62, "duration": 110, "velocity": 100}, {"time": 81840, "pitch": 43, "duration": 275, "velocity": 100}, {"time": 81840, "pitch": 55, "duration": 55, "velocity": 100}, {"time": 81840, "pitch": 59, "duration": 110, "velocity": 100}, {"time": 81840, "pitch": 62, "duration": 220, "velocity": 100}, {"time": 81950, "pitch": 55, "duration": 55, "velocity": 100}, {"time": 82060, "pitch": 50, "duration": 55, "velocity": 100}, {"time": 82060, "pitch": 62, "duration": 55, "velocity": 100}, {"time": 82115, "pitch": 64, "duration": 55, "velocity": 100}, {"time": 82170, "pitch": 59, "duration": 55, "velocity": 100}, {"time": 82170, "pitch": 62, "duration": 55, "velocity": 100}, {"time": 82225, "pitch": 59, "duration": 55, "velocity": 100}, {"time": 82280, "pitch": 43, "duration": 330, "velocity": 100}, {"time": 82280, "pitch": 55, "duration": 165, "velocity": 100}, {"time": 82280, "pitch": 59, "duration": 165, "velocity": 100}, {"time": 82390, "pitch": 50, "duration": 165, "velocity": 100}, {"time": 82500, "pitch": 59, "duration": 110, "velocity": 100}, {"time": 82500, "pitch": 62, "duration": 220, "velocity": 100}, {"time": 82500, "pitch": 67, "duration": 220, "velocity": 100}, {"time": 82610, "pitch": 50, "duration": 55, "velocity": 100}, {"time": 82665, "pitch": 55, "duration": 55, "velocity": 100}, {"time": 82720, "pitch": 47, "duration": 275, "velocity": 100}, {"time": 82720, "pitch": 55, "duration": 165, "velocity": 100}, {"time": 82720, "pitch": 59, "duration": 220, "velocity": 100}, {"time": 82720, "pitch": 62, "duration": 275, "velocity": 100}, {"time": 82830, "pitch": 55, "duration": 110, "velocity": 100}, {"time": 82940, "pitch": 59, "duration": 55, "velocity": 100}, {"time": 82940, "pitch": 62, "duration": 220, "velocity": 100}, {"time": 83050, "pitch": 55, "duration": 55, "velocity": 100}, {"time": 83050, "pitch": 59, "duration": 110, "velocity": 100}, {"time": 83050, "pitch": 62, "duration": 110, "velocity": 100}, {"time": 83160, "pitch": 43, "duration": 330, "velocity": 100}, {"time": 83160, "pitch": 55, "duration": 110, "velocity": 100}, {"time": 83160, "pitch": 59, "duration": 110, "velocity": 100}, {"time": 83160, "pitch": 67, "duration": 440, "velocity": 100}, {"time": 83270, "pitch": 50, "duration": 110, "velocity": 100}, {"time": 83380, "pitch": 55, "duration": 55, "velocity": 100}, {"time": 83380, "pitch": 59, "duration": 55, "velocity": 100}, {"time": 83380, "pitch": 62, "duration": 55, "velocity": 100}, {"time": 83435, "pitch": 50, "duration": 55, "velocity": 100}, {"time": 83435, "pitch": 57, "duration": 55, "velocity": 100}, {"time": 83490, "pitch": 57, "duration": 55, "velocity": 100}, {"time": 83490, "pitch": 62, "duration": 55, "velocity": 100}, {"time": 83545, "pitch": 62, "duration": 55, "velocity": 100}, {"time": 83600, "pitch": 43, "duration": 330, "velocity": 100}, {"time": 83600, "pitch": 55, "duration": 55, "velocity": 100}, {"time": 83600, "pitch": 59, "duration": 165, "velocity": 100}, {"time": 83600, "pitch": 62, "duration": 330, "velocity": 100}, {"time": 83820, "pitch": 55, "duration": 55, "velocity": 100}, {"time": 83820, "pitch": 62, "duration": 220, "velocity": 100}, {"time": 83930, "pitch": 55, "duration": 110, "velocity": 100}, {"time": 84040, "pitch": 43, "duration": 385, "velocity": 100}, {"time": 84040, "pitch": 55, "duration": 165, "velocity": 100}, {"time": 84040, "pitch": 59, "duration": 165, "velocity": 100}, {"time": 84040, "pitch": 71, "duration": 110, "velocity": 100}, {"time": 84150, "pitch": 50, "duration": 275, "velocity": 100}, {"time": 84205, "pitch": 74, "duration": 165, "velocity": 100}, {"time": 84260, "pitch": 55, "duration": 55, "velocity": 100}, {"time": 84260, "pitch": 59, "duration": 55, "velocity": 100}, {"time": 84260, "pitch": 62, "duration": 55, "velocity": 100}, {"time": 84315, "pitch": 71, "duration": 165, "velocity": 100}, {"time": 84370, "pitch": 55, "duration": 55, "velocity": 100}, {"time": 84480, "pitch": 43, "duration": 110, "velocity": 100}, {"time": 84480, "pitch": 59, "duration": 55, "velocity": 100}, {"time": 84480, "pitch": 62, "duration": 110, "velocity": 100}, {"time": 84480, "pitch": 67, "duration": 165, "velocity": 100}, {"time": 84535, "pitch": 55, "duration": 55, "velocity": 100}, {"time": 84590, "pitch": 59, "duration": 55, "velocity": 100}, {"time": 84645, "pitch": 62, "duration": 55, "velocity": 100}, {"time": 84700, "pitch": 47, "duration": 220, "velocity": 100}, {"time": 84700, "pitch": 59, "duration": 55, "velocity": 100}, {"time": 84700, "pitch": 67, "duration": 220, "velocity": 100}, {"time": 84755, "pitch": 52, "duration": 165, "velocity": 100}, {"time": 84810, "pitch": 64, "duration": 110, "velocity": 100}, {"time": 84865, "pitch": 67, "duration": 55, "velocity": 100}, {"time": 84920, "pitch": 40, "duration": 275, "velocity": 100}, {"time": 84920, "pitch": 55, "duration": 110, "velocity": 100}, {"time": 84920, "pitch": 64, "duration": 110, "velocity": 100}, {"time": 84920, "pitch": 67, "duration": 275, "velocity": 100}, {"time": 84920, "pitch": 71, "duration": 385, "velocity": 100}, {"time": 85030, "pitch": 47, "duration": 110, "velocity": 100}, {"time": 85085, "pitch": 55, "duration": 55, "velocity": 100}, {"time": 85140, "pitch": 55, "duration": 55, "velocity": 100}, {"time": 85140, "pitch": 59, "duration": 55, "velocity": 100}, {"time": 85140, "pitch": 64, "duration": 110, "velocity": 100}, {"time": 85195, "pitch": 52, "duration": 55, "velocity": 100}, {"time": 85250, "pitch": 55, "duration": 55, "velocity": 100}, {"time": 85360, "pitch": 52, "duration": 275, "velocity": 100}, {"time": 85360, "pitch": 55, "duration": 55, "velocity": 100}, {"time": 85360, "pitch": 59, "duration": 165, "velocity": 100}, {"time": 85360, "pitch": 64, "duration": 165, "velocity": 100}, {"time": 85360, "pitch": 76, "duration": 440, "velocity": 100}, {"time": 85470, "pitch": 52, "duration": 275, "velocity": 100}, {"time": 85580, "pitch": 59, "duration": 55, "velocity": 100}, {"time": 85580, "pitch": 64, "duration": 110, "velocity": 100}, {"time": 85580, "pitch": 67, "duration": 110, "velocity": 100}, {"time": 85690, "pitch": 55, "duration": 55, "velocity": 100}, {"time": 85745, "pitch": 59, "duration": 55, "velocity": 100}, {"time": 85800, "pitch": 40, "duration": 275, "velocity": 100}, {"time": 85800, "pitch": 59, "duration": 165, "velocity": 100}, {"time": 85800, "pitch": 64, "duration": 165, "velocity": 100}, {"time": 85800, "pitch": 67, "duration": 275, "velocity": 100}, {"time": 85800, "pitch": 71, "duration": 385, "velocity": 100}, {"time": 85910, "pitch": 47, "duration": 110, "velocity": 100}, {"time": 86020, "pitch": 59, "duration": 55, "velocity": 100}, {"time": 86020, "pitch": 64, "duration": 110, "velocity": 100}, {"time": 86020, "pitch": 67, "duration": 165, "velocity": 100}, {"time": 86075, "pitch": 47, "duration": 55, "velocity": 100}, {"time": 86130, "pitch": 59, "duration": 55, "velocity": 100}, {"time": 86240, "pitch": 47, "duration": 330, "velocity": 100}, {"time": 86240, "pitch": 55, "duration": 55, "velocity": 100}, {"time": 86240, "pitch": 59, "duration": 110, "velocity": 100}, {"time": 86240, "pitch": 64, "duration": 110, "velocity": 100}, {"time": 86240, "pitch": 67, "duration": 220, "velocity": 100}, {"time": 86240, "pitch": 74, "duration": 440, "velocity": 100}, {"time": 86350, "pitch": 55, "duration": 110, "velocity": 100}, {"time": 86460, "pitch": 55, "duration": 55, "velocity": 100}, {"time": 86460, "pitch": 59, "duration": 110, "velocity": 100}, {"time": 86460, "pitch": 64, "duration": 110, "velocity": 100}, {"time": 86570, "pitch": 52, "duration": 55, "velocity": 100}, {"time": 86680, "pitch": 40, "duration": 330, "velocity": 100}, {"time": 86680, "pitch": 55, "duration": 110, "velocity": 100}, {"time": 86680, "pitch": 59, "duration": 110, "velocity": 100}, {"time": 86680, "pitch": 67, "duration": 330, "velocity": 100}, {"time": 86680, "pitch": 71, "duration": 385, "velocity": 100}, {"time": 86790, "pitch": 52, "duration": 110, "velocity": 100}, {"time": 86900, "pitch": 55, "duration": 55, "velocity": 100}, {"time": 86900, "pitch": 59, "duration": 55, "velocity": 100}, {"time": 86900, "pitch": 64, "duration": 55, "velocity": 100}, {"time": 86955, "pitch": 52, "duration": 55, "velocity": 100}, {"time": 87010, "pitch": 55, "duration": 55, "velocity": 100}, {"time": 87120, "pitch": 40, "duration": 275, "velocity": 100}, {"time": 87120, "pitch": 59, "duration": 55, "velocity": 100}, {"time": 87120, "pitch": 64, "duration": 110, "velocity": 100}, {"time": 87120, "pitch": 67, "duration": 165, "velocity": 100}, {"time": 87120, "pitch": 71, "duration": 220, "velocity": 100}, {"time": 87230, "pitch": 55, "duration": 110, "velocity": 100}, {"time": 87340, "pitch": 59, "duration": 55, "velocity": 100}, {"time": 87340, "pitch": 64, "duration": 110, "velocity": 100}, {"time": 87340, "pitch": 67, "duration": 110, "velocity": 100}, {"time": 87340, "pitch": 74, "duration": 165, "velocity": 100}, {"time": 87395, "pitch": 55, "duration": 55, "velocity": 100}, {"time": 87450, "pitch": 47, "duration": 55, "velocity": 100}, {"time": 87560, "pitch": 40, "duration": 330, "velocity": 100}, {"time": 87560, "pitch": 55, "duration": 110, "velocity": 100}, {"time": 87560, "pitch": 59, "duration": 110, "velocity": 100}, {"time": 87560, "pitch": 64, "duration": 110, "velocity": 100}, {"time": 87560, "pitch": 71, "duration": 330, "velocity": 100}, {"time": 87615, "pitch": 47, "duration": 165, "velocity": 100}, {"time": 87670, "pitch": 52, "duration": 55, "velocity": 100}, {"time": 87725, "pitch": 59, "duration": 55, "velocity": 100}, {"time": 87780, "pitch": 55, "duration": 110, "velocity": 100}, {"time": 87780, "pitch": 59, "duration": 110, "velocity": 100}, {"time": 87780, "pitch": 67, "duration": 110, "velocity": 100}, {"time": 87890, "pitch": 40, "duration": 55, "velocity": 100}, {"time": 87890, "pitch": 71, "duration": 55, "velocity": 100}, {"time": 87945, "pitch": 71, "duration": 55, "velocity": 100}, {"time": 88000, "pitch": 33, "duration": 165, "velocity": 100}, {"time": 88000, "pitch": 57, "duration": 55, "velocity": 100}, {"time": 88000, "pitch": 64, "duration": 110, "velocity": 100}, {"time": 88000, "pitch": 67, "duration": 110, "velocity": 100}, {"time": 88000, "pitch": 69, "duration": 165, "velocity": 100}, {"time": 88000, "pitch": 76, "duration": 220, "velocity": 100}, {"time": 88055, "pitch": 40, "duration": 55, "velocity": 100}, {"time": 88110, "pitch": 60, "duration": 55, "velocity": 100}, {"time": 88165, "pitch": 64, "duration": 55, "velocity": 100}, {"time": 88220, "pitch": 33, "duration": 220, "velocity": 100}, {"time": 88220, "pitch": 60, "duration": 110, "velocity": 100}, {"time": 88220, "pitch": 64, "duration": 110, "velocity": 100}, {"time": 88220, "pitch": 69, "duration": 220, "velocity": 100}, {"time": 88220, "pitch": 76, "duration": 220, "velocity": 100}, {"time": 88275, "pitch": 40, "duration": 220, "velocity": 100}, {"time": 88330, "pitch": 60, "duration": 55, "velocity": 100}, {"time": 88385, "pitch": 64, "duration": 55, "velocity": 100}, {"time": 88440, "pitch": 33, "duration": 275, "velocity": 100}, {"time": 88440, "pitch": 52, "duration": 55, "velocity": 100}, {"time": 88440, "pitch": 57, "duration": 55, "velocity": 100}, {"time": 88440, "pitch": 76, "duration": 275, "velocity": 100}, {"time": 88440, "pitch": 81, "duration": 385, "velocity": 100}, {"time": 88495, "pitch": 40, "duration": 220, "velocity": 100}, {"time": 88550, "pitch": 52, "duration": 55, "velocity": 100}, {"time": 88605, "pitch": 57, "duration": 55, "velocity": 100}, {"time": 88660, "pitch": 52, "duration": 55, "velocity": 100}, {"time": 88660, "pitch": 64, "duration": 55, "velocity": 100}, {"time": 88715, "pitch": 52, "duration": 55, "velocity": 100}, {"time": 88770, "pitch": 60, "duration": 55, "velocity": 100}, {"time": 88770, "pitch": 81, "duration": 110, "velocity": 100}, {"time": 88825, "pitch": 52, "duration": 55, "velocity": 100}, {"time": 88880, "pitch": 45, "duration": 330, "velocity": 100}, {"time": 88880, "pitch": 57, "duration": 55, "velocity": 100}, {"time": 88880, "pitch": 60, "duration": 110, "velocity": 100}, {"time": 88880, "pitch": 81, "duration": 440, "velocity": 100}, {"time": 88990, "pitch": 60, "duration": 55, "velocity": 100}, {"time": 89045, "pitch": 57, "duration": 55, "velocity": 100}, {"time": 89100, "pitch": 57, "duration": 55, "velocity": 100}, {"time": 89100, "pitch": 64, "duration": 55, "velocity": 100}, {"time": 89155, "pitch": 52, "duration": 110, "velocity": 100}, {"time": 89210, "pitch": 60, "duration": 55, "velocity": 100}, {"time": 89265, "pitch": 57, "duration": 55, "velocity": 100}, {"time": 89320, "pitch": 45, "duration": 275, "velocity": 100}, {"time": 89320, "pitch": 57, "duration": 55, "velocity": 100}, {"time": 89320, "pitch": 64, "duration": 55, "velocity": 100}, {"time": 89320, "pitch": 81, "duration": 110, "velocity": 100}, {"time": 89375, "pitch": 52, "duration": 55, "velocity": 100}, {"time": 89430, "pitch": 64, "duration": 55, "velocity": 100}, {"time": 89430, "pitch": 81, "duration": 110, "velocity": 100}, {"time": 89485, "pitch": 57, "duration": 55, "velocity": 100}, {"time": 89540, "pitch": 57, "duration": 55, "velocity": 100}, {"time": 89540, "pitch": 60, "duration": 55, "velocity": 100}, {"time": 89540, "pitch": 64, "duration": 110, "velocity": 100}, {"time": 89540, "pitch": 79, "duration": 110, "velocity": 100}, {"time": 89595, "pitch": 40, "duration": 55, "velocity": 100}, {"time": 89650, "pitch": 60, "duration": 55, "velocity": 100}, {"time": 89650, "pitch": 76, "duration": 110, "velocity": 100}, {"time": 89760, "pitch": 45, "duration": 385, "velocity": 100}, {"time": 89760, "pitch": 57, "duration": 55, "velocity": 100}, {"time": 89760, "pitch": 60, "duration": 110, "velocity": 100}, {"time": 89760, "pitch": 72, "duration": 385, "velocity": 100}, {"time": 89815, "pitch": 52, "duration": 165, "velocity": 100}, {"time": 89870, "pitch": 60, "duration": 55, "velocity": 100}, {"time": 89925, "pitch": 52, "duration": 55, "velocity": 100}, {"time": 89980, "pitch": 57, "duration": 55, "velocity": 100}, {"time": 89980, "pitch": 64, "duration": 110, "velocity": 100}, {"time": 90035, "pitch": 52, "duration": 110, "velocity": 100}, {"time": 90090, "pitch": 60, "duration": 55, "velocity": 100}, {"time": 90090, "pitch": 79, "duration": 55, "velocity": 100}, {"time": 90145, "pitch": 57, "duration": 55, "velocity": 100}, {"time": 90145, "pitch": 79, "duration": 55, "velocity": 100}, {"time": 90200, "pitch": 45, "duration": 385, "velocity": 100}, {"time": 90200, "pitch": 57, "duration": 55, "velocity": 100}, {"time": 90200, "pitch": 60, "duration": 110, "velocity": 100}, {"time": 90200, "pitch": 81, "duration": 330, "velocity": 100}, {"time": 90255, "pitch": 52, "duration": 220, "velocity": 100}, {"time": 90310, "pitch": 57, "duration": 110, "velocity": 100}, {"time": 90420, "pitch": 64, "duration": 110, "velocity": 100}, {"time": 90475, "pitch": 52, "duration": 165, "velocity": 100}, {"time": 90530, "pitch": 57, "duration": 55, "velocity": 100}, {"time": 90530, "pitch": 74, "duration": 55, "velocity": 100}, {"time": 90585, "pitch": 57, "duration": 55, "velocity": 100}, {"time": 90585, "pitch": 76, "duration": 55, "velocity": 100}, {"time": 90640, "pitch": 45, "duration": 385, "velocity": 100}, {"time": 90640, "pitch": 57, "duration": 55, "velocity": 100}, {"time": 90640, "pitch": 60, "duration": 110, "velocity": 100}, {"time": 90640, "pitch": 81, "duration": 440, "velocity": 100}, {"time": 90750, "pitch": 64, "duration": 110, "velocity": 100}, {"time": 90805, "pitch": 57, "duration": 55, "velocity": 100}, {"time": 90860, "pitch": 52, "duration": 110, "velocity": 100}, {"time": 90915, "pitch": 57, "duration": 55, "velocity": 100}, {"time": 90970, "pitch": 60, "duration": 55, "velocity": 100}, {"time": 91025, "pitch": 57, "duration": 55, "velocity": 100}, {"time": 91080, "pitch": 45, "duration": 330, "velocity": 100}, {"time": 91080, "pitch": 52, "duration": 55, "velocity": 100}, {"time": 91080, "pitch": 60, "duration": 55, "velocity": 100}, {"time": 91080, "pitch": 81, "duration": 220, "velocity": 100}, {"time": 91135, "pitch": 52, "duration": 55, "velocity": 100}, {"time": 91190, "pitch": 57, "duration": 55, "velocity": 100}, {"time": 91245, "pitch": 52, "duration": 55, "velocity": 100}, {"time": 91300, "pitch": 57, "duration": 55, "velocity": 100}, {"time": 91300, "pitch": 60, "duration": 55, "velocity": 100}, {"time": 91300, "pitch": 76, "duration": 110, "velocity": 100}, {"time": 91355, "pitch": 52, "duration": 55, "velocity": 100}, {"time": 91410, "pitch": 57, "duration": 55, "velocity": 100}, {"time": 91410, "pitch": 72, "duration": 110, "velocity": 100}, {"time": 91465, "pitch": 52, "duration": 55, "velocity": 100}, {"time": 91520, "pitch": 43, "duration": 385, "velocity": 100}, {"time": 91520, "pitch": 59, "duration": 55, "velocity": 100}, {"time": 91520, "pitch": 62, "duration": 110, "velocity": 100}, {"time": 91520, "pitch": 74, "duration": 440, "velocity": 100}, {"time": 91575, "pitch": 55, "duration": 275, "velocity": 100}, {"time": 91630, "pitch": 59, "duration": 55, "velocity": 100}, {"time": 91685, "pitch": 62, "duration": 55, "velocity": 100}, {"time": 91740, "pitch": 67, "duration": 55, "velocity": 100}, {"time": 91795, "pitch": 62, "duration": 55, "velocity": 100}, {"time": 91850, "pitch": 62, "duration": 55, "velocity": 100}, {"time": 91905, "pitch": 59, "duration": 55, "velocity": 100}, {"time": 91960, "pitch": 43, "duration": 330, "velocity": 100}, {"time": 91960, "pitch": 62, "duration": 110, "velocity": 100}, {"time": 91960, "pitch": 71, "duration": 275, "velocity": 100}, {"time": 91960, "pitch": 74, "duration": 275, "velocity": 100}, {"time": 92015, "pitch": 50, "duration": 275, "velocity": 100}, {"time": 92070, "pitch": 55, "duration": 110, "velocity": 100}, {"time": 92125, "pitch": 59, "duration": 55, "velocity": 100}, {"time": 92180, "pitch": 67, "duration": 110, "velocity": 100}, {"time": 92235, "pitch": 62, "duration": 55, "velocity": 100}, {"time": 92290, "pitch": 59, "duration": 55, "velocity": 100}, {"time": 92345, "pitch": 55, "duration": 55, "velocity": 100}, {"time": 92400, "pitch": 43, "duration": 385, "velocity": 100}, {"time": 92400, "pitch": 55, "duration": 55, "velocity": 100}, {"time": 92400, "pitch": 59, "duration": 110, "velocity": 100}, {"time": 92400, "pitch": 69, "duration": 220, "velocity": 100}, {"time": 92455, "pitch": 50, "duration": 275, "velocity": 100}, {"time": 92510, "pitch": 62, "duration": 110, "velocity": 100}, {"time": 92565, "pitch": 55, "duration": 55, "velocity": 100}, {"time": 92620, "pitch": 67, "duration": 220, "velocity": 100}, {"time": 92675, "pitch": 55, "duration": 110, "velocity": 100}, {"time": 92730, "pitch": 59, "duration": 55, "velocity": 100}, {"time": 92730, "pitch": 64, "duration": 110, "velocity": 100}, {"time": 92785, "pitch": 55, "duration": 55, "velocity": 100}, {"time": 92840, "pitch": 43, "duration": 330, "velocity": 100}, {"time": 92840, "pitch": 62, "duration": 220, "velocity": 100}, {"time": 92840, "pitch": 67, "duration": 440, "velocity": 100}, {"time": 92895, "pitch": 50, "duration": 165, "velocity": 100}, {"time": 92950, "pitch": 59, "duration": 55, "velocity": 100}, {"time": 93005, "pitch": 62, "duration": 55, "velocity": 100}, {"time": 93060, "pitch": 59, "duration": 55, "velocity": 100}, {"time": 93060, "pitch": 62, "duration": 110, "velocity": 100}, {"time": 93115, "pitch": 55, "duration": 55, "velocity": 100}, {"time": 93170, "pitch": 59, "duration": 55, "velocity": 100}, {"time": 93225, "pitch": 62, "duration": 55, "velocity": 100}, {"time": 93280, "pitch": 47, "duration": 275, "velocity": 100}, {"time": 93280, "pitch": 62, "duration": 220, "velocity": 100}, {"time": 93280, "pitch": 67, "duration": 385, "velocity": 100}, {"time": 93335, "pitch": 55, "duration": 165, "velocity": 100}, {"time": 93390, "pitch": 59, "duration": 55, "velocity": 100}, {"time": 93445, "pitch": 62, "duration": 165, "velocity": 100}, {"time": 93500, "pitch": 67, "duration": 220, "velocity": 100}, {"time": 93555, "pitch": 62, "duration": 110, "velocity": 100}, {"time": 93610, "pitch": 62, "duration": 110, "velocity": 100}, {"time": 93665, "pitch": 59, "duration": 55, "velocity": 100}, {"time": 93720, "pitch": 43, "duration": 385, "velocity": 100}, {"time": 93720, "pitch": 67, "duration": 220, "velocity": 100}, {"time": 93720, "pitch": 69, "duration": 220, "velocity": 100}, {"time": 93775, "pitch": 50, "duration": 275, "velocity": 100}, {"time": 93830, "pitch": 59, "duration": 55, "velocity": 100}, {"time": 93885, "pitch": 62, "duration": 55, "velocity": 100}, {"time": 93940, "pitch": 67, "duration": 110, "velocity": 100}, {"time": 93995, "pitch": 55, "duration": 55, "velocity": 100}, {"time": 94050, "pitch": 59, "duration": 110, "velocity": 100}, {"time": 94050, "pitch": 67, "duration": 110, "velocity": 100}, {"time": 94105, "pitch": 59, "duration": 55, "velocity": 100}, {"time": 94160, "pitch": 43, "duration": 605, "velocity": 100}, {"time": 94160, "pitch": 62, "duration": 110, "velocity": 100}, {"time": 94160, "pitch": 67, "duration": 220, "velocity": 100}, {"time": 94160, "pitch": 71, "duration": 440, "velocity": 100}, {"time": 94160, "pitch": 74, "duration": 660, "velocity": 100}, {"time": 94270, "pitch": 55, "duration": 165, "velocity": 100}, {"time": 94380, "pitch": 62, "duration": 55, "velocity": 100}, {"time": 94380, "pitch": 67, "duration": 55, "velocity": 100}, {"time": 94490, "pitch": 55, "duration": 165, "velocity": 100}, {"time": 94600, "pitch": 59, "duration": 110, "velocity": 100}, {"time": 94600, "pitch": 67, "duration": 110, "velocity": 100}, {"time": 94710, "pitch": 74, "duration": 110, "velocity": 100}, {"time": 94820, "pitch": 59, "duration": 165, "velocity": 100}, {"time": 94820, "pitch": 62, "duration": 220, "velocity": 100}, {"time": 94820, "pitch": 67, "duration": 165, "velocity": 100}, {"time": 94875, "pitch": 79, "duration": 165, "velocity": 100}, {"time": 94985, "pitch": 79, "duration": 55, "velocity": 100}, {"time": 95040, "pitch": 43, "duration": 275, "velocity": 100}, {"time": 95040, "pitch": 55, "duration": 110, "velocity": 100}, {"time": 95040, "pitch": 62, "duration": 110, "velocity": 100}, {"time": 95150, "pitch": 50, "duration": 110, "velocity": 100}, {"time": 95260, "pitch": 55, "duration": 55, "velocity": 100}, {"time": 95260, "pitch": 59, "duration": 55, "velocity": 100}, {"time": 95260, "pitch": 62, "duration": 55, "velocity": 100}, {"time": 95315, "pitch": 50, "duration": 55, "velocity": 100}, {"time": 95315, "pitch": 64, "duration": 55, "velocity": 100}, {"time": 95370, "pitch": 55, "duration": 55, "velocity": 100}, {"time": 95370, "pitch": 62, "duration": 55, "velocity": 100}, {"time": 95425, "pitch": 59, "duration": 55, "velocity": 100}, {"time": 95480, "pitch": 43, "duration": 275, "velocity": 100}, {"time": 95480, "pitch": 55, "duration": 55, "velocity": 100}, {"time": 95480, "pitch": 59, "duration": 440, "velocity": 100}, {"time": 95590, "pitch": 55, "duration": 55, "velocity": 100}, {"time": 95700, "pitch": 55, "duration": 55, "velocity": 100}, {"time": 95700, "pitch": 62, "duration": 220, "velocity": 100}, {"time": 95810, "pitch": 59, "duration": 110, "velocity": 100}, {"time": 95920, "pitch": 43, "duration": 385, "velocity": 100}, {"time": 95920, "pitch": 55, "duration": 165, "velocity": 100}, {"time": 95920, "pitch": 59, "duration": 220, "velocity": 100}, {"time": 96030, "pitch": 50, "duration": 165, "velocity": 100}, {"time": 96140, "pitch": 59, "duration": 110, "velocity": 100}, {"time": 96140, "pitch": 62, "duration": 165, "velocity": 100}, {"time": 96195, "pitch": 67, "duration": 55, "velocity": 100}, {"time": 96250, "pitch": 50, "duration": 55, "velocity": 100}, {"time": 96250, "pitch": 62, "duration": 110, "velocity": 100}, {"time": 96305, "pitch": 55, "duration": 55, "velocity": 100}, {"time": 96305, "pitch": 59, "duration": 55, "velocity": 100}, {"time": 96360, "pitch": 43, "duration": 220, "velocity": 100}, {"time": 96360, "pitch": 55, "duration": 55, "velocity": 100}, {"time": 96360, "pitch": 59, "duration": 220, "velocity": 100}, {"time": 96360, "pitch": 62, "duration": 220, "velocity": 100}, {"time": 96470, "pitch": 55, "duration": 55, "velocity": 100}, {"time": 96580, "pitch": 59, "duration": 110, "velocity": 100}, {"time": 96580, "pitch": 62, "duration": 220, "velocity": 100}, {"time": 96690, "pitch": 55, "duration": 110, "velocity": 100}, {"time": 96690, "pitch": 60, "duration": 110, "velocity": 100}, {"time": 96800, "pitch": 43, "duration": 385, "velocity": 100}, {"time": 96800, "pitch": 55, "duration": 165, "velocity": 100}, {"time": 96800, "pitch": 59, "duration": 220, "velocity": 100}, {"time": 96910, "pitch": 50, "duration": 110, "velocity": 100}, {"time": 97020, "pitch": 55, "duration": 55, "velocity": 100}, {"time": 97020, "pitch": 59, "duration": 55, "velocity": 100}, {"time": 97020, "pitch": 62, "duration": 55, "velocity": 100}, {"time": 97075, "pitch": 50, "duration": 55, "velocity": 100}, {"time": 97130, "pitch": 57, "duration": 55, "velocity": 100}, {"time": 97130, "pitch": 62, "duration": 55, "velocity": 100}, {"time": 97185, "pitch": 59, "duration": 55, "velocity": 100}, {"time": 97185, "pitch": 62, "duration": 55, "velocity": 100}, {"time": 97240, "pitch": 43, "duration": 275, "velocity": 100}, {"time": 97240, "pitch": 55, "duration": 165, "velocity": 100}, {"time": 97240, "pitch": 59, "duration": 440, "velocity": 100}, {"time": 97460, "pitch": 55, "duration": 55, "velocity": 100}, {"time": 97460, "pitch": 62, "duration": 220, "velocity": 100}, {"time": 97570, "pitch": 55, "duration": 110, "velocity": 100}, {"time": 97570, "pitch": 59, "duration": 110, "velocity": 100}, {"time": 97680, "pitch": 43, "duration": 385, "velocity": 100}, {"time": 97680, "pitch": 55, "duration": 165, "velocity": 100}, {"time": 97680, "pitch": 59, "duration": 220, "velocity": 100}, {"time": 97790, "pitch": 50, "duration": 275, "velocity": 100}, {"time": 97900, "pitch": 55, "duration": 55, "velocity": 100}, {"time": 97900, "pitch": 59, "duration": 110, "velocity": 100}, {"time": 97900, "pitch": 62, "duration": 110, "velocity": 100}, {"time": 97900, "pitch": 71, "duration": 55, "velocity": 100}, {"time": 97955, "pitch": 74, "duration": 55, "velocity": 100}, {"time": 98010, "pitch": 55, "duration": 55, "velocity": 100}, {"time": 98065, "pitch": 74, "duration": 55, "velocity": 100}, {"time": 98120, "pitch": 43, "duration": 385, "velocity": 100}, {"time": 98120, "pitch": 55, "duration": 165, "velocity": 100}, {"time": 98120, "pitch": 59, "duration": 220, "velocity": 100}, {"time": 98120, "pitch": 74, "duration": 220, "velocity": 100}, {"time": 98230, "pitch": 55, "duration": 55, "velocity": 100}, {"time": 98285, "pitch": 74, "duration": 165, "velocity": 100}, {"time": 98340, "pitch": 55, "duration": 55, "velocity": 100}, {"time": 98340, "pitch": 59, "duration": 110, "velocity": 100}, {"time": 98395, "pitch": 71, "duration": 55, "velocity": 100}, {"time": 98450, "pitch": 62, "duration": 110, "velocity": 100}, {"time": 98560, "pitch": 43, "duration": 275, "velocity": 100}, {"time": 98560, "pitch": 55, "duration": 110, "velocity": 100}, {"time": 98560, "pitch": 62, "duration": 110, "velocity": 100}, {"time": 98670, "pitch": 50, "duration": 110, "velocity": 100}, {"time": 98780, "pitch": 55, "duration": 55, "velocity": 100}, {"time": 98780, "pitch": 59, "duration": 55, "velocity": 100}, {"time": 98780, "pitch": 62, "duration": 110, "velocity": 100}, {"time": 98780, "pitch": 67, "duration": 110, "velocity": 100}, {"time": 98835, "pitch": 50, "duration": 55, "velocity": 100}, {"time": 98890, "pitch": 55, "duration": 55, "velocity": 100}, {"time": 98890, "pitch": 62, "duration": 110, "velocity": 100}, {"time": 99000, "pitch": 43, "duration": 330, "velocity": 100}, {"time": 99000, "pitch": 55, "duration": 55, "velocity": 100}, {"time": 99000, "pitch": 59, "duration": 110, "velocity": 100}, {"time": 99000, "pitch": 62, "duration": 165, "velocity": 100}, {"time": 99110, "pitch": 55, "duration": 55, "velocity": 100}, {"time": 99220, "pitch": 55, "duration": 55, "velocity": 100}, {"time": 99220, "pitch": 62, "duration": 55, "velocity": 100}, {"time": 99275, "pitch": 64, "duration": 55, "velocity": 100}, {"time": 99330, "pitch": 59, "duration": 55, "velocity": 100}, {"time": 99330, "pitch": 62, "duration": 110, "velocity": 100}, {"time": 99385, "pitch": 60, "duration": 55, "velocity": 100}, {"time": 99440, "pitch": 43, "duration": 275, "velocity": 100}, {"time": 99440, "pitch": 55, "duration": 165, "velocity": 100}, {"time": 99440, "pitch": 59, "duration": 220, "velocity": 100}, {"time": 99550, "pitch": 50, "duration": 165, "velocity": 100}, {"time": 99660, "pitch": 59, "duration": 110, "velocity": 100}, {"time": 99660, "pitch": 62, "duration": 220, "velocity": 100}, {"time": 99660, "pitch": 67, "duration": 220, "velocity": 100}, {"time": 99770, "pitch": 50, "duration": 55, "velocity": 100}, {"time": 99825, "pitch": 55, "duration": 55, "velocity": 100}, {"time": 99880, "pitch": 43, "duration": 275, "velocity": 100}, {"time": 99880, "pitch": 55, "duration": 55, "velocity": 100}, {"time": 99880, "pitch": 59, "duration": 220, "velocity": 100}, {"time": 99880, "pitch": 62, "duration": 330, "velocity": 100}, {"time": 99990, "pitch": 55, "duration": 55, "velocity": 100}, {"time": 100100, "pitch": 59, "duration": 55, "velocity": 100}, {"time": 100100, "pitch": 62, "duration": 220, "velocity": 100}, {"time": 100210, "pitch": 55, "duration": 55, "velocity": 100}, {"time": 100210, "pitch": 59, "duration": 110, "velocity": 100}, {"time": 100210, "pitch": 62, "duration": 110, "velocity": 100}, {"time": 100320, "pitch": 43, "duration": 385, "velocity": 100}, {"time": 100320, "pitch": 55, "duration": 110, "velocity": 100}, {"time": 100320, "pitch": 59, "duration": 110, "velocity": 100}, {"time": 100320, "pitch": 67, "duration": 330, "velocity": 100}, {"time": 100430, "pitch": 50, "duration": 110, "velocity": 100}, {"time": 100540, "pitch": 55, "duration": 55, "velocity": 100}, {"time": 100540, "pitch": 59, "duration": 55, "velocity": 100}, {"time": 100540, "pitch": 62, "duration": 55, "velocity": 100}, {"time": 100595, "pitch": 50, "duration": 55, "velocity": 100}, {"time": 100595, "pitch": 57, "duration": 55, "velocity": 100}, {"time": 100650, "pitch": 57, "duration": 55, "velocity": 100}, {"time": 100650, "pitch": 62, "duration": 55, "velocity": 100}, {"time": 100705, "pitch": 59, "duration": 55, "velocity": 100}, {"time": 100705, "pitch": 67, "duration": 55, "velocity": 100}, {"time": 100760, "pitch": 43, "duration": 275, "velocity": 100}, {"time": 100760, "pitch": 55, "duration": 55, "velocity": 100}, {"time": 100760, "pitch": 59, "duration": 55, "velocity": 100}, {"time": 100760, "pitch": 62, "duration": 165, "velocity": 100}, {"time": 100980, "pitch": 55, "duration": 55, "velocity": 100}, {"time": 100980, "pitch": 62, "duration": 220, "velocity": 100}, {"time": 101090, "pitch": 55, "duration": 110, "velocity": 100}, {"time": 101200, "pitch": 43, "duration": 385, "velocity": 100}, {"time": 101200, "pitch": 55, "duration": 110, "velocity": 100}, {"time": 101200, "pitch": 59, "duration": 110, "velocity": 100}, {"time": 101200, "pitch": 71, "duration": 55, "velocity": 100}, {"time": 101310, "pitch": 50, "duration": 275, "velocity": 100}, {"time": 101365, "pitch": 74, "duration": 55, "velocity": 100}, {"time": 101420, "pitch": 55, "duration": 55, "velocity": 100}, {"time": 101420, "pitch": 59, "duration": 110, "velocity": 100}, {"time": 101420, "pitch": 62, "duration": 110, "velocity": 100}, {"time": 101475, "pitch": 74, "duration": 165, "velocity": 100}, {"time": 101530, "pitch": 55, "duration": 55, "velocity": 100}, {"time": 101640, "pitch": 43, "duration": 385, "velocity": 100}, {"time": 101640, "pitch": 55, "duration": 110, "velocity": 100}, {"time": 101640, "pitch": 59, "duration": 165, "velocity": 100}, {"time": 101640, "pitch": 62, "duration": 165, "velocity": 100}, {"time": 101640, "pitch": 67, "duration": 385, "velocity": 100}, {"time": 101750, "pitch": 50, "duration": 110, "velocity": 100}, {"time": 101805, "pitch": 55, "duration": 55, "velocity": 100}, {"time": 101860, "pitch": 55, "duration": 55, "velocity": 100}, {"time": 101860, "pitch": 62, "duration": 110, "velocity": 100}, {"time": 101860, "pitch": 64, "duration": 110, "velocity": 100}, {"time": 101915, "pitch": 50, "duration": 55, "velocity": 100}, {"time": 101970, "pitch": 55, "duration": 110, "velocity": 100}, {"time": 102025, "pitch": 59, "duration": 55, "velocity": 100}, {"time": 102080, "pitch": 47, "duration": 385, "velocity": 100}, {"time": 102190, "pitch": 55, "duration": 330, "velocity": 100}, {"time": 102300, "pitch": 62, "duration": 220, "velocity": 100}, {"time": 102300, "pitch": 67, "duration": 220, "velocity": 100}, {"time": 102300, "pitch": 74, "duration": 220, "velocity": 100}, {"time": 102520, "pitch": 43, "duration": 275, "velocity": 100}, {"time": 102520, "pitch": 55, "duration": 110, "velocity": 100}, {"time": 102520, "pitch": 62, "duration": 110, "velocity": 100}, {"time": 102630, "pitch": 50, "duration": 110, "velocity": 100}, {"time": 102740, "pitch": 55, "duration": 55, "velocity": 100}, {"time": 102740, "pitch": 59, "duration": 55, "velocity": 100}, {"time": 102740, "pitch": 64, "duration": 55, "velocity": 100}, {"time": 102795, "pitch": 57, "duration": 55, "velocity": 100}, {"time": 102795, "pitch": 62, "duration": 55, "velocity": 100}, {"time": 102850, "pitch": 57, "duration": 55, "velocity": 100}, {"time": 102850, "pitch": 60, "duration": 55, "velocity": 100}, {"time": 102905, "pitch": 57, "duration": 55, "velocity": 100}, {"time": 102905, "pitch": 62, "duration": 55, "velocity": 100}, {"time": 102960, "pitch": 43, "duration": 275, "velocity": 100}, {"time": 102960, "pitch": 55, "duration": 55, "velocity": 100}, {"time": 102960, "pitch": 59, "duration": 220, "velocity": 100}, {"time": 103070, "pitch": 55, "duration": 55, "velocity": 100}, {"time": 103180, "pitch": 57, "duration": 110, "velocity": 100}, {"time": 103180, "pitch": 62, "duration": 220, "velocity": 100}, {"time": 103290, "pitch": 59, "duration": 165, "velocity": 100}, {"time": 103400, "pitch": 43, "duration": 330, "velocity": 100}, {"time": 103400, "pitch": 55, "duration": 165, "velocity": 100}, {"time": 103400, "pitch": 59, "duration": 220, "velocity": 100}, {"time": 103510, "pitch": 50, "duration": 165, "velocity": 100}, {"time": 103620, "pitch": 59, "duration": 110, "velocity": 100}, {"time": 103620, "pitch": 62, "duration": 110, "velocity": 100}, {"time": 103675, "pitch": 64, "duration": 55, "velocity": 100}, {"time": 103730, "pitch": 55, "duration": 110, "velocity": 100}, {"time": 103785, "pitch": 55, "duration": 55, "velocity": 100}, {"time": 103840, "pitch": 43, "duration": 220, "velocity": 100}, {"time": 103840, "pitch": 55, "duration": 165, "velocity": 100}, {"time": 103840, "pitch": 59, "duration": 330, "velocity": 100}, {"time": 103950, "pitch": 55, "duration": 55, "velocity": 100}, {"time": 104060, "pitch": 59, "duration": 220, "velocity": 100}, {"time": 104060, "pitch": 62, "duration": 110, "velocity": 100}, {"time": 104170, "pitch": 55, "duration": 110, "velocity": 100}, {"time": 104170, "pitch": 59, "duration": 110, "velocity": 100}, {"time": 104280, "pitch": 43, "duration": 330, "velocity": 100}, {"time": 104280, "pitch": 55, "duration": 220, "velocity": 100}, {"time": 104280, "pitch": 59, "duration": 220, "velocity": 100}, {"time": 104390, "pitch": 50, "duration": 110, "velocity": 100}, {"time": 104500, "pitch": 55, "duration": 55, "velocity": 100}, {"time": 104500, "pitch": 59, "duration": 110, "velocity": 100}, {"time": 104500, "pitch": 62, "duration": 55, "velocity": 100}, {"time": 104555, "pitch": 57, "duration": 55, "velocity": 100}, {"time": 104610, "pitch": 57, "duration": 55, "velocity": 100}, {"time": 104610, "pitch": 62, "duration": 55, "velocity": 100}, {"time": 104665, "pitch": 59, "duration": 55, "velocity": 100}, {"time": 104720, "pitch": 43, "duration": 330, "velocity": 100}, {"time": 104720, "pitch": 55, "duration": 55, "velocity": 100}, {"time": 104720, "pitch": 59, "duration": 330, "velocity": 100}, {"time": 104940, "pitch": 55, "duration": 55, "velocity": 100}, {"time": 104940, "pitch": 59, "duration": 220, "velocity": 100}, {"time": 104940, "pitch": 62, "duration": 110, "velocity": 100}, {"time": 105050, "pitch": 55, "duration": 110, "velocity": 100}, {"time": 105050, "pitch": 59, "duration": 110, "velocity": 100}, {"time": 105160, "pitch": 43, "duration": 385, "velocity": 100}, {"time": 105160, "pitch": 55, "duration": 220, "velocity": 100}, {"time": 105160, "pitch": 59, "duration": 220, "velocity": 100}, {"time": 105270, "pitch": 50, "duration": 275, "velocity": 100}, {"time": 105380, "pitch": 55, "duration": 55, "velocity": 100}, {"time": 105380, "pitch": 59, "duration": 110, "velocity": 100}, {"time": 105380, "pitch": 62, "duration": 110, "velocity": 100}, {"time": 105380, "pitch": 71, "duration": 55, "velocity": 100}, {"time": 105435, "pitch": 74, "duration": 55, "velocity": 100}, {"time": 105490, "pitch": 55, "duration": 55, "velocity": 100}, {"time": 105545, "pitch": 76, "duration": 55, "velocity": 100}, {"time": 105600, "pitch": 43, "duration": 385, "velocity": 100}, {"time": 105600, "pitch": 55, "duration": 55, "velocity": 100}, {"time": 105600, "pitch": 59, "duration": 110, "velocity": 100}, {"time": 105600, "pitch": 74, "duration": 55, "velocity": 100}, {"time": 105710, "pitch": 55, "duration": 55, "velocity": 100}, {"time": 105765, "pitch": 74, "duration": 165, "velocity": 100}, {"time": 105820, "pitch": 55, "duration": 165, "velocity": 100}, {"time": 105820, "pitch": 59, "duration": 110, "velocity": 100}, {"time": 105875, "pitch": 74, "duration": 55, "velocity": 100}, {"time": 105930, "pitch": 62, "duration": 110, "velocity": 100}, {"time": 106040, "pitch": 43, "duration": 275, "velocity": 100}, {"time": 106040, "pitch": 55, "duration": 110, "velocity": 100}, {"time": 106040, "pitch": 62, "duration": 110, "velocity": 100}, {"time": 106150, "pitch": 50, "duration": 110, "velocity": 100}, {"time": 106260, "pitch": 55, "duration": 55, "velocity": 100}, {"time": 106260, "pitch": 59, "duration": 55, "velocity": 100}, {"time": 106260, "pitch": 67, "duration": 110, "velocity": 100}, {"time": 106315, "pitch": 50, "duration": 55, "velocity": 100}, {"time": 106370, "pitch": 57, "duration": 55, "velocity": 100}, {"time": 106370, "pitch": 62, "duration": 110, "velocity": 100}, {"time": 106480, "pitch": 43, "duration": 275, "velocity": 100}, {"time": 106480, "pitch": 55, "duration": 55, "velocity": 100}, {"time": 106480, "pitch": 59, "duration": 110, "velocity": 100}, {"time": 106480, "pitch": 62, "duration": 220, "velocity": 100}, {"time": 106590, "pitch": 55, "duration": 55, "velocity": 100}, {"time": 106700, "pitch": 50, "duration": 55, "velocity": 100}, {"time": 106700, "pitch": 62, "duration": 55, "velocity": 100}, {"time": 106755, "pitch": 64, "duration": 55, "velocity": 100}, {"time": 106810, "pitch": 59, "duration": 55, "velocity": 100}, {"time": 106810, "pitch": 62, "duration": 55, "velocity": 100}, {"time": 106865, "pitch": 59, "duration": 55, "velocity": 100}, {"time": 106920, "pitch": 43, "duration": 330, "velocity": 100}, {"time": 106920, "pitch": 55, "duration": 165, "velocity": 100}, {"time": 106920, "pitch": 59, "duration": 165, "velocity": 100}, {"time": 107030, "pitch": 50, "duration": 165, "velocity": 100}, {"time": 107140, "pitch": 59, "duration": 110, "velocity": 100}, {"time": 107140, "pitch": 62, "duration": 220, "velocity": 100}, {"time": 107140, "pitch": 67, "duration": 220, "velocity": 100}, {"time": 107250, "pitch": 50, "duration": 55, "velocity": 100}, {"time": 107305, "pitch": 55, "duration": 55, "velocity": 100}, {"time": 107360, "pitch": 47, "duration": 275, "velocity": 100}, {"time": 107360, "pitch": 55, "duration": 165, "velocity": 100}, {"time": 107360, "pitch": 59, "duration": 220, "velocity": 100}, {"time": 107360, "pitch": 62, "duration": 275, "velocity": 100}, {"time": 107470, "pitch": 55, "duration": 110, "velocity": 100}, {"time": 107580, "pitch": 59, "duration": 55, "velocity": 100}, {"time": 107580, "pitch": 62, "duration": 220, "velocity": 100}, {"time": 107690, "pitch": 55, "duration": 55, "velocity": 100}, {"time": 107690, "pitch": 59, "duration": 110, "velocity": 100}, {"time": 107690, "pitch": 62, "duration": 110, "velocity": 100}, {"time": 107800, "pitch": 43, "duration": 330, "velocity": 100}, {"time": 107800, "pitch": 55, "duration": 110, "velocity": 100}, {"time": 107800, "pitch": 59, "duration": 110, "velocity": 100}, {"time": 107800, "pitch": 67, "duration": 440, "velocity": 100}, {"time": 107910, "pitch": 50, "duration": 110, "velocity": 100}, {"time": 108020, "pitch": 55, "duration": 55, "velocity": 100}, {"time": 108020, "pitch": 59, "duration": 55, "velocity": 100}, {"time": 108020, "pitch": 62, "duration": 55, "velocity": 100}, {"time": 108075, "pitch": 50, "duration": 55, "velocity": 100}, {"time": 108075, "pitch": 57, "duration": 55, "velocity": 100}, {"time": 108130, "pitch": 57, "duration": 55, "velocity": 100}, {"time": 108130, "pitch": 62, "duration": 55, "velocity": 100}, {"time": 108185, "pitch": 62, "duration": 55, "velocity": 100}, {"time": 108240, "pitch": 43, "duration": 330, "velocity": 100}, {"time": 108240, "pitch": 55, "duration": 55, "velocity": 100}, {"time": 108240, "pitch": 59, "duration": 165, "velocity": 100}, {"time": 108240, "pitch": 62, "duration": 330, "velocity": 100}, {"time": 108460, "pitch": 55, "duration": 55, "velocity": 100}, {"time": 108460, "pitch": 62, "duration": 220, "velocity": 100}, {"time": 108570, "pitch": 55, "duration": 110, "velocity": 100}, {"time": 108680, "pitch": 43, "duration": 385, "velocity": 100}, {"time": 108680, "pitch": 55, "duration": 165, "velocity": 100}, {"time": 108680, "pitch": 59, "duration": 165, "velocity": 100}, {"time": 108680, "pitch": 71, "duration": 110, "velocity": 100}, {"time": 108790, "pitch": 50, "duration": 275, "velocity": 100}, {"time": 108845, "pitch": 74, "duration": 165, "velocity": 100}, {"time": 108900, "pitch": 55, "duration": 55, "velocity": 100}, {"time": 108900, "pitch": 59, "duration": 55, "velocity": 100}, {"time": 108900, "pitch": 62, "duration": 55, "velocity": 100}, {"time": 108955, "pitch": 71, "duration": 165, "velocity": 100}, {"time": 109010, "pitch": 55, "duration": 55, "velocity": 100}, {"time": 109120, "pitch": 43, "duration": 110, "velocity": 100}, {"time": 109120, "pitch": 55, "duration": 55, "velocity": 100}, {"time": 109120, "pitch": 59, "duration": 110, "velocity": 100}, {"time": 109120, "pitch": 62, "duration": 220, "velocity": 100}, {"time": 109175, "pitch": 50, "duration": 55, "velocity": 100}, {"time": 109230, "pitch": 55, "duration": 55, "velocity": 100}, {"time": 109285, "pitch": 59, "duration": 55, "velocity": 100}, {"time": 109340, "pitch": 43, "duration": 220, "velocity": 100}, {"time": 109340, "pitch": 55, "duration": 55, "velocity": 100}, {"time": 109340, "pitch": 62, "duration": 165, "velocity": 100}, {"time": 109340, "pitch": 64, "duration": 220, "velocity": 100}, {"time": 109395, "pitch": 50, "duration": 165, "velocity": 100}, {"time": 109450, "pitch": 59, "duration": 110, "velocity": 100}, {"time": 109505, "pitch": 62, "duration": 55, "velocity": 100}, {"time": 109560, "pitch": 43, "duration": 275, "velocity": 100}, {"time": 109560, "pitch": 50, "duration": 110, "velocity": 100}, {"time": 109560, "pitch": 59, "duration": 110, "velocity": 100}, {"time": 109560, "pitch": 62, "duration": 275, "velocity": 100}, {"time": 109560, "pitch": 67, "duration": 275, "velocity": 100}, {"time": 109670, "pitch": 47, "duration": 110, "velocity": 100}, {"time": 109725, "pitch": 50, "duration": 55, "velocity": 100}, {"time": 109780, "pitch": 50, "duration": 55, "velocity": 100}, {"time": 109780, "pitch": 55, "duration": 55, "velocity": 100}, {"time": 109780, "pitch": 59, "duration": 55, "velocity": 100}, {"time": 109835, "pitch": 43, "duration": 55, "velocity": 100}, {"time": 109890, "pitch": 50, "duration": 55, "velocity": 100}, {"time": 110000, "pitch": 43, "duration": 385, "velocity": 100}, {"time": 110000, "pitch": 50, "duration": 55, "velocity": 100}, {"time": 110000, "pitch": 55, "duration": 165, "velocity": 100}, {"time": 110000, "pitch": 59, "duration": 165, "velocity": 100}, {"time": 110000, "pitch": 71, "duration": 440, "velocity": 100}, {"time": 110110, "pitch": 50, "duration": 165, "velocity": 100}, {"time": 110220, "pitch": 55, "duration": 55, "velocity": 100}, {"time": 110220, "pitch": 59, "duration": 110, "velocity": 100}, {"time": 110220, "pitch": 62, "duration": 110, "velocity": 100}, {"time": 110330, "pitch": 50, "duration": 55, "velocity": 100}, {"time": 110385, "pitch": 55, "duration": 55, "velocity": 100}, {"time": 110440, "pitch": 31, "duration": 275, "velocity": 100}, {"time": 110440, "pitch": 55, "duration": 165, "velocity": 100}, {"time": 110440, "pitch": 59, "duration": 165, "velocity": 100}, {"time": 110440, "pitch": 62, "duration": 275, "velocity": 100}, {"time": 110440, "pitch": 67, "duration": 440, "velocity": 100}, {"time": 110550, "pitch": 43, "duration": 110, "velocity": 100}, {"time": 110660, "pitch": 55, "duration": 55, "velocity": 100}, {"time": 110660, "pitch": 59, "duration": 55, "velocity": 100}, {"time": 110660, "pitch": 62, "duration": 165, "velocity": 100}, {"time": 110715, "pitch": 43, "duration": 55, "velocity": 100}, {"time": 110770, "pitch": 55, "duration": 55, "velocity": 100}, {"time": 110880, "pitch": 43, "duration": 330, "velocity": 100}, {"time": 110880, "pitch": 50, "duration": 55, "velocity": 100}, {"time": 110880, "pitch": 55, "duration": 165, "velocity": 100}, {"time": 110880, "pitch": 59, "duration": 110, "velocity": 100}, {"time": 110880, "pitch": 62, "duration": 220, "velocity": 100}, {"time": 110880, "pitch": 71, "duration": 440, "velocity": 100}, {"time": 110990, "pitch": 50, "duration": 110, "velocity": 100}, {"time": 111100, "pitch": 55, "duration": 110, "velocity": 100}, {"time": 111100, "pitch": 62, "duration": 165, "velocity": 100}, {"time": 111210, "pitch": 50, "duration": 55, "velocity": 100}, {"time": 111320, "pitch": 43, "duration": 330, "velocity": 100}, {"time": 111320, "pitch": 50, "duration": 110, "velocity": 100}, {"time": 111320, "pitch": 59, "duration": 110, "velocity": 100}, {"time": 111320, "pitch": 62, "duration": 275, "velocity": 100}, {"time": 111320, "pitch": 67, "duration": 385, "velocity": 100}, {"time": 111430, "pitch": 50, "duration": 110, "velocity": 100}, {"time": 111540, "pitch": 50, "duration": 55, "velocity": 100}, {"time": 111540, "pitch": 55, "duration": 55, "velocity": 100}, {"time": 111540, "pitch": 59, "duration": 55, "velocity": 100}, {"time": 111595, "pitch": 50, "duration": 55, "velocity": 100}, {"time": 111650, "pitch": 50, "duration": 55, "velocity": 100}, {"time": 111760, "pitch": 43, "duration": 275, "velocity": 100}, {"time": 111760, "pitch": 55, "duration": 110, "velocity": 100}, {"time": 111760, "pitch": 59, "duration": 110, "velocity": 100}, {"time": 111760, "pitch": 62, "duration": 165, "velocity": 100}, {"time": 111760, "pitch": 69, "duration": 220, "velocity": 100}, {"time": 111870, "pitch": 50, "duration": 110, "velocity": 100}, {"time": 111980, "pitch": 55, "duration": 55, "velocity": 100}, {"time": 111980, "pitch": 59, "duration": 110, "velocity": 100}, {"time": 111980, "pitch": 62, "duration": 110, "velocity": 100}, {"time": 111980, "pitch": 69, "duration": 220, "velocity": 100}, {"time": 112035, "pitch": 50, "duration": 55, "velocity": 100}, {"time": 112090, "pitch": 43, "duration": 55, "velocity": 100}, {"time": 112200, "pitch": 31, "duration": 275, "velocity": 100}, {"time": 112200, "pitch": 50, "duration": 55, "velocity": 100}, {"time": 112200, "pitch": 55, "duration": 110, "velocity": 100}, {"time": 112200, "pitch": 59, "duration": 110, "velocity": 100}, {"time": 112200, "pitch": 67, "duration": 330, "velocity": 100}, {"time": 112255, "pitch": 38, "duration": 220, "velocity": 100}, {"time": 112310, "pitch": 50, "duration": 55, "velocity": 100}, {"time": 112365, "pitch": 55, "duration": 55, "velocity": 100}, {"time": 112420, "pitch": 50, "duration": 110, "velocity": 100}, {"time": 112420, "pitch": 55, "duration": 110, "velocity": 100}, {"time": 112420, "pitch": 62, "duration": 110, "velocity": 100}, {"time": 112530, "pitch": 38, "duration": 55, "velocity": 100}, {"time": 112530, "pitch": 67, "duration": 55, "velocity": 100}, {"time": 112585, "pitch": 69, "duration": 55, "velocity": 100}, {"time": 112640, "pitch": 31, "duration": 165, "velocity": 100}, {"time": 112640, "pitch": 55, "duration": 55, "velocity": 100}, {"time": 112640, "pitch": 59, "duration": 110, "velocity": 100}, {"time": 112640, "pitch": 62, "duration": 110, "velocity": 100}, {"time": 112640, "pitch": 67, "duration": 220, "velocity": 100}, {"time": 112640, "pitch": 71, "duration": 220, "velocity": 100}, {"time": 112695, "pitch": 38, "duration": 55, "velocity": 100}, {"time": 112750, "pitch": 55, "duration": 55, "velocity": 100}, {"time": 112805, "pitch": 59, "duration": 55, "velocity": 100}, {"time": 112860, "pitch": 31, "duration": 165, "velocity": 100}, {"time": 112860, "pitch": 55, "duration": 110, "velocity": 100}, {"time": 112860, "pitch": 62, "duration": 110, "velocity": 100}, {"time": 112860, "pitch": 67, "duration": 220, "velocity": 100}, {"time": 112860, "pitch": 71, "duration": 220, "velocity": 100}, {"time": 112915, "pitch": 38, "duration": 55, "velocity": 100}, {"time": 112970, "pitch": 55, "duration": 55, "velocity": 100}, {"time": 113025, "pitch": 59, "duration": 55, "velocity": 100}, {"time": 113080, "pitch": 31, "duration": 330, "velocity": 100}, {"time": 113080, "pitch": 43, "duration": 55, "velocity": 100}, {"time": 113080, "pitch": 55, "duration": 110, "velocity": 100}, {"time": 113080, "pitch": 74, "duration": 385, "velocity": 100}, {"time": 113080, "pitch": 79, "duration": 330, "velocity": 100}, {"time": 113135, "pitch": 38, "duration": 165, "velocity": 100}, {"time": 113190, "pitch": 50, "duration": 55, "velocity": 100}, {"time": 113245, "pitch": 55, "duration": 55, "velocity": 100}, {"time": 113300, "pitch": 50, "duration": 55, "velocity": 100}, {"time": 113300, "pitch": 62, "duration": 110, "velocity": 100}, {"time": 113355, "pitch": 43, "duration": 55, "velocity": 100}, {"time": 113410, "pitch": 55, "duration": 55, "velocity": 100}, {"time": 113410, "pitch": 78, "duration": 110, "velocity": 100}, {"time": 113465, "pitch": 50, "duration": 55, "velocity": 100}, {"time": 113520, "pitch": 43, "duration": 330, "velocity": 100}, {"time": 113520, "pitch": 55, "duration": 55, "velocity": 100}, {"time": 113520, "pitch": 59, "duration": 110, "velocity": 100}, {"time": 113520, "pitch": 79, "duration": 440, "velocity": 100}, {"time": 113630, "pitch": 59, "duration": 55, "velocity": 100}, {"time": 113685, "pitch": 50, "duration": 55, "velocity": 100}, {"time": 113740, "pitch": 55, "duration": 55, "velocity": 100}, {"time": 113740, "pitch": 62, "duration": 110, "velocity": 100}, {"time": 113795, "pitch": 50, "duration": 55, "velocity": 100}, {"time": 113850, "pitch": 59, "duration": 55, "velocity": 100}, {"time": 113905, "pitch": 55, "duration": 55, "velocity": 100}, {"time": 113960, "pitch": 31, "duration": 330, "velocity": 100}, {"time": 113960, "pitch": 50, "duration": 55, "velocity": 100}, {"time": 113960, "pitch": 59, "duration": 110, "velocity": 100}, {"time": 113960, "pitch": 79, "duration": 110, "velocity": 100}, {"time": 114015, "pitch": 50, "duration": 55, "velocity": 100}, {"time": 114070, "pitch": 59, "duration": 55, "velocity": 100}, {"time": 114070, "pitch": 78, "duration": 110, "velocity": 100}, {"time": 114125, "pitch": 55, "duration": 55, "velocity": 100}, {"time": 114180, "pitch": 55, "duration": 55, "velocity": 100}, {"time": 114180, "pitch": 59, "duration": 110, "velocity": 100}, {"time": 114180, "pitch": 74, "duration": 110, "velocity": 100}, {"time": 114235, "pitch": 38, "duration": 55, "velocity": 100}, {"time": 114290, "pitch": 55, "duration": 55, "velocity": 100}, {"time": 114290, "pitch": 71, "duration": 110, "velocity": 100}, {"time": 114400, "pitch": 43, "duration": 385, "velocity": 100}, {"time": 114400, "pitch": 55, "duration": 55, "velocity": 100}, {"time": 114400, "pitch": 59, "duration": 220, "velocity": 100}, {"time": 114400, "pitch": 71, "duration": 275, "velocity": 100}, {"time": 114455, "pitch": 50, "duration": 110, "velocity": 100}, {"time": 114510, "pitch": 55, "duration": 55, "velocity": 100}, {"time": 114565, "pitch": 50, "duration": 55, "velocity": 100}, {"time": 114620, "pitch": 55, "duration": 110, "velocity": 100}, {"time": 114620, "pitch": 59, "duration": 110, "velocity": 100}, {"time": 114675, "pitch": 50, "duration": 110, "velocity": 100}, {"time": 114730, "pitch": 55, "duration": 55, "velocity": 100}, {"time": 114730, "pitch": 76, "duration": 55, "velocity": 100}, {"time": 114785, "pitch": 55, "duration": 55, "velocity": 100}, {"time": 114785, "pitch": 76, "duration": 55, "velocity": 100}, {"time": 114840, "pitch": 43, "duration": 385, "velocity": 100}, {"time": 114840, "pitch": 50, "duration": 55, "velocity": 100}, {"time": 114840, "pitch": 59, "duration": 110, "velocity": 100}, {"time": 114840, "pitch": 79, "duration": 330, "velocity": 100}, {"time": 114895, "pitch": 47, "duration": 165, "velocity": 100}, {"time": 114950, "pitch": 50, "duration": 110, "velocity": 100}, {"time": 115060, "pitch": 59, "duration": 110, "velocity": 100}, {"time": 115115, "pitch": 43, "duration": 110, "velocity": 100}, {"time": 115170, "pitch": 50, "duration": 55, "velocity": 100}, {"time": 115170, "pitch": 69, "duration": 55, "velocity": 100}, {"time": 115225, "pitch": 55, "duration": 55, "velocity": 100}, {"time": 115225, "pitch": 74, "duration": 55, "velocity": 100}, {"time": 115280, "pitch": 43, "duration": 385, "velocity": 100}, {"time": 115280, "pitch": 55, "duration": 55, "velocity": 100}, {"time": 115280, "pitch": 59, "duration": 110, "velocity": 100}, {"time": 115280, "pitch": 79, "duration": 440, "velocity": 100}, {"time": 115390, "pitch": 59, "duration": 110, "velocity": 100}, {"time": 115445, "pitch": 50, "duration": 55, "velocity": 100}, {"time": 115500, "pitch": 50, "duration": 110, "velocity": 100}, {"time": 115555, "pitch": 55, "duration": 55, "velocity": 100}, {"time": 115610, "pitch": 59, "duration": 55, "velocity": 100}, {"time": 115665, "pitch": 50, "duration": 55, "velocity": 100}, {"time": 115720, "pitch": 43, "duration": 330, "velocity": 100}, {"time": 115720, "pitch": 50, "duration": 55, "velocity": 100}, {"time": 115720, "pitch": 55, "duration": 55, "velocity": 100}, {"time": 115720, "pitch": 79, "duration": 220, "velocity": 100}, {"time": 115775, "pitch": 50, "duration": 55, "velocity": 100}, {"time": 115830, "pitch": 55, "duration": 55, "velocity": 100}, {"time": 115885, "pitch": 50, "duration": 55, "velocity": 100}, {"time": 115940, "pitch": 50, "duration": 55, "velocity": 100}, {"time": 115940, "pitch": 59, "duration": 110, "velocity": 100}, {"time": 115940, "pitch": 74, "duration": 110, "velocity": 100}, {"time": 115995, "pitch": 50, "duration": 55, "velocity": 100}, {"time": 116050, "pitch": 55, "duration": 55, "velocity": 100}, {"time": 116050, "pitch": 71, "duration": 110, "velocity": 100}, {"time": 116105, "pitch": 50, "duration": 55, "velocity": 100}]}]}