{"metadata": {"schema_version": "0.1", "title": "None", "source_filename": "20211210_060853.mid", "source_format": "midi"}, "resolution": 220, "tempos": [{"time": 0, "qpm": 120.0}], "time_signatures": [{"time": 0, "numerator": 4, "denominator": 4}], "tracks": [{"program": 0, "is_drum": false, "name": "Piano", "notes": [{"time": 0, "pitch": 63, "duration": 110, "velocity": 100}, {"time": 110, "pitch": 63, "duration": 110, "velocity": 100}, {"time": 220, "pitch": 63, "duration": 110, "velocity": 100}, {"time": 330, "pitch": 63, "duration": 110, "velocity": 100}, {"time": 440, "pitch": 63, "duration": 110, "velocity": 100}, {"time": 660, "pitch": 72, "duration": 110, "velocity": 100}, {"time": 770, "pitch": 68, "duration": 770, "velocity": 100}, {"time": 1760, "pitch": 63, "duration": 110, "velocity": 100}, {"time": 1870, "pitch": 68, "duration": 110, "velocity": 100}, {"time": 1980, "pitch": 68, "duration": 110, "velocity": 100}, {"time": 2090, "pitch": 68, "duration": 110, "velocity": 100}, {"time": 2200, "pitch": 70, "duration": 110, "velocity": 100}, {"time": 2310, "pitch": 72, "duration": 110, "velocity": 100}, {"time": 2530, "pitch": 68, "duration": 110, "velocity": 100}, {"time": 2640, "pitch": 63, "duration": 660, "velocity": 100}, {"time": 3520, "pitch": 63, "duration": 110, "velocity": 100}, {"time": 3630, "pitch": 63, "duration": 110, "velocity": 100}, {"time": 3740, "pitch": 63, "duration": 110, "velocity": 100}, {"time": 3850, "pitch": 63, "duration": 110, "velocity": 100}, {"time": 3960, "pitch": 63, "duration": 110, "velocity": 100}, {"time": 4180, "pitch": 75, "duration": 110, "velocity": 100}, {"time": 4290, "pitch": 72, "duration": 770, "velocity": 100}, {"time": 5280, "pitch": 65, "duration": 110, "velocity": 100}, {"time": 5390, "pitch": 73, "duration": 110, "velocity": 100}, {"time": 5500, "pitch": 73, "duration": 110, "velocity": 100}, {"time": 5610, "pitch": 73, "duration": 110, "velocity": 100}, {"time": 5830, "pitch": 72, "duration": 110, "velocity": 100}, {"time": 5940, "pitch": 72, "duration": 110, "velocity": 100}, {"time": 6050, "pitch": 68, "duration": 110, "velocity": 100}, {"time": 6160, "pitch": 63, "duration": 220, "velocity": 100}, {"time": 6380, "pitch": 72, "duration": 110, "velocity": 100}, {"time": 6490, "pitch": 70, "duration": 330, "velocity": 100}, {"time": 7040, "pitch": 63, "duration": 110, "velocity": 100}, {"time": 7150, "pitch": 63, "duration": 110, "velocity": 100}, {"time": 7260, "pitch": 63, "duration": 110, "velocity": 100}, {"time": 7370, "pitch": 63, "duration": 110, "velocity": 100}, {"time": 7480, "pitch": 63, "duration": 110, "velocity": 100}, {"time": 7700, "pitch": 72, "duration": 110, "velocity": 100}, {"time": 7810, "pitch": 68, "duration": 770, "velocity": 100}, {"time": 8800, "pitch": 63, "duration": 110, "velocity": 100}, {"time": 8910, "pitch": 68, "duration": 110, "velocity": 100}, {"time": 9020, "pitch": 68, "duration": 110, "velocity": 100}, {"time": 9130, "pitch": 68, "duration": 110, "velocity": 100}, {"time": 9240, "pitch": 70, "duration": 110, "velocity": 100}, {"time": 9350, "pitch": 72, "duration": 110, "velocity": 100}, {"time": 9570, "pitch": 68, "duration": 110, "velocity": 100}, {"time": 9680, "pitch": 63, "duration": 660, "velocity": 100}, {"time": 10560, "pitch": 63, "duration": 110, "velocity": 100}, {"time": 10670, "pitch": 63, "duration": 110, "velocity": 100}, {"time": 10780, "pitch": 63, "duration": 110, "velocity": 100}, {"time": 10890, "pitch": 63, "duration": 110, "velocity": 100}, {"time": 11000, "pitch": 63, "duration": 110, "velocity": 100}, {"time": 11220, "pitch": 75, "duration": 110, "velocity": 100}, {"time": 11330, "pitch": 72, "duration": 770, "velocity": 100}, {"time": 12320, "pitch": 65, "duration": 110, "velocity": 100}, {"time": 12430, "pitch": 73, "duration": 110, "velocity": 100}, {"time": 12540, "pitch": 73, "duration": 110, "velocity": 100}, {"time": 12650, "pitch": 73, "duration": 110, "velocity": 100}, {"time": 12870, "pitch": 72, "duration": 110, "velocity": 100}, {"time": 12980, "pitch": 72, "duration": 110, "velocity": 100}, {"time": 13090, "pitch": 68, "duration": 110, "velocity": 100}, {"time": 13200, "pitch": 63, "duration": 220, "velocity": 100}, {"time": 13420, "pitch": 70, "duration": 110, "velocity": 100}, {"time": 13530, "pitch": 68, "duration": 330, "velocity": 100}, {"time": 14080, "pitch": 72, "duration": 220, "velocity": 100}, {"time": 14300, "pitch": 75, "duration": 220, "velocity": 100}, {"time": 14520, "pitch": 75, "duration": 220, "velocity": 100}, {"time": 14740, "pitch": 72, "duration": 110, "velocity": 100}, {"time": 14850, "pitch": 75, "duration": 990, "velocity": 100}, {"time": 15840, "pitch": 72, "duration": 330, "velocity": 100}, {"time": 16170, "pitch": 68, "duration": 110, "velocity": 100}, {"time": 16280, "pitch": 70, "duration": 220, "velocity": 100}, {"time": 16500, "pitch": 72, "duration": 220, "velocity": 100}, {"time": 16720, "pitch": 65, "duration": 880, "velocity": 100}, {"time": 17600, "pitch": 67, "duration": 330, "velocity": 100}, {"time": 17930, "pitch": 68, "duration": 110, "velocity": 100}, {"time": 18040, "pitch": 70, "duration": 220, "velocity": 100}, {"time": 18260, "pitch": 63, "duration": 220, "velocity": 100}, {"time": 18480, "pitch": 72, "duration": 880, "velocity": 100}, {"time": 19360, "pitch": 73, "duration": 330, "velocity": 100}, {"time": 19690, "pitch": 72, "duration": 110, "velocity": 100}, {"time": 19800, "pitch": 70, "duration": 110, "velocity": 100}, {"time": 19910, "pitch": 72, "duration": 220, "velocity": 100}, {"time": 20130, "pitch": 68, "duration": 110, "velocity": 100}, {"time": 20240, "pitch": 63, "duration": 880, "velocity": 100}, {"time": 21120, "pitch": 72, "duration": 220, "velocity": 100}, {"time": 21340, "pitch": 75, "duration": 220, "velocity": 100}, {"time": 21560, "pitch": 75, "duration": 220, "velocity": 100}, {"time": 21780, "pitch": 72, "duration": 110, "velocity": 100}, {"time": 21890, "pitch": 75, "duration": 990, "velocity": 100}, {"time": 22880, "pitch": 73, "duration": 330, "velocity": 100}, {"time": 23210, "pitch": 72, "duration": 110, "velocity": 100}, {"time": 23320, "pitch": 70, "duration": 220, "velocity": 100}, {"time": 23540, "pitch": 68, "duration": 220, "velocity": 100}, {"time": 23760, "pitch": 77, "duration": 880, "velocity": 100}, {"time": 24640, "pitch": 65, "duration": 330, "velocity": 100}, {"time": 24970, "pitch": 67, "duration": 110, "velocity": 100}, {"time": 25080, "pitch": 68, "duration": 220, "velocity": 100}, {"time": 25300, "pitch": 65, "duration": 220, "velocity": 100}, {"time": 25520, "pitch": 73, "duration": 880, "velocity": 100}, {"time": 26400, "pitch": 70, "duration": 330, "velocity": 100}, {"time": 26730, "pitch": 70, "duration": 110, "velocity": 100}, {"time": 26840, "pitch": 72, "duration": 220, "velocity": 100}, {"time": 27060, "pitch": 74, "duration": 220, "velocity": 100}, {"time": 27280, "pitch": 75, "duration": 880, "velocity": 100}, {"time": 28160, "pitch": 63, "duration": 220, "velocity": 100}, {"time": 28380, "pitch": 68, "duration": 110, "velocity": 100}, {"time": 28490, "pitch": 68, "duration": 110, "velocity": 100}, {"time": 28600, "pitch": 70, "duration": 220, "velocity": 100}, {"time": 28820, "pitch": 72, "duration": 220, "velocity": 100}, {"time": 29040, "pitch": 73, "duration": 220, "velocity": 100}, {"time": 29260, "pitch": 72, "duration": 165, "velocity": 100}, {"time": 29425, "pitch": 72, "duration": 55, "velocity": 100}, {"time": 29480, "pitch": 70, "duration": 220, "velocity": 100}, {"time": 29700, "pitch": 65, "duration": 220, "velocity": 100}, {"time": 29920, "pitch": 63, "duration": 110, "velocity": 100}, {"time": 30030, "pitch": 68, "duration": 110, "velocity": 100}, {"time": 30140, "pitch": 68, "duration": 110, "velocity": 100}, {"time": 30250, "pitch": 68, "duration": 110, "velocity": 100}, {"time": 30360, "pitch": 67, "duration": 110, "velocity": 100}, {"time": 30470, "pitch": 68, "duration": 110, "velocity": 100}, {"time": 30580, "pitch": 70, "duration": 110, "velocity": 100}, {"time": 30690, "pitch": 70, "duration": 110, "velocity": 100}, {"time": 30800, "pitch": 68, "duration": 110, "velocity": 100}, {"time": 30910, "pitch": 68, "duration": 220, "velocity": 100}, {"time": 31130, "pitch": 70, "duration": 110, "velocity": 100}, {"time": 31240, "pitch": 72, "duration": 440, "velocity": 100}, {"time": 31680, "pitch": 65, "duration": 220, "velocity": 100}, {"time": 31900, "pitch": 70, "duration": 165, "velocity": 100}, {"time": 32065, "pitch": 70, "duration": 55, "velocity": 100}, {"time": 32120, "pitch": 72, "duration": 220, "velocity": 100}, {"time": 32340, "pitch": 73, "duration": 220, "velocity": 100}, {"time": 32560, "pitch": 77, "duration": 220, "velocity": 100}, {"time": 32780, "pitch": 75, "duration": 165, "velocity": 100}, {"time": 32945, "pitch": 77, "duration": 55, "velocity": 100}, {"time": 33000, "pitch": 73, "duration": 220, "velocity": 100}, {"time": 33220, "pitch": 72, "duration": 220, "velocity": 100}, {"time": 33440, "pitch": 65, "duration": 110, "velocity": 100}, {"time": 33550, "pitch": 70, "duration": 110, "velocity": 100}, {"time": 33660, "pitch": 70, "duration": 110, "velocity": 100}, {"time": 33770, "pitch": 70, "duration": 110, "velocity": 100}, {"time": 33880, "pitch": 68, "duration": 110, "velocity": 100}, {"time": 33990, "pitch": 72, "duration": 110, "velocity": 100}, {"time": 34100, "pitch": 72, "duration": 110, "velocity": 100}, {"time": 34210, "pitch": 72, "duration": 110, "velocity": 100}, {"time": 34320, "pitch": 70, "duration": 110, "velocity": 100}, {"time": 34430, "pitch": 70, "duration": 220, "velocity": 100}, {"time": 34650, "pitch": 72, "duration": 110, "velocity": 100}, {"time": 34760, "pitch": 73, "duration": 440, "velocity": 100}, {"time": 35200, "pitch": 68, "duration": 220, "velocity": 100}, {"time": 35420, "pitch": 73, "duration": 165, "velocity": 100}, {"time": 35585, "pitch": 73, "duration": 55, "velocity": 100}, {"time": 35640, "pitch": 75, "duration": 220, "velocity": 100}, {"time": 35860, "pitch": 77, "duration": 220, "velocity": 100}, {"time": 36080, "pitch": 77, "duration": 220, "velocity": 100}, {"time": 36300, "pitch": 75, "duration": 165, "velocity": 100}, {"time": 36465, "pitch": 77, "duration": 55, "velocity": 100}, {"time": 36520, "pitch": 73, "duration": 220, "velocity": 100}, {"time": 36740, "pitch": 68, "duration": 220, "velocity": 100}, {"time": 36960, "pitch": 68, "duration": 220, "velocity": 100}, {"time": 37180, "pitch": 73, "duration": 165, "velocity": 100}, {"time": 37345, "pitch": 73, "duration": 55, "velocity": 100}, {"time": 37400, "pitch": 75, "duration": 220, "velocity": 100}, {"time": 37620, "pitch": 77, "duration": 220, "velocity": 100}, {"time": 37840, "pitch": 77, "duration": 220, "velocity": 100}, {"time": 38060, "pitch": 75, "duration": 165, "velocity": 100}, {"time": 38225, "pitch": 77, "duration": 55, "velocity": 100}, {"time": 38280, "pitch": 73, "duration": 220, "velocity": 100}, {"time": 38500, "pitch": 68, "duration": 220, "velocity": 100}, {"time": 38940, "pitch": 68, "duration": 220, "velocity": 100}, {"time": 39160, "pitch": 77, "duration": 330, "velocity": 100}, {"time": 39490, "pitch": 68, "duration": 110, "velocity": 100}, {"time": 39600, "pitch": 77, "duration": 880, "velocity": 100}, {"time": 40700, "pitch": 68, "duration": 220, "velocity": 100}, {"time": 40920, "pitch": 77, "duration": 330, "velocity": 100}, {"time": 41250, "pitch": 68, "duration": 110, "velocity": 100}, {"time": 41360, "pitch": 77, "duration": 880, "velocity": 100}, {"time": 42240, "pitch": 79, "duration": 1760, "velocity": 100}, {"time": 44000, "pitch": 79, "duration": 1540, "velocity": 100}, {"time": 45760, "pitch": 75, "duration": 110, "velocity": 100}, {"time": 45870, "pitch": 75, "duration": 110, "velocity": 100}, {"time": 46090, "pitch": 72, "duration": 110, "velocity": 100}, {"time": 46200, "pitch": 75, "duration": 220, "velocity": 100}, {"time": 46640, "pitch": 75, "duration": 110, "velocity": 100}, {"time": 46750, "pitch": 75, "duration": 110, "velocity": 100}, {"time": 46970, "pitch": 72, "duration": 110, "velocity": 100}, {"time": 47080, "pitch": 75, "duration": 220, "velocity": 100}, {"time": 47520, "pitch": 77, "duration": 110, "velocity": 100}, {"time": 47630, "pitch": 77, "duration": 110, "velocity": 100}, {"time": 47850, "pitch": 73, "duration": 110, "velocity": 100}, {"time": 47960, "pitch": 77, "duration": 220, "velocity": 100}, {"time": 48400, "pitch": 77, "duration": 110, "velocity": 100}, {"time": 48510, "pitch": 77, "duration": 110, "velocity": 100}, {"time": 48730, "pitch": 73, "duration": 110, "velocity": 100}, {"time": 48840, "pitch": 77, "duration": 220, "velocity": 100}, {"time": 49170, "pitch": 75, "duration": 55, "velocity": 100}, {"time": 49225, "pitch": 75, "duration": 55, "velocity": 100}, {"time": 49280, "pitch": 75, "duration": 110, "velocity": 100}, {"time": 49390, "pitch": 75, "duration": 110, "velocity": 100}, {"time": 49500, "pitch": 75, "duration": 110, "velocity": 100}, {"time": 49610, "pitch": 75, "duration": 110, "velocity": 100}, {"time": 49720, "pitch": 75, "duration": 110, "velocity": 100}, {"time": 49830, "pitch": 75, "duration": 110, "velocity": 100}, {"time": 50160, "pitch": 75, "duration": 220, "velocity": 100}, {"time": 50380, "pitch": 75, "duration": 660, "velocity": 100}, {"time": 51040, "pitch": 63, "duration": 110, "velocity": 100}, {"time": 51150, "pitch": 63, "duration": 110, "velocity": 100}, {"time": 51260, "pitch": 63, "duration": 110, "velocity": 100}, {"time": 51370, "pitch": 63, "duration": 110, "velocity": 100}, {"time": 51480, "pitch": 63, "duration": 110, "velocity": 100}, {"time": 51700, "pitch": 72, "duration": 110, "velocity": 100}, {"time": 51810, "pitch": 68, "duration": 770, "velocity": 100}, {"time": 52800, "pitch": 63, "duration": 110, "velocity": 100}, {"time": 52910, "pitch": 68, "duration": 110, "velocity": 100}, {"time": 53020, "pitch": 68, "duration": 110, "velocity": 100}, {"time": 53130, "pitch": 68, "duration": 110, "velocity": 100}, {"time": 53240, "pitch": 70, "duration": 110, "velocity": 100}, {"time": 53350, "pitch": 72, "duration": 110, "velocity": 100}, {"time": 53570, "pitch": 68, "duration": 110, "velocity": 100}, {"time": 53680, "pitch": 63, "duration": 660, "velocity": 100}, {"time": 54560, "pitch": 63, "duration": 110, "velocity": 100}, {"time": 54670, "pitch": 63, "duration": 110, "velocity": 100}, {"time": 54780, "pitch": 63, "duration": 110, "velocity": 100}, {"time": 54890, "pitch": 63, "duration": 110, "velocity": 100}, {"time": 55000, "pitch": 63, "duration": 110, "velocity": 100}, {"time": 55220, "pitch": 75, "duration": 110, "velocity": 100}, {"time": 55330, "pitch": 72, "duration": 770, "velocity": 100}, {"time": 56320, "pitch": 65, "duration": 110, "velocity": 100}, {"time": 56430, "pitch": 73, "duration": 110, "velocity": 100}, {"time": 56540, "pitch": 73, "duration": 110, "velocity": 100}, {"time": 56650, "pitch": 73, "duration": 110, "velocity": 100}, {"time": 56870, "pitch": 72, "duration": 110, "velocity": 100}, {"time": 56980, "pitch": 72, "duration": 110, "velocity": 100}, {"time": 57090, "pitch": 68, "duration": 110, "velocity": 100}, {"time": 57200, "pitch": 63, "duration": 220, "velocity": 100}, {"time": 57420, "pitch": 72, "duration": 110, "velocity": 100}, {"time": 57530, "pitch": 70, "duration": 330, "velocity": 100}, {"time": 58080, "pitch": 63, "duration": 110, "velocity": 100}, {"time": 58190, "pitch": 63, "duration": 110, "velocity": 100}, {"time": 58300, "pitch": 63, "duration": 110, "velocity": 100}, {"time": 58410, "pitch": 63, "duration": 110, "velocity": 100}, {"time": 58520, "pitch": 63, "duration": 110, "velocity": 100}, {"time": 58740, "pitch": 72, "duration": 110, "velocity": 100}, {"time": 58850, "pitch": 68, "duration": 770, "velocity": 100}, {"time": 59840, "pitch": 63, "duration": 110, "velocity": 100}, {"time": 59950, "pitch": 68, "duration": 110, "velocity": 100}, {"time": 60060, "pitch": 68, "duration": 110, "velocity": 100}, {"time": 60170, "pitch": 68, "duration": 110, "velocity": 100}, {"time": 60280, "pitch": 70, "duration": 110, "velocity": 100}, {"time": 60390, "pitch": 72, "duration": 110, "velocity": 100}, {"time": 60610, "pitch": 68, "duration": 110, "velocity": 100}, {"time": 60720, "pitch": 63, "duration": 660, "velocity": 100}, {"time": 61600, "pitch": 63, "duration": 110, "velocity": 100}, {"time": 61710, "pitch": 63, "duration": 110, "velocity": 100}, {"time": 61820, "pitch": 63, "duration": 110, "velocity": 100}, {"time": 61930, "pitch": 63, "duration": 110, "velocity": 100}, {"time": 62040, "pitch": 63, "duration": 110, "velocity": 100}, {"time": 62260, "pitch": 75, "duration": 110, "velocity": 100}, {"time": 62370, "pitch": 72, "duration": 770, "velocity": 100}, {"time": 63360, "pitch": 65, "duration": 110, "velocity": 100}, {"time": 63470, "pitch": 73, "duration": 110, "velocity": 100}, {"time": 63580, "pitch": 73, "duration": 110, "velocity": 100}, {"time": 63690, "pitch": 73, "duration": 110, "velocity": 100}, {"time": 63910, "pitch": 72, "duration": 110, "velocity": 100}, {"time": 64020, "pitch": 72, "duration": 110, "velocity": 100}, {"time": 64130, "pitch": 68, "duration": 110, "velocity": 100}, {"time": 64240, "pitch": 63, "duration": 220, "velocity": 100}, {"time": 64460, "pitch": 70, "duration": 110, "velocity": 100}, {"time": 64570, "pitch": 68, "duration": 330, "velocity": 100}, {"time": 65120, "pitch": 72, "duration": 220, "velocity": 100}, {"time": 65340, "pitch": 75, "duration": 220, "velocity": 100}, {"time": 65560, "pitch": 75, "duration": 220, "velocity": 100}, {"time": 65780, "pitch": 72, "duration": 110, "velocity": 100}, {"time": 65890, "pitch": 75, "duration": 990, "velocity": 100}, {"time": 66880, "pitch": 72, "duration": 330, "velocity": 100}, {"time": 67210, "pitch": 68, "duration": 110, "velocity": 100}, {"time": 67320, "pitch": 70, "duration": 220, "velocity": 100}, {"time": 67540, "pitch": 72, "duration": 220, "velocity": 100}, {"time": 67760, "pitch": 65, "duration": 880, "velocity": 100}, {"time": 68640, "pitch": 67, "duration": 330, "velocity": 100}, {"time": 68970, "pitch": 68, "duration": 110, "velocity": 100}, {"time": 69080, "pitch": 70, "duration": 220, "velocity": 100}, {"time": 69300, "pitch": 63, "duration": 220, "velocity": 100}, {"time": 69520, "pitch": 72, "duration": 880, "velocity": 100}, {"time": 70400, "pitch": 73, "duration": 330, "velocity": 100}, {"time": 70730, "pitch": 72, "duration": 110, "velocity": 100}, {"time": 70840, "pitch": 70, "duration": 110, "velocity": 100}, {"time": 70950, "pitch": 72, "duration": 220, "velocity": 100}, {"time": 71170, "pitch": 68, "duration": 110, "velocity": 100}, {"time": 71280, "pitch": 63, "duration": 880, "velocity": 100}, {"time": 72160, "pitch": 72, "duration": 220, "velocity": 100}, {"time": 72380, "pitch": 75, "duration": 220, "velocity": 100}, {"time": 72600, "pitch": 75, "duration": 220, "velocity": 100}, {"time": 72820, "pitch": 72, "duration": 110, "velocity": 100}, {"time": 72930, "pitch": 75, "duration": 990, "velocity": 100}, {"time": 73920, "pitch": 73, "duration": 330, "velocity": 100}, {"time": 74250, "pitch": 72, "duration": 110, "velocity": 100}, {"time": 74360, "pitch": 70, "duration": 220, "velocity": 100}, {"time": 74580, "pitch": 68, "duration": 220, "velocity": 100}, {"time": 74800, "pitch": 77, "duration": 880, "velocity": 100}, {"time": 75680, "pitch": 65, "duration": 330, "velocity": 100}, {"time": 76010, "pitch": 67, "duration": 110, "velocity": 100}, {"time": 76120, "pitch": 68, "duration": 220, "velocity": 100}, {"time": 76340, "pitch": 65, "duration": 220, "velocity": 100}, {"time": 76560, "pitch": 73, "duration": 880, "velocity": 100}, {"time": 77440, "pitch": 70, "duration": 330, "velocity": 100}, {"time": 77770, "pitch": 70, "duration": 110, "velocity": 100}, {"time": 77880, "pitch": 72, "duration": 220, "velocity": 100}, {"time": 78100, "pitch": 74, "duration": 220, "velocity": 100}, {"time": 78320, "pitch": 75, "duration": 880, "velocity": 100}, {"time": 79200, "pitch": 63, "duration": 220, "velocity": 100}, {"time": 79420, "pitch": 68, "duration": 110, "velocity": 100}, {"time": 79530, "pitch": 68, "duration": 110, "velocity": 100}, {"time": 79640, "pitch": 70, "duration": 220, "velocity": 100}, {"time": 79860, "pitch": 72, "duration": 220, "velocity": 100}, {"time": 80080, "pitch": 73, "duration": 220, "velocity": 100}, {"time": 80300, "pitch": 72, "duration": 165, "velocity": 100}, {"time": 80465, "pitch": 72, "duration": 55, "velocity": 100}, {"time": 80520, "pitch": 70, "duration": 220, "velocity": 100}, {"time": 80740, "pitch": 65, "duration": 220, "velocity": 100}, {"time": 80960, "pitch": 63, "duration": 110, "velocity": 100}, {"time": 81070, "pitch": 68, "duration": 110, "velocity": 100}, {"time": 81180, "pitch": 68, "duration": 110, "velocity": 100}, {"time": 81290, "pitch": 68, "duration": 110, "velocity": 100}, {"time": 81400, "pitch": 67, "duration": 110, "velocity": 100}, {"time": 81510, "pitch": 68, "duration": 110, "velocity": 100}, {"time": 81620, "pitch": 70, "duration": 110, "velocity": 100}, {"time": 81730, "pitch": 70, "duration": 110, "velocity": 100}, {"time": 81840, "pitch": 68, "duration": 110, "velocity": 100}, {"time": 81950, "pitch": 68, "duration": 220, "velocity": 100}, {"time": 82170, "pitch": 70, "duration": 110, "velocity": 100}, {"time": 82280, "pitch": 72, "duration": 440, "velocity": 100}, {"time": 82720, "pitch": 65, "duration": 220, "velocity": 100}, {"time": 82940, "pitch": 70, "duration": 165, "velocity": 100}, {"time": 83105, "pitch": 70, "duration": 55, "velocity": 100}, {"time": 83160, "pitch": 72, "duration": 220, "velocity": 100}, {"time": 83380, "pitch": 73, "duration": 220, "velocity": 100}, {"time": 83600, "pitch": 77, "duration": 220, "velocity": 100}, {"time": 83820, "pitch": 75, "duration": 165, "velocity": 100}, {"time": 83985, "pitch": 77, "duration": 55, "velocity": 100}, {"time": 84040, "pitch": 73, "duration": 220, "velocity": 100}, {"time": 84260, "pitch": 72, "duration": 220, "velocity": 100}, {"time": 84480, "pitch": 65, "duration": 110, "velocity": 100}, {"time": 84590, "pitch": 70, "duration": 110, "velocity": 100}, {"time": 84700, "pitch": 70, "duration": 110, "velocity": 100}, {"time": 84810, "pitch": 70, "duration": 110, "velocity": 100}, {"time": 84920, "pitch": 68, "duration": 110, "velocity": 100}, {"time": 85030, "pitch": 72, "duration": 110, "velocity": 100}, {"time": 85140, "pitch": 72, "duration": 110, "velocity": 100}, {"time": 85250, "pitch": 72, "duration": 110, "velocity": 100}, {"time": 85360, "pitch": 70, "duration": 110, "velocity": 100}, {"time": 85470, "pitch": 70, "duration": 220, "velocity": 100}, {"time": 85690, "pitch": 72, "duration": 110, "velocity": 100}, {"time": 85800, "pitch": 73, "duration": 440, "velocity": 100}, {"time": 86240, "pitch": 68, "duration": 220, "velocity": 100}, {"time": 86460, "pitch": 73, "duration": 165, "velocity": 100}, {"time": 86625, "pitch": 73, "duration": 55, "velocity": 100}, {"time": 86680, "pitch": 75, "duration": 220, "velocity": 100}, {"time": 86900, "pitch": 77, "duration": 220, "velocity": 100}, {"time": 87120, "pitch": 77, "duration": 220, "velocity": 100}, {"time": 87340, "pitch": 75, "duration": 165, "velocity": 100}, {"time": 87505, "pitch": 77, "duration": 55, "velocity": 100}, {"time": 87560, "pitch": 73, "duration": 220, "velocity": 100}, {"time": 87780, "pitch": 68, "duration": 220, "velocity": 100}, {"time": 88000, "pitch": 68, "duration": 220, "velocity": 100}, {"time": 88220, "pitch": 73, "duration": 165, "velocity": 100}, {"time": 88385, "pitch": 73, "duration": 55, "velocity": 100}, {"time": 88440, "pitch": 75, "duration": 220, "velocity": 100}, {"time": 88660, "pitch": 77, "duration": 220, "velocity": 100}, {"time": 88880, "pitch": 77, "duration": 220, "velocity": 100}, {"time": 89100, "pitch": 75, "duration": 165, "velocity": 100}, {"time": 89265, "pitch": 77, "duration": 55, "velocity": 100}, {"time": 89320, "pitch": 73, "duration": 220, "velocity": 100}, {"time": 89540, "pitch": 68, "duration": 220, "velocity": 100}, {"time": 89980, "pitch": 68, "duration": 220, "velocity": 100}, {"time": 90200, "pitch": 77, "duration": 330, "velocity": 100}, {"time": 90530, "pitch": 68, "duration": 110, "velocity": 100}, {"time": 90640, "pitch": 77, "duration": 880, "velocity": 100}, {"time": 91740, "pitch": 68, "duration": 220, "velocity": 100}, {"time": 91960, "pitch": 77, "duration": 330, "velocity": 100}, {"time": 92290, "pitch": 68, "duration": 110, "velocity": 100}, {"time": 92400, "pitch": 77, "duration": 880, "velocity": 100}, {"time": 93280, "pitch": 79, "duration": 1760, "velocity": 100}, {"time": 95040, "pitch": 79, "duration": 1540, "velocity": 100}, {"time": 96800, "pitch": 75, "duration": 110, "velocity": 100}, {"time": 96910, "pitch": 75, "duration": 110, "velocity": 100}, {"time": 97130, "pitch": 72, "duration": 110, "velocity": 100}, {"time": 97240, "pitch": 75, "duration": 220, "velocity": 100}, {"time": 97680, "pitch": 75, "duration": 110, "velocity": 100}, {"time": 97790, "pitch": 75, "duration": 110, "velocity": 100}, {"time": 98010, "pitch": 72, "duration": 110, "velocity": 100}, {"time": 98120, "pitch": 75, "duration": 220, "velocity": 100}, {"time": 98560, "pitch": 77, "duration": 110, "velocity": 100}, {"time": 98670, "pitch": 77, "duration": 110, "velocity": 100}, {"time": 98890, "pitch": 73, "duration": 110, "velocity": 100}, {"time": 99000, "pitch": 77, "duration": 220, "velocity": 100}, {"time": 99440, "pitch": 77, "duration": 110, "velocity": 100}, {"time": 99550, "pitch": 77, "duration": 110, "velocity": 100}, {"time": 99770, "pitch": 73, "duration": 110, "velocity": 100}, {"time": 99880, "pitch": 77, "duration": 220, "velocity": 100}, {"time": 100210, "pitch": 75, "duration": 55, "velocity": 100}, {"time": 100265, "pitch": 75, "duration": 55, "velocity": 100}, {"time": 100320, "pitch": 75, "duration": 110, "velocity": 100}, {"time": 100430, "pitch": 75, "duration": 110, "velocity": 100}, {"time": 100540, "pitch": 75, "duration": 110, "velocity": 100}, {"time": 100650, "pitch": 75, "duration": 110, "velocity": 100}, {"time": 100760, "pitch": 75, "duration": 110, "velocity": 100}, {"time": 100870, "pitch": 75, "duration": 110, "velocity": 100}, {"time": 101200, "pitch": 75, "duration": 440, "velocity": 100}, {"time": 101640, "pitch": 80, "duration": 440, "velocity": 100}, {"time": 0, "pitch": 44, "duration": 275, "velocity": 100}, {"time": 0, "pitch": 56, "duration": 110, "velocity": 100}, {"time": 0, "pitch": 63, "duration": 110, "velocity": 100}, {"time": 110, "pitch": 51, "duration": 110, "velocity": 100}, {"time": 220, "pitch": 56, "duration": 55, "velocity": 100}, {"time": 220, "pitch": 60, "duration": 55, "velocity": 100}, {"time": 220, "pitch": 63, "duration": 55, "velocity": 100}, {"time": 275, "pitch": 51, "duration": 55, "velocity": 100}, {"time": 275, "pitch": 68, "duration": 55, "velocity": 100}, {"time": 330, "pitch": 56, "duration": 55, "velocity": 100}, {"time": 330, "pitch": 63, "duration": 55, "velocity": 100}, {"time": 385, "pitch": 60, "duration": 55, "velocity": 100}, {"time": 440, "pitch": 44, "duration": 275, "velocity": 100}, {"time": 440, "pitch": 56, "duration": 55, "velocity": 100}, {"time": 440, "pitch": 60, "duration": 440, "velocity": 100}, {"time": 550, "pitch": 56, "duration": 55, "velocity": 100}, {"time": 660, "pitch": 56, "duration": 110, "velocity": 100}, {"time": 660, "pitch": 63, "duration": 220, "velocity": 100}, {"time": 770, "pitch": 60, "duration": 165, "velocity": 100}, {"time": 880, "pitch": 44, "duration": 385, "velocity": 100}, {"time": 880, "pitch": 56, "duration": 165, "velocity": 100}, {"time": 880, "pitch": 60, "duration": 220, "velocity": 100}, {"time": 990, "pitch": 51, "duration": 165, "velocity": 100}, {"time": 1100, "pitch": 60, "duration": 110, "velocity": 100}, {"time": 1100, "pitch": 63, "duration": 110, "velocity": 100}, {"time": 1155, "pitch": 65, "duration": 55, "velocity": 100}, {"time": 1210, "pitch": 51, "duration": 55, "velocity": 100}, {"time": 1210, "pitch": 65, "duration": 55, "velocity": 100}, {"time": 1265, "pitch": 56, "duration": 55, "velocity": 100}, {"time": 1265, "pitch": 60, "duration": 55, "velocity": 100}, {"time": 1320, "pitch": 44, "duration": 275, "velocity": 100}, {"time": 1320, "pitch": 56, "duration": 55, "velocity": 100}, {"time": 1320, "pitch": 60, "duration": 220, "velocity": 100}, {"time": 1320, "pitch": 63, "duration": 220, "velocity": 100}, {"time": 1430, "pitch": 56, "duration": 55, "velocity": 100}, {"time": 1540, "pitch": 60, "duration": 110, "velocity": 100}, {"time": 1540, "pitch": 63, "duration": 220, "velocity": 100}, {"time": 1650, "pitch": 56, "duration": 110, "velocity": 100}, {"time": 1650, "pitch": 61, "duration": 110, "velocity": 100}, {"time": 1760, "pitch": 44, "duration": 385, "velocity": 100}, {"time": 1760, "pitch": 56, "duration": 165, "velocity": 100}, {"time": 1760, "pitch": 60, "duration": 220, "velocity": 100}, {"time": 1870, "pitch": 51, "duration": 110, "velocity": 100}, {"time": 1980, "pitch": 56, "duration": 55, "velocity": 100}, {"time": 1980, "pitch": 60, "duration": 55, "velocity": 100}, {"time": 1980, "pitch": 63, "duration": 55, "velocity": 100}, {"time": 2035, "pitch": 51, "duration": 55, "velocity": 100}, {"time": 2035, "pitch": 68, "duration": 55, "velocity": 100}, {"time": 2090, "pitch": 58, "duration": 55, "velocity": 100}, {"time": 2090, "pitch": 63, "duration": 55, "velocity": 100}, {"time": 2145, "pitch": 60, "duration": 55, "velocity": 100}, {"time": 2145, "pitch": 63, "duration": 55, "velocity": 100}, {"time": 2200, "pitch": 44, "duration": 330, "velocity": 100}, {"time": 2200, "pitch": 56, "duration": 165, "velocity": 100}, {"time": 2200, "pitch": 60, "duration": 440, "velocity": 100}, {"time": 2420, "pitch": 56, "duration": 55, "velocity": 100}, {"time": 2420, "pitch": 63, "duration": 220, "velocity": 100}, {"time": 2530, "pitch": 56, "duration": 110, "velocity": 100}, {"time": 2530, "pitch": 60, "duration": 110, "velocity": 100}, {"time": 2640, "pitch": 43, "duration": 385, "velocity": 100}, {"time": 2640, "pitch": 55, "duration": 165, "velocity": 100}, {"time": 2640, "pitch": 58, "duration": 220, "velocity": 100}, {"time": 2750, "pitch": 51, "duration": 275, "velocity": 100}, {"time": 2860, "pitch": 55, "duration": 55, "velocity": 100}, {"time": 2860, "pitch": 61, "duration": 110, "velocity": 100}, {"time": 2860, "pitch": 63, "duration": 110, "velocity": 100}, {"time": 2860, "pitch": 72, "duration": 55, "velocity": 100}, {"time": 2915, "pitch": 73, "duration": 55, "velocity": 100}, {"time": 2970, "pitch": 58, "duration": 55, "velocity": 100}, {"time": 3025, "pitch": 75, "duration": 55, "velocity": 100}, {"time": 3080, "pitch": 49, "duration": 385, "velocity": 100}, {"time": 3080, "pitch": 55, "duration": 55, "velocity": 100}, {"time": 3080, "pitch": 61, "duration": 220, "velocity": 100}, {"time": 3080, "pitch": 75, "duration": 165, "velocity": 100}, {"time": 3190, "pitch": 55, "duration": 55, "velocity": 100}, {"time": 3245, "pitch": 77, "duration": 165, "velocity": 100}, {"time": 3300, "pitch": 55, "duration": 55, "velocity": 100}, {"time": 3300, "pitch": 61, "duration": 110, "velocity": 100}, {"time": 3355, "pitch": 73, "duration": 55, "velocity": 100}, {"time": 3410, "pitch": 63, "duration": 110, "velocity": 100}, {"time": 3520, "pitch": 44, "duration": 275, "velocity": 100}, {"time": 3520, "pitch": 51, "duration": 110, "velocity": 100}, {"time": 3520, "pitch": 60, "duration": 110, "velocity": 100}, {"time": 3630, "pitch": 51, "duration": 110, "velocity": 100}, {"time": 3740, "pitch": 51, "duration": 55, "velocity": 100}, {"time": 3740, "pitch": 56, "duration": 55, "velocity": 100}, {"time": 3740, "pitch": 60, "duration": 55, "velocity": 100}, {"time": 3740, "pitch": 63, "duration": 110, "velocity": 100}, {"time": 3795, "pitch": 51, "duration": 55, "velocity": 100}, {"time": 3850, "pitch": 56, "duration": 55, "velocity": 100}, {"time": 3850, "pitch": 60, "duration": 110, "velocity": 100}, {"time": 3960, "pitch": 44, "duration": 330, "velocity": 100}, {"time": 3960, "pitch": 56, "duration": 55, "velocity": 100}, {"time": 3960, "pitch": 60, "duration": 110, "velocity": 100}, {"time": 3960, "pitch": 63, "duration": 110, "velocity": 100}, {"time": 4070, "pitch": 51, "duration": 55, "velocity": 100}, {"time": 4180, "pitch": 51, "duration": 55, "velocity": 100}, {"time": 4180, "pitch": 60, "duration": 55, "velocity": 100}, {"time": 4235, "pitch": 63, "duration": 55, "velocity": 100}, {"time": 4290, "pitch": 56, "duration": 55, "velocity": 100}, {"time": 4290, "pitch": 60, "duration": 110, "velocity": 100}, {"time": 4345, "pitch": 58, "duration": 55, "velocity": 100}, {"time": 4400, "pitch": 44, "duration": 275, "velocity": 100}, {"time": 4400, "pitch": 51, "duration": 165, "velocity": 100}, {"time": 4400, "pitch": 56, "duration": 220, "velocity": 100}, {"time": 4510, "pitch": 51, "duration": 165, "velocity": 100}, {"time": 4620, "pitch": 56, "duration": 55, "velocity": 100}, {"time": 4620, "pitch": 60, "duration": 165, "velocity": 100}, {"time": 4620, "pitch": 63, "duration": 220, "velocity": 100}, {"time": 4730, "pitch": 44, "duration": 55, "velocity": 100}, {"time": 4785, "pitch": 56, "duration": 55, "velocity": 100}, {"time": 4840, "pitch": 44, "duration": 275, "velocity": 100}, {"time": 4840, "pitch": 56, "duration": 55, "velocity": 100}, {"time": 4840, "pitch": 60, "duration": 220, "velocity": 100}, {"time": 4840, "pitch": 63, "duration": 440, "velocity": 100}, {"time": 4950, "pitch": 51, "duration": 55, "velocity": 100}, {"time": 5060, "pitch": 56, "duration": 55, "velocity": 100}, {"time": 5060, "pitch": 60, "duration": 110, "velocity": 100}, {"time": 5170, "pitch": 51, "duration": 55, "velocity": 100}, {"time": 5170, "pitch": 56, "duration": 110, "velocity": 100}, {"time": 5170, "pitch": 60, "duration": 110, "velocity": 100}, {"time": 5280, "pitch": 41, "duration": 385, "velocity": 100}, {"time": 5280, "pitch": 53, "duration": 110, "velocity": 100}, {"time": 5280, "pitch": 58, "duration": 110, "velocity": 100}, {"time": 5280, "pitch": 65, "duration": 220, "velocity": 100}, {"time": 5390, "pitch": 49, "duration": 110, "velocity": 100}, {"time": 5500, "pitch": 53, "duration": 55, "velocity": 100}, {"time": 5500, "pitch": 58, "duration": 55, "velocity": 100}, {"time": 5500, "pitch": 61, "duration": 55, "velocity": 100}, {"time": 5555, "pitch": 48, "duration": 165, "velocity": 100}, {"time": 5555, "pitch": 60, "duration": 55, "velocity": 100}, {"time": 5610, "pitch": 56, "duration": 55, "velocity": 100}, {"time": 5610, "pitch": 61, "duration": 55, "velocity": 100}, {"time": 5665, "pitch": 56, "duration": 55, "velocity": 100}, {"time": 5665, "pitch": 63, "duration": 55, "velocity": 100}, {"time": 5720, "pitch": 46, "duration": 330, "velocity": 100}, {"time": 5720, "pitch": 53, "duration": 55, "velocity": 100}, {"time": 5720, "pitch": 58, "duration": 110, "velocity": 100}, {"time": 5720, "pitch": 62, "duration": 165, "velocity": 100}, {"time": 5940, "pitch": 53, "duration": 55, "velocity": 100}, {"time": 5940, "pitch": 62, "duration": 220, "velocity": 100}, {"time": 6050, "pitch": 53, "duration": 110, "velocity": 100}, {"time": 6050, "pitch": 58, "duration": 55, "velocity": 100}, {"time": 6160, "pitch": 39, "duration": 385, "velocity": 100}, {"time": 6160, "pitch": 51, "duration": 165, "velocity": 100}, {"time": 6160, "pitch": 58, "duration": 110, "velocity": 100}, {"time": 6160, "pitch": 67, "duration": 110, "velocity": 100}, {"time": 6270, "pitch": 46, "duration": 275, "velocity": 100}, {"time": 6325, "pitch": 70, "duration": 55, "velocity": 100}, {"time": 6380, "pitch": 51, "duration": 55, "velocity": 100}, {"time": 6380, "pitch": 55, "duration": 110, "velocity": 100}, {"time": 6380, "pitch": 63, "duration": 110, "velocity": 100}, {"time": 6435, "pitch": 70, "duration": 165, "velocity": 100}, {"time": 6490, "pitch": 51, "duration": 55, "velocity": 100}, {"time": 6600, "pitch": 39, "duration": 385, "velocity": 100}, {"time": 6600, "pitch": 55, "duration": 110, "velocity": 100}, {"time": 6600, "pitch": 58, "duration": 165, "velocity": 100}, {"time": 6600, "pitch": 63, "duration": 165, "velocity": 100}, {"time": 6600, "pitch": 65, "duration": 165, "velocity": 100}, {"time": 6710, "pitch": 46, "duration": 110, "velocity": 100}, {"time": 6765, "pitch": 55, "duration": 55, "velocity": 100}, {"time": 6820, "pitch": 55, "duration": 55, "velocity": 100}, {"time": 6820, "pitch": 58, "duration": 110, "velocity": 100}, {"time": 6820, "pitch": 63, "duration": 110, "velocity": 100}, {"time": 6875, "pitch": 46, "duration": 165, "velocity": 100}, {"time": 6930, "pitch": 55, "duration": 110, "velocity": 100}, {"time": 6985, "pitch": 58, "duration": 55, "velocity": 100}, {"time": 7040, "pitch": 48, "duration": 385, "velocity": 100}, {"time": 7150, "pitch": 56, "duration": 330, "velocity": 100}, {"time": 7260, "pitch": 63, "duration": 165, "velocity": 100}, {"time": 7260, "pitch": 68, "duration": 220, "velocity": 100}, {"time": 7260, "pitch": 72, "duration": 220, "velocity": 100}, {"time": 7480, "pitch": 44, "duration": 275, "velocity": 100}, {"time": 7480, "pitch": 56, "duration": 110, "velocity": 100}, {"time": 7480, "pitch": 63, "duration": 110, "velocity": 100}, {"time": 7590, "pitch": 51, "duration": 110, "velocity": 100}, {"time": 7700, "pitch": 56, "duration": 55, "velocity": 100}, {"time": 7700, "pitch": 60, "duration": 55, "velocity": 100}, {"time": 7700, "pitch": 65, "duration": 55, "velocity": 100}, {"time": 7755, "pitch": 58, "duration": 55, "velocity": 100}, {"time": 7810, "pitch": 58, "duration": 55, "velocity": 100}, {"time": 7810, "pitch": 61, "duration": 55, "velocity": 100}, {"time": 7865, "pitch": 58, "duration": 55, "velocity": 100}, {"time": 7865, "pitch": 61, "duration": 55, "velocity": 100}, {"time": 7920, "pitch": 44, "duration": 275, "velocity": 100}, {"time": 7920, "pitch": 56, "duration": 55, "velocity": 100}, {"time": 7920, "pitch": 60, "duration": 220, "velocity": 100}, {"time": 8030, "pitch": 56, "duration": 55, "velocity": 100}, {"time": 8140, "pitch": 56, "duration": 110, "velocity": 100}, {"time": 8140, "pitch": 63, "duration": 220, "velocity": 100}, {"time": 8250, "pitch": 60, "duration": 165, "velocity": 100}, {"time": 8360, "pitch": 44, "duration": 330, "velocity": 100}, {"time": 8360, "pitch": 56, "duration": 165, "velocity": 100}, {"time": 8360, "pitch": 60, "duration": 165, "velocity": 100}, {"time": 8470, "pitch": 51, "duration": 165, "velocity": 100}, {"time": 8580, "pitch": 60, "duration": 110, "velocity": 100}, {"time": 8580, "pitch": 63, "duration": 110, "velocity": 100}, {"time": 8635, "pitch": 65, "duration": 55, "velocity": 100}, {"time": 8690, "pitch": 56, "duration": 55, "velocity": 100}, {"time": 8745, "pitch": 58, "duration": 55, "velocity": 100}, {"time": 8745, "pitch": 61, "duration": 55, "velocity": 100}, {"time": 8800, "pitch": 44, "duration": 220, "velocity": 100}, {"time": 8800, "pitch": 56, "duration": 165, "velocity": 100}, {"time": 8800, "pitch": 60, "duration": 330, "velocity": 100}, {"time": 8910, "pitch": 56, "duration": 55, "velocity": 100}, {"time": 9020, "pitch": 60, "duration": 220, "velocity": 100}, {"time": 9020, "pitch": 63, "duration": 220, "velocity": 100}, {"time": 9130, "pitch": 56, "duration": 110, "velocity": 100}, {"time": 9130, "pitch": 61, "duration": 110, "velocity": 100}, {"time": 9240, "pitch": 44, "duration": 330, "velocity": 100}, {"time": 9240, "pitch": 56, "duration": 165, "velocity": 100}, {"time": 9240, "pitch": 60, "duration": 220, "velocity": 100}, {"time": 9350, "pitch": 51, "duration": 110, "velocity": 100}, {"time": 9460, "pitch": 56, "duration": 55, "velocity": 100}, {"time": 9460, "pitch": 61, "duration": 55, "velocity": 100}, {"time": 9460, "pitch": 63, "duration": 55, "velocity": 100}, {"time": 9515, "pitch": 51, "duration": 55, "velocity": 100}, {"time": 9515, "pitch": 65, "duration": 55, "velocity": 100}, {"time": 9570, "pitch": 58, "duration": 55, "velocity": 100}, {"time": 9570, "pitch": 61, "duration": 55, "velocity": 100}, {"time": 9625, "pitch": 60, "duration": 55, "velocity": 100}, {"time": 9625, "pitch": 63, "duration": 55, "velocity": 100}, {"time": 9680, "pitch": 49, "duration": 330, "velocity": 100}, {"time": 9680, "pitch": 55, "duration": 165, "velocity": 100}, {"time": 9680, "pitch": 61, "duration": 330, "velocity": 100}, {"time": 9900, "pitch": 55, "duration": 55, "velocity": 100}, {"time": 9900, "pitch": 61, "duration": 220, "velocity": 100}, {"time": 9900, "pitch": 63, "duration": 110, "velocity": 100}, {"time": 10010, "pitch": 58, "duration": 110, "velocity": 100}, {"time": 10010, "pitch": 61, "duration": 110, "velocity": 100}, {"time": 10120, "pitch": 39, "duration": 385, "velocity": 100}, {"time": 10120, "pitch": 55, "duration": 165, "velocity": 100}, {"time": 10120, "pitch": 58, "duration": 165, "velocity": 100}, {"time": 10120, "pitch": 61, "duration": 165, "velocity": 100}, {"time": 10230, "pitch": 51, "duration": 275, "velocity": 100}, {"time": 10340, "pitch": 58, "duration": 55, "velocity": 100}, {"time": 10340, "pitch": 61, "duration": 110, "velocity": 100}, {"time": 10340, "pitch": 67, "duration": 110, "velocity": 100}, {"time": 10340, "pitch": 73, "duration": 55, "velocity": 100}, {"time": 10395, "pitch": 75, "duration": 55, "velocity": 100}, {"time": 10450, "pitch": 58, "duration": 55, "velocity": 100}, {"time": 10505, "pitch": 77, "duration": 55, "velocity": 100}, {"time": 10560, "pitch": 44, "duration": 440, "velocity": 100}, {"time": 10560, "pitch": 48, "duration": 55, "velocity": 100}, {"time": 10560, "pitch": 56, "duration": 110, "velocity": 100}, {"time": 10560, "pitch": 68, "duration": 110, "velocity": 100}, {"time": 10670, "pitch": 51, "duration": 55, "velocity": 100}, {"time": 10725, "pitch": 68, "duration": 275, "velocity": 100}, {"time": 10780, "pitch": 48, "duration": 55, "velocity": 100}, {"time": 10780, "pitch": 51, "duration": 55, "velocity": 100}, {"time": 10835, "pitch": 63, "duration": 55, "velocity": 100}, {"time": 10890, "pitch": 56, "duration": 110, "velocity": 100}, {"time": 11000, "pitch": 32, "duration": 275, "velocity": 100}, {"time": 11000, "pitch": 51, "duration": 110, "velocity": 100}, {"time": 11000, "pitch": 56, "duration": 110, "velocity": 100}, {"time": 11110, "pitch": 44, "duration": 110, "velocity": 100}, {"time": 11220, "pitch": 51, "duration": 55, "velocity": 100}, {"time": 11220, "pitch": 56, "duration": 55, "velocity": 100}, {"time": 11220, "pitch": 60, "duration": 220, "velocity": 100}, {"time": 11275, "pitch": 39, "duration": 55, "velocity": 100}, {"time": 11330, "pitch": 51, "duration": 55, "velocity": 100}, {"time": 11330, "pitch": 56, "duration": 110, "velocity": 100}, {"time": 11440, "pitch": 44, "duration": 385, "velocity": 100}, {"time": 11440, "pitch": 51, "duration": 55, "velocity": 100}, {"time": 11440, "pitch": 56, "duration": 110, "velocity": 100}, {"time": 11440, "pitch": 60, "duration": 165, "velocity": 100}, {"time": 11550, "pitch": 51, "duration": 55, "velocity": 100}, {"time": 11660, "pitch": 48, "duration": 55, "velocity": 100}, {"time": 11660, "pitch": 56, "duration": 55, "velocity": 100}, {"time": 11715, "pitch": 58, "duration": 55, "velocity": 100}, {"time": 11770, "pitch": 51, "duration": 55, "velocity": 100}, {"time": 11770, "pitch": 56, "duration": 110, "velocity": 100}, {"time": 11825, "pitch": 51, "duration": 55, "velocity": 100}, {"time": 11880, "pitch": 32, "duration": 330, "velocity": 100}, {"time": 11880, "pitch": 48, "duration": 165, "velocity": 100}, {"time": 11880, "pitch": 51, "duration": 220, "velocity": 100}, {"time": 11990, "pitch": 44, "duration": 165, "velocity": 100}, {"time": 12100, "pitch": 51, "duration": 110, "velocity": 100}, {"time": 12100, "pitch": 56, "duration": 220, "velocity": 100}, {"time": 12100, "pitch": 60, "duration": 220, "velocity": 100}, {"time": 12210, "pitch": 44, "duration": 55, "velocity": 100}, {"time": 12265, "pitch": 51, "duration": 55, "velocity": 100}, {"time": 12320, "pitch": 46, "duration": 330, "velocity": 100}, {"time": 12320, "pitch": 49, "duration": 55, "velocity": 100}, {"time": 12320, "pitch": 53, "duration": 220, "velocity": 100}, {"time": 12320, "pitch": 58, "duration": 275, "velocity": 100}, {"time": 12430, "pitch": 49, "duration": 55, "velocity": 100}, {"time": 12540, "pitch": 53, "duration": 55, "velocity": 100}, {"time": 12540, "pitch": 58, "duration": 220, "velocity": 100}, {"time": 12650, "pitch": 49, "duration": 55, "velocity": 100}, {"time": 12650, "pitch": 53, "duration": 110, "velocity": 100}, {"time": 12650, "pitch": 56, "duration": 110, "velocity": 100}, {"time": 12650, "pitch": 58, "duration": 110, "velocity": 100}, {"time": 12760, "pitch": 34, "duration": 330, "velocity": 100}, {"time": 12760, "pitch": 50, "duration": 110, "velocity": 100}, {"time": 12760, "pitch": 53, "duration": 110, "velocity": 100}, {"time": 12760, "pitch": 58, "duration": 165, "velocity": 100}, {"time": 12870, "pitch": 41, "duration": 110, "velocity": 100}, {"time": 12980, "pitch": 46, "duration": 55, "velocity": 100}, {"time": 12980, "pitch": 53, "duration": 55, "velocity": 100}, {"time": 12980, "pitch": 56, "duration": 55, "velocity": 100}, {"time": 13035, "pitch": 41, "duration": 55, "velocity": 100}, {"time": 13035, "pitch": 53, "duration": 55, "velocity": 100}, {"time": 13090, "pitch": 53, "duration": 55, "velocity": 100}, {"time": 13090, "pitch": 58, "duration": 55, "velocity": 100}, {"time": 13145, "pitch": 53, "duration": 55, "velocity": 100}, {"time": 13145, "pitch": 60, "duration": 55, "velocity": 100}, {"time": 13200, "pitch": 39, "duration": 330, "velocity": 100}, {"time": 13200, "pitch": 51, "duration": 165, "velocity": 100}, {"time": 13200, "pitch": 55, "duration": 165, "velocity": 100}, {"time": 13200, "pitch": 58, "duration": 165, "velocity": 100}, {"time": 13420, "pitch": 51, "duration": 55, "velocity": 100}, {"time": 13420, "pitch": 55, "duration": 110, "velocity": 100}, {"time": 13420, "pitch": 58, "duration": 220, "velocity": 100}, {"time": 13530, "pitch": 51, "duration": 110, "velocity": 100}, {"time": 13640, "pitch": 32, "duration": 385, "velocity": 100}, {"time": 13640, "pitch": 51, "duration": 165, "velocity": 100}, {"time": 13640, "pitch": 56, "duration": 165, "velocity": 100}, {"time": 13640, "pitch": 65, "duration": 110, "velocity": 100}, {"time": 13750, "pitch": 39, "duration": 220, "velocity": 100}, {"time": 13805, "pitch": 68, "duration": 55, "velocity": 100}, {"time": 13860, "pitch": 48, "duration": 55, "velocity": 100}, {"time": 13860, "pitch": 51, "duration": 110, "velocity": 100}, {"time": 13860, "pitch": 60, "duration": 110, "velocity": 100}, {"time": 13915, "pitch": 63, "duration": 165, "velocity": 100}, {"time": 13970, "pitch": 44, "duration": 55, "velocity": 100}, {"time": 14080, "pitch": 32, "duration": 220, "velocity": 100}, {"time": 14080, "pitch": 51, "duration": 110, "velocity": 100}, {"time": 14080, "pitch": 60, "duration": 110, "velocity": 100}, {"time": 14190, "pitch": 44, "duration": 110, "velocity": 100}, {"time": 14190, "pitch": 75, "duration": 55, "velocity": 100}, {"time": 14245, "pitch": 77, "duration": 55, "velocity": 100}, {"time": 14300, "pitch": 44, "duration": 55, "velocity": 100}, {"time": 14300, "pitch": 51, "duration": 55, "velocity": 100}, {"time": 14300, "pitch": 56, "duration": 110, "velocity": 100}, {"time": 14300, "pitch": 75, "duration": 55, "velocity": 100}, {"time": 14355, "pitch": 82, "duration": 165, "velocity": 100}, {"time": 14410, "pitch": 51, "duration": 55, "velocity": 100}, {"time": 14520, "pitch": 36, "duration": 275, "velocity": 100}, {"time": 14520, "pitch": 48, "duration": 220, "velocity": 100}, {"time": 14520, "pitch": 51, "duration": 220, "velocity": 100}, {"time": 14520, "pitch": 80, "duration": 440, "velocity": 100}, {"time": 14630, "pitch": 44, "duration": 220, "velocity": 100}, {"time": 14740, "pitch": 56, "duration": 110, "velocity": 100}, {"time": 14960, "pitch": 44, "duration": 385, "velocity": 100}, {"time": 14960, "pitch": 51, "duration": 220, "velocity": 100}, {"time": 14960, "pitch": 56, "duration": 220, "velocity": 100}, {"time": 15070, "pitch": 48, "duration": 220, "velocity": 100}, {"time": 15180, "pitch": 60, "duration": 110, "velocity": 100}, {"time": 15290, "pitch": 56, "duration": 110, "velocity": 100}, {"time": 15400, "pitch": 44, "duration": 330, "velocity": 100}, {"time": 15400, "pitch": 60, "duration": 220, "velocity": 100}, {"time": 15510, "pitch": 51, "duration": 165, "velocity": 100}, {"time": 15620, "pitch": 51, "duration": 55, "velocity": 100}, {"time": 15620, "pitch": 56, "duration": 110, "velocity": 100}, {"time": 15840, "pitch": 41, "duration": 330, "velocity": 100}, {"time": 15840, "pitch": 53, "duration": 165, "velocity": 100}, {"time": 15840, "pitch": 56, "duration": 165, "velocity": 100}, {"time": 15950, "pitch": 48, "duration": 165, "velocity": 100}, {"time": 16060, "pitch": 60, "duration": 110, "velocity": 100}, {"time": 16170, "pitch": 56, "duration": 55, "velocity": 100}, {"time": 16280, "pitch": 41, "duration": 275, "velocity": 100}, {"time": 16280, "pitch": 60, "duration": 165, "velocity": 100}, {"time": 16390, "pitch": 48, "duration": 165, "velocity": 100}, {"time": 16500, "pitch": 53, "duration": 55, "velocity": 100}, {"time": 16500, "pitch": 60, "duration": 55, "velocity": 100}, {"time": 16720, "pitch": 37, "duration": 330, "velocity": 100}, {"time": 16720, "pitch": 53, "duration": 110, "velocity": 100}, {"time": 16720, "pitch": 56, "duration": 110, "velocity": 100}, {"time": 16830, "pitch": 44, "duration": 220, "velocity": 100}, {"time": 16940, "pitch": 49, "duration": 110, "velocity": 100}, {"time": 16995, "pitch": 53, "duration": 55, "velocity": 100}, {"time": 17050, "pitch": 56, "duration": 55, "velocity": 100}, {"time": 17160, "pitch": 37, "duration": 330, "velocity": 100}, {"time": 17160, "pitch": 53, "duration": 110, "velocity": 100}, {"time": 17160, "pitch": 56, "duration": 110, "velocity": 100}, {"time": 17160, "pitch": 61, "duration": 110, "velocity": 100}, {"time": 17270, "pitch": 44, "duration": 165, "velocity": 100}, {"time": 17380, "pitch": 53, "duration": 110, "velocity": 100}, {"time": 17380, "pitch": 58, "duration": 110, "velocity": 100}, {"time": 17490, "pitch": 49, "duration": 55, "velocity": 100}, {"time": 17600, "pitch": 39, "duration": 220, "velocity": 100}, {"time": 17600, "pitch": 51, "duration": 110, "velocity": 100}, {"time": 17600, "pitch": 58, "duration": 165, "velocity": 100}, {"time": 17710, "pitch": 46, "duration": 110, "velocity": 100}, {"time": 17820, "pitch": 46, "duration": 55, "velocity": 100}, {"time": 17820, "pitch": 51, "duration": 55, "velocity": 100}, {"time": 17820, "pitch": 58, "duration": 110, "velocity": 100}, {"time": 17930, "pitch": 53, "duration": 55, "velocity": 100}, {"time": 18040, "pitch": 39, "duration": 330, "velocity": 100}, {"time": 18040, "pitch": 51, "duration": 110, "velocity": 100}, {"time": 18040, "pitch": 55, "duration": 440, "velocity": 100}, {"time": 18150, "pitch": 46, "duration": 220, "velocity": 100}, {"time": 18150, "pitch": 79, "duration": 55, "velocity": 100}, {"time": 18205, "pitch": 82, "duration": 55, "velocity": 100}, {"time": 18260, "pitch": 58, "duration": 110, "velocity": 100}, {"time": 18260, "pitch": 79, "duration": 55, "velocity": 100}, {"time": 18315, "pitch": 82, "duration": 55, "velocity": 100}, {"time": 18480, "pitch": 48, "duration": 330, "velocity": 100}, {"time": 18480, "pitch": 55, "duration": 165, "velocity": 100}, {"time": 18480, "pitch": 60, "duration": 220, "velocity": 100}, {"time": 18480, "pitch": 84, "duration": 440, "velocity": 100}, {"time": 18590, "pitch": 48, "duration": 275, "velocity": 100}, {"time": 18700, "pitch": 64, "duration": 110, "velocity": 100}, {"time": 18700, "pitch": 67, "duration": 110, "velocity": 100}, {"time": 18810, "pitch": 60, "duration": 110, "velocity": 100}, {"time": 18810, "pitch": 64, "duration": 110, "velocity": 100}, {"time": 18920, "pitch": 48, "duration": 275, "velocity": 100}, {"time": 18920, "pitch": 64, "duration": 440, "velocity": 100}, {"time": 19030, "pitch": 52, "duration": 165, "velocity": 100}, {"time": 19140, "pitch": 55, "duration": 165, "velocity": 100}, {"time": 19140, "pitch": 60, "duration": 110, "velocity": 100}, {"time": 19360, "pitch": 46, "duration": 275, "velocity": 100}, {"time": 19360, "pitch": 53, "duration": 165, "velocity": 100}, {"time": 19360, "pitch": 58, "duration": 220, "velocity": 100}, {"time": 19360, "pitch": 61, "duration": 220, "velocity": 100}, {"time": 19470, "pitch": 53, "duration": 165, "velocity": 100}, {"time": 19580, "pitch": 58, "duration": 110, "velocity": 100}, {"time": 19580, "pitch": 61, "duration": 110, "velocity": 100}, {"time": 19690, "pitch": 53, "duration": 110, "velocity": 100}, {"time": 19690, "pitch": 58, "duration": 110, "velocity": 100}, {"time": 19800, "pitch": 46, "duration": 275, "velocity": 100}, {"time": 19800, "pitch": 61, "duration": 275, "velocity": 100}, {"time": 19910, "pitch": 53, "duration": 165, "velocity": 100}, {"time": 20020, "pitch": 58, "duration": 55, "velocity": 100}, {"time": 20020, "pitch": 61, "duration": 220, "velocity": 100}, {"time": 20240, "pitch": 39, "duration": 385, "velocity": 100}, {"time": 20240, "pitch": 55, "duration": 220, "velocity": 100}, {"time": 20240, "pitch": 58, "duration": 220, "velocity": 100}, {"time": 20350, "pitch": 46, "duration": 275, "velocity": 100}, {"time": 20350, "pitch": 56, "duration": 55, "velocity": 100}, {"time": 20460, "pitch": 51, "duration": 110, "velocity": 100}, {"time": 20460, "pitch": 58, "duration": 110, "velocity": 100}, {"time": 20515, "pitch": 56, "duration": 55, "velocity": 100}, {"time": 20570, "pitch": 58, "duration": 55, "velocity": 100}, {"time": 20570, "pitch": 67, "duration": 55, "velocity": 100}, {"time": 20625, "pitch": 65, "duration": 55, "velocity": 100}, {"time": 20680, "pitch": 39, "duration": 275, "velocity": 100}, {"time": 20680, "pitch": 51, "duration": 165, "velocity": 100}, {"time": 20680, "pitch": 55, "duration": 220, "velocity": 100}, {"time": 20680, "pitch": 58, "duration": 220, "velocity": 100}, {"time": 20680, "pitch": 63, "duration": 440, "velocity": 100}, {"time": 20790, "pitch": 46, "duration": 165, "velocity": 100}, {"time": 20900, "pitch": 55, "duration": 110, "velocity": 100}, {"time": 20900, "pitch": 58, "duration": 110, "velocity": 100}, {"time": 21010, "pitch": 51, "duration": 55, "velocity": 100}, {"time": 21120, "pitch": 44, "duration": 385, "velocity": 100}, {"time": 21230, "pitch": 51, "duration": 330, "velocity": 100}, {"time": 21340, "pitch": 56, "duration": 55, "velocity": 100}, {"time": 21340, "pitch": 60, "duration": 220, "velocity": 100}, {"time": 21340, "pitch": 68, "duration": 440, "velocity": 100}, {"time": 21560, "pitch": 44, "duration": 220, "velocity": 100}, {"time": 21560, "pitch": 51, "duration": 55, "velocity": 100}, {"time": 21560, "pitch": 56, "duration": 110, "velocity": 100}, {"time": 21670, "pitch": 44, "duration": 165, "velocity": 100}, {"time": 21780, "pitch": 48, "duration": 55, "velocity": 100}, {"time": 21780, "pitch": 51, "duration": 55, "velocity": 100}, {"time": 21780, "pitch": 58, "duration": 55, "velocity": 100}, {"time": 21835, "pitch": 51, "duration": 55, "velocity": 100}, {"time": 21890, "pitch": 51, "duration": 55, "velocity": 100}, {"time": 21890, "pitch": 56, "duration": 55, "velocity": 100}, {"time": 21945, "pitch": 51, "duration": 55, "velocity": 100}, {"time": 21945, "pitch": 56, "duration": 55, "velocity": 100}, {"time": 22000, "pitch": 44, "duration": 330, "velocity": 100}, {"time": 22000, "pitch": 48, "duration": 55, "velocity": 100}, {"time": 22000, "pitch": 56, "duration": 220, "velocity": 100}, {"time": 22110, "pitch": 51, "duration": 55, "velocity": 100}, {"time": 22220, "pitch": 51, "duration": 55, "velocity": 100}, {"time": 22220, "pitch": 56, "duration": 220, "velocity": 100}, {"time": 22330, "pitch": 56, "duration": 165, "velocity": 100}, {"time": 22440, "pitch": 32, "duration": 385, "velocity": 100}, {"time": 22440, "pitch": 51, "duration": 165, "velocity": 100}, {"time": 22440, "pitch": 56, "duration": 220, "velocity": 100}, {"time": 22550, "pitch": 44, "duration": 165, "velocity": 100}, {"time": 22660, "pitch": 51, "duration": 110, "velocity": 100}, {"time": 22660, "pitch": 56, "duration": 110, "velocity": 100}, {"time": 22715, "pitch": 58, "duration": 55, "velocity": 100}, {"time": 22770, "pitch": 48, "duration": 110, "velocity": 100}, {"time": 22825, "pitch": 51, "duration": 55, "velocity": 100}, {"time": 22880, "pitch": 46, "duration": 275, "velocity": 100}, {"time": 22880, "pitch": 49, "duration": 165, "velocity": 100}, {"time": 22880, "pitch": 53, "duration": 220, "velocity": 100}, {"time": 22990, "pitch": 49, "duration": 55, "velocity": 100}, {"time": 23100, "pitch": 53, "duration": 55, "velocity": 100}, {"time": 23100, "pitch": 56, "duration": 220, "velocity": 100}, {"time": 23210, "pitch": 51, "duration": 110, "velocity": 100}, {"time": 23210, "pitch": 56, "duration": 110, "velocity": 100}, {"time": 23320, "pitch": 34, "duration": 330, "velocity": 100}, {"time": 23320, "pitch": 49, "duration": 165, "velocity": 100}, {"time": 23320, "pitch": 53, "duration": 220, "velocity": 100}, {"time": 23430, "pitch": 46, "duration": 110, "velocity": 100}, {"time": 23540, "pitch": 49, "duration": 55, "velocity": 100}, {"time": 23540, "pitch": 53, "duration": 55, "velocity": 100}, {"time": 23540, "pitch": 56, "duration": 55, "velocity": 100}, {"time": 23595, "pitch": 51, "duration": 55, "velocity": 100}, {"time": 23595, "pitch": 56, "duration": 55, "velocity": 100}, {"time": 23650, "pitch": 51, "duration": 55, "velocity": 100}, {"time": 23650, "pitch": 56, "duration": 55, "velocity": 100}, {"time": 23705, "pitch": 53, "duration": 55, "velocity": 100}, {"time": 23705, "pitch": 56, "duration": 55, "velocity": 100}, {"time": 23760, "pitch": 34, "duration": 440, "velocity": 100}, {"time": 23760, "pitch": 49, "duration": 220, "velocity": 100}, {"time": 23760, "pitch": 53, "duration": 220, "velocity": 100}, {"time": 23980, "pitch": 49, "duration": 55, "velocity": 100}, {"time": 23980, "pitch": 53, "duration": 110, "velocity": 100}, {"time": 23980, "pitch": 56, "duration": 110, "velocity": 100}, {"time": 24090, "pitch": 51, "duration": 110, "velocity": 100}, {"time": 24090, "pitch": 56, "duration": 110, "velocity": 100}, {"time": 24200, "pitch": 34, "duration": 330, "velocity": 100}, {"time": 24200, "pitch": 49, "duration": 220, "velocity": 100}, {"time": 24200, "pitch": 53, "duration": 220, "velocity": 100}, {"time": 24310, "pitch": 41, "duration": 275, "velocity": 100}, {"time": 24420, "pitch": 49, "duration": 55, "velocity": 100}, {"time": 24420, "pitch": 53, "duration": 110, "velocity": 100}, {"time": 24420, "pitch": 56, "duration": 110, "velocity": 100}, {"time": 24420, "pitch": 65, "duration": 55, "velocity": 100}, {"time": 24475, "pitch": 68, "duration": 55, "velocity": 100}, {"time": 24530, "pitch": 49, "duration": 55, "velocity": 100}, {"time": 24585, "pitch": 68, "duration": 55, "velocity": 100}, {"time": 24640, "pitch": 46, "duration": 385, "velocity": 100}, {"time": 24640, "pitch": 53, "duration": 55, "velocity": 100}, {"time": 24640, "pitch": 58, "duration": 110, "velocity": 100}, {"time": 24640, "pitch": 73, "duration": 55, "velocity": 100}, {"time": 24750, "pitch": 53, "duration": 55, "velocity": 100}, {"time": 24805, "pitch": 72, "duration": 110, "velocity": 100}, {"time": 24860, "pitch": 53, "duration": 55, "velocity": 100}, {"time": 24860, "pitch": 58, "duration": 110, "velocity": 100}, {"time": 24915, "pitch": 72, "duration": 55, "velocity": 100}, {"time": 24970, "pitch": 60, "duration": 110, "velocity": 100}, {"time": 25080, "pitch": 46, "duration": 275, "velocity": 100}, {"time": 25080, "pitch": 53, "duration": 110, "velocity": 100}, {"time": 25080, "pitch": 58, "duration": 110, "velocity": 100}, {"time": 25190, "pitch": 49, "duration": 110, "velocity": 100}, {"time": 25300, "pitch": 53, "duration": 55, "velocity": 100}, {"time": 25300, "pitch": 58, "duration": 55, "velocity": 100}, {"time": 25300, "pitch": 61, "duration": 110, "velocity": 100}, {"time": 25300, "pitch": 65, "duration": 110, "velocity": 100}, {"time": 25355, "pitch": 46, "duration": 55, "velocity": 100}, {"time": 25410, "pitch": 53, "duration": 55, "velocity": 100}, {"time": 25410, "pitch": 60, "duration": 110, "velocity": 100}, {"time": 25520, "pitch": 46, "duration": 275, "velocity": 100}, {"time": 25520, "pitch": 53, "duration": 55, "velocity": 100}, {"time": 25520, "pitch": 58, "duration": 110, "velocity": 100}, {"time": 25520, "pitch": 61, "duration": 165, "velocity": 100}, {"time": 25630, "pitch": 53, "duration": 55, "velocity": 100}, {"time": 25740, "pitch": 53, "duration": 55, "velocity": 100}, {"time": 25740, "pitch": 58, "duration": 55, "velocity": 100}, {"time": 25795, "pitch": 60, "duration": 55, "velocity": 100}, {"time": 25850, "pitch": 56, "duration": 55, "velocity": 100}, {"time": 25850, "pitch": 60, "duration": 55, "velocity": 100}, {"time": 25905, "pitch": 58, "duration": 55, "velocity": 100}, {"time": 25960, "pitch": 46, "duration": 275, "velocity": 100}, {"time": 25960, "pitch": 53, "duration": 165, "velocity": 100}, {"time": 25960, "pitch": 58, "duration": 220, "velocity": 100}, {"time": 26070, "pitch": 49, "duration": 165, "velocity": 100}, {"time": 26180, "pitch": 58, "duration": 110, "velocity": 100}, {"time": 26180, "pitch": 61, "duration": 220, "velocity": 100}, {"time": 26180, "pitch": 65, "duration": 220, "velocity": 100}, {"time": 26290, "pitch": 46, "duration": 55, "velocity": 100}, {"time": 26345, "pitch": 53, "duration": 55, "velocity": 100}, {"time": 26400, "pitch": 46, "duration": 330, "velocity": 100}, {"time": 26400, "pitch": 53, "duration": 55, "velocity": 100}, {"time": 26400, "pitch": 58, "duration": 220, "velocity": 100}, {"time": 26400, "pitch": 62, "duration": 330, "velocity": 100}, {"time": 26510, "pitch": 53, "duration": 55, "velocity": 100}, {"time": 26620, "pitch": 58, "duration": 55, "velocity": 100}, {"time": 26620, "pitch": 60, "duration": 55, "velocity": 100}, {"time": 26730, "pitch": 53, "duration": 55, "velocity": 100}, {"time": 26730, "pitch": 58, "duration": 110, "velocity": 100}, {"time": 26730, "pitch": 60, "duration": 110, "velocity": 100}, {"time": 26840, "pitch": 34, "duration": 330, "velocity": 100}, {"time": 26840, "pitch": 53, "duration": 110, "velocity": 100}, {"time": 26840, "pitch": 58, "duration": 110, "velocity": 100}, {"time": 26840, "pitch": 65, "duration": 220, "velocity": 100}, {"time": 26950, "pitch": 46, "duration": 110, "velocity": 100}, {"time": 27060, "pitch": 53, "duration": 55, "velocity": 100}, {"time": 27060, "pitch": 58, "duration": 55, "velocity": 100}, {"time": 27115, "pitch": 46, "duration": 55, "velocity": 100}, {"time": 27115, "pitch": 60, "duration": 55, "velocity": 100}, {"time": 27170, "pitch": 58, "duration": 55, "velocity": 100}, {"time": 27170, "pitch": 60, "duration": 55, "velocity": 100}, {"time": 27225, "pitch": 58, "duration": 55, "velocity": 100}, {"time": 27280, "pitch": 39, "duration": 440, "velocity": 100}, {"time": 27280, "pitch": 51, "duration": 55, "velocity": 100}, {"time": 27280, "pitch": 58, "duration": 55, "velocity": 100}, {"time": 27280, "pitch": 63, "duration": 220, "velocity": 100}, {"time": 27500, "pitch": 55, "duration": 55, "velocity": 100}, {"time": 27500, "pitch": 58, "duration": 110, "velocity": 100}, {"time": 27500, "pitch": 63, "duration": 110, "velocity": 100}, {"time": 27610, "pitch": 55, "duration": 110, "velocity": 100}, {"time": 27720, "pitch": 39, "duration": 385, "velocity": 100}, {"time": 27720, "pitch": 51, "duration": 165, "velocity": 100}, {"time": 27720, "pitch": 58, "duration": 165, "velocity": 100}, {"time": 27720, "pitch": 70, "duration": 110, "velocity": 100}, {"time": 27775, "pitch": 72, "duration": 55, "velocity": 100}, {"time": 27830, "pitch": 46, "duration": 275, "velocity": 100}, {"time": 27885, "pitch": 70, "duration": 55, "velocity": 100}, {"time": 27940, "pitch": 51, "duration": 55, "velocity": 100}, {"time": 27940, "pitch": 58, "duration": 110, "velocity": 100}, {"time": 27940, "pitch": 63, "duration": 55, "velocity": 100}, {"time": 27995, "pitch": 70, "duration": 165, "velocity": 100}, {"time": 28050, "pitch": 51, "duration": 55, "velocity": 100}, {"time": 28160, "pitch": 44, "duration": 220, "velocity": 100}, {"time": 28160, "pitch": 60, "duration": 110, "velocity": 100}, {"time": 28160, "pitch": 68, "duration": 110, "velocity": 100}, {"time": 28270, "pitch": 51, "duration": 110, "velocity": 100}, {"time": 28270, "pitch": 87, "duration": 55, "velocity": 100}, {"time": 28325, "pitch": 85, "duration": 55, "velocity": 100}, {"time": 28380, "pitch": 51, "duration": 55, "velocity": 100}, {"time": 28380, "pitch": 56, "duration": 55, "velocity": 100}, {"time": 28380, "pitch": 63, "duration": 110, "velocity": 100}, {"time": 28380, "pitch": 84, "duration": 55, "velocity": 100}, {"time": 28435, "pitch": 87, "duration": 55, "velocity": 100}, {"time": 28490, "pitch": 58, "duration": 55, "velocity": 100}, {"time": 28600, "pitch": 44, "duration": 330, "velocity": 100}, {"time": 28600, "pitch": 56, "duration": 220, "velocity": 100}, {"time": 28600, "pitch": 60, "duration": 220, "velocity": 100}, {"time": 28600, "pitch": 87, "duration": 440, "velocity": 100}, {"time": 28710, "pitch": 51, "duration": 220, "velocity": 100}, {"time": 28820, "pitch": 63, "duration": 110, "velocity": 100}, {"time": 29040, "pitch": 46, "duration": 330, "velocity": 100}, {"time": 29040, "pitch": 58, "duration": 220, "velocity": 100}, {"time": 29040, "pitch": 61, "duration": 220, "velocity": 100}, {"time": 29150, "pitch": 56, "duration": 220, "velocity": 100}, {"time": 29260, "pitch": 68, "duration": 110, "velocity": 100}, {"time": 29370, "pitch": 63, "duration": 110, "velocity": 100}, {"time": 29480, "pitch": 49, "duration": 275, "velocity": 100}, {"time": 29480, "pitch": 68, "duration": 220, "velocity": 100}, {"time": 29590, "pitch": 56, "duration": 165, "velocity": 100}, {"time": 29700, "pitch": 61, "duration": 110, "velocity": 100}, {"time": 29700, "pitch": 65, "duration": 110, "velocity": 100}, {"time": 29920, "pitch": 48, "duration": 330, "velocity": 100}, {"time": 29920, "pitch": 60, "duration": 220, "velocity": 100}, {"time": 29920, "pitch": 63, "duration": 220, "velocity": 100}, {"time": 30030, "pitch": 56, "duration": 165, "velocity": 100}, {"time": 30140, "pitch": 68, "duration": 110, "velocity": 100}, {"time": 30250, "pitch": 63, "duration": 55, "velocity": 100}, {"time": 30360, "pitch": 44, "duration": 275, "velocity": 100}, {"time": 30360, "pitch": 63, "duration": 165, "velocity": 100}, {"time": 30470, "pitch": 56, "duration": 165, "velocity": 100}, {"time": 30580, "pitch": 60, "duration": 55, "velocity": 100}, {"time": 30580, "pitch": 63, "duration": 55, "velocity": 100}, {"time": 30800, "pitch": 44, "duration": 330, "velocity": 100}, {"time": 30800, "pitch": 60, "duration": 220, "velocity": 100}, {"time": 30800, "pitch": 63, "duration": 110, "velocity": 100}, {"time": 30910, "pitch": 51, "duration": 220, "velocity": 100}, {"time": 31020, "pitch": 56, "duration": 110, "velocity": 100}, {"time": 31075, "pitch": 60, "duration": 55, "velocity": 100}, {"time": 31130, "pitch": 63, "duration": 55, "velocity": 100}, {"time": 31240, "pitch": 44, "duration": 330, "velocity": 100}, {"time": 31240, "pitch": 56, "duration": 165, "velocity": 100}, {"time": 31240, "pitch": 63, "duration": 110, "velocity": 100}, {"time": 31350, "pitch": 51, "duration": 165, "velocity": 100}, {"time": 31460, "pitch": 60, "duration": 110, "velocity": 100}, {"time": 31460, "pitch": 65, "duration": 110, "velocity": 100}, {"time": 31570, "pitch": 58, "duration": 55, "velocity": 100}, {"time": 31680, "pitch": 46, "duration": 165, "velocity": 100}, {"time": 31680, "pitch": 58, "duration": 110, "velocity": 100}, {"time": 31680, "pitch": 61, "duration": 220, "velocity": 100}, {"time": 31790, "pitch": 53, "duration": 110, "velocity": 100}, {"time": 31900, "pitch": 49, "duration": 55, "velocity": 100}, {"time": 31900, "pitch": 53, "duration": 55, "velocity": 100}, {"time": 31900, "pitch": 61, "duration": 110, "velocity": 100}, {"time": 32010, "pitch": 56, "duration": 55, "velocity": 100}, {"time": 32120, "pitch": 46, "duration": 440, "velocity": 100}, {"time": 32120, "pitch": 53, "duration": 110, "velocity": 100}, {"time": 32120, "pitch": 58, "duration": 220, "velocity": 100}, {"time": 32230, "pitch": 49, "duration": 220, "velocity": 100}, {"time": 32230, "pitch": 82, "duration": 55, "velocity": 100}, {"time": 32285, "pitch": 84, "duration": 55, "velocity": 100}, {"time": 32340, "pitch": 61, "duration": 110, "velocity": 100}, {"time": 32340, "pitch": 77, "duration": 55, "velocity": 100}, {"time": 32395, "pitch": 82, "duration": 55, "velocity": 100}, {"time": 32505, "pitch": 87, "duration": 55, "velocity": 100}, {"time": 32560, "pitch": 46, "duration": 275, "velocity": 100}, {"time": 32560, "pitch": 58, "duration": 165, "velocity": 100}, {"time": 32560, "pitch": 61, "duration": 165, "velocity": 100}, {"time": 32560, "pitch": 85, "duration": 220, "velocity": 100}, {"time": 32670, "pitch": 53, "duration": 220, "velocity": 100}, {"time": 32780, "pitch": 65, "duration": 110, "velocity": 100}, {"time": 32780, "pitch": 70, "duration": 110, "velocity": 100}, {"time": 32890, "pitch": 61, "duration": 110, "velocity": 100}, {"time": 32890, "pitch": 65, "duration": 110, "velocity": 100}, {"time": 33000, "pitch": 46, "duration": 275, "velocity": 100}, {"time": 33000, "pitch": 65, "duration": 440, "velocity": 100}, {"time": 33110, "pitch": 53, "duration": 165, "velocity": 100}, {"time": 33220, "pitch": 58, "duration": 55, "velocity": 100}, {"time": 33220, "pitch": 61, "duration": 165, "velocity": 100}, {"time": 33440, "pitch": 46, "duration": 275, "velocity": 100}, {"time": 33440, "pitch": 58, "duration": 220, "velocity": 100}, {"time": 33440, "pitch": 61, "duration": 220, "velocity": 100}, {"time": 33440, "pitch": 65, "duration": 220, "velocity": 100}, {"time": 33550, "pitch": 53, "duration": 165, "velocity": 100}, {"time": 33660, "pitch": 61, "duration": 110, "velocity": 100}, {"time": 33660, "pitch": 65, "duration": 110, "velocity": 100}, {"time": 33770, "pitch": 58, "duration": 110, "velocity": 100}, {"time": 33770, "pitch": 61, "duration": 110, "velocity": 100}, {"time": 33880, "pitch": 46, "duration": 275, "velocity": 100}, {"time": 33880, "pitch": 61, "duration": 330, "velocity": 100}, {"time": 33990, "pitch": 53, "duration": 165, "velocity": 100}, {"time": 34100, "pitch": 58, "duration": 55, "velocity": 100}, {"time": 34100, "pitch": 61, "duration": 220, "velocity": 100}, {"time": 34320, "pitch": 46, "duration": 330, "velocity": 100}, {"time": 34320, "pitch": 58, "duration": 165, "velocity": 100}, {"time": 34320, "pitch": 61, "duration": 220, "velocity": 100}, {"time": 34430, "pitch": 49, "duration": 275, "velocity": 100}, {"time": 34430, "pitch": 58, "duration": 110, "velocity": 100}, {"time": 34540, "pitch": 53, "duration": 110, "velocity": 100}, {"time": 34540, "pitch": 61, "duration": 55, "velocity": 100}, {"time": 34595, "pitch": 65, "duration": 55, "velocity": 100}, {"time": 34650, "pitch": 61, "duration": 55, "velocity": 100}, {"time": 34650, "pitch": 68, "duration": 55, "velocity": 100}, {"time": 34705, "pitch": 68, "duration": 55, "velocity": 100}, {"time": 34760, "pitch": 46, "duration": 275, "velocity": 100}, {"time": 34760, "pitch": 58, "duration": 165, "velocity": 100}, {"time": 34760, "pitch": 61, "duration": 220, "velocity": 100}, {"time": 34760, "pitch": 65, "duration": 220, "velocity": 100}, {"time": 34870, "pitch": 53, "duration": 165, "velocity": 100}, {"time": 34980, "pitch": 58, "duration": 55, "velocity": 100}, {"time": 34980, "pitch": 61, "duration": 110, "velocity": 100}, {"time": 34980, "pitch": 65, "duration": 55, "velocity": 100}, {"time": 35090, "pitch": 56, "duration": 55, "velocity": 100}, {"time": 35200, "pitch": 41, "duration": 385, "velocity": 100}, {"time": 35310, "pitch": 49, "duration": 275, "velocity": 100}, {"time": 35420, "pitch": 56, "duration": 55, "velocity": 100}, {"time": 35420, "pitch": 61, "duration": 220, "velocity": 100}, {"time": 35420, "pitch": 68, "duration": 440, "velocity": 100}, {"time": 35640, "pitch": 37, "duration": 275, "velocity": 100}, {"time": 35640, "pitch": 49, "duration": 55, "velocity": 100}, {"time": 35640, "pitch": 56, "duration": 110, "velocity": 100}, {"time": 35750, "pitch": 44, "duration": 110, "velocity": 100}, {"time": 35860, "pitch": 49, "duration": 55, "velocity": 100}, {"time": 35860, "pitch": 53, "duration": 55, "velocity": 100}, {"time": 35860, "pitch": 56, "duration": 55, "velocity": 100}, {"time": 35915, "pitch": 51, "duration": 55, "velocity": 100}, {"time": 35970, "pitch": 51, "duration": 55, "velocity": 100}, {"time": 35970, "pitch": 56, "duration": 55, "velocity": 100}, {"time": 36025, "pitch": 53, "duration": 55, "velocity": 100}, {"time": 36025, "pitch": 56, "duration": 55, "velocity": 100}, {"time": 36080, "pitch": 37, "duration": 330, "velocity": 100}, {"time": 36080, "pitch": 49, "duration": 55, "velocity": 100}, {"time": 36080, "pitch": 53, "duration": 220, "velocity": 100}, {"time": 36190, "pitch": 49, "duration": 55, "velocity": 100}, {"time": 36300, "pitch": 49, "duration": 55, "velocity": 100}, {"time": 36300, "pitch": 56, "duration": 220, "velocity": 100}, {"time": 36410, "pitch": 56, "duration": 165, "velocity": 100}, {"time": 36520, "pitch": 37, "duration": 330, "velocity": 100}, {"time": 36520, "pitch": 49, "duration": 220, "velocity": 100}, {"time": 36520, "pitch": 53, "duration": 220, "velocity": 100}, {"time": 36630, "pitch": 44, "duration": 165, "velocity": 100}, {"time": 36740, "pitch": 53, "duration": 110, "velocity": 100}, {"time": 36740, "pitch": 56, "duration": 110, "velocity": 100}, {"time": 36795, "pitch": 58, "duration": 55, "velocity": 100}, {"time": 36850, "pitch": 49, "duration": 110, "velocity": 100}, {"time": 36905, "pitch": 53, "duration": 55, "velocity": 100}, {"time": 36905, "pitch": 54, "duration": 55, "velocity": 100}, {"time": 36960, "pitch": 49, "duration": 165, "velocity": 100}, {"time": 36960, "pitch": 53, "duration": 220, "velocity": 100}, {"time": 37070, "pitch": 49, "duration": 55, "velocity": 100}, {"time": 37180, "pitch": 53, "duration": 55, "velocity": 100}, {"time": 37180, "pitch": 56, "duration": 220, "velocity": 100}, {"time": 37290, "pitch": 51, "duration": 110, "velocity": 100}, {"time": 37290, "pitch": 56, "duration": 110, "velocity": 100}, {"time": 37400, "pitch": 37, "duration": 330, "velocity": 100}, {"time": 37400, "pitch": 49, "duration": 165, "velocity": 100}, {"time": 37400, "pitch": 53, "duration": 220, "velocity": 100}, {"time": 37510, "pitch": 44, "duration": 110, "velocity": 100}, {"time": 37620, "pitch": 49, "duration": 55, "velocity": 100}, {"time": 37620, "pitch": 53, "duration": 55, "velocity": 100}, {"time": 37620, "pitch": 56, "duration": 55, "velocity": 100}, {"time": 37675, "pitch": 44, "duration": 55, "velocity": 100}, {"time": 37675, "pitch": 58, "duration": 55, "velocity": 100}, {"time": 37730, "pitch": 51, "duration": 55, "velocity": 100}, {"time": 37730, "pitch": 56, "duration": 55, "velocity": 100}, {"time": 37785, "pitch": 53, "duration": 55, "velocity": 100}, {"time": 37785, "pitch": 56, "duration": 55, "velocity": 100}, {"time": 37840, "pitch": 37, "duration": 385, "velocity": 100}, {"time": 37840, "pitch": 49, "duration": 220, "velocity": 100}, {"time": 37840, "pitch": 53, "duration": 220, "velocity": 100}, {"time": 38060, "pitch": 49, "duration": 55, "velocity": 100}, {"time": 38060, "pitch": 53, "duration": 110, "velocity": 100}, {"time": 38060, "pitch": 56, "duration": 110, "velocity": 100}, {"time": 38170, "pitch": 49, "duration": 110, "velocity": 100}, {"time": 38170, "pitch": 56, "duration": 110, "velocity": 100}, {"time": 38280, "pitch": 37, "duration": 385, "velocity": 100}, {"time": 38280, "pitch": 49, "duration": 220, "velocity": 100}, {"time": 38280, "pitch": 53, "duration": 220, "velocity": 100}, {"time": 38390, "pitch": 44, "duration": 275, "velocity": 100}, {"time": 38500, "pitch": 49, "duration": 55, "velocity": 100}, {"time": 38500, "pitch": 53, "duration": 110, "velocity": 100}, {"time": 38500, "pitch": 56, "duration": 110, "velocity": 100}, {"time": 38500, "pitch": 65, "duration": 55, "velocity": 100}, {"time": 38555, "pitch": 66, "duration": 55, "velocity": 100}, {"time": 38610, "pitch": 49, "duration": 55, "velocity": 100}, {"time": 38665, "pitch": 68, "duration": 55, "velocity": 100}, {"time": 38720, "pitch": 37, "duration": 440, "velocity": 100}, {"time": 38720, "pitch": 49, "duration": 55, "velocity": 100}, {"time": 38720, "pitch": 53, "duration": 110, "velocity": 100}, {"time": 38720, "pitch": 68, "duration": 110, "velocity": 100}, {"time": 38830, "pitch": 49, "duration": 55, "velocity": 100}, {"time": 38885, "pitch": 68, "duration": 55, "velocity": 100}, {"time": 38940, "pitch": 49, "duration": 55, "velocity": 100}, {"time": 38940, "pitch": 53, "duration": 55, "velocity": 100}, {"time": 38995, "pitch": 63, "duration": 55, "velocity": 100}, {"time": 39050, "pitch": 56, "duration": 110, "velocity": 100}, {"time": 39160, "pitch": 37, "duration": 275, "velocity": 100}, {"time": 39160, "pitch": 49, "duration": 110, "velocity": 100}, {"time": 39160, "pitch": 56, "duration": 110, "velocity": 100}, {"time": 39270, "pitch": 44, "duration": 110, "velocity": 100}, {"time": 39380, "pitch": 49, "duration": 55, "velocity": 100}, {"time": 39380, "pitch": 53, "duration": 55, "velocity": 100}, {"time": 39380, "pitch": 56, "duration": 110, "velocity": 100}, {"time": 39380, "pitch": 61, "duration": 110, "velocity": 100}, {"time": 39435, "pitch": 44, "duration": 55, "velocity": 100}, {"time": 39490, "pitch": 49, "duration": 110, "velocity": 100}, {"time": 39490, "pitch": 56, "duration": 110, "velocity": 100}, {"time": 39600, "pitch": 37, "duration": 330, "velocity": 100}, {"time": 39600, "pitch": 49, "duration": 55, "velocity": 100}, {"time": 39600, "pitch": 53, "duration": 110, "velocity": 100}, {"time": 39600, "pitch": 61, "duration": 55, "velocity": 100}, {"time": 39710, "pitch": 49, "duration": 55, "velocity": 100}, {"time": 39820, "pitch": 49, "duration": 55, "velocity": 100}, {"time": 39820, "pitch": 53, "duration": 55, "velocity": 100}, {"time": 39875, "pitch": 44, "duration": 55, "velocity": 100}, {"time": 39930, "pitch": 53, "duration": 55, "velocity": 100}, {"time": 39930, "pitch": 56, "duration": 110, "velocity": 100}, {"time": 39985, "pitch": 56, "duration": 55, "velocity": 100}, {"time": 40040, "pitch": 37, "duration": 330, "velocity": 100}, {"time": 40040, "pitch": 49, "duration": 165, "velocity": 100}, {"time": 40040, "pitch": 53, "duration": 220, "velocity": 100}, {"time": 40150, "pitch": 44, "duration": 165, "velocity": 100}, {"time": 40260, "pitch": 53, "duration": 110, "velocity": 100}, {"time": 40260, "pitch": 56, "duration": 220, "velocity": 100}, {"time": 40260, "pitch": 61, "duration": 220, "velocity": 100}, {"time": 40370, "pitch": 44, "duration": 55, "velocity": 100}, {"time": 40425, "pitch": 53, "duration": 55, "velocity": 100}, {"time": 40480, "pitch": 49, "duration": 165, "velocity": 100}, {"time": 40480, "pitch": 53, "duration": 165, "velocity": 100}, {"time": 40480, "pitch": 56, "duration": 220, "velocity": 100}, {"time": 40480, "pitch": 59, "duration": 220, "velocity": 100}, {"time": 40590, "pitch": 49, "duration": 220, "velocity": 100}, {"time": 40700, "pitch": 53, "duration": 55, "velocity": 100}, {"time": 40700, "pitch": 56, "duration": 55, "velocity": 100}, {"time": 40810, "pitch": 49, "duration": 55, "velocity": 100}, {"time": 40810, "pitch": 53, "duration": 110, "velocity": 100}, {"time": 40810, "pitch": 56, "duration": 110, "velocity": 100}, {"time": 40810, "pitch": 59, "duration": 110, "velocity": 100}, {"time": 40920, "pitch": 37, "duration": 440, "velocity": 100}, {"time": 40920, "pitch": 49, "duration": 110, "velocity": 100}, {"time": 40920, "pitch": 56, "duration": 110, "velocity": 100}, {"time": 40920, "pitch": 59, "duration": 165, "velocity": 100}, {"time": 41030, "pitch": 44, "duration": 110, "velocity": 100}, {"time": 41140, "pitch": 49, "duration": 55, "velocity": 100}, {"time": 41140, "pitch": 53, "duration": 55, "velocity": 100}, {"time": 41140, "pitch": 56, "duration": 55, "velocity": 100}, {"time": 41195, "pitch": 44, "duration": 55, "velocity": 100}, {"time": 41195, "pitch": 49, "duration": 55, "velocity": 100}, {"time": 41250, "pitch": 53, "duration": 55, "velocity": 100}, {"time": 41250, "pitch": 56, "duration": 55, "velocity": 100}, {"time": 41305, "pitch": 53, "duration": 55, "velocity": 100}, {"time": 41305, "pitch": 61, "duration": 55, "velocity": 100}, {"time": 41360, "pitch": 37, "duration": 385, "velocity": 100}, {"time": 41360, "pitch": 49, "duration": 165, "velocity": 100}, {"time": 41360, "pitch": 56, "duration": 165, "velocity": 100}, {"time": 41360, "pitch": 59, "duration": 165, "velocity": 100}, {"time": 41580, "pitch": 49, "duration": 55, "velocity": 100}, {"time": 41580, "pitch": 56, "duration": 110, "velocity": 100}, {"time": 41580, "pitch": 59, "duration": 110, "velocity": 100}, {"time": 41690, "pitch": 49, "duration": 110, "velocity": 100}, {"time": 41800, "pitch": 37, "duration": 385, "velocity": 100}, {"time": 41800, "pitch": 49, "duration": 165, "velocity": 100}, {"time": 41800, "pitch": 56, "duration": 165, "velocity": 100}, {"time": 41800, "pitch": 65, "duration": 110, "velocity": 100}, {"time": 41910, "pitch": 44, "duration": 220, "velocity": 100}, {"time": 41965, "pitch": 68, "duration": 55, "velocity": 100}, {"time": 42020, "pitch": 49, "duration": 110, "velocity": 100}, {"time": 42020, "pitch": 53, "duration": 110, "velocity": 100}, {"time": 42020, "pitch": 59, "duration": 110, "velocity": 100}, {"time": 42075, "pitch": 66, "duration": 165, "velocity": 100}, {"time": 42130, "pitch": 44, "duration": 55, "velocity": 100}, {"time": 42240, "pitch": 58, "duration": 110, "velocity": 100}, {"time": 42240, "pitch": 61, "duration": 110, "velocity": 100}, {"time": 42240, "pitch": 75, "duration": 220, "velocity": 100}, {"time": 42460, "pitch": 55, "duration": 55, "velocity": 100}, {"time": 42460, "pitch": 61, "duration": 55, "velocity": 100}, {"time": 42460, "pitch": 82, "duration": 165, "velocity": 100}, {"time": 42460, "pitch": 87, "duration": 165, "velocity": 100}, {"time": 42515, "pitch": 60, "duration": 55, "velocity": 100}, {"time": 42570, "pitch": 55, "duration": 55, "velocity": 100}, {"time": 42625, "pitch": 58, "duration": 55, "velocity": 100}, {"time": 42680, "pitch": 43, "duration": 275, "velocity": 100}, {"time": 42680, "pitch": 55, "duration": 55, "velocity": 100}, {"time": 42680, "pitch": 58, "duration": 110, "velocity": 100}, {"time": 42680, "pitch": 82, "duration": 220, "velocity": 100}, {"time": 42680, "pitch": 87, "duration": 330, "velocity": 100}, {"time": 42790, "pitch": 49, "duration": 165, "velocity": 100}, {"time": 42900, "pitch": 61, "duration": 110, "velocity": 100}, {"time": 43010, "pitch": 67, "duration": 55, "velocity": 100}, {"time": 43120, "pitch": 43, "duration": 385, "velocity": 100}, {"time": 43120, "pitch": 58, "duration": 165, "velocity": 100}, {"time": 43120, "pitch": 61, "duration": 165, "velocity": 100}, {"time": 43230, "pitch": 55, "duration": 110, "velocity": 100}, {"time": 43340, "pitch": 58, "duration": 55, "velocity": 100}, {"time": 43340, "pitch": 61, "duration": 55, "velocity": 100}, {"time": 43340, "pitch": 67, "duration": 110, "velocity": 100}, {"time": 43560, "pitch": 56, "duration": 330, "velocity": 100}, {"time": 43560, "pitch": 60, "duration": 55, "velocity": 100}, {"time": 43560, "pitch": 68, "duration": 110, "velocity": 100}, {"time": 43670, "pitch": 60, "duration": 110, "velocity": 100}, {"time": 43780, "pitch": 68, "duration": 110, "velocity": 100}, {"time": 43890, "pitch": 60, "duration": 55, "velocity": 100}, {"time": 44000, "pitch": 47, "duration": 275, "velocity": 100}, {"time": 44000, "pitch": 59, "duration": 55, "velocity": 100}, {"time": 44000, "pitch": 62, "duration": 165, "velocity": 100}, {"time": 44110, "pitch": 55, "duration": 165, "velocity": 100}, {"time": 44220, "pitch": 62, "duration": 55, "velocity": 100}, {"time": 44220, "pitch": 67, "duration": 55, "velocity": 100}, {"time": 44440, "pitch": 43, "duration": 275, "velocity": 100}, {"time": 44440, "pitch": 62, "duration": 220, "velocity": 100}, {"time": 44440, "pitch": 67, "duration": 275, "velocity": 100}, {"time": 44550, "pitch": 55, "duration": 220, "velocity": 100}, {"time": 44660, "pitch": 62, "duration": 110, "velocity": 100}, {"time": 44880, "pitch": 43, "duration": 275, "velocity": 100}, {"time": 44880, "pitch": 59, "duration": 220, "velocity": 100}, {"time": 44880, "pitch": 62, "duration": 220, "velocity": 100}, {"time": 44990, "pitch": 50, "duration": 165, "velocity": 100}, {"time": 45100, "pitch": 67, "duration": 220, "velocity": 100}, {"time": 45210, "pitch": 59, "duration": 110, "velocity": 100}, {"time": 45320, "pitch": 51, "duration": 275, "velocity": 100}, {"time": 45320, "pitch": 60, "duration": 55, "velocity": 100}, {"time": 45320, "pitch": 63, "duration": 220, "velocity": 100}, {"time": 45430, "pitch": 60, "duration": 110, "velocity": 100}, {"time": 45540, "pitch": 68, "duration": 220, "velocity": 100}, {"time": 45760, "pitch": 44, "duration": 385, "velocity": 100}, {"time": 45870, "pitch": 51, "duration": 330, "velocity": 100}, {"time": 45980, "pitch": 56, "duration": 55, "velocity": 100}, {"time": 45980, "pitch": 60, "duration": 220, "velocity": 100}, {"time": 45980, "pitch": 68, "duration": 440, "velocity": 100}, {"time": 46200, "pitch": 44, "duration": 220, "velocity": 100}, {"time": 46200, "pitch": 51, "duration": 55, "velocity": 100}, {"time": 46200, "pitch": 56, "duration": 110, "velocity": 100}, {"time": 46310, "pitch": 44, "duration": 165, "velocity": 100}, {"time": 46420, "pitch": 48, "duration": 55, "velocity": 100}, {"time": 46420, "pitch": 53, "duration": 55, "velocity": 100}, {"time": 46420, "pitch": 58, "duration": 55, "velocity": 100}, {"time": 46475, "pitch": 51, "duration": 55, "velocity": 100}, {"time": 46530, "pitch": 51, "duration": 55, "velocity": 100}, {"time": 46530, "pitch": 56, "duration": 55, "velocity": 100}, {"time": 46585, "pitch": 51, "duration": 55, "velocity": 100}, {"time": 46585, "pitch": 56, "duration": 55, "velocity": 100}, {"time": 46640, "pitch": 44, "duration": 330, "velocity": 100}, {"time": 46640, "pitch": 48, "duration": 55, "velocity": 100}, {"time": 46640, "pitch": 51, "duration": 165, "velocity": 100}, {"time": 46750, "pitch": 51, "duration": 110, "velocity": 100}, {"time": 46860, "pitch": 51, "duration": 55, "velocity": 100}, {"time": 46860, "pitch": 56, "duration": 110, "velocity": 100}, {"time": 46970, "pitch": 56, "duration": 165, "velocity": 100}, {"time": 47080, "pitch": 37, "duration": 330, "velocity": 100}, {"time": 47080, "pitch": 51, "duration": 165, "velocity": 100}, {"time": 47080, "pitch": 53, "duration": 220, "velocity": 100}, {"time": 47190, "pitch": 44, "duration": 165, "velocity": 100}, {"time": 47300, "pitch": 53, "duration": 110, "velocity": 100}, {"time": 47300, "pitch": 56, "duration": 110, "velocity": 100}, {"time": 47355, "pitch": 58, "duration": 55, "velocity": 100}, {"time": 47410, "pitch": 49, "duration": 110, "velocity": 100}, {"time": 47465, "pitch": 53, "duration": 55, "velocity": 100}, {"time": 47465, "pitch": 56, "duration": 55, "velocity": 100}, {"time": 47520, "pitch": 46, "duration": 275, "velocity": 100}, {"time": 47520, "pitch": 49, "duration": 165, "velocity": 100}, {"time": 47520, "pitch": 53, "duration": 220, "velocity": 100}, {"time": 47630, "pitch": 49, "duration": 55, "velocity": 100}, {"time": 47740, "pitch": 53, "duration": 55, "velocity": 100}, {"time": 47740, "pitch": 56, "duration": 220, "velocity": 100}, {"time": 47850, "pitch": 51, "duration": 110, "velocity": 100}, {"time": 47850, "pitch": 56, "duration": 110, "velocity": 100}, {"time": 47960, "pitch": 34, "duration": 330, "velocity": 100}, {"time": 47960, "pitch": 49, "duration": 165, "velocity": 100}, {"time": 47960, "pitch": 53, "duration": 220, "velocity": 100}, {"time": 48070, "pitch": 46, "duration": 110, "velocity": 100}, {"time": 48180, "pitch": 49, "duration": 55, "velocity": 100}, {"time": 48180, "pitch": 53, "duration": 55, "velocity": 100}, {"time": 48180, "pitch": 56, "duration": 55, "velocity": 100}, {"time": 48235, "pitch": 46, "duration": 55, "velocity": 100}, {"time": 48235, "pitch": 56, "duration": 55, "velocity": 100}, {"time": 48290, "pitch": 51, "duration": 55, "velocity": 100}, {"time": 48290, "pitch": 56, "duration": 55, "velocity": 100}, {"time": 48345, "pitch": 53, "duration": 55, "velocity": 100}, {"time": 48345, "pitch": 56, "duration": 55, "velocity": 100}, {"time": 48400, "pitch": 34, "duration": 440, "velocity": 100}, {"time": 48400, "pitch": 49, "duration": 220, "velocity": 100}, {"time": 48400, "pitch": 53, "duration": 220, "velocity": 100}, {"time": 48620, "pitch": 49, "duration": 55, "velocity": 100}, {"time": 48620, "pitch": 53, "duration": 110, "velocity": 100}, {"time": 48620, "pitch": 56, "duration": 110, "velocity": 100}, {"time": 48730, "pitch": 51, "duration": 110, "velocity": 100}, {"time": 48730, "pitch": 56, "duration": 110, "velocity": 100}, {"time": 48840, "pitch": 34, "duration": 330, "velocity": 100}, {"time": 48840, "pitch": 49, "duration": 220, "velocity": 100}, {"time": 48840, "pitch": 53, "duration": 220, "velocity": 100}, {"time": 48950, "pitch": 41, "duration": 275, "velocity": 100}, {"time": 49060, "pitch": 51, "duration": 55, "velocity": 100}, {"time": 49060, "pitch": 53, "duration": 110, "velocity": 100}, {"time": 49060, "pitch": 58, "duration": 110, "velocity": 100}, {"time": 49060, "pitch": 65, "duration": 55, "velocity": 100}, {"time": 49115, "pitch": 68, "duration": 55, "velocity": 100}, {"time": 49170, "pitch": 46, "duration": 55, "velocity": 100}, {"time": 49225, "pitch": 68, "duration": 55, "velocity": 100}, {"time": 49280, "pitch": 46, "duration": 385, "velocity": 100}, {"time": 49280, "pitch": 55, "duration": 55, "velocity": 100}, {"time": 49280, "pitch": 63, "duration": 165, "velocity": 100}, {"time": 49280, "pitch": 75, "duration": 55, "velocity": 100}, {"time": 49390, "pitch": 58, "duration": 55, "velocity": 100}, {"time": 49445, "pitch": 75, "duration": 165, "velocity": 100}, {"time": 49500, "pitch": 55, "duration": 55, "velocity": 100}, {"time": 49500, "pitch": 61, "duration": 110, "velocity": 100}, {"time": 49555, "pitch": 73, "duration": 55, "velocity": 100}, {"time": 49610, "pitch": 63, "duration": 110, "velocity": 100}, {"time": 49720, "pitch": 46, "duration": 275, "velocity": 100}, {"time": 49720, "pitch": 55, "duration": 110, "velocity": 100}, {"time": 49720, "pitch": 63, "duration": 110, "velocity": 100}, {"time": 49830, "pitch": 51, "duration": 110, "velocity": 100}, {"time": 49940, "pitch": 58, "duration": 55, "velocity": 100}, {"time": 49940, "pitch": 61, "duration": 55, "velocity": 100}, {"time": 49940, "pitch": 67, "duration": 110, "velocity": 100}, {"time": 49995, "pitch": 46, "duration": 55, "velocity": 100}, {"time": 50050, "pitch": 58, "duration": 55, "velocity": 100}, {"time": 50050, "pitch": 61, "duration": 110, "velocity": 100}, {"time": 50160, "pitch": 49, "duration": 275, "velocity": 100}, {"time": 50160, "pitch": 55, "duration": 55, "velocity": 100}, {"time": 50160, "pitch": 61, "duration": 110, "velocity": 100}, {"time": 50160, "pitch": 67, "duration": 220, "velocity": 100}, {"time": 50270, "pitch": 58, "duration": 55, "velocity": 100}, {"time": 50380, "pitch": 55, "duration": 55, "velocity": 100}, {"time": 50380, "pitch": 63, "duration": 55, "velocity": 100}, {"time": 50435, "pitch": 65, "duration": 55, "velocity": 100}, {"time": 50490, "pitch": 61, "duration": 55, "velocity": 100}, {"time": 50490, "pitch": 63, "duration": 55, "velocity": 100}, {"time": 50545, "pitch": 58, "duration": 55, "velocity": 100}, {"time": 50600, "pitch": 39, "duration": 275, "velocity": 100}, {"time": 50600, "pitch": 55, "duration": 165, "velocity": 100}, {"time": 50600, "pitch": 58, "duration": 165, "velocity": 100}, {"time": 50600, "pitch": 61, "duration": 165, "velocity": 100}, {"time": 50710, "pitch": 51, "duration": 165, "velocity": 100}, {"time": 50820, "pitch": 58, "duration": 110, "velocity": 100}, {"time": 50820, "pitch": 63, "duration": 220, "velocity": 100}, {"time": 50820, "pitch": 67, "duration": 220, "velocity": 100}, {"time": 50930, "pitch": 51, "duration": 55, "velocity": 100}, {"time": 50985, "pitch": 58, "duration": 55, "velocity": 100}, {"time": 51040, "pitch": 48, "duration": 275, "velocity": 100}, {"time": 51040, "pitch": 56, "duration": 165, "velocity": 100}, {"time": 51040, "pitch": 60, "duration": 220, "velocity": 100}, {"time": 51040, "pitch": 63, "duration": 275, "velocity": 100}, {"time": 51150, "pitch": 56, "duration": 110, "velocity": 100}, {"time": 51260, "pitch": 60, "duration": 55, "velocity": 100}, {"time": 51260, "pitch": 63, "duration": 220, "velocity": 100}, {"time": 51370, "pitch": 56, "duration": 55, "velocity": 100}, {"time": 51370, "pitch": 60, "duration": 55, "velocity": 100}, {"time": 51370, "pitch": 63, "duration": 110, "velocity": 100}, {"time": 51480, "pitch": 44, "duration": 385, "velocity": 100}, {"time": 51480, "pitch": 56, "duration": 110, "velocity": 100}, {"time": 51480, "pitch": 60, "duration": 110, "velocity": 100}, {"time": 51480, "pitch": 68, "duration": 220, "velocity": 100}, {"time": 51590, "pitch": 51, "duration": 110, "velocity": 100}, {"time": 51700, "pitch": 56, "duration": 55, "velocity": 100}, {"time": 51700, "pitch": 63, "duration": 55, "velocity": 100}, {"time": 51755, "pitch": 51, "duration": 55, "velocity": 100}, {"time": 51755, "pitch": 61, "duration": 55, "velocity": 100}, {"time": 51810, "pitch": 58, "duration": 55, "velocity": 100}, {"time": 51810, "pitch": 63, "duration": 55, "velocity": 100}, {"time": 51865, "pitch": 60, "duration": 55, "velocity": 100}, {"time": 51865, "pitch": 65, "duration": 55, "velocity": 100}, {"time": 51920, "pitch": 44, "duration": 330, "velocity": 100}, {"time": 51920, "pitch": 56, "duration": 55, "velocity": 100}, {"time": 51920, "pitch": 60, "duration": 165, "velocity": 100}, {"time": 51920, "pitch": 63, "duration": 330, "velocity": 100}, {"time": 52140, "pitch": 56, "duration": 55, "velocity": 100}, {"time": 52140, "pitch": 63, "duration": 220, "velocity": 100}, {"time": 52250, "pitch": 56, "duration": 110, "velocity": 100}, {"time": 52360, "pitch": 44, "duration": 385, "velocity": 100}, {"time": 52360, "pitch": 56, "duration": 55, "velocity": 100}, {"time": 52360, "pitch": 60, "duration": 165, "velocity": 100}, {"time": 52360, "pitch": 72, "duration": 110, "velocity": 100}, {"time": 52470, "pitch": 51, "duration": 275, "velocity": 100}, {"time": 52525, "pitch": 75, "duration": 165, "velocity": 100}, {"time": 52580, "pitch": 56, "duration": 55, "velocity": 100}, {"time": 52580, "pitch": 60, "duration": 55, "velocity": 100}, {"time": 52580, "pitch": 63, "duration": 110, "velocity": 100}, {"time": 52635, "pitch": 72, "duration": 165, "velocity": 100}, {"time": 52690, "pitch": 56, "duration": 55, "velocity": 100}, {"time": 52800, "pitch": 44, "duration": 220, "velocity": 100}, {"time": 52800, "pitch": 60, "duration": 110, "velocity": 100}, {"time": 52800, "pitch": 68, "duration": 110, "velocity": 100}, {"time": 52910, "pitch": 51, "duration": 110, "velocity": 100}, {"time": 52910, "pitch": 84, "duration": 55, "velocity": 100}, {"time": 52965, "pitch": 85, "duration": 55, "velocity": 100}, {"time": 53020, "pitch": 51, "duration": 55, "velocity": 100}, {"time": 53020, "pitch": 58, "duration": 55, "velocity": 100}, {"time": 53020, "pitch": 63, "duration": 110, "velocity": 100}, {"time": 53020, "pitch": 84, "duration": 55, "velocity": 100}, {"time": 53075, "pitch": 87, "duration": 55, "velocity": 100}, {"time": 53130, "pitch": 58, "duration": 55, "velocity": 100}, {"time": 53240, "pitch": 44, "duration": 330, "velocity": 100}, {"time": 53240, "pitch": 56, "duration": 220, "velocity": 100}, {"time": 53240, "pitch": 60, "duration": 220, "velocity": 100}, {"time": 53240, "pitch": 87, "duration": 440, "velocity": 100}, {"time": 53350, "pitch": 51, "duration": 220, "velocity": 100}, {"time": 53460, "pitch": 63, "duration": 110, "velocity": 100}, {"time": 53680, "pitch": 51, "duration": 330, "velocity": 100}, {"time": 53680, "pitch": 61, "duration": 220, "velocity": 100}, {"time": 53680, "pitch": 63, "duration": 220, "velocity": 100}, {"time": 53790, "pitch": 55, "duration": 220, "velocity": 100}, {"time": 53900, "pitch": 67, "duration": 110, "velocity": 100}, {"time": 54010, "pitch": 63, "duration": 110, "velocity": 100}, {"time": 54120, "pitch": 51, "duration": 275, "velocity": 100}, {"time": 54120, "pitch": 67, "duration": 220, "velocity": 100}, {"time": 54230, "pitch": 55, "duration": 165, "velocity": 100}, {"time": 54340, "pitch": 61, "duration": 55, "velocity": 100}, {"time": 54340, "pitch": 63, "duration": 110, "velocity": 100}, {"time": 54560, "pitch": 48, "duration": 330, "velocity": 100}, {"time": 54560, "pitch": 60, "duration": 220, "velocity": 100}, {"time": 54560, "pitch": 63, "duration": 220, "velocity": 100}, {"time": 54670, "pitch": 56, "duration": 165, "velocity": 100}, {"time": 54780, "pitch": 68, "duration": 110, "velocity": 100}, {"time": 54890, "pitch": 63, "duration": 55, "velocity": 100}, {"time": 55000, "pitch": 44, "duration": 275, "velocity": 100}, {"time": 55000, "pitch": 63, "duration": 165, "velocity": 100}, {"time": 55110, "pitch": 56, "duration": 165, "velocity": 100}, {"time": 55220, "pitch": 60, "duration": 55, "velocity": 100}, {"time": 55220, "pitch": 63, "duration": 55, "velocity": 100}, {"time": 55440, "pitch": 44, "duration": 330, "velocity": 100}, {"time": 55440, "pitch": 60, "duration": 220, "velocity": 100}, {"time": 55440, "pitch": 63, "duration": 110, "velocity": 100}, {"time": 55550, "pitch": 51, "duration": 220, "velocity": 100}, {"time": 55660, "pitch": 56, "duration": 110, "velocity": 100}, {"time": 55715, "pitch": 60, "duration": 55, "velocity": 100}, {"time": 55770, "pitch": 63, "duration": 55, "velocity": 100}, {"time": 55880, "pitch": 44, "duration": 330, "velocity": 100}, {"time": 55880, "pitch": 56, "duration": 165, "velocity": 100}, {"time": 55880, "pitch": 63, "duration": 110, "velocity": 100}, {"time": 55990, "pitch": 51, "duration": 165, "velocity": 100}, {"time": 56100, "pitch": 60, "duration": 110, "velocity": 100}, {"time": 56100, "pitch": 65, "duration": 110, "velocity": 100}, {"time": 56210, "pitch": 58, "duration": 55, "velocity": 100}, {"time": 56320, "pitch": 34, "duration": 220, "velocity": 100}, {"time": 56320, "pitch": 49, "duration": 110, "velocity": 100}, {"time": 56320, "pitch": 58, "duration": 165, "velocity": 100}, {"time": 56430, "pitch": 41, "duration": 110, "velocity": 100}, {"time": 56540, "pitch": 46, "duration": 55, "velocity": 100}, {"time": 56540, "pitch": 49, "duration": 55, "velocity": 100}, {"time": 56540, "pitch": 53, "duration": 110, "velocity": 100}, {"time": 56650, "pitch": 49, "duration": 55, "velocity": 100}, {"time": 56760, "pitch": 34, "duration": 330, "velocity": 100}, {"time": 56760, "pitch": 46, "duration": 220, "velocity": 100}, {"time": 56760, "pitch": 53, "duration": 330, "velocity": 100}, {"time": 56870, "pitch": 41, "duration": 220, "velocity": 100}, {"time": 56870, "pitch": 75, "duration": 55, "velocity": 100}, {"time": 56925, "pitch": 77, "duration": 55, "velocity": 100}, {"time": 56980, "pitch": 53, "duration": 220, "velocity": 100}, {"time": 56980, "pitch": 74, "duration": 55, "velocity": 100}, {"time": 57035, "pitch": 77, "duration": 55, "velocity": 100}, {"time": 57200, "pitch": 39, "duration": 385, "velocity": 100}, {"time": 57200, "pitch": 51, "duration": 165, "velocity": 100}, {"time": 57200, "pitch": 55, "duration": 165, "velocity": 100}, {"time": 57200, "pitch": 79, "duration": 330, "velocity": 100}, {"time": 57310, "pitch": 46, "duration": 275, "velocity": 100}, {"time": 57420, "pitch": 58, "duration": 110, "velocity": 100}, {"time": 57420, "pitch": 63, "duration": 110, "velocity": 100}, {"time": 57530, "pitch": 55, "duration": 110, "velocity": 100}, {"time": 57530, "pitch": 58, "duration": 110, "velocity": 100}, {"time": 57640, "pitch": 39, "duration": 275, "velocity": 100}, {"time": 57640, "pitch": 58, "duration": 440, "velocity": 100}, {"time": 57750, "pitch": 46, "duration": 165, "velocity": 100}, {"time": 57860, "pitch": 51, "duration": 220, "velocity": 100}, {"time": 57860, "pitch": 55, "duration": 110, "velocity": 100}, {"time": 58080, "pitch": 36, "duration": 330, "velocity": 100}, {"time": 58080, "pitch": 51, "duration": 165, "velocity": 100}, {"time": 58080, "pitch": 56, "duration": 220, "velocity": 100}, {"time": 58080, "pitch": 60, "duration": 220, "velocity": 100}, {"time": 58190, "pitch": 48, "duration": 165, "velocity": 100}, {"time": 58300, "pitch": 56, "duration": 110, "velocity": 100}, {"time": 58300, "pitch": 60, "duration": 110, "velocity": 100}, {"time": 58410, "pitch": 51, "duration": 110, "velocity": 100}, {"time": 58410, "pitch": 56, "duration": 55, "velocity": 100}, {"time": 58520, "pitch": 44, "duration": 330, "velocity": 100}, {"time": 58520, "pitch": 56, "duration": 275, "velocity": 100}, {"time": 58630, "pitch": 48, "duration": 165, "velocity": 100}, {"time": 58740, "pitch": 51, "duration": 165, "velocity": 100}, {"time": 58740, "pitch": 56, "duration": 220, "velocity": 100}, {"time": 58960, "pitch": 32, "duration": 385, "velocity": 100}, {"time": 58960, "pitch": 51, "duration": 220, "velocity": 100}, {"time": 58960, "pitch": 56, "duration": 220, "velocity": 100}, {"time": 59070, "pitch": 39, "duration": 275, "velocity": 100}, {"time": 59070, "pitch": 51, "duration": 110, "velocity": 100}, {"time": 59180, "pitch": 48, "duration": 110, "velocity": 100}, {"time": 59180, "pitch": 51, "duration": 110, "velocity": 100}, {"time": 59235, "pitch": 51, "duration": 55, "velocity": 100}, {"time": 59290, "pitch": 56, "duration": 55, "velocity": 100}, {"time": 59290, "pitch": 61, "duration": 55, "velocity": 100}, {"time": 59345, "pitch": 63, "duration": 55, "velocity": 100}, {"time": 59400, "pitch": 32, "duration": 275, "velocity": 100}, {"time": 59400, "pitch": 51, "duration": 220, "velocity": 100}, {"time": 59400, "pitch": 56, "duration": 330, "velocity": 100}, {"time": 59400, "pitch": 60, "duration": 440, "velocity": 100}, {"time": 59510, "pitch": 44, "duration": 165, "velocity": 100}, {"time": 59620, "pitch": 51, "duration": 110, "velocity": 100}, {"time": 59620, "pitch": 56, "duration": 220, "velocity": 100}, {"time": 59730, "pitch": 48, "duration": 55, "velocity": 100}, {"time": 59840, "pitch": 48, "duration": 385, "velocity": 100}, {"time": 59950, "pitch": 56, "duration": 330, "velocity": 100}, {"time": 60060, "pitch": 63, "duration": 165, "velocity": 100}, {"time": 60060, "pitch": 68, "duration": 220, "velocity": 100}, {"time": 60060, "pitch": 72, "duration": 220, "velocity": 100}, {"time": 60280, "pitch": 44, "duration": 275, "velocity": 100}, {"time": 60280, "pitch": 56, "duration": 110, "velocity": 100}, {"time": 60280, "pitch": 63, "duration": 110, "velocity": 100}, {"time": 60390, "pitch": 51, "duration": 110, "velocity": 100}, {"time": 60500, "pitch": 56, "duration": 55, "velocity": 100}, {"time": 60500, "pitch": 60, "duration": 55, "velocity": 100}, {"time": 60500, "pitch": 65, "duration": 55, "velocity": 100}, {"time": 60555, "pitch": 58, "duration": 55, "velocity": 100}, {"time": 60610, "pitch": 58, "duration": 55, "velocity": 100}, {"time": 60610, "pitch": 61, "duration": 55, "velocity": 100}, {"time": 60665, "pitch": 58, "duration": 55, "velocity": 100}, {"time": 60665, "pitch": 63, "duration": 55, "velocity": 100}, {"time": 60720, "pitch": 49, "duration": 275, "velocity": 100}, {"time": 60720, "pitch": 55, "duration": 55, "velocity": 100}, {"time": 60720, "pitch": 61, "duration": 220, "velocity": 100}, {"time": 60830, "pitch": 55, "duration": 55, "velocity": 100}, {"time": 60940, "pitch": 58, "duration": 55, "velocity": 100}, {"time": 60940, "pitch": 63, "duration": 220, "velocity": 100}, {"time": 61050, "pitch": 61, "duration": 165, "velocity": 100}, {"time": 61160, "pitch": 39, "duration": 330, "velocity": 100}, {"time": 61160, "pitch": 55, "duration": 165, "velocity": 100}, {"time": 61160, "pitch": 58, "duration": 165, "velocity": 100}, {"time": 61160, "pitch": 61, "duration": 165, "velocity": 100}, {"time": 61270, "pitch": 51, "duration": 165, "velocity": 100}, {"time": 61380, "pitch": 61, "duration": 110, "velocity": 100}, {"time": 61380, "pitch": 63, "duration": 110, "velocity": 100}, {"time": 61435, "pitch": 65, "duration": 55, "velocity": 100}, {"time": 61490, "pitch": 55, "duration": 55, "velocity": 100}, {"time": 61490, "pitch": 61, "duration": 55, "velocity": 100}, {"time": 61545, "pitch": 56, "duration": 55, "velocity": 100}, {"time": 61600, "pitch": 48, "duration": 220, "velocity": 100}, {"time": 61600, "pitch": 56, "duration": 165, "velocity": 100}, {"time": 61600, "pitch": 60, "duration": 330, "velocity": 100}, {"time": 61710, "pitch": 56, "duration": 55, "velocity": 100}, {"time": 61820, "pitch": 60, "duration": 220, "velocity": 100}, {"time": 61820, "pitch": 63, "duration": 220, "velocity": 100}, {"time": 61930, "pitch": 56, "duration": 110, "velocity": 100}, {"time": 61930, "pitch": 61, "duration": 110, "velocity": 100}, {"time": 62040, "pitch": 44, "duration": 330, "velocity": 100}, {"time": 62040, "pitch": 56, "duration": 165, "velocity": 100}, {"time": 62040, "pitch": 60, "duration": 220, "velocity": 100}, {"time": 62150, "pitch": 51, "duration": 110, "velocity": 100}, {"time": 62260, "pitch": 56, "duration": 55, "velocity": 100}, {"time": 62260, "pitch": 60, "duration": 55, "velocity": 100}, {"time": 62260, "pitch": 63, "duration": 55, "velocity": 100}, {"time": 62315, "pitch": 51, "duration": 55, "velocity": 100}, {"time": 62315, "pitch": 65, "duration": 55, "velocity": 100}, {"time": 62370, "pitch": 58, "duration": 55, "velocity": 100}, {"time": 62370, "pitch": 61, "duration": 55, "velocity": 100}, {"time": 62425, "pitch": 60, "duration": 55, "velocity": 100}, {"time": 62425, "pitch": 63, "duration": 55, "velocity": 100}, {"time": 62480, "pitch": 44, "duration": 330, "velocity": 100}, {"time": 62480, "pitch": 56, "duration": 220, "velocity": 100}, {"time": 62480, "pitch": 60, "duration": 330, "velocity": 100}, {"time": 62700, "pitch": 56, "duration": 55, "velocity": 100}, {"time": 62700, "pitch": 60, "duration": 220, "velocity": 100}, {"time": 62700, "pitch": 63, "duration": 110, "velocity": 100}, {"time": 62810, "pitch": 56, "duration": 110, "velocity": 100}, {"time": 62810, "pitch": 60, "duration": 110, "velocity": 100}, {"time": 62920, "pitch": 44, "duration": 385, "velocity": 100}, {"time": 62920, "pitch": 56, "duration": 165, "velocity": 100}, {"time": 62920, "pitch": 60, "duration": 220, "velocity": 100}, {"time": 63030, "pitch": 51, "duration": 275, "velocity": 100}, {"time": 63140, "pitch": 56, "duration": 55, "velocity": 100}, {"time": 63140, "pitch": 60, "duration": 110, "velocity": 100}, {"time": 63140, "pitch": 63, "duration": 110, "velocity": 100}, {"time": 63140, "pitch": 72, "duration": 55, "velocity": 100}, {"time": 63195, "pitch": 73, "duration": 55, "velocity": 100}, {"time": 63250, "pitch": 56, "duration": 55, "velocity": 100}, {"time": 63305, "pitch": 77, "duration": 55, "velocity": 100}, {"time": 63360, "pitch": 41, "duration": 440, "velocity": 100}, {"time": 63360, "pitch": 49, "duration": 55, "velocity": 100}, {"time": 63360, "pitch": 53, "duration": 110, "velocity": 100}, {"time": 63360, "pitch": 68, "duration": 110, "velocity": 100}, {"time": 63470, "pitch": 49, "duration": 55, "velocity": 100}, {"time": 63525, "pitch": 68, "duration": 55, "velocity": 100}, {"time": 63580, "pitch": 49, "duration": 55, "velocity": 100}, {"time": 63580, "pitch": 53, "duration": 55, "velocity": 100}, {"time": 63635, "pitch": 61, "duration": 55, "velocity": 100}, {"time": 63690, "pitch": 53, "duration": 110, "velocity": 100}, {"time": 63800, "pitch": 34, "duration": 275, "velocity": 100}, {"time": 63800, "pitch": 46, "duration": 55, "velocity": 100}, {"time": 63800, "pitch": 53, "duration": 110, "velocity": 100}, {"time": 63910, "pitch": 41, "duration": 110, "velocity": 100}, {"time": 64020, "pitch": 50, "duration": 55, "velocity": 100}, {"time": 64020, "pitch": 53, "duration": 55, "velocity": 100}, {"time": 64020, "pitch": 58, "duration": 220, "velocity": 100}, {"time": 64075, "pitch": 41, "duration": 55, "velocity": 100}, {"time": 64130, "pitch": 50, "duration": 55, "velocity": 100}, {"time": 64130, "pitch": 56, "duration": 110, "velocity": 100}, {"time": 64240, "pitch": 39, "duration": 330, "velocity": 100}, {"time": 64240, "pitch": 51, "duration": 55, "velocity": 100}, {"time": 64240, "pitch": 55, "duration": 110, "velocity": 100}, {"time": 64240, "pitch": 58, "duration": 165, "velocity": 100}, {"time": 64350, "pitch": 51, "duration": 55, "velocity": 100}, {"time": 64460, "pitch": 46, "duration": 55, "velocity": 100}, {"time": 64460, "pitch": 55, "duration": 55, "velocity": 100}, {"time": 64515, "pitch": 56, "duration": 55, "velocity": 100}, {"time": 64570, "pitch": 51, "duration": 55, "velocity": 100}, {"time": 64570, "pitch": 55, "duration": 110, "velocity": 100}, {"time": 64625, "pitch": 56, "duration": 55, "velocity": 100}, {"time": 64680, "pitch": 32, "duration": 330, "velocity": 100}, {"time": 64680, "pitch": 48, "duration": 220, "velocity": 100}, {"time": 64680, "pitch": 51, "duration": 220, "velocity": 100}, {"time": 64790, "pitch": 44, "duration": 165, "velocity": 100}, {"time": 64900, "pitch": 51, "duration": 110, "velocity": 100}, {"time": 64900, "pitch": 56, "duration": 220, "velocity": 100}, {"time": 64900, "pitch": 60, "duration": 220, "velocity": 100}, {"time": 65010, "pitch": 44, "duration": 55, "velocity": 100}, {"time": 65065, "pitch": 51, "duration": 55, "velocity": 100}, {"time": 65120, "pitch": 44, "duration": 330, "velocity": 100}, {"time": 65120, "pitch": 51, "duration": 165, "velocity": 100}, {"time": 65120, "pitch": 56, "duration": 220, "velocity": 100}, {"time": 65120, "pitch": 60, "duration": 220, "velocity": 100}, {"time": 65230, "pitch": 51, "duration": 55, "velocity": 100}, {"time": 65340, "pitch": 51, "duration": 55, "velocity": 100}, {"time": 65340, "pitch": 58, "duration": 55, "velocity": 100}, {"time": 65450, "pitch": 51, "duration": 55, "velocity": 100}, {"time": 65450, "pitch": 53, "duration": 110, "velocity": 100}, {"time": 65450, "pitch": 56, "duration": 110, "velocity": 100}, {"time": 65450, "pitch": 58, "duration": 110, "velocity": 100}, {"time": 65560, "pitch": 32, "duration": 440, "velocity": 100}, {"time": 65560, "pitch": 51, "duration": 110, "velocity": 100}, {"time": 65560, "pitch": 56, "duration": 110, "velocity": 100}, {"time": 65560, "pitch": 60, "duration": 220, "velocity": 100}, {"time": 65670, "pitch": 44, "duration": 110, "velocity": 100}, {"time": 65780, "pitch": 48, "duration": 55, "velocity": 100}, {"time": 65780, "pitch": 51, "duration": 55, "velocity": 100}, {"time": 65780, "pitch": 56, "duration": 55, "velocity": 100}, {"time": 65835, "pitch": 44, "duration": 55, "velocity": 100}, {"time": 65835, "pitch": 58, "duration": 55, "velocity": 100}, {"time": 65890, "pitch": 51, "duration": 55, "velocity": 100}, {"time": 65890, "pitch": 58, "duration": 55, "velocity": 100}, {"time": 65945, "pitch": 56, "duration": 55, "velocity": 100}, {"time": 65945, "pitch": 60, "duration": 55, "velocity": 100}, {"time": 66000, "pitch": 44, "duration": 385, "velocity": 100}, {"time": 66000, "pitch": 51, "duration": 55, "velocity": 100}, {"time": 66000, "pitch": 56, "duration": 165, "velocity": 100}, {"time": 66000, "pitch": 60, "duration": 165, "velocity": 100}, {"time": 66220, "pitch": 51, "duration": 55, "velocity": 100}, {"time": 66220, "pitch": 56, "duration": 110, "velocity": 100}, {"time": 66220, "pitch": 60, "duration": 110, "velocity": 100}, {"time": 66330, "pitch": 51, "duration": 110, "velocity": 100}, {"time": 66440, "pitch": 32, "duration": 385, "velocity": 100}, {"time": 66440, "pitch": 51, "duration": 165, "velocity": 100}, {"time": 66440, "pitch": 56, "duration": 165, "velocity": 100}, {"time": 66440, "pitch": 65, "duration": 110, "velocity": 100}, {"time": 66550, "pitch": 39, "duration": 220, "velocity": 100}, {"time": 66605, "pitch": 68, "duration": 55, "velocity": 100}, {"time": 66660, "pitch": 48, "duration": 55, "velocity": 100}, {"time": 66660, "pitch": 51, "duration": 110, "velocity": 100}, {"time": 66660, "pitch": 60, "duration": 110, "velocity": 100}, {"time": 66715, "pitch": 63, "duration": 165, "velocity": 100}, {"time": 66770, "pitch": 44, "duration": 55, "velocity": 100}, {"time": 66880, "pitch": 48, "duration": 220, "velocity": 100}, {"time": 66880, "pitch": 60, "duration": 110, "velocity": 100}, {"time": 66880, "pitch": 68, "duration": 110, "velocity": 100}, {"time": 66990, "pitch": 53, "duration": 110, "velocity": 100}, {"time": 66990, "pitch": 92, "duration": 55, "velocity": 100}, {"time": 67045, "pitch": 87, "duration": 55, "velocity": 100}, {"time": 67100, "pitch": 56, "duration": 55, "velocity": 100}, {"time": 67100, "pitch": 60, "duration": 55, "velocity": 100}, {"time": 67100, "pitch": 65, "duration": 110, "velocity": 100}, {"time": 67100, "pitch": 84, "duration": 165, "velocity": 100}, {"time": 67155, "pitch": 92, "duration": 55, "velocity": 100}, {"time": 67210, "pitch": 60, "duration": 55, "velocity": 100}, {"time": 67320, "pitch": 44, "duration": 330, "velocity": 100}, {"time": 67320, "pitch": 56, "duration": 110, "velocity": 100}, {"time": 67320, "pitch": 60, "duration": 220, "velocity": 100}, {"time": 67320, "pitch": 89, "duration": 440, "velocity": 100}, {"time": 67430, "pitch": 53, "duration": 220, "velocity": 100}, {"time": 67540, "pitch": 65, "duration": 110, "velocity": 100}, {"time": 67760, "pitch": 49, "duration": 330, "velocity": 100}, {"time": 67760, "pitch": 61, "duration": 220, "velocity": 100}, {"time": 67760, "pitch": 65, "duration": 220, "velocity": 100}, {"time": 67870, "pitch": 56, "duration": 220, "velocity": 100}, {"time": 67980, "pitch": 68, "duration": 110, "velocity": 100}, {"time": 68090, "pitch": 65, "duration": 110, "velocity": 100}, {"time": 68200, "pitch": 53, "duration": 275, "velocity": 100}, {"time": 68200, "pitch": 68, "duration": 220, "velocity": 100}, {"time": 68310, "pitch": 56, "duration": 165, "velocity": 100}, {"time": 68420, "pitch": 61, "duration": 110, "velocity": 100}, {"time": 68420, "pitch": 68, "duration": 110, "velocity": 100}, {"time": 68640, "pitch": 51, "duration": 330, "velocity": 100}, {"time": 68640, "pitch": 63, "duration": 220, "velocity": 100}, {"time": 68640, "pitch": 67, "duration": 165, "velocity": 100}, {"time": 68750, "pitch": 58, "duration": 165, "velocity": 100}, {"time": 68860, "pitch": 70, "duration": 110, "velocity": 100}, {"time": 68970, "pitch": 65, "duration": 55, "velocity": 100}, {"time": 69080, "pitch": 51, "duration": 330, "velocity": 100}, {"time": 69080, "pitch": 67, "duration": 165, "velocity": 100}, {"time": 69190, "pitch": 58, "duration": 165, "velocity": 100}, {"time": 69300, "pitch": 63, "duration": 55, "velocity": 100}, {"time": 69300, "pitch": 67, "duration": 55, "velocity": 100}, {"time": 69520, "pitch": 48, "duration": 330, "velocity": 100}, {"time": 69520, "pitch": 64, "duration": 220, "velocity": 100}, {"time": 69630, "pitch": 55, "duration": 220, "velocity": 100}, {"time": 69740, "pitch": 60, "duration": 110, "velocity": 100}, {"time": 69795, "pitch": 62, "duration": 55, "velocity": 100}, {"time": 69850, "pitch": 65, "duration": 55, "velocity": 100}, {"time": 69960, "pitch": 48, "duration": 330, "velocity": 100}, {"time": 69960, "pitch": 60, "duration": 165, "velocity": 100}, {"time": 69960, "pitch": 64, "duration": 110, "velocity": 100}, {"time": 69960, "pitch": 67, "duration": 110, "velocity": 100}, {"time": 70070, "pitch": 55, "duration": 165, "velocity": 100}, {"time": 70180, "pitch": 64, "duration": 110, "velocity": 100}, {"time": 70180, "pitch": 67, "duration": 110, "velocity": 100}, {"time": 70290, "pitch": 60, "duration": 55, "velocity": 100}, {"time": 70400, "pitch": 34, "duration": 220, "velocity": 100}, {"time": 70400, "pitch": 49, "duration": 110, "velocity": 100}, {"time": 70400, "pitch": 58, "duration": 165, "velocity": 100}, {"time": 70510, "pitch": 41, "duration": 110, "velocity": 100}, {"time": 70620, "pitch": 46, "duration": 55, "velocity": 100}, {"time": 70620, "pitch": 49, "duration": 55, "velocity": 100}, {"time": 70620, "pitch": 53, "duration": 110, "velocity": 100}, {"time": 70730, "pitch": 49, "duration": 55, "velocity": 100}, {"time": 70840, "pitch": 34, "duration": 330, "velocity": 100}, {"time": 70840, "pitch": 49, "duration": 110, "velocity": 100}, {"time": 70840, "pitch": 53, "duration": 220, "velocity": 100}, {"time": 70950, "pitch": 41, "duration": 220, "velocity": 100}, {"time": 70950, "pitch": 77, "duration": 55, "velocity": 100}, {"time": 71005, "pitch": 77, "duration": 55, "velocity": 100}, {"time": 71060, "pitch": 53, "duration": 110, "velocity": 100}, {"time": 71060, "pitch": 73, "duration": 55, "velocity": 100}, {"time": 71115, "pitch": 77, "duration": 110, "velocity": 100}, {"time": 71280, "pitch": 39, "duration": 385, "velocity": 100}, {"time": 71280, "pitch": 51, "duration": 165, "velocity": 100}, {"time": 71280, "pitch": 55, "duration": 165, "velocity": 100}, {"time": 71280, "pitch": 79, "duration": 330, "velocity": 100}, {"time": 71390, "pitch": 46, "duration": 275, "velocity": 100}, {"time": 71500, "pitch": 58, "duration": 110, "velocity": 100}, {"time": 71500, "pitch": 63, "duration": 110, "velocity": 100}, {"time": 71610, "pitch": 55, "duration": 110, "velocity": 100}, {"time": 71610, "pitch": 58, "duration": 110, "velocity": 100}, {"time": 71720, "pitch": 39, "duration": 275, "velocity": 100}, {"time": 71720, "pitch": 58, "duration": 440, "velocity": 100}, {"time": 71830, "pitch": 46, "duration": 165, "velocity": 100}, {"time": 71940, "pitch": 51, "duration": 165, "velocity": 100}, {"time": 71940, "pitch": 55, "duration": 110, "velocity": 100}, {"time": 72160, "pitch": 36, "duration": 330, "velocity": 100}, {"time": 72160, "pitch": 51, "duration": 165, "velocity": 100}, {"time": 72160, "pitch": 56, "duration": 220, "velocity": 100}, {"time": 72160, "pitch": 60, "duration": 220, "velocity": 100}, {"time": 72270, "pitch": 48, "duration": 165, "velocity": 100}, {"time": 72380, "pitch": 56, "duration": 110, "velocity": 100}, {"time": 72380, "pitch": 60, "duration": 110, "velocity": 100}, {"time": 72490, "pitch": 51, "duration": 110, "velocity": 100}, {"time": 72490, "pitch": 56, "duration": 110, "velocity": 100}, {"time": 72600, "pitch": 44, "duration": 330, "velocity": 100}, {"time": 72600, "pitch": 56, "duration": 275, "velocity": 100}, {"time": 72710, "pitch": 48, "duration": 165, "velocity": 100}, {"time": 72820, "pitch": 51, "duration": 165, "velocity": 100}, {"time": 72820, "pitch": 56, "duration": 220, "velocity": 100}, {"time": 73040, "pitch": 32, "duration": 385, "velocity": 100}, {"time": 73040, "pitch": 51, "duration": 220, "velocity": 100}, {"time": 73040, "pitch": 56, "duration": 220, "velocity": 100}, {"time": 73150, "pitch": 39, "duration": 275, "velocity": 100}, {"time": 73150, "pitch": 51, "duration": 110, "velocity": 100}, {"time": 73260, "pitch": 48, "duration": 110, "velocity": 100}, {"time": 73260, "pitch": 51, "duration": 110, "velocity": 100}, {"time": 73315, "pitch": 51, "duration": 55, "velocity": 100}, {"time": 73370, "pitch": 56, "duration": 55, "velocity": 100}, {"time": 73370, "pitch": 61, "duration": 55, "velocity": 100}, {"time": 73425, "pitch": 63, "duration": 55, "velocity": 100}, {"time": 73480, "pitch": 32, "duration": 275, "velocity": 100}, {"time": 73480, "pitch": 51, "duration": 220, "velocity": 100}, {"time": 73480, "pitch": 56, "duration": 330, "velocity": 100}, {"time": 73480, "pitch": 60, "duration": 440, "velocity": 100}, {"time": 73590, "pitch": 44, "duration": 165, "velocity": 100}, {"time": 73700, "pitch": 51, "duration": 110, "velocity": 100}, {"time": 73700, "pitch": 56, "duration": 220, "velocity": 100}, {"time": 73810, "pitch": 48, "duration": 55, "velocity": 100}, {"time": 73920, "pitch": 46, "duration": 385, "velocity": 100}, {"time": 74030, "pitch": 53, "duration": 275, "velocity": 100}, {"time": 74140, "pitch": 58, "duration": 165, "velocity": 100}, {"time": 74140, "pitch": 61, "duration": 220, "velocity": 100}, {"time": 74140, "pitch": 70, "duration": 440, "velocity": 100}, {"time": 74360, "pitch": 46, "duration": 275, "velocity": 100}, {"time": 74360, "pitch": 53, "duration": 110, "velocity": 100}, {"time": 74360, "pitch": 61, "duration": 110, "velocity": 100}, {"time": 74470, "pitch": 49, "duration": 110, "velocity": 100}, {"time": 74580, "pitch": 53, "duration": 55, "velocity": 100}, {"time": 74580, "pitch": 56, "duration": 55, "velocity": 100}, {"time": 74580, "pitch": 61, "duration": 55, "velocity": 100}, {"time": 74635, "pitch": 56, "duration": 55, "velocity": 100}, {"time": 74690, "pitch": 53, "duration": 55, "velocity": 100}, {"time": 74690, "pitch": 60, "duration": 55, "velocity": 100}, {"time": 74745, "pitch": 56, "duration": 55, "velocity": 100}, {"time": 74745, "pitch": 58, "duration": 55, "velocity": 100}, {"time": 74800, "pitch": 46, "duration": 275, "velocity": 100}, {"time": 74800, "pitch": 53, "duration": 55, "velocity": 100}, {"time": 74800, "pitch": 58, "duration": 220, "velocity": 100}, {"time": 74910, "pitch": 53, "duration": 55, "velocity": 100}, {"time": 75020, "pitch": 53, "duration": 110, "velocity": 100}, {"time": 75020, "pitch": 61, "duration": 220, "velocity": 100}, {"time": 75130, "pitch": 58, "duration": 165, "velocity": 100}, {"time": 75240, "pitch": 34, "duration": 330, "velocity": 100}, {"time": 75240, "pitch": 53, "duration": 165, "velocity": 100}, {"time": 75240, "pitch": 58, "duration": 165, "velocity": 100}, {"time": 75350, "pitch": 46, "duration": 165, "velocity": 100}, {"time": 75460, "pitch": 58, "duration": 110, "velocity": 100}, {"time": 75460, "pitch": 61, "duration": 110, "velocity": 100}, {"time": 75515, "pitch": 60, "duration": 55, "velocity": 100}, {"time": 75570, "pitch": 53, "duration": 110, "velocity": 100}, {"time": 75625, "pitch": 56, "duration": 55, "velocity": 100}, {"time": 75625, "pitch": 58, "duration": 55, "velocity": 100}, {"time": 75680, "pitch": 46, "duration": 275, "velocity": 100}, {"time": 75680, "pitch": 53, "duration": 165, "velocity": 100}, {"time": 75680, "pitch": 58, "duration": 220, "velocity": 100}, {"time": 75790, "pitch": 53, "duration": 55, "velocity": 100}, {"time": 75900, "pitch": 58, "duration": 55, "velocity": 100}, {"time": 75900, "pitch": 61, "duration": 220, "velocity": 100}, {"time": 76010, "pitch": 53, "duration": 110, "velocity": 100}, {"time": 76010, "pitch": 58, "duration": 110, "velocity": 100}, {"time": 76120, "pitch": 46, "duration": 330, "velocity": 100}, {"time": 76120, "pitch": 53, "duration": 165, "velocity": 100}, {"time": 76120, "pitch": 58, "duration": 220, "velocity": 100}, {"time": 76230, "pitch": 49, "duration": 110, "velocity": 100}, {"time": 76340, "pitch": 53, "duration": 55, "velocity": 100}, {"time": 76340, "pitch": 58, "duration": 55, "velocity": 100}, {"time": 76340, "pitch": 60, "duration": 55, "velocity": 100}, {"time": 76395, "pitch": 53, "duration": 55, "velocity": 100}, {"time": 76395, "pitch": 60, "duration": 55, "velocity": 100}, {"time": 76450, "pitch": 56, "duration": 55, "velocity": 100}, {"time": 76450, "pitch": 58, "duration": 55, "velocity": 100}, {"time": 76505, "pitch": 58, "duration": 55, "velocity": 100}, {"time": 76505, "pitch": 61, "duration": 55, "velocity": 100}, {"time": 76560, "pitch": 46, "duration": 385, "velocity": 100}, {"time": 76560, "pitch": 53, "duration": 165, "velocity": 100}, {"time": 76560, "pitch": 58, "duration": 330, "velocity": 100}, {"time": 76780, "pitch": 53, "duration": 55, "velocity": 100}, {"time": 76780, "pitch": 58, "duration": 220, "velocity": 100}, {"time": 76780, "pitch": 61, "duration": 110, "velocity": 100}, {"time": 76890, "pitch": 53, "duration": 110, "velocity": 100}, {"time": 76890, "pitch": 58, "duration": 110, "velocity": 100}, {"time": 77000, "pitch": 46, "duration": 385, "velocity": 100}, {"time": 77000, "pitch": 53, "duration": 220, "velocity": 100}, {"time": 77000, "pitch": 58, "duration": 220, "velocity": 100}, {"time": 77110, "pitch": 46, "duration": 275, "velocity": 100}, {"time": 77220, "pitch": 53, "duration": 55, "velocity": 100}, {"time": 77220, "pitch": 58, "duration": 110, "velocity": 100}, {"time": 77220, "pitch": 61, "duration": 110, "velocity": 100}, {"time": 77220, "pitch": 70, "duration": 55, "velocity": 100}, {"time": 77275, "pitch": 70, "duration": 55, "velocity": 100}, {"time": 77330, "pitch": 53, "duration": 55, "velocity": 100}, {"time": 77385, "pitch": 75, "duration": 55, "velocity": 100}, {"time": 77440, "pitch": 38, "duration": 440, "velocity": 100}, {"time": 77440, "pitch": 46, "duration": 55, "velocity": 100}, {"time": 77440, "pitch": 53, "duration": 110, "velocity": 100}, {"time": 77440, "pitch": 68, "duration": 110, "velocity": 100}, {"time": 77550, "pitch": 50, "duration": 55, "velocity": 100}, {"time": 77605, "pitch": 70, "duration": 55, "velocity": 100}, {"time": 77660, "pitch": 50, "duration": 55, "velocity": 100}, {"time": 77660, "pitch": 53, "duration": 55, "velocity": 100}, {"time": 77715, "pitch": 65, "duration": 55, "velocity": 100}, {"time": 77770, "pitch": 53, "duration": 110, "velocity": 100}, {"time": 77880, "pitch": 34, "duration": 275, "velocity": 100}, {"time": 77880, "pitch": 46, "duration": 110, "velocity": 100}, {"time": 77880, "pitch": 53, "duration": 110, "velocity": 100}, {"time": 77990, "pitch": 41, "duration": 110, "velocity": 100}, {"time": 78100, "pitch": 50, "duration": 55, "velocity": 100}, {"time": 78100, "pitch": 53, "duration": 55, "velocity": 100}, {"time": 78100, "pitch": 58, "duration": 110, "velocity": 100}, {"time": 78155, "pitch": 41, "duration": 55, "velocity": 100}, {"time": 78210, "pitch": 53, "duration": 55, "velocity": 100}, {"time": 78210, "pitch": 56, "duration": 110, "velocity": 100}, {"time": 78320, "pitch": 39, "duration": 330, "velocity": 100}, {"time": 78320, "pitch": 51, "duration": 55, "velocity": 100}, {"time": 78320, "pitch": 55, "duration": 110, "velocity": 100}, {"time": 78320, "pitch": 58, "duration": 165, "velocity": 100}, {"time": 78430, "pitch": 51, "duration": 55, "velocity": 100}, {"time": 78540, "pitch": 46, "duration": 55, "velocity": 100}, {"time": 78540, "pitch": 55, "duration": 55, "velocity": 100}, {"time": 78595, "pitch": 56, "duration": 55, "velocity": 100}, {"time": 78650, "pitch": 51, "duration": 55, "velocity": 100}, {"time": 78650, "pitch": 55, "duration": 110, "velocity": 100}, {"time": 78705, "pitch": 56, "duration": 55, "velocity": 100}, {"time": 78760, "pitch": 39, "duration": 330, "velocity": 100}, {"time": 78760, "pitch": 51, "duration": 220, "velocity": 100}, {"time": 78760, "pitch": 55, "duration": 220, "velocity": 100}, {"time": 78870, "pitch": 46, "duration": 165, "velocity": 100}, {"time": 78980, "pitch": 51, "duration": 110, "velocity": 100}, {"time": 78980, "pitch": 58, "duration": 220, "velocity": 100}, {"time": 78980, "pitch": 63, "duration": 220, "velocity": 100}, {"time": 79090, "pitch": 46, "duration": 55, "velocity": 100}, {"time": 79145, "pitch": 51, "duration": 55, "velocity": 100}, {"time": 79200, "pitch": 44, "duration": 330, "velocity": 100}, {"time": 79200, "pitch": 51, "duration": 165, "velocity": 100}, {"time": 79200, "pitch": 56, "duration": 220, "velocity": 100}, {"time": 79200, "pitch": 60, "duration": 220, "velocity": 100}, {"time": 79310, "pitch": 51, "duration": 55, "velocity": 100}, {"time": 79420, "pitch": 51, "duration": 55, "velocity": 100}, {"time": 79420, "pitch": 56, "duration": 110, "velocity": 100}, {"time": 79530, "pitch": 51, "duration": 55, "velocity": 100}, {"time": 79530, "pitch": 53, "duration": 110, "velocity": 100}, {"time": 79530, "pitch": 56, "duration": 110, "velocity": 100}, {"time": 79530, "pitch": 58, "duration": 110, "velocity": 100}, {"time": 79640, "pitch": 32, "duration": 440, "velocity": 100}, {"time": 79640, "pitch": 51, "duration": 110, "velocity": 100}, {"time": 79640, "pitch": 56, "duration": 110, "velocity": 100}, {"time": 79640, "pitch": 60, "duration": 220, "velocity": 100}, {"time": 79750, "pitch": 44, "duration": 110, "velocity": 100}, {"time": 79860, "pitch": 48, "duration": 55, "velocity": 100}, {"time": 79860, "pitch": 51, "duration": 55, "velocity": 100}, {"time": 79860, "pitch": 56, "duration": 55, "velocity": 100}, {"time": 79915, "pitch": 44, "duration": 55, "velocity": 100}, {"time": 79915, "pitch": 58, "duration": 55, "velocity": 100}, {"time": 79970, "pitch": 51, "duration": 55, "velocity": 100}, {"time": 79970, "pitch": 56, "duration": 55, "velocity": 100}, {"time": 80025, "pitch": 56, "duration": 55, "velocity": 100}, {"time": 80025, "pitch": 60, "duration": 55, "velocity": 100}, {"time": 80080, "pitch": 34, "duration": 440, "velocity": 100}, {"time": 80080, "pitch": 49, "duration": 165, "velocity": 100}, {"time": 80080, "pitch": 53, "duration": 165, "velocity": 100}, {"time": 80080, "pitch": 58, "duration": 165, "velocity": 100}, {"time": 80300, "pitch": 49, "duration": 55, "velocity": 100}, {"time": 80300, "pitch": 56, "duration": 110, "velocity": 100}, {"time": 80300, "pitch": 58, "duration": 110, "velocity": 100}, {"time": 80410, "pitch": 49, "duration": 110, "velocity": 100}, {"time": 80520, "pitch": 34, "duration": 385, "velocity": 100}, {"time": 80520, "pitch": 49, "duration": 165, "velocity": 100}, {"time": 80520, "pitch": 56, "duration": 165, "velocity": 100}, {"time": 80520, "pitch": 65, "duration": 110, "velocity": 100}, {"time": 80630, "pitch": 41, "duration": 220, "velocity": 100}, {"time": 80685, "pitch": 68, "duration": 55, "velocity": 100}, {"time": 80740, "pitch": 49, "duration": 110, "velocity": 100}, {"time": 80740, "pitch": 53, "duration": 110, "velocity": 100}, {"time": 80740, "pitch": 58, "duration": 110, "velocity": 100}, {"time": 80795, "pitch": 65, "duration": 165, "velocity": 100}, {"time": 80850, "pitch": 46, "duration": 55, "velocity": 100}, {"time": 80960, "pitch": 44, "duration": 165, "velocity": 100}, {"time": 80960, "pitch": 56, "duration": 110, "velocity": 100}, {"time": 80960, "pitch": 63, "duration": 110, "velocity": 100}, {"time": 81070, "pitch": 51, "duration": 110, "velocity": 100}, {"time": 81070, "pitch": 82, "duration": 55, "velocity": 100}, {"time": 81125, "pitch": 85, "duration": 55, "velocity": 100}, {"time": 81180, "pitch": 51, "duration": 55, "velocity": 100}, {"time": 81180, "pitch": 56, "duration": 55, "velocity": 100}, {"time": 81180, "pitch": 60, "duration": 110, "velocity": 100}, {"time": 81180, "pitch": 82, "duration": 165, "velocity": 100}, {"time": 81235, "pitch": 87, "duration": 55, "velocity": 100}, {"time": 81290, "pitch": 56, "duration": 55, "velocity": 100}, {"time": 81400, "pitch": 44, "duration": 385, "velocity": 100}, {"time": 81400, "pitch": 51, "duration": 220, "velocity": 100}, {"time": 81400, "pitch": 56, "duration": 220, "velocity": 100}, {"time": 81400, "pitch": 84, "duration": 440, "velocity": 100}, {"time": 81510, "pitch": 51, "duration": 220, "velocity": 100}, {"time": 81620, "pitch": 60, "duration": 110, "velocity": 100}, {"time": 81840, "pitch": 44, "duration": 385, "velocity": 100}, {"time": 81840, "pitch": 60, "duration": 220, "velocity": 100}, {"time": 81840, "pitch": 63, "duration": 220, "velocity": 100}, {"time": 81950, "pitch": 51, "duration": 220, "velocity": 100}, {"time": 82060, "pitch": 63, "duration": 110, "velocity": 100}, {"time": 82170, "pitch": 60, "duration": 110, "velocity": 100}, {"time": 82280, "pitch": 48, "duration": 275, "velocity": 100}, {"time": 82280, "pitch": 63, "duration": 220, "velocity": 100}, {"time": 82390, "pitch": 51, "duration": 165, "velocity": 100}, {"time": 82500, "pitch": 60, "duration": 55, "velocity": 100}, {"time": 82500, "pitch": 63, "duration": 110, "velocity": 100}, {"time": 82720, "pitch": 46, "duration": 275, "velocity": 100}, {"time": 82720, "pitch": 58, "duration": 220, "velocity": 100}, {"time": 82720, "pitch": 61, "duration": 220, "velocity": 100}, {"time": 82830, "pitch": 53, "duration": 165, "velocity": 100}, {"time": 82940, "pitch": 65, "duration": 110, "velocity": 100}, {"time": 83050, "pitch": 61, "duration": 55, "velocity": 100}, {"time": 83160, "pitch": 46, "duration": 275, "velocity": 100}, {"time": 83160, "pitch": 61, "duration": 165, "velocity": 100}, {"time": 83270, "pitch": 53, "duration": 165, "velocity": 100}, {"time": 83380, "pitch": 58, "duration": 55, "velocity": 100}, {"time": 83380, "pitch": 61, "duration": 55, "velocity": 100}, {"time": 83600, "pitch": 46, "duration": 330, "velocity": 100}, {"time": 83600, "pitch": 58, "duration": 165, "velocity": 100}, {"time": 83600, "pitch": 61, "duration": 110, "velocity": 100}, {"time": 83710, "pitch": 49, "duration": 220, "velocity": 100}, {"time": 83820, "pitch": 53, "duration": 110, "velocity": 100}, {"time": 83875, "pitch": 58, "duration": 55, "velocity": 100}, {"time": 83930, "pitch": 60, "duration": 55, "velocity": 100}, {"time": 84040, "pitch": 46, "duration": 275, "velocity": 100}, {"time": 84040, "pitch": 58, "duration": 110, "velocity": 100}, {"time": 84040, "pitch": 61, "duration": 165, "velocity": 100}, {"time": 84150, "pitch": 53, "duration": 165, "velocity": 100}, {"time": 84260, "pitch": 58, "duration": 110, "velocity": 100}, {"time": 84260, "pitch": 61, "duration": 110, "velocity": 100}, {"time": 84260, "pitch": 65, "duration": 55, "velocity": 100}, {"time": 84370, "pitch": 56, "duration": 55, "velocity": 100}, {"time": 84480, "pitch": 34, "duration": 220, "velocity": 100}, {"time": 84480, "pitch": 53, "duration": 110, "velocity": 100}, {"time": 84480, "pitch": 58, "duration": 165, "velocity": 100}, {"time": 84590, "pitch": 46, "duration": 110, "velocity": 100}, {"time": 84700, "pitch": 46, "duration": 55, "velocity": 100}, {"time": 84700, "pitch": 49, "duration": 55, "velocity": 100}, {"time": 84700, "pitch": 53, "duration": 110, "velocity": 100}, {"time": 84700, "pitch": 58, "duration": 55, "velocity": 100}, {"time": 84810, "pitch": 49, "duration": 55, "velocity": 100}, {"time": 84920, "pitch": 34, "duration": 330, "velocity": 100}, {"time": 84920, "pitch": 49, "duration": 110, "velocity": 100}, {"time": 84920, "pitch": 53, "duration": 330, "velocity": 100}, {"time": 85030, "pitch": 41, "duration": 220, "velocity": 100}, {"time": 85030, "pitch": 77, "duration": 55, "velocity": 100}, {"time": 85085, "pitch": 77, "duration": 55, "velocity": 100}, {"time": 85140, "pitch": 53, "duration": 220, "velocity": 100}, {"time": 85140, "pitch": 77, "duration": 55, "velocity": 100}, {"time": 85195, "pitch": 77, "duration": 55, "velocity": 100}, {"time": 85360, "pitch": 46, "duration": 275, "velocity": 100}, {"time": 85360, "pitch": 53, "duration": 165, "velocity": 100}, {"time": 85360, "pitch": 58, "duration": 165, "velocity": 100}, {"time": 85360, "pitch": 82, "duration": 440, "velocity": 100}, {"time": 85470, "pitch": 46, "duration": 220, "velocity": 100}, {"time": 85580, "pitch": 58, "duration": 110, "velocity": 100}, {"time": 85580, "pitch": 65, "duration": 110, "velocity": 100}, {"time": 85690, "pitch": 53, "duration": 110, "velocity": 100}, {"time": 85690, "pitch": 61, "duration": 110, "velocity": 100}, {"time": 85800, "pitch": 46, "duration": 275, "velocity": 100}, {"time": 85800, "pitch": 61, "duration": 440, "velocity": 100}, {"time": 85910, "pitch": 49, "duration": 165, "velocity": 100}, {"time": 86020, "pitch": 53, "duration": 55, "velocity": 100}, {"time": 86020, "pitch": 58, "duration": 165, "velocity": 100}, {"time": 86240, "pitch": 37, "duration": 275, "velocity": 100}, {"time": 86240, "pitch": 53, "duration": 165, "velocity": 100}, {"time": 86240, "pitch": 56, "duration": 220, "velocity": 100}, {"time": 86240, "pitch": 61, "duration": 220, "velocity": 100}, {"time": 86350, "pitch": 49, "duration": 165, "velocity": 100}, {"time": 86460, "pitch": 56, "duration": 110, "velocity": 100}, {"time": 86460, "pitch": 61, "duration": 110, "velocity": 100}, {"time": 86570, "pitch": 53, "duration": 110, "velocity": 100}, {"time": 86570, "pitch": 56, "duration": 55, "velocity": 100}, {"time": 86680, "pitch": 37, "duration": 275, "velocity": 100}, {"time": 86680, "pitch": 56, "duration": 330, "velocity": 100}, {"time": 86790, "pitch": 49, "duration": 165, "velocity": 100}, {"time": 86900, "pitch": 53, "duration": 55, "velocity": 100}, {"time": 86900, "pitch": 56, "duration": 220, "velocity": 100}, {"time": 87120, "pitch": 37, "duration": 330, "velocity": 100}, {"time": 87120, "pitch": 53, "duration": 220, "velocity": 100}, {"time": 87120, "pitch": 56, "duration": 220, "velocity": 100}, {"time": 87230, "pitch": 44, "duration": 275, "velocity": 100}, {"time": 87230, "pitch": 53, "duration": 110, "velocity": 100}, {"time": 87340, "pitch": 49, "duration": 110, "velocity": 100}, {"time": 87340, "pitch": 56, "duration": 110, "velocity": 100}, {"time": 87395, "pitch": 53, "duration": 55, "velocity": 100}, {"time": 87450, "pitch": 56, "duration": 55, "velocity": 100}, {"time": 87450, "pitch": 63, "duration": 55, "velocity": 100}, {"time": 87505, "pitch": 63, "duration": 55, "velocity": 100}, {"time": 87560, "pitch": 37, "duration": 275, "velocity": 100}, {"time": 87560, "pitch": 53, "duration": 220, "velocity": 100}, {"time": 87560, "pitch": 56, "duration": 220, "velocity": 100}, {"time": 87560, "pitch": 61, "duration": 220, "velocity": 100}, {"time": 87670, "pitch": 44, "duration": 165, "velocity": 100}, {"time": 87780, "pitch": 53, "duration": 110, "velocity": 100}, {"time": 87780, "pitch": 56, "duration": 110, "velocity": 100}, {"time": 87890, "pitch": 49, "duration": 55, "velocity": 100}, {"time": 88000, "pitch": 41, "duration": 385, "velocity": 100}, {"time": 88110, "pitch": 49, "duration": 275, "velocity": 100}, {"time": 88220, "pitch": 56, "duration": 55, "velocity": 100}, {"time": 88220, "pitch": 61, "duration": 220, "velocity": 100}, {"time": 88220, "pitch": 68, "duration": 440, "velocity": 100}, {"time": 88440, "pitch": 37, "duration": 275, "velocity": 100}, {"time": 88440, "pitch": 49, "duration": 55, "velocity": 100}, {"time": 88440, "pitch": 56, "duration": 110, "velocity": 100}, {"time": 88550, "pitch": 44, "duration": 110, "velocity": 100}, {"time": 88660, "pitch": 49, "duration": 55, "velocity": 100}, {"time": 88660, "pitch": 53, "duration": 55, "velocity": 100}, {"time": 88660, "pitch": 56, "duration": 55, "velocity": 100}, {"time": 88715, "pitch": 51, "duration": 55, "velocity": 100}, {"time": 88770, "pitch": 51, "duration": 55, "velocity": 100}, {"time": 88770, "pitch": 56, "duration": 55, "velocity": 100}, {"time": 88825, "pitch": 53, "duration": 55, "velocity": 100}, {"time": 88825, "pitch": 56, "duration": 55, "velocity": 100}, {"time": 88880, "pitch": 37, "duration": 330, "velocity": 100}, {"time": 88880, "pitch": 49, "duration": 55, "velocity": 100}, {"time": 88880, "pitch": 53, "duration": 220, "velocity": 100}, {"time": 88990, "pitch": 49, "duration": 55, "velocity": 100}, {"time": 89100, "pitch": 49, "duration": 55, "velocity": 100}, {"time": 89100, "pitch": 56, "duration": 220, "velocity": 100}, {"time": 89210, "pitch": 56, "duration": 165, "velocity": 100}, {"time": 89320, "pitch": 37, "duration": 330, "velocity": 100}, {"time": 89320, "pitch": 49, "duration": 220, "velocity": 100}, {"time": 89320, "pitch": 53, "duration": 220, "velocity": 100}, {"time": 89430, "pitch": 44, "duration": 165, "velocity": 100}, {"time": 89540, "pitch": 53, "duration": 110, "velocity": 100}, {"time": 89540, "pitch": 56, "duration": 110, "velocity": 100}, {"time": 89595, "pitch": 58, "duration": 55, "velocity": 100}, {"time": 89650, "pitch": 49, "duration": 110, "velocity": 100}, {"time": 89705, "pitch": 53, "duration": 55, "velocity": 100}, {"time": 89705, "pitch": 54, "duration": 55, "velocity": 100}, {"time": 89760, "pitch": 49, "duration": 165, "velocity": 100}, {"time": 89760, "pitch": 53, "duration": 220, "velocity": 100}, {"time": 89870, "pitch": 49, "duration": 55, "velocity": 100}, {"time": 89980, "pitch": 53, "duration": 55, "velocity": 100}, {"time": 89980, "pitch": 56, "duration": 220, "velocity": 100}, {"time": 90090, "pitch": 51, "duration": 110, "velocity": 100}, {"time": 90090, "pitch": 56, "duration": 110, "velocity": 100}, {"time": 90200, "pitch": 37, "duration": 330, "velocity": 100}, {"time": 90200, "pitch": 49, "duration": 165, "velocity": 100}, {"time": 90200, "pitch": 53, "duration": 220, "velocity": 100}, {"time": 90310, "pitch": 44, "duration": 110, "velocity": 100}, {"time": 90420, "pitch": 49, "duration": 55, "velocity": 100}, {"time": 90420, "pitch": 53, "duration": 55, "velocity": 100}, {"time": 90420, "pitch": 56, "duration": 55, "velocity": 100}, {"time": 90475, "pitch": 44, "duration": 55, "velocity": 100}, {"time": 90475, "pitch": 58, "duration": 55, "velocity": 100}, {"time": 90530, "pitch": 51, "duration": 55, "velocity": 100}, {"time": 90530, "pitch": 56, "duration": 55, "velocity": 100}, {"time": 90585, "pitch": 53, "duration": 55, "velocity": 100}, {"time": 90585, "pitch": 56, "duration": 55, "velocity": 100}, {"time": 90640, "pitch": 37, "duration": 385, "velocity": 100}, {"time": 90640, "pitch": 49, "duration": 220, "velocity": 100}, {"time": 90640, "pitch": 53, "duration": 220, "velocity": 100}, {"time": 90860, "pitch": 49, "duration": 55, "velocity": 100}, {"time": 90860, "pitch": 53, "duration": 110, "velocity": 100}, {"time": 90860, "pitch": 56, "duration": 110, "velocity": 100}, {"time": 90970, "pitch": 49, "duration": 110, "velocity": 100}, {"time": 90970, "pitch": 56, "duration": 110, "velocity": 100}, {"time": 91080, "pitch": 37, "duration": 385, "velocity": 100}, {"time": 91080, "pitch": 49, "duration": 220, "velocity": 100}, {"time": 91080, "pitch": 53, "duration": 220, "velocity": 100}, {"time": 91190, "pitch": 44, "duration": 275, "velocity": 100}, {"time": 91300, "pitch": 49, "duration": 55, "velocity": 100}, {"time": 91300, "pitch": 53, "duration": 110, "velocity": 100}, {"time": 91300, "pitch": 56, "duration": 110, "velocity": 100}, {"time": 91300, "pitch": 65, "duration": 55, "velocity": 100}, {"time": 91355, "pitch": 66, "duration": 55, "velocity": 100}, {"time": 91410, "pitch": 49, "duration": 55, "velocity": 100}, {"time": 91465, "pitch": 68, "duration": 55, "velocity": 100}, {"time": 91520, "pitch": 49, "duration": 385, "velocity": 100}, {"time": 91520, "pitch": 56, "duration": 55, "velocity": 100}, {"time": 91520, "pitch": 61, "duration": 110, "velocity": 100}, {"time": 91520, "pitch": 73, "duration": 55, "velocity": 100}, {"time": 91630, "pitch": 56, "duration": 55, "velocity": 100}, {"time": 91685, "pitch": 77, "duration": 165, "velocity": 100}, {"time": 91740, "pitch": 56, "duration": 165, "velocity": 100}, {"time": 91740, "pitch": 61, "duration": 110, "velocity": 100}, {"time": 91795, "pitch": 73, "duration": 165, "velocity": 100}, {"time": 91850, "pitch": 63, "duration": 110, "velocity": 100}, {"time": 91960, "pitch": 49, "duration": 275, "velocity": 100}, {"time": 91960, "pitch": 56, "duration": 110, "velocity": 100}, {"time": 91960, "pitch": 61, "duration": 110, "velocity": 100}, {"time": 92070, "pitch": 53, "duration": 110, "velocity": 100}, {"time": 92180, "pitch": 56, "duration": 55, "velocity": 100}, {"time": 92180, "pitch": 61, "duration": 55, "velocity": 100}, {"time": 92180, "pitch": 65, "duration": 110, "velocity": 100}, {"time": 92180, "pitch": 68, "duration": 110, "velocity": 100}, {"time": 92235, "pitch": 49, "duration": 55, "velocity": 100}, {"time": 92290, "pitch": 56, "duration": 55, "velocity": 100}, {"time": 92290, "pitch": 63, "duration": 110, "velocity": 100}, {"time": 92400, "pitch": 49, "duration": 275, "velocity": 100}, {"time": 92400, "pitch": 56, "duration": 55, "velocity": 100}, {"time": 92400, "pitch": 61, "duration": 110, "velocity": 100}, {"time": 92400, "pitch": 65, "duration": 165, "velocity": 100}, {"time": 92510, "pitch": 56, "duration": 55, "velocity": 100}, {"time": 92620, "pitch": 56, "duration": 55, "velocity": 100}, {"time": 92620, "pitch": 65, "duration": 55, "velocity": 100}, {"time": 92675, "pitch": 66, "duration": 55, "velocity": 100}, {"time": 92730, "pitch": 59, "duration": 55, "velocity": 100}, {"time": 92730, "pitch": 63, "duration": 55, "velocity": 100}, {"time": 92785, "pitch": 59, "duration": 55, "velocity": 100}, {"time": 92840, "pitch": 41, "duration": 275, "velocity": 100}, {"time": 92840, "pitch": 56, "duration": 165, "velocity": 100}, {"time": 92840, "pitch": 59, "duration": 165, "velocity": 100}, {"time": 92950, "pitch": 49, "duration": 165, "velocity": 100}, {"time": 93060, "pitch": 59, "duration": 110, "velocity": 100}, {"time": 93060, "pitch": 65, "duration": 220, "velocity": 100}, {"time": 93060, "pitch": 68, "duration": 220, "velocity": 100}, {"time": 93170, "pitch": 53, "duration": 55, "velocity": 100}, {"time": 93225, "pitch": 56, "duration": 55, "velocity": 100}, {"time": 93280, "pitch": 49, "duration": 275, "velocity": 100}, {"time": 93280, "pitch": 58, "duration": 165, "velocity": 100}, {"time": 93280, "pitch": 61, "duration": 220, "velocity": 100}, {"time": 93280, "pitch": 65, "duration": 440, "velocity": 100}, {"time": 93390, "pitch": 58, "duration": 110, "velocity": 100}, {"time": 93500, "pitch": 61, "duration": 55, "velocity": 100}, {"time": 93500, "pitch": 63, "duration": 55, "velocity": 100}, {"time": 93610, "pitch": 55, "duration": 55, "velocity": 100}, {"time": 93610, "pitch": 61, "duration": 55, "velocity": 100}, {"time": 93610, "pitch": 63, "duration": 110, "velocity": 100}, {"time": 93720, "pitch": 43, "duration": 330, "velocity": 100}, {"time": 93720, "pitch": 55, "duration": 110, "velocity": 100}, {"time": 93720, "pitch": 61, "duration": 110, "velocity": 100}, {"time": 93720, "pitch": 67, "duration": 220, "velocity": 100}, {"time": 93830, "pitch": 49, "duration": 110, "velocity": 100}, {"time": 93940, "pitch": 55, "duration": 55, "velocity": 100}, {"time": 93940, "pitch": 61, "duration": 55, "velocity": 100}, {"time": 93940, "pitch": 63, "duration": 55, "velocity": 100}, {"time": 93995, "pitch": 55, "duration": 55, "velocity": 100}, {"time": 93995, "pitch": 58, "duration": 55, "velocity": 100}, {"time": 94050, "pitch": 58, "duration": 55, "velocity": 100}, {"time": 94050, "pitch": 63, "duration": 55, "velocity": 100}, {"time": 94105, "pitch": 61, "duration": 55, "velocity": 100}, {"time": 94105, "pitch": 67, "duration": 55, "velocity": 100}, {"time": 94160, "pitch": 43, "duration": 330, "velocity": 100}, {"time": 94160, "pitch": 55, "duration": 55, "velocity": 100}, {"time": 94160, "pitch": 58, "duration": 165, "velocity": 100}, {"time": 94160, "pitch": 61, "duration": 330, "velocity": 100}, {"time": 94380, "pitch": 58, "duration": 55, "velocity": 100}, {"time": 94380, "pitch": 61, "duration": 220, "velocity": 100}, {"time": 94380, "pitch": 65, "duration": 110, "velocity": 100}, {"time": 94490, "pitch": 55, "duration": 110, "velocity": 100}, {"time": 94600, "pitch": 44, "duration": 385, "velocity": 100}, {"time": 94600, "pitch": 56, "duration": 165, "velocity": 100}, {"time": 94600, "pitch": 60, "duration": 165, "velocity": 100}, {"time": 94600, "pitch": 72, "duration": 110, "velocity": 100}, {"time": 94710, "pitch": 51, "duration": 275, "velocity": 100}, {"time": 94765, "pitch": 75, "duration": 55, "velocity": 100}, {"time": 94820, "pitch": 56, "duration": 55, "velocity": 100}, {"time": 94820, "pitch": 60, "duration": 55, "velocity": 100}, {"time": 94820, "pitch": 63, "duration": 110, "velocity": 100}, {"time": 94875, "pitch": 72, "duration": 165, "velocity": 100}, {"time": 94930, "pitch": 56, "duration": 55, "velocity": 100}, {"time": 95040, "pitch": 43, "duration": 110, "velocity": 100}, {"time": 95040, "pitch": 55, "duration": 55, "velocity": 100}, {"time": 95040, "pitch": 59, "duration": 110, "velocity": 100}, {"time": 95040, "pitch": 62, "duration": 165, "velocity": 100}, {"time": 95095, "pitch": 50, "duration": 55, "velocity": 100}, {"time": 95150, "pitch": 55, "duration": 55, "velocity": 100}, {"time": 95205, "pitch": 59, "duration": 55, "velocity": 100}, {"time": 95260, "pitch": 43, "duration": 220, "velocity": 100}, {"time": 95260, "pitch": 55, "duration": 55, "velocity": 100}, {"time": 95260, "pitch": 62, "duration": 165, "velocity": 100}, {"time": 95260, "pitch": 67, "duration": 220, "velocity": 100}, {"time": 95315, "pitch": 50, "duration": 165, "velocity": 100}, {"time": 95370, "pitch": 59, "duration": 110, "velocity": 100}, {"time": 95425, "pitch": 62, "duration": 55, "velocity": 100}, {"time": 95480, "pitch": 43, "duration": 275, "velocity": 100}, {"time": 95480, "pitch": 55, "duration": 110, "velocity": 100}, {"time": 95480, "pitch": 59, "duration": 110, "velocity": 100}, {"time": 95480, "pitch": 62, "duration": 275, "velocity": 100}, {"time": 95480, "pitch": 67, "duration": 275, "velocity": 100}, {"time": 95590, "pitch": 47, "duration": 110, "velocity": 100}, {"time": 95645, "pitch": 50, "duration": 55, "velocity": 100}, {"time": 95700, "pitch": 50, "duration": 55, "velocity": 100}, {"time": 95700, "pitch": 55, "duration": 55, "velocity": 100}, {"time": 95700, "pitch": 59, "duration": 55, "velocity": 100}, {"time": 95755, "pitch": 43, "duration": 55, "velocity": 100}, {"time": 95810, "pitch": 50, "duration": 55, "velocity": 100}, {"time": 95920, "pitch": 43, "duration": 275, "velocity": 100}, {"time": 95920, "pitch": 50, "duration": 55, "velocity": 100}, {"time": 95920, "pitch": 55, "duration": 165, "velocity": 100}, {"time": 95920, "pitch": 59, "duration": 165, "velocity": 100}, {"time": 95920, "pitch": 71, "duration": 440, "velocity": 100}, {"time": 96030, "pitch": 50, "duration": 165, "velocity": 100}, {"time": 96140, "pitch": 55, "duration": 55, "velocity": 100}, {"time": 96140, "pitch": 59, "duration": 110, "velocity": 100}, {"time": 96140, "pitch": 62, "duration": 110, "velocity": 100}, {"time": 96250, "pitch": 50, "duration": 55, "velocity": 100}, {"time": 96305, "pitch": 55, "duration": 55, "velocity": 100}, {"time": 96360, "pitch": 36, "duration": 275, "velocity": 100}, {"time": 96360, "pitch": 55, "duration": 165, "velocity": 100}, {"time": 96360, "pitch": 60, "duration": 220, "velocity": 100}, {"time": 96360, "pitch": 63, "duration": 275, "velocity": 100}, {"time": 96360, "pitch": 67, "duration": 440, "velocity": 100}, {"time": 96470, "pitch": 43, "duration": 110, "velocity": 100}, {"time": 96580, "pitch": 56, "duration": 55, "velocity": 100}, {"time": 96580, "pitch": 60, "duration": 55, "velocity": 100}, {"time": 96580, "pitch": 63, "duration": 165, "velocity": 100}, {"time": 96635, "pitch": 44, "duration": 55, "velocity": 100}, {"time": 96690, "pitch": 56, "duration": 55, "velocity": 100}, {"time": 96800, "pitch": 44, "duration": 330, "velocity": 100}, {"time": 96800, "pitch": 51, "duration": 55, "velocity": 100}, {"time": 96800, "pitch": 56, "duration": 165, "velocity": 100}, {"time": 96800, "pitch": 60, "duration": 110, "velocity": 100}, {"time": 96800, "pitch": 63, "duration": 110, "velocity": 100}, {"time": 96800, "pitch": 72, "duration": 440, "velocity": 100}, {"time": 96910, "pitch": 51, "duration": 110, "velocity": 100}, {"time": 97020, "pitch": 51, "duration": 55, "velocity": 100}, {"time": 97020, "pitch": 56, "duration": 110, "velocity": 100}, {"time": 97020, "pitch": 60, "duration": 110, "velocity": 100}, {"time": 97130, "pitch": 51, "duration": 55, "velocity": 100}, {"time": 97240, "pitch": 44, "duration": 330, "velocity": 100}, {"time": 97240, "pitch": 51, "duration": 110, "velocity": 100}, {"time": 97240, "pitch": 60, "duration": 110, "velocity": 100}, {"time": 97240, "pitch": 63, "duration": 275, "velocity": 100}, {"time": 97240, "pitch": 68, "duration": 385, "velocity": 100}, {"time": 97350, "pitch": 48, "duration": 110, "velocity": 100}, {"time": 97460, "pitch": 51, "duration": 55, "velocity": 100}, {"time": 97460, "pitch": 56, "duration": 55, "velocity": 100}, {"time": 97460, "pitch": 60, "duration": 55, "velocity": 100}, {"time": 97515, "pitch": 51, "duration": 55, "velocity": 100}, {"time": 97570, "pitch": 51, "duration": 55, "velocity": 100}, {"time": 97680, "pitch": 44, "duration": 275, "velocity": 100}, {"time": 97680, "pitch": 56, "duration": 110, "velocity": 100}, {"time": 97680, "pitch": 60, "duration": 110, "velocity": 100}, {"time": 97680, "pitch": 63, "duration": 165, "velocity": 100}, {"time": 97680, "pitch": 68, "duration": 220, "velocity": 100}, {"time": 97790, "pitch": 51, "duration": 110, "velocity": 100}, {"time": 97900, "pitch": 56, "duration": 55, "velocity": 100}, {"time": 97900, "pitch": 60, "duration": 110, "velocity": 100}, {"time": 97900, "pitch": 63, "duration": 110, "velocity": 100}, {"time": 97900, "pitch": 68, "duration": 220, "velocity": 100}, {"time": 97955, "pitch": 51, "duration": 55, "velocity": 100}, {"time": 98010, "pitch": 44, "duration": 55, "velocity": 100}, {"time": 98120, "pitch": 32, "duration": 275, "velocity": 100}, {"time": 98120, "pitch": 51, "duration": 55, "velocity": 100}, {"time": 98120, "pitch": 56, "duration": 110, "velocity": 100}, {"time": 98120, "pitch": 60, "duration": 110, "velocity": 100}, {"time": 98120, "pitch": 68, "duration": 330, "velocity": 100}, {"time": 98175, "pitch": 39, "duration": 220, "velocity": 100}, {"time": 98230, "pitch": 51, "duration": 55, "velocity": 100}, {"time": 98285, "pitch": 56, "duration": 55, "velocity": 100}, {"time": 98340, "pitch": 53, "duration": 110, "velocity": 100}, {"time": 98340, "pitch": 56, "duration": 110, "velocity": 100}, {"time": 98340, "pitch": 61, "duration": 110, "velocity": 100}, {"time": 98450, "pitch": 37, "duration": 55, "velocity": 100}, {"time": 98450, "pitch": 68, "duration": 55, "velocity": 100}, {"time": 98505, "pitch": 68, "duration": 55, "velocity": 100}, {"time": 98560, "pitch": 37, "duration": 165, "velocity": 100}, {"time": 98560, "pitch": 61, "duration": 55, "velocity": 100}, {"time": 98560, "pitch": 65, "duration": 110, "velocity": 100}, {"time": 98560, "pitch": 68, "duration": 110, "velocity": 100}, {"time": 98560, "pitch": 73, "duration": 165, "velocity": 100}, {"time": 98560, "pitch": 77, "duration": 220, "velocity": 100}, {"time": 98615, "pitch": 41, "duration": 110, "velocity": 100}, {"time": 98670, "pitch": 61, "duration": 55, "velocity": 100}, {"time": 98725, "pitch": 65, "duration": 55, "velocity": 100}, {"time": 98780, "pitch": 34, "duration": 165, "velocity": 100}, {"time": 98780, "pitch": 65, "duration": 110, "velocity": 100}, {"time": 98780, "pitch": 70, "duration": 110, "velocity": 100}, {"time": 98780, "pitch": 73, "duration": 220, "velocity": 100}, {"time": 98780, "pitch": 80, "duration": 220, "velocity": 100}, {"time": 98835, "pitch": 46, "duration": 110, "velocity": 100}, {"time": 98890, "pitch": 65, "duration": 55, "velocity": 100}, {"time": 98945, "pitch": 65, "duration": 55, "velocity": 100}, {"time": 99000, "pitch": 44, "duration": 275, "velocity": 100}, {"time": 99000, "pitch": 56, "duration": 55, "velocity": 100}, {"time": 99000, "pitch": 61, "duration": 55, "velocity": 100}, {"time": 99000, "pitch": 77, "duration": 385, "velocity": 100}, {"time": 99000, "pitch": 82, "duration": 440, "velocity": 100}, {"time": 99055, "pitch": 49, "duration": 220, "velocity": 100}, {"time": 99110, "pitch": 58, "duration": 55, "velocity": 100}, {"time": 99165, "pitch": 61, "duration": 55, "velocity": 100}, {"time": 99220, "pitch": 58, "duration": 55, "velocity": 100}, {"time": 99220, "pitch": 65, "duration": 55, "velocity": 100}, {"time": 99275, "pitch": 46, "duration": 55, "velocity": 100}, {"time": 99330, "pitch": 61, "duration": 55, "velocity": 100}, {"time": 99330, "pitch": 85, "duration": 110, "velocity": 100}, {"time": 99385, "pitch": 58, "duration": 55, "velocity": 100}, {"time": 99440, "pitch": 46, "duration": 275, "velocity": 100}, {"time": 99440, "pitch": 58, "duration": 55, "velocity": 100}, {"time": 99440, "pitch": 61, "duration": 55, "velocity": 100}, {"time": 99440, "pitch": 82, "duration": 440, "velocity": 100}, {"time": 99440, "pitch": 85, "duration": 440, "velocity": 100}, {"time": 99550, "pitch": 65, "duration": 55, "velocity": 100}, {"time": 99605, "pitch": 61, "duration": 55, "velocity": 100}, {"time": 99660, "pitch": 61, "duration": 55, "velocity": 100}, {"time": 99660, "pitch": 68, "duration": 55, "velocity": 100}, {"time": 99715, "pitch": 53, "duration": 55, "velocity": 100}, {"time": 99770, "pitch": 65, "duration": 55, "velocity": 100}, {"time": 99825, "pitch": 61, "duration": 55, "velocity": 100}, {"time": 99880, "pitch": 46, "duration": 275, "velocity": 100}, {"time": 99880, "pitch": 61, "duration": 55, "velocity": 100}, {"time": 99880, "pitch": 65, "duration": 55, "velocity": 100}, {"time": 99880, "pitch": 85, "duration": 110, "velocity": 100}, {"time": 99935, "pitch": 53, "duration": 165, "velocity": 100}, {"time": 99990, "pitch": 77, "duration": 55, "velocity": 100}, {"time": 99990, "pitch": 84, "duration": 110, "velocity": 100}, {"time": 100045, "pitch": 61, "duration": 55, "velocity": 100}, {"time": 100100, "pitch": 58, "duration": 55, "velocity": 100}, {"time": 100100, "pitch": 67, "duration": 110, "velocity": 100}, {"time": 100100, "pitch": 82, "duration": 110, "velocity": 100}, {"time": 100155, "pitch": 46, "duration": 55, "velocity": 100}, {"time": 100210, "pitch": 63, "duration": 55, "velocity": 100}, {"time": 100210, "pitch": 80, "duration": 110, "velocity": 100}, {"time": 100320, "pitch": 51, "duration": 385, "velocity": 100}, {"time": 100320, "pitch": 58, "duration": 55, "velocity": 100}, {"time": 100320, "pitch": 63, "duration": 110, "velocity": 100}, {"time": 100320, "pitch": 75, "duration": 330, "velocity": 100}, {"time": 100375, "pitch": 55, "duration": 55, "velocity": 100}, {"time": 100430, "pitch": 61, "duration": 55, "velocity": 100}, {"time": 100485, "pitch": 58, "duration": 55, "velocity": 100}, {"time": 100540, "pitch": 61, "duration": 55, "velocity": 100}, {"time": 100540, "pitch": 67, "duration": 110, "velocity": 100}, {"time": 100595, "pitch": 55, "duration": 55, "velocity": 100}, {"time": 100650, "pitch": 63, "duration": 55, "velocity": 100}, {"time": 100650, "pitch": 84, "duration": 55, "velocity": 100}, {"time": 100705, "pitch": 58, "duration": 55, "velocity": 100}, {"time": 100705, "pitch": 82, "duration": 55, "velocity": 100}, {"time": 100760, "pitch": 51, "duration": 385, "velocity": 100}, {"time": 100760, "pitch": 58, "duration": 55, "velocity": 100}, {"time": 100760, "pitch": 61, "duration": 110, "velocity": 100}, {"time": 100760, "pitch": 85, "duration": 330, "velocity": 100}, {"time": 100815, "pitch": 55, "duration": 165, "velocity": 100}, {"time": 100870, "pitch": 58, "duration": 110, "velocity": 100}, {"time": 100980, "pitch": 63, "duration": 110, "velocity": 100}, {"time": 101035, "pitch": 51, "duration": 110, "velocity": 100}, {"time": 101090, "pitch": 58, "duration": 55, "velocity": 100}, {"time": 101090, "pitch": 77, "duration": 55, "velocity": 100}, {"time": 101145, "pitch": 61, "duration": 55, "velocity": 100}, {"time": 101145, "pitch": 80, "duration": 55, "velocity": 100}, {"time": 101200, "pitch": 51, "duration": 385, "velocity": 100}, {"time": 101200, "pitch": 58, "duration": 55, "velocity": 100}, {"time": 101200, "pitch": 63, "duration": 110, "velocity": 100}, {"time": 101200, "pitch": 82, "duration": 440, "velocity": 100}, {"time": 101310, "pitch": 67, "duration": 110, "velocity": 100}, {"time": 101365, "pitch": 58, "duration": 55, "velocity": 100}, {"time": 101420, "pitch": 58, "duration": 110, "velocity": 100}, {"time": 101475, "pitch": 58, "duration": 55, "velocity": 100}, {"time": 101530, "pitch": 63, "duration": 55, "velocity": 100}, {"time": 101585, "pitch": 58, "duration": 55, "velocity": 100}, {"time": 101640, "pitch": 48, "duration": 330, "velocity": 100}, {"time": 101640, "pitch": 56, "duration": 55, "velocity": 100}, {"time": 101640, "pitch": 60, "duration": 55, "velocity": 100}, {"time": 101640, "pitch": 84, "duration": 220, "velocity": 100}, {"time": 101695, "pitch": 56, "duration": 55, "velocity": 100}, {"time": 101750, "pitch": 60, "duration": 55, "velocity": 100}, {"time": 101805, "pitch": 56, "duration": 55, "velocity": 100}, {"time": 101860, "pitch": 56, "duration": 55, "velocity": 100}, {"time": 101860, "pitch": 63, "duration": 110, "velocity": 100}, {"time": 101860, "pitch": 80, "duration": 110, "velocity": 100}, {"time": 101915, "pitch": 56, "duration": 55, "velocity": 100}, {"time": 101970, "pitch": 63, "duration": 55, "velocity": 100}, {"time": 101970, "pitch": 77, "duration": 110, "velocity": 100}, {"time": 102025, "pitch": 56, "duration": 55, "velocity": 100}]}]}