{"metadata": {"schema_version": "0.1", "title": "None", "source_filename": "20211210_092830.mid", "source_format": "midi"}, "resolution": 220, "tempos": [{"time": 0, "qpm": 120.0}], "time_signatures": [{"time": 0, "numerator": 4, "denominator": 4}], "tracks": [{"program": 0, "is_drum": false, "name": "Piano", "notes": [{"time": 0, "pitch": 57, "duration": 220, "velocity": 100}, {"time": 220, "pitch": 54, "duration": 220, "velocity": 100}, {"time": 440, "pitch": 54, "duration": 220, "velocity": 100}, {"time": 880, "pitch": 55, "duration": 220, "velocity": 100}, {"time": 1100, "pitch": 52, "duration": 220, "velocity": 100}, {"time": 1320, "pitch": 52, "duration": 220, "velocity": 100}, {"time": 1760, "pitch": 50, "duration": 220, "velocity": 100}, {"time": 1980, "pitch": 52, "duration": 220, "velocity": 100}, {"time": 2200, "pitch": 54, "duration": 220, "velocity": 100}, {"time": 2420, "pitch": 55, "duration": 220, "velocity": 100}, {"time": 2640, "pitch": 57, "duration": 220, "velocity": 100}, {"time": 2860, "pitch": 57, "duration": 220, "velocity": 100}, {"time": 3080, "pitch": 57, "duration": 220, "velocity": 100}, {"time": 3520, "pitch": 57, "duration": 220, "velocity": 100}, {"time": 3740, "pitch": 54, "duration": 220, "velocity": 100}, {"time": 3960, "pitch": 54, "duration": 220, "velocity": 100}, {"time": 4180, "pitch": 54, "duration": 220, "velocity": 100}, {"time": 4400, "pitch": 55, "duration": 220, "velocity": 100}, {"time": 4620, "pitch": 52, "duration": 220, "velocity": 100}, {"time": 4840, "pitch": 52, "duration": 220, "velocity": 100}, {"time": 5060, "pitch": 52, "duration": 220, "velocity": 100}, {"time": 5280, "pitch": 50, "duration": 220, "velocity": 100}, {"time": 5500, "pitch": 54, "duration": 220, "velocity": 100}, {"time": 5720, "pitch": 57, "duration": 220, "velocity": 100}, {"time": 5940, "pitch": 57, "duration": 220, "velocity": 100}, {"time": 6160, "pitch": 50, "duration": 880, "velocity": 100}, {"time": 0, "pitch": 49, "duration": 220, "velocity": 100}, {"time": 0, "pitch": 61, "duration": 110, "velocity": 100}, {"time": 0, "pitch": 69, "duration": 110, "velocity": 100}, {"time": 110, "pitch": 52, "duration": 110, "velocity": 100}, {"time": 110, "pitch": 88, "duration": 55, "velocity": 100}, {"time": 165, "pitch": 88, "duration": 55, "velocity": 100}, {"time": 220, "pitch": 57, "duration": 55, "velocity": 100}, {"time": 220, "pitch": 61, "duration": 55, "velocity": 100}, {"time": 220, "pitch": 64, "duration": 110, "velocity": 100}, {"time": 220, "pitch": 85, "duration": 165, "velocity": 100}, {"time": 275, "pitch": 90, "duration": 55, "velocity": 100}, {"time": 330, "pitch": 61, "duration": 55, "velocity": 100}, {"time": 440, "pitch": 45, "duration": 330, "velocity": 100}, {"time": 440, "pitch": 57, "duration": 220, "velocity": 100}, {"time": 440, "pitch": 61, "duration": 220, "velocity": 100}, {"time": 440, "pitch": 88, "duration": 440, "velocity": 100}, {"time": 550, "pitch": 52, "duration": 220, "velocity": 100}, {"time": 660, "pitch": 64, "duration": 110, "velocity": 100}, {"time": 880, "pitch": 49, "duration": 330, "velocity": 100}, {"time": 880, "pitch": 61, "duration": 220, "velocity": 100}, {"time": 880, "pitch": 64, "duration": 220, "velocity": 100}, {"time": 990, "pitch": 57, "duration": 220, "velocity": 100}, {"time": 1100, "pitch": 69, "duration": 110, "velocity": 100}, {"time": 1210, "pitch": 64, "duration": 110, "velocity": 100}, {"time": 1320, "pitch": 52, "duration": 275, "velocity": 100}, {"time": 1320, "pitch": 69, "duration": 220, "velocity": 100}, {"time": 1430, "pitch": 57, "duration": 165, "velocity": 100}, {"time": 1540, "pitch": 61, "duration": 55, "velocity": 100}, {"time": 1540, "pitch": 69, "duration": 110, "velocity": 100}, {"time": 1760, "pitch": 49, "duration": 330, "velocity": 100}, {"time": 1760, "pitch": 61, "duration": 220, "velocity": 100}, {"time": 1760, "pitch": 64, "duration": 165, "velocity": 100}, {"time": 1870, "pitch": 57, "duration": 165, "velocity": 100}, {"time": 1980, "pitch": 69, "duration": 110, "velocity": 100}, {"time": 2090, "pitch": 64, "duration": 55, "velocity": 100}, {"time": 2200, "pitch": 49, "duration": 275, "velocity": 100}, {"time": 2200, "pitch": 69, "duration": 165, "velocity": 100}, {"time": 2310, "pitch": 57, "duration": 165, "velocity": 100}, {"time": 2420, "pitch": 64, "duration": 55, "velocity": 100}, {"time": 2420, "pitch": 69, "duration": 55, "velocity": 100}, {"time": 2640, "pitch": 45, "duration": 330, "velocity": 100}, {"time": 2640, "pitch": 61, "duration": 220, "velocity": 100}, {"time": 2750, "pitch": 52, "duration": 220, "velocity": 100}, {"time": 2860, "pitch": 57, "duration": 110, "velocity": 100}, {"time": 2915, "pitch": 61, "duration": 55, "velocity": 100}, {"time": 2970, "pitch": 64, "duration": 55, "velocity": 100}, {"time": 3080, "pitch": 45, "duration": 330, "velocity": 100}, {"time": 3080, "pitch": 61, "duration": 55, "velocity": 100}, {"time": 3080, "pitch": 64, "duration": 110, "velocity": 100}, {"time": 3080, "pitch": 66, "duration": 110, "velocity": 100}, {"time": 3190, "pitch": 52, "duration": 165, "velocity": 100}, {"time": 3300, "pitch": 64, "duration": 110, "velocity": 100}, {"time": 3300, "pitch": 66, "duration": 110, "velocity": 100}, {"time": 3410, "pitch": 61, "duration": 55, "velocity": 100}, {"time": 3520, "pitch": 45, "duration": 220, "velocity": 100}, {"time": 3520, "pitch": 61, "duration": 110, "velocity": 100}, {"time": 3520, "pitch": 69, "duration": 110, "velocity": 100}, {"time": 3630, "pitch": 57, "duration": 110, "velocity": 100}, {"time": 3740, "pitch": 52, "duration": 55, "velocity": 100}, {"time": 3740, "pitch": 61, "duration": 55, "velocity": 100}, {"time": 3740, "pitch": 64, "duration": 110, "velocity": 100}, {"time": 3850, "pitch": 59, "duration": 55, "velocity": 100}, {"time": 3960, "pitch": 45, "duration": 330, "velocity": 100}, {"time": 3960, "pitch": 57, "duration": 220, "velocity": 100}, {"time": 3960, "pitch": 64, "duration": 330, "velocity": 100}, {"time": 4070, "pitch": 52, "duration": 220, "velocity": 100}, {"time": 4070, "pitch": 88, "duration": 55, "velocity": 100}, {"time": 4125, "pitch": 88, "duration": 55, "velocity": 100}, {"time": 4180, "pitch": 64, "duration": 220, "velocity": 100}, {"time": 4180, "pitch": 85, "duration": 55, "velocity": 100}, {"time": 4235, "pitch": 88, "duration": 55, "velocity": 100}, {"time": 4290, "pitch": 93, "duration": 55, "velocity": 100}, {"time": 4345, "pitch": 90, "duration": 55, "velocity": 100}, {"time": 4400, "pitch": 45, "duration": 330, "velocity": 100}, {"time": 4400, "pitch": 61, "duration": 110, "velocity": 100}, {"time": 4400, "pitch": 64, "duration": 220, "velocity": 100}, {"time": 4400, "pitch": 93, "duration": 220, "velocity": 100}, {"time": 4510, "pitch": 57, "duration": 220, "velocity": 100}, {"time": 4620, "pitch": 69, "duration": 110, "velocity": 100}, {"time": 4620, "pitch": 76, "duration": 110, "velocity": 100}, {"time": 4730, "pitch": 64, "duration": 110, "velocity": 100}, {"time": 4730, "pitch": 71, "duration": 110, "velocity": 100}, {"time": 4840, "pitch": 52, "duration": 275, "velocity": 100}, {"time": 4840, "pitch": 69, "duration": 330, "velocity": 100}, {"time": 4950, "pitch": 57, "duration": 165, "velocity": 100}, {"time": 5060, "pitch": 64, "duration": 110, "velocity": 100}, {"time": 5060, "pitch": 69, "duration": 220, "velocity": 100}, {"time": 5280, "pitch": 49, "duration": 275, "velocity": 100}, {"time": 5280, "pitch": 61, "duration": 220, "velocity": 100}, {"time": 5280, "pitch": 64, "duration": 220, "velocity": 100}, {"time": 5280, "pitch": 69, "duration": 220, "velocity": 100}, {"time": 5390, "pitch": 57, "duration": 165, "velocity": 100}, {"time": 5500, "pitch": 64, "duration": 110, "velocity": 100}, {"time": 5500, "pitch": 69, "duration": 220, "velocity": 100}, {"time": 5610, "pitch": 61, "duration": 110, "velocity": 100}, {"time": 5610, "pitch": 64, "duration": 55, "velocity": 100}, {"time": 5720, "pitch": 52, "duration": 275, "velocity": 100}, {"time": 5720, "pitch": 69, "duration": 330, "velocity": 100}, {"time": 5830, "pitch": 57, "duration": 165, "velocity": 100}, {"time": 5940, "pitch": 64, "duration": 55, "velocity": 100}, {"time": 5940, "pitch": 69, "duration": 220, "velocity": 100}, {"time": 6160, "pitch": 45, "duration": 385, "velocity": 100}, {"time": 6160, "pitch": 61, "duration": 220, "velocity": 100}, {"time": 6160, "pitch": 64, "duration": 165, "velocity": 100}, {"time": 6270, "pitch": 52, "duration": 275, "velocity": 100}, {"time": 6270, "pitch": 64, "duration": 110, "velocity": 100}, {"time": 6380, "pitch": 57, "duration": 110, "velocity": 100}, {"time": 6380, "pitch": 66, "duration": 55, "velocity": 100}, {"time": 6435, "pitch": 64, "duration": 55, "velocity": 100}, {"time": 6490, "pitch": 64, "duration": 55, "velocity": 100}, {"time": 6490, "pitch": 73, "duration": 55, "velocity": 100}, {"time": 6545, "pitch": 71, "duration": 55, "velocity": 100}, {"time": 6600, "pitch": 45, "duration": 275, "velocity": 100}, {"time": 6600, "pitch": 61, "duration": 165, "velocity": 100}, {"time": 6600, "pitch": 64, "duration": 165, "velocity": 100}, {"time": 6600, "pitch": 69, "duration": 220, "velocity": 100}, {"time": 6600, "pitch": 71, "duration": 220, "velocity": 100}, {"time": 6710, "pitch": 52, "duration": 165, "velocity": 100}, {"time": 6820, "pitch": 61, "duration": 55, "velocity": 100}, {"time": 6820, "pitch": 69, "duration": 220, "velocity": 100}, {"time": 6930, "pitch": 61, "duration": 55, "velocity": 100}]}]}