{"metadata": {"schema_version": "0.1", "title": "None", "source_filename": "20211210_093854.mid", "source_format": "midi"}, "resolution": 220, "tempos": [{"time": 0, "qpm": 120.0}], "time_signatures": [{"time": 0, "numerator": 4, "denominator": 4}], "tracks": [{"program": 0, "is_drum": false, "name": "Piano", "notes": [{"time": 0, "pitch": 58, "duration": 220, "velocity": 100}, {"time": 220, "pitch": 58, "duration": 220, "velocity": 100}, {"time": 440, "pitch": 58, "duration": 220, "velocity": 100}, {"time": 660, "pitch": 58, "duration": 220, "velocity": 100}, {"time": 880, "pitch": 56, "duration": 220, "velocity": 100}, {"time": 1100, "pitch": 54, "duration": 220, "velocity": 100}, {"time": 1320, "pitch": 54, "duration": 220, "velocity": 100}, {"time": 1540, "pitch": 53, "duration": 220, "velocity": 100}, {"time": 1760, "pitch": 51, "duration": 220, "velocity": 100}, {"time": 1980, "pitch": 51, "duration": 220, "velocity": 100}, {"time": 2200, "pitch": 54, "duration": 220, "velocity": 100}, {"time": 2420, "pitch": 58, "duration": 220, "velocity": 100}, {"time": 2640, "pitch": 63, "duration": 220, "velocity": 100}, {"time": 2860, "pitch": 63, "duration": 220, "velocity": 100}, {"time": 3080, "pitch": 63, "duration": 220, "velocity": 100}, {"time": 3300, "pitch": 63, "duration": 220, "velocity": 100}, {"time": 3520, "pitch": 61, "duration": 220, "velocity": 100}, {"time": 3740, "pitch": 59, "duration": 220, "velocity": 100}, {"time": 3960, "pitch": 59, "duration": 220, "velocity": 100}, {"time": 4180, "pitch": 58, "duration": 220, "velocity": 100}, {"time": 4400, "pitch": 56, "duration": 220, "velocity": 100}, {"time": 4620, "pitch": 56, "duration": 220, "velocity": 100}, {"time": 4840, "pitch": 58, "duration": 220, "velocity": 100}, {"time": 5060, "pitch": 59, "duration": 220, "velocity": 100}, {"time": 5280, "pitch": 58, "duration": 220, "velocity": 100}, {"time": 5500, "pitch": 59, "duration": 220, "velocity": 100}, {"time": 5720, "pitch": 58, "duration": 220, "velocity": 100}, {"time": 5940, "pitch": 62, "duration": 220, "velocity": 100}, {"time": 6160, "pitch": 59, "duration": 220, "velocity": 100}, {"time": 6380, "pitch": 58, "duration": 220, "velocity": 100}, {"time": 6600, "pitch": 58, "duration": 220, "velocity": 100}, {"time": 6820, "pitch": 56, "duration": 220, "velocity": 100}, {"time": 7040, "pitch": 54, "duration": 220, "velocity": 100}, {"time": 7260, "pitch": 54, "duration": 220, "velocity": 100}, {"time": 7480, "pitch": 53, "duration": 220, "velocity": 100}, {"time": 7700, "pitch": 51, "duration": 220, "velocity": 100}, {"time": 7920, "pitch": 53, "duration": 220, "velocity": 100}, {"time": 8140, "pitch": 53, "duration": 220, "velocity": 100}, {"time": 8360, "pitch": 53, "duration": 220, "velocity": 100}, {"time": 8580, "pitch": 53, "duration": 220, "velocity": 100}, {"time": 8800, "pitch": 54, "duration": 220, "velocity": 100}, {"time": 9020, "pitch": 53, "duration": 220, "velocity": 100}, {"time": 9240, "pitch": 51, "duration": 220, "velocity": 100}, {"time": 9460, "pitch": 51, "duration": 220, "velocity": 100}, {"time": 9680, "pitch": 49, "duration": 220, "velocity": 100}, {"time": 9900, "pitch": 51, "duration": 660, "velocity": 100}, {"time": 0, "pitch": 50, "duration": 275, "velocity": 100}, {"time": 0, "pitch": 62, "duration": 110, "velocity": 100}, {"time": 0, "pitch": 65, "duration": 110, "velocity": 100}, {"time": 220, "pitch": 62, "duration": 55, "velocity": 100}, {"time": 220, "pitch": 65, "duration": 55, "velocity": 100}, {"time": 220, "pitch": 70, "duration": 55, "velocity": 100}, {"time": 385, "pitch": 62, "duration": 55, "velocity": 100}, {"time": 440, "pitch": 46, "duration": 220, "velocity": 100}, {"time": 440, "pitch": 58, "duration": 55, "velocity": 100}, {"time": 440, "pitch": 65, "duration": 110, "velocity": 100}, {"time": 550, "pitch": 58, "duration": 55, "velocity": 100}, {"time": 660, "pitch": 58, "duration": 55, "velocity": 100}, {"time": 660, "pitch": 62, "duration": 55, "velocity": 100}, {"time": 660, "pitch": 65, "duration": 55, "velocity": 100}, {"time": 880, "pitch": 46, "duration": 275, "velocity": 100}, {"time": 880, "pitch": 58, "duration": 110, "velocity": 100}, {"time": 880, "pitch": 62, "duration": 110, "velocity": 100}, {"time": 990, "pitch": 53, "duration": 110, "velocity": 100}, {"time": 1100, "pitch": 58, "duration": 55, "velocity": 100}, {"time": 1100, "pitch": 62, "duration": 55, "velocity": 100}, {"time": 1100, "pitch": 65, "duration": 55, "velocity": 100}, {"time": 1265, "pitch": 58, "duration": 55, "velocity": 100}, {"time": 1320, "pitch": 34, "duration": 275, "velocity": 100}, {"time": 1320, "pitch": 65, "duration": 110, "velocity": 100}, {"time": 1485, "pitch": 58, "duration": 55, "velocity": 100}, {"time": 1540, "pitch": 58, "duration": 55, "velocity": 100}, {"time": 1540, "pitch": 65, "duration": 55, "velocity": 100}, {"time": 1540, "pitch": 70, "duration": 55, "velocity": 100}, {"time": 1650, "pitch": 60, "duration": 55, "velocity": 100}, {"time": 1760, "pitch": 46, "duration": 220, "velocity": 100}, {"time": 1760, "pitch": 62, "duration": 110, "velocity": 100}, {"time": 1760, "pitch": 65, "duration": 110, "velocity": 100}, {"time": 1980, "pitch": 62, "duration": 55, "velocity": 100}, {"time": 1980, "pitch": 65, "duration": 55, "velocity": 100}, {"time": 1980, "pitch": 70, "duration": 55, "velocity": 100}, {"time": 2090, "pitch": 53, "duration": 55, "velocity": 100}, {"time": 2145, "pitch": 62, "duration": 55, "velocity": 100}, {"time": 2200, "pitch": 46, "duration": 275, "velocity": 100}, {"time": 2200, "pitch": 58, "duration": 110, "velocity": 100}, {"time": 2200, "pitch": 62, "duration": 110, "velocity": 100}, {"time": 2200, "pitch": 65, "duration": 110, "velocity": 100}, {"time": 2365, "pitch": 58, "duration": 55, "velocity": 100}, {"time": 2420, "pitch": 58, "duration": 55, "velocity": 100}, {"time": 2420, "pitch": 65, "duration": 110, "velocity": 100}, {"time": 2420, "pitch": 70, "duration": 110, "velocity": 100}, {"time": 2530, "pitch": 62, "duration": 55, "velocity": 100}, {"time": 2640, "pitch": 46, "duration": 275, "velocity": 100}, {"time": 2640, "pitch": 58, "duration": 110, "velocity": 100}, {"time": 2640, "pitch": 65, "duration": 110, "velocity": 100}, {"time": 2860, "pitch": 58, "duration": 110, "velocity": 100}, {"time": 2860, "pitch": 62, "duration": 110, "velocity": 100}, {"time": 2860, "pitch": 65, "duration": 110, "velocity": 100}, {"time": 2970, "pitch": 46, "duration": 55, "velocity": 100}, {"time": 3025, "pitch": 58, "duration": 55, "velocity": 100}, {"time": 3080, "pitch": 46, "duration": 110, "velocity": 100}, {"time": 3080, "pitch": 58, "duration": 110, "velocity": 100}, {"time": 3080, "pitch": 62, "duration": 110, "velocity": 100}, {"time": 3190, "pitch": 53, "duration": 110, "velocity": 100}, {"time": 3245, "pitch": 58, "duration": 110, "velocity": 100}, {"time": 3300, "pitch": 58, "duration": 165, "velocity": 100}, {"time": 3300, "pitch": 62, "duration": 165, "velocity": 100}, {"time": 3300, "pitch": 65, "duration": 165, "velocity": 100}, {"time": 3410, "pitch": 53, "duration": 55, "velocity": 100}, {"time": 3520, "pitch": 35, "duration": 275, "velocity": 100}, {"time": 3520, "pitch": 50, "duration": 55, "velocity": 100}, {"time": 3520, "pitch": 54, "duration": 110, "velocity": 100}, {"time": 3740, "pitch": 50, "duration": 55, "velocity": 100}, {"time": 3740, "pitch": 54, "duration": 55, "velocity": 100}, {"time": 3740, "pitch": 59, "duration": 110, "velocity": 100}, {"time": 3905, "pitch": 54, "duration": 55, "velocity": 100}, {"time": 3960, "pitch": 35, "duration": 220, "velocity": 100}, {"time": 3960, "pitch": 50, "duration": 55, "velocity": 100}, {"time": 3960, "pitch": 54, "duration": 110, "velocity": 100}, {"time": 4070, "pitch": 50, "duration": 55, "velocity": 100}, {"time": 4180, "pitch": 50, "duration": 55, "velocity": 100}, {"time": 4180, "pitch": 54, "duration": 55, "velocity": 100}, {"time": 4180, "pitch": 59, "duration": 55, "velocity": 100}, {"time": 4400, "pitch": 35, "duration": 275, "velocity": 100}, {"time": 4400, "pitch": 47, "duration": 55, "velocity": 100}, {"time": 4400, "pitch": 50, "duration": 110, "velocity": 100}, {"time": 4400, "pitch": 54, "duration": 110, "velocity": 100}, {"time": 4510, "pitch": 42, "duration": 110, "velocity": 100}, {"time": 4620, "pitch": 47, "duration": 55, "velocity": 100}, {"time": 4620, "pitch": 50, "duration": 55, "velocity": 100}, {"time": 4620, "pitch": 54, "duration": 55, "velocity": 100}, {"time": 4785, "pitch": 50, "duration": 55, "velocity": 100}, {"time": 4840, "pitch": 35, "duration": 275, "velocity": 100}, {"time": 4840, "pitch": 50, "duration": 55, "velocity": 100}, {"time": 4840, "pitch": 54, "duration": 110, "velocity": 100}, {"time": 5005, "pitch": 47, "duration": 55, "velocity": 100}, {"time": 5060, "pitch": 50, "duration": 55, "velocity": 100}, {"time": 5060, "pitch": 54, "duration": 55, "velocity": 100}, {"time": 5060, "pitch": 59, "duration": 110, "velocity": 100}, {"time": 5170, "pitch": 50, "duration": 55, "velocity": 100}, {"time": 5280, "pitch": 35, "duration": 220, "velocity": 100}, {"time": 5280, "pitch": 50, "duration": 110, "velocity": 100}, {"time": 5280, "pitch": 54, "duration": 110, "velocity": 100}, {"time": 5500, "pitch": 50, "duration": 55, "velocity": 100}, {"time": 5500, "pitch": 54, "duration": 55, "velocity": 100}, {"time": 5500, "pitch": 59, "duration": 110, "velocity": 100}, {"time": 5610, "pitch": 35, "duration": 55, "velocity": 100}, {"time": 5665, "pitch": 50, "duration": 55, "velocity": 100}, {"time": 5720, "pitch": 35, "duration": 275, "velocity": 100}, {"time": 5720, "pitch": 50, "duration": 55, "velocity": 100}, {"time": 5720, "pitch": 54, "duration": 110, "velocity": 100}, {"time": 5885, "pitch": 50, "duration": 55, "velocity": 100}, {"time": 5940, "pitch": 50, "duration": 110, "velocity": 100}, {"time": 5940, "pitch": 54, "duration": 110, "velocity": 100}, {"time": 5940, "pitch": 59, "duration": 110, "velocity": 100}, {"time": 6050, "pitch": 50, "duration": 55, "velocity": 100}, {"time": 6160, "pitch": 35, "duration": 275, "velocity": 100}, {"time": 6160, "pitch": 47, "duration": 110, "velocity": 100}, {"time": 6160, "pitch": 50, "duration": 55, "velocity": 100}, {"time": 6380, "pitch": 47, "duration": 110, "velocity": 100}, {"time": 6380, "pitch": 50, "duration": 110, "velocity": 100}, {"time": 6380, "pitch": 59, "duration": 110, "velocity": 100}, {"time": 6490, "pitch": 35, "duration": 55, "velocity": 100}, {"time": 6545, "pitch": 47, "duration": 55, "velocity": 100}, {"time": 6600, "pitch": 35, "duration": 275, "velocity": 100}, {"time": 6600, "pitch": 47, "duration": 110, "velocity": 100}, {"time": 6600, "pitch": 50, "duration": 110, "velocity": 100}, {"time": 6710, "pitch": 42, "duration": 110, "velocity": 100}, {"time": 6765, "pitch": 47, "duration": 110, "velocity": 100}, {"time": 6820, "pitch": 50, "duration": 165, "velocity": 100}, {"time": 6820, "pitch": 54, "duration": 220, "velocity": 100}, {"time": 6820, "pitch": 59, "duration": 220, "velocity": 100}, {"time": 6930, "pitch": 42, "duration": 55, "velocity": 100}, {"time": 7040, "pitch": 42, "duration": 275, "velocity": 100}, {"time": 7040, "pitch": 54, "duration": 55, "velocity": 100}, {"time": 7040, "pitch": 62, "duration": 110, "velocity": 100}, {"time": 7260, "pitch": 58, "duration": 55, "velocity": 100}, {"time": 7260, "pitch": 62, "duration": 55, "velocity": 100}, {"time": 7260, "pitch": 66, "duration": 110, "velocity": 100}, {"time": 7425, "pitch": 58, "duration": 55, "velocity": 100}, {"time": 7480, "pitch": 38, "duration": 220, "velocity": 100}, {"time": 7480, "pitch": 54, "duration": 55, "velocity": 100}, {"time": 7480, "pitch": 58, "duration": 110, "velocity": 100}, {"time": 7590, "pitch": 54, "duration": 55, "velocity": 100}, {"time": 7700, "pitch": 54, "duration": 55, "velocity": 100}, {"time": 7700, "pitch": 58, "duration": 55, "velocity": 100}, {"time": 7700, "pitch": 62, "duration": 55, "velocity": 100}, {"time": 7920, "pitch": 38, "duration": 275, "velocity": 100}, {"time": 7920, "pitch": 54, "duration": 110, "velocity": 100}, {"time": 7920, "pitch": 58, "duration": 110, "velocity": 100}, {"time": 8030, "pitch": 46, "duration": 110, "velocity": 100}, {"time": 8140, "pitch": 54, "duration": 55, "velocity": 100}, {"time": 8140, "pitch": 58, "duration": 55, "velocity": 100}, {"time": 8140, "pitch": 62, "duration": 55, "velocity": 100}, {"time": 8305, "pitch": 54, "duration": 55, "velocity": 100}, {"time": 8360, "pitch": 38, "duration": 275, "velocity": 100}, {"time": 8360, "pitch": 54, "duration": 55, "velocity": 100}, {"time": 8360, "pitch": 62, "duration": 110, "velocity": 100}, {"time": 8525, "pitch": 54, "duration": 55, "velocity": 100}, {"time": 8525, "pitch": 66, "duration": 55, "velocity": 100}, {"time": 8580, "pitch": 54, "duration": 55, "velocity": 100}, {"time": 8580, "pitch": 58, "duration": 55, "velocity": 100}, {"time": 8580, "pitch": 62, "duration": 55, "velocity": 100}, {"time": 8580, "pitch": 70, "duration": 110, "velocity": 100}, {"time": 8690, "pitch": 54, "duration": 55, "velocity": 100}, {"time": 8690, "pitch": 70, "duration": 110, "velocity": 100}, {"time": 8800, "pitch": 42, "duration": 275, "velocity": 100}, {"time": 8800, "pitch": 54, "duration": 55, "velocity": 100}, {"time": 8800, "pitch": 62, "duration": 165, "velocity": 100}, {"time": 8800, "pitch": 70, "duration": 440, "velocity": 100}, {"time": 9020, "pitch": 58, "duration": 55, "velocity": 100}, {"time": 9020, "pitch": 62, "duration": 55, "velocity": 100}, {"time": 9020, "pitch": 65, "duration": 55, "velocity": 100}, {"time": 9130, "pitch": 46, "duration": 55, "velocity": 100}, {"time": 9185, "pitch": 54, "duration": 55, "velocity": 100}, {"time": 9240, "pitch": 38, "duration": 275, "velocity": 100}, {"time": 9240, "pitch": 54, "duration": 55, "velocity": 100}, {"time": 9240, "pitch": 58, "duration": 110, "velocity": 100}, {"time": 9405, "pitch": 54, "duration": 55, "velocity": 100}, {"time": 9460, "pitch": 54, "duration": 55, "velocity": 100}, {"time": 9460, "pitch": 58, "duration": 110, "velocity": 100}, {"time": 9460, "pitch": 62, "duration": 110, "velocity": 100}, {"time": 9570, "pitch": 54, "duration": 55, "velocity": 100}, {"time": 9570, "pitch": 70, "duration": 110, "velocity": 100}, {"time": 9680, "pitch": 38, "duration": 275, "velocity": 100}, {"time": 9680, "pitch": 50, "duration": 110, "velocity": 100}, {"time": 9680, "pitch": 62, "duration": 110, "velocity": 100}, {"time": 9680, "pitch": 70, "duration": 660, "velocity": 100}, {"time": 9900, "pitch": 54, "duration": 110, "velocity": 100}, {"time": 9900, "pitch": 58, "duration": 110, "velocity": 100}, {"time": 9900, "pitch": 62, "duration": 110, "velocity": 100}, {"time": 10010, "pitch": 38, "duration": 55, "velocity": 100}, {"time": 10065, "pitch": 50, "duration": 55, "velocity": 100}, {"time": 10120, "pitch": 38, "duration": 275, "velocity": 100}, {"time": 10120, "pitch": 50, "duration": 110, "velocity": 100}, {"time": 10120, "pitch": 54, "duration": 110, "velocity": 100}, {"time": 10230, "pitch": 50, "duration": 110, "velocity": 100}, {"time": 10285, "pitch": 54, "duration": 165, "velocity": 100}, {"time": 10340, "pitch": 54, "duration": 220, "velocity": 100}, {"time": 10340, "pitch": 58, "duration": 220, "velocity": 100}, {"time": 10340, "pitch": 62, "duration": 220, "velocity": 100}, {"time": 10450, "pitch": 46, "duration": 110, "velocity": 100}]}]}