{"metadata": {"schema_version": "0.1", "title": "None", "source_filename": "20211210_054350.mid", "source_format": "midi"}, "resolution": 220, "tempos": [{"time": 0, "qpm": 120.0}], "time_signatures": [{"time": 0, "numerator": 4, "denominator": 4}], "tracks": [{"program": 0, "is_drum": false, "name": "Piano", "notes": [{"time": 715, "pitch": 74, "duration": 220, "velocity": 100}, {"time": 935, "pitch": 74, "duration": 220, "velocity": 100}, {"time": 1155, "pitch": 71, "duration": 165, "velocity": 100}, {"time": 1320, "pitch": 74, "duration": 55, "velocity": 100}, {"time": 1375, "pitch": 71, "duration": 165, "velocity": 100}, {"time": 1540, "pitch": 67, "duration": 165, "velocity": 100}, {"time": 1705, "pitch": 71, "duration": 55, "velocity": 100}, {"time": 1760, "pitch": 67, "duration": 495, "velocity": 100}, {"time": 2475, "pitch": 74, "duration": 220, "velocity": 100}, {"time": 2695, "pitch": 72, "duration": 55, "velocity": 100}, {"time": 2750, "pitch": 74, "duration": 110, "velocity": 100}, {"time": 2860, "pitch": 76, "duration": 55, "velocity": 100}, {"time": 2915, "pitch": 74, "duration": 220, "velocity": 100}, {"time": 3355, "pitch": 71, "duration": 165, "velocity": 100}, {"time": 3630, "pitch": 69, "duration": 55, "velocity": 100}, {"time": 3685, "pitch": 71, "duration": 55, "velocity": 100}, {"time": 3740, "pitch": 72, "duration": 55, "velocity": 100}, {"time": 3795, "pitch": 71, "duration": 220, "velocity": 100}, {"time": 4180, "pitch": 74, "duration": 220, "velocity": 100}, {"time": 4400, "pitch": 78, "duration": 55, "velocity": 100}, {"time": 4455, "pitch": 76, "duration": 55, "velocity": 100}, {"time": 4510, "pitch": 74, "duration": 110, "velocity": 100}, {"time": 4620, "pitch": 76, "duration": 110, "velocity": 100}, {"time": 4730, "pitch": 78, "duration": 110, "velocity": 100}, {"time": 4840, "pitch": 79, "duration": 110, "velocity": 100}, {"time": 4950, "pitch": 78, "duration": 110, "velocity": 100}, {"time": 5060, "pitch": 76, "duration": 165, "velocity": 100}, {"time": 5225, "pitch": 74, "duration": 55, "velocity": 100}, {"time": 5335, "pitch": 72, "duration": 110, "velocity": 100}, {"time": 5445, "pitch": 72, "duration": 55, "velocity": 100}, {"time": 5500, "pitch": 74, "duration": 55, "velocity": 100}, {"time": 5555, "pitch": 72, "duration": 55, "velocity": 100}, {"time": 5610, "pitch": 71, "duration": 55, "velocity": 100}, {"time": 5665, "pitch": 72, "duration": 55, "velocity": 100}, {"time": 5720, "pitch": 71, "duration": 220, "velocity": 100}, {"time": 5940, "pitch": 71, "duration": 165, "velocity": 100}, {"time": 6105, "pitch": 69, "duration": 110, "velocity": 100}, {"time": 6215, "pitch": 72, "duration": 165, "velocity": 100}, {"time": 6380, "pitch": 71, "duration": 110, "velocity": 100}, {"time": 6490, "pitch": 69, "duration": 110, "velocity": 100}, {"time": 6600, "pitch": 76, "duration": 220, "velocity": 100}, {"time": 6820, "pitch": 67, "duration": 220, "velocity": 100}, {"time": 7095, "pitch": 67, "duration": 165, "velocity": 100}, {"time": 7260, "pitch": 66, "duration": 220, "velocity": 100}, {"time": 7590, "pitch": 81, "duration": 110, "velocity": 100}, {"time": 7755, "pitch": 81, "duration": 165, "velocity": 100}, {"time": 7975, "pitch": 81, "duration": 165, "velocity": 100}, {"time": 8195, "pitch": 81, "duration": 165, "velocity": 100}, {"time": 8415, "pitch": 81, "duration": 165, "velocity": 100}, {"time": 8690, "pitch": 81, "duration": 110, "velocity": 100}, {"time": 8800, "pitch": 79, "duration": 110, "velocity": 100}, {"time": 8910, "pitch": 81, "duration": 55, "velocity": 100}, {"time": 8965, "pitch": 79, "duration": 110, "velocity": 100}, {"time": 9075, "pitch": 78, "duration": 220, "velocity": 100}, {"time": 9295, "pitch": 76, "duration": 110, "velocity": 100}, {"time": 9405, "pitch": 78, "duration": 55, "velocity": 100}, {"time": 9460, "pitch": 76, "duration": 110, "velocity": 100}, {"time": 9570, "pitch": 74, "duration": 220, "velocity": 100}, {"time": 9790, "pitch": 73, "duration": 55, "velocity": 100}, {"time": 9845, "pitch": 71, "duration": 55, "velocity": 100}, {"time": 9900, "pitch": 69, "duration": 55, "velocity": 100}, {"time": 9955, "pitch": 74, "duration": 220, "velocity": 100}, {"time": 10285, "pitch": 79, "duration": 110, "velocity": 100}, {"time": 10450, "pitch": 79, "duration": 110, "velocity": 100}, {"time": 10670, "pitch": 79, "duration": 165, "velocity": 100}, {"time": 10890, "pitch": 79, "duration": 165, "velocity": 100}, {"time": 11165, "pitch": 79, "duration": 110, "velocity": 100}, {"time": 11385, "pitch": 79, "duration": 110, "velocity": 100}, {"time": 11495, "pitch": 78, "duration": 110, "velocity": 100}, {"time": 11605, "pitch": 76, "duration": 55, "velocity": 100}, {"time": 11660, "pitch": 74, "duration": 55, "velocity": 100}, {"time": 11715, "pitch": 73, "duration": 55, "velocity": 100}, {"time": 11770, "pitch": 71, "duration": 110, "velocity": 100}, {"time": 11880, "pitch": 69, "duration": 55, "velocity": 100}, {"time": 11935, "pitch": 76, "duration": 55, "velocity": 100}, {"time": 11990, "pitch": 78, "duration": 55, "velocity": 100}, {"time": 12045, "pitch": 76, "duration": 55, "velocity": 100}, {"time": 12100, "pitch": 78, "duration": 55, "velocity": 100}, {"time": 12155, "pitch": 76, "duration": 55, "velocity": 100}, {"time": 12210, "pitch": 74, "duration": 55, "velocity": 100}, {"time": 12265, "pitch": 76, "duration": 55, "velocity": 100}, {"time": 12320, "pitch": 74, "duration": 275, "velocity": 100}, {"time": 12595, "pitch": 86, "duration": 220, "velocity": 100}, {"time": 12815, "pitch": 85, "duration": 220, "velocity": 100}, {"time": 13035, "pitch": 83, "duration": 275, "velocity": 100}, {"time": 13310, "pitch": 81, "duration": 165, "velocity": 100}, {"time": 13475, "pitch": 83, "duration": 55, "velocity": 100}, {"time": 13530, "pitch": 81, "duration": 110, "velocity": 100}, {"time": 13640, "pitch": 79, "duration": 55, "velocity": 100}, {"time": 13695, "pitch": 78, "duration": 165, "velocity": 100}, {"time": 13860, "pitch": 76, "duration": 55, "velocity": 100}, {"time": 13915, "pitch": 78, "duration": 55, "velocity": 100}, {"time": 13970, "pitch": 76, "duration": 55, "velocity": 100}, {"time": 14025, "pitch": 76, "duration": 55, "velocity": 100}, {"time": 14080, "pitch": 74, "duration": 440, "velocity": 100}, {"time": 14850, "pitch": 74, "duration": 165, "velocity": 100}, {"time": 15015, "pitch": 79, "duration": 55, "velocity": 100}, {"time": 15070, "pitch": 74, "duration": 165, "velocity": 100}, {"time": 15235, "pitch": 71, "duration": 165, "velocity": 100}, {"time": 15400, "pitch": 74, "duration": 55, "velocity": 100}, {"time": 15455, "pitch": 71, "duration": 165, "velocity": 100}, {"time": 15620, "pitch": 67, "duration": 165, "velocity": 100}, {"time": 15785, "pitch": 71, "duration": 55, "velocity": 100}, {"time": 15840, "pitch": 67, "duration": 495, "velocity": 100}, {"time": 16555, "pitch": 74, "duration": 220, "velocity": 100}, {"time": 16775, "pitch": 72, "duration": 55, "velocity": 100}, {"time": 16830, "pitch": 74, "duration": 55, "velocity": 100}, {"time": 16885, "pitch": 76, "duration": 110, "velocity": 100}, {"time": 16995, "pitch": 74, "duration": 165, "velocity": 100}, {"time": 17325, "pitch": 71, "duration": 220, "velocity": 100}, {"time": 17545, "pitch": 69, "duration": 55, "velocity": 100}, {"time": 17600, "pitch": 71, "duration": 110, "velocity": 100}, {"time": 17710, "pitch": 72, "duration": 55, "velocity": 100}, {"time": 17765, "pitch": 71, "duration": 220, "velocity": 100}, {"time": 18205, "pitch": 74, "duration": 275, "velocity": 100}, {"time": 18480, "pitch": 76, "duration": 55, "velocity": 100}, {"time": 18535, "pitch": 76, "duration": 55, "velocity": 100}, {"time": 18590, "pitch": 74, "duration": 110, "velocity": 100}, {"time": 18700, "pitch": 76, "duration": 110, "velocity": 100}, {"time": 18810, "pitch": 78, "duration": 165, "velocity": 100}, {"time": 18975, "pitch": 79, "duration": 110, "velocity": 100}, {"time": 19085, "pitch": 78, "duration": 110, "velocity": 100}, {"time": 19195, "pitch": 76, "duration": 110, "velocity": 100}, {"time": 19305, "pitch": 74, "duration": 55, "velocity": 100}, {"time": 19415, "pitch": 72, "duration": 110, "velocity": 100}, {"time": 19525, "pitch": 74, "duration": 55, "velocity": 100}, {"time": 19580, "pitch": 72, "duration": 55, "velocity": 100}, {"time": 19635, "pitch": 72, "duration": 55, "velocity": 100}, {"time": 19690, "pitch": 71, "duration": 55, "velocity": 100}, {"time": 19745, "pitch": 72, "duration": 55, "velocity": 100}, {"time": 19800, "pitch": 71, "duration": 220, "velocity": 100}, {"time": 20020, "pitch": 71, "duration": 220, "velocity": 100}, {"time": 20240, "pitch": 69, "duration": 110, "velocity": 100}, {"time": 20350, "pitch": 72, "duration": 110, "velocity": 100}, {"time": 20460, "pitch": 71, "duration": 110, "velocity": 100}, {"time": 20570, "pitch": 69, "duration": 110, "velocity": 100}, {"time": 20680, "pitch": 76, "duration": 220, "velocity": 100}, {"time": 20900, "pitch": 67, "duration": 220, "velocity": 100}, {"time": 21175, "pitch": 67, "duration": 220, "velocity": 100}, {"time": 21395, "pitch": 66, "duration": 165, "velocity": 100}, {"time": 21670, "pitch": 81, "duration": 110, "velocity": 100}, {"time": 21890, "pitch": 81, "duration": 110, "velocity": 100}, {"time": 22055, "pitch": 81, "duration": 165, "velocity": 100}, {"time": 22330, "pitch": 81, "duration": 110, "velocity": 100}, {"time": 22550, "pitch": 81, "duration": 110, "velocity": 100}, {"time": 22770, "pitch": 81, "duration": 110, "velocity": 100}, {"time": 22935, "pitch": 79, "duration": 55, "velocity": 100}, {"time": 22990, "pitch": 81, "duration": 55, "velocity": 100}, {"time": 23045, "pitch": 79, "duration": 55, "velocity": 100}, {"time": 23100, "pitch": 78, "duration": 220, "velocity": 100}, {"time": 23320, "pitch": 76, "duration": 55, "velocity": 100}, {"time": 23375, "pitch": 78, "duration": 55, "velocity": 100}, {"time": 23430, "pitch": 76, "duration": 110, "velocity": 100}, {"time": 23540, "pitch": 74, "duration": 165, "velocity": 100}, {"time": 23705, "pitch": 73, "duration": 110, "velocity": 100}, {"time": 23815, "pitch": 71, "duration": 55, "velocity": 100}, {"time": 23870, "pitch": 69, "duration": 55, "velocity": 100}, {"time": 23925, "pitch": 74, "duration": 275, "velocity": 100}, {"time": 24310, "pitch": 79, "duration": 110, "velocity": 100}, {"time": 24530, "pitch": 79, "duration": 110, "velocity": 100}, {"time": 24750, "pitch": 79, "duration": 165, "velocity": 100}, {"time": 25025, "pitch": 79, "duration": 110, "velocity": 100}, {"time": 25245, "pitch": 79, "duration": 110, "velocity": 100}, {"time": 25465, "pitch": 79, "duration": 165, "velocity": 100}, {"time": 25630, "pitch": 78, "duration": 55, "velocity": 100}, {"time": 25685, "pitch": 76, "duration": 55, "velocity": 100}, {"time": 25740, "pitch": 74, "duration": 55, "velocity": 100}, {"time": 25795, "pitch": 73, "duration": 110, "velocity": 100}, {"time": 25905, "pitch": 71, "duration": 55, "velocity": 100}, {"time": 25960, "pitch": 69, "duration": 55, "velocity": 100}, {"time": 26015, "pitch": 76, "duration": 55, "velocity": 100}, {"time": 26070, "pitch": 78, "duration": 55, "velocity": 100}, {"time": 26125, "pitch": 76, "duration": 110, "velocity": 100}, {"time": 26235, "pitch": 78, "duration": 55, "velocity": 100}, {"time": 26290, "pitch": 74, "duration": 55, "velocity": 100}, {"time": 26345, "pitch": 76, "duration": 55, "velocity": 100}, {"time": 26400, "pitch": 74, "duration": 220, "velocity": 100}, {"time": 26620, "pitch": 86, "duration": 220, "velocity": 100}, {"time": 26840, "pitch": 85, "duration": 165, "velocity": 100}, {"time": 27005, "pitch": 83, "duration": 220, "velocity": 100}, {"time": 27225, "pitch": 81, "duration": 220, "velocity": 100}, {"time": 27445, "pitch": 83, "duration": 110, "velocity": 100}, {"time": 27555, "pitch": 81, "duration": 55, "velocity": 100}, {"time": 27610, "pitch": 79, "duration": 110, "velocity": 100}, {"time": 27720, "pitch": 78, "duration": 220, "velocity": 100}, {"time": 27940, "pitch": 76, "duration": 55, "velocity": 100}, {"time": 27995, "pitch": 78, "duration": 55, "velocity": 100}, {"time": 28050, "pitch": 76, "duration": 55, "velocity": 100}, {"time": 28105, "pitch": 74, "duration": 55, "velocity": 100}, {"time": 28160, "pitch": 74, "duration": 440, "velocity": 100}, {"time": 28875, "pitch": 74, "duration": 165, "velocity": 100}, {"time": 29040, "pitch": 78, "duration": 55, "velocity": 100}, {"time": 29095, "pitch": 74, "duration": 220, "velocity": 100}, {"time": 29370, "pitch": 84, "duration": 110, "velocity": 100}, {"time": 29590, "pitch": 78, "duration": 110, "velocity": 100}, {"time": 29755, "pitch": 81, "duration": 165, "velocity": 100}, {"time": 29975, "pitch": 79, "duration": 165, "velocity": 100}, {"time": 30140, "pitch": 83, "duration": 110, "velocity": 100}, {"time": 30250, "pitch": 74, "duration": 110, "velocity": 100}, {"time": 30360, "pitch": 72, "duration": 110, "velocity": 100}, {"time": 30470, "pitch": 74, "duration": 55, "velocity": 100}, {"time": 30525, "pitch": 76, "duration": 110, "velocity": 100}, {"time": 30635, "pitch": 69, "duration": 55, "velocity": 100}, {"time": 30690, "pitch": 71, "duration": 110, "velocity": 100}, {"time": 30800, "pitch": 72, "duration": 55, "velocity": 100}, {"time": 30855, "pitch": 71, "duration": 55, "velocity": 100}, {"time": 30910, "pitch": 72, "duration": 110, "velocity": 100}, {"time": 31020, "pitch": 74, "duration": 55, "velocity": 100}, {"time": 31075, "pitch": 72, "duration": 55, "velocity": 100}, {"time": 31130, "pitch": 74, "duration": 55, "velocity": 100}, {"time": 31185, "pitch": 76, "duration": 110, "velocity": 100}, {"time": 31295, "pitch": 74, "duration": 165, "velocity": 100}, {"time": 31460, "pitch": 74, "duration": 165, "velocity": 100}, {"time": 31625, "pitch": 79, "duration": 55, "velocity": 100}, {"time": 31680, "pitch": 74, "duration": 220, "velocity": 100}, {"time": 31900, "pitch": 66, "duration": 275, "velocity": 100}, {"time": 32175, "pitch": 67, "duration": 220, "velocity": 100}, {"time": 32395, "pitch": 69, "duration": 220, "velocity": 100}, {"time": 32615, "pitch": 71, "duration": 220, "velocity": 100}, {"time": 32835, "pitch": 72, "duration": 55, "velocity": 100}, {"time": 32890, "pitch": 72, "duration": 55, "velocity": 100}, {"time": 32945, "pitch": 71, "duration": 55, "velocity": 100}, {"time": 33000, "pitch": 74, "duration": 220, "velocity": 100}, {"time": 33220, "pitch": 79, "duration": 165, "velocity": 100}, {"time": 33385, "pitch": 83, "duration": 55, "velocity": 100}, {"time": 33440, "pitch": 79, "duration": 220, "velocity": 100}, {"time": 33660, "pitch": 71, "duration": 275, "velocity": 100}, {"time": 33935, "pitch": 72, "duration": 220, "velocity": 100}, {"time": 34155, "pitch": 74, "duration": 220, "velocity": 100}, {"time": 34375, "pitch": 76, "duration": 220, "velocity": 100}, {"time": 34595, "pitch": 79, "duration": 55, "velocity": 100}, {"time": 34650, "pitch": 77, "duration": 55, "velocity": 100}, {"time": 34705, "pitch": 77, "duration": 55, "velocity": 100}, {"time": 34760, "pitch": 79, "duration": 220, "velocity": 100}, {"time": 34980, "pitch": 76, "duration": 165, "velocity": 100}, {"time": 35145, "pitch": 79, "duration": 55, "velocity": 100}, {"time": 35200, "pitch": 74, "duration": 220, "velocity": 100}, {"time": 35420, "pitch": 72, "duration": 55, "velocity": 100}, {"time": 35475, "pitch": 74, "duration": 55, "velocity": 100}, {"time": 35530, "pitch": 72, "duration": 110, "velocity": 100}, {"time": 35640, "pitch": 71, "duration": 220, "velocity": 100}, {"time": 35860, "pitch": 74, "duration": 55, "velocity": 100}, {"time": 35915, "pitch": 72, "duration": 110, "velocity": 100}, {"time": 36025, "pitch": 71, "duration": 55, "velocity": 100}, {"time": 36080, "pitch": 69, "duration": 275, "velocity": 100}, {"time": 36355, "pitch": 72, "duration": 55, "velocity": 100}, {"time": 36410, "pitch": 71, "duration": 55, "velocity": 100}, {"time": 36465, "pitch": 69, "duration": 110, "velocity": 100}, {"time": 36575, "pitch": 76, "duration": 220, "velocity": 100}, {"time": 36795, "pitch": 67, "duration": 165, "velocity": 100}, {"time": 37015, "pitch": 67, "duration": 110, "velocity": 100}, {"time": 37125, "pitch": 69, "duration": 55, "velocity": 100}, {"time": 37180, "pitch": 67, "duration": 110, "velocity": 100}, {"time": 37290, "pitch": 66, "duration": 220, "velocity": 100}, {"time": 37730, "pitch": 74, "duration": 165, "velocity": 100}, {"time": 37895, "pitch": 74, "duration": 220, "velocity": 100}, {"time": 38115, "pitch": 71, "duration": 165, "velocity": 100}, {"time": 38280, "pitch": 74, "duration": 55, "velocity": 100}, {"time": 38335, "pitch": 71, "duration": 165, "velocity": 100}, {"time": 38500, "pitch": 67, "duration": 165, "velocity": 100}, {"time": 38665, "pitch": 71, "duration": 55, "velocity": 100}, {"time": 38720, "pitch": 67, "duration": 495, "velocity": 100}, {"time": 39435, "pitch": 74, "duration": 220, "velocity": 100}, {"time": 39655, "pitch": 72, "duration": 55, "velocity": 100}, {"time": 39710, "pitch": 74, "duration": 110, "velocity": 100}, {"time": 39820, "pitch": 76, "duration": 55, "velocity": 100}, {"time": 39875, "pitch": 74, "duration": 275, "velocity": 100}, {"time": 40370, "pitch": 71, "duration": 110, "velocity": 100}, {"time": 40590, "pitch": 69, "duration": 55, "velocity": 100}, {"time": 40645, "pitch": 71, "duration": 55, "velocity": 100}, {"time": 40700, "pitch": 72, "duration": 55, "velocity": 100}, {"time": 40755, "pitch": 71, "duration": 220, "velocity": 100}, {"time": 41140, "pitch": 74, "duration": 220, "velocity": 100}, {"time": 41360, "pitch": 78, "duration": 55, "velocity": 100}, {"time": 41415, "pitch": 76, "duration": 55, "velocity": 100}, {"time": 41470, "pitch": 74, "duration": 110, "velocity": 100}, {"time": 41580, "pitch": 76, "duration": 110, "velocity": 100}, {"time": 41690, "pitch": 78, "duration": 110, "velocity": 100}, {"time": 41800, "pitch": 79, "duration": 110, "velocity": 100}, {"time": 41910, "pitch": 78, "duration": 165, "velocity": 100}, {"time": 42075, "pitch": 76, "duration": 110, "velocity": 100}, {"time": 42185, "pitch": 74, "duration": 55, "velocity": 100}, {"time": 42295, "pitch": 72, "duration": 110, "velocity": 100}, {"time": 42405, "pitch": 74, "duration": 55, "velocity": 100}, {"time": 42460, "pitch": 74, "duration": 55, "velocity": 100}, {"time": 42515, "pitch": 72, "duration": 55, "velocity": 100}, {"time": 42570, "pitch": 71, "duration": 55, "velocity": 100}, {"time": 42625, "pitch": 72, "duration": 55, "velocity": 100}, {"time": 42680, "pitch": 71, "duration": 220, "velocity": 100}, {"time": 42900, "pitch": 71, "duration": 220, "velocity": 100}, {"time": 43120, "pitch": 69, "duration": 110, "velocity": 100}, {"time": 43230, "pitch": 72, "duration": 110, "velocity": 100}, {"time": 43340, "pitch": 71, "duration": 110, "velocity": 100}, {"time": 43450, "pitch": 69, "duration": 110, "velocity": 100}, {"time": 43560, "pitch": 76, "duration": 220, "velocity": 100}, {"time": 43780, "pitch": 67, "duration": 220, "velocity": 100}, {"time": 44055, "pitch": 67, "duration": 220, "velocity": 100}, {"time": 44275, "pitch": 66, "duration": 165, "velocity": 100}, {"time": 44550, "pitch": 86, "duration": 110, "velocity": 100}, {"time": 44715, "pitch": 86, "duration": 165, "velocity": 100}, {"time": 44935, "pitch": 86, "duration": 165, "velocity": 100}, {"time": 45155, "pitch": 86, "duration": 165, "velocity": 100}, {"time": 45430, "pitch": 86, "duration": 110, "velocity": 100}, {"time": 45650, "pitch": 86, "duration": 110, "velocity": 100}, {"time": 45815, "pitch": 84, "duration": 55, "velocity": 100}, {"time": 45870, "pitch": 86, "duration": 55, "velocity": 100}, {"time": 45925, "pitch": 84, "duration": 55, "velocity": 100}, {"time": 45980, "pitch": 83, "duration": 220, "velocity": 100}, {"time": 46200, "pitch": 81, "duration": 55, "velocity": 100}, {"time": 46255, "pitch": 83, "duration": 55, "velocity": 100}, {"time": 46310, "pitch": 81, "duration": 110, "velocity": 100}, {"time": 46420, "pitch": 79, "duration": 165, "velocity": 100}, {"time": 46585, "pitch": 78, "duration": 55, "velocity": 100}, {"time": 46640, "pitch": 76, "duration": 110, "velocity": 100}, {"time": 46750, "pitch": 74, "duration": 55, "velocity": 100}, {"time": 46805, "pitch": 79, "duration": 275, "velocity": 100}, {"time": 47190, "pitch": 84, "duration": 110, "velocity": 100}, {"time": 47410, "pitch": 84, "duration": 110, "velocity": 100}, {"time": 47630, "pitch": 84, "duration": 165, "velocity": 100}, {"time": 47850, "pitch": 84, "duration": 165, "velocity": 100}, {"time": 48125, "pitch": 84, "duration": 110, "velocity": 100}, {"time": 48345, "pitch": 84, "duration": 165, "velocity": 100}, {"time": 48510, "pitch": 83, "duration": 55, "velocity": 100}, {"time": 48565, "pitch": 81, "duration": 55, "velocity": 100}, {"time": 48620, "pitch": 79, "duration": 55, "velocity": 100}, {"time": 48675, "pitch": 78, "duration": 55, "velocity": 100}, {"time": 48730, "pitch": 76, "duration": 110, "velocity": 100}, {"time": 48840, "pitch": 74, "duration": 55, "velocity": 100}, {"time": 48895, "pitch": 81, "duration": 55, "velocity": 100}, {"time": 48950, "pitch": 83, "duration": 55, "velocity": 100}, {"time": 49005, "pitch": 81, "duration": 55, "velocity": 100}, {"time": 49060, "pitch": 83, "duration": 55, "velocity": 100}, {"time": 49115, "pitch": 81, "duration": 55, "velocity": 100}, {"time": 49170, "pitch": 79, "duration": 55, "velocity": 100}, {"time": 49225, "pitch": 81, "duration": 55, "velocity": 100}, {"time": 49280, "pitch": 79, "duration": 275, "velocity": 100}, {"time": 49555, "pitch": 79, "duration": 220, "velocity": 100}, {"time": 49775, "pitch": 78, "duration": 275, "velocity": 100}, {"time": 50050, "pitch": 76, "duration": 220, "velocity": 100}, {"time": 50270, "pitch": 74, "duration": 165, "velocity": 100}, {"time": 50435, "pitch": 76, "duration": 110, "velocity": 100}, {"time": 50545, "pitch": 74, "duration": 55, "velocity": 100}, {"time": 50600, "pitch": 72, "duration": 55, "velocity": 100}, {"time": 50655, "pitch": 71, "duration": 165, "velocity": 100}, {"time": 50820, "pitch": 69, "duration": 55, "velocity": 100}, {"time": 50875, "pitch": 71, "duration": 55, "velocity": 100}, {"time": 50930, "pitch": 69, "duration": 55, "velocity": 100}, {"time": 50985, "pitch": 67, "duration": 55, "velocity": 100}, {"time": 51040, "pitch": 67, "duration": 275, "velocity": 100}, {"time": 51315, "pitch": 79, "duration": 165, "velocity": 100}, {"time": 51480, "pitch": 78, "duration": 220, "velocity": 100}, {"time": 51700, "pitch": 76, "duration": 220, "velocity": 100}, {"time": 51920, "pitch": 74, "duration": 220, "velocity": 100}, {"time": 52140, "pitch": 76, "duration": 110, "velocity": 100}, {"time": 52250, "pitch": 74, "duration": 55, "velocity": 100}, {"time": 52305, "pitch": 72, "duration": 55, "velocity": 100}, {"time": 52360, "pitch": 71, "duration": 275, "velocity": 100}, {"time": 52635, "pitch": 71, "duration": 55, "velocity": 100}, {"time": 52690, "pitch": 69, "duration": 55, "velocity": 100}, {"time": 52745, "pitch": 67, "duration": 55, "velocity": 100}, {"time": 52800, "pitch": 69, "duration": 55, "velocity": 100}, {"time": 52855, "pitch": 67, "duration": 385, "velocity": 100}, {"time": 53515, "pitch": 74, "duration": 110, "velocity": 100}, {"time": 53625, "pitch": 78, "duration": 55, "velocity": 100}, {"time": 53680, "pitch": 74, "duration": 275, "velocity": 100}, {"time": 54010, "pitch": 84, "duration": 165, "velocity": 100}, {"time": 54285, "pitch": 78, "duration": 110, "velocity": 100}, {"time": 54505, "pitch": 81, "duration": 55, "velocity": 100}, {"time": 54725, "pitch": 79, "duration": 110, "velocity": 100}, {"time": 54835, "pitch": 83, "duration": 110, "velocity": 100}, {"time": 54945, "pitch": 74, "duration": 110, "velocity": 100}, {"time": 55055, "pitch": 72, "duration": 55, "velocity": 100}, {"time": 55110, "pitch": 74, "duration": 55, "velocity": 100}, {"time": 55165, "pitch": 76, "duration": 110, "velocity": 100}, {"time": 55275, "pitch": 69, "duration": 55, "velocity": 100}, {"time": 55330, "pitch": 71, "duration": 55, "velocity": 100}, {"time": 55385, "pitch": 72, "duration": 55, "velocity": 100}, {"time": 55440, "pitch": 71, "duration": 110, "velocity": 100}, {"time": 55550, "pitch": 72, "duration": 55, "velocity": 100}, {"time": 55605, "pitch": 74, "duration": 55, "velocity": 100}, {"time": 55660, "pitch": 72, "duration": 55, "velocity": 100}, {"time": 55715, "pitch": 74, "duration": 110, "velocity": 100}, {"time": 55825, "pitch": 76, "duration": 55, "velocity": 100}, {"time": 55880, "pitch": 74, "duration": 220, "velocity": 100}, {"time": 56100, "pitch": 74, "duration": 110, "velocity": 100}, {"time": 56210, "pitch": 79, "duration": 55, "velocity": 100}, {"time": 56265, "pitch": 74, "duration": 55, "velocity": 100}, {"time": 56540, "pitch": 66, "duration": 220, "velocity": 100}, {"time": 56760, "pitch": 67, "duration": 220, "velocity": 100}, {"time": 56980, "pitch": 69, "duration": 275, "velocity": 100}, {"time": 57255, "pitch": 71, "duration": 165, "velocity": 100}, {"time": 57420, "pitch": 72, "duration": 55, "velocity": 100}, {"time": 57475, "pitch": 74, "duration": 55, "velocity": 100}, {"time": 57530, "pitch": 71, "duration": 55, "velocity": 100}, {"time": 57585, "pitch": 72, "duration": 55, "velocity": 100}, {"time": 57640, "pitch": 74, "duration": 165, "velocity": 100}, {"time": 57805, "pitch": 79, "duration": 165, "velocity": 100}, {"time": 57970, "pitch": 83, "duration": 55, "velocity": 100}, {"time": 58025, "pitch": 79, "duration": 55, "velocity": 100}, {"time": 58245, "pitch": 71, "duration": 275, "velocity": 100}, {"time": 58520, "pitch": 72, "duration": 220, "velocity": 100}, {"time": 58740, "pitch": 74, "duration": 220, "velocity": 100}, {"time": 58960, "pitch": 76, "duration": 275, "velocity": 100}, {"time": 59235, "pitch": 79, "duration": 55, "velocity": 100}, {"time": 59290, "pitch": 77, "duration": 55, "velocity": 100}, {"time": 59345, "pitch": 76, "duration": 55, "velocity": 100}, {"time": 59400, "pitch": 77, "duration": 55, "velocity": 100}, {"time": 59455, "pitch": 79, "duration": 220, "velocity": 100}, {"time": 59675, "pitch": 76, "duration": 165, "velocity": 100}, {"time": 59840, "pitch": 79, "duration": 55, "velocity": 100}, {"time": 59895, "pitch": 74, "duration": 220, "velocity": 100}, {"time": 60115, "pitch": 72, "duration": 55, "velocity": 100}, {"time": 60170, "pitch": 74, "duration": 55, "velocity": 100}, {"time": 60225, "pitch": 72, "duration": 55, "velocity": 100}, {"time": 60280, "pitch": 71, "duration": 220, "velocity": 100}, {"time": 60500, "pitch": 74, "duration": 55, "velocity": 100}, {"time": 60555, "pitch": 72, "duration": 55, "velocity": 100}, {"time": 60610, "pitch": 71, "duration": 110, "velocity": 100}, {"time": 60720, "pitch": 69, "duration": 220, "velocity": 100}, {"time": 60940, "pitch": 72, "duration": 55, "velocity": 100}, {"time": 60995, "pitch": 71, "duration": 55, "velocity": 100}, {"time": 61050, "pitch": 69, "duration": 110, "velocity": 100}, {"time": 61160, "pitch": 76, "duration": 220, "velocity": 100}, {"time": 61380, "pitch": 67, "duration": 165, "velocity": 100}, {"time": 61655, "pitch": 67, "duration": 55, "velocity": 100}, {"time": 61710, "pitch": 69, "duration": 55, "velocity": 100}, {"time": 61765, "pitch": 67, "duration": 110, "velocity": 100}, {"time": 61875, "pitch": 66, "duration": 220, "velocity": 100}, {"time": 62315, "pitch": 74, "duration": 165, "velocity": 100}, {"time": 62480, "pitch": 79, "duration": 55, "velocity": 100}, {"time": 62535, "pitch": 74, "duration": 220, "velocity": 100}, {"time": 62755, "pitch": 71, "duration": 165, "velocity": 100}, {"time": 62920, "pitch": 74, "duration": 110, "velocity": 100}, {"time": 63030, "pitch": 71, "duration": 220, "velocity": 100}, {"time": 63250, "pitch": 67, "duration": 110, "velocity": 100}, {"time": 63415, "pitch": 71, "duration": 55, "velocity": 100}, {"time": 63470, "pitch": 67, "duration": 385, "velocity": 100}, {"time": 64075, "pitch": 74, "duration": 165, "velocity": 100}, {"time": 64240, "pitch": 72, "duration": 110, "velocity": 100}, {"time": 64350, "pitch": 74, "duration": 55, "velocity": 100}, {"time": 64405, "pitch": 76, "duration": 55, "velocity": 100}, {"time": 64460, "pitch": 74, "duration": 275, "velocity": 100}, {"time": 64955, "pitch": 71, "duration": 165, "velocity": 100}, {"time": 65175, "pitch": 69, "duration": 55, "velocity": 100}, {"time": 65230, "pitch": 71, "duration": 55, "velocity": 100}, {"time": 65285, "pitch": 72, "duration": 110, "velocity": 100}, {"time": 65395, "pitch": 71, "duration": 165, "velocity": 100}, {"time": 65725, "pitch": 74, "duration": 220, "velocity": 100}, {"time": 65945, "pitch": 76, "duration": 55, "velocity": 100}, {"time": 66000, "pitch": 76, "duration": 55, "velocity": 100}, {"time": 66055, "pitch": 74, "duration": 110, "velocity": 100}, {"time": 66165, "pitch": 76, "duration": 110, "velocity": 100}, {"time": 66275, "pitch": 78, "duration": 110, "velocity": 100}, {"time": 66385, "pitch": 79, "duration": 165, "velocity": 100}, {"time": 66550, "pitch": 78, "duration": 110, "velocity": 100}, {"time": 66660, "pitch": 76, "duration": 110, "velocity": 100}, {"time": 66770, "pitch": 74, "duration": 110, "velocity": 100}, {"time": 66880, "pitch": 72, "duration": 110, "velocity": 100}, {"time": 66990, "pitch": 74, "duration": 55, "velocity": 100}, {"time": 67045, "pitch": 72, "duration": 55, "velocity": 100}, {"time": 67100, "pitch": 74, "duration": 55, "velocity": 100}, {"time": 67155, "pitch": 72, "duration": 55, "velocity": 100}, {"time": 67210, "pitch": 71, "duration": 110, "velocity": 100}, {"time": 67320, "pitch": 72, "duration": 55, "velocity": 100}, {"time": 67375, "pitch": 71, "duration": 220, "velocity": 100}, {"time": 67595, "pitch": 71, "duration": 275, "velocity": 100}, {"time": 67870, "pitch": 69, "duration": 55, "velocity": 100}, {"time": 67925, "pitch": 72, "duration": 110, "velocity": 100}, {"time": 68035, "pitch": 71, "duration": 110, "velocity": 100}, {"time": 68145, "pitch": 69, "duration": 110, "velocity": 100}, {"time": 68255, "pitch": 76, "duration": 165, "velocity": 100}, {"time": 68420, "pitch": 67, "duration": 220, "velocity": 100}, {"time": 68640, "pitch": 67, "duration": 220, "velocity": 100}, {"time": 68860, "pitch": 66, "duration": 275, "velocity": 100}, {"time": 69245, "pitch": 86, "duration": 110, "velocity": 100}, {"time": 69465, "pitch": 86, "duration": 165, "velocity": 100}, {"time": 69685, "pitch": 86, "duration": 110, "velocity": 100}, {"time": 69850, "pitch": 86, "duration": 165, "velocity": 100}, {"time": 70070, "pitch": 86, "duration": 110, "velocity": 100}, {"time": 70290, "pitch": 86, "duration": 110, "velocity": 100}, {"time": 70400, "pitch": 84, "duration": 55, "velocity": 100}, {"time": 70455, "pitch": 86, "duration": 110, "velocity": 100}, {"time": 70565, "pitch": 84, "duration": 55, "velocity": 100}, {"time": 70620, "pitch": 83, "duration": 275, "velocity": 100}, {"time": 70895, "pitch": 81, "duration": 55, "velocity": 100}, {"time": 70950, "pitch": 83, "duration": 55, "velocity": 100}, {"time": 71005, "pitch": 81, "duration": 110, "velocity": 100}, {"time": 71115, "pitch": 79, "duration": 220, "velocity": 100}, {"time": 71335, "pitch": 78, "duration": 55, "velocity": 100}, {"time": 71390, "pitch": 76, "duration": 110, "velocity": 100}, {"time": 71500, "pitch": 74, "duration": 55, "velocity": 100}, {"time": 71555, "pitch": 79, "duration": 165, "velocity": 100}, {"time": 71830, "pitch": 84, "duration": 110, "velocity": 100}, {"time": 72050, "pitch": 84, "duration": 110, "velocity": 100}, {"time": 72215, "pitch": 84, "duration": 165, "velocity": 100}, {"time": 72490, "pitch": 84, "duration": 110, "velocity": 100}, {"time": 72710, "pitch": 84, "duration": 110, "velocity": 100}, {"time": 72930, "pitch": 84, "duration": 165, "velocity": 100}, {"time": 73095, "pitch": 83, "duration": 55, "velocity": 100}, {"time": 73150, "pitch": 81, "duration": 55, "velocity": 100}, {"time": 73205, "pitch": 79, "duration": 55, "velocity": 100}, {"time": 73260, "pitch": 78, "duration": 110, "velocity": 100}, {"time": 73370, "pitch": 76, "duration": 55, "velocity": 100}, {"time": 73425, "pitch": 74, "duration": 55, "velocity": 100}, {"time": 73480, "pitch": 81, "duration": 55, "velocity": 100}, {"time": 73535, "pitch": 83, "duration": 110, "velocity": 100}, {"time": 73645, "pitch": 81, "duration": 55, "velocity": 100}, {"time": 73700, "pitch": 83, "duration": 55, "velocity": 100}, {"time": 73755, "pitch": 81, "duration": 55, "velocity": 100}, {"time": 73810, "pitch": 81, "duration": 55, "velocity": 100}, {"time": 73865, "pitch": 79, "duration": 55, "velocity": 100}, {"time": 74140, "pitch": 79, "duration": 220, "velocity": 100}, {"time": 74360, "pitch": 78, "duration": 275, "velocity": 100}, {"time": 74635, "pitch": 76, "duration": 220, "velocity": 100}, {"time": 74855, "pitch": 74, "duration": 220, "velocity": 100}, {"time": 75075, "pitch": 76, "duration": 55, "velocity": 100}, {"time": 75130, "pitch": 74, "duration": 55, "velocity": 100}, {"time": 75185, "pitch": 72, "duration": 55, "velocity": 100}, {"time": 75240, "pitch": 71, "duration": 220, "velocity": 100}, {"time": 75460, "pitch": 69, "duration": 55, "velocity": 100}, {"time": 75515, "pitch": 69, "duration": 55, "velocity": 100}, {"time": 75570, "pitch": 67, "duration": 55, "velocity": 100}, {"time": 75625, "pitch": 69, "duration": 55, "velocity": 100}, {"time": 75680, "pitch": 67, "duration": 220, "velocity": 100}, {"time": 75900, "pitch": 79, "duration": 220, "velocity": 100}, {"time": 76120, "pitch": 78, "duration": 220, "velocity": 100}, {"time": 76340, "pitch": 76, "duration": 220, "velocity": 100}, {"time": 76560, "pitch": 74, "duration": 220, "velocity": 100}, {"time": 76780, "pitch": 76, "duration": 55, "velocity": 100}, {"time": 76835, "pitch": 74, "duration": 110, "velocity": 100}, {"time": 76945, "pitch": 72, "duration": 55, "velocity": 100}, {"time": 77000, "pitch": 71, "duration": 220, "velocity": 100}, {"time": 77220, "pitch": 69, "duration": 55, "velocity": 100}, {"time": 77275, "pitch": 71, "duration": 55, "velocity": 100}, {"time": 77330, "pitch": 69, "duration": 55, "velocity": 100}, {"time": 77385, "pitch": 67, "duration": 55, "velocity": 100}, {"time": 77440, "pitch": 69, "duration": 55, "velocity": 100}, {"time": 77495, "pitch": 67, "duration": 385, "velocity": 100}, {"time": 77880, "pitch": 67, "duration": 1320, "velocity": 100}, {"time": 0, "pitch": 35, "duration": 275, "velocity": 100}, {"time": 220, "pitch": 57, "duration": 220, "velocity": 100}, {"time": 220, "pitch": 62, "duration": 220, "velocity": 100}, {"time": 220, "pitch": 66, "duration": 220, "velocity": 100}, {"time": 330, "pitch": 35, "duration": 55, "velocity": 100}, {"time": 330, "pitch": 47, "duration": 55, "velocity": 100}, {"time": 440, "pitch": 35, "duration": 385, "velocity": 100}, {"time": 440, "pitch": 47, "duration": 385, "velocity": 100}, {"time": 660, "pitch": 62, "duration": 165, "velocity": 100}, {"time": 660, "pitch": 66, "duration": 165, "velocity": 100}, {"time": 770, "pitch": 59, "duration": 110, "velocity": 100}, {"time": 880, "pitch": 38, "duration": 275, "velocity": 100}, {"time": 880, "pitch": 50, "duration": 275, "velocity": 100}, {"time": 1100, "pitch": 57, "duration": 220, "velocity": 100}, {"time": 1100, "pitch": 62, "duration": 220, "velocity": 100}, {"time": 1100, "pitch": 66, "duration": 220, "velocity": 100}, {"time": 1210, "pitch": 38, "duration": 55, "velocity": 100}, {"time": 1210, "pitch": 50, "duration": 55, "velocity": 100}, {"time": 1320, "pitch": 38, "duration": 385, "velocity": 100}, {"time": 1320, "pitch": 50, "duration": 385, "velocity": 100}, {"time": 1430, "pitch": 57, "duration": 165, "velocity": 100}, {"time": 1430, "pitch": 62, "duration": 165, "velocity": 100}, {"time": 1430, "pitch": 66, "duration": 165, "velocity": 100}, {"time": 1650, "pitch": 57, "duration": 110, "velocity": 100}, {"time": 1650, "pitch": 62, "duration": 110, "velocity": 100}, {"time": 1650, "pitch": 66, "duration": 110, "velocity": 100}, {"time": 1760, "pitch": 38, "duration": 275, "velocity": 100}, {"time": 1760, "pitch": 50, "duration": 275, "velocity": 100}, {"time": 1980, "pitch": 57, "duration": 220, "velocity": 100}, {"time": 1980, "pitch": 62, "duration": 220, "velocity": 100}, {"time": 1980, "pitch": 66, "duration": 220, "velocity": 100}, {"time": 2090, "pitch": 38, "duration": 55, "velocity": 100}, {"time": 2090, "pitch": 50, "duration": 55, "velocity": 100}, {"time": 2200, "pitch": 38, "duration": 220, "velocity": 100}, {"time": 2200, "pitch": 50, "duration": 275, "velocity": 100}, {"time": 2310, "pitch": 57, "duration": 165, "velocity": 100}, {"time": 2310, "pitch": 62, "duration": 165, "velocity": 100}, {"time": 2310, "pitch": 66, "duration": 165, "velocity": 100}, {"time": 2530, "pitch": 57, "duration": 110, "velocity": 100}, {"time": 2530, "pitch": 62, "duration": 110, "velocity": 100}, {"time": 2530, "pitch": 66, "duration": 110, "velocity": 100}, {"time": 2640, "pitch": 38, "duration": 275, "velocity": 100}, {"time": 2640, "pitch": 45, "duration": 275, "velocity": 100}, {"time": 2860, "pitch": 57, "duration": 275, "velocity": 100}, {"time": 2860, "pitch": 62, "duration": 275, "velocity": 100}, {"time": 2860, "pitch": 66, "duration": 220, "velocity": 100}, {"time": 2970, "pitch": 38, "duration": 55, "velocity": 100}, {"time": 2970, "pitch": 45, "duration": 55, "velocity": 100}, {"time": 3080, "pitch": 38, "duration": 275, "velocity": 100}, {"time": 3080, "pitch": 45, "duration": 275, "velocity": 100}, {"time": 3190, "pitch": 57, "duration": 165, "velocity": 100}, {"time": 3190, "pitch": 62, "duration": 165, "velocity": 100}, {"time": 3190, "pitch": 66, "duration": 165, "velocity": 100}, {"time": 3410, "pitch": 57, "duration": 55, "velocity": 100}, {"time": 3410, "pitch": 62, "duration": 55, "velocity": 100}, {"time": 3410, "pitch": 66, "duration": 55, "velocity": 100}, {"time": 3520, "pitch": 38, "duration": 55, "velocity": 100}, {"time": 3520, "pitch": 50, "duration": 110, "velocity": 100}, {"time": 3630, "pitch": 38, "duration": 110, "velocity": 100}, {"time": 3630, "pitch": 50, "duration": 165, "velocity": 100}, {"time": 3740, "pitch": 57, "duration": 220, "velocity": 100}, {"time": 3740, "pitch": 60, "duration": 220, "velocity": 100}, {"time": 3740, "pitch": 64, "duration": 220, "velocity": 100}, {"time": 3850, "pitch": 40, "duration": 55, "velocity": 100}, {"time": 3850, "pitch": 52, "duration": 55, "velocity": 100}, {"time": 3960, "pitch": 45, "duration": 165, "velocity": 100}, {"time": 3960, "pitch": 52, "duration": 220, "velocity": 100}, {"time": 4070, "pitch": 57, "duration": 165, "velocity": 100}, {"time": 4070, "pitch": 64, "duration": 165, "velocity": 100}, {"time": 4070, "pitch": 69, "duration": 165, "velocity": 100}, {"time": 4290, "pitch": 57, "duration": 110, "velocity": 100}, {"time": 4290, "pitch": 60, "duration": 110, "velocity": 100}, {"time": 4290, "pitch": 64, "duration": 110, "velocity": 100}, {"time": 4400, "pitch": 33, "duration": 55, "velocity": 100}, {"time": 4400, "pitch": 45, "duration": 55, "velocity": 100}, {"time": 4510, "pitch": 33, "duration": 275, "velocity": 100}, {"time": 4510, "pitch": 45, "duration": 275, "velocity": 100}, {"time": 4620, "pitch": 60, "duration": 275, "velocity": 100}, {"time": 4620, "pitch": 64, "duration": 275, "velocity": 100}, {"time": 4730, "pitch": 52, "duration": 110, "velocity": 100}, {"time": 4840, "pitch": 33, "duration": 55, "velocity": 100}, {"time": 4840, "pitch": 45, "duration": 55, "velocity": 100}, {"time": 4950, "pitch": 33, "duration": 165, "velocity": 100}, {"time": 4950, "pitch": 52, "duration": 165, "velocity": 100}, {"time": 5060, "pitch": 60, "duration": 220, "velocity": 100}, {"time": 5060, "pitch": 64, "duration": 165, "velocity": 100}, {"time": 5170, "pitch": 57, "duration": 110, "velocity": 100}, {"time": 5280, "pitch": 45, "duration": 275, "velocity": 100}, {"time": 5280, "pitch": 52, "duration": 220, "velocity": 100}, {"time": 5500, "pitch": 57, "duration": 275, "velocity": 100}, {"time": 5500, "pitch": 60, "duration": 275, "velocity": 100}, {"time": 5500, "pitch": 64, "duration": 275, "velocity": 100}, {"time": 5610, "pitch": 40, "duration": 55, "velocity": 100}, {"time": 5610, "pitch": 52, "duration": 55, "velocity": 100}, {"time": 5720, "pitch": 45, "duration": 55, "velocity": 100}, {"time": 5720, "pitch": 52, "duration": 55, "velocity": 100}, {"time": 5830, "pitch": 45, "duration": 55, "velocity": 100}, {"time": 5830, "pitch": 52, "duration": 110, "velocity": 100}, {"time": 5940, "pitch": 60, "duration": 220, "velocity": 100}, {"time": 5940, "pitch": 64, "duration": 220, "velocity": 100}, {"time": 6050, "pitch": 57, "duration": 110, "velocity": 100}, {"time": 6160, "pitch": 45, "duration": 275, "velocity": 100}, {"time": 6270, "pitch": 57, "duration": 55, "velocity": 100}, {"time": 6270, "pitch": 60, "duration": 55, "velocity": 100}, {"time": 6380, "pitch": 57, "duration": 55, "velocity": 100}, {"time": 6380, "pitch": 60, "duration": 220, "velocity": 100}, {"time": 6380, "pitch": 64, "duration": 220, "velocity": 100}, {"time": 6490, "pitch": 57, "duration": 110, "velocity": 100}, {"time": 6600, "pitch": 45, "duration": 275, "velocity": 100}, {"time": 6710, "pitch": 57, "duration": 55, "velocity": 100}, {"time": 6710, "pitch": 60, "duration": 55, "velocity": 100}, {"time": 6710, "pitch": 64, "duration": 55, "velocity": 100}, {"time": 6820, "pitch": 57, "duration": 220, "velocity": 100}, {"time": 6820, "pitch": 60, "duration": 220, "velocity": 100}, {"time": 6820, "pitch": 64, "duration": 220, "velocity": 100}, {"time": 7040, "pitch": 38, "duration": 770, "velocity": 100}, {"time": 7150, "pitch": 50, "duration": 165, "velocity": 100}, {"time": 7260, "pitch": 55, "duration": 275, "velocity": 100}, {"time": 7260, "pitch": 59, "duration": 275, "velocity": 100}, {"time": 7260, "pitch": 62, "duration": 275, "velocity": 100}, {"time": 7370, "pitch": 50, "duration": 275, "velocity": 100}, {"time": 7590, "pitch": 55, "duration": 165, "velocity": 100}, {"time": 7590, "pitch": 59, "duration": 165, "velocity": 100}, {"time": 7590, "pitch": 62, "duration": 165, "velocity": 100}, {"time": 7700, "pitch": 50, "duration": 165, "velocity": 100}, {"time": 7810, "pitch": 55, "duration": 165, "velocity": 100}, {"time": 7810, "pitch": 59, "duration": 110, "velocity": 100}, {"time": 7810, "pitch": 62, "duration": 110, "velocity": 100}, {"time": 7920, "pitch": 35, "duration": 715, "velocity": 100}, {"time": 8030, "pitch": 50, "duration": 165, "velocity": 100}, {"time": 8140, "pitch": 55, "duration": 275, "velocity": 100}, {"time": 8140, "pitch": 59, "duration": 275, "velocity": 100}, {"time": 8140, "pitch": 62, "duration": 275, "velocity": 100}, {"time": 8250, "pitch": 50, "duration": 275, "velocity": 100}, {"time": 8470, "pitch": 55, "duration": 110, "velocity": 100}, {"time": 8470, "pitch": 59, "duration": 110, "velocity": 100}, {"time": 8470, "pitch": 62, "duration": 220, "velocity": 100}, {"time": 8580, "pitch": 50, "duration": 165, "velocity": 100}, {"time": 8690, "pitch": 55, "duration": 110, "velocity": 100}, {"time": 8690, "pitch": 59, "duration": 110, "velocity": 100}, {"time": 8690, "pitch": 62, "duration": 110, "velocity": 100}, {"time": 8800, "pitch": 38, "duration": 770, "velocity": 100}, {"time": 8910, "pitch": 50, "duration": 165, "velocity": 100}, {"time": 9020, "pitch": 55, "duration": 275, "velocity": 100}, {"time": 9020, "pitch": 59, "duration": 275, "velocity": 100}, {"time": 9020, "pitch": 62, "duration": 110, "velocity": 100}, {"time": 9130, "pitch": 50, "duration": 220, "velocity": 100}, {"time": 9350, "pitch": 55, "duration": 55, "velocity": 100}, {"time": 9350, "pitch": 59, "duration": 165, "velocity": 100}, {"time": 9350, "pitch": 62, "duration": 165, "velocity": 100}, {"time": 9460, "pitch": 50, "duration": 165, "velocity": 100}, {"time": 9570, "pitch": 55, "duration": 110, "velocity": 100}, {"time": 9570, "pitch": 59, "duration": 110, "velocity": 100}, {"time": 9570, "pitch": 62, "duration": 110, "velocity": 100}, {"time": 9680, "pitch": 43, "duration": 715, "velocity": 100}, {"time": 9790, "pitch": 50, "duration": 165, "velocity": 100}, {"time": 9900, "pitch": 55, "duration": 275, "velocity": 100}, {"time": 9900, "pitch": 59, "duration": 275, "velocity": 100}, {"time": 9900, "pitch": 62, "duration": 220, "velocity": 100}, {"time": 10010, "pitch": 50, "duration": 165, "velocity": 100}, {"time": 10230, "pitch": 50, "duration": 110, "velocity": 100}, {"time": 10230, "pitch": 55, "duration": 110, "velocity": 100}, {"time": 10230, "pitch": 62, "duration": 110, "velocity": 100}, {"time": 10340, "pitch": 50, "duration": 110, "velocity": 100}, {"time": 10340, "pitch": 64, "duration": 55, "velocity": 100}, {"time": 10450, "pitch": 55, "duration": 55, "velocity": 100}, {"time": 10450, "pitch": 59, "duration": 55, "velocity": 100}, {"time": 10450, "pitch": 67, "duration": 55, "velocity": 100}, {"time": 10560, "pitch": 43, "duration": 770, "velocity": 100}, {"time": 10560, "pitch": 67, "duration": 110, "velocity": 100}, {"time": 10670, "pitch": 55, "duration": 165, "velocity": 100}, {"time": 10780, "pitch": 59, "duration": 220, "velocity": 100}, {"time": 10780, "pitch": 62, "duration": 165, "velocity": 100}, {"time": 10780, "pitch": 67, "duration": 165, "velocity": 100}, {"time": 10890, "pitch": 55, "duration": 275, "velocity": 100}, {"time": 11110, "pitch": 59, "duration": 165, "velocity": 100}, {"time": 11110, "pitch": 62, "duration": 165, "velocity": 100}, {"time": 11110, "pitch": 67, "duration": 165, "velocity": 100}, {"time": 11220, "pitch": 55, "duration": 165, "velocity": 100}, {"time": 11330, "pitch": 59, "duration": 110, "velocity": 100}, {"time": 11330, "pitch": 62, "duration": 110, "velocity": 100}, {"time": 11330, "pitch": 67, "duration": 110, "velocity": 100}, {"time": 11440, "pitch": 43, "duration": 715, "velocity": 100}, {"time": 11550, "pitch": 55, "duration": 165, "velocity": 100}, {"time": 11660, "pitch": 59, "duration": 275, "velocity": 100}, {"time": 11660, "pitch": 62, "duration": 275, "velocity": 100}, {"time": 11660, "pitch": 67, "duration": 440, "velocity": 100}, {"time": 11770, "pitch": 55, "duration": 165, "velocity": 100}, {"time": 11990, "pitch": 59, "duration": 110, "velocity": 100}, {"time": 11990, "pitch": 62, "duration": 110, "velocity": 100}, {"time": 11990, "pitch": 67, "duration": 110, "velocity": 100}, {"time": 12100, "pitch": 55, "duration": 165, "velocity": 100}, {"time": 12210, "pitch": 59, "duration": 110, "velocity": 100}, {"time": 12210, "pitch": 62, "duration": 110, "velocity": 100}, {"time": 12210, "pitch": 67, "duration": 110, "velocity": 100}, {"time": 12320, "pitch": 43, "duration": 770, "velocity": 100}, {"time": 12430, "pitch": 55, "duration": 165, "velocity": 100}, {"time": 12540, "pitch": 59, "duration": 275, "velocity": 100}, {"time": 12540, "pitch": 62, "duration": 275, "velocity": 100}, {"time": 12540, "pitch": 67, "duration": 110, "velocity": 100}, {"time": 12650, "pitch": 55, "duration": 385, "velocity": 100}, {"time": 12870, "pitch": 59, "duration": 55, "velocity": 100}, {"time": 12870, "pitch": 62, "duration": 165, "velocity": 100}, {"time": 12870, "pitch": 67, "duration": 165, "velocity": 100}, {"time": 12980, "pitch": 55, "duration": 165, "velocity": 100}, {"time": 13090, "pitch": 59, "duration": 55, "velocity": 100}, {"time": 13090, "pitch": 62, "duration": 55, "velocity": 100}, {"time": 13090, "pitch": 67, "duration": 55, "velocity": 100}, {"time": 13200, "pitch": 43, "duration": 715, "velocity": 100}, {"time": 13310, "pitch": 55, "duration": 165, "velocity": 100}, {"time": 13420, "pitch": 59, "duration": 220, "velocity": 100}, {"time": 13420, "pitch": 62, "duration": 220, "velocity": 100}, {"time": 13420, "pitch": 67, "duration": 220, "velocity": 100}, {"time": 13530, "pitch": 55, "duration": 165, "velocity": 100}, {"time": 13750, "pitch": 59, "duration": 110, "velocity": 100}, {"time": 13750, "pitch": 62, "duration": 110, "velocity": 100}, {"time": 13750, "pitch": 67, "duration": 110, "velocity": 100}, {"time": 13860, "pitch": 55, "duration": 110, "velocity": 100}, {"time": 13860, "pitch": 64, "duration": 55, "velocity": 100}, {"time": 13915, "pitch": 69, "duration": 55, "velocity": 100}, {"time": 13970, "pitch": 59, "duration": 110, "velocity": 100}, {"time": 13970, "pitch": 62, "duration": 110, "velocity": 100}, {"time": 13970, "pitch": 67, "duration": 110, "velocity": 100}, {"time": 13970, "pitch": 71, "duration": 55, "velocity": 100}, {"time": 14080, "pitch": 38, "duration": 770, "velocity": 100}, {"time": 14080, "pitch": 62, "duration": 110, "velocity": 100}, {"time": 14190, "pitch": 50, "duration": 165, "velocity": 100}, {"time": 14300, "pitch": 54, "duration": 275, "velocity": 100}, {"time": 14300, "pitch": 57, "duration": 275, "velocity": 100}, {"time": 14300, "pitch": 62, "duration": 275, "velocity": 100}, {"time": 14410, "pitch": 50, "duration": 275, "velocity": 100}, {"time": 14630, "pitch": 54, "duration": 165, "velocity": 100}, {"time": 14630, "pitch": 57, "duration": 165, "velocity": 100}, {"time": 14630, "pitch": 62, "duration": 165, "velocity": 100}, {"time": 14740, "pitch": 50, "duration": 165, "velocity": 100}, {"time": 14850, "pitch": 54, "duration": 165, "velocity": 100}, {"time": 14850, "pitch": 57, "duration": 165, "velocity": 100}, {"time": 14850, "pitch": 62, "duration": 220, "velocity": 100}, {"time": 14960, "pitch": 38, "duration": 715, "velocity": 100}, {"time": 15070, "pitch": 50, "duration": 165, "velocity": 100}, {"time": 15180, "pitch": 54, "duration": 275, "velocity": 100}, {"time": 15180, "pitch": 57, "duration": 275, "velocity": 100}, {"time": 15180, "pitch": 62, "duration": 275, "velocity": 100}, {"time": 15290, "pitch": 50, "duration": 385, "velocity": 100}, {"time": 15510, "pitch": 54, "duration": 110, "velocity": 100}, {"time": 15510, "pitch": 57, "duration": 110, "velocity": 100}, {"time": 15510, "pitch": 62, "duration": 165, "velocity": 100}, {"time": 15620, "pitch": 50, "duration": 165, "velocity": 100}, {"time": 15730, "pitch": 54, "duration": 110, "velocity": 100}, {"time": 15730, "pitch": 57, "duration": 110, "velocity": 100}, {"time": 15730, "pitch": 62, "duration": 110, "velocity": 100}, {"time": 15840, "pitch": 38, "duration": 715, "velocity": 100}, {"time": 15950, "pitch": 50, "duration": 165, "velocity": 100}, {"time": 16060, "pitch": 54, "duration": 275, "velocity": 100}, {"time": 16060, "pitch": 57, "duration": 275, "velocity": 100}, {"time": 16060, "pitch": 62, "duration": 275, "velocity": 100}, {"time": 16170, "pitch": 50, "duration": 275, "velocity": 100}, {"time": 16390, "pitch": 54, "duration": 55, "velocity": 100}, {"time": 16390, "pitch": 57, "duration": 165, "velocity": 100}, {"time": 16390, "pitch": 62, "duration": 165, "velocity": 100}, {"time": 16500, "pitch": 50, "duration": 165, "velocity": 100}, {"time": 16610, "pitch": 54, "duration": 110, "velocity": 100}, {"time": 16610, "pitch": 57, "duration": 110, "velocity": 100}, {"time": 16610, "pitch": 62, "duration": 110, "velocity": 100}, {"time": 16720, "pitch": 38, "duration": 495, "velocity": 100}, {"time": 16830, "pitch": 50, "duration": 165, "velocity": 100}, {"time": 16940, "pitch": 54, "duration": 275, "velocity": 100}, {"time": 16940, "pitch": 57, "duration": 275, "velocity": 100}, {"time": 16940, "pitch": 62, "duration": 275, "velocity": 100}, {"time": 17050, "pitch": 50, "duration": 220, "velocity": 100}, {"time": 17270, "pitch": 54, "duration": 110, "velocity": 100}, {"time": 17270, "pitch": 57, "duration": 110, "velocity": 100}, {"time": 17270, "pitch": 62, "duration": 110, "velocity": 100}, {"time": 17380, "pitch": 50, "duration": 110, "velocity": 100}, {"time": 17380, "pitch": 64, "duration": 55, "velocity": 100}, {"time": 17435, "pitch": 66, "duration": 55, "velocity": 100}, {"time": 17490, "pitch": 54, "duration": 55, "velocity": 100}, {"time": 17490, "pitch": 57, "duration": 55, "velocity": 100}, {"time": 17490, "pitch": 62, "duration": 55, "velocity": 100}, {"time": 17490, "pitch": 69, "duration": 110, "velocity": 100}, {"time": 17600, "pitch": 47, "duration": 770, "velocity": 100}, {"time": 17600, "pitch": 62, "duration": 110, "velocity": 100}, {"time": 17710, "pitch": 54, "duration": 165, "velocity": 100}, {"time": 17820, "pitch": 59, "duration": 275, "velocity": 100}, {"time": 17820, "pitch": 62, "duration": 275, "velocity": 100}, {"time": 17820, "pitch": 66, "duration": 55, "velocity": 100}, {"time": 17930, "pitch": 54, "duration": 220, "velocity": 100}, {"time": 18150, "pitch": 59, "duration": 165, "velocity": 100}, {"time": 18150, "pitch": 62, "duration": 165, "velocity": 100}, {"time": 18150, "pitch": 66, "duration": 165, "velocity": 100}, {"time": 18260, "pitch": 54, "duration": 165, "velocity": 100}, {"time": 18370, "pitch": 59, "duration": 55, "velocity": 100}, {"time": 18370, "pitch": 62, "duration": 55, "velocity": 100}, {"time": 18370, "pitch": 66, "duration": 55, "velocity": 100}, {"time": 18480, "pitch": 42, "duration": 550, "velocity": 100}, {"time": 18590, "pitch": 54, "duration": 165, "velocity": 100}, {"time": 18700, "pitch": 59, "duration": 220, "velocity": 100}, {"time": 18700, "pitch": 62, "duration": 220, "velocity": 100}, {"time": 18700, "pitch": 66, "duration": 220, "velocity": 100}, {"time": 18810, "pitch": 54, "duration": 165, "velocity": 100}, {"time": 19030, "pitch": 59, "duration": 165, "velocity": 100}, {"time": 19030, "pitch": 62, "duration": 165, "velocity": 100}, {"time": 19030, "pitch": 66, "duration": 165, "velocity": 100}, {"time": 19140, "pitch": 54, "duration": 165, "velocity": 100}, {"time": 19250, "pitch": 59, "duration": 110, "velocity": 100}, {"time": 19250, "pitch": 62, "duration": 110, "velocity": 100}, {"time": 19250, "pitch": 66, "duration": 110, "velocity": 100}, {"time": 19360, "pitch": 47, "duration": 770, "velocity": 100}, {"time": 19470, "pitch": 54, "duration": 165, "velocity": 100}, {"time": 19580, "pitch": 59, "duration": 165, "velocity": 100}, {"time": 19580, "pitch": 62, "duration": 165, "velocity": 100}, {"time": 19580, "pitch": 66, "duration": 165, "velocity": 100}, {"time": 19690, "pitch": 54, "duration": 275, "velocity": 100}, {"time": 19910, "pitch": 59, "duration": 110, "velocity": 100}, {"time": 19910, "pitch": 62, "duration": 110, "velocity": 100}, {"time": 19910, "pitch": 66, "duration": 110, "velocity": 100}, {"time": 20020, "pitch": 54, "duration": 165, "velocity": 100}, {"time": 20130, "pitch": 59, "duration": 55, "velocity": 100}, {"time": 20130, "pitch": 62, "duration": 55, "velocity": 100}, {"time": 20130, "pitch": 66, "duration": 55, "velocity": 100}, {"time": 20240, "pitch": 42, "duration": 770, "velocity": 100}, {"time": 20350, "pitch": 54, "duration": 165, "velocity": 100}, {"time": 20460, "pitch": 59, "duration": 220, "velocity": 100}, {"time": 20460, "pitch": 62, "duration": 220, "velocity": 100}, {"time": 20460, "pitch": 66, "duration": 220, "velocity": 100}, {"time": 20570, "pitch": 54, "duration": 220, "velocity": 100}, {"time": 20790, "pitch": 59, "duration": 110, "velocity": 100}, {"time": 20790, "pitch": 62, "duration": 110, "velocity": 100}, {"time": 20790, "pitch": 66, "duration": 110, "velocity": 100}, {"time": 20900, "pitch": 54, "duration": 110, "velocity": 100}, {"time": 21010, "pitch": 59, "duration": 55, "velocity": 100}, {"time": 21010, "pitch": 62, "duration": 55, "velocity": 100}, {"time": 21010, "pitch": 66, "duration": 110, "velocity": 100}, {"time": 21120, "pitch": 38, "duration": 715, "velocity": 100}, {"time": 21230, "pitch": 50, "duration": 165, "velocity": 100}, {"time": 21340, "pitch": 54, "duration": 55, "velocity": 100}, {"time": 21340, "pitch": 57, "duration": 275, "velocity": 100}, {"time": 21340, "pitch": 62, "duration": 275, "velocity": 100}, {"time": 21450, "pitch": 50, "duration": 220, "velocity": 100}, {"time": 21670, "pitch": 54, "duration": 110, "velocity": 100}, {"time": 21670, "pitch": 57, "duration": 110, "velocity": 100}, {"time": 21670, "pitch": 62, "duration": 110, "velocity": 100}, {"time": 21780, "pitch": 50, "duration": 165, "velocity": 100}, {"time": 21890, "pitch": 54, "duration": 110, "velocity": 100}, {"time": 21890, "pitch": 57, "duration": 110, "velocity": 100}, {"time": 21890, "pitch": 62, "duration": 110, "velocity": 100}, {"time": 22000, "pitch": 38, "duration": 715, "velocity": 100}, {"time": 22110, "pitch": 50, "duration": 165, "velocity": 100}, {"time": 22220, "pitch": 54, "duration": 275, "velocity": 100}, {"time": 22220, "pitch": 57, "duration": 275, "velocity": 100}, {"time": 22220, "pitch": 62, "duration": 275, "velocity": 100}, {"time": 22330, "pitch": 50, "duration": 165, "velocity": 100}, {"time": 22550, "pitch": 54, "duration": 110, "velocity": 100}, {"time": 22550, "pitch": 57, "duration": 110, "velocity": 100}, {"time": 22550, "pitch": 62, "duration": 110, "velocity": 100}, {"time": 22660, "pitch": 50, "duration": 165, "velocity": 100}, {"time": 22770, "pitch": 54, "duration": 110, "velocity": 100}, {"time": 22770, "pitch": 57, "duration": 110, "velocity": 100}, {"time": 22770, "pitch": 62, "duration": 110, "velocity": 100}, {"time": 22880, "pitch": 38, "duration": 715, "velocity": 100}, {"time": 22990, "pitch": 50, "duration": 165, "velocity": 100}, {"time": 23100, "pitch": 54, "duration": 55, "velocity": 100}, {"time": 23100, "pitch": 57, "duration": 55, "velocity": 100}, {"time": 23100, "pitch": 62, "duration": 275, "velocity": 100}, {"time": 23210, "pitch": 50, "duration": 165, "velocity": 100}, {"time": 23430, "pitch": 54, "duration": 110, "velocity": 100}, {"time": 23430, "pitch": 57, "duration": 110, "velocity": 100}, {"time": 23430, "pitch": 62, "duration": 165, "velocity": 100}, {"time": 23540, "pitch": 50, "duration": 165, "velocity": 100}, {"time": 23650, "pitch": 54, "duration": 110, "velocity": 100}, {"time": 23650, "pitch": 57, "duration": 110, "velocity": 100}, {"time": 23650, "pitch": 62, "duration": 110, "velocity": 100}, {"time": 23760, "pitch": 38, "duration": 605, "velocity": 100}, {"time": 23870, "pitch": 50, "duration": 165, "velocity": 100}, {"time": 23980, "pitch": 54, "duration": 55, "velocity": 100}, {"time": 23980, "pitch": 57, "duration": 220, "velocity": 100}, {"time": 23980, "pitch": 62, "duration": 440, "velocity": 100}, {"time": 24090, "pitch": 50, "duration": 165, "velocity": 100}, {"time": 24310, "pitch": 54, "duration": 110, "velocity": 100}, {"time": 24310, "pitch": 57, "duration": 110, "velocity": 100}, {"time": 24310, "pitch": 62, "duration": 110, "velocity": 100}, {"time": 24420, "pitch": 50, "duration": 165, "velocity": 100}, {"time": 24420, "pitch": 66, "duration": 110, "velocity": 100}, {"time": 24530, "pitch": 54, "duration": 110, "velocity": 100}, {"time": 24530, "pitch": 57, "duration": 110, "velocity": 100}, {"time": 24530, "pitch": 62, "duration": 110, "velocity": 100}, {"time": 24530, "pitch": 71, "duration": 110, "velocity": 100}, {"time": 24640, "pitch": 42, "duration": 770, "velocity": 100}, {"time": 24750, "pitch": 54, "duration": 165, "velocity": 100}, {"time": 24860, "pitch": 59, "duration": 165, "velocity": 100}, {"time": 24860, "pitch": 62, "duration": 110, "velocity": 100}, {"time": 24860, "pitch": 66, "duration": 110, "velocity": 100}, {"time": 24970, "pitch": 55, "duration": 385, "velocity": 100}, {"time": 25190, "pitch": 59, "duration": 110, "velocity": 100}, {"time": 25190, "pitch": 62, "duration": 110, "velocity": 100}, {"time": 25190, "pitch": 67, "duration": 110, "velocity": 100}, {"time": 25300, "pitch": 55, "duration": 165, "velocity": 100}, {"time": 25410, "pitch": 59, "duration": 55, "velocity": 100}, {"time": 25410, "pitch": 62, "duration": 55, "velocity": 100}, {"time": 25410, "pitch": 67, "duration": 55, "velocity": 100}, {"time": 25520, "pitch": 43, "duration": 715, "velocity": 100}, {"time": 25630, "pitch": 55, "duration": 110, "velocity": 100}, {"time": 25740, "pitch": 59, "duration": 220, "velocity": 100}, {"time": 25740, "pitch": 62, "duration": 220, "velocity": 100}, {"time": 25740, "pitch": 67, "duration": 220, "velocity": 100}, {"time": 25850, "pitch": 55, "duration": 165, "velocity": 100}, {"time": 26070, "pitch": 59, "duration": 110, "velocity": 100}, {"time": 26070, "pitch": 62, "duration": 110, "velocity": 100}, {"time": 26070, "pitch": 67, "duration": 110, "velocity": 100}, {"time": 26180, "pitch": 55, "duration": 165, "velocity": 100}, {"time": 26290, "pitch": 59, "duration": 55, "velocity": 100}, {"time": 26290, "pitch": 62, "duration": 55, "velocity": 100}, {"time": 26290, "pitch": 67, "duration": 55, "velocity": 100}, {"time": 26400, "pitch": 43, "duration": 770, "velocity": 100}, {"time": 26510, "pitch": 55, "duration": 110, "velocity": 100}, {"time": 26620, "pitch": 59, "duration": 220, "velocity": 100}, {"time": 26620, "pitch": 62, "duration": 220, "velocity": 100}, {"time": 26620, "pitch": 67, "duration": 165, "velocity": 100}, {"time": 26730, "pitch": 55, "duration": 275, "velocity": 100}, {"time": 26950, "pitch": 59, "duration": 110, "velocity": 100}, {"time": 26950, "pitch": 62, "duration": 110, "velocity": 100}, {"time": 26950, "pitch": 67, "duration": 110, "velocity": 100}, {"time": 27060, "pitch": 55, "duration": 165, "velocity": 100}, {"time": 27170, "pitch": 59, "duration": 110, "velocity": 100}, {"time": 27170, "pitch": 62, "duration": 110, "velocity": 100}, {"time": 27170, "pitch": 67, "duration": 110, "velocity": 100}, {"time": 27280, "pitch": 43, "duration": 770, "velocity": 100}, {"time": 27390, "pitch": 55, "duration": 110, "velocity": 100}, {"time": 27500, "pitch": 59, "duration": 55, "velocity": 100}, {"time": 27500, "pitch": 62, "duration": 165, "velocity": 100}, {"time": 27500, "pitch": 67, "duration": 165, "velocity": 100}, {"time": 27610, "pitch": 55, "duration": 165, "velocity": 100}, {"time": 27830, "pitch": 59, "duration": 110, "velocity": 100}, {"time": 27830, "pitch": 62, "duration": 110, "velocity": 100}, {"time": 27830, "pitch": 67, "duration": 110, "velocity": 100}, {"time": 27940, "pitch": 55, "duration": 165, "velocity": 100}, {"time": 28050, "pitch": 59, "duration": 110, "velocity": 100}, {"time": 28050, "pitch": 62, "duration": 110, "velocity": 100}, {"time": 28050, "pitch": 67, "duration": 110, "velocity": 100}, {"time": 28160, "pitch": 38, "duration": 275, "velocity": 100}, {"time": 28380, "pitch": 57, "duration": 220, "velocity": 100}, {"time": 28380, "pitch": 62, "duration": 220, "velocity": 100}, {"time": 28380, "pitch": 66, "duration": 220, "velocity": 100}, {"time": 28490, "pitch": 38, "duration": 55, "velocity": 100}, {"time": 28490, "pitch": 50, "duration": 55, "velocity": 100}, {"time": 28600, "pitch": 38, "duration": 275, "velocity": 100}, {"time": 28600, "pitch": 50, "duration": 440, "velocity": 100}, {"time": 28820, "pitch": 62, "duration": 165, "velocity": 100}, {"time": 28820, "pitch": 66, "duration": 165, "velocity": 100}, {"time": 28930, "pitch": 57, "duration": 110, "velocity": 100}, {"time": 29040, "pitch": 38, "duration": 275, "velocity": 100}, {"time": 29040, "pitch": 50, "duration": 275, "velocity": 100}, {"time": 29260, "pitch": 57, "duration": 220, "velocity": 100}, {"time": 29260, "pitch": 62, "duration": 220, "velocity": 100}, {"time": 29260, "pitch": 66, "duration": 165, "velocity": 100}, {"time": 29370, "pitch": 38, "duration": 55, "velocity": 100}, {"time": 29370, "pitch": 50, "duration": 55, "velocity": 100}, {"time": 29480, "pitch": 38, "duration": 385, "velocity": 100}, {"time": 29480, "pitch": 50, "duration": 385, "velocity": 100}, {"time": 29590, "pitch": 57, "duration": 165, "velocity": 100}, {"time": 29590, "pitch": 62, "duration": 165, "velocity": 100}, {"time": 29590, "pitch": 66, "duration": 165, "velocity": 100}, {"time": 29810, "pitch": 57, "duration": 110, "velocity": 100}, {"time": 29810, "pitch": 62, "duration": 110, "velocity": 100}, {"time": 29810, "pitch": 66, "duration": 110, "velocity": 100}, {"time": 29920, "pitch": 38, "duration": 275, "velocity": 100}, {"time": 29920, "pitch": 50, "duration": 275, "velocity": 100}, {"time": 30140, "pitch": 57, "duration": 220, "velocity": 100}, {"time": 30140, "pitch": 62, "duration": 220, "velocity": 100}, {"time": 30140, "pitch": 66, "duration": 220, "velocity": 100}, {"time": 30250, "pitch": 38, "duration": 55, "velocity": 100}, {"time": 30250, "pitch": 50, "duration": 55, "velocity": 100}, {"time": 30360, "pitch": 38, "duration": 220, "velocity": 100}, {"time": 30360, "pitch": 50, "duration": 275, "velocity": 100}, {"time": 30470, "pitch": 57, "duration": 165, "velocity": 100}, {"time": 30470, "pitch": 62, "duration": 165, "velocity": 100}, {"time": 30470, "pitch": 66, "duration": 165, "velocity": 100}, {"time": 30690, "pitch": 57, "duration": 110, "velocity": 100}, {"time": 30690, "pitch": 62, "duration": 110, "velocity": 100}, {"time": 30690, "pitch": 66, "duration": 110, "velocity": 100}, {"time": 30800, "pitch": 38, "duration": 275, "velocity": 100}, {"time": 30800, "pitch": 45, "duration": 275, "velocity": 100}, {"time": 31020, "pitch": 57, "duration": 275, "velocity": 100}, {"time": 31020, "pitch": 62, "duration": 275, "velocity": 100}, {"time": 31020, "pitch": 66, "duration": 220, "velocity": 100}, {"time": 31130, "pitch": 38, "duration": 55, "velocity": 100}, {"time": 31130, "pitch": 45, "duration": 55, "velocity": 100}, {"time": 31240, "pitch": 38, "duration": 275, "velocity": 100}, {"time": 31240, "pitch": 45, "duration": 275, "velocity": 100}, {"time": 31350, "pitch": 57, "duration": 165, "velocity": 100}, {"time": 31350, "pitch": 62, "duration": 165, "velocity": 100}, {"time": 31350, "pitch": 66, "duration": 165, "velocity": 100}, {"time": 31570, "pitch": 57, "duration": 55, "velocity": 100}, {"time": 31570, "pitch": 62, "duration": 55, "velocity": 100}, {"time": 31570, "pitch": 66, "duration": 55, "velocity": 100}, {"time": 31680, "pitch": 38, "duration": 55, "velocity": 100}, {"time": 31680, "pitch": 50, "duration": 110, "velocity": 100}, {"time": 31790, "pitch": 38, "duration": 110, "velocity": 100}, {"time": 31790, "pitch": 50, "duration": 165, "velocity": 100}, {"time": 31900, "pitch": 57, "duration": 220, "velocity": 100}, {"time": 31900, "pitch": 62, "duration": 220, "velocity": 100}, {"time": 31900, "pitch": 66, "duration": 220, "velocity": 100}, {"time": 32010, "pitch": 38, "duration": 55, "velocity": 100}, {"time": 32010, "pitch": 50, "duration": 55, "velocity": 100}, {"time": 32120, "pitch": 38, "duration": 165, "velocity": 100}, {"time": 32120, "pitch": 50, "duration": 220, "velocity": 100}, {"time": 32230, "pitch": 57, "duration": 165, "velocity": 100}, {"time": 32230, "pitch": 62, "duration": 165, "velocity": 100}, {"time": 32230, "pitch": 66, "duration": 165, "velocity": 100}, {"time": 32450, "pitch": 57, "duration": 110, "velocity": 100}, {"time": 32450, "pitch": 62, "duration": 110, "velocity": 100}, {"time": 32450, "pitch": 66, "duration": 110, "velocity": 100}, {"time": 32560, "pitch": 38, "duration": 55, "velocity": 100}, {"time": 32560, "pitch": 50, "duration": 55, "velocity": 100}, {"time": 32670, "pitch": 38, "duration": 275, "velocity": 100}, {"time": 32670, "pitch": 45, "duration": 275, "velocity": 100}, {"time": 32780, "pitch": 57, "duration": 275, "velocity": 100}, {"time": 32780, "pitch": 62, "duration": 275, "velocity": 100}, {"time": 32890, "pitch": 54, "duration": 110, "velocity": 100}, {"time": 33000, "pitch": 38, "duration": 55, "velocity": 100}, {"time": 33000, "pitch": 50, "duration": 55, "velocity": 100}, {"time": 33110, "pitch": 38, "duration": 165, "velocity": 100}, {"time": 33110, "pitch": 50, "duration": 165, "velocity": 100}, {"time": 33220, "pitch": 57, "duration": 220, "velocity": 100}, {"time": 33220, "pitch": 62, "duration": 220, "velocity": 100}, {"time": 33330, "pitch": 54, "duration": 110, "velocity": 100}, {"time": 33440, "pitch": 38, "duration": 275, "velocity": 100}, {"time": 33440, "pitch": 50, "duration": 275, "velocity": 100}, {"time": 33660, "pitch": 54, "duration": 275, "velocity": 100}, {"time": 33660, "pitch": 57, "duration": 275, "velocity": 100}, {"time": 33660, "pitch": 62, "duration": 275, "velocity": 100}, {"time": 33770, "pitch": 38, "duration": 55, "velocity": 100}, {"time": 33770, "pitch": 50, "duration": 55, "velocity": 100}, {"time": 33880, "pitch": 38, "duration": 55, "velocity": 100}, {"time": 33880, "pitch": 50, "duration": 55, "velocity": 100}, {"time": 33990, "pitch": 38, "duration": 165, "velocity": 100}, {"time": 33990, "pitch": 50, "duration": 110, "velocity": 100}, {"time": 34100, "pitch": 57, "duration": 220, "velocity": 100}, {"time": 34100, "pitch": 62, "duration": 220, "velocity": 100}, {"time": 34210, "pitch": 54, "duration": 110, "velocity": 100}, {"time": 34320, "pitch": 42, "duration": 275, "velocity": 100}, {"time": 34430, "pitch": 54, "duration": 55, "velocity": 100}, {"time": 34430, "pitch": 57, "duration": 55, "velocity": 100}, {"time": 34430, "pitch": 62, "duration": 55, "velocity": 100}, {"time": 34540, "pitch": 57, "duration": 220, "velocity": 100}, {"time": 34540, "pitch": 62, "duration": 220, "velocity": 100}, {"time": 34650, "pitch": 57, "duration": 110, "velocity": 100}, {"time": 34760, "pitch": 45, "duration": 275, "velocity": 100}, {"time": 34870, "pitch": 57, "duration": 55, "velocity": 100}, {"time": 34870, "pitch": 62, "duration": 55, "velocity": 100}, {"time": 34870, "pitch": 66, "duration": 55, "velocity": 100}, {"time": 34980, "pitch": 57, "duration": 220, "velocity": 100}, {"time": 34980, "pitch": 62, "duration": 220, "velocity": 100}, {"time": 34980, "pitch": 64, "duration": 220, "velocity": 100}, {"time": 35200, "pitch": 36, "duration": 715, "velocity": 100}, {"time": 35310, "pitch": 43, "duration": 165, "velocity": 100}, {"time": 35420, "pitch": 48, "duration": 275, "velocity": 100}, {"time": 35420, "pitch": 52, "duration": 275, "velocity": 100}, {"time": 35420, "pitch": 55, "duration": 275, "velocity": 100}, {"time": 35530, "pitch": 48, "duration": 275, "velocity": 100}, {"time": 35750, "pitch": 48, "duration": 165, "velocity": 100}, {"time": 35750, "pitch": 52, "duration": 165, "velocity": 100}, {"time": 35750, "pitch": 55, "duration": 165, "velocity": 100}, {"time": 35860, "pitch": 43, "duration": 220, "velocity": 100}, {"time": 35970, "pitch": 48, "duration": 110, "velocity": 100}, {"time": 35970, "pitch": 52, "duration": 110, "velocity": 100}, {"time": 35970, "pitch": 55, "duration": 110, "velocity": 100}, {"time": 36080, "pitch": 36, "duration": 715, "velocity": 100}, {"time": 36190, "pitch": 43, "duration": 165, "velocity": 100}, {"time": 36300, "pitch": 48, "duration": 275, "velocity": 100}, {"time": 36300, "pitch": 52, "duration": 275, "velocity": 100}, {"time": 36300, "pitch": 55, "duration": 275, "velocity": 100}, {"time": 36410, "pitch": 43, "duration": 275, "velocity": 100}, {"time": 36630, "pitch": 48, "duration": 110, "velocity": 100}, {"time": 36630, "pitch": 52, "duration": 110, "velocity": 100}, {"time": 36630, "pitch": 55, "duration": 220, "velocity": 100}, {"time": 36740, "pitch": 43, "duration": 165, "velocity": 100}, {"time": 36850, "pitch": 48, "duration": 110, "velocity": 100}, {"time": 36850, "pitch": 52, "duration": 110, "velocity": 100}, {"time": 36850, "pitch": 55, "duration": 110, "velocity": 100}, {"time": 36960, "pitch": 36, "duration": 715, "velocity": 100}, {"time": 37070, "pitch": 43, "duration": 165, "velocity": 100}, {"time": 37180, "pitch": 48, "duration": 55, "velocity": 100}, {"time": 37180, "pitch": 52, "duration": 275, "velocity": 100}, {"time": 37180, "pitch": 55, "duration": 275, "velocity": 100}, {"time": 37290, "pitch": 48, "duration": 165, "velocity": 100}, {"time": 37510, "pitch": 48, "duration": 110, "velocity": 100}, {"time": 37510, "pitch": 52, "duration": 165, "velocity": 100}, {"time": 37510, "pitch": 55, "duration": 165, "velocity": 100}, {"time": 37620, "pitch": 43, "duration": 220, "velocity": 100}, {"time": 37730, "pitch": 48, "duration": 110, "velocity": 100}, {"time": 37730, "pitch": 52, "duration": 110, "velocity": 100}, {"time": 37730, "pitch": 55, "duration": 110, "velocity": 100}, {"time": 37840, "pitch": 36, "duration": 715, "velocity": 100}, {"time": 37950, "pitch": 43, "duration": 165, "velocity": 100}, {"time": 38060, "pitch": 48, "duration": 55, "velocity": 100}, {"time": 38060, "pitch": 52, "duration": 275, "velocity": 100}, {"time": 38060, "pitch": 55, "duration": 275, "velocity": 100}, {"time": 38170, "pitch": 43, "duration": 165, "velocity": 100}, {"time": 38390, "pitch": 48, "duration": 110, "velocity": 100}, {"time": 38390, "pitch": 52, "duration": 110, "velocity": 100}, {"time": 38390, "pitch": 55, "duration": 110, "velocity": 100}, {"time": 38500, "pitch": 43, "duration": 110, "velocity": 100}, {"time": 38500, "pitch": 57, "duration": 55, "velocity": 100}, {"time": 38610, "pitch": 48, "duration": 55, "velocity": 100}, {"time": 38610, "pitch": 52, "duration": 55, "velocity": 100}, {"time": 38610, "pitch": 55, "duration": 55, "velocity": 100}, {"time": 38610, "pitch": 64, "duration": 55, "velocity": 100}, {"time": 38720, "pitch": 38, "duration": 770, "velocity": 100}, {"time": 38720, "pitch": 62, "duration": 110, "velocity": 100}, {"time": 38830, "pitch": 50, "duration": 165, "velocity": 100}, {"time": 38940, "pitch": 54, "duration": 165, "velocity": 100}, {"time": 38940, "pitch": 57, "duration": 165, "velocity": 100}, {"time": 38940, "pitch": 62, "duration": 165, "velocity": 100}, {"time": 39050, "pitch": 50, "duration": 275, "velocity": 100}, {"time": 39270, "pitch": 54, "duration": 165, "velocity": 100}, {"time": 39270, "pitch": 57, "duration": 165, "velocity": 100}, {"time": 39270, "pitch": 62, "duration": 165, "velocity": 100}, {"time": 39380, "pitch": 50, "duration": 165, "velocity": 100}, {"time": 39490, "pitch": 54, "duration": 110, "velocity": 100}, {"time": 39490, "pitch": 57, "duration": 110, "velocity": 100}, {"time": 39490, "pitch": 62, "duration": 110, "velocity": 100}, {"time": 39600, "pitch": 38, "duration": 715, "velocity": 100}, {"time": 39710, "pitch": 50, "duration": 165, "velocity": 100}, {"time": 39820, "pitch": 54, "duration": 55, "velocity": 100}, {"time": 39820, "pitch": 57, "duration": 275, "velocity": 100}, {"time": 39820, "pitch": 62, "duration": 275, "velocity": 100}, {"time": 39930, "pitch": 50, "duration": 220, "velocity": 100}, {"time": 40150, "pitch": 54, "duration": 110, "velocity": 100}, {"time": 40150, "pitch": 57, "duration": 110, "velocity": 100}, {"time": 40150, "pitch": 62, "duration": 220, "velocity": 100}, {"time": 40260, "pitch": 50, "duration": 165, "velocity": 100}, {"time": 40370, "pitch": 54, "duration": 110, "velocity": 100}, {"time": 40370, "pitch": 57, "duration": 110, "velocity": 100}, {"time": 40370, "pitch": 62, "duration": 110, "velocity": 100}, {"time": 40480, "pitch": 38, "duration": 715, "velocity": 100}, {"time": 40590, "pitch": 50, "duration": 165, "velocity": 100}, {"time": 40700, "pitch": 54, "duration": 55, "velocity": 100}, {"time": 40700, "pitch": 57, "duration": 275, "velocity": 100}, {"time": 40700, "pitch": 62, "duration": 220, "velocity": 100}, {"time": 40810, "pitch": 50, "duration": 165, "velocity": 100}, {"time": 41030, "pitch": 54, "duration": 110, "velocity": 100}, {"time": 41030, "pitch": 57, "duration": 110, "velocity": 100}, {"time": 41030, "pitch": 62, "duration": 110, "velocity": 100}, {"time": 41140, "pitch": 50, "duration": 165, "velocity": 100}, {"time": 41250, "pitch": 54, "duration": 55, "velocity": 100}, {"time": 41250, "pitch": 57, "duration": 55, "velocity": 100}, {"time": 41250, "pitch": 62, "duration": 55, "velocity": 100}, {"time": 41360, "pitch": 38, "duration": 715, "velocity": 100}, {"time": 41470, "pitch": 50, "duration": 165, "velocity": 100}, {"time": 41580, "pitch": 54, "duration": 220, "velocity": 100}, {"time": 41580, "pitch": 57, "duration": 220, "velocity": 100}, {"time": 41580, "pitch": 62, "duration": 165, "velocity": 100}, {"time": 41690, "pitch": 50, "duration": 165, "velocity": 100}, {"time": 41910, "pitch": 54, "duration": 110, "velocity": 100}, {"time": 41910, "pitch": 57, "duration": 110, "velocity": 100}, {"time": 41910, "pitch": 62, "duration": 110, "velocity": 100}, {"time": 42020, "pitch": 50, "duration": 165, "velocity": 100}, {"time": 42020, "pitch": 57, "duration": 55, "velocity": 100}, {"time": 42130, "pitch": 54, "duration": 55, "velocity": 100}, {"time": 42130, "pitch": 57, "duration": 55, "velocity": 100}, {"time": 42130, "pitch": 62, "duration": 55, "velocity": 100}, {"time": 42130, "pitch": 66, "duration": 110, "velocity": 100}, {"time": 42240, "pitch": 38, "duration": 275, "velocity": 100}, {"time": 42460, "pitch": 55, "duration": 220, "velocity": 100}, {"time": 42460, "pitch": 60, "duration": 220, "velocity": 100}, {"time": 42460, "pitch": 64, "duration": 220, "velocity": 100}, {"time": 42570, "pitch": 36, "duration": 55, "velocity": 100}, {"time": 42570, "pitch": 48, "duration": 55, "velocity": 100}, {"time": 42680, "pitch": 36, "duration": 275, "velocity": 100}, {"time": 42680, "pitch": 48, "duration": 385, "velocity": 100}, {"time": 42900, "pitch": 60, "duration": 220, "velocity": 100}, {"time": 42900, "pitch": 64, "duration": 220, "velocity": 100}, {"time": 43010, "pitch": 55, "duration": 110, "velocity": 100}, {"time": 43120, "pitch": 36, "duration": 275, "velocity": 100}, {"time": 43120, "pitch": 48, "duration": 275, "velocity": 100}, {"time": 43340, "pitch": 55, "duration": 220, "velocity": 100}, {"time": 43340, "pitch": 60, "duration": 220, "velocity": 100}, {"time": 43340, "pitch": 64, "duration": 165, "velocity": 100}, {"time": 43450, "pitch": 36, "duration": 55, "velocity": 100}, {"time": 43450, "pitch": 48, "duration": 55, "velocity": 100}, {"time": 43560, "pitch": 36, "duration": 385, "velocity": 100}, {"time": 43560, "pitch": 48, "duration": 275, "velocity": 100}, {"time": 43670, "pitch": 55, "duration": 165, "velocity": 100}, {"time": 43670, "pitch": 60, "duration": 165, "velocity": 100}, {"time": 43670, "pitch": 64, "duration": 165, "velocity": 100}, {"time": 43890, "pitch": 55, "duration": 110, "velocity": 100}, {"time": 43890, "pitch": 60, "duration": 110, "velocity": 100}, {"time": 43890, "pitch": 64, "duration": 110, "velocity": 100}, {"time": 44000, "pitch": 36, "duration": 275, "velocity": 100}, {"time": 44000, "pitch": 48, "duration": 275, "velocity": 100}, {"time": 44220, "pitch": 55, "duration": 220, "velocity": 100}, {"time": 44220, "pitch": 60, "duration": 220, "velocity": 100}, {"time": 44220, "pitch": 64, "duration": 220, "velocity": 100}, {"time": 44330, "pitch": 36, "duration": 55, "velocity": 100}, {"time": 44330, "pitch": 48, "duration": 55, "velocity": 100}, {"time": 44440, "pitch": 36, "duration": 165, "velocity": 100}, {"time": 44440, "pitch": 48, "duration": 220, "velocity": 100}, {"time": 44550, "pitch": 55, "duration": 165, "velocity": 100}, {"time": 44550, "pitch": 60, "duration": 165, "velocity": 100}, {"time": 44550, "pitch": 64, "duration": 165, "velocity": 100}, {"time": 44770, "pitch": 55, "duration": 110, "velocity": 100}, {"time": 44770, "pitch": 60, "duration": 110, "velocity": 100}, {"time": 44770, "pitch": 64, "duration": 110, "velocity": 100}, {"time": 44880, "pitch": 36, "duration": 275, "velocity": 100}, {"time": 44880, "pitch": 43, "duration": 275, "velocity": 100}, {"time": 45100, "pitch": 55, "duration": 275, "velocity": 100}, {"time": 45100, "pitch": 60, "duration": 165, "velocity": 100}, {"time": 45100, "pitch": 64, "duration": 220, "velocity": 100}, {"time": 45210, "pitch": 36, "duration": 55, "velocity": 100}, {"time": 45210, "pitch": 48, "duration": 55, "velocity": 100}, {"time": 45320, "pitch": 36, "duration": 275, "velocity": 100}, {"time": 45320, "pitch": 43, "duration": 275, "velocity": 100}, {"time": 45430, "pitch": 55, "duration": 165, "velocity": 100}, {"time": 45430, "pitch": 60, "duration": 165, "velocity": 100}, {"time": 45430, "pitch": 64, "duration": 165, "velocity": 100}, {"time": 45650, "pitch": 55, "duration": 55, "velocity": 100}, {"time": 45650, "pitch": 60, "duration": 55, "velocity": 100}, {"time": 45650, "pitch": 64, "duration": 55, "velocity": 100}, {"time": 45760, "pitch": 36, "duration": 55, "velocity": 100}, {"time": 45760, "pitch": 48, "duration": 110, "velocity": 100}, {"time": 45870, "pitch": 36, "duration": 110, "velocity": 100}, {"time": 45870, "pitch": 48, "duration": 165, "velocity": 100}, {"time": 45980, "pitch": 55, "duration": 220, "velocity": 100}, {"time": 45980, "pitch": 60, "duration": 220, "velocity": 100}, {"time": 45980, "pitch": 64, "duration": 220, "velocity": 100}, {"time": 46090, "pitch": 36, "duration": 55, "velocity": 100}, {"time": 46090, "pitch": 48, "duration": 55, "velocity": 100}, {"time": 46200, "pitch": 36, "duration": 165, "velocity": 100}, {"time": 46200, "pitch": 48, "duration": 220, "velocity": 100}, {"time": 46310, "pitch": 55, "duration": 165, "velocity": 100}, {"time": 46310, "pitch": 60, "duration": 165, "velocity": 100}, {"time": 46310, "pitch": 64, "duration": 165, "velocity": 100}, {"time": 46530, "pitch": 55, "duration": 110, "velocity": 100}, {"time": 46530, "pitch": 60, "duration": 110, "velocity": 100}, {"time": 46530, "pitch": 64, "duration": 110, "velocity": 100}, {"time": 46640, "pitch": 36, "duration": 55, "velocity": 100}, {"time": 46640, "pitch": 48, "duration": 55, "velocity": 100}, {"time": 46750, "pitch": 36, "duration": 275, "velocity": 100}, {"time": 46750, "pitch": 43, "duration": 275, "velocity": 100}, {"time": 46860, "pitch": 55, "duration": 275, "velocity": 100}, {"time": 46860, "pitch": 60, "duration": 275, "velocity": 100}, {"time": 46970, "pitch": 52, "duration": 55, "velocity": 100}, {"time": 47080, "pitch": 36, "duration": 55, "velocity": 100}, {"time": 47080, "pitch": 48, "duration": 55, "velocity": 100}, {"time": 47190, "pitch": 36, "duration": 165, "velocity": 100}, {"time": 47190, "pitch": 48, "duration": 165, "velocity": 100}, {"time": 47300, "pitch": 60, "duration": 165, "velocity": 100}, {"time": 47410, "pitch": 52, "duration": 110, "velocity": 100}, {"time": 47520, "pitch": 36, "duration": 275, "velocity": 100}, {"time": 47520, "pitch": 48, "duration": 275, "velocity": 100}, {"time": 47740, "pitch": 52, "duration": 275, "velocity": 100}, {"time": 47740, "pitch": 55, "duration": 275, "velocity": 100}, {"time": 47740, "pitch": 60, "duration": 275, "velocity": 100}, {"time": 47850, "pitch": 36, "duration": 55, "velocity": 100}, {"time": 47850, "pitch": 48, "duration": 55, "velocity": 100}, {"time": 47960, "pitch": 36, "duration": 55, "velocity": 100}, {"time": 47960, "pitch": 48, "duration": 55, "velocity": 100}, {"time": 48070, "pitch": 36, "duration": 165, "velocity": 100}, {"time": 48070, "pitch": 48, "duration": 165, "velocity": 100}, {"time": 48180, "pitch": 55, "duration": 220, "velocity": 100}, {"time": 48180, "pitch": 60, "duration": 220, "velocity": 100}, {"time": 48290, "pitch": 52, "duration": 110, "velocity": 100}, {"time": 48400, "pitch": 36, "duration": 275, "velocity": 100}, {"time": 48510, "pitch": 55, "duration": 55, "velocity": 100}, {"time": 48510, "pitch": 60, "duration": 55, "velocity": 100}, {"time": 48620, "pitch": 55, "duration": 220, "velocity": 100}, {"time": 48620, "pitch": 60, "duration": 220, "velocity": 100}, {"time": 48730, "pitch": 55, "duration": 110, "velocity": 100}, {"time": 48840, "pitch": 43, "duration": 275, "velocity": 100}, {"time": 48950, "pitch": 55, "duration": 55, "velocity": 100}, {"time": 48950, "pitch": 60, "duration": 110, "velocity": 100}, {"time": 48950, "pitch": 64, "duration": 55, "velocity": 100}, {"time": 49060, "pitch": 55, "duration": 220, "velocity": 100}, {"time": 49060, "pitch": 60, "duration": 220, "velocity": 100}, {"time": 49280, "pitch": 43, "duration": 275, "velocity": 100}, {"time": 49500, "pitch": 62, "duration": 220, "velocity": 100}, {"time": 49500, "pitch": 67, "duration": 220, "velocity": 100}, {"time": 49500, "pitch": 71, "duration": 220, "velocity": 100}, {"time": 49610, "pitch": 43, "duration": 55, "velocity": 100}, {"time": 49610, "pitch": 55, "duration": 55, "velocity": 100}, {"time": 49720, "pitch": 43, "duration": 385, "velocity": 100}, {"time": 49720, "pitch": 55, "duration": 385, "velocity": 100}, {"time": 49830, "pitch": 62, "duration": 165, "velocity": 100}, {"time": 49830, "pitch": 67, "duration": 165, "velocity": 100}, {"time": 49830, "pitch": 71, "duration": 165, "velocity": 100}, {"time": 50050, "pitch": 62, "duration": 110, "velocity": 100}, {"time": 50050, "pitch": 67, "duration": 110, "velocity": 100}, {"time": 50050, "pitch": 71, "duration": 110, "velocity": 100}, {"time": 50160, "pitch": 43, "duration": 275, "velocity": 100}, {"time": 50160, "pitch": 55, "duration": 275, "velocity": 100}, {"time": 50380, "pitch": 62, "duration": 220, "velocity": 100}, {"time": 50380, "pitch": 67, "duration": 220, "velocity": 100}, {"time": 50380, "pitch": 71, "duration": 165, "velocity": 100}, {"time": 50490, "pitch": 43, "duration": 55, "velocity": 100}, {"time": 50490, "pitch": 55, "duration": 55, "velocity": 100}, {"time": 50600, "pitch": 43, "duration": 385, "velocity": 100}, {"time": 50600, "pitch": 55, "duration": 385, "velocity": 100}, {"time": 50710, "pitch": 62, "duration": 165, "velocity": 100}, {"time": 50710, "pitch": 67, "duration": 165, "velocity": 100}, {"time": 50710, "pitch": 71, "duration": 165, "velocity": 100}, {"time": 50930, "pitch": 62, "duration": 110, "velocity": 100}, {"time": 50930, "pitch": 67, "duration": 110, "velocity": 100}, {"time": 50930, "pitch": 71, "duration": 110, "velocity": 100}, {"time": 51040, "pitch": 43, "duration": 220, "velocity": 100}, {"time": 51040, "pitch": 55, "duration": 275, "velocity": 100}, {"time": 51260, "pitch": 62, "duration": 220, "velocity": 100}, {"time": 51260, "pitch": 67, "duration": 220, "velocity": 100}, {"time": 51260, "pitch": 71, "duration": 165, "velocity": 100}, {"time": 51370, "pitch": 43, "duration": 55, "velocity": 100}, {"time": 51370, "pitch": 55, "duration": 55, "velocity": 100}, {"time": 51480, "pitch": 43, "duration": 165, "velocity": 100}, {"time": 51480, "pitch": 55, "duration": 220, "velocity": 100}, {"time": 51590, "pitch": 62, "duration": 165, "velocity": 100}, {"time": 51590, "pitch": 67, "duration": 165, "velocity": 100}, {"time": 51590, "pitch": 71, "duration": 165, "velocity": 100}, {"time": 51810, "pitch": 62, "duration": 110, "velocity": 100}, {"time": 51810, "pitch": 67, "duration": 110, "velocity": 100}, {"time": 51810, "pitch": 71, "duration": 110, "velocity": 100}, {"time": 51920, "pitch": 43, "duration": 275, "velocity": 100}, {"time": 51920, "pitch": 50, "duration": 275, "velocity": 100}, {"time": 52140, "pitch": 62, "duration": 275, "velocity": 100}, {"time": 52140, "pitch": 67, "duration": 275, "velocity": 100}, {"time": 52140, "pitch": 71, "duration": 275, "velocity": 100}, {"time": 52250, "pitch": 43, "duration": 55, "velocity": 100}, {"time": 52250, "pitch": 50, "duration": 55, "velocity": 100}, {"time": 52360, "pitch": 43, "duration": 55, "velocity": 100}, {"time": 52360, "pitch": 50, "duration": 55, "velocity": 100}, {"time": 52470, "pitch": 43, "duration": 220, "velocity": 100}, {"time": 52470, "pitch": 50, "duration": 165, "velocity": 100}, {"time": 52580, "pitch": 67, "duration": 220, "velocity": 100}, {"time": 52580, "pitch": 69, "duration": 220, "velocity": 100}, {"time": 52690, "pitch": 62, "duration": 110, "velocity": 100}, {"time": 52800, "pitch": 43, "duration": 275, "velocity": 100}, {"time": 52800, "pitch": 55, "duration": 275, "velocity": 100}, {"time": 53020, "pitch": 62, "duration": 220, "velocity": 100}, {"time": 53020, "pitch": 67, "duration": 220, "velocity": 100}, {"time": 53020, "pitch": 71, "duration": 220, "velocity": 100}, {"time": 53130, "pitch": 43, "duration": 55, "velocity": 100}, {"time": 53130, "pitch": 55, "duration": 55, "velocity": 100}, {"time": 53240, "pitch": 43, "duration": 220, "velocity": 100}, {"time": 53240, "pitch": 55, "duration": 220, "velocity": 100}, {"time": 53350, "pitch": 62, "duration": 165, "velocity": 100}, {"time": 53350, "pitch": 67, "duration": 165, "velocity": 100}, {"time": 53350, "pitch": 71, "duration": 165, "velocity": 100}, {"time": 53570, "pitch": 62, "duration": 110, "velocity": 100}, {"time": 53570, "pitch": 67, "duration": 110, "velocity": 100}, {"time": 53570, "pitch": 71, "duration": 110, "velocity": 100}, {"time": 53680, "pitch": 43, "duration": 275, "velocity": 100}, {"time": 53680, "pitch": 55, "duration": 275, "velocity": 100}, {"time": 53900, "pitch": 59, "duration": 220, "velocity": 100}, {"time": 53900, "pitch": 62, "duration": 220, "velocity": 100}, {"time": 53900, "pitch": 67, "duration": 220, "velocity": 100}, {"time": 54010, "pitch": 43, "duration": 55, "velocity": 100}, {"time": 54010, "pitch": 50, "duration": 55, "velocity": 100}, {"time": 54120, "pitch": 43, "duration": 165, "velocity": 100}, {"time": 54120, "pitch": 55, "duration": 220, "velocity": 100}, {"time": 54230, "pitch": 59, "duration": 165, "velocity": 100}, {"time": 54230, "pitch": 62, "duration": 165, "velocity": 100}, {"time": 54230, "pitch": 67, "duration": 165, "velocity": 100}, {"time": 54450, "pitch": 59, "duration": 110, "velocity": 100}, {"time": 54450, "pitch": 62, "duration": 110, "velocity": 100}, {"time": 54450, "pitch": 67, "duration": 110, "velocity": 100}, {"time": 54560, "pitch": 43, "duration": 275, "velocity": 100}, {"time": 54560, "pitch": 55, "duration": 275, "velocity": 100}, {"time": 54780, "pitch": 59, "duration": 165, "velocity": 100}, {"time": 54780, "pitch": 62, "duration": 165, "velocity": 100}, {"time": 54780, "pitch": 67, "duration": 165, "velocity": 100}, {"time": 54890, "pitch": 43, "duration": 55, "velocity": 100}, {"time": 54890, "pitch": 55, "duration": 55, "velocity": 100}, {"time": 55000, "pitch": 43, "duration": 275, "velocity": 100}, {"time": 55000, "pitch": 55, "duration": 275, "velocity": 100}, {"time": 55110, "pitch": 59, "duration": 165, "velocity": 100}, {"time": 55110, "pitch": 62, "duration": 165, "velocity": 100}, {"time": 55110, "pitch": 67, "duration": 165, "velocity": 100}, {"time": 55330, "pitch": 62, "duration": 55, "velocity": 100}, {"time": 55330, "pitch": 67, "duration": 55, "velocity": 100}, {"time": 55330, "pitch": 71, "duration": 55, "velocity": 100}, {"time": 55440, "pitch": 43, "duration": 55, "velocity": 100}, {"time": 55440, "pitch": 59, "duration": 55, "velocity": 100}, {"time": 55440, "pitch": 62, "duration": 55, "velocity": 100}, {"time": 55440, "pitch": 67, "duration": 55, "velocity": 100}, {"time": 55550, "pitch": 43, "duration": 110, "velocity": 100}, {"time": 55550, "pitch": 59, "duration": 165, "velocity": 100}, {"time": 55550, "pitch": 62, "duration": 165, "velocity": 100}, {"time": 55550, "pitch": 67, "duration": 165, "velocity": 100}, {"time": 55770, "pitch": 59, "duration": 55, "velocity": 100}, {"time": 55770, "pitch": 62, "duration": 55, "velocity": 100}, {"time": 55770, "pitch": 67, "duration": 55, "velocity": 100}, {"time": 55880, "pitch": 43, "duration": 275, "velocity": 100}, {"time": 55880, "pitch": 50, "duration": 385, "velocity": 100}, {"time": 55990, "pitch": 62, "duration": 165, "velocity": 100}, {"time": 55990, "pitch": 67, "duration": 165, "velocity": 100}, {"time": 55990, "pitch": 71, "duration": 165, "velocity": 100}, {"time": 56210, "pitch": 62, "duration": 110, "velocity": 100}, {"time": 56210, "pitch": 67, "duration": 110, "velocity": 100}, {"time": 56320, "pitch": 50, "duration": 220, "velocity": 100}, {"time": 56320, "pitch": 69, "duration": 55, "velocity": 100}, {"time": 56430, "pitch": 62, "duration": 110, "velocity": 100}, {"time": 56430, "pitch": 66, "duration": 110, "velocity": 100}, {"time": 56430, "pitch": 69, "duration": 110, "velocity": 100}, {"time": 56430, "pitch": 71, "duration": 110, "velocity": 100}, {"time": 56430, "pitch": 74, "duration": 55, "velocity": 100}, {"time": 56540, "pitch": 50, "duration": 110, "velocity": 100}, {"time": 56540, "pitch": 69, "duration": 110, "velocity": 100}, {"time": 56650, "pitch": 62, "duration": 55, "velocity": 100}, {"time": 56650, "pitch": 66, "duration": 110, "velocity": 100}, {"time": 56650, "pitch": 69, "duration": 110, "velocity": 100}, {"time": 56760, "pitch": 62, "duration": 220, "velocity": 100}, {"time": 56760, "pitch": 66, "duration": 660, "velocity": 100}, {"time": 56760, "pitch": 69, "duration": 440, "velocity": 100}, {"time": 56870, "pitch": 62, "duration": 440, "velocity": 100}, {"time": 56980, "pitch": 69, "duration": 330, "velocity": 100}, {"time": 56980, "pitch": 72, "duration": 220, "velocity": 100}, {"time": 57090, "pitch": 62, "duration": 550, "velocity": 100}, {"time": 57200, "pitch": 66, "duration": 605, "velocity": 100}, {"time": 57200, "pitch": 69, "duration": 330, "velocity": 100}, {"time": 57310, "pitch": 64, "duration": 110, "velocity": 100}, {"time": 57420, "pitch": 69, "duration": 220, "velocity": 100}, {"time": 57420, "pitch": 71, "duration": 220, "velocity": 100}, {"time": 57530, "pitch": 64, "duration": 55, "velocity": 100}, {"time": 57640, "pitch": 50, "duration": 275, "velocity": 100}, {"time": 57640, "pitch": 57, "duration": 165, "velocity": 100}, {"time": 57640, "pitch": 62, "duration": 165, "velocity": 100}, {"time": 57640, "pitch": 66, "duration": 330, "velocity": 100}, {"time": 57750, "pitch": 54, "duration": 165, "velocity": 100}, {"time": 57860, "pitch": 62, "duration": 55, "velocity": 100}, {"time": 57860, "pitch": 66, "duration": 220, "velocity": 100}, {"time": 57860, "pitch": 69, "duration": 110, "velocity": 100}, {"time": 57970, "pitch": 57, "duration": 55, "velocity": 100}, {"time": 58080, "pitch": 50, "duration": 330, "velocity": 100}, {"time": 58080, "pitch": 62, "duration": 110, "velocity": 100}, {"time": 58080, "pitch": 66, "duration": 110, "velocity": 100}, {"time": 58190, "pitch": 57, "duration": 165, "velocity": 100}, {"time": 58300, "pitch": 62, "duration": 110, "velocity": 100}, {"time": 58300, "pitch": 69, "duration": 110, "velocity": 100}, {"time": 58410, "pitch": 62, "duration": 110, "velocity": 100}, {"time": 58520, "pitch": 50, "duration": 825, "velocity": 100}, {"time": 58520, "pitch": 62, "duration": 55, "velocity": 100}, {"time": 58520, "pitch": 66, "duration": 110, "velocity": 100}, {"time": 58630, "pitch": 57, "duration": 165, "velocity": 100}, {"time": 58740, "pitch": 62, "duration": 110, "velocity": 100}, {"time": 58740, "pitch": 66, "duration": 110, "velocity": 100}, {"time": 58850, "pitch": 62, "duration": 55, "velocity": 100}, {"time": 58960, "pitch": 62, "duration": 110, "velocity": 100}, {"time": 58960, "pitch": 66, "duration": 110, "velocity": 100}, {"time": 58960, "pitch": 69, "duration": 110, "velocity": 100}, {"time": 59070, "pitch": 57, "duration": 220, "velocity": 100}, {"time": 59180, "pitch": 62, "duration": 110, "velocity": 100}, {"time": 59180, "pitch": 66, "duration": 110, "velocity": 100}, {"time": 59180, "pitch": 69, "duration": 110, "velocity": 100}, {"time": 59290, "pitch": 62, "duration": 55, "velocity": 100}, {"time": 59400, "pitch": 50, "duration": 330, "velocity": 100}, {"time": 59400, "pitch": 62, "duration": 110, "velocity": 100}, {"time": 59400, "pitch": 66, "duration": 110, "velocity": 100}, {"time": 59400, "pitch": 76, "duration": 55, "velocity": 100}, {"time": 59510, "pitch": 54, "duration": 165, "velocity": 100}, {"time": 59510, "pitch": 76, "duration": 55, "velocity": 100}, {"time": 59565, "pitch": 76, "duration": 55, "velocity": 100}, {"time": 59620, "pitch": 62, "duration": 110, "velocity": 100}, {"time": 59620, "pitch": 66, "duration": 110, "velocity": 100}, {"time": 59620, "pitch": 69, "duration": 110, "velocity": 100}, {"time": 59620, "pitch": 76, "duration": 110, "velocity": 100}, {"time": 59730, "pitch": 57, "duration": 110, "velocity": 100}, {"time": 59730, "pitch": 71, "duration": 110, "velocity": 100}, {"time": 59840, "pitch": 50, "duration": 275, "velocity": 100}, {"time": 59840, "pitch": 57, "duration": 55, "velocity": 100}, {"time": 59840, "pitch": 62, "duration": 110, "velocity": 100}, {"time": 59840, "pitch": 69, "duration": 220, "velocity": 100}, {"time": 59950, "pitch": 57, "duration": 165, "velocity": 100}, {"time": 59950, "pitch": 69, "duration": 110, "velocity": 100}, {"time": 60060, "pitch": 62, "duration": 55, "velocity": 100}, {"time": 60060, "pitch": 66, "duration": 220, "velocity": 100}, {"time": 60060, "pitch": 69, "duration": 660, "velocity": 100}, {"time": 60060, "pitch": 74, "duration": 1100, "velocity": 100}, {"time": 60170, "pitch": 62, "duration": 55, "velocity": 100}, {"time": 60280, "pitch": 50, "duration": 715, "velocity": 100}, {"time": 60280, "pitch": 62, "duration": 55, "velocity": 100}, {"time": 60280, "pitch": 66, "duration": 220, "velocity": 100}, {"time": 60390, "pitch": 62, "duration": 110, "velocity": 100}, {"time": 60500, "pitch": 64, "duration": 220, "velocity": 100}, {"time": 60500, "pitch": 66, "duration": 220, "velocity": 100}, {"time": 60610, "pitch": 62, "duration": 165, "velocity": 100}, {"time": 60720, "pitch": 66, "duration": 220, "velocity": 100}, {"time": 60720, "pitch": 69, "duration": 220, "velocity": 100}, {"time": 60830, "pitch": 62, "duration": 110, "velocity": 100}, {"time": 60940, "pitch": 62, "duration": 110, "velocity": 100}, {"time": 60940, "pitch": 69, "duration": 220, "velocity": 100}, {"time": 61050, "pitch": 59, "duration": 110, "velocity": 100}, {"time": 61160, "pitch": 50, "duration": 330, "velocity": 100}, {"time": 61160, "pitch": 62, "duration": 110, "velocity": 100}, {"time": 61160, "pitch": 66, "duration": 110, "velocity": 100}, {"time": 61270, "pitch": 57, "duration": 110, "velocity": 100}, {"time": 61380, "pitch": 62, "duration": 55, "velocity": 100}, {"time": 61380, "pitch": 66, "duration": 110, "velocity": 100}, {"time": 61380, "pitch": 69, "duration": 110, "velocity": 100}, {"time": 61490, "pitch": 62, "duration": 55, "velocity": 100}, {"time": 61600, "pitch": 50, "duration": 385, "velocity": 100}, {"time": 61600, "pitch": 62, "duration": 165, "velocity": 100}, {"time": 61600, "pitch": 66, "duration": 165, "velocity": 100}, {"time": 61710, "pitch": 57, "duration": 110, "velocity": 100}, {"time": 61820, "pitch": 62, "duration": 110, "velocity": 100}, {"time": 61820, "pitch": 66, "duration": 110, "velocity": 100}, {"time": 61930, "pitch": 57, "duration": 55, "velocity": 100}, {"time": 62040, "pitch": 50, "duration": 55, "velocity": 100}, {"time": 62040, "pitch": 62, "duration": 55, "velocity": 100}, {"time": 62040, "pitch": 66, "duration": 55, "velocity": 100}, {"time": 62150, "pitch": 50, "duration": 55, "velocity": 100}, {"time": 62150, "pitch": 57, "duration": 55, "velocity": 100}, {"time": 62150, "pitch": 62, "duration": 55, "velocity": 100}, {"time": 62150, "pitch": 66, "duration": 55, "velocity": 100}, {"time": 62205, "pitch": 50, "duration": 55, "velocity": 100}, {"time": 62205, "pitch": 62, "duration": 55, "velocity": 100}, {"time": 62260, "pitch": 50, "duration": 55, "velocity": 100}, {"time": 62260, "pitch": 62, "duration": 55, "velocity": 100}, {"time": 62260, "pitch": 66, "duration": 55, "velocity": 100}, {"time": 62260, "pitch": 86, "duration": 110, "velocity": 100}, {"time": 62370, "pitch": 50, "duration": 55, "velocity": 100}, {"time": 62370, "pitch": 57, "duration": 55, "velocity": 100}, {"time": 62370, "pitch": 66, "duration": 55, "velocity": 100}, {"time": 62370, "pitch": 83, "duration": 110, "velocity": 100}, {"time": 62480, "pitch": 45, "duration": 55, "velocity": 100}, {"time": 62480, "pitch": 57, "duration": 55, "velocity": 100}, {"time": 62480, "pitch": 62, "duration": 55, "velocity": 100}, {"time": 62480, "pitch": 81, "duration": 385, "velocity": 100}, {"time": 62920, "pitch": 50, "duration": 440, "velocity": 100}, {"time": 62920, "pitch": 66, "duration": 55, "velocity": 100}, {"time": 62920, "pitch": 69, "duration": 110, "velocity": 100}, {"time": 63030, "pitch": 62, "duration": 110, "velocity": 100}, {"time": 63140, "pitch": 69, "duration": 110, "velocity": 100}, {"time": 63140, "pitch": 74, "duration": 110, "velocity": 100}, {"time": 63250, "pitch": 62, "duration": 110, "velocity": 100}, {"time": 63250, "pitch": 74, "duration": 55, "velocity": 100}, {"time": 63305, "pitch": 78, "duration": 55, "velocity": 100}, {"time": 63360, "pitch": 54, "duration": 55, "velocity": 100}, {"time": 63360, "pitch": 71, "duration": 165, "velocity": 100}, {"time": 63470, "pitch": 45, "duration": 110, "velocity": 100}, {"time": 63525, "pitch": 50, "duration": 55, "velocity": 100}, {"time": 63580, "pitch": 50, "duration": 55, "velocity": 100}, {"time": 63580, "pitch": 54, "duration": 55, "velocity": 100}, {"time": 63580, "pitch": 67, "duration": 220, "velocity": 100}, {"time": 63635, "pitch": 45, "duration": 55, "velocity": 100}, {"time": 63690, "pitch": 50, "duration": 55, "velocity": 100}, {"time": 63800, "pitch": 43, "duration": 275, "velocity": 100}, {"time": 63800, "pitch": 50, "duration": 165, "velocity": 100}, {"time": 63800, "pitch": 55, "duration": 165, "velocity": 100}, {"time": 63910, "pitch": 47, "duration": 165, "velocity": 100}, {"time": 64020, "pitch": 59, "duration": 110, "velocity": 100}, {"time": 64130, "pitch": 62, "duration": 55, "velocity": 100}, {"time": 64240, "pitch": 43, "duration": 385, "velocity": 100}, {"time": 64240, "pitch": 55, "duration": 110, "velocity": 100}, {"time": 64240, "pitch": 59, "duration": 110, "velocity": 100}, {"time": 64350, "pitch": 50, "duration": 165, "velocity": 100}, {"time": 64460, "pitch": 55, "duration": 55, "velocity": 100}, {"time": 64460, "pitch": 59, "duration": 55, "velocity": 100}, {"time": 64680, "pitch": 43, "duration": 275, "velocity": 100}, {"time": 64680, "pitch": 55, "duration": 55, "velocity": 100}, {"time": 64680, "pitch": 59, "duration": 220, "velocity": 100}, {"time": 64790, "pitch": 55, "duration": 110, "velocity": 100}, {"time": 64900, "pitch": 62, "duration": 110, "velocity": 100}, {"time": 65010, "pitch": 55, "duration": 55, "velocity": 100}, {"time": 65120, "pitch": 43, "duration": 275, "velocity": 100}, {"time": 65120, "pitch": 55, "duration": 165, "velocity": 100}, {"time": 65120, "pitch": 59, "duration": 165, "velocity": 100}, {"time": 65230, "pitch": 50, "duration": 165, "velocity": 100}, {"time": 65340, "pitch": 55, "duration": 55, "velocity": 100}, {"time": 65560, "pitch": 43, "duration": 330, "velocity": 100}, {"time": 65560, "pitch": 59, "duration": 220, "velocity": 100}, {"time": 65560, "pitch": 62, "duration": 440, "velocity": 100}, {"time": 65670, "pitch": 50, "duration": 220, "velocity": 100}, {"time": 65780, "pitch": 55, "duration": 110, "velocity": 100}, {"time": 66000, "pitch": 43, "duration": 275, "velocity": 100}, {"time": 66000, "pitch": 55, "duration": 220, "velocity": 100}, {"time": 66000, "pitch": 59, "duration": 220, "velocity": 100}, {"time": 66110, "pitch": 47, "duration": 165, "velocity": 100}, {"time": 66220, "pitch": 62, "duration": 220, "velocity": 100}, {"time": 66330, "pitch": 55, "duration": 110, "velocity": 100}, {"time": 66440, "pitch": 43, "duration": 275, "velocity": 100}, {"time": 66440, "pitch": 55, "duration": 55, "velocity": 100}, {"time": 66440, "pitch": 59, "duration": 220, "velocity": 100}, {"time": 66550, "pitch": 55, "duration": 110, "velocity": 100}, {"time": 66660, "pitch": 62, "duration": 165, "velocity": 100}, {"time": 66880, "pitch": 55, "duration": 165, "velocity": 100}, {"time": 66880, "pitch": 60, "duration": 220, "velocity": 100}, {"time": 66880, "pitch": 72, "duration": 220, "velocity": 100}, {"time": 67100, "pitch": 55, "duration": 55, "velocity": 100}, {"time": 67100, "pitch": 60, "duration": 55, "velocity": 100}, {"time": 67100, "pitch": 81, "duration": 165, "velocity": 100}, {"time": 67100, "pitch": 88, "duration": 165, "velocity": 100}, {"time": 67155, "pitch": 55, "duration": 55, "velocity": 100}, {"time": 67210, "pitch": 55, "duration": 55, "velocity": 100}, {"time": 67265, "pitch": 55, "duration": 55, "velocity": 100}, {"time": 67320, "pitch": 36, "duration": 275, "velocity": 100}, {"time": 67320, "pitch": 52, "duration": 55, "velocity": 100}, {"time": 67320, "pitch": 60, "duration": 110, "velocity": 100}, {"time": 67320, "pitch": 79, "duration": 440, "velocity": 100}, {"time": 67320, "pitch": 84, "duration": 440, "velocity": 100}, {"time": 67430, "pitch": 48, "duration": 165, "velocity": 100}, {"time": 67540, "pitch": 60, "duration": 110, "velocity": 100}, {"time": 67650, "pitch": 64, "duration": 55, "velocity": 100}, {"time": 67760, "pitch": 48, "duration": 385, "velocity": 100}, {"time": 67760, "pitch": 55, "duration": 165, "velocity": 100}, {"time": 67760, "pitch": 60, "duration": 165, "velocity": 100}, {"time": 67870, "pitch": 55, "duration": 165, "velocity": 100}, {"time": 67980, "pitch": 60, "duration": 55, "velocity": 100}, {"time": 67980, "pitch": 64, "duration": 110, "velocity": 100}, {"time": 68200, "pitch": 52, "duration": 330, "velocity": 100}, {"time": 68200, "pitch": 60, "duration": 55, "velocity": 100}, {"time": 68200, "pitch": 64, "duration": 110, "velocity": 100}, {"time": 68310, "pitch": 60, "duration": 110, "velocity": 100}, {"time": 68420, "pitch": 67, "duration": 110, "velocity": 100}, {"time": 68530, "pitch": 60, "duration": 55, "velocity": 100}, {"time": 68640, "pitch": 48, "duration": 330, "velocity": 100}, {"time": 68640, "pitch": 60, "duration": 165, "velocity": 100}, {"time": 68640, "pitch": 64, "duration": 110, "velocity": 100}, {"time": 68750, "pitch": 55, "duration": 165, "velocity": 100}, {"time": 68860, "pitch": 60, "duration": 55, "velocity": 100}, {"time": 69080, "pitch": 48, "duration": 330, "velocity": 100}, {"time": 69080, "pitch": 64, "duration": 220, "velocity": 100}, {"time": 69080, "pitch": 67, "duration": 440, "velocity": 100}, {"time": 69190, "pitch": 55, "duration": 220, "velocity": 100}, {"time": 69300, "pitch": 60, "duration": 110, "velocity": 100}, {"time": 69520, "pitch": 36, "duration": 275, "velocity": 100}, {"time": 69520, "pitch": 55, "duration": 220, "velocity": 100}, {"time": 69520, "pitch": 60, "duration": 220, "velocity": 100}, {"time": 69630, "pitch": 48, "duration": 165, "velocity": 100}, {"time": 69740, "pitch": 64, "duration": 220, "velocity": 100}, {"time": 69850, "pitch": 55, "duration": 110, "velocity": 100}, {"time": 69960, "pitch": 48, "duration": 275, "velocity": 100}, {"time": 69960, "pitch": 60, "duration": 55, "velocity": 100}, {"time": 69960, "pitch": 64, "duration": 220, "velocity": 100}, {"time": 70070, "pitch": 60, "duration": 110, "velocity": 100}, {"time": 70180, "pitch": 67, "duration": 165, "velocity": 100}, {"time": 70400, "pitch": 48, "duration": 220, "velocity": 100}, {"time": 70400, "pitch": 60, "duration": 110, "velocity": 100}, {"time": 70400, "pitch": 67, "duration": 110, "velocity": 100}, {"time": 70510, "pitch": 55, "duration": 110, "velocity": 100}, {"time": 70620, "pitch": 55, "duration": 55, "velocity": 100}, {"time": 70620, "pitch": 60, "duration": 55, "velocity": 100}, {"time": 70620, "pitch": 64, "duration": 110, "velocity": 100}, {"time": 70730, "pitch": 60, "duration": 55, "velocity": 100}, {"time": 70840, "pitch": 48, "duration": 330, "velocity": 100}, {"time": 70840, "pitch": 55, "duration": 220, "velocity": 100}, {"time": 70840, "pitch": 64, "duration": 330, "velocity": 100}, {"time": 70895, "pitch": 88, "duration": 55, "velocity": 100}, {"time": 70950, "pitch": 52, "duration": 220, "velocity": 100}, {"time": 70950, "pitch": 84, "duration": 55, "velocity": 100}, {"time": 71005, "pitch": 88, "duration": 55, "velocity": 100}, {"time": 71060, "pitch": 64, "duration": 110, "velocity": 100}, {"time": 71060, "pitch": 88, "duration": 55, "velocity": 100}, {"time": 71115, "pitch": 88, "duration": 55, "velocity": 100}, {"time": 71170, "pitch": 91, "duration": 55, "velocity": 100}, {"time": 71280, "pitch": 48, "duration": 330, "velocity": 100}, {"time": 71280, "pitch": 60, "duration": 220, "velocity": 100}, {"time": 71280, "pitch": 64, "duration": 220, "velocity": 100}, {"time": 71280, "pitch": 88, "duration": 220, "velocity": 100}, {"time": 71390, "pitch": 55, "duration": 220, "velocity": 100}, {"time": 71500, "pitch": 67, "duration": 110, "velocity": 100}, {"time": 71500, "pitch": 72, "duration": 110, "velocity": 100}, {"time": 71610, "pitch": 64, "duration": 110, "velocity": 100}, {"time": 71610, "pitch": 72, "duration": 110, "velocity": 100}, {"time": 71720, "pitch": 48, "duration": 275, "velocity": 100}, {"time": 71720, "pitch": 67, "duration": 330, "velocity": 100}, {"time": 71830, "pitch": 55, "duration": 165, "velocity": 100}, {"time": 71940, "pitch": 60, "duration": 110, "velocity": 100}, {"time": 71940, "pitch": 67, "duration": 220, "velocity": 100}, {"time": 72160, "pitch": 48, "duration": 275, "velocity": 100}, {"time": 72160, "pitch": 60, "duration": 165, "velocity": 100}, {"time": 72160, "pitch": 64, "duration": 220, "velocity": 100}, {"time": 72160, "pitch": 67, "duration": 220, "velocity": 100}, {"time": 72270, "pitch": 55, "duration": 165, "velocity": 100}, {"time": 72380, "pitch": 64, "duration": 110, "velocity": 100}, {"time": 72380, "pitch": 67, "duration": 110, "velocity": 100}, {"time": 72490, "pitch": 60, "duration": 110, "velocity": 100}, {"time": 72490, "pitch": 64, "duration": 55, "velocity": 100}, {"time": 72600, "pitch": 48, "duration": 330, "velocity": 100}, {"time": 72600, "pitch": 64, "duration": 275, "velocity": 100}, {"time": 72710, "pitch": 55, "duration": 165, "velocity": 100}, {"time": 72820, "pitch": 64, "duration": 220, "velocity": 100}, {"time": 72820, "pitch": 67, "duration": 55, "velocity": 100}, {"time": 73040, "pitch": 48, "duration": 330, "velocity": 100}, {"time": 73040, "pitch": 60, "duration": 165, "velocity": 100}, {"time": 73040, "pitch": 64, "duration": 220, "velocity": 100}, {"time": 73150, "pitch": 55, "duration": 275, "velocity": 100}, {"time": 73150, "pitch": 60, "duration": 110, "velocity": 100}, {"time": 73260, "pitch": 60, "duration": 55, "velocity": 100}, {"time": 73260, "pitch": 64, "duration": 55, "velocity": 100}, {"time": 73315, "pitch": 67, "duration": 55, "velocity": 100}, {"time": 73370, "pitch": 64, "duration": 55, "velocity": 100}, {"time": 73370, "pitch": 72, "duration": 55, "velocity": 100}, {"time": 73425, "pitch": 72, "duration": 55, "velocity": 100}, {"time": 73480, "pitch": 48, "duration": 330, "velocity": 100}, {"time": 73480, "pitch": 60, "duration": 165, "velocity": 100}, {"time": 73480, "pitch": 64, "duration": 165, "velocity": 100}, {"time": 73480, "pitch": 67, "duration": 330, "velocity": 100}, {"time": 73590, "pitch": 55, "duration": 165, "velocity": 100}, {"time": 73700, "pitch": 60, "duration": 110, "velocity": 100}, {"time": 73700, "pitch": 67, "duration": 220, "velocity": 100}, {"time": 73810, "pitch": 60, "duration": 55, "velocity": 100}, {"time": 73920, "pitch": 31, "duration": 275, "velocity": 100}, {"time": 73920, "pitch": 55, "duration": 55, "velocity": 100}, {"time": 73920, "pitch": 59, "duration": 110, "velocity": 100}, {"time": 74030, "pitch": 55, "duration": 55, "velocity": 100}, {"time": 74140, "pitch": 59, "duration": 110, "velocity": 100}, {"time": 74140, "pitch": 62, "duration": 110, "velocity": 100}, {"time": 74250, "pitch": 55, "duration": 55, "velocity": 100}, {"time": 74360, "pitch": 31, "duration": 385, "velocity": 100}, {"time": 74360, "pitch": 50, "duration": 110, "velocity": 100}, {"time": 74360, "pitch": 55, "duration": 110, "velocity": 100}, {"time": 74470, "pitch": 45, "duration": 275, "velocity": 100}, {"time": 74580, "pitch": 50, "duration": 55, "velocity": 100}, {"time": 74580, "pitch": 55, "duration": 110, "velocity": 100}, {"time": 74580, "pitch": 59, "duration": 110, "velocity": 100}, {"time": 74690, "pitch": 50, "duration": 55, "velocity": 100}, {"time": 74800, "pitch": 31, "duration": 275, "velocity": 100}, {"time": 74800, "pitch": 47, "duration": 55, "velocity": 100}, {"time": 74800, "pitch": 50, "duration": 110, "velocity": 100}, {"time": 74910, "pitch": 38, "duration": 165, "velocity": 100}, {"time": 75020, "pitch": 47, "duration": 55, "velocity": 100}, {"time": 75020, "pitch": 50, "duration": 55, "velocity": 100}, {"time": 75020, "pitch": 55, "duration": 55, "velocity": 100}, {"time": 75130, "pitch": 47, "duration": 55, "velocity": 100}, {"time": 75240, "pitch": 43, "duration": 275, "velocity": 100}, {"time": 75240, "pitch": 50, "duration": 110, "velocity": 100}, {"time": 75240, "pitch": 55, "duration": 110, "velocity": 100}, {"time": 75350, "pitch": 43, "duration": 165, "velocity": 100}, {"time": 75460, "pitch": 50, "duration": 55, "velocity": 100}, {"time": 75460, "pitch": 55, "duration": 55, "velocity": 100}, {"time": 75460, "pitch": 59, "duration": 55, "velocity": 100}, {"time": 75460, "pitch": 67, "duration": 110, "velocity": 100}, {"time": 75570, "pitch": 69, "duration": 110, "velocity": 100}, {"time": 75680, "pitch": 31, "duration": 385, "velocity": 100}, {"time": 75680, "pitch": 47, "duration": 110, "velocity": 100}, {"time": 75680, "pitch": 55, "duration": 110, "velocity": 100}, {"time": 75680, "pitch": 71, "duration": 220, "velocity": 100}, {"time": 75790, "pitch": 38, "duration": 275, "velocity": 100}, {"time": 75900, "pitch": 50, "duration": 55, "velocity": 100}, {"time": 75900, "pitch": 55, "duration": 55, "velocity": 100}, {"time": 75900, "pitch": 79, "duration": 220, "velocity": 100}, {"time": 76010, "pitch": 50, "duration": 165, "velocity": 100}, {"time": 76120, "pitch": 31, "duration": 220, "velocity": 100}, {"time": 76120, "pitch": 55, "duration": 110, "velocity": 100}, {"time": 76120, "pitch": 59, "duration": 110, "velocity": 100}, {"time": 76120, "pitch": 71, "duration": 440, "velocity": 100}, {"time": 76230, "pitch": 38, "duration": 165, "velocity": 100}, {"time": 76230, "pitch": 50, "duration": 55, "velocity": 100}, {"time": 76340, "pitch": 55, "duration": 55, "velocity": 100}, {"time": 76340, "pitch": 59, "duration": 55, "velocity": 100}, {"time": 76560, "pitch": 31, "duration": 220, "velocity": 100}, {"time": 76560, "pitch": 55, "duration": 110, "velocity": 100}, {"time": 76560, "pitch": 62, "duration": 110, "velocity": 100}, {"time": 76560, "pitch": 69, "duration": 440, "velocity": 100}, {"time": 76615, "pitch": 50, "duration": 55, "velocity": 100}, {"time": 76780, "pitch": 50, "duration": 55, "velocity": 100}, {"time": 76780, "pitch": 55, "duration": 110, "velocity": 100}, {"time": 76780, "pitch": 59, "duration": 110, "velocity": 100}, {"time": 76890, "pitch": 50, "duration": 55, "velocity": 100}, {"time": 76890, "pitch": 64, "duration": 110, "velocity": 100}, {"time": 77000, "pitch": 31, "duration": 275, "velocity": 100}, {"time": 77000, "pitch": 50, "duration": 55, "velocity": 100}, {"time": 77000, "pitch": 55, "duration": 110, "velocity": 100}, {"time": 77000, "pitch": 59, "duration": 110, "velocity": 100}, {"time": 77000, "pitch": 69, "duration": 110, "velocity": 100}, {"time": 77110, "pitch": 50, "duration": 55, "velocity": 100}, {"time": 77110, "pitch": 64, "duration": 110, "velocity": 100}, {"time": 77220, "pitch": 55, "duration": 110, "velocity": 100}, {"time": 77220, "pitch": 59, "duration": 220, "velocity": 100}, {"time": 77220, "pitch": 62, "duration": 220, "velocity": 100}, {"time": 77330, "pitch": 50, "duration": 55, "velocity": 100}, {"time": 77440, "pitch": 43, "duration": 275, "velocity": 100}, {"time": 77440, "pitch": 50, "duration": 110, "velocity": 100}, {"time": 77440, "pitch": 55, "duration": 110, "velocity": 100}, {"time": 77440, "pitch": 62, "duration": 330, "velocity": 100}, {"time": 77550, "pitch": 47, "duration": 165, "velocity": 100}, {"time": 77660, "pitch": 50, "duration": 55, "velocity": 100}, {"time": 77660, "pitch": 55, "duration": 110, "velocity": 100}, {"time": 77660, "pitch": 59, "duration": 110, "velocity": 100}, {"time": 77770, "pitch": 50, "duration": 55, "velocity": 100}, {"time": 77770, "pitch": 67, "duration": 110, "velocity": 100}, {"time": 77880, "pitch": 43, "duration": 330, "velocity": 100}, {"time": 77880, "pitch": 55, "duration": 55, "velocity": 100}, {"time": 77880, "pitch": 59, "duration": 165, "velocity": 100}, {"time": 77990, "pitch": 50, "duration": 165, "velocity": 100}, {"time": 77990, "pitch": 60, "duration": 110, "velocity": 100}, {"time": 78100, "pitch": 55, "duration": 55, "velocity": 100}, {"time": 78100, "pitch": 59, "duration": 110, "velocity": 100}, {"time": 78100, "pitch": 62, "duration": 110, "velocity": 100}, {"time": 78100, "pitch": 64, "duration": 110, "velocity": 100}, {"time": 78210, "pitch": 55, "duration": 55, "velocity": 100}, {"time": 78210, "pitch": 62, "duration": 110, "velocity": 100}, {"time": 78320, "pitch": 31, "duration": 275, "velocity": 100}, {"time": 78320, "pitch": 55, "duration": 165, "velocity": 100}, {"time": 78320, "pitch": 59, "duration": 220, "velocity": 100}, {"time": 78430, "pitch": 43, "duration": 110, "velocity": 100}, {"time": 78430, "pitch": 74, "duration": 110, "velocity": 100}, {"time": 78540, "pitch": 55, "duration": 55, "velocity": 100}, {"time": 78540, "pitch": 59, "duration": 110, "velocity": 100}, {"time": 78540, "pitch": 62, "duration": 110, "velocity": 100}, {"time": 78540, "pitch": 74, "duration": 110, "velocity": 100}, {"time": 78650, "pitch": 50, "duration": 55, "velocity": 100}, {"time": 78650, "pitch": 69, "duration": 110, "velocity": 100}, {"time": 78760, "pitch": 43, "duration": 330, "velocity": 100}, {"time": 78760, "pitch": 50, "duration": 165, "velocity": 100}, {"time": 78760, "pitch": 55, "duration": 165, "velocity": 100}, {"time": 78760, "pitch": 71, "duration": 220, "velocity": 100}, {"time": 78870, "pitch": 47, "duration": 220, "velocity": 100}, {"time": 78980, "pitch": 50, "duration": 55, "velocity": 100}, {"time": 78980, "pitch": 55, "duration": 110, "velocity": 100}, {"time": 78980, "pitch": 59, "duration": 110, "velocity": 100}, {"time": 78980, "pitch": 67, "duration": 220, "velocity": 100}, {"time": 79090, "pitch": 50, "duration": 55, "velocity": 100}]}]}