{"metadata": {"schema_version": "0.1", "title": "RWC-MDB-P-2001 No. 8: Jinsei konnamono / fevers", "copyright": "RWC Music Database. Copyright (C) 2001 Real World Computing Partnership (contact: Masataka GOTO <m.goto@aist.go.jp>)", "source_filename": "RM-P008.SMF_SYNC.MID", "source_format": "midi"}, "resolution": 480, "tempos": [{"time": 0, "qpm": 58.25242718446602}, {"time": 480, "qpm": 127.65957446808511}, {"time": 2400, "qpm": 125.0}, {"time": 2880, "qpm": 127.65957446808511}, {"time": 4320, "qpm": 125.0}, {"time": 4800, "qpm": 127.65957446808511}, {"time": 6240, "qpm": 125.0}, {"time": 6720, "qpm": 127.65957446808511}, {"time": 8160, "qpm": 125.0}, {"time": 8640, "qpm": 127.65957446808511}, {"time": 10080, "qpm": 125.0}, {"time": 10560, "qpm": 127.65957446808511}, {"time": 12000, "qpm": 125.0}, {"time": 12480, "qpm": 127.65957446808511}, {"time": 13920, "qpm": 125.0}, {"time": 14400, "qpm": 127.65957446808511}, {"time": 16320, "qpm": 125.0}, {"time": 16800, "qpm": 127.65957446808511}, {"time": 18240, "qpm": 125.0}, {"time": 18720, "qpm": 127.65957446808511}, {"time": 20160, "qpm": 125.0}, {"time": 20640, "qpm": 127.65957446808511}, {"time": 21600, "qpm": 125.0}, {"time": 22080, "qpm": 127.65957446808511}, {"time": 24000, "qpm": 125.0}, {"time": 24480, "qpm": 127.65957446808511}, {"time": 25920, "qpm": 125.0}, {"time": 26400, "qpm": 127.65957446808511}, {"time": 27840, "qpm": 125.0}, {"time": 28320, "qpm": 127.65957446808511}, {"time": 29760, "qpm": 125.0}, {"time": 30240, "qpm": 127.65957446808511}, {"time": 31680, "qpm": 125.0}, {"time": 32160, "qpm": 127.65957446808511}, {"time": 33600, "qpm": 125.0}, {"time": 34080, "qpm": 127.65957446808511}, {"time": 35520, "qpm": 125.0}, {"time": 36000, "qpm": 127.65957446808511}, {"time": 37920, "qpm": 125.0}, {"time": 38400, "qpm": 127.65957446808511}, {"time": 39840, "qpm": 125.0}, {"time": 40320, "qpm": 127.65957446808511}, {"time": 41760, "qpm": 125.0}, {"time": 42240, "qpm": 127.65957446808511}, {"time": 43680, "qpm": 125.0}, {"time": 44160, "qpm": 127.65957446808511}, {"time": 45600, "qpm": 125.0}, {"time": 46080, "qpm": 127.65957446808511}, {"time": 47520, "qpm": 125.0}, {"time": 48000, "qpm": 127.65957446808511}, {"time": 49440, "qpm": 125.0}, {"time": 49920, "qpm": 127.65957446808511}, {"time": 51840, "qpm": 125.0}, {"time": 52320, "qpm": 127.65957446808511}, {"time": 53280, "qpm": 125.0}, {"time": 53760, "qpm": 127.65957446808511}, {"time": 55200, "qpm": 125.0}, {"time": 55680, "qpm": 127.65957446808511}, {"time": 57600, "qpm": 125.0}, {"time": 58080, "qpm": 127.65957446808511}, {"time": 59520, "qpm": 125.0}, {"time": 60000, "qpm": 127.65957446808511}, {"time": 61440, "qpm": 125.0}, {"time": 61920, "qpm": 127.65957446808511}, {"time": 63360, "qpm": 125.0}, {"time": 63840, "qpm": 127.65957446808511}, {"time": 65280, "qpm": 125.0}, {"time": 65760, "qpm": 127.65957446808511}, {"time": 67200, "qpm": 125.0}, {"time": 67680, "qpm": 127.65957446808511}, {"time": 69120, "qpm": 125.0}, {"time": 69600, "qpm": 127.65957446808511}, {"time": 70560, "qpm": 125.0}, {"time": 71040, "qpm": 127.65957446808511}, {"time": 72960, "qpm": 125.0}, {"time": 73440, "qpm": 127.65957446808511}, {"time": 74880, "qpm": 125.0}, {"time": 75360, "qpm": 127.65957446808511}, {"time": 76800, "qpm": 125.0}, {"time": 77280, "qpm": 127.65957446808511}, {"time": 79200, "qpm": 125.0}, {"time": 79680, "qpm": 127.65957446808511}, {"time": 81120, "qpm": 125.0}, {"time": 81600, "qpm": 127.65957446808511}, {"time": 83040, "qpm": 125.0}, {"time": 83520, "qpm": 127.65957446808511}, {"time": 84960, "qpm": 125.0}, {"time": 85440, "qpm": 127.65957446808511}, {"time": 86880, "qpm": 125.0}, {"time": 87360, "qpm": 127.65957446808511}, {"time": 88800, "qpm": 125.0}, {"time": 89280, "qpm": 127.65957446808511}, {"time": 90720, "qpm": 125.0}, {"time": 91200, "qpm": 127.65957446808511}, {"time": 92640, "qpm": 125.0}, {"time": 93120, "qpm": 127.65957446808511}, {"time": 94560, "qpm": 125.0}, {"time": 95040, "qpm": 127.65957446808511}, {"time": 96480, "qpm": 125.0}, {"time": 96960, "qpm": 127.65957446808511}, {"time": 98400, "qpm": 125.0}, {"time": 98880, "qpm": 127.65957446808511}, {"time": 100320, "qpm": 125.0}, {"time": 100800, "qpm": 127.65957446808511}, {"time": 102720, "qpm": 125.0}, {"time": 103200, "qpm": 127.65957446808511}, {"time": 104640, "qpm": 125.0}, {"time": 105120, "qpm": 127.65957446808511}, {"time": 106560, "qpm": 125.0}, {"time": 107040, "qpm": 127.65957446808511}, {"time": 108480, "qpm": 125.0}, {"time": 108960, "qpm": 127.65957446808511}, {"time": 110400, "qpm": 125.0}, {"time": 110880, "qpm": 127.65957446808511}, {"time": 112320, "qpm": 125.0}, {"time": 112800, "qpm": 127.65957446808511}, {"time": 114240, "qpm": 125.0}, {"time": 114720, "qpm": 127.65957446808511}, {"time": 116160, "qpm": 125.0}, {"time": 116640, "qpm": 127.65957446808511}, {"time": 118560, "qpm": 125.0}, {"time": 119040, "qpm": 127.65957446808511}, {"time": 120480, "qpm": 125.0}, {"time": 120960, "qpm": 127.65957446808511}, {"time": 122400, "qpm": 125.0}, {"time": 122880, "qpm": 127.65957446808511}, {"time": 124320, "qpm": 125.0}, {"time": 124800, "qpm": 127.65957446808511}, {"time": 126240, "qpm": 125.0}, {"time": 126720, "qpm": 127.65957446808511}, {"time": 128160, "qpm": 125.0}, {"time": 128640, "qpm": 127.65957446808511}, {"time": 130080, "qpm": 125.0}, {"time": 130560, "qpm": 127.65957446808511}, {"time": 132000, "qpm": 125.0}, {"time": 132480, "qpm": 127.65957446808511}, {"time": 133920, "qpm": 125.0}, {"time": 134400, "qpm": 127.65957446808511}, {"time": 135840, "qpm": 125.0}, {"time": 136320, "qpm": 127.65957446808511}, {"time": 138240, "qpm": 125.0}, {"time": 138720, "qpm": 127.65957446808511}, {"time": 139680, "qpm": 125.0}, {"time": 140160, "qpm": 127.65957446808511}, {"time": 142080, "qpm": 125.0}, {"time": 142560, "qpm": 127.65957446808511}, {"time": 144000, "qpm": 125.0}, {"time": 144480, "qpm": 127.65957446808511}, {"time": 145920, "qpm": 125.0}, {"time": 146400, "qpm": 127.65957446808511}, {"time": 147840, "qpm": 125.0}, {"time": 148320, "qpm": 127.65957446808511}, {"time": 149760, "qpm": 125.0}, {"time": 150240, "qpm": 127.65957446808511}, {"time": 151680, "qpm": 125.0}, {"time": 152160, "qpm": 127.65957446808511}, {"time": 153600, "qpm": 125.0}, {"time": 154080, "qpm": 127.65957446808511}, {"time": 155520, "qpm": 125.0}, {"time": 156000, "qpm": 127.65957446808511}, {"time": 157920, "qpm": 125.0}, {"time": 158400, "qpm": 127.65957446808511}, {"time": 159360, "qpm": 125.0}, {"time": 159840, "qpm": 127.65957446808511}, {"time": 161760, "qpm": 125.0}, {"time": 162240, "qpm": 127.65957446808511}, {"time": 163680, "qpm": 125.0}, {"time": 164160, "qpm": 127.65957446808511}, {"time": 165120, "qpm": 125.0}, {"time": 165600, "qpm": 127.65957446808511}, {"time": 167520, "qpm": 125.0}, {"time": 168000, "qpm": 127.65957446808511}, {"time": 169440, "qpm": 125.0}, {"time": 169920, "qpm": 127.65957446808511}, {"time": 171360, "qpm": 125.0}, {"time": 171840, "qpm": 127.65957446808511}, {"time": 173280, "qpm": 125.0}, {"time": 173760, "qpm": 127.65957446808511}, {"time": 175200, "qpm": 125.0}, {"time": 175680, "qpm": 127.65957446808511}, {"time": 177600, "qpm": 125.0}, {"time": 178080, "qpm": 127.65957446808511}, {"time": 179520, "qpm": 125.0}, {"time": 180000, "qpm": 127.65957446808511}, {"time": 181440, "qpm": 125.0}, {"time": 181920, "qpm": 127.65957446808511}, {"time": 183360, "qpm": 125.0}, {"time": 183840, "qpm": 127.65957446808511}, {"time": 185280, "qpm": 125.0}, {"time": 185760, "qpm": 127.65957446808511}, {"time": 187200, "qpm": 125.0}, {"time": 187680, "qpm": 127.65957446808511}, {"time": 189120, "qpm": 125.0}, {"time": 189600, "qpm": 127.65957446808511}, {"time": 191040, "qpm": 125.0}], "key_signatures": [{"time": 0, "root": 0, "mode": "major"}], "time_signatures": [{"time": 0, "numerator": 1, "denominator": 4}, {"time": 480, "numerator": 4, "denominator": 4}], "tracks": [{"program": 0, "is_drum": false, "name": "PIANO", "annotations": [{"time": 240, "annotation": {"number": 0, "value": 0}, "group": "control_change"}, {"time": 260, "annotation": {"number": 32, "value": 2}, "group": "control_change"}]}, {"program": 1, "is_drum": false, "name": "PIANO", "notes": [{"time": 2400, "pitch": 47, "duration": 241, "velocity": 88}, {"time": 2400, "pitch": 54, "duration": 241, "velocity": 88}, {"time": 2400, "pitch": 59, "duration": 241, "velocity": 88}, {"time": 2400, "pitch": 63, "duration": 241, "velocity": 88}, {"time": 2641, "pitch": 47, "duration": 241, "velocity": 88}, {"time": 2641, "pitch": 54, "duration": 241, "velocity": 88}, {"time": 2641, "pitch": 59, "duration": 241, "velocity": 88}, {"time": 2641, "pitch": 63, "duration": 241, "velocity": 88}, {"time": 2882, "pitch": 47, "duration": 241, "velocity": 88}, {"time": 2882, "pitch": 54, "duration": 241, "velocity": 88}, {"time": 2882, "pitch": 59, "duration": 241, "velocity": 88}, {"time": 2882, "pitch": 63, "duration": 241, "velocity": 88}, {"time": 3123, "pitch": 47, "duration": 241, "velocity": 88}, {"time": 3123, "pitch": 54, "duration": 241, "velocity": 88}, {"time": 3123, "pitch": 59, "duration": 241, "velocity": 88}, {"time": 3123, "pitch": 63, "duration": 241, "velocity": 88}, {"time": 3364, "pitch": 47, "duration": 237, "velocity": 88}, {"time": 3364, "pitch": 54, "duration": 237, "velocity": 88}, {"time": 3364, "pitch": 59, "duration": 237, "velocity": 88}, {"time": 3364, "pitch": 63, "duration": 237, "velocity": 88}, {"time": 3601, "pitch": 45, "duration": 236, "velocity": 88}, {"time": 3601, "pitch": 52, "duration": 236, "velocity": 88}, {"time": 3601, "pitch": 57, "duration": 236, "velocity": 88}, {"time": 3601, "pitch": 61, "duration": 236, "velocity": 88}, {"time": 3837, "pitch": 45, "duration": 241, "velocity": 88}, {"time": 3837, "pitch": 52, "duration": 241, "velocity": 88}, {"time": 3837, "pitch": 57, "duration": 241, "velocity": 88}, {"time": 3837, "pitch": 61, "duration": 241, "velocity": 88}, {"time": 4078, "pitch": 47, "duration": 483, "velocity": 88}, {"time": 4078, "pitch": 54, "duration": 483, "velocity": 88}, {"time": 4078, "pitch": 59, "duration": 483, "velocity": 88}, {"time": 4078, "pitch": 63, "duration": 483, "velocity": 88}, {"time": 4561, "pitch": 47, "duration": 241, "velocity": 88}, {"time": 4561, "pitch": 54, "duration": 241, "velocity": 88}, {"time": 4561, "pitch": 59, "duration": 241, "velocity": 88}, {"time": 4561, "pitch": 63, "duration": 241, "velocity": 88}, {"time": 4802, "pitch": 47, "duration": 241, "velocity": 88}, {"time": 4802, "pitch": 54, "duration": 241, "velocity": 88}, {"time": 4802, "pitch": 59, "duration": 241, "velocity": 88}, {"time": 4802, "pitch": 63, "duration": 241, "velocity": 88}, {"time": 5043, "pitch": 47, "duration": 241, "velocity": 88}, {"time": 5043, "pitch": 54, "duration": 241, "velocity": 88}, {"time": 5043, "pitch": 59, "duration": 241, "velocity": 88}, {"time": 5043, "pitch": 63, "duration": 241, "velocity": 88}, {"time": 5284, "pitch": 47, "duration": 236, "velocity": 88}, {"time": 5284, "pitch": 54, "duration": 236, "velocity": 88}, {"time": 5284, "pitch": 59, "duration": 236, "velocity": 88}, {"time": 5284, "pitch": 63, "duration": 236, "velocity": 88}, {"time": 5520, "pitch": 45, "duration": 237, "velocity": 88}, {"time": 5520, "pitch": 52, "duration": 237, "velocity": 88}, {"time": 5520, "pitch": 57, "duration": 237, "velocity": 88}, {"time": 5520, "pitch": 61, "duration": 237, "velocity": 88}, {"time": 5757, "pitch": 45, "duration": 241, "velocity": 88}, {"time": 5757, "pitch": 52, "duration": 241, "velocity": 88}, {"time": 5757, "pitch": 57, "duration": 241, "velocity": 88}, {"time": 5757, "pitch": 61, "duration": 241, "velocity": 88}, {"time": 5998, "pitch": 47, "duration": 482, "velocity": 88}, {"time": 5998, "pitch": 54, "duration": 482, "velocity": 88}, {"time": 5998, "pitch": 59, "duration": 482, "velocity": 88}, {"time": 5998, "pitch": 63, "duration": 482, "velocity": 88}, {"time": 6480, "pitch": 47, "duration": 242, "velocity": 88}, {"time": 6480, "pitch": 54, "duration": 242, "velocity": 88}, {"time": 6480, "pitch": 59, "duration": 242, "velocity": 88}, {"time": 6480, "pitch": 63, "duration": 242, "velocity": 88}, {"time": 6722, "pitch": 47, "duration": 241, "velocity": 88}, {"time": 6722, "pitch": 54, "duration": 241, "velocity": 88}, {"time": 6722, "pitch": 59, "duration": 241, "velocity": 88}, {"time": 6722, "pitch": 63, "duration": 241, "velocity": 88}, {"time": 6963, "pitch": 47, "duration": 241, "velocity": 88}, {"time": 6963, "pitch": 54, "duration": 241, "velocity": 88}, {"time": 6963, "pitch": 59, "duration": 241, "velocity": 88}, {"time": 6963, "pitch": 63, "duration": 241, "velocity": 88}, {"time": 7204, "pitch": 47, "duration": 236, "velocity": 88}, {"time": 7204, "pitch": 54, "duration": 236, "velocity": 88}, {"time": 7204, "pitch": 59, "duration": 236, "velocity": 88}, {"time": 7204, "pitch": 63, "duration": 236, "velocity": 88}, {"time": 7440, "pitch": 47, "duration": 236, "velocity": 88}, {"time": 7440, "pitch": 54, "duration": 236, "velocity": 88}, {"time": 7440, "pitch": 59, "duration": 236, "velocity": 88}, {"time": 7440, "pitch": 63, "duration": 236, "velocity": 88}, {"time": 7676, "pitch": 47, "duration": 242, "velocity": 88}, {"time": 7676, "pitch": 54, "duration": 242, "velocity": 88}, {"time": 7676, "pitch": 59, "duration": 242, "velocity": 88}, {"time": 7676, "pitch": 63, "duration": 242, "velocity": 88}, {"time": 7918, "pitch": 47, "duration": 241, "velocity": 88}, {"time": 7918, "pitch": 54, "duration": 241, "velocity": 88}, {"time": 7918, "pitch": 59, "duration": 241, "velocity": 88}, {"time": 7918, "pitch": 63, "duration": 241, "velocity": 88}, {"time": 8159, "pitch": 47, "duration": 241, "velocity": 88}, {"time": 8159, "pitch": 54, "duration": 241, "velocity": 88}, {"time": 8159, "pitch": 59, "duration": 241, "velocity": 88}, {"time": 8159, "pitch": 63, "duration": 241, "velocity": 88}, {"time": 8400, "pitch": 47, "duration": 241, "velocity": 88}, {"time": 8400, "pitch": 54, "duration": 241, "velocity": 88}, {"time": 8400, "pitch": 59, "duration": 241, "velocity": 88}, {"time": 8400, "pitch": 63, "duration": 241, "velocity": 88}, {"time": 8641, "pitch": 47, "duration": 242, "velocity": 88}, {"time": 8641, "pitch": 54, "duration": 242, "velocity": 88}, {"time": 8641, "pitch": 59, "duration": 242, "velocity": 88}, {"time": 8641, "pitch": 63, "duration": 242, "velocity": 88}, {"time": 8883, "pitch": 47, "duration": 241, "velocity": 88}, {"time": 8883, "pitch": 54, "duration": 241, "velocity": 88}, {"time": 8883, "pitch": 59, "duration": 241, "velocity": 88}, {"time": 8883, "pitch": 63, "duration": 241, "velocity": 88}, {"time": 9124, "pitch": 47, "duration": 236, "velocity": 88}, {"time": 9124, "pitch": 54, "duration": 236, "velocity": 88}, {"time": 9124, "pitch": 59, "duration": 236, "velocity": 88}, {"time": 9124, "pitch": 63, "duration": 236, "velocity": 88}, {"time": 9360, "pitch": 47, "duration": 236, "velocity": 88}, {"time": 9360, "pitch": 54, "duration": 236, "velocity": 88}, {"time": 9360, "pitch": 59, "duration": 236, "velocity": 88}, {"time": 9360, "pitch": 63, "duration": 236, "velocity": 88}, {"time": 9596, "pitch": 47, "duration": 241, "velocity": 88}, {"time": 9596, "pitch": 54, "duration": 241, "velocity": 88}, {"time": 9596, "pitch": 59, "duration": 241, "velocity": 88}, {"time": 9596, "pitch": 63, "duration": 241, "velocity": 88}, {"time": 9837, "pitch": 47, "duration": 242, "velocity": 88}, {"time": 9837, "pitch": 54, "duration": 242, "velocity": 88}, {"time": 9837, "pitch": 59, "duration": 242, "velocity": 88}, {"time": 9837, "pitch": 63, "duration": 242, "velocity": 88}, {"time": 10079, "pitch": 52, "duration": 482, "velocity": 88}, {"time": 10079, "pitch": 59, "duration": 482, "velocity": 88}, {"time": 10079, "pitch": 64, "duration": 482, "velocity": 88}, {"time": 10079, "pitch": 68, "duration": 482, "velocity": 88}, {"time": 10561, "pitch": 52, "duration": 482, "velocity": 88}, {"time": 10561, "pitch": 59, "duration": 482, "velocity": 88}, {"time": 10561, "pitch": 64, "duration": 482, "velocity": 88}, {"time": 10561, "pitch": 68, "duration": 482, "velocity": 88}, {"time": 11043, "pitch": 52, "duration": 237, "velocity": 88}, {"time": 11043, "pitch": 59, "duration": 237, "velocity": 88}, {"time": 11043, "pitch": 64, "duration": 237, "velocity": 88}, {"time": 11043, "pitch": 68, "duration": 237, "velocity": 88}, {"time": 11280, "pitch": 52, "duration": 477, "velocity": 88}, {"time": 11280, "pitch": 59, "duration": 477, "velocity": 88}, {"time": 11280, "pitch": 64, "duration": 477, "velocity": 88}, {"time": 11757, "pitch": 47, "duration": 483, "velocity": 88}, {"time": 11757, "pitch": 54, "duration": 483, "velocity": 88}, {"time": 11757, "pitch": 59, "duration": 483, "velocity": 88}, {"time": 11757, "pitch": 62, "duration": 483, "velocity": 88}, {"time": 12240, "pitch": 47, "duration": 241, "velocity": 88}, {"time": 12240, "pitch": 54, "duration": 241, "velocity": 88}, {"time": 12240, "pitch": 59, "duration": 241, "velocity": 88}, {"time": 12481, "pitch": 47, "duration": 482, "velocity": 88}, {"time": 12481, "pitch": 54, "duration": 482, "velocity": 88}, {"time": 12481, "pitch": 59, "duration": 482, "velocity": 88}, {"time": 12481, "pitch": 62, "duration": 482, "velocity": 88}, {"time": 12963, "pitch": 47, "duration": 473, "velocity": 88}, {"time": 12963, "pitch": 54, "duration": 473, "velocity": 88}, {"time": 12963, "pitch": 59, "duration": 473, "velocity": 88}, {"time": 12963, "pitch": 62, "duration": 473, "velocity": 88}, {"time": 13436, "pitch": 47, "duration": 482, "velocity": 88}, {"time": 13436, "pitch": 54, "duration": 482, "velocity": 88}, {"time": 13436, "pitch": 59, "duration": 482, "velocity": 88}, {"time": 13918, "pitch": 52, "duration": 483, "velocity": 88}, {"time": 13918, "pitch": 59, "duration": 483, "velocity": 88}, {"time": 13918, "pitch": 64, "duration": 483, "velocity": 88}, {"time": 13918, "pitch": 68, "duration": 483, "velocity": 88}, {"time": 14401, "pitch": 52, "duration": 482, "velocity": 88}, {"time": 14401, "pitch": 59, "duration": 482, "velocity": 88}, {"time": 14401, "pitch": 64, "duration": 482, "velocity": 88}, {"time": 14401, "pitch": 68, "duration": 482, "velocity": 88}, {"time": 14883, "pitch": 52, "duration": 236, "velocity": 88}, {"time": 14883, "pitch": 59, "duration": 236, "velocity": 88}, {"time": 14883, "pitch": 64, "duration": 236, "velocity": 88}, {"time": 14883, "pitch": 68, "duration": 236, "velocity": 88}, {"time": 15119, "pitch": 52, "duration": 478, "velocity": 88}, {"time": 15119, "pitch": 59, "duration": 478, "velocity": 88}, {"time": 15119, "pitch": 64, "duration": 478, "velocity": 88}, {"time": 15597, "pitch": 47, "duration": 482, "velocity": 88}, {"time": 15597, "pitch": 54, "duration": 482, "velocity": 88}, {"time": 15597, "pitch": 59, "duration": 482, "velocity": 88}, {"time": 15597, "pitch": 62, "duration": 482, "velocity": 88}, {"time": 16079, "pitch": 47, "duration": 241, "velocity": 88}, {"time": 16079, "pitch": 54, "duration": 241, "velocity": 88}, {"time": 16079, "pitch": 59, "duration": 241, "velocity": 88}, {"time": 16320, "pitch": 47, "duration": 483, "velocity": 88}, {"time": 16320, "pitch": 54, "duration": 483, "velocity": 88}, {"time": 16320, "pitch": 59, "duration": 483, "velocity": 88}, {"time": 16320, "pitch": 62, "duration": 483, "velocity": 88}, {"time": 16803, "pitch": 47, "duration": 472, "velocity": 88}, {"time": 16803, "pitch": 54, "duration": 472, "velocity": 88}, {"time": 16803, "pitch": 59, "duration": 472, "velocity": 88}, {"time": 16803, "pitch": 62, "duration": 472, "velocity": 88}, {"time": 17275, "pitch": 47, "duration": 483, "velocity": 88}, {"time": 17275, "pitch": 54, "duration": 483, "velocity": 88}, {"time": 17275, "pitch": 59, "duration": 483, "velocity": 88}, {"time": 17758, "pitch": 52, "duration": 482, "velocity": 88}, {"time": 17758, "pitch": 59, "duration": 482, "velocity": 88}, {"time": 17758, "pitch": 64, "duration": 482, "velocity": 88}, {"time": 17758, "pitch": 68, "duration": 482, "velocity": 88}, {"time": 18240, "pitch": 52, "duration": 483, "velocity": 88}, {"time": 18240, "pitch": 59, "duration": 483, "velocity": 88}, {"time": 18240, "pitch": 64, "duration": 483, "velocity": 88}, {"time": 18240, "pitch": 68, "duration": 483, "velocity": 88}, {"time": 18723, "pitch": 52, "duration": 241, "velocity": 88}, {"time": 18723, "pitch": 59, "duration": 241, "velocity": 88}, {"time": 18723, "pitch": 64, "duration": 241, "velocity": 88}, {"time": 18723, "pitch": 68, "duration": 241, "velocity": 88}, {"time": 18964, "pitch": 52, "duration": 477, "velocity": 88}, {"time": 18964, "pitch": 59, "duration": 477, "velocity": 88}, {"time": 18964, "pitch": 64, "duration": 477, "velocity": 88}, {"time": 19441, "pitch": 47, "duration": 478, "velocity": 88}, {"time": 19441, "pitch": 54, "duration": 478, "velocity": 88}, {"time": 19441, "pitch": 59, "duration": 478, "velocity": 88}, {"time": 19441, "pitch": 62, "duration": 478, "velocity": 88}, {"time": 19919, "pitch": 47, "duration": 241, "velocity": 88}, {"time": 19919, "pitch": 54, "duration": 241, "velocity": 88}, {"time": 19919, "pitch": 59, "duration": 241, "velocity": 88}, {"time": 20160, "pitch": 47, "duration": 482, "velocity": 88}, {"time": 20160, "pitch": 54, "duration": 482, "velocity": 88}, {"time": 20160, "pitch": 59, "duration": 482, "velocity": 88}, {"time": 20160, "pitch": 62, "duration": 482, "velocity": 88}, {"time": 20642, "pitch": 47, "duration": 483, "velocity": 88}, {"time": 20642, "pitch": 54, "duration": 483, "velocity": 88}, {"time": 20642, "pitch": 59, "duration": 483, "velocity": 88}, {"time": 20642, "pitch": 62, "duration": 483, "velocity": 88}, {"time": 21125, "pitch": 47, "duration": 472, "velocity": 88}, {"time": 21125, "pitch": 54, "duration": 472, "velocity": 88}, {"time": 21125, "pitch": 59, "duration": 472, "velocity": 88}, {"time": 21597, "pitch": 52, "duration": 483, "velocity": 88}, {"time": 21597, "pitch": 59, "duration": 483, "velocity": 88}, {"time": 21597, "pitch": 64, "duration": 483, "velocity": 88}, {"time": 21597, "pitch": 68, "duration": 483, "velocity": 88}, {"time": 22080, "pitch": 52, "duration": 482, "velocity": 88}, {"time": 22080, "pitch": 59, "duration": 482, "velocity": 88}, {"time": 22080, "pitch": 64, "duration": 482, "velocity": 88}, {"time": 22080, "pitch": 68, "duration": 482, "velocity": 88}, {"time": 22562, "pitch": 52, "duration": 241, "velocity": 88}, {"time": 22562, "pitch": 59, "duration": 241, "velocity": 88}, {"time": 22562, "pitch": 64, "duration": 241, "velocity": 88}, {"time": 22562, "pitch": 68, "duration": 241, "velocity": 88}, {"time": 22803, "pitch": 52, "duration": 478, "velocity": 88}, {"time": 22803, "pitch": 59, "duration": 478, "velocity": 88}, {"time": 22803, "pitch": 64, "duration": 478, "velocity": 88}, {"time": 23281, "pitch": 47, "duration": 477, "velocity": 88}, {"time": 23281, "pitch": 54, "duration": 477, "velocity": 88}, {"time": 23281, "pitch": 59, "duration": 477, "velocity": 88}, {"time": 23281, "pitch": 62, "duration": 477, "velocity": 88}, {"time": 23758, "pitch": 47, "duration": 241, "velocity": 88}, {"time": 23758, "pitch": 54, "duration": 241, "velocity": 88}, {"time": 23758, "pitch": 59, "duration": 241, "velocity": 88}, {"time": 23999, "pitch": 47, "duration": 483, "velocity": 88}, {"time": 23999, "pitch": 54, "duration": 483, "velocity": 88}, {"time": 23999, "pitch": 59, "duration": 483, "velocity": 88}, {"time": 23999, "pitch": 62, "duration": 483, "velocity": 88}, {"time": 24482, "pitch": 47, "duration": 482, "velocity": 88}, {"time": 24482, "pitch": 54, "duration": 482, "velocity": 88}, {"time": 24482, "pitch": 59, "duration": 482, "velocity": 88}, {"time": 24482, "pitch": 62, "duration": 482, "velocity": 88}, {"time": 24964, "pitch": 47, "duration": 473, "velocity": 88}, {"time": 24964, "pitch": 54, "duration": 473, "velocity": 88}, {"time": 24964, "pitch": 59, "duration": 473, "velocity": 88}, {"time": 25437, "pitch": 45, "duration": 482, "velocity": 88}, {"time": 25437, "pitch": 61, "duration": 482, "velocity": 88}, {"time": 25437, "pitch": 64, "duration": 482, "velocity": 88}, {"time": 25437, "pitch": 69, "duration": 482, "velocity": 88}, {"time": 25919, "pitch": 45, "duration": 483, "velocity": 88}, {"time": 25919, "pitch": 61, "duration": 483, "velocity": 88}, {"time": 25919, "pitch": 64, "duration": 483, "velocity": 88}, {"time": 25919, "pitch": 69, "duration": 483, "velocity": 88}, {"time": 26402, "pitch": 45, "duration": 241, "velocity": 88}, {"time": 26402, "pitch": 61, "duration": 241, "velocity": 88}, {"time": 26402, "pitch": 64, "duration": 241, "velocity": 88}, {"time": 26402, "pitch": 69, "duration": 241, "velocity": 88}, {"time": 26643, "pitch": 45, "duration": 477, "velocity": 88}, {"time": 26643, "pitch": 61, "duration": 477, "velocity": 88}, {"time": 26643, "pitch": 64, "duration": 477, "velocity": 88}, {"time": 26643, "pitch": 69, "duration": 477, "velocity": 88}, {"time": 27120, "pitch": 44, "duration": 478, "velocity": 88}, {"time": 27120, "pitch": 59, "duration": 478, "velocity": 88}, {"time": 27120, "pitch": 64, "duration": 478, "velocity": 88}, {"time": 27120, "pitch": 68, "duration": 478, "velocity": 88}, {"time": 27598, "pitch": 44, "duration": 482, "velocity": 88}, {"time": 27598, "pitch": 57, "duration": 482, "velocity": 88}, {"time": 27598, "pitch": 63, "duration": 482, "velocity": 88}, {"time": 27598, "pitch": 66, "duration": 482, "velocity": 88}, {"time": 28080, "pitch": 44, "duration": 483, "velocity": 88}, {"time": 28080, "pitch": 56, "duration": 483, "velocity": 88}, {"time": 28080, "pitch": 59, "duration": 483, "velocity": 88}, {"time": 28080, "pitch": 64, "duration": 483, "velocity": 88}, {"time": 28563, "pitch": 44, "duration": 713, "velocity": 88}, {"time": 28804, "pitch": 56, "duration": 472, "velocity": 88}, {"time": 28804, "pitch": 59, "duration": 472, "velocity": 88}, {"time": 28804, "pitch": 64, "duration": 472, "velocity": 88}, {"time": 29276, "pitch": 42, "duration": 241, "velocity": 88}, {"time": 29276, "pitch": 57, "duration": 241, "velocity": 88}, {"time": 29276, "pitch": 61, "duration": 241, "velocity": 88}, {"time": 29276, "pitch": 64, "duration": 241, "velocity": 88}, {"time": 29517, "pitch": 42, "duration": 483, "velocity": 88}, {"time": 29517, "pitch": 57, "duration": 483, "velocity": 88}, {"time": 29517, "pitch": 61, "duration": 483, "velocity": 88}, {"time": 29517, "pitch": 64, "duration": 483, "velocity": 88}, {"time": 30000, "pitch": 47, "duration": 482, "velocity": 88}, {"time": 30000, "pitch": 54, "duration": 482, "velocity": 88}, {"time": 30000, "pitch": 59, "duration": 482, "velocity": 88}, {"time": 30000, "pitch": 63, "duration": 482, "velocity": 88}, {"time": 30482, "pitch": 47, "duration": 478, "velocity": 88}, {"time": 30482, "pitch": 54, "duration": 478, "velocity": 88}, {"time": 30482, "pitch": 59, "duration": 478, "velocity": 88}, {"time": 30482, "pitch": 63, "duration": 478, "velocity": 88}, {"time": 30960, "pitch": 40, "duration": 477, "velocity": 88}, {"time": 30960, "pitch": 56, "duration": 477, "velocity": 88}, {"time": 30960, "pitch": 59, "duration": 477, "velocity": 88}, {"time": 30960, "pitch": 64, "duration": 477, "velocity": 88}, {"time": 31437, "pitch": 40, "duration": 483, "velocity": 88}, {"time": 31437, "pitch": 56, "duration": 483, "velocity": 88}, {"time": 31437, "pitch": 59, "duration": 483, "velocity": 88}, {"time": 31437, "pitch": 64, "duration": 483, "velocity": 88}, {"time": 31920, "pitch": 40, "duration": 482, "velocity": 88}, {"time": 31920, "pitch": 56, "duration": 482, "velocity": 88}, {"time": 31920, "pitch": 59, "duration": 482, "velocity": 88}, {"time": 31920, "pitch": 62, "duration": 482, "velocity": 88}, {"time": 32402, "pitch": 40, "duration": 714, "velocity": 88}, {"time": 32643, "pitch": 56, "duration": 473, "velocity": 88}, {"time": 32643, "pitch": 59, "duration": 473, "velocity": 88}, {"time": 32643, "pitch": 62, "duration": 473, "velocity": 88}, {"time": 33116, "pitch": 45, "duration": 482, "velocity": 88}, {"time": 33116, "pitch": 61, "duration": 482, "velocity": 88}, {"time": 33116, "pitch": 64, "duration": 482, "velocity": 88}, {"time": 33116, "pitch": 69, "duration": 482, "velocity": 88}, {"time": 33598, "pitch": 45, "duration": 483, "velocity": 88}, {"time": 33598, "pitch": 61, "duration": 483, "velocity": 88}, {"time": 33598, "pitch": 64, "duration": 483, "velocity": 88}, {"time": 33598, "pitch": 69, "duration": 483, "velocity": 88}, {"time": 34081, "pitch": 45, "duration": 241, "velocity": 88}, {"time": 34081, "pitch": 61, "duration": 241, "velocity": 88}, {"time": 34081, "pitch": 64, "duration": 241, "velocity": 88}, {"time": 34081, "pitch": 69, "duration": 241, "velocity": 88}, {"time": 34322, "pitch": 45, "duration": 477, "velocity": 88}, {"time": 34322, "pitch": 61, "duration": 477, "velocity": 88}, {"time": 34322, "pitch": 64, "duration": 477, "velocity": 88}, {"time": 34322, "pitch": 69, "duration": 477, "velocity": 88}, {"time": 34799, "pitch": 44, "duration": 478, "velocity": 88}, {"time": 34799, "pitch": 59, "duration": 478, "velocity": 88}, {"time": 34799, "pitch": 64, "duration": 478, "velocity": 88}, {"time": 34799, "pitch": 68, "duration": 478, "velocity": 88}, {"time": 35277, "pitch": 44, "duration": 482, "velocity": 88}, {"time": 35277, "pitch": 57, "duration": 482, "velocity": 88}, {"time": 35277, "pitch": 63, "duration": 482, "velocity": 88}, {"time": 35277, "pitch": 66, "duration": 482, "velocity": 88}, {"time": 35759, "pitch": 49, "duration": 483, "velocity": 88}, {"time": 35759, "pitch": 56, "duration": 483, "velocity": 88}, {"time": 35759, "pitch": 59, "duration": 483, "velocity": 88}, {"time": 35759, "pitch": 65, "duration": 483, "velocity": 88}, {"time": 36242, "pitch": 49, "duration": 713, "velocity": 88}, {"time": 36483, "pitch": 56, "duration": 472, "velocity": 88}, {"time": 36483, "pitch": 59, "duration": 472, "velocity": 88}, {"time": 36483, "pitch": 65, "duration": 472, "velocity": 88}, {"time": 36955, "pitch": 42, "duration": 483, "velocity": 88}, {"time": 36955, "pitch": 57, "duration": 483, "velocity": 88}, {"time": 36955, "pitch": 61, "duration": 483, "velocity": 88}, {"time": 36955, "pitch": 66, "duration": 483, "velocity": 88}, {"time": 37438, "pitch": 42, "duration": 482, "velocity": 88}, {"time": 37438, "pitch": 57, "duration": 482, "velocity": 88}, {"time": 37438, "pitch": 61, "duration": 482, "velocity": 88}, {"time": 37438, "pitch": 66, "duration": 482, "velocity": 88}, {"time": 37920, "pitch": 42, "duration": 241, "velocity": 88}, {"time": 37920, "pitch": 57, "duration": 241, "velocity": 88}, {"time": 38161, "pitch": 42, "duration": 483, "velocity": 88}, {"time": 38161, "pitch": 57, "duration": 483, "velocity": 88}, {"time": 38161, "pitch": 61, "duration": 483, "velocity": 88}, {"time": 38161, "pitch": 66, "duration": 483, "velocity": 88}, {"time": 38644, "pitch": 42, "duration": 713, "velocity": 88}, {"time": 38644, "pitch": 58, "duration": 713, "velocity": 88}, {"time": 38644, "pitch": 61, "duration": 713, "velocity": 88}, {"time": 38644, "pitch": 66, "duration": 713, "velocity": 88}, {"time": 39357, "pitch": 42, "duration": 483, "velocity": 88}, {"time": 39357, "pitch": 58, "duration": 483, "velocity": 88}, {"time": 39357, "pitch": 61, "duration": 483, "velocity": 88}, {"time": 39357, "pitch": 66, "duration": 483, "velocity": 88}, {"time": 39840, "pitch": 42, "duration": 482, "velocity": 88}, {"time": 40081, "pitch": 58, "duration": 241, "velocity": 88}, {"time": 40081, "pitch": 61, "duration": 241, "velocity": 88}, {"time": 40081, "pitch": 66, "duration": 241, "velocity": 88}, {"time": 40322, "pitch": 42, "duration": 483, "velocity": 88}, {"time": 40322, "pitch": 58, "duration": 483, "velocity": 88}, {"time": 40322, "pitch": 61, "duration": 483, "velocity": 88}, {"time": 40322, "pitch": 66, "duration": 483, "velocity": 88}, {"time": 40805, "pitch": 47, "duration": 472, "velocity": 88}, {"time": 40805, "pitch": 54, "duration": 472, "velocity": 88}, {"time": 40805, "pitch": 59, "duration": 472, "velocity": 88}, {"time": 40805, "pitch": 64, "duration": 472, "velocity": 88}, {"time": 41277, "pitch": 47, "duration": 483, "velocity": 88}, {"time": 41277, "pitch": 54, "duration": 483, "velocity": 88}, {"time": 41277, "pitch": 59, "duration": 483, "velocity": 88}, {"time": 41277, "pitch": 64, "duration": 483, "velocity": 88}, {"time": 41760, "pitch": 47, "duration": 241, "velocity": 88}, {"time": 41760, "pitch": 54, "duration": 241, "velocity": 88}, {"time": 41760, "pitch": 59, "duration": 241, "velocity": 88}, {"time": 41760, "pitch": 64, "duration": 241, "velocity": 88}, {"time": 42001, "pitch": 47, "duration": 482, "velocity": 88}, {"time": 42001, "pitch": 54, "duration": 482, "velocity": 88}, {"time": 42001, "pitch": 59, "duration": 482, "velocity": 88}, {"time": 42001, "pitch": 64, "duration": 482, "velocity": 88}, {"time": 42483, "pitch": 47, "duration": 478, "velocity": 88}, {"time": 42483, "pitch": 54, "duration": 478, "velocity": 88}, {"time": 42483, "pitch": 57, "duration": 478, "velocity": 88}, {"time": 42483, "pitch": 63, "duration": 478, "velocity": 88}, {"time": 42961, "pitch": 47, "duration": 236, "velocity": 88}, {"time": 42961, "pitch": 54, "duration": 236, "velocity": 88}, {"time": 42961, "pitch": 57, "duration": 236, "velocity": 88}, {"time": 42961, "pitch": 63, "duration": 236, "velocity": 88}, {"time": 43197, "pitch": 47, "duration": 241, "velocity": 88}, {"time": 43197, "pitch": 54, "duration": 241, "velocity": 88}, {"time": 43197, "pitch": 57, "duration": 241, "velocity": 88}, {"time": 43197, "pitch": 63, "duration": 241, "velocity": 88}, {"time": 43438, "pitch": 47, "duration": 241, "velocity": 88}, {"time": 43438, "pitch": 54, "duration": 241, "velocity": 88}, {"time": 43438, "pitch": 57, "duration": 241, "velocity": 88}, {"time": 43438, "pitch": 63, "duration": 241, "velocity": 88}, {"time": 43679, "pitch": 47, "duration": 242, "velocity": 88}, {"time": 43679, "pitch": 54, "duration": 242, "velocity": 88}, {"time": 43679, "pitch": 57, "duration": 242, "velocity": 88}, {"time": 43679, "pitch": 63, "duration": 242, "velocity": 88}, {"time": 43921, "pitch": 47, "duration": 241, "velocity": 88}, {"time": 43921, "pitch": 54, "duration": 241, "velocity": 88}, {"time": 43921, "pitch": 57, "duration": 241, "velocity": 88}, {"time": 43921, "pitch": 63, "duration": 241, "velocity": 88}, {"time": 44162, "pitch": 47, "duration": 241, "velocity": 88}, {"time": 44162, "pitch": 54, "duration": 241, "velocity": 88}, {"time": 44162, "pitch": 57, "duration": 241, "velocity": 88}, {"time": 44162, "pitch": 63, "duration": 241, "velocity": 88}, {"time": 44403, "pitch": 47, "duration": 241, "velocity": 88}, {"time": 44403, "pitch": 54, "duration": 241, "velocity": 88}, {"time": 44403, "pitch": 57, "duration": 241, "velocity": 88}, {"time": 44403, "pitch": 63, "duration": 241, "velocity": 88}, {"time": 44644, "pitch": 40, "duration": 473, "velocity": 88}, {"time": 44644, "pitch": 56, "duration": 473, "velocity": 88}, {"time": 44644, "pitch": 59, "duration": 473, "velocity": 88}, {"time": 44644, "pitch": 64, "duration": 473, "velocity": 88}, {"time": 45117, "pitch": 40, "duration": 482, "velocity": 88}, {"time": 45117, "pitch": 56, "duration": 482, "velocity": 88}, {"time": 45117, "pitch": 59, "duration": 482, "velocity": 88}, {"time": 45117, "pitch": 64, "duration": 482, "velocity": 88}, {"time": 45599, "pitch": 40, "duration": 241, "velocity": 88}, {"time": 45599, "pitch": 56, "duration": 241, "velocity": 88}, {"time": 45599, "pitch": 59, "duration": 241, "velocity": 88}, {"time": 45599, "pitch": 64, "duration": 241, "velocity": 88}, {"time": 45840, "pitch": 40, "duration": 483, "velocity": 88}, {"time": 45840, "pitch": 56, "duration": 483, "velocity": 88}, {"time": 45840, "pitch": 59, "duration": 483, "velocity": 88}, {"time": 45840, "pitch": 64, "duration": 483, "velocity": 88}, {"time": 46323, "pitch": 47, "duration": 713, "velocity": 88}, {"time": 46323, "pitch": 54, "duration": 713, "velocity": 88}, {"time": 46323, "pitch": 59, "duration": 713, "velocity": 88}, {"time": 46323, "pitch": 63, "duration": 713, "velocity": 88}, {"time": 47036, "pitch": 47, "duration": 483, "velocity": 88}, {"time": 47036, "pitch": 54, "duration": 483, "velocity": 88}, {"time": 47036, "pitch": 59, "duration": 483, "velocity": 88}, {"time": 47036, "pitch": 63, "duration": 483, "velocity": 88}, {"time": 47519, "pitch": 47, "duration": 241, "velocity": 88}, {"time": 47519, "pitch": 54, "duration": 241, "velocity": 88}, {"time": 47519, "pitch": 59, "duration": 241, "velocity": 88}, {"time": 47519, "pitch": 63, "duration": 241, "velocity": 88}, {"time": 47760, "pitch": 47, "duration": 241, "velocity": 88}, {"time": 48001, "pitch": 47, "duration": 483, "velocity": 88}, {"time": 48001, "pitch": 54, "duration": 483, "velocity": 88}, {"time": 48001, "pitch": 59, "duration": 483, "velocity": 88}, {"time": 48001, "pitch": 63, "duration": 483, "velocity": 88}, {"time": 48484, "pitch": 49, "duration": 472, "velocity": 88}, {"time": 48484, "pitch": 56, "duration": 472, "velocity": 88}, {"time": 48484, "pitch": 61, "duration": 472, "velocity": 88}, {"time": 48484, "pitch": 64, "duration": 472, "velocity": 88}, {"time": 48956, "pitch": 49, "duration": 483, "velocity": 88}, {"time": 48956, "pitch": 56, "duration": 483, "velocity": 88}, {"time": 48956, "pitch": 61, "duration": 483, "velocity": 88}, {"time": 48956, "pitch": 64, "duration": 483, "velocity": 88}, {"time": 49439, "pitch": 49, "duration": 241, "velocity": 88}, {"time": 49439, "pitch": 56, "duration": 241, "velocity": 88}, {"time": 49439, "pitch": 61, "duration": 241, "velocity": 88}, {"time": 49439, "pitch": 64, "duration": 241, "velocity": 88}, {"time": 49680, "pitch": 49, "duration": 482, "velocity": 88}, {"time": 49680, "pitch": 56, "duration": 482, "velocity": 88}, {"time": 49680, "pitch": 61, "duration": 482, "velocity": 88}, {"time": 49680, "pitch": 64, "duration": 482, "velocity": 88}, {"time": 50162, "pitch": 42, "duration": 478, "velocity": 88}, {"time": 50162, "pitch": 54, "duration": 478, "velocity": 88}, {"time": 50162, "pitch": 58, "duration": 478, "velocity": 88}, {"time": 50162, "pitch": 61, "duration": 478, "velocity": 88}, {"time": 50640, "pitch": 42, "duration": 236, "velocity": 88}, {"time": 50640, "pitch": 54, "duration": 236, "velocity": 88}, {"time": 50640, "pitch": 58, "duration": 236, "velocity": 88}, {"time": 50640, "pitch": 61, "duration": 236, "velocity": 88}, {"time": 50876, "pitch": 42, "duration": 482, "velocity": 88}, {"time": 50876, "pitch": 54, "duration": 482, "velocity": 88}, {"time": 50876, "pitch": 58, "duration": 482, "velocity": 88}, {"time": 50876, "pitch": 61, "duration": 482, "velocity": 88}, {"time": 51358, "pitch": 42, "duration": 242, "velocity": 88}, {"time": 51358, "pitch": 54, "duration": 242, "velocity": 88}, {"time": 51358, "pitch": 58, "duration": 242, "velocity": 88}, {"time": 51358, "pitch": 61, "duration": 242, "velocity": 88}, {"time": 51600, "pitch": 42, "duration": 241, "velocity": 88}, {"time": 51841, "pitch": 42, "duration": 482, "velocity": 88}, {"time": 51841, "pitch": 54, "duration": 482, "velocity": 88}, {"time": 51841, "pitch": 58, "duration": 482, "velocity": 88}, {"time": 51841, "pitch": 61, "duration": 482, "velocity": 88}, {"time": 52323, "pitch": 42, "duration": 473, "velocity": 88}, {"time": 52323, "pitch": 52, "duration": 473, "velocity": 88}, {"time": 52323, "pitch": 57, "duration": 473, "velocity": 88}, {"time": 52323, "pitch": 61, "duration": 473, "velocity": 104}, {"time": 52796, "pitch": 42, "duration": 482, "velocity": 88}, {"time": 52796, "pitch": 52, "duration": 482, "velocity": 88}, {"time": 52796, "pitch": 57, "duration": 482, "velocity": 88}, {"time": 52796, "pitch": 61, "duration": 120, "velocity": 104}, {"time": 53278, "pitch": 42, "duration": 241, "velocity": 88}, {"time": 53278, "pitch": 52, "duration": 241, "velocity": 88}, {"time": 53278, "pitch": 57, "duration": 241, "velocity": 88}, {"time": 53278, "pitch": 61, "duration": 121, "velocity": 88}, {"time": 53519, "pitch": 42, "duration": 483, "velocity": 88}, {"time": 53519, "pitch": 52, "duration": 483, "velocity": 88}, {"time": 53519, "pitch": 57, "duration": 483, "velocity": 88}, {"time": 53519, "pitch": 61, "duration": 483, "velocity": 88}, {"time": 54002, "pitch": 44, "duration": 477, "velocity": 88}, {"time": 54002, "pitch": 52, "duration": 477, "velocity": 88}, {"time": 54002, "pitch": 56, "duration": 477, "velocity": 88}, {"time": 54002, "pitch": 59, "duration": 477, "velocity": 88}, {"time": 54479, "pitch": 44, "duration": 236, "velocity": 88}, {"time": 54479, "pitch": 52, "duration": 236, "velocity": 88}, {"time": 54479, "pitch": 56, "duration": 236, "velocity": 88}, {"time": 54479, "pitch": 59, "duration": 236, "velocity": 88}, {"time": 54715, "pitch": 44, "duration": 483, "velocity": 88}, {"time": 54715, "pitch": 52, "duration": 483, "velocity": 88}, {"time": 54715, "pitch": 56, "duration": 483, "velocity": 88}, {"time": 54715, "pitch": 59, "duration": 483, "velocity": 88}, {"time": 55198, "pitch": 44, "duration": 482, "velocity": 88}, {"time": 55198, "pitch": 52, "duration": 482, "velocity": 88}, {"time": 55198, "pitch": 56, "duration": 482, "velocity": 88}, {"time": 55198, "pitch": 59, "duration": 482, "velocity": 88}, {"time": 55680, "pitch": 44, "duration": 483, "velocity": 88}, {"time": 55680, "pitch": 52, "duration": 483, "velocity": 88}, {"time": 55680, "pitch": 56, "duration": 483, "velocity": 88}, {"time": 55680, "pitch": 59, "duration": 483, "velocity": 88}, {"time": 56163, "pitch": 47, "duration": 472, "velocity": 88}, {"time": 56163, "pitch": 54, "duration": 472, "velocity": 88}, {"time": 56163, "pitch": 59, "duration": 472, "velocity": 88}, {"time": 56163, "pitch": 64, "duration": 472, "velocity": 88}, {"time": 56635, "pitch": 47, "duration": 483, "velocity": 88}, {"time": 56635, "pitch": 54, "duration": 483, "velocity": 88}, {"time": 56635, "pitch": 59, "duration": 483, "velocity": 88}, {"time": 56635, "pitch": 64, "duration": 483, "velocity": 88}, {"time": 57118, "pitch": 47, "duration": 241, "velocity": 88}, {"time": 57118, "pitch": 54, "duration": 241, "velocity": 88}, {"time": 57118, "pitch": 59, "duration": 241, "velocity": 88}, {"time": 57118, "pitch": 64, "duration": 241, "velocity": 88}, {"time": 57359, "pitch": 47, "duration": 482, "velocity": 88}, {"time": 57359, "pitch": 54, "duration": 482, "velocity": 88}, {"time": 57359, "pitch": 59, "duration": 482, "velocity": 88}, {"time": 57359, "pitch": 64, "duration": 482, "velocity": 88}, {"time": 57841, "pitch": 47, "duration": 483, "velocity": 88}, {"time": 57841, "pitch": 54, "duration": 483, "velocity": 88}, {"time": 57841, "pitch": 59, "duration": 483, "velocity": 88}, {"time": 57841, "pitch": 63, "duration": 483, "velocity": 88}, {"time": 58324, "pitch": 47, "duration": 241, "velocity": 88}, {"time": 58324, "pitch": 54, "duration": 241, "velocity": 88}, {"time": 58324, "pitch": 59, "duration": 241, "velocity": 88}, {"time": 58324, "pitch": 63, "duration": 241, "velocity": 88}, {"time": 58565, "pitch": 47, "duration": 236, "velocity": 88}, {"time": 58565, "pitch": 54, "duration": 236, "velocity": 88}, {"time": 58565, "pitch": 59, "duration": 236, "velocity": 88}, {"time": 58565, "pitch": 63, "duration": 236, "velocity": 88}, {"time": 58801, "pitch": 47, "duration": 236, "velocity": 88}, {"time": 58801, "pitch": 54, "duration": 236, "velocity": 88}, {"time": 58801, "pitch": 59, "duration": 236, "velocity": 88}, {"time": 58801, "pitch": 63, "duration": 236, "velocity": 88}, {"time": 59037, "pitch": 47, "duration": 242, "velocity": 88}, {"time": 59037, "pitch": 54, "duration": 242, "velocity": 88}, {"time": 59037, "pitch": 59, "duration": 242, "velocity": 88}, {"time": 59037, "pitch": 63, "duration": 242, "velocity": 88}, {"time": 59279, "pitch": 47, "duration": 241, "velocity": 88}, {"time": 59279, "pitch": 54, "duration": 241, "velocity": 88}, {"time": 59279, "pitch": 59, "duration": 241, "velocity": 88}, {"time": 59279, "pitch": 63, "duration": 241, "velocity": 88}, {"time": 59520, "pitch": 47, "duration": 241, "velocity": 88}, {"time": 59520, "pitch": 54, "duration": 241, "velocity": 88}, {"time": 59520, "pitch": 59, "duration": 241, "velocity": 88}, {"time": 59520, "pitch": 63, "duration": 241, "velocity": 88}, {"time": 59761, "pitch": 47, "duration": 241, "velocity": 88}, {"time": 59761, "pitch": 54, "duration": 241, "velocity": 88}, {"time": 59761, "pitch": 59, "duration": 241, "velocity": 88}, {"time": 59761, "pitch": 63, "duration": 241, "velocity": 88}, {"time": 60002, "pitch": 40, "duration": 483, "velocity": 88}, {"time": 60002, "pitch": 56, "duration": 483, "velocity": 88}, {"time": 60002, "pitch": 59, "duration": 483, "velocity": 88}, {"time": 60002, "pitch": 64, "duration": 483, "velocity": 88}, {"time": 60485, "pitch": 40, "duration": 472, "velocity": 88}, {"time": 60485, "pitch": 56, "duration": 472, "velocity": 88}, {"time": 60485, "pitch": 59, "duration": 472, "velocity": 88}, {"time": 60485, "pitch": 64, "duration": 472, "velocity": 88}, {"time": 60957, "pitch": 40, "duration": 241, "velocity": 88}, {"time": 60957, "pitch": 56, "duration": 241, "velocity": 88}, {"time": 60957, "pitch": 59, "duration": 241, "velocity": 88}, {"time": 60957, "pitch": 64, "duration": 241, "velocity": 88}, {"time": 61198, "pitch": 40, "duration": 483, "velocity": 88}, {"time": 61198, "pitch": 56, "duration": 483, "velocity": 88}, {"time": 61198, "pitch": 59, "duration": 483, "velocity": 88}, {"time": 61198, "pitch": 64, "duration": 483, "velocity": 88}, {"time": 61681, "pitch": 47, "duration": 724, "velocity": 88}, {"time": 61681, "pitch": 54, "duration": 724, "velocity": 88}, {"time": 61681, "pitch": 59, "duration": 724, "velocity": 88}, {"time": 61681, "pitch": 63, "duration": 724, "velocity": 88}, {"time": 62405, "pitch": 47, "duration": 472, "velocity": 88}, {"time": 62405, "pitch": 54, "duration": 472, "velocity": 88}, {"time": 62405, "pitch": 59, "duration": 472, "velocity": 88}, {"time": 62405, "pitch": 63, "duration": 472, "velocity": 88}, {"time": 62877, "pitch": 47, "duration": 241, "velocity": 88}, {"time": 62877, "pitch": 54, "duration": 241, "velocity": 88}, {"time": 62877, "pitch": 59, "duration": 241, "velocity": 88}, {"time": 62877, "pitch": 63, "duration": 241, "velocity": 88}, {"time": 63118, "pitch": 47, "duration": 241, "velocity": 88}, {"time": 63359, "pitch": 47, "duration": 483, "velocity": 88}, {"time": 63359, "pitch": 54, "duration": 483, "velocity": 88}, {"time": 63359, "pitch": 59, "duration": 483, "velocity": 88}, {"time": 63359, "pitch": 63, "duration": 483, "velocity": 88}, {"time": 63842, "pitch": 49, "duration": 482, "velocity": 88}, {"time": 63842, "pitch": 56, "duration": 482, "velocity": 88}, {"time": 63842, "pitch": 61, "duration": 482, "velocity": 88}, {"time": 63842, "pitch": 64, "duration": 482, "velocity": 88}, {"time": 64324, "pitch": 49, "duration": 473, "velocity": 88}, {"time": 64324, "pitch": 56, "duration": 473, "velocity": 88}, {"time": 64324, "pitch": 61, "duration": 473, "velocity": 88}, {"time": 64324, "pitch": 64, "duration": 473, "velocity": 88}, {"time": 64797, "pitch": 49, "duration": 241, "velocity": 88}, {"time": 64797, "pitch": 56, "duration": 241, "velocity": 88}, {"time": 64797, "pitch": 61, "duration": 241, "velocity": 88}, {"time": 64797, "pitch": 64, "duration": 241, "velocity": 88}, {"time": 65038, "pitch": 49, "duration": 482, "velocity": 88}, {"time": 65038, "pitch": 56, "duration": 482, "velocity": 88}, {"time": 65038, "pitch": 61, "duration": 482, "velocity": 88}, {"time": 65038, "pitch": 64, "duration": 482, "velocity": 88}, {"time": 65520, "pitch": 42, "duration": 483, "velocity": 88}, {"time": 65520, "pitch": 54, "duration": 483, "velocity": 88}, {"time": 65520, "pitch": 58, "duration": 483, "velocity": 88}, {"time": 65520, "pitch": 61, "duration": 483, "velocity": 88}, {"time": 66003, "pitch": 42, "duration": 241, "velocity": 88}, {"time": 66003, "pitch": 54, "duration": 241, "velocity": 88}, {"time": 66003, "pitch": 58, "duration": 241, "velocity": 88}, {"time": 66003, "pitch": 61, "duration": 241, "velocity": 88}, {"time": 66244, "pitch": 42, "duration": 472, "velocity": 88}, {"time": 66244, "pitch": 54, "duration": 472, "velocity": 88}, {"time": 66244, "pitch": 58, "duration": 472, "velocity": 88}, {"time": 66244, "pitch": 61, "duration": 472, "velocity": 88}, {"time": 66716, "pitch": 42, "duration": 242, "velocity": 88}, {"time": 66716, "pitch": 54, "duration": 242, "velocity": 88}, {"time": 66716, "pitch": 58, "duration": 242, "velocity": 88}, {"time": 66716, "pitch": 61, "duration": 242, "velocity": 88}, {"time": 66958, "pitch": 42, "duration": 241, "velocity": 88}, {"time": 67199, "pitch": 42, "duration": 482, "velocity": 88}, {"time": 67199, "pitch": 54, "duration": 482, "velocity": 88}, {"time": 67199, "pitch": 58, "duration": 482, "velocity": 88}, {"time": 67199, "pitch": 61, "duration": 482, "velocity": 88}, {"time": 67681, "pitch": 42, "duration": 483, "velocity": 88}, {"time": 67681, "pitch": 52, "duration": 483, "velocity": 88}, {"time": 67681, "pitch": 57, "duration": 483, "velocity": 88}, {"time": 67681, "pitch": 61, "duration": 483, "velocity": 104}, {"time": 68164, "pitch": 42, "duration": 472, "velocity": 88}, {"time": 68164, "pitch": 52, "duration": 472, "velocity": 88}, {"time": 68164, "pitch": 57, "duration": 472, "velocity": 88}, {"time": 68164, "pitch": 61, "duration": 118, "velocity": 104}, {"time": 68636, "pitch": 42, "duration": 241, "velocity": 88}, {"time": 68636, "pitch": 52, "duration": 241, "velocity": 88}, {"time": 68636, "pitch": 57, "duration": 241, "velocity": 88}, {"time": 68636, "pitch": 61, "duration": 121, "velocity": 88}, {"time": 68877, "pitch": 42, "duration": 483, "velocity": 88}, {"time": 68877, "pitch": 52, "duration": 483, "velocity": 88}, {"time": 68877, "pitch": 57, "duration": 483, "velocity": 88}, {"time": 68877, "pitch": 61, "duration": 483, "velocity": 88}, {"time": 69360, "pitch": 47, "duration": 482, "velocity": 88}, {"time": 69360, "pitch": 54, "duration": 482, "velocity": 88}, {"time": 69360, "pitch": 57, "duration": 482, "velocity": 88}, {"time": 69360, "pitch": 64, "duration": 482, "velocity": 88}, {"time": 69842, "pitch": 47, "duration": 242, "velocity": 88}, {"time": 69842, "pitch": 54, "duration": 242, "velocity": 88}, {"time": 69842, "pitch": 57, "duration": 242, "velocity": 88}, {"time": 69842, "pitch": 64, "duration": 242, "velocity": 88}, {"time": 70084, "pitch": 47, "duration": 472, "velocity": 88}, {"time": 70084, "pitch": 54, "duration": 472, "velocity": 88}, {"time": 70084, "pitch": 57, "duration": 472, "velocity": 88}, {"time": 70084, "pitch": 64, "duration": 472, "velocity": 88}, {"time": 70556, "pitch": 47, "duration": 482, "velocity": 88}, {"time": 70556, "pitch": 54, "duration": 482, "velocity": 88}, {"time": 70556, "pitch": 57, "duration": 482, "velocity": 88}, {"time": 70556, "pitch": 63, "duration": 482, "velocity": 88}, {"time": 71038, "pitch": 47, "duration": 483, "velocity": 88}, {"time": 71038, "pitch": 54, "duration": 483, "velocity": 88}, {"time": 71038, "pitch": 57, "duration": 483, "velocity": 88}, {"time": 71038, "pitch": 63, "duration": 483, "velocity": 88}, {"time": 71521, "pitch": 40, "duration": 482, "velocity": 88}, {"time": 71521, "pitch": 52, "duration": 482, "velocity": 88}, {"time": 71521, "pitch": 57, "duration": 482, "velocity": 88}, {"time": 71521, "pitch": 64, "duration": 482, "velocity": 88}, {"time": 72003, "pitch": 40, "duration": 473, "velocity": 88}, {"time": 72003, "pitch": 52, "duration": 473, "velocity": 88}, {"time": 72003, "pitch": 57, "duration": 473, "velocity": 88}, {"time": 72003, "pitch": 64, "duration": 473, "velocity": 88}, {"time": 72476, "pitch": 40, "duration": 241, "velocity": 88}, {"time": 72476, "pitch": 52, "duration": 241, "velocity": 88}, {"time": 72476, "pitch": 57, "duration": 241, "velocity": 88}, {"time": 72476, "pitch": 64, "duration": 241, "velocity": 88}, {"time": 72717, "pitch": 40, "duration": 482, "velocity": 88}, {"time": 72717, "pitch": 52, "duration": 482, "velocity": 88}, {"time": 72717, "pitch": 57, "duration": 482, "velocity": 88}, {"time": 72717, "pitch": 64, "duration": 482, "velocity": 88}, {"time": 73199, "pitch": 40, "duration": 483, "velocity": 88}, {"time": 73199, "pitch": 52, "duration": 483, "velocity": 88}, {"time": 73199, "pitch": 56, "duration": 483, "velocity": 88}, {"time": 73199, "pitch": 64, "duration": 483, "velocity": 88}, {"time": 73682, "pitch": 40, "duration": 241, "velocity": 88}, {"time": 73682, "pitch": 52, "duration": 241, "velocity": 88}, {"time": 73682, "pitch": 56, "duration": 241, "velocity": 88}, {"time": 73682, "pitch": 64, "duration": 241, "velocity": 88}, {"time": 73923, "pitch": 40, "duration": 236, "velocity": 88}, {"time": 73923, "pitch": 52, "duration": 236, "velocity": 88}, {"time": 73923, "pitch": 56, "duration": 236, "velocity": 88}, {"time": 73923, "pitch": 64, "duration": 236, "velocity": 88}, {"time": 74159, "pitch": 40, "duration": 237, "velocity": 88}, {"time": 74159, "pitch": 52, "duration": 237, "velocity": 88}, {"time": 74159, "pitch": 56, "duration": 237, "velocity": 88}, {"time": 74159, "pitch": 64, "duration": 237, "velocity": 88}, {"time": 74396, "pitch": 40, "duration": 241, "velocity": 88}, {"time": 74396, "pitch": 52, "duration": 241, "velocity": 88}, {"time": 74396, "pitch": 56, "duration": 241, "velocity": 88}, {"time": 74396, "pitch": 64, "duration": 241, "velocity": 88}, {"time": 74637, "pitch": 40, "duration": 241, "velocity": 88}, {"time": 74637, "pitch": 52, "duration": 241, "velocity": 88}, {"time": 74637, "pitch": 56, "duration": 241, "velocity": 88}, {"time": 74637, "pitch": 64, "duration": 241, "velocity": 88}, {"time": 74878, "pitch": 40, "duration": 241, "velocity": 88}, {"time": 74878, "pitch": 52, "duration": 241, "velocity": 88}, {"time": 74878, "pitch": 56, "duration": 241, "velocity": 88}, {"time": 74878, "pitch": 64, "duration": 241, "velocity": 88}, {"time": 75119, "pitch": 40, "duration": 241, "velocity": 88}, {"time": 75119, "pitch": 52, "duration": 241, "velocity": 88}, {"time": 75119, "pitch": 56, "duration": 241, "velocity": 88}, {"time": 75119, "pitch": 64, "duration": 241, "velocity": 88}, {"time": 75360, "pitch": 52, "duration": 483, "velocity": 88}, {"time": 75360, "pitch": 59, "duration": 483, "velocity": 88}, {"time": 75360, "pitch": 64, "duration": 483, "velocity": 88}, {"time": 75360, "pitch": 68, "duration": 483, "velocity": 88}, {"time": 75843, "pitch": 52, "duration": 472, "velocity": 88}, {"time": 75843, "pitch": 59, "duration": 472, "velocity": 88}, {"time": 75843, "pitch": 64, "duration": 472, "velocity": 88}, {"time": 75843, "pitch": 68, "duration": 472, "velocity": 88}, {"time": 76315, "pitch": 52, "duration": 241, "velocity": 88}, {"time": 76315, "pitch": 59, "duration": 241, "velocity": 88}, {"time": 76315, "pitch": 64, "duration": 241, "velocity": 88}, {"time": 76315, "pitch": 68, "duration": 241, "velocity": 88}, {"time": 76556, "pitch": 52, "duration": 483, "velocity": 88}, {"time": 76556, "pitch": 59, "duration": 483, "velocity": 88}, {"time": 76556, "pitch": 64, "duration": 483, "velocity": 88}, {"time": 77039, "pitch": 47, "duration": 482, "velocity": 88}, {"time": 77039, "pitch": 54, "duration": 482, "velocity": 88}, {"time": 77039, "pitch": 59, "duration": 482, "velocity": 88}, {"time": 77039, "pitch": 62, "duration": 482, "velocity": 88}, {"time": 77521, "pitch": 47, "duration": 242, "velocity": 88}, {"time": 77521, "pitch": 54, "duration": 242, "velocity": 88}, {"time": 77521, "pitch": 59, "duration": 242, "velocity": 88}, {"time": 77763, "pitch": 47, "duration": 472, "velocity": 88}, {"time": 77763, "pitch": 54, "duration": 472, "velocity": 88}, {"time": 77763, "pitch": 59, "duration": 472, "velocity": 88}, {"time": 77763, "pitch": 62, "duration": 472, "velocity": 88}, {"time": 78235, "pitch": 47, "duration": 482, "velocity": 88}, {"time": 78235, "pitch": 54, "duration": 482, "velocity": 88}, {"time": 78235, "pitch": 59, "duration": 482, "velocity": 88}, {"time": 78235, "pitch": 62, "duration": 482, "velocity": 88}, {"time": 78717, "pitch": 47, "duration": 483, "velocity": 88}, {"time": 78717, "pitch": 54, "duration": 483, "velocity": 88}, {"time": 78717, "pitch": 59, "duration": 483, "velocity": 88}, {"time": 79200, "pitch": 52, "duration": 482, "velocity": 88}, {"time": 79200, "pitch": 59, "duration": 482, "velocity": 88}, {"time": 79200, "pitch": 64, "duration": 482, "velocity": 88}, {"time": 79200, "pitch": 68, "duration": 482, "velocity": 88}, {"time": 79682, "pitch": 52, "duration": 483, "velocity": 88}, {"time": 79682, "pitch": 59, "duration": 483, "velocity": 88}, {"time": 79682, "pitch": 64, "duration": 483, "velocity": 88}, {"time": 79682, "pitch": 68, "duration": 483, "velocity": 88}, {"time": 80165, "pitch": 52, "duration": 236, "velocity": 88}, {"time": 80165, "pitch": 59, "duration": 236, "velocity": 88}, {"time": 80165, "pitch": 64, "duration": 236, "velocity": 88}, {"time": 80165, "pitch": 68, "duration": 236, "velocity": 88}, {"time": 80401, "pitch": 52, "duration": 477, "velocity": 88}, {"time": 80401, "pitch": 59, "duration": 477, "velocity": 88}, {"time": 80401, "pitch": 64, "duration": 477, "velocity": 88}, {"time": 80878, "pitch": 47, "duration": 483, "velocity": 88}, {"time": 80878, "pitch": 54, "duration": 483, "velocity": 88}, {"time": 80878, "pitch": 59, "duration": 483, "velocity": 88}, {"time": 80878, "pitch": 62, "duration": 483, "velocity": 88}, {"time": 81361, "pitch": 47, "duration": 241, "velocity": 88}, {"time": 81361, "pitch": 54, "duration": 241, "velocity": 88}, {"time": 81361, "pitch": 59, "duration": 241, "velocity": 88}, {"time": 81602, "pitch": 47, "duration": 483, "velocity": 88}, {"time": 81602, "pitch": 54, "duration": 483, "velocity": 88}, {"time": 81602, "pitch": 59, "duration": 483, "velocity": 88}, {"time": 81602, "pitch": 62, "duration": 483, "velocity": 88}, {"time": 82085, "pitch": 47, "duration": 472, "velocity": 88}, {"time": 82085, "pitch": 54, "duration": 472, "velocity": 88}, {"time": 82085, "pitch": 59, "duration": 472, "velocity": 88}, {"time": 82085, "pitch": 62, "duration": 472, "velocity": 88}, {"time": 82557, "pitch": 47, "duration": 482, "velocity": 88}, {"time": 82557, "pitch": 54, "duration": 482, "velocity": 88}, {"time": 82557, "pitch": 59, "duration": 482, "velocity": 88}, {"time": 83039, "pitch": 52, "duration": 483, "velocity": 88}, {"time": 83039, "pitch": 59, "duration": 483, "velocity": 88}, {"time": 83039, "pitch": 64, "duration": 483, "velocity": 88}, {"time": 83039, "pitch": 68, "duration": 483, "velocity": 88}, {"time": 83522, "pitch": 52, "duration": 482, "velocity": 88}, {"time": 83522, "pitch": 59, "duration": 482, "velocity": 88}, {"time": 83522, "pitch": 64, "duration": 482, "velocity": 88}, {"time": 83522, "pitch": 68, "duration": 482, "velocity": 88}, {"time": 84004, "pitch": 52, "duration": 237, "velocity": 88}, {"time": 84004, "pitch": 59, "duration": 237, "velocity": 88}, {"time": 84004, "pitch": 64, "duration": 237, "velocity": 88}, {"time": 84004, "pitch": 68, "duration": 237, "velocity": 88}, {"time": 84241, "pitch": 52, "duration": 477, "velocity": 88}, {"time": 84241, "pitch": 59, "duration": 477, "velocity": 88}, {"time": 84241, "pitch": 64, "duration": 477, "velocity": 88}, {"time": 84718, "pitch": 47, "duration": 482, "velocity": 88}, {"time": 84718, "pitch": 54, "duration": 482, "velocity": 88}, {"time": 84718, "pitch": 59, "duration": 482, "velocity": 88}, {"time": 84718, "pitch": 62, "duration": 482, "velocity": 88}, {"time": 85200, "pitch": 47, "duration": 242, "velocity": 88}, {"time": 85200, "pitch": 54, "duration": 242, "velocity": 88}, {"time": 85200, "pitch": 59, "duration": 242, "velocity": 88}, {"time": 85442, "pitch": 47, "duration": 482, "velocity": 88}, {"time": 85442, "pitch": 54, "duration": 482, "velocity": 88}, {"time": 85442, "pitch": 59, "duration": 482, "velocity": 88}, {"time": 85442, "pitch": 62, "duration": 482, "velocity": 88}, {"time": 85924, "pitch": 47, "duration": 473, "velocity": 88}, {"time": 85924, "pitch": 54, "duration": 473, "velocity": 88}, {"time": 85924, "pitch": 59, "duration": 473, "velocity": 88}, {"time": 85924, "pitch": 62, "duration": 473, "velocity": 88}, {"time": 86397, "pitch": 47, "duration": 482, "velocity": 88}, {"time": 86397, "pitch": 54, "duration": 482, "velocity": 88}, {"time": 86397, "pitch": 59, "duration": 482, "velocity": 88}, {"time": 86879, "pitch": 52, "duration": 482, "velocity": 88}, {"time": 86879, "pitch": 59, "duration": 482, "velocity": 88}, {"time": 86879, "pitch": 64, "duration": 482, "velocity": 88}, {"time": 86879, "pitch": 68, "duration": 482, "velocity": 88}, {"time": 87361, "pitch": 52, "duration": 483, "velocity": 88}, {"time": 87361, "pitch": 59, "duration": 483, "velocity": 88}, {"time": 87361, "pitch": 64, "duration": 483, "velocity": 88}, {"time": 87361, "pitch": 68, "duration": 483, "velocity": 88}, {"time": 87844, "pitch": 52, "duration": 236, "velocity": 88}, {"time": 87844, "pitch": 59, "duration": 236, "velocity": 88}, {"time": 87844, "pitch": 64, "duration": 236, "velocity": 88}, {"time": 87844, "pitch": 68, "duration": 236, "velocity": 88}, {"time": 88080, "pitch": 52, "duration": 477, "velocity": 88}, {"time": 88080, "pitch": 59, "duration": 477, "velocity": 88}, {"time": 88080, "pitch": 64, "duration": 477, "velocity": 88}, {"time": 88557, "pitch": 47, "duration": 483, "velocity": 88}, {"time": 88557, "pitch": 54, "duration": 483, "velocity": 88}, {"time": 88557, "pitch": 59, "duration": 483, "velocity": 88}, {"time": 88557, "pitch": 62, "duration": 483, "velocity": 88}, {"time": 89040, "pitch": 47, "duration": 241, "velocity": 88}, {"time": 89040, "pitch": 54, "duration": 241, "velocity": 88}, {"time": 89040, "pitch": 59, "duration": 241, "velocity": 88}, {"time": 89281, "pitch": 47, "duration": 483, "velocity": 88}, {"time": 89281, "pitch": 54, "duration": 483, "velocity": 88}, {"time": 89281, "pitch": 59, "duration": 483, "velocity": 88}, {"time": 89281, "pitch": 62, "duration": 483, "velocity": 88}, {"time": 89764, "pitch": 47, "duration": 472, "velocity": 88}, {"time": 89764, "pitch": 54, "duration": 472, "velocity": 88}, {"time": 89764, "pitch": 59, "duration": 472, "velocity": 88}, {"time": 89764, "pitch": 62, "duration": 472, "velocity": 88}, {"time": 90236, "pitch": 47, "duration": 482, "velocity": 88}, {"time": 90236, "pitch": 54, "duration": 482, "velocity": 88}, {"time": 90236, "pitch": 59, "duration": 482, "velocity": 88}, {"time": 90718, "pitch": 45, "duration": 483, "velocity": 88}, {"time": 90718, "pitch": 61, "duration": 483, "velocity": 88}, {"time": 90718, "pitch": 64, "duration": 483, "velocity": 88}, {"time": 90718, "pitch": 69, "duration": 483, "velocity": 88}, {"time": 91201, "pitch": 45, "duration": 482, "velocity": 88}, {"time": 91201, "pitch": 61, "duration": 482, "velocity": 88}, {"time": 91201, "pitch": 64, "duration": 482, "velocity": 88}, {"time": 91201, "pitch": 69, "duration": 482, "velocity": 88}, {"time": 91683, "pitch": 45, "duration": 237, "velocity": 88}, {"time": 91683, "pitch": 61, "duration": 237, "velocity": 88}, {"time": 91683, "pitch": 64, "duration": 237, "velocity": 88}, {"time": 91683, "pitch": 69, "duration": 237, "velocity": 88}, {"time": 91920, "pitch": 45, "duration": 477, "velocity": 88}, {"time": 91920, "pitch": 61, "duration": 477, "velocity": 88}, {"time": 91920, "pitch": 64, "duration": 477, "velocity": 88}, {"time": 91920, "pitch": 69, "duration": 477, "velocity": 88}, {"time": 92397, "pitch": 44, "duration": 482, "velocity": 88}, {"time": 92397, "pitch": 59, "duration": 482, "velocity": 88}, {"time": 92397, "pitch": 64, "duration": 482, "velocity": 88}, {"time": 92397, "pitch": 68, "duration": 482, "velocity": 88}, {"time": 92879, "pitch": 44, "duration": 483, "velocity": 88}, {"time": 92879, "pitch": 57, "duration": 483, "velocity": 88}, {"time": 92879, "pitch": 63, "duration": 483, "velocity": 88}, {"time": 92879, "pitch": 66, "duration": 483, "velocity": 88}, {"time": 93362, "pitch": 44, "duration": 477, "velocity": 88}, {"time": 93362, "pitch": 56, "duration": 477, "velocity": 88}, {"time": 93362, "pitch": 59, "duration": 477, "velocity": 88}, {"time": 93362, "pitch": 64, "duration": 477, "velocity": 88}, {"time": 93839, "pitch": 44, "duration": 719, "velocity": 88}, {"time": 94076, "pitch": 56, "duration": 482, "velocity": 88}, {"time": 94076, "pitch": 59, "duration": 482, "velocity": 88}, {"time": 94076, "pitch": 64, "duration": 482, "velocity": 88}, {"time": 94558, "pitch": 42, "duration": 241, "velocity": 88}, {"time": 94558, "pitch": 57, "duration": 241, "velocity": 88}, {"time": 94558, "pitch": 61, "duration": 241, "velocity": 88}, {"time": 94558, "pitch": 64, "duration": 241, "velocity": 88}, {"time": 94799, "pitch": 42, "duration": 483, "velocity": 88}, {"time": 94799, "pitch": 57, "duration": 483, "velocity": 88}, {"time": 94799, "pitch": 61, "duration": 483, "velocity": 88}, {"time": 94799, "pitch": 64, "duration": 483, "velocity": 88}, {"time": 95282, "pitch": 47, "duration": 477, "velocity": 88}, {"time": 95282, "pitch": 54, "duration": 477, "velocity": 88}, {"time": 95282, "pitch": 59, "duration": 477, "velocity": 88}, {"time": 95282, "pitch": 63, "duration": 477, "velocity": 88}, {"time": 95759, "pitch": 47, "duration": 477, "velocity": 88}, {"time": 95759, "pitch": 54, "duration": 477, "velocity": 88}, {"time": 95759, "pitch": 59, "duration": 477, "velocity": 88}, {"time": 95759, "pitch": 63, "duration": 477, "velocity": 88}, {"time": 96236, "pitch": 40, "duration": 483, "velocity": 88}, {"time": 96236, "pitch": 56, "duration": 483, "velocity": 88}, {"time": 96236, "pitch": 59, "duration": 483, "velocity": 88}, {"time": 96236, "pitch": 64, "duration": 483, "velocity": 88}, {"time": 96719, "pitch": 40, "duration": 482, "velocity": 88}, {"time": 96719, "pitch": 56, "duration": 482, "velocity": 88}, {"time": 96719, "pitch": 59, "duration": 482, "velocity": 88}, {"time": 96719, "pitch": 64, "duration": 482, "velocity": 88}, {"time": 97201, "pitch": 40, "duration": 478, "velocity": 88}, {"time": 97201, "pitch": 56, "duration": 478, "velocity": 88}, {"time": 97201, "pitch": 59, "duration": 478, "velocity": 88}, {"time": 97201, "pitch": 62, "duration": 478, "velocity": 88}, {"time": 97679, "pitch": 40, "duration": 718, "velocity": 88}, {"time": 97915, "pitch": 56, "duration": 482, "velocity": 88}, {"time": 97915, "pitch": 59, "duration": 482, "velocity": 88}, {"time": 97915, "pitch": 62, "duration": 482, "velocity": 88}, {"time": 98397, "pitch": 45, "duration": 483, "velocity": 88}, {"time": 98397, "pitch": 61, "duration": 483, "velocity": 88}, {"time": 98397, "pitch": 64, "duration": 483, "velocity": 88}, {"time": 98397, "pitch": 69, "duration": 483, "velocity": 88}, {"time": 98880, "pitch": 45, "duration": 482, "velocity": 88}, {"time": 98880, "pitch": 61, "duration": 482, "velocity": 88}, {"time": 98880, "pitch": 64, "duration": 482, "velocity": 88}, {"time": 98880, "pitch": 69, "duration": 482, "velocity": 88}, {"time": 99362, "pitch": 45, "duration": 242, "velocity": 88}, {"time": 99362, "pitch": 61, "duration": 242, "velocity": 88}, {"time": 99362, "pitch": 64, "duration": 242, "velocity": 88}, {"time": 99362, "pitch": 69, "duration": 242, "velocity": 88}, {"time": 99604, "pitch": 45, "duration": 477, "velocity": 88}, {"time": 99604, "pitch": 61, "duration": 477, "velocity": 88}, {"time": 99604, "pitch": 64, "duration": 477, "velocity": 88}, {"time": 99604, "pitch": 69, "duration": 477, "velocity": 88}, {"time": 100081, "pitch": 44, "duration": 477, "velocity": 88}, {"time": 100081, "pitch": 59, "duration": 477, "velocity": 88}, {"time": 100081, "pitch": 64, "duration": 477, "velocity": 88}, {"time": 100081, "pitch": 68, "duration": 477, "velocity": 88}, {"time": 100558, "pitch": 44, "duration": 483, "velocity": 88}, {"time": 100558, "pitch": 57, "duration": 483, "velocity": 88}, {"time": 100558, "pitch": 63, "duration": 483, "velocity": 88}, {"time": 100558, "pitch": 66, "duration": 483, "velocity": 88}, {"time": 101041, "pitch": 49, "duration": 482, "velocity": 88}, {"time": 101041, "pitch": 56, "duration": 482, "velocity": 88}, {"time": 101041, "pitch": 59, "duration": 482, "velocity": 88}, {"time": 101041, "pitch": 65, "duration": 482, "velocity": 88}, {"time": 101523, "pitch": 49, "duration": 714, "velocity": 88}, {"time": 101765, "pitch": 56, "duration": 472, "velocity": 88}, {"time": 101765, "pitch": 59, "duration": 472, "velocity": 88}, {"time": 101765, "pitch": 65, "duration": 472, "velocity": 88}, {"time": 102237, "pitch": 42, "duration": 482, "velocity": 88}, {"time": 102237, "pitch": 57, "duration": 482, "velocity": 88}, {"time": 102237, "pitch": 61, "duration": 482, "velocity": 88}, {"time": 102237, "pitch": 66, "duration": 482, "velocity": 88}, {"time": 102719, "pitch": 42, "duration": 483, "velocity": 88}, {"time": 102719, "pitch": 57, "duration": 483, "velocity": 88}, {"time": 102719, "pitch": 61, "duration": 483, "velocity": 88}, {"time": 102719, "pitch": 66, "duration": 483, "velocity": 88}, {"time": 103202, "pitch": 42, "duration": 241, "velocity": 88}, {"time": 103202, "pitch": 57, "duration": 241, "velocity": 88}, {"time": 103443, "pitch": 42, "duration": 478, "velocity": 88}, {"time": 103443, "pitch": 57, "duration": 478, "velocity": 88}, {"time": 103443, "pitch": 61, "duration": 478, "velocity": 88}, {"time": 103443, "pitch": 66, "duration": 478, "velocity": 88}, {"time": 103921, "pitch": 42, "duration": 718, "velocity": 88}, {"time": 103921, "pitch": 58, "duration": 718, "velocity": 88}, {"time": 103921, "pitch": 61, "duration": 718, "velocity": 88}, {"time": 103921, "pitch": 66, "duration": 718, "velocity": 88}, {"time": 104639, "pitch": 42, "duration": 483, "velocity": 88}, {"time": 104639, "pitch": 58, "duration": 483, "velocity": 88}, {"time": 104639, "pitch": 61, "duration": 483, "velocity": 88}, {"time": 104639, "pitch": 66, "duration": 483, "velocity": 88}, {"time": 105122, "pitch": 42, "duration": 482, "velocity": 88}, {"time": 105363, "pitch": 58, "duration": 241, "velocity": 88}, {"time": 105363, "pitch": 61, "duration": 241, "velocity": 88}, {"time": 105363, "pitch": 66, "duration": 241, "velocity": 88}, {"time": 105604, "pitch": 42, "duration": 473, "velocity": 88}, {"time": 105604, "pitch": 58, "duration": 473, "velocity": 88}, {"time": 105604, "pitch": 61, "duration": 473, "velocity": 88}, {"time": 105604, "pitch": 66, "duration": 473, "velocity": 88}, {"time": 106077, "pitch": 47, "duration": 482, "velocity": 88}, {"time": 106077, "pitch": 54, "duration": 482, "velocity": 88}, {"time": 106077, "pitch": 59, "duration": 482, "velocity": 88}, {"time": 106077, "pitch": 64, "duration": 482, "velocity": 88}, {"time": 106559, "pitch": 47, "duration": 482, "velocity": 88}, {"time": 106559, "pitch": 54, "duration": 482, "velocity": 88}, {"time": 106559, "pitch": 59, "duration": 482, "velocity": 88}, {"time": 106559, "pitch": 64, "duration": 482, "velocity": 88}, {"time": 107041, "pitch": 47, "duration": 242, "velocity": 88}, {"time": 107041, "pitch": 54, "duration": 242, "velocity": 88}, {"time": 107041, "pitch": 59, "duration": 242, "velocity": 88}, {"time": 107041, "pitch": 64, "duration": 242, "velocity": 88}, {"time": 107283, "pitch": 47, "duration": 477, "velocity": 88}, {"time": 107283, "pitch": 54, "duration": 477, "velocity": 88}, {"time": 107283, "pitch": 59, "duration": 477, "velocity": 88}, {"time": 107283, "pitch": 64, "duration": 477, "velocity": 88}, {"time": 107760, "pitch": 47, "duration": 477, "velocity": 88}, {"time": 107760, "pitch": 54, "duration": 477, "velocity": 88}, {"time": 107760, "pitch": 57, "duration": 477, "velocity": 88}, {"time": 107760, "pitch": 63, "duration": 477, "velocity": 88}, {"time": 108237, "pitch": 47, "duration": 242, "velocity": 88}, {"time": 108237, "pitch": 54, "duration": 242, "velocity": 88}, {"time": 108237, "pitch": 57, "duration": 242, "velocity": 88}, {"time": 108237, "pitch": 63, "duration": 242, "velocity": 88}, {"time": 108479, "pitch": 47, "duration": 241, "velocity": 88}, {"time": 108479, "pitch": 54, "duration": 241, "velocity": 88}, {"time": 108479, "pitch": 57, "duration": 241, "velocity": 88}, {"time": 108479, "pitch": 63, "duration": 241, "velocity": 88}, {"time": 108720, "pitch": 47, "duration": 241, "velocity": 88}, {"time": 108720, "pitch": 54, "duration": 241, "velocity": 88}, {"time": 108720, "pitch": 57, "duration": 241, "velocity": 88}, {"time": 108720, "pitch": 63, "duration": 241, "velocity": 88}, {"time": 108961, "pitch": 47, "duration": 241, "velocity": 88}, {"time": 108961, "pitch": 54, "duration": 241, "velocity": 88}, {"time": 108961, "pitch": 57, "duration": 241, "velocity": 88}, {"time": 108961, "pitch": 63, "duration": 241, "velocity": 88}, {"time": 109202, "pitch": 47, "duration": 242, "velocity": 88}, {"time": 109202, "pitch": 54, "duration": 242, "velocity": 88}, {"time": 109202, "pitch": 57, "duration": 242, "velocity": 88}, {"time": 109202, "pitch": 63, "duration": 242, "velocity": 88}, {"time": 109444, "pitch": 47, "duration": 236, "velocity": 88}, {"time": 109444, "pitch": 54, "duration": 236, "velocity": 88}, {"time": 109444, "pitch": 57, "duration": 236, "velocity": 88}, {"time": 109444, "pitch": 63, "duration": 236, "velocity": 88}, {"time": 109680, "pitch": 47, "duration": 236, "velocity": 88}, {"time": 109680, "pitch": 54, "duration": 236, "velocity": 88}, {"time": 109680, "pitch": 57, "duration": 236, "velocity": 88}, {"time": 109680, "pitch": 63, "duration": 236, "velocity": 88}, {"time": 109916, "pitch": 40, "duration": 482, "velocity": 88}, {"time": 109916, "pitch": 56, "duration": 482, "velocity": 88}, {"time": 109916, "pitch": 59, "duration": 482, "velocity": 88}, {"time": 109916, "pitch": 64, "duration": 482, "velocity": 88}, {"time": 110398, "pitch": 40, "duration": 483, "velocity": 88}, {"time": 110398, "pitch": 56, "duration": 483, "velocity": 88}, {"time": 110398, "pitch": 59, "duration": 483, "velocity": 88}, {"time": 110398, "pitch": 64, "duration": 483, "velocity": 88}, {"time": 110881, "pitch": 40, "duration": 241, "velocity": 88}, {"time": 110881, "pitch": 56, "duration": 241, "velocity": 88}, {"time": 110881, "pitch": 59, "duration": 241, "velocity": 88}, {"time": 110881, "pitch": 64, "duration": 241, "velocity": 88}, {"time": 111122, "pitch": 40, "duration": 478, "velocity": 88}, {"time": 111122, "pitch": 56, "duration": 478, "velocity": 88}, {"time": 111122, "pitch": 59, "duration": 478, "velocity": 88}, {"time": 111122, "pitch": 64, "duration": 478, "velocity": 88}, {"time": 111600, "pitch": 47, "duration": 718, "velocity": 88}, {"time": 111600, "pitch": 54, "duration": 718, "velocity": 88}, {"time": 111600, "pitch": 59, "duration": 718, "velocity": 88}, {"time": 111600, "pitch": 63, "duration": 718, "velocity": 88}, {"time": 112318, "pitch": 47, "duration": 483, "velocity": 88}, {"time": 112318, "pitch": 54, "duration": 483, "velocity": 88}, {"time": 112318, "pitch": 59, "duration": 483, "velocity": 88}, {"time": 112318, "pitch": 63, "duration": 483, "velocity": 88}, {"time": 112801, "pitch": 47, "duration": 241, "velocity": 88}, {"time": 112801, "pitch": 54, "duration": 241, "velocity": 88}, {"time": 112801, "pitch": 59, "duration": 241, "velocity": 88}, {"time": 112801, "pitch": 63, "duration": 241, "velocity": 88}, {"time": 113042, "pitch": 47, "duration": 241, "velocity": 88}, {"time": 113283, "pitch": 47, "duration": 473, "velocity": 88}, {"time": 113283, "pitch": 54, "duration": 473, "velocity": 88}, {"time": 113283, "pitch": 59, "duration": 473, "velocity": 88}, {"time": 113283, "pitch": 63, "duration": 473, "velocity": 88}, {"time": 113756, "pitch": 49, "duration": 482, "velocity": 88}, {"time": 113756, "pitch": 56, "duration": 482, "velocity": 88}, {"time": 113756, "pitch": 61, "duration": 482, "velocity": 88}, {"time": 113756, "pitch": 64, "duration": 482, "velocity": 88}, {"time": 114238, "pitch": 49, "duration": 482, "velocity": 88}, {"time": 114238, "pitch": 56, "duration": 482, "velocity": 88}, {"time": 114238, "pitch": 61, "duration": 482, "velocity": 88}, {"time": 114238, "pitch": 64, "duration": 482, "velocity": 88}, {"time": 114720, "pitch": 49, "duration": 242, "velocity": 88}, {"time": 114720, "pitch": 56, "duration": 242, "velocity": 88}, {"time": 114720, "pitch": 61, "duration": 242, "velocity": 88}, {"time": 114720, "pitch": 64, "duration": 242, "velocity": 88}, {"time": 114962, "pitch": 49, "duration": 477, "velocity": 88}, {"time": 114962, "pitch": 56, "duration": 477, "velocity": 88}, {"time": 114962, "pitch": 61, "duration": 477, "velocity": 88}, {"time": 114962, "pitch": 64, "duration": 477, "velocity": 88}, {"time": 115439, "pitch": 42, "duration": 478, "velocity": 88}, {"time": 115439, "pitch": 54, "duration": 478, "velocity": 88}, {"time": 115439, "pitch": 58, "duration": 478, "velocity": 88}, {"time": 115439, "pitch": 61, "duration": 478, "velocity": 88}, {"time": 115917, "pitch": 42, "duration": 241, "velocity": 88}, {"time": 115917, "pitch": 54, "duration": 241, "velocity": 88}, {"time": 115917, "pitch": 58, "duration": 241, "velocity": 88}, {"time": 115917, "pitch": 61, "duration": 241, "velocity": 88}, {"time": 116158, "pitch": 42, "duration": 482, "velocity": 88}, {"time": 116158, "pitch": 54, "duration": 482, "velocity": 88}, {"time": 116158, "pitch": 58, "duration": 482, "velocity": 88}, {"time": 116158, "pitch": 61, "duration": 482, "velocity": 88}, {"time": 116640, "pitch": 42, "duration": 241, "velocity": 88}, {"time": 116640, "pitch": 54, "duration": 241, "velocity": 88}, {"time": 116640, "pitch": 58, "duration": 241, "velocity": 88}, {"time": 116640, "pitch": 61, "duration": 241, "velocity": 88}, {"time": 116881, "pitch": 42, "duration": 242, "velocity": 88}, {"time": 117123, "pitch": 42, "duration": 472, "velocity": 88}, {"time": 117123, "pitch": 54, "duration": 472, "velocity": 88}, {"time": 117123, "pitch": 58, "duration": 472, "velocity": 88}, {"time": 117123, "pitch": 61, "duration": 472, "velocity": 88}, {"time": 117595, "pitch": 42, "duration": 483, "velocity": 88}, {"time": 117595, "pitch": 52, "duration": 483, "velocity": 88}, {"time": 117595, "pitch": 57, "duration": 483, "velocity": 88}, {"time": 117595, "pitch": 61, "duration": 483, "velocity": 104}, {"time": 118078, "pitch": 42, "duration": 482, "velocity": 88}, {"time": 118078, "pitch": 52, "duration": 482, "velocity": 88}, {"time": 118078, "pitch": 57, "duration": 482, "velocity": 88}, {"time": 118078, "pitch": 61, "duration": 120, "velocity": 104}, {"time": 118560, "pitch": 42, "duration": 241, "velocity": 88}, {"time": 118560, "pitch": 52, "duration": 241, "velocity": 88}, {"time": 118560, "pitch": 57, "duration": 241, "velocity": 88}, {"time": 118560, "pitch": 61, "duration": 121, "velocity": 88}, {"time": 118801, "pitch": 42, "duration": 483, "velocity": 88}, {"time": 118801, "pitch": 52, "duration": 483, "velocity": 88}, {"time": 118801, "pitch": 57, "duration": 483, "velocity": 88}, {"time": 118801, "pitch": 61, "duration": 483, "velocity": 88}, {"time": 119284, "pitch": 44, "duration": 477, "velocity": 88}, {"time": 119284, "pitch": 52, "duration": 477, "velocity": 88}, {"time": 119284, "pitch": 56, "duration": 477, "velocity": 88}, {"time": 119284, "pitch": 59, "duration": 477, "velocity": 88}, {"time": 119761, "pitch": 44, "duration": 236, "velocity": 88}, {"time": 119761, "pitch": 52, "duration": 236, "velocity": 88}, {"time": 119761, "pitch": 56, "duration": 236, "velocity": 88}, {"time": 119761, "pitch": 59, "duration": 236, "velocity": 88}, {"time": 119997, "pitch": 44, "duration": 483, "velocity": 88}, {"time": 119997, "pitch": 52, "duration": 483, "velocity": 88}, {"time": 119997, "pitch": 56, "duration": 483, "velocity": 88}, {"time": 119997, "pitch": 59, "duration": 483, "velocity": 88}, {"time": 120480, "pitch": 44, "duration": 482, "velocity": 88}, {"time": 120480, "pitch": 52, "duration": 482, "velocity": 88}, {"time": 120480, "pitch": 56, "duration": 482, "velocity": 88}, {"time": 120480, "pitch": 59, "duration": 482, "velocity": 88}, {"time": 120962, "pitch": 44, "duration": 483, "velocity": 88}, {"time": 120962, "pitch": 52, "duration": 483, "velocity": 88}, {"time": 120962, "pitch": 56, "duration": 483, "velocity": 88}, {"time": 120962, "pitch": 59, "duration": 483, "velocity": 88}, {"time": 121445, "pitch": 47, "duration": 472, "velocity": 88}, {"time": 121445, "pitch": 54, "duration": 472, "velocity": 88}, {"time": 121445, "pitch": 59, "duration": 472, "velocity": 88}, {"time": 121445, "pitch": 64, "duration": 472, "velocity": 88}, {"time": 121917, "pitch": 47, "duration": 483, "velocity": 88}, {"time": 121917, "pitch": 54, "duration": 483, "velocity": 88}, {"time": 121917, "pitch": 59, "duration": 483, "velocity": 88}, {"time": 121917, "pitch": 64, "duration": 483, "velocity": 88}, {"time": 122400, "pitch": 47, "duration": 241, "velocity": 88}, {"time": 122400, "pitch": 54, "duration": 241, "velocity": 88}, {"time": 122400, "pitch": 59, "duration": 241, "velocity": 88}, {"time": 122400, "pitch": 64, "duration": 241, "velocity": 88}, {"time": 122641, "pitch": 47, "duration": 482, "velocity": 88}, {"time": 122641, "pitch": 54, "duration": 482, "velocity": 88}, {"time": 122641, "pitch": 59, "duration": 482, "velocity": 88}, {"time": 122641, "pitch": 64, "duration": 482, "velocity": 88}, {"time": 123123, "pitch": 47, "duration": 478, "velocity": 88}, {"time": 123123, "pitch": 54, "duration": 478, "velocity": 88}, {"time": 123123, "pitch": 59, "duration": 478, "velocity": 88}, {"time": 123123, "pitch": 63, "duration": 478, "velocity": 88}, {"time": 123601, "pitch": 47, "duration": 236, "velocity": 88}, {"time": 123601, "pitch": 54, "duration": 236, "velocity": 88}, {"time": 123601, "pitch": 59, "duration": 236, "velocity": 88}, {"time": 123601, "pitch": 63, "duration": 236, "velocity": 88}, {"time": 123837, "pitch": 47, "duration": 241, "velocity": 88}, {"time": 123837, "pitch": 54, "duration": 241, "velocity": 88}, {"time": 123837, "pitch": 59, "duration": 241, "velocity": 88}, {"time": 123837, "pitch": 63, "duration": 241, "velocity": 88}, {"time": 124078, "pitch": 47, "duration": 241, "velocity": 88}, {"time": 124078, "pitch": 54, "duration": 241, "velocity": 88}, {"time": 124078, "pitch": 59, "duration": 241, "velocity": 88}, {"time": 124078, "pitch": 63, "duration": 241, "velocity": 88}, {"time": 124319, "pitch": 47, "duration": 242, "velocity": 88}, {"time": 124319, "pitch": 54, "duration": 242, "velocity": 88}, {"time": 124319, "pitch": 59, "duration": 242, "velocity": 88}, {"time": 124319, "pitch": 63, "duration": 242, "velocity": 88}, {"time": 124561, "pitch": 47, "duration": 241, "velocity": 88}, {"time": 124561, "pitch": 54, "duration": 241, "velocity": 88}, {"time": 124561, "pitch": 59, "duration": 241, "velocity": 88}, {"time": 124561, "pitch": 63, "duration": 241, "velocity": 88}, {"time": 124802, "pitch": 47, "duration": 241, "velocity": 88}, {"time": 124802, "pitch": 54, "duration": 241, "velocity": 88}, {"time": 124802, "pitch": 59, "duration": 241, "velocity": 88}, {"time": 124802, "pitch": 63, "duration": 241, "velocity": 88}, {"time": 125043, "pitch": 47, "duration": 241, "velocity": 88}, {"time": 125043, "pitch": 54, "duration": 241, "velocity": 88}, {"time": 125043, "pitch": 59, "duration": 241, "velocity": 88}, {"time": 125043, "pitch": 63, "duration": 241, "velocity": 88}, {"time": 125284, "pitch": 40, "duration": 473, "velocity": 88}, {"time": 125284, "pitch": 56, "duration": 473, "velocity": 88}, {"time": 125284, "pitch": 59, "duration": 473, "velocity": 88}, {"time": 125284, "pitch": 64, "duration": 473, "velocity": 88}, {"time": 125757, "pitch": 40, "duration": 482, "velocity": 88}, {"time": 125757, "pitch": 56, "duration": 482, "velocity": 88}, {"time": 125757, "pitch": 59, "duration": 482, "velocity": 88}, {"time": 125757, "pitch": 64, "duration": 482, "velocity": 88}, {"time": 126239, "pitch": 40, "duration": 241, "velocity": 88}, {"time": 126239, "pitch": 56, "duration": 241, "velocity": 88}, {"time": 126239, "pitch": 59, "duration": 241, "velocity": 88}, {"time": 126239, "pitch": 64, "duration": 241, "velocity": 88}, {"time": 126480, "pitch": 40, "duration": 483, "velocity": 88}, {"time": 126480, "pitch": 56, "duration": 483, "velocity": 88}, {"time": 126480, "pitch": 59, "duration": 483, "velocity": 88}, {"time": 126480, "pitch": 64, "duration": 483, "velocity": 88}, {"time": 126963, "pitch": 47, "duration": 713, "velocity": 88}, {"time": 126963, "pitch": 54, "duration": 713, "velocity": 88}, {"time": 126963, "pitch": 59, "duration": 713, "velocity": 88}, {"time": 126963, "pitch": 63, "duration": 713, "velocity": 88}, {"time": 127676, "pitch": 47, "duration": 483, "velocity": 88}, {"time": 127676, "pitch": 54, "duration": 483, "velocity": 88}, {"time": 127676, "pitch": 59, "duration": 483, "velocity": 88}, {"time": 127676, "pitch": 63, "duration": 483, "velocity": 88}, {"time": 128159, "pitch": 47, "duration": 241, "velocity": 88}, {"time": 128159, "pitch": 54, "duration": 241, "velocity": 88}, {"time": 128159, "pitch": 59, "duration": 241, "velocity": 88}, {"time": 128159, "pitch": 63, "duration": 241, "velocity": 88}, {"time": 128400, "pitch": 47, "duration": 241, "velocity": 88}, {"time": 128641, "pitch": 47, "duration": 483, "velocity": 88}, {"time": 128641, "pitch": 54, "duration": 483, "velocity": 88}, {"time": 128641, "pitch": 59, "duration": 483, "velocity": 88}, {"time": 128641, "pitch": 63, "duration": 483, "velocity": 88}, {"time": 129124, "pitch": 49, "duration": 472, "velocity": 88}, {"time": 129124, "pitch": 56, "duration": 472, "velocity": 88}, {"time": 129124, "pitch": 61, "duration": 472, "velocity": 88}, {"time": 129124, "pitch": 64, "duration": 472, "velocity": 88}, {"time": 129596, "pitch": 49, "duration": 483, "velocity": 88}, {"time": 129596, "pitch": 56, "duration": 483, "velocity": 88}, {"time": 129596, "pitch": 61, "duration": 483, "velocity": 88}, {"time": 129596, "pitch": 64, "duration": 483, "velocity": 88}, {"time": 130079, "pitch": 49, "duration": 241, "velocity": 88}, {"time": 130079, "pitch": 56, "duration": 241, "velocity": 88}, {"time": 130079, "pitch": 61, "duration": 241, "velocity": 88}, {"time": 130079, "pitch": 64, "duration": 241, "velocity": 88}, {"time": 130320, "pitch": 49, "duration": 482, "velocity": 88}, {"time": 130320, "pitch": 56, "duration": 482, "velocity": 88}, {"time": 130320, "pitch": 61, "duration": 482, "velocity": 88}, {"time": 130320, "pitch": 64, "duration": 482, "velocity": 88}, {"time": 130802, "pitch": 42, "duration": 478, "velocity": 88}, {"time": 130802, "pitch": 54, "duration": 478, "velocity": 88}, {"time": 130802, "pitch": 58, "duration": 478, "velocity": 88}, {"time": 130802, "pitch": 61, "duration": 478, "velocity": 88}, {"time": 131280, "pitch": 42, "duration": 236, "velocity": 88}, {"time": 131280, "pitch": 54, "duration": 236, "velocity": 88}, {"time": 131280, "pitch": 58, "duration": 236, "velocity": 88}, {"time": 131280, "pitch": 61, "duration": 236, "velocity": 88}, {"time": 131516, "pitch": 42, "duration": 482, "velocity": 88}, {"time": 131516, "pitch": 54, "duration": 482, "velocity": 88}, {"time": 131516, "pitch": 58, "duration": 482, "velocity": 88}, {"time": 131516, "pitch": 61, "duration": 482, "velocity": 88}, {"time": 131998, "pitch": 42, "duration": 242, "velocity": 88}, {"time": 131998, "pitch": 54, "duration": 242, "velocity": 88}, {"time": 131998, "pitch": 58, "duration": 242, "velocity": 88}, {"time": 131998, "pitch": 61, "duration": 242, "velocity": 88}, {"time": 132240, "pitch": 42, "duration": 241, "velocity": 88}, {"time": 132481, "pitch": 42, "duration": 482, "velocity": 88}, {"time": 132481, "pitch": 54, "duration": 482, "velocity": 88}, {"time": 132481, "pitch": 58, "duration": 482, "velocity": 88}, {"time": 132481, "pitch": 61, "duration": 482, "velocity": 88}, {"time": 132963, "pitch": 42, "duration": 473, "velocity": 88}, {"time": 132963, "pitch": 52, "duration": 473, "velocity": 88}, {"time": 132963, "pitch": 57, "duration": 473, "velocity": 88}, {"time": 132963, "pitch": 61, "duration": 473, "velocity": 104}, {"time": 133436, "pitch": 42, "duration": 482, "velocity": 88}, {"time": 133436, "pitch": 52, "duration": 482, "velocity": 88}, {"time": 133436, "pitch": 57, "duration": 482, "velocity": 88}, {"time": 133436, "pitch": 61, "duration": 120, "velocity": 104}, {"time": 133918, "pitch": 42, "duration": 241, "velocity": 88}, {"time": 133918, "pitch": 52, "duration": 241, "velocity": 88}, {"time": 133918, "pitch": 57, "duration": 241, "velocity": 88}, {"time": 133918, "pitch": 61, "duration": 121, "velocity": 88}, {"time": 134159, "pitch": 42, "duration": 483, "velocity": 88}, {"time": 134159, "pitch": 52, "duration": 483, "velocity": 88}, {"time": 134159, "pitch": 57, "duration": 483, "velocity": 88}, {"time": 134159, "pitch": 61, "duration": 483, "velocity": 88}, {"time": 134642, "pitch": 47, "duration": 477, "velocity": 88}, {"time": 134642, "pitch": 54, "duration": 477, "velocity": 88}, {"time": 134642, "pitch": 57, "duration": 477, "velocity": 88}, {"time": 134642, "pitch": 64, "duration": 477, "velocity": 88}, {"time": 135119, "pitch": 47, "duration": 236, "velocity": 88}, {"time": 135119, "pitch": 54, "duration": 236, "velocity": 88}, {"time": 135119, "pitch": 57, "duration": 236, "velocity": 88}, {"time": 135119, "pitch": 64, "duration": 236, "velocity": 88}, {"time": 135355, "pitch": 47, "duration": 483, "velocity": 88}, {"time": 135355, "pitch": 54, "duration": 483, "velocity": 88}, {"time": 135355, "pitch": 57, "duration": 483, "velocity": 88}, {"time": 135355, "pitch": 64, "duration": 483, "velocity": 88}, {"time": 135838, "pitch": 47, "duration": 482, "velocity": 88}, {"time": 135838, "pitch": 54, "duration": 482, "velocity": 88}, {"time": 135838, "pitch": 57, "duration": 482, "velocity": 88}, {"time": 135838, "pitch": 63, "duration": 482, "velocity": 88}, {"time": 136320, "pitch": 47, "duration": 483, "velocity": 88}, {"time": 136320, "pitch": 54, "duration": 483, "velocity": 88}, {"time": 136320, "pitch": 57, "duration": 483, "velocity": 88}, {"time": 136320, "pitch": 63, "duration": 483, "velocity": 88}, {"time": 136803, "pitch": 40, "duration": 472, "velocity": 88}, {"time": 136803, "pitch": 52, "duration": 472, "velocity": 88}, {"time": 136803, "pitch": 57, "duration": 472, "velocity": 88}, {"time": 136803, "pitch": 64, "duration": 472, "velocity": 88}, {"time": 137275, "pitch": 40, "duration": 483, "velocity": 88}, {"time": 137275, "pitch": 52, "duration": 483, "velocity": 88}, {"time": 137275, "pitch": 57, "duration": 483, "velocity": 88}, {"time": 137275, "pitch": 64, "duration": 483, "velocity": 88}, {"time": 137758, "pitch": 40, "duration": 241, "velocity": 88}, {"time": 137758, "pitch": 52, "duration": 241, "velocity": 88}, {"time": 137758, "pitch": 57, "duration": 241, "velocity": 88}, {"time": 137758, "pitch": 64, "duration": 241, "velocity": 88}, {"time": 137999, "pitch": 40, "duration": 482, "velocity": 88}, {"time": 137999, "pitch": 52, "duration": 482, "velocity": 88}, {"time": 137999, "pitch": 57, "duration": 482, "velocity": 88}, {"time": 137999, "pitch": 64, "duration": 482, "velocity": 88}, {"time": 138481, "pitch": 40, "duration": 483, "velocity": 88}, {"time": 138481, "pitch": 52, "duration": 483, "velocity": 88}, {"time": 138481, "pitch": 56, "duration": 483, "velocity": 88}, {"time": 138481, "pitch": 64, "duration": 483, "velocity": 88}, {"time": 138964, "pitch": 40, "duration": 241, "velocity": 88}, {"time": 138964, "pitch": 52, "duration": 241, "velocity": 88}, {"time": 138964, "pitch": 56, "duration": 241, "velocity": 88}, {"time": 138964, "pitch": 64, "duration": 241, "velocity": 88}, {"time": 139205, "pitch": 40, "duration": 236, "velocity": 88}, {"time": 139205, "pitch": 52, "duration": 236, "velocity": 88}, {"time": 139205, "pitch": 56, "duration": 236, "velocity": 88}, {"time": 139205, "pitch": 64, "duration": 236, "velocity": 88}, {"time": 139441, "pitch": 40, "duration": 236, "velocity": 88}, {"time": 139441, "pitch": 52, "duration": 236, "velocity": 88}, {"time": 139441, "pitch": 56, "duration": 236, "velocity": 88}, {"time": 139441, "pitch": 64, "duration": 236, "velocity": 88}, {"time": 139677, "pitch": 40, "duration": 242, "velocity": 88}, {"time": 139677, "pitch": 52, "duration": 242, "velocity": 88}, {"time": 139677, "pitch": 56, "duration": 242, "velocity": 88}, {"time": 139677, "pitch": 64, "duration": 242, "velocity": 88}, {"time": 139919, "pitch": 40, "duration": 241, "velocity": 88}, {"time": 139919, "pitch": 52, "duration": 241, "velocity": 88}, {"time": 139919, "pitch": 56, "duration": 241, "velocity": 88}, {"time": 139919, "pitch": 64, "duration": 241, "velocity": 88}, {"time": 140160, "pitch": 40, "duration": 241, "velocity": 88}, {"time": 140160, "pitch": 52, "duration": 241, "velocity": 88}, {"time": 140160, "pitch": 56, "duration": 241, "velocity": 88}, {"time": 140160, "pitch": 64, "duration": 241, "velocity": 88}, {"time": 140401, "pitch": 40, "duration": 241, "velocity": 88}, {"time": 140401, "pitch": 52, "duration": 241, "velocity": 88}, {"time": 140401, "pitch": 56, "duration": 241, "velocity": 88}, {"time": 140401, "pitch": 64, "duration": 241, "velocity": 88}, {"time": 140642, "pitch": 49, "duration": 483, "velocity": 88}, {"time": 140642, "pitch": 59, "duration": 483, "velocity": 88}, {"time": 140642, "pitch": 64, "duration": 483, "velocity": 88}, {"time": 140642, "pitch": 68, "duration": 483, "velocity": 88}, {"time": 141125, "pitch": 49, "duration": 472, "velocity": 88}, {"time": 141125, "pitch": 59, "duration": 472, "velocity": 88}, {"time": 141125, "pitch": 64, "duration": 472, "velocity": 88}, {"time": 141125, "pitch": 68, "duration": 472, "velocity": 88}, {"time": 141597, "pitch": 49, "duration": 241, "velocity": 88}, {"time": 141597, "pitch": 59, "duration": 241, "velocity": 88}, {"time": 141597, "pitch": 64, "duration": 241, "velocity": 88}, {"time": 141597, "pitch": 68, "duration": 241, "velocity": 88}, {"time": 141838, "pitch": 49, "duration": 483, "velocity": 88}, {"time": 141838, "pitch": 59, "duration": 483, "velocity": 88}, {"time": 141838, "pitch": 64, "duration": 483, "velocity": 88}, {"time": 141838, "pitch": 68, "duration": 483, "velocity": 88}, {"time": 142321, "pitch": 54, "duration": 723, "velocity": 88}, {"time": 142321, "pitch": 61, "duration": 723, "velocity": 88}, {"time": 142321, "pitch": 64, "duration": 723, "velocity": 88}, {"time": 142321, "pitch": 70, "duration": 723, "velocity": 88}, {"time": 143044, "pitch": 54, "duration": 473, "velocity": 88}, {"time": 143044, "pitch": 61, "duration": 473, "velocity": 88}, {"time": 143044, "pitch": 64, "duration": 473, "velocity": 88}, {"time": 143044, "pitch": 70, "duration": 473, "velocity": 88}, {"time": 143517, "pitch": 54, "duration": 241, "velocity": 88}, {"time": 143517, "pitch": 61, "duration": 241, "velocity": 88}, {"time": 143517, "pitch": 64, "duration": 241, "velocity": 88}, {"time": 143517, "pitch": 70, "duration": 241, "velocity": 88}, {"time": 143758, "pitch": 54, "duration": 241, "velocity": 88}, {"time": 143758, "pitch": 61, "duration": 241, "velocity": 88}, {"time": 143758, "pitch": 64, "duration": 241, "velocity": 88}, {"time": 143758, "pitch": 70, "duration": 241, "velocity": 88}, {"time": 143999, "pitch": 54, "duration": 483, "velocity": 88}, {"time": 143999, "pitch": 61, "duration": 483, "velocity": 88}, {"time": 143999, "pitch": 64, "duration": 483, "velocity": 88}, {"time": 143999, "pitch": 70, "duration": 483, "velocity": 88}, {"time": 144482, "pitch": 49, "duration": 482, "velocity": 88}, {"time": 144482, "pitch": 59, "duration": 482, "velocity": 88}, {"time": 144482, "pitch": 64, "duration": 482, "velocity": 88}, {"time": 144482, "pitch": 68, "duration": 482, "velocity": 88}, {"time": 144964, "pitch": 49, "duration": 473, "velocity": 88}, {"time": 144964, "pitch": 59, "duration": 473, "velocity": 88}, {"time": 144964, "pitch": 64, "duration": 473, "velocity": 88}, {"time": 144964, "pitch": 68, "duration": 473, "velocity": 88}, {"time": 145437, "pitch": 49, "duration": 241, "velocity": 88}, {"time": 145437, "pitch": 59, "duration": 241, "velocity": 88}, {"time": 145437, "pitch": 64, "duration": 241, "velocity": 88}, {"time": 145437, "pitch": 68, "duration": 241, "velocity": 88}, {"time": 145678, "pitch": 49, "duration": 482, "velocity": 88}, {"time": 145678, "pitch": 59, "duration": 482, "velocity": 88}, {"time": 145678, "pitch": 64, "duration": 482, "velocity": 88}, {"time": 145678, "pitch": 68, "duration": 482, "velocity": 88}, {"time": 146160, "pitch": 54, "duration": 724, "velocity": 88}, {"time": 146160, "pitch": 61, "duration": 724, "velocity": 88}, {"time": 146160, "pitch": 64, "duration": 724, "velocity": 88}, {"time": 146160, "pitch": 70, "duration": 724, "velocity": 88}, {"time": 146884, "pitch": 54, "duration": 472, "velocity": 88}, {"time": 146884, "pitch": 61, "duration": 472, "velocity": 88}, {"time": 146884, "pitch": 64, "duration": 472, "velocity": 88}, {"time": 146884, "pitch": 70, "duration": 472, "velocity": 88}, {"time": 147356, "pitch": 54, "duration": 242, "velocity": 88}, {"time": 147356, "pitch": 61, "duration": 242, "velocity": 88}, {"time": 147356, "pitch": 64, "duration": 242, "velocity": 88}, {"time": 147356, "pitch": 70, "duration": 242, "velocity": 88}, {"time": 147598, "pitch": 54, "duration": 241, "velocity": 88}, {"time": 147598, "pitch": 61, "duration": 241, "velocity": 88}, {"time": 147598, "pitch": 64, "duration": 241, "velocity": 88}, {"time": 147598, "pitch": 70, "duration": 241, "velocity": 88}, {"time": 147839, "pitch": 54, "duration": 482, "velocity": 88}, {"time": 147839, "pitch": 61, "duration": 482, "velocity": 88}, {"time": 147839, "pitch": 64, "duration": 482, "velocity": 88}, {"time": 147839, "pitch": 70, "duration": 482, "velocity": 88}, {"time": 148321, "pitch": 49, "duration": 483, "velocity": 88}, {"time": 148321, "pitch": 59, "duration": 483, "velocity": 88}, {"time": 148321, "pitch": 64, "duration": 483, "velocity": 88}, {"time": 148321, "pitch": 68, "duration": 483, "velocity": 88}, {"time": 148804, "pitch": 49, "duration": 472, "velocity": 88}, {"time": 148804, "pitch": 59, "duration": 472, "velocity": 88}, {"time": 148804, "pitch": 64, "duration": 472, "velocity": 88}, {"time": 148804, "pitch": 68, "duration": 472, "velocity": 88}, {"time": 149276, "pitch": 49, "duration": 241, "velocity": 88}, {"time": 149276, "pitch": 59, "duration": 241, "velocity": 88}, {"time": 149276, "pitch": 64, "duration": 241, "velocity": 88}, {"time": 149276, "pitch": 68, "duration": 241, "velocity": 88}, {"time": 149517, "pitch": 49, "duration": 483, "velocity": 88}, {"time": 149517, "pitch": 59, "duration": 483, "velocity": 88}, {"time": 149517, "pitch": 64, "duration": 483, "velocity": 88}, {"time": 149517, "pitch": 68, "duration": 483, "velocity": 88}, {"time": 150000, "pitch": 54, "duration": 723, "velocity": 88}, {"time": 150000, "pitch": 61, "duration": 723, "velocity": 88}, {"time": 150000, "pitch": 64, "duration": 723, "velocity": 88}, {"time": 150000, "pitch": 70, "duration": 723, "velocity": 88}, {"time": 150723, "pitch": 54, "duration": 473, "velocity": 88}, {"time": 150723, "pitch": 61, "duration": 473, "velocity": 88}, {"time": 150723, "pitch": 64, "duration": 473, "velocity": 88}, {"time": 150723, "pitch": 70, "duration": 473, "velocity": 88}, {"time": 151196, "pitch": 54, "duration": 241, "velocity": 88}, {"time": 151196, "pitch": 61, "duration": 241, "velocity": 88}, {"time": 151196, "pitch": 64, "duration": 241, "velocity": 88}, {"time": 151196, "pitch": 70, "duration": 241, "velocity": 88}, {"time": 151437, "pitch": 54, "duration": 241, "velocity": 88}, {"time": 151437, "pitch": 61, "duration": 241, "velocity": 88}, {"time": 151437, "pitch": 64, "duration": 241, "velocity": 88}, {"time": 151437, "pitch": 70, "duration": 241, "velocity": 88}, {"time": 151678, "pitch": 54, "duration": 483, "velocity": 88}, {"time": 151678, "pitch": 61, "duration": 483, "velocity": 88}, {"time": 151678, "pitch": 64, "duration": 483, "velocity": 88}, {"time": 151678, "pitch": 70, "duration": 483, "velocity": 88}, {"time": 152161, "pitch": 47, "duration": 482, "velocity": 88}, {"time": 152161, "pitch": 54, "duration": 482, "velocity": 88}, {"time": 152161, "pitch": 59, "duration": 482, "velocity": 88}, {"time": 152161, "pitch": 64, "duration": 482, "velocity": 88}, {"time": 152161, "pitch": 71, "duration": 482, "velocity": 88}, {"time": 152643, "pitch": 47, "duration": 473, "velocity": 88}, {"time": 152643, "pitch": 54, "duration": 473, "velocity": 88}, {"time": 152643, "pitch": 59, "duration": 473, "velocity": 88}, {"time": 152643, "pitch": 64, "duration": 473, "velocity": 88}, {"time": 152643, "pitch": 71, "duration": 473, "velocity": 88}, {"time": 153116, "pitch": 47, "duration": 241, "velocity": 88}, {"time": 153116, "pitch": 54, "duration": 241, "velocity": 88}, {"time": 153116, "pitch": 59, "duration": 241, "velocity": 88}, {"time": 153116, "pitch": 64, "duration": 241, "velocity": 88}, {"time": 153116, "pitch": 71, "duration": 241, "velocity": 88}, {"time": 153357, "pitch": 47, "duration": 482, "velocity": 88}, {"time": 153357, "pitch": 54, "duration": 482, "velocity": 88}, {"time": 153357, "pitch": 59, "duration": 482, "velocity": 88}, {"time": 153357, "pitch": 64, "duration": 482, "velocity": 88}, {"time": 153357, "pitch": 71, "duration": 482, "velocity": 88}, {"time": 153839, "pitch": 47, "duration": 483, "velocity": 88}, {"time": 153839, "pitch": 54, "duration": 483, "velocity": 88}, {"time": 153839, "pitch": 59, "duration": 483, "velocity": 88}, {"time": 153839, "pitch": 63, "duration": 483, "velocity": 88}, {"time": 153839, "pitch": 71, "duration": 483, "velocity": 88}, {"time": 154322, "pitch": 47, "duration": 241, "velocity": 88}, {"time": 154322, "pitch": 54, "duration": 241, "velocity": 88}, {"time": 154322, "pitch": 59, "duration": 241, "velocity": 88}, {"time": 154322, "pitch": 63, "duration": 241, "velocity": 88}, {"time": 154322, "pitch": 71, "duration": 241, "velocity": 88}, {"time": 154563, "pitch": 47, "duration": 236, "velocity": 88}, {"time": 154563, "pitch": 54, "duration": 236, "velocity": 88}, {"time": 154563, "pitch": 59, "duration": 236, "velocity": 88}, {"time": 154563, "pitch": 63, "duration": 236, "velocity": 88}, {"time": 154563, "pitch": 71, "duration": 236, "velocity": 88}, {"time": 154799, "pitch": 47, "duration": 236, "velocity": 88}, {"time": 154799, "pitch": 54, "duration": 236, "velocity": 88}, {"time": 154799, "pitch": 59, "duration": 236, "velocity": 88}, {"time": 154799, "pitch": 63, "duration": 236, "velocity": 88}, {"time": 154799, "pitch": 71, "duration": 236, "velocity": 88}, {"time": 155035, "pitch": 47, "duration": 242, "velocity": 88}, {"time": 155035, "pitch": 54, "duration": 242, "velocity": 88}, {"time": 155035, "pitch": 59, "duration": 242, "velocity": 88}, {"time": 155035, "pitch": 63, "duration": 242, "velocity": 88}, {"time": 155035, "pitch": 71, "duration": 242, "velocity": 88}, {"time": 155277, "pitch": 47, "duration": 241, "velocity": 88}, {"time": 155277, "pitch": 54, "duration": 241, "velocity": 88}, {"time": 155277, "pitch": 59, "duration": 241, "velocity": 88}, {"time": 155277, "pitch": 63, "duration": 241, "velocity": 88}, {"time": 155277, "pitch": 71, "duration": 241, "velocity": 88}, {"time": 155518, "pitch": 47, "duration": 241, "velocity": 88}, {"time": 155518, "pitch": 54, "duration": 241, "velocity": 88}, {"time": 155518, "pitch": 59, "duration": 241, "velocity": 88}, {"time": 155518, "pitch": 63, "duration": 241, "velocity": 88}, {"time": 155518, "pitch": 71, "duration": 241, "velocity": 88}, {"time": 155759, "pitch": 47, "duration": 241, "velocity": 88}, {"time": 155759, "pitch": 54, "duration": 241, "velocity": 88}, {"time": 155759, "pitch": 59, "duration": 241, "velocity": 88}, {"time": 155759, "pitch": 63, "duration": 241, "velocity": 88}, {"time": 155759, "pitch": 71, "duration": 241, "velocity": 88}, {"time": 156000, "pitch": 40, "duration": 483, "velocity": 88}, {"time": 156000, "pitch": 56, "duration": 483, "velocity": 88}, {"time": 156000, "pitch": 59, "duration": 483, "velocity": 88}, {"time": 156000, "pitch": 64, "duration": 483, "velocity": 88}, {"time": 156483, "pitch": 40, "duration": 472, "velocity": 88}, {"time": 156483, "pitch": 56, "duration": 472, "velocity": 88}, {"time": 156483, "pitch": 59, "duration": 472, "velocity": 88}, {"time": 156483, "pitch": 64, "duration": 472, "velocity": 88}, {"time": 156955, "pitch": 40, "duration": 241, "velocity": 88}, {"time": 156955, "pitch": 56, "duration": 241, "velocity": 88}, {"time": 156955, "pitch": 59, "duration": 241, "velocity": 88}, {"time": 156955, "pitch": 64, "duration": 241, "velocity": 88}, {"time": 157196, "pitch": 40, "duration": 483, "velocity": 88}, {"time": 157196, "pitch": 56, "duration": 483, "velocity": 88}, {"time": 157196, "pitch": 59, "duration": 483, "velocity": 88}, {"time": 157196, "pitch": 64, "duration": 483, "velocity": 88}, {"time": 157679, "pitch": 47, "duration": 724, "velocity": 88}, {"time": 157679, "pitch": 54, "duration": 724, "velocity": 88}, {"time": 157679, "pitch": 59, "duration": 724, "velocity": 88}, {"time": 157679, "pitch": 63, "duration": 724, "velocity": 88}, {"time": 158403, "pitch": 47, "duration": 482, "velocity": 88}, {"time": 158403, "pitch": 54, "duration": 482, "velocity": 88}, {"time": 158403, "pitch": 59, "duration": 482, "velocity": 88}, {"time": 158403, "pitch": 63, "duration": 482, "velocity": 88}, {"time": 158885, "pitch": 47, "duration": 236, "velocity": 88}, {"time": 158885, "pitch": 54, "duration": 236, "velocity": 88}, {"time": 158885, "pitch": 59, "duration": 236, "velocity": 88}, {"time": 158885, "pitch": 63, "duration": 236, "velocity": 88}, {"time": 159121, "pitch": 47, "duration": 236, "velocity": 88}, {"time": 159357, "pitch": 47, "duration": 483, "velocity": 88}, {"time": 159357, "pitch": 54, "duration": 483, "velocity": 88}, {"time": 159357, "pitch": 59, "duration": 483, "velocity": 88}, {"time": 159357, "pitch": 63, "duration": 483, "velocity": 88}, {"time": 159840, "pitch": 49, "duration": 482, "velocity": 88}, {"time": 159840, "pitch": 56, "duration": 482, "velocity": 88}, {"time": 159840, "pitch": 61, "duration": 482, "velocity": 88}, {"time": 159840, "pitch": 64, "duration": 482, "velocity": 88}, {"time": 160322, "pitch": 49, "duration": 483, "velocity": 88}, {"time": 160322, "pitch": 56, "duration": 483, "velocity": 88}, {"time": 160322, "pitch": 61, "duration": 483, "velocity": 88}, {"time": 160322, "pitch": 64, "duration": 483, "velocity": 88}, {"time": 160805, "pitch": 49, "duration": 236, "velocity": 88}, {"time": 160805, "pitch": 56, "duration": 236, "velocity": 88}, {"time": 160805, "pitch": 61, "duration": 236, "velocity": 88}, {"time": 160805, "pitch": 64, "duration": 236, "velocity": 88}, {"time": 161041, "pitch": 49, "duration": 477, "velocity": 88}, {"time": 161041, "pitch": 56, "duration": 477, "velocity": 88}, {"time": 161041, "pitch": 61, "duration": 477, "velocity": 88}, {"time": 161041, "pitch": 64, "duration": 477, "velocity": 88}, {"time": 161518, "pitch": 42, "duration": 483, "velocity": 88}, {"time": 161518, "pitch": 54, "duration": 483, "velocity": 88}, {"time": 161518, "pitch": 58, "duration": 483, "velocity": 88}, {"time": 161518, "pitch": 61, "duration": 483, "velocity": 88}, {"time": 162001, "pitch": 42, "duration": 241, "velocity": 88}, {"time": 162001, "pitch": 54, "duration": 241, "velocity": 88}, {"time": 162001, "pitch": 58, "duration": 241, "velocity": 88}, {"time": 162001, "pitch": 61, "duration": 241, "velocity": 88}, {"time": 162242, "pitch": 42, "duration": 482, "velocity": 88}, {"time": 162242, "pitch": 54, "duration": 482, "velocity": 88}, {"time": 162242, "pitch": 58, "duration": 482, "velocity": 88}, {"time": 162242, "pitch": 61, "duration": 482, "velocity": 88}, {"time": 162724, "pitch": 42, "duration": 237, "velocity": 88}, {"time": 162724, "pitch": 54, "duration": 237, "velocity": 88}, {"time": 162724, "pitch": 58, "duration": 237, "velocity": 88}, {"time": 162724, "pitch": 61, "duration": 237, "velocity": 88}, {"time": 162961, "pitch": 42, "duration": 236, "velocity": 88}, {"time": 163197, "pitch": 42, "duration": 482, "velocity": 88}, {"time": 163197, "pitch": 54, "duration": 482, "velocity": 88}, {"time": 163197, "pitch": 58, "duration": 482, "velocity": 88}, {"time": 163197, "pitch": 61, "duration": 482, "velocity": 88}, {"time": 163679, "pitch": 42, "duration": 483, "velocity": 88}, {"time": 163679, "pitch": 52, "duration": 483, "velocity": 88}, {"time": 163679, "pitch": 57, "duration": 483, "velocity": 88}, {"time": 163679, "pitch": 61, "duration": 483, "velocity": 104}, {"time": 164162, "pitch": 42, "duration": 482, "velocity": 88}, {"time": 164162, "pitch": 52, "duration": 482, "velocity": 88}, {"time": 164162, "pitch": 57, "duration": 482, "velocity": 88}, {"time": 164162, "pitch": 61, "duration": 120, "velocity": 104}, {"time": 164644, "pitch": 42, "duration": 236, "velocity": 88}, {"time": 164644, "pitch": 52, "duration": 236, "velocity": 88}, {"time": 164644, "pitch": 57, "duration": 236, "velocity": 88}, {"time": 164644, "pitch": 61, "duration": 118, "velocity": 88}, {"time": 164880, "pitch": 42, "duration": 478, "velocity": 88}, {"time": 164880, "pitch": 52, "duration": 478, "velocity": 88}, {"time": 164880, "pitch": 57, "duration": 478, "velocity": 88}, {"time": 164880, "pitch": 61, "duration": 478, "velocity": 88}, {"time": 165358, "pitch": 44, "duration": 482, "velocity": 88}, {"time": 165358, "pitch": 52, "duration": 482, "velocity": 88}, {"time": 165358, "pitch": 56, "duration": 482, "velocity": 88}, {"time": 165358, "pitch": 59, "duration": 482, "velocity": 88}, {"time": 165840, "pitch": 44, "duration": 242, "velocity": 88}, {"time": 165840, "pitch": 52, "duration": 242, "velocity": 88}, {"time": 165840, "pitch": 56, "duration": 242, "velocity": 88}, {"time": 165840, "pitch": 59, "duration": 242, "velocity": 88}, {"time": 166082, "pitch": 44, "duration": 482, "velocity": 88}, {"time": 166082, "pitch": 52, "duration": 482, "velocity": 88}, {"time": 166082, "pitch": 56, "duration": 482, "velocity": 88}, {"time": 166082, "pitch": 59, "duration": 482, "velocity": 88}, {"time": 166564, "pitch": 44, "duration": 472, "velocity": 88}, {"time": 166564, "pitch": 52, "duration": 472, "velocity": 88}, {"time": 166564, "pitch": 56, "duration": 472, "velocity": 88}, {"time": 166564, "pitch": 59, "duration": 472, "velocity": 88}, {"time": 167036, "pitch": 44, "duration": 483, "velocity": 88}, {"time": 167036, "pitch": 52, "duration": 483, "velocity": 88}, {"time": 167036, "pitch": 56, "duration": 483, "velocity": 88}, {"time": 167036, "pitch": 59, "duration": 483, "velocity": 88}, {"time": 167519, "pitch": 47, "duration": 482, "velocity": 88}, {"time": 167519, "pitch": 54, "duration": 482, "velocity": 88}, {"time": 167519, "pitch": 59, "duration": 482, "velocity": 88}, {"time": 167519, "pitch": 64, "duration": 482, "velocity": 88}, {"time": 168001, "pitch": 47, "duration": 483, "velocity": 88}, {"time": 168001, "pitch": 54, "duration": 483, "velocity": 88}, {"time": 168001, "pitch": 59, "duration": 483, "velocity": 88}, {"time": 168001, "pitch": 64, "duration": 483, "velocity": 88}, {"time": 168484, "pitch": 47, "duration": 236, "velocity": 88}, {"time": 168484, "pitch": 54, "duration": 236, "velocity": 88}, {"time": 168484, "pitch": 59, "duration": 236, "velocity": 88}, {"time": 168484, "pitch": 64, "duration": 236, "velocity": 88}, {"time": 168720, "pitch": 47, "duration": 477, "velocity": 88}, {"time": 168720, "pitch": 54, "duration": 477, "velocity": 88}, {"time": 168720, "pitch": 59, "duration": 477, "velocity": 88}, {"time": 168720, "pitch": 64, "duration": 477, "velocity": 88}, {"time": 169197, "pitch": 47, "duration": 483, "velocity": 88}, {"time": 169197, "pitch": 54, "duration": 483, "velocity": 88}, {"time": 169197, "pitch": 59, "duration": 483, "velocity": 88}, {"time": 169197, "pitch": 63, "duration": 483, "velocity": 88}, {"time": 169680, "pitch": 47, "duration": 241, "velocity": 88}, {"time": 169680, "pitch": 54, "duration": 241, "velocity": 88}, {"time": 169680, "pitch": 59, "duration": 241, "velocity": 88}, {"time": 169680, "pitch": 63, "duration": 241, "velocity": 88}, {"time": 169921, "pitch": 47, "duration": 241, "velocity": 88}, {"time": 169921, "pitch": 54, "duration": 241, "velocity": 88}, {"time": 169921, "pitch": 59, "duration": 241, "velocity": 88}, {"time": 169921, "pitch": 63, "duration": 241, "velocity": 88}, {"time": 170162, "pitch": 47, "duration": 242, "velocity": 88}, {"time": 170162, "pitch": 54, "duration": 242, "velocity": 88}, {"time": 170162, "pitch": 59, "duration": 242, "velocity": 88}, {"time": 170162, "pitch": 63, "duration": 242, "velocity": 88}, {"time": 170404, "pitch": 47, "duration": 236, "velocity": 88}, {"time": 170404, "pitch": 54, "duration": 236, "velocity": 88}, {"time": 170404, "pitch": 59, "duration": 236, "velocity": 88}, {"time": 170404, "pitch": 63, "duration": 236, "velocity": 88}, {"time": 170640, "pitch": 47, "duration": 236, "velocity": 88}, {"time": 170640, "pitch": 54, "duration": 236, "velocity": 88}, {"time": 170640, "pitch": 59, "duration": 236, "velocity": 88}, {"time": 170640, "pitch": 63, "duration": 236, "velocity": 88}, {"time": 170876, "pitch": 47, "duration": 241, "velocity": 88}, {"time": 170876, "pitch": 54, "duration": 241, "velocity": 88}, {"time": 170876, "pitch": 59, "duration": 241, "velocity": 88}, {"time": 170876, "pitch": 63, "duration": 241, "velocity": 88}, {"time": 171117, "pitch": 47, "duration": 241, "velocity": 88}, {"time": 171117, "pitch": 54, "duration": 241, "velocity": 88}, {"time": 171117, "pitch": 59, "duration": 241, "velocity": 88}, {"time": 171117, "pitch": 63, "duration": 241, "velocity": 88}, {"time": 171358, "pitch": 40, "duration": 483, "velocity": 88}, {"time": 171358, "pitch": 56, "duration": 483, "velocity": 88}, {"time": 171358, "pitch": 59, "duration": 483, "velocity": 88}, {"time": 171358, "pitch": 64, "duration": 483, "velocity": 88}, {"time": 171841, "pitch": 40, "duration": 482, "velocity": 88}, {"time": 171841, "pitch": 56, "duration": 482, "velocity": 88}, {"time": 171841, "pitch": 59, "duration": 482, "velocity": 88}, {"time": 171841, "pitch": 64, "duration": 482, "velocity": 88}, {"time": 172323, "pitch": 40, "duration": 236, "velocity": 88}, {"time": 172323, "pitch": 56, "duration": 236, "velocity": 88}, {"time": 172323, "pitch": 59, "duration": 236, "velocity": 88}, {"time": 172323, "pitch": 64, "duration": 236, "velocity": 88}, {"time": 172559, "pitch": 40, "duration": 478, "velocity": 88}, {"time": 172559, "pitch": 56, "duration": 478, "velocity": 88}, {"time": 172559, "pitch": 59, "duration": 478, "velocity": 88}, {"time": 172559, "pitch": 64, "duration": 478, "velocity": 88}, {"time": 173037, "pitch": 47, "duration": 724, "velocity": 88}, {"time": 173037, "pitch": 54, "duration": 724, "velocity": 88}, {"time": 173037, "pitch": 59, "duration": 724, "velocity": 88}, {"time": 173037, "pitch": 63, "duration": 724, "velocity": 88}, {"time": 173761, "pitch": 47, "duration": 482, "velocity": 88}, {"time": 173761, "pitch": 54, "duration": 482, "velocity": 88}, {"time": 173761, "pitch": 59, "duration": 482, "velocity": 88}, {"time": 173761, "pitch": 63, "duration": 482, "velocity": 88}, {"time": 174243, "pitch": 47, "duration": 236, "velocity": 88}, {"time": 174243, "pitch": 54, "duration": 236, "velocity": 88}, {"time": 174243, "pitch": 59, "duration": 236, "velocity": 88}, {"time": 174243, "pitch": 63, "duration": 236, "velocity": 88}, {"time": 174479, "pitch": 47, "duration": 236, "velocity": 88}, {"time": 174715, "pitch": 47, "duration": 483, "velocity": 88}, {"time": 174715, "pitch": 54, "duration": 483, "velocity": 88}, {"time": 174715, "pitch": 59, "duration": 483, "velocity": 88}, {"time": 174715, "pitch": 63, "duration": 483, "velocity": 88}, {"time": 175198, "pitch": 49, "duration": 482, "velocity": 88}, {"time": 175198, "pitch": 56, "duration": 482, "velocity": 88}, {"time": 175198, "pitch": 61, "duration": 482, "velocity": 88}, {"time": 175198, "pitch": 64, "duration": 482, "velocity": 88}, {"time": 175680, "pitch": 49, "duration": 483, "velocity": 88}, {"time": 175680, "pitch": 56, "duration": 483, "velocity": 88}, {"time": 175680, "pitch": 61, "duration": 483, "velocity": 88}, {"time": 175680, "pitch": 64, "duration": 483, "velocity": 88}, {"time": 176163, "pitch": 49, "duration": 236, "velocity": 88}, {"time": 176163, "pitch": 56, "duration": 236, "velocity": 88}, {"time": 176163, "pitch": 61, "duration": 236, "velocity": 88}, {"time": 176163, "pitch": 64, "duration": 236, "velocity": 88}, {"time": 176399, "pitch": 49, "duration": 477, "velocity": 88}, {"time": 176399, "pitch": 56, "duration": 477, "velocity": 88}, {"time": 176399, "pitch": 61, "duration": 477, "velocity": 88}, {"time": 176399, "pitch": 64, "duration": 477, "velocity": 88}, {"time": 176876, "pitch": 42, "duration": 483, "velocity": 88}, {"time": 176876, "pitch": 54, "duration": 483, "velocity": 88}, {"time": 176876, "pitch": 58, "duration": 483, "velocity": 88}, {"time": 176876, "pitch": 61, "duration": 483, "velocity": 88}, {"time": 177359, "pitch": 42, "duration": 241, "velocity": 88}, {"time": 177359, "pitch": 54, "duration": 241, "velocity": 88}, {"time": 177359, "pitch": 58, "duration": 241, "velocity": 88}, {"time": 177359, "pitch": 61, "duration": 241, "velocity": 88}, {"time": 177600, "pitch": 42, "duration": 483, "velocity": 88}, {"time": 177600, "pitch": 54, "duration": 483, "velocity": 88}, {"time": 177600, "pitch": 58, "duration": 483, "velocity": 88}, {"time": 177600, "pitch": 61, "duration": 483, "velocity": 88}, {"time": 178083, "pitch": 42, "duration": 236, "velocity": 88}, {"time": 178083, "pitch": 54, "duration": 236, "velocity": 88}, {"time": 178083, "pitch": 58, "duration": 236, "velocity": 88}, {"time": 178083, "pitch": 61, "duration": 236, "velocity": 88}, {"time": 178319, "pitch": 42, "duration": 236, "velocity": 88}, {"time": 178555, "pitch": 42, "duration": 482, "velocity": 88}, {"time": 178555, "pitch": 54, "duration": 482, "velocity": 88}, {"time": 178555, "pitch": 58, "duration": 482, "velocity": 88}, {"time": 178555, "pitch": 61, "duration": 482, "velocity": 88}, {"time": 179037, "pitch": 42, "duration": 483, "velocity": 88}, {"time": 179037, "pitch": 52, "duration": 483, "velocity": 88}, {"time": 179037, "pitch": 57, "duration": 483, "velocity": 88}, {"time": 179037, "pitch": 61, "duration": 483, "velocity": 104}, {"time": 179520, "pitch": 42, "duration": 482, "velocity": 88}, {"time": 179520, "pitch": 52, "duration": 482, "velocity": 88}, {"time": 179520, "pitch": 57, "duration": 482, "velocity": 88}, {"time": 179520, "pitch": 61, "duration": 121, "velocity": 104}, {"time": 180002, "pitch": 42, "duration": 242, "velocity": 88}, {"time": 180002, "pitch": 52, "duration": 242, "velocity": 88}, {"time": 180002, "pitch": 57, "duration": 242, "velocity": 88}, {"time": 180002, "pitch": 61, "duration": 121, "velocity": 88}, {"time": 180244, "pitch": 42, "duration": 477, "velocity": 88}, {"time": 180244, "pitch": 52, "duration": 477, "velocity": 88}, {"time": 180244, "pitch": 57, "duration": 477, "velocity": 88}, {"time": 180244, "pitch": 61, "duration": 477, "velocity": 88}, {"time": 180721, "pitch": 47, "duration": 477, "velocity": 88}, {"time": 180721, "pitch": 54, "duration": 477, "velocity": 88}, {"time": 180721, "pitch": 57, "duration": 477, "velocity": 88}, {"time": 180721, "pitch": 64, "duration": 477, "velocity": 88}, {"time": 181198, "pitch": 47, "duration": 242, "velocity": 88}, {"time": 181198, "pitch": 54, "duration": 242, "velocity": 88}, {"time": 181198, "pitch": 57, "duration": 242, "velocity": 88}, {"time": 181198, "pitch": 64, "duration": 242, "velocity": 88}, {"time": 181440, "pitch": 47, "duration": 482, "velocity": 88}, {"time": 181440, "pitch": 54, "duration": 482, "velocity": 88}, {"time": 181440, "pitch": 57, "duration": 482, "velocity": 88}, {"time": 181440, "pitch": 64, "duration": 482, "velocity": 88}, {"time": 181922, "pitch": 47, "duration": 483, "velocity": 88}, {"time": 181922, "pitch": 54, "duration": 483, "velocity": 88}, {"time": 181922, "pitch": 57, "duration": 483, "velocity": 88}, {"time": 181922, "pitch": 63, "duration": 483, "velocity": 88}, {"time": 182405, "pitch": 47, "duration": 472, "velocity": 88}, {"time": 182405, "pitch": 54, "duration": 472, "velocity": 88}, {"time": 182405, "pitch": 57, "duration": 472, "velocity": 88}, {"time": 182405, "pitch": 63, "duration": 472, "velocity": 88}, {"time": 182877, "pitch": 40, "duration": 482, "velocity": 88}, {"time": 182877, "pitch": 52, "duration": 482, "velocity": 88}, {"time": 182877, "pitch": 57, "duration": 482, "velocity": 88}, {"time": 182877, "pitch": 64, "duration": 482, "velocity": 88}, {"time": 183359, "pitch": 40, "duration": 483, "velocity": 88}, {"time": 183359, "pitch": 52, "duration": 483, "velocity": 88}, {"time": 183359, "pitch": 57, "duration": 483, "velocity": 88}, {"time": 183359, "pitch": 64, "duration": 483, "velocity": 88}, {"time": 183842, "pitch": 40, "duration": 241, "velocity": 88}, {"time": 183842, "pitch": 52, "duration": 241, "velocity": 88}, {"time": 183842, "pitch": 57, "duration": 241, "velocity": 88}, {"time": 183842, "pitch": 64, "duration": 241, "velocity": 88}, {"time": 184083, "pitch": 40, "duration": 477, "velocity": 88}, {"time": 184083, "pitch": 52, "duration": 477, "velocity": 88}, {"time": 184083, "pitch": 57, "duration": 477, "velocity": 88}, {"time": 184083, "pitch": 64, "duration": 477, "velocity": 88}, {"time": 184560, "pitch": 40, "duration": 5996, "velocity": 88}, {"time": 184560, "pitch": 52, "duration": 5996, "velocity": 88}, {"time": 184560, "pitch": 56, "duration": 5996, "velocity": 88}, {"time": 184560, "pitch": 64, "duration": 4076, "velocity": 88}], "annotations": [{"time": 300, "annotation": {"number": 7, "value": 105}, "group": "control_change"}, {"time": 320, "annotation": {"number": 11, "value": 100}, "group": "control_change"}, {"time": 340, "annotation": {"number": 10, "value": 64}, "group": "control_change"}, {"time": 360, "annotation": {"number": 91, "value": 40}, "group": "control_change"}, {"time": 380, "annotation": {"number": 93, "value": 0}, "group": "control_change"}, {"time": 400, "annotation": {"number": 101, "value": 0}, "group": "control_change"}, {"time": 420, "annotation": {"number": 100, "value": 0}, "group": "control_change"}, {"time": 440, "annotation": {"number": 6, "value": 12}, "group": "control_change"}, {"time": 460, "annotation": {"number": 101, "value": 127}, "group": "control_change"}, {"time": 480, "annotation": {"number": 100, "value": 127}, "group": "control_change"}]}, {"program": 0, "is_drum": false, "name": "BASS", "annotations": [{"time": 240, "annotation": {"number": 0, "value": 0}, "group": "control_change"}, {"time": 260, "annotation": {"number": 32, "value": 2}, "group": "control_change"}]}, {"program": 33, "is_drum": false, "name": "BASS", "notes": [{"time": 2400, "pitch": 35, "duration": 241, "velocity": 110}, {"time": 2641, "pitch": 35, "duration": 241, "velocity": 110}, {"time": 2882, "pitch": 35, "duration": 241, "velocity": 110}, {"time": 3123, "pitch": 35, "duration": 241, "velocity": 110}, {"time": 3364, "pitch": 35, "duration": 237, "velocity": 110}, {"time": 3601, "pitch": 33, "duration": 236, "velocity": 110}, {"time": 3837, "pitch": 33, "duration": 241, "velocity": 110}, {"time": 4078, "pitch": 35, "duration": 483, "velocity": 110}, {"time": 4561, "pitch": 35, "duration": 241, "velocity": 110}, {"time": 4802, "pitch": 35, "duration": 241, "velocity": 110}, {"time": 5043, "pitch": 35, "duration": 241, "velocity": 110}, {"time": 5284, "pitch": 35, "duration": 236, "velocity": 110}, {"time": 5520, "pitch": 33, "duration": 237, "velocity": 110}, {"time": 5757, "pitch": 33, "duration": 241, "velocity": 110}, {"time": 5998, "pitch": 35, "duration": 482, "velocity": 110}, {"time": 6480, "pitch": 35, "duration": 242, "velocity": 110}, {"time": 6722, "pitch": 35, "duration": 241, "velocity": 110}, {"time": 6963, "pitch": 35, "duration": 241, "velocity": 110}, {"time": 7204, "pitch": 35, "duration": 236, "velocity": 110}, {"time": 7440, "pitch": 35, "duration": 236, "velocity": 110}, {"time": 7676, "pitch": 35, "duration": 242, "velocity": 110}, {"time": 7918, "pitch": 35, "duration": 241, "velocity": 110}, {"time": 8159, "pitch": 35, "duration": 241, "velocity": 110}, {"time": 8400, "pitch": 35, "duration": 241, "velocity": 110}, {"time": 8641, "pitch": 37, "duration": 242, "velocity": 110}, {"time": 8883, "pitch": 37, "duration": 241, "velocity": 110}, {"time": 9124, "pitch": 38, "duration": 236, "velocity": 110}, {"time": 9360, "pitch": 38, "duration": 236, "velocity": 110}, {"time": 9596, "pitch": 39, "duration": 241, "velocity": 110}, {"time": 9837, "pitch": 39, "duration": 242, "velocity": 110}, {"time": 10079, "pitch": 28, "duration": 482, "velocity": 110}, {"time": 10561, "pitch": 40, "duration": 482, "velocity": 110}, {"time": 11043, "pitch": 28, "duration": 237, "velocity": 110}, {"time": 11280, "pitch": 32, "duration": 236, "velocity": 110}, {"time": 11516, "pitch": 33, "duration": 241, "velocity": 110}, {"time": 11757, "pitch": 35, "duration": 483, "velocity": 110}, {"time": 12240, "pitch": 35, "duration": 241, "velocity": 110}, {"time": 12481, "pitch": 37, "duration": 241, "velocity": 110}, {"time": 12722, "pitch": 35, "duration": 241, "velocity": 110}, {"time": 12963, "pitch": 38, "duration": 236, "velocity": 110}, {"time": 13199, "pitch": 35, "duration": 237, "velocity": 110}, {"time": 13436, "pitch": 37, "duration": 241, "velocity": 110}, {"time": 13677, "pitch": 35, "duration": 241, "velocity": 110}, {"time": 13918, "pitch": 28, "duration": 483, "velocity": 110}, {"time": 14401, "pitch": 40, "duration": 482, "velocity": 110}, {"time": 14883, "pitch": 28, "duration": 236, "velocity": 110}, {"time": 15119, "pitch": 32, "duration": 236, "velocity": 110}, {"time": 15355, "pitch": 33, "duration": 242, "velocity": 110}, {"time": 15597, "pitch": 35, "duration": 482, "velocity": 110}, {"time": 16079, "pitch": 35, "duration": 241, "velocity": 110}, {"time": 16320, "pitch": 37, "duration": 242, "velocity": 110}, {"time": 16562, "pitch": 35, "duration": 241, "velocity": 110}, {"time": 16803, "pitch": 38, "duration": 236, "velocity": 110}, {"time": 17039, "pitch": 35, "duration": 236, "velocity": 110}, {"time": 17275, "pitch": 37, "duration": 241, "velocity": 110}, {"time": 17516, "pitch": 35, "duration": 242, "velocity": 110}, {"time": 17758, "pitch": 28, "duration": 482, "velocity": 110}, {"time": 18240, "pitch": 40, "duration": 483, "velocity": 110}, {"time": 18723, "pitch": 28, "duration": 241, "velocity": 110}, {"time": 18964, "pitch": 32, "duration": 241, "velocity": 110}, {"time": 19205, "pitch": 33, "duration": 236, "velocity": 110}, {"time": 19441, "pitch": 35, "duration": 478, "velocity": 110}, {"time": 19919, "pitch": 35, "duration": 241, "velocity": 110}, {"time": 20160, "pitch": 37, "duration": 241, "velocity": 110}, {"time": 20401, "pitch": 35, "duration": 241, "velocity": 110}, {"time": 20642, "pitch": 38, "duration": 242, "velocity": 110}, {"time": 20884, "pitch": 35, "duration": 241, "velocity": 110}, {"time": 21125, "pitch": 37, "duration": 236, "velocity": 110}, {"time": 21361, "pitch": 35, "duration": 236, "velocity": 110}, {"time": 21597, "pitch": 28, "duration": 483, "velocity": 110}, {"time": 22080, "pitch": 40, "duration": 482, "velocity": 110}, {"time": 22562, "pitch": 28, "duration": 241, "velocity": 110}, {"time": 22803, "pitch": 32, "duration": 241, "velocity": 110}, {"time": 23044, "pitch": 33, "duration": 237, "velocity": 110}, {"time": 23281, "pitch": 35, "duration": 477, "velocity": 110}, {"time": 23758, "pitch": 35, "duration": 241, "velocity": 110}, {"time": 23999, "pitch": 37, "duration": 242, "velocity": 110}, {"time": 24241, "pitch": 35, "duration": 241, "velocity": 110}, {"time": 24482, "pitch": 38, "duration": 241, "velocity": 110}, {"time": 24723, "pitch": 35, "duration": 241, "velocity": 110}, {"time": 24964, "pitch": 37, "duration": 236, "velocity": 110}, {"time": 25200, "pitch": 35, "duration": 237, "velocity": 110}, {"time": 25437, "pitch": 33, "duration": 482, "velocity": 110}, {"time": 25919, "pitch": 33, "duration": 483, "velocity": 110}, {"time": 26402, "pitch": 33, "duration": 241, "velocity": 110}, {"time": 26643, "pitch": 37, "duration": 241, "velocity": 110}, {"time": 26884, "pitch": 40, "duration": 236, "velocity": 110}, {"time": 27120, "pitch": 32, "duration": 478, "velocity": 110}, {"time": 27598, "pitch": 32, "duration": 241, "velocity": 110}, {"time": 27839, "pitch": 35, "duration": 241, "velocity": 110}, {"time": 28080, "pitch": 40, "duration": 483, "velocity": 110}, {"time": 28563, "pitch": 35, "duration": 241, "velocity": 110}, {"time": 28804, "pitch": 32, "duration": 472, "velocity": 110}, {"time": 29276, "pitch": 30, "duration": 241, "velocity": 110}, {"time": 29517, "pitch": 32, "duration": 242, "velocity": 110}, {"time": 29759, "pitch": 33, "duration": 241, "velocity": 110}, {"time": 30000, "pitch": 35, "duration": 482, "velocity": 110}, {"time": 30482, "pitch": 37, "duration": 241, "velocity": 110}, {"time": 30723, "pitch": 39, "duration": 237, "velocity": 110}, {"time": 30960, "pitch": 40, "duration": 477, "velocity": 110}, {"time": 31437, "pitch": 28, "duration": 241, "velocity": 110}, {"time": 31678, "pitch": 40, "duration": 242, "velocity": 110}, {"time": 31920, "pitch": 40, "duration": 482, "velocity": 110}, {"time": 32402, "pitch": 38, "duration": 241, "velocity": 110}, {"time": 32643, "pitch": 35, "duration": 473, "velocity": 110}, {"time": 33116, "pitch": 33, "duration": 482, "velocity": 110}, {"time": 33598, "pitch": 33, "duration": 483, "velocity": 110}, {"time": 34081, "pitch": 33, "duration": 241, "velocity": 110}, {"time": 34322, "pitch": 37, "duration": 241, "velocity": 110}, {"time": 34563, "pitch": 40, "duration": 236, "velocity": 110}, {"time": 34799, "pitch": 32, "duration": 478, "velocity": 110}, {"time": 35277, "pitch": 35, "duration": 241, "velocity": 110}, {"time": 35518, "pitch": 36, "duration": 241, "velocity": 110}, {"time": 35759, "pitch": 37, "duration": 483, "velocity": 110}, {"time": 36242, "pitch": 39, "duration": 241, "velocity": 110}, {"time": 36483, "pitch": 41, "duration": 472, "velocity": 110}, {"time": 36955, "pitch": 42, "duration": 483, "velocity": 110}, {"time": 37438, "pitch": 42, "duration": 482, "velocity": 110}, {"time": 37920, "pitch": 37, "duration": 241, "velocity": 110}, {"time": 38161, "pitch": 42, "duration": 242, "velocity": 110}, {"time": 38403, "pitch": 37, "duration": 241, "velocity": 110}, {"time": 38644, "pitch": 42, "duration": 713, "velocity": 110}, {"time": 39357, "pitch": 42, "duration": 483, "velocity": 110}, {"time": 39840, "pitch": 34, "duration": 241, "velocity": 110}, {"time": 40081, "pitch": 35, "duration": 241, "velocity": 110}, {"time": 40322, "pitch": 37, "duration": 483, "velocity": 110}, {"time": 40805, "pitch": 35, "duration": 472, "velocity": 110}, {"time": 41277, "pitch": 35, "duration": 483, "velocity": 110}, {"time": 41760, "pitch": 39, "duration": 241, "velocity": 110}, {"time": 42001, "pitch": 35, "duration": 482, "velocity": 110}, {"time": 42483, "pitch": 35, "duration": 478, "velocity": 110}, {"time": 42961, "pitch": 35, "duration": 236, "velocity": 110}, {"time": 43197, "pitch": 37, "duration": 241, "velocity": 110}, {"time": 43438, "pitch": 37, "duration": 241, "velocity": 110}, {"time": 43679, "pitch": 38, "duration": 242, "velocity": 110}, {"time": 43921, "pitch": 38, "duration": 241, "velocity": 110}, {"time": 44162, "pitch": 39, "duration": 241, "velocity": 110}, {"time": 44403, "pitch": 39, "duration": 241, "velocity": 110}, {"time": 44644, "pitch": 40, "duration": 236, "velocity": 110}, {"time": 45117, "pitch": 40, "duration": 241, "velocity": 110}, {"time": 45599, "pitch": 40, "duration": 241, "velocity": 110}, {"time": 45840, "pitch": 35, "duration": 242, "velocity": 110}, {"time": 46082, "pitch": 40, "duration": 241, "velocity": 110}, {"time": 46323, "pitch": 35, "duration": 241, "velocity": 110}, {"time": 46800, "pitch": 35, "duration": 236, "velocity": 110}, {"time": 47036, "pitch": 35, "duration": 483, "velocity": 110}, {"time": 47519, "pitch": 35, "duration": 241, "velocity": 110}, {"time": 47760, "pitch": 32, "duration": 241, "velocity": 110}, {"time": 48001, "pitch": 35, "duration": 483, "velocity": 110}, {"time": 48484, "pitch": 37, "duration": 236, "velocity": 110}, {"time": 48956, "pitch": 37, "duration": 241, "velocity": 110}, {"time": 49439, "pitch": 37, "duration": 241, "velocity": 110}, {"time": 49680, "pitch": 35, "duration": 241, "velocity": 110}, {"time": 49921, "pitch": 32, "duration": 241, "velocity": 110}, {"time": 50162, "pitch": 30, "duration": 478, "velocity": 110}, {"time": 50640, "pitch": 32, "duration": 236, "velocity": 110}, {"time": 50876, "pitch": 33, "duration": 241, "velocity": 110}, {"time": 51117, "pitch": 34, "duration": 483, "velocity": 110}, {"time": 51600, "pitch": 35, "duration": 241, "velocity": 110}, {"time": 51841, "pitch": 37, "duration": 482, "velocity": 110}, {"time": 52323, "pitch": 30, "duration": 473, "velocity": 110}, {"time": 52796, "pitch": 30, "duration": 482, "velocity": 110}, {"time": 53278, "pitch": 30, "duration": 241, "velocity": 110}, {"time": 53519, "pitch": 32, "duration": 242, "velocity": 110}, {"time": 53761, "pitch": 33, "duration": 241, "velocity": 110}, {"time": 54002, "pitch": 32, "duration": 713, "velocity": 110}, {"time": 54715, "pitch": 32, "duration": 483, "velocity": 110}, {"time": 55198, "pitch": 40, "duration": 241, "velocity": 110}, {"time": 55439, "pitch": 35, "duration": 241, "velocity": 110}, {"time": 55680, "pitch": 32, "duration": 483, "velocity": 110}, {"time": 56163, "pitch": 35, "duration": 472, "velocity": 110}, {"time": 56635, "pitch": 35, "duration": 483, "velocity": 110}, {"time": 57118, "pitch": 35, "duration": 241, "velocity": 110}, {"time": 57359, "pitch": 30, "duration": 241, "velocity": 110}, {"time": 57600, "pitch": 32, "duration": 241, "velocity": 110}, {"time": 57841, "pitch": 35, "duration": 483, "velocity": 110}, {"time": 58324, "pitch": 35, "duration": 241, "velocity": 110}, {"time": 58565, "pitch": 37, "duration": 236, "velocity": 110}, {"time": 58801, "pitch": 37, "duration": 236, "velocity": 110}, {"time": 59037, "pitch": 38, "duration": 242, "velocity": 110}, {"time": 59279, "pitch": 38, "duration": 241, "velocity": 110}, {"time": 59520, "pitch": 39, "duration": 241, "velocity": 110}, {"time": 59761, "pitch": 39, "duration": 241, "velocity": 110}, {"time": 60002, "pitch": 40, "duration": 242, "velocity": 110}, {"time": 60485, "pitch": 40, "duration": 236, "velocity": 110}, {"time": 60957, "pitch": 40, "duration": 241, "velocity": 110}, {"time": 61198, "pitch": 35, "duration": 242, "velocity": 110}, {"time": 61440, "pitch": 40, "duration": 241, "velocity": 110}, {"time": 61681, "pitch": 35, "duration": 241, "velocity": 110}, {"time": 62163, "pitch": 35, "duration": 242, "velocity": 110}, {"time": 62405, "pitch": 35, "duration": 472, "velocity": 110}, {"time": 62877, "pitch": 35, "duration": 241, "velocity": 110}, {"time": 63118, "pitch": 32, "duration": 241, "velocity": 110}, {"time": 63359, "pitch": 35, "duration": 483, "velocity": 110}, {"time": 63842, "pitch": 37, "duration": 241, "velocity": 110}, {"time": 64324, "pitch": 37, "duration": 236, "velocity": 110}, {"time": 64797, "pitch": 37, "duration": 241, "velocity": 110}, {"time": 65038, "pitch": 35, "duration": 241, "velocity": 110}, {"time": 65279, "pitch": 32, "duration": 241, "velocity": 110}, {"time": 65520, "pitch": 30, "duration": 483, "velocity": 110}, {"time": 66003, "pitch": 32, "duration": 241, "velocity": 110}, {"time": 66244, "pitch": 33, "duration": 236, "velocity": 110}, {"time": 66480, "pitch": 34, "duration": 478, "velocity": 110}, {"time": 66958, "pitch": 35, "duration": 241, "velocity": 110}, {"time": 67199, "pitch": 37, "duration": 482, "velocity": 110}, {"time": 67681, "pitch": 30, "duration": 483, "velocity": 110}, {"time": 68164, "pitch": 30, "duration": 472, "velocity": 110}, {"time": 68636, "pitch": 30, "duration": 241, "velocity": 110}, {"time": 68877, "pitch": 32, "duration": 242, "velocity": 110}, {"time": 69119, "pitch": 33, "duration": 241, "velocity": 110}, {"time": 69360, "pitch": 35, "duration": 724, "velocity": 110}, {"time": 70084, "pitch": 35, "duration": 472, "velocity": 110}, {"time": 70556, "pitch": 42, "duration": 241, "velocity": 110}, {"time": 70797, "pitch": 35, "duration": 241, "velocity": 110}, {"time": 71038, "pitch": 30, "duration": 483, "velocity": 110}, {"time": 71521, "pitch": 28, "duration": 482, "velocity": 110}, {"time": 72003, "pitch": 28, "duration": 473, "velocity": 110}, {"time": 72476, "pitch": 30, "duration": 241, "velocity": 110}, {"time": 72717, "pitch": 28, "duration": 241, "velocity": 110}, {"time": 72958, "pitch": 28, "duration": 241, "velocity": 110}, {"time": 73199, "pitch": 40, "duration": 483, "velocity": 110}, {"time": 73682, "pitch": 40, "duration": 241, "velocity": 110}, {"time": 73923, "pitch": 35, "duration": 236, "velocity": 110}, {"time": 74159, "pitch": 35, "duration": 237, "velocity": 110}, {"time": 74396, "pitch": 33, "duration": 241, "velocity": 110}, {"time": 74637, "pitch": 33, "duration": 241, "velocity": 110}, {"time": 74878, "pitch": 32, "duration": 241, "velocity": 110}, {"time": 75119, "pitch": 32, "duration": 241, "velocity": 110}, {"time": 75360, "pitch": 28, "duration": 483, "velocity": 110}, {"time": 75843, "pitch": 40, "duration": 472, "velocity": 110}, {"time": 76315, "pitch": 28, "duration": 241, "velocity": 110}, {"time": 76556, "pitch": 32, "duration": 242, "velocity": 110}, {"time": 76798, "pitch": 33, "duration": 241, "velocity": 110}, {"time": 77039, "pitch": 35, "duration": 482, "velocity": 110}, {"time": 77521, "pitch": 35, "duration": 242, "velocity": 110}, {"time": 77763, "pitch": 37, "duration": 236, "velocity": 110}, {"time": 77999, "pitch": 35, "duration": 236, "velocity": 110}, {"time": 78235, "pitch": 38, "duration": 241, "velocity": 110}, {"time": 78476, "pitch": 35, "duration": 241, "velocity": 110}, {"time": 78717, "pitch": 37, "duration": 242, "velocity": 110}, {"time": 78959, "pitch": 35, "duration": 241, "velocity": 110}, {"time": 79200, "pitch": 28, "duration": 482, "velocity": 110}, {"time": 79682, "pitch": 40, "duration": 483, "velocity": 110}, {"time": 80165, "pitch": 28, "duration": 236, "velocity": 110}, {"time": 80401, "pitch": 32, "duration": 236, "velocity": 110}, {"time": 80637, "pitch": 33, "duration": 241, "velocity": 110}, {"time": 80878, "pitch": 35, "duration": 483, "velocity": 110}, {"time": 81361, "pitch": 35, "duration": 241, "velocity": 110}, {"time": 81602, "pitch": 37, "duration": 241, "velocity": 110}, {"time": 81843, "pitch": 35, "duration": 242, "velocity": 110}, {"time": 82085, "pitch": 38, "duration": 236, "velocity": 110}, {"time": 82321, "pitch": 35, "duration": 236, "velocity": 110}, {"time": 82557, "pitch": 37, "duration": 241, "velocity": 110}, {"time": 82798, "pitch": 35, "duration": 241, "velocity": 110}, {"time": 83039, "pitch": 28, "duration": 483, "velocity": 110}, {"time": 83522, "pitch": 40, "duration": 482, "velocity": 110}, {"time": 84004, "pitch": 28, "duration": 237, "velocity": 110}, {"time": 84241, "pitch": 32, "duration": 236, "velocity": 110}, {"time": 84477, "pitch": 33, "duration": 241, "velocity": 110}, {"time": 84718, "pitch": 35, "duration": 482, "velocity": 110}, {"time": 85200, "pitch": 35, "duration": 242, "velocity": 110}, {"time": 85442, "pitch": 37, "duration": 241, "velocity": 110}, {"time": 85683, "pitch": 35, "duration": 241, "velocity": 110}, {"time": 85924, "pitch": 38, "duration": 236, "velocity": 110}, {"time": 86160, "pitch": 35, "duration": 237, "velocity": 110}, {"time": 86397, "pitch": 37, "duration": 241, "velocity": 110}, {"time": 86638, "pitch": 35, "duration": 241, "velocity": 110}, {"time": 86879, "pitch": 28, "duration": 482, "velocity": 110}, {"time": 87361, "pitch": 40, "duration": 483, "velocity": 110}, {"time": 87844, "pitch": 28, "duration": 236, "velocity": 110}, {"time": 88080, "pitch": 32, "duration": 236, "velocity": 110}, {"time": 88316, "pitch": 33, "duration": 241, "velocity": 110}, {"time": 88557, "pitch": 35, "duration": 483, "velocity": 110}, {"time": 89040, "pitch": 35, "duration": 241, "velocity": 110}, {"time": 89281, "pitch": 37, "duration": 241, "velocity": 110}, {"time": 89522, "pitch": 35, "duration": 242, "velocity": 110}, {"time": 89764, "pitch": 38, "duration": 236, "velocity": 110}, {"time": 90000, "pitch": 35, "duration": 236, "velocity": 110}, {"time": 90236, "pitch": 37, "duration": 241, "velocity": 110}, {"time": 90477, "pitch": 35, "duration": 241, "velocity": 110}, {"time": 90718, "pitch": 33, "duration": 483, "velocity": 110}, {"time": 91201, "pitch": 33, "duration": 482, "velocity": 110}, {"time": 91683, "pitch": 33, "duration": 237, "velocity": 110}, {"time": 91920, "pitch": 37, "duration": 236, "velocity": 110}, {"time": 92156, "pitch": 40, "duration": 241, "velocity": 110}, {"time": 92397, "pitch": 32, "duration": 482, "velocity": 110}, {"time": 92879, "pitch": 32, "duration": 242, "velocity": 110}, {"time": 93121, "pitch": 35, "duration": 241, "velocity": 110}, {"time": 93362, "pitch": 40, "duration": 477, "velocity": 110}, {"time": 93839, "pitch": 35, "duration": 237, "velocity": 110}, {"time": 94076, "pitch": 32, "duration": 482, "velocity": 110}, {"time": 94558, "pitch": 30, "duration": 241, "velocity": 110}, {"time": 94799, "pitch": 32, "duration": 241, "velocity": 110}, {"time": 95040, "pitch": 33, "duration": 242, "velocity": 110}, {"time": 95282, "pitch": 35, "duration": 477, "velocity": 110}, {"time": 95759, "pitch": 37, "duration": 236, "velocity": 110}, {"time": 95995, "pitch": 39, "duration": 241, "velocity": 110}, {"time": 96236, "pitch": 40, "duration": 483, "velocity": 110}, {"time": 96719, "pitch": 28, "duration": 241, "velocity": 110}, {"time": 96960, "pitch": 40, "duration": 241, "velocity": 110}, {"time": 97201, "pitch": 40, "duration": 478, "velocity": 110}, {"time": 97679, "pitch": 38, "duration": 236, "velocity": 110}, {"time": 97915, "pitch": 35, "duration": 482, "velocity": 110}, {"time": 98397, "pitch": 33, "duration": 483, "velocity": 110}, {"time": 98880, "pitch": 33, "duration": 482, "velocity": 110}, {"time": 99362, "pitch": 33, "duration": 242, "velocity": 110}, {"time": 99604, "pitch": 37, "duration": 241, "velocity": 110}, {"time": 99845, "pitch": 40, "duration": 236, "velocity": 110}, {"time": 100081, "pitch": 32, "duration": 477, "velocity": 110}, {"time": 100558, "pitch": 35, "duration": 242, "velocity": 110}, {"time": 100800, "pitch": 36, "duration": 241, "velocity": 110}, {"time": 101041, "pitch": 37, "duration": 482, "velocity": 110}, {"time": 101523, "pitch": 39, "duration": 242, "velocity": 110}, {"time": 101765, "pitch": 41, "duration": 472, "velocity": 110}, {"time": 102237, "pitch": 42, "duration": 482, "velocity": 110}, {"time": 102719, "pitch": 42, "duration": 483, "velocity": 110}, {"time": 103202, "pitch": 37, "duration": 241, "velocity": 110}, {"time": 103443, "pitch": 42, "duration": 241, "velocity": 110}, {"time": 103684, "pitch": 37, "duration": 237, "velocity": 110}, {"time": 103921, "pitch": 42, "duration": 718, "velocity": 110}, {"time": 104639, "pitch": 42, "duration": 483, "velocity": 110}, {"time": 105122, "pitch": 34, "duration": 241, "velocity": 110}, {"time": 105363, "pitch": 35, "duration": 241, "velocity": 110}, {"time": 105604, "pitch": 37, "duration": 473, "velocity": 110}, {"time": 106077, "pitch": 35, "duration": 482, "velocity": 110}, {"time": 106559, "pitch": 35, "duration": 482, "velocity": 110}, {"time": 107041, "pitch": 39, "duration": 242, "velocity": 110}, {"time": 107283, "pitch": 35, "duration": 477, "velocity": 110}, {"time": 107760, "pitch": 35, "duration": 477, "velocity": 110}, {"time": 108237, "pitch": 35, "duration": 242, "velocity": 110}, {"time": 108479, "pitch": 37, "duration": 241, "velocity": 110}, {"time": 108720, "pitch": 37, "duration": 241, "velocity": 110}, {"time": 108961, "pitch": 38, "duration": 241, "velocity": 110}, {"time": 109202, "pitch": 38, "duration": 242, "velocity": 110}, {"time": 109444, "pitch": 39, "duration": 236, "velocity": 110}, {"time": 109680, "pitch": 39, "duration": 236, "velocity": 110}, {"time": 109916, "pitch": 40, "duration": 241, "velocity": 110}, {"time": 110398, "pitch": 40, "duration": 242, "velocity": 110}, {"time": 110881, "pitch": 40, "duration": 241, "velocity": 110}, {"time": 111122, "pitch": 35, "duration": 241, "velocity": 110}, {"time": 111363, "pitch": 40, "duration": 237, "velocity": 110}, {"time": 111600, "pitch": 35, "duration": 236, "velocity": 110}, {"time": 112077, "pitch": 35, "duration": 241, "velocity": 110}, {"time": 112318, "pitch": 35, "duration": 483, "velocity": 110}, {"time": 112801, "pitch": 35, "duration": 241, "velocity": 110}, {"time": 113042, "pitch": 32, "duration": 241, "velocity": 110}, {"time": 113283, "pitch": 35, "duration": 473, "velocity": 110}, {"time": 113756, "pitch": 37, "duration": 241, "velocity": 110}, {"time": 114238, "pitch": 37, "duration": 241, "velocity": 110}, {"time": 114720, "pitch": 37, "duration": 242, "velocity": 110}, {"time": 114962, "pitch": 35, "duration": 241, "velocity": 110}, {"time": 115203, "pitch": 32, "duration": 236, "velocity": 110}, {"time": 115439, "pitch": 30, "duration": 478, "velocity": 110}, {"time": 115917, "pitch": 32, "duration": 241, "velocity": 110}, {"time": 116158, "pitch": 33, "duration": 241, "velocity": 110}, {"time": 116399, "pitch": 34, "duration": 482, "velocity": 110}, {"time": 116881, "pitch": 35, "duration": 242, "velocity": 110}, {"time": 117123, "pitch": 37, "duration": 472, "velocity": 110}, {"time": 117595, "pitch": 30, "duration": 483, "velocity": 110}, {"time": 118078, "pitch": 30, "duration": 482, "velocity": 110}, {"time": 118560, "pitch": 30, "duration": 241, "velocity": 110}, {"time": 118801, "pitch": 32, "duration": 241, "velocity": 110}, {"time": 119042, "pitch": 33, "duration": 242, "velocity": 110}, {"time": 119284, "pitch": 32, "duration": 713, "velocity": 110}, {"time": 119997, "pitch": 32, "duration": 483, "velocity": 110}, {"time": 120480, "pitch": 40, "duration": 241, "velocity": 110}, {"time": 120721, "pitch": 35, "duration": 241, "velocity": 110}, {"time": 120962, "pitch": 32, "duration": 483, "velocity": 110}, {"time": 121445, "pitch": 35, "duration": 472, "velocity": 110}, {"time": 121917, "pitch": 35, "duration": 483, "velocity": 110}, {"time": 122400, "pitch": 35, "duration": 241, "velocity": 110}, {"time": 122641, "pitch": 30, "duration": 241, "velocity": 110}, {"time": 122882, "pitch": 32, "duration": 241, "velocity": 110}, {"time": 123123, "pitch": 35, "duration": 478, "velocity": 110}, {"time": 123601, "pitch": 35, "duration": 236, "velocity": 110}, {"time": 123837, "pitch": 37, "duration": 241, "velocity": 110}, {"time": 124078, "pitch": 37, "duration": 241, "velocity": 110}, {"time": 124319, "pitch": 38, "duration": 242, "velocity": 110}, {"time": 124561, "pitch": 38, "duration": 241, "velocity": 110}, {"time": 124802, "pitch": 39, "duration": 241, "velocity": 110}, {"time": 125043, "pitch": 39, "duration": 241, "velocity": 110}, {"time": 125284, "pitch": 40, "duration": 236, "velocity": 110}, {"time": 125757, "pitch": 40, "duration": 241, "velocity": 110}, {"time": 126239, "pitch": 40, "duration": 241, "velocity": 110}, {"time": 126480, "pitch": 35, "duration": 242, "velocity": 110}, {"time": 126722, "pitch": 40, "duration": 241, "velocity": 110}, {"time": 126963, "pitch": 35, "duration": 241, "velocity": 110}, {"time": 127440, "pitch": 35, "duration": 236, "velocity": 110}, {"time": 127676, "pitch": 35, "duration": 483, "velocity": 110}, {"time": 128159, "pitch": 35, "duration": 241, "velocity": 110}, {"time": 128400, "pitch": 32, "duration": 241, "velocity": 110}, {"time": 128641, "pitch": 35, "duration": 483, "velocity": 110}, {"time": 129124, "pitch": 37, "duration": 236, "velocity": 110}, {"time": 129596, "pitch": 37, "duration": 241, "velocity": 110}, {"time": 130079, "pitch": 37, "duration": 241, "velocity": 110}, {"time": 130320, "pitch": 35, "duration": 241, "velocity": 110}, {"time": 130561, "pitch": 32, "duration": 241, "velocity": 110}, {"time": 130802, "pitch": 30, "duration": 478, "velocity": 110}, {"time": 131280, "pitch": 32, "duration": 236, "velocity": 110}, {"time": 131516, "pitch": 33, "duration": 241, "velocity": 110}, {"time": 131757, "pitch": 34, "duration": 483, "velocity": 110}, {"time": 132240, "pitch": 35, "duration": 241, "velocity": 110}, {"time": 132481, "pitch": 37, "duration": 482, "velocity": 110}, {"time": 132963, "pitch": 30, "duration": 473, "velocity": 110}, {"time": 133436, "pitch": 30, "duration": 482, "velocity": 110}, {"time": 133918, "pitch": 30, "duration": 241, "velocity": 110}, {"time": 134159, "pitch": 32, "duration": 242, "velocity": 110}, {"time": 134401, "pitch": 33, "duration": 241, "velocity": 110}, {"time": 134642, "pitch": 35, "duration": 713, "velocity": 110}, {"time": 135355, "pitch": 35, "duration": 483, "velocity": 110}, {"time": 135838, "pitch": 42, "duration": 241, "velocity": 110}, {"time": 136079, "pitch": 35, "duration": 241, "velocity": 110}, {"time": 136320, "pitch": 30, "duration": 483, "velocity": 110}, {"time": 136803, "pitch": 28, "duration": 472, "velocity": 110}, {"time": 137275, "pitch": 28, "duration": 483, "velocity": 110}, {"time": 137758, "pitch": 30, "duration": 241, "velocity": 110}, {"time": 137999, "pitch": 28, "duration": 241, "velocity": 110}, {"time": 138240, "pitch": 28, "duration": 241, "velocity": 110}, {"time": 138481, "pitch": 40, "duration": 483, "velocity": 110}, {"time": 138964, "pitch": 40, "duration": 241, "velocity": 110}, {"time": 139205, "pitch": 35, "duration": 236, "velocity": 110}, {"time": 139441, "pitch": 35, "duration": 236, "velocity": 110}, {"time": 139677, "pitch": 33, "duration": 242, "velocity": 110}, {"time": 139919, "pitch": 33, "duration": 241, "velocity": 110}, {"time": 140160, "pitch": 32, "duration": 241, "velocity": 110}, {"time": 140401, "pitch": 32, "duration": 241, "velocity": 110}, {"time": 140642, "pitch": 37, "duration": 483, "velocity": 110}, {"time": 141125, "pitch": 37, "duration": 472, "velocity": 110}, {"time": 141597, "pitch": 37, "duration": 241, "velocity": 110}, {"time": 141838, "pitch": 40, "duration": 242, "velocity": 110}, {"time": 142080, "pitch": 41, "duration": 241, "velocity": 110}, {"time": 142321, "pitch": 42, "duration": 482, "velocity": 110}, {"time": 142803, "pitch": 42, "duration": 241, "velocity": 110}, {"time": 143044, "pitch": 44, "duration": 237, "velocity": 110}, {"time": 143281, "pitch": 46, "duration": 477, "velocity": 110}, {"time": 143758, "pitch": 44, "duration": 241, "velocity": 110}, {"time": 143999, "pitch": 42, "duration": 483, "velocity": 110}, {"time": 144482, "pitch": 37, "duration": 482, "velocity": 110}, {"time": 144964, "pitch": 37, "duration": 473, "velocity": 110}, {"time": 145437, "pitch": 37, "duration": 241, "velocity": 110}, {"time": 145678, "pitch": 40, "duration": 241, "velocity": 110}, {"time": 145919, "pitch": 41, "duration": 241, "velocity": 110}, {"time": 146160, "pitch": 42, "duration": 483, "velocity": 110}, {"time": 146643, "pitch": 42, "duration": 241, "velocity": 110}, {"time": 146884, "pitch": 44, "duration": 236, "velocity": 110}, {"time": 147120, "pitch": 46, "duration": 478, "velocity": 110}, {"time": 147598, "pitch": 44, "duration": 241, "velocity": 110}, {"time": 147839, "pitch": 42, "duration": 482, "velocity": 110}, {"time": 148321, "pitch": 37, "duration": 483, "velocity": 110}, {"time": 148804, "pitch": 37, "duration": 472, "velocity": 110}, {"time": 149276, "pitch": 37, "duration": 241, "velocity": 110}, {"time": 149517, "pitch": 40, "duration": 242, "velocity": 110}, {"time": 149759, "pitch": 41, "duration": 241, "velocity": 110}, {"time": 150000, "pitch": 42, "duration": 482, "velocity": 110}, {"time": 150482, "pitch": 42, "duration": 241, "velocity": 110}, {"time": 150723, "pitch": 44, "duration": 237, "velocity": 110}, {"time": 150960, "pitch": 46, "duration": 477, "velocity": 110}, {"time": 151437, "pitch": 44, "duration": 241, "velocity": 110}, {"time": 151678, "pitch": 42, "duration": 483, "velocity": 110}, {"time": 152161, "pitch": 35, "duration": 482, "velocity": 110}, {"time": 152643, "pitch": 35, "duration": 473, "velocity": 110}, {"time": 153116, "pitch": 35, "duration": 241, "velocity": 110}, {"time": 153357, "pitch": 42, "duration": 241, "velocity": 110}, {"time": 153598, "pitch": 35, "duration": 241, "velocity": 110}, {"time": 153839, "pitch": 47, "duration": 483, "velocity": 110}, {"time": 154322, "pitch": 47, "duration": 241, "velocity": 110}, {"time": 154563, "pitch": 37, "duration": 236, "velocity": 110}, {"time": 154799, "pitch": 37, "duration": 236, "velocity": 110}, {"time": 155035, "pitch": 38, "duration": 242, "velocity": 110}, {"time": 155277, "pitch": 38, "duration": 241, "velocity": 110}, {"time": 155518, "pitch": 39, "duration": 241, "velocity": 110}, {"time": 155759, "pitch": 39, "duration": 241, "velocity": 110}, {"time": 156000, "pitch": 40, "duration": 242, "velocity": 110}, {"time": 156483, "pitch": 40, "duration": 236, "velocity": 110}, {"time": 156955, "pitch": 40, "duration": 241, "velocity": 110}, {"time": 157196, "pitch": 35, "duration": 242, "velocity": 110}, {"time": 157438, "pitch": 40, "duration": 241, "velocity": 110}, {"time": 157679, "pitch": 35, "duration": 241, "velocity": 110}, {"time": 158161, "pitch": 35, "duration": 242, "velocity": 110}, {"time": 158403, "pitch": 35, "duration": 482, "velocity": 110}, {"time": 158885, "pitch": 35, "duration": 236, "velocity": 110}, {"time": 159121, "pitch": 32, "duration": 236, "velocity": 110}, {"time": 159357, "pitch": 35, "duration": 483, "velocity": 110}, {"time": 159840, "pitch": 37, "duration": 241, "velocity": 110}, {"time": 160322, "pitch": 37, "duration": 242, "velocity": 110}, {"time": 160805, "pitch": 37, "duration": 236, "velocity": 110}, {"time": 161041, "pitch": 35, "duration": 236, "velocity": 110}, {"time": 161277, "pitch": 32, "duration": 241, "velocity": 110}, {"time": 161518, "pitch": 30, "duration": 483, "velocity": 110}, {"time": 162001, "pitch": 32, "duration": 241, "velocity": 110}, {"time": 162242, "pitch": 33, "duration": 241, "velocity": 110}, {"time": 162483, "pitch": 34, "duration": 478, "velocity": 110}, {"time": 162961, "pitch": 35, "duration": 236, "velocity": 110}, {"time": 163197, "pitch": 37, "duration": 482, "velocity": 110}, {"time": 163679, "pitch": 30, "duration": 483, "velocity": 110}, {"time": 164162, "pitch": 30, "duration": 482, "velocity": 110}, {"time": 164644, "pitch": 30, "duration": 236, "velocity": 110}, {"time": 164880, "pitch": 32, "duration": 237, "velocity": 110}, {"time": 165117, "pitch": 33, "duration": 241, "velocity": 110}, {"time": 165358, "pitch": 32, "duration": 724, "velocity": 110}, {"time": 166082, "pitch": 32, "duration": 482, "velocity": 110}, {"time": 166564, "pitch": 40, "duration": 236, "velocity": 110}, {"time": 166800, "pitch": 35, "duration": 236, "velocity": 110}, {"time": 167036, "pitch": 32, "duration": 483, "velocity": 110}, {"time": 167519, "pitch": 35, "duration": 482, "velocity": 110}, {"time": 168001, "pitch": 35, "duration": 483, "velocity": 110}, {"time": 168484, "pitch": 35, "duration": 236, "velocity": 110}, {"time": 168720, "pitch": 30, "duration": 236, "velocity": 110}, {"time": 168956, "pitch": 32, "duration": 241, "velocity": 110}, {"time": 169197, "pitch": 35, "duration": 483, "velocity": 110}, {"time": 169680, "pitch": 35, "duration": 241, "velocity": 110}, {"time": 169921, "pitch": 37, "duration": 241, "velocity": 110}, {"time": 170162, "pitch": 37, "duration": 242, "velocity": 110}, {"time": 170404, "pitch": 38, "duration": 236, "velocity": 110}, {"time": 170640, "pitch": 38, "duration": 236, "velocity": 110}, {"time": 170876, "pitch": 39, "duration": 241, "velocity": 110}, {"time": 171117, "pitch": 39, "duration": 241, "velocity": 110}, {"time": 171358, "pitch": 40, "duration": 242, "velocity": 110}, {"time": 171841, "pitch": 40, "duration": 241, "velocity": 110}, {"time": 172323, "pitch": 40, "duration": 236, "velocity": 110}, {"time": 172559, "pitch": 35, "duration": 237, "velocity": 110}, {"time": 172796, "pitch": 40, "duration": 241, "velocity": 110}, {"time": 173037, "pitch": 35, "duration": 241, "velocity": 110}, {"time": 173519, "pitch": 35, "duration": 242, "velocity": 110}, {"time": 173761, "pitch": 35, "duration": 482, "velocity": 110}, {"time": 174243, "pitch": 35, "duration": 236, "velocity": 110}, {"time": 174479, "pitch": 32, "duration": 236, "velocity": 110}, {"time": 174715, "pitch": 35, "duration": 483, "velocity": 110}, {"time": 175198, "pitch": 37, "duration": 241, "velocity": 110}, {"time": 175680, "pitch": 37, "duration": 242, "velocity": 110}, {"time": 176163, "pitch": 37, "duration": 236, "velocity": 110}, {"time": 176399, "pitch": 35, "duration": 236, "velocity": 110}, {"time": 176635, "pitch": 32, "duration": 241, "velocity": 110}, {"time": 176876, "pitch": 30, "duration": 483, "velocity": 110}, {"time": 177359, "pitch": 32, "duration": 241, "velocity": 110}, {"time": 177600, "pitch": 33, "duration": 241, "velocity": 110}, {"time": 177841, "pitch": 34, "duration": 478, "velocity": 110}, {"time": 178319, "pitch": 35, "duration": 236, "velocity": 110}, {"time": 178555, "pitch": 37, "duration": 482, "velocity": 110}, {"time": 179037, "pitch": 30, "duration": 483, "velocity": 110}, {"time": 179520, "pitch": 30, "duration": 482, "velocity": 110}, {"time": 180002, "pitch": 30, "duration": 242, "velocity": 110}, {"time": 180244, "pitch": 32, "duration": 241, "velocity": 110}, {"time": 180485, "pitch": 33, "duration": 236, "velocity": 110}, {"time": 180721, "pitch": 35, "duration": 719, "velocity": 110}, {"time": 181440, "pitch": 35, "duration": 482, "velocity": 110}, {"time": 181922, "pitch": 42, "duration": 241, "velocity": 110}, {"time": 182163, "pitch": 35, "duration": 242, "velocity": 110}, {"time": 182405, "pitch": 30, "duration": 472, "velocity": 110}, {"time": 182877, "pitch": 28, "duration": 482, "velocity": 110}, {"time": 183359, "pitch": 28, "duration": 483, "velocity": 110}, {"time": 183842, "pitch": 30, "duration": 241, "velocity": 110}, {"time": 184083, "pitch": 28, "duration": 241, "velocity": 110}, {"time": 184324, "pitch": 28, "duration": 236, "velocity": 110}, {"time": 184560, "pitch": 40, "duration": 5996, "velocity": 110}], "annotations": [{"time": 300, "annotation": {"number": 7, "value": 120}, "group": "control_change"}, {"time": 320, "annotation": {"number": 11, "value": 110}, "group": "control_change"}, {"time": 340, "annotation": {"number": 10, "value": 64}, "group": "control_change"}, {"time": 360, "annotation": {"number": 91, "value": 0}, "group": "control_change"}, {"time": 380, "annotation": {"number": 93, "value": 0}, "group": "control_change"}, {"time": 400, "annotation": {"number": 101, "value": 0}, "group": "control_change"}, {"time": 420, "annotation": {"number": 100, "value": 0}, "group": "control_change"}, {"time": 440, "annotation": {"number": 6, "value": 12}, "group": "control_change"}, {"time": 460, "annotation": {"number": 101, "value": 127}, "group": "control_change"}, {"time": 480, "annotation": {"number": 100, "value": 127}, "group": "control_change"}, {"time": 186716, "annotation": {"number": 11, "value": 127}, "group": "control_change"}, {"time": 186777, "annotation": {"number": 11, "value": 126}, "group": "control_change"}, {"time": 186837, "annotation": {"number": 11, "value": 124}, "group": "control_change"}, {"time": 186897, "annotation": {"number": 11, "value": 122}, "group": "control_change"}, {"time": 186958, "annotation": {"number": 11, "value": 120}, "group": "control_change"}, {"time": 187018, "annotation": {"number": 11, "value": 118}, "group": "control_change"}, {"time": 187078, "annotation": {"number": 11, "value": 116}, "group": "control_change"}, {"time": 187139, "annotation": {"number": 11, "value": 114}, "group": "control_change"}, {"time": 187199, "annotation": {"number": 11, "value": 112}, "group": "control_change"}, {"time": 187259, "annotation": {"number": 11, "value": 110}, "group": "control_change"}, {"time": 187320, "annotation": {"number": 11, "value": 108}, "group": "control_change"}, {"time": 187380, "annotation": {"number": 11, "value": 106}, "group": "control_change"}, {"time": 187440, "annotation": {"number": 11, "value": 104}, "group": "control_change"}, {"time": 187500, "annotation": {"number": 11, "value": 102}, "group": "control_change"}, {"time": 187561, "annotation": {"number": 11, "value": 100}, "group": "control_change"}, {"time": 187621, "annotation": {"number": 11, "value": 98}, "group": "control_change"}, {"time": 187681, "annotation": {"number": 11, "value": 96}, "group": "control_change"}, {"time": 187742, "annotation": {"number": 11, "value": 94}, "group": "control_change"}, {"time": 187802, "annotation": {"number": 11, "value": 92}, "group": "control_change"}, {"time": 187862, "annotation": {"number": 11, "value": 90}, "group": "control_change"}, {"time": 187923, "annotation": {"number": 11, "value": 88}, "group": "control_change"}, {"time": 187983, "annotation": {"number": 11, "value": 86}, "group": "control_change"}, {"time": 188043, "annotation": {"number": 11, "value": 84}, "group": "control_change"}, {"time": 188104, "annotation": {"number": 11, "value": 82}, "group": "control_change"}, {"time": 188164, "annotation": {"number": 11, "value": 80}, "group": "control_change"}, {"time": 188223, "annotation": {"number": 11, "value": 78}, "group": "control_change"}, {"time": 188282, "annotation": {"number": 11, "value": 76}, "group": "control_change"}, {"time": 188341, "annotation": {"number": 11, "value": 74}, "group": "control_change"}, {"time": 188400, "annotation": {"number": 11, "value": 72}, "group": "control_change"}, {"time": 188459, "annotation": {"number": 11, "value": 70}, "group": "control_change"}, {"time": 188518, "annotation": {"number": 11, "value": 68}, "group": "control_change"}, {"time": 188577, "annotation": {"number": 11, "value": 66}, "group": "control_change"}, {"time": 188636, "annotation": {"number": 11, "value": 64}, "group": "control_change"}, {"time": 188696, "annotation": {"number": 11, "value": 62}, "group": "control_change"}, {"time": 188757, "annotation": {"number": 11, "value": 60}, "group": "control_change"}, {"time": 188817, "annotation": {"number": 11, "value": 58}, "group": "control_change"}, {"time": 188877, "annotation": {"number": 11, "value": 56}, "group": "control_change"}, {"time": 188938, "annotation": {"number": 11, "value": 54}, "group": "control_change"}, {"time": 188998, "annotation": {"number": 11, "value": 52}, "group": "control_change"}, {"time": 189058, "annotation": {"number": 11, "value": 50}, "group": "control_change"}, {"time": 189119, "annotation": {"number": 11, "value": 48}, "group": "control_change"}, {"time": 189179, "annotation": {"number": 11, "value": 46}, "group": "control_change"}, {"time": 189239, "annotation": {"number": 11, "value": 44}, "group": "control_change"}, {"time": 189300, "annotation": {"number": 11, "value": 42}, "group": "control_change"}, {"time": 189360, "annotation": {"number": 11, "value": 40}, "group": "control_change"}, {"time": 189420, "annotation": {"number": 11, "value": 38}, "group": "control_change"}, {"time": 189481, "annotation": {"number": 11, "value": 36}, "group": "control_change"}, {"time": 189541, "annotation": {"number": 11, "value": 34}, "group": "control_change"}, {"time": 189601, "annotation": {"number": 11, "value": 32}, "group": "control_change"}, {"time": 189661, "annotation": {"number": 11, "value": 30}, "group": "control_change"}, {"time": 189722, "annotation": {"number": 11, "value": 28}, "group": "control_change"}, {"time": 189782, "annotation": {"number": 11, "value": 26}, "group": "control_change"}, {"time": 189842, "annotation": {"number": 11, "value": 24}, "group": "control_change"}, {"time": 189903, "annotation": {"number": 11, "value": 22}, "group": "control_change"}, {"time": 189963, "annotation": {"number": 11, "value": 20}, "group": "control_change"}, {"time": 190023, "annotation": {"number": 11, "value": 18}, "group": "control_change"}, {"time": 190084, "annotation": {"number": 11, "value": 16}, "group": "control_change"}, {"time": 190143, "annotation": {"number": 11, "value": 14}, "group": "control_change"}, {"time": 190202, "annotation": {"number": 11, "value": 12}, "group": "control_change"}, {"time": 190261, "annotation": {"number": 11, "value": 10}, "group": "control_change"}, {"time": 190320, "annotation": {"number": 11, "value": 8}, "group": "control_change"}, {"time": 190379, "annotation": {"number": 11, "value": 6}, "group": "control_change"}, {"time": 190438, "annotation": {"number": 11, "value": 4}, "group": "control_change"}, {"time": 190497, "annotation": {"number": 11, "value": 2}, "group": "control_change"}]}, {"program": 0, "is_drum": false, "name": "ORGAN", "annotations": [{"time": 200, "annotation": {"number": 0, "value": 0}, "group": "control_change"}, {"time": 220, "annotation": {"number": 32, "value": 2}, "group": "control_change"}]}, {"program": 18, "is_drum": false, "name": "ORGAN", "notes": [{"time": 2400, "pitch": 71, "duration": 1201, "velocity": 80}, {"time": 2400, "pitch": 75, "duration": 1201, "velocity": 80}, {"time": 2400, "pitch": 78, "duration": 1201, "velocity": 80}, {"time": 3601, "pitch": 69, "duration": 236, "velocity": 80}, {"time": 3601, "pitch": 73, "duration": 236, "velocity": 80}, {"time": 3601, "pitch": 76, "duration": 236, "velocity": 80}, {"time": 3837, "pitch": 69, "duration": 241, "velocity": 80}, {"time": 3837, "pitch": 73, "duration": 241, "velocity": 80}, {"time": 3837, "pitch": 76, "duration": 241, "velocity": 80}, {"time": 4078, "pitch": 71, "duration": 241, "velocity": 80}, {"time": 4078, "pitch": 75, "duration": 241, "velocity": 80}, {"time": 4078, "pitch": 78, "duration": 241, "velocity": 80}, {"time": 4319, "pitch": 71, "duration": 1201, "velocity": 80}, {"time": 4319, "pitch": 75, "duration": 1201, "velocity": 80}, {"time": 4319, "pitch": 78, "duration": 1201, "velocity": 80}, {"time": 5520, "pitch": 69, "duration": 237, "velocity": 80}, {"time": 5520, "pitch": 73, "duration": 237, "velocity": 80}, {"time": 5520, "pitch": 76, "duration": 237, "velocity": 80}, {"time": 5757, "pitch": 69, "duration": 241, "velocity": 80}, {"time": 5757, "pitch": 73, "duration": 241, "velocity": 80}, {"time": 5757, "pitch": 76, "duration": 241, "velocity": 80}, {"time": 5998, "pitch": 71, "duration": 4081, "velocity": 80}, {"time": 5998, "pitch": 75, "duration": 4081, "velocity": 80}, {"time": 5998, "pitch": 78, "duration": 4081, "velocity": 80}, {"time": 10079, "pitch": 71, "duration": 1678, "velocity": 80}, {"time": 10079, "pitch": 76, "duration": 1678, "velocity": 80}, {"time": 10079, "pitch": 80, "duration": 1678, "velocity": 80}, {"time": 11757, "pitch": 71, "duration": 2161, "velocity": 80}, {"time": 11757, "pitch": 74, "duration": 2161, "velocity": 80}, {"time": 11757, "pitch": 78, "duration": 2161, "velocity": 80}, {"time": 13918, "pitch": 71, "duration": 1679, "velocity": 80}, {"time": 13918, "pitch": 76, "duration": 1679, "velocity": 80}, {"time": 13918, "pitch": 80, "duration": 1679, "velocity": 80}, {"time": 15597, "pitch": 71, "duration": 2161, "velocity": 80}, {"time": 15597, "pitch": 74, "duration": 2161, "velocity": 80}, {"time": 15597, "pitch": 78, "duration": 2161, "velocity": 80}, {"time": 17758, "pitch": 71, "duration": 1683, "velocity": 80}, {"time": 17758, "pitch": 76, "duration": 1683, "velocity": 80}, {"time": 17758, "pitch": 80, "duration": 1683, "velocity": 80}, {"time": 19441, "pitch": 71, "duration": 2156, "velocity": 80}, {"time": 19441, "pitch": 74, "duration": 2156, "velocity": 80}, {"time": 19441, "pitch": 78, "duration": 2156, "velocity": 80}, {"time": 21597, "pitch": 71, "duration": 1684, "velocity": 80}, {"time": 21597, "pitch": 76, "duration": 1684, "velocity": 80}, {"time": 21597, "pitch": 80, "duration": 1684, "velocity": 80}, {"time": 23281, "pitch": 71, "duration": 2156, "velocity": 80}, {"time": 23281, "pitch": 74, "duration": 2156, "velocity": 80}, {"time": 23281, "pitch": 78, "duration": 2156, "velocity": 80}, {"time": 25437, "pitch": 69, "duration": 1683, "velocity": 80}, {"time": 25437, "pitch": 73, "duration": 1683, "velocity": 80}, {"time": 25437, "pitch": 76, "duration": 1683, "velocity": 80}, {"time": 27120, "pitch": 71, "duration": 236, "velocity": 80}, {"time": 27120, "pitch": 76, "duration": 236, "velocity": 80}, {"time": 27120, "pitch": 80, "duration": 236, "velocity": 80}, {"time": 27598, "pitch": 69, "duration": 241, "velocity": 80}, {"time": 27598, "pitch": 75, "duration": 241, "velocity": 80}, {"time": 27598, "pitch": 78, "duration": 241, "velocity": 80}, {"time": 28080, "pitch": 68, "duration": 1196, "velocity": 80}, {"time": 28080, "pitch": 71, "duration": 1196, "velocity": 80}, {"time": 28080, "pitch": 76, "duration": 1196, "velocity": 80}, {"time": 29276, "pitch": 69, "duration": 724, "velocity": 80}, {"time": 29276, "pitch": 73, "duration": 724, "velocity": 80}, {"time": 29276, "pitch": 76, "duration": 724, "velocity": 80}, {"time": 30000, "pitch": 66, "duration": 960, "velocity": 80}, {"time": 30000, "pitch": 71, "duration": 960, "velocity": 80}, {"time": 30000, "pitch": 75, "duration": 960, "velocity": 80}, {"time": 30960, "pitch": 68, "duration": 960, "velocity": 80}, {"time": 30960, "pitch": 71, "duration": 960, "velocity": 80}, {"time": 30960, "pitch": 76, "duration": 960, "velocity": 80}, {"time": 31920, "pitch": 68, "duration": 1196, "velocity": 80}, {"time": 31920, "pitch": 71, "duration": 1196, "velocity": 80}, {"time": 31920, "pitch": 74, "duration": 1196, "velocity": 80}, {"time": 33116, "pitch": 69, "duration": 1683, "velocity": 80}, {"time": 33116, "pitch": 73, "duration": 1683, "velocity": 80}, {"time": 33116, "pitch": 76, "duration": 1683, "velocity": 80}, {"time": 34799, "pitch": 71, "duration": 236, "velocity": 80}, {"time": 34799, "pitch": 76, "duration": 236, "velocity": 80}, {"time": 34799, "pitch": 80, "duration": 236, "velocity": 80}, {"time": 35277, "pitch": 69, "duration": 241, "velocity": 80}, {"time": 35277, "pitch": 75, "duration": 241, "velocity": 80}, {"time": 35277, "pitch": 78, "duration": 241, "velocity": 80}, {"time": 35759, "pitch": 68, "duration": 1196, "velocity": 80}, {"time": 35759, "pitch": 73, "duration": 1196, "velocity": 80}, {"time": 35759, "pitch": 77, "duration": 1196, "velocity": 80}, {"time": 36955, "pitch": 69, "duration": 1689, "velocity": 80}, {"time": 36955, "pitch": 73, "duration": 1689, "velocity": 80}, {"time": 36955, "pitch": 78, "duration": 1689, "velocity": 80}, {"time": 38644, "pitch": 70, "duration": 2161, "velocity": 80}, {"time": 38644, "pitch": 73, "duration": 2161, "velocity": 80}, {"time": 38644, "pitch": 78, "duration": 2161, "velocity": 80}, {"time": 38644, "pitch": 82, "duration": 2161, "velocity": 80}, {"time": 40805, "pitch": 71, "duration": 1678, "velocity": 80}, {"time": 40805, "pitch": 76, "duration": 1678, "velocity": 80}, {"time": 40805, "pitch": 78, "duration": 1678, "velocity": 80}, {"time": 40805, "pitch": 83, "duration": 1678, "velocity": 80}, {"time": 42483, "pitch": 71, "duration": 478, "velocity": 80}, {"time": 42483, "pitch": 75, "duration": 478, "velocity": 80}, {"time": 42483, "pitch": 78, "duration": 478, "velocity": 80}, {"time": 42483, "pitch": 83, "duration": 478, "velocity": 80}, {"time": 42961, "pitch": 71, "duration": 236, "velocity": 80}, {"time": 42961, "pitch": 75, "duration": 236, "velocity": 80}, {"time": 42961, "pitch": 78, "duration": 236, "velocity": 80}, {"time": 42961, "pitch": 83, "duration": 236, "velocity": 80}, {"time": 43197, "pitch": 71, "duration": 241, "velocity": 80}, {"time": 43197, "pitch": 75, "duration": 241, "velocity": 80}, {"time": 43197, "pitch": 78, "duration": 241, "velocity": 80}, {"time": 43197, "pitch": 83, "duration": 241, "velocity": 80}, {"time": 43438, "pitch": 71, "duration": 241, "velocity": 80}, {"time": 43438, "pitch": 75, "duration": 241, "velocity": 80}, {"time": 43438, "pitch": 78, "duration": 241, "velocity": 80}, {"time": 43438, "pitch": 83, "duration": 241, "velocity": 80}, {"time": 43679, "pitch": 71, "duration": 242, "velocity": 80}, {"time": 43679, "pitch": 75, "duration": 242, "velocity": 80}, {"time": 43679, "pitch": 78, "duration": 242, "velocity": 80}, {"time": 43679, "pitch": 83, "duration": 242, "velocity": 80}, {"time": 43921, "pitch": 71, "duration": 241, "velocity": 80}, {"time": 43921, "pitch": 75, "duration": 241, "velocity": 80}, {"time": 43921, "pitch": 78, "duration": 241, "velocity": 80}, {"time": 43921, "pitch": 83, "duration": 241, "velocity": 80}, {"time": 44141, "pitch": 50, "duration": 56, "velocity": 50}, {"time": 44141, "pitch": 52, "duration": 100, "velocity": 76}, {"time": 44188, "pitch": 53, "duration": 80, "velocity": 37}, {"time": 44228, "pitch": 55, "duration": 61, "velocity": 79}, {"time": 44261, "pitch": 57, "duration": 54, "velocity": 92}, {"time": 44283, "pitch": 59, "duration": 52, "velocity": 92}, {"time": 44308, "pitch": 60, "duration": 47, "velocity": 102}, {"time": 44329, "pitch": 62, "duration": 40, "velocity": 107}, {"time": 44343, "pitch": 64, "duration": 46, "velocity": 97}, {"time": 44362, "pitch": 65, "duration": 39, "velocity": 107}, {"time": 44382, "pitch": 67, "duration": 47, "velocity": 107}, {"time": 44395, "pitch": 69, "duration": 34, "velocity": 107}, {"time": 44410, "pitch": 71, "duration": 39, "velocity": 102}, {"time": 44429, "pitch": 72, "duration": 33, "velocity": 97}, {"time": 44442, "pitch": 74, "duration": 33, "velocity": 102}, {"time": 44462, "pitch": 76, "duration": 34, "velocity": 102}, {"time": 44475, "pitch": 77, "duration": 35, "velocity": 102}, {"time": 44496, "pitch": 79, "duration": 34, "velocity": 102}, {"time": 44516, "pitch": 81, "duration": 33, "velocity": 97}, {"time": 44530, "pitch": 83, "duration": 40, "velocity": 92}, {"time": 44549, "pitch": 84, "duration": 35, "velocity": 87}, {"time": 44570, "pitch": 86, "duration": 40, "velocity": 92}, {"time": 44590, "pitch": 88, "duration": 40, "velocity": 79}, {"time": 44616, "pitch": 89, "duration": 29, "velocity": 79}, {"time": 44644, "pitch": 71, "duration": 1679, "velocity": 80}, {"time": 44644, "pitch": 76, "duration": 1679, "velocity": 80}, {"time": 44644, "pitch": 80, "duration": 1679, "velocity": 80}, {"time": 46323, "pitch": 71, "duration": 2161, "velocity": 80}, {"time": 46323, "pitch": 75, "duration": 2161, "velocity": 80}, {"time": 46323, "pitch": 78, "duration": 2161, "velocity": 80}, {"time": 48484, "pitch": 71, "duration": 1678, "velocity": 80}, {"time": 48484, "pitch": 76, "duration": 1678, "velocity": 80}, {"time": 48484, "pitch": 80, "duration": 1678, "velocity": 80}, {"time": 50162, "pitch": 70, "duration": 2161, "velocity": 80}, {"time": 50162, "pitch": 73, "duration": 2161, "velocity": 80}, {"time": 50162, "pitch": 76, "duration": 2161, "velocity": 80}, {"time": 52323, "pitch": 66, "duration": 1920, "velocity": 80}, {"time": 52323, "pitch": 69, "duration": 1920, "velocity": 80}, {"time": 52323, "pitch": 73, "duration": 1920, "velocity": 80}, {"time": 54243, "pitch": 68, "duration": 1920, "velocity": 80}, {"time": 54243, "pitch": 71, "duration": 1920, "velocity": 80}, {"time": 54243, "pitch": 76, "duration": 1920, "velocity": 80}, {"time": 56163, "pitch": 66, "duration": 1678, "velocity": 80}, {"time": 56163, "pitch": 71, "duration": 1678, "velocity": 80}, {"time": 56163, "pitch": 76, "duration": 1678, "velocity": 80}, {"time": 57841, "pitch": 66, "duration": 2161, "velocity": 80}, {"time": 57841, "pitch": 71, "duration": 2161, "velocity": 80}, {"time": 57841, "pitch": 75, "duration": 2161, "velocity": 80}, {"time": 60002, "pitch": 71, "duration": 1679, "velocity": 80}, {"time": 60002, "pitch": 76, "duration": 1679, "velocity": 80}, {"time": 60002, "pitch": 80, "duration": 1679, "velocity": 80}, {"time": 61681, "pitch": 71, "duration": 2161, "velocity": 80}, {"time": 61681, "pitch": 75, "duration": 2161, "velocity": 80}, {"time": 61681, "pitch": 78, "duration": 2161, "velocity": 80}, {"time": 63842, "pitch": 71, "duration": 1678, "velocity": 80}, {"time": 63842, "pitch": 76, "duration": 1678, "velocity": 80}, {"time": 63842, "pitch": 80, "duration": 1678, "velocity": 80}, {"time": 65520, "pitch": 70, "duration": 2161, "velocity": 80}, {"time": 65520, "pitch": 73, "duration": 2161, "velocity": 80}, {"time": 65520, "pitch": 76, "duration": 2161, "velocity": 80}, {"time": 67681, "pitch": 66, "duration": 1920, "velocity": 80}, {"time": 67681, "pitch": 69, "duration": 1920, "velocity": 80}, {"time": 67681, "pitch": 73, "duration": 1920, "velocity": 80}, {"time": 69601, "pitch": 66, "duration": 1920, "velocity": 80}, {"time": 69601, "pitch": 71, "duration": 1920, "velocity": 80}, {"time": 69601, "pitch": 76, "duration": 1920, "velocity": 80}, {"time": 71521, "pitch": 69, "duration": 1678, "velocity": 80}, {"time": 71521, "pitch": 71, "duration": 1678, "velocity": 80}, {"time": 71521, "pitch": 76, "duration": 1678, "velocity": 80}, {"time": 73199, "pitch": 68, "duration": 2161, "velocity": 80}, {"time": 73199, "pitch": 71, "duration": 2161, "velocity": 80}, {"time": 73199, "pitch": 76, "duration": 2161, "velocity": 80}, {"time": 75360, "pitch": 71, "duration": 1679, "velocity": 80}, {"time": 75360, "pitch": 76, "duration": 1679, "velocity": 80}, {"time": 75360, "pitch": 80, "duration": 1679, "velocity": 80}, {"time": 77039, "pitch": 71, "duration": 2161, "velocity": 80}, {"time": 77039, "pitch": 74, "duration": 2161, "velocity": 80}, {"time": 77039, "pitch": 78, "duration": 2161, "velocity": 80}, {"time": 79200, "pitch": 71, "duration": 1678, "velocity": 80}, {"time": 79200, "pitch": 76, "duration": 1678, "velocity": 80}, {"time": 79200, "pitch": 80, "duration": 1678, "velocity": 80}, {"time": 80878, "pitch": 71, "duration": 2161, "velocity": 80}, {"time": 80878, "pitch": 74, "duration": 2161, "velocity": 80}, {"time": 80878, "pitch": 78, "duration": 2161, "velocity": 80}, {"time": 83039, "pitch": 71, "duration": 1679, "velocity": 80}, {"time": 83039, "pitch": 76, "duration": 1679, "velocity": 80}, {"time": 83039, "pitch": 80, "duration": 1679, "velocity": 80}, {"time": 84718, "pitch": 71, "duration": 2161, "velocity": 80}, {"time": 84718, "pitch": 74, "duration": 2161, "velocity": 80}, {"time": 84718, "pitch": 78, "duration": 2161, "velocity": 80}, {"time": 86879, "pitch": 71, "duration": 1678, "velocity": 80}, {"time": 86879, "pitch": 76, "duration": 1678, "velocity": 80}, {"time": 86879, "pitch": 80, "duration": 1678, "velocity": 80}, {"time": 88557, "pitch": 71, "duration": 2161, "velocity": 80}, {"time": 88557, "pitch": 74, "duration": 2161, "velocity": 80}, {"time": 88557, "pitch": 78, "duration": 2161, "velocity": 80}, {"time": 90718, "pitch": 69, "duration": 1679, "velocity": 80}, {"time": 90718, "pitch": 73, "duration": 1679, "velocity": 80}, {"time": 90718, "pitch": 76, "duration": 1679, "velocity": 80}, {"time": 92397, "pitch": 71, "duration": 241, "velocity": 80}, {"time": 92397, "pitch": 76, "duration": 241, "velocity": 80}, {"time": 92397, "pitch": 80, "duration": 241, "velocity": 80}, {"time": 92879, "pitch": 69, "duration": 242, "velocity": 80}, {"time": 92879, "pitch": 75, "duration": 242, "velocity": 80}, {"time": 92879, "pitch": 78, "duration": 242, "velocity": 80}, {"time": 93362, "pitch": 68, "duration": 1196, "velocity": 80}, {"time": 93362, "pitch": 71, "duration": 1196, "velocity": 80}, {"time": 93362, "pitch": 76, "duration": 1196, "velocity": 80}, {"time": 94558, "pitch": 69, "duration": 724, "velocity": 80}, {"time": 94558, "pitch": 73, "duration": 724, "velocity": 80}, {"time": 94558, "pitch": 76, "duration": 724, "velocity": 80}, {"time": 95282, "pitch": 66, "duration": 954, "velocity": 80}, {"time": 95282, "pitch": 71, "duration": 954, "velocity": 80}, {"time": 95282, "pitch": 75, "duration": 954, "velocity": 80}, {"time": 96236, "pitch": 68, "duration": 965, "velocity": 80}, {"time": 96236, "pitch": 71, "duration": 965, "velocity": 80}, {"time": 96236, "pitch": 76, "duration": 965, "velocity": 80}, {"time": 97201, "pitch": 68, "duration": 1196, "velocity": 80}, {"time": 97201, "pitch": 71, "duration": 1196, "velocity": 80}, {"time": 97201, "pitch": 74, "duration": 1196, "velocity": 80}, {"time": 98397, "pitch": 69, "duration": 1684, "velocity": 80}, {"time": 98397, "pitch": 73, "duration": 1684, "velocity": 80}, {"time": 98397, "pitch": 76, "duration": 1684, "velocity": 80}, {"time": 100081, "pitch": 71, "duration": 236, "velocity": 80}, {"time": 100081, "pitch": 76, "duration": 236, "velocity": 80}, {"time": 100081, "pitch": 80, "duration": 236, "velocity": 80}, {"time": 100558, "pitch": 69, "duration": 242, "velocity": 80}, {"time": 100558, "pitch": 75, "duration": 242, "velocity": 80}, {"time": 100558, "pitch": 78, "duration": 242, "velocity": 80}, {"time": 101041, "pitch": 68, "duration": 1196, "velocity": 80}, {"time": 101041, "pitch": 73, "duration": 1196, "velocity": 80}, {"time": 101041, "pitch": 77, "duration": 1196, "velocity": 80}, {"time": 102237, "pitch": 69, "duration": 1684, "velocity": 80}, {"time": 102237, "pitch": 73, "duration": 1684, "velocity": 80}, {"time": 102237, "pitch": 78, "duration": 1684, "velocity": 80}, {"time": 103921, "pitch": 70, "duration": 2156, "velocity": 80}, {"time": 103921, "pitch": 73, "duration": 2156, "velocity": 80}, {"time": 103921, "pitch": 78, "duration": 2156, "velocity": 80}, {"time": 103921, "pitch": 82, "duration": 2156, "velocity": 80}, {"time": 106077, "pitch": 71, "duration": 1683, "velocity": 80}, {"time": 106077, "pitch": 76, "duration": 1683, "velocity": 80}, {"time": 106077, "pitch": 78, "duration": 1683, "velocity": 80}, {"time": 106077, "pitch": 83, "duration": 1683, "velocity": 80}, {"time": 107760, "pitch": 71, "duration": 477, "velocity": 80}, {"time": 107760, "pitch": 75, "duration": 477, "velocity": 80}, {"time": 107760, "pitch": 78, "duration": 477, "velocity": 80}, {"time": 107760, "pitch": 83, "duration": 477, "velocity": 80}, {"time": 108237, "pitch": 71, "duration": 242, "velocity": 80}, {"time": 108237, "pitch": 75, "duration": 242, "velocity": 80}, {"time": 108237, "pitch": 78, "duration": 242, "velocity": 80}, {"time": 108237, "pitch": 83, "duration": 242, "velocity": 80}, {"time": 108479, "pitch": 71, "duration": 241, "velocity": 80}, {"time": 108479, "pitch": 75, "duration": 241, "velocity": 80}, {"time": 108479, "pitch": 78, "duration": 241, "velocity": 80}, {"time": 108479, "pitch": 83, "duration": 241, "velocity": 80}, {"time": 108720, "pitch": 71, "duration": 241, "velocity": 80}, {"time": 108720, "pitch": 75, "duration": 241, "velocity": 80}, {"time": 108720, "pitch": 78, "duration": 241, "velocity": 80}, {"time": 108720, "pitch": 83, "duration": 241, "velocity": 80}, {"time": 108961, "pitch": 71, "duration": 241, "velocity": 80}, {"time": 108961, "pitch": 75, "duration": 241, "velocity": 80}, {"time": 108961, "pitch": 78, "duration": 241, "velocity": 80}, {"time": 108961, "pitch": 83, "duration": 241, "velocity": 80}, {"time": 109202, "pitch": 71, "duration": 242, "velocity": 80}, {"time": 109202, "pitch": 75, "duration": 242, "velocity": 80}, {"time": 109202, "pitch": 78, "duration": 242, "velocity": 80}, {"time": 109202, "pitch": 83, "duration": 242, "velocity": 80}, {"time": 109423, "pitch": 50, "duration": 55, "velocity": 51}, {"time": 109423, "pitch": 52, "duration": 98, "velocity": 77}, {"time": 109469, "pitch": 53, "duration": 79, "velocity": 38}, {"time": 109509, "pitch": 55, "duration": 60, "velocity": 80}, {"time": 109541, "pitch": 57, "duration": 52, "velocity": 93}, {"time": 109563, "pitch": 59, "duration": 50, "velocity": 93}, {"time": 109586, "pitch": 60, "duration": 47, "velocity": 103}, {"time": 109607, "pitch": 62, "duration": 39, "velocity": 108}, {"time": 109621, "pitch": 64, "duration": 45, "velocity": 98}, {"time": 109640, "pitch": 65, "duration": 38, "velocity": 108}, {"time": 109659, "pitch": 67, "duration": 46, "velocity": 108}, {"time": 109672, "pitch": 69, "duration": 33, "velocity": 108}, {"time": 109687, "pitch": 71, "duration": 38, "velocity": 103}, {"time": 109705, "pitch": 72, "duration": 33, "velocity": 98}, {"time": 109718, "pitch": 74, "duration": 33, "velocity": 103}, {"time": 109738, "pitch": 76, "duration": 32, "velocity": 103}, {"time": 109751, "pitch": 77, "duration": 33, "velocity": 103}, {"time": 109770, "pitch": 79, "duration": 34, "velocity": 103}, {"time": 109790, "pitch": 81, "duration": 33, "velocity": 98}, {"time": 109804, "pitch": 83, "duration": 39, "velocity": 93}, {"time": 109823, "pitch": 84, "duration": 34, "velocity": 88}, {"time": 109843, "pitch": 86, "duration": 40, "velocity": 93}, {"time": 109863, "pitch": 88, "duration": 39, "velocity": 80}, {"time": 109889, "pitch": 89, "duration": 28, "velocity": 80}, {"time": 109916, "pitch": 71, "duration": 1684, "velocity": 80}, {"time": 109916, "pitch": 76, "duration": 1684, "velocity": 80}, {"time": 109916, "pitch": 80, "duration": 1684, "velocity": 80}, {"time": 111600, "pitch": 71, "duration": 2156, "velocity": 80}, {"time": 111600, "pitch": 75, "duration": 2156, "velocity": 80}, {"time": 111600, "pitch": 78, "duration": 2156, "velocity": 80}, {"time": 113756, "pitch": 71, "duration": 1683, "velocity": 80}, {"time": 113756, "pitch": 76, "duration": 1683, "velocity": 80}, {"time": 113756, "pitch": 80, "duration": 1683, "velocity": 80}, {"time": 115439, "pitch": 70, "duration": 2156, "velocity": 80}, {"time": 115439, "pitch": 73, "duration": 2156, "velocity": 80}, {"time": 115439, "pitch": 76, "duration": 2156, "velocity": 80}, {"time": 117595, "pitch": 66, "duration": 1930, "velocity": 80}, {"time": 117595, "pitch": 69, "duration": 1930, "velocity": 80}, {"time": 117595, "pitch": 73, "duration": 1930, "velocity": 80}, {"time": 119525, "pitch": 68, "duration": 1920, "velocity": 80}, {"time": 119525, "pitch": 71, "duration": 1920, "velocity": 80}, {"time": 119525, "pitch": 76, "duration": 1920, "velocity": 80}, {"time": 121445, "pitch": 66, "duration": 1678, "velocity": 80}, {"time": 121445, "pitch": 71, "duration": 1678, "velocity": 80}, {"time": 121445, "pitch": 76, "duration": 1678, "velocity": 80}, {"time": 123123, "pitch": 66, "duration": 2161, "velocity": 80}, {"time": 123123, "pitch": 71, "duration": 2161, "velocity": 80}, {"time": 123123, "pitch": 75, "duration": 2161, "velocity": 80}, {"time": 125284, "pitch": 71, "duration": 1679, "velocity": 80}, {"time": 125284, "pitch": 76, "duration": 1679, "velocity": 80}, {"time": 125284, "pitch": 80, "duration": 1679, "velocity": 80}, {"time": 126963, "pitch": 71, "duration": 2161, "velocity": 80}, {"time": 126963, "pitch": 75, "duration": 2161, "velocity": 80}, {"time": 126963, "pitch": 78, "duration": 2161, "velocity": 80}, {"time": 129124, "pitch": 71, "duration": 1678, "velocity": 80}, {"time": 129124, "pitch": 76, "duration": 1678, "velocity": 80}, {"time": 129124, "pitch": 80, "duration": 1678, "velocity": 80}, {"time": 130802, "pitch": 70, "duration": 2161, "velocity": 80}, {"time": 130802, "pitch": 73, "duration": 2161, "velocity": 80}, {"time": 130802, "pitch": 76, "duration": 2161, "velocity": 80}, {"time": 132963, "pitch": 66, "duration": 1920, "velocity": 80}, {"time": 132963, "pitch": 69, "duration": 1920, "velocity": 80}, {"time": 132963, "pitch": 73, "duration": 1920, "velocity": 80}, {"time": 134883, "pitch": 66, "duration": 1920, "velocity": 80}, {"time": 134883, "pitch": 71, "duration": 1920, "velocity": 80}, {"time": 134883, "pitch": 76, "duration": 1920, "velocity": 80}, {"time": 136803, "pitch": 69, "duration": 1678, "velocity": 80}, {"time": 136803, "pitch": 71, "duration": 1678, "velocity": 80}, {"time": 136803, "pitch": 76, "duration": 1678, "velocity": 80}, {"time": 138481, "pitch": 68, "duration": 2161, "velocity": 80}, {"time": 138481, "pitch": 71, "duration": 2161, "velocity": 80}, {"time": 138481, "pitch": 76, "duration": 2161, "velocity": 80}, {"time": 140642, "pitch": 64, "duration": 1679, "velocity": 80}, {"time": 140642, "pitch": 68, "duration": 1679, "velocity": 80}, {"time": 140642, "pitch": 73, "duration": 1679, "velocity": 80}, {"time": 142321, "pitch": 64, "duration": 2161, "velocity": 80}, {"time": 142321, "pitch": 70, "duration": 2161, "velocity": 80}, {"time": 142321, "pitch": 73, "duration": 2161, "velocity": 80}, {"time": 144482, "pitch": 64, "duration": 1678, "velocity": 80}, {"time": 144482, "pitch": 68, "duration": 1678, "velocity": 80}, {"time": 144482, "pitch": 73, "duration": 1678, "velocity": 80}, {"time": 146160, "pitch": 64, "duration": 2161, "velocity": 80}, {"time": 146160, "pitch": 70, "duration": 2161, "velocity": 80}, {"time": 146160, "pitch": 73, "duration": 2161, "velocity": 80}, {"time": 148321, "pitch": 64, "duration": 1679, "velocity": 80}, {"time": 148321, "pitch": 68, "duration": 1679, "velocity": 80}, {"time": 148321, "pitch": 73, "duration": 1679, "velocity": 80}, {"time": 150000, "pitch": 64, "duration": 2161, "velocity": 80}, {"time": 150000, "pitch": 70, "duration": 2161, "velocity": 80}, {"time": 150000, "pitch": 73, "duration": 2161, "velocity": 80}, {"time": 152161, "pitch": 66, "duration": 1678, "velocity": 80}, {"time": 152161, "pitch": 71, "duration": 1678, "velocity": 80}, {"time": 152161, "pitch": 76, "duration": 1678, "velocity": 80}, {"time": 153839, "pitch": 66, "duration": 483, "velocity": 80}, {"time": 153839, "pitch": 71, "duration": 483, "velocity": 80}, {"time": 153839, "pitch": 75, "duration": 483, "velocity": 80}, {"time": 154322, "pitch": 66, "duration": 241, "velocity": 80}, {"time": 154322, "pitch": 71, "duration": 241, "velocity": 80}, {"time": 154322, "pitch": 75, "duration": 241, "velocity": 80}, {"time": 154563, "pitch": 66, "duration": 236, "velocity": 80}, {"time": 154563, "pitch": 71, "duration": 236, "velocity": 80}, {"time": 154563, "pitch": 75, "duration": 236, "velocity": 80}, {"time": 154799, "pitch": 66, "duration": 236, "velocity": 80}, {"time": 154799, "pitch": 71, "duration": 236, "velocity": 80}, {"time": 154799, "pitch": 75, "duration": 236, "velocity": 80}, {"time": 155035, "pitch": 66, "duration": 242, "velocity": 80}, {"time": 155035, "pitch": 71, "duration": 242, "velocity": 80}, {"time": 155035, "pitch": 75, "duration": 242, "velocity": 80}, {"time": 155277, "pitch": 66, "duration": 241, "velocity": 80}, {"time": 155277, "pitch": 71, "duration": 241, "velocity": 80}, {"time": 155277, "pitch": 75, "duration": 241, "velocity": 80}, {"time": 155497, "pitch": 50, "duration": 56, "velocity": 51}, {"time": 155497, "pitch": 52, "duration": 100, "velocity": 77}, {"time": 155544, "pitch": 53, "duration": 80, "velocity": 38}, {"time": 155584, "pitch": 55, "duration": 61, "velocity": 80}, {"time": 155617, "pitch": 57, "duration": 54, "velocity": 93}, {"time": 155639, "pitch": 59, "duration": 52, "velocity": 93}, {"time": 155664, "pitch": 60, "duration": 47, "velocity": 103}, {"time": 155685, "pitch": 62, "duration": 40, "velocity": 108}, {"time": 155699, "pitch": 64, "duration": 46, "velocity": 98}, {"time": 155718, "pitch": 65, "duration": 39, "velocity": 108}, {"time": 155738, "pitch": 67, "duration": 47, "velocity": 108}, {"time": 155751, "pitch": 69, "duration": 34, "velocity": 108}, {"time": 155759, "pitch": 71, "duration": 46, "velocity": 80}, {"time": 155785, "pitch": 72, "duration": 33, "velocity": 98}, {"time": 155798, "pitch": 74, "duration": 33, "velocity": 103}, {"time": 155818, "pitch": 76, "duration": 34, "velocity": 103}, {"time": 155831, "pitch": 77, "duration": 35, "velocity": 103}, {"time": 155852, "pitch": 79, "duration": 34, "velocity": 103}, {"time": 155872, "pitch": 81, "duration": 33, "velocity": 98}, {"time": 155886, "pitch": 83, "duration": 40, "velocity": 93}, {"time": 155905, "pitch": 84, "duration": 35, "velocity": 88}, {"time": 155926, "pitch": 86, "duration": 40, "velocity": 93}, {"time": 155946, "pitch": 88, "duration": 40, "velocity": 80}, {"time": 155972, "pitch": 89, "duration": 29, "velocity": 80}, {"time": 156000, "pitch": 71, "duration": 1679, "velocity": 80}, {"time": 156000, "pitch": 76, "duration": 1679, "velocity": 80}, {"time": 156000, "pitch": 80, "duration": 1679, "velocity": 80}, {"time": 157679, "pitch": 71, "duration": 2161, "velocity": 80}, {"time": 157679, "pitch": 75, "duration": 2161, "velocity": 80}, {"time": 157679, "pitch": 78, "duration": 2161, "velocity": 80}, {"time": 159840, "pitch": 71, "duration": 1678, "velocity": 80}, {"time": 159840, "pitch": 76, "duration": 1678, "velocity": 80}, {"time": 159840, "pitch": 80, "duration": 1678, "velocity": 80}, {"time": 161518, "pitch": 70, "duration": 2161, "velocity": 80}, {"time": 161518, "pitch": 73, "duration": 2161, "velocity": 80}, {"time": 161518, "pitch": 76, "duration": 2161, "velocity": 80}, {"time": 163679, "pitch": 66, "duration": 1920, "velocity": 80}, {"time": 163679, "pitch": 69, "duration": 1920, "velocity": 80}, {"time": 163679, "pitch": 73, "duration": 1920, "velocity": 80}, {"time": 165599, "pitch": 68, "duration": 1920, "velocity": 80}, {"time": 165599, "pitch": 71, "duration": 1920, "velocity": 80}, {"time": 165599, "pitch": 76, "duration": 1920, "velocity": 80}, {"time": 167519, "pitch": 66, "duration": 1678, "velocity": 80}, {"time": 167519, "pitch": 71, "duration": 1678, "velocity": 80}, {"time": 167519, "pitch": 76, "duration": 1678, "velocity": 80}, {"time": 169197, "pitch": 66, "duration": 2161, "velocity": 80}, {"time": 169197, "pitch": 71, "duration": 2161, "velocity": 80}, {"time": 169197, "pitch": 75, "duration": 2161, "velocity": 80}, {"time": 171358, "pitch": 71, "duration": 1679, "velocity": 80}, {"time": 171358, "pitch": 76, "duration": 1679, "velocity": 80}, {"time": 171358, "pitch": 80, "duration": 1679, "velocity": 80}, {"time": 173037, "pitch": 71, "duration": 2161, "velocity": 80}, {"time": 173037, "pitch": 75, "duration": 2161, "velocity": 80}, {"time": 173037, "pitch": 78, "duration": 2161, "velocity": 80}, {"time": 175198, "pitch": 71, "duration": 1678, "velocity": 80}, {"time": 175198, "pitch": 76, "duration": 1678, "velocity": 80}, {"time": 175198, "pitch": 80, "duration": 1678, "velocity": 80}, {"time": 176876, "pitch": 70, "duration": 2161, "velocity": 80}, {"time": 176876, "pitch": 73, "duration": 2161, "velocity": 80}, {"time": 176876, "pitch": 76, "duration": 2161, "velocity": 80}, {"time": 179037, "pitch": 66, "duration": 1920, "velocity": 80}, {"time": 179037, "pitch": 69, "duration": 1920, "velocity": 80}, {"time": 179037, "pitch": 73, "duration": 1920, "velocity": 80}, {"time": 180957, "pitch": 66, "duration": 1920, "velocity": 80}, {"time": 180957, "pitch": 71, "duration": 1920, "velocity": 80}, {"time": 180957, "pitch": 76, "duration": 1920, "velocity": 80}, {"time": 182877, "pitch": 69, "duration": 1683, "velocity": 80}, {"time": 182877, "pitch": 71, "duration": 1683, "velocity": 80}, {"time": 182877, "pitch": 76, "duration": 1683, "velocity": 80}, {"time": 184560, "pitch": 68, "duration": 4076, "velocity": 80}, {"time": 184560, "pitch": 71, "duration": 4076, "velocity": 80}, {"time": 184560, "pitch": 76, "duration": 4076, "velocity": 80}], "annotations": [{"time": 300, "annotation": {"number": 7, "value": 90}, "group": "control_change"}, {"time": 320, "annotation": {"number": 11, "value": 100}, "group": "control_change"}, {"time": 340, "annotation": {"number": 10, "value": 54}, "group": "control_change"}, {"time": 360, "annotation": {"number": 91, "value": 40}, "group": "control_change"}, {"time": 380, "annotation": {"number": 93, "value": 0}, "group": "control_change"}, {"time": 400, "annotation": {"number": 101, "value": 0}, "group": "control_change"}, {"time": 420, "annotation": {"number": 100, "value": 0}, "group": "control_change"}, {"time": 440, "annotation": {"number": 6, "value": 12}, "group": "control_change"}, {"time": 460, "annotation": {"number": 101, "value": 127}, "group": "control_change"}, {"time": 480, "annotation": {"number": 100, "value": 127}, "group": "control_change"}, {"time": 185520, "annotation": {"number": 11, "value": 127}, "group": "control_change"}, {"time": 185581, "annotation": {"number": 11, "value": 125}, "group": "control_change"}, {"time": 185641, "annotation": {"number": 11, "value": 123}, "group": "control_change"}, {"time": 185701, "annotation": {"number": 11, "value": 120}, "group": "control_change"}, {"time": 185762, "annotation": {"number": 11, "value": 118}, "group": "control_change"}, {"time": 185822, "annotation": {"number": 11, "value": 115}, "group": "control_change"}, {"time": 185882, "annotation": {"number": 11, "value": 113}, "group": "control_change"}, {"time": 185943, "annotation": {"number": 11, "value": 110}, "group": "control_change"}, {"time": 186003, "annotation": {"number": 11, "value": 108}, "group": "control_change"}, {"time": 186063, "annotation": {"number": 11, "value": 106}, "group": "control_change"}, {"time": 186124, "annotation": {"number": 11, "value": 103}, "group": "control_change"}, {"time": 186184, "annotation": {"number": 11, "value": 101}, "group": "control_change"}, {"time": 186244, "annotation": {"number": 11, "value": 98}, "group": "control_change"}, {"time": 186303, "annotation": {"number": 11, "value": 96}, "group": "control_change"}, {"time": 186362, "annotation": {"number": 11, "value": 93}, "group": "control_change"}, {"time": 186421, "annotation": {"number": 11, "value": 91}, "group": "control_change"}, {"time": 186480, "annotation": {"number": 11, "value": 88}, "group": "control_change"}, {"time": 186539, "annotation": {"number": 11, "value": 86}, "group": "control_change"}, {"time": 186598, "annotation": {"number": 11, "value": 84}, "group": "control_change"}, {"time": 186657, "annotation": {"number": 11, "value": 81}, "group": "control_change"}, {"time": 186716, "annotation": {"number": 11, "value": 79}, "group": "control_change"}, {"time": 186777, "annotation": {"number": 11, "value": 76}, "group": "control_change"}, {"time": 186837, "annotation": {"number": 11, "value": 74}, "group": "control_change"}, {"time": 186897, "annotation": {"number": 11, "value": 71}, "group": "control_change"}, {"time": 186958, "annotation": {"number": 11, "value": 69}, "group": "control_change"}, {"time": 187018, "annotation": {"number": 11, "value": 66}, "group": "control_change"}, {"time": 187078, "annotation": {"number": 11, "value": 64}, "group": "control_change"}, {"time": 187139, "annotation": {"number": 11, "value": 62}, "group": "control_change"}, {"time": 187199, "annotation": {"number": 11, "value": 59}, "group": "control_change"}, {"time": 187259, "annotation": {"number": 11, "value": 57}, "group": "control_change"}, {"time": 187320, "annotation": {"number": 11, "value": 54}, "group": "control_change"}, {"time": 187380, "annotation": {"number": 11, "value": 52}, "group": "control_change"}, {"time": 187440, "annotation": {"number": 11, "value": 49}, "group": "control_change"}, {"time": 187500, "annotation": {"number": 11, "value": 47}, "group": "control_change"}, {"time": 187561, "annotation": {"number": 11, "value": 44}, "group": "control_change"}, {"time": 187621, "annotation": {"number": 11, "value": 42}, "group": "control_change"}, {"time": 187681, "annotation": {"number": 11, "value": 40}, "group": "control_change"}, {"time": 187742, "annotation": {"number": 11, "value": 37}, "group": "control_change"}, {"time": 187802, "annotation": {"number": 11, "value": 35}, "group": "control_change"}, {"time": 187862, "annotation": {"number": 11, "value": 32}, "group": "control_change"}, {"time": 187923, "annotation": {"number": 11, "value": 30}, "group": "control_change"}, {"time": 187983, "annotation": {"number": 11, "value": 27}, "group": "control_change"}, {"time": 188043, "annotation": {"number": 11, "value": 25}, "group": "control_change"}, {"time": 188104, "annotation": {"number": 11, "value": 22}, "group": "control_change"}, {"time": 188164, "annotation": {"number": 11, "value": 20}, "group": "control_change"}, {"time": 188223, "annotation": {"number": 11, "value": 18}, "group": "control_change"}, {"time": 188282, "annotation": {"number": 11, "value": 15}, "group": "control_change"}, {"time": 188341, "annotation": {"number": 11, "value": 13}, "group": "control_change"}, {"time": 188400, "annotation": {"number": 11, "value": 10}, "group": "control_change"}, {"time": 188459, "annotation": {"number": 11, "value": 8}, "group": "control_change"}, {"time": 188518, "annotation": {"number": 11, "value": 5}, "group": "control_change"}, {"time": 188577, "annotation": {"number": 11, "value": 3}, "group": "control_change"}]}, {"program": 0, "is_drum": false, "name": "MELODY", "annotations": [{"time": 200, "annotation": {"number": 0, "value": 0}, "group": "control_change"}, {"time": 220, "annotation": {"number": 32, "value": 2}, "group": "control_change"}]}, {"program": 73, "is_drum": false, "name": "MELODY", "notes": [{"time": 10561, "pitch": 76, "duration": 241, "velocity": 110}, {"time": 10802, "pitch": 76, "duration": 241, "velocity": 110}, {"time": 11043, "pitch": 76, "duration": 238, "velocity": 110}, {"time": 11280, "pitch": 71, "duration": 236, "velocity": 110}, {"time": 11516, "pitch": 73, "duration": 241, "velocity": 110}, {"time": 11757, "pitch": 74, "duration": 483, "velocity": 110}, {"time": 12240, "pitch": 74, "duration": 242, "velocity": 110}, {"time": 12481, "pitch": 73, "duration": 483, "velocity": 110}, {"time": 12963, "pitch": 71, "duration": 237, "velocity": 110}, {"time": 13199, "pitch": 69, "duration": 478, "velocity": 110}, {"time": 13677, "pitch": 71, "duration": 2161, "velocity": 110}, {"time": 18240, "pitch": 76, "duration": 241, "velocity": 110}, {"time": 18481, "pitch": 76, "duration": 242, "velocity": 110}, {"time": 18723, "pitch": 76, "duration": 242, "velocity": 110}, {"time": 18964, "pitch": 71, "duration": 241, "velocity": 110}, {"time": 19205, "pitch": 73, "duration": 236, "velocity": 110}, {"time": 19441, "pitch": 74, "duration": 478, "velocity": 110}, {"time": 19919, "pitch": 74, "duration": 242, "velocity": 110}, {"time": 20160, "pitch": 73, "duration": 483, "velocity": 110}, {"time": 20642, "pitch": 71, "duration": 243, "velocity": 110}, {"time": 20884, "pitch": 69, "duration": 477, "velocity": 110}, {"time": 21361, "pitch": 71, "duration": 2156, "velocity": 110}, {"time": 25437, "pitch": 73, "duration": 241, "velocity": 110}, {"time": 25678, "pitch": 76, "duration": 241, "velocity": 110}, {"time": 25919, "pitch": 76, "duration": 241, "velocity": 110}, {"time": 26160, "pitch": 78, "duration": 484, "velocity": 110}, {"time": 26643, "pitch": 76, "duration": 241, "velocity": 110}, {"time": 26884, "pitch": 76, "duration": 236, "velocity": 110}, {"time": 27120, "pitch": 80, "duration": 236, "velocity": 110}, {"time": 27598, "pitch": 78, "duration": 241, "velocity": 110}, {"time": 28080, "pitch": 76, "duration": 724, "velocity": 110}, {"time": 29040, "pitch": 71, "duration": 236, "velocity": 110}, {"time": 29276, "pitch": 73, "duration": 241, "velocity": 110}, {"time": 29517, "pitch": 76, "duration": 242, "velocity": 110}, {"time": 29759, "pitch": 76, "duration": 241, "velocity": 110}, {"time": 30000, "pitch": 76, "duration": 483, "velocity": 110}, {"time": 30482, "pitch": 73, "duration": 242, "velocity": 110}, {"time": 30723, "pitch": 68, "duration": 237, "velocity": 110}, {"time": 30960, "pitch": 71, "duration": 1201, "velocity": 110}, {"time": 33116, "pitch": 73, "duration": 241, "velocity": 110}, {"time": 33357, "pitch": 76, "duration": 241, "velocity": 110}, {"time": 33598, "pitch": 76, "duration": 241, "velocity": 110}, {"time": 33839, "pitch": 78, "duration": 484, "velocity": 110}, {"time": 34322, "pitch": 76, "duration": 241, "velocity": 110}, {"time": 34563, "pitch": 76, "duration": 236, "velocity": 110}, {"time": 34799, "pitch": 80, "duration": 236, "velocity": 110}, {"time": 35277, "pitch": 78, "duration": 241, "velocity": 110}, {"time": 35759, "pitch": 77, "duration": 724, "velocity": 110}, {"time": 36719, "pitch": 71, "duration": 236, "velocity": 110}, {"time": 36955, "pitch": 73, "duration": 241, "velocity": 110}, {"time": 37196, "pitch": 76, "duration": 242, "velocity": 110}, {"time": 37438, "pitch": 76, "duration": 241, "velocity": 110}, {"time": 37679, "pitch": 76, "duration": 482, "velocity": 110}, {"time": 38644, "pitch": 71, "duration": 241, "velocity": 110}, {"time": 38885, "pitch": 73, "duration": 236, "velocity": 110}, {"time": 39121, "pitch": 76, "duration": 236, "velocity": 110}, {"time": 39357, "pitch": 76, "duration": 242, "velocity": 110}, {"time": 39599, "pitch": 80, "duration": 483, "velocity": 110}, {"time": 40081, "pitch": 78, "duration": 242, "velocity": 110}, {"time": 40322, "pitch": 76, "duration": 242, "velocity": 110}, {"time": 40564, "pitch": 78, "duration": 2160, "velocity": 110}, {"time": 43921, "pitch": 83, "duration": 241, "velocity": 110}, {"time": 44162, "pitch": 83, "duration": 242, "velocity": 110}, {"time": 44403, "pitch": 80, "duration": 241, "velocity": 110}, {"time": 44644, "pitch": 85, "duration": 236, "velocity": 110}, {"time": 45117, "pitch": 83, "duration": 482, "velocity": 110}, {"time": 45599, "pitch": 83, "duration": 241, "velocity": 110}, {"time": 45840, "pitch": 83, "duration": 243, "velocity": 110}, {"time": 46082, "pitch": 80, "duration": 241, "velocity": 110}, {"time": 46323, "pitch": 85, "duration": 241, "velocity": 110}, {"time": 46800, "pitch": 83, "duration": 719, "velocity": 110}, {"time": 47760, "pitch": 83, "duration": 241, "velocity": 110}, {"time": 48001, "pitch": 83, "duration": 243, "velocity": 110}, {"time": 48243, "pitch": 80, "duration": 241, "velocity": 110}, {"time": 48484, "pitch": 85, "duration": 236, "velocity": 110}, {"time": 48956, "pitch": 80, "duration": 484, "velocity": 110}, {"time": 49439, "pitch": 78, "duration": 241, "velocity": 110}, {"time": 49680, "pitch": 78, "duration": 241, "velocity": 110}, {"time": 49921, "pitch": 80, "duration": 242, "velocity": 110}, {"time": 50162, "pitch": 78, "duration": 242, "velocity": 110}, {"time": 50640, "pitch": 76, "duration": 718, "velocity": 110}, {"time": 52082, "pitch": 76, "duration": 241, "velocity": 110}, {"time": 52323, "pitch": 81, "duration": 474, "velocity": 110}, {"time": 52796, "pitch": 80, "duration": 483, "velocity": 110}, {"time": 53278, "pitch": 78, "duration": 484, "velocity": 110}, {"time": 53761, "pitch": 76, "duration": 482, "velocity": 110}, {"time": 54243, "pitch": 81, "duration": 473, "velocity": 110}, {"time": 54715, "pitch": 80, "duration": 484, "velocity": 110}, {"time": 55198, "pitch": 78, "duration": 483, "velocity": 110}, {"time": 55680, "pitch": 76, "duration": 483, "velocity": 110}, {"time": 56163, "pitch": 78, "duration": 1920, "velocity": 110}, {"time": 59279, "pitch": 83, "duration": 241, "velocity": 110}, {"time": 59520, "pitch": 83, "duration": 242, "velocity": 110}, {"time": 59761, "pitch": 80, "duration": 241, "velocity": 110}, {"time": 60002, "pitch": 85, "duration": 242, "velocity": 110}, {"time": 60485, "pitch": 83, "duration": 472, "velocity": 110}, {"time": 60957, "pitch": 83, "duration": 241, "velocity": 110}, {"time": 61198, "pitch": 83, "duration": 243, "velocity": 110}, {"time": 61440, "pitch": 80, "duration": 241, "velocity": 110}, {"time": 61681, "pitch": 85, "duration": 241, "velocity": 110}, {"time": 62163, "pitch": 83, "duration": 714, "velocity": 110}, {"time": 63118, "pitch": 83, "duration": 241, "velocity": 110}, {"time": 63359, "pitch": 83, "duration": 243, "velocity": 110}, {"time": 63601, "pitch": 80, "duration": 241, "velocity": 110}, {"time": 63842, "pitch": 85, "duration": 241, "velocity": 110}, {"time": 64324, "pitch": 80, "duration": 474, "velocity": 110}, {"time": 64797, "pitch": 78, "duration": 241, "velocity": 110}, {"time": 65038, "pitch": 78, "duration": 241, "velocity": 110}, {"time": 65279, "pitch": 80, "duration": 242, "velocity": 110}, {"time": 65520, "pitch": 78, "duration": 242, "velocity": 110}, {"time": 66003, "pitch": 76, "duration": 713, "velocity": 110}, {"time": 67440, "pitch": 76, "duration": 241, "velocity": 110}, {"time": 67681, "pitch": 81, "duration": 484, "velocity": 110}, {"time": 68164, "pitch": 80, "duration": 473, "velocity": 110}, {"time": 68636, "pitch": 78, "duration": 484, "velocity": 110}, {"time": 69119, "pitch": 76, "duration": 482, "velocity": 110}, {"time": 69601, "pitch": 81, "duration": 484, "velocity": 110}, {"time": 70084, "pitch": 80, "duration": 473, "velocity": 110}, {"time": 70556, "pitch": 78, "duration": 483, "velocity": 110}, {"time": 71038, "pitch": 76, "duration": 483, "velocity": 110}, {"time": 71521, "pitch": 76, "duration": 1920, "velocity": 110}, {"time": 75843, "pitch": 76, "duration": 236, "velocity": 110}, {"time": 76079, "pitch": 76, "duration": 236, "velocity": 110}, {"time": 76315, "pitch": 76, "duration": 242, "velocity": 110}, {"time": 76556, "pitch": 71, "duration": 242, "velocity": 110}, {"time": 76798, "pitch": 73, "duration": 241, "velocity": 110}, {"time": 77039, "pitch": 74, "duration": 482, "velocity": 110}, {"time": 77521, "pitch": 74, "duration": 243, "velocity": 110}, {"time": 77763, "pitch": 73, "duration": 473, "velocity": 110}, {"time": 78235, "pitch": 71, "duration": 242, "velocity": 110}, {"time": 78476, "pitch": 69, "duration": 483, "velocity": 110}, {"time": 78959, "pitch": 71, "duration": 2161, "velocity": 110}, {"time": 83522, "pitch": 76, "duration": 241, "velocity": 110}, {"time": 83763, "pitch": 76, "duration": 241, "velocity": 110}, {"time": 84004, "pitch": 76, "duration": 238, "velocity": 110}, {"time": 84241, "pitch": 71, "duration": 236, "velocity": 110}, {"time": 84477, "pitch": 73, "duration": 241, "velocity": 110}, {"time": 84718, "pitch": 74, "duration": 482, "velocity": 110}, {"time": 85200, "pitch": 74, "duration": 243, "velocity": 110}, {"time": 85442, "pitch": 73, "duration": 483, "velocity": 110}, {"time": 85924, "pitch": 71, "duration": 237, "velocity": 110}, {"time": 86160, "pitch": 69, "duration": 478, "velocity": 110}, {"time": 86638, "pitch": 71, "duration": 2161, "velocity": 110}, {"time": 90718, "pitch": 73, "duration": 242, "velocity": 110}, {"time": 90960, "pitch": 76, "duration": 241, "velocity": 110}, {"time": 91201, "pitch": 76, "duration": 241, "velocity": 110}, {"time": 91442, "pitch": 78, "duration": 479, "velocity": 110}, {"time": 91920, "pitch": 76, "duration": 236, "velocity": 110}, {"time": 92156, "pitch": 76, "duration": 241, "velocity": 110}, {"time": 92397, "pitch": 80, "duration": 241, "velocity": 110}, {"time": 92879, "pitch": 78, "duration": 242, "velocity": 110}, {"time": 93362, "pitch": 76, "duration": 714, "velocity": 110}, {"time": 94317, "pitch": 71, "duration": 241, "velocity": 110}, {"time": 94558, "pitch": 73, "duration": 241, "velocity": 110}, {"time": 94799, "pitch": 76, "duration": 241, "velocity": 110}, {"time": 95040, "pitch": 76, "duration": 242, "velocity": 110}, {"time": 95282, "pitch": 76, "duration": 478, "velocity": 110}, {"time": 95759, "pitch": 73, "duration": 237, "velocity": 110}, {"time": 95995, "pitch": 68, "duration": 241, "velocity": 110}, {"time": 96236, "pitch": 71, "duration": 1207, "velocity": 110}, {"time": 98397, "pitch": 73, "duration": 242, "velocity": 110}, {"time": 98639, "pitch": 76, "duration": 241, "velocity": 110}, {"time": 98880, "pitch": 76, "duration": 241, "velocity": 110}, {"time": 99121, "pitch": 78, "duration": 484, "velocity": 110}, {"time": 99604, "pitch": 76, "duration": 241, "velocity": 110}, {"time": 99845, "pitch": 76, "duration": 236, "velocity": 110}, {"time": 100081, "pitch": 80, "duration": 236, "velocity": 110}, {"time": 100558, "pitch": 78, "duration": 242, "velocity": 110}, {"time": 101041, "pitch": 77, "duration": 724, "velocity": 110}, {"time": 102001, "pitch": 71, "duration": 236, "velocity": 110}, {"time": 102237, "pitch": 73, "duration": 241, "velocity": 110}, {"time": 102478, "pitch": 76, "duration": 241, "velocity": 110}, {"time": 102719, "pitch": 76, "duration": 242, "velocity": 110}, {"time": 102961, "pitch": 76, "duration": 482, "velocity": 110}, {"time": 103921, "pitch": 71, "duration": 236, "velocity": 110}, {"time": 104157, "pitch": 73, "duration": 241, "velocity": 110}, {"time": 104398, "pitch": 76, "duration": 241, "velocity": 110}, {"time": 104639, "pitch": 76, "duration": 241, "velocity": 110}, {"time": 104880, "pitch": 80, "duration": 484, "velocity": 110}, {"time": 105363, "pitch": 78, "duration": 242, "velocity": 110}, {"time": 105604, "pitch": 76, "duration": 236, "velocity": 110}, {"time": 105840, "pitch": 78, "duration": 2156, "velocity": 110}, {"time": 109202, "pitch": 83, "duration": 242, "velocity": 110}, {"time": 109444, "pitch": 83, "duration": 237, "velocity": 110}, {"time": 109680, "pitch": 80, "duration": 236, "velocity": 110}, {"time": 109916, "pitch": 85, "duration": 241, "velocity": 110}, {"time": 110398, "pitch": 83, "duration": 483, "velocity": 110}, {"time": 110881, "pitch": 83, "duration": 241, "velocity": 110}, {"time": 111122, "pitch": 83, "duration": 242, "velocity": 110}, {"time": 111363, "pitch": 80, "duration": 237, "velocity": 110}, {"time": 111600, "pitch": 85, "duration": 236, "velocity": 110}, {"time": 112077, "pitch": 83, "duration": 724, "velocity": 110}, {"time": 113042, "pitch": 83, "duration": 241, "velocity": 110}, {"time": 113283, "pitch": 83, "duration": 237, "velocity": 110}, {"time": 113519, "pitch": 80, "duration": 237, "velocity": 110}, {"time": 113756, "pitch": 85, "duration": 241, "velocity": 110}, {"time": 114238, "pitch": 80, "duration": 483, "velocity": 110}, {"time": 114720, "pitch": 78, "duration": 242, "velocity": 110}, {"time": 114962, "pitch": 78, "duration": 241, "velocity": 110}, {"time": 115203, "pitch": 80, "duration": 237, "velocity": 110}, {"time": 115439, "pitch": 78, "duration": 236, "velocity": 110}, {"time": 115917, "pitch": 76, "duration": 723, "velocity": 110}, {"time": 117359, "pitch": 76, "duration": 236, "velocity": 110}, {"time": 117595, "pitch": 81, "duration": 484, "velocity": 110}, {"time": 118078, "pitch": 80, "duration": 483, "velocity": 110}, {"time": 118560, "pitch": 78, "duration": 483, "velocity": 110}, {"time": 119042, "pitch": 76, "duration": 483, "velocity": 110}, {"time": 119525, "pitch": 81, "duration": 473, "velocity": 110}, {"time": 119997, "pitch": 80, "duration": 484, "velocity": 110}, {"time": 120480, "pitch": 78, "duration": 483, "velocity": 110}, {"time": 120962, "pitch": 76, "duration": 483, "velocity": 110}, {"time": 121445, "pitch": 78, "duration": 1919, "velocity": 110}, {"time": 124561, "pitch": 83, "duration": 241, "velocity": 110}, {"time": 124802, "pitch": 83, "duration": 242, "velocity": 110}, {"time": 125043, "pitch": 80, "duration": 241, "velocity": 110}, {"time": 125284, "pitch": 85, "duration": 236, "velocity": 110}, {"time": 125757, "pitch": 83, "duration": 482, "velocity": 110}, {"time": 126239, "pitch": 83, "duration": 241, "velocity": 110}, {"time": 126480, "pitch": 83, "duration": 243, "velocity": 110}, {"time": 126722, "pitch": 80, "duration": 241, "velocity": 110}, {"time": 126963, "pitch": 85, "duration": 241, "velocity": 110}, {"time": 127440, "pitch": 83, "duration": 719, "velocity": 110}, {"time": 128400, "pitch": 83, "duration": 241, "velocity": 110}, {"time": 128641, "pitch": 83, "duration": 243, "velocity": 110}, {"time": 128883, "pitch": 80, "duration": 241, "velocity": 110}, {"time": 129124, "pitch": 85, "duration": 236, "velocity": 110}, {"time": 129596, "pitch": 80, "duration": 484, "velocity": 110}, {"time": 130079, "pitch": 78, "duration": 241, "velocity": 110}, {"time": 130320, "pitch": 78, "duration": 241, "velocity": 110}, {"time": 130561, "pitch": 80, "duration": 242, "velocity": 110}, {"time": 130802, "pitch": 78, "duration": 241, "velocity": 110}, {"time": 131280, "pitch": 76, "duration": 718, "velocity": 110}, {"time": 132722, "pitch": 76, "duration": 241, "velocity": 110}, {"time": 132963, "pitch": 81, "duration": 474, "velocity": 110}, {"time": 133436, "pitch": 80, "duration": 483, "velocity": 110}, {"time": 133918, "pitch": 78, "duration": 484, "velocity": 110}, {"time": 134401, "pitch": 76, "duration": 482, "velocity": 110}, {"time": 134883, "pitch": 81, "duration": 473, "velocity": 110}, {"time": 135355, "pitch": 80, "duration": 484, "velocity": 110}, {"time": 135838, "pitch": 78, "duration": 483, "velocity": 110}, {"time": 136320, "pitch": 76, "duration": 483, "velocity": 110}, {"time": 136803, "pitch": 76, "duration": 1920, "velocity": 110}, {"time": 155277, "pitch": 83, "duration": 241, "velocity": 110}, {"time": 155518, "pitch": 83, "duration": 242, "velocity": 110}, {"time": 155759, "pitch": 80, "duration": 241, "velocity": 110}, {"time": 156000, "pitch": 85, "duration": 242, "velocity": 110}, {"time": 156483, "pitch": 83, "duration": 472, "velocity": 110}, {"time": 156955, "pitch": 83, "duration": 241, "velocity": 110}, {"time": 157196, "pitch": 83, "duration": 243, "velocity": 110}, {"time": 157438, "pitch": 80, "duration": 241, "velocity": 110}, {"time": 157679, "pitch": 85, "duration": 241, "velocity": 110}, {"time": 158161, "pitch": 83, "duration": 724, "velocity": 110}, {"time": 159121, "pitch": 83, "duration": 236, "velocity": 110}, {"time": 159357, "pitch": 83, "duration": 243, "velocity": 110}, {"time": 159599, "pitch": 80, "duration": 241, "velocity": 110}, {"time": 159840, "pitch": 85, "duration": 241, "velocity": 110}, {"time": 160322, "pitch": 80, "duration": 484, "velocity": 110}, {"time": 160805, "pitch": 78, "duration": 236, "velocity": 110}, {"time": 161041, "pitch": 78, "duration": 236, "velocity": 110}, {"time": 161277, "pitch": 80, "duration": 242, "velocity": 110}, {"time": 161518, "pitch": 78, "duration": 242, "velocity": 110}, {"time": 162001, "pitch": 76, "duration": 723, "velocity": 110}, {"time": 163438, "pitch": 76, "duration": 241, "velocity": 110}, {"time": 163679, "pitch": 81, "duration": 484, "velocity": 110}, {"time": 164162, "pitch": 80, "duration": 483, "velocity": 110}, {"time": 164644, "pitch": 78, "duration": 474, "velocity": 110}, {"time": 165117, "pitch": 76, "duration": 482, "velocity": 110}, {"time": 165599, "pitch": 81, "duration": 484, "velocity": 110}, {"time": 166082, "pitch": 80, "duration": 483, "velocity": 110}, {"time": 166564, "pitch": 78, "duration": 473, "velocity": 110}, {"time": 167036, "pitch": 76, "duration": 483, "velocity": 110}, {"time": 167519, "pitch": 78, "duration": 1920, "velocity": 110}, {"time": 170640, "pitch": 83, "duration": 236, "velocity": 110}, {"time": 170876, "pitch": 83, "duration": 242, "velocity": 110}, {"time": 171117, "pitch": 80, "duration": 241, "velocity": 110}, {"time": 171358, "pitch": 85, "duration": 242, "velocity": 110}, {"time": 171841, "pitch": 83, "duration": 482, "velocity": 110}, {"time": 172323, "pitch": 83, "duration": 236, "velocity": 110}, {"time": 172559, "pitch": 83, "duration": 238, "velocity": 110}, {"time": 172796, "pitch": 80, "duration": 241, "velocity": 110}, {"time": 173037, "pitch": 85, "duration": 241, "velocity": 110}, {"time": 173519, "pitch": 83, "duration": 724, "velocity": 110}, {"time": 174479, "pitch": 83, "duration": 236, "velocity": 110}, {"time": 174715, "pitch": 83, "duration": 243, "velocity": 110}, {"time": 174957, "pitch": 80, "duration": 241, "velocity": 110}, {"time": 175198, "pitch": 85, "duration": 241, "velocity": 110}, {"time": 175680, "pitch": 80, "duration": 484, "velocity": 110}, {"time": 176163, "pitch": 78, "duration": 236, "velocity": 110}, {"time": 176399, "pitch": 78, "duration": 236, "velocity": 110}, {"time": 176635, "pitch": 80, "duration": 242, "velocity": 110}, {"time": 176876, "pitch": 78, "duration": 242, "velocity": 110}, {"time": 177359, "pitch": 76, "duration": 724, "velocity": 110}, {"time": 178796, "pitch": 76, "duration": 241, "velocity": 110}, {"time": 179037, "pitch": 81, "duration": 484, "velocity": 110}, {"time": 179520, "pitch": 80, "duration": 483, "velocity": 110}, {"time": 180002, "pitch": 78, "duration": 484, "velocity": 110}, {"time": 180485, "pitch": 76, "duration": 472, "velocity": 110}, {"time": 180957, "pitch": 81, "duration": 484, "velocity": 110}, {"time": 181440, "pitch": 80, "duration": 483, "velocity": 110}, {"time": 181922, "pitch": 78, "duration": 484, "velocity": 110}, {"time": 182405, "pitch": 76, "duration": 472, "velocity": 110}, {"time": 182877, "pitch": 76, "duration": 1920, "velocity": 110}], "annotations": [{"time": 300, "annotation": {"number": 7, "value": 120}, "group": "control_change"}, {"time": 320, "annotation": {"number": 11, "value": 100}, "group": "control_change"}, {"time": 340, "annotation": {"number": 10, "value": 64}, "group": "control_change"}, {"time": 360, "annotation": {"number": 91, "value": 40}, "group": "control_change"}, {"time": 380, "annotation": {"number": 93, "value": 0}, "group": "control_change"}, {"time": 400, "annotation": {"number": 101, "value": 0}, "group": "control_change"}, {"time": 420, "annotation": {"number": 100, "value": 0}, "group": "control_change"}, {"time": 440, "annotation": {"number": 6, "value": 12}, "group": "control_change"}, {"time": 460, "annotation": {"number": 101, "value": 127}, "group": "control_change"}, {"time": 480, "annotation": {"number": 100, "value": 127}, "group": "control_change"}]}, {"program": 0, "is_drum": false, "name": "EG   {L}", "annotations": [{"time": 200, "annotation": {"number": 0, "value": 0}, "group": "control_change"}, {"time": 220, "annotation": {"number": 32, "value": 2}, "group": "control_change"}]}, {"program": 27, "is_drum": false, "name": "EG   {L}", "notes": [{"time": 2400, "pitch": 47, "duration": 241, "velocity": 100}, {"time": 2400, "pitch": 54, "duration": 241, "velocity": 100}, {"time": 2641, "pitch": 47, "duration": 241, "velocity": 100}, {"time": 2641, "pitch": 54, "duration": 241, "velocity": 100}, {"time": 2882, "pitch": 47, "duration": 241, "velocity": 100}, {"time": 2882, "pitch": 54, "duration": 241, "velocity": 100}, {"time": 3123, "pitch": 47, "duration": 241, "velocity": 100}, {"time": 3123, "pitch": 54, "duration": 241, "velocity": 100}, {"time": 3364, "pitch": 47, "duration": 237, "velocity": 100}, {"time": 3364, "pitch": 54, "duration": 237, "velocity": 100}, {"time": 3601, "pitch": 45, "duration": 236, "velocity": 100}, {"time": 3601, "pitch": 52, "duration": 236, "velocity": 100}, {"time": 3837, "pitch": 45, "duration": 241, "velocity": 100}, {"time": 3837, "pitch": 52, "duration": 241, "velocity": 100}, {"time": 4078, "pitch": 47, "duration": 483, "velocity": 100}, {"time": 4078, "pitch": 54, "duration": 483, "velocity": 100}, {"time": 4561, "pitch": 47, "duration": 241, "velocity": 100}, {"time": 4561, "pitch": 54, "duration": 241, "velocity": 100}, {"time": 4802, "pitch": 47, "duration": 241, "velocity": 100}, {"time": 4802, "pitch": 54, "duration": 241, "velocity": 100}, {"time": 5043, "pitch": 47, "duration": 241, "velocity": 100}, {"time": 5043, "pitch": 54, "duration": 241, "velocity": 100}, {"time": 5284, "pitch": 47, "duration": 236, "velocity": 100}, {"time": 5284, "pitch": 54, "duration": 236, "velocity": 100}, {"time": 5520, "pitch": 45, "duration": 237, "velocity": 100}, {"time": 5520, "pitch": 52, "duration": 237, "velocity": 100}, {"time": 5757, "pitch": 45, "duration": 241, "velocity": 100}, {"time": 5757, "pitch": 52, "duration": 241, "velocity": 100}, {"time": 5998, "pitch": 47, "duration": 482, "velocity": 100}, {"time": 5998, "pitch": 54, "duration": 482, "velocity": 100}, {"time": 6480, "pitch": 47, "duration": 242, "velocity": 100}, {"time": 6480, "pitch": 54, "duration": 242, "velocity": 100}, {"time": 6722, "pitch": 47, "duration": 241, "velocity": 100}, {"time": 6722, "pitch": 54, "duration": 241, "velocity": 100}, {"time": 6963, "pitch": 47, "duration": 241, "velocity": 100}, {"time": 6963, "pitch": 54, "duration": 241, "velocity": 100}, {"time": 7204, "pitch": 47, "duration": 236, "velocity": 100}, {"time": 7204, "pitch": 54, "duration": 236, "velocity": 100}, {"time": 7440, "pitch": 47, "duration": 236, "velocity": 100}, {"time": 7440, "pitch": 54, "duration": 236, "velocity": 100}, {"time": 7676, "pitch": 47, "duration": 242, "velocity": 100}, {"time": 7676, "pitch": 54, "duration": 242, "velocity": 100}, {"time": 7918, "pitch": 47, "duration": 241, "velocity": 100}, {"time": 7918, "pitch": 54, "duration": 241, "velocity": 100}, {"time": 8159, "pitch": 47, "duration": 241, "velocity": 100}, {"time": 8159, "pitch": 54, "duration": 241, "velocity": 100}, {"time": 8400, "pitch": 47, "duration": 241, "velocity": 100}, {"time": 8400, "pitch": 54, "duration": 241, "velocity": 100}, {"time": 8641, "pitch": 47, "duration": 242, "velocity": 100}, {"time": 8641, "pitch": 54, "duration": 242, "velocity": 100}, {"time": 8883, "pitch": 47, "duration": 241, "velocity": 100}, {"time": 8883, "pitch": 54, "duration": 241, "velocity": 100}, {"time": 9124, "pitch": 47, "duration": 236, "velocity": 100}, {"time": 9124, "pitch": 54, "duration": 236, "velocity": 100}, {"time": 9360, "pitch": 47, "duration": 236, "velocity": 100}, {"time": 9360, "pitch": 54, "duration": 236, "velocity": 100}, {"time": 9596, "pitch": 47, "duration": 241, "velocity": 100}, {"time": 9596, "pitch": 54, "duration": 241, "velocity": 100}, {"time": 9837, "pitch": 47, "duration": 242, "velocity": 100}, {"time": 9837, "pitch": 54, "duration": 242, "velocity": 100}, {"time": 10079, "pitch": 52, "duration": 482, "velocity": 100}, {"time": 10079, "pitch": 59, "duration": 482, "velocity": 100}, {"time": 10079, "pitch": 64, "duration": 482, "velocity": 100}, {"time": 10079, "pitch": 68, "duration": 482, "velocity": 100}, {"time": 10561, "pitch": 52, "duration": 482, "velocity": 100}, {"time": 10561, "pitch": 59, "duration": 482, "velocity": 100}, {"time": 10561, "pitch": 64, "duration": 482, "velocity": 100}, {"time": 10561, "pitch": 68, "duration": 482, "velocity": 100}, {"time": 11043, "pitch": 52, "duration": 119, "velocity": 71}, {"time": 11043, "pitch": 59, "duration": 119, "velocity": 71}, {"time": 11043, "pitch": 64, "duration": 119, "velocity": 71}, {"time": 11043, "pitch": 68, "duration": 119, "velocity": 71}, {"time": 11280, "pitch": 52, "duration": 356, "velocity": 100}, {"time": 11280, "pitch": 59, "duration": 356, "velocity": 100}, {"time": 11280, "pitch": 64, "duration": 356, "velocity": 100}, {"time": 11280, "pitch": 68, "duration": 356, "velocity": 100}, {"time": 11757, "pitch": 47, "duration": 483, "velocity": 100}, {"time": 11757, "pitch": 54, "duration": 483, "velocity": 100}, {"time": 11757, "pitch": 59, "duration": 483, "velocity": 100}, {"time": 11757, "pitch": 62, "duration": 483, "velocity": 100}, {"time": 11757, "pitch": 66, "duration": 483, "velocity": 100}, {"time": 12240, "pitch": 47, "duration": 241, "velocity": 73}, {"time": 12240, "pitch": 54, "duration": 241, "velocity": 73}, {"time": 12240, "pitch": 59, "duration": 241, "velocity": 73}, {"time": 12240, "pitch": 62, "duration": 241, "velocity": 73}, {"time": 12240, "pitch": 66, "duration": 241, "velocity": 73}, {"time": 12481, "pitch": 47, "duration": 718, "velocity": 100}, {"time": 12481, "pitch": 54, "duration": 718, "velocity": 100}, {"time": 12481, "pitch": 59, "duration": 718, "velocity": 100}, {"time": 12481, "pitch": 62, "duration": 718, "velocity": 100}, {"time": 12481, "pitch": 66, "duration": 718, "velocity": 100}, {"time": 13199, "pitch": 47, "duration": 237, "velocity": 75}, {"time": 13199, "pitch": 54, "duration": 237, "velocity": 75}, {"time": 13199, "pitch": 59, "duration": 237, "velocity": 75}, {"time": 13199, "pitch": 62, "duration": 237, "velocity": 75}, {"time": 13199, "pitch": 66, "duration": 237, "velocity": 75}, {"time": 13436, "pitch": 47, "duration": 241, "velocity": 100}, {"time": 13436, "pitch": 54, "duration": 241, "velocity": 100}, {"time": 13436, "pitch": 59, "duration": 241, "velocity": 100}, {"time": 13436, "pitch": 62, "duration": 241, "velocity": 100}, {"time": 13436, "pitch": 66, "duration": 241, "velocity": 100}, {"time": 13677, "pitch": 52, "duration": 120, "velocity": 69}, {"time": 13677, "pitch": 59, "duration": 120, "velocity": 69}, {"time": 13677, "pitch": 64, "duration": 120, "velocity": 69}, {"time": 13918, "pitch": 52, "duration": 483, "velocity": 100}, {"time": 13918, "pitch": 59, "duration": 483, "velocity": 100}, {"time": 13918, "pitch": 64, "duration": 483, "velocity": 100}, {"time": 13918, "pitch": 68, "duration": 483, "velocity": 100}, {"time": 14401, "pitch": 52, "duration": 482, "velocity": 100}, {"time": 14401, "pitch": 59, "duration": 482, "velocity": 100}, {"time": 14401, "pitch": 64, "duration": 482, "velocity": 100}, {"time": 14401, "pitch": 68, "duration": 482, "velocity": 100}, {"time": 14883, "pitch": 52, "duration": 118, "velocity": 71}, {"time": 14883, "pitch": 59, "duration": 118, "velocity": 71}, {"time": 14883, "pitch": 64, "duration": 118, "velocity": 71}, {"time": 14883, "pitch": 68, "duration": 118, "velocity": 71}, {"time": 15119, "pitch": 52, "duration": 357, "velocity": 100}, {"time": 15119, "pitch": 59, "duration": 357, "velocity": 100}, {"time": 15119, "pitch": 64, "duration": 357, "velocity": 100}, {"time": 15119, "pitch": 68, "duration": 357, "velocity": 100}, {"time": 15597, "pitch": 47, "duration": 482, "velocity": 100}, {"time": 15597, "pitch": 54, "duration": 482, "velocity": 100}, {"time": 15597, "pitch": 59, "duration": 482, "velocity": 100}, {"time": 15597, "pitch": 62, "duration": 482, "velocity": 100}, {"time": 15597, "pitch": 66, "duration": 482, "velocity": 100}, {"time": 16079, "pitch": 47, "duration": 241, "velocity": 73}, {"time": 16079, "pitch": 54, "duration": 241, "velocity": 73}, {"time": 16079, "pitch": 59, "duration": 241, "velocity": 73}, {"time": 16079, "pitch": 62, "duration": 241, "velocity": 73}, {"time": 16079, "pitch": 66, "duration": 241, "velocity": 73}, {"time": 16320, "pitch": 47, "duration": 719, "velocity": 100}, {"time": 16320, "pitch": 54, "duration": 719, "velocity": 100}, {"time": 16320, "pitch": 59, "duration": 719, "velocity": 100}, {"time": 16320, "pitch": 62, "duration": 719, "velocity": 100}, {"time": 16320, "pitch": 66, "duration": 719, "velocity": 100}, {"time": 17039, "pitch": 47, "duration": 236, "velocity": 75}, {"time": 17039, "pitch": 54, "duration": 236, "velocity": 75}, {"time": 17039, "pitch": 59, "duration": 236, "velocity": 75}, {"time": 17039, "pitch": 62, "duration": 236, "velocity": 75}, {"time": 17039, "pitch": 66, "duration": 236, "velocity": 75}, {"time": 17275, "pitch": 47, "duration": 241, "velocity": 100}, {"time": 17275, "pitch": 54, "duration": 241, "velocity": 100}, {"time": 17275, "pitch": 59, "duration": 241, "velocity": 100}, {"time": 17275, "pitch": 62, "duration": 241, "velocity": 100}, {"time": 17275, "pitch": 66, "duration": 241, "velocity": 100}, {"time": 17516, "pitch": 52, "duration": 121, "velocity": 69}, {"time": 17516, "pitch": 59, "duration": 121, "velocity": 69}, {"time": 17516, "pitch": 64, "duration": 121, "velocity": 69}, {"time": 17758, "pitch": 52, "duration": 482, "velocity": 100}, {"time": 17758, "pitch": 59, "duration": 482, "velocity": 100}, {"time": 17758, "pitch": 64, "duration": 482, "velocity": 100}, {"time": 17758, "pitch": 68, "duration": 482, "velocity": 100}, {"time": 18240, "pitch": 52, "duration": 483, "velocity": 100}, {"time": 18240, "pitch": 59, "duration": 483, "velocity": 100}, {"time": 18240, "pitch": 64, "duration": 483, "velocity": 100}, {"time": 18240, "pitch": 68, "duration": 483, "velocity": 100}, {"time": 18723, "pitch": 52, "duration": 120, "velocity": 71}, {"time": 18723, "pitch": 59, "duration": 120, "velocity": 71}, {"time": 18723, "pitch": 64, "duration": 120, "velocity": 71}, {"time": 18723, "pitch": 68, "duration": 120, "velocity": 71}, {"time": 18964, "pitch": 52, "duration": 359, "velocity": 100}, {"time": 18964, "pitch": 59, "duration": 359, "velocity": 100}, {"time": 18964, "pitch": 64, "duration": 359, "velocity": 100}, {"time": 18964, "pitch": 68, "duration": 359, "velocity": 100}, {"time": 19441, "pitch": 47, "duration": 478, "velocity": 100}, {"time": 19441, "pitch": 54, "duration": 478, "velocity": 100}, {"time": 19441, "pitch": 59, "duration": 478, "velocity": 100}, {"time": 19441, "pitch": 62, "duration": 478, "velocity": 100}, {"time": 19441, "pitch": 66, "duration": 478, "velocity": 100}, {"time": 19919, "pitch": 47, "duration": 241, "velocity": 73}, {"time": 19919, "pitch": 54, "duration": 241, "velocity": 73}, {"time": 19919, "pitch": 59, "duration": 241, "velocity": 73}, {"time": 19919, "pitch": 62, "duration": 241, "velocity": 73}, {"time": 19919, "pitch": 66, "duration": 241, "velocity": 73}, {"time": 20160, "pitch": 47, "duration": 724, "velocity": 100}, {"time": 20160, "pitch": 54, "duration": 724, "velocity": 100}, {"time": 20160, "pitch": 59, "duration": 724, "velocity": 100}, {"time": 20160, "pitch": 62, "duration": 724, "velocity": 100}, {"time": 20160, "pitch": 66, "duration": 724, "velocity": 100}, {"time": 20884, "pitch": 47, "duration": 241, "velocity": 75}, {"time": 20884, "pitch": 54, "duration": 241, "velocity": 75}, {"time": 20884, "pitch": 59, "duration": 241, "velocity": 75}, {"time": 20884, "pitch": 62, "duration": 241, "velocity": 75}, {"time": 20884, "pitch": 66, "duration": 241, "velocity": 75}, {"time": 21125, "pitch": 47, "duration": 236, "velocity": 100}, {"time": 21125, "pitch": 54, "duration": 236, "velocity": 100}, {"time": 21125, "pitch": 59, "duration": 236, "velocity": 100}, {"time": 21125, "pitch": 62, "duration": 236, "velocity": 100}, {"time": 21125, "pitch": 66, "duration": 236, "velocity": 100}, {"time": 21361, "pitch": 52, "duration": 118, "velocity": 69}, {"time": 21361, "pitch": 59, "duration": 118, "velocity": 69}, {"time": 21361, "pitch": 64, "duration": 118, "velocity": 69}, {"time": 21597, "pitch": 52, "duration": 483, "velocity": 100}, {"time": 21597, "pitch": 59, "duration": 483, "velocity": 100}, {"time": 21597, "pitch": 64, "duration": 483, "velocity": 100}, {"time": 21597, "pitch": 68, "duration": 483, "velocity": 100}, {"time": 22080, "pitch": 52, "duration": 482, "velocity": 100}, {"time": 22080, "pitch": 59, "duration": 482, "velocity": 100}, {"time": 22080, "pitch": 64, "duration": 482, "velocity": 100}, {"time": 22080, "pitch": 68, "duration": 482, "velocity": 100}, {"time": 22562, "pitch": 52, "duration": 121, "velocity": 71}, {"time": 22562, "pitch": 59, "duration": 121, "velocity": 71}, {"time": 22562, "pitch": 64, "duration": 121, "velocity": 71}, {"time": 22562, "pitch": 68, "duration": 121, "velocity": 71}, {"time": 22803, "pitch": 52, "duration": 360, "velocity": 100}, {"time": 22803, "pitch": 59, "duration": 360, "velocity": 100}, {"time": 22803, "pitch": 64, "duration": 360, "velocity": 100}, {"time": 22803, "pitch": 68, "duration": 360, "velocity": 100}, {"time": 23281, "pitch": 47, "duration": 477, "velocity": 100}, {"time": 23281, "pitch": 54, "duration": 477, "velocity": 100}, {"time": 23281, "pitch": 59, "duration": 477, "velocity": 100}, {"time": 23281, "pitch": 62, "duration": 477, "velocity": 100}, {"time": 23281, "pitch": 66, "duration": 477, "velocity": 100}, {"time": 23758, "pitch": 47, "duration": 241, "velocity": 73}, {"time": 23758, "pitch": 54, "duration": 241, "velocity": 73}, {"time": 23758, "pitch": 59, "duration": 241, "velocity": 73}, {"time": 23758, "pitch": 62, "duration": 241, "velocity": 73}, {"time": 23758, "pitch": 66, "duration": 241, "velocity": 73}, {"time": 23999, "pitch": 47, "duration": 724, "velocity": 100}, {"time": 23999, "pitch": 54, "duration": 724, "velocity": 100}, {"time": 23999, "pitch": 59, "duration": 724, "velocity": 100}, {"time": 23999, "pitch": 62, "duration": 724, "velocity": 100}, {"time": 23999, "pitch": 66, "duration": 724, "velocity": 100}, {"time": 24723, "pitch": 47, "duration": 241, "velocity": 75}, {"time": 24723, "pitch": 54, "duration": 241, "velocity": 75}, {"time": 24723, "pitch": 59, "duration": 241, "velocity": 75}, {"time": 24723, "pitch": 62, "duration": 241, "velocity": 75}, {"time": 24723, "pitch": 66, "duration": 241, "velocity": 75}, {"time": 24964, "pitch": 47, "duration": 236, "velocity": 100}, {"time": 24964, "pitch": 54, "duration": 236, "velocity": 100}, {"time": 24964, "pitch": 59, "duration": 236, "velocity": 100}, {"time": 24964, "pitch": 62, "duration": 236, "velocity": 100}, {"time": 24964, "pitch": 66, "duration": 236, "velocity": 100}, {"time": 25200, "pitch": 52, "duration": 119, "velocity": 69}, {"time": 25200, "pitch": 59, "duration": 119, "velocity": 69}, {"time": 25200, "pitch": 64, "duration": 119, "velocity": 69}, {"time": 25437, "pitch": 45, "duration": 482, "velocity": 100}, {"time": 25437, "pitch": 52, "duration": 482, "velocity": 100}, {"time": 25437, "pitch": 57, "duration": 482, "velocity": 100}, {"time": 25437, "pitch": 61, "duration": 482, "velocity": 100}, {"time": 25437, "pitch": 64, "duration": 482, "velocity": 100}, {"time": 25437, "pitch": 69, "duration": 482, "velocity": 100}, {"time": 25919, "pitch": 45, "duration": 483, "velocity": 101}, {"time": 25919, "pitch": 52, "duration": 483, "velocity": 101}, {"time": 25919, "pitch": 57, "duration": 483, "velocity": 101}, {"time": 25919, "pitch": 61, "duration": 483, "velocity": 101}, {"time": 25919, "pitch": 64, "duration": 483, "velocity": 101}, {"time": 25919, "pitch": 69, "duration": 483, "velocity": 101}, {"time": 26402, "pitch": 45, "duration": 120, "velocity": 72}, {"time": 26402, "pitch": 52, "duration": 120, "velocity": 72}, {"time": 26402, "pitch": 57, "duration": 120, "velocity": 72}, {"time": 26402, "pitch": 61, "duration": 120, "velocity": 72}, {"time": 26402, "pitch": 64, "duration": 120, "velocity": 72}, {"time": 26402, "pitch": 69, "duration": 120, "velocity": 72}, {"time": 26643, "pitch": 45, "duration": 359, "velocity": 101}, {"time": 26643, "pitch": 52, "duration": 359, "velocity": 101}, {"time": 26643, "pitch": 57, "duration": 359, "velocity": 101}, {"time": 26643, "pitch": 61, "duration": 359, "velocity": 101}, {"time": 26643, "pitch": 64, "duration": 359, "velocity": 101}, {"time": 26643, "pitch": 69, "duration": 359, "velocity": 101}, {"time": 27120, "pitch": 44, "duration": 478, "velocity": 101}, {"time": 27120, "pitch": 59, "duration": 478, "velocity": 101}, {"time": 27120, "pitch": 64, "duration": 478, "velocity": 101}, {"time": 27120, "pitch": 68, "duration": 478, "velocity": 101}, {"time": 27598, "pitch": 44, "duration": 241, "velocity": 85}, {"time": 27598, "pitch": 59, "duration": 241, "velocity": 85}, {"time": 27598, "pitch": 64, "duration": 241, "velocity": 85}, {"time": 27598, "pitch": 68, "duration": 241, "velocity": 85}, {"time": 27839, "pitch": 44, "duration": 241, "velocity": 85}, {"time": 27839, "pitch": 59, "duration": 241, "velocity": 85}, {"time": 27839, "pitch": 64, "duration": 241, "velocity": 85}, {"time": 27839, "pitch": 68, "duration": 241, "velocity": 85}, {"time": 28080, "pitch": 44, "duration": 483, "velocity": 101}, {"time": 28080, "pitch": 59, "duration": 483, "velocity": 101}, {"time": 28080, "pitch": 64, "duration": 483, "velocity": 101}, {"time": 28080, "pitch": 68, "duration": 483, "velocity": 101}, {"time": 28563, "pitch": 44, "duration": 241, "velocity": 84}, {"time": 28563, "pitch": 59, "duration": 241, "velocity": 84}, {"time": 28563, "pitch": 64, "duration": 241, "velocity": 84}, {"time": 28563, "pitch": 68, "duration": 241, "velocity": 84}, {"time": 28804, "pitch": 44, "duration": 472, "velocity": 101}, {"time": 28804, "pitch": 59, "duration": 472, "velocity": 101}, {"time": 28804, "pitch": 64, "duration": 472, "velocity": 101}, {"time": 28804, "pitch": 68, "duration": 472, "velocity": 101}, {"time": 29276, "pitch": 54, "duration": 483, "velocity": 101}, {"time": 29276, "pitch": 57, "duration": 483, "velocity": 101}, {"time": 29276, "pitch": 61, "duration": 483, "velocity": 101}, {"time": 29276, "pitch": 66, "duration": 483, "velocity": 101}, {"time": 29759, "pitch": 54, "duration": 241, "velocity": 79}, {"time": 29759, "pitch": 57, "duration": 241, "velocity": 79}, {"time": 29759, "pitch": 61, "duration": 241, "velocity": 79}, {"time": 29759, "pitch": 66, "duration": 241, "velocity": 79}, {"time": 30000, "pitch": 54, "duration": 482, "velocity": 101}, {"time": 30000, "pitch": 59, "duration": 482, "velocity": 101}, {"time": 30000, "pitch": 63, "duration": 482, "velocity": 101}, {"time": 30000, "pitch": 66, "duration": 482, "velocity": 101}, {"time": 30482, "pitch": 54, "duration": 241, "velocity": 101}, {"time": 30482, "pitch": 59, "duration": 241, "velocity": 101}, {"time": 30482, "pitch": 63, "duration": 241, "velocity": 101}, {"time": 30482, "pitch": 66, "duration": 241, "velocity": 101}, {"time": 30723, "pitch": 54, "duration": 237, "velocity": 79}, {"time": 30723, "pitch": 59, "duration": 237, "velocity": 79}, {"time": 30723, "pitch": 63, "duration": 237, "velocity": 79}, {"time": 30723, "pitch": 66, "duration": 237, "velocity": 79}, {"time": 30960, "pitch": 40, "duration": 477, "velocity": 101}, {"time": 30960, "pitch": 52, "duration": 477, "velocity": 101}, {"time": 30960, "pitch": 59, "duration": 477, "velocity": 101}, {"time": 30960, "pitch": 64, "duration": 477, "velocity": 101}, {"time": 30960, "pitch": 68, "duration": 477, "velocity": 101}, {"time": 31437, "pitch": 40, "duration": 241, "velocity": 101}, {"time": 31437, "pitch": 52, "duration": 241, "velocity": 101}, {"time": 31437, "pitch": 59, "duration": 241, "velocity": 101}, {"time": 31437, "pitch": 64, "duration": 241, "velocity": 101}, {"time": 31437, "pitch": 68, "duration": 241, "velocity": 101}, {"time": 31678, "pitch": 40, "duration": 242, "velocity": 90}, {"time": 31678, "pitch": 52, "duration": 242, "velocity": 90}, {"time": 31678, "pitch": 59, "duration": 242, "velocity": 90}, {"time": 31678, "pitch": 64, "duration": 242, "velocity": 90}, {"time": 31678, "pitch": 68, "duration": 242, "velocity": 90}, {"time": 31920, "pitch": 40, "duration": 482, "velocity": 101}, {"time": 31920, "pitch": 52, "duration": 482, "velocity": 101}, {"time": 31920, "pitch": 59, "duration": 482, "velocity": 101}, {"time": 31920, "pitch": 62, "duration": 482, "velocity": 101}, {"time": 31920, "pitch": 68, "duration": 482, "velocity": 101}, {"time": 32402, "pitch": 40, "duration": 241, "velocity": 89}, {"time": 32402, "pitch": 52, "duration": 241, "velocity": 89}, {"time": 32402, "pitch": 59, "duration": 241, "velocity": 89}, {"time": 32402, "pitch": 62, "duration": 241, "velocity": 89}, {"time": 32402, "pitch": 68, "duration": 241, "velocity": 89}, {"time": 32643, "pitch": 40, "duration": 473, "velocity": 101}, {"time": 32643, "pitch": 52, "duration": 473, "velocity": 101}, {"time": 32643, "pitch": 59, "duration": 473, "velocity": 101}, {"time": 32643, "pitch": 62, "duration": 473, "velocity": 101}, {"time": 32643, "pitch": 68, "duration": 473, "velocity": 101}, {"time": 33116, "pitch": 45, "duration": 482, "velocity": 100}, {"time": 33116, "pitch": 52, "duration": 482, "velocity": 100}, {"time": 33116, "pitch": 57, "duration": 482, "velocity": 100}, {"time": 33116, "pitch": 61, "duration": 482, "velocity": 100}, {"time": 33116, "pitch": 64, "duration": 482, "velocity": 100}, {"time": 33116, "pitch": 69, "duration": 482, "velocity": 100}, {"time": 33598, "pitch": 45, "duration": 483, "velocity": 101}, {"time": 33598, "pitch": 52, "duration": 483, "velocity": 101}, {"time": 33598, "pitch": 57, "duration": 483, "velocity": 101}, {"time": 33598, "pitch": 61, "duration": 483, "velocity": 101}, {"time": 33598, "pitch": 64, "duration": 483, "velocity": 101}, {"time": 33598, "pitch": 69, "duration": 483, "velocity": 101}, {"time": 34081, "pitch": 45, "duration": 120, "velocity": 72}, {"time": 34081, "pitch": 52, "duration": 120, "velocity": 72}, {"time": 34081, "pitch": 57, "duration": 120, "velocity": 72}, {"time": 34081, "pitch": 61, "duration": 120, "velocity": 72}, {"time": 34081, "pitch": 64, "duration": 120, "velocity": 72}, {"time": 34081, "pitch": 69, "duration": 120, "velocity": 72}, {"time": 34322, "pitch": 45, "duration": 359, "velocity": 101}, {"time": 34322, "pitch": 52, "duration": 359, "velocity": 101}, {"time": 34322, "pitch": 57, "duration": 359, "velocity": 101}, {"time": 34322, "pitch": 61, "duration": 359, "velocity": 101}, {"time": 34322, "pitch": 64, "duration": 359, "velocity": 101}, {"time": 34322, "pitch": 69, "duration": 359, "velocity": 101}, {"time": 34799, "pitch": 44, "duration": 478, "velocity": 101}, {"time": 34799, "pitch": 59, "duration": 478, "velocity": 101}, {"time": 34799, "pitch": 64, "duration": 478, "velocity": 101}, {"time": 34799, "pitch": 68, "duration": 478, "velocity": 101}, {"time": 35277, "pitch": 44, "duration": 241, "velocity": 85}, {"time": 35277, "pitch": 59, "duration": 241, "velocity": 85}, {"time": 35277, "pitch": 64, "duration": 241, "velocity": 85}, {"time": 35277, "pitch": 68, "duration": 241, "velocity": 85}, {"time": 35518, "pitch": 44, "duration": 241, "velocity": 85}, {"time": 35518, "pitch": 59, "duration": 241, "velocity": 85}, {"time": 35518, "pitch": 64, "duration": 241, "velocity": 85}, {"time": 35518, "pitch": 68, "duration": 241, "velocity": 85}, {"time": 35759, "pitch": 44, "duration": 483, "velocity": 101}, {"time": 35759, "pitch": 59, "duration": 483, "velocity": 101}, {"time": 35759, "pitch": 65, "duration": 483, "velocity": 101}, {"time": 35759, "pitch": 68, "duration": 483, "velocity": 101}, {"time": 36242, "pitch": 44, "duration": 241, "velocity": 84}, {"time": 36242, "pitch": 59, "duration": 241, "velocity": 84}, {"time": 36242, "pitch": 65, "duration": 241, "velocity": 84}, {"time": 36242, "pitch": 68, "duration": 241, "velocity": 84}, {"time": 36483, "pitch": 44, "duration": 354, "velocity": 101}, {"time": 36483, "pitch": 59, "duration": 354, "velocity": 101}, {"time": 36483, "pitch": 65, "duration": 354, "velocity": 101}, {"time": 36483, "pitch": 68, "duration": 354, "velocity": 101}, {"time": 36955, "pitch": 54, "duration": 483, "velocity": 101}, {"time": 36955, "pitch": 61, "duration": 483, "velocity": 101}, {"time": 36955, "pitch": 66, "duration": 483, "velocity": 101}, {"time": 36955, "pitch": 69, "duration": 483, "velocity": 101}, {"time": 37438, "pitch": 54, "duration": 482, "velocity": 101}, {"time": 37438, "pitch": 61, "duration": 482, "velocity": 101}, {"time": 37438, "pitch": 66, "duration": 482, "velocity": 101}, {"time": 37438, "pitch": 69, "duration": 482, "velocity": 101}, {"time": 37920, "pitch": 54, "duration": 241, "velocity": 84}, {"time": 37920, "pitch": 61, "duration": 241, "velocity": 84}, {"time": 37920, "pitch": 66, "duration": 241, "velocity": 84}, {"time": 37920, "pitch": 69, "duration": 241, "velocity": 84}, {"time": 38161, "pitch": 54, "duration": 362, "velocity": 101}, {"time": 38161, "pitch": 61, "duration": 362, "velocity": 101}, {"time": 38161, "pitch": 66, "duration": 362, "velocity": 101}, {"time": 38161, "pitch": 69, "duration": 362, "velocity": 101}, {"time": 38644, "pitch": 54, "duration": 477, "velocity": 101}, {"time": 38644, "pitch": 61, "duration": 477, "velocity": 101}, {"time": 38644, "pitch": 66, "duration": 477, "velocity": 101}, {"time": 38644, "pitch": 70, "duration": 477, "velocity": 101}, {"time": 39121, "pitch": 54, "duration": 236, "velocity": 80}, {"time": 39121, "pitch": 61, "duration": 236, "velocity": 80}, {"time": 39121, "pitch": 66, "duration": 236, "velocity": 80}, {"time": 39121, "pitch": 70, "duration": 236, "velocity": 80}, {"time": 39357, "pitch": 54, "duration": 483, "velocity": 101}, {"time": 39357, "pitch": 61, "duration": 483, "velocity": 101}, {"time": 39357, "pitch": 66, "duration": 483, "velocity": 101}, {"time": 39357, "pitch": 70, "duration": 483, "velocity": 101}, {"time": 39840, "pitch": 54, "duration": 241, "velocity": 72}, {"time": 39840, "pitch": 61, "duration": 241, "velocity": 72}, {"time": 39840, "pitch": 66, "duration": 241, "velocity": 72}, {"time": 39840, "pitch": 70, "duration": 241, "velocity": 72}, {"time": 40081, "pitch": 54, "duration": 241, "velocity": 101}, {"time": 40081, "pitch": 61, "duration": 241, "velocity": 101}, {"time": 40081, "pitch": 66, "duration": 241, "velocity": 101}, {"time": 40081, "pitch": 70, "duration": 241, "velocity": 101}, {"time": 40322, "pitch": 54, "duration": 483, "velocity": 101}, {"time": 40322, "pitch": 61, "duration": 483, "velocity": 101}, {"time": 40322, "pitch": 66, "duration": 483, "velocity": 101}, {"time": 40322, "pitch": 70, "duration": 483, "velocity": 101}, {"time": 40805, "pitch": 47, "duration": 472, "velocity": 100}, {"time": 40805, "pitch": 54, "duration": 472, "velocity": 100}, {"time": 40805, "pitch": 59, "duration": 472, "velocity": 100}, {"time": 40805, "pitch": 63, "duration": 472, "velocity": 100}, {"time": 40805, "pitch": 66, "duration": 472, "velocity": 100}, {"time": 41277, "pitch": 47, "duration": 483, "velocity": 100}, {"time": 41277, "pitch": 54, "duration": 483, "velocity": 100}, {"time": 41277, "pitch": 59, "duration": 483, "velocity": 100}, {"time": 41277, "pitch": 63, "duration": 483, "velocity": 100}, {"time": 41277, "pitch": 66, "duration": 483, "velocity": 100}, {"time": 41760, "pitch": 47, "duration": 241, "velocity": 84}, {"time": 41760, "pitch": 54, "duration": 241, "velocity": 84}, {"time": 41760, "pitch": 59, "duration": 241, "velocity": 84}, {"time": 41760, "pitch": 63, "duration": 241, "velocity": 84}, {"time": 41760, "pitch": 66, "duration": 241, "velocity": 84}, {"time": 42001, "pitch": 47, "duration": 482, "velocity": 100}, {"time": 42001, "pitch": 54, "duration": 482, "velocity": 100}, {"time": 42001, "pitch": 59, "duration": 482, "velocity": 100}, {"time": 42001, "pitch": 63, "duration": 482, "velocity": 100}, {"time": 42001, "pitch": 66, "duration": 482, "velocity": 100}, {"time": 42483, "pitch": 47, "duration": 478, "velocity": 100}, {"time": 42483, "pitch": 54, "duration": 478, "velocity": 100}, {"time": 42483, "pitch": 59, "duration": 478, "velocity": 100}, {"time": 42483, "pitch": 63, "duration": 478, "velocity": 100}, {"time": 42483, "pitch": 66, "duration": 478, "velocity": 100}, {"time": 42961, "pitch": 47, "duration": 236, "velocity": 100}, {"time": 42961, "pitch": 54, "duration": 236, "velocity": 100}, {"time": 42961, "pitch": 59, "duration": 236, "velocity": 100}, {"time": 42961, "pitch": 63, "duration": 236, "velocity": 100}, {"time": 42961, "pitch": 66, "duration": 236, "velocity": 100}, {"time": 43197, "pitch": 47, "duration": 241, "velocity": 100}, {"time": 43197, "pitch": 54, "duration": 241, "velocity": 100}, {"time": 43197, "pitch": 59, "duration": 241, "velocity": 100}, {"time": 43197, "pitch": 63, "duration": 241, "velocity": 100}, {"time": 43197, "pitch": 66, "duration": 241, "velocity": 100}, {"time": 43438, "pitch": 47, "duration": 241, "velocity": 100}, {"time": 43438, "pitch": 54, "duration": 241, "velocity": 100}, {"time": 43438, "pitch": 59, "duration": 241, "velocity": 100}, {"time": 43438, "pitch": 63, "duration": 241, "velocity": 100}, {"time": 43438, "pitch": 66, "duration": 241, "velocity": 100}, {"time": 43679, "pitch": 47, "duration": 242, "velocity": 100}, {"time": 43679, "pitch": 54, "duration": 242, "velocity": 100}, {"time": 43679, "pitch": 59, "duration": 242, "velocity": 100}, {"time": 43679, "pitch": 63, "duration": 242, "velocity": 100}, {"time": 43679, "pitch": 66, "duration": 242, "velocity": 100}, {"time": 43921, "pitch": 47, "duration": 241, "velocity": 100}, {"time": 43921, "pitch": 54, "duration": 241, "velocity": 100}, {"time": 43921, "pitch": 59, "duration": 241, "velocity": 100}, {"time": 43921, "pitch": 63, "duration": 241, "velocity": 100}, {"time": 43921, "pitch": 66, "duration": 241, "velocity": 100}, {"time": 44162, "pitch": 47, "duration": 241, "velocity": 100}, {"time": 44162, "pitch": 54, "duration": 241, "velocity": 100}, {"time": 44162, "pitch": 59, "duration": 241, "velocity": 100}, {"time": 44162, "pitch": 63, "duration": 241, "velocity": 100}, {"time": 44162, "pitch": 66, "duration": 241, "velocity": 100}, {"time": 44403, "pitch": 47, "duration": 241, "velocity": 100}, {"time": 44403, "pitch": 54, "duration": 241, "velocity": 100}, {"time": 44403, "pitch": 59, "duration": 241, "velocity": 100}, {"time": 44403, "pitch": 63, "duration": 241, "velocity": 100}, {"time": 44403, "pitch": 66, "duration": 241, "velocity": 100}, {"time": 44644, "pitch": 52, "duration": 473, "velocity": 100}, {"time": 44644, "pitch": 59, "duration": 473, "velocity": 100}, {"time": 44644, "pitch": 64, "duration": 473, "velocity": 100}, {"time": 44644, "pitch": 68, "duration": 473, "velocity": 100}, {"time": 45117, "pitch": 52, "duration": 482, "velocity": 100}, {"time": 45117, "pitch": 59, "duration": 482, "velocity": 100}, {"time": 45117, "pitch": 64, "duration": 482, "velocity": 100}, {"time": 45117, "pitch": 68, "duration": 482, "velocity": 100}, {"time": 45599, "pitch": 52, "duration": 241, "velocity": 86}, {"time": 45599, "pitch": 59, "duration": 241, "velocity": 86}, {"time": 45599, "pitch": 64, "duration": 241, "velocity": 86}, {"time": 45599, "pitch": 68, "duration": 241, "velocity": 86}, {"time": 45840, "pitch": 52, "duration": 483, "velocity": 100}, {"time": 45840, "pitch": 59, "duration": 483, "velocity": 100}, {"time": 45840, "pitch": 64, "duration": 483, "velocity": 100}, {"time": 45840, "pitch": 68, "duration": 483, "velocity": 100}, {"time": 46323, "pitch": 47, "duration": 477, "velocity": 100}, {"time": 46323, "pitch": 54, "duration": 477, "velocity": 100}, {"time": 46323, "pitch": 59, "duration": 477, "velocity": 100}, {"time": 46323, "pitch": 63, "duration": 477, "velocity": 100}, {"time": 46323, "pitch": 66, "duration": 477, "velocity": 100}, {"time": 46800, "pitch": 47, "duration": 236, "velocity": 86}, {"time": 46800, "pitch": 54, "duration": 236, "velocity": 86}, {"time": 46800, "pitch": 59, "duration": 236, "velocity": 86}, {"time": 46800, "pitch": 63, "duration": 236, "velocity": 86}, {"time": 46800, "pitch": 66, "duration": 236, "velocity": 86}, {"time": 47036, "pitch": 47, "duration": 483, "velocity": 100}, {"time": 47036, "pitch": 54, "duration": 483, "velocity": 100}, {"time": 47036, "pitch": 59, "duration": 483, "velocity": 100}, {"time": 47036, "pitch": 63, "duration": 483, "velocity": 100}, {"time": 47036, "pitch": 66, "duration": 483, "velocity": 100}, {"time": 47519, "pitch": 47, "duration": 241, "velocity": 76}, {"time": 47519, "pitch": 54, "duration": 241, "velocity": 76}, {"time": 47519, "pitch": 59, "duration": 241, "velocity": 76}, {"time": 47519, "pitch": 63, "duration": 241, "velocity": 76}, {"time": 47519, "pitch": 66, "duration": 241, "velocity": 76}, {"time": 47760, "pitch": 47, "duration": 241, "velocity": 89}, {"time": 47760, "pitch": 54, "duration": 241, "velocity": 89}, {"time": 47760, "pitch": 59, "duration": 241, "velocity": 89}, {"time": 47760, "pitch": 63, "duration": 241, "velocity": 89}, {"time": 47760, "pitch": 66, "duration": 241, "velocity": 89}, {"time": 48001, "pitch": 47, "duration": 483, "velocity": 100}, {"time": 48001, "pitch": 54, "duration": 483, "velocity": 100}, {"time": 48001, "pitch": 59, "duration": 483, "velocity": 100}, {"time": 48001, "pitch": 63, "duration": 483, "velocity": 100}, {"time": 48001, "pitch": 66, "duration": 483, "velocity": 100}, {"time": 48484, "pitch": 49, "duration": 472, "velocity": 100}, {"time": 48484, "pitch": 56, "duration": 472, "velocity": 100}, {"time": 48484, "pitch": 61, "duration": 472, "velocity": 100}, {"time": 48484, "pitch": 64, "duration": 472, "velocity": 100}, {"time": 48484, "pitch": 68, "duration": 472, "velocity": 100}, {"time": 48956, "pitch": 49, "duration": 483, "velocity": 100}, {"time": 48956, "pitch": 56, "duration": 483, "velocity": 100}, {"time": 48956, "pitch": 61, "duration": 483, "velocity": 100}, {"time": 48956, "pitch": 64, "duration": 483, "velocity": 100}, {"time": 48956, "pitch": 68, "duration": 483, "velocity": 100}, {"time": 49439, "pitch": 49, "duration": 241, "velocity": 79}, {"time": 49439, "pitch": 56, "duration": 241, "velocity": 79}, {"time": 49439, "pitch": 61, "duration": 241, "velocity": 79}, {"time": 49439, "pitch": 64, "duration": 241, "velocity": 79}, {"time": 49439, "pitch": 68, "duration": 241, "velocity": 79}, {"time": 49680, "pitch": 49, "duration": 482, "velocity": 100}, {"time": 49680, "pitch": 56, "duration": 482, "velocity": 100}, {"time": 49680, "pitch": 61, "duration": 482, "velocity": 100}, {"time": 49680, "pitch": 64, "duration": 482, "velocity": 100}, {"time": 49680, "pitch": 68, "duration": 482, "velocity": 100}, {"time": 50162, "pitch": 42, "duration": 478, "velocity": 100}, {"time": 50162, "pitch": 49, "duration": 478, "velocity": 100}, {"time": 50162, "pitch": 52, "duration": 478, "velocity": 100}, {"time": 50162, "pitch": 58, "duration": 478, "velocity": 100}, {"time": 50162, "pitch": 61, "duration": 478, "velocity": 100}, {"time": 50162, "pitch": 66, "duration": 478, "velocity": 100}, {"time": 50640, "pitch": 42, "duration": 236, "velocity": 90}, {"time": 50640, "pitch": 49, "duration": 236, "velocity": 90}, {"time": 50640, "pitch": 52, "duration": 236, "velocity": 90}, {"time": 50640, "pitch": 58, "duration": 236, "velocity": 90}, {"time": 50640, "pitch": 61, "duration": 236, "velocity": 90}, {"time": 50640, "pitch": 66, "duration": 236, "velocity": 90}, {"time": 50876, "pitch": 42, "duration": 241, "velocity": 88}, {"time": 50876, "pitch": 49, "duration": 241, "velocity": 88}, {"time": 50876, "pitch": 52, "duration": 241, "velocity": 88}, {"time": 50876, "pitch": 58, "duration": 241, "velocity": 88}, {"time": 50876, "pitch": 61, "duration": 241, "velocity": 88}, {"time": 50876, "pitch": 66, "duration": 241, "velocity": 88}, {"time": 51117, "pitch": 42, "duration": 483, "velocity": 100}, {"time": 51117, "pitch": 49, "duration": 483, "velocity": 100}, {"time": 51117, "pitch": 52, "duration": 483, "velocity": 100}, {"time": 51117, "pitch": 58, "duration": 483, "velocity": 100}, {"time": 51117, "pitch": 61, "duration": 483, "velocity": 100}, {"time": 51117, "pitch": 66, "duration": 483, "velocity": 100}, {"time": 51600, "pitch": 42, "duration": 241, "velocity": 85}, {"time": 51600, "pitch": 49, "duration": 241, "velocity": 85}, {"time": 51600, "pitch": 52, "duration": 241, "velocity": 85}, {"time": 51600, "pitch": 58, "duration": 241, "velocity": 85}, {"time": 51600, "pitch": 61, "duration": 241, "velocity": 85}, {"time": 51600, "pitch": 66, "duration": 241, "velocity": 85}, {"time": 51841, "pitch": 42, "duration": 482, "velocity": 100}, {"time": 51841, "pitch": 49, "duration": 482, "velocity": 100}, {"time": 51841, "pitch": 52, "duration": 482, "velocity": 100}, {"time": 51841, "pitch": 58, "duration": 482, "velocity": 100}, {"time": 51841, "pitch": 61, "duration": 482, "velocity": 100}, {"time": 51841, "pitch": 66, "duration": 482, "velocity": 100}, {"time": 52323, "pitch": 42, "duration": 473, "velocity": 100}, {"time": 52323, "pitch": 49, "duration": 473, "velocity": 100}, {"time": 52323, "pitch": 54, "duration": 473, "velocity": 100}, {"time": 52323, "pitch": 57, "duration": 473, "velocity": 100}, {"time": 52323, "pitch": 61, "duration": 473, "velocity": 100}, {"time": 52323, "pitch": 66, "duration": 473, "velocity": 100}, {"time": 52796, "pitch": 42, "duration": 482, "velocity": 100}, {"time": 52796, "pitch": 49, "duration": 482, "velocity": 100}, {"time": 52796, "pitch": 54, "duration": 482, "velocity": 100}, {"time": 52796, "pitch": 57, "duration": 482, "velocity": 100}, {"time": 52796, "pitch": 61, "duration": 482, "velocity": 100}, {"time": 52796, "pitch": 66, "duration": 482, "velocity": 100}, {"time": 53278, "pitch": 42, "duration": 241, "velocity": 82}, {"time": 53278, "pitch": 49, "duration": 241, "velocity": 82}, {"time": 53278, "pitch": 54, "duration": 241, "velocity": 82}, {"time": 53278, "pitch": 57, "duration": 241, "velocity": 82}, {"time": 53278, "pitch": 61, "duration": 241, "velocity": 82}, {"time": 53278, "pitch": 66, "duration": 241, "velocity": 82}, {"time": 53519, "pitch": 42, "duration": 483, "velocity": 100}, {"time": 53519, "pitch": 49, "duration": 483, "velocity": 100}, {"time": 53519, "pitch": 54, "duration": 483, "velocity": 100}, {"time": 53519, "pitch": 57, "duration": 483, "velocity": 100}, {"time": 53519, "pitch": 61, "duration": 483, "velocity": 100}, {"time": 53519, "pitch": 66, "duration": 483, "velocity": 100}, {"time": 54002, "pitch": 44, "duration": 477, "velocity": 100}, {"time": 54002, "pitch": 51, "duration": 477, "velocity": 100}, {"time": 54002, "pitch": 56, "duration": 477, "velocity": 100}, {"time": 54002, "pitch": 59, "duration": 477, "velocity": 100}, {"time": 54002, "pitch": 63, "duration": 477, "velocity": 100}, {"time": 54002, "pitch": 68, "duration": 477, "velocity": 100}, {"time": 54479, "pitch": 44, "duration": 236, "velocity": 83}, {"time": 54479, "pitch": 51, "duration": 236, "velocity": 83}, {"time": 54479, "pitch": 56, "duration": 236, "velocity": 83}, {"time": 54479, "pitch": 59, "duration": 236, "velocity": 83}, {"time": 54479, "pitch": 63, "duration": 236, "velocity": 83}, {"time": 54479, "pitch": 68, "duration": 236, "velocity": 83}, {"time": 54715, "pitch": 44, "duration": 242, "velocity": 82}, {"time": 54715, "pitch": 51, "duration": 242, "velocity": 82}, {"time": 54715, "pitch": 56, "duration": 242, "velocity": 82}, {"time": 54715, "pitch": 59, "duration": 242, "velocity": 82}, {"time": 54715, "pitch": 63, "duration": 242, "velocity": 82}, {"time": 54715, "pitch": 68, "duration": 242, "velocity": 82}, {"time": 54957, "pitch": 44, "duration": 482, "velocity": 92}, {"time": 54957, "pitch": 51, "duration": 482, "velocity": 92}, {"time": 54957, "pitch": 56, "duration": 482, "velocity": 92}, {"time": 54957, "pitch": 59, "duration": 482, "velocity": 92}, {"time": 54957, "pitch": 63, "duration": 482, "velocity": 92}, {"time": 54957, "pitch": 68, "duration": 482, "velocity": 92}, {"time": 55439, "pitch": 44, "duration": 241, "velocity": 84}, {"time": 55439, "pitch": 51, "duration": 241, "velocity": 84}, {"time": 55439, "pitch": 56, "duration": 241, "velocity": 84}, {"time": 55439, "pitch": 59, "duration": 241, "velocity": 84}, {"time": 55439, "pitch": 63, "duration": 241, "velocity": 84}, {"time": 55439, "pitch": 68, "duration": 241, "velocity": 84}, {"time": 55680, "pitch": 44, "duration": 483, "velocity": 100}, {"time": 55680, "pitch": 51, "duration": 483, "velocity": 100}, {"time": 55680, "pitch": 56, "duration": 483, "velocity": 100}, {"time": 55680, "pitch": 59, "duration": 483, "velocity": 100}, {"time": 55680, "pitch": 63, "duration": 483, "velocity": 100}, {"time": 55680, "pitch": 68, "duration": 483, "velocity": 100}, {"time": 56163, "pitch": 47, "duration": 472, "velocity": 100}, {"time": 56163, "pitch": 54, "duration": 472, "velocity": 100}, {"time": 56163, "pitch": 59, "duration": 472, "velocity": 100}, {"time": 56163, "pitch": 64, "duration": 472, "velocity": 100}, {"time": 56163, "pitch": 71, "duration": 472, "velocity": 100}, {"time": 56635, "pitch": 47, "duration": 483, "velocity": 100}, {"time": 56635, "pitch": 54, "duration": 483, "velocity": 100}, {"time": 56635, "pitch": 59, "duration": 483, "velocity": 100}, {"time": 56635, "pitch": 64, "duration": 483, "velocity": 100}, {"time": 56635, "pitch": 71, "duration": 483, "velocity": 100}, {"time": 57118, "pitch": 47, "duration": 241, "velocity": 87}, {"time": 57118, "pitch": 54, "duration": 241, "velocity": 87}, {"time": 57118, "pitch": 59, "duration": 241, "velocity": 87}, {"time": 57118, "pitch": 64, "duration": 241, "velocity": 87}, {"time": 57118, "pitch": 71, "duration": 241, "velocity": 87}, {"time": 57359, "pitch": 47, "duration": 482, "velocity": 100}, {"time": 57359, "pitch": 54, "duration": 482, "velocity": 100}, {"time": 57359, "pitch": 59, "duration": 482, "velocity": 100}, {"time": 57359, "pitch": 64, "duration": 482, "velocity": 100}, {"time": 57359, "pitch": 71, "duration": 482, "velocity": 100}, {"time": 57841, "pitch": 47, "duration": 483, "velocity": 100}, {"time": 57841, "pitch": 54, "duration": 483, "velocity": 100}, {"time": 57841, "pitch": 59, "duration": 483, "velocity": 100}, {"time": 57841, "pitch": 63, "duration": 483, "velocity": 100}, {"time": 57841, "pitch": 71, "duration": 483, "velocity": 100}, {"time": 58324, "pitch": 47, "duration": 241, "velocity": 100}, {"time": 58324, "pitch": 54, "duration": 241, "velocity": 100}, {"time": 58324, "pitch": 59, "duration": 241, "velocity": 100}, {"time": 58324, "pitch": 63, "duration": 241, "velocity": 100}, {"time": 58324, "pitch": 71, "duration": 241, "velocity": 100}, {"time": 58565, "pitch": 47, "duration": 236, "velocity": 100}, {"time": 58565, "pitch": 54, "duration": 236, "velocity": 100}, {"time": 58565, "pitch": 59, "duration": 236, "velocity": 100}, {"time": 58565, "pitch": 63, "duration": 236, "velocity": 100}, {"time": 58565, "pitch": 71, "duration": 236, "velocity": 100}, {"time": 58801, "pitch": 47, "duration": 236, "velocity": 100}, {"time": 58801, "pitch": 54, "duration": 236, "velocity": 100}, {"time": 58801, "pitch": 59, "duration": 236, "velocity": 100}, {"time": 58801, "pitch": 63, "duration": 236, "velocity": 100}, {"time": 58801, "pitch": 71, "duration": 236, "velocity": 100}, {"time": 59037, "pitch": 47, "duration": 242, "velocity": 100}, {"time": 59037, "pitch": 54, "duration": 242, "velocity": 100}, {"time": 59037, "pitch": 59, "duration": 242, "velocity": 100}, {"time": 59037, "pitch": 63, "duration": 242, "velocity": 100}, {"time": 59037, "pitch": 71, "duration": 242, "velocity": 100}, {"time": 59279, "pitch": 47, "duration": 241, "velocity": 100}, {"time": 59279, "pitch": 54, "duration": 241, "velocity": 100}, {"time": 59279, "pitch": 59, "duration": 241, "velocity": 100}, {"time": 59279, "pitch": 63, "duration": 241, "velocity": 100}, {"time": 59279, "pitch": 71, "duration": 241, "velocity": 100}, {"time": 59520, "pitch": 47, "duration": 241, "velocity": 100}, {"time": 59520, "pitch": 54, "duration": 241, "velocity": 100}, {"time": 59520, "pitch": 59, "duration": 241, "velocity": 100}, {"time": 59520, "pitch": 63, "duration": 241, "velocity": 100}, {"time": 59520, "pitch": 71, "duration": 241, "velocity": 100}, {"time": 59761, "pitch": 47, "duration": 241, "velocity": 100}, {"time": 59761, "pitch": 54, "duration": 241, "velocity": 100}, {"time": 59761, "pitch": 59, "duration": 241, "velocity": 100}, {"time": 59761, "pitch": 63, "duration": 241, "velocity": 100}, {"time": 59761, "pitch": 71, "duration": 241, "velocity": 100}, {"time": 60002, "pitch": 52, "duration": 483, "velocity": 100}, {"time": 60002, "pitch": 59, "duration": 483, "velocity": 100}, {"time": 60002, "pitch": 64, "duration": 483, "velocity": 100}, {"time": 60002, "pitch": 68, "duration": 483, "velocity": 100}, {"time": 60485, "pitch": 52, "duration": 472, "velocity": 100}, {"time": 60485, "pitch": 59, "duration": 472, "velocity": 100}, {"time": 60485, "pitch": 64, "duration": 472, "velocity": 100}, {"time": 60485, "pitch": 68, "duration": 472, "velocity": 100}, {"time": 60957, "pitch": 52, "duration": 241, "velocity": 86}, {"time": 60957, "pitch": 59, "duration": 241, "velocity": 86}, {"time": 60957, "pitch": 64, "duration": 241, "velocity": 86}, {"time": 60957, "pitch": 68, "duration": 241, "velocity": 86}, {"time": 61198, "pitch": 52, "duration": 483, "velocity": 100}, {"time": 61198, "pitch": 59, "duration": 483, "velocity": 100}, {"time": 61198, "pitch": 64, "duration": 483, "velocity": 100}, {"time": 61198, "pitch": 68, "duration": 483, "velocity": 100}, {"time": 61681, "pitch": 47, "duration": 482, "velocity": 100}, {"time": 61681, "pitch": 54, "duration": 482, "velocity": 100}, {"time": 61681, "pitch": 59, "duration": 482, "velocity": 100}, {"time": 61681, "pitch": 63, "duration": 482, "velocity": 100}, {"time": 61681, "pitch": 66, "duration": 482, "velocity": 100}, {"time": 62163, "pitch": 47, "duration": 242, "velocity": 86}, {"time": 62163, "pitch": 54, "duration": 242, "velocity": 86}, {"time": 62163, "pitch": 59, "duration": 242, "velocity": 86}, {"time": 62163, "pitch": 63, "duration": 242, "velocity": 86}, {"time": 62163, "pitch": 66, "duration": 242, "velocity": 86}, {"time": 62405, "pitch": 47, "duration": 472, "velocity": 100}, {"time": 62405, "pitch": 54, "duration": 472, "velocity": 100}, {"time": 62405, "pitch": 59, "duration": 472, "velocity": 100}, {"time": 62405, "pitch": 63, "duration": 472, "velocity": 100}, {"time": 62405, "pitch": 66, "duration": 472, "velocity": 100}, {"time": 62877, "pitch": 47, "duration": 241, "velocity": 76}, {"time": 62877, "pitch": 54, "duration": 241, "velocity": 76}, {"time": 62877, "pitch": 59, "duration": 241, "velocity": 76}, {"time": 62877, "pitch": 63, "duration": 241, "velocity": 76}, {"time": 62877, "pitch": 66, "duration": 241, "velocity": 76}, {"time": 63118, "pitch": 47, "duration": 241, "velocity": 89}, {"time": 63118, "pitch": 54, "duration": 241, "velocity": 89}, {"time": 63118, "pitch": 59, "duration": 241, "velocity": 89}, {"time": 63118, "pitch": 63, "duration": 241, "velocity": 89}, {"time": 63118, "pitch": 66, "duration": 241, "velocity": 89}, {"time": 63359, "pitch": 47, "duration": 483, "velocity": 100}, {"time": 63359, "pitch": 54, "duration": 483, "velocity": 100}, {"time": 63359, "pitch": 59, "duration": 483, "velocity": 100}, {"time": 63359, "pitch": 63, "duration": 483, "velocity": 100}, {"time": 63359, "pitch": 66, "duration": 483, "velocity": 100}, {"time": 63842, "pitch": 49, "duration": 482, "velocity": 100}, {"time": 63842, "pitch": 56, "duration": 482, "velocity": 100}, {"time": 63842, "pitch": 61, "duration": 482, "velocity": 100}, {"time": 63842, "pitch": 64, "duration": 482, "velocity": 100}, {"time": 63842, "pitch": 68, "duration": 482, "velocity": 100}, {"time": 64324, "pitch": 49, "duration": 473, "velocity": 100}, {"time": 64324, "pitch": 56, "duration": 473, "velocity": 100}, {"time": 64324, "pitch": 61, "duration": 473, "velocity": 100}, {"time": 64324, "pitch": 64, "duration": 473, "velocity": 100}, {"time": 64324, "pitch": 68, "duration": 473, "velocity": 100}, {"time": 64797, "pitch": 49, "duration": 241, "velocity": 79}, {"time": 64797, "pitch": 56, "duration": 241, "velocity": 79}, {"time": 64797, "pitch": 61, "duration": 241, "velocity": 79}, {"time": 64797, "pitch": 64, "duration": 241, "velocity": 79}, {"time": 64797, "pitch": 68, "duration": 241, "velocity": 79}, {"time": 65038, "pitch": 49, "duration": 482, "velocity": 100}, {"time": 65038, "pitch": 56, "duration": 482, "velocity": 100}, {"time": 65038, "pitch": 61, "duration": 482, "velocity": 100}, {"time": 65038, "pitch": 64, "duration": 482, "velocity": 100}, {"time": 65038, "pitch": 68, "duration": 482, "velocity": 100}, {"time": 65520, "pitch": 42, "duration": 483, "velocity": 100}, {"time": 65520, "pitch": 49, "duration": 483, "velocity": 100}, {"time": 65520, "pitch": 52, "duration": 483, "velocity": 100}, {"time": 65520, "pitch": 58, "duration": 483, "velocity": 100}, {"time": 65520, "pitch": 61, "duration": 483, "velocity": 100}, {"time": 65520, "pitch": 66, "duration": 483, "velocity": 100}, {"time": 66003, "pitch": 42, "duration": 241, "velocity": 90}, {"time": 66003, "pitch": 49, "duration": 241, "velocity": 90}, {"time": 66003, "pitch": 52, "duration": 241, "velocity": 90}, {"time": 66003, "pitch": 58, "duration": 241, "velocity": 90}, {"time": 66003, "pitch": 61, "duration": 241, "velocity": 90}, {"time": 66003, "pitch": 66, "duration": 241, "velocity": 90}, {"time": 66244, "pitch": 42, "duration": 236, "velocity": 88}, {"time": 66244, "pitch": 49, "duration": 236, "velocity": 88}, {"time": 66244, "pitch": 52, "duration": 236, "velocity": 88}, {"time": 66244, "pitch": 58, "duration": 236, "velocity": 88}, {"time": 66244, "pitch": 61, "duration": 236, "velocity": 88}, {"time": 66244, "pitch": 66, "duration": 236, "velocity": 88}, {"time": 66480, "pitch": 42, "duration": 478, "velocity": 100}, {"time": 66480, "pitch": 49, "duration": 478, "velocity": 100}, {"time": 66480, "pitch": 52, "duration": 478, "velocity": 100}, {"time": 66480, "pitch": 58, "duration": 478, "velocity": 100}, {"time": 66480, "pitch": 61, "duration": 478, "velocity": 100}, {"time": 66480, "pitch": 66, "duration": 478, "velocity": 100}, {"time": 66958, "pitch": 42, "duration": 241, "velocity": 85}, {"time": 66958, "pitch": 49, "duration": 241, "velocity": 85}, {"time": 66958, "pitch": 52, "duration": 241, "velocity": 85}, {"time": 66958, "pitch": 58, "duration": 241, "velocity": 85}, {"time": 66958, "pitch": 61, "duration": 241, "velocity": 85}, {"time": 66958, "pitch": 66, "duration": 241, "velocity": 85}, {"time": 67199, "pitch": 42, "duration": 482, "velocity": 100}, {"time": 67199, "pitch": 49, "duration": 482, "velocity": 100}, {"time": 67199, "pitch": 52, "duration": 482, "velocity": 100}, {"time": 67199, "pitch": 58, "duration": 482, "velocity": 100}, {"time": 67199, "pitch": 61, "duration": 482, "velocity": 100}, {"time": 67199, "pitch": 66, "duration": 482, "velocity": 100}, {"time": 67681, "pitch": 42, "duration": 483, "velocity": 100}, {"time": 67681, "pitch": 49, "duration": 483, "velocity": 100}, {"time": 67681, "pitch": 54, "duration": 483, "velocity": 100}, {"time": 67681, "pitch": 57, "duration": 483, "velocity": 100}, {"time": 67681, "pitch": 61, "duration": 483, "velocity": 100}, {"time": 67681, "pitch": 66, "duration": 483, "velocity": 100}, {"time": 68164, "pitch": 42, "duration": 472, "velocity": 100}, {"time": 68164, "pitch": 49, "duration": 472, "velocity": 100}, {"time": 68164, "pitch": 54, "duration": 472, "velocity": 100}, {"time": 68164, "pitch": 57, "duration": 472, "velocity": 100}, {"time": 68164, "pitch": 61, "duration": 472, "velocity": 100}, {"time": 68164, "pitch": 66, "duration": 472, "velocity": 100}, {"time": 68636, "pitch": 42, "duration": 241, "velocity": 82}, {"time": 68636, "pitch": 49, "duration": 241, "velocity": 82}, {"time": 68636, "pitch": 54, "duration": 241, "velocity": 82}, {"time": 68636, "pitch": 57, "duration": 241, "velocity": 82}, {"time": 68636, "pitch": 61, "duration": 241, "velocity": 82}, {"time": 68636, "pitch": 66, "duration": 241, "velocity": 82}, {"time": 68877, "pitch": 42, "duration": 483, "velocity": 100}, {"time": 68877, "pitch": 49, "duration": 483, "velocity": 100}, {"time": 68877, "pitch": 54, "duration": 483, "velocity": 100}, {"time": 68877, "pitch": 57, "duration": 483, "velocity": 100}, {"time": 68877, "pitch": 61, "duration": 483, "velocity": 100}, {"time": 68877, "pitch": 66, "duration": 483, "velocity": 100}, {"time": 69360, "pitch": 47, "duration": 482, "velocity": 100}, {"time": 69360, "pitch": 54, "duration": 482, "velocity": 100}, {"time": 69360, "pitch": 59, "duration": 482, "velocity": 100}, {"time": 69360, "pitch": 63, "duration": 482, "velocity": 100}, {"time": 69360, "pitch": 66, "duration": 482, "velocity": 100}, {"time": 69842, "pitch": 47, "duration": 242, "velocity": 83}, {"time": 69842, "pitch": 54, "duration": 242, "velocity": 83}, {"time": 69842, "pitch": 59, "duration": 242, "velocity": 83}, {"time": 69842, "pitch": 63, "duration": 242, "velocity": 83}, {"time": 69842, "pitch": 66, "duration": 242, "velocity": 83}, {"time": 70084, "pitch": 47, "duration": 236, "velocity": 82}, {"time": 70084, "pitch": 54, "duration": 236, "velocity": 82}, {"time": 70084, "pitch": 59, "duration": 236, "velocity": 82}, {"time": 70084, "pitch": 63, "duration": 236, "velocity": 82}, {"time": 70084, "pitch": 66, "duration": 236, "velocity": 82}, {"time": 70320, "pitch": 47, "duration": 477, "velocity": 92}, {"time": 70320, "pitch": 54, "duration": 477, "velocity": 92}, {"time": 70320, "pitch": 59, "duration": 477, "velocity": 92}, {"time": 70320, "pitch": 63, "duration": 477, "velocity": 92}, {"time": 70320, "pitch": 66, "duration": 477, "velocity": 92}, {"time": 70797, "pitch": 47, "duration": 241, "velocity": 84}, {"time": 70797, "pitch": 54, "duration": 241, "velocity": 84}, {"time": 70797, "pitch": 59, "duration": 241, "velocity": 84}, {"time": 70797, "pitch": 63, "duration": 241, "velocity": 84}, {"time": 70797, "pitch": 66, "duration": 241, "velocity": 84}, {"time": 71038, "pitch": 47, "duration": 483, "velocity": 100}, {"time": 71038, "pitch": 54, "duration": 483, "velocity": 100}, {"time": 71038, "pitch": 59, "duration": 483, "velocity": 100}, {"time": 71038, "pitch": 63, "duration": 483, "velocity": 100}, {"time": 71038, "pitch": 66, "duration": 483, "velocity": 100}, {"time": 71521, "pitch": 47, "duration": 482, "velocity": 100}, {"time": 71521, "pitch": 52, "duration": 482, "velocity": 100}, {"time": 71521, "pitch": 57, "duration": 482, "velocity": 100}, {"time": 71521, "pitch": 64, "duration": 482, "velocity": 100}, {"time": 71521, "pitch": 71, "duration": 482, "velocity": 100}, {"time": 72003, "pitch": 47, "duration": 473, "velocity": 100}, {"time": 72003, "pitch": 52, "duration": 473, "velocity": 100}, {"time": 72003, "pitch": 57, "duration": 473, "velocity": 100}, {"time": 72003, "pitch": 64, "duration": 473, "velocity": 100}, {"time": 72003, "pitch": 71, "duration": 473, "velocity": 100}, {"time": 72476, "pitch": 47, "duration": 241, "velocity": 87}, {"time": 72476, "pitch": 52, "duration": 241, "velocity": 87}, {"time": 72476, "pitch": 57, "duration": 241, "velocity": 87}, {"time": 72476, "pitch": 64, "duration": 241, "velocity": 87}, {"time": 72476, "pitch": 71, "duration": 241, "velocity": 87}, {"time": 72717, "pitch": 47, "duration": 482, "velocity": 100}, {"time": 72717, "pitch": 52, "duration": 482, "velocity": 100}, {"time": 72717, "pitch": 57, "duration": 482, "velocity": 100}, {"time": 72717, "pitch": 64, "duration": 482, "velocity": 100}, {"time": 72717, "pitch": 71, "duration": 482, "velocity": 100}, {"time": 73199, "pitch": 47, "duration": 483, "velocity": 100}, {"time": 73199, "pitch": 52, "duration": 483, "velocity": 100}, {"time": 73199, "pitch": 56, "duration": 483, "velocity": 100}, {"time": 73199, "pitch": 64, "duration": 483, "velocity": 100}, {"time": 73199, "pitch": 71, "duration": 483, "velocity": 100}, {"time": 73682, "pitch": 47, "duration": 241, "velocity": 100}, {"time": 73682, "pitch": 52, "duration": 241, "velocity": 100}, {"time": 73682, "pitch": 56, "duration": 241, "velocity": 100}, {"time": 73682, "pitch": 64, "duration": 241, "velocity": 100}, {"time": 73682, "pitch": 71, "duration": 241, "velocity": 100}, {"time": 73923, "pitch": 47, "duration": 236, "velocity": 100}, {"time": 73923, "pitch": 52, "duration": 236, "velocity": 100}, {"time": 73923, "pitch": 56, "duration": 236, "velocity": 100}, {"time": 73923, "pitch": 64, "duration": 236, "velocity": 100}, {"time": 73923, "pitch": 71, "duration": 236, "velocity": 100}, {"time": 74159, "pitch": 47, "duration": 237, "velocity": 100}, {"time": 74159, "pitch": 52, "duration": 237, "velocity": 100}, {"time": 74159, "pitch": 56, "duration": 237, "velocity": 100}, {"time": 74159, "pitch": 64, "duration": 237, "velocity": 100}, {"time": 74159, "pitch": 71, "duration": 237, "velocity": 100}, {"time": 74396, "pitch": 47, "duration": 241, "velocity": 100}, {"time": 74396, "pitch": 52, "duration": 241, "velocity": 100}, {"time": 74396, "pitch": 56, "duration": 241, "velocity": 100}, {"time": 74396, "pitch": 64, "duration": 241, "velocity": 100}, {"time": 74396, "pitch": 71, "duration": 241, "velocity": 100}, {"time": 74637, "pitch": 47, "duration": 241, "velocity": 100}, {"time": 74637, "pitch": 52, "duration": 241, "velocity": 100}, {"time": 74637, "pitch": 56, "duration": 241, "velocity": 100}, {"time": 74637, "pitch": 64, "duration": 241, "velocity": 100}, {"time": 74637, "pitch": 71, "duration": 241, "velocity": 100}, {"time": 74878, "pitch": 47, "duration": 241, "velocity": 100}, {"time": 74878, "pitch": 52, "duration": 241, "velocity": 100}, {"time": 74878, "pitch": 56, "duration": 241, "velocity": 100}, {"time": 74878, "pitch": 64, "duration": 241, "velocity": 100}, {"time": 74878, "pitch": 71, "duration": 241, "velocity": 100}, {"time": 75119, "pitch": 47, "duration": 241, "velocity": 100}, {"time": 75119, "pitch": 52, "duration": 241, "velocity": 100}, {"time": 75119, "pitch": 56, "duration": 241, "velocity": 100}, {"time": 75119, "pitch": 64, "duration": 241, "velocity": 100}, {"time": 75119, "pitch": 71, "duration": 241, "velocity": 100}, {"time": 75360, "pitch": 52, "duration": 483, "velocity": 100}, {"time": 75360, "pitch": 59, "duration": 483, "velocity": 100}, {"time": 75360, "pitch": 64, "duration": 483, "velocity": 100}, {"time": 75360, "pitch": 68, "duration": 483, "velocity": 100}, {"time": 75843, "pitch": 52, "duration": 472, "velocity": 100}, {"time": 75843, "pitch": 59, "duration": 472, "velocity": 100}, {"time": 75843, "pitch": 64, "duration": 472, "velocity": 100}, {"time": 75843, "pitch": 68, "duration": 472, "velocity": 100}, {"time": 76315, "pitch": 52, "duration": 121, "velocity": 71}, {"time": 76315, "pitch": 59, "duration": 121, "velocity": 71}, {"time": 76315, "pitch": 64, "duration": 121, "velocity": 71}, {"time": 76315, "pitch": 68, "duration": 121, "velocity": 71}, {"time": 76556, "pitch": 52, "duration": 362, "velocity": 100}, {"time": 76556, "pitch": 59, "duration": 362, "velocity": 100}, {"time": 76556, "pitch": 64, "duration": 362, "velocity": 100}, {"time": 76556, "pitch": 68, "duration": 362, "velocity": 100}, {"time": 77039, "pitch": 47, "duration": 482, "velocity": 100}, {"time": 77039, "pitch": 54, "duration": 482, "velocity": 100}, {"time": 77039, "pitch": 59, "duration": 482, "velocity": 100}, {"time": 77039, "pitch": 62, "duration": 482, "velocity": 100}, {"time": 77039, "pitch": 66, "duration": 482, "velocity": 100}, {"time": 77521, "pitch": 47, "duration": 242, "velocity": 73}, {"time": 77521, "pitch": 54, "duration": 242, "velocity": 73}, {"time": 77521, "pitch": 59, "duration": 242, "velocity": 73}, {"time": 77521, "pitch": 62, "duration": 242, "velocity": 73}, {"time": 77521, "pitch": 66, "duration": 242, "velocity": 73}, {"time": 77763, "pitch": 47, "duration": 713, "velocity": 100}, {"time": 77763, "pitch": 54, "duration": 713, "velocity": 100}, {"time": 77763, "pitch": 59, "duration": 713, "velocity": 100}, {"time": 77763, "pitch": 62, "duration": 713, "velocity": 100}, {"time": 77763, "pitch": 66, "duration": 713, "velocity": 100}, {"time": 78476, "pitch": 47, "duration": 241, "velocity": 75}, {"time": 78476, "pitch": 54, "duration": 241, "velocity": 75}, {"time": 78476, "pitch": 59, "duration": 241, "velocity": 75}, {"time": 78476, "pitch": 62, "duration": 241, "velocity": 75}, {"time": 78476, "pitch": 66, "duration": 241, "velocity": 75}, {"time": 78717, "pitch": 47, "duration": 242, "velocity": 100}, {"time": 78717, "pitch": 54, "duration": 242, "velocity": 100}, {"time": 78717, "pitch": 59, "duration": 242, "velocity": 100}, {"time": 78717, "pitch": 62, "duration": 242, "velocity": 100}, {"time": 78717, "pitch": 66, "duration": 242, "velocity": 100}, {"time": 78959, "pitch": 52, "duration": 120, "velocity": 69}, {"time": 78959, "pitch": 59, "duration": 120, "velocity": 69}, {"time": 78959, "pitch": 64, "duration": 120, "velocity": 69}, {"time": 79200, "pitch": 52, "duration": 482, "velocity": 100}, {"time": 79200, "pitch": 59, "duration": 482, "velocity": 100}, {"time": 79200, "pitch": 64, "duration": 482, "velocity": 100}, {"time": 79200, "pitch": 68, "duration": 482, "velocity": 100}, {"time": 79682, "pitch": 52, "duration": 483, "velocity": 100}, {"time": 79682, "pitch": 59, "duration": 483, "velocity": 100}, {"time": 79682, "pitch": 64, "duration": 483, "velocity": 100}, {"time": 79682, "pitch": 68, "duration": 483, "velocity": 100}, {"time": 80165, "pitch": 52, "duration": 118, "velocity": 71}, {"time": 80165, "pitch": 59, "duration": 118, "velocity": 71}, {"time": 80165, "pitch": 64, "duration": 118, "velocity": 71}, {"time": 80165, "pitch": 68, "duration": 118, "velocity": 71}, {"time": 80401, "pitch": 52, "duration": 357, "velocity": 100}, {"time": 80401, "pitch": 59, "duration": 357, "velocity": 100}, {"time": 80401, "pitch": 64, "duration": 357, "velocity": 100}, {"time": 80401, "pitch": 68, "duration": 357, "velocity": 100}, {"time": 80878, "pitch": 47, "duration": 483, "velocity": 100}, {"time": 80878, "pitch": 54, "duration": 483, "velocity": 100}, {"time": 80878, "pitch": 59, "duration": 483, "velocity": 100}, {"time": 80878, "pitch": 62, "duration": 483, "velocity": 100}, {"time": 80878, "pitch": 66, "duration": 483, "velocity": 100}, {"time": 81361, "pitch": 47, "duration": 241, "velocity": 73}, {"time": 81361, "pitch": 54, "duration": 241, "velocity": 73}, {"time": 81361, "pitch": 59, "duration": 241, "velocity": 73}, {"time": 81361, "pitch": 62, "duration": 241, "velocity": 73}, {"time": 81361, "pitch": 66, "duration": 241, "velocity": 73}, {"time": 81602, "pitch": 47, "duration": 719, "velocity": 100}, {"time": 81602, "pitch": 54, "duration": 719, "velocity": 100}, {"time": 81602, "pitch": 59, "duration": 719, "velocity": 100}, {"time": 81602, "pitch": 62, "duration": 719, "velocity": 100}, {"time": 81602, "pitch": 66, "duration": 719, "velocity": 100}, {"time": 82321, "pitch": 47, "duration": 236, "velocity": 75}, {"time": 82321, "pitch": 54, "duration": 236, "velocity": 75}, {"time": 82321, "pitch": 59, "duration": 236, "velocity": 75}, {"time": 82321, "pitch": 62, "duration": 236, "velocity": 75}, {"time": 82321, "pitch": 66, "duration": 236, "velocity": 75}, {"time": 82557, "pitch": 47, "duration": 241, "velocity": 100}, {"time": 82557, "pitch": 54, "duration": 241, "velocity": 100}, {"time": 82557, "pitch": 59, "duration": 241, "velocity": 100}, {"time": 82557, "pitch": 62, "duration": 241, "velocity": 100}, {"time": 82557, "pitch": 66, "duration": 241, "velocity": 100}, {"time": 82798, "pitch": 52, "duration": 121, "velocity": 69}, {"time": 82798, "pitch": 59, "duration": 121, "velocity": 69}, {"time": 82798, "pitch": 64, "duration": 121, "velocity": 69}, {"time": 83039, "pitch": 52, "duration": 483, "velocity": 100}, {"time": 83039, "pitch": 59, "duration": 483, "velocity": 100}, {"time": 83039, "pitch": 64, "duration": 483, "velocity": 100}, {"time": 83039, "pitch": 68, "duration": 483, "velocity": 100}, {"time": 83522, "pitch": 52, "duration": 482, "velocity": 100}, {"time": 83522, "pitch": 59, "duration": 482, "velocity": 100}, {"time": 83522, "pitch": 64, "duration": 482, "velocity": 100}, {"time": 83522, "pitch": 68, "duration": 482, "velocity": 100}, {"time": 84004, "pitch": 52, "duration": 118, "velocity": 71}, {"time": 84004, "pitch": 59, "duration": 118, "velocity": 71}, {"time": 84004, "pitch": 64, "duration": 118, "velocity": 71}, {"time": 84004, "pitch": 68, "duration": 118, "velocity": 71}, {"time": 84241, "pitch": 52, "duration": 356, "velocity": 100}, {"time": 84241, "pitch": 59, "duration": 356, "velocity": 100}, {"time": 84241, "pitch": 64, "duration": 356, "velocity": 100}, {"time": 84241, "pitch": 68, "duration": 356, "velocity": 100}, {"time": 84718, "pitch": 47, "duration": 482, "velocity": 100}, {"time": 84718, "pitch": 54, "duration": 482, "velocity": 100}, {"time": 84718, "pitch": 59, "duration": 482, "velocity": 100}, {"time": 84718, "pitch": 62, "duration": 482, "velocity": 100}, {"time": 84718, "pitch": 66, "duration": 482, "velocity": 100}, {"time": 85200, "pitch": 47, "duration": 242, "velocity": 73}, {"time": 85200, "pitch": 54, "duration": 242, "velocity": 73}, {"time": 85200, "pitch": 59, "duration": 242, "velocity": 73}, {"time": 85200, "pitch": 62, "duration": 242, "velocity": 73}, {"time": 85200, "pitch": 66, "duration": 242, "velocity": 73}, {"time": 85442, "pitch": 47, "duration": 718, "velocity": 100}, {"time": 85442, "pitch": 54, "duration": 718, "velocity": 100}, {"time": 85442, "pitch": 59, "duration": 718, "velocity": 100}, {"time": 85442, "pitch": 62, "duration": 718, "velocity": 100}, {"time": 85442, "pitch": 66, "duration": 718, "velocity": 100}, {"time": 86160, "pitch": 47, "duration": 237, "velocity": 75}, {"time": 86160, "pitch": 54, "duration": 237, "velocity": 75}, {"time": 86160, "pitch": 59, "duration": 237, "velocity": 75}, {"time": 86160, "pitch": 62, "duration": 237, "velocity": 75}, {"time": 86160, "pitch": 66, "duration": 237, "velocity": 75}, {"time": 86397, "pitch": 47, "duration": 241, "velocity": 100}, {"time": 86397, "pitch": 54, "duration": 241, "velocity": 100}, {"time": 86397, "pitch": 59, "duration": 241, "velocity": 100}, {"time": 86397, "pitch": 62, "duration": 241, "velocity": 100}, {"time": 86397, "pitch": 66, "duration": 241, "velocity": 100}, {"time": 86638, "pitch": 52, "duration": 120, "velocity": 69}, {"time": 86638, "pitch": 59, "duration": 120, "velocity": 69}, {"time": 86638, "pitch": 64, "duration": 120, "velocity": 69}, {"time": 86879, "pitch": 52, "duration": 482, "velocity": 100}, {"time": 86879, "pitch": 59, "duration": 482, "velocity": 100}, {"time": 86879, "pitch": 64, "duration": 482, "velocity": 100}, {"time": 86879, "pitch": 68, "duration": 482, "velocity": 100}, {"time": 87361, "pitch": 52, "duration": 483, "velocity": 100}, {"time": 87361, "pitch": 59, "duration": 483, "velocity": 100}, {"time": 87361, "pitch": 64, "duration": 483, "velocity": 100}, {"time": 87361, "pitch": 68, "duration": 483, "velocity": 100}, {"time": 87844, "pitch": 52, "duration": 118, "velocity": 71}, {"time": 87844, "pitch": 59, "duration": 118, "velocity": 71}, {"time": 87844, "pitch": 64, "duration": 118, "velocity": 71}, {"time": 87844, "pitch": 68, "duration": 118, "velocity": 71}, {"time": 88080, "pitch": 52, "duration": 357, "velocity": 100}, {"time": 88080, "pitch": 59, "duration": 357, "velocity": 100}, {"time": 88080, "pitch": 64, "duration": 357, "velocity": 100}, {"time": 88080, "pitch": 68, "duration": 357, "velocity": 100}, {"time": 88557, "pitch": 47, "duration": 483, "velocity": 100}, {"time": 88557, "pitch": 54, "duration": 483, "velocity": 100}, {"time": 88557, "pitch": 59, "duration": 483, "velocity": 100}, {"time": 88557, "pitch": 62, "duration": 483, "velocity": 100}, {"time": 88557, "pitch": 66, "duration": 483, "velocity": 100}, {"time": 89040, "pitch": 47, "duration": 241, "velocity": 73}, {"time": 89040, "pitch": 54, "duration": 241, "velocity": 73}, {"time": 89040, "pitch": 59, "duration": 241, "velocity": 73}, {"time": 89040, "pitch": 62, "duration": 241, "velocity": 73}, {"time": 89040, "pitch": 66, "duration": 241, "velocity": 73}, {"time": 89281, "pitch": 47, "duration": 719, "velocity": 100}, {"time": 89281, "pitch": 54, "duration": 719, "velocity": 100}, {"time": 89281, "pitch": 59, "duration": 719, "velocity": 100}, {"time": 89281, "pitch": 62, "duration": 719, "velocity": 100}, {"time": 89281, "pitch": 66, "duration": 719, "velocity": 100}, {"time": 90000, "pitch": 47, "duration": 236, "velocity": 75}, {"time": 90000, "pitch": 54, "duration": 236, "velocity": 75}, {"time": 90000, "pitch": 59, "duration": 236, "velocity": 75}, {"time": 90000, "pitch": 62, "duration": 236, "velocity": 75}, {"time": 90000, "pitch": 66, "duration": 236, "velocity": 75}, {"time": 90236, "pitch": 47, "duration": 241, "velocity": 100}, {"time": 90236, "pitch": 54, "duration": 241, "velocity": 100}, {"time": 90236, "pitch": 59, "duration": 241, "velocity": 100}, {"time": 90236, "pitch": 62, "duration": 241, "velocity": 100}, {"time": 90236, "pitch": 66, "duration": 241, "velocity": 100}, {"time": 90477, "pitch": 52, "duration": 121, "velocity": 69}, {"time": 90477, "pitch": 59, "duration": 121, "velocity": 69}, {"time": 90477, "pitch": 64, "duration": 121, "velocity": 69}, {"time": 90718, "pitch": 45, "duration": 483, "velocity": 100}, {"time": 90718, "pitch": 52, "duration": 483, "velocity": 100}, {"time": 90718, "pitch": 57, "duration": 483, "velocity": 100}, {"time": 90718, "pitch": 61, "duration": 483, "velocity": 100}, {"time": 90718, "pitch": 64, "duration": 483, "velocity": 100}, {"time": 90718, "pitch": 69, "duration": 483, "velocity": 100}, {"time": 91201, "pitch": 45, "duration": 482, "velocity": 101}, {"time": 91201, "pitch": 52, "duration": 482, "velocity": 101}, {"time": 91201, "pitch": 57, "duration": 482, "velocity": 101}, {"time": 91201, "pitch": 61, "duration": 482, "velocity": 101}, {"time": 91201, "pitch": 64, "duration": 482, "velocity": 101}, {"time": 91201, "pitch": 69, "duration": 482, "velocity": 101}, {"time": 91683, "pitch": 45, "duration": 118, "velocity": 72}, {"time": 91683, "pitch": 52, "duration": 118, "velocity": 72}, {"time": 91683, "pitch": 57, "duration": 118, "velocity": 72}, {"time": 91683, "pitch": 61, "duration": 118, "velocity": 72}, {"time": 91683, "pitch": 64, "duration": 118, "velocity": 72}, {"time": 91683, "pitch": 69, "duration": 118, "velocity": 72}, {"time": 91920, "pitch": 45, "duration": 356, "velocity": 101}, {"time": 91920, "pitch": 52, "duration": 356, "velocity": 101}, {"time": 91920, "pitch": 57, "duration": 356, "velocity": 101}, {"time": 91920, "pitch": 61, "duration": 356, "velocity": 101}, {"time": 91920, "pitch": 64, "duration": 356, "velocity": 101}, {"time": 91920, "pitch": 69, "duration": 356, "velocity": 101}, {"time": 92397, "pitch": 44, "duration": 482, "velocity": 101}, {"time": 92397, "pitch": 59, "duration": 482, "velocity": 101}, {"time": 92397, "pitch": 64, "duration": 482, "velocity": 101}, {"time": 92397, "pitch": 68, "duration": 482, "velocity": 101}, {"time": 92879, "pitch": 44, "duration": 242, "velocity": 85}, {"time": 92879, "pitch": 59, "duration": 242, "velocity": 85}, {"time": 92879, "pitch": 64, "duration": 242, "velocity": 85}, {"time": 92879, "pitch": 68, "duration": 242, "velocity": 85}, {"time": 93121, "pitch": 44, "duration": 241, "velocity": 85}, {"time": 93121, "pitch": 59, "duration": 241, "velocity": 85}, {"time": 93121, "pitch": 64, "duration": 241, "velocity": 85}, {"time": 93121, "pitch": 68, "duration": 241, "velocity": 85}, {"time": 93362, "pitch": 44, "duration": 477, "velocity": 101}, {"time": 93362, "pitch": 59, "duration": 477, "velocity": 101}, {"time": 93362, "pitch": 64, "duration": 477, "velocity": 101}, {"time": 93362, "pitch": 68, "duration": 477, "velocity": 101}, {"time": 93839, "pitch": 44, "duration": 237, "velocity": 84}, {"time": 93839, "pitch": 59, "duration": 237, "velocity": 84}, {"time": 93839, "pitch": 64, "duration": 237, "velocity": 84}, {"time": 93839, "pitch": 68, "duration": 237, "velocity": 84}, {"time": 94076, "pitch": 44, "duration": 482, "velocity": 101}, {"time": 94076, "pitch": 59, "duration": 482, "velocity": 101}, {"time": 94076, "pitch": 64, "duration": 482, "velocity": 101}, {"time": 94076, "pitch": 68, "duration": 482, "velocity": 101}, {"time": 94558, "pitch": 54, "duration": 482, "velocity": 101}, {"time": 94558, "pitch": 57, "duration": 482, "velocity": 101}, {"time": 94558, "pitch": 61, "duration": 482, "velocity": 101}, {"time": 94558, "pitch": 66, "duration": 482, "velocity": 101}, {"time": 95040, "pitch": 54, "duration": 242, "velocity": 79}, {"time": 95040, "pitch": 57, "duration": 242, "velocity": 79}, {"time": 95040, "pitch": 61, "duration": 242, "velocity": 79}, {"time": 95040, "pitch": 66, "duration": 242, "velocity": 79}, {"time": 95282, "pitch": 54, "duration": 477, "velocity": 101}, {"time": 95282, "pitch": 59, "duration": 477, "velocity": 101}, {"time": 95282, "pitch": 63, "duration": 477, "velocity": 101}, {"time": 95282, "pitch": 66, "duration": 477, "velocity": 101}, {"time": 95759, "pitch": 54, "duration": 236, "velocity": 101}, {"time": 95759, "pitch": 59, "duration": 236, "velocity": 101}, {"time": 95759, "pitch": 63, "duration": 236, "velocity": 101}, {"time": 95759, "pitch": 66, "duration": 236, "velocity": 101}, {"time": 95995, "pitch": 54, "duration": 241, "velocity": 79}, {"time": 95995, "pitch": 59, "duration": 241, "velocity": 79}, {"time": 95995, "pitch": 63, "duration": 241, "velocity": 79}, {"time": 95995, "pitch": 66, "duration": 241, "velocity": 79}, {"time": 96236, "pitch": 40, "duration": 483, "velocity": 101}, {"time": 96236, "pitch": 52, "duration": 483, "velocity": 101}, {"time": 96236, "pitch": 59, "duration": 483, "velocity": 101}, {"time": 96236, "pitch": 64, "duration": 483, "velocity": 101}, {"time": 96236, "pitch": 68, "duration": 483, "velocity": 101}, {"time": 96719, "pitch": 40, "duration": 241, "velocity": 101}, {"time": 96719, "pitch": 52, "duration": 241, "velocity": 101}, {"time": 96719, "pitch": 59, "duration": 241, "velocity": 101}, {"time": 96719, "pitch": 64, "duration": 241, "velocity": 101}, {"time": 96719, "pitch": 68, "duration": 241, "velocity": 101}, {"time": 96960, "pitch": 40, "duration": 241, "velocity": 90}, {"time": 96960, "pitch": 52, "duration": 241, "velocity": 90}, {"time": 96960, "pitch": 59, "duration": 241, "velocity": 90}, {"time": 96960, "pitch": 64, "duration": 241, "velocity": 90}, {"time": 96960, "pitch": 68, "duration": 241, "velocity": 90}, {"time": 97201, "pitch": 40, "duration": 478, "velocity": 101}, {"time": 97201, "pitch": 52, "duration": 478, "velocity": 101}, {"time": 97201, "pitch": 59, "duration": 478, "velocity": 101}, {"time": 97201, "pitch": 62, "duration": 478, "velocity": 101}, {"time": 97201, "pitch": 68, "duration": 478, "velocity": 101}, {"time": 97679, "pitch": 40, "duration": 236, "velocity": 89}, {"time": 97679, "pitch": 52, "duration": 236, "velocity": 89}, {"time": 97679, "pitch": 59, "duration": 236, "velocity": 89}, {"time": 97679, "pitch": 62, "duration": 236, "velocity": 89}, {"time": 97679, "pitch": 68, "duration": 236, "velocity": 89}, {"time": 97915, "pitch": 40, "duration": 482, "velocity": 101}, {"time": 97915, "pitch": 52, "duration": 482, "velocity": 101}, {"time": 97915, "pitch": 59, "duration": 482, "velocity": 101}, {"time": 97915, "pitch": 62, "duration": 482, "velocity": 101}, {"time": 97915, "pitch": 68, "duration": 482, "velocity": 101}, {"time": 98397, "pitch": 45, "duration": 483, "velocity": 100}, {"time": 98397, "pitch": 52, "duration": 483, "velocity": 100}, {"time": 98397, "pitch": 57, "duration": 483, "velocity": 100}, {"time": 98397, "pitch": 61, "duration": 483, "velocity": 100}, {"time": 98397, "pitch": 64, "duration": 483, "velocity": 100}, {"time": 98397, "pitch": 69, "duration": 483, "velocity": 100}, {"time": 98880, "pitch": 45, "duration": 482, "velocity": 101}, {"time": 98880, "pitch": 52, "duration": 482, "velocity": 101}, {"time": 98880, "pitch": 57, "duration": 482, "velocity": 101}, {"time": 98880, "pitch": 61, "duration": 482, "velocity": 101}, {"time": 98880, "pitch": 64, "duration": 482, "velocity": 101}, {"time": 98880, "pitch": 69, "duration": 482, "velocity": 101}, {"time": 99362, "pitch": 45, "duration": 121, "velocity": 72}, {"time": 99362, "pitch": 52, "duration": 121, "velocity": 72}, {"time": 99362, "pitch": 57, "duration": 121, "velocity": 72}, {"time": 99362, "pitch": 61, "duration": 121, "velocity": 72}, {"time": 99362, "pitch": 64, "duration": 121, "velocity": 72}, {"time": 99362, "pitch": 69, "duration": 121, "velocity": 72}, {"time": 99604, "pitch": 45, "duration": 359, "velocity": 101}, {"time": 99604, "pitch": 52, "duration": 359, "velocity": 101}, {"time": 99604, "pitch": 57, "duration": 359, "velocity": 101}, {"time": 99604, "pitch": 61, "duration": 359, "velocity": 101}, {"time": 99604, "pitch": 64, "duration": 359, "velocity": 101}, {"time": 99604, "pitch": 69, "duration": 359, "velocity": 101}, {"time": 100081, "pitch": 44, "duration": 477, "velocity": 101}, {"time": 100081, "pitch": 59, "duration": 477, "velocity": 101}, {"time": 100081, "pitch": 64, "duration": 477, "velocity": 101}, {"time": 100081, "pitch": 68, "duration": 477, "velocity": 101}, {"time": 100558, "pitch": 44, "duration": 242, "velocity": 85}, {"time": 100558, "pitch": 59, "duration": 242, "velocity": 85}, {"time": 100558, "pitch": 64, "duration": 242, "velocity": 85}, {"time": 100558, "pitch": 68, "duration": 242, "velocity": 85}, {"time": 100800, "pitch": 44, "duration": 241, "velocity": 85}, {"time": 100800, "pitch": 59, "duration": 241, "velocity": 85}, {"time": 100800, "pitch": 64, "duration": 241, "velocity": 85}, {"time": 100800, "pitch": 68, "duration": 241, "velocity": 85}, {"time": 101041, "pitch": 44, "duration": 482, "velocity": 101}, {"time": 101041, "pitch": 59, "duration": 482, "velocity": 101}, {"time": 101041, "pitch": 65, "duration": 482, "velocity": 101}, {"time": 101041, "pitch": 68, "duration": 482, "velocity": 101}, {"time": 101523, "pitch": 44, "duration": 242, "velocity": 84}, {"time": 101523, "pitch": 59, "duration": 242, "velocity": 84}, {"time": 101523, "pitch": 65, "duration": 242, "velocity": 84}, {"time": 101523, "pitch": 68, "duration": 242, "velocity": 84}, {"time": 101765, "pitch": 44, "duration": 354, "velocity": 101}, {"time": 101765, "pitch": 59, "duration": 354, "velocity": 101}, {"time": 101765, "pitch": 65, "duration": 354, "velocity": 101}, {"time": 101765, "pitch": 68, "duration": 354, "velocity": 101}, {"time": 102237, "pitch": 54, "duration": 482, "velocity": 101}, {"time": 102237, "pitch": 61, "duration": 482, "velocity": 101}, {"time": 102237, "pitch": 66, "duration": 482, "velocity": 101}, {"time": 102237, "pitch": 69, "duration": 482, "velocity": 101}, {"time": 102719, "pitch": 54, "duration": 483, "velocity": 101}, {"time": 102719, "pitch": 61, "duration": 483, "velocity": 101}, {"time": 102719, "pitch": 66, "duration": 483, "velocity": 101}, {"time": 102719, "pitch": 69, "duration": 483, "velocity": 101}, {"time": 103202, "pitch": 54, "duration": 241, "velocity": 84}, {"time": 103202, "pitch": 61, "duration": 241, "velocity": 84}, {"time": 103202, "pitch": 66, "duration": 241, "velocity": 84}, {"time": 103202, "pitch": 69, "duration": 241, "velocity": 84}, {"time": 103443, "pitch": 54, "duration": 359, "velocity": 101}, {"time": 103443, "pitch": 61, "duration": 359, "velocity": 101}, {"time": 103443, "pitch": 66, "duration": 359, "velocity": 101}, {"time": 103443, "pitch": 69, "duration": 359, "velocity": 101}, {"time": 103921, "pitch": 54, "duration": 477, "velocity": 101}, {"time": 103921, "pitch": 61, "duration": 477, "velocity": 101}, {"time": 103921, "pitch": 66, "duration": 477, "velocity": 101}, {"time": 103921, "pitch": 70, "duration": 477, "velocity": 101}, {"time": 104398, "pitch": 54, "duration": 241, "velocity": 80}, {"time": 104398, "pitch": 61, "duration": 241, "velocity": 80}, {"time": 104398, "pitch": 66, "duration": 241, "velocity": 80}, {"time": 104398, "pitch": 70, "duration": 241, "velocity": 80}, {"time": 104639, "pitch": 54, "duration": 483, "velocity": 101}, {"time": 104639, "pitch": 61, "duration": 483, "velocity": 101}, {"time": 104639, "pitch": 66, "duration": 483, "velocity": 101}, {"time": 104639, "pitch": 70, "duration": 483, "velocity": 101}, {"time": 105122, "pitch": 54, "duration": 241, "velocity": 72}, {"time": 105122, "pitch": 61, "duration": 241, "velocity": 72}, {"time": 105122, "pitch": 66, "duration": 241, "velocity": 72}, {"time": 105122, "pitch": 70, "duration": 241, "velocity": 72}, {"time": 105363, "pitch": 54, "duration": 241, "velocity": 101}, {"time": 105363, "pitch": 61, "duration": 241, "velocity": 101}, {"time": 105363, "pitch": 66, "duration": 241, "velocity": 101}, {"time": 105363, "pitch": 70, "duration": 241, "velocity": 101}, {"time": 105604, "pitch": 54, "duration": 473, "velocity": 101}, {"time": 105604, "pitch": 61, "duration": 473, "velocity": 101}, {"time": 105604, "pitch": 66, "duration": 473, "velocity": 101}, {"time": 105604, "pitch": 70, "duration": 473, "velocity": 101}, {"time": 106077, "pitch": 47, "duration": 482, "velocity": 100}, {"time": 106077, "pitch": 54, "duration": 482, "velocity": 100}, {"time": 106077, "pitch": 59, "duration": 482, "velocity": 100}, {"time": 106077, "pitch": 63, "duration": 482, "velocity": 100}, {"time": 106077, "pitch": 66, "duration": 482, "velocity": 100}, {"time": 106559, "pitch": 47, "duration": 482, "velocity": 100}, {"time": 106559, "pitch": 54, "duration": 482, "velocity": 100}, {"time": 106559, "pitch": 59, "duration": 482, "velocity": 100}, {"time": 106559, "pitch": 63, "duration": 482, "velocity": 100}, {"time": 106559, "pitch": 66, "duration": 482, "velocity": 100}, {"time": 107041, "pitch": 47, "duration": 242, "velocity": 84}, {"time": 107041, "pitch": 54, "duration": 242, "velocity": 84}, {"time": 107041, "pitch": 59, "duration": 242, "velocity": 84}, {"time": 107041, "pitch": 63, "duration": 242, "velocity": 84}, {"time": 107041, "pitch": 66, "duration": 242, "velocity": 84}, {"time": 107283, "pitch": 47, "duration": 477, "velocity": 100}, {"time": 107283, "pitch": 54, "duration": 477, "velocity": 100}, {"time": 107283, "pitch": 59, "duration": 477, "velocity": 100}, {"time": 107283, "pitch": 63, "duration": 477, "velocity": 100}, {"time": 107283, "pitch": 66, "duration": 477, "velocity": 100}, {"time": 107760, "pitch": 47, "duration": 477, "velocity": 100}, {"time": 107760, "pitch": 54, "duration": 477, "velocity": 100}, {"time": 107760, "pitch": 59, "duration": 477, "velocity": 100}, {"time": 107760, "pitch": 63, "duration": 477, "velocity": 100}, {"time": 107760, "pitch": 66, "duration": 477, "velocity": 100}, {"time": 108237, "pitch": 47, "duration": 242, "velocity": 100}, {"time": 108237, "pitch": 54, "duration": 242, "velocity": 100}, {"time": 108237, "pitch": 59, "duration": 242, "velocity": 100}, {"time": 108237, "pitch": 63, "duration": 242, "velocity": 100}, {"time": 108237, "pitch": 66, "duration": 242, "velocity": 100}, {"time": 108479, "pitch": 47, "duration": 241, "velocity": 100}, {"time": 108479, "pitch": 54, "duration": 241, "velocity": 100}, {"time": 108479, "pitch": 59, "duration": 241, "velocity": 100}, {"time": 108479, "pitch": 63, "duration": 241, "velocity": 100}, {"time": 108479, "pitch": 66, "duration": 241, "velocity": 100}, {"time": 108720, "pitch": 47, "duration": 241, "velocity": 100}, {"time": 108720, "pitch": 54, "duration": 241, "velocity": 100}, {"time": 108720, "pitch": 59, "duration": 241, "velocity": 100}, {"time": 108720, "pitch": 63, "duration": 241, "velocity": 100}, {"time": 108720, "pitch": 66, "duration": 241, "velocity": 100}, {"time": 108961, "pitch": 47, "duration": 241, "velocity": 100}, {"time": 108961, "pitch": 54, "duration": 241, "velocity": 100}, {"time": 108961, "pitch": 59, "duration": 241, "velocity": 100}, {"time": 108961, "pitch": 63, "duration": 241, "velocity": 100}, {"time": 108961, "pitch": 66, "duration": 241, "velocity": 100}, {"time": 109202, "pitch": 47, "duration": 242, "velocity": 100}, {"time": 109202, "pitch": 54, "duration": 242, "velocity": 100}, {"time": 109202, "pitch": 59, "duration": 242, "velocity": 100}, {"time": 109202, "pitch": 63, "duration": 242, "velocity": 100}, {"time": 109202, "pitch": 66, "duration": 242, "velocity": 100}, {"time": 109444, "pitch": 47, "duration": 236, "velocity": 100}, {"time": 109444, "pitch": 54, "duration": 236, "velocity": 100}, {"time": 109444, "pitch": 59, "duration": 236, "velocity": 100}, {"time": 109444, "pitch": 63, "duration": 236, "velocity": 100}, {"time": 109444, "pitch": 66, "duration": 236, "velocity": 100}, {"time": 109680, "pitch": 47, "duration": 236, "velocity": 100}, {"time": 109680, "pitch": 54, "duration": 236, "velocity": 100}, {"time": 109680, "pitch": 59, "duration": 236, "velocity": 100}, {"time": 109680, "pitch": 63, "duration": 236, "velocity": 100}, {"time": 109680, "pitch": 66, "duration": 236, "velocity": 100}, {"time": 109916, "pitch": 52, "duration": 482, "velocity": 100}, {"time": 109916, "pitch": 59, "duration": 482, "velocity": 100}, {"time": 109916, "pitch": 64, "duration": 482, "velocity": 100}, {"time": 109916, "pitch": 68, "duration": 482, "velocity": 100}, {"time": 110398, "pitch": 52, "duration": 483, "velocity": 100}, {"time": 110398, "pitch": 59, "duration": 483, "velocity": 100}, {"time": 110398, "pitch": 64, "duration": 483, "velocity": 100}, {"time": 110398, "pitch": 68, "duration": 483, "velocity": 100}, {"time": 110881, "pitch": 52, "duration": 241, "velocity": 86}, {"time": 110881, "pitch": 59, "duration": 241, "velocity": 86}, {"time": 110881, "pitch": 64, "duration": 241, "velocity": 86}, {"time": 110881, "pitch": 68, "duration": 241, "velocity": 86}, {"time": 111122, "pitch": 52, "duration": 478, "velocity": 100}, {"time": 111122, "pitch": 59, "duration": 478, "velocity": 100}, {"time": 111122, "pitch": 64, "duration": 478, "velocity": 100}, {"time": 111122, "pitch": 68, "duration": 478, "velocity": 100}, {"time": 111600, "pitch": 47, "duration": 477, "velocity": 100}, {"time": 111600, "pitch": 54, "duration": 477, "velocity": 100}, {"time": 111600, "pitch": 59, "duration": 477, "velocity": 100}, {"time": 111600, "pitch": 63, "duration": 477, "velocity": 100}, {"time": 111600, "pitch": 66, "duration": 477, "velocity": 100}, {"time": 112077, "pitch": 47, "duration": 241, "velocity": 86}, {"time": 112077, "pitch": 54, "duration": 241, "velocity": 86}, {"time": 112077, "pitch": 59, "duration": 241, "velocity": 86}, {"time": 112077, "pitch": 63, "duration": 241, "velocity": 86}, {"time": 112077, "pitch": 66, "duration": 241, "velocity": 86}, {"time": 112318, "pitch": 47, "duration": 483, "velocity": 100}, {"time": 112318, "pitch": 54, "duration": 483, "velocity": 100}, {"time": 112318, "pitch": 59, "duration": 483, "velocity": 100}, {"time": 112318, "pitch": 63, "duration": 483, "velocity": 100}, {"time": 112318, "pitch": 66, "duration": 483, "velocity": 100}, {"time": 112801, "pitch": 47, "duration": 241, "velocity": 76}, {"time": 112801, "pitch": 54, "duration": 241, "velocity": 76}, {"time": 112801, "pitch": 59, "duration": 241, "velocity": 76}, {"time": 112801, "pitch": 63, "duration": 241, "velocity": 76}, {"time": 112801, "pitch": 66, "duration": 241, "velocity": 76}, {"time": 113042, "pitch": 47, "duration": 241, "velocity": 89}, {"time": 113042, "pitch": 54, "duration": 241, "velocity": 89}, {"time": 113042, "pitch": 59, "duration": 241, "velocity": 89}, {"time": 113042, "pitch": 63, "duration": 241, "velocity": 89}, {"time": 113042, "pitch": 66, "duration": 241, "velocity": 89}, {"time": 113283, "pitch": 47, "duration": 473, "velocity": 100}, {"time": 113283, "pitch": 54, "duration": 473, "velocity": 100}, {"time": 113283, "pitch": 59, "duration": 473, "velocity": 100}, {"time": 113283, "pitch": 63, "duration": 473, "velocity": 100}, {"time": 113283, "pitch": 66, "duration": 473, "velocity": 100}, {"time": 113756, "pitch": 49, "duration": 482, "velocity": 100}, {"time": 113756, "pitch": 56, "duration": 482, "velocity": 100}, {"time": 113756, "pitch": 61, "duration": 482, "velocity": 100}, {"time": 113756, "pitch": 64, "duration": 482, "velocity": 100}, {"time": 113756, "pitch": 68, "duration": 482, "velocity": 100}, {"time": 114238, "pitch": 49, "duration": 482, "velocity": 100}, {"time": 114238, "pitch": 56, "duration": 482, "velocity": 100}, {"time": 114238, "pitch": 61, "duration": 482, "velocity": 100}, {"time": 114238, "pitch": 64, "duration": 482, "velocity": 100}, {"time": 114238, "pitch": 68, "duration": 482, "velocity": 100}, {"time": 114720, "pitch": 49, "duration": 242, "velocity": 79}, {"time": 114720, "pitch": 56, "duration": 242, "velocity": 79}, {"time": 114720, "pitch": 61, "duration": 242, "velocity": 79}, {"time": 114720, "pitch": 64, "duration": 242, "velocity": 79}, {"time": 114720, "pitch": 68, "duration": 242, "velocity": 79}, {"time": 114962, "pitch": 49, "duration": 477, "velocity": 100}, {"time": 114962, "pitch": 56, "duration": 477, "velocity": 100}, {"time": 114962, "pitch": 61, "duration": 477, "velocity": 100}, {"time": 114962, "pitch": 64, "duration": 477, "velocity": 100}, {"time": 114962, "pitch": 68, "duration": 477, "velocity": 100}, {"time": 115439, "pitch": 42, "duration": 478, "velocity": 100}, {"time": 115439, "pitch": 49, "duration": 478, "velocity": 100}, {"time": 115439, "pitch": 52, "duration": 478, "velocity": 100}, {"time": 115439, "pitch": 58, "duration": 478, "velocity": 100}, {"time": 115439, "pitch": 61, "duration": 478, "velocity": 100}, {"time": 115439, "pitch": 66, "duration": 478, "velocity": 100}, {"time": 115917, "pitch": 42, "duration": 241, "velocity": 90}, {"time": 115917, "pitch": 49, "duration": 241, "velocity": 90}, {"time": 115917, "pitch": 52, "duration": 241, "velocity": 90}, {"time": 115917, "pitch": 58, "duration": 241, "velocity": 90}, {"time": 115917, "pitch": 61, "duration": 241, "velocity": 90}, {"time": 115917, "pitch": 66, "duration": 241, "velocity": 90}, {"time": 116158, "pitch": 42, "duration": 241, "velocity": 88}, {"time": 116158, "pitch": 49, "duration": 241, "velocity": 88}, {"time": 116158, "pitch": 52, "duration": 241, "velocity": 88}, {"time": 116158, "pitch": 58, "duration": 241, "velocity": 88}, {"time": 116158, "pitch": 61, "duration": 241, "velocity": 88}, {"time": 116158, "pitch": 66, "duration": 241, "velocity": 88}, {"time": 116399, "pitch": 42, "duration": 482, "velocity": 100}, {"time": 116399, "pitch": 49, "duration": 482, "velocity": 100}, {"time": 116399, "pitch": 52, "duration": 482, "velocity": 100}, {"time": 116399, "pitch": 58, "duration": 482, "velocity": 100}, {"time": 116399, "pitch": 61, "duration": 482, "velocity": 100}, {"time": 116399, "pitch": 66, "duration": 482, "velocity": 100}, {"time": 116881, "pitch": 42, "duration": 242, "velocity": 85}, {"time": 116881, "pitch": 49, "duration": 242, "velocity": 85}, {"time": 116881, "pitch": 52, "duration": 242, "velocity": 85}, {"time": 116881, "pitch": 58, "duration": 242, "velocity": 85}, {"time": 116881, "pitch": 61, "duration": 242, "velocity": 85}, {"time": 116881, "pitch": 66, "duration": 242, "velocity": 85}, {"time": 117123, "pitch": 42, "duration": 472, "velocity": 100}, {"time": 117123, "pitch": 49, "duration": 472, "velocity": 100}, {"time": 117123, "pitch": 52, "duration": 472, "velocity": 100}, {"time": 117123, "pitch": 58, "duration": 472, "velocity": 100}, {"time": 117123, "pitch": 61, "duration": 472, "velocity": 100}, {"time": 117123, "pitch": 66, "duration": 472, "velocity": 100}, {"time": 117595, "pitch": 42, "duration": 483, "velocity": 100}, {"time": 117595, "pitch": 49, "duration": 483, "velocity": 100}, {"time": 117595, "pitch": 54, "duration": 483, "velocity": 100}, {"time": 117595, "pitch": 57, "duration": 483, "velocity": 100}, {"time": 117595, "pitch": 61, "duration": 483, "velocity": 100}, {"time": 117595, "pitch": 66, "duration": 483, "velocity": 100}, {"time": 118078, "pitch": 42, "duration": 482, "velocity": 100}, {"time": 118078, "pitch": 49, "duration": 482, "velocity": 100}, {"time": 118078, "pitch": 54, "duration": 482, "velocity": 100}, {"time": 118078, "pitch": 57, "duration": 482, "velocity": 100}, {"time": 118078, "pitch": 61, "duration": 482, "velocity": 100}, {"time": 118078, "pitch": 66, "duration": 482, "velocity": 100}, {"time": 118560, "pitch": 42, "duration": 241, "velocity": 82}, {"time": 118560, "pitch": 49, "duration": 241, "velocity": 82}, {"time": 118560, "pitch": 54, "duration": 241, "velocity": 82}, {"time": 118560, "pitch": 57, "duration": 241, "velocity": 82}, {"time": 118560, "pitch": 61, "duration": 241, "velocity": 82}, {"time": 118560, "pitch": 66, "duration": 241, "velocity": 82}, {"time": 118801, "pitch": 42, "duration": 483, "velocity": 100}, {"time": 118801, "pitch": 49, "duration": 483, "velocity": 100}, {"time": 118801, "pitch": 54, "duration": 483, "velocity": 100}, {"time": 118801, "pitch": 57, "duration": 483, "velocity": 100}, {"time": 118801, "pitch": 61, "duration": 483, "velocity": 100}, {"time": 118801, "pitch": 66, "duration": 483, "velocity": 100}, {"time": 119284, "pitch": 44, "duration": 477, "velocity": 100}, {"time": 119284, "pitch": 51, "duration": 477, "velocity": 100}, {"time": 119284, "pitch": 56, "duration": 477, "velocity": 100}, {"time": 119284, "pitch": 59, "duration": 477, "velocity": 100}, {"time": 119284, "pitch": 63, "duration": 477, "velocity": 100}, {"time": 119284, "pitch": 68, "duration": 477, "velocity": 100}, {"time": 119761, "pitch": 44, "duration": 236, "velocity": 83}, {"time": 119761, "pitch": 51, "duration": 236, "velocity": 83}, {"time": 119761, "pitch": 56, "duration": 236, "velocity": 83}, {"time": 119761, "pitch": 59, "duration": 236, "velocity": 83}, {"time": 119761, "pitch": 63, "duration": 236, "velocity": 83}, {"time": 119761, "pitch": 68, "duration": 236, "velocity": 83}, {"time": 119997, "pitch": 44, "duration": 242, "velocity": 82}, {"time": 119997, "pitch": 51, "duration": 242, "velocity": 82}, {"time": 119997, "pitch": 56, "duration": 242, "velocity": 82}, {"time": 119997, "pitch": 59, "duration": 242, "velocity": 82}, {"time": 119997, "pitch": 63, "duration": 242, "velocity": 82}, {"time": 119997, "pitch": 68, "duration": 242, "velocity": 82}, {"time": 120239, "pitch": 44, "duration": 482, "velocity": 92}, {"time": 120239, "pitch": 51, "duration": 482, "velocity": 92}, {"time": 120239, "pitch": 56, "duration": 482, "velocity": 92}, {"time": 120239, "pitch": 59, "duration": 482, "velocity": 92}, {"time": 120239, "pitch": 63, "duration": 482, "velocity": 92}, {"time": 120239, "pitch": 68, "duration": 482, "velocity": 92}, {"time": 120721, "pitch": 44, "duration": 241, "velocity": 84}, {"time": 120721, "pitch": 51, "duration": 241, "velocity": 84}, {"time": 120721, "pitch": 56, "duration": 241, "velocity": 84}, {"time": 120721, "pitch": 59, "duration": 241, "velocity": 84}, {"time": 120721, "pitch": 63, "duration": 241, "velocity": 84}, {"time": 120721, "pitch": 68, "duration": 241, "velocity": 84}, {"time": 120962, "pitch": 44, "duration": 483, "velocity": 100}, {"time": 120962, "pitch": 51, "duration": 483, "velocity": 100}, {"time": 120962, "pitch": 56, "duration": 483, "velocity": 100}, {"time": 120962, "pitch": 59, "duration": 483, "velocity": 100}, {"time": 120962, "pitch": 63, "duration": 483, "velocity": 100}, {"time": 120962, "pitch": 68, "duration": 483, "velocity": 100}, {"time": 121445, "pitch": 47, "duration": 472, "velocity": 100}, {"time": 121445, "pitch": 54, "duration": 472, "velocity": 100}, {"time": 121445, "pitch": 59, "duration": 472, "velocity": 100}, {"time": 121445, "pitch": 64, "duration": 472, "velocity": 100}, {"time": 121445, "pitch": 71, "duration": 472, "velocity": 100}, {"time": 121917, "pitch": 47, "duration": 483, "velocity": 100}, {"time": 121917, "pitch": 54, "duration": 483, "velocity": 100}, {"time": 121917, "pitch": 59, "duration": 483, "velocity": 100}, {"time": 121917, "pitch": 64, "duration": 483, "velocity": 100}, {"time": 121917, "pitch": 71, "duration": 483, "velocity": 100}, {"time": 122400, "pitch": 47, "duration": 241, "velocity": 87}, {"time": 122400, "pitch": 54, "duration": 241, "velocity": 87}, {"time": 122400, "pitch": 59, "duration": 241, "velocity": 87}, {"time": 122400, "pitch": 64, "duration": 241, "velocity": 87}, {"time": 122400, "pitch": 71, "duration": 241, "velocity": 87}, {"time": 122641, "pitch": 47, "duration": 482, "velocity": 100}, {"time": 122641, "pitch": 54, "duration": 482, "velocity": 100}, {"time": 122641, "pitch": 59, "duration": 482, "velocity": 100}, {"time": 122641, "pitch": 64, "duration": 482, "velocity": 100}, {"time": 122641, "pitch": 71, "duration": 482, "velocity": 100}, {"time": 123123, "pitch": 47, "duration": 478, "velocity": 100}, {"time": 123123, "pitch": 54, "duration": 478, "velocity": 100}, {"time": 123123, "pitch": 59, "duration": 478, "velocity": 100}, {"time": 123123, "pitch": 63, "duration": 478, "velocity": 100}, {"time": 123123, "pitch": 71, "duration": 478, "velocity": 100}, {"time": 123601, "pitch": 47, "duration": 236, "velocity": 100}, {"time": 123601, "pitch": 54, "duration": 236, "velocity": 100}, {"time": 123601, "pitch": 59, "duration": 236, "velocity": 100}, {"time": 123601, "pitch": 63, "duration": 236, "velocity": 100}, {"time": 123601, "pitch": 71, "duration": 236, "velocity": 100}, {"time": 123837, "pitch": 47, "duration": 241, "velocity": 100}, {"time": 123837, "pitch": 54, "duration": 241, "velocity": 100}, {"time": 123837, "pitch": 59, "duration": 241, "velocity": 100}, {"time": 123837, "pitch": 63, "duration": 241, "velocity": 100}, {"time": 123837, "pitch": 71, "duration": 241, "velocity": 100}, {"time": 124078, "pitch": 47, "duration": 241, "velocity": 100}, {"time": 124078, "pitch": 54, "duration": 241, "velocity": 100}, {"time": 124078, "pitch": 59, "duration": 241, "velocity": 100}, {"time": 124078, "pitch": 63, "duration": 241, "velocity": 100}, {"time": 124078, "pitch": 71, "duration": 241, "velocity": 100}, {"time": 124319, "pitch": 47, "duration": 242, "velocity": 100}, {"time": 124319, "pitch": 54, "duration": 242, "velocity": 100}, {"time": 124319, "pitch": 59, "duration": 242, "velocity": 100}, {"time": 124319, "pitch": 63, "duration": 242, "velocity": 100}, {"time": 124319, "pitch": 71, "duration": 242, "velocity": 100}, {"time": 124561, "pitch": 47, "duration": 241, "velocity": 100}, {"time": 124561, "pitch": 54, "duration": 241, "velocity": 100}, {"time": 124561, "pitch": 59, "duration": 241, "velocity": 100}, {"time": 124561, "pitch": 63, "duration": 241, "velocity": 100}, {"time": 124561, "pitch": 71, "duration": 241, "velocity": 100}, {"time": 124802, "pitch": 47, "duration": 241, "velocity": 100}, {"time": 124802, "pitch": 54, "duration": 241, "velocity": 100}, {"time": 124802, "pitch": 59, "duration": 241, "velocity": 100}, {"time": 124802, "pitch": 63, "duration": 241, "velocity": 100}, {"time": 124802, "pitch": 71, "duration": 241, "velocity": 100}, {"time": 125043, "pitch": 47, "duration": 241, "velocity": 100}, {"time": 125043, "pitch": 54, "duration": 241, "velocity": 100}, {"time": 125043, "pitch": 59, "duration": 241, "velocity": 100}, {"time": 125043, "pitch": 63, "duration": 241, "velocity": 100}, {"time": 125043, "pitch": 71, "duration": 241, "velocity": 100}, {"time": 125284, "pitch": 52, "duration": 473, "velocity": 100}, {"time": 125284, "pitch": 59, "duration": 473, "velocity": 100}, {"time": 125284, "pitch": 64, "duration": 473, "velocity": 100}, {"time": 125284, "pitch": 68, "duration": 473, "velocity": 100}, {"time": 125757, "pitch": 52, "duration": 482, "velocity": 100}, {"time": 125757, "pitch": 59, "duration": 482, "velocity": 100}, {"time": 125757, "pitch": 64, "duration": 482, "velocity": 100}, {"time": 125757, "pitch": 68, "duration": 482, "velocity": 100}, {"time": 126239, "pitch": 52, "duration": 241, "velocity": 86}, {"time": 126239, "pitch": 59, "duration": 241, "velocity": 86}, {"time": 126239, "pitch": 64, "duration": 241, "velocity": 86}, {"time": 126239, "pitch": 68, "duration": 241, "velocity": 86}, {"time": 126480, "pitch": 52, "duration": 483, "velocity": 100}, {"time": 126480, "pitch": 59, "duration": 483, "velocity": 100}, {"time": 126480, "pitch": 64, "duration": 483, "velocity": 100}, {"time": 126480, "pitch": 68, "duration": 483, "velocity": 100}, {"time": 126963, "pitch": 47, "duration": 477, "velocity": 100}, {"time": 126963, "pitch": 54, "duration": 477, "velocity": 100}, {"time": 126963, "pitch": 59, "duration": 477, "velocity": 100}, {"time": 126963, "pitch": 63, "duration": 477, "velocity": 100}, {"time": 126963, "pitch": 66, "duration": 477, "velocity": 100}, {"time": 127440, "pitch": 47, "duration": 236, "velocity": 86}, {"time": 127440, "pitch": 54, "duration": 236, "velocity": 86}, {"time": 127440, "pitch": 59, "duration": 236, "velocity": 86}, {"time": 127440, "pitch": 63, "duration": 236, "velocity": 86}, {"time": 127440, "pitch": 66, "duration": 236, "velocity": 86}, {"time": 127676, "pitch": 47, "duration": 483, "velocity": 100}, {"time": 127676, "pitch": 54, "duration": 483, "velocity": 100}, {"time": 127676, "pitch": 59, "duration": 483, "velocity": 100}, {"time": 127676, "pitch": 63, "duration": 483, "velocity": 100}, {"time": 127676, "pitch": 66, "duration": 483, "velocity": 100}, {"time": 128159, "pitch": 47, "duration": 241, "velocity": 76}, {"time": 128159, "pitch": 54, "duration": 241, "velocity": 76}, {"time": 128159, "pitch": 59, "duration": 241, "velocity": 76}, {"time": 128159, "pitch": 63, "duration": 241, "velocity": 76}, {"time": 128159, "pitch": 66, "duration": 241, "velocity": 76}, {"time": 128400, "pitch": 47, "duration": 241, "velocity": 89}, {"time": 128400, "pitch": 54, "duration": 241, "velocity": 89}, {"time": 128400, "pitch": 59, "duration": 241, "velocity": 89}, {"time": 128400, "pitch": 63, "duration": 241, "velocity": 89}, {"time": 128400, "pitch": 66, "duration": 241, "velocity": 89}, {"time": 128641, "pitch": 47, "duration": 483, "velocity": 100}, {"time": 128641, "pitch": 54, "duration": 483, "velocity": 100}, {"time": 128641, "pitch": 59, "duration": 483, "velocity": 100}, {"time": 128641, "pitch": 63, "duration": 483, "velocity": 100}, {"time": 128641, "pitch": 66, "duration": 483, "velocity": 100}, {"time": 129124, "pitch": 49, "duration": 472, "velocity": 100}, {"time": 129124, "pitch": 56, "duration": 472, "velocity": 100}, {"time": 129124, "pitch": 61, "duration": 472, "velocity": 100}, {"time": 129124, "pitch": 64, "duration": 472, "velocity": 100}, {"time": 129124, "pitch": 68, "duration": 472, "velocity": 100}, {"time": 129596, "pitch": 49, "duration": 483, "velocity": 100}, {"time": 129596, "pitch": 56, "duration": 483, "velocity": 100}, {"time": 129596, "pitch": 61, "duration": 483, "velocity": 100}, {"time": 129596, "pitch": 64, "duration": 483, "velocity": 100}, {"time": 129596, "pitch": 68, "duration": 483, "velocity": 100}, {"time": 130079, "pitch": 49, "duration": 241, "velocity": 79}, {"time": 130079, "pitch": 56, "duration": 241, "velocity": 79}, {"time": 130079, "pitch": 61, "duration": 241, "velocity": 79}, {"time": 130079, "pitch": 64, "duration": 241, "velocity": 79}, {"time": 130079, "pitch": 68, "duration": 241, "velocity": 79}, {"time": 130320, "pitch": 49, "duration": 482, "velocity": 100}, {"time": 130320, "pitch": 56, "duration": 482, "velocity": 100}, {"time": 130320, "pitch": 61, "duration": 482, "velocity": 100}, {"time": 130320, "pitch": 64, "duration": 482, "velocity": 100}, {"time": 130320, "pitch": 68, "duration": 482, "velocity": 100}, {"time": 130802, "pitch": 42, "duration": 478, "velocity": 100}, {"time": 130802, "pitch": 49, "duration": 478, "velocity": 100}, {"time": 130802, "pitch": 52, "duration": 478, "velocity": 100}, {"time": 130802, "pitch": 58, "duration": 478, "velocity": 100}, {"time": 130802, "pitch": 61, "duration": 478, "velocity": 100}, {"time": 130802, "pitch": 66, "duration": 478, "velocity": 100}, {"time": 131280, "pitch": 42, "duration": 236, "velocity": 90}, {"time": 131280, "pitch": 49, "duration": 236, "velocity": 90}, {"time": 131280, "pitch": 52, "duration": 236, "velocity": 90}, {"time": 131280, "pitch": 58, "duration": 236, "velocity": 90}, {"time": 131280, "pitch": 61, "duration": 236, "velocity": 90}, {"time": 131280, "pitch": 66, "duration": 236, "velocity": 90}, {"time": 131516, "pitch": 42, "duration": 241, "velocity": 88}, {"time": 131516, "pitch": 49, "duration": 241, "velocity": 88}, {"time": 131516, "pitch": 52, "duration": 241, "velocity": 88}, {"time": 131516, "pitch": 58, "duration": 241, "velocity": 88}, {"time": 131516, "pitch": 61, "duration": 241, "velocity": 88}, {"time": 131516, "pitch": 66, "duration": 241, "velocity": 88}, {"time": 131757, "pitch": 42, "duration": 483, "velocity": 100}, {"time": 131757, "pitch": 49, "duration": 483, "velocity": 100}, {"time": 131757, "pitch": 52, "duration": 483, "velocity": 100}, {"time": 131757, "pitch": 58, "duration": 483, "velocity": 100}, {"time": 131757, "pitch": 61, "duration": 483, "velocity": 100}, {"time": 131757, "pitch": 66, "duration": 483, "velocity": 100}, {"time": 132240, "pitch": 42, "duration": 241, "velocity": 85}, {"time": 132240, "pitch": 49, "duration": 241, "velocity": 85}, {"time": 132240, "pitch": 52, "duration": 241, "velocity": 85}, {"time": 132240, "pitch": 58, "duration": 241, "velocity": 85}, {"time": 132240, "pitch": 61, "duration": 241, "velocity": 85}, {"time": 132240, "pitch": 66, "duration": 241, "velocity": 85}, {"time": 132481, "pitch": 42, "duration": 482, "velocity": 100}, {"time": 132481, "pitch": 49, "duration": 482, "velocity": 100}, {"time": 132481, "pitch": 52, "duration": 482, "velocity": 100}, {"time": 132481, "pitch": 58, "duration": 482, "velocity": 100}, {"time": 132481, "pitch": 61, "duration": 482, "velocity": 100}, {"time": 132481, "pitch": 66, "duration": 482, "velocity": 100}, {"time": 132963, "pitch": 42, "duration": 473, "velocity": 100}, {"time": 132963, "pitch": 49, "duration": 473, "velocity": 100}, {"time": 132963, "pitch": 54, "duration": 473, "velocity": 100}, {"time": 132963, "pitch": 57, "duration": 473, "velocity": 100}, {"time": 132963, "pitch": 61, "duration": 473, "velocity": 100}, {"time": 132963, "pitch": 66, "duration": 473, "velocity": 100}, {"time": 133436, "pitch": 42, "duration": 482, "velocity": 100}, {"time": 133436, "pitch": 49, "duration": 482, "velocity": 100}, {"time": 133436, "pitch": 54, "duration": 482, "velocity": 100}, {"time": 133436, "pitch": 57, "duration": 482, "velocity": 100}, {"time": 133436, "pitch": 61, "duration": 482, "velocity": 100}, {"time": 133436, "pitch": 66, "duration": 482, "velocity": 100}, {"time": 133918, "pitch": 42, "duration": 241, "velocity": 82}, {"time": 133918, "pitch": 49, "duration": 241, "velocity": 82}, {"time": 133918, "pitch": 54, "duration": 241, "velocity": 82}, {"time": 133918, "pitch": 57, "duration": 241, "velocity": 82}, {"time": 133918, "pitch": 61, "duration": 241, "velocity": 82}, {"time": 133918, "pitch": 66, "duration": 241, "velocity": 82}, {"time": 134159, "pitch": 42, "duration": 483, "velocity": 100}, {"time": 134159, "pitch": 49, "duration": 483, "velocity": 100}, {"time": 134159, "pitch": 54, "duration": 483, "velocity": 100}, {"time": 134159, "pitch": 57, "duration": 483, "velocity": 100}, {"time": 134159, "pitch": 61, "duration": 483, "velocity": 100}, {"time": 134159, "pitch": 66, "duration": 483, "velocity": 100}, {"time": 134642, "pitch": 47, "duration": 477, "velocity": 100}, {"time": 134642, "pitch": 54, "duration": 477, "velocity": 100}, {"time": 134642, "pitch": 59, "duration": 477, "velocity": 100}, {"time": 134642, "pitch": 63, "duration": 477, "velocity": 100}, {"time": 134642, "pitch": 66, "duration": 477, "velocity": 100}, {"time": 135119, "pitch": 47, "duration": 236, "velocity": 83}, {"time": 135119, "pitch": 54, "duration": 236, "velocity": 83}, {"time": 135119, "pitch": 59, "duration": 236, "velocity": 83}, {"time": 135119, "pitch": 63, "duration": 236, "velocity": 83}, {"time": 135119, "pitch": 66, "duration": 236, "velocity": 83}, {"time": 135355, "pitch": 47, "duration": 242, "velocity": 82}, {"time": 135355, "pitch": 54, "duration": 242, "velocity": 82}, {"time": 135355, "pitch": 59, "duration": 242, "velocity": 82}, {"time": 135355, "pitch": 63, "duration": 242, "velocity": 82}, {"time": 135355, "pitch": 66, "duration": 242, "velocity": 82}, {"time": 135597, "pitch": 47, "duration": 482, "velocity": 92}, {"time": 135597, "pitch": 54, "duration": 482, "velocity": 92}, {"time": 135597, "pitch": 59, "duration": 482, "velocity": 92}, {"time": 135597, "pitch": 63, "duration": 482, "velocity": 92}, {"time": 135597, "pitch": 66, "duration": 482, "velocity": 92}, {"time": 136079, "pitch": 47, "duration": 241, "velocity": 84}, {"time": 136079, "pitch": 54, "duration": 241, "velocity": 84}, {"time": 136079, "pitch": 59, "duration": 241, "velocity": 84}, {"time": 136079, "pitch": 63, "duration": 241, "velocity": 84}, {"time": 136079, "pitch": 66, "duration": 241, "velocity": 84}, {"time": 136320, "pitch": 47, "duration": 483, "velocity": 100}, {"time": 136320, "pitch": 54, "duration": 483, "velocity": 100}, {"time": 136320, "pitch": 59, "duration": 483, "velocity": 100}, {"time": 136320, "pitch": 63, "duration": 483, "velocity": 100}, {"time": 136320, "pitch": 66, "duration": 483, "velocity": 100}, {"time": 136803, "pitch": 47, "duration": 472, "velocity": 100}, {"time": 136803, "pitch": 52, "duration": 472, "velocity": 100}, {"time": 136803, "pitch": 57, "duration": 472, "velocity": 100}, {"time": 136803, "pitch": 64, "duration": 472, "velocity": 100}, {"time": 136803, "pitch": 71, "duration": 472, "velocity": 100}, {"time": 137275, "pitch": 47, "duration": 483, "velocity": 100}, {"time": 137275, "pitch": 52, "duration": 483, "velocity": 100}, {"time": 137275, "pitch": 57, "duration": 483, "velocity": 100}, {"time": 137275, "pitch": 64, "duration": 483, "velocity": 100}, {"time": 137275, "pitch": 71, "duration": 483, "velocity": 100}, {"time": 137758, "pitch": 47, "duration": 241, "velocity": 87}, {"time": 137758, "pitch": 52, "duration": 241, "velocity": 87}, {"time": 137758, "pitch": 57, "duration": 241, "velocity": 87}, {"time": 137758, "pitch": 64, "duration": 241, "velocity": 87}, {"time": 137758, "pitch": 71, "duration": 241, "velocity": 87}, {"time": 137999, "pitch": 47, "duration": 482, "velocity": 100}, {"time": 137999, "pitch": 52, "duration": 482, "velocity": 100}, {"time": 137999, "pitch": 57, "duration": 482, "velocity": 100}, {"time": 137999, "pitch": 64, "duration": 482, "velocity": 100}, {"time": 137999, "pitch": 71, "duration": 482, "velocity": 100}, {"time": 138481, "pitch": 47, "duration": 483, "velocity": 100}, {"time": 138481, "pitch": 52, "duration": 483, "velocity": 100}, {"time": 138481, "pitch": 56, "duration": 483, "velocity": 100}, {"time": 138481, "pitch": 64, "duration": 483, "velocity": 100}, {"time": 138481, "pitch": 71, "duration": 483, "velocity": 100}, {"time": 138964, "pitch": 47, "duration": 241, "velocity": 100}, {"time": 138964, "pitch": 52, "duration": 241, "velocity": 100}, {"time": 138964, "pitch": 56, "duration": 241, "velocity": 100}, {"time": 138964, "pitch": 64, "duration": 241, "velocity": 100}, {"time": 138964, "pitch": 71, "duration": 241, "velocity": 100}, {"time": 139205, "pitch": 47, "duration": 236, "velocity": 100}, {"time": 139205, "pitch": 52, "duration": 236, "velocity": 100}, {"time": 139205, "pitch": 56, "duration": 236, "velocity": 100}, {"time": 139205, "pitch": 64, "duration": 236, "velocity": 100}, {"time": 139205, "pitch": 71, "duration": 236, "velocity": 100}, {"time": 139441, "pitch": 47, "duration": 236, "velocity": 100}, {"time": 139441, "pitch": 52, "duration": 236, "velocity": 100}, {"time": 139441, "pitch": 56, "duration": 236, "velocity": 100}, {"time": 139441, "pitch": 64, "duration": 236, "velocity": 100}, {"time": 139441, "pitch": 71, "duration": 236, "velocity": 100}, {"time": 139677, "pitch": 47, "duration": 242, "velocity": 100}, {"time": 139677, "pitch": 52, "duration": 242, "velocity": 100}, {"time": 139677, "pitch": 56, "duration": 242, "velocity": 100}, {"time": 139677, "pitch": 64, "duration": 242, "velocity": 100}, {"time": 139677, "pitch": 71, "duration": 242, "velocity": 100}, {"time": 139919, "pitch": 47, "duration": 241, "velocity": 100}, {"time": 139919, "pitch": 52, "duration": 241, "velocity": 100}, {"time": 139919, "pitch": 56, "duration": 241, "velocity": 100}, {"time": 139919, "pitch": 64, "duration": 241, "velocity": 100}, {"time": 139919, "pitch": 71, "duration": 241, "velocity": 100}, {"time": 140160, "pitch": 47, "duration": 241, "velocity": 100}, {"time": 140160, "pitch": 52, "duration": 241, "velocity": 100}, {"time": 140160, "pitch": 56, "duration": 241, "velocity": 100}, {"time": 140160, "pitch": 64, "duration": 241, "velocity": 100}, {"time": 140160, "pitch": 71, "duration": 241, "velocity": 100}, {"time": 140401, "pitch": 47, "duration": 241, "velocity": 100}, {"time": 140401, "pitch": 52, "duration": 241, "velocity": 100}, {"time": 140401, "pitch": 56, "duration": 241, "velocity": 100}, {"time": 140401, "pitch": 64, "duration": 241, "velocity": 100}, {"time": 140401, "pitch": 71, "duration": 241, "velocity": 100}, {"time": 140642, "pitch": 49, "duration": 242, "velocity": 100}, {"time": 140642, "pitch": 56, "duration": 242, "velocity": 100}, {"time": 140642, "pitch": 61, "duration": 242, "velocity": 100}, {"time": 140642, "pitch": 64, "duration": 242, "velocity": 100}, {"time": 140642, "pitch": 68, "duration": 242, "velocity": 100}, {"time": 141125, "pitch": 49, "duration": 472, "velocity": 100}, {"time": 141125, "pitch": 56, "duration": 472, "velocity": 100}, {"time": 141125, "pitch": 61, "duration": 472, "velocity": 100}, {"time": 141125, "pitch": 64, "duration": 472, "velocity": 100}, {"time": 141125, "pitch": 68, "duration": 472, "velocity": 100}, {"time": 141597, "pitch": 49, "duration": 241, "velocity": 82}, {"time": 141597, "pitch": 56, "duration": 241, "velocity": 82}, {"time": 141597, "pitch": 61, "duration": 241, "velocity": 82}, {"time": 141597, "pitch": 64, "duration": 241, "velocity": 82}, {"time": 141597, "pitch": 68, "duration": 241, "velocity": 82}, {"time": 141838, "pitch": 49, "duration": 483, "velocity": 97}, {"time": 141838, "pitch": 56, "duration": 483, "velocity": 97}, {"time": 141838, "pitch": 61, "duration": 483, "velocity": 97}, {"time": 141838, "pitch": 64, "duration": 483, "velocity": 97}, {"time": 141838, "pitch": 68, "duration": 483, "velocity": 97}, {"time": 142321, "pitch": 42, "duration": 482, "velocity": 100}, {"time": 142321, "pitch": 49, "duration": 482, "velocity": 100}, {"time": 142321, "pitch": 52, "duration": 482, "velocity": 100}, {"time": 142321, "pitch": 58, "duration": 482, "velocity": 100}, {"time": 142321, "pitch": 61, "duration": 482, "velocity": 100}, {"time": 142321, "pitch": 66, "duration": 482, "velocity": 100}, {"time": 142803, "pitch": 42, "duration": 241, "velocity": 81}, {"time": 142803, "pitch": 49, "duration": 241, "velocity": 81}, {"time": 142803, "pitch": 52, "duration": 241, "velocity": 81}, {"time": 142803, "pitch": 58, "duration": 241, "velocity": 81}, {"time": 142803, "pitch": 61, "duration": 241, "velocity": 81}, {"time": 142803, "pitch": 66, "duration": 241, "velocity": 81}, {"time": 143044, "pitch": 42, "duration": 714, "velocity": 100}, {"time": 143044, "pitch": 49, "duration": 714, "velocity": 100}, {"time": 143044, "pitch": 52, "duration": 714, "velocity": 100}, {"time": 143044, "pitch": 58, "duration": 714, "velocity": 100}, {"time": 143044, "pitch": 61, "duration": 714, "velocity": 100}, {"time": 143044, "pitch": 66, "duration": 714, "velocity": 100}, {"time": 143758, "pitch": 42, "duration": 241, "velocity": 83}, {"time": 143758, "pitch": 49, "duration": 241, "velocity": 83}, {"time": 143758, "pitch": 52, "duration": 241, "velocity": 83}, {"time": 143758, "pitch": 58, "duration": 241, "velocity": 83}, {"time": 143758, "pitch": 61, "duration": 241, "velocity": 83}, {"time": 143758, "pitch": 66, "duration": 241, "velocity": 83}, {"time": 143999, "pitch": 42, "duration": 242, "velocity": 100}, {"time": 143999, "pitch": 49, "duration": 242, "velocity": 100}, {"time": 143999, "pitch": 52, "duration": 242, "velocity": 100}, {"time": 143999, "pitch": 58, "duration": 242, "velocity": 100}, {"time": 143999, "pitch": 61, "duration": 242, "velocity": 100}, {"time": 143999, "pitch": 66, "duration": 242, "velocity": 100}, {"time": 144241, "pitch": 42, "duration": 120, "velocity": 68}, {"time": 144241, "pitch": 49, "duration": 120, "velocity": 68}, {"time": 144241, "pitch": 52, "duration": 120, "velocity": 68}, {"time": 144241, "pitch": 58, "duration": 120, "velocity": 68}, {"time": 144482, "pitch": 49, "duration": 241, "velocity": 100}, {"time": 144482, "pitch": 56, "duration": 241, "velocity": 100}, {"time": 144482, "pitch": 61, "duration": 241, "velocity": 100}, {"time": 144482, "pitch": 64, "duration": 241, "velocity": 100}, {"time": 144482, "pitch": 68, "duration": 241, "velocity": 100}, {"time": 144964, "pitch": 49, "duration": 473, "velocity": 100}, {"time": 144964, "pitch": 56, "duration": 473, "velocity": 100}, {"time": 144964, "pitch": 61, "duration": 473, "velocity": 100}, {"time": 144964, "pitch": 64, "duration": 473, "velocity": 100}, {"time": 144964, "pitch": 68, "duration": 473, "velocity": 100}, {"time": 145437, "pitch": 49, "duration": 241, "velocity": 82}, {"time": 145437, "pitch": 56, "duration": 241, "velocity": 82}, {"time": 145437, "pitch": 61, "duration": 241, "velocity": 82}, {"time": 145437, "pitch": 64, "duration": 241, "velocity": 82}, {"time": 145437, "pitch": 68, "duration": 241, "velocity": 82}, {"time": 145678, "pitch": 49, "duration": 482, "velocity": 97}, {"time": 145678, "pitch": 56, "duration": 482, "velocity": 97}, {"time": 145678, "pitch": 61, "duration": 482, "velocity": 97}, {"time": 145678, "pitch": 64, "duration": 482, "velocity": 97}, {"time": 145678, "pitch": 68, "duration": 482, "velocity": 97}, {"time": 146160, "pitch": 42, "duration": 483, "velocity": 100}, {"time": 146160, "pitch": 49, "duration": 483, "velocity": 100}, {"time": 146160, "pitch": 52, "duration": 483, "velocity": 100}, {"time": 146160, "pitch": 58, "duration": 483, "velocity": 100}, {"time": 146160, "pitch": 61, "duration": 483, "velocity": 100}, {"time": 146160, "pitch": 66, "duration": 483, "velocity": 100}, {"time": 146643, "pitch": 42, "duration": 241, "velocity": 81}, {"time": 146643, "pitch": 49, "duration": 241, "velocity": 81}, {"time": 146643, "pitch": 52, "duration": 241, "velocity": 81}, {"time": 146643, "pitch": 58, "duration": 241, "velocity": 81}, {"time": 146643, "pitch": 61, "duration": 241, "velocity": 81}, {"time": 146643, "pitch": 66, "duration": 241, "velocity": 81}, {"time": 146884, "pitch": 42, "duration": 714, "velocity": 100}, {"time": 146884, "pitch": 49, "duration": 714, "velocity": 100}, {"time": 146884, "pitch": 52, "duration": 714, "velocity": 100}, {"time": 146884, "pitch": 58, "duration": 714, "velocity": 100}, {"time": 146884, "pitch": 61, "duration": 714, "velocity": 100}, {"time": 146884, "pitch": 66, "duration": 714, "velocity": 100}, {"time": 147598, "pitch": 42, "duration": 241, "velocity": 83}, {"time": 147598, "pitch": 49, "duration": 241, "velocity": 83}, {"time": 147598, "pitch": 52, "duration": 241, "velocity": 83}, {"time": 147598, "pitch": 58, "duration": 241, "velocity": 83}, {"time": 147598, "pitch": 61, "duration": 241, "velocity": 83}, {"time": 147598, "pitch": 66, "duration": 241, "velocity": 83}, {"time": 147839, "pitch": 42, "duration": 241, "velocity": 100}, {"time": 147839, "pitch": 49, "duration": 241, "velocity": 100}, {"time": 147839, "pitch": 52, "duration": 241, "velocity": 100}, {"time": 147839, "pitch": 58, "duration": 241, "velocity": 100}, {"time": 147839, "pitch": 61, "duration": 241, "velocity": 100}, {"time": 147839, "pitch": 66, "duration": 241, "velocity": 100}, {"time": 148080, "pitch": 42, "duration": 121, "velocity": 68}, {"time": 148080, "pitch": 49, "duration": 121, "velocity": 68}, {"time": 148080, "pitch": 52, "duration": 121, "velocity": 68}, {"time": 148080, "pitch": 58, "duration": 121, "velocity": 68}, {"time": 148321, "pitch": 49, "duration": 242, "velocity": 100}, {"time": 148321, "pitch": 56, "duration": 242, "velocity": 100}, {"time": 148321, "pitch": 61, "duration": 242, "velocity": 100}, {"time": 148321, "pitch": 64, "duration": 242, "velocity": 100}, {"time": 148321, "pitch": 68, "duration": 242, "velocity": 100}, {"time": 148804, "pitch": 49, "duration": 472, "velocity": 100}, {"time": 148804, "pitch": 56, "duration": 472, "velocity": 100}, {"time": 148804, "pitch": 61, "duration": 472, "velocity": 100}, {"time": 148804, "pitch": 64, "duration": 472, "velocity": 100}, {"time": 148804, "pitch": 68, "duration": 472, "velocity": 100}, {"time": 149276, "pitch": 49, "duration": 241, "velocity": 82}, {"time": 149276, "pitch": 56, "duration": 241, "velocity": 82}, {"time": 149276, "pitch": 61, "duration": 241, "velocity": 82}, {"time": 149276, "pitch": 64, "duration": 241, "velocity": 82}, {"time": 149276, "pitch": 68, "duration": 241, "velocity": 82}, {"time": 149517, "pitch": 49, "duration": 483, "velocity": 97}, {"time": 149517, "pitch": 56, "duration": 483, "velocity": 97}, {"time": 149517, "pitch": 61, "duration": 483, "velocity": 97}, {"time": 149517, "pitch": 64, "duration": 483, "velocity": 97}, {"time": 149517, "pitch": 68, "duration": 483, "velocity": 97}, {"time": 150000, "pitch": 42, "duration": 482, "velocity": 100}, {"time": 150000, "pitch": 49, "duration": 482, "velocity": 100}, {"time": 150000, "pitch": 52, "duration": 482, "velocity": 100}, {"time": 150000, "pitch": 58, "duration": 482, "velocity": 100}, {"time": 150000, "pitch": 61, "duration": 482, "velocity": 100}, {"time": 150000, "pitch": 66, "duration": 482, "velocity": 100}, {"time": 150482, "pitch": 42, "duration": 241, "velocity": 81}, {"time": 150482, "pitch": 49, "duration": 241, "velocity": 81}, {"time": 150482, "pitch": 52, "duration": 241, "velocity": 81}, {"time": 150482, "pitch": 58, "duration": 241, "velocity": 81}, {"time": 150482, "pitch": 61, "duration": 241, "velocity": 81}, {"time": 150482, "pitch": 66, "duration": 241, "velocity": 81}, {"time": 150723, "pitch": 42, "duration": 714, "velocity": 100}, {"time": 150723, "pitch": 49, "duration": 714, "velocity": 100}, {"time": 150723, "pitch": 52, "duration": 714, "velocity": 100}, {"time": 150723, "pitch": 58, "duration": 714, "velocity": 100}, {"time": 150723, "pitch": 61, "duration": 714, "velocity": 100}, {"time": 150723, "pitch": 66, "duration": 714, "velocity": 100}, {"time": 151437, "pitch": 42, "duration": 241, "velocity": 83}, {"time": 151437, "pitch": 49, "duration": 241, "velocity": 83}, {"time": 151437, "pitch": 52, "duration": 241, "velocity": 83}, {"time": 151437, "pitch": 58, "duration": 241, "velocity": 83}, {"time": 151437, "pitch": 61, "duration": 241, "velocity": 83}, {"time": 151437, "pitch": 66, "duration": 241, "velocity": 83}, {"time": 151678, "pitch": 42, "duration": 242, "velocity": 100}, {"time": 151678, "pitch": 49, "duration": 242, "velocity": 100}, {"time": 151678, "pitch": 52, "duration": 242, "velocity": 100}, {"time": 151678, "pitch": 58, "duration": 242, "velocity": 100}, {"time": 151678, "pitch": 61, "duration": 242, "velocity": 100}, {"time": 151678, "pitch": 66, "duration": 242, "velocity": 100}, {"time": 151920, "pitch": 42, "duration": 120, "velocity": 68}, {"time": 151920, "pitch": 49, "duration": 120, "velocity": 68}, {"time": 151920, "pitch": 52, "duration": 120, "velocity": 68}, {"time": 151920, "pitch": 58, "duration": 120, "velocity": 68}, {"time": 152161, "pitch": 47, "duration": 241, "velocity": 80}, {"time": 152161, "pitch": 54, "duration": 241, "velocity": 80}, {"time": 152161, "pitch": 59, "duration": 241, "velocity": 80}, {"time": 152161, "pitch": 64, "duration": 241, "velocity": 80}, {"time": 152161, "pitch": 71, "duration": 241, "velocity": 80}, {"time": 152402, "pitch": 47, "duration": 241, "velocity": 100}, {"time": 152402, "pitch": 54, "duration": 241, "velocity": 100}, {"time": 152402, "pitch": 59, "duration": 241, "velocity": 100}, {"time": 152402, "pitch": 64, "duration": 241, "velocity": 100}, {"time": 152402, "pitch": 71, "duration": 241, "velocity": 100}, {"time": 152643, "pitch": 47, "duration": 236, "velocity": 100}, {"time": 152643, "pitch": 54, "duration": 236, "velocity": 100}, {"time": 152643, "pitch": 59, "duration": 236, "velocity": 100}, {"time": 152643, "pitch": 64, "duration": 236, "velocity": 100}, {"time": 152643, "pitch": 71, "duration": 236, "velocity": 100}, {"time": 152879, "pitch": 47, "duration": 119, "velocity": 77}, {"time": 152879, "pitch": 54, "duration": 119, "velocity": 77}, {"time": 152879, "pitch": 59, "duration": 119, "velocity": 77}, {"time": 152879, "pitch": 64, "duration": 119, "velocity": 77}, {"time": 153116, "pitch": 47, "duration": 241, "velocity": 100}, {"time": 153116, "pitch": 54, "duration": 241, "velocity": 100}, {"time": 153116, "pitch": 59, "duration": 241, "velocity": 100}, {"time": 153116, "pitch": 64, "duration": 241, "velocity": 100}, {"time": 153116, "pitch": 71, "duration": 241, "velocity": 100}, {"time": 153357, "pitch": 47, "duration": 241, "velocity": 100}, {"time": 153357, "pitch": 54, "duration": 241, "velocity": 100}, {"time": 153357, "pitch": 59, "duration": 241, "velocity": 100}, {"time": 153357, "pitch": 64, "duration": 241, "velocity": 100}, {"time": 153357, "pitch": 71, "duration": 241, "velocity": 100}, {"time": 153598, "pitch": 47, "duration": 121, "velocity": 76}, {"time": 153598, "pitch": 54, "duration": 121, "velocity": 76}, {"time": 153598, "pitch": 59, "duration": 121, "velocity": 76}, {"time": 153598, "pitch": 64, "duration": 121, "velocity": 76}, {"time": 153839, "pitch": 47, "duration": 483, "velocity": 100}, {"time": 153839, "pitch": 54, "duration": 483, "velocity": 100}, {"time": 153839, "pitch": 59, "duration": 483, "velocity": 100}, {"time": 153839, "pitch": 63, "duration": 483, "velocity": 100}, {"time": 153839, "pitch": 71, "duration": 483, "velocity": 100}, {"time": 154322, "pitch": 47, "duration": 241, "velocity": 90}, {"time": 154322, "pitch": 54, "duration": 241, "velocity": 90}, {"time": 154322, "pitch": 59, "duration": 241, "velocity": 90}, {"time": 154322, "pitch": 63, "duration": 241, "velocity": 90}, {"time": 154322, "pitch": 71, "duration": 241, "velocity": 90}, {"time": 154563, "pitch": 47, "duration": 236, "velocity": 100}, {"time": 154563, "pitch": 54, "duration": 236, "velocity": 100}, {"time": 154563, "pitch": 59, "duration": 236, "velocity": 100}, {"time": 154563, "pitch": 64, "duration": 236, "velocity": 100}, {"time": 154563, "pitch": 71, "duration": 236, "velocity": 100}, {"time": 154799, "pitch": 47, "duration": 478, "velocity": 100}, {"time": 154799, "pitch": 54, "duration": 478, "velocity": 100}, {"time": 154799, "pitch": 59, "duration": 478, "velocity": 100}, {"time": 154799, "pitch": 63, "duration": 478, "velocity": 100}, {"time": 154799, "pitch": 71, "duration": 478, "velocity": 100}, {"time": 155277, "pitch": 47, "duration": 241, "velocity": 83}, {"time": 155277, "pitch": 54, "duration": 241, "velocity": 83}, {"time": 155277, "pitch": 59, "duration": 241, "velocity": 83}, {"time": 155277, "pitch": 63, "duration": 241, "velocity": 83}, {"time": 155277, "pitch": 71, "duration": 241, "velocity": 83}, {"time": 155518, "pitch": 47, "duration": 241, "velocity": 94}, {"time": 155518, "pitch": 54, "duration": 241, "velocity": 94}, {"time": 155518, "pitch": 59, "duration": 241, "velocity": 94}, {"time": 155518, "pitch": 63, "duration": 241, "velocity": 94}, {"time": 155518, "pitch": 71, "duration": 241, "velocity": 94}, {"time": 155759, "pitch": 47, "duration": 121, "velocity": 76}, {"time": 155759, "pitch": 54, "duration": 121, "velocity": 76}, {"time": 155759, "pitch": 59, "duration": 121, "velocity": 76}, {"time": 156000, "pitch": 52, "duration": 483, "velocity": 100}, {"time": 156000, "pitch": 59, "duration": 483, "velocity": 100}, {"time": 156000, "pitch": 64, "duration": 483, "velocity": 100}, {"time": 156000, "pitch": 68, "duration": 483, "velocity": 100}, {"time": 156483, "pitch": 52, "duration": 472, "velocity": 100}, {"time": 156483, "pitch": 59, "duration": 472, "velocity": 100}, {"time": 156483, "pitch": 64, "duration": 472, "velocity": 100}, {"time": 156483, "pitch": 68, "duration": 472, "velocity": 100}, {"time": 156955, "pitch": 52, "duration": 241, "velocity": 86}, {"time": 156955, "pitch": 59, "duration": 241, "velocity": 86}, {"time": 156955, "pitch": 64, "duration": 241, "velocity": 86}, {"time": 156955, "pitch": 68, "duration": 241, "velocity": 86}, {"time": 157196, "pitch": 52, "duration": 483, "velocity": 100}, {"time": 157196, "pitch": 59, "duration": 483, "velocity": 100}, {"time": 157196, "pitch": 64, "duration": 483, "velocity": 100}, {"time": 157196, "pitch": 68, "duration": 483, "velocity": 100}, {"time": 157679, "pitch": 47, "duration": 482, "velocity": 100}, {"time": 157679, "pitch": 54, "duration": 482, "velocity": 100}, {"time": 157679, "pitch": 59, "duration": 482, "velocity": 100}, {"time": 157679, "pitch": 63, "duration": 482, "velocity": 100}, {"time": 157679, "pitch": 66, "duration": 482, "velocity": 100}, {"time": 158161, "pitch": 47, "duration": 242, "velocity": 86}, {"time": 158161, "pitch": 54, "duration": 242, "velocity": 86}, {"time": 158161, "pitch": 59, "duration": 242, "velocity": 86}, {"time": 158161, "pitch": 63, "duration": 242, "velocity": 86}, {"time": 158161, "pitch": 66, "duration": 242, "velocity": 86}, {"time": 158403, "pitch": 47, "duration": 482, "velocity": 100}, {"time": 158403, "pitch": 54, "duration": 482, "velocity": 100}, {"time": 158403, "pitch": 59, "duration": 482, "velocity": 100}, {"time": 158403, "pitch": 63, "duration": 482, "velocity": 100}, {"time": 158403, "pitch": 66, "duration": 482, "velocity": 100}, {"time": 158885, "pitch": 47, "duration": 236, "velocity": 76}, {"time": 158885, "pitch": 54, "duration": 236, "velocity": 76}, {"time": 158885, "pitch": 59, "duration": 236, "velocity": 76}, {"time": 158885, "pitch": 63, "duration": 236, "velocity": 76}, {"time": 158885, "pitch": 66, "duration": 236, "velocity": 76}, {"time": 159121, "pitch": 47, "duration": 236, "velocity": 89}, {"time": 159121, "pitch": 54, "duration": 236, "velocity": 89}, {"time": 159121, "pitch": 59, "duration": 236, "velocity": 89}, {"time": 159121, "pitch": 63, "duration": 236, "velocity": 89}, {"time": 159121, "pitch": 66, "duration": 236, "velocity": 89}, {"time": 159357, "pitch": 47, "duration": 483, "velocity": 100}, {"time": 159357, "pitch": 54, "duration": 483, "velocity": 100}, {"time": 159357, "pitch": 59, "duration": 483, "velocity": 100}, {"time": 159357, "pitch": 63, "duration": 483, "velocity": 100}, {"time": 159357, "pitch": 66, "duration": 483, "velocity": 100}, {"time": 159840, "pitch": 49, "duration": 482, "velocity": 100}, {"time": 159840, "pitch": 56, "duration": 482, "velocity": 100}, {"time": 159840, "pitch": 61, "duration": 482, "velocity": 100}, {"time": 159840, "pitch": 64, "duration": 482, "velocity": 100}, {"time": 159840, "pitch": 68, "duration": 482, "velocity": 100}, {"time": 160322, "pitch": 49, "duration": 483, "velocity": 100}, {"time": 160322, "pitch": 56, "duration": 483, "velocity": 100}, {"time": 160322, "pitch": 61, "duration": 483, "velocity": 100}, {"time": 160322, "pitch": 64, "duration": 483, "velocity": 100}, {"time": 160322, "pitch": 68, "duration": 483, "velocity": 100}, {"time": 160805, "pitch": 49, "duration": 236, "velocity": 79}, {"time": 160805, "pitch": 56, "duration": 236, "velocity": 79}, {"time": 160805, "pitch": 61, "duration": 236, "velocity": 79}, {"time": 160805, "pitch": 64, "duration": 236, "velocity": 79}, {"time": 160805, "pitch": 68, "duration": 236, "velocity": 79}, {"time": 161041, "pitch": 49, "duration": 477, "velocity": 100}, {"time": 161041, "pitch": 56, "duration": 477, "velocity": 100}, {"time": 161041, "pitch": 61, "duration": 477, "velocity": 100}, {"time": 161041, "pitch": 64, "duration": 477, "velocity": 100}, {"time": 161041, "pitch": 68, "duration": 477, "velocity": 100}, {"time": 161518, "pitch": 42, "duration": 483, "velocity": 100}, {"time": 161518, "pitch": 49, "duration": 483, "velocity": 100}, {"time": 161518, "pitch": 52, "duration": 483, "velocity": 100}, {"time": 161518, "pitch": 58, "duration": 483, "velocity": 100}, {"time": 161518, "pitch": 61, "duration": 483, "velocity": 100}, {"time": 161518, "pitch": 66, "duration": 483, "velocity": 100}, {"time": 162001, "pitch": 42, "duration": 241, "velocity": 90}, {"time": 162001, "pitch": 49, "duration": 241, "velocity": 90}, {"time": 162001, "pitch": 52, "duration": 241, "velocity": 90}, {"time": 162001, "pitch": 58, "duration": 241, "velocity": 90}, {"time": 162001, "pitch": 61, "duration": 241, "velocity": 90}, {"time": 162001, "pitch": 66, "duration": 241, "velocity": 90}, {"time": 162242, "pitch": 42, "duration": 241, "velocity": 88}, {"time": 162242, "pitch": 49, "duration": 241, "velocity": 88}, {"time": 162242, "pitch": 52, "duration": 241, "velocity": 88}, {"time": 162242, "pitch": 58, "duration": 241, "velocity": 88}, {"time": 162242, "pitch": 61, "duration": 241, "velocity": 88}, {"time": 162242, "pitch": 66, "duration": 241, "velocity": 88}, {"time": 162483, "pitch": 42, "duration": 478, "velocity": 100}, {"time": 162483, "pitch": 49, "duration": 478, "velocity": 100}, {"time": 162483, "pitch": 52, "duration": 478, "velocity": 100}, {"time": 162483, "pitch": 58, "duration": 478, "velocity": 100}, {"time": 162483, "pitch": 61, "duration": 478, "velocity": 100}, {"time": 162483, "pitch": 66, "duration": 478, "velocity": 100}, {"time": 162961, "pitch": 42, "duration": 236, "velocity": 85}, {"time": 162961, "pitch": 49, "duration": 236, "velocity": 85}, {"time": 162961, "pitch": 52, "duration": 236, "velocity": 85}, {"time": 162961, "pitch": 58, "duration": 236, "velocity": 85}, {"time": 162961, "pitch": 61, "duration": 236, "velocity": 85}, {"time": 162961, "pitch": 66, "duration": 236, "velocity": 85}, {"time": 163197, "pitch": 42, "duration": 482, "velocity": 100}, {"time": 163197, "pitch": 49, "duration": 482, "velocity": 100}, {"time": 163197, "pitch": 52, "duration": 482, "velocity": 100}, {"time": 163197, "pitch": 58, "duration": 482, "velocity": 100}, {"time": 163197, "pitch": 61, "duration": 482, "velocity": 100}, {"time": 163197, "pitch": 66, "duration": 482, "velocity": 100}, {"time": 163679, "pitch": 42, "duration": 483, "velocity": 100}, {"time": 163679, "pitch": 49, "duration": 483, "velocity": 100}, {"time": 163679, "pitch": 54, "duration": 483, "velocity": 100}, {"time": 163679, "pitch": 57, "duration": 483, "velocity": 100}, {"time": 163679, "pitch": 61, "duration": 483, "velocity": 100}, {"time": 163679, "pitch": 66, "duration": 483, "velocity": 100}, {"time": 164162, "pitch": 42, "duration": 482, "velocity": 100}, {"time": 164162, "pitch": 49, "duration": 482, "velocity": 100}, {"time": 164162, "pitch": 54, "duration": 482, "velocity": 100}, {"time": 164162, "pitch": 57, "duration": 482, "velocity": 100}, {"time": 164162, "pitch": 61, "duration": 482, "velocity": 100}, {"time": 164162, "pitch": 66, "duration": 482, "velocity": 100}, {"time": 164644, "pitch": 42, "duration": 236, "velocity": 82}, {"time": 164644, "pitch": 49, "duration": 236, "velocity": 82}, {"time": 164644, "pitch": 54, "duration": 236, "velocity": 82}, {"time": 164644, "pitch": 57, "duration": 236, "velocity": 82}, {"time": 164644, "pitch": 61, "duration": 236, "velocity": 82}, {"time": 164644, "pitch": 66, "duration": 236, "velocity": 82}, {"time": 164880, "pitch": 42, "duration": 478, "velocity": 100}, {"time": 164880, "pitch": 49, "duration": 478, "velocity": 100}, {"time": 164880, "pitch": 54, "duration": 478, "velocity": 100}, {"time": 164880, "pitch": 57, "duration": 478, "velocity": 100}, {"time": 164880, "pitch": 61, "duration": 478, "velocity": 100}, {"time": 164880, "pitch": 66, "duration": 478, "velocity": 100}, {"time": 165358, "pitch": 44, "duration": 482, "velocity": 100}, {"time": 165358, "pitch": 51, "duration": 482, "velocity": 100}, {"time": 165358, "pitch": 56, "duration": 482, "velocity": 100}, {"time": 165358, "pitch": 59, "duration": 482, "velocity": 100}, {"time": 165358, "pitch": 63, "duration": 482, "velocity": 100}, {"time": 165358, "pitch": 68, "duration": 482, "velocity": 100}, {"time": 165840, "pitch": 44, "duration": 242, "velocity": 83}, {"time": 165840, "pitch": 51, "duration": 242, "velocity": 83}, {"time": 165840, "pitch": 56, "duration": 242, "velocity": 83}, {"time": 165840, "pitch": 59, "duration": 242, "velocity": 83}, {"time": 165840, "pitch": 63, "duration": 242, "velocity": 83}, {"time": 165840, "pitch": 68, "duration": 242, "velocity": 83}, {"time": 166082, "pitch": 44, "duration": 241, "velocity": 82}, {"time": 166082, "pitch": 51, "duration": 241, "velocity": 82}, {"time": 166082, "pitch": 56, "duration": 241, "velocity": 82}, {"time": 166082, "pitch": 59, "duration": 241, "velocity": 82}, {"time": 166082, "pitch": 63, "duration": 241, "velocity": 82}, {"time": 166082, "pitch": 68, "duration": 241, "velocity": 82}, {"time": 166323, "pitch": 44, "duration": 477, "velocity": 92}, {"time": 166323, "pitch": 51, "duration": 477, "velocity": 92}, {"time": 166323, "pitch": 56, "duration": 477, "velocity": 92}, {"time": 166323, "pitch": 59, "duration": 477, "velocity": 92}, {"time": 166323, "pitch": 63, "duration": 477, "velocity": 92}, {"time": 166323, "pitch": 68, "duration": 477, "velocity": 92}, {"time": 166800, "pitch": 44, "duration": 236, "velocity": 84}, {"time": 166800, "pitch": 51, "duration": 236, "velocity": 84}, {"time": 166800, "pitch": 56, "duration": 236, "velocity": 84}, {"time": 166800, "pitch": 59, "duration": 236, "velocity": 84}, {"time": 166800, "pitch": 63, "duration": 236, "velocity": 84}, {"time": 166800, "pitch": 68, "duration": 236, "velocity": 84}, {"time": 167036, "pitch": 44, "duration": 483, "velocity": 100}, {"time": 167036, "pitch": 51, "duration": 483, "velocity": 100}, {"time": 167036, "pitch": 56, "duration": 483, "velocity": 100}, {"time": 167036, "pitch": 59, "duration": 483, "velocity": 100}, {"time": 167036, "pitch": 63, "duration": 483, "velocity": 100}, {"time": 167036, "pitch": 68, "duration": 483, "velocity": 100}, {"time": 167519, "pitch": 47, "duration": 482, "velocity": 100}, {"time": 167519, "pitch": 54, "duration": 482, "velocity": 100}, {"time": 167519, "pitch": 59, "duration": 482, "velocity": 100}, {"time": 167519, "pitch": 64, "duration": 482, "velocity": 100}, {"time": 167519, "pitch": 71, "duration": 482, "velocity": 100}, {"time": 168001, "pitch": 47, "duration": 483, "velocity": 100}, {"time": 168001, "pitch": 54, "duration": 483, "velocity": 100}, {"time": 168001, "pitch": 59, "duration": 483, "velocity": 100}, {"time": 168001, "pitch": 64, "duration": 483, "velocity": 100}, {"time": 168001, "pitch": 71, "duration": 483, "velocity": 100}, {"time": 168484, "pitch": 47, "duration": 236, "velocity": 87}, {"time": 168484, "pitch": 54, "duration": 236, "velocity": 87}, {"time": 168484, "pitch": 59, "duration": 236, "velocity": 87}, {"time": 168484, "pitch": 64, "duration": 236, "velocity": 87}, {"time": 168484, "pitch": 71, "duration": 236, "velocity": 87}, {"time": 168720, "pitch": 47, "duration": 477, "velocity": 100}, {"time": 168720, "pitch": 54, "duration": 477, "velocity": 100}, {"time": 168720, "pitch": 59, "duration": 477, "velocity": 100}, {"time": 168720, "pitch": 64, "duration": 477, "velocity": 100}, {"time": 168720, "pitch": 71, "duration": 477, "velocity": 100}, {"time": 169197, "pitch": 47, "duration": 483, "velocity": 100}, {"time": 169197, "pitch": 54, "duration": 483, "velocity": 100}, {"time": 169197, "pitch": 59, "duration": 483, "velocity": 100}, {"time": 169197, "pitch": 63, "duration": 483, "velocity": 100}, {"time": 169197, "pitch": 71, "duration": 483, "velocity": 100}, {"time": 169680, "pitch": 47, "duration": 241, "velocity": 100}, {"time": 169680, "pitch": 54, "duration": 241, "velocity": 100}, {"time": 169680, "pitch": 59, "duration": 241, "velocity": 100}, {"time": 169680, "pitch": 63, "duration": 241, "velocity": 100}, {"time": 169680, "pitch": 71, "duration": 241, "velocity": 100}, {"time": 169921, "pitch": 47, "duration": 241, "velocity": 100}, {"time": 169921, "pitch": 54, "duration": 241, "velocity": 100}, {"time": 169921, "pitch": 59, "duration": 241, "velocity": 100}, {"time": 169921, "pitch": 63, "duration": 241, "velocity": 100}, {"time": 169921, "pitch": 71, "duration": 241, "velocity": 100}, {"time": 170162, "pitch": 47, "duration": 242, "velocity": 100}, {"time": 170162, "pitch": 54, "duration": 242, "velocity": 100}, {"time": 170162, "pitch": 59, "duration": 242, "velocity": 100}, {"time": 170162, "pitch": 63, "duration": 242, "velocity": 100}, {"time": 170162, "pitch": 71, "duration": 242, "velocity": 100}, {"time": 170404, "pitch": 47, "duration": 236, "velocity": 100}, {"time": 170404, "pitch": 54, "duration": 236, "velocity": 100}, {"time": 170404, "pitch": 59, "duration": 236, "velocity": 100}, {"time": 170404, "pitch": 63, "duration": 236, "velocity": 100}, {"time": 170404, "pitch": 71, "duration": 236, "velocity": 100}, {"time": 170640, "pitch": 47, "duration": 236, "velocity": 100}, {"time": 170640, "pitch": 54, "duration": 236, "velocity": 100}, {"time": 170640, "pitch": 59, "duration": 236, "velocity": 100}, {"time": 170640, "pitch": 63, "duration": 236, "velocity": 100}, {"time": 170640, "pitch": 71, "duration": 236, "velocity": 100}, {"time": 170876, "pitch": 47, "duration": 241, "velocity": 100}, {"time": 170876, "pitch": 54, "duration": 241, "velocity": 100}, {"time": 170876, "pitch": 59, "duration": 241, "velocity": 100}, {"time": 170876, "pitch": 63, "duration": 241, "velocity": 100}, {"time": 170876, "pitch": 71, "duration": 241, "velocity": 100}, {"time": 171117, "pitch": 47, "duration": 241, "velocity": 100}, {"time": 171117, "pitch": 54, "duration": 241, "velocity": 100}, {"time": 171117, "pitch": 59, "duration": 241, "velocity": 100}, {"time": 171117, "pitch": 63, "duration": 241, "velocity": 100}, {"time": 171117, "pitch": 71, "duration": 241, "velocity": 100}, {"time": 171358, "pitch": 52, "duration": 483, "velocity": 100}, {"time": 171358, "pitch": 59, "duration": 483, "velocity": 100}, {"time": 171358, "pitch": 64, "duration": 483, "velocity": 100}, {"time": 171358, "pitch": 68, "duration": 483, "velocity": 100}, {"time": 171841, "pitch": 52, "duration": 482, "velocity": 100}, {"time": 171841, "pitch": 59, "duration": 482, "velocity": 100}, {"time": 171841, "pitch": 64, "duration": 482, "velocity": 100}, {"time": 171841, "pitch": 68, "duration": 482, "velocity": 100}, {"time": 172323, "pitch": 52, "duration": 236, "velocity": 86}, {"time": 172323, "pitch": 59, "duration": 236, "velocity": 86}, {"time": 172323, "pitch": 64, "duration": 236, "velocity": 86}, {"time": 172323, "pitch": 68, "duration": 236, "velocity": 86}, {"time": 172559, "pitch": 52, "duration": 478, "velocity": 100}, {"time": 172559, "pitch": 59, "duration": 478, "velocity": 100}, {"time": 172559, "pitch": 64, "duration": 478, "velocity": 100}, {"time": 172559, "pitch": 68, "duration": 478, "velocity": 100}, {"time": 173037, "pitch": 47, "duration": 482, "velocity": 100}, {"time": 173037, "pitch": 54, "duration": 482, "velocity": 100}, {"time": 173037, "pitch": 59, "duration": 482, "velocity": 100}, {"time": 173037, "pitch": 63, "duration": 482, "velocity": 100}, {"time": 173037, "pitch": 66, "duration": 482, "velocity": 100}, {"time": 173519, "pitch": 47, "duration": 242, "velocity": 86}, {"time": 173519, "pitch": 54, "duration": 242, "velocity": 86}, {"time": 173519, "pitch": 59, "duration": 242, "velocity": 86}, {"time": 173519, "pitch": 63, "duration": 242, "velocity": 86}, {"time": 173519, "pitch": 66, "duration": 242, "velocity": 86}, {"time": 173761, "pitch": 47, "duration": 482, "velocity": 100}, {"time": 173761, "pitch": 54, "duration": 482, "velocity": 100}, {"time": 173761, "pitch": 59, "duration": 482, "velocity": 100}, {"time": 173761, "pitch": 63, "duration": 482, "velocity": 100}, {"time": 173761, "pitch": 66, "duration": 482, "velocity": 100}, {"time": 174243, "pitch": 47, "duration": 236, "velocity": 76}, {"time": 174243, "pitch": 54, "duration": 236, "velocity": 76}, {"time": 174243, "pitch": 59, "duration": 236, "velocity": 76}, {"time": 174243, "pitch": 63, "duration": 236, "velocity": 76}, {"time": 174243, "pitch": 66, "duration": 236, "velocity": 76}, {"time": 174479, "pitch": 47, "duration": 236, "velocity": 89}, {"time": 174479, "pitch": 54, "duration": 236, "velocity": 89}, {"time": 174479, "pitch": 59, "duration": 236, "velocity": 89}, {"time": 174479, "pitch": 63, "duration": 236, "velocity": 89}, {"time": 174479, "pitch": 66, "duration": 236, "velocity": 89}, {"time": 174715, "pitch": 47, "duration": 483, "velocity": 100}, {"time": 174715, "pitch": 54, "duration": 483, "velocity": 100}, {"time": 174715, "pitch": 59, "duration": 483, "velocity": 100}, {"time": 174715, "pitch": 63, "duration": 483, "velocity": 100}, {"time": 174715, "pitch": 66, "duration": 483, "velocity": 100}, {"time": 175198, "pitch": 49, "duration": 482, "velocity": 100}, {"time": 175198, "pitch": 56, "duration": 482, "velocity": 100}, {"time": 175198, "pitch": 61, "duration": 482, "velocity": 100}, {"time": 175198, "pitch": 64, "duration": 482, "velocity": 100}, {"time": 175198, "pitch": 68, "duration": 482, "velocity": 100}, {"time": 175680, "pitch": 49, "duration": 483, "velocity": 100}, {"time": 175680, "pitch": 56, "duration": 483, "velocity": 100}, {"time": 175680, "pitch": 61, "duration": 483, "velocity": 100}, {"time": 175680, "pitch": 64, "duration": 483, "velocity": 100}, {"time": 175680, "pitch": 68, "duration": 483, "velocity": 100}, {"time": 176163, "pitch": 49, "duration": 236, "velocity": 79}, {"time": 176163, "pitch": 56, "duration": 236, "velocity": 79}, {"time": 176163, "pitch": 61, "duration": 236, "velocity": 79}, {"time": 176163, "pitch": 64, "duration": 236, "velocity": 79}, {"time": 176163, "pitch": 68, "duration": 236, "velocity": 79}, {"time": 176399, "pitch": 49, "duration": 477, "velocity": 100}, {"time": 176399, "pitch": 56, "duration": 477, "velocity": 100}, {"time": 176399, "pitch": 61, "duration": 477, "velocity": 100}, {"time": 176399, "pitch": 64, "duration": 477, "velocity": 100}, {"time": 176399, "pitch": 68, "duration": 477, "velocity": 100}, {"time": 176876, "pitch": 42, "duration": 483, "velocity": 100}, {"time": 176876, "pitch": 49, "duration": 483, "velocity": 100}, {"time": 176876, "pitch": 52, "duration": 483, "velocity": 100}, {"time": 176876, "pitch": 58, "duration": 483, "velocity": 100}, {"time": 176876, "pitch": 61, "duration": 483, "velocity": 100}, {"time": 176876, "pitch": 66, "duration": 483, "velocity": 100}, {"time": 177359, "pitch": 42, "duration": 241, "velocity": 90}, {"time": 177359, "pitch": 49, "duration": 241, "velocity": 90}, {"time": 177359, "pitch": 52, "duration": 241, "velocity": 90}, {"time": 177359, "pitch": 58, "duration": 241, "velocity": 90}, {"time": 177359, "pitch": 61, "duration": 241, "velocity": 90}, {"time": 177359, "pitch": 66, "duration": 241, "velocity": 90}, {"time": 177600, "pitch": 42, "duration": 241, "velocity": 88}, {"time": 177600, "pitch": 49, "duration": 241, "velocity": 88}, {"time": 177600, "pitch": 52, "duration": 241, "velocity": 88}, {"time": 177600, "pitch": 58, "duration": 241, "velocity": 88}, {"time": 177600, "pitch": 61, "duration": 241, "velocity": 88}, {"time": 177600, "pitch": 66, "duration": 241, "velocity": 88}, {"time": 177841, "pitch": 42, "duration": 478, "velocity": 100}, {"time": 177841, "pitch": 49, "duration": 478, "velocity": 100}, {"time": 177841, "pitch": 52, "duration": 478, "velocity": 100}, {"time": 177841, "pitch": 58, "duration": 478, "velocity": 100}, {"time": 177841, "pitch": 61, "duration": 478, "velocity": 100}, {"time": 177841, "pitch": 66, "duration": 478, "velocity": 100}, {"time": 178319, "pitch": 42, "duration": 236, "velocity": 85}, {"time": 178319, "pitch": 49, "duration": 236, "velocity": 85}, {"time": 178319, "pitch": 52, "duration": 236, "velocity": 85}, {"time": 178319, "pitch": 58, "duration": 236, "velocity": 85}, {"time": 178319, "pitch": 61, "duration": 236, "velocity": 85}, {"time": 178319, "pitch": 66, "duration": 236, "velocity": 85}, {"time": 178555, "pitch": 42, "duration": 482, "velocity": 100}, {"time": 178555, "pitch": 49, "duration": 482, "velocity": 100}, {"time": 178555, "pitch": 52, "duration": 482, "velocity": 100}, {"time": 178555, "pitch": 58, "duration": 482, "velocity": 100}, {"time": 178555, "pitch": 61, "duration": 482, "velocity": 100}, {"time": 178555, "pitch": 66, "duration": 482, "velocity": 100}, {"time": 179037, "pitch": 42, "duration": 483, "velocity": 100}, {"time": 179037, "pitch": 49, "duration": 483, "velocity": 100}, {"time": 179037, "pitch": 54, "duration": 483, "velocity": 100}, {"time": 179037, "pitch": 57, "duration": 483, "velocity": 100}, {"time": 179037, "pitch": 61, "duration": 483, "velocity": 100}, {"time": 179037, "pitch": 66, "duration": 483, "velocity": 100}, {"time": 179520, "pitch": 42, "duration": 482, "velocity": 100}, {"time": 179520, "pitch": 49, "duration": 482, "velocity": 100}, {"time": 179520, "pitch": 54, "duration": 482, "velocity": 100}, {"time": 179520, "pitch": 57, "duration": 482, "velocity": 100}, {"time": 179520, "pitch": 61, "duration": 482, "velocity": 100}, {"time": 179520, "pitch": 66, "duration": 482, "velocity": 100}, {"time": 180002, "pitch": 42, "duration": 242, "velocity": 82}, {"time": 180002, "pitch": 49, "duration": 242, "velocity": 82}, {"time": 180002, "pitch": 54, "duration": 242, "velocity": 82}, {"time": 180002, "pitch": 57, "duration": 242, "velocity": 82}, {"time": 180002, "pitch": 61, "duration": 242, "velocity": 82}, {"time": 180002, "pitch": 66, "duration": 242, "velocity": 82}, {"time": 180244, "pitch": 42, "duration": 477, "velocity": 100}, {"time": 180244, "pitch": 49, "duration": 477, "velocity": 100}, {"time": 180244, "pitch": 54, "duration": 477, "velocity": 100}, {"time": 180244, "pitch": 57, "duration": 477, "velocity": 100}, {"time": 180244, "pitch": 61, "duration": 477, "velocity": 100}, {"time": 180244, "pitch": 66, "duration": 477, "velocity": 100}, {"time": 180721, "pitch": 47, "duration": 477, "velocity": 100}, {"time": 180721, "pitch": 54, "duration": 477, "velocity": 100}, {"time": 180721, "pitch": 59, "duration": 477, "velocity": 100}, {"time": 180721, "pitch": 63, "duration": 477, "velocity": 100}, {"time": 180721, "pitch": 66, "duration": 477, "velocity": 100}, {"time": 181198, "pitch": 47, "duration": 242, "velocity": 83}, {"time": 181198, "pitch": 54, "duration": 242, "velocity": 83}, {"time": 181198, "pitch": 59, "duration": 242, "velocity": 83}, {"time": 181198, "pitch": 63, "duration": 242, "velocity": 83}, {"time": 181198, "pitch": 66, "duration": 242, "velocity": 83}, {"time": 181440, "pitch": 47, "duration": 241, "velocity": 82}, {"time": 181440, "pitch": 54, "duration": 241, "velocity": 82}, {"time": 181440, "pitch": 59, "duration": 241, "velocity": 82}, {"time": 181440, "pitch": 63, "duration": 241, "velocity": 82}, {"time": 181440, "pitch": 66, "duration": 241, "velocity": 82}, {"time": 181681, "pitch": 47, "duration": 482, "velocity": 92}, {"time": 181681, "pitch": 54, "duration": 482, "velocity": 92}, {"time": 181681, "pitch": 59, "duration": 482, "velocity": 92}, {"time": 181681, "pitch": 63, "duration": 482, "velocity": 92}, {"time": 181681, "pitch": 66, "duration": 482, "velocity": 92}, {"time": 182163, "pitch": 47, "duration": 242, "velocity": 84}, {"time": 182163, "pitch": 54, "duration": 242, "velocity": 84}, {"time": 182163, "pitch": 59, "duration": 242, "velocity": 84}, {"time": 182163, "pitch": 63, "duration": 242, "velocity": 84}, {"time": 182163, "pitch": 66, "duration": 242, "velocity": 84}, {"time": 182405, "pitch": 47, "duration": 472, "velocity": 100}, {"time": 182405, "pitch": 54, "duration": 472, "velocity": 100}, {"time": 182405, "pitch": 59, "duration": 472, "velocity": 100}, {"time": 182405, "pitch": 63, "duration": 472, "velocity": 100}, {"time": 182405, "pitch": 66, "duration": 472, "velocity": 100}, {"time": 182877, "pitch": 47, "duration": 482, "velocity": 100}, {"time": 182877, "pitch": 52, "duration": 482, "velocity": 100}, {"time": 182877, "pitch": 57, "duration": 482, "velocity": 100}, {"time": 182877, "pitch": 64, "duration": 482, "velocity": 100}, {"time": 182877, "pitch": 71, "duration": 482, "velocity": 100}, {"time": 183359, "pitch": 47, "duration": 483, "velocity": 100}, {"time": 183359, "pitch": 52, "duration": 483, "velocity": 100}, {"time": 183359, "pitch": 57, "duration": 483, "velocity": 100}, {"time": 183359, "pitch": 64, "duration": 483, "velocity": 100}, {"time": 183359, "pitch": 71, "duration": 483, "velocity": 100}, {"time": 183842, "pitch": 47, "duration": 241, "velocity": 87}, {"time": 183842, "pitch": 52, "duration": 241, "velocity": 87}, {"time": 183842, "pitch": 57, "duration": 241, "velocity": 87}, {"time": 183842, "pitch": 64, "duration": 241, "velocity": 87}, {"time": 183842, "pitch": 71, "duration": 241, "velocity": 87}, {"time": 184083, "pitch": 47, "duration": 241, "velocity": 100}, {"time": 184083, "pitch": 52, "duration": 241, "velocity": 100}, {"time": 184083, "pitch": 57, "duration": 241, "velocity": 100}, {"time": 184083, "pitch": 64, "duration": 241, "velocity": 100}, {"time": 184083, "pitch": 71, "duration": 241, "velocity": 100}, {"time": 184560, "pitch": 47, "duration": 4076, "velocity": 100}, {"time": 184560, "pitch": 52, "duration": 4076, "velocity": 100}, {"time": 184560, "pitch": 56, "duration": 4076, "velocity": 100}, {"time": 184560, "pitch": 64, "duration": 4076, "velocity": 100}, {"time": 184560, "pitch": 71, "duration": 4076, "velocity": 100}], "annotations": [{"time": 300, "annotation": {"number": 7, "value": 95}, "group": "control_change"}, {"time": 320, "annotation": {"number": 11, "value": 100}, "group": "control_change"}, {"time": 340, "annotation": {"number": 10, "value": 10}, "group": "control_change"}, {"time": 360, "annotation": {"number": 91, "value": 40}, "group": "control_change"}, {"time": 380, "annotation": {"number": 93, "value": 0}, "group": "control_change"}, {"time": 400, "annotation": {"number": 101, "value": 0}, "group": "control_change"}, {"time": 420, "annotation": {"number": 100, "value": 0}, "group": "control_change"}, {"time": 440, "annotation": {"number": 6, "value": 12}, "group": "control_change"}, {"time": 460, "annotation": {"number": 101, "value": 127}, "group": "control_change"}, {"time": 480, "annotation": {"number": 100, "value": 127}, "group": "control_change"}]}, {"program": 0, "is_drum": false, "name": "EG   {C}", "annotations": [{"time": 200, "annotation": {"number": 0, "value": 0}, "group": "control_change"}, {"time": 220, "annotation": {"number": 32, "value": 2}, "group": "control_change"}]}, {"program": 30, "is_drum": false, "name": "EG   {C}", "notes": [{"time": 2400, "pitch": 71, "duration": 241, "velocity": 110}, {"time": 2641, "pitch": 71, "duration": 241, "velocity": 110}, {"time": 2882, "pitch": 64, "duration": 241, "velocity": 110}, {"time": 2882, "pitch": 69, "duration": 241, "velocity": 110}, {"time": 3123, "pitch": 62, "duration": 478, "velocity": 90}, {"time": 3601, "pitch": 64, "duration": 236, "velocity": 110}, {"time": 3601, "pitch": 71, "duration": 236, "velocity": 110}, {"time": 4078, "pitch": 63, "duration": 483, "velocity": 110}, {"time": 4078, "pitch": 71, "duration": 483, "velocity": 110}, {"time": 4561, "pitch": 63, "duration": 241, "velocity": 110}, {"time": 4561, "pitch": 71, "duration": 241, "velocity": 110}, {"time": 4802, "pitch": 64, "duration": 241, "velocity": 110}, {"time": 4802, "pitch": 69, "duration": 241, "velocity": 110}, {"time": 5043, "pitch": 62, "duration": 477, "velocity": 92}, {"time": 5520, "pitch": 64, "duration": 237, "velocity": 110}, {"time": 5520, "pitch": 71, "duration": 237, "velocity": 110}, {"time": 5998, "pitch": 63, "duration": 482, "velocity": 110}, {"time": 5998, "pitch": 71, "duration": 482, "velocity": 110}, {"time": 6480, "pitch": 63, "duration": 242, "velocity": 110}, {"time": 6480, "pitch": 71, "duration": 242, "velocity": 110}, {"time": 6722, "pitch": 64, "duration": 241, "velocity": 92}, {"time": 6722, "pitch": 68, "duration": 241, "velocity": 92}, {"time": 6963, "pitch": 63, "duration": 241, "velocity": 110}, {"time": 6963, "pitch": 71, "duration": 241, "velocity": 110}, {"time": 7204, "pitch": 63, "duration": 236, "velocity": 110}, {"time": 7204, "pitch": 71, "duration": 236, "velocity": 110}, {"time": 7440, "pitch": 63, "duration": 236, "velocity": 92}, {"time": 7440, "pitch": 71, "duration": 236, "velocity": 92}, {"time": 7676, "pitch": 64, "duration": 242, "velocity": 85}, {"time": 7676, "pitch": 68, "duration": 242, "velocity": 85}, {"time": 7918, "pitch": 63, "duration": 241, "velocity": 106}, {"time": 7918, "pitch": 71, "duration": 241, "velocity": 106}, {"time": 8159, "pitch": 62, "duration": 120, "velocity": 96}, {"time": 8159, "pitch": 71, "duration": 241, "velocity": 96}, {"time": 8400, "pitch": 62, "duration": 241, "velocity": 88}, {"time": 8400, "pitch": 71, "duration": 241, "velocity": 110}, {"time": 8641, "pitch": 62, "duration": 242, "velocity": 88}, {"time": 8641, "pitch": 71, "duration": 242, "velocity": 110}, {"time": 8883, "pitch": 62, "duration": 241, "velocity": 74}, {"time": 8883, "pitch": 71, "duration": 241, "velocity": 94}, {"time": 9124, "pitch": 62, "duration": 236, "velocity": 88}, {"time": 9124, "pitch": 71, "duration": 236, "velocity": 110}, {"time": 9360, "pitch": 62, "duration": 236, "velocity": 88}, {"time": 9360, "pitch": 71, "duration": 236, "velocity": 110}, {"time": 9596, "pitch": 62, "duration": 483, "velocity": 88}, {"time": 9596, "pitch": 71, "duration": 483, "velocity": 110}, {"time": 40805, "pitch": 71, "duration": 59, "velocity": 80}, {"time": 40805, "pitch": 76, "duration": 59, "velocity": 80}, {"time": 41041, "pitch": 71, "duration": 236, "velocity": 100}, {"time": 41041, "pitch": 76, "duration": 236, "velocity": 100}, {"time": 41277, "pitch": 71, "duration": 241, "velocity": 100}, {"time": 41277, "pitch": 76, "duration": 241, "velocity": 100}, {"time": 41518, "pitch": 71, "duration": 61, "velocity": 85}, {"time": 41518, "pitch": 76, "duration": 61, "velocity": 85}, {"time": 41760, "pitch": 71, "duration": 241, "velocity": 100}, {"time": 41760, "pitch": 76, "duration": 241, "velocity": 100}, {"time": 42001, "pitch": 71, "duration": 241, "velocity": 100}, {"time": 42001, "pitch": 76, "duration": 241, "velocity": 100}, {"time": 42242, "pitch": 71, "duration": 60, "velocity": 86}, {"time": 42242, "pitch": 76, "duration": 60, "velocity": 86}, {"time": 42483, "pitch": 69, "duration": 478, "velocity": 100}, {"time": 42483, "pitch": 75, "duration": 478, "velocity": 100}, {"time": 42961, "pitch": 69, "duration": 236, "velocity": 100}, {"time": 42961, "pitch": 75, "duration": 236, "velocity": 100}, {"time": 43197, "pitch": 69, "duration": 241, "velocity": 100}, {"time": 43197, "pitch": 76, "duration": 241, "velocity": 100}, {"time": 43438, "pitch": 69, "duration": 483, "velocity": 100}, {"time": 43438, "pitch": 75, "duration": 483, "velocity": 100}, {"time": 43921, "pitch": 69, "duration": 241, "velocity": 76}, {"time": 43921, "pitch": 75, "duration": 241, "velocity": 76}, {"time": 44162, "pitch": 69, "duration": 362, "velocity": 86}, {"time": 44162, "pitch": 75, "duration": 362, "velocity": 86}, {"time": 44644, "pitch": 68, "duration": 59, "velocity": 83}, {"time": 44644, "pitch": 71, "duration": 59, "velocity": 83}, {"time": 44880, "pitch": 68, "duration": 237, "velocity": 100}, {"time": 44880, "pitch": 71, "duration": 237, "velocity": 100}, {"time": 45117, "pitch": 68, "duration": 241, "velocity": 100}, {"time": 45117, "pitch": 73, "duration": 241, "velocity": 100}, {"time": 45358, "pitch": 68, "duration": 60, "velocity": 83}, {"time": 45358, "pitch": 73, "duration": 60, "velocity": 83}, {"time": 45599, "pitch": 68, "duration": 241, "velocity": 100}, {"time": 45599, "pitch": 71, "duration": 241, "velocity": 100}, {"time": 45840, "pitch": 68, "duration": 242, "velocity": 100}, {"time": 45840, "pitch": 73, "duration": 242, "velocity": 100}, {"time": 46082, "pitch": 68, "duration": 60, "velocity": 84}, {"time": 46082, "pitch": 73, "duration": 60, "velocity": 84}, {"time": 46564, "pitch": 71, "duration": 59, "velocity": 83}, {"time": 46564, "pitch": 75, "duration": 59, "velocity": 83}, {"time": 46800, "pitch": 71, "duration": 236, "velocity": 100}, {"time": 46800, "pitch": 75, "duration": 236, "velocity": 100}, {"time": 47036, "pitch": 71, "duration": 242, "velocity": 100}, {"time": 47036, "pitch": 78, "duration": 242, "velocity": 100}, {"time": 47278, "pitch": 71, "duration": 60, "velocity": 83}, {"time": 47278, "pitch": 78, "duration": 60, "velocity": 83}, {"time": 47519, "pitch": 71, "duration": 241, "velocity": 100}, {"time": 47519, "pitch": 75, "duration": 241, "velocity": 100}, {"time": 47760, "pitch": 71, "duration": 241, "velocity": 100}, {"time": 47760, "pitch": 78, "duration": 241, "velocity": 100}, {"time": 48001, "pitch": 71, "duration": 61, "velocity": 83}, {"time": 48001, "pitch": 78, "duration": 61, "velocity": 83}, {"time": 48484, "pitch": 68, "duration": 59, "velocity": 83}, {"time": 48484, "pitch": 73, "duration": 59, "velocity": 83}, {"time": 48720, "pitch": 68, "duration": 236, "velocity": 100}, {"time": 48720, "pitch": 73, "duration": 236, "velocity": 100}, {"time": 48956, "pitch": 68, "duration": 241, "velocity": 100}, {"time": 48956, "pitch": 75, "duration": 241, "velocity": 100}, {"time": 49197, "pitch": 68, "duration": 61, "velocity": 83}, {"time": 49197, "pitch": 75, "duration": 61, "velocity": 83}, {"time": 49439, "pitch": 68, "duration": 241, "velocity": 100}, {"time": 49439, "pitch": 73, "duration": 241, "velocity": 100}, {"time": 49680, "pitch": 68, "duration": 482, "velocity": 100}, {"time": 49680, "pitch": 75, "duration": 482, "velocity": 100}, {"time": 50640, "pitch": 71, "duration": 477, "velocity": 100}, {"time": 50640, "pitch": 75, "duration": 477, "velocity": 100}, {"time": 51117, "pitch": 70, "duration": 483, "velocity": 100}, {"time": 51117, "pitch": 73, "duration": 483, "velocity": 100}, {"time": 51600, "pitch": 70, "duration": 241, "velocity": 88}, {"time": 51600, "pitch": 73, "duration": 241, "velocity": 88}, {"time": 51841, "pitch": 70, "duration": 241, "velocity": 100}, {"time": 51841, "pitch": 73, "duration": 241, "velocity": 100}, {"time": 52323, "pitch": 69, "duration": 59, "velocity": 83}, {"time": 52323, "pitch": 73, "duration": 59, "velocity": 83}, {"time": 52559, "pitch": 69, "duration": 237, "velocity": 100}, {"time": 52559, "pitch": 73, "duration": 237, "velocity": 100}, {"time": 52796, "pitch": 69, "duration": 241, "velocity": 100}, {"time": 52796, "pitch": 73, "duration": 241, "velocity": 100}, {"time": 53037, "pitch": 69, "duration": 60, "velocity": 83}, {"time": 53037, "pitch": 73, "duration": 60, "velocity": 83}, {"time": 53278, "pitch": 69, "duration": 241, "velocity": 100}, {"time": 53278, "pitch": 73, "duration": 241, "velocity": 100}, {"time": 53519, "pitch": 69, "duration": 242, "velocity": 100}, {"time": 53519, "pitch": 73, "duration": 242, "velocity": 100}, {"time": 53761, "pitch": 69, "duration": 60, "velocity": 83}, {"time": 53761, "pitch": 73, "duration": 60, "velocity": 83}, {"time": 54243, "pitch": 68, "duration": 59, "velocity": 83}, {"time": 54243, "pitch": 71, "duration": 59, "velocity": 83}, {"time": 54479, "pitch": 68, "duration": 236, "velocity": 100}, {"time": 54479, "pitch": 71, "duration": 236, "velocity": 100}, {"time": 54715, "pitch": 68, "duration": 242, "velocity": 100}, {"time": 54715, "pitch": 71, "duration": 242, "velocity": 100}, {"time": 54957, "pitch": 68, "duration": 60, "velocity": 83}, {"time": 54957, "pitch": 71, "duration": 60, "velocity": 83}, {"time": 55198, "pitch": 68, "duration": 241, "velocity": 100}, {"time": 55198, "pitch": 71, "duration": 241, "velocity": 100}, {"time": 55439, "pitch": 68, "duration": 241, "velocity": 100}, {"time": 55439, "pitch": 71, "duration": 241, "velocity": 100}, {"time": 55680, "pitch": 68, "duration": 61, "velocity": 83}, {"time": 55680, "pitch": 71, "duration": 61, "velocity": 83}, {"time": 56163, "pitch": 71, "duration": 59, "velocity": 83}, {"time": 56163, "pitch": 76, "duration": 59, "velocity": 83}, {"time": 56399, "pitch": 71, "duration": 236, "velocity": 100}, {"time": 56399, "pitch": 76, "duration": 236, "velocity": 100}, {"time": 56635, "pitch": 71, "duration": 241, "velocity": 100}, {"time": 56635, "pitch": 76, "duration": 241, "velocity": 100}, {"time": 56876, "pitch": 71, "duration": 61, "velocity": 83}, {"time": 56876, "pitch": 76, "duration": 61, "velocity": 83}, {"time": 57118, "pitch": 71, "duration": 241, "velocity": 100}, {"time": 57118, "pitch": 76, "duration": 241, "velocity": 100}, {"time": 57359, "pitch": 71, "duration": 241, "velocity": 100}, {"time": 57359, "pitch": 76, "duration": 241, "velocity": 100}, {"time": 57600, "pitch": 71, "duration": 60, "velocity": 83}, {"time": 57600, "pitch": 76, "duration": 60, "velocity": 83}, {"time": 57841, "pitch": 71, "duration": 483, "velocity": 100}, {"time": 57841, "pitch": 75, "duration": 483, "velocity": 100}, {"time": 58324, "pitch": 71, "duration": 241, "velocity": 100}, {"time": 58324, "pitch": 75, "duration": 241, "velocity": 100}, {"time": 58565, "pitch": 71, "duration": 236, "velocity": 100}, {"time": 58565, "pitch": 76, "duration": 236, "velocity": 100}, {"time": 58801, "pitch": 71, "duration": 719, "velocity": 100}, {"time": 58801, "pitch": 75, "duration": 719, "velocity": 100}, {"time": 60002, "pitch": 68, "duration": 61, "velocity": 83}, {"time": 60002, "pitch": 71, "duration": 61, "velocity": 83}, {"time": 60244, "pitch": 68, "duration": 241, "velocity": 100}, {"time": 60244, "pitch": 71, "duration": 241, "velocity": 100}, {"time": 60485, "pitch": 68, "duration": 236, "velocity": 100}, {"time": 60485, "pitch": 73, "duration": 236, "velocity": 100}, {"time": 60721, "pitch": 68, "duration": 59, "velocity": 83}, {"time": 60721, "pitch": 73, "duration": 59, "velocity": 83}, {"time": 60957, "pitch": 68, "duration": 241, "velocity": 100}, {"time": 60957, "pitch": 71, "duration": 241, "velocity": 100}, {"time": 61198, "pitch": 68, "duration": 242, "velocity": 100}, {"time": 61198, "pitch": 73, "duration": 242, "velocity": 100}, {"time": 61440, "pitch": 68, "duration": 60, "velocity": 84}, {"time": 61440, "pitch": 73, "duration": 60, "velocity": 84}, {"time": 61922, "pitch": 71, "duration": 60, "velocity": 83}, {"time": 61922, "pitch": 75, "duration": 60, "velocity": 83}, {"time": 62163, "pitch": 71, "duration": 242, "velocity": 100}, {"time": 62163, "pitch": 75, "duration": 242, "velocity": 100}, {"time": 62405, "pitch": 71, "duration": 236, "velocity": 100}, {"time": 62405, "pitch": 78, "duration": 236, "velocity": 100}, {"time": 62641, "pitch": 71, "duration": 59, "velocity": 83}, {"time": 62641, "pitch": 78, "duration": 59, "velocity": 83}, {"time": 62877, "pitch": 71, "duration": 241, "velocity": 100}, {"time": 62877, "pitch": 75, "duration": 241, "velocity": 100}, {"time": 63118, "pitch": 71, "duration": 241, "velocity": 100}, {"time": 63118, "pitch": 78, "duration": 241, "velocity": 100}, {"time": 63359, "pitch": 71, "duration": 61, "velocity": 83}, {"time": 63359, "pitch": 78, "duration": 61, "velocity": 83}, {"time": 63842, "pitch": 68, "duration": 60, "velocity": 83}, {"time": 63842, "pitch": 73, "duration": 60, "velocity": 83}, {"time": 64083, "pitch": 68, "duration": 241, "velocity": 100}, {"time": 64083, "pitch": 73, "duration": 241, "velocity": 100}, {"time": 64324, "pitch": 68, "duration": 236, "velocity": 100}, {"time": 64324, "pitch": 75, "duration": 236, "velocity": 100}, {"time": 64560, "pitch": 68, "duration": 60, "velocity": 83}, {"time": 64560, "pitch": 75, "duration": 60, "velocity": 83}, {"time": 64797, "pitch": 68, "duration": 241, "velocity": 100}, {"time": 64797, "pitch": 73, "duration": 241, "velocity": 100}, {"time": 65038, "pitch": 68, "duration": 482, "velocity": 100}, {"time": 65038, "pitch": 75, "duration": 482, "velocity": 100}, {"time": 66003, "pitch": 71, "duration": 477, "velocity": 100}, {"time": 66003, "pitch": 75, "duration": 477, "velocity": 100}, {"time": 66480, "pitch": 70, "duration": 478, "velocity": 100}, {"time": 66480, "pitch": 73, "duration": 478, "velocity": 100}, {"time": 66958, "pitch": 70, "duration": 241, "velocity": 88}, {"time": 66958, "pitch": 73, "duration": 241, "velocity": 88}, {"time": 67199, "pitch": 70, "duration": 241, "velocity": 100}, {"time": 67199, "pitch": 73, "duration": 241, "velocity": 100}, {"time": 67681, "pitch": 69, "duration": 61, "velocity": 83}, {"time": 67681, "pitch": 73, "duration": 61, "velocity": 83}, {"time": 67923, "pitch": 69, "duration": 241, "velocity": 100}, {"time": 67923, "pitch": 73, "duration": 241, "velocity": 100}, {"time": 68164, "pitch": 69, "duration": 236, "velocity": 100}, {"time": 68164, "pitch": 73, "duration": 236, "velocity": 100}, {"time": 68400, "pitch": 69, "duration": 59, "velocity": 83}, {"time": 68400, "pitch": 73, "duration": 59, "velocity": 83}, {"time": 68636, "pitch": 69, "duration": 241, "velocity": 100}, {"time": 68636, "pitch": 73, "duration": 241, "velocity": 100}, {"time": 68877, "pitch": 69, "duration": 242, "velocity": 100}, {"time": 68877, "pitch": 73, "duration": 242, "velocity": 100}, {"time": 69119, "pitch": 69, "duration": 60, "velocity": 83}, {"time": 69119, "pitch": 73, "duration": 60, "velocity": 83}, {"time": 69601, "pitch": 71, "duration": 60, "velocity": 83}, {"time": 69601, "pitch": 76, "duration": 60, "velocity": 83}, {"time": 69842, "pitch": 71, "duration": 242, "velocity": 100}, {"time": 69842, "pitch": 76, "duration": 242, "velocity": 100}, {"time": 70084, "pitch": 71, "duration": 236, "velocity": 100}, {"time": 70084, "pitch": 76, "duration": 236, "velocity": 100}, {"time": 70320, "pitch": 71, "duration": 59, "velocity": 83}, {"time": 70320, "pitch": 76, "duration": 59, "velocity": 83}, {"time": 70556, "pitch": 71, "duration": 241, "velocity": 100}, {"time": 70556, "pitch": 76, "duration": 241, "velocity": 100}, {"time": 70797, "pitch": 71, "duration": 241, "velocity": 100}, {"time": 70797, "pitch": 76, "duration": 241, "velocity": 100}, {"time": 71038, "pitch": 71, "duration": 61, "velocity": 83}, {"time": 71038, "pitch": 76, "duration": 61, "velocity": 83}, {"time": 71521, "pitch": 71, "duration": 60, "velocity": 83}, {"time": 71521, "pitch": 76, "duration": 60, "velocity": 83}, {"time": 71762, "pitch": 71, "duration": 241, "velocity": 100}, {"time": 71762, "pitch": 76, "duration": 241, "velocity": 100}, {"time": 72003, "pitch": 71, "duration": 237, "velocity": 100}, {"time": 72003, "pitch": 76, "duration": 237, "velocity": 100}, {"time": 72240, "pitch": 71, "duration": 59, "velocity": 83}, {"time": 72240, "pitch": 76, "duration": 59, "velocity": 83}, {"time": 72476, "pitch": 71, "duration": 241, "velocity": 100}, {"time": 72476, "pitch": 76, "duration": 241, "velocity": 100}, {"time": 72717, "pitch": 71, "duration": 241, "velocity": 100}, {"time": 72717, "pitch": 76, "duration": 241, "velocity": 100}, {"time": 72958, "pitch": 71, "duration": 60, "velocity": 83}, {"time": 72958, "pitch": 76, "duration": 60, "velocity": 83}, {"time": 73199, "pitch": 71, "duration": 483, "velocity": 100}, {"time": 73199, "pitch": 76, "duration": 483, "velocity": 100}, {"time": 73682, "pitch": 71, "duration": 241, "velocity": 88}, {"time": 73682, "pitch": 76, "duration": 241, "velocity": 88}, {"time": 73923, "pitch": 71, "duration": 236, "velocity": 88}, {"time": 73923, "pitch": 76, "duration": 236, "velocity": 88}, {"time": 74159, "pitch": 71, "duration": 478, "velocity": 100}, {"time": 74159, "pitch": 76, "duration": 478, "velocity": 100}, {"time": 74637, "pitch": 71, "duration": 241, "velocity": 100}, {"time": 74637, "pitch": 76, "duration": 241, "velocity": 100}, {"time": 74878, "pitch": 71, "duration": 482, "velocity": 100}, {"time": 74878, "pitch": 76, "duration": 482, "velocity": 100}, {"time": 79441, "pitch": 67, "duration": 241, "velocity": 100}, {"time": 79682, "pitch": 71, "duration": 121, "velocity": 100}, {"time": 79682, "pitch": 76, "duration": 121, "velocity": 100}, {"time": 79924, "pitch": 66, "duration": 241, "velocity": 100}, {"time": 80165, "pitch": 69, "duration": 118, "velocity": 100}, {"time": 80165, "pitch": 74, "duration": 118, "velocity": 100}, {"time": 80401, "pitch": 65, "duration": 236, "velocity": 100}, {"time": 80637, "pitch": 68, "duration": 121, "velocity": 100}, {"time": 80637, "pitch": 73, "duration": 121, "velocity": 100}, {"time": 80878, "pitch": 62, "duration": 724, "velocity": 100}, {"time": 80878, "pitch": 66, "duration": 724, "velocity": 100}, {"time": 80878, "pitch": 71, "duration": 724, "velocity": 100}, {"time": 81843, "pitch": 59, "duration": 242, "velocity": 100}, {"time": 82085, "pitch": 66, "duration": 118, "velocity": 100}, {"time": 82321, "pitch": 59, "duration": 236, "velocity": 100}, {"time": 82557, "pitch": 64, "duration": 603, "velocity": 100}, {"time": 82557, "pitch": 68, "duration": 603, "velocity": 100}, {"time": 87120, "pitch": 64, "duration": 241, "velocity": 100}, {"time": 87361, "pitch": 68, "duration": 121, "velocity": 100}, {"time": 87482, "pitch": 64, "duration": 241, "velocity": 100}, {"time": 87723, "pitch": 68, "duration": 121, "velocity": 100}, {"time": 87844, "pitch": 64, "duration": 236, "velocity": 100}, {"time": 88080, "pitch": 68, "duration": 118, "velocity": 100}, {"time": 88198, "pitch": 62, "duration": 239, "velocity": 100}, {"time": 88437, "pitch": 59, "duration": 120, "velocity": 100}, {"time": 88557, "pitch": 62, "duration": 483, "velocity": 100}, {"time": 89040, "pitch": 62, "duration": 241, "velocity": 100}, {"time": 89281, "pitch": 61, "duration": 241, "velocity": 100}, {"time": 89764, "pitch": 59, "duration": 118, "velocity": 100}, {"time": 90000, "pitch": 56, "duration": 477, "velocity": 100}, {"time": 90477, "pitch": 52, "duration": 483, "velocity": 100}, {"time": 96719, "pitch": 54, "duration": 121, "velocity": 100}, {"time": 96840, "pitch": 56, "duration": 120, "velocity": 100}, {"time": 96960, "pitch": 59, "duration": 121, "velocity": 100}, {"time": 97201, "pitch": 62, "duration": 121, "velocity": 100}, {"time": 97443, "pitch": 68, "duration": 118, "velocity": 100}, {"time": 97561, "pitch": 66, "duration": 118, "velocity": 100}, {"time": 97679, "pitch": 64, "duration": 118, "velocity": 100}, {"time": 97915, "pitch": 66, "duration": 241, "velocity": 100}, {"time": 98156, "pitch": 64, "duration": 483, "velocity": 100}, {"time": 106077, "pitch": 71, "duration": 60, "velocity": 80}, {"time": 106077, "pitch": 76, "duration": 60, "velocity": 80}, {"time": 106318, "pitch": 71, "duration": 241, "velocity": 100}, {"time": 106318, "pitch": 76, "duration": 241, "velocity": 100}, {"time": 106559, "pitch": 71, "duration": 241, "velocity": 100}, {"time": 106559, "pitch": 76, "duration": 241, "velocity": 100}, {"time": 106800, "pitch": 71, "duration": 61, "velocity": 85}, {"time": 106800, "pitch": 76, "duration": 61, "velocity": 85}, {"time": 107041, "pitch": 71, "duration": 242, "velocity": 100}, {"time": 107041, "pitch": 76, "duration": 242, "velocity": 100}, {"time": 107283, "pitch": 71, "duration": 241, "velocity": 100}, {"time": 107283, "pitch": 76, "duration": 241, "velocity": 100}, {"time": 107524, "pitch": 71, "duration": 59, "velocity": 86}, {"time": 107524, "pitch": 76, "duration": 59, "velocity": 86}, {"time": 107760, "pitch": 69, "duration": 477, "velocity": 100}, {"time": 107760, "pitch": 75, "duration": 477, "velocity": 100}, {"time": 108237, "pitch": 69, "duration": 242, "velocity": 100}, {"time": 108237, "pitch": 75, "duration": 242, "velocity": 100}, {"time": 108479, "pitch": 69, "duration": 241, "velocity": 100}, {"time": 108479, "pitch": 76, "duration": 241, "velocity": 100}, {"time": 108720, "pitch": 69, "duration": 482, "velocity": 100}, {"time": 108720, "pitch": 75, "duration": 482, "velocity": 100}, {"time": 109202, "pitch": 69, "duration": 242, "velocity": 76}, {"time": 109202, "pitch": 75, "duration": 242, "velocity": 76}, {"time": 109444, "pitch": 69, "duration": 354, "velocity": 86}, {"time": 109444, "pitch": 75, "duration": 354, "velocity": 86}, {"time": 109916, "pitch": 68, "duration": 60, "velocity": 83}, {"time": 109916, "pitch": 71, "duration": 60, "velocity": 83}, {"time": 110157, "pitch": 68, "duration": 241, "velocity": 100}, {"time": 110157, "pitch": 71, "duration": 241, "velocity": 100}, {"time": 110398, "pitch": 68, "duration": 242, "velocity": 100}, {"time": 110398, "pitch": 73, "duration": 242, "velocity": 100}, {"time": 110640, "pitch": 68, "duration": 60, "velocity": 83}, {"time": 110640, "pitch": 73, "duration": 60, "velocity": 83}, {"time": 110881, "pitch": 68, "duration": 241, "velocity": 100}, {"time": 110881, "pitch": 71, "duration": 241, "velocity": 100}, {"time": 111122, "pitch": 68, "duration": 241, "velocity": 100}, {"time": 111122, "pitch": 73, "duration": 241, "velocity": 100}, {"time": 111363, "pitch": 68, "duration": 59, "velocity": 84}, {"time": 111363, "pitch": 73, "duration": 59, "velocity": 84}, {"time": 111836, "pitch": 66, "duration": 60, "velocity": 83}, {"time": 111836, "pitch": 71, "duration": 60, "velocity": 83}, {"time": 112077, "pitch": 66, "duration": 241, "velocity": 100}, {"time": 112077, "pitch": 71, "duration": 241, "velocity": 100}, {"time": 112318, "pitch": 66, "duration": 241, "velocity": 100}, {"time": 112318, "pitch": 73, "duration": 241, "velocity": 100}, {"time": 112559, "pitch": 66, "duration": 61, "velocity": 83}, {"time": 112559, "pitch": 73, "duration": 61, "velocity": 83}, {"time": 112801, "pitch": 66, "duration": 241, "velocity": 100}, {"time": 112801, "pitch": 71, "duration": 241, "velocity": 100}, {"time": 113042, "pitch": 66, "duration": 241, "velocity": 100}, {"time": 113042, "pitch": 73, "duration": 241, "velocity": 100}, {"time": 113283, "pitch": 66, "duration": 59, "velocity": 84}, {"time": 113283, "pitch": 73, "duration": 59, "velocity": 84}, {"time": 113756, "pitch": 68, "duration": 60, "velocity": 83}, {"time": 113756, "pitch": 73, "duration": 60, "velocity": 83}, {"time": 113997, "pitch": 68, "duration": 241, "velocity": 100}, {"time": 113997, "pitch": 73, "duration": 241, "velocity": 100}, {"time": 114238, "pitch": 68, "duration": 241, "velocity": 100}, {"time": 114238, "pitch": 75, "duration": 241, "velocity": 100}, {"time": 114479, "pitch": 68, "duration": 61, "velocity": 83}, {"time": 114479, "pitch": 75, "duration": 61, "velocity": 83}, {"time": 114720, "pitch": 68, "duration": 242, "velocity": 100}, {"time": 114720, "pitch": 73, "duration": 242, "velocity": 100}, {"time": 114962, "pitch": 68, "duration": 477, "velocity": 100}, {"time": 114962, "pitch": 75, "duration": 477, "velocity": 100}, {"time": 115917, "pitch": 71, "duration": 482, "velocity": 100}, {"time": 115917, "pitch": 75, "duration": 482, "velocity": 100}, {"time": 116399, "pitch": 70, "duration": 482, "velocity": 100}, {"time": 116399, "pitch": 73, "duration": 482, "velocity": 100}, {"time": 116881, "pitch": 70, "duration": 242, "velocity": 88}, {"time": 116881, "pitch": 73, "duration": 242, "velocity": 88}, {"time": 117123, "pitch": 70, "duration": 236, "velocity": 100}, {"time": 117123, "pitch": 73, "duration": 236, "velocity": 100}, {"time": 117595, "pitch": 69, "duration": 60, "velocity": 83}, {"time": 117595, "pitch": 73, "duration": 60, "velocity": 83}, {"time": 117836, "pitch": 69, "duration": 242, "velocity": 100}, {"time": 117836, "pitch": 73, "duration": 242, "velocity": 100}, {"time": 118078, "pitch": 69, "duration": 241, "velocity": 100}, {"time": 118078, "pitch": 73, "duration": 241, "velocity": 100}, {"time": 118319, "pitch": 69, "duration": 60, "velocity": 83}, {"time": 118319, "pitch": 73, "duration": 60, "velocity": 83}, {"time": 118560, "pitch": 69, "duration": 241, "velocity": 100}, {"time": 118560, "pitch": 73, "duration": 241, "velocity": 100}, {"time": 118801, "pitch": 69, "duration": 241, "velocity": 100}, {"time": 118801, "pitch": 73, "duration": 241, "velocity": 100}, {"time": 119042, "pitch": 69, "duration": 61, "velocity": 83}, {"time": 119042, "pitch": 73, "duration": 61, "velocity": 83}, {"time": 119525, "pitch": 68, "duration": 59, "velocity": 83}, {"time": 119525, "pitch": 71, "duration": 59, "velocity": 83}, {"time": 119761, "pitch": 68, "duration": 236, "velocity": 100}, {"time": 119761, "pitch": 71, "duration": 236, "velocity": 100}, {"time": 119997, "pitch": 68, "duration": 242, "velocity": 100}, {"time": 119997, "pitch": 71, "duration": 242, "velocity": 100}, {"time": 120239, "pitch": 68, "duration": 60, "velocity": 83}, {"time": 120239, "pitch": 71, "duration": 60, "velocity": 83}, {"time": 120480, "pitch": 68, "duration": 241, "velocity": 100}, {"time": 120480, "pitch": 71, "duration": 241, "velocity": 100}, {"time": 120721, "pitch": 68, "duration": 241, "velocity": 100}, {"time": 120721, "pitch": 71, "duration": 241, "velocity": 100}, {"time": 120962, "pitch": 68, "duration": 61, "velocity": 83}, {"time": 120962, "pitch": 71, "duration": 61, "velocity": 83}, {"time": 121445, "pitch": 71, "duration": 59, "velocity": 83}, {"time": 121445, "pitch": 76, "duration": 59, "velocity": 83}, {"time": 121681, "pitch": 71, "duration": 236, "velocity": 100}, {"time": 121681, "pitch": 76, "duration": 236, "velocity": 100}, {"time": 121917, "pitch": 71, "duration": 241, "velocity": 100}, {"time": 121917, "pitch": 76, "duration": 241, "velocity": 100}, {"time": 122158, "pitch": 71, "duration": 61, "velocity": 83}, {"time": 122158, "pitch": 76, "duration": 61, "velocity": 83}, {"time": 122400, "pitch": 71, "duration": 241, "velocity": 100}, {"time": 122400, "pitch": 76, "duration": 241, "velocity": 100}, {"time": 122641, "pitch": 71, "duration": 241, "velocity": 100}, {"time": 122641, "pitch": 76, "duration": 241, "velocity": 100}, {"time": 122882, "pitch": 71, "duration": 60, "velocity": 83}, {"time": 122882, "pitch": 76, "duration": 60, "velocity": 83}, {"time": 123123, "pitch": 71, "duration": 478, "velocity": 100}, {"time": 123123, "pitch": 75, "duration": 478, "velocity": 100}, {"time": 123601, "pitch": 71, "duration": 236, "velocity": 100}, {"time": 123601, "pitch": 75, "duration": 236, "velocity": 100}, {"time": 123837, "pitch": 71, "duration": 241, "velocity": 100}, {"time": 123837, "pitch": 76, "duration": 241, "velocity": 100}, {"time": 124078, "pitch": 71, "duration": 724, "velocity": 100}, {"time": 124078, "pitch": 75, "duration": 724, "velocity": 100}, {"time": 125284, "pitch": 68, "duration": 59, "velocity": 83}, {"time": 125284, "pitch": 71, "duration": 59, "velocity": 83}, {"time": 125520, "pitch": 68, "duration": 237, "velocity": 100}, {"time": 125520, "pitch": 71, "duration": 237, "velocity": 100}, {"time": 125757, "pitch": 68, "duration": 241, "velocity": 100}, {"time": 125757, "pitch": 73, "duration": 241, "velocity": 100}, {"time": 125998, "pitch": 68, "duration": 60, "velocity": 83}, {"time": 125998, "pitch": 73, "duration": 60, "velocity": 83}, {"time": 126239, "pitch": 68, "duration": 241, "velocity": 100}, {"time": 126239, "pitch": 71, "duration": 241, "velocity": 100}, {"time": 126480, "pitch": 68, "duration": 242, "velocity": 100}, {"time": 126480, "pitch": 73, "duration": 242, "velocity": 100}, {"time": 126722, "pitch": 68, "duration": 60, "velocity": 84}, {"time": 126722, "pitch": 73, "duration": 60, "velocity": 84}, {"time": 127204, "pitch": 66, "duration": 59, "velocity": 83}, {"time": 127204, "pitch": 71, "duration": 59, "velocity": 83}, {"time": 127440, "pitch": 66, "duration": 236, "velocity": 100}, {"time": 127440, "pitch": 71, "duration": 236, "velocity": 100}, {"time": 127676, "pitch": 66, "duration": 242, "velocity": 100}, {"time": 127676, "pitch": 73, "duration": 242, "velocity": 100}, {"time": 127918, "pitch": 66, "duration": 60, "velocity": 83}, {"time": 127918, "pitch": 73, "duration": 60, "velocity": 83}, {"time": 128159, "pitch": 66, "duration": 241, "velocity": 100}, {"time": 128159, "pitch": 71, "duration": 241, "velocity": 100}, {"time": 128400, "pitch": 66, "duration": 241, "velocity": 100}, {"time": 128400, "pitch": 73, "duration": 241, "velocity": 100}, {"time": 128641, "pitch": 66, "duration": 61, "velocity": 84}, {"time": 128641, "pitch": 73, "duration": 61, "velocity": 84}, {"time": 129124, "pitch": 68, "duration": 59, "velocity": 83}, {"time": 129124, "pitch": 73, "duration": 59, "velocity": 83}, {"time": 129360, "pitch": 68, "duration": 236, "velocity": 100}, {"time": 129360, "pitch": 73, "duration": 236, "velocity": 100}, {"time": 129596, "pitch": 68, "duration": 241, "velocity": 100}, {"time": 129596, "pitch": 75, "duration": 241, "velocity": 100}, {"time": 129837, "pitch": 68, "duration": 61, "velocity": 83}, {"time": 129837, "pitch": 75, "duration": 61, "velocity": 83}, {"time": 130079, "pitch": 68, "duration": 241, "velocity": 100}, {"time": 130079, "pitch": 73, "duration": 241, "velocity": 100}, {"time": 130320, "pitch": 68, "duration": 482, "velocity": 100}, {"time": 130320, "pitch": 75, "duration": 482, "velocity": 100}, {"time": 131280, "pitch": 71, "duration": 477, "velocity": 100}, {"time": 131280, "pitch": 75, "duration": 477, "velocity": 100}, {"time": 131757, "pitch": 70, "duration": 483, "velocity": 100}, {"time": 131757, "pitch": 73, "duration": 483, "velocity": 100}, {"time": 132240, "pitch": 70, "duration": 241, "velocity": 88}, {"time": 132240, "pitch": 73, "duration": 241, "velocity": 88}, {"time": 132481, "pitch": 70, "duration": 241, "velocity": 100}, {"time": 132481, "pitch": 73, "duration": 241, "velocity": 100}, {"time": 132963, "pitch": 69, "duration": 59, "velocity": 83}, {"time": 132963, "pitch": 73, "duration": 59, "velocity": 83}, {"time": 133199, "pitch": 69, "duration": 237, "velocity": 100}, {"time": 133199, "pitch": 73, "duration": 237, "velocity": 100}, {"time": 133436, "pitch": 69, "duration": 241, "velocity": 100}, {"time": 133436, "pitch": 73, "duration": 241, "velocity": 100}, {"time": 133677, "pitch": 69, "duration": 60, "velocity": 83}, {"time": 133677, "pitch": 73, "duration": 60, "velocity": 83}, {"time": 133918, "pitch": 69, "duration": 241, "velocity": 100}, {"time": 133918, "pitch": 73, "duration": 241, "velocity": 100}, {"time": 134159, "pitch": 69, "duration": 242, "velocity": 100}, {"time": 134159, "pitch": 73, "duration": 242, "velocity": 100}, {"time": 134401, "pitch": 69, "duration": 60, "velocity": 83}, {"time": 134401, "pitch": 73, "duration": 60, "velocity": 83}, {"time": 134883, "pitch": 71, "duration": 59, "velocity": 83}, {"time": 134883, "pitch": 76, "duration": 59, "velocity": 83}, {"time": 135119, "pitch": 71, "duration": 236, "velocity": 100}, {"time": 135119, "pitch": 76, "duration": 236, "velocity": 100}, {"time": 135355, "pitch": 71, "duration": 242, "velocity": 100}, {"time": 135355, "pitch": 76, "duration": 242, "velocity": 100}, {"time": 135597, "pitch": 71, "duration": 60, "velocity": 83}, {"time": 135597, "pitch": 76, "duration": 60, "velocity": 83}, {"time": 135838, "pitch": 71, "duration": 241, "velocity": 100}, {"time": 135838, "pitch": 76, "duration": 241, "velocity": 100}, {"time": 136079, "pitch": 71, "duration": 241, "velocity": 100}, {"time": 136079, "pitch": 76, "duration": 241, "velocity": 100}, {"time": 136320, "pitch": 71, "duration": 61, "velocity": 83}, {"time": 136320, "pitch": 76, "duration": 61, "velocity": 83}, {"time": 136803, "pitch": 69, "duration": 59, "velocity": 83}, {"time": 136803, "pitch": 76, "duration": 59, "velocity": 83}, {"time": 137039, "pitch": 69, "duration": 236, "velocity": 100}, {"time": 137039, "pitch": 76, "duration": 236, "velocity": 100}, {"time": 137275, "pitch": 69, "duration": 241, "velocity": 100}, {"time": 137275, "pitch": 76, "duration": 241, "velocity": 100}, {"time": 137516, "pitch": 69, "duration": 61, "velocity": 83}, {"time": 137516, "pitch": 76, "duration": 61, "velocity": 83}, {"time": 137758, "pitch": 69, "duration": 241, "velocity": 100}, {"time": 137758, "pitch": 76, "duration": 241, "velocity": 100}, {"time": 137999, "pitch": 69, "duration": 241, "velocity": 100}, {"time": 137999, "pitch": 76, "duration": 241, "velocity": 100}, {"time": 138240, "pitch": 69, "duration": 60, "velocity": 83}, {"time": 138240, "pitch": 76, "duration": 60, "velocity": 83}, {"time": 138481, "pitch": 68, "duration": 483, "velocity": 100}, {"time": 138481, "pitch": 76, "duration": 483, "velocity": 100}, {"time": 138964, "pitch": 68, "duration": 241, "velocity": 88}, {"time": 138964, "pitch": 76, "duration": 241, "velocity": 88}, {"time": 139205, "pitch": 69, "duration": 236, "velocity": 88}, {"time": 139205, "pitch": 76, "duration": 236, "velocity": 88}, {"time": 139441, "pitch": 68, "duration": 478, "velocity": 100}, {"time": 139441, "pitch": 76, "duration": 478, "velocity": 100}, {"time": 139919, "pitch": 68, "duration": 241, "velocity": 100}, {"time": 139919, "pitch": 76, "duration": 241, "velocity": 100}, {"time": 140160, "pitch": 68, "duration": 482, "velocity": 100}, {"time": 140160, "pitch": 76, "duration": 482, "velocity": 100}, {"time": 156000, "pitch": 68, "duration": 61, "velocity": 83}, {"time": 156000, "pitch": 71, "duration": 61, "velocity": 83}, {"time": 156242, "pitch": 68, "duration": 241, "velocity": 100}, {"time": 156242, "pitch": 71, "duration": 241, "velocity": 100}, {"time": 156483, "pitch": 68, "duration": 236, "velocity": 100}, {"time": 156483, "pitch": 73, "duration": 236, "velocity": 100}, {"time": 156719, "pitch": 68, "duration": 59, "velocity": 83}, {"time": 156719, "pitch": 73, "duration": 59, "velocity": 83}, {"time": 156955, "pitch": 68, "duration": 241, "velocity": 100}, {"time": 156955, "pitch": 71, "duration": 241, "velocity": 100}, {"time": 157196, "pitch": 68, "duration": 242, "velocity": 100}, {"time": 157196, "pitch": 73, "duration": 242, "velocity": 100}, {"time": 157438, "pitch": 68, "duration": 60, "velocity": 84}, {"time": 157438, "pitch": 73, "duration": 60, "velocity": 84}, {"time": 157920, "pitch": 66, "duration": 60, "velocity": 83}, {"time": 157920, "pitch": 71, "duration": 60, "velocity": 83}, {"time": 158161, "pitch": 66, "duration": 242, "velocity": 100}, {"time": 158161, "pitch": 71, "duration": 242, "velocity": 100}, {"time": 158403, "pitch": 66, "duration": 241, "velocity": 100}, {"time": 158403, "pitch": 73, "duration": 241, "velocity": 100}, {"time": 158644, "pitch": 66, "duration": 60, "velocity": 83}, {"time": 158644, "pitch": 73, "duration": 60, "velocity": 83}, {"time": 158885, "pitch": 66, "duration": 236, "velocity": 100}, {"time": 158885, "pitch": 71, "duration": 236, "velocity": 100}, {"time": 159121, "pitch": 66, "duration": 236, "velocity": 100}, {"time": 159121, "pitch": 73, "duration": 236, "velocity": 100}, {"time": 159357, "pitch": 66, "duration": 61, "velocity": 84}, {"time": 159357, "pitch": 73, "duration": 61, "velocity": 84}, {"time": 159840, "pitch": 68, "duration": 60, "velocity": 83}, {"time": 159840, "pitch": 73, "duration": 60, "velocity": 83}, {"time": 160081, "pitch": 68, "duration": 241, "velocity": 100}, {"time": 160081, "pitch": 73, "duration": 241, "velocity": 100}, {"time": 160322, "pitch": 68, "duration": 242, "velocity": 100}, {"time": 160322, "pitch": 75, "duration": 242, "velocity": 100}, {"time": 160564, "pitch": 68, "duration": 60, "velocity": 83}, {"time": 160564, "pitch": 75, "duration": 60, "velocity": 83}, {"time": 160805, "pitch": 68, "duration": 236, "velocity": 100}, {"time": 160805, "pitch": 73, "duration": 236, "velocity": 100}, {"time": 161041, "pitch": 68, "duration": 477, "velocity": 100}, {"time": 161041, "pitch": 75, "duration": 477, "velocity": 100}, {"time": 162001, "pitch": 71, "duration": 482, "velocity": 100}, {"time": 162001, "pitch": 75, "duration": 482, "velocity": 100}, {"time": 162483, "pitch": 70, "duration": 478, "velocity": 100}, {"time": 162483, "pitch": 73, "duration": 478, "velocity": 100}, {"time": 162961, "pitch": 70, "duration": 236, "velocity": 88}, {"time": 162961, "pitch": 73, "duration": 236, "velocity": 88}, {"time": 163197, "pitch": 70, "duration": 241, "velocity": 100}, {"time": 163197, "pitch": 73, "duration": 241, "velocity": 100}, {"time": 163679, "pitch": 69, "duration": 61, "velocity": 83}, {"time": 163679, "pitch": 73, "duration": 61, "velocity": 83}, {"time": 163921, "pitch": 69, "duration": 241, "velocity": 100}, {"time": 163921, "pitch": 73, "duration": 241, "velocity": 100}, {"time": 164162, "pitch": 69, "duration": 241, "velocity": 100}, {"time": 164162, "pitch": 73, "duration": 241, "velocity": 100}, {"time": 164403, "pitch": 69, "duration": 60, "velocity": 83}, {"time": 164403, "pitch": 73, "duration": 60, "velocity": 83}, {"time": 164644, "pitch": 69, "duration": 236, "velocity": 100}, {"time": 164644, "pitch": 73, "duration": 236, "velocity": 100}, {"time": 164880, "pitch": 69, "duration": 237, "velocity": 100}, {"time": 164880, "pitch": 73, "duration": 237, "velocity": 100}, {"time": 165117, "pitch": 69, "duration": 60, "velocity": 83}, {"time": 165117, "pitch": 73, "duration": 60, "velocity": 83}, {"time": 165599, "pitch": 68, "duration": 60, "velocity": 83}, {"time": 165599, "pitch": 71, "duration": 60, "velocity": 83}, {"time": 165840, "pitch": 68, "duration": 242, "velocity": 100}, {"time": 165840, "pitch": 71, "duration": 242, "velocity": 100}, {"time": 166082, "pitch": 68, "duration": 241, "velocity": 100}, {"time": 166082, "pitch": 71, "duration": 241, "velocity": 100}, {"time": 166323, "pitch": 68, "duration": 60, "velocity": 83}, {"time": 166323, "pitch": 71, "duration": 60, "velocity": 83}, {"time": 166564, "pitch": 68, "duration": 236, "velocity": 100}, {"time": 166564, "pitch": 71, "duration": 236, "velocity": 100}, {"time": 166800, "pitch": 68, "duration": 236, "velocity": 100}, {"time": 166800, "pitch": 71, "duration": 236, "velocity": 100}, {"time": 167036, "pitch": 68, "duration": 61, "velocity": 83}, {"time": 167036, "pitch": 71, "duration": 61, "velocity": 83}, {"time": 167519, "pitch": 71, "duration": 60, "velocity": 83}, {"time": 167519, "pitch": 76, "duration": 60, "velocity": 83}, {"time": 167760, "pitch": 71, "duration": 241, "velocity": 100}, {"time": 167760, "pitch": 76, "duration": 241, "velocity": 100}, {"time": 168001, "pitch": 71, "duration": 242, "velocity": 100}, {"time": 168001, "pitch": 76, "duration": 242, "velocity": 100}, {"time": 168243, "pitch": 71, "duration": 60, "velocity": 83}, {"time": 168243, "pitch": 76, "duration": 60, "velocity": 83}, {"time": 168484, "pitch": 71, "duration": 236, "velocity": 100}, {"time": 168484, "pitch": 76, "duration": 236, "velocity": 100}, {"time": 168720, "pitch": 71, "duration": 236, "velocity": 100}, {"time": 168720, "pitch": 76, "duration": 236, "velocity": 100}, {"time": 168956, "pitch": 71, "duration": 60, "velocity": 83}, {"time": 168956, "pitch": 76, "duration": 60, "velocity": 83}, {"time": 169197, "pitch": 71, "duration": 483, "velocity": 100}, {"time": 169197, "pitch": 75, "duration": 483, "velocity": 100}, {"time": 169680, "pitch": 71, "duration": 241, "velocity": 100}, {"time": 169680, "pitch": 75, "duration": 241, "velocity": 100}, {"time": 169921, "pitch": 71, "duration": 241, "velocity": 100}, {"time": 169921, "pitch": 76, "duration": 241, "velocity": 100}, {"time": 170162, "pitch": 71, "duration": 714, "velocity": 100}, {"time": 170162, "pitch": 75, "duration": 714, "velocity": 100}, {"time": 171358, "pitch": 68, "duration": 61, "velocity": 83}, {"time": 171358, "pitch": 71, "duration": 61, "velocity": 83}, {"time": 171600, "pitch": 68, "duration": 241, "velocity": 100}, {"time": 171600, "pitch": 71, "duration": 241, "velocity": 100}, {"time": 171841, "pitch": 68, "duration": 241, "velocity": 100}, {"time": 171841, "pitch": 73, "duration": 241, "velocity": 100}, {"time": 172082, "pitch": 68, "duration": 60, "velocity": 83}, {"time": 172082, "pitch": 73, "duration": 60, "velocity": 83}, {"time": 172323, "pitch": 68, "duration": 236, "velocity": 100}, {"time": 172323, "pitch": 71, "duration": 236, "velocity": 100}, {"time": 172559, "pitch": 68, "duration": 237, "velocity": 100}, {"time": 172559, "pitch": 73, "duration": 237, "velocity": 100}, {"time": 172796, "pitch": 68, "duration": 60, "velocity": 84}, {"time": 172796, "pitch": 73, "duration": 60, "velocity": 84}, {"time": 173278, "pitch": 66, "duration": 60, "velocity": 83}, {"time": 173278, "pitch": 71, "duration": 60, "velocity": 83}, {"time": 173519, "pitch": 66, "duration": 242, "velocity": 100}, {"time": 173519, "pitch": 71, "duration": 242, "velocity": 100}, {"time": 173761, "pitch": 66, "duration": 241, "velocity": 100}, {"time": 173761, "pitch": 73, "duration": 241, "velocity": 100}, {"time": 174002, "pitch": 66, "duration": 60, "velocity": 83}, {"time": 174002, "pitch": 73, "duration": 60, "velocity": 83}, {"time": 174243, "pitch": 66, "duration": 236, "velocity": 100}, {"time": 174243, "pitch": 71, "duration": 236, "velocity": 100}, {"time": 174479, "pitch": 66, "duration": 236, "velocity": 100}, {"time": 174479, "pitch": 73, "duration": 236, "velocity": 100}, {"time": 174715, "pitch": 66, "duration": 61, "velocity": 84}, {"time": 174715, "pitch": 73, "duration": 61, "velocity": 84}, {"time": 175198, "pitch": 68, "duration": 60, "velocity": 83}, {"time": 175198, "pitch": 73, "duration": 60, "velocity": 83}, {"time": 175439, "pitch": 68, "duration": 241, "velocity": 100}, {"time": 175439, "pitch": 73, "duration": 241, "velocity": 100}, {"time": 175680, "pitch": 68, "duration": 242, "velocity": 100}, {"time": 175680, "pitch": 75, "duration": 242, "velocity": 100}, {"time": 175922, "pitch": 68, "duration": 60, "velocity": 83}, {"time": 175922, "pitch": 75, "duration": 60, "velocity": 83}, {"time": 176163, "pitch": 68, "duration": 236, "velocity": 100}, {"time": 176163, "pitch": 73, "duration": 236, "velocity": 100}, {"time": 176399, "pitch": 68, "duration": 477, "velocity": 100}, {"time": 176399, "pitch": 75, "duration": 477, "velocity": 100}, {"time": 177359, "pitch": 71, "duration": 482, "velocity": 100}, {"time": 177359, "pitch": 75, "duration": 482, "velocity": 100}, {"time": 177841, "pitch": 70, "duration": 478, "velocity": 100}, {"time": 177841, "pitch": 73, "duration": 478, "velocity": 100}, {"time": 178319, "pitch": 70, "duration": 236, "velocity": 88}, {"time": 178319, "pitch": 73, "duration": 236, "velocity": 88}, {"time": 178555, "pitch": 70, "duration": 241, "velocity": 100}, {"time": 178555, "pitch": 73, "duration": 241, "velocity": 100}, {"time": 179037, "pitch": 69, "duration": 61, "velocity": 83}, {"time": 179037, "pitch": 73, "duration": 61, "velocity": 83}, {"time": 179279, "pitch": 69, "duration": 241, "velocity": 100}, {"time": 179279, "pitch": 73, "duration": 241, "velocity": 100}, {"time": 179520, "pitch": 69, "duration": 241, "velocity": 100}, {"time": 179520, "pitch": 73, "duration": 241, "velocity": 100}, {"time": 179761, "pitch": 69, "duration": 60, "velocity": 83}, {"time": 179761, "pitch": 73, "duration": 60, "velocity": 83}, {"time": 180002, "pitch": 69, "duration": 242, "velocity": 100}, {"time": 180002, "pitch": 73, "duration": 242, "velocity": 100}, {"time": 180244, "pitch": 69, "duration": 241, "velocity": 100}, {"time": 180244, "pitch": 73, "duration": 241, "velocity": 100}, {"time": 180485, "pitch": 69, "duration": 59, "velocity": 83}, {"time": 180485, "pitch": 73, "duration": 59, "velocity": 83}, {"time": 180957, "pitch": 71, "duration": 60, "velocity": 83}, {"time": 180957, "pitch": 76, "duration": 60, "velocity": 83}, {"time": 181198, "pitch": 71, "duration": 242, "velocity": 100}, {"time": 181198, "pitch": 76, "duration": 242, "velocity": 100}, {"time": 181440, "pitch": 71, "duration": 241, "velocity": 100}, {"time": 181440, "pitch": 76, "duration": 241, "velocity": 100}, {"time": 181681, "pitch": 71, "duration": 60, "velocity": 83}, {"time": 181681, "pitch": 76, "duration": 60, "velocity": 83}, {"time": 181922, "pitch": 71, "duration": 241, "velocity": 100}, {"time": 181922, "pitch": 76, "duration": 241, "velocity": 100}, {"time": 182163, "pitch": 71, "duration": 242, "velocity": 100}, {"time": 182163, "pitch": 76, "duration": 242, "velocity": 100}, {"time": 182405, "pitch": 71, "duration": 59, "velocity": 83}, {"time": 182405, "pitch": 76, "duration": 59, "velocity": 83}, {"time": 182877, "pitch": 69, "duration": 60, "velocity": 83}, {"time": 182877, "pitch": 76, "duration": 60, "velocity": 83}, {"time": 183118, "pitch": 69, "duration": 241, "velocity": 100}, {"time": 183118, "pitch": 76, "duration": 241, "velocity": 100}, {"time": 183359, "pitch": 69, "duration": 242, "velocity": 100}, {"time": 183359, "pitch": 76, "duration": 242, "velocity": 100}, {"time": 183601, "pitch": 69, "duration": 60, "velocity": 83}, {"time": 183601, "pitch": 76, "duration": 60, "velocity": 83}, {"time": 183842, "pitch": 69, "duration": 241, "velocity": 100}, {"time": 183842, "pitch": 76, "duration": 241, "velocity": 100}, {"time": 184083, "pitch": 69, "duration": 241, "velocity": 100}, {"time": 184083, "pitch": 76, "duration": 241, "velocity": 100}, {"time": 184324, "pitch": 69, "duration": 59, "velocity": 83}, {"time": 184324, "pitch": 76, "duration": 59, "velocity": 83}, {"time": 184560, "pitch": 68, "duration": 4076, "velocity": 100}, {"time": 184560, "pitch": 76, "duration": 4076, "velocity": 100}], "annotations": [{"time": 300, "annotation": {"number": 7, "value": 110}, "group": "control_change"}, {"time": 320, "annotation": {"number": 11, "value": 100}, "group": "control_change"}, {"time": 340, "annotation": {"number": 10, "value": 64}, "group": "control_change"}, {"time": 360, "annotation": {"number": 91, "value": 40}, "group": "control_change"}, {"time": 380, "annotation": {"number": 93, "value": 0}, "group": "control_change"}, {"time": 400, "annotation": {"number": 101, "value": 0}, "group": "control_change"}, {"time": 420, "annotation": {"number": 100, "value": 0}, "group": "control_change"}, {"time": 440, "annotation": {"number": 6, "value": 12}, "group": "control_change"}, {"time": 460, "annotation": {"number": 101, "value": 127}, "group": "control_change"}, {"time": 480, "annotation": {"number": 100, "value": 127}, "group": "control_change"}, {"time": 185768, "annotation": {"number": 11, "value": 100}, "group": "control_change"}, {"time": 185804, "annotation": {"number": 11, "value": 99}, "group": "control_change"}, {"time": 185828, "annotation": {"number": 11, "value": 98}, "group": "control_change"}, {"time": 185864, "annotation": {"number": 11, "value": 97}, "group": "control_change"}, {"time": 185888, "annotation": {"number": 11, "value": 96}, "group": "control_change"}, {"time": 185924, "annotation": {"number": 11, "value": 95}, "group": "control_change"}, {"time": 185949, "annotation": {"number": 11, "value": 94}, "group": "control_change"}, {"time": 185973, "annotation": {"number": 11, "value": 93}, "group": "control_change"}, {"time": 186009, "annotation": {"number": 11, "value": 92}, "group": "control_change"}, {"time": 186033, "annotation": {"number": 11, "value": 91}, "group": "control_change"}, {"time": 186069, "annotation": {"number": 11, "value": 90}, "group": "control_change"}, {"time": 186093, "annotation": {"number": 11, "value": 89}, "group": "control_change"}, {"time": 186130, "annotation": {"number": 11, "value": 88}, "group": "control_change"}, {"time": 186154, "annotation": {"number": 11, "value": 87}, "group": "control_change"}, {"time": 186178, "annotation": {"number": 11, "value": 86}, "group": "control_change"}, {"time": 186214, "annotation": {"number": 11, "value": 85}, "group": "control_change"}, {"time": 186238, "annotation": {"number": 11, "value": 84}, "group": "control_change"}, {"time": 186274, "annotation": {"number": 11, "value": 83}, "group": "control_change"}, {"time": 186297, "annotation": {"number": 11, "value": 82}, "group": "control_change"}, {"time": 186321, "annotation": {"number": 11, "value": 81}, "group": "control_change"}, {"time": 186356, "annotation": {"number": 11, "value": 80}, "group": "control_change"}, {"time": 186380, "annotation": {"number": 11, "value": 79}, "group": "control_change"}, {"time": 186415, "annotation": {"number": 11, "value": 78}, "group": "control_change"}, {"time": 186439, "annotation": {"number": 11, "value": 77}, "group": "control_change"}, {"time": 186474, "annotation": {"number": 11, "value": 76}, "group": "control_change"}, {"time": 186498, "annotation": {"number": 11, "value": 75}, "group": "control_change"}, {"time": 186522, "annotation": {"number": 11, "value": 74}, "group": "control_change"}, {"time": 186557, "annotation": {"number": 11, "value": 73}, "group": "control_change"}, {"time": 186581, "annotation": {"number": 11, "value": 72}, "group": "control_change"}, {"time": 186616, "annotation": {"number": 11, "value": 71}, "group": "control_change"}, {"time": 186640, "annotation": {"number": 11, "value": 70}, "group": "control_change"}, {"time": 186675, "annotation": {"number": 11, "value": 69}, "group": "control_change"}, {"time": 186699, "annotation": {"number": 11, "value": 68}, "group": "control_change"}, {"time": 186722, "annotation": {"number": 11, "value": 67}, "group": "control_change"}, {"time": 186759, "annotation": {"number": 11, "value": 66}, "group": "control_change"}, {"time": 186783, "annotation": {"number": 11, "value": 65}, "group": "control_change"}, {"time": 186819, "annotation": {"number": 11, "value": 64}, "group": "control_change"}, {"time": 186843, "annotation": {"number": 11, "value": 63}, "group": "control_change"}, {"time": 186867, "annotation": {"number": 11, "value": 62}, "group": "control_change"}, {"time": 186903, "annotation": {"number": 11, "value": 61}, "group": "control_change"}, {"time": 186927, "annotation": {"number": 11, "value": 60}, "group": "control_change"}, {"time": 186964, "annotation": {"number": 11, "value": 59}, "group": "control_change"}, {"time": 186988, "annotation": {"number": 11, "value": 58}, "group": "control_change"}, {"time": 187024, "annotation": {"number": 11, "value": 57}, "group": "control_change"}, {"time": 187048, "annotation": {"number": 11, "value": 56}, "group": "control_change"}, {"time": 187072, "annotation": {"number": 11, "value": 55}, "group": "control_change"}, {"time": 187108, "annotation": {"number": 11, "value": 54}, "group": "control_change"}, {"time": 187133, "annotation": {"number": 11, "value": 53}, "group": "control_change"}, {"time": 187169, "annotation": {"number": 11, "value": 52}, "group": "control_change"}, {"time": 187193, "annotation": {"number": 11, "value": 51}, "group": "control_change"}, {"time": 187217, "annotation": {"number": 11, "value": 50}, "group": "control_change"}, {"time": 187253, "annotation": {"number": 11, "value": 49}, "group": "control_change"}, {"time": 187277, "annotation": {"number": 11, "value": 48}, "group": "control_change"}, {"time": 187313, "annotation": {"number": 11, "value": 47}, "group": "control_change"}, {"time": 187338, "annotation": {"number": 11, "value": 46}, "group": "control_change"}, {"time": 187374, "annotation": {"number": 11, "value": 45}, "group": "control_change"}, {"time": 187398, "annotation": {"number": 11, "value": 44}, "group": "control_change"}, {"time": 187422, "annotation": {"number": 11, "value": 43}, "group": "control_change"}, {"time": 187458, "annotation": {"number": 11, "value": 42}, "group": "control_change"}, {"time": 187482, "annotation": {"number": 11, "value": 41}, "group": "control_change"}, {"time": 187519, "annotation": {"number": 11, "value": 40}, "group": "control_change"}, {"time": 187543, "annotation": {"number": 11, "value": 39}, "group": "control_change"}, {"time": 187579, "annotation": {"number": 11, "value": 38}, "group": "control_change"}, {"time": 187603, "annotation": {"number": 11, "value": 37}, "group": "control_change"}, {"time": 187627, "annotation": {"number": 11, "value": 36}, "group": "control_change"}, {"time": 187663, "annotation": {"number": 11, "value": 35}, "group": "control_change"}, {"time": 187687, "annotation": {"number": 11, "value": 34}, "group": "control_change"}, {"time": 187724, "annotation": {"number": 11, "value": 33}, "group": "control_change"}, {"time": 187748, "annotation": {"number": 11, "value": 32}, "group": "control_change"}, {"time": 187772, "annotation": {"number": 11, "value": 31}, "group": "control_change"}, {"time": 187808, "annotation": {"number": 11, "value": 30}, "group": "control_change"}, {"time": 187832, "annotation": {"number": 11, "value": 29}, "group": "control_change"}, {"time": 187868, "annotation": {"number": 11, "value": 28}, "group": "control_change"}, {"time": 187892, "annotation": {"number": 11, "value": 27}, "group": "control_change"}, {"time": 187929, "annotation": {"number": 11, "value": 26}, "group": "control_change"}, {"time": 187953, "annotation": {"number": 11, "value": 25}, "group": "control_change"}, {"time": 187977, "annotation": {"number": 11, "value": 24}, "group": "control_change"}, {"time": 188013, "annotation": {"number": 11, "value": 23}, "group": "control_change"}, {"time": 188037, "annotation": {"number": 11, "value": 22}, "group": "control_change"}, {"time": 188073, "annotation": {"number": 11, "value": 21}, "group": "control_change"}, {"time": 188098, "annotation": {"number": 11, "value": 20}, "group": "control_change"}, {"time": 188134, "annotation": {"number": 11, "value": 19}, "group": "control_change"}, {"time": 188158, "annotation": {"number": 11, "value": 18}, "group": "control_change"}, {"time": 188182, "annotation": {"number": 11, "value": 17}, "group": "control_change"}, {"time": 188217, "annotation": {"number": 11, "value": 16}, "group": "control_change"}, {"time": 188241, "annotation": {"number": 11, "value": 15}, "group": "control_change"}, {"time": 188276, "annotation": {"number": 11, "value": 14}, "group": "control_change"}, {"time": 188300, "annotation": {"number": 11, "value": 13}, "group": "control_change"}, {"time": 188323, "annotation": {"number": 11, "value": 12}, "group": "control_change"}, {"time": 188359, "annotation": {"number": 11, "value": 11}, "group": "control_change"}, {"time": 188382, "annotation": {"number": 11, "value": 10}, "group": "control_change"}, {"time": 188418, "annotation": {"number": 11, "value": 9}, "group": "control_change"}, {"time": 188441, "annotation": {"number": 11, "value": 8}, "group": "control_change"}, {"time": 188477, "annotation": {"number": 11, "value": 7}, "group": "control_change"}, {"time": 188500, "annotation": {"number": 11, "value": 6}, "group": "control_change"}, {"time": 188524, "annotation": {"number": 11, "value": 5}, "group": "control_change"}, {"time": 188559, "annotation": {"number": 11, "value": 4}, "group": "control_change"}, {"time": 188583, "annotation": {"number": 11, "value": 3}, "group": "control_change"}, {"time": 188619, "annotation": {"number": 11, "value": 2}, "group": "control_change"}, {"time": 188642, "annotation": {"number": 11, "value": 1}, "group": "control_change"}, {"time": 188666, "annotation": {"number": 11, "value": 0}, "group": "control_change"}]}, {"program": 0, "is_drum": false, "name": "EG   {R}", "annotations": [{"time": 200, "annotation": {"number": 0, "value": 0}, "group": "control_change"}, {"time": 220, "annotation": {"number": 32, "value": 2}, "group": "control_change"}]}, {"program": 27, "is_drum": false, "name": "EG   {R}", "notes": [{"time": 2400, "pitch": 66, "duration": 241, "velocity": 100}, {"time": 2400, "pitch": 71, "duration": 241, "velocity": 100}, {"time": 2641, "pitch": 66, "duration": 241, "velocity": 100}, {"time": 2641, "pitch": 71, "duration": 241, "velocity": 100}, {"time": 2882, "pitch": 66, "duration": 241, "velocity": 100}, {"time": 2882, "pitch": 71, "duration": 241, "velocity": 100}, {"time": 3123, "pitch": 66, "duration": 241, "velocity": 100}, {"time": 3123, "pitch": 71, "duration": 241, "velocity": 100}, {"time": 3364, "pitch": 66, "duration": 237, "velocity": 100}, {"time": 3364, "pitch": 71, "duration": 237, "velocity": 100}, {"time": 3601, "pitch": 64, "duration": 236, "velocity": 100}, {"time": 3601, "pitch": 69, "duration": 236, "velocity": 100}, {"time": 3837, "pitch": 64, "duration": 241, "velocity": 100}, {"time": 3837, "pitch": 69, "duration": 241, "velocity": 100}, {"time": 4078, "pitch": 66, "duration": 483, "velocity": 100}, {"time": 4078, "pitch": 71, "duration": 483, "velocity": 100}, {"time": 4561, "pitch": 66, "duration": 241, "velocity": 100}, {"time": 4561, "pitch": 71, "duration": 241, "velocity": 100}, {"time": 4802, "pitch": 66, "duration": 241, "velocity": 100}, {"time": 4802, "pitch": 71, "duration": 241, "velocity": 100}, {"time": 5043, "pitch": 66, "duration": 241, "velocity": 100}, {"time": 5043, "pitch": 71, "duration": 241, "velocity": 100}, {"time": 5284, "pitch": 66, "duration": 236, "velocity": 100}, {"time": 5284, "pitch": 71, "duration": 236, "velocity": 100}, {"time": 5520, "pitch": 64, "duration": 237, "velocity": 100}, {"time": 5520, "pitch": 69, "duration": 237, "velocity": 100}, {"time": 5757, "pitch": 64, "duration": 241, "velocity": 100}, {"time": 5757, "pitch": 69, "duration": 241, "velocity": 100}, {"time": 5998, "pitch": 66, "duration": 482, "velocity": 100}, {"time": 5998, "pitch": 71, "duration": 482, "velocity": 100}, {"time": 6480, "pitch": 66, "duration": 242, "velocity": 100}, {"time": 6480, "pitch": 71, "duration": 242, "velocity": 100}, {"time": 6722, "pitch": 66, "duration": 241, "velocity": 100}, {"time": 6722, "pitch": 71, "duration": 241, "velocity": 100}, {"time": 6963, "pitch": 66, "duration": 241, "velocity": 100}, {"time": 6963, "pitch": 71, "duration": 241, "velocity": 100}, {"time": 7204, "pitch": 66, "duration": 236, "velocity": 100}, {"time": 7204, "pitch": 71, "duration": 236, "velocity": 100}, {"time": 7440, "pitch": 66, "duration": 236, "velocity": 100}, {"time": 7440, "pitch": 71, "duration": 236, "velocity": 100}, {"time": 7676, "pitch": 66, "duration": 242, "velocity": 100}, {"time": 7676, "pitch": 71, "duration": 242, "velocity": 100}, {"time": 7918, "pitch": 66, "duration": 241, "velocity": 100}, {"time": 7918, "pitch": 71, "duration": 241, "velocity": 100}, {"time": 8159, "pitch": 66, "duration": 241, "velocity": 100}, {"time": 8159, "pitch": 71, "duration": 241, "velocity": 100}, {"time": 8400, "pitch": 66, "duration": 241, "velocity": 100}, {"time": 8400, "pitch": 71, "duration": 241, "velocity": 100}, {"time": 8641, "pitch": 66, "duration": 242, "velocity": 100}, {"time": 8641, "pitch": 71, "duration": 242, "velocity": 100}, {"time": 8883, "pitch": 66, "duration": 241, "velocity": 100}, {"time": 8883, "pitch": 71, "duration": 241, "velocity": 100}, {"time": 9124, "pitch": 66, "duration": 236, "velocity": 100}, {"time": 9124, "pitch": 71, "duration": 236, "velocity": 100}, {"time": 9360, "pitch": 66, "duration": 236, "velocity": 100}, {"time": 9360, "pitch": 71, "duration": 236, "velocity": 100}, {"time": 9596, "pitch": 66, "duration": 241, "velocity": 100}, {"time": 9596, "pitch": 71, "duration": 241, "velocity": 100}, {"time": 9837, "pitch": 66, "duration": 30, "velocity": 90}, {"time": 9837, "pitch": 71, "duration": 30, "velocity": 90}, {"time": 9958, "pitch": 66, "duration": 30, "velocity": 90}, {"time": 9958, "pitch": 71, "duration": 30, "velocity": 90}, {"time": 10079, "pitch": 64, "duration": 482, "velocity": 100}, {"time": 10079, "pitch": 68, "duration": 482, "velocity": 100}, {"time": 10079, "pitch": 71, "duration": 482, "velocity": 100}, {"time": 10561, "pitch": 64, "duration": 482, "velocity": 100}, {"time": 10561, "pitch": 68, "duration": 482, "velocity": 100}, {"time": 10561, "pitch": 71, "duration": 482, "velocity": 100}, {"time": 11043, "pitch": 64, "duration": 237, "velocity": 84}, {"time": 11043, "pitch": 68, "duration": 237, "velocity": 84}, {"time": 11043, "pitch": 71, "duration": 237, "velocity": 84}, {"time": 11280, "pitch": 64, "duration": 236, "velocity": 100}, {"time": 11280, "pitch": 68, "duration": 236, "velocity": 100}, {"time": 11280, "pitch": 71, "duration": 236, "velocity": 100}, {"time": 11757, "pitch": 62, "duration": 483, "velocity": 100}, {"time": 11757, "pitch": 66, "duration": 483, "velocity": 100}, {"time": 11757, "pitch": 71, "duration": 483, "velocity": 100}, {"time": 12240, "pitch": 62, "duration": 241, "velocity": 85}, {"time": 12240, "pitch": 66, "duration": 241, "velocity": 85}, {"time": 12240, "pitch": 71, "duration": 241, "velocity": 85}, {"time": 12481, "pitch": 62, "duration": 482, "velocity": 100}, {"time": 12481, "pitch": 66, "duration": 482, "velocity": 100}, {"time": 12481, "pitch": 71, "duration": 482, "velocity": 100}, {"time": 12963, "pitch": 62, "duration": 236, "velocity": 83}, {"time": 12963, "pitch": 66, "duration": 236, "velocity": 83}, {"time": 12963, "pitch": 71, "duration": 236, "velocity": 83}, {"time": 13199, "pitch": 62, "duration": 237, "velocity": 100}, {"time": 13199, "pitch": 66, "duration": 237, "velocity": 100}, {"time": 13199, "pitch": 71, "duration": 237, "velocity": 100}, {"time": 13436, "pitch": 62, "duration": 241, "velocity": 100}, {"time": 13436, "pitch": 66, "duration": 241, "velocity": 100}, {"time": 13436, "pitch": 71, "duration": 241, "velocity": 100}, {"time": 13677, "pitch": 66, "duration": 30, "velocity": 90}, {"time": 13677, "pitch": 71, "duration": 30, "velocity": 90}, {"time": 13797, "pitch": 66, "duration": 31, "velocity": 90}, {"time": 13797, "pitch": 71, "duration": 31, "velocity": 90}, {"time": 13918, "pitch": 64, "duration": 483, "velocity": 100}, {"time": 13918, "pitch": 68, "duration": 483, "velocity": 100}, {"time": 13918, "pitch": 71, "duration": 483, "velocity": 100}, {"time": 14401, "pitch": 64, "duration": 482, "velocity": 100}, {"time": 14401, "pitch": 68, "duration": 482, "velocity": 100}, {"time": 14401, "pitch": 71, "duration": 482, "velocity": 100}, {"time": 14883, "pitch": 64, "duration": 236, "velocity": 84}, {"time": 14883, "pitch": 68, "duration": 236, "velocity": 84}, {"time": 14883, "pitch": 71, "duration": 236, "velocity": 84}, {"time": 15119, "pitch": 64, "duration": 236, "velocity": 100}, {"time": 15119, "pitch": 68, "duration": 236, "velocity": 100}, {"time": 15119, "pitch": 71, "duration": 236, "velocity": 100}, {"time": 15597, "pitch": 62, "duration": 482, "velocity": 100}, {"time": 15597, "pitch": 66, "duration": 482, "velocity": 100}, {"time": 15597, "pitch": 71, "duration": 482, "velocity": 100}, {"time": 16079, "pitch": 62, "duration": 241, "velocity": 85}, {"time": 16079, "pitch": 66, "duration": 241, "velocity": 85}, {"time": 16079, "pitch": 71, "duration": 241, "velocity": 85}, {"time": 16320, "pitch": 62, "duration": 483, "velocity": 100}, {"time": 16320, "pitch": 66, "duration": 483, "velocity": 100}, {"time": 16320, "pitch": 71, "duration": 483, "velocity": 100}, {"time": 16803, "pitch": 62, "duration": 236, "velocity": 83}, {"time": 16803, "pitch": 66, "duration": 236, "velocity": 83}, {"time": 16803, "pitch": 71, "duration": 236, "velocity": 83}, {"time": 17039, "pitch": 62, "duration": 236, "velocity": 100}, {"time": 17039, "pitch": 66, "duration": 236, "velocity": 100}, {"time": 17039, "pitch": 71, "duration": 236, "velocity": 100}, {"time": 17275, "pitch": 62, "duration": 241, "velocity": 100}, {"time": 17275, "pitch": 66, "duration": 241, "velocity": 100}, {"time": 17275, "pitch": 71, "duration": 241, "velocity": 100}, {"time": 17516, "pitch": 66, "duration": 30, "velocity": 90}, {"time": 17516, "pitch": 71, "duration": 30, "velocity": 90}, {"time": 17758, "pitch": 64, "duration": 482, "velocity": 100}, {"time": 17758, "pitch": 68, "duration": 482, "velocity": 100}, {"time": 17758, "pitch": 71, "duration": 482, "velocity": 100}, {"time": 18240, "pitch": 64, "duration": 483, "velocity": 100}, {"time": 18240, "pitch": 68, "duration": 483, "velocity": 100}, {"time": 18240, "pitch": 71, "duration": 483, "velocity": 100}, {"time": 18723, "pitch": 64, "duration": 241, "velocity": 84}, {"time": 18723, "pitch": 68, "duration": 241, "velocity": 84}, {"time": 18723, "pitch": 71, "duration": 241, "velocity": 84}, {"time": 18964, "pitch": 64, "duration": 241, "velocity": 100}, {"time": 18964, "pitch": 68, "duration": 241, "velocity": 100}, {"time": 18964, "pitch": 71, "duration": 241, "velocity": 100}, {"time": 19441, "pitch": 62, "duration": 478, "velocity": 100}, {"time": 19441, "pitch": 66, "duration": 478, "velocity": 100}, {"time": 19441, "pitch": 71, "duration": 478, "velocity": 100}, {"time": 19919, "pitch": 62, "duration": 241, "velocity": 85}, {"time": 19919, "pitch": 66, "duration": 241, "velocity": 85}, {"time": 19919, "pitch": 71, "duration": 241, "velocity": 85}, {"time": 20160, "pitch": 62, "duration": 482, "velocity": 100}, {"time": 20160, "pitch": 66, "duration": 482, "velocity": 100}, {"time": 20160, "pitch": 71, "duration": 482, "velocity": 100}, {"time": 20642, "pitch": 62, "duration": 242, "velocity": 83}, {"time": 20642, "pitch": 66, "duration": 242, "velocity": 83}, {"time": 20642, "pitch": 71, "duration": 242, "velocity": 83}, {"time": 20884, "pitch": 62, "duration": 241, "velocity": 100}, {"time": 20884, "pitch": 66, "duration": 241, "velocity": 100}, {"time": 20884, "pitch": 71, "duration": 241, "velocity": 100}, {"time": 21125, "pitch": 62, "duration": 236, "velocity": 100}, {"time": 21125, "pitch": 66, "duration": 236, "velocity": 100}, {"time": 21125, "pitch": 71, "duration": 236, "velocity": 100}, {"time": 21361, "pitch": 66, "duration": 29, "velocity": 90}, {"time": 21361, "pitch": 71, "duration": 29, "velocity": 90}, {"time": 21479, "pitch": 66, "duration": 30, "velocity": 90}, {"time": 21479, "pitch": 71, "duration": 30, "velocity": 90}, {"time": 21597, "pitch": 64, "duration": 483, "velocity": 100}, {"time": 21597, "pitch": 68, "duration": 483, "velocity": 100}, {"time": 21597, "pitch": 71, "duration": 483, "velocity": 100}, {"time": 22080, "pitch": 64, "duration": 482, "velocity": 100}, {"time": 22080, "pitch": 68, "duration": 482, "velocity": 100}, {"time": 22080, "pitch": 71, "duration": 482, "velocity": 100}, {"time": 22562, "pitch": 64, "duration": 241, "velocity": 84}, {"time": 22562, "pitch": 68, "duration": 241, "velocity": 84}, {"time": 22562, "pitch": 71, "duration": 241, "velocity": 84}, {"time": 22803, "pitch": 64, "duration": 241, "velocity": 100}, {"time": 22803, "pitch": 68, "duration": 241, "velocity": 100}, {"time": 22803, "pitch": 71, "duration": 241, "velocity": 100}, {"time": 23281, "pitch": 62, "duration": 477, "velocity": 100}, {"time": 23281, "pitch": 66, "duration": 477, "velocity": 100}, {"time": 23281, "pitch": 71, "duration": 477, "velocity": 100}, {"time": 23758, "pitch": 62, "duration": 241, "velocity": 85}, {"time": 23758, "pitch": 66, "duration": 241, "velocity": 85}, {"time": 23758, "pitch": 71, "duration": 241, "velocity": 85}, {"time": 23999, "pitch": 62, "duration": 483, "velocity": 100}, {"time": 23999, "pitch": 66, "duration": 483, "velocity": 100}, {"time": 23999, "pitch": 71, "duration": 483, "velocity": 100}, {"time": 24482, "pitch": 62, "duration": 241, "velocity": 83}, {"time": 24482, "pitch": 66, "duration": 241, "velocity": 83}, {"time": 24482, "pitch": 71, "duration": 241, "velocity": 83}, {"time": 24723, "pitch": 62, "duration": 241, "velocity": 100}, {"time": 24723, "pitch": 66, "duration": 241, "velocity": 100}, {"time": 24723, "pitch": 71, "duration": 241, "velocity": 100}, {"time": 24964, "pitch": 62, "duration": 236, "velocity": 100}, {"time": 24964, "pitch": 66, "duration": 236, "velocity": 100}, {"time": 24964, "pitch": 71, "duration": 236, "velocity": 100}, {"time": 25200, "pitch": 62, "duration": 30, "velocity": 90}, {"time": 25200, "pitch": 66, "duration": 30, "velocity": 90}, {"time": 25437, "pitch": 64, "duration": 482, "velocity": 100}, {"time": 25437, "pitch": 69, "duration": 482, "velocity": 100}, {"time": 25919, "pitch": 64, "duration": 483, "velocity": 100}, {"time": 25919, "pitch": 69, "duration": 483, "velocity": 100}, {"time": 26402, "pitch": 64, "duration": 241, "velocity": 83}, {"time": 26402, "pitch": 69, "duration": 241, "velocity": 83}, {"time": 26643, "pitch": 64, "duration": 241, "velocity": 100}, {"time": 26643, "pitch": 69, "duration": 241, "velocity": 100}, {"time": 27120, "pitch": 64, "duration": 478, "velocity": 100}, {"time": 27120, "pitch": 68, "duration": 478, "velocity": 100}, {"time": 27120, "pitch": 71, "duration": 478, "velocity": 100}, {"time": 27598, "pitch": 64, "duration": 241, "velocity": 88}, {"time": 27598, "pitch": 68, "duration": 241, "velocity": 88}, {"time": 27598, "pitch": 71, "duration": 241, "velocity": 88}, {"time": 27839, "pitch": 64, "duration": 241, "velocity": 85}, {"time": 27839, "pitch": 68, "duration": 241, "velocity": 85}, {"time": 27839, "pitch": 71, "duration": 241, "velocity": 85}, {"time": 28080, "pitch": 64, "duration": 483, "velocity": 101}, {"time": 28080, "pitch": 68, "duration": 483, "velocity": 101}, {"time": 28080, "pitch": 71, "duration": 483, "velocity": 101}, {"time": 28563, "pitch": 64, "duration": 241, "velocity": 95}, {"time": 28563, "pitch": 68, "duration": 241, "velocity": 95}, {"time": 28563, "pitch": 71, "duration": 241, "velocity": 95}, {"time": 28804, "pitch": 64, "duration": 236, "velocity": 100}, {"time": 28804, "pitch": 68, "duration": 236, "velocity": 100}, {"time": 28804, "pitch": 71, "duration": 236, "velocity": 100}, {"time": 29040, "pitch": 64, "duration": 29, "velocity": 83}, {"time": 29040, "pitch": 68, "duration": 29, "velocity": 83}, {"time": 29276, "pitch": 66, "duration": 483, "velocity": 100}, {"time": 29276, "pitch": 69, "duration": 483, "velocity": 100}, {"time": 29276, "pitch": 73, "duration": 483, "velocity": 100}, {"time": 29759, "pitch": 66, "duration": 30, "velocity": 83}, {"time": 29759, "pitch": 69, "duration": 30, "velocity": 83}, {"time": 30000, "pitch": 66, "duration": 482, "velocity": 100}, {"time": 30000, "pitch": 71, "duration": 482, "velocity": 100}, {"time": 30000, "pitch": 75, "duration": 482, "velocity": 100}, {"time": 30482, "pitch": 66, "duration": 241, "velocity": 100}, {"time": 30482, "pitch": 71, "duration": 241, "velocity": 100}, {"time": 30482, "pitch": 75, "duration": 241, "velocity": 100}, {"time": 30723, "pitch": 66, "duration": 119, "velocity": 84}, {"time": 30723, "pitch": 71, "duration": 119, "velocity": 84}, {"time": 30960, "pitch": 64, "duration": 477, "velocity": 100}, {"time": 30960, "pitch": 68, "duration": 477, "velocity": 100}, {"time": 30960, "pitch": 71, "duration": 477, "velocity": 100}, {"time": 30960, "pitch": 76, "duration": 477, "velocity": 100}, {"time": 31437, "pitch": 64, "duration": 241, "velocity": 100}, {"time": 31437, "pitch": 68, "duration": 241, "velocity": 100}, {"time": 31437, "pitch": 71, "duration": 241, "velocity": 100}, {"time": 31437, "pitch": 76, "duration": 241, "velocity": 100}, {"time": 31920, "pitch": 64, "duration": 482, "velocity": 100}, {"time": 31920, "pitch": 68, "duration": 482, "velocity": 100}, {"time": 31920, "pitch": 71, "duration": 482, "velocity": 100}, {"time": 31920, "pitch": 74, "duration": 482, "velocity": 100}, {"time": 32402, "pitch": 64, "duration": 241, "velocity": 100}, {"time": 32402, "pitch": 68, "duration": 241, "velocity": 100}, {"time": 32402, "pitch": 71, "duration": 241, "velocity": 100}, {"time": 32402, "pitch": 74, "duration": 241, "velocity": 100}, {"time": 32643, "pitch": 64, "duration": 236, "velocity": 100}, {"time": 32643, "pitch": 68, "duration": 236, "velocity": 100}, {"time": 32643, "pitch": 71, "duration": 236, "velocity": 100}, {"time": 32643, "pitch": 74, "duration": 236, "velocity": 100}, {"time": 32879, "pitch": 64, "duration": 30, "velocity": 87}, {"time": 32879, "pitch": 68, "duration": 30, "velocity": 87}, {"time": 33116, "pitch": 64, "duration": 482, "velocity": 100}, {"time": 33116, "pitch": 69, "duration": 482, "velocity": 100}, {"time": 33116, "pitch": 73, "duration": 482, "velocity": 100}, {"time": 33598, "pitch": 64, "duration": 483, "velocity": 100}, {"time": 33598, "pitch": 69, "duration": 483, "velocity": 100}, {"time": 33598, "pitch": 73, "duration": 483, "velocity": 100}, {"time": 34081, "pitch": 64, "duration": 241, "velocity": 83}, {"time": 34081, "pitch": 69, "duration": 241, "velocity": 83}, {"time": 34081, "pitch": 73, "duration": 241, "velocity": 83}, {"time": 34322, "pitch": 64, "duration": 241, "velocity": 100}, {"time": 34322, "pitch": 69, "duration": 241, "velocity": 100}, {"time": 34322, "pitch": 73, "duration": 241, "velocity": 100}, {"time": 34799, "pitch": 68, "duration": 478, "velocity": 100}, {"time": 34799, "pitch": 71, "duration": 478, "velocity": 100}, {"time": 34799, "pitch": 75, "duration": 478, "velocity": 100}, {"time": 35277, "pitch": 68, "duration": 241, "velocity": 88}, {"time": 35277, "pitch": 71, "duration": 241, "velocity": 88}, {"time": 35277, "pitch": 75, "duration": 241, "velocity": 88}, {"time": 35518, "pitch": 68, "duration": 241, "velocity": 85}, {"time": 35518, "pitch": 71, "duration": 241, "velocity": 85}, {"time": 35518, "pitch": 75, "duration": 241, "velocity": 85}, {"time": 35759, "pitch": 65, "duration": 483, "velocity": 101}, {"time": 35759, "pitch": 68, "duration": 483, "velocity": 101}, {"time": 35759, "pitch": 73, "duration": 483, "velocity": 101}, {"time": 36242, "pitch": 65, "duration": 241, "velocity": 95}, {"time": 36242, "pitch": 68, "duration": 241, "velocity": 95}, {"time": 36242, "pitch": 73, "duration": 241, "velocity": 95}, {"time": 36483, "pitch": 65, "duration": 236, "velocity": 100}, {"time": 36483, "pitch": 68, "duration": 236, "velocity": 100}, {"time": 36483, "pitch": 73, "duration": 236, "velocity": 100}, {"time": 36719, "pitch": 65, "duration": 30, "velocity": 87}, {"time": 36719, "pitch": 68, "duration": 30, "velocity": 87}, {"time": 36955, "pitch": 66, "duration": 483, "velocity": 100}, {"time": 36955, "pitch": 69, "duration": 483, "velocity": 100}, {"time": 36955, "pitch": 73, "duration": 483, "velocity": 100}, {"time": 37438, "pitch": 66, "duration": 482, "velocity": 100}, {"time": 37438, "pitch": 69, "duration": 482, "velocity": 100}, {"time": 37438, "pitch": 73, "duration": 482, "velocity": 100}, {"time": 37920, "pitch": 66, "duration": 241, "velocity": 88}, {"time": 37920, "pitch": 69, "duration": 241, "velocity": 88}, {"time": 37920, "pitch": 73, "duration": 241, "velocity": 88}, {"time": 38161, "pitch": 66, "duration": 242, "velocity": 100}, {"time": 38161, "pitch": 69, "duration": 242, "velocity": 100}, {"time": 38161, "pitch": 73, "duration": 242, "velocity": 100}, {"time": 38644, "pitch": 66, "duration": 477, "velocity": 100}, {"time": 38644, "pitch": 70, "duration": 477, "velocity": 100}, {"time": 38644, "pitch": 73, "duration": 477, "velocity": 100}, {"time": 39121, "pitch": 66, "duration": 236, "velocity": 92}, {"time": 39121, "pitch": 70, "duration": 236, "velocity": 92}, {"time": 39121, "pitch": 73, "duration": 236, "velocity": 92}, {"time": 39357, "pitch": 66, "duration": 724, "velocity": 100}, {"time": 39357, "pitch": 70, "duration": 724, "velocity": 100}, {"time": 39357, "pitch": 73, "duration": 724, "velocity": 100}, {"time": 40081, "pitch": 66, "duration": 241, "velocity": 100}, {"time": 40081, "pitch": 70, "duration": 241, "velocity": 100}, {"time": 40081, "pitch": 73, "duration": 241, "velocity": 100}, {"time": 40322, "pitch": 66, "duration": 242, "velocity": 100}, {"time": 40322, "pitch": 70, "duration": 242, "velocity": 100}, {"time": 40322, "pitch": 73, "duration": 242, "velocity": 100}, {"time": 40564, "pitch": 66, "duration": 30, "velocity": 88}, {"time": 40564, "pitch": 70, "duration": 30, "velocity": 88}, {"time": 40684, "pitch": 66, "duration": 30, "velocity": 87}, {"time": 40684, "pitch": 70, "duration": 30, "velocity": 87}, {"time": 40805, "pitch": 66, "duration": 472, "velocity": 100}, {"time": 40805, "pitch": 71, "duration": 472, "velocity": 100}, {"time": 40805, "pitch": 76, "duration": 472, "velocity": 100}, {"time": 41277, "pitch": 66, "duration": 483, "velocity": 100}, {"time": 41277, "pitch": 71, "duration": 483, "velocity": 100}, {"time": 41277, "pitch": 76, "duration": 483, "velocity": 100}, {"time": 41760, "pitch": 66, "duration": 241, "velocity": 86}, {"time": 41760, "pitch": 71, "duration": 241, "velocity": 86}, {"time": 41760, "pitch": 76, "duration": 241, "velocity": 86}, {"time": 42001, "pitch": 66, "duration": 482, "velocity": 100}, {"time": 42001, "pitch": 71, "duration": 482, "velocity": 100}, {"time": 42001, "pitch": 76, "duration": 482, "velocity": 100}, {"time": 42483, "pitch": 66, "duration": 478, "velocity": 100}, {"time": 42483, "pitch": 71, "duration": 478, "velocity": 100}, {"time": 42483, "pitch": 75, "duration": 478, "velocity": 100}, {"time": 42961, "pitch": 66, "duration": 236, "velocity": 93}, {"time": 42961, "pitch": 71, "duration": 236, "velocity": 93}, {"time": 42961, "pitch": 75, "duration": 236, "velocity": 93}, {"time": 43197, "pitch": 66, "duration": 241, "velocity": 100}, {"time": 43197, "pitch": 71, "duration": 241, "velocity": 100}, {"time": 43197, "pitch": 75, "duration": 241, "velocity": 100}, {"time": 43438, "pitch": 66, "duration": 241, "velocity": 100}, {"time": 43438, "pitch": 71, "duration": 241, "velocity": 100}, {"time": 43438, "pitch": 75, "duration": 241, "velocity": 100}, {"time": 43679, "pitch": 66, "duration": 242, "velocity": 100}, {"time": 43679, "pitch": 71, "duration": 242, "velocity": 100}, {"time": 43679, "pitch": 75, "duration": 242, "velocity": 100}, {"time": 43921, "pitch": 66, "duration": 241, "velocity": 100}, {"time": 43921, "pitch": 71, "duration": 241, "velocity": 100}, {"time": 43921, "pitch": 75, "duration": 241, "velocity": 100}, {"time": 44162, "pitch": 66, "duration": 241, "velocity": 100}, {"time": 44162, "pitch": 71, "duration": 241, "velocity": 100}, {"time": 44162, "pitch": 75, "duration": 241, "velocity": 100}, {"time": 44403, "pitch": 66, "duration": 241, "velocity": 100}, {"time": 44403, "pitch": 71, "duration": 241, "velocity": 100}, {"time": 44403, "pitch": 75, "duration": 241, "velocity": 100}, {"time": 44644, "pitch": 68, "duration": 473, "velocity": 100}, {"time": 44644, "pitch": 71, "duration": 473, "velocity": 100}, {"time": 44644, "pitch": 76, "duration": 473, "velocity": 100}, {"time": 45117, "pitch": 68, "duration": 482, "velocity": 100}, {"time": 45117, "pitch": 71, "duration": 482, "velocity": 100}, {"time": 45117, "pitch": 76, "duration": 482, "velocity": 100}, {"time": 45599, "pitch": 68, "duration": 241, "velocity": 86}, {"time": 45599, "pitch": 71, "duration": 241, "velocity": 86}, {"time": 45599, "pitch": 76, "duration": 241, "velocity": 86}, {"time": 45840, "pitch": 68, "duration": 242, "velocity": 100}, {"time": 45840, "pitch": 71, "duration": 242, "velocity": 100}, {"time": 45840, "pitch": 76, "duration": 242, "velocity": 100}, {"time": 46082, "pitch": 68, "duration": 30, "velocity": 88}, {"time": 46082, "pitch": 71, "duration": 30, "velocity": 88}, {"time": 46323, "pitch": 66, "duration": 477, "velocity": 100}, {"time": 46323, "pitch": 71, "duration": 477, "velocity": 100}, {"time": 46323, "pitch": 75, "duration": 477, "velocity": 100}, {"time": 46800, "pitch": 66, "duration": 236, "velocity": 86}, {"time": 46800, "pitch": 71, "duration": 236, "velocity": 86}, {"time": 46800, "pitch": 75, "duration": 236, "velocity": 86}, {"time": 47036, "pitch": 66, "duration": 483, "velocity": 100}, {"time": 47036, "pitch": 71, "duration": 483, "velocity": 100}, {"time": 47036, "pitch": 75, "duration": 483, "velocity": 100}, {"time": 47519, "pitch": 66, "duration": 241, "velocity": 76}, {"time": 47519, "pitch": 71, "duration": 241, "velocity": 76}, {"time": 47519, "pitch": 75, "duration": 241, "velocity": 76}, {"time": 47760, "pitch": 66, "duration": 241, "velocity": 89}, {"time": 47760, "pitch": 71, "duration": 241, "velocity": 89}, {"time": 47760, "pitch": 75, "duration": 241, "velocity": 89}, {"time": 48001, "pitch": 66, "duration": 242, "velocity": 100}, {"time": 48001, "pitch": 71, "duration": 242, "velocity": 100}, {"time": 48001, "pitch": 75, "duration": 242, "velocity": 100}, {"time": 48243, "pitch": 66, "duration": 30, "velocity": 88}, {"time": 48243, "pitch": 71, "duration": 30, "velocity": 88}, {"time": 48484, "pitch": 68, "duration": 472, "velocity": 100}, {"time": 48484, "pitch": 73, "duration": 472, "velocity": 100}, {"time": 48484, "pitch": 76, "duration": 472, "velocity": 100}, {"time": 48956, "pitch": 68, "duration": 483, "velocity": 100}, {"time": 48956, "pitch": 73, "duration": 483, "velocity": 100}, {"time": 48956, "pitch": 76, "duration": 483, "velocity": 100}, {"time": 49439, "pitch": 68, "duration": 241, "velocity": 79}, {"time": 49439, "pitch": 73, "duration": 241, "velocity": 79}, {"time": 49439, "pitch": 76, "duration": 241, "velocity": 79}, {"time": 49680, "pitch": 68, "duration": 241, "velocity": 100}, {"time": 49680, "pitch": 73, "duration": 241, "velocity": 100}, {"time": 49680, "pitch": 76, "duration": 241, "velocity": 100}, {"time": 49921, "pitch": 68, "duration": 30, "velocity": 88}, {"time": 49921, "pitch": 73, "duration": 30, "velocity": 88}, {"time": 50162, "pitch": 66, "duration": 478, "velocity": 100}, {"time": 50162, "pitch": 70, "duration": 478, "velocity": 100}, {"time": 50162, "pitch": 73, "duration": 478, "velocity": 100}, {"time": 50640, "pitch": 66, "duration": 236, "velocity": 90}, {"time": 50640, "pitch": 70, "duration": 236, "velocity": 90}, {"time": 50640, "pitch": 73, "duration": 236, "velocity": 90}, {"time": 50876, "pitch": 66, "duration": 241, "velocity": 88}, {"time": 50876, "pitch": 70, "duration": 241, "velocity": 88}, {"time": 50876, "pitch": 73, "duration": 241, "velocity": 88}, {"time": 51117, "pitch": 66, "duration": 483, "velocity": 100}, {"time": 51117, "pitch": 70, "duration": 483, "velocity": 100}, {"time": 51117, "pitch": 73, "duration": 483, "velocity": 100}, {"time": 51600, "pitch": 66, "duration": 241, "velocity": 85}, {"time": 51600, "pitch": 70, "duration": 241, "velocity": 85}, {"time": 51600, "pitch": 73, "duration": 241, "velocity": 85}, {"time": 51841, "pitch": 66, "duration": 241, "velocity": 100}, {"time": 51841, "pitch": 70, "duration": 241, "velocity": 100}, {"time": 51841, "pitch": 73, "duration": 241, "velocity": 100}, {"time": 52082, "pitch": 66, "duration": 30, "velocity": 88}, {"time": 52082, "pitch": 70, "duration": 30, "velocity": 88}, {"time": 52323, "pitch": 66, "duration": 473, "velocity": 100}, {"time": 52323, "pitch": 69, "duration": 473, "velocity": 100}, {"time": 52323, "pitch": 73, "duration": 473, "velocity": 100}, {"time": 52796, "pitch": 66, "duration": 482, "velocity": 100}, {"time": 52796, "pitch": 69, "duration": 482, "velocity": 100}, {"time": 52796, "pitch": 73, "duration": 482, "velocity": 100}, {"time": 53278, "pitch": 66, "duration": 241, "velocity": 82}, {"time": 53278, "pitch": 69, "duration": 241, "velocity": 82}, {"time": 53278, "pitch": 73, "duration": 241, "velocity": 82}, {"time": 53519, "pitch": 66, "duration": 242, "velocity": 100}, {"time": 53519, "pitch": 69, "duration": 242, "velocity": 100}, {"time": 53519, "pitch": 73, "duration": 242, "velocity": 100}, {"time": 53761, "pitch": 66, "duration": 30, "velocity": 88}, {"time": 53761, "pitch": 69, "duration": 30, "velocity": 88}, {"time": 54002, "pitch": 68, "duration": 477, "velocity": 100}, {"time": 54002, "pitch": 71, "duration": 477, "velocity": 100}, {"time": 54479, "pitch": 68, "duration": 236, "velocity": 83}, {"time": 54479, "pitch": 71, "duration": 236, "velocity": 83}, {"time": 54715, "pitch": 68, "duration": 242, "velocity": 82}, {"time": 54715, "pitch": 71, "duration": 242, "velocity": 82}, {"time": 54957, "pitch": 68, "duration": 482, "velocity": 92}, {"time": 54957, "pitch": 71, "duration": 482, "velocity": 92}, {"time": 55439, "pitch": 68, "duration": 241, "velocity": 84}, {"time": 55439, "pitch": 71, "duration": 241, "velocity": 84}, {"time": 55680, "pitch": 68, "duration": 242, "velocity": 100}, {"time": 55680, "pitch": 71, "duration": 242, "velocity": 100}, {"time": 55922, "pitch": 68, "duration": 30, "velocity": 88}, {"time": 55922, "pitch": 71, "duration": 30, "velocity": 88}, {"time": 56163, "pitch": 66, "duration": 472, "velocity": 100}, {"time": 56163, "pitch": 71, "duration": 472, "velocity": 100}, {"time": 56163, "pitch": 76, "duration": 472, "velocity": 100}, {"time": 56635, "pitch": 66, "duration": 483, "velocity": 100}, {"time": 56635, "pitch": 71, "duration": 483, "velocity": 100}, {"time": 56635, "pitch": 76, "duration": 483, "velocity": 100}, {"time": 57118, "pitch": 66, "duration": 241, "velocity": 87}, {"time": 57118, "pitch": 71, "duration": 241, "velocity": 87}, {"time": 57118, "pitch": 76, "duration": 241, "velocity": 87}, {"time": 57359, "pitch": 66, "duration": 241, "velocity": 100}, {"time": 57359, "pitch": 71, "duration": 241, "velocity": 100}, {"time": 57359, "pitch": 76, "duration": 241, "velocity": 100}, {"time": 57600, "pitch": 66, "duration": 30, "velocity": 88}, {"time": 57600, "pitch": 71, "duration": 30, "velocity": 88}, {"time": 57841, "pitch": 66, "duration": 483, "velocity": 100}, {"time": 57841, "pitch": 71, "duration": 483, "velocity": 100}, {"time": 57841, "pitch": 75, "duration": 483, "velocity": 100}, {"time": 58324, "pitch": 66, "duration": 241, "velocity": 100}, {"time": 58324, "pitch": 71, "duration": 241, "velocity": 100}, {"time": 58324, "pitch": 75, "duration": 241, "velocity": 100}, {"time": 58565, "pitch": 66, "duration": 236, "velocity": 100}, {"time": 58565, "pitch": 71, "duration": 236, "velocity": 100}, {"time": 58565, "pitch": 75, "duration": 236, "velocity": 100}, {"time": 58801, "pitch": 66, "duration": 236, "velocity": 100}, {"time": 58801, "pitch": 71, "duration": 236, "velocity": 100}, {"time": 58801, "pitch": 75, "duration": 236, "velocity": 100}, {"time": 59037, "pitch": 66, "duration": 242, "velocity": 100}, {"time": 59037, "pitch": 71, "duration": 242, "velocity": 100}, {"time": 59037, "pitch": 75, "duration": 242, "velocity": 100}, {"time": 59279, "pitch": 66, "duration": 241, "velocity": 100}, {"time": 59279, "pitch": 71, "duration": 241, "velocity": 100}, {"time": 59279, "pitch": 75, "duration": 241, "velocity": 100}, {"time": 59520, "pitch": 66, "duration": 241, "velocity": 100}, {"time": 59520, "pitch": 71, "duration": 241, "velocity": 100}, {"time": 59520, "pitch": 75, "duration": 241, "velocity": 100}, {"time": 59761, "pitch": 66, "duration": 241, "velocity": 100}, {"time": 59761, "pitch": 71, "duration": 241, "velocity": 100}, {"time": 59761, "pitch": 75, "duration": 241, "velocity": 100}, {"time": 60002, "pitch": 68, "duration": 483, "velocity": 100}, {"time": 60002, "pitch": 71, "duration": 483, "velocity": 100}, {"time": 60002, "pitch": 76, "duration": 483, "velocity": 100}, {"time": 60485, "pitch": 68, "duration": 472, "velocity": 100}, {"time": 60485, "pitch": 71, "duration": 472, "velocity": 100}, {"time": 60485, "pitch": 76, "duration": 472, "velocity": 100}, {"time": 60957, "pitch": 68, "duration": 241, "velocity": 86}, {"time": 60957, "pitch": 71, "duration": 241, "velocity": 86}, {"time": 60957, "pitch": 76, "duration": 241, "velocity": 86}, {"time": 61198, "pitch": 68, "duration": 242, "velocity": 100}, {"time": 61198, "pitch": 71, "duration": 242, "velocity": 100}, {"time": 61198, "pitch": 76, "duration": 242, "velocity": 100}, {"time": 61440, "pitch": 68, "duration": 30, "velocity": 88}, {"time": 61440, "pitch": 71, "duration": 30, "velocity": 88}, {"time": 61681, "pitch": 66, "duration": 482, "velocity": 100}, {"time": 61681, "pitch": 71, "duration": 482, "velocity": 100}, {"time": 61681, "pitch": 75, "duration": 482, "velocity": 100}, {"time": 62163, "pitch": 66, "duration": 242, "velocity": 86}, {"time": 62163, "pitch": 71, "duration": 242, "velocity": 86}, {"time": 62163, "pitch": 75, "duration": 242, "velocity": 86}, {"time": 62405, "pitch": 66, "duration": 472, "velocity": 100}, {"time": 62405, "pitch": 71, "duration": 472, "velocity": 100}, {"time": 62405, "pitch": 75, "duration": 472, "velocity": 100}, {"time": 62877, "pitch": 66, "duration": 241, "velocity": 76}, {"time": 62877, "pitch": 71, "duration": 241, "velocity": 76}, {"time": 62877, "pitch": 75, "duration": 241, "velocity": 76}, {"time": 63118, "pitch": 66, "duration": 241, "velocity": 89}, {"time": 63118, "pitch": 71, "duration": 241, "velocity": 89}, {"time": 63118, "pitch": 75, "duration": 241, "velocity": 89}, {"time": 63359, "pitch": 66, "duration": 242, "velocity": 100}, {"time": 63359, "pitch": 71, "duration": 242, "velocity": 100}, {"time": 63359, "pitch": 75, "duration": 242, "velocity": 100}, {"time": 63601, "pitch": 66, "duration": 30, "velocity": 88}, {"time": 63601, "pitch": 71, "duration": 30, "velocity": 88}, {"time": 63842, "pitch": 68, "duration": 482, "velocity": 100}, {"time": 63842, "pitch": 73, "duration": 482, "velocity": 100}, {"time": 63842, "pitch": 76, "duration": 482, "velocity": 100}, {"time": 64324, "pitch": 68, "duration": 473, "velocity": 100}, {"time": 64324, "pitch": 73, "duration": 473, "velocity": 100}, {"time": 64324, "pitch": 76, "duration": 473, "velocity": 100}, {"time": 64797, "pitch": 68, "duration": 241, "velocity": 79}, {"time": 64797, "pitch": 73, "duration": 241, "velocity": 79}, {"time": 64797, "pitch": 76, "duration": 241, "velocity": 79}, {"time": 65038, "pitch": 68, "duration": 241, "velocity": 100}, {"time": 65038, "pitch": 73, "duration": 241, "velocity": 100}, {"time": 65038, "pitch": 76, "duration": 241, "velocity": 100}, {"time": 65279, "pitch": 68, "duration": 30, "velocity": 88}, {"time": 65279, "pitch": 73, "duration": 30, "velocity": 88}, {"time": 65520, "pitch": 66, "duration": 483, "velocity": 100}, {"time": 65520, "pitch": 70, "duration": 483, "velocity": 100}, {"time": 65520, "pitch": 73, "duration": 483, "velocity": 100}, {"time": 66003, "pitch": 66, "duration": 241, "velocity": 90}, {"time": 66003, "pitch": 70, "duration": 241, "velocity": 90}, {"time": 66003, "pitch": 73, "duration": 241, "velocity": 90}, {"time": 66244, "pitch": 66, "duration": 236, "velocity": 88}, {"time": 66244, "pitch": 70, "duration": 236, "velocity": 88}, {"time": 66244, "pitch": 73, "duration": 236, "velocity": 88}, {"time": 66480, "pitch": 66, "duration": 478, "velocity": 100}, {"time": 66480, "pitch": 70, "duration": 478, "velocity": 100}, {"time": 66480, "pitch": 73, "duration": 478, "velocity": 100}, {"time": 66958, "pitch": 66, "duration": 241, "velocity": 85}, {"time": 66958, "pitch": 70, "duration": 241, "velocity": 85}, {"time": 66958, "pitch": 73, "duration": 241, "velocity": 85}, {"time": 67199, "pitch": 66, "duration": 241, "velocity": 100}, {"time": 67199, "pitch": 70, "duration": 241, "velocity": 100}, {"time": 67199, "pitch": 73, "duration": 241, "velocity": 100}, {"time": 67440, "pitch": 66, "duration": 30, "velocity": 88}, {"time": 67440, "pitch": 70, "duration": 30, "velocity": 88}, {"time": 67681, "pitch": 66, "duration": 483, "velocity": 100}, {"time": 67681, "pitch": 69, "duration": 483, "velocity": 100}, {"time": 67681, "pitch": 73, "duration": 483, "velocity": 100}, {"time": 68164, "pitch": 66, "duration": 472, "velocity": 100}, {"time": 68164, "pitch": 69, "duration": 472, "velocity": 100}, {"time": 68164, "pitch": 73, "duration": 472, "velocity": 100}, {"time": 68636, "pitch": 66, "duration": 241, "velocity": 82}, {"time": 68636, "pitch": 69, "duration": 241, "velocity": 82}, {"time": 68636, "pitch": 73, "duration": 241, "velocity": 82}, {"time": 68877, "pitch": 66, "duration": 242, "velocity": 100}, {"time": 68877, "pitch": 69, "duration": 242, "velocity": 100}, {"time": 68877, "pitch": 73, "duration": 242, "velocity": 100}, {"time": 69119, "pitch": 66, "duration": 30, "velocity": 88}, {"time": 69119, "pitch": 69, "duration": 30, "velocity": 88}, {"time": 69360, "pitch": 66, "duration": 482, "velocity": 100}, {"time": 69360, "pitch": 71, "duration": 482, "velocity": 100}, {"time": 69842, "pitch": 66, "duration": 242, "velocity": 83}, {"time": 69842, "pitch": 71, "duration": 242, "velocity": 83}, {"time": 70084, "pitch": 66, "duration": 236, "velocity": 82}, {"time": 70084, "pitch": 71, "duration": 236, "velocity": 82}, {"time": 70320, "pitch": 66, "duration": 477, "velocity": 92}, {"time": 70320, "pitch": 71, "duration": 477, "velocity": 92}, {"time": 70797, "pitch": 66, "duration": 241, "velocity": 84}, {"time": 70797, "pitch": 71, "duration": 241, "velocity": 84}, {"time": 71038, "pitch": 66, "duration": 242, "velocity": 100}, {"time": 71038, "pitch": 71, "duration": 242, "velocity": 100}, {"time": 71280, "pitch": 66, "duration": 30, "velocity": 88}, {"time": 71280, "pitch": 71, "duration": 30, "velocity": 88}, {"time": 71521, "pitch": 66, "duration": 482, "velocity": 100}, {"time": 71521, "pitch": 69, "duration": 482, "velocity": 100}, {"time": 71521, "pitch": 76, "duration": 482, "velocity": 100}, {"time": 72003, "pitch": 66, "duration": 473, "velocity": 100}, {"time": 72003, "pitch": 69, "duration": 473, "velocity": 100}, {"time": 72003, "pitch": 76, "duration": 473, "velocity": 100}, {"time": 72476, "pitch": 66, "duration": 241, "velocity": 87}, {"time": 72476, "pitch": 69, "duration": 241, "velocity": 87}, {"time": 72476, "pitch": 76, "duration": 241, "velocity": 87}, {"time": 72717, "pitch": 66, "duration": 241, "velocity": 100}, {"time": 72717, "pitch": 69, "duration": 241, "velocity": 100}, {"time": 72717, "pitch": 76, "duration": 241, "velocity": 100}, {"time": 72958, "pitch": 66, "duration": 30, "velocity": 88}, {"time": 72958, "pitch": 69, "duration": 30, "velocity": 88}, {"time": 73199, "pitch": 68, "duration": 483, "velocity": 100}, {"time": 73199, "pitch": 71, "duration": 483, "velocity": 100}, {"time": 73199, "pitch": 76, "duration": 483, "velocity": 100}, {"time": 73682, "pitch": 68, "duration": 241, "velocity": 100}, {"time": 73682, "pitch": 71, "duration": 241, "velocity": 100}, {"time": 73682, "pitch": 76, "duration": 241, "velocity": 100}, {"time": 73923, "pitch": 68, "duration": 236, "velocity": 100}, {"time": 73923, "pitch": 71, "duration": 236, "velocity": 100}, {"time": 73923, "pitch": 76, "duration": 236, "velocity": 100}, {"time": 74159, "pitch": 68, "duration": 237, "velocity": 100}, {"time": 74159, "pitch": 71, "duration": 237, "velocity": 100}, {"time": 74159, "pitch": 76, "duration": 237, "velocity": 100}, {"time": 74396, "pitch": 68, "duration": 241, "velocity": 100}, {"time": 74396, "pitch": 71, "duration": 241, "velocity": 100}, {"time": 74396, "pitch": 76, "duration": 241, "velocity": 100}, {"time": 74637, "pitch": 68, "duration": 241, "velocity": 100}, {"time": 74637, "pitch": 71, "duration": 241, "velocity": 100}, {"time": 74637, "pitch": 76, "duration": 241, "velocity": 100}, {"time": 74878, "pitch": 68, "duration": 241, "velocity": 100}, {"time": 74878, "pitch": 71, "duration": 241, "velocity": 100}, {"time": 74878, "pitch": 76, "duration": 241, "velocity": 100}, {"time": 75119, "pitch": 68, "duration": 241, "velocity": 100}, {"time": 75119, "pitch": 71, "duration": 241, "velocity": 100}, {"time": 75119, "pitch": 76, "duration": 241, "velocity": 100}, {"time": 75360, "pitch": 64, "duration": 483, "velocity": 100}, {"time": 75360, "pitch": 68, "duration": 483, "velocity": 100}, {"time": 75360, "pitch": 71, "duration": 483, "velocity": 100}, {"time": 75843, "pitch": 64, "duration": 472, "velocity": 100}, {"time": 75843, "pitch": 68, "duration": 472, "velocity": 100}, {"time": 75843, "pitch": 71, "duration": 472, "velocity": 100}, {"time": 76315, "pitch": 64, "duration": 241, "velocity": 84}, {"time": 76315, "pitch": 68, "duration": 241, "velocity": 84}, {"time": 76315, "pitch": 71, "duration": 241, "velocity": 84}, {"time": 76556, "pitch": 64, "duration": 242, "velocity": 100}, {"time": 76556, "pitch": 68, "duration": 242, "velocity": 100}, {"time": 76556, "pitch": 71, "duration": 242, "velocity": 100}, {"time": 77039, "pitch": 62, "duration": 482, "velocity": 100}, {"time": 77039, "pitch": 66, "duration": 482, "velocity": 100}, {"time": 77039, "pitch": 71, "duration": 482, "velocity": 100}, {"time": 77521, "pitch": 62, "duration": 242, "velocity": 85}, {"time": 77521, "pitch": 66, "duration": 242, "velocity": 85}, {"time": 77521, "pitch": 71, "duration": 242, "velocity": 85}, {"time": 77763, "pitch": 62, "duration": 472, "velocity": 100}, {"time": 77763, "pitch": 66, "duration": 472, "velocity": 100}, {"time": 77763, "pitch": 71, "duration": 472, "velocity": 100}, {"time": 78235, "pitch": 62, "duration": 241, "velocity": 83}, {"time": 78235, "pitch": 66, "duration": 241, "velocity": 83}, {"time": 78235, "pitch": 71, "duration": 241, "velocity": 83}, {"time": 78476, "pitch": 62, "duration": 241, "velocity": 100}, {"time": 78476, "pitch": 66, "duration": 241, "velocity": 100}, {"time": 78476, "pitch": 71, "duration": 241, "velocity": 100}, {"time": 78717, "pitch": 62, "duration": 242, "velocity": 100}, {"time": 78717, "pitch": 66, "duration": 242, "velocity": 100}, {"time": 78717, "pitch": 71, "duration": 242, "velocity": 100}, {"time": 78959, "pitch": 66, "duration": 30, "velocity": 90}, {"time": 78959, "pitch": 71, "duration": 30, "velocity": 90}, {"time": 79079, "pitch": 66, "duration": 30, "velocity": 90}, {"time": 79079, "pitch": 71, "duration": 30, "velocity": 90}, {"time": 79200, "pitch": 64, "duration": 482, "velocity": 100}, {"time": 79200, "pitch": 68, "duration": 482, "velocity": 100}, {"time": 79200, "pitch": 71, "duration": 482, "velocity": 100}, {"time": 79682, "pitch": 64, "duration": 483, "velocity": 100}, {"time": 79682, "pitch": 68, "duration": 483, "velocity": 100}, {"time": 79682, "pitch": 71, "duration": 483, "velocity": 100}, {"time": 80165, "pitch": 64, "duration": 236, "velocity": 84}, {"time": 80165, "pitch": 68, "duration": 236, "velocity": 84}, {"time": 80165, "pitch": 71, "duration": 236, "velocity": 84}, {"time": 80401, "pitch": 64, "duration": 236, "velocity": 100}, {"time": 80401, "pitch": 68, "duration": 236, "velocity": 100}, {"time": 80401, "pitch": 71, "duration": 236, "velocity": 100}, {"time": 80878, "pitch": 62, "duration": 483, "velocity": 100}, {"time": 80878, "pitch": 66, "duration": 483, "velocity": 100}, {"time": 80878, "pitch": 71, "duration": 483, "velocity": 100}, {"time": 81361, "pitch": 62, "duration": 241, "velocity": 85}, {"time": 81361, "pitch": 66, "duration": 241, "velocity": 85}, {"time": 81361, "pitch": 71, "duration": 241, "velocity": 85}, {"time": 81602, "pitch": 62, "duration": 483, "velocity": 100}, {"time": 81602, "pitch": 66, "duration": 483, "velocity": 100}, {"time": 81602, "pitch": 71, "duration": 483, "velocity": 100}, {"time": 82085, "pitch": 62, "duration": 236, "velocity": 83}, {"time": 82085, "pitch": 66, "duration": 236, "velocity": 83}, {"time": 82085, "pitch": 71, "duration": 236, "velocity": 83}, {"time": 82321, "pitch": 62, "duration": 236, "velocity": 100}, {"time": 82321, "pitch": 66, "duration": 236, "velocity": 100}, {"time": 82321, "pitch": 71, "duration": 236, "velocity": 100}, {"time": 82557, "pitch": 62, "duration": 241, "velocity": 100}, {"time": 82557, "pitch": 66, "duration": 241, "velocity": 100}, {"time": 82557, "pitch": 71, "duration": 241, "velocity": 100}, {"time": 82798, "pitch": 66, "duration": 30, "velocity": 90}, {"time": 82798, "pitch": 71, "duration": 30, "velocity": 90}, {"time": 83039, "pitch": 64, "duration": 483, "velocity": 100}, {"time": 83039, "pitch": 68, "duration": 483, "velocity": 100}, {"time": 83039, "pitch": 71, "duration": 483, "velocity": 100}, {"time": 83522, "pitch": 64, "duration": 482, "velocity": 100}, {"time": 83522, "pitch": 68, "duration": 482, "velocity": 100}, {"time": 83522, "pitch": 71, "duration": 482, "velocity": 100}, {"time": 84004, "pitch": 64, "duration": 237, "velocity": 84}, {"time": 84004, "pitch": 68, "duration": 237, "velocity": 84}, {"time": 84004, "pitch": 71, "duration": 237, "velocity": 84}, {"time": 84241, "pitch": 64, "duration": 236, "velocity": 100}, {"time": 84241, "pitch": 68, "duration": 236, "velocity": 100}, {"time": 84241, "pitch": 71, "duration": 236, "velocity": 100}, {"time": 84718, "pitch": 62, "duration": 482, "velocity": 100}, {"time": 84718, "pitch": 66, "duration": 482, "velocity": 100}, {"time": 84718, "pitch": 71, "duration": 482, "velocity": 100}, {"time": 85200, "pitch": 62, "duration": 242, "velocity": 85}, {"time": 85200, "pitch": 66, "duration": 242, "velocity": 85}, {"time": 85200, "pitch": 71, "duration": 242, "velocity": 85}, {"time": 85442, "pitch": 62, "duration": 482, "velocity": 100}, {"time": 85442, "pitch": 66, "duration": 482, "velocity": 100}, {"time": 85442, "pitch": 71, "duration": 482, "velocity": 100}, {"time": 85924, "pitch": 62, "duration": 236, "velocity": 83}, {"time": 85924, "pitch": 66, "duration": 236, "velocity": 83}, {"time": 85924, "pitch": 71, "duration": 236, "velocity": 83}, {"time": 86160, "pitch": 62, "duration": 237, "velocity": 100}, {"time": 86160, "pitch": 66, "duration": 237, "velocity": 100}, {"time": 86160, "pitch": 71, "duration": 237, "velocity": 100}, {"time": 86397, "pitch": 62, "duration": 241, "velocity": 100}, {"time": 86397, "pitch": 66, "duration": 241, "velocity": 100}, {"time": 86397, "pitch": 71, "duration": 241, "velocity": 100}, {"time": 86638, "pitch": 66, "duration": 30, "velocity": 90}, {"time": 86638, "pitch": 71, "duration": 30, "velocity": 90}, {"time": 86758, "pitch": 66, "duration": 30, "velocity": 90}, {"time": 86758, "pitch": 71, "duration": 30, "velocity": 90}, {"time": 86879, "pitch": 64, "duration": 482, "velocity": 100}, {"time": 86879, "pitch": 68, "duration": 482, "velocity": 100}, {"time": 86879, "pitch": 71, "duration": 482, "velocity": 100}, {"time": 87361, "pitch": 64, "duration": 483, "velocity": 100}, {"time": 87361, "pitch": 68, "duration": 483, "velocity": 100}, {"time": 87361, "pitch": 71, "duration": 483, "velocity": 100}, {"time": 87844, "pitch": 64, "duration": 236, "velocity": 84}, {"time": 87844, "pitch": 68, "duration": 236, "velocity": 84}, {"time": 87844, "pitch": 71, "duration": 236, "velocity": 84}, {"time": 88080, "pitch": 64, "duration": 236, "velocity": 100}, {"time": 88080, "pitch": 68, "duration": 236, "velocity": 100}, {"time": 88080, "pitch": 71, "duration": 236, "velocity": 100}, {"time": 88557, "pitch": 62, "duration": 483, "velocity": 100}, {"time": 88557, "pitch": 66, "duration": 483, "velocity": 100}, {"time": 88557, "pitch": 71, "duration": 483, "velocity": 100}, {"time": 89040, "pitch": 62, "duration": 241, "velocity": 85}, {"time": 89040, "pitch": 66, "duration": 241, "velocity": 85}, {"time": 89040, "pitch": 71, "duration": 241, "velocity": 85}, {"time": 89281, "pitch": 62, "duration": 483, "velocity": 100}, {"time": 89281, "pitch": 66, "duration": 483, "velocity": 100}, {"time": 89281, "pitch": 71, "duration": 483, "velocity": 100}, {"time": 89764, "pitch": 62, "duration": 236, "velocity": 83}, {"time": 89764, "pitch": 66, "duration": 236, "velocity": 83}, {"time": 89764, "pitch": 71, "duration": 236, "velocity": 83}, {"time": 90000, "pitch": 62, "duration": 236, "velocity": 100}, {"time": 90000, "pitch": 66, "duration": 236, "velocity": 100}, {"time": 90000, "pitch": 71, "duration": 236, "velocity": 100}, {"time": 90236, "pitch": 62, "duration": 241, "velocity": 100}, {"time": 90236, "pitch": 66, "duration": 241, "velocity": 100}, {"time": 90236, "pitch": 71, "duration": 241, "velocity": 100}, {"time": 90477, "pitch": 62, "duration": 30, "velocity": 90}, {"time": 90477, "pitch": 66, "duration": 30, "velocity": 90}, {"time": 90718, "pitch": 64, "duration": 483, "velocity": 100}, {"time": 90718, "pitch": 69, "duration": 483, "velocity": 100}, {"time": 91201, "pitch": 64, "duration": 482, "velocity": 100}, {"time": 91201, "pitch": 69, "duration": 482, "velocity": 100}, {"time": 91683, "pitch": 64, "duration": 237, "velocity": 83}, {"time": 91683, "pitch": 69, "duration": 237, "velocity": 83}, {"time": 91920, "pitch": 64, "duration": 236, "velocity": 100}, {"time": 91920, "pitch": 69, "duration": 236, "velocity": 100}, {"time": 92397, "pitch": 64, "duration": 482, "velocity": 100}, {"time": 92397, "pitch": 68, "duration": 482, "velocity": 100}, {"time": 92397, "pitch": 71, "duration": 482, "velocity": 100}, {"time": 92879, "pitch": 64, "duration": 242, "velocity": 88}, {"time": 92879, "pitch": 68, "duration": 242, "velocity": 88}, {"time": 92879, "pitch": 71, "duration": 242, "velocity": 88}, {"time": 93121, "pitch": 64, "duration": 241, "velocity": 85}, {"time": 93121, "pitch": 68, "duration": 241, "velocity": 85}, {"time": 93121, "pitch": 71, "duration": 241, "velocity": 85}, {"time": 93362, "pitch": 64, "duration": 477, "velocity": 101}, {"time": 93362, "pitch": 68, "duration": 477, "velocity": 101}, {"time": 93362, "pitch": 71, "duration": 477, "velocity": 101}, {"time": 93839, "pitch": 64, "duration": 237, "velocity": 95}, {"time": 93839, "pitch": 68, "duration": 237, "velocity": 95}, {"time": 93839, "pitch": 71, "duration": 237, "velocity": 95}, {"time": 94076, "pitch": 64, "duration": 241, "velocity": 100}, {"time": 94076, "pitch": 68, "duration": 241, "velocity": 100}, {"time": 94076, "pitch": 71, "duration": 241, "velocity": 100}, {"time": 94317, "pitch": 64, "duration": 30, "velocity": 83}, {"time": 94317, "pitch": 68, "duration": 30, "velocity": 83}, {"time": 94558, "pitch": 66, "duration": 482, "velocity": 100}, {"time": 94558, "pitch": 69, "duration": 482, "velocity": 100}, {"time": 94558, "pitch": 73, "duration": 482, "velocity": 100}, {"time": 95040, "pitch": 66, "duration": 31, "velocity": 83}, {"time": 95040, "pitch": 69, "duration": 31, "velocity": 83}, {"time": 95282, "pitch": 66, "duration": 477, "velocity": 100}, {"time": 95282, "pitch": 71, "duration": 477, "velocity": 100}, {"time": 95282, "pitch": 75, "duration": 477, "velocity": 100}, {"time": 95759, "pitch": 66, "duration": 236, "velocity": 100}, {"time": 95759, "pitch": 71, "duration": 236, "velocity": 100}, {"time": 95759, "pitch": 75, "duration": 236, "velocity": 100}, {"time": 95995, "pitch": 66, "duration": 121, "velocity": 84}, {"time": 95995, "pitch": 71, "duration": 121, "velocity": 84}, {"time": 96236, "pitch": 64, "duration": 483, "velocity": 100}, {"time": 96236, "pitch": 68, "duration": 483, "velocity": 100}, {"time": 96236, "pitch": 71, "duration": 483, "velocity": 100}, {"time": 96236, "pitch": 76, "duration": 483, "velocity": 100}, {"time": 96719, "pitch": 64, "duration": 241, "velocity": 100}, {"time": 96719, "pitch": 68, "duration": 241, "velocity": 100}, {"time": 96719, "pitch": 71, "duration": 241, "velocity": 100}, {"time": 96719, "pitch": 76, "duration": 241, "velocity": 100}, {"time": 97201, "pitch": 64, "duration": 478, "velocity": 100}, {"time": 97201, "pitch": 68, "duration": 478, "velocity": 100}, {"time": 97201, "pitch": 71, "duration": 478, "velocity": 100}, {"time": 97201, "pitch": 74, "duration": 478, "velocity": 100}, {"time": 97679, "pitch": 64, "duration": 236, "velocity": 100}, {"time": 97679, "pitch": 68, "duration": 236, "velocity": 100}, {"time": 97679, "pitch": 71, "duration": 236, "velocity": 100}, {"time": 97679, "pitch": 74, "duration": 236, "velocity": 100}, {"time": 97915, "pitch": 64, "duration": 241, "velocity": 100}, {"time": 97915, "pitch": 68, "duration": 241, "velocity": 100}, {"time": 97915, "pitch": 71, "duration": 241, "velocity": 100}, {"time": 97915, "pitch": 74, "duration": 241, "velocity": 100}, {"time": 98156, "pitch": 64, "duration": 30, "velocity": 87}, {"time": 98156, "pitch": 68, "duration": 30, "velocity": 87}, {"time": 98397, "pitch": 64, "duration": 483, "velocity": 100}, {"time": 98397, "pitch": 69, "duration": 483, "velocity": 100}, {"time": 98397, "pitch": 73, "duration": 483, "velocity": 100}, {"time": 98880, "pitch": 64, "duration": 482, "velocity": 100}, {"time": 98880, "pitch": 69, "duration": 482, "velocity": 100}, {"time": 98880, "pitch": 73, "duration": 482, "velocity": 100}, {"time": 99362, "pitch": 64, "duration": 242, "velocity": 83}, {"time": 99362, "pitch": 69, "duration": 242, "velocity": 83}, {"time": 99362, "pitch": 73, "duration": 242, "velocity": 83}, {"time": 99604, "pitch": 64, "duration": 241, "velocity": 100}, {"time": 99604, "pitch": 69, "duration": 241, "velocity": 100}, {"time": 99604, "pitch": 73, "duration": 241, "velocity": 100}, {"time": 100081, "pitch": 68, "duration": 477, "velocity": 100}, {"time": 100081, "pitch": 71, "duration": 477, "velocity": 100}, {"time": 100081, "pitch": 75, "duration": 477, "velocity": 100}, {"time": 100558, "pitch": 68, "duration": 242, "velocity": 88}, {"time": 100558, "pitch": 71, "duration": 242, "velocity": 88}, {"time": 100558, "pitch": 75, "duration": 242, "velocity": 88}, {"time": 100800, "pitch": 68, "duration": 241, "velocity": 85}, {"time": 100800, "pitch": 71, "duration": 241, "velocity": 85}, {"time": 100800, "pitch": 75, "duration": 241, "velocity": 85}, {"time": 101041, "pitch": 65, "duration": 482, "velocity": 101}, {"time": 101041, "pitch": 68, "duration": 482, "velocity": 101}, {"time": 101041, "pitch": 73, "duration": 482, "velocity": 101}, {"time": 101523, "pitch": 65, "duration": 242, "velocity": 95}, {"time": 101523, "pitch": 68, "duration": 242, "velocity": 95}, {"time": 101523, "pitch": 73, "duration": 242, "velocity": 95}, {"time": 101765, "pitch": 65, "duration": 236, "velocity": 100}, {"time": 101765, "pitch": 68, "duration": 236, "velocity": 100}, {"time": 101765, "pitch": 73, "duration": 236, "velocity": 100}, {"time": 102001, "pitch": 65, "duration": 29, "velocity": 87}, {"time": 102001, "pitch": 68, "duration": 29, "velocity": 87}, {"time": 102237, "pitch": 66, "duration": 482, "velocity": 100}, {"time": 102237, "pitch": 69, "duration": 482, "velocity": 100}, {"time": 102237, "pitch": 73, "duration": 482, "velocity": 100}, {"time": 102719, "pitch": 66, "duration": 483, "velocity": 100}, {"time": 102719, "pitch": 69, "duration": 483, "velocity": 100}, {"time": 102719, "pitch": 73, "duration": 483, "velocity": 100}, {"time": 103202, "pitch": 66, "duration": 241, "velocity": 88}, {"time": 103202, "pitch": 69, "duration": 241, "velocity": 88}, {"time": 103202, "pitch": 73, "duration": 241, "velocity": 88}, {"time": 103443, "pitch": 66, "duration": 241, "velocity": 100}, {"time": 103443, "pitch": 69, "duration": 241, "velocity": 100}, {"time": 103443, "pitch": 73, "duration": 241, "velocity": 100}, {"time": 103921, "pitch": 66, "duration": 477, "velocity": 100}, {"time": 103921, "pitch": 70, "duration": 477, "velocity": 100}, {"time": 103921, "pitch": 73, "duration": 477, "velocity": 100}, {"time": 104398, "pitch": 66, "duration": 241, "velocity": 92}, {"time": 104398, "pitch": 70, "duration": 241, "velocity": 92}, {"time": 104398, "pitch": 73, "duration": 241, "velocity": 92}, {"time": 104639, "pitch": 66, "duration": 724, "velocity": 100}, {"time": 104639, "pitch": 70, "duration": 724, "velocity": 100}, {"time": 104639, "pitch": 73, "duration": 724, "velocity": 100}, {"time": 105363, "pitch": 66, "duration": 241, "velocity": 100}, {"time": 105363, "pitch": 70, "duration": 241, "velocity": 100}, {"time": 105363, "pitch": 73, "duration": 241, "velocity": 100}, {"time": 105604, "pitch": 66, "duration": 236, "velocity": 100}, {"time": 105604, "pitch": 70, "duration": 236, "velocity": 100}, {"time": 105604, "pitch": 73, "duration": 236, "velocity": 100}, {"time": 105840, "pitch": 66, "duration": 30, "velocity": 88}, {"time": 105840, "pitch": 70, "duration": 30, "velocity": 88}, {"time": 105958, "pitch": 66, "duration": 30, "velocity": 87}, {"time": 105958, "pitch": 70, "duration": 30, "velocity": 87}, {"time": 106077, "pitch": 66, "duration": 482, "velocity": 100}, {"time": 106077, "pitch": 71, "duration": 482, "velocity": 100}, {"time": 106077, "pitch": 76, "duration": 482, "velocity": 100}, {"time": 106559, "pitch": 66, "duration": 482, "velocity": 100}, {"time": 106559, "pitch": 71, "duration": 482, "velocity": 100}, {"time": 106559, "pitch": 76, "duration": 482, "velocity": 100}, {"time": 107041, "pitch": 66, "duration": 242, "velocity": 86}, {"time": 107041, "pitch": 71, "duration": 242, "velocity": 86}, {"time": 107041, "pitch": 76, "duration": 242, "velocity": 86}, {"time": 107283, "pitch": 66, "duration": 477, "velocity": 100}, {"time": 107283, "pitch": 71, "duration": 477, "velocity": 100}, {"time": 107283, "pitch": 76, "duration": 477, "velocity": 100}, {"time": 107760, "pitch": 66, "duration": 477, "velocity": 100}, {"time": 107760, "pitch": 71, "duration": 477, "velocity": 100}, {"time": 107760, "pitch": 75, "duration": 477, "velocity": 100}, {"time": 108237, "pitch": 66, "duration": 242, "velocity": 93}, {"time": 108237, "pitch": 71, "duration": 242, "velocity": 93}, {"time": 108237, "pitch": 75, "duration": 242, "velocity": 93}, {"time": 108479, "pitch": 66, "duration": 241, "velocity": 100}, {"time": 108479, "pitch": 71, "duration": 241, "velocity": 100}, {"time": 108479, "pitch": 75, "duration": 241, "velocity": 100}, {"time": 108720, "pitch": 66, "duration": 241, "velocity": 100}, {"time": 108720, "pitch": 71, "duration": 241, "velocity": 100}, {"time": 108720, "pitch": 75, "duration": 241, "velocity": 100}, {"time": 108961, "pitch": 66, "duration": 241, "velocity": 100}, {"time": 108961, "pitch": 71, "duration": 241, "velocity": 100}, {"time": 108961, "pitch": 75, "duration": 241, "velocity": 100}, {"time": 109202, "pitch": 66, "duration": 242, "velocity": 100}, {"time": 109202, "pitch": 71, "duration": 242, "velocity": 100}, {"time": 109202, "pitch": 75, "duration": 242, "velocity": 100}, {"time": 109444, "pitch": 66, "duration": 236, "velocity": 100}, {"time": 109444, "pitch": 71, "duration": 236, "velocity": 100}, {"time": 109444, "pitch": 75, "duration": 236, "velocity": 100}, {"time": 109680, "pitch": 66, "duration": 236, "velocity": 100}, {"time": 109680, "pitch": 71, "duration": 236, "velocity": 100}, {"time": 109680, "pitch": 75, "duration": 236, "velocity": 100}, {"time": 109916, "pitch": 68, "duration": 482, "velocity": 100}, {"time": 109916, "pitch": 71, "duration": 482, "velocity": 100}, {"time": 109916, "pitch": 76, "duration": 482, "velocity": 100}, {"time": 110398, "pitch": 68, "duration": 483, "velocity": 100}, {"time": 110398, "pitch": 71, "duration": 483, "velocity": 100}, {"time": 110398, "pitch": 76, "duration": 483, "velocity": 100}, {"time": 110881, "pitch": 68, "duration": 241, "velocity": 86}, {"time": 110881, "pitch": 71, "duration": 241, "velocity": 86}, {"time": 110881, "pitch": 76, "duration": 241, "velocity": 86}, {"time": 111122, "pitch": 68, "duration": 241, "velocity": 100}, {"time": 111122, "pitch": 71, "duration": 241, "velocity": 100}, {"time": 111122, "pitch": 76, "duration": 241, "velocity": 100}, {"time": 111363, "pitch": 68, "duration": 30, "velocity": 88}, {"time": 111363, "pitch": 71, "duration": 30, "velocity": 88}, {"time": 111600, "pitch": 66, "duration": 477, "velocity": 100}, {"time": 111600, "pitch": 71, "duration": 477, "velocity": 100}, {"time": 111600, "pitch": 75, "duration": 477, "velocity": 100}, {"time": 112077, "pitch": 66, "duration": 241, "velocity": 86}, {"time": 112077, "pitch": 71, "duration": 241, "velocity": 86}, {"time": 112077, "pitch": 75, "duration": 241, "velocity": 86}, {"time": 112318, "pitch": 66, "duration": 483, "velocity": 100}, {"time": 112318, "pitch": 71, "duration": 483, "velocity": 100}, {"time": 112318, "pitch": 75, "duration": 483, "velocity": 100}, {"time": 112801, "pitch": 66, "duration": 241, "velocity": 76}, {"time": 112801, "pitch": 71, "duration": 241, "velocity": 76}, {"time": 112801, "pitch": 75, "duration": 241, "velocity": 76}, {"time": 113042, "pitch": 66, "duration": 241, "velocity": 89}, {"time": 113042, "pitch": 71, "duration": 241, "velocity": 89}, {"time": 113042, "pitch": 75, "duration": 241, "velocity": 89}, {"time": 113283, "pitch": 66, "duration": 236, "velocity": 100}, {"time": 113283, "pitch": 71, "duration": 236, "velocity": 100}, {"time": 113283, "pitch": 75, "duration": 236, "velocity": 100}, {"time": 113519, "pitch": 66, "duration": 30, "velocity": 88}, {"time": 113519, "pitch": 71, "duration": 30, "velocity": 88}, {"time": 113756, "pitch": 68, "duration": 482, "velocity": 100}, {"time": 113756, "pitch": 73, "duration": 482, "velocity": 100}, {"time": 113756, "pitch": 76, "duration": 482, "velocity": 100}, {"time": 114238, "pitch": 68, "duration": 482, "velocity": 100}, {"time": 114238, "pitch": 73, "duration": 482, "velocity": 100}, {"time": 114238, "pitch": 76, "duration": 482, "velocity": 100}, {"time": 114720, "pitch": 68, "duration": 242, "velocity": 79}, {"time": 114720, "pitch": 73, "duration": 242, "velocity": 79}, {"time": 114720, "pitch": 76, "duration": 242, "velocity": 79}, {"time": 114962, "pitch": 68, "duration": 241, "velocity": 100}, {"time": 114962, "pitch": 73, "duration": 241, "velocity": 100}, {"time": 114962, "pitch": 76, "duration": 241, "velocity": 100}, {"time": 115203, "pitch": 68, "duration": 29, "velocity": 88}, {"time": 115203, "pitch": 73, "duration": 29, "velocity": 88}, {"time": 115439, "pitch": 66, "duration": 478, "velocity": 100}, {"time": 115439, "pitch": 70, "duration": 478, "velocity": 100}, {"time": 115439, "pitch": 73, "duration": 478, "velocity": 100}, {"time": 115917, "pitch": 66, "duration": 241, "velocity": 90}, {"time": 115917, "pitch": 70, "duration": 241, "velocity": 90}, {"time": 115917, "pitch": 73, "duration": 241, "velocity": 90}, {"time": 116158, "pitch": 66, "duration": 241, "velocity": 88}, {"time": 116158, "pitch": 70, "duration": 241, "velocity": 88}, {"time": 116158, "pitch": 73, "duration": 241, "velocity": 88}, {"time": 116399, "pitch": 66, "duration": 482, "velocity": 100}, {"time": 116399, "pitch": 70, "duration": 482, "velocity": 100}, {"time": 116399, "pitch": 73, "duration": 482, "velocity": 100}, {"time": 116881, "pitch": 66, "duration": 242, "velocity": 85}, {"time": 116881, "pitch": 70, "duration": 242, "velocity": 85}, {"time": 116881, "pitch": 73, "duration": 242, "velocity": 85}, {"time": 117123, "pitch": 66, "duration": 236, "velocity": 100}, {"time": 117123, "pitch": 70, "duration": 236, "velocity": 100}, {"time": 117123, "pitch": 73, "duration": 236, "velocity": 100}, {"time": 117359, "pitch": 66, "duration": 29, "velocity": 88}, {"time": 117359, "pitch": 70, "duration": 29, "velocity": 88}, {"time": 117595, "pitch": 66, "duration": 483, "velocity": 100}, {"time": 117595, "pitch": 69, "duration": 483, "velocity": 100}, {"time": 117595, "pitch": 73, "duration": 483, "velocity": 100}, {"time": 118078, "pitch": 66, "duration": 482, "velocity": 100}, {"time": 118078, "pitch": 69, "duration": 482, "velocity": 100}, {"time": 118078, "pitch": 73, "duration": 482, "velocity": 100}, {"time": 118560, "pitch": 66, "duration": 241, "velocity": 82}, {"time": 118560, "pitch": 69, "duration": 241, "velocity": 82}, {"time": 118560, "pitch": 73, "duration": 241, "velocity": 82}, {"time": 118801, "pitch": 66, "duration": 241, "velocity": 100}, {"time": 118801, "pitch": 69, "duration": 241, "velocity": 100}, {"time": 118801, "pitch": 73, "duration": 241, "velocity": 100}, {"time": 119042, "pitch": 66, "duration": 31, "velocity": 88}, {"time": 119042, "pitch": 69, "duration": 31, "velocity": 88}, {"time": 119284, "pitch": 68, "duration": 477, "velocity": 100}, {"time": 119284, "pitch": 71, "duration": 477, "velocity": 100}, {"time": 119761, "pitch": 68, "duration": 236, "velocity": 83}, {"time": 119761, "pitch": 71, "duration": 236, "velocity": 83}, {"time": 119997, "pitch": 68, "duration": 242, "velocity": 82}, {"time": 119997, "pitch": 71, "duration": 242, "velocity": 82}, {"time": 120239, "pitch": 68, "duration": 482, "velocity": 92}, {"time": 120239, "pitch": 71, "duration": 482, "velocity": 92}, {"time": 120721, "pitch": 68, "duration": 241, "velocity": 84}, {"time": 120721, "pitch": 71, "duration": 241, "velocity": 84}, {"time": 120962, "pitch": 68, "duration": 241, "velocity": 100}, {"time": 120962, "pitch": 71, "duration": 241, "velocity": 100}, {"time": 121203, "pitch": 68, "duration": 31, "velocity": 88}, {"time": 121203, "pitch": 71, "duration": 31, "velocity": 88}, {"time": 121445, "pitch": 66, "duration": 472, "velocity": 100}, {"time": 121445, "pitch": 71, "duration": 472, "velocity": 100}, {"time": 121445, "pitch": 76, "duration": 472, "velocity": 100}, {"time": 121917, "pitch": 66, "duration": 483, "velocity": 100}, {"time": 121917, "pitch": 71, "duration": 483, "velocity": 100}, {"time": 121917, "pitch": 76, "duration": 483, "velocity": 100}, {"time": 122400, "pitch": 66, "duration": 241, "velocity": 87}, {"time": 122400, "pitch": 71, "duration": 241, "velocity": 87}, {"time": 122400, "pitch": 76, "duration": 241, "velocity": 87}, {"time": 122641, "pitch": 66, "duration": 241, "velocity": 100}, {"time": 122641, "pitch": 71, "duration": 241, "velocity": 100}, {"time": 122641, "pitch": 76, "duration": 241, "velocity": 100}, {"time": 122882, "pitch": 66, "duration": 30, "velocity": 88}, {"time": 122882, "pitch": 71, "duration": 30, "velocity": 88}, {"time": 123123, "pitch": 66, "duration": 478, "velocity": 100}, {"time": 123123, "pitch": 71, "duration": 478, "velocity": 100}, {"time": 123123, "pitch": 75, "duration": 478, "velocity": 100}, {"time": 123601, "pitch": 66, "duration": 236, "velocity": 100}, {"time": 123601, "pitch": 71, "duration": 236, "velocity": 100}, {"time": 123601, "pitch": 75, "duration": 236, "velocity": 100}, {"time": 123837, "pitch": 66, "duration": 241, "velocity": 100}, {"time": 123837, "pitch": 71, "duration": 241, "velocity": 100}, {"time": 123837, "pitch": 75, "duration": 241, "velocity": 100}, {"time": 124078, "pitch": 66, "duration": 241, "velocity": 100}, {"time": 124078, "pitch": 71, "duration": 241, "velocity": 100}, {"time": 124078, "pitch": 75, "duration": 241, "velocity": 100}, {"time": 124319, "pitch": 66, "duration": 242, "velocity": 100}, {"time": 124319, "pitch": 71, "duration": 242, "velocity": 100}, {"time": 124319, "pitch": 75, "duration": 242, "velocity": 100}, {"time": 124561, "pitch": 66, "duration": 241, "velocity": 100}, {"time": 124561, "pitch": 71, "duration": 241, "velocity": 100}, {"time": 124561, "pitch": 75, "duration": 241, "velocity": 100}, {"time": 124802, "pitch": 66, "duration": 241, "velocity": 100}, {"time": 124802, "pitch": 71, "duration": 241, "velocity": 100}, {"time": 124802, "pitch": 75, "duration": 241, "velocity": 100}, {"time": 125043, "pitch": 66, "duration": 241, "velocity": 100}, {"time": 125043, "pitch": 71, "duration": 241, "velocity": 100}, {"time": 125043, "pitch": 75, "duration": 241, "velocity": 100}, {"time": 125284, "pitch": 68, "duration": 473, "velocity": 100}, {"time": 125284, "pitch": 71, "duration": 473, "velocity": 100}, {"time": 125284, "pitch": 76, "duration": 473, "velocity": 100}, {"time": 125757, "pitch": 68, "duration": 482, "velocity": 100}, {"time": 125757, "pitch": 71, "duration": 482, "velocity": 100}, {"time": 125757, "pitch": 76, "duration": 482, "velocity": 100}, {"time": 126239, "pitch": 68, "duration": 241, "velocity": 86}, {"time": 126239, "pitch": 71, "duration": 241, "velocity": 86}, {"time": 126239, "pitch": 76, "duration": 241, "velocity": 86}, {"time": 126480, "pitch": 68, "duration": 242, "velocity": 100}, {"time": 126480, "pitch": 71, "duration": 242, "velocity": 100}, {"time": 126480, "pitch": 76, "duration": 242, "velocity": 100}, {"time": 126722, "pitch": 68, "duration": 30, "velocity": 88}, {"time": 126722, "pitch": 71, "duration": 30, "velocity": 88}, {"time": 126963, "pitch": 66, "duration": 477, "velocity": 100}, {"time": 126963, "pitch": 71, "duration": 477, "velocity": 100}, {"time": 126963, "pitch": 75, "duration": 477, "velocity": 100}, {"time": 127440, "pitch": 66, "duration": 236, "velocity": 86}, {"time": 127440, "pitch": 71, "duration": 236, "velocity": 86}, {"time": 127440, "pitch": 75, "duration": 236, "velocity": 86}, {"time": 127676, "pitch": 66, "duration": 483, "velocity": 100}, {"time": 127676, "pitch": 71, "duration": 483, "velocity": 100}, {"time": 127676, "pitch": 75, "duration": 483, "velocity": 100}, {"time": 128159, "pitch": 66, "duration": 241, "velocity": 76}, {"time": 128159, "pitch": 71, "duration": 241, "velocity": 76}, {"time": 128159, "pitch": 75, "duration": 241, "velocity": 76}, {"time": 128400, "pitch": 66, "duration": 241, "velocity": 89}, {"time": 128400, "pitch": 71, "duration": 241, "velocity": 89}, {"time": 128400, "pitch": 75, "duration": 241, "velocity": 89}, {"time": 128641, "pitch": 66, "duration": 242, "velocity": 100}, {"time": 128641, "pitch": 71, "duration": 242, "velocity": 100}, {"time": 128641, "pitch": 75, "duration": 242, "velocity": 100}, {"time": 128883, "pitch": 66, "duration": 30, "velocity": 88}, {"time": 128883, "pitch": 71, "duration": 30, "velocity": 88}, {"time": 129124, "pitch": 68, "duration": 472, "velocity": 100}, {"time": 129124, "pitch": 73, "duration": 472, "velocity": 100}, {"time": 129124, "pitch": 76, "duration": 472, "velocity": 100}, {"time": 129596, "pitch": 68, "duration": 483, "velocity": 100}, {"time": 129596, "pitch": 73, "duration": 483, "velocity": 100}, {"time": 129596, "pitch": 76, "duration": 483, "velocity": 100}, {"time": 130079, "pitch": 68, "duration": 241, "velocity": 79}, {"time": 130079, "pitch": 73, "duration": 241, "velocity": 79}, {"time": 130079, "pitch": 76, "duration": 241, "velocity": 79}, {"time": 130320, "pitch": 68, "duration": 241, "velocity": 100}, {"time": 130320, "pitch": 73, "duration": 241, "velocity": 100}, {"time": 130320, "pitch": 76, "duration": 241, "velocity": 100}, {"time": 130561, "pitch": 68, "duration": 30, "velocity": 88}, {"time": 130561, "pitch": 73, "duration": 30, "velocity": 88}, {"time": 130802, "pitch": 66, "duration": 478, "velocity": 100}, {"time": 130802, "pitch": 70, "duration": 478, "velocity": 100}, {"time": 130802, "pitch": 73, "duration": 478, "velocity": 100}, {"time": 131280, "pitch": 66, "duration": 236, "velocity": 90}, {"time": 131280, "pitch": 70, "duration": 236, "velocity": 90}, {"time": 131280, "pitch": 73, "duration": 236, "velocity": 90}, {"time": 131516, "pitch": 66, "duration": 241, "velocity": 88}, {"time": 131516, "pitch": 70, "duration": 241, "velocity": 88}, {"time": 131516, "pitch": 73, "duration": 241, "velocity": 88}, {"time": 131757, "pitch": 66, "duration": 483, "velocity": 100}, {"time": 131757, "pitch": 70, "duration": 483, "velocity": 100}, {"time": 131757, "pitch": 73, "duration": 483, "velocity": 100}, {"time": 132240, "pitch": 66, "duration": 241, "velocity": 85}, {"time": 132240, "pitch": 70, "duration": 241, "velocity": 85}, {"time": 132240, "pitch": 73, "duration": 241, "velocity": 85}, {"time": 132481, "pitch": 66, "duration": 241, "velocity": 100}, {"time": 132481, "pitch": 70, "duration": 241, "velocity": 100}, {"time": 132481, "pitch": 73, "duration": 241, "velocity": 100}, {"time": 132722, "pitch": 66, "duration": 30, "velocity": 88}, {"time": 132722, "pitch": 70, "duration": 30, "velocity": 88}, {"time": 132963, "pitch": 66, "duration": 473, "velocity": 100}, {"time": 132963, "pitch": 69, "duration": 473, "velocity": 100}, {"time": 132963, "pitch": 73, "duration": 473, "velocity": 100}, {"time": 133436, "pitch": 66, "duration": 482, "velocity": 100}, {"time": 133436, "pitch": 69, "duration": 482, "velocity": 100}, {"time": 133436, "pitch": 73, "duration": 482, "velocity": 100}, {"time": 133918, "pitch": 66, "duration": 241, "velocity": 82}, {"time": 133918, "pitch": 69, "duration": 241, "velocity": 82}, {"time": 133918, "pitch": 73, "duration": 241, "velocity": 82}, {"time": 134159, "pitch": 66, "duration": 242, "velocity": 100}, {"time": 134159, "pitch": 69, "duration": 242, "velocity": 100}, {"time": 134159, "pitch": 73, "duration": 242, "velocity": 100}, {"time": 134401, "pitch": 66, "duration": 30, "velocity": 88}, {"time": 134401, "pitch": 69, "duration": 30, "velocity": 88}, {"time": 134642, "pitch": 66, "duration": 477, "velocity": 100}, {"time": 134642, "pitch": 71, "duration": 477, "velocity": 100}, {"time": 135119, "pitch": 66, "duration": 236, "velocity": 83}, {"time": 135119, "pitch": 71, "duration": 236, "velocity": 83}, {"time": 135355, "pitch": 66, "duration": 242, "velocity": 82}, {"time": 135355, "pitch": 71, "duration": 242, "velocity": 82}, {"time": 135597, "pitch": 66, "duration": 482, "velocity": 92}, {"time": 135597, "pitch": 71, "duration": 482, "velocity": 92}, {"time": 136079, "pitch": 66, "duration": 241, "velocity": 84}, {"time": 136079, "pitch": 71, "duration": 241, "velocity": 84}, {"time": 136320, "pitch": 66, "duration": 242, "velocity": 100}, {"time": 136320, "pitch": 71, "duration": 242, "velocity": 100}, {"time": 136562, "pitch": 66, "duration": 30, "velocity": 88}, {"time": 136562, "pitch": 71, "duration": 30, "velocity": 88}, {"time": 136803, "pitch": 66, "duration": 472, "velocity": 100}, {"time": 136803, "pitch": 69, "duration": 472, "velocity": 100}, {"time": 136803, "pitch": 76, "duration": 472, "velocity": 100}, {"time": 137275, "pitch": 66, "duration": 483, "velocity": 100}, {"time": 137275, "pitch": 69, "duration": 483, "velocity": 100}, {"time": 137275, "pitch": 76, "duration": 483, "velocity": 100}, {"time": 137758, "pitch": 66, "duration": 241, "velocity": 87}, {"time": 137758, "pitch": 69, "duration": 241, "velocity": 87}, {"time": 137758, "pitch": 76, "duration": 241, "velocity": 87}, {"time": 137999, "pitch": 66, "duration": 241, "velocity": 100}, {"time": 137999, "pitch": 69, "duration": 241, "velocity": 100}, {"time": 137999, "pitch": 76, "duration": 241, "velocity": 100}, {"time": 138240, "pitch": 66, "duration": 30, "velocity": 88}, {"time": 138240, "pitch": 69, "duration": 30, "velocity": 88}, {"time": 138481, "pitch": 68, "duration": 483, "velocity": 100}, {"time": 138481, "pitch": 71, "duration": 483, "velocity": 100}, {"time": 138481, "pitch": 76, "duration": 483, "velocity": 100}, {"time": 138964, "pitch": 68, "duration": 241, "velocity": 100}, {"time": 138964, "pitch": 71, "duration": 241, "velocity": 100}, {"time": 138964, "pitch": 76, "duration": 241, "velocity": 100}, {"time": 139205, "pitch": 68, "duration": 236, "velocity": 100}, {"time": 139205, "pitch": 71, "duration": 236, "velocity": 100}, {"time": 139205, "pitch": 76, "duration": 236, "velocity": 100}, {"time": 139441, "pitch": 68, "duration": 236, "velocity": 100}, {"time": 139441, "pitch": 71, "duration": 236, "velocity": 100}, {"time": 139441, "pitch": 76, "duration": 236, "velocity": 100}, {"time": 139677, "pitch": 68, "duration": 242, "velocity": 100}, {"time": 139677, "pitch": 71, "duration": 242, "velocity": 100}, {"time": 139677, "pitch": 76, "duration": 242, "velocity": 100}, {"time": 139919, "pitch": 68, "duration": 241, "velocity": 100}, {"time": 139919, "pitch": 71, "duration": 241, "velocity": 100}, {"time": 139919, "pitch": 76, "duration": 241, "velocity": 100}, {"time": 140160, "pitch": 68, "duration": 241, "velocity": 100}, {"time": 140160, "pitch": 71, "duration": 241, "velocity": 100}, {"time": 140160, "pitch": 76, "duration": 241, "velocity": 100}, {"time": 140401, "pitch": 68, "duration": 241, "velocity": 100}, {"time": 140401, "pitch": 71, "duration": 241, "velocity": 100}, {"time": 140401, "pitch": 76, "duration": 241, "velocity": 100}, {"time": 140642, "pitch": 68, "duration": 242, "velocity": 100}, {"time": 140642, "pitch": 73, "duration": 242, "velocity": 100}, {"time": 141125, "pitch": 68, "duration": 472, "velocity": 100}, {"time": 141125, "pitch": 73, "duration": 472, "velocity": 100}, {"time": 141597, "pitch": 68, "duration": 241, "velocity": 100}, {"time": 141597, "pitch": 73, "duration": 241, "velocity": 100}, {"time": 141838, "pitch": 68, "duration": 242, "velocity": 100}, {"time": 141838, "pitch": 73, "duration": 242, "velocity": 100}, {"time": 142321, "pitch": 68, "duration": 482, "velocity": 100}, {"time": 142321, "pitch": 73, "duration": 482, "velocity": 100}, {"time": 142803, "pitch": 70, "duration": 241, "velocity": 100}, {"time": 142803, "pitch": 75, "duration": 241, "velocity": 100}, {"time": 143044, "pitch": 70, "duration": 237, "velocity": 100}, {"time": 143044, "pitch": 75, "duration": 237, "velocity": 100}, {"time": 143281, "pitch": 70, "duration": 236, "velocity": 100}, {"time": 143281, "pitch": 75, "duration": 236, "velocity": 100}, {"time": 143517, "pitch": 70, "duration": 241, "velocity": 100}, {"time": 143517, "pitch": 75, "duration": 241, "velocity": 100}, {"time": 143758, "pitch": 68, "duration": 241, "velocity": 100}, {"time": 143758, "pitch": 73, "duration": 241, "velocity": 100}, {"time": 143999, "pitch": 68, "duration": 242, "velocity": 100}, {"time": 143999, "pitch": 73, "duration": 242, "velocity": 100}, {"time": 144241, "pitch": 68, "duration": 30, "velocity": 100}, {"time": 144241, "pitch": 73, "duration": 30, "velocity": 100}, {"time": 144482, "pitch": 68, "duration": 241, "velocity": 100}, {"time": 144482, "pitch": 73, "duration": 241, "velocity": 100}, {"time": 144964, "pitch": 68, "duration": 473, "velocity": 100}, {"time": 144964, "pitch": 73, "duration": 473, "velocity": 100}, {"time": 145437, "pitch": 68, "duration": 241, "velocity": 100}, {"time": 145437, "pitch": 73, "duration": 241, "velocity": 100}, {"time": 145678, "pitch": 68, "duration": 241, "velocity": 100}, {"time": 145678, "pitch": 73, "duration": 241, "velocity": 100}, {"time": 146160, "pitch": 68, "duration": 483, "velocity": 100}, {"time": 146160, "pitch": 73, "duration": 483, "velocity": 100}, {"time": 146643, "pitch": 70, "duration": 241, "velocity": 100}, {"time": 146643, "pitch": 75, "duration": 241, "velocity": 100}, {"time": 146884, "pitch": 70, "duration": 236, "velocity": 100}, {"time": 146884, "pitch": 75, "duration": 236, "velocity": 100}, {"time": 147120, "pitch": 70, "duration": 236, "velocity": 100}, {"time": 147120, "pitch": 75, "duration": 236, "velocity": 100}, {"time": 147356, "pitch": 70, "duration": 242, "velocity": 100}, {"time": 147356, "pitch": 75, "duration": 242, "velocity": 100}, {"time": 147598, "pitch": 68, "duration": 241, "velocity": 100}, {"time": 147598, "pitch": 73, "duration": 241, "velocity": 100}, {"time": 147839, "pitch": 68, "duration": 241, "velocity": 100}, {"time": 147839, "pitch": 73, "duration": 241, "velocity": 100}, {"time": 148080, "pitch": 68, "duration": 30, "velocity": 100}, {"time": 148080, "pitch": 73, "duration": 30, "velocity": 100}, {"time": 148321, "pitch": 68, "duration": 242, "velocity": 100}, {"time": 148321, "pitch": 73, "duration": 242, "velocity": 100}, {"time": 148804, "pitch": 68, "duration": 472, "velocity": 100}, {"time": 148804, "pitch": 73, "duration": 472, "velocity": 100}, {"time": 149276, "pitch": 68, "duration": 241, "velocity": 100}, {"time": 149276, "pitch": 73, "duration": 241, "velocity": 100}, {"time": 149517, "pitch": 68, "duration": 242, "velocity": 100}, {"time": 149517, "pitch": 73, "duration": 242, "velocity": 100}, {"time": 150000, "pitch": 68, "duration": 482, "velocity": 100}, {"time": 150000, "pitch": 73, "duration": 482, "velocity": 100}, {"time": 150482, "pitch": 70, "duration": 241, "velocity": 100}, {"time": 150482, "pitch": 75, "duration": 241, "velocity": 100}, {"time": 150723, "pitch": 70, "duration": 237, "velocity": 100}, {"time": 150723, "pitch": 75, "duration": 237, "velocity": 100}, {"time": 150960, "pitch": 70, "duration": 236, "velocity": 100}, {"time": 150960, "pitch": 75, "duration": 236, "velocity": 100}, {"time": 151196, "pitch": 70, "duration": 241, "velocity": 100}, {"time": 151196, "pitch": 75, "duration": 241, "velocity": 100}, {"time": 151437, "pitch": 68, "duration": 241, "velocity": 100}, {"time": 151437, "pitch": 73, "duration": 241, "velocity": 100}, {"time": 151678, "pitch": 68, "duration": 242, "velocity": 100}, {"time": 151678, "pitch": 73, "duration": 242, "velocity": 100}, {"time": 151920, "pitch": 68, "duration": 30, "velocity": 100}, {"time": 151920, "pitch": 73, "duration": 30, "velocity": 100}, {"time": 152161, "pitch": 71, "duration": 482, "velocity": 100}, {"time": 152161, "pitch": 76, "duration": 482, "velocity": 100}, {"time": 152643, "pitch": 71, "duration": 473, "velocity": 100}, {"time": 152643, "pitch": 76, "duration": 473, "velocity": 100}, {"time": 153116, "pitch": 71, "duration": 241, "velocity": 87}, {"time": 153116, "pitch": 76, "duration": 241, "velocity": 87}, {"time": 153357, "pitch": 71, "duration": 241, "velocity": 100}, {"time": 153357, "pitch": 76, "duration": 241, "velocity": 100}, {"time": 153598, "pitch": 71, "duration": 241, "velocity": 100}, {"time": 153598, "pitch": 76, "duration": 241, "velocity": 100}, {"time": 153839, "pitch": 71, "duration": 483, "velocity": 100}, {"time": 153839, "pitch": 75, "duration": 483, "velocity": 100}, {"time": 154322, "pitch": 71, "duration": 241, "velocity": 100}, {"time": 154322, "pitch": 75, "duration": 241, "velocity": 100}, {"time": 154563, "pitch": 71, "duration": 236, "velocity": 100}, {"time": 154563, "pitch": 76, "duration": 236, "velocity": 100}, {"time": 154799, "pitch": 71, "duration": 478, "velocity": 100}, {"time": 154799, "pitch": 75, "duration": 478, "velocity": 100}, {"time": 155277, "pitch": 71, "duration": 241, "velocity": 100}, {"time": 155277, "pitch": 75, "duration": 241, "velocity": 100}, {"time": 155518, "pitch": 71, "duration": 241, "velocity": 100}, {"time": 155518, "pitch": 75, "duration": 241, "velocity": 100}, {"time": 155759, "pitch": 71, "duration": 30, "velocity": 100}, {"time": 155759, "pitch": 75, "duration": 30, "velocity": 100}, {"time": 156000, "pitch": 68, "duration": 483, "velocity": 100}, {"time": 156000, "pitch": 71, "duration": 483, "velocity": 100}, {"time": 156000, "pitch": 76, "duration": 483, "velocity": 100}, {"time": 156483, "pitch": 68, "duration": 472, "velocity": 100}, {"time": 156483, "pitch": 71, "duration": 472, "velocity": 100}, {"time": 156483, "pitch": 76, "duration": 472, "velocity": 100}, {"time": 156955, "pitch": 68, "duration": 241, "velocity": 86}, {"time": 156955, "pitch": 71, "duration": 241, "velocity": 86}, {"time": 156955, "pitch": 76, "duration": 241, "velocity": 86}, {"time": 157196, "pitch": 68, "duration": 242, "velocity": 100}, {"time": 157196, "pitch": 71, "duration": 242, "velocity": 100}, {"time": 157196, "pitch": 76, "duration": 242, "velocity": 100}, {"time": 157438, "pitch": 68, "duration": 30, "velocity": 88}, {"time": 157438, "pitch": 71, "duration": 30, "velocity": 88}, {"time": 157679, "pitch": 66, "duration": 482, "velocity": 100}, {"time": 157679, "pitch": 71, "duration": 482, "velocity": 100}, {"time": 157679, "pitch": 75, "duration": 482, "velocity": 100}, {"time": 158161, "pitch": 66, "duration": 242, "velocity": 86}, {"time": 158161, "pitch": 71, "duration": 242, "velocity": 86}, {"time": 158161, "pitch": 75, "duration": 242, "velocity": 86}, {"time": 158403, "pitch": 66, "duration": 482, "velocity": 100}, {"time": 158403, "pitch": 71, "duration": 482, "velocity": 100}, {"time": 158403, "pitch": 75, "duration": 482, "velocity": 100}, {"time": 158885, "pitch": 66, "duration": 236, "velocity": 76}, {"time": 158885, "pitch": 71, "duration": 236, "velocity": 76}, {"time": 158885, "pitch": 75, "duration": 236, "velocity": 76}, {"time": 159121, "pitch": 66, "duration": 236, "velocity": 89}, {"time": 159121, "pitch": 71, "duration": 236, "velocity": 89}, {"time": 159121, "pitch": 75, "duration": 236, "velocity": 89}, {"time": 159357, "pitch": 66, "duration": 242, "velocity": 100}, {"time": 159357, "pitch": 71, "duration": 242, "velocity": 100}, {"time": 159357, "pitch": 75, "duration": 242, "velocity": 100}, {"time": 159599, "pitch": 66, "duration": 30, "velocity": 88}, {"time": 159599, "pitch": 71, "duration": 30, "velocity": 88}, {"time": 159840, "pitch": 68, "duration": 482, "velocity": 100}, {"time": 159840, "pitch": 73, "duration": 482, "velocity": 100}, {"time": 159840, "pitch": 76, "duration": 482, "velocity": 100}, {"time": 160322, "pitch": 68, "duration": 483, "velocity": 100}, {"time": 160322, "pitch": 73, "duration": 483, "velocity": 100}, {"time": 160322, "pitch": 76, "duration": 483, "velocity": 100}, {"time": 160805, "pitch": 68, "duration": 236, "velocity": 79}, {"time": 160805, "pitch": 73, "duration": 236, "velocity": 79}, {"time": 160805, "pitch": 76, "duration": 236, "velocity": 79}, {"time": 161041, "pitch": 68, "duration": 236, "velocity": 100}, {"time": 161041, "pitch": 73, "duration": 236, "velocity": 100}, {"time": 161041, "pitch": 76, "duration": 236, "velocity": 100}, {"time": 161277, "pitch": 68, "duration": 30, "velocity": 88}, {"time": 161277, "pitch": 73, "duration": 30, "velocity": 88}, {"time": 161518, "pitch": 66, "duration": 483, "velocity": 100}, {"time": 161518, "pitch": 70, "duration": 483, "velocity": 100}, {"time": 161518, "pitch": 73, "duration": 483, "velocity": 100}, {"time": 162001, "pitch": 66, "duration": 241, "velocity": 90}, {"time": 162001, "pitch": 70, "duration": 241, "velocity": 90}, {"time": 162001, "pitch": 73, "duration": 241, "velocity": 90}, {"time": 162242, "pitch": 66, "duration": 241, "velocity": 88}, {"time": 162242, "pitch": 70, "duration": 241, "velocity": 88}, {"time": 162242, "pitch": 73, "duration": 241, "velocity": 88}, {"time": 162483, "pitch": 66, "duration": 478, "velocity": 100}, {"time": 162483, "pitch": 70, "duration": 478, "velocity": 100}, {"time": 162483, "pitch": 73, "duration": 478, "velocity": 100}, {"time": 162961, "pitch": 66, "duration": 236, "velocity": 85}, {"time": 162961, "pitch": 70, "duration": 236, "velocity": 85}, {"time": 162961, "pitch": 73, "duration": 236, "velocity": 85}, {"time": 163197, "pitch": 66, "duration": 241, "velocity": 100}, {"time": 163197, "pitch": 70, "duration": 241, "velocity": 100}, {"time": 163197, "pitch": 73, "duration": 241, "velocity": 100}, {"time": 163438, "pitch": 66, "duration": 30, "velocity": 88}, {"time": 163438, "pitch": 70, "duration": 30, "velocity": 88}, {"time": 163679, "pitch": 66, "duration": 483, "velocity": 100}, {"time": 163679, "pitch": 69, "duration": 483, "velocity": 100}, {"time": 163679, "pitch": 73, "duration": 483, "velocity": 100}, {"time": 164162, "pitch": 66, "duration": 482, "velocity": 100}, {"time": 164162, "pitch": 69, "duration": 482, "velocity": 100}, {"time": 164162, "pitch": 73, "duration": 482, "velocity": 100}, {"time": 164644, "pitch": 66, "duration": 236, "velocity": 82}, {"time": 164644, "pitch": 69, "duration": 236, "velocity": 82}, {"time": 164644, "pitch": 73, "duration": 236, "velocity": 82}, {"time": 164880, "pitch": 66, "duration": 237, "velocity": 100}, {"time": 164880, "pitch": 69, "duration": 237, "velocity": 100}, {"time": 164880, "pitch": 73, "duration": 237, "velocity": 100}, {"time": 165117, "pitch": 66, "duration": 30, "velocity": 88}, {"time": 165117, "pitch": 69, "duration": 30, "velocity": 88}, {"time": 165358, "pitch": 68, "duration": 482, "velocity": 100}, {"time": 165358, "pitch": 71, "duration": 482, "velocity": 100}, {"time": 165840, "pitch": 68, "duration": 242, "velocity": 83}, {"time": 165840, "pitch": 71, "duration": 242, "velocity": 83}, {"time": 166082, "pitch": 68, "duration": 241, "velocity": 82}, {"time": 166082, "pitch": 71, "duration": 241, "velocity": 82}, {"time": 166323, "pitch": 68, "duration": 477, "velocity": 92}, {"time": 166323, "pitch": 71, "duration": 477, "velocity": 92}, {"time": 166800, "pitch": 68, "duration": 236, "velocity": 84}, {"time": 166800, "pitch": 71, "duration": 236, "velocity": 84}, {"time": 167036, "pitch": 68, "duration": 242, "velocity": 100}, {"time": 167036, "pitch": 71, "duration": 242, "velocity": 100}, {"time": 167278, "pitch": 68, "duration": 30, "velocity": 88}, {"time": 167278, "pitch": 71, "duration": 30, "velocity": 88}, {"time": 167519, "pitch": 66, "duration": 482, "velocity": 100}, {"time": 167519, "pitch": 71, "duration": 482, "velocity": 100}, {"time": 167519, "pitch": 76, "duration": 482, "velocity": 100}, {"time": 168001, "pitch": 66, "duration": 483, "velocity": 100}, {"time": 168001, "pitch": 71, "duration": 483, "velocity": 100}, {"time": 168001, "pitch": 76, "duration": 483, "velocity": 100}, {"time": 168484, "pitch": 66, "duration": 236, "velocity": 87}, {"time": 168484, "pitch": 71, "duration": 236, "velocity": 87}, {"time": 168484, "pitch": 76, "duration": 236, "velocity": 87}, {"time": 168720, "pitch": 66, "duration": 236, "velocity": 100}, {"time": 168720, "pitch": 71, "duration": 236, "velocity": 100}, {"time": 168720, "pitch": 76, "duration": 236, "velocity": 100}, {"time": 168956, "pitch": 66, "duration": 30, "velocity": 88}, {"time": 168956, "pitch": 71, "duration": 30, "velocity": 88}, {"time": 169197, "pitch": 66, "duration": 483, "velocity": 100}, {"time": 169197, "pitch": 71, "duration": 483, "velocity": 100}, {"time": 169197, "pitch": 75, "duration": 483, "velocity": 100}, {"time": 169680, "pitch": 66, "duration": 241, "velocity": 100}, {"time": 169680, "pitch": 71, "duration": 241, "velocity": 100}, {"time": 169680, "pitch": 75, "duration": 241, "velocity": 100}, {"time": 169921, "pitch": 66, "duration": 241, "velocity": 100}, {"time": 169921, "pitch": 71, "duration": 241, "velocity": 100}, {"time": 169921, "pitch": 75, "duration": 241, "velocity": 100}, {"time": 170162, "pitch": 66, "duration": 242, "velocity": 100}, {"time": 170162, "pitch": 71, "duration": 242, "velocity": 100}, {"time": 170162, "pitch": 75, "duration": 242, "velocity": 100}, {"time": 170404, "pitch": 66, "duration": 236, "velocity": 100}, {"time": 170404, "pitch": 71, "duration": 236, "velocity": 100}, {"time": 170404, "pitch": 75, "duration": 236, "velocity": 100}, {"time": 170640, "pitch": 66, "duration": 236, "velocity": 100}, {"time": 170640, "pitch": 71, "duration": 236, "velocity": 100}, {"time": 170640, "pitch": 75, "duration": 236, "velocity": 100}, {"time": 170876, "pitch": 66, "duration": 241, "velocity": 100}, {"time": 170876, "pitch": 71, "duration": 241, "velocity": 100}, {"time": 170876, "pitch": 75, "duration": 241, "velocity": 100}, {"time": 171117, "pitch": 66, "duration": 241, "velocity": 100}, {"time": 171117, "pitch": 71, "duration": 241, "velocity": 100}, {"time": 171117, "pitch": 75, "duration": 241, "velocity": 100}, {"time": 171358, "pitch": 68, "duration": 483, "velocity": 100}, {"time": 171358, "pitch": 71, "duration": 483, "velocity": 100}, {"time": 171358, "pitch": 76, "duration": 483, "velocity": 100}, {"time": 171841, "pitch": 68, "duration": 482, "velocity": 100}, {"time": 171841, "pitch": 71, "duration": 482, "velocity": 100}, {"time": 171841, "pitch": 76, "duration": 482, "velocity": 100}, {"time": 172323, "pitch": 68, "duration": 236, "velocity": 86}, {"time": 172323, "pitch": 71, "duration": 236, "velocity": 86}, {"time": 172323, "pitch": 76, "duration": 236, "velocity": 86}, {"time": 172559, "pitch": 68, "duration": 237, "velocity": 100}, {"time": 172559, "pitch": 71, "duration": 237, "velocity": 100}, {"time": 172559, "pitch": 76, "duration": 237, "velocity": 100}, {"time": 172796, "pitch": 68, "duration": 30, "velocity": 88}, {"time": 172796, "pitch": 71, "duration": 30, "velocity": 88}, {"time": 173037, "pitch": 66, "duration": 482, "velocity": 100}, {"time": 173037, "pitch": 71, "duration": 482, "velocity": 100}, {"time": 173037, "pitch": 75, "duration": 482, "velocity": 100}, {"time": 173519, "pitch": 66, "duration": 242, "velocity": 86}, {"time": 173519, "pitch": 71, "duration": 242, "velocity": 86}, {"time": 173519, "pitch": 75, "duration": 242, "velocity": 86}, {"time": 173761, "pitch": 66, "duration": 482, "velocity": 100}, {"time": 173761, "pitch": 71, "duration": 482, "velocity": 100}, {"time": 173761, "pitch": 75, "duration": 482, "velocity": 100}, {"time": 174243, "pitch": 66, "duration": 236, "velocity": 76}, {"time": 174243, "pitch": 71, "duration": 236, "velocity": 76}, {"time": 174243, "pitch": 75, "duration": 236, "velocity": 76}, {"time": 174479, "pitch": 66, "duration": 236, "velocity": 89}, {"time": 174479, "pitch": 71, "duration": 236, "velocity": 89}, {"time": 174479, "pitch": 75, "duration": 236, "velocity": 89}, {"time": 174715, "pitch": 66, "duration": 242, "velocity": 100}, {"time": 174715, "pitch": 71, "duration": 242, "velocity": 100}, {"time": 174715, "pitch": 75, "duration": 242, "velocity": 100}, {"time": 174957, "pitch": 66, "duration": 30, "velocity": 88}, {"time": 174957, "pitch": 71, "duration": 30, "velocity": 88}, {"time": 175198, "pitch": 68, "duration": 482, "velocity": 100}, {"time": 175198, "pitch": 73, "duration": 482, "velocity": 100}, {"time": 175198, "pitch": 76, "duration": 482, "velocity": 100}, {"time": 175680, "pitch": 68, "duration": 483, "velocity": 100}, {"time": 175680, "pitch": 73, "duration": 483, "velocity": 100}, {"time": 175680, "pitch": 76, "duration": 483, "velocity": 100}, {"time": 176163, "pitch": 68, "duration": 236, "velocity": 79}, {"time": 176163, "pitch": 73, "duration": 236, "velocity": 79}, {"time": 176163, "pitch": 76, "duration": 236, "velocity": 79}, {"time": 176399, "pitch": 68, "duration": 236, "velocity": 100}, {"time": 176399, "pitch": 73, "duration": 236, "velocity": 100}, {"time": 176399, "pitch": 76, "duration": 236, "velocity": 100}, {"time": 176635, "pitch": 68, "duration": 30, "velocity": 88}, {"time": 176635, "pitch": 73, "duration": 30, "velocity": 88}, {"time": 176876, "pitch": 66, "duration": 483, "velocity": 100}, {"time": 176876, "pitch": 70, "duration": 483, "velocity": 100}, {"time": 176876, "pitch": 73, "duration": 483, "velocity": 100}, {"time": 177359, "pitch": 66, "duration": 241, "velocity": 90}, {"time": 177359, "pitch": 70, "duration": 241, "velocity": 90}, {"time": 177359, "pitch": 73, "duration": 241, "velocity": 90}, {"time": 177600, "pitch": 66, "duration": 241, "velocity": 88}, {"time": 177600, "pitch": 70, "duration": 241, "velocity": 88}, {"time": 177600, "pitch": 73, "duration": 241, "velocity": 88}, {"time": 177841, "pitch": 66, "duration": 478, "velocity": 100}, {"time": 177841, "pitch": 70, "duration": 478, "velocity": 100}, {"time": 177841, "pitch": 73, "duration": 478, "velocity": 100}, {"time": 178319, "pitch": 66, "duration": 236, "velocity": 85}, {"time": 178319, "pitch": 70, "duration": 236, "velocity": 85}, {"time": 178319, "pitch": 73, "duration": 236, "velocity": 85}, {"time": 178555, "pitch": 66, "duration": 241, "velocity": 100}, {"time": 178555, "pitch": 70, "duration": 241, "velocity": 100}, {"time": 178555, "pitch": 73, "duration": 241, "velocity": 100}, {"time": 178796, "pitch": 66, "duration": 30, "velocity": 88}, {"time": 178796, "pitch": 70, "duration": 30, "velocity": 88}, {"time": 179037, "pitch": 66, "duration": 483, "velocity": 100}, {"time": 179037, "pitch": 69, "duration": 483, "velocity": 100}, {"time": 179037, "pitch": 73, "duration": 483, "velocity": 100}, {"time": 179520, "pitch": 66, "duration": 482, "velocity": 100}, {"time": 179520, "pitch": 69, "duration": 482, "velocity": 100}, {"time": 179520, "pitch": 73, "duration": 482, "velocity": 100}, {"time": 180002, "pitch": 66, "duration": 242, "velocity": 82}, {"time": 180002, "pitch": 69, "duration": 242, "velocity": 82}, {"time": 180002, "pitch": 73, "duration": 242, "velocity": 82}, {"time": 180244, "pitch": 66, "duration": 241, "velocity": 100}, {"time": 180244, "pitch": 69, "duration": 241, "velocity": 100}, {"time": 180244, "pitch": 73, "duration": 241, "velocity": 100}, {"time": 180485, "pitch": 66, "duration": 29, "velocity": 88}, {"time": 180485, "pitch": 69, "duration": 29, "velocity": 88}, {"time": 180721, "pitch": 66, "duration": 477, "velocity": 100}, {"time": 180721, "pitch": 71, "duration": 477, "velocity": 100}, {"time": 181198, "pitch": 66, "duration": 242, "velocity": 83}, {"time": 181198, "pitch": 71, "duration": 242, "velocity": 83}, {"time": 181440, "pitch": 66, "duration": 241, "velocity": 82}, {"time": 181440, "pitch": 71, "duration": 241, "velocity": 82}, {"time": 181681, "pitch": 66, "duration": 482, "velocity": 92}, {"time": 181681, "pitch": 71, "duration": 482, "velocity": 92}, {"time": 182163, "pitch": 66, "duration": 242, "velocity": 84}, {"time": 182163, "pitch": 71, "duration": 242, "velocity": 84}, {"time": 182405, "pitch": 66, "duration": 236, "velocity": 100}, {"time": 182405, "pitch": 71, "duration": 236, "velocity": 100}, {"time": 182641, "pitch": 66, "duration": 29, "velocity": 88}, {"time": 182641, "pitch": 71, "duration": 29, "velocity": 88}, {"time": 182877, "pitch": 66, "duration": 482, "velocity": 100}, {"time": 182877, "pitch": 69, "duration": 482, "velocity": 100}, {"time": 182877, "pitch": 76, "duration": 482, "velocity": 100}, {"time": 183359, "pitch": 66, "duration": 483, "velocity": 100}, {"time": 183359, "pitch": 69, "duration": 483, "velocity": 100}, {"time": 183359, "pitch": 76, "duration": 483, "velocity": 100}, {"time": 183842, "pitch": 66, "duration": 241, "velocity": 87}, {"time": 183842, "pitch": 69, "duration": 241, "velocity": 87}, {"time": 183842, "pitch": 76, "duration": 241, "velocity": 87}, {"time": 184083, "pitch": 66, "duration": 241, "velocity": 100}, {"time": 184083, "pitch": 69, "duration": 241, "velocity": 100}, {"time": 184083, "pitch": 76, "duration": 241, "velocity": 100}, {"time": 184324, "pitch": 66, "duration": 30, "velocity": 88}, {"time": 184324, "pitch": 69, "duration": 30, "velocity": 88}, {"time": 184560, "pitch": 68, "duration": 4076, "velocity": 100}, {"time": 184560, "pitch": 71, "duration": 4076, "velocity": 100}, {"time": 184560, "pitch": 76, "duration": 4076, "velocity": 100}], "annotations": [{"time": 300, "annotation": {"number": 7, "value": 95}, "group": "control_change"}, {"time": 320, "annotation": {"number": 11, "value": 100}, "group": "control_change"}, {"time": 340, "annotation": {"number": 10, "value": 120}, "group": "control_change"}, {"time": 360, "annotation": {"number": 91, "value": 40}, "group": "control_change"}, {"time": 380, "annotation": {"number": 93, "value": 0}, "group": "control_change"}, {"time": 400, "annotation": {"number": 101, "value": 0}, "group": "control_change"}, {"time": 420, "annotation": {"number": 100, "value": 0}, "group": "control_change"}, {"time": 440, "annotation": {"number": 6, "value": 12}, "group": "control_change"}, {"time": 460, "annotation": {"number": 101, "value": 127}, "group": "control_change"}, {"time": 480, "annotation": {"number": 100, "value": 127}, "group": "control_change"}]}, {"program": 0, "is_drum": false, "name": "G. SOLO SUB", "annotations": [{"time": 200, "annotation": {"number": 0, "value": 0}, "group": "control_change"}, {"time": 220, "annotation": {"number": 32, "value": 2}, "group": "control_change"}]}, {"program": 30, "is_drum": false, "name": "G. SOLO SUB", "notes": [{"time": 142321, "pitch": 73, "duration": 960, "velocity": 110}], "annotations": [{"time": 300, "annotation": {"number": 7, "value": 80}, "group": "control_change"}, {"time": 320, "annotation": {"number": 11, "value": 100}, "group": "control_change"}, {"time": 340, "annotation": {"number": 10, "value": 64}, "group": "control_change"}, {"time": 360, "annotation": {"number": 91, "value": 40}, "group": "control_change"}, {"time": 380, "annotation": {"number": 93, "value": 0}, "group": "control_change"}, {"time": 400, "annotation": {"number": 101, "value": 0}, "group": "control_change"}, {"time": 420, "annotation": {"number": 100, "value": 0}, "group": "control_change"}, {"time": 440, "annotation": {"number": 6, "value": 12}, "group": "control_change"}, {"time": 460, "annotation": {"number": 101, "value": 127}, "group": "control_change"}, {"time": 480, "annotation": {"number": 100, "value": 127}, "group": "control_change"}]}, {"program": 0, "is_drum": false, "name": "G. SOLO", "annotations": [{"time": 200, "annotation": {"number": 0, "value": 0}, "group": "control_change"}, {"time": 220, "annotation": {"number": 32, "value": 2}, "group": "control_change"}]}, {"program": 30, "is_drum": false, "name": "G. SOLO", "notes": [{"time": 140884, "pitch": 68, "duration": 120, "velocity": 110}, {"time": 141125, "pitch": 78, "duration": 472, "velocity": 110}, {"time": 141597, "pitch": 76, "duration": 483, "velocity": 110}, {"time": 142080, "pitch": 73, "duration": 120, "velocity": 110}, {"time": 142321, "pitch": 73, "duration": 960, "velocity": 110}, {"time": 143281, "pitch": 71, "duration": 118, "velocity": 110}, {"time": 143517, "pitch": 68, "duration": 120, "velocity": 110}, {"time": 143758, "pitch": 66, "duration": 121, "velocity": 110}, {"time": 143999, "pitch": 64, "duration": 242, "velocity": 110}, {"time": 144241, "pitch": 61, "duration": 241, "velocity": 110}, {"time": 144482, "pitch": 61, "duration": 241, "velocity": 110}, {"time": 144723, "pitch": 64, "duration": 241, "velocity": 110}, {"time": 144723, "pitch": 68, "duration": 241, "velocity": 110}, {"time": 144964, "pitch": 61, "duration": 59, "velocity": 110}, {"time": 145082, "pitch": 66, "duration": 237, "velocity": 110}, {"time": 145082, "pitch": 70, "duration": 237, "velocity": 110}, {"time": 145319, "pitch": 61, "duration": 59, "velocity": 110}, {"time": 145437, "pitch": 64, "duration": 241, "velocity": 110}, {"time": 145678, "pitch": 61, "duration": 241, "velocity": 110}, {"time": 145919, "pitch": 56, "duration": 241, "velocity": 110}, {"time": 146160, "pitch": 61, "duration": 242, "velocity": 110}, {"time": 146402, "pitch": 64, "duration": 241, "velocity": 110}, {"time": 146643, "pitch": 68, "duration": 241, "velocity": 110}, {"time": 146884, "pitch": 71, "duration": 236, "velocity": 110}, {"time": 147120, "pitch": 73, "duration": 236, "velocity": 110}, {"time": 147356, "pitch": 76, "duration": 362, "velocity": 110}, {"time": 147598, "pitch": 73, "duration": 181, "velocity": 110}, {"time": 147718, "pitch": 76, "duration": 362, "velocity": 110}, {"time": 147959, "pitch": 73, "duration": 181, "velocity": 110}, {"time": 148080, "pitch": 76, "duration": 241, "velocity": 110}, {"time": 148321, "pitch": 80, "duration": 483, "velocity": 110}, {"time": 148804, "pitch": 78, "duration": 236, "velocity": 110}, {"time": 149040, "pitch": 76, "duration": 236, "velocity": 110}, {"time": 149276, "pitch": 75, "duration": 121, "velocity": 110}, {"time": 149397, "pitch": 67, "duration": 120, "velocity": 110}, {"time": 149517, "pitch": 68, "duration": 121, "velocity": 110}, {"time": 149638, "pitch": 75, "duration": 121, "velocity": 110}, {"time": 149759, "pitch": 74, "duration": 120, "velocity": 110}, {"time": 149879, "pitch": 66, "duration": 121, "velocity": 110}, {"time": 150000, "pitch": 67, "duration": 120, "velocity": 110}, {"time": 150120, "pitch": 74, "duration": 121, "velocity": 110}, {"time": 150241, "pitch": 73, "duration": 121, "velocity": 110}, {"time": 150362, "pitch": 71, "duration": 120, "velocity": 110}, {"time": 150482, "pitch": 68, "duration": 121, "velocity": 110}, {"time": 150603, "pitch": 69, "duration": 120, "velocity": 110}, {"time": 150723, "pitch": 70, "duration": 119, "velocity": 110}, {"time": 150842, "pitch": 69, "duration": 118, "velocity": 110}, {"time": 150960, "pitch": 68, "duration": 118, "velocity": 110}, {"time": 151078, "pitch": 67, "duration": 118, "velocity": 110}, {"time": 151196, "pitch": 73, "duration": 120, "velocity": 110}, {"time": 151316, "pitch": 70, "duration": 121, "velocity": 110}, {"time": 151437, "pitch": 73, "duration": 241, "velocity": 110}, {"time": 151678, "pitch": 70, "duration": 121, "velocity": 110}, {"time": 151799, "pitch": 68, "duration": 121, "velocity": 110}, {"time": 151920, "pitch": 66, "duration": 241, "velocity": 110}, {"time": 152402, "pitch": 75, "duration": 714, "velocity": 110}, {"time": 152879, "pitch": 78, "duration": 237, "velocity": 110}, {"time": 153116, "pitch": 73, "duration": 482, "velocity": 110}, {"time": 153598, "pitch": 71, "duration": 241, "velocity": 110}, {"time": 153839, "pitch": 80, "duration": 724, "velocity": 110}, {"time": 154322, "pitch": 83, "duration": 477, "velocity": 110}, {"time": 154563, "pitch": 80, "duration": 236, "velocity": 110}, {"time": 154799, "pitch": 78, "duration": 1201, "velocity": 110}], "annotations": [{"time": 300, "annotation": {"number": 7, "value": 120}, "group": "control_change"}, {"time": 320, "annotation": {"number": 11, "value": 110}, "group": "control_change"}, {"time": 340, "annotation": {"number": 10, "value": 64}, "group": "control_change"}, {"time": 360, "annotation": {"number": 91, "value": 40}, "group": "control_change"}, {"time": 380, "annotation": {"number": 93, "value": 0}, "group": "control_change"}, {"time": 400, "annotation": {"number": 101, "value": 0}, "group": "control_change"}, {"time": 420, "annotation": {"number": 100, "value": 0}, "group": "control_change"}, {"time": 440, "annotation": {"number": 6, "value": 12}, "group": "control_change"}, {"time": 460, "annotation": {"number": 101, "value": 127}, "group": "control_change"}, {"time": 480, "annotation": {"number": 100, "value": 127}, "group": "control_change"}]}, {"program": 0, "is_drum": true, "name": "DRUMS", "notes": [{"time": 480, "pitch": 37, "duration": 10, "velocity": 80}, {"time": 962, "pitch": 37, "duration": 10, "velocity": 80}, {"time": 1445, "pitch": 37, "duration": 9, "velocity": 80}, {"time": 1917, "pitch": 37, "duration": 10, "velocity": 80}, {"time": 2400, "pitch": 36, "duration": 120, "velocity": 96}, {"time": 2400, "pitch": 46, "duration": 120, "velocity": 72}, {"time": 2641, "pitch": 42, "duration": 120, "velocity": 79}, {"time": 2882, "pitch": 36, "duration": 121, "velocity": 96}, {"time": 2882, "pitch": 46, "duration": 121, "velocity": 72}, {"time": 3123, "pitch": 42, "duration": 121, "velocity": 79}, {"time": 3364, "pitch": 36, "duration": 119, "velocity": 96}, {"time": 3364, "pitch": 46, "duration": 119, "velocity": 72}, {"time": 3601, "pitch": 40, "duration": 118, "velocity": 96}, {"time": 3837, "pitch": 40, "duration": 120, "velocity": 96}, {"time": 4078, "pitch": 36, "duration": 121, "velocity": 96}, {"time": 4078, "pitch": 46, "duration": 121, "velocity": 72}, {"time": 4561, "pitch": 42, "duration": 120, "velocity": 79}, {"time": 4802, "pitch": 36, "duration": 120, "velocity": 96}, {"time": 4802, "pitch": 46, "duration": 120, "velocity": 72}, {"time": 5043, "pitch": 42, "duration": 121, "velocity": 79}, {"time": 5284, "pitch": 36, "duration": 118, "velocity": 96}, {"time": 5284, "pitch": 46, "duration": 118, "velocity": 72}, {"time": 5520, "pitch": 40, "duration": 118, "velocity": 96}, {"time": 5757, "pitch": 40, "duration": 120, "velocity": 96}, {"time": 5998, "pitch": 36, "duration": 120, "velocity": 96}, {"time": 5998, "pitch": 46, "duration": 120, "velocity": 72}, {"time": 6480, "pitch": 42, "duration": 121, "velocity": 79}, {"time": 6722, "pitch": 36, "duration": 120, "velocity": 96}, {"time": 6722, "pitch": 46, "duration": 120, "velocity": 72}, {"time": 6963, "pitch": 42, "duration": 120, "velocity": 79}, {"time": 7204, "pitch": 36, "duration": 118, "velocity": 96}, {"time": 7204, "pitch": 46, "duration": 118, "velocity": 72}, {"time": 7440, "pitch": 42, "duration": 118, "velocity": 79}, {"time": 7676, "pitch": 36, "duration": 121, "velocity": 96}, {"time": 7676, "pitch": 46, "duration": 121, "velocity": 72}, {"time": 7918, "pitch": 42, "duration": 120, "velocity": 79}, {"time": 8159, "pitch": 36, "duration": 120, "velocity": 96}, {"time": 8159, "pitch": 41, "duration": 120, "velocity": 60}, {"time": 8159, "pitch": 45, "duration": 120, "velocity": 60}, {"time": 8400, "pitch": 36, "duration": 121, "velocity": 96}, {"time": 8400, "pitch": 41, "duration": 121, "velocity": 66}, {"time": 8400, "pitch": 45, "duration": 121, "velocity": 66}, {"time": 8641, "pitch": 36, "duration": 121, "velocity": 96}, {"time": 8641, "pitch": 41, "duration": 121, "velocity": 72}, {"time": 8641, "pitch": 45, "duration": 121, "velocity": 72}, {"time": 8883, "pitch": 36, "duration": 120, "velocity": 96}, {"time": 8883, "pitch": 41, "duration": 120, "velocity": 78}, {"time": 8883, "pitch": 45, "duration": 120, "velocity": 78}, {"time": 9124, "pitch": 36, "duration": 118, "velocity": 96}, {"time": 9124, "pitch": 41, "duration": 118, "velocity": 84}, {"time": 9124, "pitch": 45, "duration": 118, "velocity": 84}, {"time": 9360, "pitch": 40, "duration": 118, "velocity": 96}, {"time": 9596, "pitch": 40, "duration": 121, "velocity": 96}, {"time": 9717, "pitch": 40, "duration": 120, "velocity": 96}, {"time": 9837, "pitch": 43, "duration": 121, "velocity": 114}, {"time": 10079, "pitch": 36, "duration": 120, "velocity": 96}, {"time": 10079, "pitch": 57, "duration": 120, "velocity": 90}, {"time": 10320, "pitch": 42, "duration": 120, "velocity": 57}, {"time": 10561, "pitch": 40, "duration": 121, "velocity": 96}, {"time": 10561, "pitch": 42, "duration": 121, "velocity": 86}, {"time": 10802, "pitch": 42, "duration": 121, "velocity": 57}, {"time": 11043, "pitch": 36, "duration": 119, "velocity": 96}, {"time": 11043, "pitch": 42, "duration": 119, "velocity": 72}, {"time": 11280, "pitch": 42, "duration": 118, "velocity": 57}, {"time": 11516, "pitch": 40, "duration": 120, "velocity": 96}, {"time": 11516, "pitch": 42, "duration": 120, "velocity": 72}, {"time": 11757, "pitch": 36, "duration": 121, "velocity": 96}, {"time": 11757, "pitch": 57, "duration": 121, "velocity": 90}, {"time": 12240, "pitch": 36, "duration": 120, "velocity": 96}, {"time": 12240, "pitch": 42, "duration": 120, "velocity": 57}, {"time": 12481, "pitch": 40, "duration": 120, "velocity": 96}, {"time": 12481, "pitch": 42, "duration": 120, "velocity": 86}, {"time": 12722, "pitch": 42, "duration": 121, "velocity": 57}, {"time": 12963, "pitch": 36, "duration": 118, "velocity": 96}, {"time": 12963, "pitch": 42, "duration": 118, "velocity": 72}, {"time": 13199, "pitch": 42, "duration": 119, "velocity": 57}, {"time": 13436, "pitch": 40, "duration": 120, "velocity": 96}, {"time": 13436, "pitch": 42, "duration": 120, "velocity": 86}, {"time": 13677, "pitch": 42, "duration": 120, "velocity": 57}, {"time": 13918, "pitch": 36, "duration": 121, "velocity": 96}, {"time": 13918, "pitch": 42, "duration": 121, "velocity": 72}, {"time": 14159, "pitch": 42, "duration": 121, "velocity": 57}, {"time": 14401, "pitch": 40, "duration": 120, "velocity": 96}, {"time": 14401, "pitch": 42, "duration": 120, "velocity": 86}, {"time": 14642, "pitch": 42, "duration": 120, "velocity": 57}, {"time": 14883, "pitch": 36, "duration": 118, "velocity": 96}, {"time": 14883, "pitch": 42, "duration": 118, "velocity": 72}, {"time": 15119, "pitch": 42, "duration": 118, "velocity": 57}, {"time": 15355, "pitch": 40, "duration": 121, "velocity": 96}, {"time": 15355, "pitch": 42, "duration": 121, "velocity": 72}, {"time": 15597, "pitch": 36, "duration": 120, "velocity": 96}, {"time": 15597, "pitch": 57, "duration": 120, "velocity": 90}, {"time": 16079, "pitch": 36, "duration": 121, "velocity": 96}, {"time": 16079, "pitch": 42, "duration": 121, "velocity": 57}, {"time": 16320, "pitch": 40, "duration": 121, "velocity": 96}, {"time": 16320, "pitch": 42, "duration": 121, "velocity": 86}, {"time": 16562, "pitch": 42, "duration": 120, "velocity": 57}, {"time": 16803, "pitch": 36, "duration": 118, "velocity": 96}, {"time": 16803, "pitch": 42, "duration": 118, "velocity": 72}, {"time": 17039, "pitch": 42, "duration": 118, "velocity": 57}, {"time": 17275, "pitch": 40, "duration": 121, "velocity": 96}, {"time": 17275, "pitch": 42, "duration": 121, "velocity": 86}, {"time": 17516, "pitch": 42, "duration": 121, "velocity": 57}, {"time": 17758, "pitch": 36, "duration": 120, "velocity": 96}, {"time": 17758, "pitch": 42, "duration": 120, "velocity": 72}, {"time": 17999, "pitch": 42, "duration": 120, "velocity": 57}, {"time": 18240, "pitch": 40, "duration": 121, "velocity": 96}, {"time": 18240, "pitch": 42, "duration": 121, "velocity": 86}, {"time": 18481, "pitch": 42, "duration": 121, "velocity": 57}, {"time": 18723, "pitch": 36, "duration": 120, "velocity": 96}, {"time": 18723, "pitch": 42, "duration": 120, "velocity": 72}, {"time": 18964, "pitch": 42, "duration": 120, "velocity": 57}, {"time": 19205, "pitch": 40, "duration": 118, "velocity": 96}, {"time": 19205, "pitch": 42, "duration": 118, "velocity": 72}, {"time": 19441, "pitch": 36, "duration": 118, "velocity": 96}, {"time": 19441, "pitch": 57, "duration": 118, "velocity": 90}, {"time": 19919, "pitch": 36, "duration": 120, "velocity": 96}, {"time": 19919, "pitch": 42, "duration": 120, "velocity": 57}, {"time": 20160, "pitch": 40, "duration": 120, "velocity": 96}, {"time": 20160, "pitch": 42, "duration": 120, "velocity": 86}, {"time": 20401, "pitch": 42, "duration": 121, "velocity": 57}, {"time": 20642, "pitch": 36, "duration": 121, "velocity": 96}, {"time": 20642, "pitch": 42, "duration": 121, "velocity": 72}, {"time": 20884, "pitch": 42, "duration": 120, "velocity": 57}, {"time": 21125, "pitch": 40, "duration": 118, "velocity": 96}, {"time": 21125, "pitch": 42, "duration": 118, "velocity": 86}, {"time": 21361, "pitch": 42, "duration": 118, "velocity": 57}, {"time": 21597, "pitch": 36, "duration": 121, "velocity": 96}, {"time": 21597, "pitch": 42, "duration": 121, "velocity": 72}, {"time": 21838, "pitch": 42, "duration": 121, "velocity": 57}, {"time": 22080, "pitch": 40, "duration": 120, "velocity": 96}, {"time": 22080, "pitch": 42, "duration": 120, "velocity": 86}, {"time": 22321, "pitch": 42, "duration": 120, "velocity": 57}, {"time": 22562, "pitch": 36, "duration": 121, "velocity": 96}, {"time": 22562, "pitch": 42, "duration": 121, "velocity": 72}, {"time": 22803, "pitch": 42, "duration": 121, "velocity": 57}, {"time": 23044, "pitch": 40, "duration": 119, "velocity": 96}, {"time": 23044, "pitch": 42, "duration": 119, "velocity": 72}, {"time": 23281, "pitch": 36, "duration": 118, "velocity": 96}, {"time": 23281, "pitch": 57, "duration": 118, "velocity": 90}, {"time": 23758, "pitch": 36, "duration": 121, "velocity": 96}, {"time": 23758, "pitch": 42, "duration": 121, "velocity": 57}, {"time": 23999, "pitch": 40, "duration": 121, "velocity": 96}, {"time": 23999, "pitch": 42, "duration": 121, "velocity": 86}, {"time": 24241, "pitch": 42, "duration": 120, "velocity": 57}, {"time": 24482, "pitch": 36, "duration": 120, "velocity": 96}, {"time": 24482, "pitch": 42, "duration": 120, "velocity": 72}, {"time": 24723, "pitch": 40, "duration": 121, "velocity": 96}, {"time": 24723, "pitch": 42, "duration": 121, "velocity": 57}, {"time": 24964, "pitch": 40, "duration": 118, "velocity": 96}, {"time": 24964, "pitch": 42, "duration": 118, "velocity": 86}, {"time": 25082, "pitch": 40, "duration": 118, "velocity": 84}, {"time": 25200, "pitch": 42, "duration": 119, "velocity": 57}, {"time": 25200, "pitch": 43, "duration": 119, "velocity": 96}, {"time": 25437, "pitch": 36, "duration": 120, "velocity": 96}, {"time": 25437, "pitch": 57, "duration": 120, "velocity": 90}, {"time": 25678, "pitch": 42, "duration": 120, "velocity": 57}, {"time": 25919, "pitch": 40, "duration": 121, "velocity": 96}, {"time": 25919, "pitch": 42, "duration": 121, "velocity": 86}, {"time": 26160, "pitch": 42, "duration": 121, "velocity": 57}, {"time": 26402, "pitch": 36, "duration": 120, "velocity": 96}, {"time": 26402, "pitch": 42, "duration": 120, "velocity": 72}, {"time": 26643, "pitch": 42, "duration": 120, "velocity": 57}, {"time": 26884, "pitch": 40, "duration": 118, "velocity": 96}, {"time": 26884, "pitch": 46, "duration": 118, "velocity": 90}, {"time": 27120, "pitch": 36, "duration": 118, "velocity": 96}, {"time": 27120, "pitch": 44, "duration": 118, "velocity": 72}, {"time": 27598, "pitch": 42, "duration": 120, "velocity": 57}, {"time": 27839, "pitch": 40, "duration": 120, "velocity": 96}, {"time": 27839, "pitch": 42, "duration": 120, "velocity": 86}, {"time": 28080, "pitch": 42, "duration": 121, "velocity": 57}, {"time": 28321, "pitch": 36, "duration": 121, "velocity": 96}, {"time": 28321, "pitch": 42, "duration": 121, "velocity": 72}, {"time": 28563, "pitch": 36, "duration": 120, "velocity": 96}, {"time": 28563, "pitch": 42, "duration": 120, "velocity": 57}, {"time": 28804, "pitch": 40, "duration": 118, "velocity": 96}, {"time": 28804, "pitch": 42, "duration": 118, "velocity": 86}, {"time": 29040, "pitch": 42, "duration": 118, "velocity": 57}, {"time": 29276, "pitch": 36, "duration": 121, "velocity": 96}, {"time": 29276, "pitch": 42, "duration": 121, "velocity": 100}, {"time": 29517, "pitch": 42, "duration": 121, "velocity": 57}, {"time": 29759, "pitch": 40, "duration": 120, "velocity": 96}, {"time": 29759, "pitch": 42, "duration": 120, "velocity": 86}, {"time": 30000, "pitch": 42, "duration": 120, "velocity": 57}, {"time": 30241, "pitch": 36, "duration": 121, "velocity": 96}, {"time": 30241, "pitch": 42, "duration": 121, "velocity": 72}, {"time": 30482, "pitch": 42, "duration": 121, "velocity": 57}, {"time": 30723, "pitch": 40, "duration": 119, "velocity": 96}, {"time": 30723, "pitch": 42, "duration": 119, "velocity": 86}, {"time": 30960, "pitch": 36, "duration": 118, "velocity": 96}, {"time": 30960, "pitch": 42, "duration": 118, "velocity": 57}, {"time": 31196, "pitch": 42, "duration": 120, "velocity": 100}, {"time": 31437, "pitch": 42, "duration": 121, "velocity": 57}, {"time": 31678, "pitch": 40, "duration": 121, "velocity": 96}, {"time": 31678, "pitch": 42, "duration": 121, "velocity": 86}, {"time": 31920, "pitch": 42, "duration": 120, "velocity": 57}, {"time": 32161, "pitch": 36, "duration": 120, "velocity": 96}, {"time": 32161, "pitch": 42, "duration": 120, "velocity": 72}, {"time": 32402, "pitch": 36, "duration": 121, "velocity": 96}, {"time": 32402, "pitch": 42, "duration": 121, "velocity": 57}, {"time": 32643, "pitch": 40, "duration": 118, "velocity": 96}, {"time": 32643, "pitch": 42, "duration": 118, "velocity": 86}, {"time": 32879, "pitch": 42, "duration": 119, "velocity": 57}, {"time": 33116, "pitch": 36, "duration": 120, "velocity": 96}, {"time": 33116, "pitch": 57, "duration": 120, "velocity": 90}, {"time": 33357, "pitch": 42, "duration": 120, "velocity": 57}, {"time": 33598, "pitch": 40, "duration": 121, "velocity": 96}, {"time": 33598, "pitch": 42, "duration": 121, "velocity": 86}, {"time": 33839, "pitch": 42, "duration": 121, "velocity": 57}, {"time": 34081, "pitch": 36, "duration": 120, "velocity": 96}, {"time": 34081, "pitch": 42, "duration": 120, "velocity": 72}, {"time": 34322, "pitch": 42, "duration": 120, "velocity": 57}, {"time": 34563, "pitch": 40, "duration": 118, "velocity": 96}, {"time": 34563, "pitch": 46, "duration": 118, "velocity": 90}, {"time": 34799, "pitch": 36, "duration": 118, "velocity": 96}, {"time": 34799, "pitch": 44, "duration": 118, "velocity": 72}, {"time": 35277, "pitch": 42, "duration": 120, "velocity": 57}, {"time": 35518, "pitch": 40, "duration": 120, "velocity": 96}, {"time": 35518, "pitch": 42, "duration": 120, "velocity": 86}, {"time": 35759, "pitch": 42, "duration": 121, "velocity": 57}, {"time": 36000, "pitch": 36, "duration": 121, "velocity": 96}, {"time": 36000, "pitch": 42, "duration": 121, "velocity": 72}, {"time": 36242, "pitch": 36, "duration": 120, "velocity": 96}, {"time": 36242, "pitch": 42, "duration": 120, "velocity": 57}, {"time": 36483, "pitch": 40, "duration": 118, "velocity": 96}, {"time": 36483, "pitch": 42, "duration": 118, "velocity": 86}, {"time": 36719, "pitch": 42, "duration": 118, "velocity": 57}, {"time": 36955, "pitch": 36, "duration": 121, "velocity": 96}, {"time": 36955, "pitch": 57, "duration": 121, "velocity": 90}, {"time": 37196, "pitch": 42, "duration": 121, "velocity": 57}, {"time": 37438, "pitch": 40, "duration": 120, "velocity": 96}, {"time": 37438, "pitch": 42, "duration": 120, "velocity": 86}, {"time": 37679, "pitch": 42, "duration": 120, "velocity": 57}, {"time": 37920, "pitch": 36, "duration": 121, "velocity": 96}, {"time": 37920, "pitch": 42, "duration": 121, "velocity": 72}, {"time": 38161, "pitch": 42, "duration": 121, "velocity": 57}, {"time": 38403, "pitch": 40, "duration": 120, "velocity": 96}, {"time": 38403, "pitch": 42, "duration": 120, "velocity": 86}, {"time": 38644, "pitch": 36, "duration": 120, "velocity": 96}, {"time": 38644, "pitch": 42, "duration": 120, "velocity": 57}, {"time": 38885, "pitch": 42, "duration": 118, "velocity": 100}, {"time": 39121, "pitch": 42, "duration": 118, "velocity": 57}, {"time": 39357, "pitch": 40, "duration": 121, "velocity": 96}, {"time": 39357, "pitch": 42, "duration": 121, "velocity": 86}, {"time": 39599, "pitch": 42, "duration": 120, "velocity": 57}, {"time": 39840, "pitch": 36, "duration": 120, "velocity": 96}, {"time": 39840, "pitch": 42, "duration": 120, "velocity": 72}, {"time": 40081, "pitch": 36, "duration": 121, "velocity": 96}, {"time": 40081, "pitch": 42, "duration": 121, "velocity": 57}, {"time": 40322, "pitch": 40, "duration": 121, "velocity": 96}, {"time": 40322, "pitch": 42, "duration": 121, "velocity": 86}, {"time": 40564, "pitch": 42, "duration": 120, "velocity": 57}, {"time": 40805, "pitch": 36, "duration": 118, "velocity": 96}, {"time": 40805, "pitch": 57, "duration": 118, "velocity": 90}, {"time": 41041, "pitch": 42, "duration": 118, "velocity": 57}, {"time": 41277, "pitch": 40, "duration": 121, "velocity": 96}, {"time": 41277, "pitch": 42, "duration": 121, "velocity": 86}, {"time": 41518, "pitch": 42, "duration": 121, "velocity": 57}, {"time": 41760, "pitch": 36, "duration": 120, "velocity": 96}, {"time": 41760, "pitch": 42, "duration": 120, "velocity": 72}, {"time": 42001, "pitch": 42, "duration": 120, "velocity": 57}, {"time": 42242, "pitch": 40, "duration": 121, "velocity": 96}, {"time": 42242, "pitch": 42, "duration": 121, "velocity": 86}, {"time": 42483, "pitch": 36, "duration": 121, "velocity": 96}, {"time": 42483, "pitch": 57, "duration": 121, "velocity": 90}, {"time": 42961, "pitch": 36, "duration": 118, "velocity": 96}, {"time": 42961, "pitch": 43, "duration": 118, "velocity": 60}, {"time": 42961, "pitch": 45, "duration": 118, "velocity": 60}, {"time": 43197, "pitch": 36, "duration": 120, "velocity": 96}, {"time": 43197, "pitch": 43, "duration": 120, "velocity": 66}, {"time": 43197, "pitch": 45, "duration": 120, "velocity": 66}, {"time": 43438, "pitch": 36, "duration": 121, "velocity": 96}, {"time": 43438, "pitch": 43, "duration": 121, "velocity": 72}, {"time": 43438, "pitch": 45, "duration": 121, "velocity": 72}, {"time": 43679, "pitch": 36, "duration": 121, "velocity": 96}, {"time": 43679, "pitch": 43, "duration": 121, "velocity": 78}, {"time": 43679, "pitch": 45, "duration": 121, "velocity": 78}, {"time": 43921, "pitch": 36, "duration": 120, "velocity": 96}, {"time": 43921, "pitch": 43, "duration": 120, "velocity": 84}, {"time": 43921, "pitch": 45, "duration": 120, "velocity": 84}, {"time": 44282, "pitch": 40, "duration": 1, "velocity": 96}, {"time": 44403, "pitch": 40, "duration": 1, "velocity": 96}, {"time": 44644, "pitch": 36, "duration": 118, "velocity": 96}, {"time": 44644, "pitch": 57, "duration": 118, "velocity": 90}, {"time": 44880, "pitch": 51, "duration": 119, "velocity": 96}, {"time": 45117, "pitch": 40, "duration": 120, "velocity": 96}, {"time": 45117, "pitch": 51, "duration": 120, "velocity": 114}, {"time": 45358, "pitch": 51, "duration": 120, "velocity": 96}, {"time": 45599, "pitch": 36, "duration": 121, "velocity": 96}, {"time": 45599, "pitch": 51, "duration": 121, "velocity": 114}, {"time": 45840, "pitch": 51, "duration": 121, "velocity": 96}, {"time": 46082, "pitch": 40, "duration": 120, "velocity": 96}, {"time": 46082, "pitch": 51, "duration": 120, "velocity": 114}, {"time": 46323, "pitch": 36, "duration": 120, "velocity": 96}, {"time": 46323, "pitch": 51, "duration": 120, "velocity": 96}, {"time": 46564, "pitch": 51, "duration": 118, "velocity": 108}, {"time": 46800, "pitch": 36, "duration": 118, "velocity": 96}, {"time": 46800, "pitch": 51, "duration": 118, "velocity": 96}, {"time": 47036, "pitch": 40, "duration": 121, "velocity": 96}, {"time": 47036, "pitch": 51, "duration": 121, "velocity": 114}, {"time": 47278, "pitch": 51, "duration": 120, "velocity": 96}, {"time": 47519, "pitch": 36, "duration": 120, "velocity": 96}, {"time": 47519, "pitch": 51, "duration": 120, "velocity": 114}, {"time": 47760, "pitch": 51, "duration": 121, "velocity": 96}, {"time": 48001, "pitch": 40, "duration": 121, "velocity": 96}, {"time": 48001, "pitch": 51, "duration": 121, "velocity": 114}, {"time": 48243, "pitch": 51, "duration": 120, "velocity": 96}, {"time": 48484, "pitch": 36, "duration": 118, "velocity": 96}, {"time": 48484, "pitch": 51, "duration": 118, "velocity": 108}, {"time": 48720, "pitch": 51, "duration": 118, "velocity": 96}, {"time": 48956, "pitch": 40, "duration": 121, "velocity": 96}, {"time": 48956, "pitch": 51, "duration": 121, "velocity": 114}, {"time": 49197, "pitch": 51, "duration": 121, "velocity": 96}, {"time": 49439, "pitch": 36, "duration": 120, "velocity": 96}, {"time": 49439, "pitch": 51, "duration": 120, "velocity": 114}, {"time": 49680, "pitch": 51, "duration": 120, "velocity": 96}, {"time": 49921, "pitch": 40, "duration": 121, "velocity": 96}, {"time": 49921, "pitch": 51, "duration": 121, "velocity": 114}, {"time": 50162, "pitch": 36, "duration": 121, "velocity": 96}, {"time": 50162, "pitch": 51, "duration": 121, "velocity": 96}, {"time": 50404, "pitch": 51, "duration": 118, "velocity": 108}, {"time": 50640, "pitch": 36, "duration": 118, "velocity": 96}, {"time": 50640, "pitch": 51, "duration": 118, "velocity": 96}, {"time": 50876, "pitch": 40, "duration": 120, "velocity": 96}, {"time": 50876, "pitch": 51, "duration": 120, "velocity": 114}, {"time": 51117, "pitch": 51, "duration": 121, "velocity": 96}, {"time": 51358, "pitch": 36, "duration": 121, "velocity": 96}, {"time": 51358, "pitch": 51, "duration": 121, "velocity": 114}, {"time": 51600, "pitch": 51, "duration": 120, "velocity": 96}, {"time": 51841, "pitch": 40, "duration": 120, "velocity": 96}, {"time": 51841, "pitch": 51, "duration": 120, "velocity": 114}, {"time": 52082, "pitch": 51, "duration": 121, "velocity": 96}, {"time": 52323, "pitch": 36, "duration": 118, "velocity": 96}, {"time": 52323, "pitch": 57, "duration": 118, "velocity": 90}, {"time": 52559, "pitch": 42, "duration": 119, "velocity": 57}, {"time": 52796, "pitch": 40, "duration": 120, "velocity": 96}, {"time": 52796, "pitch": 42, "duration": 120, "velocity": 86}, {"time": 53037, "pitch": 42, "duration": 120, "velocity": 58}, {"time": 53278, "pitch": 36, "duration": 121, "velocity": 96}, {"time": 53278, "pitch": 42, "duration": 121, "velocity": 86}, {"time": 53519, "pitch": 42, "duration": 121, "velocity": 57}, {"time": 53761, "pitch": 40, "duration": 120, "velocity": 96}, {"time": 53761, "pitch": 42, "duration": 120, "velocity": 100}, {"time": 54002, "pitch": 36, "duration": 120, "velocity": 96}, {"time": 54002, "pitch": 57, "duration": 120, "velocity": 90}, {"time": 54479, "pitch": 36, "duration": 118, "velocity": 96}, {"time": 54479, "pitch": 42, "duration": 118, "velocity": 57}, {"time": 54715, "pitch": 40, "duration": 121, "velocity": 96}, {"time": 54715, "pitch": 42, "duration": 121, "velocity": 86}, {"time": 54957, "pitch": 42, "duration": 120, "velocity": 58}, {"time": 55198, "pitch": 36, "duration": 120, "velocity": 96}, {"time": 55198, "pitch": 42, "duration": 120, "velocity": 86}, {"time": 55439, "pitch": 42, "duration": 121, "velocity": 57}, {"time": 55680, "pitch": 40, "duration": 121, "velocity": 96}, {"time": 55680, "pitch": 42, "duration": 121, "velocity": 100}, {"time": 55922, "pitch": 42, "duration": 120, "velocity": 57}, {"time": 56163, "pitch": 36, "duration": 118, "velocity": 96}, {"time": 56163, "pitch": 57, "duration": 118, "velocity": 90}, {"time": 56399, "pitch": 42, "duration": 118, "velocity": 57}, {"time": 56635, "pitch": 40, "duration": 121, "velocity": 96}, {"time": 56635, "pitch": 42, "duration": 121, "velocity": 86}, {"time": 56876, "pitch": 42, "duration": 121, "velocity": 58}, {"time": 57118, "pitch": 36, "duration": 120, "velocity": 96}, {"time": 57118, "pitch": 42, "duration": 120, "velocity": 86}, {"time": 57359, "pitch": 42, "duration": 120, "velocity": 57}, {"time": 57600, "pitch": 40, "duration": 121, "velocity": 96}, {"time": 57600, "pitch": 42, "duration": 121, "velocity": 100}, {"time": 57841, "pitch": 36, "duration": 121, "velocity": 96}, {"time": 57841, "pitch": 57, "duration": 121, "velocity": 90}, {"time": 58324, "pitch": 36, "duration": 120, "velocity": 96}, {"time": 58324, "pitch": 42, "duration": 120, "velocity": 57}, {"time": 58565, "pitch": 40, "duration": 118, "velocity": 96}, {"time": 58565, "pitch": 42, "duration": 118, "velocity": 86}, {"time": 58801, "pitch": 42, "duration": 118, "velocity": 58}, {"time": 59037, "pitch": 36, "duration": 121, "velocity": 96}, {"time": 59037, "pitch": 42, "duration": 121, "velocity": 86}, {"time": 59279, "pitch": 40, "duration": 120, "velocity": 96}, {"time": 59279, "pitch": 42, "duration": 120, "velocity": 57}, {"time": 59641, "pitch": 40, "duration": 1, "velocity": 96}, {"time": 59761, "pitch": 43, "duration": 121, "velocity": 114}, {"time": 60002, "pitch": 36, "duration": 121, "velocity": 96}, {"time": 60002, "pitch": 57, "duration": 121, "velocity": 90}, {"time": 60244, "pitch": 51, "duration": 120, "velocity": 108}, {"time": 60485, "pitch": 40, "duration": 118, "velocity": 96}, {"time": 60485, "pitch": 51, "duration": 118, "velocity": 126}, {"time": 60721, "pitch": 51, "duration": 118, "velocity": 108}, {"time": 60957, "pitch": 36, "duration": 121, "velocity": 96}, {"time": 60957, "pitch": 51, "duration": 121, "velocity": 126}, {"time": 61198, "pitch": 51, "duration": 121, "velocity": 108}, {"time": 61440, "pitch": 40, "duration": 120, "velocity": 96}, {"time": 61440, "pitch": 51, "duration": 120, "velocity": 126}, {"time": 61681, "pitch": 36, "duration": 121, "velocity": 96}, {"time": 61681, "pitch": 51, "duration": 121, "velocity": 108}, {"time": 61922, "pitch": 51, "duration": 121, "velocity": 120}, {"time": 62163, "pitch": 36, "duration": 121, "velocity": 96}, {"time": 62163, "pitch": 51, "duration": 121, "velocity": 108}, {"time": 62405, "pitch": 40, "duration": 118, "velocity": 96}, {"time": 62405, "pitch": 51, "duration": 118, "velocity": 126}, {"time": 62641, "pitch": 51, "duration": 118, "velocity": 108}, {"time": 62877, "pitch": 36, "duration": 121, "velocity": 96}, {"time": 62877, "pitch": 51, "duration": 121, "velocity": 126}, {"time": 63118, "pitch": 51, "duration": 121, "velocity": 108}, {"time": 63359, "pitch": 40, "duration": 121, "velocity": 96}, {"time": 63359, "pitch": 51, "duration": 121, "velocity": 126}, {"time": 63601, "pitch": 51, "duration": 120, "velocity": 96}, {"time": 63842, "pitch": 36, "duration": 121, "velocity": 96}, {"time": 63842, "pitch": 51, "duration": 121, "velocity": 109}, {"time": 64083, "pitch": 51, "duration": 121, "velocity": 97}, {"time": 64324, "pitch": 40, "duration": 118, "velocity": 96}, {"time": 64324, "pitch": 51, "duration": 118, "velocity": 115}, {"time": 64560, "pitch": 51, "duration": 119, "velocity": 97}, {"time": 64797, "pitch": 36, "duration": 120, "velocity": 96}, {"time": 64797, "pitch": 51, "duration": 120, "velocity": 115}, {"time": 65038, "pitch": 51, "duration": 121, "velocity": 97}, {"time": 65279, "pitch": 40, "duration": 121, "velocity": 96}, {"time": 65279, "pitch": 51, "duration": 121, "velocity": 115}, {"time": 65520, "pitch": 36, "duration": 121, "velocity": 96}, {"time": 65520, "pitch": 51, "duration": 121, "velocity": 97}, {"time": 65762, "pitch": 51, "duration": 120, "velocity": 109}, {"time": 66003, "pitch": 36, "duration": 121, "velocity": 96}, {"time": 66003, "pitch": 51, "duration": 121, "velocity": 97}, {"time": 66244, "pitch": 40, "duration": 118, "velocity": 96}, {"time": 66244, "pitch": 51, "duration": 118, "velocity": 115}, {"time": 66480, "pitch": 51, "duration": 118, "velocity": 97}, {"time": 66716, "pitch": 36, "duration": 121, "velocity": 96}, {"time": 66716, "pitch": 51, "duration": 121, "velocity": 115}, {"time": 66958, "pitch": 51, "duration": 120, "velocity": 97}, {"time": 67199, "pitch": 40, "duration": 121, "velocity": 96}, {"time": 67199, "pitch": 51, "duration": 121, "velocity": 115}, {"time": 67440, "pitch": 51, "duration": 121, "velocity": 96}, {"time": 67681, "pitch": 36, "duration": 121, "velocity": 96}, {"time": 67681, "pitch": 57, "duration": 121, "velocity": 90}, {"time": 67923, "pitch": 42, "duration": 120, "velocity": 57}, {"time": 68164, "pitch": 40, "duration": 118, "velocity": 96}, {"time": 68164, "pitch": 42, "duration": 118, "velocity": 86}, {"time": 68400, "pitch": 42, "duration": 118, "velocity": 58}, {"time": 68636, "pitch": 36, "duration": 121, "velocity": 96}, {"time": 68636, "pitch": 42, "duration": 121, "velocity": 86}, {"time": 68877, "pitch": 42, "duration": 121, "velocity": 57}, {"time": 69119, "pitch": 40, "duration": 120, "velocity": 96}, {"time": 69119, "pitch": 42, "duration": 120, "velocity": 100}, {"time": 69360, "pitch": 36, "duration": 121, "velocity": 96}, {"time": 69360, "pitch": 57, "duration": 121, "velocity": 90}, {"time": 69842, "pitch": 36, "duration": 121, "velocity": 96}, {"time": 69842, "pitch": 42, "duration": 121, "velocity": 57}, {"time": 70084, "pitch": 40, "duration": 118, "velocity": 96}, {"time": 70084, "pitch": 42, "duration": 118, "velocity": 86}, {"time": 70320, "pitch": 42, "duration": 118, "velocity": 58}, {"time": 70556, "pitch": 36, "duration": 121, "velocity": 96}, {"time": 70556, "pitch": 42, "duration": 121, "velocity": 86}, {"time": 70797, "pitch": 42, "duration": 121, "velocity": 57}, {"time": 71038, "pitch": 40, "duration": 121, "velocity": 96}, {"time": 71038, "pitch": 42, "duration": 121, "velocity": 100}, {"time": 71280, "pitch": 42, "duration": 120, "velocity": 57}, {"time": 71521, "pitch": 36, "duration": 121, "velocity": 96}, {"time": 71521, "pitch": 57, "duration": 121, "velocity": 90}, {"time": 71762, "pitch": 42, "duration": 121, "velocity": 57}, {"time": 72003, "pitch": 40, "duration": 118, "velocity": 96}, {"time": 72003, "pitch": 42, "duration": 118, "velocity": 86}, {"time": 72240, "pitch": 42, "duration": 118, "velocity": 58}, {"time": 72476, "pitch": 36, "duration": 120, "velocity": 96}, {"time": 72476, "pitch": 42, "duration": 120, "velocity": 86}, {"time": 72717, "pitch": 42, "duration": 121, "velocity": 57}, {"time": 72958, "pitch": 40, "duration": 121, "velocity": 96}, {"time": 72958, "pitch": 42, "duration": 121, "velocity": 100}, {"time": 73199, "pitch": 36, "duration": 121, "velocity": 96}, {"time": 73199, "pitch": 57, "duration": 121, "velocity": 90}, {"time": 73682, "pitch": 36, "duration": 121, "velocity": 96}, {"time": 73682, "pitch": 42, "duration": 121, "velocity": 57}, {"time": 73923, "pitch": 40, "duration": 118, "velocity": 96}, {"time": 73923, "pitch": 42, "duration": 118, "velocity": 86}, {"time": 74159, "pitch": 42, "duration": 118, "velocity": 58}, {"time": 74396, "pitch": 36, "duration": 120, "velocity": 96}, {"time": 74396, "pitch": 42, "duration": 120, "velocity": 86}, {"time": 74637, "pitch": 40, "duration": 120, "velocity": 96}, {"time": 74637, "pitch": 42, "duration": 120, "velocity": 57}, {"time": 74999, "pitch": 40, "duration": 1, "velocity": 96}, {"time": 75119, "pitch": 43, "duration": 121, "velocity": 114}, {"time": 75360, "pitch": 36, "duration": 121, "velocity": 96}, {"time": 75360, "pitch": 57, "duration": 121, "velocity": 90}, {"time": 75602, "pitch": 42, "duration": 120, "velocity": 57}, {"time": 75843, "pitch": 40, "duration": 118, "velocity": 96}, {"time": 75843, "pitch": 42, "duration": 118, "velocity": 86}, {"time": 76079, "pitch": 42, "duration": 118, "velocity": 57}, {"time": 76315, "pitch": 36, "duration": 121, "velocity": 96}, {"time": 76315, "pitch": 42, "duration": 121, "velocity": 72}, {"time": 76556, "pitch": 42, "duration": 121, "velocity": 57}, {"time": 76798, "pitch": 40, "duration": 120, "velocity": 96}, {"time": 76798, "pitch": 42, "duration": 120, "velocity": 72}, {"time": 77039, "pitch": 36, "duration": 121, "velocity": 96}, {"time": 77039, "pitch": 57, "duration": 121, "velocity": 90}, {"time": 77521, "pitch": 36, "duration": 121, "velocity": 96}, {"time": 77521, "pitch": 42, "duration": 121, "velocity": 57}, {"time": 77763, "pitch": 40, "duration": 118, "velocity": 96}, {"time": 77763, "pitch": 42, "duration": 118, "velocity": 86}, {"time": 77999, "pitch": 42, "duration": 118, "velocity": 57}, {"time": 78235, "pitch": 36, "duration": 121, "velocity": 96}, {"time": 78235, "pitch": 42, "duration": 121, "velocity": 72}, {"time": 78476, "pitch": 42, "duration": 121, "velocity": 57}, {"time": 78717, "pitch": 40, "duration": 121, "velocity": 96}, {"time": 78717, "pitch": 42, "duration": 121, "velocity": 86}, {"time": 78959, "pitch": 42, "duration": 120, "velocity": 57}, {"time": 79200, "pitch": 36, "duration": 121, "velocity": 96}, {"time": 79200, "pitch": 42, "duration": 121, "velocity": 72}, {"time": 79441, "pitch": 42, "duration": 121, "velocity": 57}, {"time": 79682, "pitch": 40, "duration": 121, "velocity": 96}, {"time": 79682, "pitch": 42, "duration": 121, "velocity": 86}, {"time": 79924, "pitch": 42, "duration": 120, "velocity": 57}, {"time": 80165, "pitch": 36, "duration": 118, "velocity": 96}, {"time": 80165, "pitch": 42, "duration": 118, "velocity": 72}, {"time": 80401, "pitch": 42, "duration": 118, "velocity": 57}, {"time": 80637, "pitch": 40, "duration": 121, "velocity": 96}, {"time": 80637, "pitch": 42, "duration": 121, "velocity": 72}, {"time": 80878, "pitch": 36, "duration": 121, "velocity": 96}, {"time": 80878, "pitch": 57, "duration": 121, "velocity": 90}, {"time": 81361, "pitch": 36, "duration": 121, "velocity": 96}, {"time": 81361, "pitch": 42, "duration": 121, "velocity": 57}, {"time": 81602, "pitch": 40, "duration": 121, "velocity": 96}, {"time": 81602, "pitch": 42, "duration": 121, "velocity": 86}, {"time": 81843, "pitch": 42, "duration": 121, "velocity": 57}, {"time": 82085, "pitch": 36, "duration": 118, "velocity": 96}, {"time": 82085, "pitch": 42, "duration": 118, "velocity": 72}, {"time": 82321, "pitch": 42, "duration": 118, "velocity": 57}, {"time": 82557, "pitch": 40, "duration": 121, "velocity": 96}, {"time": 82557, "pitch": 42, "duration": 121, "velocity": 86}, {"time": 82798, "pitch": 42, "duration": 121, "velocity": 57}, {"time": 83039, "pitch": 36, "duration": 121, "velocity": 96}, {"time": 83039, "pitch": 42, "duration": 121, "velocity": 72}, {"time": 83281, "pitch": 42, "duration": 120, "velocity": 57}, {"time": 83522, "pitch": 40, "duration": 121, "velocity": 96}, {"time": 83522, "pitch": 42, "duration": 121, "velocity": 86}, {"time": 83763, "pitch": 42, "duration": 121, "velocity": 57}, {"time": 84004, "pitch": 36, "duration": 118, "velocity": 96}, {"time": 84004, "pitch": 42, "duration": 118, "velocity": 72}, {"time": 84241, "pitch": 42, "duration": 118, "velocity": 57}, {"time": 84477, "pitch": 40, "duration": 120, "velocity": 96}, {"time": 84477, "pitch": 42, "duration": 120, "velocity": 72}, {"time": 84718, "pitch": 36, "duration": 121, "velocity": 96}, {"time": 84718, "pitch": 57, "duration": 121, "velocity": 90}, {"time": 85200, "pitch": 36, "duration": 121, "velocity": 96}, {"time": 85200, "pitch": 42, "duration": 121, "velocity": 57}, {"time": 85442, "pitch": 40, "duration": 120, "velocity": 96}, {"time": 85442, "pitch": 42, "duration": 120, "velocity": 86}, {"time": 85683, "pitch": 42, "duration": 121, "velocity": 57}, {"time": 85924, "pitch": 36, "duration": 118, "velocity": 96}, {"time": 85924, "pitch": 42, "duration": 118, "velocity": 72}, {"time": 86160, "pitch": 42, "duration": 118, "velocity": 57}, {"time": 86397, "pitch": 40, "duration": 120, "velocity": 96}, {"time": 86397, "pitch": 42, "duration": 120, "velocity": 86}, {"time": 86638, "pitch": 42, "duration": 120, "velocity": 57}, {"time": 86879, "pitch": 36, "duration": 121, "velocity": 96}, {"time": 86879, "pitch": 42, "duration": 121, "velocity": 72}, {"time": 87120, "pitch": 42, "duration": 121, "velocity": 57}, {"time": 87361, "pitch": 40, "duration": 121, "velocity": 96}, {"time": 87361, "pitch": 42, "duration": 121, "velocity": 86}, {"time": 87603, "pitch": 42, "duration": 120, "velocity": 57}, {"time": 87844, "pitch": 36, "duration": 118, "velocity": 96}, {"time": 87844, "pitch": 42, "duration": 118, "velocity": 72}, {"time": 88080, "pitch": 42, "duration": 118, "velocity": 57}, {"time": 88316, "pitch": 40, "duration": 121, "velocity": 96}, {"time": 88316, "pitch": 42, "duration": 121, "velocity": 72}, {"time": 88557, "pitch": 36, "duration": 121, "velocity": 96}, {"time": 88557, "pitch": 57, "duration": 121, "velocity": 90}, {"time": 89040, "pitch": 36, "duration": 121, "velocity": 96}, {"time": 89040, "pitch": 42, "duration": 121, "velocity": 57}, {"time": 89281, "pitch": 40, "duration": 121, "velocity": 96}, {"time": 89281, "pitch": 42, "duration": 121, "velocity": 86}, {"time": 89522, "pitch": 42, "duration": 121, "velocity": 57}, {"time": 89764, "pitch": 36, "duration": 118, "velocity": 96}, {"time": 89764, "pitch": 42, "duration": 118, "velocity": 72}, {"time": 90000, "pitch": 40, "duration": 118, "velocity": 96}, {"time": 90000, "pitch": 42, "duration": 118, "velocity": 57}, {"time": 90236, "pitch": 40, "duration": 121, "velocity": 96}, {"time": 90236, "pitch": 42, "duration": 121, "velocity": 86}, {"time": 90357, "pitch": 40, "duration": 120, "velocity": 84}, {"time": 90477, "pitch": 42, "duration": 121, "velocity": 57}, {"time": 90477, "pitch": 43, "duration": 121, "velocity": 96}, {"time": 90718, "pitch": 36, "duration": 121, "velocity": 96}, {"time": 90718, "pitch": 57, "duration": 121, "velocity": 90}, {"time": 90960, "pitch": 42, "duration": 120, "velocity": 57}, {"time": 91201, "pitch": 40, "duration": 121, "velocity": 96}, {"time": 91201, "pitch": 42, "duration": 121, "velocity": 86}, {"time": 91442, "pitch": 42, "duration": 121, "velocity": 57}, {"time": 91683, "pitch": 36, "duration": 118, "velocity": 96}, {"time": 91683, "pitch": 42, "duration": 118, "velocity": 72}, {"time": 91920, "pitch": 42, "duration": 118, "velocity": 57}, {"time": 92156, "pitch": 40, "duration": 120, "velocity": 96}, {"time": 92156, "pitch": 46, "duration": 120, "velocity": 90}, {"time": 92397, "pitch": 36, "duration": 121, "velocity": 96}, {"time": 92397, "pitch": 44, "duration": 121, "velocity": 72}, {"time": 92879, "pitch": 42, "duration": 121, "velocity": 57}, {"time": 93121, "pitch": 40, "duration": 120, "velocity": 96}, {"time": 93121, "pitch": 42, "duration": 120, "velocity": 86}, {"time": 93362, "pitch": 42, "duration": 121, "velocity": 57}, {"time": 93603, "pitch": 36, "duration": 118, "velocity": 96}, {"time": 93603, "pitch": 42, "duration": 118, "velocity": 72}, {"time": 93839, "pitch": 36, "duration": 118, "velocity": 96}, {"time": 93839, "pitch": 42, "duration": 118, "velocity": 57}, {"time": 94076, "pitch": 40, "duration": 120, "velocity": 96}, {"time": 94076, "pitch": 42, "duration": 120, "velocity": 86}, {"time": 94317, "pitch": 42, "duration": 120, "velocity": 57}, {"time": 94558, "pitch": 36, "duration": 121, "velocity": 96}, {"time": 94558, "pitch": 42, "duration": 121, "velocity": 100}, {"time": 94799, "pitch": 42, "duration": 121, "velocity": 57}, {"time": 95040, "pitch": 40, "duration": 121, "velocity": 96}, {"time": 95040, "pitch": 42, "duration": 121, "velocity": 86}, {"time": 95282, "pitch": 42, "duration": 120, "velocity": 57}, {"time": 95523, "pitch": 36, "duration": 118, "velocity": 96}, {"time": 95523, "pitch": 42, "duration": 118, "velocity": 72}, {"time": 95759, "pitch": 42, "duration": 118, "velocity": 57}, {"time": 95995, "pitch": 40, "duration": 121, "velocity": 96}, {"time": 95995, "pitch": 42, "duration": 121, "velocity": 86}, {"time": 96236, "pitch": 36, "duration": 121, "velocity": 96}, {"time": 96236, "pitch": 42, "duration": 121, "velocity": 57}, {"time": 96478, "pitch": 42, "duration": 120, "velocity": 100}, {"time": 96719, "pitch": 42, "duration": 121, "velocity": 57}, {"time": 96960, "pitch": 40, "duration": 121, "velocity": 96}, {"time": 96960, "pitch": 42, "duration": 121, "velocity": 86}, {"time": 97201, "pitch": 42, "duration": 121, "velocity": 57}, {"time": 97443, "pitch": 36, "duration": 118, "velocity": 96}, {"time": 97443, "pitch": 42, "duration": 118, "velocity": 72}, {"time": 97679, "pitch": 36, "duration": 118, "velocity": 96}, {"time": 97679, "pitch": 42, "duration": 118, "velocity": 57}, {"time": 97915, "pitch": 40, "duration": 121, "velocity": 96}, {"time": 97915, "pitch": 42, "duration": 121, "velocity": 86}, {"time": 98156, "pitch": 42, "duration": 121, "velocity": 57}, {"time": 98397, "pitch": 36, "duration": 121, "velocity": 96}, {"time": 98397, "pitch": 57, "duration": 121, "velocity": 90}, {"time": 98639, "pitch": 42, "duration": 120, "velocity": 57}, {"time": 98880, "pitch": 40, "duration": 121, "velocity": 96}, {"time": 98880, "pitch": 42, "duration": 121, "velocity": 86}, {"time": 99121, "pitch": 42, "duration": 121, "velocity": 57}, {"time": 99362, "pitch": 36, "duration": 121, "velocity": 96}, {"time": 99362, "pitch": 42, "duration": 121, "velocity": 72}, {"time": 99604, "pitch": 42, "duration": 120, "velocity": 57}, {"time": 99845, "pitch": 40, "duration": 118, "velocity": 96}, {"time": 99845, "pitch": 46, "duration": 118, "velocity": 90}, {"time": 100081, "pitch": 36, "duration": 118, "velocity": 96}, {"time": 100081, "pitch": 44, "duration": 118, "velocity": 72}, {"time": 100558, "pitch": 42, "duration": 121, "velocity": 57}, {"time": 100800, "pitch": 40, "duration": 120, "velocity": 96}, {"time": 100800, "pitch": 42, "duration": 120, "velocity": 86}, {"time": 101041, "pitch": 42, "duration": 121, "velocity": 57}, {"time": 101282, "pitch": 36, "duration": 121, "velocity": 96}, {"time": 101282, "pitch": 42, "duration": 121, "velocity": 72}, {"time": 101523, "pitch": 36, "duration": 121, "velocity": 96}, {"time": 101523, "pitch": 42, "duration": 121, "velocity": 57}, {"time": 101765, "pitch": 40, "duration": 118, "velocity": 96}, {"time": 101765, "pitch": 42, "duration": 118, "velocity": 86}, {"time": 102001, "pitch": 42, "duration": 118, "velocity": 57}, {"time": 102237, "pitch": 36, "duration": 121, "velocity": 96}, {"time": 102237, "pitch": 57, "duration": 121, "velocity": 90}, {"time": 102478, "pitch": 42, "duration": 121, "velocity": 57}, {"time": 102719, "pitch": 40, "duration": 121, "velocity": 96}, {"time": 102719, "pitch": 42, "duration": 121, "velocity": 86}, {"time": 102961, "pitch": 42, "duration": 120, "velocity": 57}, {"time": 103202, "pitch": 36, "duration": 121, "velocity": 96}, {"time": 103202, "pitch": 42, "duration": 121, "velocity": 72}, {"time": 103443, "pitch": 42, "duration": 121, "velocity": 57}, {"time": 103684, "pitch": 40, "duration": 118, "velocity": 96}, {"time": 103684, "pitch": 42, "duration": 118, "velocity": 86}, {"time": 103921, "pitch": 36, "duration": 118, "velocity": 96}, {"time": 103921, "pitch": 42, "duration": 118, "velocity": 57}, {"time": 104157, "pitch": 42, "duration": 120, "velocity": 100}, {"time": 104398, "pitch": 42, "duration": 121, "velocity": 57}, {"time": 104639, "pitch": 40, "duration": 121, "velocity": 96}, {"time": 104639, "pitch": 42, "duration": 121, "velocity": 86}, {"time": 104880, "pitch": 42, "duration": 121, "velocity": 57}, {"time": 105122, "pitch": 36, "duration": 120, "velocity": 96}, {"time": 105122, "pitch": 42, "duration": 120, "velocity": 72}, {"time": 105363, "pitch": 36, "duration": 121, "velocity": 96}, {"time": 105363, "pitch": 42, "duration": 121, "velocity": 57}, {"time": 105604, "pitch": 40, "duration": 118, "velocity": 96}, {"time": 105604, "pitch": 42, "duration": 118, "velocity": 86}, {"time": 105840, "pitch": 42, "duration": 118, "velocity": 57}, {"time": 106077, "pitch": 36, "duration": 120, "velocity": 96}, {"time": 106077, "pitch": 57, "duration": 120, "velocity": 90}, {"time": 106318, "pitch": 42, "duration": 120, "velocity": 57}, {"time": 106559, "pitch": 40, "duration": 121, "velocity": 96}, {"time": 106559, "pitch": 42, "duration": 121, "velocity": 86}, {"time": 106800, "pitch": 42, "duration": 121, "velocity": 57}, {"time": 107041, "pitch": 36, "duration": 121, "velocity": 96}, {"time": 107041, "pitch": 42, "duration": 121, "velocity": 72}, {"time": 107283, "pitch": 42, "duration": 120, "velocity": 57}, {"time": 107524, "pitch": 40, "duration": 118, "velocity": 96}, {"time": 107524, "pitch": 42, "duration": 118, "velocity": 86}, {"time": 107760, "pitch": 36, "duration": 118, "velocity": 96}, {"time": 107760, "pitch": 57, "duration": 118, "velocity": 90}, {"time": 108237, "pitch": 36, "duration": 121, "velocity": 96}, {"time": 108237, "pitch": 43, "duration": 121, "velocity": 60}, {"time": 108237, "pitch": 45, "duration": 121, "velocity": 60}, {"time": 108479, "pitch": 36, "duration": 120, "velocity": 96}, {"time": 108479, "pitch": 43, "duration": 120, "velocity": 66}, {"time": 108479, "pitch": 45, "duration": 120, "velocity": 66}, {"time": 108720, "pitch": 36, "duration": 121, "velocity": 96}, {"time": 108720, "pitch": 43, "duration": 121, "velocity": 72}, {"time": 108720, "pitch": 45, "duration": 121, "velocity": 72}, {"time": 108961, "pitch": 36, "duration": 121, "velocity": 96}, {"time": 108961, "pitch": 43, "duration": 121, "velocity": 78}, {"time": 108961, "pitch": 45, "duration": 121, "velocity": 78}, {"time": 109202, "pitch": 36, "duration": 121, "velocity": 96}, {"time": 109202, "pitch": 43, "duration": 121, "velocity": 84}, {"time": 109202, "pitch": 45, "duration": 121, "velocity": 84}, {"time": 109562, "pitch": 40, "duration": 1, "velocity": 96}, {"time": 109680, "pitch": 40, "duration": 1, "velocity": 96}, {"time": 109916, "pitch": 36, "duration": 121, "velocity": 96}, {"time": 109916, "pitch": 57, "duration": 121, "velocity": 90}, {"time": 110157, "pitch": 51, "duration": 121, "velocity": 96}, {"time": 110398, "pitch": 40, "duration": 121, "velocity": 96}, {"time": 110398, "pitch": 51, "duration": 121, "velocity": 114}, {"time": 110640, "pitch": 51, "duration": 120, "velocity": 96}, {"time": 110881, "pitch": 36, "duration": 121, "velocity": 96}, {"time": 110881, "pitch": 51, "duration": 121, "velocity": 114}, {"time": 111122, "pitch": 51, "duration": 121, "velocity": 96}, {"time": 111363, "pitch": 40, "duration": 119, "velocity": 96}, {"time": 111363, "pitch": 51, "duration": 119, "velocity": 114}, {"time": 111600, "pitch": 36, "duration": 118, "velocity": 96}, {"time": 111600, "pitch": 51, "duration": 118, "velocity": 96}, {"time": 111836, "pitch": 51, "duration": 120, "velocity": 108}, {"time": 112077, "pitch": 36, "duration": 121, "velocity": 96}, {"time": 112077, "pitch": 51, "duration": 121, "velocity": 96}, {"time": 112318, "pitch": 40, "duration": 121, "velocity": 96}, {"time": 112318, "pitch": 51, "duration": 121, "velocity": 114}, {"time": 112559, "pitch": 51, "duration": 121, "velocity": 96}, {"time": 112801, "pitch": 36, "duration": 120, "velocity": 96}, {"time": 112801, "pitch": 51, "duration": 120, "velocity": 114}, {"time": 113042, "pitch": 51, "duration": 121, "velocity": 96}, {"time": 113283, "pitch": 40, "duration": 118, "velocity": 96}, {"time": 113283, "pitch": 51, "duration": 118, "velocity": 114}, {"time": 113519, "pitch": 51, "duration": 118, "velocity": 96}, {"time": 113756, "pitch": 36, "duration": 120, "velocity": 96}, {"time": 113756, "pitch": 51, "duration": 120, "velocity": 108}, {"time": 113997, "pitch": 51, "duration": 120, "velocity": 96}, {"time": 114238, "pitch": 40, "duration": 121, "velocity": 96}, {"time": 114238, "pitch": 51, "duration": 121, "velocity": 114}, {"time": 114479, "pitch": 51, "duration": 121, "velocity": 96}, {"time": 114720, "pitch": 36, "duration": 121, "velocity": 96}, {"time": 114720, "pitch": 51, "duration": 121, "velocity": 114}, {"time": 114962, "pitch": 51, "duration": 120, "velocity": 96}, {"time": 115203, "pitch": 40, "duration": 118, "velocity": 96}, {"time": 115203, "pitch": 51, "duration": 118, "velocity": 114}, {"time": 115439, "pitch": 36, "duration": 118, "velocity": 96}, {"time": 115439, "pitch": 51, "duration": 118, "velocity": 96}, {"time": 115675, "pitch": 51, "duration": 121, "velocity": 108}, {"time": 115917, "pitch": 36, "duration": 120, "velocity": 96}, {"time": 115917, "pitch": 51, "duration": 120, "velocity": 96}, {"time": 116158, "pitch": 40, "duration": 120, "velocity": 96}, {"time": 116158, "pitch": 51, "duration": 120, "velocity": 114}, {"time": 116399, "pitch": 51, "duration": 121, "velocity": 96}, {"time": 116640, "pitch": 36, "duration": 121, "velocity": 96}, {"time": 116640, "pitch": 51, "duration": 121, "velocity": 114}, {"time": 116881, "pitch": 51, "duration": 121, "velocity": 96}, {"time": 117123, "pitch": 40, "duration": 118, "velocity": 96}, {"time": 117123, "pitch": 51, "duration": 118, "velocity": 114}, {"time": 117359, "pitch": 51, "duration": 118, "velocity": 96}, {"time": 117595, "pitch": 36, "duration": 121, "velocity": 96}, {"time": 117595, "pitch": 57, "duration": 121, "velocity": 90}, {"time": 117836, "pitch": 42, "duration": 121, "velocity": 57}, {"time": 118078, "pitch": 40, "duration": 120, "velocity": 96}, {"time": 118078, "pitch": 42, "duration": 120, "velocity": 86}, {"time": 118319, "pitch": 42, "duration": 120, "velocity": 58}, {"time": 118560, "pitch": 36, "duration": 121, "velocity": 96}, {"time": 118560, "pitch": 42, "duration": 121, "velocity": 86}, {"time": 118801, "pitch": 42, "duration": 121, "velocity": 57}, {"time": 119042, "pitch": 40, "duration": 121, "velocity": 96}, {"time": 119042, "pitch": 42, "duration": 121, "velocity": 100}, {"time": 119284, "pitch": 36, "duration": 120, "velocity": 96}, {"time": 119284, "pitch": 57, "duration": 120, "velocity": 90}, {"time": 119761, "pitch": 36, "duration": 118, "velocity": 96}, {"time": 119761, "pitch": 42, "duration": 118, "velocity": 57}, {"time": 119997, "pitch": 40, "duration": 121, "velocity": 96}, {"time": 119997, "pitch": 42, "duration": 121, "velocity": 86}, {"time": 120239, "pitch": 42, "duration": 120, "velocity": 58}, {"time": 120480, "pitch": 36, "duration": 120, "velocity": 96}, {"time": 120480, "pitch": 42, "duration": 120, "velocity": 86}, {"time": 120721, "pitch": 42, "duration": 121, "velocity": 57}, {"time": 120962, "pitch": 40, "duration": 121, "velocity": 96}, {"time": 120962, "pitch": 42, "duration": 121, "velocity": 100}, {"time": 121203, "pitch": 42, "duration": 121, "velocity": 57}, {"time": 121445, "pitch": 36, "duration": 118, "velocity": 96}, {"time": 121445, "pitch": 57, "duration": 118, "velocity": 90}, {"time": 121681, "pitch": 42, "duration": 118, "velocity": 57}, {"time": 121917, "pitch": 40, "duration": 121, "velocity": 96}, {"time": 121917, "pitch": 42, "duration": 121, "velocity": 86}, {"time": 122158, "pitch": 42, "duration": 121, "velocity": 58}, {"time": 122400, "pitch": 36, "duration": 120, "velocity": 96}, {"time": 122400, "pitch": 42, "duration": 120, "velocity": 86}, {"time": 122641, "pitch": 42, "duration": 120, "velocity": 57}, {"time": 122882, "pitch": 40, "duration": 121, "velocity": 96}, {"time": 122882, "pitch": 42, "duration": 121, "velocity": 100}, {"time": 123123, "pitch": 36, "duration": 121, "velocity": 96}, {"time": 123123, "pitch": 57, "duration": 121, "velocity": 90}, {"time": 123601, "pitch": 36, "duration": 118, "velocity": 96}, {"time": 123601, "pitch": 42, "duration": 118, "velocity": 57}, {"time": 123837, "pitch": 40, "duration": 120, "velocity": 96}, {"time": 123837, "pitch": 42, "duration": 120, "velocity": 86}, {"time": 124078, "pitch": 42, "duration": 121, "velocity": 58}, {"time": 124319, "pitch": 36, "duration": 121, "velocity": 96}, {"time": 124319, "pitch": 42, "duration": 121, "velocity": 86}, {"time": 124561, "pitch": 40, "duration": 120, "velocity": 96}, {"time": 124561, "pitch": 42, "duration": 120, "velocity": 57}, {"time": 124922, "pitch": 40, "duration": 1, "velocity": 96}, {"time": 125043, "pitch": 43, "duration": 121, "velocity": 114}, {"time": 125284, "pitch": 36, "duration": 118, "velocity": 96}, {"time": 125284, "pitch": 57, "duration": 118, "velocity": 90}, {"time": 125520, "pitch": 51, "duration": 118, "velocity": 108}, {"time": 125757, "pitch": 40, "duration": 120, "velocity": 96}, {"time": 125757, "pitch": 51, "duration": 120, "velocity": 126}, {"time": 125998, "pitch": 51, "duration": 120, "velocity": 108}, {"time": 126239, "pitch": 36, "duration": 121, "velocity": 96}, {"time": 126239, "pitch": 51, "duration": 121, "velocity": 126}, {"time": 126480, "pitch": 51, "duration": 121, "velocity": 108}, {"time": 126722, "pitch": 40, "duration": 120, "velocity": 96}, {"time": 126722, "pitch": 51, "duration": 120, "velocity": 126}, {"time": 126963, "pitch": 36, "duration": 120, "velocity": 96}, {"time": 126963, "pitch": 51, "duration": 120, "velocity": 108}, {"time": 127204, "pitch": 51, "duration": 118, "velocity": 120}, {"time": 127440, "pitch": 36, "duration": 118, "velocity": 96}, {"time": 127440, "pitch": 51, "duration": 118, "velocity": 108}, {"time": 127676, "pitch": 40, "duration": 121, "velocity": 96}, {"time": 127676, "pitch": 51, "duration": 121, "velocity": 126}, {"time": 127918, "pitch": 51, "duration": 120, "velocity": 108}, {"time": 128159, "pitch": 36, "duration": 120, "velocity": 96}, {"time": 128159, "pitch": 51, "duration": 120, "velocity": 126}, {"time": 128400, "pitch": 51, "duration": 121, "velocity": 108}, {"time": 128641, "pitch": 40, "duration": 121, "velocity": 96}, {"time": 128641, "pitch": 51, "duration": 121, "velocity": 126}, {"time": 128883, "pitch": 51, "duration": 120, "velocity": 96}, {"time": 129124, "pitch": 36, "duration": 118, "velocity": 96}, {"time": 129124, "pitch": 51, "duration": 118, "velocity": 109}, {"time": 129360, "pitch": 51, "duration": 118, "velocity": 97}, {"time": 129596, "pitch": 40, "duration": 121, "velocity": 96}, {"time": 129596, "pitch": 51, "duration": 121, "velocity": 115}, {"time": 129837, "pitch": 51, "duration": 121, "velocity": 97}, {"time": 130079, "pitch": 36, "duration": 120, "velocity": 96}, {"time": 130079, "pitch": 51, "duration": 120, "velocity": 115}, {"time": 130320, "pitch": 51, "duration": 120, "velocity": 97}, {"time": 130561, "pitch": 40, "duration": 121, "velocity": 96}, {"time": 130561, "pitch": 51, "duration": 121, "velocity": 115}, {"time": 130802, "pitch": 36, "duration": 121, "velocity": 96}, {"time": 130802, "pitch": 51, "duration": 121, "velocity": 97}, {"time": 131043, "pitch": 51, "duration": 119, "velocity": 109}, {"time": 131280, "pitch": 36, "duration": 118, "velocity": 96}, {"time": 131280, "pitch": 51, "duration": 118, "velocity": 97}, {"time": 131516, "pitch": 40, "duration": 120, "velocity": 96}, {"time": 131516, "pitch": 51, "duration": 120, "velocity": 115}, {"time": 131757, "pitch": 51, "duration": 121, "velocity": 97}, {"time": 131998, "pitch": 36, "duration": 121, "velocity": 96}, {"time": 131998, "pitch": 51, "duration": 121, "velocity": 115}, {"time": 132240, "pitch": 51, "duration": 120, "velocity": 97}, {"time": 132481, "pitch": 40, "duration": 120, "velocity": 96}, {"time": 132481, "pitch": 51, "duration": 120, "velocity": 115}, {"time": 132722, "pitch": 51, "duration": 121, "velocity": 96}, {"time": 132963, "pitch": 36, "duration": 118, "velocity": 96}, {"time": 132963, "pitch": 57, "duration": 118, "velocity": 90}, {"time": 133199, "pitch": 42, "duration": 119, "velocity": 57}, {"time": 133436, "pitch": 40, "duration": 120, "velocity": 96}, {"time": 133436, "pitch": 42, "duration": 120, "velocity": 86}, {"time": 133677, "pitch": 42, "duration": 120, "velocity": 58}, {"time": 133918, "pitch": 36, "duration": 121, "velocity": 96}, {"time": 133918, "pitch": 42, "duration": 121, "velocity": 86}, {"time": 134159, "pitch": 42, "duration": 121, "velocity": 57}, {"time": 134401, "pitch": 40, "duration": 120, "velocity": 96}, {"time": 134401, "pitch": 42, "duration": 120, "velocity": 100}, {"time": 134642, "pitch": 36, "duration": 120, "velocity": 96}, {"time": 134642, "pitch": 57, "duration": 120, "velocity": 90}, {"time": 135119, "pitch": 36, "duration": 118, "velocity": 96}, {"time": 135119, "pitch": 42, "duration": 118, "velocity": 57}, {"time": 135355, "pitch": 40, "duration": 121, "velocity": 96}, {"time": 135355, "pitch": 42, "duration": 121, "velocity": 86}, {"time": 135597, "pitch": 42, "duration": 120, "velocity": 58}, {"time": 135838, "pitch": 36, "duration": 120, "velocity": 96}, {"time": 135838, "pitch": 42, "duration": 120, "velocity": 86}, {"time": 136079, "pitch": 42, "duration": 121, "velocity": 57}, {"time": 136320, "pitch": 40, "duration": 121, "velocity": 96}, {"time": 136320, "pitch": 42, "duration": 121, "velocity": 100}, {"time": 136562, "pitch": 42, "duration": 120, "velocity": 57}, {"time": 136803, "pitch": 36, "duration": 118, "velocity": 96}, {"time": 136803, "pitch": 57, "duration": 118, "velocity": 90}, {"time": 137039, "pitch": 42, "duration": 118, "velocity": 57}, {"time": 137275, "pitch": 40, "duration": 121, "velocity": 96}, {"time": 137275, "pitch": 42, "duration": 121, "velocity": 86}, {"time": 137516, "pitch": 42, "duration": 121, "velocity": 58}, {"time": 137758, "pitch": 36, "duration": 120, "velocity": 96}, {"time": 137758, "pitch": 42, "duration": 120, "velocity": 86}, {"time": 137999, "pitch": 42, "duration": 120, "velocity": 57}, {"time": 138240, "pitch": 40, "duration": 121, "velocity": 96}, {"time": 138240, "pitch": 42, "duration": 121, "velocity": 100}, {"time": 138481, "pitch": 36, "duration": 121, "velocity": 96}, {"time": 138481, "pitch": 57, "duration": 121, "velocity": 90}, {"time": 138964, "pitch": 36, "duration": 120, "velocity": 96}, {"time": 138964, "pitch": 42, "duration": 120, "velocity": 57}, {"time": 139205, "pitch": 40, "duration": 118, "velocity": 96}, {"time": 139205, "pitch": 42, "duration": 118, "velocity": 86}, {"time": 139441, "pitch": 42, "duration": 118, "velocity": 58}, {"time": 139677, "pitch": 36, "duration": 121, "velocity": 96}, {"time": 139677, "pitch": 42, "duration": 121, "velocity": 86}, {"time": 139919, "pitch": 40, "duration": 120, "velocity": 96}, {"time": 139919, "pitch": 42, "duration": 120, "velocity": 57}, {"time": 140280, "pitch": 40, "duration": 1, "velocity": 96}, {"time": 140401, "pitch": 43, "duration": 121, "velocity": 114}, {"time": 140642, "pitch": 36, "duration": 121, "velocity": 96}, {"time": 140642, "pitch": 46, "duration": 121, "velocity": 72}, {"time": 140884, "pitch": 46, "duration": 120, "velocity": 48}, {"time": 141125, "pitch": 40, "duration": 118, "velocity": 96}, {"time": 141125, "pitch": 46, "duration": 118, "velocity": 72}, {"time": 141361, "pitch": 46, "duration": 118, "velocity": 48}, {"time": 141597, "pitch": 36, "duration": 121, "velocity": 96}, {"time": 141597, "pitch": 46, "duration": 121, "velocity": 72}, {"time": 141838, "pitch": 46, "duration": 121, "velocity": 48}, {"time": 142080, "pitch": 40, "duration": 120, "velocity": 96}, {"time": 142080, "pitch": 46, "duration": 120, "velocity": 72}, {"time": 142321, "pitch": 36, "duration": 120, "velocity": 96}, {"time": 142321, "pitch": 57, "duration": 120, "velocity": 90}, {"time": 142803, "pitch": 36, "duration": 121, "velocity": 96}, {"time": 143044, "pitch": 40, "duration": 119, "velocity": 96}, {"time": 143044, "pitch": 46, "duration": 119, "velocity": 72}, {"time": 143281, "pitch": 46, "duration": 118, "velocity": 48}, {"time": 143517, "pitch": 36, "duration": 120, "velocity": 96}, {"time": 143517, "pitch": 46, "duration": 120, "velocity": 72}, {"time": 143758, "pitch": 46, "duration": 121, "velocity": 48}, {"time": 143999, "pitch": 40, "duration": 121, "velocity": 96}, {"time": 143999, "pitch": 46, "duration": 121, "velocity": 72}, {"time": 144241, "pitch": 46, "duration": 120, "velocity": 48}, {"time": 144482, "pitch": 36, "duration": 120, "velocity": 96}, {"time": 144482, "pitch": 46, "duration": 120, "velocity": 72}, {"time": 144723, "pitch": 46, "duration": 121, "velocity": 48}, {"time": 144964, "pitch": 40, "duration": 118, "velocity": 96}, {"time": 144964, "pitch": 46, "duration": 118, "velocity": 72}, {"time": 145200, "pitch": 46, "duration": 119, "velocity": 48}, {"time": 145437, "pitch": 36, "duration": 120, "velocity": 96}, {"time": 145437, "pitch": 46, "duration": 120, "velocity": 72}, {"time": 145678, "pitch": 46, "duration": 120, "velocity": 48}, {"time": 145919, "pitch": 40, "duration": 121, "velocity": 96}, {"time": 145919, "pitch": 46, "duration": 121, "velocity": 72}, {"time": 146160, "pitch": 36, "duration": 121, "velocity": 96}, {"time": 146160, "pitch": 57, "duration": 121, "velocity": 90}, {"time": 146643, "pitch": 36, "duration": 120, "velocity": 96}, {"time": 146884, "pitch": 40, "duration": 118, "velocity": 96}, {"time": 146884, "pitch": 46, "duration": 118, "velocity": 72}, {"time": 147120, "pitch": 46, "duration": 118, "velocity": 48}, {"time": 147356, "pitch": 36, "duration": 121, "velocity": 96}, {"time": 147356, "pitch": 46, "duration": 121, "velocity": 72}, {"time": 147598, "pitch": 46, "duration": 120, "velocity": 48}, {"time": 147839, "pitch": 40, "duration": 120, "velocity": 96}, {"time": 147839, "pitch": 46, "duration": 120, "velocity": 72}, {"time": 148080, "pitch": 46, "duration": 121, "velocity": 48}, {"time": 148321, "pitch": 36, "duration": 121, "velocity": 96}, {"time": 148321, "pitch": 46, "duration": 121, "velocity": 72}, {"time": 148563, "pitch": 46, "duration": 120, "velocity": 48}, {"time": 148804, "pitch": 40, "duration": 118, "velocity": 96}, {"time": 148804, "pitch": 46, "duration": 118, "velocity": 72}, {"time": 149040, "pitch": 46, "duration": 118, "velocity": 48}, {"time": 149276, "pitch": 36, "duration": 121, "velocity": 96}, {"time": 149276, "pitch": 46, "duration": 121, "velocity": 72}, {"time": 149517, "pitch": 46, "duration": 121, "velocity": 48}, {"time": 149759, "pitch": 40, "duration": 120, "velocity": 96}, {"time": 149759, "pitch": 46, "duration": 120, "velocity": 72}, {"time": 150000, "pitch": 36, "duration": 120, "velocity": 96}, {"time": 150000, "pitch": 57, "duration": 120, "velocity": 90}, {"time": 150482, "pitch": 36, "duration": 121, "velocity": 96}, {"time": 150723, "pitch": 40, "duration": 119, "velocity": 96}, {"time": 150723, "pitch": 46, "duration": 119, "velocity": 72}, {"time": 150960, "pitch": 46, "duration": 118, "velocity": 48}, {"time": 151196, "pitch": 36, "duration": 120, "velocity": 96}, {"time": 151196, "pitch": 46, "duration": 120, "velocity": 72}, {"time": 151437, "pitch": 46, "duration": 121, "velocity": 48}, {"time": 151678, "pitch": 40, "duration": 121, "velocity": 96}, {"time": 151678, "pitch": 46, "duration": 121, "velocity": 72}, {"time": 151920, "pitch": 46, "duration": 120, "velocity": 48}, {"time": 152161, "pitch": 36, "duration": 120, "velocity": 96}, {"time": 152161, "pitch": 46, "duration": 120, "velocity": 72}, {"time": 152402, "pitch": 46, "duration": 121, "velocity": 48}, {"time": 152643, "pitch": 40, "duration": 118, "velocity": 96}, {"time": 152643, "pitch": 46, "duration": 118, "velocity": 72}, {"time": 152879, "pitch": 46, "duration": 119, "velocity": 48}, {"time": 153116, "pitch": 36, "duration": 120, "velocity": 96}, {"time": 153116, "pitch": 46, "duration": 120, "velocity": 72}, {"time": 153357, "pitch": 46, "duration": 120, "velocity": 48}, {"time": 153598, "pitch": 40, "duration": 121, "velocity": 96}, {"time": 153598, "pitch": 46, "duration": 121, "velocity": 72}, {"time": 153839, "pitch": 36, "duration": 121, "velocity": 96}, {"time": 153839, "pitch": 57, "duration": 121, "velocity": 90}, {"time": 154322, "pitch": 36, "duration": 120, "velocity": 96}, {"time": 154322, "pitch": 41, "duration": 120, "velocity": 60}, {"time": 154322, "pitch": 45, "duration": 120, "velocity": 60}, {"time": 154563, "pitch": 36, "duration": 118, "velocity": 96}, {"time": 154563, "pitch": 41, "duration": 118, "velocity": 66}, {"time": 154563, "pitch": 45, "duration": 118, "velocity": 66}, {"time": 154799, "pitch": 36, "duration": 118, "velocity": 96}, {"time": 154799, "pitch": 41, "duration": 118, "velocity": 72}, {"time": 154799, "pitch": 45, "duration": 118, "velocity": 72}, {"time": 155035, "pitch": 36, "duration": 121, "velocity": 96}, {"time": 155035, "pitch": 41, "duration": 121, "velocity": 78}, {"time": 155035, "pitch": 45, "duration": 121, "velocity": 78}, {"time": 155277, "pitch": 40, "duration": 120, "velocity": 96}, {"time": 155638, "pitch": 40, "duration": 1, "velocity": 96}, {"time": 155759, "pitch": 40, "duration": 121, "velocity": 96}, {"time": 155880, "pitch": 40, "duration": 121, "velocity": 96}, {"time": 156000, "pitch": 36, "duration": 121, "velocity": 96}, {"time": 156000, "pitch": 57, "duration": 121, "velocity": 90}, {"time": 156242, "pitch": 51, "duration": 120, "velocity": 96}, {"time": 156483, "pitch": 40, "duration": 118, "velocity": 96}, {"time": 156483, "pitch": 51, "duration": 118, "velocity": 114}, {"time": 156719, "pitch": 51, "duration": 118, "velocity": 96}, {"time": 156955, "pitch": 36, "duration": 121, "velocity": 96}, {"time": 156955, "pitch": 51, "duration": 121, "velocity": 114}, {"time": 157196, "pitch": 51, "duration": 121, "velocity": 96}, {"time": 157438, "pitch": 40, "duration": 120, "velocity": 96}, {"time": 157438, "pitch": 51, "duration": 120, "velocity": 114}, {"time": 157679, "pitch": 36, "duration": 120, "velocity": 96}, {"time": 157679, "pitch": 51, "duration": 120, "velocity": 96}, {"time": 157920, "pitch": 51, "duration": 121, "velocity": 108}, {"time": 158161, "pitch": 36, "duration": 121, "velocity": 96}, {"time": 158161, "pitch": 51, "duration": 121, "velocity": 96}, {"time": 158403, "pitch": 40, "duration": 120, "velocity": 96}, {"time": 158403, "pitch": 51, "duration": 120, "velocity": 114}, {"time": 158644, "pitch": 51, "duration": 120, "velocity": 96}, {"time": 158885, "pitch": 36, "duration": 118, "velocity": 96}, {"time": 158885, "pitch": 51, "duration": 118, "velocity": 114}, {"time": 159121, "pitch": 51, "duration": 118, "velocity": 96}, {"time": 159357, "pitch": 40, "duration": 121, "velocity": 96}, {"time": 159357, "pitch": 51, "duration": 121, "velocity": 114}, {"time": 159599, "pitch": 51, "duration": 120, "velocity": 96}, {"time": 159840, "pitch": 36, "duration": 120, "velocity": 96}, {"time": 159840, "pitch": 51, "duration": 120, "velocity": 108}, {"time": 160081, "pitch": 51, "duration": 121, "velocity": 96}, {"time": 160322, "pitch": 40, "duration": 121, "velocity": 96}, {"time": 160322, "pitch": 51, "duration": 121, "velocity": 114}, {"time": 160564, "pitch": 51, "duration": 120, "velocity": 96}, {"time": 160805, "pitch": 36, "duration": 118, "velocity": 96}, {"time": 160805, "pitch": 51, "duration": 118, "velocity": 114}, {"time": 161041, "pitch": 51, "duration": 118, "velocity": 96}, {"time": 161277, "pitch": 40, "duration": 121, "velocity": 96}, {"time": 161277, "pitch": 51, "duration": 121, "velocity": 114}, {"time": 161518, "pitch": 36, "duration": 121, "velocity": 96}, {"time": 161518, "pitch": 51, "duration": 121, "velocity": 96}, {"time": 161760, "pitch": 51, "duration": 120, "velocity": 108}, {"time": 162001, "pitch": 36, "duration": 120, "velocity": 96}, {"time": 162001, "pitch": 51, "duration": 120, "velocity": 96}, {"time": 162242, "pitch": 40, "duration": 121, "velocity": 96}, {"time": 162242, "pitch": 51, "duration": 121, "velocity": 114}, {"time": 162483, "pitch": 51, "duration": 121, "velocity": 96}, {"time": 162724, "pitch": 36, "duration": 119, "velocity": 96}, {"time": 162724, "pitch": 51, "duration": 119, "velocity": 114}, {"time": 162961, "pitch": 51, "duration": 118, "velocity": 96}, {"time": 163197, "pitch": 40, "duration": 120, "velocity": 96}, {"time": 163197, "pitch": 51, "duration": 120, "velocity": 114}, {"time": 163438, "pitch": 51, "duration": 121, "velocity": 96}, {"time": 163679, "pitch": 36, "duration": 121, "velocity": 96}, {"time": 163679, "pitch": 57, "duration": 121, "velocity": 90}, {"time": 163921, "pitch": 42, "duration": 120, "velocity": 57}, {"time": 164162, "pitch": 40, "duration": 120, "velocity": 96}, {"time": 164162, "pitch": 42, "duration": 120, "velocity": 86}, {"time": 164403, "pitch": 42, "duration": 121, "velocity": 58}, {"time": 164644, "pitch": 36, "duration": 118, "velocity": 96}, {"time": 164644, "pitch": 42, "duration": 118, "velocity": 86}, {"time": 164880, "pitch": 42, "duration": 119, "velocity": 57}, {"time": 165117, "pitch": 40, "duration": 120, "velocity": 96}, {"time": 165117, "pitch": 42, "duration": 120, "velocity": 100}, {"time": 165358, "pitch": 36, "duration": 120, "velocity": 96}, {"time": 165358, "pitch": 57, "duration": 120, "velocity": 90}, {"time": 165840, "pitch": 36, "duration": 121, "velocity": 96}, {"time": 165840, "pitch": 42, "duration": 121, "velocity": 57}, {"time": 166082, "pitch": 40, "duration": 120, "velocity": 96}, {"time": 166082, "pitch": 42, "duration": 120, "velocity": 86}, {"time": 166323, "pitch": 42, "duration": 120, "velocity": 58}, {"time": 166564, "pitch": 36, "duration": 118, "velocity": 96}, {"time": 166564, "pitch": 42, "duration": 118, "velocity": 86}, {"time": 166800, "pitch": 42, "duration": 118, "velocity": 57}, {"time": 167036, "pitch": 40, "duration": 121, "velocity": 96}, {"time": 167036, "pitch": 42, "duration": 121, "velocity": 100}, {"time": 167278, "pitch": 42, "duration": 120, "velocity": 57}, {"time": 167519, "pitch": 36, "duration": 120, "velocity": 96}, {"time": 167519, "pitch": 57, "duration": 120, "velocity": 90}, {"time": 167760, "pitch": 42, "duration": 121, "velocity": 57}, {"time": 168001, "pitch": 40, "duration": 121, "velocity": 96}, {"time": 168001, "pitch": 42, "duration": 121, "velocity": 86}, {"time": 168243, "pitch": 42, "duration": 120, "velocity": 58}, {"time": 168484, "pitch": 36, "duration": 118, "velocity": 96}, {"time": 168484, "pitch": 42, "duration": 118, "velocity": 86}, {"time": 168720, "pitch": 42, "duration": 118, "velocity": 57}, {"time": 168956, "pitch": 40, "duration": 121, "velocity": 96}, {"time": 168956, "pitch": 42, "duration": 121, "velocity": 100}, {"time": 169197, "pitch": 36, "duration": 121, "velocity": 96}, {"time": 169197, "pitch": 57, "duration": 121, "velocity": 90}, {"time": 169680, "pitch": 36, "duration": 120, "velocity": 96}, {"time": 169680, "pitch": 42, "duration": 120, "velocity": 57}, {"time": 169921, "pitch": 40, "duration": 121, "velocity": 96}, {"time": 169921, "pitch": 42, "duration": 121, "velocity": 86}, {"time": 170162, "pitch": 42, "duration": 121, "velocity": 58}, {"time": 170404, "pitch": 36, "duration": 118, "velocity": 96}, {"time": 170404, "pitch": 42, "duration": 118, "velocity": 86}, {"time": 170640, "pitch": 40, "duration": 118, "velocity": 96}, {"time": 170640, "pitch": 42, "duration": 118, "velocity": 57}, {"time": 170996, "pitch": 40, "duration": 2, "velocity": 96}, {"time": 171117, "pitch": 43, "duration": 121, "velocity": 114}, {"time": 171358, "pitch": 36, "duration": 121, "velocity": 96}, {"time": 171358, "pitch": 57, "duration": 121, "velocity": 90}, {"time": 171600, "pitch": 51, "duration": 120, "velocity": 108}, {"time": 171841, "pitch": 40, "duration": 120, "velocity": 96}, {"time": 171841, "pitch": 51, "duration": 120, "velocity": 126}, {"time": 172082, "pitch": 51, "duration": 121, "velocity": 108}, {"time": 172323, "pitch": 36, "duration": 118, "velocity": 96}, {"time": 172323, "pitch": 51, "duration": 118, "velocity": 126}, {"time": 172559, "pitch": 51, "duration": 119, "velocity": 108}, {"time": 172796, "pitch": 40, "duration": 120, "velocity": 96}, {"time": 172796, "pitch": 51, "duration": 120, "velocity": 126}, {"time": 173037, "pitch": 36, "duration": 120, "velocity": 96}, {"time": 173037, "pitch": 51, "duration": 120, "velocity": 108}, {"time": 173278, "pitch": 51, "duration": 121, "velocity": 120}, {"time": 173519, "pitch": 36, "duration": 121, "velocity": 96}, {"time": 173519, "pitch": 51, "duration": 121, "velocity": 108}, {"time": 173761, "pitch": 40, "duration": 120, "velocity": 96}, {"time": 173761, "pitch": 51, "duration": 120, "velocity": 126}, {"time": 174002, "pitch": 51, "duration": 120, "velocity": 108}, {"time": 174243, "pitch": 36, "duration": 118, "velocity": 96}, {"time": 174243, "pitch": 51, "duration": 118, "velocity": 126}, {"time": 174479, "pitch": 51, "duration": 118, "velocity": 108}, {"time": 174715, "pitch": 40, "duration": 121, "velocity": 96}, {"time": 174715, "pitch": 51, "duration": 121, "velocity": 126}, {"time": 174957, "pitch": 51, "duration": 120, "velocity": 96}, {"time": 175198, "pitch": 36, "duration": 120, "velocity": 96}, {"time": 175198, "pitch": 51, "duration": 120, "velocity": 109}, {"time": 175439, "pitch": 51, "duration": 121, "velocity": 97}, {"time": 175680, "pitch": 40, "duration": 121, "velocity": 96}, {"time": 175680, "pitch": 51, "duration": 121, "velocity": 115}, {"time": 175922, "pitch": 51, "duration": 120, "velocity": 97}, {"time": 176163, "pitch": 36, "duration": 118, "velocity": 96}, {"time": 176163, "pitch": 51, "duration": 118, "velocity": 115}, {"time": 176399, "pitch": 51, "duration": 118, "velocity": 97}, {"time": 176635, "pitch": 40, "duration": 121, "velocity": 96}, {"time": 176635, "pitch": 51, "duration": 121, "velocity": 115}, {"time": 176876, "pitch": 36, "duration": 121, "velocity": 96}, {"time": 176876, "pitch": 51, "duration": 121, "velocity": 97}, {"time": 177118, "pitch": 51, "duration": 120, "velocity": 109}, {"time": 177359, "pitch": 36, "duration": 120, "velocity": 96}, {"time": 177359, "pitch": 51, "duration": 120, "velocity": 97}, {"time": 177600, "pitch": 40, "duration": 121, "velocity": 96}, {"time": 177600, "pitch": 51, "duration": 121, "velocity": 115}, {"time": 177841, "pitch": 51, "duration": 121, "velocity": 97}, {"time": 178083, "pitch": 36, "duration": 118, "velocity": 96}, {"time": 178083, "pitch": 51, "duration": 118, "velocity": 115}, {"time": 178319, "pitch": 51, "duration": 118, "velocity": 97}, {"time": 178555, "pitch": 40, "duration": 121, "velocity": 96}, {"time": 178555, "pitch": 51, "duration": 121, "velocity": 115}, {"time": 178796, "pitch": 51, "duration": 121, "velocity": 96}, {"time": 179037, "pitch": 36, "duration": 121, "velocity": 96}, {"time": 179037, "pitch": 57, "duration": 121, "velocity": 90}, {"time": 179279, "pitch": 42, "duration": 120, "velocity": 57}, {"time": 179520, "pitch": 40, "duration": 121, "velocity": 96}, {"time": 179520, "pitch": 42, "duration": 121, "velocity": 86}, {"time": 179761, "pitch": 42, "duration": 121, "velocity": 58}, {"time": 180002, "pitch": 36, "duration": 121, "velocity": 96}, {"time": 180002, "pitch": 42, "duration": 121, "velocity": 86}, {"time": 180244, "pitch": 42, "duration": 120, "velocity": 57}, {"time": 180485, "pitch": 40, "duration": 118, "velocity": 96}, {"time": 180485, "pitch": 42, "duration": 118, "velocity": 100}, {"time": 180721, "pitch": 36, "duration": 118, "velocity": 96}, {"time": 180721, "pitch": 57, "duration": 118, "velocity": 90}, {"time": 181198, "pitch": 36, "duration": 121, "velocity": 96}, {"time": 181198, "pitch": 42, "duration": 121, "velocity": 57}, {"time": 181440, "pitch": 40, "duration": 120, "velocity": 96}, {"time": 181440, "pitch": 42, "duration": 120, "velocity": 86}, {"time": 181681, "pitch": 42, "duration": 121, "velocity": 58}, {"time": 181922, "pitch": 36, "duration": 121, "velocity": 96}, {"time": 181922, "pitch": 42, "duration": 121, "velocity": 86}, {"time": 182163, "pitch": 42, "duration": 121, "velocity": 57}, {"time": 182405, "pitch": 40, "duration": 118, "velocity": 96}, {"time": 182405, "pitch": 42, "duration": 118, "velocity": 100}, {"time": 182641, "pitch": 42, "duration": 118, "velocity": 57}, {"time": 182877, "pitch": 36, "duration": 121, "velocity": 96}, {"time": 182877, "pitch": 57, "duration": 121, "velocity": 90}, {"time": 183118, "pitch": 42, "duration": 121, "velocity": 57}, {"time": 183359, "pitch": 40, "duration": 121, "velocity": 96}, {"time": 183359, "pitch": 42, "duration": 121, "velocity": 86}, {"time": 183601, "pitch": 42, "duration": 120, "velocity": 58}, {"time": 183842, "pitch": 40, "duration": 121, "velocity": 96}, {"time": 183842, "pitch": 42, "duration": 121, "velocity": 86}, {"time": 184083, "pitch": 42, "duration": 121, "velocity": 57}, {"time": 184083, "pitch": 43, "duration": 121, "velocity": 96}, {"time": 184324, "pitch": 41, "duration": 118, "velocity": 96}, {"time": 184324, "pitch": 42, "duration": 118, "velocity": 100}, {"time": 184560, "pitch": 36, "duration": 119, "velocity": 96}, {"time": 184560, "pitch": 57, "duration": 119, "velocity": 90}], "annotations": [{"time": 200, "annotation": {"number": 0, "value": 0}, "group": "control_change"}, {"time": 220, "annotation": {"number": 32, "value": 2}, "group": "control_change"}, {"time": 300, "annotation": {"number": 7, "value": 120}, "group": "control_change"}, {"time": 320, "annotation": {"number": 11, "value": 115}, "group": "control_change"}, {"time": 340, "annotation": {"number": 91, "value": 20}, "group": "control_change"}, {"time": 360, "annotation": {"number": 101, "value": 127}, "group": "control_change"}, {"time": 380, "annotation": {"number": 100, "value": 127}, "group": "control_change"}]}, {"program": 0, "is_drum": false, "name": "SE", "annotations": [{"time": 200, "annotation": {"number": 0, "value": 0}, "group": "control_change"}, {"time": 220, "annotation": {"number": 32, "value": 2}, "group": "control_change"}]}, {"program": 127, "is_drum": false, "name": "SE", "notes": [{"time": 184797, "pitch": 10, "duration": 3839, "velocity": 100}], "annotations": [{"time": 300, "annotation": {"number": 7, "value": 110}, "group": "control_change"}, {"time": 320, "annotation": {"number": 11, "value": 100}, "group": "control_change"}, {"time": 340, "annotation": {"number": 10, "value": 64}, "group": "control_change"}, {"time": 360, "annotation": {"number": 91, "value": 40}, "group": "control_change"}, {"time": 380, "annotation": {"number": 93, "value": 0}, "group": "control_change"}, {"time": 400, "annotation": {"number": 101, "value": 0}, "group": "control_change"}, {"time": 420, "annotation": {"number": 100, "value": 0}, "group": "control_change"}, {"time": 440, "annotation": {"number": 6, "value": 12}, "group": "control_change"}, {"time": 460, "annotation": {"number": 101, "value": 127}, "group": "control_change"}, {"time": 480, "annotation": {"number": 100, "value": 127}, "group": "control_change"}]}]}