{"metadata": {"schema_version": "0.1", "title": "RWC-MDB-P-2001 No. 45: Hajimari / Kousuke Morimoto", "copyright": "RWC Music Database. Copyright (C) 2001 Real World Computing Partnership (contact: Masataka GOTO <m.goto@aist.go.jp>)", "source_filename": "RM-P045.SMF_SYNC.MID", "source_format": "midi"}, "resolution": 480, "tempos": [{"time": 0, "qpm": 58.8235294117647}, {"time": 480, "qpm": 77.92207792207792}, {"time": 960, "qpm": 75.9493670886076}, {"time": 1440, "qpm": 76.92307692307692}, {"time": 2400, "qpm": 77.92207792207792}, {"time": 2880, "qpm": 76.92307692307692}, {"time": 3360, "qpm": 75.9493670886076}, {"time": 3840, "qpm": 76.92307692307692}, {"time": 4800, "qpm": 77.92207792207792}, {"time": 5280, "qpm": 76.92307692307692}, {"time": 8640, "qpm": 77.92207792207792}, {"time": 9120, "qpm": 76.92307692307692}, {"time": 13920, "qpm": 77.92207792207792}, {"time": 14400, "qpm": 75.9493670886076}, {"time": 14880, "qpm": 76.92307692307692}, {"time": 15360, "qpm": 77.92207792207792}, {"time": 15840, "qpm": 76.92307692307692}, {"time": 20640, "qpm": 77.92207792207792}, {"time": 21120, "qpm": 75.9493670886076}, {"time": 21600, "qpm": 77.92207792207792}, {"time": 22080, "qpm": 76.92307692307692}, {"time": 27840, "qpm": 77.92207792207792}, {"time": 28320, "qpm": 76.92307692307692}, {"time": 31680, "qpm": 77.92207792207792}, {"time": 32160, "qpm": 75.9493670886076}, {"time": 32640, "qpm": 76.92307692307692}, {"time": 35040, "qpm": 77.92207792207792}, {"time": 35520, "qpm": 76.92307692307692}, {"time": 39360, "qpm": 77.92207792207792}, {"time": 39840, "qpm": 76.92307692307692}, {"time": 40320, "qpm": 75.9493670886076}, {"time": 40800, "qpm": 77.92207792207792}, {"time": 41280, "qpm": 76.92307692307692}, {"time": 42240, "qpm": 75.9493670886076}, {"time": 42720, "qpm": 77.92207792207792}, {"time": 43200, "qpm": 76.92307692307692}, {"time": 47040, "qpm": 77.92207792207792}, {"time": 47520, "qpm": 76.92307692307692}, {"time": 50880, "qpm": 77.92207792207792}, {"time": 51360, "qpm": 76.92307692307692}, {"time": 51840, "qpm": 75.9493670886076}, {"time": 52320, "qpm": 77.92207792207792}, {"time": 52800, "qpm": 76.92307692307692}, {"time": 56160, "qpm": 77.92207792207792}, {"time": 56640, "qpm": 75.9493670886076}, {"time": 57120, "qpm": 77.92207792207792}, {"time": 57600, "qpm": 75.9493670886076}, {"time": 58080, "qpm": 76.92307692307692}, {"time": 58560, "qpm": 77.92207792207792}, {"time": 59040, "qpm": 76.92307692307692}, {"time": 61920, "qpm": 77.92207792207792}, {"time": 62400, "qpm": 76.92307692307692}, {"time": 62880, "qpm": 75.9493670886076}, {"time": 63360, "qpm": 76.92307692307692}, {"time": 63840, "qpm": 77.92207792207792}, {"time": 64320, "qpm": 75.9493670886076}, {"time": 64800, "qpm": 77.92207792207792}, {"time": 65280, "qpm": 75.9493670886076}, {"time": 65760, "qpm": 76.92307692307692}, {"time": 66240, "qpm": 77.92207792207792}, {"time": 66720, "qpm": 76.92307692307692}, {"time": 70080, "qpm": 77.92207792207792}, {"time": 70560, "qpm": 75.9493670886076}, {"time": 71040, "qpm": 76.92307692307692}, {"time": 71520, "qpm": 77.92207792207792}, {"time": 72000, "qpm": 76.92307692307692}, {"time": 75840, "qpm": 77.92207792207792}, {"time": 76320, "qpm": 75.9493670886076}, {"time": 76800, "qpm": 76.92307692307692}, {"time": 77760, "qpm": 77.92207792207792}, {"time": 78240, "qpm": 76.92307692307692}, {"time": 78720, "qpm": 75.9493670886076}, {"time": 79200, "qpm": 77.92207792207792}, {"time": 79680, "qpm": 76.92307692307692}, {"time": 83040, "qpm": 77.92207792207792}, {"time": 83520, "qpm": 75.9493670886076}, {"time": 84000, "qpm": 77.92207792207792}, {"time": 84480, "qpm": 75.9493670886076}, {"time": 84960, "qpm": 77.92207792207792}, {"time": 85440, "qpm": 76.92307692307692}, {"time": 89280, "qpm": 77.92207792207792}, {"time": 89760, "qpm": 76.92307692307692}, {"time": 90240, "qpm": 75.9493670886076}, {"time": 90720, "qpm": 77.92207792207792}, {"time": 91200, "qpm": 76.92307692307692}, {"time": 95040, "qpm": 77.92207792207792}, {"time": 95520, "qpm": 76.92307692307692}, {"time": 96000, "qpm": 75.9493670886076}, {"time": 96480, "qpm": 76.92307692307692}, {"time": 96960, "qpm": 77.92207792207792}, {"time": 97440, "qpm": 76.92307692307692}, {"time": 100800, "qpm": 77.92207792207792}, {"time": 101280, "qpm": 75.9493670886076}, {"time": 101760, "qpm": 77.92207792207792}, {"time": 102240, "qpm": 76.92307692307692}, {"time": 108480, "qpm": 77.92207792207792}, {"time": 108960, "qpm": 76.92307692307692}, {"time": 114240, "qpm": 77.92207792207792}, {"time": 114720, "qpm": 76.92307692307692}, {"time": 120000, "qpm": 77.92207792207792}, {"time": 120480, "qpm": 75.9493670886076}, {"time": 120960, "qpm": 77.92207792207792}, {"time": 121440, "qpm": 76.92307692307692}, {"time": 125760, "qpm": 77.92207792207792}, {"time": 126240, "qpm": 76.92307692307692}, {"time": 127200, "qpm": 75.9493670886076}, {"time": 127680, "qpm": 77.92207792207792}, {"time": 128160, "qpm": 76.92307692307692}, {"time": 131040, "qpm": 77.92207792207792}, {"time": 131520, "qpm": 76.92307692307692}, {"time": 133440, "qpm": 75.9493670886076}, {"time": 133920, "qpm": 77.92207792207792}, {"time": 134400, "qpm": 76.92307692307692}], "key_signatures": [{"time": 0, "root": 9, "mode": "major"}], "time_signatures": [{"time": 0, "numerator": 3, "denominator": 4}, {"time": 1440, "numerator": 4, "denominator": 4}], "tracks": [{"program": 0, "is_drum": false, "name": "BASS", "annotations": [{"time": 160, "annotation": {"number": 0, "value": 0}, "group": "control_change"}, {"time": 176, "annotation": {"number": 32, "value": 2}, "group": "control_change"}]}, {"program": 33, "is_drum": false, "name": "BASS", "notes": [{"time": 1442, "pitch": 30, "duration": 440, "velocity": 120}, {"time": 1922, "pitch": 30, "duration": 439, "velocity": 105}, {"time": 2401, "pitch": 30, "duration": 160, "velocity": 103}, {"time": 2641, "pitch": 30, "duration": 280, "velocity": 107}, {"time": 3041, "pitch": 40, "duration": 319, "velocity": 122}, {"time": 3360, "pitch": 38, "duration": 400, "velocity": 120}, {"time": 3840, "pitch": 38, "duration": 400, "velocity": 110}, {"time": 4240, "pitch": 33, "duration": 39, "velocity": 96}, {"time": 4319, "pitch": 38, "duration": 160, "velocity": 110}, {"time": 4559, "pitch": 38, "duration": 240, "velocity": 103}, {"time": 4959, "pitch": 40, "duration": 319, "velocity": 122}, {"time": 5278, "pitch": 30, "duration": 440, "velocity": 120}, {"time": 5758, "pitch": 30, "duration": 440, "velocity": 105}, {"time": 6238, "pitch": 30, "duration": 159, "velocity": 103}, {"time": 6477, "pitch": 30, "duration": 280, "velocity": 107}, {"time": 6879, "pitch": 40, "duration": 324, "velocity": 119}, {"time": 7203, "pitch": 38, "duration": 399, "velocity": 120}, {"time": 7682, "pitch": 38, "duration": 400, "velocity": 110}, {"time": 8082, "pitch": 33, "duration": 40, "velocity": 96}, {"time": 8162, "pitch": 38, "duration": 160, "velocity": 110}, {"time": 8402, "pitch": 38, "duration": 239, "velocity": 103}, {"time": 8801, "pitch": 40, "duration": 320, "velocity": 122}, {"time": 9121, "pitch": 33, "duration": 439, "velocity": 119}, {"time": 9600, "pitch": 33, "duration": 440, "velocity": 117}, {"time": 10080, "pitch": 38, "duration": 160, "velocity": 110}, {"time": 10240, "pitch": 33, "duration": 40, "velocity": 86}, {"time": 10320, "pitch": 38, "duration": 679, "velocity": 100}, {"time": 11039, "pitch": 40, "duration": 439, "velocity": 120}, {"time": 11518, "pitch": 40, "duration": 440, "velocity": 117}, {"time": 11998, "pitch": 33, "duration": 439, "velocity": 119}, {"time": 12477, "pitch": 32, "duration": 440, "velocity": 110}, {"time": 12957, "pitch": 30, "duration": 445, "velocity": 120}, {"time": 13443, "pitch": 30, "duration": 439, "velocity": 117}, {"time": 13922, "pitch": 37, "duration": 160, "velocity": 110}, {"time": 14082, "pitch": 32, "duration": 40, "velocity": 86}, {"time": 14162, "pitch": 37, "duration": 679, "velocity": 110}, {"time": 14881, "pitch": 38, "duration": 440, "velocity": 120}, {"time": 15361, "pitch": 38, "duration": 439, "velocity": 117}, {"time": 15840, "pitch": 40, "duration": 160, "velocity": 110}, {"time": 16000, "pitch": 35, "duration": 40, "velocity": 86}, {"time": 16080, "pitch": 40, "duration": 679, "velocity": 110}, {"time": 16799, "pitch": 33, "duration": 440, "velocity": 119}, {"time": 17279, "pitch": 33, "duration": 439, "velocity": 117}, {"time": 17758, "pitch": 38, "duration": 160, "velocity": 110}, {"time": 17918, "pitch": 33, "duration": 40, "velocity": 86}, {"time": 17998, "pitch": 38, "duration": 679, "velocity": 100}, {"time": 18717, "pitch": 40, "duration": 446, "velocity": 120}, {"time": 19203, "pitch": 40, "duration": 440, "velocity": 117}, {"time": 19683, "pitch": 33, "duration": 439, "velocity": 119}, {"time": 20162, "pitch": 32, "duration": 440, "velocity": 110}, {"time": 20642, "pitch": 30, "duration": 439, "velocity": 120}, {"time": 21121, "pitch": 30, "duration": 440, "velocity": 117}, {"time": 21601, "pitch": 37, "duration": 159, "velocity": 110}, {"time": 21760, "pitch": 32, "duration": 40, "velocity": 86}, {"time": 21840, "pitch": 37, "duration": 680, "velocity": 110}, {"time": 22560, "pitch": 38, "duration": 439, "velocity": 120}, {"time": 23039, "pitch": 40, "duration": 440, "velocity": 117}, {"time": 23519, "pitch": 33, "duration": 160, "velocity": 117}, {"time": 23679, "pitch": 28, "duration": 79, "velocity": 91}, {"time": 23758, "pitch": 33, "duration": 360, "velocity": 117}, {"time": 24158, "pitch": 28, "duration": 80, "velocity": 94}, {"time": 24238, "pitch": 33, "duration": 240, "velocity": 103}, {"time": 24478, "pitch": 35, "duration": 439, "velocity": 119}, {"time": 24957, "pitch": 35, "duration": 405, "velocity": 103}, {"time": 25362, "pitch": 30, "duration": 81, "velocity": 98}, {"time": 25443, "pitch": 35, "duration": 200, "velocity": 110}, {"time": 25603, "pitch": 30, "duration": 80, "velocity": 94}, {"time": 25683, "pitch": 35, "duration": 399, "velocity": 106}, {"time": 26082, "pitch": 30, "duration": 80, "velocity": 87}, {"time": 26162, "pitch": 35, "duration": 240, "velocity": 103}, {"time": 26402, "pitch": 30, "duration": 440, "velocity": 119}, {"time": 26881, "pitch": 30, "duration": 400, "velocity": 103}, {"time": 27281, "pitch": 37, "duration": 80, "velocity": 98}, {"time": 27361, "pitch": 30, "duration": 200, "velocity": 110}, {"time": 27521, "pitch": 25, "duration": 80, "velocity": 94}, {"time": 27601, "pitch": 30, "duration": 240, "velocity": 106}, {"time": 27841, "pitch": 28, "duration": 239, "velocity": 120}, {"time": 28080, "pitch": 40, "duration": 240, "velocity": 112}, {"time": 28320, "pitch": 38, "duration": 440, "velocity": 119}, {"time": 28800, "pitch": 38, "duration": 399, "velocity": 103}, {"time": 29199, "pitch": 33, "duration": 80, "velocity": 98}, {"time": 29279, "pitch": 38, "duration": 200, "velocity": 110}, {"time": 29439, "pitch": 33, "duration": 80, "velocity": 94}, {"time": 29519, "pitch": 38, "duration": 240, "velocity": 106}, {"time": 29759, "pitch": 39, "duration": 479, "velocity": 120}, {"time": 30238, "pitch": 40, "duration": 240, "velocity": 117}, {"time": 30478, "pitch": 28, "duration": 240, "velocity": 105}, {"time": 30718, "pitch": 28, "duration": 239, "velocity": 107}, {"time": 30957, "pitch": 28, "duration": 240, "velocity": 94}, {"time": 31197, "pitch": 28, "duration": 243, "velocity": 117}, {"time": 31440, "pitch": 40, "duration": 243, "velocity": 102}, {"time": 31683, "pitch": 40, "duration": 240, "velocity": 117}, {"time": 31923, "pitch": 40, "duration": 239, "velocity": 110}, {"time": 32162, "pitch": 33, "duration": 240, "velocity": 119}, {"time": 32402, "pitch": 33, "duration": 240, "velocity": 104}, {"time": 32642, "pitch": 33, "duration": 240, "velocity": 119}, {"time": 32882, "pitch": 33, "duration": 199, "velocity": 99}, {"time": 33081, "pitch": 28, "duration": 12, "velocity": 99}, {"time": 33121, "pitch": 32, "duration": 240, "velocity": 115}, {"time": 33361, "pitch": 32, "duration": 240, "velocity": 105}, {"time": 33601, "pitch": 32, "duration": 240, "velocity": 110}, {"time": 33841, "pitch": 32, "duration": 199, "velocity": 103}, {"time": 34080, "pitch": 38, "duration": 240, "velocity": 119}, {"time": 34320, "pitch": 38, "duration": 240, "velocity": 104}, {"time": 34560, "pitch": 38, "duration": 240, "velocity": 119}, {"time": 34800, "pitch": 38, "duration": 200, "velocity": 99}, {"time": 35039, "pitch": 33, "duration": 240, "velocity": 115}, {"time": 35279, "pitch": 33, "duration": 240, "velocity": 105}, {"time": 35519, "pitch": 32, "duration": 200, "velocity": 110}, {"time": 35719, "pitch": 27, "duration": 12, "velocity": 99}, {"time": 35759, "pitch": 32, "duration": 240, "velocity": 103}, {"time": 35999, "pitch": 30, "duration": 239, "velocity": 119}, {"time": 36238, "pitch": 30, "duration": 240, "velocity": 104}, {"time": 36478, "pitch": 30, "duration": 240, "velocity": 119}, {"time": 36718, "pitch": 30, "duration": 200, "velocity": 99}, {"time": 36918, "pitch": 25, "duration": 12, "velocity": 99}, {"time": 36958, "pitch": 35, "duration": 239, "velocity": 115}, {"time": 37197, "pitch": 35, "duration": 240, "velocity": 105}, {"time": 37437, "pitch": 35, "duration": 283, "velocity": 110}, {"time": 37680, "pitch": 35, "duration": 40, "velocity": 103}, {"time": 37923, "pitch": 38, "duration": 240, "velocity": 119}, {"time": 38163, "pitch": 38, "duration": 239, "velocity": 104}, {"time": 38402, "pitch": 38, "duration": 240, "velocity": 119}, {"time": 38642, "pitch": 38, "duration": 200, "velocity": 99}, {"time": 38882, "pitch": 28, "duration": 240, "velocity": 115}, {"time": 39122, "pitch": 28, "duration": 239, "velocity": 105}, {"time": 39361, "pitch": 40, "duration": 240, "velocity": 110}, {"time": 39601, "pitch": 40, "duration": 240, "velocity": 103}, {"time": 39841, "pitch": 33, "duration": 240, "velocity": 119}, {"time": 40081, "pitch": 33, "duration": 239, "velocity": 104}, {"time": 40320, "pitch": 33, "duration": 240, "velocity": 119}, {"time": 40560, "pitch": 33, "duration": 200, "velocity": 99}, {"time": 40760, "pitch": 28, "duration": 12, "velocity": 99}, {"time": 40800, "pitch": 32, "duration": 240, "velocity": 115}, {"time": 41040, "pitch": 32, "duration": 239, "velocity": 105}, {"time": 41279, "pitch": 32, "duration": 240, "velocity": 110}, {"time": 41519, "pitch": 32, "duration": 200, "velocity": 103}, {"time": 41759, "pitch": 38, "duration": 240, "velocity": 119}, {"time": 41999, "pitch": 38, "duration": 239, "velocity": 104}, {"time": 42238, "pitch": 38, "duration": 240, "velocity": 119}, {"time": 42478, "pitch": 38, "duration": 200, "velocity": 99}, {"time": 42718, "pitch": 33, "duration": 240, "velocity": 115}, {"time": 42958, "pitch": 33, "duration": 239, "velocity": 105}, {"time": 43197, "pitch": 32, "duration": 200, "velocity": 110}, {"time": 43397, "pitch": 27, "duration": 12, "velocity": 99}, {"time": 43437, "pitch": 32, "duration": 240, "velocity": 103}, {"time": 43677, "pitch": 30, "duration": 243, "velocity": 119}, {"time": 43920, "pitch": 30, "duration": 243, "velocity": 104}, {"time": 44163, "pitch": 30, "duration": 239, "velocity": 119}, {"time": 44402, "pitch": 30, "duration": 200, "velocity": 99}, {"time": 44602, "pitch": 25, "duration": 12, "velocity": 99}, {"time": 44642, "pitch": 35, "duration": 240, "velocity": 115}, {"time": 44882, "pitch": 35, "duration": 240, "velocity": 105}, {"time": 45122, "pitch": 35, "duration": 279, "velocity": 110}, {"time": 45361, "pitch": 35, "duration": 40, "velocity": 103}, {"time": 45601, "pitch": 38, "duration": 240, "velocity": 119}, {"time": 45841, "pitch": 38, "duration": 240, "velocity": 104}, {"time": 46081, "pitch": 38, "duration": 240, "velocity": 119}, {"time": 46321, "pitch": 38, "duration": 199, "velocity": 99}, {"time": 46560, "pitch": 28, "duration": 240, "velocity": 115}, {"time": 46800, "pitch": 28, "duration": 240, "velocity": 105}, {"time": 47040, "pitch": 40, "duration": 240, "velocity": 110}, {"time": 47280, "pitch": 40, "duration": 239, "velocity": 103}, {"time": 47519, "pitch": 38, "duration": 440, "velocity": 119}, {"time": 47999, "pitch": 38, "duration": 399, "velocity": 103}, {"time": 48398, "pitch": 33, "duration": 80, "velocity": 98}, {"time": 48478, "pitch": 38, "duration": 200, "velocity": 110}, {"time": 48638, "pitch": 33, "duration": 80, "velocity": 94}, {"time": 48718, "pitch": 38, "duration": 400, "velocity": 106}, {"time": 49118, "pitch": 33, "duration": 80, "velocity": 87}, {"time": 49198, "pitch": 38, "duration": 239, "velocity": 103}, {"time": 49437, "pitch": 37, "duration": 446, "velocity": 119}, {"time": 49923, "pitch": 37, "duration": 400, "velocity": 103}, {"time": 50323, "pitch": 32, "duration": 80, "velocity": 98}, {"time": 50403, "pitch": 37, "duration": 199, "velocity": 110}, {"time": 50562, "pitch": 32, "duration": 80, "velocity": 94}, {"time": 50642, "pitch": 37, "duration": 480, "velocity": 106}, {"time": 51122, "pitch": 37, "duration": 240, "velocity": 112}, {"time": 51362, "pitch": 35, "duration": 439, "velocity": 119}, {"time": 51841, "pitch": 35, "duration": 400, "velocity": 103}, {"time": 52241, "pitch": 30, "duration": 80, "velocity": 98}, {"time": 52321, "pitch": 28, "duration": 199, "velocity": 110}, {"time": 52560, "pitch": 28, "duration": 240, "velocity": 106}, {"time": 52800, "pitch": 40, "duration": 240, "velocity": 108}, {"time": 53040, "pitch": 40, "duration": 240, "velocity": 103}, {"time": 53280, "pitch": 33, "duration": 239, "velocity": 119}, {"time": 53519, "pitch": 33, "duration": 240, "velocity": 119}, {"time": 53759, "pitch": 33, "duration": 400, "velocity": 103}, {"time": 54159, "pitch": 28, "duration": 80, "velocity": 98}, {"time": 54239, "pitch": 40, "duration": 240, "velocity": 110}, {"time": 54399, "pitch": 22, "duration": 80, "velocity": 94}, {"time": 54479, "pitch": 40, "duration": 239, "velocity": 106}, {"time": 54718, "pitch": 40, "duration": 240, "velocity": 108}, {"time": 54958, "pitch": 40, "duration": 240, "velocity": 103}, {"time": 55198, "pitch": 33, "duration": 439, "velocity": 119}, {"time": 55677, "pitch": 33, "duration": 446, "velocity": 117}, {"time": 56163, "pitch": 38, "duration": 160, "velocity": 110}, {"time": 56323, "pitch": 33, "duration": 40, "velocity": 86}, {"time": 56403, "pitch": 38, "duration": 679, "velocity": 100}, {"time": 57122, "pitch": 40, "duration": 440, "velocity": 120}, {"time": 57602, "pitch": 40, "duration": 439, "velocity": 117}, {"time": 58081, "pitch": 33, "duration": 440, "velocity": 119}, {"time": 58561, "pitch": 32, "duration": 439, "velocity": 110}, {"time": 59040, "pitch": 30, "duration": 440, "velocity": 120}, {"time": 59520, "pitch": 30, "duration": 439, "velocity": 117}, {"time": 59999, "pitch": 37, "duration": 160, "velocity": 110}, {"time": 60159, "pitch": 32, "duration": 40, "velocity": 86}, {"time": 60239, "pitch": 37, "duration": 679, "velocity": 110}, {"time": 60958, "pitch": 38, "duration": 440, "velocity": 120}, {"time": 61438, "pitch": 38, "duration": 439, "velocity": 117}, {"time": 61917, "pitch": 40, "duration": 162, "velocity": 110}, {"time": 62079, "pitch": 35, "duration": 41, "velocity": 86}, {"time": 62160, "pitch": 40, "duration": 682, "velocity": 110}, {"time": 62882, "pitch": 33, "duration": 440, "velocity": 119}, {"time": 63362, "pitch": 33, "duration": 439, "velocity": 117}, {"time": 63841, "pitch": 38, "duration": 160, "velocity": 110}, {"time": 64001, "pitch": 33, "duration": 40, "velocity": 86}, {"time": 64081, "pitch": 38, "duration": 680, "velocity": 100}, {"time": 64800, "pitch": 40, "duration": 440, "velocity": 120}, {"time": 65280, "pitch": 40, "duration": 440, "velocity": 117}, {"time": 65760, "pitch": 33, "duration": 439, "velocity": 119}, {"time": 66239, "pitch": 32, "duration": 440, "velocity": 110}, {"time": 66719, "pitch": 30, "duration": 439, "velocity": 120}, {"time": 67198, "pitch": 30, "duration": 440, "velocity": 117}, {"time": 67678, "pitch": 37, "duration": 159, "velocity": 110}, {"time": 67837, "pitch": 32, "duration": 40, "velocity": 86}, {"time": 67917, "pitch": 37, "duration": 685, "velocity": 110}, {"time": 68643, "pitch": 38, "duration": 439, "velocity": 120}, {"time": 69122, "pitch": 40, "duration": 440, "velocity": 117}, {"time": 69602, "pitch": 33, "duration": 160, "velocity": 117}, {"time": 69762, "pitch": 28, "duration": 80, "velocity": 91}, {"time": 69842, "pitch": 33, "duration": 359, "velocity": 117}, {"time": 70241, "pitch": 28, "duration": 80, "velocity": 94}, {"time": 70321, "pitch": 33, "duration": 240, "velocity": 103}, {"time": 70561, "pitch": 35, "duration": 439, "velocity": 119}, {"time": 71040, "pitch": 35, "duration": 400, "velocity": 103}, {"time": 71440, "pitch": 30, "duration": 80, "velocity": 98}, {"time": 71520, "pitch": 35, "duration": 200, "velocity": 110}, {"time": 71680, "pitch": 30, "duration": 80, "velocity": 94}, {"time": 71760, "pitch": 35, "duration": 399, "velocity": 106}, {"time": 72159, "pitch": 30, "duration": 80, "velocity": 87}, {"time": 72239, "pitch": 35, "duration": 240, "velocity": 103}, {"time": 72479, "pitch": 30, "duration": 440, "velocity": 119}, {"time": 72958, "pitch": 30, "duration": 400, "velocity": 103}, {"time": 73358, "pitch": 37, "duration": 80, "velocity": 98}, {"time": 73438, "pitch": 30, "duration": 200, "velocity": 110}, {"time": 73598, "pitch": 25, "duration": 80, "velocity": 94}, {"time": 73678, "pitch": 30, "duration": 240, "velocity": 106}, {"time": 73918, "pitch": 28, "duration": 239, "velocity": 120}, {"time": 74157, "pitch": 40, "duration": 240, "velocity": 112}, {"time": 74397, "pitch": 38, "duration": 445, "velocity": 119}, {"time": 74883, "pitch": 38, "duration": 399, "velocity": 103}, {"time": 75282, "pitch": 33, "duration": 80, "velocity": 98}, {"time": 75362, "pitch": 38, "duration": 200, "velocity": 110}, {"time": 75522, "pitch": 33, "duration": 80, "velocity": 94}, {"time": 75602, "pitch": 38, "duration": 240, "velocity": 106}, {"time": 75842, "pitch": 39, "duration": 479, "velocity": 120}, {"time": 76321, "pitch": 40, "duration": 240, "velocity": 117}, {"time": 76561, "pitch": 28, "duration": 240, "velocity": 105}, {"time": 76801, "pitch": 28, "duration": 240, "velocity": 107}, {"time": 77041, "pitch": 28, "duration": 239, "velocity": 94}, {"time": 77280, "pitch": 28, "duration": 240, "velocity": 117}, {"time": 77520, "pitch": 40, "duration": 240, "velocity": 102}, {"time": 77760, "pitch": 40, "duration": 240, "velocity": 117}, {"time": 78000, "pitch": 40, "duration": 239, "velocity": 110}, {"time": 78239, "pitch": 33, "duration": 240, "velocity": 119}, {"time": 78479, "pitch": 33, "duration": 240, "velocity": 104}, {"time": 78719, "pitch": 33, "duration": 240, "velocity": 119}, {"time": 78959, "pitch": 33, "duration": 199, "velocity": 99}, {"time": 79158, "pitch": 28, "duration": 12, "velocity": 99}, {"time": 79198, "pitch": 32, "duration": 240, "velocity": 115}, {"time": 79438, "pitch": 32, "duration": 240, "velocity": 105}, {"time": 79678, "pitch": 32, "duration": 240, "velocity": 110}, {"time": 79918, "pitch": 32, "duration": 199, "velocity": 103}, {"time": 80157, "pitch": 38, "duration": 240, "velocity": 119}, {"time": 80397, "pitch": 38, "duration": 240, "velocity": 104}, {"time": 80637, "pitch": 38, "duration": 243, "velocity": 119}, {"time": 80880, "pitch": 38, "duration": 202, "velocity": 99}, {"time": 81123, "pitch": 33, "duration": 239, "velocity": 115}, {"time": 81362, "pitch": 33, "duration": 240, "velocity": 105}, {"time": 81602, "pitch": 32, "duration": 200, "velocity": 110}, {"time": 81802, "pitch": 27, "duration": 12, "velocity": 99}, {"time": 81842, "pitch": 32, "duration": 240, "velocity": 103}, {"time": 82082, "pitch": 30, "duration": 239, "velocity": 119}, {"time": 82321, "pitch": 30, "duration": 240, "velocity": 104}, {"time": 82561, "pitch": 30, "duration": 240, "velocity": 119}, {"time": 82801, "pitch": 30, "duration": 200, "velocity": 99}, {"time": 83001, "pitch": 25, "duration": 12, "velocity": 99}, {"time": 83041, "pitch": 35, "duration": 239, "velocity": 115}, {"time": 83280, "pitch": 35, "duration": 240, "velocity": 105}, {"time": 83520, "pitch": 35, "duration": 280, "velocity": 110}, {"time": 83760, "pitch": 35, "duration": 40, "velocity": 103}, {"time": 84000, "pitch": 38, "duration": 240, "velocity": 119}, {"time": 84240, "pitch": 38, "duration": 239, "velocity": 104}, {"time": 84479, "pitch": 38, "duration": 240, "velocity": 119}, {"time": 84719, "pitch": 38, "duration": 200, "velocity": 99}, {"time": 84959, "pitch": 28, "duration": 240, "velocity": 115}, {"time": 85199, "pitch": 28, "duration": 239, "velocity": 105}, {"time": 85438, "pitch": 40, "duration": 240, "velocity": 110}, {"time": 85678, "pitch": 40, "duration": 240, "velocity": 103}, {"time": 85918, "pitch": 33, "duration": 240, "velocity": 119}, {"time": 86158, "pitch": 33, "duration": 239, "velocity": 104}, {"time": 86397, "pitch": 33, "duration": 243, "velocity": 119}, {"time": 86640, "pitch": 33, "duration": 203, "velocity": 99}, {"time": 86843, "pitch": 28, "duration": 12, "velocity": 99}, {"time": 86883, "pitch": 32, "duration": 240, "velocity": 115}, {"time": 87123, "pitch": 32, "duration": 240, "velocity": 105}, {"time": 87363, "pitch": 32, "duration": 239, "velocity": 110}, {"time": 87602, "pitch": 32, "duration": 200, "velocity": 103}, {"time": 87842, "pitch": 38, "duration": 240, "velocity": 119}, {"time": 88082, "pitch": 38, "duration": 240, "velocity": 104}, {"time": 88322, "pitch": 38, "duration": 239, "velocity": 119}, {"time": 88561, "pitch": 38, "duration": 200, "velocity": 99}, {"time": 88801, "pitch": 33, "duration": 240, "velocity": 115}, {"time": 89041, "pitch": 33, "duration": 240, "velocity": 105}, {"time": 89281, "pitch": 32, "duration": 199, "velocity": 110}, {"time": 89480, "pitch": 27, "duration": 12, "velocity": 99}, {"time": 89520, "pitch": 32, "duration": 240, "velocity": 103}, {"time": 89760, "pitch": 30, "duration": 240, "velocity": 119}, {"time": 90000, "pitch": 30, "duration": 240, "velocity": 104}, {"time": 90240, "pitch": 30, "duration": 239, "velocity": 119}, {"time": 90479, "pitch": 30, "duration": 200, "velocity": 99}, {"time": 90679, "pitch": 25, "duration": 12, "velocity": 99}, {"time": 90719, "pitch": 35, "duration": 240, "velocity": 115}, {"time": 90959, "pitch": 35, "duration": 240, "velocity": 105}, {"time": 91199, "pitch": 35, "duration": 279, "velocity": 110}, {"time": 91438, "pitch": 35, "duration": 40, "velocity": 103}, {"time": 91678, "pitch": 38, "duration": 240, "velocity": 119}, {"time": 91918, "pitch": 38, "duration": 240, "velocity": 104}, {"time": 92158, "pitch": 38, "duration": 240, "velocity": 119}, {"time": 92398, "pitch": 38, "duration": 199, "velocity": 99}, {"time": 92637, "pitch": 28, "duration": 243, "velocity": 115}, {"time": 92880, "pitch": 28, "duration": 243, "velocity": 105}, {"time": 93123, "pitch": 40, "duration": 240, "velocity": 110}, {"time": 93363, "pitch": 40, "duration": 239, "velocity": 103}, {"time": 93602, "pitch": 30, "duration": 440, "velocity": 120}, {"time": 94082, "pitch": 30, "duration": 440, "velocity": 105}, {"time": 94562, "pitch": 30, "duration": 159, "velocity": 103}, {"time": 94801, "pitch": 30, "duration": 280, "velocity": 107}, {"time": 95201, "pitch": 40, "duration": 320, "velocity": 122}, {"time": 95521, "pitch": 38, "duration": 399, "velocity": 120}, {"time": 96000, "pitch": 38, "duration": 400, "velocity": 110}, {"time": 96400, "pitch": 33, "duration": 40, "velocity": 96}, {"time": 96480, "pitch": 38, "duration": 159, "velocity": 110}, {"time": 96719, "pitch": 38, "duration": 240, "velocity": 103}, {"time": 97119, "pitch": 40, "duration": 320, "velocity": 122}, {"time": 97439, "pitch": 30, "duration": 439, "velocity": 120}, {"time": 97918, "pitch": 30, "duration": 440, "velocity": 105}, {"time": 98398, "pitch": 30, "duration": 160, "velocity": 103}, {"time": 98637, "pitch": 30, "duration": 281, "velocity": 107}, {"time": 99039, "pitch": 40, "duration": 324, "velocity": 119}, {"time": 99363, "pitch": 38, "duration": 399, "velocity": 120}, {"time": 99842, "pitch": 38, "duration": 400, "velocity": 110}, {"time": 100242, "pitch": 33, "duration": 40, "velocity": 96}, {"time": 100322, "pitch": 38, "duration": 160, "velocity": 110}, {"time": 100562, "pitch": 38, "duration": 239, "velocity": 103}, {"time": 100961, "pitch": 40, "duration": 320, "velocity": 122}, {"time": 101281, "pitch": 30, "duration": 439, "velocity": 120}, {"time": 101760, "pitch": 30, "duration": 440, "velocity": 105}, {"time": 102240, "pitch": 30, "duration": 160, "velocity": 103}, {"time": 102480, "pitch": 30, "duration": 239, "velocity": 107}, {"time": 102719, "pitch": 40, "duration": 440, "velocity": 122}, {"time": 103199, "pitch": 38, "duration": 400, "velocity": 120}, {"time": 103679, "pitch": 38, "duration": 399, "velocity": 110}, {"time": 104078, "pitch": 33, "duration": 40, "velocity": 96}, {"time": 104158, "pitch": 38, "duration": 160, "velocity": 110}, {"time": 104398, "pitch": 38, "duration": 240, "velocity": 103}, {"time": 104638, "pitch": 37, "duration": 319, "velocity": 122}, {"time": 105117, "pitch": 35, "duration": 445, "velocity": 119}, {"time": 105603, "pitch": 35, "duration": 399, "velocity": 103}, {"time": 106082, "pitch": 35, "duration": 200, "velocity": 110}, {"time": 106242, "pitch": 30, "duration": 80, "velocity": 94}, {"time": 106322, "pitch": 35, "duration": 240, "velocity": 106}, {"time": 106562, "pitch": 35, "duration": 240, "velocity": 120}, {"time": 106802, "pitch": 35, "duration": 239, "velocity": 120}, {"time": 107041, "pitch": 40, "duration": 240, "velocity": 117}, {"time": 107281, "pitch": 28, "duration": 240, "velocity": 105}, {"time": 107521, "pitch": 28, "duration": 240, "velocity": 107}, {"time": 107761, "pitch": 28, "duration": 239, "velocity": 94}, {"time": 108000, "pitch": 28, "duration": 240, "velocity": 117}, {"time": 108240, "pitch": 40, "duration": 240, "velocity": 102}, {"time": 108480, "pitch": 40, "duration": 240, "velocity": 117}, {"time": 108720, "pitch": 40, "duration": 239, "velocity": 110}, {"time": 108959, "pitch": 33, "duration": 240, "velocity": 119}, {"time": 109199, "pitch": 33, "duration": 240, "velocity": 104}, {"time": 109439, "pitch": 33, "duration": 240, "velocity": 119}, {"time": 109679, "pitch": 33, "duration": 199, "velocity": 99}, {"time": 109878, "pitch": 28, "duration": 12, "velocity": 99}, {"time": 109918, "pitch": 32, "duration": 240, "velocity": 115}, {"time": 110158, "pitch": 32, "duration": 240, "velocity": 105}, {"time": 110398, "pitch": 32, "duration": 240, "velocity": 110}, {"time": 110638, "pitch": 32, "duration": 200, "velocity": 103}, {"time": 110877, "pitch": 38, "duration": 240, "velocity": 119}, {"time": 111117, "pitch": 38, "duration": 240, "velocity": 104}, {"time": 111357, "pitch": 38, "duration": 243, "velocity": 119}, {"time": 111600, "pitch": 38, "duration": 202, "velocity": 99}, {"time": 111843, "pitch": 33, "duration": 239, "velocity": 115}, {"time": 112082, "pitch": 33, "duration": 240, "velocity": 105}, {"time": 112322, "pitch": 32, "duration": 200, "velocity": 110}, {"time": 112522, "pitch": 27, "duration": 12, "velocity": 99}, {"time": 112562, "pitch": 32, "duration": 240, "velocity": 103}, {"time": 112802, "pitch": 30, "duration": 239, "velocity": 119}, {"time": 113041, "pitch": 30, "duration": 240, "velocity": 104}, {"time": 113281, "pitch": 30, "duration": 240, "velocity": 119}, {"time": 113521, "pitch": 30, "duration": 200, "velocity": 99}, {"time": 113721, "pitch": 25, "duration": 12, "velocity": 99}, {"time": 113761, "pitch": 35, "duration": 240, "velocity": 115}, {"time": 114001, "pitch": 35, "duration": 239, "velocity": 105}, {"time": 114240, "pitch": 35, "duration": 280, "velocity": 110}, {"time": 114480, "pitch": 35, "duration": 40, "velocity": 103}, {"time": 114720, "pitch": 38, "duration": 240, "velocity": 119}, {"time": 114960, "pitch": 38, "duration": 239, "velocity": 104}, {"time": 115199, "pitch": 38, "duration": 240, "velocity": 119}, {"time": 115439, "pitch": 38, "duration": 200, "velocity": 99}, {"time": 115679, "pitch": 28, "duration": 240, "velocity": 115}, {"time": 115919, "pitch": 28, "duration": 239, "velocity": 105}, {"time": 116158, "pitch": 40, "duration": 240, "velocity": 110}, {"time": 116398, "pitch": 40, "duration": 240, "velocity": 103}, {"time": 116638, "pitch": 33, "duration": 240, "velocity": 119}, {"time": 116878, "pitch": 33, "duration": 239, "velocity": 104}, {"time": 117117, "pitch": 33, "duration": 240, "velocity": 119}, {"time": 117357, "pitch": 33, "duration": 200, "velocity": 99}, {"time": 117557, "pitch": 28, "duration": 12, "velocity": 99}, {"time": 117597, "pitch": 32, "duration": 243, "velocity": 115}, {"time": 117840, "pitch": 32, "duration": 243, "velocity": 105}, {"time": 118083, "pitch": 32, "duration": 239, "velocity": 110}, {"time": 118322, "pitch": 32, "duration": 200, "velocity": 103}, {"time": 118562, "pitch": 38, "duration": 240, "velocity": 119}, {"time": 118802, "pitch": 38, "duration": 240, "velocity": 104}, {"time": 119042, "pitch": 38, "duration": 239, "velocity": 119}, {"time": 119281, "pitch": 38, "duration": 200, "velocity": 99}, {"time": 119521, "pitch": 33, "duration": 240, "velocity": 115}, {"time": 119761, "pitch": 33, "duration": 240, "velocity": 105}, {"time": 120001, "pitch": 32, "duration": 199, "velocity": 110}, {"time": 120200, "pitch": 27, "duration": 12, "velocity": 99}, {"time": 120240, "pitch": 32, "duration": 240, "velocity": 103}, {"time": 120480, "pitch": 30, "duration": 240, "velocity": 119}, {"time": 120720, "pitch": 30, "duration": 240, "velocity": 104}, {"time": 120960, "pitch": 30, "duration": 239, "velocity": 119}, {"time": 121199, "pitch": 30, "duration": 200, "velocity": 99}, {"time": 121399, "pitch": 25, "duration": 12, "velocity": 99}, {"time": 121439, "pitch": 35, "duration": 240, "velocity": 115}, {"time": 121679, "pitch": 35, "duration": 240, "velocity": 105}, {"time": 121919, "pitch": 35, "duration": 279, "velocity": 110}, {"time": 122159, "pitch": 35, "duration": 39, "velocity": 103}, {"time": 122398, "pitch": 38, "duration": 240, "velocity": 119}, {"time": 122638, "pitch": 38, "duration": 240, "velocity": 104}, {"time": 122878, "pitch": 38, "duration": 240, "velocity": 119}, {"time": 123118, "pitch": 38, "duration": 199, "velocity": 99}, {"time": 123357, "pitch": 28, "duration": 243, "velocity": 115}, {"time": 123600, "pitch": 28, "duration": 243, "velocity": 105}, {"time": 123843, "pitch": 40, "duration": 240, "velocity": 110}, {"time": 124083, "pitch": 40, "duration": 240, "velocity": 103}, {"time": 124323, "pitch": 38, "duration": 439, "velocity": 119}, {"time": 124802, "pitch": 38, "duration": 400, "velocity": 103}, {"time": 125202, "pitch": 33, "duration": 80, "velocity": 98}, {"time": 125282, "pitch": 38, "duration": 199, "velocity": 110}, {"time": 125441, "pitch": 33, "duration": 80, "velocity": 94}, {"time": 125521, "pitch": 38, "duration": 400, "velocity": 106}, {"time": 125921, "pitch": 33, "duration": 80, "velocity": 87}, {"time": 126001, "pitch": 38, "duration": 240, "velocity": 103}, {"time": 126241, "pitch": 37, "duration": 439, "velocity": 119}, {"time": 126720, "pitch": 37, "duration": 400, "velocity": 103}, {"time": 127120, "pitch": 32, "duration": 80, "velocity": 98}, {"time": 127200, "pitch": 37, "duration": 199, "velocity": 110}, {"time": 127359, "pitch": 32, "duration": 80, "velocity": 94}, {"time": 127439, "pitch": 37, "duration": 480, "velocity": 106}, {"time": 127919, "pitch": 37, "duration": 240, "velocity": 112}, {"time": 128159, "pitch": 35, "duration": 439, "velocity": 119}, {"time": 128638, "pitch": 35, "duration": 400, "velocity": 103}, {"time": 129038, "pitch": 30, "duration": 80, "velocity": 98}, {"time": 129118, "pitch": 28, "duration": 200, "velocity": 110}, {"time": 129357, "pitch": 28, "duration": 240, "velocity": 106}, {"time": 129597, "pitch": 40, "duration": 243, "velocity": 108}, {"time": 129840, "pitch": 40, "duration": 243, "velocity": 103}, {"time": 130083, "pitch": 33, "duration": 240, "velocity": 119}, {"time": 130323, "pitch": 33, "duration": 239, "velocity": 119}, {"time": 130562, "pitch": 33, "duration": 160, "velocity": 103}, {"time": 130722, "pitch": 33, "duration": 80, "velocity": 103}, {"time": 130802, "pitch": 28, "duration": 240, "velocity": 119}, {"time": 131042, "pitch": 33, "duration": 2877, "velocity": 110}], "annotations": [{"time": 224, "annotation": {"number": 7, "value": 92}, "group": "control_change"}, {"time": 240, "annotation": {"number": 11, "value": 127}, "group": "control_change"}, {"time": 256, "annotation": {"number": 10, "value": 66}, "group": "control_change"}, {"time": 288, "annotation": {"number": 91, "value": 0}, "group": "control_change"}, {"time": 304, "annotation": {"number": 93, "value": 0}, "group": "control_change"}, {"time": 320, "annotation": {"number": 94, "value": 0}, "group": "control_change"}, {"time": 368, "annotation": {"number": 101, "value": 0}, "group": "control_change"}, {"time": 384, "annotation": {"number": 100, "value": 0}, "group": "control_change"}, {"time": 400, "annotation": {"number": 6, "value": 12}, "group": "control_change"}, {"time": 432, "annotation": {"number": 99, "value": 1}, "group": "control_change"}, {"time": 448, "annotation": {"number": 98, "value": 8}, "group": "control_change"}, {"time": 464, "annotation": {"number": 6, "value": 64}, "group": "control_change"}, {"time": 495, "annotation": {"number": 99, "value": 1}, "group": "control_change"}, {"time": 551, "annotation": {"number": 98, "value": 9}, "group": "control_change"}, {"time": 606, "annotation": {"number": 6, "value": 64}, "group": "control_change"}, {"time": 717, "annotation": {"number": 99, "value": 1}, "group": "control_change"}, {"time": 772, "annotation": {"number": 98, "value": 10}, "group": "control_change"}, {"time": 827, "annotation": {"number": 6, "value": 64}, "group": "control_change"}, {"time": 882, "annotation": {"number": 74, "value": 64}, "group": "control_change"}, {"time": 938, "annotation": {"number": 71, "value": 64}, "group": "control_change"}, {"time": 993, "annotation": {"number": 73, "value": 64}, "group": "control_change"}, {"time": 1048, "annotation": {"number": 99, "value": 1}, "group": "control_change"}, {"time": 1103, "annotation": {"number": 98, "value": 100}, "group": "control_change"}, {"time": 1159, "annotation": {"number": 6, "value": 62}, "group": "control_change"}, {"time": 1214, "annotation": {"number": 72, "value": 64}, "group": "control_change"}, {"time": 1269, "annotation": {"number": 101, "value": 127}, "group": "control_change"}, {"time": 1325, "annotation": {"number": 100, "value": 127}, "group": "control_change"}, {"time": 132920, "annotation": {"number": 11, "value": 127}, "group": "control_change"}, {"time": 132935, "annotation": {"number": 11, "value": 125}, "group": "control_change"}, {"time": 132951, "annotation": {"number": 11, "value": 123}, "group": "control_change"}, {"time": 132967, "annotation": {"number": 11, "value": 121}, "group": "control_change"}, {"time": 132983, "annotation": {"number": 11, "value": 119}, "group": "control_change"}, {"time": 132999, "annotation": {"number": 11, "value": 116}, "group": "control_change"}, {"time": 133015, "annotation": {"number": 11, "value": 114}, "group": "control_change"}, {"time": 133031, "annotation": {"number": 11, "value": 112}, "group": "control_change"}, {"time": 133047, "annotation": {"number": 11, "value": 110}, "group": "control_change"}, {"time": 133062, "annotation": {"number": 11, "value": 108}, "group": "control_change"}, {"time": 133078, "annotation": {"number": 11, "value": 106}, "group": "control_change"}, {"time": 133094, "annotation": {"number": 11, "value": 104}, "group": "control_change"}, {"time": 133110, "annotation": {"number": 11, "value": 102}, "group": "control_change"}, {"time": 133126, "annotation": {"number": 11, "value": 100}, "group": "control_change"}, {"time": 133142, "annotation": {"number": 11, "value": 98}, "group": "control_change"}, {"time": 133158, "annotation": {"number": 11, "value": 96}, "group": "control_change"}, {"time": 133174, "annotation": {"number": 11, "value": 94}, "group": "control_change"}, {"time": 133189, "annotation": {"number": 11, "value": 92}, "group": "control_change"}, {"time": 133205, "annotation": {"number": 11, "value": 90}, "group": "control_change"}, {"time": 133221, "annotation": {"number": 11, "value": 88}, "group": "control_change"}, {"time": 133237, "annotation": {"number": 11, "value": 86}, "group": "control_change"}, {"time": 133253, "annotation": {"number": 11, "value": 84}, "group": "control_change"}, {"time": 133269, "annotation": {"number": 11, "value": 82}, "group": "control_change"}, {"time": 133285, "annotation": {"number": 11, "value": 80}, "group": "control_change"}, {"time": 133301, "annotation": {"number": 11, "value": 78}, "group": "control_change"}, {"time": 133316, "annotation": {"number": 11, "value": 76}, "group": "control_change"}, {"time": 133332, "annotation": {"number": 11, "value": 74}, "group": "control_change"}, {"time": 133348, "annotation": {"number": 11, "value": 72}, "group": "control_change"}, {"time": 133364, "annotation": {"number": 11, "value": 70}, "group": "control_change"}, {"time": 133380, "annotation": {"number": 11, "value": 68}, "group": "control_change"}, {"time": 133396, "annotation": {"number": 11, "value": 66}, "group": "control_change"}, {"time": 133412, "annotation": {"number": 11, "value": 64}, "group": "control_change"}, {"time": 133427, "annotation": {"number": 11, "value": 62}, "group": "control_change"}, {"time": 133443, "annotation": {"number": 11, "value": 60}, "group": "control_change"}, {"time": 133459, "annotation": {"number": 11, "value": 58}, "group": "control_change"}, {"time": 133475, "annotation": {"number": 11, "value": 56}, "group": "control_change"}, {"time": 133490, "annotation": {"number": 11, "value": 54}, "group": "control_change"}, {"time": 133506, "annotation": {"number": 11, "value": 52}, "group": "control_change"}, {"time": 133522, "annotation": {"number": 11, "value": 50}, "group": "control_change"}, {"time": 133538, "annotation": {"number": 11, "value": 48}, "group": "control_change"}, {"time": 133553, "annotation": {"number": 11, "value": 46}, "group": "control_change"}, {"time": 133569, "annotation": {"number": 11, "value": 44}, "group": "control_change"}, {"time": 133585, "annotation": {"number": 11, "value": 42}, "group": "control_change"}, {"time": 133601, "annotation": {"number": 11, "value": 40}, "group": "control_change"}, {"time": 133617, "annotation": {"number": 11, "value": 38}, "group": "control_change"}, {"time": 133633, "annotation": {"number": 11, "value": 36}, "group": "control_change"}, {"time": 133649, "annotation": {"number": 11, "value": 34}, "group": "control_change"}, {"time": 133665, "annotation": {"number": 11, "value": 32}, "group": "control_change"}, {"time": 133680, "annotation": {"number": 11, "value": 30}, "group": "control_change"}, {"time": 133696, "annotation": {"number": 11, "value": 28}, "group": "control_change"}, {"time": 133712, "annotation": {"number": 11, "value": 26}, "group": "control_change"}, {"time": 133728, "annotation": {"number": 11, "value": 24}, "group": "control_change"}, {"time": 133744, "annotation": {"number": 11, "value": 22}, "group": "control_change"}, {"time": 133760, "annotation": {"number": 11, "value": 20}, "group": "control_change"}, {"time": 133776, "annotation": {"number": 11, "value": 18}, "group": "control_change"}, {"time": 133792, "annotation": {"number": 11, "value": 16}, "group": "control_change"}, {"time": 133807, "annotation": {"number": 11, "value": 14}, "group": "control_change"}, {"time": 133823, "annotation": {"number": 11, "value": 12}, "group": "control_change"}, {"time": 133839, "annotation": {"number": 11, "value": 10}, "group": "control_change"}, {"time": 133855, "annotation": {"number": 11, "value": 8}, "group": "control_change"}, {"time": 133871, "annotation": {"number": 11, "value": 6}, "group": "control_change"}, {"time": 133887, "annotation": {"number": 11, "value": 4}, "group": "control_change"}, {"time": 133903, "annotation": {"number": 11, "value": 2}, "group": "control_change"}, {"time": 133918, "annotation": {"number": 11, "value": 0}, "group": "control_change"}]}, {"program": 0, "is_drum": false, "name": "A.GUITAR", "annotations": [{"time": 160, "annotation": {"number": 0, "value": 0}, "group": "control_change"}, {"time": 176, "annotation": {"number": 32, "value": 2}, "group": "control_change"}]}, {"program": 25, "is_drum": false, "name": "A.GUITAR", "notes": [{"time": 1442, "pitch": 54, "duration": 480, "velocity": 70}, {"time": 1442, "pitch": 57, "duration": 480, "velocity": 100}, {"time": 1442, "pitch": 61, "duration": 480, "velocity": 80}, {"time": 1442, "pitch": 66, "duration": 480, "velocity": 90}, {"time": 1922, "pitch": 54, "duration": 399, "velocity": 85}, {"time": 1922, "pitch": 57, "duration": 399, "velocity": 115}, {"time": 1922, "pitch": 61, "duration": 399, "velocity": 95}, {"time": 1922, "pitch": 66, "duration": 399, "velocity": 105}, {"time": 2321, "pitch": 54, "duration": 80, "velocity": 60}, {"time": 2321, "pitch": 57, "duration": 80, "velocity": 90}, {"time": 2321, "pitch": 61, "duration": 80, "velocity": 70}, {"time": 2321, "pitch": 66, "duration": 80, "velocity": 80}, {"time": 2401, "pitch": 54, "duration": 160, "velocity": 70}, {"time": 2401, "pitch": 57, "duration": 160, "velocity": 100}, {"time": 2401, "pitch": 61, "duration": 160, "velocity": 80}, {"time": 2401, "pitch": 66, "duration": 160, "velocity": 90}, {"time": 2561, "pitch": 54, "duration": 80, "velocity": 60}, {"time": 2561, "pitch": 57, "duration": 80, "velocity": 90}, {"time": 2561, "pitch": 61, "duration": 80, "velocity": 70}, {"time": 2561, "pitch": 66, "duration": 80, "velocity": 80}, {"time": 2641, "pitch": 54, "duration": 240, "velocity": 90}, {"time": 2641, "pitch": 57, "duration": 240, "velocity": 120}, {"time": 2641, "pitch": 61, "duration": 240, "velocity": 100}, {"time": 2641, "pitch": 66, "duration": 240, "velocity": 110}, {"time": 3031, "pitch": 52, "duration": 319, "velocity": 85}, {"time": 3031, "pitch": 56, "duration": 319, "velocity": 115}, {"time": 3031, "pitch": 59, "duration": 319, "velocity": 95}, {"time": 3031, "pitch": 64, "duration": 319, "velocity": 105}, {"time": 3360, "pitch": 50, "duration": 480, "velocity": 70}, {"time": 3360, "pitch": 57, "duration": 480, "velocity": 100}, {"time": 3360, "pitch": 62, "duration": 480, "velocity": 80}, {"time": 3360, "pitch": 66, "duration": 480, "velocity": 90}, {"time": 3840, "pitch": 50, "duration": 400, "velocity": 85}, {"time": 3840, "pitch": 57, "duration": 400, "velocity": 115}, {"time": 3840, "pitch": 62, "duration": 400, "velocity": 95}, {"time": 3840, "pitch": 66, "duration": 400, "velocity": 105}, {"time": 4240, "pitch": 50, "duration": 79, "velocity": 60}, {"time": 4240, "pitch": 57, "duration": 79, "velocity": 90}, {"time": 4240, "pitch": 62, "duration": 79, "velocity": 70}, {"time": 4240, "pitch": 66, "duration": 79, "velocity": 80}, {"time": 4319, "pitch": 50, "duration": 160, "velocity": 70}, {"time": 4319, "pitch": 57, "duration": 160, "velocity": 100}, {"time": 4319, "pitch": 62, "duration": 160, "velocity": 80}, {"time": 4319, "pitch": 66, "duration": 160, "velocity": 90}, {"time": 4479, "pitch": 50, "duration": 80, "velocity": 60}, {"time": 4479, "pitch": 57, "duration": 80, "velocity": 90}, {"time": 4479, "pitch": 62, "duration": 80, "velocity": 70}, {"time": 4479, "pitch": 66, "duration": 80, "velocity": 80}, {"time": 4559, "pitch": 50, "duration": 240, "velocity": 90}, {"time": 4559, "pitch": 57, "duration": 240, "velocity": 120}, {"time": 4559, "pitch": 62, "duration": 240, "velocity": 100}, {"time": 4559, "pitch": 66, "duration": 240, "velocity": 110}, {"time": 4949, "pitch": 52, "duration": 319, "velocity": 85}, {"time": 4949, "pitch": 56, "duration": 319, "velocity": 115}, {"time": 4949, "pitch": 59, "duration": 319, "velocity": 95}, {"time": 4949, "pitch": 64, "duration": 319, "velocity": 105}, {"time": 5278, "pitch": 54, "duration": 480, "velocity": 70}, {"time": 5278, "pitch": 57, "duration": 480, "velocity": 100}, {"time": 5278, "pitch": 61, "duration": 480, "velocity": 80}, {"time": 5278, "pitch": 66, "duration": 480, "velocity": 90}, {"time": 5758, "pitch": 54, "duration": 400, "velocity": 85}, {"time": 5758, "pitch": 57, "duration": 400, "velocity": 115}, {"time": 5758, "pitch": 61, "duration": 400, "velocity": 95}, {"time": 5758, "pitch": 66, "duration": 400, "velocity": 105}, {"time": 6158, "pitch": 54, "duration": 80, "velocity": 60}, {"time": 6158, "pitch": 57, "duration": 80, "velocity": 90}, {"time": 6158, "pitch": 61, "duration": 80, "velocity": 70}, {"time": 6158, "pitch": 66, "duration": 80, "velocity": 80}, {"time": 6238, "pitch": 54, "duration": 159, "velocity": 70}, {"time": 6238, "pitch": 57, "duration": 159, "velocity": 100}, {"time": 6238, "pitch": 61, "duration": 159, "velocity": 80}, {"time": 6238, "pitch": 66, "duration": 159, "velocity": 90}, {"time": 6397, "pitch": 54, "duration": 80, "velocity": 60}, {"time": 6397, "pitch": 57, "duration": 80, "velocity": 90}, {"time": 6397, "pitch": 61, "duration": 80, "velocity": 70}, {"time": 6397, "pitch": 66, "duration": 80, "velocity": 80}, {"time": 6477, "pitch": 54, "duration": 240, "velocity": 90}, {"time": 6477, "pitch": 57, "duration": 240, "velocity": 120}, {"time": 6477, "pitch": 61, "duration": 240, "velocity": 100}, {"time": 6477, "pitch": 66, "duration": 240, "velocity": 110}, {"time": 6869, "pitch": 52, "duration": 324, "velocity": 85}, {"time": 6869, "pitch": 56, "duration": 324, "velocity": 115}, {"time": 6869, "pitch": 59, "duration": 324, "velocity": 95}, {"time": 6869, "pitch": 64, "duration": 324, "velocity": 105}, {"time": 7203, "pitch": 50, "duration": 479, "velocity": 70}, {"time": 7203, "pitch": 57, "duration": 479, "velocity": 100}, {"time": 7203, "pitch": 62, "duration": 479, "velocity": 80}, {"time": 7203, "pitch": 66, "duration": 479, "velocity": 90}, {"time": 7682, "pitch": 50, "duration": 400, "velocity": 85}, {"time": 7682, "pitch": 57, "duration": 400, "velocity": 115}, {"time": 7682, "pitch": 62, "duration": 400, "velocity": 95}, {"time": 7682, "pitch": 66, "duration": 400, "velocity": 105}, {"time": 8082, "pitch": 50, "duration": 80, "velocity": 60}, {"time": 8082, "pitch": 57, "duration": 80, "velocity": 90}, {"time": 8082, "pitch": 62, "duration": 80, "velocity": 70}, {"time": 8082, "pitch": 66, "duration": 80, "velocity": 80}, {"time": 8162, "pitch": 50, "duration": 160, "velocity": 70}, {"time": 8162, "pitch": 57, "duration": 160, "velocity": 100}, {"time": 8162, "pitch": 62, "duration": 160, "velocity": 80}, {"time": 8162, "pitch": 66, "duration": 160, "velocity": 90}, {"time": 8322, "pitch": 50, "duration": 80, "velocity": 60}, {"time": 8322, "pitch": 57, "duration": 80, "velocity": 90}, {"time": 8322, "pitch": 62, "duration": 80, "velocity": 70}, {"time": 8322, "pitch": 66, "duration": 80, "velocity": 80}, {"time": 8402, "pitch": 50, "duration": 239, "velocity": 90}, {"time": 8402, "pitch": 57, "duration": 239, "velocity": 120}, {"time": 8402, "pitch": 62, "duration": 239, "velocity": 100}, {"time": 8402, "pitch": 66, "duration": 239, "velocity": 110}, {"time": 8791, "pitch": 52, "duration": 320, "velocity": 85}, {"time": 8791, "pitch": 56, "duration": 320, "velocity": 115}, {"time": 8791, "pitch": 59, "duration": 320, "velocity": 95}, {"time": 8791, "pitch": 64, "duration": 320, "velocity": 105}, {"time": 9121, "pitch": 52, "duration": 479, "velocity": 70}, {"time": 9121, "pitch": 57, "duration": 479, "velocity": 100}, {"time": 9121, "pitch": 61, "duration": 479, "velocity": 80}, {"time": 9121, "pitch": 64, "duration": 479, "velocity": 90}, {"time": 9600, "pitch": 52, "duration": 400, "velocity": 85}, {"time": 9600, "pitch": 57, "duration": 400, "velocity": 115}, {"time": 9600, "pitch": 61, "duration": 400, "velocity": 95}, {"time": 9600, "pitch": 64, "duration": 400, "velocity": 105}, {"time": 10000, "pitch": 52, "duration": 80, "velocity": 60}, {"time": 10000, "pitch": 57, "duration": 80, "velocity": 90}, {"time": 10000, "pitch": 61, "duration": 80, "velocity": 70}, {"time": 10000, "pitch": 64, "duration": 80, "velocity": 80}, {"time": 10080, "pitch": 50, "duration": 160, "velocity": 80}, {"time": 10080, "pitch": 57, "duration": 160, "velocity": 110}, {"time": 10080, "pitch": 62, "duration": 160, "velocity": 90}, {"time": 10080, "pitch": 66, "duration": 160, "velocity": 100}, {"time": 10240, "pitch": 50, "duration": 80, "velocity": 60}, {"time": 10240, "pitch": 57, "duration": 80, "velocity": 90}, {"time": 10240, "pitch": 62, "duration": 80, "velocity": 70}, {"time": 10240, "pitch": 66, "duration": 80, "velocity": 80}, {"time": 10320, "pitch": 50, "duration": 479, "velocity": 80}, {"time": 10320, "pitch": 57, "duration": 479, "velocity": 110}, {"time": 10320, "pitch": 62, "duration": 479, "velocity": 90}, {"time": 10320, "pitch": 66, "duration": 479, "velocity": 100}, {"time": 10799, "pitch": 50, "duration": 160, "velocity": 70}, {"time": 10799, "pitch": 57, "duration": 160, "velocity": 100}, {"time": 10799, "pitch": 62, "duration": 160, "velocity": 80}, {"time": 10799, "pitch": 66, "duration": 160, "velocity": 90}, {"time": 10959, "pitch": 50, "duration": 40, "velocity": 50}, {"time": 10959, "pitch": 57, "duration": 40, "velocity": 80}, {"time": 10959, "pitch": 62, "duration": 40, "velocity": 60}, {"time": 10959, "pitch": 66, "duration": 40, "velocity": 70}, {"time": 11039, "pitch": 52, "duration": 479, "velocity": 70}, {"time": 11039, "pitch": 56, "duration": 479, "velocity": 100}, {"time": 11039, "pitch": 59, "duration": 479, "velocity": 80}, {"time": 11039, "pitch": 64, "duration": 479, "velocity": 90}, {"time": 11518, "pitch": 52, "duration": 400, "velocity": 85}, {"time": 11518, "pitch": 56, "duration": 400, "velocity": 115}, {"time": 11518, "pitch": 59, "duration": 400, "velocity": 95}, {"time": 11518, "pitch": 64, "duration": 400, "velocity": 105}, {"time": 11918, "pitch": 52, "duration": 80, "velocity": 60}, {"time": 11918, "pitch": 56, "duration": 80, "velocity": 90}, {"time": 11918, "pitch": 59, "duration": 80, "velocity": 70}, {"time": 11918, "pitch": 64, "duration": 80, "velocity": 80}, {"time": 11998, "pitch": 52, "duration": 160, "velocity": 80}, {"time": 11998, "pitch": 57, "duration": 160, "velocity": 110}, {"time": 11998, "pitch": 61, "duration": 160, "velocity": 90}, {"time": 11998, "pitch": 64, "duration": 160, "velocity": 100}, {"time": 12158, "pitch": 52, "duration": 80, "velocity": 60}, {"time": 12158, "pitch": 57, "duration": 80, "velocity": 90}, {"time": 12158, "pitch": 61, "duration": 80, "velocity": 70}, {"time": 12158, "pitch": 64, "duration": 80, "velocity": 80}, {"time": 12238, "pitch": 52, "duration": 239, "velocity": 80}, {"time": 12238, "pitch": 57, "duration": 239, "velocity": 110}, {"time": 12238, "pitch": 61, "duration": 239, "velocity": 90}, {"time": 12238, "pitch": 64, "duration": 239, "velocity": 100}, {"time": 12477, "pitch": 52, "duration": 240, "velocity": 70}, {"time": 12477, "pitch": 56, "duration": 240, "velocity": 100}, {"time": 12477, "pitch": 59, "duration": 240, "velocity": 80}, {"time": 12477, "pitch": 64, "duration": 240, "velocity": 90}, {"time": 12717, "pitch": 52, "duration": 240, "velocity": 70}, {"time": 12717, "pitch": 56, "duration": 240, "velocity": 100}, {"time": 12717, "pitch": 59, "duration": 240, "velocity": 80}, {"time": 12717, "pitch": 64, "duration": 240, "velocity": 90}, {"time": 12957, "pitch": 54, "duration": 486, "velocity": 70}, {"time": 12957, "pitch": 57, "duration": 486, "velocity": 100}, {"time": 12957, "pitch": 61, "duration": 486, "velocity": 80}, {"time": 12957, "pitch": 66, "duration": 486, "velocity": 90}, {"time": 13443, "pitch": 54, "duration": 399, "velocity": 85}, {"time": 13443, "pitch": 57, "duration": 399, "velocity": 115}, {"time": 13443, "pitch": 61, "duration": 399, "velocity": 95}, {"time": 13443, "pitch": 66, "duration": 399, "velocity": 105}, {"time": 13842, "pitch": 54, "duration": 80, "velocity": 60}, {"time": 13842, "pitch": 57, "duration": 80, "velocity": 90}, {"time": 13842, "pitch": 61, "duration": 80, "velocity": 70}, {"time": 13842, "pitch": 66, "duration": 80, "velocity": 80}, {"time": 13922, "pitch": 56, "duration": 160, "velocity": 80}, {"time": 13922, "pitch": 61, "duration": 160, "velocity": 110}, {"time": 13922, "pitch": 64, "duration": 160, "velocity": 90}, {"time": 13922, "pitch": 68, "duration": 160, "velocity": 100}, {"time": 14082, "pitch": 56, "duration": 80, "velocity": 60}, {"time": 14082, "pitch": 61, "duration": 80, "velocity": 90}, {"time": 14082, "pitch": 64, "duration": 80, "velocity": 70}, {"time": 14082, "pitch": 68, "duration": 80, "velocity": 80}, {"time": 14162, "pitch": 56, "duration": 479, "velocity": 80}, {"time": 14162, "pitch": 61, "duration": 479, "velocity": 110}, {"time": 14162, "pitch": 64, "duration": 479, "velocity": 90}, {"time": 14162, "pitch": 68, "duration": 479, "velocity": 100}, {"time": 14641, "pitch": 56, "duration": 160, "velocity": 70}, {"time": 14641, "pitch": 61, "duration": 160, "velocity": 100}, {"time": 14641, "pitch": 64, "duration": 160, "velocity": 80}, {"time": 14641, "pitch": 68, "duration": 160, "velocity": 90}, {"time": 14801, "pitch": 56, "duration": 40, "velocity": 50}, {"time": 14801, "pitch": 61, "duration": 40, "velocity": 80}, {"time": 14801, "pitch": 64, "duration": 40, "velocity": 60}, {"time": 14801, "pitch": 68, "duration": 40, "velocity": 70}, {"time": 14881, "pitch": 54, "duration": 480, "velocity": 70}, {"time": 14881, "pitch": 57, "duration": 480, "velocity": 100}, {"time": 14881, "pitch": 62, "duration": 480, "velocity": 80}, {"time": 14881, "pitch": 66, "duration": 480, "velocity": 90}, {"time": 15361, "pitch": 54, "duration": 399, "velocity": 85}, {"time": 15361, "pitch": 57, "duration": 399, "velocity": 115}, {"time": 15361, "pitch": 62, "duration": 399, "velocity": 95}, {"time": 15361, "pitch": 66, "duration": 399, "velocity": 105}, {"time": 15760, "pitch": 54, "duration": 80, "velocity": 60}, {"time": 15760, "pitch": 57, "duration": 80, "velocity": 90}, {"time": 15760, "pitch": 62, "duration": 80, "velocity": 70}, {"time": 15760, "pitch": 66, "duration": 80, "velocity": 80}, {"time": 15840, "pitch": 52, "duration": 160, "velocity": 80}, {"time": 15840, "pitch": 56, "duration": 160, "velocity": 110}, {"time": 15840, "pitch": 59, "duration": 160, "velocity": 90}, {"time": 15840, "pitch": 64, "duration": 160, "velocity": 100}, {"time": 16000, "pitch": 52, "duration": 80, "velocity": 60}, {"time": 16000, "pitch": 56, "duration": 80, "velocity": 90}, {"time": 16000, "pitch": 59, "duration": 80, "velocity": 70}, {"time": 16000, "pitch": 64, "duration": 80, "velocity": 80}, {"time": 16080, "pitch": 52, "duration": 240, "velocity": 80}, {"time": 16080, "pitch": 56, "duration": 240, "velocity": 110}, {"time": 16080, "pitch": 59, "duration": 240, "velocity": 90}, {"time": 16080, "pitch": 64, "duration": 240, "velocity": 100}, {"time": 16320, "pitch": 52, "duration": 240, "velocity": 70}, {"time": 16320, "pitch": 56, "duration": 240, "velocity": 100}, {"time": 16320, "pitch": 59, "duration": 240, "velocity": 80}, {"time": 16320, "pitch": 64, "duration": 240, "velocity": 90}, {"time": 16560, "pitch": 52, "duration": 159, "velocity": 70}, {"time": 16560, "pitch": 56, "duration": 159, "velocity": 100}, {"time": 16560, "pitch": 59, "duration": 159, "velocity": 80}, {"time": 16560, "pitch": 64, "duration": 159, "velocity": 90}, {"time": 16719, "pitch": 52, "duration": 40, "velocity": 50}, {"time": 16719, "pitch": 56, "duration": 40, "velocity": 80}, {"time": 16719, "pitch": 59, "duration": 40, "velocity": 60}, {"time": 16719, "pitch": 64, "duration": 40, "velocity": 70}, {"time": 16799, "pitch": 52, "duration": 480, "velocity": 70}, {"time": 16799, "pitch": 57, "duration": 480, "velocity": 100}, {"time": 16799, "pitch": 61, "duration": 480, "velocity": 80}, {"time": 16799, "pitch": 64, "duration": 480, "velocity": 90}, {"time": 17279, "pitch": 52, "duration": 399, "velocity": 85}, {"time": 17279, "pitch": 57, "duration": 399, "velocity": 115}, {"time": 17279, "pitch": 61, "duration": 399, "velocity": 95}, {"time": 17279, "pitch": 64, "duration": 399, "velocity": 105}, {"time": 17678, "pitch": 52, "duration": 80, "velocity": 60}, {"time": 17678, "pitch": 57, "duration": 80, "velocity": 90}, {"time": 17678, "pitch": 61, "duration": 80, "velocity": 70}, {"time": 17678, "pitch": 64, "duration": 80, "velocity": 80}, {"time": 17758, "pitch": 50, "duration": 160, "velocity": 80}, {"time": 17758, "pitch": 57, "duration": 160, "velocity": 110}, {"time": 17758, "pitch": 62, "duration": 160, "velocity": 90}, {"time": 17758, "pitch": 66, "duration": 160, "velocity": 100}, {"time": 17918, "pitch": 50, "duration": 80, "velocity": 60}, {"time": 17918, "pitch": 57, "duration": 80, "velocity": 90}, {"time": 17918, "pitch": 62, "duration": 80, "velocity": 70}, {"time": 17918, "pitch": 66, "duration": 80, "velocity": 80}, {"time": 17998, "pitch": 50, "duration": 480, "velocity": 80}, {"time": 17998, "pitch": 57, "duration": 480, "velocity": 110}, {"time": 17998, "pitch": 62, "duration": 480, "velocity": 90}, {"time": 17998, "pitch": 66, "duration": 480, "velocity": 100}, {"time": 18478, "pitch": 50, "duration": 159, "velocity": 70}, {"time": 18478, "pitch": 57, "duration": 159, "velocity": 100}, {"time": 18478, "pitch": 62, "duration": 159, "velocity": 80}, {"time": 18478, "pitch": 66, "duration": 159, "velocity": 90}, {"time": 18637, "pitch": 50, "duration": 40, "velocity": 50}, {"time": 18637, "pitch": 57, "duration": 40, "velocity": 80}, {"time": 18637, "pitch": 62, "duration": 40, "velocity": 60}, {"time": 18637, "pitch": 66, "duration": 40, "velocity": 70}, {"time": 18717, "pitch": 52, "duration": 486, "velocity": 70}, {"time": 18717, "pitch": 56, "duration": 486, "velocity": 100}, {"time": 18717, "pitch": 59, "duration": 486, "velocity": 80}, {"time": 18717, "pitch": 64, "duration": 486, "velocity": 90}, {"time": 19203, "pitch": 52, "duration": 400, "velocity": 85}, {"time": 19203, "pitch": 56, "duration": 400, "velocity": 115}, {"time": 19203, "pitch": 59, "duration": 400, "velocity": 95}, {"time": 19203, "pitch": 64, "duration": 400, "velocity": 105}, {"time": 19603, "pitch": 52, "duration": 80, "velocity": 60}, {"time": 19603, "pitch": 56, "duration": 80, "velocity": 90}, {"time": 19603, "pitch": 59, "duration": 80, "velocity": 70}, {"time": 19603, "pitch": 64, "duration": 80, "velocity": 80}, {"time": 19683, "pitch": 52, "duration": 159, "velocity": 80}, {"time": 19683, "pitch": 57, "duration": 159, "velocity": 110}, {"time": 19683, "pitch": 61, "duration": 159, "velocity": 90}, {"time": 19683, "pitch": 64, "duration": 159, "velocity": 100}, {"time": 19842, "pitch": 52, "duration": 80, "velocity": 60}, {"time": 19842, "pitch": 57, "duration": 80, "velocity": 90}, {"time": 19842, "pitch": 61, "duration": 80, "velocity": 70}, {"time": 19842, "pitch": 64, "duration": 80, "velocity": 80}, {"time": 19922, "pitch": 52, "duration": 240, "velocity": 80}, {"time": 19922, "pitch": 57, "duration": 240, "velocity": 110}, {"time": 19922, "pitch": 61, "duration": 240, "velocity": 90}, {"time": 19922, "pitch": 64, "duration": 240, "velocity": 100}, {"time": 20162, "pitch": 52, "duration": 240, "velocity": 70}, {"time": 20162, "pitch": 56, "duration": 240, "velocity": 100}, {"time": 20162, "pitch": 59, "duration": 240, "velocity": 80}, {"time": 20162, "pitch": 64, "duration": 240, "velocity": 90}, {"time": 20402, "pitch": 52, "duration": 240, "velocity": 70}, {"time": 20402, "pitch": 56, "duration": 240, "velocity": 100}, {"time": 20402, "pitch": 59, "duration": 240, "velocity": 80}, {"time": 20402, "pitch": 64, "duration": 240, "velocity": 90}, {"time": 20642, "pitch": 54, "duration": 479, "velocity": 70}, {"time": 20642, "pitch": 57, "duration": 479, "velocity": 100}, {"time": 20642, "pitch": 61, "duration": 479, "velocity": 80}, {"time": 20642, "pitch": 66, "duration": 479, "velocity": 90}, {"time": 21121, "pitch": 54, "duration": 400, "velocity": 85}, {"time": 21121, "pitch": 57, "duration": 400, "velocity": 115}, {"time": 21121, "pitch": 61, "duration": 400, "velocity": 95}, {"time": 21121, "pitch": 66, "duration": 400, "velocity": 105}, {"time": 21521, "pitch": 54, "duration": 80, "velocity": 60}, {"time": 21521, "pitch": 57, "duration": 80, "velocity": 90}, {"time": 21521, "pitch": 61, "duration": 80, "velocity": 70}, {"time": 21521, "pitch": 66, "duration": 80, "velocity": 80}, {"time": 21601, "pitch": 56, "duration": 159, "velocity": 80}, {"time": 21601, "pitch": 61, "duration": 159, "velocity": 110}, {"time": 21601, "pitch": 64, "duration": 159, "velocity": 90}, {"time": 21601, "pitch": 68, "duration": 159, "velocity": 100}, {"time": 21760, "pitch": 56, "duration": 80, "velocity": 60}, {"time": 21760, "pitch": 61, "duration": 80, "velocity": 90}, {"time": 21760, "pitch": 64, "duration": 80, "velocity": 70}, {"time": 21760, "pitch": 68, "duration": 80, "velocity": 80}, {"time": 21840, "pitch": 56, "duration": 480, "velocity": 80}, {"time": 21840, "pitch": 61, "duration": 480, "velocity": 110}, {"time": 21840, "pitch": 64, "duration": 480, "velocity": 90}, {"time": 21840, "pitch": 68, "duration": 480, "velocity": 100}, {"time": 22320, "pitch": 56, "duration": 160, "velocity": 70}, {"time": 22320, "pitch": 61, "duration": 160, "velocity": 100}, {"time": 22320, "pitch": 64, "duration": 160, "velocity": 80}, {"time": 22320, "pitch": 68, "duration": 160, "velocity": 90}, {"time": 22480, "pitch": 56, "duration": 40, "velocity": 50}, {"time": 22480, "pitch": 61, "duration": 40, "velocity": 80}, {"time": 22480, "pitch": 64, "duration": 40, "velocity": 60}, {"time": 22480, "pitch": 68, "duration": 40, "velocity": 70}, {"time": 22560, "pitch": 54, "duration": 479, "velocity": 70}, {"time": 22560, "pitch": 57, "duration": 479, "velocity": 100}, {"time": 22560, "pitch": 62, "duration": 479, "velocity": 80}, {"time": 22560, "pitch": 66, "duration": 479, "velocity": 90}, {"time": 23039, "pitch": 52, "duration": 400, "velocity": 85}, {"time": 23039, "pitch": 56, "duration": 400, "velocity": 115}, {"time": 23039, "pitch": 59, "duration": 400, "velocity": 95}, {"time": 23039, "pitch": 64, "duration": 400, "velocity": 105}, {"time": 23439, "pitch": 52, "duration": 80, "velocity": 60}, {"time": 23439, "pitch": 56, "duration": 80, "velocity": 90}, {"time": 23439, "pitch": 59, "duration": 80, "velocity": 70}, {"time": 23439, "pitch": 64, "duration": 80, "velocity": 80}, {"time": 23519, "pitch": 52, "duration": 160, "velocity": 80}, {"time": 23519, "pitch": 57, "duration": 160, "velocity": 110}, {"time": 23519, "pitch": 61, "duration": 160, "velocity": 90}, {"time": 23519, "pitch": 64, "duration": 160, "velocity": 100}, {"time": 23679, "pitch": 52, "duration": 79, "velocity": 60}, {"time": 23679, "pitch": 57, "duration": 79, "velocity": 90}, {"time": 23679, "pitch": 61, "duration": 79, "velocity": 70}, {"time": 23679, "pitch": 64, "duration": 79, "velocity": 80}, {"time": 23758, "pitch": 52, "duration": 240, "velocity": 80}, {"time": 23758, "pitch": 57, "duration": 240, "velocity": 110}, {"time": 23758, "pitch": 61, "duration": 240, "velocity": 90}, {"time": 23758, "pitch": 64, "duration": 240, "velocity": 100}, {"time": 23998, "pitch": 52, "duration": 240, "velocity": 70}, {"time": 23998, "pitch": 57, "duration": 240, "velocity": 100}, {"time": 23998, "pitch": 61, "duration": 240, "velocity": 80}, {"time": 23998, "pitch": 64, "duration": 240, "velocity": 90}, {"time": 24238, "pitch": 52, "duration": 160, "velocity": 70}, {"time": 24238, "pitch": 57, "duration": 160, "velocity": 100}, {"time": 24238, "pitch": 61, "duration": 160, "velocity": 80}, {"time": 24238, "pitch": 64, "duration": 160, "velocity": 90}, {"time": 24398, "pitch": 52, "duration": 40, "velocity": 50}, {"time": 24398, "pitch": 57, "duration": 40, "velocity": 80}, {"time": 24398, "pitch": 61, "duration": 40, "velocity": 60}, {"time": 24398, "pitch": 64, "duration": 40, "velocity": 70}, {"time": 24478, "pitch": 54, "duration": 479, "velocity": 70}, {"time": 24478, "pitch": 59, "duration": 479, "velocity": 100}, {"time": 24478, "pitch": 62, "duration": 479, "velocity": 80}, {"time": 24478, "pitch": 66, "duration": 479, "velocity": 90}, {"time": 24957, "pitch": 54, "duration": 405, "velocity": 85}, {"time": 24957, "pitch": 59, "duration": 405, "velocity": 115}, {"time": 24957, "pitch": 62, "duration": 405, "velocity": 95}, {"time": 24957, "pitch": 66, "duration": 405, "velocity": 105}, {"time": 25362, "pitch": 54, "duration": 81, "velocity": 60}, {"time": 25362, "pitch": 59, "duration": 81, "velocity": 90}, {"time": 25362, "pitch": 62, "duration": 81, "velocity": 70}, {"time": 25362, "pitch": 66, "duration": 81, "velocity": 80}, {"time": 25443, "pitch": 54, "duration": 160, "velocity": 80}, {"time": 25443, "pitch": 59, "duration": 160, "velocity": 110}, {"time": 25443, "pitch": 62, "duration": 160, "velocity": 90}, {"time": 25443, "pitch": 66, "duration": 160, "velocity": 100}, {"time": 25603, "pitch": 54, "duration": 80, "velocity": 60}, {"time": 25603, "pitch": 59, "duration": 80, "velocity": 90}, {"time": 25603, "pitch": 62, "duration": 80, "velocity": 70}, {"time": 25603, "pitch": 66, "duration": 80, "velocity": 80}, {"time": 25683, "pitch": 54, "duration": 239, "velocity": 80}, {"time": 25683, "pitch": 59, "duration": 239, "velocity": 110}, {"time": 25683, "pitch": 62, "duration": 239, "velocity": 90}, {"time": 25683, "pitch": 66, "duration": 239, "velocity": 100}, {"time": 25922, "pitch": 54, "duration": 240, "velocity": 85}, {"time": 25922, "pitch": 59, "duration": 240, "velocity": 115}, {"time": 25922, "pitch": 62, "duration": 240, "velocity": 95}, {"time": 25922, "pitch": 66, "duration": 240, "velocity": 105}, {"time": 26162, "pitch": 54, "duration": 160, "velocity": 70}, {"time": 26162, "pitch": 59, "duration": 160, "velocity": 100}, {"time": 26162, "pitch": 62, "duration": 160, "velocity": 80}, {"time": 26162, "pitch": 66, "duration": 160, "velocity": 90}, {"time": 26322, "pitch": 54, "duration": 40, "velocity": 50}, {"time": 26322, "pitch": 59, "duration": 40, "velocity": 80}, {"time": 26322, "pitch": 62, "duration": 40, "velocity": 60}, {"time": 26322, "pitch": 66, "duration": 40, "velocity": 70}, {"time": 26402, "pitch": 54, "duration": 479, "velocity": 70}, {"time": 26402, "pitch": 57, "duration": 479, "velocity": 100}, {"time": 26402, "pitch": 61, "duration": 479, "velocity": 80}, {"time": 26402, "pitch": 66, "duration": 479, "velocity": 90}, {"time": 26881, "pitch": 54, "duration": 400, "velocity": 85}, {"time": 26881, "pitch": 57, "duration": 400, "velocity": 115}, {"time": 26881, "pitch": 61, "duration": 400, "velocity": 95}, {"time": 26881, "pitch": 66, "duration": 400, "velocity": 105}, {"time": 27281, "pitch": 54, "duration": 80, "velocity": 60}, {"time": 27281, "pitch": 57, "duration": 80, "velocity": 90}, {"time": 27281, "pitch": 61, "duration": 80, "velocity": 70}, {"time": 27281, "pitch": 66, "duration": 80, "velocity": 80}, {"time": 27361, "pitch": 54, "duration": 160, "velocity": 80}, {"time": 27361, "pitch": 57, "duration": 160, "velocity": 110}, {"time": 27361, "pitch": 61, "duration": 160, "velocity": 90}, {"time": 27361, "pitch": 66, "duration": 160, "velocity": 100}, {"time": 27521, "pitch": 54, "duration": 80, "velocity": 60}, {"time": 27521, "pitch": 57, "duration": 80, "velocity": 90}, {"time": 27521, "pitch": 61, "duration": 80, "velocity": 70}, {"time": 27521, "pitch": 66, "duration": 80, "velocity": 80}, {"time": 27601, "pitch": 54, "duration": 240, "velocity": 80}, {"time": 27601, "pitch": 57, "duration": 240, "velocity": 110}, {"time": 27601, "pitch": 61, "duration": 240, "velocity": 90}, {"time": 27601, "pitch": 66, "duration": 240, "velocity": 100}, {"time": 27841, "pitch": 54, "duration": 239, "velocity": 85}, {"time": 27841, "pitch": 57, "duration": 239, "velocity": 115}, {"time": 27841, "pitch": 61, "duration": 239, "velocity": 95}, {"time": 27841, "pitch": 66, "duration": 239, "velocity": 105}, {"time": 28080, "pitch": 54, "duration": 160, "velocity": 70}, {"time": 28080, "pitch": 57, "duration": 160, "velocity": 100}, {"time": 28080, "pitch": 61, "duration": 160, "velocity": 80}, {"time": 28080, "pitch": 66, "duration": 160, "velocity": 90}, {"time": 28240, "pitch": 54, "duration": 40, "velocity": 50}, {"time": 28240, "pitch": 57, "duration": 40, "velocity": 80}, {"time": 28240, "pitch": 61, "duration": 40, "velocity": 60}, {"time": 28240, "pitch": 66, "duration": 40, "velocity": 70}, {"time": 28320, "pitch": 50, "duration": 480, "velocity": 70}, {"time": 28320, "pitch": 57, "duration": 480, "velocity": 100}, {"time": 28320, "pitch": 62, "duration": 480, "velocity": 80}, {"time": 28320, "pitch": 66, "duration": 480, "velocity": 90}, {"time": 28800, "pitch": 50, "duration": 399, "velocity": 85}, {"time": 28800, "pitch": 57, "duration": 399, "velocity": 115}, {"time": 28800, "pitch": 62, "duration": 399, "velocity": 95}, {"time": 28800, "pitch": 66, "duration": 399, "velocity": 105}, {"time": 29199, "pitch": 50, "duration": 80, "velocity": 60}, {"time": 29199, "pitch": 57, "duration": 80, "velocity": 90}, {"time": 29199, "pitch": 62, "duration": 80, "velocity": 70}, {"time": 29199, "pitch": 66, "duration": 80, "velocity": 80}, {"time": 29279, "pitch": 50, "duration": 160, "velocity": 80}, {"time": 29279, "pitch": 57, "duration": 160, "velocity": 110}, {"time": 29279, "pitch": 62, "duration": 160, "velocity": 90}, {"time": 29279, "pitch": 66, "duration": 160, "velocity": 100}, {"time": 29439, "pitch": 50, "duration": 80, "velocity": 60}, {"time": 29439, "pitch": 57, "duration": 80, "velocity": 90}, {"time": 29439, "pitch": 62, "duration": 80, "velocity": 70}, {"time": 29439, "pitch": 66, "duration": 80, "velocity": 80}, {"time": 29519, "pitch": 50, "duration": 240, "velocity": 80}, {"time": 29519, "pitch": 57, "duration": 240, "velocity": 110}, {"time": 29519, "pitch": 62, "duration": 240, "velocity": 90}, {"time": 29519, "pitch": 66, "duration": 240, "velocity": 100}, {"time": 29759, "pitch": 51, "duration": 239, "velocity": 85}, {"time": 29759, "pitch": 57, "duration": 239, "velocity": 115}, {"time": 29759, "pitch": 61, "duration": 239, "velocity": 95}, {"time": 29759, "pitch": 66, "duration": 239, "velocity": 105}, {"time": 29998, "pitch": 51, "duration": 160, "velocity": 70}, {"time": 29998, "pitch": 57, "duration": 160, "velocity": 100}, {"time": 29998, "pitch": 61, "duration": 160, "velocity": 80}, {"time": 29998, "pitch": 66, "duration": 160, "velocity": 90}, {"time": 30158, "pitch": 51, "duration": 40, "velocity": 50}, {"time": 30158, "pitch": 57, "duration": 40, "velocity": 80}, {"time": 30158, "pitch": 61, "duration": 40, "velocity": 60}, {"time": 30158, "pitch": 66, "duration": 40, "velocity": 70}, {"time": 30238, "pitch": 52, "duration": 480, "velocity": 70}, {"time": 30238, "pitch": 57, "duration": 480, "velocity": 100}, {"time": 30238, "pitch": 59, "duration": 480, "velocity": 80}, {"time": 30238, "pitch": 64, "duration": 480, "velocity": 90}, {"time": 30718, "pitch": 52, "duration": 399, "velocity": 85}, {"time": 30718, "pitch": 57, "duration": 399, "velocity": 115}, {"time": 30718, "pitch": 59, "duration": 399, "velocity": 95}, {"time": 30718, "pitch": 64, "duration": 399, "velocity": 105}, {"time": 31117, "pitch": 52, "duration": 80, "velocity": 60}, {"time": 31117, "pitch": 57, "duration": 80, "velocity": 90}, {"time": 31117, "pitch": 59, "duration": 80, "velocity": 70}, {"time": 31117, "pitch": 64, "duration": 80, "velocity": 80}, {"time": 31197, "pitch": 52, "duration": 162, "velocity": 80}, {"time": 31197, "pitch": 56, "duration": 162, "velocity": 110}, {"time": 31197, "pitch": 59, "duration": 162, "velocity": 90}, {"time": 31197, "pitch": 64, "duration": 162, "velocity": 100}, {"time": 31359, "pitch": 52, "duration": 81, "velocity": 60}, {"time": 31359, "pitch": 56, "duration": 81, "velocity": 90}, {"time": 31359, "pitch": 59, "duration": 81, "velocity": 70}, {"time": 31359, "pitch": 64, "duration": 81, "velocity": 80}, {"time": 31440, "pitch": 52, "duration": 243, "velocity": 80}, {"time": 31440, "pitch": 56, "duration": 243, "velocity": 110}, {"time": 31440, "pitch": 59, "duration": 243, "velocity": 90}, {"time": 31440, "pitch": 64, "duration": 243, "velocity": 100}, {"time": 31683, "pitch": 52, "duration": 240, "velocity": 85}, {"time": 31683, "pitch": 56, "duration": 240, "velocity": 115}, {"time": 31683, "pitch": 59, "duration": 240, "velocity": 95}, {"time": 31683, "pitch": 64, "duration": 240, "velocity": 105}, {"time": 31923, "pitch": 52, "duration": 159, "velocity": 70}, {"time": 31923, "pitch": 56, "duration": 159, "velocity": 100}, {"time": 31923, "pitch": 59, "duration": 159, "velocity": 80}, {"time": 31923, "pitch": 64, "duration": 159, "velocity": 90}, {"time": 32082, "pitch": 52, "duration": 40, "velocity": 50}, {"time": 32082, "pitch": 56, "duration": 40, "velocity": 80}, {"time": 32082, "pitch": 59, "duration": 40, "velocity": 60}, {"time": 32082, "pitch": 64, "duration": 40, "velocity": 70}, {"time": 32162, "pitch": 52, "duration": 240, "velocity": 80}, {"time": 32162, "pitch": 57, "duration": 240, "velocity": 110}, {"time": 32162, "pitch": 61, "duration": 240, "velocity": 90}, {"time": 32162, "pitch": 64, "duration": 240, "velocity": 100}, {"time": 32402, "pitch": 52, "duration": 240, "velocity": 60}, {"time": 32402, "pitch": 57, "duration": 240, "velocity": 90}, {"time": 32402, "pitch": 61, "duration": 240, "velocity": 70}, {"time": 32402, "pitch": 64, "duration": 240, "velocity": 80}, {"time": 32642, "pitch": 52, "duration": 240, "velocity": 85}, {"time": 32642, "pitch": 57, "duration": 240, "velocity": 115}, {"time": 32642, "pitch": 61, "duration": 240, "velocity": 95}, {"time": 32642, "pitch": 64, "duration": 240, "velocity": 105}, {"time": 32882, "pitch": 52, "duration": 159, "velocity": 70}, {"time": 32882, "pitch": 57, "duration": 159, "velocity": 100}, {"time": 32882, "pitch": 61, "duration": 159, "velocity": 80}, {"time": 32882, "pitch": 64, "duration": 159, "velocity": 90}, {"time": 33041, "pitch": 52, "duration": 80, "velocity": 60}, {"time": 33041, "pitch": 57, "duration": 80, "velocity": 90}, {"time": 33041, "pitch": 61, "duration": 80, "velocity": 70}, {"time": 33041, "pitch": 64, "duration": 80, "velocity": 80}, {"time": 33121, "pitch": 52, "duration": 160, "velocity": 80}, {"time": 33121, "pitch": 56, "duration": 160, "velocity": 110}, {"time": 33121, "pitch": 59, "duration": 160, "velocity": 90}, {"time": 33121, "pitch": 64, "duration": 160, "velocity": 100}, {"time": 33281, "pitch": 52, "duration": 80, "velocity": 60}, {"time": 33281, "pitch": 56, "duration": 80, "velocity": 90}, {"time": 33281, "pitch": 59, "duration": 80, "velocity": 70}, {"time": 33281, "pitch": 64, "duration": 80, "velocity": 80}, {"time": 33361, "pitch": 52, "duration": 240, "velocity": 80}, {"time": 33361, "pitch": 56, "duration": 240, "velocity": 110}, {"time": 33361, "pitch": 59, "duration": 240, "velocity": 90}, {"time": 33361, "pitch": 64, "duration": 240, "velocity": 100}, {"time": 33601, "pitch": 52, "duration": 240, "velocity": 85}, {"time": 33601, "pitch": 56, "duration": 240, "velocity": 115}, {"time": 33601, "pitch": 59, "duration": 240, "velocity": 95}, {"time": 33601, "pitch": 64, "duration": 240, "velocity": 105}, {"time": 33841, "pitch": 52, "duration": 160, "velocity": 70}, {"time": 33841, "pitch": 56, "duration": 160, "velocity": 100}, {"time": 33841, "pitch": 59, "duration": 160, "velocity": 80}, {"time": 33841, "pitch": 64, "duration": 160, "velocity": 90}, {"time": 34001, "pitch": 52, "duration": 39, "velocity": 50}, {"time": 34001, "pitch": 56, "duration": 39, "velocity": 80}, {"time": 34001, "pitch": 59, "duration": 39, "velocity": 60}, {"time": 34001, "pitch": 64, "duration": 39, "velocity": 70}, {"time": 34080, "pitch": 50, "duration": 240, "velocity": 80}, {"time": 34080, "pitch": 57, "duration": 240, "velocity": 110}, {"time": 34080, "pitch": 62, "duration": 240, "velocity": 90}, {"time": 34080, "pitch": 66, "duration": 240, "velocity": 100}, {"time": 34320, "pitch": 50, "duration": 240, "velocity": 60}, {"time": 34320, "pitch": 57, "duration": 240, "velocity": 90}, {"time": 34320, "pitch": 62, "duration": 240, "velocity": 70}, {"time": 34320, "pitch": 66, "duration": 240, "velocity": 80}, {"time": 34560, "pitch": 50, "duration": 240, "velocity": 85}, {"time": 34560, "pitch": 57, "duration": 240, "velocity": 115}, {"time": 34560, "pitch": 62, "duration": 240, "velocity": 95}, {"time": 34560, "pitch": 66, "duration": 240, "velocity": 105}, {"time": 34800, "pitch": 50, "duration": 160, "velocity": 70}, {"time": 34800, "pitch": 57, "duration": 160, "velocity": 100}, {"time": 34800, "pitch": 62, "duration": 160, "velocity": 80}, {"time": 34800, "pitch": 66, "duration": 160, "velocity": 90}, {"time": 34960, "pitch": 50, "duration": 79, "velocity": 60}, {"time": 34960, "pitch": 57, "duration": 79, "velocity": 90}, {"time": 34960, "pitch": 62, "duration": 79, "velocity": 70}, {"time": 34960, "pitch": 66, "duration": 79, "velocity": 80}, {"time": 35039, "pitch": 52, "duration": 160, "velocity": 80}, {"time": 35039, "pitch": 57, "duration": 160, "velocity": 110}, {"time": 35039, "pitch": 61, "duration": 160, "velocity": 90}, {"time": 35039, "pitch": 64, "duration": 160, "velocity": 100}, {"time": 35199, "pitch": 52, "duration": 80, "velocity": 60}, {"time": 35199, "pitch": 57, "duration": 80, "velocity": 90}, {"time": 35199, "pitch": 61, "duration": 80, "velocity": 70}, {"time": 35199, "pitch": 64, "duration": 80, "velocity": 80}, {"time": 35279, "pitch": 52, "duration": 240, "velocity": 80}, {"time": 35279, "pitch": 57, "duration": 240, "velocity": 110}, {"time": 35279, "pitch": 61, "duration": 240, "velocity": 90}, {"time": 35279, "pitch": 64, "duration": 240, "velocity": 100}, {"time": 35519, "pitch": 52, "duration": 240, "velocity": 85}, {"time": 35519, "pitch": 56, "duration": 240, "velocity": 115}, {"time": 35519, "pitch": 59, "duration": 240, "velocity": 95}, {"time": 35519, "pitch": 64, "duration": 240, "velocity": 105}, {"time": 35759, "pitch": 52, "duration": 160, "velocity": 70}, {"time": 35759, "pitch": 56, "duration": 160, "velocity": 100}, {"time": 35759, "pitch": 59, "duration": 160, "velocity": 80}, {"time": 35759, "pitch": 64, "duration": 160, "velocity": 90}, {"time": 35919, "pitch": 52, "duration": 40, "velocity": 50}, {"time": 35919, "pitch": 56, "duration": 40, "velocity": 80}, {"time": 35919, "pitch": 59, "duration": 40, "velocity": 60}, {"time": 35919, "pitch": 64, "duration": 40, "velocity": 70}, {"time": 35999, "pitch": 54, "duration": 239, "velocity": 80}, {"time": 35999, "pitch": 57, "duration": 239, "velocity": 110}, {"time": 35999, "pitch": 61, "duration": 239, "velocity": 90}, {"time": 35999, "pitch": 66, "duration": 239, "velocity": 100}, {"time": 36238, "pitch": 54, "duration": 240, "velocity": 60}, {"time": 36238, "pitch": 57, "duration": 240, "velocity": 90}, {"time": 36238, "pitch": 61, "duration": 240, "velocity": 70}, {"time": 36238, "pitch": 66, "duration": 240, "velocity": 80}, {"time": 36478, "pitch": 54, "duration": 240, "velocity": 85}, {"time": 36478, "pitch": 57, "duration": 240, "velocity": 115}, {"time": 36478, "pitch": 61, "duration": 240, "velocity": 95}, {"time": 36478, "pitch": 66, "duration": 240, "velocity": 105}, {"time": 36718, "pitch": 54, "duration": 160, "velocity": 70}, {"time": 36718, "pitch": 57, "duration": 160, "velocity": 100}, {"time": 36718, "pitch": 61, "duration": 160, "velocity": 80}, {"time": 36718, "pitch": 66, "duration": 160, "velocity": 90}, {"time": 36878, "pitch": 54, "duration": 80, "velocity": 60}, {"time": 36878, "pitch": 57, "duration": 80, "velocity": 90}, {"time": 36878, "pitch": 61, "duration": 80, "velocity": 70}, {"time": 36878, "pitch": 66, "duration": 80, "velocity": 80}, {"time": 36958, "pitch": 51, "duration": 159, "velocity": 80}, {"time": 36958, "pitch": 57, "duration": 159, "velocity": 110}, {"time": 36958, "pitch": 59, "duration": 159, "velocity": 90}, {"time": 36958, "pitch": 66, "duration": 159, "velocity": 100}, {"time": 37117, "pitch": 51, "duration": 80, "velocity": 60}, {"time": 37117, "pitch": 57, "duration": 80, "velocity": 90}, {"time": 37117, "pitch": 59, "duration": 80, "velocity": 70}, {"time": 37117, "pitch": 66, "duration": 80, "velocity": 80}, {"time": 37197, "pitch": 51, "duration": 240, "velocity": 80}, {"time": 37197, "pitch": 57, "duration": 240, "velocity": 110}, {"time": 37197, "pitch": 59, "duration": 240, "velocity": 90}, {"time": 37197, "pitch": 66, "duration": 240, "velocity": 100}, {"time": 37437, "pitch": 51, "duration": 243, "velocity": 85}, {"time": 37437, "pitch": 57, "duration": 243, "velocity": 115}, {"time": 37437, "pitch": 59, "duration": 243, "velocity": 95}, {"time": 37437, "pitch": 66, "duration": 243, "velocity": 105}, {"time": 37680, "pitch": 51, "duration": 162, "velocity": 70}, {"time": 37680, "pitch": 57, "duration": 162, "velocity": 100}, {"time": 37680, "pitch": 59, "duration": 162, "velocity": 80}, {"time": 37680, "pitch": 66, "duration": 162, "velocity": 90}, {"time": 37842, "pitch": 51, "duration": 40, "velocity": 50}, {"time": 37842, "pitch": 57, "duration": 40, "velocity": 80}, {"time": 37842, "pitch": 59, "duration": 40, "velocity": 60}, {"time": 37842, "pitch": 66, "duration": 40, "velocity": 70}, {"time": 37923, "pitch": 50, "duration": 240, "velocity": 80}, {"time": 37923, "pitch": 57, "duration": 240, "velocity": 110}, {"time": 37923, "pitch": 62, "duration": 240, "velocity": 90}, {"time": 37923, "pitch": 66, "duration": 240, "velocity": 100}, {"time": 38163, "pitch": 50, "duration": 239, "velocity": 60}, {"time": 38163, "pitch": 57, "duration": 239, "velocity": 90}, {"time": 38163, "pitch": 62, "duration": 239, "velocity": 70}, {"time": 38163, "pitch": 66, "duration": 239, "velocity": 80}, {"time": 38402, "pitch": 50, "duration": 240, "velocity": 85}, {"time": 38402, "pitch": 57, "duration": 240, "velocity": 115}, {"time": 38402, "pitch": 62, "duration": 240, "velocity": 95}, {"time": 38402, "pitch": 66, "duration": 240, "velocity": 105}, {"time": 38642, "pitch": 50, "duration": 160, "velocity": 70}, {"time": 38642, "pitch": 57, "duration": 160, "velocity": 100}, {"time": 38642, "pitch": 62, "duration": 160, "velocity": 80}, {"time": 38642, "pitch": 66, "duration": 160, "velocity": 90}, {"time": 38802, "pitch": 50, "duration": 80, "velocity": 60}, {"time": 38802, "pitch": 57, "duration": 80, "velocity": 90}, {"time": 38802, "pitch": 62, "duration": 80, "velocity": 70}, {"time": 38802, "pitch": 66, "duration": 80, "velocity": 80}, {"time": 38882, "pitch": 52, "duration": 160, "velocity": 80}, {"time": 38882, "pitch": 57, "duration": 160, "velocity": 110}, {"time": 38882, "pitch": 59, "duration": 160, "velocity": 90}, {"time": 38882, "pitch": 64, "duration": 160, "velocity": 100}, {"time": 39042, "pitch": 52, "duration": 80, "velocity": 60}, {"time": 39042, "pitch": 57, "duration": 80, "velocity": 90}, {"time": 39042, "pitch": 59, "duration": 80, "velocity": 70}, {"time": 39042, "pitch": 64, "duration": 80, "velocity": 80}, {"time": 39122, "pitch": 52, "duration": 239, "velocity": 80}, {"time": 39122, "pitch": 57, "duration": 239, "velocity": 110}, {"time": 39122, "pitch": 59, "duration": 239, "velocity": 90}, {"time": 39122, "pitch": 64, "duration": 239, "velocity": 100}, {"time": 39361, "pitch": 52, "duration": 240, "velocity": 85}, {"time": 39361, "pitch": 56, "duration": 240, "velocity": 115}, {"time": 39361, "pitch": 59, "duration": 240, "velocity": 95}, {"time": 39361, "pitch": 64, "duration": 240, "velocity": 105}, {"time": 39601, "pitch": 52, "duration": 160, "velocity": 70}, {"time": 39601, "pitch": 56, "duration": 160, "velocity": 100}, {"time": 39601, "pitch": 59, "duration": 160, "velocity": 80}, {"time": 39601, "pitch": 64, "duration": 160, "velocity": 90}, {"time": 39761, "pitch": 52, "duration": 40, "velocity": 50}, {"time": 39761, "pitch": 56, "duration": 40, "velocity": 80}, {"time": 39761, "pitch": 59, "duration": 40, "velocity": 60}, {"time": 39761, "pitch": 64, "duration": 40, "velocity": 70}, {"time": 39841, "pitch": 52, "duration": 240, "velocity": 80}, {"time": 39841, "pitch": 57, "duration": 240, "velocity": 110}, {"time": 39841, "pitch": 61, "duration": 240, "velocity": 90}, {"time": 39841, "pitch": 64, "duration": 240, "velocity": 100}, {"time": 40081, "pitch": 52, "duration": 239, "velocity": 60}, {"time": 40081, "pitch": 57, "duration": 239, "velocity": 90}, {"time": 40081, "pitch": 61, "duration": 239, "velocity": 70}, {"time": 40081, "pitch": 64, "duration": 239, "velocity": 80}, {"time": 40320, "pitch": 52, "duration": 240, "velocity": 85}, {"time": 40320, "pitch": 57, "duration": 240, "velocity": 115}, {"time": 40320, "pitch": 61, "duration": 240, "velocity": 95}, {"time": 40320, "pitch": 64, "duration": 240, "velocity": 105}, {"time": 40560, "pitch": 52, "duration": 160, "velocity": 70}, {"time": 40560, "pitch": 57, "duration": 160, "velocity": 100}, {"time": 40560, "pitch": 61, "duration": 160, "velocity": 80}, {"time": 40560, "pitch": 64, "duration": 160, "velocity": 90}, {"time": 40720, "pitch": 52, "duration": 80, "velocity": 60}, {"time": 40720, "pitch": 57, "duration": 80, "velocity": 90}, {"time": 40720, "pitch": 61, "duration": 80, "velocity": 70}, {"time": 40720, "pitch": 64, "duration": 80, "velocity": 80}, {"time": 40800, "pitch": 52, "duration": 160, "velocity": 80}, {"time": 40800, "pitch": 56, "duration": 160, "velocity": 110}, {"time": 40800, "pitch": 59, "duration": 160, "velocity": 90}, {"time": 40800, "pitch": 64, "duration": 160, "velocity": 100}, {"time": 40960, "pitch": 52, "duration": 80, "velocity": 60}, {"time": 40960, "pitch": 56, "duration": 80, "velocity": 90}, {"time": 40960, "pitch": 59, "duration": 80, "velocity": 70}, {"time": 40960, "pitch": 64, "duration": 80, "velocity": 80}, {"time": 41040, "pitch": 52, "duration": 239, "velocity": 80}, {"time": 41040, "pitch": 56, "duration": 239, "velocity": 110}, {"time": 41040, "pitch": 59, "duration": 239, "velocity": 90}, {"time": 41040, "pitch": 64, "duration": 239, "velocity": 100}, {"time": 41279, "pitch": 52, "duration": 240, "velocity": 85}, {"time": 41279, "pitch": 56, "duration": 240, "velocity": 115}, {"time": 41279, "pitch": 59, "duration": 240, "velocity": 95}, {"time": 41279, "pitch": 64, "duration": 240, "velocity": 105}, {"time": 41519, "pitch": 52, "duration": 160, "velocity": 70}, {"time": 41519, "pitch": 56, "duration": 160, "velocity": 100}, {"time": 41519, "pitch": 59, "duration": 160, "velocity": 80}, {"time": 41519, "pitch": 64, "duration": 160, "velocity": 90}, {"time": 41679, "pitch": 52, "duration": 40, "velocity": 50}, {"time": 41679, "pitch": 56, "duration": 40, "velocity": 80}, {"time": 41679, "pitch": 59, "duration": 40, "velocity": 60}, {"time": 41679, "pitch": 64, "duration": 40, "velocity": 70}, {"time": 41759, "pitch": 50, "duration": 240, "velocity": 80}, {"time": 41759, "pitch": 57, "duration": 240, "velocity": 110}, {"time": 41759, "pitch": 62, "duration": 240, "velocity": 90}, {"time": 41759, "pitch": 66, "duration": 240, "velocity": 100}, {"time": 41999, "pitch": 50, "duration": 239, "velocity": 60}, {"time": 41999, "pitch": 57, "duration": 239, "velocity": 90}, {"time": 41999, "pitch": 62, "duration": 239, "velocity": 70}, {"time": 41999, "pitch": 66, "duration": 239, "velocity": 80}, {"time": 42238, "pitch": 50, "duration": 240, "velocity": 85}, {"time": 42238, "pitch": 57, "duration": 240, "velocity": 115}, {"time": 42238, "pitch": 62, "duration": 240, "velocity": 95}, {"time": 42238, "pitch": 66, "duration": 240, "velocity": 105}, {"time": 42478, "pitch": 50, "duration": 160, "velocity": 70}, {"time": 42478, "pitch": 57, "duration": 160, "velocity": 100}, {"time": 42478, "pitch": 62, "duration": 160, "velocity": 80}, {"time": 42478, "pitch": 66, "duration": 160, "velocity": 90}, {"time": 42638, "pitch": 50, "duration": 80, "velocity": 60}, {"time": 42638, "pitch": 57, "duration": 80, "velocity": 90}, {"time": 42638, "pitch": 62, "duration": 80, "velocity": 70}, {"time": 42638, "pitch": 66, "duration": 80, "velocity": 80}, {"time": 42718, "pitch": 52, "duration": 160, "velocity": 80}, {"time": 42718, "pitch": 57, "duration": 160, "velocity": 110}, {"time": 42718, "pitch": 61, "duration": 160, "velocity": 90}, {"time": 42718, "pitch": 64, "duration": 160, "velocity": 100}, {"time": 42878, "pitch": 52, "duration": 80, "velocity": 60}, {"time": 42878, "pitch": 57, "duration": 80, "velocity": 90}, {"time": 42878, "pitch": 61, "duration": 80, "velocity": 70}, {"time": 42878, "pitch": 64, "duration": 80, "velocity": 80}, {"time": 42958, "pitch": 52, "duration": 239, "velocity": 80}, {"time": 42958, "pitch": 57, "duration": 239, "velocity": 110}, {"time": 42958, "pitch": 61, "duration": 239, "velocity": 90}, {"time": 42958, "pitch": 64, "duration": 239, "velocity": 100}, {"time": 43197, "pitch": 52, "duration": 240, "velocity": 85}, {"time": 43197, "pitch": 56, "duration": 240, "velocity": 115}, {"time": 43197, "pitch": 59, "duration": 240, "velocity": 95}, {"time": 43197, "pitch": 64, "duration": 240, "velocity": 105}, {"time": 43437, "pitch": 52, "duration": 160, "velocity": 70}, {"time": 43437, "pitch": 56, "duration": 160, "velocity": 100}, {"time": 43437, "pitch": 59, "duration": 160, "velocity": 80}, {"time": 43437, "pitch": 64, "duration": 160, "velocity": 90}, {"time": 43597, "pitch": 52, "duration": 40, "velocity": 50}, {"time": 43597, "pitch": 56, "duration": 40, "velocity": 80}, {"time": 43597, "pitch": 59, "duration": 40, "velocity": 60}, {"time": 43597, "pitch": 64, "duration": 40, "velocity": 70}, {"time": 43677, "pitch": 54, "duration": 243, "velocity": 80}, {"time": 43677, "pitch": 57, "duration": 243, "velocity": 110}, {"time": 43677, "pitch": 61, "duration": 243, "velocity": 90}, {"time": 43677, "pitch": 66, "duration": 243, "velocity": 100}, {"time": 43920, "pitch": 54, "duration": 243, "velocity": 60}, {"time": 43920, "pitch": 57, "duration": 243, "velocity": 90}, {"time": 43920, "pitch": 61, "duration": 243, "velocity": 70}, {"time": 43920, "pitch": 66, "duration": 243, "velocity": 80}, {"time": 44163, "pitch": 54, "duration": 239, "velocity": 85}, {"time": 44163, "pitch": 57, "duration": 239, "velocity": 115}, {"time": 44163, "pitch": 61, "duration": 239, "velocity": 95}, {"time": 44163, "pitch": 66, "duration": 239, "velocity": 105}, {"time": 44402, "pitch": 54, "duration": 160, "velocity": 70}, {"time": 44402, "pitch": 57, "duration": 160, "velocity": 100}, {"time": 44402, "pitch": 61, "duration": 160, "velocity": 80}, {"time": 44402, "pitch": 66, "duration": 160, "velocity": 90}, {"time": 44562, "pitch": 54, "duration": 80, "velocity": 60}, {"time": 44562, "pitch": 57, "duration": 80, "velocity": 90}, {"time": 44562, "pitch": 61, "duration": 80, "velocity": 70}, {"time": 44562, "pitch": 66, "duration": 80, "velocity": 80}, {"time": 44642, "pitch": 51, "duration": 160, "velocity": 80}, {"time": 44642, "pitch": 57, "duration": 160, "velocity": 110}, {"time": 44642, "pitch": 59, "duration": 160, "velocity": 90}, {"time": 44642, "pitch": 66, "duration": 160, "velocity": 100}, {"time": 44802, "pitch": 51, "duration": 80, "velocity": 60}, {"time": 44802, "pitch": 57, "duration": 80, "velocity": 90}, {"time": 44802, "pitch": 59, "duration": 80, "velocity": 70}, {"time": 44802, "pitch": 66, "duration": 80, "velocity": 80}, {"time": 44882, "pitch": 51, "duration": 240, "velocity": 80}, {"time": 44882, "pitch": 57, "duration": 240, "velocity": 110}, {"time": 44882, "pitch": 59, "duration": 240, "velocity": 90}, {"time": 44882, "pitch": 66, "duration": 240, "velocity": 100}, {"time": 45122, "pitch": 51, "duration": 239, "velocity": 85}, {"time": 45122, "pitch": 57, "duration": 239, "velocity": 115}, {"time": 45122, "pitch": 59, "duration": 239, "velocity": 95}, {"time": 45122, "pitch": 66, "duration": 239, "velocity": 105}, {"time": 45361, "pitch": 51, "duration": 160, "velocity": 70}, {"time": 45361, "pitch": 57, "duration": 160, "velocity": 100}, {"time": 45361, "pitch": 59, "duration": 160, "velocity": 80}, {"time": 45361, "pitch": 66, "duration": 160, "velocity": 90}, {"time": 45521, "pitch": 51, "duration": 40, "velocity": 50}, {"time": 45521, "pitch": 57, "duration": 40, "velocity": 80}, {"time": 45521, "pitch": 59, "duration": 40, "velocity": 60}, {"time": 45521, "pitch": 66, "duration": 40, "velocity": 70}, {"time": 45601, "pitch": 50, "duration": 240, "velocity": 80}, {"time": 45601, "pitch": 57, "duration": 240, "velocity": 110}, {"time": 45601, "pitch": 62, "duration": 240, "velocity": 90}, {"time": 45601, "pitch": 66, "duration": 240, "velocity": 100}, {"time": 45841, "pitch": 50, "duration": 240, "velocity": 60}, {"time": 45841, "pitch": 57, "duration": 240, "velocity": 90}, {"time": 45841, "pitch": 62, "duration": 240, "velocity": 70}, {"time": 45841, "pitch": 66, "duration": 240, "velocity": 80}, {"time": 46081, "pitch": 50, "duration": 240, "velocity": 85}, {"time": 46081, "pitch": 57, "duration": 240, "velocity": 115}, {"time": 46081, "pitch": 62, "duration": 240, "velocity": 95}, {"time": 46081, "pitch": 66, "duration": 240, "velocity": 105}, {"time": 46321, "pitch": 50, "duration": 159, "velocity": 70}, {"time": 46321, "pitch": 57, "duration": 159, "velocity": 100}, {"time": 46321, "pitch": 62, "duration": 159, "velocity": 80}, {"time": 46321, "pitch": 66, "duration": 159, "velocity": 90}, {"time": 46480, "pitch": 50, "duration": 80, "velocity": 60}, {"time": 46480, "pitch": 57, "duration": 80, "velocity": 90}, {"time": 46480, "pitch": 62, "duration": 80, "velocity": 70}, {"time": 46480, "pitch": 66, "duration": 80, "velocity": 80}, {"time": 46560, "pitch": 52, "duration": 160, "velocity": 80}, {"time": 46560, "pitch": 57, "duration": 160, "velocity": 110}, {"time": 46560, "pitch": 59, "duration": 160, "velocity": 90}, {"time": 46560, "pitch": 64, "duration": 160, "velocity": 100}, {"time": 46720, "pitch": 52, "duration": 80, "velocity": 60}, {"time": 46720, "pitch": 57, "duration": 80, "velocity": 90}, {"time": 46720, "pitch": 59, "duration": 80, "velocity": 70}, {"time": 46720, "pitch": 64, "duration": 80, "velocity": 80}, {"time": 46800, "pitch": 52, "duration": 240, "velocity": 80}, {"time": 46800, "pitch": 57, "duration": 240, "velocity": 110}, {"time": 46800, "pitch": 59, "duration": 240, "velocity": 90}, {"time": 46800, "pitch": 64, "duration": 240, "velocity": 100}, {"time": 47040, "pitch": 52, "duration": 240, "velocity": 85}, {"time": 47040, "pitch": 56, "duration": 240, "velocity": 115}, {"time": 47040, "pitch": 59, "duration": 240, "velocity": 95}, {"time": 47040, "pitch": 64, "duration": 240, "velocity": 105}, {"time": 47280, "pitch": 52, "duration": 159, "velocity": 70}, {"time": 47280, "pitch": 56, "duration": 159, "velocity": 100}, {"time": 47280, "pitch": 59, "duration": 159, "velocity": 80}, {"time": 47280, "pitch": 64, "duration": 159, "velocity": 90}, {"time": 47439, "pitch": 52, "duration": 40, "velocity": 50}, {"time": 47439, "pitch": 56, "duration": 40, "velocity": 80}, {"time": 47439, "pitch": 59, "duration": 40, "velocity": 60}, {"time": 47439, "pitch": 64, "duration": 40, "velocity": 70}, {"time": 47519, "pitch": 50, "duration": 480, "velocity": 70}, {"time": 47519, "pitch": 57, "duration": 480, "velocity": 100}, {"time": 47519, "pitch": 62, "duration": 480, "velocity": 80}, {"time": 47519, "pitch": 66, "duration": 480, "velocity": 90}, {"time": 47999, "pitch": 50, "duration": 399, "velocity": 85}, {"time": 47999, "pitch": 57, "duration": 399, "velocity": 115}, {"time": 47999, "pitch": 62, "duration": 399, "velocity": 95}, {"time": 47999, "pitch": 66, "duration": 399, "velocity": 105}, {"time": 48398, "pitch": 50, "duration": 80, "velocity": 60}, {"time": 48398, "pitch": 57, "duration": 80, "velocity": 90}, {"time": 48398, "pitch": 62, "duration": 80, "velocity": 70}, {"time": 48398, "pitch": 66, "duration": 80, "velocity": 80}, {"time": 48478, "pitch": 50, "duration": 160, "velocity": 80}, {"time": 48478, "pitch": 57, "duration": 160, "velocity": 110}, {"time": 48478, "pitch": 62, "duration": 160, "velocity": 90}, {"time": 48478, "pitch": 66, "duration": 160, "velocity": 100}, {"time": 48638, "pitch": 50, "duration": 80, "velocity": 60}, {"time": 48638, "pitch": 57, "duration": 80, "velocity": 90}, {"time": 48638, "pitch": 62, "duration": 80, "velocity": 70}, {"time": 48638, "pitch": 66, "duration": 80, "velocity": 80}, {"time": 48718, "pitch": 50, "duration": 240, "velocity": 80}, {"time": 48718, "pitch": 57, "duration": 240, "velocity": 110}, {"time": 48718, "pitch": 62, "duration": 240, "velocity": 90}, {"time": 48718, "pitch": 66, "duration": 240, "velocity": 100}, {"time": 48958, "pitch": 50, "duration": 240, "velocity": 85}, {"time": 48958, "pitch": 57, "duration": 240, "velocity": 115}, {"time": 48958, "pitch": 62, "duration": 240, "velocity": 95}, {"time": 48958, "pitch": 66, "duration": 240, "velocity": 105}, {"time": 49198, "pitch": 50, "duration": 159, "velocity": 70}, {"time": 49198, "pitch": 57, "duration": 159, "velocity": 100}, {"time": 49198, "pitch": 62, "duration": 159, "velocity": 80}, {"time": 49198, "pitch": 66, "duration": 159, "velocity": 90}, {"time": 49357, "pitch": 50, "duration": 40, "velocity": 50}, {"time": 49357, "pitch": 57, "duration": 40, "velocity": 80}, {"time": 49357, "pitch": 62, "duration": 40, "velocity": 60}, {"time": 49357, "pitch": 66, "duration": 40, "velocity": 70}, {"time": 49437, "pitch": 56, "duration": 486, "velocity": 70}, {"time": 49437, "pitch": 59, "duration": 486, "velocity": 100}, {"time": 49437, "pitch": 64, "duration": 486, "velocity": 80}, {"time": 49437, "pitch": 68, "duration": 486, "velocity": 90}, {"time": 49923, "pitch": 56, "duration": 400, "velocity": 85}, {"time": 49923, "pitch": 59, "duration": 400, "velocity": 115}, {"time": 49923, "pitch": 64, "duration": 400, "velocity": 95}, {"time": 49923, "pitch": 68, "duration": 400, "velocity": 105}, {"time": 50323, "pitch": 56, "duration": 80, "velocity": 60}, {"time": 50323, "pitch": 59, "duration": 80, "velocity": 90}, {"time": 50323, "pitch": 64, "duration": 80, "velocity": 70}, {"time": 50323, "pitch": 68, "duration": 80, "velocity": 80}, {"time": 50403, "pitch": 56, "duration": 159, "velocity": 80}, {"time": 50403, "pitch": 59, "duration": 159, "velocity": 110}, {"time": 50403, "pitch": 64, "duration": 159, "velocity": 90}, {"time": 50403, "pitch": 68, "duration": 159, "velocity": 100}, {"time": 50562, "pitch": 56, "duration": 80, "velocity": 60}, {"time": 50562, "pitch": 59, "duration": 80, "velocity": 90}, {"time": 50562, "pitch": 64, "duration": 80, "velocity": 70}, {"time": 50562, "pitch": 68, "duration": 80, "velocity": 80}, {"time": 50642, "pitch": 56, "duration": 240, "velocity": 80}, {"time": 50642, "pitch": 59, "duration": 240, "velocity": 110}, {"time": 50642, "pitch": 64, "duration": 240, "velocity": 90}, {"time": 50642, "pitch": 68, "duration": 240, "velocity": 100}, {"time": 50882, "pitch": 56, "duration": 240, "velocity": 85}, {"time": 50882, "pitch": 59, "duration": 240, "velocity": 115}, {"time": 50882, "pitch": 64, "duration": 240, "velocity": 95}, {"time": 50882, "pitch": 68, "duration": 240, "velocity": 105}, {"time": 51122, "pitch": 56, "duration": 160, "velocity": 70}, {"time": 51122, "pitch": 59, "duration": 160, "velocity": 100}, {"time": 51122, "pitch": 64, "duration": 160, "velocity": 80}, {"time": 51122, "pitch": 68, "duration": 160, "velocity": 90}, {"time": 51282, "pitch": 56, "duration": 40, "velocity": 50}, {"time": 51282, "pitch": 59, "duration": 40, "velocity": 80}, {"time": 51282, "pitch": 64, "duration": 40, "velocity": 60}, {"time": 51282, "pitch": 68, "duration": 40, "velocity": 70}, {"time": 51362, "pitch": 54, "duration": 479, "velocity": 70}, {"time": 51362, "pitch": 59, "duration": 479, "velocity": 100}, {"time": 51362, "pitch": 62, "duration": 479, "velocity": 80}, {"time": 51362, "pitch": 66, "duration": 479, "velocity": 90}, {"time": 51841, "pitch": 54, "duration": 400, "velocity": 85}, {"time": 51841, "pitch": 59, "duration": 400, "velocity": 115}, {"time": 51841, "pitch": 62, "duration": 400, "velocity": 95}, {"time": 51841, "pitch": 66, "duration": 400, "velocity": 105}, {"time": 52241, "pitch": 54, "duration": 80, "velocity": 60}, {"time": 52241, "pitch": 59, "duration": 80, "velocity": 90}, {"time": 52241, "pitch": 62, "duration": 80, "velocity": 70}, {"time": 52241, "pitch": 66, "duration": 80, "velocity": 80}, {"time": 52321, "pitch": 52, "duration": 160, "velocity": 80}, {"time": 52321, "pitch": 56, "duration": 160, "velocity": 110}, {"time": 52321, "pitch": 59, "duration": 160, "velocity": 90}, {"time": 52321, "pitch": 64, "duration": 160, "velocity": 100}, {"time": 52481, "pitch": 52, "duration": 79, "velocity": 60}, {"time": 52481, "pitch": 56, "duration": 79, "velocity": 90}, {"time": 52481, "pitch": 59, "duration": 79, "velocity": 70}, {"time": 52481, "pitch": 64, "duration": 79, "velocity": 80}, {"time": 52560, "pitch": 52, "duration": 240, "velocity": 80}, {"time": 52560, "pitch": 56, "duration": 240, "velocity": 110}, {"time": 52560, "pitch": 59, "duration": 240, "velocity": 90}, {"time": 52560, "pitch": 64, "duration": 240, "velocity": 100}, {"time": 52800, "pitch": 52, "duration": 240, "velocity": 85}, {"time": 52800, "pitch": 56, "duration": 240, "velocity": 115}, {"time": 52800, "pitch": 59, "duration": 240, "velocity": 95}, {"time": 52800, "pitch": 64, "duration": 240, "velocity": 105}, {"time": 53040, "pitch": 52, "duration": 160, "velocity": 70}, {"time": 53040, "pitch": 56, "duration": 160, "velocity": 100}, {"time": 53040, "pitch": 59, "duration": 160, "velocity": 80}, {"time": 53040, "pitch": 64, "duration": 160, "velocity": 90}, {"time": 53200, "pitch": 52, "duration": 40, "velocity": 50}, {"time": 53200, "pitch": 56, "duration": 40, "velocity": 80}, {"time": 53200, "pitch": 59, "duration": 40, "velocity": 60}, {"time": 53200, "pitch": 64, "duration": 40, "velocity": 70}, {"time": 53280, "pitch": 52, "duration": 479, "velocity": 70}, {"time": 53280, "pitch": 57, "duration": 479, "velocity": 100}, {"time": 53280, "pitch": 61, "duration": 479, "velocity": 80}, {"time": 53280, "pitch": 64, "duration": 479, "velocity": 90}, {"time": 53759, "pitch": 52, "duration": 400, "velocity": 85}, {"time": 53759, "pitch": 57, "duration": 400, "velocity": 115}, {"time": 53759, "pitch": 61, "duration": 400, "velocity": 95}, {"time": 53759, "pitch": 64, "duration": 400, "velocity": 105}, {"time": 54159, "pitch": 52, "duration": 80, "velocity": 60}, {"time": 54159, "pitch": 57, "duration": 80, "velocity": 90}, {"time": 54159, "pitch": 61, "duration": 80, "velocity": 70}, {"time": 54159, "pitch": 64, "duration": 80, "velocity": 80}, {"time": 54239, "pitch": 52, "duration": 160, "velocity": 80}, {"time": 54239, "pitch": 56, "duration": 160, "velocity": 110}, {"time": 54239, "pitch": 59, "duration": 160, "velocity": 90}, {"time": 54239, "pitch": 64, "duration": 160, "velocity": 100}, {"time": 54399, "pitch": 52, "duration": 80, "velocity": 60}, {"time": 54399, "pitch": 56, "duration": 80, "velocity": 90}, {"time": 54399, "pitch": 59, "duration": 80, "velocity": 70}, {"time": 54399, "pitch": 64, "duration": 80, "velocity": 80}, {"time": 54479, "pitch": 52, "duration": 239, "velocity": 80}, {"time": 54479, "pitch": 56, "duration": 239, "velocity": 110}, {"time": 54479, "pitch": 59, "duration": 239, "velocity": 90}, {"time": 54479, "pitch": 64, "duration": 239, "velocity": 100}, {"time": 54718, "pitch": 52, "duration": 240, "velocity": 85}, {"time": 54718, "pitch": 56, "duration": 240, "velocity": 115}, {"time": 54718, "pitch": 59, "duration": 240, "velocity": 95}, {"time": 54718, "pitch": 64, "duration": 240, "velocity": 105}, {"time": 54958, "pitch": 52, "duration": 160, "velocity": 70}, {"time": 54958, "pitch": 56, "duration": 160, "velocity": 100}, {"time": 54958, "pitch": 59, "duration": 160, "velocity": 80}, {"time": 54958, "pitch": 64, "duration": 160, "velocity": 90}, {"time": 55118, "pitch": 52, "duration": 40, "velocity": 50}, {"time": 55118, "pitch": 56, "duration": 40, "velocity": 80}, {"time": 55118, "pitch": 59, "duration": 40, "velocity": 60}, {"time": 55118, "pitch": 64, "duration": 40, "velocity": 70}, {"time": 55198, "pitch": 52, "duration": 479, "velocity": 70}, {"time": 55198, "pitch": 57, "duration": 479, "velocity": 100}, {"time": 55198, "pitch": 61, "duration": 479, "velocity": 80}, {"time": 55198, "pitch": 64, "duration": 479, "velocity": 90}, {"time": 55677, "pitch": 52, "duration": 405, "velocity": 85}, {"time": 55677, "pitch": 57, "duration": 405, "velocity": 115}, {"time": 55677, "pitch": 61, "duration": 405, "velocity": 95}, {"time": 55677, "pitch": 64, "duration": 405, "velocity": 105}, {"time": 56082, "pitch": 52, "duration": 81, "velocity": 60}, {"time": 56082, "pitch": 57, "duration": 81, "velocity": 90}, {"time": 56082, "pitch": 61, "duration": 81, "velocity": 70}, {"time": 56082, "pitch": 64, "duration": 81, "velocity": 80}, {"time": 56163, "pitch": 50, "duration": 160, "velocity": 80}, {"time": 56163, "pitch": 57, "duration": 160, "velocity": 110}, {"time": 56163, "pitch": 62, "duration": 160, "velocity": 90}, {"time": 56163, "pitch": 66, "duration": 160, "velocity": 100}, {"time": 56323, "pitch": 50, "duration": 80, "velocity": 60}, {"time": 56323, "pitch": 57, "duration": 80, "velocity": 90}, {"time": 56323, "pitch": 62, "duration": 80, "velocity": 70}, {"time": 56323, "pitch": 66, "duration": 80, "velocity": 80}, {"time": 56403, "pitch": 50, "duration": 479, "velocity": 80}, {"time": 56403, "pitch": 57, "duration": 479, "velocity": 110}, {"time": 56403, "pitch": 62, "duration": 479, "velocity": 90}, {"time": 56403, "pitch": 66, "duration": 479, "velocity": 100}, {"time": 56882, "pitch": 50, "duration": 160, "velocity": 70}, {"time": 56882, "pitch": 57, "duration": 160, "velocity": 100}, {"time": 56882, "pitch": 62, "duration": 160, "velocity": 80}, {"time": 56882, "pitch": 66, "duration": 160, "velocity": 90}, {"time": 57042, "pitch": 50, "duration": 40, "velocity": 50}, {"time": 57042, "pitch": 57, "duration": 40, "velocity": 80}, {"time": 57042, "pitch": 62, "duration": 40, "velocity": 60}, {"time": 57042, "pitch": 66, "duration": 40, "velocity": 70}, {"time": 57122, "pitch": 52, "duration": 480, "velocity": 70}, {"time": 57122, "pitch": 56, "duration": 480, "velocity": 100}, {"time": 57122, "pitch": 59, "duration": 480, "velocity": 80}, {"time": 57122, "pitch": 64, "duration": 480, "velocity": 90}, {"time": 57602, "pitch": 52, "duration": 399, "velocity": 85}, {"time": 57602, "pitch": 56, "duration": 399, "velocity": 115}, {"time": 57602, "pitch": 59, "duration": 399, "velocity": 95}, {"time": 57602, "pitch": 64, "duration": 399, "velocity": 105}, {"time": 58001, "pitch": 52, "duration": 80, "velocity": 60}, {"time": 58001, "pitch": 56, "duration": 80, "velocity": 90}, {"time": 58001, "pitch": 59, "duration": 80, "velocity": 70}, {"time": 58001, "pitch": 64, "duration": 80, "velocity": 80}, {"time": 58081, "pitch": 52, "duration": 160, "velocity": 80}, {"time": 58081, "pitch": 57, "duration": 160, "velocity": 110}, {"time": 58081, "pitch": 61, "duration": 160, "velocity": 90}, {"time": 58081, "pitch": 64, "duration": 160, "velocity": 100}, {"time": 58241, "pitch": 52, "duration": 80, "velocity": 60}, {"time": 58241, "pitch": 57, "duration": 80, "velocity": 90}, {"time": 58241, "pitch": 61, "duration": 80, "velocity": 70}, {"time": 58241, "pitch": 64, "duration": 80, "velocity": 80}, {"time": 58321, "pitch": 52, "duration": 240, "velocity": 80}, {"time": 58321, "pitch": 57, "duration": 240, "velocity": 110}, {"time": 58321, "pitch": 61, "duration": 240, "velocity": 90}, {"time": 58321, "pitch": 64, "duration": 240, "velocity": 100}, {"time": 58561, "pitch": 52, "duration": 239, "velocity": 70}, {"time": 58561, "pitch": 56, "duration": 239, "velocity": 100}, {"time": 58561, "pitch": 59, "duration": 239, "velocity": 80}, {"time": 58561, "pitch": 64, "duration": 239, "velocity": 90}, {"time": 58800, "pitch": 52, "duration": 240, "velocity": 70}, {"time": 58800, "pitch": 56, "duration": 240, "velocity": 100}, {"time": 58800, "pitch": 59, "duration": 240, "velocity": 80}, {"time": 58800, "pitch": 64, "duration": 240, "velocity": 90}, {"time": 59040, "pitch": 54, "duration": 480, "velocity": 70}, {"time": 59040, "pitch": 57, "duration": 480, "velocity": 100}, {"time": 59040, "pitch": 61, "duration": 480, "velocity": 80}, {"time": 59040, "pitch": 66, "duration": 480, "velocity": 90}, {"time": 59520, "pitch": 54, "duration": 399, "velocity": 85}, {"time": 59520, "pitch": 57, "duration": 399, "velocity": 115}, {"time": 59520, "pitch": 61, "duration": 399, "velocity": 95}, {"time": 59520, "pitch": 66, "duration": 399, "velocity": 105}, {"time": 59919, "pitch": 54, "duration": 80, "velocity": 60}, {"time": 59919, "pitch": 57, "duration": 80, "velocity": 90}, {"time": 59919, "pitch": 61, "duration": 80, "velocity": 70}, {"time": 59919, "pitch": 66, "duration": 80, "velocity": 80}, {"time": 59999, "pitch": 56, "duration": 160, "velocity": 80}, {"time": 59999, "pitch": 61, "duration": 160, "velocity": 110}, {"time": 59999, "pitch": 64, "duration": 160, "velocity": 90}, {"time": 59999, "pitch": 68, "duration": 160, "velocity": 100}, {"time": 60159, "pitch": 56, "duration": 80, "velocity": 60}, {"time": 60159, "pitch": 61, "duration": 80, "velocity": 90}, {"time": 60159, "pitch": 64, "duration": 80, "velocity": 70}, {"time": 60159, "pitch": 68, "duration": 80, "velocity": 80}, {"time": 60239, "pitch": 56, "duration": 479, "velocity": 80}, {"time": 60239, "pitch": 61, "duration": 479, "velocity": 110}, {"time": 60239, "pitch": 64, "duration": 479, "velocity": 90}, {"time": 60239, "pitch": 68, "duration": 479, "velocity": 100}, {"time": 60718, "pitch": 56, "duration": 160, "velocity": 70}, {"time": 60718, "pitch": 61, "duration": 160, "velocity": 100}, {"time": 60718, "pitch": 64, "duration": 160, "velocity": 80}, {"time": 60718, "pitch": 68, "duration": 160, "velocity": 90}, {"time": 60878, "pitch": 56, "duration": 40, "velocity": 50}, {"time": 60878, "pitch": 61, "duration": 40, "velocity": 80}, {"time": 60878, "pitch": 64, "duration": 40, "velocity": 60}, {"time": 60878, "pitch": 68, "duration": 40, "velocity": 70}, {"time": 60958, "pitch": 54, "duration": 480, "velocity": 70}, {"time": 60958, "pitch": 57, "duration": 480, "velocity": 100}, {"time": 60958, "pitch": 62, "duration": 480, "velocity": 80}, {"time": 60958, "pitch": 66, "duration": 480, "velocity": 90}, {"time": 61438, "pitch": 54, "duration": 399, "velocity": 85}, {"time": 61438, "pitch": 57, "duration": 399, "velocity": 115}, {"time": 61438, "pitch": 62, "duration": 399, "velocity": 95}, {"time": 61438, "pitch": 66, "duration": 399, "velocity": 105}, {"time": 61837, "pitch": 54, "duration": 80, "velocity": 60}, {"time": 61837, "pitch": 57, "duration": 80, "velocity": 90}, {"time": 61837, "pitch": 62, "duration": 80, "velocity": 70}, {"time": 61837, "pitch": 66, "duration": 80, "velocity": 80}, {"time": 61917, "pitch": 52, "duration": 162, "velocity": 80}, {"time": 61917, "pitch": 56, "duration": 162, "velocity": 110}, {"time": 61917, "pitch": 59, "duration": 162, "velocity": 90}, {"time": 61917, "pitch": 64, "duration": 162, "velocity": 100}, {"time": 62079, "pitch": 52, "duration": 81, "velocity": 60}, {"time": 62079, "pitch": 56, "duration": 81, "velocity": 90}, {"time": 62079, "pitch": 59, "duration": 81, "velocity": 70}, {"time": 62079, "pitch": 64, "duration": 81, "velocity": 80}, {"time": 62160, "pitch": 52, "duration": 243, "velocity": 80}, {"time": 62160, "pitch": 56, "duration": 243, "velocity": 110}, {"time": 62160, "pitch": 59, "duration": 243, "velocity": 90}, {"time": 62160, "pitch": 64, "duration": 243, "velocity": 100}, {"time": 62403, "pitch": 52, "duration": 240, "velocity": 70}, {"time": 62403, "pitch": 56, "duration": 240, "velocity": 100}, {"time": 62403, "pitch": 59, "duration": 240, "velocity": 80}, {"time": 62403, "pitch": 64, "duration": 240, "velocity": 90}, {"time": 62643, "pitch": 52, "duration": 159, "velocity": 70}, {"time": 62643, "pitch": 56, "duration": 159, "velocity": 100}, {"time": 62643, "pitch": 59, "duration": 159, "velocity": 80}, {"time": 62643, "pitch": 64, "duration": 159, "velocity": 90}, {"time": 62802, "pitch": 52, "duration": 40, "velocity": 50}, {"time": 62802, "pitch": 56, "duration": 40, "velocity": 80}, {"time": 62802, "pitch": 59, "duration": 40, "velocity": 60}, {"time": 62802, "pitch": 64, "duration": 40, "velocity": 70}, {"time": 62882, "pitch": 52, "duration": 480, "velocity": 70}, {"time": 62882, "pitch": 57, "duration": 480, "velocity": 100}, {"time": 62882, "pitch": 61, "duration": 480, "velocity": 80}, {"time": 62882, "pitch": 64, "duration": 480, "velocity": 90}, {"time": 63362, "pitch": 52, "duration": 400, "velocity": 85}, {"time": 63362, "pitch": 57, "duration": 400, "velocity": 115}, {"time": 63362, "pitch": 61, "duration": 400, "velocity": 95}, {"time": 63362, "pitch": 64, "duration": 400, "velocity": 105}, {"time": 63762, "pitch": 52, "duration": 79, "velocity": 60}, {"time": 63762, "pitch": 57, "duration": 79, "velocity": 90}, {"time": 63762, "pitch": 61, "duration": 79, "velocity": 70}, {"time": 63762, "pitch": 64, "duration": 79, "velocity": 80}, {"time": 63841, "pitch": 50, "duration": 160, "velocity": 80}, {"time": 63841, "pitch": 57, "duration": 160, "velocity": 110}, {"time": 63841, "pitch": 62, "duration": 160, "velocity": 90}, {"time": 63841, "pitch": 66, "duration": 160, "velocity": 100}, {"time": 64001, "pitch": 50, "duration": 80, "velocity": 60}, {"time": 64001, "pitch": 57, "duration": 80, "velocity": 90}, {"time": 64001, "pitch": 62, "duration": 80, "velocity": 70}, {"time": 64001, "pitch": 66, "duration": 80, "velocity": 80}, {"time": 64081, "pitch": 50, "duration": 480, "velocity": 80}, {"time": 64081, "pitch": 57, "duration": 480, "velocity": 110}, {"time": 64081, "pitch": 62, "duration": 480, "velocity": 90}, {"time": 64081, "pitch": 66, "duration": 480, "velocity": 100}, {"time": 64561, "pitch": 50, "duration": 160, "velocity": 70}, {"time": 64561, "pitch": 57, "duration": 160, "velocity": 100}, {"time": 64561, "pitch": 62, "duration": 160, "velocity": 80}, {"time": 64561, "pitch": 66, "duration": 160, "velocity": 90}, {"time": 64721, "pitch": 50, "duration": 40, "velocity": 50}, {"time": 64721, "pitch": 57, "duration": 40, "velocity": 80}, {"time": 64721, "pitch": 62, "duration": 40, "velocity": 60}, {"time": 64721, "pitch": 66, "duration": 40, "velocity": 70}, {"time": 64800, "pitch": 52, "duration": 480, "velocity": 70}, {"time": 64800, "pitch": 56, "duration": 480, "velocity": 100}, {"time": 64800, "pitch": 59, "duration": 480, "velocity": 80}, {"time": 64800, "pitch": 64, "duration": 480, "velocity": 90}, {"time": 65280, "pitch": 52, "duration": 400, "velocity": 85}, {"time": 65280, "pitch": 56, "duration": 400, "velocity": 115}, {"time": 65280, "pitch": 59, "duration": 400, "velocity": 95}, {"time": 65280, "pitch": 64, "duration": 400, "velocity": 105}, {"time": 65680, "pitch": 52, "duration": 80, "velocity": 60}, {"time": 65680, "pitch": 56, "duration": 80, "velocity": 90}, {"time": 65680, "pitch": 59, "duration": 80, "velocity": 70}, {"time": 65680, "pitch": 64, "duration": 80, "velocity": 80}, {"time": 65760, "pitch": 52, "duration": 159, "velocity": 80}, {"time": 65760, "pitch": 57, "duration": 159, "velocity": 110}, {"time": 65760, "pitch": 61, "duration": 159, "velocity": 90}, {"time": 65760, "pitch": 64, "duration": 159, "velocity": 100}, {"time": 65919, "pitch": 52, "duration": 80, "velocity": 60}, {"time": 65919, "pitch": 57, "duration": 80, "velocity": 90}, {"time": 65919, "pitch": 61, "duration": 80, "velocity": 70}, {"time": 65919, "pitch": 64, "duration": 80, "velocity": 80}, {"time": 65999, "pitch": 52, "duration": 240, "velocity": 80}, {"time": 65999, "pitch": 57, "duration": 240, "velocity": 110}, {"time": 65999, "pitch": 61, "duration": 240, "velocity": 90}, {"time": 65999, "pitch": 64, "duration": 240, "velocity": 100}, {"time": 66239, "pitch": 52, "duration": 240, "velocity": 70}, {"time": 66239, "pitch": 56, "duration": 240, "velocity": 100}, {"time": 66239, "pitch": 59, "duration": 240, "velocity": 80}, {"time": 66239, "pitch": 64, "duration": 240, "velocity": 90}, {"time": 66479, "pitch": 52, "duration": 240, "velocity": 70}, {"time": 66479, "pitch": 56, "duration": 240, "velocity": 100}, {"time": 66479, "pitch": 59, "duration": 240, "velocity": 80}, {"time": 66479, "pitch": 64, "duration": 240, "velocity": 90}, {"time": 66719, "pitch": 54, "duration": 479, "velocity": 70}, {"time": 66719, "pitch": 57, "duration": 479, "velocity": 100}, {"time": 66719, "pitch": 61, "duration": 479, "velocity": 80}, {"time": 66719, "pitch": 66, "duration": 479, "velocity": 90}, {"time": 67198, "pitch": 54, "duration": 400, "velocity": 85}, {"time": 67198, "pitch": 57, "duration": 400, "velocity": 115}, {"time": 67198, "pitch": 61, "duration": 400, "velocity": 95}, {"time": 67198, "pitch": 66, "duration": 400, "velocity": 105}, {"time": 67598, "pitch": 54, "duration": 80, "velocity": 60}, {"time": 67598, "pitch": 57, "duration": 80, "velocity": 90}, {"time": 67598, "pitch": 61, "duration": 80, "velocity": 70}, {"time": 67598, "pitch": 66, "duration": 80, "velocity": 80}, {"time": 67678, "pitch": 56, "duration": 159, "velocity": 80}, {"time": 67678, "pitch": 61, "duration": 159, "velocity": 110}, {"time": 67678, "pitch": 64, "duration": 159, "velocity": 90}, {"time": 67678, "pitch": 68, "duration": 159, "velocity": 100}, {"time": 67837, "pitch": 56, "duration": 80, "velocity": 60}, {"time": 67837, "pitch": 61, "duration": 80, "velocity": 90}, {"time": 67837, "pitch": 64, "duration": 80, "velocity": 70}, {"time": 67837, "pitch": 68, "duration": 80, "velocity": 80}, {"time": 67917, "pitch": 56, "duration": 483, "velocity": 80}, {"time": 67917, "pitch": 61, "duration": 483, "velocity": 110}, {"time": 67917, "pitch": 64, "duration": 483, "velocity": 90}, {"time": 67917, "pitch": 68, "duration": 483, "velocity": 100}, {"time": 68400, "pitch": 56, "duration": 162, "velocity": 70}, {"time": 68400, "pitch": 61, "duration": 162, "velocity": 100}, {"time": 68400, "pitch": 64, "duration": 162, "velocity": 80}, {"time": 68400, "pitch": 68, "duration": 162, "velocity": 90}, {"time": 68562, "pitch": 56, "duration": 40, "velocity": 50}, {"time": 68562, "pitch": 61, "duration": 40, "velocity": 80}, {"time": 68562, "pitch": 64, "duration": 40, "velocity": 60}, {"time": 68562, "pitch": 68, "duration": 40, "velocity": 70}, {"time": 68643, "pitch": 54, "duration": 479, "velocity": 70}, {"time": 68643, "pitch": 57, "duration": 479, "velocity": 100}, {"time": 68643, "pitch": 62, "duration": 479, "velocity": 80}, {"time": 68643, "pitch": 66, "duration": 479, "velocity": 90}, {"time": 69122, "pitch": 52, "duration": 400, "velocity": 85}, {"time": 69122, "pitch": 56, "duration": 400, "velocity": 115}, {"time": 69122, "pitch": 59, "duration": 400, "velocity": 95}, {"time": 69122, "pitch": 64, "duration": 400, "velocity": 105}, {"time": 69522, "pitch": 52, "duration": 80, "velocity": 60}, {"time": 69522, "pitch": 56, "duration": 80, "velocity": 90}, {"time": 69522, "pitch": 59, "duration": 80, "velocity": 70}, {"time": 69522, "pitch": 64, "duration": 80, "velocity": 80}, {"time": 69602, "pitch": 52, "duration": 160, "velocity": 80}, {"time": 69602, "pitch": 57, "duration": 160, "velocity": 110}, {"time": 69602, "pitch": 61, "duration": 160, "velocity": 90}, {"time": 69602, "pitch": 64, "duration": 160, "velocity": 100}, {"time": 69762, "pitch": 52, "duration": 80, "velocity": 60}, {"time": 69762, "pitch": 57, "duration": 80, "velocity": 90}, {"time": 69762, "pitch": 61, "duration": 80, "velocity": 70}, {"time": 69762, "pitch": 64, "duration": 80, "velocity": 80}, {"time": 69842, "pitch": 52, "duration": 239, "velocity": 80}, {"time": 69842, "pitch": 57, "duration": 239, "velocity": 110}, {"time": 69842, "pitch": 61, "duration": 239, "velocity": 90}, {"time": 69842, "pitch": 64, "duration": 239, "velocity": 100}, {"time": 70081, "pitch": 52, "duration": 240, "velocity": 70}, {"time": 70081, "pitch": 57, "duration": 240, "velocity": 100}, {"time": 70081, "pitch": 61, "duration": 240, "velocity": 80}, {"time": 70081, "pitch": 64, "duration": 240, "velocity": 90}, {"time": 70321, "pitch": 52, "duration": 160, "velocity": 70}, {"time": 70321, "pitch": 57, "duration": 160, "velocity": 100}, {"time": 70321, "pitch": 61, "duration": 160, "velocity": 80}, {"time": 70321, "pitch": 64, "duration": 160, "velocity": 90}, {"time": 70481, "pitch": 52, "duration": 40, "velocity": 50}, {"time": 70481, "pitch": 57, "duration": 40, "velocity": 80}, {"time": 70481, "pitch": 61, "duration": 40, "velocity": 60}, {"time": 70481, "pitch": 64, "duration": 40, "velocity": 70}, {"time": 70561, "pitch": 54, "duration": 479, "velocity": 70}, {"time": 70561, "pitch": 59, "duration": 479, "velocity": 100}, {"time": 70561, "pitch": 62, "duration": 479, "velocity": 80}, {"time": 70561, "pitch": 66, "duration": 479, "velocity": 90}, {"time": 71040, "pitch": 54, "duration": 400, "velocity": 85}, {"time": 71040, "pitch": 59, "duration": 400, "velocity": 115}, {"time": 71040, "pitch": 62, "duration": 400, "velocity": 95}, {"time": 71040, "pitch": 66, "duration": 400, "velocity": 105}, {"time": 71440, "pitch": 54, "duration": 80, "velocity": 60}, {"time": 71440, "pitch": 59, "duration": 80, "velocity": 90}, {"time": 71440, "pitch": 62, "duration": 80, "velocity": 70}, {"time": 71440, "pitch": 66, "duration": 80, "velocity": 80}, {"time": 71520, "pitch": 54, "duration": 160, "velocity": 80}, {"time": 71520, "pitch": 59, "duration": 160, "velocity": 110}, {"time": 71520, "pitch": 62, "duration": 160, "velocity": 90}, {"time": 71520, "pitch": 66, "duration": 160, "velocity": 100}, {"time": 71680, "pitch": 54, "duration": 80, "velocity": 60}, {"time": 71680, "pitch": 59, "duration": 80, "velocity": 90}, {"time": 71680, "pitch": 62, "duration": 80, "velocity": 70}, {"time": 71680, "pitch": 66, "duration": 80, "velocity": 80}, {"time": 71760, "pitch": 54, "duration": 239, "velocity": 80}, {"time": 71760, "pitch": 59, "duration": 239, "velocity": 110}, {"time": 71760, "pitch": 62, "duration": 239, "velocity": 90}, {"time": 71760, "pitch": 66, "duration": 239, "velocity": 100}, {"time": 71999, "pitch": 54, "duration": 240, "velocity": 85}, {"time": 71999, "pitch": 59, "duration": 240, "velocity": 115}, {"time": 71999, "pitch": 62, "duration": 240, "velocity": 95}, {"time": 71999, "pitch": 66, "duration": 240, "velocity": 105}, {"time": 72239, "pitch": 54, "duration": 160, "velocity": 70}, {"time": 72239, "pitch": 59, "duration": 160, "velocity": 100}, {"time": 72239, "pitch": 62, "duration": 160, "velocity": 80}, {"time": 72239, "pitch": 66, "duration": 160, "velocity": 90}, {"time": 72399, "pitch": 54, "duration": 40, "velocity": 50}, {"time": 72399, "pitch": 59, "duration": 40, "velocity": 80}, {"time": 72399, "pitch": 62, "duration": 40, "velocity": 60}, {"time": 72399, "pitch": 66, "duration": 40, "velocity": 70}, {"time": 72479, "pitch": 54, "duration": 479, "velocity": 70}, {"time": 72479, "pitch": 57, "duration": 479, "velocity": 100}, {"time": 72479, "pitch": 61, "duration": 479, "velocity": 80}, {"time": 72479, "pitch": 66, "duration": 479, "velocity": 90}, {"time": 72958, "pitch": 54, "duration": 400, "velocity": 85}, {"time": 72958, "pitch": 57, "duration": 400, "velocity": 115}, {"time": 72958, "pitch": 61, "duration": 400, "velocity": 95}, {"time": 72958, "pitch": 66, "duration": 400, "velocity": 105}, {"time": 73358, "pitch": 54, "duration": 80, "velocity": 60}, {"time": 73358, "pitch": 57, "duration": 80, "velocity": 90}, {"time": 73358, "pitch": 61, "duration": 80, "velocity": 70}, {"time": 73358, "pitch": 66, "duration": 80, "velocity": 80}, {"time": 73438, "pitch": 54, "duration": 160, "velocity": 80}, {"time": 73438, "pitch": 57, "duration": 160, "velocity": 110}, {"time": 73438, "pitch": 61, "duration": 160, "velocity": 90}, {"time": 73438, "pitch": 66, "duration": 160, "velocity": 100}, {"time": 73598, "pitch": 54, "duration": 80, "velocity": 60}, {"time": 73598, "pitch": 57, "duration": 80, "velocity": 90}, {"time": 73598, "pitch": 61, "duration": 80, "velocity": 70}, {"time": 73598, "pitch": 66, "duration": 80, "velocity": 80}, {"time": 73678, "pitch": 54, "duration": 240, "velocity": 80}, {"time": 73678, "pitch": 57, "duration": 240, "velocity": 110}, {"time": 73678, "pitch": 61, "duration": 240, "velocity": 90}, {"time": 73678, "pitch": 66, "duration": 240, "velocity": 100}, {"time": 73918, "pitch": 54, "duration": 239, "velocity": 85}, {"time": 73918, "pitch": 57, "duration": 239, "velocity": 115}, {"time": 73918, "pitch": 61, "duration": 239, "velocity": 95}, {"time": 73918, "pitch": 66, "duration": 239, "velocity": 105}, {"time": 74157, "pitch": 54, "duration": 160, "velocity": 70}, {"time": 74157, "pitch": 57, "duration": 160, "velocity": 100}, {"time": 74157, "pitch": 61, "duration": 160, "velocity": 80}, {"time": 74157, "pitch": 66, "duration": 160, "velocity": 90}, {"time": 74317, "pitch": 54, "duration": 40, "velocity": 50}, {"time": 74317, "pitch": 57, "duration": 40, "velocity": 80}, {"time": 74317, "pitch": 61, "duration": 40, "velocity": 60}, {"time": 74317, "pitch": 66, "duration": 40, "velocity": 70}, {"time": 74397, "pitch": 50, "duration": 486, "velocity": 70}, {"time": 74397, "pitch": 57, "duration": 486, "velocity": 100}, {"time": 74397, "pitch": 62, "duration": 486, "velocity": 80}, {"time": 74397, "pitch": 66, "duration": 486, "velocity": 90}, {"time": 74883, "pitch": 50, "duration": 399, "velocity": 85}, {"time": 74883, "pitch": 57, "duration": 399, "velocity": 115}, {"time": 74883, "pitch": 62, "duration": 399, "velocity": 95}, {"time": 74883, "pitch": 66, "duration": 399, "velocity": 105}, {"time": 75282, "pitch": 50, "duration": 80, "velocity": 60}, {"time": 75282, "pitch": 57, "duration": 80, "velocity": 90}, {"time": 75282, "pitch": 62, "duration": 80, "velocity": 70}, {"time": 75282, "pitch": 66, "duration": 80, "velocity": 80}, {"time": 75362, "pitch": 50, "duration": 160, "velocity": 80}, {"time": 75362, "pitch": 57, "duration": 160, "velocity": 110}, {"time": 75362, "pitch": 62, "duration": 160, "velocity": 90}, {"time": 75362, "pitch": 66, "duration": 160, "velocity": 100}, {"time": 75522, "pitch": 50, "duration": 80, "velocity": 60}, {"time": 75522, "pitch": 57, "duration": 80, "velocity": 90}, {"time": 75522, "pitch": 62, "duration": 80, "velocity": 70}, {"time": 75522, "pitch": 66, "duration": 80, "velocity": 80}, {"time": 75602, "pitch": 50, "duration": 240, "velocity": 80}, {"time": 75602, "pitch": 57, "duration": 240, "velocity": 110}, {"time": 75602, "pitch": 62, "duration": 240, "velocity": 90}, {"time": 75602, "pitch": 66, "duration": 240, "velocity": 100}, {"time": 75842, "pitch": 51, "duration": 240, "velocity": 85}, {"time": 75842, "pitch": 57, "duration": 240, "velocity": 115}, {"time": 75842, "pitch": 61, "duration": 240, "velocity": 95}, {"time": 75842, "pitch": 66, "duration": 240, "velocity": 105}, {"time": 76082, "pitch": 51, "duration": 159, "velocity": 70}, {"time": 76082, "pitch": 57, "duration": 159, "velocity": 100}, {"time": 76082, "pitch": 61, "duration": 159, "velocity": 80}, {"time": 76082, "pitch": 66, "duration": 159, "velocity": 90}, {"time": 76241, "pitch": 51, "duration": 40, "velocity": 50}, {"time": 76241, "pitch": 57, "duration": 40, "velocity": 80}, {"time": 76241, "pitch": 61, "duration": 40, "velocity": 60}, {"time": 76241, "pitch": 66, "duration": 40, "velocity": 70}, {"time": 76321, "pitch": 52, "duration": 480, "velocity": 70}, {"time": 76321, "pitch": 57, "duration": 480, "velocity": 100}, {"time": 76321, "pitch": 59, "duration": 480, "velocity": 80}, {"time": 76321, "pitch": 64, "duration": 480, "velocity": 90}, {"time": 76801, "pitch": 52, "duration": 399, "velocity": 85}, {"time": 76801, "pitch": 57, "duration": 399, "velocity": 115}, {"time": 76801, "pitch": 59, "duration": 399, "velocity": 95}, {"time": 76801, "pitch": 64, "duration": 399, "velocity": 105}, {"time": 77200, "pitch": 52, "duration": 80, "velocity": 60}, {"time": 77200, "pitch": 57, "duration": 80, "velocity": 90}, {"time": 77200, "pitch": 59, "duration": 80, "velocity": 70}, {"time": 77200, "pitch": 64, "duration": 80, "velocity": 80}, {"time": 77280, "pitch": 52, "duration": 160, "velocity": 80}, {"time": 77280, "pitch": 56, "duration": 160, "velocity": 110}, {"time": 77280, "pitch": 59, "duration": 160, "velocity": 90}, {"time": 77280, "pitch": 64, "duration": 160, "velocity": 100}, {"time": 77440, "pitch": 52, "duration": 80, "velocity": 60}, {"time": 77440, "pitch": 56, "duration": 80, "velocity": 90}, {"time": 77440, "pitch": 59, "duration": 80, "velocity": 70}, {"time": 77440, "pitch": 64, "duration": 80, "velocity": 80}, {"time": 77520, "pitch": 52, "duration": 240, "velocity": 80}, {"time": 77520, "pitch": 56, "duration": 240, "velocity": 110}, {"time": 77520, "pitch": 59, "duration": 240, "velocity": 90}, {"time": 77520, "pitch": 64, "duration": 240, "velocity": 100}, {"time": 77760, "pitch": 52, "duration": 240, "velocity": 85}, {"time": 77760, "pitch": 56, "duration": 240, "velocity": 115}, {"time": 77760, "pitch": 59, "duration": 240, "velocity": 95}, {"time": 77760, "pitch": 64, "duration": 240, "velocity": 105}, {"time": 78000, "pitch": 52, "duration": 159, "velocity": 70}, {"time": 78000, "pitch": 56, "duration": 159, "velocity": 100}, {"time": 78000, "pitch": 59, "duration": 159, "velocity": 80}, {"time": 78000, "pitch": 64, "duration": 159, "velocity": 90}, {"time": 78159, "pitch": 52, "duration": 40, "velocity": 50}, {"time": 78159, "pitch": 56, "duration": 40, "velocity": 80}, {"time": 78159, "pitch": 59, "duration": 40, "velocity": 60}, {"time": 78159, "pitch": 64, "duration": 40, "velocity": 70}, {"time": 78239, "pitch": 52, "duration": 240, "velocity": 80}, {"time": 78239, "pitch": 57, "duration": 240, "velocity": 110}, {"time": 78239, "pitch": 61, "duration": 240, "velocity": 90}, {"time": 78239, "pitch": 64, "duration": 240, "velocity": 100}, {"time": 78479, "pitch": 52, "duration": 240, "velocity": 60}, {"time": 78479, "pitch": 57, "duration": 240, "velocity": 90}, {"time": 78479, "pitch": 61, "duration": 240, "velocity": 70}, {"time": 78479, "pitch": 64, "duration": 240, "velocity": 80}, {"time": 78719, "pitch": 52, "duration": 240, "velocity": 85}, {"time": 78719, "pitch": 57, "duration": 240, "velocity": 115}, {"time": 78719, "pitch": 61, "duration": 240, "velocity": 95}, {"time": 78719, "pitch": 64, "duration": 240, "velocity": 105}, {"time": 78959, "pitch": 52, "duration": 159, "velocity": 70}, {"time": 78959, "pitch": 57, "duration": 159, "velocity": 100}, {"time": 78959, "pitch": 61, "duration": 159, "velocity": 80}, {"time": 78959, "pitch": 64, "duration": 159, "velocity": 90}, {"time": 79118, "pitch": 52, "duration": 80, "velocity": 60}, {"time": 79118, "pitch": 57, "duration": 80, "velocity": 90}, {"time": 79118, "pitch": 61, "duration": 80, "velocity": 70}, {"time": 79118, "pitch": 64, "duration": 80, "velocity": 80}, {"time": 79198, "pitch": 52, "duration": 160, "velocity": 80}, {"time": 79198, "pitch": 56, "duration": 160, "velocity": 110}, {"time": 79198, "pitch": 59, "duration": 160, "velocity": 90}, {"time": 79198, "pitch": 64, "duration": 160, "velocity": 100}, {"time": 79358, "pitch": 52, "duration": 80, "velocity": 60}, {"time": 79358, "pitch": 56, "duration": 80, "velocity": 90}, {"time": 79358, "pitch": 59, "duration": 80, "velocity": 70}, {"time": 79358, "pitch": 64, "duration": 80, "velocity": 80}, {"time": 79438, "pitch": 52, "duration": 240, "velocity": 80}, {"time": 79438, "pitch": 56, "duration": 240, "velocity": 110}, {"time": 79438, "pitch": 59, "duration": 240, "velocity": 90}, {"time": 79438, "pitch": 64, "duration": 240, "velocity": 100}, {"time": 79678, "pitch": 52, "duration": 240, "velocity": 85}, {"time": 79678, "pitch": 56, "duration": 240, "velocity": 115}, {"time": 79678, "pitch": 59, "duration": 240, "velocity": 95}, {"time": 79678, "pitch": 64, "duration": 240, "velocity": 105}, {"time": 79918, "pitch": 52, "duration": 160, "velocity": 70}, {"time": 79918, "pitch": 56, "duration": 160, "velocity": 100}, {"time": 79918, "pitch": 59, "duration": 160, "velocity": 80}, {"time": 79918, "pitch": 64, "duration": 160, "velocity": 90}, {"time": 80078, "pitch": 52, "duration": 39, "velocity": 50}, {"time": 80078, "pitch": 56, "duration": 39, "velocity": 80}, {"time": 80078, "pitch": 59, "duration": 39, "velocity": 60}, {"time": 80078, "pitch": 64, "duration": 39, "velocity": 70}, {"time": 80157, "pitch": 50, "duration": 240, "velocity": 80}, {"time": 80157, "pitch": 57, "duration": 240, "velocity": 110}, {"time": 80157, "pitch": 62, "duration": 240, "velocity": 90}, {"time": 80157, "pitch": 66, "duration": 240, "velocity": 100}, {"time": 80397, "pitch": 50, "duration": 240, "velocity": 60}, {"time": 80397, "pitch": 57, "duration": 240, "velocity": 90}, {"time": 80397, "pitch": 62, "duration": 240, "velocity": 70}, {"time": 80397, "pitch": 66, "duration": 240, "velocity": 80}, {"time": 80637, "pitch": 50, "duration": 243, "velocity": 85}, {"time": 80637, "pitch": 57, "duration": 243, "velocity": 115}, {"time": 80637, "pitch": 62, "duration": 243, "velocity": 95}, {"time": 80637, "pitch": 66, "duration": 243, "velocity": 105}, {"time": 80880, "pitch": 50, "duration": 162, "velocity": 70}, {"time": 80880, "pitch": 57, "duration": 162, "velocity": 100}, {"time": 80880, "pitch": 62, "duration": 162, "velocity": 80}, {"time": 80880, "pitch": 66, "duration": 162, "velocity": 90}, {"time": 81042, "pitch": 50, "duration": 81, "velocity": 60}, {"time": 81042, "pitch": 57, "duration": 81, "velocity": 90}, {"time": 81042, "pitch": 62, "duration": 81, "velocity": 70}, {"time": 81042, "pitch": 66, "duration": 81, "velocity": 80}, {"time": 81123, "pitch": 52, "duration": 159, "velocity": 80}, {"time": 81123, "pitch": 57, "duration": 159, "velocity": 110}, {"time": 81123, "pitch": 61, "duration": 159, "velocity": 90}, {"time": 81123, "pitch": 64, "duration": 159, "velocity": 100}, {"time": 81282, "pitch": 52, "duration": 80, "velocity": 60}, {"time": 81282, "pitch": 57, "duration": 80, "velocity": 90}, {"time": 81282, "pitch": 61, "duration": 80, "velocity": 70}, {"time": 81282, "pitch": 64, "duration": 80, "velocity": 80}, {"time": 81362, "pitch": 52, "duration": 240, "velocity": 80}, {"time": 81362, "pitch": 57, "duration": 240, "velocity": 110}, {"time": 81362, "pitch": 61, "duration": 240, "velocity": 90}, {"time": 81362, "pitch": 64, "duration": 240, "velocity": 100}, {"time": 81602, "pitch": 52, "duration": 240, "velocity": 85}, {"time": 81602, "pitch": 56, "duration": 240, "velocity": 115}, {"time": 81602, "pitch": 59, "duration": 240, "velocity": 95}, {"time": 81602, "pitch": 64, "duration": 240, "velocity": 105}, {"time": 81842, "pitch": 52, "duration": 160, "velocity": 70}, {"time": 81842, "pitch": 56, "duration": 160, "velocity": 100}, {"time": 81842, "pitch": 59, "duration": 160, "velocity": 80}, {"time": 81842, "pitch": 64, "duration": 160, "velocity": 90}, {"time": 82002, "pitch": 52, "duration": 40, "velocity": 50}, {"time": 82002, "pitch": 56, "duration": 40, "velocity": 80}, {"time": 82002, "pitch": 59, "duration": 40, "velocity": 60}, {"time": 82002, "pitch": 64, "duration": 40, "velocity": 70}, {"time": 82082, "pitch": 54, "duration": 239, "velocity": 80}, {"time": 82082, "pitch": 57, "duration": 239, "velocity": 110}, {"time": 82082, "pitch": 61, "duration": 239, "velocity": 90}, {"time": 82082, "pitch": 66, "duration": 239, "velocity": 100}, {"time": 82321, "pitch": 54, "duration": 240, "velocity": 60}, {"time": 82321, "pitch": 57, "duration": 240, "velocity": 90}, {"time": 82321, "pitch": 61, "duration": 240, "velocity": 70}, {"time": 82321, "pitch": 66, "duration": 240, "velocity": 80}, {"time": 82561, "pitch": 54, "duration": 240, "velocity": 85}, {"time": 82561, "pitch": 57, "duration": 240, "velocity": 115}, {"time": 82561, "pitch": 61, "duration": 240, "velocity": 95}, {"time": 82561, "pitch": 66, "duration": 240, "velocity": 105}, {"time": 82801, "pitch": 54, "duration": 160, "velocity": 70}, {"time": 82801, "pitch": 57, "duration": 160, "velocity": 100}, {"time": 82801, "pitch": 61, "duration": 160, "velocity": 80}, {"time": 82801, "pitch": 66, "duration": 160, "velocity": 90}, {"time": 82961, "pitch": 54, "duration": 80, "velocity": 60}, {"time": 82961, "pitch": 57, "duration": 80, "velocity": 90}, {"time": 82961, "pitch": 61, "duration": 80, "velocity": 70}, {"time": 82961, "pitch": 66, "duration": 80, "velocity": 80}, {"time": 83041, "pitch": 51, "duration": 160, "velocity": 80}, {"time": 83041, "pitch": 57, "duration": 160, "velocity": 110}, {"time": 83041, "pitch": 59, "duration": 160, "velocity": 90}, {"time": 83041, "pitch": 66, "duration": 160, "velocity": 100}, {"time": 83201, "pitch": 51, "duration": 79, "velocity": 60}, {"time": 83201, "pitch": 57, "duration": 79, "velocity": 90}, {"time": 83201, "pitch": 59, "duration": 79, "velocity": 70}, {"time": 83201, "pitch": 66, "duration": 79, "velocity": 80}, {"time": 83280, "pitch": 51, "duration": 240, "velocity": 80}, {"time": 83280, "pitch": 57, "duration": 240, "velocity": 110}, {"time": 83280, "pitch": 59, "duration": 240, "velocity": 90}, {"time": 83280, "pitch": 66, "duration": 240, "velocity": 100}, {"time": 83520, "pitch": 51, "duration": 240, "velocity": 85}, {"time": 83520, "pitch": 57, "duration": 240, "velocity": 115}, {"time": 83520, "pitch": 59, "duration": 240, "velocity": 95}, {"time": 83520, "pitch": 66, "duration": 240, "velocity": 105}, {"time": 83760, "pitch": 51, "duration": 160, "velocity": 70}, {"time": 83760, "pitch": 57, "duration": 160, "velocity": 100}, {"time": 83760, "pitch": 59, "duration": 160, "velocity": 80}, {"time": 83760, "pitch": 66, "duration": 160, "velocity": 90}, {"time": 83920, "pitch": 51, "duration": 40, "velocity": 50}, {"time": 83920, "pitch": 57, "duration": 40, "velocity": 80}, {"time": 83920, "pitch": 59, "duration": 40, "velocity": 60}, {"time": 83920, "pitch": 66, "duration": 40, "velocity": 70}, {"time": 84000, "pitch": 50, "duration": 240, "velocity": 80}, {"time": 84000, "pitch": 57, "duration": 240, "velocity": 110}, {"time": 84000, "pitch": 62, "duration": 240, "velocity": 90}, {"time": 84000, "pitch": 66, "duration": 240, "velocity": 100}, {"time": 84240, "pitch": 50, "duration": 239, "velocity": 60}, {"time": 84240, "pitch": 57, "duration": 239, "velocity": 90}, {"time": 84240, "pitch": 62, "duration": 239, "velocity": 70}, {"time": 84240, "pitch": 66, "duration": 239, "velocity": 80}, {"time": 84479, "pitch": 50, "duration": 240, "velocity": 85}, {"time": 84479, "pitch": 57, "duration": 240, "velocity": 115}, {"time": 84479, "pitch": 62, "duration": 240, "velocity": 95}, {"time": 84479, "pitch": 66, "duration": 240, "velocity": 105}, {"time": 84719, "pitch": 50, "duration": 160, "velocity": 70}, {"time": 84719, "pitch": 57, "duration": 160, "velocity": 100}, {"time": 84719, "pitch": 62, "duration": 160, "velocity": 80}, {"time": 84719, "pitch": 66, "duration": 160, "velocity": 90}, {"time": 84879, "pitch": 50, "duration": 80, "velocity": 60}, {"time": 84879, "pitch": 57, "duration": 80, "velocity": 90}, {"time": 84879, "pitch": 62, "duration": 80, "velocity": 70}, {"time": 84879, "pitch": 66, "duration": 80, "velocity": 80}, {"time": 84959, "pitch": 52, "duration": 160, "velocity": 80}, {"time": 84959, "pitch": 57, "duration": 160, "velocity": 110}, {"time": 84959, "pitch": 59, "duration": 160, "velocity": 90}, {"time": 84959, "pitch": 64, "duration": 160, "velocity": 100}, {"time": 85119, "pitch": 52, "duration": 80, "velocity": 60}, {"time": 85119, "pitch": 57, "duration": 80, "velocity": 90}, {"time": 85119, "pitch": 59, "duration": 80, "velocity": 70}, {"time": 85119, "pitch": 64, "duration": 80, "velocity": 80}, {"time": 85199, "pitch": 52, "duration": 239, "velocity": 80}, {"time": 85199, "pitch": 57, "duration": 239, "velocity": 110}, {"time": 85199, "pitch": 59, "duration": 239, "velocity": 90}, {"time": 85199, "pitch": 64, "duration": 239, "velocity": 100}, {"time": 85438, "pitch": 52, "duration": 240, "velocity": 85}, {"time": 85438, "pitch": 56, "duration": 240, "velocity": 115}, {"time": 85438, "pitch": 59, "duration": 240, "velocity": 95}, {"time": 85438, "pitch": 64, "duration": 240, "velocity": 105}, {"time": 85678, "pitch": 52, "duration": 160, "velocity": 70}, {"time": 85678, "pitch": 56, "duration": 160, "velocity": 100}, {"time": 85678, "pitch": 59, "duration": 160, "velocity": 80}, {"time": 85678, "pitch": 64, "duration": 160, "velocity": 90}, {"time": 85838, "pitch": 52, "duration": 40, "velocity": 50}, {"time": 85838, "pitch": 56, "duration": 40, "velocity": 80}, {"time": 85838, "pitch": 59, "duration": 40, "velocity": 60}, {"time": 85838, "pitch": 64, "duration": 40, "velocity": 70}, {"time": 85918, "pitch": 52, "duration": 240, "velocity": 80}, {"time": 85918, "pitch": 57, "duration": 240, "velocity": 110}, {"time": 85918, "pitch": 61, "duration": 240, "velocity": 90}, {"time": 85918, "pitch": 64, "duration": 240, "velocity": 100}, {"time": 86158, "pitch": 52, "duration": 239, "velocity": 60}, {"time": 86158, "pitch": 57, "duration": 239, "velocity": 90}, {"time": 86158, "pitch": 61, "duration": 239, "velocity": 70}, {"time": 86158, "pitch": 64, "duration": 239, "velocity": 80}, {"time": 86397, "pitch": 52, "duration": 243, "velocity": 85}, {"time": 86397, "pitch": 57, "duration": 243, "velocity": 115}, {"time": 86397, "pitch": 61, "duration": 243, "velocity": 95}, {"time": 86397, "pitch": 64, "duration": 243, "velocity": 105}, {"time": 86640, "pitch": 52, "duration": 162, "velocity": 70}, {"time": 86640, "pitch": 57, "duration": 162, "velocity": 100}, {"time": 86640, "pitch": 61, "duration": 162, "velocity": 80}, {"time": 86640, "pitch": 64, "duration": 162, "velocity": 90}, {"time": 86802, "pitch": 52, "duration": 81, "velocity": 60}, {"time": 86802, "pitch": 57, "duration": 81, "velocity": 90}, {"time": 86802, "pitch": 61, "duration": 81, "velocity": 70}, {"time": 86802, "pitch": 64, "duration": 81, "velocity": 80}, {"time": 86883, "pitch": 52, "duration": 160, "velocity": 80}, {"time": 86883, "pitch": 56, "duration": 160, "velocity": 110}, {"time": 86883, "pitch": 59, "duration": 160, "velocity": 90}, {"time": 86883, "pitch": 64, "duration": 160, "velocity": 100}, {"time": 87043, "pitch": 52, "duration": 80, "velocity": 60}, {"time": 87043, "pitch": 56, "duration": 80, "velocity": 90}, {"time": 87043, "pitch": 59, "duration": 80, "velocity": 70}, {"time": 87043, "pitch": 64, "duration": 80, "velocity": 80}, {"time": 87123, "pitch": 52, "duration": 240, "velocity": 80}, {"time": 87123, "pitch": 56, "duration": 240, "velocity": 110}, {"time": 87123, "pitch": 59, "duration": 240, "velocity": 90}, {"time": 87123, "pitch": 64, "duration": 240, "velocity": 100}, {"time": 87363, "pitch": 52, "duration": 239, "velocity": 85}, {"time": 87363, "pitch": 56, "duration": 239, "velocity": 115}, {"time": 87363, "pitch": 59, "duration": 239, "velocity": 95}, {"time": 87363, "pitch": 64, "duration": 239, "velocity": 105}, {"time": 87602, "pitch": 52, "duration": 160, "velocity": 70}, {"time": 87602, "pitch": 56, "duration": 160, "velocity": 100}, {"time": 87602, "pitch": 59, "duration": 160, "velocity": 80}, {"time": 87602, "pitch": 64, "duration": 160, "velocity": 90}, {"time": 87762, "pitch": 52, "duration": 40, "velocity": 50}, {"time": 87762, "pitch": 56, "duration": 40, "velocity": 80}, {"time": 87762, "pitch": 59, "duration": 40, "velocity": 60}, {"time": 87762, "pitch": 64, "duration": 40, "velocity": 70}, {"time": 87842, "pitch": 50, "duration": 240, "velocity": 80}, {"time": 87842, "pitch": 57, "duration": 240, "velocity": 110}, {"time": 87842, "pitch": 62, "duration": 240, "velocity": 90}, {"time": 87842, "pitch": 66, "duration": 240, "velocity": 100}, {"time": 88082, "pitch": 50, "duration": 240, "velocity": 60}, {"time": 88082, "pitch": 57, "duration": 240, "velocity": 90}, {"time": 88082, "pitch": 62, "duration": 240, "velocity": 70}, {"time": 88082, "pitch": 66, "duration": 240, "velocity": 80}, {"time": 88322, "pitch": 50, "duration": 239, "velocity": 85}, {"time": 88322, "pitch": 57, "duration": 239, "velocity": 115}, {"time": 88322, "pitch": 62, "duration": 239, "velocity": 95}, {"time": 88322, "pitch": 66, "duration": 239, "velocity": 105}, {"time": 88561, "pitch": 50, "duration": 160, "velocity": 70}, {"time": 88561, "pitch": 57, "duration": 160, "velocity": 100}, {"time": 88561, "pitch": 62, "duration": 160, "velocity": 80}, {"time": 88561, "pitch": 66, "duration": 160, "velocity": 90}, {"time": 88721, "pitch": 50, "duration": 80, "velocity": 60}, {"time": 88721, "pitch": 57, "duration": 80, "velocity": 90}, {"time": 88721, "pitch": 62, "duration": 80, "velocity": 70}, {"time": 88721, "pitch": 66, "duration": 80, "velocity": 80}, {"time": 88801, "pitch": 52, "duration": 160, "velocity": 80}, {"time": 88801, "pitch": 57, "duration": 160, "velocity": 110}, {"time": 88801, "pitch": 61, "duration": 160, "velocity": 90}, {"time": 88801, "pitch": 64, "duration": 160, "velocity": 100}, {"time": 88961, "pitch": 52, "duration": 80, "velocity": 60}, {"time": 88961, "pitch": 57, "duration": 80, "velocity": 90}, {"time": 88961, "pitch": 61, "duration": 80, "velocity": 70}, {"time": 88961, "pitch": 64, "duration": 80, "velocity": 80}, {"time": 89041, "pitch": 52, "duration": 240, "velocity": 80}, {"time": 89041, "pitch": 57, "duration": 240, "velocity": 110}, {"time": 89041, "pitch": 61, "duration": 240, "velocity": 90}, {"time": 89041, "pitch": 64, "duration": 240, "velocity": 100}, {"time": 89281, "pitch": 52, "duration": 239, "velocity": 85}, {"time": 89281, "pitch": 56, "duration": 239, "velocity": 115}, {"time": 89281, "pitch": 59, "duration": 239, "velocity": 95}, {"time": 89281, "pitch": 64, "duration": 239, "velocity": 105}, {"time": 89520, "pitch": 52, "duration": 160, "velocity": 70}, {"time": 89520, "pitch": 56, "duration": 160, "velocity": 100}, {"time": 89520, "pitch": 59, "duration": 160, "velocity": 80}, {"time": 89520, "pitch": 64, "duration": 160, "velocity": 90}, {"time": 89680, "pitch": 52, "duration": 40, "velocity": 50}, {"time": 89680, "pitch": 56, "duration": 40, "velocity": 80}, {"time": 89680, "pitch": 59, "duration": 40, "velocity": 60}, {"time": 89680, "pitch": 64, "duration": 40, "velocity": 70}, {"time": 89760, "pitch": 54, "duration": 240, "velocity": 80}, {"time": 89760, "pitch": 57, "duration": 240, "velocity": 110}, {"time": 89760, "pitch": 61, "duration": 240, "velocity": 90}, {"time": 89760, "pitch": 66, "duration": 240, "velocity": 100}, {"time": 90000, "pitch": 54, "duration": 240, "velocity": 60}, {"time": 90000, "pitch": 57, "duration": 240, "velocity": 90}, {"time": 90000, "pitch": 61, "duration": 240, "velocity": 70}, {"time": 90000, "pitch": 66, "duration": 240, "velocity": 80}, {"time": 90240, "pitch": 54, "duration": 239, "velocity": 85}, {"time": 90240, "pitch": 57, "duration": 239, "velocity": 115}, {"time": 90240, "pitch": 61, "duration": 239, "velocity": 95}, {"time": 90240, "pitch": 66, "duration": 239, "velocity": 105}, {"time": 90479, "pitch": 54, "duration": 160, "velocity": 70}, {"time": 90479, "pitch": 57, "duration": 160, "velocity": 100}, {"time": 90479, "pitch": 61, "duration": 160, "velocity": 80}, {"time": 90479, "pitch": 66, "duration": 160, "velocity": 90}, {"time": 90639, "pitch": 54, "duration": 80, "velocity": 60}, {"time": 90639, "pitch": 57, "duration": 80, "velocity": 90}, {"time": 90639, "pitch": 61, "duration": 80, "velocity": 70}, {"time": 90639, "pitch": 66, "duration": 80, "velocity": 80}, {"time": 90719, "pitch": 51, "duration": 160, "velocity": 80}, {"time": 90719, "pitch": 57, "duration": 160, "velocity": 110}, {"time": 90719, "pitch": 59, "duration": 160, "velocity": 90}, {"time": 90719, "pitch": 66, "duration": 160, "velocity": 100}, {"time": 90879, "pitch": 51, "duration": 80, "velocity": 60}, {"time": 90879, "pitch": 57, "duration": 80, "velocity": 90}, {"time": 90879, "pitch": 59, "duration": 80, "velocity": 70}, {"time": 90879, "pitch": 66, "duration": 80, "velocity": 80}, {"time": 90959, "pitch": 51, "duration": 240, "velocity": 80}, {"time": 90959, "pitch": 57, "duration": 240, "velocity": 110}, {"time": 90959, "pitch": 59, "duration": 240, "velocity": 90}, {"time": 90959, "pitch": 66, "duration": 240, "velocity": 100}, {"time": 91199, "pitch": 51, "duration": 239, "velocity": 85}, {"time": 91199, "pitch": 57, "duration": 239, "velocity": 115}, {"time": 91199, "pitch": 59, "duration": 239, "velocity": 95}, {"time": 91199, "pitch": 66, "duration": 239, "velocity": 105}, {"time": 91438, "pitch": 51, "duration": 160, "velocity": 70}, {"time": 91438, "pitch": 57, "duration": 160, "velocity": 100}, {"time": 91438, "pitch": 59, "duration": 160, "velocity": 80}, {"time": 91438, "pitch": 66, "duration": 160, "velocity": 90}, {"time": 91598, "pitch": 51, "duration": 40, "velocity": 50}, {"time": 91598, "pitch": 57, "duration": 40, "velocity": 80}, {"time": 91598, "pitch": 59, "duration": 40, "velocity": 60}, {"time": 91598, "pitch": 66, "duration": 40, "velocity": 70}, {"time": 91678, "pitch": 50, "duration": 240, "velocity": 80}, {"time": 91678, "pitch": 57, "duration": 240, "velocity": 110}, {"time": 91678, "pitch": 62, "duration": 240, "velocity": 90}, {"time": 91678, "pitch": 66, "duration": 240, "velocity": 100}, {"time": 91918, "pitch": 50, "duration": 240, "velocity": 60}, {"time": 91918, "pitch": 57, "duration": 240, "velocity": 90}, {"time": 91918, "pitch": 62, "duration": 240, "velocity": 70}, {"time": 91918, "pitch": 66, "duration": 240, "velocity": 80}, {"time": 92158, "pitch": 50, "duration": 240, "velocity": 85}, {"time": 92158, "pitch": 57, "duration": 240, "velocity": 115}, {"time": 92158, "pitch": 62, "duration": 240, "velocity": 95}, {"time": 92158, "pitch": 66, "duration": 240, "velocity": 105}, {"time": 92398, "pitch": 50, "duration": 159, "velocity": 70}, {"time": 92398, "pitch": 57, "duration": 159, "velocity": 100}, {"time": 92398, "pitch": 62, "duration": 159, "velocity": 80}, {"time": 92398, "pitch": 66, "duration": 159, "velocity": 90}, {"time": 92557, "pitch": 50, "duration": 80, "velocity": 60}, {"time": 92557, "pitch": 57, "duration": 80, "velocity": 90}, {"time": 92557, "pitch": 62, "duration": 80, "velocity": 70}, {"time": 92557, "pitch": 66, "duration": 80, "velocity": 80}, {"time": 92637, "pitch": 52, "duration": 162, "velocity": 80}, {"time": 92637, "pitch": 57, "duration": 162, "velocity": 110}, {"time": 92637, "pitch": 59, "duration": 162, "velocity": 90}, {"time": 92637, "pitch": 64, "duration": 162, "velocity": 100}, {"time": 92799, "pitch": 52, "duration": 81, "velocity": 60}, {"time": 92799, "pitch": 57, "duration": 81, "velocity": 90}, {"time": 92799, "pitch": 59, "duration": 81, "velocity": 70}, {"time": 92799, "pitch": 64, "duration": 81, "velocity": 80}, {"time": 92880, "pitch": 52, "duration": 243, "velocity": 80}, {"time": 92880, "pitch": 57, "duration": 243, "velocity": 110}, {"time": 92880, "pitch": 59, "duration": 243, "velocity": 90}, {"time": 92880, "pitch": 64, "duration": 243, "velocity": 100}, {"time": 93123, "pitch": 52, "duration": 240, "velocity": 85}, {"time": 93123, "pitch": 56, "duration": 240, "velocity": 115}, {"time": 93123, "pitch": 59, "duration": 240, "velocity": 95}, {"time": 93123, "pitch": 64, "duration": 240, "velocity": 105}, {"time": 93363, "pitch": 52, "duration": 160, "velocity": 70}, {"time": 93363, "pitch": 56, "duration": 160, "velocity": 100}, {"time": 93363, "pitch": 59, "duration": 160, "velocity": 80}, {"time": 93363, "pitch": 64, "duration": 160, "velocity": 90}, {"time": 93523, "pitch": 52, "duration": 40, "velocity": 50}, {"time": 93523, "pitch": 56, "duration": 40, "velocity": 80}, {"time": 93523, "pitch": 59, "duration": 40, "velocity": 60}, {"time": 93523, "pitch": 64, "duration": 40, "velocity": 70}, {"time": 93602, "pitch": 54, "duration": 480, "velocity": 70}, {"time": 93602, "pitch": 57, "duration": 480, "velocity": 100}, {"time": 93602, "pitch": 61, "duration": 480, "velocity": 80}, {"time": 93602, "pitch": 66, "duration": 480, "velocity": 90}, {"time": 94082, "pitch": 54, "duration": 400, "velocity": 85}, {"time": 94082, "pitch": 57, "duration": 400, "velocity": 115}, {"time": 94082, "pitch": 61, "duration": 400, "velocity": 95}, {"time": 94082, "pitch": 66, "duration": 400, "velocity": 105}, {"time": 94482, "pitch": 54, "duration": 80, "velocity": 60}, {"time": 94482, "pitch": 57, "duration": 80, "velocity": 90}, {"time": 94482, "pitch": 61, "duration": 80, "velocity": 70}, {"time": 94482, "pitch": 66, "duration": 80, "velocity": 80}, {"time": 94562, "pitch": 54, "duration": 159, "velocity": 70}, {"time": 94562, "pitch": 57, "duration": 159, "velocity": 100}, {"time": 94562, "pitch": 61, "duration": 159, "velocity": 80}, {"time": 94562, "pitch": 66, "duration": 159, "velocity": 90}, {"time": 94721, "pitch": 54, "duration": 80, "velocity": 60}, {"time": 94721, "pitch": 57, "duration": 80, "velocity": 90}, {"time": 94721, "pitch": 61, "duration": 80, "velocity": 70}, {"time": 94721, "pitch": 66, "duration": 80, "velocity": 80}, {"time": 94801, "pitch": 54, "duration": 240, "velocity": 90}, {"time": 94801, "pitch": 57, "duration": 240, "velocity": 120}, {"time": 94801, "pitch": 61, "duration": 240, "velocity": 100}, {"time": 94801, "pitch": 66, "duration": 240, "velocity": 110}, {"time": 95191, "pitch": 52, "duration": 320, "velocity": 85}, {"time": 95191, "pitch": 56, "duration": 320, "velocity": 115}, {"time": 95191, "pitch": 59, "duration": 320, "velocity": 95}, {"time": 95191, "pitch": 64, "duration": 320, "velocity": 105}, {"time": 95521, "pitch": 50, "duration": 479, "velocity": 70}, {"time": 95521, "pitch": 57, "duration": 479, "velocity": 100}, {"time": 95521, "pitch": 62, "duration": 479, "velocity": 80}, {"time": 95521, "pitch": 66, "duration": 479, "velocity": 90}, {"time": 96000, "pitch": 50, "duration": 400, "velocity": 85}, {"time": 96000, "pitch": 57, "duration": 400, "velocity": 115}, {"time": 96000, "pitch": 62, "duration": 400, "velocity": 95}, {"time": 96000, "pitch": 66, "duration": 400, "velocity": 105}, {"time": 96400, "pitch": 50, "duration": 80, "velocity": 60}, {"time": 96400, "pitch": 57, "duration": 80, "velocity": 90}, {"time": 96400, "pitch": 62, "duration": 80, "velocity": 70}, {"time": 96400, "pitch": 66, "duration": 80, "velocity": 80}, {"time": 96480, "pitch": 50, "duration": 159, "velocity": 70}, {"time": 96480, "pitch": 57, "duration": 159, "velocity": 100}, {"time": 96480, "pitch": 62, "duration": 159, "velocity": 80}, {"time": 96480, "pitch": 66, "duration": 159, "velocity": 90}, {"time": 96639, "pitch": 50, "duration": 80, "velocity": 60}, {"time": 96639, "pitch": 57, "duration": 80, "velocity": 90}, {"time": 96639, "pitch": 62, "duration": 80, "velocity": 70}, {"time": 96639, "pitch": 66, "duration": 80, "velocity": 80}, {"time": 96719, "pitch": 50, "duration": 240, "velocity": 90}, {"time": 96719, "pitch": 57, "duration": 240, "velocity": 120}, {"time": 96719, "pitch": 62, "duration": 240, "velocity": 100}, {"time": 96719, "pitch": 66, "duration": 240, "velocity": 110}, {"time": 97109, "pitch": 52, "duration": 320, "velocity": 85}, {"time": 97109, "pitch": 56, "duration": 320, "velocity": 115}, {"time": 97109, "pitch": 59, "duration": 320, "velocity": 95}, {"time": 97109, "pitch": 64, "duration": 320, "velocity": 105}, {"time": 97439, "pitch": 54, "duration": 479, "velocity": 70}, {"time": 97439, "pitch": 57, "duration": 479, "velocity": 100}, {"time": 97439, "pitch": 61, "duration": 479, "velocity": 80}, {"time": 97439, "pitch": 66, "duration": 479, "velocity": 90}, {"time": 97918, "pitch": 54, "duration": 400, "velocity": 85}, {"time": 97918, "pitch": 57, "duration": 400, "velocity": 115}, {"time": 97918, "pitch": 61, "duration": 400, "velocity": 95}, {"time": 97918, "pitch": 66, "duration": 400, "velocity": 105}, {"time": 98318, "pitch": 54, "duration": 80, "velocity": 60}, {"time": 98318, "pitch": 57, "duration": 80, "velocity": 90}, {"time": 98318, "pitch": 61, "duration": 80, "velocity": 70}, {"time": 98318, "pitch": 66, "duration": 80, "velocity": 80}, {"time": 98398, "pitch": 54, "duration": 160, "velocity": 70}, {"time": 98398, "pitch": 57, "duration": 160, "velocity": 100}, {"time": 98398, "pitch": 61, "duration": 160, "velocity": 80}, {"time": 98398, "pitch": 66, "duration": 160, "velocity": 90}, {"time": 98558, "pitch": 54, "duration": 79, "velocity": 60}, {"time": 98558, "pitch": 57, "duration": 79, "velocity": 90}, {"time": 98558, "pitch": 61, "duration": 79, "velocity": 70}, {"time": 98558, "pitch": 66, "duration": 79, "velocity": 80}, {"time": 98637, "pitch": 54, "duration": 240, "velocity": 90}, {"time": 98637, "pitch": 57, "duration": 240, "velocity": 120}, {"time": 98637, "pitch": 61, "duration": 240, "velocity": 100}, {"time": 98637, "pitch": 66, "duration": 240, "velocity": 110}, {"time": 99029, "pitch": 52, "duration": 324, "velocity": 85}, {"time": 99029, "pitch": 56, "duration": 324, "velocity": 115}, {"time": 99029, "pitch": 59, "duration": 324, "velocity": 95}, {"time": 99029, "pitch": 64, "duration": 324, "velocity": 105}, {"time": 99363, "pitch": 50, "duration": 479, "velocity": 70}, {"time": 99363, "pitch": 57, "duration": 479, "velocity": 100}, {"time": 99363, "pitch": 62, "duration": 479, "velocity": 80}, {"time": 99363, "pitch": 66, "duration": 479, "velocity": 90}, {"time": 99842, "pitch": 50, "duration": 400, "velocity": 85}, {"time": 99842, "pitch": 57, "duration": 400, "velocity": 115}, {"time": 99842, "pitch": 62, "duration": 400, "velocity": 95}, {"time": 99842, "pitch": 66, "duration": 400, "velocity": 105}, {"time": 100242, "pitch": 50, "duration": 80, "velocity": 60}, {"time": 100242, "pitch": 57, "duration": 80, "velocity": 90}, {"time": 100242, "pitch": 62, "duration": 80, "velocity": 70}, {"time": 100242, "pitch": 66, "duration": 80, "velocity": 80}, {"time": 100322, "pitch": 50, "duration": 160, "velocity": 70}, {"time": 100322, "pitch": 57, "duration": 160, "velocity": 100}, {"time": 100322, "pitch": 62, "duration": 160, "velocity": 80}, {"time": 100322, "pitch": 66, "duration": 160, "velocity": 90}, {"time": 100482, "pitch": 50, "duration": 80, "velocity": 60}, {"time": 100482, "pitch": 57, "duration": 80, "velocity": 90}, {"time": 100482, "pitch": 62, "duration": 80, "velocity": 70}, {"time": 100482, "pitch": 66, "duration": 80, "velocity": 80}, {"time": 100562, "pitch": 50, "duration": 239, "velocity": 90}, {"time": 100562, "pitch": 57, "duration": 239, "velocity": 120}, {"time": 100562, "pitch": 62, "duration": 239, "velocity": 100}, {"time": 100562, "pitch": 66, "duration": 239, "velocity": 110}, {"time": 100951, "pitch": 52, "duration": 320, "velocity": 85}, {"time": 100951, "pitch": 56, "duration": 320, "velocity": 115}, {"time": 100951, "pitch": 59, "duration": 320, "velocity": 95}, {"time": 100951, "pitch": 64, "duration": 320, "velocity": 105}, {"time": 101281, "pitch": 54, "duration": 479, "velocity": 70}, {"time": 101281, "pitch": 57, "duration": 479, "velocity": 100}, {"time": 101281, "pitch": 61, "duration": 479, "velocity": 80}, {"time": 101281, "pitch": 66, "duration": 479, "velocity": 90}, {"time": 101760, "pitch": 54, "duration": 400, "velocity": 85}, {"time": 101760, "pitch": 57, "duration": 400, "velocity": 115}, {"time": 101760, "pitch": 61, "duration": 400, "velocity": 95}, {"time": 101760, "pitch": 66, "duration": 400, "velocity": 105}, {"time": 102160, "pitch": 54, "duration": 80, "velocity": 60}, {"time": 102160, "pitch": 57, "duration": 80, "velocity": 90}, {"time": 102160, "pitch": 61, "duration": 80, "velocity": 70}, {"time": 102160, "pitch": 66, "duration": 80, "velocity": 80}, {"time": 102240, "pitch": 54, "duration": 160, "velocity": 70}, {"time": 102240, "pitch": 57, "duration": 160, "velocity": 100}, {"time": 102240, "pitch": 61, "duration": 160, "velocity": 80}, {"time": 102240, "pitch": 66, "duration": 160, "velocity": 90}, {"time": 102400, "pitch": 54, "duration": 80, "velocity": 60}, {"time": 102400, "pitch": 57, "duration": 80, "velocity": 90}, {"time": 102400, "pitch": 61, "duration": 80, "velocity": 70}, {"time": 102400, "pitch": 66, "duration": 80, "velocity": 80}, {"time": 102480, "pitch": 54, "duration": 239, "velocity": 90}, {"time": 102480, "pitch": 57, "duration": 239, "velocity": 120}, {"time": 102480, "pitch": 61, "duration": 239, "velocity": 100}, {"time": 102480, "pitch": 66, "duration": 239, "velocity": 110}, {"time": 102719, "pitch": 52, "duration": 480, "velocity": 85}, {"time": 102719, "pitch": 56, "duration": 480, "velocity": 115}, {"time": 102719, "pitch": 59, "duration": 480, "velocity": 95}, {"time": 102719, "pitch": 64, "duration": 480, "velocity": 105}, {"time": 103199, "pitch": 50, "duration": 480, "velocity": 70}, {"time": 103199, "pitch": 57, "duration": 480, "velocity": 100}, {"time": 103199, "pitch": 62, "duration": 480, "velocity": 80}, {"time": 103199, "pitch": 66, "duration": 480, "velocity": 90}, {"time": 103679, "pitch": 50, "duration": 399, "velocity": 85}, {"time": 103679, "pitch": 57, "duration": 399, "velocity": 115}, {"time": 103679, "pitch": 62, "duration": 399, "velocity": 95}, {"time": 103679, "pitch": 66, "duration": 399, "velocity": 105}, {"time": 104078, "pitch": 50, "duration": 80, "velocity": 60}, {"time": 104078, "pitch": 57, "duration": 80, "velocity": 90}, {"time": 104078, "pitch": 62, "duration": 80, "velocity": 70}, {"time": 104078, "pitch": 66, "duration": 80, "velocity": 80}, {"time": 104158, "pitch": 50, "duration": 160, "velocity": 70}, {"time": 104158, "pitch": 57, "duration": 160, "velocity": 100}, {"time": 104158, "pitch": 62, "duration": 160, "velocity": 80}, {"time": 104158, "pitch": 66, "duration": 160, "velocity": 90}, {"time": 104318, "pitch": 50, "duration": 80, "velocity": 60}, {"time": 104318, "pitch": 57, "duration": 80, "velocity": 90}, {"time": 104318, "pitch": 62, "duration": 80, "velocity": 70}, {"time": 104318, "pitch": 66, "duration": 80, "velocity": 80}, {"time": 104398, "pitch": 50, "duration": 240, "velocity": 90}, {"time": 104398, "pitch": 57, "duration": 240, "velocity": 120}, {"time": 104398, "pitch": 62, "duration": 240, "velocity": 100}, {"time": 104398, "pitch": 66, "duration": 240, "velocity": 110}, {"time": 104638, "pitch": 52, "duration": 239, "velocity": 85}, {"time": 104638, "pitch": 56, "duration": 239, "velocity": 115}, {"time": 104638, "pitch": 59, "duration": 239, "velocity": 95}, {"time": 104638, "pitch": 64, "duration": 239, "velocity": 105}, {"time": 104877, "pitch": 52, "duration": 160, "velocity": 70}, {"time": 104877, "pitch": 56, "duration": 160, "velocity": 100}, {"time": 104877, "pitch": 59, "duration": 160, "velocity": 80}, {"time": 104877, "pitch": 64, "duration": 160, "velocity": 90}, {"time": 105037, "pitch": 52, "duration": 80, "velocity": 60}, {"time": 105037, "pitch": 56, "duration": 80, "velocity": 90}, {"time": 105037, "pitch": 59, "duration": 80, "velocity": 70}, {"time": 105037, "pitch": 64, "duration": 80, "velocity": 80}, {"time": 105117, "pitch": 50, "duration": 486, "velocity": 70}, {"time": 105117, "pitch": 57, "duration": 486, "velocity": 100}, {"time": 105117, "pitch": 62, "duration": 486, "velocity": 80}, {"time": 105117, "pitch": 66, "duration": 486, "velocity": 90}, {"time": 105603, "pitch": 50, "duration": 399, "velocity": 85}, {"time": 105603, "pitch": 57, "duration": 399, "velocity": 115}, {"time": 105603, "pitch": 62, "duration": 399, "velocity": 95}, {"time": 105603, "pitch": 66, "duration": 399, "velocity": 105}, {"time": 106002, "pitch": 50, "duration": 80, "velocity": 60}, {"time": 106002, "pitch": 57, "duration": 80, "velocity": 90}, {"time": 106002, "pitch": 62, "duration": 80, "velocity": 70}, {"time": 106002, "pitch": 66, "duration": 80, "velocity": 80}, {"time": 106082, "pitch": 51, "duration": 160, "velocity": 70}, {"time": 106082, "pitch": 57, "duration": 160, "velocity": 100}, {"time": 106082, "pitch": 59, "duration": 160, "velocity": 80}, {"time": 106082, "pitch": 66, "duration": 160, "velocity": 90}, {"time": 106242, "pitch": 51, "duration": 80, "velocity": 60}, {"time": 106242, "pitch": 57, "duration": 80, "velocity": 90}, {"time": 106242, "pitch": 59, "duration": 80, "velocity": 70}, {"time": 106242, "pitch": 66, "duration": 80, "velocity": 80}, {"time": 106322, "pitch": 51, "duration": 240, "velocity": 90}, {"time": 106322, "pitch": 57, "duration": 240, "velocity": 120}, {"time": 106322, "pitch": 59, "duration": 240, "velocity": 100}, {"time": 106322, "pitch": 66, "duration": 240, "velocity": 110}, {"time": 106562, "pitch": 51, "duration": 240, "velocity": 85}, {"time": 106562, "pitch": 57, "duration": 240, "velocity": 115}, {"time": 106562, "pitch": 59, "duration": 240, "velocity": 95}, {"time": 106562, "pitch": 66, "duration": 240, "velocity": 105}, {"time": 106802, "pitch": 51, "duration": 159, "velocity": 70}, {"time": 106802, "pitch": 57, "duration": 159, "velocity": 100}, {"time": 106802, "pitch": 59, "duration": 159, "velocity": 80}, {"time": 106802, "pitch": 66, "duration": 159, "velocity": 90}, {"time": 106961, "pitch": 51, "duration": 80, "velocity": 60}, {"time": 106961, "pitch": 57, "duration": 80, "velocity": 90}, {"time": 106961, "pitch": 59, "duration": 80, "velocity": 70}, {"time": 106961, "pitch": 66, "duration": 80, "velocity": 80}, {"time": 107041, "pitch": 52, "duration": 480, "velocity": 70}, {"time": 107041, "pitch": 57, "duration": 480, "velocity": 100}, {"time": 107041, "pitch": 59, "duration": 480, "velocity": 80}, {"time": 107041, "pitch": 64, "duration": 480, "velocity": 90}, {"time": 107521, "pitch": 52, "duration": 399, "velocity": 85}, {"time": 107521, "pitch": 57, "duration": 399, "velocity": 115}, {"time": 107521, "pitch": 59, "duration": 399, "velocity": 95}, {"time": 107521, "pitch": 64, "duration": 399, "velocity": 105}, {"time": 107920, "pitch": 52, "duration": 80, "velocity": 60}, {"time": 107920, "pitch": 57, "duration": 80, "velocity": 90}, {"time": 107920, "pitch": 59, "duration": 80, "velocity": 70}, {"time": 107920, "pitch": 64, "duration": 80, "velocity": 80}, {"time": 108000, "pitch": 52, "duration": 160, "velocity": 80}, {"time": 108000, "pitch": 56, "duration": 160, "velocity": 110}, {"time": 108000, "pitch": 59, "duration": 160, "velocity": 90}, {"time": 108000, "pitch": 64, "duration": 160, "velocity": 100}, {"time": 108160, "pitch": 52, "duration": 80, "velocity": 60}, {"time": 108160, "pitch": 56, "duration": 80, "velocity": 90}, {"time": 108160, "pitch": 59, "duration": 80, "velocity": 70}, {"time": 108160, "pitch": 64, "duration": 80, "velocity": 80}, {"time": 108240, "pitch": 52, "duration": 240, "velocity": 80}, {"time": 108240, "pitch": 56, "duration": 240, "velocity": 110}, {"time": 108240, "pitch": 59, "duration": 240, "velocity": 90}, {"time": 108240, "pitch": 64, "duration": 240, "velocity": 100}, {"time": 108480, "pitch": 52, "duration": 240, "velocity": 85}, {"time": 108480, "pitch": 56, "duration": 240, "velocity": 115}, {"time": 108480, "pitch": 59, "duration": 240, "velocity": 95}, {"time": 108480, "pitch": 64, "duration": 240, "velocity": 105}, {"time": 108720, "pitch": 52, "duration": 159, "velocity": 70}, {"time": 108720, "pitch": 56, "duration": 159, "velocity": 100}, {"time": 108720, "pitch": 59, "duration": 159, "velocity": 80}, {"time": 108720, "pitch": 64, "duration": 159, "velocity": 90}, {"time": 108879, "pitch": 52, "duration": 40, "velocity": 50}, {"time": 108879, "pitch": 56, "duration": 40, "velocity": 80}, {"time": 108879, "pitch": 59, "duration": 40, "velocity": 60}, {"time": 108879, "pitch": 64, "duration": 40, "velocity": 70}, {"time": 108959, "pitch": 52, "duration": 240, "velocity": 80}, {"time": 108959, "pitch": 57, "duration": 240, "velocity": 110}, {"time": 108959, "pitch": 61, "duration": 240, "velocity": 90}, {"time": 108959, "pitch": 64, "duration": 240, "velocity": 100}, {"time": 109199, "pitch": 52, "duration": 240, "velocity": 60}, {"time": 109199, "pitch": 57, "duration": 240, "velocity": 90}, {"time": 109199, "pitch": 61, "duration": 240, "velocity": 70}, {"time": 109199, "pitch": 64, "duration": 240, "velocity": 80}, {"time": 109439, "pitch": 52, "duration": 240, "velocity": 85}, {"time": 109439, "pitch": 57, "duration": 240, "velocity": 115}, {"time": 109439, "pitch": 61, "duration": 240, "velocity": 95}, {"time": 109439, "pitch": 64, "duration": 240, "velocity": 105}, {"time": 109679, "pitch": 52, "duration": 160, "velocity": 70}, {"time": 109679, "pitch": 57, "duration": 160, "velocity": 100}, {"time": 109679, "pitch": 61, "duration": 160, "velocity": 80}, {"time": 109679, "pitch": 64, "duration": 160, "velocity": 90}, {"time": 109839, "pitch": 52, "duration": 79, "velocity": 60}, {"time": 109839, "pitch": 57, "duration": 79, "velocity": 90}, {"time": 109839, "pitch": 61, "duration": 79, "velocity": 70}, {"time": 109839, "pitch": 64, "duration": 79, "velocity": 80}, {"time": 109918, "pitch": 52, "duration": 160, "velocity": 80}, {"time": 109918, "pitch": 56, "duration": 160, "velocity": 110}, {"time": 109918, "pitch": 59, "duration": 160, "velocity": 90}, {"time": 109918, "pitch": 64, "duration": 160, "velocity": 100}, {"time": 110078, "pitch": 52, "duration": 80, "velocity": 60}, {"time": 110078, "pitch": 56, "duration": 80, "velocity": 90}, {"time": 110078, "pitch": 59, "duration": 80, "velocity": 70}, {"time": 110078, "pitch": 64, "duration": 80, "velocity": 80}, {"time": 110158, "pitch": 52, "duration": 240, "velocity": 80}, {"time": 110158, "pitch": 56, "duration": 240, "velocity": 110}, {"time": 110158, "pitch": 59, "duration": 240, "velocity": 90}, {"time": 110158, "pitch": 64, "duration": 240, "velocity": 100}, {"time": 110398, "pitch": 52, "duration": 240, "velocity": 85}, {"time": 110398, "pitch": 56, "duration": 240, "velocity": 115}, {"time": 110398, "pitch": 59, "duration": 240, "velocity": 95}, {"time": 110398, "pitch": 64, "duration": 240, "velocity": 105}, {"time": 110638, "pitch": 52, "duration": 160, "velocity": 70}, {"time": 110638, "pitch": 56, "duration": 160, "velocity": 100}, {"time": 110638, "pitch": 59, "duration": 160, "velocity": 80}, {"time": 110638, "pitch": 64, "duration": 160, "velocity": 90}, {"time": 110798, "pitch": 52, "duration": 40, "velocity": 50}, {"time": 110798, "pitch": 56, "duration": 40, "velocity": 80}, {"time": 110798, "pitch": 59, "duration": 40, "velocity": 60}, {"time": 110798, "pitch": 64, "duration": 40, "velocity": 70}, {"time": 110877, "pitch": 50, "duration": 240, "velocity": 80}, {"time": 110877, "pitch": 57, "duration": 240, "velocity": 110}, {"time": 110877, "pitch": 62, "duration": 240, "velocity": 90}, {"time": 110877, "pitch": 66, "duration": 240, "velocity": 100}, {"time": 111117, "pitch": 50, "duration": 240, "velocity": 60}, {"time": 111117, "pitch": 57, "duration": 240, "velocity": 90}, {"time": 111117, "pitch": 62, "duration": 240, "velocity": 70}, {"time": 111117, "pitch": 66, "duration": 240, "velocity": 80}, {"time": 111357, "pitch": 50, "duration": 243, "velocity": 85}, {"time": 111357, "pitch": 57, "duration": 243, "velocity": 115}, {"time": 111357, "pitch": 62, "duration": 243, "velocity": 95}, {"time": 111357, "pitch": 66, "duration": 243, "velocity": 105}, {"time": 111600, "pitch": 50, "duration": 162, "velocity": 70}, {"time": 111600, "pitch": 57, "duration": 162, "velocity": 100}, {"time": 111600, "pitch": 62, "duration": 162, "velocity": 80}, {"time": 111600, "pitch": 66, "duration": 162, "velocity": 90}, {"time": 111762, "pitch": 50, "duration": 81, "velocity": 60}, {"time": 111762, "pitch": 57, "duration": 81, "velocity": 90}, {"time": 111762, "pitch": 62, "duration": 81, "velocity": 70}, {"time": 111762, "pitch": 66, "duration": 81, "velocity": 80}, {"time": 111843, "pitch": 52, "duration": 160, "velocity": 80}, {"time": 111843, "pitch": 57, "duration": 160, "velocity": 110}, {"time": 111843, "pitch": 61, "duration": 160, "velocity": 90}, {"time": 111843, "pitch": 64, "duration": 160, "velocity": 100}, {"time": 112003, "pitch": 52, "duration": 79, "velocity": 60}, {"time": 112003, "pitch": 57, "duration": 79, "velocity": 90}, {"time": 112003, "pitch": 61, "duration": 79, "velocity": 70}, {"time": 112003, "pitch": 64, "duration": 79, "velocity": 80}, {"time": 112082, "pitch": 52, "duration": 240, "velocity": 80}, {"time": 112082, "pitch": 57, "duration": 240, "velocity": 110}, {"time": 112082, "pitch": 61, "duration": 240, "velocity": 90}, {"time": 112082, "pitch": 64, "duration": 240, "velocity": 100}, {"time": 112322, "pitch": 52, "duration": 240, "velocity": 85}, {"time": 112322, "pitch": 56, "duration": 240, "velocity": 115}, {"time": 112322, "pitch": 59, "duration": 240, "velocity": 95}, {"time": 112322, "pitch": 64, "duration": 240, "velocity": 105}, {"time": 112562, "pitch": 52, "duration": 160, "velocity": 70}, {"time": 112562, "pitch": 56, "duration": 160, "velocity": 100}, {"time": 112562, "pitch": 59, "duration": 160, "velocity": 80}, {"time": 112562, "pitch": 64, "duration": 160, "velocity": 90}, {"time": 112722, "pitch": 52, "duration": 40, "velocity": 50}, {"time": 112722, "pitch": 56, "duration": 40, "velocity": 80}, {"time": 112722, "pitch": 59, "duration": 40, "velocity": 60}, {"time": 112722, "pitch": 64, "duration": 40, "velocity": 70}, {"time": 112802, "pitch": 54, "duration": 239, "velocity": 80}, {"time": 112802, "pitch": 57, "duration": 239, "velocity": 110}, {"time": 112802, "pitch": 61, "duration": 239, "velocity": 90}, {"time": 112802, "pitch": 66, "duration": 239, "velocity": 100}, {"time": 113041, "pitch": 54, "duration": 240, "velocity": 60}, {"time": 113041, "pitch": 57, "duration": 240, "velocity": 90}, {"time": 113041, "pitch": 61, "duration": 240, "velocity": 70}, {"time": 113041, "pitch": 66, "duration": 240, "velocity": 80}, {"time": 113281, "pitch": 54, "duration": 240, "velocity": 85}, {"time": 113281, "pitch": 57, "duration": 240, "velocity": 115}, {"time": 113281, "pitch": 61, "duration": 240, "velocity": 95}, {"time": 113281, "pitch": 66, "duration": 240, "velocity": 105}, {"time": 113521, "pitch": 54, "duration": 160, "velocity": 70}, {"time": 113521, "pitch": 57, "duration": 160, "velocity": 100}, {"time": 113521, "pitch": 61, "duration": 160, "velocity": 80}, {"time": 113521, "pitch": 66, "duration": 160, "velocity": 90}, {"time": 113681, "pitch": 54, "duration": 80, "velocity": 60}, {"time": 113681, "pitch": 57, "duration": 80, "velocity": 90}, {"time": 113681, "pitch": 61, "duration": 80, "velocity": 70}, {"time": 113681, "pitch": 66, "duration": 80, "velocity": 80}, {"time": 113761, "pitch": 51, "duration": 160, "velocity": 80}, {"time": 113761, "pitch": 57, "duration": 160, "velocity": 110}, {"time": 113761, "pitch": 59, "duration": 160, "velocity": 90}, {"time": 113761, "pitch": 66, "duration": 160, "velocity": 100}, {"time": 113921, "pitch": 51, "duration": 80, "velocity": 60}, {"time": 113921, "pitch": 57, "duration": 80, "velocity": 90}, {"time": 113921, "pitch": 59, "duration": 80, "velocity": 70}, {"time": 113921, "pitch": 66, "duration": 80, "velocity": 80}, {"time": 114001, "pitch": 51, "duration": 239, "velocity": 80}, {"time": 114001, "pitch": 57, "duration": 239, "velocity": 110}, {"time": 114001, "pitch": 59, "duration": 239, "velocity": 90}, {"time": 114001, "pitch": 66, "duration": 239, "velocity": 100}, {"time": 114240, "pitch": 51, "duration": 240, "velocity": 85}, {"time": 114240, "pitch": 57, "duration": 240, "velocity": 115}, {"time": 114240, "pitch": 59, "duration": 240, "velocity": 95}, {"time": 114240, "pitch": 66, "duration": 240, "velocity": 105}, {"time": 114480, "pitch": 51, "duration": 160, "velocity": 70}, {"time": 114480, "pitch": 57, "duration": 160, "velocity": 100}, {"time": 114480, "pitch": 59, "duration": 160, "velocity": 80}, {"time": 114480, "pitch": 66, "duration": 160, "velocity": 90}, {"time": 114640, "pitch": 51, "duration": 40, "velocity": 50}, {"time": 114640, "pitch": 57, "duration": 40, "velocity": 80}, {"time": 114640, "pitch": 59, "duration": 40, "velocity": 60}, {"time": 114640, "pitch": 66, "duration": 40, "velocity": 70}, {"time": 114720, "pitch": 50, "duration": 240, "velocity": 80}, {"time": 114720, "pitch": 57, "duration": 240, "velocity": 110}, {"time": 114720, "pitch": 62, "duration": 240, "velocity": 90}, {"time": 114720, "pitch": 66, "duration": 240, "velocity": 100}, {"time": 114960, "pitch": 50, "duration": 239, "velocity": 60}, {"time": 114960, "pitch": 57, "duration": 239, "velocity": 90}, {"time": 114960, "pitch": 62, "duration": 239, "velocity": 70}, {"time": 114960, "pitch": 66, "duration": 239, "velocity": 80}, {"time": 115199, "pitch": 50, "duration": 240, "velocity": 85}, {"time": 115199, "pitch": 57, "duration": 240, "velocity": 115}, {"time": 115199, "pitch": 62, "duration": 240, "velocity": 95}, {"time": 115199, "pitch": 66, "duration": 240, "velocity": 105}, {"time": 115439, "pitch": 50, "duration": 160, "velocity": 70}, {"time": 115439, "pitch": 57, "duration": 160, "velocity": 100}, {"time": 115439, "pitch": 62, "duration": 160, "velocity": 80}, {"time": 115439, "pitch": 66, "duration": 160, "velocity": 90}, {"time": 115599, "pitch": 50, "duration": 80, "velocity": 60}, {"time": 115599, "pitch": 57, "duration": 80, "velocity": 90}, {"time": 115599, "pitch": 62, "duration": 80, "velocity": 70}, {"time": 115599, "pitch": 66, "duration": 80, "velocity": 80}, {"time": 115679, "pitch": 52, "duration": 160, "velocity": 80}, {"time": 115679, "pitch": 57, "duration": 160, "velocity": 110}, {"time": 115679, "pitch": 59, "duration": 160, "velocity": 90}, {"time": 115679, "pitch": 64, "duration": 160, "velocity": 100}, {"time": 115839, "pitch": 52, "duration": 80, "velocity": 60}, {"time": 115839, "pitch": 57, "duration": 80, "velocity": 90}, {"time": 115839, "pitch": 59, "duration": 80, "velocity": 70}, {"time": 115839, "pitch": 64, "duration": 80, "velocity": 80}, {"time": 115919, "pitch": 52, "duration": 239, "velocity": 80}, {"time": 115919, "pitch": 57, "duration": 239, "velocity": 110}, {"time": 115919, "pitch": 59, "duration": 239, "velocity": 90}, {"time": 115919, "pitch": 64, "duration": 239, "velocity": 100}, {"time": 116158, "pitch": 52, "duration": 240, "velocity": 85}, {"time": 116158, "pitch": 56, "duration": 240, "velocity": 115}, {"time": 116158, "pitch": 59, "duration": 240, "velocity": 95}, {"time": 116158, "pitch": 64, "duration": 240, "velocity": 105}, {"time": 116398, "pitch": 52, "duration": 160, "velocity": 70}, {"time": 116398, "pitch": 56, "duration": 160, "velocity": 100}, {"time": 116398, "pitch": 59, "duration": 160, "velocity": 80}, {"time": 116398, "pitch": 64, "duration": 160, "velocity": 90}, {"time": 116558, "pitch": 52, "duration": 40, "velocity": 50}, {"time": 116558, "pitch": 56, "duration": 40, "velocity": 80}, {"time": 116558, "pitch": 59, "duration": 40, "velocity": 60}, {"time": 116558, "pitch": 64, "duration": 40, "velocity": 70}, {"time": 116638, "pitch": 52, "duration": 240, "velocity": 80}, {"time": 116638, "pitch": 57, "duration": 240, "velocity": 110}, {"time": 116638, "pitch": 61, "duration": 240, "velocity": 90}, {"time": 116638, "pitch": 64, "duration": 240, "velocity": 100}, {"time": 116878, "pitch": 52, "duration": 239, "velocity": 60}, {"time": 116878, "pitch": 57, "duration": 239, "velocity": 90}, {"time": 116878, "pitch": 61, "duration": 239, "velocity": 70}, {"time": 116878, "pitch": 64, "duration": 239, "velocity": 80}, {"time": 117117, "pitch": 52, "duration": 240, "velocity": 85}, {"time": 117117, "pitch": 57, "duration": 240, "velocity": 115}, {"time": 117117, "pitch": 61, "duration": 240, "velocity": 95}, {"time": 117117, "pitch": 64, "duration": 240, "velocity": 105}, {"time": 117357, "pitch": 52, "duration": 160, "velocity": 70}, {"time": 117357, "pitch": 57, "duration": 160, "velocity": 100}, {"time": 117357, "pitch": 61, "duration": 160, "velocity": 80}, {"time": 117357, "pitch": 64, "duration": 160, "velocity": 90}, {"time": 117517, "pitch": 52, "duration": 80, "velocity": 60}, {"time": 117517, "pitch": 57, "duration": 80, "velocity": 90}, {"time": 117517, "pitch": 61, "duration": 80, "velocity": 70}, {"time": 117517, "pitch": 64, "duration": 80, "velocity": 80}, {"time": 117597, "pitch": 52, "duration": 162, "velocity": 80}, {"time": 117597, "pitch": 56, "duration": 162, "velocity": 110}, {"time": 117597, "pitch": 59, "duration": 162, "velocity": 90}, {"time": 117597, "pitch": 64, "duration": 162, "velocity": 100}, {"time": 117759, "pitch": 52, "duration": 81, "velocity": 60}, {"time": 117759, "pitch": 56, "duration": 81, "velocity": 90}, {"time": 117759, "pitch": 59, "duration": 81, "velocity": 70}, {"time": 117759, "pitch": 64, "duration": 81, "velocity": 80}, {"time": 117840, "pitch": 52, "duration": 243, "velocity": 80}, {"time": 117840, "pitch": 56, "duration": 243, "velocity": 110}, {"time": 117840, "pitch": 59, "duration": 243, "velocity": 90}, {"time": 117840, "pitch": 64, "duration": 243, "velocity": 100}, {"time": 118083, "pitch": 52, "duration": 239, "velocity": 85}, {"time": 118083, "pitch": 56, "duration": 239, "velocity": 115}, {"time": 118083, "pitch": 59, "duration": 239, "velocity": 95}, {"time": 118083, "pitch": 64, "duration": 239, "velocity": 105}, {"time": 118322, "pitch": 52, "duration": 160, "velocity": 70}, {"time": 118322, "pitch": 56, "duration": 160, "velocity": 100}, {"time": 118322, "pitch": 59, "duration": 160, "velocity": 80}, {"time": 118322, "pitch": 64, "duration": 160, "velocity": 90}, {"time": 118482, "pitch": 52, "duration": 40, "velocity": 50}, {"time": 118482, "pitch": 56, "duration": 40, "velocity": 80}, {"time": 118482, "pitch": 59, "duration": 40, "velocity": 60}, {"time": 118482, "pitch": 64, "duration": 40, "velocity": 70}, {"time": 118562, "pitch": 50, "duration": 240, "velocity": 80}, {"time": 118562, "pitch": 57, "duration": 240, "velocity": 110}, {"time": 118562, "pitch": 62, "duration": 240, "velocity": 90}, {"time": 118562, "pitch": 66, "duration": 240, "velocity": 100}, {"time": 118802, "pitch": 50, "duration": 240, "velocity": 60}, {"time": 118802, "pitch": 57, "duration": 240, "velocity": 90}, {"time": 118802, "pitch": 62, "duration": 240, "velocity": 70}, {"time": 118802, "pitch": 66, "duration": 240, "velocity": 80}, {"time": 119042, "pitch": 50, "duration": 239, "velocity": 85}, {"time": 119042, "pitch": 57, "duration": 239, "velocity": 115}, {"time": 119042, "pitch": 62, "duration": 239, "velocity": 95}, {"time": 119042, "pitch": 66, "duration": 239, "velocity": 105}, {"time": 119281, "pitch": 50, "duration": 160, "velocity": 70}, {"time": 119281, "pitch": 57, "duration": 160, "velocity": 100}, {"time": 119281, "pitch": 62, "duration": 160, "velocity": 80}, {"time": 119281, "pitch": 66, "duration": 160, "velocity": 90}, {"time": 119441, "pitch": 50, "duration": 80, "velocity": 60}, {"time": 119441, "pitch": 57, "duration": 80, "velocity": 90}, {"time": 119441, "pitch": 62, "duration": 80, "velocity": 70}, {"time": 119441, "pitch": 66, "duration": 80, "velocity": 80}, {"time": 119521, "pitch": 52, "duration": 160, "velocity": 80}, {"time": 119521, "pitch": 57, "duration": 160, "velocity": 110}, {"time": 119521, "pitch": 61, "duration": 160, "velocity": 90}, {"time": 119521, "pitch": 64, "duration": 160, "velocity": 100}, {"time": 119681, "pitch": 52, "duration": 80, "velocity": 60}, {"time": 119681, "pitch": 57, "duration": 80, "velocity": 90}, {"time": 119681, "pitch": 61, "duration": 80, "velocity": 70}, {"time": 119681, "pitch": 64, "duration": 80, "velocity": 80}, {"time": 119761, "pitch": 52, "duration": 240, "velocity": 80}, {"time": 119761, "pitch": 57, "duration": 240, "velocity": 110}, {"time": 119761, "pitch": 61, "duration": 240, "velocity": 90}, {"time": 119761, "pitch": 64, "duration": 240, "velocity": 100}, {"time": 120001, "pitch": 52, "duration": 239, "velocity": 85}, {"time": 120001, "pitch": 56, "duration": 239, "velocity": 115}, {"time": 120001, "pitch": 59, "duration": 239, "velocity": 95}, {"time": 120001, "pitch": 64, "duration": 239, "velocity": 105}, {"time": 120240, "pitch": 52, "duration": 160, "velocity": 70}, {"time": 120240, "pitch": 56, "duration": 160, "velocity": 100}, {"time": 120240, "pitch": 59, "duration": 160, "velocity": 80}, {"time": 120240, "pitch": 64, "duration": 160, "velocity": 90}, {"time": 120400, "pitch": 52, "duration": 40, "velocity": 50}, {"time": 120400, "pitch": 56, "duration": 40, "velocity": 80}, {"time": 120400, "pitch": 59, "duration": 40, "velocity": 60}, {"time": 120400, "pitch": 64, "duration": 40, "velocity": 70}, {"time": 120480, "pitch": 54, "duration": 240, "velocity": 80}, {"time": 120480, "pitch": 57, "duration": 240, "velocity": 110}, {"time": 120480, "pitch": 61, "duration": 240, "velocity": 90}, {"time": 120480, "pitch": 66, "duration": 240, "velocity": 100}, {"time": 120720, "pitch": 54, "duration": 240, "velocity": 60}, {"time": 120720, "pitch": 57, "duration": 240, "velocity": 90}, {"time": 120720, "pitch": 61, "duration": 240, "velocity": 70}, {"time": 120720, "pitch": 66, "duration": 240, "velocity": 80}, {"time": 120960, "pitch": 54, "duration": 239, "velocity": 85}, {"time": 120960, "pitch": 57, "duration": 239, "velocity": 115}, {"time": 120960, "pitch": 61, "duration": 239, "velocity": 95}, {"time": 120960, "pitch": 66, "duration": 239, "velocity": 105}, {"time": 121199, "pitch": 54, "duration": 160, "velocity": 70}, {"time": 121199, "pitch": 57, "duration": 160, "velocity": 100}, {"time": 121199, "pitch": 61, "duration": 160, "velocity": 80}, {"time": 121199, "pitch": 66, "duration": 160, "velocity": 90}, {"time": 121359, "pitch": 54, "duration": 80, "velocity": 60}, {"time": 121359, "pitch": 57, "duration": 80, "velocity": 90}, {"time": 121359, "pitch": 61, "duration": 80, "velocity": 70}, {"time": 121359, "pitch": 66, "duration": 80, "velocity": 80}, {"time": 121439, "pitch": 51, "duration": 160, "velocity": 80}, {"time": 121439, "pitch": 57, "duration": 160, "velocity": 110}, {"time": 121439, "pitch": 59, "duration": 160, "velocity": 90}, {"time": 121439, "pitch": 66, "duration": 160, "velocity": 100}, {"time": 121599, "pitch": 51, "duration": 80, "velocity": 60}, {"time": 121599, "pitch": 57, "duration": 80, "velocity": 90}, {"time": 121599, "pitch": 59, "duration": 80, "velocity": 70}, {"time": 121599, "pitch": 66, "duration": 80, "velocity": 80}, {"time": 121679, "pitch": 51, "duration": 240, "velocity": 80}, {"time": 121679, "pitch": 57, "duration": 240, "velocity": 110}, {"time": 121679, "pitch": 59, "duration": 240, "velocity": 90}, {"time": 121679, "pitch": 66, "duration": 240, "velocity": 100}, {"time": 121919, "pitch": 51, "duration": 240, "velocity": 85}, {"time": 121919, "pitch": 57, "duration": 240, "velocity": 115}, {"time": 121919, "pitch": 59, "duration": 240, "velocity": 95}, {"time": 121919, "pitch": 66, "duration": 240, "velocity": 105}, {"time": 122159, "pitch": 51, "duration": 159, "velocity": 70}, {"time": 122159, "pitch": 57, "duration": 159, "velocity": 100}, {"time": 122159, "pitch": 59, "duration": 159, "velocity": 80}, {"time": 122159, "pitch": 66, "duration": 159, "velocity": 90}, {"time": 122318, "pitch": 51, "duration": 40, "velocity": 50}, {"time": 122318, "pitch": 57, "duration": 40, "velocity": 80}, {"time": 122318, "pitch": 59, "duration": 40, "velocity": 60}, {"time": 122318, "pitch": 66, "duration": 40, "velocity": 70}, {"time": 122398, "pitch": 50, "duration": 240, "velocity": 80}, {"time": 122398, "pitch": 57, "duration": 240, "velocity": 110}, {"time": 122398, "pitch": 62, "duration": 240, "velocity": 90}, {"time": 122398, "pitch": 66, "duration": 240, "velocity": 100}, {"time": 122638, "pitch": 50, "duration": 240, "velocity": 60}, {"time": 122638, "pitch": 57, "duration": 240, "velocity": 90}, {"time": 122638, "pitch": 62, "duration": 240, "velocity": 70}, {"time": 122638, "pitch": 66, "duration": 240, "velocity": 80}, {"time": 122878, "pitch": 50, "duration": 240, "velocity": 85}, {"time": 122878, "pitch": 57, "duration": 240, "velocity": 115}, {"time": 122878, "pitch": 62, "duration": 240, "velocity": 95}, {"time": 122878, "pitch": 66, "duration": 240, "velocity": 105}, {"time": 123118, "pitch": 50, "duration": 159, "velocity": 70}, {"time": 123118, "pitch": 57, "duration": 159, "velocity": 100}, {"time": 123118, "pitch": 62, "duration": 159, "velocity": 80}, {"time": 123118, "pitch": 66, "duration": 159, "velocity": 90}, {"time": 123277, "pitch": 50, "duration": 80, "velocity": 60}, {"time": 123277, "pitch": 57, "duration": 80, "velocity": 90}, {"time": 123277, "pitch": 62, "duration": 80, "velocity": 70}, {"time": 123277, "pitch": 66, "duration": 80, "velocity": 80}, {"time": 123357, "pitch": 52, "duration": 162, "velocity": 80}, {"time": 123357, "pitch": 57, "duration": 162, "velocity": 110}, {"time": 123357, "pitch": 59, "duration": 162, "velocity": 90}, {"time": 123357, "pitch": 64, "duration": 162, "velocity": 100}, {"time": 123519, "pitch": 52, "duration": 81, "velocity": 60}, {"time": 123519, "pitch": 57, "duration": 81, "velocity": 90}, {"time": 123519, "pitch": 59, "duration": 81, "velocity": 70}, {"time": 123519, "pitch": 64, "duration": 81, "velocity": 80}, {"time": 123600, "pitch": 52, "duration": 243, "velocity": 80}, {"time": 123600, "pitch": 57, "duration": 243, "velocity": 110}, {"time": 123600, "pitch": 59, "duration": 243, "velocity": 90}, {"time": 123600, "pitch": 64, "duration": 243, "velocity": 100}, {"time": 123843, "pitch": 52, "duration": 240, "velocity": 85}, {"time": 123843, "pitch": 56, "duration": 240, "velocity": 115}, {"time": 123843, "pitch": 59, "duration": 240, "velocity": 95}, {"time": 123843, "pitch": 64, "duration": 240, "velocity": 105}, {"time": 124083, "pitch": 52, "duration": 160, "velocity": 70}, {"time": 124083, "pitch": 56, "duration": 160, "velocity": 100}, {"time": 124083, "pitch": 59, "duration": 160, "velocity": 80}, {"time": 124083, "pitch": 64, "duration": 160, "velocity": 90}, {"time": 124243, "pitch": 52, "duration": 40, "velocity": 50}, {"time": 124243, "pitch": 56, "duration": 40, "velocity": 80}, {"time": 124243, "pitch": 59, "duration": 40, "velocity": 60}, {"time": 124243, "pitch": 64, "duration": 40, "velocity": 70}, {"time": 124323, "pitch": 50, "duration": 479, "velocity": 70}, {"time": 124323, "pitch": 57, "duration": 479, "velocity": 100}, {"time": 124323, "pitch": 62, "duration": 479, "velocity": 80}, {"time": 124323, "pitch": 66, "duration": 479, "velocity": 90}, {"time": 124802, "pitch": 50, "duration": 400, "velocity": 85}, {"time": 124802, "pitch": 57, "duration": 400, "velocity": 115}, {"time": 124802, "pitch": 62, "duration": 400, "velocity": 95}, {"time": 124802, "pitch": 66, "duration": 400, "velocity": 105}, {"time": 125202, "pitch": 50, "duration": 80, "velocity": 60}, {"time": 125202, "pitch": 57, "duration": 80, "velocity": 90}, {"time": 125202, "pitch": 62, "duration": 80, "velocity": 70}, {"time": 125202, "pitch": 66, "duration": 80, "velocity": 80}, {"time": 125282, "pitch": 50, "duration": 159, "velocity": 80}, {"time": 125282, "pitch": 57, "duration": 159, "velocity": 110}, {"time": 125282, "pitch": 62, "duration": 159, "velocity": 90}, {"time": 125282, "pitch": 66, "duration": 159, "velocity": 100}, {"time": 125441, "pitch": 50, "duration": 80, "velocity": 60}, {"time": 125441, "pitch": 57, "duration": 80, "velocity": 90}, {"time": 125441, "pitch": 62, "duration": 80, "velocity": 70}, {"time": 125441, "pitch": 66, "duration": 80, "velocity": 80}, {"time": 125521, "pitch": 50, "duration": 240, "velocity": 80}, {"time": 125521, "pitch": 57, "duration": 240, "velocity": 110}, {"time": 125521, "pitch": 62, "duration": 240, "velocity": 90}, {"time": 125521, "pitch": 66, "duration": 240, "velocity": 100}, {"time": 125761, "pitch": 50, "duration": 240, "velocity": 85}, {"time": 125761, "pitch": 57, "duration": 240, "velocity": 115}, {"time": 125761, "pitch": 62, "duration": 240, "velocity": 95}, {"time": 125761, "pitch": 66, "duration": 240, "velocity": 105}, {"time": 126001, "pitch": 50, "duration": 160, "velocity": 70}, {"time": 126001, "pitch": 57, "duration": 160, "velocity": 100}, {"time": 126001, "pitch": 62, "duration": 160, "velocity": 80}, {"time": 126001, "pitch": 66, "duration": 160, "velocity": 90}, {"time": 126161, "pitch": 50, "duration": 40, "velocity": 50}, {"time": 126161, "pitch": 57, "duration": 40, "velocity": 80}, {"time": 126161, "pitch": 62, "duration": 40, "velocity": 60}, {"time": 126161, "pitch": 66, "duration": 40, "velocity": 70}, {"time": 126241, "pitch": 56, "duration": 479, "velocity": 70}, {"time": 126241, "pitch": 59, "duration": 479, "velocity": 100}, {"time": 126241, "pitch": 64, "duration": 479, "velocity": 80}, {"time": 126241, "pitch": 68, "duration": 479, "velocity": 90}, {"time": 126720, "pitch": 56, "duration": 400, "velocity": 85}, {"time": 126720, "pitch": 59, "duration": 400, "velocity": 115}, {"time": 126720, "pitch": 64, "duration": 400, "velocity": 95}, {"time": 126720, "pitch": 68, "duration": 400, "velocity": 105}, {"time": 127120, "pitch": 56, "duration": 80, "velocity": 60}, {"time": 127120, "pitch": 59, "duration": 80, "velocity": 90}, {"time": 127120, "pitch": 64, "duration": 80, "velocity": 70}, {"time": 127120, "pitch": 68, "duration": 80, "velocity": 80}, {"time": 127200, "pitch": 56, "duration": 159, "velocity": 80}, {"time": 127200, "pitch": 59, "duration": 159, "velocity": 110}, {"time": 127200, "pitch": 64, "duration": 159, "velocity": 90}, {"time": 127200, "pitch": 68, "duration": 159, "velocity": 100}, {"time": 127359, "pitch": 56, "duration": 80, "velocity": 60}, {"time": 127359, "pitch": 59, "duration": 80, "velocity": 90}, {"time": 127359, "pitch": 64, "duration": 80, "velocity": 70}, {"time": 127359, "pitch": 68, "duration": 80, "velocity": 80}, {"time": 127439, "pitch": 56, "duration": 240, "velocity": 80}, {"time": 127439, "pitch": 59, "duration": 240, "velocity": 110}, {"time": 127439, "pitch": 64, "duration": 240, "velocity": 90}, {"time": 127439, "pitch": 68, "duration": 240, "velocity": 100}, {"time": 127679, "pitch": 56, "duration": 240, "velocity": 85}, {"time": 127679, "pitch": 59, "duration": 240, "velocity": 115}, {"time": 127679, "pitch": 64, "duration": 240, "velocity": 95}, {"time": 127679, "pitch": 68, "duration": 240, "velocity": 105}, {"time": 127919, "pitch": 56, "duration": 160, "velocity": 70}, {"time": 127919, "pitch": 59, "duration": 160, "velocity": 100}, {"time": 127919, "pitch": 64, "duration": 160, "velocity": 80}, {"time": 127919, "pitch": 68, "duration": 160, "velocity": 90}, {"time": 128079, "pitch": 56, "duration": 40, "velocity": 50}, {"time": 128079, "pitch": 59, "duration": 40, "velocity": 80}, {"time": 128079, "pitch": 64, "duration": 40, "velocity": 60}, {"time": 128079, "pitch": 68, "duration": 40, "velocity": 70}, {"time": 128159, "pitch": 54, "duration": 479, "velocity": 70}, {"time": 128159, "pitch": 59, "duration": 479, "velocity": 100}, {"time": 128159, "pitch": 62, "duration": 479, "velocity": 80}, {"time": 128159, "pitch": 66, "duration": 479, "velocity": 90}, {"time": 128638, "pitch": 54, "duration": 400, "velocity": 85}, {"time": 128638, "pitch": 59, "duration": 400, "velocity": 115}, {"time": 128638, "pitch": 62, "duration": 400, "velocity": 95}, {"time": 128638, "pitch": 66, "duration": 400, "velocity": 105}, {"time": 129038, "pitch": 54, "duration": 80, "velocity": 60}, {"time": 129038, "pitch": 59, "duration": 80, "velocity": 90}, {"time": 129038, "pitch": 62, "duration": 80, "velocity": 70}, {"time": 129038, "pitch": 66, "duration": 80, "velocity": 80}, {"time": 129118, "pitch": 52, "duration": 160, "velocity": 80}, {"time": 129118, "pitch": 56, "duration": 160, "velocity": 110}, {"time": 129118, "pitch": 59, "duration": 160, "velocity": 90}, {"time": 129118, "pitch": 64, "duration": 160, "velocity": 100}, {"time": 129278, "pitch": 52, "duration": 79, "velocity": 60}, {"time": 129278, "pitch": 56, "duration": 79, "velocity": 90}, {"time": 129278, "pitch": 59, "duration": 79, "velocity": 70}, {"time": 129278, "pitch": 64, "duration": 79, "velocity": 80}, {"time": 129357, "pitch": 52, "duration": 240, "velocity": 80}, {"time": 129357, "pitch": 56, "duration": 240, "velocity": 110}, {"time": 129357, "pitch": 59, "duration": 240, "velocity": 90}, {"time": 129357, "pitch": 64, "duration": 240, "velocity": 100}, {"time": 129597, "pitch": 52, "duration": 243, "velocity": 85}, {"time": 129597, "pitch": 56, "duration": 243, "velocity": 115}, {"time": 129597, "pitch": 59, "duration": 243, "velocity": 95}, {"time": 129597, "pitch": 64, "duration": 243, "velocity": 105}, {"time": 129840, "pitch": 52, "duration": 162, "velocity": 70}, {"time": 129840, "pitch": 56, "duration": 162, "velocity": 100}, {"time": 129840, "pitch": 59, "duration": 162, "velocity": 80}, {"time": 129840, "pitch": 64, "duration": 162, "velocity": 90}, {"time": 130002, "pitch": 52, "duration": 40, "velocity": 50}, {"time": 130002, "pitch": 56, "duration": 40, "velocity": 80}, {"time": 130002, "pitch": 59, "duration": 40, "velocity": 60}, {"time": 130002, "pitch": 64, "duration": 40, "velocity": 70}, {"time": 130083, "pitch": 52, "duration": 240, "velocity": 85}, {"time": 130083, "pitch": 57, "duration": 240, "velocity": 115}, {"time": 130083, "pitch": 61, "duration": 240, "velocity": 95}, {"time": 130083, "pitch": 64, "duration": 240, "velocity": 105}, {"time": 130323, "pitch": 52, "duration": 239, "velocity": 70}, {"time": 130323, "pitch": 57, "duration": 239, "velocity": 100}, {"time": 130323, "pitch": 61, "duration": 239, "velocity": 80}, {"time": 130323, "pitch": 64, "duration": 239, "velocity": 90}, {"time": 130562, "pitch": 52, "duration": 160, "velocity": 80}, {"time": 130562, "pitch": 57, "duration": 160, "velocity": 110}, {"time": 130562, "pitch": 61, "duration": 160, "velocity": 90}, {"time": 130562, "pitch": 64, "duration": 160, "velocity": 100}, {"time": 130722, "pitch": 52, "duration": 80, "velocity": 60}, {"time": 130722, "pitch": 57, "duration": 80, "velocity": 90}, {"time": 130722, "pitch": 61, "duration": 80, "velocity": 70}, {"time": 130722, "pitch": 64, "duration": 80, "velocity": 80}, {"time": 130802, "pitch": 52, "duration": 240, "velocity": 80}, {"time": 130802, "pitch": 57, "duration": 240, "velocity": 110}, {"time": 130802, "pitch": 61, "duration": 240, "velocity": 90}, {"time": 130802, "pitch": 64, "duration": 240, "velocity": 100}, {"time": 131042, "pitch": 52, "duration": 2877, "velocity": 90}, {"time": 131042, "pitch": 57, "duration": 2877, "velocity": 120}, {"time": 131042, "pitch": 61, "duration": 2877, "velocity": 100}, {"time": 131042, "pitch": 64, "duration": 2877, "velocity": 110}], "annotations": [{"time": 224, "annotation": {"number": 7, "value": 70}, "group": "control_change"}, {"time": 240, "annotation": {"number": 11, "value": 127}, "group": "control_change"}, {"time": 256, "annotation": {"number": 10, "value": 14}, "group": "control_change"}, {"time": 288, "annotation": {"number": 91, "value": 55}, "group": "control_change"}, {"time": 304, "annotation": {"number": 93, "value": 0}, "group": "control_change"}, {"time": 320, "annotation": {"number": 94, "value": 0}, "group": "control_change"}, {"time": 368, "annotation": {"number": 101, "value": 0}, "group": "control_change"}, {"time": 384, "annotation": {"number": 100, "value": 0}, "group": "control_change"}, {"time": 400, "annotation": {"number": 6, "value": 12}, "group": "control_change"}, {"time": 432, "annotation": {"number": 99, "value": 1}, "group": "control_change"}, {"time": 448, "annotation": {"number": 98, "value": 8}, "group": "control_change"}, {"time": 464, "annotation": {"number": 6, "value": 64}, "group": "control_change"}, {"time": 495, "annotation": {"number": 99, "value": 1}, "group": "control_change"}, {"time": 551, "annotation": {"number": 98, "value": 9}, "group": "control_change"}, {"time": 606, "annotation": {"number": 6, "value": 64}, "group": "control_change"}, {"time": 717, "annotation": {"number": 99, "value": 1}, "group": "control_change"}, {"time": 772, "annotation": {"number": 98, "value": 10}, "group": "control_change"}, {"time": 827, "annotation": {"number": 6, "value": 64}, "group": "control_change"}, {"time": 882, "annotation": {"number": 74, "value": 64}, "group": "control_change"}, {"time": 938, "annotation": {"number": 71, "value": 64}, "group": "control_change"}, {"time": 993, "annotation": {"number": 73, "value": 64}, "group": "control_change"}, {"time": 1048, "annotation": {"number": 99, "value": 1}, "group": "control_change"}, {"time": 1103, "annotation": {"number": 98, "value": 100}, "group": "control_change"}, {"time": 1159, "annotation": {"number": 6, "value": 62}, "group": "control_change"}, {"time": 1214, "annotation": {"number": 72, "value": 64}, "group": "control_change"}, {"time": 1269, "annotation": {"number": 101, "value": 127}, "group": "control_change"}, {"time": 1325, "annotation": {"number": 100, "value": 127}, "group": "control_change"}, {"time": 132960, "annotation": {"number": 11, "value": 127}, "group": "control_change"}, {"time": 132975, "annotation": {"number": 11, "value": 125}, "group": "control_change"}, {"time": 132991, "annotation": {"number": 11, "value": 122}, "group": "control_change"}, {"time": 133007, "annotation": {"number": 11, "value": 120}, "group": "control_change"}, {"time": 133023, "annotation": {"number": 11, "value": 118}, "group": "control_change"}, {"time": 133038, "annotation": {"number": 11, "value": 116}, "group": "control_change"}, {"time": 133054, "annotation": {"number": 11, "value": 114}, "group": "control_change"}, {"time": 133070, "annotation": {"number": 11, "value": 112}, "group": "control_change"}, {"time": 133086, "annotation": {"number": 11, "value": 110}, "group": "control_change"}, {"time": 133101, "annotation": {"number": 11, "value": 108}, "group": "control_change"}, {"time": 133117, "annotation": {"number": 11, "value": 106}, "group": "control_change"}, {"time": 133133, "annotation": {"number": 11, "value": 104}, "group": "control_change"}, {"time": 133149, "annotation": {"number": 11, "value": 102}, "group": "control_change"}, {"time": 133164, "annotation": {"number": 11, "value": 100}, "group": "control_change"}, {"time": 133180, "annotation": {"number": 11, "value": 97}, "group": "control_change"}, {"time": 133196, "annotation": {"number": 11, "value": 95}, "group": "control_change"}, {"time": 133211, "annotation": {"number": 11, "value": 93}, "group": "control_change"}, {"time": 133227, "annotation": {"number": 11, "value": 91}, "group": "control_change"}, {"time": 133243, "annotation": {"number": 11, "value": 89}, "group": "control_change"}, {"time": 133259, "annotation": {"number": 11, "value": 87}, "group": "control_change"}, {"time": 133274, "annotation": {"number": 11, "value": 85}, "group": "control_change"}, {"time": 133290, "annotation": {"number": 11, "value": 83}, "group": "control_change"}, {"time": 133306, "annotation": {"number": 11, "value": 81}, "group": "control_change"}, {"time": 133322, "annotation": {"number": 11, "value": 79}, "group": "control_change"}, {"time": 133337, "annotation": {"number": 11, "value": 77}, "group": "control_change"}, {"time": 133353, "annotation": {"number": 11, "value": 75}, "group": "control_change"}, {"time": 133369, "annotation": {"number": 11, "value": 73}, "group": "control_change"}, {"time": 133385, "annotation": {"number": 11, "value": 70}, "group": "control_change"}, {"time": 133400, "annotation": {"number": 11, "value": 68}, "group": "control_change"}, {"time": 133416, "annotation": {"number": 11, "value": 66}, "group": "control_change"}, {"time": 133432, "annotation": {"number": 11, "value": 64}, "group": "control_change"}, {"time": 133447, "annotation": {"number": 11, "value": 62}, "group": "control_change"}, {"time": 133463, "annotation": {"number": 11, "value": 60}, "group": "control_change"}, {"time": 133479, "annotation": {"number": 11, "value": 58}, "group": "control_change"}, {"time": 133494, "annotation": {"number": 11, "value": 56}, "group": "control_change"}, {"time": 133509, "annotation": {"number": 11, "value": 54}, "group": "control_change"}, {"time": 133525, "annotation": {"number": 11, "value": 52}, "group": "control_change"}, {"time": 133541, "annotation": {"number": 11, "value": 50}, "group": "control_change"}, {"time": 133557, "annotation": {"number": 11, "value": 48}, "group": "control_change"}, {"time": 133572, "annotation": {"number": 11, "value": 46}, "group": "control_change"}, {"time": 133588, "annotation": {"number": 11, "value": 44}, "group": "control_change"}, {"time": 133604, "annotation": {"number": 11, "value": 41}, "group": "control_change"}, {"time": 133620, "annotation": {"number": 11, "value": 39}, "group": "control_change"}, {"time": 133635, "annotation": {"number": 11, "value": 37}, "group": "control_change"}, {"time": 133651, "annotation": {"number": 11, "value": 35}, "group": "control_change"}, {"time": 133667, "annotation": {"number": 11, "value": 33}, "group": "control_change"}, {"time": 133682, "annotation": {"number": 11, "value": 31}, "group": "control_change"}, {"time": 133698, "annotation": {"number": 11, "value": 29}, "group": "control_change"}, {"time": 133714, "annotation": {"number": 11, "value": 27}, "group": "control_change"}, {"time": 133730, "annotation": {"number": 11, "value": 25}, "group": "control_change"}, {"time": 133745, "annotation": {"number": 11, "value": 23}, "group": "control_change"}, {"time": 133761, "annotation": {"number": 11, "value": 21}, "group": "control_change"}, {"time": 133777, "annotation": {"number": 11, "value": 19}, "group": "control_change"}, {"time": 133793, "annotation": {"number": 11, "value": 17}, "group": "control_change"}, {"time": 133808, "annotation": {"number": 11, "value": 15}, "group": "control_change"}, {"time": 133824, "annotation": {"number": 11, "value": 12}, "group": "control_change"}, {"time": 133840, "annotation": {"number": 11, "value": 10}, "group": "control_change"}, {"time": 133856, "annotation": {"number": 11, "value": 8}, "group": "control_change"}, {"time": 133871, "annotation": {"number": 11, "value": 6}, "group": "control_change"}, {"time": 133887, "annotation": {"number": 11, "value": 4}, "group": "control_change"}, {"time": 133903, "annotation": {"number": 11, "value": 2}, "group": "control_change"}, {"time": 133918, "annotation": {"number": 11, "value": 0}, "group": "control_change"}]}, {"program": 0, "is_drum": false, "name": "melody", "annotations": [{"time": 160, "annotation": {"number": 0, "value": 0}, "group": "control_change"}, {"time": 176, "annotation": {"number": 32, "value": 2}, "group": "control_change"}]}, {"program": 73, "is_drum": false, "name": "melody", "notes": [{"time": 9361, "pitch": 73, "duration": 143, "velocity": 127}, {"time": 9520, "pitch": 73, "duration": 72, "velocity": 127}, {"time": 9600, "pitch": 73, "duration": 144, "velocity": 127}, {"time": 9760, "pitch": 73, "duration": 72, "velocity": 127}, {"time": 9840, "pitch": 73, "duration": 144, "velocity": 127}, {"time": 10000, "pitch": 73, "duration": 72, "velocity": 127}, {"time": 10080, "pitch": 71, "duration": 216, "velocity": 127}, {"time": 10320, "pitch": 69, "duration": 431, "velocity": 127}, {"time": 10799, "pitch": 69, "duration": 216, "velocity": 127}, {"time": 11039, "pitch": 71, "duration": 216, "velocity": 127}, {"time": 11279, "pitch": 69, "duration": 215, "velocity": 127}, {"time": 11518, "pitch": 71, "duration": 216, "velocity": 127}, {"time": 11758, "pitch": 73, "duration": 1296, "velocity": 127}, {"time": 13200, "pitch": 69, "duration": 146, "velocity": 127}, {"time": 13362, "pitch": 69, "duration": 73, "velocity": 127}, {"time": 13443, "pitch": 69, "duration": 143, "velocity": 127}, {"time": 13602, "pitch": 69, "duration": 72, "velocity": 127}, {"time": 13682, "pitch": 69, "duration": 144, "velocity": 127}, {"time": 13842, "pitch": 69, "duration": 72, "velocity": 127}, {"time": 13922, "pitch": 71, "duration": 216, "velocity": 127}, {"time": 14162, "pitch": 69, "duration": 431, "velocity": 127}, {"time": 14641, "pitch": 73, "duration": 216, "velocity": 127}, {"time": 14881, "pitch": 74, "duration": 216, "velocity": 127}, {"time": 15121, "pitch": 73, "duration": 216, "velocity": 127}, {"time": 15361, "pitch": 71, "duration": 215, "velocity": 127}, {"time": 15600, "pitch": 69, "duration": 216, "velocity": 127}, {"time": 15840, "pitch": 71, "duration": 1079, "velocity": 127}, {"time": 17039, "pitch": 73, "duration": 144, "velocity": 127}, {"time": 17199, "pitch": 73, "duration": 72, "velocity": 127}, {"time": 17279, "pitch": 73, "duration": 144, "velocity": 127}, {"time": 17439, "pitch": 73, "duration": 72, "velocity": 127}, {"time": 17519, "pitch": 73, "duration": 143, "velocity": 127}, {"time": 17678, "pitch": 73, "duration": 72, "velocity": 127}, {"time": 17758, "pitch": 71, "duration": 216, "velocity": 127}, {"time": 17998, "pitch": 69, "duration": 432, "velocity": 127}, {"time": 18478, "pitch": 69, "duration": 215, "velocity": 127}, {"time": 18717, "pitch": 71, "duration": 219, "velocity": 127}, {"time": 18960, "pitch": 69, "duration": 219, "velocity": 127}, {"time": 19203, "pitch": 71, "duration": 216, "velocity": 127}, {"time": 19443, "pitch": 73, "duration": 1294, "velocity": 127}, {"time": 20881, "pitch": 69, "duration": 144, "velocity": 127}, {"time": 21041, "pitch": 69, "duration": 72, "velocity": 127}, {"time": 21121, "pitch": 69, "duration": 144, "velocity": 127}, {"time": 21281, "pitch": 69, "duration": 72, "velocity": 127}, {"time": 21361, "pitch": 69, "duration": 144, "velocity": 127}, {"time": 21521, "pitch": 69, "duration": 72, "velocity": 127}, {"time": 21601, "pitch": 71, "duration": 143, "velocity": 127}, {"time": 21760, "pitch": 71, "duration": 72, "velocity": 127}, {"time": 21840, "pitch": 69, "duration": 432, "velocity": 127}, {"time": 22320, "pitch": 73, "duration": 216, "velocity": 127}, {"time": 22560, "pitch": 74, "duration": 215, "velocity": 127}, {"time": 22799, "pitch": 73, "duration": 216, "velocity": 127}, {"time": 23039, "pitch": 69, "duration": 216, "velocity": 127}, {"time": 23279, "pitch": 71, "duration": 216, "velocity": 127}, {"time": 23519, "pitch": 69, "duration": 1079, "velocity": 127}, {"time": 24717, "pitch": 71, "duration": 144, "velocity": 127}, {"time": 24877, "pitch": 69, "duration": 72, "velocity": 127}, {"time": 24957, "pitch": 71, "duration": 146, "velocity": 127}, {"time": 25119, "pitch": 69, "duration": 73, "velocity": 127}, {"time": 25200, "pitch": 71, "duration": 146, "velocity": 127}, {"time": 25362, "pitch": 69, "duration": 73, "velocity": 127}, {"time": 25443, "pitch": 73, "duration": 216, "velocity": 127}, {"time": 25683, "pitch": 71, "duration": 431, "velocity": 127}, {"time": 26162, "pitch": 69, "duration": 216, "velocity": 127}, {"time": 26402, "pitch": 73, "duration": 216, "velocity": 127}, {"time": 26642, "pitch": 73, "duration": 144, "velocity": 127}, {"time": 26802, "pitch": 73, "duration": 215, "velocity": 127}, {"time": 27041, "pitch": 73, "duration": 72, "velocity": 127}, {"time": 27121, "pitch": 71, "duration": 144, "velocity": 127}, {"time": 27281, "pitch": 69, "duration": 719, "velocity": 127}, {"time": 28080, "pitch": 69, "duration": 216, "velocity": 127}, {"time": 28320, "pitch": 74, "duration": 216, "velocity": 127}, {"time": 28560, "pitch": 73, "duration": 216, "velocity": 127}, {"time": 28800, "pitch": 71, "duration": 215, "velocity": 127}, {"time": 29039, "pitch": 69, "duration": 216, "velocity": 127}, {"time": 29279, "pitch": 74, "duration": 216, "velocity": 127}, {"time": 29519, "pitch": 73, "duration": 216, "velocity": 127}, {"time": 29759, "pitch": 71, "duration": 215, "velocity": 127}, {"time": 29998, "pitch": 69, "duration": 216, "velocity": 127}, {"time": 30238, "pitch": 71, "duration": 1081, "velocity": 127}, {"time": 31440, "pitch": 64, "duration": 219, "velocity": 127}, {"time": 31683, "pitch": 69, "duration": 216, "velocity": 127}, {"time": 31923, "pitch": 71, "duration": 215, "velocity": 127}, {"time": 32162, "pitch": 73, "duration": 432, "velocity": 127}, {"time": 32642, "pitch": 73, "duration": 216, "velocity": 127}, {"time": 32882, "pitch": 73, "duration": 215, "velocity": 127}, {"time": 33121, "pitch": 71, "duration": 432, "velocity": 127}, {"time": 33601, "pitch": 76, "duration": 431, "velocity": 127}, {"time": 34080, "pitch": 78, "duration": 216, "velocity": 127}, {"time": 34320, "pitch": 69, "duration": 216, "velocity": 127}, {"time": 34560, "pitch": 69, "duration": 216, "velocity": 127}, {"time": 34800, "pitch": 71, "duration": 216, "velocity": 127}, {"time": 35039, "pitch": 73, "duration": 864, "velocity": 127}, {"time": 35999, "pitch": 69, "duration": 215, "velocity": 127}, {"time": 36238, "pitch": 71, "duration": 144, "velocity": 127}, {"time": 36398, "pitch": 71, "duration": 72, "velocity": 127}, {"time": 36478, "pitch": 73, "duration": 360, "velocity": 127}, {"time": 36878, "pitch": 64, "duration": 72, "velocity": 127}, {"time": 36958, "pitch": 69, "duration": 215, "velocity": 127}, {"time": 37197, "pitch": 71, "duration": 144, "velocity": 127}, {"time": 37357, "pitch": 71, "duration": 72, "velocity": 127}, {"time": 37437, "pitch": 73, "duration": 437, "velocity": 127}, {"time": 37923, "pitch": 74, "duration": 216, "velocity": 127}, {"time": 38163, "pitch": 73, "duration": 215, "velocity": 127}, {"time": 38402, "pitch": 71, "duration": 216, "velocity": 127}, {"time": 38642, "pitch": 69, "duration": 216, "velocity": 127}, {"time": 38882, "pitch": 71, "duration": 863, "velocity": 127}, {"time": 39841, "pitch": 73, "duration": 431, "velocity": 127}, {"time": 40320, "pitch": 73, "duration": 216, "velocity": 127}, {"time": 40560, "pitch": 73, "duration": 216, "velocity": 127}, {"time": 40800, "pitch": 71, "duration": 431, "velocity": 127}, {"time": 41279, "pitch": 76, "duration": 432, "velocity": 127}, {"time": 41759, "pitch": 78, "duration": 216, "velocity": 127}, {"time": 41999, "pitch": 69, "duration": 215, "velocity": 127}, {"time": 42238, "pitch": 69, "duration": 216, "velocity": 127}, {"time": 42478, "pitch": 71, "duration": 216, "velocity": 127}, {"time": 42718, "pitch": 73, "duration": 863, "velocity": 127}, {"time": 43677, "pitch": 69, "duration": 219, "velocity": 127}, {"time": 43920, "pitch": 71, "duration": 146, "velocity": 127}, {"time": 44082, "pitch": 71, "duration": 73, "velocity": 127}, {"time": 44163, "pitch": 73, "duration": 431, "velocity": 127}, {"time": 44642, "pitch": 69, "duration": 216, "velocity": 127}, {"time": 44882, "pitch": 71, "duration": 144, "velocity": 127}, {"time": 45042, "pitch": 71, "duration": 72, "velocity": 127}, {"time": 45122, "pitch": 73, "duration": 431, "velocity": 127}, {"time": 45601, "pitch": 74, "duration": 216, "velocity": 127}, {"time": 45841, "pitch": 69, "duration": 863, "velocity": 127}, {"time": 46800, "pitch": 73, "duration": 144, "velocity": 127}, {"time": 46960, "pitch": 73, "duration": 72, "velocity": 127}, {"time": 47040, "pitch": 71, "duration": 216, "velocity": 127}, {"time": 47280, "pitch": 69, "duration": 143, "velocity": 127}, {"time": 47439, "pitch": 69, "duration": 1763, "velocity": 127}, {"time": 55438, "pitch": 73, "duration": 143, "velocity": 127}, {"time": 55597, "pitch": 73, "duration": 72, "velocity": 127}, {"time": 55677, "pitch": 73, "duration": 146, "velocity": 127}, {"time": 55839, "pitch": 73, "duration": 73, "velocity": 127}, {"time": 55920, "pitch": 73, "duration": 146, "velocity": 127}, {"time": 56082, "pitch": 73, "duration": 73, "velocity": 127}, {"time": 56163, "pitch": 71, "duration": 216, "velocity": 127}, {"time": 56403, "pitch": 69, "duration": 431, "velocity": 127}, {"time": 56882, "pitch": 69, "duration": 216, "velocity": 127}, {"time": 57122, "pitch": 71, "duration": 216, "velocity": 127}, {"time": 57362, "pitch": 69, "duration": 216, "velocity": 127}, {"time": 57602, "pitch": 71, "duration": 215, "velocity": 127}, {"time": 57841, "pitch": 73, "duration": 1295, "velocity": 127}, {"time": 59280, "pitch": 69, "duration": 144, "velocity": 127}, {"time": 59440, "pitch": 69, "duration": 72, "velocity": 127}, {"time": 59520, "pitch": 69, "duration": 143, "velocity": 127}, {"time": 59679, "pitch": 69, "duration": 72, "velocity": 127}, {"time": 59759, "pitch": 69, "duration": 144, "velocity": 127}, {"time": 59919, "pitch": 69, "duration": 72, "velocity": 127}, {"time": 59999, "pitch": 71, "duration": 216, "velocity": 127}, {"time": 60239, "pitch": 69, "duration": 431, "velocity": 127}, {"time": 60718, "pitch": 73, "duration": 216, "velocity": 127}, {"time": 60958, "pitch": 74, "duration": 216, "velocity": 127}, {"time": 61198, "pitch": 73, "duration": 216, "velocity": 127}, {"time": 61438, "pitch": 71, "duration": 215, "velocity": 127}, {"time": 61677, "pitch": 69, "duration": 216, "velocity": 127}, {"time": 61917, "pitch": 71, "duration": 1085, "velocity": 127}, {"time": 63122, "pitch": 73, "duration": 144, "velocity": 127}, {"time": 63282, "pitch": 73, "duration": 72, "velocity": 127}, {"time": 63362, "pitch": 73, "duration": 144, "velocity": 127}, {"time": 63522, "pitch": 73, "duration": 72, "velocity": 127}, {"time": 63602, "pitch": 73, "duration": 144, "velocity": 127}, {"time": 63762, "pitch": 73, "duration": 71, "velocity": 127}, {"time": 63841, "pitch": 71, "duration": 216, "velocity": 127}, {"time": 64081, "pitch": 69, "duration": 432, "velocity": 127}, {"time": 64561, "pitch": 69, "duration": 216, "velocity": 127}, {"time": 64800, "pitch": 71, "duration": 216, "velocity": 127}, {"time": 65040, "pitch": 69, "duration": 216, "velocity": 127}, {"time": 65280, "pitch": 71, "duration": 216, "velocity": 127}, {"time": 65520, "pitch": 73, "duration": 1294, "velocity": 127}, {"time": 66958, "pitch": 69, "duration": 144, "velocity": 127}, {"time": 67118, "pitch": 69, "duration": 72, "velocity": 127}, {"time": 67198, "pitch": 69, "duration": 144, "velocity": 127}, {"time": 67358, "pitch": 69, "duration": 72, "velocity": 127}, {"time": 67438, "pitch": 69, "duration": 144, "velocity": 127}, {"time": 67598, "pitch": 69, "duration": 72, "velocity": 127}, {"time": 67678, "pitch": 71, "duration": 143, "velocity": 127}, {"time": 67837, "pitch": 71, "duration": 72, "velocity": 127}, {"time": 67917, "pitch": 69, "duration": 434, "velocity": 127}, {"time": 68400, "pitch": 73, "duration": 219, "velocity": 127}, {"time": 68643, "pitch": 74, "duration": 216, "velocity": 127}, {"time": 68883, "pitch": 73, "duration": 215, "velocity": 127}, {"time": 69122, "pitch": 69, "duration": 216, "velocity": 127}, {"time": 69362, "pitch": 71, "duration": 216, "velocity": 127}, {"time": 69602, "pitch": 69, "duration": 1079, "velocity": 127}, {"time": 70801, "pitch": 71, "duration": 144, "velocity": 127}, {"time": 70960, "pitch": 69, "duration": 72, "velocity": 127}, {"time": 71040, "pitch": 71, "duration": 144, "velocity": 127}, {"time": 71200, "pitch": 69, "duration": 72, "velocity": 127}, {"time": 71280, "pitch": 71, "duration": 144, "velocity": 127}, {"time": 71440, "pitch": 69, "duration": 72, "velocity": 127}, {"time": 71520, "pitch": 73, "duration": 216, "velocity": 127}, {"time": 71760, "pitch": 71, "duration": 431, "velocity": 127}, {"time": 72239, "pitch": 69, "duration": 216, "velocity": 127}, {"time": 72479, "pitch": 73, "duration": 216, "velocity": 127}, {"time": 72719, "pitch": 73, "duration": 144, "velocity": 127}, {"time": 72879, "pitch": 73, "duration": 215, "velocity": 127}, {"time": 73118, "pitch": 73, "duration": 72, "velocity": 127}, {"time": 73198, "pitch": 71, "duration": 144, "velocity": 127}, {"time": 73358, "pitch": 69, "duration": 719, "velocity": 127}, {"time": 74157, "pitch": 69, "duration": 216, "velocity": 127}, {"time": 74397, "pitch": 74, "duration": 219, "velocity": 127}, {"time": 74640, "pitch": 73, "duration": 218, "velocity": 127}, {"time": 74883, "pitch": 71, "duration": 216, "velocity": 127}, {"time": 75122, "pitch": 69, "duration": 216, "velocity": 127}, {"time": 75362, "pitch": 74, "duration": 216, "velocity": 127}, {"time": 75602, "pitch": 73, "duration": 216, "velocity": 127}, {"time": 75842, "pitch": 71, "duration": 216, "velocity": 127}, {"time": 76082, "pitch": 69, "duration": 215, "velocity": 127}, {"time": 76321, "pitch": 71, "duration": 1079, "velocity": 127}, {"time": 77520, "pitch": 64, "duration": 216, "velocity": 127}, {"time": 77760, "pitch": 69, "duration": 216, "velocity": 127}, {"time": 78000, "pitch": 71, "duration": 215, "velocity": 127}, {"time": 78239, "pitch": 73, "duration": 432, "velocity": 127}, {"time": 78719, "pitch": 73, "duration": 216, "velocity": 127}, {"time": 78959, "pitch": 73, "duration": 215, "velocity": 127}, {"time": 79198, "pitch": 71, "duration": 432, "velocity": 127}, {"time": 79678, "pitch": 76, "duration": 431, "velocity": 127}, {"time": 80157, "pitch": 78, "duration": 216, "velocity": 127}, {"time": 80397, "pitch": 69, "duration": 216, "velocity": 127}, {"time": 80637, "pitch": 69, "duration": 219, "velocity": 127}, {"time": 80880, "pitch": 71, "duration": 218, "velocity": 127}, {"time": 81123, "pitch": 73, "duration": 863, "velocity": 127}, {"time": 82082, "pitch": 69, "duration": 215, "velocity": 127}, {"time": 82321, "pitch": 71, "duration": 144, "velocity": 127}, {"time": 82481, "pitch": 71, "duration": 72, "velocity": 127}, {"time": 82561, "pitch": 73, "duration": 360, "velocity": 127}, {"time": 82961, "pitch": 64, "duration": 72, "velocity": 127}, {"time": 83041, "pitch": 69, "duration": 215, "velocity": 127}, {"time": 83280, "pitch": 71, "duration": 144, "velocity": 127}, {"time": 83440, "pitch": 71, "duration": 72, "velocity": 127}, {"time": 83520, "pitch": 73, "duration": 432, "velocity": 127}, {"time": 84000, "pitch": 74, "duration": 216, "velocity": 127}, {"time": 84240, "pitch": 73, "duration": 215, "velocity": 127}, {"time": 84479, "pitch": 71, "duration": 216, "velocity": 127}, {"time": 84719, "pitch": 69, "duration": 216, "velocity": 127}, {"time": 84959, "pitch": 71, "duration": 863, "velocity": 127}, {"time": 85918, "pitch": 73, "duration": 431, "velocity": 127}, {"time": 86397, "pitch": 73, "duration": 219, "velocity": 127}, {"time": 86640, "pitch": 73, "duration": 219, "velocity": 127}, {"time": 86883, "pitch": 71, "duration": 432, "velocity": 127}, {"time": 87363, "pitch": 76, "duration": 431, "velocity": 127}, {"time": 87842, "pitch": 78, "duration": 216, "velocity": 127}, {"time": 88082, "pitch": 69, "duration": 216, "velocity": 127}, {"time": 88322, "pitch": 69, "duration": 215, "velocity": 127}, {"time": 88561, "pitch": 71, "duration": 216, "velocity": 127}, {"time": 88801, "pitch": 73, "duration": 863, "velocity": 127}, {"time": 89760, "pitch": 69, "duration": 216, "velocity": 127}, {"time": 90000, "pitch": 71, "duration": 144, "velocity": 127}, {"time": 90160, "pitch": 71, "duration": 72, "velocity": 127}, {"time": 90240, "pitch": 73, "duration": 431, "velocity": 127}, {"time": 90719, "pitch": 69, "duration": 216, "velocity": 127}, {"time": 90959, "pitch": 71, "duration": 144, "velocity": 127}, {"time": 91119, "pitch": 71, "duration": 72, "velocity": 127}, {"time": 91199, "pitch": 73, "duration": 431, "velocity": 127}, {"time": 91678, "pitch": 74, "duration": 216, "velocity": 127}, {"time": 91918, "pitch": 69, "duration": 865, "velocity": 127}, {"time": 92880, "pitch": 73, "duration": 146, "velocity": 127}, {"time": 93042, "pitch": 73, "duration": 73, "velocity": 127}, {"time": 93123, "pitch": 71, "duration": 216, "velocity": 127}, {"time": 93363, "pitch": 69, "duration": 144, "velocity": 127}, {"time": 93523, "pitch": 69, "duration": 1762, "velocity": 127}, {"time": 108240, "pitch": 64, "duration": 216, "velocity": 127}, {"time": 108480, "pitch": 69, "duration": 216, "velocity": 127}, {"time": 108720, "pitch": 71, "duration": 215, "velocity": 127}, {"time": 108959, "pitch": 73, "duration": 432, "velocity": 127}, {"time": 109439, "pitch": 73, "duration": 216, "velocity": 127}, {"time": 109679, "pitch": 73, "duration": 215, "velocity": 127}, {"time": 109918, "pitch": 71, "duration": 432, "velocity": 127}, {"time": 110398, "pitch": 76, "duration": 432, "velocity": 127}, {"time": 110877, "pitch": 78, "duration": 216, "velocity": 127}, {"time": 111117, "pitch": 69, "duration": 216, "velocity": 127}, {"time": 111357, "pitch": 69, "duration": 219, "velocity": 127}, {"time": 111600, "pitch": 71, "duration": 218, "velocity": 127}, {"time": 111843, "pitch": 73, "duration": 863, "velocity": 127}, {"time": 112802, "pitch": 69, "duration": 216, "velocity": 127}, {"time": 113041, "pitch": 71, "duration": 144, "velocity": 127}, {"time": 113201, "pitch": 71, "duration": 72, "velocity": 127}, {"time": 113281, "pitch": 73, "duration": 360, "velocity": 127}, {"time": 113681, "pitch": 64, "duration": 72, "velocity": 127}, {"time": 113761, "pitch": 69, "duration": 216, "velocity": 127}, {"time": 114001, "pitch": 71, "duration": 143, "velocity": 127}, {"time": 114160, "pitch": 71, "duration": 72, "velocity": 127}, {"time": 114240, "pitch": 73, "duration": 432, "velocity": 127}, {"time": 114720, "pitch": 74, "duration": 216, "velocity": 127}, {"time": 114960, "pitch": 73, "duration": 215, "velocity": 127}, {"time": 115199, "pitch": 71, "duration": 216, "velocity": 127}, {"time": 115439, "pitch": 69, "duration": 216, "velocity": 127}, {"time": 115679, "pitch": 71, "duration": 863, "velocity": 127}, {"time": 116638, "pitch": 73, "duration": 431, "velocity": 127}, {"time": 117117, "pitch": 73, "duration": 216, "velocity": 127}, {"time": 117357, "pitch": 73, "duration": 216, "velocity": 127}, {"time": 117597, "pitch": 71, "duration": 437, "velocity": 127}, {"time": 118083, "pitch": 76, "duration": 431, "velocity": 127}, {"time": 118562, "pitch": 78, "duration": 216, "velocity": 127}, {"time": 118802, "pitch": 69, "duration": 216, "velocity": 127}, {"time": 119042, "pitch": 69, "duration": 215, "velocity": 127}, {"time": 119281, "pitch": 71, "duration": 216, "velocity": 127}, {"time": 119521, "pitch": 73, "duration": 863, "velocity": 127}, {"time": 120480, "pitch": 69, "duration": 216, "velocity": 127}, {"time": 120720, "pitch": 71, "duration": 144, "velocity": 127}, {"time": 120880, "pitch": 71, "duration": 72, "velocity": 127}, {"time": 120960, "pitch": 73, "duration": 431, "velocity": 127}, {"time": 121439, "pitch": 69, "duration": 216, "velocity": 127}, {"time": 121679, "pitch": 71, "duration": 144, "velocity": 127}, {"time": 121839, "pitch": 71, "duration": 72, "velocity": 127}, {"time": 121919, "pitch": 73, "duration": 431, "velocity": 127}, {"time": 122398, "pitch": 74, "duration": 216, "velocity": 127}, {"time": 122638, "pitch": 69, "duration": 865, "velocity": 127}, {"time": 123600, "pitch": 73, "duration": 146, "velocity": 127}, {"time": 123762, "pitch": 73, "duration": 73, "velocity": 127}, {"time": 123843, "pitch": 71, "duration": 216, "velocity": 127}, {"time": 124083, "pitch": 69, "duration": 144, "velocity": 127}, {"time": 124243, "pitch": 69, "duration": 1762, "velocity": 127}], "annotations": [{"time": 224, "annotation": {"number": 7, "value": 80}, "group": "control_change"}, {"time": 240, "annotation": {"number": 11, "value": 127}, "group": "control_change"}, {"time": 256, "annotation": {"number": 10, "value": 64}, "group": "control_change"}, {"time": 288, "annotation": {"number": 91, "value": 0}, "group": "control_change"}, {"time": 304, "annotation": {"number": 93, "value": 0}, "group": "control_change"}, {"time": 320, "annotation": {"number": 94, "value": 0}, "group": "control_change"}, {"time": 368, "annotation": {"number": 101, "value": 0}, "group": "control_change"}, {"time": 384, "annotation": {"number": 100, "value": 0}, "group": "control_change"}, {"time": 400, "annotation": {"number": 6, "value": 12}, "group": "control_change"}, {"time": 432, "annotation": {"number": 99, "value": 1}, "group": "control_change"}, {"time": 448, "annotation": {"number": 98, "value": 8}, "group": "control_change"}, {"time": 464, "annotation": {"number": 6, "value": 64}, "group": "control_change"}, {"time": 495, "annotation": {"number": 99, "value": 1}, "group": "control_change"}, {"time": 551, "annotation": {"number": 98, "value": 9}, "group": "control_change"}, {"time": 606, "annotation": {"number": 6, "value": 64}, "group": "control_change"}, {"time": 717, "annotation": {"number": 99, "value": 1}, "group": "control_change"}, {"time": 772, "annotation": {"number": 98, "value": 10}, "group": "control_change"}, {"time": 827, "annotation": {"number": 6, "value": 64}, "group": "control_change"}, {"time": 882, "annotation": {"number": 74, "value": 64}, "group": "control_change"}, {"time": 938, "annotation": {"number": 71, "value": 64}, "group": "control_change"}, {"time": 993, "annotation": {"number": 73, "value": 64}, "group": "control_change"}, {"time": 1048, "annotation": {"number": 99, "value": 1}, "group": "control_change"}, {"time": 1103, "annotation": {"number": 98, "value": 100}, "group": "control_change"}, {"time": 1159, "annotation": {"number": 6, "value": 62}, "group": "control_change"}, {"time": 1214, "annotation": {"number": 72, "value": 64}, "group": "control_change"}, {"time": 1269, "annotation": {"number": 101, "value": 127}, "group": "control_change"}, {"time": 1325, "annotation": {"number": 100, "value": 127}, "group": "control_change"}]}, {"program": 0, "is_drum": false, "name": "VIOLIN 1", "annotations": [{"time": 160, "annotation": {"number": 0, "value": 0}, "group": "control_change"}, {"time": 176, "annotation": {"number": 32, "value": 2}, "group": "control_change"}]}, {"program": 48, "is_drum": false, "name": "VIOLIN 1", "notes": [{"time": 32162, "pitch": 81, "duration": 1439, "velocity": 127}, {"time": 33601, "pitch": 80, "duration": 479, "velocity": 127}, {"time": 34080, "pitch": 81, "duration": 959, "velocity": 127}, {"time": 35039, "pitch": 85, "duration": 480, "velocity": 127}, {"time": 35519, "pitch": 83, "duration": 480, "velocity": 127}, {"time": 35999, "pitch": 81, "duration": 479, "velocity": 127}, {"time": 36478, "pitch": 88, "duration": 480, "velocity": 127}, {"time": 36958, "pitch": 87, "duration": 965, "velocity": 127}, {"time": 37923, "pitch": 86, "duration": 959, "velocity": 127}, {"time": 38882, "pitch": 88, "duration": 959, "velocity": 127}, {"time": 39841, "pitch": 81, "duration": 439, "velocity": 127}, {"time": 40320, "pitch": 93, "duration": 480, "velocity": 127}, {"time": 40800, "pitch": 92, "duration": 959, "velocity": 127}, {"time": 41759, "pitch": 90, "duration": 959, "velocity": 127}, {"time": 42718, "pitch": 88, "duration": 479, "velocity": 127}, {"time": 43197, "pitch": 86, "duration": 480, "velocity": 127}, {"time": 43677, "pitch": 85, "duration": 486, "velocity": 127}, {"time": 44163, "pitch": 88, "duration": 479, "velocity": 127}, {"time": 44642, "pitch": 87, "duration": 480, "velocity": 127}, {"time": 45122, "pitch": 83, "duration": 479, "velocity": 127}, {"time": 45601, "pitch": 86, "duration": 959, "velocity": 127}, {"time": 46560, "pitch": 88, "duration": 2877, "velocity": 127}, {"time": 78239, "pitch": 81, "duration": 1439, "velocity": 127}, {"time": 79678, "pitch": 80, "duration": 479, "velocity": 127}, {"time": 80157, "pitch": 81, "duration": 966, "velocity": 127}, {"time": 81123, "pitch": 85, "duration": 479, "velocity": 127}, {"time": 81602, "pitch": 83, "duration": 480, "velocity": 127}, {"time": 82082, "pitch": 81, "duration": 479, "velocity": 127}, {"time": 82561, "pitch": 88, "duration": 480, "velocity": 127}, {"time": 83041, "pitch": 87, "duration": 959, "velocity": 127}, {"time": 84000, "pitch": 86, "duration": 959, "velocity": 127}, {"time": 84959, "pitch": 88, "duration": 959, "velocity": 127}, {"time": 85918, "pitch": 81, "duration": 439, "velocity": 127}, {"time": 86397, "pitch": 93, "duration": 486, "velocity": 127}, {"time": 86883, "pitch": 92, "duration": 959, "velocity": 127}, {"time": 87842, "pitch": 90, "duration": 959, "velocity": 127}, {"time": 88801, "pitch": 88, "duration": 480, "velocity": 127}, {"time": 89281, "pitch": 86, "duration": 479, "velocity": 127}, {"time": 89760, "pitch": 85, "duration": 480, "velocity": 127}, {"time": 90240, "pitch": 88, "duration": 479, "velocity": 127}, {"time": 90719, "pitch": 87, "duration": 480, "velocity": 127}, {"time": 91199, "pitch": 83, "duration": 479, "velocity": 127}, {"time": 91678, "pitch": 86, "duration": 959, "velocity": 127}, {"time": 92637, "pitch": 88, "duration": 965, "velocity": 127}, {"time": 93602, "pitch": 90, "duration": 1919, "velocity": 127}, {"time": 101521, "pitch": 78, "duration": 50, "velocity": 127}, {"time": 102000, "pitch": 78, "duration": 50, "velocity": 127}, {"time": 102480, "pitch": 78, "duration": 50, "velocity": 127}, {"time": 102959, "pitch": 78, "duration": 50, "velocity": 127}, {"time": 103439, "pitch": 78, "duration": 50, "velocity": 127}, {"time": 103918, "pitch": 78, "duration": 50, "velocity": 127}, {"time": 104398, "pitch": 78, "duration": 50, "velocity": 127}, {"time": 104877, "pitch": 78, "duration": 50, "velocity": 127}, {"time": 105360, "pitch": 78, "duration": 51, "velocity": 127}, {"time": 105843, "pitch": 78, "duration": 49, "velocity": 127}, {"time": 106322, "pitch": 78, "duration": 50, "velocity": 127}, {"time": 106802, "pitch": 78, "duration": 50, "velocity": 127}, {"time": 107281, "pitch": 81, "duration": 50, "velocity": 127}, {"time": 107761, "pitch": 81, "duration": 50, "velocity": 127}, {"time": 108240, "pitch": 80, "duration": 50, "velocity": 127}, {"time": 108720, "pitch": 80, "duration": 50, "velocity": 127}, {"time": 108959, "pitch": 81, "duration": 1439, "velocity": 127}, {"time": 110398, "pitch": 80, "duration": 479, "velocity": 127}, {"time": 110877, "pitch": 81, "duration": 966, "velocity": 127}, {"time": 111843, "pitch": 85, "duration": 479, "velocity": 127}, {"time": 112322, "pitch": 83, "duration": 480, "velocity": 127}, {"time": 112802, "pitch": 81, "duration": 479, "velocity": 127}, {"time": 113281, "pitch": 88, "duration": 480, "velocity": 127}, {"time": 113761, "pitch": 87, "duration": 959, "velocity": 127}, {"time": 114720, "pitch": 86, "duration": 959, "velocity": 127}, {"time": 115679, "pitch": 88, "duration": 959, "velocity": 127}, {"time": 116638, "pitch": 81, "duration": 439, "velocity": 127}, {"time": 117117, "pitch": 93, "duration": 480, "velocity": 127}, {"time": 117597, "pitch": 92, "duration": 965, "velocity": 127}, {"time": 118562, "pitch": 90, "duration": 959, "velocity": 127}, {"time": 119521, "pitch": 88, "duration": 480, "velocity": 127}, {"time": 120001, "pitch": 86, "duration": 479, "velocity": 127}, {"time": 120480, "pitch": 85, "duration": 480, "velocity": 127}, {"time": 120960, "pitch": 88, "duration": 479, "velocity": 127}, {"time": 121439, "pitch": 87, "duration": 480, "velocity": 127}, {"time": 121919, "pitch": 83, "duration": 479, "velocity": 127}, {"time": 122398, "pitch": 86, "duration": 959, "velocity": 127}, {"time": 123357, "pitch": 88, "duration": 2884, "velocity": 127}], "annotations": [{"time": 224, "annotation": {"number": 7, "value": 46}, "group": "control_change"}, {"time": 240, "annotation": {"number": 11, "value": 127}, "group": "control_change"}, {"time": 256, "annotation": {"number": 10, "value": 4}, "group": "control_change"}, {"time": 288, "annotation": {"number": 91, "value": 120}, "group": "control_change"}, {"time": 304, "annotation": {"number": 93, "value": 0}, "group": "control_change"}, {"time": 320, "annotation": {"number": 94, "value": 0}, "group": "control_change"}, {"time": 368, "annotation": {"number": 101, "value": 0}, "group": "control_change"}, {"time": 384, "annotation": {"number": 100, "value": 0}, "group": "control_change"}, {"time": 400, "annotation": {"number": 6, "value": 12}, "group": "control_change"}, {"time": 432, "annotation": {"number": 99, "value": 1}, "group": "control_change"}, {"time": 448, "annotation": {"number": 98, "value": 8}, "group": "control_change"}, {"time": 464, "annotation": {"number": 6, "value": 64}, "group": "control_change"}, {"time": 495, "annotation": {"number": 99, "value": 1}, "group": "control_change"}, {"time": 551, "annotation": {"number": 98, "value": 9}, "group": "control_change"}, {"time": 606, "annotation": {"number": 6, "value": 64}, "group": "control_change"}, {"time": 717, "annotation": {"number": 99, "value": 1}, "group": "control_change"}, {"time": 772, "annotation": {"number": 98, "value": 10}, "group": "control_change"}, {"time": 827, "annotation": {"number": 6, "value": 64}, "group": "control_change"}, {"time": 882, "annotation": {"number": 74, "value": 64}, "group": "control_change"}, {"time": 938, "annotation": {"number": 71, "value": 64}, "group": "control_change"}, {"time": 993, "annotation": {"number": 73, "value": 64}, "group": "control_change"}, {"time": 1048, "annotation": {"number": 99, "value": 1}, "group": "control_change"}, {"time": 1103, "annotation": {"number": 98, "value": 100}, "group": "control_change"}, {"time": 1159, "annotation": {"number": 6, "value": 62}, "group": "control_change"}, {"time": 1214, "annotation": {"number": 72, "value": 64}, "group": "control_change"}, {"time": 1269, "annotation": {"number": 101, "value": 127}, "group": "control_change"}, {"time": 1325, "annotation": {"number": 100, "value": 127}, "group": "control_change"}, {"time": 48478, "annotation": {"number": 11, "value": 127}, "group": "control_change"}, {"time": 48493, "annotation": {"number": 11, "value": 125}, "group": "control_change"}, {"time": 48509, "annotation": {"number": 11, "value": 122}, "group": "control_change"}, {"time": 48525, "annotation": {"number": 11, "value": 120}, "group": "control_change"}, {"time": 48541, "annotation": {"number": 11, "value": 118}, "group": "control_change"}, {"time": 48556, "annotation": {"number": 11, "value": 116}, "group": "control_change"}, {"time": 48572, "annotation": {"number": 11, "value": 114}, "group": "control_change"}, {"time": 48588, "annotation": {"number": 11, "value": 112}, "group": "control_change"}, {"time": 48604, "annotation": {"number": 11, "value": 110}, "group": "control_change"}, {"time": 48619, "annotation": {"number": 11, "value": 108}, "group": "control_change"}, {"time": 48635, "annotation": {"number": 11, "value": 106}, "group": "control_change"}, {"time": 48651, "annotation": {"number": 11, "value": 104}, "group": "control_change"}, {"time": 48667, "annotation": {"number": 11, "value": 102}, "group": "control_change"}, {"time": 48682, "annotation": {"number": 11, "value": 100}, "group": "control_change"}, {"time": 48698, "annotation": {"number": 11, "value": 97}, "group": "control_change"}, {"time": 48714, "annotation": {"number": 11, "value": 95}, "group": "control_change"}, {"time": 48729, "annotation": {"number": 11, "value": 93}, "group": "control_change"}, {"time": 48745, "annotation": {"number": 11, "value": 91}, "group": "control_change"}, {"time": 48761, "annotation": {"number": 11, "value": 89}, "group": "control_change"}, {"time": 48777, "annotation": {"number": 11, "value": 87}, "group": "control_change"}, {"time": 48792, "annotation": {"number": 11, "value": 85}, "group": "control_change"}, {"time": 48808, "annotation": {"number": 11, "value": 83}, "group": "control_change"}, {"time": 48824, "annotation": {"number": 11, "value": 81}, "group": "control_change"}, {"time": 48840, "annotation": {"number": 11, "value": 79}, "group": "control_change"}, {"time": 48855, "annotation": {"number": 11, "value": 77}, "group": "control_change"}, {"time": 48871, "annotation": {"number": 11, "value": 75}, "group": "control_change"}, {"time": 48887, "annotation": {"number": 11, "value": 73}, "group": "control_change"}, {"time": 48903, "annotation": {"number": 11, "value": 70}, "group": "control_change"}, {"time": 48918, "annotation": {"number": 11, "value": 68}, "group": "control_change"}, {"time": 48934, "annotation": {"number": 11, "value": 66}, "group": "control_change"}, {"time": 48950, "annotation": {"number": 11, "value": 64}, "group": "control_change"}, {"time": 48965, "annotation": {"number": 11, "value": 62}, "group": "control_change"}, {"time": 48981, "annotation": {"number": 11, "value": 60}, "group": "control_change"}, {"time": 48997, "annotation": {"number": 11, "value": 58}, "group": "control_change"}, {"time": 49013, "annotation": {"number": 11, "value": 56}, "group": "control_change"}, {"time": 49028, "annotation": {"number": 11, "value": 54}, "group": "control_change"}, {"time": 49044, "annotation": {"number": 11, "value": 52}, "group": "control_change"}, {"time": 49060, "annotation": {"number": 11, "value": 50}, "group": "control_change"}, {"time": 49076, "annotation": {"number": 11, "value": 48}, "group": "control_change"}, {"time": 49091, "annotation": {"number": 11, "value": 46}, "group": "control_change"}, {"time": 49107, "annotation": {"number": 11, "value": 44}, "group": "control_change"}, {"time": 49123, "annotation": {"number": 11, "value": 41}, "group": "control_change"}, {"time": 49139, "annotation": {"number": 11, "value": 39}, "group": "control_change"}, {"time": 49154, "annotation": {"number": 11, "value": 37}, "group": "control_change"}, {"time": 49170, "annotation": {"number": 11, "value": 35}, "group": "control_change"}, {"time": 49186, "annotation": {"number": 11, "value": 33}, "group": "control_change"}, {"time": 49201, "annotation": {"number": 11, "value": 31}, "group": "control_change"}, {"time": 49217, "annotation": {"number": 11, "value": 29}, "group": "control_change"}, {"time": 49233, "annotation": {"number": 11, "value": 27}, "group": "control_change"}, {"time": 49249, "annotation": {"number": 11, "value": 25}, "group": "control_change"}, {"time": 49264, "annotation": {"number": 11, "value": 23}, "group": "control_change"}, {"time": 49280, "annotation": {"number": 11, "value": 21}, "group": "control_change"}, {"time": 49296, "annotation": {"number": 11, "value": 19}, "group": "control_change"}, {"time": 49312, "annotation": {"number": 11, "value": 17}, "group": "control_change"}, {"time": 49327, "annotation": {"number": 11, "value": 15}, "group": "control_change"}, {"time": 49342, "annotation": {"number": 11, "value": 12}, "group": "control_change"}, {"time": 49358, "annotation": {"number": 11, "value": 10}, "group": "control_change"}, {"time": 49374, "annotation": {"number": 11, "value": 8}, "group": "control_change"}, {"time": 49389, "annotation": {"number": 11, "value": 6}, "group": "control_change"}, {"time": 49405, "annotation": {"number": 11, "value": 4}, "group": "control_change"}, {"time": 49421, "annotation": {"number": 11, "value": 2}, "group": "control_change"}, {"time": 49436, "annotation": {"number": 11, "value": 0}, "group": "control_change"}, {"time": 78239, "annotation": {"number": 11, "value": 127}, "group": "control_change"}, {"time": 94562, "annotation": {"number": 11, "value": 127}, "group": "control_change"}, {"time": 94576, "annotation": {"number": 11, "value": 125}, "group": "control_change"}, {"time": 94592, "annotation": {"number": 11, "value": 122}, "group": "control_change"}, {"time": 94608, "annotation": {"number": 11, "value": 120}, "group": "control_change"}, {"time": 94624, "annotation": {"number": 11, "value": 118}, "group": "control_change"}, {"time": 94639, "annotation": {"number": 11, "value": 116}, "group": "control_change"}, {"time": 94655, "annotation": {"number": 11, "value": 114}, "group": "control_change"}, {"time": 94671, "annotation": {"number": 11, "value": 112}, "group": "control_change"}, {"time": 94687, "annotation": {"number": 11, "value": 110}, "group": "control_change"}, {"time": 94702, "annotation": {"number": 11, "value": 108}, "group": "control_change"}, {"time": 94718, "annotation": {"number": 11, "value": 106}, "group": "control_change"}, {"time": 94734, "annotation": {"number": 11, "value": 104}, "group": "control_change"}, {"time": 94750, "annotation": {"number": 11, "value": 102}, "group": "control_change"}, {"time": 94765, "annotation": {"number": 11, "value": 100}, "group": "control_change"}, {"time": 94781, "annotation": {"number": 11, "value": 97}, "group": "control_change"}, {"time": 94797, "annotation": {"number": 11, "value": 95}, "group": "control_change"}, {"time": 94812, "annotation": {"number": 11, "value": 93}, "group": "control_change"}, {"time": 94828, "annotation": {"number": 11, "value": 91}, "group": "control_change"}, {"time": 94844, "annotation": {"number": 11, "value": 89}, "group": "control_change"}, {"time": 94860, "annotation": {"number": 11, "value": 87}, "group": "control_change"}, {"time": 94875, "annotation": {"number": 11, "value": 85}, "group": "control_change"}, {"time": 94891, "annotation": {"number": 11, "value": 83}, "group": "control_change"}, {"time": 94907, "annotation": {"number": 11, "value": 81}, "group": "control_change"}, {"time": 94923, "annotation": {"number": 11, "value": 79}, "group": "control_change"}, {"time": 94938, "annotation": {"number": 11, "value": 77}, "group": "control_change"}, {"time": 94954, "annotation": {"number": 11, "value": 75}, "group": "control_change"}, {"time": 94970, "annotation": {"number": 11, "value": 73}, "group": "control_change"}, {"time": 94986, "annotation": {"number": 11, "value": 70}, "group": "control_change"}, {"time": 95001, "annotation": {"number": 11, "value": 68}, "group": "control_change"}, {"time": 95017, "annotation": {"number": 11, "value": 66}, "group": "control_change"}, {"time": 95033, "annotation": {"number": 11, "value": 64}, "group": "control_change"}, {"time": 95048, "annotation": {"number": 11, "value": 62}, "group": "control_change"}, {"time": 95064, "annotation": {"number": 11, "value": 60}, "group": "control_change"}, {"time": 95080, "annotation": {"number": 11, "value": 58}, "group": "control_change"}, {"time": 95096, "annotation": {"number": 11, "value": 56}, "group": "control_change"}, {"time": 95111, "annotation": {"number": 11, "value": 54}, "group": "control_change"}, {"time": 95127, "annotation": {"number": 11, "value": 52}, "group": "control_change"}, {"time": 95143, "annotation": {"number": 11, "value": 50}, "group": "control_change"}, {"time": 95159, "annotation": {"number": 11, "value": 48}, "group": "control_change"}, {"time": 95174, "annotation": {"number": 11, "value": 46}, "group": "control_change"}, {"time": 95190, "annotation": {"number": 11, "value": 44}, "group": "control_change"}, {"time": 95206, "annotation": {"number": 11, "value": 41}, "group": "control_change"}, {"time": 95222, "annotation": {"number": 11, "value": 39}, "group": "control_change"}, {"time": 95237, "annotation": {"number": 11, "value": 37}, "group": "control_change"}, {"time": 95253, "annotation": {"number": 11, "value": 35}, "group": "control_change"}, {"time": 95269, "annotation": {"number": 11, "value": 33}, "group": "control_change"}, {"time": 95284, "annotation": {"number": 11, "value": 31}, "group": "control_change"}, {"time": 95300, "annotation": {"number": 11, "value": 29}, "group": "control_change"}, {"time": 95316, "annotation": {"number": 11, "value": 27}, "group": "control_change"}, {"time": 95332, "annotation": {"number": 11, "value": 25}, "group": "control_change"}, {"time": 95347, "annotation": {"number": 11, "value": 23}, "group": "control_change"}, {"time": 95363, "annotation": {"number": 11, "value": 21}, "group": "control_change"}, {"time": 95379, "annotation": {"number": 11, "value": 19}, "group": "control_change"}, {"time": 95395, "annotation": {"number": 11, "value": 17}, "group": "control_change"}, {"time": 95410, "annotation": {"number": 11, "value": 15}, "group": "control_change"}, {"time": 95426, "annotation": {"number": 11, "value": 12}, "group": "control_change"}, {"time": 95442, "annotation": {"number": 11, "value": 10}, "group": "control_change"}, {"time": 95458, "annotation": {"number": 11, "value": 8}, "group": "control_change"}, {"time": 95473, "annotation": {"number": 11, "value": 6}, "group": "control_change"}, {"time": 95489, "annotation": {"number": 11, "value": 4}, "group": "control_change"}, {"time": 95505, "annotation": {"number": 11, "value": 2}, "group": "control_change"}, {"time": 95520, "annotation": {"number": 11, "value": 0}, "group": "control_change"}, {"time": 101281, "annotation": {"number": 11, "value": 127}, "group": "control_change"}, {"time": 125282, "annotation": {"number": 11, "value": 127}, "group": "control_change"}, {"time": 125297, "annotation": {"number": 11, "value": 125}, "group": "control_change"}, {"time": 125313, "annotation": {"number": 11, "value": 122}, "group": "control_change"}, {"time": 125329, "annotation": {"number": 11, "value": 120}, "group": "control_change"}, {"time": 125344, "annotation": {"number": 11, "value": 118}, "group": "control_change"}, {"time": 125359, "annotation": {"number": 11, "value": 116}, "group": "control_change"}, {"time": 125375, "annotation": {"number": 11, "value": 114}, "group": "control_change"}, {"time": 125391, "annotation": {"number": 11, "value": 112}, "group": "control_change"}, {"time": 125407, "annotation": {"number": 11, "value": 110}, "group": "control_change"}, {"time": 125422, "annotation": {"number": 11, "value": 108}, "group": "control_change"}, {"time": 125438, "annotation": {"number": 11, "value": 106}, "group": "control_change"}, {"time": 125454, "annotation": {"number": 11, "value": 104}, "group": "control_change"}, {"time": 125470, "annotation": {"number": 11, "value": 102}, "group": "control_change"}, {"time": 125485, "annotation": {"number": 11, "value": 100}, "group": "control_change"}, {"time": 125501, "annotation": {"number": 11, "value": 97}, "group": "control_change"}, {"time": 125517, "annotation": {"number": 11, "value": 95}, "group": "control_change"}, {"time": 125532, "annotation": {"number": 11, "value": 93}, "group": "control_change"}, {"time": 125548, "annotation": {"number": 11, "value": 91}, "group": "control_change"}, {"time": 125564, "annotation": {"number": 11, "value": 89}, "group": "control_change"}, {"time": 125580, "annotation": {"number": 11, "value": 87}, "group": "control_change"}, {"time": 125595, "annotation": {"number": 11, "value": 85}, "group": "control_change"}, {"time": 125611, "annotation": {"number": 11, "value": 83}, "group": "control_change"}, {"time": 125627, "annotation": {"number": 11, "value": 81}, "group": "control_change"}, {"time": 125643, "annotation": {"number": 11, "value": 79}, "group": "control_change"}, {"time": 125658, "annotation": {"number": 11, "value": 77}, "group": "control_change"}, {"time": 125674, "annotation": {"number": 11, "value": 75}, "group": "control_change"}, {"time": 125690, "annotation": {"number": 11, "value": 73}, "group": "control_change"}, {"time": 125706, "annotation": {"number": 11, "value": 70}, "group": "control_change"}, {"time": 125721, "annotation": {"number": 11, "value": 68}, "group": "control_change"}, {"time": 125737, "annotation": {"number": 11, "value": 66}, "group": "control_change"}, {"time": 125753, "annotation": {"number": 11, "value": 64}, "group": "control_change"}, {"time": 125768, "annotation": {"number": 11, "value": 62}, "group": "control_change"}, {"time": 125784, "annotation": {"number": 11, "value": 60}, "group": "control_change"}, {"time": 125800, "annotation": {"number": 11, "value": 58}, "group": "control_change"}, {"time": 125816, "annotation": {"number": 11, "value": 56}, "group": "control_change"}, {"time": 125831, "annotation": {"number": 11, "value": 54}, "group": "control_change"}, {"time": 125847, "annotation": {"number": 11, "value": 52}, "group": "control_change"}, {"time": 125863, "annotation": {"number": 11, "value": 50}, "group": "control_change"}, {"time": 125879, "annotation": {"number": 11, "value": 48}, "group": "control_change"}, {"time": 125894, "annotation": {"number": 11, "value": 46}, "group": "control_change"}, {"time": 125910, "annotation": {"number": 11, "value": 44}, "group": "control_change"}, {"time": 125926, "annotation": {"number": 11, "value": 41}, "group": "control_change"}, {"time": 125942, "annotation": {"number": 11, "value": 39}, "group": "control_change"}, {"time": 125957, "annotation": {"number": 11, "value": 37}, "group": "control_change"}, {"time": 125973, "annotation": {"number": 11, "value": 35}, "group": "control_change"}, {"time": 125989, "annotation": {"number": 11, "value": 33}, "group": "control_change"}, {"time": 126004, "annotation": {"number": 11, "value": 31}, "group": "control_change"}, {"time": 126020, "annotation": {"number": 11, "value": 29}, "group": "control_change"}, {"time": 126036, "annotation": {"number": 11, "value": 27}, "group": "control_change"}, {"time": 126052, "annotation": {"number": 11, "value": 25}, "group": "control_change"}, {"time": 126067, "annotation": {"number": 11, "value": 23}, "group": "control_change"}, {"time": 126083, "annotation": {"number": 11, "value": 21}, "group": "control_change"}, {"time": 126099, "annotation": {"number": 11, "value": 19}, "group": "control_change"}, {"time": 126115, "annotation": {"number": 11, "value": 17}, "group": "control_change"}, {"time": 126130, "annotation": {"number": 11, "value": 15}, "group": "control_change"}, {"time": 126146, "annotation": {"number": 11, "value": 12}, "group": "control_change"}, {"time": 126162, "annotation": {"number": 11, "value": 10}, "group": "control_change"}, {"time": 126178, "annotation": {"number": 11, "value": 8}, "group": "control_change"}, {"time": 126193, "annotation": {"number": 11, "value": 6}, "group": "control_change"}, {"time": 126209, "annotation": {"number": 11, "value": 4}, "group": "control_change"}, {"time": 126225, "annotation": {"number": 11, "value": 2}, "group": "control_change"}, {"time": 126240, "annotation": {"number": 11, "value": 0}, "group": "control_change"}]}, {"program": 0, "is_drum": false, "name": "VIOLIN 2", "annotations": [{"time": 160, "annotation": {"number": 0, "value": 0}, "group": "control_change"}, {"time": 176, "annotation": {"number": 32, "value": 2}, "group": "control_change"}]}, {"program": 48, "is_drum": false, "name": "VIOLIN 2", "notes": [{"time": 32162, "pitch": 73, "duration": 959, "velocity": 127}, {"time": 33121, "pitch": 71, "duration": 959, "velocity": 127}, {"time": 34080, "pitch": 69, "duration": 480, "velocity": 127}, {"time": 34560, "pitch": 74, "duration": 479, "velocity": 127}, {"time": 35039, "pitch": 73, "duration": 480, "velocity": 127}, {"time": 35519, "pitch": 71, "duration": 480, "velocity": 127}, {"time": 35999, "pitch": 69, "duration": 959, "velocity": 127}, {"time": 36958, "pitch": 81, "duration": 479, "velocity": 127}, {"time": 37437, "pitch": 80, "duration": 486, "velocity": 127}, {"time": 37923, "pitch": 78, "duration": 1438, "velocity": 127}, {"time": 39361, "pitch": 76, "duration": 480, "velocity": 127}, {"time": 39841, "pitch": 73, "duration": 280, "velocity": 127}, {"time": 40081, "pitch": 69, "duration": 40, "velocity": 127}, {"time": 40320, "pitch": 73, "duration": 280, "velocity": 127}, {"time": 40560, "pitch": 69, "duration": 40, "velocity": 127}, {"time": 40800, "pitch": 73, "duration": 280, "velocity": 127}, {"time": 41040, "pitch": 69, "duration": 40, "velocity": 127}, {"time": 41279, "pitch": 73, "duration": 280, "velocity": 127}, {"time": 41519, "pitch": 69, "duration": 40, "velocity": 127}, {"time": 41759, "pitch": 73, "duration": 280, "velocity": 127}, {"time": 41999, "pitch": 69, "duration": 40, "velocity": 127}, {"time": 42238, "pitch": 73, "duration": 240, "velocity": 127}, {"time": 42478, "pitch": 69, "duration": 40, "velocity": 127}, {"time": 42718, "pitch": 73, "duration": 280, "velocity": 127}, {"time": 42958, "pitch": 69, "duration": 40, "velocity": 127}, {"time": 43197, "pitch": 71, "duration": 200, "velocity": 127}, {"time": 43437, "pitch": 68, "duration": 40, "velocity": 127}, {"time": 43677, "pitch": 69, "duration": 486, "velocity": 127}, {"time": 44163, "pitch": 73, "duration": 479, "velocity": 127}, {"time": 44642, "pitch": 71, "duration": 959, "velocity": 127}, {"time": 45601, "pitch": 69, "duration": 480, "velocity": 127}, {"time": 46081, "pitch": 74, "duration": 240, "velocity": 127}, {"time": 46321, "pitch": 74, "duration": 719, "velocity": 127}, {"time": 47040, "pitch": 71, "duration": 479, "velocity": 127}, {"time": 47519, "pitch": 73, "duration": 1918, "velocity": 127}, {"time": 78239, "pitch": 73, "duration": 959, "velocity": 127}, {"time": 79198, "pitch": 71, "duration": 959, "velocity": 127}, {"time": 80157, "pitch": 69, "duration": 480, "velocity": 127}, {"time": 80637, "pitch": 74, "duration": 486, "velocity": 127}, {"time": 81123, "pitch": 73, "duration": 479, "velocity": 127}, {"time": 81602, "pitch": 71, "duration": 480, "velocity": 127}, {"time": 82082, "pitch": 69, "duration": 959, "velocity": 127}, {"time": 83041, "pitch": 81, "duration": 479, "velocity": 127}, {"time": 83520, "pitch": 80, "duration": 480, "velocity": 127}, {"time": 84000, "pitch": 78, "duration": 1438, "velocity": 127}, {"time": 85438, "pitch": 76, "duration": 480, "velocity": 127}, {"time": 85918, "pitch": 73, "duration": 280, "velocity": 127}, {"time": 86158, "pitch": 69, "duration": 40, "velocity": 127}, {"time": 86397, "pitch": 73, "duration": 284, "velocity": 127}, {"time": 86640, "pitch": 69, "duration": 41, "velocity": 127}, {"time": 86883, "pitch": 73, "duration": 280, "velocity": 127}, {"time": 87123, "pitch": 69, "duration": 40, "velocity": 127}, {"time": 87363, "pitch": 73, "duration": 279, "velocity": 127}, {"time": 87602, "pitch": 69, "duration": 40, "velocity": 127}, {"time": 87842, "pitch": 73, "duration": 280, "velocity": 127}, {"time": 88082, "pitch": 69, "duration": 40, "velocity": 127}, {"time": 88322, "pitch": 73, "duration": 239, "velocity": 127}, {"time": 88561, "pitch": 69, "duration": 40, "velocity": 127}, {"time": 88801, "pitch": 73, "duration": 280, "velocity": 127}, {"time": 89041, "pitch": 69, "duration": 40, "velocity": 127}, {"time": 89281, "pitch": 71, "duration": 199, "velocity": 127}, {"time": 89520, "pitch": 68, "duration": 40, "velocity": 127}, {"time": 89760, "pitch": 69, "duration": 480, "velocity": 127}, {"time": 90240, "pitch": 73, "duration": 479, "velocity": 127}, {"time": 90719, "pitch": 71, "duration": 959, "velocity": 127}, {"time": 91678, "pitch": 69, "duration": 480, "velocity": 127}, {"time": 92158, "pitch": 74, "duration": 240, "velocity": 127}, {"time": 92398, "pitch": 74, "duration": 725, "velocity": 127}, {"time": 93123, "pitch": 71, "duration": 479, "velocity": 127}, {"time": 93602, "pitch": 69, "duration": 1919, "velocity": 127}, {"time": 101521, "pitch": 69, "duration": 50, "velocity": 127}, {"time": 102000, "pitch": 69, "duration": 50, "velocity": 127}, {"time": 102480, "pitch": 69, "duration": 50, "velocity": 127}, {"time": 102959, "pitch": 69, "duration": 50, "velocity": 127}, {"time": 103439, "pitch": 69, "duration": 50, "velocity": 127}, {"time": 103918, "pitch": 69, "duration": 50, "velocity": 127}, {"time": 104398, "pitch": 69, "duration": 50, "velocity": 127}, {"time": 104877, "pitch": 69, "duration": 50, "velocity": 127}, {"time": 105360, "pitch": 69, "duration": 51, "velocity": 127}, {"time": 105843, "pitch": 69, "duration": 49, "velocity": 127}, {"time": 106322, "pitch": 69, "duration": 50, "velocity": 127}, {"time": 106802, "pitch": 69, "duration": 50, "velocity": 127}, {"time": 107281, "pitch": 69, "duration": 50, "velocity": 127}, {"time": 107761, "pitch": 69, "duration": 50, "velocity": 127}, {"time": 108240, "pitch": 71, "duration": 50, "velocity": 127}, {"time": 108720, "pitch": 71, "duration": 50, "velocity": 127}, {"time": 108959, "pitch": 73, "duration": 959, "velocity": 127}, {"time": 109918, "pitch": 71, "duration": 959, "velocity": 127}, {"time": 110877, "pitch": 69, "duration": 480, "velocity": 127}, {"time": 111357, "pitch": 74, "duration": 486, "velocity": 127}, {"time": 111843, "pitch": 73, "duration": 479, "velocity": 127}, {"time": 112322, "pitch": 71, "duration": 480, "velocity": 127}, {"time": 112802, "pitch": 69, "duration": 959, "velocity": 127}, {"time": 113761, "pitch": 81, "duration": 479, "velocity": 127}, {"time": 114240, "pitch": 80, "duration": 480, "velocity": 127}, {"time": 114720, "pitch": 78, "duration": 1438, "velocity": 127}, {"time": 116158, "pitch": 76, "duration": 480, "velocity": 127}, {"time": 116638, "pitch": 73, "duration": 280, "velocity": 127}, {"time": 116878, "pitch": 69, "duration": 40, "velocity": 127}, {"time": 117117, "pitch": 73, "duration": 280, "velocity": 127}, {"time": 117357, "pitch": 69, "duration": 40, "velocity": 127}, {"time": 117597, "pitch": 73, "duration": 283, "velocity": 127}, {"time": 117840, "pitch": 69, "duration": 40, "velocity": 127}, {"time": 118083, "pitch": 73, "duration": 279, "velocity": 127}, {"time": 118322, "pitch": 69, "duration": 40, "velocity": 127}, {"time": 118562, "pitch": 73, "duration": 280, "velocity": 127}, {"time": 118802, "pitch": 69, "duration": 40, "velocity": 127}, {"time": 119042, "pitch": 73, "duration": 239, "velocity": 127}, {"time": 119281, "pitch": 69, "duration": 40, "velocity": 127}, {"time": 119521, "pitch": 73, "duration": 280, "velocity": 127}, {"time": 119761, "pitch": 69, "duration": 40, "velocity": 127}, {"time": 120001, "pitch": 71, "duration": 199, "velocity": 127}, {"time": 120240, "pitch": 68, "duration": 40, "velocity": 127}, {"time": 120480, "pitch": 69, "duration": 480, "velocity": 127}, {"time": 120960, "pitch": 73, "duration": 479, "velocity": 127}, {"time": 121439, "pitch": 71, "duration": 959, "velocity": 127}, {"time": 122398, "pitch": 69, "duration": 480, "velocity": 127}, {"time": 122878, "pitch": 74, "duration": 240, "velocity": 127}, {"time": 123118, "pitch": 74, "duration": 725, "velocity": 127}, {"time": 123843, "pitch": 71, "duration": 480, "velocity": 127}, {"time": 124323, "pitch": 73, "duration": 1918, "velocity": 127}], "annotations": [{"time": 224, "annotation": {"number": 7, "value": 63}, "group": "control_change"}, {"time": 240, "annotation": {"number": 11, "value": 127}, "group": "control_change"}, {"time": 256, "annotation": {"number": 10, "value": 124}, "group": "control_change"}, {"time": 288, "annotation": {"number": 91, "value": 80}, "group": "control_change"}, {"time": 304, "annotation": {"number": 93, "value": 0}, "group": "control_change"}, {"time": 320, "annotation": {"number": 94, "value": 0}, "group": "control_change"}, {"time": 368, "annotation": {"number": 101, "value": 0}, "group": "control_change"}, {"time": 384, "annotation": {"number": 100, "value": 0}, "group": "control_change"}, {"time": 400, "annotation": {"number": 6, "value": 12}, "group": "control_change"}, {"time": 432, "annotation": {"number": 99, "value": 1}, "group": "control_change"}, {"time": 448, "annotation": {"number": 98, "value": 8}, "group": "control_change"}, {"time": 464, "annotation": {"number": 6, "value": 64}, "group": "control_change"}, {"time": 495, "annotation": {"number": 99, "value": 1}, "group": "control_change"}, {"time": 551, "annotation": {"number": 98, "value": 9}, "group": "control_change"}, {"time": 606, "annotation": {"number": 6, "value": 64}, "group": "control_change"}, {"time": 717, "annotation": {"number": 99, "value": 1}, "group": "control_change"}, {"time": 772, "annotation": {"number": 98, "value": 10}, "group": "control_change"}, {"time": 827, "annotation": {"number": 6, "value": 64}, "group": "control_change"}, {"time": 882, "annotation": {"number": 74, "value": 64}, "group": "control_change"}, {"time": 938, "annotation": {"number": 71, "value": 64}, "group": "control_change"}, {"time": 993, "annotation": {"number": 73, "value": 64}, "group": "control_change"}, {"time": 1048, "annotation": {"number": 99, "value": 1}, "group": "control_change"}, {"time": 1103, "annotation": {"number": 98, "value": 100}, "group": "control_change"}, {"time": 1159, "annotation": {"number": 6, "value": 62}, "group": "control_change"}, {"time": 1214, "annotation": {"number": 72, "value": 64}, "group": "control_change"}, {"time": 1269, "annotation": {"number": 101, "value": 127}, "group": "control_change"}, {"time": 1325, "annotation": {"number": 100, "value": 127}, "group": "control_change"}, {"time": 48478, "annotation": {"number": 11, "value": 127}, "group": "control_change"}, {"time": 48493, "annotation": {"number": 11, "value": 125}, "group": "control_change"}, {"time": 48509, "annotation": {"number": 11, "value": 122}, "group": "control_change"}, {"time": 48525, "annotation": {"number": 11, "value": 120}, "group": "control_change"}, {"time": 48541, "annotation": {"number": 11, "value": 118}, "group": "control_change"}, {"time": 48556, "annotation": {"number": 11, "value": 116}, "group": "control_change"}, {"time": 48572, "annotation": {"number": 11, "value": 114}, "group": "control_change"}, {"time": 48588, "annotation": {"number": 11, "value": 112}, "group": "control_change"}, {"time": 48604, "annotation": {"number": 11, "value": 110}, "group": "control_change"}, {"time": 48619, "annotation": {"number": 11, "value": 108}, "group": "control_change"}, {"time": 48635, "annotation": {"number": 11, "value": 106}, "group": "control_change"}, {"time": 48651, "annotation": {"number": 11, "value": 104}, "group": "control_change"}, {"time": 48667, "annotation": {"number": 11, "value": 102}, "group": "control_change"}, {"time": 48682, "annotation": {"number": 11, "value": 100}, "group": "control_change"}, {"time": 48698, "annotation": {"number": 11, "value": 97}, "group": "control_change"}, {"time": 48714, "annotation": {"number": 11, "value": 95}, "group": "control_change"}, {"time": 48729, "annotation": {"number": 11, "value": 93}, "group": "control_change"}, {"time": 48745, "annotation": {"number": 11, "value": 91}, "group": "control_change"}, {"time": 48761, "annotation": {"number": 11, "value": 89}, "group": "control_change"}, {"time": 48777, "annotation": {"number": 11, "value": 87}, "group": "control_change"}, {"time": 48792, "annotation": {"number": 11, "value": 85}, "group": "control_change"}, {"time": 48808, "annotation": {"number": 11, "value": 83}, "group": "control_change"}, {"time": 48824, "annotation": {"number": 11, "value": 81}, "group": "control_change"}, {"time": 48840, "annotation": {"number": 11, "value": 79}, "group": "control_change"}, {"time": 48855, "annotation": {"number": 11, "value": 77}, "group": "control_change"}, {"time": 48871, "annotation": {"number": 11, "value": 75}, "group": "control_change"}, {"time": 48887, "annotation": {"number": 11, "value": 73}, "group": "control_change"}, {"time": 48903, "annotation": {"number": 11, "value": 70}, "group": "control_change"}, {"time": 48918, "annotation": {"number": 11, "value": 68}, "group": "control_change"}, {"time": 48934, "annotation": {"number": 11, "value": 66}, "group": "control_change"}, {"time": 48950, "annotation": {"number": 11, "value": 64}, "group": "control_change"}, {"time": 48965, "annotation": {"number": 11, "value": 62}, "group": "control_change"}, {"time": 48981, "annotation": {"number": 11, "value": 60}, "group": "control_change"}, {"time": 48997, "annotation": {"number": 11, "value": 58}, "group": "control_change"}, {"time": 49013, "annotation": {"number": 11, "value": 56}, "group": "control_change"}, {"time": 49028, "annotation": {"number": 11, "value": 54}, "group": "control_change"}, {"time": 49044, "annotation": {"number": 11, "value": 52}, "group": "control_change"}, {"time": 49060, "annotation": {"number": 11, "value": 50}, "group": "control_change"}, {"time": 49076, "annotation": {"number": 11, "value": 48}, "group": "control_change"}, {"time": 49091, "annotation": {"number": 11, "value": 46}, "group": "control_change"}, {"time": 49107, "annotation": {"number": 11, "value": 44}, "group": "control_change"}, {"time": 49123, "annotation": {"number": 11, "value": 41}, "group": "control_change"}, {"time": 49139, "annotation": {"number": 11, "value": 39}, "group": "control_change"}, {"time": 49154, "annotation": {"number": 11, "value": 37}, "group": "control_change"}, {"time": 49170, "annotation": {"number": 11, "value": 35}, "group": "control_change"}, {"time": 49186, "annotation": {"number": 11, "value": 33}, "group": "control_change"}, {"time": 49201, "annotation": {"number": 11, "value": 31}, "group": "control_change"}, {"time": 49217, "annotation": {"number": 11, "value": 29}, "group": "control_change"}, {"time": 49233, "annotation": {"number": 11, "value": 27}, "group": "control_change"}, {"time": 49249, "annotation": {"number": 11, "value": 25}, "group": "control_change"}, {"time": 49264, "annotation": {"number": 11, "value": 23}, "group": "control_change"}, {"time": 49280, "annotation": {"number": 11, "value": 21}, "group": "control_change"}, {"time": 49296, "annotation": {"number": 11, "value": 19}, "group": "control_change"}, {"time": 49312, "annotation": {"number": 11, "value": 17}, "group": "control_change"}, {"time": 49327, "annotation": {"number": 11, "value": 15}, "group": "control_change"}, {"time": 49342, "annotation": {"number": 11, "value": 12}, "group": "control_change"}, {"time": 49358, "annotation": {"number": 11, "value": 10}, "group": "control_change"}, {"time": 49374, "annotation": {"number": 11, "value": 8}, "group": "control_change"}, {"time": 49389, "annotation": {"number": 11, "value": 6}, "group": "control_change"}, {"time": 49405, "annotation": {"number": 11, "value": 4}, "group": "control_change"}, {"time": 49421, "annotation": {"number": 11, "value": 2}, "group": "control_change"}, {"time": 49436, "annotation": {"number": 11, "value": 0}, "group": "control_change"}, {"time": 78239, "annotation": {"number": 11, "value": 127}, "group": "control_change"}, {"time": 94562, "annotation": {"number": 11, "value": 127}, "group": "control_change"}, {"time": 94576, "annotation": {"number": 11, "value": 125}, "group": "control_change"}, {"time": 94592, "annotation": {"number": 11, "value": 122}, "group": "control_change"}, {"time": 94608, "annotation": {"number": 11, "value": 120}, "group": "control_change"}, {"time": 94624, "annotation": {"number": 11, "value": 118}, "group": "control_change"}, {"time": 94639, "annotation": {"number": 11, "value": 116}, "group": "control_change"}, {"time": 94655, "annotation": {"number": 11, "value": 114}, "group": "control_change"}, {"time": 94671, "annotation": {"number": 11, "value": 112}, "group": "control_change"}, {"time": 94687, "annotation": {"number": 11, "value": 110}, "group": "control_change"}, {"time": 94702, "annotation": {"number": 11, "value": 108}, "group": "control_change"}, {"time": 94718, "annotation": {"number": 11, "value": 106}, "group": "control_change"}, {"time": 94734, "annotation": {"number": 11, "value": 104}, "group": "control_change"}, {"time": 94750, "annotation": {"number": 11, "value": 102}, "group": "control_change"}, {"time": 94765, "annotation": {"number": 11, "value": 100}, "group": "control_change"}, {"time": 94781, "annotation": {"number": 11, "value": 97}, "group": "control_change"}, {"time": 94797, "annotation": {"number": 11, "value": 95}, "group": "control_change"}, {"time": 94812, "annotation": {"number": 11, "value": 93}, "group": "control_change"}, {"time": 94828, "annotation": {"number": 11, "value": 91}, "group": "control_change"}, {"time": 94844, "annotation": {"number": 11, "value": 89}, "group": "control_change"}, {"time": 94860, "annotation": {"number": 11, "value": 87}, "group": "control_change"}, {"time": 94875, "annotation": {"number": 11, "value": 85}, "group": "control_change"}, {"time": 94891, "annotation": {"number": 11, "value": 83}, "group": "control_change"}, {"time": 94907, "annotation": {"number": 11, "value": 81}, "group": "control_change"}, {"time": 94923, "annotation": {"number": 11, "value": 79}, "group": "control_change"}, {"time": 94938, "annotation": {"number": 11, "value": 77}, "group": "control_change"}, {"time": 94954, "annotation": {"number": 11, "value": 75}, "group": "control_change"}, {"time": 94970, "annotation": {"number": 11, "value": 73}, "group": "control_change"}, {"time": 94986, "annotation": {"number": 11, "value": 70}, "group": "control_change"}, {"time": 95001, "annotation": {"number": 11, "value": 68}, "group": "control_change"}, {"time": 95017, "annotation": {"number": 11, "value": 66}, "group": "control_change"}, {"time": 95033, "annotation": {"number": 11, "value": 64}, "group": "control_change"}, {"time": 95048, "annotation": {"number": 11, "value": 62}, "group": "control_change"}, {"time": 95064, "annotation": {"number": 11, "value": 60}, "group": "control_change"}, {"time": 95080, "annotation": {"number": 11, "value": 58}, "group": "control_change"}, {"time": 95096, "annotation": {"number": 11, "value": 56}, "group": "control_change"}, {"time": 95111, "annotation": {"number": 11, "value": 54}, "group": "control_change"}, {"time": 95127, "annotation": {"number": 11, "value": 52}, "group": "control_change"}, {"time": 95143, "annotation": {"number": 11, "value": 50}, "group": "control_change"}, {"time": 95159, "annotation": {"number": 11, "value": 48}, "group": "control_change"}, {"time": 95174, "annotation": {"number": 11, "value": 46}, "group": "control_change"}, {"time": 95190, "annotation": {"number": 11, "value": 44}, "group": "control_change"}, {"time": 95206, "annotation": {"number": 11, "value": 41}, "group": "control_change"}, {"time": 95222, "annotation": {"number": 11, "value": 39}, "group": "control_change"}, {"time": 95237, "annotation": {"number": 11, "value": 37}, "group": "control_change"}, {"time": 95253, "annotation": {"number": 11, "value": 35}, "group": "control_change"}, {"time": 95269, "annotation": {"number": 11, "value": 33}, "group": "control_change"}, {"time": 95284, "annotation": {"number": 11, "value": 31}, "group": "control_change"}, {"time": 95300, "annotation": {"number": 11, "value": 29}, "group": "control_change"}, {"time": 95316, "annotation": {"number": 11, "value": 27}, "group": "control_change"}, {"time": 95332, "annotation": {"number": 11, "value": 25}, "group": "control_change"}, {"time": 95347, "annotation": {"number": 11, "value": 23}, "group": "control_change"}, {"time": 95363, "annotation": {"number": 11, "value": 21}, "group": "control_change"}, {"time": 95379, "annotation": {"number": 11, "value": 19}, "group": "control_change"}, {"time": 95395, "annotation": {"number": 11, "value": 17}, "group": "control_change"}, {"time": 95410, "annotation": {"number": 11, "value": 15}, "group": "control_change"}, {"time": 95426, "annotation": {"number": 11, "value": 12}, "group": "control_change"}, {"time": 95442, "annotation": {"number": 11, "value": 10}, "group": "control_change"}, {"time": 95458, "annotation": {"number": 11, "value": 8}, "group": "control_change"}, {"time": 95473, "annotation": {"number": 11, "value": 6}, "group": "control_change"}, {"time": 95489, "annotation": {"number": 11, "value": 4}, "group": "control_change"}, {"time": 95505, "annotation": {"number": 11, "value": 2}, "group": "control_change"}, {"time": 95520, "annotation": {"number": 11, "value": 0}, "group": "control_change"}, {"time": 101281, "annotation": {"number": 11, "value": 127}, "group": "control_change"}, {"time": 125282, "annotation": {"number": 11, "value": 127}, "group": "control_change"}, {"time": 125297, "annotation": {"number": 11, "value": 125}, "group": "control_change"}, {"time": 125313, "annotation": {"number": 11, "value": 122}, "group": "control_change"}, {"time": 125329, "annotation": {"number": 11, "value": 120}, "group": "control_change"}, {"time": 125344, "annotation": {"number": 11, "value": 118}, "group": "control_change"}, {"time": 125359, "annotation": {"number": 11, "value": 116}, "group": "control_change"}, {"time": 125375, "annotation": {"number": 11, "value": 114}, "group": "control_change"}, {"time": 125391, "annotation": {"number": 11, "value": 112}, "group": "control_change"}, {"time": 125407, "annotation": {"number": 11, "value": 110}, "group": "control_change"}, {"time": 125422, "annotation": {"number": 11, "value": 108}, "group": "control_change"}, {"time": 125438, "annotation": {"number": 11, "value": 106}, "group": "control_change"}, {"time": 125454, "annotation": {"number": 11, "value": 104}, "group": "control_change"}, {"time": 125470, "annotation": {"number": 11, "value": 102}, "group": "control_change"}, {"time": 125485, "annotation": {"number": 11, "value": 100}, "group": "control_change"}, {"time": 125501, "annotation": {"number": 11, "value": 97}, "group": "control_change"}, {"time": 125517, "annotation": {"number": 11, "value": 95}, "group": "control_change"}, {"time": 125532, "annotation": {"number": 11, "value": 93}, "group": "control_change"}, {"time": 125548, "annotation": {"number": 11, "value": 91}, "group": "control_change"}, {"time": 125564, "annotation": {"number": 11, "value": 89}, "group": "control_change"}, {"time": 125580, "annotation": {"number": 11, "value": 87}, "group": "control_change"}, {"time": 125595, "annotation": {"number": 11, "value": 85}, "group": "control_change"}, {"time": 125611, "annotation": {"number": 11, "value": 83}, "group": "control_change"}, {"time": 125627, "annotation": {"number": 11, "value": 81}, "group": "control_change"}, {"time": 125643, "annotation": {"number": 11, "value": 79}, "group": "control_change"}, {"time": 125658, "annotation": {"number": 11, "value": 77}, "group": "control_change"}, {"time": 125674, "annotation": {"number": 11, "value": 75}, "group": "control_change"}, {"time": 125690, "annotation": {"number": 11, "value": 73}, "group": "control_change"}, {"time": 125706, "annotation": {"number": 11, "value": 70}, "group": "control_change"}, {"time": 125721, "annotation": {"number": 11, "value": 68}, "group": "control_change"}, {"time": 125737, "annotation": {"number": 11, "value": 66}, "group": "control_change"}, {"time": 125753, "annotation": {"number": 11, "value": 64}, "group": "control_change"}, {"time": 125768, "annotation": {"number": 11, "value": 62}, "group": "control_change"}, {"time": 125784, "annotation": {"number": 11, "value": 60}, "group": "control_change"}, {"time": 125800, "annotation": {"number": 11, "value": 58}, "group": "control_change"}, {"time": 125816, "annotation": {"number": 11, "value": 56}, "group": "control_change"}, {"time": 125831, "annotation": {"number": 11, "value": 54}, "group": "control_change"}, {"time": 125847, "annotation": {"number": 11, "value": 52}, "group": "control_change"}, {"time": 125863, "annotation": {"number": 11, "value": 50}, "group": "control_change"}, {"time": 125879, "annotation": {"number": 11, "value": 48}, "group": "control_change"}, {"time": 125894, "annotation": {"number": 11, "value": 46}, "group": "control_change"}, {"time": 125910, "annotation": {"number": 11, "value": 44}, "group": "control_change"}, {"time": 125926, "annotation": {"number": 11, "value": 41}, "group": "control_change"}, {"time": 125942, "annotation": {"number": 11, "value": 39}, "group": "control_change"}, {"time": 125957, "annotation": {"number": 11, "value": 37}, "group": "control_change"}, {"time": 125973, "annotation": {"number": 11, "value": 35}, "group": "control_change"}, {"time": 125989, "annotation": {"number": 11, "value": 33}, "group": "control_change"}, {"time": 126004, "annotation": {"number": 11, "value": 31}, "group": "control_change"}, {"time": 126020, "annotation": {"number": 11, "value": 29}, "group": "control_change"}, {"time": 126036, "annotation": {"number": 11, "value": 27}, "group": "control_change"}, {"time": 126052, "annotation": {"number": 11, "value": 25}, "group": "control_change"}, {"time": 126067, "annotation": {"number": 11, "value": 23}, "group": "control_change"}, {"time": 126083, "annotation": {"number": 11, "value": 21}, "group": "control_change"}, {"time": 126099, "annotation": {"number": 11, "value": 19}, "group": "control_change"}, {"time": 126115, "annotation": {"number": 11, "value": 17}, "group": "control_change"}, {"time": 126130, "annotation": {"number": 11, "value": 15}, "group": "control_change"}, {"time": 126146, "annotation": {"number": 11, "value": 12}, "group": "control_change"}, {"time": 126162, "annotation": {"number": 11, "value": 10}, "group": "control_change"}, {"time": 126178, "annotation": {"number": 11, "value": 8}, "group": "control_change"}, {"time": 126193, "annotation": {"number": 11, "value": 6}, "group": "control_change"}, {"time": 126209, "annotation": {"number": 11, "value": 4}, "group": "control_change"}, {"time": 126225, "annotation": {"number": 11, "value": 2}, "group": "control_change"}, {"time": 126240, "annotation": {"number": 11, "value": 0}, "group": "control_change"}]}, {"program": 0, "is_drum": false, "name": "VIOLA", "annotations": [{"time": 160, "annotation": {"number": 0, "value": 0}, "group": "control_change"}, {"time": 176, "annotation": {"number": 32, "value": 2}, "group": "control_change"}]}, {"program": 48, "is_drum": false, "name": "VIOLA", "notes": [{"time": 32162, "pitch": 52, "duration": 1918, "velocity": 107}, {"time": 34080, "pitch": 54, "duration": 959, "velocity": 107}, {"time": 35039, "pitch": 52, "duration": 480, "velocity": 107}, {"time": 35519, "pitch": 59, "duration": 480, "velocity": 107}, {"time": 35999, "pitch": 61, "duration": 966, "velocity": 107}, {"time": 36962, "pitch": 59, "duration": 943, "velocity": 107}, {"time": 37923, "pitch": 57, "duration": 479, "velocity": 107}, {"time": 38402, "pitch": 62, "duration": 240, "velocity": 127}, {"time": 38642, "pitch": 66, "duration": 240, "velocity": 127}, {"time": 38882, "pitch": 69, "duration": 240, "velocity": 127}, {"time": 39122, "pitch": 68, "duration": 239, "velocity": 127}, {"time": 39361, "pitch": 69, "duration": 240, "velocity": 127}, {"time": 39601, "pitch": 71, "duration": 240, "velocity": 127}, {"time": 40081, "pitch": 52, "duration": 239, "velocity": 122}, {"time": 40320, "pitch": 57, "duration": 240, "velocity": 122}, {"time": 40560, "pitch": 59, "duration": 240, "velocity": 122}, {"time": 40800, "pitch": 61, "duration": 479, "velocity": 122}, {"time": 41279, "pitch": 57, "duration": 480, "velocity": 122}, {"time": 41759, "pitch": 62, "duration": 479, "velocity": 122}, {"time": 42238, "pitch": 61, "duration": 240, "velocity": 122}, {"time": 42478, "pitch": 59, "duration": 240, "velocity": 122}, {"time": 42718, "pitch": 61, "duration": 479, "velocity": 122}, {"time": 43197, "pitch": 57, "duration": 240, "velocity": 122}, {"time": 43437, "pitch": 56, "duration": 240, "velocity": 122}, {"time": 43677, "pitch": 54, "duration": 965, "velocity": 107}, {"time": 44642, "pitch": 51, "duration": 959, "velocity": 107}, {"time": 45601, "pitch": 57, "duration": 1439, "velocity": 107}, {"time": 47040, "pitch": 59, "duration": 479, "velocity": 107}, {"time": 47519, "pitch": 64, "duration": 1918, "velocity": 107}, {"time": 78239, "pitch": 52, "duration": 1918, "velocity": 107}, {"time": 80157, "pitch": 54, "duration": 966, "velocity": 107}, {"time": 81123, "pitch": 52, "duration": 479, "velocity": 107}, {"time": 81602, "pitch": 59, "duration": 480, "velocity": 107}, {"time": 82082, "pitch": 61, "duration": 966, "velocity": 107}, {"time": 83045, "pitch": 59, "duration": 937, "velocity": 107}, {"time": 84000, "pitch": 57, "duration": 479, "velocity": 107}, {"time": 84479, "pitch": 62, "duration": 240, "velocity": 127}, {"time": 84719, "pitch": 66, "duration": 240, "velocity": 127}, {"time": 84959, "pitch": 69, "duration": 240, "velocity": 127}, {"time": 85199, "pitch": 68, "duration": 239, "velocity": 127}, {"time": 85438, "pitch": 69, "duration": 240, "velocity": 127}, {"time": 85678, "pitch": 71, "duration": 240, "velocity": 127}, {"time": 86158, "pitch": 52, "duration": 239, "velocity": 122}, {"time": 86397, "pitch": 57, "duration": 243, "velocity": 122}, {"time": 86640, "pitch": 59, "duration": 243, "velocity": 122}, {"time": 86883, "pitch": 61, "duration": 480, "velocity": 122}, {"time": 87363, "pitch": 57, "duration": 479, "velocity": 122}, {"time": 87842, "pitch": 62, "duration": 480, "velocity": 122}, {"time": 88322, "pitch": 61, "duration": 239, "velocity": 122}, {"time": 88561, "pitch": 59, "duration": 240, "velocity": 122}, {"time": 88801, "pitch": 61, "duration": 480, "velocity": 122}, {"time": 89281, "pitch": 57, "duration": 239, "velocity": 122}, {"time": 89520, "pitch": 56, "duration": 240, "velocity": 122}, {"time": 89760, "pitch": 54, "duration": 959, "velocity": 107}, {"time": 90719, "pitch": 51, "duration": 959, "velocity": 107}, {"time": 91678, "pitch": 57, "duration": 1445, "velocity": 107}, {"time": 93123, "pitch": 59, "duration": 479, "velocity": 107}, {"time": 93602, "pitch": 61, "duration": 1919, "velocity": 107}, {"time": 101760, "pitch": 54, "duration": 160, "velocity": 127}, {"time": 101920, "pitch": 57, "duration": 80, "velocity": 127}, {"time": 102000, "pitch": 61, "duration": 80, "velocity": 127}, {"time": 103679, "pitch": 54, "duration": 159, "velocity": 127}, {"time": 103838, "pitch": 57, "duration": 80, "velocity": 127}, {"time": 103918, "pitch": 61, "duration": 80, "velocity": 127}, {"time": 105603, "pitch": 54, "duration": 160, "velocity": 127}, {"time": 105763, "pitch": 57, "duration": 80, "velocity": 127}, {"time": 105843, "pitch": 61, "duration": 119, "velocity": 127}, {"time": 107041, "pitch": 64, "duration": 1918, "velocity": 107}, {"time": 108959, "pitch": 52, "duration": 1918, "velocity": 107}, {"time": 110877, "pitch": 54, "duration": 966, "velocity": 107}, {"time": 111843, "pitch": 52, "duration": 479, "velocity": 107}, {"time": 112322, "pitch": 59, "duration": 480, "velocity": 107}, {"time": 112802, "pitch": 61, "duration": 966, "velocity": 107}, {"time": 113765, "pitch": 59, "duration": 937, "velocity": 107}, {"time": 114720, "pitch": 57, "duration": 479, "velocity": 107}, {"time": 115199, "pitch": 62, "duration": 240, "velocity": 127}, {"time": 115439, "pitch": 66, "duration": 240, "velocity": 127}, {"time": 115679, "pitch": 69, "duration": 240, "velocity": 127}, {"time": 115919, "pitch": 68, "duration": 239, "velocity": 127}, {"time": 116158, "pitch": 69, "duration": 240, "velocity": 127}, {"time": 116398, "pitch": 71, "duration": 240, "velocity": 127}, {"time": 116878, "pitch": 52, "duration": 239, "velocity": 122}, {"time": 117117, "pitch": 57, "duration": 240, "velocity": 122}, {"time": 117357, "pitch": 59, "duration": 240, "velocity": 122}, {"time": 117597, "pitch": 61, "duration": 486, "velocity": 122}, {"time": 118083, "pitch": 57, "duration": 479, "velocity": 122}, {"time": 118562, "pitch": 62, "duration": 480, "velocity": 122}, {"time": 119042, "pitch": 61, "duration": 239, "velocity": 122}, {"time": 119281, "pitch": 59, "duration": 240, "velocity": 122}, {"time": 119521, "pitch": 61, "duration": 480, "velocity": 122}, {"time": 120001, "pitch": 57, "duration": 239, "velocity": 122}, {"time": 120240, "pitch": 56, "duration": 240, "velocity": 122}, {"time": 120480, "pitch": 54, "duration": 959, "velocity": 107}, {"time": 121439, "pitch": 51, "duration": 959, "velocity": 107}, {"time": 122398, "pitch": 57, "duration": 1445, "velocity": 107}, {"time": 123843, "pitch": 59, "duration": 480, "velocity": 107}, {"time": 124323, "pitch": 64, "duration": 1918, "velocity": 107}], "annotations": [{"time": 224, "annotation": {"number": 7, "value": 63}, "group": "control_change"}, {"time": 240, "annotation": {"number": 11, "value": 127}, "group": "control_change"}, {"time": 256, "annotation": {"number": 10, "value": 44}, "group": "control_change"}, {"time": 288, "annotation": {"number": 91, "value": 80}, "group": "control_change"}, {"time": 304, "annotation": {"number": 93, "value": 0}, "group": "control_change"}, {"time": 320, "annotation": {"number": 94, "value": 0}, "group": "control_change"}, {"time": 368, "annotation": {"number": 101, "value": 0}, "group": "control_change"}, {"time": 384, "annotation": {"number": 100, "value": 0}, "group": "control_change"}, {"time": 400, "annotation": {"number": 6, "value": 12}, "group": "control_change"}, {"time": 432, "annotation": {"number": 99, "value": 1}, "group": "control_change"}, {"time": 448, "annotation": {"number": 98, "value": 8}, "group": "control_change"}, {"time": 464, "annotation": {"number": 6, "value": 64}, "group": "control_change"}, {"time": 495, "annotation": {"number": 99, "value": 1}, "group": "control_change"}, {"time": 551, "annotation": {"number": 98, "value": 9}, "group": "control_change"}, {"time": 606, "annotation": {"number": 6, "value": 64}, "group": "control_change"}, {"time": 717, "annotation": {"number": 99, "value": 1}, "group": "control_change"}, {"time": 772, "annotation": {"number": 98, "value": 10}, "group": "control_change"}, {"time": 827, "annotation": {"number": 6, "value": 64}, "group": "control_change"}, {"time": 882, "annotation": {"number": 74, "value": 64}, "group": "control_change"}, {"time": 938, "annotation": {"number": 71, "value": 64}, "group": "control_change"}, {"time": 993, "annotation": {"number": 73, "value": 64}, "group": "control_change"}, {"time": 1048, "annotation": {"number": 99, "value": 1}, "group": "control_change"}, {"time": 1103, "annotation": {"number": 98, "value": 100}, "group": "control_change"}, {"time": 1159, "annotation": {"number": 6, "value": 62}, "group": "control_change"}, {"time": 1214, "annotation": {"number": 72, "value": 64}, "group": "control_change"}, {"time": 1269, "annotation": {"number": 101, "value": 127}, "group": "control_change"}, {"time": 1325, "annotation": {"number": 100, "value": 127}, "group": "control_change"}, {"time": 48478, "annotation": {"number": 11, "value": 127}, "group": "control_change"}, {"time": 48493, "annotation": {"number": 11, "value": 125}, "group": "control_change"}, {"time": 48509, "annotation": {"number": 11, "value": 122}, "group": "control_change"}, {"time": 48525, "annotation": {"number": 11, "value": 120}, "group": "control_change"}, {"time": 48541, "annotation": {"number": 11, "value": 118}, "group": "control_change"}, {"time": 48556, "annotation": {"number": 11, "value": 116}, "group": "control_change"}, {"time": 48572, "annotation": {"number": 11, "value": 114}, "group": "control_change"}, {"time": 48588, "annotation": {"number": 11, "value": 112}, "group": "control_change"}, {"time": 48604, "annotation": {"number": 11, "value": 110}, "group": "control_change"}, {"time": 48619, "annotation": {"number": 11, "value": 108}, "group": "control_change"}, {"time": 48635, "annotation": {"number": 11, "value": 106}, "group": "control_change"}, {"time": 48651, "annotation": {"number": 11, "value": 104}, "group": "control_change"}, {"time": 48667, "annotation": {"number": 11, "value": 102}, "group": "control_change"}, {"time": 48682, "annotation": {"number": 11, "value": 100}, "group": "control_change"}, {"time": 48698, "annotation": {"number": 11, "value": 97}, "group": "control_change"}, {"time": 48714, "annotation": {"number": 11, "value": 95}, "group": "control_change"}, {"time": 48729, "annotation": {"number": 11, "value": 93}, "group": "control_change"}, {"time": 48745, "annotation": {"number": 11, "value": 91}, "group": "control_change"}, {"time": 48761, "annotation": {"number": 11, "value": 89}, "group": "control_change"}, {"time": 48777, "annotation": {"number": 11, "value": 87}, "group": "control_change"}, {"time": 48792, "annotation": {"number": 11, "value": 85}, "group": "control_change"}, {"time": 48808, "annotation": {"number": 11, "value": 83}, "group": "control_change"}, {"time": 48824, "annotation": {"number": 11, "value": 81}, "group": "control_change"}, {"time": 48840, "annotation": {"number": 11, "value": 79}, "group": "control_change"}, {"time": 48855, "annotation": {"number": 11, "value": 77}, "group": "control_change"}, {"time": 48871, "annotation": {"number": 11, "value": 75}, "group": "control_change"}, {"time": 48887, "annotation": {"number": 11, "value": 73}, "group": "control_change"}, {"time": 48903, "annotation": {"number": 11, "value": 70}, "group": "control_change"}, {"time": 48918, "annotation": {"number": 11, "value": 68}, "group": "control_change"}, {"time": 48934, "annotation": {"number": 11, "value": 66}, "group": "control_change"}, {"time": 48950, "annotation": {"number": 11, "value": 64}, "group": "control_change"}, {"time": 48965, "annotation": {"number": 11, "value": 62}, "group": "control_change"}, {"time": 48981, "annotation": {"number": 11, "value": 60}, "group": "control_change"}, {"time": 48997, "annotation": {"number": 11, "value": 58}, "group": "control_change"}, {"time": 49013, "annotation": {"number": 11, "value": 56}, "group": "control_change"}, {"time": 49028, "annotation": {"number": 11, "value": 54}, "group": "control_change"}, {"time": 49044, "annotation": {"number": 11, "value": 52}, "group": "control_change"}, {"time": 49060, "annotation": {"number": 11, "value": 50}, "group": "control_change"}, {"time": 49076, "annotation": {"number": 11, "value": 48}, "group": "control_change"}, {"time": 49091, "annotation": {"number": 11, "value": 46}, "group": "control_change"}, {"time": 49107, "annotation": {"number": 11, "value": 44}, "group": "control_change"}, {"time": 49123, "annotation": {"number": 11, "value": 41}, "group": "control_change"}, {"time": 49139, "annotation": {"number": 11, "value": 39}, "group": "control_change"}, {"time": 49154, "annotation": {"number": 11, "value": 37}, "group": "control_change"}, {"time": 49170, "annotation": {"number": 11, "value": 35}, "group": "control_change"}, {"time": 49186, "annotation": {"number": 11, "value": 33}, "group": "control_change"}, {"time": 49201, "annotation": {"number": 11, "value": 31}, "group": "control_change"}, {"time": 49217, "annotation": {"number": 11, "value": 29}, "group": "control_change"}, {"time": 49233, "annotation": {"number": 11, "value": 27}, "group": "control_change"}, {"time": 49249, "annotation": {"number": 11, "value": 25}, "group": "control_change"}, {"time": 49264, "annotation": {"number": 11, "value": 23}, "group": "control_change"}, {"time": 49280, "annotation": {"number": 11, "value": 21}, "group": "control_change"}, {"time": 49296, "annotation": {"number": 11, "value": 19}, "group": "control_change"}, {"time": 49312, "annotation": {"number": 11, "value": 17}, "group": "control_change"}, {"time": 49327, "annotation": {"number": 11, "value": 15}, "group": "control_change"}, {"time": 49342, "annotation": {"number": 11, "value": 12}, "group": "control_change"}, {"time": 49358, "annotation": {"number": 11, "value": 10}, "group": "control_change"}, {"time": 49374, "annotation": {"number": 11, "value": 8}, "group": "control_change"}, {"time": 49389, "annotation": {"number": 11, "value": 6}, "group": "control_change"}, {"time": 49405, "annotation": {"number": 11, "value": 4}, "group": "control_change"}, {"time": 49421, "annotation": {"number": 11, "value": 2}, "group": "control_change"}, {"time": 49436, "annotation": {"number": 11, "value": 0}, "group": "control_change"}, {"time": 78239, "annotation": {"number": 11, "value": 127}, "group": "control_change"}, {"time": 94562, "annotation": {"number": 11, "value": 127}, "group": "control_change"}, {"time": 94576, "annotation": {"number": 11, "value": 125}, "group": "control_change"}, {"time": 94592, "annotation": {"number": 11, "value": 122}, "group": "control_change"}, {"time": 94608, "annotation": {"number": 11, "value": 120}, "group": "control_change"}, {"time": 94624, "annotation": {"number": 11, "value": 118}, "group": "control_change"}, {"time": 94639, "annotation": {"number": 11, "value": 116}, "group": "control_change"}, {"time": 94655, "annotation": {"number": 11, "value": 114}, "group": "control_change"}, {"time": 94671, "annotation": {"number": 11, "value": 112}, "group": "control_change"}, {"time": 94687, "annotation": {"number": 11, "value": 110}, "group": "control_change"}, {"time": 94702, "annotation": {"number": 11, "value": 108}, "group": "control_change"}, {"time": 94718, "annotation": {"number": 11, "value": 106}, "group": "control_change"}, {"time": 94734, "annotation": {"number": 11, "value": 104}, "group": "control_change"}, {"time": 94750, "annotation": {"number": 11, "value": 102}, "group": "control_change"}, {"time": 94765, "annotation": {"number": 11, "value": 100}, "group": "control_change"}, {"time": 94781, "annotation": {"number": 11, "value": 97}, "group": "control_change"}, {"time": 94797, "annotation": {"number": 11, "value": 95}, "group": "control_change"}, {"time": 94812, "annotation": {"number": 11, "value": 93}, "group": "control_change"}, {"time": 94828, "annotation": {"number": 11, "value": 91}, "group": "control_change"}, {"time": 94844, "annotation": {"number": 11, "value": 89}, "group": "control_change"}, {"time": 94860, "annotation": {"number": 11, "value": 87}, "group": "control_change"}, {"time": 94875, "annotation": {"number": 11, "value": 85}, "group": "control_change"}, {"time": 94891, "annotation": {"number": 11, "value": 83}, "group": "control_change"}, {"time": 94907, "annotation": {"number": 11, "value": 81}, "group": "control_change"}, {"time": 94923, "annotation": {"number": 11, "value": 79}, "group": "control_change"}, {"time": 94938, "annotation": {"number": 11, "value": 77}, "group": "control_change"}, {"time": 94954, "annotation": {"number": 11, "value": 75}, "group": "control_change"}, {"time": 94970, "annotation": {"number": 11, "value": 73}, "group": "control_change"}, {"time": 94986, "annotation": {"number": 11, "value": 70}, "group": "control_change"}, {"time": 95001, "annotation": {"number": 11, "value": 68}, "group": "control_change"}, {"time": 95017, "annotation": {"number": 11, "value": 66}, "group": "control_change"}, {"time": 95033, "annotation": {"number": 11, "value": 64}, "group": "control_change"}, {"time": 95048, "annotation": {"number": 11, "value": 62}, "group": "control_change"}, {"time": 95064, "annotation": {"number": 11, "value": 60}, "group": "control_change"}, {"time": 95080, "annotation": {"number": 11, "value": 58}, "group": "control_change"}, {"time": 95096, "annotation": {"number": 11, "value": 56}, "group": "control_change"}, {"time": 95111, "annotation": {"number": 11, "value": 54}, "group": "control_change"}, {"time": 95127, "annotation": {"number": 11, "value": 52}, "group": "control_change"}, {"time": 95143, "annotation": {"number": 11, "value": 50}, "group": "control_change"}, {"time": 95159, "annotation": {"number": 11, "value": 48}, "group": "control_change"}, {"time": 95174, "annotation": {"number": 11, "value": 46}, "group": "control_change"}, {"time": 95190, "annotation": {"number": 11, "value": 44}, "group": "control_change"}, {"time": 95206, "annotation": {"number": 11, "value": 41}, "group": "control_change"}, {"time": 95222, "annotation": {"number": 11, "value": 39}, "group": "control_change"}, {"time": 95237, "annotation": {"number": 11, "value": 37}, "group": "control_change"}, {"time": 95253, "annotation": {"number": 11, "value": 35}, "group": "control_change"}, {"time": 95269, "annotation": {"number": 11, "value": 33}, "group": "control_change"}, {"time": 95284, "annotation": {"number": 11, "value": 31}, "group": "control_change"}, {"time": 95300, "annotation": {"number": 11, "value": 29}, "group": "control_change"}, {"time": 95316, "annotation": {"number": 11, "value": 27}, "group": "control_change"}, {"time": 95332, "annotation": {"number": 11, "value": 25}, "group": "control_change"}, {"time": 95347, "annotation": {"number": 11, "value": 23}, "group": "control_change"}, {"time": 95363, "annotation": {"number": 11, "value": 21}, "group": "control_change"}, {"time": 95379, "annotation": {"number": 11, "value": 19}, "group": "control_change"}, {"time": 95395, "annotation": {"number": 11, "value": 17}, "group": "control_change"}, {"time": 95410, "annotation": {"number": 11, "value": 15}, "group": "control_change"}, {"time": 95426, "annotation": {"number": 11, "value": 12}, "group": "control_change"}, {"time": 95442, "annotation": {"number": 11, "value": 10}, "group": "control_change"}, {"time": 95458, "annotation": {"number": 11, "value": 8}, "group": "control_change"}, {"time": 95473, "annotation": {"number": 11, "value": 6}, "group": "control_change"}, {"time": 95489, "annotation": {"number": 11, "value": 4}, "group": "control_change"}, {"time": 95505, "annotation": {"number": 11, "value": 2}, "group": "control_change"}, {"time": 95520, "annotation": {"number": 11, "value": 0}, "group": "control_change"}, {"time": 101281, "annotation": {"number": 11, "value": 127}, "group": "control_change"}, {"time": 125282, "annotation": {"number": 11, "value": 127}, "group": "control_change"}, {"time": 125297, "annotation": {"number": 11, "value": 125}, "group": "control_change"}, {"time": 125313, "annotation": {"number": 11, "value": 122}, "group": "control_change"}, {"time": 125329, "annotation": {"number": 11, "value": 120}, "group": "control_change"}, {"time": 125344, "annotation": {"number": 11, "value": 118}, "group": "control_change"}, {"time": 125359, "annotation": {"number": 11, "value": 116}, "group": "control_change"}, {"time": 125375, "annotation": {"number": 11, "value": 114}, "group": "control_change"}, {"time": 125391, "annotation": {"number": 11, "value": 112}, "group": "control_change"}, {"time": 125407, "annotation": {"number": 11, "value": 110}, "group": "control_change"}, {"time": 125422, "annotation": {"number": 11, "value": 108}, "group": "control_change"}, {"time": 125438, "annotation": {"number": 11, "value": 106}, "group": "control_change"}, {"time": 125454, "annotation": {"number": 11, "value": 104}, "group": "control_change"}, {"time": 125470, "annotation": {"number": 11, "value": 102}, "group": "control_change"}, {"time": 125485, "annotation": {"number": 11, "value": 100}, "group": "control_change"}, {"time": 125501, "annotation": {"number": 11, "value": 97}, "group": "control_change"}, {"time": 125517, "annotation": {"number": 11, "value": 95}, "group": "control_change"}, {"time": 125532, "annotation": {"number": 11, "value": 93}, "group": "control_change"}, {"time": 125548, "annotation": {"number": 11, "value": 91}, "group": "control_change"}, {"time": 125564, "annotation": {"number": 11, "value": 89}, "group": "control_change"}, {"time": 125580, "annotation": {"number": 11, "value": 87}, "group": "control_change"}, {"time": 125595, "annotation": {"number": 11, "value": 85}, "group": "control_change"}, {"time": 125611, "annotation": {"number": 11, "value": 83}, "group": "control_change"}, {"time": 125627, "annotation": {"number": 11, "value": 81}, "group": "control_change"}, {"time": 125643, "annotation": {"number": 11, "value": 79}, "group": "control_change"}, {"time": 125658, "annotation": {"number": 11, "value": 77}, "group": "control_change"}, {"time": 125674, "annotation": {"number": 11, "value": 75}, "group": "control_change"}, {"time": 125690, "annotation": {"number": 11, "value": 73}, "group": "control_change"}, {"time": 125706, "annotation": {"number": 11, "value": 70}, "group": "control_change"}, {"time": 125721, "annotation": {"number": 11, "value": 68}, "group": "control_change"}, {"time": 125737, "annotation": {"number": 11, "value": 66}, "group": "control_change"}, {"time": 125753, "annotation": {"number": 11, "value": 64}, "group": "control_change"}, {"time": 125768, "annotation": {"number": 11, "value": 62}, "group": "control_change"}, {"time": 125784, "annotation": {"number": 11, "value": 60}, "group": "control_change"}, {"time": 125800, "annotation": {"number": 11, "value": 58}, "group": "control_change"}, {"time": 125816, "annotation": {"number": 11, "value": 56}, "group": "control_change"}, {"time": 125831, "annotation": {"number": 11, "value": 54}, "group": "control_change"}, {"time": 125847, "annotation": {"number": 11, "value": 52}, "group": "control_change"}, {"time": 125863, "annotation": {"number": 11, "value": 50}, "group": "control_change"}, {"time": 125879, "annotation": {"number": 11, "value": 48}, "group": "control_change"}, {"time": 125894, "annotation": {"number": 11, "value": 46}, "group": "control_change"}, {"time": 125910, "annotation": {"number": 11, "value": 44}, "group": "control_change"}, {"time": 125926, "annotation": {"number": 11, "value": 41}, "group": "control_change"}, {"time": 125942, "annotation": {"number": 11, "value": 39}, "group": "control_change"}, {"time": 125957, "annotation": {"number": 11, "value": 37}, "group": "control_change"}, {"time": 125973, "annotation": {"number": 11, "value": 35}, "group": "control_change"}, {"time": 125989, "annotation": {"number": 11, "value": 33}, "group": "control_change"}, {"time": 126004, "annotation": {"number": 11, "value": 31}, "group": "control_change"}, {"time": 126020, "annotation": {"number": 11, "value": 29}, "group": "control_change"}, {"time": 126036, "annotation": {"number": 11, "value": 27}, "group": "control_change"}, {"time": 126052, "annotation": {"number": 11, "value": 25}, "group": "control_change"}, {"time": 126067, "annotation": {"number": 11, "value": 23}, "group": "control_change"}, {"time": 126083, "annotation": {"number": 11, "value": 21}, "group": "control_change"}, {"time": 126099, "annotation": {"number": 11, "value": 19}, "group": "control_change"}, {"time": 126115, "annotation": {"number": 11, "value": 17}, "group": "control_change"}, {"time": 126130, "annotation": {"number": 11, "value": 15}, "group": "control_change"}, {"time": 126146, "annotation": {"number": 11, "value": 12}, "group": "control_change"}, {"time": 126162, "annotation": {"number": 11, "value": 10}, "group": "control_change"}, {"time": 126178, "annotation": {"number": 11, "value": 8}, "group": "control_change"}, {"time": 126193, "annotation": {"number": 11, "value": 6}, "group": "control_change"}, {"time": 126209, "annotation": {"number": 11, "value": 4}, "group": "control_change"}, {"time": 126225, "annotation": {"number": 11, "value": 2}, "group": "control_change"}, {"time": 126240, "annotation": {"number": 11, "value": 0}, "group": "control_change"}]}, {"program": 0, "is_drum": false, "name": "CELLO", "annotations": [{"time": 160, "annotation": {"number": 0, "value": 0}, "group": "control_change"}, {"time": 176, "annotation": {"number": 32, "value": 2}, "group": "control_change"}]}, {"program": 48, "is_drum": false, "name": "CELLO", "notes": [{"time": 32162, "pitch": 45, "duration": 959, "velocity": 127}, {"time": 33121, "pitch": 56, "duration": 959, "velocity": 127}, {"time": 34080, "pitch": 50, "duration": 959, "velocity": 127}, {"time": 35039, "pitch": 45, "duration": 480, "velocity": 127}, {"time": 35519, "pitch": 56, "duration": 480, "velocity": 127}, {"time": 35999, "pitch": 54, "duration": 959, "velocity": 127}, {"time": 36958, "pitch": 47, "duration": 965, "velocity": 127}, {"time": 37923, "pitch": 50, "duration": 959, "velocity": 127}, {"time": 38882, "pitch": 52, "duration": 479, "velocity": 127}, {"time": 39361, "pitch": 40, "duration": 480, "velocity": 127}, {"time": 39841, "pitch": 45, "duration": 959, "velocity": 127}, {"time": 40800, "pitch": 44, "duration": 959, "velocity": 127}, {"time": 41759, "pitch": 38, "duration": 959, "velocity": 127}, {"time": 42718, "pitch": 45, "duration": 479, "velocity": 127}, {"time": 43197, "pitch": 44, "duration": 480, "velocity": 127}, {"time": 43677, "pitch": 42, "duration": 965, "velocity": 127}, {"time": 44642, "pitch": 47, "duration": 959, "velocity": 127}, {"time": 45601, "pitch": 50, "duration": 959, "velocity": 127}, {"time": 46560, "pitch": 52, "duration": 480, "velocity": 127}, {"time": 47040, "pitch": 40, "duration": 479, "velocity": 127}, {"time": 47519, "pitch": 57, "duration": 1918, "velocity": 127}, {"time": 78239, "pitch": 45, "duration": 959, "velocity": 127}, {"time": 79198, "pitch": 56, "duration": 959, "velocity": 127}, {"time": 80157, "pitch": 50, "duration": 966, "velocity": 127}, {"time": 81123, "pitch": 45, "duration": 479, "velocity": 127}, {"time": 81602, "pitch": 56, "duration": 480, "velocity": 127}, {"time": 82082, "pitch": 54, "duration": 959, "velocity": 127}, {"time": 83041, "pitch": 47, "duration": 959, "velocity": 127}, {"time": 84000, "pitch": 50, "duration": 959, "velocity": 127}, {"time": 84959, "pitch": 52, "duration": 479, "velocity": 127}, {"time": 85438, "pitch": 40, "duration": 480, "velocity": 127}, {"time": 85918, "pitch": 45, "duration": 965, "velocity": 127}, {"time": 86883, "pitch": 44, "duration": 959, "velocity": 127}, {"time": 87842, "pitch": 38, "duration": 959, "velocity": 127}, {"time": 88801, "pitch": 45, "duration": 480, "velocity": 127}, {"time": 89281, "pitch": 44, "duration": 479, "velocity": 127}, {"time": 89760, "pitch": 42, "duration": 959, "velocity": 127}, {"time": 90719, "pitch": 47, "duration": 959, "velocity": 127}, {"time": 91678, "pitch": 50, "duration": 959, "velocity": 127}, {"time": 92637, "pitch": 52, "duration": 486, "velocity": 127}, {"time": 93123, "pitch": 40, "duration": 479, "velocity": 127}, {"time": 93602, "pitch": 54, "duration": 1919, "velocity": 127}, {"time": 101521, "pitch": 54, "duration": 50, "velocity": 127}, {"time": 102000, "pitch": 54, "duration": 50, "velocity": 127}, {"time": 102480, "pitch": 54, "duration": 50, "velocity": 127}, {"time": 102959, "pitch": 52, "duration": 50, "velocity": 127}, {"time": 103439, "pitch": 50, "duration": 50, "velocity": 127}, {"time": 103918, "pitch": 50, "duration": 50, "velocity": 127}, {"time": 104398, "pitch": 50, "duration": 50, "velocity": 127}, {"time": 104877, "pitch": 49, "duration": 50, "velocity": 127}, {"time": 105360, "pitch": 47, "duration": 51, "velocity": 127}, {"time": 105843, "pitch": 47, "duration": 49, "velocity": 127}, {"time": 106322, "pitch": 47, "duration": 50, "velocity": 127}, {"time": 106802, "pitch": 47, "duration": 50, "velocity": 127}, {"time": 107281, "pitch": 52, "duration": 50, "velocity": 127}, {"time": 107761, "pitch": 52, "duration": 50, "velocity": 127}, {"time": 108240, "pitch": 52, "duration": 50, "velocity": 127}, {"time": 108720, "pitch": 52, "duration": 50, "velocity": 127}, {"time": 108959, "pitch": 45, "duration": 959, "velocity": 127}, {"time": 109918, "pitch": 56, "duration": 959, "velocity": 127}, {"time": 110877, "pitch": 50, "duration": 966, "velocity": 127}, {"time": 111843, "pitch": 45, "duration": 479, "velocity": 127}, {"time": 112322, "pitch": 56, "duration": 480, "velocity": 127}, {"time": 112802, "pitch": 54, "duration": 959, "velocity": 127}, {"time": 113761, "pitch": 47, "duration": 959, "velocity": 127}, {"time": 114720, "pitch": 50, "duration": 959, "velocity": 127}, {"time": 115679, "pitch": 52, "duration": 479, "velocity": 127}, {"time": 116158, "pitch": 40, "duration": 480, "velocity": 127}, {"time": 116638, "pitch": 45, "duration": 959, "velocity": 127}, {"time": 117597, "pitch": 44, "duration": 965, "velocity": 127}, {"time": 118562, "pitch": 38, "duration": 959, "velocity": 127}, {"time": 119521, "pitch": 45, "duration": 480, "velocity": 127}, {"time": 120001, "pitch": 44, "duration": 479, "velocity": 127}, {"time": 120480, "pitch": 42, "duration": 959, "velocity": 127}, {"time": 121439, "pitch": 47, "duration": 959, "velocity": 127}, {"time": 122398, "pitch": 50, "duration": 959, "velocity": 127}, {"time": 123357, "pitch": 52, "duration": 486, "velocity": 127}, {"time": 123843, "pitch": 40, "duration": 480, "velocity": 127}, {"time": 124323, "pitch": 57, "duration": 1918, "velocity": 127}], "annotations": [{"time": 224, "annotation": {"number": 7, "value": 48}, "group": "control_change"}, {"time": 240, "annotation": {"number": 11, "value": 127}, "group": "control_change"}, {"time": 256, "annotation": {"number": 10, "value": 84}, "group": "control_change"}, {"time": 288, "annotation": {"number": 91, "value": 80}, "group": "control_change"}, {"time": 304, "annotation": {"number": 93, "value": 0}, "group": "control_change"}, {"time": 320, "annotation": {"number": 94, "value": 0}, "group": "control_change"}, {"time": 368, "annotation": {"number": 101, "value": 0}, "group": "control_change"}, {"time": 384, "annotation": {"number": 100, "value": 0}, "group": "control_change"}, {"time": 400, "annotation": {"number": 6, "value": 12}, "group": "control_change"}, {"time": 432, "annotation": {"number": 99, "value": 1}, "group": "control_change"}, {"time": 448, "annotation": {"number": 98, "value": 8}, "group": "control_change"}, {"time": 464, "annotation": {"number": 6, "value": 64}, "group": "control_change"}, {"time": 495, "annotation": {"number": 99, "value": 1}, "group": "control_change"}, {"time": 551, "annotation": {"number": 98, "value": 9}, "group": "control_change"}, {"time": 606, "annotation": {"number": 6, "value": 64}, "group": "control_change"}, {"time": 717, "annotation": {"number": 99, "value": 1}, "group": "control_change"}, {"time": 772, "annotation": {"number": 98, "value": 10}, "group": "control_change"}, {"time": 827, "annotation": {"number": 6, "value": 64}, "group": "control_change"}, {"time": 882, "annotation": {"number": 74, "value": 64}, "group": "control_change"}, {"time": 938, "annotation": {"number": 71, "value": 64}, "group": "control_change"}, {"time": 993, "annotation": {"number": 73, "value": 64}, "group": "control_change"}, {"time": 1048, "annotation": {"number": 99, "value": 1}, "group": "control_change"}, {"time": 1103, "annotation": {"number": 98, "value": 100}, "group": "control_change"}, {"time": 1159, "annotation": {"number": 6, "value": 62}, "group": "control_change"}, {"time": 1214, "annotation": {"number": 72, "value": 64}, "group": "control_change"}, {"time": 1269, "annotation": {"number": 101, "value": 127}, "group": "control_change"}, {"time": 1325, "annotation": {"number": 100, "value": 127}, "group": "control_change"}, {"time": 48478, "annotation": {"number": 11, "value": 126}, "group": "control_change"}, {"time": 48493, "annotation": {"number": 11, "value": 124}, "group": "control_change"}, {"time": 48509, "annotation": {"number": 11, "value": 121}, "group": "control_change"}, {"time": 48525, "annotation": {"number": 11, "value": 119}, "group": "control_change"}, {"time": 48541, "annotation": {"number": 11, "value": 117}, "group": "control_change"}, {"time": 48556, "annotation": {"number": 11, "value": 115}, "group": "control_change"}, {"time": 48572, "annotation": {"number": 11, "value": 113}, "group": "control_change"}, {"time": 48588, "annotation": {"number": 11, "value": 111}, "group": "control_change"}, {"time": 48604, "annotation": {"number": 11, "value": 109}, "group": "control_change"}, {"time": 48619, "annotation": {"number": 11, "value": 107}, "group": "control_change"}, {"time": 48635, "annotation": {"number": 11, "value": 105}, "group": "control_change"}, {"time": 48651, "annotation": {"number": 11, "value": 103}, "group": "control_change"}, {"time": 48667, "annotation": {"number": 11, "value": 101}, "group": "control_change"}, {"time": 48682, "annotation": {"number": 11, "value": 99}, "group": "control_change"}, {"time": 48698, "annotation": {"number": 11, "value": 97}, "group": "control_change"}, {"time": 48714, "annotation": {"number": 11, "value": 95}, "group": "control_change"}, {"time": 48729, "annotation": {"number": 11, "value": 93}, "group": "control_change"}, {"time": 48745, "annotation": {"number": 11, "value": 91}, "group": "control_change"}, {"time": 48761, "annotation": {"number": 11, "value": 88}, "group": "control_change"}, {"time": 48777, "annotation": {"number": 11, "value": 86}, "group": "control_change"}, {"time": 48792, "annotation": {"number": 11, "value": 84}, "group": "control_change"}, {"time": 48808, "annotation": {"number": 11, "value": 82}, "group": "control_change"}, {"time": 48824, "annotation": {"number": 11, "value": 80}, "group": "control_change"}, {"time": 48840, "annotation": {"number": 11, "value": 78}, "group": "control_change"}, {"time": 48855, "annotation": {"number": 11, "value": 76}, "group": "control_change"}, {"time": 48871, "annotation": {"number": 11, "value": 74}, "group": "control_change"}, {"time": 48887, "annotation": {"number": 11, "value": 72}, "group": "control_change"}, {"time": 48903, "annotation": {"number": 11, "value": 70}, "group": "control_change"}, {"time": 48918, "annotation": {"number": 11, "value": 68}, "group": "control_change"}, {"time": 48934, "annotation": {"number": 11, "value": 66}, "group": "control_change"}, {"time": 48950, "annotation": {"number": 11, "value": 64}, "group": "control_change"}, {"time": 48965, "annotation": {"number": 11, "value": 62}, "group": "control_change"}, {"time": 48981, "annotation": {"number": 11, "value": 60}, "group": "control_change"}, {"time": 48997, "annotation": {"number": 11, "value": 58}, "group": "control_change"}, {"time": 49013, "annotation": {"number": 11, "value": 55}, "group": "control_change"}, {"time": 49028, "annotation": {"number": 11, "value": 54}, "group": "control_change"}, {"time": 49044, "annotation": {"number": 11, "value": 51}, "group": "control_change"}, {"time": 49060, "annotation": {"number": 11, "value": 49}, "group": "control_change"}, {"time": 49076, "annotation": {"number": 11, "value": 47}, "group": "control_change"}, {"time": 49091, "annotation": {"number": 11, "value": 45}, "group": "control_change"}, {"time": 49107, "annotation": {"number": 11, "value": 43}, "group": "control_change"}, {"time": 49123, "annotation": {"number": 11, "value": 41}, "group": "control_change"}, {"time": 49139, "annotation": {"number": 11, "value": 39}, "group": "control_change"}, {"time": 49154, "annotation": {"number": 11, "value": 37}, "group": "control_change"}, {"time": 49170, "annotation": {"number": 11, "value": 35}, "group": "control_change"}, {"time": 49186, "annotation": {"number": 11, "value": 33}, "group": "control_change"}, {"time": 49201, "annotation": {"number": 11, "value": 31}, "group": "control_change"}, {"time": 49217, "annotation": {"number": 11, "value": 29}, "group": "control_change"}, {"time": 49233, "annotation": {"number": 11, "value": 27}, "group": "control_change"}, {"time": 49249, "annotation": {"number": 11, "value": 25}, "group": "control_change"}, {"time": 49264, "annotation": {"number": 11, "value": 23}, "group": "control_change"}, {"time": 49280, "annotation": {"number": 11, "value": 21}, "group": "control_change"}, {"time": 49296, "annotation": {"number": 11, "value": 18}, "group": "control_change"}, {"time": 49312, "annotation": {"number": 11, "value": 16}, "group": "control_change"}, {"time": 49327, "annotation": {"number": 11, "value": 14}, "group": "control_change"}, {"time": 49342, "annotation": {"number": 11, "value": 12}, "group": "control_change"}, {"time": 49358, "annotation": {"number": 11, "value": 10}, "group": "control_change"}, {"time": 49374, "annotation": {"number": 11, "value": 8}, "group": "control_change"}, {"time": 49389, "annotation": {"number": 11, "value": 6}, "group": "control_change"}, {"time": 49405, "annotation": {"number": 11, "value": 4}, "group": "control_change"}, {"time": 49421, "annotation": {"number": 11, "value": 2}, "group": "control_change"}, {"time": 49436, "annotation": {"number": 11, "value": 0}, "group": "control_change"}, {"time": 78239, "annotation": {"number": 11, "value": 127}, "group": "control_change"}, {"time": 94562, "annotation": {"number": 11, "value": 127}, "group": "control_change"}, {"time": 94576, "annotation": {"number": 11, "value": 125}, "group": "control_change"}, {"time": 94592, "annotation": {"number": 11, "value": 122}, "group": "control_change"}, {"time": 94608, "annotation": {"number": 11, "value": 120}, "group": "control_change"}, {"time": 94624, "annotation": {"number": 11, "value": 118}, "group": "control_change"}, {"time": 94639, "annotation": {"number": 11, "value": 116}, "group": "control_change"}, {"time": 94655, "annotation": {"number": 11, "value": 114}, "group": "control_change"}, {"time": 94671, "annotation": {"number": 11, "value": 112}, "group": "control_change"}, {"time": 94687, "annotation": {"number": 11, "value": 110}, "group": "control_change"}, {"time": 94702, "annotation": {"number": 11, "value": 108}, "group": "control_change"}, {"time": 94718, "annotation": {"number": 11, "value": 106}, "group": "control_change"}, {"time": 94734, "annotation": {"number": 11, "value": 104}, "group": "control_change"}, {"time": 94750, "annotation": {"number": 11, "value": 102}, "group": "control_change"}, {"time": 94765, "annotation": {"number": 11, "value": 100}, "group": "control_change"}, {"time": 94781, "annotation": {"number": 11, "value": 97}, "group": "control_change"}, {"time": 94797, "annotation": {"number": 11, "value": 95}, "group": "control_change"}, {"time": 94812, "annotation": {"number": 11, "value": 93}, "group": "control_change"}, {"time": 94828, "annotation": {"number": 11, "value": 91}, "group": "control_change"}, {"time": 94844, "annotation": {"number": 11, "value": 89}, "group": "control_change"}, {"time": 94860, "annotation": {"number": 11, "value": 87}, "group": "control_change"}, {"time": 94875, "annotation": {"number": 11, "value": 85}, "group": "control_change"}, {"time": 94891, "annotation": {"number": 11, "value": 83}, "group": "control_change"}, {"time": 94907, "annotation": {"number": 11, "value": 81}, "group": "control_change"}, {"time": 94923, "annotation": {"number": 11, "value": 79}, "group": "control_change"}, {"time": 94938, "annotation": {"number": 11, "value": 77}, "group": "control_change"}, {"time": 94954, "annotation": {"number": 11, "value": 75}, "group": "control_change"}, {"time": 94970, "annotation": {"number": 11, "value": 73}, "group": "control_change"}, {"time": 94986, "annotation": {"number": 11, "value": 70}, "group": "control_change"}, {"time": 95001, "annotation": {"number": 11, "value": 68}, "group": "control_change"}, {"time": 95017, "annotation": {"number": 11, "value": 66}, "group": "control_change"}, {"time": 95033, "annotation": {"number": 11, "value": 64}, "group": "control_change"}, {"time": 95048, "annotation": {"number": 11, "value": 62}, "group": "control_change"}, {"time": 95064, "annotation": {"number": 11, "value": 60}, "group": "control_change"}, {"time": 95080, "annotation": {"number": 11, "value": 58}, "group": "control_change"}, {"time": 95096, "annotation": {"number": 11, "value": 56}, "group": "control_change"}, {"time": 95111, "annotation": {"number": 11, "value": 54}, "group": "control_change"}, {"time": 95127, "annotation": {"number": 11, "value": 52}, "group": "control_change"}, {"time": 95143, "annotation": {"number": 11, "value": 50}, "group": "control_change"}, {"time": 95159, "annotation": {"number": 11, "value": 48}, "group": "control_change"}, {"time": 95174, "annotation": {"number": 11, "value": 46}, "group": "control_change"}, {"time": 95190, "annotation": {"number": 11, "value": 44}, "group": "control_change"}, {"time": 95206, "annotation": {"number": 11, "value": 41}, "group": "control_change"}, {"time": 95222, "annotation": {"number": 11, "value": 39}, "group": "control_change"}, {"time": 95237, "annotation": {"number": 11, "value": 37}, "group": "control_change"}, {"time": 95253, "annotation": {"number": 11, "value": 35}, "group": "control_change"}, {"time": 95269, "annotation": {"number": 11, "value": 33}, "group": "control_change"}, {"time": 95284, "annotation": {"number": 11, "value": 31}, "group": "control_change"}, {"time": 95300, "annotation": {"number": 11, "value": 29}, "group": "control_change"}, {"time": 95316, "annotation": {"number": 11, "value": 27}, "group": "control_change"}, {"time": 95332, "annotation": {"number": 11, "value": 25}, "group": "control_change"}, {"time": 95347, "annotation": {"number": 11, "value": 23}, "group": "control_change"}, {"time": 95363, "annotation": {"number": 11, "value": 21}, "group": "control_change"}, {"time": 95379, "annotation": {"number": 11, "value": 19}, "group": "control_change"}, {"time": 95395, "annotation": {"number": 11, "value": 17}, "group": "control_change"}, {"time": 95410, "annotation": {"number": 11, "value": 15}, "group": "control_change"}, {"time": 95426, "annotation": {"number": 11, "value": 12}, "group": "control_change"}, {"time": 95442, "annotation": {"number": 11, "value": 10}, "group": "control_change"}, {"time": 95458, "annotation": {"number": 11, "value": 8}, "group": "control_change"}, {"time": 95473, "annotation": {"number": 11, "value": 6}, "group": "control_change"}, {"time": 95489, "annotation": {"number": 11, "value": 4}, "group": "control_change"}, {"time": 95505, "annotation": {"number": 11, "value": 2}, "group": "control_change"}, {"time": 95520, "annotation": {"number": 11, "value": 0}, "group": "control_change"}, {"time": 101281, "annotation": {"number": 11, "value": 127}, "group": "control_change"}, {"time": 125282, "annotation": {"number": 11, "value": 127}, "group": "control_change"}, {"time": 125297, "annotation": {"number": 11, "value": 125}, "group": "control_change"}, {"time": 125313, "annotation": {"number": 11, "value": 122}, "group": "control_change"}, {"time": 125329, "annotation": {"number": 11, "value": 120}, "group": "control_change"}, {"time": 125344, "annotation": {"number": 11, "value": 118}, "group": "control_change"}, {"time": 125359, "annotation": {"number": 11, "value": 116}, "group": "control_change"}, {"time": 125375, "annotation": {"number": 11, "value": 114}, "group": "control_change"}, {"time": 125391, "annotation": {"number": 11, "value": 112}, "group": "control_change"}, {"time": 125407, "annotation": {"number": 11, "value": 110}, "group": "control_change"}, {"time": 125422, "annotation": {"number": 11, "value": 108}, "group": "control_change"}, {"time": 125438, "annotation": {"number": 11, "value": 106}, "group": "control_change"}, {"time": 125454, "annotation": {"number": 11, "value": 104}, "group": "control_change"}, {"time": 125470, "annotation": {"number": 11, "value": 102}, "group": "control_change"}, {"time": 125485, "annotation": {"number": 11, "value": 100}, "group": "control_change"}, {"time": 125501, "annotation": {"number": 11, "value": 97}, "group": "control_change"}, {"time": 125517, "annotation": {"number": 11, "value": 95}, "group": "control_change"}, {"time": 125532, "annotation": {"number": 11, "value": 93}, "group": "control_change"}, {"time": 125548, "annotation": {"number": 11, "value": 91}, "group": "control_change"}, {"time": 125564, "annotation": {"number": 11, "value": 89}, "group": "control_change"}, {"time": 125580, "annotation": {"number": 11, "value": 87}, "group": "control_change"}, {"time": 125595, "annotation": {"number": 11, "value": 85}, "group": "control_change"}, {"time": 125611, "annotation": {"number": 11, "value": 83}, "group": "control_change"}, {"time": 125627, "annotation": {"number": 11, "value": 81}, "group": "control_change"}, {"time": 125643, "annotation": {"number": 11, "value": 79}, "group": "control_change"}, {"time": 125658, "annotation": {"number": 11, "value": 77}, "group": "control_change"}, {"time": 125674, "annotation": {"number": 11, "value": 75}, "group": "control_change"}, {"time": 125690, "annotation": {"number": 11, "value": 73}, "group": "control_change"}, {"time": 125706, "annotation": {"number": 11, "value": 70}, "group": "control_change"}, {"time": 125721, "annotation": {"number": 11, "value": 68}, "group": "control_change"}, {"time": 125737, "annotation": {"number": 11, "value": 66}, "group": "control_change"}, {"time": 125753, "annotation": {"number": 11, "value": 64}, "group": "control_change"}, {"time": 125768, "annotation": {"number": 11, "value": 62}, "group": "control_change"}, {"time": 125784, "annotation": {"number": 11, "value": 60}, "group": "control_change"}, {"time": 125800, "annotation": {"number": 11, "value": 58}, "group": "control_change"}, {"time": 125816, "annotation": {"number": 11, "value": 56}, "group": "control_change"}, {"time": 125831, "annotation": {"number": 11, "value": 54}, "group": "control_change"}, {"time": 125847, "annotation": {"number": 11, "value": 52}, "group": "control_change"}, {"time": 125863, "annotation": {"number": 11, "value": 50}, "group": "control_change"}, {"time": 125879, "annotation": {"number": 11, "value": 48}, "group": "control_change"}, {"time": 125894, "annotation": {"number": 11, "value": 46}, "group": "control_change"}, {"time": 125910, "annotation": {"number": 11, "value": 44}, "group": "control_change"}, {"time": 125926, "annotation": {"number": 11, "value": 41}, "group": "control_change"}, {"time": 125942, "annotation": {"number": 11, "value": 39}, "group": "control_change"}, {"time": 125957, "annotation": {"number": 11, "value": 37}, "group": "control_change"}, {"time": 125973, "annotation": {"number": 11, "value": 35}, "group": "control_change"}, {"time": 125989, "annotation": {"number": 11, "value": 33}, "group": "control_change"}, {"time": 126004, "annotation": {"number": 11, "value": 31}, "group": "control_change"}, {"time": 126020, "annotation": {"number": 11, "value": 29}, "group": "control_change"}, {"time": 126036, "annotation": {"number": 11, "value": 27}, "group": "control_change"}, {"time": 126052, "annotation": {"number": 11, "value": 25}, "group": "control_change"}, {"time": 126067, "annotation": {"number": 11, "value": 23}, "group": "control_change"}, {"time": 126083, "annotation": {"number": 11, "value": 21}, "group": "control_change"}, {"time": 126099, "annotation": {"number": 11, "value": 19}, "group": "control_change"}, {"time": 126115, "annotation": {"number": 11, "value": 17}, "group": "control_change"}, {"time": 126130, "annotation": {"number": 11, "value": 15}, "group": "control_change"}, {"time": 126146, "annotation": {"number": 11, "value": 12}, "group": "control_change"}, {"time": 126162, "annotation": {"number": 11, "value": 10}, "group": "control_change"}, {"time": 126178, "annotation": {"number": 11, "value": 8}, "group": "control_change"}, {"time": 126193, "annotation": {"number": 11, "value": 6}, "group": "control_change"}, {"time": 126209, "annotation": {"number": 11, "value": 4}, "group": "control_change"}, {"time": 126225, "annotation": {"number": 11, "value": 2}, "group": "control_change"}, {"time": 126240, "annotation": {"number": 11, "value": 0}, "group": "control_change"}]}, {"program": 0, "is_drum": false, "name": "E.GUITAR 1", "annotations": [{"time": 160, "annotation": {"number": 0, "value": 0}, "group": "control_change"}, {"time": 176, "annotation": {"number": 32, "value": 2}, "group": "control_change"}]}, {"program": 30, "is_drum": false, "name": "E.GUITAR 1", "notes": [{"time": 1442, "pitch": 66, "duration": 1199, "velocity": 107}, {"time": 2881, "pitch": 69, "duration": 120, "velocity": 117}, {"time": 3121, "pitch": 71, "duration": 120, "velocity": 112}, {"time": 3360, "pitch": 73, "duration": 1439, "velocity": 114}, {"time": 5278, "pitch": 66, "duration": 1199, "velocity": 107}, {"time": 6717, "pitch": 69, "duration": 121, "velocity": 117}, {"time": 6960, "pitch": 71, "duration": 121, "velocity": 112}, {"time": 7203, "pitch": 73, "duration": 1438, "velocity": 114}, {"time": 93602, "pitch": 66, "duration": 1199, "velocity": 107}, {"time": 95041, "pitch": 69, "duration": 120, "velocity": 117}, {"time": 95281, "pitch": 71, "duration": 120, "velocity": 112}, {"time": 95521, "pitch": 73, "duration": 1438, "velocity": 114}, {"time": 97439, "pitch": 66, "duration": 1198, "velocity": 107}, {"time": 98877, "pitch": 69, "duration": 122, "velocity": 117}, {"time": 99120, "pitch": 71, "duration": 121, "velocity": 112}, {"time": 99363, "pitch": 73, "duration": 1438, "velocity": 114}], "annotations": [{"time": 224, "annotation": {"number": 7, "value": 110}, "group": "control_change"}, {"time": 240, "annotation": {"number": 11, "value": 110}, "group": "control_change"}, {"time": 256, "annotation": {"number": 10, "value": 63}, "group": "control_change"}, {"time": 288, "annotation": {"number": 91, "value": 35}, "group": "control_change"}, {"time": 304, "annotation": {"number": 93, "value": 0}, "group": "control_change"}, {"time": 320, "annotation": {"number": 94, "value": 0}, "group": "control_change"}, {"time": 368, "annotation": {"number": 101, "value": 0}, "group": "control_change"}, {"time": 384, "annotation": {"number": 100, "value": 0}, "group": "control_change"}, {"time": 400, "annotation": {"number": 6, "value": 12}, "group": "control_change"}, {"time": 432, "annotation": {"number": 99, "value": 1}, "group": "control_change"}, {"time": 448, "annotation": {"number": 98, "value": 8}, "group": "control_change"}, {"time": 464, "annotation": {"number": 6, "value": 64}, "group": "control_change"}, {"time": 495, "annotation": {"number": 99, "value": 1}, "group": "control_change"}, {"time": 551, "annotation": {"number": 98, "value": 9}, "group": "control_change"}, {"time": 606, "annotation": {"number": 6, "value": 64}, "group": "control_change"}, {"time": 717, "annotation": {"number": 99, "value": 1}, "group": "control_change"}, {"time": 772, "annotation": {"number": 98, "value": 10}, "group": "control_change"}, {"time": 827, "annotation": {"number": 6, "value": 64}, "group": "control_change"}, {"time": 882, "annotation": {"number": 74, "value": 64}, "group": "control_change"}, {"time": 938, "annotation": {"number": 71, "value": 64}, "group": "control_change"}, {"time": 993, "annotation": {"number": 73, "value": 64}, "group": "control_change"}, {"time": 1048, "annotation": {"number": 99, "value": 1}, "group": "control_change"}, {"time": 1103, "annotation": {"number": 98, "value": 100}, "group": "control_change"}, {"time": 1159, "annotation": {"number": 6, "value": 62}, "group": "control_change"}, {"time": 1214, "annotation": {"number": 72, "value": 64}, "group": "control_change"}, {"time": 1269, "annotation": {"number": 101, "value": 127}, "group": "control_change"}, {"time": 1325, "annotation": {"number": 100, "value": 127}, "group": "control_change"}, {"time": 1762, "annotation": {"number": 1, "value": 40}, "group": "control_change"}, {"time": 2641, "annotation": {"number": 1, "value": 0}, "group": "control_change"}, {"time": 3680, "annotation": {"number": 1, "value": 38}, "group": "control_change"}, {"time": 4799, "annotation": {"number": 1, "value": 0}, "group": "control_change"}, {"time": 5598, "annotation": {"number": 1, "value": 40}, "group": "control_change"}, {"time": 6477, "annotation": {"number": 1, "value": 0}, "group": "control_change"}, {"time": 7522, "annotation": {"number": 1, "value": 38}, "group": "control_change"}, {"time": 8641, "annotation": {"number": 1, "value": 0}, "group": "control_change"}, {"time": 93922, "annotation": {"number": 1, "value": 40}, "group": "control_change"}, {"time": 94801, "annotation": {"number": 1, "value": 0}, "group": "control_change"}, {"time": 95840, "annotation": {"number": 1, "value": 38}, "group": "control_change"}, {"time": 96959, "annotation": {"number": 1, "value": 0}, "group": "control_change"}, {"time": 97758, "annotation": {"number": 1, "value": 40}, "group": "control_change"}, {"time": 98637, "annotation": {"number": 1, "value": 0}, "group": "control_change"}, {"time": 99683, "annotation": {"number": 1, "value": 38}, "group": "control_change"}]}, {"program": 0, "is_drum": true, "name": "KICK", "notes": [{"time": 1442, "pitch": 36, "duration": 60, "velocity": 90}, {"time": 1442, "pitch": 49, "duration": 60, "velocity": 100}, {"time": 1682, "pitch": 42, "duration": 60, "velocity": 70}, {"time": 1922, "pitch": 38, "duration": 60, "velocity": 116}, {"time": 1922, "pitch": 42, "duration": 60, "velocity": 105}, {"time": 2162, "pitch": 42, "duration": 60, "velocity": 70}, {"time": 2321, "pitch": 38, "duration": 60, "velocity": 64}, {"time": 2401, "pitch": 36, "duration": 60, "velocity": 90}, {"time": 2401, "pitch": 42, "duration": 60, "velocity": 100}, {"time": 2561, "pitch": 38, "duration": 60, "velocity": 74}, {"time": 2641, "pitch": 36, "duration": 60, "velocity": 70}, {"time": 2641, "pitch": 46, "duration": 60, "velocity": 100}, {"time": 2881, "pitch": 38, "duration": 60, "velocity": 116}, {"time": 2881, "pitch": 42, "duration": 60, "velocity": 100}, {"time": 3121, "pitch": 42, "duration": 60, "velocity": 70}, {"time": 3280, "pitch": 38, "duration": 60, "velocity": 64}, {"time": 3360, "pitch": 36, "duration": 60, "velocity": 90}, {"time": 3360, "pitch": 42, "duration": 60, "velocity": 110}, {"time": 3600, "pitch": 42, "duration": 60, "velocity": 70}, {"time": 3840, "pitch": 38, "duration": 60, "velocity": 116}, {"time": 3840, "pitch": 42, "duration": 60, "velocity": 105}, {"time": 4080, "pitch": 42, "duration": 60, "velocity": 70}, {"time": 4240, "pitch": 38, "duration": 59, "velocity": 64}, {"time": 4319, "pitch": 36, "duration": 60, "velocity": 90}, {"time": 4319, "pitch": 42, "duration": 60, "velocity": 100}, {"time": 4479, "pitch": 38, "duration": 60, "velocity": 74}, {"time": 4559, "pitch": 36, "duration": 60, "velocity": 70}, {"time": 4559, "pitch": 46, "duration": 60, "velocity": 100}, {"time": 4799, "pitch": 38, "duration": 60, "velocity": 116}, {"time": 4799, "pitch": 42, "duration": 60, "velocity": 100}, {"time": 4959, "pitch": 36, "duration": 60, "velocity": 90}, {"time": 4959, "pitch": 57, "duration": 60, "velocity": 100}, {"time": 5278, "pitch": 36, "duration": 60, "velocity": 90}, {"time": 5278, "pitch": 49, "duration": 60, "velocity": 100}, {"time": 5518, "pitch": 42, "duration": 60, "velocity": 70}, {"time": 5758, "pitch": 38, "duration": 60, "velocity": 116}, {"time": 5758, "pitch": 42, "duration": 60, "velocity": 105}, {"time": 5998, "pitch": 42, "duration": 60, "velocity": 70}, {"time": 6158, "pitch": 38, "duration": 60, "velocity": 64}, {"time": 6238, "pitch": 36, "duration": 59, "velocity": 90}, {"time": 6238, "pitch": 42, "duration": 59, "velocity": 100}, {"time": 6397, "pitch": 38, "duration": 60, "velocity": 74}, {"time": 6477, "pitch": 36, "duration": 60, "velocity": 70}, {"time": 6477, "pitch": 46, "duration": 60, "velocity": 100}, {"time": 6717, "pitch": 38, "duration": 61, "velocity": 116}, {"time": 6717, "pitch": 42, "duration": 61, "velocity": 100}, {"time": 6960, "pitch": 42, "duration": 61, "velocity": 70}, {"time": 7122, "pitch": 38, "duration": 61, "velocity": 64}, {"time": 7203, "pitch": 36, "duration": 60, "velocity": 90}, {"time": 7203, "pitch": 42, "duration": 60, "velocity": 110}, {"time": 7442, "pitch": 42, "duration": 60, "velocity": 70}, {"time": 7682, "pitch": 38, "duration": 60, "velocity": 116}, {"time": 7682, "pitch": 42, "duration": 60, "velocity": 105}, {"time": 7922, "pitch": 42, "duration": 60, "velocity": 70}, {"time": 8082, "pitch": 38, "duration": 60, "velocity": 64}, {"time": 8162, "pitch": 36, "duration": 60, "velocity": 90}, {"time": 8162, "pitch": 42, "duration": 60, "velocity": 100}, {"time": 8322, "pitch": 38, "duration": 60, "velocity": 74}, {"time": 8402, "pitch": 36, "duration": 59, "velocity": 70}, {"time": 8402, "pitch": 46, "duration": 59, "velocity": 100}, {"time": 8641, "pitch": 38, "duration": 60, "velocity": 116}, {"time": 8641, "pitch": 42, "duration": 60, "velocity": 100}, {"time": 8801, "pitch": 36, "duration": 60, "velocity": 90}, {"time": 8801, "pitch": 57, "duration": 60, "velocity": 100}, {"time": 9121, "pitch": 36, "duration": 60, "velocity": 90}, {"time": 9121, "pitch": 49, "duration": 60, "velocity": 100}, {"time": 9361, "pitch": 42, "duration": 59, "velocity": 70}, {"time": 9600, "pitch": 38, "duration": 60, "velocity": 116}, {"time": 9600, "pitch": 42, "duration": 60, "velocity": 105}, {"time": 9840, "pitch": 42, "duration": 60, "velocity": 70}, {"time": 10000, "pitch": 38, "duration": 60, "velocity": 64}, {"time": 10080, "pitch": 36, "duration": 60, "velocity": 90}, {"time": 10080, "pitch": 42, "duration": 60, "velocity": 100}, {"time": 10240, "pitch": 38, "duration": 60, "velocity": 74}, {"time": 10320, "pitch": 36, "duration": 60, "velocity": 70}, {"time": 10320, "pitch": 46, "duration": 60, "velocity": 100}, {"time": 10559, "pitch": 38, "duration": 60, "velocity": 116}, {"time": 10559, "pitch": 42, "duration": 60, "velocity": 100}, {"time": 10799, "pitch": 42, "duration": 60, "velocity": 70}, {"time": 10959, "pitch": 38, "duration": 60, "velocity": 64}, {"time": 11039, "pitch": 36, "duration": 60, "velocity": 90}, {"time": 11039, "pitch": 42, "duration": 60, "velocity": 110}, {"time": 11279, "pitch": 42, "duration": 60, "velocity": 70}, {"time": 11518, "pitch": 38, "duration": 60, "velocity": 116}, {"time": 11518, "pitch": 42, "duration": 60, "velocity": 105}, {"time": 11758, "pitch": 42, "duration": 60, "velocity": 70}, {"time": 11918, "pitch": 38, "duration": 60, "velocity": 64}, {"time": 11998, "pitch": 36, "duration": 60, "velocity": 90}, {"time": 11998, "pitch": 42, "duration": 60, "velocity": 100}, {"time": 12158, "pitch": 38, "duration": 60, "velocity": 74}, {"time": 12238, "pitch": 36, "duration": 60, "velocity": 70}, {"time": 12238, "pitch": 46, "duration": 60, "velocity": 100}, {"time": 12477, "pitch": 38, "duration": 60, "velocity": 116}, {"time": 12477, "pitch": 42, "duration": 60, "velocity": 100}, {"time": 12717, "pitch": 42, "duration": 60, "velocity": 70}, {"time": 12877, "pitch": 38, "duration": 60, "velocity": 64}, {"time": 12957, "pitch": 36, "duration": 61, "velocity": 90}, {"time": 12957, "pitch": 42, "duration": 61, "velocity": 110}, {"time": 13200, "pitch": 42, "duration": 61, "velocity": 70}, {"time": 13443, "pitch": 38, "duration": 60, "velocity": 116}, {"time": 13443, "pitch": 42, "duration": 60, "velocity": 105}, {"time": 13682, "pitch": 42, "duration": 60, "velocity": 70}, {"time": 13842, "pitch": 38, "duration": 60, "velocity": 64}, {"time": 13922, "pitch": 36, "duration": 60, "velocity": 90}, {"time": 13922, "pitch": 42, "duration": 60, "velocity": 100}, {"time": 14082, "pitch": 38, "duration": 60, "velocity": 74}, {"time": 14162, "pitch": 36, "duration": 60, "velocity": 70}, {"time": 14162, "pitch": 46, "duration": 60, "velocity": 100}, {"time": 14402, "pitch": 38, "duration": 60, "velocity": 116}, {"time": 14402, "pitch": 42, "duration": 60, "velocity": 100}, {"time": 14641, "pitch": 42, "duration": 60, "velocity": 70}, {"time": 14801, "pitch": 38, "duration": 60, "velocity": 64}, {"time": 14881, "pitch": 36, "duration": 60, "velocity": 90}, {"time": 14881, "pitch": 42, "duration": 60, "velocity": 110}, {"time": 15121, "pitch": 42, "duration": 60, "velocity": 70}, {"time": 15361, "pitch": 38, "duration": 60, "velocity": 116}, {"time": 15361, "pitch": 42, "duration": 60, "velocity": 105}, {"time": 15600, "pitch": 42, "duration": 60, "velocity": 70}, {"time": 15760, "pitch": 38, "duration": 60, "velocity": 64}, {"time": 15840, "pitch": 36, "duration": 60, "velocity": 90}, {"time": 15840, "pitch": 42, "duration": 60, "velocity": 100}, {"time": 16000, "pitch": 38, "duration": 60, "velocity": 74}, {"time": 16080, "pitch": 36, "duration": 60, "velocity": 70}, {"time": 16080, "pitch": 46, "duration": 60, "velocity": 100}, {"time": 16320, "pitch": 38, "duration": 60, "velocity": 116}, {"time": 16320, "pitch": 42, "duration": 60, "velocity": 100}, {"time": 16560, "pitch": 46, "duration": 59, "velocity": 106}, {"time": 16719, "pitch": 38, "duration": 60, "velocity": 64}, {"time": 16799, "pitch": 36, "duration": 60, "velocity": 90}, {"time": 16799, "pitch": 42, "duration": 60, "velocity": 110}, {"time": 17039, "pitch": 42, "duration": 60, "velocity": 70}, {"time": 17279, "pitch": 38, "duration": 60, "velocity": 116}, {"time": 17279, "pitch": 42, "duration": 60, "velocity": 105}, {"time": 17519, "pitch": 42, "duration": 59, "velocity": 70}, {"time": 17678, "pitch": 38, "duration": 60, "velocity": 64}, {"time": 17758, "pitch": 36, "duration": 60, "velocity": 90}, {"time": 17758, "pitch": 42, "duration": 60, "velocity": 100}, {"time": 17918, "pitch": 38, "duration": 60, "velocity": 74}, {"time": 17998, "pitch": 36, "duration": 60, "velocity": 70}, {"time": 17998, "pitch": 46, "duration": 60, "velocity": 100}, {"time": 18238, "pitch": 38, "duration": 60, "velocity": 116}, {"time": 18238, "pitch": 42, "duration": 60, "velocity": 100}, {"time": 18478, "pitch": 42, "duration": 60, "velocity": 70}, {"time": 18637, "pitch": 38, "duration": 60, "velocity": 64}, {"time": 18717, "pitch": 36, "duration": 61, "velocity": 90}, {"time": 18717, "pitch": 42, "duration": 61, "velocity": 110}, {"time": 18960, "pitch": 42, "duration": 61, "velocity": 70}, {"time": 19203, "pitch": 38, "duration": 60, "velocity": 116}, {"time": 19203, "pitch": 42, "duration": 60, "velocity": 105}, {"time": 19443, "pitch": 42, "duration": 60, "velocity": 70}, {"time": 19603, "pitch": 38, "duration": 60, "velocity": 64}, {"time": 19683, "pitch": 36, "duration": 59, "velocity": 90}, {"time": 19683, "pitch": 42, "duration": 59, "velocity": 100}, {"time": 19842, "pitch": 38, "duration": 60, "velocity": 74}, {"time": 19922, "pitch": 36, "duration": 60, "velocity": 70}, {"time": 19922, "pitch": 46, "duration": 60, "velocity": 100}, {"time": 20162, "pitch": 38, "duration": 60, "velocity": 116}, {"time": 20162, "pitch": 42, "duration": 60, "velocity": 100}, {"time": 20402, "pitch": 42, "duration": 60, "velocity": 70}, {"time": 20562, "pitch": 38, "duration": 60, "velocity": 64}, {"time": 20642, "pitch": 36, "duration": 60, "velocity": 90}, {"time": 20642, "pitch": 42, "duration": 60, "velocity": 110}, {"time": 20881, "pitch": 42, "duration": 60, "velocity": 70}, {"time": 21121, "pitch": 38, "duration": 60, "velocity": 116}, {"time": 21121, "pitch": 42, "duration": 60, "velocity": 105}, {"time": 21361, "pitch": 42, "duration": 60, "velocity": 70}, {"time": 21521, "pitch": 38, "duration": 60, "velocity": 64}, {"time": 21601, "pitch": 36, "duration": 60, "velocity": 90}, {"time": 21601, "pitch": 42, "duration": 60, "velocity": 100}, {"time": 21760, "pitch": 38, "duration": 60, "velocity": 74}, {"time": 21840, "pitch": 36, "duration": 60, "velocity": 70}, {"time": 21840, "pitch": 46, "duration": 60, "velocity": 100}, {"time": 22080, "pitch": 38, "duration": 60, "velocity": 116}, {"time": 22080, "pitch": 42, "duration": 60, "velocity": 100}, {"time": 22320, "pitch": 42, "duration": 60, "velocity": 70}, {"time": 22480, "pitch": 38, "duration": 60, "velocity": 64}, {"time": 22560, "pitch": 36, "duration": 60, "velocity": 90}, {"time": 22560, "pitch": 42, "duration": 60, "velocity": 110}, {"time": 22799, "pitch": 42, "duration": 60, "velocity": 70}, {"time": 23039, "pitch": 38, "duration": 60, "velocity": 116}, {"time": 23039, "pitch": 42, "duration": 60, "velocity": 105}, {"time": 23279, "pitch": 42, "duration": 60, "velocity": 70}, {"time": 23439, "pitch": 38, "duration": 60, "velocity": 64}, {"time": 23519, "pitch": 36, "duration": 60, "velocity": 90}, {"time": 23519, "pitch": 42, "duration": 60, "velocity": 100}, {"time": 23679, "pitch": 38, "duration": 59, "velocity": 74}, {"time": 23758, "pitch": 36, "duration": 60, "velocity": 70}, {"time": 23758, "pitch": 46, "duration": 60, "velocity": 100}, {"time": 23998, "pitch": 38, "duration": 60, "velocity": 116}, {"time": 23998, "pitch": 42, "duration": 60, "velocity": 100}, {"time": 24158, "pitch": 38, "duration": 60, "velocity": 120}, {"time": 24238, "pitch": 41, "duration": 60, "velocity": 116}, {"time": 24478, "pitch": 36, "duration": 60, "velocity": 90}, {"time": 24478, "pitch": 57, "duration": 60, "velocity": 100}, {"time": 24717, "pitch": 42, "duration": 60, "velocity": 70}, {"time": 24957, "pitch": 38, "duration": 61, "velocity": 116}, {"time": 24957, "pitch": 51, "duration": 61, "velocity": 105}, {"time": 25200, "pitch": 42, "duration": 61, "velocity": 70}, {"time": 25362, "pitch": 38, "duration": 61, "velocity": 64}, {"time": 25443, "pitch": 36, "duration": 60, "velocity": 90}, {"time": 25443, "pitch": 42, "duration": 60, "velocity": 100}, {"time": 25603, "pitch": 38, "duration": 60, "velocity": 74}, {"time": 25683, "pitch": 36, "duration": 60, "velocity": 70}, {"time": 25683, "pitch": 46, "duration": 60, "velocity": 100}, {"time": 25922, "pitch": 38, "duration": 60, "velocity": 116}, {"time": 25922, "pitch": 42, "duration": 60, "velocity": 100}, {"time": 26162, "pitch": 42, "duration": 60, "velocity": 70}, {"time": 26322, "pitch": 38, "duration": 60, "velocity": 64}, {"time": 26402, "pitch": 36, "duration": 60, "velocity": 90}, {"time": 26402, "pitch": 42, "duration": 60, "velocity": 110}, {"time": 26642, "pitch": 42, "duration": 60, "velocity": 70}, {"time": 26881, "pitch": 38, "duration": 60, "velocity": 116}, {"time": 26881, "pitch": 51, "duration": 60, "velocity": 105}, {"time": 27121, "pitch": 42, "duration": 60, "velocity": 70}, {"time": 27281, "pitch": 38, "duration": 60, "velocity": 64}, {"time": 27361, "pitch": 36, "duration": 60, "velocity": 90}, {"time": 27361, "pitch": 42, "duration": 60, "velocity": 100}, {"time": 27521, "pitch": 38, "duration": 60, "velocity": 74}, {"time": 27601, "pitch": 36, "duration": 60, "velocity": 70}, {"time": 27601, "pitch": 46, "duration": 60, "velocity": 100}, {"time": 27841, "pitch": 38, "duration": 59, "velocity": 116}, {"time": 27841, "pitch": 42, "duration": 59, "velocity": 100}, {"time": 28080, "pitch": 46, "duration": 60, "velocity": 100}, {"time": 28240, "pitch": 38, "duration": 60, "velocity": 64}, {"time": 28320, "pitch": 36, "duration": 60, "velocity": 90}, {"time": 28320, "pitch": 42, "duration": 60, "velocity": 110}, {"time": 28560, "pitch": 42, "duration": 60, "velocity": 70}, {"time": 28800, "pitch": 38, "duration": 60, "velocity": 116}, {"time": 28800, "pitch": 51, "duration": 60, "velocity": 105}, {"time": 29039, "pitch": 42, "duration": 60, "velocity": 70}, {"time": 29199, "pitch": 38, "duration": 60, "velocity": 64}, {"time": 29279, "pitch": 36, "duration": 60, "velocity": 90}, {"time": 29279, "pitch": 42, "duration": 60, "velocity": 100}, {"time": 29439, "pitch": 38, "duration": 60, "velocity": 74}, {"time": 29519, "pitch": 36, "duration": 60, "velocity": 70}, {"time": 29519, "pitch": 46, "duration": 60, "velocity": 100}, {"time": 29759, "pitch": 38, "duration": 60, "velocity": 116}, {"time": 29759, "pitch": 42, "duration": 60, "velocity": 100}, {"time": 29759, "pitch": 57, "duration": 60, "velocity": 105}, {"time": 30238, "pitch": 36, "duration": 60, "velocity": 90}, {"time": 30238, "pitch": 42, "duration": 60, "velocity": 110}, {"time": 30238, "pitch": 49, "duration": 60, "velocity": 105}, {"time": 30478, "pitch": 42, "duration": 60, "velocity": 70}, {"time": 30718, "pitch": 38, "duration": 60, "velocity": 116}, {"time": 30718, "pitch": 49, "duration": 60, "velocity": 85}, {"time": 30957, "pitch": 42, "duration": 60, "velocity": 70}, {"time": 31117, "pitch": 38, "duration": 60, "velocity": 64}, {"time": 31197, "pitch": 36, "duration": 61, "velocity": 90}, {"time": 31197, "pitch": 42, "duration": 61, "velocity": 100}, {"time": 31359, "pitch": 42, "duration": 61, "velocity": 70}, {"time": 31440, "pitch": 38, "duration": 61, "velocity": 116}, {"time": 31440, "pitch": 57, "duration": 61, "velocity": 100}, {"time": 31683, "pitch": 38, "duration": 60, "velocity": 110}, {"time": 31843, "pitch": 45, "duration": 60, "velocity": 106}, {"time": 31923, "pitch": 43, "duration": 60, "velocity": 106}, {"time": 32162, "pitch": 36, "duration": 60, "velocity": 90}, {"time": 32162, "pitch": 49, "duration": 60, "velocity": 100}, {"time": 32402, "pitch": 42, "duration": 60, "velocity": 70}, {"time": 32642, "pitch": 38, "duration": 60, "velocity": 116}, {"time": 32642, "pitch": 42, "duration": 60, "velocity": 105}, {"time": 32882, "pitch": 42, "duration": 60, "velocity": 70}, {"time": 33041, "pitch": 38, "duration": 60, "velocity": 64}, {"time": 33121, "pitch": 36, "duration": 60, "velocity": 90}, {"time": 33121, "pitch": 42, "duration": 60, "velocity": 100}, {"time": 33281, "pitch": 38, "duration": 60, "velocity": 74}, {"time": 33361, "pitch": 36, "duration": 60, "velocity": 70}, {"time": 33361, "pitch": 46, "duration": 60, "velocity": 104}, {"time": 33601, "pitch": 38, "duration": 60, "velocity": 116}, {"time": 33601, "pitch": 42, "duration": 60, "velocity": 100}, {"time": 33841, "pitch": 42, "duration": 60, "velocity": 70}, {"time": 34001, "pitch": 38, "duration": 59, "velocity": 64}, {"time": 34080, "pitch": 36, "duration": 60, "velocity": 90}, {"time": 34080, "pitch": 42, "duration": 60, "velocity": 110}, {"time": 34320, "pitch": 42, "duration": 60, "velocity": 70}, {"time": 34560, "pitch": 38, "duration": 60, "velocity": 116}, {"time": 34560, "pitch": 42, "duration": 60, "velocity": 105}, {"time": 34800, "pitch": 42, "duration": 60, "velocity": 70}, {"time": 34960, "pitch": 38, "duration": 60, "velocity": 64}, {"time": 35039, "pitch": 36, "duration": 60, "velocity": 90}, {"time": 35039, "pitch": 42, "duration": 60, "velocity": 100}, {"time": 35199, "pitch": 38, "duration": 60, "velocity": 74}, {"time": 35279, "pitch": 36, "duration": 60, "velocity": 70}, {"time": 35279, "pitch": 46, "duration": 60, "velocity": 104}, {"time": 35519, "pitch": 38, "duration": 60, "velocity": 116}, {"time": 35519, "pitch": 42, "duration": 60, "velocity": 100}, {"time": 35759, "pitch": 42, "duration": 60, "velocity": 70}, {"time": 35919, "pitch": 38, "duration": 60, "velocity": 64}, {"time": 35999, "pitch": 36, "duration": 59, "velocity": 90}, {"time": 35999, "pitch": 42, "duration": 59, "velocity": 110}, {"time": 36238, "pitch": 42, "duration": 60, "velocity": 70}, {"time": 36478, "pitch": 38, "duration": 60, "velocity": 116}, {"time": 36478, "pitch": 42, "duration": 60, "velocity": 105}, {"time": 36718, "pitch": 42, "duration": 60, "velocity": 70}, {"time": 36878, "pitch": 38, "duration": 60, "velocity": 64}, {"time": 36958, "pitch": 36, "duration": 60, "velocity": 90}, {"time": 36958, "pitch": 42, "duration": 60, "velocity": 100}, {"time": 37117, "pitch": 38, "duration": 60, "velocity": 74}, {"time": 37197, "pitch": 36, "duration": 60, "velocity": 70}, {"time": 37197, "pitch": 46, "duration": 60, "velocity": 104}, {"time": 37437, "pitch": 38, "duration": 61, "velocity": 116}, {"time": 37437, "pitch": 42, "duration": 61, "velocity": 100}, {"time": 37680, "pitch": 42, "duration": 61, "velocity": 70}, {"time": 37842, "pitch": 38, "duration": 61, "velocity": 64}, {"time": 37923, "pitch": 36, "duration": 60, "velocity": 90}, {"time": 37923, "pitch": 42, "duration": 60, "velocity": 110}, {"time": 38163, "pitch": 42, "duration": 59, "velocity": 70}, {"time": 38402, "pitch": 38, "duration": 60, "velocity": 116}, {"time": 38402, "pitch": 42, "duration": 60, "velocity": 105}, {"time": 38642, "pitch": 42, "duration": 60, "velocity": 70}, {"time": 38802, "pitch": 38, "duration": 60, "velocity": 64}, {"time": 38882, "pitch": 36, "duration": 60, "velocity": 90}, {"time": 38882, "pitch": 42, "duration": 60, "velocity": 100}, {"time": 39042, "pitch": 38, "duration": 60, "velocity": 74}, {"time": 39122, "pitch": 36, "duration": 59, "velocity": 70}, {"time": 39122, "pitch": 46, "duration": 59, "velocity": 104}, {"time": 39361, "pitch": 47, "duration": 60, "velocity": 110}, {"time": 39521, "pitch": 45, "duration": 60, "velocity": 110}, {"time": 39601, "pitch": 41, "duration": 60, "velocity": 110}, {"time": 39841, "pitch": 36, "duration": 60, "velocity": 90}, {"time": 39841, "pitch": 49, "duration": 60, "velocity": 100}, {"time": 40081, "pitch": 42, "duration": 60, "velocity": 70}, {"time": 40320, "pitch": 38, "duration": 60, "velocity": 116}, {"time": 40320, "pitch": 42, "duration": 60, "velocity": 105}, {"time": 40560, "pitch": 42, "duration": 60, "velocity": 70}, {"time": 40720, "pitch": 38, "duration": 60, "velocity": 64}, {"time": 40800, "pitch": 36, "duration": 60, "velocity": 90}, {"time": 40800, "pitch": 42, "duration": 60, "velocity": 100}, {"time": 40960, "pitch": 38, "duration": 60, "velocity": 74}, {"time": 41040, "pitch": 36, "duration": 60, "velocity": 70}, {"time": 41040, "pitch": 46, "duration": 60, "velocity": 104}, {"time": 41279, "pitch": 38, "duration": 60, "velocity": 116}, {"time": 41279, "pitch": 42, "duration": 60, "velocity": 100}, {"time": 41519, "pitch": 42, "duration": 60, "velocity": 70}, {"time": 41679, "pitch": 38, "duration": 60, "velocity": 64}, {"time": 41759, "pitch": 36, "duration": 60, "velocity": 90}, {"time": 41759, "pitch": 42, "duration": 60, "velocity": 110}, {"time": 41999, "pitch": 42, "duration": 60, "velocity": 70}, {"time": 42238, "pitch": 38, "duration": 60, "velocity": 116}, {"time": 42238, "pitch": 42, "duration": 60, "velocity": 105}, {"time": 42478, "pitch": 42, "duration": 60, "velocity": 70}, {"time": 42638, "pitch": 38, "duration": 60, "velocity": 64}, {"time": 42718, "pitch": 36, "duration": 60, "velocity": 90}, {"time": 42718, "pitch": 42, "duration": 60, "velocity": 100}, {"time": 42878, "pitch": 38, "duration": 60, "velocity": 74}, {"time": 42958, "pitch": 36, "duration": 60, "velocity": 70}, {"time": 42958, "pitch": 46, "duration": 60, "velocity": 104}, {"time": 43197, "pitch": 38, "duration": 60, "velocity": 116}, {"time": 43197, "pitch": 42, "duration": 60, "velocity": 100}, {"time": 43437, "pitch": 42, "duration": 60, "velocity": 70}, {"time": 43597, "pitch": 38, "duration": 60, "velocity": 64}, {"time": 43677, "pitch": 36, "duration": 61, "velocity": 90}, {"time": 43677, "pitch": 42, "duration": 61, "velocity": 110}, {"time": 43920, "pitch": 42, "duration": 61, "velocity": 70}, {"time": 44163, "pitch": 38, "duration": 60, "velocity": 116}, {"time": 44163, "pitch": 42, "duration": 60, "velocity": 105}, {"time": 44402, "pitch": 42, "duration": 60, "velocity": 70}, {"time": 44562, "pitch": 38, "duration": 60, "velocity": 64}, {"time": 44642, "pitch": 36, "duration": 60, "velocity": 90}, {"time": 44642, "pitch": 42, "duration": 60, "velocity": 100}, {"time": 44802, "pitch": 38, "duration": 60, "velocity": 74}, {"time": 44882, "pitch": 36, "duration": 60, "velocity": 70}, {"time": 44882, "pitch": 46, "duration": 60, "velocity": 104}, {"time": 45122, "pitch": 38, "duration": 60, "velocity": 116}, {"time": 45122, "pitch": 42, "duration": 60, "velocity": 100}, {"time": 45361, "pitch": 42, "duration": 60, "velocity": 70}, {"time": 45521, "pitch": 38, "duration": 60, "velocity": 64}, {"time": 45601, "pitch": 36, "duration": 60, "velocity": 90}, {"time": 45601, "pitch": 42, "duration": 60, "velocity": 110}, {"time": 45841, "pitch": 42, "duration": 60, "velocity": 70}, {"time": 46081, "pitch": 38, "duration": 60, "velocity": 116}, {"time": 46081, "pitch": 42, "duration": 60, "velocity": 105}, {"time": 46321, "pitch": 42, "duration": 59, "velocity": 70}, {"time": 46480, "pitch": 38, "duration": 60, "velocity": 64}, {"time": 46560, "pitch": 36, "duration": 60, "velocity": 90}, {"time": 46560, "pitch": 42, "duration": 60, "velocity": 100}, {"time": 46720, "pitch": 38, "duration": 60, "velocity": 74}, {"time": 46800, "pitch": 36, "duration": 60, "velocity": 70}, {"time": 46800, "pitch": 46, "duration": 60, "velocity": 104}, {"time": 47040, "pitch": 38, "duration": 60, "velocity": 116}, {"time": 47040, "pitch": 42, "duration": 60, "velocity": 100}, {"time": 47280, "pitch": 38, "duration": 59, "velocity": 120}, {"time": 47439, "pitch": 41, "duration": 60, "velocity": 100}, {"time": 47519, "pitch": 36, "duration": 60, "velocity": 90}, {"time": 47519, "pitch": 57, "duration": 60, "velocity": 100}, {"time": 47759, "pitch": 42, "duration": 60, "velocity": 70}, {"time": 47999, "pitch": 38, "duration": 60, "velocity": 116}, {"time": 47999, "pitch": 42, "duration": 60, "velocity": 105}, {"time": 48239, "pitch": 42, "duration": 60, "velocity": 70}, {"time": 48398, "pitch": 38, "duration": 60, "velocity": 64}, {"time": 48478, "pitch": 36, "duration": 60, "velocity": 90}, {"time": 48478, "pitch": 42, "duration": 60, "velocity": 100}, {"time": 48638, "pitch": 38, "duration": 60, "velocity": 74}, {"time": 48718, "pitch": 36, "duration": 60, "velocity": 70}, {"time": 48718, "pitch": 46, "duration": 60, "velocity": 104}, {"time": 48958, "pitch": 38, "duration": 60, "velocity": 116}, {"time": 48958, "pitch": 42, "duration": 60, "velocity": 100}, {"time": 49198, "pitch": 42, "duration": 60, "velocity": 70}, {"time": 49357, "pitch": 38, "duration": 60, "velocity": 64}, {"time": 49437, "pitch": 36, "duration": 61, "velocity": 90}, {"time": 49437, "pitch": 42, "duration": 61, "velocity": 110}, {"time": 49680, "pitch": 42, "duration": 61, "velocity": 70}, {"time": 49923, "pitch": 38, "duration": 60, "velocity": 116}, {"time": 49923, "pitch": 42, "duration": 60, "velocity": 105}, {"time": 50163, "pitch": 42, "duration": 60, "velocity": 70}, {"time": 50323, "pitch": 38, "duration": 60, "velocity": 64}, {"time": 50403, "pitch": 36, "duration": 60, "velocity": 90}, {"time": 50403, "pitch": 42, "duration": 60, "velocity": 100}, {"time": 50562, "pitch": 38, "duration": 60, "velocity": 74}, {"time": 50642, "pitch": 36, "duration": 60, "velocity": 70}, {"time": 50642, "pitch": 46, "duration": 60, "velocity": 104}, {"time": 50882, "pitch": 38, "duration": 60, "velocity": 116}, {"time": 50882, "pitch": 42, "duration": 60, "velocity": 100}, {"time": 51122, "pitch": 42, "duration": 60, "velocity": 70}, {"time": 51282, "pitch": 38, "duration": 60, "velocity": 64}, {"time": 51362, "pitch": 36, "duration": 60, "velocity": 90}, {"time": 51362, "pitch": 42, "duration": 60, "velocity": 110}, {"time": 51601, "pitch": 42, "duration": 60, "velocity": 70}, {"time": 51841, "pitch": 38, "duration": 60, "velocity": 116}, {"time": 51841, "pitch": 42, "duration": 60, "velocity": 105}, {"time": 52081, "pitch": 42, "duration": 60, "velocity": 70}, {"time": 52241, "pitch": 38, "duration": 60, "velocity": 64}, {"time": 52321, "pitch": 36, "duration": 60, "velocity": 90}, {"time": 52321, "pitch": 42, "duration": 60, "velocity": 100}, {"time": 52481, "pitch": 38, "duration": 59, "velocity": 74}, {"time": 52560, "pitch": 36, "duration": 60, "velocity": 70}, {"time": 52560, "pitch": 46, "duration": 60, "velocity": 104}, {"time": 52800, "pitch": 38, "duration": 60, "velocity": 116}, {"time": 52800, "pitch": 42, "duration": 60, "velocity": 100}, {"time": 53040, "pitch": 42, "duration": 60, "velocity": 70}, {"time": 53200, "pitch": 38, "duration": 60, "velocity": 64}, {"time": 53280, "pitch": 36, "duration": 60, "velocity": 90}, {"time": 53280, "pitch": 42, "duration": 60, "velocity": 110}, {"time": 53519, "pitch": 42, "duration": 60, "velocity": 70}, {"time": 53759, "pitch": 38, "duration": 60, "velocity": 116}, {"time": 53759, "pitch": 42, "duration": 60, "velocity": 105}, {"time": 53999, "pitch": 42, "duration": 60, "velocity": 70}, {"time": 54159, "pitch": 38, "duration": 60, "velocity": 64}, {"time": 54239, "pitch": 36, "duration": 60, "velocity": 90}, {"time": 54239, "pitch": 42, "duration": 60, "velocity": 100}, {"time": 54399, "pitch": 38, "duration": 60, "velocity": 74}, {"time": 54479, "pitch": 36, "duration": 59, "velocity": 70}, {"time": 54479, "pitch": 46, "duration": 59, "velocity": 104}, {"time": 54718, "pitch": 38, "duration": 60, "velocity": 116}, {"time": 54718, "pitch": 42, "duration": 60, "velocity": 100}, {"time": 54958, "pitch": 38, "duration": 60, "velocity": 116}, {"time": 55118, "pitch": 38, "duration": 60, "velocity": 64}, {"time": 55198, "pitch": 36, "duration": 60, "velocity": 90}, {"time": 55198, "pitch": 49, "duration": 60, "velocity": 100}, {"time": 55438, "pitch": 42, "duration": 59, "velocity": 70}, {"time": 55677, "pitch": 38, "duration": 61, "velocity": 116}, {"time": 55677, "pitch": 42, "duration": 61, "velocity": 105}, {"time": 55920, "pitch": 42, "duration": 61, "velocity": 70}, {"time": 56082, "pitch": 38, "duration": 61, "velocity": 64}, {"time": 56163, "pitch": 36, "duration": 60, "velocity": 90}, {"time": 56163, "pitch": 42, "duration": 60, "velocity": 100}, {"time": 56323, "pitch": 38, "duration": 60, "velocity": 74}, {"time": 56403, "pitch": 36, "duration": 60, "velocity": 70}, {"time": 56403, "pitch": 46, "duration": 60, "velocity": 100}, {"time": 56642, "pitch": 38, "duration": 60, "velocity": 116}, {"time": 56642, "pitch": 42, "duration": 60, "velocity": 100}, {"time": 56882, "pitch": 42, "duration": 60, "velocity": 70}, {"time": 57042, "pitch": 38, "duration": 60, "velocity": 64}, {"time": 57122, "pitch": 36, "duration": 60, "velocity": 90}, {"time": 57122, "pitch": 42, "duration": 60, "velocity": 110}, {"time": 57362, "pitch": 42, "duration": 60, "velocity": 70}, {"time": 57602, "pitch": 38, "duration": 59, "velocity": 116}, {"time": 57602, "pitch": 42, "duration": 59, "velocity": 105}, {"time": 57841, "pitch": 42, "duration": 60, "velocity": 70}, {"time": 58001, "pitch": 38, "duration": 60, "velocity": 64}, {"time": 58081, "pitch": 36, "duration": 60, "velocity": 90}, {"time": 58081, "pitch": 42, "duration": 60, "velocity": 100}, {"time": 58241, "pitch": 38, "duration": 60, "velocity": 74}, {"time": 58321, "pitch": 36, "duration": 60, "velocity": 70}, {"time": 58321, "pitch": 46, "duration": 60, "velocity": 100}, {"time": 58561, "pitch": 38, "duration": 60, "velocity": 116}, {"time": 58561, "pitch": 42, "duration": 60, "velocity": 100}, {"time": 58800, "pitch": 42, "duration": 60, "velocity": 70}, {"time": 58960, "pitch": 38, "duration": 60, "velocity": 64}, {"time": 59040, "pitch": 36, "duration": 60, "velocity": 90}, {"time": 59040, "pitch": 42, "duration": 60, "velocity": 110}, {"time": 59280, "pitch": 42, "duration": 60, "velocity": 70}, {"time": 59520, "pitch": 38, "duration": 60, "velocity": 116}, {"time": 59520, "pitch": 42, "duration": 60, "velocity": 105}, {"time": 59759, "pitch": 42, "duration": 60, "velocity": 70}, {"time": 59919, "pitch": 38, "duration": 60, "velocity": 64}, {"time": 59999, "pitch": 36, "duration": 60, "velocity": 90}, {"time": 59999, "pitch": 42, "duration": 60, "velocity": 100}, {"time": 60159, "pitch": 38, "duration": 60, "velocity": 74}, {"time": 60239, "pitch": 36, "duration": 60, "velocity": 70}, {"time": 60239, "pitch": 46, "duration": 60, "velocity": 100}, {"time": 60479, "pitch": 38, "duration": 60, "velocity": 116}, {"time": 60479, "pitch": 42, "duration": 60, "velocity": 100}, {"time": 60718, "pitch": 42, "duration": 60, "velocity": 70}, {"time": 60878, "pitch": 38, "duration": 60, "velocity": 64}, {"time": 60958, "pitch": 36, "duration": 60, "velocity": 90}, {"time": 60958, "pitch": 42, "duration": 60, "velocity": 110}, {"time": 61198, "pitch": 42, "duration": 60, "velocity": 70}, {"time": 61438, "pitch": 38, "duration": 60, "velocity": 116}, {"time": 61438, "pitch": 42, "duration": 60, "velocity": 105}, {"time": 61677, "pitch": 42, "duration": 60, "velocity": 70}, {"time": 61837, "pitch": 38, "duration": 60, "velocity": 64}, {"time": 61917, "pitch": 36, "duration": 61, "velocity": 90}, {"time": 61917, "pitch": 42, "duration": 61, "velocity": 100}, {"time": 62079, "pitch": 38, "duration": 61, "velocity": 74}, {"time": 62160, "pitch": 36, "duration": 61, "velocity": 70}, {"time": 62160, "pitch": 46, "duration": 61, "velocity": 100}, {"time": 62403, "pitch": 38, "duration": 60, "velocity": 116}, {"time": 62403, "pitch": 42, "duration": 60, "velocity": 100}, {"time": 62643, "pitch": 46, "duration": 60, "velocity": 106}, {"time": 62802, "pitch": 38, "duration": 60, "velocity": 64}, {"time": 62882, "pitch": 36, "duration": 60, "velocity": 90}, {"time": 62882, "pitch": 42, "duration": 60, "velocity": 110}, {"time": 63122, "pitch": 42, "duration": 60, "velocity": 70}, {"time": 63362, "pitch": 38, "duration": 60, "velocity": 116}, {"time": 63362, "pitch": 42, "duration": 60, "velocity": 105}, {"time": 63602, "pitch": 42, "duration": 60, "velocity": 70}, {"time": 63762, "pitch": 38, "duration": 59, "velocity": 64}, {"time": 63841, "pitch": 36, "duration": 60, "velocity": 90}, {"time": 63841, "pitch": 42, "duration": 60, "velocity": 100}, {"time": 64001, "pitch": 38, "duration": 60, "velocity": 74}, {"time": 64081, "pitch": 36, "duration": 60, "velocity": 70}, {"time": 64081, "pitch": 46, "duration": 60, "velocity": 100}, {"time": 64321, "pitch": 38, "duration": 60, "velocity": 116}, {"time": 64321, "pitch": 42, "duration": 60, "velocity": 100}, {"time": 64561, "pitch": 42, "duration": 60, "velocity": 70}, {"time": 64721, "pitch": 38, "duration": 60, "velocity": 64}, {"time": 64800, "pitch": 36, "duration": 60, "velocity": 90}, {"time": 64800, "pitch": 42, "duration": 60, "velocity": 110}, {"time": 65040, "pitch": 42, "duration": 60, "velocity": 70}, {"time": 65280, "pitch": 38, "duration": 60, "velocity": 116}, {"time": 65280, "pitch": 42, "duration": 60, "velocity": 105}, {"time": 65520, "pitch": 42, "duration": 60, "velocity": 70}, {"time": 65680, "pitch": 38, "duration": 60, "velocity": 64}, {"time": 65760, "pitch": 36, "duration": 59, "velocity": 90}, {"time": 65760, "pitch": 42, "duration": 59, "velocity": 100}, {"time": 65919, "pitch": 38, "duration": 60, "velocity": 74}, {"time": 65999, "pitch": 36, "duration": 60, "velocity": 70}, {"time": 65999, "pitch": 46, "duration": 60, "velocity": 100}, {"time": 66239, "pitch": 38, "duration": 60, "velocity": 116}, {"time": 66239, "pitch": 42, "duration": 60, "velocity": 100}, {"time": 66479, "pitch": 42, "duration": 60, "velocity": 70}, {"time": 66639, "pitch": 38, "duration": 60, "velocity": 64}, {"time": 66719, "pitch": 36, "duration": 60, "velocity": 90}, {"time": 66719, "pitch": 42, "duration": 60, "velocity": 110}, {"time": 66958, "pitch": 42, "duration": 60, "velocity": 70}, {"time": 67198, "pitch": 38, "duration": 60, "velocity": 116}, {"time": 67198, "pitch": 42, "duration": 60, "velocity": 105}, {"time": 67438, "pitch": 42, "duration": 60, "velocity": 70}, {"time": 67598, "pitch": 38, "duration": 60, "velocity": 64}, {"time": 67678, "pitch": 36, "duration": 60, "velocity": 90}, {"time": 67678, "pitch": 42, "duration": 60, "velocity": 100}, {"time": 67837, "pitch": 38, "duration": 60, "velocity": 74}, {"time": 67917, "pitch": 36, "duration": 60, "velocity": 70}, {"time": 67917, "pitch": 46, "duration": 60, "velocity": 100}, {"time": 68157, "pitch": 38, "duration": 61, "velocity": 116}, {"time": 68157, "pitch": 42, "duration": 61, "velocity": 100}, {"time": 68400, "pitch": 42, "duration": 61, "velocity": 70}, {"time": 68562, "pitch": 38, "duration": 61, "velocity": 64}, {"time": 68643, "pitch": 36, "duration": 60, "velocity": 90}, {"time": 68643, "pitch": 42, "duration": 60, "velocity": 110}, {"time": 68883, "pitch": 42, "duration": 60, "velocity": 70}, {"time": 69122, "pitch": 38, "duration": 60, "velocity": 116}, {"time": 69122, "pitch": 42, "duration": 60, "velocity": 105}, {"time": 69362, "pitch": 42, "duration": 60, "velocity": 70}, {"time": 69522, "pitch": 38, "duration": 60, "velocity": 64}, {"time": 69602, "pitch": 36, "duration": 60, "velocity": 90}, {"time": 69602, "pitch": 42, "duration": 60, "velocity": 100}, {"time": 69762, "pitch": 38, "duration": 60, "velocity": 74}, {"time": 69842, "pitch": 36, "duration": 60, "velocity": 70}, {"time": 69842, "pitch": 46, "duration": 60, "velocity": 100}, {"time": 70081, "pitch": 38, "duration": 60, "velocity": 116}, {"time": 70081, "pitch": 42, "duration": 60, "velocity": 100}, {"time": 70241, "pitch": 38, "duration": 60, "velocity": 120}, {"time": 70321, "pitch": 41, "duration": 60, "velocity": 116}, {"time": 70561, "pitch": 36, "duration": 60, "velocity": 90}, {"time": 70561, "pitch": 57, "duration": 60, "velocity": 100}, {"time": 70801, "pitch": 42, "duration": 60, "velocity": 70}, {"time": 71040, "pitch": 38, "duration": 60, "velocity": 116}, {"time": 71040, "pitch": 51, "duration": 60, "velocity": 105}, {"time": 71280, "pitch": 42, "duration": 60, "velocity": 70}, {"time": 71440, "pitch": 38, "duration": 60, "velocity": 64}, {"time": 71520, "pitch": 36, "duration": 60, "velocity": 90}, {"time": 71520, "pitch": 42, "duration": 60, "velocity": 100}, {"time": 71680, "pitch": 38, "duration": 60, "velocity": 74}, {"time": 71760, "pitch": 36, "duration": 60, "velocity": 70}, {"time": 71760, "pitch": 46, "duration": 60, "velocity": 100}, {"time": 71999, "pitch": 38, "duration": 60, "velocity": 116}, {"time": 71999, "pitch": 42, "duration": 60, "velocity": 100}, {"time": 72239, "pitch": 42, "duration": 60, "velocity": 70}, {"time": 72399, "pitch": 38, "duration": 60, "velocity": 64}, {"time": 72479, "pitch": 36, "duration": 60, "velocity": 90}, {"time": 72479, "pitch": 42, "duration": 60, "velocity": 110}, {"time": 72719, "pitch": 42, "duration": 60, "velocity": 70}, {"time": 72958, "pitch": 38, "duration": 60, "velocity": 116}, {"time": 72958, "pitch": 51, "duration": 60, "velocity": 105}, {"time": 73198, "pitch": 42, "duration": 60, "velocity": 70}, {"time": 73358, "pitch": 38, "duration": 60, "velocity": 64}, {"time": 73438, "pitch": 36, "duration": 60, "velocity": 90}, {"time": 73438, "pitch": 42, "duration": 60, "velocity": 100}, {"time": 73598, "pitch": 38, "duration": 60, "velocity": 74}, {"time": 73678, "pitch": 36, "duration": 60, "velocity": 70}, {"time": 73678, "pitch": 46, "duration": 60, "velocity": 100}, {"time": 73918, "pitch": 38, "duration": 59, "velocity": 116}, {"time": 73918, "pitch": 42, "duration": 59, "velocity": 100}, {"time": 74157, "pitch": 46, "duration": 60, "velocity": 100}, {"time": 74317, "pitch": 38, "duration": 60, "velocity": 64}, {"time": 74397, "pitch": 36, "duration": 61, "velocity": 90}, {"time": 74397, "pitch": 42, "duration": 61, "velocity": 110}, {"time": 74640, "pitch": 42, "duration": 61, "velocity": 70}, {"time": 74883, "pitch": 38, "duration": 60, "velocity": 116}, {"time": 74883, "pitch": 51, "duration": 60, "velocity": 105}, {"time": 75122, "pitch": 42, "duration": 60, "velocity": 70}, {"time": 75282, "pitch": 38, "duration": 60, "velocity": 64}, {"time": 75362, "pitch": 36, "duration": 60, "velocity": 90}, {"time": 75362, "pitch": 42, "duration": 60, "velocity": 100}, {"time": 75522, "pitch": 38, "duration": 60, "velocity": 74}, {"time": 75602, "pitch": 36, "duration": 60, "velocity": 70}, {"time": 75602, "pitch": 46, "duration": 60, "velocity": 100}, {"time": 75842, "pitch": 38, "duration": 60, "velocity": 116}, {"time": 75842, "pitch": 42, "duration": 60, "velocity": 100}, {"time": 75842, "pitch": 57, "duration": 60, "velocity": 105}, {"time": 76321, "pitch": 36, "duration": 60, "velocity": 90}, {"time": 76321, "pitch": 42, "duration": 60, "velocity": 110}, {"time": 76321, "pitch": 49, "duration": 60, "velocity": 105}, {"time": 76561, "pitch": 42, "duration": 60, "velocity": 70}, {"time": 76801, "pitch": 38, "duration": 60, "velocity": 116}, {"time": 76801, "pitch": 49, "duration": 60, "velocity": 85}, {"time": 77041, "pitch": 42, "duration": 60, "velocity": 70}, {"time": 77200, "pitch": 38, "duration": 60, "velocity": 64}, {"time": 77280, "pitch": 36, "duration": 60, "velocity": 90}, {"time": 77280, "pitch": 42, "duration": 60, "velocity": 100}, {"time": 77440, "pitch": 42, "duration": 60, "velocity": 70}, {"time": 77520, "pitch": 38, "duration": 60, "velocity": 116}, {"time": 77520, "pitch": 57, "duration": 60, "velocity": 100}, {"time": 77760, "pitch": 38, "duration": 60, "velocity": 110}, {"time": 77920, "pitch": 45, "duration": 60, "velocity": 106}, {"time": 78000, "pitch": 43, "duration": 60, "velocity": 106}, {"time": 78239, "pitch": 36, "duration": 60, "velocity": 90}, {"time": 78239, "pitch": 49, "duration": 60, "velocity": 100}, {"time": 78479, "pitch": 42, "duration": 60, "velocity": 70}, {"time": 78719, "pitch": 38, "duration": 60, "velocity": 116}, {"time": 78719, "pitch": 42, "duration": 60, "velocity": 105}, {"time": 78959, "pitch": 42, "duration": 60, "velocity": 70}, {"time": 79118, "pitch": 38, "duration": 60, "velocity": 64}, {"time": 79198, "pitch": 36, "duration": 60, "velocity": 90}, {"time": 79198, "pitch": 42, "duration": 60, "velocity": 100}, {"time": 79358, "pitch": 38, "duration": 60, "velocity": 74}, {"time": 79438, "pitch": 36, "duration": 60, "velocity": 70}, {"time": 79438, "pitch": 46, "duration": 60, "velocity": 104}, {"time": 79678, "pitch": 38, "duration": 60, "velocity": 116}, {"time": 79678, "pitch": 42, "duration": 60, "velocity": 100}, {"time": 79918, "pitch": 42, "duration": 60, "velocity": 70}, {"time": 80078, "pitch": 38, "duration": 59, "velocity": 64}, {"time": 80157, "pitch": 36, "duration": 60, "velocity": 90}, {"time": 80157, "pitch": 42, "duration": 60, "velocity": 110}, {"time": 80397, "pitch": 42, "duration": 60, "velocity": 70}, {"time": 80637, "pitch": 38, "duration": 61, "velocity": 116}, {"time": 80637, "pitch": 42, "duration": 61, "velocity": 105}, {"time": 80880, "pitch": 42, "duration": 61, "velocity": 70}, {"time": 81042, "pitch": 38, "duration": 60, "velocity": 64}, {"time": 81123, "pitch": 36, "duration": 60, "velocity": 90}, {"time": 81123, "pitch": 42, "duration": 60, "velocity": 100}, {"time": 81282, "pitch": 38, "duration": 60, "velocity": 74}, {"time": 81362, "pitch": 36, "duration": 60, "velocity": 70}, {"time": 81362, "pitch": 46, "duration": 60, "velocity": 104}, {"time": 81602, "pitch": 38, "duration": 60, "velocity": 116}, {"time": 81602, "pitch": 42, "duration": 60, "velocity": 100}, {"time": 81842, "pitch": 42, "duration": 60, "velocity": 70}, {"time": 82002, "pitch": 38, "duration": 60, "velocity": 64}, {"time": 82082, "pitch": 36, "duration": 60, "velocity": 90}, {"time": 82082, "pitch": 42, "duration": 60, "velocity": 110}, {"time": 82321, "pitch": 42, "duration": 60, "velocity": 70}, {"time": 82561, "pitch": 38, "duration": 60, "velocity": 116}, {"time": 82561, "pitch": 42, "duration": 60, "velocity": 105}, {"time": 82801, "pitch": 42, "duration": 60, "velocity": 70}, {"time": 82961, "pitch": 38, "duration": 60, "velocity": 64}, {"time": 83041, "pitch": 36, "duration": 60, "velocity": 90}, {"time": 83041, "pitch": 42, "duration": 60, "velocity": 100}, {"time": 83201, "pitch": 38, "duration": 59, "velocity": 74}, {"time": 83280, "pitch": 36, "duration": 60, "velocity": 70}, {"time": 83280, "pitch": 46, "duration": 60, "velocity": 104}, {"time": 83520, "pitch": 38, "duration": 60, "velocity": 116}, {"time": 83520, "pitch": 42, "duration": 60, "velocity": 100}, {"time": 83760, "pitch": 42, "duration": 60, "velocity": 70}, {"time": 83920, "pitch": 38, "duration": 60, "velocity": 64}, {"time": 84000, "pitch": 36, "duration": 60, "velocity": 90}, {"time": 84000, "pitch": 42, "duration": 60, "velocity": 110}, {"time": 84240, "pitch": 42, "duration": 59, "velocity": 70}, {"time": 84479, "pitch": 38, "duration": 60, "velocity": 116}, {"time": 84479, "pitch": 42, "duration": 60, "velocity": 105}, {"time": 84719, "pitch": 42, "duration": 60, "velocity": 70}, {"time": 84879, "pitch": 38, "duration": 60, "velocity": 64}, {"time": 84959, "pitch": 36, "duration": 60, "velocity": 90}, {"time": 84959, "pitch": 42, "duration": 60, "velocity": 100}, {"time": 85119, "pitch": 38, "duration": 60, "velocity": 74}, {"time": 85199, "pitch": 36, "duration": 59, "velocity": 70}, {"time": 85199, "pitch": 46, "duration": 59, "velocity": 104}, {"time": 85438, "pitch": 47, "duration": 60, "velocity": 110}, {"time": 85598, "pitch": 45, "duration": 60, "velocity": 110}, {"time": 85678, "pitch": 41, "duration": 60, "velocity": 110}, {"time": 85918, "pitch": 36, "duration": 60, "velocity": 90}, {"time": 85918, "pitch": 49, "duration": 60, "velocity": 100}, {"time": 86158, "pitch": 42, "duration": 60, "velocity": 70}, {"time": 86397, "pitch": 38, "duration": 61, "velocity": 116}, {"time": 86397, "pitch": 42, "duration": 61, "velocity": 105}, {"time": 86640, "pitch": 42, "duration": 61, "velocity": 70}, {"time": 86802, "pitch": 38, "duration": 61, "velocity": 64}, {"time": 86883, "pitch": 36, "duration": 60, "velocity": 90}, {"time": 86883, "pitch": 42, "duration": 60, "velocity": 100}, {"time": 87043, "pitch": 38, "duration": 60, "velocity": 74}, {"time": 87123, "pitch": 36, "duration": 60, "velocity": 70}, {"time": 87123, "pitch": 46, "duration": 60, "velocity": 104}, {"time": 87363, "pitch": 38, "duration": 59, "velocity": 116}, {"time": 87363, "pitch": 42, "duration": 59, "velocity": 100}, {"time": 87602, "pitch": 42, "duration": 60, "velocity": 70}, {"time": 87762, "pitch": 38, "duration": 60, "velocity": 64}, {"time": 87842, "pitch": 36, "duration": 60, "velocity": 90}, {"time": 87842, "pitch": 42, "duration": 60, "velocity": 110}, {"time": 88082, "pitch": 42, "duration": 60, "velocity": 70}, {"time": 88322, "pitch": 38, "duration": 60, "velocity": 116}, {"time": 88322, "pitch": 42, "duration": 60, "velocity": 105}, {"time": 88561, "pitch": 42, "duration": 60, "velocity": 70}, {"time": 88721, "pitch": 38, "duration": 60, "velocity": 64}, {"time": 88801, "pitch": 36, "duration": 60, "velocity": 90}, {"time": 88801, "pitch": 42, "duration": 60, "velocity": 100}, {"time": 88961, "pitch": 38, "duration": 60, "velocity": 74}, {"time": 89041, "pitch": 36, "duration": 60, "velocity": 70}, {"time": 89041, "pitch": 46, "duration": 60, "velocity": 104}, {"time": 89281, "pitch": 38, "duration": 60, "velocity": 116}, {"time": 89281, "pitch": 42, "duration": 60, "velocity": 100}, {"time": 89520, "pitch": 42, "duration": 60, "velocity": 70}, {"time": 89680, "pitch": 38, "duration": 60, "velocity": 64}, {"time": 89760, "pitch": 36, "duration": 60, "velocity": 90}, {"time": 89760, "pitch": 42, "duration": 60, "velocity": 110}, {"time": 90000, "pitch": 42, "duration": 60, "velocity": 70}, {"time": 90240, "pitch": 38, "duration": 60, "velocity": 116}, {"time": 90240, "pitch": 42, "duration": 60, "velocity": 105}, {"time": 90479, "pitch": 42, "duration": 60, "velocity": 70}, {"time": 90639, "pitch": 38, "duration": 60, "velocity": 64}, {"time": 90719, "pitch": 36, "duration": 60, "velocity": 90}, {"time": 90719, "pitch": 42, "duration": 60, "velocity": 100}, {"time": 90879, "pitch": 38, "duration": 60, "velocity": 74}, {"time": 90959, "pitch": 36, "duration": 60, "velocity": 70}, {"time": 90959, "pitch": 46, "duration": 60, "velocity": 104}, {"time": 91199, "pitch": 38, "duration": 60, "velocity": 116}, {"time": 91199, "pitch": 42, "duration": 60, "velocity": 100}, {"time": 91438, "pitch": 42, "duration": 60, "velocity": 70}, {"time": 91598, "pitch": 38, "duration": 60, "velocity": 64}, {"time": 91678, "pitch": 36, "duration": 60, "velocity": 90}, {"time": 91678, "pitch": 42, "duration": 60, "velocity": 110}, {"time": 91918, "pitch": 42, "duration": 60, "velocity": 70}, {"time": 92158, "pitch": 38, "duration": 60, "velocity": 116}, {"time": 92158, "pitch": 42, "duration": 60, "velocity": 105}, {"time": 92398, "pitch": 42, "duration": 59, "velocity": 70}, {"time": 92557, "pitch": 38, "duration": 60, "velocity": 64}, {"time": 92637, "pitch": 36, "duration": 61, "velocity": 90}, {"time": 92637, "pitch": 42, "duration": 61, "velocity": 100}, {"time": 92799, "pitch": 38, "duration": 61, "velocity": 74}, {"time": 92880, "pitch": 36, "duration": 61, "velocity": 70}, {"time": 92880, "pitch": 46, "duration": 61, "velocity": 104}, {"time": 93123, "pitch": 38, "duration": 60, "velocity": 116}, {"time": 93123, "pitch": 42, "duration": 60, "velocity": 100}, {"time": 93363, "pitch": 38, "duration": 60, "velocity": 120}, {"time": 93523, "pitch": 41, "duration": 59, "velocity": 100}, {"time": 93602, "pitch": 36, "duration": 60, "velocity": 90}, {"time": 93602, "pitch": 49, "duration": 60, "velocity": 100}, {"time": 93842, "pitch": 42, "duration": 60, "velocity": 70}, {"time": 94082, "pitch": 38, "duration": 60, "velocity": 116}, {"time": 94082, "pitch": 42, "duration": 60, "velocity": 105}, {"time": 94322, "pitch": 42, "duration": 60, "velocity": 70}, {"time": 94482, "pitch": 38, "duration": 60, "velocity": 64}, {"time": 94562, "pitch": 36, "duration": 59, "velocity": 90}, {"time": 94562, "pitch": 42, "duration": 59, "velocity": 100}, {"time": 94721, "pitch": 38, "duration": 60, "velocity": 74}, {"time": 94801, "pitch": 36, "duration": 60, "velocity": 70}, {"time": 94801, "pitch": 46, "duration": 60, "velocity": 100}, {"time": 95041, "pitch": 38, "duration": 60, "velocity": 116}, {"time": 95041, "pitch": 42, "duration": 60, "velocity": 100}, {"time": 95281, "pitch": 42, "duration": 60, "velocity": 70}, {"time": 95441, "pitch": 38, "duration": 60, "velocity": 64}, {"time": 95521, "pitch": 36, "duration": 59, "velocity": 90}, {"time": 95521, "pitch": 42, "duration": 59, "velocity": 110}, {"time": 95760, "pitch": 42, "duration": 60, "velocity": 70}, {"time": 96000, "pitch": 38, "duration": 60, "velocity": 116}, {"time": 96000, "pitch": 42, "duration": 60, "velocity": 105}, {"time": 96240, "pitch": 42, "duration": 60, "velocity": 70}, {"time": 96400, "pitch": 38, "duration": 60, "velocity": 64}, {"time": 96480, "pitch": 36, "duration": 60, "velocity": 90}, {"time": 96480, "pitch": 42, "duration": 60, "velocity": 100}, {"time": 96639, "pitch": 38, "duration": 60, "velocity": 74}, {"time": 96719, "pitch": 36, "duration": 60, "velocity": 70}, {"time": 96719, "pitch": 46, "duration": 60, "velocity": 100}, {"time": 96959, "pitch": 38, "duration": 60, "velocity": 116}, {"time": 96959, "pitch": 42, "duration": 60, "velocity": 100}, {"time": 97119, "pitch": 36, "duration": 60, "velocity": 90}, {"time": 97119, "pitch": 57, "duration": 60, "velocity": 100}, {"time": 97439, "pitch": 36, "duration": 60, "velocity": 90}, {"time": 97439, "pitch": 49, "duration": 60, "velocity": 100}, {"time": 97678, "pitch": 42, "duration": 60, "velocity": 70}, {"time": 97918, "pitch": 38, "duration": 60, "velocity": 116}, {"time": 97918, "pitch": 42, "duration": 60, "velocity": 105}, {"time": 98158, "pitch": 42, "duration": 60, "velocity": 70}, {"time": 98318, "pitch": 38, "duration": 60, "velocity": 64}, {"time": 98398, "pitch": 36, "duration": 60, "velocity": 90}, {"time": 98398, "pitch": 42, "duration": 60, "velocity": 100}, {"time": 98558, "pitch": 38, "duration": 59, "velocity": 74}, {"time": 98637, "pitch": 36, "duration": 60, "velocity": 70}, {"time": 98637, "pitch": 46, "duration": 60, "velocity": 100}, {"time": 98877, "pitch": 38, "duration": 61, "velocity": 116}, {"time": 98877, "pitch": 42, "duration": 61, "velocity": 100}, {"time": 99120, "pitch": 42, "duration": 61, "velocity": 70}, {"time": 99282, "pitch": 38, "duration": 61, "velocity": 64}, {"time": 99363, "pitch": 36, "duration": 60, "velocity": 90}, {"time": 99363, "pitch": 42, "duration": 60, "velocity": 110}, {"time": 99603, "pitch": 42, "duration": 60, "velocity": 70}, {"time": 99842, "pitch": 38, "duration": 60, "velocity": 116}, {"time": 99842, "pitch": 42, "duration": 60, "velocity": 105}, {"time": 100082, "pitch": 42, "duration": 60, "velocity": 70}, {"time": 100242, "pitch": 38, "duration": 60, "velocity": 64}, {"time": 100322, "pitch": 36, "duration": 60, "velocity": 90}, {"time": 100322, "pitch": 42, "duration": 60, "velocity": 100}, {"time": 100482, "pitch": 38, "duration": 60, "velocity": 74}, {"time": 100562, "pitch": 36, "duration": 60, "velocity": 70}, {"time": 100562, "pitch": 46, "duration": 60, "velocity": 100}, {"time": 100801, "pitch": 38, "duration": 60, "velocity": 116}, {"time": 100801, "pitch": 42, "duration": 60, "velocity": 100}, {"time": 100961, "pitch": 36, "duration": 60, "velocity": 90}, {"time": 100961, "pitch": 57, "duration": 60, "velocity": 100}, {"time": 101281, "pitch": 36, "duration": 60, "velocity": 90}, {"time": 101281, "pitch": 49, "duration": 60, "velocity": 100}, {"time": 101521, "pitch": 42, "duration": 60, "velocity": 70}, {"time": 101760, "pitch": 38, "duration": 60, "velocity": 116}, {"time": 101760, "pitch": 42, "duration": 60, "velocity": 105}, {"time": 102000, "pitch": 42, "duration": 60, "velocity": 70}, {"time": 102160, "pitch": 38, "duration": 60, "velocity": 64}, {"time": 102240, "pitch": 36, "duration": 60, "velocity": 90}, {"time": 102240, "pitch": 42, "duration": 60, "velocity": 100}, {"time": 102400, "pitch": 38, "duration": 60, "velocity": 74}, {"time": 102480, "pitch": 36, "duration": 60, "velocity": 70}, {"time": 102480, "pitch": 46, "duration": 60, "velocity": 100}, {"time": 102719, "pitch": 38, "duration": 60, "velocity": 116}, {"time": 102719, "pitch": 42, "duration": 60, "velocity": 100}, {"time": 102959, "pitch": 42, "duration": 60, "velocity": 70}, {"time": 103119, "pitch": 38, "duration": 60, "velocity": 64}, {"time": 103199, "pitch": 36, "duration": 60, "velocity": 90}, {"time": 103199, "pitch": 49, "duration": 60, "velocity": 100}, {"time": 103439, "pitch": 42, "duration": 60, "velocity": 70}, {"time": 103679, "pitch": 38, "duration": 59, "velocity": 116}, {"time": 103679, "pitch": 42, "duration": 59, "velocity": 105}, {"time": 103918, "pitch": 42, "duration": 60, "velocity": 70}, {"time": 104078, "pitch": 38, "duration": 60, "velocity": 64}, {"time": 104158, "pitch": 36, "duration": 60, "velocity": 90}, {"time": 104158, "pitch": 42, "duration": 60, "velocity": 100}, {"time": 104318, "pitch": 38, "duration": 60, "velocity": 74}, {"time": 104398, "pitch": 36, "duration": 60, "velocity": 70}, {"time": 104398, "pitch": 46, "duration": 60, "velocity": 100}, {"time": 104638, "pitch": 38, "duration": 60, "velocity": 116}, {"time": 104638, "pitch": 42, "duration": 60, "velocity": 100}, {"time": 104877, "pitch": 42, "duration": 60, "velocity": 70}, {"time": 105037, "pitch": 38, "duration": 60, "velocity": 64}, {"time": 105117, "pitch": 36, "duration": 61, "velocity": 90}, {"time": 105117, "pitch": 42, "duration": 61, "velocity": 110}, {"time": 105360, "pitch": 42, "duration": 61, "velocity": 70}, {"time": 105603, "pitch": 38, "duration": 60, "velocity": 116}, {"time": 105603, "pitch": 51, "duration": 60, "velocity": 105}, {"time": 105843, "pitch": 42, "duration": 59, "velocity": 70}, {"time": 106002, "pitch": 38, "duration": 60, "velocity": 64}, {"time": 106082, "pitch": 36, "duration": 60, "velocity": 90}, {"time": 106082, "pitch": 42, "duration": 60, "velocity": 100}, {"time": 106242, "pitch": 38, "duration": 60, "velocity": 74}, {"time": 106322, "pitch": 36, "duration": 60, "velocity": 70}, {"time": 106322, "pitch": 46, "duration": 60, "velocity": 100}, {"time": 106562, "pitch": 38, "duration": 60, "velocity": 116}, {"time": 106562, "pitch": 42, "duration": 60, "velocity": 100}, {"time": 106562, "pitch": 57, "duration": 60, "velocity": 105}, {"time": 107041, "pitch": 36, "duration": 60, "velocity": 90}, {"time": 107041, "pitch": 42, "duration": 60, "velocity": 110}, {"time": 107041, "pitch": 49, "duration": 60, "velocity": 105}, {"time": 107281, "pitch": 42, "duration": 60, "velocity": 70}, {"time": 107521, "pitch": 38, "duration": 60, "velocity": 116}, {"time": 107521, "pitch": 49, "duration": 60, "velocity": 85}, {"time": 107761, "pitch": 42, "duration": 60, "velocity": 70}, {"time": 107920, "pitch": 38, "duration": 60, "velocity": 64}, {"time": 108000, "pitch": 36, "duration": 60, "velocity": 90}, {"time": 108000, "pitch": 42, "duration": 60, "velocity": 100}, {"time": 108000, "pitch": 57, "duration": 60, "velocity": 100}, {"time": 108160, "pitch": 42, "duration": 60, "velocity": 70}, {"time": 108240, "pitch": 38, "duration": 60, "velocity": 116}, {"time": 108480, "pitch": 50, "duration": 60, "velocity": 110}, {"time": 108560, "pitch": 48, "duration": 60, "velocity": 90}, {"time": 108640, "pitch": 47, "duration": 60, "velocity": 90}, {"time": 108720, "pitch": 45, "duration": 60, "velocity": 100}, {"time": 108800, "pitch": 43, "duration": 60, "velocity": 90}, {"time": 108879, "pitch": 41, "duration": 60, "velocity": 90}, {"time": 108959, "pitch": 36, "duration": 60, "velocity": 90}, {"time": 108959, "pitch": 49, "duration": 60, "velocity": 100}, {"time": 109199, "pitch": 42, "duration": 60, "velocity": 70}, {"time": 109439, "pitch": 38, "duration": 60, "velocity": 116}, {"time": 109439, "pitch": 42, "duration": 60, "velocity": 105}, {"time": 109679, "pitch": 42, "duration": 60, "velocity": 70}, {"time": 109839, "pitch": 38, "duration": 59, "velocity": 64}, {"time": 109918, "pitch": 36, "duration": 60, "velocity": 90}, {"time": 109918, "pitch": 42, "duration": 60, "velocity": 100}, {"time": 110078, "pitch": 38, "duration": 60, "velocity": 74}, {"time": 110158, "pitch": 36, "duration": 60, "velocity": 70}, {"time": 110158, "pitch": 46, "duration": 60, "velocity": 104}, {"time": 110398, "pitch": 38, "duration": 60, "velocity": 116}, {"time": 110398, "pitch": 42, "duration": 60, "velocity": 100}, {"time": 110638, "pitch": 42, "duration": 60, "velocity": 70}, {"time": 110798, "pitch": 38, "duration": 60, "velocity": 64}, {"time": 110877, "pitch": 36, "duration": 60, "velocity": 90}, {"time": 110877, "pitch": 42, "duration": 60, "velocity": 110}, {"time": 111117, "pitch": 42, "duration": 60, "velocity": 70}, {"time": 111357, "pitch": 38, "duration": 61, "velocity": 116}, {"time": 111357, "pitch": 42, "duration": 61, "velocity": 105}, {"time": 111600, "pitch": 42, "duration": 61, "velocity": 70}, {"time": 111762, "pitch": 38, "duration": 60, "velocity": 64}, {"time": 111843, "pitch": 36, "duration": 60, "velocity": 90}, {"time": 111843, "pitch": 42, "duration": 60, "velocity": 100}, {"time": 112003, "pitch": 38, "duration": 59, "velocity": 74}, {"time": 112082, "pitch": 36, "duration": 60, "velocity": 70}, {"time": 112082, "pitch": 46, "duration": 60, "velocity": 104}, {"time": 112322, "pitch": 38, "duration": 60, "velocity": 116}, {"time": 112322, "pitch": 42, "duration": 60, "velocity": 100}, {"time": 112562, "pitch": 42, "duration": 60, "velocity": 70}, {"time": 112722, "pitch": 38, "duration": 60, "velocity": 64}, {"time": 112802, "pitch": 36, "duration": 60, "velocity": 90}, {"time": 112802, "pitch": 42, "duration": 60, "velocity": 110}, {"time": 113041, "pitch": 42, "duration": 60, "velocity": 70}, {"time": 113281, "pitch": 38, "duration": 60, "velocity": 116}, {"time": 113281, "pitch": 42, "duration": 60, "velocity": 105}, {"time": 113521, "pitch": 42, "duration": 60, "velocity": 70}, {"time": 113681, "pitch": 38, "duration": 60, "velocity": 64}, {"time": 113761, "pitch": 36, "duration": 60, "velocity": 90}, {"time": 113761, "pitch": 42, "duration": 60, "velocity": 100}, {"time": 113921, "pitch": 38, "duration": 60, "velocity": 74}, {"time": 114001, "pitch": 36, "duration": 59, "velocity": 70}, {"time": 114001, "pitch": 46, "duration": 59, "velocity": 104}, {"time": 114240, "pitch": 38, "duration": 60, "velocity": 116}, {"time": 114240, "pitch": 42, "duration": 60, "velocity": 100}, {"time": 114480, "pitch": 42, "duration": 60, "velocity": 70}, {"time": 114640, "pitch": 38, "duration": 60, "velocity": 64}, {"time": 114720, "pitch": 36, "duration": 60, "velocity": 90}, {"time": 114720, "pitch": 42, "duration": 60, "velocity": 110}, {"time": 114960, "pitch": 42, "duration": 60, "velocity": 70}, {"time": 115199, "pitch": 38, "duration": 60, "velocity": 116}, {"time": 115199, "pitch": 42, "duration": 60, "velocity": 105}, {"time": 115439, "pitch": 42, "duration": 60, "velocity": 70}, {"time": 115599, "pitch": 38, "duration": 60, "velocity": 64}, {"time": 115679, "pitch": 36, "duration": 60, "velocity": 90}, {"time": 115679, "pitch": 42, "duration": 60, "velocity": 100}, {"time": 115839, "pitch": 36, "duration": 60, "velocity": 70}, {"time": 115919, "pitch": 36, "duration": 60, "velocity": 74}, {"time": 115919, "pitch": 38, "duration": 60, "velocity": 116}, {"time": 115919, "pitch": 46, "duration": 60, "velocity": 74}, {"time": 116158, "pitch": 50, "duration": 60, "velocity": 110}, {"time": 116238, "pitch": 48, "duration": 60, "velocity": 90}, {"time": 116318, "pitch": 47, "duration": 60, "velocity": 90}, {"time": 116398, "pitch": 45, "duration": 60, "velocity": 100}, {"time": 116478, "pitch": 43, "duration": 60, "velocity": 90}, {"time": 116558, "pitch": 41, "duration": 60, "velocity": 90}, {"time": 116638, "pitch": 36, "duration": 60, "velocity": 90}, {"time": 116638, "pitch": 49, "duration": 60, "velocity": 100}, {"time": 116878, "pitch": 51, "duration": 60, "velocity": 80}, {"time": 117117, "pitch": 38, "duration": 60, "velocity": 116}, {"time": 117117, "pitch": 51, "duration": 60, "velocity": 115}, {"time": 117357, "pitch": 51, "duration": 60, "velocity": 80}, {"time": 117517, "pitch": 38, "duration": 60, "velocity": 64}, {"time": 117597, "pitch": 36, "duration": 61, "velocity": 90}, {"time": 117597, "pitch": 51, "duration": 61, "velocity": 110}, {"time": 117759, "pitch": 38, "duration": 61, "velocity": 74}, {"time": 117840, "pitch": 36, "duration": 60, "velocity": 70}, {"time": 117840, "pitch": 51, "duration": 60, "velocity": 114}, {"time": 118083, "pitch": 38, "duration": 60, "velocity": 116}, {"time": 118083, "pitch": 57, "duration": 60, "velocity": 110}, {"time": 118322, "pitch": 51, "duration": 60, "velocity": 80}, {"time": 118482, "pitch": 38, "duration": 60, "velocity": 64}, {"time": 118562, "pitch": 36, "duration": 60, "velocity": 90}, {"time": 118562, "pitch": 51, "duration": 60, "velocity": 120}, {"time": 118802, "pitch": 51, "duration": 60, "velocity": 80}, {"time": 119042, "pitch": 38, "duration": 60, "velocity": 116}, {"time": 119042, "pitch": 49, "duration": 60, "velocity": 115}, {"time": 119281, "pitch": 51, "duration": 60, "velocity": 80}, {"time": 119441, "pitch": 38, "duration": 60, "velocity": 64}, {"time": 119521, "pitch": 36, "duration": 60, "velocity": 90}, {"time": 119521, "pitch": 51, "duration": 60, "velocity": 110}, {"time": 119681, "pitch": 38, "duration": 60, "velocity": 74}, {"time": 119761, "pitch": 36, "duration": 60, "velocity": 70}, {"time": 119761, "pitch": 51, "duration": 60, "velocity": 114}, {"time": 120001, "pitch": 38, "duration": 60, "velocity": 116}, {"time": 120001, "pitch": 57, "duration": 60, "velocity": 110}, {"time": 120240, "pitch": 51, "duration": 60, "velocity": 80}, {"time": 120400, "pitch": 38, "duration": 60, "velocity": 64}, {"time": 120480, "pitch": 36, "duration": 60, "velocity": 90}, {"time": 120480, "pitch": 51, "duration": 60, "velocity": 120}, {"time": 120720, "pitch": 51, "duration": 60, "velocity": 80}, {"time": 120960, "pitch": 38, "duration": 60, "velocity": 116}, {"time": 120960, "pitch": 49, "duration": 60, "velocity": 115}, {"time": 121199, "pitch": 51, "duration": 60, "velocity": 80}, {"time": 121359, "pitch": 38, "duration": 60, "velocity": 64}, {"time": 121439, "pitch": 36, "duration": 60, "velocity": 90}, {"time": 121439, "pitch": 51, "duration": 60, "velocity": 110}, {"time": 121599, "pitch": 38, "duration": 60, "velocity": 74}, {"time": 121679, "pitch": 36, "duration": 60, "velocity": 70}, {"time": 121679, "pitch": 51, "duration": 60, "velocity": 114}, {"time": 121919, "pitch": 38, "duration": 60, "velocity": 116}, {"time": 121919, "pitch": 57, "duration": 60, "velocity": 110}, {"time": 122159, "pitch": 51, "duration": 59, "velocity": 80}, {"time": 122318, "pitch": 38, "duration": 60, "velocity": 64}, {"time": 122398, "pitch": 36, "duration": 60, "velocity": 90}, {"time": 122398, "pitch": 51, "duration": 60, "velocity": 120}, {"time": 122638, "pitch": 51, "duration": 60, "velocity": 80}, {"time": 122878, "pitch": 38, "duration": 60, "velocity": 116}, {"time": 122878, "pitch": 49, "duration": 60, "velocity": 115}, {"time": 123118, "pitch": 51, "duration": 59, "velocity": 80}, {"time": 123277, "pitch": 38, "duration": 60, "velocity": 64}, {"time": 123357, "pitch": 36, "duration": 61, "velocity": 90}, {"time": 123357, "pitch": 51, "duration": 61, "velocity": 110}, {"time": 123519, "pitch": 38, "duration": 61, "velocity": 74}, {"time": 123600, "pitch": 36, "duration": 61, "velocity": 70}, {"time": 123600, "pitch": 51, "duration": 61, "velocity": 114}, {"time": 123843, "pitch": 38, "duration": 60, "velocity": 116}, {"time": 123843, "pitch": 51, "duration": 60, "velocity": 110}, {"time": 124083, "pitch": 38, "duration": 60, "velocity": 120}, {"time": 124243, "pitch": 41, "duration": 60, "velocity": 100}, {"time": 124323, "pitch": 36, "duration": 59, "velocity": 90}, {"time": 124323, "pitch": 57, "duration": 59, "velocity": 100}, {"time": 124562, "pitch": 51, "duration": 60, "velocity": 80}, {"time": 124802, "pitch": 38, "duration": 60, "velocity": 116}, {"time": 124802, "pitch": 51, "duration": 60, "velocity": 115}, {"time": 125042, "pitch": 51, "duration": 60, "velocity": 80}, {"time": 125202, "pitch": 38, "duration": 60, "velocity": 64}, {"time": 125282, "pitch": 36, "duration": 59, "velocity": 90}, {"time": 125282, "pitch": 51, "duration": 59, "velocity": 110}, {"time": 125441, "pitch": 38, "duration": 60, "velocity": 74}, {"time": 125521, "pitch": 36, "duration": 60, "velocity": 70}, {"time": 125521, "pitch": 51, "duration": 60, "velocity": 114}, {"time": 125761, "pitch": 38, "duration": 60, "velocity": 116}, {"time": 125761, "pitch": 51, "duration": 60, "velocity": 110}, {"time": 126001, "pitch": 51, "duration": 60, "velocity": 80}, {"time": 126161, "pitch": 38, "duration": 60, "velocity": 64}, {"time": 126241, "pitch": 36, "duration": 60, "velocity": 90}, {"time": 126241, "pitch": 51, "duration": 60, "velocity": 100}, {"time": 126480, "pitch": 51, "duration": 60, "velocity": 80}, {"time": 126720, "pitch": 38, "duration": 60, "velocity": 116}, {"time": 126720, "pitch": 51, "duration": 60, "velocity": 115}, {"time": 126960, "pitch": 51, "duration": 60, "velocity": 80}, {"time": 127120, "pitch": 38, "duration": 60, "velocity": 64}, {"time": 127200, "pitch": 36, "duration": 60, "velocity": 90}, {"time": 127200, "pitch": 51, "duration": 60, "velocity": 110}, {"time": 127359, "pitch": 38, "duration": 60, "velocity": 74}, {"time": 127439, "pitch": 36, "duration": 60, "velocity": 70}, {"time": 127439, "pitch": 51, "duration": 60, "velocity": 114}, {"time": 127679, "pitch": 38, "duration": 60, "velocity": 116}, {"time": 127679, "pitch": 51, "duration": 60, "velocity": 110}, {"time": 127919, "pitch": 51, "duration": 60, "velocity": 80}, {"time": 128079, "pitch": 38, "duration": 60, "velocity": 64}, {"time": 128159, "pitch": 36, "duration": 60, "velocity": 90}, {"time": 128159, "pitch": 51, "duration": 60, "velocity": 100}, {"time": 128398, "pitch": 51, "duration": 60, "velocity": 80}, {"time": 128638, "pitch": 38, "duration": 60, "velocity": 116}, {"time": 128638, "pitch": 51, "duration": 60, "velocity": 115}, {"time": 128878, "pitch": 51, "duration": 60, "velocity": 80}, {"time": 129038, "pitch": 38, "duration": 60, "velocity": 64}, {"time": 129118, "pitch": 36, "duration": 60, "velocity": 90}, {"time": 129118, "pitch": 51, "duration": 60, "velocity": 110}, {"time": 129278, "pitch": 38, "duration": 59, "velocity": 74}, {"time": 129357, "pitch": 36, "duration": 60, "velocity": 70}, {"time": 129357, "pitch": 51, "duration": 60, "velocity": 114}, {"time": 129597, "pitch": 38, "duration": 61, "velocity": 116}, {"time": 129597, "pitch": 51, "duration": 61, "velocity": 110}, {"time": 129840, "pitch": 51, "duration": 61, "velocity": 80}, {"time": 130002, "pitch": 38, "duration": 61, "velocity": 64}, {"time": 130083, "pitch": 36, "duration": 60, "velocity": 90}, {"time": 130083, "pitch": 51, "duration": 60, "velocity": 100}, {"time": 130323, "pitch": 38, "duration": 60, "velocity": 116}, {"time": 130323, "pitch": 51, "duration": 60, "velocity": 80}, {"time": 130562, "pitch": 38, "duration": 60, "velocity": 116}, {"time": 130562, "pitch": 48, "duration": 60, "velocity": 116}, {"time": 130722, "pitch": 47, "duration": 60, "velocity": 116}, {"time": 130802, "pitch": 41, "duration": 60, "velocity": 116}, {"time": 130962, "pitch": 38, "duration": 60, "velocity": 64}, {"time": 131042, "pitch": 36, "duration": 60, "velocity": 90}, {"time": 131042, "pitch": 49, "duration": 60, "velocity": 110}], "annotations": [{"time": 160, "annotation": {"number": 0, "value": 0}, "group": "control_change"}, {"time": 176, "annotation": {"number": 32, "value": 2}, "group": "control_change"}, {"time": 224, "annotation": {"number": 7, "value": 98}, "group": "control_change"}, {"time": 240, "annotation": {"number": 11, "value": 127}, "group": "control_change"}, {"time": 256, "annotation": {"number": 91, "value": 40}, "group": "control_change"}, {"time": 288, "annotation": {"number": 99, "value": 24}, "group": "control_change"}, {"time": 304, "annotation": {"number": 98, "value": 0}, "group": "control_change"}, {"time": 320, "annotation": {"number": 6, "value": 0}, "group": "control_change"}, {"time": 368, "annotation": {"number": 99, "value": 26}, "group": "control_change"}, {"time": 384, "annotation": {"number": 98, "value": 0}, "group": "control_change"}, {"time": 400, "annotation": {"number": 6, "value": 0}, "group": "control_change"}, {"time": 432, "annotation": {"number": 99, "value": 28}, "group": "control_change"}, {"time": 448, "annotation": {"number": 98, "value": 0}, "group": "control_change"}, {"time": 464, "annotation": {"number": 6, "value": 0}, "group": "control_change"}, {"time": 495, "annotation": {"number": 99, "value": 29}, "group": "control_change"}, {"time": 551, "annotation": {"number": 98, "value": 0}, "group": "control_change"}, {"time": 606, "annotation": {"number": 6, "value": 0}, "group": "control_change"}, {"time": 1380, "annotation": {"number": 101, "value": 127}, "group": "control_change"}, {"time": 1435, "annotation": {"number": 100, "value": 127}, "group": "control_change"}]}, {"program": 0, "is_drum": false, "name": "E.GUITAR 2", "annotations": [{"time": 160, "annotation": {"number": 0, "value": 0}, "group": "control_change"}, {"time": 176, "annotation": {"number": 32, "value": 2}, "group": "control_change"}]}, {"program": 30, "is_drum": false, "name": "E.GUITAR 2", "notes": [{"time": 1442, "pitch": 54, "duration": 1199, "velocity": 107}, {"time": 2881, "pitch": 57, "duration": 120, "velocity": 117}, {"time": 3121, "pitch": 59, "duration": 120, "velocity": 112}, {"time": 3360, "pitch": 61, "duration": 1439, "velocity": 114}, {"time": 5278, "pitch": 54, "duration": 1199, "velocity": 107}, {"time": 6717, "pitch": 57, "duration": 121, "velocity": 117}, {"time": 6960, "pitch": 59, "duration": 121, "velocity": 112}, {"time": 7203, "pitch": 61, "duration": 1438, "velocity": 114}, {"time": 93602, "pitch": 54, "duration": 1199, "velocity": 107}, {"time": 95041, "pitch": 57, "duration": 120, "velocity": 117}, {"time": 95281, "pitch": 59, "duration": 120, "velocity": 112}, {"time": 95521, "pitch": 61, "duration": 1438, "velocity": 114}, {"time": 97439, "pitch": 54, "duration": 1198, "velocity": 107}, {"time": 98877, "pitch": 57, "duration": 122, "velocity": 117}, {"time": 99120, "pitch": 59, "duration": 121, "velocity": 112}, {"time": 99363, "pitch": 61, "duration": 1438, "velocity": 114}], "annotations": [{"time": 224, "annotation": {"number": 7, "value": 100}, "group": "control_change"}, {"time": 240, "annotation": {"number": 11, "value": 110}, "group": "control_change"}, {"time": 256, "annotation": {"number": 10, "value": 63}, "group": "control_change"}, {"time": 288, "annotation": {"number": 91, "value": 35}, "group": "control_change"}, {"time": 304, "annotation": {"number": 93, "value": 0}, "group": "control_change"}, {"time": 320, "annotation": {"number": 94, "value": 0}, "group": "control_change"}, {"time": 368, "annotation": {"number": 101, "value": 0}, "group": "control_change"}, {"time": 384, "annotation": {"number": 100, "value": 0}, "group": "control_change"}, {"time": 400, "annotation": {"number": 6, "value": 12}, "group": "control_change"}, {"time": 432, "annotation": {"number": 99, "value": 1}, "group": "control_change"}, {"time": 448, "annotation": {"number": 98, "value": 8}, "group": "control_change"}, {"time": 464, "annotation": {"number": 6, "value": 64}, "group": "control_change"}, {"time": 495, "annotation": {"number": 99, "value": 1}, "group": "control_change"}, {"time": 551, "annotation": {"number": 98, "value": 9}, "group": "control_change"}, {"time": 606, "annotation": {"number": 6, "value": 64}, "group": "control_change"}, {"time": 717, "annotation": {"number": 99, "value": 1}, "group": "control_change"}, {"time": 772, "annotation": {"number": 98, "value": 10}, "group": "control_change"}, {"time": 827, "annotation": {"number": 6, "value": 64}, "group": "control_change"}, {"time": 882, "annotation": {"number": 74, "value": 64}, "group": "control_change"}, {"time": 938, "annotation": {"number": 71, "value": 64}, "group": "control_change"}, {"time": 993, "annotation": {"number": 73, "value": 64}, "group": "control_change"}, {"time": 1048, "annotation": {"number": 99, "value": 1}, "group": "control_change"}, {"time": 1103, "annotation": {"number": 98, "value": 100}, "group": "control_change"}, {"time": 1159, "annotation": {"number": 6, "value": 62}, "group": "control_change"}, {"time": 1214, "annotation": {"number": 72, "value": 64}, "group": "control_change"}, {"time": 1269, "annotation": {"number": 101, "value": 127}, "group": "control_change"}, {"time": 1325, "annotation": {"number": 100, "value": 127}, "group": "control_change"}, {"time": 1762, "annotation": {"number": 1, "value": 40}, "group": "control_change"}, {"time": 2641, "annotation": {"number": 1, "value": 0}, "group": "control_change"}, {"time": 3680, "annotation": {"number": 1, "value": 38}, "group": "control_change"}, {"time": 4799, "annotation": {"number": 1, "value": 0}, "group": "control_change"}, {"time": 5598, "annotation": {"number": 1, "value": 40}, "group": "control_change"}, {"time": 6477, "annotation": {"number": 1, "value": 0}, "group": "control_change"}, {"time": 7522, "annotation": {"number": 1, "value": 38}, "group": "control_change"}, {"time": 8641, "annotation": {"number": 1, "value": 0}, "group": "control_change"}, {"time": 93922, "annotation": {"number": 1, "value": 40}, "group": "control_change"}, {"time": 94801, "annotation": {"number": 1, "value": 0}, "group": "control_change"}, {"time": 95840, "annotation": {"number": 1, "value": 38}, "group": "control_change"}, {"time": 96959, "annotation": {"number": 1, "value": 0}, "group": "control_change"}, {"time": 97758, "annotation": {"number": 1, "value": 40}, "group": "control_change"}, {"time": 98637, "annotation": {"number": 1, "value": 0}, "group": "control_change"}, {"time": 99683, "annotation": {"number": 1, "value": 38}, "group": "control_change"}]}, {"program": 0, "is_drum": false, "name": "E.GUITAR 3", "annotations": [{"time": 160, "annotation": {"number": 0, "value": 0}, "group": "control_change"}, {"time": 176, "annotation": {"number": 32, "value": 2}, "group": "control_change"}]}, {"program": 30, "is_drum": false, "name": "E.GUITAR 3", "notes": [{"time": 32162, "pitch": 69, "duration": 480, "velocity": 112}, {"time": 32402, "pitch": 64, "duration": 480, "velocity": 90}, {"time": 32642, "pitch": 69, "duration": 479, "velocity": 107}, {"time": 32882, "pitch": 64, "duration": 239, "velocity": 90}, {"time": 33121, "pitch": 68, "duration": 480, "velocity": 112}, {"time": 33361, "pitch": 64, "duration": 480, "velocity": 90}, {"time": 33601, "pitch": 68, "duration": 479, "velocity": 107}, {"time": 33841, "pitch": 64, "duration": 239, "velocity": 90}, {"time": 34080, "pitch": 69, "duration": 480, "velocity": 112}, {"time": 34320, "pitch": 62, "duration": 480, "velocity": 90}, {"time": 34560, "pitch": 69, "duration": 479, "velocity": 107}, {"time": 34800, "pitch": 62, "duration": 239, "velocity": 90}, {"time": 35039, "pitch": 69, "duration": 480, "velocity": 112}, {"time": 35279, "pitch": 64, "duration": 480, "velocity": 90}, {"time": 35519, "pitch": 68, "duration": 480, "velocity": 107}, {"time": 35759, "pitch": 64, "duration": 240, "velocity": 90}, {"time": 35999, "pitch": 69, "duration": 479, "velocity": 112}, {"time": 36238, "pitch": 64, "duration": 480, "velocity": 90}, {"time": 36478, "pitch": 69, "duration": 480, "velocity": 107}, {"time": 36718, "pitch": 64, "duration": 240, "velocity": 90}, {"time": 36958, "pitch": 69, "duration": 479, "velocity": 112}, {"time": 37197, "pitch": 66, "duration": 483, "velocity": 90}, {"time": 37437, "pitch": 69, "duration": 486, "velocity": 107}, {"time": 37680, "pitch": 66, "duration": 243, "velocity": 90}, {"time": 37923, "pitch": 69, "duration": 479, "velocity": 112}, {"time": 38163, "pitch": 66, "duration": 479, "velocity": 90}, {"time": 38402, "pitch": 69, "duration": 480, "velocity": 107}, {"time": 38642, "pitch": 66, "duration": 240, "velocity": 90}, {"time": 38882, "pitch": 69, "duration": 240, "velocity": 112}, {"time": 39122, "pitch": 68, "duration": 239, "velocity": 112}, {"time": 39361, "pitch": 66, "duration": 240, "velocity": 112}, {"time": 39601, "pitch": 68, "duration": 240, "velocity": 112}, {"time": 39841, "pitch": 69, "duration": 479, "velocity": 112}, {"time": 40081, "pitch": 64, "duration": 479, "velocity": 90}, {"time": 40320, "pitch": 69, "duration": 480, "velocity": 107}, {"time": 40560, "pitch": 64, "duration": 240, "velocity": 90}, {"time": 40800, "pitch": 68, "duration": 479, "velocity": 112}, {"time": 41040, "pitch": 64, "duration": 479, "velocity": 90}, {"time": 41279, "pitch": 68, "duration": 480, "velocity": 107}, {"time": 41519, "pitch": 64, "duration": 240, "velocity": 90}, {"time": 41759, "pitch": 69, "duration": 479, "velocity": 112}, {"time": 41999, "pitch": 62, "duration": 479, "velocity": 90}, {"time": 42238, "pitch": 69, "duration": 480, "velocity": 107}, {"time": 42478, "pitch": 62, "duration": 240, "velocity": 90}, {"time": 42718, "pitch": 69, "duration": 479, "velocity": 112}, {"time": 42958, "pitch": 64, "duration": 479, "velocity": 90}, {"time": 43197, "pitch": 68, "duration": 480, "velocity": 107}, {"time": 43437, "pitch": 64, "duration": 240, "velocity": 90}, {"time": 43677, "pitch": 69, "duration": 486, "velocity": 112}, {"time": 43920, "pitch": 64, "duration": 482, "velocity": 90}, {"time": 44163, "pitch": 69, "duration": 479, "velocity": 107}, {"time": 44402, "pitch": 64, "duration": 240, "velocity": 90}, {"time": 44642, "pitch": 69, "duration": 480, "velocity": 112}, {"time": 44882, "pitch": 66, "duration": 479, "velocity": 90}, {"time": 45122, "pitch": 69, "duration": 479, "velocity": 107}, {"time": 45361, "pitch": 66, "duration": 240, "velocity": 90}, {"time": 45601, "pitch": 69, "duration": 480, "velocity": 112}, {"time": 45841, "pitch": 66, "duration": 480, "velocity": 90}, {"time": 46081, "pitch": 69, "duration": 479, "velocity": 107}, {"time": 46321, "pitch": 66, "duration": 239, "velocity": 90}, {"time": 46560, "pitch": 69, "duration": 240, "velocity": 112}, {"time": 46800, "pitch": 68, "duration": 240, "velocity": 112}, {"time": 47040, "pitch": 66, "duration": 240, "velocity": 112}, {"time": 47280, "pitch": 68, "duration": 239, "velocity": 112}, {"time": 47519, "pitch": 69, "duration": 1918, "velocity": 112}, {"time": 78239, "pitch": 69, "duration": 480, "velocity": 112}, {"time": 78479, "pitch": 64, "duration": 480, "velocity": 90}, {"time": 78719, "pitch": 69, "duration": 479, "velocity": 107}, {"time": 78959, "pitch": 64, "duration": 239, "velocity": 90}, {"time": 79198, "pitch": 68, "duration": 480, "velocity": 112}, {"time": 79438, "pitch": 64, "duration": 480, "velocity": 90}, {"time": 79678, "pitch": 68, "duration": 479, "velocity": 107}, {"time": 79918, "pitch": 64, "duration": 239, "velocity": 90}, {"time": 80157, "pitch": 69, "duration": 480, "velocity": 112}, {"time": 80397, "pitch": 62, "duration": 483, "velocity": 90}, {"time": 80637, "pitch": 69, "duration": 486, "velocity": 107}, {"time": 80880, "pitch": 62, "duration": 243, "velocity": 90}, {"time": 81123, "pitch": 69, "duration": 479, "velocity": 112}, {"time": 81362, "pitch": 64, "duration": 480, "velocity": 90}, {"time": 81602, "pitch": 68, "duration": 480, "velocity": 107}, {"time": 81842, "pitch": 64, "duration": 240, "velocity": 90}, {"time": 82082, "pitch": 69, "duration": 479, "velocity": 112}, {"time": 82321, "pitch": 64, "duration": 480, "velocity": 90}, {"time": 82561, "pitch": 69, "duration": 480, "velocity": 107}, {"time": 82801, "pitch": 64, "duration": 240, "velocity": 90}, {"time": 83041, "pitch": 69, "duration": 479, "velocity": 112}, {"time": 83280, "pitch": 66, "duration": 480, "velocity": 90}, {"time": 83520, "pitch": 69, "duration": 480, "velocity": 107}, {"time": 83760, "pitch": 66, "duration": 240, "velocity": 90}, {"time": 84000, "pitch": 69, "duration": 479, "velocity": 112}, {"time": 84240, "pitch": 66, "duration": 479, "velocity": 90}, {"time": 84479, "pitch": 69, "duration": 480, "velocity": 107}, {"time": 84719, "pitch": 66, "duration": 240, "velocity": 90}, {"time": 84959, "pitch": 69, "duration": 240, "velocity": 112}, {"time": 85199, "pitch": 68, "duration": 239, "velocity": 112}, {"time": 85438, "pitch": 66, "duration": 240, "velocity": 112}, {"time": 85678, "pitch": 68, "duration": 240, "velocity": 112}, {"time": 85918, "pitch": 69, "duration": 479, "velocity": 112}, {"time": 86158, "pitch": 64, "duration": 482, "velocity": 90}, {"time": 86397, "pitch": 69, "duration": 486, "velocity": 107}, {"time": 86640, "pitch": 64, "duration": 243, "velocity": 90}, {"time": 86883, "pitch": 68, "duration": 480, "velocity": 112}, {"time": 87123, "pitch": 64, "duration": 479, "velocity": 90}, {"time": 87363, "pitch": 68, "duration": 479, "velocity": 107}, {"time": 87602, "pitch": 64, "duration": 240, "velocity": 90}, {"time": 87842, "pitch": 69, "duration": 480, "velocity": 112}, {"time": 88082, "pitch": 62, "duration": 479, "velocity": 90}, {"time": 88322, "pitch": 69, "duration": 479, "velocity": 107}, {"time": 88561, "pitch": 62, "duration": 240, "velocity": 90}, {"time": 88801, "pitch": 69, "duration": 480, "velocity": 112}, {"time": 89041, "pitch": 64, "duration": 479, "velocity": 90}, {"time": 89281, "pitch": 68, "duration": 479, "velocity": 107}, {"time": 89520, "pitch": 64, "duration": 240, "velocity": 90}, {"time": 89760, "pitch": 69, "duration": 480, "velocity": 112}, {"time": 90000, "pitch": 64, "duration": 479, "velocity": 90}, {"time": 90240, "pitch": 69, "duration": 479, "velocity": 107}, {"time": 90479, "pitch": 64, "duration": 240, "velocity": 90}, {"time": 90719, "pitch": 69, "duration": 480, "velocity": 112}, {"time": 90959, "pitch": 66, "duration": 479, "velocity": 90}, {"time": 91199, "pitch": 69, "duration": 479, "velocity": 107}, {"time": 91438, "pitch": 66, "duration": 240, "velocity": 90}, {"time": 91678, "pitch": 69, "duration": 480, "velocity": 112}, {"time": 91918, "pitch": 66, "duration": 480, "velocity": 90}, {"time": 92158, "pitch": 69, "duration": 479, "velocity": 107}, {"time": 92398, "pitch": 66, "duration": 239, "velocity": 90}, {"time": 92637, "pitch": 69, "duration": 243, "velocity": 112}, {"time": 92880, "pitch": 68, "duration": 243, "velocity": 112}, {"time": 93123, "pitch": 66, "duration": 240, "velocity": 112}, {"time": 93363, "pitch": 68, "duration": 239, "velocity": 112}, {"time": 93602, "pitch": 69, "duration": 1919, "velocity": 112}], "annotations": [{"time": 224, "annotation": {"number": 7, "value": 100}, "group": "control_change"}, {"time": 240, "annotation": {"number": 11, "value": 127}, "group": "control_change"}, {"time": 256, "annotation": {"number": 10, "value": 63}, "group": "control_change"}, {"time": 288, "annotation": {"number": 91, "value": 35}, "group": "control_change"}, {"time": 304, "annotation": {"number": 93, "value": 0}, "group": "control_change"}, {"time": 320, "annotation": {"number": 94, "value": 0}, "group": "control_change"}, {"time": 368, "annotation": {"number": 101, "value": 0}, "group": "control_change"}, {"time": 384, "annotation": {"number": 100, "value": 0}, "group": "control_change"}, {"time": 400, "annotation": {"number": 6, "value": 12}, "group": "control_change"}, {"time": 432, "annotation": {"number": 99, "value": 1}, "group": "control_change"}, {"time": 448, "annotation": {"number": 98, "value": 8}, "group": "control_change"}, {"time": 464, "annotation": {"number": 6, "value": 64}, "group": "control_change"}, {"time": 495, "annotation": {"number": 99, "value": 1}, "group": "control_change"}, {"time": 551, "annotation": {"number": 98, "value": 9}, "group": "control_change"}, {"time": 606, "annotation": {"number": 6, "value": 64}, "group": "control_change"}, {"time": 717, "annotation": {"number": 99, "value": 1}, "group": "control_change"}, {"time": 772, "annotation": {"number": 98, "value": 10}, "group": "control_change"}, {"time": 827, "annotation": {"number": 6, "value": 64}, "group": "control_change"}, {"time": 882, "annotation": {"number": 74, "value": 64}, "group": "control_change"}, {"time": 938, "annotation": {"number": 71, "value": 64}, "group": "control_change"}, {"time": 993, "annotation": {"number": 73, "value": 64}, "group": "control_change"}, {"time": 1048, "annotation": {"number": 99, "value": 1}, "group": "control_change"}, {"time": 1103, "annotation": {"number": 98, "value": 100}, "group": "control_change"}, {"time": 1159, "annotation": {"number": 6, "value": 62}, "group": "control_change"}, {"time": 1214, "annotation": {"number": 72, "value": 64}, "group": "control_change"}, {"time": 1269, "annotation": {"number": 101, "value": 127}, "group": "control_change"}, {"time": 1325, "annotation": {"number": 100, "value": 127}, "group": "control_change"}]}, {"program": 0, "is_drum": false, "name": "E.GUITAR (SOLO)", "annotations": [{"time": 160, "annotation": {"number": 0, "value": 0}, "group": "control_change"}, {"time": 176, "annotation": {"number": 32, "value": 2}, "group": "control_change"}]}, {"program": 30, "is_drum": false, "name": "E.GUITAR (SOLO)", "notes": [{"time": 48878, "pitch": 47, "duration": 80, "velocity": 107}, {"time": 48958, "pitch": 49, "duration": 160, "velocity": 98}, {"time": 49118, "pitch": 52, "duration": 80, "velocity": 107}, {"time": 49198, "pitch": 54, "duration": 159, "velocity": 102}, {"time": 49357, "pitch": 52, "duration": 1525, "velocity": 112}, {"time": 51042, "pitch": 61, "duration": 240, "velocity": 112}, {"time": 51282, "pitch": 59, "duration": 40, "velocity": 98}, {"time": 51322, "pitch": 57, "duration": 40, "velocity": 103}, {"time": 51362, "pitch": 54, "duration": 959, "velocity": 117}, {"time": 52560, "pitch": 52, "duration": 240, "velocity": 127}, {"time": 52800, "pitch": 49, "duration": 160, "velocity": 124}, {"time": 52960, "pitch": 47, "duration": 80, "velocity": 126}, {"time": 53040, "pitch": 45, "duration": 160, "velocity": 126}, {"time": 53200, "pitch": 42, "duration": 80, "velocity": 107}, {"time": 53280, "pitch": 45, "duration": 959, "velocity": 126}, {"time": 100961, "pitch": 73, "duration": 240, "velocity": 127}, {"time": 101201, "pitch": 71, "duration": 40, "velocity": 127}, {"time": 101241, "pitch": 69, "duration": 40, "velocity": 127}, {"time": 101281, "pitch": 71, "duration": 80, "velocity": 127}, {"time": 101361, "pitch": 69, "duration": 80, "velocity": 127}, {"time": 101441, "pitch": 66, "duration": 80, "velocity": 127}, {"time": 101521, "pitch": 69, "duration": 160, "velocity": 127}, {"time": 101681, "pitch": 66, "duration": 1038, "velocity": 127}, {"time": 102879, "pitch": 78, "duration": 160, "velocity": 127}, {"time": 104398, "pitch": 78, "duration": 80, "velocity": 127}, {"time": 104478, "pitch": 76, "duration": 80, "velocity": 127}, {"time": 104558, "pitch": 73, "duration": 80, "velocity": 127}, {"time": 104638, "pitch": 72, "duration": 79, "velocity": 127}, {"time": 104717, "pitch": 71, "duration": 80, "velocity": 127}, {"time": 104797, "pitch": 69, "duration": 80, "velocity": 127}, {"time": 104877, "pitch": 71, "duration": 80, "velocity": 127}, {"time": 104957, "pitch": 69, "duration": 80, "velocity": 127}, {"time": 105037, "pitch": 66, "duration": 80, "velocity": 127}, {"time": 105117, "pitch": 66, "duration": 162, "velocity": 107}, {"time": 105117, "pitch": 69, "duration": 162, "velocity": 127}, {"time": 105279, "pitch": 66, "duration": 81, "velocity": 107}, {"time": 105279, "pitch": 69, "duration": 81, "velocity": 127}, {"time": 105843, "pitch": 64, "duration": 79, "velocity": 127}, {"time": 105922, "pitch": 65, "duration": 80, "velocity": 127}, {"time": 106002, "pitch": 66, "duration": 80, "velocity": 127}, {"time": 106082, "pitch": 69, "duration": 160, "velocity": 127}, {"time": 106242, "pitch": 66, "duration": 80, "velocity": 127}, {"time": 106322, "pitch": 69, "duration": 160, "velocity": 127}, {"time": 106482, "pitch": 73, "duration": 240, "velocity": 127}, {"time": 106722, "pitch": 76, "duration": 80, "velocity": 127}, {"time": 106802, "pitch": 73, "duration": 79, "velocity": 127}, {"time": 106881, "pitch": 71, "duration": 80, "velocity": 127}, {"time": 106961, "pitch": 69, "duration": 80, "velocity": 127}, {"time": 107041, "pitch": 78, "duration": 160, "velocity": 127}, {"time": 107201, "pitch": 81, "duration": 80, "velocity": 127}, {"time": 107281, "pitch": 78, "duration": 160, "velocity": 127}, {"time": 107441, "pitch": 81, "duration": 80, "velocity": 127}, {"time": 107521, "pitch": 78, "duration": 160, "velocity": 127}, {"time": 107681, "pitch": 81, "duration": 80, "velocity": 127}, {"time": 107761, "pitch": 78, "duration": 159, "velocity": 127}, {"time": 107920, "pitch": 76, "duration": 1039, "velocity": 127}, {"time": 124323, "pitch": 78, "duration": 1198, "velocity": 127}, {"time": 125761, "pitch": 78, "duration": 80, "velocity": 127}, {"time": 125921, "pitch": 78, "duration": 80, "velocity": 127}, {"time": 126081, "pitch": 78, "duration": 80, "velocity": 127}, {"time": 126241, "pitch": 78, "duration": 1452, "velocity": 127}, {"time": 127919, "pitch": 73, "duration": 80, "velocity": 127}, {"time": 127999, "pitch": 71, "duration": 80, "velocity": 127}, {"time": 128079, "pitch": 69, "duration": 80, "velocity": 127}, {"time": 128159, "pitch": 71, "duration": 80, "velocity": 127}, {"time": 128239, "pitch": 69, "duration": 80, "velocity": 127}, {"time": 128319, "pitch": 66, "duration": 79, "velocity": 127}, {"time": 128398, "pitch": 69, "duration": 160, "velocity": 127}, {"time": 128558, "pitch": 66, "duration": 560, "velocity": 127}, {"time": 129357, "pitch": 64, "duration": 80, "velocity": 127}, {"time": 129437, "pitch": 66, "duration": 80, "velocity": 127}, {"time": 129517, "pitch": 64, "duration": 80, "velocity": 127}, {"time": 129597, "pitch": 61, "duration": 162, "velocity": 127}, {"time": 129759, "pitch": 59, "duration": 81, "velocity": 127}, {"time": 129840, "pitch": 57, "duration": 162, "velocity": 127}, {"time": 130002, "pitch": 54, "duration": 81, "velocity": 127}, {"time": 130083, "pitch": 57, "duration": 3836, "velocity": 127}], "annotations": [{"time": 224, "annotation": {"number": 7, "value": 100}, "group": "control_change"}, {"time": 240, "annotation": {"number": 11, "value": 127}, "group": "control_change"}, {"time": 256, "annotation": {"number": 10, "value": 63}, "group": "control_change"}, {"time": 288, "annotation": {"number": 91, "value": 35}, "group": "control_change"}, {"time": 304, "annotation": {"number": 93, "value": 0}, "group": "control_change"}, {"time": 320, "annotation": {"number": 94, "value": 0}, "group": "control_change"}, {"time": 368, "annotation": {"number": 101, "value": 0}, "group": "control_change"}, {"time": 384, "annotation": {"number": 100, "value": 0}, "group": "control_change"}, {"time": 400, "annotation": {"number": 6, "value": 12}, "group": "control_change"}, {"time": 432, "annotation": {"number": 99, "value": 1}, "group": "control_change"}, {"time": 448, "annotation": {"number": 98, "value": 8}, "group": "control_change"}, {"time": 464, "annotation": {"number": 6, "value": 64}, "group": "control_change"}, {"time": 495, "annotation": {"number": 99, "value": 1}, "group": "control_change"}, {"time": 551, "annotation": {"number": 98, "value": 9}, "group": "control_change"}, {"time": 606, "annotation": {"number": 6, "value": 64}, "group": "control_change"}, {"time": 717, "annotation": {"number": 99, "value": 1}, "group": "control_change"}, {"time": 772, "annotation": {"number": 98, "value": 10}, "group": "control_change"}, {"time": 827, "annotation": {"number": 6, "value": 64}, "group": "control_change"}, {"time": 882, "annotation": {"number": 74, "value": 64}, "group": "control_change"}, {"time": 938, "annotation": {"number": 71, "value": 64}, "group": "control_change"}, {"time": 993, "annotation": {"number": 73, "value": 64}, "group": "control_change"}, {"time": 1048, "annotation": {"number": 99, "value": 1}, "group": "control_change"}, {"time": 1103, "annotation": {"number": 98, "value": 100}, "group": "control_change"}, {"time": 1159, "annotation": {"number": 6, "value": 62}, "group": "control_change"}, {"time": 1214, "annotation": {"number": 72, "value": 64}, "group": "control_change"}, {"time": 1269, "annotation": {"number": 101, "value": 127}, "group": "control_change"}, {"time": 1325, "annotation": {"number": 100, "value": 127}, "group": "control_change"}, {"time": 49761, "annotation": {"number": 1, "value": 32}, "group": "control_change"}, {"time": 50882, "annotation": {"number": 1, "value": 0}, "group": "control_change"}, {"time": 51681, "annotation": {"number": 1, "value": 36}, "group": "control_change"}, {"time": 52321, "annotation": {"number": 1, "value": 0}, "group": "control_change"}, {"time": 53599, "annotation": {"number": 1, "value": 40}, "group": "control_change"}, {"time": 54239, "annotation": {"number": 1, "value": 0}, "group": "control_change"}, {"time": 108160, "annotation": {"number": 1, "value": 34}, "group": "control_change"}, {"time": 108480, "annotation": {"number": 11, "value": 126}, "group": "control_change"}, {"time": 108496, "annotation": {"number": 11, "value": 125}, "group": "control_change"}, {"time": 108527, "annotation": {"number": 11, "value": 124}, "group": "control_change"}, {"time": 108543, "annotation": {"number": 11, "value": 123}, "group": "control_change"}, {"time": 108558, "annotation": {"number": 11, "value": 122}, "group": "control_change"}, {"time": 108574, "annotation": {"number": 11, "value": 121}, "group": "control_change"}, {"time": 108590, "annotation": {"number": 11, "value": 119}, "group": "control_change"}, {"time": 108605, "annotation": {"number": 11, "value": 117}, "group": "control_change"}, {"time": 108621, "annotation": {"number": 11, "value": 115}, "group": "control_change"}, {"time": 108637, "annotation": {"number": 11, "value": 112}, "group": "control_change"}, {"time": 108652, "annotation": {"number": 11, "value": 109}, "group": "control_change"}, {"time": 108668, "annotation": {"number": 11, "value": 106}, "group": "control_change"}, {"time": 108684, "annotation": {"number": 11, "value": 103}, "group": "control_change"}, {"time": 108699, "annotation": {"number": 11, "value": 99}, "group": "control_change"}, {"time": 108715, "annotation": {"number": 11, "value": 95}, "group": "control_change"}, {"time": 108730, "annotation": {"number": 11, "value": 91}, "group": "control_change"}, {"time": 108746, "annotation": {"number": 11, "value": 87}, "group": "control_change"}, {"time": 108762, "annotation": {"number": 11, "value": 82}, "group": "control_change"}, {"time": 108777, "annotation": {"number": 11, "value": 77}, "group": "control_change"}, {"time": 108793, "annotation": {"number": 11, "value": 72}, "group": "control_change"}, {"time": 108809, "annotation": {"number": 11, "value": 66}, "group": "control_change"}, {"time": 108824, "annotation": {"number": 11, "value": 61}, "group": "control_change"}, {"time": 108840, "annotation": {"number": 11, "value": 54}, "group": "control_change"}, {"time": 108856, "annotation": {"number": 11, "value": 48}, "group": "control_change"}, {"time": 108870, "annotation": {"number": 11, "value": 42}, "group": "control_change"}, {"time": 108886, "annotation": {"number": 11, "value": 35}, "group": "control_change"}, {"time": 108902, "annotation": {"number": 11, "value": 27}, "group": "control_change"}, {"time": 108917, "annotation": {"number": 11, "value": 20}, "group": "control_change"}, {"time": 108933, "annotation": {"number": 11, "value": 13}, "group": "control_change"}, {"time": 108949, "annotation": {"number": 11, "value": 4}, "group": "control_change"}, {"time": 108959, "annotation": {"number": 1, "value": 0}, "group": "control_change"}, {"time": 108959, "annotation": {"number": 11, "value": 0}, "group": "control_change"}, {"time": 124323, "annotation": {"number": 11, "value": 127}, "group": "control_change"}, {"time": 132960, "annotation": {"number": 11, "value": 127}, "group": "control_change"}, {"time": 132975, "annotation": {"number": 11, "value": 125}, "group": "control_change"}, {"time": 132991, "annotation": {"number": 11, "value": 122}, "group": "control_change"}, {"time": 133007, "annotation": {"number": 11, "value": 120}, "group": "control_change"}, {"time": 133023, "annotation": {"number": 11, "value": 118}, "group": "control_change"}, {"time": 133038, "annotation": {"number": 11, "value": 116}, "group": "control_change"}, {"time": 133054, "annotation": {"number": 11, "value": 114}, "group": "control_change"}, {"time": 133070, "annotation": {"number": 11, "value": 112}, "group": "control_change"}, {"time": 133086, "annotation": {"number": 11, "value": 110}, "group": "control_change"}, {"time": 133101, "annotation": {"number": 11, "value": 108}, "group": "control_change"}, {"time": 133117, "annotation": {"number": 11, "value": 106}, "group": "control_change"}, {"time": 133133, "annotation": {"number": 11, "value": 104}, "group": "control_change"}, {"time": 133149, "annotation": {"number": 11, "value": 102}, "group": "control_change"}, {"time": 133164, "annotation": {"number": 11, "value": 100}, "group": "control_change"}, {"time": 133180, "annotation": {"number": 11, "value": 97}, "group": "control_change"}, {"time": 133196, "annotation": {"number": 11, "value": 95}, "group": "control_change"}, {"time": 133211, "annotation": {"number": 11, "value": 93}, "group": "control_change"}, {"time": 133227, "annotation": {"number": 11, "value": 91}, "group": "control_change"}, {"time": 133243, "annotation": {"number": 11, "value": 89}, "group": "control_change"}, {"time": 133259, "annotation": {"number": 11, "value": 87}, "group": "control_change"}, {"time": 133274, "annotation": {"number": 11, "value": 85}, "group": "control_change"}, {"time": 133290, "annotation": {"number": 11, "value": 83}, "group": "control_change"}, {"time": 133306, "annotation": {"number": 11, "value": 81}, "group": "control_change"}, {"time": 133322, "annotation": {"number": 11, "value": 79}, "group": "control_change"}, {"time": 133337, "annotation": {"number": 11, "value": 77}, "group": "control_change"}, {"time": 133353, "annotation": {"number": 11, "value": 75}, "group": "control_change"}, {"time": 133369, "annotation": {"number": 11, "value": 73}, "group": "control_change"}, {"time": 133385, "annotation": {"number": 11, "value": 70}, "group": "control_change"}, {"time": 133400, "annotation": {"number": 11, "value": 68}, "group": "control_change"}, {"time": 133416, "annotation": {"number": 11, "value": 66}, "group": "control_change"}, {"time": 133432, "annotation": {"number": 11, "value": 64}, "group": "control_change"}, {"time": 133447, "annotation": {"number": 11, "value": 62}, "group": "control_change"}, {"time": 133463, "annotation": {"number": 11, "value": 60}, "group": "control_change"}, {"time": 133479, "annotation": {"number": 11, "value": 58}, "group": "control_change"}, {"time": 133494, "annotation": {"number": 11, "value": 56}, "group": "control_change"}, {"time": 133509, "annotation": {"number": 11, "value": 54}, "group": "control_change"}, {"time": 133525, "annotation": {"number": 11, "value": 52}, "group": "control_change"}, {"time": 133541, "annotation": {"number": 11, "value": 50}, "group": "control_change"}, {"time": 133557, "annotation": {"number": 11, "value": 48}, "group": "control_change"}, {"time": 133572, "annotation": {"number": 11, "value": 46}, "group": "control_change"}, {"time": 133588, "annotation": {"number": 11, "value": 44}, "group": "control_change"}, {"time": 133604, "annotation": {"number": 11, "value": 41}, "group": "control_change"}, {"time": 133620, "annotation": {"number": 11, "value": 39}, "group": "control_change"}, {"time": 133635, "annotation": {"number": 11, "value": 37}, "group": "control_change"}, {"time": 133651, "annotation": {"number": 11, "value": 35}, "group": "control_change"}, {"time": 133667, "annotation": {"number": 11, "value": 33}, "group": "control_change"}, {"time": 133682, "annotation": {"number": 11, "value": 31}, "group": "control_change"}, {"time": 133698, "annotation": {"number": 11, "value": 29}, "group": "control_change"}, {"time": 133714, "annotation": {"number": 11, "value": 27}, "group": "control_change"}, {"time": 133730, "annotation": {"number": 11, "value": 25}, "group": "control_change"}, {"time": 133745, "annotation": {"number": 11, "value": 23}, "group": "control_change"}, {"time": 133761, "annotation": {"number": 11, "value": 21}, "group": "control_change"}, {"time": 133777, "annotation": {"number": 11, "value": 19}, "group": "control_change"}, {"time": 133793, "annotation": {"number": 11, "value": 17}, "group": "control_change"}, {"time": 133808, "annotation": {"number": 11, "value": 15}, "group": "control_change"}, {"time": 133824, "annotation": {"number": 11, "value": 12}, "group": "control_change"}, {"time": 133840, "annotation": {"number": 11, "value": 10}, "group": "control_change"}, {"time": 133856, "annotation": {"number": 11, "value": 8}, "group": "control_change"}, {"time": 133871, "annotation": {"number": 11, "value": 6}, "group": "control_change"}, {"time": 133887, "annotation": {"number": 11, "value": 4}, "group": "control_change"}, {"time": 133903, "annotation": {"number": 11, "value": 2}, "group": "control_change"}, {"time": 133918, "annotation": {"number": 11, "value": 0}, "group": "control_change"}]}, {"program": 0, "is_drum": false, "name": "E.GUITAR", "annotations": [{"time": 160, "annotation": {"number": 0, "value": 0}, "group": "control_change"}, {"time": 176, "annotation": {"number": 32, "value": 2}, "group": "control_change"}]}, {"program": 30, "is_drum": false, "name": "E.GUITAR", "notes": [{"time": 1442, "pitch": 54, "duration": 480, "velocity": 70}, {"time": 1442, "pitch": 57, "duration": 480, "velocity": 100}, {"time": 1442, "pitch": 61, "duration": 480, "velocity": 80}, {"time": 1442, "pitch": 66, "duration": 480, "velocity": 90}, {"time": 1922, "pitch": 54, "duration": 399, "velocity": 85}, {"time": 1922, "pitch": 57, "duration": 399, "velocity": 115}, {"time": 1922, "pitch": 61, "duration": 399, "velocity": 95}, {"time": 1922, "pitch": 66, "duration": 399, "velocity": 105}, {"time": 2321, "pitch": 54, "duration": 80, "velocity": 60}, {"time": 2321, "pitch": 57, "duration": 80, "velocity": 90}, {"time": 2321, "pitch": 61, "duration": 80, "velocity": 70}, {"time": 2321, "pitch": 66, "duration": 80, "velocity": 80}, {"time": 2401, "pitch": 54, "duration": 160, "velocity": 70}, {"time": 2401, "pitch": 57, "duration": 160, "velocity": 100}, {"time": 2401, "pitch": 61, "duration": 160, "velocity": 80}, {"time": 2401, "pitch": 66, "duration": 160, "velocity": 90}, {"time": 2561, "pitch": 54, "duration": 80, "velocity": 60}, {"time": 2561, "pitch": 57, "duration": 80, "velocity": 90}, {"time": 2561, "pitch": 61, "duration": 80, "velocity": 70}, {"time": 2561, "pitch": 66, "duration": 80, "velocity": 80}, {"time": 2641, "pitch": 54, "duration": 240, "velocity": 90}, {"time": 2641, "pitch": 57, "duration": 240, "velocity": 120}, {"time": 2641, "pitch": 61, "duration": 240, "velocity": 100}, {"time": 2641, "pitch": 66, "duration": 240, "velocity": 110}, {"time": 3031, "pitch": 52, "duration": 319, "velocity": 85}, {"time": 3031, "pitch": 56, "duration": 319, "velocity": 115}, {"time": 3031, "pitch": 59, "duration": 319, "velocity": 95}, {"time": 3031, "pitch": 64, "duration": 319, "velocity": 105}, {"time": 3360, "pitch": 50, "duration": 480, "velocity": 70}, {"time": 3360, "pitch": 57, "duration": 480, "velocity": 100}, {"time": 3360, "pitch": 62, "duration": 480, "velocity": 80}, {"time": 3360, "pitch": 66, "duration": 480, "velocity": 90}, {"time": 3840, "pitch": 50, "duration": 400, "velocity": 85}, {"time": 3840, "pitch": 57, "duration": 400, "velocity": 115}, {"time": 3840, "pitch": 62, "duration": 400, "velocity": 95}, {"time": 3840, "pitch": 66, "duration": 400, "velocity": 105}, {"time": 4240, "pitch": 50, "duration": 79, "velocity": 60}, {"time": 4240, "pitch": 57, "duration": 79, "velocity": 90}, {"time": 4240, "pitch": 62, "duration": 79, "velocity": 70}, {"time": 4240, "pitch": 66, "duration": 79, "velocity": 80}, {"time": 4319, "pitch": 50, "duration": 160, "velocity": 70}, {"time": 4319, "pitch": 57, "duration": 160, "velocity": 100}, {"time": 4319, "pitch": 62, "duration": 160, "velocity": 80}, {"time": 4319, "pitch": 66, "duration": 160, "velocity": 90}, {"time": 4479, "pitch": 50, "duration": 80, "velocity": 60}, {"time": 4479, "pitch": 57, "duration": 80, "velocity": 90}, {"time": 4479, "pitch": 62, "duration": 80, "velocity": 70}, {"time": 4479, "pitch": 66, "duration": 80, "velocity": 80}, {"time": 4559, "pitch": 50, "duration": 240, "velocity": 90}, {"time": 4559, "pitch": 57, "duration": 240, "velocity": 120}, {"time": 4559, "pitch": 62, "duration": 240, "velocity": 100}, {"time": 4559, "pitch": 66, "duration": 240, "velocity": 110}, {"time": 4949, "pitch": 52, "duration": 319, "velocity": 85}, {"time": 4949, "pitch": 56, "duration": 319, "velocity": 115}, {"time": 4949, "pitch": 59, "duration": 319, "velocity": 95}, {"time": 4949, "pitch": 64, "duration": 319, "velocity": 105}, {"time": 5278, "pitch": 54, "duration": 480, "velocity": 70}, {"time": 5278, "pitch": 57, "duration": 480, "velocity": 100}, {"time": 5278, "pitch": 61, "duration": 480, "velocity": 80}, {"time": 5278, "pitch": 66, "duration": 480, "velocity": 90}, {"time": 5758, "pitch": 54, "duration": 400, "velocity": 85}, {"time": 5758, "pitch": 57, "duration": 400, "velocity": 115}, {"time": 5758, "pitch": 61, "duration": 400, "velocity": 95}, {"time": 5758, "pitch": 66, "duration": 400, "velocity": 105}, {"time": 6158, "pitch": 54, "duration": 80, "velocity": 60}, {"time": 6158, "pitch": 57, "duration": 80, "velocity": 90}, {"time": 6158, "pitch": 61, "duration": 80, "velocity": 70}, {"time": 6158, "pitch": 66, "duration": 80, "velocity": 80}, {"time": 6238, "pitch": 54, "duration": 159, "velocity": 70}, {"time": 6238, "pitch": 57, "duration": 159, "velocity": 100}, {"time": 6238, "pitch": 61, "duration": 159, "velocity": 80}, {"time": 6238, "pitch": 66, "duration": 159, "velocity": 90}, {"time": 6397, "pitch": 54, "duration": 80, "velocity": 60}, {"time": 6397, "pitch": 57, "duration": 80, "velocity": 90}, {"time": 6397, "pitch": 61, "duration": 80, "velocity": 70}, {"time": 6397, "pitch": 66, "duration": 80, "velocity": 80}, {"time": 6477, "pitch": 54, "duration": 240, "velocity": 90}, {"time": 6477, "pitch": 57, "duration": 240, "velocity": 120}, {"time": 6477, "pitch": 61, "duration": 240, "velocity": 100}, {"time": 6477, "pitch": 66, "duration": 240, "velocity": 110}, {"time": 6869, "pitch": 52, "duration": 324, "velocity": 85}, {"time": 6869, "pitch": 56, "duration": 324, "velocity": 115}, {"time": 6869, "pitch": 59, "duration": 324, "velocity": 95}, {"time": 6869, "pitch": 64, "duration": 324, "velocity": 105}, {"time": 7203, "pitch": 50, "duration": 479, "velocity": 70}, {"time": 7203, "pitch": 57, "duration": 479, "velocity": 100}, {"time": 7203, "pitch": 62, "duration": 479, "velocity": 80}, {"time": 7203, "pitch": 66, "duration": 479, "velocity": 90}, {"time": 7682, "pitch": 50, "duration": 400, "velocity": 85}, {"time": 7682, "pitch": 57, "duration": 400, "velocity": 115}, {"time": 7682, "pitch": 62, "duration": 400, "velocity": 95}, {"time": 7682, "pitch": 66, "duration": 400, "velocity": 105}, {"time": 8082, "pitch": 50, "duration": 80, "velocity": 60}, {"time": 8082, "pitch": 57, "duration": 80, "velocity": 90}, {"time": 8082, "pitch": 62, "duration": 80, "velocity": 70}, {"time": 8082, "pitch": 66, "duration": 80, "velocity": 80}, {"time": 8162, "pitch": 50, "duration": 160, "velocity": 70}, {"time": 8162, "pitch": 57, "duration": 160, "velocity": 100}, {"time": 8162, "pitch": 62, "duration": 160, "velocity": 80}, {"time": 8162, "pitch": 66, "duration": 160, "velocity": 90}, {"time": 8322, "pitch": 50, "duration": 80, "velocity": 60}, {"time": 8322, "pitch": 57, "duration": 80, "velocity": 90}, {"time": 8322, "pitch": 62, "duration": 80, "velocity": 70}, {"time": 8322, "pitch": 66, "duration": 80, "velocity": 80}, {"time": 8402, "pitch": 50, "duration": 239, "velocity": 90}, {"time": 8402, "pitch": 57, "duration": 239, "velocity": 120}, {"time": 8402, "pitch": 62, "duration": 239, "velocity": 100}, {"time": 8402, "pitch": 66, "duration": 239, "velocity": 110}, {"time": 8791, "pitch": 52, "duration": 320, "velocity": 85}, {"time": 8791, "pitch": 56, "duration": 320, "velocity": 115}, {"time": 8791, "pitch": 59, "duration": 320, "velocity": 95}, {"time": 8791, "pitch": 64, "duration": 320, "velocity": 105}, {"time": 9121, "pitch": 45, "duration": 959, "velocity": 98}, {"time": 9361, "pitch": 61, "duration": 719, "velocity": 98}, {"time": 9600, "pitch": 64, "duration": 480, "velocity": 100}, {"time": 9840, "pitch": 57, "duration": 240, "velocity": 88}, {"time": 10080, "pitch": 50, "duration": 959, "velocity": 98}, {"time": 10320, "pitch": 62, "duration": 719, "velocity": 98}, {"time": 10559, "pitch": 66, "duration": 480, "velocity": 100}, {"time": 10799, "pitch": 57, "duration": 240, "velocity": 88}, {"time": 11039, "pitch": 52, "duration": 959, "velocity": 98}, {"time": 11279, "pitch": 64, "duration": 719, "velocity": 98}, {"time": 11518, "pitch": 68, "duration": 480, "velocity": 100}, {"time": 11758, "pitch": 59, "duration": 240, "velocity": 88}, {"time": 11998, "pitch": 57, "duration": 479, "velocity": 96}, {"time": 12238, "pitch": 61, "duration": 239, "velocity": 107}, {"time": 12477, "pitch": 56, "duration": 480, "velocity": 102}, {"time": 12717, "pitch": 64, "duration": 240, "velocity": 102}, {"time": 12957, "pitch": 42, "duration": 965, "velocity": 98}, {"time": 13200, "pitch": 57, "duration": 722, "velocity": 98}, {"time": 13443, "pitch": 61, "duration": 479, "velocity": 100}, {"time": 13682, "pitch": 54, "duration": 240, "velocity": 88}, {"time": 13922, "pitch": 49, "duration": 959, "velocity": 98}, {"time": 14162, "pitch": 61, "duration": 719, "velocity": 98}, {"time": 14402, "pitch": 64, "duration": 479, "velocity": 100}, {"time": 14641, "pitch": 56, "duration": 240, "velocity": 88}, {"time": 14881, "pitch": 50, "duration": 959, "velocity": 98}, {"time": 15121, "pitch": 62, "duration": 719, "velocity": 98}, {"time": 15361, "pitch": 66, "duration": 479, "velocity": 100}, {"time": 15600, "pitch": 57, "duration": 240, "velocity": 88}, {"time": 15840, "pitch": 68, "duration": 480, "velocity": 96}, {"time": 16080, "pitch": 64, "duration": 719, "velocity": 107}, {"time": 16320, "pitch": 68, "duration": 479, "velocity": 102}, {"time": 16799, "pitch": 45, "duration": 959, "velocity": 98}, {"time": 17039, "pitch": 61, "duration": 719, "velocity": 98}, {"time": 17279, "pitch": 64, "duration": 479, "velocity": 100}, {"time": 17519, "pitch": 57, "duration": 239, "velocity": 88}, {"time": 17758, "pitch": 50, "duration": 959, "velocity": 98}, {"time": 17998, "pitch": 62, "duration": 719, "velocity": 98}, {"time": 18238, "pitch": 66, "duration": 479, "velocity": 100}, {"time": 18478, "pitch": 57, "duration": 239, "velocity": 88}, {"time": 18717, "pitch": 52, "duration": 966, "velocity": 98}, {"time": 18960, "pitch": 64, "duration": 723, "velocity": 98}, {"time": 19203, "pitch": 68, "duration": 480, "velocity": 100}, {"time": 19443, "pitch": 59, "duration": 240, "velocity": 88}, {"time": 19683, "pitch": 57, "duration": 479, "velocity": 96}, {"time": 19922, "pitch": 61, "duration": 240, "velocity": 107}, {"time": 20162, "pitch": 56, "duration": 480, "velocity": 102}, {"time": 20402, "pitch": 64, "duration": 240, "velocity": 102}, {"time": 20642, "pitch": 42, "duration": 959, "velocity": 98}, {"time": 20881, "pitch": 57, "duration": 720, "velocity": 98}, {"time": 21121, "pitch": 61, "duration": 480, "velocity": 100}, {"time": 21361, "pitch": 54, "duration": 240, "velocity": 88}, {"time": 21601, "pitch": 49, "duration": 959, "velocity": 98}, {"time": 21840, "pitch": 61, "duration": 720, "velocity": 98}, {"time": 22080, "pitch": 64, "duration": 480, "velocity": 100}, {"time": 22320, "pitch": 56, "duration": 240, "velocity": 88}, {"time": 22560, "pitch": 57, "duration": 479, "velocity": 96}, {"time": 22799, "pitch": 66, "duration": 240, "velocity": 107}, {"time": 23039, "pitch": 59, "duration": 480, "velocity": 102}, {"time": 23279, "pitch": 68, "duration": 240, "velocity": 102}, {"time": 23519, "pitch": 45, "duration": 959, "velocity": 100}, {"time": 23758, "pitch": 57, "duration": 160, "velocity": 100}, {"time": 23758, "pitch": 61, "duration": 160, "velocity": 110}, {"time": 23758, "pitch": 64, "duration": 160, "velocity": 90}, {"time": 23918, "pitch": 57, "duration": 80, "velocity": 70}, {"time": 23918, "pitch": 61, "duration": 80, "velocity": 80}, {"time": 23918, "pitch": 64, "duration": 80, "velocity": 60}, {"time": 23998, "pitch": 57, "duration": 160, "velocity": 90}, {"time": 23998, "pitch": 61, "duration": 160, "velocity": 100}, {"time": 23998, "pitch": 64, "duration": 160, "velocity": 80}, {"time": 24158, "pitch": 57, "duration": 80, "velocity": 70}, {"time": 24158, "pitch": 61, "duration": 80, "velocity": 80}, {"time": 24158, "pitch": 64, "duration": 80, "velocity": 60}, {"time": 24238, "pitch": 57, "duration": 240, "velocity": 100}, {"time": 24238, "pitch": 61, "duration": 240, "velocity": 110}, {"time": 24238, "pitch": 64, "duration": 240, "velocity": 90}, {"time": 24478, "pitch": 54, "duration": 160, "velocity": 110}, {"time": 24478, "pitch": 59, "duration": 160, "velocity": 100}, {"time": 24478, "pitch": 62, "duration": 160, "velocity": 110}, {"time": 24478, "pitch": 66, "duration": 160, "velocity": 90}, {"time": 24638, "pitch": 54, "duration": 79, "velocity": 80}, {"time": 24638, "pitch": 59, "duration": 79, "velocity": 70}, {"time": 24638, "pitch": 62, "duration": 79, "velocity": 80}, {"time": 24638, "pitch": 66, "duration": 79, "velocity": 60}, {"time": 24717, "pitch": 54, "duration": 160, "velocity": 100}, {"time": 24717, "pitch": 59, "duration": 160, "velocity": 90}, {"time": 24717, "pitch": 62, "duration": 160, "velocity": 100}, {"time": 24717, "pitch": 66, "duration": 160, "velocity": 80}, {"time": 24877, "pitch": 54, "duration": 80, "velocity": 80}, {"time": 24877, "pitch": 59, "duration": 80, "velocity": 70}, {"time": 24877, "pitch": 62, "duration": 80, "velocity": 80}, {"time": 24877, "pitch": 66, "duration": 80, "velocity": 60}, {"time": 24957, "pitch": 54, "duration": 10, "velocity": 110}, {"time": 24957, "pitch": 59, "duration": 10, "velocity": 100}, {"time": 24957, "pitch": 62, "duration": 10, "velocity": 110}, {"time": 24957, "pitch": 66, "duration": 10, "velocity": 90}, {"time": 25119, "pitch": 54, "duration": 10, "velocity": 80}, {"time": 25119, "pitch": 59, "duration": 10, "velocity": 70}, {"time": 25119, "pitch": 62, "duration": 10, "velocity": 80}, {"time": 25119, "pitch": 66, "duration": 10, "velocity": 60}, {"time": 25200, "pitch": 54, "duration": 10, "velocity": 100}, {"time": 25200, "pitch": 59, "duration": 10, "velocity": 90}, {"time": 25200, "pitch": 62, "duration": 10, "velocity": 100}, {"time": 25200, "pitch": 66, "duration": 10, "velocity": 80}, {"time": 25362, "pitch": 54, "duration": 81, "velocity": 80}, {"time": 25362, "pitch": 59, "duration": 81, "velocity": 70}, {"time": 25362, "pitch": 62, "duration": 81, "velocity": 80}, {"time": 25362, "pitch": 66, "duration": 81, "velocity": 60}, {"time": 25443, "pitch": 54, "duration": 160, "velocity": 110}, {"time": 25443, "pitch": 59, "duration": 160, "velocity": 100}, {"time": 25443, "pitch": 62, "duration": 160, "velocity": 110}, {"time": 25443, "pitch": 66, "duration": 160, "velocity": 90}, {"time": 25603, "pitch": 54, "duration": 80, "velocity": 80}, {"time": 25603, "pitch": 59, "duration": 80, "velocity": 70}, {"time": 25603, "pitch": 62, "duration": 80, "velocity": 80}, {"time": 25603, "pitch": 66, "duration": 80, "velocity": 60}, {"time": 25683, "pitch": 54, "duration": 160, "velocity": 100}, {"time": 25683, "pitch": 59, "duration": 160, "velocity": 90}, {"time": 25683, "pitch": 62, "duration": 160, "velocity": 100}, {"time": 25683, "pitch": 66, "duration": 160, "velocity": 80}, {"time": 25843, "pitch": 54, "duration": 79, "velocity": 80}, {"time": 25843, "pitch": 59, "duration": 79, "velocity": 70}, {"time": 25843, "pitch": 62, "duration": 79, "velocity": 80}, {"time": 25843, "pitch": 66, "duration": 79, "velocity": 60}, {"time": 25922, "pitch": 54, "duration": 10, "velocity": 110}, {"time": 25922, "pitch": 59, "duration": 10, "velocity": 100}, {"time": 25922, "pitch": 62, "duration": 10, "velocity": 110}, {"time": 25922, "pitch": 66, "duration": 10, "velocity": 90}, {"time": 26082, "pitch": 54, "duration": 10, "velocity": 80}, {"time": 26082, "pitch": 59, "duration": 10, "velocity": 70}, {"time": 26082, "pitch": 62, "duration": 10, "velocity": 80}, {"time": 26082, "pitch": 66, "duration": 10, "velocity": 60}, {"time": 26162, "pitch": 54, "duration": 10, "velocity": 100}, {"time": 26162, "pitch": 59, "duration": 10, "velocity": 90}, {"time": 26162, "pitch": 62, "duration": 10, "velocity": 100}, {"time": 26162, "pitch": 66, "duration": 10, "velocity": 80}, {"time": 26322, "pitch": 54, "duration": 80, "velocity": 80}, {"time": 26322, "pitch": 57, "duration": 80, "velocity": 70}, {"time": 26322, "pitch": 61, "duration": 80, "velocity": 80}, {"time": 26322, "pitch": 66, "duration": 80, "velocity": 60}, {"time": 26402, "pitch": 54, "duration": 160, "velocity": 110}, {"time": 26402, "pitch": 57, "duration": 160, "velocity": 100}, {"time": 26402, "pitch": 61, "duration": 160, "velocity": 110}, {"time": 26402, "pitch": 66, "duration": 160, "velocity": 90}, {"time": 26562, "pitch": 54, "duration": 80, "velocity": 80}, {"time": 26562, "pitch": 57, "duration": 80, "velocity": 70}, {"time": 26562, "pitch": 61, "duration": 80, "velocity": 80}, {"time": 26562, "pitch": 66, "duration": 80, "velocity": 60}, {"time": 26642, "pitch": 54, "duration": 160, "velocity": 100}, {"time": 26642, "pitch": 57, "duration": 160, "velocity": 90}, {"time": 26642, "pitch": 61, "duration": 160, "velocity": 100}, {"time": 26642, "pitch": 66, "duration": 160, "velocity": 80}, {"time": 26802, "pitch": 54, "duration": 79, "velocity": 80}, {"time": 26802, "pitch": 57, "duration": 79, "velocity": 70}, {"time": 26802, "pitch": 61, "duration": 79, "velocity": 80}, {"time": 26802, "pitch": 66, "duration": 79, "velocity": 60}, {"time": 26881, "pitch": 54, "duration": 10, "velocity": 110}, {"time": 26881, "pitch": 57, "duration": 10, "velocity": 100}, {"time": 26881, "pitch": 61, "duration": 10, "velocity": 110}, {"time": 26881, "pitch": 66, "duration": 10, "velocity": 90}, {"time": 27041, "pitch": 54, "duration": 10, "velocity": 80}, {"time": 27041, "pitch": 57, "duration": 10, "velocity": 70}, {"time": 27041, "pitch": 61, "duration": 10, "velocity": 80}, {"time": 27041, "pitch": 66, "duration": 10, "velocity": 60}, {"time": 27121, "pitch": 54, "duration": 10, "velocity": 100}, {"time": 27121, "pitch": 57, "duration": 10, "velocity": 90}, {"time": 27121, "pitch": 61, "duration": 10, "velocity": 100}, {"time": 27121, "pitch": 66, "duration": 10, "velocity": 80}, {"time": 27281, "pitch": 54, "duration": 80, "velocity": 80}, {"time": 27281, "pitch": 57, "duration": 80, "velocity": 70}, {"time": 27281, "pitch": 61, "duration": 80, "velocity": 80}, {"time": 27281, "pitch": 66, "duration": 80, "velocity": 60}, {"time": 27361, "pitch": 54, "duration": 160, "velocity": 110}, {"time": 27361, "pitch": 57, "duration": 160, "velocity": 100}, {"time": 27361, "pitch": 61, "duration": 160, "velocity": 110}, {"time": 27361, "pitch": 66, "duration": 160, "velocity": 90}, {"time": 27521, "pitch": 54, "duration": 80, "velocity": 80}, {"time": 27521, "pitch": 57, "duration": 80, "velocity": 70}, {"time": 27521, "pitch": 61, "duration": 80, "velocity": 80}, {"time": 27521, "pitch": 66, "duration": 80, "velocity": 60}, {"time": 27601, "pitch": 54, "duration": 160, "velocity": 100}, {"time": 27601, "pitch": 57, "duration": 160, "velocity": 90}, {"time": 27601, "pitch": 61, "duration": 160, "velocity": 100}, {"time": 27601, "pitch": 66, "duration": 160, "velocity": 80}, {"time": 27761, "pitch": 54, "duration": 80, "velocity": 80}, {"time": 27761, "pitch": 57, "duration": 80, "velocity": 70}, {"time": 27761, "pitch": 61, "duration": 80, "velocity": 80}, {"time": 27761, "pitch": 66, "duration": 80, "velocity": 60}, {"time": 27841, "pitch": 54, "duration": 10, "velocity": 110}, {"time": 27841, "pitch": 57, "duration": 10, "velocity": 100}, {"time": 27841, "pitch": 61, "duration": 10, "velocity": 110}, {"time": 27841, "pitch": 66, "duration": 10, "velocity": 90}, {"time": 28000, "pitch": 54, "duration": 10, "velocity": 80}, {"time": 28000, "pitch": 57, "duration": 10, "velocity": 70}, {"time": 28000, "pitch": 61, "duration": 10, "velocity": 80}, {"time": 28000, "pitch": 66, "duration": 10, "velocity": 60}, {"time": 28080, "pitch": 54, "duration": 10, "velocity": 100}, {"time": 28080, "pitch": 57, "duration": 10, "velocity": 90}, {"time": 28080, "pitch": 61, "duration": 10, "velocity": 100}, {"time": 28080, "pitch": 66, "duration": 10, "velocity": 80}, {"time": 28240, "pitch": 54, "duration": 80, "velocity": 80}, {"time": 28240, "pitch": 57, "duration": 80, "velocity": 70}, {"time": 28240, "pitch": 62, "duration": 80, "velocity": 80}, {"time": 28240, "pitch": 66, "duration": 80, "velocity": 60}, {"time": 28320, "pitch": 54, "duration": 160, "velocity": 115}, {"time": 28320, "pitch": 57, "duration": 160, "velocity": 105}, {"time": 28320, "pitch": 62, "duration": 160, "velocity": 115}, {"time": 28320, "pitch": 66, "duration": 160, "velocity": 95}, {"time": 28480, "pitch": 54, "duration": 80, "velocity": 80}, {"time": 28480, "pitch": 57, "duration": 80, "velocity": 70}, {"time": 28480, "pitch": 62, "duration": 80, "velocity": 80}, {"time": 28480, "pitch": 66, "duration": 80, "velocity": 60}, {"time": 28560, "pitch": 54, "duration": 240, "velocity": 100}, {"time": 28560, "pitch": 57, "duration": 240, "velocity": 90}, {"time": 28560, "pitch": 62, "duration": 240, "velocity": 100}, {"time": 28560, "pitch": 66, "duration": 240, "velocity": 80}, {"time": 28800, "pitch": 54, "duration": 239, "velocity": 100}, {"time": 28800, "pitch": 57, "duration": 239, "velocity": 90}, {"time": 28800, "pitch": 62, "duration": 239, "velocity": 100}, {"time": 28800, "pitch": 66, "duration": 239, "velocity": 80}, {"time": 29039, "pitch": 54, "duration": 160, "velocity": 110}, {"time": 29039, "pitch": 57, "duration": 160, "velocity": 100}, {"time": 29039, "pitch": 62, "duration": 160, "velocity": 110}, {"time": 29039, "pitch": 66, "duration": 160, "velocity": 90}, {"time": 29199, "pitch": 54, "duration": 70, "velocity": 80}, {"time": 29199, "pitch": 57, "duration": 80, "velocity": 70}, {"time": 29199, "pitch": 62, "duration": 80, "velocity": 80}, {"time": 29199, "pitch": 66, "duration": 80, "velocity": 60}, {"time": 29279, "pitch": 54, "duration": 160, "velocity": 115}, {"time": 29279, "pitch": 57, "duration": 160, "velocity": 105}, {"time": 29279, "pitch": 62, "duration": 160, "velocity": 115}, {"time": 29279, "pitch": 66, "duration": 160, "velocity": 95}, {"time": 29439, "pitch": 54, "duration": 80, "velocity": 80}, {"time": 29439, "pitch": 57, "duration": 80, "velocity": 70}, {"time": 29439, "pitch": 62, "duration": 80, "velocity": 80}, {"time": 29439, "pitch": 66, "duration": 80, "velocity": 60}, {"time": 29519, "pitch": 54, "duration": 240, "velocity": 100}, {"time": 29519, "pitch": 57, "duration": 240, "velocity": 90}, {"time": 29519, "pitch": 62, "duration": 240, "velocity": 100}, {"time": 29519, "pitch": 66, "duration": 240, "velocity": 80}, {"time": 29759, "pitch": 51, "duration": 239, "velocity": 105}, {"time": 29759, "pitch": 57, "duration": 239, "velocity": 95}, {"time": 29759, "pitch": 59, "duration": 239, "velocity": 105}, {"time": 29759, "pitch": 66, "duration": 239, "velocity": 85}, {"time": 29998, "pitch": 51, "duration": 160, "velocity": 100}, {"time": 29998, "pitch": 57, "duration": 160, "velocity": 90}, {"time": 29998, "pitch": 59, "duration": 160, "velocity": 100}, {"time": 29998, "pitch": 66, "duration": 160, "velocity": 80}, {"time": 30158, "pitch": 51, "duration": 80, "velocity": 70}, {"time": 30158, "pitch": 57, "duration": 80, "velocity": 80}, {"time": 30158, "pitch": 59, "duration": 80, "velocity": 80}, {"time": 30158, "pitch": 66, "duration": 80, "velocity": 60}, {"time": 30238, "pitch": 52, "duration": 240, "velocity": 110}, {"time": 30238, "pitch": 59, "duration": 240, "velocity": 100}, {"time": 30238, "pitch": 64, "duration": 240, "velocity": 110}, {"time": 30238, "pitch": 69, "duration": 240, "velocity": 110}, {"time": 30478, "pitch": 52, "duration": 240, "velocity": 65}, {"time": 30478, "pitch": 59, "duration": 240, "velocity": 75}, {"time": 30478, "pitch": 64, "duration": 240, "velocity": 85}, {"time": 30478, "pitch": 69, "duration": 240, "velocity": 85}, {"time": 30718, "pitch": 52, "duration": 239, "velocity": 90}, {"time": 30718, "pitch": 59, "duration": 239, "velocity": 100}, {"time": 30718, "pitch": 64, "duration": 239, "velocity": 110}, {"time": 30718, "pitch": 69, "duration": 239, "velocity": 110}, {"time": 30957, "pitch": 52, "duration": 240, "velocity": 65}, {"time": 30957, "pitch": 59, "duration": 240, "velocity": 75}, {"time": 30957, "pitch": 64, "duration": 240, "velocity": 85}, {"time": 30957, "pitch": 69, "duration": 240, "velocity": 85}, {"time": 31197, "pitch": 52, "duration": 243, "velocity": 90}, {"time": 31197, "pitch": 59, "duration": 243, "velocity": 100}, {"time": 31197, "pitch": 64, "duration": 243, "velocity": 110}, {"time": 31197, "pitch": 68, "duration": 243, "velocity": 110}, {"time": 31440, "pitch": 52, "duration": 243, "velocity": 65}, {"time": 31440, "pitch": 59, "duration": 243, "velocity": 75}, {"time": 31440, "pitch": 64, "duration": 243, "velocity": 85}, {"time": 31440, "pitch": 68, "duration": 243, "velocity": 85}, {"time": 31683, "pitch": 52, "duration": 240, "velocity": 90}, {"time": 31683, "pitch": 59, "duration": 240, "velocity": 100}, {"time": 31683, "pitch": 64, "duration": 240, "velocity": 110}, {"time": 31683, "pitch": 68, "duration": 240, "velocity": 110}, {"time": 31923, "pitch": 52, "duration": 239, "velocity": 65}, {"time": 31923, "pitch": 59, "duration": 239, "velocity": 75}, {"time": 31923, "pitch": 64, "duration": 239, "velocity": 85}, {"time": 31923, "pitch": 68, "duration": 239, "velocity": 85}, {"time": 32162, "pitch": 52, "duration": 240, "velocity": 90}, {"time": 32162, "pitch": 57, "duration": 240, "velocity": 100}, {"time": 32162, "pitch": 61, "duration": 240, "velocity": 110}, {"time": 32162, "pitch": 64, "duration": 240, "velocity": 110}, {"time": 32402, "pitch": 52, "duration": 240, "velocity": 65}, {"time": 32402, "pitch": 57, "duration": 240, "velocity": 75}, {"time": 32402, "pitch": 61, "duration": 240, "velocity": 85}, {"time": 32402, "pitch": 64, "duration": 240, "velocity": 85}, {"time": 32642, "pitch": 52, "duration": 240, "velocity": 90}, {"time": 32642, "pitch": 57, "duration": 240, "velocity": 100}, {"time": 32642, "pitch": 61, "duration": 240, "velocity": 110}, {"time": 32642, "pitch": 64, "duration": 240, "velocity": 110}, {"time": 32882, "pitch": 52, "duration": 199, "velocity": 65}, {"time": 32882, "pitch": 57, "duration": 199, "velocity": 75}, {"time": 32882, "pitch": 61, "duration": 199, "velocity": 85}, {"time": 32882, "pitch": 64, "duration": 199, "velocity": 85}, {"time": 33081, "pitch": 52, "duration": 40, "velocity": 55}, {"time": 33081, "pitch": 57, "duration": 40, "velocity": 65}, {"time": 33081, "pitch": 61, "duration": 40, "velocity": 75}, {"time": 33081, "pitch": 64, "duration": 40, "velocity": 75}, {"time": 33121, "pitch": 52, "duration": 160, "velocity": 80}, {"time": 33121, "pitch": 59, "duration": 160, "velocity": 110}, {"time": 33121, "pitch": 64, "duration": 160, "velocity": 90}, {"time": 33121, "pitch": 68, "duration": 160, "velocity": 100}, {"time": 33281, "pitch": 52, "duration": 80, "velocity": 70}, {"time": 33281, "pitch": 59, "duration": 80, "velocity": 100}, {"time": 33281, "pitch": 64, "duration": 80, "velocity": 80}, {"time": 33281, "pitch": 68, "duration": 80, "velocity": 90}, {"time": 33361, "pitch": 52, "duration": 240, "velocity": 90}, {"time": 33361, "pitch": 59, "duration": 240, "velocity": 117}, {"time": 33361, "pitch": 64, "duration": 240, "velocity": 100}, {"time": 33361, "pitch": 68, "duration": 240, "velocity": 110}, {"time": 33601, "pitch": 52, "duration": 240, "velocity": 90}, {"time": 33601, "pitch": 59, "duration": 240, "velocity": 100}, {"time": 33601, "pitch": 64, "duration": 240, "velocity": 110}, {"time": 33601, "pitch": 68, "duration": 240, "velocity": 110}, {"time": 33841, "pitch": 52, "duration": 199, "velocity": 65}, {"time": 33841, "pitch": 59, "duration": 199, "velocity": 75}, {"time": 33841, "pitch": 64, "duration": 199, "velocity": 85}, {"time": 33841, "pitch": 68, "duration": 199, "velocity": 85}, {"time": 34040, "pitch": 52, "duration": 40, "velocity": 55}, {"time": 34040, "pitch": 59, "duration": 40, "velocity": 65}, {"time": 34040, "pitch": 64, "duration": 40, "velocity": 75}, {"time": 34040, "pitch": 68, "duration": 40, "velocity": 75}, {"time": 34080, "pitch": 54, "duration": 240, "velocity": 90}, {"time": 34080, "pitch": 57, "duration": 240, "velocity": 100}, {"time": 34080, "pitch": 62, "duration": 240, "velocity": 110}, {"time": 34080, "pitch": 66, "duration": 240, "velocity": 110}, {"time": 34320, "pitch": 54, "duration": 240, "velocity": 65}, {"time": 34320, "pitch": 57, "duration": 240, "velocity": 75}, {"time": 34320, "pitch": 62, "duration": 240, "velocity": 85}, {"time": 34320, "pitch": 66, "duration": 240, "velocity": 85}, {"time": 34560, "pitch": 54, "duration": 240, "velocity": 90}, {"time": 34560, "pitch": 57, "duration": 240, "velocity": 100}, {"time": 34560, "pitch": 62, "duration": 240, "velocity": 110}, {"time": 34560, "pitch": 66, "duration": 240, "velocity": 110}, {"time": 34800, "pitch": 54, "duration": 200, "velocity": 65}, {"time": 34800, "pitch": 57, "duration": 200, "velocity": 75}, {"time": 34800, "pitch": 62, "duration": 200, "velocity": 85}, {"time": 34800, "pitch": 66, "duration": 200, "velocity": 85}, {"time": 35000, "pitch": 54, "duration": 39, "velocity": 55}, {"time": 35000, "pitch": 57, "duration": 39, "velocity": 65}, {"time": 35000, "pitch": 62, "duration": 39, "velocity": 75}, {"time": 35000, "pitch": 66, "duration": 39, "velocity": 75}, {"time": 35039, "pitch": 52, "duration": 160, "velocity": 80}, {"time": 35039, "pitch": 57, "duration": 160, "velocity": 110}, {"time": 35039, "pitch": 61, "duration": 160, "velocity": 90}, {"time": 35039, "pitch": 64, "duration": 160, "velocity": 100}, {"time": 35199, "pitch": 52, "duration": 80, "velocity": 70}, {"time": 35199, "pitch": 57, "duration": 80, "velocity": 100}, {"time": 35199, "pitch": 61, "duration": 80, "velocity": 80}, {"time": 35199, "pitch": 64, "duration": 80, "velocity": 90}, {"time": 35279, "pitch": 52, "duration": 240, "velocity": 90}, {"time": 35279, "pitch": 57, "duration": 240, "velocity": 117}, {"time": 35279, "pitch": 61, "duration": 240, "velocity": 100}, {"time": 35279, "pitch": 64, "duration": 240, "velocity": 110}, {"time": 35519, "pitch": 52, "duration": 240, "velocity": 90}, {"time": 35519, "pitch": 56, "duration": 240, "velocity": 100}, {"time": 35519, "pitch": 59, "duration": 240, "velocity": 110}, {"time": 35519, "pitch": 64, "duration": 240, "velocity": 110}, {"time": 35759, "pitch": 52, "duration": 200, "velocity": 65}, {"time": 35759, "pitch": 56, "duration": 200, "velocity": 75}, {"time": 35759, "pitch": 59, "duration": 200, "velocity": 85}, {"time": 35759, "pitch": 64, "duration": 200, "velocity": 85}, {"time": 35959, "pitch": 52, "duration": 40, "velocity": 55}, {"time": 35959, "pitch": 56, "duration": 40, "velocity": 65}, {"time": 35959, "pitch": 59, "duration": 40, "velocity": 75}, {"time": 35959, "pitch": 64, "duration": 40, "velocity": 75}, {"time": 35999, "pitch": 54, "duration": 239, "velocity": 90}, {"time": 35999, "pitch": 57, "duration": 239, "velocity": 100}, {"time": 35999, "pitch": 61, "duration": 239, "velocity": 110}, {"time": 35999, "pitch": 66, "duration": 239, "velocity": 110}, {"time": 36238, "pitch": 54, "duration": 240, "velocity": 65}, {"time": 36238, "pitch": 57, "duration": 240, "velocity": 75}, {"time": 36238, "pitch": 61, "duration": 240, "velocity": 85}, {"time": 36238, "pitch": 66, "duration": 240, "velocity": 85}, {"time": 36478, "pitch": 54, "duration": 240, "velocity": 90}, {"time": 36478, "pitch": 57, "duration": 240, "velocity": 100}, {"time": 36478, "pitch": 61, "duration": 240, "velocity": 110}, {"time": 36478, "pitch": 66, "duration": 240, "velocity": 110}, {"time": 36718, "pitch": 54, "duration": 200, "velocity": 65}, {"time": 36718, "pitch": 57, "duration": 200, "velocity": 75}, {"time": 36718, "pitch": 61, "duration": 200, "velocity": 85}, {"time": 36718, "pitch": 66, "duration": 200, "velocity": 85}, {"time": 36918, "pitch": 54, "duration": 40, "velocity": 55}, {"time": 36918, "pitch": 57, "duration": 40, "velocity": 65}, {"time": 36918, "pitch": 61, "duration": 40, "velocity": 75}, {"time": 36918, "pitch": 66, "duration": 40, "velocity": 75}, {"time": 36958, "pitch": 54, "duration": 159, "velocity": 80}, {"time": 36958, "pitch": 57, "duration": 159, "velocity": 110}, {"time": 36958, "pitch": 63, "duration": 159, "velocity": 90}, {"time": 36958, "pitch": 66, "duration": 159, "velocity": 100}, {"time": 37117, "pitch": 54, "duration": 80, "velocity": 70}, {"time": 37117, "pitch": 57, "duration": 80, "velocity": 100}, {"time": 37117, "pitch": 63, "duration": 80, "velocity": 80}, {"time": 37117, "pitch": 66, "duration": 80, "velocity": 90}, {"time": 37197, "pitch": 54, "duration": 240, "velocity": 90}, {"time": 37197, "pitch": 57, "duration": 240, "velocity": 117}, {"time": 37197, "pitch": 63, "duration": 240, "velocity": 100}, {"time": 37197, "pitch": 66, "duration": 240, "velocity": 110}, {"time": 37437, "pitch": 54, "duration": 243, "velocity": 90}, {"time": 37437, "pitch": 57, "duration": 243, "velocity": 100}, {"time": 37437, "pitch": 63, "duration": 243, "velocity": 110}, {"time": 37437, "pitch": 66, "duration": 243, "velocity": 110}, {"time": 37680, "pitch": 54, "duration": 202, "velocity": 65}, {"time": 37680, "pitch": 57, "duration": 202, "velocity": 75}, {"time": 37680, "pitch": 63, "duration": 202, "velocity": 85}, {"time": 37680, "pitch": 66, "duration": 202, "velocity": 85}, {"time": 37882, "pitch": 54, "duration": 41, "velocity": 55}, {"time": 37882, "pitch": 57, "duration": 41, "velocity": 65}, {"time": 37882, "pitch": 63, "duration": 41, "velocity": 75}, {"time": 37882, "pitch": 66, "duration": 41, "velocity": 75}, {"time": 37923, "pitch": 54, "duration": 240, "velocity": 90}, {"time": 37923, "pitch": 57, "duration": 240, "velocity": 100}, {"time": 37923, "pitch": 62, "duration": 240, "velocity": 110}, {"time": 37923, "pitch": 66, "duration": 240, "velocity": 110}, {"time": 38163, "pitch": 54, "duration": 239, "velocity": 65}, {"time": 38163, "pitch": 57, "duration": 239, "velocity": 75}, {"time": 38163, "pitch": 62, "duration": 239, "velocity": 85}, {"time": 38163, "pitch": 66, "duration": 239, "velocity": 85}, {"time": 38402, "pitch": 54, "duration": 240, "velocity": 90}, {"time": 38402, "pitch": 57, "duration": 240, "velocity": 100}, {"time": 38402, "pitch": 62, "duration": 240, "velocity": 110}, {"time": 38402, "pitch": 66, "duration": 240, "velocity": 110}, {"time": 38642, "pitch": 54, "duration": 200, "velocity": 65}, {"time": 38642, "pitch": 57, "duration": 200, "velocity": 75}, {"time": 38642, "pitch": 62, "duration": 200, "velocity": 85}, {"time": 38642, "pitch": 66, "duration": 200, "velocity": 85}, {"time": 38842, "pitch": 54, "duration": 40, "velocity": 55}, {"time": 38842, "pitch": 57, "duration": 40, "velocity": 65}, {"time": 38842, "pitch": 62, "duration": 40, "velocity": 75}, {"time": 38842, "pitch": 66, "duration": 40, "velocity": 75}, {"time": 38882, "pitch": 52, "duration": 160, "velocity": 80}, {"time": 38882, "pitch": 57, "duration": 160, "velocity": 110}, {"time": 38882, "pitch": 59, "duration": 160, "velocity": 90}, {"time": 38882, "pitch": 64, "duration": 160, "velocity": 100}, {"time": 39042, "pitch": 52, "duration": 80, "velocity": 70}, {"time": 39042, "pitch": 57, "duration": 80, "velocity": 100}, {"time": 39042, "pitch": 59, "duration": 80, "velocity": 80}, {"time": 39042, "pitch": 64, "duration": 80, "velocity": 90}, {"time": 39122, "pitch": 52, "duration": 239, "velocity": 90}, {"time": 39122, "pitch": 57, "duration": 239, "velocity": 117}, {"time": 39122, "pitch": 59, "duration": 239, "velocity": 100}, {"time": 39122, "pitch": 64, "duration": 239, "velocity": 110}, {"time": 39361, "pitch": 52, "duration": 240, "velocity": 90}, {"time": 39361, "pitch": 56, "duration": 240, "velocity": 100}, {"time": 39361, "pitch": 59, "duration": 240, "velocity": 110}, {"time": 39361, "pitch": 64, "duration": 240, "velocity": 110}, {"time": 39601, "pitch": 52, "duration": 200, "velocity": 65}, {"time": 39601, "pitch": 56, "duration": 200, "velocity": 75}, {"time": 39601, "pitch": 59, "duration": 200, "velocity": 85}, {"time": 39601, "pitch": 64, "duration": 200, "velocity": 85}, {"time": 39801, "pitch": 52, "duration": 40, "velocity": 55}, {"time": 39801, "pitch": 56, "duration": 40, "velocity": 65}, {"time": 39801, "pitch": 59, "duration": 40, "velocity": 75}, {"time": 39801, "pitch": 64, "duration": 40, "velocity": 75}, {"time": 39841, "pitch": 52, "duration": 240, "velocity": 90}, {"time": 39841, "pitch": 57, "duration": 240, "velocity": 100}, {"time": 39841, "pitch": 61, "duration": 240, "velocity": 110}, {"time": 39841, "pitch": 64, "duration": 240, "velocity": 110}, {"time": 40081, "pitch": 52, "duration": 239, "velocity": 65}, {"time": 40081, "pitch": 57, "duration": 239, "velocity": 75}, {"time": 40081, "pitch": 61, "duration": 239, "velocity": 85}, {"time": 40081, "pitch": 64, "duration": 239, "velocity": 85}, {"time": 40320, "pitch": 52, "duration": 240, "velocity": 90}, {"time": 40320, "pitch": 57, "duration": 240, "velocity": 100}, {"time": 40320, "pitch": 61, "duration": 240, "velocity": 110}, {"time": 40320, "pitch": 64, "duration": 240, "velocity": 110}, {"time": 40560, "pitch": 52, "duration": 200, "velocity": 65}, {"time": 40560, "pitch": 57, "duration": 200, "velocity": 75}, {"time": 40560, "pitch": 61, "duration": 200, "velocity": 85}, {"time": 40560, "pitch": 64, "duration": 200, "velocity": 85}, {"time": 40760, "pitch": 52, "duration": 40, "velocity": 55}, {"time": 40760, "pitch": 57, "duration": 40, "velocity": 65}, {"time": 40760, "pitch": 61, "duration": 40, "velocity": 75}, {"time": 40760, "pitch": 64, "duration": 40, "velocity": 75}, {"time": 40800, "pitch": 52, "duration": 160, "velocity": 80}, {"time": 40800, "pitch": 59, "duration": 160, "velocity": 110}, {"time": 40800, "pitch": 64, "duration": 160, "velocity": 90}, {"time": 40800, "pitch": 68, "duration": 160, "velocity": 100}, {"time": 40960, "pitch": 52, "duration": 80, "velocity": 70}, {"time": 40960, "pitch": 59, "duration": 80, "velocity": 100}, {"time": 40960, "pitch": 64, "duration": 80, "velocity": 80}, {"time": 40960, "pitch": 68, "duration": 80, "velocity": 90}, {"time": 41040, "pitch": 52, "duration": 239, "velocity": 90}, {"time": 41040, "pitch": 59, "duration": 239, "velocity": 117}, {"time": 41040, "pitch": 64, "duration": 239, "velocity": 100}, {"time": 41040, "pitch": 68, "duration": 239, "velocity": 110}, {"time": 41279, "pitch": 52, "duration": 240, "velocity": 90}, {"time": 41279, "pitch": 59, "duration": 240, "velocity": 100}, {"time": 41279, "pitch": 64, "duration": 240, "velocity": 110}, {"time": 41279, "pitch": 68, "duration": 240, "velocity": 110}, {"time": 41519, "pitch": 52, "duration": 200, "velocity": 65}, {"time": 41519, "pitch": 59, "duration": 200, "velocity": 75}, {"time": 41519, "pitch": 64, "duration": 200, "velocity": 85}, {"time": 41519, "pitch": 68, "duration": 200, "velocity": 85}, {"time": 41719, "pitch": 52, "duration": 40, "velocity": 55}, {"time": 41719, "pitch": 59, "duration": 40, "velocity": 65}, {"time": 41719, "pitch": 64, "duration": 40, "velocity": 75}, {"time": 41719, "pitch": 68, "duration": 40, "velocity": 75}, {"time": 41759, "pitch": 54, "duration": 240, "velocity": 90}, {"time": 41759, "pitch": 57, "duration": 240, "velocity": 100}, {"time": 41759, "pitch": 62, "duration": 240, "velocity": 110}, {"time": 41759, "pitch": 66, "duration": 240, "velocity": 110}, {"time": 41999, "pitch": 54, "duration": 239, "velocity": 65}, {"time": 41999, "pitch": 57, "duration": 239, "velocity": 75}, {"time": 41999, "pitch": 62, "duration": 239, "velocity": 85}, {"time": 41999, "pitch": 66, "duration": 239, "velocity": 85}, {"time": 42238, "pitch": 54, "duration": 240, "velocity": 90}, {"time": 42238, "pitch": 57, "duration": 240, "velocity": 100}, {"time": 42238, "pitch": 62, "duration": 240, "velocity": 110}, {"time": 42238, "pitch": 66, "duration": 240, "velocity": 110}, {"time": 42478, "pitch": 54, "duration": 200, "velocity": 65}, {"time": 42478, "pitch": 57, "duration": 200, "velocity": 75}, {"time": 42478, "pitch": 62, "duration": 200, "velocity": 85}, {"time": 42478, "pitch": 66, "duration": 200, "velocity": 85}, {"time": 42678, "pitch": 54, "duration": 40, "velocity": 55}, {"time": 42678, "pitch": 57, "duration": 40, "velocity": 65}, {"time": 42678, "pitch": 62, "duration": 40, "velocity": 75}, {"time": 42678, "pitch": 66, "duration": 40, "velocity": 75}, {"time": 42718, "pitch": 52, "duration": 160, "velocity": 80}, {"time": 42718, "pitch": 57, "duration": 160, "velocity": 110}, {"time": 42718, "pitch": 61, "duration": 160, "velocity": 90}, {"time": 42718, "pitch": 64, "duration": 160, "velocity": 100}, {"time": 42878, "pitch": 52, "duration": 80, "velocity": 70}, {"time": 42878, "pitch": 57, "duration": 80, "velocity": 100}, {"time": 42878, "pitch": 61, "duration": 80, "velocity": 80}, {"time": 42878, "pitch": 64, "duration": 80, "velocity": 90}, {"time": 42958, "pitch": 52, "duration": 239, "velocity": 90}, {"time": 42958, "pitch": 57, "duration": 239, "velocity": 117}, {"time": 42958, "pitch": 61, "duration": 239, "velocity": 100}, {"time": 42958, "pitch": 64, "duration": 239, "velocity": 110}, {"time": 43197, "pitch": 52, "duration": 240, "velocity": 90}, {"time": 43197, "pitch": 56, "duration": 240, "velocity": 100}, {"time": 43197, "pitch": 59, "duration": 240, "velocity": 110}, {"time": 43197, "pitch": 64, "duration": 240, "velocity": 110}, {"time": 43437, "pitch": 52, "duration": 200, "velocity": 65}, {"time": 43437, "pitch": 56, "duration": 200, "velocity": 75}, {"time": 43437, "pitch": 59, "duration": 200, "velocity": 85}, {"time": 43437, "pitch": 64, "duration": 200, "velocity": 85}, {"time": 43637, "pitch": 52, "duration": 40, "velocity": 55}, {"time": 43637, "pitch": 56, "duration": 40, "velocity": 65}, {"time": 43637, "pitch": 59, "duration": 40, "velocity": 75}, {"time": 43637, "pitch": 64, "duration": 40, "velocity": 75}, {"time": 43677, "pitch": 54, "duration": 243, "velocity": 90}, {"time": 43677, "pitch": 57, "duration": 243, "velocity": 100}, {"time": 43677, "pitch": 61, "duration": 243, "velocity": 110}, {"time": 43677, "pitch": 66, "duration": 243, "velocity": 110}, {"time": 43920, "pitch": 54, "duration": 243, "velocity": 65}, {"time": 43920, "pitch": 57, "duration": 243, "velocity": 75}, {"time": 43920, "pitch": 61, "duration": 243, "velocity": 85}, {"time": 43920, "pitch": 66, "duration": 243, "velocity": 85}, {"time": 44163, "pitch": 54, "duration": 239, "velocity": 90}, {"time": 44163, "pitch": 57, "duration": 239, "velocity": 100}, {"time": 44163, "pitch": 61, "duration": 239, "velocity": 110}, {"time": 44163, "pitch": 66, "duration": 239, "velocity": 110}, {"time": 44402, "pitch": 54, "duration": 200, "velocity": 65}, {"time": 44402, "pitch": 57, "duration": 200, "velocity": 75}, {"time": 44402, "pitch": 61, "duration": 200, "velocity": 85}, {"time": 44402, "pitch": 66, "duration": 200, "velocity": 85}, {"time": 44602, "pitch": 54, "duration": 40, "velocity": 55}, {"time": 44602, "pitch": 57, "duration": 40, "velocity": 65}, {"time": 44602, "pitch": 61, "duration": 40, "velocity": 75}, {"time": 44602, "pitch": 66, "duration": 40, "velocity": 75}, {"time": 44642, "pitch": 54, "duration": 160, "velocity": 80}, {"time": 44642, "pitch": 57, "duration": 160, "velocity": 110}, {"time": 44642, "pitch": 63, "duration": 160, "velocity": 90}, {"time": 44642, "pitch": 66, "duration": 160, "velocity": 100}, {"time": 44802, "pitch": 54, "duration": 80, "velocity": 70}, {"time": 44802, "pitch": 57, "duration": 80, "velocity": 100}, {"time": 44802, "pitch": 63, "duration": 80, "velocity": 80}, {"time": 44802, "pitch": 66, "duration": 80, "velocity": 90}, {"time": 44882, "pitch": 54, "duration": 240, "velocity": 90}, {"time": 44882, "pitch": 57, "duration": 240, "velocity": 117}, {"time": 44882, "pitch": 63, "duration": 240, "velocity": 100}, {"time": 44882, "pitch": 66, "duration": 240, "velocity": 110}, {"time": 45122, "pitch": 54, "duration": 239, "velocity": 90}, {"time": 45122, "pitch": 57, "duration": 239, "velocity": 100}, {"time": 45122, "pitch": 63, "duration": 239, "velocity": 110}, {"time": 45122, "pitch": 66, "duration": 239, "velocity": 110}, {"time": 45361, "pitch": 54, "duration": 200, "velocity": 65}, {"time": 45361, "pitch": 57, "duration": 200, "velocity": 75}, {"time": 45361, "pitch": 63, "duration": 200, "velocity": 85}, {"time": 45361, "pitch": 66, "duration": 200, "velocity": 85}, {"time": 45561, "pitch": 54, "duration": 40, "velocity": 55}, {"time": 45561, "pitch": 57, "duration": 40, "velocity": 65}, {"time": 45561, "pitch": 63, "duration": 40, "velocity": 75}, {"time": 45561, "pitch": 66, "duration": 40, "velocity": 75}, {"time": 45601, "pitch": 54, "duration": 240, "velocity": 90}, {"time": 45601, "pitch": 57, "duration": 240, "velocity": 100}, {"time": 45601, "pitch": 62, "duration": 240, "velocity": 110}, {"time": 45601, "pitch": 66, "duration": 240, "velocity": 110}, {"time": 45841, "pitch": 54, "duration": 240, "velocity": 65}, {"time": 45841, "pitch": 57, "duration": 240, "velocity": 75}, {"time": 45841, "pitch": 62, "duration": 240, "velocity": 85}, {"time": 45841, "pitch": 66, "duration": 240, "velocity": 85}, {"time": 46081, "pitch": 54, "duration": 240, "velocity": 90}, {"time": 46081, "pitch": 57, "duration": 240, "velocity": 100}, {"time": 46081, "pitch": 62, "duration": 240, "velocity": 110}, {"time": 46081, "pitch": 66, "duration": 240, "velocity": 110}, {"time": 46321, "pitch": 54, "duration": 199, "velocity": 65}, {"time": 46321, "pitch": 57, "duration": 199, "velocity": 75}, {"time": 46321, "pitch": 62, "duration": 199, "velocity": 85}, {"time": 46321, "pitch": 66, "duration": 199, "velocity": 85}, {"time": 46520, "pitch": 54, "duration": 40, "velocity": 55}, {"time": 46520, "pitch": 57, "duration": 40, "velocity": 65}, {"time": 46520, "pitch": 62, "duration": 40, "velocity": 75}, {"time": 46520, "pitch": 66, "duration": 40, "velocity": 75}, {"time": 46560, "pitch": 52, "duration": 160, "velocity": 80}, {"time": 46560, "pitch": 57, "duration": 160, "velocity": 110}, {"time": 46560, "pitch": 59, "duration": 160, "velocity": 90}, {"time": 46560, "pitch": 64, "duration": 160, "velocity": 100}, {"time": 46720, "pitch": 52, "duration": 80, "velocity": 70}, {"time": 46720, "pitch": 57, "duration": 80, "velocity": 100}, {"time": 46720, "pitch": 59, "duration": 80, "velocity": 80}, {"time": 46720, "pitch": 64, "duration": 80, "velocity": 90}, {"time": 46800, "pitch": 52, "duration": 240, "velocity": 90}, {"time": 46800, "pitch": 57, "duration": 240, "velocity": 117}, {"time": 46800, "pitch": 59, "duration": 240, "velocity": 100}, {"time": 46800, "pitch": 64, "duration": 240, "velocity": 110}, {"time": 47040, "pitch": 52, "duration": 240, "velocity": 90}, {"time": 47040, "pitch": 56, "duration": 240, "velocity": 100}, {"time": 47040, "pitch": 59, "duration": 240, "velocity": 110}, {"time": 47040, "pitch": 64, "duration": 240, "velocity": 110}, {"time": 47280, "pitch": 52, "duration": 199, "velocity": 65}, {"time": 47280, "pitch": 56, "duration": 199, "velocity": 75}, {"time": 47280, "pitch": 59, "duration": 199, "velocity": 85}, {"time": 47280, "pitch": 64, "duration": 199, "velocity": 85}, {"time": 47479, "pitch": 52, "duration": 40, "velocity": 55}, {"time": 47479, "pitch": 56, "duration": 40, "velocity": 65}, {"time": 47479, "pitch": 59, "duration": 40, "velocity": 75}, {"time": 47479, "pitch": 64, "duration": 40, "velocity": 75}, {"time": 47519, "pitch": 50, "duration": 1918, "velocity": 90}, {"time": 47759, "pitch": 57, "duration": 480, "velocity": 100}, {"time": 47999, "pitch": 62, "duration": 959, "velocity": 110}, {"time": 48239, "pitch": 57, "duration": 439, "velocity": 90}, {"time": 48478, "pitch": 66, "duration": 959, "velocity": 110}, {"time": 48718, "pitch": 57, "duration": 480, "velocity": 90}, {"time": 48958, "pitch": 62, "duration": 479, "velocity": 100}, {"time": 49198, "pitch": 57, "duration": 239, "velocity": 90}, {"time": 49437, "pitch": 49, "duration": 1925, "velocity": 90}, {"time": 49680, "pitch": 56, "duration": 483, "velocity": 100}, {"time": 49923, "pitch": 61, "duration": 959, "velocity": 110}, {"time": 50163, "pitch": 56, "duration": 439, "velocity": 90}, {"time": 50403, "pitch": 68, "duration": 959, "velocity": 110}, {"time": 50642, "pitch": 56, "duration": 480, "velocity": 90}, {"time": 50882, "pitch": 61, "duration": 480, "velocity": 100}, {"time": 51122, "pitch": 56, "duration": 240, "velocity": 90}, {"time": 51362, "pitch": 47, "duration": 959, "velocity": 100}, {"time": 51601, "pitch": 62, "duration": 480, "velocity": 100}, {"time": 51841, "pitch": 66, "duration": 480, "velocity": 110}, {"time": 52081, "pitch": 59, "duration": 240, "velocity": 90}, {"time": 52321, "pitch": 40, "duration": 959, "velocity": 100}, {"time": 52560, "pitch": 59, "duration": 480, "velocity": 100}, {"time": 52800, "pitch": 64, "duration": 480, "velocity": 110}, {"time": 53040, "pitch": 56, "duration": 240, "velocity": 90}, {"time": 53280, "pitch": 45, "duration": 959, "velocity": 100}, {"time": 53519, "pitch": 61, "duration": 480, "velocity": 100}, {"time": 53759, "pitch": 64, "duration": 480, "velocity": 110}, {"time": 53999, "pitch": 57, "duration": 240, "velocity": 90}, {"time": 54239, "pitch": 52, "duration": 160, "velocity": 115}, {"time": 54239, "pitch": 56, "duration": 160, "velocity": 105}, {"time": 54239, "pitch": 59, "duration": 160, "velocity": 115}, {"time": 54239, "pitch": 64, "duration": 160, "velocity": 95}, {"time": 54399, "pitch": 52, "duration": 80, "velocity": 85}, {"time": 54399, "pitch": 56, "duration": 80, "velocity": 75}, {"time": 54399, "pitch": 59, "duration": 80, "velocity": 85}, {"time": 54399, "pitch": 64, "duration": 80, "velocity": 65}, {"time": 54479, "pitch": 52, "duration": 159, "velocity": 105}, {"time": 54479, "pitch": 56, "duration": 159, "velocity": 95}, {"time": 54479, "pitch": 59, "duration": 159, "velocity": 105}, {"time": 54479, "pitch": 64, "duration": 159, "velocity": 85}, {"time": 54638, "pitch": 52, "duration": 80, "velocity": 85}, {"time": 54638, "pitch": 56, "duration": 80, "velocity": 75}, {"time": 54638, "pitch": 59, "duration": 80, "velocity": 85}, {"time": 54638, "pitch": 64, "duration": 80, "velocity": 65}, {"time": 54718, "pitch": 52, "duration": 160, "velocity": 115}, {"time": 54718, "pitch": 56, "duration": 160, "velocity": 105}, {"time": 54718, "pitch": 59, "duration": 160, "velocity": 115}, {"time": 54718, "pitch": 64, "duration": 160, "velocity": 95}, {"time": 54878, "pitch": 52, "duration": 80, "velocity": 85}, {"time": 54878, "pitch": 56, "duration": 80, "velocity": 75}, {"time": 54878, "pitch": 59, "duration": 80, "velocity": 85}, {"time": 54878, "pitch": 64, "duration": 80, "velocity": 65}, {"time": 54958, "pitch": 52, "duration": 240, "velocity": 115}, {"time": 54958, "pitch": 56, "duration": 240, "velocity": 105}, {"time": 54958, "pitch": 59, "duration": 240, "velocity": 115}, {"time": 54958, "pitch": 64, "duration": 240, "velocity": 95}, {"time": 55198, "pitch": 45, "duration": 965, "velocity": 98}, {"time": 55438, "pitch": 61, "duration": 725, "velocity": 98}, {"time": 55677, "pitch": 64, "duration": 486, "velocity": 100}, {"time": 55920, "pitch": 57, "duration": 243, "velocity": 88}, {"time": 56163, "pitch": 50, "duration": 959, "velocity": 98}, {"time": 56403, "pitch": 62, "duration": 719, "velocity": 98}, {"time": 56642, "pitch": 66, "duration": 480, "velocity": 100}, {"time": 56882, "pitch": 57, "duration": 240, "velocity": 88}, {"time": 57122, "pitch": 52, "duration": 959, "velocity": 98}, {"time": 57362, "pitch": 64, "duration": 719, "velocity": 98}, {"time": 57602, "pitch": 68, "duration": 479, "velocity": 100}, {"time": 57841, "pitch": 59, "duration": 240, "velocity": 88}, {"time": 58081, "pitch": 57, "duration": 480, "velocity": 96}, {"time": 58321, "pitch": 61, "duration": 240, "velocity": 107}, {"time": 58561, "pitch": 56, "duration": 479, "velocity": 102}, {"time": 58800, "pitch": 64, "duration": 240, "velocity": 102}, {"time": 59040, "pitch": 42, "duration": 959, "velocity": 98}, {"time": 59280, "pitch": 57, "duration": 719, "velocity": 98}, {"time": 59520, "pitch": 61, "duration": 479, "velocity": 100}, {"time": 59759, "pitch": 54, "duration": 240, "velocity": 88}, {"time": 59999, "pitch": 49, "duration": 959, "velocity": 98}, {"time": 60239, "pitch": 61, "duration": 719, "velocity": 98}, {"time": 60479, "pitch": 64, "duration": 479, "velocity": 100}, {"time": 60718, "pitch": 56, "duration": 240, "velocity": 88}, {"time": 60958, "pitch": 50, "duration": 959, "velocity": 98}, {"time": 61198, "pitch": 62, "duration": 719, "velocity": 98}, {"time": 61438, "pitch": 66, "duration": 479, "velocity": 100}, {"time": 61677, "pitch": 57, "duration": 240, "velocity": 88}, {"time": 61917, "pitch": 68, "duration": 486, "velocity": 96}, {"time": 62160, "pitch": 64, "duration": 722, "velocity": 107}, {"time": 62403, "pitch": 68, "duration": 479, "velocity": 102}, {"time": 62882, "pitch": 45, "duration": 959, "velocity": 98}, {"time": 63122, "pitch": 61, "duration": 719, "velocity": 98}, {"time": 63362, "pitch": 64, "duration": 479, "velocity": 100}, {"time": 63602, "pitch": 57, "duration": 239, "velocity": 88}, {"time": 63841, "pitch": 50, "duration": 959, "velocity": 98}, {"time": 64081, "pitch": 62, "duration": 719, "velocity": 98}, {"time": 64321, "pitch": 66, "duration": 479, "velocity": 100}, {"time": 64561, "pitch": 57, "duration": 239, "velocity": 88}, {"time": 64800, "pitch": 52, "duration": 960, "velocity": 98}, {"time": 65040, "pitch": 64, "duration": 720, "velocity": 98}, {"time": 65280, "pitch": 68, "duration": 480, "velocity": 100}, {"time": 65520, "pitch": 59, "duration": 240, "velocity": 88}, {"time": 65760, "pitch": 57, "duration": 479, "velocity": 96}, {"time": 65999, "pitch": 61, "duration": 240, "velocity": 107}, {"time": 66239, "pitch": 56, "duration": 480, "velocity": 102}, {"time": 66479, "pitch": 64, "duration": 240, "velocity": 102}, {"time": 66719, "pitch": 42, "duration": 959, "velocity": 98}, {"time": 66958, "pitch": 57, "duration": 720, "velocity": 98}, {"time": 67198, "pitch": 61, "duration": 480, "velocity": 100}, {"time": 67438, "pitch": 54, "duration": 240, "velocity": 88}, {"time": 67678, "pitch": 49, "duration": 965, "velocity": 98}, {"time": 67917, "pitch": 61, "duration": 726, "velocity": 98}, {"time": 68157, "pitch": 64, "duration": 486, "velocity": 100}, {"time": 68400, "pitch": 56, "duration": 243, "velocity": 88}, {"time": 68643, "pitch": 57, "duration": 479, "velocity": 96}, {"time": 68883, "pitch": 66, "duration": 239, "velocity": 107}, {"time": 69122, "pitch": 59, "duration": 480, "velocity": 102}, {"time": 69362, "pitch": 68, "duration": 240, "velocity": 102}, {"time": 69602, "pitch": 45, "duration": 959, "velocity": 100}, {"time": 69842, "pitch": 57, "duration": 159, "velocity": 100}, {"time": 69842, "pitch": 61, "duration": 159, "velocity": 110}, {"time": 69842, "pitch": 64, "duration": 159, "velocity": 90}, {"time": 70001, "pitch": 57, "duration": 80, "velocity": 70}, {"time": 70001, "pitch": 61, "duration": 80, "velocity": 80}, {"time": 70001, "pitch": 64, "duration": 80, "velocity": 60}, {"time": 70081, "pitch": 57, "duration": 160, "velocity": 90}, {"time": 70081, "pitch": 61, "duration": 160, "velocity": 100}, {"time": 70081, "pitch": 64, "duration": 160, "velocity": 80}, {"time": 70241, "pitch": 57, "duration": 80, "velocity": 70}, {"time": 70241, "pitch": 61, "duration": 80, "velocity": 80}, {"time": 70241, "pitch": 64, "duration": 80, "velocity": 60}, {"time": 70321, "pitch": 57, "duration": 240, "velocity": 100}, {"time": 70321, "pitch": 61, "duration": 240, "velocity": 110}, {"time": 70321, "pitch": 64, "duration": 240, "velocity": 90}, {"time": 70561, "pitch": 54, "duration": 160, "velocity": 110}, {"time": 70561, "pitch": 59, "duration": 160, "velocity": 100}, {"time": 70561, "pitch": 62, "duration": 160, "velocity": 110}, {"time": 70561, "pitch": 66, "duration": 160, "velocity": 90}, {"time": 70721, "pitch": 54, "duration": 80, "velocity": 80}, {"time": 70721, "pitch": 59, "duration": 80, "velocity": 70}, {"time": 70721, "pitch": 62, "duration": 80, "velocity": 80}, {"time": 70721, "pitch": 66, "duration": 80, "velocity": 60}, {"time": 70801, "pitch": 54, "duration": 159, "velocity": 100}, {"time": 70801, "pitch": 59, "duration": 159, "velocity": 90}, {"time": 70801, "pitch": 62, "duration": 159, "velocity": 100}, {"time": 70801, "pitch": 66, "duration": 159, "velocity": 80}, {"time": 70960, "pitch": 54, "duration": 80, "velocity": 80}, {"time": 70960, "pitch": 59, "duration": 80, "velocity": 70}, {"time": 70960, "pitch": 62, "duration": 80, "velocity": 80}, {"time": 70960, "pitch": 66, "duration": 80, "velocity": 60}, {"time": 71040, "pitch": 54, "duration": 10, "velocity": 110}, {"time": 71040, "pitch": 59, "duration": 10, "velocity": 100}, {"time": 71040, "pitch": 62, "duration": 10, "velocity": 110}, {"time": 71040, "pitch": 66, "duration": 10, "velocity": 90}, {"time": 71200, "pitch": 54, "duration": 10, "velocity": 80}, {"time": 71200, "pitch": 59, "duration": 10, "velocity": 70}, {"time": 71200, "pitch": 62, "duration": 10, "velocity": 80}, {"time": 71200, "pitch": 66, "duration": 10, "velocity": 60}, {"time": 71280, "pitch": 54, "duration": 10, "velocity": 100}, {"time": 71280, "pitch": 59, "duration": 10, "velocity": 90}, {"time": 71280, "pitch": 62, "duration": 10, "velocity": 100}, {"time": 71280, "pitch": 66, "duration": 10, "velocity": 80}, {"time": 71440, "pitch": 54, "duration": 80, "velocity": 80}, {"time": 71440, "pitch": 59, "duration": 80, "velocity": 70}, {"time": 71440, "pitch": 62, "duration": 80, "velocity": 80}, {"time": 71440, "pitch": 66, "duration": 80, "velocity": 60}, {"time": 71520, "pitch": 54, "duration": 160, "velocity": 110}, {"time": 71520, "pitch": 59, "duration": 160, "velocity": 100}, {"time": 71520, "pitch": 62, "duration": 160, "velocity": 110}, {"time": 71520, "pitch": 66, "duration": 160, "velocity": 90}, {"time": 71680, "pitch": 54, "duration": 80, "velocity": 80}, {"time": 71680, "pitch": 59, "duration": 80, "velocity": 70}, {"time": 71680, "pitch": 62, "duration": 80, "velocity": 80}, {"time": 71680, "pitch": 66, "duration": 80, "velocity": 60}, {"time": 71760, "pitch": 54, "duration": 160, "velocity": 100}, {"time": 71760, "pitch": 59, "duration": 160, "velocity": 90}, {"time": 71760, "pitch": 62, "duration": 160, "velocity": 100}, {"time": 71760, "pitch": 66, "duration": 160, "velocity": 80}, {"time": 71920, "pitch": 54, "duration": 79, "velocity": 80}, {"time": 71920, "pitch": 59, "duration": 79, "velocity": 70}, {"time": 71920, "pitch": 62, "duration": 79, "velocity": 80}, {"time": 71920, "pitch": 66, "duration": 79, "velocity": 60}, {"time": 71999, "pitch": 54, "duration": 10, "velocity": 110}, {"time": 71999, "pitch": 59, "duration": 10, "velocity": 100}, {"time": 71999, "pitch": 62, "duration": 10, "velocity": 110}, {"time": 71999, "pitch": 66, "duration": 10, "velocity": 90}, {"time": 72159, "pitch": 54, "duration": 10, "velocity": 80}, {"time": 72159, "pitch": 59, "duration": 10, "velocity": 70}, {"time": 72159, "pitch": 62, "duration": 10, "velocity": 80}, {"time": 72159, "pitch": 66, "duration": 10, "velocity": 60}, {"time": 72239, "pitch": 54, "duration": 10, "velocity": 100}, {"time": 72239, "pitch": 59, "duration": 10, "velocity": 90}, {"time": 72239, "pitch": 62, "duration": 10, "velocity": 100}, {"time": 72239, "pitch": 66, "duration": 10, "velocity": 80}, {"time": 72399, "pitch": 54, "duration": 80, "velocity": 80}, {"time": 72399, "pitch": 57, "duration": 80, "velocity": 70}, {"time": 72399, "pitch": 61, "duration": 80, "velocity": 80}, {"time": 72399, "pitch": 66, "duration": 80, "velocity": 60}, {"time": 72479, "pitch": 54, "duration": 160, "velocity": 110}, {"time": 72479, "pitch": 57, "duration": 160, "velocity": 100}, {"time": 72479, "pitch": 61, "duration": 160, "velocity": 110}, {"time": 72479, "pitch": 66, "duration": 160, "velocity": 90}, {"time": 72639, "pitch": 54, "duration": 80, "velocity": 80}, {"time": 72639, "pitch": 57, "duration": 80, "velocity": 70}, {"time": 72639, "pitch": 61, "duration": 80, "velocity": 80}, {"time": 72639, "pitch": 66, "duration": 80, "velocity": 60}, {"time": 72719, "pitch": 54, "duration": 160, "velocity": 100}, {"time": 72719, "pitch": 57, "duration": 160, "velocity": 90}, {"time": 72719, "pitch": 61, "duration": 160, "velocity": 100}, {"time": 72719, "pitch": 66, "duration": 160, "velocity": 80}, {"time": 72879, "pitch": 54, "duration": 79, "velocity": 80}, {"time": 72879, "pitch": 57, "duration": 79, "velocity": 70}, {"time": 72879, "pitch": 61, "duration": 79, "velocity": 80}, {"time": 72879, "pitch": 66, "duration": 79, "velocity": 60}, {"time": 72958, "pitch": 54, "duration": 10, "velocity": 110}, {"time": 72958, "pitch": 57, "duration": 10, "velocity": 100}, {"time": 72958, "pitch": 61, "duration": 10, "velocity": 110}, {"time": 72958, "pitch": 66, "duration": 10, "velocity": 90}, {"time": 73118, "pitch": 54, "duration": 10, "velocity": 80}, {"time": 73118, "pitch": 57, "duration": 10, "velocity": 70}, {"time": 73118, "pitch": 61, "duration": 10, "velocity": 80}, {"time": 73118, "pitch": 66, "duration": 10, "velocity": 60}, {"time": 73198, "pitch": 54, "duration": 10, "velocity": 100}, {"time": 73198, "pitch": 57, "duration": 10, "velocity": 90}, {"time": 73198, "pitch": 61, "duration": 10, "velocity": 100}, {"time": 73198, "pitch": 66, "duration": 10, "velocity": 80}, {"time": 73358, "pitch": 54, "duration": 80, "velocity": 80}, {"time": 73358, "pitch": 57, "duration": 80, "velocity": 70}, {"time": 73358, "pitch": 61, "duration": 80, "velocity": 80}, {"time": 73358, "pitch": 66, "duration": 80, "velocity": 60}, {"time": 73438, "pitch": 54, "duration": 160, "velocity": 110}, {"time": 73438, "pitch": 57, "duration": 160, "velocity": 100}, {"time": 73438, "pitch": 61, "duration": 160, "velocity": 110}, {"time": 73438, "pitch": 66, "duration": 160, "velocity": 90}, {"time": 73598, "pitch": 54, "duration": 80, "velocity": 80}, {"time": 73598, "pitch": 57, "duration": 80, "velocity": 70}, {"time": 73598, "pitch": 61, "duration": 80, "velocity": 80}, {"time": 73598, "pitch": 66, "duration": 80, "velocity": 60}, {"time": 73678, "pitch": 54, "duration": 160, "velocity": 100}, {"time": 73678, "pitch": 57, "duration": 160, "velocity": 90}, {"time": 73678, "pitch": 61, "duration": 160, "velocity": 100}, {"time": 73678, "pitch": 66, "duration": 160, "velocity": 80}, {"time": 73838, "pitch": 54, "duration": 80, "velocity": 80}, {"time": 73838, "pitch": 57, "duration": 80, "velocity": 70}, {"time": 73838, "pitch": 61, "duration": 80, "velocity": 80}, {"time": 73838, "pitch": 66, "duration": 80, "velocity": 60}, {"time": 73918, "pitch": 54, "duration": 10, "velocity": 110}, {"time": 73918, "pitch": 57, "duration": 10, "velocity": 100}, {"time": 73918, "pitch": 61, "duration": 10, "velocity": 110}, {"time": 73918, "pitch": 66, "duration": 10, "velocity": 90}, {"time": 74077, "pitch": 54, "duration": 10, "velocity": 80}, {"time": 74077, "pitch": 57, "duration": 10, "velocity": 70}, {"time": 74077, "pitch": 61, "duration": 10, "velocity": 80}, {"time": 74077, "pitch": 66, "duration": 10, "velocity": 60}, {"time": 74157, "pitch": 54, "duration": 10, "velocity": 100}, {"time": 74157, "pitch": 57, "duration": 10, "velocity": 90}, {"time": 74157, "pitch": 61, "duration": 10, "velocity": 100}, {"time": 74157, "pitch": 66, "duration": 10, "velocity": 80}, {"time": 74317, "pitch": 54, "duration": 80, "velocity": 80}, {"time": 74317, "pitch": 57, "duration": 80, "velocity": 70}, {"time": 74317, "pitch": 62, "duration": 80, "velocity": 80}, {"time": 74317, "pitch": 66, "duration": 80, "velocity": 60}, {"time": 74397, "pitch": 54, "duration": 162, "velocity": 115}, {"time": 74397, "pitch": 57, "duration": 162, "velocity": 105}, {"time": 74397, "pitch": 62, "duration": 162, "velocity": 115}, {"time": 74397, "pitch": 66, "duration": 162, "velocity": 95}, {"time": 74559, "pitch": 54, "duration": 81, "velocity": 80}, {"time": 74559, "pitch": 57, "duration": 81, "velocity": 70}, {"time": 74559, "pitch": 62, "duration": 81, "velocity": 80}, {"time": 74559, "pitch": 66, "duration": 81, "velocity": 60}, {"time": 74640, "pitch": 54, "duration": 243, "velocity": 100}, {"time": 74640, "pitch": 57, "duration": 243, "velocity": 90}, {"time": 74640, "pitch": 62, "duration": 243, "velocity": 100}, {"time": 74640, "pitch": 66, "duration": 243, "velocity": 80}, {"time": 74883, "pitch": 54, "duration": 239, "velocity": 100}, {"time": 74883, "pitch": 57, "duration": 239, "velocity": 90}, {"time": 74883, "pitch": 62, "duration": 239, "velocity": 100}, {"time": 74883, "pitch": 66, "duration": 239, "velocity": 80}, {"time": 75122, "pitch": 54, "duration": 160, "velocity": 110}, {"time": 75122, "pitch": 57, "duration": 160, "velocity": 100}, {"time": 75122, "pitch": 62, "duration": 160, "velocity": 110}, {"time": 75122, "pitch": 66, "duration": 160, "velocity": 90}, {"time": 75282, "pitch": 54, "duration": 70, "velocity": 80}, {"time": 75282, "pitch": 57, "duration": 80, "velocity": 70}, {"time": 75282, "pitch": 62, "duration": 80, "velocity": 80}, {"time": 75282, "pitch": 66, "duration": 80, "velocity": 60}, {"time": 75362, "pitch": 54, "duration": 160, "velocity": 115}, {"time": 75362, "pitch": 57, "duration": 160, "velocity": 105}, {"time": 75362, "pitch": 62, "duration": 160, "velocity": 115}, {"time": 75362, "pitch": 66, "duration": 160, "velocity": 95}, {"time": 75522, "pitch": 54, "duration": 80, "velocity": 80}, {"time": 75522, "pitch": 57, "duration": 80, "velocity": 70}, {"time": 75522, "pitch": 62, "duration": 80, "velocity": 80}, {"time": 75522, "pitch": 66, "duration": 80, "velocity": 60}, {"time": 75602, "pitch": 54, "duration": 240, "velocity": 100}, {"time": 75602, "pitch": 57, "duration": 240, "velocity": 90}, {"time": 75602, "pitch": 62, "duration": 240, "velocity": 100}, {"time": 75602, "pitch": 66, "duration": 240, "velocity": 80}, {"time": 75842, "pitch": 51, "duration": 240, "velocity": 105}, {"time": 75842, "pitch": 57, "duration": 240, "velocity": 95}, {"time": 75842, "pitch": 59, "duration": 240, "velocity": 105}, {"time": 75842, "pitch": 66, "duration": 240, "velocity": 85}, {"time": 76082, "pitch": 51, "duration": 159, "velocity": 100}, {"time": 76082, "pitch": 57, "duration": 159, "velocity": 90}, {"time": 76082, "pitch": 59, "duration": 159, "velocity": 100}, {"time": 76082, "pitch": 66, "duration": 159, "velocity": 80}, {"time": 76241, "pitch": 51, "duration": 80, "velocity": 70}, {"time": 76241, "pitch": 57, "duration": 80, "velocity": 80}, {"time": 76241, "pitch": 59, "duration": 80, "velocity": 80}, {"time": 76241, "pitch": 66, "duration": 80, "velocity": 60}, {"time": 76321, "pitch": 52, "duration": 240, "velocity": 110}, {"time": 76321, "pitch": 59, "duration": 240, "velocity": 100}, {"time": 76321, "pitch": 64, "duration": 240, "velocity": 110}, {"time": 76321, "pitch": 69, "duration": 240, "velocity": 110}, {"time": 76561, "pitch": 52, "duration": 240, "velocity": 65}, {"time": 76561, "pitch": 59, "duration": 240, "velocity": 75}, {"time": 76561, "pitch": 64, "duration": 240, "velocity": 85}, {"time": 76561, "pitch": 69, "duration": 240, "velocity": 85}, {"time": 76801, "pitch": 52, "duration": 240, "velocity": 90}, {"time": 76801, "pitch": 59, "duration": 240, "velocity": 100}, {"time": 76801, "pitch": 64, "duration": 240, "velocity": 110}, {"time": 76801, "pitch": 69, "duration": 240, "velocity": 110}, {"time": 77041, "pitch": 52, "duration": 239, "velocity": 65}, {"time": 77041, "pitch": 59, "duration": 239, "velocity": 75}, {"time": 77041, "pitch": 64, "duration": 239, "velocity": 85}, {"time": 77041, "pitch": 69, "duration": 239, "velocity": 85}, {"time": 77280, "pitch": 52, "duration": 240, "velocity": 90}, {"time": 77280, "pitch": 59, "duration": 240, "velocity": 100}, {"time": 77280, "pitch": 64, "duration": 240, "velocity": 110}, {"time": 77280, "pitch": 68, "duration": 240, "velocity": 110}, {"time": 77520, "pitch": 52, "duration": 240, "velocity": 65}, {"time": 77520, "pitch": 59, "duration": 240, "velocity": 75}, {"time": 77520, "pitch": 64, "duration": 240, "velocity": 85}, {"time": 77520, "pitch": 68, "duration": 240, "velocity": 85}, {"time": 77760, "pitch": 52, "duration": 240, "velocity": 90}, {"time": 77760, "pitch": 59, "duration": 240, "velocity": 100}, {"time": 77760, "pitch": 64, "duration": 240, "velocity": 110}, {"time": 77760, "pitch": 68, "duration": 240, "velocity": 110}, {"time": 78000, "pitch": 52, "duration": 239, "velocity": 65}, {"time": 78000, "pitch": 59, "duration": 239, "velocity": 75}, {"time": 78000, "pitch": 64, "duration": 239, "velocity": 85}, {"time": 78000, "pitch": 68, "duration": 239, "velocity": 85}, {"time": 78239, "pitch": 52, "duration": 240, "velocity": 90}, {"time": 78239, "pitch": 57, "duration": 240, "velocity": 100}, {"time": 78239, "pitch": 61, "duration": 240, "velocity": 110}, {"time": 78239, "pitch": 64, "duration": 240, "velocity": 110}, {"time": 78479, "pitch": 52, "duration": 240, "velocity": 65}, {"time": 78479, "pitch": 57, "duration": 240, "velocity": 75}, {"time": 78479, "pitch": 61, "duration": 240, "velocity": 85}, {"time": 78479, "pitch": 64, "duration": 240, "velocity": 85}, {"time": 78719, "pitch": 52, "duration": 240, "velocity": 90}, {"time": 78719, "pitch": 57, "duration": 240, "velocity": 100}, {"time": 78719, "pitch": 61, "duration": 240, "velocity": 110}, {"time": 78719, "pitch": 64, "duration": 240, "velocity": 110}, {"time": 78959, "pitch": 52, "duration": 199, "velocity": 65}, {"time": 78959, "pitch": 57, "duration": 199, "velocity": 75}, {"time": 78959, "pitch": 61, "duration": 199, "velocity": 85}, {"time": 78959, "pitch": 64, "duration": 199, "velocity": 85}, {"time": 79158, "pitch": 52, "duration": 40, "velocity": 55}, {"time": 79158, "pitch": 57, "duration": 40, "velocity": 65}, {"time": 79158, "pitch": 61, "duration": 40, "velocity": 75}, {"time": 79158, "pitch": 64, "duration": 40, "velocity": 75}, {"time": 79198, "pitch": 52, "duration": 160, "velocity": 80}, {"time": 79198, "pitch": 59, "duration": 160, "velocity": 110}, {"time": 79198, "pitch": 64, "duration": 160, "velocity": 90}, {"time": 79198, "pitch": 68, "duration": 160, "velocity": 100}, {"time": 79358, "pitch": 52, "duration": 80, "velocity": 70}, {"time": 79358, "pitch": 59, "duration": 80, "velocity": 100}, {"time": 79358, "pitch": 64, "duration": 80, "velocity": 80}, {"time": 79358, "pitch": 68, "duration": 80, "velocity": 90}, {"time": 79438, "pitch": 52, "duration": 240, "velocity": 90}, {"time": 79438, "pitch": 59, "duration": 240, "velocity": 117}, {"time": 79438, "pitch": 64, "duration": 240, "velocity": 100}, {"time": 79438, "pitch": 68, "duration": 240, "velocity": 110}, {"time": 79678, "pitch": 52, "duration": 240, "velocity": 90}, {"time": 79678, "pitch": 59, "duration": 240, "velocity": 100}, {"time": 79678, "pitch": 64, "duration": 240, "velocity": 110}, {"time": 79678, "pitch": 68, "duration": 240, "velocity": 110}, {"time": 79918, "pitch": 52, "duration": 199, "velocity": 65}, {"time": 79918, "pitch": 59, "duration": 199, "velocity": 75}, {"time": 79918, "pitch": 64, "duration": 199, "velocity": 85}, {"time": 79918, "pitch": 68, "duration": 199, "velocity": 85}, {"time": 80117, "pitch": 52, "duration": 40, "velocity": 55}, {"time": 80117, "pitch": 59, "duration": 40, "velocity": 65}, {"time": 80117, "pitch": 64, "duration": 40, "velocity": 75}, {"time": 80117, "pitch": 68, "duration": 40, "velocity": 75}, {"time": 80157, "pitch": 54, "duration": 240, "velocity": 90}, {"time": 80157, "pitch": 57, "duration": 240, "velocity": 100}, {"time": 80157, "pitch": 62, "duration": 240, "velocity": 110}, {"time": 80157, "pitch": 66, "duration": 240, "velocity": 110}, {"time": 80397, "pitch": 54, "duration": 240, "velocity": 65}, {"time": 80397, "pitch": 57, "duration": 240, "velocity": 75}, {"time": 80397, "pitch": 62, "duration": 240, "velocity": 85}, {"time": 80397, "pitch": 66, "duration": 240, "velocity": 85}, {"time": 80637, "pitch": 54, "duration": 243, "velocity": 90}, {"time": 80637, "pitch": 57, "duration": 243, "velocity": 100}, {"time": 80637, "pitch": 62, "duration": 243, "velocity": 110}, {"time": 80637, "pitch": 66, "duration": 243, "velocity": 110}, {"time": 80880, "pitch": 54, "duration": 202, "velocity": 65}, {"time": 80880, "pitch": 57, "duration": 202, "velocity": 75}, {"time": 80880, "pitch": 62, "duration": 202, "velocity": 85}, {"time": 80880, "pitch": 66, "duration": 202, "velocity": 85}, {"time": 81082, "pitch": 54, "duration": 41, "velocity": 55}, {"time": 81082, "pitch": 57, "duration": 41, "velocity": 65}, {"time": 81082, "pitch": 62, "duration": 41, "velocity": 75}, {"time": 81082, "pitch": 66, "duration": 41, "velocity": 75}, {"time": 81123, "pitch": 52, "duration": 159, "velocity": 80}, {"time": 81123, "pitch": 57, "duration": 159, "velocity": 110}, {"time": 81123, "pitch": 61, "duration": 159, "velocity": 90}, {"time": 81123, "pitch": 64, "duration": 159, "velocity": 100}, {"time": 81282, "pitch": 52, "duration": 80, "velocity": 70}, {"time": 81282, "pitch": 57, "duration": 80, "velocity": 100}, {"time": 81282, "pitch": 61, "duration": 80, "velocity": 80}, {"time": 81282, "pitch": 64, "duration": 80, "velocity": 90}, {"time": 81362, "pitch": 52, "duration": 240, "velocity": 90}, {"time": 81362, "pitch": 57, "duration": 240, "velocity": 117}, {"time": 81362, "pitch": 61, "duration": 240, "velocity": 100}, {"time": 81362, "pitch": 64, "duration": 240, "velocity": 110}, {"time": 81602, "pitch": 52, "duration": 240, "velocity": 90}, {"time": 81602, "pitch": 56, "duration": 240, "velocity": 100}, {"time": 81602, "pitch": 59, "duration": 240, "velocity": 110}, {"time": 81602, "pitch": 64, "duration": 240, "velocity": 110}, {"time": 81842, "pitch": 52, "duration": 200, "velocity": 65}, {"time": 81842, "pitch": 56, "duration": 200, "velocity": 75}, {"time": 81842, "pitch": 59, "duration": 200, "velocity": 85}, {"time": 81842, "pitch": 64, "duration": 200, "velocity": 85}, {"time": 82042, "pitch": 52, "duration": 40, "velocity": 55}, {"time": 82042, "pitch": 56, "duration": 40, "velocity": 65}, {"time": 82042, "pitch": 59, "duration": 40, "velocity": 75}, {"time": 82042, "pitch": 64, "duration": 40, "velocity": 75}, {"time": 82082, "pitch": 54, "duration": 239, "velocity": 90}, {"time": 82082, "pitch": 57, "duration": 239, "velocity": 100}, {"time": 82082, "pitch": 61, "duration": 239, "velocity": 110}, {"time": 82082, "pitch": 66, "duration": 239, "velocity": 110}, {"time": 82321, "pitch": 54, "duration": 240, "velocity": 65}, {"time": 82321, "pitch": 57, "duration": 240, "velocity": 75}, {"time": 82321, "pitch": 61, "duration": 240, "velocity": 85}, {"time": 82321, "pitch": 66, "duration": 240, "velocity": 85}, {"time": 82561, "pitch": 54, "duration": 240, "velocity": 90}, {"time": 82561, "pitch": 57, "duration": 240, "velocity": 100}, {"time": 82561, "pitch": 61, "duration": 240, "velocity": 110}, {"time": 82561, "pitch": 66, "duration": 240, "velocity": 110}, {"time": 82801, "pitch": 54, "duration": 200, "velocity": 65}, {"time": 82801, "pitch": 57, "duration": 200, "velocity": 75}, {"time": 82801, "pitch": 61, "duration": 200, "velocity": 85}, {"time": 82801, "pitch": 66, "duration": 200, "velocity": 85}, {"time": 83001, "pitch": 54, "duration": 40, "velocity": 55}, {"time": 83001, "pitch": 57, "duration": 40, "velocity": 65}, {"time": 83001, "pitch": 61, "duration": 40, "velocity": 75}, {"time": 83001, "pitch": 66, "duration": 40, "velocity": 75}, {"time": 83041, "pitch": 54, "duration": 160, "velocity": 80}, {"time": 83041, "pitch": 57, "duration": 160, "velocity": 110}, {"time": 83041, "pitch": 63, "duration": 160, "velocity": 90}, {"time": 83041, "pitch": 66, "duration": 160, "velocity": 100}, {"time": 83201, "pitch": 54, "duration": 79, "velocity": 70}, {"time": 83201, "pitch": 57, "duration": 79, "velocity": 100}, {"time": 83201, "pitch": 63, "duration": 79, "velocity": 80}, {"time": 83201, "pitch": 66, "duration": 79, "velocity": 90}, {"time": 83280, "pitch": 54, "duration": 240, "velocity": 90}, {"time": 83280, "pitch": 57, "duration": 240, "velocity": 117}, {"time": 83280, "pitch": 63, "duration": 240, "velocity": 100}, {"time": 83280, "pitch": 66, "duration": 240, "velocity": 110}, {"time": 83520, "pitch": 54, "duration": 240, "velocity": 90}, {"time": 83520, "pitch": 57, "duration": 240, "velocity": 100}, {"time": 83520, "pitch": 63, "duration": 240, "velocity": 110}, {"time": 83520, "pitch": 66, "duration": 240, "velocity": 110}, {"time": 83760, "pitch": 54, "duration": 200, "velocity": 65}, {"time": 83760, "pitch": 57, "duration": 200, "velocity": 75}, {"time": 83760, "pitch": 63, "duration": 200, "velocity": 85}, {"time": 83760, "pitch": 66, "duration": 200, "velocity": 85}, {"time": 83960, "pitch": 54, "duration": 40, "velocity": 55}, {"time": 83960, "pitch": 57, "duration": 40, "velocity": 65}, {"time": 83960, "pitch": 63, "duration": 40, "velocity": 75}, {"time": 83960, "pitch": 66, "duration": 40, "velocity": 75}, {"time": 84000, "pitch": 54, "duration": 240, "velocity": 90}, {"time": 84000, "pitch": 57, "duration": 240, "velocity": 100}, {"time": 84000, "pitch": 62, "duration": 240, "velocity": 110}, {"time": 84000, "pitch": 66, "duration": 240, "velocity": 110}, {"time": 84240, "pitch": 54, "duration": 239, "velocity": 65}, {"time": 84240, "pitch": 57, "duration": 239, "velocity": 75}, {"time": 84240, "pitch": 62, "duration": 239, "velocity": 85}, {"time": 84240, "pitch": 66, "duration": 239, "velocity": 85}, {"time": 84479, "pitch": 54, "duration": 240, "velocity": 90}, {"time": 84479, "pitch": 57, "duration": 240, "velocity": 100}, {"time": 84479, "pitch": 62, "duration": 240, "velocity": 110}, {"time": 84479, "pitch": 66, "duration": 240, "velocity": 110}, {"time": 84719, "pitch": 54, "duration": 200, "velocity": 65}, {"time": 84719, "pitch": 57, "duration": 200, "velocity": 75}, {"time": 84719, "pitch": 62, "duration": 200, "velocity": 85}, {"time": 84719, "pitch": 66, "duration": 200, "velocity": 85}, {"time": 84919, "pitch": 54, "duration": 40, "velocity": 55}, {"time": 84919, "pitch": 57, "duration": 40, "velocity": 65}, {"time": 84919, "pitch": 62, "duration": 40, "velocity": 75}, {"time": 84919, "pitch": 66, "duration": 40, "velocity": 75}, {"time": 84959, "pitch": 52, "duration": 160, "velocity": 80}, {"time": 84959, "pitch": 57, "duration": 160, "velocity": 110}, {"time": 84959, "pitch": 59, "duration": 160, "velocity": 90}, {"time": 84959, "pitch": 64, "duration": 160, "velocity": 100}, {"time": 85119, "pitch": 52, "duration": 80, "velocity": 70}, {"time": 85119, "pitch": 57, "duration": 80, "velocity": 100}, {"time": 85119, "pitch": 59, "duration": 80, "velocity": 80}, {"time": 85119, "pitch": 64, "duration": 80, "velocity": 90}, {"time": 85199, "pitch": 52, "duration": 239, "velocity": 90}, {"time": 85199, "pitch": 57, "duration": 239, "velocity": 117}, {"time": 85199, "pitch": 59, "duration": 239, "velocity": 100}, {"time": 85199, "pitch": 64, "duration": 239, "velocity": 110}, {"time": 85438, "pitch": 52, "duration": 240, "velocity": 90}, {"time": 85438, "pitch": 56, "duration": 240, "velocity": 100}, {"time": 85438, "pitch": 59, "duration": 240, "velocity": 110}, {"time": 85438, "pitch": 64, "duration": 240, "velocity": 110}, {"time": 85678, "pitch": 52, "duration": 200, "velocity": 65}, {"time": 85678, "pitch": 56, "duration": 200, "velocity": 75}, {"time": 85678, "pitch": 59, "duration": 200, "velocity": 85}, {"time": 85678, "pitch": 64, "duration": 200, "velocity": 85}, {"time": 85878, "pitch": 52, "duration": 40, "velocity": 55}, {"time": 85878, "pitch": 56, "duration": 40, "velocity": 65}, {"time": 85878, "pitch": 59, "duration": 40, "velocity": 75}, {"time": 85878, "pitch": 64, "duration": 40, "velocity": 75}, {"time": 85918, "pitch": 52, "duration": 240, "velocity": 90}, {"time": 85918, "pitch": 57, "duration": 240, "velocity": 100}, {"time": 85918, "pitch": 61, "duration": 240, "velocity": 110}, {"time": 85918, "pitch": 64, "duration": 240, "velocity": 110}, {"time": 86158, "pitch": 52, "duration": 239, "velocity": 65}, {"time": 86158, "pitch": 57, "duration": 239, "velocity": 75}, {"time": 86158, "pitch": 61, "duration": 239, "velocity": 85}, {"time": 86158, "pitch": 64, "duration": 239, "velocity": 85}, {"time": 86397, "pitch": 52, "duration": 243, "velocity": 90}, {"time": 86397, "pitch": 57, "duration": 243, "velocity": 100}, {"time": 86397, "pitch": 61, "duration": 243, "velocity": 110}, {"time": 86397, "pitch": 64, "duration": 243, "velocity": 110}, {"time": 86640, "pitch": 52, "duration": 203, "velocity": 65}, {"time": 86640, "pitch": 57, "duration": 203, "velocity": 75}, {"time": 86640, "pitch": 61, "duration": 203, "velocity": 85}, {"time": 86640, "pitch": 64, "duration": 203, "velocity": 85}, {"time": 86843, "pitch": 52, "duration": 40, "velocity": 55}, {"time": 86843, "pitch": 57, "duration": 40, "velocity": 65}, {"time": 86843, "pitch": 61, "duration": 40, "velocity": 75}, {"time": 86843, "pitch": 64, "duration": 40, "velocity": 75}, {"time": 86883, "pitch": 52, "duration": 160, "velocity": 80}, {"time": 86883, "pitch": 59, "duration": 160, "velocity": 110}, {"time": 86883, "pitch": 64, "duration": 160, "velocity": 90}, {"time": 86883, "pitch": 68, "duration": 160, "velocity": 100}, {"time": 87043, "pitch": 52, "duration": 80, "velocity": 70}, {"time": 87043, "pitch": 59, "duration": 80, "velocity": 100}, {"time": 87043, "pitch": 64, "duration": 80, "velocity": 80}, {"time": 87043, "pitch": 68, "duration": 80, "velocity": 90}, {"time": 87123, "pitch": 52, "duration": 240, "velocity": 90}, {"time": 87123, "pitch": 59, "duration": 240, "velocity": 117}, {"time": 87123, "pitch": 64, "duration": 240, "velocity": 100}, {"time": 87123, "pitch": 68, "duration": 240, "velocity": 110}, {"time": 87363, "pitch": 52, "duration": 239, "velocity": 90}, {"time": 87363, "pitch": 59, "duration": 239, "velocity": 100}, {"time": 87363, "pitch": 64, "duration": 239, "velocity": 110}, {"time": 87363, "pitch": 68, "duration": 239, "velocity": 110}, {"time": 87602, "pitch": 52, "duration": 200, "velocity": 65}, {"time": 87602, "pitch": 59, "duration": 200, "velocity": 75}, {"time": 87602, "pitch": 64, "duration": 200, "velocity": 85}, {"time": 87602, "pitch": 68, "duration": 200, "velocity": 85}, {"time": 87802, "pitch": 52, "duration": 40, "velocity": 55}, {"time": 87802, "pitch": 59, "duration": 40, "velocity": 65}, {"time": 87802, "pitch": 64, "duration": 40, "velocity": 75}, {"time": 87802, "pitch": 68, "duration": 40, "velocity": 75}, {"time": 87842, "pitch": 54, "duration": 240, "velocity": 90}, {"time": 87842, "pitch": 57, "duration": 240, "velocity": 100}, {"time": 87842, "pitch": 62, "duration": 240, "velocity": 110}, {"time": 87842, "pitch": 66, "duration": 240, "velocity": 110}, {"time": 88082, "pitch": 54, "duration": 240, "velocity": 65}, {"time": 88082, "pitch": 57, "duration": 240, "velocity": 75}, {"time": 88082, "pitch": 62, "duration": 240, "velocity": 85}, {"time": 88082, "pitch": 66, "duration": 240, "velocity": 85}, {"time": 88322, "pitch": 54, "duration": 239, "velocity": 90}, {"time": 88322, "pitch": 57, "duration": 239, "velocity": 100}, {"time": 88322, "pitch": 62, "duration": 239, "velocity": 110}, {"time": 88322, "pitch": 66, "duration": 239, "velocity": 110}, {"time": 88561, "pitch": 54, "duration": 200, "velocity": 65}, {"time": 88561, "pitch": 57, "duration": 200, "velocity": 75}, {"time": 88561, "pitch": 62, "duration": 200, "velocity": 85}, {"time": 88561, "pitch": 66, "duration": 200, "velocity": 85}, {"time": 88761, "pitch": 54, "duration": 40, "velocity": 55}, {"time": 88761, "pitch": 57, "duration": 40, "velocity": 65}, {"time": 88761, "pitch": 62, "duration": 40, "velocity": 75}, {"time": 88761, "pitch": 66, "duration": 40, "velocity": 75}, {"time": 88801, "pitch": 52, "duration": 160, "velocity": 80}, {"time": 88801, "pitch": 57, "duration": 160, "velocity": 110}, {"time": 88801, "pitch": 61, "duration": 160, "velocity": 90}, {"time": 88801, "pitch": 64, "duration": 160, "velocity": 100}, {"time": 88961, "pitch": 52, "duration": 80, "velocity": 70}, {"time": 88961, "pitch": 57, "duration": 80, "velocity": 100}, {"time": 88961, "pitch": 61, "duration": 80, "velocity": 80}, {"time": 88961, "pitch": 64, "duration": 80, "velocity": 90}, {"time": 89041, "pitch": 52, "duration": 240, "velocity": 90}, {"time": 89041, "pitch": 57, "duration": 240, "velocity": 117}, {"time": 89041, "pitch": 61, "duration": 240, "velocity": 100}, {"time": 89041, "pitch": 64, "duration": 240, "velocity": 110}, {"time": 89281, "pitch": 52, "duration": 239, "velocity": 90}, {"time": 89281, "pitch": 56, "duration": 239, "velocity": 100}, {"time": 89281, "pitch": 59, "duration": 239, "velocity": 110}, {"time": 89281, "pitch": 64, "duration": 239, "velocity": 110}, {"time": 89520, "pitch": 52, "duration": 200, "velocity": 65}, {"time": 89520, "pitch": 56, "duration": 200, "velocity": 75}, {"time": 89520, "pitch": 59, "duration": 200, "velocity": 85}, {"time": 89520, "pitch": 64, "duration": 200, "velocity": 85}, {"time": 89720, "pitch": 52, "duration": 40, "velocity": 55}, {"time": 89720, "pitch": 56, "duration": 40, "velocity": 65}, {"time": 89720, "pitch": 59, "duration": 40, "velocity": 75}, {"time": 89720, "pitch": 64, "duration": 40, "velocity": 75}, {"time": 89760, "pitch": 54, "duration": 240, "velocity": 90}, {"time": 89760, "pitch": 57, "duration": 240, "velocity": 100}, {"time": 89760, "pitch": 61, "duration": 240, "velocity": 110}, {"time": 89760, "pitch": 66, "duration": 240, "velocity": 110}, {"time": 90000, "pitch": 54, "duration": 240, "velocity": 65}, {"time": 90000, "pitch": 57, "duration": 240, "velocity": 75}, {"time": 90000, "pitch": 61, "duration": 240, "velocity": 85}, {"time": 90000, "pitch": 66, "duration": 240, "velocity": 85}, {"time": 90240, "pitch": 54, "duration": 239, "velocity": 90}, {"time": 90240, "pitch": 57, "duration": 239, "velocity": 100}, {"time": 90240, "pitch": 61, "duration": 239, "velocity": 110}, {"time": 90240, "pitch": 66, "duration": 239, "velocity": 110}, {"time": 90479, "pitch": 54, "duration": 200, "velocity": 65}, {"time": 90479, "pitch": 57, "duration": 200, "velocity": 75}, {"time": 90479, "pitch": 61, "duration": 200, "velocity": 85}, {"time": 90479, "pitch": 66, "duration": 200, "velocity": 85}, {"time": 90679, "pitch": 54, "duration": 40, "velocity": 55}, {"time": 90679, "pitch": 57, "duration": 40, "velocity": 65}, {"time": 90679, "pitch": 61, "duration": 40, "velocity": 75}, {"time": 90679, "pitch": 66, "duration": 40, "velocity": 75}, {"time": 90719, "pitch": 54, "duration": 160, "velocity": 80}, {"time": 90719, "pitch": 57, "duration": 160, "velocity": 110}, {"time": 90719, "pitch": 63, "duration": 160, "velocity": 90}, {"time": 90719, "pitch": 66, "duration": 160, "velocity": 100}, {"time": 90879, "pitch": 54, "duration": 80, "velocity": 70}, {"time": 90879, "pitch": 57, "duration": 80, "velocity": 100}, {"time": 90879, "pitch": 63, "duration": 80, "velocity": 80}, {"time": 90879, "pitch": 66, "duration": 80, "velocity": 90}, {"time": 90959, "pitch": 54, "duration": 240, "velocity": 90}, {"time": 90959, "pitch": 57, "duration": 240, "velocity": 117}, {"time": 90959, "pitch": 63, "duration": 240, "velocity": 100}, {"time": 90959, "pitch": 66, "duration": 240, "velocity": 110}, {"time": 91199, "pitch": 54, "duration": 239, "velocity": 90}, {"time": 91199, "pitch": 57, "duration": 239, "velocity": 100}, {"time": 91199, "pitch": 63, "duration": 239, "velocity": 110}, {"time": 91199, "pitch": 66, "duration": 239, "velocity": 110}, {"time": 91438, "pitch": 54, "duration": 200, "velocity": 65}, {"time": 91438, "pitch": 57, "duration": 200, "velocity": 75}, {"time": 91438, "pitch": 63, "duration": 200, "velocity": 85}, {"time": 91438, "pitch": 66, "duration": 200, "velocity": 85}, {"time": 91638, "pitch": 54, "duration": 40, "velocity": 55}, {"time": 91638, "pitch": 57, "duration": 40, "velocity": 65}, {"time": 91638, "pitch": 63, "duration": 40, "velocity": 75}, {"time": 91638, "pitch": 66, "duration": 40, "velocity": 75}, {"time": 91678, "pitch": 54, "duration": 240, "velocity": 90}, {"time": 91678, "pitch": 57, "duration": 240, "velocity": 100}, {"time": 91678, "pitch": 62, "duration": 240, "velocity": 110}, {"time": 91678, "pitch": 66, "duration": 240, "velocity": 110}, {"time": 91918, "pitch": 54, "duration": 240, "velocity": 65}, {"time": 91918, "pitch": 57, "duration": 240, "velocity": 75}, {"time": 91918, "pitch": 62, "duration": 240, "velocity": 85}, {"time": 91918, "pitch": 66, "duration": 240, "velocity": 85}, {"time": 92158, "pitch": 54, "duration": 240, "velocity": 90}, {"time": 92158, "pitch": 57, "duration": 240, "velocity": 100}, {"time": 92158, "pitch": 62, "duration": 240, "velocity": 110}, {"time": 92158, "pitch": 66, "duration": 240, "velocity": 110}, {"time": 92398, "pitch": 54, "duration": 199, "velocity": 65}, {"time": 92398, "pitch": 57, "duration": 199, "velocity": 75}, {"time": 92398, "pitch": 62, "duration": 199, "velocity": 85}, {"time": 92398, "pitch": 66, "duration": 199, "velocity": 85}, {"time": 92597, "pitch": 54, "duration": 40, "velocity": 55}, {"time": 92597, "pitch": 57, "duration": 40, "velocity": 65}, {"time": 92597, "pitch": 62, "duration": 40, "velocity": 75}, {"time": 92597, "pitch": 66, "duration": 40, "velocity": 75}, {"time": 92637, "pitch": 52, "duration": 162, "velocity": 80}, {"time": 92637, "pitch": 57, "duration": 162, "velocity": 110}, {"time": 92637, "pitch": 59, "duration": 162, "velocity": 90}, {"time": 92637, "pitch": 64, "duration": 162, "velocity": 100}, {"time": 92799, "pitch": 52, "duration": 81, "velocity": 70}, {"time": 92799, "pitch": 57, "duration": 81, "velocity": 100}, {"time": 92799, "pitch": 59, "duration": 81, "velocity": 80}, {"time": 92799, "pitch": 64, "duration": 81, "velocity": 90}, {"time": 92880, "pitch": 52, "duration": 243, "velocity": 90}, {"time": 92880, "pitch": 57, "duration": 243, "velocity": 117}, {"time": 92880, "pitch": 59, "duration": 243, "velocity": 100}, {"time": 92880, "pitch": 64, "duration": 243, "velocity": 110}, {"time": 93123, "pitch": 52, "duration": 240, "velocity": 90}, {"time": 93123, "pitch": 56, "duration": 240, "velocity": 100}, {"time": 93123, "pitch": 59, "duration": 240, "velocity": 110}, {"time": 93123, "pitch": 64, "duration": 240, "velocity": 110}, {"time": 93363, "pitch": 52, "duration": 200, "velocity": 65}, {"time": 93363, "pitch": 56, "duration": 200, "velocity": 75}, {"time": 93363, "pitch": 59, "duration": 200, "velocity": 85}, {"time": 93363, "pitch": 64, "duration": 200, "velocity": 85}, {"time": 93563, "pitch": 52, "duration": 39, "velocity": 55}, {"time": 93563, "pitch": 56, "duration": 39, "velocity": 65}, {"time": 93563, "pitch": 59, "duration": 39, "velocity": 75}, {"time": 93563, "pitch": 64, "duration": 39, "velocity": 75}, {"time": 93602, "pitch": 54, "duration": 480, "velocity": 70}, {"time": 93602, "pitch": 57, "duration": 480, "velocity": 100}, {"time": 93602, "pitch": 61, "duration": 480, "velocity": 80}, {"time": 93602, "pitch": 66, "duration": 480, "velocity": 90}, {"time": 94082, "pitch": 54, "duration": 400, "velocity": 85}, {"time": 94082, "pitch": 57, "duration": 400, "velocity": 115}, {"time": 94082, "pitch": 61, "duration": 400, "velocity": 95}, {"time": 94082, "pitch": 66, "duration": 400, "velocity": 105}, {"time": 94482, "pitch": 54, "duration": 80, "velocity": 60}, {"time": 94482, "pitch": 57, "duration": 80, "velocity": 90}, {"time": 94482, "pitch": 61, "duration": 80, "velocity": 70}, {"time": 94482, "pitch": 66, "duration": 80, "velocity": 80}, {"time": 94562, "pitch": 54, "duration": 159, "velocity": 70}, {"time": 94562, "pitch": 57, "duration": 159, "velocity": 100}, {"time": 94562, "pitch": 61, "duration": 159, "velocity": 80}, {"time": 94562, "pitch": 66, "duration": 159, "velocity": 90}, {"time": 94721, "pitch": 54, "duration": 80, "velocity": 60}, {"time": 94721, "pitch": 57, "duration": 80, "velocity": 90}, {"time": 94721, "pitch": 61, "duration": 80, "velocity": 70}, {"time": 94721, "pitch": 66, "duration": 80, "velocity": 80}, {"time": 94801, "pitch": 54, "duration": 240, "velocity": 90}, {"time": 94801, "pitch": 57, "duration": 240, "velocity": 120}, {"time": 94801, "pitch": 61, "duration": 240, "velocity": 100}, {"time": 94801, "pitch": 66, "duration": 240, "velocity": 110}, {"time": 95191, "pitch": 52, "duration": 320, "velocity": 85}, {"time": 95191, "pitch": 56, "duration": 320, "velocity": 115}, {"time": 95191, "pitch": 59, "duration": 320, "velocity": 95}, {"time": 95191, "pitch": 64, "duration": 320, "velocity": 105}, {"time": 95521, "pitch": 50, "duration": 479, "velocity": 70}, {"time": 95521, "pitch": 57, "duration": 479, "velocity": 100}, {"time": 95521, "pitch": 62, "duration": 479, "velocity": 80}, {"time": 95521, "pitch": 66, "duration": 479, "velocity": 90}, {"time": 96000, "pitch": 50, "duration": 400, "velocity": 85}, {"time": 96000, "pitch": 57, "duration": 400, "velocity": 115}, {"time": 96000, "pitch": 62, "duration": 400, "velocity": 95}, {"time": 96000, "pitch": 66, "duration": 400, "velocity": 105}, {"time": 96400, "pitch": 50, "duration": 80, "velocity": 60}, {"time": 96400, "pitch": 57, "duration": 80, "velocity": 90}, {"time": 96400, "pitch": 62, "duration": 80, "velocity": 70}, {"time": 96400, "pitch": 66, "duration": 80, "velocity": 80}, {"time": 96480, "pitch": 50, "duration": 159, "velocity": 70}, {"time": 96480, "pitch": 57, "duration": 159, "velocity": 100}, {"time": 96480, "pitch": 62, "duration": 159, "velocity": 80}, {"time": 96480, "pitch": 66, "duration": 159, "velocity": 90}, {"time": 96639, "pitch": 50, "duration": 80, "velocity": 60}, {"time": 96639, "pitch": 57, "duration": 80, "velocity": 90}, {"time": 96639, "pitch": 62, "duration": 80, "velocity": 70}, {"time": 96639, "pitch": 66, "duration": 80, "velocity": 80}, {"time": 96719, "pitch": 50, "duration": 240, "velocity": 90}, {"time": 96719, "pitch": 57, "duration": 240, "velocity": 120}, {"time": 96719, "pitch": 62, "duration": 240, "velocity": 100}, {"time": 96719, "pitch": 66, "duration": 240, "velocity": 110}, {"time": 97109, "pitch": 52, "duration": 320, "velocity": 85}, {"time": 97109, "pitch": 56, "duration": 320, "velocity": 115}, {"time": 97109, "pitch": 59, "duration": 320, "velocity": 95}, {"time": 97109, "pitch": 64, "duration": 320, "velocity": 105}, {"time": 97439, "pitch": 54, "duration": 479, "velocity": 70}, {"time": 97439, "pitch": 57, "duration": 479, "velocity": 100}, {"time": 97439, "pitch": 61, "duration": 479, "velocity": 80}, {"time": 97439, "pitch": 66, "duration": 479, "velocity": 90}, {"time": 97918, "pitch": 54, "duration": 400, "velocity": 85}, {"time": 97918, "pitch": 57, "duration": 400, "velocity": 115}, {"time": 97918, "pitch": 61, "duration": 400, "velocity": 95}, {"time": 97918, "pitch": 66, "duration": 400, "velocity": 105}, {"time": 98318, "pitch": 54, "duration": 80, "velocity": 60}, {"time": 98318, "pitch": 57, "duration": 80, "velocity": 90}, {"time": 98318, "pitch": 61, "duration": 80, "velocity": 70}, {"time": 98318, "pitch": 66, "duration": 80, "velocity": 80}, {"time": 98398, "pitch": 54, "duration": 160, "velocity": 70}, {"time": 98398, "pitch": 57, "duration": 160, "velocity": 100}, {"time": 98398, "pitch": 61, "duration": 160, "velocity": 80}, {"time": 98398, "pitch": 66, "duration": 160, "velocity": 90}, {"time": 98558, "pitch": 54, "duration": 79, "velocity": 60}, {"time": 98558, "pitch": 57, "duration": 79, "velocity": 90}, {"time": 98558, "pitch": 61, "duration": 79, "velocity": 70}, {"time": 98558, "pitch": 66, "duration": 79, "velocity": 80}, {"time": 98637, "pitch": 54, "duration": 240, "velocity": 90}, {"time": 98637, "pitch": 57, "duration": 240, "velocity": 120}, {"time": 98637, "pitch": 61, "duration": 240, "velocity": 100}, {"time": 98637, "pitch": 66, "duration": 240, "velocity": 110}, {"time": 99029, "pitch": 52, "duration": 324, "velocity": 85}, {"time": 99029, "pitch": 56, "duration": 324, "velocity": 115}, {"time": 99029, "pitch": 59, "duration": 324, "velocity": 95}, {"time": 99029, "pitch": 64, "duration": 324, "velocity": 105}, {"time": 99363, "pitch": 50, "duration": 479, "velocity": 70}, {"time": 99363, "pitch": 57, "duration": 479, "velocity": 100}, {"time": 99363, "pitch": 62, "duration": 479, "velocity": 80}, {"time": 99363, "pitch": 66, "duration": 479, "velocity": 90}, {"time": 99842, "pitch": 50, "duration": 400, "velocity": 85}, {"time": 99842, "pitch": 57, "duration": 400, "velocity": 115}, {"time": 99842, "pitch": 62, "duration": 400, "velocity": 95}, {"time": 99842, "pitch": 66, "duration": 400, "velocity": 105}, {"time": 100242, "pitch": 50, "duration": 80, "velocity": 60}, {"time": 100242, "pitch": 57, "duration": 80, "velocity": 90}, {"time": 100242, "pitch": 62, "duration": 80, "velocity": 70}, {"time": 100242, "pitch": 66, "duration": 80, "velocity": 80}, {"time": 100322, "pitch": 50, "duration": 160, "velocity": 70}, {"time": 100322, "pitch": 57, "duration": 160, "velocity": 100}, {"time": 100322, "pitch": 62, "duration": 160, "velocity": 80}, {"time": 100322, "pitch": 66, "duration": 160, "velocity": 90}, {"time": 100482, "pitch": 50, "duration": 80, "velocity": 60}, {"time": 100482, "pitch": 57, "duration": 80, "velocity": 90}, {"time": 100482, "pitch": 62, "duration": 80, "velocity": 70}, {"time": 100482, "pitch": 66, "duration": 80, "velocity": 80}, {"time": 100562, "pitch": 50, "duration": 239, "velocity": 90}, {"time": 100562, "pitch": 57, "duration": 239, "velocity": 120}, {"time": 100562, "pitch": 62, "duration": 239, "velocity": 100}, {"time": 100562, "pitch": 66, "duration": 239, "velocity": 110}, {"time": 100951, "pitch": 52, "duration": 320, "velocity": 85}, {"time": 100951, "pitch": 56, "duration": 320, "velocity": 115}, {"time": 100951, "pitch": 59, "duration": 320, "velocity": 95}, {"time": 100951, "pitch": 64, "duration": 320, "velocity": 105}, {"time": 101281, "pitch": 54, "duration": 479, "velocity": 70}, {"time": 101281, "pitch": 57, "duration": 479, "velocity": 100}, {"time": 101281, "pitch": 61, "duration": 479, "velocity": 80}, {"time": 101281, "pitch": 66, "duration": 479, "velocity": 90}, {"time": 101760, "pitch": 54, "duration": 400, "velocity": 85}, {"time": 101760, "pitch": 57, "duration": 400, "velocity": 115}, {"time": 101760, "pitch": 61, "duration": 400, "velocity": 95}, {"time": 101760, "pitch": 66, "duration": 400, "velocity": 105}, {"time": 102160, "pitch": 54, "duration": 80, "velocity": 60}, {"time": 102160, "pitch": 57, "duration": 80, "velocity": 90}, {"time": 102160, "pitch": 61, "duration": 80, "velocity": 70}, {"time": 102160, "pitch": 66, "duration": 80, "velocity": 80}, {"time": 102240, "pitch": 54, "duration": 160, "velocity": 70}, {"time": 102240, "pitch": 57, "duration": 160, "velocity": 100}, {"time": 102240, "pitch": 61, "duration": 160, "velocity": 80}, {"time": 102240, "pitch": 66, "duration": 160, "velocity": 90}, {"time": 102400, "pitch": 54, "duration": 80, "velocity": 60}, {"time": 102400, "pitch": 57, "duration": 80, "velocity": 90}, {"time": 102400, "pitch": 61, "duration": 80, "velocity": 70}, {"time": 102400, "pitch": 66, "duration": 80, "velocity": 80}, {"time": 102480, "pitch": 54, "duration": 239, "velocity": 90}, {"time": 102480, "pitch": 57, "duration": 239, "velocity": 120}, {"time": 102480, "pitch": 61, "duration": 239, "velocity": 100}, {"time": 102480, "pitch": 66, "duration": 239, "velocity": 110}, {"time": 102719, "pitch": 52, "duration": 240, "velocity": 90}, {"time": 102719, "pitch": 56, "duration": 240, "velocity": 120}, {"time": 102719, "pitch": 59, "duration": 240, "velocity": 100}, {"time": 102719, "pitch": 64, "duration": 240, "velocity": 110}, {"time": 102959, "pitch": 52, "duration": 160, "velocity": 70}, {"time": 102959, "pitch": 56, "duration": 160, "velocity": 100}, {"time": 102959, "pitch": 59, "duration": 160, "velocity": 80}, {"time": 102959, "pitch": 64, "duration": 160, "velocity": 90}, {"time": 103119, "pitch": 52, "duration": 80, "velocity": 60}, {"time": 103119, "pitch": 56, "duration": 80, "velocity": 90}, {"time": 103119, "pitch": 59, "duration": 80, "velocity": 70}, {"time": 103119, "pitch": 64, "duration": 80, "velocity": 80}, {"time": 103199, "pitch": 50, "duration": 480, "velocity": 70}, {"time": 103199, "pitch": 57, "duration": 480, "velocity": 100}, {"time": 103199, "pitch": 62, "duration": 480, "velocity": 80}, {"time": 103199, "pitch": 66, "duration": 480, "velocity": 90}, {"time": 103679, "pitch": 50, "duration": 399, "velocity": 85}, {"time": 103679, "pitch": 57, "duration": 399, "velocity": 115}, {"time": 103679, "pitch": 62, "duration": 399, "velocity": 95}, {"time": 103679, "pitch": 66, "duration": 399, "velocity": 105}, {"time": 104078, "pitch": 50, "duration": 80, "velocity": 60}, {"time": 104078, "pitch": 57, "duration": 80, "velocity": 90}, {"time": 104078, "pitch": 62, "duration": 80, "velocity": 70}, {"time": 104078, "pitch": 66, "duration": 80, "velocity": 80}, {"time": 104158, "pitch": 50, "duration": 160, "velocity": 70}, {"time": 104158, "pitch": 57, "duration": 160, "velocity": 100}, {"time": 104158, "pitch": 62, "duration": 160, "velocity": 80}, {"time": 104158, "pitch": 66, "duration": 160, "velocity": 90}, {"time": 104318, "pitch": 50, "duration": 80, "velocity": 60}, {"time": 104318, "pitch": 57, "duration": 80, "velocity": 90}, {"time": 104318, "pitch": 62, "duration": 80, "velocity": 70}, {"time": 104318, "pitch": 66, "duration": 80, "velocity": 80}, {"time": 104398, "pitch": 50, "duration": 240, "velocity": 90}, {"time": 104398, "pitch": 57, "duration": 240, "velocity": 120}, {"time": 104398, "pitch": 62, "duration": 240, "velocity": 100}, {"time": 104398, "pitch": 66, "duration": 240, "velocity": 110}, {"time": 104638, "pitch": 52, "duration": 479, "velocity": 85}, {"time": 104638, "pitch": 56, "duration": 479, "velocity": 115}, {"time": 104638, "pitch": 59, "duration": 479, "velocity": 95}, {"time": 104638, "pitch": 64, "duration": 479, "velocity": 105}, {"time": 105117, "pitch": 54, "duration": 486, "velocity": 70}, {"time": 105117, "pitch": 59, "duration": 486, "velocity": 100}, {"time": 105117, "pitch": 62, "duration": 486, "velocity": 80}, {"time": 105117, "pitch": 66, "duration": 486, "velocity": 105}, {"time": 105603, "pitch": 54, "duration": 399, "velocity": 85}, {"time": 105603, "pitch": 59, "duration": 399, "velocity": 115}, {"time": 105603, "pitch": 62, "duration": 399, "velocity": 95}, {"time": 105603, "pitch": 66, "duration": 399, "velocity": 120}, {"time": 106002, "pitch": 54, "duration": 80, "velocity": 60}, {"time": 106002, "pitch": 59, "duration": 80, "velocity": 90}, {"time": 106002, "pitch": 62, "duration": 80, "velocity": 70}, {"time": 106002, "pitch": 66, "duration": 80, "velocity": 95}, {"time": 106082, "pitch": 54, "duration": 160, "velocity": 70}, {"time": 106082, "pitch": 59, "duration": 160, "velocity": 100}, {"time": 106082, "pitch": 63, "duration": 160, "velocity": 80}, {"time": 106082, "pitch": 66, "duration": 160, "velocity": 105}, {"time": 106242, "pitch": 54, "duration": 80, "velocity": 60}, {"time": 106242, "pitch": 59, "duration": 80, "velocity": 90}, {"time": 106242, "pitch": 63, "duration": 80, "velocity": 70}, {"time": 106242, "pitch": 66, "duration": 80, "velocity": 95}, {"time": 106322, "pitch": 54, "duration": 240, "velocity": 90}, {"time": 106322, "pitch": 59, "duration": 240, "velocity": 120}, {"time": 106322, "pitch": 63, "duration": 240, "velocity": 100}, {"time": 106322, "pitch": 66, "duration": 240, "velocity": 125}, {"time": 106562, "pitch": 54, "duration": 240, "velocity": 90}, {"time": 106562, "pitch": 59, "duration": 240, "velocity": 120}, {"time": 106562, "pitch": 63, "duration": 240, "velocity": 100}, {"time": 106562, "pitch": 66, "duration": 240, "velocity": 125}, {"time": 106802, "pitch": 54, "duration": 159, "velocity": 70}, {"time": 106802, "pitch": 59, "duration": 159, "velocity": 100}, {"time": 106802, "pitch": 63, "duration": 159, "velocity": 80}, {"time": 106802, "pitch": 66, "duration": 159, "velocity": 105}, {"time": 106961, "pitch": 54, "duration": 80, "velocity": 60}, {"time": 106961, "pitch": 59, "duration": 80, "velocity": 90}, {"time": 106961, "pitch": 63, "duration": 80, "velocity": 70}, {"time": 106961, "pitch": 66, "duration": 80, "velocity": 95}, {"time": 107041, "pitch": 52, "duration": 240, "velocity": 110}, {"time": 107041, "pitch": 59, "duration": 240, "velocity": 100}, {"time": 107041, "pitch": 64, "duration": 240, "velocity": 110}, {"time": 107041, "pitch": 69, "duration": 240, "velocity": 110}, {"time": 107281, "pitch": 52, "duration": 240, "velocity": 65}, {"time": 107281, "pitch": 59, "duration": 240, "velocity": 75}, {"time": 107281, "pitch": 64, "duration": 240, "velocity": 85}, {"time": 107281, "pitch": 69, "duration": 240, "velocity": 85}, {"time": 107521, "pitch": 52, "duration": 240, "velocity": 90}, {"time": 107521, "pitch": 59, "duration": 240, "velocity": 100}, {"time": 107521, "pitch": 64, "duration": 240, "velocity": 110}, {"time": 107521, "pitch": 69, "duration": 240, "velocity": 110}, {"time": 107761, "pitch": 52, "duration": 239, "velocity": 65}, {"time": 107761, "pitch": 59, "duration": 239, "velocity": 75}, {"time": 107761, "pitch": 64, "duration": 239, "velocity": 85}, {"time": 107761, "pitch": 69, "duration": 239, "velocity": 85}, {"time": 108000, "pitch": 52, "duration": 240, "velocity": 90}, {"time": 108000, "pitch": 59, "duration": 240, "velocity": 100}, {"time": 108000, "pitch": 64, "duration": 240, "velocity": 110}, {"time": 108000, "pitch": 68, "duration": 240, "velocity": 110}, {"time": 108240, "pitch": 52, "duration": 240, "velocity": 65}, {"time": 108240, "pitch": 59, "duration": 240, "velocity": 75}, {"time": 108240, "pitch": 64, "duration": 240, "velocity": 85}, {"time": 108240, "pitch": 68, "duration": 240, "velocity": 85}, {"time": 108480, "pitch": 52, "duration": 240, "velocity": 90}, {"time": 108480, "pitch": 59, "duration": 240, "velocity": 100}, {"time": 108480, "pitch": 64, "duration": 240, "velocity": 110}, {"time": 108480, "pitch": 68, "duration": 240, "velocity": 110}, {"time": 108720, "pitch": 52, "duration": 239, "velocity": 65}, {"time": 108720, "pitch": 59, "duration": 239, "velocity": 75}, {"time": 108720, "pitch": 64, "duration": 239, "velocity": 85}, {"time": 108720, "pitch": 68, "duration": 239, "velocity": 85}, {"time": 108959, "pitch": 52, "duration": 240, "velocity": 90}, {"time": 108959, "pitch": 57, "duration": 240, "velocity": 100}, {"time": 108959, "pitch": 61, "duration": 240, "velocity": 110}, {"time": 108959, "pitch": 64, "duration": 240, "velocity": 110}, {"time": 109199, "pitch": 52, "duration": 240, "velocity": 65}, {"time": 109199, "pitch": 57, "duration": 240, "velocity": 75}, {"time": 109199, "pitch": 61, "duration": 240, "velocity": 85}, {"time": 109199, "pitch": 64, "duration": 240, "velocity": 85}, {"time": 109439, "pitch": 52, "duration": 240, "velocity": 90}, {"time": 109439, "pitch": 57, "duration": 240, "velocity": 100}, {"time": 109439, "pitch": 61, "duration": 240, "velocity": 110}, {"time": 109439, "pitch": 64, "duration": 240, "velocity": 110}, {"time": 109679, "pitch": 52, "duration": 199, "velocity": 65}, {"time": 109679, "pitch": 57, "duration": 199, "velocity": 75}, {"time": 109679, "pitch": 61, "duration": 199, "velocity": 85}, {"time": 109679, "pitch": 64, "duration": 199, "velocity": 85}, {"time": 109878, "pitch": 52, "duration": 40, "velocity": 55}, {"time": 109878, "pitch": 57, "duration": 40, "velocity": 65}, {"time": 109878, "pitch": 61, "duration": 40, "velocity": 75}, {"time": 109878, "pitch": 64, "duration": 40, "velocity": 75}, {"time": 109918, "pitch": 52, "duration": 160, "velocity": 80}, {"time": 109918, "pitch": 59, "duration": 160, "velocity": 110}, {"time": 109918, "pitch": 64, "duration": 160, "velocity": 90}, {"time": 109918, "pitch": 68, "duration": 160, "velocity": 100}, {"time": 110078, "pitch": 52, "duration": 80, "velocity": 70}, {"time": 110078, "pitch": 59, "duration": 80, "velocity": 100}, {"time": 110078, "pitch": 64, "duration": 80, "velocity": 80}, {"time": 110078, "pitch": 68, "duration": 80, "velocity": 90}, {"time": 110158, "pitch": 52, "duration": 240, "velocity": 90}, {"time": 110158, "pitch": 59, "duration": 240, "velocity": 117}, {"time": 110158, "pitch": 64, "duration": 240, "velocity": 100}, {"time": 110158, "pitch": 68, "duration": 240, "velocity": 110}, {"time": 110398, "pitch": 52, "duration": 240, "velocity": 90}, {"time": 110398, "pitch": 59, "duration": 240, "velocity": 100}, {"time": 110398, "pitch": 64, "duration": 240, "velocity": 110}, {"time": 110398, "pitch": 68, "duration": 240, "velocity": 110}, {"time": 110638, "pitch": 52, "duration": 200, "velocity": 65}, {"time": 110638, "pitch": 59, "duration": 200, "velocity": 75}, {"time": 110638, "pitch": 64, "duration": 200, "velocity": 85}, {"time": 110638, "pitch": 68, "duration": 200, "velocity": 85}, {"time": 110838, "pitch": 52, "duration": 39, "velocity": 55}, {"time": 110838, "pitch": 59, "duration": 39, "velocity": 65}, {"time": 110838, "pitch": 64, "duration": 39, "velocity": 75}, {"time": 110838, "pitch": 68, "duration": 39, "velocity": 75}, {"time": 110877, "pitch": 54, "duration": 240, "velocity": 90}, {"time": 110877, "pitch": 57, "duration": 240, "velocity": 100}, {"time": 110877, "pitch": 62, "duration": 240, "velocity": 110}, {"time": 110877, "pitch": 66, "duration": 240, "velocity": 110}, {"time": 111117, "pitch": 54, "duration": 240, "velocity": 65}, {"time": 111117, "pitch": 57, "duration": 240, "velocity": 75}, {"time": 111117, "pitch": 62, "duration": 240, "velocity": 85}, {"time": 111117, "pitch": 66, "duration": 240, "velocity": 85}, {"time": 111357, "pitch": 54, "duration": 243, "velocity": 90}, {"time": 111357, "pitch": 57, "duration": 243, "velocity": 100}, {"time": 111357, "pitch": 62, "duration": 243, "velocity": 110}, {"time": 111357, "pitch": 66, "duration": 243, "velocity": 110}, {"time": 111600, "pitch": 54, "duration": 202, "velocity": 65}, {"time": 111600, "pitch": 57, "duration": 202, "velocity": 75}, {"time": 111600, "pitch": 62, "duration": 202, "velocity": 85}, {"time": 111600, "pitch": 66, "duration": 202, "velocity": 85}, {"time": 111802, "pitch": 54, "duration": 41, "velocity": 55}, {"time": 111802, "pitch": 57, "duration": 41, "velocity": 65}, {"time": 111802, "pitch": 62, "duration": 41, "velocity": 75}, {"time": 111802, "pitch": 66, "duration": 41, "velocity": 75}, {"time": 111843, "pitch": 52, "duration": 160, "velocity": 80}, {"time": 111843, "pitch": 57, "duration": 160, "velocity": 110}, {"time": 111843, "pitch": 61, "duration": 160, "velocity": 90}, {"time": 111843, "pitch": 64, "duration": 160, "velocity": 100}, {"time": 112003, "pitch": 52, "duration": 79, "velocity": 70}, {"time": 112003, "pitch": 57, "duration": 79, "velocity": 100}, {"time": 112003, "pitch": 61, "duration": 79, "velocity": 80}, {"time": 112003, "pitch": 64, "duration": 79, "velocity": 90}, {"time": 112082, "pitch": 52, "duration": 240, "velocity": 90}, {"time": 112082, "pitch": 57, "duration": 240, "velocity": 117}, {"time": 112082, "pitch": 61, "duration": 240, "velocity": 100}, {"time": 112082, "pitch": 64, "duration": 240, "velocity": 110}, {"time": 112322, "pitch": 52, "duration": 240, "velocity": 90}, {"time": 112322, "pitch": 56, "duration": 240, "velocity": 100}, {"time": 112322, "pitch": 59, "duration": 240, "velocity": 110}, {"time": 112322, "pitch": 64, "duration": 240, "velocity": 110}, {"time": 112562, "pitch": 52, "duration": 200, "velocity": 65}, {"time": 112562, "pitch": 56, "duration": 200, "velocity": 75}, {"time": 112562, "pitch": 59, "duration": 200, "velocity": 85}, {"time": 112562, "pitch": 64, "duration": 200, "velocity": 85}, {"time": 112762, "pitch": 52, "duration": 40, "velocity": 55}, {"time": 112762, "pitch": 56, "duration": 40, "velocity": 65}, {"time": 112762, "pitch": 59, "duration": 40, "velocity": 75}, {"time": 112762, "pitch": 64, "duration": 40, "velocity": 75}, {"time": 112802, "pitch": 54, "duration": 239, "velocity": 90}, {"time": 112802, "pitch": 57, "duration": 239, "velocity": 100}, {"time": 112802, "pitch": 61, "duration": 239, "velocity": 110}, {"time": 112802, "pitch": 66, "duration": 239, "velocity": 110}, {"time": 113041, "pitch": 54, "duration": 240, "velocity": 65}, {"time": 113041, "pitch": 57, "duration": 240, "velocity": 75}, {"time": 113041, "pitch": 61, "duration": 240, "velocity": 85}, {"time": 113041, "pitch": 66, "duration": 240, "velocity": 85}, {"time": 113281, "pitch": 54, "duration": 240, "velocity": 90}, {"time": 113281, "pitch": 57, "duration": 240, "velocity": 100}, {"time": 113281, "pitch": 61, "duration": 240, "velocity": 110}, {"time": 113281, "pitch": 66, "duration": 240, "velocity": 110}, {"time": 113521, "pitch": 54, "duration": 200, "velocity": 65}, {"time": 113521, "pitch": 57, "duration": 200, "velocity": 75}, {"time": 113521, "pitch": 61, "duration": 200, "velocity": 85}, {"time": 113521, "pitch": 66, "duration": 200, "velocity": 85}, {"time": 113721, "pitch": 54, "duration": 40, "velocity": 55}, {"time": 113721, "pitch": 57, "duration": 40, "velocity": 65}, {"time": 113721, "pitch": 61, "duration": 40, "velocity": 75}, {"time": 113721, "pitch": 66, "duration": 40, "velocity": 75}, {"time": 113761, "pitch": 54, "duration": 160, "velocity": 80}, {"time": 113761, "pitch": 57, "duration": 160, "velocity": 110}, {"time": 113761, "pitch": 63, "duration": 160, "velocity": 90}, {"time": 113761, "pitch": 66, "duration": 160, "velocity": 100}, {"time": 113921, "pitch": 54, "duration": 80, "velocity": 70}, {"time": 113921, "pitch": 57, "duration": 80, "velocity": 100}, {"time": 113921, "pitch": 63, "duration": 80, "velocity": 80}, {"time": 113921, "pitch": 66, "duration": 80, "velocity": 90}, {"time": 114001, "pitch": 54, "duration": 239, "velocity": 90}, {"time": 114001, "pitch": 57, "duration": 239, "velocity": 117}, {"time": 114001, "pitch": 63, "duration": 239, "velocity": 100}, {"time": 114001, "pitch": 66, "duration": 239, "velocity": 110}, {"time": 114240, "pitch": 54, "duration": 240, "velocity": 90}, {"time": 114240, "pitch": 57, "duration": 240, "velocity": 100}, {"time": 114240, "pitch": 63, "duration": 240, "velocity": 110}, {"time": 114240, "pitch": 66, "duration": 240, "velocity": 110}, {"time": 114480, "pitch": 54, "duration": 200, "velocity": 65}, {"time": 114480, "pitch": 57, "duration": 200, "velocity": 75}, {"time": 114480, "pitch": 63, "duration": 200, "velocity": 85}, {"time": 114480, "pitch": 66, "duration": 200, "velocity": 85}, {"time": 114680, "pitch": 54, "duration": 40, "velocity": 55}, {"time": 114680, "pitch": 57, "duration": 40, "velocity": 65}, {"time": 114680, "pitch": 63, "duration": 40, "velocity": 75}, {"time": 114680, "pitch": 66, "duration": 40, "velocity": 75}, {"time": 114720, "pitch": 54, "duration": 240, "velocity": 90}, {"time": 114720, "pitch": 57, "duration": 240, "velocity": 100}, {"time": 114720, "pitch": 62, "duration": 240, "velocity": 110}, {"time": 114720, "pitch": 66, "duration": 240, "velocity": 110}, {"time": 114960, "pitch": 54, "duration": 239, "velocity": 65}, {"time": 114960, "pitch": 57, "duration": 239, "velocity": 75}, {"time": 114960, "pitch": 62, "duration": 239, "velocity": 85}, {"time": 114960, "pitch": 66, "duration": 239, "velocity": 85}, {"time": 115199, "pitch": 54, "duration": 240, "velocity": 90}, {"time": 115199, "pitch": 57, "duration": 240, "velocity": 100}, {"time": 115199, "pitch": 62, "duration": 240, "velocity": 110}, {"time": 115199, "pitch": 66, "duration": 240, "velocity": 110}, {"time": 115439, "pitch": 54, "duration": 200, "velocity": 65}, {"time": 115439, "pitch": 57, "duration": 200, "velocity": 75}, {"time": 115439, "pitch": 62, "duration": 200, "velocity": 85}, {"time": 115439, "pitch": 66, "duration": 200, "velocity": 85}, {"time": 115639, "pitch": 54, "duration": 40, "velocity": 55}, {"time": 115639, "pitch": 57, "duration": 40, "velocity": 65}, {"time": 115639, "pitch": 62, "duration": 40, "velocity": 75}, {"time": 115639, "pitch": 66, "duration": 40, "velocity": 75}, {"time": 115679, "pitch": 52, "duration": 160, "velocity": 80}, {"time": 115679, "pitch": 57, "duration": 160, "velocity": 110}, {"time": 115679, "pitch": 59, "duration": 160, "velocity": 90}, {"time": 115679, "pitch": 64, "duration": 160, "velocity": 100}, {"time": 115839, "pitch": 52, "duration": 80, "velocity": 70}, {"time": 115839, "pitch": 57, "duration": 80, "velocity": 100}, {"time": 115839, "pitch": 59, "duration": 80, "velocity": 80}, {"time": 115839, "pitch": 64, "duration": 80, "velocity": 90}, {"time": 115919, "pitch": 52, "duration": 239, "velocity": 90}, {"time": 115919, "pitch": 57, "duration": 239, "velocity": 117}, {"time": 115919, "pitch": 59, "duration": 239, "velocity": 100}, {"time": 115919, "pitch": 64, "duration": 239, "velocity": 110}, {"time": 116158, "pitch": 52, "duration": 240, "velocity": 90}, {"time": 116158, "pitch": 56, "duration": 240, "velocity": 100}, {"time": 116158, "pitch": 59, "duration": 240, "velocity": 110}, {"time": 116158, "pitch": 64, "duration": 240, "velocity": 110}, {"time": 116398, "pitch": 52, "duration": 200, "velocity": 65}, {"time": 116398, "pitch": 56, "duration": 200, "velocity": 75}, {"time": 116398, "pitch": 59, "duration": 200, "velocity": 85}, {"time": 116398, "pitch": 64, "duration": 200, "velocity": 85}, {"time": 116598, "pitch": 52, "duration": 40, "velocity": 55}, {"time": 116598, "pitch": 56, "duration": 40, "velocity": 65}, {"time": 116598, "pitch": 59, "duration": 40, "velocity": 75}, {"time": 116598, "pitch": 64, "duration": 40, "velocity": 75}, {"time": 116638, "pitch": 52, "duration": 240, "velocity": 90}, {"time": 116638, "pitch": 57, "duration": 240, "velocity": 100}, {"time": 116638, "pitch": 61, "duration": 240, "velocity": 110}, {"time": 116638, "pitch": 64, "duration": 240, "velocity": 110}, {"time": 116878, "pitch": 52, "duration": 239, "velocity": 65}, {"time": 116878, "pitch": 57, "duration": 239, "velocity": 75}, {"time": 116878, "pitch": 61, "duration": 239, "velocity": 85}, {"time": 116878, "pitch": 64, "duration": 239, "velocity": 85}, {"time": 117117, "pitch": 52, "duration": 240, "velocity": 90}, {"time": 117117, "pitch": 57, "duration": 240, "velocity": 100}, {"time": 117117, "pitch": 61, "duration": 240, "velocity": 110}, {"time": 117117, "pitch": 64, "duration": 240, "velocity": 110}, {"time": 117357, "pitch": 52, "duration": 200, "velocity": 65}, {"time": 117357, "pitch": 57, "duration": 200, "velocity": 75}, {"time": 117357, "pitch": 61, "duration": 200, "velocity": 85}, {"time": 117357, "pitch": 64, "duration": 200, "velocity": 85}, {"time": 117557, "pitch": 52, "duration": 40, "velocity": 55}, {"time": 117557, "pitch": 57, "duration": 40, "velocity": 65}, {"time": 117557, "pitch": 61, "duration": 40, "velocity": 75}, {"time": 117557, "pitch": 64, "duration": 40, "velocity": 75}, {"time": 117597, "pitch": 52, "duration": 162, "velocity": 80}, {"time": 117597, "pitch": 59, "duration": 162, "velocity": 110}, {"time": 117597, "pitch": 64, "duration": 162, "velocity": 90}, {"time": 117597, "pitch": 68, "duration": 162, "velocity": 100}, {"time": 117759, "pitch": 52, "duration": 81, "velocity": 70}, {"time": 117759, "pitch": 59, "duration": 81, "velocity": 100}, {"time": 117759, "pitch": 64, "duration": 81, "velocity": 80}, {"time": 117759, "pitch": 68, "duration": 81, "velocity": 90}, {"time": 117840, "pitch": 52, "duration": 243, "velocity": 90}, {"time": 117840, "pitch": 59, "duration": 243, "velocity": 117}, {"time": 117840, "pitch": 64, "duration": 243, "velocity": 100}, {"time": 117840, "pitch": 68, "duration": 243, "velocity": 110}, {"time": 118083, "pitch": 52, "duration": 239, "velocity": 90}, {"time": 118083, "pitch": 59, "duration": 239, "velocity": 100}, {"time": 118083, "pitch": 64, "duration": 239, "velocity": 110}, {"time": 118083, "pitch": 68, "duration": 239, "velocity": 110}, {"time": 118322, "pitch": 52, "duration": 200, "velocity": 65}, {"time": 118322, "pitch": 59, "duration": 200, "velocity": 75}, {"time": 118322, "pitch": 64, "duration": 200, "velocity": 85}, {"time": 118322, "pitch": 68, "duration": 200, "velocity": 85}, {"time": 118522, "pitch": 52, "duration": 40, "velocity": 55}, {"time": 118522, "pitch": 59, "duration": 40, "velocity": 65}, {"time": 118522, "pitch": 64, "duration": 40, "velocity": 75}, {"time": 118522, "pitch": 68, "duration": 40, "velocity": 75}, {"time": 118562, "pitch": 54, "duration": 240, "velocity": 90}, {"time": 118562, "pitch": 57, "duration": 240, "velocity": 100}, {"time": 118562, "pitch": 62, "duration": 240, "velocity": 110}, {"time": 118562, "pitch": 66, "duration": 240, "velocity": 110}, {"time": 118802, "pitch": 54, "duration": 240, "velocity": 65}, {"time": 118802, "pitch": 57, "duration": 240, "velocity": 75}, {"time": 118802, "pitch": 62, "duration": 240, "velocity": 85}, {"time": 118802, "pitch": 66, "duration": 240, "velocity": 85}, {"time": 119042, "pitch": 54, "duration": 239, "velocity": 90}, {"time": 119042, "pitch": 57, "duration": 239, "velocity": 100}, {"time": 119042, "pitch": 62, "duration": 239, "velocity": 110}, {"time": 119042, "pitch": 66, "duration": 239, "velocity": 110}, {"time": 119281, "pitch": 54, "duration": 200, "velocity": 65}, {"time": 119281, "pitch": 57, "duration": 200, "velocity": 75}, {"time": 119281, "pitch": 62, "duration": 200, "velocity": 85}, {"time": 119281, "pitch": 66, "duration": 200, "velocity": 85}, {"time": 119481, "pitch": 54, "duration": 40, "velocity": 55}, {"time": 119481, "pitch": 57, "duration": 40, "velocity": 65}, {"time": 119481, "pitch": 62, "duration": 40, "velocity": 75}, {"time": 119481, "pitch": 66, "duration": 40, "velocity": 75}, {"time": 119521, "pitch": 52, "duration": 160, "velocity": 80}, {"time": 119521, "pitch": 57, "duration": 160, "velocity": 110}, {"time": 119521, "pitch": 61, "duration": 160, "velocity": 90}, {"time": 119521, "pitch": 64, "duration": 160, "velocity": 100}, {"time": 119681, "pitch": 52, "duration": 80, "velocity": 70}, {"time": 119681, "pitch": 57, "duration": 80, "velocity": 100}, {"time": 119681, "pitch": 61, "duration": 80, "velocity": 80}, {"time": 119681, "pitch": 64, "duration": 80, "velocity": 90}, {"time": 119761, "pitch": 52, "duration": 240, "velocity": 90}, {"time": 119761, "pitch": 57, "duration": 240, "velocity": 117}, {"time": 119761, "pitch": 61, "duration": 240, "velocity": 100}, {"time": 119761, "pitch": 64, "duration": 240, "velocity": 110}, {"time": 120001, "pitch": 52, "duration": 239, "velocity": 90}, {"time": 120001, "pitch": 56, "duration": 239, "velocity": 100}, {"time": 120001, "pitch": 59, "duration": 239, "velocity": 110}, {"time": 120001, "pitch": 64, "duration": 239, "velocity": 110}, {"time": 120240, "pitch": 52, "duration": 200, "velocity": 65}, {"time": 120240, "pitch": 56, "duration": 200, "velocity": 75}, {"time": 120240, "pitch": 59, "duration": 200, "velocity": 85}, {"time": 120240, "pitch": 64, "duration": 200, "velocity": 85}, {"time": 120440, "pitch": 52, "duration": 40, "velocity": 55}, {"time": 120440, "pitch": 56, "duration": 40, "velocity": 65}, {"time": 120440, "pitch": 59, "duration": 40, "velocity": 75}, {"time": 120440, "pitch": 64, "duration": 40, "velocity": 75}, {"time": 120480, "pitch": 54, "duration": 240, "velocity": 90}, {"time": 120480, "pitch": 57, "duration": 240, "velocity": 100}, {"time": 120480, "pitch": 61, "duration": 240, "velocity": 110}, {"time": 120480, "pitch": 66, "duration": 240, "velocity": 110}, {"time": 120720, "pitch": 54, "duration": 240, "velocity": 65}, {"time": 120720, "pitch": 57, "duration": 240, "velocity": 75}, {"time": 120720, "pitch": 61, "duration": 240, "velocity": 85}, {"time": 120720, "pitch": 66, "duration": 240, "velocity": 85}, {"time": 120960, "pitch": 54, "duration": 239, "velocity": 90}, {"time": 120960, "pitch": 57, "duration": 239, "velocity": 100}, {"time": 120960, "pitch": 61, "duration": 239, "velocity": 110}, {"time": 120960, "pitch": 66, "duration": 239, "velocity": 110}, {"time": 121199, "pitch": 54, "duration": 200, "velocity": 65}, {"time": 121199, "pitch": 57, "duration": 200, "velocity": 75}, {"time": 121199, "pitch": 61, "duration": 200, "velocity": 85}, {"time": 121199, "pitch": 66, "duration": 200, "velocity": 85}, {"time": 121399, "pitch": 54, "duration": 40, "velocity": 55}, {"time": 121399, "pitch": 57, "duration": 40, "velocity": 65}, {"time": 121399, "pitch": 61, "duration": 40, "velocity": 75}, {"time": 121399, "pitch": 66, "duration": 40, "velocity": 75}, {"time": 121439, "pitch": 54, "duration": 160, "velocity": 80}, {"time": 121439, "pitch": 57, "duration": 160, "velocity": 110}, {"time": 121439, "pitch": 63, "duration": 160, "velocity": 90}, {"time": 121439, "pitch": 66, "duration": 160, "velocity": 100}, {"time": 121599, "pitch": 54, "duration": 80, "velocity": 70}, {"time": 121599, "pitch": 57, "duration": 80, "velocity": 100}, {"time": 121599, "pitch": 63, "duration": 80, "velocity": 80}, {"time": 121599, "pitch": 66, "duration": 80, "velocity": 90}, {"time": 121679, "pitch": 54, "duration": 240, "velocity": 90}, {"time": 121679, "pitch": 57, "duration": 240, "velocity": 117}, {"time": 121679, "pitch": 63, "duration": 240, "velocity": 100}, {"time": 121679, "pitch": 66, "duration": 240, "velocity": 110}, {"time": 121919, "pitch": 54, "duration": 240, "velocity": 90}, {"time": 121919, "pitch": 57, "duration": 240, "velocity": 100}, {"time": 121919, "pitch": 63, "duration": 240, "velocity": 110}, {"time": 121919, "pitch": 66, "duration": 240, "velocity": 110}, {"time": 122159, "pitch": 54, "duration": 199, "velocity": 65}, {"time": 122159, "pitch": 57, "duration": 199, "velocity": 75}, {"time": 122159, "pitch": 63, "duration": 199, "velocity": 85}, {"time": 122159, "pitch": 66, "duration": 199, "velocity": 85}, {"time": 122358, "pitch": 54, "duration": 40, "velocity": 55}, {"time": 122358, "pitch": 57, "duration": 40, "velocity": 65}, {"time": 122358, "pitch": 63, "duration": 40, "velocity": 75}, {"time": 122358, "pitch": 66, "duration": 40, "velocity": 75}, {"time": 122398, "pitch": 54, "duration": 240, "velocity": 90}, {"time": 122398, "pitch": 57, "duration": 240, "velocity": 100}, {"time": 122398, "pitch": 62, "duration": 240, "velocity": 110}, {"time": 122398, "pitch": 66, "duration": 240, "velocity": 110}, {"time": 122638, "pitch": 54, "duration": 240, "velocity": 65}, {"time": 122638, "pitch": 57, "duration": 240, "velocity": 75}, {"time": 122638, "pitch": 62, "duration": 240, "velocity": 85}, {"time": 122638, "pitch": 66, "duration": 240, "velocity": 85}, {"time": 122878, "pitch": 54, "duration": 240, "velocity": 90}, {"time": 122878, "pitch": 57, "duration": 240, "velocity": 100}, {"time": 122878, "pitch": 62, "duration": 240, "velocity": 110}, {"time": 122878, "pitch": 66, "duration": 240, "velocity": 110}, {"time": 123118, "pitch": 54, "duration": 199, "velocity": 65}, {"time": 123118, "pitch": 57, "duration": 199, "velocity": 75}, {"time": 123118, "pitch": 62, "duration": 199, "velocity": 85}, {"time": 123118, "pitch": 66, "duration": 199, "velocity": 85}, {"time": 123317, "pitch": 54, "duration": 40, "velocity": 55}, {"time": 123317, "pitch": 57, "duration": 40, "velocity": 65}, {"time": 123317, "pitch": 62, "duration": 40, "velocity": 75}, {"time": 123317, "pitch": 66, "duration": 40, "velocity": 75}, {"time": 123357, "pitch": 52, "duration": 162, "velocity": 80}, {"time": 123357, "pitch": 57, "duration": 162, "velocity": 110}, {"time": 123357, "pitch": 59, "duration": 162, "velocity": 90}, {"time": 123357, "pitch": 64, "duration": 162, "velocity": 100}, {"time": 123519, "pitch": 52, "duration": 81, "velocity": 70}, {"time": 123519, "pitch": 57, "duration": 81, "velocity": 100}, {"time": 123519, "pitch": 59, "duration": 81, "velocity": 80}, {"time": 123519, "pitch": 64, "duration": 81, "velocity": 90}, {"time": 123600, "pitch": 52, "duration": 243, "velocity": 90}, {"time": 123600, "pitch": 57, "duration": 243, "velocity": 117}, {"time": 123600, "pitch": 59, "duration": 243, "velocity": 100}, {"time": 123600, "pitch": 64, "duration": 243, "velocity": 110}, {"time": 123843, "pitch": 52, "duration": 240, "velocity": 90}, {"time": 123843, "pitch": 56, "duration": 240, "velocity": 100}, {"time": 123843, "pitch": 59, "duration": 240, "velocity": 110}, {"time": 123843, "pitch": 64, "duration": 240, "velocity": 110}, {"time": 124083, "pitch": 52, "duration": 200, "velocity": 65}, {"time": 124083, "pitch": 56, "duration": 200, "velocity": 75}, {"time": 124083, "pitch": 59, "duration": 200, "velocity": 85}, {"time": 124083, "pitch": 64, "duration": 200, "velocity": 85}, {"time": 124283, "pitch": 52, "duration": 40, "velocity": 55}, {"time": 124283, "pitch": 56, "duration": 40, "velocity": 65}, {"time": 124283, "pitch": 59, "duration": 40, "velocity": 75}, {"time": 124283, "pitch": 64, "duration": 40, "velocity": 75}, {"time": 124323, "pitch": 54, "duration": 239, "velocity": 90}, {"time": 124323, "pitch": 57, "duration": 239, "velocity": 100}, {"time": 124323, "pitch": 62, "duration": 239, "velocity": 110}, {"time": 124323, "pitch": 66, "duration": 239, "velocity": 110}, {"time": 124562, "pitch": 54, "duration": 240, "velocity": 65}, {"time": 124562, "pitch": 57, "duration": 240, "velocity": 75}, {"time": 124562, "pitch": 62, "duration": 240, "velocity": 85}, {"time": 124562, "pitch": 66, "duration": 240, "velocity": 85}, {"time": 124802, "pitch": 54, "duration": 240, "velocity": 90}, {"time": 124802, "pitch": 57, "duration": 240, "velocity": 100}, {"time": 124802, "pitch": 62, "duration": 240, "velocity": 110}, {"time": 124802, "pitch": 66, "duration": 240, "velocity": 110}, {"time": 125042, "pitch": 54, "duration": 200, "velocity": 65}, {"time": 125042, "pitch": 57, "duration": 200, "velocity": 75}, {"time": 125042, "pitch": 62, "duration": 200, "velocity": 85}, {"time": 125042, "pitch": 66, "duration": 200, "velocity": 85}, {"time": 125242, "pitch": 54, "duration": 40, "velocity": 55}, {"time": 125242, "pitch": 57, "duration": 40, "velocity": 65}, {"time": 125242, "pitch": 62, "duration": 40, "velocity": 75}, {"time": 125242, "pitch": 66, "duration": 40, "velocity": 75}, {"time": 125282, "pitch": 54, "duration": 159, "velocity": 80}, {"time": 125282, "pitch": 57, "duration": 159, "velocity": 110}, {"time": 125282, "pitch": 62, "duration": 159, "velocity": 90}, {"time": 125282, "pitch": 66, "duration": 159, "velocity": 100}, {"time": 125441, "pitch": 54, "duration": 80, "velocity": 70}, {"time": 125441, "pitch": 57, "duration": 80, "velocity": 100}, {"time": 125441, "pitch": 62, "duration": 80, "velocity": 80}, {"time": 125441, "pitch": 66, "duration": 80, "velocity": 90}, {"time": 125521, "pitch": 54, "duration": 240, "velocity": 90}, {"time": 125521, "pitch": 57, "duration": 240, "velocity": 117}, {"time": 125521, "pitch": 62, "duration": 240, "velocity": 100}, {"time": 125521, "pitch": 66, "duration": 240, "velocity": 110}, {"time": 125761, "pitch": 54, "duration": 240, "velocity": 90}, {"time": 125761, "pitch": 57, "duration": 240, "velocity": 100}, {"time": 125761, "pitch": 62, "duration": 240, "velocity": 110}, {"time": 125761, "pitch": 66, "duration": 240, "velocity": 110}, {"time": 126001, "pitch": 54, "duration": 200, "velocity": 65}, {"time": 126001, "pitch": 57, "duration": 200, "velocity": 75}, {"time": 126001, "pitch": 62, "duration": 200, "velocity": 85}, {"time": 126001, "pitch": 66, "duration": 200, "velocity": 85}, {"time": 126201, "pitch": 54, "duration": 40, "velocity": 55}, {"time": 126201, "pitch": 57, "duration": 40, "velocity": 65}, {"time": 126201, "pitch": 62, "duration": 40, "velocity": 75}, {"time": 126201, "pitch": 66, "duration": 40, "velocity": 75}, {"time": 126241, "pitch": 56, "duration": 239, "velocity": 90}, {"time": 126241, "pitch": 59, "duration": 239, "velocity": 100}, {"time": 126241, "pitch": 64, "duration": 239, "velocity": 110}, {"time": 126241, "pitch": 68, "duration": 239, "velocity": 110}, {"time": 126480, "pitch": 56, "duration": 240, "velocity": 65}, {"time": 126480, "pitch": 59, "duration": 240, "velocity": 75}, {"time": 126480, "pitch": 64, "duration": 240, "velocity": 85}, {"time": 126480, "pitch": 68, "duration": 240, "velocity": 85}, {"time": 126720, "pitch": 56, "duration": 240, "velocity": 90}, {"time": 126720, "pitch": 59, "duration": 240, "velocity": 100}, {"time": 126720, "pitch": 64, "duration": 240, "velocity": 110}, {"time": 126720, "pitch": 68, "duration": 240, "velocity": 110}, {"time": 126960, "pitch": 56, "duration": 200, "velocity": 65}, {"time": 126960, "pitch": 59, "duration": 200, "velocity": 75}, {"time": 126960, "pitch": 64, "duration": 200, "velocity": 85}, {"time": 126960, "pitch": 68, "duration": 200, "velocity": 85}, {"time": 127160, "pitch": 56, "duration": 40, "velocity": 55}, {"time": 127160, "pitch": 59, "duration": 40, "velocity": 65}, {"time": 127160, "pitch": 64, "duration": 40, "velocity": 75}, {"time": 127160, "pitch": 68, "duration": 40, "velocity": 75}, {"time": 127200, "pitch": 56, "duration": 159, "velocity": 80}, {"time": 127200, "pitch": 59, "duration": 159, "velocity": 110}, {"time": 127200, "pitch": 64, "duration": 159, "velocity": 90}, {"time": 127200, "pitch": 68, "duration": 159, "velocity": 100}, {"time": 127359, "pitch": 56, "duration": 80, "velocity": 70}, {"time": 127359, "pitch": 59, "duration": 80, "velocity": 100}, {"time": 127359, "pitch": 64, "duration": 80, "velocity": 80}, {"time": 127359, "pitch": 68, "duration": 80, "velocity": 90}, {"time": 127439, "pitch": 56, "duration": 240, "velocity": 90}, {"time": 127439, "pitch": 59, "duration": 240, "velocity": 117}, {"time": 127439, "pitch": 64, "duration": 240, "velocity": 100}, {"time": 127439, "pitch": 68, "duration": 240, "velocity": 110}, {"time": 127679, "pitch": 56, "duration": 240, "velocity": 90}, {"time": 127679, "pitch": 59, "duration": 240, "velocity": 100}, {"time": 127679, "pitch": 64, "duration": 240, "velocity": 110}, {"time": 127679, "pitch": 68, "duration": 240, "velocity": 110}, {"time": 127919, "pitch": 56, "duration": 200, "velocity": 65}, {"time": 127919, "pitch": 59, "duration": 200, "velocity": 75}, {"time": 127919, "pitch": 64, "duration": 200, "velocity": 85}, {"time": 127919, "pitch": 68, "duration": 200, "velocity": 85}, {"time": 128119, "pitch": 56, "duration": 40, "velocity": 55}, {"time": 128119, "pitch": 59, "duration": 40, "velocity": 65}, {"time": 128119, "pitch": 64, "duration": 40, "velocity": 75}, {"time": 128119, "pitch": 68, "duration": 40, "velocity": 75}, {"time": 128159, "pitch": 54, "duration": 239, "velocity": 90}, {"time": 128159, "pitch": 59, "duration": 239, "velocity": 100}, {"time": 128159, "pitch": 62, "duration": 239, "velocity": 110}, {"time": 128159, "pitch": 66, "duration": 239, "velocity": 110}, {"time": 128398, "pitch": 54, "duration": 240, "velocity": 65}, {"time": 128398, "pitch": 59, "duration": 240, "velocity": 75}, {"time": 128398, "pitch": 62, "duration": 240, "velocity": 85}, {"time": 128398, "pitch": 66, "duration": 240, "velocity": 85}, {"time": 128638, "pitch": 54, "duration": 240, "velocity": 90}, {"time": 128638, "pitch": 59, "duration": 240, "velocity": 100}, {"time": 128638, "pitch": 62, "duration": 240, "velocity": 110}, {"time": 128638, "pitch": 66, "duration": 240, "velocity": 110}, {"time": 128878, "pitch": 54, "duration": 200, "velocity": 65}, {"time": 128878, "pitch": 59, "duration": 200, "velocity": 75}, {"time": 128878, "pitch": 62, "duration": 200, "velocity": 85}, {"time": 128878, "pitch": 66, "duration": 200, "velocity": 85}, {"time": 129078, "pitch": 54, "duration": 40, "velocity": 55}, {"time": 129078, "pitch": 59, "duration": 40, "velocity": 65}, {"time": 129078, "pitch": 62, "duration": 40, "velocity": 75}, {"time": 129078, "pitch": 66, "duration": 40, "velocity": 75}, {"time": 129118, "pitch": 56, "duration": 160, "velocity": 80}, {"time": 129118, "pitch": 59, "duration": 160, "velocity": 110}, {"time": 129118, "pitch": 64, "duration": 160, "velocity": 90}, {"time": 129118, "pitch": 68, "duration": 160, "velocity": 100}, {"time": 129278, "pitch": 56, "duration": 79, "velocity": 70}, {"time": 129278, "pitch": 59, "duration": 79, "velocity": 100}, {"time": 129278, "pitch": 64, "duration": 79, "velocity": 80}, {"time": 129278, "pitch": 68, "duration": 79, "velocity": 90}, {"time": 129357, "pitch": 56, "duration": 240, "velocity": 90}, {"time": 129357, "pitch": 59, "duration": 240, "velocity": 117}, {"time": 129357, "pitch": 64, "duration": 240, "velocity": 100}, {"time": 129357, "pitch": 68, "duration": 240, "velocity": 110}, {"time": 129597, "pitch": 56, "duration": 243, "velocity": 90}, {"time": 129597, "pitch": 59, "duration": 243, "velocity": 100}, {"time": 129597, "pitch": 64, "duration": 243, "velocity": 110}, {"time": 129597, "pitch": 68, "duration": 243, "velocity": 110}, {"time": 129840, "pitch": 56, "duration": 202, "velocity": 65}, {"time": 129840, "pitch": 59, "duration": 202, "velocity": 75}, {"time": 129840, "pitch": 64, "duration": 202, "velocity": 85}, {"time": 129840, "pitch": 68, "duration": 202, "velocity": 85}, {"time": 130042, "pitch": 56, "duration": 41, "velocity": 55}, {"time": 130042, "pitch": 59, "duration": 41, "velocity": 65}, {"time": 130042, "pitch": 64, "duration": 41, "velocity": 75}, {"time": 130042, "pitch": 68, "duration": 41, "velocity": 75}, {"time": 130083, "pitch": 52, "duration": 240, "velocity": 90}, {"time": 130083, "pitch": 57, "duration": 240, "velocity": 100}, {"time": 130083, "pitch": 61, "duration": 240, "velocity": 110}, {"time": 130083, "pitch": 64, "duration": 240, "velocity": 110}, {"time": 130323, "pitch": 52, "duration": 239, "velocity": 65}, {"time": 130323, "pitch": 57, "duration": 239, "velocity": 75}, {"time": 130323, "pitch": 61, "duration": 239, "velocity": 85}, {"time": 130323, "pitch": 64, "duration": 239, "velocity": 85}, {"time": 130562, "pitch": 52, "duration": 200, "velocity": 65}, {"time": 130562, "pitch": 57, "duration": 200, "velocity": 75}, {"time": 130562, "pitch": 61, "duration": 200, "velocity": 85}, {"time": 130562, "pitch": 64, "duration": 200, "velocity": 85}, {"time": 130762, "pitch": 52, "duration": 40, "velocity": 55}, {"time": 130762, "pitch": 57, "duration": 40, "velocity": 65}, {"time": 130762, "pitch": 61, "duration": 40, "velocity": 75}, {"time": 130762, "pitch": 64, "duration": 40, "velocity": 75}, {"time": 130802, "pitch": 52, "duration": 240, "velocity": 90}, {"time": 130802, "pitch": 57, "duration": 240, "velocity": 100}, {"time": 130802, "pitch": 61, "duration": 240, "velocity": 110}, {"time": 130802, "pitch": 64, "duration": 240, "velocity": 110}, {"time": 131042, "pitch": 52, "duration": 2877, "velocity": 95}, {"time": 131042, "pitch": 57, "duration": 2877, "velocity": 105}, {"time": 131042, "pitch": 61, "duration": 2877, "velocity": 115}, {"time": 131042, "pitch": 64, "duration": 2877, "velocity": 115}], "annotations": [{"time": 224, "annotation": {"number": 7, "value": 55}, "group": "control_change"}, {"time": 240, "annotation": {"number": 11, "value": 127}, "group": "control_change"}, {"time": 256, "annotation": {"number": 10, "value": 114}, "group": "control_change"}, {"time": 288, "annotation": {"number": 91, "value": 0}, "group": "control_change"}, {"time": 304, "annotation": {"number": 93, "value": 0}, "group": "control_change"}, {"time": 320, "annotation": {"number": 94, "value": 0}, "group": "control_change"}, {"time": 368, "annotation": {"number": 101, "value": 0}, "group": "control_change"}, {"time": 384, "annotation": {"number": 100, "value": 0}, "group": "control_change"}, {"time": 400, "annotation": {"number": 6, "value": 12}, "group": "control_change"}, {"time": 432, "annotation": {"number": 99, "value": 1}, "group": "control_change"}, {"time": 448, "annotation": {"number": 98, "value": 8}, "group": "control_change"}, {"time": 464, "annotation": {"number": 6, "value": 64}, "group": "control_change"}, {"time": 495, "annotation": {"number": 99, "value": 1}, "group": "control_change"}, {"time": 551, "annotation": {"number": 98, "value": 9}, "group": "control_change"}, {"time": 606, "annotation": {"number": 6, "value": 64}, "group": "control_change"}, {"time": 717, "annotation": {"number": 99, "value": 1}, "group": "control_change"}, {"time": 772, "annotation": {"number": 98, "value": 10}, "group": "control_change"}, {"time": 827, "annotation": {"number": 6, "value": 64}, "group": "control_change"}, {"time": 882, "annotation": {"number": 74, "value": 64}, "group": "control_change"}, {"time": 938, "annotation": {"number": 71, "value": 64}, "group": "control_change"}, {"time": 993, "annotation": {"number": 73, "value": 64}, "group": "control_change"}, {"time": 1048, "annotation": {"number": 99, "value": 1}, "group": "control_change"}, {"time": 1103, "annotation": {"number": 98, "value": 100}, "group": "control_change"}, {"time": 1159, "annotation": {"number": 6, "value": 62}, "group": "control_change"}, {"time": 1214, "annotation": {"number": 72, "value": 64}, "group": "control_change"}, {"time": 1269, "annotation": {"number": 101, "value": 127}, "group": "control_change"}, {"time": 1325, "annotation": {"number": 100, "value": 127}, "group": "control_change"}, {"time": 132960, "annotation": {"number": 11, "value": 127}, "group": "control_change"}, {"time": 132975, "annotation": {"number": 11, "value": 125}, "group": "control_change"}, {"time": 132991, "annotation": {"number": 11, "value": 122}, "group": "control_change"}, {"time": 133007, "annotation": {"number": 11, "value": 120}, "group": "control_change"}, {"time": 133023, "annotation": {"number": 11, "value": 118}, "group": "control_change"}, {"time": 133038, "annotation": {"number": 11, "value": 116}, "group": "control_change"}, {"time": 133054, "annotation": {"number": 11, "value": 114}, "group": "control_change"}, {"time": 133070, "annotation": {"number": 11, "value": 112}, "group": "control_change"}, {"time": 133086, "annotation": {"number": 11, "value": 110}, "group": "control_change"}, {"time": 133101, "annotation": {"number": 11, "value": 108}, "group": "control_change"}, {"time": 133117, "annotation": {"number": 11, "value": 106}, "group": "control_change"}, {"time": 133133, "annotation": {"number": 11, "value": 104}, "group": "control_change"}, {"time": 133149, "annotation": {"number": 11, "value": 102}, "group": "control_change"}, {"time": 133164, "annotation": {"number": 11, "value": 100}, "group": "control_change"}, {"time": 133180, "annotation": {"number": 11, "value": 97}, "group": "control_change"}, {"time": 133196, "annotation": {"number": 11, "value": 95}, "group": "control_change"}, {"time": 133211, "annotation": {"number": 11, "value": 93}, "group": "control_change"}, {"time": 133227, "annotation": {"number": 11, "value": 91}, "group": "control_change"}, {"time": 133243, "annotation": {"number": 11, "value": 89}, "group": "control_change"}, {"time": 133259, "annotation": {"number": 11, "value": 87}, "group": "control_change"}, {"time": 133274, "annotation": {"number": 11, "value": 85}, "group": "control_change"}, {"time": 133290, "annotation": {"number": 11, "value": 83}, "group": "control_change"}, {"time": 133306, "annotation": {"number": 11, "value": 81}, "group": "control_change"}, {"time": 133322, "annotation": {"number": 11, "value": 79}, "group": "control_change"}, {"time": 133337, "annotation": {"number": 11, "value": 77}, "group": "control_change"}, {"time": 133353, "annotation": {"number": 11, "value": 75}, "group": "control_change"}, {"time": 133369, "annotation": {"number": 11, "value": 73}, "group": "control_change"}, {"time": 133385, "annotation": {"number": 11, "value": 70}, "group": "control_change"}, {"time": 133400, "annotation": {"number": 11, "value": 68}, "group": "control_change"}, {"time": 133416, "annotation": {"number": 11, "value": 66}, "group": "control_change"}, {"time": 133432, "annotation": {"number": 11, "value": 64}, "group": "control_change"}, {"time": 133447, "annotation": {"number": 11, "value": 62}, "group": "control_change"}, {"time": 133463, "annotation": {"number": 11, "value": 60}, "group": "control_change"}, {"time": 133479, "annotation": {"number": 11, "value": 58}, "group": "control_change"}, {"time": 133494, "annotation": {"number": 11, "value": 56}, "group": "control_change"}, {"time": 133509, "annotation": {"number": 11, "value": 54}, "group": "control_change"}, {"time": 133525, "annotation": {"number": 11, "value": 52}, "group": "control_change"}, {"time": 133541, "annotation": {"number": 11, "value": 50}, "group": "control_change"}, {"time": 133557, "annotation": {"number": 11, "value": 48}, "group": "control_change"}, {"time": 133572, "annotation": {"number": 11, "value": 46}, "group": "control_change"}, {"time": 133588, "annotation": {"number": 11, "value": 44}, "group": "control_change"}, {"time": 133604, "annotation": {"number": 11, "value": 41}, "group": "control_change"}, {"time": 133620, "annotation": {"number": 11, "value": 39}, "group": "control_change"}, {"time": 133635, "annotation": {"number": 11, "value": 37}, "group": "control_change"}, {"time": 133651, "annotation": {"number": 11, "value": 35}, "group": "control_change"}, {"time": 133667, "annotation": {"number": 11, "value": 33}, "group": "control_change"}, {"time": 133682, "annotation": {"number": 11, "value": 31}, "group": "control_change"}, {"time": 133698, "annotation": {"number": 11, "value": 29}, "group": "control_change"}, {"time": 133714, "annotation": {"number": 11, "value": 27}, "group": "control_change"}, {"time": 133730, "annotation": {"number": 11, "value": 25}, "group": "control_change"}, {"time": 133745, "annotation": {"number": 11, "value": 23}, "group": "control_change"}, {"time": 133761, "annotation": {"number": 11, "value": 21}, "group": "control_change"}, {"time": 133777, "annotation": {"number": 11, "value": 19}, "group": "control_change"}, {"time": 133793, "annotation": {"number": 11, "value": 17}, "group": "control_change"}, {"time": 133808, "annotation": {"number": 11, "value": 15}, "group": "control_change"}, {"time": 133824, "annotation": {"number": 11, "value": 12}, "group": "control_change"}, {"time": 133840, "annotation": {"number": 11, "value": 10}, "group": "control_change"}, {"time": 133856, "annotation": {"number": 11, "value": 8}, "group": "control_change"}, {"time": 133871, "annotation": {"number": 11, "value": 6}, "group": "control_change"}, {"time": 133887, "annotation": {"number": 11, "value": 4}, "group": "control_change"}, {"time": 133903, "annotation": {"number": 11, "value": 2}, "group": "control_change"}, {"time": 133918, "annotation": {"number": 11, "value": 0}, "group": "control_change"}]}]}