{"metadata": {"schema_version": "0.1", "title": "RWC-MDB-P-2001 No. 79: Together / Tomomi Ogata", "copyright": "RWC Music Database. Copyright (C) 2001 Real World Computing Partnership (contact: Masataka GOTO <m.goto@aist.go.jp>)", "source_filename": "RM-P079.SMF_SYNC.MID", "source_format": "midi"}, "resolution": 480, "tempos": [{"time": 0, "qpm": 92.00252700274167}], "key_signatures": [{"time": 0, "root": 0, "mode": "major"}], "time_signatures": [{"time": 0, "numerator": 4, "denominator": 4}], "tracks": [{"program": 0, "is_drum": false, "name": "A.PIANO", "notes": [{"time": 5760, "pitch": 48, "duration": 1916, "velocity": 85}, {"time": 5760, "pitch": 67, "duration": 1916, "velocity": 80}, {"time": 5760, "pitch": 72, "duration": 1196, "velocity": 90}, {"time": 5760, "pitch": 76, "duration": 1436, "velocity": 100}, {"time": 6000, "pitch": 55, "duration": 1676, "velocity": 75}, {"time": 6240, "pitch": 60, "duration": 1436, "velocity": 80}, {"time": 6480, "pitch": 62, "duration": 1196, "velocity": 90}, {"time": 6720, "pitch": 64, "duration": 956, "velocity": 85}, {"time": 6960, "pitch": 72, "duration": 716, "velocity": 90}, {"time": 7200, "pitch": 76, "duration": 476, "velocity": 100}, {"time": 7440, "pitch": 79, "duration": 236, "velocity": 110}, {"time": 7680, "pitch": 40, "duration": 1916, "velocity": 85}, {"time": 7680, "pitch": 76, "duration": 716, "velocity": 105}, {"time": 7680, "pitch": 84, "duration": 716, "velocity": 120}, {"time": 7920, "pitch": 48, "duration": 1676, "velocity": 75}, {"time": 8160, "pitch": 55, "duration": 1436, "velocity": 80}, {"time": 8400, "pitch": 64, "duration": 1196, "velocity": 90}, {"time": 8400, "pitch": 74, "duration": 716, "velocity": 100}, {"time": 8400, "pitch": 83, "duration": 716, "velocity": 115}, {"time": 9120, "pitch": 71, "duration": 476, "velocity": 95}, {"time": 9120, "pitch": 79, "duration": 476, "velocity": 110}, {"time": 9600, "pitch": 41, "duration": 1916, "velocity": 85}, {"time": 9600, "pitch": 72, "duration": 1916, "velocity": 100}, {"time": 9600, "pitch": 81, "duration": 1916, "velocity": 115}, {"time": 9840, "pitch": 48, "duration": 1676, "velocity": 75}, {"time": 10080, "pitch": 53, "duration": 1436, "velocity": 80}, {"time": 10320, "pitch": 55, "duration": 1196, "velocity": 90}, {"time": 10560, "pitch": 57, "duration": 956, "velocity": 100}, {"time": 10800, "pitch": 60, "duration": 715, "velocity": 90}, {"time": 11040, "pitch": 65, "duration": 475, "velocity": 95}, {"time": 11280, "pitch": 67, "duration": 235, "velocity": 85}, {"time": 11520, "pitch": 43, "duration": 1435, "velocity": 85}, {"time": 11520, "pitch": 60, "duration": 715, "velocity": 90}, {"time": 11520, "pitch": 65, "duration": 715, "velocity": 100}, {"time": 11520, "pitch": 69, "duration": 475, "velocity": 110}, {"time": 11760, "pitch": 53, "duration": 955, "velocity": 75}, {"time": 12000, "pitch": 55, "duration": 715, "velocity": 80}, {"time": 12000, "pitch": 67, "duration": 235, "velocity": 100}, {"time": 12240, "pitch": 60, "duration": 475, "velocity": 90}, {"time": 12240, "pitch": 65, "duration": 475, "velocity": 110}, {"time": 12720, "pitch": 59, "duration": 715, "velocity": 90}, {"time": 12720, "pitch": 62, "duration": 715, "velocity": 100}, {"time": 12720, "pitch": 67, "duration": 715, "velocity": 110}, {"time": 12960, "pitch": 43, "duration": 475, "velocity": 85}, {"time": 13440, "pitch": 48, "duration": 1916, "velocity": 85}, {"time": 13440, "pitch": 67, "duration": 1916, "velocity": 80}, {"time": 13440, "pitch": 72, "duration": 1916, "velocity": 90}, {"time": 13440, "pitch": 76, "duration": 1196, "velocity": 100}, {"time": 13680, "pitch": 55, "duration": 1676, "velocity": 75}, {"time": 13920, "pitch": 60, "duration": 1436, "velocity": 80}, {"time": 14160, "pitch": 62, "duration": 1196, "velocity": 90}, {"time": 14400, "pitch": 64, "duration": 956, "velocity": 85}, {"time": 14640, "pitch": 76, "duration": 716, "velocity": 90}, {"time": 14880, "pitch": 77, "duration": 476, "velocity": 100}, {"time": 15120, "pitch": 79, "duration": 236, "velocity": 110}, {"time": 15360, "pitch": 40, "duration": 1916, "velocity": 85}, {"time": 15360, "pitch": 77, "duration": 716, "velocity": 105}, {"time": 15360, "pitch": 86, "duration": 716, "velocity": 120}, {"time": 15600, "pitch": 48, "duration": 1676, "velocity": 75}, {"time": 15840, "pitch": 55, "duration": 1436, "velocity": 80}, {"time": 16080, "pitch": 64, "duration": 1196, "velocity": 90}, {"time": 16080, "pitch": 76, "duration": 716, "velocity": 100}, {"time": 16080, "pitch": 84, "duration": 716, "velocity": 115}, {"time": 16800, "pitch": 74, "duration": 476, "velocity": 95}, {"time": 16800, "pitch": 83, "duration": 476, "velocity": 110}, {"time": 17280, "pitch": 41, "duration": 1916, "velocity": 85}, {"time": 17280, "pitch": 72, "duration": 1916, "velocity": 100}, {"time": 17280, "pitch": 81, "duration": 1676, "velocity": 115}, {"time": 17520, "pitch": 48, "duration": 1676, "velocity": 75}, {"time": 17760, "pitch": 53, "duration": 1436, "velocity": 80}, {"time": 18000, "pitch": 55, "duration": 1196, "velocity": 90}, {"time": 18240, "pitch": 57, "duration": 956, "velocity": 85}, {"time": 18480, "pitch": 77, "duration": 715, "velocity": 105}, {"time": 18720, "pitch": 79, "duration": 475, "velocity": 110}, {"time": 18960, "pitch": 81, "duration": 235, "velocity": 100}, {"time": 19200, "pitch": 43, "duration": 1916, "velocity": 85}, {"time": 19200, "pitch": 72, "duration": 956, "velocity": 90}, {"time": 19200, "pitch": 77, "duration": 956, "velocity": 100}, {"time": 19200, "pitch": 81, "duration": 956, "velocity": 110}, {"time": 19520, "pitch": 55, "duration": 636, "velocity": 105}, {"time": 19840, "pitch": 60, "duration": 316, "velocity": 100}, {"time": 20160, "pitch": 59, "duration": 956, "velocity": 110}, {"time": 20160, "pitch": 71, "duration": 956, "velocity": 90}, {"time": 20160, "pitch": 74, "duration": 956, "velocity": 100}, {"time": 20160, "pitch": 79, "duration": 956, "velocity": 110}, {"time": 20480, "pitch": 50, "duration": 636, "velocity": 105}, {"time": 20800, "pitch": 52, "duration": 316, "velocity": 100}, {"time": 21120, "pitch": 36, "duration": 1916, "velocity": 85}, {"time": 21120, "pitch": 59, "duration": 1916, "velocity": 70}, {"time": 21120, "pitch": 64, "duration": 1676, "velocity": 90}, {"time": 21120, "pitch": 67, "duration": 1916, "velocity": 100}, {"time": 21360, "pitch": 43, "duration": 1676, "velocity": 75}, {"time": 21600, "pitch": 50, "duration": 1436, "velocity": 65}, {"time": 21840, "pitch": 52, "duration": 1196, "velocity": 70}, {"time": 22320, "pitch": 60, "duration": 716, "velocity": 90}, {"time": 22560, "pitch": 62, "duration": 476, "velocity": 95}, {"time": 22800, "pitch": 64, "duration": 236, "velocity": 85}, {"time": 23040, "pitch": 40, "duration": 1916, "velocity": 85}, {"time": 23040, "pitch": 59, "duration": 1916, "velocity": 70}, {"time": 23040, "pitch": 62, "duration": 1916, "velocity": 90}, {"time": 23040, "pitch": 67, "duration": 1916, "velocity": 100}, {"time": 23280, "pitch": 47, "duration": 1676, "velocity": 75}, {"time": 23520, "pitch": 52, "duration": 1436, "velocity": 65}, {"time": 23760, "pitch": 55, "duration": 716, "velocity": 70}, {"time": 24240, "pitch": 64, "duration": 716, "velocity": 80}, {"time": 24480, "pitch": 55, "duration": 476, "velocity": 70}, {"time": 24960, "pitch": 38, "duration": 1916, "velocity": 85}, {"time": 24960, "pitch": 60, "duration": 1196, "velocity": 70}, {"time": 24960, "pitch": 65, "duration": 1436, "velocity": 90}, {"time": 24960, "pitch": 69, "duration": 1916, "velocity": 100}, {"time": 25200, "pitch": 45, "duration": 1676, "velocity": 75}, {"time": 25440, "pitch": 50, "duration": 1436, "velocity": 65}, {"time": 25680, "pitch": 53, "duration": 956, "velocity": 70}, {"time": 26160, "pitch": 60, "duration": 716, "velocity": 75}, {"time": 26400, "pitch": 65, "duration": 476, "velocity": 85}, {"time": 26640, "pitch": 53, "duration": 236, "velocity": 70}, {"time": 26880, "pitch": 41, "duration": 1916, "velocity": 85}, {"time": 26880, "pitch": 63, "duration": 1676, "velocity": 70}, {"time": 26880, "pitch": 68, "duration": 1196, "velocity": 90}, {"time": 26880, "pitch": 72, "duration": 1916, "velocity": 100}, {"time": 27120, "pitch": 48, "duration": 1676, "velocity": 75}, {"time": 27360, "pitch": 53, "duration": 956, "velocity": 65}, {"time": 27600, "pitch": 56, "duration": 1196, "velocity": 70}, {"time": 28080, "pitch": 68, "duration": 716, "velocity": 90}, {"time": 28320, "pitch": 53, "duration": 476, "velocity": 65}, {"time": 28560, "pitch": 63, "duration": 236, "velocity": 70}, {"time": 28800, "pitch": 40, "duration": 1916, "velocity": 85}, {"time": 28800, "pitch": 62, "duration": 1676, "velocity": 70}, {"time": 28800, "pitch": 67, "duration": 1196, "velocity": 90}, {"time": 28800, "pitch": 71, "duration": 1916, "velocity": 100}, {"time": 29040, "pitch": 47, "duration": 1676, "velocity": 75}, {"time": 29280, "pitch": 52, "duration": 956, "velocity": 65}, {"time": 29520, "pitch": 55, "duration": 1196, "velocity": 70}, {"time": 30000, "pitch": 67, "duration": 716, "velocity": 90}, {"time": 30240, "pitch": 52, "duration": 476, "velocity": 65}, {"time": 30480, "pitch": 62, "duration": 236, "velocity": 70}, {"time": 30720, "pitch": 45, "duration": 1916, "velocity": 85}, {"time": 30720, "pitch": 64, "duration": 1676, "velocity": 70}, {"time": 30720, "pitch": 67, "duration": 1196, "velocity": 90}, {"time": 30720, "pitch": 72, "duration": 1916, "velocity": 100}, {"time": 30960, "pitch": 52, "duration": 1676, "velocity": 75}, {"time": 31200, "pitch": 57, "duration": 956, "velocity": 65}, {"time": 31440, "pitch": 60, "duration": 1196, "velocity": 70}, {"time": 31920, "pitch": 67, "duration": 716, "velocity": 90}, {"time": 32160, "pitch": 57, "duration": 476, "velocity": 65}, {"time": 32400, "pitch": 64, "duration": 236, "velocity": 70}, {"time": 32640, "pitch": 38, "duration": 1916, "velocity": 85}, {"time": 32640, "pitch": 60, "duration": 1196, "velocity": 70}, {"time": 32640, "pitch": 65, "duration": 1436, "velocity": 90}, {"time": 32640, "pitch": 69, "duration": 1916, "velocity": 100}, {"time": 32880, "pitch": 45, "duration": 1676, "velocity": 75}, {"time": 33120, "pitch": 50, "duration": 1436, "velocity": 65}, {"time": 33360, "pitch": 53, "duration": 956, "velocity": 70}, {"time": 33840, "pitch": 60, "duration": 716, "velocity": 75}, {"time": 34080, "pitch": 65, "duration": 476, "velocity": 85}, {"time": 34320, "pitch": 53, "duration": 236, "velocity": 70}, {"time": 34560, "pitch": 43, "duration": 1916, "velocity": 85}, {"time": 34560, "pitch": 65, "duration": 956, "velocity": 80}, {"time": 34560, "pitch": 69, "duration": 956, "velocity": 90}, {"time": 34560, "pitch": 72, "duration": 956, "velocity": 100}, {"time": 34880, "pitch": 55, "duration": 636, "velocity": 95}, {"time": 35200, "pitch": 60, "duration": 316, "velocity": 90}, {"time": 35520, "pitch": 59, "duration": 956, "velocity": 100}, {"time": 35520, "pitch": 62, "duration": 956, "velocity": 80}, {"time": 35520, "pitch": 67, "duration": 956, "velocity": 90}, {"time": 35520, "pitch": 71, "duration": 956, "velocity": 100}, {"time": 35840, "pitch": 57, "duration": 636, "velocity": 95}, {"time": 36160, "pitch": 55, "duration": 316, "velocity": 90}, {"time": 36480, "pitch": 36, "duration": 1916, "velocity": 85}, {"time": 36480, "pitch": 59, "duration": 1916, "velocity": 70}, {"time": 36480, "pitch": 64, "duration": 1676, "velocity": 90}, {"time": 36480, "pitch": 67, "duration": 1916, "velocity": 100}, {"time": 36720, "pitch": 43, "duration": 1676, "velocity": 75}, {"time": 36960, "pitch": 50, "duration": 1436, "velocity": 65}, {"time": 37200, "pitch": 52, "duration": 1196, "velocity": 70}, {"time": 37680, "pitch": 60, "duration": 716, "velocity": 90}, {"time": 37920, "pitch": 62, "duration": 476, "velocity": 95}, {"time": 38160, "pitch": 64, "duration": 236, "velocity": 85}, {"time": 38400, "pitch": 40, "duration": 1916, "velocity": 85}, {"time": 38400, "pitch": 59, "duration": 1916, "velocity": 70}, {"time": 38400, "pitch": 62, "duration": 1916, "velocity": 90}, {"time": 38400, "pitch": 67, "duration": 1916, "velocity": 100}, {"time": 38640, "pitch": 47, "duration": 1676, "velocity": 75}, {"time": 38880, "pitch": 52, "duration": 1436, "velocity": 65}, {"time": 39120, "pitch": 55, "duration": 716, "velocity": 70}, {"time": 39600, "pitch": 64, "duration": 716, "velocity": 80}, {"time": 39840, "pitch": 55, "duration": 476, "velocity": 70}, {"time": 40320, "pitch": 38, "duration": 1916, "velocity": 85}, {"time": 40320, "pitch": 60, "duration": 1196, "velocity": 70}, {"time": 40320, "pitch": 65, "duration": 1436, "velocity": 90}, {"time": 40320, "pitch": 69, "duration": 1916, "velocity": 100}, {"time": 40560, "pitch": 45, "duration": 1676, "velocity": 75}, {"time": 40800, "pitch": 50, "duration": 1436, "velocity": 65}, {"time": 41040, "pitch": 53, "duration": 956, "velocity": 70}, {"time": 41520, "pitch": 60, "duration": 716, "velocity": 75}, {"time": 41760, "pitch": 65, "duration": 476, "velocity": 85}, {"time": 42000, "pitch": 53, "duration": 236, "velocity": 70}, {"time": 42240, "pitch": 41, "duration": 1916, "velocity": 85}, {"time": 42240, "pitch": 63, "duration": 1676, "velocity": 70}, {"time": 42240, "pitch": 68, "duration": 1196, "velocity": 90}, {"time": 42240, "pitch": 72, "duration": 1916, "velocity": 100}, {"time": 42480, "pitch": 48, "duration": 1676, "velocity": 75}, {"time": 42720, "pitch": 53, "duration": 956, "velocity": 65}, {"time": 42960, "pitch": 56, "duration": 1196, "velocity": 70}, {"time": 43440, "pitch": 68, "duration": 716, "velocity": 90}, {"time": 43680, "pitch": 53, "duration": 476, "velocity": 65}, {"time": 43920, "pitch": 63, "duration": 236, "velocity": 70}, {"time": 44160, "pitch": 40, "duration": 1916, "velocity": 85}, {"time": 44160, "pitch": 62, "duration": 1676, "velocity": 70}, {"time": 44160, "pitch": 67, "duration": 1196, "velocity": 90}, {"time": 44160, "pitch": 71, "duration": 1916, "velocity": 100}, {"time": 44400, "pitch": 47, "duration": 1676, "velocity": 75}, {"time": 44640, "pitch": 52, "duration": 956, "velocity": 65}, {"time": 44880, "pitch": 55, "duration": 1196, "velocity": 70}, {"time": 45360, "pitch": 67, "duration": 716, "velocity": 90}, {"time": 45600, "pitch": 52, "duration": 476, "velocity": 65}, {"time": 45840, "pitch": 62, "duration": 236, "velocity": 70}, {"time": 46080, "pitch": 45, "duration": 1916, "velocity": 85}, {"time": 46080, "pitch": 64, "duration": 1676, "velocity": 70}, {"time": 46080, "pitch": 67, "duration": 1196, "velocity": 90}, {"time": 46080, "pitch": 72, "duration": 1916, "velocity": 100}, {"time": 46320, "pitch": 52, "duration": 1676, "velocity": 75}, {"time": 46560, "pitch": 57, "duration": 956, "velocity": 65}, {"time": 46800, "pitch": 60, "duration": 1196, "velocity": 70}, {"time": 47280, "pitch": 67, "duration": 716, "velocity": 90}, {"time": 47520, "pitch": 57, "duration": 476, "velocity": 65}, {"time": 47760, "pitch": 64, "duration": 236, "velocity": 70}, {"time": 48000, "pitch": 38, "duration": 1916, "velocity": 85}, {"time": 48000, "pitch": 60, "duration": 1196, "velocity": 70}, {"time": 48000, "pitch": 65, "duration": 1436, "velocity": 90}, {"time": 48000, "pitch": 69, "duration": 1916, "velocity": 100}, {"time": 48240, "pitch": 45, "duration": 1676, "velocity": 75}, {"time": 48480, "pitch": 50, "duration": 1436, "velocity": 65}, {"time": 48720, "pitch": 53, "duration": 956, "velocity": 70}, {"time": 49200, "pitch": 60, "duration": 716, "velocity": 75}, {"time": 49440, "pitch": 65, "duration": 476, "velocity": 85}, {"time": 49680, "pitch": 53, "duration": 236, "velocity": 70}, {"time": 49920, "pitch": 43, "duration": 1916, "velocity": 85}, {"time": 49920, "pitch": 65, "duration": 956, "velocity": 80}, {"time": 49920, "pitch": 69, "duration": 956, "velocity": 90}, {"time": 49920, "pitch": 72, "duration": 956, "velocity": 100}, {"time": 50240, "pitch": 55, "duration": 636, "velocity": 95}, {"time": 50560, "pitch": 60, "duration": 316, "velocity": 90}, {"time": 50880, "pitch": 59, "duration": 956, "velocity": 100}, {"time": 50880, "pitch": 74, "duration": 636, "velocity": 85}, {"time": 50880, "pitch": 83, "duration": 956, "velocity": 100}, {"time": 51200, "pitch": 57, "duration": 636, "velocity": 95}, {"time": 51200, "pitch": 71, "duration": 636, "velocity": 105}, {"time": 51200, "pitch": 79, "duration": 636, "velocity": 120}, {"time": 51520, "pitch": 55, "duration": 316, "velocity": 90}, {"time": 51520, "pitch": 67, "duration": 316, "velocity": 110}, {"time": 51520, "pitch": 74, "duration": 316, "velocity": 125}, {"time": 51840, "pitch": 52, "duration": 236, "velocity": 80}, {"time": 51840, "pitch": 62, "duration": 476, "velocity": 80}, {"time": 51840, "pitch": 67, "duration": 476, "velocity": 90}, {"time": 51840, "pitch": 71, "duration": 476, "velocity": 100}, {"time": 52080, "pitch": 40, "duration": 476, "velocity": 90}, {"time": 52320, "pitch": 62, "duration": 476, "velocity": 85}, {"time": 52320, "pitch": 67, "duration": 476, "velocity": 95}, {"time": 52320, "pitch": 71, "duration": 476, "velocity": 105}, {"time": 52560, "pitch": 43, "duration": 476, "velocity": 85}, {"time": 52800, "pitch": 62, "duration": 476, "velocity": 80}, {"time": 52800, "pitch": 67, "duration": 476, "velocity": 90}, {"time": 52800, "pitch": 71, "duration": 476, "velocity": 100}, {"time": 53040, "pitch": 47, "duration": 236, "velocity": 80}, {"time": 53280, "pitch": 40, "duration": 236, "velocity": 90}, {"time": 53280, "pitch": 62, "duration": 476, "velocity": 85}, {"time": 53280, "pitch": 67, "duration": 476, "velocity": 95}, {"time": 53280, "pitch": 71, "duration": 476, "velocity": 105}, {"time": 53520, "pitch": 52, "duration": 236, "velocity": 80}, {"time": 53760, "pitch": 57, "duration": 236, "velocity": 80}, {"time": 53760, "pitch": 61, "duration": 476, "velocity": 80}, {"time": 53760, "pitch": 64, "duration": 476, "velocity": 90}, {"time": 53760, "pitch": 69, "duration": 476, "velocity": 100}, {"time": 54000, "pitch": 45, "duration": 476, "velocity": 90}, {"time": 54240, "pitch": 61, "duration": 476, "velocity": 85}, {"time": 54240, "pitch": 64, "duration": 476, "velocity": 95}, {"time": 54240, "pitch": 69, "duration": 476, "velocity": 105}, {"time": 54480, "pitch": 52, "duration": 476, "velocity": 85}, {"time": 54720, "pitch": 61, "duration": 476, "velocity": 80}, {"time": 54720, "pitch": 64, "duration": 476, "velocity": 90}, {"time": 54720, "pitch": 69, "duration": 476, "velocity": 100}, {"time": 54960, "pitch": 45, "duration": 236, "velocity": 80}, {"time": 55200, "pitch": 49, "duration": 236, "velocity": 90}, {"time": 55200, "pitch": 61, "duration": 476, "velocity": 85}, {"time": 55200, "pitch": 64, "duration": 476, "velocity": 95}, {"time": 55200, "pitch": 69, "duration": 476, "velocity": 105}, {"time": 55440, "pitch": 55, "duration": 236, "velocity": 80}, {"time": 55680, "pitch": 53, "duration": 236, "velocity": 80}, {"time": 55680, "pitch": 64, "duration": 476, "velocity": 80}, {"time": 55680, "pitch": 69, "duration": 476, "velocity": 90}, {"time": 55680, "pitch": 72, "duration": 476, "velocity": 100}, {"time": 55920, "pitch": 41, "duration": 476, "velocity": 90}, {"time": 56160, "pitch": 64, "duration": 476, "velocity": 85}, {"time": 56160, "pitch": 69, "duration": 476, "velocity": 95}, {"time": 56160, "pitch": 72, "duration": 476, "velocity": 105}, {"time": 56400, "pitch": 48, "duration": 236, "velocity": 80}, {"time": 56640, "pitch": 52, "duration": 236, "velocity": 90}, {"time": 56640, "pitch": 62, "duration": 476, "velocity": 80}, {"time": 56640, "pitch": 67, "duration": 476, "velocity": 90}, {"time": 56640, "pitch": 71, "duration": 476, "velocity": 100}, {"time": 56880, "pitch": 40, "duration": 236, "velocity": 80}, {"time": 57120, "pitch": 47, "duration": 236, "velocity": 85}, {"time": 57120, "pitch": 62, "duration": 476, "velocity": 85}, {"time": 57120, "pitch": 67, "duration": 476, "velocity": 95}, {"time": 57120, "pitch": 71, "duration": 476, "velocity": 105}, {"time": 57360, "pitch": 52, "duration": 236, "velocity": 75}, {"time": 57600, "pitch": 50, "duration": 236, "velocity": 90}, {"time": 57600, "pitch": 60, "duration": 476, "velocity": 80}, {"time": 57600, "pitch": 65, "duration": 476, "velocity": 90}, {"time": 57600, "pitch": 69, "duration": 476, "velocity": 100}, {"time": 57840, "pitch": 38, "duration": 236, "velocity": 80}, {"time": 58080, "pitch": 45, "duration": 236, "velocity": 85}, {"time": 58080, "pitch": 60, "duration": 476, "velocity": 85}, {"time": 58080, "pitch": 65, "duration": 476, "velocity": 95}, {"time": 58080, "pitch": 69, "duration": 476, "velocity": 105}, {"time": 58320, "pitch": 48, "duration": 236, "velocity": 75}, {"time": 58560, "pitch": 43, "duration": 236, "velocity": 90}, {"time": 58560, "pitch": 60, "duration": 476, "velocity": 80}, {"time": 58560, "pitch": 65, "duration": 476, "velocity": 90}, {"time": 58560, "pitch": 69, "duration": 476, "velocity": 100}, {"time": 58800, "pitch": 47, "duration": 236, "velocity": 80}, {"time": 59040, "pitch": 50, "duration": 236, "velocity": 85}, {"time": 59040, "pitch": 60, "duration": 476, "velocity": 85}, {"time": 59040, "pitch": 65, "duration": 476, "velocity": 95}, {"time": 59040, "pitch": 69, "duration": 476, "velocity": 105}, {"time": 59280, "pitch": 55, "duration": 236, "velocity": 75}, {"time": 59520, "pitch": 52, "duration": 236, "velocity": 80}, {"time": 59520, "pitch": 62, "duration": 476, "velocity": 80}, {"time": 59520, "pitch": 67, "duration": 476, "velocity": 90}, {"time": 59520, "pitch": 71, "duration": 476, "velocity": 100}, {"time": 59760, "pitch": 40, "duration": 476, "velocity": 90}, {"time": 60000, "pitch": 62, "duration": 476, "velocity": 85}, {"time": 60000, "pitch": 67, "duration": 476, "velocity": 95}, {"time": 60000, "pitch": 71, "duration": 476, "velocity": 105}, {"time": 60240, "pitch": 43, "duration": 476, "velocity": 85}, {"time": 60480, "pitch": 62, "duration": 476, "velocity": 80}, {"time": 60480, "pitch": 67, "duration": 476, "velocity": 90}, {"time": 60480, "pitch": 71, "duration": 476, "velocity": 100}, {"time": 60720, "pitch": 47, "duration": 236, "velocity": 80}, {"time": 60960, "pitch": 40, "duration": 236, "velocity": 90}, {"time": 60960, "pitch": 62, "duration": 476, "velocity": 85}, {"time": 60960, "pitch": 67, "duration": 476, "velocity": 95}, {"time": 60960, "pitch": 71, "duration": 476, "velocity": 105}, {"time": 61200, "pitch": 52, "duration": 236, "velocity": 80}, {"time": 61440, "pitch": 45, "duration": 236, "velocity": 90}, {"time": 61440, "pitch": 67, "duration": 476, "velocity": 80}, {"time": 61440, "pitch": 71, "duration": 476, "velocity": 90}, {"time": 61440, "pitch": 74, "duration": 476, "velocity": 100}, {"time": 61680, "pitch": 52, "duration": 236, "velocity": 80}, {"time": 61920, "pitch": 55, "duration": 236, "velocity": 85}, {"time": 61920, "pitch": 67, "duration": 476, "velocity": 85}, {"time": 61920, "pitch": 71, "duration": 476, "velocity": 95}, {"time": 61920, "pitch": 74, "duration": 476, "velocity": 105}, {"time": 62160, "pitch": 62, "duration": 236, "velocity": 75}, {"time": 62400, "pitch": 61, "duration": 236, "velocity": 95}, {"time": 62400, "pitch": 64, "duration": 476, "velocity": 85}, {"time": 62400, "pitch": 69, "duration": 476, "velocity": 95}, {"time": 62400, "pitch": 73, "duration": 476, "velocity": 105}, {"time": 62640, "pitch": 57, "duration": 236, "velocity": 85}, {"time": 62880, "pitch": 52, "duration": 236, "velocity": 90}, {"time": 62880, "pitch": 64, "duration": 476, "velocity": 90}, {"time": 62880, "pitch": 69, "duration": 476, "velocity": 100}, {"time": 62880, "pitch": 73, "duration": 476, "velocity": 110}, {"time": 63120, "pitch": 49, "duration": 236, "velocity": 80}, {"time": 63360, "pitch": 38, "duration": 1436, "velocity": 95}, {"time": 63360, "pitch": 50, "duration": 716, "velocity": 84}, {"time": 63360, "pitch": 65, "duration": 1436, "velocity": 90}, {"time": 63360, "pitch": 69, "duration": 1196, "velocity": 100}, {"time": 63360, "pitch": 72, "duration": 716, "velocity": 110}, {"time": 64080, "pitch": 50, "duration": 716, "velocity": 105}, {"time": 64080, "pitch": 62, "duration": 1196, "velocity": 94}, {"time": 64080, "pitch": 72, "duration": 476, "velocity": 100}, {"time": 64080, "pitch": 77, "duration": 476, "velocity": 110}, {"time": 64080, "pitch": 81, "duration": 1196, "velocity": 120}, {"time": 64560, "pitch": 69, "duration": 236, "velocity": 95}, {"time": 64560, "pitch": 72, "duration": 236, "velocity": 105}, {"time": 64560, "pitch": 77, "duration": 716, "velocity": 115}, {"time": 64800, "pitch": 38, "duration": 476, "velocity": 95}, {"time": 64800, "pitch": 50, "duration": 476, "velocity": 84}, {"time": 64800, "pitch": 65, "duration": 236, "velocity": 90}, {"time": 64800, "pitch": 69, "duration": 236, "velocity": 100}, {"time": 64800, "pitch": 72, "duration": 476, "velocity": 110}, {"time": 65040, "pitch": 60, "duration": 236, "velocity": 85}, {"time": 65040, "pitch": 65, "duration": 236, "velocity": 95}, {"time": 65040, "pitch": 69, "duration": 236, "velocity": 105}, {"time": 65280, "pitch": 40, "duration": 1436, "velocity": 95}, {"time": 65280, "pitch": 52, "duration": 716, "velocity": 84}, {"time": 65280, "pitch": 67, "duration": 1676, "velocity": 90}, {"time": 65280, "pitch": 71, "duration": 1196, "velocity": 100}, {"time": 65280, "pitch": 74, "duration": 716, "velocity": 110}, {"time": 66000, "pitch": 52, "duration": 716, "velocity": 105}, {"time": 66000, "pitch": 64, "duration": 1196, "velocity": 94}, {"time": 66000, "pitch": 74, "duration": 476, "velocity": 100}, {"time": 66000, "pitch": 79, "duration": 476, "velocity": 110}, {"time": 66000, "pitch": 83, "duration": 1196, "velocity": 120}, {"time": 66480, "pitch": 71, "duration": 476, "velocity": 95}, {"time": 66480, "pitch": 74, "duration": 716, "velocity": 105}, {"time": 66480, "pitch": 79, "duration": 716, "velocity": 115}, {"time": 66720, "pitch": 40, "duration": 476, "velocity": 95}, {"time": 66720, "pitch": 52, "duration": 476, "velocity": 84}, {"time": 66960, "pitch": 62, "duration": 236, "velocity": 85}, {"time": 66960, "pitch": 67, "duration": 236, "velocity": 95}, {"time": 66960, "pitch": 71, "duration": 236, "velocity": 105}, {"time": 67200, "pitch": 41, "duration": 1436, "velocity": 95}, {"time": 67200, "pitch": 53, "duration": 716, "velocity": 84}, {"time": 67200, "pitch": 69, "duration": 1436, "velocity": 90}, {"time": 67200, "pitch": 72, "duration": 1196, "velocity": 100}, {"time": 67200, "pitch": 77, "duration": 716, "velocity": 110}, {"time": 67920, "pitch": 53, "duration": 716, "velocity": 105}, {"time": 67920, "pitch": 65, "duration": 956, "velocity": 94}, {"time": 67920, "pitch": 77, "duration": 476, "velocity": 100}, {"time": 67920, "pitch": 81, "duration": 476, "velocity": 110}, {"time": 67920, "pitch": 84, "duration": 1196, "velocity": 120}, {"time": 68400, "pitch": 72, "duration": 236, "velocity": 95}, {"time": 68400, "pitch": 77, "duration": 236, "velocity": 105}, {"time": 68400, "pitch": 81, "duration": 716, "velocity": 115}, {"time": 68640, "pitch": 41, "duration": 476, "velocity": 95}, {"time": 68640, "pitch": 53, "duration": 476, "velocity": 84}, {"time": 68640, "pitch": 69, "duration": 236, "velocity": 90}, {"time": 68640, "pitch": 72, "duration": 236, "velocity": 100}, {"time": 68640, "pitch": 77, "duration": 476, "velocity": 110}, {"time": 68880, "pitch": 65, "duration": 236, "velocity": 85}, {"time": 68880, "pitch": 69, "duration": 236, "velocity": 95}, {"time": 68880, "pitch": 72, "duration": 236, "velocity": 105}, {"time": 69120, "pitch": 43, "duration": 1436, "velocity": 95}, {"time": 69120, "pitch": 55, "duration": 476, "velocity": 84}, {"time": 69120, "pitch": 72, "duration": 1436, "velocity": 90}, {"time": 69120, "pitch": 74, "duration": 716, "velocity": 100}, {"time": 69120, "pitch": 79, "duration": 716, "velocity": 110}, {"time": 69600, "pitch": 55, "duration": 1196, "velocity": 105}, {"time": 69840, "pitch": 74, "duration": 716, "velocity": 100}, {"time": 69840, "pitch": 79, "duration": 716, "velocity": 110}, {"time": 69840, "pitch": 84, "duration": 1196, "velocity": 120}, {"time": 70320, "pitch": 62, "duration": 716, "velocity": 94}, {"time": 70560, "pitch": 43, "duration": 476, "velocity": 95}, {"time": 70560, "pitch": 72, "duration": 476, "velocity": 90}, {"time": 70560, "pitch": 74, "duration": 476, "velocity": 100}, {"time": 70560, "pitch": 79, "duration": 476, "velocity": 110}, {"time": 70800, "pitch": 55, "duration": 236, "velocity": 84}, {"time": 71040, "pitch": 43, "duration": 1676, "velocity": 95}, {"time": 71040, "pitch": 55, "duration": 956, "velocity": 84}, {"time": 71040, "pitch": 67, "duration": 956, "velocity": 90}, {"time": 71040, "pitch": 71, "duration": 476, "velocity": 100}, {"time": 71040, "pitch": 74, "duration": 476, "velocity": 110}, {"time": 71520, "pitch": 71, "duration": 476, "velocity": 90}, {"time": 71520, "pitch": 74, "duration": 476, "velocity": 100}, {"time": 71520, "pitch": 79, "duration": 476, "velocity": 110}, {"time": 72000, "pitch": 55, "duration": 716, "velocity": 95}, {"time": 72000, "pitch": 67, "duration": 956, "velocity": 85}, {"time": 72000, "pitch": 74, "duration": 956, "velocity": 95}, {"time": 72000, "pitch": 79, "duration": 476, "velocity": 105}, {"time": 72000, "pitch": 83, "duration": 476, "velocity": 115}, {"time": 72480, "pitch": 79, "duration": 476, "velocity": 100}, {"time": 72480, "pitch": 83, "duration": 476, "velocity": 110}, {"time": 72480, "pitch": 86, "duration": 476, "velocity": 120}, {"time": 72720, "pitch": 43, "duration": 236, "velocity": 105}, {"time": 72720, "pitch": 55, "duration": 236, "velocity": 95}, {"time": 72960, "pitch": 44, "duration": 716, "velocity": 85}, {"time": 72960, "pitch": 67, "duration": 476, "velocity": 85}, {"time": 72960, "pitch": 72, "duration": 476, "velocity": 95}, {"time": 72960, "pitch": 75, "duration": 476, "velocity": 105}, {"time": 73440, "pitch": 67, "duration": 716, "velocity": 90}, {"time": 73440, "pitch": 72, "duration": 716, "velocity": 100}, {"time": 73440, "pitch": 75, "duration": 716, "velocity": 110}, {"time": 73680, "pitch": 44, "duration": 236, "velocity": 75}, {"time": 73920, "pitch": 44, "duration": 476, "velocity": 85}, {"time": 74160, "pitch": 67, "duration": 476, "velocity": 85}, {"time": 74160, "pitch": 72, "duration": 476, "velocity": 95}, {"time": 74160, "pitch": 75, "duration": 476, "velocity": 105}, {"time": 74400, "pitch": 44, "duration": 236, "velocity": 75}, {"time": 74640, "pitch": 44, "duration": 956, "velocity": 85}, {"time": 74640, "pitch": 67, "duration": 476, "velocity": 90}, {"time": 74640, "pitch": 72, "duration": 476, "velocity": 100}, {"time": 74640, "pitch": 75, "duration": 476, "velocity": 110}, {"time": 75120, "pitch": 67, "duration": 236, "velocity": 80}, {"time": 75120, "pitch": 72, "duration": 236, "velocity": 90}, {"time": 75120, "pitch": 75, "duration": 236, "velocity": 100}, {"time": 75360, "pitch": 67, "duration": 476, "velocity": 85}, {"time": 75360, "pitch": 72, "duration": 476, "velocity": 95}, {"time": 75360, "pitch": 75, "duration": 476, "velocity": 105}, {"time": 75600, "pitch": 44, "duration": 236, "velocity": 75}, {"time": 75840, "pitch": 44, "duration": 716, "velocity": 85}, {"time": 75840, "pitch": 67, "duration": 476, "velocity": 90}, {"time": 75840, "pitch": 72, "duration": 476, "velocity": 100}, {"time": 75840, "pitch": 75, "duration": 476, "velocity": 110}, {"time": 76320, "pitch": 67, "duration": 476, "velocity": 80}, {"time": 76320, "pitch": 72, "duration": 476, "velocity": 90}, {"time": 76320, "pitch": 75, "duration": 476, "velocity": 100}, {"time": 76560, "pitch": 44, "duration": 236, "velocity": 75}, {"time": 76800, "pitch": 43, "duration": 716, "velocity": 85}, {"time": 76800, "pitch": 65, "duration": 476, "velocity": 85}, {"time": 76800, "pitch": 70, "duration": 476, "velocity": 95}, {"time": 76800, "pitch": 74, "duration": 476, "velocity": 105}, {"time": 77280, "pitch": 65, "duration": 716, "velocity": 90}, {"time": 77280, "pitch": 70, "duration": 716, "velocity": 100}, {"time": 77280, "pitch": 74, "duration": 716, "velocity": 110}, {"time": 77520, "pitch": 43, "duration": 236, "velocity": 75}, {"time": 77760, "pitch": 43, "duration": 476, "velocity": 85}, {"time": 78000, "pitch": 65, "duration": 476, "velocity": 85}, {"time": 78000, "pitch": 70, "duration": 476, "velocity": 95}, {"time": 78000, "pitch": 74, "duration": 476, "velocity": 105}, {"time": 78240, "pitch": 43, "duration": 236, "velocity": 75}, {"time": 78480, "pitch": 42, "duration": 956, "velocity": 85}, {"time": 78480, "pitch": 64, "duration": 476, "velocity": 90}, {"time": 78480, "pitch": 70, "duration": 476, "velocity": 100}, {"time": 78480, "pitch": 74, "duration": 476, "velocity": 110}, {"time": 78960, "pitch": 64, "duration": 236, "velocity": 80}, {"time": 78960, "pitch": 70, "duration": 236, "velocity": 90}, {"time": 78960, "pitch": 74, "duration": 236, "velocity": 100}, {"time": 79200, "pitch": 64, "duration": 476, "velocity": 85}, {"time": 79200, "pitch": 70, "duration": 476, "velocity": 95}, {"time": 79200, "pitch": 74, "duration": 476, "velocity": 105}, {"time": 79440, "pitch": 42, "duration": 236, "velocity": 75}, {"time": 79680, "pitch": 42, "duration": 716, "velocity": 85}, {"time": 79680, "pitch": 64, "duration": 476, "velocity": 90}, {"time": 79680, "pitch": 70, "duration": 476, "velocity": 100}, {"time": 79680, "pitch": 74, "duration": 476, "velocity": 110}, {"time": 80160, "pitch": 64, "duration": 476, "velocity": 80}, {"time": 80160, "pitch": 70, "duration": 476, "velocity": 90}, {"time": 80160, "pitch": 74, "duration": 476, "velocity": 100}, {"time": 80400, "pitch": 42, "duration": 236, "velocity": 75}, {"time": 80640, "pitch": 41, "duration": 716, "velocity": 85}, {"time": 80640, "pitch": 63, "duration": 476, "velocity": 85}, {"time": 80640, "pitch": 68, "duration": 476, "velocity": 95}, {"time": 80640, "pitch": 72, "duration": 476, "velocity": 105}, {"time": 81120, "pitch": 63, "duration": 716, "velocity": 90}, {"time": 81120, "pitch": 68, "duration": 716, "velocity": 100}, {"time": 81120, "pitch": 72, "duration": 716, "velocity": 110}, {"time": 81360, "pitch": 41, "duration": 236, "velocity": 75}, {"time": 81600, "pitch": 41, "duration": 476, "velocity": 85}, {"time": 81840, "pitch": 63, "duration": 476, "velocity": 85}, {"time": 81840, "pitch": 68, "duration": 476, "velocity": 95}, {"time": 81840, "pitch": 72, "duration": 476, "velocity": 105}, {"time": 82080, "pitch": 41, "duration": 236, "velocity": 75}, {"time": 82320, "pitch": 46, "duration": 956, "velocity": 85}, {"time": 82320, "pitch": 63, "duration": 476, "velocity": 90}, {"time": 82320, "pitch": 68, "duration": 476, "velocity": 100}, {"time": 82320, "pitch": 72, "duration": 476, "velocity": 110}, {"time": 82800, "pitch": 63, "duration": 236, "velocity": 80}, {"time": 82800, "pitch": 68, "duration": 236, "velocity": 90}, {"time": 82800, "pitch": 72, "duration": 236, "velocity": 100}, {"time": 83040, "pitch": 63, "duration": 476, "velocity": 85}, {"time": 83040, "pitch": 68, "duration": 476, "velocity": 95}, {"time": 83040, "pitch": 72, "duration": 476, "velocity": 105}, {"time": 83280, "pitch": 46, "duration": 236, "velocity": 75}, {"time": 83520, "pitch": 46, "duration": 716, "velocity": 85}, {"time": 83520, "pitch": 63, "duration": 476, "velocity": 90}, {"time": 83520, "pitch": 68, "duration": 476, "velocity": 100}, {"time": 83520, "pitch": 72, "duration": 476, "velocity": 110}, {"time": 84000, "pitch": 63, "duration": 476, "velocity": 80}, {"time": 84000, "pitch": 68, "duration": 476, "velocity": 90}, {"time": 84000, "pitch": 72, "duration": 476, "velocity": 100}, {"time": 84240, "pitch": 46, "duration": 236, "velocity": 75}, {"time": 84480, "pitch": 43, "duration": 716, "velocity": 85}, {"time": 84480, "pitch": 62, "duration": 476, "velocity": 85}, {"time": 84480, "pitch": 67, "duration": 476, "velocity": 95}, {"time": 84480, "pitch": 72, "duration": 476, "velocity": 105}, {"time": 84960, "pitch": 62, "duration": 716, "velocity": 90}, {"time": 84960, "pitch": 67, "duration": 716, "velocity": 100}, {"time": 84960, "pitch": 72, "duration": 716, "velocity": 110}, {"time": 85200, "pitch": 43, "duration": 236, "velocity": 75}, {"time": 85440, "pitch": 43, "duration": 476, "velocity": 85}, {"time": 85680, "pitch": 62, "duration": 476, "velocity": 85}, {"time": 85680, "pitch": 67, "duration": 476, "velocity": 95}, {"time": 85680, "pitch": 72, "duration": 476, "velocity": 105}, {"time": 85920, "pitch": 43, "duration": 236, "velocity": 75}, {"time": 86160, "pitch": 43, "duration": 956, "velocity": 85}, {"time": 86160, "pitch": 62, "duration": 476, "velocity": 90}, {"time": 86160, "pitch": 67, "duration": 476, "velocity": 100}, {"time": 86160, "pitch": 71, "duration": 476, "velocity": 110}, {"time": 86640, "pitch": 62, "duration": 236, "velocity": 80}, {"time": 86640, "pitch": 67, "duration": 236, "velocity": 90}, {"time": 86640, "pitch": 71, "duration": 236, "velocity": 100}, {"time": 86880, "pitch": 62, "duration": 476, "velocity": 85}, {"time": 86880, "pitch": 67, "duration": 476, "velocity": 95}, {"time": 86880, "pitch": 71, "duration": 476, "velocity": 105}, {"time": 87120, "pitch": 43, "duration": 236, "velocity": 75}, {"time": 87360, "pitch": 43, "duration": 956, "velocity": 85}, {"time": 87360, "pitch": 62, "duration": 716, "velocity": 90}, {"time": 87360, "pitch": 67, "duration": 956, "velocity": 100}, {"time": 87360, "pitch": 71, "duration": 956, "velocity": 110}, {"time": 87600, "pitch": 50, "duration": 716, "velocity": 90}, {"time": 87840, "pitch": 55, "duration": 476, "velocity": 100}, {"time": 88080, "pitch": 62, "duration": 236, "velocity": 90}, {"time": 88320, "pitch": 48, "duration": 1916, "velocity": 85}, {"time": 88320, "pitch": 67, "duration": 1916, "velocity": 80}, {"time": 88320, "pitch": 72, "duration": 1916, "velocity": 90}, {"time": 88320, "pitch": 76, "duration": 1196, "velocity": 100}, {"time": 88560, "pitch": 55, "duration": 1676, "velocity": 75}, {"time": 88800, "pitch": 60, "duration": 1436, "velocity": 80}, {"time": 89040, "pitch": 62, "duration": 1196, "velocity": 90}, {"time": 89280, "pitch": 64, "duration": 956, "velocity": 85}, {"time": 89520, "pitch": 76, "duration": 716, "velocity": 90}, {"time": 89760, "pitch": 77, "duration": 476, "velocity": 100}, {"time": 90000, "pitch": 79, "duration": 236, "velocity": 110}, {"time": 90240, "pitch": 40, "duration": 1916, "velocity": 85}, {"time": 90240, "pitch": 77, "duration": 716, "velocity": 105}, {"time": 90240, "pitch": 86, "duration": 716, "velocity": 120}, {"time": 90480, "pitch": 48, "duration": 1676, "velocity": 75}, {"time": 90720, "pitch": 55, "duration": 1436, "velocity": 80}, {"time": 90960, "pitch": 64, "duration": 1196, "velocity": 90}, {"time": 90960, "pitch": 76, "duration": 716, "velocity": 100}, {"time": 90960, "pitch": 84, "duration": 716, "velocity": 115}, {"time": 91680, "pitch": 74, "duration": 476, "velocity": 95}, {"time": 91680, "pitch": 83, "duration": 476, "velocity": 110}, {"time": 92160, "pitch": 41, "duration": 1916, "velocity": 85}, {"time": 92160, "pitch": 72, "duration": 1916, "velocity": 100}, {"time": 92160, "pitch": 81, "duration": 1676, "velocity": 115}, {"time": 92400, "pitch": 48, "duration": 1676, "velocity": 75}, {"time": 92640, "pitch": 53, "duration": 1436, "velocity": 80}, {"time": 92880, "pitch": 55, "duration": 1196, "velocity": 90}, {"time": 93120, "pitch": 57, "duration": 956, "velocity": 85}, {"time": 93360, "pitch": 77, "duration": 715, "velocity": 105}, {"time": 93600, "pitch": 79, "duration": 475, "velocity": 110}, {"time": 93840, "pitch": 81, "duration": 235, "velocity": 100}, {"time": 94080, "pitch": 43, "duration": 1916, "velocity": 85}, {"time": 94080, "pitch": 72, "duration": 956, "velocity": 90}, {"time": 94080, "pitch": 77, "duration": 956, "velocity": 100}, {"time": 94080, "pitch": 81, "duration": 956, "velocity": 110}, {"time": 94400, "pitch": 55, "duration": 636, "velocity": 105}, {"time": 94720, "pitch": 60, "duration": 316, "velocity": 100}, {"time": 95040, "pitch": 59, "duration": 956, "velocity": 110}, {"time": 95040, "pitch": 71, "duration": 956, "velocity": 90}, {"time": 95040, "pitch": 74, "duration": 956, "velocity": 100}, {"time": 95040, "pitch": 79, "duration": 956, "velocity": 110}, {"time": 95360, "pitch": 50, "duration": 636, "velocity": 105}, {"time": 95680, "pitch": 52, "duration": 316, "velocity": 100}, {"time": 96000, "pitch": 36, "duration": 1916, "velocity": 85}, {"time": 96000, "pitch": 59, "duration": 1916, "velocity": 70}, {"time": 96000, "pitch": 64, "duration": 1196, "velocity": 90}, {"time": 96000, "pitch": 67, "duration": 1676, "velocity": 100}, {"time": 96240, "pitch": 43, "duration": 1676, "velocity": 75}, {"time": 96480, "pitch": 50, "duration": 1436, "velocity": 65}, {"time": 96720, "pitch": 52, "duration": 1196, "velocity": 70}, {"time": 97200, "pitch": 64, "duration": 716, "velocity": 90}, {"time": 97440, "pitch": 65, "duration": 476, "velocity": 95}, {"time": 97680, "pitch": 67, "duration": 236, "velocity": 85}, {"time": 97920, "pitch": 40, "duration": 1916, "velocity": 85}, {"time": 97920, "pitch": 59, "duration": 1916, "velocity": 70}, {"time": 97920, "pitch": 62, "duration": 1916, "velocity": 90}, {"time": 97920, "pitch": 67, "duration": 1916, "velocity": 100}, {"time": 98160, "pitch": 47, "duration": 1676, "velocity": 75}, {"time": 98400, "pitch": 52, "duration": 1436, "velocity": 65}, {"time": 98400, "pitch": 77, "duration": 1436, "velocity": 85}, {"time": 98400, "pitch": 86, "duration": 1436, "velocity": 100}, {"time": 98640, "pitch": 55, "duration": 956, "velocity": 70}, {"time": 98640, "pitch": 76, "duration": 1196, "velocity": 75}, {"time": 98640, "pitch": 84, "duration": 1196, "velocity": 90}, {"time": 99120, "pitch": 71, "duration": 716, "velocity": 65}, {"time": 99120, "pitch": 79, "duration": 716, "velocity": 80}, {"time": 99600, "pitch": 55, "duration": 236, "velocity": 70}, {"time": 99840, "pitch": 38, "duration": 1916, "velocity": 85}, {"time": 99840, "pitch": 60, "duration": 1196, "velocity": 70}, {"time": 99840, "pitch": 65, "duration": 1436, "velocity": 90}, {"time": 99840, "pitch": 69, "duration": 1916, "velocity": 100}, {"time": 100080, "pitch": 45, "duration": 1676, "velocity": 75}, {"time": 100320, "pitch": 50, "duration": 1436, "velocity": 65}, {"time": 100560, "pitch": 53, "duration": 956, "velocity": 70}, {"time": 101040, "pitch": 60, "duration": 716, "velocity": 75}, {"time": 101280, "pitch": 65, "duration": 476, "velocity": 85}, {"time": 101520, "pitch": 53, "duration": 236, "velocity": 70}, {"time": 101760, "pitch": 41, "duration": 1916, "velocity": 85}, {"time": 101760, "pitch": 63, "duration": 1676, "velocity": 70}, {"time": 101760, "pitch": 68, "duration": 1196, "velocity": 90}, {"time": 101760, "pitch": 72, "duration": 1916, "velocity": 100}, {"time": 102000, "pitch": 48, "duration": 1676, "velocity": 75}, {"time": 102240, "pitch": 53, "duration": 956, "velocity": 65}, {"time": 102480, "pitch": 56, "duration": 1196, "velocity": 70}, {"time": 102480, "pitch": 77, "duration": 1196, "velocity": 80}, {"time": 102480, "pitch": 86, "duration": 1196, "velocity": 95}, {"time": 102960, "pitch": 68, "duration": 716, "velocity": 90}, {"time": 102960, "pitch": 79, "duration": 716, "velocity": 70}, {"time": 102960, "pitch": 88, "duration": 716, "velocity": 85}, {"time": 103200, "pitch": 53, "duration": 476, "velocity": 65}, {"time": 103200, "pitch": 80, "duration": 476, "velocity": 85}, {"time": 103200, "pitch": 89, "duration": 476, "velocity": 100}, {"time": 103440, "pitch": 63, "duration": 236, "velocity": 70}, {"time": 103680, "pitch": 40, "duration": 1916, "velocity": 85}, {"time": 103680, "pitch": 79, "duration": 1916, "velocity": 80}, {"time": 103680, "pitch": 88, "duration": 1916, "velocity": 95}, {"time": 103920, "pitch": 47, "duration": 1676, "velocity": 75}, {"time": 104160, "pitch": 52, "duration": 956, "velocity": 65}, {"time": 104400, "pitch": 55, "duration": 1196, "velocity": 70}, {"time": 104400, "pitch": 62, "duration": 956, "velocity": 70}, {"time": 104400, "pitch": 67, "duration": 476, "velocity": 90}, {"time": 104400, "pitch": 71, "duration": 1196, "velocity": 100}, {"time": 104880, "pitch": 67, "duration": 716, "velocity": 90}, {"time": 105120, "pitch": 52, "duration": 476, "velocity": 65}, {"time": 105360, "pitch": 62, "duration": 236, "velocity": 70}, {"time": 105600, "pitch": 45, "duration": 1916, "velocity": 85}, {"time": 105600, "pitch": 64, "duration": 1676, "velocity": 70}, {"time": 105600, "pitch": 67, "duration": 1196, "velocity": 90}, {"time": 105600, "pitch": 72, "duration": 1916, "velocity": 100}, {"time": 105840, "pitch": 52, "duration": 1676, "velocity": 75}, {"time": 106080, "pitch": 57, "duration": 956, "velocity": 65}, {"time": 106320, "pitch": 60, "duration": 1196, "velocity": 70}, {"time": 106320, "pitch": 76, "duration": 1196, "velocity": 80}, {"time": 106320, "pitch": 84, "duration": 1196, "velocity": 95}, {"time": 106800, "pitch": 67, "duration": 716, "velocity": 90}, {"time": 106800, "pitch": 77, "duration": 716, "velocity": 70}, {"time": 106800, "pitch": 86, "duration": 716, "velocity": 85}, {"time": 107040, "pitch": 57, "duration": 476, "velocity": 65}, {"time": 107040, "pitch": 79, "duration": 476, "velocity": 85}, {"time": 107040, "pitch": 88, "duration": 476, "velocity": 100}, {"time": 107280, "pitch": 64, "duration": 236, "velocity": 70}, {"time": 107520, "pitch": 38, "duration": 1916, "velocity": 85}, {"time": 107520, "pitch": 77, "duration": 1916, "velocity": 80}, {"time": 107520, "pitch": 86, "duration": 1916, "velocity": 95}, {"time": 107760, "pitch": 45, "duration": 1676, "velocity": 75}, {"time": 108000, "pitch": 50, "duration": 1436, "velocity": 65}, {"time": 108240, "pitch": 53, "duration": 956, "velocity": 70}, {"time": 108240, "pitch": 60, "duration": 476, "velocity": 70}, {"time": 108240, "pitch": 65, "duration": 716, "velocity": 90}, {"time": 108240, "pitch": 69, "duration": 1196, "velocity": 100}, {"time": 108720, "pitch": 60, "duration": 716, "velocity": 75}, {"time": 108960, "pitch": 65, "duration": 476, "velocity": 85}, {"time": 109200, "pitch": 53, "duration": 236, "velocity": 70}, {"time": 109440, "pitch": 43, "duration": 1916, "velocity": 85}, {"time": 109440, "pitch": 65, "duration": 956, "velocity": 80}, {"time": 109440, "pitch": 69, "duration": 956, "velocity": 90}, {"time": 109440, "pitch": 72, "duration": 636, "velocity": 100}, {"time": 109760, "pitch": 55, "duration": 636, "velocity": 95}, {"time": 109760, "pitch": 71, "duration": 636, "velocity": 95}, {"time": 109760, "pitch": 79, "duration": 636, "velocity": 110}, {"time": 110080, "pitch": 60, "duration": 316, "velocity": 90}, {"time": 110080, "pitch": 72, "duration": 316, "velocity": 90}, {"time": 110080, "pitch": 81, "duration": 316, "velocity": 105}, {"time": 110400, "pitch": 59, "duration": 956, "velocity": 80}, {"time": 110400, "pitch": 62, "duration": 956, "velocity": 90}, {"time": 110400, "pitch": 67, "duration": 956, "velocity": 100}, {"time": 110400, "pitch": 74, "duration": 956, "velocity": 100}, {"time": 110400, "pitch": 83, "duration": 956, "velocity": 115}, {"time": 110720, "pitch": 57, "duration": 636, "velocity": 95}, {"time": 110720, "pitch": 76, "duration": 636, "velocity": 95}, {"time": 110720, "pitch": 84, "duration": 636, "velocity": 110}, {"time": 111040, "pitch": 55, "duration": 316, "velocity": 90}, {"time": 111040, "pitch": 77, "duration": 316, "velocity": 90}, {"time": 111040, "pitch": 86, "duration": 316, "velocity": 105}, {"time": 111360, "pitch": 45, "duration": 235, "velocity": 95}, {"time": 111360, "pitch": 67, "duration": 595, "velocity": 80}, {"time": 111360, "pitch": 72, "duration": 595, "velocity": 100}, {"time": 111360, "pitch": 76, "duration": 595, "velocity": 110}, {"time": 111600, "pitch": 40, "duration": 235, "velocity": 85}, {"time": 111840, "pitch": 33, "duration": 115, "velocity": 75}, {"time": 112080, "pitch": 44, "duration": 475, "velocity": 95}, {"time": 112080, "pitch": 66, "duration": 1195, "velocity": 80}, {"time": 112080, "pitch": 72, "duration": 1195, "velocity": 100}, {"time": 112080, "pitch": 76, "duration": 1195, "velocity": 110}, {"time": 112560, "pitch": 50, "duration": 235, "velocity": 85}, {"time": 112800, "pitch": 42, "duration": 235, "velocity": 90}, {"time": 113040, "pitch": 45, "duration": 235, "velocity": 80}, {"time": 113280, "pitch": 43, "duration": 235, "velocity": 95}, {"time": 113280, "pitch": 65, "duration": 595, "velocity": 80}, {"time": 113280, "pitch": 70, "duration": 595, "velocity": 100}, {"time": 113280, "pitch": 74, "duration": 595, "velocity": 110}, {"time": 113520, "pitch": 38, "duration": 235, "velocity": 80}, {"time": 113760, "pitch": 37, "duration": 115, "velocity": 75}, {"time": 114000, "pitch": 36, "duration": 475, "velocity": 95}, {"time": 114000, "pitch": 70, "duration": 1195, "velocity": 80}, {"time": 114000, "pitch": 74, "duration": 1195, "velocity": 100}, {"time": 114000, "pitch": 77, "duration": 1195, "velocity": 110}, {"time": 114480, "pitch": 43, "duration": 235, "velocity": 85}, {"time": 114720, "pitch": 48, "duration": 235, "velocity": 90}, {"time": 114960, "pitch": 42, "duration": 235, "velocity": 80}, {"time": 115200, "pitch": 41, "duration": 1916, "velocity": 85}, {"time": 115200, "pitch": 69, "duration": 1436, "velocity": 70}, {"time": 115200, "pitch": 72, "duration": 1916, "velocity": 90}, {"time": 115200, "pitch": 76, "duration": 1916, "velocity": 100}, {"time": 115440, "pitch": 48, "duration": 1676, "velocity": 75}, {"time": 115680, "pitch": 53, "duration": 1436, "velocity": 65}, {"time": 115920, "pitch": 60, "duration": 956, "velocity": 70}, {"time": 116400, "pitch": 64, "duration": 716, "velocity": 75}, {"time": 116640, "pitch": 69, "duration": 476, "velocity": 85}, {"time": 116880, "pitch": 60, "duration": 236, "velocity": 70}, {"time": 117120, "pitch": 41, "duration": 1916, "velocity": 85}, {"time": 117120, "pitch": 63, "duration": 1676, "velocity": 70}, {"time": 117120, "pitch": 68, "duration": 1196, "velocity": 90}, {"time": 117120, "pitch": 72, "duration": 1916, "velocity": 100}, {"time": 117360, "pitch": 48, "duration": 1676, "velocity": 75}, {"time": 117600, "pitch": 53, "duration": 956, "velocity": 65}, {"time": 117840, "pitch": 56, "duration": 1196, "velocity": 70}, {"time": 117840, "pitch": 77, "duration": 1196, "velocity": 80}, {"time": 117840, "pitch": 86, "duration": 1196, "velocity": 95}, {"time": 118320, "pitch": 68, "duration": 716, "velocity": 90}, {"time": 118320, "pitch": 79, "duration": 716, "velocity": 70}, {"time": 118320, "pitch": 88, "duration": 716, "velocity": 85}, {"time": 118560, "pitch": 53, "duration": 476, "velocity": 65}, {"time": 118560, "pitch": 80, "duration": 476, "velocity": 85}, {"time": 118560, "pitch": 89, "duration": 476, "velocity": 100}, {"time": 118800, "pitch": 63, "duration": 236, "velocity": 70}, {"time": 119040, "pitch": 40, "duration": 1916, "velocity": 85}, {"time": 119040, "pitch": 79, "duration": 1916, "velocity": 80}, {"time": 119040, "pitch": 88, "duration": 1916, "velocity": 95}, {"time": 119280, "pitch": 47, "duration": 1676, "velocity": 75}, {"time": 119520, "pitch": 52, "duration": 956, "velocity": 65}, {"time": 119760, "pitch": 55, "duration": 1196, "velocity": 70}, {"time": 119760, "pitch": 62, "duration": 956, "velocity": 70}, {"time": 119760, "pitch": 67, "duration": 476, "velocity": 90}, {"time": 119760, "pitch": 71, "duration": 1196, "velocity": 100}, {"time": 120240, "pitch": 67, "duration": 716, "velocity": 90}, {"time": 120480, "pitch": 52, "duration": 476, "velocity": 65}, {"time": 120720, "pitch": 62, "duration": 236, "velocity": 70}, {"time": 120960, "pitch": 45, "duration": 1916, "velocity": 85}, {"time": 120960, "pitch": 64, "duration": 1676, "velocity": 70}, {"time": 120960, "pitch": 67, "duration": 1196, "velocity": 90}, {"time": 120960, "pitch": 72, "duration": 1916, "velocity": 100}, {"time": 121200, "pitch": 52, "duration": 1676, "velocity": 75}, {"time": 121440, "pitch": 57, "duration": 956, "velocity": 65}, {"time": 121680, "pitch": 60, "duration": 1196, "velocity": 70}, {"time": 121680, "pitch": 76, "duration": 1196, "velocity": 80}, {"time": 121680, "pitch": 84, "duration": 1196, "velocity": 95}, {"time": 122160, "pitch": 67, "duration": 716, "velocity": 90}, {"time": 122160, "pitch": 77, "duration": 716, "velocity": 70}, {"time": 122160, "pitch": 86, "duration": 716, "velocity": 85}, {"time": 122400, "pitch": 57, "duration": 476, "velocity": 65}, {"time": 122400, "pitch": 79, "duration": 476, "velocity": 85}, {"time": 122400, "pitch": 88, "duration": 476, "velocity": 100}, {"time": 122640, "pitch": 64, "duration": 236, "velocity": 70}, {"time": 122880, "pitch": 38, "duration": 1916, "velocity": 85}, {"time": 122880, "pitch": 81, "duration": 1436, "velocity": 80}, {"time": 122880, "pitch": 89, "duration": 1916, "velocity": 95}, {"time": 123120, "pitch": 45, "duration": 1676, "velocity": 75}, {"time": 123360, "pitch": 50, "duration": 1436, "velocity": 65}, {"time": 123600, "pitch": 53, "duration": 956, "velocity": 70}, {"time": 123600, "pitch": 60, "duration": 476, "velocity": 70}, {"time": 123600, "pitch": 65, "duration": 716, "velocity": 90}, {"time": 123600, "pitch": 69, "duration": 1196, "velocity": 100}, {"time": 124080, "pitch": 60, "duration": 716, "velocity": 75}, {"time": 124080, "pitch": 77, "duration": 716, "velocity": 70}, {"time": 124080, "pitch": 84, "duration": 716, "velocity": 85}, {"time": 124320, "pitch": 65, "duration": 476, "velocity": 85}, {"time": 124320, "pitch": 72, "duration": 476, "velocity": 85}, {"time": 124320, "pitch": 81, "duration": 476, "velocity": 100}, {"time": 124560, "pitch": 53, "duration": 236, "velocity": 70}, {"time": 124800, "pitch": 43, "duration": 1916, "velocity": 85}, {"time": 124800, "pitch": 72, "duration": 476, "velocity": 100}, {"time": 124800, "pitch": 81, "duration": 956, "velocity": 115}, {"time": 125120, "pitch": 55, "duration": 636, "velocity": 95}, {"time": 125280, "pitch": 65, "duration": 476, "velocity": 80}, {"time": 125280, "pitch": 69, "duration": 476, "velocity": 90}, {"time": 125280, "pitch": 72, "duration": 476, "velocity": 100}, {"time": 125440, "pitch": 60, "duration": 316, "velocity": 90}, {"time": 125760, "pitch": 59, "duration": 956, "velocity": 100}, {"time": 125760, "pitch": 74, "duration": 636, "velocity": 85}, {"time": 125760, "pitch": 83, "duration": 956, "velocity": 100}, {"time": 126080, "pitch": 57, "duration": 636, "velocity": 95}, {"time": 126080, "pitch": 71, "duration": 636, "velocity": 105}, {"time": 126080, "pitch": 79, "duration": 636, "velocity": 120}, {"time": 126400, "pitch": 55, "duration": 316, "velocity": 90}, {"time": 126400, "pitch": 67, "duration": 316, "velocity": 110}, {"time": 126400, "pitch": 74, "duration": 316, "velocity": 125}, {"time": 126720, "pitch": 52, "duration": 236, "velocity": 80}, {"time": 126720, "pitch": 62, "duration": 476, "velocity": 80}, {"time": 126720, "pitch": 67, "duration": 476, "velocity": 90}, {"time": 126720, "pitch": 71, "duration": 476, "velocity": 100}, {"time": 126960, "pitch": 40, "duration": 476, "velocity": 90}, {"time": 127200, "pitch": 62, "duration": 476, "velocity": 85}, {"time": 127200, "pitch": 67, "duration": 476, "velocity": 95}, {"time": 127200, "pitch": 71, "duration": 476, "velocity": 105}, {"time": 127440, "pitch": 43, "duration": 476, "velocity": 85}, {"time": 127680, "pitch": 62, "duration": 476, "velocity": 80}, {"time": 127680, "pitch": 67, "duration": 476, "velocity": 90}, {"time": 127680, "pitch": 71, "duration": 476, "velocity": 100}, {"time": 127920, "pitch": 47, "duration": 236, "velocity": 80}, {"time": 128160, "pitch": 40, "duration": 236, "velocity": 90}, {"time": 128160, "pitch": 67, "duration": 476, "velocity": 85}, {"time": 128160, "pitch": 71, "duration": 476, "velocity": 95}, {"time": 128160, "pitch": 74, "duration": 476, "velocity": 105}, {"time": 128400, "pitch": 52, "duration": 236, "velocity": 80}, {"time": 128640, "pitch": 57, "duration": 236, "velocity": 80}, {"time": 128640, "pitch": 64, "duration": 476, "velocity": 80}, {"time": 128640, "pitch": 67, "duration": 476, "velocity": 90}, {"time": 128640, "pitch": 72, "duration": 476, "velocity": 100}, {"time": 128880, "pitch": 45, "duration": 476, "velocity": 90}, {"time": 129120, "pitch": 64, "duration": 476, "velocity": 85}, {"time": 129120, "pitch": 67, "duration": 476, "velocity": 95}, {"time": 129120, "pitch": 72, "duration": 476, "velocity": 105}, {"time": 129360, "pitch": 52, "duration": 476, "velocity": 85}, {"time": 129600, "pitch": 64, "duration": 476, "velocity": 80}, {"time": 129600, "pitch": 69, "duration": 476, "velocity": 90}, {"time": 129600, "pitch": 73, "duration": 476, "velocity": 100}, {"time": 129840, "pitch": 45, "duration": 236, "velocity": 80}, {"time": 130080, "pitch": 49, "duration": 236, "velocity": 90}, {"time": 130080, "pitch": 64, "duration": 476, "velocity": 85}, {"time": 130080, "pitch": 69, "duration": 476, "velocity": 95}, {"time": 130080, "pitch": 73, "duration": 476, "velocity": 105}, {"time": 130320, "pitch": 55, "duration": 236, "velocity": 80}, {"time": 130560, "pitch": 53, "duration": 236, "velocity": 80}, {"time": 130560, "pitch": 64, "duration": 476, "velocity": 80}, {"time": 130560, "pitch": 69, "duration": 476, "velocity": 90}, {"time": 130560, "pitch": 72, "duration": 476, "velocity": 100}, {"time": 130800, "pitch": 41, "duration": 476, "velocity": 90}, {"time": 131040, "pitch": 64, "duration": 476, "velocity": 85}, {"time": 131040, "pitch": 69, "duration": 476, "velocity": 95}, {"time": 131040, "pitch": 72, "duration": 476, "velocity": 105}, {"time": 131280, "pitch": 48, "duration": 236, "velocity": 80}, {"time": 131520, "pitch": 52, "duration": 236, "velocity": 90}, {"time": 131520, "pitch": 62, "duration": 476, "velocity": 80}, {"time": 131520, "pitch": 67, "duration": 476, "velocity": 90}, {"time": 131520, "pitch": 71, "duration": 476, "velocity": 100}, {"time": 131760, "pitch": 40, "duration": 236, "velocity": 80}, {"time": 132000, "pitch": 47, "duration": 236, "velocity": 85}, {"time": 132000, "pitch": 62, "duration": 476, "velocity": 85}, {"time": 132000, "pitch": 67, "duration": 476, "velocity": 95}, {"time": 132000, "pitch": 71, "duration": 476, "velocity": 105}, {"time": 132240, "pitch": 52, "duration": 236, "velocity": 75}, {"time": 132480, "pitch": 50, "duration": 236, "velocity": 90}, {"time": 132480, "pitch": 60, "duration": 476, "velocity": 80}, {"time": 132480, "pitch": 65, "duration": 476, "velocity": 90}, {"time": 132480, "pitch": 69, "duration": 476, "velocity": 100}, {"time": 132720, "pitch": 38, "duration": 236, "velocity": 80}, {"time": 132960, "pitch": 45, "duration": 236, "velocity": 85}, {"time": 132960, "pitch": 60, "duration": 476, "velocity": 85}, {"time": 132960, "pitch": 65, "duration": 476, "velocity": 95}, {"time": 132960, "pitch": 69, "duration": 476, "velocity": 105}, {"time": 133200, "pitch": 48, "duration": 236, "velocity": 75}, {"time": 133440, "pitch": 43, "duration": 236, "velocity": 90}, {"time": 133440, "pitch": 60, "duration": 476, "velocity": 80}, {"time": 133440, "pitch": 65, "duration": 476, "velocity": 90}, {"time": 133440, "pitch": 69, "duration": 476, "velocity": 100}, {"time": 133680, "pitch": 47, "duration": 236, "velocity": 80}, {"time": 133920, "pitch": 50, "duration": 236, "velocity": 85}, {"time": 133920, "pitch": 62, "duration": 476, "velocity": 85}, {"time": 133920, "pitch": 67, "duration": 476, "velocity": 95}, {"time": 133920, "pitch": 71, "duration": 476, "velocity": 105}, {"time": 134160, "pitch": 55, "duration": 236, "velocity": 75}, {"time": 134400, "pitch": 52, "duration": 236, "velocity": 80}, {"time": 134400, "pitch": 62, "duration": 476, "velocity": 80}, {"time": 134400, "pitch": 67, "duration": 476, "velocity": 90}, {"time": 134400, "pitch": 71, "duration": 476, "velocity": 100}, {"time": 134640, "pitch": 40, "duration": 476, "velocity": 90}, {"time": 134880, "pitch": 62, "duration": 476, "velocity": 85}, {"time": 134880, "pitch": 67, "duration": 476, "velocity": 95}, {"time": 134880, "pitch": 71, "duration": 476, "velocity": 105}, {"time": 135120, "pitch": 43, "duration": 476, "velocity": 85}, {"time": 135360, "pitch": 62, "duration": 476, "velocity": 80}, {"time": 135360, "pitch": 67, "duration": 476, "velocity": 90}, {"time": 135360, "pitch": 71, "duration": 476, "velocity": 100}, {"time": 135600, "pitch": 47, "duration": 236, "velocity": 80}, {"time": 135840, "pitch": 40, "duration": 236, "velocity": 90}, {"time": 135840, "pitch": 62, "duration": 476, "velocity": 85}, {"time": 135840, "pitch": 67, "duration": 476, "velocity": 95}, {"time": 135840, "pitch": 71, "duration": 476, "velocity": 105}, {"time": 136080, "pitch": 52, "duration": 236, "velocity": 80}, {"time": 136320, "pitch": 45, "duration": 236, "velocity": 90}, {"time": 136320, "pitch": 67, "duration": 476, "velocity": 80}, {"time": 136320, "pitch": 71, "duration": 476, "velocity": 90}, {"time": 136320, "pitch": 74, "duration": 476, "velocity": 100}, {"time": 136560, "pitch": 52, "duration": 236, "velocity": 80}, {"time": 136800, "pitch": 55, "duration": 236, "velocity": 85}, {"time": 136800, "pitch": 67, "duration": 476, "velocity": 85}, {"time": 136800, "pitch": 71, "duration": 476, "velocity": 95}, {"time": 136800, "pitch": 74, "duration": 476, "velocity": 105}, {"time": 137040, "pitch": 62, "duration": 236, "velocity": 75}, {"time": 137280, "pitch": 61, "duration": 236, "velocity": 95}, {"time": 137280, "pitch": 64, "duration": 476, "velocity": 85}, {"time": 137280, "pitch": 69, "duration": 476, "velocity": 95}, {"time": 137280, "pitch": 73, "duration": 476, "velocity": 105}, {"time": 137520, "pitch": 57, "duration": 236, "velocity": 85}, {"time": 137760, "pitch": 52, "duration": 236, "velocity": 90}, {"time": 137760, "pitch": 64, "duration": 476, "velocity": 90}, {"time": 137760, "pitch": 69, "duration": 476, "velocity": 100}, {"time": 137760, "pitch": 73, "duration": 476, "velocity": 110}, {"time": 138000, "pitch": 49, "duration": 236, "velocity": 80}, {"time": 138240, "pitch": 38, "duration": 1436, "velocity": 95}, {"time": 138240, "pitch": 50, "duration": 716, "velocity": 84}, {"time": 138240, "pitch": 65, "duration": 1436, "velocity": 90}, {"time": 138240, "pitch": 69, "duration": 1196, "velocity": 100}, {"time": 138240, "pitch": 72, "duration": 716, "velocity": 110}, {"time": 138960, "pitch": 50, "duration": 716, "velocity": 105}, {"time": 138960, "pitch": 62, "duration": 1196, "velocity": 94}, {"time": 138960, "pitch": 72, "duration": 476, "velocity": 100}, {"time": 138960, "pitch": 77, "duration": 476, "velocity": 110}, {"time": 138960, "pitch": 81, "duration": 1196, "velocity": 120}, {"time": 139440, "pitch": 69, "duration": 236, "velocity": 95}, {"time": 139440, "pitch": 72, "duration": 236, "velocity": 105}, {"time": 139440, "pitch": 77, "duration": 716, "velocity": 115}, {"time": 139680, "pitch": 38, "duration": 476, "velocity": 95}, {"time": 139680, "pitch": 50, "duration": 476, "velocity": 84}, {"time": 139680, "pitch": 65, "duration": 236, "velocity": 90}, {"time": 139680, "pitch": 69, "duration": 236, "velocity": 100}, {"time": 139680, "pitch": 72, "duration": 476, "velocity": 110}, {"time": 139920, "pitch": 60, "duration": 236, "velocity": 85}, {"time": 139920, "pitch": 65, "duration": 236, "velocity": 95}, {"time": 139920, "pitch": 69, "duration": 236, "velocity": 105}, {"time": 140160, "pitch": 40, "duration": 1436, "velocity": 95}, {"time": 140160, "pitch": 52, "duration": 716, "velocity": 84}, {"time": 140160, "pitch": 67, "duration": 1676, "velocity": 90}, {"time": 140160, "pitch": 71, "duration": 1196, "velocity": 100}, {"time": 140160, "pitch": 74, "duration": 716, "velocity": 110}, {"time": 140880, "pitch": 52, "duration": 716, "velocity": 105}, {"time": 140880, "pitch": 64, "duration": 1196, "velocity": 94}, {"time": 140880, "pitch": 74, "duration": 476, "velocity": 100}, {"time": 140880, "pitch": 79, "duration": 476, "velocity": 110}, {"time": 140880, "pitch": 83, "duration": 1196, "velocity": 120}, {"time": 141360, "pitch": 71, "duration": 476, "velocity": 95}, {"time": 141360, "pitch": 74, "duration": 716, "velocity": 105}, {"time": 141360, "pitch": 79, "duration": 716, "velocity": 115}, {"time": 141600, "pitch": 40, "duration": 476, "velocity": 95}, {"time": 141600, "pitch": 52, "duration": 476, "velocity": 84}, {"time": 141840, "pitch": 62, "duration": 236, "velocity": 85}, {"time": 141840, "pitch": 67, "duration": 236, "velocity": 95}, {"time": 141840, "pitch": 71, "duration": 236, "velocity": 105}, {"time": 142080, "pitch": 41, "duration": 1436, "velocity": 95}, {"time": 142080, "pitch": 53, "duration": 716, "velocity": 84}, {"time": 142080, "pitch": 69, "duration": 1436, "velocity": 90}, {"time": 142080, "pitch": 72, "duration": 1196, "velocity": 100}, {"time": 142080, "pitch": 77, "duration": 716, "velocity": 110}, {"time": 142800, "pitch": 53, "duration": 716, "velocity": 105}, {"time": 142800, "pitch": 65, "duration": 956, "velocity": 94}, {"time": 142800, "pitch": 77, "duration": 476, "velocity": 100}, {"time": 142800, "pitch": 81, "duration": 476, "velocity": 110}, {"time": 142800, "pitch": 84, "duration": 1196, "velocity": 120}, {"time": 143280, "pitch": 72, "duration": 236, "velocity": 95}, {"time": 143280, "pitch": 77, "duration": 236, "velocity": 105}, {"time": 143280, "pitch": 81, "duration": 716, "velocity": 115}, {"time": 143520, "pitch": 41, "duration": 476, "velocity": 95}, {"time": 143520, "pitch": 53, "duration": 476, "velocity": 84}, {"time": 143520, "pitch": 69, "duration": 236, "velocity": 90}, {"time": 143520, "pitch": 72, "duration": 236, "velocity": 100}, {"time": 143520, "pitch": 77, "duration": 476, "velocity": 110}, {"time": 143760, "pitch": 65, "duration": 236, "velocity": 85}, {"time": 143760, "pitch": 69, "duration": 236, "velocity": 95}, {"time": 143760, "pitch": 72, "duration": 236, "velocity": 105}, {"time": 144000, "pitch": 43, "duration": 1436, "velocity": 95}, {"time": 144000, "pitch": 55, "duration": 476, "velocity": 84}, {"time": 144000, "pitch": 72, "duration": 1436, "velocity": 90}, {"time": 144000, "pitch": 74, "duration": 716, "velocity": 100}, {"time": 144000, "pitch": 79, "duration": 716, "velocity": 110}, {"time": 144480, "pitch": 55, "duration": 1196, "velocity": 105}, {"time": 144720, "pitch": 74, "duration": 716, "velocity": 100}, {"time": 144720, "pitch": 79, "duration": 716, "velocity": 110}, {"time": 144720, "pitch": 84, "duration": 1196, "velocity": 120}, {"time": 145200, "pitch": 62, "duration": 716, "velocity": 94}, {"time": 145440, "pitch": 43, "duration": 476, "velocity": 95}, {"time": 145440, "pitch": 72, "duration": 476, "velocity": 90}, {"time": 145440, "pitch": 74, "duration": 476, "velocity": 100}, {"time": 145440, "pitch": 79, "duration": 476, "velocity": 110}, {"time": 145680, "pitch": 55, "duration": 236, "velocity": 84}, {"time": 145920, "pitch": 43, "duration": 1676, "velocity": 95}, {"time": 145920, "pitch": 55, "duration": 956, "velocity": 84}, {"time": 145920, "pitch": 67, "duration": 956, "velocity": 90}, {"time": 145920, "pitch": 71, "duration": 476, "velocity": 100}, {"time": 145920, "pitch": 74, "duration": 476, "velocity": 110}, {"time": 146400, "pitch": 71, "duration": 476, "velocity": 90}, {"time": 146400, "pitch": 74, "duration": 476, "velocity": 100}, {"time": 146400, "pitch": 79, "duration": 476, "velocity": 110}, {"time": 146880, "pitch": 55, "duration": 716, "velocity": 95}, {"time": 146880, "pitch": 67, "duration": 956, "velocity": 85}, {"time": 146880, "pitch": 74, "duration": 956, "velocity": 95}, {"time": 146880, "pitch": 79, "duration": 476, "velocity": 105}, {"time": 146880, "pitch": 83, "duration": 476, "velocity": 115}, {"time": 147360, "pitch": 79, "duration": 476, "velocity": 100}, {"time": 147360, "pitch": 83, "duration": 476, "velocity": 110}, {"time": 147360, "pitch": 86, "duration": 476, "velocity": 120}, {"time": 147600, "pitch": 43, "duration": 236, "velocity": 105}, {"time": 147600, "pitch": 55, "duration": 236, "velocity": 95}, {"time": 147840, "pitch": 44, "duration": 716, "velocity": 95}, {"time": 147840, "pitch": 67, "duration": 476, "velocity": 85}, {"time": 147840, "pitch": 72, "duration": 476, "velocity": 95}, {"time": 147840, "pitch": 75, "duration": 476, "velocity": 105}, {"time": 148320, "pitch": 67, "duration": 716, "velocity": 90}, {"time": 148320, "pitch": 72, "duration": 716, "velocity": 100}, {"time": 148320, "pitch": 75, "duration": 716, "velocity": 110}, {"time": 148560, "pitch": 39, "duration": 236, "velocity": 85}, {"time": 148800, "pitch": 44, "duration": 236, "velocity": 95}, {"time": 149040, "pitch": 51, "duration": 236, "velocity": 90}, {"time": 149040, "pitch": 67, "duration": 476, "velocity": 80}, {"time": 149040, "pitch": 72, "duration": 476, "velocity": 90}, {"time": 149040, "pitch": 75, "duration": 476, "velocity": 100}, {"time": 149280, "pitch": 58, "duration": 236, "velocity": 80}, {"time": 149520, "pitch": 56, "duration": 716, "velocity": 95}, {"time": 149520, "pitch": 67, "duration": 476, "velocity": 90}, {"time": 149520, "pitch": 72, "duration": 476, "velocity": 100}, {"time": 149520, "pitch": 75, "duration": 476, "velocity": 110}, {"time": 150000, "pitch": 67, "duration": 1196, "velocity": 85}, {"time": 150000, "pitch": 72, "duration": 956, "velocity": 95}, {"time": 150000, "pitch": 75, "duration": 476, "velocity": 105}, {"time": 150240, "pitch": 51, "duration": 236, "velocity": 85}, {"time": 150480, "pitch": 46, "duration": 476, "velocity": 90}, {"time": 150480, "pitch": 75, "duration": 716, "velocity": 105}, {"time": 150480, "pitch": 84, "duration": 1196, "velocity": 120}, {"time": 150960, "pitch": 44, "duration": 476, "velocity": 85}, {"time": 150960, "pitch": 72, "duration": 716, "velocity": 95}, {"time": 150960, "pitch": 79, "duration": 716, "velocity": 110}, {"time": 151200, "pitch": 67, "duration": 476, "velocity": 85}, {"time": 151200, "pitch": 75, "duration": 476, "velocity": 100}, {"time": 151440, "pitch": 39, "duration": 236, "velocity": 80}, {"time": 151680, "pitch": 43, "duration": 716, "velocity": 95}, {"time": 151680, "pitch": 65, "duration": 476, "velocity": 85}, {"time": 151680, "pitch": 70, "duration": 476, "velocity": 95}, {"time": 151680, "pitch": 74, "duration": 476, "velocity": 105}, {"time": 152160, "pitch": 65, "duration": 716, "velocity": 90}, {"time": 152160, "pitch": 70, "duration": 716, "velocity": 100}, {"time": 152160, "pitch": 74, "duration": 716, "velocity": 110}, {"time": 152400, "pitch": 38, "duration": 236, "velocity": 85}, {"time": 152640, "pitch": 43, "duration": 236, "velocity": 95}, {"time": 152880, "pitch": 50, "duration": 236, "velocity": 90}, {"time": 152880, "pitch": 65, "duration": 476, "velocity": 80}, {"time": 152880, "pitch": 70, "duration": 476, "velocity": 90}, {"time": 152880, "pitch": 74, "duration": 476, "velocity": 100}, {"time": 153120, "pitch": 43, "duration": 236, "velocity": 85}, {"time": 153360, "pitch": 42, "duration": 956, "velocity": 95}, {"time": 153360, "pitch": 64, "duration": 476, "velocity": 90}, {"time": 153360, "pitch": 70, "duration": 476, "velocity": 100}, {"time": 153360, "pitch": 74, "duration": 476, "velocity": 110}, {"time": 153840, "pitch": 64, "duration": 236, "velocity": 80}, {"time": 153840, "pitch": 70, "duration": 236, "velocity": 90}, {"time": 153840, "pitch": 74, "duration": 236, "velocity": 100}, {"time": 154080, "pitch": 64, "duration": 476, "velocity": 90}, {"time": 154080, "pitch": 70, "duration": 476, "velocity": 100}, {"time": 154080, "pitch": 74, "duration": 476, "velocity": 110}, {"time": 154320, "pitch": 50, "duration": 236, "velocity": 85}, {"time": 154560, "pitch": 42, "duration": 716, "velocity": 95}, {"time": 154560, "pitch": 70, "duration": 476, "velocity": 85}, {"time": 154560, "pitch": 74, "duration": 476, "velocity": 95}, {"time": 154560, "pitch": 78, "duration": 476, "velocity": 105}, {"time": 155040, "pitch": 74, "duration": 476, "velocity": 90}, {"time": 155040, "pitch": 78, "duration": 476, "velocity": 100}, {"time": 155040, "pitch": 82, "duration": 476, "velocity": 110}, {"time": 155280, "pitch": 42, "duration": 236, "velocity": 85}, {"time": 155520, "pitch": 41, "duration": 716, "velocity": 95}, {"time": 155520, "pitch": 72, "duration": 476, "velocity": 85}, {"time": 155520, "pitch": 75, "duration": 476, "velocity": 95}, {"time": 155520, "pitch": 80, "duration": 476, "velocity": 105}, {"time": 156000, "pitch": 68, "duration": 236, "velocity": 90}, {"time": 156000, "pitch": 72, "duration": 236, "velocity": 100}, {"time": 156000, "pitch": 75, "duration": 236, "velocity": 110}, {"time": 156240, "pitch": 36, "duration": 236, "velocity": 85}, {"time": 156240, "pitch": 63, "duration": 476, "velocity": 90}, {"time": 156240, "pitch": 68, "duration": 476, "velocity": 100}, {"time": 156240, "pitch": 72, "duration": 476, "velocity": 110}, {"time": 156480, "pitch": 41, "duration": 236, "velocity": 95}, {"time": 156720, "pitch": 48, "duration": 236, "velocity": 90}, {"time": 156720, "pitch": 63, "duration": 476, "velocity": 80}, {"time": 156720, "pitch": 68, "duration": 476, "velocity": 90}, {"time": 156720, "pitch": 72, "duration": 476, "velocity": 100}, {"time": 156960, "pitch": 53, "duration": 236, "velocity": 85}, {"time": 157200, "pitch": 46, "duration": 956, "velocity": 95}, {"time": 157200, "pitch": 63, "duration": 476, "velocity": 90}, {"time": 157200, "pitch": 68, "duration": 476, "velocity": 100}, {"time": 157200, "pitch": 72, "duration": 476, "velocity": 110}, {"time": 157680, "pitch": 63, "duration": 236, "velocity": 80}, {"time": 157680, "pitch": 68, "duration": 236, "velocity": 90}, {"time": 157680, "pitch": 72, "duration": 236, "velocity": 100}, {"time": 157920, "pitch": 63, "duration": 476, "velocity": 90}, {"time": 157920, "pitch": 68, "duration": 476, "velocity": 100}, {"time": 157920, "pitch": 72, "duration": 476, "velocity": 110}, {"time": 158160, "pitch": 46, "duration": 236, "velocity": 85}, {"time": 158400, "pitch": 46, "duration": 476, "velocity": 95}, {"time": 158400, "pitch": 63, "duration": 476, "velocity": 85}, {"time": 158400, "pitch": 68, "duration": 476, "velocity": 90}, {"time": 158400, "pitch": 72, "duration": 476, "velocity": 100}, {"time": 158880, "pitch": 44, "duration": 476, "velocity": 85}, {"time": 158880, "pitch": 64, "duration": 476, "velocity": 90}, {"time": 158880, "pitch": 69, "duration": 476, "velocity": 100}, {"time": 158880, "pitch": 73, "duration": 476, "velocity": 110}, {"time": 159360, "pitch": 43, "duration": 716, "velocity": 95}, {"time": 159360, "pitch": 65, "duration": 476, "velocity": 85}, {"time": 159360, "pitch": 70, "duration": 476, "velocity": 95}, {"time": 159360, "pitch": 74, "duration": 476, "velocity": 105}, {"time": 159840, "pitch": 65, "duration": 716, "velocity": 90}, {"time": 159840, "pitch": 70, "duration": 716, "velocity": 100}, {"time": 159840, "pitch": 74, "duration": 716, "velocity": 110}, {"time": 160080, "pitch": 42, "duration": 236, "velocity": 85}, {"time": 160320, "pitch": 43, "duration": 236, "velocity": 95}, {"time": 160560, "pitch": 46, "duration": 236, "velocity": 90}, {"time": 160560, "pitch": 65, "duration": 476, "velocity": 80}, {"time": 160560, "pitch": 70, "duration": 476, "velocity": 90}, {"time": 160560, "pitch": 74, "duration": 476, "velocity": 100}, {"time": 160800, "pitch": 47, "duration": 236, "velocity": 85}, {"time": 161040, "pitch": 48, "duration": 956, "velocity": 95}, {"time": 161040, "pitch": 65, "duration": 476, "velocity": 90}, {"time": 161040, "pitch": 70, "duration": 476, "velocity": 100}, {"time": 161040, "pitch": 74, "duration": 476, "velocity": 110}, {"time": 161520, "pitch": 65, "duration": 236, "velocity": 80}, {"time": 161520, "pitch": 70, "duration": 236, "velocity": 90}, {"time": 161520, "pitch": 74, "duration": 236, "velocity": 100}, {"time": 161760, "pitch": 65, "duration": 476, "velocity": 90}, {"time": 161760, "pitch": 70, "duration": 476, "velocity": 100}, {"time": 161760, "pitch": 74, "duration": 476, "velocity": 110}, {"time": 162000, "pitch": 43, "duration": 236, "velocity": 85}, {"time": 162240, "pitch": 48, "duration": 476, "velocity": 95}, {"time": 162240, "pitch": 67, "duration": 476, "velocity": 90}, {"time": 162240, "pitch": 72, "duration": 476, "velocity": 100}, {"time": 162240, "pitch": 76, "duration": 476, "velocity": 110}, {"time": 162720, "pitch": 46, "duration": 476, "velocity": 95}, {"time": 162720, "pitch": 67, "duration": 476, "velocity": 90}, {"time": 162720, "pitch": 72, "duration": 476, "velocity": 100}, {"time": 162720, "pitch": 76, "duration": 476, "velocity": 110}, {"time": 163200, "pitch": 56, "duration": 716, "velocity": 95}, {"time": 163200, "pitch": 67, "duration": 476, "velocity": 85}, {"time": 163200, "pitch": 72, "duration": 476, "velocity": 95}, {"time": 163200, "pitch": 75, "duration": 476, "velocity": 105}, {"time": 163680, "pitch": 67, "duration": 716, "velocity": 90}, {"time": 163680, "pitch": 72, "duration": 716, "velocity": 100}, {"time": 163680, "pitch": 75, "duration": 716, "velocity": 110}, {"time": 163920, "pitch": 51, "duration": 236, "velocity": 85}, {"time": 164160, "pitch": 44, "duration": 476, "velocity": 95}, {"time": 164400, "pitch": 67, "duration": 476, "velocity": 80}, {"time": 164400, "pitch": 72, "duration": 476, "velocity": 90}, {"time": 164400, "pitch": 75, "duration": 476, "velocity": 100}, {"time": 164640, "pitch": 39, "duration": 236, "velocity": 85}, {"time": 164880, "pitch": 44, "duration": 956, "velocity": 95}, {"time": 164880, "pitch": 67, "duration": 476, "velocity": 90}, {"time": 164880, "pitch": 72, "duration": 476, "velocity": 100}, {"time": 164880, "pitch": 75, "duration": 476, "velocity": 110}, {"time": 165360, "pitch": 67, "duration": 236, "velocity": 80}, {"time": 165360, "pitch": 72, "duration": 236, "velocity": 90}, {"time": 165360, "pitch": 75, "duration": 236, "velocity": 100}, {"time": 165600, "pitch": 67, "duration": 476, "velocity": 85}, {"time": 165600, "pitch": 72, "duration": 476, "velocity": 95}, {"time": 165600, "pitch": 75, "duration": 476, "velocity": 105}, {"time": 165840, "pitch": 56, "duration": 236, "velocity": 85}, {"time": 166080, "pitch": 44, "duration": 716, "velocity": 95}, {"time": 166080, "pitch": 67, "duration": 476, "velocity": 90}, {"time": 166080, "pitch": 72, "duration": 476, "velocity": 100}, {"time": 166080, "pitch": 75, "duration": 476, "velocity": 110}, {"time": 166560, "pitch": 67, "duration": 476, "velocity": 80}, {"time": 166560, "pitch": 72, "duration": 476, "velocity": 90}, {"time": 166560, "pitch": 75, "duration": 476, "velocity": 100}, {"time": 166800, "pitch": 44, "duration": 236, "velocity": 85}, {"time": 167040, "pitch": 43, "duration": 716, "velocity": 95}, {"time": 167040, "pitch": 65, "duration": 476, "velocity": 85}, {"time": 167040, "pitch": 70, "duration": 476, "velocity": 95}, {"time": 167040, "pitch": 74, "duration": 476, "velocity": 105}, {"time": 167520, "pitch": 65, "duration": 716, "velocity": 90}, {"time": 167520, "pitch": 70, "duration": 716, "velocity": 100}, {"time": 167520, "pitch": 74, "duration": 716, "velocity": 110}, {"time": 167760, "pitch": 50, "duration": 236, "velocity": 85}, {"time": 168000, "pitch": 43, "duration": 476, "velocity": 95}, {"time": 168240, "pitch": 70, "duration": 476, "velocity": 80}, {"time": 168240, "pitch": 74, "duration": 476, "velocity": 90}, {"time": 168240, "pitch": 77, "duration": 476, "velocity": 100}, {"time": 168480, "pitch": 43, "duration": 236, "velocity": 85}, {"time": 168720, "pitch": 42, "duration": 956, "velocity": 95}, {"time": 168720, "pitch": 70, "duration": 476, "velocity": 90}, {"time": 168720, "pitch": 73, "duration": 476, "velocity": 100}, {"time": 168720, "pitch": 76, "duration": 476, "velocity": 110}, {"time": 169200, "pitch": 70, "duration": 236, "velocity": 80}, {"time": 169200, "pitch": 73, "duration": 236, "velocity": 90}, {"time": 169200, "pitch": 76, "duration": 236, "velocity": 100}, {"time": 169440, "pitch": 70, "duration": 476, "velocity": 90}, {"time": 169440, "pitch": 73, "duration": 476, "velocity": 100}, {"time": 169440, "pitch": 76, "duration": 476, "velocity": 110}, {"time": 169680, "pitch": 49, "duration": 236, "velocity": 85}, {"time": 169920, "pitch": 42, "duration": 716, "velocity": 95}, {"time": 169920, "pitch": 64, "duration": 476, "velocity": 85}, {"time": 169920, "pitch": 70, "duration": 476, "velocity": 95}, {"time": 169920, "pitch": 73, "duration": 476, "velocity": 105}, {"time": 170400, "pitch": 61, "duration": 476, "velocity": 90}, {"time": 170400, "pitch": 64, "duration": 476, "velocity": 100}, {"time": 170400, "pitch": 70, "duration": 476, "velocity": 110}, {"time": 170640, "pitch": 42, "duration": 236, "velocity": 85}, {"time": 170880, "pitch": 41, "duration": 716, "velocity": 95}, {"time": 170880, "pitch": 63, "duration": 476, "velocity": 85}, {"time": 170880, "pitch": 68, "duration": 476, "velocity": 95}, {"time": 170880, "pitch": 72, "duration": 476, "velocity": 105}, {"time": 171360, "pitch": 63, "duration": 476, "velocity": 90}, {"time": 171360, "pitch": 68, "duration": 476, "velocity": 100}, {"time": 171360, "pitch": 72, "duration": 476, "velocity": 110}, {"time": 171600, "pitch": 48, "duration": 236, "velocity": 85}, {"time": 171840, "pitch": 41, "duration": 236, "velocity": 95}, {"time": 171840, "pitch": 63, "duration": 716, "velocity": 90}, {"time": 171840, "pitch": 68, "duration": 716, "velocity": 100}, {"time": 171840, "pitch": 72, "duration": 236, "velocity": 110}, {"time": 172080, "pitch": 43, "duration": 236, "velocity": 90}, {"time": 172080, "pitch": 74, "duration": 236, "velocity": 115}, {"time": 172320, "pitch": 44, "duration": 236, "velocity": 85}, {"time": 172320, "pitch": 75, "duration": 236, "velocity": 120}, {"time": 172560, "pitch": 46, "duration": 956, "velocity": 95}, {"time": 172560, "pitch": 63, "duration": 476, "velocity": 90}, {"time": 172560, "pitch": 68, "duration": 476, "velocity": 100}, {"time": 172560, "pitch": 72, "duration": 476, "velocity": 110}, {"time": 173040, "pitch": 63, "duration": 236, "velocity": 80}, {"time": 173040, "pitch": 68, "duration": 236, "velocity": 90}, {"time": 173040, "pitch": 72, "duration": 236, "velocity": 100}, {"time": 173280, "pitch": 63, "duration": 476, "velocity": 90}, {"time": 173280, "pitch": 68, "duration": 476, "velocity": 100}, {"time": 173280, "pitch": 72, "duration": 476, "velocity": 110}, {"time": 173520, "pitch": 53, "duration": 236, "velocity": 85}, {"time": 173760, "pitch": 46, "duration": 716, "velocity": 95}, {"time": 173760, "pitch": 68, "duration": 476, "velocity": 85}, {"time": 173760, "pitch": 72, "duration": 476, "velocity": 95}, {"time": 173760, "pitch": 75, "duration": 476, "velocity": 105}, {"time": 174240, "pitch": 68, "duration": 476, "velocity": 90}, {"time": 174240, "pitch": 72, "duration": 476, "velocity": 100}, {"time": 174240, "pitch": 75, "duration": 476, "velocity": 110}, {"time": 174480, "pitch": 44, "duration": 236, "velocity": 85}, {"time": 174720, "pitch": 43, "duration": 716, "velocity": 95}, {"time": 174720, "pitch": 62, "duration": 476, "velocity": 90}, {"time": 174720, "pitch": 67, "duration": 476, "velocity": 100}, {"time": 174720, "pitch": 72, "duration": 476, "velocity": 110}, {"time": 175200, "pitch": 62, "duration": 716, "velocity": 90}, {"time": 175200, "pitch": 67, "duration": 716, "velocity": 100}, {"time": 175200, "pitch": 72, "duration": 716, "velocity": 110}, {"time": 175440, "pitch": 50, "duration": 236, "velocity": 85}, {"time": 175680, "pitch": 55, "duration": 476, "velocity": 95}, {"time": 175920, "pitch": 62, "duration": 476, "velocity": 90}, {"time": 175920, "pitch": 67, "duration": 476, "velocity": 100}, {"time": 175920, "pitch": 72, "duration": 476, "velocity": 110}, {"time": 176160, "pitch": 50, "duration": 236, "velocity": 85}, {"time": 176400, "pitch": 43, "duration": 2156, "velocity": 95}, {"time": 176400, "pitch": 62, "duration": 1436, "velocity": 90}, {"time": 176400, "pitch": 67, "duration": 956, "velocity": 100}, {"time": 176400, "pitch": 71, "duration": 2156, "velocity": 110}, {"time": 176880, "pitch": 50, "duration": 1676, "velocity": 90}, {"time": 177120, "pitch": 59, "duration": 1436, "velocity": 80}, {"time": 177360, "pitch": 67, "duration": 1196, "velocity": 100}, {"time": 177840, "pitch": 62, "duration": 716, "velocity": 90}, {"time": 178080, "pitch": 55, "duration": 476, "velocity": 80}, {"time": 178560, "pitch": 48, "duration": 1916, "velocity": 85}, {"time": 178560, "pitch": 67, "duration": 1916, "velocity": 80}, {"time": 178560, "pitch": 72, "duration": 1196, "velocity": 90}, {"time": 178560, "pitch": 76, "duration": 1436, "velocity": 100}, {"time": 178800, "pitch": 55, "duration": 1676, "velocity": 75}, {"time": 179040, "pitch": 60, "duration": 1436, "velocity": 80}, {"time": 179280, "pitch": 62, "duration": 1196, "velocity": 90}, {"time": 179520, "pitch": 64, "duration": 956, "velocity": 85}, {"time": 179760, "pitch": 72, "duration": 716, "velocity": 90}, {"time": 180000, "pitch": 76, "duration": 476, "velocity": 100}, {"time": 180240, "pitch": 79, "duration": 236, "velocity": 110}, {"time": 180480, "pitch": 40, "duration": 1916, "velocity": 85}, {"time": 180480, "pitch": 76, "duration": 716, "velocity": 105}, {"time": 180480, "pitch": 84, "duration": 716, "velocity": 120}, {"time": 180720, "pitch": 48, "duration": 1676, "velocity": 75}, {"time": 180960, "pitch": 55, "duration": 1436, "velocity": 80}, {"time": 181200, "pitch": 64, "duration": 1196, "velocity": 90}, {"time": 181200, "pitch": 74, "duration": 716, "velocity": 100}, {"time": 181200, "pitch": 83, "duration": 716, "velocity": 115}, {"time": 181920, "pitch": 71, "duration": 476, "velocity": 95}, {"time": 181920, "pitch": 79, "duration": 476, "velocity": 110}, {"time": 182400, "pitch": 41, "duration": 1916, "velocity": 85}, {"time": 182400, "pitch": 72, "duration": 1916, "velocity": 100}, {"time": 182400, "pitch": 81, "duration": 1916, "velocity": 115}, {"time": 182640, "pitch": 48, "duration": 1676, "velocity": 75}, {"time": 182880, "pitch": 53, "duration": 1436, "velocity": 80}, {"time": 183120, "pitch": 55, "duration": 1196, "velocity": 90}, {"time": 183360, "pitch": 57, "duration": 956, "velocity": 100}, {"time": 183600, "pitch": 60, "duration": 715, "velocity": 90}, {"time": 183840, "pitch": 65, "duration": 475, "velocity": 95}, {"time": 184080, "pitch": 67, "duration": 235, "velocity": 85}, {"time": 184320, "pitch": 43, "duration": 1435, "velocity": 85}, {"time": 184320, "pitch": 60, "duration": 715, "velocity": 90}, {"time": 184320, "pitch": 65, "duration": 715, "velocity": 100}, {"time": 184320, "pitch": 69, "duration": 475, "velocity": 110}, {"time": 184560, "pitch": 53, "duration": 955, "velocity": 75}, {"time": 184800, "pitch": 55, "duration": 715, "velocity": 80}, {"time": 184800, "pitch": 67, "duration": 235, "velocity": 100}, {"time": 185040, "pitch": 60, "duration": 475, "velocity": 90}, {"time": 185040, "pitch": 65, "duration": 475, "velocity": 110}, {"time": 185520, "pitch": 59, "duration": 715, "velocity": 90}, {"time": 185520, "pitch": 62, "duration": 715, "velocity": 100}, {"time": 185520, "pitch": 67, "duration": 715, "velocity": 110}, {"time": 185760, "pitch": 43, "duration": 475, "velocity": 85}, {"time": 186240, "pitch": 48, "duration": 1916, "velocity": 85}, {"time": 186240, "pitch": 67, "duration": 1916, "velocity": 80}, {"time": 186240, "pitch": 72, "duration": 1916, "velocity": 90}, {"time": 186240, "pitch": 76, "duration": 1196, "velocity": 100}, {"time": 186480, "pitch": 55, "duration": 1676, "velocity": 75}, {"time": 186720, "pitch": 60, "duration": 1436, "velocity": 80}, {"time": 186960, "pitch": 62, "duration": 1196, "velocity": 90}, {"time": 187200, "pitch": 64, "duration": 956, "velocity": 85}, {"time": 187440, "pitch": 76, "duration": 716, "velocity": 90}, {"time": 187680, "pitch": 77, "duration": 476, "velocity": 100}, {"time": 187920, "pitch": 79, "duration": 236, "velocity": 110}, {"time": 188160, "pitch": 40, "duration": 1916, "velocity": 85}, {"time": 188160, "pitch": 77, "duration": 716, "velocity": 105}, {"time": 188160, "pitch": 86, "duration": 716, "velocity": 120}, {"time": 188400, "pitch": 48, "duration": 1676, "velocity": 75}, {"time": 188640, "pitch": 55, "duration": 1436, "velocity": 80}, {"time": 188880, "pitch": 64, "duration": 1196, "velocity": 90}, {"time": 188880, "pitch": 76, "duration": 716, "velocity": 100}, {"time": 188880, "pitch": 84, "duration": 716, "velocity": 115}, {"time": 189600, "pitch": 74, "duration": 476, "velocity": 95}, {"time": 189600, "pitch": 83, "duration": 476, "velocity": 110}, {"time": 190080, "pitch": 41, "duration": 1916, "velocity": 85}, {"time": 190080, "pitch": 72, "duration": 1916, "velocity": 100}, {"time": 190080, "pitch": 81, "duration": 1676, "velocity": 115}, {"time": 190320, "pitch": 48, "duration": 1676, "velocity": 75}, {"time": 190560, "pitch": 53, "duration": 1436, "velocity": 80}, {"time": 190800, "pitch": 55, "duration": 1196, "velocity": 90}, {"time": 191040, "pitch": 57, "duration": 956, "velocity": 85}, {"time": 191280, "pitch": 77, "duration": 715, "velocity": 105}, {"time": 191520, "pitch": 79, "duration": 475, "velocity": 110}, {"time": 191760, "pitch": 81, "duration": 235, "velocity": 100}, {"time": 192000, "pitch": 43, "duration": 2395, "velocity": 85}, {"time": 192000, "pitch": 72, "duration": 956, "velocity": 90}, {"time": 192000, "pitch": 77, "duration": 956, "velocity": 100}, {"time": 192000, "pitch": 81, "duration": 956, "velocity": 110}, {"time": 192320, "pitch": 55, "duration": 636, "velocity": 105}, {"time": 192640, "pitch": 60, "duration": 316, "velocity": 100}, {"time": 192960, "pitch": 59, "duration": 1435, "velocity": 110}, {"time": 192960, "pitch": 74, "duration": 1435, "velocity": 90}, {"time": 192960, "pitch": 79, "duration": 1435, "velocity": 100}, {"time": 192960, "pitch": 83, "duration": 1435, "velocity": 110}, {"time": 193320, "pitch": 62, "duration": 1075, "velocity": 105}, {"time": 193800, "pitch": 67, "duration": 595, "velocity": 100}, {"time": 194400, "pitch": 59, "duration": 615, "velocity": 88}, {"time": 194400, "pitch": 61, "duration": 776, "velocity": 88}, {"time": 194400, "pitch": 64, "duration": 938, "velocity": 88}, {"time": 194430, "pitch": 33, "duration": 7166, "velocity": 67}, {"time": 194430, "pitch": 45, "duration": 7166, "velocity": 88}, {"time": 194839, "pitch": 52, "duration": 6757, "velocity": 80}, {"time": 195019, "pitch": 59, "duration": 6577, "velocity": 62}, {"time": 195180, "pitch": 61, "duration": 6416, "velocity": 79}, {"time": 195342, "pitch": 64, "duration": 6254, "velocity": 80}, {"time": 195531, "pitch": 68, "duration": 6065, "velocity": 73}, {"time": 195720, "pitch": 71, "duration": 5876, "velocity": 83}, {"time": 195960, "pitch": 75, "duration": 5636, "velocity": 83}, {"time": 196200, "pitch": 78, "duration": 5396, "velocity": 83}, {"time": 196440, "pitch": 82, "duration": 5156, "velocity": 83}, {"time": 196680, "pitch": 85, "duration": 4916, "velocity": 83}, {"time": 196920, "pitch": 89, "duration": 4676, "velocity": 83}, {"time": 197280, "pitch": 92, "duration": 4316, "velocity": 83}, {"time": 197880, "pitch": 96, "duration": 3716, "velocity": 83}], "annotations": [{"time": 960, "annotation": {"number": 0, "value": 0}, "group": "control_change"}, {"time": 970, "annotation": {"number": 32, "value": 2}, "group": "control_change"}, {"time": 990, "annotation": {"number": 7, "value": 120}, "group": "control_change"}, {"time": 1000, "annotation": {"number": 11, "value": 120}, "group": "control_change"}, {"time": 1010, "annotation": {"number": 10, "value": 64}, "group": "control_change"}, {"time": 1020, "annotation": {"number": 91, "value": 65}, "group": "control_change"}, {"time": 1030, "annotation": {"number": 93, "value": 0}, "group": "control_change"}, {"time": 1040, "annotation": {"number": 101, "value": 0}, "group": "control_change"}, {"time": 1050, "annotation": {"number": 100, "value": 0}, "group": "control_change"}, {"time": 1060, "annotation": {"number": 6, "value": 12}, "group": "control_change"}, {"time": 1070, "annotation": {"number": 101, "value": 127}, "group": "control_change"}, {"time": 1080, "annotation": {"number": 100, "value": 127}, "group": "control_change"}]}, {"program": 0, "is_drum": false, "name": "MELO", "annotations": [{"time": 960, "annotation": {"number": 0, "value": 0}, "group": "control_change"}, {"time": 970, "annotation": {"number": 32, "value": 2}, "group": "control_change"}]}, {"program": 73, "is_drum": false, "name": "MELO", "notes": [{"time": 21120, "pitch": 72, "duration": 1190, "velocity": 90}, {"time": 22320, "pitch": 71, "duration": 470, "velocity": 85}, {"time": 22800, "pitch": 72, "duration": 230, "velocity": 90}, {"time": 23040, "pitch": 79, "duration": 950, "velocity": 90}, {"time": 24240, "pitch": 71, "duration": 470, "velocity": 85}, {"time": 24720, "pitch": 72, "duration": 230, "velocity": 90}, {"time": 24960, "pitch": 79, "duration": 470, "velocity": 90}, {"time": 25440, "pitch": 77, "duration": 230, "velocity": 90}, {"time": 25680, "pitch": 77, "duration": 470, "velocity": 90}, {"time": 26160, "pitch": 76, "duration": 230, "velocity": 85}, {"time": 26400, "pitch": 77, "duration": 950, "velocity": 90}, {"time": 28080, "pitch": 74, "duration": 230, "velocity": 85}, {"time": 28320, "pitch": 76, "duration": 230, "velocity": 90}, {"time": 28560, "pitch": 77, "duration": 230, "velocity": 90}, {"time": 28800, "pitch": 76, "duration": 710, "velocity": 85}, {"time": 29760, "pitch": 76, "duration": 230, "velocity": 90}, {"time": 30000, "pitch": 75, "duration": 230, "velocity": 85}, {"time": 30240, "pitch": 76, "duration": 230, "velocity": 90}, {"time": 30480, "pitch": 79, "duration": 470, "velocity": 90}, {"time": 30960, "pitch": 76, "duration": 470, "velocity": 90}, {"time": 31440, "pitch": 74, "duration": 470, "velocity": 90}, {"time": 31920, "pitch": 72, "duration": 470, "velocity": 85}, {"time": 32400, "pitch": 76, "duration": 230, "velocity": 90}, {"time": 32640, "pitch": 76, "duration": 470, "velocity": 90}, {"time": 33120, "pitch": 74, "duration": 230, "velocity": 85}, {"time": 33360, "pitch": 76, "duration": 470, "velocity": 90}, {"time": 33840, "pitch": 77, "duration": 230, "velocity": 90}, {"time": 34080, "pitch": 74, "duration": 1430, "velocity": 85}, {"time": 36480, "pitch": 72, "duration": 1190, "velocity": 90}, {"time": 37680, "pitch": 71, "duration": 470, "velocity": 85}, {"time": 38160, "pitch": 72, "duration": 230, "velocity": 90}, {"time": 38400, "pitch": 79, "duration": 950, "velocity": 90}, {"time": 39600, "pitch": 71, "duration": 470, "velocity": 85}, {"time": 40080, "pitch": 72, "duration": 230, "velocity": 90}, {"time": 40320, "pitch": 79, "duration": 470, "velocity": 90}, {"time": 40800, "pitch": 77, "duration": 230, "velocity": 90}, {"time": 41040, "pitch": 77, "duration": 470, "velocity": 90}, {"time": 41520, "pitch": 76, "duration": 230, "velocity": 85}, {"time": 41760, "pitch": 77, "duration": 1430, "velocity": 90}, {"time": 43440, "pitch": 74, "duration": 230, "velocity": 85}, {"time": 43680, "pitch": 76, "duration": 230, "velocity": 90}, {"time": 43920, "pitch": 77, "duration": 230, "velocity": 90}, {"time": 44160, "pitch": 76, "duration": 710, "velocity": 85}, {"time": 45120, "pitch": 76, "duration": 230, "velocity": 90}, {"time": 45360, "pitch": 75, "duration": 230, "velocity": 85}, {"time": 45600, "pitch": 76, "duration": 230, "velocity": 90}, {"time": 45840, "pitch": 81, "duration": 470, "velocity": 90}, {"time": 46320, "pitch": 76, "duration": 470, "velocity": 90}, {"time": 46800, "pitch": 74, "duration": 470, "velocity": 90}, {"time": 47280, "pitch": 72, "duration": 470, "velocity": 85}, {"time": 47760, "pitch": 76, "duration": 230, "velocity": 90}, {"time": 48000, "pitch": 77, "duration": 470, "velocity": 90}, {"time": 48480, "pitch": 76, "duration": 230, "velocity": 85}, {"time": 48720, "pitch": 77, "duration": 470, "velocity": 90}, {"time": 49200, "pitch": 79, "duration": 470, "velocity": 90}, {"time": 49680, "pitch": 81, "duration": 710, "velocity": 90}, {"time": 50400, "pitch": 79, "duration": 230, "velocity": 85}, {"time": 50640, "pitch": 79, "duration": 710, "velocity": 85}, {"time": 51840, "pitch": 83, "duration": 470, "velocity": 100}, {"time": 52320, "pitch": 79, "duration": 230, "velocity": 100}, {"time": 52560, "pitch": 79, "duration": 470, "velocity": 100}, {"time": 53040, "pitch": 76, "duration": 470, "velocity": 95}, {"time": 53520, "pitch": 81, "duration": 1190, "velocity": 100}, {"time": 54960, "pitch": 76, "duration": 230, "velocity": 95}, {"time": 55200, "pitch": 77, "duration": 230, "velocity": 100}, {"time": 55440, "pitch": 79, "duration": 230, "velocity": 100}, {"time": 55680, "pitch": 79, "duration": 470, "velocity": 100}, {"time": 56160, "pitch": 77, "duration": 230, "velocity": 100}, {"time": 56400, "pitch": 76, "duration": 470, "velocity": 100}, {"time": 56880, "pitch": 74, "duration": 230, "velocity": 100}, {"time": 57120, "pitch": 72, "duration": 230, "velocity": 100}, {"time": 57360, "pitch": 76, "duration": 470, "velocity": 100}, {"time": 57840, "pitch": 74, "duration": 710, "velocity": 95}, {"time": 58800, "pitch": 76, "duration": 230, "velocity": 95}, {"time": 59040, "pitch": 79, "duration": 230, "velocity": 100}, {"time": 59280, "pitch": 81, "duration": 230, "velocity": 100}, {"time": 59520, "pitch": 83, "duration": 470, "velocity": 100}, {"time": 60000, "pitch": 79, "duration": 230, "velocity": 100}, {"time": 60240, "pitch": 79, "duration": 470, "velocity": 100}, {"time": 60720, "pitch": 76, "duration": 230, "velocity": 95}, {"time": 60960, "pitch": 81, "duration": 1430, "velocity": 100}, {"time": 62640, "pitch": 76, "duration": 230, "velocity": 95}, {"time": 62880, "pitch": 77, "duration": 230, "velocity": 100}, {"time": 63120, "pitch": 79, "duration": 230, "velocity": 100}, {"time": 63360, "pitch": 79, "duration": 470, "velocity": 100}, {"time": 63840, "pitch": 77, "duration": 230, "velocity": 95}, {"time": 64080, "pitch": 77, "duration": 230, "velocity": 95}, {"time": 64560, "pitch": 77, "duration": 230, "velocity": 100}, {"time": 64800, "pitch": 79, "duration": 230, "velocity": 100}, {"time": 65040, "pitch": 81, "duration": 230, "velocity": 100}, {"time": 65280, "pitch": 81, "duration": 470, "velocity": 100}, {"time": 65760, "pitch": 79, "duration": 230, "velocity": 100}, {"time": 66000, "pitch": 79, "duration": 230, "velocity": 100}, {"time": 66480, "pitch": 79, "duration": 230, "velocity": 100}, {"time": 66720, "pitch": 81, "duration": 230, "velocity": 100}, {"time": 66960, "pitch": 83, "duration": 230, "velocity": 100}, {"time": 67200, "pitch": 84, "duration": 470, "velocity": 105}, {"time": 67680, "pitch": 83, "duration": 230, "velocity": 100}, {"time": 67920, "pitch": 81, "duration": 470, "velocity": 100}, {"time": 68400, "pitch": 84, "duration": 470, "velocity": 105}, {"time": 68880, "pitch": 79, "duration": 1910, "velocity": 100}, {"time": 72240, "pitch": 79, "duration": 230, "velocity": 100}, {"time": 72480, "pitch": 80, "duration": 230, "velocity": 105}, {"time": 72720, "pitch": 82, "duration": 230, "velocity": 105}, {"time": 72960, "pitch": 84, "duration": 470, "velocity": 110}, {"time": 73440, "pitch": 84, "duration": 230, "velocity": 105}, {"time": 73680, "pitch": 84, "duration": 470, "velocity": 105}, {"time": 74160, "pitch": 82, "duration": 470, "velocity": 100}, {"time": 74640, "pitch": 82, "duration": 1190, "velocity": 100}, {"time": 76080, "pitch": 79, "duration": 230, "velocity": 100}, {"time": 76320, "pitch": 80, "duration": 230, "velocity": 105}, {"time": 76560, "pitch": 82, "duration": 230, "velocity": 105}, {"time": 76800, "pitch": 84, "duration": 470, "velocity": 110}, {"time": 77280, "pitch": 84, "duration": 230, "velocity": 105}, {"time": 77520, "pitch": 84, "duration": 470, "velocity": 105}, {"time": 78000, "pitch": 82, "duration": 470, "velocity": 100}, {"time": 78480, "pitch": 82, "duration": 1190, "velocity": 100}, {"time": 79920, "pitch": 79, "duration": 230, "velocity": 95}, {"time": 80400, "pitch": 82, "duration": 230, "velocity": 100}, {"time": 81120, "pitch": 82, "duration": 230, "velocity": 100}, {"time": 81360, "pitch": 82, "duration": 470, "velocity": 100}, {"time": 82320, "pitch": 80, "duration": 710, "velocity": 95}, {"time": 83280, "pitch": 77, "duration": 230, "velocity": 100}, {"time": 83760, "pitch": 79, "duration": 230, "velocity": 100}, {"time": 84000, "pitch": 80, "duration": 230, "velocity": 100}, {"time": 84240, "pitch": 79, "duration": 110, "velocity": 100}, {"time": 84360, "pitch": 80, "duration": 110, "velocity": 100}, {"time": 84480, "pitch": 79, "duration": 1910, "velocity": 95}, {"time": 87600, "pitch": 76, "duration": 230, "velocity": 95}, {"time": 88080, "pitch": 72, "duration": 2150, "velocity": 90}, {"time": 96000, "pitch": 72, "duration": 1190, "velocity": 90}, {"time": 97200, "pitch": 71, "duration": 470, "velocity": 85}, {"time": 97680, "pitch": 72, "duration": 230, "velocity": 90}, {"time": 97920, "pitch": 79, "duration": 950, "velocity": 90}, {"time": 100320, "pitch": 77, "duration": 230, "velocity": 90}, {"time": 104640, "pitch": 76, "duration": 230, "velocity": 90}, {"time": 104880, "pitch": 75, "duration": 230, "velocity": 85}, {"time": 105120, "pitch": 76, "duration": 230, "velocity": 90}, {"time": 105840, "pitch": 76, "duration": 470, "velocity": 90}, {"time": 106320, "pitch": 74, "duration": 470, "velocity": 90}, {"time": 106800, "pitch": 72, "duration": 470, "velocity": 85}, {"time": 107280, "pitch": 76, "duration": 230, "velocity": 90}, {"time": 107520, "pitch": 76, "duration": 470, "velocity": 90}, {"time": 108000, "pitch": 74, "duration": 230, "velocity": 85}, {"time": 108240, "pitch": 76, "duration": 470, "velocity": 90}, {"time": 108720, "pitch": 77, "duration": 230, "velocity": 90}, {"time": 108960, "pitch": 74, "duration": 1430, "velocity": 85}, {"time": 111360, "pitch": 72, "duration": 470, "velocity": 90}, {"time": 112080, "pitch": 72, "duration": 470, "velocity": 90}, {"time": 112560, "pitch": 71, "duration": 470, "velocity": 85}, {"time": 113040, "pitch": 72, "duration": 230, "velocity": 90}, {"time": 113280, "pitch": 79, "duration": 950, "velocity": 90}, {"time": 114480, "pitch": 71, "duration": 470, "velocity": 85}, {"time": 114960, "pitch": 72, "duration": 230, "velocity": 90}, {"time": 115200, "pitch": 79, "duration": 470, "velocity": 90}, {"time": 115680, "pitch": 77, "duration": 230, "velocity": 90}, {"time": 115920, "pitch": 77, "duration": 470, "velocity": 90}, {"time": 116400, "pitch": 76, "duration": 230, "velocity": 85}, {"time": 116640, "pitch": 77, "duration": 1430, "velocity": 90}, {"time": 118320, "pitch": 74, "duration": 230, "velocity": 85}, {"time": 118560, "pitch": 76, "duration": 230, "velocity": 90}, {"time": 118800, "pitch": 77, "duration": 230, "velocity": 90}, {"time": 119040, "pitch": 76, "duration": 710, "velocity": 85}, {"time": 120000, "pitch": 76, "duration": 230, "velocity": 90}, {"time": 120240, "pitch": 75, "duration": 230, "velocity": 85}, {"time": 120480, "pitch": 76, "duration": 230, "velocity": 90}, {"time": 120720, "pitch": 81, "duration": 470, "velocity": 90}, {"time": 121200, "pitch": 76, "duration": 470, "velocity": 90}, {"time": 121680, "pitch": 74, "duration": 470, "velocity": 90}, {"time": 122160, "pitch": 72, "duration": 470, "velocity": 85}, {"time": 122640, "pitch": 76, "duration": 230, "velocity": 90}, {"time": 122880, "pitch": 77, "duration": 470, "velocity": 90}, {"time": 123360, "pitch": 76, "duration": 230, "velocity": 85}, {"time": 123600, "pitch": 77, "duration": 470, "velocity": 90}, {"time": 124080, "pitch": 79, "duration": 470, "velocity": 90}, {"time": 124560, "pitch": 81, "duration": 710, "velocity": 90}, {"time": 125280, "pitch": 79, "duration": 230, "velocity": 85}, {"time": 125520, "pitch": 79, "duration": 710, "velocity": 85}, {"time": 126720, "pitch": 83, "duration": 470, "velocity": 100}, {"time": 127200, "pitch": 79, "duration": 230, "velocity": 100}, {"time": 127440, "pitch": 79, "duration": 470, "velocity": 100}, {"time": 127920, "pitch": 76, "duration": 470, "velocity": 95}, {"time": 128400, "pitch": 81, "duration": 1190, "velocity": 100}, {"time": 129840, "pitch": 76, "duration": 230, "velocity": 95}, {"time": 130080, "pitch": 77, "duration": 230, "velocity": 100}, {"time": 130320, "pitch": 79, "duration": 230, "velocity": 100}, {"time": 130560, "pitch": 79, "duration": 470, "velocity": 100}, {"time": 131040, "pitch": 77, "duration": 230, "velocity": 100}, {"time": 131280, "pitch": 76, "duration": 470, "velocity": 100}, {"time": 131760, "pitch": 74, "duration": 230, "velocity": 100}, {"time": 132000, "pitch": 72, "duration": 230, "velocity": 100}, {"time": 132240, "pitch": 76, "duration": 470, "velocity": 100}, {"time": 132720, "pitch": 74, "duration": 710, "velocity": 95}, {"time": 133680, "pitch": 76, "duration": 230, "velocity": 95}, {"time": 133920, "pitch": 79, "duration": 230, "velocity": 100}, {"time": 134160, "pitch": 81, "duration": 230, "velocity": 100}, {"time": 134400, "pitch": 83, "duration": 470, "velocity": 100}, {"time": 134880, "pitch": 79, "duration": 230, "velocity": 100}, {"time": 135120, "pitch": 79, "duration": 470, "velocity": 100}, {"time": 135600, "pitch": 76, "duration": 230, "velocity": 95}, {"time": 135840, "pitch": 81, "duration": 1430, "velocity": 100}, {"time": 137520, "pitch": 76, "duration": 230, "velocity": 95}, {"time": 137760, "pitch": 77, "duration": 230, "velocity": 100}, {"time": 138000, "pitch": 79, "duration": 230, "velocity": 100}, {"time": 138240, "pitch": 79, "duration": 470, "velocity": 100}, {"time": 138720, "pitch": 77, "duration": 230, "velocity": 95}, {"time": 138960, "pitch": 77, "duration": 230, "velocity": 95}, {"time": 139440, "pitch": 77, "duration": 230, "velocity": 100}, {"time": 139680, "pitch": 79, "duration": 230, "velocity": 100}, {"time": 139920, "pitch": 81, "duration": 230, "velocity": 100}, {"time": 140160, "pitch": 81, "duration": 470, "velocity": 100}, {"time": 140640, "pitch": 79, "duration": 230, "velocity": 100}, {"time": 140880, "pitch": 79, "duration": 230, "velocity": 100}, {"time": 141360, "pitch": 79, "duration": 230, "velocity": 100}, {"time": 141600, "pitch": 81, "duration": 230, "velocity": 100}, {"time": 141840, "pitch": 83, "duration": 230, "velocity": 100}, {"time": 142080, "pitch": 84, "duration": 470, "velocity": 105}, {"time": 142560, "pitch": 83, "duration": 230, "velocity": 100}, {"time": 142800, "pitch": 81, "duration": 470, "velocity": 100}, {"time": 143280, "pitch": 84, "duration": 470, "velocity": 105}, {"time": 143760, "pitch": 79, "duration": 1910, "velocity": 100}, {"time": 147120, "pitch": 79, "duration": 230, "velocity": 100}, {"time": 147360, "pitch": 80, "duration": 230, "velocity": 105}, {"time": 147600, "pitch": 82, "duration": 230, "velocity": 105}, {"time": 147840, "pitch": 84, "duration": 470, "velocity": 110}, {"time": 148320, "pitch": 84, "duration": 230, "velocity": 105}, {"time": 148560, "pitch": 84, "duration": 470, "velocity": 105}, {"time": 149040, "pitch": 82, "duration": 470, "velocity": 100}, {"time": 149520, "pitch": 82, "duration": 1190, "velocity": 100}, {"time": 150960, "pitch": 79, "duration": 230, "velocity": 100}, {"time": 151200, "pitch": 80, "duration": 230, "velocity": 105}, {"time": 151440, "pitch": 82, "duration": 230, "velocity": 105}, {"time": 151680, "pitch": 84, "duration": 470, "velocity": 110}, {"time": 152160, "pitch": 84, "duration": 230, "velocity": 105}, {"time": 152400, "pitch": 84, "duration": 470, "velocity": 105}, {"time": 152880, "pitch": 82, "duration": 470, "velocity": 100}, {"time": 153360, "pitch": 82, "duration": 1190, "velocity": 100}, {"time": 154800, "pitch": 79, "duration": 230, "velocity": 95}, {"time": 155040, "pitch": 80, "duration": 230, "velocity": 100}, {"time": 155280, "pitch": 82, "duration": 230, "velocity": 100}, {"time": 155520, "pitch": 82, "duration": 470, "velocity": 100}, {"time": 156000, "pitch": 82, "duration": 230, "velocity": 100}, {"time": 156240, "pitch": 82, "duration": 470, "velocity": 100}, {"time": 156720, "pitch": 80, "duration": 470, "velocity": 95}, {"time": 157200, "pitch": 80, "duration": 710, "velocity": 95}, {"time": 158160, "pitch": 77, "duration": 230, "velocity": 100}, {"time": 158400, "pitch": 77, "duration": 230, "velocity": 100}, {"time": 158640, "pitch": 79, "duration": 230, "velocity": 100}, {"time": 158880, "pitch": 80, "duration": 230, "velocity": 100}, {"time": 159120, "pitch": 79, "duration": 110, "velocity": 100}, {"time": 159240, "pitch": 80, "duration": 110, "velocity": 100}, {"time": 159360, "pitch": 79, "duration": 1910, "velocity": 95}, {"time": 162480, "pitch": 79, "duration": 230, "velocity": 100}, {"time": 162720, "pitch": 80, "duration": 230, "velocity": 105}, {"time": 162960, "pitch": 82, "duration": 230, "velocity": 105}, {"time": 163200, "pitch": 84, "duration": 470, "velocity": 110}, {"time": 163680, "pitch": 84, "duration": 230, "velocity": 105}, {"time": 163920, "pitch": 84, "duration": 470, "velocity": 105}, {"time": 164400, "pitch": 82, "duration": 470, "velocity": 100}, {"time": 164880, "pitch": 82, "duration": 1190, "velocity": 100}, {"time": 166320, "pitch": 79, "duration": 230, "velocity": 100}, {"time": 166560, "pitch": 80, "duration": 230, "velocity": 105}, {"time": 166800, "pitch": 82, "duration": 230, "velocity": 105}, {"time": 167040, "pitch": 84, "duration": 470, "velocity": 110}, {"time": 167520, "pitch": 84, "duration": 230, "velocity": 105}, {"time": 167760, "pitch": 84, "duration": 470, "velocity": 105}, {"time": 168240, "pitch": 82, "duration": 470, "velocity": 100}, {"time": 168720, "pitch": 82, "duration": 1190, "velocity": 100}, {"time": 170160, "pitch": 79, "duration": 230, "velocity": 95}, {"time": 170400, "pitch": 80, "duration": 230, "velocity": 100}, {"time": 170640, "pitch": 82, "duration": 230, "velocity": 100}, {"time": 170880, "pitch": 82, "duration": 470, "velocity": 100}, {"time": 171360, "pitch": 82, "duration": 230, "velocity": 100}, {"time": 171600, "pitch": 82, "duration": 470, "velocity": 100}, {"time": 172080, "pitch": 80, "duration": 470, "velocity": 95}, {"time": 172560, "pitch": 80, "duration": 950, "velocity": 95}, {"time": 173520, "pitch": 77, "duration": 470, "velocity": 100}, {"time": 174000, "pitch": 79, "duration": 230, "velocity": 100}, {"time": 174240, "pitch": 80, "duration": 230, "velocity": 100}, {"time": 174480, "pitch": 79, "duration": 110, "velocity": 100}, {"time": 174600, "pitch": 80, "duration": 110, "velocity": 100}, {"time": 174720, "pitch": 79, "duration": 1910, "velocity": 95}, {"time": 177360, "pitch": 79, "duration": 230, "velocity": 100}, {"time": 177600, "pitch": 77, "duration": 230, "velocity": 95}, {"time": 177840, "pitch": 76, "duration": 230, "velocity": 95}, {"time": 178080, "pitch": 74, "duration": 230, "velocity": 90}, {"time": 178320, "pitch": 72, "duration": 2150, "velocity": 90}], "annotations": [{"time": 990, "annotation": {"number": 7, "value": 90}, "group": "control_change"}, {"time": 1000, "annotation": {"number": 11, "value": 120}, "group": "control_change"}, {"time": 1010, "annotation": {"number": 10, "value": 64}, "group": "control_change"}, {"time": 1020, "annotation": {"number": 91, "value": 50}, "group": "control_change"}, {"time": 1030, "annotation": {"number": 93, "value": 0}, "group": "control_change"}, {"time": 1040, "annotation": {"number": 101, "value": 0}, "group": "control_change"}, {"time": 1050, "annotation": {"number": 100, "value": 0}, "group": "control_change"}, {"time": 1060, "annotation": {"number": 6, "value": 12}, "group": "control_change"}, {"time": 1070, "annotation": {"number": 101, "value": 127}, "group": "control_change"}, {"time": 1080, "annotation": {"number": 100, "value": 127}, "group": "control_change"}, {"time": 88320, "annotation": {"number": 11, "value": 120}, "group": "control_change"}, {"time": 88339, "annotation": {"number": 11, "value": 119}, "group": "control_change"}, {"time": 88526, "annotation": {"number": 11, "value": 118}, "group": "control_change"}, {"time": 88601, "annotation": {"number": 11, "value": 117}, "group": "control_change"}, {"time": 88657, "annotation": {"number": 11, "value": 116}, "group": "control_change"}, {"time": 88750, "annotation": {"number": 11, "value": 114}, "group": "control_change"}, {"time": 88844, "annotation": {"number": 11, "value": 112}, "group": "control_change"}, {"time": 88900, "annotation": {"number": 11, "value": 110}, "group": "control_change"}, {"time": 88993, "annotation": {"number": 11, "value": 107}, "group": "control_change"}, {"time": 89012, "annotation": {"number": 11, "value": 106}, "group": "control_change"}, {"time": 89050, "annotation": {"number": 11, "value": 105}, "group": "control_change"}, {"time": 89068, "annotation": {"number": 11, "value": 104}, "group": "control_change"}, {"time": 89106, "annotation": {"number": 11, "value": 103}, "group": "control_change"}, {"time": 89124, "annotation": {"number": 11, "value": 102}, "group": "control_change"}, {"time": 89143, "annotation": {"number": 11, "value": 101}, "group": "control_change"}, {"time": 89162, "annotation": {"number": 11, "value": 100}, "group": "control_change"}, {"time": 89181, "annotation": {"number": 11, "value": 99}, "group": "control_change"}, {"time": 89218, "annotation": {"number": 11, "value": 98}, "group": "control_change"}, {"time": 89237, "annotation": {"number": 11, "value": 97}, "group": "control_change"}, {"time": 89255, "annotation": {"number": 11, "value": 96}, "group": "control_change"}, {"time": 89274, "annotation": {"number": 11, "value": 95}, "group": "control_change"}, {"time": 89293, "annotation": {"number": 11, "value": 94}, "group": "control_change"}, {"time": 89312, "annotation": {"number": 11, "value": 93}, "group": "control_change"}, {"time": 89330, "annotation": {"number": 11, "value": 92}, "group": "control_change"}, {"time": 89349, "annotation": {"number": 11, "value": 91}, "group": "control_change"}, {"time": 89368, "annotation": {"number": 11, "value": 90}, "group": "control_change"}, {"time": 89386, "annotation": {"number": 11, "value": 89}, "group": "control_change"}, {"time": 89424, "annotation": {"number": 11, "value": 86}, "group": "control_change"}, {"time": 89442, "annotation": {"number": 11, "value": 85}, "group": "control_change"}, {"time": 89480, "annotation": {"number": 11, "value": 83}, "group": "control_change"}, {"time": 89499, "annotation": {"number": 11, "value": 82}, "group": "control_change"}, {"time": 89517, "annotation": {"number": 11, "value": 81}, "group": "control_change"}, {"time": 89536, "annotation": {"number": 11, "value": 79}, "group": "control_change"}, {"time": 89555, "annotation": {"number": 11, "value": 78}, "group": "control_change"}, {"time": 89573, "annotation": {"number": 11, "value": 77}, "group": "control_change"}, {"time": 89592, "annotation": {"number": 11, "value": 76}, "group": "control_change"}, {"time": 89611, "annotation": {"number": 11, "value": 74}, "group": "control_change"}, {"time": 89630, "annotation": {"number": 11, "value": 73}, "group": "control_change"}, {"time": 89648, "annotation": {"number": 11, "value": 72}, "group": "control_change"}, {"time": 89667, "annotation": {"number": 11, "value": 70}, "group": "control_change"}, {"time": 89686, "annotation": {"number": 11, "value": 69}, "group": "control_change"}, {"time": 89704, "annotation": {"number": 11, "value": 68}, "group": "control_change"}, {"time": 89723, "annotation": {"number": 11, "value": 66}, "group": "control_change"}, {"time": 89742, "annotation": {"number": 11, "value": 65}, "group": "control_change"}, {"time": 89760, "annotation": {"number": 11, "value": 63}, "group": "control_change"}, {"time": 89779, "annotation": {"number": 11, "value": 62}, "group": "control_change"}, {"time": 89798, "annotation": {"number": 11, "value": 60}, "group": "control_change"}, {"time": 89817, "annotation": {"number": 11, "value": 59}, "group": "control_change"}, {"time": 89835, "annotation": {"number": 11, "value": 57}, "group": "control_change"}, {"time": 89910, "annotation": {"number": 11, "value": 51}, "group": "control_change"}, {"time": 89929, "annotation": {"number": 11, "value": 49}, "group": "control_change"}, {"time": 90022, "annotation": {"number": 11, "value": 41}, "group": "control_change"}, {"time": 90041, "annotation": {"number": 11, "value": 39}, "group": "control_change"}, {"time": 90060, "annotation": {"number": 11, "value": 37}, "group": "control_change"}, {"time": 90079, "annotation": {"number": 11, "value": 36}, "group": "control_change"}, {"time": 90097, "annotation": {"number": 11, "value": 34}, "group": "control_change"}, {"time": 90116, "annotation": {"number": 11, "value": 32}, "group": "control_change"}, {"time": 90135, "annotation": {"number": 11, "value": 30}, "group": "control_change"}, {"time": 90153, "annotation": {"number": 11, "value": 28}, "group": "control_change"}, {"time": 90172, "annotation": {"number": 11, "value": 26}, "group": "control_change"}, {"time": 90191, "annotation": {"number": 11, "value": 25}, "group": "control_change"}, {"time": 90209, "annotation": {"number": 11, "value": 23}, "group": "control_change"}, {"time": 90228, "annotation": {"number": 11, "value": 21}, "group": "control_change"}, {"time": 90240, "annotation": {"number": 11, "value": 20}, "group": "control_change"}, {"time": 96000, "annotation": {"number": 11, "value": 120}, "group": "control_change"}, {"time": 178560, "annotation": {"number": 11, "value": 120}, "group": "control_change"}, {"time": 178579, "annotation": {"number": 11, "value": 119}, "group": "control_change"}, {"time": 178766, "annotation": {"number": 11, "value": 118}, "group": "control_change"}, {"time": 178841, "annotation": {"number": 11, "value": 117}, "group": "control_change"}, {"time": 178897, "annotation": {"number": 11, "value": 116}, "group": "control_change"}, {"time": 178953, "annotation": {"number": 11, "value": 115}, "group": "control_change"}, {"time": 178990, "annotation": {"number": 11, "value": 114}, "group": "control_change"}, {"time": 179046, "annotation": {"number": 11, "value": 113}, "group": "control_change"}, {"time": 179084, "annotation": {"number": 11, "value": 112}, "group": "control_change"}, {"time": 179103, "annotation": {"number": 11, "value": 111}, "group": "control_change"}, {"time": 179140, "annotation": {"number": 11, "value": 110}, "group": "control_change"}, {"time": 179177, "annotation": {"number": 11, "value": 109}, "group": "control_change"}, {"time": 179215, "annotation": {"number": 11, "value": 108}, "group": "control_change"}, {"time": 179233, "annotation": {"number": 11, "value": 107}, "group": "control_change"}, {"time": 179252, "annotation": {"number": 11, "value": 106}, "group": "control_change"}, {"time": 179290, "annotation": {"number": 11, "value": 105}, "group": "control_change"}, {"time": 179308, "annotation": {"number": 11, "value": 104}, "group": "control_change"}, {"time": 179346, "annotation": {"number": 11, "value": 103}, "group": "control_change"}, {"time": 179364, "annotation": {"number": 11, "value": 102}, "group": "control_change"}, {"time": 179383, "annotation": {"number": 11, "value": 101}, "group": "control_change"}, {"time": 179402, "annotation": {"number": 11, "value": 100}, "group": "control_change"}, {"time": 179421, "annotation": {"number": 11, "value": 99}, "group": "control_change"}, {"time": 179458, "annotation": {"number": 11, "value": 98}, "group": "control_change"}, {"time": 179477, "annotation": {"number": 11, "value": 97}, "group": "control_change"}, {"time": 179495, "annotation": {"number": 11, "value": 96}, "group": "control_change"}, {"time": 179514, "annotation": {"number": 11, "value": 95}, "group": "control_change"}, {"time": 179533, "annotation": {"number": 11, "value": 94}, "group": "control_change"}, {"time": 179552, "annotation": {"number": 11, "value": 93}, "group": "control_change"}, {"time": 179570, "annotation": {"number": 11, "value": 92}, "group": "control_change"}, {"time": 179589, "annotation": {"number": 11, "value": 91}, "group": "control_change"}, {"time": 179608, "annotation": {"number": 11, "value": 90}, "group": "control_change"}, {"time": 179626, "annotation": {"number": 11, "value": 89}, "group": "control_change"}, {"time": 179645, "annotation": {"number": 11, "value": 88}, "group": "control_change"}, {"time": 179664, "annotation": {"number": 11, "value": 86}, "group": "control_change"}, {"time": 179682, "annotation": {"number": 11, "value": 85}, "group": "control_change"}, {"time": 179701, "annotation": {"number": 11, "value": 84}, "group": "control_change"}, {"time": 179720, "annotation": {"number": 11, "value": 83}, "group": "control_change"}, {"time": 179739, "annotation": {"number": 11, "value": 82}, "group": "control_change"}, {"time": 179757, "annotation": {"number": 11, "value": 81}, "group": "control_change"}, {"time": 179776, "annotation": {"number": 11, "value": 79}, "group": "control_change"}, {"time": 179795, "annotation": {"number": 11, "value": 78}, "group": "control_change"}, {"time": 179813, "annotation": {"number": 11, "value": 77}, "group": "control_change"}, {"time": 179832, "annotation": {"number": 11, "value": 76}, "group": "control_change"}, {"time": 179851, "annotation": {"number": 11, "value": 74}, "group": "control_change"}, {"time": 179870, "annotation": {"number": 11, "value": 73}, "group": "control_change"}, {"time": 179888, "annotation": {"number": 11, "value": 72}, "group": "control_change"}, {"time": 179907, "annotation": {"number": 11, "value": 70}, "group": "control_change"}, {"time": 179926, "annotation": {"number": 11, "value": 69}, "group": "control_change"}, {"time": 179944, "annotation": {"number": 11, "value": 68}, "group": "control_change"}, {"time": 179963, "annotation": {"number": 11, "value": 66}, "group": "control_change"}, {"time": 179982, "annotation": {"number": 11, "value": 65}, "group": "control_change"}, {"time": 180000, "annotation": {"number": 11, "value": 63}, "group": "control_change"}, {"time": 180019, "annotation": {"number": 11, "value": 62}, "group": "control_change"}, {"time": 180038, "annotation": {"number": 11, "value": 60}, "group": "control_change"}, {"time": 180057, "annotation": {"number": 11, "value": 59}, "group": "control_change"}, {"time": 180075, "annotation": {"number": 11, "value": 57}, "group": "control_change"}, {"time": 180094, "annotation": {"number": 11, "value": 56}, "group": "control_change"}, {"time": 180113, "annotation": {"number": 11, "value": 54}, "group": "control_change"}, {"time": 180131, "annotation": {"number": 11, "value": 53}, "group": "control_change"}, {"time": 180150, "annotation": {"number": 11, "value": 51}, "group": "control_change"}, {"time": 180169, "annotation": {"number": 11, "value": 49}, "group": "control_change"}, {"time": 180188, "annotation": {"number": 11, "value": 48}, "group": "control_change"}, {"time": 180206, "annotation": {"number": 11, "value": 46}, "group": "control_change"}, {"time": 180225, "annotation": {"number": 11, "value": 44}, "group": "control_change"}, {"time": 180244, "annotation": {"number": 11, "value": 43}, "group": "control_change"}, {"time": 180262, "annotation": {"number": 11, "value": 41}, "group": "control_change"}, {"time": 180281, "annotation": {"number": 11, "value": 39}, "group": "control_change"}, {"time": 180300, "annotation": {"number": 11, "value": 37}, "group": "control_change"}, {"time": 180319, "annotation": {"number": 11, "value": 36}, "group": "control_change"}, {"time": 180337, "annotation": {"number": 11, "value": 34}, "group": "control_change"}, {"time": 180356, "annotation": {"number": 11, "value": 32}, "group": "control_change"}, {"time": 180375, "annotation": {"number": 11, "value": 30}, "group": "control_change"}, {"time": 180393, "annotation": {"number": 11, "value": 28}, "group": "control_change"}, {"time": 180412, "annotation": {"number": 11, "value": 26}, "group": "control_change"}, {"time": 180431, "annotation": {"number": 11, "value": 25}, "group": "control_change"}, {"time": 180449, "annotation": {"number": 11, "value": 23}, "group": "control_change"}, {"time": 180468, "annotation": {"number": 11, "value": 21}, "group": "control_change"}, {"time": 180480, "annotation": {"number": 11, "value": 20}, "group": "control_change"}]}]}