{"metadata": {"schema_version": "0.1", "title": "RWC-MDB-P-2001 No. 42: Fly to the moon / Kousuke Morimoto", "copyright": "RWC Music Database. Copyright (C) 2001 Real World Computing Partnership (contact: Masataka GOTO <m.goto@aist.go.jp>)", "source_filename": "RM-P042.SMF_SYNC.MID", "source_format": "midi"}, "resolution": 480, "tempos": [{"time": 0, "qpm": 56.074766355140184}, {"time": 480, "qpm": 125.0}], "key_signatures": [{"time": 0, "root": 0, "mode": "major"}], "time_signatures": [{"time": 0, "numerator": 1, "denominator": 4}, {"time": 480, "numerator": 4, "denominator": 4}], "tracks": [{"program": 0, "is_drum": false, "name": "PIANO", "notes": [{"time": 15840, "pitch": 43, "duration": 200, "velocity": 84}, {"time": 15840, "pitch": 55, "duration": 200, "velocity": 99}, {"time": 15840, "pitch": 65, "duration": 200, "velocity": 117}, {"time": 15840, "pitch": 69, "duration": 200, "velocity": 120}, {"time": 15840, "pitch": 72, "duration": 200, "velocity": 123}, {"time": 15840, "pitch": 76, "duration": 200, "velocity": 121}, {"time": 16080, "pitch": 43, "duration": 100, "velocity": 84}, {"time": 16080, "pitch": 55, "duration": 100, "velocity": 99}, {"time": 16080, "pitch": 65, "duration": 100, "velocity": 117}, {"time": 16080, "pitch": 69, "duration": 100, "velocity": 120}, {"time": 16080, "pitch": 72, "duration": 100, "velocity": 123}, {"time": 16080, "pitch": 76, "duration": 100, "velocity": 121}, {"time": 16800, "pitch": 43, "duration": 170, "velocity": 88}, {"time": 16800, "pitch": 55, "duration": 170, "velocity": 103}, {"time": 16800, "pitch": 65, "duration": 170, "velocity": 121}, {"time": 16800, "pitch": 69, "duration": 170, "velocity": 124}, {"time": 16800, "pitch": 72, "duration": 170, "velocity": 127}, {"time": 16800, "pitch": 76, "duration": 170, "velocity": 125}, {"time": 17040, "pitch": 43, "duration": 120, "velocity": 67}, {"time": 17040, "pitch": 55, "duration": 120, "velocity": 82}, {"time": 17040, "pitch": 65, "duration": 120, "velocity": 100}, {"time": 17040, "pitch": 69, "duration": 120, "velocity": 103}, {"time": 17040, "pitch": 72, "duration": 120, "velocity": 106}, {"time": 17040, "pitch": 76, "duration": 120, "velocity": 104}, {"time": 17520, "pitch": 43, "duration": 80, "velocity": 76}, {"time": 17520, "pitch": 55, "duration": 80, "velocity": 91}, {"time": 17520, "pitch": 65, "duration": 80, "velocity": 109}, {"time": 17520, "pitch": 69, "duration": 80, "velocity": 112}, {"time": 17520, "pitch": 72, "duration": 80, "velocity": 115}, {"time": 17520, "pitch": 76, "duration": 80, "velocity": 113}, {"time": 18240, "pitch": 43, "duration": 1420, "velocity": 81}, {"time": 18240, "pitch": 55, "duration": 1420, "velocity": 96}, {"time": 18240, "pitch": 65, "duration": 1420, "velocity": 114}, {"time": 18240, "pitch": 69, "duration": 1420, "velocity": 117}, {"time": 18240, "pitch": 72, "duration": 1420, "velocity": 120}, {"time": 18240, "pitch": 76, "duration": 1420, "velocity": 118}, {"time": 19680, "pitch": 48, "duration": 1920, "velocity": 93}, {"time": 19680, "pitch": 60, "duration": 1920, "velocity": 98}, {"time": 19680, "pitch": 64, "duration": 1920, "velocity": 103}, {"time": 19680, "pitch": 67, "duration": 1920, "velocity": 96}, {"time": 19680, "pitch": 72, "duration": 1920, "velocity": 102}, {"time": 21600, "pitch": 48, "duration": 1690, "velocity": 80}, {"time": 21600, "pitch": 58, "duration": 1770, "velocity": 93}, {"time": 21600, "pitch": 62, "duration": 1760, "velocity": 84}, {"time": 21600, "pitch": 65, "duration": 1710, "velocity": 107}, {"time": 21600, "pitch": 67, "duration": 1740, "velocity": 95}, {"time": 23520, "pitch": 48, "duration": 700, "velocity": 90}, {"time": 23520, "pitch": 69, "duration": 710, "velocity": 98}, {"time": 23520, "pitch": 72, "duration": 720, "velocity": 102}, {"time": 23520, "pitch": 79, "duration": 700, "velocity": 113}, {"time": 24240, "pitch": 48, "duration": 1080, "velocity": 89}, {"time": 24240, "pitch": 60, "duration": 10, "velocity": 85}, {"time": 24240, "pitch": 69, "duration": 1010, "velocity": 105}, {"time": 24240, "pitch": 72, "duration": 990, "velocity": 96}, {"time": 24240, "pitch": 77, "duration": 1050, "velocity": 117}, {"time": 25440, "pitch": 53, "duration": 850, "velocity": 83}, {"time": 25440, "pitch": 60, "duration": 860, "velocity": 102}, {"time": 25440, "pitch": 68, "duration": 850, "velocity": 97}, {"time": 25440, "pitch": 72, "duration": 840, "velocity": 100}, {"time": 25440, "pitch": 79, "duration": 770, "velocity": 114}, {"time": 26400, "pitch": 55, "duration": 80, "velocity": 100}, {"time": 26400, "pitch": 62, "duration": 120, "velocity": 104}, {"time": 26400, "pitch": 68, "duration": 90, "velocity": 107}, {"time": 26400, "pitch": 72, "duration": 60, "velocity": 117}, {"time": 26400, "pitch": 77, "duration": 80, "velocity": 117}, {"time": 26520, "pitch": 55, "duration": 120, "velocity": 97}, {"time": 26520, "pitch": 62, "duration": 120, "velocity": 97}, {"time": 26520, "pitch": 68, "duration": 130, "velocity": 112}, {"time": 26520, "pitch": 72, "duration": 90, "velocity": 104}, {"time": 26520, "pitch": 76, "duration": 100, "velocity": 115}, {"time": 26760, "pitch": 55, "duration": 250, "velocity": 110}, {"time": 26760, "pitch": 62, "duration": 280, "velocity": 102}, {"time": 26760, "pitch": 68, "duration": 260, "velocity": 117}, {"time": 26760, "pitch": 72, "duration": 220, "velocity": 104}, {"time": 26760, "pitch": 77, "duration": 240, "velocity": 115}, {"time": 27120, "pitch": 55, "duration": 150, "velocity": 85}, {"time": 27120, "pitch": 62, "duration": 130, "velocity": 76}, {"time": 27120, "pitch": 68, "duration": 140, "velocity": 117}, {"time": 27120, "pitch": 72, "duration": 100, "velocity": 93}, {"time": 27120, "pitch": 74, "duration": 100, "velocity": 92}, {"time": 27360, "pitch": 48, "duration": 1920, "velocity": 87}, {"time": 27360, "pitch": 60, "duration": 1920, "velocity": 82}, {"time": 27360, "pitch": 67, "duration": 1920, "velocity": 99}, {"time": 27360, "pitch": 72, "duration": 1920, "velocity": 98}, {"time": 27360, "pitch": 76, "duration": 1920, "velocity": 104}, {"time": 29280, "pitch": 48, "duration": 1920, "velocity": 87}, {"time": 29280, "pitch": 55, "duration": 1920, "velocity": 87}, {"time": 29280, "pitch": 58, "duration": 1920, "velocity": 103}, {"time": 29280, "pitch": 62, "duration": 1920, "velocity": 98}, {"time": 29280, "pitch": 65, "duration": 1920, "velocity": 100}, {"time": 31200, "pitch": 53, "duration": 1920, "velocity": 84}, {"time": 31200, "pitch": 57, "duration": 1920, "velocity": 102}, {"time": 31200, "pitch": 60, "duration": 1920, "velocity": 96}, {"time": 31200, "pitch": 64, "duration": 1920, "velocity": 103}, {"time": 31200, "pitch": 67, "duration": 1920, "velocity": 98}, {"time": 33120, "pitch": 52, "duration": 960, "velocity": 75}, {"time": 33120, "pitch": 59, "duration": 960, "velocity": 85}, {"time": 33120, "pitch": 62, "duration": 960, "velocity": 97}, {"time": 33120, "pitch": 67, "duration": 960, "velocity": 90}, {"time": 34080, "pitch": 51, "duration": 960, "velocity": 87}, {"time": 34080, "pitch": 58, "duration": 960, "velocity": 107}, {"time": 34080, "pitch": 61, "duration": 960, "velocity": 91}, {"time": 34080, "pitch": 67, "duration": 960, "velocity": 100}, {"time": 34080, "pitch": 72, "duration": 960, "velocity": 107}, {"time": 35040, "pitch": 50, "duration": 720, "velocity": 87}, {"time": 35040, "pitch": 57, "duration": 720, "velocity": 92}, {"time": 35040, "pitch": 60, "duration": 720, "velocity": 98}, {"time": 35040, "pitch": 65, "duration": 720, "velocity": 102}, {"time": 35760, "pitch": 50, "duration": 1200, "velocity": 87}, {"time": 35760, "pitch": 57, "duration": 1200, "velocity": 92}, {"time": 35760, "pitch": 60, "duration": 1200, "velocity": 98}, {"time": 35760, "pitch": 65, "duration": 1200, "velocity": 102}, {"time": 36960, "pitch": 53, "duration": 720, "velocity": 87}, {"time": 36960, "pitch": 60, "duration": 720, "velocity": 92}, {"time": 36960, "pitch": 63, "duration": 720, "velocity": 98}, {"time": 36960, "pitch": 68, "duration": 720, "velocity": 102}, {"time": 37680, "pitch": 53, "duration": 1200, "velocity": 82}, {"time": 37680, "pitch": 60, "duration": 1200, "velocity": 92}, {"time": 37680, "pitch": 63, "duration": 1200, "velocity": 98}, {"time": 37680, "pitch": 68, "duration": 1200, "velocity": 102}, {"time": 38880, "pitch": 52, "duration": 1920, "velocity": 87}, {"time": 38880, "pitch": 59, "duration": 1920, "velocity": 92}, {"time": 38880, "pitch": 62, "duration": 1920, "velocity": 98}, {"time": 38880, "pitch": 67, "duration": 1920, "velocity": 102}, {"time": 40800, "pitch": 57, "duration": 1920, "velocity": 88}, {"time": 40800, "pitch": 61, "duration": 1920, "velocity": 107}, {"time": 40800, "pitch": 65, "duration": 960, "velocity": 97}, {"time": 40800, "pitch": 67, "duration": 960, "velocity": 97}, {"time": 40800, "pitch": 73, "duration": 1920, "velocity": 106}, {"time": 41760, "pitch": 64, "duration": 960, "velocity": 104}, {"time": 42720, "pitch": 60, "duration": 660, "velocity": 110}, {"time": 42720, "pitch": 65, "duration": 690, "velocity": 107}, {"time": 42720, "pitch": 69, "duration": 660, "velocity": 110}, {"time": 42720, "pitch": 77, "duration": 110, "velocity": 103}, {"time": 42720, "pitch": 81, "duration": 80, "velocity": 104}, {"time": 42720, "pitch": 84, "duration": 110, "velocity": 110}, {"time": 42960, "pitch": 77, "duration": 60, "velocity": 93}, {"time": 42960, "pitch": 81, "duration": 60, "velocity": 100}, {"time": 42960, "pitch": 84, "duration": 40, "velocity": 90}, {"time": 43200, "pitch": 77, "duration": 70, "velocity": 102}, {"time": 43200, "pitch": 81, "duration": 60, "velocity": 110}, {"time": 43200, "pitch": 84, "duration": 30, "velocity": 92}, {"time": 43440, "pitch": 60, "duration": 1010, "velocity": 115}, {"time": 43440, "pitch": 64, "duration": 1040, "velocity": 117}, {"time": 43440, "pitch": 67, "duration": 980, "velocity": 108}, {"time": 43440, "pitch": 76, "duration": 70, "velocity": 115}, {"time": 43440, "pitch": 79, "duration": 60, "velocity": 117}, {"time": 43440, "pitch": 84, "duration": 70, "velocity": 100}, {"time": 43680, "pitch": 76, "duration": 60, "velocity": 100}, {"time": 43680, "pitch": 79, "duration": 60, "velocity": 107}, {"time": 43680, "pitch": 84, "duration": 80, "velocity": 92}, {"time": 43920, "pitch": 76, "duration": 60, "velocity": 102}, {"time": 43920, "pitch": 79, "duration": 60, "velocity": 110}, {"time": 43920, "pitch": 84, "duration": 60, "velocity": 81}, {"time": 44160, "pitch": 76, "duration": 60, "velocity": 112}, {"time": 44160, "pitch": 79, "duration": 60, "velocity": 117}, {"time": 44160, "pitch": 84, "duration": 60, "velocity": 99}, {"time": 44400, "pitch": 76, "duration": 60, "velocity": 102}, {"time": 44400, "pitch": 79, "duration": 40, "velocity": 99}, {"time": 44400, "pitch": 84, "duration": 60, "velocity": 82}, {"time": 44640, "pitch": 63, "duration": 630, "velocity": 117}, {"time": 44640, "pitch": 66, "duration": 640, "velocity": 117}, {"time": 44640, "pitch": 75, "duration": 80, "velocity": 117}, {"time": 44640, "pitch": 78, "duration": 80, "velocity": 117}, {"time": 44640, "pitch": 84, "duration": 80, "velocity": 112}, {"time": 44880, "pitch": 75, "duration": 80, "velocity": 117}, {"time": 44880, "pitch": 78, "duration": 60, "velocity": 88}, {"time": 44880, "pitch": 84, "duration": 80, "velocity": 88}, {"time": 45120, "pitch": 75, "duration": 70, "velocity": 117}, {"time": 45120, "pitch": 78, "duration": 50, "velocity": 76}, {"time": 45120, "pitch": 84, "duration": 40, "velocity": 96}, {"time": 45360, "pitch": 64, "duration": 1050, "velocity": 117}, {"time": 45360, "pitch": 67, "duration": 1030, "velocity": 112}, {"time": 45360, "pitch": 76, "duration": 60, "velocity": 117}, {"time": 45360, "pitch": 79, "duration": 70, "velocity": 117}, {"time": 45360, "pitch": 84, "duration": 80, "velocity": 104}, {"time": 45600, "pitch": 76, "duration": 60, "velocity": 100}, {"time": 45600, "pitch": 79, "duration": 60, "velocity": 99}, {"time": 45600, "pitch": 84, "duration": 70, "velocity": 79}, {"time": 45840, "pitch": 76, "duration": 50, "velocity": 117}, {"time": 45840, "pitch": 79, "duration": 70, "velocity": 117}, {"time": 45840, "pitch": 84, "duration": 70, "velocity": 93}, {"time": 46080, "pitch": 76, "duration": 70, "velocity": 117}, {"time": 46080, "pitch": 79, "duration": 70, "velocity": 117}, {"time": 46080, "pitch": 84, "duration": 70, "velocity": 104}, {"time": 46320, "pitch": 76, "duration": 60, "velocity": 93}, {"time": 46320, "pitch": 79, "duration": 50, "velocity": 90}, {"time": 46320, "pitch": 84, "duration": 60, "velocity": 82}, {"time": 46560, "pitch": 50, "duration": 630, "velocity": 87}, {"time": 46560, "pitch": 69, "duration": 610, "velocity": 91}, {"time": 46560, "pitch": 72, "duration": 620, "velocity": 100}, {"time": 46560, "pitch": 79, "duration": 610, "velocity": 107}, {"time": 47280, "pitch": 52, "duration": 450, "velocity": 87}, {"time": 47280, "pitch": 69, "duration": 430, "velocity": 110}, {"time": 47280, "pitch": 72, "duration": 440, "velocity": 108}, {"time": 47280, "pitch": 79, "duration": 400, "velocity": 115}, {"time": 47760, "pitch": 53, "duration": 430, "velocity": 87}, {"time": 47760, "pitch": 69, "duration": 370, "velocity": 110}, {"time": 47760, "pitch": 72, "duration": 380, "velocity": 112}, {"time": 47760, "pitch": 79, "duration": 350, "velocity": 117}, {"time": 48240, "pitch": 54, "duration": 230, "velocity": 104}, {"time": 48240, "pitch": 69, "duration": 230, "velocity": 117}, {"time": 48240, "pitch": 72, "duration": 230, "velocity": 117}, {"time": 48240, "pitch": 79, "duration": 230, "velocity": 117}, {"time": 48480, "pitch": 55, "duration": 240, "velocity": 87}, {"time": 48480, "pitch": 71, "duration": 230, "velocity": 109}, {"time": 48480, "pitch": 74, "duration": 230, "velocity": 105}, {"time": 48480, "pitch": 79, "duration": 220, "velocity": 115}, {"time": 48720, "pitch": 55, "duration": 70, "velocity": 102}, {"time": 48720, "pitch": 71, "duration": 60, "velocity": 102}, {"time": 48720, "pitch": 74, "duration": 30, "velocity": 112}, {"time": 48720, "pitch": 79, "duration": 90, "velocity": 96}, {"time": 50400, "pitch": 48, "duration": 1920, "velocity": 87}, {"time": 50400, "pitch": 67, "duration": 1920, "velocity": 100}, {"time": 50400, "pitch": 72, "duration": 1920, "velocity": 107}, {"time": 50400, "pitch": 76, "duration": 1920, "velocity": 110}, {"time": 52320, "pitch": 48, "duration": 1920, "velocity": 87}, {"time": 52320, "pitch": 67, "duration": 1920, "velocity": 93}, {"time": 52320, "pitch": 70, "duration": 1920, "velocity": 110}, {"time": 52320, "pitch": 74, "duration": 1920, "velocity": 108}, {"time": 52320, "pitch": 77, "duration": 1920, "velocity": 108}, {"time": 54240, "pitch": 53, "duration": 1920, "velocity": 85}, {"time": 54240, "pitch": 65, "duration": 1920, "velocity": 88}, {"time": 54240, "pitch": 69, "duration": 1920, "velocity": 96}, {"time": 54240, "pitch": 72, "duration": 1920, "velocity": 106}, {"time": 54240, "pitch": 76, "duration": 1920, "velocity": 101}, {"time": 56160, "pitch": 41, "duration": 960, "velocity": 77}, {"time": 56160, "pitch": 56, "duration": 960, "velocity": 101}, {"time": 56160, "pitch": 60, "duration": 960, "velocity": 102}, {"time": 56160, "pitch": 63, "duration": 960, "velocity": 101}, {"time": 56160, "pitch": 67, "duration": 960, "velocity": 97}, {"time": 57120, "pitch": 43, "duration": 960, "velocity": 87}, {"time": 57120, "pitch": 57, "duration": 960, "velocity": 108}, {"time": 57120, "pitch": 60, "duration": 960, "velocity": 109}, {"time": 57120, "pitch": 62, "duration": 960, "velocity": 112}, {"time": 57120, "pitch": 65, "duration": 960, "velocity": 99}, {"time": 58080, "pitch": 48, "duration": 1920, "velocity": 87}, {"time": 58080, "pitch": 67, "duration": 1920, "velocity": 100}, {"time": 58080, "pitch": 72, "duration": 1920, "velocity": 107}, {"time": 58080, "pitch": 76, "duration": 1920, "velocity": 110}, {"time": 60000, "pitch": 48, "duration": 1920, "velocity": 87}, {"time": 60000, "pitch": 67, "duration": 1920, "velocity": 93}, {"time": 60000, "pitch": 70, "duration": 1920, "velocity": 100}, {"time": 60000, "pitch": 74, "duration": 1920, "velocity": 108}, {"time": 60000, "pitch": 77, "duration": 1920, "velocity": 86}, {"time": 61920, "pitch": 53, "duration": 1920, "velocity": 85}, {"time": 61920, "pitch": 65, "duration": 1920, "velocity": 99}, {"time": 61920, "pitch": 69, "duration": 1920, "velocity": 106}, {"time": 61920, "pitch": 72, "duration": 1920, "velocity": 99}, {"time": 61920, "pitch": 76, "duration": 1920, "velocity": 101}, {"time": 62280, "pitch": 57, "duration": 270, "velocity": 89}, {"time": 62280, "pitch": 60, "duration": 250, "velocity": 90}, {"time": 62280, "pitch": 64, "duration": 260, "velocity": 99}, {"time": 62640, "pitch": 57, "duration": 1020, "velocity": 94}, {"time": 62640, "pitch": 60, "duration": 1000, "velocity": 98}, {"time": 62640, "pitch": 64, "duration": 1030, "velocity": 101}, {"time": 63840, "pitch": 41, "duration": 960, "velocity": 73}, {"time": 63840, "pitch": 56, "duration": 960, "velocity": 101}, {"time": 63840, "pitch": 60, "duration": 960, "velocity": 100}, {"time": 63840, "pitch": 63, "duration": 960, "velocity": 101}, {"time": 63840, "pitch": 67, "duration": 960, "velocity": 97}, {"time": 64800, "pitch": 43, "duration": 960, "velocity": 78}, {"time": 64800, "pitch": 57, "duration": 960, "velocity": 108}, {"time": 64800, "pitch": 60, "duration": 960, "velocity": 109}, {"time": 64800, "pitch": 62, "duration": 960, "velocity": 112}, {"time": 64800, "pitch": 65, "duration": 960, "velocity": 99}, {"time": 65760, "pitch": 48, "duration": 1920, "velocity": 87}, {"time": 65760, "pitch": 67, "duration": 1920, "velocity": 100}, {"time": 65760, "pitch": 72, "duration": 1920, "velocity": 107}, {"time": 65760, "pitch": 76, "duration": 1920, "velocity": 110}, {"time": 67680, "pitch": 48, "duration": 1920, "velocity": 87}, {"time": 67680, "pitch": 67, "duration": 1920, "velocity": 93}, {"time": 67680, "pitch": 70, "duration": 1920, "velocity": 110}, {"time": 67680, "pitch": 74, "duration": 1920, "velocity": 108}, {"time": 67680, "pitch": 77, "duration": 1920, "velocity": 108}, {"time": 69600, "pitch": 53, "duration": 1920, "velocity": 85}, {"time": 69600, "pitch": 65, "duration": 1920, "velocity": 86}, {"time": 69600, "pitch": 69, "duration": 1920, "velocity": 103}, {"time": 69600, "pitch": 72, "duration": 1920, "velocity": 102}, {"time": 69600, "pitch": 76, "duration": 1920, "velocity": 99}, {"time": 71520, "pitch": 41, "duration": 960, "velocity": 76}, {"time": 71520, "pitch": 56, "duration": 960, "velocity": 101}, {"time": 71520, "pitch": 60, "duration": 960, "velocity": 103}, {"time": 71520, "pitch": 63, "duration": 960, "velocity": 101}, {"time": 71520, "pitch": 67, "duration": 960, "velocity": 97}, {"time": 72480, "pitch": 43, "duration": 960, "velocity": 75}, {"time": 72480, "pitch": 57, "duration": 960, "velocity": 108}, {"time": 72480, "pitch": 60, "duration": 960, "velocity": 109}, {"time": 72480, "pitch": 62, "duration": 960, "velocity": 98}, {"time": 72480, "pitch": 65, "duration": 960, "velocity": 99}, {"time": 73440, "pitch": 48, "duration": 1920, "velocity": 87}, {"time": 73440, "pitch": 67, "duration": 1920, "velocity": 100}, {"time": 73440, "pitch": 72, "duration": 1920, "velocity": 107}, {"time": 73440, "pitch": 76, "duration": 1920, "velocity": 110}, {"time": 75360, "pitch": 48, "duration": 960, "velocity": 87}, {"time": 75360, "pitch": 67, "duration": 960, "velocity": 93}, {"time": 75360, "pitch": 70, "duration": 960, "velocity": 110}, {"time": 75360, "pitch": 74, "duration": 960, "velocity": 108}, {"time": 75360, "pitch": 77, "duration": 960, "velocity": 108}, {"time": 76320, "pitch": 48, "duration": 960, "velocity": 84}, {"time": 76320, "pitch": 67, "duration": 960, "velocity": 93}, {"time": 76320, "pitch": 70, "duration": 960, "velocity": 110}, {"time": 76320, "pitch": 72, "duration": 960, "velocity": 108}, {"time": 76320, "pitch": 76, "duration": 960, "velocity": 108}, {"time": 77280, "pitch": 53, "duration": 1920, "velocity": 85}, {"time": 77280, "pitch": 65, "duration": 1920, "velocity": 99}, {"time": 77280, "pitch": 69, "duration": 1920, "velocity": 106}, {"time": 77280, "pitch": 72, "duration": 1920, "velocity": 99}, {"time": 77280, "pitch": 76, "duration": 1920, "velocity": 101}, {"time": 77640, "pitch": 57, "duration": 270, "velocity": 89}, {"time": 77640, "pitch": 60, "duration": 250, "velocity": 90}, {"time": 77640, "pitch": 64, "duration": 260, "velocity": 99}, {"time": 78000, "pitch": 57, "duration": 1020, "velocity": 94}, {"time": 78000, "pitch": 60, "duration": 1000, "velocity": 98}, {"time": 78000, "pitch": 64, "duration": 1030, "velocity": 101}, {"time": 79200, "pitch": 41, "duration": 960, "velocity": 77}, {"time": 79200, "pitch": 56, "duration": 960, "velocity": 101}, {"time": 79200, "pitch": 60, "duration": 960, "velocity": 115}, {"time": 79200, "pitch": 63, "duration": 960, "velocity": 101}, {"time": 79200, "pitch": 67, "duration": 960, "velocity": 97}, {"time": 80160, "pitch": 43, "duration": 960, "velocity": 75}, {"time": 80160, "pitch": 57, "duration": 960, "velocity": 108}, {"time": 80160, "pitch": 60, "duration": 960, "velocity": 109}, {"time": 80160, "pitch": 62, "duration": 960, "velocity": 112}, {"time": 80160, "pitch": 65, "duration": 960, "velocity": 99}, {"time": 81120, "pitch": 36, "duration": 220, "velocity": 87}, {"time": 81120, "pitch": 48, "duration": 220, "velocity": 87}, {"time": 81120, "pitch": 64, "duration": 220, "velocity": 95}, {"time": 81120, "pitch": 67, "duration": 240, "velocity": 94}, {"time": 81120, "pitch": 72, "duration": 230, "velocity": 99}, {"time": 81360, "pitch": 36, "duration": 100, "velocity": 93}, {"time": 81360, "pitch": 48, "duration": 100, "velocity": 93}, {"time": 81360, "pitch": 64, "duration": 90, "velocity": 100}, {"time": 81360, "pitch": 67, "duration": 100, "velocity": 93}, {"time": 81360, "pitch": 72, "duration": 100, "velocity": 107}, {"time": 81840, "pitch": 41, "duration": 390, "velocity": 87}, {"time": 81840, "pitch": 65, "duration": 380, "velocity": 99}, {"time": 81840, "pitch": 68, "duration": 370, "velocity": 117}, {"time": 81840, "pitch": 75, "duration": 380, "velocity": 103}, {"time": 82320, "pitch": 43, "duration": 440, "velocity": 87}, {"time": 82320, "pitch": 65, "duration": 400, "velocity": 96}, {"time": 82320, "pitch": 68, "duration": 380, "velocity": 100}, {"time": 82320, "pitch": 74, "duration": 410, "velocity": 97}, {"time": 82800, "pitch": 46, "duration": 160, "velocity": 87}, {"time": 82800, "pitch": 65, "duration": 160, "velocity": 97}, {"time": 82800, "pitch": 68, "duration": 160, "velocity": 108}, {"time": 82800, "pitch": 72, "duration": 150, "velocity": 105}, {"time": 83040, "pitch": 36, "duration": 220, "velocity": 87}, {"time": 83040, "pitch": 48, "duration": 220, "velocity": 87}, {"time": 83040, "pitch": 64, "duration": 220, "velocity": 108}, {"time": 83040, "pitch": 67, "duration": 240, "velocity": 98}, {"time": 83040, "pitch": 72, "duration": 230, "velocity": 105}, {"time": 83280, "pitch": 36, "duration": 100, "velocity": 87}, {"time": 83280, "pitch": 48, "duration": 100, "velocity": 87}, {"time": 83280, "pitch": 64, "duration": 90, "velocity": 81}, {"time": 83280, "pitch": 67, "duration": 100, "velocity": 93}, {"time": 83280, "pitch": 72, "duration": 100, "velocity": 107}, {"time": 83760, "pitch": 41, "duration": 390, "velocity": 87}, {"time": 83760, "pitch": 65, "duration": 380, "velocity": 99}, {"time": 83760, "pitch": 68, "duration": 370, "velocity": 105}, {"time": 83760, "pitch": 75, "duration": 380, "velocity": 117}, {"time": 84240, "pitch": 43, "duration": 440, "velocity": 87}, {"time": 84240, "pitch": 65, "duration": 400, "velocity": 96}, {"time": 84240, "pitch": 68, "duration": 380, "velocity": 108}, {"time": 84240, "pitch": 74, "duration": 410, "velocity": 115}, {"time": 84720, "pitch": 46, "duration": 160, "velocity": 87}, {"time": 84720, "pitch": 65, "duration": 160, "velocity": 97}, {"time": 84720, "pitch": 68, "duration": 160, "velocity": 117}, {"time": 84720, "pitch": 72, "duration": 150, "velocity": 112}, {"time": 84960, "pitch": 48, "duration": 1920, "velocity": 84}, {"time": 84960, "pitch": 64, "duration": 1920, "velocity": 93}, {"time": 84960, "pitch": 67, "duration": 1920, "velocity": 104}, {"time": 84960, "pitch": 72, "duration": 1920, "velocity": 103}, {"time": 88800, "pitch": 48, "duration": 1920, "velocity": 93}, {"time": 88800, "pitch": 60, "duration": 1920, "velocity": 98}, {"time": 88800, "pitch": 64, "duration": 1920, "velocity": 103}, {"time": 88800, "pitch": 67, "duration": 1920, "velocity": 96}, {"time": 88800, "pitch": 72, "duration": 1920, "velocity": 102}, {"time": 90720, "pitch": 48, "duration": 1690, "velocity": 80}, {"time": 90720, "pitch": 58, "duration": 1770, "velocity": 93}, {"time": 90720, "pitch": 62, "duration": 1760, "velocity": 84}, {"time": 90720, "pitch": 65, "duration": 1710, "velocity": 107}, {"time": 90720, "pitch": 67, "duration": 1740, "velocity": 95}, {"time": 92640, "pitch": 48, "duration": 700, "velocity": 90}, {"time": 92640, "pitch": 69, "duration": 710, "velocity": 98}, {"time": 92640, "pitch": 72, "duration": 720, "velocity": 102}, {"time": 92640, "pitch": 79, "duration": 700, "velocity": 113}, {"time": 93360, "pitch": 48, "duration": 1080, "velocity": 89}, {"time": 93360, "pitch": 60, "duration": 10, "velocity": 85}, {"time": 93360, "pitch": 69, "duration": 1010, "velocity": 105}, {"time": 93360, "pitch": 72, "duration": 990, "velocity": 96}, {"time": 93360, "pitch": 77, "duration": 1050, "velocity": 117}, {"time": 94560, "pitch": 53, "duration": 850, "velocity": 83}, {"time": 94560, "pitch": 60, "duration": 860, "velocity": 102}, {"time": 94560, "pitch": 68, "duration": 850, "velocity": 97}, {"time": 94560, "pitch": 72, "duration": 840, "velocity": 100}, {"time": 94560, "pitch": 79, "duration": 770, "velocity": 114}, {"time": 95520, "pitch": 55, "duration": 80, "velocity": 100}, {"time": 95520, "pitch": 62, "duration": 120, "velocity": 104}, {"time": 95520, "pitch": 68, "duration": 90, "velocity": 107}, {"time": 95520, "pitch": 72, "duration": 60, "velocity": 117}, {"time": 95520, "pitch": 77, "duration": 80, "velocity": 117}, {"time": 95640, "pitch": 55, "duration": 120, "velocity": 97}, {"time": 95640, "pitch": 62, "duration": 120, "velocity": 97}, {"time": 95640, "pitch": 68, "duration": 130, "velocity": 112}, {"time": 95640, "pitch": 72, "duration": 90, "velocity": 104}, {"time": 95640, "pitch": 76, "duration": 100, "velocity": 115}, {"time": 95880, "pitch": 55, "duration": 250, "velocity": 110}, {"time": 95880, "pitch": 62, "duration": 280, "velocity": 102}, {"time": 95880, "pitch": 68, "duration": 260, "velocity": 117}, {"time": 95880, "pitch": 72, "duration": 220, "velocity": 104}, {"time": 95880, "pitch": 77, "duration": 240, "velocity": 115}, {"time": 96240, "pitch": 55, "duration": 150, "velocity": 85}, {"time": 96240, "pitch": 62, "duration": 130, "velocity": 76}, {"time": 96240, "pitch": 68, "duration": 140, "velocity": 117}, {"time": 96240, "pitch": 72, "duration": 100, "velocity": 93}, {"time": 96240, "pitch": 74, "duration": 100, "velocity": 92}, {"time": 96480, "pitch": 48, "duration": 1920, "velocity": 87}, {"time": 96480, "pitch": 60, "duration": 1920, "velocity": 82}, {"time": 96480, "pitch": 67, "duration": 1920, "velocity": 99}, {"time": 96480, "pitch": 72, "duration": 1920, "velocity": 98}, {"time": 96480, "pitch": 76, "duration": 1920, "velocity": 104}, {"time": 98400, "pitch": 48, "duration": 1920, "velocity": 87}, {"time": 98400, "pitch": 55, "duration": 1920, "velocity": 87}, {"time": 98400, "pitch": 58, "duration": 1920, "velocity": 103}, {"time": 98400, "pitch": 62, "duration": 1920, "velocity": 98}, {"time": 98400, "pitch": 65, "duration": 1920, "velocity": 100}, {"time": 100320, "pitch": 53, "duration": 1920, "velocity": 84}, {"time": 100320, "pitch": 57, "duration": 1920, "velocity": 102}, {"time": 100320, "pitch": 60, "duration": 1920, "velocity": 96}, {"time": 100320, "pitch": 64, "duration": 1920, "velocity": 103}, {"time": 100320, "pitch": 67, "duration": 1920, "velocity": 98}, {"time": 102240, "pitch": 52, "duration": 960, "velocity": 75}, {"time": 102240, "pitch": 59, "duration": 960, "velocity": 85}, {"time": 102240, "pitch": 62, "duration": 960, "velocity": 97}, {"time": 102240, "pitch": 67, "duration": 960, "velocity": 90}, {"time": 103200, "pitch": 51, "duration": 960, "velocity": 87}, {"time": 103200, "pitch": 58, "duration": 960, "velocity": 107}, {"time": 103200, "pitch": 61, "duration": 960, "velocity": 91}, {"time": 103200, "pitch": 67, "duration": 960, "velocity": 100}, {"time": 103200, "pitch": 72, "duration": 960, "velocity": 107}, {"time": 104160, "pitch": 50, "duration": 720, "velocity": 87}, {"time": 104160, "pitch": 57, "duration": 720, "velocity": 92}, {"time": 104160, "pitch": 60, "duration": 720, "velocity": 98}, {"time": 104160, "pitch": 65, "duration": 720, "velocity": 102}, {"time": 104880, "pitch": 50, "duration": 1200, "velocity": 87}, {"time": 104880, "pitch": 57, "duration": 1200, "velocity": 92}, {"time": 104880, "pitch": 60, "duration": 1200, "velocity": 98}, {"time": 104880, "pitch": 65, "duration": 1200, "velocity": 102}, {"time": 106080, "pitch": 53, "duration": 720, "velocity": 87}, {"time": 106080, "pitch": 60, "duration": 720, "velocity": 92}, {"time": 106080, "pitch": 63, "duration": 720, "velocity": 98}, {"time": 106080, "pitch": 68, "duration": 720, "velocity": 102}, {"time": 106800, "pitch": 53, "duration": 1200, "velocity": 82}, {"time": 106800, "pitch": 60, "duration": 1200, "velocity": 92}, {"time": 106800, "pitch": 63, "duration": 1200, "velocity": 98}, {"time": 106800, "pitch": 68, "duration": 1200, "velocity": 102}, {"time": 108000, "pitch": 52, "duration": 1920, "velocity": 87}, {"time": 108000, "pitch": 59, "duration": 1920, "velocity": 92}, {"time": 108000, "pitch": 62, "duration": 1920, "velocity": 98}, {"time": 108000, "pitch": 67, "duration": 1920, "velocity": 102}, {"time": 109920, "pitch": 57, "duration": 1920, "velocity": 88}, {"time": 109920, "pitch": 61, "duration": 1920, "velocity": 107}, {"time": 109920, "pitch": 65, "duration": 960, "velocity": 97}, {"time": 109920, "pitch": 67, "duration": 960, "velocity": 97}, {"time": 109920, "pitch": 73, "duration": 1920, "velocity": 106}, {"time": 110880, "pitch": 64, "duration": 960, "velocity": 104}, {"time": 111840, "pitch": 60, "duration": 660, "velocity": 110}, {"time": 111840, "pitch": 65, "duration": 690, "velocity": 107}, {"time": 111840, "pitch": 69, "duration": 660, "velocity": 110}, {"time": 111840, "pitch": 77, "duration": 110, "velocity": 103}, {"time": 111840, "pitch": 81, "duration": 80, "velocity": 104}, {"time": 111840, "pitch": 84, "duration": 110, "velocity": 110}, {"time": 112080, "pitch": 77, "duration": 60, "velocity": 93}, {"time": 112080, "pitch": 81, "duration": 60, "velocity": 100}, {"time": 112080, "pitch": 84, "duration": 40, "velocity": 90}, {"time": 112320, "pitch": 77, "duration": 70, "velocity": 102}, {"time": 112320, "pitch": 81, "duration": 60, "velocity": 110}, {"time": 112320, "pitch": 84, "duration": 30, "velocity": 92}, {"time": 112560, "pitch": 60, "duration": 1010, "velocity": 115}, {"time": 112560, "pitch": 64, "duration": 1040, "velocity": 117}, {"time": 112560, "pitch": 67, "duration": 980, "velocity": 108}, {"time": 112560, "pitch": 76, "duration": 70, "velocity": 115}, {"time": 112560, "pitch": 79, "duration": 60, "velocity": 117}, {"time": 112560, "pitch": 84, "duration": 70, "velocity": 100}, {"time": 112800, "pitch": 76, "duration": 60, "velocity": 100}, {"time": 112800, "pitch": 79, "duration": 60, "velocity": 107}, {"time": 112800, "pitch": 84, "duration": 80, "velocity": 92}, {"time": 113040, "pitch": 76, "duration": 60, "velocity": 102}, {"time": 113040, "pitch": 79, "duration": 60, "velocity": 110}, {"time": 113040, "pitch": 84, "duration": 60, "velocity": 81}, {"time": 113280, "pitch": 76, "duration": 60, "velocity": 112}, {"time": 113280, "pitch": 79, "duration": 60, "velocity": 117}, {"time": 113280, "pitch": 84, "duration": 60, "velocity": 99}, {"time": 113520, "pitch": 76, "duration": 60, "velocity": 102}, {"time": 113520, "pitch": 79, "duration": 40, "velocity": 99}, {"time": 113520, "pitch": 84, "duration": 60, "velocity": 82}, {"time": 113760, "pitch": 63, "duration": 630, "velocity": 117}, {"time": 113760, "pitch": 66, "duration": 640, "velocity": 117}, {"time": 113760, "pitch": 75, "duration": 80, "velocity": 117}, {"time": 113760, "pitch": 78, "duration": 80, "velocity": 117}, {"time": 113760, "pitch": 84, "duration": 80, "velocity": 112}, {"time": 114000, "pitch": 75, "duration": 80, "velocity": 117}, {"time": 114000, "pitch": 78, "duration": 60, "velocity": 88}, {"time": 114000, "pitch": 84, "duration": 80, "velocity": 88}, {"time": 114240, "pitch": 75, "duration": 70, "velocity": 117}, {"time": 114240, "pitch": 78, "duration": 50, "velocity": 76}, {"time": 114240, "pitch": 84, "duration": 40, "velocity": 96}, {"time": 114480, "pitch": 64, "duration": 1050, "velocity": 117}, {"time": 114480, "pitch": 67, "duration": 1030, "velocity": 112}, {"time": 114480, "pitch": 76, "duration": 60, "velocity": 117}, {"time": 114480, "pitch": 79, "duration": 70, "velocity": 117}, {"time": 114480, "pitch": 84, "duration": 80, "velocity": 104}, {"time": 114720, "pitch": 76, "duration": 60, "velocity": 100}, {"time": 114720, "pitch": 79, "duration": 60, "velocity": 99}, {"time": 114720, "pitch": 84, "duration": 70, "velocity": 79}, {"time": 114960, "pitch": 76, "duration": 50, "velocity": 117}, {"time": 114960, "pitch": 79, "duration": 70, "velocity": 117}, {"time": 114960, "pitch": 84, "duration": 70, "velocity": 93}, {"time": 115200, "pitch": 76, "duration": 70, "velocity": 117}, {"time": 115200, "pitch": 79, "duration": 70, "velocity": 117}, {"time": 115200, "pitch": 84, "duration": 70, "velocity": 104}, {"time": 115440, "pitch": 76, "duration": 60, "velocity": 93}, {"time": 115440, "pitch": 79, "duration": 50, "velocity": 90}, {"time": 115440, "pitch": 84, "duration": 60, "velocity": 82}, {"time": 115680, "pitch": 50, "duration": 630, "velocity": 87}, {"time": 115680, "pitch": 69, "duration": 610, "velocity": 91}, {"time": 115680, "pitch": 72, "duration": 620, "velocity": 100}, {"time": 115680, "pitch": 79, "duration": 610, "velocity": 107}, {"time": 116400, "pitch": 52, "duration": 450, "velocity": 87}, {"time": 116400, "pitch": 69, "duration": 430, "velocity": 110}, {"time": 116400, "pitch": 72, "duration": 440, "velocity": 108}, {"time": 116400, "pitch": 79, "duration": 400, "velocity": 115}, {"time": 116880, "pitch": 53, "duration": 430, "velocity": 87}, {"time": 116880, "pitch": 69, "duration": 370, "velocity": 110}, {"time": 116880, "pitch": 72, "duration": 380, "velocity": 112}, {"time": 116880, "pitch": 79, "duration": 350, "velocity": 117}, {"time": 117360, "pitch": 54, "duration": 230, "velocity": 104}, {"time": 117360, "pitch": 69, "duration": 230, "velocity": 117}, {"time": 117360, "pitch": 72, "duration": 230, "velocity": 117}, {"time": 117360, "pitch": 79, "duration": 230, "velocity": 117}, {"time": 117600, "pitch": 55, "duration": 240, "velocity": 87}, {"time": 117600, "pitch": 71, "duration": 230, "velocity": 109}, {"time": 117600, "pitch": 74, "duration": 230, "velocity": 105}, {"time": 117600, "pitch": 79, "duration": 220, "velocity": 115}, {"time": 117840, "pitch": 55, "duration": 70, "velocity": 102}, {"time": 117840, "pitch": 71, "duration": 60, "velocity": 102}, {"time": 117840, "pitch": 74, "duration": 30, "velocity": 112}, {"time": 117840, "pitch": 79, "duration": 90, "velocity": 96}, {"time": 119520, "pitch": 48, "duration": 1920, "velocity": 87}, {"time": 119520, "pitch": 67, "duration": 1920, "velocity": 100}, {"time": 119520, "pitch": 72, "duration": 1920, "velocity": 107}, {"time": 119520, "pitch": 76, "duration": 1920, "velocity": 110}, {"time": 121440, "pitch": 48, "duration": 1920, "velocity": 87}, {"time": 121440, "pitch": 67, "duration": 1920, "velocity": 93}, {"time": 121440, "pitch": 70, "duration": 1920, "velocity": 110}, {"time": 121440, "pitch": 74, "duration": 1920, "velocity": 108}, {"time": 121440, "pitch": 77, "duration": 1920, "velocity": 108}, {"time": 123360, "pitch": 53, "duration": 1920, "velocity": 85}, {"time": 123360, "pitch": 65, "duration": 1920, "velocity": 88}, {"time": 123360, "pitch": 69, "duration": 1920, "velocity": 96}, {"time": 123360, "pitch": 72, "duration": 1920, "velocity": 106}, {"time": 123360, "pitch": 76, "duration": 1920, "velocity": 101}, {"time": 125280, "pitch": 41, "duration": 960, "velocity": 77}, {"time": 125280, "pitch": 56, "duration": 960, "velocity": 101}, {"time": 125280, "pitch": 60, "duration": 960, "velocity": 102}, {"time": 125280, "pitch": 63, "duration": 960, "velocity": 101}, {"time": 125280, "pitch": 67, "duration": 960, "velocity": 97}, {"time": 126240, "pitch": 43, "duration": 960, "velocity": 87}, {"time": 126240, "pitch": 57, "duration": 960, "velocity": 108}, {"time": 126240, "pitch": 60, "duration": 960, "velocity": 109}, {"time": 126240, "pitch": 62, "duration": 960, "velocity": 112}, {"time": 126240, "pitch": 65, "duration": 960, "velocity": 99}, {"time": 127200, "pitch": 48, "duration": 1920, "velocity": 87}, {"time": 127200, "pitch": 67, "duration": 1920, "velocity": 100}, {"time": 127200, "pitch": 72, "duration": 1920, "velocity": 107}, {"time": 127200, "pitch": 76, "duration": 1920, "velocity": 110}, {"time": 129120, "pitch": 48, "duration": 1920, "velocity": 87}, {"time": 129120, "pitch": 67, "duration": 1920, "velocity": 93}, {"time": 129120, "pitch": 70, "duration": 1920, "velocity": 100}, {"time": 129120, "pitch": 74, "duration": 1920, "velocity": 108}, {"time": 129120, "pitch": 77, "duration": 1920, "velocity": 86}, {"time": 131040, "pitch": 53, "duration": 1920, "velocity": 85}, {"time": 131040, "pitch": 65, "duration": 1920, "velocity": 99}, {"time": 131040, "pitch": 69, "duration": 1920, "velocity": 106}, {"time": 131040, "pitch": 72, "duration": 1920, "velocity": 99}, {"time": 131040, "pitch": 76, "duration": 1920, "velocity": 101}, {"time": 131400, "pitch": 57, "duration": 270, "velocity": 89}, {"time": 131400, "pitch": 60, "duration": 250, "velocity": 90}, {"time": 131400, "pitch": 64, "duration": 260, "velocity": 99}, {"time": 131760, "pitch": 57, "duration": 1020, "velocity": 94}, {"time": 131760, "pitch": 60, "duration": 1000, "velocity": 98}, {"time": 131760, "pitch": 64, "duration": 1030, "velocity": 101}, {"time": 132960, "pitch": 41, "duration": 960, "velocity": 73}, {"time": 132960, "pitch": 56, "duration": 960, "velocity": 101}, {"time": 132960, "pitch": 60, "duration": 960, "velocity": 100}, {"time": 132960, "pitch": 63, "duration": 960, "velocity": 101}, {"time": 132960, "pitch": 67, "duration": 960, "velocity": 97}, {"time": 133920, "pitch": 43, "duration": 960, "velocity": 78}, {"time": 133920, "pitch": 57, "duration": 960, "velocity": 108}, {"time": 133920, "pitch": 60, "duration": 960, "velocity": 109}, {"time": 133920, "pitch": 62, "duration": 960, "velocity": 112}, {"time": 133920, "pitch": 65, "duration": 960, "velocity": 99}, {"time": 134880, "pitch": 48, "duration": 1920, "velocity": 87}, {"time": 134880, "pitch": 67, "duration": 1920, "velocity": 100}, {"time": 134880, "pitch": 72, "duration": 1920, "velocity": 107}, {"time": 134880, "pitch": 76, "duration": 1920, "velocity": 110}, {"time": 136800, "pitch": 48, "duration": 1920, "velocity": 87}, {"time": 136800, "pitch": 67, "duration": 1920, "velocity": 93}, {"time": 136800, "pitch": 70, "duration": 1920, "velocity": 110}, {"time": 136800, "pitch": 74, "duration": 1920, "velocity": 108}, {"time": 136800, "pitch": 77, "duration": 1920, "velocity": 108}, {"time": 138720, "pitch": 53, "duration": 1920, "velocity": 85}, {"time": 138720, "pitch": 65, "duration": 1920, "velocity": 86}, {"time": 138720, "pitch": 69, "duration": 1920, "velocity": 103}, {"time": 138720, "pitch": 72, "duration": 1920, "velocity": 102}, {"time": 138720, "pitch": 76, "duration": 1920, "velocity": 99}, {"time": 140640, "pitch": 41, "duration": 960, "velocity": 76}, {"time": 140640, "pitch": 56, "duration": 960, "velocity": 101}, {"time": 140640, "pitch": 60, "duration": 960, "velocity": 103}, {"time": 140640, "pitch": 63, "duration": 960, "velocity": 101}, {"time": 140640, "pitch": 67, "duration": 960, "velocity": 97}, {"time": 141600, "pitch": 43, "duration": 960, "velocity": 75}, {"time": 141600, "pitch": 57, "duration": 960, "velocity": 108}, {"time": 141600, "pitch": 60, "duration": 960, "velocity": 109}, {"time": 141600, "pitch": 62, "duration": 960, "velocity": 98}, {"time": 141600, "pitch": 65, "duration": 960, "velocity": 99}, {"time": 142560, "pitch": 48, "duration": 1920, "velocity": 87}, {"time": 142560, "pitch": 67, "duration": 1920, "velocity": 100}, {"time": 142560, "pitch": 72, "duration": 1920, "velocity": 107}, {"time": 142560, "pitch": 76, "duration": 1920, "velocity": 110}, {"time": 144480, "pitch": 48, "duration": 960, "velocity": 87}, {"time": 144480, "pitch": 67, "duration": 960, "velocity": 93}, {"time": 144480, "pitch": 70, "duration": 960, "velocity": 110}, {"time": 144480, "pitch": 74, "duration": 960, "velocity": 108}, {"time": 144480, "pitch": 77, "duration": 960, "velocity": 108}, {"time": 145440, "pitch": 48, "duration": 960, "velocity": 84}, {"time": 145440, "pitch": 67, "duration": 960, "velocity": 93}, {"time": 145440, "pitch": 70, "duration": 960, "velocity": 110}, {"time": 145440, "pitch": 72, "duration": 960, "velocity": 108}, {"time": 145440, "pitch": 76, "duration": 960, "velocity": 108}, {"time": 146400, "pitch": 53, "duration": 1920, "velocity": 85}, {"time": 146400, "pitch": 65, "duration": 1920, "velocity": 99}, {"time": 146400, "pitch": 69, "duration": 1920, "velocity": 106}, {"time": 146400, "pitch": 72, "duration": 1920, "velocity": 99}, {"time": 146400, "pitch": 76, "duration": 1920, "velocity": 101}, {"time": 146760, "pitch": 57, "duration": 270, "velocity": 89}, {"time": 146760, "pitch": 60, "duration": 250, "velocity": 90}, {"time": 146760, "pitch": 64, "duration": 260, "velocity": 99}, {"time": 147120, "pitch": 57, "duration": 1020, "velocity": 94}, {"time": 147120, "pitch": 60, "duration": 1000, "velocity": 98}, {"time": 147120, "pitch": 64, "duration": 1030, "velocity": 101}, {"time": 148320, "pitch": 41, "duration": 960, "velocity": 77}, {"time": 148320, "pitch": 56, "duration": 960, "velocity": 101}, {"time": 148320, "pitch": 60, "duration": 960, "velocity": 115}, {"time": 148320, "pitch": 63, "duration": 960, "velocity": 101}, {"time": 148320, "pitch": 67, "duration": 960, "velocity": 97}, {"time": 149280, "pitch": 43, "duration": 960, "velocity": 75}, {"time": 149280, "pitch": 57, "duration": 960, "velocity": 108}, {"time": 149280, "pitch": 60, "duration": 960, "velocity": 109}, {"time": 149280, "pitch": 62, "duration": 960, "velocity": 112}, {"time": 149280, "pitch": 65, "duration": 960, "velocity": 99}, {"time": 169440, "pitch": 43, "duration": 200, "velocity": 84}, {"time": 169440, "pitch": 55, "duration": 200, "velocity": 99}, {"time": 169440, "pitch": 65, "duration": 200, "velocity": 117}, {"time": 169440, "pitch": 69, "duration": 200, "velocity": 120}, {"time": 169440, "pitch": 72, "duration": 200, "velocity": 123}, {"time": 169440, "pitch": 76, "duration": 200, "velocity": 121}, {"time": 169680, "pitch": 43, "duration": 100, "velocity": 84}, {"time": 169680, "pitch": 55, "duration": 100, "velocity": 99}, {"time": 169680, "pitch": 65, "duration": 100, "velocity": 117}, {"time": 169680, "pitch": 69, "duration": 100, "velocity": 120}, {"time": 169680, "pitch": 72, "duration": 100, "velocity": 123}, {"time": 169680, "pitch": 76, "duration": 100, "velocity": 121}, {"time": 170400, "pitch": 43, "duration": 170, "velocity": 88}, {"time": 170400, "pitch": 55, "duration": 170, "velocity": 103}, {"time": 170400, "pitch": 65, "duration": 170, "velocity": 121}, {"time": 170400, "pitch": 69, "duration": 170, "velocity": 124}, {"time": 170400, "pitch": 72, "duration": 170, "velocity": 127}, {"time": 170400, "pitch": 76, "duration": 170, "velocity": 125}, {"time": 170640, "pitch": 43, "duration": 120, "velocity": 67}, {"time": 170640, "pitch": 55, "duration": 120, "velocity": 82}, {"time": 170640, "pitch": 65, "duration": 120, "velocity": 100}, {"time": 170640, "pitch": 69, "duration": 120, "velocity": 103}, {"time": 170640, "pitch": 72, "duration": 120, "velocity": 106}, {"time": 170640, "pitch": 76, "duration": 120, "velocity": 104}, {"time": 171120, "pitch": 43, "duration": 80, "velocity": 76}, {"time": 171120, "pitch": 55, "duration": 80, "velocity": 91}, {"time": 171120, "pitch": 65, "duration": 80, "velocity": 109}, {"time": 171120, "pitch": 69, "duration": 80, "velocity": 112}, {"time": 171120, "pitch": 72, "duration": 80, "velocity": 115}, {"time": 171120, "pitch": 76, "duration": 80, "velocity": 113}, {"time": 171840, "pitch": 43, "duration": 1420, "velocity": 81}, {"time": 171840, "pitch": 55, "duration": 1420, "velocity": 96}, {"time": 171840, "pitch": 65, "duration": 1420, "velocity": 114}, {"time": 171840, "pitch": 69, "duration": 1420, "velocity": 117}, {"time": 171840, "pitch": 72, "duration": 1420, "velocity": 120}, {"time": 171840, "pitch": 76, "duration": 1420, "velocity": 118}, {"time": 173280, "pitch": 48, "duration": 1920, "velocity": 87}, {"time": 173280, "pitch": 67, "duration": 1920, "velocity": 100}, {"time": 173280, "pitch": 72, "duration": 1920, "velocity": 107}, {"time": 173280, "pitch": 76, "duration": 1920, "velocity": 110}, {"time": 175200, "pitch": 48, "duration": 1920, "velocity": 87}, {"time": 175200, "pitch": 67, "duration": 1920, "velocity": 93}, {"time": 175200, "pitch": 70, "duration": 1920, "velocity": 110}, {"time": 175200, "pitch": 74, "duration": 1920, "velocity": 108}, {"time": 175200, "pitch": 77, "duration": 1920, "velocity": 108}, {"time": 177120, "pitch": 53, "duration": 1920, "velocity": 85}, {"time": 177120, "pitch": 65, "duration": 1920, "velocity": 88}, {"time": 177120, "pitch": 69, "duration": 1920, "velocity": 96}, {"time": 177120, "pitch": 72, "duration": 1920, "velocity": 106}, {"time": 177120, "pitch": 76, "duration": 1920, "velocity": 101}, {"time": 179040, "pitch": 41, "duration": 960, "velocity": 77}, {"time": 179040, "pitch": 56, "duration": 960, "velocity": 101}, {"time": 179040, "pitch": 60, "duration": 960, "velocity": 102}, {"time": 179040, "pitch": 63, "duration": 960, "velocity": 101}, {"time": 179040, "pitch": 67, "duration": 960, "velocity": 97}, {"time": 180000, "pitch": 43, "duration": 960, "velocity": 87}, {"time": 180000, "pitch": 57, "duration": 960, "velocity": 108}, {"time": 180000, "pitch": 60, "duration": 960, "velocity": 109}, {"time": 180000, "pitch": 62, "duration": 960, "velocity": 112}, {"time": 180000, "pitch": 65, "duration": 960, "velocity": 99}, {"time": 180960, "pitch": 48, "duration": 1920, "velocity": 87}, {"time": 180960, "pitch": 67, "duration": 1920, "velocity": 100}, {"time": 180960, "pitch": 72, "duration": 1920, "velocity": 107}, {"time": 180960, "pitch": 76, "duration": 1920, "velocity": 110}, {"time": 182880, "pitch": 48, "duration": 1920, "velocity": 87}, {"time": 182880, "pitch": 67, "duration": 1920, "velocity": 93}, {"time": 182880, "pitch": 70, "duration": 1920, "velocity": 100}, {"time": 182880, "pitch": 74, "duration": 1920, "velocity": 108}, {"time": 182880, "pitch": 77, "duration": 1920, "velocity": 86}, {"time": 184800, "pitch": 53, "duration": 1920, "velocity": 85}, {"time": 184800, "pitch": 65, "duration": 1920, "velocity": 99}, {"time": 184800, "pitch": 69, "duration": 1920, "velocity": 106}, {"time": 184800, "pitch": 72, "duration": 1920, "velocity": 99}, {"time": 184800, "pitch": 76, "duration": 1920, "velocity": 101}, {"time": 185160, "pitch": 57, "duration": 270, "velocity": 89}, {"time": 185160, "pitch": 60, "duration": 250, "velocity": 90}, {"time": 185160, "pitch": 64, "duration": 260, "velocity": 99}, {"time": 185520, "pitch": 57, "duration": 1020, "velocity": 94}, {"time": 185520, "pitch": 60, "duration": 1000, "velocity": 98}, {"time": 185520, "pitch": 64, "duration": 1030, "velocity": 101}, {"time": 186720, "pitch": 41, "duration": 960, "velocity": 73}, {"time": 186720, "pitch": 56, "duration": 960, "velocity": 101}, {"time": 186720, "pitch": 60, "duration": 960, "velocity": 100}, {"time": 186720, "pitch": 63, "duration": 960, "velocity": 101}, {"time": 186720, "pitch": 67, "duration": 960, "velocity": 97}, {"time": 187680, "pitch": 43, "duration": 960, "velocity": 78}, {"time": 187680, "pitch": 57, "duration": 960, "velocity": 108}, {"time": 187680, "pitch": 60, "duration": 960, "velocity": 109}, {"time": 187680, "pitch": 62, "duration": 960, "velocity": 112}, {"time": 187680, "pitch": 65, "duration": 960, "velocity": 99}, {"time": 188640, "pitch": 48, "duration": 1920, "velocity": 87}, {"time": 188640, "pitch": 67, "duration": 1920, "velocity": 100}, {"time": 188640, "pitch": 72, "duration": 1920, "velocity": 107}, {"time": 188640, "pitch": 76, "duration": 1920, "velocity": 110}, {"time": 190560, "pitch": 48, "duration": 1920, "velocity": 87}, {"time": 190560, "pitch": 67, "duration": 1920, "velocity": 93}, {"time": 190560, "pitch": 70, "duration": 1920, "velocity": 110}, {"time": 190560, "pitch": 74, "duration": 1920, "velocity": 108}, {"time": 190560, "pitch": 77, "duration": 1920, "velocity": 108}, {"time": 192480, "pitch": 53, "duration": 1920, "velocity": 85}, {"time": 192480, "pitch": 65, "duration": 1920, "velocity": 86}, {"time": 192480, "pitch": 69, "duration": 1920, "velocity": 103}, {"time": 192480, "pitch": 72, "duration": 1920, "velocity": 102}, {"time": 192480, "pitch": 76, "duration": 1920, "velocity": 99}, {"time": 194400, "pitch": 41, "duration": 960, "velocity": 76}, {"time": 194400, "pitch": 56, "duration": 960, "velocity": 101}, {"time": 194400, "pitch": 60, "duration": 960, "velocity": 103}, {"time": 194400, "pitch": 63, "duration": 960, "velocity": 101}, {"time": 194400, "pitch": 67, "duration": 960, "velocity": 97}, {"time": 195360, "pitch": 43, "duration": 960, "velocity": 75}, {"time": 195360, "pitch": 57, "duration": 960, "velocity": 108}, {"time": 195360, "pitch": 60, "duration": 960, "velocity": 109}, {"time": 195360, "pitch": 62, "duration": 960, "velocity": 98}, {"time": 195360, "pitch": 65, "duration": 960, "velocity": 99}, {"time": 196320, "pitch": 48, "duration": 1920, "velocity": 87}, {"time": 196320, "pitch": 67, "duration": 1920, "velocity": 100}, {"time": 196320, "pitch": 72, "duration": 1920, "velocity": 107}, {"time": 196320, "pitch": 76, "duration": 1920, "velocity": 110}, {"time": 198240, "pitch": 48, "duration": 960, "velocity": 87}, {"time": 198240, "pitch": 67, "duration": 960, "velocity": 93}, {"time": 198240, "pitch": 70, "duration": 960, "velocity": 110}, {"time": 198240, "pitch": 74, "duration": 960, "velocity": 108}, {"time": 198240, "pitch": 77, "duration": 960, "velocity": 108}, {"time": 199200, "pitch": 48, "duration": 960, "velocity": 84}, {"time": 199200, "pitch": 67, "duration": 960, "velocity": 93}, {"time": 199200, "pitch": 70, "duration": 960, "velocity": 110}, {"time": 199200, "pitch": 72, "duration": 960, "velocity": 108}, {"time": 199200, "pitch": 76, "duration": 960, "velocity": 108}, {"time": 200160, "pitch": 53, "duration": 1920, "velocity": 85}, {"time": 200160, "pitch": 65, "duration": 1920, "velocity": 99}, {"time": 200160, "pitch": 69, "duration": 1920, "velocity": 106}, {"time": 200160, "pitch": 72, "duration": 1920, "velocity": 99}, {"time": 200160, "pitch": 76, "duration": 1920, "velocity": 101}, {"time": 200520, "pitch": 57, "duration": 270, "velocity": 89}, {"time": 200520, "pitch": 60, "duration": 250, "velocity": 90}, {"time": 200520, "pitch": 64, "duration": 260, "velocity": 99}, {"time": 200880, "pitch": 57, "duration": 1020, "velocity": 94}, {"time": 200880, "pitch": 60, "duration": 1000, "velocity": 98}, {"time": 200880, "pitch": 64, "duration": 1030, "velocity": 101}, {"time": 202080, "pitch": 41, "duration": 960, "velocity": 77}, {"time": 202080, "pitch": 56, "duration": 960, "velocity": 101}, {"time": 202080, "pitch": 60, "duration": 960, "velocity": 115}, {"time": 202080, "pitch": 63, "duration": 960, "velocity": 101}, {"time": 202080, "pitch": 67, "duration": 960, "velocity": 97}, {"time": 203040, "pitch": 43, "duration": 960, "velocity": 75}, {"time": 203040, "pitch": 57, "duration": 960, "velocity": 108}, {"time": 203040, "pitch": 60, "duration": 960, "velocity": 109}, {"time": 203040, "pitch": 62, "duration": 960, "velocity": 112}, {"time": 203040, "pitch": 65, "duration": 960, "velocity": 99}, {"time": 204000, "pitch": 48, "duration": 1920, "velocity": 87}, {"time": 204000, "pitch": 67, "duration": 1920, "velocity": 100}, {"time": 204000, "pitch": 72, "duration": 1920, "velocity": 107}, {"time": 204000, "pitch": 76, "duration": 1920, "velocity": 110}, {"time": 205920, "pitch": 48, "duration": 1920, "velocity": 87}, {"time": 205920, "pitch": 67, "duration": 1920, "velocity": 93}, {"time": 205920, "pitch": 70, "duration": 1920, "velocity": 110}, {"time": 205920, "pitch": 74, "duration": 1920, "velocity": 108}, {"time": 205920, "pitch": 77, "duration": 1920, "velocity": 108}, {"time": 207840, "pitch": 53, "duration": 1920, "velocity": 85}, {"time": 207840, "pitch": 65, "duration": 1920, "velocity": 88}, {"time": 207840, "pitch": 69, "duration": 1920, "velocity": 96}, {"time": 207840, "pitch": 72, "duration": 1920, "velocity": 106}, {"time": 207840, "pitch": 76, "duration": 1920, "velocity": 101}, {"time": 209760, "pitch": 41, "duration": 960, "velocity": 77}, {"time": 209760, "pitch": 56, "duration": 960, "velocity": 101}, {"time": 209760, "pitch": 60, "duration": 960, "velocity": 102}, {"time": 209760, "pitch": 63, "duration": 960, "velocity": 101}, {"time": 209760, "pitch": 67, "duration": 960, "velocity": 97}, {"time": 210720, "pitch": 43, "duration": 960, "velocity": 87}, {"time": 210720, "pitch": 57, "duration": 960, "velocity": 108}, {"time": 210720, "pitch": 60, "duration": 960, "velocity": 109}, {"time": 210720, "pitch": 62, "duration": 960, "velocity": 112}, {"time": 210720, "pitch": 65, "duration": 960, "velocity": 99}, {"time": 211680, "pitch": 48, "duration": 1920, "velocity": 87}, {"time": 211680, "pitch": 67, "duration": 1920, "velocity": 100}, {"time": 211680, "pitch": 72, "duration": 1920, "velocity": 107}, {"time": 211680, "pitch": 76, "duration": 1920, "velocity": 110}, {"time": 213600, "pitch": 48, "duration": 1920, "velocity": 87}, {"time": 213600, "pitch": 67, "duration": 1920, "velocity": 93}, {"time": 213600, "pitch": 70, "duration": 1920, "velocity": 100}, {"time": 213600, "pitch": 74, "duration": 1920, "velocity": 108}, {"time": 213600, "pitch": 77, "duration": 1920, "velocity": 86}, {"time": 215520, "pitch": 53, "duration": 1920, "velocity": 85}, {"time": 215520, "pitch": 65, "duration": 1920, "velocity": 99}, {"time": 215520, "pitch": 69, "duration": 1920, "velocity": 106}, {"time": 215520, "pitch": 72, "duration": 1920, "velocity": 99}, {"time": 215520, "pitch": 76, "duration": 1920, "velocity": 101}, {"time": 215880, "pitch": 57, "duration": 270, "velocity": 89}, {"time": 215880, "pitch": 60, "duration": 250, "velocity": 90}, {"time": 215880, "pitch": 64, "duration": 260, "velocity": 99}, {"time": 216240, "pitch": 57, "duration": 1020, "velocity": 94}, {"time": 216240, "pitch": 60, "duration": 1000, "velocity": 98}, {"time": 216240, "pitch": 64, "duration": 1030, "velocity": 101}, {"time": 217440, "pitch": 41, "duration": 960, "velocity": 73}, {"time": 217440, "pitch": 56, "duration": 960, "velocity": 101}, {"time": 217440, "pitch": 60, "duration": 960, "velocity": 100}, {"time": 217440, "pitch": 63, "duration": 960, "velocity": 101}, {"time": 217440, "pitch": 67, "duration": 960, "velocity": 97}, {"time": 218400, "pitch": 43, "duration": 960, "velocity": 78}, {"time": 218400, "pitch": 57, "duration": 960, "velocity": 108}, {"time": 218400, "pitch": 60, "duration": 960, "velocity": 109}, {"time": 218400, "pitch": 62, "duration": 960, "velocity": 112}, {"time": 218400, "pitch": 65, "duration": 960, "velocity": 99}, {"time": 219360, "pitch": 48, "duration": 1920, "velocity": 87}, {"time": 219360, "pitch": 67, "duration": 1920, "velocity": 100}, {"time": 219360, "pitch": 72, "duration": 1920, "velocity": 107}, {"time": 219360, "pitch": 76, "duration": 1920, "velocity": 110}, {"time": 221280, "pitch": 48, "duration": 1920, "velocity": 87}, {"time": 221280, "pitch": 67, "duration": 1920, "velocity": 93}, {"time": 221280, "pitch": 70, "duration": 1920, "velocity": 110}, {"time": 221280, "pitch": 74, "duration": 1920, "velocity": 108}, {"time": 221280, "pitch": 77, "duration": 1920, "velocity": 108}, {"time": 223200, "pitch": 53, "duration": 1920, "velocity": 85}, {"time": 223200, "pitch": 65, "duration": 1920, "velocity": 86}, {"time": 223200, "pitch": 69, "duration": 1920, "velocity": 103}, {"time": 223200, "pitch": 72, "duration": 1920, "velocity": 102}, {"time": 223200, "pitch": 76, "duration": 1920, "velocity": 99}, {"time": 225120, "pitch": 41, "duration": 960, "velocity": 76}, {"time": 225120, "pitch": 56, "duration": 960, "velocity": 101}, {"time": 225120, "pitch": 60, "duration": 960, "velocity": 103}, {"time": 225120, "pitch": 63, "duration": 960, "velocity": 101}, {"time": 225120, "pitch": 67, "duration": 960, "velocity": 97}, {"time": 226080, "pitch": 43, "duration": 960, "velocity": 75}, {"time": 226080, "pitch": 57, "duration": 960, "velocity": 108}, {"time": 226080, "pitch": 60, "duration": 960, "velocity": 109}, {"time": 226080, "pitch": 62, "duration": 960, "velocity": 98}, {"time": 226080, "pitch": 65, "duration": 960, "velocity": 99}, {"time": 227040, "pitch": 48, "duration": 1920, "velocity": 87}, {"time": 227040, "pitch": 67, "duration": 1920, "velocity": 100}, {"time": 227040, "pitch": 72, "duration": 1920, "velocity": 107}, {"time": 227040, "pitch": 76, "duration": 1920, "velocity": 110}, {"time": 228960, "pitch": 48, "duration": 960, "velocity": 87}, {"time": 228960, "pitch": 67, "duration": 960, "velocity": 93}, {"time": 228960, "pitch": 70, "duration": 960, "velocity": 110}, {"time": 228960, "pitch": 74, "duration": 960, "velocity": 108}, {"time": 228960, "pitch": 77, "duration": 960, "velocity": 108}, {"time": 229920, "pitch": 48, "duration": 960, "velocity": 84}, {"time": 229920, "pitch": 67, "duration": 960, "velocity": 93}, {"time": 229920, "pitch": 70, "duration": 960, "velocity": 110}, {"time": 229920, "pitch": 72, "duration": 960, "velocity": 108}, {"time": 229920, "pitch": 76, "duration": 960, "velocity": 108}, {"time": 230880, "pitch": 53, "duration": 1920, "velocity": 85}, {"time": 230880, "pitch": 65, "duration": 1920, "velocity": 99}, {"time": 230880, "pitch": 69, "duration": 1920, "velocity": 106}, {"time": 230880, "pitch": 72, "duration": 1920, "velocity": 99}, {"time": 230880, "pitch": 76, "duration": 1920, "velocity": 101}, {"time": 231240, "pitch": 57, "duration": 270, "velocity": 89}, {"time": 231240, "pitch": 60, "duration": 250, "velocity": 90}, {"time": 231240, "pitch": 64, "duration": 260, "velocity": 99}, {"time": 231600, "pitch": 57, "duration": 1020, "velocity": 94}, {"time": 231600, "pitch": 60, "duration": 1000, "velocity": 98}, {"time": 231600, "pitch": 64, "duration": 1030, "velocity": 101}, {"time": 232800, "pitch": 41, "duration": 960, "velocity": 77}, {"time": 232800, "pitch": 56, "duration": 960, "velocity": 101}, {"time": 232800, "pitch": 60, "duration": 960, "velocity": 115}, {"time": 232800, "pitch": 63, "duration": 960, "velocity": 101}, {"time": 232800, "pitch": 67, "duration": 960, "velocity": 97}, {"time": 233760, "pitch": 43, "duration": 960, "velocity": 75}, {"time": 233760, "pitch": 57, "duration": 960, "velocity": 108}, {"time": 233760, "pitch": 60, "duration": 960, "velocity": 109}, {"time": 233760, "pitch": 62, "duration": 960, "velocity": 112}, {"time": 233760, "pitch": 65, "duration": 960, "velocity": 99}, {"time": 234720, "pitch": 36, "duration": 220, "velocity": 87}, {"time": 234720, "pitch": 48, "duration": 220, "velocity": 87}, {"time": 234720, "pitch": 64, "duration": 220, "velocity": 95}, {"time": 234720, "pitch": 67, "duration": 240, "velocity": 94}, {"time": 234720, "pitch": 72, "duration": 230, "velocity": 99}, {"time": 234960, "pitch": 36, "duration": 100, "velocity": 93}, {"time": 234960, "pitch": 48, "duration": 100, "velocity": 93}, {"time": 234960, "pitch": 64, "duration": 90, "velocity": 100}, {"time": 234960, "pitch": 67, "duration": 100, "velocity": 93}, {"time": 234960, "pitch": 72, "duration": 100, "velocity": 107}, {"time": 235440, "pitch": 41, "duration": 390, "velocity": 87}, {"time": 235440, "pitch": 65, "duration": 380, "velocity": 99}, {"time": 235440, "pitch": 68, "duration": 370, "velocity": 117}, {"time": 235440, "pitch": 75, "duration": 380, "velocity": 103}, {"time": 235920, "pitch": 43, "duration": 440, "velocity": 87}, {"time": 235920, "pitch": 65, "duration": 400, "velocity": 96}, {"time": 235920, "pitch": 68, "duration": 380, "velocity": 100}, {"time": 235920, "pitch": 74, "duration": 410, "velocity": 97}, {"time": 236400, "pitch": 46, "duration": 160, "velocity": 87}, {"time": 236400, "pitch": 65, "duration": 160, "velocity": 97}, {"time": 236400, "pitch": 68, "duration": 160, "velocity": 108}, {"time": 236400, "pitch": 72, "duration": 150, "velocity": 105}, {"time": 236640, "pitch": 36, "duration": 220, "velocity": 87}, {"time": 236640, "pitch": 48, "duration": 220, "velocity": 87}, {"time": 236640, "pitch": 64, "duration": 220, "velocity": 108}, {"time": 236640, "pitch": 67, "duration": 240, "velocity": 98}, {"time": 236640, "pitch": 72, "duration": 230, "velocity": 105}, {"time": 236880, "pitch": 36, "duration": 100, "velocity": 87}, {"time": 236880, "pitch": 48, "duration": 100, "velocity": 87}, {"time": 236880, "pitch": 64, "duration": 90, "velocity": 81}, {"time": 236880, "pitch": 67, "duration": 100, "velocity": 93}, {"time": 236880, "pitch": 72, "duration": 100, "velocity": 107}, {"time": 237360, "pitch": 41, "duration": 390, "velocity": 87}, {"time": 237360, "pitch": 65, "duration": 380, "velocity": 99}, {"time": 237360, "pitch": 68, "duration": 370, "velocity": 105}, {"time": 237360, "pitch": 75, "duration": 380, "velocity": 117}, {"time": 237840, "pitch": 43, "duration": 440, "velocity": 87}, {"time": 237840, "pitch": 65, "duration": 400, "velocity": 96}, {"time": 237840, "pitch": 68, "duration": 380, "velocity": 108}, {"time": 237840, "pitch": 74, "duration": 410, "velocity": 115}, {"time": 238320, "pitch": 46, "duration": 160, "velocity": 87}, {"time": 238320, "pitch": 65, "duration": 160, "velocity": 97}, {"time": 238320, "pitch": 68, "duration": 160, "velocity": 117}, {"time": 238320, "pitch": 72, "duration": 150, "velocity": 112}, {"time": 238560, "pitch": 36, "duration": 220, "velocity": 87}, {"time": 238560, "pitch": 48, "duration": 220, "velocity": 87}, {"time": 238560, "pitch": 64, "duration": 220, "velocity": 108}, {"time": 238560, "pitch": 67, "duration": 240, "velocity": 98}, {"time": 238560, "pitch": 72, "duration": 230, "velocity": 105}, {"time": 238800, "pitch": 36, "duration": 100, "velocity": 87}, {"time": 238800, "pitch": 48, "duration": 100, "velocity": 87}, {"time": 238800, "pitch": 64, "duration": 90, "velocity": 81}, {"time": 238800, "pitch": 67, "duration": 100, "velocity": 93}, {"time": 238800, "pitch": 72, "duration": 100, "velocity": 107}, {"time": 239280, "pitch": 41, "duration": 80, "velocity": 87}, {"time": 239280, "pitch": 65, "duration": 80, "velocity": 99}, {"time": 239280, "pitch": 68, "duration": 80, "velocity": 105}, {"time": 239280, "pitch": 75, "duration": 80, "velocity": 117}, {"time": 239760, "pitch": 43, "duration": 80, "velocity": 87}, {"time": 239760, "pitch": 65, "duration": 80, "velocity": 96}, {"time": 239760, "pitch": 68, "duration": 80, "velocity": 108}, {"time": 239760, "pitch": 74, "duration": 80, "velocity": 115}, {"time": 240240, "pitch": 46, "duration": 160, "velocity": 87}, {"time": 240240, "pitch": 65, "duration": 160, "velocity": 97}, {"time": 240240, "pitch": 68, "duration": 160, "velocity": 117}, {"time": 240240, "pitch": 72, "duration": 80, "velocity": 112}, {"time": 240480, "pitch": 36, "duration": 220, "velocity": 87}, {"time": 240480, "pitch": 48, "duration": 220, "velocity": 87}, {"time": 240480, "pitch": 64, "duration": 220, "velocity": 108}, {"time": 240480, "pitch": 67, "duration": 240, "velocity": 98}, {"time": 240480, "pitch": 72, "duration": 230, "velocity": 105}, {"time": 240720, "pitch": 36, "duration": 100, "velocity": 87}, {"time": 240720, "pitch": 48, "duration": 100, "velocity": 87}, {"time": 240720, "pitch": 64, "duration": 90, "velocity": 81}, {"time": 240720, "pitch": 67, "duration": 100, "velocity": 93}, {"time": 240720, "pitch": 72, "duration": 100, "velocity": 107}, {"time": 241200, "pitch": 41, "duration": 80, "velocity": 87}, {"time": 241200, "pitch": 65, "duration": 80, "velocity": 99}, {"time": 241200, "pitch": 68, "duration": 80, "velocity": 105}, {"time": 241200, "pitch": 75, "duration": 80, "velocity": 117}, {"time": 241680, "pitch": 43, "duration": 80, "velocity": 87}, {"time": 241680, "pitch": 65, "duration": 80, "velocity": 96}, {"time": 241680, "pitch": 68, "duration": 80, "velocity": 108}, {"time": 241680, "pitch": 74, "duration": 80, "velocity": 115}, {"time": 242160, "pitch": 46, "duration": 160, "velocity": 87}, {"time": 242160, "pitch": 65, "duration": 160, "velocity": 97}, {"time": 242160, "pitch": 68, "duration": 160, "velocity": 117}, {"time": 242160, "pitch": 72, "duration": 80, "velocity": 112}, {"time": 242400, "pitch": 36, "duration": 220, "velocity": 87}, {"time": 242400, "pitch": 48, "duration": 220, "velocity": 87}, {"time": 242400, "pitch": 64, "duration": 220, "velocity": 108}, {"time": 242400, "pitch": 67, "duration": 240, "velocity": 98}, {"time": 242400, "pitch": 72, "duration": 230, "velocity": 105}, {"time": 242640, "pitch": 36, "duration": 100, "velocity": 87}, {"time": 242640, "pitch": 48, "duration": 100, "velocity": 87}, {"time": 242640, "pitch": 64, "duration": 90, "velocity": 81}, {"time": 242640, "pitch": 67, "duration": 100, "velocity": 93}, {"time": 242640, "pitch": 72, "duration": 100, "velocity": 107}], "annotations": [{"time": 288, "annotation": {"number": 0, "value": 8}, "group": "control_change"}, {"time": 304, "annotation": {"number": 32, "value": 2}, "group": "control_change"}, {"time": 336, "annotation": {"number": 7, "value": 87}, "group": "control_change"}, {"time": 352, "annotation": {"number": 11, "value": 127}, "group": "control_change"}, {"time": 368, "annotation": {"number": 10, "value": 61}, "group": "control_change"}, {"time": 384, "annotation": {"number": 91, "value": 42}, "group": "control_change"}, {"time": 400, "annotation": {"number": 93, "value": 15}, "group": "control_change"}, {"time": 416, "annotation": {"number": 101, "value": 0}, "group": "control_change"}, {"time": 432, "annotation": {"number": 100, "value": 0}, "group": "control_change"}, {"time": 448, "annotation": {"number": 6, "value": 12}, "group": "control_change"}, {"time": 464, "annotation": {"number": 101, "value": 127}, "group": "control_change"}, {"time": 480, "annotation": {"number": 100, "value": 127}, "group": "control_change"}]}, {"program": 0, "is_drum": false, "name": "BASS", "annotations": [{"time": 288, "annotation": {"number": 0, "value": 0}, "group": "control_change"}, {"time": 304, "annotation": {"number": 32, "value": 2}, "group": "control_change"}]}, {"program": 33, "is_drum": false, "name": "BASS", "notes": [{"time": 480, "pitch": 36, "duration": 3100, "velocity": 106}, {"time": 3600, "pitch": 37, "duration": 240, "velocity": 109}, {"time": 3840, "pitch": 38, "duration": 210, "velocity": 107}, {"time": 4080, "pitch": 39, "duration": 3320, "velocity": 115}, {"time": 4200, "pitch": 40, "duration": 70, "velocity": 89}, {"time": 7440, "pitch": 38, "duration": 210, "velocity": 97}, {"time": 7680, "pitch": 37, "duration": 190, "velocity": 98}, {"time": 7920, "pitch": 36, "duration": 3290, "velocity": 97}, {"time": 11280, "pitch": 37, "duration": 210, "velocity": 100}, {"time": 11520, "pitch": 38, "duration": 200, "velocity": 106}, {"time": 11760, "pitch": 39, "duration": 3290, "velocity": 106}, {"time": 15120, "pitch": 38, "duration": 230, "velocity": 114}, {"time": 15360, "pitch": 37, "duration": 230, "velocity": 113}, {"time": 15600, "pitch": 36, "duration": 200, "velocity": 100}, {"time": 15840, "pitch": 43, "duration": 200, "velocity": 112}, {"time": 16080, "pitch": 43, "duration": 100, "velocity": 114}, {"time": 16800, "pitch": 43, "duration": 170, "velocity": 112}, {"time": 17040, "pitch": 43, "duration": 120, "velocity": 110}, {"time": 17520, "pitch": 43, "duration": 80, "velocity": 108}, {"time": 18240, "pitch": 43, "duration": 1420, "velocity": 110}, {"time": 19680, "pitch": 36, "duration": 390, "velocity": 105}, {"time": 20160, "pitch": 48, "duration": 360, "velocity": 104}, {"time": 20541, "pitch": 43, "duration": 90, "velocity": 89}, {"time": 20640, "pitch": 48, "duration": 110, "velocity": 101}, {"time": 20781, "pitch": 43, "duration": 90, "velocity": 89}, {"time": 20880, "pitch": 48, "duration": 380, "velocity": 97}, {"time": 21360, "pitch": 48, "duration": 210, "velocity": 91}, {"time": 21600, "pitch": 36, "duration": 390, "velocity": 105}, {"time": 22080, "pitch": 48, "duration": 360, "velocity": 104}, {"time": 22461, "pitch": 43, "duration": 90, "velocity": 89}, {"time": 22560, "pitch": 48, "duration": 110, "velocity": 101}, {"time": 22701, "pitch": 43, "duration": 90, "velocity": 89}, {"time": 22800, "pitch": 48, "duration": 380, "velocity": 97}, {"time": 23280, "pitch": 48, "duration": 210, "velocity": 91}, {"time": 23520, "pitch": 36, "duration": 390, "velocity": 105}, {"time": 24000, "pitch": 48, "duration": 360, "velocity": 104}, {"time": 24381, "pitch": 43, "duration": 90, "velocity": 89}, {"time": 24480, "pitch": 48, "duration": 110, "velocity": 101}, {"time": 24621, "pitch": 43, "duration": 90, "velocity": 89}, {"time": 24720, "pitch": 48, "duration": 380, "velocity": 97}, {"time": 25200, "pitch": 48, "duration": 210, "velocity": 91}, {"time": 25440, "pitch": 41, "duration": 230, "velocity": 104}, {"time": 25680, "pitch": 41, "duration": 150, "velocity": 97}, {"time": 25920, "pitch": 41, "duration": 120, "velocity": 101}, {"time": 26061, "pitch": 48, "duration": 150, "velocity": 106}, {"time": 26160, "pitch": 53, "duration": 210, "velocity": 99}, {"time": 26400, "pitch": 43, "duration": 100, "velocity": 103}, {"time": 26781, "pitch": 43, "duration": 140, "velocity": 104}, {"time": 27120, "pitch": 43, "duration": 210, "velocity": 97}, {"time": 27360, "pitch": 36, "duration": 390, "velocity": 105}, {"time": 27840, "pitch": 48, "duration": 360, "velocity": 104}, {"time": 28221, "pitch": 43, "duration": 90, "velocity": 89}, {"time": 28320, "pitch": 48, "duration": 110, "velocity": 101}, {"time": 28461, "pitch": 43, "duration": 90, "velocity": 89}, {"time": 28560, "pitch": 48, "duration": 380, "velocity": 97}, {"time": 29040, "pitch": 48, "duration": 210, "velocity": 91}, {"time": 29280, "pitch": 36, "duration": 390, "velocity": 105}, {"time": 29760, "pitch": 48, "duration": 360, "velocity": 104}, {"time": 30141, "pitch": 43, "duration": 90, "velocity": 89}, {"time": 30240, "pitch": 48, "duration": 110, "velocity": 101}, {"time": 30381, "pitch": 43, "duration": 90, "velocity": 89}, {"time": 30480, "pitch": 48, "duration": 380, "velocity": 97}, {"time": 30960, "pitch": 48, "duration": 210, "velocity": 91}, {"time": 31200, "pitch": 41, "duration": 390, "velocity": 105}, {"time": 31680, "pitch": 41, "duration": 360, "velocity": 104}, {"time": 32061, "pitch": 36, "duration": 90, "velocity": 89}, {"time": 32160, "pitch": 41, "duration": 110, "velocity": 101}, {"time": 32301, "pitch": 36, "duration": 90, "velocity": 89}, {"time": 32400, "pitch": 41, "duration": 380, "velocity": 97}, {"time": 32880, "pitch": 41, "duration": 210, "velocity": 91}, {"time": 33120, "pitch": 40, "duration": 340, "velocity": 108}, {"time": 33501, "pitch": 40, "duration": 70, "velocity": 89}, {"time": 33600, "pitch": 43, "duration": 110, "velocity": 105}, {"time": 33741, "pitch": 40, "duration": 70, "velocity": 97}, {"time": 33840, "pitch": 39, "duration": 360, "velocity": 106}, {"time": 34320, "pitch": 46, "duration": 100, "velocity": 105}, {"time": 34560, "pitch": 39, "duration": 270, "velocity": 102}, {"time": 34800, "pitch": 34, "duration": 200, "velocity": 97}, {"time": 35040, "pitch": 38, "duration": 340, "velocity": 107}, {"time": 35421, "pitch": 45, "duration": 310, "velocity": 102}, {"time": 35760, "pitch": 50, "duration": 930, "velocity": 104}, {"time": 36720, "pitch": 45, "duration": 160, "velocity": 106}, {"time": 36960, "pitch": 41, "duration": 370, "velocity": 107}, {"time": 37341, "pitch": 48, "duration": 350, "velocity": 103}, {"time": 37680, "pitch": 53, "duration": 460, "velocity": 105}, {"time": 38160, "pitch": 41, "duration": 190, "velocity": 97}, {"time": 38400, "pitch": 43, "duration": 170, "velocity": 103}, {"time": 38640, "pitch": 41, "duration": 180, "velocity": 89}, {"time": 38880, "pitch": 40, "duration": 350, "velocity": 108}, {"time": 39261, "pitch": 40, "duration": 70, "velocity": 89}, {"time": 39360, "pitch": 46, "duration": 200, "velocity": 102}, {"time": 39600, "pitch": 47, "duration": 400, "velocity": 96}, {"time": 40080, "pitch": 52, "duration": 170, "velocity": 101}, {"time": 40320, "pitch": 40, "duration": 410, "velocity": 92}, {"time": 40800, "pitch": 45, "duration": 460, "velocity": 109}, {"time": 41280, "pitch": 43, "duration": 400, "velocity": 107}, {"time": 41760, "pitch": 41, "duration": 440, "velocity": 103}, {"time": 42240, "pitch": 40, "duration": 440, "velocity": 103}, {"time": 42720, "pitch": 41, "duration": 230, "velocity": 107}, {"time": 42960, "pitch": 53, "duration": 90, "velocity": 102}, {"time": 43200, "pitch": 41, "duration": 240, "velocity": 104}, {"time": 43440, "pitch": 40, "duration": 480, "velocity": 109}, {"time": 43920, "pitch": 52, "duration": 100, "velocity": 106}, {"time": 44160, "pitch": 40, "duration": 220, "velocity": 106}, {"time": 44400, "pitch": 52, "duration": 80, "velocity": 106}, {"time": 44640, "pitch": 39, "duration": 220, "velocity": 104}, {"time": 44880, "pitch": 51, "duration": 80, "velocity": 98}, {"time": 45120, "pitch": 39, "duration": 200, "velocity": 105}, {"time": 45360, "pitch": 40, "duration": 480, "velocity": 105}, {"time": 45840, "pitch": 52, "duration": 80, "velocity": 103}, {"time": 46080, "pitch": 40, "duration": 190, "velocity": 104}, {"time": 46320, "pitch": 52, "duration": 100, "velocity": 96}, {"time": 46560, "pitch": 38, "duration": 680, "velocity": 107}, {"time": 47280, "pitch": 40, "duration": 440, "velocity": 105}, {"time": 47760, "pitch": 41, "duration": 440, "velocity": 102}, {"time": 48240, "pitch": 42, "duration": 180, "velocity": 99}, {"time": 48480, "pitch": 43, "duration": 210, "velocity": 107}, {"time": 48720, "pitch": 43, "duration": 100, "velocity": 111}, {"time": 50400, "pitch": 36, "duration": 210, "velocity": 112}, {"time": 50640, "pitch": 36, "duration": 170, "velocity": 108}, {"time": 50880, "pitch": 39, "duration": 110, "velocity": 102}, {"time": 51021, "pitch": 40, "duration": 80, "velocity": 94}, {"time": 51120, "pitch": 43, "duration": 170, "velocity": 97}, {"time": 51360, "pitch": 44, "duration": 200, "velocity": 105}, {"time": 51600, "pitch": 45, "duration": 170, "velocity": 89}, {"time": 51840, "pitch": 48, "duration": 160, "velocity": 109}, {"time": 52080, "pitch": 36, "duration": 200, "velocity": 92}, {"time": 52320, "pitch": 36, "duration": 210, "velocity": 112}, {"time": 52560, "pitch": 36, "duration": 170, "velocity": 108}, {"time": 52800, "pitch": 39, "duration": 110, "velocity": 102}, {"time": 52941, "pitch": 40, "duration": 80, "velocity": 94}, {"time": 53040, "pitch": 43, "duration": 170, "velocity": 97}, {"time": 53280, "pitch": 46, "duration": 180, "velocity": 102}, {"time": 53520, "pitch": 50, "duration": 200, "velocity": 96}, {"time": 53760, "pitch": 46, "duration": 200, "velocity": 93}, {"time": 54000, "pitch": 43, "duration": 220, "velocity": 93}, {"time": 54240, "pitch": 41, "duration": 230, "velocity": 111}, {"time": 54480, "pitch": 36, "duration": 140, "velocity": 89}, {"time": 54720, "pitch": 37, "duration": 110, "velocity": 91}, {"time": 54861, "pitch": 38, "duration": 80, "velocity": 82}, {"time": 54960, "pitch": 41, "duration": 390, "velocity": 106}, {"time": 55440, "pitch": 36, "duration": 80, "velocity": 106}, {"time": 55680, "pitch": 37, "duration": 110, "velocity": 96}, {"time": 55821, "pitch": 38, "duration": 80, "velocity": 85}, {"time": 55920, "pitch": 41, "duration": 200, "velocity": 97}, {"time": 56160, "pitch": 41, "duration": 200, "velocity": 109}, {"time": 56400, "pitch": 41, "duration": 180, "velocity": 103}, {"time": 56640, "pitch": 48, "duration": 230, "velocity": 98}, {"time": 56880, "pitch": 41, "duration": 230, "velocity": 101}, {"time": 57120, "pitch": 43, "duration": 230, "velocity": 110}, {"time": 57360, "pitch": 50, "duration": 210, "velocity": 97}, {"time": 57600, "pitch": 43, "duration": 170, "velocity": 106}, {"time": 57840, "pitch": 43, "duration": 230, "velocity": 95}, {"time": 58080, "pitch": 36, "duration": 210, "velocity": 113}, {"time": 58320, "pitch": 36, "duration": 170, "velocity": 107}, {"time": 58560, "pitch": 39, "duration": 110, "velocity": 107}, {"time": 58701, "pitch": 40, "duration": 80, "velocity": 93}, {"time": 58800, "pitch": 43, "duration": 170, "velocity": 97}, {"time": 59040, "pitch": 44, "duration": 210, "velocity": 100}, {"time": 59280, "pitch": 45, "duration": 170, "velocity": 89}, {"time": 59520, "pitch": 48, "duration": 160, "velocity": 102}, {"time": 59760, "pitch": 36, "duration": 200, "velocity": 98}, {"time": 60000, "pitch": 36, "duration": 210, "velocity": 110}, {"time": 60240, "pitch": 36, "duration": 150, "velocity": 101}, {"time": 60480, "pitch": 41, "duration": 80, "velocity": 102}, {"time": 60621, "pitch": 42, "duration": 60, "velocity": 84}, {"time": 60720, "pitch": 43, "duration": 220, "velocity": 104}, {"time": 60960, "pitch": 46, "duration": 180, "velocity": 97}, {"time": 61200, "pitch": 50, "duration": 200, "velocity": 100}, {"time": 61440, "pitch": 46, "duration": 200, "velocity": 105}, {"time": 61680, "pitch": 43, "duration": 220, "velocity": 91}, {"time": 61920, "pitch": 41, "duration": 230, "velocity": 103}, {"time": 62160, "pitch": 36, "duration": 140, "velocity": 89}, {"time": 62400, "pitch": 37, "duration": 110, "velocity": 95}, {"time": 62541, "pitch": 38, "duration": 80, "velocity": 84}, {"time": 62640, "pitch": 41, "duration": 390, "velocity": 98}, {"time": 63120, "pitch": 36, "duration": 80, "velocity": 106}, {"time": 63360, "pitch": 37, "duration": 110, "velocity": 95}, {"time": 63501, "pitch": 38, "duration": 80, "velocity": 89}, {"time": 63600, "pitch": 41, "duration": 200, "velocity": 101}, {"time": 63840, "pitch": 41, "duration": 200, "velocity": 109}, {"time": 64080, "pitch": 41, "duration": 180, "velocity": 103}, {"time": 64320, "pitch": 48, "duration": 230, "velocity": 98}, {"time": 64560, "pitch": 41, "duration": 230, "velocity": 101}, {"time": 64800, "pitch": 43, "duration": 230, "velocity": 110}, {"time": 65040, "pitch": 50, "duration": 210, "velocity": 97}, {"time": 65280, "pitch": 43, "duration": 170, "velocity": 106}, {"time": 65520, "pitch": 43, "duration": 230, "velocity": 95}, {"time": 65760, "pitch": 36, "duration": 210, "velocity": 113}, {"time": 66000, "pitch": 36, "duration": 170, "velocity": 107}, {"time": 66240, "pitch": 39, "duration": 110, "velocity": 107}, {"time": 66381, "pitch": 40, "duration": 80, "velocity": 93}, {"time": 66480, "pitch": 43, "duration": 170, "velocity": 97}, {"time": 66720, "pitch": 44, "duration": 210, "velocity": 100}, {"time": 66960, "pitch": 45, "duration": 170, "velocity": 89}, {"time": 67200, "pitch": 48, "duration": 160, "velocity": 102}, {"time": 67440, "pitch": 36, "duration": 200, "velocity": 98}, {"time": 67680, "pitch": 36, "duration": 210, "velocity": 110}, {"time": 67920, "pitch": 36, "duration": 150, "velocity": 101}, {"time": 68160, "pitch": 41, "duration": 80, "velocity": 102}, {"time": 68301, "pitch": 42, "duration": 60, "velocity": 84}, {"time": 68400, "pitch": 43, "duration": 220, "velocity": 104}, {"time": 68640, "pitch": 46, "duration": 180, "velocity": 97}, {"time": 68880, "pitch": 50, "duration": 200, "velocity": 100}, {"time": 69120, "pitch": 46, "duration": 200, "velocity": 105}, {"time": 69360, "pitch": 43, "duration": 220, "velocity": 91}, {"time": 69600, "pitch": 41, "duration": 230, "velocity": 103}, {"time": 69840, "pitch": 36, "duration": 140, "velocity": 89}, {"time": 70080, "pitch": 37, "duration": 110, "velocity": 95}, {"time": 70221, "pitch": 38, "duration": 80, "velocity": 84}, {"time": 70320, "pitch": 41, "duration": 390, "velocity": 98}, {"time": 70800, "pitch": 36, "duration": 80, "velocity": 106}, {"time": 71040, "pitch": 37, "duration": 110, "velocity": 95}, {"time": 71181, "pitch": 38, "duration": 80, "velocity": 89}, {"time": 71280, "pitch": 41, "duration": 200, "velocity": 101}, {"time": 71520, "pitch": 41, "duration": 200, "velocity": 109}, {"time": 71760, "pitch": 41, "duration": 180, "velocity": 103}, {"time": 72000, "pitch": 48, "duration": 230, "velocity": 98}, {"time": 72240, "pitch": 41, "duration": 230, "velocity": 101}, {"time": 72480, "pitch": 43, "duration": 230, "velocity": 110}, {"time": 72720, "pitch": 50, "duration": 210, "velocity": 97}, {"time": 72960, "pitch": 55, "duration": 230, "velocity": 106}, {"time": 73200, "pitch": 43, "duration": 230, "velocity": 100}, {"time": 73440, "pitch": 36, "duration": 210, "velocity": 113}, {"time": 73680, "pitch": 36, "duration": 170, "velocity": 107}, {"time": 73920, "pitch": 39, "duration": 110, "velocity": 107}, {"time": 74061, "pitch": 40, "duration": 80, "velocity": 93}, {"time": 74160, "pitch": 43, "duration": 170, "velocity": 97}, {"time": 74400, "pitch": 44, "duration": 210, "velocity": 100}, {"time": 74640, "pitch": 45, "duration": 170, "velocity": 89}, {"time": 74880, "pitch": 48, "duration": 160, "velocity": 102}, {"time": 75120, "pitch": 36, "duration": 200, "velocity": 98}, {"time": 75360, "pitch": 36, "duration": 210, "velocity": 110}, {"time": 75600, "pitch": 36, "duration": 150, "velocity": 101}, {"time": 75840, "pitch": 41, "duration": 80, "velocity": 102}, {"time": 75981, "pitch": 42, "duration": 60, "velocity": 84}, {"time": 76080, "pitch": 43, "duration": 220, "velocity": 104}, {"time": 76320, "pitch": 48, "duration": 180, "velocity": 97}, {"time": 76560, "pitch": 43, "duration": 200, "velocity": 100}, {"time": 76800, "pitch": 46, "duration": 200, "velocity": 105}, {"time": 77040, "pitch": 43, "duration": 220, "velocity": 91}, {"time": 77280, "pitch": 41, "duration": 230, "velocity": 103}, {"time": 77520, "pitch": 36, "duration": 140, "velocity": 89}, {"time": 77760, "pitch": 37, "duration": 110, "velocity": 95}, {"time": 77901, "pitch": 38, "duration": 80, "velocity": 84}, {"time": 78000, "pitch": 41, "duration": 390, "velocity": 98}, {"time": 78480, "pitch": 36, "duration": 80, "velocity": 106}, {"time": 78720, "pitch": 37, "duration": 110, "velocity": 95}, {"time": 78861, "pitch": 38, "duration": 80, "velocity": 89}, {"time": 78960, "pitch": 41, "duration": 200, "velocity": 101}, {"time": 79200, "pitch": 41, "duration": 200, "velocity": 109}, {"time": 79440, "pitch": 41, "duration": 230, "velocity": 103}, {"time": 79680, "pitch": 48, "duration": 230, "velocity": 98}, {"time": 79920, "pitch": 41, "duration": 150, "velocity": 101}, {"time": 80160, "pitch": 43, "duration": 230, "velocity": 110}, {"time": 80400, "pitch": 50, "duration": 210, "velocity": 97}, {"time": 80640, "pitch": 43, "duration": 170, "velocity": 106}, {"time": 80880, "pitch": 43, "duration": 230, "velocity": 95}, {"time": 81120, "pitch": 48, "duration": 220, "velocity": 115}, {"time": 81360, "pitch": 48, "duration": 110, "velocity": 114}, {"time": 81840, "pitch": 41, "duration": 380, "velocity": 101}, {"time": 82320, "pitch": 43, "duration": 410, "velocity": 96}, {"time": 82800, "pitch": 46, "duration": 210, "velocity": 100}, {"time": 83040, "pitch": 48, "duration": 220, "velocity": 115}, {"time": 83280, "pitch": 48, "duration": 110, "velocity": 114}, {"time": 83760, "pitch": 41, "duration": 380, "velocity": 101}, {"time": 84240, "pitch": 43, "duration": 410, "velocity": 96}, {"time": 84720, "pitch": 46, "duration": 210, "velocity": 99}, {"time": 84960, "pitch": 48, "duration": 1600, "velocity": 99}, {"time": 86640, "pitch": 48, "duration": 160, "velocity": 94}, {"time": 86880, "pitch": 36, "duration": 1760, "velocity": 98}, {"time": 88800, "pitch": 36, "duration": 390, "velocity": 105}, {"time": 89280, "pitch": 48, "duration": 360, "velocity": 104}, {"time": 89661, "pitch": 43, "duration": 90, "velocity": 89}, {"time": 89760, "pitch": 48, "duration": 110, "velocity": 101}, {"time": 89901, "pitch": 43, "duration": 90, "velocity": 89}, {"time": 90000, "pitch": 48, "duration": 380, "velocity": 97}, {"time": 90480, "pitch": 48, "duration": 210, "velocity": 91}, {"time": 90720, "pitch": 36, "duration": 390, "velocity": 105}, {"time": 91200, "pitch": 48, "duration": 360, "velocity": 104}, {"time": 91581, "pitch": 43, "duration": 90, "velocity": 89}, {"time": 91680, "pitch": 48, "duration": 110, "velocity": 101}, {"time": 91821, "pitch": 43, "duration": 90, "velocity": 89}, {"time": 91920, "pitch": 48, "duration": 380, "velocity": 97}, {"time": 92400, "pitch": 48, "duration": 210, "velocity": 91}, {"time": 92640, "pitch": 36, "duration": 390, "velocity": 105}, {"time": 93120, "pitch": 48, "duration": 360, "velocity": 104}, {"time": 93501, "pitch": 43, "duration": 90, "velocity": 89}, {"time": 93600, "pitch": 48, "duration": 110, "velocity": 101}, {"time": 93741, "pitch": 43, "duration": 90, "velocity": 89}, {"time": 93840, "pitch": 48, "duration": 380, "velocity": 97}, {"time": 94320, "pitch": 48, "duration": 210, "velocity": 91}, {"time": 94560, "pitch": 41, "duration": 230, "velocity": 104}, {"time": 94800, "pitch": 41, "duration": 150, "velocity": 97}, {"time": 95040, "pitch": 41, "duration": 120, "velocity": 101}, {"time": 95181, "pitch": 48, "duration": 150, "velocity": 106}, {"time": 95280, "pitch": 53, "duration": 210, "velocity": 99}, {"time": 95520, "pitch": 43, "duration": 100, "velocity": 103}, {"time": 95901, "pitch": 43, "duration": 140, "velocity": 104}, {"time": 96240, "pitch": 43, "duration": 210, "velocity": 97}, {"time": 96480, "pitch": 36, "duration": 390, "velocity": 105}, {"time": 96960, "pitch": 48, "duration": 360, "velocity": 104}, {"time": 97341, "pitch": 43, "duration": 90, "velocity": 89}, {"time": 97440, "pitch": 48, "duration": 110, "velocity": 101}, {"time": 97581, "pitch": 43, "duration": 90, "velocity": 89}, {"time": 97680, "pitch": 48, "duration": 380, "velocity": 97}, {"time": 98160, "pitch": 48, "duration": 210, "velocity": 91}, {"time": 98400, "pitch": 36, "duration": 390, "velocity": 105}, {"time": 98880, "pitch": 48, "duration": 360, "velocity": 104}, {"time": 99261, "pitch": 43, "duration": 90, "velocity": 89}, {"time": 99360, "pitch": 48, "duration": 110, "velocity": 101}, {"time": 99501, "pitch": 43, "duration": 90, "velocity": 89}, {"time": 99600, "pitch": 48, "duration": 380, "velocity": 97}, {"time": 100080, "pitch": 48, "duration": 210, "velocity": 91}, {"time": 100320, "pitch": 41, "duration": 390, "velocity": 105}, {"time": 100800, "pitch": 41, "duration": 360, "velocity": 104}, {"time": 101181, "pitch": 36, "duration": 90, "velocity": 89}, {"time": 101280, "pitch": 41, "duration": 110, "velocity": 101}, {"time": 101421, "pitch": 36, "duration": 90, "velocity": 89}, {"time": 101520, "pitch": 41, "duration": 380, "velocity": 97}, {"time": 102000, "pitch": 41, "duration": 210, "velocity": 91}, {"time": 102240, "pitch": 40, "duration": 340, "velocity": 108}, {"time": 102621, "pitch": 40, "duration": 70, "velocity": 89}, {"time": 102720, "pitch": 43, "duration": 110, "velocity": 105}, {"time": 102861, "pitch": 40, "duration": 70, "velocity": 97}, {"time": 102960, "pitch": 39, "duration": 360, "velocity": 106}, {"time": 103440, "pitch": 46, "duration": 100, "velocity": 105}, {"time": 103680, "pitch": 39, "duration": 270, "velocity": 102}, {"time": 103920, "pitch": 34, "duration": 200, "velocity": 97}, {"time": 104160, "pitch": 38, "duration": 340, "velocity": 107}, {"time": 104541, "pitch": 45, "duration": 310, "velocity": 102}, {"time": 104880, "pitch": 50, "duration": 930, "velocity": 104}, {"time": 105840, "pitch": 45, "duration": 160, "velocity": 106}, {"time": 106080, "pitch": 41, "duration": 370, "velocity": 107}, {"time": 106461, "pitch": 48, "duration": 350, "velocity": 103}, {"time": 106800, "pitch": 53, "duration": 460, "velocity": 105}, {"time": 107280, "pitch": 41, "duration": 190, "velocity": 97}, {"time": 107520, "pitch": 43, "duration": 170, "velocity": 103}, {"time": 107760, "pitch": 41, "duration": 180, "velocity": 89}, {"time": 108000, "pitch": 40, "duration": 350, "velocity": 108}, {"time": 108381, "pitch": 40, "duration": 70, "velocity": 89}, {"time": 108480, "pitch": 46, "duration": 200, "velocity": 102}, {"time": 108720, "pitch": 47, "duration": 400, "velocity": 96}, {"time": 109200, "pitch": 52, "duration": 170, "velocity": 101}, {"time": 109440, "pitch": 40, "duration": 410, "velocity": 92}, {"time": 109920, "pitch": 45, "duration": 460, "velocity": 109}, {"time": 110400, "pitch": 43, "duration": 400, "velocity": 107}, {"time": 110880, "pitch": 41, "duration": 440, "velocity": 103}, {"time": 111360, "pitch": 40, "duration": 440, "velocity": 103}, {"time": 111840, "pitch": 41, "duration": 230, "velocity": 107}, {"time": 112080, "pitch": 53, "duration": 90, "velocity": 102}, {"time": 112320, "pitch": 41, "duration": 240, "velocity": 104}, {"time": 112560, "pitch": 40, "duration": 480, "velocity": 109}, {"time": 113040, "pitch": 52, "duration": 100, "velocity": 106}, {"time": 113280, "pitch": 40, "duration": 220, "velocity": 106}, {"time": 113520, "pitch": 52, "duration": 80, "velocity": 106}, {"time": 113760, "pitch": 39, "duration": 220, "velocity": 104}, {"time": 114000, "pitch": 51, "duration": 80, "velocity": 98}, {"time": 114240, "pitch": 39, "duration": 200, "velocity": 105}, {"time": 114480, "pitch": 40, "duration": 480, "velocity": 105}, {"time": 114960, "pitch": 52, "duration": 80, "velocity": 103}, {"time": 115200, "pitch": 40, "duration": 190, "velocity": 104}, {"time": 115440, "pitch": 52, "duration": 100, "velocity": 96}, {"time": 115680, "pitch": 38, "duration": 680, "velocity": 107}, {"time": 116400, "pitch": 40, "duration": 440, "velocity": 105}, {"time": 116880, "pitch": 41, "duration": 440, "velocity": 102}, {"time": 117360, "pitch": 42, "duration": 180, "velocity": 99}, {"time": 117600, "pitch": 43, "duration": 210, "velocity": 107}, {"time": 117840, "pitch": 43, "duration": 100, "velocity": 111}, {"time": 119520, "pitch": 36, "duration": 210, "velocity": 112}, {"time": 119760, "pitch": 36, "duration": 170, "velocity": 108}, {"time": 120000, "pitch": 39, "duration": 110, "velocity": 102}, {"time": 120141, "pitch": 40, "duration": 80, "velocity": 94}, {"time": 120240, "pitch": 43, "duration": 170, "velocity": 97}, {"time": 120480, "pitch": 44, "duration": 200, "velocity": 105}, {"time": 120720, "pitch": 45, "duration": 170, "velocity": 89}, {"time": 120960, "pitch": 48, "duration": 160, "velocity": 109}, {"time": 121200, "pitch": 36, "duration": 200, "velocity": 92}, {"time": 121440, "pitch": 36, "duration": 210, "velocity": 112}, {"time": 121680, "pitch": 36, "duration": 170, "velocity": 108}, {"time": 121920, "pitch": 39, "duration": 110, "velocity": 102}, {"time": 122061, "pitch": 40, "duration": 80, "velocity": 94}, {"time": 122160, "pitch": 43, "duration": 170, "velocity": 97}, {"time": 122400, "pitch": 46, "duration": 180, "velocity": 102}, {"time": 122640, "pitch": 50, "duration": 200, "velocity": 96}, {"time": 122880, "pitch": 46, "duration": 200, "velocity": 93}, {"time": 123120, "pitch": 43, "duration": 220, "velocity": 93}, {"time": 123360, "pitch": 41, "duration": 230, "velocity": 111}, {"time": 123600, "pitch": 36, "duration": 140, "velocity": 89}, {"time": 123840, "pitch": 37, "duration": 110, "velocity": 91}, {"time": 123981, "pitch": 38, "duration": 80, "velocity": 82}, {"time": 124080, "pitch": 41, "duration": 390, "velocity": 106}, {"time": 124560, "pitch": 36, "duration": 80, "velocity": 106}, {"time": 124800, "pitch": 37, "duration": 110, "velocity": 96}, {"time": 124941, "pitch": 38, "duration": 80, "velocity": 85}, {"time": 125040, "pitch": 41, "duration": 200, "velocity": 97}, {"time": 125280, "pitch": 41, "duration": 200, "velocity": 109}, {"time": 125520, "pitch": 41, "duration": 180, "velocity": 103}, {"time": 125760, "pitch": 48, "duration": 230, "velocity": 98}, {"time": 126000, "pitch": 41, "duration": 230, "velocity": 101}, {"time": 126240, "pitch": 43, "duration": 230, "velocity": 110}, {"time": 126480, "pitch": 50, "duration": 210, "velocity": 97}, {"time": 126720, "pitch": 43, "duration": 170, "velocity": 106}, {"time": 126960, "pitch": 43, "duration": 230, "velocity": 95}, {"time": 127200, "pitch": 36, "duration": 210, "velocity": 113}, {"time": 127440, "pitch": 36, "duration": 170, "velocity": 107}, {"time": 127680, "pitch": 39, "duration": 110, "velocity": 107}, {"time": 127821, "pitch": 40, "duration": 80, "velocity": 93}, {"time": 127920, "pitch": 43, "duration": 170, "velocity": 97}, {"time": 128160, "pitch": 44, "duration": 210, "velocity": 100}, {"time": 128400, "pitch": 45, "duration": 170, "velocity": 89}, {"time": 128640, "pitch": 48, "duration": 160, "velocity": 102}, {"time": 128880, "pitch": 36, "duration": 200, "velocity": 98}, {"time": 129120, "pitch": 36, "duration": 210, "velocity": 110}, {"time": 129360, "pitch": 36, "duration": 150, "velocity": 101}, {"time": 129600, "pitch": 41, "duration": 80, "velocity": 102}, {"time": 129741, "pitch": 42, "duration": 60, "velocity": 84}, {"time": 129840, "pitch": 43, "duration": 220, "velocity": 104}, {"time": 130080, "pitch": 46, "duration": 180, "velocity": 97}, {"time": 130320, "pitch": 50, "duration": 200, "velocity": 100}, {"time": 130560, "pitch": 46, "duration": 200, "velocity": 105}, {"time": 130800, "pitch": 43, "duration": 220, "velocity": 91}, {"time": 131040, "pitch": 41, "duration": 230, "velocity": 103}, {"time": 131280, "pitch": 36, "duration": 140, "velocity": 89}, {"time": 131520, "pitch": 37, "duration": 110, "velocity": 95}, {"time": 131661, "pitch": 38, "duration": 80, "velocity": 84}, {"time": 131760, "pitch": 41, "duration": 390, "velocity": 98}, {"time": 132240, "pitch": 36, "duration": 80, "velocity": 106}, {"time": 132480, "pitch": 37, "duration": 110, "velocity": 95}, {"time": 132621, "pitch": 38, "duration": 80, "velocity": 89}, {"time": 132720, "pitch": 41, "duration": 200, "velocity": 101}, {"time": 132960, "pitch": 41, "duration": 200, "velocity": 109}, {"time": 133200, "pitch": 41, "duration": 180, "velocity": 103}, {"time": 133440, "pitch": 48, "duration": 230, "velocity": 98}, {"time": 133680, "pitch": 41, "duration": 230, "velocity": 101}, {"time": 133920, "pitch": 43, "duration": 230, "velocity": 110}, {"time": 134160, "pitch": 50, "duration": 210, "velocity": 97}, {"time": 134400, "pitch": 43, "duration": 170, "velocity": 106}, {"time": 134640, "pitch": 43, "duration": 230, "velocity": 95}, {"time": 134880, "pitch": 36, "duration": 210, "velocity": 113}, {"time": 135120, "pitch": 36, "duration": 170, "velocity": 107}, {"time": 135360, "pitch": 39, "duration": 110, "velocity": 107}, {"time": 135501, "pitch": 40, "duration": 80, "velocity": 93}, {"time": 135600, "pitch": 43, "duration": 170, "velocity": 97}, {"time": 135840, "pitch": 44, "duration": 210, "velocity": 100}, {"time": 136080, "pitch": 45, "duration": 170, "velocity": 89}, {"time": 136320, "pitch": 48, "duration": 160, "velocity": 102}, {"time": 136560, "pitch": 36, "duration": 200, "velocity": 98}, {"time": 136800, "pitch": 36, "duration": 210, "velocity": 110}, {"time": 137040, "pitch": 36, "duration": 150, "velocity": 101}, {"time": 137280, "pitch": 41, "duration": 80, "velocity": 102}, {"time": 137421, "pitch": 42, "duration": 60, "velocity": 84}, {"time": 137520, "pitch": 43, "duration": 220, "velocity": 104}, {"time": 137760, "pitch": 46, "duration": 180, "velocity": 97}, {"time": 138000, "pitch": 50, "duration": 200, "velocity": 100}, {"time": 138240, "pitch": 46, "duration": 200, "velocity": 105}, {"time": 138480, "pitch": 43, "duration": 220, "velocity": 91}, {"time": 138720, "pitch": 41, "duration": 230, "velocity": 103}, {"time": 138960, "pitch": 36, "duration": 140, "velocity": 89}, {"time": 139200, "pitch": 37, "duration": 110, "velocity": 95}, {"time": 139341, "pitch": 38, "duration": 80, "velocity": 84}, {"time": 139440, "pitch": 41, "duration": 390, "velocity": 98}, {"time": 139920, "pitch": 36, "duration": 80, "velocity": 106}, {"time": 140160, "pitch": 37, "duration": 110, "velocity": 95}, {"time": 140301, "pitch": 38, "duration": 80, "velocity": 89}, {"time": 140400, "pitch": 41, "duration": 200, "velocity": 101}, {"time": 140640, "pitch": 41, "duration": 200, "velocity": 109}, {"time": 140880, "pitch": 41, "duration": 180, "velocity": 103}, {"time": 141120, "pitch": 48, "duration": 230, "velocity": 98}, {"time": 141360, "pitch": 41, "duration": 230, "velocity": 101}, {"time": 141600, "pitch": 43, "duration": 230, "velocity": 110}, {"time": 141840, "pitch": 50, "duration": 210, "velocity": 97}, {"time": 142080, "pitch": 55, "duration": 230, "velocity": 106}, {"time": 142320, "pitch": 43, "duration": 230, "velocity": 100}, {"time": 142560, "pitch": 36, "duration": 210, "velocity": 113}, {"time": 142800, "pitch": 36, "duration": 170, "velocity": 107}, {"time": 143040, "pitch": 39, "duration": 110, "velocity": 107}, {"time": 143181, "pitch": 40, "duration": 80, "velocity": 93}, {"time": 143280, "pitch": 43, "duration": 170, "velocity": 97}, {"time": 143520, "pitch": 44, "duration": 210, "velocity": 100}, {"time": 143760, "pitch": 45, "duration": 170, "velocity": 89}, {"time": 144000, "pitch": 48, "duration": 160, "velocity": 102}, {"time": 144240, "pitch": 36, "duration": 200, "velocity": 98}, {"time": 144480, "pitch": 36, "duration": 210, "velocity": 110}, {"time": 144720, "pitch": 36, "duration": 150, "velocity": 101}, {"time": 144960, "pitch": 41, "duration": 80, "velocity": 102}, {"time": 145101, "pitch": 42, "duration": 60, "velocity": 84}, {"time": 145200, "pitch": 43, "duration": 220, "velocity": 104}, {"time": 145440, "pitch": 48, "duration": 180, "velocity": 97}, {"time": 145680, "pitch": 43, "duration": 200, "velocity": 100}, {"time": 145920, "pitch": 46, "duration": 200, "velocity": 105}, {"time": 146160, "pitch": 43, "duration": 220, "velocity": 91}, {"time": 146400, "pitch": 41, "duration": 230, "velocity": 103}, {"time": 146640, "pitch": 36, "duration": 140, "velocity": 89}, {"time": 146880, "pitch": 37, "duration": 110, "velocity": 95}, {"time": 147021, "pitch": 38, "duration": 80, "velocity": 84}, {"time": 147120, "pitch": 41, "duration": 390, "velocity": 98}, {"time": 147600, "pitch": 36, "duration": 80, "velocity": 106}, {"time": 147840, "pitch": 37, "duration": 110, "velocity": 95}, {"time": 147981, "pitch": 38, "duration": 80, "velocity": 89}, {"time": 148080, "pitch": 41, "duration": 200, "velocity": 101}, {"time": 148320, "pitch": 41, "duration": 200, "velocity": 109}, {"time": 148560, "pitch": 41, "duration": 230, "velocity": 103}, {"time": 148800, "pitch": 48, "duration": 230, "velocity": 98}, {"time": 149040, "pitch": 41, "duration": 150, "velocity": 101}, {"time": 149280, "pitch": 43, "duration": 230, "velocity": 110}, {"time": 149520, "pitch": 50, "duration": 210, "velocity": 97}, {"time": 149760, "pitch": 43, "duration": 170, "velocity": 106}, {"time": 150000, "pitch": 43, "duration": 230, "velocity": 95}, {"time": 150240, "pitch": 32, "duration": 6940, "velocity": 106}, {"time": 157200, "pitch": 33, "duration": 240, "velocity": 109}, {"time": 157440, "pitch": 34, "duration": 210, "velocity": 107}, {"time": 157680, "pitch": 35, "duration": 3320, "velocity": 115}, {"time": 161040, "pitch": 34, "duration": 210, "velocity": 97}, {"time": 161280, "pitch": 33, "duration": 190, "velocity": 98}, {"time": 161520, "pitch": 32, "duration": 3290, "velocity": 97}, {"time": 164880, "pitch": 33, "duration": 210, "velocity": 100}, {"time": 165120, "pitch": 34, "duration": 200, "velocity": 106}, {"time": 165360, "pitch": 35, "duration": 3290, "velocity": 106}, {"time": 168720, "pitch": 34, "duration": 230, "velocity": 114}, {"time": 168960, "pitch": 33, "duration": 230, "velocity": 113}, {"time": 169200, "pitch": 32, "duration": 200, "velocity": 100}, {"time": 169440, "pitch": 43, "duration": 200, "velocity": 112}, {"time": 169680, "pitch": 43, "duration": 100, "velocity": 114}, {"time": 170400, "pitch": 43, "duration": 170, "velocity": 112}, {"time": 170640, "pitch": 43, "duration": 120, "velocity": 110}, {"time": 171120, "pitch": 43, "duration": 80, "velocity": 108}, {"time": 171840, "pitch": 43, "duration": 1420, "velocity": 110}, {"time": 173280, "pitch": 36, "duration": 430, "velocity": 127}, {"time": 173760, "pitch": 43, "duration": 340, "velocity": 114}, {"time": 174120, "pitch": 48, "duration": 820, "velocity": 114}, {"time": 174960, "pitch": 46, "duration": 100, "velocity": 104}, {"time": 175080, "pitch": 48, "duration": 60, "velocity": 106}, {"time": 175200, "pitch": 36, "duration": 400, "velocity": 112}, {"time": 175680, "pitch": 43, "duration": 340, "velocity": 114}, {"time": 176040, "pitch": 48, "duration": 760, "velocity": 125}, {"time": 176880, "pitch": 36, "duration": 230, "velocity": 114}, {"time": 177120, "pitch": 41, "duration": 420, "velocity": 114}, {"time": 177600, "pitch": 41, "duration": 340, "velocity": 112}, {"time": 177960, "pitch": 36, "duration": 380, "velocity": 110}, {"time": 178320, "pitch": 41, "duration": 440, "velocity": 120}, {"time": 178800, "pitch": 48, "duration": 120, "velocity": 106}, {"time": 178920, "pitch": 41, "duration": 120, "velocity": 106}, {"time": 179040, "pitch": 41, "duration": 390, "velocity": 125}, {"time": 179520, "pitch": 41, "duration": 390, "velocity": 114}, {"time": 180000, "pitch": 43, "duration": 390, "velocity": 106}, {"time": 180480, "pitch": 43, "duration": 350, "velocity": 112}, {"time": 180960, "pitch": 36, "duration": 210, "velocity": 125}, {"time": 181200, "pitch": 48, "duration": 100, "velocity": 125}, {"time": 181440, "pitch": 48, "duration": 240, "velocity": 114}, {"time": 181680, "pitch": 46, "duration": 50, "velocity": 117}, {"time": 181800, "pitch": 48, "duration": 300, "velocity": 114}, {"time": 182160, "pitch": 43, "duration": 450, "velocity": 114}, {"time": 182640, "pitch": 43, "duration": 230, "velocity": 125}, {"time": 182880, "pitch": 36, "duration": 390, "velocity": 112}, {"time": 183360, "pitch": 43, "duration": 340, "velocity": 108}, {"time": 183720, "pitch": 48, "duration": 790, "velocity": 114}, {"time": 184560, "pitch": 43, "duration": 230, "velocity": 116}, {"time": 184800, "pitch": 41, "duration": 420, "velocity": 114}, {"time": 185280, "pitch": 41, "duration": 340, "velocity": 112}, {"time": 185640, "pitch": 36, "duration": 310, "velocity": 117}, {"time": 186000, "pitch": 36, "duration": 140, "velocity": 105}, {"time": 186240, "pitch": 41, "duration": 240, "velocity": 114}, {"time": 186480, "pitch": 36, "duration": 230, "velocity": 89}, {"time": 186720, "pitch": 41, "duration": 420, "velocity": 115}, {"time": 187200, "pitch": 41, "duration": 400, "velocity": 111}, {"time": 187680, "pitch": 43, "duration": 390, "velocity": 114}, {"time": 188160, "pitch": 43, "duration": 460, "velocity": 112}, {"time": 188640, "pitch": 36, "duration": 180, "velocity": 112}, {"time": 188880, "pitch": 36, "duration": 430, "velocity": 108}, {"time": 189360, "pitch": 43, "duration": 400, "velocity": 114}, {"time": 189840, "pitch": 43, "duration": 230, "velocity": 91}, {"time": 190080, "pitch": 48, "duration": 230, "velocity": 100}, {"time": 190320, "pitch": 43, "duration": 230, "velocity": 97}, {"time": 190560, "pitch": 36, "duration": 180, "velocity": 112}, {"time": 190800, "pitch": 36, "duration": 430, "velocity": 108}, {"time": 191280, "pitch": 43, "duration": 400, "velocity": 114}, {"time": 191760, "pitch": 43, "duration": 230, "velocity": 91}, {"time": 192000, "pitch": 48, "duration": 230, "velocity": 100}, {"time": 192240, "pitch": 43, "duration": 230, "velocity": 97}, {"time": 192480, "pitch": 41, "duration": 470, "velocity": 114}, {"time": 192960, "pitch": 36, "duration": 470, "velocity": 114}, {"time": 193440, "pitch": 41, "duration": 410, "velocity": 114}, {"time": 193920, "pitch": 41, "duration": 470, "velocity": 105}, {"time": 194400, "pitch": 41, "duration": 440, "velocity": 114}, {"time": 194880, "pitch": 41, "duration": 420, "velocity": 114}, {"time": 195360, "pitch": 43, "duration": 420, "velocity": 114}, {"time": 195840, "pitch": 43, "duration": 480, "velocity": 110}, {"time": 196320, "pitch": 36, "duration": 170, "velocity": 106}, {"time": 196560, "pitch": 36, "duration": 180, "velocity": 97}, {"time": 196800, "pitch": 46, "duration": 100, "velocity": 111}, {"time": 196920, "pitch": 47, "duration": 110, "velocity": 112}, {"time": 197160, "pitch": 48, "duration": 350, "velocity": 106}, {"time": 197520, "pitch": 46, "duration": 170, "velocity": 127}, {"time": 197760, "pitch": 43, "duration": 230, "velocity": 97}, {"time": 198000, "pitch": 36, "duration": 150, "velocity": 106}, {"time": 198240, "pitch": 36, "duration": 140, "velocity": 114}, {"time": 198480, "pitch": 36, "duration": 150, "velocity": 106}, {"time": 198720, "pitch": 43, "duration": 150, "velocity": 106}, {"time": 198840, "pitch": 46, "duration": 110, "velocity": 97}, {"time": 198960, "pitch": 43, "duration": 470, "velocity": 109}, {"time": 199440, "pitch": 48, "duration": 230, "velocity": 108}, {"time": 199680, "pitch": 43, "duration": 230, "velocity": 102}, {"time": 199920, "pitch": 36, "duration": 170, "velocity": 114}, {"time": 200160, "pitch": 41, "duration": 200, "velocity": 111}, {"time": 200400, "pitch": 36, "duration": 230, "velocity": 100}, {"time": 200640, "pitch": 41, "duration": 120, "velocity": 106}, {"time": 200760, "pitch": 36, "duration": 80, "velocity": 89}, {"time": 200880, "pitch": 41, "duration": 370, "velocity": 106}, {"time": 201360, "pitch": 41, "duration": 210, "velocity": 114}, {"time": 201600, "pitch": 36, "duration": 150, "velocity": 97}, {"time": 201840, "pitch": 41, "duration": 150, "velocity": 114}, {"time": 202080, "pitch": 41, "duration": 430, "velocity": 97}, {"time": 202560, "pitch": 41, "duration": 470, "velocity": 114}, {"time": 203040, "pitch": 43, "duration": 440, "velocity": 114}, {"time": 203520, "pitch": 43, "duration": 460, "velocity": 114}, {"time": 204000, "pitch": 36, "duration": 210, "velocity": 112}, {"time": 204240, "pitch": 36, "duration": 170, "velocity": 108}, {"time": 204480, "pitch": 39, "duration": 110, "velocity": 102}, {"time": 204621, "pitch": 40, "duration": 80, "velocity": 94}, {"time": 204720, "pitch": 43, "duration": 170, "velocity": 97}, {"time": 204960, "pitch": 44, "duration": 200, "velocity": 105}, {"time": 205200, "pitch": 45, "duration": 170, "velocity": 89}, {"time": 205440, "pitch": 48, "duration": 160, "velocity": 109}, {"time": 205680, "pitch": 36, "duration": 200, "velocity": 92}, {"time": 205920, "pitch": 36, "duration": 210, "velocity": 112}, {"time": 206160, "pitch": 36, "duration": 170, "velocity": 108}, {"time": 206400, "pitch": 39, "duration": 110, "velocity": 102}, {"time": 206541, "pitch": 40, "duration": 80, "velocity": 94}, {"time": 206640, "pitch": 43, "duration": 170, "velocity": 97}, {"time": 206880, "pitch": 46, "duration": 180, "velocity": 102}, {"time": 207120, "pitch": 50, "duration": 200, "velocity": 96}, {"time": 207360, "pitch": 46, "duration": 200, "velocity": 93}, {"time": 207600, "pitch": 43, "duration": 220, "velocity": 93}, {"time": 207840, "pitch": 41, "duration": 230, "velocity": 111}, {"time": 208080, "pitch": 36, "duration": 140, "velocity": 89}, {"time": 208320, "pitch": 37, "duration": 110, "velocity": 91}, {"time": 208461, "pitch": 38, "duration": 80, "velocity": 82}, {"time": 208560, "pitch": 41, "duration": 390, "velocity": 106}, {"time": 209040, "pitch": 36, "duration": 80, "velocity": 106}, {"time": 209280, "pitch": 37, "duration": 110, "velocity": 96}, {"time": 209421, "pitch": 38, "duration": 80, "velocity": 85}, {"time": 209520, "pitch": 41, "duration": 200, "velocity": 97}, {"time": 209760, "pitch": 41, "duration": 200, "velocity": 109}, {"time": 210000, "pitch": 41, "duration": 180, "velocity": 103}, {"time": 210240, "pitch": 48, "duration": 230, "velocity": 98}, {"time": 210480, "pitch": 41, "duration": 230, "velocity": 101}, {"time": 210720, "pitch": 43, "duration": 230, "velocity": 110}, {"time": 210960, "pitch": 50, "duration": 210, "velocity": 97}, {"time": 211200, "pitch": 43, "duration": 170, "velocity": 106}, {"time": 211440, "pitch": 43, "duration": 230, "velocity": 95}, {"time": 211680, "pitch": 36, "duration": 210, "velocity": 113}, {"time": 211920, "pitch": 36, "duration": 170, "velocity": 107}, {"time": 212160, "pitch": 39, "duration": 110, "velocity": 107}, {"time": 212301, "pitch": 40, "duration": 80, "velocity": 93}, {"time": 212400, "pitch": 43, "duration": 170, "velocity": 97}, {"time": 212640, "pitch": 44, "duration": 210, "velocity": 100}, {"time": 212880, "pitch": 45, "duration": 170, "velocity": 89}, {"time": 213120, "pitch": 48, "duration": 160, "velocity": 102}, {"time": 213360, "pitch": 36, "duration": 200, "velocity": 98}, {"time": 213600, "pitch": 36, "duration": 210, "velocity": 110}, {"time": 213840, "pitch": 36, "duration": 150, "velocity": 101}, {"time": 214080, "pitch": 41, "duration": 80, "velocity": 102}, {"time": 214221, "pitch": 42, "duration": 60, "velocity": 84}, {"time": 214320, "pitch": 43, "duration": 220, "velocity": 104}, {"time": 214560, "pitch": 46, "duration": 180, "velocity": 97}, {"time": 214800, "pitch": 50, "duration": 200, "velocity": 100}, {"time": 215040, "pitch": 46, "duration": 200, "velocity": 105}, {"time": 215280, "pitch": 43, "duration": 220, "velocity": 91}, {"time": 215520, "pitch": 41, "duration": 230, "velocity": 103}, {"time": 215760, "pitch": 36, "duration": 140, "velocity": 89}, {"time": 216000, "pitch": 37, "duration": 110, "velocity": 95}, {"time": 216141, "pitch": 38, "duration": 80, "velocity": 84}, {"time": 216240, "pitch": 41, "duration": 390, "velocity": 98}, {"time": 216720, "pitch": 36, "duration": 80, "velocity": 106}, {"time": 216960, "pitch": 37, "duration": 110, "velocity": 95}, {"time": 217101, "pitch": 38, "duration": 80, "velocity": 89}, {"time": 217200, "pitch": 41, "duration": 200, "velocity": 101}, {"time": 217440, "pitch": 41, "duration": 200, "velocity": 109}, {"time": 217680, "pitch": 41, "duration": 180, "velocity": 103}, {"time": 217920, "pitch": 48, "duration": 230, "velocity": 98}, {"time": 218160, "pitch": 41, "duration": 230, "velocity": 101}, {"time": 218400, "pitch": 43, "duration": 230, "velocity": 110}, {"time": 218640, "pitch": 50, "duration": 210, "velocity": 97}, {"time": 218880, "pitch": 43, "duration": 170, "velocity": 106}, {"time": 219120, "pitch": 43, "duration": 230, "velocity": 95}, {"time": 219360, "pitch": 36, "duration": 210, "velocity": 113}, {"time": 219600, "pitch": 36, "duration": 170, "velocity": 107}, {"time": 219840, "pitch": 39, "duration": 110, "velocity": 107}, {"time": 219981, "pitch": 40, "duration": 80, "velocity": 93}, {"time": 220080, "pitch": 43, "duration": 170, "velocity": 97}, {"time": 220320, "pitch": 44, "duration": 210, "velocity": 100}, {"time": 220560, "pitch": 45, "duration": 170, "velocity": 89}, {"time": 220800, "pitch": 48, "duration": 160, "velocity": 102}, {"time": 221040, "pitch": 36, "duration": 200, "velocity": 98}, {"time": 221280, "pitch": 36, "duration": 210, "velocity": 110}, {"time": 221520, "pitch": 36, "duration": 150, "velocity": 101}, {"time": 221760, "pitch": 41, "duration": 80, "velocity": 102}, {"time": 221901, "pitch": 42, "duration": 60, "velocity": 84}, {"time": 222000, "pitch": 43, "duration": 220, "velocity": 104}, {"time": 222240, "pitch": 46, "duration": 180, "velocity": 97}, {"time": 222480, "pitch": 50, "duration": 200, "velocity": 100}, {"time": 222720, "pitch": 46, "duration": 200, "velocity": 105}, {"time": 222960, "pitch": 43, "duration": 220, "velocity": 91}, {"time": 223200, "pitch": 41, "duration": 230, "velocity": 103}, {"time": 223440, "pitch": 36, "duration": 140, "velocity": 89}, {"time": 223680, "pitch": 37, "duration": 110, "velocity": 95}, {"time": 223821, "pitch": 38, "duration": 80, "velocity": 84}, {"time": 223920, "pitch": 41, "duration": 390, "velocity": 98}, {"time": 224400, "pitch": 36, "duration": 80, "velocity": 106}, {"time": 224640, "pitch": 37, "duration": 110, "velocity": 95}, {"time": 224781, "pitch": 38, "duration": 80, "velocity": 89}, {"time": 224880, "pitch": 41, "duration": 200, "velocity": 101}, {"time": 225120, "pitch": 41, "duration": 200, "velocity": 109}, {"time": 225360, "pitch": 41, "duration": 180, "velocity": 103}, {"time": 225600, "pitch": 48, "duration": 230, "velocity": 98}, {"time": 225840, "pitch": 41, "duration": 230, "velocity": 101}, {"time": 226080, "pitch": 43, "duration": 230, "velocity": 110}, {"time": 226320, "pitch": 50, "duration": 210, "velocity": 97}, {"time": 226560, "pitch": 55, "duration": 230, "velocity": 106}, {"time": 226800, "pitch": 43, "duration": 230, "velocity": 100}, {"time": 227040, "pitch": 36, "duration": 210, "velocity": 113}, {"time": 227280, "pitch": 36, "duration": 170, "velocity": 107}, {"time": 227520, "pitch": 39, "duration": 110, "velocity": 107}, {"time": 227661, "pitch": 40, "duration": 80, "velocity": 93}, {"time": 227760, "pitch": 43, "duration": 170, "velocity": 97}, {"time": 228000, "pitch": 44, "duration": 210, "velocity": 100}, {"time": 228240, "pitch": 45, "duration": 170, "velocity": 89}, {"time": 228480, "pitch": 48, "duration": 160, "velocity": 102}, {"time": 228720, "pitch": 36, "duration": 200, "velocity": 98}, {"time": 228960, "pitch": 36, "duration": 210, "velocity": 110}, {"time": 229200, "pitch": 36, "duration": 150, "velocity": 101}, {"time": 229440, "pitch": 41, "duration": 80, "velocity": 102}, {"time": 229581, "pitch": 42, "duration": 60, "velocity": 84}, {"time": 229680, "pitch": 43, "duration": 220, "velocity": 104}, {"time": 229920, "pitch": 48, "duration": 180, "velocity": 97}, {"time": 230160, "pitch": 43, "duration": 200, "velocity": 100}, {"time": 230400, "pitch": 46, "duration": 200, "velocity": 105}, {"time": 230640, "pitch": 43, "duration": 220, "velocity": 91}, {"time": 230880, "pitch": 41, "duration": 230, "velocity": 103}, {"time": 231120, "pitch": 36, "duration": 140, "velocity": 89}, {"time": 231360, "pitch": 37, "duration": 110, "velocity": 95}, {"time": 231501, "pitch": 38, "duration": 80, "velocity": 84}, {"time": 231600, "pitch": 41, "duration": 390, "velocity": 98}, {"time": 232080, "pitch": 36, "duration": 80, "velocity": 106}, {"time": 232320, "pitch": 37, "duration": 110, "velocity": 95}, {"time": 232461, "pitch": 38, "duration": 80, "velocity": 89}, {"time": 232560, "pitch": 41, "duration": 200, "velocity": 101}, {"time": 232800, "pitch": 41, "duration": 200, "velocity": 109}, {"time": 233040, "pitch": 41, "duration": 230, "velocity": 103}, {"time": 233280, "pitch": 48, "duration": 230, "velocity": 98}, {"time": 233520, "pitch": 41, "duration": 150, "velocity": 101}, {"time": 233760, "pitch": 43, "duration": 230, "velocity": 110}, {"time": 234000, "pitch": 50, "duration": 210, "velocity": 97}, {"time": 234240, "pitch": 43, "duration": 170, "velocity": 106}, {"time": 234480, "pitch": 43, "duration": 230, "velocity": 95}, {"time": 234720, "pitch": 48, "duration": 220, "velocity": 115}, {"time": 234960, "pitch": 48, "duration": 110, "velocity": 114}, {"time": 235440, "pitch": 41, "duration": 380, "velocity": 101}, {"time": 235920, "pitch": 43, "duration": 410, "velocity": 96}, {"time": 236400, "pitch": 46, "duration": 210, "velocity": 100}, {"time": 236640, "pitch": 48, "duration": 220, "velocity": 115}, {"time": 236880, "pitch": 48, "duration": 110, "velocity": 114}, {"time": 237360, "pitch": 41, "duration": 380, "velocity": 101}, {"time": 237840, "pitch": 43, "duration": 410, "velocity": 96}, {"time": 238320, "pitch": 46, "duration": 210, "velocity": 99}, {"time": 238560, "pitch": 48, "duration": 220, "velocity": 115}, {"time": 238800, "pitch": 48, "duration": 110, "velocity": 114}, {"time": 239280, "pitch": 41, "duration": 380, "velocity": 101}, {"time": 239760, "pitch": 43, "duration": 410, "velocity": 96}, {"time": 240240, "pitch": 46, "duration": 210, "velocity": 99}, {"time": 240480, "pitch": 48, "duration": 220, "velocity": 115}, {"time": 240720, "pitch": 48, "duration": 110, "velocity": 114}, {"time": 241200, "pitch": 41, "duration": 380, "velocity": 101}, {"time": 241680, "pitch": 43, "duration": 410, "velocity": 96}, {"time": 242160, "pitch": 46, "duration": 210, "velocity": 99}, {"time": 242400, "pitch": 48, "duration": 220, "velocity": 115}, {"time": 242640, "pitch": 48, "duration": 110, "velocity": 114}], "annotations": [{"time": 336, "annotation": {"number": 7, "value": 87}, "group": "control_change"}, {"time": 352, "annotation": {"number": 11, "value": 127}, "group": "control_change"}, {"time": 368, "annotation": {"number": 10, "value": 64}, "group": "control_change"}, {"time": 384, "annotation": {"number": 91, "value": 3}, "group": "control_change"}, {"time": 400, "annotation": {"number": 93, "value": 0}, "group": "control_change"}, {"time": 416, "annotation": {"number": 101, "value": 0}, "group": "control_change"}, {"time": 432, "annotation": {"number": 100, "value": 0}, "group": "control_change"}, {"time": 448, "annotation": {"number": 6, "value": 12}, "group": "control_change"}, {"time": 464, "annotation": {"number": 101, "value": 127}, "group": "control_change"}, {"time": 480, "annotation": {"number": 100, "value": 127}, "group": "control_change"}]}, {"program": 0, "is_drum": false, "name": "BRASS SEC", "annotations": [{"time": 288, "annotation": {"number": 0, "value": 0}, "group": "control_change"}, {"time": 304, "annotation": {"number": 32, "value": 2}, "group": "control_change"}]}, {"program": 61, "is_drum": false, "name": "BRASS SEC", "notes": [{"time": 15840, "pitch": 65, "duration": 220, "velocity": 105}, {"time": 15840, "pitch": 69, "duration": 220, "velocity": 110}, {"time": 15840, "pitch": 72, "duration": 220, "velocity": 115}, {"time": 15840, "pitch": 76, "duration": 220, "velocity": 120}, {"time": 16080, "pitch": 65, "duration": 80, "velocity": 105}, {"time": 16080, "pitch": 69, "duration": 80, "velocity": 110}, {"time": 16080, "pitch": 72, "duration": 80, "velocity": 115}, {"time": 16080, "pitch": 76, "duration": 80, "velocity": 120}, {"time": 16800, "pitch": 65, "duration": 220, "velocity": 105}, {"time": 16800, "pitch": 69, "duration": 220, "velocity": 110}, {"time": 16800, "pitch": 72, "duration": 220, "velocity": 115}, {"time": 16800, "pitch": 76, "duration": 220, "velocity": 120}, {"time": 17040, "pitch": 65, "duration": 80, "velocity": 105}, {"time": 17040, "pitch": 69, "duration": 80, "velocity": 110}, {"time": 17040, "pitch": 72, "duration": 80, "velocity": 115}, {"time": 17040, "pitch": 76, "duration": 80, "velocity": 120}, {"time": 17520, "pitch": 65, "duration": 80, "velocity": 105}, {"time": 17520, "pitch": 69, "duration": 80, "velocity": 110}, {"time": 17520, "pitch": 72, "duration": 80, "velocity": 115}, {"time": 17520, "pitch": 76, "duration": 80, "velocity": 120}, {"time": 18240, "pitch": 65, "duration": 1430, "velocity": 105}, {"time": 18240, "pitch": 69, "duration": 1430, "velocity": 110}, {"time": 18240, "pitch": 72, "duration": 1430, "velocity": 115}, {"time": 18240, "pitch": 76, "duration": 1420, "velocity": 120}, {"time": 26400, "pitch": 68, "duration": 60, "velocity": 110}, {"time": 26400, "pitch": 72, "duration": 60, "velocity": 120}, {"time": 26400, "pitch": 77, "duration": 60, "velocity": 110}, {"time": 26400, "pitch": 89, "duration": 60, "velocity": 120}, {"time": 26520, "pitch": 68, "duration": 80, "velocity": 101}, {"time": 26520, "pitch": 72, "duration": 80, "velocity": 111}, {"time": 26520, "pitch": 76, "duration": 80, "velocity": 101}, {"time": 26520, "pitch": 88, "duration": 80, "velocity": 111}, {"time": 26760, "pitch": 68, "duration": 310, "velocity": 115}, {"time": 26760, "pitch": 72, "duration": 310, "velocity": 125}, {"time": 26760, "pitch": 77, "duration": 310, "velocity": 115}, {"time": 26760, "pitch": 89, "duration": 310, "velocity": 125}, {"time": 27120, "pitch": 68, "duration": 230, "velocity": 110}, {"time": 27120, "pitch": 72, "duration": 230, "velocity": 120}, {"time": 27120, "pitch": 74, "duration": 230, "velocity": 110}, {"time": 27120, "pitch": 86, "duration": 230, "velocity": 120}, {"time": 27360, "pitch": 67, "duration": 140, "velocity": 115}, {"time": 27360, "pitch": 72, "duration": 140, "velocity": 125}, {"time": 27360, "pitch": 76, "duration": 140, "velocity": 115}, {"time": 27360, "pitch": 88, "duration": 140, "velocity": 125}, {"time": 27840, "pitch": 76, "duration": 300, "velocity": 127}, {"time": 27840, "pitch": 79, "duration": 330, "velocity": 127}, {"time": 27840, "pitch": 84, "duration": 300, "velocity": 127}, {"time": 28120, "pitch": 83, "duration": 90, "velocity": 91}, {"time": 28130, "pitch": 82, "duration": 110, "velocity": 90}, {"time": 28140, "pitch": 81, "duration": 90, "velocity": 89}, {"time": 28160, "pitch": 80, "duration": 100, "velocity": 86}, {"time": 28200, "pitch": 79, "duration": 60, "velocity": 81}, {"time": 28230, "pitch": 77, "duration": 60, "velocity": 77}, {"time": 28230, "pitch": 78, "duration": 60, "velocity": 77}, {"time": 28240, "pitch": 76, "duration": 60, "velocity": 76}, {"time": 28250, "pitch": 75, "duration": 60, "velocity": 75}, {"time": 28260, "pitch": 74, "duration": 70, "velocity": 74}, {"time": 28280, "pitch": 72, "duration": 90, "velocity": 71}, {"time": 28280, "pitch": 73, "duration": 60, "velocity": 71}, {"time": 28300, "pitch": 71, "duration": 110, "velocity": 69}, {"time": 28330, "pitch": 69, "duration": 110, "velocity": 65}, {"time": 28330, "pitch": 70, "duration": 70, "velocity": 65}, {"time": 28360, "pitch": 67, "duration": 100, "velocity": 61}, {"time": 28370, "pitch": 68, "duration": 60, "velocity": 60}, {"time": 28390, "pitch": 65, "duration": 90, "velocity": 58}, {"time": 28420, "pitch": 66, "duration": 30, "velocity": 54}, {"time": 28430, "pitch": 64, "duration": 60, "velocity": 53}, {"time": 28450, "pitch": 62, "duration": 60, "velocity": 50}, {"time": 28460, "pitch": 63, "duration": 30, "velocity": 49}, {"time": 28490, "pitch": 60, "duration": 40, "velocity": 45}, {"time": 28490, "pitch": 61, "duration": 10, "velocity": 45}, {"time": 46560, "pitch": 72, "duration": 80, "velocity": 120}, {"time": 46560, "pitch": 84, "duration": 80, "velocity": 122}, {"time": 47280, "pitch": 72, "duration": 460, "velocity": 127}, {"time": 47280, "pitch": 84, "duration": 490, "velocity": 122}, {"time": 47754, "pitch": 83, "duration": 50, "velocity": 71}, {"time": 47790, "pitch": 77, "duration": 90, "velocity": 86}, {"time": 47790, "pitch": 79, "duration": 50, "velocity": 86}, {"time": 47810, "pitch": 75, "duration": 50, "velocity": 80}, {"time": 47820, "pitch": 76, "duration": 70, "velocity": 77}, {"time": 47830, "pitch": 78, "duration": 10, "velocity": 74}, {"time": 47860, "pitch": 73, "duration": 60, "velocity": 65}, {"time": 47870, "pitch": 74, "duration": 60, "velocity": 61}, {"time": 47880, "pitch": 71, "duration": 70, "velocity": 58}, {"time": 47880, "pitch": 72, "duration": 70, "velocity": 58}, {"time": 47880, "pitch": 75, "duration": 20, "velocity": 58}, {"time": 47880, "pitch": 78, "duration": 10, "velocity": 58}, {"time": 47890, "pitch": 69, "duration": 110, "velocity": 55}, {"time": 47900, "pitch": 67, "duration": 110, "velocity": 52}, {"time": 47910, "pitch": 70, "duration": 40, "velocity": 49}, {"time": 47910, "pitch": 75, "duration": 10, "velocity": 49}, {"time": 47930, "pitch": 73, "duration": 10, "velocity": 43}, {"time": 47950, "pitch": 65, "duration": 70, "velocity": 37}, {"time": 48480, "pitch": 71, "duration": 210, "velocity": 122}, {"time": 48480, "pitch": 74, "duration": 210, "velocity": 127}, {"time": 48480, "pitch": 79, "duration": 210, "velocity": 127}, {"time": 48720, "pitch": 71, "duration": 80, "velocity": 112}, {"time": 48720, "pitch": 74, "duration": 70, "velocity": 122}, {"time": 48720, "pitch": 79, "duration": 100, "velocity": 114}, {"time": 81840, "pitch": 65, "duration": 90, "velocity": 127}, {"time": 81840, "pitch": 68, "duration": 90, "velocity": 127}, {"time": 81840, "pitch": 75, "duration": 110, "velocity": 127}, {"time": 82320, "pitch": 65, "duration": 80, "velocity": 118}, {"time": 82320, "pitch": 68, "duration": 90, "velocity": 127}, {"time": 82320, "pitch": 74, "duration": 100, "velocity": 127}, {"time": 82800, "pitch": 65, "duration": 90, "velocity": 117}, {"time": 82800, "pitch": 68, "duration": 90, "velocity": 127}, {"time": 82800, "pitch": 72, "duration": 100, "velocity": 127}, {"time": 83760, "pitch": 65, "duration": 90, "velocity": 127}, {"time": 83760, "pitch": 68, "duration": 90, "velocity": 127}, {"time": 83760, "pitch": 75, "duration": 110, "velocity": 127}, {"time": 84240, "pitch": 65, "duration": 80, "velocity": 118}, {"time": 84240, "pitch": 68, "duration": 90, "velocity": 127}, {"time": 84240, "pitch": 74, "duration": 100, "velocity": 127}, {"time": 84720, "pitch": 65, "duration": 90, "velocity": 117}, {"time": 84720, "pitch": 68, "duration": 90, "velocity": 127}, {"time": 84720, "pitch": 72, "duration": 100, "velocity": 127}, {"time": 84960, "pitch": 64, "duration": 1920, "velocity": 112}, {"time": 84960, "pitch": 67, "duration": 1920, "velocity": 112}, {"time": 84960, "pitch": 72, "duration": 1920, "velocity": 112}, {"time": 95520, "pitch": 68, "duration": 60, "velocity": 110}, {"time": 95520, "pitch": 72, "duration": 60, "velocity": 120}, {"time": 95520, "pitch": 77, "duration": 60, "velocity": 110}, {"time": 95520, "pitch": 89, "duration": 60, "velocity": 120}, {"time": 95640, "pitch": 68, "duration": 80, "velocity": 101}, {"time": 95640, "pitch": 72, "duration": 80, "velocity": 111}, {"time": 95640, "pitch": 76, "duration": 80, "velocity": 101}, {"time": 95640, "pitch": 88, "duration": 80, "velocity": 111}, {"time": 95880, "pitch": 68, "duration": 310, "velocity": 115}, {"time": 95880, "pitch": 72, "duration": 310, "velocity": 125}, {"time": 95880, "pitch": 77, "duration": 310, "velocity": 115}, {"time": 95880, "pitch": 89, "duration": 310, "velocity": 125}, {"time": 96240, "pitch": 68, "duration": 230, "velocity": 110}, {"time": 96240, "pitch": 72, "duration": 230, "velocity": 120}, {"time": 96240, "pitch": 74, "duration": 230, "velocity": 110}, {"time": 96240, "pitch": 86, "duration": 230, "velocity": 120}, {"time": 96480, "pitch": 67, "duration": 140, "velocity": 115}, {"time": 96480, "pitch": 72, "duration": 140, "velocity": 125}, {"time": 96480, "pitch": 76, "duration": 140, "velocity": 115}, {"time": 96480, "pitch": 88, "duration": 140, "velocity": 125}, {"time": 96960, "pitch": 76, "duration": 300, "velocity": 127}, {"time": 96960, "pitch": 79, "duration": 330, "velocity": 127}, {"time": 96960, "pitch": 84, "duration": 300, "velocity": 127}, {"time": 97240, "pitch": 83, "duration": 90, "velocity": 91}, {"time": 97250, "pitch": 82, "duration": 110, "velocity": 90}, {"time": 97260, "pitch": 81, "duration": 90, "velocity": 89}, {"time": 97280, "pitch": 80, "duration": 100, "velocity": 86}, {"time": 97320, "pitch": 79, "duration": 60, "velocity": 81}, {"time": 97350, "pitch": 77, "duration": 60, "velocity": 77}, {"time": 97350, "pitch": 78, "duration": 60, "velocity": 77}, {"time": 97360, "pitch": 76, "duration": 60, "velocity": 76}, {"time": 97370, "pitch": 75, "duration": 60, "velocity": 75}, {"time": 97380, "pitch": 74, "duration": 70, "velocity": 74}, {"time": 97400, "pitch": 72, "duration": 90, "velocity": 71}, {"time": 97400, "pitch": 73, "duration": 60, "velocity": 71}, {"time": 97420, "pitch": 71, "duration": 110, "velocity": 69}, {"time": 97450, "pitch": 69, "duration": 110, "velocity": 65}, {"time": 97450, "pitch": 70, "duration": 70, "velocity": 65}, {"time": 97480, "pitch": 67, "duration": 100, "velocity": 61}, {"time": 97490, "pitch": 68, "duration": 60, "velocity": 60}, {"time": 97510, "pitch": 65, "duration": 90, "velocity": 58}, {"time": 97540, "pitch": 66, "duration": 30, "velocity": 54}, {"time": 97550, "pitch": 64, "duration": 60, "velocity": 53}, {"time": 97570, "pitch": 62, "duration": 60, "velocity": 50}, {"time": 97580, "pitch": 63, "duration": 30, "velocity": 49}, {"time": 97610, "pitch": 60, "duration": 40, "velocity": 45}, {"time": 97610, "pitch": 61, "duration": 10, "velocity": 45}, {"time": 115680, "pitch": 72, "duration": 80, "velocity": 120}, {"time": 115680, "pitch": 84, "duration": 80, "velocity": 122}, {"time": 116400, "pitch": 72, "duration": 460, "velocity": 127}, {"time": 116400, "pitch": 84, "duration": 490, "velocity": 122}, {"time": 116874, "pitch": 83, "duration": 50, "velocity": 71}, {"time": 116910, "pitch": 77, "duration": 90, "velocity": 86}, {"time": 116910, "pitch": 79, "duration": 50, "velocity": 86}, {"time": 116930, "pitch": 75, "duration": 50, "velocity": 80}, {"time": 116940, "pitch": 76, "duration": 70, "velocity": 77}, {"time": 116950, "pitch": 78, "duration": 10, "velocity": 74}, {"time": 116980, "pitch": 73, "duration": 60, "velocity": 65}, {"time": 116990, "pitch": 74, "duration": 60, "velocity": 61}, {"time": 117000, "pitch": 71, "duration": 70, "velocity": 58}, {"time": 117000, "pitch": 72, "duration": 70, "velocity": 58}, {"time": 117000, "pitch": 75, "duration": 20, "velocity": 58}, {"time": 117000, "pitch": 78, "duration": 10, "velocity": 58}, {"time": 117010, "pitch": 69, "duration": 110, "velocity": 55}, {"time": 117020, "pitch": 67, "duration": 110, "velocity": 52}, {"time": 117030, "pitch": 70, "duration": 40, "velocity": 49}, {"time": 117030, "pitch": 75, "duration": 10, "velocity": 49}, {"time": 117050, "pitch": 73, "duration": 10, "velocity": 43}, {"time": 117070, "pitch": 65, "duration": 70, "velocity": 37}, {"time": 117600, "pitch": 71, "duration": 210, "velocity": 122}, {"time": 117600, "pitch": 74, "duration": 210, "velocity": 127}, {"time": 117600, "pitch": 79, "duration": 210, "velocity": 127}, {"time": 117840, "pitch": 71, "duration": 80, "velocity": 112}, {"time": 117840, "pitch": 74, "duration": 70, "velocity": 122}, {"time": 117840, "pitch": 79, "duration": 100, "velocity": 114}, {"time": 169440, "pitch": 65, "duration": 220, "velocity": 105}, {"time": 169440, "pitch": 69, "duration": 220, "velocity": 110}, {"time": 169440, "pitch": 72, "duration": 220, "velocity": 115}, {"time": 169440, "pitch": 76, "duration": 220, "velocity": 120}, {"time": 169680, "pitch": 65, "duration": 80, "velocity": 105}, {"time": 169680, "pitch": 69, "duration": 80, "velocity": 110}, {"time": 169680, "pitch": 72, "duration": 80, "velocity": 115}, {"time": 169680, "pitch": 76, "duration": 80, "velocity": 120}, {"time": 170400, "pitch": 65, "duration": 220, "velocity": 105}, {"time": 170400, "pitch": 69, "duration": 220, "velocity": 110}, {"time": 170400, "pitch": 72, "duration": 220, "velocity": 115}, {"time": 170400, "pitch": 76, "duration": 220, "velocity": 120}, {"time": 170640, "pitch": 65, "duration": 80, "velocity": 105}, {"time": 170640, "pitch": 69, "duration": 80, "velocity": 110}, {"time": 170640, "pitch": 72, "duration": 80, "velocity": 115}, {"time": 170640, "pitch": 76, "duration": 80, "velocity": 120}, {"time": 171120, "pitch": 65, "duration": 80, "velocity": 105}, {"time": 171120, "pitch": 69, "duration": 80, "velocity": 110}, {"time": 171120, "pitch": 72, "duration": 80, "velocity": 115}, {"time": 171120, "pitch": 76, "duration": 80, "velocity": 120}, {"time": 171840, "pitch": 65, "duration": 1430, "velocity": 105}, {"time": 171840, "pitch": 69, "duration": 1430, "velocity": 110}, {"time": 171840, "pitch": 72, "duration": 1430, "velocity": 115}, {"time": 171840, "pitch": 76, "duration": 1420, "velocity": 120}, {"time": 235440, "pitch": 65, "duration": 90, "velocity": 127}, {"time": 235440, "pitch": 68, "duration": 90, "velocity": 127}, {"time": 235440, "pitch": 75, "duration": 110, "velocity": 127}, {"time": 235920, "pitch": 65, "duration": 80, "velocity": 118}, {"time": 235920, "pitch": 68, "duration": 90, "velocity": 127}, {"time": 235920, "pitch": 74, "duration": 100, "velocity": 127}, {"time": 236400, "pitch": 65, "duration": 90, "velocity": 117}, {"time": 236400, "pitch": 68, "duration": 90, "velocity": 127}, {"time": 236400, "pitch": 72, "duration": 100, "velocity": 127}, {"time": 237360, "pitch": 65, "duration": 90, "velocity": 127}, {"time": 237360, "pitch": 68, "duration": 90, "velocity": 127}, {"time": 237360, "pitch": 75, "duration": 110, "velocity": 127}, {"time": 237840, "pitch": 65, "duration": 80, "velocity": 118}, {"time": 237840, "pitch": 68, "duration": 90, "velocity": 127}, {"time": 237840, "pitch": 74, "duration": 100, "velocity": 127}, {"time": 238320, "pitch": 65, "duration": 90, "velocity": 117}, {"time": 238320, "pitch": 68, "duration": 90, "velocity": 127}, {"time": 238320, "pitch": 72, "duration": 100, "velocity": 127}, {"time": 239280, "pitch": 65, "duration": 90, "velocity": 127}, {"time": 239280, "pitch": 68, "duration": 90, "velocity": 127}, {"time": 239280, "pitch": 75, "duration": 110, "velocity": 127}, {"time": 239760, "pitch": 65, "duration": 80, "velocity": 118}, {"time": 239760, "pitch": 68, "duration": 90, "velocity": 127}, {"time": 239760, "pitch": 74, "duration": 100, "velocity": 127}, {"time": 240240, "pitch": 65, "duration": 90, "velocity": 117}, {"time": 240240, "pitch": 68, "duration": 90, "velocity": 127}, {"time": 240240, "pitch": 72, "duration": 100, "velocity": 127}, {"time": 241200, "pitch": 65, "duration": 90, "velocity": 127}, {"time": 241200, "pitch": 68, "duration": 90, "velocity": 127}, {"time": 241200, "pitch": 75, "duration": 110, "velocity": 127}, {"time": 241680, "pitch": 65, "duration": 80, "velocity": 118}, {"time": 241680, "pitch": 68, "duration": 90, "velocity": 127}, {"time": 241680, "pitch": 74, "duration": 100, "velocity": 127}, {"time": 242160, "pitch": 65, "duration": 90, "velocity": 117}, {"time": 242160, "pitch": 68, "duration": 90, "velocity": 127}, {"time": 242160, "pitch": 72, "duration": 100, "velocity": 127}, {"time": 242400, "pitch": 84, "duration": 180, "velocity": 127}, {"time": 242640, "pitch": 84, "duration": 90, "velocity": 125}], "annotations": [{"time": 336, "annotation": {"number": 7, "value": 62}, "group": "control_change"}, {"time": 352, "annotation": {"number": 11, "value": 127}, "group": "control_change"}, {"time": 368, "annotation": {"number": 10, "value": 84}, "group": "control_change"}, {"time": 384, "annotation": {"number": 91, "value": 82}, "group": "control_change"}, {"time": 400, "annotation": {"number": 93, "value": 61}, "group": "control_change"}, {"time": 416, "annotation": {"number": 101, "value": 0}, "group": "control_change"}, {"time": 432, "annotation": {"number": 100, "value": 0}, "group": "control_change"}, {"time": 448, "annotation": {"number": 6, "value": 12}, "group": "control_change"}, {"time": 464, "annotation": {"number": 101, "value": 127}, "group": "control_change"}, {"time": 480, "annotation": {"number": 100, "value": 127}, "group": "control_change"}, {"time": 85092, "annotation": {"number": 11, "value": 122}, "group": "control_change"}, {"time": 85108, "annotation": {"number": 11, "value": 118}, "group": "control_change"}, {"time": 85125, "annotation": {"number": 11, "value": 114}, "group": "control_change"}, {"time": 85141, "annotation": {"number": 11, "value": 110}, "group": "control_change"}, {"time": 85158, "annotation": {"number": 11, "value": 106}, "group": "control_change"}, {"time": 85175, "annotation": {"number": 11, "value": 102}, "group": "control_change"}, {"time": 85191, "annotation": {"number": 11, "value": 98}, "group": "control_change"}, {"time": 85208, "annotation": {"number": 11, "value": 94}, "group": "control_change"}, {"time": 85224, "annotation": {"number": 11, "value": 91}, "group": "control_change"}, {"time": 85241, "annotation": {"number": 11, "value": 87}, "group": "control_change"}, {"time": 85258, "annotation": {"number": 11, "value": 83}, "group": "control_change"}, {"time": 85274, "annotation": {"number": 11, "value": 79}, "group": "control_change"}, {"time": 85291, "annotation": {"number": 11, "value": 75}, "group": "control_change"}, {"time": 85307, "annotation": {"number": 11, "value": 71}, "group": "control_change"}, {"time": 85324, "annotation": {"number": 11, "value": 67}, "group": "control_change"}, {"time": 85340, "annotation": {"number": 11, "value": 64}, "group": "control_change"}, {"time": 85857, "annotation": {"number": 11, "value": 66}, "group": "control_change"}, {"time": 85872, "annotation": {"number": 11, "value": 67}, "group": "control_change"}, {"time": 85888, "annotation": {"number": 11, "value": 69}, "group": "control_change"}, {"time": 85904, "annotation": {"number": 11, "value": 71}, "group": "control_change"}, {"time": 85920, "annotation": {"number": 11, "value": 73}, "group": "control_change"}, {"time": 85936, "annotation": {"number": 11, "value": 74}, "group": "control_change"}, {"time": 85952, "annotation": {"number": 11, "value": 76}, "group": "control_change"}, {"time": 85968, "annotation": {"number": 11, "value": 78}, "group": "control_change"}, {"time": 85984, "annotation": {"number": 11, "value": 80}, "group": "control_change"}, {"time": 86000, "annotation": {"number": 11, "value": 82}, "group": "control_change"}, {"time": 86015, "annotation": {"number": 11, "value": 83}, "group": "control_change"}, {"time": 86031, "annotation": {"number": 11, "value": 85}, "group": "control_change"}, {"time": 86047, "annotation": {"number": 11, "value": 87}, "group": "control_change"}, {"time": 86063, "annotation": {"number": 11, "value": 89}, "group": "control_change"}, {"time": 86079, "annotation": {"number": 11, "value": 91}, "group": "control_change"}, {"time": 86095, "annotation": {"number": 11, "value": 92}, "group": "control_change"}, {"time": 86111, "annotation": {"number": 11, "value": 94}, "group": "control_change"}, {"time": 86127, "annotation": {"number": 11, "value": 96}, "group": "control_change"}, {"time": 86142, "annotation": {"number": 11, "value": 98}, "group": "control_change"}, {"time": 86158, "annotation": {"number": 11, "value": 99}, "group": "control_change"}, {"time": 86174, "annotation": {"number": 11, "value": 101}, "group": "control_change"}, {"time": 86190, "annotation": {"number": 11, "value": 103}, "group": "control_change"}, {"time": 86206, "annotation": {"number": 11, "value": 105}, "group": "control_change"}, {"time": 86222, "annotation": {"number": 11, "value": 107}, "group": "control_change"}, {"time": 86238, "annotation": {"number": 11, "value": 108}, "group": "control_change"}, {"time": 86254, "annotation": {"number": 11, "value": 110}, "group": "control_change"}, {"time": 86269, "annotation": {"number": 11, "value": 112}, "group": "control_change"}, {"time": 86285, "annotation": {"number": 11, "value": 114}, "group": "control_change"}, {"time": 86301, "annotation": {"number": 11, "value": 116}, "group": "control_change"}, {"time": 86317, "annotation": {"number": 11, "value": 117}, "group": "control_change"}, {"time": 86333, "annotation": {"number": 11, "value": 119}, "group": "control_change"}, {"time": 86349, "annotation": {"number": 11, "value": 121}, "group": "control_change"}, {"time": 86365, "annotation": {"number": 11, "value": 123}, "group": "control_change"}, {"time": 86381, "annotation": {"number": 11, "value": 125}, "group": "control_change"}, {"time": 86396, "annotation": {"number": 11, "value": 127}, "group": "control_change"}]}, {"program": 0, "is_drum": false, "name": "MELODY", "annotations": [{"time": 288, "annotation": {"number": 0, "value": 0}, "group": "control_change"}, {"time": 304, "annotation": {"number": 32, "value": 2}, "group": "control_change"}]}, {"program": 73, "is_drum": false, "name": "MELODY", "notes": [{"time": 20160, "pitch": 64, "duration": 240, "velocity": 122}, {"time": 20400, "pitch": 65, "duration": 260, "velocity": 112}, {"time": 20640, "pitch": 64, "duration": 200, "velocity": 112}, {"time": 20880, "pitch": 60, "duration": 130, "velocity": 95}, {"time": 21120, "pitch": 60, "duration": 250, "velocity": 114}, {"time": 21360, "pitch": 57, "duration": 100, "velocity": 103}, {"time": 21480, "pitch": 60, "duration": 590, "velocity": 114}, {"time": 22320, "pitch": 57, "duration": 220, "velocity": 112}, {"time": 22560, "pitch": 60, "duration": 220, "velocity": 125}, {"time": 22800, "pitch": 57, "duration": 180, "velocity": 102}, {"time": 23040, "pitch": 60, "duration": 230, "velocity": 103}, {"time": 23280, "pitch": 57, "duration": 470, "velocity": 106}, {"time": 23760, "pitch": 55, "duration": 890, "velocity": 125}, {"time": 27840, "pitch": 64, "duration": 170, "velocity": 112}, {"time": 28080, "pitch": 65, "duration": 230, "velocity": 106}, {"time": 28320, "pitch": 64, "duration": 200, "velocity": 125}, {"time": 28560, "pitch": 60, "duration": 130, "velocity": 106}, {"time": 28800, "pitch": 60, "duration": 220, "velocity": 106}, {"time": 29040, "pitch": 57, "duration": 100, "velocity": 95}, {"time": 29160, "pitch": 60, "duration": 550, "velocity": 112}, {"time": 30240, "pitch": 60, "duration": 240, "velocity": 114}, {"time": 30480, "pitch": 57, "duration": 220, "velocity": 83}, {"time": 30720, "pitch": 60, "duration": 150, "velocity": 106}, {"time": 30960, "pitch": 69, "duration": 450, "velocity": 125}, {"time": 31440, "pitch": 67, "duration": 1370, "velocity": 114}, {"time": 35400, "pitch": 57, "duration": 190, "velocity": 97}, {"time": 35520, "pitch": 60, "duration": 230, "velocity": 114}, {"time": 35760, "pitch": 57, "duration": 210, "velocity": 97}, {"time": 36000, "pitch": 60, "duration": 140, "velocity": 122}, {"time": 36120, "pitch": 57, "duration": 110, "velocity": 95}, {"time": 36360, "pitch": 60, "duration": 200, "velocity": 122}, {"time": 36720, "pitch": 60, "duration": 120, "velocity": 127}, {"time": 36840, "pitch": 62, "duration": 160, "velocity": 102}, {"time": 36960, "pitch": 63, "duration": 260, "velocity": 106}, {"time": 37200, "pitch": 62, "duration": 410, "velocity": 125}, {"time": 37680, "pitch": 60, "duration": 650, "velocity": 114}, {"time": 38400, "pitch": 62, "duration": 250, "velocity": 125}, {"time": 38640, "pitch": 60, "duration": 220, "velocity": 97}, {"time": 38880, "pitch": 67, "duration": 460, "velocity": 125}, {"time": 39360, "pitch": 64, "duration": 330, "velocity": 125}, {"time": 40080, "pitch": 64, "duration": 100, "velocity": 125}, {"time": 40200, "pitch": 64, "duration": 100, "velocity": 125}, {"time": 40320, "pitch": 65, "duration": 290, "velocity": 125}, {"time": 40560, "pitch": 67, "duration": 200, "velocity": 112}, {"time": 40800, "pitch": 70, "duration": 240, "velocity": 125}, {"time": 41040, "pitch": 69, "duration": 140, "velocity": 97}, {"time": 41280, "pitch": 69, "duration": 350, "velocity": 127}, {"time": 41760, "pitch": 69, "duration": 190, "velocity": 127}, {"time": 42000, "pitch": 67, "duration": 80, "velocity": 106}, {"time": 42120, "pitch": 69, "duration": 330, "velocity": 114}, {"time": 42720, "pitch": 60, "duration": 150, "velocity": 125}, {"time": 42960, "pitch": 60, "duration": 130, "velocity": 106}, {"time": 43200, "pitch": 60, "duration": 200, "velocity": 125}, {"time": 43440, "pitch": 57, "duration": 150, "velocity": 94}, {"time": 43560, "pitch": 60, "duration": 290, "velocity": 114}, {"time": 43920, "pitch": 62, "duration": 120, "velocity": 114}, {"time": 44160, "pitch": 62, "duration": 220, "velocity": 122}, {"time": 44400, "pitch": 60, "duration": 120, "velocity": 114}, {"time": 44640, "pitch": 60, "duration": 100, "velocity": 106}, {"time": 44880, "pitch": 60, "duration": 90, "velocity": 125}, {"time": 45120, "pitch": 60, "duration": 210, "velocity": 127}, {"time": 45360, "pitch": 57, "duration": 100, "velocity": 95}, {"time": 45480, "pitch": 60, "duration": 300, "velocity": 125}, {"time": 45840, "pitch": 64, "duration": 180, "velocity": 127}, {"time": 46080, "pitch": 62, "duration": 200, "velocity": 127}, {"time": 46320, "pitch": 60, "duration": 160, "velocity": 122}, {"time": 46560, "pitch": 67, "duration": 2140, "velocity": 114}, {"time": 49680, "pitch": 69, "duration": 160, "velocity": 114}, {"time": 49920, "pitch": 64, "duration": 200, "velocity": 114}, {"time": 50160, "pitch": 62, "duration": 90, "velocity": 97}, {"time": 50280, "pitch": 64, "duration": 1050, "velocity": 114}, {"time": 51600, "pitch": 64, "duration": 240, "velocity": 125}, {"time": 51840, "pitch": 65, "duration": 240, "velocity": 114}, {"time": 52080, "pitch": 67, "duration": 330, "velocity": 106}, {"time": 52560, "pitch": 64, "duration": 240, "velocity": 122}, {"time": 53040, "pitch": 62, "duration": 240, "velocity": 125}, {"time": 53520, "pitch": 64, "duration": 200, "velocity": 127}, {"time": 53760, "pitch": 62, "duration": 200, "velocity": 127}, {"time": 54000, "pitch": 60, "duration": 1440, "velocity": 127}, {"time": 55680, "pitch": 57, "duration": 240, "velocity": 125}, {"time": 55920, "pitch": 60, "duration": 220, "velocity": 106}, {"time": 56160, "pitch": 62, "duration": 210, "velocity": 114}, {"time": 56400, "pitch": 63, "duration": 240, "velocity": 114}, {"time": 56640, "pitch": 62, "duration": 220, "velocity": 122}, {"time": 56880, "pitch": 60, "duration": 380, "velocity": 122}, {"time": 57360, "pitch": 60, "duration": 230, "velocity": 122}, {"time": 57600, "pitch": 62, "duration": 240, "velocity": 114}, {"time": 57840, "pitch": 60, "duration": 180, "velocity": 103}, {"time": 58080, "pitch": 64, "duration": 1050, "velocity": 125}, {"time": 59280, "pitch": 64, "duration": 200, "velocity": 125}, {"time": 59520, "pitch": 65, "duration": 240, "velocity": 97}, {"time": 59760, "pitch": 67, "duration": 280, "velocity": 106}, {"time": 60240, "pitch": 64, "duration": 210, "velocity": 122}, {"time": 60720, "pitch": 62, "duration": 480, "velocity": 125}, {"time": 61320, "pitch": 62, "duration": 100, "velocity": 125}, {"time": 61440, "pitch": 64, "duration": 210, "velocity": 127}, {"time": 61680, "pitch": 60, "duration": 190, "velocity": 120}, {"time": 61920, "pitch": 69, "duration": 340, "velocity": 127}, {"time": 62280, "pitch": 64, "duration": 320, "velocity": 117}, {"time": 62640, "pitch": 60, "duration": 380, "velocity": 89}, {"time": 63120, "pitch": 60, "duration": 230, "velocity": 105}, {"time": 63360, "pitch": 62, "duration": 230, "velocity": 108}, {"time": 63600, "pitch": 60, "duration": 100, "velocity": 96}, {"time": 63840, "pitch": 62, "duration": 250, "velocity": 122}, {"time": 64080, "pitch": 63, "duration": 240, "velocity": 127}, {"time": 64320, "pitch": 62, "duration": 250, "velocity": 114}, {"time": 64560, "pitch": 60, "duration": 140, "velocity": 112}, {"time": 64800, "pitch": 60, "duration": 230, "velocity": 112}, {"time": 65040, "pitch": 62, "duration": 220, "velocity": 103}, {"time": 65280, "pitch": 60, "duration": 350, "velocity": 112}, {"time": 65760, "pitch": 64, "duration": 1060, "velocity": 122}, {"time": 66960, "pitch": 64, "duration": 240, "velocity": 125}, {"time": 67200, "pitch": 65, "duration": 240, "velocity": 114}, {"time": 67440, "pitch": 67, "duration": 330, "velocity": 106}, {"time": 67920, "pitch": 64, "duration": 240, "velocity": 122}, {"time": 68400, "pitch": 62, "duration": 260, "velocity": 125}, {"time": 68880, "pitch": 64, "duration": 200, "velocity": 127}, {"time": 69120, "pitch": 62, "duration": 200, "velocity": 127}, {"time": 69360, "pitch": 60, "duration": 1440, "velocity": 127}, {"time": 71040, "pitch": 57, "duration": 240, "velocity": 125}, {"time": 71280, "pitch": 60, "duration": 220, "velocity": 106}, {"time": 71520, "pitch": 62, "duration": 210, "velocity": 114}, {"time": 71760, "pitch": 63, "duration": 270, "velocity": 114}, {"time": 72000, "pitch": 62, "duration": 220, "velocity": 122}, {"time": 72240, "pitch": 60, "duration": 380, "velocity": 122}, {"time": 72720, "pitch": 60, "duration": 240, "velocity": 122}, {"time": 72960, "pitch": 62, "duration": 240, "velocity": 114}, {"time": 73200, "pitch": 60, "duration": 180, "velocity": 103}, {"time": 73440, "pitch": 64, "duration": 1050, "velocity": 125}, {"time": 74640, "pitch": 64, "duration": 200, "velocity": 125}, {"time": 74880, "pitch": 65, "duration": 240, "velocity": 97}, {"time": 75120, "pitch": 67, "duration": 280, "velocity": 106}, {"time": 75600, "pitch": 64, "duration": 210, "velocity": 122}, {"time": 76080, "pitch": 62, "duration": 380, "velocity": 125}, {"time": 76560, "pitch": 62, "duration": 240, "velocity": 125}, {"time": 76800, "pitch": 64, "duration": 210, "velocity": 127}, {"time": 77040, "pitch": 60, "duration": 190, "velocity": 120}, {"time": 77280, "pitch": 69, "duration": 340, "velocity": 127}, {"time": 77640, "pitch": 64, "duration": 320, "velocity": 127}, {"time": 78000, "pitch": 60, "duration": 540, "velocity": 89}, {"time": 78720, "pitch": 62, "duration": 100, "velocity": 108}, {"time": 78840, "pitch": 62, "duration": 100, "velocity": 108}, {"time": 78960, "pitch": 60, "duration": 100, "velocity": 96}, {"time": 79080, "pitch": 60, "duration": 100, "velocity": 96}, {"time": 79200, "pitch": 62, "duration": 240, "velocity": 122}, {"time": 79440, "pitch": 63, "duration": 240, "velocity": 127}, {"time": 79680, "pitch": 62, "duration": 240, "velocity": 114}, {"time": 79920, "pitch": 60, "duration": 460, "velocity": 112}, {"time": 80400, "pitch": 62, "duration": 220, "velocity": 103}, {"time": 80640, "pitch": 60, "duration": 350, "velocity": 112}, {"time": 81120, "pitch": 60, "duration": 1440, "velocity": 112}, {"time": 89280, "pitch": 64, "duration": 240, "velocity": 122}, {"time": 89520, "pitch": 65, "duration": 240, "velocity": 112}, {"time": 89760, "pitch": 64, "duration": 200, "velocity": 112}, {"time": 90000, "pitch": 60, "duration": 130, "velocity": 95}, {"time": 90240, "pitch": 60, "duration": 240, "velocity": 114}, {"time": 90480, "pitch": 57, "duration": 100, "velocity": 103}, {"time": 90600, "pitch": 60, "duration": 590, "velocity": 114}, {"time": 91440, "pitch": 57, "duration": 220, "velocity": 112}, {"time": 91680, "pitch": 60, "duration": 220, "velocity": 125}, {"time": 91920, "pitch": 57, "duration": 180, "velocity": 102}, {"time": 92160, "pitch": 60, "duration": 230, "velocity": 103}, {"time": 92400, "pitch": 57, "duration": 250, "velocity": 106}, {"time": 92880, "pitch": 55, "duration": 890, "velocity": 125}, {"time": 96960, "pitch": 64, "duration": 170, "velocity": 112}, {"time": 97200, "pitch": 65, "duration": 230, "velocity": 106}, {"time": 97440, "pitch": 64, "duration": 200, "velocity": 125}, {"time": 97680, "pitch": 60, "duration": 130, "velocity": 106}, {"time": 97920, "pitch": 60, "duration": 220, "velocity": 106}, {"time": 98160, "pitch": 57, "duration": 100, "velocity": 95}, {"time": 98280, "pitch": 60, "duration": 550, "velocity": 112}, {"time": 99120, "pitch": 57, "duration": 180, "velocity": 106}, {"time": 99360, "pitch": 60, "duration": 240, "velocity": 114}, {"time": 99600, "pitch": 57, "duration": 220, "velocity": 83}, {"time": 99840, "pitch": 60, "duration": 150, "velocity": 106}, {"time": 100080, "pitch": 60, "duration": 110, "velocity": 106}, {"time": 100200, "pitch": 69, "duration": 350, "velocity": 125}, {"time": 100560, "pitch": 67, "duration": 1370, "velocity": 114}, {"time": 104520, "pitch": 57, "duration": 190, "velocity": 97}, {"time": 104640, "pitch": 60, "duration": 230, "velocity": 114}, {"time": 104880, "pitch": 57, "duration": 210, "velocity": 97}, {"time": 105120, "pitch": 60, "duration": 140, "velocity": 122}, {"time": 105240, "pitch": 57, "duration": 110, "velocity": 95}, {"time": 105480, "pitch": 60, "duration": 200, "velocity": 122}, {"time": 105840, "pitch": 60, "duration": 120, "velocity": 127}, {"time": 105960, "pitch": 62, "duration": 160, "velocity": 102}, {"time": 106080, "pitch": 63, "duration": 260, "velocity": 106}, {"time": 106320, "pitch": 62, "duration": 410, "velocity": 125}, {"time": 106800, "pitch": 60, "duration": 650, "velocity": 114}, {"time": 107520, "pitch": 62, "duration": 250, "velocity": 125}, {"time": 107760, "pitch": 60, "duration": 220, "velocity": 97}, {"time": 108000, "pitch": 67, "duration": 460, "velocity": 125}, {"time": 108480, "pitch": 64, "duration": 330, "velocity": 125}, {"time": 109200, "pitch": 64, "duration": 230, "velocity": 125}, {"time": 109440, "pitch": 65, "duration": 290, "velocity": 125}, {"time": 109680, "pitch": 67, "duration": 200, "velocity": 112}, {"time": 109920, "pitch": 70, "duration": 240, "velocity": 125}, {"time": 110160, "pitch": 69, "duration": 140, "velocity": 116}, {"time": 110400, "pitch": 69, "duration": 350, "velocity": 127}, {"time": 110880, "pitch": 69, "duration": 190, "velocity": 127}, {"time": 111120, "pitch": 67, "duration": 80, "velocity": 106}, {"time": 111240, "pitch": 69, "duration": 330, "velocity": 114}, {"time": 111840, "pitch": 60, "duration": 150, "velocity": 125}, {"time": 112080, "pitch": 60, "duration": 100, "velocity": 106}, {"time": 112200, "pitch": 60, "duration": 100, "velocity": 106}, {"time": 112320, "pitch": 60, "duration": 200, "velocity": 125}, {"time": 112560, "pitch": 57, "duration": 150, "velocity": 94}, {"time": 112680, "pitch": 60, "duration": 180, "velocity": 114}, {"time": 112920, "pitch": 60, "duration": 100, "velocity": 114}, {"time": 113040, "pitch": 62, "duration": 160, "velocity": 114}, {"time": 113280, "pitch": 62, "duration": 220, "velocity": 122}, {"time": 113520, "pitch": 60, "duration": 80, "velocity": 114}, {"time": 113640, "pitch": 60, "duration": 80, "velocity": 114}, {"time": 113760, "pitch": 60, "duration": 100, "velocity": 106}, {"time": 114000, "pitch": 60, "duration": 90, "velocity": 125}, {"time": 114240, "pitch": 60, "duration": 210, "velocity": 127}, {"time": 114480, "pitch": 57, "duration": 100, "velocity": 95}, {"time": 114600, "pitch": 60, "duration": 300, "velocity": 125}, {"time": 114960, "pitch": 64, "duration": 180, "velocity": 127}, {"time": 115200, "pitch": 62, "duration": 200, "velocity": 127}, {"time": 115440, "pitch": 60, "duration": 80, "velocity": 122}, {"time": 115560, "pitch": 60, "duration": 120, "velocity": 122}, {"time": 115680, "pitch": 67, "duration": 2140, "velocity": 114}, {"time": 118800, "pitch": 69, "duration": 160, "velocity": 114}, {"time": 119040, "pitch": 64, "duration": 200, "velocity": 114}, {"time": 119280, "pitch": 62, "duration": 90, "velocity": 97}, {"time": 119400, "pitch": 64, "duration": 1050, "velocity": 114}, {"time": 120720, "pitch": 64, "duration": 240, "velocity": 125}, {"time": 120960, "pitch": 65, "duration": 240, "velocity": 114}, {"time": 121200, "pitch": 67, "duration": 330, "velocity": 106}, {"time": 121680, "pitch": 64, "duration": 240, "velocity": 122}, {"time": 122160, "pitch": 62, "duration": 240, "velocity": 125}, {"time": 122640, "pitch": 64, "duration": 200, "velocity": 127}, {"time": 122880, "pitch": 62, "duration": 200, "velocity": 127}, {"time": 123120, "pitch": 60, "duration": 1260, "velocity": 127}, {"time": 124800, "pitch": 57, "duration": 240, "velocity": 125}, {"time": 125040, "pitch": 60, "duration": 220, "velocity": 106}, {"time": 125280, "pitch": 62, "duration": 210, "velocity": 114}, {"time": 125520, "pitch": 63, "duration": 270, "velocity": 114}, {"time": 125760, "pitch": 62, "duration": 220, "velocity": 122}, {"time": 126000, "pitch": 60, "duration": 380, "velocity": 122}, {"time": 126480, "pitch": 60, "duration": 240, "velocity": 122}, {"time": 126720, "pitch": 62, "duration": 240, "velocity": 114}, {"time": 126960, "pitch": 60, "duration": 180, "velocity": 103}, {"time": 127200, "pitch": 64, "duration": 1050, "velocity": 125}, {"time": 128400, "pitch": 64, "duration": 200, "velocity": 125}, {"time": 128640, "pitch": 65, "duration": 240, "velocity": 97}, {"time": 128880, "pitch": 67, "duration": 280, "velocity": 106}, {"time": 129360, "pitch": 64, "duration": 210, "velocity": 122}, {"time": 129840, "pitch": 62, "duration": 380, "velocity": 125}, {"time": 130320, "pitch": 62, "duration": 240, "velocity": 125}, {"time": 130560, "pitch": 64, "duration": 210, "velocity": 127}, {"time": 130800, "pitch": 60, "duration": 190, "velocity": 120}, {"time": 131040, "pitch": 69, "duration": 340, "velocity": 127}, {"time": 131400, "pitch": 69, "duration": 100, "velocity": 127}, {"time": 131520, "pitch": 64, "duration": 80, "velocity": 119}, {"time": 131640, "pitch": 64, "duration": 100, "velocity": 127}, {"time": 131760, "pitch": 60, "duration": 380, "velocity": 89}, {"time": 132240, "pitch": 60, "duration": 240, "velocity": 100}, {"time": 132480, "pitch": 62, "duration": 230, "velocity": 108}, {"time": 132720, "pitch": 60, "duration": 100, "velocity": 96}, {"time": 132960, "pitch": 62, "duration": 240, "velocity": 122}, {"time": 133200, "pitch": 63, "duration": 240, "velocity": 127}, {"time": 133440, "pitch": 62, "duration": 250, "velocity": 114}, {"time": 133680, "pitch": 60, "duration": 460, "velocity": 112}, {"time": 134160, "pitch": 62, "duration": 220, "velocity": 103}, {"time": 134400, "pitch": 60, "duration": 350, "velocity": 112}, {"time": 134880, "pitch": 64, "duration": 1060, "velocity": 122}, {"time": 136080, "pitch": 64, "duration": 250, "velocity": 125}, {"time": 136320, "pitch": 65, "duration": 270, "velocity": 114}, {"time": 136560, "pitch": 67, "duration": 330, "velocity": 106}, {"time": 137040, "pitch": 64, "duration": 240, "velocity": 122}, {"time": 137520, "pitch": 62, "duration": 80, "velocity": 125}, {"time": 137640, "pitch": 62, "duration": 180, "velocity": 125}, {"time": 138000, "pitch": 64, "duration": 200, "velocity": 127}, {"time": 138480, "pitch": 60, "duration": 380, "velocity": 127}, {"time": 138960, "pitch": 60, "duration": 80, "velocity": 127}, {"time": 139080, "pitch": 60, "duration": 80, "velocity": 127}, {"time": 139200, "pitch": 60, "duration": 380, "velocity": 127}, {"time": 140160, "pitch": 57, "duration": 240, "velocity": 125}, {"time": 140400, "pitch": 60, "duration": 220, "velocity": 106}, {"time": 140640, "pitch": 62, "duration": 80, "velocity": 114}, {"time": 140760, "pitch": 62, "duration": 110, "velocity": 114}, {"time": 140880, "pitch": 63, "duration": 270, "velocity": 114}, {"time": 141120, "pitch": 62, "duration": 220, "velocity": 122}, {"time": 141360, "pitch": 60, "duration": 380, "velocity": 122}, {"time": 141840, "pitch": 60, "duration": 240, "velocity": 122}, {"time": 142080, "pitch": 62, "duration": 240, "velocity": 114}, {"time": 142320, "pitch": 60, "duration": 180, "velocity": 103}, {"time": 142560, "pitch": 64, "duration": 1050, "velocity": 125}, {"time": 143760, "pitch": 64, "duration": 200, "velocity": 125}, {"time": 144000, "pitch": 65, "duration": 240, "velocity": 97}, {"time": 144240, "pitch": 67, "duration": 280, "velocity": 106}, {"time": 144720, "pitch": 64, "duration": 210, "velocity": 122}, {"time": 145200, "pitch": 62, "duration": 380, "velocity": 125}, {"time": 145680, "pitch": 62, "duration": 240, "velocity": 125}, {"time": 145920, "pitch": 64, "duration": 210, "velocity": 127}, {"time": 146160, "pitch": 60, "duration": 190, "velocity": 120}, {"time": 146400, "pitch": 69, "duration": 340, "velocity": 127}, {"time": 146760, "pitch": 69, "duration": 100, "velocity": 127}, {"time": 146880, "pitch": 64, "duration": 80, "velocity": 127}, {"time": 147000, "pitch": 64, "duration": 100, "velocity": 127}, {"time": 147120, "pitch": 60, "duration": 160, "velocity": 89}, {"time": 147360, "pitch": 60, "duration": 350, "velocity": 89}, {"time": 147720, "pitch": 62, "duration": 80, "velocity": 89}, {"time": 147840, "pitch": 62, "duration": 230, "velocity": 108}, {"time": 148080, "pitch": 60, "duration": 100, "velocity": 96}, {"time": 148320, "pitch": 62, "duration": 240, "velocity": 122}, {"time": 148560, "pitch": 63, "duration": 240, "velocity": 127}, {"time": 148800, "pitch": 62, "duration": 240, "velocity": 114}, {"time": 149040, "pitch": 60, "duration": 80, "velocity": 112}, {"time": 149160, "pitch": 60, "duration": 300, "velocity": 112}, {"time": 149520, "pitch": 60, "duration": 220, "velocity": 103}, {"time": 149760, "pitch": 62, "duration": 220, "velocity": 103}, {"time": 150000, "pitch": 60, "duration": 140, "velocity": 112}, {"time": 150240, "pitch": 60, "duration": 1440, "velocity": 112}, {"time": 204000, "pitch": 64, "duration": 1060, "velocity": 122}, {"time": 205200, "pitch": 64, "duration": 240, "velocity": 125}, {"time": 205440, "pitch": 65, "duration": 240, "velocity": 114}, {"time": 205680, "pitch": 67, "duration": 330, "velocity": 106}, {"time": 206160, "pitch": 64, "duration": 240, "velocity": 122}, {"time": 206640, "pitch": 62, "duration": 260, "velocity": 125}, {"time": 207120, "pitch": 64, "duration": 200, "velocity": 127}, {"time": 207360, "pitch": 62, "duration": 200, "velocity": 127}, {"time": 207600, "pitch": 60, "duration": 960, "velocity": 127}, {"time": 209280, "pitch": 57, "duration": 240, "velocity": 125}, {"time": 209520, "pitch": 60, "duration": 220, "velocity": 106}, {"time": 209760, "pitch": 62, "duration": 210, "velocity": 114}, {"time": 210000, "pitch": 63, "duration": 270, "velocity": 114}, {"time": 210240, "pitch": 62, "duration": 220, "velocity": 122}, {"time": 210480, "pitch": 60, "duration": 380, "velocity": 122}, {"time": 210960, "pitch": 60, "duration": 240, "velocity": 122}, {"time": 211200, "pitch": 62, "duration": 240, "velocity": 114}, {"time": 211440, "pitch": 60, "duration": 180, "velocity": 103}, {"time": 211680, "pitch": 64, "duration": 1050, "velocity": 125}, {"time": 212880, "pitch": 64, "duration": 200, "velocity": 125}, {"time": 213120, "pitch": 65, "duration": 240, "velocity": 97}, {"time": 213360, "pitch": 67, "duration": 280, "velocity": 106}, {"time": 213840, "pitch": 64, "duration": 210, "velocity": 122}, {"time": 214320, "pitch": 62, "duration": 380, "velocity": 125}, {"time": 214800, "pitch": 62, "duration": 240, "velocity": 125}, {"time": 215040, "pitch": 64, "duration": 210, "velocity": 127}, {"time": 215280, "pitch": 60, "duration": 190, "velocity": 120}, {"time": 215520, "pitch": 69, "duration": 340, "velocity": 127}, {"time": 215880, "pitch": 64, "duration": 320, "velocity": 127}, {"time": 216240, "pitch": 60, "duration": 540, "velocity": 89}, {"time": 216960, "pitch": 62, "duration": 100, "velocity": 108}, {"time": 217080, "pitch": 62, "duration": 100, "velocity": 108}, {"time": 217200, "pitch": 60, "duration": 100, "velocity": 96}, {"time": 217320, "pitch": 60, "duration": 100, "velocity": 96}, {"time": 217440, "pitch": 62, "duration": 240, "velocity": 122}, {"time": 217680, "pitch": 63, "duration": 240, "velocity": 127}, {"time": 217920, "pitch": 62, "duration": 240, "velocity": 114}, {"time": 218160, "pitch": 60, "duration": 460, "velocity": 112}, {"time": 218640, "pitch": 62, "duration": 220, "velocity": 103}, {"time": 218880, "pitch": 60, "duration": 140, "velocity": 112}, {"time": 219120, "pitch": 60, "duration": 140, "velocity": 112}, {"time": 219360, "pitch": 64, "duration": 1060, "velocity": 122}, {"time": 220560, "pitch": 64, "duration": 250, "velocity": 125}, {"time": 220800, "pitch": 65, "duration": 270, "velocity": 114}, {"time": 221040, "pitch": 67, "duration": 330, "velocity": 106}, {"time": 221520, "pitch": 64, "duration": 240, "velocity": 122}, {"time": 222000, "pitch": 62, "duration": 80, "velocity": 125}, {"time": 222120, "pitch": 62, "duration": 180, "velocity": 125}, {"time": 222480, "pitch": 64, "duration": 200, "velocity": 127}, {"time": 222960, "pitch": 60, "duration": 380, "velocity": 127}, {"time": 223440, "pitch": 60, "duration": 80, "velocity": 127}, {"time": 223560, "pitch": 60, "duration": 80, "velocity": 127}, {"time": 223680, "pitch": 60, "duration": 380, "velocity": 127}, {"time": 224640, "pitch": 57, "duration": 240, "velocity": 125}, {"time": 224880, "pitch": 60, "duration": 220, "velocity": 106}, {"time": 225120, "pitch": 62, "duration": 80, "velocity": 114}, {"time": 225240, "pitch": 62, "duration": 110, "velocity": 114}, {"time": 225360, "pitch": 63, "duration": 270, "velocity": 114}, {"time": 225600, "pitch": 62, "duration": 220, "velocity": 122}, {"time": 225840, "pitch": 60, "duration": 380, "velocity": 122}, {"time": 226320, "pitch": 60, "duration": 240, "velocity": 122}, {"time": 226560, "pitch": 62, "duration": 240, "velocity": 114}, {"time": 226800, "pitch": 60, "duration": 180, "velocity": 103}, {"time": 227040, "pitch": 64, "duration": 1050, "velocity": 125}, {"time": 228240, "pitch": 64, "duration": 200, "velocity": 125}, {"time": 228480, "pitch": 65, "duration": 240, "velocity": 97}, {"time": 228720, "pitch": 67, "duration": 280, "velocity": 106}, {"time": 229200, "pitch": 64, "duration": 210, "velocity": 122}, {"time": 229680, "pitch": 62, "duration": 380, "velocity": 125}, {"time": 230160, "pitch": 62, "duration": 240, "velocity": 125}, {"time": 230400, "pitch": 64, "duration": 210, "velocity": 127}, {"time": 230640, "pitch": 60, "duration": 190, "velocity": 120}, {"time": 230880, "pitch": 69, "duration": 340, "velocity": 127}, {"time": 231240, "pitch": 69, "duration": 100, "velocity": 127}, {"time": 231360, "pitch": 64, "duration": 80, "velocity": 127}, {"time": 231480, "pitch": 64, "duration": 100, "velocity": 127}, {"time": 231600, "pitch": 60, "duration": 160, "velocity": 89}, {"time": 231840, "pitch": 60, "duration": 350, "velocity": 89}, {"time": 232200, "pitch": 62, "duration": 80, "velocity": 89}, {"time": 232320, "pitch": 62, "duration": 230, "velocity": 108}, {"time": 232560, "pitch": 60, "duration": 100, "velocity": 96}, {"time": 232800, "pitch": 62, "duration": 240, "velocity": 122}, {"time": 233040, "pitch": 63, "duration": 240, "velocity": 127}, {"time": 233280, "pitch": 62, "duration": 240, "velocity": 114}, {"time": 233520, "pitch": 60, "duration": 80, "velocity": 112}, {"time": 233640, "pitch": 60, "duration": 300, "velocity": 112}, {"time": 234000, "pitch": 60, "duration": 220, "velocity": 103}, {"time": 234240, "pitch": 62, "duration": 220, "velocity": 103}, {"time": 234480, "pitch": 60, "duration": 140, "velocity": 112}, {"time": 234720, "pitch": 60, "duration": 1440, "velocity": 112}], "annotations": [{"time": 336, "annotation": {"number": 7, "value": 90}, "group": "control_change"}, {"time": 352, "annotation": {"number": 11, "value": 127}, "group": "control_change"}, {"time": 368, "annotation": {"number": 10, "value": 64}, "group": "control_change"}, {"time": 384, "annotation": {"number": 91, "value": 50}, "group": "control_change"}, {"time": 400, "annotation": {"number": 93, "value": 0}, "group": "control_change"}, {"time": 416, "annotation": {"number": 101, "value": 0}, "group": "control_change"}, {"time": 432, "annotation": {"number": 100, "value": 0}, "group": "control_change"}, {"time": 448, "annotation": {"number": 6, "value": 12}, "group": "control_change"}, {"time": 464, "annotation": {"number": 101, "value": 127}, "group": "control_change"}, {"time": 480, "annotation": {"number": 100, "value": 127}, "group": "control_change"}]}, {"program": 0, "is_drum": false, "name": "STRINGS(H)", "annotations": [{"time": 288, "annotation": {"number": 0, "value": 0}, "group": "control_change"}, {"time": 304, "annotation": {"number": 32, "value": 2}, "group": "control_change"}]}, {"program": 48, "is_drum": false, "name": "STRINGS(H)", "notes": [{"time": 55200, "pitch": 91, "duration": 80, "velocity": 119}, {"time": 55200, "pitch": 103, "duration": 80, "velocity": 104}, {"time": 55280, "pitch": 89, "duration": 80, "velocity": 113}, {"time": 55280, "pitch": 101, "duration": 80, "velocity": 98}, {"time": 55360, "pitch": 84, "duration": 80, "velocity": 107}, {"time": 55360, "pitch": 96, "duration": 80, "velocity": 92}, {"time": 55440, "pitch": 79, "duration": 80, "velocity": 101}, {"time": 55440, "pitch": 91, "duration": 80, "velocity": 86}, {"time": 55520, "pitch": 77, "duration": 80, "velocity": 95}, {"time": 55520, "pitch": 89, "duration": 80, "velocity": 80}, {"time": 55600, "pitch": 72, "duration": 80, "velocity": 89}, {"time": 55600, "pitch": 84, "duration": 80, "velocity": 74}, {"time": 55680, "pitch": 65, "duration": 120, "velocity": 83}, {"time": 55680, "pitch": 77, "duration": 120, "velocity": 68}, {"time": 64080, "pitch": 68, "duration": 230, "velocity": 111}, {"time": 64080, "pitch": 80, "duration": 230, "velocity": 111}, {"time": 64320, "pitch": 70, "duration": 230, "velocity": 90}, {"time": 64320, "pitch": 82, "duration": 230, "velocity": 90}, {"time": 64560, "pitch": 72, "duration": 680, "velocity": 106}, {"time": 64560, "pitch": 84, "duration": 680, "velocity": 106}, {"time": 65280, "pitch": 74, "duration": 220, "velocity": 125}, {"time": 65280, "pitch": 86, "duration": 220, "velocity": 125}, {"time": 65520, "pitch": 72, "duration": 180, "velocity": 103}, {"time": 65520, "pitch": 84, "duration": 180, "velocity": 103}, {"time": 65760, "pitch": 79, "duration": 300, "velocity": 125}, {"time": 65760, "pitch": 91, "duration": 300, "velocity": 125}, {"time": 66120, "pitch": 76, "duration": 150, "velocity": 114}, {"time": 66120, "pitch": 88, "duration": 150, "velocity": 114}, {"time": 66480, "pitch": 72, "duration": 580, "velocity": 105}, {"time": 66480, "pitch": 84, "duration": 580, "velocity": 105}, {"time": 72000, "pitch": 72, "duration": 110, "velocity": 127}, {"time": 72000, "pitch": 84, "duration": 110, "velocity": 127}, {"time": 72720, "pitch": 65, "duration": 80, "velocity": 96}, {"time": 72720, "pitch": 77, "duration": 80, "velocity": 96}, {"time": 72960, "pitch": 72, "duration": 100, "velocity": 125}, {"time": 72960, "pitch": 84, "duration": 100, "velocity": 125}, {"time": 73200, "pitch": 65, "duration": 100, "velocity": 98}, {"time": 73200, "pitch": 77, "duration": 100, "velocity": 98}, {"time": 73440, "pitch": 64, "duration": 100, "velocity": 114}, {"time": 73440, "pitch": 76, "duration": 100, "velocity": 114}, {"time": 73920, "pitch": 72, "duration": 3360, "velocity": 106}, {"time": 73920, "pitch": 79, "duration": 3360, "velocity": 106}, {"time": 77280, "pitch": 69, "duration": 960, "velocity": 98}, {"time": 77280, "pitch": 81, "duration": 960, "velocity": 98}, {"time": 78240, "pitch": 79, "duration": 1440, "velocity": 90}, {"time": 78240, "pitch": 91, "duration": 1440, "velocity": 90}, {"time": 79680, "pitch": 77, "duration": 470, "velocity": 95}, {"time": 79680, "pitch": 89, "duration": 470, "velocity": 95}, {"time": 80160, "pitch": 72, "duration": 480, "velocity": 104}, {"time": 80160, "pitch": 84, "duration": 480, "velocity": 104}, {"time": 80640, "pitch": 74, "duration": 470, "velocity": 91}, {"time": 80640, "pitch": 86, "duration": 470, "velocity": 91}, {"time": 81120, "pitch": 72, "duration": 210, "velocity": 113}, {"time": 81120, "pitch": 84, "duration": 210, "velocity": 113}, {"time": 84960, "pitch": 76, "duration": 3840, "velocity": 77}, {"time": 84960, "pitch": 84, "duration": 3840, "velocity": 83}, {"time": 124320, "pitch": 91, "duration": 80, "velocity": 119}, {"time": 124320, "pitch": 103, "duration": 80, "velocity": 104}, {"time": 124400, "pitch": 89, "duration": 80, "velocity": 113}, {"time": 124400, "pitch": 101, "duration": 80, "velocity": 98}, {"time": 124480, "pitch": 84, "duration": 80, "velocity": 107}, {"time": 124480, "pitch": 96, "duration": 80, "velocity": 92}, {"time": 124560, "pitch": 79, "duration": 80, "velocity": 101}, {"time": 124560, "pitch": 91, "duration": 80, "velocity": 86}, {"time": 124640, "pitch": 77, "duration": 80, "velocity": 95}, {"time": 124640, "pitch": 89, "duration": 80, "velocity": 80}, {"time": 124720, "pitch": 72, "duration": 80, "velocity": 89}, {"time": 124720, "pitch": 84, "duration": 80, "velocity": 74}, {"time": 124800, "pitch": 65, "duration": 120, "velocity": 83}, {"time": 124800, "pitch": 77, "duration": 120, "velocity": 68}, {"time": 129360, "pitch": 69, "duration": 230, "velocity": 114}, {"time": 129360, "pitch": 81, "duration": 230, "velocity": 79}, {"time": 129600, "pitch": 68, "duration": 230, "velocity": 112}, {"time": 129600, "pitch": 80, "duration": 230, "velocity": 77}, {"time": 129840, "pitch": 67, "duration": 480, "velocity": 114}, {"time": 129840, "pitch": 79, "duration": 480, "velocity": 79}, {"time": 130320, "pitch": 74, "duration": 240, "velocity": 113}, {"time": 130320, "pitch": 86, "duration": 240, "velocity": 78}, {"time": 130560, "pitch": 73, "duration": 230, "velocity": 110}, {"time": 130560, "pitch": 85, "duration": 230, "velocity": 75}, {"time": 130800, "pitch": 72, "duration": 1980, "velocity": 101}, {"time": 130800, "pitch": 84, "duration": 1980, "velocity": 76}, {"time": 133200, "pitch": 68, "duration": 230, "velocity": 111}, {"time": 133200, "pitch": 80, "duration": 230, "velocity": 111}, {"time": 133440, "pitch": 70, "duration": 230, "velocity": 90}, {"time": 133440, "pitch": 82, "duration": 230, "velocity": 90}, {"time": 133680, "pitch": 72, "duration": 680, "velocity": 106}, {"time": 133680, "pitch": 84, "duration": 680, "velocity": 106}, {"time": 134400, "pitch": 74, "duration": 220, "velocity": 125}, {"time": 134400, "pitch": 86, "duration": 220, "velocity": 125}, {"time": 134640, "pitch": 72, "duration": 180, "velocity": 103}, {"time": 134640, "pitch": 84, "duration": 180, "velocity": 103}, {"time": 134880, "pitch": 79, "duration": 300, "velocity": 125}, {"time": 134880, "pitch": 91, "duration": 300, "velocity": 125}, {"time": 135240, "pitch": 76, "duration": 150, "velocity": 114}, {"time": 135240, "pitch": 88, "duration": 150, "velocity": 114}, {"time": 135600, "pitch": 72, "duration": 580, "velocity": 105}, {"time": 135600, "pitch": 84, "duration": 580, "velocity": 105}, {"time": 141120, "pitch": 72, "duration": 110, "velocity": 127}, {"time": 141120, "pitch": 84, "duration": 110, "velocity": 127}, {"time": 141840, "pitch": 65, "duration": 80, "velocity": 96}, {"time": 141840, "pitch": 77, "duration": 80, "velocity": 96}, {"time": 142080, "pitch": 72, "duration": 100, "velocity": 125}, {"time": 142080, "pitch": 84, "duration": 100, "velocity": 125}, {"time": 142320, "pitch": 65, "duration": 100, "velocity": 98}, {"time": 142320, "pitch": 77, "duration": 100, "velocity": 98}, {"time": 142560, "pitch": 64, "duration": 100, "velocity": 114}, {"time": 142560, "pitch": 76, "duration": 100, "velocity": 114}, {"time": 143040, "pitch": 72, "duration": 3360, "velocity": 106}, {"time": 143040, "pitch": 79, "duration": 3360, "velocity": 106}, {"time": 146400, "pitch": 69, "duration": 960, "velocity": 98}, {"time": 146400, "pitch": 81, "duration": 960, "velocity": 98}, {"time": 147360, "pitch": 79, "duration": 1440, "velocity": 90}, {"time": 147360, "pitch": 91, "duration": 1440, "velocity": 75}, {"time": 148800, "pitch": 77, "duration": 470, "velocity": 95}, {"time": 148800, "pitch": 89, "duration": 470, "velocity": 95}, {"time": 149280, "pitch": 72, "duration": 480, "velocity": 104}, {"time": 149280, "pitch": 84, "duration": 480, "velocity": 104}, {"time": 149760, "pitch": 74, "duration": 470, "velocity": 91}, {"time": 149760, "pitch": 86, "duration": 470, "velocity": 91}, {"time": 178080, "pitch": 91, "duration": 80, "velocity": 119}, {"time": 178080, "pitch": 103, "duration": 80, "velocity": 104}, {"time": 178160, "pitch": 89, "duration": 80, "velocity": 113}, {"time": 178160, "pitch": 101, "duration": 80, "velocity": 98}, {"time": 178240, "pitch": 84, "duration": 80, "velocity": 107}, {"time": 178240, "pitch": 96, "duration": 80, "velocity": 92}, {"time": 178320, "pitch": 79, "duration": 80, "velocity": 101}, {"time": 178320, "pitch": 91, "duration": 80, "velocity": 86}, {"time": 178400, "pitch": 77, "duration": 80, "velocity": 95}, {"time": 178400, "pitch": 89, "duration": 80, "velocity": 80}, {"time": 178480, "pitch": 72, "duration": 80, "velocity": 89}, {"time": 178480, "pitch": 84, "duration": 80, "velocity": 74}, {"time": 178560, "pitch": 65, "duration": 120, "velocity": 83}, {"time": 178560, "pitch": 77, "duration": 120, "velocity": 68}, {"time": 183120, "pitch": 69, "duration": 230, "velocity": 114}, {"time": 183360, "pitch": 68, "duration": 230, "velocity": 112}, {"time": 183600, "pitch": 67, "duration": 480, "velocity": 114}, {"time": 184080, "pitch": 74, "duration": 240, "velocity": 113}, {"time": 184320, "pitch": 73, "duration": 230, "velocity": 110}, {"time": 184560, "pitch": 72, "duration": 1980, "velocity": 101}, {"time": 186960, "pitch": 68, "duration": 230, "velocity": 111}, {"time": 186960, "pitch": 80, "duration": 230, "velocity": 111}, {"time": 187200, "pitch": 70, "duration": 230, "velocity": 90}, {"time": 187200, "pitch": 82, "duration": 230, "velocity": 90}, {"time": 187440, "pitch": 72, "duration": 680, "velocity": 106}, {"time": 187440, "pitch": 84, "duration": 680, "velocity": 106}, {"time": 188160, "pitch": 74, "duration": 220, "velocity": 125}, {"time": 188160, "pitch": 86, "duration": 220, "velocity": 125}, {"time": 188400, "pitch": 72, "duration": 180, "velocity": 103}, {"time": 188400, "pitch": 84, "duration": 180, "velocity": 103}, {"time": 188640, "pitch": 79, "duration": 300, "velocity": 125}, {"time": 188640, "pitch": 91, "duration": 300, "velocity": 125}, {"time": 189000, "pitch": 76, "duration": 150, "velocity": 114}, {"time": 189000, "pitch": 88, "duration": 150, "velocity": 114}, {"time": 189360, "pitch": 72, "duration": 580, "velocity": 105}, {"time": 189360, "pitch": 84, "duration": 580, "velocity": 105}, {"time": 194880, "pitch": 72, "duration": 110, "velocity": 127}, {"time": 194880, "pitch": 84, "duration": 110, "velocity": 127}, {"time": 195600, "pitch": 65, "duration": 80, "velocity": 96}, {"time": 195600, "pitch": 77, "duration": 80, "velocity": 96}, {"time": 195840, "pitch": 72, "duration": 100, "velocity": 125}, {"time": 195840, "pitch": 84, "duration": 100, "velocity": 125}, {"time": 196080, "pitch": 65, "duration": 100, "velocity": 98}, {"time": 196080, "pitch": 77, "duration": 100, "velocity": 98}, {"time": 196320, "pitch": 64, "duration": 100, "velocity": 114}, {"time": 196320, "pitch": 76, "duration": 100, "velocity": 114}, {"time": 196800, "pitch": 72, "duration": 3360, "velocity": 106}, {"time": 196800, "pitch": 79, "duration": 3360, "velocity": 106}, {"time": 200160, "pitch": 69, "duration": 960, "velocity": 98}, {"time": 200160, "pitch": 81, "duration": 960, "velocity": 98}, {"time": 201120, "pitch": 67, "duration": 2880, "velocity": 90}, {"time": 201120, "pitch": 79, "duration": 2880, "velocity": 90}, {"time": 208800, "pitch": 91, "duration": 80, "velocity": 119}, {"time": 208800, "pitch": 103, "duration": 80, "velocity": 104}, {"time": 208880, "pitch": 89, "duration": 80, "velocity": 113}, {"time": 208880, "pitch": 101, "duration": 80, "velocity": 98}, {"time": 208960, "pitch": 84, "duration": 80, "velocity": 107}, {"time": 208960, "pitch": 96, "duration": 80, "velocity": 92}, {"time": 209040, "pitch": 79, "duration": 80, "velocity": 101}, {"time": 209040, "pitch": 91, "duration": 80, "velocity": 86}, {"time": 209120, "pitch": 77, "duration": 80, "velocity": 95}, {"time": 209120, "pitch": 89, "duration": 80, "velocity": 80}, {"time": 209200, "pitch": 72, "duration": 80, "velocity": 89}, {"time": 209200, "pitch": 84, "duration": 80, "velocity": 74}, {"time": 209280, "pitch": 65, "duration": 120, "velocity": 83}, {"time": 209280, "pitch": 77, "duration": 120, "velocity": 68}, {"time": 213840, "pitch": 69, "duration": 230, "velocity": 114}, {"time": 213840, "pitch": 81, "duration": 230, "velocity": 79}, {"time": 214080, "pitch": 68, "duration": 230, "velocity": 112}, {"time": 214080, "pitch": 80, "duration": 230, "velocity": 77}, {"time": 214320, "pitch": 67, "duration": 480, "velocity": 114}, {"time": 214320, "pitch": 79, "duration": 480, "velocity": 79}, {"time": 214800, "pitch": 74, "duration": 240, "velocity": 113}, {"time": 214800, "pitch": 86, "duration": 240, "velocity": 78}, {"time": 215040, "pitch": 73, "duration": 230, "velocity": 110}, {"time": 215040, "pitch": 85, "duration": 230, "velocity": 75}, {"time": 215280, "pitch": 72, "duration": 1980, "velocity": 101}, {"time": 215280, "pitch": 84, "duration": 1980, "velocity": 76}, {"time": 217680, "pitch": 68, "duration": 230, "velocity": 111}, {"time": 217680, "pitch": 80, "duration": 230, "velocity": 111}, {"time": 217920, "pitch": 70, "duration": 230, "velocity": 90}, {"time": 217920, "pitch": 82, "duration": 230, "velocity": 90}, {"time": 218160, "pitch": 72, "duration": 680, "velocity": 106}, {"time": 218160, "pitch": 84, "duration": 680, "velocity": 106}, {"time": 218880, "pitch": 74, "duration": 220, "velocity": 125}, {"time": 218880, "pitch": 86, "duration": 220, "velocity": 125}, {"time": 219120, "pitch": 72, "duration": 180, "velocity": 103}, {"time": 219120, "pitch": 84, "duration": 180, "velocity": 103}, {"time": 219360, "pitch": 79, "duration": 300, "velocity": 125}, {"time": 219360, "pitch": 91, "duration": 300, "velocity": 125}, {"time": 219720, "pitch": 76, "duration": 150, "velocity": 114}, {"time": 219720, "pitch": 88, "duration": 150, "velocity": 114}, {"time": 220080, "pitch": 72, "duration": 580, "velocity": 105}, {"time": 220080, "pitch": 84, "duration": 580, "velocity": 105}, {"time": 225600, "pitch": 72, "duration": 110, "velocity": 127}, {"time": 225600, "pitch": 84, "duration": 110, "velocity": 127}, {"time": 226320, "pitch": 65, "duration": 80, "velocity": 96}, {"time": 226320, "pitch": 77, "duration": 80, "velocity": 96}, {"time": 226560, "pitch": 72, "duration": 100, "velocity": 125}, {"time": 226560, "pitch": 84, "duration": 100, "velocity": 125}, {"time": 226800, "pitch": 65, "duration": 100, "velocity": 98}, {"time": 226800, "pitch": 77, "duration": 100, "velocity": 98}, {"time": 227040, "pitch": 64, "duration": 100, "velocity": 114}, {"time": 227040, "pitch": 76, "duration": 100, "velocity": 114}, {"time": 227520, "pitch": 72, "duration": 3360, "velocity": 106}, {"time": 227520, "pitch": 79, "duration": 3360, "velocity": 106}, {"time": 230880, "pitch": 69, "duration": 960, "velocity": 98}, {"time": 230880, "pitch": 81, "duration": 960, "velocity": 98}, {"time": 231840, "pitch": 79, "duration": 1440, "velocity": 90}, {"time": 231840, "pitch": 91, "duration": 1440, "velocity": 90}, {"time": 233280, "pitch": 77, "duration": 470, "velocity": 95}, {"time": 233280, "pitch": 89, "duration": 470, "velocity": 95}, {"time": 233760, "pitch": 72, "duration": 480, "velocity": 104}, {"time": 233760, "pitch": 84, "duration": 480, "velocity": 104}, {"time": 234240, "pitch": 74, "duration": 470, "velocity": 91}, {"time": 234240, "pitch": 86, "duration": 470, "velocity": 91}, {"time": 234720, "pitch": 72, "duration": 210, "velocity": 113}, {"time": 234720, "pitch": 84, "duration": 210, "velocity": 113}, {"time": 239280, "pitch": 63, "duration": 140, "velocity": 110}, {"time": 239280, "pitch": 75, "duration": 140, "velocity": 110}, {"time": 239760, "pitch": 62, "duration": 140, "velocity": 110}, {"time": 239760, "pitch": 74, "duration": 140, "velocity": 110}, {"time": 240240, "pitch": 60, "duration": 140, "velocity": 110}, {"time": 240240, "pitch": 72, "duration": 140, "velocity": 110}, {"time": 241200, "pitch": 75, "duration": 140, "velocity": 110}, {"time": 241200, "pitch": 87, "duration": 140, "velocity": 110}, {"time": 241680, "pitch": 74, "duration": 140, "velocity": 110}, {"time": 241680, "pitch": 86, "duration": 140, "velocity": 110}, {"time": 242160, "pitch": 72, "duration": 140, "velocity": 110}, {"time": 242160, "pitch": 84, "duration": 140, "velocity": 110}, {"time": 242400, "pitch": 84, "duration": 180, "velocity": 127}, {"time": 242400, "pitch": 96, "duration": 180, "velocity": 127}, {"time": 242640, "pitch": 84, "duration": 140, "velocity": 125}, {"time": 242640, "pitch": 96, "duration": 140, "velocity": 125}], "annotations": [{"time": 336, "annotation": {"number": 7, "value": 62}, "group": "control_change"}, {"time": 352, "annotation": {"number": 11, "value": 127}, "group": "control_change"}, {"time": 368, "annotation": {"number": 10, "value": 29}, "group": "control_change"}, {"time": 384, "annotation": {"number": 91, "value": 108}, "group": "control_change"}, {"time": 400, "annotation": {"number": 93, "value": 10}, "group": "control_change"}, {"time": 416, "annotation": {"number": 101, "value": 0}, "group": "control_change"}, {"time": 432, "annotation": {"number": 100, "value": 0}, "group": "control_change"}, {"time": 448, "annotation": {"number": 6, "value": 12}, "group": "control_change"}, {"time": 464, "annotation": {"number": 101, "value": 127}, "group": "control_change"}, {"time": 480, "annotation": {"number": 100, "value": 127}, "group": "control_change"}]}, {"program": 0, "is_drum": false, "name": "STRINGS(L) / E.GT", "annotations": [{"time": 288, "annotation": {"number": 0, "value": 0}, "group": "control_change"}, {"time": 304, "annotation": {"number": 32, "value": 2}, "group": "control_change"}]}, {"program": 29, "is_drum": false, "name": "STRINGS(L) / E.GT", "notes": [{"time": 42720, "pitch": 72, "duration": 240, "velocity": 97}, {"time": 42720, "pitch": 84, "duration": 120, "velocity": 112}, {"time": 42960, "pitch": 84, "duration": 60, "velocity": 97}, {"time": 43080, "pitch": 84, "duration": 60, "velocity": 103}, {"time": 43320, "pitch": 72, "duration": 330, "velocity": 120}, {"time": 43320, "pitch": 84, "duration": 150, "velocity": 112}, {"time": 43560, "pitch": 84, "duration": 50, "velocity": 95}, {"time": 43680, "pitch": 84, "duration": 70, "velocity": 83}, {"time": 43800, "pitch": 72, "duration": 170, "velocity": 125}, {"time": 43920, "pitch": 84, "duration": 60, "velocity": 114}, {"time": 44040, "pitch": 72, "duration": 20, "velocity": 95}, {"time": 44160, "pitch": 72, "duration": 110, "velocity": 89}, {"time": 44160, "pitch": 84, "duration": 70, "velocity": 66}, {"time": 44280, "pitch": 72, "duration": 110, "velocity": 89}, {"time": 44400, "pitch": 84, "duration": 50, "velocity": 125}, {"time": 44520, "pitch": 84, "duration": 60, "velocity": 97}, {"time": 44640, "pitch": 72, "duration": 320, "velocity": 97}, {"time": 44640, "pitch": 84, "duration": 120, "velocity": 112}, {"time": 44880, "pitch": 84, "duration": 60, "velocity": 97}, {"time": 45000, "pitch": 84, "duration": 60, "velocity": 103}, {"time": 45240, "pitch": 72, "duration": 330, "velocity": 120}, {"time": 45240, "pitch": 84, "duration": 150, "velocity": 112}, {"time": 45480, "pitch": 84, "duration": 50, "velocity": 95}, {"time": 45600, "pitch": 84, "duration": 70, "velocity": 83}, {"time": 45720, "pitch": 72, "duration": 170, "velocity": 125}, {"time": 45840, "pitch": 84, "duration": 60, "velocity": 114}, {"time": 45960, "pitch": 72, "duration": 20, "velocity": 95}, {"time": 46080, "pitch": 72, "duration": 110, "velocity": 89}, {"time": 46080, "pitch": 84, "duration": 70, "velocity": 66}, {"time": 46200, "pitch": 72, "duration": 110, "velocity": 89}, {"time": 46320, "pitch": 84, "duration": 50, "velocity": 125}, {"time": 46440, "pitch": 84, "duration": 60, "velocity": 97}, {"time": 46560, "pitch": 45, "duration": 650, "velocity": 114}, {"time": 46560, "pitch": 50, "duration": 680, "velocity": 110}, {"time": 47280, "pitch": 47, "duration": 460, "velocity": 110}, {"time": 47280, "pitch": 52, "duration": 460, "velocity": 122}, {"time": 47760, "pitch": 48, "duration": 400, "velocity": 110}, {"time": 47760, "pitch": 53, "duration": 390, "velocity": 112}, {"time": 48240, "pitch": 49, "duration": 200, "velocity": 125}, {"time": 48240, "pitch": 54, "duration": 220, "velocity": 127}, {"time": 48480, "pitch": 50, "duration": 210, "velocity": 109}, {"time": 48480, "pitch": 55, "duration": 210, "velocity": 114}, {"time": 48720, "pitch": 50, "duration": 90, "velocity": 110}, {"time": 48720, "pitch": 55, "duration": 80, "velocity": 122}, {"time": 80160, "pitch": 55, "duration": 950, "velocity": 108}, {"time": 80160, "pitch": 65, "duration": 950, "velocity": 106}, {"time": 81120, "pitch": 60, "duration": 220, "velocity": 125}, {"time": 81120, "pitch": 72, "duration": 150, "velocity": 125}, {"time": 81360, "pitch": 60, "duration": 100, "velocity": 112}, {"time": 81360, "pitch": 72, "duration": 100, "velocity": 112}, {"time": 83040, "pitch": 60, "duration": 230, "velocity": 125}, {"time": 83040, "pitch": 72, "duration": 230, "velocity": 125}, {"time": 83280, "pitch": 60, "duration": 100, "velocity": 112}, {"time": 83280, "pitch": 72, "duration": 100, "velocity": 112}, {"time": 84960, "pitch": 48, "duration": 3840, "velocity": 98}, {"time": 84960, "pitch": 60, "duration": 3840, "velocity": 98}, {"time": 84960, "pitch": 67, "duration": 3840, "velocity": 92}, {"time": 111840, "pitch": 72, "duration": 320, "velocity": 97}, {"time": 111840, "pitch": 84, "duration": 120, "velocity": 112}, {"time": 112080, "pitch": 84, "duration": 60, "velocity": 97}, {"time": 112200, "pitch": 84, "duration": 60, "velocity": 103}, {"time": 112440, "pitch": 72, "duration": 330, "velocity": 120}, {"time": 112440, "pitch": 84, "duration": 150, "velocity": 112}, {"time": 112680, "pitch": 84, "duration": 50, "velocity": 95}, {"time": 112800, "pitch": 84, "duration": 70, "velocity": 83}, {"time": 112920, "pitch": 72, "duration": 170, "velocity": 125}, {"time": 113040, "pitch": 84, "duration": 60, "velocity": 114}, {"time": 113160, "pitch": 72, "duration": 20, "velocity": 95}, {"time": 113280, "pitch": 72, "duration": 110, "velocity": 89}, {"time": 113280, "pitch": 84, "duration": 70, "velocity": 66}, {"time": 113400, "pitch": 72, "duration": 110, "velocity": 89}, {"time": 113520, "pitch": 84, "duration": 50, "velocity": 125}, {"time": 113640, "pitch": 84, "duration": 60, "velocity": 97}, {"time": 113760, "pitch": 72, "duration": 320, "velocity": 97}, {"time": 113760, "pitch": 84, "duration": 120, "velocity": 112}, {"time": 114000, "pitch": 84, "duration": 60, "velocity": 97}, {"time": 114120, "pitch": 84, "duration": 60, "velocity": 103}, {"time": 114360, "pitch": 72, "duration": 330, "velocity": 120}, {"time": 114360, "pitch": 84, "duration": 150, "velocity": 112}, {"time": 114600, "pitch": 84, "duration": 50, "velocity": 95}, {"time": 114720, "pitch": 84, "duration": 70, "velocity": 83}, {"time": 114840, "pitch": 72, "duration": 170, "velocity": 125}, {"time": 114960, "pitch": 84, "duration": 60, "velocity": 114}, {"time": 115080, "pitch": 72, "duration": 20, "velocity": 95}, {"time": 115200, "pitch": 72, "duration": 110, "velocity": 89}, {"time": 115200, "pitch": 84, "duration": 70, "velocity": 66}, {"time": 115320, "pitch": 72, "duration": 110, "velocity": 89}, {"time": 115440, "pitch": 84, "duration": 50, "velocity": 125}, {"time": 115560, "pitch": 84, "duration": 60, "velocity": 97}, {"time": 115680, "pitch": 45, "duration": 650, "velocity": 114}, {"time": 115680, "pitch": 50, "duration": 680, "velocity": 110}, {"time": 116400, "pitch": 47, "duration": 460, "velocity": 110}, {"time": 116400, "pitch": 52, "duration": 460, "velocity": 122}, {"time": 116880, "pitch": 48, "duration": 400, "velocity": 110}, {"time": 116880, "pitch": 53, "duration": 390, "velocity": 112}, {"time": 117360, "pitch": 49, "duration": 200, "velocity": 125}, {"time": 117360, "pitch": 54, "duration": 220, "velocity": 127}, {"time": 117600, "pitch": 50, "duration": 210, "velocity": 109}, {"time": 117600, "pitch": 55, "duration": 210, "velocity": 114}, {"time": 117840, "pitch": 50, "duration": 90, "velocity": 110}, {"time": 117840, "pitch": 55, "duration": 80, "velocity": 122}, {"time": 233760, "pitch": 55, "duration": 950, "velocity": 108}, {"time": 233760, "pitch": 65, "duration": 950, "velocity": 106}, {"time": 234720, "pitch": 60, "duration": 230, "velocity": 125}, {"time": 234720, "pitch": 72, "duration": 230, "velocity": 125}, {"time": 234960, "pitch": 60, "duration": 100, "velocity": 112}, {"time": 234960, "pitch": 72, "duration": 100, "velocity": 112}, {"time": 236640, "pitch": 60, "duration": 230, "velocity": 125}, {"time": 236640, "pitch": 72, "duration": 230, "velocity": 125}, {"time": 236880, "pitch": 60, "duration": 100, "velocity": 112}, {"time": 236880, "pitch": 72, "duration": 100, "velocity": 112}, {"time": 238560, "pitch": 60, "duration": 230, "velocity": 125}, {"time": 238560, "pitch": 72, "duration": 230, "velocity": 125}, {"time": 238800, "pitch": 60, "duration": 100, "velocity": 112}, {"time": 238800, "pitch": 72, "duration": 100, "velocity": 112}, {"time": 240480, "pitch": 60, "duration": 230, "velocity": 125}, {"time": 240480, "pitch": 72, "duration": 230, "velocity": 125}, {"time": 240720, "pitch": 60, "duration": 100, "velocity": 112}, {"time": 240720, "pitch": 72, "duration": 100, "velocity": 112}, {"time": 242400, "pitch": 36, "duration": 180, "velocity": 127}, {"time": 242400, "pitch": 48, "duration": 180, "velocity": 127}, {"time": 242400, "pitch": 60, "duration": 230, "velocity": 125}, {"time": 242400, "pitch": 72, "duration": 230, "velocity": 125}, {"time": 242640, "pitch": 36, "duration": 140, "velocity": 125}, {"time": 242640, "pitch": 48, "duration": 140, "velocity": 125}, {"time": 242640, "pitch": 60, "duration": 100, "velocity": 112}, {"time": 242640, "pitch": 72, "duration": 100, "velocity": 112}], "annotations": [{"time": 336, "annotation": {"number": 7, "value": 60}, "group": "control_change"}, {"time": 352, "annotation": {"number": 11, "value": 105}, "group": "control_change"}, {"time": 368, "annotation": {"number": 10, "value": 127}, "group": "control_change"}, {"time": 384, "annotation": {"number": 91, "value": 80}, "group": "control_change"}, {"time": 400, "annotation": {"number": 93, "value": 14}, "group": "control_change"}, {"time": 416, "annotation": {"number": 101, "value": 0}, "group": "control_change"}, {"time": 432, "annotation": {"number": 100, "value": 0}, "group": "control_change"}, {"time": 448, "annotation": {"number": 6, "value": 12}, "group": "control_change"}, {"time": 464, "annotation": {"number": 101, "value": 127}, "group": "control_change"}, {"time": 480, "annotation": {"number": 100, "value": 127}, "group": "control_change"}, {"time": 58080, "annotation": {"number": 0, "value": 0}, "group": "control_change"}, {"time": 58090, "annotation": {"number": 32, "value": 2}, "group": "control_change"}, {"time": 81070, "annotation": {"number": 7, "value": 65}, "group": "control_change"}, {"time": 81080, "annotation": {"number": 11, "value": 127}, "group": "control_change"}, {"time": 81090, "annotation": {"number": 10, "value": 127}, "group": "control_change"}, {"time": 81100, "annotation": {"number": 91, "value": 40}, "group": "control_change"}, {"time": 81110, "annotation": {"number": 93, "value": 14}, "group": "control_change"}, {"time": 111760, "annotation": {"number": 0, "value": 0}, "group": "control_change"}, {"time": 111770, "annotation": {"number": 32, "value": 2}, "group": "control_change"}, {"time": 111790, "annotation": {"number": 7, "value": 60}, "group": "control_change"}, {"time": 111800, "annotation": {"number": 11, "value": 127}, "group": "control_change"}, {"time": 111810, "annotation": {"number": 10, "value": 127}, "group": "control_change"}, {"time": 111820, "annotation": {"number": 91, "value": 50}, "group": "control_change"}, {"time": 111830, "annotation": {"number": 93, "value": 14}, "group": "control_change"}, {"time": 127200, "annotation": {"number": 0, "value": 0}, "group": "control_change"}, {"time": 127210, "annotation": {"number": 32, "value": 2}, "group": "control_change"}, {"time": 234670, "annotation": {"number": 7, "value": 60}, "group": "control_change"}, {"time": 234680, "annotation": {"number": 11, "value": 127}, "group": "control_change"}, {"time": 234690, "annotation": {"number": 10, "value": 127}, "group": "control_change"}, {"time": 234700, "annotation": {"number": 91, "value": 70}, "group": "control_change"}, {"time": 234710, "annotation": {"number": 93, "value": 14}, "group": "control_change"}]}, {"program": 49, "is_drum": false, "name": "STRINGS(L) / E.GT", "notes": [{"time": 58560, "pitch": 60, "duration": 1190, "velocity": 115}, {"time": 59760, "pitch": 59, "duration": 230, "velocity": 106}, {"time": 60000, "pitch": 58, "duration": 1440, "velocity": 114}, {"time": 61440, "pitch": 60, "duration": 480, "velocity": 103}, {"time": 61920, "pitch": 57, "duration": 1920, "velocity": 106}, {"time": 63840, "pitch": 56, "duration": 950, "velocity": 98}, {"time": 64800, "pitch": 55, "duration": 940, "velocity": 91}, {"time": 65760, "pitch": 60, "duration": 1880, "velocity": 85}, {"time": 71520, "pitch": 55, "duration": 960, "velocity": 112}, {"time": 71520, "pitch": 67, "duration": 960, "velocity": 112}, {"time": 72480, "pitch": 53, "duration": 920, "velocity": 106}, {"time": 72480, "pitch": 65, "duration": 920, "velocity": 106}, {"time": 73440, "pitch": 48, "duration": 2160, "velocity": 108}, {"time": 73440, "pitch": 60, "duration": 2160, "velocity": 108}, {"time": 73440, "pitch": 64, "duration": 380, "velocity": 97}, {"time": 75600, "pitch": 57, "duration": 470, "velocity": 100}, {"time": 75600, "pitch": 69, "duration": 470, "velocity": 100}, {"time": 76080, "pitch": 55, "duration": 220, "velocity": 105}, {"time": 76080, "pitch": 67, "duration": 220, "velocity": 105}, {"time": 76320, "pitch": 48, "duration": 340, "velocity": 90}, {"time": 76320, "pitch": 72, "duration": 340, "velocity": 90}, {"time": 76680, "pitch": 50, "duration": 350, "velocity": 90}, {"time": 76680, "pitch": 74, "duration": 350, "velocity": 90}, {"time": 77040, "pitch": 48, "duration": 230, "velocity": 99}, {"time": 77040, "pitch": 72, "duration": 230, "velocity": 99}, {"time": 77280, "pitch": 53, "duration": 370, "velocity": 91}, {"time": 77280, "pitch": 76, "duration": 370, "velocity": 91}, {"time": 77640, "pitch": 48, "duration": 340, "velocity": 92}, {"time": 77640, "pitch": 72, "duration": 340, "velocity": 92}, {"time": 78000, "pitch": 53, "duration": 1190, "velocity": 89}, {"time": 78000, "pitch": 69, "duration": 1190, "velocity": 89}, {"time": 79200, "pitch": 56, "duration": 960, "velocity": 106}, {"time": 79200, "pitch": 68, "duration": 960, "velocity": 106}, {"time": 127680, "pitch": 60, "duration": 1190, "velocity": 115}, {"time": 128880, "pitch": 59, "duration": 230, "velocity": 106}, {"time": 129120, "pitch": 58, "duration": 1440, "velocity": 114}, {"time": 130560, "pitch": 60, "duration": 480, "velocity": 103}, {"time": 131040, "pitch": 57, "duration": 1920, "velocity": 106}, {"time": 132960, "pitch": 56, "duration": 950, "velocity": 98}, {"time": 133920, "pitch": 55, "duration": 940, "velocity": 91}, {"time": 134880, "pitch": 60, "duration": 1880, "velocity": 85}, {"time": 140640, "pitch": 55, "duration": 960, "velocity": 112}, {"time": 140640, "pitch": 67, "duration": 960, "velocity": 112}, {"time": 141600, "pitch": 53, "duration": 920, "velocity": 106}, {"time": 141600, "pitch": 65, "duration": 920, "velocity": 106}, {"time": 142560, "pitch": 48, "duration": 2160, "velocity": 108}, {"time": 142560, "pitch": 60, "duration": 2160, "velocity": 108}, {"time": 142560, "pitch": 64, "duration": 380, "velocity": 97}, {"time": 144720, "pitch": 57, "duration": 470, "velocity": 100}, {"time": 144720, "pitch": 69, "duration": 470, "velocity": 100}, {"time": 145200, "pitch": 55, "duration": 220, "velocity": 105}, {"time": 145200, "pitch": 67, "duration": 220, "velocity": 105}, {"time": 145440, "pitch": 48, "duration": 340, "velocity": 90}, {"time": 145440, "pitch": 72, "duration": 340, "velocity": 90}, {"time": 145800, "pitch": 50, "duration": 350, "velocity": 90}, {"time": 145800, "pitch": 74, "duration": 350, "velocity": 90}, {"time": 146160, "pitch": 48, "duration": 230, "velocity": 99}, {"time": 146160, "pitch": 72, "duration": 230, "velocity": 99}, {"time": 146400, "pitch": 53, "duration": 370, "velocity": 91}, {"time": 146400, "pitch": 76, "duration": 370, "velocity": 91}, {"time": 146760, "pitch": 48, "duration": 340, "velocity": 92}, {"time": 146760, "pitch": 72, "duration": 340, "velocity": 92}, {"time": 147120, "pitch": 53, "duration": 1190, "velocity": 89}, {"time": 147120, "pitch": 69, "duration": 1190, "velocity": 89}, {"time": 148320, "pitch": 56, "duration": 960, "velocity": 106}, {"time": 148320, "pitch": 68, "duration": 960, "velocity": 106}, {"time": 149280, "pitch": 55, "duration": 950, "velocity": 108}, {"time": 149280, "pitch": 65, "duration": 950, "velocity": 106}, {"time": 181440, "pitch": 60, "duration": 1190, "velocity": 115}, {"time": 182640, "pitch": 59, "duration": 230, "velocity": 106}, {"time": 182880, "pitch": 58, "duration": 1440, "velocity": 114}, {"time": 183120, "pitch": 81, "duration": 230, "velocity": 84}, {"time": 183360, "pitch": 80, "duration": 230, "velocity": 82}, {"time": 183600, "pitch": 79, "duration": 480, "velocity": 84}, {"time": 184080, "pitch": 86, "duration": 240, "velocity": 83}, {"time": 184320, "pitch": 60, "duration": 480, "velocity": 103}, {"time": 184320, "pitch": 85, "duration": 230, "velocity": 80}, {"time": 184560, "pitch": 84, "duration": 1980, "velocity": 81}, {"time": 184800, "pitch": 57, "duration": 1920, "velocity": 106}, {"time": 186720, "pitch": 56, "duration": 950, "velocity": 98}, {"time": 187680, "pitch": 55, "duration": 940, "velocity": 91}, {"time": 188640, "pitch": 60, "duration": 1880, "velocity": 85}, {"time": 194400, "pitch": 55, "duration": 960, "velocity": 112}, {"time": 194400, "pitch": 67, "duration": 960, "velocity": 112}, {"time": 195360, "pitch": 53, "duration": 920, "velocity": 106}, {"time": 195360, "pitch": 65, "duration": 920, "velocity": 106}, {"time": 196320, "pitch": 48, "duration": 2160, "velocity": 108}, {"time": 196320, "pitch": 60, "duration": 2160, "velocity": 108}, {"time": 196320, "pitch": 64, "duration": 380, "velocity": 97}, {"time": 198480, "pitch": 57, "duration": 470, "velocity": 100}, {"time": 198480, "pitch": 69, "duration": 470, "velocity": 100}, {"time": 198960, "pitch": 55, "duration": 220, "velocity": 105}, {"time": 198960, "pitch": 67, "duration": 220, "velocity": 105}, {"time": 199200, "pitch": 48, "duration": 340, "velocity": 90}, {"time": 199200, "pitch": 72, "duration": 340, "velocity": 90}, {"time": 199560, "pitch": 50, "duration": 350, "velocity": 90}, {"time": 199560, "pitch": 74, "duration": 350, "velocity": 90}, {"time": 199920, "pitch": 48, "duration": 230, "velocity": 99}, {"time": 199920, "pitch": 72, "duration": 230, "velocity": 99}, {"time": 200160, "pitch": 53, "duration": 370, "velocity": 91}, {"time": 200160, "pitch": 76, "duration": 370, "velocity": 91}, {"time": 200520, "pitch": 48, "duration": 340, "velocity": 92}, {"time": 200520, "pitch": 72, "duration": 340, "velocity": 92}, {"time": 200880, "pitch": 53, "duration": 1190, "velocity": 89}, {"time": 200880, "pitch": 69, "duration": 1190, "velocity": 89}, {"time": 202080, "pitch": 56, "duration": 960, "velocity": 106}, {"time": 202080, "pitch": 68, "duration": 960, "velocity": 106}, {"time": 203040, "pitch": 55, "duration": 950, "velocity": 108}, {"time": 203040, "pitch": 65, "duration": 950, "velocity": 106}, {"time": 212160, "pitch": 60, "duration": 1190, "velocity": 115}, {"time": 213360, "pitch": 59, "duration": 230, "velocity": 106}, {"time": 213600, "pitch": 58, "duration": 1440, "velocity": 114}, {"time": 215040, "pitch": 60, "duration": 480, "velocity": 103}, {"time": 215520, "pitch": 57, "duration": 1920, "velocity": 106}, {"time": 217440, "pitch": 56, "duration": 950, "velocity": 98}, {"time": 218400, "pitch": 55, "duration": 940, "velocity": 91}, {"time": 219360, "pitch": 60, "duration": 1880, "velocity": 85}, {"time": 225120, "pitch": 55, "duration": 960, "velocity": 112}, {"time": 225120, "pitch": 67, "duration": 960, "velocity": 112}, {"time": 226080, "pitch": 53, "duration": 920, "velocity": 106}, {"time": 226080, "pitch": 65, "duration": 920, "velocity": 106}, {"time": 227040, "pitch": 48, "duration": 2160, "velocity": 108}, {"time": 227040, "pitch": 60, "duration": 2160, "velocity": 108}, {"time": 227040, "pitch": 64, "duration": 380, "velocity": 97}, {"time": 229200, "pitch": 57, "duration": 470, "velocity": 100}, {"time": 229200, "pitch": 69, "duration": 470, "velocity": 100}, {"time": 229680, "pitch": 55, "duration": 220, "velocity": 105}, {"time": 229680, "pitch": 67, "duration": 220, "velocity": 105}, {"time": 229920, "pitch": 48, "duration": 340, "velocity": 90}, {"time": 229920, "pitch": 72, "duration": 340, "velocity": 90}, {"time": 230280, "pitch": 50, "duration": 350, "velocity": 90}, {"time": 230280, "pitch": 74, "duration": 350, "velocity": 90}, {"time": 230640, "pitch": 48, "duration": 230, "velocity": 99}, {"time": 230640, "pitch": 72, "duration": 230, "velocity": 99}, {"time": 230880, "pitch": 53, "duration": 370, "velocity": 91}, {"time": 230880, "pitch": 76, "duration": 370, "velocity": 91}, {"time": 231240, "pitch": 48, "duration": 340, "velocity": 92}, {"time": 231240, "pitch": 72, "duration": 340, "velocity": 92}, {"time": 231600, "pitch": 53, "duration": 1190, "velocity": 89}, {"time": 231600, "pitch": 69, "duration": 1190, "velocity": 89}, {"time": 232800, "pitch": 56, "duration": 960, "velocity": 106}, {"time": 232800, "pitch": 68, "duration": 960, "velocity": 106}], "annotations": [{"time": 58110, "annotation": {"number": 7, "value": 60}, "group": "control_change"}, {"time": 58120, "annotation": {"number": 11, "value": 127}, "group": "control_change"}, {"time": 58130, "annotation": {"number": 10, "value": 86}, "group": "control_change"}, {"time": 58140, "annotation": {"number": 91, "value": 120}, "group": "control_change"}, {"time": 58150, "annotation": {"number": 93, "value": 56}, "group": "control_change"}, {"time": 81040, "annotation": {"number": 0, "value": 0}, "group": "control_change"}, {"time": 81050, "annotation": {"number": 32, "value": 2}, "group": "control_change"}, {"time": 127230, "annotation": {"number": 7, "value": 65}, "group": "control_change"}, {"time": 127240, "annotation": {"number": 11, "value": 127}, "group": "control_change"}, {"time": 127250, "annotation": {"number": 10, "value": 86}, "group": "control_change"}, {"time": 127260, "annotation": {"number": 91, "value": 120}, "group": "control_change"}, {"time": 127270, "annotation": {"number": 93, "value": 56}, "group": "control_change"}, {"time": 234640, "annotation": {"number": 0, "value": 0}, "group": "control_change"}, {"time": 234650, "annotation": {"number": 32, "value": 2}, "group": "control_change"}]}, {"program": 0, "is_drum": false, "name": "MUTE GT", "annotations": [{"time": 288, "annotation": {"number": 0, "value": 0}, "group": "control_change"}, {"time": 304, "annotation": {"number": 32, "value": 1}, "group": "control_change"}]}, {"program": 28, "is_drum": false, "name": "MUTE GT", "notes": [{"time": 19920, "pitch": 55, "duration": 70, "velocity": 97}, {"time": 20040, "pitch": 57, "duration": 20, "velocity": 70}, {"time": 20160, "pitch": 60, "duration": 110, "velocity": 106}, {"time": 20400, "pitch": 57, "duration": 80, "velocity": 106}, {"time": 20520, "pitch": 55, "duration": 40, "velocity": 75}, {"time": 20640, "pitch": 55, "duration": 100, "velocity": 90}, {"time": 20880, "pitch": 57, "duration": 70, "velocity": 100}, {"time": 21120, "pitch": 60, "duration": 110, "velocity": 106}, {"time": 21360, "pitch": 57, "duration": 100, "velocity": 70}, {"time": 21480, "pitch": 55, "duration": 20, "velocity": 100}, {"time": 21840, "pitch": 55, "duration": 70, "velocity": 97}, {"time": 21960, "pitch": 57, "duration": 20, "velocity": 70}, {"time": 22080, "pitch": 60, "duration": 110, "velocity": 106}, {"time": 22320, "pitch": 57, "duration": 80, "velocity": 106}, {"time": 22440, "pitch": 55, "duration": 40, "velocity": 75}, {"time": 22560, "pitch": 55, "duration": 100, "velocity": 90}, {"time": 22800, "pitch": 57, "duration": 70, "velocity": 100}, {"time": 23040, "pitch": 60, "duration": 110, "velocity": 106}, {"time": 23280, "pitch": 57, "duration": 100, "velocity": 70}, {"time": 23400, "pitch": 55, "duration": 20, "velocity": 100}, {"time": 23760, "pitch": 55, "duration": 70, "velocity": 97}, {"time": 23880, "pitch": 57, "duration": 20, "velocity": 70}, {"time": 24000, "pitch": 60, "duration": 110, "velocity": 106}, {"time": 24240, "pitch": 57, "duration": 80, "velocity": 106}, {"time": 24360, "pitch": 55, "duration": 40, "velocity": 75}, {"time": 24480, "pitch": 55, "duration": 100, "velocity": 90}, {"time": 24720, "pitch": 57, "duration": 70, "velocity": 100}, {"time": 24960, "pitch": 60, "duration": 110, "velocity": 106}, {"time": 25200, "pitch": 57, "duration": 100, "velocity": 70}, {"time": 25320, "pitch": 55, "duration": 20, "velocity": 100}, {"time": 25680, "pitch": 63, "duration": 70, "velocity": 90}, {"time": 25920, "pitch": 62, "duration": 200, "velocity": 100}, {"time": 26400, "pitch": 63, "duration": 40, "velocity": 100}, {"time": 26520, "pitch": 62, "duration": 90, "velocity": 90}, {"time": 26760, "pitch": 62, "duration": 340, "velocity": 90}, {"time": 27120, "pitch": 63, "duration": 40, "velocity": 105}, {"time": 27600, "pitch": 55, "duration": 70, "velocity": 97}, {"time": 27720, "pitch": 57, "duration": 20, "velocity": 70}, {"time": 27840, "pitch": 60, "duration": 110, "velocity": 106}, {"time": 28080, "pitch": 57, "duration": 80, "velocity": 106}, {"time": 28200, "pitch": 55, "duration": 40, "velocity": 75}, {"time": 28320, "pitch": 55, "duration": 100, "velocity": 90}, {"time": 28560, "pitch": 57, "duration": 70, "velocity": 100}, {"time": 28800, "pitch": 60, "duration": 110, "velocity": 106}, {"time": 29040, "pitch": 57, "duration": 100, "velocity": 70}, {"time": 29160, "pitch": 55, "duration": 20, "velocity": 100}, {"time": 29520, "pitch": 55, "duration": 70, "velocity": 97}, {"time": 29640, "pitch": 57, "duration": 20, "velocity": 70}, {"time": 29760, "pitch": 60, "duration": 110, "velocity": 106}, {"time": 30000, "pitch": 57, "duration": 80, "velocity": 106}, {"time": 30120, "pitch": 55, "duration": 40, "velocity": 75}, {"time": 30240, "pitch": 55, "duration": 100, "velocity": 90}, {"time": 30480, "pitch": 57, "duration": 70, "velocity": 100}, {"time": 30720, "pitch": 60, "duration": 110, "velocity": 106}, {"time": 30960, "pitch": 57, "duration": 100, "velocity": 70}, {"time": 31080, "pitch": 55, "duration": 20, "velocity": 100}, {"time": 31440, "pitch": 55, "duration": 70, "velocity": 97}, {"time": 31560, "pitch": 57, "duration": 20, "velocity": 70}, {"time": 31680, "pitch": 60, "duration": 110, "velocity": 106}, {"time": 31920, "pitch": 57, "duration": 80, "velocity": 106}, {"time": 32040, "pitch": 55, "duration": 40, "velocity": 75}, {"time": 32160, "pitch": 55, "duration": 100, "velocity": 90}, {"time": 32400, "pitch": 57, "duration": 70, "velocity": 100}, {"time": 32640, "pitch": 60, "duration": 110, "velocity": 106}, {"time": 32880, "pitch": 57, "duration": 100, "velocity": 70}, {"time": 33000, "pitch": 55, "duration": 20, "velocity": 100}, {"time": 33360, "pitch": 63, "duration": 70, "velocity": 90}, {"time": 33600, "pitch": 62, "duration": 100, "velocity": 100}, {"time": 33720, "pitch": 60, "duration": 220, "velocity": 100}, {"time": 33960, "pitch": 57, "duration": 100, "velocity": 70}, {"time": 34080, "pitch": 60, "duration": 40, "velocity": 80}, {"time": 34200, "pitch": 62, "duration": 90, "velocity": 100}, {"time": 34440, "pitch": 60, "duration": 340, "velocity": 90}, {"time": 34800, "pitch": 62, "duration": 100, "velocity": 105}, {"time": 34920, "pitch": 60, "duration": 100, "velocity": 80}, {"time": 35280, "pitch": 55, "duration": 70, "velocity": 97}, {"time": 35400, "pitch": 57, "duration": 20, "velocity": 70}, {"time": 35520, "pitch": 60, "duration": 110, "velocity": 106}, {"time": 35760, "pitch": 57, "duration": 80, "velocity": 106}, {"time": 35880, "pitch": 55, "duration": 40, "velocity": 75}, {"time": 36000, "pitch": 55, "duration": 100, "velocity": 90}, {"time": 36240, "pitch": 57, "duration": 70, "velocity": 100}, {"time": 36480, "pitch": 60, "duration": 110, "velocity": 106}, {"time": 36720, "pitch": 57, "duration": 100, "velocity": 70}, {"time": 36840, "pitch": 55, "duration": 20, "velocity": 100}, {"time": 37200, "pitch": 55, "duration": 70, "velocity": 97}, {"time": 37320, "pitch": 57, "duration": 20, "velocity": 70}, {"time": 37440, "pitch": 60, "duration": 110, "velocity": 106}, {"time": 37680, "pitch": 57, "duration": 80, "velocity": 106}, {"time": 37800, "pitch": 55, "duration": 40, "velocity": 75}, {"time": 37920, "pitch": 55, "duration": 100, "velocity": 90}, {"time": 38160, "pitch": 57, "duration": 70, "velocity": 100}, {"time": 38400, "pitch": 60, "duration": 110, "velocity": 106}, {"time": 38640, "pitch": 57, "duration": 100, "velocity": 70}, {"time": 38760, "pitch": 55, "duration": 20, "velocity": 100}, {"time": 39120, "pitch": 55, "duration": 70, "velocity": 97}, {"time": 39240, "pitch": 57, "duration": 20, "velocity": 70}, {"time": 39360, "pitch": 60, "duration": 110, "velocity": 106}, {"time": 39600, "pitch": 57, "duration": 80, "velocity": 106}, {"time": 39720, "pitch": 55, "duration": 40, "velocity": 75}, {"time": 39840, "pitch": 55, "duration": 100, "velocity": 90}, {"time": 40080, "pitch": 57, "duration": 70, "velocity": 100}, {"time": 40320, "pitch": 60, "duration": 110, "velocity": 106}, {"time": 40560, "pitch": 57, "duration": 100, "velocity": 70}, {"time": 40680, "pitch": 55, "duration": 20, "velocity": 100}, {"time": 41040, "pitch": 55, "duration": 70, "velocity": 97}, {"time": 41160, "pitch": 57, "duration": 20, "velocity": 70}, {"time": 41280, "pitch": 60, "duration": 110, "velocity": 106}, {"time": 41520, "pitch": 57, "duration": 80, "velocity": 106}, {"time": 41640, "pitch": 55, "duration": 40, "velocity": 75}, {"time": 41760, "pitch": 55, "duration": 100, "velocity": 90}, {"time": 42000, "pitch": 57, "duration": 70, "velocity": 100}, {"time": 42240, "pitch": 60, "duration": 110, "velocity": 106}, {"time": 42480, "pitch": 57, "duration": 100, "velocity": 70}, {"time": 42600, "pitch": 55, "duration": 20, "velocity": 100}, {"time": 42960, "pitch": 55, "duration": 70, "velocity": 97}, {"time": 43080, "pitch": 57, "duration": 20, "velocity": 70}, {"time": 43200, "pitch": 60, "duration": 110, "velocity": 106}, {"time": 43440, "pitch": 57, "duration": 80, "velocity": 106}, {"time": 43560, "pitch": 55, "duration": 40, "velocity": 75}, {"time": 43680, "pitch": 55, "duration": 100, "velocity": 90}, {"time": 43920, "pitch": 57, "duration": 70, "velocity": 100}, {"time": 44160, "pitch": 60, "duration": 110, "velocity": 106}, {"time": 44400, "pitch": 57, "duration": 100, "velocity": 70}, {"time": 44520, "pitch": 55, "duration": 20, "velocity": 100}, {"time": 44880, "pitch": 55, "duration": 70, "velocity": 97}, {"time": 45000, "pitch": 57, "duration": 20, "velocity": 70}, {"time": 45120, "pitch": 60, "duration": 110, "velocity": 106}, {"time": 45360, "pitch": 57, "duration": 80, "velocity": 106}, {"time": 45480, "pitch": 55, "duration": 40, "velocity": 75}, {"time": 45600, "pitch": 55, "duration": 100, "velocity": 90}, {"time": 45840, "pitch": 57, "duration": 70, "velocity": 100}, {"time": 46080, "pitch": 60, "duration": 110, "velocity": 106}, {"time": 46320, "pitch": 57, "duration": 100, "velocity": 70}, {"time": 46440, "pitch": 55, "duration": 20, "velocity": 100}, {"time": 48480, "pitch": 60, "duration": 220, "velocity": 100}, {"time": 48720, "pitch": 60, "duration": 200, "velocity": 110}, {"time": 50640, "pitch": 55, "duration": 70, "velocity": 97}, {"time": 50760, "pitch": 57, "duration": 20, "velocity": 70}, {"time": 50880, "pitch": 60, "duration": 110, "velocity": 106}, {"time": 51120, "pitch": 57, "duration": 80, "velocity": 106}, {"time": 51240, "pitch": 55, "duration": 40, "velocity": 75}, {"time": 51360, "pitch": 55, "duration": 100, "velocity": 90}, {"time": 51600, "pitch": 57, "duration": 70, "velocity": 100}, {"time": 51840, "pitch": 60, "duration": 110, "velocity": 106}, {"time": 52080, "pitch": 57, "duration": 100, "velocity": 70}, {"time": 52200, "pitch": 55, "duration": 20, "velocity": 100}, {"time": 52560, "pitch": 55, "duration": 70, "velocity": 97}, {"time": 52680, "pitch": 57, "duration": 20, "velocity": 70}, {"time": 52800, "pitch": 60, "duration": 110, "velocity": 106}, {"time": 53040, "pitch": 57, "duration": 80, "velocity": 106}, {"time": 53160, "pitch": 55, "duration": 40, "velocity": 75}, {"time": 53280, "pitch": 55, "duration": 100, "velocity": 90}, {"time": 53520, "pitch": 57, "duration": 70, "velocity": 100}, {"time": 53760, "pitch": 60, "duration": 110, "velocity": 106}, {"time": 54000, "pitch": 57, "duration": 100, "velocity": 70}, {"time": 54120, "pitch": 55, "duration": 20, "velocity": 100}, {"time": 54480, "pitch": 55, "duration": 70, "velocity": 97}, {"time": 54600, "pitch": 57, "duration": 20, "velocity": 70}, {"time": 54720, "pitch": 60, "duration": 110, "velocity": 106}, {"time": 54960, "pitch": 57, "duration": 80, "velocity": 106}, {"time": 55080, "pitch": 55, "duration": 40, "velocity": 75}, {"time": 55200, "pitch": 55, "duration": 100, "velocity": 90}, {"time": 55440, "pitch": 57, "duration": 70, "velocity": 100}, {"time": 55680, "pitch": 60, "duration": 110, "velocity": 106}, {"time": 55920, "pitch": 57, "duration": 100, "velocity": 70}, {"time": 56040, "pitch": 55, "duration": 20, "velocity": 100}, {"time": 56400, "pitch": 63, "duration": 70, "velocity": 90}, {"time": 56640, "pitch": 62, "duration": 100, "velocity": 100}, {"time": 56760, "pitch": 60, "duration": 220, "velocity": 100}, {"time": 57000, "pitch": 57, "duration": 100, "velocity": 70}, {"time": 57120, "pitch": 60, "duration": 40, "velocity": 80}, {"time": 57240, "pitch": 62, "duration": 90, "velocity": 100}, {"time": 57480, "pitch": 60, "duration": 340, "velocity": 90}, {"time": 57840, "pitch": 62, "duration": 100, "velocity": 105}, {"time": 57960, "pitch": 60, "duration": 100, "velocity": 80}, {"time": 58320, "pitch": 55, "duration": 70, "velocity": 97}, {"time": 58440, "pitch": 57, "duration": 20, "velocity": 70}, {"time": 58560, "pitch": 60, "duration": 110, "velocity": 106}, {"time": 58800, "pitch": 57, "duration": 80, "velocity": 106}, {"time": 58920, "pitch": 55, "duration": 40, "velocity": 75}, {"time": 59040, "pitch": 55, "duration": 100, "velocity": 90}, {"time": 59280, "pitch": 57, "duration": 70, "velocity": 100}, {"time": 59520, "pitch": 60, "duration": 110, "velocity": 106}, {"time": 59760, "pitch": 57, "duration": 100, "velocity": 70}, {"time": 59880, "pitch": 55, "duration": 20, "velocity": 100}, {"time": 60240, "pitch": 55, "duration": 70, "velocity": 97}, {"time": 60360, "pitch": 57, "duration": 20, "velocity": 70}, {"time": 60480, "pitch": 60, "duration": 110, "velocity": 106}, {"time": 60720, "pitch": 57, "duration": 80, "velocity": 106}, {"time": 60840, "pitch": 55, "duration": 40, "velocity": 75}, {"time": 60960, "pitch": 55, "duration": 100, "velocity": 90}, {"time": 61200, "pitch": 57, "duration": 70, "velocity": 100}, {"time": 61440, "pitch": 60, "duration": 110, "velocity": 106}, {"time": 61680, "pitch": 57, "duration": 100, "velocity": 70}, {"time": 61800, "pitch": 55, "duration": 20, "velocity": 100}, {"time": 62160, "pitch": 55, "duration": 70, "velocity": 97}, {"time": 62280, "pitch": 57, "duration": 20, "velocity": 70}, {"time": 62400, "pitch": 60, "duration": 110, "velocity": 106}, {"time": 62640, "pitch": 57, "duration": 80, "velocity": 106}, {"time": 62760, "pitch": 55, "duration": 40, "velocity": 75}, {"time": 62880, "pitch": 55, "duration": 100, "velocity": 90}, {"time": 63120, "pitch": 57, "duration": 70, "velocity": 100}, {"time": 63360, "pitch": 60, "duration": 110, "velocity": 106}, {"time": 63600, "pitch": 57, "duration": 100, "velocity": 70}, {"time": 63720, "pitch": 55, "duration": 20, "velocity": 100}, {"time": 64080, "pitch": 63, "duration": 70, "velocity": 90}, {"time": 64320, "pitch": 62, "duration": 100, "velocity": 100}, {"time": 64440, "pitch": 60, "duration": 220, "velocity": 100}, {"time": 64680, "pitch": 57, "duration": 100, "velocity": 70}, {"time": 64800, "pitch": 60, "duration": 40, "velocity": 80}, {"time": 64920, "pitch": 62, "duration": 90, "velocity": 100}, {"time": 65160, "pitch": 60, "duration": 340, "velocity": 90}, {"time": 65520, "pitch": 62, "duration": 100, "velocity": 105}, {"time": 65640, "pitch": 60, "duration": 100, "velocity": 80}, {"time": 66000, "pitch": 55, "duration": 70, "velocity": 97}, {"time": 66120, "pitch": 57, "duration": 20, "velocity": 70}, {"time": 66240, "pitch": 60, "duration": 110, "velocity": 106}, {"time": 66480, "pitch": 57, "duration": 80, "velocity": 106}, {"time": 66600, "pitch": 55, "duration": 40, "velocity": 75}, {"time": 66720, "pitch": 55, "duration": 100, "velocity": 90}, {"time": 66960, "pitch": 57, "duration": 70, "velocity": 100}, {"time": 67200, "pitch": 60, "duration": 110, "velocity": 106}, {"time": 67440, "pitch": 57, "duration": 100, "velocity": 70}, {"time": 67560, "pitch": 55, "duration": 20, "velocity": 100}, {"time": 67920, "pitch": 55, "duration": 70, "velocity": 97}, {"time": 68040, "pitch": 57, "duration": 20, "velocity": 70}, {"time": 68160, "pitch": 60, "duration": 110, "velocity": 106}, {"time": 68400, "pitch": 57, "duration": 80, "velocity": 106}, {"time": 68520, "pitch": 55, "duration": 40, "velocity": 75}, {"time": 68640, "pitch": 55, "duration": 100, "velocity": 90}, {"time": 68880, "pitch": 57, "duration": 70, "velocity": 100}, {"time": 69120, "pitch": 60, "duration": 110, "velocity": 106}, {"time": 69360, "pitch": 57, "duration": 100, "velocity": 70}, {"time": 69480, "pitch": 55, "duration": 20, "velocity": 100}, {"time": 69840, "pitch": 55, "duration": 70, "velocity": 97}, {"time": 69960, "pitch": 57, "duration": 20, "velocity": 70}, {"time": 70080, "pitch": 60, "duration": 110, "velocity": 106}, {"time": 70320, "pitch": 57, "duration": 80, "velocity": 106}, {"time": 70440, "pitch": 55, "duration": 40, "velocity": 75}, {"time": 70560, "pitch": 55, "duration": 100, "velocity": 90}, {"time": 70800, "pitch": 57, "duration": 70, "velocity": 100}, {"time": 71040, "pitch": 60, "duration": 110, "velocity": 106}, {"time": 71280, "pitch": 57, "duration": 100, "velocity": 70}, {"time": 71400, "pitch": 55, "duration": 20, "velocity": 100}, {"time": 71760, "pitch": 63, "duration": 70, "velocity": 90}, {"time": 72000, "pitch": 62, "duration": 100, "velocity": 100}, {"time": 72120, "pitch": 60, "duration": 220, "velocity": 100}, {"time": 72360, "pitch": 57, "duration": 100, "velocity": 70}, {"time": 72480, "pitch": 60, "duration": 40, "velocity": 80}, {"time": 72600, "pitch": 62, "duration": 90, "velocity": 100}, {"time": 72840, "pitch": 60, "duration": 340, "velocity": 90}, {"time": 73200, "pitch": 62, "duration": 100, "velocity": 105}, {"time": 73320, "pitch": 60, "duration": 100, "velocity": 80}, {"time": 73680, "pitch": 55, "duration": 70, "velocity": 97}, {"time": 73800, "pitch": 57, "duration": 20, "velocity": 70}, {"time": 73920, "pitch": 60, "duration": 110, "velocity": 106}, {"time": 74160, "pitch": 57, "duration": 80, "velocity": 106}, {"time": 74280, "pitch": 55, "duration": 40, "velocity": 75}, {"time": 74400, "pitch": 55, "duration": 100, "velocity": 90}, {"time": 74640, "pitch": 57, "duration": 70, "velocity": 100}, {"time": 74880, "pitch": 60, "duration": 110, "velocity": 106}, {"time": 75120, "pitch": 57, "duration": 100, "velocity": 70}, {"time": 75240, "pitch": 55, "duration": 20, "velocity": 100}, {"time": 75600, "pitch": 55, "duration": 70, "velocity": 97}, {"time": 75720, "pitch": 57, "duration": 20, "velocity": 70}, {"time": 75840, "pitch": 60, "duration": 110, "velocity": 106}, {"time": 76080, "pitch": 57, "duration": 80, "velocity": 106}, {"time": 76200, "pitch": 55, "duration": 40, "velocity": 75}, {"time": 76320, "pitch": 55, "duration": 100, "velocity": 90}, {"time": 76560, "pitch": 57, "duration": 70, "velocity": 100}, {"time": 76800, "pitch": 60, "duration": 110, "velocity": 106}, {"time": 77040, "pitch": 57, "duration": 100, "velocity": 70}, {"time": 77160, "pitch": 55, "duration": 20, "velocity": 100}, {"time": 77520, "pitch": 55, "duration": 70, "velocity": 97}, {"time": 77640, "pitch": 57, "duration": 20, "velocity": 70}, {"time": 77760, "pitch": 60, "duration": 110, "velocity": 106}, {"time": 78000, "pitch": 57, "duration": 80, "velocity": 106}, {"time": 78120, "pitch": 55, "duration": 40, "velocity": 75}, {"time": 78240, "pitch": 55, "duration": 100, "velocity": 90}, {"time": 78480, "pitch": 57, "duration": 70, "velocity": 100}, {"time": 78720, "pitch": 60, "duration": 110, "velocity": 106}, {"time": 78960, "pitch": 57, "duration": 100, "velocity": 70}, {"time": 79080, "pitch": 55, "duration": 20, "velocity": 100}, {"time": 79440, "pitch": 63, "duration": 70, "velocity": 90}, {"time": 79680, "pitch": 62, "duration": 100, "velocity": 100}, {"time": 79800, "pitch": 60, "duration": 220, "velocity": 100}, {"time": 80040, "pitch": 57, "duration": 100, "velocity": 70}, {"time": 80160, "pitch": 60, "duration": 40, "velocity": 80}, {"time": 80280, "pitch": 62, "duration": 90, "velocity": 100}, {"time": 80520, "pitch": 60, "duration": 340, "velocity": 90}, {"time": 80880, "pitch": 62, "duration": 100, "velocity": 105}, {"time": 81000, "pitch": 60, "duration": 100, "velocity": 80}, {"time": 89040, "pitch": 55, "duration": 70, "velocity": 97}, {"time": 89160, "pitch": 57, "duration": 20, "velocity": 70}, {"time": 89280, "pitch": 60, "duration": 40, "velocity": 106}, {"time": 89400, "pitch": 60, "duration": 220, "velocity": 90}, {"time": 89640, "pitch": 57, "duration": 80, "velocity": 106}, {"time": 89760, "pitch": 55, "duration": 100, "velocity": 90}, {"time": 90000, "pitch": 57, "duration": 70, "velocity": 100}, {"time": 90240, "pitch": 60, "duration": 110, "velocity": 106}, {"time": 90480, "pitch": 57, "duration": 100, "velocity": 70}, {"time": 90600, "pitch": 55, "duration": 20, "velocity": 100}, {"time": 90960, "pitch": 55, "duration": 70, "velocity": 97}, {"time": 91080, "pitch": 57, "duration": 20, "velocity": 70}, {"time": 91200, "pitch": 60, "duration": 40, "velocity": 106}, {"time": 91320, "pitch": 60, "duration": 220, "velocity": 90}, {"time": 91560, "pitch": 57, "duration": 80, "velocity": 106}, {"time": 91680, "pitch": 55, "duration": 100, "velocity": 90}, {"time": 91920, "pitch": 57, "duration": 70, "velocity": 100}, {"time": 92160, "pitch": 60, "duration": 110, "velocity": 106}, {"time": 92400, "pitch": 57, "duration": 100, "velocity": 70}, {"time": 92520, "pitch": 55, "duration": 20, "velocity": 100}, {"time": 92880, "pitch": 55, "duration": 70, "velocity": 97}, {"time": 93000, "pitch": 57, "duration": 20, "velocity": 70}, {"time": 93120, "pitch": 60, "duration": 40, "velocity": 106}, {"time": 93240, "pitch": 60, "duration": 220, "velocity": 90}, {"time": 93480, "pitch": 57, "duration": 80, "velocity": 106}, {"time": 93600, "pitch": 55, "duration": 100, "velocity": 90}, {"time": 93840, "pitch": 57, "duration": 70, "velocity": 100}, {"time": 94080, "pitch": 60, "duration": 110, "velocity": 106}, {"time": 94320, "pitch": 57, "duration": 100, "velocity": 70}, {"time": 94440, "pitch": 55, "duration": 20, "velocity": 100}, {"time": 94800, "pitch": 63, "duration": 70, "velocity": 90}, {"time": 95040, "pitch": 62, "duration": 200, "velocity": 100}, {"time": 95520, "pitch": 63, "duration": 40, "velocity": 100}, {"time": 95640, "pitch": 62, "duration": 90, "velocity": 90}, {"time": 95880, "pitch": 62, "duration": 340, "velocity": 90}, {"time": 96240, "pitch": 63, "duration": 40, "velocity": 105}, {"time": 96720, "pitch": 55, "duration": 70, "velocity": 97}, {"time": 96840, "pitch": 57, "duration": 20, "velocity": 70}, {"time": 96960, "pitch": 60, "duration": 40, "velocity": 106}, {"time": 97080, "pitch": 60, "duration": 220, "velocity": 90}, {"time": 97320, "pitch": 57, "duration": 80, "velocity": 106}, {"time": 97440, "pitch": 55, "duration": 100, "velocity": 90}, {"time": 97680, "pitch": 57, "duration": 70, "velocity": 100}, {"time": 97920, "pitch": 60, "duration": 110, "velocity": 106}, {"time": 98160, "pitch": 57, "duration": 100, "velocity": 70}, {"time": 98280, "pitch": 55, "duration": 20, "velocity": 100}, {"time": 98640, "pitch": 55, "duration": 70, "velocity": 97}, {"time": 98760, "pitch": 57, "duration": 20, "velocity": 70}, {"time": 98880, "pitch": 60, "duration": 40, "velocity": 106}, {"time": 99000, "pitch": 60, "duration": 220, "velocity": 90}, {"time": 99240, "pitch": 57, "duration": 80, "velocity": 106}, {"time": 99360, "pitch": 55, "duration": 100, "velocity": 90}, {"time": 99600, "pitch": 57, "duration": 70, "velocity": 100}, {"time": 99840, "pitch": 60, "duration": 110, "velocity": 106}, {"time": 100080, "pitch": 57, "duration": 100, "velocity": 70}, {"time": 100200, "pitch": 55, "duration": 20, "velocity": 100}, {"time": 100560, "pitch": 55, "duration": 70, "velocity": 97}, {"time": 100680, "pitch": 57, "duration": 20, "velocity": 70}, {"time": 100800, "pitch": 60, "duration": 40, "velocity": 106}, {"time": 100920, "pitch": 60, "duration": 220, "velocity": 90}, {"time": 101160, "pitch": 57, "duration": 80, "velocity": 106}, {"time": 101280, "pitch": 55, "duration": 100, "velocity": 90}, {"time": 101520, "pitch": 57, "duration": 70, "velocity": 100}, {"time": 101760, "pitch": 60, "duration": 110, "velocity": 106}, {"time": 102000, "pitch": 57, "duration": 100, "velocity": 70}, {"time": 102120, "pitch": 55, "duration": 20, "velocity": 100}, {"time": 102480, "pitch": 63, "duration": 70, "velocity": 90}, {"time": 102720, "pitch": 62, "duration": 100, "velocity": 100}, {"time": 102840, "pitch": 60, "duration": 220, "velocity": 100}, {"time": 103080, "pitch": 57, "duration": 40, "velocity": 70}, {"time": 103200, "pitch": 62, "duration": 100, "velocity": 85}, {"time": 103440, "pitch": 60, "duration": 80, "velocity": 100}, {"time": 103680, "pitch": 60, "duration": 40, "velocity": 90}, {"time": 103800, "pitch": 55, "duration": 220, "velocity": 105}, {"time": 104040, "pitch": 57, "duration": 100, "velocity": 80}, {"time": 104400, "pitch": 55, "duration": 70, "velocity": 97}, {"time": 104520, "pitch": 57, "duration": 20, "velocity": 70}, {"time": 104640, "pitch": 60, "duration": 110, "velocity": 106}, {"time": 104880, "pitch": 57, "duration": 80, "velocity": 106}, {"time": 105000, "pitch": 55, "duration": 40, "velocity": 75}, {"time": 105120, "pitch": 55, "duration": 100, "velocity": 90}, {"time": 105360, "pitch": 57, "duration": 70, "velocity": 100}, {"time": 105600, "pitch": 60, "duration": 110, "velocity": 106}, {"time": 105840, "pitch": 57, "duration": 100, "velocity": 70}, {"time": 105960, "pitch": 55, "duration": 20, "velocity": 100}, {"time": 106320, "pitch": 55, "duration": 70, "velocity": 97}, {"time": 106440, "pitch": 57, "duration": 20, "velocity": 70}, {"time": 106560, "pitch": 60, "duration": 110, "velocity": 106}, {"time": 106800, "pitch": 57, "duration": 80, "velocity": 106}, {"time": 106920, "pitch": 55, "duration": 40, "velocity": 75}, {"time": 107040, "pitch": 55, "duration": 100, "velocity": 90}, {"time": 107280, "pitch": 57, "duration": 70, "velocity": 100}, {"time": 107520, "pitch": 60, "duration": 110, "velocity": 106}, {"time": 107760, "pitch": 57, "duration": 100, "velocity": 70}, {"time": 107880, "pitch": 55, "duration": 20, "velocity": 100}, {"time": 108240, "pitch": 55, "duration": 70, "velocity": 97}, {"time": 108360, "pitch": 57, "duration": 20, "velocity": 70}, {"time": 108480, "pitch": 60, "duration": 110, "velocity": 106}, {"time": 108720, "pitch": 57, "duration": 80, "velocity": 106}, {"time": 108840, "pitch": 55, "duration": 40, "velocity": 75}, {"time": 108960, "pitch": 55, "duration": 100, "velocity": 90}, {"time": 109200, "pitch": 57, "duration": 70, "velocity": 100}, {"time": 109440, "pitch": 60, "duration": 110, "velocity": 106}, {"time": 109680, "pitch": 57, "duration": 100, "velocity": 70}, {"time": 109800, "pitch": 55, "duration": 20, "velocity": 100}, {"time": 110160, "pitch": 55, "duration": 70, "velocity": 97}, {"time": 110280, "pitch": 57, "duration": 20, "velocity": 70}, {"time": 110400, "pitch": 60, "duration": 110, "velocity": 106}, {"time": 110640, "pitch": 57, "duration": 80, "velocity": 106}, {"time": 110760, "pitch": 55, "duration": 40, "velocity": 75}, {"time": 110880, "pitch": 55, "duration": 100, "velocity": 90}, {"time": 111120, "pitch": 57, "duration": 70, "velocity": 100}, {"time": 111360, "pitch": 60, "duration": 110, "velocity": 106}, {"time": 111600, "pitch": 57, "duration": 100, "velocity": 70}, {"time": 111720, "pitch": 55, "duration": 20, "velocity": 100}, {"time": 112080, "pitch": 55, "duration": 70, "velocity": 97}, {"time": 112200, "pitch": 57, "duration": 20, "velocity": 70}, {"time": 112320, "pitch": 60, "duration": 110, "velocity": 106}, {"time": 112560, "pitch": 57, "duration": 80, "velocity": 106}, {"time": 112680, "pitch": 55, "duration": 40, "velocity": 75}, {"time": 112800, "pitch": 55, "duration": 100, "velocity": 90}, {"time": 113040, "pitch": 57, "duration": 70, "velocity": 100}, {"time": 113280, "pitch": 60, "duration": 110, "velocity": 106}, {"time": 113520, "pitch": 57, "duration": 100, "velocity": 70}, {"time": 113640, "pitch": 55, "duration": 20, "velocity": 100}, {"time": 114000, "pitch": 55, "duration": 70, "velocity": 97}, {"time": 114120, "pitch": 57, "duration": 20, "velocity": 70}, {"time": 114240, "pitch": 60, "duration": 110, "velocity": 106}, {"time": 114480, "pitch": 57, "duration": 80, "velocity": 106}, {"time": 114600, "pitch": 55, "duration": 40, "velocity": 75}, {"time": 114720, "pitch": 55, "duration": 100, "velocity": 90}, {"time": 114960, "pitch": 57, "duration": 70, "velocity": 100}, {"time": 115200, "pitch": 60, "duration": 110, "velocity": 106}, {"time": 115440, "pitch": 57, "duration": 100, "velocity": 70}, {"time": 115560, "pitch": 55, "duration": 20, "velocity": 100}, {"time": 117600, "pitch": 60, "duration": 220, "velocity": 100}, {"time": 117840, "pitch": 60, "duration": 200, "velocity": 110}, {"time": 119760, "pitch": 55, "duration": 70, "velocity": 97}, {"time": 119880, "pitch": 57, "duration": 20, "velocity": 70}, {"time": 120000, "pitch": 60, "duration": 110, "velocity": 106}, {"time": 120240, "pitch": 57, "duration": 80, "velocity": 106}, {"time": 120360, "pitch": 55, "duration": 40, "velocity": 75}, {"time": 120480, "pitch": 55, "duration": 100, "velocity": 90}, {"time": 120720, "pitch": 57, "duration": 70, "velocity": 100}, {"time": 120960, "pitch": 60, "duration": 110, "velocity": 106}, {"time": 121200, "pitch": 57, "duration": 100, "velocity": 70}, {"time": 121320, "pitch": 55, "duration": 20, "velocity": 100}, {"time": 121680, "pitch": 55, "duration": 70, "velocity": 97}, {"time": 121800, "pitch": 57, "duration": 20, "velocity": 70}, {"time": 121920, "pitch": 60, "duration": 110, "velocity": 106}, {"time": 122160, "pitch": 57, "duration": 80, "velocity": 106}, {"time": 122280, "pitch": 55, "duration": 40, "velocity": 75}, {"time": 122400, "pitch": 55, "duration": 100, "velocity": 90}, {"time": 122640, "pitch": 57, "duration": 70, "velocity": 100}, {"time": 122880, "pitch": 60, "duration": 110, "velocity": 106}, {"time": 123120, "pitch": 57, "duration": 100, "velocity": 70}, {"time": 123240, "pitch": 55, "duration": 20, "velocity": 100}, {"time": 123600, "pitch": 55, "duration": 70, "velocity": 97}, {"time": 123720, "pitch": 57, "duration": 20, "velocity": 70}, {"time": 123840, "pitch": 60, "duration": 110, "velocity": 106}, {"time": 124080, "pitch": 57, "duration": 80, "velocity": 106}, {"time": 124200, "pitch": 55, "duration": 40, "velocity": 75}, {"time": 124320, "pitch": 55, "duration": 100, "velocity": 90}, {"time": 124560, "pitch": 57, "duration": 70, "velocity": 100}, {"time": 124800, "pitch": 60, "duration": 110, "velocity": 106}, {"time": 125040, "pitch": 57, "duration": 100, "velocity": 70}, {"time": 125160, "pitch": 55, "duration": 20, "velocity": 100}, {"time": 125520, "pitch": 63, "duration": 70, "velocity": 90}, {"time": 125760, "pitch": 62, "duration": 100, "velocity": 100}, {"time": 125880, "pitch": 60, "duration": 220, "velocity": 100}, {"time": 126120, "pitch": 57, "duration": 100, "velocity": 70}, {"time": 126240, "pitch": 60, "duration": 40, "velocity": 80}, {"time": 126360, "pitch": 62, "duration": 90, "velocity": 100}, {"time": 126600, "pitch": 60, "duration": 340, "velocity": 90}, {"time": 126960, "pitch": 62, "duration": 100, "velocity": 105}, {"time": 127080, "pitch": 60, "duration": 100, "velocity": 80}, {"time": 127440, "pitch": 55, "duration": 70, "velocity": 97}, {"time": 127560, "pitch": 57, "duration": 20, "velocity": 70}, {"time": 127680, "pitch": 60, "duration": 110, "velocity": 106}, {"time": 127920, "pitch": 57, "duration": 80, "velocity": 106}, {"time": 128040, "pitch": 55, "duration": 40, "velocity": 75}, {"time": 128160, "pitch": 55, "duration": 100, "velocity": 90}, {"time": 128400, "pitch": 57, "duration": 70, "velocity": 100}, {"time": 128640, "pitch": 60, "duration": 110, "velocity": 106}, {"time": 128880, "pitch": 57, "duration": 100, "velocity": 70}, {"time": 129000, "pitch": 55, "duration": 20, "velocity": 100}, {"time": 129360, "pitch": 55, "duration": 70, "velocity": 97}, {"time": 129480, "pitch": 57, "duration": 20, "velocity": 70}, {"time": 129600, "pitch": 60, "duration": 110, "velocity": 106}, {"time": 129840, "pitch": 57, "duration": 80, "velocity": 106}, {"time": 129960, "pitch": 55, "duration": 40, "velocity": 75}, {"time": 130080, "pitch": 55, "duration": 100, "velocity": 90}, {"time": 130320, "pitch": 57, "duration": 70, "velocity": 100}, {"time": 130560, "pitch": 60, "duration": 110, "velocity": 106}, {"time": 130800, "pitch": 57, "duration": 100, "velocity": 70}, {"time": 130920, "pitch": 55, "duration": 20, "velocity": 100}, {"time": 131280, "pitch": 55, "duration": 70, "velocity": 97}, {"time": 131400, "pitch": 57, "duration": 20, "velocity": 70}, {"time": 131520, "pitch": 60, "duration": 110, "velocity": 106}, {"time": 131760, "pitch": 57, "duration": 80, "velocity": 106}, {"time": 131880, "pitch": 55, "duration": 40, "velocity": 75}, {"time": 132000, "pitch": 55, "duration": 100, "velocity": 90}, {"time": 132240, "pitch": 57, "duration": 70, "velocity": 100}, {"time": 132480, "pitch": 60, "duration": 110, "velocity": 106}, {"time": 132720, "pitch": 57, "duration": 100, "velocity": 70}, {"time": 132840, "pitch": 55, "duration": 20, "velocity": 100}, {"time": 133200, "pitch": 63, "duration": 70, "velocity": 90}, {"time": 133440, "pitch": 62, "duration": 100, "velocity": 100}, {"time": 133560, "pitch": 60, "duration": 220, "velocity": 100}, {"time": 133800, "pitch": 57, "duration": 100, "velocity": 70}, {"time": 133920, "pitch": 60, "duration": 40, "velocity": 80}, {"time": 134040, "pitch": 62, "duration": 90, "velocity": 100}, {"time": 134280, "pitch": 60, "duration": 340, "velocity": 90}, {"time": 134640, "pitch": 62, "duration": 100, "velocity": 105}, {"time": 134760, "pitch": 60, "duration": 100, "velocity": 80}, {"time": 135120, "pitch": 55, "duration": 70, "velocity": 97}, {"time": 135240, "pitch": 57, "duration": 20, "velocity": 70}, {"time": 135360, "pitch": 60, "duration": 110, "velocity": 106}, {"time": 135600, "pitch": 57, "duration": 80, "velocity": 106}, {"time": 135720, "pitch": 55, "duration": 40, "velocity": 75}, {"time": 135840, "pitch": 55, "duration": 100, "velocity": 90}, {"time": 136080, "pitch": 57, "duration": 70, "velocity": 100}, {"time": 136320, "pitch": 60, "duration": 110, "velocity": 106}, {"time": 136560, "pitch": 57, "duration": 100, "velocity": 70}, {"time": 136680, "pitch": 55, "duration": 20, "velocity": 100}, {"time": 137040, "pitch": 55, "duration": 70, "velocity": 97}, {"time": 137160, "pitch": 57, "duration": 20, "velocity": 70}, {"time": 137280, "pitch": 60, "duration": 110, "velocity": 106}, {"time": 137520, "pitch": 57, "duration": 80, "velocity": 106}, {"time": 137640, "pitch": 55, "duration": 40, "velocity": 75}, {"time": 137760, "pitch": 55, "duration": 100, "velocity": 90}, {"time": 138000, "pitch": 57, "duration": 70, "velocity": 100}, {"time": 138240, "pitch": 60, "duration": 110, "velocity": 106}, {"time": 138480, "pitch": 57, "duration": 100, "velocity": 70}, {"time": 138600, "pitch": 55, "duration": 20, "velocity": 100}, {"time": 138960, "pitch": 55, "duration": 70, "velocity": 97}, {"time": 139080, "pitch": 57, "duration": 20, "velocity": 70}, {"time": 139200, "pitch": 60, "duration": 110, "velocity": 106}, {"time": 139440, "pitch": 57, "duration": 80, "velocity": 106}, {"time": 139560, "pitch": 55, "duration": 40, "velocity": 75}, {"time": 139680, "pitch": 55, "duration": 100, "velocity": 90}, {"time": 139920, "pitch": 57, "duration": 70, "velocity": 100}, {"time": 140160, "pitch": 60, "duration": 110, "velocity": 106}, {"time": 140400, "pitch": 57, "duration": 100, "velocity": 70}, {"time": 140520, "pitch": 55, "duration": 20, "velocity": 100}, {"time": 140880, "pitch": 63, "duration": 70, "velocity": 90}, {"time": 141120, "pitch": 62, "duration": 100, "velocity": 100}, {"time": 141240, "pitch": 60, "duration": 220, "velocity": 100}, {"time": 141480, "pitch": 57, "duration": 100, "velocity": 70}, {"time": 141600, "pitch": 60, "duration": 40, "velocity": 80}, {"time": 141720, "pitch": 62, "duration": 90, "velocity": 100}, {"time": 141960, "pitch": 60, "duration": 340, "velocity": 90}, {"time": 142320, "pitch": 62, "duration": 100, "velocity": 105}, {"time": 142440, "pitch": 60, "duration": 100, "velocity": 80}, {"time": 142800, "pitch": 55, "duration": 70, "velocity": 97}, {"time": 142920, "pitch": 57, "duration": 20, "velocity": 70}, {"time": 143040, "pitch": 60, "duration": 110, "velocity": 106}, {"time": 143280, "pitch": 57, "duration": 80, "velocity": 106}, {"time": 143400, "pitch": 55, "duration": 40, "velocity": 75}, {"time": 143520, "pitch": 55, "duration": 100, "velocity": 90}, {"time": 143760, "pitch": 57, "duration": 70, "velocity": 100}, {"time": 144000, "pitch": 60, "duration": 110, "velocity": 106}, {"time": 144240, "pitch": 57, "duration": 100, "velocity": 70}, {"time": 144360, "pitch": 55, "duration": 20, "velocity": 100}, {"time": 144720, "pitch": 55, "duration": 70, "velocity": 97}, {"time": 144840, "pitch": 57, "duration": 20, "velocity": 70}, {"time": 144960, "pitch": 60, "duration": 110, "velocity": 106}, {"time": 145200, "pitch": 57, "duration": 80, "velocity": 106}, {"time": 145320, "pitch": 55, "duration": 40, "velocity": 75}, {"time": 145440, "pitch": 55, "duration": 100, "velocity": 90}, {"time": 145680, "pitch": 57, "duration": 70, "velocity": 100}, {"time": 145920, "pitch": 60, "duration": 110, "velocity": 106}, {"time": 146160, "pitch": 57, "duration": 100, "velocity": 70}, {"time": 146280, "pitch": 55, "duration": 20, "velocity": 100}, {"time": 146640, "pitch": 55, "duration": 70, "velocity": 97}, {"time": 146760, "pitch": 57, "duration": 20, "velocity": 70}, {"time": 146880, "pitch": 60, "duration": 110, "velocity": 106}, {"time": 147120, "pitch": 57, "duration": 80, "velocity": 106}, {"time": 147240, "pitch": 55, "duration": 40, "velocity": 75}, {"time": 147360, "pitch": 55, "duration": 100, "velocity": 90}, {"time": 147600, "pitch": 57, "duration": 70, "velocity": 100}, {"time": 147840, "pitch": 60, "duration": 110, "velocity": 106}, {"time": 148080, "pitch": 57, "duration": 100, "velocity": 70}, {"time": 148200, "pitch": 55, "duration": 20, "velocity": 100}, {"time": 148560, "pitch": 63, "duration": 70, "velocity": 90}, {"time": 148800, "pitch": 62, "duration": 100, "velocity": 100}, {"time": 148920, "pitch": 60, "duration": 220, "velocity": 100}, {"time": 149160, "pitch": 57, "duration": 100, "velocity": 70}, {"time": 149280, "pitch": 60, "duration": 40, "velocity": 80}, {"time": 149400, "pitch": 62, "duration": 90, "velocity": 100}, {"time": 149640, "pitch": 60, "duration": 340, "velocity": 90}, {"time": 150000, "pitch": 62, "duration": 100, "velocity": 105}, {"time": 150120, "pitch": 60, "duration": 100, "velocity": 80}, {"time": 173520, "pitch": 55, "duration": 70, "velocity": 97}, {"time": 173640, "pitch": 57, "duration": 20, "velocity": 70}, {"time": 173760, "pitch": 60, "duration": 110, "velocity": 106}, {"time": 174000, "pitch": 57, "duration": 80, "velocity": 106}, {"time": 174120, "pitch": 55, "duration": 40, "velocity": 75}, {"time": 174240, "pitch": 55, "duration": 100, "velocity": 90}, {"time": 174480, "pitch": 57, "duration": 70, "velocity": 100}, {"time": 174720, "pitch": 60, "duration": 110, "velocity": 106}, {"time": 174960, "pitch": 57, "duration": 100, "velocity": 70}, {"time": 175080, "pitch": 55, "duration": 20, "velocity": 100}, {"time": 175440, "pitch": 55, "duration": 70, "velocity": 97}, {"time": 175560, "pitch": 57, "duration": 20, "velocity": 70}, {"time": 175680, "pitch": 60, "duration": 110, "velocity": 106}, {"time": 175920, "pitch": 57, "duration": 80, "velocity": 106}, {"time": 176040, "pitch": 55, "duration": 40, "velocity": 75}, {"time": 176160, "pitch": 60, "duration": 100, "velocity": 90}, {"time": 176400, "pitch": 62, "duration": 70, "velocity": 100}, {"time": 176640, "pitch": 60, "duration": 110, "velocity": 106}, {"time": 176880, "pitch": 57, "duration": 100, "velocity": 70}, {"time": 177000, "pitch": 55, "duration": 20, "velocity": 100}, {"time": 177360, "pitch": 55, "duration": 70, "velocity": 97}, {"time": 177480, "pitch": 57, "duration": 20, "velocity": 70}, {"time": 177600, "pitch": 60, "duration": 110, "velocity": 106}, {"time": 177840, "pitch": 57, "duration": 80, "velocity": 106}, {"time": 177960, "pitch": 55, "duration": 40, "velocity": 75}, {"time": 178080, "pitch": 55, "duration": 100, "velocity": 90}, {"time": 178320, "pitch": 57, "duration": 70, "velocity": 100}, {"time": 178560, "pitch": 60, "duration": 110, "velocity": 106}, {"time": 178800, "pitch": 57, "duration": 100, "velocity": 70}, {"time": 178920, "pitch": 55, "duration": 20, "velocity": 100}, {"time": 179280, "pitch": 63, "duration": 70, "velocity": 90}, {"time": 179520, "pitch": 62, "duration": 100, "velocity": 100}, {"time": 179640, "pitch": 60, "duration": 220, "velocity": 100}, {"time": 179880, "pitch": 57, "duration": 100, "velocity": 70}, {"time": 180000, "pitch": 60, "duration": 40, "velocity": 80}, {"time": 180120, "pitch": 62, "duration": 90, "velocity": 100}, {"time": 180360, "pitch": 60, "duration": 340, "velocity": 90}, {"time": 180720, "pitch": 62, "duration": 100, "velocity": 105}, {"time": 180840, "pitch": 60, "duration": 100, "velocity": 80}, {"time": 181200, "pitch": 55, "duration": 70, "velocity": 97}, {"time": 181320, "pitch": 57, "duration": 20, "velocity": 70}, {"time": 181440, "pitch": 60, "duration": 110, "velocity": 106}, {"time": 181680, "pitch": 57, "duration": 80, "velocity": 106}, {"time": 181800, "pitch": 55, "duration": 40, "velocity": 75}, {"time": 181920, "pitch": 55, "duration": 100, "velocity": 90}, {"time": 182160, "pitch": 57, "duration": 70, "velocity": 100}, {"time": 182400, "pitch": 60, "duration": 110, "velocity": 106}, {"time": 182640, "pitch": 57, "duration": 100, "velocity": 70}, {"time": 182760, "pitch": 55, "duration": 20, "velocity": 100}, {"time": 183120, "pitch": 55, "duration": 70, "velocity": 97}, {"time": 183240, "pitch": 57, "duration": 20, "velocity": 70}, {"time": 183360, "pitch": 60, "duration": 110, "velocity": 106}, {"time": 183600, "pitch": 57, "duration": 80, "velocity": 106}, {"time": 183720, "pitch": 55, "duration": 40, "velocity": 75}, {"time": 183840, "pitch": 55, "duration": 100, "velocity": 90}, {"time": 184080, "pitch": 57, "duration": 70, "velocity": 100}, {"time": 184320, "pitch": 60, "duration": 110, "velocity": 106}, {"time": 184560, "pitch": 57, "duration": 100, "velocity": 70}, {"time": 184680, "pitch": 55, "duration": 20, "velocity": 100}, {"time": 185040, "pitch": 55, "duration": 70, "velocity": 97}, {"time": 185160, "pitch": 57, "duration": 20, "velocity": 70}, {"time": 185280, "pitch": 60, "duration": 110, "velocity": 106}, {"time": 185520, "pitch": 57, "duration": 80, "velocity": 106}, {"time": 185640, "pitch": 55, "duration": 40, "velocity": 75}, {"time": 185760, "pitch": 55, "duration": 100, "velocity": 90}, {"time": 186000, "pitch": 57, "duration": 70, "velocity": 100}, {"time": 186240, "pitch": 60, "duration": 110, "velocity": 106}, {"time": 186480, "pitch": 57, "duration": 100, "velocity": 70}, {"time": 186600, "pitch": 55, "duration": 20, "velocity": 100}, {"time": 186960, "pitch": 63, "duration": 70, "velocity": 90}, {"time": 187200, "pitch": 62, "duration": 100, "velocity": 100}, {"time": 187320, "pitch": 60, "duration": 220, "velocity": 100}, {"time": 187560, "pitch": 57, "duration": 100, "velocity": 70}, {"time": 187680, "pitch": 60, "duration": 40, "velocity": 80}, {"time": 187800, "pitch": 62, "duration": 90, "velocity": 100}, {"time": 188040, "pitch": 60, "duration": 340, "velocity": 90}, {"time": 188400, "pitch": 62, "duration": 100, "velocity": 105}, {"time": 188520, "pitch": 60, "duration": 100, "velocity": 80}, {"time": 188880, "pitch": 55, "duration": 70, "velocity": 97}, {"time": 189000, "pitch": 57, "duration": 20, "velocity": 70}, {"time": 189120, "pitch": 60, "duration": 110, "velocity": 106}, {"time": 189360, "pitch": 57, "duration": 80, "velocity": 106}, {"time": 189480, "pitch": 55, "duration": 40, "velocity": 75}, {"time": 189600, "pitch": 55, "duration": 100, "velocity": 90}, {"time": 189840, "pitch": 57, "duration": 70, "velocity": 100}, {"time": 190080, "pitch": 60, "duration": 110, "velocity": 106}, {"time": 190320, "pitch": 57, "duration": 100, "velocity": 70}, {"time": 190440, "pitch": 55, "duration": 20, "velocity": 100}, {"time": 190800, "pitch": 55, "duration": 70, "velocity": 97}, {"time": 190920, "pitch": 57, "duration": 20, "velocity": 70}, {"time": 191040, "pitch": 60, "duration": 110, "velocity": 106}, {"time": 191280, "pitch": 57, "duration": 80, "velocity": 106}, {"time": 191400, "pitch": 55, "duration": 40, "velocity": 75}, {"time": 191520, "pitch": 55, "duration": 100, "velocity": 90}, {"time": 191760, "pitch": 57, "duration": 70, "velocity": 100}, {"time": 192000, "pitch": 60, "duration": 110, "velocity": 106}, {"time": 192240, "pitch": 57, "duration": 100, "velocity": 70}, {"time": 192360, "pitch": 55, "duration": 20, "velocity": 100}, {"time": 192720, "pitch": 55, "duration": 70, "velocity": 97}, {"time": 192840, "pitch": 57, "duration": 20, "velocity": 70}, {"time": 192960, "pitch": 60, "duration": 110, "velocity": 106}, {"time": 193200, "pitch": 57, "duration": 80, "velocity": 106}, {"time": 193320, "pitch": 55, "duration": 40, "velocity": 75}, {"time": 193440, "pitch": 55, "duration": 100, "velocity": 90}, {"time": 193680, "pitch": 57, "duration": 70, "velocity": 100}, {"time": 193920, "pitch": 60, "duration": 110, "velocity": 106}, {"time": 194160, "pitch": 57, "duration": 100, "velocity": 70}, {"time": 194280, "pitch": 55, "duration": 20, "velocity": 100}, {"time": 194640, "pitch": 63, "duration": 70, "velocity": 90}, {"time": 194880, "pitch": 62, "duration": 100, "velocity": 100}, {"time": 195000, "pitch": 60, "duration": 220, "velocity": 100}, {"time": 195240, "pitch": 57, "duration": 100, "velocity": 70}, {"time": 195360, "pitch": 60, "duration": 40, "velocity": 80}, {"time": 195480, "pitch": 62, "duration": 90, "velocity": 100}, {"time": 195720, "pitch": 60, "duration": 340, "velocity": 90}, {"time": 196080, "pitch": 62, "duration": 100, "velocity": 105}, {"time": 196200, "pitch": 60, "duration": 100, "velocity": 80}, {"time": 196560, "pitch": 55, "duration": 70, "velocity": 97}, {"time": 196680, "pitch": 57, "duration": 20, "velocity": 70}, {"time": 196800, "pitch": 60, "duration": 110, "velocity": 106}, {"time": 197040, "pitch": 57, "duration": 80, "velocity": 106}, {"time": 197160, "pitch": 55, "duration": 40, "velocity": 75}, {"time": 197280, "pitch": 55, "duration": 100, "velocity": 90}, {"time": 197520, "pitch": 57, "duration": 70, "velocity": 100}, {"time": 197760, "pitch": 60, "duration": 110, "velocity": 106}, {"time": 198000, "pitch": 57, "duration": 100, "velocity": 70}, {"time": 198120, "pitch": 55, "duration": 20, "velocity": 100}, {"time": 198480, "pitch": 55, "duration": 70, "velocity": 97}, {"time": 198600, "pitch": 57, "duration": 20, "velocity": 70}, {"time": 198720, "pitch": 60, "duration": 110, "velocity": 106}, {"time": 198960, "pitch": 57, "duration": 80, "velocity": 106}, {"time": 199080, "pitch": 55, "duration": 40, "velocity": 75}, {"time": 199200, "pitch": 55, "duration": 100, "velocity": 90}, {"time": 199440, "pitch": 57, "duration": 70, "velocity": 100}, {"time": 199680, "pitch": 60, "duration": 110, "velocity": 106}, {"time": 199920, "pitch": 57, "duration": 100, "velocity": 70}, {"time": 200040, "pitch": 55, "duration": 20, "velocity": 100}, {"time": 200400, "pitch": 55, "duration": 70, "velocity": 97}, {"time": 200520, "pitch": 57, "duration": 20, "velocity": 70}, {"time": 200640, "pitch": 60, "duration": 110, "velocity": 106}, {"time": 200880, "pitch": 57, "duration": 80, "velocity": 106}, {"time": 201000, "pitch": 55, "duration": 40, "velocity": 75}, {"time": 201120, "pitch": 55, "duration": 100, "velocity": 90}, {"time": 201360, "pitch": 57, "duration": 70, "velocity": 100}, {"time": 201600, "pitch": 60, "duration": 110, "velocity": 106}, {"time": 201840, "pitch": 57, "duration": 100, "velocity": 70}, {"time": 201960, "pitch": 55, "duration": 20, "velocity": 100}, {"time": 202320, "pitch": 63, "duration": 70, "velocity": 90}, {"time": 202560, "pitch": 62, "duration": 100, "velocity": 100}, {"time": 202680, "pitch": 60, "duration": 220, "velocity": 100}, {"time": 202920, "pitch": 57, "duration": 100, "velocity": 70}, {"time": 203040, "pitch": 60, "duration": 40, "velocity": 80}, {"time": 203160, "pitch": 62, "duration": 90, "velocity": 100}, {"time": 203400, "pitch": 60, "duration": 340, "velocity": 90}, {"time": 203760, "pitch": 62, "duration": 100, "velocity": 105}, {"time": 203880, "pitch": 60, "duration": 100, "velocity": 80}, {"time": 204240, "pitch": 55, "duration": 70, "velocity": 97}, {"time": 204360, "pitch": 57, "duration": 20, "velocity": 70}, {"time": 204480, "pitch": 60, "duration": 110, "velocity": 106}, {"time": 204720, "pitch": 57, "duration": 80, "velocity": 106}, {"time": 204840, "pitch": 55, "duration": 40, "velocity": 75}, {"time": 204960, "pitch": 55, "duration": 100, "velocity": 90}, {"time": 205200, "pitch": 57, "duration": 70, "velocity": 100}, {"time": 205440, "pitch": 60, "duration": 110, "velocity": 106}, {"time": 205680, "pitch": 57, "duration": 100, "velocity": 70}, {"time": 205800, "pitch": 55, "duration": 20, "velocity": 100}, {"time": 206160, "pitch": 55, "duration": 70, "velocity": 97}, {"time": 206280, "pitch": 57, "duration": 20, "velocity": 70}, {"time": 206400, "pitch": 60, "duration": 110, "velocity": 106}, {"time": 206640, "pitch": 57, "duration": 80, "velocity": 106}, {"time": 206760, "pitch": 55, "duration": 40, "velocity": 75}, {"time": 206880, "pitch": 55, "duration": 100, "velocity": 90}, {"time": 207120, "pitch": 57, "duration": 70, "velocity": 100}, {"time": 207360, "pitch": 60, "duration": 110, "velocity": 106}, {"time": 207600, "pitch": 57, "duration": 100, "velocity": 70}, {"time": 207720, "pitch": 55, "duration": 20, "velocity": 100}, {"time": 208080, "pitch": 55, "duration": 70, "velocity": 97}, {"time": 208200, "pitch": 57, "duration": 20, "velocity": 70}, {"time": 208320, "pitch": 60, "duration": 110, "velocity": 106}, {"time": 208560, "pitch": 57, "duration": 80, "velocity": 106}, {"time": 208680, "pitch": 55, "duration": 40, "velocity": 75}, {"time": 208800, "pitch": 55, "duration": 100, "velocity": 90}, {"time": 209040, "pitch": 57, "duration": 70, "velocity": 100}, {"time": 209280, "pitch": 60, "duration": 110, "velocity": 106}, {"time": 209520, "pitch": 57, "duration": 100, "velocity": 70}, {"time": 209640, "pitch": 55, "duration": 20, "velocity": 100}, {"time": 210000, "pitch": 63, "duration": 70, "velocity": 90}, {"time": 210240, "pitch": 62, "duration": 100, "velocity": 100}, {"time": 210360, "pitch": 60, "duration": 220, "velocity": 100}, {"time": 210600, "pitch": 57, "duration": 100, "velocity": 70}, {"time": 210720, "pitch": 60, "duration": 40, "velocity": 80}, {"time": 210840, "pitch": 62, "duration": 90, "velocity": 100}, {"time": 211080, "pitch": 60, "duration": 340, "velocity": 90}, {"time": 211440, "pitch": 62, "duration": 100, "velocity": 105}, {"time": 211560, "pitch": 60, "duration": 100, "velocity": 80}, {"time": 211920, "pitch": 55, "duration": 70, "velocity": 97}, {"time": 212040, "pitch": 57, "duration": 20, "velocity": 70}, {"time": 212160, "pitch": 60, "duration": 110, "velocity": 106}, {"time": 212400, "pitch": 57, "duration": 80, "velocity": 106}, {"time": 212520, "pitch": 55, "duration": 40, "velocity": 75}, {"time": 212640, "pitch": 55, "duration": 100, "velocity": 90}, {"time": 212880, "pitch": 57, "duration": 70, "velocity": 100}, {"time": 213120, "pitch": 60, "duration": 110, "velocity": 106}, {"time": 213360, "pitch": 57, "duration": 100, "velocity": 70}, {"time": 213480, "pitch": 55, "duration": 20, "velocity": 100}, {"time": 213840, "pitch": 55, "duration": 70, "velocity": 97}, {"time": 213960, "pitch": 57, "duration": 20, "velocity": 70}, {"time": 214080, "pitch": 60, "duration": 110, "velocity": 106}, {"time": 214320, "pitch": 57, "duration": 80, "velocity": 106}, {"time": 214440, "pitch": 55, "duration": 40, "velocity": 75}, {"time": 214560, "pitch": 55, "duration": 100, "velocity": 90}, {"time": 214800, "pitch": 57, "duration": 70, "velocity": 100}, {"time": 215040, "pitch": 60, "duration": 110, "velocity": 106}, {"time": 215280, "pitch": 57, "duration": 100, "velocity": 70}, {"time": 215400, "pitch": 55, "duration": 20, "velocity": 100}, {"time": 215760, "pitch": 55, "duration": 70, "velocity": 97}, {"time": 215880, "pitch": 57, "duration": 20, "velocity": 70}, {"time": 216000, "pitch": 60, "duration": 110, "velocity": 106}, {"time": 216240, "pitch": 57, "duration": 80, "velocity": 106}, {"time": 216360, "pitch": 55, "duration": 40, "velocity": 75}, {"time": 216480, "pitch": 55, "duration": 100, "velocity": 90}, {"time": 216720, "pitch": 57, "duration": 70, "velocity": 100}, {"time": 216960, "pitch": 60, "duration": 110, "velocity": 106}, {"time": 217200, "pitch": 57, "duration": 100, "velocity": 70}, {"time": 217320, "pitch": 55, "duration": 20, "velocity": 100}, {"time": 217680, "pitch": 63, "duration": 70, "velocity": 90}, {"time": 217920, "pitch": 62, "duration": 100, "velocity": 100}, {"time": 218040, "pitch": 60, "duration": 220, "velocity": 100}, {"time": 218280, "pitch": 57, "duration": 100, "velocity": 70}, {"time": 218400, "pitch": 60, "duration": 40, "velocity": 80}, {"time": 218520, "pitch": 62, "duration": 90, "velocity": 100}, {"time": 218760, "pitch": 60, "duration": 340, "velocity": 90}, {"time": 219120, "pitch": 62, "duration": 100, "velocity": 105}, {"time": 219240, "pitch": 60, "duration": 100, "velocity": 80}, {"time": 219600, "pitch": 55, "duration": 70, "velocity": 97}, {"time": 219720, "pitch": 57, "duration": 20, "velocity": 70}, {"time": 219840, "pitch": 60, "duration": 110, "velocity": 106}, {"time": 220080, "pitch": 57, "duration": 80, "velocity": 106}, {"time": 220200, "pitch": 55, "duration": 40, "velocity": 75}, {"time": 220320, "pitch": 55, "duration": 100, "velocity": 90}, {"time": 220560, "pitch": 57, "duration": 70, "velocity": 100}, {"time": 220800, "pitch": 60, "duration": 110, "velocity": 106}, {"time": 221040, "pitch": 57, "duration": 100, "velocity": 70}, {"time": 221160, "pitch": 55, "duration": 20, "velocity": 100}, {"time": 221520, "pitch": 55, "duration": 70, "velocity": 97}, {"time": 221640, "pitch": 57, "duration": 20, "velocity": 70}, {"time": 221760, "pitch": 60, "duration": 110, "velocity": 106}, {"time": 222000, "pitch": 57, "duration": 80, "velocity": 106}, {"time": 222120, "pitch": 55, "duration": 40, "velocity": 75}, {"time": 222240, "pitch": 55, "duration": 100, "velocity": 90}, {"time": 222480, "pitch": 57, "duration": 70, "velocity": 100}, {"time": 222720, "pitch": 60, "duration": 110, "velocity": 106}, {"time": 222960, "pitch": 57, "duration": 100, "velocity": 70}, {"time": 223080, "pitch": 55, "duration": 20, "velocity": 100}, {"time": 223440, "pitch": 55, "duration": 70, "velocity": 97}, {"time": 223560, "pitch": 57, "duration": 20, "velocity": 70}, {"time": 223680, "pitch": 60, "duration": 110, "velocity": 106}, {"time": 223920, "pitch": 57, "duration": 80, "velocity": 106}, {"time": 224040, "pitch": 55, "duration": 40, "velocity": 75}, {"time": 224160, "pitch": 55, "duration": 100, "velocity": 90}, {"time": 224400, "pitch": 57, "duration": 70, "velocity": 100}, {"time": 224640, "pitch": 60, "duration": 110, "velocity": 106}, {"time": 224880, "pitch": 57, "duration": 100, "velocity": 70}, {"time": 225000, "pitch": 55, "duration": 20, "velocity": 100}, {"time": 225360, "pitch": 63, "duration": 70, "velocity": 90}, {"time": 225600, "pitch": 62, "duration": 100, "velocity": 100}, {"time": 225720, "pitch": 60, "duration": 220, "velocity": 100}, {"time": 225960, "pitch": 57, "duration": 100, "velocity": 70}, {"time": 226080, "pitch": 60, "duration": 40, "velocity": 80}, {"time": 226200, "pitch": 62, "duration": 90, "velocity": 100}, {"time": 226440, "pitch": 60, "duration": 340, "velocity": 90}, {"time": 226800, "pitch": 62, "duration": 100, "velocity": 105}, {"time": 226920, "pitch": 60, "duration": 100, "velocity": 80}, {"time": 227280, "pitch": 55, "duration": 70, "velocity": 97}, {"time": 227400, "pitch": 57, "duration": 20, "velocity": 70}, {"time": 227520, "pitch": 60, "duration": 110, "velocity": 106}, {"time": 227760, "pitch": 57, "duration": 80, "velocity": 106}, {"time": 227880, "pitch": 55, "duration": 40, "velocity": 75}, {"time": 228000, "pitch": 55, "duration": 100, "velocity": 90}, {"time": 228240, "pitch": 57, "duration": 70, "velocity": 100}, {"time": 228480, "pitch": 60, "duration": 110, "velocity": 106}, {"time": 228720, "pitch": 57, "duration": 100, "velocity": 70}, {"time": 228840, "pitch": 55, "duration": 20, "velocity": 100}, {"time": 229200, "pitch": 55, "duration": 70, "velocity": 97}, {"time": 229320, "pitch": 57, "duration": 20, "velocity": 70}, {"time": 229440, "pitch": 60, "duration": 110, "velocity": 106}, {"time": 229680, "pitch": 57, "duration": 80, "velocity": 106}, {"time": 229800, "pitch": 55, "duration": 40, "velocity": 75}, {"time": 229920, "pitch": 55, "duration": 100, "velocity": 90}, {"time": 230160, "pitch": 57, "duration": 70, "velocity": 100}, {"time": 230400, "pitch": 60, "duration": 110, "velocity": 106}, {"time": 230640, "pitch": 57, "duration": 100, "velocity": 70}, {"time": 230760, "pitch": 55, "duration": 20, "velocity": 100}, {"time": 231120, "pitch": 55, "duration": 70, "velocity": 97}, {"time": 231240, "pitch": 57, "duration": 20, "velocity": 70}, {"time": 231360, "pitch": 60, "duration": 110, "velocity": 106}, {"time": 231600, "pitch": 57, "duration": 80, "velocity": 106}, {"time": 231720, "pitch": 55, "duration": 40, "velocity": 75}, {"time": 231840, "pitch": 55, "duration": 100, "velocity": 90}, {"time": 232080, "pitch": 57, "duration": 70, "velocity": 100}, {"time": 232320, "pitch": 60, "duration": 110, "velocity": 106}, {"time": 232560, "pitch": 57, "duration": 100, "velocity": 70}, {"time": 232680, "pitch": 55, "duration": 20, "velocity": 100}, {"time": 233040, "pitch": 63, "duration": 70, "velocity": 90}, {"time": 233280, "pitch": 62, "duration": 100, "velocity": 100}, {"time": 233400, "pitch": 60, "duration": 220, "velocity": 100}, {"time": 233640, "pitch": 57, "duration": 100, "velocity": 70}, {"time": 233760, "pitch": 60, "duration": 40, "velocity": 80}, {"time": 233880, "pitch": 62, "duration": 90, "velocity": 100}, {"time": 234120, "pitch": 60, "duration": 340, "velocity": 90}, {"time": 234480, "pitch": 62, "duration": 100, "velocity": 105}, {"time": 234600, "pitch": 60, "duration": 100, "velocity": 80}], "annotations": [{"time": 336, "annotation": {"number": 7, "value": 65}, "group": "control_change"}, {"time": 352, "annotation": {"number": 11, "value": 127}, "group": "control_change"}, {"time": 368, "annotation": {"number": 10, "value": 125}, "group": "control_change"}, {"time": 384, "annotation": {"number": 91, "value": 51}, "group": "control_change"}, {"time": 400, "annotation": {"number": 93, "value": 0}, "group": "control_change"}, {"time": 416, "annotation": {"number": 101, "value": 0}, "group": "control_change"}, {"time": 432, "annotation": {"number": 100, "value": 0}, "group": "control_change"}, {"time": 448, "annotation": {"number": 6, "value": 12}, "group": "control_change"}, {"time": 464, "annotation": {"number": 101, "value": 127}, "group": "control_change"}, {"time": 480, "annotation": {"number": 100, "value": 127}, "group": "control_change"}]}, {"program": 0, "is_drum": false, "name": "PAD", "annotations": [{"time": 288, "annotation": {"number": 0, "value": 0}, "group": "control_change"}, {"time": 304, "annotation": {"number": 32, "value": 2}, "group": "control_change"}]}, {"program": 50, "is_drum": false, "name": "PAD", "notes": [{"time": 480, "pitch": 48, "duration": 3130, "velocity": 91}, {"time": 480, "pitch": 60, "duration": 3130, "velocity": 106}, {"time": 480, "pitch": 64, "duration": 3130, "velocity": 109}, {"time": 480, "pitch": 67, "duration": 3130, "velocity": 112}, {"time": 480, "pitch": 71, "duration": 3130, "velocity": 115}, {"time": 3600, "pitch": 49, "duration": 240, "velocity": 84}, {"time": 3600, "pitch": 61, "duration": 240, "velocity": 99}, {"time": 3600, "pitch": 65, "duration": 240, "velocity": 102}, {"time": 3600, "pitch": 68, "duration": 240, "velocity": 105}, {"time": 3600, "pitch": 72, "duration": 240, "velocity": 108}, {"time": 3840, "pitch": 50, "duration": 240, "velocity": 82}, {"time": 3840, "pitch": 62, "duration": 240, "velocity": 97}, {"time": 3840, "pitch": 66, "duration": 240, "velocity": 100}, {"time": 3840, "pitch": 69, "duration": 240, "velocity": 103}, {"time": 3840, "pitch": 73, "duration": 240, "velocity": 106}, {"time": 4080, "pitch": 51, "duration": 3330, "velocity": 88}, {"time": 4080, "pitch": 63, "duration": 3330, "velocity": 103}, {"time": 4080, "pitch": 67, "duration": 3330, "velocity": 106}, {"time": 4080, "pitch": 70, "duration": 3330, "velocity": 109}, {"time": 4080, "pitch": 74, "duration": 3330, "velocity": 112}, {"time": 7440, "pitch": 50, "duration": 230, "velocity": 82}, {"time": 7440, "pitch": 62, "duration": 230, "velocity": 97}, {"time": 7440, "pitch": 66, "duration": 230, "velocity": 100}, {"time": 7440, "pitch": 69, "duration": 230, "velocity": 103}, {"time": 7440, "pitch": 73, "duration": 230, "velocity": 106}, {"time": 7680, "pitch": 49, "duration": 220, "velocity": 89}, {"time": 7680, "pitch": 61, "duration": 220, "velocity": 104}, {"time": 7680, "pitch": 65, "duration": 220, "velocity": 107}, {"time": 7680, "pitch": 68, "duration": 220, "velocity": 110}, {"time": 7680, "pitch": 72, "duration": 220, "velocity": 113}, {"time": 7920, "pitch": 48, "duration": 3320, "velocity": 85}, {"time": 7920, "pitch": 60, "duration": 3320, "velocity": 100}, {"time": 7920, "pitch": 64, "duration": 3320, "velocity": 103}, {"time": 7920, "pitch": 67, "duration": 3320, "velocity": 106}, {"time": 7920, "pitch": 71, "duration": 3320, "velocity": 109}, {"time": 11280, "pitch": 49, "duration": 177, "velocity": 82}, {"time": 11280, "pitch": 61, "duration": 240, "velocity": 97}, {"time": 11280, "pitch": 65, "duration": 240, "velocity": 100}, {"time": 11280, "pitch": 68, "duration": 240, "velocity": 103}, {"time": 11280, "pitch": 72, "duration": 240, "velocity": 106}, {"time": 11520, "pitch": 50, "duration": 240, "velocity": 91}, {"time": 11520, "pitch": 62, "duration": 240, "velocity": 106}, {"time": 11520, "pitch": 66, "duration": 240, "velocity": 109}, {"time": 11520, "pitch": 69, "duration": 240, "velocity": 112}, {"time": 11520, "pitch": 73, "duration": 240, "velocity": 115}, {"time": 11760, "pitch": 51, "duration": 3350, "velocity": 97}, {"time": 11760, "pitch": 63, "duration": 3350, "velocity": 112}, {"time": 11760, "pitch": 67, "duration": 3350, "velocity": 115}, {"time": 11760, "pitch": 70, "duration": 3350, "velocity": 118}, {"time": 11760, "pitch": 74, "duration": 3350, "velocity": 121}, {"time": 15120, "pitch": 50, "duration": 230, "velocity": 71}, {"time": 15120, "pitch": 62, "duration": 230, "velocity": 86}, {"time": 15120, "pitch": 66, "duration": 230, "velocity": 89}, {"time": 15120, "pitch": 69, "duration": 230, "velocity": 92}, {"time": 15120, "pitch": 73, "duration": 230, "velocity": 95}, {"time": 15360, "pitch": 49, "duration": 230, "velocity": 86}, {"time": 15360, "pitch": 61, "duration": 230, "velocity": 101}, {"time": 15360, "pitch": 65, "duration": 230, "velocity": 104}, {"time": 15360, "pitch": 68, "duration": 230, "velocity": 107}, {"time": 15360, "pitch": 72, "duration": 230, "velocity": 110}, {"time": 15600, "pitch": 48, "duration": 180, "velocity": 82}, {"time": 15600, "pitch": 60, "duration": 180, "velocity": 97}, {"time": 15600, "pitch": 64, "duration": 180, "velocity": 100}, {"time": 15600, "pitch": 67, "duration": 180, "velocity": 103}, {"time": 15600, "pitch": 71, "duration": 180, "velocity": 106}, {"time": 150240, "pitch": 44, "duration": 6946, "velocity": 91}, {"time": 150240, "pitch": 56, "duration": 6946, "velocity": 106}, {"time": 150240, "pitch": 60, "duration": 6946, "velocity": 109}, {"time": 150240, "pitch": 63, "duration": 6946, "velocity": 112}, {"time": 150240, "pitch": 67, "duration": 6946, "velocity": 115}, {"time": 157200, "pitch": 45, "duration": 240, "velocity": 84}, {"time": 157200, "pitch": 57, "duration": 240, "velocity": 99}, {"time": 157200, "pitch": 61, "duration": 240, "velocity": 102}, {"time": 157200, "pitch": 64, "duration": 240, "velocity": 105}, {"time": 157200, "pitch": 68, "duration": 240, "velocity": 108}, {"time": 157440, "pitch": 46, "duration": 240, "velocity": 82}, {"time": 157440, "pitch": 58, "duration": 240, "velocity": 97}, {"time": 157440, "pitch": 62, "duration": 240, "velocity": 100}, {"time": 157440, "pitch": 65, "duration": 240, "velocity": 103}, {"time": 157440, "pitch": 69, "duration": 240, "velocity": 106}, {"time": 157680, "pitch": 47, "duration": 3330, "velocity": 88}, {"time": 157680, "pitch": 59, "duration": 3330, "velocity": 103}, {"time": 157680, "pitch": 63, "duration": 3330, "velocity": 106}, {"time": 157680, "pitch": 66, "duration": 3330, "velocity": 109}, {"time": 157680, "pitch": 70, "duration": 3330, "velocity": 112}, {"time": 161040, "pitch": 46, "duration": 230, "velocity": 82}, {"time": 161040, "pitch": 58, "duration": 230, "velocity": 97}, {"time": 161040, "pitch": 62, "duration": 230, "velocity": 100}, {"time": 161040, "pitch": 65, "duration": 230, "velocity": 103}, {"time": 161040, "pitch": 69, "duration": 230, "velocity": 106}, {"time": 161280, "pitch": 45, "duration": 220, "velocity": 89}, {"time": 161280, "pitch": 57, "duration": 220, "velocity": 104}, {"time": 161280, "pitch": 61, "duration": 220, "velocity": 107}, {"time": 161280, "pitch": 64, "duration": 220, "velocity": 110}, {"time": 161280, "pitch": 68, "duration": 220, "velocity": 113}, {"time": 161520, "pitch": 44, "duration": 3320, "velocity": 85}, {"time": 161520, "pitch": 56, "duration": 3320, "velocity": 100}, {"time": 161520, "pitch": 60, "duration": 3320, "velocity": 103}, {"time": 161520, "pitch": 63, "duration": 3320, "velocity": 106}, {"time": 161520, "pitch": 67, "duration": 3320, "velocity": 109}, {"time": 164880, "pitch": 45, "duration": 177, "velocity": 82}, {"time": 164880, "pitch": 57, "duration": 240, "velocity": 97}, {"time": 164880, "pitch": 61, "duration": 240, "velocity": 100}, {"time": 164880, "pitch": 64, "duration": 240, "velocity": 103}, {"time": 164880, "pitch": 68, "duration": 240, "velocity": 106}, {"time": 165120, "pitch": 46, "duration": 240, "velocity": 91}, {"time": 165120, "pitch": 58, "duration": 240, "velocity": 106}, {"time": 165120, "pitch": 62, "duration": 240, "velocity": 109}, {"time": 165120, "pitch": 65, "duration": 240, "velocity": 112}, {"time": 165120, "pitch": 69, "duration": 240, "velocity": 115}, {"time": 165360, "pitch": 47, "duration": 3350, "velocity": 97}, {"time": 165360, "pitch": 59, "duration": 3350, "velocity": 112}, {"time": 165360, "pitch": 63, "duration": 3350, "velocity": 115}, {"time": 165360, "pitch": 66, "duration": 3350, "velocity": 118}, {"time": 165360, "pitch": 70, "duration": 3350, "velocity": 121}, {"time": 168720, "pitch": 46, "duration": 230, "velocity": 71}, {"time": 168720, "pitch": 58, "duration": 230, "velocity": 86}, {"time": 168720, "pitch": 62, "duration": 230, "velocity": 89}, {"time": 168720, "pitch": 65, "duration": 230, "velocity": 92}, {"time": 168720, "pitch": 69, "duration": 230, "velocity": 95}, {"time": 168960, "pitch": 45, "duration": 230, "velocity": 86}, {"time": 168960, "pitch": 57, "duration": 230, "velocity": 101}, {"time": 168960, "pitch": 61, "duration": 230, "velocity": 104}, {"time": 168960, "pitch": 64, "duration": 230, "velocity": 107}, {"time": 168960, "pitch": 68, "duration": 230, "velocity": 110}, {"time": 169200, "pitch": 44, "duration": 180, "velocity": 82}, {"time": 169200, "pitch": 56, "duration": 180, "velocity": 97}, {"time": 169200, "pitch": 60, "duration": 180, "velocity": 100}, {"time": 169200, "pitch": 63, "duration": 180, "velocity": 103}, {"time": 169200, "pitch": 67, "duration": 180, "velocity": 106}, {"time": 173280, "pitch": 48, "duration": 1920, "velocity": 87}, {"time": 173280, "pitch": 55, "duration": 1920, "velocity": 100}, {"time": 173280, "pitch": 60, "duration": 1920, "velocity": 107}, {"time": 173280, "pitch": 64, "duration": 1920, "velocity": 110}, {"time": 175200, "pitch": 55, "duration": 1920, "velocity": 93}, {"time": 175200, "pitch": 58, "duration": 1920, "velocity": 110}, {"time": 175200, "pitch": 62, "duration": 1920, "velocity": 108}, {"time": 175200, "pitch": 65, "duration": 1920, "velocity": 108}, {"time": 177120, "pitch": 53, "duration": 1920, "velocity": 88}, {"time": 177120, "pitch": 57, "duration": 1920, "velocity": 96}, {"time": 177120, "pitch": 60, "duration": 1920, "velocity": 106}, {"time": 177120, "pitch": 64, "duration": 1920, "velocity": 101}, {"time": 179040, "pitch": 41, "duration": 960, "velocity": 77}, {"time": 179040, "pitch": 56, "duration": 960, "velocity": 101}, {"time": 179040, "pitch": 60, "duration": 960, "velocity": 102}, {"time": 179040, "pitch": 63, "duration": 960, "velocity": 101}, {"time": 179040, "pitch": 67, "duration": 960, "velocity": 97}, {"time": 180000, "pitch": 43, "duration": 960, "velocity": 87}, {"time": 180000, "pitch": 57, "duration": 960, "velocity": 108}, {"time": 180000, "pitch": 60, "duration": 960, "velocity": 109}, {"time": 180000, "pitch": 62, "duration": 960, "velocity": 112}, {"time": 180000, "pitch": 65, "duration": 960, "velocity": 99}, {"time": 180960, "pitch": 48, "duration": 1920, "velocity": 87}, {"time": 180960, "pitch": 55, "duration": 1920, "velocity": 100}, {"time": 180960, "pitch": 60, "duration": 1920, "velocity": 107}, {"time": 180960, "pitch": 64, "duration": 1920, "velocity": 110}, {"time": 182880, "pitch": 55, "duration": 1920, "velocity": 93}, {"time": 182880, "pitch": 58, "duration": 1920, "velocity": 110}, {"time": 182880, "pitch": 62, "duration": 1920, "velocity": 108}, {"time": 182880, "pitch": 65, "duration": 1920, "velocity": 108}, {"time": 184800, "pitch": 53, "duration": 1920, "velocity": 88}, {"time": 184800, "pitch": 57, "duration": 1920, "velocity": 96}, {"time": 184800, "pitch": 60, "duration": 1920, "velocity": 106}, {"time": 184800, "pitch": 64, "duration": 1920, "velocity": 101}, {"time": 186720, "pitch": 41, "duration": 960, "velocity": 73}, {"time": 186720, "pitch": 56, "duration": 960, "velocity": 101}, {"time": 186720, "pitch": 60, "duration": 960, "velocity": 100}, {"time": 186720, "pitch": 63, "duration": 960, "velocity": 101}, {"time": 186720, "pitch": 67, "duration": 960, "velocity": 97}, {"time": 187680, "pitch": 43, "duration": 960, "velocity": 78}, {"time": 187680, "pitch": 57, "duration": 960, "velocity": 108}, {"time": 187680, "pitch": 60, "duration": 960, "velocity": 109}, {"time": 187680, "pitch": 62, "duration": 960, "velocity": 112}, {"time": 187680, "pitch": 65, "duration": 960, "velocity": 99}, {"time": 188640, "pitch": 48, "duration": 1920, "velocity": 87}, {"time": 188640, "pitch": 55, "duration": 1920, "velocity": 100}, {"time": 188640, "pitch": 60, "duration": 1920, "velocity": 107}, {"time": 188640, "pitch": 64, "duration": 1920, "velocity": 110}, {"time": 190560, "pitch": 55, "duration": 1920, "velocity": 93}, {"time": 190560, "pitch": 58, "duration": 1920, "velocity": 110}, {"time": 190560, "pitch": 62, "duration": 1920, "velocity": 108}, {"time": 190560, "pitch": 65, "duration": 1920, "velocity": 108}, {"time": 192480, "pitch": 53, "duration": 1920, "velocity": 88}, {"time": 192480, "pitch": 57, "duration": 1920, "velocity": 96}, {"time": 192480, "pitch": 60, "duration": 1920, "velocity": 106}, {"time": 192480, "pitch": 64, "duration": 1920, "velocity": 101}, {"time": 194400, "pitch": 41, "duration": 960, "velocity": 76}, {"time": 194400, "pitch": 56, "duration": 960, "velocity": 101}, {"time": 194400, "pitch": 60, "duration": 960, "velocity": 103}, {"time": 194400, "pitch": 63, "duration": 960, "velocity": 101}, {"time": 194400, "pitch": 67, "duration": 960, "velocity": 97}, {"time": 195360, "pitch": 43, "duration": 960, "velocity": 75}, {"time": 195360, "pitch": 57, "duration": 960, "velocity": 108}, {"time": 195360, "pitch": 60, "duration": 960, "velocity": 109}, {"time": 195360, "pitch": 62, "duration": 960, "velocity": 98}, {"time": 195360, "pitch": 65, "duration": 960, "velocity": 99}, {"time": 196320, "pitch": 48, "duration": 1920, "velocity": 87}, {"time": 196320, "pitch": 55, "duration": 1920, "velocity": 100}, {"time": 196320, "pitch": 60, "duration": 1920, "velocity": 107}, {"time": 196320, "pitch": 64, "duration": 1920, "velocity": 110}, {"time": 198240, "pitch": 55, "duration": 1920, "velocity": 93}, {"time": 198240, "pitch": 58, "duration": 1920, "velocity": 110}, {"time": 198240, "pitch": 62, "duration": 1920, "velocity": 108}, {"time": 198240, "pitch": 65, "duration": 1920, "velocity": 108}, {"time": 200160, "pitch": 53, "duration": 1920, "velocity": 88}, {"time": 200160, "pitch": 57, "duration": 1920, "velocity": 96}, {"time": 200160, "pitch": 60, "duration": 1920, "velocity": 106}, {"time": 200160, "pitch": 64, "duration": 1920, "velocity": 101}, {"time": 202080, "pitch": 41, "duration": 960, "velocity": 77}, {"time": 202080, "pitch": 56, "duration": 960, "velocity": 101}, {"time": 202080, "pitch": 60, "duration": 960, "velocity": 115}, {"time": 202080, "pitch": 63, "duration": 960, "velocity": 101}, {"time": 202080, "pitch": 67, "duration": 960, "velocity": 97}, {"time": 203040, "pitch": 43, "duration": 960, "velocity": 75}, {"time": 203040, "pitch": 57, "duration": 960, "velocity": 108}, {"time": 203040, "pitch": 60, "duration": 960, "velocity": 109}, {"time": 203040, "pitch": 62, "duration": 960, "velocity": 112}, {"time": 203040, "pitch": 65, "duration": 960, "velocity": 99}, {"time": 204000, "pitch": 48, "duration": 1920, "velocity": 87}, {"time": 204000, "pitch": 55, "duration": 1920, "velocity": 100}, {"time": 204000, "pitch": 60, "duration": 1920, "velocity": 107}, {"time": 204000, "pitch": 64, "duration": 1920, "velocity": 110}, {"time": 205920, "pitch": 55, "duration": 1920, "velocity": 93}, {"time": 205920, "pitch": 58, "duration": 1920, "velocity": 110}, {"time": 205920, "pitch": 62, "duration": 1920, "velocity": 108}, {"time": 205920, "pitch": 65, "duration": 1920, "velocity": 108}, {"time": 207840, "pitch": 53, "duration": 1920, "velocity": 88}, {"time": 207840, "pitch": 57, "duration": 1920, "velocity": 96}, {"time": 207840, "pitch": 60, "duration": 1920, "velocity": 106}, {"time": 207840, "pitch": 64, "duration": 1920, "velocity": 101}, {"time": 209760, "pitch": 41, "duration": 960, "velocity": 77}, {"time": 209760, "pitch": 56, "duration": 960, "velocity": 101}, {"time": 209760, "pitch": 60, "duration": 960, "velocity": 102}, {"time": 209760, "pitch": 63, "duration": 960, "velocity": 101}, {"time": 209760, "pitch": 67, "duration": 960, "velocity": 97}, {"time": 210720, "pitch": 43, "duration": 960, "velocity": 87}, {"time": 210720, "pitch": 57, "duration": 960, "velocity": 108}, {"time": 210720, "pitch": 60, "duration": 960, "velocity": 109}, {"time": 210720, "pitch": 62, "duration": 960, "velocity": 112}, {"time": 210720, "pitch": 65, "duration": 960, "velocity": 99}, {"time": 211680, "pitch": 48, "duration": 1920, "velocity": 87}, {"time": 211680, "pitch": 55, "duration": 1920, "velocity": 100}, {"time": 211680, "pitch": 60, "duration": 1920, "velocity": 107}, {"time": 211680, "pitch": 64, "duration": 1920, "velocity": 110}, {"time": 213600, "pitch": 55, "duration": 1920, "velocity": 93}, {"time": 213600, "pitch": 58, "duration": 1920, "velocity": 110}, {"time": 213600, "pitch": 62, "duration": 1920, "velocity": 108}, {"time": 213600, "pitch": 65, "duration": 1920, "velocity": 108}, {"time": 215520, "pitch": 53, "duration": 1920, "velocity": 88}, {"time": 215520, "pitch": 57, "duration": 1920, "velocity": 96}, {"time": 215520, "pitch": 60, "duration": 1920, "velocity": 106}, {"time": 215520, "pitch": 64, "duration": 1920, "velocity": 101}, {"time": 217440, "pitch": 41, "duration": 960, "velocity": 73}, {"time": 217440, "pitch": 56, "duration": 960, "velocity": 101}, {"time": 217440, "pitch": 60, "duration": 960, "velocity": 100}, {"time": 217440, "pitch": 63, "duration": 960, "velocity": 101}, {"time": 217440, "pitch": 67, "duration": 960, "velocity": 97}, {"time": 218400, "pitch": 43, "duration": 960, "velocity": 78}, {"time": 218400, "pitch": 57, "duration": 960, "velocity": 108}, {"time": 218400, "pitch": 60, "duration": 960, "velocity": 109}, {"time": 218400, "pitch": 62, "duration": 960, "velocity": 112}, {"time": 218400, "pitch": 65, "duration": 960, "velocity": 99}, {"time": 219360, "pitch": 48, "duration": 1920, "velocity": 87}, {"time": 219360, "pitch": 55, "duration": 1920, "velocity": 100}, {"time": 219360, "pitch": 60, "duration": 1920, "velocity": 107}, {"time": 219360, "pitch": 64, "duration": 1920, "velocity": 110}, {"time": 221280, "pitch": 55, "duration": 1920, "velocity": 93}, {"time": 221280, "pitch": 58, "duration": 1920, "velocity": 110}, {"time": 221280, "pitch": 62, "duration": 1920, "velocity": 108}, {"time": 221280, "pitch": 65, "duration": 1920, "velocity": 108}, {"time": 223200, "pitch": 53, "duration": 1920, "velocity": 88}, {"time": 223200, "pitch": 57, "duration": 1920, "velocity": 96}, {"time": 223200, "pitch": 60, "duration": 1920, "velocity": 106}, {"time": 223200, "pitch": 64, "duration": 1920, "velocity": 101}, {"time": 225120, "pitch": 41, "duration": 960, "velocity": 76}, {"time": 225120, "pitch": 56, "duration": 960, "velocity": 101}, {"time": 225120, "pitch": 60, "duration": 960, "velocity": 103}, {"time": 225120, "pitch": 63, "duration": 960, "velocity": 101}, {"time": 225120, "pitch": 67, "duration": 960, "velocity": 97}, {"time": 226080, "pitch": 43, "duration": 960, "velocity": 75}, {"time": 226080, "pitch": 57, "duration": 960, "velocity": 108}, {"time": 226080, "pitch": 60, "duration": 960, "velocity": 109}, {"time": 226080, "pitch": 62, "duration": 960, "velocity": 98}, {"time": 226080, "pitch": 65, "duration": 960, "velocity": 99}, {"time": 227040, "pitch": 48, "duration": 1920, "velocity": 87}, {"time": 227040, "pitch": 55, "duration": 1920, "velocity": 100}, {"time": 227040, "pitch": 60, "duration": 1920, "velocity": 107}, {"time": 227040, "pitch": 64, "duration": 1920, "velocity": 110}, {"time": 228960, "pitch": 55, "duration": 1920, "velocity": 93}, {"time": 228960, "pitch": 58, "duration": 1920, "velocity": 110}, {"time": 228960, "pitch": 62, "duration": 1920, "velocity": 108}, {"time": 228960, "pitch": 65, "duration": 1920, "velocity": 108}, {"time": 230880, "pitch": 53, "duration": 1920, "velocity": 88}, {"time": 230880, "pitch": 57, "duration": 1920, "velocity": 96}, {"time": 230880, "pitch": 60, "duration": 1920, "velocity": 106}, {"time": 230880, "pitch": 64, "duration": 1920, "velocity": 101}, {"time": 232800, "pitch": 41, "duration": 960, "velocity": 77}, {"time": 232800, "pitch": 56, "duration": 960, "velocity": 101}, {"time": 232800, "pitch": 60, "duration": 960, "velocity": 115}, {"time": 232800, "pitch": 63, "duration": 960, "velocity": 101}, {"time": 232800, "pitch": 67, "duration": 960, "velocity": 97}, {"time": 233760, "pitch": 43, "duration": 960, "velocity": 75}, {"time": 233760, "pitch": 57, "duration": 960, "velocity": 108}, {"time": 233760, "pitch": 60, "duration": 960, "velocity": 109}, {"time": 233760, "pitch": 62, "duration": 960, "velocity": 112}, {"time": 233760, "pitch": 65, "duration": 960, "velocity": 99}, {"time": 234720, "pitch": 36, "duration": 220, "velocity": 87}, {"time": 234720, "pitch": 48, "duration": 220, "velocity": 87}, {"time": 234720, "pitch": 64, "duration": 220, "velocity": 95}, {"time": 234720, "pitch": 67, "duration": 240, "velocity": 94}, {"time": 234720, "pitch": 72, "duration": 230, "velocity": 99}, {"time": 234960, "pitch": 36, "duration": 100, "velocity": 93}, {"time": 234960, "pitch": 48, "duration": 100, "velocity": 93}, {"time": 234960, "pitch": 64, "duration": 90, "velocity": 100}, {"time": 234960, "pitch": 67, "duration": 100, "velocity": 93}, {"time": 234960, "pitch": 72, "duration": 100, "velocity": 107}, {"time": 235440, "pitch": 41, "duration": 390, "velocity": 87}, {"time": 235440, "pitch": 65, "duration": 380, "velocity": 99}, {"time": 235440, "pitch": 68, "duration": 370, "velocity": 117}, {"time": 235440, "pitch": 75, "duration": 380, "velocity": 103}, {"time": 235920, "pitch": 43, "duration": 440, "velocity": 87}, {"time": 235920, "pitch": 65, "duration": 400, "velocity": 96}, {"time": 235920, "pitch": 68, "duration": 380, "velocity": 100}, {"time": 235920, "pitch": 74, "duration": 410, "velocity": 97}, {"time": 236400, "pitch": 46, "duration": 160, "velocity": 87}, {"time": 236400, "pitch": 65, "duration": 160, "velocity": 97}, {"time": 236400, "pitch": 68, "duration": 160, "velocity": 108}, {"time": 236400, "pitch": 72, "duration": 150, "velocity": 105}, {"time": 236640, "pitch": 36, "duration": 220, "velocity": 87}, {"time": 236640, "pitch": 48, "duration": 220, "velocity": 87}, {"time": 236640, "pitch": 64, "duration": 220, "velocity": 108}, {"time": 236640, "pitch": 67, "duration": 240, "velocity": 98}, {"time": 236640, "pitch": 72, "duration": 230, "velocity": 105}, {"time": 236880, "pitch": 36, "duration": 100, "velocity": 87}, {"time": 236880, "pitch": 48, "duration": 100, "velocity": 87}, {"time": 236880, "pitch": 64, "duration": 90, "velocity": 81}, {"time": 236880, "pitch": 67, "duration": 100, "velocity": 93}, {"time": 236880, "pitch": 72, "duration": 100, "velocity": 107}, {"time": 237360, "pitch": 41, "duration": 390, "velocity": 87}, {"time": 237360, "pitch": 65, "duration": 380, "velocity": 99}, {"time": 237360, "pitch": 68, "duration": 370, "velocity": 105}, {"time": 237360, "pitch": 75, "duration": 380, "velocity": 117}, {"time": 237840, "pitch": 43, "duration": 440, "velocity": 87}, {"time": 237840, "pitch": 65, "duration": 400, "velocity": 96}, {"time": 237840, "pitch": 68, "duration": 380, "velocity": 108}, {"time": 237840, "pitch": 74, "duration": 410, "velocity": 115}, {"time": 238320, "pitch": 46, "duration": 160, "velocity": 87}, {"time": 238320, "pitch": 65, "duration": 160, "velocity": 97}, {"time": 238320, "pitch": 68, "duration": 160, "velocity": 117}, {"time": 238320, "pitch": 72, "duration": 150, "velocity": 112}, {"time": 238560, "pitch": 36, "duration": 220, "velocity": 87}, {"time": 238560, "pitch": 48, "duration": 220, "velocity": 87}, {"time": 238560, "pitch": 64, "duration": 220, "velocity": 108}, {"time": 238560, "pitch": 67, "duration": 240, "velocity": 98}, {"time": 238560, "pitch": 72, "duration": 230, "velocity": 105}, {"time": 238800, "pitch": 36, "duration": 100, "velocity": 87}, {"time": 238800, "pitch": 48, "duration": 100, "velocity": 87}, {"time": 238800, "pitch": 64, "duration": 90, "velocity": 81}, {"time": 238800, "pitch": 67, "duration": 100, "velocity": 93}, {"time": 238800, "pitch": 72, "duration": 100, "velocity": 107}, {"time": 239280, "pitch": 41, "duration": 80, "velocity": 98}, {"time": 239280, "pitch": 65, "duration": 80, "velocity": 110}, {"time": 239280, "pitch": 68, "duration": 80, "velocity": 105}, {"time": 239280, "pitch": 75, "duration": 80, "velocity": 117}, {"time": 239760, "pitch": 43, "duration": 80, "velocity": 87}, {"time": 239760, "pitch": 65, "duration": 80, "velocity": 110}, {"time": 239760, "pitch": 68, "duration": 80, "velocity": 108}, {"time": 239760, "pitch": 74, "duration": 80, "velocity": 115}, {"time": 240240, "pitch": 46, "duration": 160, "velocity": 87}, {"time": 240240, "pitch": 65, "duration": 160, "velocity": 110}, {"time": 240240, "pitch": 68, "duration": 160, "velocity": 117}, {"time": 240240, "pitch": 72, "duration": 150, "velocity": 112}, {"time": 240480, "pitch": 36, "duration": 220, "velocity": 87}, {"time": 240480, "pitch": 48, "duration": 220, "velocity": 87}, {"time": 240480, "pitch": 64, "duration": 220, "velocity": 108}, {"time": 240480, "pitch": 67, "duration": 240, "velocity": 98}, {"time": 240480, "pitch": 72, "duration": 230, "velocity": 105}, {"time": 240720, "pitch": 36, "duration": 100, "velocity": 87}, {"time": 240720, "pitch": 48, "duration": 100, "velocity": 87}, {"time": 240720, "pitch": 64, "duration": 90, "velocity": 81}, {"time": 240720, "pitch": 67, "duration": 100, "velocity": 93}, {"time": 240720, "pitch": 72, "duration": 100, "velocity": 107}, {"time": 241200, "pitch": 41, "duration": 80, "velocity": 87}, {"time": 241200, "pitch": 65, "duration": 80, "velocity": 99}, {"time": 241200, "pitch": 68, "duration": 80, "velocity": 105}, {"time": 241200, "pitch": 75, "duration": 80, "velocity": 117}, {"time": 241680, "pitch": 43, "duration": 80, "velocity": 87}, {"time": 241680, "pitch": 65, "duration": 80, "velocity": 96}, {"time": 241680, "pitch": 68, "duration": 80, "velocity": 108}, {"time": 241680, "pitch": 74, "duration": 80, "velocity": 115}, {"time": 242160, "pitch": 46, "duration": 160, "velocity": 87}, {"time": 242160, "pitch": 65, "duration": 160, "velocity": 97}, {"time": 242160, "pitch": 68, "duration": 160, "velocity": 117}, {"time": 242160, "pitch": 72, "duration": 150, "velocity": 112}, {"time": 242400, "pitch": 36, "duration": 220, "velocity": 87}, {"time": 242400, "pitch": 48, "duration": 220, "velocity": 87}, {"time": 242400, "pitch": 64, "duration": 220, "velocity": 108}, {"time": 242400, "pitch": 67, "duration": 240, "velocity": 98}, {"time": 242400, "pitch": 72, "duration": 230, "velocity": 105}, {"time": 242640, "pitch": 36, "duration": 100, "velocity": 87}, {"time": 242640, "pitch": 48, "duration": 100, "velocity": 87}, {"time": 242640, "pitch": 64, "duration": 90, "velocity": 81}, {"time": 242640, "pitch": 67, "duration": 100, "velocity": 93}, {"time": 242640, "pitch": 72, "duration": 100, "velocity": 107}], "annotations": [{"time": 336, "annotation": {"number": 7, "value": 40}, "group": "control_change"}, {"time": 352, "annotation": {"number": 11, "value": 127}, "group": "control_change"}, {"time": 368, "annotation": {"number": 10, "value": 60}, "group": "control_change"}, {"time": 384, "annotation": {"number": 91, "value": 46}, "group": "control_change"}, {"time": 400, "annotation": {"number": 93, "value": 40}, "group": "control_change"}, {"time": 416, "annotation": {"number": 101, "value": 0}, "group": "control_change"}, {"time": 432, "annotation": {"number": 100, "value": 0}, "group": "control_change"}, {"time": 448, "annotation": {"number": 6, "value": 12}, "group": "control_change"}, {"time": 464, "annotation": {"number": 101, "value": 127}, "group": "control_change"}, {"time": 480, "annotation": {"number": 100, "value": 127}, "group": "control_change"}]}, {"program": 0, "is_drum": false, "name": "SAX / SEQ-SYNTH", "annotations": [{"time": 288, "annotation": {"number": 0, "value": 0}, "group": "control_change"}, {"time": 304, "annotation": {"number": 32, "value": 2}, "group": "control_change"}]}, {"program": 103, "is_drum": false, "name": "SAX / SEQ-SYNTH", "notes": [{"time": 480, "pitch": 59, "duration": 80, "velocity": 95}, {"time": 560, "pitch": 60, "duration": 80, "velocity": 75}, {"time": 640, "pitch": 64, "duration": 80, "velocity": 96}, {"time": 720, "pitch": 67, "duration": 80, "velocity": 73}, {"time": 800, "pitch": 71, "duration": 80, "velocity": 80}, {"time": 880, "pitch": 72, "duration": 80, "velocity": 82}, {"time": 960, "pitch": 76, "duration": 80, "velocity": 96}, {"time": 1040, "pitch": 79, "duration": 80, "velocity": 85}, {"time": 1120, "pitch": 83, "duration": 80, "velocity": 90}, {"time": 1200, "pitch": 84, "duration": 80, "velocity": 78}, {"time": 1280, "pitch": 88, "duration": 80, "velocity": 85}, {"time": 1360, "pitch": 91, "duration": 80, "velocity": 82}, {"time": 1440, "pitch": 95, "duration": 80, "velocity": 87}, {"time": 1520, "pitch": 96, "duration": 80, "velocity": 89}, {"time": 1600, "pitch": 95, "duration": 80, "velocity": 83}, {"time": 1680, "pitch": 91, "duration": 80, "velocity": 72}, {"time": 1760, "pitch": 88, "duration": 80, "velocity": 87}, {"time": 1840, "pitch": 84, "duration": 80, "velocity": 86}, {"time": 1920, "pitch": 83, "duration": 80, "velocity": 77}, {"time": 2000, "pitch": 79, "duration": 80, "velocity": 72}, {"time": 2080, "pitch": 76, "duration": 80, "velocity": 74}, {"time": 2160, "pitch": 72, "duration": 80, "velocity": 94}, {"time": 2240, "pitch": 71, "duration": 80, "velocity": 93}, {"time": 2320, "pitch": 67, "duration": 80, "velocity": 89}, {"time": 2400, "pitch": 64, "duration": 80, "velocity": 85}, {"time": 2480, "pitch": 60, "duration": 80, "velocity": 75}, {"time": 2560, "pitch": 59, "duration": 80, "velocity": 90}, {"time": 2640, "pitch": 60, "duration": 80, "velocity": 72}, {"time": 2720, "pitch": 64, "duration": 80, "velocity": 88}, {"time": 2800, "pitch": 67, "duration": 80, "velocity": 74}, {"time": 2880, "pitch": 71, "duration": 80, "velocity": 96}, {"time": 2960, "pitch": 72, "duration": 80, "velocity": 79}, {"time": 3040, "pitch": 76, "duration": 80, "velocity": 97}, {"time": 3120, "pitch": 79, "duration": 80, "velocity": 79}, {"time": 3200, "pitch": 83, "duration": 80, "velocity": 81}, {"time": 3280, "pitch": 84, "duration": 80, "velocity": 77}, {"time": 3360, "pitch": 88, "duration": 80, "velocity": 78}, {"time": 3440, "pitch": 91, "duration": 80, "velocity": 95}, {"time": 3520, "pitch": 95, "duration": 80, "velocity": 95}, {"time": 3600, "pitch": 96, "duration": 80, "velocity": 74}, {"time": 3680, "pitch": 95, "duration": 80, "velocity": 76}, {"time": 3760, "pitch": 91, "duration": 80, "velocity": 92}, {"time": 3840, "pitch": 88, "duration": 80, "velocity": 77}, {"time": 3920, "pitch": 84, "duration": 80, "velocity": 72}, {"time": 4000, "pitch": 83, "duration": 80, "velocity": 74}, {"time": 4080, "pitch": 79, "duration": 80, "velocity": 80}, {"time": 4160, "pitch": 76, "duration": 80, "velocity": 73}, {"time": 4240, "pitch": 72, "duration": 80, "velocity": 76}, {"time": 4320, "pitch": 62, "duration": 80, "velocity": 75}, {"time": 4400, "pitch": 63, "duration": 80, "velocity": 95}, {"time": 4480, "pitch": 67, "duration": 80, "velocity": 77}, {"time": 4560, "pitch": 70, "duration": 80, "velocity": 88}, {"time": 4640, "pitch": 74, "duration": 80, "velocity": 95}, {"time": 4720, "pitch": 75, "duration": 80, "velocity": 95}, {"time": 4800, "pitch": 79, "duration": 80, "velocity": 75}, {"time": 4880, "pitch": 82, "duration": 80, "velocity": 86}, {"time": 4960, "pitch": 86, "duration": 80, "velocity": 96}, {"time": 5040, "pitch": 87, "duration": 80, "velocity": 87}, {"time": 5120, "pitch": 91, "duration": 80, "velocity": 78}, {"time": 5200, "pitch": 94, "duration": 80, "velocity": 81}, {"time": 5280, "pitch": 98, "duration": 80, "velocity": 92}, {"time": 5360, "pitch": 99, "duration": 80, "velocity": 73}, {"time": 5440, "pitch": 98, "duration": 80, "velocity": 87}, {"time": 5520, "pitch": 94, "duration": 80, "velocity": 77}, {"time": 5600, "pitch": 91, "duration": 80, "velocity": 88}, {"time": 5680, "pitch": 87, "duration": 80, "velocity": 87}, {"time": 5760, "pitch": 86, "duration": 80, "velocity": 83}, {"time": 5840, "pitch": 82, "duration": 80, "velocity": 82}, {"time": 5920, "pitch": 79, "duration": 80, "velocity": 87}, {"time": 6000, "pitch": 75, "duration": 80, "velocity": 96}, {"time": 6080, "pitch": 74, "duration": 80, "velocity": 82}, {"time": 6160, "pitch": 70, "duration": 80, "velocity": 76}, {"time": 6240, "pitch": 67, "duration": 80, "velocity": 86}, {"time": 6320, "pitch": 63, "duration": 80, "velocity": 88}, {"time": 6400, "pitch": 62, "duration": 80, "velocity": 73}, {"time": 6480, "pitch": 63, "duration": 80, "velocity": 78}, {"time": 6560, "pitch": 67, "duration": 80, "velocity": 95}, {"time": 6640, "pitch": 70, "duration": 80, "velocity": 90}, {"time": 6720, "pitch": 74, "duration": 80, "velocity": 82}, {"time": 6800, "pitch": 75, "duration": 80, "velocity": 95}, {"time": 6880, "pitch": 79, "duration": 80, "velocity": 82}, {"time": 6960, "pitch": 82, "duration": 80, "velocity": 81}, {"time": 7040, "pitch": 86, "duration": 80, "velocity": 91}, {"time": 7120, "pitch": 87, "duration": 80, "velocity": 91}, {"time": 7200, "pitch": 91, "duration": 80, "velocity": 77}, {"time": 7280, "pitch": 94, "duration": 80, "velocity": 89}, {"time": 7360, "pitch": 98, "duration": 80, "velocity": 81}, {"time": 7440, "pitch": 99, "duration": 80, "velocity": 74}, {"time": 7520, "pitch": 98, "duration": 80, "velocity": 77}, {"time": 7600, "pitch": 94, "duration": 80, "velocity": 89}, {"time": 7680, "pitch": 91, "duration": 80, "velocity": 89}, {"time": 7760, "pitch": 87, "duration": 80, "velocity": 74}, {"time": 7840, "pitch": 86, "duration": 80, "velocity": 72}, {"time": 7920, "pitch": 82, "duration": 80, "velocity": 79}, {"time": 8000, "pitch": 79, "duration": 80, "velocity": 75}, {"time": 8080, "pitch": 75, "duration": 80, "velocity": 73}, {"time": 8160, "pitch": 59, "duration": 80, "velocity": 95}, {"time": 8240, "pitch": 60, "duration": 80, "velocity": 75}, {"time": 8320, "pitch": 64, "duration": 80, "velocity": 96}, {"time": 8400, "pitch": 67, "duration": 80, "velocity": 73}, {"time": 8480, "pitch": 71, "duration": 80, "velocity": 80}, {"time": 8560, "pitch": 72, "duration": 80, "velocity": 82}, {"time": 8640, "pitch": 76, "duration": 80, "velocity": 96}, {"time": 8720, "pitch": 79, "duration": 80, "velocity": 85}, {"time": 8800, "pitch": 83, "duration": 80, "velocity": 90}, {"time": 8880, "pitch": 84, "duration": 80, "velocity": 78}, {"time": 8960, "pitch": 88, "duration": 80, "velocity": 85}, {"time": 9040, "pitch": 91, "duration": 80, "velocity": 82}, {"time": 9120, "pitch": 95, "duration": 80, "velocity": 87}, {"time": 9200, "pitch": 96, "duration": 80, "velocity": 89}, {"time": 9280, "pitch": 95, "duration": 80, "velocity": 83}, {"time": 9360, "pitch": 91, "duration": 80, "velocity": 72}, {"time": 9440, "pitch": 88, "duration": 80, "velocity": 87}, {"time": 9520, "pitch": 84, "duration": 80, "velocity": 86}, {"time": 9600, "pitch": 83, "duration": 80, "velocity": 77}, {"time": 9680, "pitch": 79, "duration": 80, "velocity": 72}, {"time": 9760, "pitch": 76, "duration": 80, "velocity": 74}, {"time": 9840, "pitch": 72, "duration": 80, "velocity": 94}, {"time": 9920, "pitch": 71, "duration": 80, "velocity": 93}, {"time": 10000, "pitch": 67, "duration": 80, "velocity": 89}, {"time": 10080, "pitch": 64, "duration": 80, "velocity": 85}, {"time": 10160, "pitch": 60, "duration": 80, "velocity": 75}, {"time": 10240, "pitch": 59, "duration": 80, "velocity": 90}, {"time": 10320, "pitch": 60, "duration": 80, "velocity": 72}, {"time": 10400, "pitch": 64, "duration": 80, "velocity": 88}, {"time": 10480, "pitch": 67, "duration": 80, "velocity": 74}, {"time": 10560, "pitch": 71, "duration": 80, "velocity": 96}, {"time": 10640, "pitch": 72, "duration": 80, "velocity": 79}, {"time": 10720, "pitch": 76, "duration": 80, "velocity": 97}, {"time": 10800, "pitch": 79, "duration": 80, "velocity": 79}, {"time": 10880, "pitch": 83, "duration": 80, "velocity": 81}, {"time": 10960, "pitch": 84, "duration": 80, "velocity": 77}, {"time": 11040, "pitch": 88, "duration": 80, "velocity": 78}, {"time": 11120, "pitch": 91, "duration": 80, "velocity": 95}, {"time": 11200, "pitch": 95, "duration": 80, "velocity": 95}, {"time": 11280, "pitch": 96, "duration": 80, "velocity": 74}, {"time": 11360, "pitch": 95, "duration": 80, "velocity": 76}, {"time": 11440, "pitch": 91, "duration": 80, "velocity": 92}, {"time": 11520, "pitch": 88, "duration": 80, "velocity": 77}, {"time": 11600, "pitch": 84, "duration": 80, "velocity": 72}, {"time": 11680, "pitch": 83, "duration": 80, "velocity": 74}, {"time": 11760, "pitch": 79, "duration": 80, "velocity": 80}, {"time": 11840, "pitch": 76, "duration": 80, "velocity": 73}, {"time": 11920, "pitch": 72, "duration": 80, "velocity": 76}, {"time": 12000, "pitch": 62, "duration": 80, "velocity": 75}, {"time": 12080, "pitch": 63, "duration": 80, "velocity": 95}, {"time": 12160, "pitch": 67, "duration": 80, "velocity": 77}, {"time": 12240, "pitch": 70, "duration": 80, "velocity": 88}, {"time": 12320, "pitch": 74, "duration": 80, "velocity": 95}, {"time": 12400, "pitch": 75, "duration": 80, "velocity": 95}, {"time": 12480, "pitch": 79, "duration": 80, "velocity": 75}, {"time": 12560, "pitch": 82, "duration": 80, "velocity": 86}, {"time": 12640, "pitch": 86, "duration": 80, "velocity": 96}, {"time": 12720, "pitch": 87, "duration": 80, "velocity": 87}, {"time": 12800, "pitch": 91, "duration": 80, "velocity": 78}, {"time": 12880, "pitch": 94, "duration": 80, "velocity": 81}, {"time": 12960, "pitch": 98, "duration": 80, "velocity": 92}, {"time": 13040, "pitch": 99, "duration": 80, "velocity": 73}, {"time": 13120, "pitch": 98, "duration": 80, "velocity": 87}, {"time": 13200, "pitch": 94, "duration": 80, "velocity": 77}, {"time": 13280, "pitch": 91, "duration": 80, "velocity": 88}, {"time": 13360, "pitch": 87, "duration": 80, "velocity": 87}, {"time": 13440, "pitch": 86, "duration": 80, "velocity": 83}, {"time": 13520, "pitch": 82, "duration": 80, "velocity": 82}, {"time": 13600, "pitch": 79, "duration": 80, "velocity": 87}, {"time": 13680, "pitch": 75, "duration": 80, "velocity": 96}, {"time": 13760, "pitch": 74, "duration": 80, "velocity": 82}, {"time": 13840, "pitch": 70, "duration": 80, "velocity": 76}, {"time": 13920, "pitch": 67, "duration": 80, "velocity": 86}, {"time": 14000, "pitch": 63, "duration": 80, "velocity": 88}, {"time": 14080, "pitch": 62, "duration": 80, "velocity": 73}, {"time": 14160, "pitch": 63, "duration": 80, "velocity": 78}, {"time": 14240, "pitch": 67, "duration": 80, "velocity": 95}, {"time": 14320, "pitch": 70, "duration": 80, "velocity": 90}, {"time": 14400, "pitch": 74, "duration": 80, "velocity": 82}, {"time": 14480, "pitch": 75, "duration": 80, "velocity": 95}, {"time": 14560, "pitch": 79, "duration": 80, "velocity": 82}, {"time": 14640, "pitch": 82, "duration": 80, "velocity": 81}, {"time": 14720, "pitch": 86, "duration": 80, "velocity": 91}, {"time": 14800, "pitch": 87, "duration": 80, "velocity": 91}, {"time": 14880, "pitch": 91, "duration": 80, "velocity": 77}, {"time": 14960, "pitch": 94, "duration": 80, "velocity": 89}, {"time": 15040, "pitch": 98, "duration": 80, "velocity": 81}, {"time": 15120, "pitch": 99, "duration": 80, "velocity": 74}, {"time": 15200, "pitch": 98, "duration": 80, "velocity": 77}, {"time": 15280, "pitch": 94, "duration": 80, "velocity": 89}, {"time": 15360, "pitch": 91, "duration": 80, "velocity": 89}, {"time": 15440, "pitch": 87, "duration": 80, "velocity": 74}, {"time": 15520, "pitch": 86, "duration": 80, "velocity": 72}, {"time": 15600, "pitch": 82, "duration": 80, "velocity": 79}, {"time": 15680, "pitch": 79, "duration": 80, "velocity": 75}, {"time": 150320, "pitch": 55, "duration": 80, "velocity": 95}, {"time": 150320, "pitch": 56, "duration": 80, "velocity": 75}, {"time": 150400, "pitch": 60, "duration": 80, "velocity": 96}, {"time": 150480, "pitch": 63, "duration": 80, "velocity": 73}, {"time": 150560, "pitch": 67, "duration": 80, "velocity": 80}, {"time": 150640, "pitch": 68, "duration": 80, "velocity": 82}, {"time": 150720, "pitch": 72, "duration": 80, "velocity": 96}, {"time": 150800, "pitch": 75, "duration": 80, "velocity": 85}, {"time": 150880, "pitch": 79, "duration": 80, "velocity": 90}, {"time": 150960, "pitch": 80, "duration": 80, "velocity": 78}, {"time": 151040, "pitch": 84, "duration": 80, "velocity": 85}, {"time": 151120, "pitch": 87, "duration": 80, "velocity": 82}, {"time": 151200, "pitch": 91, "duration": 80, "velocity": 87}, {"time": 151280, "pitch": 92, "duration": 80, "velocity": 89}, {"time": 151360, "pitch": 91, "duration": 80, "velocity": 83}, {"time": 151440, "pitch": 87, "duration": 80, "velocity": 72}, {"time": 151520, "pitch": 84, "duration": 80, "velocity": 87}, {"time": 151600, "pitch": 80, "duration": 80, "velocity": 86}, {"time": 151680, "pitch": 79, "duration": 80, "velocity": 77}, {"time": 151760, "pitch": 75, "duration": 80, "velocity": 72}, {"time": 151840, "pitch": 72, "duration": 80, "velocity": 74}, {"time": 151920, "pitch": 68, "duration": 80, "velocity": 94}, {"time": 152000, "pitch": 67, "duration": 80, "velocity": 93}, {"time": 152080, "pitch": 63, "duration": 80, "velocity": 89}, {"time": 152160, "pitch": 55, "duration": 80, "velocity": 95}, {"time": 152240, "pitch": 56, "duration": 80, "velocity": 75}, {"time": 152320, "pitch": 60, "duration": 80, "velocity": 96}, {"time": 152400, "pitch": 63, "duration": 80, "velocity": 73}, {"time": 152480, "pitch": 67, "duration": 80, "velocity": 80}, {"time": 152560, "pitch": 68, "duration": 80, "velocity": 82}, {"time": 152640, "pitch": 72, "duration": 80, "velocity": 96}, {"time": 152720, "pitch": 75, "duration": 80, "velocity": 85}, {"time": 152800, "pitch": 79, "duration": 80, "velocity": 90}, {"time": 152880, "pitch": 80, "duration": 80, "velocity": 78}, {"time": 152960, "pitch": 84, "duration": 80, "velocity": 85}, {"time": 153040, "pitch": 87, "duration": 80, "velocity": 82}, {"time": 153120, "pitch": 91, "duration": 80, "velocity": 87}, {"time": 153200, "pitch": 92, "duration": 80, "velocity": 89}, {"time": 153280, "pitch": 91, "duration": 80, "velocity": 83}, {"time": 153360, "pitch": 87, "duration": 80, "velocity": 72}, {"time": 153440, "pitch": 84, "duration": 80, "velocity": 87}, {"time": 153520, "pitch": 80, "duration": 80, "velocity": 86}, {"time": 153600, "pitch": 79, "duration": 80, "velocity": 77}, {"time": 153680, "pitch": 75, "duration": 80, "velocity": 72}, {"time": 153760, "pitch": 72, "duration": 80, "velocity": 74}, {"time": 153840, "pitch": 68, "duration": 80, "velocity": 94}, {"time": 153920, "pitch": 67, "duration": 80, "velocity": 93}, {"time": 154000, "pitch": 63, "duration": 80, "velocity": 89}, {"time": 154080, "pitch": 55, "duration": 80, "velocity": 95}, {"time": 154160, "pitch": 56, "duration": 80, "velocity": 75}, {"time": 154240, "pitch": 60, "duration": 80, "velocity": 96}, {"time": 154320, "pitch": 63, "duration": 80, "velocity": 73}, {"time": 154400, "pitch": 67, "duration": 80, "velocity": 80}, {"time": 154480, "pitch": 68, "duration": 80, "velocity": 82}, {"time": 154560, "pitch": 72, "duration": 80, "velocity": 96}, {"time": 154640, "pitch": 75, "duration": 80, "velocity": 85}, {"time": 154720, "pitch": 79, "duration": 80, "velocity": 90}, {"time": 154800, "pitch": 80, "duration": 80, "velocity": 78}, {"time": 154880, "pitch": 84, "duration": 80, "velocity": 85}, {"time": 154960, "pitch": 87, "duration": 80, "velocity": 82}, {"time": 155040, "pitch": 91, "duration": 80, "velocity": 87}, {"time": 155120, "pitch": 92, "duration": 80, "velocity": 89}, {"time": 155200, "pitch": 91, "duration": 80, "velocity": 83}, {"time": 155280, "pitch": 87, "duration": 80, "velocity": 72}, {"time": 155360, "pitch": 84, "duration": 80, "velocity": 87}, {"time": 155440, "pitch": 80, "duration": 80, "velocity": 86}, {"time": 155520, "pitch": 79, "duration": 80, "velocity": 77}, {"time": 155600, "pitch": 75, "duration": 80, "velocity": 72}, {"time": 155680, "pitch": 72, "duration": 80, "velocity": 74}, {"time": 155760, "pitch": 68, "duration": 80, "velocity": 94}, {"time": 155840, "pitch": 67, "duration": 80, "velocity": 93}, {"time": 155920, "pitch": 63, "duration": 80, "velocity": 89}, {"time": 156000, "pitch": 60, "duration": 80, "velocity": 85}, {"time": 156080, "pitch": 56, "duration": 80, "velocity": 75}, {"time": 156160, "pitch": 55, "duration": 80, "velocity": 90}, {"time": 156240, "pitch": 56, "duration": 80, "velocity": 72}, {"time": 156320, "pitch": 60, "duration": 80, "velocity": 88}, {"time": 156400, "pitch": 63, "duration": 80, "velocity": 74}, {"time": 156480, "pitch": 67, "duration": 80, "velocity": 96}, {"time": 156560, "pitch": 68, "duration": 80, "velocity": 79}, {"time": 156640, "pitch": 72, "duration": 80, "velocity": 97}, {"time": 156720, "pitch": 75, "duration": 80, "velocity": 79}, {"time": 156800, "pitch": 79, "duration": 80, "velocity": 81}, {"time": 156880, "pitch": 80, "duration": 80, "velocity": 77}, {"time": 156960, "pitch": 84, "duration": 80, "velocity": 78}, {"time": 157040, "pitch": 87, "duration": 80, "velocity": 95}, {"time": 157120, "pitch": 91, "duration": 80, "velocity": 95}, {"time": 157200, "pitch": 92, "duration": 80, "velocity": 74}, {"time": 157280, "pitch": 91, "duration": 80, "velocity": 76}, {"time": 157360, "pitch": 87, "duration": 80, "velocity": 92}, {"time": 157440, "pitch": 84, "duration": 80, "velocity": 77}, {"time": 157520, "pitch": 80, "duration": 80, "velocity": 72}, {"time": 157600, "pitch": 79, "duration": 80, "velocity": 74}, {"time": 157680, "pitch": 75, "duration": 80, "velocity": 80}, {"time": 157760, "pitch": 72, "duration": 80, "velocity": 73}, {"time": 157840, "pitch": 68, "duration": 80, "velocity": 76}, {"time": 157920, "pitch": 58, "duration": 80, "velocity": 75}, {"time": 158000, "pitch": 59, "duration": 80, "velocity": 95}, {"time": 158080, "pitch": 63, "duration": 80, "velocity": 77}, {"time": 158160, "pitch": 66, "duration": 80, "velocity": 88}, {"time": 158240, "pitch": 70, "duration": 80, "velocity": 95}, {"time": 158320, "pitch": 71, "duration": 80, "velocity": 95}, {"time": 158400, "pitch": 75, "duration": 80, "velocity": 75}, {"time": 158480, "pitch": 78, "duration": 80, "velocity": 86}, {"time": 158560, "pitch": 82, "duration": 80, "velocity": 96}, {"time": 158640, "pitch": 83, "duration": 80, "velocity": 87}, {"time": 158720, "pitch": 87, "duration": 80, "velocity": 78}, {"time": 158800, "pitch": 90, "duration": 80, "velocity": 81}, {"time": 158880, "pitch": 94, "duration": 80, "velocity": 92}, {"time": 158960, "pitch": 95, "duration": 80, "velocity": 73}, {"time": 159040, "pitch": 94, "duration": 80, "velocity": 87}, {"time": 159120, "pitch": 90, "duration": 80, "velocity": 77}, {"time": 159200, "pitch": 87, "duration": 80, "velocity": 88}, {"time": 159280, "pitch": 83, "duration": 80, "velocity": 87}, {"time": 159360, "pitch": 82, "duration": 80, "velocity": 83}, {"time": 159440, "pitch": 78, "duration": 80, "velocity": 82}, {"time": 159520, "pitch": 75, "duration": 80, "velocity": 87}, {"time": 159600, "pitch": 71, "duration": 80, "velocity": 96}, {"time": 159680, "pitch": 70, "duration": 80, "velocity": 82}, {"time": 159760, "pitch": 66, "duration": 80, "velocity": 76}, {"time": 159840, "pitch": 63, "duration": 80, "velocity": 86}, {"time": 159920, "pitch": 59, "duration": 80, "velocity": 88}, {"time": 160000, "pitch": 58, "duration": 80, "velocity": 73}, {"time": 160080, "pitch": 59, "duration": 80, "velocity": 78}, {"time": 160160, "pitch": 63, "duration": 80, "velocity": 95}, {"time": 160240, "pitch": 66, "duration": 80, "velocity": 90}, {"time": 160320, "pitch": 70, "duration": 80, "velocity": 82}, {"time": 160400, "pitch": 71, "duration": 80, "velocity": 95}, {"time": 160480, "pitch": 75, "duration": 80, "velocity": 82}, {"time": 160560, "pitch": 78, "duration": 80, "velocity": 81}, {"time": 160640, "pitch": 82, "duration": 80, "velocity": 91}, {"time": 160720, "pitch": 83, "duration": 80, "velocity": 91}, {"time": 160800, "pitch": 87, "duration": 80, "velocity": 77}, {"time": 160880, "pitch": 90, "duration": 80, "velocity": 89}, {"time": 160960, "pitch": 94, "duration": 80, "velocity": 81}, {"time": 161040, "pitch": 95, "duration": 80, "velocity": 74}, {"time": 161120, "pitch": 94, "duration": 80, "velocity": 77}, {"time": 161200, "pitch": 90, "duration": 80, "velocity": 89}, {"time": 161280, "pitch": 87, "duration": 80, "velocity": 89}, {"time": 161360, "pitch": 83, "duration": 80, "velocity": 74}, {"time": 161440, "pitch": 82, "duration": 80, "velocity": 72}, {"time": 161520, "pitch": 78, "duration": 80, "velocity": 79}, {"time": 161600, "pitch": 75, "duration": 80, "velocity": 75}, {"time": 161680, "pitch": 71, "duration": 80, "velocity": 73}, {"time": 161760, "pitch": 55, "duration": 80, "velocity": 95}, {"time": 161840, "pitch": 56, "duration": 80, "velocity": 75}, {"time": 161920, "pitch": 60, "duration": 80, "velocity": 96}, {"time": 162000, "pitch": 63, "duration": 80, "velocity": 73}, {"time": 162080, "pitch": 67, "duration": 80, "velocity": 80}, {"time": 162160, "pitch": 68, "duration": 80, "velocity": 82}, {"time": 162240, "pitch": 72, "duration": 80, "velocity": 96}, {"time": 162320, "pitch": 75, "duration": 80, "velocity": 85}, {"time": 162400, "pitch": 79, "duration": 80, "velocity": 90}, {"time": 162480, "pitch": 80, "duration": 80, "velocity": 78}, {"time": 162560, "pitch": 84, "duration": 80, "velocity": 85}, {"time": 162640, "pitch": 87, "duration": 80, "velocity": 82}, {"time": 162720, "pitch": 91, "duration": 80, "velocity": 87}, {"time": 162800, "pitch": 92, "duration": 80, "velocity": 89}, {"time": 162880, "pitch": 91, "duration": 80, "velocity": 83}, {"time": 162960, "pitch": 87, "duration": 80, "velocity": 72}, {"time": 163040, "pitch": 84, "duration": 80, "velocity": 87}, {"time": 163120, "pitch": 80, "duration": 80, "velocity": 86}, {"time": 163200, "pitch": 79, "duration": 80, "velocity": 77}, {"time": 163280, "pitch": 75, "duration": 80, "velocity": 72}, {"time": 163360, "pitch": 72, "duration": 80, "velocity": 74}, {"time": 163440, "pitch": 68, "duration": 80, "velocity": 94}, {"time": 163520, "pitch": 67, "duration": 80, "velocity": 93}, {"time": 163600, "pitch": 63, "duration": 80, "velocity": 89}, {"time": 163680, "pitch": 60, "duration": 80, "velocity": 85}, {"time": 163760, "pitch": 56, "duration": 80, "velocity": 75}, {"time": 163840, "pitch": 55, "duration": 80, "velocity": 90}, {"time": 163920, "pitch": 56, "duration": 80, "velocity": 72}, {"time": 164000, "pitch": 60, "duration": 80, "velocity": 88}, {"time": 164080, "pitch": 63, "duration": 80, "velocity": 74}, {"time": 164160, "pitch": 67, "duration": 80, "velocity": 96}, {"time": 164240, "pitch": 68, "duration": 80, "velocity": 79}, {"time": 164320, "pitch": 72, "duration": 80, "velocity": 97}, {"time": 164400, "pitch": 75, "duration": 80, "velocity": 79}, {"time": 164480, "pitch": 79, "duration": 80, "velocity": 81}, {"time": 164560, "pitch": 80, "duration": 80, "velocity": 77}, {"time": 164640, "pitch": 84, "duration": 80, "velocity": 78}, {"time": 164720, "pitch": 87, "duration": 80, "velocity": 95}, {"time": 164800, "pitch": 91, "duration": 80, "velocity": 95}, {"time": 164880, "pitch": 92, "duration": 80, "velocity": 74}, {"time": 164960, "pitch": 91, "duration": 80, "velocity": 76}, {"time": 165040, "pitch": 87, "duration": 80, "velocity": 92}, {"time": 165120, "pitch": 84, "duration": 80, "velocity": 77}, {"time": 165200, "pitch": 80, "duration": 80, "velocity": 72}, {"time": 165280, "pitch": 79, "duration": 80, "velocity": 74}, {"time": 165360, "pitch": 75, "duration": 80, "velocity": 80}, {"time": 165440, "pitch": 72, "duration": 80, "velocity": 73}, {"time": 165520, "pitch": 68, "duration": 80, "velocity": 76}, {"time": 165600, "pitch": 58, "duration": 80, "velocity": 75}, {"time": 165680, "pitch": 59, "duration": 80, "velocity": 95}, {"time": 165760, "pitch": 63, "duration": 80, "velocity": 77}, {"time": 165840, "pitch": 66, "duration": 80, "velocity": 88}, {"time": 165920, "pitch": 70, "duration": 80, "velocity": 95}, {"time": 166000, "pitch": 71, "duration": 80, "velocity": 95}, {"time": 166080, "pitch": 75, "duration": 80, "velocity": 75}, {"time": 166160, "pitch": 78, "duration": 80, "velocity": 86}, {"time": 166240, "pitch": 82, "duration": 80, "velocity": 96}, {"time": 166320, "pitch": 83, "duration": 80, "velocity": 87}, {"time": 166400, "pitch": 87, "duration": 80, "velocity": 78}, {"time": 166480, "pitch": 90, "duration": 80, "velocity": 81}, {"time": 166560, "pitch": 94, "duration": 80, "velocity": 92}, {"time": 166640, "pitch": 95, "duration": 80, "velocity": 73}, {"time": 166720, "pitch": 94, "duration": 80, "velocity": 87}, {"time": 166800, "pitch": 90, "duration": 80, "velocity": 77}, {"time": 166880, "pitch": 87, "duration": 80, "velocity": 88}, {"time": 166960, "pitch": 83, "duration": 80, "velocity": 87}, {"time": 167040, "pitch": 82, "duration": 80, "velocity": 83}, {"time": 167120, "pitch": 78, "duration": 80, "velocity": 82}, {"time": 167200, "pitch": 75, "duration": 80, "velocity": 87}, {"time": 167280, "pitch": 71, "duration": 80, "velocity": 96}, {"time": 167360, "pitch": 70, "duration": 80, "velocity": 82}, {"time": 167440, "pitch": 66, "duration": 80, "velocity": 76}, {"time": 167520, "pitch": 63, "duration": 80, "velocity": 86}, {"time": 167600, "pitch": 59, "duration": 80, "velocity": 88}, {"time": 167680, "pitch": 58, "duration": 80, "velocity": 73}, {"time": 167760, "pitch": 59, "duration": 80, "velocity": 78}, {"time": 167840, "pitch": 63, "duration": 80, "velocity": 95}, {"time": 167920, "pitch": 66, "duration": 80, "velocity": 90}, {"time": 168000, "pitch": 70, "duration": 80, "velocity": 82}, {"time": 168080, "pitch": 71, "duration": 80, "velocity": 95}, {"time": 168160, "pitch": 75, "duration": 80, "velocity": 82}, {"time": 168240, "pitch": 78, "duration": 80, "velocity": 81}, {"time": 168320, "pitch": 82, "duration": 80, "velocity": 91}, {"time": 168400, "pitch": 83, "duration": 80, "velocity": 91}, {"time": 168480, "pitch": 87, "duration": 80, "velocity": 77}, {"time": 168560, "pitch": 90, "duration": 80, "velocity": 89}, {"time": 168640, "pitch": 94, "duration": 80, "velocity": 81}, {"time": 168720, "pitch": 95, "duration": 80, "velocity": 74}, {"time": 168800, "pitch": 94, "duration": 80, "velocity": 77}, {"time": 168880, "pitch": 90, "duration": 80, "velocity": 89}, {"time": 168960, "pitch": 87, "duration": 80, "velocity": 89}, {"time": 169040, "pitch": 83, "duration": 80, "velocity": 74}, {"time": 169120, "pitch": 82, "duration": 80, "velocity": 72}, {"time": 169200, "pitch": 78, "duration": 80, "velocity": 79}, {"time": 169280, "pitch": 75, "duration": 80, "velocity": 75}], "annotations": [{"time": 336, "annotation": {"number": 7, "value": 60}, "group": "control_change"}, {"time": 352, "annotation": {"number": 11, "value": 127}, "group": "control_change"}, {"time": 368, "annotation": {"number": 10, "value": 64}, "group": "control_change"}, {"time": 384, "annotation": {"number": 91, "value": 20}, "group": "control_change"}, {"time": 400, "annotation": {"number": 93, "value": 10}, "group": "control_change"}, {"time": 416, "annotation": {"number": 101, "value": 0}, "group": "control_change"}, {"time": 432, "annotation": {"number": 100, "value": 0}, "group": "control_change"}, {"time": 448, "annotation": {"number": 6, "value": 12}, "group": "control_change"}, {"time": 464, "annotation": {"number": 101, "value": 127}, "group": "control_change"}, {"time": 480, "annotation": {"number": 100, "value": 127}, "group": "control_change"}, {"time": 15760, "annotation": {"number": 0, "value": 0}, "group": "control_change"}, {"time": 15770, "annotation": {"number": 32, "value": 2}, "group": "control_change"}, {"time": 150270, "annotation": {"number": 7, "value": 60}, "group": "control_change"}, {"time": 150280, "annotation": {"number": 11, "value": 127}, "group": "control_change"}, {"time": 150290, "annotation": {"number": 10, "value": 64}, "group": "control_change"}, {"time": 150300, "annotation": {"number": 91, "value": 20}, "group": "control_change"}, {"time": 150310, "annotation": {"number": 93, "value": 10}, "group": "control_change"}, {"time": 169360, "annotation": {"number": 0, "value": 0}, "group": "control_change"}, {"time": 169370, "annotation": {"number": 32, "value": 2}, "group": "control_change"}]}, {"program": 65, "is_drum": false, "name": "SAX / SEQ-SYNTH", "notes": [{"time": 15760, "pitch": 75, "duration": 80, "velocity": 73}, {"time": 15840, "pitch": 72, "duration": 220, "velocity": 120}, {"time": 16080, "pitch": 72, "duration": 80, "velocity": 120}, {"time": 16800, "pitch": 72, "duration": 220, "velocity": 120}, {"time": 17040, "pitch": 72, "duration": 80, "velocity": 120}, {"time": 17520, "pitch": 72, "duration": 80, "velocity": 120}, {"time": 18240, "pitch": 72, "duration": 1420, "velocity": 120}, {"time": 51600, "pitch": 60, "duration": 70, "velocity": 114}, {"time": 51840, "pitch": 60, "duration": 210, "velocity": 127}, {"time": 52080, "pitch": 57, "duration": 80, "velocity": 95}, {"time": 52200, "pitch": 60, "duration": 100, "velocity": 125}, {"time": 53520, "pitch": 60, "duration": 80, "velocity": 122}, {"time": 53760, "pitch": 60, "duration": 210, "velocity": 127}, {"time": 54000, "pitch": 57, "duration": 80, "velocity": 106}, {"time": 54120, "pitch": 60, "duration": 80, "velocity": 125}, {"time": 56400, "pitch": 60, "duration": 80, "velocity": 114}, {"time": 56640, "pitch": 60, "duration": 210, "velocity": 127}, {"time": 56880, "pitch": 62, "duration": 120, "velocity": 112}, {"time": 57000, "pitch": 60, "duration": 100, "velocity": 95}, {"time": 57120, "pitch": 63, "duration": 180, "velocity": 127}, {"time": 57240, "pitch": 62, "duration": 120, "velocity": 114}, {"time": 57480, "pitch": 60, "duration": 240, "velocity": 115}, {"time": 57720, "pitch": 62, "duration": 110, "velocity": 125}, {"time": 57840, "pitch": 60, "duration": 140, "velocity": 118}, {"time": 66960, "pitch": 60, "duration": 70, "velocity": 114}, {"time": 67200, "pitch": 60, "duration": 210, "velocity": 127}, {"time": 67440, "pitch": 57, "duration": 80, "velocity": 95}, {"time": 67560, "pitch": 60, "duration": 100, "velocity": 125}, {"time": 68880, "pitch": 60, "duration": 80, "velocity": 122}, {"time": 69120, "pitch": 60, "duration": 210, "velocity": 127}, {"time": 69360, "pitch": 57, "duration": 80, "velocity": 106}, {"time": 69480, "pitch": 60, "duration": 80, "velocity": 125}, {"time": 71760, "pitch": 60, "duration": 80, "velocity": 114}, {"time": 72000, "pitch": 60, "duration": 210, "velocity": 127}, {"time": 72240, "pitch": 62, "duration": 120, "velocity": 112}, {"time": 72360, "pitch": 60, "duration": 100, "velocity": 95}, {"time": 72480, "pitch": 63, "duration": 180, "velocity": 127}, {"time": 72600, "pitch": 62, "duration": 120, "velocity": 114}, {"time": 72840, "pitch": 60, "duration": 240, "velocity": 115}, {"time": 73080, "pitch": 62, "duration": 110, "velocity": 125}, {"time": 73200, "pitch": 60, "duration": 140, "velocity": 118}, {"time": 81360, "pitch": 63, "duration": 120, "velocity": 127}, {"time": 81480, "pitch": 64, "duration": 100, "velocity": 102}, {"time": 81600, "pitch": 65, "duration": 120, "velocity": 114}, {"time": 81720, "pitch": 66, "duration": 160, "velocity": 127}, {"time": 81960, "pitch": 67, "duration": 220, "velocity": 106}, {"time": 82200, "pitch": 72, "duration": 200, "velocity": 122}, {"time": 82440, "pitch": 70, "duration": 440, "velocity": 127}, {"time": 83160, "pitch": 67, "duration": 140, "velocity": 114}, {"time": 83280, "pitch": 70, "duration": 120, "velocity": 112}, {"time": 83400, "pitch": 72, "duration": 120, "velocity": 103}, {"time": 83500, "pitch": 74, "duration": 70, "velocity": 103}, {"time": 83520, "pitch": 75, "duration": 220, "velocity": 127}, {"time": 83760, "pitch": 72, "duration": 90, "velocity": 109}, {"time": 83880, "pitch": 77, "duration": 240, "velocity": 112}, {"time": 84120, "pitch": 78, "duration": 100, "velocity": 125}, {"time": 84240, "pitch": 79, "duration": 180, "velocity": 114}, {"time": 84480, "pitch": 82, "duration": 190, "velocity": 127}, {"time": 84720, "pitch": 84, "duration": 2120, "velocity": 103}, {"time": 120720, "pitch": 60, "duration": 70, "velocity": 114}, {"time": 120960, "pitch": 60, "duration": 210, "velocity": 127}, {"time": 121200, "pitch": 57, "duration": 80, "velocity": 95}, {"time": 121320, "pitch": 60, "duration": 100, "velocity": 125}, {"time": 122640, "pitch": 60, "duration": 80, "velocity": 122}, {"time": 122880, "pitch": 60, "duration": 210, "velocity": 127}, {"time": 123120, "pitch": 57, "duration": 80, "velocity": 106}, {"time": 123240, "pitch": 60, "duration": 80, "velocity": 125}, {"time": 125520, "pitch": 60, "duration": 80, "velocity": 114}, {"time": 125760, "pitch": 60, "duration": 210, "velocity": 127}, {"time": 126000, "pitch": 62, "duration": 120, "velocity": 112}, {"time": 126120, "pitch": 60, "duration": 100, "velocity": 95}, {"time": 126240, "pitch": 63, "duration": 180, "velocity": 127}, {"time": 126360, "pitch": 62, "duration": 120, "velocity": 114}, {"time": 126600, "pitch": 60, "duration": 240, "velocity": 115}, {"time": 126840, "pitch": 62, "duration": 110, "velocity": 125}, {"time": 126960, "pitch": 60, "duration": 140, "velocity": 118}, {"time": 136080, "pitch": 60, "duration": 70, "velocity": 114}, {"time": 136320, "pitch": 60, "duration": 210, "velocity": 127}, {"time": 136560, "pitch": 57, "duration": 80, "velocity": 95}, {"time": 136680, "pitch": 60, "duration": 100, "velocity": 125}, {"time": 138000, "pitch": 60, "duration": 80, "velocity": 122}, {"time": 138240, "pitch": 60, "duration": 210, "velocity": 127}, {"time": 138480, "pitch": 57, "duration": 80, "velocity": 106}, {"time": 138600, "pitch": 60, "duration": 80, "velocity": 125}, {"time": 140880, "pitch": 60, "duration": 80, "velocity": 114}, {"time": 141120, "pitch": 60, "duration": 210, "velocity": 127}, {"time": 141360, "pitch": 62, "duration": 120, "velocity": 112}, {"time": 141480, "pitch": 60, "duration": 100, "velocity": 95}, {"time": 141600, "pitch": 63, "duration": 180, "velocity": 127}, {"time": 141720, "pitch": 62, "duration": 120, "velocity": 114}, {"time": 141960, "pitch": 60, "duration": 240, "velocity": 115}, {"time": 142200, "pitch": 62, "duration": 110, "velocity": 125}, {"time": 142320, "pitch": 60, "duration": 140, "velocity": 118}, {"time": 169360, "pitch": 71, "duration": 80, "velocity": 73}, {"time": 169440, "pitch": 72, "duration": 220, "velocity": 120}, {"time": 169680, "pitch": 72, "duration": 80, "velocity": 120}, {"time": 170400, "pitch": 72, "duration": 220, "velocity": 120}, {"time": 170640, "pitch": 72, "duration": 80, "velocity": 120}, {"time": 171120, "pitch": 72, "duration": 80, "velocity": 120}, {"time": 171840, "pitch": 72, "duration": 1420, "velocity": 120}, {"time": 173800, "pitch": 72, "duration": 150, "velocity": 122}, {"time": 173920, "pitch": 71, "duration": 130, "velocity": 106}, {"time": 174010, "pitch": 70, "duration": 150, "velocity": 127}, {"time": 174130, "pitch": 72, "duration": 160, "velocity": 127}, {"time": 174250, "pitch": 69, "duration": 240, "velocity": 106}, {"time": 174470, "pitch": 68, "duration": 110, "velocity": 125}, {"time": 174590, "pitch": 67, "duration": 170, "velocity": 125}, {"time": 174840, "pitch": 64, "duration": 130, "velocity": 125}, {"time": 174970, "pitch": 65, "duration": 120, "velocity": 122}, {"time": 175070, "pitch": 66, "duration": 130, "velocity": 106}, {"time": 175200, "pitch": 67, "duration": 250, "velocity": 106}, {"time": 175430, "pitch": 64, "duration": 120, "velocity": 106}, {"time": 175670, "pitch": 60, "duration": 260, "velocity": 112}, {"time": 175900, "pitch": 57, "duration": 100, "velocity": 97}, {"time": 176030, "pitch": 60, "duration": 100, "velocity": 106}, {"time": 176290, "pitch": 60, "duration": 240, "velocity": 125}, {"time": 176520, "pitch": 57, "duration": 80, "velocity": 83}, {"time": 176650, "pitch": 62, "duration": 130, "velocity": 125}, {"time": 176760, "pitch": 61, "duration": 90, "velocity": 127}, {"time": 176890, "pitch": 60, "duration": 140, "velocity": 114}, {"time": 177120, "pitch": 64, "duration": 260, "velocity": 127}, {"time": 177330, "pitch": 57, "duration": 110, "velocity": 89}, {"time": 177480, "pitch": 60, "duration": 80, "velocity": 114}, {"time": 177720, "pitch": 64, "duration": 210, "velocity": 127}, {"time": 177940, "pitch": 57, "duration": 80, "velocity": 89}, {"time": 178060, "pitch": 60, "duration": 100, "velocity": 106}, {"time": 178300, "pitch": 64, "duration": 240, "velocity": 115}, {"time": 178560, "pitch": 57, "duration": 80, "velocity": 89}, {"time": 178680, "pitch": 60, "duration": 90, "velocity": 122}, {"time": 178800, "pitch": 62, "duration": 210, "velocity": 125}, {"time": 179040, "pitch": 63, "duration": 470, "velocity": 112}, {"time": 179500, "pitch": 62, "duration": 190, "velocity": 125}, {"time": 179760, "pitch": 60, "duration": 390, "velocity": 122}, {"time": 180240, "pitch": 60, "duration": 180, "velocity": 109}, {"time": 180480, "pitch": 62, "duration": 230, "velocity": 123}, {"time": 180720, "pitch": 60, "duration": 160, "velocity": 103}, {"time": 180960, "pitch": 67, "duration": 180, "velocity": 125}, {"time": 181210, "pitch": 67, "duration": 230, "velocity": 125}, {"time": 181570, "pitch": 69, "duration": 120, "velocity": 125}, {"time": 181680, "pitch": 72, "duration": 140, "velocity": 106}, {"time": 181800, "pitch": 74, "duration": 90, "velocity": 97}, {"time": 181910, "pitch": 75, "duration": 110, "velocity": 114}, {"time": 182040, "pitch": 72, "duration": 140, "velocity": 106}, {"time": 182180, "pitch": 74, "duration": 100, "velocity": 114}, {"time": 182310, "pitch": 72, "duration": 220, "velocity": 106}, {"time": 182540, "pitch": 76, "duration": 120, "velocity": 112}, {"time": 182640, "pitch": 77, "duration": 140, "velocity": 117}, {"time": 182780, "pitch": 78, "duration": 80, "velocity": 122}, {"time": 182880, "pitch": 79, "duration": 380, "velocity": 114}, {"time": 183370, "pitch": 76, "duration": 310, "velocity": 106}, {"time": 183720, "pitch": 72, "duration": 290, "velocity": 101}, {"time": 184090, "pitch": 72, "duration": 120, "velocity": 127}, {"time": 184320, "pitch": 74, "duration": 250, "velocity": 127}, {"time": 184570, "pitch": 72, "duration": 120, "velocity": 114}, {"time": 184800, "pitch": 74, "duration": 90, "velocity": 114}, {"time": 184830, "pitch": 75, "duration": 270, "velocity": 112}, {"time": 185070, "pitch": 74, "duration": 100, "velocity": 112}, {"time": 185180, "pitch": 72, "duration": 230, "velocity": 106}, {"time": 185450, "pitch": 74, "duration": 80, "velocity": 106}, {"time": 185570, "pitch": 72, "duration": 150, "velocity": 125}, {"time": 185780, "pitch": 75, "duration": 220, "velocity": 126}, {"time": 186020, "pitch": 74, "duration": 120, "velocity": 114}, {"time": 186130, "pitch": 72, "duration": 220, "velocity": 114}, {"time": 186390, "pitch": 74, "duration": 80, "velocity": 106}, {"time": 186510, "pitch": 72, "duration": 140, "velocity": 125}, {"time": 186720, "pitch": 79, "duration": 90, "velocity": 127}, {"time": 186820, "pitch": 78, "duration": 80, "velocity": 93}, {"time": 186910, "pitch": 77, "duration": 80, "velocity": 97}, {"time": 187010, "pitch": 76, "duration": 120, "velocity": 97}, {"time": 187150, "pitch": 75, "duration": 220, "velocity": 127}, {"time": 187400, "pitch": 72, "duration": 420, "velocity": 113}, {"time": 187930, "pitch": 72, "duration": 110, "velocity": 107}, {"time": 188150, "pitch": 70, "duration": 180, "velocity": 117}, {"time": 188390, "pitch": 72, "duration": 90, "velocity": 122}, {"time": 188830, "pitch": 55, "duration": 240, "velocity": 123}, {"time": 189110, "pitch": 57, "duration": 90, "velocity": 106}, {"time": 189350, "pitch": 60, "duration": 60, "velocity": 97}, {"time": 189600, "pitch": 67, "duration": 350, "velocity": 112}, {"time": 189940, "pitch": 64, "duration": 180, "velocity": 106}, {"time": 190330, "pitch": 60, "duration": 1290, "velocity": 127}, {"time": 192290, "pitch": 58, "duration": 100, "velocity": 127}, {"time": 192400, "pitch": 60, "duration": 100, "velocity": 102}, {"time": 192530, "pitch": 62, "duration": 250, "velocity": 127}, {"time": 192780, "pitch": 60, "duration": 80, "velocity": 86}, {"time": 192960, "pitch": 62, "duration": 220, "velocity": 127}, {"time": 193190, "pitch": 60, "duration": 140, "velocity": 102}, {"time": 193440, "pitch": 64, "duration": 110, "velocity": 107}, {"time": 193560, "pitch": 64, "duration": 110, "velocity": 117}, {"time": 193690, "pitch": 62, "duration": 80, "velocity": 108}, {"time": 193810, "pitch": 60, "duration": 260, "velocity": 103}, {"time": 194120, "pitch": 60, "duration": 150, "velocity": 125}, {"time": 194360, "pitch": 63, "duration": 240, "velocity": 127}, {"time": 194630, "pitch": 62, "duration": 140, "velocity": 95}, {"time": 194870, "pitch": 60, "duration": 100, "velocity": 115}, {"time": 195130, "pitch": 60, "duration": 230, "velocity": 115}, {"time": 195390, "pitch": 58, "duration": 150, "velocity": 97}, {"time": 195590, "pitch": 55, "duration": 140, "velocity": 125}, {"time": 195820, "pitch": 63, "duration": 280, "velocity": 127}, {"time": 196050, "pitch": 60, "duration": 120, "velocity": 103}, {"time": 196320, "pitch": 79, "duration": 250, "velocity": 127}, {"time": 196560, "pitch": 72, "duration": 80, "velocity": 95}, {"time": 196780, "pitch": 72, "duration": 130, "velocity": 127}, {"time": 197030, "pitch": 79, "duration": 200, "velocity": 122}, {"time": 197180, "pitch": 72, "duration": 120, "velocity": 106}, {"time": 197440, "pitch": 72, "duration": 90, "velocity": 125}, {"time": 197580, "pitch": 72, "duration": 60, "velocity": 83}, {"time": 197730, "pitch": 79, "duration": 240, "velocity": 127}, {"time": 197970, "pitch": 72, "duration": 110, "velocity": 125}, {"time": 198240, "pitch": 79, "duration": 220, "velocity": 127}, {"time": 198480, "pitch": 72, "duration": 80, "velocity": 89}, {"time": 198720, "pitch": 72, "duration": 180, "velocity": 127}, {"time": 198940, "pitch": 79, "duration": 150, "velocity": 122}, {"time": 199060, "pitch": 72, "duration": 160, "velocity": 103}, {"time": 199330, "pitch": 72, "duration": 90, "velocity": 114}, {"time": 199580, "pitch": 72, "duration": 140, "velocity": 125}, {"time": 199680, "pitch": 79, "duration": 230, "velocity": 127}, {"time": 199920, "pitch": 72, "duration": 100, "velocity": 114}, {"time": 200150, "pitch": 83, "duration": 60, "velocity": 106}, {"time": 200160, "pitch": 84, "duration": 270, "velocity": 118}, {"time": 200520, "pitch": 84, "duration": 210, "velocity": 109}, {"time": 200870, "pitch": 84, "duration": 760, "velocity": 127}, {"time": 201630, "pitch": 81, "duration": 180, "velocity": 127}, {"time": 201850, "pitch": 84, "duration": 150, "velocity": 125}, {"time": 202100, "pitch": 79, "duration": 260, "velocity": 127}, {"time": 202340, "pitch": 84, "duration": 120, "velocity": 106}, {"time": 202570, "pitch": 78, "duration": 210, "velocity": 127}, {"time": 202800, "pitch": 77, "duration": 90, "velocity": 106}, {"time": 203040, "pitch": 75, "duration": 430, "velocity": 121}, {"time": 203520, "pitch": 74, "duration": 230, "velocity": 107}, {"time": 203760, "pitch": 72, "duration": 160, "velocity": 92}, {"time": 205200, "pitch": 60, "duration": 70, "velocity": 114}, {"time": 205440, "pitch": 60, "duration": 210, "velocity": 127}, {"time": 205680, "pitch": 57, "duration": 80, "velocity": 95}, {"time": 205800, "pitch": 60, "duration": 100, "velocity": 125}, {"time": 207120, "pitch": 60, "duration": 80, "velocity": 122}, {"time": 207360, "pitch": 60, "duration": 210, "velocity": 127}, {"time": 207600, "pitch": 57, "duration": 80, "velocity": 106}, {"time": 207720, "pitch": 60, "duration": 80, "velocity": 125}, {"time": 210000, "pitch": 60, "duration": 80, "velocity": 114}, {"time": 210240, "pitch": 60, "duration": 210, "velocity": 127}, {"time": 210480, "pitch": 62, "duration": 120, "velocity": 112}, {"time": 210600, "pitch": 60, "duration": 100, "velocity": 95}, {"time": 210720, "pitch": 63, "duration": 180, "velocity": 127}, {"time": 210840, "pitch": 62, "duration": 120, "velocity": 114}, {"time": 211080, "pitch": 60, "duration": 240, "velocity": 115}, {"time": 211320, "pitch": 62, "duration": 110, "velocity": 125}, {"time": 211440, "pitch": 60, "duration": 140, "velocity": 118}, {"time": 220560, "pitch": 60, "duration": 70, "velocity": 114}, {"time": 220800, "pitch": 60, "duration": 210, "velocity": 127}, {"time": 221040, "pitch": 57, "duration": 80, "velocity": 95}, {"time": 221160, "pitch": 60, "duration": 100, "velocity": 125}, {"time": 222480, "pitch": 60, "duration": 80, "velocity": 122}, {"time": 222720, "pitch": 60, "duration": 210, "velocity": 127}, {"time": 222960, "pitch": 57, "duration": 80, "velocity": 106}, {"time": 223080, "pitch": 60, "duration": 80, "velocity": 125}, {"time": 225360, "pitch": 60, "duration": 80, "velocity": 114}, {"time": 225600, "pitch": 60, "duration": 210, "velocity": 127}, {"time": 225840, "pitch": 62, "duration": 120, "velocity": 112}, {"time": 225960, "pitch": 60, "duration": 100, "velocity": 95}, {"time": 226080, "pitch": 63, "duration": 180, "velocity": 127}, {"time": 226200, "pitch": 62, "duration": 120, "velocity": 114}, {"time": 226440, "pitch": 60, "duration": 240, "velocity": 115}, {"time": 226680, "pitch": 62, "duration": 110, "velocity": 125}, {"time": 226800, "pitch": 60, "duration": 140, "velocity": 118}, {"time": 234960, "pitch": 63, "duration": 120, "velocity": 127}, {"time": 235080, "pitch": 64, "duration": 100, "velocity": 102}, {"time": 235200, "pitch": 65, "duration": 120, "velocity": 114}, {"time": 235320, "pitch": 66, "duration": 160, "velocity": 127}, {"time": 235560, "pitch": 67, "duration": 220, "velocity": 106}, {"time": 235800, "pitch": 72, "duration": 200, "velocity": 122}, {"time": 236040, "pitch": 70, "duration": 440, "velocity": 127}, {"time": 236760, "pitch": 67, "duration": 140, "velocity": 114}, {"time": 236880, "pitch": 70, "duration": 120, "velocity": 112}, {"time": 237000, "pitch": 72, "duration": 120, "velocity": 103}, {"time": 237100, "pitch": 74, "duration": 70, "velocity": 103}, {"time": 237120, "pitch": 75, "duration": 220, "velocity": 127}, {"time": 237360, "pitch": 72, "duration": 90, "velocity": 109}, {"time": 237480, "pitch": 77, "duration": 240, "velocity": 112}, {"time": 237720, "pitch": 78, "duration": 100, "velocity": 125}, {"time": 237840, "pitch": 79, "duration": 180, "velocity": 114}, {"time": 238080, "pitch": 82, "duration": 190, "velocity": 127}, {"time": 238320, "pitch": 84, "duration": 2120, "velocity": 103}], "annotations": [{"time": 15790, "annotation": {"number": 7, "value": 90}, "group": "control_change"}, {"time": 15800, "annotation": {"number": 11, "value": 127}, "group": "control_change"}, {"time": 15810, "annotation": {"number": 10, "value": 66}, "group": "control_change"}, {"time": 15820, "annotation": {"number": 91, "value": 40}, "group": "control_change"}, {"time": 15830, "annotation": {"number": 93, "value": 20}, "group": "control_change"}, {"time": 18356, "annotation": {"number": 11, "value": 120}, "group": "control_change"}, {"time": 18372, "annotation": {"number": 11, "value": 117}, "group": "control_change"}, {"time": 18389, "annotation": {"number": 11, "value": 114}, "group": "control_change"}, {"time": 18405, "annotation": {"number": 11, "value": 111}, "group": "control_change"}, {"time": 18422, "annotation": {"number": 11, "value": 108}, "group": "control_change"}, {"time": 18438, "annotation": {"number": 11, "value": 105}, "group": "control_change"}, {"time": 18455, "annotation": {"number": 11, "value": 102}, "group": "control_change"}, {"time": 18471, "annotation": {"number": 11, "value": 99}, "group": "control_change"}, {"time": 18488, "annotation": {"number": 11, "value": 96}, "group": "control_change"}, {"time": 18504, "annotation": {"number": 11, "value": 93}, "group": "control_change"}, {"time": 18521, "annotation": {"number": 11, "value": 90}, "group": "control_change"}, {"time": 18537, "annotation": {"number": 11, "value": 87}, "group": "control_change"}, {"time": 18554, "annotation": {"number": 11, "value": 84}, "group": "control_change"}, {"time": 18570, "annotation": {"number": 11, "value": 81}, "group": "control_change"}, {"time": 18587, "annotation": {"number": 11, "value": 78}, "group": "control_change"}, {"time": 18603, "annotation": {"number": 11, "value": 75}, "group": "control_change"}, {"time": 18619, "annotation": {"number": 11, "value": 72}, "group": "control_change"}, {"time": 18960, "annotation": {"number": 11, "value": 76}, "group": "control_change"}, {"time": 18976, "annotation": {"number": 11, "value": 77}, "group": "control_change"}, {"time": 18992, "annotation": {"number": 11, "value": 79}, "group": "control_change"}, {"time": 19008, "annotation": {"number": 11, "value": 81}, "group": "control_change"}, {"time": 19024, "annotation": {"number": 11, "value": 82}, "group": "control_change"}, {"time": 19040, "annotation": {"number": 11, "value": 84}, "group": "control_change"}, {"time": 19056, "annotation": {"number": 11, "value": 86}, "group": "control_change"}, {"time": 19072, "annotation": {"number": 11, "value": 88}, "group": "control_change"}, {"time": 19089, "annotation": {"number": 11, "value": 90}, "group": "control_change"}, {"time": 19105, "annotation": {"number": 11, "value": 91}, "group": "control_change"}, {"time": 19121, "annotation": {"number": 11, "value": 93}, "group": "control_change"}, {"time": 19137, "annotation": {"number": 11, "value": 95}, "group": "control_change"}, {"time": 19153, "annotation": {"number": 11, "value": 97}, "group": "control_change"}, {"time": 19169, "annotation": {"number": 11, "value": 98}, "group": "control_change"}, {"time": 19185, "annotation": {"number": 11, "value": 100}, "group": "control_change"}, {"time": 19202, "annotation": {"number": 11, "value": 102}, "group": "control_change"}, {"time": 19218, "annotation": {"number": 11, "value": 104}, "group": "control_change"}, {"time": 19234, "annotation": {"number": 11, "value": 105}, "group": "control_change"}, {"time": 19250, "annotation": {"number": 11, "value": 107}, "group": "control_change"}, {"time": 19266, "annotation": {"number": 11, "value": 109}, "group": "control_change"}, {"time": 19282, "annotation": {"number": 11, "value": 111}, "group": "control_change"}, {"time": 19298, "annotation": {"number": 11, "value": 112}, "group": "control_change"}, {"time": 19315, "annotation": {"number": 11, "value": 114}, "group": "control_change"}, {"time": 19331, "annotation": {"number": 11, "value": 116}, "group": "control_change"}, {"time": 19347, "annotation": {"number": 11, "value": 118}, "group": "control_change"}, {"time": 19363, "annotation": {"number": 11, "value": 119}, "group": "control_change"}, {"time": 19379, "annotation": {"number": 11, "value": 121}, "group": "control_change"}, {"time": 19395, "annotation": {"number": 11, "value": 123}, "group": "control_change"}, {"time": 19411, "annotation": {"number": 11, "value": 125}, "group": "control_change"}, {"time": 19427, "annotation": {"number": 11, "value": 127}, "group": "control_change"}, {"time": 150240, "annotation": {"number": 0, "value": 0}, "group": "control_change"}, {"time": 150250, "annotation": {"number": 32, "value": 2}, "group": "control_change"}, {"time": 169390, "annotation": {"number": 7, "value": 110}, "group": "control_change"}, {"time": 169400, "annotation": {"number": 11, "value": 127}, "group": "control_change"}, {"time": 169410, "annotation": {"number": 10, "value": 66}, "group": "control_change"}, {"time": 169420, "annotation": {"number": 91, "value": 40}, "group": "control_change"}, {"time": 169430, "annotation": {"number": 93, "value": 20}, "group": "control_change"}, {"time": 171956, "annotation": {"number": 11, "value": 120}, "group": "control_change"}, {"time": 171972, "annotation": {"number": 11, "value": 117}, "group": "control_change"}, {"time": 171989, "annotation": {"number": 11, "value": 114}, "group": "control_change"}, {"time": 172005, "annotation": {"number": 11, "value": 111}, "group": "control_change"}, {"time": 172022, "annotation": {"number": 11, "value": 108}, "group": "control_change"}, {"time": 172038, "annotation": {"number": 11, "value": 105}, "group": "control_change"}, {"time": 172055, "annotation": {"number": 11, "value": 102}, "group": "control_change"}, {"time": 172071, "annotation": {"number": 11, "value": 99}, "group": "control_change"}, {"time": 172088, "annotation": {"number": 11, "value": 96}, "group": "control_change"}, {"time": 172104, "annotation": {"number": 11, "value": 93}, "group": "control_change"}, {"time": 172121, "annotation": {"number": 11, "value": 90}, "group": "control_change"}, {"time": 172137, "annotation": {"number": 11, "value": 87}, "group": "control_change"}, {"time": 172154, "annotation": {"number": 11, "value": 84}, "group": "control_change"}, {"time": 172170, "annotation": {"number": 11, "value": 81}, "group": "control_change"}, {"time": 172187, "annotation": {"number": 11, "value": 78}, "group": "control_change"}, {"time": 172203, "annotation": {"number": 11, "value": 75}, "group": "control_change"}, {"time": 172219, "annotation": {"number": 11, "value": 72}, "group": "control_change"}, {"time": 172560, "annotation": {"number": 11, "value": 76}, "group": "control_change"}, {"time": 172576, "annotation": {"number": 11, "value": 77}, "group": "control_change"}, {"time": 172592, "annotation": {"number": 11, "value": 79}, "group": "control_change"}, {"time": 172608, "annotation": {"number": 11, "value": 81}, "group": "control_change"}, {"time": 172624, "annotation": {"number": 11, "value": 82}, "group": "control_change"}, {"time": 172640, "annotation": {"number": 11, "value": 84}, "group": "control_change"}, {"time": 172656, "annotation": {"number": 11, "value": 86}, "group": "control_change"}, {"time": 172672, "annotation": {"number": 11, "value": 88}, "group": "control_change"}, {"time": 172689, "annotation": {"number": 11, "value": 90}, "group": "control_change"}, {"time": 172705, "annotation": {"number": 11, "value": 91}, "group": "control_change"}, {"time": 172721, "annotation": {"number": 11, "value": 93}, "group": "control_change"}, {"time": 172737, "annotation": {"number": 11, "value": 95}, "group": "control_change"}, {"time": 172753, "annotation": {"number": 11, "value": 97}, "group": "control_change"}, {"time": 172769, "annotation": {"number": 11, "value": 98}, "group": "control_change"}, {"time": 172785, "annotation": {"number": 11, "value": 100}, "group": "control_change"}, {"time": 172802, "annotation": {"number": 11, "value": 102}, "group": "control_change"}, {"time": 172818, "annotation": {"number": 11, "value": 104}, "group": "control_change"}, {"time": 172834, "annotation": {"number": 11, "value": 105}, "group": "control_change"}, {"time": 172850, "annotation": {"number": 11, "value": 107}, "group": "control_change"}, {"time": 172866, "annotation": {"number": 11, "value": 109}, "group": "control_change"}, {"time": 172882, "annotation": {"number": 11, "value": 111}, "group": "control_change"}, {"time": 172898, "annotation": {"number": 11, "value": 112}, "group": "control_change"}, {"time": 172915, "annotation": {"number": 11, "value": 114}, "group": "control_change"}, {"time": 172931, "annotation": {"number": 11, "value": 116}, "group": "control_change"}, {"time": 172947, "annotation": {"number": 11, "value": 118}, "group": "control_change"}, {"time": 172963, "annotation": {"number": 11, "value": 119}, "group": "control_change"}, {"time": 172979, "annotation": {"number": 11, "value": 121}, "group": "control_change"}, {"time": 172995, "annotation": {"number": 11, "value": 123}, "group": "control_change"}, {"time": 173011, "annotation": {"number": 11, "value": 125}, "group": "control_change"}, {"time": 173027, "annotation": {"number": 11, "value": 127}, "group": "control_change"}, {"time": 173280, "annotation": {"number": 11, "value": 110}, "group": "control_change"}, {"time": 191100, "annotation": {"number": 11, "value": 124}, "group": "control_change"}, {"time": 191132, "annotation": {"number": 11, "value": 120}, "group": "control_change"}, {"time": 191164, "annotation": {"number": 11, "value": 116}, "group": "control_change"}, {"time": 191196, "annotation": {"number": 11, "value": 112}, "group": "control_change"}, {"time": 191228, "annotation": {"number": 11, "value": 108}, "group": "control_change"}, {"time": 191260, "annotation": {"number": 11, "value": 105}, "group": "control_change"}, {"time": 191292, "annotation": {"number": 11, "value": 101}, "group": "control_change"}, {"time": 191324, "annotation": {"number": 11, "value": 97}, "group": "control_change"}, {"time": 191356, "annotation": {"number": 11, "value": 93}, "group": "control_change"}, {"time": 191388, "annotation": {"number": 11, "value": 89}, "group": "control_change"}, {"time": 191419, "annotation": {"number": 11, "value": 86}, "group": "control_change"}, {"time": 192080, "annotation": {"number": 11, "value": 126}, "group": "control_change"}, {"time": 204000, "annotation": {"number": 11, "value": 100}, "group": "control_change"}]}, {"program": 0, "is_drum": true, "name": "DRUMS", "notes": [{"time": 480, "pitch": 42, "duration": 10, "velocity": 84}, {"time": 480, "pitch": 49, "duration": 10, "velocity": 60}, {"time": 480, "pitch": 54, "duration": 10, "velocity": 86}, {"time": 480, "pitch": 61, "duration": 10, "velocity": 55}, {"time": 600, "pitch": 54, "duration": 10, "velocity": 39}, {"time": 720, "pitch": 38, "duration": 10, "velocity": 40}, {"time": 720, "pitch": 46, "duration": 10, "velocity": 75}, {"time": 720, "pitch": 54, "duration": 10, "velocity": 44}, {"time": 720, "pitch": 63, "duration": 10, "velocity": 50}, {"time": 840, "pitch": 38, "duration": 10, "velocity": 40}, {"time": 840, "pitch": 54, "duration": 10, "velocity": 37}, {"time": 840, "pitch": 63, "duration": 10, "velocity": 53}, {"time": 960, "pitch": 39, "duration": 10, "velocity": 85}, {"time": 960, "pitch": 42, "duration": 10, "velocity": 84}, {"time": 960, "pitch": 54, "duration": 10, "velocity": 49}, {"time": 960, "pitch": 62, "duration": 10, "velocity": 80}, {"time": 1080, "pitch": 54, "duration": 10, "velocity": 39}, {"time": 1200, "pitch": 46, "duration": 10, "velocity": 75}, {"time": 1200, "pitch": 54, "duration": 10, "velocity": 44}, {"time": 1200, "pitch": 64, "duration": 10, "velocity": 70}, {"time": 1320, "pitch": 38, "duration": 10, "velocity": 40}, {"time": 1320, "pitch": 54, "duration": 10, "velocity": 37}, {"time": 1320, "pitch": 63, "duration": 10, "velocity": 60}, {"time": 1440, "pitch": 42, "duration": 10, "velocity": 84}, {"time": 1440, "pitch": 54, "duration": 10, "velocity": 86}, {"time": 1560, "pitch": 38, "duration": 10, "velocity": 40}, {"time": 1560, "pitch": 42, "duration": 10, "velocity": 78}, {"time": 1560, "pitch": 54, "duration": 10, "velocity": 39}, {"time": 1560, "pitch": 62, "duration": 10, "velocity": 60}, {"time": 1680, "pitch": 46, "duration": 10, "velocity": 75}, {"time": 1680, "pitch": 54, "duration": 10, "velocity": 44}, {"time": 1680, "pitch": 60, "duration": 10, "velocity": 60}, {"time": 1800, "pitch": 54, "duration": 10, "velocity": 37}, {"time": 1920, "pitch": 39, "duration": 10, "velocity": 85}, {"time": 1920, "pitch": 42, "duration": 10, "velocity": 84}, {"time": 1920, "pitch": 54, "duration": 10, "velocity": 49}, {"time": 1920, "pitch": 64, "duration": 10, "velocity": 60}, {"time": 2040, "pitch": 54, "duration": 10, "velocity": 39}, {"time": 2160, "pitch": 46, "duration": 10, "velocity": 75}, {"time": 2160, "pitch": 54, "duration": 10, "velocity": 44}, {"time": 2160, "pitch": 61, "duration": 10, "velocity": 55}, {"time": 2280, "pitch": 38, "duration": 10, "velocity": 40}, {"time": 2280, "pitch": 54, "duration": 10, "velocity": 37}, {"time": 2280, "pitch": 61, "duration": 10, "velocity": 50}, {"time": 2400, "pitch": 42, "duration": 10, "velocity": 84}, {"time": 2400, "pitch": 54, "duration": 10, "velocity": 86}, {"time": 2400, "pitch": 63, "duration": 10, "velocity": 55}, {"time": 2520, "pitch": 54, "duration": 10, "velocity": 39}, {"time": 2640, "pitch": 38, "duration": 10, "velocity": 40}, {"time": 2640, "pitch": 46, "duration": 10, "velocity": 75}, {"time": 2640, "pitch": 54, "duration": 10, "velocity": 44}, {"time": 2640, "pitch": 61, "duration": 10, "velocity": 50}, {"time": 2760, "pitch": 38, "duration": 10, "velocity": 40}, {"time": 2760, "pitch": 54, "duration": 10, "velocity": 37}, {"time": 2760, "pitch": 63, "duration": 10, "velocity": 61}, {"time": 2880, "pitch": 39, "duration": 10, "velocity": 85}, {"time": 2880, "pitch": 42, "duration": 10, "velocity": 84}, {"time": 2880, "pitch": 54, "duration": 10, "velocity": 49}, {"time": 2880, "pitch": 62, "duration": 10, "velocity": 80}, {"time": 3000, "pitch": 54, "duration": 10, "velocity": 39}, {"time": 3120, "pitch": 46, "duration": 10, "velocity": 75}, {"time": 3120, "pitch": 54, "duration": 10, "velocity": 44}, {"time": 3120, "pitch": 64, "duration": 10, "velocity": 70}, {"time": 3240, "pitch": 38, "duration": 10, "velocity": 40}, {"time": 3240, "pitch": 54, "duration": 10, "velocity": 37}, {"time": 3240, "pitch": 63, "duration": 10, "velocity": 60}, {"time": 3360, "pitch": 42, "duration": 10, "velocity": 84}, {"time": 3360, "pitch": 54, "duration": 10, "velocity": 86}, {"time": 3480, "pitch": 38, "duration": 10, "velocity": 40}, {"time": 3480, "pitch": 42, "duration": 10, "velocity": 78}, {"time": 3480, "pitch": 54, "duration": 10, "velocity": 39}, {"time": 3480, "pitch": 63, "duration": 10, "velocity": 60}, {"time": 3600, "pitch": 46, "duration": 10, "velocity": 75}, {"time": 3600, "pitch": 54, "duration": 10, "velocity": 44}, {"time": 3600, "pitch": 60, "duration": 10, "velocity": 50}, {"time": 3720, "pitch": 54, "duration": 10, "velocity": 37}, {"time": 3840, "pitch": 39, "duration": 10, "velocity": 85}, {"time": 3840, "pitch": 42, "duration": 10, "velocity": 84}, {"time": 3840, "pitch": 54, "duration": 10, "velocity": 49}, {"time": 3840, "pitch": 61, "duration": 10, "velocity": 80}, {"time": 3960, "pitch": 54, "duration": 10, "velocity": 39}, {"time": 4080, "pitch": 46, "duration": 10, "velocity": 75}, {"time": 4080, "pitch": 54, "duration": 10, "velocity": 44}, {"time": 4080, "pitch": 64, "duration": 10, "velocity": 55}, {"time": 4200, "pitch": 38, "duration": 10, "velocity": 40}, {"time": 4200, "pitch": 54, "duration": 10, "velocity": 37}, {"time": 4200, "pitch": 64, "duration": 10, "velocity": 50}, {"time": 4320, "pitch": 42, "duration": 10, "velocity": 84}, {"time": 4320, "pitch": 54, "duration": 10, "velocity": 86}, {"time": 4320, "pitch": 61, "duration": 10, "velocity": 55}, {"time": 4440, "pitch": 54, "duration": 10, "velocity": 39}, {"time": 4560, "pitch": 38, "duration": 10, "velocity": 40}, {"time": 4560, "pitch": 46, "duration": 10, "velocity": 75}, {"time": 4560, "pitch": 54, "duration": 10, "velocity": 44}, {"time": 4560, "pitch": 63, "duration": 10, "velocity": 50}, {"time": 4680, "pitch": 38, "duration": 10, "velocity": 40}, {"time": 4680, "pitch": 54, "duration": 10, "velocity": 37}, {"time": 4680, "pitch": 63, "duration": 10, "velocity": 53}, {"time": 4800, "pitch": 39, "duration": 10, "velocity": 85}, {"time": 4800, "pitch": 42, "duration": 10, "velocity": 84}, {"time": 4800, "pitch": 54, "duration": 10, "velocity": 49}, {"time": 4800, "pitch": 62, "duration": 10, "velocity": 80}, {"time": 4920, "pitch": 54, "duration": 10, "velocity": 39}, {"time": 5040, "pitch": 46, "duration": 10, "velocity": 75}, {"time": 5040, "pitch": 54, "duration": 10, "velocity": 44}, {"time": 5040, "pitch": 64, "duration": 10, "velocity": 70}, {"time": 5160, "pitch": 38, "duration": 10, "velocity": 40}, {"time": 5160, "pitch": 54, "duration": 10, "velocity": 37}, {"time": 5160, "pitch": 63, "duration": 10, "velocity": 60}, {"time": 5280, "pitch": 42, "duration": 10, "velocity": 84}, {"time": 5280, "pitch": 54, "duration": 10, "velocity": 86}, {"time": 5400, "pitch": 38, "duration": 10, "velocity": 40}, {"time": 5400, "pitch": 42, "duration": 10, "velocity": 78}, {"time": 5400, "pitch": 54, "duration": 10, "velocity": 39}, {"time": 5400, "pitch": 62, "duration": 10, "velocity": 60}, {"time": 5520, "pitch": 46, "duration": 10, "velocity": 75}, {"time": 5520, "pitch": 54, "duration": 10, "velocity": 44}, {"time": 5520, "pitch": 60, "duration": 10, "velocity": 60}, {"time": 5640, "pitch": 54, "duration": 10, "velocity": 37}, {"time": 5760, "pitch": 39, "duration": 10, "velocity": 85}, {"time": 5760, "pitch": 42, "duration": 10, "velocity": 84}, {"time": 5760, "pitch": 54, "duration": 10, "velocity": 49}, {"time": 5760, "pitch": 64, "duration": 10, "velocity": 60}, {"time": 5880, "pitch": 54, "duration": 10, "velocity": 39}, {"time": 6000, "pitch": 46, "duration": 10, "velocity": 75}, {"time": 6000, "pitch": 54, "duration": 10, "velocity": 44}, {"time": 6000, "pitch": 61, "duration": 10, "velocity": 55}, {"time": 6120, "pitch": 38, "duration": 10, "velocity": 40}, {"time": 6120, "pitch": 54, "duration": 10, "velocity": 37}, {"time": 6120, "pitch": 61, "duration": 10, "velocity": 50}, {"time": 6240, "pitch": 42, "duration": 10, "velocity": 84}, {"time": 6240, "pitch": 54, "duration": 10, "velocity": 86}, {"time": 6240, "pitch": 63, "duration": 10, "velocity": 55}, {"time": 6360, "pitch": 54, "duration": 10, "velocity": 39}, {"time": 6480, "pitch": 38, "duration": 10, "velocity": 40}, {"time": 6480, "pitch": 46, "duration": 10, "velocity": 75}, {"time": 6480, "pitch": 54, "duration": 10, "velocity": 44}, {"time": 6480, "pitch": 61, "duration": 10, "velocity": 50}, {"time": 6600, "pitch": 38, "duration": 10, "velocity": 40}, {"time": 6600, "pitch": 54, "duration": 10, "velocity": 37}, {"time": 6600, "pitch": 63, "duration": 10, "velocity": 61}, {"time": 6720, "pitch": 39, "duration": 10, "velocity": 85}, {"time": 6720, "pitch": 42, "duration": 10, "velocity": 84}, {"time": 6720, "pitch": 54, "duration": 10, "velocity": 49}, {"time": 6720, "pitch": 62, "duration": 10, "velocity": 80}, {"time": 6840, "pitch": 54, "duration": 10, "velocity": 39}, {"time": 6960, "pitch": 46, "duration": 10, "velocity": 75}, {"time": 6960, "pitch": 54, "duration": 10, "velocity": 44}, {"time": 6960, "pitch": 64, "duration": 10, "velocity": 70}, {"time": 7080, "pitch": 38, "duration": 10, "velocity": 40}, {"time": 7080, "pitch": 54, "duration": 10, "velocity": 37}, {"time": 7080, "pitch": 63, "duration": 10, "velocity": 60}, {"time": 7200, "pitch": 42, "duration": 10, "velocity": 84}, {"time": 7200, "pitch": 54, "duration": 10, "velocity": 86}, {"time": 7320, "pitch": 38, "duration": 10, "velocity": 40}, {"time": 7320, "pitch": 42, "duration": 10, "velocity": 78}, {"time": 7320, "pitch": 54, "duration": 10, "velocity": 39}, {"time": 7320, "pitch": 63, "duration": 10, "velocity": 60}, {"time": 7440, "pitch": 46, "duration": 10, "velocity": 75}, {"time": 7440, "pitch": 54, "duration": 10, "velocity": 44}, {"time": 7440, "pitch": 60, "duration": 10, "velocity": 50}, {"time": 7560, "pitch": 54, "duration": 10, "velocity": 37}, {"time": 7680, "pitch": 39, "duration": 10, "velocity": 85}, {"time": 7680, "pitch": 42, "duration": 10, "velocity": 84}, {"time": 7680, "pitch": 54, "duration": 10, "velocity": 49}, {"time": 7680, "pitch": 61, "duration": 10, "velocity": 80}, {"time": 7800, "pitch": 54, "duration": 10, "velocity": 39}, {"time": 7920, "pitch": 46, "duration": 10, "velocity": 75}, {"time": 7920, "pitch": 54, "duration": 10, "velocity": 44}, {"time": 7920, "pitch": 64, "duration": 10, "velocity": 55}, {"time": 8040, "pitch": 38, "duration": 10, "velocity": 40}, {"time": 8040, "pitch": 54, "duration": 10, "velocity": 37}, {"time": 8040, "pitch": 64, "duration": 10, "velocity": 50}, {"time": 8160, "pitch": 35, "duration": 10, "velocity": 90}, {"time": 8160, "pitch": 42, "duration": 10, "velocity": 84}, {"time": 8160, "pitch": 54, "duration": 10, "velocity": 86}, {"time": 8160, "pitch": 57, "duration": 10, "velocity": 60}, {"time": 8160, "pitch": 61, "duration": 10, "velocity": 55}, {"time": 8280, "pitch": 54, "duration": 10, "velocity": 39}, {"time": 8400, "pitch": 38, "duration": 10, "velocity": 40}, {"time": 8400, "pitch": 46, "duration": 10, "velocity": 75}, {"time": 8400, "pitch": 54, "duration": 10, "velocity": 44}, {"time": 8400, "pitch": 63, "duration": 10, "velocity": 50}, {"time": 8520, "pitch": 38, "duration": 10, "velocity": 40}, {"time": 8520, "pitch": 54, "duration": 10, "velocity": 37}, {"time": 8520, "pitch": 63, "duration": 10, "velocity": 53}, {"time": 8640, "pitch": 35, "duration": 10, "velocity": 87}, {"time": 8640, "pitch": 39, "duration": 10, "velocity": 85}, {"time": 8640, "pitch": 42, "duration": 10, "velocity": 84}, {"time": 8640, "pitch": 54, "duration": 10, "velocity": 49}, {"time": 8640, "pitch": 62, "duration": 10, "velocity": 80}, {"time": 8760, "pitch": 54, "duration": 10, "velocity": 39}, {"time": 8880, "pitch": 46, "duration": 10, "velocity": 75}, {"time": 8880, "pitch": 54, "duration": 10, "velocity": 44}, {"time": 8880, "pitch": 64, "duration": 10, "velocity": 70}, {"time": 9000, "pitch": 38, "duration": 10, "velocity": 40}, {"time": 9000, "pitch": 54, "duration": 10, "velocity": 37}, {"time": 9000, "pitch": 63, "duration": 10, "velocity": 60}, {"time": 9120, "pitch": 35, "duration": 10, "velocity": 89}, {"time": 9120, "pitch": 42, "duration": 10, "velocity": 84}, {"time": 9120, "pitch": 54, "duration": 10, "velocity": 86}, {"time": 9240, "pitch": 38, "duration": 10, "velocity": 40}, {"time": 9240, "pitch": 42, "duration": 10, "velocity": 78}, {"time": 9240, "pitch": 54, "duration": 10, "velocity": 39}, {"time": 9240, "pitch": 62, "duration": 10, "velocity": 60}, {"time": 9360, "pitch": 46, "duration": 10, "velocity": 75}, {"time": 9360, "pitch": 54, "duration": 10, "velocity": 44}, {"time": 9360, "pitch": 60, "duration": 10, "velocity": 60}, {"time": 9480, "pitch": 54, "duration": 10, "velocity": 37}, {"time": 9600, "pitch": 35, "duration": 10, "velocity": 82}, {"time": 9600, "pitch": 39, "duration": 10, "velocity": 85}, {"time": 9600, "pitch": 42, "duration": 10, "velocity": 84}, {"time": 9600, "pitch": 54, "duration": 10, "velocity": 49}, {"time": 9600, "pitch": 64, "duration": 10, "velocity": 60}, {"time": 9720, "pitch": 54, "duration": 10, "velocity": 39}, {"time": 9840, "pitch": 46, "duration": 10, "velocity": 75}, {"time": 9840, "pitch": 54, "duration": 10, "velocity": 44}, {"time": 9840, "pitch": 61, "duration": 10, "velocity": 55}, {"time": 9960, "pitch": 38, "duration": 10, "velocity": 40}, {"time": 9960, "pitch": 54, "duration": 10, "velocity": 37}, {"time": 9960, "pitch": 61, "duration": 10, "velocity": 50}, {"time": 10080, "pitch": 35, "duration": 10, "velocity": 90}, {"time": 10080, "pitch": 42, "duration": 10, "velocity": 84}, {"time": 10080, "pitch": 54, "duration": 10, "velocity": 86}, {"time": 10080, "pitch": 63, "duration": 10, "velocity": 55}, {"time": 10200, "pitch": 54, "duration": 10, "velocity": 39}, {"time": 10320, "pitch": 38, "duration": 10, "velocity": 40}, {"time": 10320, "pitch": 46, "duration": 10, "velocity": 75}, {"time": 10320, "pitch": 54, "duration": 10, "velocity": 44}, {"time": 10320, "pitch": 61, "duration": 10, "velocity": 50}, {"time": 10440, "pitch": 38, "duration": 10, "velocity": 40}, {"time": 10440, "pitch": 54, "duration": 10, "velocity": 37}, {"time": 10440, "pitch": 63, "duration": 10, "velocity": 61}, {"time": 10560, "pitch": 35, "duration": 10, "velocity": 87}, {"time": 10560, "pitch": 39, "duration": 10, "velocity": 85}, {"time": 10560, "pitch": 42, "duration": 10, "velocity": 84}, {"time": 10560, "pitch": 54, "duration": 10, "velocity": 49}, {"time": 10560, "pitch": 62, "duration": 10, "velocity": 80}, {"time": 10680, "pitch": 54, "duration": 10, "velocity": 39}, {"time": 10800, "pitch": 46, "duration": 10, "velocity": 75}, {"time": 10800, "pitch": 54, "duration": 10, "velocity": 44}, {"time": 10800, "pitch": 64, "duration": 10, "velocity": 70}, {"time": 10920, "pitch": 38, "duration": 10, "velocity": 40}, {"time": 10920, "pitch": 54, "duration": 10, "velocity": 37}, {"time": 10920, "pitch": 63, "duration": 10, "velocity": 60}, {"time": 11040, "pitch": 35, "duration": 10, "velocity": 89}, {"time": 11040, "pitch": 42, "duration": 10, "velocity": 84}, {"time": 11040, "pitch": 54, "duration": 10, "velocity": 86}, {"time": 11160, "pitch": 38, "duration": 10, "velocity": 40}, {"time": 11160, "pitch": 42, "duration": 10, "velocity": 78}, {"time": 11160, "pitch": 54, "duration": 10, "velocity": 39}, {"time": 11160, "pitch": 63, "duration": 10, "velocity": 60}, {"time": 11280, "pitch": 46, "duration": 10, "velocity": 75}, {"time": 11280, "pitch": 54, "duration": 10, "velocity": 44}, {"time": 11280, "pitch": 60, "duration": 10, "velocity": 50}, {"time": 11400, "pitch": 54, "duration": 10, "velocity": 37}, {"time": 11520, "pitch": 35, "duration": 10, "velocity": 82}, {"time": 11520, "pitch": 39, "duration": 10, "velocity": 85}, {"time": 11520, "pitch": 42, "duration": 10, "velocity": 84}, {"time": 11520, "pitch": 54, "duration": 10, "velocity": 49}, {"time": 11520, "pitch": 61, "duration": 10, "velocity": 80}, {"time": 11640, "pitch": 54, "duration": 10, "velocity": 39}, {"time": 11760, "pitch": 46, "duration": 10, "velocity": 75}, {"time": 11760, "pitch": 54, "duration": 10, "velocity": 44}, {"time": 11760, "pitch": 64, "duration": 10, "velocity": 55}, {"time": 11880, "pitch": 38, "duration": 10, "velocity": 40}, {"time": 11880, "pitch": 54, "duration": 10, "velocity": 37}, {"time": 11880, "pitch": 64, "duration": 10, "velocity": 50}, {"time": 12000, "pitch": 35, "duration": 10, "velocity": 90}, {"time": 12000, "pitch": 42, "duration": 10, "velocity": 84}, {"time": 12000, "pitch": 54, "duration": 10, "velocity": 86}, {"time": 12000, "pitch": 61, "duration": 10, "velocity": 55}, {"time": 12120, "pitch": 54, "duration": 10, "velocity": 39}, {"time": 12240, "pitch": 38, "duration": 10, "velocity": 40}, {"time": 12240, "pitch": 46, "duration": 10, "velocity": 75}, {"time": 12240, "pitch": 54, "duration": 10, "velocity": 44}, {"time": 12240, "pitch": 63, "duration": 10, "velocity": 50}, {"time": 12360, "pitch": 38, "duration": 10, "velocity": 40}, {"time": 12360, "pitch": 54, "duration": 10, "velocity": 37}, {"time": 12360, "pitch": 63, "duration": 10, "velocity": 53}, {"time": 12480, "pitch": 35, "duration": 10, "velocity": 87}, {"time": 12480, "pitch": 39, "duration": 10, "velocity": 85}, {"time": 12480, "pitch": 42, "duration": 10, "velocity": 84}, {"time": 12480, "pitch": 54, "duration": 10, "velocity": 49}, {"time": 12480, "pitch": 62, "duration": 10, "velocity": 80}, {"time": 12600, "pitch": 54, "duration": 10, "velocity": 39}, {"time": 12720, "pitch": 46, "duration": 10, "velocity": 75}, {"time": 12720, "pitch": 54, "duration": 10, "velocity": 44}, {"time": 12720, "pitch": 64, "duration": 10, "velocity": 70}, {"time": 12840, "pitch": 38, "duration": 10, "velocity": 40}, {"time": 12840, "pitch": 54, "duration": 10, "velocity": 37}, {"time": 12840, "pitch": 63, "duration": 10, "velocity": 60}, {"time": 12960, "pitch": 35, "duration": 10, "velocity": 89}, {"time": 12960, "pitch": 42, "duration": 10, "velocity": 84}, {"time": 12960, "pitch": 54, "duration": 10, "velocity": 86}, {"time": 13080, "pitch": 38, "duration": 10, "velocity": 40}, {"time": 13080, "pitch": 42, "duration": 10, "velocity": 78}, {"time": 13080, "pitch": 54, "duration": 10, "velocity": 39}, {"time": 13080, "pitch": 62, "duration": 10, "velocity": 60}, {"time": 13200, "pitch": 46, "duration": 10, "velocity": 75}, {"time": 13200, "pitch": 54, "duration": 10, "velocity": 44}, {"time": 13200, "pitch": 60, "duration": 10, "velocity": 60}, {"time": 13320, "pitch": 54, "duration": 10, "velocity": 37}, {"time": 13440, "pitch": 35, "duration": 10, "velocity": 82}, {"time": 13440, "pitch": 39, "duration": 10, "velocity": 85}, {"time": 13440, "pitch": 42, "duration": 10, "velocity": 84}, {"time": 13440, "pitch": 54, "duration": 10, "velocity": 49}, {"time": 13440, "pitch": 64, "duration": 10, "velocity": 60}, {"time": 13560, "pitch": 54, "duration": 10, "velocity": 39}, {"time": 13680, "pitch": 46, "duration": 10, "velocity": 75}, {"time": 13680, "pitch": 54, "duration": 10, "velocity": 44}, {"time": 13680, "pitch": 61, "duration": 10, "velocity": 55}, {"time": 13800, "pitch": 38, "duration": 10, "velocity": 40}, {"time": 13800, "pitch": 54, "duration": 10, "velocity": 37}, {"time": 13800, "pitch": 61, "duration": 10, "velocity": 50}, {"time": 13920, "pitch": 35, "duration": 10, "velocity": 90}, {"time": 13920, "pitch": 42, "duration": 10, "velocity": 84}, {"time": 13920, "pitch": 54, "duration": 10, "velocity": 86}, {"time": 13920, "pitch": 63, "duration": 10, "velocity": 55}, {"time": 14040, "pitch": 54, "duration": 10, "velocity": 39}, {"time": 14160, "pitch": 38, "duration": 10, "velocity": 40}, {"time": 14160, "pitch": 46, "duration": 10, "velocity": 75}, {"time": 14160, "pitch": 54, "duration": 10, "velocity": 44}, {"time": 14160, "pitch": 61, "duration": 10, "velocity": 50}, {"time": 14280, "pitch": 38, "duration": 10, "velocity": 40}, {"time": 14280, "pitch": 54, "duration": 10, "velocity": 37}, {"time": 14280, "pitch": 63, "duration": 10, "velocity": 61}, {"time": 14400, "pitch": 35, "duration": 10, "velocity": 87}, {"time": 14400, "pitch": 39, "duration": 10, "velocity": 85}, {"time": 14400, "pitch": 42, "duration": 10, "velocity": 84}, {"time": 14400, "pitch": 54, "duration": 10, "velocity": 49}, {"time": 14400, "pitch": 62, "duration": 10, "velocity": 80}, {"time": 14520, "pitch": 54, "duration": 10, "velocity": 39}, {"time": 14640, "pitch": 46, "duration": 10, "velocity": 75}, {"time": 14640, "pitch": 54, "duration": 10, "velocity": 44}, {"time": 14640, "pitch": 64, "duration": 10, "velocity": 70}, {"time": 14760, "pitch": 38, "duration": 10, "velocity": 40}, {"time": 14760, "pitch": 54, "duration": 10, "velocity": 37}, {"time": 14760, "pitch": 63, "duration": 10, "velocity": 60}, {"time": 14880, "pitch": 35, "duration": 10, "velocity": 89}, {"time": 14880, "pitch": 42, "duration": 10, "velocity": 84}, {"time": 14880, "pitch": 54, "duration": 10, "velocity": 86}, {"time": 15000, "pitch": 38, "duration": 10, "velocity": 40}, {"time": 15000, "pitch": 42, "duration": 10, "velocity": 78}, {"time": 15000, "pitch": 54, "duration": 10, "velocity": 39}, {"time": 15000, "pitch": 63, "duration": 10, "velocity": 60}, {"time": 15120, "pitch": 46, "duration": 10, "velocity": 75}, {"time": 15120, "pitch": 54, "duration": 10, "velocity": 44}, {"time": 15120, "pitch": 60, "duration": 10, "velocity": 50}, {"time": 15240, "pitch": 54, "duration": 10, "velocity": 37}, {"time": 15360, "pitch": 35, "duration": 10, "velocity": 82}, {"time": 15360, "pitch": 39, "duration": 10, "velocity": 85}, {"time": 15360, "pitch": 42, "duration": 10, "velocity": 84}, {"time": 15360, "pitch": 54, "duration": 10, "velocity": 49}, {"time": 15360, "pitch": 61, "duration": 10, "velocity": 80}, {"time": 15480, "pitch": 54, "duration": 10, "velocity": 39}, {"time": 15600, "pitch": 46, "duration": 10, "velocity": 75}, {"time": 15600, "pitch": 54, "duration": 10, "velocity": 44}, {"time": 15600, "pitch": 64, "duration": 10, "velocity": 55}, {"time": 15720, "pitch": 38, "duration": 10, "velocity": 40}, {"time": 15720, "pitch": 54, "duration": 10, "velocity": 37}, {"time": 15720, "pitch": 64, "duration": 10, "velocity": 50}, {"time": 15840, "pitch": 35, "duration": 10, "velocity": 91}, {"time": 15840, "pitch": 40, "duration": 10, "velocity": 100}, {"time": 15840, "pitch": 61, "duration": 10, "velocity": 55}, {"time": 16080, "pitch": 35, "duration": 10, "velocity": 85}, {"time": 16080, "pitch": 38, "duration": 10, "velocity": 40}, {"time": 16080, "pitch": 40, "duration": 10, "velocity": 88}, {"time": 16080, "pitch": 63, "duration": 10, "velocity": 50}, {"time": 16200, "pitch": 38, "duration": 10, "velocity": 40}, {"time": 16200, "pitch": 63, "duration": 10, "velocity": 53}, {"time": 16320, "pitch": 62, "duration": 10, "velocity": 80}, {"time": 16560, "pitch": 64, "duration": 10, "velocity": 70}, {"time": 16680, "pitch": 38, "duration": 10, "velocity": 40}, {"time": 16680, "pitch": 63, "duration": 10, "velocity": 60}, {"time": 16800, "pitch": 35, "duration": 10, "velocity": 91}, {"time": 16800, "pitch": 40, "duration": 10, "velocity": 100}, {"time": 16920, "pitch": 38, "duration": 10, "velocity": 40}, {"time": 16920, "pitch": 62, "duration": 10, "velocity": 60}, {"time": 17040, "pitch": 35, "duration": 10, "velocity": 85}, {"time": 17040, "pitch": 40, "duration": 10, "velocity": 85}, {"time": 17040, "pitch": 60, "duration": 10, "velocity": 60}, {"time": 17280, "pitch": 64, "duration": 10, "velocity": 60}, {"time": 17520, "pitch": 35, "duration": 10, "velocity": 85}, {"time": 17520, "pitch": 61, "duration": 10, "velocity": 55}, {"time": 17640, "pitch": 38, "duration": 10, "velocity": 40}, {"time": 17640, "pitch": 61, "duration": 10, "velocity": 50}, {"time": 17760, "pitch": 63, "duration": 10, "velocity": 55}, {"time": 18000, "pitch": 38, "duration": 10, "velocity": 40}, {"time": 18000, "pitch": 61, "duration": 10, "velocity": 50}, {"time": 18120, "pitch": 38, "duration": 10, "velocity": 40}, {"time": 18120, "pitch": 63, "duration": 10, "velocity": 61}, {"time": 18240, "pitch": 35, "duration": 10, "velocity": 82}, {"time": 18240, "pitch": 49, "duration": 10, "velocity": 60}, {"time": 18240, "pitch": 62, "duration": 10, "velocity": 80}, {"time": 18480, "pitch": 48, "duration": 40, "velocity": 81}, {"time": 18480, "pitch": 64, "duration": 10, "velocity": 70}, {"time": 18600, "pitch": 38, "duration": 10, "velocity": 40}, {"time": 18600, "pitch": 63, "duration": 10, "velocity": 60}, {"time": 18840, "pitch": 38, "duration": 10, "velocity": 40}, {"time": 18840, "pitch": 63, "duration": 10, "velocity": 60}, {"time": 18960, "pitch": 45, "duration": 60, "velocity": 76}, {"time": 18960, "pitch": 60, "duration": 10, "velocity": 50}, {"time": 19200, "pitch": 35, "duration": 10, "velocity": 74}, {"time": 19200, "pitch": 42, "duration": 10, "velocity": 84}, {"time": 19200, "pitch": 61, "duration": 10, "velocity": 80}, {"time": 19320, "pitch": 42, "duration": 10, "velocity": 48}, {"time": 19440, "pitch": 38, "duration": 40, "velocity": 76}, {"time": 19440, "pitch": 46, "duration": 10, "velocity": 75}, {"time": 19440, "pitch": 64, "duration": 10, "velocity": 55}, {"time": 19560, "pitch": 38, "duration": 40, "velocity": 40}, {"time": 19560, "pitch": 64, "duration": 10, "velocity": 50}, {"time": 19680, "pitch": 35, "duration": 10, "velocity": 90}, {"time": 19680, "pitch": 42, "duration": 10, "velocity": 84}, {"time": 19680, "pitch": 49, "duration": 10, "velocity": 60}, {"time": 19680, "pitch": 54, "duration": 10, "velocity": 86}, {"time": 19680, "pitch": 61, "duration": 10, "velocity": 55}, {"time": 19800, "pitch": 54, "duration": 10, "velocity": 39}, {"time": 19920, "pitch": 38, "duration": 10, "velocity": 40}, {"time": 19920, "pitch": 46, "duration": 10, "velocity": 75}, {"time": 19920, "pitch": 54, "duration": 10, "velocity": 44}, {"time": 19920, "pitch": 63, "duration": 10, "velocity": 50}, {"time": 20040, "pitch": 38, "duration": 10, "velocity": 40}, {"time": 20040, "pitch": 54, "duration": 10, "velocity": 37}, {"time": 20040, "pitch": 63, "duration": 10, "velocity": 53}, {"time": 20160, "pitch": 35, "duration": 10, "velocity": 87}, {"time": 20160, "pitch": 39, "duration": 10, "velocity": 85}, {"time": 20160, "pitch": 40, "duration": 10, "velocity": 85}, {"time": 20160, "pitch": 42, "duration": 10, "velocity": 84}, {"time": 20160, "pitch": 54, "duration": 10, "velocity": 49}, {"time": 20160, "pitch": 62, "duration": 10, "velocity": 80}, {"time": 20280, "pitch": 54, "duration": 10, "velocity": 39}, {"time": 20400, "pitch": 46, "duration": 10, "velocity": 75}, {"time": 20400, "pitch": 54, "duration": 10, "velocity": 44}, {"time": 20400, "pitch": 64, "duration": 10, "velocity": 70}, {"time": 20520, "pitch": 38, "duration": 10, "velocity": 40}, {"time": 20520, "pitch": 54, "duration": 10, "velocity": 37}, {"time": 20520, "pitch": 63, "duration": 10, "velocity": 60}, {"time": 20640, "pitch": 35, "duration": 10, "velocity": 89}, {"time": 20640, "pitch": 42, "duration": 10, "velocity": 84}, {"time": 20640, "pitch": 54, "duration": 10, "velocity": 86}, {"time": 20760, "pitch": 38, "duration": 10, "velocity": 40}, {"time": 20760, "pitch": 42, "duration": 10, "velocity": 78}, {"time": 20760, "pitch": 54, "duration": 10, "velocity": 39}, {"time": 20760, "pitch": 62, "duration": 10, "velocity": 60}, {"time": 20880, "pitch": 46, "duration": 10, "velocity": 75}, {"time": 20880, "pitch": 54, "duration": 10, "velocity": 44}, {"time": 20880, "pitch": 60, "duration": 10, "velocity": 60}, {"time": 21000, "pitch": 54, "duration": 10, "velocity": 37}, {"time": 21120, "pitch": 35, "duration": 10, "velocity": 82}, {"time": 21120, "pitch": 39, "duration": 10, "velocity": 85}, {"time": 21120, "pitch": 40, "duration": 10, "velocity": 89}, {"time": 21120, "pitch": 42, "duration": 10, "velocity": 84}, {"time": 21120, "pitch": 54, "duration": 10, "velocity": 49}, {"time": 21120, "pitch": 64, "duration": 10, "velocity": 60}, {"time": 21240, "pitch": 54, "duration": 10, "velocity": 39}, {"time": 21360, "pitch": 46, "duration": 10, "velocity": 75}, {"time": 21360, "pitch": 54, "duration": 10, "velocity": 44}, {"time": 21360, "pitch": 61, "duration": 10, "velocity": 55}, {"time": 21480, "pitch": 38, "duration": 10, "velocity": 40}, {"time": 21480, "pitch": 54, "duration": 10, "velocity": 37}, {"time": 21480, "pitch": 61, "duration": 10, "velocity": 50}, {"time": 21600, "pitch": 35, "duration": 10, "velocity": 90}, {"time": 21600, "pitch": 42, "duration": 10, "velocity": 84}, {"time": 21600, "pitch": 54, "duration": 10, "velocity": 86}, {"time": 21600, "pitch": 63, "duration": 10, "velocity": 55}, {"time": 21720, "pitch": 54, "duration": 10, "velocity": 39}, {"time": 21840, "pitch": 38, "duration": 10, "velocity": 40}, {"time": 21840, "pitch": 46, "duration": 10, "velocity": 75}, {"time": 21840, "pitch": 54, "duration": 10, "velocity": 44}, {"time": 21840, "pitch": 61, "duration": 10, "velocity": 50}, {"time": 21960, "pitch": 38, "duration": 10, "velocity": 40}, {"time": 21960, "pitch": 54, "duration": 10, "velocity": 37}, {"time": 21960, "pitch": 63, "duration": 10, "velocity": 61}, {"time": 22080, "pitch": 35, "duration": 10, "velocity": 87}, {"time": 22080, "pitch": 39, "duration": 10, "velocity": 85}, {"time": 22080, "pitch": 40, "duration": 10, "velocity": 85}, {"time": 22080, "pitch": 42, "duration": 10, "velocity": 84}, {"time": 22080, "pitch": 54, "duration": 10, "velocity": 49}, {"time": 22080, "pitch": 62, "duration": 10, "velocity": 80}, {"time": 22200, "pitch": 54, "duration": 10, "velocity": 39}, {"time": 22320, "pitch": 46, "duration": 10, "velocity": 75}, {"time": 22320, "pitch": 54, "duration": 10, "velocity": 44}, {"time": 22320, "pitch": 64, "duration": 10, "velocity": 70}, {"time": 22440, "pitch": 38, "duration": 10, "velocity": 40}, {"time": 22440, "pitch": 54, "duration": 10, "velocity": 37}, {"time": 22440, "pitch": 63, "duration": 10, "velocity": 60}, {"time": 22560, "pitch": 35, "duration": 10, "velocity": 89}, {"time": 22560, "pitch": 42, "duration": 10, "velocity": 84}, {"time": 22560, "pitch": 54, "duration": 10, "velocity": 86}, {"time": 22680, "pitch": 38, "duration": 10, "velocity": 40}, {"time": 22680, "pitch": 42, "duration": 10, "velocity": 78}, {"time": 22680, "pitch": 54, "duration": 10, "velocity": 39}, {"time": 22680, "pitch": 63, "duration": 10, "velocity": 60}, {"time": 22800, "pitch": 46, "duration": 10, "velocity": 75}, {"time": 22800, "pitch": 54, "duration": 10, "velocity": 44}, {"time": 22800, "pitch": 60, "duration": 10, "velocity": 50}, {"time": 22920, "pitch": 54, "duration": 10, "velocity": 37}, {"time": 23040, "pitch": 35, "duration": 10, "velocity": 82}, {"time": 23040, "pitch": 39, "duration": 10, "velocity": 85}, {"time": 23040, "pitch": 40, "duration": 10, "velocity": 89}, {"time": 23040, "pitch": 42, "duration": 10, "velocity": 84}, {"time": 23040, "pitch": 54, "duration": 10, "velocity": 49}, {"time": 23040, "pitch": 61, "duration": 10, "velocity": 80}, {"time": 23160, "pitch": 54, "duration": 10, "velocity": 39}, {"time": 23280, "pitch": 46, "duration": 10, "velocity": 75}, {"time": 23280, "pitch": 54, "duration": 10, "velocity": 44}, {"time": 23280, "pitch": 64, "duration": 10, "velocity": 55}, {"time": 23400, "pitch": 38, "duration": 10, "velocity": 40}, {"time": 23400, "pitch": 54, "duration": 10, "velocity": 37}, {"time": 23400, "pitch": 64, "duration": 10, "velocity": 50}, {"time": 23520, "pitch": 35, "duration": 10, "velocity": 90}, {"time": 23520, "pitch": 42, "duration": 10, "velocity": 84}, {"time": 23520, "pitch": 54, "duration": 10, "velocity": 86}, {"time": 23520, "pitch": 61, "duration": 10, "velocity": 55}, {"time": 23640, "pitch": 54, "duration": 10, "velocity": 39}, {"time": 23760, "pitch": 38, "duration": 10, "velocity": 40}, {"time": 23760, "pitch": 46, "duration": 10, "velocity": 75}, {"time": 23760, "pitch": 54, "duration": 10, "velocity": 44}, {"time": 23760, "pitch": 63, "duration": 10, "velocity": 50}, {"time": 23880, "pitch": 38, "duration": 10, "velocity": 40}, {"time": 23880, "pitch": 54, "duration": 10, "velocity": 37}, {"time": 23880, "pitch": 63, "duration": 10, "velocity": 53}, {"time": 24000, "pitch": 35, "duration": 10, "velocity": 87}, {"time": 24000, "pitch": 39, "duration": 10, "velocity": 85}, {"time": 24000, "pitch": 40, "duration": 10, "velocity": 85}, {"time": 24000, "pitch": 42, "duration": 10, "velocity": 84}, {"time": 24000, "pitch": 54, "duration": 10, "velocity": 49}, {"time": 24000, "pitch": 62, "duration": 10, "velocity": 80}, {"time": 24120, "pitch": 54, "duration": 10, "velocity": 39}, {"time": 24240, "pitch": 46, "duration": 10, "velocity": 75}, {"time": 24240, "pitch": 54, "duration": 10, "velocity": 44}, {"time": 24240, "pitch": 64, "duration": 10, "velocity": 70}, {"time": 24360, "pitch": 38, "duration": 10, "velocity": 40}, {"time": 24360, "pitch": 54, "duration": 10, "velocity": 37}, {"time": 24360, "pitch": 63, "duration": 10, "velocity": 60}, {"time": 24480, "pitch": 35, "duration": 10, "velocity": 89}, {"time": 24480, "pitch": 42, "duration": 10, "velocity": 84}, {"time": 24480, "pitch": 54, "duration": 10, "velocity": 86}, {"time": 24600, "pitch": 38, "duration": 10, "velocity": 40}, {"time": 24600, "pitch": 42, "duration": 10, "velocity": 78}, {"time": 24600, "pitch": 54, "duration": 10, "velocity": 39}, {"time": 24600, "pitch": 62, "duration": 10, "velocity": 60}, {"time": 24720, "pitch": 46, "duration": 10, "velocity": 75}, {"time": 24720, "pitch": 54, "duration": 10, "velocity": 44}, {"time": 24720, "pitch": 60, "duration": 10, "velocity": 60}, {"time": 24840, "pitch": 54, "duration": 10, "velocity": 37}, {"time": 24960, "pitch": 35, "duration": 10, "velocity": 82}, {"time": 24960, "pitch": 39, "duration": 10, "velocity": 85}, {"time": 24960, "pitch": 40, "duration": 10, "velocity": 89}, {"time": 24960, "pitch": 42, "duration": 10, "velocity": 84}, {"time": 24960, "pitch": 54, "duration": 10, "velocity": 49}, {"time": 24960, "pitch": 64, "duration": 10, "velocity": 60}, {"time": 25080, "pitch": 54, "duration": 10, "velocity": 39}, {"time": 25200, "pitch": 46, "duration": 10, "velocity": 75}, {"time": 25200, "pitch": 54, "duration": 10, "velocity": 44}, {"time": 25200, "pitch": 61, "duration": 10, "velocity": 55}, {"time": 25320, "pitch": 38, "duration": 10, "velocity": 40}, {"time": 25320, "pitch": 54, "duration": 10, "velocity": 37}, {"time": 25320, "pitch": 61, "duration": 10, "velocity": 50}, {"time": 25440, "pitch": 35, "duration": 10, "velocity": 90}, {"time": 25440, "pitch": 42, "duration": 10, "velocity": 84}, {"time": 25440, "pitch": 54, "duration": 10, "velocity": 86}, {"time": 25440, "pitch": 63, "duration": 10, "velocity": 55}, {"time": 25560, "pitch": 54, "duration": 10, "velocity": 39}, {"time": 25680, "pitch": 38, "duration": 10, "velocity": 40}, {"time": 25680, "pitch": 46, "duration": 10, "velocity": 75}, {"time": 25680, "pitch": 54, "duration": 10, "velocity": 44}, {"time": 25680, "pitch": 61, "duration": 10, "velocity": 50}, {"time": 25800, "pitch": 38, "duration": 10, "velocity": 40}, {"time": 25800, "pitch": 54, "duration": 10, "velocity": 37}, {"time": 25800, "pitch": 63, "duration": 10, "velocity": 61}, {"time": 25920, "pitch": 35, "duration": 10, "velocity": 87}, {"time": 25920, "pitch": 39, "duration": 10, "velocity": 85}, {"time": 25920, "pitch": 40, "duration": 10, "velocity": 85}, {"time": 25920, "pitch": 42, "duration": 10, "velocity": 84}, {"time": 25920, "pitch": 54, "duration": 10, "velocity": 49}, {"time": 25920, "pitch": 62, "duration": 10, "velocity": 80}, {"time": 26040, "pitch": 54, "duration": 10, "velocity": 39}, {"time": 26160, "pitch": 46, "duration": 10, "velocity": 75}, {"time": 26160, "pitch": 54, "duration": 10, "velocity": 44}, {"time": 26160, "pitch": 64, "duration": 10, "velocity": 70}, {"time": 26280, "pitch": 38, "duration": 10, "velocity": 40}, {"time": 26280, "pitch": 54, "duration": 10, "velocity": 37}, {"time": 26280, "pitch": 63, "duration": 10, "velocity": 60}, {"time": 26400, "pitch": 35, "duration": 10, "velocity": 89}, {"time": 26400, "pitch": 42, "duration": 10, "velocity": 84}, {"time": 26400, "pitch": 54, "duration": 10, "velocity": 86}, {"time": 26520, "pitch": 38, "duration": 10, "velocity": 40}, {"time": 26520, "pitch": 42, "duration": 10, "velocity": 78}, {"time": 26520, "pitch": 54, "duration": 10, "velocity": 39}, {"time": 26520, "pitch": 63, "duration": 10, "velocity": 60}, {"time": 26640, "pitch": 46, "duration": 10, "velocity": 75}, {"time": 26640, "pitch": 54, "duration": 10, "velocity": 44}, {"time": 26640, "pitch": 60, "duration": 10, "velocity": 50}, {"time": 26760, "pitch": 54, "duration": 10, "velocity": 37}, {"time": 26880, "pitch": 35, "duration": 10, "velocity": 82}, {"time": 26880, "pitch": 39, "duration": 10, "velocity": 85}, {"time": 26880, "pitch": 40, "duration": 10, "velocity": 89}, {"time": 26880, "pitch": 42, "duration": 10, "velocity": 84}, {"time": 26880, "pitch": 54, "duration": 10, "velocity": 49}, {"time": 26880, "pitch": 61, "duration": 10, "velocity": 80}, {"time": 27000, "pitch": 54, "duration": 10, "velocity": 39}, {"time": 27120, "pitch": 46, "duration": 10, "velocity": 75}, {"time": 27120, "pitch": 54, "duration": 10, "velocity": 44}, {"time": 27120, "pitch": 64, "duration": 10, "velocity": 55}, {"time": 27240, "pitch": 38, "duration": 10, "velocity": 40}, {"time": 27240, "pitch": 54, "duration": 10, "velocity": 37}, {"time": 27240, "pitch": 64, "duration": 10, "velocity": 50}, {"time": 27360, "pitch": 35, "duration": 10, "velocity": 90}, {"time": 27360, "pitch": 42, "duration": 10, "velocity": 84}, {"time": 27360, "pitch": 54, "duration": 10, "velocity": 86}, {"time": 27360, "pitch": 57, "duration": 10, "velocity": 60}, {"time": 27360, "pitch": 61, "duration": 10, "velocity": 55}, {"time": 27480, "pitch": 54, "duration": 10, "velocity": 39}, {"time": 27600, "pitch": 38, "duration": 10, "velocity": 40}, {"time": 27600, "pitch": 46, "duration": 10, "velocity": 75}, {"time": 27600, "pitch": 54, "duration": 10, "velocity": 44}, {"time": 27600, "pitch": 63, "duration": 10, "velocity": 50}, {"time": 27720, "pitch": 38, "duration": 10, "velocity": 40}, {"time": 27720, "pitch": 54, "duration": 10, "velocity": 37}, {"time": 27720, "pitch": 63, "duration": 10, "velocity": 53}, {"time": 27840, "pitch": 35, "duration": 10, "velocity": 87}, {"time": 27840, "pitch": 39, "duration": 10, "velocity": 85}, {"time": 27840, "pitch": 40, "duration": 10, "velocity": 85}, {"time": 27840, "pitch": 42, "duration": 10, "velocity": 84}, {"time": 27840, "pitch": 54, "duration": 10, "velocity": 49}, {"time": 27840, "pitch": 62, "duration": 10, "velocity": 80}, {"time": 27960, "pitch": 54, "duration": 10, "velocity": 39}, {"time": 28080, "pitch": 46, "duration": 10, "velocity": 75}, {"time": 28080, "pitch": 54, "duration": 10, "velocity": 44}, {"time": 28080, "pitch": 64, "duration": 10, "velocity": 70}, {"time": 28200, "pitch": 38, "duration": 10, "velocity": 40}, {"time": 28200, "pitch": 54, "duration": 10, "velocity": 37}, {"time": 28200, "pitch": 63, "duration": 10, "velocity": 60}, {"time": 28320, "pitch": 35, "duration": 10, "velocity": 89}, {"time": 28320, "pitch": 42, "duration": 10, "velocity": 84}, {"time": 28320, "pitch": 54, "duration": 10, "velocity": 86}, {"time": 28440, "pitch": 38, "duration": 10, "velocity": 40}, {"time": 28440, "pitch": 42, "duration": 10, "velocity": 78}, {"time": 28440, "pitch": 54, "duration": 10, "velocity": 39}, {"time": 28440, "pitch": 62, "duration": 10, "velocity": 60}, {"time": 28560, "pitch": 46, "duration": 10, "velocity": 75}, {"time": 28560, "pitch": 54, "duration": 10, "velocity": 44}, {"time": 28560, "pitch": 60, "duration": 10, "velocity": 60}, {"time": 28680, "pitch": 54, "duration": 10, "velocity": 37}, {"time": 28800, "pitch": 35, "duration": 10, "velocity": 82}, {"time": 28800, "pitch": 39, "duration": 10, "velocity": 85}, {"time": 28800, "pitch": 40, "duration": 10, "velocity": 89}, {"time": 28800, "pitch": 42, "duration": 10, "velocity": 84}, {"time": 28800, "pitch": 54, "duration": 10, "velocity": 49}, {"time": 28800, "pitch": 64, "duration": 10, "velocity": 60}, {"time": 28920, "pitch": 54, "duration": 10, "velocity": 39}, {"time": 29040, "pitch": 46, "duration": 10, "velocity": 75}, {"time": 29040, "pitch": 54, "duration": 10, "velocity": 44}, {"time": 29040, "pitch": 61, "duration": 10, "velocity": 55}, {"time": 29160, "pitch": 38, "duration": 10, "velocity": 40}, {"time": 29160, "pitch": 54, "duration": 10, "velocity": 37}, {"time": 29160, "pitch": 61, "duration": 10, "velocity": 50}, {"time": 29280, "pitch": 35, "duration": 10, "velocity": 90}, {"time": 29280, "pitch": 42, "duration": 10, "velocity": 84}, {"time": 29280, "pitch": 54, "duration": 10, "velocity": 86}, {"time": 29280, "pitch": 63, "duration": 10, "velocity": 55}, {"time": 29400, "pitch": 54, "duration": 10, "velocity": 39}, {"time": 29520, "pitch": 38, "duration": 10, "velocity": 40}, {"time": 29520, "pitch": 46, "duration": 10, "velocity": 75}, {"time": 29520, "pitch": 54, "duration": 10, "velocity": 44}, {"time": 29520, "pitch": 61, "duration": 10, "velocity": 50}, {"time": 29640, "pitch": 38, "duration": 10, "velocity": 40}, {"time": 29640, "pitch": 54, "duration": 10, "velocity": 37}, {"time": 29640, "pitch": 63, "duration": 10, "velocity": 61}, {"time": 29760, "pitch": 35, "duration": 10, "velocity": 87}, {"time": 29760, "pitch": 39, "duration": 10, "velocity": 85}, {"time": 29760, "pitch": 40, "duration": 10, "velocity": 85}, {"time": 29760, "pitch": 42, "duration": 10, "velocity": 84}, {"time": 29760, "pitch": 54, "duration": 10, "velocity": 49}, {"time": 29760, "pitch": 62, "duration": 10, "velocity": 80}, {"time": 29880, "pitch": 54, "duration": 10, "velocity": 39}, {"time": 30000, "pitch": 46, "duration": 10, "velocity": 75}, {"time": 30000, "pitch": 54, "duration": 10, "velocity": 44}, {"time": 30000, "pitch": 64, "duration": 10, "velocity": 70}, {"time": 30120, "pitch": 38, "duration": 10, "velocity": 40}, {"time": 30120, "pitch": 54, "duration": 10, "velocity": 37}, {"time": 30120, "pitch": 63, "duration": 10, "velocity": 60}, {"time": 30240, "pitch": 35, "duration": 10, "velocity": 89}, {"time": 30240, "pitch": 42, "duration": 10, "velocity": 84}, {"time": 30240, "pitch": 54, "duration": 10, "velocity": 86}, {"time": 30360, "pitch": 38, "duration": 10, "velocity": 40}, {"time": 30360, "pitch": 42, "duration": 10, "velocity": 78}, {"time": 30360, "pitch": 54, "duration": 10, "velocity": 39}, {"time": 30360, "pitch": 63, "duration": 10, "velocity": 60}, {"time": 30480, "pitch": 46, "duration": 10, "velocity": 75}, {"time": 30480, "pitch": 54, "duration": 10, "velocity": 44}, {"time": 30480, "pitch": 60, "duration": 10, "velocity": 50}, {"time": 30600, "pitch": 54, "duration": 10, "velocity": 37}, {"time": 30720, "pitch": 35, "duration": 10, "velocity": 82}, {"time": 30720, "pitch": 39, "duration": 10, "velocity": 85}, {"time": 30720, "pitch": 40, "duration": 10, "velocity": 89}, {"time": 30720, "pitch": 42, "duration": 10, "velocity": 84}, {"time": 30720, "pitch": 54, "duration": 10, "velocity": 49}, {"time": 30720, "pitch": 61, "duration": 10, "velocity": 80}, {"time": 30840, "pitch": 54, "duration": 10, "velocity": 39}, {"time": 30960, "pitch": 46, "duration": 10, "velocity": 75}, {"time": 30960, "pitch": 54, "duration": 10, "velocity": 44}, {"time": 30960, "pitch": 64, "duration": 10, "velocity": 55}, {"time": 31080, "pitch": 38, "duration": 10, "velocity": 40}, {"time": 31080, "pitch": 54, "duration": 10, "velocity": 37}, {"time": 31080, "pitch": 64, "duration": 10, "velocity": 50}, {"time": 31200, "pitch": 35, "duration": 10, "velocity": 90}, {"time": 31200, "pitch": 42, "duration": 10, "velocity": 84}, {"time": 31200, "pitch": 54, "duration": 10, "velocity": 86}, {"time": 31200, "pitch": 61, "duration": 10, "velocity": 55}, {"time": 31320, "pitch": 54, "duration": 10, "velocity": 39}, {"time": 31440, "pitch": 38, "duration": 10, "velocity": 40}, {"time": 31440, "pitch": 46, "duration": 10, "velocity": 75}, {"time": 31440, "pitch": 54, "duration": 10, "velocity": 44}, {"time": 31440, "pitch": 63, "duration": 10, "velocity": 50}, {"time": 31560, "pitch": 38, "duration": 10, "velocity": 40}, {"time": 31560, "pitch": 54, "duration": 10, "velocity": 37}, {"time": 31560, "pitch": 63, "duration": 10, "velocity": 53}, {"time": 31680, "pitch": 35, "duration": 10, "velocity": 87}, {"time": 31680, "pitch": 39, "duration": 10, "velocity": 85}, {"time": 31680, "pitch": 40, "duration": 10, "velocity": 85}, {"time": 31680, "pitch": 42, "duration": 10, "velocity": 84}, {"time": 31680, "pitch": 54, "duration": 10, "velocity": 49}, {"time": 31680, "pitch": 62, "duration": 10, "velocity": 80}, {"time": 31800, "pitch": 54, "duration": 10, "velocity": 39}, {"time": 31920, "pitch": 46, "duration": 10, "velocity": 75}, {"time": 31920, "pitch": 54, "duration": 10, "velocity": 44}, {"time": 31920, "pitch": 64, "duration": 10, "velocity": 70}, {"time": 32040, "pitch": 38, "duration": 10, "velocity": 40}, {"time": 32040, "pitch": 54, "duration": 10, "velocity": 37}, {"time": 32040, "pitch": 63, "duration": 10, "velocity": 60}, {"time": 32160, "pitch": 35, "duration": 10, "velocity": 89}, {"time": 32160, "pitch": 42, "duration": 10, "velocity": 84}, {"time": 32160, "pitch": 54, "duration": 10, "velocity": 86}, {"time": 32280, "pitch": 38, "duration": 10, "velocity": 40}, {"time": 32280, "pitch": 42, "duration": 10, "velocity": 78}, {"time": 32280, "pitch": 54, "duration": 10, "velocity": 39}, {"time": 32280, "pitch": 62, "duration": 10, "velocity": 60}, {"time": 32400, "pitch": 46, "duration": 10, "velocity": 75}, {"time": 32400, "pitch": 54, "duration": 10, "velocity": 44}, {"time": 32400, "pitch": 60, "duration": 10, "velocity": 60}, {"time": 32520, "pitch": 54, "duration": 10, "velocity": 37}, {"time": 32640, "pitch": 35, "duration": 10, "velocity": 82}, {"time": 32640, "pitch": 39, "duration": 10, "velocity": 85}, {"time": 32640, "pitch": 40, "duration": 10, "velocity": 89}, {"time": 32640, "pitch": 42, "duration": 10, "velocity": 84}, {"time": 32640, "pitch": 54, "duration": 10, "velocity": 49}, {"time": 32640, "pitch": 64, "duration": 10, "velocity": 60}, {"time": 32760, "pitch": 54, "duration": 10, "velocity": 39}, {"time": 32880, "pitch": 46, "duration": 10, "velocity": 75}, {"time": 32880, "pitch": 54, "duration": 10, "velocity": 44}, {"time": 32880, "pitch": 61, "duration": 10, "velocity": 55}, {"time": 33000, "pitch": 38, "duration": 10, "velocity": 40}, {"time": 33000, "pitch": 54, "duration": 10, "velocity": 37}, {"time": 33000, "pitch": 61, "duration": 10, "velocity": 50}, {"time": 33120, "pitch": 35, "duration": 10, "velocity": 90}, {"time": 33120, "pitch": 42, "duration": 10, "velocity": 84}, {"time": 33120, "pitch": 54, "duration": 10, "velocity": 86}, {"time": 33120, "pitch": 63, "duration": 10, "velocity": 55}, {"time": 33240, "pitch": 54, "duration": 10, "velocity": 39}, {"time": 33360, "pitch": 38, "duration": 10, "velocity": 40}, {"time": 33360, "pitch": 46, "duration": 10, "velocity": 75}, {"time": 33360, "pitch": 54, "duration": 10, "velocity": 44}, {"time": 33360, "pitch": 61, "duration": 10, "velocity": 50}, {"time": 33480, "pitch": 38, "duration": 10, "velocity": 40}, {"time": 33480, "pitch": 54, "duration": 10, "velocity": 37}, {"time": 33480, "pitch": 63, "duration": 10, "velocity": 61}, {"time": 33600, "pitch": 35, "duration": 10, "velocity": 87}, {"time": 33600, "pitch": 39, "duration": 10, "velocity": 85}, {"time": 33600, "pitch": 40, "duration": 10, "velocity": 85}, {"time": 33600, "pitch": 42, "duration": 10, "velocity": 84}, {"time": 33600, "pitch": 54, "duration": 10, "velocity": 49}, {"time": 33600, "pitch": 62, "duration": 10, "velocity": 80}, {"time": 33720, "pitch": 54, "duration": 10, "velocity": 39}, {"time": 33840, "pitch": 46, "duration": 10, "velocity": 75}, {"time": 33840, "pitch": 54, "duration": 10, "velocity": 44}, {"time": 33840, "pitch": 64, "duration": 10, "velocity": 70}, {"time": 33960, "pitch": 38, "duration": 10, "velocity": 40}, {"time": 33960, "pitch": 54, "duration": 10, "velocity": 37}, {"time": 33960, "pitch": 63, "duration": 10, "velocity": 60}, {"time": 34080, "pitch": 35, "duration": 10, "velocity": 89}, {"time": 34080, "pitch": 42, "duration": 10, "velocity": 84}, {"time": 34080, "pitch": 54, "duration": 10, "velocity": 86}, {"time": 34200, "pitch": 38, "duration": 10, "velocity": 40}, {"time": 34200, "pitch": 42, "duration": 10, "velocity": 78}, {"time": 34200, "pitch": 54, "duration": 10, "velocity": 39}, {"time": 34200, "pitch": 63, "duration": 10, "velocity": 60}, {"time": 34320, "pitch": 46, "duration": 10, "velocity": 75}, {"time": 34320, "pitch": 54, "duration": 10, "velocity": 44}, {"time": 34320, "pitch": 60, "duration": 10, "velocity": 50}, {"time": 34440, "pitch": 54, "duration": 10, "velocity": 37}, {"time": 34560, "pitch": 35, "duration": 10, "velocity": 82}, {"time": 34560, "pitch": 39, "duration": 10, "velocity": 85}, {"time": 34560, "pitch": 40, "duration": 10, "velocity": 89}, {"time": 34560, "pitch": 42, "duration": 10, "velocity": 84}, {"time": 34560, "pitch": 54, "duration": 10, "velocity": 49}, {"time": 34560, "pitch": 61, "duration": 10, "velocity": 80}, {"time": 34680, "pitch": 54, "duration": 10, "velocity": 39}, {"time": 34800, "pitch": 46, "duration": 10, "velocity": 75}, {"time": 34800, "pitch": 54, "duration": 10, "velocity": 44}, {"time": 34800, "pitch": 64, "duration": 10, "velocity": 55}, {"time": 34920, "pitch": 38, "duration": 10, "velocity": 40}, {"time": 34920, "pitch": 54, "duration": 10, "velocity": 37}, {"time": 34920, "pitch": 64, "duration": 10, "velocity": 50}, {"time": 35040, "pitch": 35, "duration": 10, "velocity": 90}, {"time": 35040, "pitch": 42, "duration": 10, "velocity": 84}, {"time": 35040, "pitch": 54, "duration": 10, "velocity": 86}, {"time": 35040, "pitch": 61, "duration": 10, "velocity": 55}, {"time": 35160, "pitch": 54, "duration": 10, "velocity": 39}, {"time": 35280, "pitch": 38, "duration": 10, "velocity": 40}, {"time": 35280, "pitch": 46, "duration": 10, "velocity": 75}, {"time": 35280, "pitch": 54, "duration": 10, "velocity": 44}, {"time": 35280, "pitch": 63, "duration": 10, "velocity": 50}, {"time": 35400, "pitch": 38, "duration": 10, "velocity": 40}, {"time": 35400, "pitch": 54, "duration": 10, "velocity": 37}, {"time": 35400, "pitch": 63, "duration": 10, "velocity": 53}, {"time": 35520, "pitch": 35, "duration": 10, "velocity": 87}, {"time": 35520, "pitch": 39, "duration": 10, "velocity": 85}, {"time": 35520, "pitch": 40, "duration": 10, "velocity": 85}, {"time": 35520, "pitch": 42, "duration": 10, "velocity": 84}, {"time": 35520, "pitch": 54, "duration": 10, "velocity": 49}, {"time": 35520, "pitch": 62, "duration": 10, "velocity": 80}, {"time": 35640, "pitch": 54, "duration": 10, "velocity": 39}, {"time": 35760, "pitch": 46, "duration": 10, "velocity": 75}, {"time": 35760, "pitch": 54, "duration": 10, "velocity": 44}, {"time": 35760, "pitch": 64, "duration": 10, "velocity": 70}, {"time": 35880, "pitch": 38, "duration": 10, "velocity": 40}, {"time": 35880, "pitch": 54, "duration": 10, "velocity": 37}, {"time": 35880, "pitch": 63, "duration": 10, "velocity": 60}, {"time": 36000, "pitch": 35, "duration": 10, "velocity": 89}, {"time": 36000, "pitch": 42, "duration": 10, "velocity": 84}, {"time": 36000, "pitch": 54, "duration": 10, "velocity": 86}, {"time": 36120, "pitch": 38, "duration": 10, "velocity": 40}, {"time": 36120, "pitch": 42, "duration": 10, "velocity": 78}, {"time": 36120, "pitch": 54, "duration": 10, "velocity": 39}, {"time": 36120, "pitch": 62, "duration": 10, "velocity": 60}, {"time": 36240, "pitch": 46, "duration": 10, "velocity": 75}, {"time": 36240, "pitch": 54, "duration": 10, "velocity": 44}, {"time": 36240, "pitch": 60, "duration": 10, "velocity": 60}, {"time": 36360, "pitch": 54, "duration": 10, "velocity": 37}, {"time": 36480, "pitch": 35, "duration": 10, "velocity": 82}, {"time": 36480, "pitch": 39, "duration": 10, "velocity": 85}, {"time": 36480, "pitch": 40, "duration": 10, "velocity": 89}, {"time": 36480, "pitch": 42, "duration": 10, "velocity": 84}, {"time": 36480, "pitch": 54, "duration": 10, "velocity": 49}, {"time": 36480, "pitch": 64, "duration": 10, "velocity": 60}, {"time": 36600, "pitch": 54, "duration": 10, "velocity": 39}, {"time": 36720, "pitch": 46, "duration": 10, "velocity": 75}, {"time": 36720, "pitch": 54, "duration": 10, "velocity": 44}, {"time": 36720, "pitch": 61, "duration": 10, "velocity": 55}, {"time": 36840, "pitch": 38, "duration": 10, "velocity": 40}, {"time": 36840, "pitch": 54, "duration": 10, "velocity": 37}, {"time": 36840, "pitch": 61, "duration": 10, "velocity": 50}, {"time": 36960, "pitch": 35, "duration": 10, "velocity": 90}, {"time": 36960, "pitch": 42, "duration": 10, "velocity": 84}, {"time": 36960, "pitch": 54, "duration": 10, "velocity": 86}, {"time": 36960, "pitch": 63, "duration": 10, "velocity": 55}, {"time": 37080, "pitch": 54, "duration": 10, "velocity": 39}, {"time": 37200, "pitch": 38, "duration": 10, "velocity": 40}, {"time": 37200, "pitch": 46, "duration": 10, "velocity": 75}, {"time": 37200, "pitch": 54, "duration": 10, "velocity": 44}, {"time": 37200, "pitch": 61, "duration": 10, "velocity": 50}, {"time": 37320, "pitch": 38, "duration": 10, "velocity": 40}, {"time": 37320, "pitch": 54, "duration": 10, "velocity": 37}, {"time": 37320, "pitch": 63, "duration": 10, "velocity": 61}, {"time": 37440, "pitch": 35, "duration": 10, "velocity": 87}, {"time": 37440, "pitch": 39, "duration": 10, "velocity": 85}, {"time": 37440, "pitch": 40, "duration": 10, "velocity": 85}, {"time": 37440, "pitch": 42, "duration": 10, "velocity": 84}, {"time": 37440, "pitch": 54, "duration": 10, "velocity": 49}, {"time": 37440, "pitch": 62, "duration": 10, "velocity": 80}, {"time": 37560, "pitch": 54, "duration": 10, "velocity": 39}, {"time": 37680, "pitch": 46, "duration": 10, "velocity": 75}, {"time": 37680, "pitch": 54, "duration": 10, "velocity": 44}, {"time": 37680, "pitch": 64, "duration": 10, "velocity": 70}, {"time": 37800, "pitch": 38, "duration": 10, "velocity": 40}, {"time": 37800, "pitch": 54, "duration": 10, "velocity": 37}, {"time": 37800, "pitch": 63, "duration": 10, "velocity": 60}, {"time": 37920, "pitch": 35, "duration": 10, "velocity": 89}, {"time": 37920, "pitch": 42, "duration": 10, "velocity": 84}, {"time": 37920, "pitch": 54, "duration": 10, "velocity": 86}, {"time": 38040, "pitch": 38, "duration": 10, "velocity": 40}, {"time": 38040, "pitch": 42, "duration": 10, "velocity": 78}, {"time": 38040, "pitch": 54, "duration": 10, "velocity": 39}, {"time": 38040, "pitch": 63, "duration": 10, "velocity": 60}, {"time": 38160, "pitch": 46, "duration": 10, "velocity": 75}, {"time": 38160, "pitch": 54, "duration": 10, "velocity": 44}, {"time": 38160, "pitch": 60, "duration": 10, "velocity": 50}, {"time": 38280, "pitch": 54, "duration": 10, "velocity": 37}, {"time": 38400, "pitch": 35, "duration": 10, "velocity": 82}, {"time": 38400, "pitch": 39, "duration": 10, "velocity": 85}, {"time": 38400, "pitch": 40, "duration": 10, "velocity": 89}, {"time": 38400, "pitch": 42, "duration": 10, "velocity": 84}, {"time": 38400, "pitch": 54, "duration": 10, "velocity": 49}, {"time": 38400, "pitch": 61, "duration": 10, "velocity": 80}, {"time": 38520, "pitch": 54, "duration": 10, "velocity": 39}, {"time": 38640, "pitch": 46, "duration": 10, "velocity": 75}, {"time": 38640, "pitch": 54, "duration": 10, "velocity": 44}, {"time": 38640, "pitch": 64, "duration": 10, "velocity": 55}, {"time": 38760, "pitch": 38, "duration": 10, "velocity": 40}, {"time": 38760, "pitch": 54, "duration": 10, "velocity": 37}, {"time": 38760, "pitch": 64, "duration": 10, "velocity": 50}, {"time": 38880, "pitch": 35, "duration": 10, "velocity": 90}, {"time": 38880, "pitch": 42, "duration": 10, "velocity": 84}, {"time": 38880, "pitch": 54, "duration": 10, "velocity": 86}, {"time": 38880, "pitch": 61, "duration": 10, "velocity": 55}, {"time": 39000, "pitch": 54, "duration": 10, "velocity": 39}, {"time": 39120, "pitch": 38, "duration": 10, "velocity": 40}, {"time": 39120, "pitch": 46, "duration": 10, "velocity": 75}, {"time": 39120, "pitch": 54, "duration": 10, "velocity": 44}, {"time": 39120, "pitch": 63, "duration": 10, "velocity": 50}, {"time": 39240, "pitch": 38, "duration": 10, "velocity": 40}, {"time": 39240, "pitch": 54, "duration": 10, "velocity": 37}, {"time": 39240, "pitch": 63, "duration": 10, "velocity": 53}, {"time": 39360, "pitch": 35, "duration": 10, "velocity": 87}, {"time": 39360, "pitch": 39, "duration": 10, "velocity": 85}, {"time": 39360, "pitch": 40, "duration": 10, "velocity": 85}, {"time": 39360, "pitch": 42, "duration": 10, "velocity": 84}, {"time": 39360, "pitch": 54, "duration": 10, "velocity": 49}, {"time": 39360, "pitch": 62, "duration": 10, "velocity": 80}, {"time": 39480, "pitch": 54, "duration": 10, "velocity": 39}, {"time": 39600, "pitch": 46, "duration": 10, "velocity": 75}, {"time": 39600, "pitch": 54, "duration": 10, "velocity": 44}, {"time": 39600, "pitch": 64, "duration": 10, "velocity": 70}, {"time": 39720, "pitch": 38, "duration": 10, "velocity": 40}, {"time": 39720, "pitch": 54, "duration": 10, "velocity": 37}, {"time": 39720, "pitch": 63, "duration": 10, "velocity": 60}, {"time": 39840, "pitch": 35, "duration": 10, "velocity": 89}, {"time": 39840, "pitch": 42, "duration": 10, "velocity": 84}, {"time": 39840, "pitch": 54, "duration": 10, "velocity": 86}, {"time": 39960, "pitch": 38, "duration": 10, "velocity": 40}, {"time": 39960, "pitch": 42, "duration": 10, "velocity": 78}, {"time": 39960, "pitch": 54, "duration": 10, "velocity": 39}, {"time": 39960, "pitch": 62, "duration": 10, "velocity": 60}, {"time": 40080, "pitch": 46, "duration": 10, "velocity": 75}, {"time": 40080, "pitch": 54, "duration": 10, "velocity": 44}, {"time": 40080, "pitch": 60, "duration": 10, "velocity": 60}, {"time": 40200, "pitch": 54, "duration": 10, "velocity": 37}, {"time": 40320, "pitch": 35, "duration": 10, "velocity": 82}, {"time": 40320, "pitch": 39, "duration": 10, "velocity": 85}, {"time": 40320, "pitch": 40, "duration": 10, "velocity": 89}, {"time": 40320, "pitch": 42, "duration": 10, "velocity": 84}, {"time": 40320, "pitch": 54, "duration": 10, "velocity": 49}, {"time": 40320, "pitch": 64, "duration": 10, "velocity": 60}, {"time": 40440, "pitch": 54, "duration": 10, "velocity": 39}, {"time": 40560, "pitch": 46, "duration": 10, "velocity": 75}, {"time": 40560, "pitch": 54, "duration": 10, "velocity": 44}, {"time": 40560, "pitch": 61, "duration": 10, "velocity": 55}, {"time": 40680, "pitch": 38, "duration": 10, "velocity": 40}, {"time": 40680, "pitch": 54, "duration": 10, "velocity": 37}, {"time": 40680, "pitch": 61, "duration": 10, "velocity": 50}, {"time": 40800, "pitch": 35, "duration": 10, "velocity": 90}, {"time": 40800, "pitch": 42, "duration": 10, "velocity": 84}, {"time": 40800, "pitch": 54, "duration": 10, "velocity": 86}, {"time": 40800, "pitch": 63, "duration": 10, "velocity": 55}, {"time": 40920, "pitch": 54, "duration": 10, "velocity": 39}, {"time": 41040, "pitch": 38, "duration": 10, "velocity": 40}, {"time": 41040, "pitch": 46, "duration": 10, "velocity": 75}, {"time": 41040, "pitch": 54, "duration": 10, "velocity": 44}, {"time": 41040, "pitch": 61, "duration": 10, "velocity": 50}, {"time": 41160, "pitch": 38, "duration": 10, "velocity": 40}, {"time": 41160, "pitch": 54, "duration": 10, "velocity": 37}, {"time": 41160, "pitch": 63, "duration": 10, "velocity": 61}, {"time": 41280, "pitch": 35, "duration": 10, "velocity": 87}, {"time": 41280, "pitch": 39, "duration": 10, "velocity": 85}, {"time": 41280, "pitch": 40, "duration": 10, "velocity": 85}, {"time": 41280, "pitch": 42, "duration": 10, "velocity": 84}, {"time": 41280, "pitch": 54, "duration": 10, "velocity": 49}, {"time": 41280, "pitch": 62, "duration": 10, "velocity": 80}, {"time": 41400, "pitch": 54, "duration": 10, "velocity": 39}, {"time": 41520, "pitch": 46, "duration": 10, "velocity": 75}, {"time": 41520, "pitch": 54, "duration": 10, "velocity": 44}, {"time": 41520, "pitch": 64, "duration": 10, "velocity": 70}, {"time": 41640, "pitch": 38, "duration": 10, "velocity": 40}, {"time": 41640, "pitch": 54, "duration": 10, "velocity": 37}, {"time": 41640, "pitch": 63, "duration": 10, "velocity": 60}, {"time": 41760, "pitch": 35, "duration": 10, "velocity": 89}, {"time": 41760, "pitch": 42, "duration": 10, "velocity": 84}, {"time": 41760, "pitch": 54, "duration": 10, "velocity": 86}, {"time": 41880, "pitch": 38, "duration": 10, "velocity": 40}, {"time": 41880, "pitch": 42, "duration": 10, "velocity": 78}, {"time": 41880, "pitch": 54, "duration": 10, "velocity": 39}, {"time": 41880, "pitch": 63, "duration": 10, "velocity": 60}, {"time": 42000, "pitch": 46, "duration": 10, "velocity": 75}, {"time": 42000, "pitch": 54, "duration": 10, "velocity": 44}, {"time": 42000, "pitch": 60, "duration": 10, "velocity": 50}, {"time": 42120, "pitch": 54, "duration": 10, "velocity": 37}, {"time": 42240, "pitch": 35, "duration": 10, "velocity": 82}, {"time": 42240, "pitch": 39, "duration": 10, "velocity": 85}, {"time": 42240, "pitch": 40, "duration": 10, "velocity": 89}, {"time": 42240, "pitch": 42, "duration": 10, "velocity": 84}, {"time": 42240, "pitch": 54, "duration": 10, "velocity": 49}, {"time": 42240, "pitch": 61, "duration": 10, "velocity": 80}, {"time": 42360, "pitch": 54, "duration": 10, "velocity": 39}, {"time": 42480, "pitch": 46, "duration": 10, "velocity": 75}, {"time": 42480, "pitch": 54, "duration": 10, "velocity": 44}, {"time": 42480, "pitch": 64, "duration": 10, "velocity": 55}, {"time": 42600, "pitch": 38, "duration": 10, "velocity": 40}, {"time": 42600, "pitch": 54, "duration": 10, "velocity": 37}, {"time": 42600, "pitch": 64, "duration": 10, "velocity": 50}, {"time": 42720, "pitch": 35, "duration": 10, "velocity": 90}, {"time": 42720, "pitch": 42, "duration": 10, "velocity": 84}, {"time": 42720, "pitch": 49, "duration": 10, "velocity": 50}, {"time": 42720, "pitch": 54, "duration": 10, "velocity": 86}, {"time": 42720, "pitch": 61, "duration": 10, "velocity": 55}, {"time": 42840, "pitch": 54, "duration": 10, "velocity": 39}, {"time": 42960, "pitch": 38, "duration": 10, "velocity": 40}, {"time": 42960, "pitch": 46, "duration": 10, "velocity": 75}, {"time": 42960, "pitch": 54, "duration": 10, "velocity": 44}, {"time": 42960, "pitch": 63, "duration": 10, "velocity": 50}, {"time": 43080, "pitch": 38, "duration": 10, "velocity": 40}, {"time": 43080, "pitch": 54, "duration": 10, "velocity": 37}, {"time": 43080, "pitch": 63, "duration": 10, "velocity": 53}, {"time": 43200, "pitch": 35, "duration": 10, "velocity": 87}, {"time": 43200, "pitch": 39, "duration": 10, "velocity": 85}, {"time": 43200, "pitch": 40, "duration": 10, "velocity": 85}, {"time": 43200, "pitch": 42, "duration": 10, "velocity": 84}, {"time": 43200, "pitch": 51, "duration": 10, "velocity": 90}, {"time": 43200, "pitch": 54, "duration": 10, "velocity": 49}, {"time": 43200, "pitch": 62, "duration": 10, "velocity": 80}, {"time": 43320, "pitch": 54, "duration": 10, "velocity": 39}, {"time": 43440, "pitch": 46, "duration": 10, "velocity": 75}, {"time": 43440, "pitch": 54, "duration": 10, "velocity": 44}, {"time": 43440, "pitch": 57, "duration": 10, "velocity": 52}, {"time": 43440, "pitch": 64, "duration": 10, "velocity": 70}, {"time": 43560, "pitch": 38, "duration": 10, "velocity": 40}, {"time": 43560, "pitch": 54, "duration": 10, "velocity": 37}, {"time": 43560, "pitch": 63, "duration": 10, "velocity": 60}, {"time": 43680, "pitch": 35, "duration": 10, "velocity": 89}, {"time": 43680, "pitch": 42, "duration": 10, "velocity": 84}, {"time": 43680, "pitch": 51, "duration": 10, "velocity": 90}, {"time": 43680, "pitch": 54, "duration": 10, "velocity": 86}, {"time": 43800, "pitch": 38, "duration": 10, "velocity": 40}, {"time": 43800, "pitch": 42, "duration": 10, "velocity": 78}, {"time": 43800, "pitch": 54, "duration": 10, "velocity": 39}, {"time": 43800, "pitch": 62, "duration": 10, "velocity": 60}, {"time": 43920, "pitch": 46, "duration": 10, "velocity": 75}, {"time": 43920, "pitch": 54, "duration": 10, "velocity": 44}, {"time": 43920, "pitch": 60, "duration": 10, "velocity": 60}, {"time": 44040, "pitch": 54, "duration": 10, "velocity": 37}, {"time": 44160, "pitch": 35, "duration": 10, "velocity": 82}, {"time": 44160, "pitch": 39, "duration": 10, "velocity": 85}, {"time": 44160, "pitch": 40, "duration": 10, "velocity": 89}, {"time": 44160, "pitch": 42, "duration": 10, "velocity": 84}, {"time": 44160, "pitch": 51, "duration": 10, "velocity": 90}, {"time": 44160, "pitch": 54, "duration": 10, "velocity": 49}, {"time": 44160, "pitch": 64, "duration": 10, "velocity": 60}, {"time": 44280, "pitch": 54, "duration": 10, "velocity": 39}, {"time": 44400, "pitch": 46, "duration": 10, "velocity": 75}, {"time": 44400, "pitch": 54, "duration": 10, "velocity": 44}, {"time": 44400, "pitch": 61, "duration": 10, "velocity": 55}, {"time": 44520, "pitch": 38, "duration": 10, "velocity": 40}, {"time": 44520, "pitch": 54, "duration": 10, "velocity": 37}, {"time": 44520, "pitch": 61, "duration": 10, "velocity": 50}, {"time": 44640, "pitch": 35, "duration": 10, "velocity": 90}, {"time": 44640, "pitch": 42, "duration": 10, "velocity": 84}, {"time": 44640, "pitch": 49, "duration": 10, "velocity": 50}, {"time": 44640, "pitch": 54, "duration": 10, "velocity": 86}, {"time": 44640, "pitch": 63, "duration": 10, "velocity": 55}, {"time": 44760, "pitch": 54, "duration": 10, "velocity": 39}, {"time": 44880, "pitch": 38, "duration": 10, "velocity": 40}, {"time": 44880, "pitch": 46, "duration": 10, "velocity": 75}, {"time": 44880, "pitch": 54, "duration": 10, "velocity": 44}, {"time": 44880, "pitch": 61, "duration": 10, "velocity": 50}, {"time": 45000, "pitch": 38, "duration": 10, "velocity": 40}, {"time": 45000, "pitch": 54, "duration": 10, "velocity": 37}, {"time": 45000, "pitch": 63, "duration": 10, "velocity": 61}, {"time": 45120, "pitch": 35, "duration": 10, "velocity": 87}, {"time": 45120, "pitch": 39, "duration": 10, "velocity": 85}, {"time": 45120, "pitch": 40, "duration": 10, "velocity": 85}, {"time": 45120, "pitch": 42, "duration": 10, "velocity": 84}, {"time": 45120, "pitch": 51, "duration": 10, "velocity": 90}, {"time": 45120, "pitch": 54, "duration": 10, "velocity": 49}, {"time": 45120, "pitch": 62, "duration": 10, "velocity": 80}, {"time": 45240, "pitch": 54, "duration": 10, "velocity": 39}, {"time": 45360, "pitch": 46, "duration": 10, "velocity": 75}, {"time": 45360, "pitch": 54, "duration": 10, "velocity": 44}, {"time": 45360, "pitch": 57, "duration": 10, "velocity": 52}, {"time": 45360, "pitch": 64, "duration": 10, "velocity": 70}, {"time": 45480, "pitch": 38, "duration": 10, "velocity": 40}, {"time": 45480, "pitch": 54, "duration": 10, "velocity": 37}, {"time": 45480, "pitch": 63, "duration": 10, "velocity": 60}, {"time": 45600, "pitch": 35, "duration": 10, "velocity": 89}, {"time": 45600, "pitch": 42, "duration": 10, "velocity": 84}, {"time": 45600, "pitch": 51, "duration": 10, "velocity": 90}, {"time": 45600, "pitch": 54, "duration": 10, "velocity": 86}, {"time": 45720, "pitch": 38, "duration": 10, "velocity": 40}, {"time": 45720, "pitch": 42, "duration": 10, "velocity": 78}, {"time": 45720, "pitch": 54, "duration": 10, "velocity": 39}, {"time": 45720, "pitch": 63, "duration": 10, "velocity": 60}, {"time": 45840, "pitch": 46, "duration": 10, "velocity": 75}, {"time": 45840, "pitch": 54, "duration": 10, "velocity": 44}, {"time": 45840, "pitch": 60, "duration": 10, "velocity": 50}, {"time": 45960, "pitch": 54, "duration": 10, "velocity": 37}, {"time": 46080, "pitch": 35, "duration": 10, "velocity": 82}, {"time": 46080, "pitch": 39, "duration": 10, "velocity": 85}, {"time": 46080, "pitch": 40, "duration": 10, "velocity": 89}, {"time": 46080, "pitch": 42, "duration": 10, "velocity": 84}, {"time": 46080, "pitch": 51, "duration": 10, "velocity": 90}, {"time": 46080, "pitch": 54, "duration": 10, "velocity": 49}, {"time": 46080, "pitch": 61, "duration": 10, "velocity": 80}, {"time": 46200, "pitch": 38, "duration": 10, "velocity": 20}, {"time": 46200, "pitch": 54, "duration": 10, "velocity": 39}, {"time": 46240, "pitch": 38, "duration": 10, "velocity": 20}, {"time": 46280, "pitch": 38, "duration": 10, "velocity": 30}, {"time": 46320, "pitch": 38, "duration": 10, "velocity": 60}, {"time": 46320, "pitch": 46, "duration": 10, "velocity": 75}, {"time": 46320, "pitch": 54, "duration": 10, "velocity": 44}, {"time": 46320, "pitch": 64, "duration": 10, "velocity": 55}, {"time": 46440, "pitch": 38, "duration": 10, "velocity": 40}, {"time": 46440, "pitch": 54, "duration": 10, "velocity": 37}, {"time": 46440, "pitch": 64, "duration": 10, "velocity": 50}, {"time": 46460, "pitch": 38, "duration": 10, "velocity": 35}, {"time": 46560, "pitch": 35, "duration": 10, "velocity": 90}, {"time": 46560, "pitch": 42, "duration": 10, "velocity": 84}, {"time": 46560, "pitch": 49, "duration": 10, "velocity": 60}, {"time": 46560, "pitch": 54, "duration": 10, "velocity": 86}, {"time": 46560, "pitch": 61, "duration": 10, "velocity": 55}, {"time": 46680, "pitch": 54, "duration": 10, "velocity": 39}, {"time": 46800, "pitch": 38, "duration": 10, "velocity": 40}, {"time": 46800, "pitch": 46, "duration": 10, "velocity": 75}, {"time": 46800, "pitch": 54, "duration": 10, "velocity": 44}, {"time": 46800, "pitch": 63, "duration": 10, "velocity": 50}, {"time": 46920, "pitch": 38, "duration": 10, "velocity": 40}, {"time": 46920, "pitch": 54, "duration": 10, "velocity": 37}, {"time": 46920, "pitch": 63, "duration": 10, "velocity": 53}, {"time": 47040, "pitch": 39, "duration": 10, "velocity": 85}, {"time": 47040, "pitch": 40, "duration": 10, "velocity": 85}, {"time": 47040, "pitch": 42, "duration": 10, "velocity": 84}, {"time": 47040, "pitch": 54, "duration": 10, "velocity": 49}, {"time": 47040, "pitch": 62, "duration": 10, "velocity": 80}, {"time": 47160, "pitch": 54, "duration": 10, "velocity": 39}, {"time": 47280, "pitch": 35, "duration": 10, "velocity": 87}, {"time": 47280, "pitch": 46, "duration": 10, "velocity": 75}, {"time": 47280, "pitch": 54, "duration": 10, "velocity": 44}, {"time": 47280, "pitch": 57, "duration": 10, "velocity": 60}, {"time": 47280, "pitch": 64, "duration": 10, "velocity": 70}, {"time": 47400, "pitch": 38, "duration": 10, "velocity": 40}, {"time": 47400, "pitch": 48, "duration": 40, "velocity": 81}, {"time": 47400, "pitch": 54, "duration": 10, "velocity": 37}, {"time": 47400, "pitch": 63, "duration": 10, "velocity": 60}, {"time": 47520, "pitch": 42, "duration": 10, "velocity": 84}, {"time": 47520, "pitch": 54, "duration": 10, "velocity": 86}, {"time": 47640, "pitch": 38, "duration": 10, "velocity": 40}, {"time": 47640, "pitch": 42, "duration": 10, "velocity": 78}, {"time": 47640, "pitch": 45, "duration": 60, "velocity": 76}, {"time": 47640, "pitch": 54, "duration": 10, "velocity": 39}, {"time": 47640, "pitch": 62, "duration": 10, "velocity": 60}, {"time": 47760, "pitch": 35, "duration": 10, "velocity": 89}, {"time": 47760, "pitch": 46, "duration": 10, "velocity": 75}, {"time": 47760, "pitch": 54, "duration": 10, "velocity": 44}, {"time": 47760, "pitch": 60, "duration": 10, "velocity": 60}, {"time": 47880, "pitch": 54, "duration": 10, "velocity": 37}, {"time": 48000, "pitch": 39, "duration": 10, "velocity": 85}, {"time": 48000, "pitch": 40, "duration": 10, "velocity": 89}, {"time": 48000, "pitch": 42, "duration": 10, "velocity": 84}, {"time": 48000, "pitch": 54, "duration": 10, "velocity": 49}, {"time": 48000, "pitch": 64, "duration": 10, "velocity": 60}, {"time": 48120, "pitch": 48, "duration": 50, "velocity": 61}, {"time": 48120, "pitch": 54, "duration": 10, "velocity": 39}, {"time": 48240, "pitch": 35, "duration": 10, "velocity": 82}, {"time": 48240, "pitch": 45, "duration": 70, "velocity": 72}, {"time": 48240, "pitch": 46, "duration": 10, "velocity": 75}, {"time": 48240, "pitch": 54, "duration": 10, "velocity": 44}, {"time": 48240, "pitch": 61, "duration": 10, "velocity": 55}, {"time": 48360, "pitch": 38, "duration": 10, "velocity": 40}, {"time": 48360, "pitch": 41, "duration": 60, "velocity": 63}, {"time": 48360, "pitch": 54, "duration": 10, "velocity": 37}, {"time": 48360, "pitch": 61, "duration": 10, "velocity": 50}, {"time": 48480, "pitch": 35, "duration": 10, "velocity": 90}, {"time": 48480, "pitch": 42, "duration": 10, "velocity": 84}, {"time": 48480, "pitch": 49, "duration": 10, "velocity": 60}, {"time": 48480, "pitch": 54, "duration": 10, "velocity": 86}, {"time": 48480, "pitch": 63, "duration": 10, "velocity": 55}, {"time": 48600, "pitch": 54, "duration": 10, "velocity": 39}, {"time": 48720, "pitch": 35, "duration": 10, "velocity": 87}, {"time": 48720, "pitch": 38, "duration": 10, "velocity": 40}, {"time": 48720, "pitch": 40, "duration": 10, "velocity": 85}, {"time": 48720, "pitch": 46, "duration": 10, "velocity": 75}, {"time": 48720, "pitch": 54, "duration": 10, "velocity": 44}, {"time": 48720, "pitch": 61, "duration": 10, "velocity": 50}, {"time": 48840, "pitch": 38, "duration": 10, "velocity": 40}, {"time": 48840, "pitch": 54, "duration": 10, "velocity": 37}, {"time": 48840, "pitch": 63, "duration": 10, "velocity": 61}, {"time": 48960, "pitch": 39, "duration": 10, "velocity": 85}, {"time": 48960, "pitch": 42, "duration": 10, "velocity": 84}, {"time": 48960, "pitch": 54, "duration": 10, "velocity": 49}, {"time": 48960, "pitch": 62, "duration": 10, "velocity": 80}, {"time": 49080, "pitch": 54, "duration": 10, "velocity": 39}, {"time": 49200, "pitch": 46, "duration": 10, "velocity": 75}, {"time": 49200, "pitch": 54, "duration": 10, "velocity": 44}, {"time": 49200, "pitch": 64, "duration": 10, "velocity": 70}, {"time": 49320, "pitch": 38, "duration": 10, "velocity": 40}, {"time": 49320, "pitch": 54, "duration": 10, "velocity": 37}, {"time": 49320, "pitch": 63, "duration": 10, "velocity": 60}, {"time": 49440, "pitch": 40, "duration": 10, "velocity": 105}, {"time": 49440, "pitch": 42, "duration": 10, "velocity": 84}, {"time": 49440, "pitch": 54, "duration": 10, "velocity": 86}, {"time": 49560, "pitch": 38, "duration": 10, "velocity": 40}, {"time": 49560, "pitch": 40, "duration": 10, "velocity": 89}, {"time": 49560, "pitch": 42, "duration": 10, "velocity": 78}, {"time": 49560, "pitch": 54, "duration": 10, "velocity": 39}, {"time": 49560, "pitch": 63, "duration": 10, "velocity": 60}, {"time": 49680, "pitch": 35, "duration": 10, "velocity": 82}, {"time": 49680, "pitch": 46, "duration": 10, "velocity": 75}, {"time": 49680, "pitch": 54, "duration": 10, "velocity": 44}, {"time": 49680, "pitch": 60, "duration": 10, "velocity": 50}, {"time": 49800, "pitch": 54, "duration": 10, "velocity": 37}, {"time": 49920, "pitch": 39, "duration": 10, "velocity": 85}, {"time": 49920, "pitch": 40, "duration": 10, "velocity": 106}, {"time": 49920, "pitch": 42, "duration": 10, "velocity": 84}, {"time": 49920, "pitch": 54, "duration": 10, "velocity": 49}, {"time": 49920, "pitch": 61, "duration": 10, "velocity": 80}, {"time": 50040, "pitch": 54, "duration": 10, "velocity": 39}, {"time": 50160, "pitch": 35, "duration": 10, "velocity": 74}, {"time": 50160, "pitch": 46, "duration": 10, "velocity": 75}, {"time": 50160, "pitch": 54, "duration": 10, "velocity": 44}, {"time": 50160, "pitch": 64, "duration": 10, "velocity": 55}, {"time": 50280, "pitch": 38, "duration": 10, "velocity": 40}, {"time": 50280, "pitch": 54, "duration": 10, "velocity": 37}, {"time": 50280, "pitch": 64, "duration": 10, "velocity": 50}, {"time": 50400, "pitch": 35, "duration": 10, "velocity": 90}, {"time": 50400, "pitch": 42, "duration": 10, "velocity": 84}, {"time": 50400, "pitch": 54, "duration": 10, "velocity": 86}, {"time": 50400, "pitch": 57, "duration": 10, "velocity": 68}, {"time": 50400, "pitch": 61, "duration": 10, "velocity": 55}, {"time": 50520, "pitch": 54, "duration": 10, "velocity": 39}, {"time": 50640, "pitch": 38, "duration": 10, "velocity": 40}, {"time": 50640, "pitch": 46, "duration": 10, "velocity": 75}, {"time": 50640, "pitch": 54, "duration": 10, "velocity": 44}, {"time": 50640, "pitch": 63, "duration": 10, "velocity": 50}, {"time": 50640, "pitch": 70, "duration": 70, "velocity": 100}, {"time": 50760, "pitch": 38, "duration": 10, "velocity": 40}, {"time": 50760, "pitch": 54, "duration": 10, "velocity": 37}, {"time": 50760, "pitch": 63, "duration": 10, "velocity": 53}, {"time": 50760, "pitch": 70, "duration": 70, "velocity": 50}, {"time": 50880, "pitch": 35, "duration": 10, "velocity": 87}, {"time": 50880, "pitch": 39, "duration": 10, "velocity": 85}, {"time": 50880, "pitch": 40, "duration": 10, "velocity": 85}, {"time": 50880, "pitch": 42, "duration": 10, "velocity": 84}, {"time": 50880, "pitch": 54, "duration": 10, "velocity": 49}, {"time": 50880, "pitch": 62, "duration": 10, "velocity": 80}, {"time": 51000, "pitch": 54, "duration": 10, "velocity": 39}, {"time": 51120, "pitch": 46, "duration": 10, "velocity": 75}, {"time": 51120, "pitch": 54, "duration": 10, "velocity": 44}, {"time": 51120, "pitch": 64, "duration": 10, "velocity": 70}, {"time": 51120, "pitch": 70, "duration": 70, "velocity": 100}, {"time": 51240, "pitch": 38, "duration": 10, "velocity": 40}, {"time": 51240, "pitch": 54, "duration": 10, "velocity": 37}, {"time": 51240, "pitch": 63, "duration": 10, "velocity": 60}, {"time": 51360, "pitch": 35, "duration": 10, "velocity": 89}, {"time": 51360, "pitch": 42, "duration": 10, "velocity": 84}, {"time": 51360, "pitch": 54, "duration": 10, "velocity": 86}, {"time": 51480, "pitch": 38, "duration": 10, "velocity": 40}, {"time": 51480, "pitch": 42, "duration": 10, "velocity": 78}, {"time": 51480, "pitch": 54, "duration": 10, "velocity": 39}, {"time": 51480, "pitch": 62, "duration": 10, "velocity": 60}, {"time": 51600, "pitch": 46, "duration": 10, "velocity": 75}, {"time": 51600, "pitch": 54, "duration": 10, "velocity": 44}, {"time": 51600, "pitch": 60, "duration": 10, "velocity": 60}, {"time": 51600, "pitch": 70, "duration": 70, "velocity": 100}, {"time": 51720, "pitch": 54, "duration": 10, "velocity": 37}, {"time": 51840, "pitch": 35, "duration": 10, "velocity": 82}, {"time": 51840, "pitch": 39, "duration": 10, "velocity": 85}, {"time": 51840, "pitch": 40, "duration": 10, "velocity": 89}, {"time": 51840, "pitch": 42, "duration": 10, "velocity": 84}, {"time": 51840, "pitch": 54, "duration": 10, "velocity": 49}, {"time": 51840, "pitch": 64, "duration": 10, "velocity": 60}, {"time": 51960, "pitch": 54, "duration": 10, "velocity": 39}, {"time": 52080, "pitch": 46, "duration": 10, "velocity": 75}, {"time": 52080, "pitch": 54, "duration": 10, "velocity": 44}, {"time": 52080, "pitch": 61, "duration": 10, "velocity": 55}, {"time": 52080, "pitch": 70, "duration": 70, "velocity": 100}, {"time": 52200, "pitch": 38, "duration": 10, "velocity": 40}, {"time": 52200, "pitch": 54, "duration": 10, "velocity": 37}, {"time": 52200, "pitch": 61, "duration": 10, "velocity": 50}, {"time": 52200, "pitch": 70, "duration": 70, "velocity": 50}, {"time": 52320, "pitch": 35, "duration": 10, "velocity": 90}, {"time": 52320, "pitch": 42, "duration": 10, "velocity": 84}, {"time": 52320, "pitch": 54, "duration": 10, "velocity": 86}, {"time": 52320, "pitch": 63, "duration": 10, "velocity": 55}, {"time": 52440, "pitch": 54, "duration": 10, "velocity": 39}, {"time": 52560, "pitch": 38, "duration": 10, "velocity": 40}, {"time": 52560, "pitch": 46, "duration": 10, "velocity": 75}, {"time": 52560, "pitch": 54, "duration": 10, "velocity": 44}, {"time": 52560, "pitch": 61, "duration": 10, "velocity": 50}, {"time": 52560, "pitch": 70, "duration": 70, "velocity": 100}, {"time": 52680, "pitch": 38, "duration": 10, "velocity": 40}, {"time": 52680, "pitch": 54, "duration": 10, "velocity": 37}, {"time": 52680, "pitch": 63, "duration": 10, "velocity": 61}, {"time": 52680, "pitch": 70, "duration": 70, "velocity": 50}, {"time": 52800, "pitch": 35, "duration": 10, "velocity": 87}, {"time": 52800, "pitch": 39, "duration": 10, "velocity": 85}, {"time": 52800, "pitch": 40, "duration": 10, "velocity": 85}, {"time": 52800, "pitch": 42, "duration": 10, "velocity": 84}, {"time": 52800, "pitch": 54, "duration": 10, "velocity": 49}, {"time": 52800, "pitch": 62, "duration": 10, "velocity": 80}, {"time": 52920, "pitch": 54, "duration": 10, "velocity": 39}, {"time": 53040, "pitch": 46, "duration": 10, "velocity": 75}, {"time": 53040, "pitch": 54, "duration": 10, "velocity": 44}, {"time": 53040, "pitch": 64, "duration": 10, "velocity": 70}, {"time": 53040, "pitch": 70, "duration": 70, "velocity": 100}, {"time": 53160, "pitch": 38, "duration": 10, "velocity": 40}, {"time": 53160, "pitch": 54, "duration": 10, "velocity": 37}, {"time": 53160, "pitch": 63, "duration": 10, "velocity": 60}, {"time": 53280, "pitch": 35, "duration": 10, "velocity": 89}, {"time": 53280, "pitch": 42, "duration": 10, "velocity": 84}, {"time": 53280, "pitch": 54, "duration": 10, "velocity": 86}, {"time": 53400, "pitch": 38, "duration": 10, "velocity": 40}, {"time": 53400, "pitch": 42, "duration": 10, "velocity": 78}, {"time": 53400, "pitch": 54, "duration": 10, "velocity": 39}, {"time": 53400, "pitch": 63, "duration": 10, "velocity": 60}, {"time": 53520, "pitch": 46, "duration": 10, "velocity": 75}, {"time": 53520, "pitch": 54, "duration": 10, "velocity": 44}, {"time": 53520, "pitch": 60, "duration": 10, "velocity": 50}, {"time": 53520, "pitch": 70, "duration": 70, "velocity": 100}, {"time": 53640, "pitch": 54, "duration": 10, "velocity": 37}, {"time": 53760, "pitch": 35, "duration": 10, "velocity": 82}, {"time": 53760, "pitch": 39, "duration": 10, "velocity": 85}, {"time": 53760, "pitch": 40, "duration": 10, "velocity": 89}, {"time": 53760, "pitch": 42, "duration": 10, "velocity": 84}, {"time": 53760, "pitch": 54, "duration": 10, "velocity": 49}, {"time": 53760, "pitch": 61, "duration": 10, "velocity": 80}, {"time": 53880, "pitch": 54, "duration": 10, "velocity": 39}, {"time": 54000, "pitch": 46, "duration": 10, "velocity": 75}, {"time": 54000, "pitch": 54, "duration": 10, "velocity": 44}, {"time": 54000, "pitch": 64, "duration": 10, "velocity": 55}, {"time": 54000, "pitch": 70, "duration": 70, "velocity": 100}, {"time": 54120, "pitch": 38, "duration": 10, "velocity": 40}, {"time": 54120, "pitch": 54, "duration": 10, "velocity": 37}, {"time": 54120, "pitch": 64, "duration": 10, "velocity": 50}, {"time": 54120, "pitch": 70, "duration": 70, "velocity": 50}, {"time": 54240, "pitch": 35, "duration": 10, "velocity": 90}, {"time": 54240, "pitch": 42, "duration": 10, "velocity": 84}, {"time": 54240, "pitch": 54, "duration": 10, "velocity": 86}, {"time": 54240, "pitch": 61, "duration": 10, "velocity": 55}, {"time": 54360, "pitch": 54, "duration": 10, "velocity": 39}, {"time": 54480, "pitch": 38, "duration": 10, "velocity": 40}, {"time": 54480, "pitch": 46, "duration": 10, "velocity": 75}, {"time": 54480, "pitch": 54, "duration": 10, "velocity": 44}, {"time": 54480, "pitch": 63, "duration": 10, "velocity": 50}, {"time": 54480, "pitch": 70, "duration": 70, "velocity": 100}, {"time": 54600, "pitch": 38, "duration": 10, "velocity": 40}, {"time": 54600, "pitch": 54, "duration": 10, "velocity": 37}, {"time": 54600, "pitch": 63, "duration": 10, "velocity": 53}, {"time": 54600, "pitch": 70, "duration": 70, "velocity": 50}, {"time": 54720, "pitch": 35, "duration": 10, "velocity": 87}, {"time": 54720, "pitch": 39, "duration": 10, "velocity": 85}, {"time": 54720, "pitch": 40, "duration": 10, "velocity": 85}, {"time": 54720, "pitch": 42, "duration": 10, "velocity": 84}, {"time": 54720, "pitch": 54, "duration": 10, "velocity": 49}, {"time": 54720, "pitch": 62, "duration": 10, "velocity": 80}, {"time": 54840, "pitch": 54, "duration": 10, "velocity": 39}, {"time": 54960, "pitch": 46, "duration": 10, "velocity": 75}, {"time": 54960, "pitch": 54, "duration": 10, "velocity": 44}, {"time": 54960, "pitch": 64, "duration": 10, "velocity": 70}, {"time": 54960, "pitch": 70, "duration": 70, "velocity": 100}, {"time": 55080, "pitch": 38, "duration": 10, "velocity": 40}, {"time": 55080, "pitch": 54, "duration": 10, "velocity": 37}, {"time": 55080, "pitch": 63, "duration": 10, "velocity": 60}, {"time": 55200, "pitch": 35, "duration": 10, "velocity": 89}, {"time": 55200, "pitch": 42, "duration": 10, "velocity": 84}, {"time": 55200, "pitch": 54, "duration": 10, "velocity": 86}, {"time": 55320, "pitch": 38, "duration": 10, "velocity": 40}, {"time": 55320, "pitch": 42, "duration": 10, "velocity": 78}, {"time": 55320, "pitch": 54, "duration": 10, "velocity": 39}, {"time": 55320, "pitch": 62, "duration": 10, "velocity": 60}, {"time": 55440, "pitch": 46, "duration": 10, "velocity": 75}, {"time": 55440, "pitch": 54, "duration": 10, "velocity": 44}, {"time": 55440, "pitch": 60, "duration": 10, "velocity": 60}, {"time": 55440, "pitch": 70, "duration": 70, "velocity": 100}, {"time": 55560, "pitch": 54, "duration": 10, "velocity": 37}, {"time": 55680, "pitch": 35, "duration": 10, "velocity": 82}, {"time": 55680, "pitch": 39, "duration": 10, "velocity": 85}, {"time": 55680, "pitch": 40, "duration": 10, "velocity": 89}, {"time": 55680, "pitch": 42, "duration": 10, "velocity": 84}, {"time": 55680, "pitch": 54, "duration": 10, "velocity": 49}, {"time": 55680, "pitch": 64, "duration": 10, "velocity": 60}, {"time": 55800, "pitch": 54, "duration": 10, "velocity": 39}, {"time": 55920, "pitch": 46, "duration": 10, "velocity": 75}, {"time": 55920, "pitch": 54, "duration": 10, "velocity": 44}, {"time": 55920, "pitch": 61, "duration": 10, "velocity": 55}, {"time": 55920, "pitch": 70, "duration": 70, "velocity": 100}, {"time": 56040, "pitch": 38, "duration": 10, "velocity": 40}, {"time": 56040, "pitch": 54, "duration": 10, "velocity": 37}, {"time": 56040, "pitch": 61, "duration": 10, "velocity": 50}, {"time": 56040, "pitch": 70, "duration": 70, "velocity": 50}, {"time": 56160, "pitch": 35, "duration": 10, "velocity": 90}, {"time": 56160, "pitch": 42, "duration": 10, "velocity": 84}, {"time": 56160, "pitch": 54, "duration": 10, "velocity": 86}, {"time": 56160, "pitch": 63, "duration": 10, "velocity": 55}, {"time": 56280, "pitch": 54, "duration": 10, "velocity": 39}, {"time": 56400, "pitch": 38, "duration": 10, "velocity": 40}, {"time": 56400, "pitch": 46, "duration": 10, "velocity": 75}, {"time": 56400, "pitch": 54, "duration": 10, "velocity": 44}, {"time": 56400, "pitch": 61, "duration": 10, "velocity": 50}, {"time": 56400, "pitch": 70, "duration": 70, "velocity": 100}, {"time": 56520, "pitch": 38, "duration": 10, "velocity": 40}, {"time": 56520, "pitch": 54, "duration": 10, "velocity": 37}, {"time": 56520, "pitch": 63, "duration": 10, "velocity": 61}, {"time": 56520, "pitch": 70, "duration": 70, "velocity": 50}, {"time": 56640, "pitch": 35, "duration": 10, "velocity": 87}, {"time": 56640, "pitch": 39, "duration": 10, "velocity": 85}, {"time": 56640, "pitch": 40, "duration": 10, "velocity": 85}, {"time": 56640, "pitch": 42, "duration": 10, "velocity": 84}, {"time": 56640, "pitch": 54, "duration": 10, "velocity": 49}, {"time": 56640, "pitch": 62, "duration": 10, "velocity": 80}, {"time": 56760, "pitch": 54, "duration": 10, "velocity": 39}, {"time": 56880, "pitch": 46, "duration": 10, "velocity": 75}, {"time": 56880, "pitch": 54, "duration": 10, "velocity": 44}, {"time": 56880, "pitch": 64, "duration": 10, "velocity": 70}, {"time": 56880, "pitch": 70, "duration": 70, "velocity": 100}, {"time": 57000, "pitch": 38, "duration": 10, "velocity": 40}, {"time": 57000, "pitch": 54, "duration": 10, "velocity": 37}, {"time": 57000, "pitch": 63, "duration": 10, "velocity": 60}, {"time": 57120, "pitch": 35, "duration": 10, "velocity": 89}, {"time": 57120, "pitch": 42, "duration": 10, "velocity": 84}, {"time": 57120, "pitch": 54, "duration": 10, "velocity": 86}, {"time": 57240, "pitch": 38, "duration": 10, "velocity": 40}, {"time": 57240, "pitch": 42, "duration": 10, "velocity": 78}, {"time": 57240, "pitch": 54, "duration": 10, "velocity": 39}, {"time": 57240, "pitch": 63, "duration": 10, "velocity": 60}, {"time": 57360, "pitch": 46, "duration": 10, "velocity": 75}, {"time": 57360, "pitch": 54, "duration": 10, "velocity": 44}, {"time": 57360, "pitch": 60, "duration": 10, "velocity": 50}, {"time": 57360, "pitch": 70, "duration": 70, "velocity": 100}, {"time": 57480, "pitch": 54, "duration": 10, "velocity": 37}, {"time": 57600, "pitch": 35, "duration": 10, "velocity": 82}, {"time": 57600, "pitch": 39, "duration": 10, "velocity": 85}, {"time": 57600, "pitch": 40, "duration": 10, "velocity": 89}, {"time": 57600, "pitch": 42, "duration": 10, "velocity": 84}, {"time": 57600, "pitch": 54, "duration": 10, "velocity": 49}, {"time": 57600, "pitch": 61, "duration": 10, "velocity": 80}, {"time": 57720, "pitch": 54, "duration": 10, "velocity": 39}, {"time": 57840, "pitch": 46, "duration": 10, "velocity": 75}, {"time": 57840, "pitch": 54, "duration": 10, "velocity": 44}, {"time": 57840, "pitch": 64, "duration": 10, "velocity": 55}, {"time": 57840, "pitch": 70, "duration": 70, "velocity": 100}, {"time": 57960, "pitch": 38, "duration": 10, "velocity": 40}, {"time": 57960, "pitch": 54, "duration": 10, "velocity": 37}, {"time": 57960, "pitch": 64, "duration": 10, "velocity": 50}, {"time": 57960, "pitch": 70, "duration": 70, "velocity": 50}, {"time": 58080, "pitch": 35, "duration": 10, "velocity": 90}, {"time": 58080, "pitch": 42, "duration": 10, "velocity": 84}, {"time": 58080, "pitch": 49, "duration": 10, "velocity": 60}, {"time": 58080, "pitch": 54, "duration": 10, "velocity": 86}, {"time": 58080, "pitch": 61, "duration": 10, "velocity": 55}, {"time": 58200, "pitch": 54, "duration": 10, "velocity": 39}, {"time": 58320, "pitch": 38, "duration": 10, "velocity": 40}, {"time": 58320, "pitch": 46, "duration": 10, "velocity": 75}, {"time": 58320, "pitch": 54, "duration": 10, "velocity": 44}, {"time": 58320, "pitch": 63, "duration": 10, "velocity": 50}, {"time": 58320, "pitch": 70, "duration": 70, "velocity": 100}, {"time": 58440, "pitch": 38, "duration": 10, "velocity": 40}, {"time": 58440, "pitch": 54, "duration": 10, "velocity": 37}, {"time": 58440, "pitch": 63, "duration": 10, "velocity": 53}, {"time": 58440, "pitch": 70, "duration": 70, "velocity": 50}, {"time": 58560, "pitch": 35, "duration": 10, "velocity": 87}, {"time": 58560, "pitch": 39, "duration": 10, "velocity": 85}, {"time": 58560, "pitch": 40, "duration": 10, "velocity": 85}, {"time": 58560, "pitch": 42, "duration": 10, "velocity": 84}, {"time": 58560, "pitch": 54, "duration": 10, "velocity": 49}, {"time": 58560, "pitch": 62, "duration": 10, "velocity": 80}, {"time": 58680, "pitch": 54, "duration": 10, "velocity": 39}, {"time": 58800, "pitch": 46, "duration": 10, "velocity": 75}, {"time": 58800, "pitch": 54, "duration": 10, "velocity": 44}, {"time": 58800, "pitch": 64, "duration": 10, "velocity": 70}, {"time": 58800, "pitch": 70, "duration": 70, "velocity": 100}, {"time": 58920, "pitch": 38, "duration": 10, "velocity": 40}, {"time": 58920, "pitch": 54, "duration": 10, "velocity": 37}, {"time": 58920, "pitch": 63, "duration": 10, "velocity": 60}, {"time": 59040, "pitch": 35, "duration": 10, "velocity": 89}, {"time": 59040, "pitch": 42, "duration": 10, "velocity": 84}, {"time": 59040, "pitch": 54, "duration": 10, "velocity": 86}, {"time": 59160, "pitch": 38, "duration": 10, "velocity": 40}, {"time": 59160, "pitch": 42, "duration": 10, "velocity": 78}, {"time": 59160, "pitch": 54, "duration": 10, "velocity": 39}, {"time": 59160, "pitch": 62, "duration": 10, "velocity": 60}, {"time": 59280, "pitch": 46, "duration": 10, "velocity": 75}, {"time": 59280, "pitch": 54, "duration": 10, "velocity": 44}, {"time": 59280, "pitch": 60, "duration": 10, "velocity": 60}, {"time": 59280, "pitch": 70, "duration": 70, "velocity": 100}, {"time": 59400, "pitch": 54, "duration": 10, "velocity": 37}, {"time": 59520, "pitch": 35, "duration": 10, "velocity": 82}, {"time": 59520, "pitch": 39, "duration": 10, "velocity": 85}, {"time": 59520, "pitch": 40, "duration": 10, "velocity": 89}, {"time": 59520, "pitch": 42, "duration": 10, "velocity": 84}, {"time": 59520, "pitch": 54, "duration": 10, "velocity": 49}, {"time": 59520, "pitch": 64, "duration": 10, "velocity": 60}, {"time": 59640, "pitch": 54, "duration": 10, "velocity": 39}, {"time": 59760, "pitch": 46, "duration": 10, "velocity": 75}, {"time": 59760, "pitch": 54, "duration": 10, "velocity": 44}, {"time": 59760, "pitch": 61, "duration": 10, "velocity": 55}, {"time": 59760, "pitch": 70, "duration": 70, "velocity": 100}, {"time": 59880, "pitch": 38, "duration": 10, "velocity": 40}, {"time": 59880, "pitch": 54, "duration": 10, "velocity": 37}, {"time": 59880, "pitch": 61, "duration": 10, "velocity": 50}, {"time": 59880, "pitch": 70, "duration": 70, "velocity": 50}, {"time": 60000, "pitch": 35, "duration": 10, "velocity": 90}, {"time": 60000, "pitch": 42, "duration": 10, "velocity": 84}, {"time": 60000, "pitch": 54, "duration": 10, "velocity": 86}, {"time": 60000, "pitch": 63, "duration": 10, "velocity": 55}, {"time": 60120, "pitch": 54, "duration": 10, "velocity": 39}, {"time": 60240, "pitch": 38, "duration": 10, "velocity": 40}, {"time": 60240, "pitch": 46, "duration": 10, "velocity": 75}, {"time": 60240, "pitch": 54, "duration": 10, "velocity": 44}, {"time": 60240, "pitch": 61, "duration": 10, "velocity": 50}, {"time": 60240, "pitch": 70, "duration": 70, "velocity": 100}, {"time": 60360, "pitch": 38, "duration": 10, "velocity": 40}, {"time": 60360, "pitch": 54, "duration": 10, "velocity": 37}, {"time": 60360, "pitch": 63, "duration": 10, "velocity": 61}, {"time": 60360, "pitch": 70, "duration": 70, "velocity": 50}, {"time": 60480, "pitch": 35, "duration": 10, "velocity": 87}, {"time": 60480, "pitch": 39, "duration": 10, "velocity": 85}, {"time": 60480, "pitch": 40, "duration": 10, "velocity": 85}, {"time": 60480, "pitch": 42, "duration": 10, "velocity": 84}, {"time": 60480, "pitch": 54, "duration": 10, "velocity": 49}, {"time": 60480, "pitch": 62, "duration": 10, "velocity": 80}, {"time": 60600, "pitch": 54, "duration": 10, "velocity": 39}, {"time": 60720, "pitch": 46, "duration": 10, "velocity": 75}, {"time": 60720, "pitch": 54, "duration": 10, "velocity": 44}, {"time": 60720, "pitch": 64, "duration": 10, "velocity": 70}, {"time": 60720, "pitch": 70, "duration": 70, "velocity": 100}, {"time": 60840, "pitch": 38, "duration": 10, "velocity": 40}, {"time": 60840, "pitch": 54, "duration": 10, "velocity": 37}, {"time": 60840, "pitch": 63, "duration": 10, "velocity": 60}, {"time": 60960, "pitch": 35, "duration": 10, "velocity": 89}, {"time": 60960, "pitch": 42, "duration": 10, "velocity": 84}, {"time": 60960, "pitch": 54, "duration": 10, "velocity": 86}, {"time": 61080, "pitch": 38, "duration": 10, "velocity": 40}, {"time": 61080, "pitch": 42, "duration": 10, "velocity": 78}, {"time": 61080, "pitch": 54, "duration": 10, "velocity": 39}, {"time": 61080, "pitch": 63, "duration": 10, "velocity": 60}, {"time": 61200, "pitch": 46, "duration": 10, "velocity": 75}, {"time": 61200, "pitch": 54, "duration": 10, "velocity": 44}, {"time": 61200, "pitch": 60, "duration": 10, "velocity": 50}, {"time": 61200, "pitch": 70, "duration": 70, "velocity": 100}, {"time": 61320, "pitch": 54, "duration": 10, "velocity": 37}, {"time": 61440, "pitch": 35, "duration": 10, "velocity": 82}, {"time": 61440, "pitch": 39, "duration": 10, "velocity": 85}, {"time": 61440, "pitch": 40, "duration": 10, "velocity": 89}, {"time": 61440, "pitch": 42, "duration": 10, "velocity": 84}, {"time": 61440, "pitch": 54, "duration": 10, "velocity": 49}, {"time": 61440, "pitch": 61, "duration": 10, "velocity": 80}, {"time": 61560, "pitch": 54, "duration": 10, "velocity": 39}, {"time": 61680, "pitch": 46, "duration": 10, "velocity": 75}, {"time": 61680, "pitch": 54, "duration": 10, "velocity": 44}, {"time": 61680, "pitch": 64, "duration": 10, "velocity": 55}, {"time": 61680, "pitch": 70, "duration": 70, "velocity": 100}, {"time": 61800, "pitch": 38, "duration": 10, "velocity": 40}, {"time": 61800, "pitch": 54, "duration": 10, "velocity": 37}, {"time": 61800, "pitch": 64, "duration": 10, "velocity": 50}, {"time": 61800, "pitch": 70, "duration": 70, "velocity": 50}, {"time": 61920, "pitch": 35, "duration": 10, "velocity": 90}, {"time": 61920, "pitch": 42, "duration": 10, "velocity": 84}, {"time": 61920, "pitch": 54, "duration": 10, "velocity": 86}, {"time": 61920, "pitch": 61, "duration": 10, "velocity": 55}, {"time": 62040, "pitch": 54, "duration": 10, "velocity": 39}, {"time": 62160, "pitch": 38, "duration": 10, "velocity": 40}, {"time": 62160, "pitch": 46, "duration": 10, "velocity": 75}, {"time": 62160, "pitch": 54, "duration": 10, "velocity": 44}, {"time": 62160, "pitch": 63, "duration": 10, "velocity": 50}, {"time": 62160, "pitch": 70, "duration": 70, "velocity": 100}, {"time": 62280, "pitch": 38, "duration": 10, "velocity": 40}, {"time": 62280, "pitch": 54, "duration": 10, "velocity": 37}, {"time": 62280, "pitch": 63, "duration": 10, "velocity": 53}, {"time": 62280, "pitch": 70, "duration": 70, "velocity": 50}, {"time": 62400, "pitch": 35, "duration": 10, "velocity": 87}, {"time": 62400, "pitch": 39, "duration": 10, "velocity": 85}, {"time": 62400, "pitch": 40, "duration": 10, "velocity": 85}, {"time": 62400, "pitch": 42, "duration": 10, "velocity": 84}, {"time": 62400, "pitch": 54, "duration": 10, "velocity": 49}, {"time": 62400, "pitch": 62, "duration": 10, "velocity": 80}, {"time": 62520, "pitch": 54, "duration": 10, "velocity": 39}, {"time": 62640, "pitch": 46, "duration": 10, "velocity": 75}, {"time": 62640, "pitch": 54, "duration": 10, "velocity": 44}, {"time": 62640, "pitch": 64, "duration": 10, "velocity": 70}, {"time": 62640, "pitch": 70, "duration": 70, "velocity": 100}, {"time": 62760, "pitch": 38, "duration": 10, "velocity": 40}, {"time": 62760, "pitch": 54, "duration": 10, "velocity": 37}, {"time": 62760, "pitch": 63, "duration": 10, "velocity": 60}, {"time": 62880, "pitch": 35, "duration": 10, "velocity": 89}, {"time": 62880, "pitch": 42, "duration": 10, "velocity": 84}, {"time": 62880, "pitch": 54, "duration": 10, "velocity": 86}, {"time": 63000, "pitch": 38, "duration": 10, "velocity": 40}, {"time": 63000, "pitch": 42, "duration": 10, "velocity": 78}, {"time": 63000, "pitch": 54, "duration": 10, "velocity": 39}, {"time": 63000, "pitch": 62, "duration": 10, "velocity": 60}, {"time": 63120, "pitch": 46, "duration": 10, "velocity": 75}, {"time": 63120, "pitch": 54, "duration": 10, "velocity": 44}, {"time": 63120, "pitch": 60, "duration": 10, "velocity": 60}, {"time": 63120, "pitch": 70, "duration": 70, "velocity": 100}, {"time": 63240, "pitch": 54, "duration": 10, "velocity": 37}, {"time": 63360, "pitch": 35, "duration": 10, "velocity": 82}, {"time": 63360, "pitch": 39, "duration": 10, "velocity": 85}, {"time": 63360, "pitch": 40, "duration": 10, "velocity": 89}, {"time": 63360, "pitch": 42, "duration": 10, "velocity": 84}, {"time": 63360, "pitch": 54, "duration": 10, "velocity": 49}, {"time": 63360, "pitch": 64, "duration": 10, "velocity": 60}, {"time": 63480, "pitch": 54, "duration": 10, "velocity": 39}, {"time": 63600, "pitch": 46, "duration": 10, "velocity": 75}, {"time": 63600, "pitch": 54, "duration": 10, "velocity": 44}, {"time": 63600, "pitch": 61, "duration": 10, "velocity": 55}, {"time": 63600, "pitch": 70, "duration": 70, "velocity": 100}, {"time": 63720, "pitch": 38, "duration": 10, "velocity": 40}, {"time": 63720, "pitch": 54, "duration": 10, "velocity": 37}, {"time": 63720, "pitch": 61, "duration": 10, "velocity": 50}, {"time": 63720, "pitch": 70, "duration": 70, "velocity": 50}, {"time": 63840, "pitch": 35, "duration": 10, "velocity": 90}, {"time": 63840, "pitch": 42, "duration": 10, "velocity": 84}, {"time": 63840, "pitch": 54, "duration": 10, "velocity": 86}, {"time": 63840, "pitch": 63, "duration": 10, "velocity": 55}, {"time": 63960, "pitch": 54, "duration": 10, "velocity": 39}, {"time": 64080, "pitch": 38, "duration": 10, "velocity": 40}, {"time": 64080, "pitch": 46, "duration": 10, "velocity": 75}, {"time": 64080, "pitch": 54, "duration": 10, "velocity": 44}, {"time": 64080, "pitch": 61, "duration": 10, "velocity": 50}, {"time": 64080, "pitch": 70, "duration": 70, "velocity": 100}, {"time": 64200, "pitch": 38, "duration": 10, "velocity": 40}, {"time": 64200, "pitch": 54, "duration": 10, "velocity": 37}, {"time": 64200, "pitch": 63, "duration": 10, "velocity": 61}, {"time": 64200, "pitch": 70, "duration": 70, "velocity": 50}, {"time": 64320, "pitch": 35, "duration": 10, "velocity": 87}, {"time": 64320, "pitch": 39, "duration": 10, "velocity": 85}, {"time": 64320, "pitch": 40, "duration": 10, "velocity": 85}, {"time": 64320, "pitch": 42, "duration": 10, "velocity": 84}, {"time": 64320, "pitch": 54, "duration": 10, "velocity": 49}, {"time": 64320, "pitch": 62, "duration": 10, "velocity": 80}, {"time": 64440, "pitch": 54, "duration": 10, "velocity": 39}, {"time": 64560, "pitch": 46, "duration": 10, "velocity": 75}, {"time": 64560, "pitch": 54, "duration": 10, "velocity": 44}, {"time": 64560, "pitch": 64, "duration": 10, "velocity": 70}, {"time": 64560, "pitch": 70, "duration": 70, "velocity": 100}, {"time": 64680, "pitch": 38, "duration": 10, "velocity": 40}, {"time": 64680, "pitch": 54, "duration": 10, "velocity": 37}, {"time": 64680, "pitch": 63, "duration": 10, "velocity": 60}, {"time": 64800, "pitch": 35, "duration": 10, "velocity": 89}, {"time": 64800, "pitch": 42, "duration": 10, "velocity": 84}, {"time": 64800, "pitch": 54, "duration": 10, "velocity": 86}, {"time": 64920, "pitch": 38, "duration": 10, "velocity": 40}, {"time": 64920, "pitch": 42, "duration": 10, "velocity": 78}, {"time": 64920, "pitch": 54, "duration": 10, "velocity": 39}, {"time": 64920, "pitch": 63, "duration": 10, "velocity": 60}, {"time": 65040, "pitch": 46, "duration": 10, "velocity": 75}, {"time": 65040, "pitch": 54, "duration": 10, "velocity": 44}, {"time": 65040, "pitch": 60, "duration": 10, "velocity": 50}, {"time": 65040, "pitch": 70, "duration": 70, "velocity": 100}, {"time": 65160, "pitch": 54, "duration": 10, "velocity": 37}, {"time": 65280, "pitch": 35, "duration": 10, "velocity": 82}, {"time": 65280, "pitch": 39, "duration": 10, "velocity": 85}, {"time": 65280, "pitch": 40, "duration": 10, "velocity": 89}, {"time": 65280, "pitch": 42, "duration": 10, "velocity": 84}, {"time": 65280, "pitch": 54, "duration": 10, "velocity": 49}, {"time": 65280, "pitch": 61, "duration": 10, "velocity": 80}, {"time": 65400, "pitch": 54, "duration": 10, "velocity": 39}, {"time": 65520, "pitch": 46, "duration": 10, "velocity": 75}, {"time": 65520, "pitch": 54, "duration": 10, "velocity": 44}, {"time": 65520, "pitch": 64, "duration": 10, "velocity": 55}, {"time": 65520, "pitch": 70, "duration": 70, "velocity": 100}, {"time": 65640, "pitch": 38, "duration": 10, "velocity": 40}, {"time": 65640, "pitch": 54, "duration": 10, "velocity": 37}, {"time": 65640, "pitch": 64, "duration": 10, "velocity": 50}, {"time": 65640, "pitch": 70, "duration": 70, "velocity": 50}, {"time": 65760, "pitch": 35, "duration": 10, "velocity": 90}, {"time": 65760, "pitch": 42, "duration": 10, "velocity": 84}, {"time": 65760, "pitch": 54, "duration": 10, "velocity": 86}, {"time": 65760, "pitch": 57, "duration": 10, "velocity": 68}, {"time": 65760, "pitch": 61, "duration": 10, "velocity": 55}, {"time": 65880, "pitch": 54, "duration": 10, "velocity": 39}, {"time": 66000, "pitch": 38, "duration": 10, "velocity": 40}, {"time": 66000, "pitch": 46, "duration": 10, "velocity": 75}, {"time": 66000, "pitch": 54, "duration": 10, "velocity": 44}, {"time": 66000, "pitch": 63, "duration": 10, "velocity": 50}, {"time": 66000, "pitch": 70, "duration": 70, "velocity": 100}, {"time": 66120, "pitch": 38, "duration": 10, "velocity": 40}, {"time": 66120, "pitch": 54, "duration": 10, "velocity": 37}, {"time": 66120, "pitch": 63, "duration": 10, "velocity": 53}, {"time": 66120, "pitch": 70, "duration": 70, "velocity": 50}, {"time": 66240, "pitch": 35, "duration": 10, "velocity": 87}, {"time": 66240, "pitch": 39, "duration": 10, "velocity": 85}, {"time": 66240, "pitch": 40, "duration": 10, "velocity": 85}, {"time": 66240, "pitch": 42, "duration": 10, "velocity": 84}, {"time": 66240, "pitch": 54, "duration": 10, "velocity": 49}, {"time": 66240, "pitch": 62, "duration": 10, "velocity": 80}, {"time": 66360, "pitch": 54, "duration": 10, "velocity": 39}, {"time": 66480, "pitch": 46, "duration": 10, "velocity": 75}, {"time": 66480, "pitch": 54, "duration": 10, "velocity": 44}, {"time": 66480, "pitch": 64, "duration": 10, "velocity": 70}, {"time": 66480, "pitch": 70, "duration": 70, "velocity": 100}, {"time": 66600, "pitch": 38, "duration": 10, "velocity": 40}, {"time": 66600, "pitch": 54, "duration": 10, "velocity": 37}, {"time": 66600, "pitch": 63, "duration": 10, "velocity": 60}, {"time": 66720, "pitch": 35, "duration": 10, "velocity": 89}, {"time": 66720, "pitch": 42, "duration": 10, "velocity": 84}, {"time": 66720, "pitch": 54, "duration": 10, "velocity": 86}, {"time": 66840, "pitch": 38, "duration": 10, "velocity": 40}, {"time": 66840, "pitch": 42, "duration": 10, "velocity": 78}, {"time": 66840, "pitch": 54, "duration": 10, "velocity": 39}, {"time": 66840, "pitch": 62, "duration": 10, "velocity": 60}, {"time": 66960, "pitch": 46, "duration": 10, "velocity": 75}, {"time": 66960, "pitch": 54, "duration": 10, "velocity": 44}, {"time": 66960, "pitch": 60, "duration": 10, "velocity": 60}, {"time": 66960, "pitch": 70, "duration": 70, "velocity": 100}, {"time": 67080, "pitch": 54, "duration": 10, "velocity": 37}, {"time": 67200, "pitch": 35, "duration": 10, "velocity": 82}, {"time": 67200, "pitch": 39, "duration": 10, "velocity": 85}, {"time": 67200, "pitch": 40, "duration": 10, "velocity": 89}, {"time": 67200, "pitch": 42, "duration": 10, "velocity": 84}, {"time": 67200, "pitch": 54, "duration": 10, "velocity": 49}, {"time": 67200, "pitch": 64, "duration": 10, "velocity": 60}, {"time": 67320, "pitch": 54, "duration": 10, "velocity": 39}, {"time": 67440, "pitch": 46, "duration": 10, "velocity": 75}, {"time": 67440, "pitch": 54, "duration": 10, "velocity": 44}, {"time": 67440, "pitch": 61, "duration": 10, "velocity": 55}, {"time": 67440, "pitch": 70, "duration": 70, "velocity": 100}, {"time": 67560, "pitch": 38, "duration": 10, "velocity": 40}, {"time": 67560, "pitch": 54, "duration": 10, "velocity": 37}, {"time": 67560, "pitch": 61, "duration": 10, "velocity": 50}, {"time": 67560, "pitch": 70, "duration": 70, "velocity": 50}, {"time": 67680, "pitch": 35, "duration": 10, "velocity": 90}, {"time": 67680, "pitch": 42, "duration": 10, "velocity": 84}, {"time": 67680, "pitch": 54, "duration": 10, "velocity": 86}, {"time": 67680, "pitch": 63, "duration": 10, "velocity": 55}, {"time": 67800, "pitch": 54, "duration": 10, "velocity": 39}, {"time": 67920, "pitch": 38, "duration": 10, "velocity": 40}, {"time": 67920, "pitch": 46, "duration": 10, "velocity": 75}, {"time": 67920, "pitch": 54, "duration": 10, "velocity": 44}, {"time": 67920, "pitch": 61, "duration": 10, "velocity": 50}, {"time": 67920, "pitch": 70, "duration": 70, "velocity": 100}, {"time": 68040, "pitch": 38, "duration": 10, "velocity": 40}, {"time": 68040, "pitch": 54, "duration": 10, "velocity": 37}, {"time": 68040, "pitch": 63, "duration": 10, "velocity": 61}, {"time": 68040, "pitch": 70, "duration": 70, "velocity": 50}, {"time": 68160, "pitch": 35, "duration": 10, "velocity": 87}, {"time": 68160, "pitch": 39, "duration": 10, "velocity": 85}, {"time": 68160, "pitch": 40, "duration": 10, "velocity": 85}, {"time": 68160, "pitch": 42, "duration": 10, "velocity": 84}, {"time": 68160, "pitch": 54, "duration": 10, "velocity": 49}, {"time": 68160, "pitch": 62, "duration": 10, "velocity": 80}, {"time": 68280, "pitch": 54, "duration": 10, "velocity": 39}, {"time": 68400, "pitch": 46, "duration": 10, "velocity": 75}, {"time": 68400, "pitch": 54, "duration": 10, "velocity": 44}, {"time": 68400, "pitch": 64, "duration": 10, "velocity": 70}, {"time": 68400, "pitch": 70, "duration": 70, "velocity": 100}, {"time": 68520, "pitch": 38, "duration": 10, "velocity": 40}, {"time": 68520, "pitch": 54, "duration": 10, "velocity": 37}, {"time": 68520, "pitch": 63, "duration": 10, "velocity": 60}, {"time": 68640, "pitch": 35, "duration": 10, "velocity": 89}, {"time": 68640, "pitch": 42, "duration": 10, "velocity": 84}, {"time": 68640, "pitch": 54, "duration": 10, "velocity": 86}, {"time": 68760, "pitch": 38, "duration": 10, "velocity": 40}, {"time": 68760, "pitch": 42, "duration": 10, "velocity": 78}, {"time": 68760, "pitch": 54, "duration": 10, "velocity": 39}, {"time": 68760, "pitch": 63, "duration": 10, "velocity": 60}, {"time": 68880, "pitch": 46, "duration": 10, "velocity": 75}, {"time": 68880, "pitch": 54, "duration": 10, "velocity": 44}, {"time": 68880, "pitch": 60, "duration": 10, "velocity": 50}, {"time": 68880, "pitch": 70, "duration": 70, "velocity": 100}, {"time": 69000, "pitch": 54, "duration": 10, "velocity": 37}, {"time": 69120, "pitch": 35, "duration": 10, "velocity": 82}, {"time": 69120, "pitch": 39, "duration": 10, "velocity": 85}, {"time": 69120, "pitch": 40, "duration": 10, "velocity": 89}, {"time": 69120, "pitch": 42, "duration": 10, "velocity": 84}, {"time": 69120, "pitch": 54, "duration": 10, "velocity": 49}, {"time": 69120, "pitch": 61, "duration": 10, "velocity": 80}, {"time": 69240, "pitch": 54, "duration": 10, "velocity": 39}, {"time": 69360, "pitch": 46, "duration": 10, "velocity": 75}, {"time": 69360, "pitch": 54, "duration": 10, "velocity": 44}, {"time": 69360, "pitch": 64, "duration": 10, "velocity": 55}, {"time": 69360, "pitch": 70, "duration": 70, "velocity": 100}, {"time": 69480, "pitch": 38, "duration": 10, "velocity": 40}, {"time": 69480, "pitch": 54, "duration": 10, "velocity": 37}, {"time": 69480, "pitch": 64, "duration": 10, "velocity": 50}, {"time": 69480, "pitch": 70, "duration": 70, "velocity": 50}, {"time": 69600, "pitch": 35, "duration": 10, "velocity": 90}, {"time": 69600, "pitch": 42, "duration": 10, "velocity": 84}, {"time": 69600, "pitch": 54, "duration": 10, "velocity": 86}, {"time": 69600, "pitch": 61, "duration": 10, "velocity": 55}, {"time": 69720, "pitch": 54, "duration": 10, "velocity": 39}, {"time": 69840, "pitch": 38, "duration": 10, "velocity": 40}, {"time": 69840, "pitch": 46, "duration": 10, "velocity": 75}, {"time": 69840, "pitch": 54, "duration": 10, "velocity": 44}, {"time": 69840, "pitch": 63, "duration": 10, "velocity": 50}, {"time": 69840, "pitch": 70, "duration": 70, "velocity": 100}, {"time": 69960, "pitch": 38, "duration": 10, "velocity": 40}, {"time": 69960, "pitch": 54, "duration": 10, "velocity": 37}, {"time": 69960, "pitch": 63, "duration": 10, "velocity": 53}, {"time": 69960, "pitch": 70, "duration": 70, "velocity": 50}, {"time": 70080, "pitch": 35, "duration": 10, "velocity": 87}, {"time": 70080, "pitch": 39, "duration": 10, "velocity": 85}, {"time": 70080, "pitch": 40, "duration": 10, "velocity": 85}, {"time": 70080, "pitch": 42, "duration": 10, "velocity": 84}, {"time": 70080, "pitch": 54, "duration": 10, "velocity": 49}, {"time": 70080, "pitch": 62, "duration": 10, "velocity": 80}, {"time": 70200, "pitch": 54, "duration": 10, "velocity": 39}, {"time": 70320, "pitch": 46, "duration": 10, "velocity": 75}, {"time": 70320, "pitch": 54, "duration": 10, "velocity": 44}, {"time": 70320, "pitch": 64, "duration": 10, "velocity": 70}, {"time": 70320, "pitch": 70, "duration": 70, "velocity": 100}, {"time": 70440, "pitch": 38, "duration": 10, "velocity": 40}, {"time": 70440, "pitch": 54, "duration": 10, "velocity": 37}, {"time": 70440, "pitch": 63, "duration": 10, "velocity": 60}, {"time": 70560, "pitch": 35, "duration": 10, "velocity": 89}, {"time": 70560, "pitch": 42, "duration": 10, "velocity": 84}, {"time": 70560, "pitch": 54, "duration": 10, "velocity": 86}, {"time": 70680, "pitch": 38, "duration": 10, "velocity": 40}, {"time": 70680, "pitch": 42, "duration": 10, "velocity": 78}, {"time": 70680, "pitch": 54, "duration": 10, "velocity": 39}, {"time": 70680, "pitch": 62, "duration": 10, "velocity": 60}, {"time": 70800, "pitch": 46, "duration": 10, "velocity": 75}, {"time": 70800, "pitch": 54, "duration": 10, "velocity": 44}, {"time": 70800, "pitch": 60, "duration": 10, "velocity": 60}, {"time": 70800, "pitch": 70, "duration": 70, "velocity": 100}, {"time": 70920, "pitch": 54, "duration": 10, "velocity": 37}, {"time": 71040, "pitch": 35, "duration": 10, "velocity": 82}, {"time": 71040, "pitch": 39, "duration": 10, "velocity": 85}, {"time": 71040, "pitch": 40, "duration": 10, "velocity": 89}, {"time": 71040, "pitch": 42, "duration": 10, "velocity": 84}, {"time": 71040, "pitch": 54, "duration": 10, "velocity": 49}, {"time": 71040, "pitch": 64, "duration": 10, "velocity": 60}, {"time": 71160, "pitch": 54, "duration": 10, "velocity": 39}, {"time": 71280, "pitch": 46, "duration": 10, "velocity": 75}, {"time": 71280, "pitch": 54, "duration": 10, "velocity": 44}, {"time": 71280, "pitch": 61, "duration": 10, "velocity": 55}, {"time": 71280, "pitch": 70, "duration": 70, "velocity": 100}, {"time": 71400, "pitch": 38, "duration": 10, "velocity": 40}, {"time": 71400, "pitch": 54, "duration": 10, "velocity": 37}, {"time": 71400, "pitch": 61, "duration": 10, "velocity": 50}, {"time": 71400, "pitch": 70, "duration": 70, "velocity": 50}, {"time": 71520, "pitch": 35, "duration": 10, "velocity": 90}, {"time": 71520, "pitch": 42, "duration": 10, "velocity": 84}, {"time": 71520, "pitch": 54, "duration": 10, "velocity": 86}, {"time": 71520, "pitch": 63, "duration": 10, "velocity": 55}, {"time": 71640, "pitch": 54, "duration": 10, "velocity": 39}, {"time": 71760, "pitch": 38, "duration": 10, "velocity": 40}, {"time": 71760, "pitch": 46, "duration": 10, "velocity": 75}, {"time": 71760, "pitch": 54, "duration": 10, "velocity": 44}, {"time": 71760, "pitch": 61, "duration": 10, "velocity": 50}, {"time": 71760, "pitch": 70, "duration": 70, "velocity": 100}, {"time": 71880, "pitch": 38, "duration": 10, "velocity": 40}, {"time": 71880, "pitch": 54, "duration": 10, "velocity": 37}, {"time": 71880, "pitch": 63, "duration": 10, "velocity": 61}, {"time": 71880, "pitch": 70, "duration": 70, "velocity": 50}, {"time": 72000, "pitch": 35, "duration": 10, "velocity": 87}, {"time": 72000, "pitch": 39, "duration": 10, "velocity": 85}, {"time": 72000, "pitch": 40, "duration": 10, "velocity": 85}, {"time": 72000, "pitch": 42, "duration": 10, "velocity": 84}, {"time": 72000, "pitch": 54, "duration": 10, "velocity": 49}, {"time": 72000, "pitch": 62, "duration": 10, "velocity": 80}, {"time": 72120, "pitch": 54, "duration": 10, "velocity": 39}, {"time": 72240, "pitch": 46, "duration": 10, "velocity": 75}, {"time": 72240, "pitch": 54, "duration": 10, "velocity": 44}, {"time": 72240, "pitch": 64, "duration": 10, "velocity": 70}, {"time": 72240, "pitch": 70, "duration": 70, "velocity": 100}, {"time": 72360, "pitch": 38, "duration": 10, "velocity": 40}, {"time": 72360, "pitch": 54, "duration": 10, "velocity": 37}, {"time": 72360, "pitch": 63, "duration": 10, "velocity": 60}, {"time": 72480, "pitch": 35, "duration": 10, "velocity": 89}, {"time": 72480, "pitch": 42, "duration": 10, "velocity": 84}, {"time": 72480, "pitch": 54, "duration": 10, "velocity": 86}, {"time": 72600, "pitch": 38, "duration": 10, "velocity": 40}, {"time": 72600, "pitch": 42, "duration": 10, "velocity": 78}, {"time": 72600, "pitch": 54, "duration": 10, "velocity": 39}, {"time": 72600, "pitch": 63, "duration": 10, "velocity": 60}, {"time": 72720, "pitch": 46, "duration": 10, "velocity": 75}, {"time": 72720, "pitch": 54, "duration": 10, "velocity": 44}, {"time": 72720, "pitch": 60, "duration": 10, "velocity": 50}, {"time": 72720, "pitch": 70, "duration": 70, "velocity": 100}, {"time": 72840, "pitch": 54, "duration": 10, "velocity": 37}, {"time": 72960, "pitch": 35, "duration": 10, "velocity": 82}, {"time": 72960, "pitch": 39, "duration": 10, "velocity": 85}, {"time": 72960, "pitch": 40, "duration": 10, "velocity": 89}, {"time": 72960, "pitch": 42, "duration": 10, "velocity": 84}, {"time": 72960, "pitch": 54, "duration": 10, "velocity": 49}, {"time": 72960, "pitch": 61, "duration": 10, "velocity": 80}, {"time": 73080, "pitch": 54, "duration": 10, "velocity": 39}, {"time": 73200, "pitch": 46, "duration": 10, "velocity": 75}, {"time": 73200, "pitch": 54, "duration": 10, "velocity": 44}, {"time": 73200, "pitch": 64, "duration": 10, "velocity": 55}, {"time": 73200, "pitch": 70, "duration": 70, "velocity": 100}, {"time": 73320, "pitch": 38, "duration": 10, "velocity": 40}, {"time": 73320, "pitch": 54, "duration": 10, "velocity": 37}, {"time": 73320, "pitch": 64, "duration": 10, "velocity": 50}, {"time": 73320, "pitch": 70, "duration": 70, "velocity": 50}, {"time": 73440, "pitch": 35, "duration": 10, "velocity": 90}, {"time": 73440, "pitch": 42, "duration": 10, "velocity": 84}, {"time": 73440, "pitch": 49, "duration": 10, "velocity": 60}, {"time": 73440, "pitch": 54, "duration": 10, "velocity": 86}, {"time": 73440, "pitch": 61, "duration": 10, "velocity": 55}, {"time": 73560, "pitch": 54, "duration": 10, "velocity": 39}, {"time": 73680, "pitch": 38, "duration": 10, "velocity": 40}, {"time": 73680, "pitch": 46, "duration": 10, "velocity": 75}, {"time": 73680, "pitch": 54, "duration": 10, "velocity": 44}, {"time": 73680, "pitch": 63, "duration": 10, "velocity": 50}, {"time": 73680, "pitch": 70, "duration": 70, "velocity": 100}, {"time": 73800, "pitch": 38, "duration": 10, "velocity": 40}, {"time": 73800, "pitch": 54, "duration": 10, "velocity": 37}, {"time": 73800, "pitch": 63, "duration": 10, "velocity": 53}, {"time": 73800, "pitch": 70, "duration": 70, "velocity": 50}, {"time": 73920, "pitch": 35, "duration": 10, "velocity": 87}, {"time": 73920, "pitch": 39, "duration": 10, "velocity": 85}, {"time": 73920, "pitch": 40, "duration": 10, "velocity": 85}, {"time": 73920, "pitch": 42, "duration": 10, "velocity": 84}, {"time": 73920, "pitch": 54, "duration": 10, "velocity": 49}, {"time": 73920, "pitch": 62, "duration": 10, "velocity": 80}, {"time": 74040, "pitch": 54, "duration": 10, "velocity": 39}, {"time": 74160, "pitch": 46, "duration": 10, "velocity": 75}, {"time": 74160, "pitch": 54, "duration": 10, "velocity": 44}, {"time": 74160, "pitch": 64, "duration": 10, "velocity": 70}, {"time": 74160, "pitch": 70, "duration": 70, "velocity": 100}, {"time": 74280, "pitch": 38, "duration": 10, "velocity": 40}, {"time": 74280, "pitch": 54, "duration": 10, "velocity": 37}, {"time": 74280, "pitch": 63, "duration": 10, "velocity": 60}, {"time": 74400, "pitch": 35, "duration": 10, "velocity": 89}, {"time": 74400, "pitch": 42, "duration": 10, "velocity": 84}, {"time": 74400, "pitch": 54, "duration": 10, "velocity": 86}, {"time": 74520, "pitch": 38, "duration": 10, "velocity": 40}, {"time": 74520, "pitch": 42, "duration": 10, "velocity": 78}, {"time": 74520, "pitch": 54, "duration": 10, "velocity": 39}, {"time": 74520, "pitch": 62, "duration": 10, "velocity": 60}, {"time": 74640, "pitch": 46, "duration": 10, "velocity": 75}, {"time": 74640, "pitch": 54, "duration": 10, "velocity": 44}, {"time": 74640, "pitch": 60, "duration": 10, "velocity": 60}, {"time": 74640, "pitch": 70, "duration": 70, "velocity": 100}, {"time": 74760, "pitch": 54, "duration": 10, "velocity": 37}, {"time": 74880, "pitch": 35, "duration": 10, "velocity": 82}, {"time": 74880, "pitch": 39, "duration": 10, "velocity": 85}, {"time": 74880, "pitch": 40, "duration": 10, "velocity": 89}, {"time": 74880, "pitch": 42, "duration": 10, "velocity": 84}, {"time": 74880, "pitch": 54, "duration": 10, "velocity": 49}, {"time": 74880, "pitch": 64, "duration": 10, "velocity": 60}, {"time": 75000, "pitch": 54, "duration": 10, "velocity": 39}, {"time": 75120, "pitch": 46, "duration": 10, "velocity": 75}, {"time": 75120, "pitch": 54, "duration": 10, "velocity": 44}, {"time": 75120, "pitch": 61, "duration": 10, "velocity": 55}, {"time": 75120, "pitch": 70, "duration": 70, "velocity": 100}, {"time": 75240, "pitch": 38, "duration": 10, "velocity": 40}, {"time": 75240, "pitch": 54, "duration": 10, "velocity": 37}, {"time": 75240, "pitch": 61, "duration": 10, "velocity": 50}, {"time": 75240, "pitch": 70, "duration": 70, "velocity": 50}, {"time": 75360, "pitch": 35, "duration": 10, "velocity": 90}, {"time": 75360, "pitch": 42, "duration": 10, "velocity": 84}, {"time": 75360, "pitch": 54, "duration": 10, "velocity": 86}, {"time": 75360, "pitch": 63, "duration": 10, "velocity": 55}, {"time": 75480, "pitch": 54, "duration": 10, "velocity": 39}, {"time": 75600, "pitch": 38, "duration": 10, "velocity": 40}, {"time": 75600, "pitch": 46, "duration": 10, "velocity": 75}, {"time": 75600, "pitch": 54, "duration": 10, "velocity": 44}, {"time": 75600, "pitch": 61, "duration": 10, "velocity": 50}, {"time": 75600, "pitch": 70, "duration": 70, "velocity": 100}, {"time": 75720, "pitch": 38, "duration": 10, "velocity": 40}, {"time": 75720, "pitch": 54, "duration": 10, "velocity": 37}, {"time": 75720, "pitch": 63, "duration": 10, "velocity": 61}, {"time": 75720, "pitch": 70, "duration": 70, "velocity": 50}, {"time": 75840, "pitch": 35, "duration": 10, "velocity": 87}, {"time": 75840, "pitch": 39, "duration": 10, "velocity": 85}, {"time": 75840, "pitch": 40, "duration": 10, "velocity": 85}, {"time": 75840, "pitch": 42, "duration": 10, "velocity": 84}, {"time": 75840, "pitch": 54, "duration": 10, "velocity": 49}, {"time": 75840, "pitch": 62, "duration": 10, "velocity": 80}, {"time": 75960, "pitch": 54, "duration": 10, "velocity": 39}, {"time": 76080, "pitch": 46, "duration": 10, "velocity": 75}, {"time": 76080, "pitch": 54, "duration": 10, "velocity": 44}, {"time": 76080, "pitch": 64, "duration": 10, "velocity": 70}, {"time": 76080, "pitch": 70, "duration": 70, "velocity": 100}, {"time": 76200, "pitch": 38, "duration": 10, "velocity": 40}, {"time": 76200, "pitch": 54, "duration": 10, "velocity": 37}, {"time": 76200, "pitch": 63, "duration": 10, "velocity": 60}, {"time": 76320, "pitch": 35, "duration": 10, "velocity": 89}, {"time": 76320, "pitch": 42, "duration": 10, "velocity": 84}, {"time": 76320, "pitch": 54, "duration": 10, "velocity": 86}, {"time": 76440, "pitch": 38, "duration": 10, "velocity": 40}, {"time": 76440, "pitch": 42, "duration": 10, "velocity": 78}, {"time": 76440, "pitch": 54, "duration": 10, "velocity": 39}, {"time": 76440, "pitch": 63, "duration": 10, "velocity": 60}, {"time": 76560, "pitch": 46, "duration": 10, "velocity": 75}, {"time": 76560, "pitch": 54, "duration": 10, "velocity": 44}, {"time": 76560, "pitch": 60, "duration": 10, "velocity": 50}, {"time": 76560, "pitch": 70, "duration": 70, "velocity": 100}, {"time": 76680, "pitch": 54, "duration": 10, "velocity": 37}, {"time": 76800, "pitch": 35, "duration": 10, "velocity": 82}, {"time": 76800, "pitch": 39, "duration": 10, "velocity": 85}, {"time": 76800, "pitch": 40, "duration": 10, "velocity": 89}, {"time": 76800, "pitch": 42, "duration": 10, "velocity": 84}, {"time": 76800, "pitch": 54, "duration": 10, "velocity": 49}, {"time": 76800, "pitch": 61, "duration": 10, "velocity": 80}, {"time": 76920, "pitch": 54, "duration": 10, "velocity": 39}, {"time": 77040, "pitch": 46, "duration": 10, "velocity": 75}, {"time": 77040, "pitch": 54, "duration": 10, "velocity": 44}, {"time": 77040, "pitch": 64, "duration": 10, "velocity": 55}, {"time": 77040, "pitch": 70, "duration": 70, "velocity": 100}, {"time": 77160, "pitch": 38, "duration": 10, "velocity": 40}, {"time": 77160, "pitch": 54, "duration": 10, "velocity": 37}, {"time": 77160, "pitch": 64, "duration": 10, "velocity": 50}, {"time": 77160, "pitch": 70, "duration": 70, "velocity": 50}, {"time": 77280, "pitch": 35, "duration": 10, "velocity": 90}, {"time": 77280, "pitch": 42, "duration": 10, "velocity": 84}, {"time": 77280, "pitch": 54, "duration": 10, "velocity": 86}, {"time": 77280, "pitch": 61, "duration": 10, "velocity": 55}, {"time": 77400, "pitch": 54, "duration": 10, "velocity": 39}, {"time": 77520, "pitch": 38, "duration": 10, "velocity": 40}, {"time": 77520, "pitch": 46, "duration": 10, "velocity": 75}, {"time": 77520, "pitch": 54, "duration": 10, "velocity": 44}, {"time": 77520, "pitch": 63, "duration": 10, "velocity": 50}, {"time": 77520, "pitch": 70, "duration": 70, "velocity": 100}, {"time": 77640, "pitch": 38, "duration": 10, "velocity": 40}, {"time": 77640, "pitch": 54, "duration": 10, "velocity": 37}, {"time": 77640, "pitch": 63, "duration": 10, "velocity": 53}, {"time": 77640, "pitch": 70, "duration": 70, "velocity": 50}, {"time": 77760, "pitch": 35, "duration": 10, "velocity": 87}, {"time": 77760, "pitch": 39, "duration": 10, "velocity": 85}, {"time": 77760, "pitch": 40, "duration": 10, "velocity": 85}, {"time": 77760, "pitch": 42, "duration": 10, "velocity": 84}, {"time": 77760, "pitch": 54, "duration": 10, "velocity": 49}, {"time": 77760, "pitch": 62, "duration": 10, "velocity": 80}, {"time": 77880, "pitch": 54, "duration": 10, "velocity": 39}, {"time": 78000, "pitch": 46, "duration": 10, "velocity": 75}, {"time": 78000, "pitch": 54, "duration": 10, "velocity": 44}, {"time": 78000, "pitch": 64, "duration": 10, "velocity": 70}, {"time": 78000, "pitch": 70, "duration": 70, "velocity": 100}, {"time": 78120, "pitch": 38, "duration": 10, "velocity": 40}, {"time": 78120, "pitch": 54, "duration": 10, "velocity": 37}, {"time": 78120, "pitch": 63, "duration": 10, "velocity": 60}, {"time": 78240, "pitch": 35, "duration": 10, "velocity": 89}, {"time": 78240, "pitch": 42, "duration": 10, "velocity": 84}, {"time": 78240, "pitch": 54, "duration": 10, "velocity": 86}, {"time": 78360, "pitch": 38, "duration": 10, "velocity": 40}, {"time": 78360, "pitch": 42, "duration": 10, "velocity": 78}, {"time": 78360, "pitch": 54, "duration": 10, "velocity": 39}, {"time": 78360, "pitch": 62, "duration": 10, "velocity": 60}, {"time": 78480, "pitch": 46, "duration": 10, "velocity": 75}, {"time": 78480, "pitch": 54, "duration": 10, "velocity": 44}, {"time": 78480, "pitch": 60, "duration": 10, "velocity": 60}, {"time": 78480, "pitch": 70, "duration": 70, "velocity": 100}, {"time": 78600, "pitch": 54, "duration": 10, "velocity": 37}, {"time": 78720, "pitch": 35, "duration": 10, "velocity": 82}, {"time": 78720, "pitch": 39, "duration": 10, "velocity": 85}, {"time": 78720, "pitch": 40, "duration": 10, "velocity": 89}, {"time": 78720, "pitch": 42, "duration": 10, "velocity": 84}, {"time": 78720, "pitch": 54, "duration": 10, "velocity": 49}, {"time": 78720, "pitch": 64, "duration": 10, "velocity": 60}, {"time": 78840, "pitch": 54, "duration": 10, "velocity": 39}, {"time": 78960, "pitch": 46, "duration": 10, "velocity": 75}, {"time": 78960, "pitch": 54, "duration": 10, "velocity": 44}, {"time": 78960, "pitch": 61, "duration": 10, "velocity": 55}, {"time": 78960, "pitch": 70, "duration": 70, "velocity": 100}, {"time": 79080, "pitch": 38, "duration": 10, "velocity": 40}, {"time": 79080, "pitch": 54, "duration": 10, "velocity": 37}, {"time": 79080, "pitch": 61, "duration": 10, "velocity": 50}, {"time": 79080, "pitch": 70, "duration": 70, "velocity": 50}, {"time": 79200, "pitch": 35, "duration": 10, "velocity": 90}, {"time": 79200, "pitch": 42, "duration": 10, "velocity": 84}, {"time": 79200, "pitch": 54, "duration": 10, "velocity": 86}, {"time": 79200, "pitch": 63, "duration": 10, "velocity": 55}, {"time": 79320, "pitch": 54, "duration": 10, "velocity": 39}, {"time": 79440, "pitch": 38, "duration": 10, "velocity": 40}, {"time": 79440, "pitch": 46, "duration": 10, "velocity": 75}, {"time": 79440, "pitch": 54, "duration": 10, "velocity": 44}, {"time": 79440, "pitch": 61, "duration": 10, "velocity": 50}, {"time": 79440, "pitch": 70, "duration": 70, "velocity": 100}, {"time": 79560, "pitch": 38, "duration": 10, "velocity": 40}, {"time": 79560, "pitch": 54, "duration": 10, "velocity": 37}, {"time": 79560, "pitch": 63, "duration": 10, "velocity": 61}, {"time": 79560, "pitch": 70, "duration": 70, "velocity": 50}, {"time": 79680, "pitch": 35, "duration": 10, "velocity": 87}, {"time": 79680, "pitch": 39, "duration": 10, "velocity": 85}, {"time": 79680, "pitch": 40, "duration": 10, "velocity": 85}, {"time": 79680, "pitch": 42, "duration": 10, "velocity": 84}, {"time": 79680, "pitch": 54, "duration": 10, "velocity": 49}, {"time": 79680, "pitch": 62, "duration": 10, "velocity": 80}, {"time": 79800, "pitch": 54, "duration": 10, "velocity": 39}, {"time": 79920, "pitch": 46, "duration": 10, "velocity": 75}, {"time": 79920, "pitch": 54, "duration": 10, "velocity": 44}, {"time": 79920, "pitch": 64, "duration": 10, "velocity": 70}, {"time": 79920, "pitch": 70, "duration": 70, "velocity": 100}, {"time": 80040, "pitch": 38, "duration": 10, "velocity": 40}, {"time": 80040, "pitch": 54, "duration": 10, "velocity": 37}, {"time": 80040, "pitch": 63, "duration": 10, "velocity": 60}, {"time": 80160, "pitch": 35, "duration": 10, "velocity": 89}, {"time": 80160, "pitch": 42, "duration": 10, "velocity": 84}, {"time": 80160, "pitch": 54, "duration": 10, "velocity": 86}, {"time": 80280, "pitch": 38, "duration": 10, "velocity": 40}, {"time": 80280, "pitch": 42, "duration": 10, "velocity": 78}, {"time": 80280, "pitch": 54, "duration": 10, "velocity": 39}, {"time": 80280, "pitch": 63, "duration": 10, "velocity": 60}, {"time": 80400, "pitch": 46, "duration": 10, "velocity": 75}, {"time": 80400, "pitch": 54, "duration": 10, "velocity": 44}, {"time": 80400, "pitch": 60, "duration": 10, "velocity": 50}, {"time": 80400, "pitch": 70, "duration": 70, "velocity": 100}, {"time": 80520, "pitch": 54, "duration": 10, "velocity": 37}, {"time": 80640, "pitch": 35, "duration": 10, "velocity": 82}, {"time": 80640, "pitch": 39, "duration": 10, "velocity": 85}, {"time": 80640, "pitch": 40, "duration": 10, "velocity": 89}, {"time": 80640, "pitch": 42, "duration": 10, "velocity": 84}, {"time": 80640, "pitch": 54, "duration": 10, "velocity": 49}, {"time": 80640, "pitch": 61, "duration": 10, "velocity": 80}, {"time": 80760, "pitch": 54, "duration": 10, "velocity": 39}, {"time": 80880, "pitch": 46, "duration": 10, "velocity": 75}, {"time": 80880, "pitch": 54, "duration": 10, "velocity": 44}, {"time": 80880, "pitch": 64, "duration": 10, "velocity": 55}, {"time": 80880, "pitch": 70, "duration": 70, "velocity": 100}, {"time": 81000, "pitch": 38, "duration": 10, "velocity": 40}, {"time": 81000, "pitch": 54, "duration": 10, "velocity": 37}, {"time": 81000, "pitch": 64, "duration": 10, "velocity": 50}, {"time": 81000, "pitch": 70, "duration": 70, "velocity": 50}, {"time": 81120, "pitch": 35, "duration": 10, "velocity": 90}, {"time": 81120, "pitch": 42, "duration": 10, "velocity": 84}, {"time": 81120, "pitch": 54, "duration": 10, "velocity": 86}, {"time": 81120, "pitch": 61, "duration": 10, "velocity": 55}, {"time": 81240, "pitch": 54, "duration": 10, "velocity": 39}, {"time": 81360, "pitch": 38, "duration": 10, "velocity": 40}, {"time": 81360, "pitch": 46, "duration": 10, "velocity": 75}, {"time": 81360, "pitch": 50, "duration": 10, "velocity": 95}, {"time": 81360, "pitch": 54, "duration": 10, "velocity": 44}, {"time": 81360, "pitch": 63, "duration": 10, "velocity": 50}, {"time": 81480, "pitch": 38, "duration": 10, "velocity": 40}, {"time": 81480, "pitch": 54, "duration": 10, "velocity": 37}, {"time": 81480, "pitch": 63, "duration": 10, "velocity": 53}, {"time": 81600, "pitch": 35, "duration": 10, "velocity": 87}, {"time": 81600, "pitch": 39, "duration": 10, "velocity": 85}, {"time": 81600, "pitch": 40, "duration": 10, "velocity": 85}, {"time": 81600, "pitch": 42, "duration": 10, "velocity": 84}, {"time": 81600, "pitch": 54, "duration": 10, "velocity": 49}, {"time": 81600, "pitch": 62, "duration": 10, "velocity": 80}, {"time": 81720, "pitch": 54, "duration": 10, "velocity": 39}, {"time": 81840, "pitch": 46, "duration": 10, "velocity": 75}, {"time": 81840, "pitch": 48, "duration": 10, "velocity": 82}, {"time": 81840, "pitch": 54, "duration": 10, "velocity": 44}, {"time": 81840, "pitch": 64, "duration": 10, "velocity": 70}, {"time": 81960, "pitch": 38, "duration": 10, "velocity": 40}, {"time": 81960, "pitch": 54, "duration": 10, "velocity": 37}, {"time": 81960, "pitch": 63, "duration": 10, "velocity": 60}, {"time": 82080, "pitch": 35, "duration": 10, "velocity": 89}, {"time": 82080, "pitch": 42, "duration": 10, "velocity": 84}, {"time": 82080, "pitch": 54, "duration": 10, "velocity": 86}, {"time": 82200, "pitch": 38, "duration": 10, "velocity": 40}, {"time": 82200, "pitch": 42, "duration": 10, "velocity": 78}, {"time": 82200, "pitch": 45, "duration": 10, "velocity": 56}, {"time": 82200, "pitch": 54, "duration": 10, "velocity": 39}, {"time": 82200, "pitch": 62, "duration": 10, "velocity": 60}, {"time": 82320, "pitch": 45, "duration": 10, "velocity": 79}, {"time": 82320, "pitch": 46, "duration": 10, "velocity": 75}, {"time": 82320, "pitch": 54, "duration": 10, "velocity": 44}, {"time": 82320, "pitch": 60, "duration": 10, "velocity": 60}, {"time": 82440, "pitch": 54, "duration": 10, "velocity": 37}, {"time": 82560, "pitch": 35, "duration": 10, "velocity": 82}, {"time": 82560, "pitch": 39, "duration": 10, "velocity": 85}, {"time": 82560, "pitch": 40, "duration": 10, "velocity": 89}, {"time": 82560, "pitch": 42, "duration": 10, "velocity": 84}, {"time": 82560, "pitch": 54, "duration": 10, "velocity": 49}, {"time": 82560, "pitch": 64, "duration": 10, "velocity": 60}, {"time": 82680, "pitch": 54, "duration": 10, "velocity": 39}, {"time": 82800, "pitch": 41, "duration": 10, "velocity": 81}, {"time": 82800, "pitch": 46, "duration": 10, "velocity": 75}, {"time": 82800, "pitch": 54, "duration": 10, "velocity": 44}, {"time": 82800, "pitch": 61, "duration": 10, "velocity": 55}, {"time": 82920, "pitch": 38, "duration": 10, "velocity": 40}, {"time": 82920, "pitch": 54, "duration": 10, "velocity": 37}, {"time": 82920, "pitch": 61, "duration": 10, "velocity": 50}, {"time": 83040, "pitch": 35, "duration": 10, "velocity": 90}, {"time": 83040, "pitch": 42, "duration": 10, "velocity": 84}, {"time": 83040, "pitch": 54, "duration": 10, "velocity": 86}, {"time": 83040, "pitch": 63, "duration": 10, "velocity": 55}, {"time": 83160, "pitch": 54, "duration": 10, "velocity": 39}, {"time": 83280, "pitch": 38, "duration": 10, "velocity": 40}, {"time": 83280, "pitch": 46, "duration": 10, "velocity": 75}, {"time": 83280, "pitch": 50, "duration": 10, "velocity": 95}, {"time": 83280, "pitch": 54, "duration": 10, "velocity": 44}, {"time": 83280, "pitch": 61, "duration": 10, "velocity": 50}, {"time": 83400, "pitch": 38, "duration": 10, "velocity": 40}, {"time": 83400, "pitch": 54, "duration": 10, "velocity": 37}, {"time": 83400, "pitch": 63, "duration": 10, "velocity": 61}, {"time": 83520, "pitch": 35, "duration": 10, "velocity": 87}, {"time": 83520, "pitch": 39, "duration": 10, "velocity": 85}, {"time": 83520, "pitch": 40, "duration": 10, "velocity": 85}, {"time": 83520, "pitch": 42, "duration": 10, "velocity": 84}, {"time": 83520, "pitch": 54, "duration": 10, "velocity": 49}, {"time": 83520, "pitch": 62, "duration": 10, "velocity": 80}, {"time": 83640, "pitch": 54, "duration": 10, "velocity": 39}, {"time": 83760, "pitch": 46, "duration": 10, "velocity": 75}, {"time": 83760, "pitch": 48, "duration": 10, "velocity": 82}, {"time": 83760, "pitch": 54, "duration": 10, "velocity": 44}, {"time": 83760, "pitch": 64, "duration": 10, "velocity": 70}, {"time": 83880, "pitch": 38, "duration": 10, "velocity": 40}, {"time": 83880, "pitch": 54, "duration": 10, "velocity": 37}, {"time": 83880, "pitch": 63, "duration": 10, "velocity": 60}, {"time": 84000, "pitch": 35, "duration": 10, "velocity": 89}, {"time": 84000, "pitch": 42, "duration": 10, "velocity": 84}, {"time": 84000, "pitch": 54, "duration": 10, "velocity": 86}, {"time": 84120, "pitch": 38, "duration": 10, "velocity": 40}, {"time": 84120, "pitch": 42, "duration": 10, "velocity": 78}, {"time": 84120, "pitch": 45, "duration": 10, "velocity": 65}, {"time": 84120, "pitch": 54, "duration": 10, "velocity": 39}, {"time": 84120, "pitch": 63, "duration": 10, "velocity": 60}, {"time": 84240, "pitch": 45, "duration": 10, "velocity": 79}, {"time": 84240, "pitch": 46, "duration": 10, "velocity": 75}, {"time": 84240, "pitch": 54, "duration": 10, "velocity": 44}, {"time": 84240, "pitch": 60, "duration": 10, "velocity": 50}, {"time": 84360, "pitch": 54, "duration": 10, "velocity": 37}, {"time": 84480, "pitch": 35, "duration": 10, "velocity": 82}, {"time": 84480, "pitch": 39, "duration": 10, "velocity": 85}, {"time": 84480, "pitch": 40, "duration": 10, "velocity": 89}, {"time": 84480, "pitch": 42, "duration": 10, "velocity": 84}, {"time": 84480, "pitch": 54, "duration": 10, "velocity": 49}, {"time": 84480, "pitch": 61, "duration": 10, "velocity": 80}, {"time": 84600, "pitch": 54, "duration": 10, "velocity": 39}, {"time": 84720, "pitch": 41, "duration": 10, "velocity": 81}, {"time": 84720, "pitch": 46, "duration": 10, "velocity": 75}, {"time": 84720, "pitch": 54, "duration": 10, "velocity": 44}, {"time": 84720, "pitch": 64, "duration": 10, "velocity": 55}, {"time": 84840, "pitch": 38, "duration": 10, "velocity": 40}, {"time": 84840, "pitch": 54, "duration": 10, "velocity": 37}, {"time": 84840, "pitch": 64, "duration": 10, "velocity": 50}, {"time": 84960, "pitch": 35, "duration": 10, "velocity": 90}, {"time": 84960, "pitch": 42, "duration": 10, "velocity": 84}, {"time": 84960, "pitch": 49, "duration": 10, "velocity": 60}, {"time": 84960, "pitch": 54, "duration": 10, "velocity": 86}, {"time": 84960, "pitch": 61, "duration": 10, "velocity": 55}, {"time": 85080, "pitch": 54, "duration": 10, "velocity": 39}, {"time": 85200, "pitch": 38, "duration": 10, "velocity": 40}, {"time": 85200, "pitch": 46, "duration": 10, "velocity": 75}, {"time": 85200, "pitch": 54, "duration": 10, "velocity": 44}, {"time": 85200, "pitch": 63, "duration": 10, "velocity": 50}, {"time": 85320, "pitch": 38, "duration": 10, "velocity": 40}, {"time": 85320, "pitch": 54, "duration": 10, "velocity": 37}, {"time": 85320, "pitch": 63, "duration": 10, "velocity": 53}, {"time": 85440, "pitch": 35, "duration": 10, "velocity": 87}, {"time": 85440, "pitch": 39, "duration": 10, "velocity": 85}, {"time": 85440, "pitch": 40, "duration": 10, "velocity": 85}, {"time": 85440, "pitch": 42, "duration": 10, "velocity": 84}, {"time": 85440, "pitch": 54, "duration": 10, "velocity": 49}, {"time": 85440, "pitch": 62, "duration": 10, "velocity": 80}, {"time": 85560, "pitch": 54, "duration": 10, "velocity": 39}, {"time": 85680, "pitch": 46, "duration": 10, "velocity": 75}, {"time": 85680, "pitch": 54, "duration": 10, "velocity": 44}, {"time": 85680, "pitch": 64, "duration": 10, "velocity": 70}, {"time": 85800, "pitch": 38, "duration": 10, "velocity": 40}, {"time": 85800, "pitch": 54, "duration": 10, "velocity": 37}, {"time": 85800, "pitch": 63, "duration": 10, "velocity": 60}, {"time": 85920, "pitch": 35, "duration": 10, "velocity": 89}, {"time": 85920, "pitch": 42, "duration": 10, "velocity": 84}, {"time": 85920, "pitch": 54, "duration": 10, "velocity": 86}, {"time": 86040, "pitch": 38, "duration": 10, "velocity": 40}, {"time": 86040, "pitch": 42, "duration": 10, "velocity": 78}, {"time": 86040, "pitch": 54, "duration": 10, "velocity": 39}, {"time": 86040, "pitch": 62, "duration": 10, "velocity": 60}, {"time": 86160, "pitch": 46, "duration": 10, "velocity": 75}, {"time": 86160, "pitch": 54, "duration": 10, "velocity": 44}, {"time": 86160, "pitch": 60, "duration": 10, "velocity": 60}, {"time": 86280, "pitch": 54, "duration": 10, "velocity": 37}, {"time": 86400, "pitch": 35, "duration": 10, "velocity": 82}, {"time": 86400, "pitch": 39, "duration": 10, "velocity": 85}, {"time": 86400, "pitch": 40, "duration": 10, "velocity": 89}, {"time": 86400, "pitch": 42, "duration": 10, "velocity": 84}, {"time": 86400, "pitch": 54, "duration": 10, "velocity": 49}, {"time": 86400, "pitch": 64, "duration": 10, "velocity": 60}, {"time": 86520, "pitch": 54, "duration": 10, "velocity": 39}, {"time": 86640, "pitch": 46, "duration": 10, "velocity": 75}, {"time": 86640, "pitch": 54, "duration": 10, "velocity": 44}, {"time": 86640, "pitch": 61, "duration": 10, "velocity": 55}, {"time": 86760, "pitch": 38, "duration": 10, "velocity": 40}, {"time": 86760, "pitch": 54, "duration": 10, "velocity": 37}, {"time": 86760, "pitch": 61, "duration": 10, "velocity": 50}, {"time": 86880, "pitch": 35, "duration": 10, "velocity": 90}, {"time": 86880, "pitch": 42, "duration": 10, "velocity": 84}, {"time": 86880, "pitch": 54, "duration": 10, "velocity": 86}, {"time": 86880, "pitch": 63, "duration": 10, "velocity": 55}, {"time": 87000, "pitch": 54, "duration": 10, "velocity": 39}, {"time": 87120, "pitch": 38, "duration": 10, "velocity": 40}, {"time": 87120, "pitch": 46, "duration": 10, "velocity": 75}, {"time": 87120, "pitch": 54, "duration": 10, "velocity": 44}, {"time": 87120, "pitch": 61, "duration": 10, "velocity": 50}, {"time": 87240, "pitch": 38, "duration": 10, "velocity": 40}, {"time": 87240, "pitch": 54, "duration": 10, "velocity": 37}, {"time": 87240, "pitch": 63, "duration": 10, "velocity": 61}, {"time": 87360, "pitch": 35, "duration": 10, "velocity": 87}, {"time": 87360, "pitch": 39, "duration": 10, "velocity": 85}, {"time": 87360, "pitch": 42, "duration": 10, "velocity": 84}, {"time": 87360, "pitch": 54, "duration": 10, "velocity": 49}, {"time": 87360, "pitch": 62, "duration": 10, "velocity": 80}, {"time": 87480, "pitch": 54, "duration": 10, "velocity": 39}, {"time": 87600, "pitch": 46, "duration": 10, "velocity": 75}, {"time": 87600, "pitch": 54, "duration": 10, "velocity": 44}, {"time": 87600, "pitch": 64, "duration": 10, "velocity": 70}, {"time": 87720, "pitch": 38, "duration": 10, "velocity": 40}, {"time": 87720, "pitch": 54, "duration": 10, "velocity": 37}, {"time": 87720, "pitch": 63, "duration": 10, "velocity": 60}, {"time": 87840, "pitch": 35, "duration": 10, "velocity": 89}, {"time": 87840, "pitch": 42, "duration": 10, "velocity": 84}, {"time": 87840, "pitch": 54, "duration": 10, "velocity": 86}, {"time": 87960, "pitch": 38, "duration": 10, "velocity": 40}, {"time": 87960, "pitch": 42, "duration": 10, "velocity": 78}, {"time": 87960, "pitch": 54, "duration": 10, "velocity": 39}, {"time": 87960, "pitch": 63, "duration": 10, "velocity": 60}, {"time": 88080, "pitch": 46, "duration": 10, "velocity": 75}, {"time": 88080, "pitch": 54, "duration": 10, "velocity": 44}, {"time": 88080, "pitch": 60, "duration": 10, "velocity": 50}, {"time": 88200, "pitch": 54, "duration": 10, "velocity": 37}, {"time": 88320, "pitch": 35, "duration": 10, "velocity": 82}, {"time": 88320, "pitch": 39, "duration": 10, "velocity": 85}, {"time": 88320, "pitch": 42, "duration": 10, "velocity": 84}, {"time": 88320, "pitch": 54, "duration": 10, "velocity": 49}, {"time": 88320, "pitch": 61, "duration": 10, "velocity": 80}, {"time": 88440, "pitch": 54, "duration": 10, "velocity": 39}, {"time": 88560, "pitch": 46, "duration": 10, "velocity": 75}, {"time": 88560, "pitch": 54, "duration": 10, "velocity": 44}, {"time": 88560, "pitch": 64, "duration": 10, "velocity": 55}, {"time": 88680, "pitch": 38, "duration": 10, "velocity": 40}, {"time": 88680, "pitch": 54, "duration": 10, "velocity": 37}, {"time": 88680, "pitch": 64, "duration": 10, "velocity": 50}, {"time": 88800, "pitch": 35, "duration": 10, "velocity": 90}, {"time": 88800, "pitch": 42, "duration": 10, "velocity": 84}, {"time": 88800, "pitch": 49, "duration": 10, "velocity": 60}, {"time": 88800, "pitch": 54, "duration": 10, "velocity": 86}, {"time": 88800, "pitch": 61, "duration": 10, "velocity": 55}, {"time": 88920, "pitch": 54, "duration": 10, "velocity": 39}, {"time": 89040, "pitch": 38, "duration": 10, "velocity": 40}, {"time": 89040, "pitch": 46, "duration": 10, "velocity": 75}, {"time": 89040, "pitch": 54, "duration": 10, "velocity": 44}, {"time": 89040, "pitch": 63, "duration": 10, "velocity": 50}, {"time": 89160, "pitch": 38, "duration": 10, "velocity": 40}, {"time": 89160, "pitch": 54, "duration": 10, "velocity": 37}, {"time": 89160, "pitch": 63, "duration": 10, "velocity": 53}, {"time": 89280, "pitch": 35, "duration": 10, "velocity": 87}, {"time": 89280, "pitch": 39, "duration": 10, "velocity": 85}, {"time": 89280, "pitch": 40, "duration": 10, "velocity": 85}, {"time": 89280, "pitch": 42, "duration": 10, "velocity": 84}, {"time": 89280, "pitch": 54, "duration": 10, "velocity": 49}, {"time": 89280, "pitch": 62, "duration": 10, "velocity": 80}, {"time": 89400, "pitch": 54, "duration": 10, "velocity": 39}, {"time": 89520, "pitch": 46, "duration": 10, "velocity": 75}, {"time": 89520, "pitch": 54, "duration": 10, "velocity": 44}, {"time": 89520, "pitch": 64, "duration": 10, "velocity": 70}, {"time": 89640, "pitch": 38, "duration": 10, "velocity": 40}, {"time": 89640, "pitch": 54, "duration": 10, "velocity": 37}, {"time": 89640, "pitch": 63, "duration": 10, "velocity": 60}, {"time": 89760, "pitch": 35, "duration": 10, "velocity": 89}, {"time": 89760, "pitch": 42, "duration": 10, "velocity": 84}, {"time": 89760, "pitch": 54, "duration": 10, "velocity": 86}, {"time": 89880, "pitch": 38, "duration": 10, "velocity": 40}, {"time": 89880, "pitch": 42, "duration": 10, "velocity": 78}, {"time": 89880, "pitch": 54, "duration": 10, "velocity": 39}, {"time": 89880, "pitch": 62, "duration": 10, "velocity": 60}, {"time": 90000, "pitch": 46, "duration": 10, "velocity": 75}, {"time": 90000, "pitch": 54, "duration": 10, "velocity": 44}, {"time": 90000, "pitch": 60, "duration": 10, "velocity": 60}, {"time": 90120, "pitch": 54, "duration": 10, "velocity": 37}, {"time": 90240, "pitch": 35, "duration": 10, "velocity": 82}, {"time": 90240, "pitch": 39, "duration": 10, "velocity": 85}, {"time": 90240, "pitch": 40, "duration": 10, "velocity": 89}, {"time": 90240, "pitch": 42, "duration": 10, "velocity": 84}, {"time": 90240, "pitch": 54, "duration": 10, "velocity": 49}, {"time": 90240, "pitch": 64, "duration": 10, "velocity": 60}, {"time": 90360, "pitch": 54, "duration": 10, "velocity": 39}, {"time": 90480, "pitch": 46, "duration": 10, "velocity": 75}, {"time": 90480, "pitch": 54, "duration": 10, "velocity": 44}, {"time": 90480, "pitch": 61, "duration": 10, "velocity": 55}, {"time": 90600, "pitch": 38, "duration": 10, "velocity": 40}, {"time": 90600, "pitch": 54, "duration": 10, "velocity": 37}, {"time": 90600, "pitch": 61, "duration": 10, "velocity": 50}, {"time": 90720, "pitch": 35, "duration": 10, "velocity": 90}, {"time": 90720, "pitch": 42, "duration": 10, "velocity": 84}, {"time": 90720, "pitch": 54, "duration": 10, "velocity": 86}, {"time": 90720, "pitch": 63, "duration": 10, "velocity": 55}, {"time": 90840, "pitch": 54, "duration": 10, "velocity": 39}, {"time": 90960, "pitch": 38, "duration": 10, "velocity": 40}, {"time": 90960, "pitch": 46, "duration": 10, "velocity": 75}, {"time": 90960, "pitch": 54, "duration": 10, "velocity": 44}, {"time": 90960, "pitch": 61, "duration": 10, "velocity": 50}, {"time": 91080, "pitch": 38, "duration": 10, "velocity": 40}, {"time": 91080, "pitch": 54, "duration": 10, "velocity": 37}, {"time": 91080, "pitch": 63, "duration": 10, "velocity": 61}, {"time": 91200, "pitch": 35, "duration": 10, "velocity": 87}, {"time": 91200, "pitch": 39, "duration": 10, "velocity": 85}, {"time": 91200, "pitch": 40, "duration": 10, "velocity": 85}, {"time": 91200, "pitch": 42, "duration": 10, "velocity": 84}, {"time": 91200, "pitch": 54, "duration": 10, "velocity": 49}, {"time": 91200, "pitch": 62, "duration": 10, "velocity": 80}, {"time": 91320, "pitch": 54, "duration": 10, "velocity": 39}, {"time": 91440, "pitch": 46, "duration": 10, "velocity": 75}, {"time": 91440, "pitch": 54, "duration": 10, "velocity": 44}, {"time": 91440, "pitch": 64, "duration": 10, "velocity": 70}, {"time": 91560, "pitch": 38, "duration": 10, "velocity": 40}, {"time": 91560, "pitch": 54, "duration": 10, "velocity": 37}, {"time": 91560, "pitch": 63, "duration": 10, "velocity": 60}, {"time": 91680, "pitch": 35, "duration": 10, "velocity": 89}, {"time": 91680, "pitch": 42, "duration": 10, "velocity": 84}, {"time": 91680, "pitch": 54, "duration": 10, "velocity": 86}, {"time": 91800, "pitch": 38, "duration": 10, "velocity": 40}, {"time": 91800, "pitch": 42, "duration": 10, "velocity": 78}, {"time": 91800, "pitch": 54, "duration": 10, "velocity": 39}, {"time": 91800, "pitch": 63, "duration": 10, "velocity": 60}, {"time": 91920, "pitch": 46, "duration": 10, "velocity": 75}, {"time": 91920, "pitch": 54, "duration": 10, "velocity": 44}, {"time": 91920, "pitch": 60, "duration": 10, "velocity": 50}, {"time": 92040, "pitch": 54, "duration": 10, "velocity": 37}, {"time": 92160, "pitch": 35, "duration": 10, "velocity": 82}, {"time": 92160, "pitch": 39, "duration": 10, "velocity": 85}, {"time": 92160, "pitch": 40, "duration": 10, "velocity": 89}, {"time": 92160, "pitch": 42, "duration": 10, "velocity": 84}, {"time": 92160, "pitch": 54, "duration": 10, "velocity": 49}, {"time": 92160, "pitch": 61, "duration": 10, "velocity": 80}, {"time": 92280, "pitch": 54, "duration": 10, "velocity": 39}, {"time": 92400, "pitch": 46, "duration": 10, "velocity": 75}, {"time": 92400, "pitch": 54, "duration": 10, "velocity": 44}, {"time": 92400, "pitch": 64, "duration": 10, "velocity": 55}, {"time": 92520, "pitch": 38, "duration": 10, "velocity": 40}, {"time": 92520, "pitch": 54, "duration": 10, "velocity": 37}, {"time": 92520, "pitch": 64, "duration": 10, "velocity": 50}, {"time": 92640, "pitch": 35, "duration": 10, "velocity": 90}, {"time": 92640, "pitch": 42, "duration": 10, "velocity": 84}, {"time": 92640, "pitch": 54, "duration": 10, "velocity": 86}, {"time": 92640, "pitch": 61, "duration": 10, "velocity": 55}, {"time": 92760, "pitch": 54, "duration": 10, "velocity": 39}, {"time": 92880, "pitch": 38, "duration": 10, "velocity": 40}, {"time": 92880, "pitch": 46, "duration": 10, "velocity": 75}, {"time": 92880, "pitch": 54, "duration": 10, "velocity": 44}, {"time": 92880, "pitch": 63, "duration": 10, "velocity": 50}, {"time": 93000, "pitch": 38, "duration": 10, "velocity": 40}, {"time": 93000, "pitch": 54, "duration": 10, "velocity": 37}, {"time": 93000, "pitch": 63, "duration": 10, "velocity": 53}, {"time": 93120, "pitch": 35, "duration": 10, "velocity": 87}, {"time": 93120, "pitch": 39, "duration": 10, "velocity": 85}, {"time": 93120, "pitch": 40, "duration": 10, "velocity": 85}, {"time": 93120, "pitch": 42, "duration": 10, "velocity": 84}, {"time": 93120, "pitch": 54, "duration": 10, "velocity": 49}, {"time": 93120, "pitch": 62, "duration": 10, "velocity": 80}, {"time": 93240, "pitch": 54, "duration": 10, "velocity": 39}, {"time": 93360, "pitch": 46, "duration": 10, "velocity": 75}, {"time": 93360, "pitch": 54, "duration": 10, "velocity": 44}, {"time": 93360, "pitch": 64, "duration": 10, "velocity": 70}, {"time": 93480, "pitch": 38, "duration": 10, "velocity": 40}, {"time": 93480, "pitch": 54, "duration": 10, "velocity": 37}, {"time": 93480, "pitch": 63, "duration": 10, "velocity": 60}, {"time": 93600, "pitch": 35, "duration": 10, "velocity": 89}, {"time": 93600, "pitch": 42, "duration": 10, "velocity": 84}, {"time": 93600, "pitch": 54, "duration": 10, "velocity": 86}, {"time": 93720, "pitch": 38, "duration": 10, "velocity": 40}, {"time": 93720, "pitch": 42, "duration": 10, "velocity": 78}, {"time": 93720, "pitch": 54, "duration": 10, "velocity": 39}, {"time": 93720, "pitch": 62, "duration": 10, "velocity": 60}, {"time": 93840, "pitch": 46, "duration": 10, "velocity": 75}, {"time": 93840, "pitch": 54, "duration": 10, "velocity": 44}, {"time": 93840, "pitch": 60, "duration": 10, "velocity": 60}, {"time": 93960, "pitch": 54, "duration": 10, "velocity": 37}, {"time": 94080, "pitch": 35, "duration": 10, "velocity": 82}, {"time": 94080, "pitch": 39, "duration": 10, "velocity": 85}, {"time": 94080, "pitch": 40, "duration": 10, "velocity": 89}, {"time": 94080, "pitch": 42, "duration": 10, "velocity": 84}, {"time": 94080, "pitch": 54, "duration": 10, "velocity": 49}, {"time": 94080, "pitch": 64, "duration": 10, "velocity": 60}, {"time": 94200, "pitch": 54, "duration": 10, "velocity": 39}, {"time": 94320, "pitch": 46, "duration": 10, "velocity": 75}, {"time": 94320, "pitch": 54, "duration": 10, "velocity": 44}, {"time": 94320, "pitch": 61, "duration": 10, "velocity": 55}, {"time": 94440, "pitch": 38, "duration": 10, "velocity": 40}, {"time": 94440, "pitch": 54, "duration": 10, "velocity": 37}, {"time": 94440, "pitch": 61, "duration": 10, "velocity": 50}, {"time": 94560, "pitch": 35, "duration": 10, "velocity": 90}, {"time": 94560, "pitch": 42, "duration": 10, "velocity": 84}, {"time": 94560, "pitch": 54, "duration": 10, "velocity": 86}, {"time": 94560, "pitch": 63, "duration": 10, "velocity": 55}, {"time": 94680, "pitch": 54, "duration": 10, "velocity": 39}, {"time": 94800, "pitch": 38, "duration": 10, "velocity": 40}, {"time": 94800, "pitch": 46, "duration": 10, "velocity": 75}, {"time": 94800, "pitch": 54, "duration": 10, "velocity": 44}, {"time": 94800, "pitch": 61, "duration": 10, "velocity": 50}, {"time": 94920, "pitch": 38, "duration": 10, "velocity": 40}, {"time": 94920, "pitch": 54, "duration": 10, "velocity": 37}, {"time": 94920, "pitch": 63, "duration": 10, "velocity": 61}, {"time": 95040, "pitch": 35, "duration": 10, "velocity": 87}, {"time": 95040, "pitch": 39, "duration": 10, "velocity": 85}, {"time": 95040, "pitch": 40, "duration": 10, "velocity": 85}, {"time": 95040, "pitch": 42, "duration": 10, "velocity": 84}, {"time": 95040, "pitch": 54, "duration": 10, "velocity": 49}, {"time": 95040, "pitch": 62, "duration": 10, "velocity": 80}, {"time": 95160, "pitch": 54, "duration": 10, "velocity": 39}, {"time": 95280, "pitch": 46, "duration": 10, "velocity": 75}, {"time": 95280, "pitch": 54, "duration": 10, "velocity": 44}, {"time": 95280, "pitch": 64, "duration": 10, "velocity": 70}, {"time": 95400, "pitch": 38, "duration": 10, "velocity": 40}, {"time": 95400, "pitch": 54, "duration": 10, "velocity": 37}, {"time": 95400, "pitch": 63, "duration": 10, "velocity": 60}, {"time": 95520, "pitch": 35, "duration": 10, "velocity": 89}, {"time": 95520, "pitch": 42, "duration": 10, "velocity": 84}, {"time": 95520, "pitch": 54, "duration": 10, "velocity": 86}, {"time": 95640, "pitch": 38, "duration": 10, "velocity": 40}, {"time": 95640, "pitch": 42, "duration": 10, "velocity": 78}, {"time": 95640, "pitch": 54, "duration": 10, "velocity": 39}, {"time": 95640, "pitch": 63, "duration": 10, "velocity": 60}, {"time": 95760, "pitch": 46, "duration": 10, "velocity": 75}, {"time": 95760, "pitch": 54, "duration": 10, "velocity": 44}, {"time": 95760, "pitch": 60, "duration": 10, "velocity": 50}, {"time": 95880, "pitch": 54, "duration": 10, "velocity": 37}, {"time": 96000, "pitch": 35, "duration": 10, "velocity": 82}, {"time": 96000, "pitch": 39, "duration": 10, "velocity": 85}, {"time": 96000, "pitch": 40, "duration": 10, "velocity": 89}, {"time": 96000, "pitch": 42, "duration": 10, "velocity": 84}, {"time": 96000, "pitch": 54, "duration": 10, "velocity": 49}, {"time": 96000, "pitch": 61, "duration": 10, "velocity": 80}, {"time": 96120, "pitch": 54, "duration": 10, "velocity": 39}, {"time": 96240, "pitch": 46, "duration": 10, "velocity": 75}, {"time": 96240, "pitch": 54, "duration": 10, "velocity": 44}, {"time": 96240, "pitch": 64, "duration": 10, "velocity": 55}, {"time": 96360, "pitch": 38, "duration": 10, "velocity": 40}, {"time": 96360, "pitch": 54, "duration": 10, "velocity": 37}, {"time": 96360, "pitch": 64, "duration": 10, "velocity": 50}, {"time": 96480, "pitch": 35, "duration": 10, "velocity": 90}, {"time": 96480, "pitch": 42, "duration": 10, "velocity": 84}, {"time": 96480, "pitch": 54, "duration": 10, "velocity": 86}, {"time": 96480, "pitch": 57, "duration": 10, "velocity": 60}, {"time": 96480, "pitch": 61, "duration": 10, "velocity": 55}, {"time": 96600, "pitch": 54, "duration": 10, "velocity": 39}, {"time": 96720, "pitch": 38, "duration": 10, "velocity": 40}, {"time": 96720, "pitch": 46, "duration": 10, "velocity": 75}, {"time": 96720, "pitch": 54, "duration": 10, "velocity": 44}, {"time": 96720, "pitch": 63, "duration": 10, "velocity": 50}, {"time": 96840, "pitch": 38, "duration": 10, "velocity": 40}, {"time": 96840, "pitch": 54, "duration": 10, "velocity": 37}, {"time": 96840, "pitch": 63, "duration": 10, "velocity": 53}, {"time": 96960, "pitch": 35, "duration": 10, "velocity": 87}, {"time": 96960, "pitch": 39, "duration": 10, "velocity": 85}, {"time": 96960, "pitch": 40, "duration": 10, "velocity": 85}, {"time": 96960, "pitch": 42, "duration": 10, "velocity": 84}, {"time": 96960, "pitch": 54, "duration": 10, "velocity": 49}, {"time": 96960, "pitch": 62, "duration": 10, "velocity": 80}, {"time": 97080, "pitch": 54, "duration": 10, "velocity": 39}, {"time": 97200, "pitch": 46, "duration": 10, "velocity": 75}, {"time": 97200, "pitch": 54, "duration": 10, "velocity": 44}, {"time": 97200, "pitch": 64, "duration": 10, "velocity": 70}, {"time": 97320, "pitch": 38, "duration": 10, "velocity": 40}, {"time": 97320, "pitch": 54, "duration": 10, "velocity": 37}, {"time": 97320, "pitch": 63, "duration": 10, "velocity": 60}, {"time": 97440, "pitch": 35, "duration": 10, "velocity": 89}, {"time": 97440, "pitch": 42, "duration": 10, "velocity": 84}, {"time": 97440, "pitch": 54, "duration": 10, "velocity": 86}, {"time": 97560, "pitch": 38, "duration": 10, "velocity": 40}, {"time": 97560, "pitch": 42, "duration": 10, "velocity": 78}, {"time": 97560, "pitch": 54, "duration": 10, "velocity": 39}, {"time": 97560, "pitch": 62, "duration": 10, "velocity": 60}, {"time": 97680, "pitch": 46, "duration": 10, "velocity": 75}, {"time": 97680, "pitch": 54, "duration": 10, "velocity": 44}, {"time": 97680, "pitch": 60, "duration": 10, "velocity": 60}, {"time": 97800, "pitch": 54, "duration": 10, "velocity": 37}, {"time": 97920, "pitch": 35, "duration": 10, "velocity": 82}, {"time": 97920, "pitch": 39, "duration": 10, "velocity": 85}, {"time": 97920, "pitch": 40, "duration": 10, "velocity": 89}, {"time": 97920, "pitch": 42, "duration": 10, "velocity": 84}, {"time": 97920, "pitch": 54, "duration": 10, "velocity": 49}, {"time": 97920, "pitch": 64, "duration": 10, "velocity": 60}, {"time": 98040, "pitch": 54, "duration": 10, "velocity": 39}, {"time": 98160, "pitch": 46, "duration": 10, "velocity": 75}, {"time": 98160, "pitch": 54, "duration": 10, "velocity": 44}, {"time": 98160, "pitch": 61, "duration": 10, "velocity": 55}, {"time": 98280, "pitch": 38, "duration": 10, "velocity": 40}, {"time": 98280, "pitch": 54, "duration": 10, "velocity": 37}, {"time": 98280, "pitch": 61, "duration": 10, "velocity": 50}, {"time": 98400, "pitch": 35, "duration": 10, "velocity": 90}, {"time": 98400, "pitch": 42, "duration": 10, "velocity": 84}, {"time": 98400, "pitch": 54, "duration": 10, "velocity": 86}, {"time": 98400, "pitch": 63, "duration": 10, "velocity": 55}, {"time": 98520, "pitch": 54, "duration": 10, "velocity": 39}, {"time": 98640, "pitch": 38, "duration": 10, "velocity": 40}, {"time": 98640, "pitch": 46, "duration": 10, "velocity": 75}, {"time": 98640, "pitch": 54, "duration": 10, "velocity": 44}, {"time": 98640, "pitch": 61, "duration": 10, "velocity": 50}, {"time": 98760, "pitch": 38, "duration": 10, "velocity": 40}, {"time": 98760, "pitch": 54, "duration": 10, "velocity": 37}, {"time": 98760, "pitch": 63, "duration": 10, "velocity": 61}, {"time": 98880, "pitch": 35, "duration": 10, "velocity": 87}, {"time": 98880, "pitch": 39, "duration": 10, "velocity": 85}, {"time": 98880, "pitch": 40, "duration": 10, "velocity": 85}, {"time": 98880, "pitch": 42, "duration": 10, "velocity": 84}, {"time": 98880, "pitch": 54, "duration": 10, "velocity": 49}, {"time": 98880, "pitch": 62, "duration": 10, "velocity": 80}, {"time": 99000, "pitch": 54, "duration": 10, "velocity": 39}, {"time": 99120, "pitch": 46, "duration": 10, "velocity": 75}, {"time": 99120, "pitch": 54, "duration": 10, "velocity": 44}, {"time": 99120, "pitch": 64, "duration": 10, "velocity": 70}, {"time": 99240, "pitch": 38, "duration": 10, "velocity": 40}, {"time": 99240, "pitch": 54, "duration": 10, "velocity": 37}, {"time": 99240, "pitch": 63, "duration": 10, "velocity": 60}, {"time": 99360, "pitch": 35, "duration": 10, "velocity": 89}, {"time": 99360, "pitch": 42, "duration": 10, "velocity": 84}, {"time": 99360, "pitch": 54, "duration": 10, "velocity": 86}, {"time": 99480, "pitch": 38, "duration": 10, "velocity": 40}, {"time": 99480, "pitch": 42, "duration": 10, "velocity": 78}, {"time": 99480, "pitch": 54, "duration": 10, "velocity": 39}, {"time": 99480, "pitch": 63, "duration": 10, "velocity": 60}, {"time": 99600, "pitch": 46, "duration": 10, "velocity": 75}, {"time": 99600, "pitch": 54, "duration": 10, "velocity": 44}, {"time": 99600, "pitch": 60, "duration": 10, "velocity": 50}, {"time": 99720, "pitch": 54, "duration": 10, "velocity": 37}, {"time": 99840, "pitch": 35, "duration": 10, "velocity": 82}, {"time": 99840, "pitch": 39, "duration": 10, "velocity": 85}, {"time": 99840, "pitch": 40, "duration": 10, "velocity": 89}, {"time": 99840, "pitch": 42, "duration": 10, "velocity": 84}, {"time": 99840, "pitch": 54, "duration": 10, "velocity": 49}, {"time": 99840, "pitch": 61, "duration": 10, "velocity": 80}, {"time": 99960, "pitch": 54, "duration": 10, "velocity": 39}, {"time": 100080, "pitch": 46, "duration": 10, "velocity": 75}, {"time": 100080, "pitch": 54, "duration": 10, "velocity": 44}, {"time": 100080, "pitch": 64, "duration": 10, "velocity": 55}, {"time": 100200, "pitch": 38, "duration": 10, "velocity": 40}, {"time": 100200, "pitch": 54, "duration": 10, "velocity": 37}, {"time": 100200, "pitch": 64, "duration": 10, "velocity": 50}, {"time": 100320, "pitch": 35, "duration": 10, "velocity": 90}, {"time": 100320, "pitch": 42, "duration": 10, "velocity": 84}, {"time": 100320, "pitch": 54, "duration": 10, "velocity": 86}, {"time": 100320, "pitch": 61, "duration": 10, "velocity": 55}, {"time": 100440, "pitch": 54, "duration": 10, "velocity": 39}, {"time": 100560, "pitch": 38, "duration": 10, "velocity": 40}, {"time": 100560, "pitch": 46, "duration": 10, "velocity": 75}, {"time": 100560, "pitch": 54, "duration": 10, "velocity": 44}, {"time": 100560, "pitch": 63, "duration": 10, "velocity": 50}, {"time": 100680, "pitch": 38, "duration": 10, "velocity": 40}, {"time": 100680, "pitch": 54, "duration": 10, "velocity": 37}, {"time": 100680, "pitch": 63, "duration": 10, "velocity": 53}, {"time": 100800, "pitch": 35, "duration": 10, "velocity": 87}, {"time": 100800, "pitch": 39, "duration": 10, "velocity": 85}, {"time": 100800, "pitch": 40, "duration": 10, "velocity": 85}, {"time": 100800, "pitch": 42, "duration": 10, "velocity": 84}, {"time": 100800, "pitch": 54, "duration": 10, "velocity": 49}, {"time": 100800, "pitch": 62, "duration": 10, "velocity": 80}, {"time": 100920, "pitch": 54, "duration": 10, "velocity": 39}, {"time": 101040, "pitch": 46, "duration": 10, "velocity": 75}, {"time": 101040, "pitch": 54, "duration": 10, "velocity": 44}, {"time": 101040, "pitch": 64, "duration": 10, "velocity": 70}, {"time": 101160, "pitch": 38, "duration": 10, "velocity": 40}, {"time": 101160, "pitch": 54, "duration": 10, "velocity": 37}, {"time": 101160, "pitch": 63, "duration": 10, "velocity": 60}, {"time": 101280, "pitch": 35, "duration": 10, "velocity": 89}, {"time": 101280, "pitch": 42, "duration": 10, "velocity": 84}, {"time": 101280, "pitch": 54, "duration": 10, "velocity": 86}, {"time": 101400, "pitch": 38, "duration": 10, "velocity": 40}, {"time": 101400, "pitch": 42, "duration": 10, "velocity": 78}, {"time": 101400, "pitch": 54, "duration": 10, "velocity": 39}, {"time": 101400, "pitch": 62, "duration": 10, "velocity": 60}, {"time": 101520, "pitch": 46, "duration": 10, "velocity": 75}, {"time": 101520, "pitch": 54, "duration": 10, "velocity": 44}, {"time": 101520, "pitch": 60, "duration": 10, "velocity": 60}, {"time": 101640, "pitch": 54, "duration": 10, "velocity": 37}, {"time": 101760, "pitch": 35, "duration": 10, "velocity": 82}, {"time": 101760, "pitch": 39, "duration": 10, "velocity": 85}, {"time": 101760, "pitch": 40, "duration": 10, "velocity": 89}, {"time": 101760, "pitch": 42, "duration": 10, "velocity": 84}, {"time": 101760, "pitch": 54, "duration": 10, "velocity": 49}, {"time": 101760, "pitch": 64, "duration": 10, "velocity": 60}, {"time": 101880, "pitch": 54, "duration": 10, "velocity": 39}, {"time": 102000, "pitch": 46, "duration": 10, "velocity": 75}, {"time": 102000, "pitch": 54, "duration": 10, "velocity": 44}, {"time": 102000, "pitch": 61, "duration": 10, "velocity": 55}, {"time": 102120, "pitch": 38, "duration": 10, "velocity": 40}, {"time": 102120, "pitch": 54, "duration": 10, "velocity": 37}, {"time": 102120, "pitch": 61, "duration": 10, "velocity": 50}, {"time": 102240, "pitch": 35, "duration": 10, "velocity": 90}, {"time": 102240, "pitch": 42, "duration": 10, "velocity": 84}, {"time": 102240, "pitch": 54, "duration": 10, "velocity": 86}, {"time": 102240, "pitch": 63, "duration": 10, "velocity": 55}, {"time": 102360, "pitch": 54, "duration": 10, "velocity": 39}, {"time": 102480, "pitch": 38, "duration": 10, "velocity": 40}, {"time": 102480, "pitch": 46, "duration": 10, "velocity": 75}, {"time": 102480, "pitch": 54, "duration": 10, "velocity": 44}, {"time": 102480, "pitch": 61, "duration": 10, "velocity": 50}, {"time": 102600, "pitch": 38, "duration": 10, "velocity": 40}, {"time": 102600, "pitch": 54, "duration": 10, "velocity": 37}, {"time": 102600, "pitch": 63, "duration": 10, "velocity": 61}, {"time": 102720, "pitch": 35, "duration": 10, "velocity": 87}, {"time": 102720, "pitch": 39, "duration": 10, "velocity": 85}, {"time": 102720, "pitch": 40, "duration": 10, "velocity": 85}, {"time": 102720, "pitch": 42, "duration": 10, "velocity": 84}, {"time": 102720, "pitch": 54, "duration": 10, "velocity": 49}, {"time": 102720, "pitch": 62, "duration": 10, "velocity": 80}, {"time": 102840, "pitch": 54, "duration": 10, "velocity": 39}, {"time": 102960, "pitch": 46, "duration": 10, "velocity": 75}, {"time": 102960, "pitch": 54, "duration": 10, "velocity": 44}, {"time": 102960, "pitch": 64, "duration": 10, "velocity": 70}, {"time": 103080, "pitch": 38, "duration": 10, "velocity": 40}, {"time": 103080, "pitch": 54, "duration": 10, "velocity": 37}, {"time": 103080, "pitch": 63, "duration": 10, "velocity": 60}, {"time": 103200, "pitch": 35, "duration": 10, "velocity": 89}, {"time": 103200, "pitch": 42, "duration": 10, "velocity": 84}, {"time": 103200, "pitch": 54, "duration": 10, "velocity": 86}, {"time": 103320, "pitch": 38, "duration": 10, "velocity": 40}, {"time": 103320, "pitch": 42, "duration": 10, "velocity": 78}, {"time": 103320, "pitch": 54, "duration": 10, "velocity": 39}, {"time": 103320, "pitch": 63, "duration": 10, "velocity": 60}, {"time": 103440, "pitch": 46, "duration": 10, "velocity": 75}, {"time": 103440, "pitch": 54, "duration": 10, "velocity": 44}, {"time": 103440, "pitch": 60, "duration": 10, "velocity": 50}, {"time": 103560, "pitch": 54, "duration": 10, "velocity": 37}, {"time": 103680, "pitch": 35, "duration": 10, "velocity": 82}, {"time": 103680, "pitch": 39, "duration": 10, "velocity": 85}, {"time": 103680, "pitch": 40, "duration": 10, "velocity": 89}, {"time": 103680, "pitch": 42, "duration": 10, "velocity": 84}, {"time": 103680, "pitch": 54, "duration": 10, "velocity": 49}, {"time": 103680, "pitch": 61, "duration": 10, "velocity": 80}, {"time": 103800, "pitch": 54, "duration": 10, "velocity": 39}, {"time": 103920, "pitch": 46, "duration": 10, "velocity": 75}, {"time": 103920, "pitch": 54, "duration": 10, "velocity": 44}, {"time": 103920, "pitch": 64, "duration": 10, "velocity": 55}, {"time": 104040, "pitch": 38, "duration": 10, "velocity": 40}, {"time": 104040, "pitch": 54, "duration": 10, "velocity": 37}, {"time": 104040, "pitch": 64, "duration": 10, "velocity": 50}, {"time": 104160, "pitch": 35, "duration": 10, "velocity": 90}, {"time": 104160, "pitch": 42, "duration": 10, "velocity": 84}, {"time": 104160, "pitch": 54, "duration": 10, "velocity": 86}, {"time": 104160, "pitch": 61, "duration": 10, "velocity": 55}, {"time": 104280, "pitch": 54, "duration": 10, "velocity": 39}, {"time": 104400, "pitch": 38, "duration": 10, "velocity": 40}, {"time": 104400, "pitch": 46, "duration": 10, "velocity": 75}, {"time": 104400, "pitch": 54, "duration": 10, "velocity": 44}, {"time": 104400, "pitch": 63, "duration": 10, "velocity": 50}, {"time": 104520, "pitch": 38, "duration": 10, "velocity": 40}, {"time": 104520, "pitch": 54, "duration": 10, "velocity": 37}, {"time": 104520, "pitch": 63, "duration": 10, "velocity": 53}, {"time": 104640, "pitch": 35, "duration": 10, "velocity": 87}, {"time": 104640, "pitch": 39, "duration": 10, "velocity": 85}, {"time": 104640, "pitch": 40, "duration": 10, "velocity": 85}, {"time": 104640, "pitch": 42, "duration": 10, "velocity": 84}, {"time": 104640, "pitch": 54, "duration": 10, "velocity": 49}, {"time": 104640, "pitch": 62, "duration": 10, "velocity": 80}, {"time": 104760, "pitch": 54, "duration": 10, "velocity": 39}, {"time": 104880, "pitch": 46, "duration": 10, "velocity": 75}, {"time": 104880, "pitch": 54, "duration": 10, "velocity": 44}, {"time": 104880, "pitch": 64, "duration": 10, "velocity": 70}, {"time": 105000, "pitch": 38, "duration": 10, "velocity": 40}, {"time": 105000, "pitch": 54, "duration": 10, "velocity": 37}, {"time": 105000, "pitch": 63, "duration": 10, "velocity": 60}, {"time": 105120, "pitch": 35, "duration": 10, "velocity": 89}, {"time": 105120, "pitch": 42, "duration": 10, "velocity": 84}, {"time": 105120, "pitch": 54, "duration": 10, "velocity": 86}, {"time": 105240, "pitch": 38, "duration": 10, "velocity": 40}, {"time": 105240, "pitch": 42, "duration": 10, "velocity": 78}, {"time": 105240, "pitch": 54, "duration": 10, "velocity": 39}, {"time": 105240, "pitch": 62, "duration": 10, "velocity": 60}, {"time": 105360, "pitch": 46, "duration": 10, "velocity": 75}, {"time": 105360, "pitch": 54, "duration": 10, "velocity": 44}, {"time": 105360, "pitch": 60, "duration": 10, "velocity": 60}, {"time": 105480, "pitch": 54, "duration": 10, "velocity": 37}, {"time": 105600, "pitch": 35, "duration": 10, "velocity": 82}, {"time": 105600, "pitch": 39, "duration": 10, "velocity": 85}, {"time": 105600, "pitch": 40, "duration": 10, "velocity": 89}, {"time": 105600, "pitch": 42, "duration": 10, "velocity": 84}, {"time": 105600, "pitch": 54, "duration": 10, "velocity": 49}, {"time": 105600, "pitch": 64, "duration": 10, "velocity": 60}, {"time": 105720, "pitch": 54, "duration": 10, "velocity": 39}, {"time": 105840, "pitch": 46, "duration": 10, "velocity": 75}, {"time": 105840, "pitch": 54, "duration": 10, "velocity": 44}, {"time": 105840, "pitch": 61, "duration": 10, "velocity": 55}, {"time": 105960, "pitch": 38, "duration": 10, "velocity": 40}, {"time": 105960, "pitch": 54, "duration": 10, "velocity": 37}, {"time": 105960, "pitch": 61, "duration": 10, "velocity": 50}, {"time": 106080, "pitch": 35, "duration": 10, "velocity": 90}, {"time": 106080, "pitch": 42, "duration": 10, "velocity": 84}, {"time": 106080, "pitch": 54, "duration": 10, "velocity": 86}, {"time": 106080, "pitch": 63, "duration": 10, "velocity": 55}, {"time": 106200, "pitch": 54, "duration": 10, "velocity": 39}, {"time": 106320, "pitch": 38, "duration": 10, "velocity": 40}, {"time": 106320, "pitch": 46, "duration": 10, "velocity": 75}, {"time": 106320, "pitch": 54, "duration": 10, "velocity": 44}, {"time": 106320, "pitch": 61, "duration": 10, "velocity": 50}, {"time": 106440, "pitch": 38, "duration": 10, "velocity": 40}, {"time": 106440, "pitch": 54, "duration": 10, "velocity": 37}, {"time": 106440, "pitch": 63, "duration": 10, "velocity": 61}, {"time": 106560, "pitch": 35, "duration": 10, "velocity": 87}, {"time": 106560, "pitch": 39, "duration": 10, "velocity": 85}, {"time": 106560, "pitch": 40, "duration": 10, "velocity": 85}, {"time": 106560, "pitch": 42, "duration": 10, "velocity": 84}, {"time": 106560, "pitch": 54, "duration": 10, "velocity": 49}, {"time": 106560, "pitch": 62, "duration": 10, "velocity": 80}, {"time": 106680, "pitch": 54, "duration": 10, "velocity": 39}, {"time": 106800, "pitch": 46, "duration": 10, "velocity": 75}, {"time": 106800, "pitch": 54, "duration": 10, "velocity": 44}, {"time": 106800, "pitch": 64, "duration": 10, "velocity": 70}, {"time": 106920, "pitch": 38, "duration": 10, "velocity": 40}, {"time": 106920, "pitch": 54, "duration": 10, "velocity": 37}, {"time": 106920, "pitch": 63, "duration": 10, "velocity": 60}, {"time": 107040, "pitch": 35, "duration": 10, "velocity": 89}, {"time": 107040, "pitch": 42, "duration": 10, "velocity": 84}, {"time": 107040, "pitch": 54, "duration": 10, "velocity": 86}, {"time": 107160, "pitch": 38, "duration": 10, "velocity": 40}, {"time": 107160, "pitch": 42, "duration": 10, "velocity": 78}, {"time": 107160, "pitch": 54, "duration": 10, "velocity": 39}, {"time": 107160, "pitch": 63, "duration": 10, "velocity": 60}, {"time": 107280, "pitch": 46, "duration": 10, "velocity": 75}, {"time": 107280, "pitch": 54, "duration": 10, "velocity": 44}, {"time": 107280, "pitch": 60, "duration": 10, "velocity": 50}, {"time": 107400, "pitch": 54, "duration": 10, "velocity": 37}, {"time": 107520, "pitch": 35, "duration": 10, "velocity": 82}, {"time": 107520, "pitch": 39, "duration": 10, "velocity": 85}, {"time": 107520, "pitch": 40, "duration": 10, "velocity": 89}, {"time": 107520, "pitch": 42, "duration": 10, "velocity": 84}, {"time": 107520, "pitch": 54, "duration": 10, "velocity": 49}, {"time": 107520, "pitch": 61, "duration": 10, "velocity": 80}, {"time": 107640, "pitch": 54, "duration": 10, "velocity": 39}, {"time": 107760, "pitch": 46, "duration": 10, "velocity": 75}, {"time": 107760, "pitch": 54, "duration": 10, "velocity": 44}, {"time": 107760, "pitch": 64, "duration": 10, "velocity": 55}, {"time": 107880, "pitch": 38, "duration": 10, "velocity": 40}, {"time": 107880, "pitch": 54, "duration": 10, "velocity": 37}, {"time": 107880, "pitch": 64, "duration": 10, "velocity": 50}, {"time": 108000, "pitch": 35, "duration": 10, "velocity": 90}, {"time": 108000, "pitch": 42, "duration": 10, "velocity": 84}, {"time": 108000, "pitch": 54, "duration": 10, "velocity": 86}, {"time": 108000, "pitch": 61, "duration": 10, "velocity": 55}, {"time": 108120, "pitch": 54, "duration": 10, "velocity": 39}, {"time": 108240, "pitch": 38, "duration": 10, "velocity": 40}, {"time": 108240, "pitch": 46, "duration": 10, "velocity": 75}, {"time": 108240, "pitch": 54, "duration": 10, "velocity": 44}, {"time": 108240, "pitch": 63, "duration": 10, "velocity": 50}, {"time": 108360, "pitch": 38, "duration": 10, "velocity": 40}, {"time": 108360, "pitch": 54, "duration": 10, "velocity": 37}, {"time": 108360, "pitch": 63, "duration": 10, "velocity": 53}, {"time": 108480, "pitch": 35, "duration": 10, "velocity": 87}, {"time": 108480, "pitch": 39, "duration": 10, "velocity": 85}, {"time": 108480, "pitch": 40, "duration": 10, "velocity": 85}, {"time": 108480, "pitch": 42, "duration": 10, "velocity": 84}, {"time": 108480, "pitch": 54, "duration": 10, "velocity": 49}, {"time": 108480, "pitch": 62, "duration": 10, "velocity": 80}, {"time": 108600, "pitch": 54, "duration": 10, "velocity": 39}, {"time": 108720, "pitch": 46, "duration": 10, "velocity": 75}, {"time": 108720, "pitch": 54, "duration": 10, "velocity": 44}, {"time": 108720, "pitch": 64, "duration": 10, "velocity": 70}, {"time": 108840, "pitch": 38, "duration": 10, "velocity": 40}, {"time": 108840, "pitch": 54, "duration": 10, "velocity": 37}, {"time": 108840, "pitch": 63, "duration": 10, "velocity": 60}, {"time": 108960, "pitch": 35, "duration": 10, "velocity": 89}, {"time": 108960, "pitch": 42, "duration": 10, "velocity": 84}, {"time": 108960, "pitch": 54, "duration": 10, "velocity": 86}, {"time": 109080, "pitch": 38, "duration": 10, "velocity": 40}, {"time": 109080, "pitch": 42, "duration": 10, "velocity": 78}, {"time": 109080, "pitch": 54, "duration": 10, "velocity": 39}, {"time": 109080, "pitch": 62, "duration": 10, "velocity": 60}, {"time": 109200, "pitch": 46, "duration": 10, "velocity": 75}, {"time": 109200, "pitch": 54, "duration": 10, "velocity": 44}, {"time": 109200, "pitch": 60, "duration": 10, "velocity": 60}, {"time": 109320, "pitch": 54, "duration": 10, "velocity": 37}, {"time": 109440, "pitch": 35, "duration": 10, "velocity": 82}, {"time": 109440, "pitch": 39, "duration": 10, "velocity": 85}, {"time": 109440, "pitch": 40, "duration": 10, "velocity": 89}, {"time": 109440, "pitch": 42, "duration": 10, "velocity": 84}, {"time": 109440, "pitch": 54, "duration": 10, "velocity": 49}, {"time": 109440, "pitch": 64, "duration": 10, "velocity": 60}, {"time": 109560, "pitch": 54, "duration": 10, "velocity": 39}, {"time": 109680, "pitch": 46, "duration": 10, "velocity": 75}, {"time": 109680, "pitch": 54, "duration": 10, "velocity": 44}, {"time": 109680, "pitch": 61, "duration": 10, "velocity": 55}, {"time": 109800, "pitch": 38, "duration": 10, "velocity": 40}, {"time": 109800, "pitch": 54, "duration": 10, "velocity": 37}, {"time": 109800, "pitch": 61, "duration": 10, "velocity": 50}, {"time": 109920, "pitch": 35, "duration": 10, "velocity": 90}, {"time": 109920, "pitch": 42, "duration": 10, "velocity": 84}, {"time": 109920, "pitch": 54, "duration": 10, "velocity": 86}, {"time": 109920, "pitch": 63, "duration": 10, "velocity": 55}, {"time": 110040, "pitch": 54, "duration": 10, "velocity": 39}, {"time": 110160, "pitch": 38, "duration": 10, "velocity": 40}, {"time": 110160, "pitch": 46, "duration": 10, "velocity": 75}, {"time": 110160, "pitch": 54, "duration": 10, "velocity": 44}, {"time": 110160, "pitch": 61, "duration": 10, "velocity": 50}, {"time": 110280, "pitch": 38, "duration": 10, "velocity": 40}, {"time": 110280, "pitch": 54, "duration": 10, "velocity": 37}, {"time": 110280, "pitch": 63, "duration": 10, "velocity": 61}, {"time": 110400, "pitch": 35, "duration": 10, "velocity": 87}, {"time": 110400, "pitch": 39, "duration": 10, "velocity": 85}, {"time": 110400, "pitch": 40, "duration": 10, "velocity": 85}, {"time": 110400, "pitch": 42, "duration": 10, "velocity": 84}, {"time": 110400, "pitch": 54, "duration": 10, "velocity": 49}, {"time": 110400, "pitch": 62, "duration": 10, "velocity": 80}, {"time": 110520, "pitch": 54, "duration": 10, "velocity": 39}, {"time": 110640, "pitch": 46, "duration": 10, "velocity": 75}, {"time": 110640, "pitch": 54, "duration": 10, "velocity": 44}, {"time": 110640, "pitch": 64, "duration": 10, "velocity": 70}, {"time": 110760, "pitch": 38, "duration": 10, "velocity": 40}, {"time": 110760, "pitch": 54, "duration": 10, "velocity": 37}, {"time": 110760, "pitch": 63, "duration": 10, "velocity": 60}, {"time": 110880, "pitch": 35, "duration": 10, "velocity": 89}, {"time": 110880, "pitch": 42, "duration": 10, "velocity": 84}, {"time": 110880, "pitch": 54, "duration": 10, "velocity": 86}, {"time": 111000, "pitch": 38, "duration": 10, "velocity": 40}, {"time": 111000, "pitch": 42, "duration": 10, "velocity": 78}, {"time": 111000, "pitch": 54, "duration": 10, "velocity": 39}, {"time": 111000, "pitch": 63, "duration": 10, "velocity": 60}, {"time": 111120, "pitch": 46, "duration": 10, "velocity": 75}, {"time": 111120, "pitch": 54, "duration": 10, "velocity": 44}, {"time": 111120, "pitch": 60, "duration": 10, "velocity": 50}, {"time": 111240, "pitch": 54, "duration": 10, "velocity": 37}, {"time": 111360, "pitch": 35, "duration": 10, "velocity": 82}, {"time": 111360, "pitch": 39, "duration": 10, "velocity": 85}, {"time": 111360, "pitch": 40, "duration": 10, "velocity": 89}, {"time": 111360, "pitch": 42, "duration": 10, "velocity": 84}, {"time": 111360, "pitch": 54, "duration": 10, "velocity": 49}, {"time": 111360, "pitch": 61, "duration": 10, "velocity": 80}, {"time": 111480, "pitch": 54, "duration": 10, "velocity": 39}, {"time": 111600, "pitch": 46, "duration": 10, "velocity": 75}, {"time": 111600, "pitch": 54, "duration": 10, "velocity": 44}, {"time": 111600, "pitch": 64, "duration": 10, "velocity": 55}, {"time": 111720, "pitch": 38, "duration": 10, "velocity": 40}, {"time": 111720, "pitch": 54, "duration": 10, "velocity": 37}, {"time": 111720, "pitch": 64, "duration": 10, "velocity": 50}, {"time": 111840, "pitch": 35, "duration": 10, "velocity": 90}, {"time": 111840, "pitch": 42, "duration": 10, "velocity": 84}, {"time": 111840, "pitch": 49, "duration": 10, "velocity": 50}, {"time": 111840, "pitch": 54, "duration": 10, "velocity": 86}, {"time": 111840, "pitch": 61, "duration": 10, "velocity": 55}, {"time": 111960, "pitch": 54, "duration": 10, "velocity": 39}, {"time": 112080, "pitch": 38, "duration": 10, "velocity": 40}, {"time": 112080, "pitch": 46, "duration": 10, "velocity": 75}, {"time": 112080, "pitch": 54, "duration": 10, "velocity": 44}, {"time": 112080, "pitch": 63, "duration": 10, "velocity": 50}, {"time": 112200, "pitch": 38, "duration": 10, "velocity": 40}, {"time": 112200, "pitch": 54, "duration": 10, "velocity": 37}, {"time": 112200, "pitch": 63, "duration": 10, "velocity": 53}, {"time": 112320, "pitch": 35, "duration": 10, "velocity": 87}, {"time": 112320, "pitch": 39, "duration": 10, "velocity": 85}, {"time": 112320, "pitch": 40, "duration": 10, "velocity": 85}, {"time": 112320, "pitch": 42, "duration": 10, "velocity": 84}, {"time": 112320, "pitch": 51, "duration": 10, "velocity": 90}, {"time": 112320, "pitch": 54, "duration": 10, "velocity": 49}, {"time": 112320, "pitch": 62, "duration": 10, "velocity": 80}, {"time": 112440, "pitch": 54, "duration": 10, "velocity": 39}, {"time": 112560, "pitch": 46, "duration": 10, "velocity": 75}, {"time": 112560, "pitch": 54, "duration": 10, "velocity": 44}, {"time": 112560, "pitch": 57, "duration": 10, "velocity": 52}, {"time": 112560, "pitch": 64, "duration": 10, "velocity": 70}, {"time": 112680, "pitch": 38, "duration": 10, "velocity": 40}, {"time": 112680, "pitch": 54, "duration": 10, "velocity": 37}, {"time": 112680, "pitch": 63, "duration": 10, "velocity": 60}, {"time": 112800, "pitch": 35, "duration": 10, "velocity": 89}, {"time": 112800, "pitch": 42, "duration": 10, "velocity": 84}, {"time": 112800, "pitch": 51, "duration": 10, "velocity": 90}, {"time": 112800, "pitch": 54, "duration": 10, "velocity": 86}, {"time": 112920, "pitch": 38, "duration": 10, "velocity": 40}, {"time": 112920, "pitch": 42, "duration": 10, "velocity": 78}, {"time": 112920, "pitch": 54, "duration": 10, "velocity": 39}, {"time": 112920, "pitch": 62, "duration": 10, "velocity": 60}, {"time": 113040, "pitch": 46, "duration": 10, "velocity": 75}, {"time": 113040, "pitch": 54, "duration": 10, "velocity": 44}, {"time": 113040, "pitch": 60, "duration": 10, "velocity": 60}, {"time": 113160, "pitch": 54, "duration": 10, "velocity": 37}, {"time": 113280, "pitch": 35, "duration": 10, "velocity": 82}, {"time": 113280, "pitch": 39, "duration": 10, "velocity": 85}, {"time": 113280, "pitch": 40, "duration": 10, "velocity": 89}, {"time": 113280, "pitch": 42, "duration": 10, "velocity": 84}, {"time": 113280, "pitch": 51, "duration": 10, "velocity": 90}, {"time": 113280, "pitch": 54, "duration": 10, "velocity": 49}, {"time": 113280, "pitch": 64, "duration": 10, "velocity": 60}, {"time": 113400, "pitch": 54, "duration": 10, "velocity": 39}, {"time": 113520, "pitch": 46, "duration": 10, "velocity": 75}, {"time": 113520, "pitch": 54, "duration": 10, "velocity": 44}, {"time": 113520, "pitch": 61, "duration": 10, "velocity": 55}, {"time": 113640, "pitch": 38, "duration": 10, "velocity": 40}, {"time": 113640, "pitch": 54, "duration": 10, "velocity": 37}, {"time": 113640, "pitch": 61, "duration": 10, "velocity": 50}, {"time": 113760, "pitch": 35, "duration": 10, "velocity": 90}, {"time": 113760, "pitch": 42, "duration": 10, "velocity": 84}, {"time": 113760, "pitch": 49, "duration": 10, "velocity": 50}, {"time": 113760, "pitch": 54, "duration": 10, "velocity": 86}, {"time": 113760, "pitch": 63, "duration": 10, "velocity": 55}, {"time": 113880, "pitch": 54, "duration": 10, "velocity": 39}, {"time": 114000, "pitch": 38, "duration": 10, "velocity": 40}, {"time": 114000, "pitch": 46, "duration": 10, "velocity": 75}, {"time": 114000, "pitch": 54, "duration": 10, "velocity": 44}, {"time": 114000, "pitch": 61, "duration": 10, "velocity": 50}, {"time": 114120, "pitch": 38, "duration": 10, "velocity": 40}, {"time": 114120, "pitch": 54, "duration": 10, "velocity": 37}, {"time": 114120, "pitch": 63, "duration": 10, "velocity": 61}, {"time": 114240, "pitch": 35, "duration": 10, "velocity": 87}, {"time": 114240, "pitch": 39, "duration": 10, "velocity": 85}, {"time": 114240, "pitch": 40, "duration": 10, "velocity": 85}, {"time": 114240, "pitch": 42, "duration": 10, "velocity": 84}, {"time": 114240, "pitch": 51, "duration": 10, "velocity": 90}, {"time": 114240, "pitch": 54, "duration": 10, "velocity": 49}, {"time": 114240, "pitch": 62, "duration": 10, "velocity": 80}, {"time": 114360, "pitch": 54, "duration": 10, "velocity": 39}, {"time": 114480, "pitch": 46, "duration": 10, "velocity": 75}, {"time": 114480, "pitch": 54, "duration": 10, "velocity": 44}, {"time": 114480, "pitch": 57, "duration": 10, "velocity": 52}, {"time": 114480, "pitch": 64, "duration": 10, "velocity": 70}, {"time": 114600, "pitch": 38, "duration": 10, "velocity": 40}, {"time": 114600, "pitch": 54, "duration": 10, "velocity": 37}, {"time": 114600, "pitch": 63, "duration": 10, "velocity": 60}, {"time": 114720, "pitch": 35, "duration": 10, "velocity": 89}, {"time": 114720, "pitch": 42, "duration": 10, "velocity": 84}, {"time": 114720, "pitch": 51, "duration": 10, "velocity": 90}, {"time": 114720, "pitch": 54, "duration": 10, "velocity": 86}, {"time": 114840, "pitch": 38, "duration": 10, "velocity": 40}, {"time": 114840, "pitch": 42, "duration": 10, "velocity": 78}, {"time": 114840, "pitch": 54, "duration": 10, "velocity": 39}, {"time": 114840, "pitch": 63, "duration": 10, "velocity": 60}, {"time": 114960, "pitch": 46, "duration": 10, "velocity": 75}, {"time": 114960, "pitch": 54, "duration": 10, "velocity": 44}, {"time": 114960, "pitch": 60, "duration": 10, "velocity": 50}, {"time": 115080, "pitch": 54, "duration": 10, "velocity": 37}, {"time": 115200, "pitch": 35, "duration": 10, "velocity": 82}, {"time": 115200, "pitch": 39, "duration": 10, "velocity": 85}, {"time": 115200, "pitch": 40, "duration": 10, "velocity": 89}, {"time": 115200, "pitch": 42, "duration": 10, "velocity": 84}, {"time": 115200, "pitch": 51, "duration": 10, "velocity": 90}, {"time": 115200, "pitch": 54, "duration": 10, "velocity": 49}, {"time": 115200, "pitch": 61, "duration": 10, "velocity": 80}, {"time": 115320, "pitch": 38, "duration": 10, "velocity": 20}, {"time": 115320, "pitch": 54, "duration": 10, "velocity": 39}, {"time": 115360, "pitch": 38, "duration": 10, "velocity": 20}, {"time": 115400, "pitch": 38, "duration": 10, "velocity": 30}, {"time": 115440, "pitch": 38, "duration": 10, "velocity": 60}, {"time": 115440, "pitch": 46, "duration": 10, "velocity": 75}, {"time": 115440, "pitch": 54, "duration": 10, "velocity": 44}, {"time": 115440, "pitch": 64, "duration": 10, "velocity": 55}, {"time": 115560, "pitch": 38, "duration": 10, "velocity": 40}, {"time": 115560, "pitch": 54, "duration": 10, "velocity": 37}, {"time": 115560, "pitch": 64, "duration": 10, "velocity": 50}, {"time": 115580, "pitch": 38, "duration": 10, "velocity": 35}, {"time": 115680, "pitch": 35, "duration": 10, "velocity": 90}, {"time": 115680, "pitch": 42, "duration": 10, "velocity": 84}, {"time": 115680, "pitch": 49, "duration": 10, "velocity": 60}, {"time": 115680, "pitch": 54, "duration": 10, "velocity": 86}, {"time": 115680, "pitch": 61, "duration": 10, "velocity": 55}, {"time": 115800, "pitch": 54, "duration": 10, "velocity": 39}, {"time": 115920, "pitch": 38, "duration": 10, "velocity": 40}, {"time": 115920, "pitch": 46, "duration": 10, "velocity": 75}, {"time": 115920, "pitch": 54, "duration": 10, "velocity": 44}, {"time": 115920, "pitch": 63, "duration": 10, "velocity": 50}, {"time": 116040, "pitch": 38, "duration": 10, "velocity": 40}, {"time": 116040, "pitch": 54, "duration": 10, "velocity": 37}, {"time": 116040, "pitch": 63, "duration": 10, "velocity": 53}, {"time": 116160, "pitch": 39, "duration": 10, "velocity": 85}, {"time": 116160, "pitch": 40, "duration": 10, "velocity": 85}, {"time": 116160, "pitch": 42, "duration": 10, "velocity": 84}, {"time": 116160, "pitch": 54, "duration": 10, "velocity": 49}, {"time": 116160, "pitch": 62, "duration": 10, "velocity": 80}, {"time": 116280, "pitch": 54, "duration": 10, "velocity": 39}, {"time": 116400, "pitch": 35, "duration": 10, "velocity": 87}, {"time": 116400, "pitch": 46, "duration": 10, "velocity": 75}, {"time": 116400, "pitch": 54, "duration": 10, "velocity": 44}, {"time": 116400, "pitch": 57, "duration": 10, "velocity": 60}, {"time": 116400, "pitch": 64, "duration": 10, "velocity": 70}, {"time": 116520, "pitch": 38, "duration": 10, "velocity": 40}, {"time": 116520, "pitch": 48, "duration": 40, "velocity": 81}, {"time": 116520, "pitch": 54, "duration": 10, "velocity": 37}, {"time": 116520, "pitch": 63, "duration": 10, "velocity": 60}, {"time": 116640, "pitch": 42, "duration": 10, "velocity": 84}, {"time": 116640, "pitch": 54, "duration": 10, "velocity": 86}, {"time": 116760, "pitch": 38, "duration": 10, "velocity": 40}, {"time": 116760, "pitch": 42, "duration": 10, "velocity": 78}, {"time": 116760, "pitch": 45, "duration": 60, "velocity": 76}, {"time": 116760, "pitch": 54, "duration": 10, "velocity": 39}, {"time": 116760, "pitch": 62, "duration": 10, "velocity": 60}, {"time": 116880, "pitch": 35, "duration": 10, "velocity": 89}, {"time": 116880, "pitch": 46, "duration": 10, "velocity": 75}, {"time": 116880, "pitch": 54, "duration": 10, "velocity": 44}, {"time": 116880, "pitch": 60, "duration": 10, "velocity": 60}, {"time": 117000, "pitch": 54, "duration": 10, "velocity": 37}, {"time": 117120, "pitch": 39, "duration": 10, "velocity": 85}, {"time": 117120, "pitch": 40, "duration": 10, "velocity": 89}, {"time": 117120, "pitch": 42, "duration": 10, "velocity": 84}, {"time": 117120, "pitch": 54, "duration": 10, "velocity": 49}, {"time": 117120, "pitch": 64, "duration": 10, "velocity": 60}, {"time": 117240, "pitch": 48, "duration": 50, "velocity": 61}, {"time": 117240, "pitch": 54, "duration": 10, "velocity": 39}, {"time": 117360, "pitch": 35, "duration": 10, "velocity": 82}, {"time": 117360, "pitch": 45, "duration": 70, "velocity": 72}, {"time": 117360, "pitch": 46, "duration": 10, "velocity": 75}, {"time": 117360, "pitch": 54, "duration": 10, "velocity": 44}, {"time": 117360, "pitch": 61, "duration": 10, "velocity": 55}, {"time": 117480, "pitch": 38, "duration": 10, "velocity": 40}, {"time": 117480, "pitch": 41, "duration": 60, "velocity": 63}, {"time": 117480, "pitch": 54, "duration": 10, "velocity": 37}, {"time": 117480, "pitch": 61, "duration": 10, "velocity": 50}, {"time": 117600, "pitch": 35, "duration": 10, "velocity": 90}, {"time": 117600, "pitch": 42, "duration": 10, "velocity": 84}, {"time": 117600, "pitch": 49, "duration": 10, "velocity": 60}, {"time": 117600, "pitch": 54, "duration": 10, "velocity": 86}, {"time": 117600, "pitch": 63, "duration": 10, "velocity": 55}, {"time": 117720, "pitch": 54, "duration": 10, "velocity": 39}, {"time": 117840, "pitch": 35, "duration": 10, "velocity": 87}, {"time": 117840, "pitch": 38, "duration": 10, "velocity": 40}, {"time": 117840, "pitch": 40, "duration": 10, "velocity": 85}, {"time": 117840, "pitch": 46, "duration": 10, "velocity": 75}, {"time": 117840, "pitch": 54, "duration": 10, "velocity": 44}, {"time": 117840, "pitch": 61, "duration": 10, "velocity": 50}, {"time": 117960, "pitch": 38, "duration": 10, "velocity": 40}, {"time": 117960, "pitch": 54, "duration": 10, "velocity": 37}, {"time": 117960, "pitch": 63, "duration": 10, "velocity": 61}, {"time": 118080, "pitch": 39, "duration": 10, "velocity": 85}, {"time": 118080, "pitch": 42, "duration": 10, "velocity": 84}, {"time": 118080, "pitch": 54, "duration": 10, "velocity": 49}, {"time": 118080, "pitch": 62, "duration": 10, "velocity": 80}, {"time": 118200, "pitch": 54, "duration": 10, "velocity": 39}, {"time": 118320, "pitch": 46, "duration": 10, "velocity": 75}, {"time": 118320, "pitch": 54, "duration": 10, "velocity": 44}, {"time": 118320, "pitch": 64, "duration": 10, "velocity": 70}, {"time": 118440, "pitch": 38, "duration": 10, "velocity": 40}, {"time": 118440, "pitch": 54, "duration": 10, "velocity": 37}, {"time": 118440, "pitch": 63, "duration": 10, "velocity": 60}, {"time": 118560, "pitch": 40, "duration": 10, "velocity": 105}, {"time": 118560, "pitch": 42, "duration": 10, "velocity": 84}, {"time": 118560, "pitch": 54, "duration": 10, "velocity": 86}, {"time": 118680, "pitch": 38, "duration": 10, "velocity": 40}, {"time": 118680, "pitch": 40, "duration": 10, "velocity": 89}, {"time": 118680, "pitch": 42, "duration": 10, "velocity": 78}, {"time": 118680, "pitch": 54, "duration": 10, "velocity": 39}, {"time": 118680, "pitch": 63, "duration": 10, "velocity": 60}, {"time": 118800, "pitch": 35, "duration": 10, "velocity": 82}, {"time": 118800, "pitch": 46, "duration": 10, "velocity": 75}, {"time": 118800, "pitch": 54, "duration": 10, "velocity": 44}, {"time": 118800, "pitch": 60, "duration": 10, "velocity": 50}, {"time": 118920, "pitch": 54, "duration": 10, "velocity": 37}, {"time": 119040, "pitch": 39, "duration": 10, "velocity": 85}, {"time": 119040, "pitch": 40, "duration": 10, "velocity": 106}, {"time": 119040, "pitch": 42, "duration": 10, "velocity": 84}, {"time": 119040, "pitch": 54, "duration": 10, "velocity": 49}, {"time": 119040, "pitch": 61, "duration": 10, "velocity": 80}, {"time": 119160, "pitch": 54, "duration": 10, "velocity": 39}, {"time": 119280, "pitch": 35, "duration": 10, "velocity": 74}, {"time": 119280, "pitch": 46, "duration": 10, "velocity": 75}, {"time": 119280, "pitch": 54, "duration": 10, "velocity": 44}, {"time": 119280, "pitch": 64, "duration": 10, "velocity": 55}, {"time": 119400, "pitch": 38, "duration": 10, "velocity": 40}, {"time": 119400, "pitch": 54, "duration": 10, "velocity": 37}, {"time": 119400, "pitch": 64, "duration": 10, "velocity": 50}, {"time": 119520, "pitch": 35, "duration": 10, "velocity": 90}, {"time": 119520, "pitch": 42, "duration": 10, "velocity": 84}, {"time": 119520, "pitch": 54, "duration": 10, "velocity": 86}, {"time": 119520, "pitch": 57, "duration": 10, "velocity": 68}, {"time": 119520, "pitch": 61, "duration": 10, "velocity": 55}, {"time": 119640, "pitch": 54, "duration": 10, "velocity": 39}, {"time": 119760, "pitch": 38, "duration": 10, "velocity": 40}, {"time": 119760, "pitch": 46, "duration": 10, "velocity": 75}, {"time": 119760, "pitch": 54, "duration": 10, "velocity": 44}, {"time": 119760, "pitch": 63, "duration": 10, "velocity": 50}, {"time": 119760, "pitch": 70, "duration": 70, "velocity": 100}, {"time": 119880, "pitch": 38, "duration": 10, "velocity": 40}, {"time": 119880, "pitch": 54, "duration": 10, "velocity": 37}, {"time": 119880, "pitch": 63, "duration": 10, "velocity": 53}, {"time": 119880, "pitch": 70, "duration": 70, "velocity": 50}, {"time": 120000, "pitch": 35, "duration": 10, "velocity": 87}, {"time": 120000, "pitch": 39, "duration": 10, "velocity": 85}, {"time": 120000, "pitch": 40, "duration": 10, "velocity": 85}, {"time": 120000, "pitch": 42, "duration": 10, "velocity": 84}, {"time": 120000, "pitch": 54, "duration": 10, "velocity": 49}, {"time": 120000, "pitch": 62, "duration": 10, "velocity": 80}, {"time": 120120, "pitch": 54, "duration": 10, "velocity": 39}, {"time": 120240, "pitch": 46, "duration": 10, "velocity": 75}, {"time": 120240, "pitch": 54, "duration": 10, "velocity": 44}, {"time": 120240, "pitch": 64, "duration": 10, "velocity": 70}, {"time": 120240, "pitch": 70, "duration": 70, "velocity": 100}, {"time": 120360, "pitch": 38, "duration": 10, "velocity": 40}, {"time": 120360, "pitch": 54, "duration": 10, "velocity": 37}, {"time": 120360, "pitch": 63, "duration": 10, "velocity": 60}, {"time": 120480, "pitch": 35, "duration": 10, "velocity": 89}, {"time": 120480, "pitch": 42, "duration": 10, "velocity": 84}, {"time": 120480, "pitch": 54, "duration": 10, "velocity": 86}, {"time": 120600, "pitch": 38, "duration": 10, "velocity": 40}, {"time": 120600, "pitch": 42, "duration": 10, "velocity": 78}, {"time": 120600, "pitch": 54, "duration": 10, "velocity": 39}, {"time": 120600, "pitch": 62, "duration": 10, "velocity": 60}, {"time": 120720, "pitch": 46, "duration": 10, "velocity": 75}, {"time": 120720, "pitch": 54, "duration": 10, "velocity": 44}, {"time": 120720, "pitch": 60, "duration": 10, "velocity": 60}, {"time": 120720, "pitch": 70, "duration": 70, "velocity": 100}, {"time": 120840, "pitch": 54, "duration": 10, "velocity": 37}, {"time": 120960, "pitch": 35, "duration": 10, "velocity": 82}, {"time": 120960, "pitch": 39, "duration": 10, "velocity": 85}, {"time": 120960, "pitch": 40, "duration": 10, "velocity": 89}, {"time": 120960, "pitch": 42, "duration": 10, "velocity": 84}, {"time": 120960, "pitch": 54, "duration": 10, "velocity": 49}, {"time": 120960, "pitch": 64, "duration": 10, "velocity": 60}, {"time": 121080, "pitch": 54, "duration": 10, "velocity": 39}, {"time": 121200, "pitch": 46, "duration": 10, "velocity": 75}, {"time": 121200, "pitch": 54, "duration": 10, "velocity": 44}, {"time": 121200, "pitch": 61, "duration": 10, "velocity": 55}, {"time": 121200, "pitch": 70, "duration": 70, "velocity": 100}, {"time": 121320, "pitch": 38, "duration": 10, "velocity": 40}, {"time": 121320, "pitch": 54, "duration": 10, "velocity": 37}, {"time": 121320, "pitch": 61, "duration": 10, "velocity": 50}, {"time": 121320, "pitch": 70, "duration": 70, "velocity": 50}, {"time": 121440, "pitch": 35, "duration": 10, "velocity": 90}, {"time": 121440, "pitch": 42, "duration": 10, "velocity": 84}, {"time": 121440, "pitch": 54, "duration": 10, "velocity": 86}, {"time": 121440, "pitch": 63, "duration": 10, "velocity": 55}, {"time": 121560, "pitch": 54, "duration": 10, "velocity": 39}, {"time": 121680, "pitch": 38, "duration": 10, "velocity": 40}, {"time": 121680, "pitch": 46, "duration": 10, "velocity": 75}, {"time": 121680, "pitch": 54, "duration": 10, "velocity": 44}, {"time": 121680, "pitch": 61, "duration": 10, "velocity": 50}, {"time": 121680, "pitch": 70, "duration": 70, "velocity": 100}, {"time": 121800, "pitch": 38, "duration": 10, "velocity": 40}, {"time": 121800, "pitch": 54, "duration": 10, "velocity": 37}, {"time": 121800, "pitch": 63, "duration": 10, "velocity": 61}, {"time": 121800, "pitch": 70, "duration": 70, "velocity": 50}, {"time": 121920, "pitch": 35, "duration": 10, "velocity": 87}, {"time": 121920, "pitch": 39, "duration": 10, "velocity": 85}, {"time": 121920, "pitch": 40, "duration": 10, "velocity": 85}, {"time": 121920, "pitch": 42, "duration": 10, "velocity": 84}, {"time": 121920, "pitch": 54, "duration": 10, "velocity": 49}, {"time": 121920, "pitch": 62, "duration": 10, "velocity": 80}, {"time": 122040, "pitch": 54, "duration": 10, "velocity": 39}, {"time": 122160, "pitch": 46, "duration": 10, "velocity": 75}, {"time": 122160, "pitch": 54, "duration": 10, "velocity": 44}, {"time": 122160, "pitch": 64, "duration": 10, "velocity": 70}, {"time": 122160, "pitch": 70, "duration": 70, "velocity": 100}, {"time": 122280, "pitch": 38, "duration": 10, "velocity": 40}, {"time": 122280, "pitch": 54, "duration": 10, "velocity": 37}, {"time": 122280, "pitch": 63, "duration": 10, "velocity": 60}, {"time": 122400, "pitch": 35, "duration": 10, "velocity": 89}, {"time": 122400, "pitch": 42, "duration": 10, "velocity": 84}, {"time": 122400, "pitch": 54, "duration": 10, "velocity": 86}, {"time": 122520, "pitch": 38, "duration": 10, "velocity": 40}, {"time": 122520, "pitch": 42, "duration": 10, "velocity": 78}, {"time": 122520, "pitch": 54, "duration": 10, "velocity": 39}, {"time": 122520, "pitch": 63, "duration": 10, "velocity": 60}, {"time": 122640, "pitch": 46, "duration": 10, "velocity": 75}, {"time": 122640, "pitch": 54, "duration": 10, "velocity": 44}, {"time": 122640, "pitch": 60, "duration": 10, "velocity": 50}, {"time": 122640, "pitch": 70, "duration": 70, "velocity": 100}, {"time": 122760, "pitch": 54, "duration": 10, "velocity": 37}, {"time": 122880, "pitch": 35, "duration": 10, "velocity": 82}, {"time": 122880, "pitch": 39, "duration": 10, "velocity": 85}, {"time": 122880, "pitch": 40, "duration": 10, "velocity": 89}, {"time": 122880, "pitch": 42, "duration": 10, "velocity": 84}, {"time": 122880, "pitch": 54, "duration": 10, "velocity": 49}, {"time": 122880, "pitch": 61, "duration": 10, "velocity": 80}, {"time": 123000, "pitch": 54, "duration": 10, "velocity": 39}, {"time": 123120, "pitch": 46, "duration": 10, "velocity": 75}, {"time": 123120, "pitch": 54, "duration": 10, "velocity": 44}, {"time": 123120, "pitch": 64, "duration": 10, "velocity": 55}, {"time": 123120, "pitch": 70, "duration": 70, "velocity": 100}, {"time": 123240, "pitch": 38, "duration": 10, "velocity": 40}, {"time": 123240, "pitch": 54, "duration": 10, "velocity": 37}, {"time": 123240, "pitch": 64, "duration": 10, "velocity": 50}, {"time": 123240, "pitch": 70, "duration": 70, "velocity": 50}, {"time": 123360, "pitch": 35, "duration": 10, "velocity": 90}, {"time": 123360, "pitch": 42, "duration": 10, "velocity": 84}, {"time": 123360, "pitch": 54, "duration": 10, "velocity": 86}, {"time": 123360, "pitch": 61, "duration": 10, "velocity": 55}, {"time": 123480, "pitch": 54, "duration": 10, "velocity": 39}, {"time": 123600, "pitch": 38, "duration": 10, "velocity": 40}, {"time": 123600, "pitch": 46, "duration": 10, "velocity": 75}, {"time": 123600, "pitch": 54, "duration": 10, "velocity": 44}, {"time": 123600, "pitch": 63, "duration": 10, "velocity": 50}, {"time": 123600, "pitch": 70, "duration": 70, "velocity": 100}, {"time": 123720, "pitch": 38, "duration": 10, "velocity": 40}, {"time": 123720, "pitch": 54, "duration": 10, "velocity": 37}, {"time": 123720, "pitch": 63, "duration": 10, "velocity": 53}, {"time": 123720, "pitch": 70, "duration": 70, "velocity": 50}, {"time": 123840, "pitch": 35, "duration": 10, "velocity": 87}, {"time": 123840, "pitch": 39, "duration": 10, "velocity": 85}, {"time": 123840, "pitch": 40, "duration": 10, "velocity": 85}, {"time": 123840, "pitch": 42, "duration": 10, "velocity": 84}, {"time": 123840, "pitch": 54, "duration": 10, "velocity": 49}, {"time": 123840, "pitch": 62, "duration": 10, "velocity": 80}, {"time": 123960, "pitch": 54, "duration": 10, "velocity": 39}, {"time": 124080, "pitch": 46, "duration": 10, "velocity": 75}, {"time": 124080, "pitch": 54, "duration": 10, "velocity": 44}, {"time": 124080, "pitch": 64, "duration": 10, "velocity": 70}, {"time": 124080, "pitch": 70, "duration": 70, "velocity": 100}, {"time": 124200, "pitch": 38, "duration": 10, "velocity": 40}, {"time": 124200, "pitch": 54, "duration": 10, "velocity": 37}, {"time": 124200, "pitch": 63, "duration": 10, "velocity": 60}, {"time": 124320, "pitch": 35, "duration": 10, "velocity": 89}, {"time": 124320, "pitch": 42, "duration": 10, "velocity": 84}, {"time": 124320, "pitch": 54, "duration": 10, "velocity": 86}, {"time": 124440, "pitch": 38, "duration": 10, "velocity": 40}, {"time": 124440, "pitch": 42, "duration": 10, "velocity": 78}, {"time": 124440, "pitch": 54, "duration": 10, "velocity": 39}, {"time": 124440, "pitch": 62, "duration": 10, "velocity": 60}, {"time": 124560, "pitch": 46, "duration": 10, "velocity": 75}, {"time": 124560, "pitch": 54, "duration": 10, "velocity": 44}, {"time": 124560, "pitch": 60, "duration": 10, "velocity": 60}, {"time": 124560, "pitch": 70, "duration": 70, "velocity": 100}, {"time": 124680, "pitch": 54, "duration": 10, "velocity": 37}, {"time": 124800, "pitch": 35, "duration": 10, "velocity": 82}, {"time": 124800, "pitch": 39, "duration": 10, "velocity": 85}, {"time": 124800, "pitch": 40, "duration": 10, "velocity": 89}, {"time": 124800, "pitch": 42, "duration": 10, "velocity": 84}, {"time": 124800, "pitch": 54, "duration": 10, "velocity": 49}, {"time": 124800, "pitch": 64, "duration": 10, "velocity": 60}, {"time": 124920, "pitch": 54, "duration": 10, "velocity": 39}, {"time": 125040, "pitch": 46, "duration": 10, "velocity": 75}, {"time": 125040, "pitch": 54, "duration": 10, "velocity": 44}, {"time": 125040, "pitch": 61, "duration": 10, "velocity": 55}, {"time": 125040, "pitch": 70, "duration": 70, "velocity": 100}, {"time": 125160, "pitch": 38, "duration": 10, "velocity": 40}, {"time": 125160, "pitch": 54, "duration": 10, "velocity": 37}, {"time": 125160, "pitch": 61, "duration": 10, "velocity": 50}, {"time": 125160, "pitch": 70, "duration": 70, "velocity": 50}, {"time": 125280, "pitch": 35, "duration": 10, "velocity": 90}, {"time": 125280, "pitch": 42, "duration": 10, "velocity": 84}, {"time": 125280, "pitch": 54, "duration": 10, "velocity": 86}, {"time": 125280, "pitch": 63, "duration": 10, "velocity": 55}, {"time": 125400, "pitch": 54, "duration": 10, "velocity": 39}, {"time": 125520, "pitch": 38, "duration": 10, "velocity": 40}, {"time": 125520, "pitch": 46, "duration": 10, "velocity": 75}, {"time": 125520, "pitch": 54, "duration": 10, "velocity": 44}, {"time": 125520, "pitch": 61, "duration": 10, "velocity": 50}, {"time": 125520, "pitch": 70, "duration": 70, "velocity": 100}, {"time": 125640, "pitch": 38, "duration": 10, "velocity": 40}, {"time": 125640, "pitch": 54, "duration": 10, "velocity": 37}, {"time": 125640, "pitch": 63, "duration": 10, "velocity": 61}, {"time": 125640, "pitch": 70, "duration": 70, "velocity": 50}, {"time": 125760, "pitch": 35, "duration": 10, "velocity": 87}, {"time": 125760, "pitch": 39, "duration": 10, "velocity": 85}, {"time": 125760, "pitch": 40, "duration": 10, "velocity": 85}, {"time": 125760, "pitch": 42, "duration": 10, "velocity": 84}, {"time": 125760, "pitch": 54, "duration": 10, "velocity": 49}, {"time": 125760, "pitch": 62, "duration": 10, "velocity": 80}, {"time": 125880, "pitch": 54, "duration": 10, "velocity": 39}, {"time": 126000, "pitch": 46, "duration": 10, "velocity": 75}, {"time": 126000, "pitch": 54, "duration": 10, "velocity": 44}, {"time": 126000, "pitch": 64, "duration": 10, "velocity": 70}, {"time": 126000, "pitch": 70, "duration": 70, "velocity": 100}, {"time": 126120, "pitch": 38, "duration": 10, "velocity": 40}, {"time": 126120, "pitch": 54, "duration": 10, "velocity": 37}, {"time": 126120, "pitch": 63, "duration": 10, "velocity": 60}, {"time": 126240, "pitch": 35, "duration": 10, "velocity": 89}, {"time": 126240, "pitch": 42, "duration": 10, "velocity": 84}, {"time": 126240, "pitch": 54, "duration": 10, "velocity": 86}, {"time": 126360, "pitch": 38, "duration": 10, "velocity": 40}, {"time": 126360, "pitch": 42, "duration": 10, "velocity": 78}, {"time": 126360, "pitch": 54, "duration": 10, "velocity": 39}, {"time": 126360, "pitch": 63, "duration": 10, "velocity": 60}, {"time": 126480, "pitch": 46, "duration": 10, "velocity": 75}, {"time": 126480, "pitch": 54, "duration": 10, "velocity": 44}, {"time": 126480, "pitch": 60, "duration": 10, "velocity": 50}, {"time": 126480, "pitch": 70, "duration": 70, "velocity": 100}, {"time": 126600, "pitch": 54, "duration": 10, "velocity": 37}, {"time": 126720, "pitch": 35, "duration": 10, "velocity": 82}, {"time": 126720, "pitch": 39, "duration": 10, "velocity": 85}, {"time": 126720, "pitch": 40, "duration": 10, "velocity": 89}, {"time": 126720, "pitch": 42, "duration": 10, "velocity": 84}, {"time": 126720, "pitch": 54, "duration": 10, "velocity": 49}, {"time": 126720, "pitch": 61, "duration": 10, "velocity": 80}, {"time": 126840, "pitch": 54, "duration": 10, "velocity": 39}, {"time": 126960, "pitch": 46, "duration": 10, "velocity": 75}, {"time": 126960, "pitch": 54, "duration": 10, "velocity": 44}, {"time": 126960, "pitch": 64, "duration": 10, "velocity": 55}, {"time": 126960, "pitch": 70, "duration": 70, "velocity": 100}, {"time": 127080, "pitch": 38, "duration": 10, "velocity": 40}, {"time": 127080, "pitch": 54, "duration": 10, "velocity": 37}, {"time": 127080, "pitch": 64, "duration": 10, "velocity": 50}, {"time": 127080, "pitch": 70, "duration": 70, "velocity": 50}, {"time": 127200, "pitch": 35, "duration": 10, "velocity": 90}, {"time": 127200, "pitch": 42, "duration": 10, "velocity": 84}, {"time": 127200, "pitch": 49, "duration": 10, "velocity": 60}, {"time": 127200, "pitch": 54, "duration": 10, "velocity": 86}, {"time": 127200, "pitch": 61, "duration": 10, "velocity": 55}, {"time": 127320, "pitch": 54, "duration": 10, "velocity": 39}, {"time": 127440, "pitch": 38, "duration": 10, "velocity": 40}, {"time": 127440, "pitch": 46, "duration": 10, "velocity": 75}, {"time": 127440, "pitch": 54, "duration": 10, "velocity": 44}, {"time": 127440, "pitch": 63, "duration": 10, "velocity": 50}, {"time": 127440, "pitch": 70, "duration": 70, "velocity": 100}, {"time": 127560, "pitch": 38, "duration": 10, "velocity": 40}, {"time": 127560, "pitch": 54, "duration": 10, "velocity": 37}, {"time": 127560, "pitch": 63, "duration": 10, "velocity": 53}, {"time": 127560, "pitch": 70, "duration": 70, "velocity": 50}, {"time": 127680, "pitch": 35, "duration": 10, "velocity": 87}, {"time": 127680, "pitch": 39, "duration": 10, "velocity": 85}, {"time": 127680, "pitch": 40, "duration": 10, "velocity": 85}, {"time": 127680, "pitch": 42, "duration": 10, "velocity": 84}, {"time": 127680, "pitch": 54, "duration": 10, "velocity": 49}, {"time": 127680, "pitch": 62, "duration": 10, "velocity": 80}, {"time": 127800, "pitch": 54, "duration": 10, "velocity": 39}, {"time": 127920, "pitch": 46, "duration": 10, "velocity": 75}, {"time": 127920, "pitch": 54, "duration": 10, "velocity": 44}, {"time": 127920, "pitch": 64, "duration": 10, "velocity": 70}, {"time": 127920, "pitch": 70, "duration": 70, "velocity": 100}, {"time": 128040, "pitch": 38, "duration": 10, "velocity": 40}, {"time": 128040, "pitch": 54, "duration": 10, "velocity": 37}, {"time": 128040, "pitch": 63, "duration": 10, "velocity": 60}, {"time": 128160, "pitch": 35, "duration": 10, "velocity": 89}, {"time": 128160, "pitch": 42, "duration": 10, "velocity": 84}, {"time": 128160, "pitch": 54, "duration": 10, "velocity": 86}, {"time": 128280, "pitch": 38, "duration": 10, "velocity": 40}, {"time": 128280, "pitch": 42, "duration": 10, "velocity": 78}, {"time": 128280, "pitch": 54, "duration": 10, "velocity": 39}, {"time": 128280, "pitch": 62, "duration": 10, "velocity": 60}, {"time": 128400, "pitch": 46, "duration": 10, "velocity": 75}, {"time": 128400, "pitch": 54, "duration": 10, "velocity": 44}, {"time": 128400, "pitch": 60, "duration": 10, "velocity": 60}, {"time": 128400, "pitch": 70, "duration": 70, "velocity": 100}, {"time": 128520, "pitch": 54, "duration": 10, "velocity": 37}, {"time": 128640, "pitch": 35, "duration": 10, "velocity": 82}, {"time": 128640, "pitch": 39, "duration": 10, "velocity": 85}, {"time": 128640, "pitch": 40, "duration": 10, "velocity": 89}, {"time": 128640, "pitch": 42, "duration": 10, "velocity": 84}, {"time": 128640, "pitch": 54, "duration": 10, "velocity": 49}, {"time": 128640, "pitch": 64, "duration": 10, "velocity": 60}, {"time": 128760, "pitch": 54, "duration": 10, "velocity": 39}, {"time": 128880, "pitch": 46, "duration": 10, "velocity": 75}, {"time": 128880, "pitch": 54, "duration": 10, "velocity": 44}, {"time": 128880, "pitch": 61, "duration": 10, "velocity": 55}, {"time": 128880, "pitch": 70, "duration": 70, "velocity": 100}, {"time": 129000, "pitch": 38, "duration": 10, "velocity": 40}, {"time": 129000, "pitch": 54, "duration": 10, "velocity": 37}, {"time": 129000, "pitch": 61, "duration": 10, "velocity": 50}, {"time": 129000, "pitch": 70, "duration": 70, "velocity": 50}, {"time": 129120, "pitch": 35, "duration": 10, "velocity": 90}, {"time": 129120, "pitch": 42, "duration": 10, "velocity": 84}, {"time": 129120, "pitch": 54, "duration": 10, "velocity": 86}, {"time": 129120, "pitch": 63, "duration": 10, "velocity": 55}, {"time": 129240, "pitch": 54, "duration": 10, "velocity": 39}, {"time": 129360, "pitch": 38, "duration": 10, "velocity": 40}, {"time": 129360, "pitch": 46, "duration": 10, "velocity": 75}, {"time": 129360, "pitch": 54, "duration": 10, "velocity": 44}, {"time": 129360, "pitch": 61, "duration": 10, "velocity": 50}, {"time": 129360, "pitch": 70, "duration": 70, "velocity": 100}, {"time": 129480, "pitch": 38, "duration": 10, "velocity": 40}, {"time": 129480, "pitch": 54, "duration": 10, "velocity": 37}, {"time": 129480, "pitch": 63, "duration": 10, "velocity": 61}, {"time": 129480, "pitch": 70, "duration": 70, "velocity": 50}, {"time": 129600, "pitch": 35, "duration": 10, "velocity": 87}, {"time": 129600, "pitch": 39, "duration": 10, "velocity": 85}, {"time": 129600, "pitch": 40, "duration": 10, "velocity": 85}, {"time": 129600, "pitch": 42, "duration": 10, "velocity": 84}, {"time": 129600, "pitch": 54, "duration": 10, "velocity": 49}, {"time": 129600, "pitch": 62, "duration": 10, "velocity": 80}, {"time": 129720, "pitch": 54, "duration": 10, "velocity": 39}, {"time": 129840, "pitch": 46, "duration": 10, "velocity": 75}, {"time": 129840, "pitch": 54, "duration": 10, "velocity": 44}, {"time": 129840, "pitch": 64, "duration": 10, "velocity": 70}, {"time": 129840, "pitch": 70, "duration": 70, "velocity": 100}, {"time": 129960, "pitch": 38, "duration": 10, "velocity": 40}, {"time": 129960, "pitch": 54, "duration": 10, "velocity": 37}, {"time": 129960, "pitch": 63, "duration": 10, "velocity": 60}, {"time": 130080, "pitch": 35, "duration": 10, "velocity": 89}, {"time": 130080, "pitch": 42, "duration": 10, "velocity": 84}, {"time": 130080, "pitch": 54, "duration": 10, "velocity": 86}, {"time": 130200, "pitch": 38, "duration": 10, "velocity": 40}, {"time": 130200, "pitch": 42, "duration": 10, "velocity": 78}, {"time": 130200, "pitch": 54, "duration": 10, "velocity": 39}, {"time": 130200, "pitch": 63, "duration": 10, "velocity": 60}, {"time": 130320, "pitch": 46, "duration": 10, "velocity": 75}, {"time": 130320, "pitch": 54, "duration": 10, "velocity": 44}, {"time": 130320, "pitch": 60, "duration": 10, "velocity": 50}, {"time": 130320, "pitch": 70, "duration": 70, "velocity": 100}, {"time": 130440, "pitch": 54, "duration": 10, "velocity": 37}, {"time": 130560, "pitch": 35, "duration": 10, "velocity": 82}, {"time": 130560, "pitch": 39, "duration": 10, "velocity": 85}, {"time": 130560, "pitch": 40, "duration": 10, "velocity": 89}, {"time": 130560, "pitch": 42, "duration": 10, "velocity": 84}, {"time": 130560, "pitch": 54, "duration": 10, "velocity": 49}, {"time": 130560, "pitch": 61, "duration": 10, "velocity": 80}, {"time": 130680, "pitch": 54, "duration": 10, "velocity": 39}, {"time": 130800, "pitch": 46, "duration": 10, "velocity": 75}, {"time": 130800, "pitch": 54, "duration": 10, "velocity": 44}, {"time": 130800, "pitch": 64, "duration": 10, "velocity": 55}, {"time": 130800, "pitch": 70, "duration": 70, "velocity": 100}, {"time": 130920, "pitch": 38, "duration": 10, "velocity": 40}, {"time": 130920, "pitch": 54, "duration": 10, "velocity": 37}, {"time": 130920, "pitch": 64, "duration": 10, "velocity": 50}, {"time": 130920, "pitch": 70, "duration": 70, "velocity": 50}, {"time": 131040, "pitch": 35, "duration": 10, "velocity": 90}, {"time": 131040, "pitch": 42, "duration": 10, "velocity": 84}, {"time": 131040, "pitch": 54, "duration": 10, "velocity": 86}, {"time": 131040, "pitch": 61, "duration": 10, "velocity": 55}, {"time": 131160, "pitch": 54, "duration": 10, "velocity": 39}, {"time": 131280, "pitch": 38, "duration": 10, "velocity": 40}, {"time": 131280, "pitch": 46, "duration": 10, "velocity": 75}, {"time": 131280, "pitch": 54, "duration": 10, "velocity": 44}, {"time": 131280, "pitch": 63, "duration": 10, "velocity": 50}, {"time": 131280, "pitch": 70, "duration": 70, "velocity": 100}, {"time": 131400, "pitch": 38, "duration": 10, "velocity": 40}, {"time": 131400, "pitch": 54, "duration": 10, "velocity": 37}, {"time": 131400, "pitch": 63, "duration": 10, "velocity": 53}, {"time": 131400, "pitch": 70, "duration": 70, "velocity": 50}, {"time": 131520, "pitch": 35, "duration": 10, "velocity": 87}, {"time": 131520, "pitch": 39, "duration": 10, "velocity": 85}, {"time": 131520, "pitch": 40, "duration": 10, "velocity": 85}, {"time": 131520, "pitch": 42, "duration": 10, "velocity": 84}, {"time": 131520, "pitch": 54, "duration": 10, "velocity": 49}, {"time": 131520, "pitch": 62, "duration": 10, "velocity": 80}, {"time": 131640, "pitch": 54, "duration": 10, "velocity": 39}, {"time": 131760, "pitch": 46, "duration": 10, "velocity": 75}, {"time": 131760, "pitch": 54, "duration": 10, "velocity": 44}, {"time": 131760, "pitch": 64, "duration": 10, "velocity": 70}, {"time": 131760, "pitch": 70, "duration": 70, "velocity": 100}, {"time": 131880, "pitch": 38, "duration": 10, "velocity": 40}, {"time": 131880, "pitch": 54, "duration": 10, "velocity": 37}, {"time": 131880, "pitch": 63, "duration": 10, "velocity": 60}, {"time": 132000, "pitch": 35, "duration": 10, "velocity": 89}, {"time": 132000, "pitch": 42, "duration": 10, "velocity": 84}, {"time": 132000, "pitch": 54, "duration": 10, "velocity": 86}, {"time": 132120, "pitch": 38, "duration": 10, "velocity": 40}, {"time": 132120, "pitch": 42, "duration": 10, "velocity": 78}, {"time": 132120, "pitch": 54, "duration": 10, "velocity": 39}, {"time": 132120, "pitch": 62, "duration": 10, "velocity": 60}, {"time": 132240, "pitch": 46, "duration": 10, "velocity": 75}, {"time": 132240, "pitch": 54, "duration": 10, "velocity": 44}, {"time": 132240, "pitch": 60, "duration": 10, "velocity": 60}, {"time": 132240, "pitch": 70, "duration": 70, "velocity": 100}, {"time": 132360, "pitch": 54, "duration": 10, "velocity": 37}, {"time": 132480, "pitch": 35, "duration": 10, "velocity": 82}, {"time": 132480, "pitch": 39, "duration": 10, "velocity": 85}, {"time": 132480, "pitch": 40, "duration": 10, "velocity": 89}, {"time": 132480, "pitch": 42, "duration": 10, "velocity": 84}, {"time": 132480, "pitch": 54, "duration": 10, "velocity": 49}, {"time": 132480, "pitch": 64, "duration": 10, "velocity": 60}, {"time": 132600, "pitch": 54, "duration": 10, "velocity": 39}, {"time": 132720, "pitch": 46, "duration": 10, "velocity": 75}, {"time": 132720, "pitch": 54, "duration": 10, "velocity": 44}, {"time": 132720, "pitch": 61, "duration": 10, "velocity": 55}, {"time": 132720, "pitch": 70, "duration": 70, "velocity": 100}, {"time": 132840, "pitch": 38, "duration": 10, "velocity": 40}, {"time": 132840, "pitch": 54, "duration": 10, "velocity": 37}, {"time": 132840, "pitch": 61, "duration": 10, "velocity": 50}, {"time": 132840, "pitch": 70, "duration": 70, "velocity": 50}, {"time": 132960, "pitch": 35, "duration": 10, "velocity": 90}, {"time": 132960, "pitch": 42, "duration": 10, "velocity": 84}, {"time": 132960, "pitch": 54, "duration": 10, "velocity": 86}, {"time": 132960, "pitch": 63, "duration": 10, "velocity": 55}, {"time": 133080, "pitch": 54, "duration": 10, "velocity": 39}, {"time": 133200, "pitch": 38, "duration": 10, "velocity": 40}, {"time": 133200, "pitch": 46, "duration": 10, "velocity": 75}, {"time": 133200, "pitch": 54, "duration": 10, "velocity": 44}, {"time": 133200, "pitch": 61, "duration": 10, "velocity": 50}, {"time": 133200, "pitch": 70, "duration": 70, "velocity": 100}, {"time": 133320, "pitch": 38, "duration": 10, "velocity": 40}, {"time": 133320, "pitch": 54, "duration": 10, "velocity": 37}, {"time": 133320, "pitch": 63, "duration": 10, "velocity": 61}, {"time": 133320, "pitch": 70, "duration": 70, "velocity": 50}, {"time": 133440, "pitch": 35, "duration": 10, "velocity": 87}, {"time": 133440, "pitch": 39, "duration": 10, "velocity": 85}, {"time": 133440, "pitch": 40, "duration": 10, "velocity": 85}, {"time": 133440, "pitch": 42, "duration": 10, "velocity": 84}, {"time": 133440, "pitch": 54, "duration": 10, "velocity": 49}, {"time": 133440, "pitch": 62, "duration": 10, "velocity": 80}, {"time": 133560, "pitch": 54, "duration": 10, "velocity": 39}, {"time": 133680, "pitch": 46, "duration": 10, "velocity": 75}, {"time": 133680, "pitch": 54, "duration": 10, "velocity": 44}, {"time": 133680, "pitch": 64, "duration": 10, "velocity": 70}, {"time": 133680, "pitch": 70, "duration": 70, "velocity": 100}, {"time": 133800, "pitch": 38, "duration": 10, "velocity": 40}, {"time": 133800, "pitch": 54, "duration": 10, "velocity": 37}, {"time": 133800, "pitch": 63, "duration": 10, "velocity": 60}, {"time": 133920, "pitch": 35, "duration": 10, "velocity": 89}, {"time": 133920, "pitch": 42, "duration": 10, "velocity": 84}, {"time": 133920, "pitch": 54, "duration": 10, "velocity": 86}, {"time": 134040, "pitch": 38, "duration": 10, "velocity": 40}, {"time": 134040, "pitch": 42, "duration": 10, "velocity": 78}, {"time": 134040, "pitch": 54, "duration": 10, "velocity": 39}, {"time": 134040, "pitch": 63, "duration": 10, "velocity": 60}, {"time": 134160, "pitch": 46, "duration": 10, "velocity": 75}, {"time": 134160, "pitch": 54, "duration": 10, "velocity": 44}, {"time": 134160, "pitch": 60, "duration": 10, "velocity": 50}, {"time": 134160, "pitch": 70, "duration": 70, "velocity": 100}, {"time": 134280, "pitch": 54, "duration": 10, "velocity": 37}, {"time": 134400, "pitch": 35, "duration": 10, "velocity": 82}, {"time": 134400, "pitch": 39, "duration": 10, "velocity": 85}, {"time": 134400, "pitch": 40, "duration": 10, "velocity": 89}, {"time": 134400, "pitch": 42, "duration": 10, "velocity": 84}, {"time": 134400, "pitch": 54, "duration": 10, "velocity": 49}, {"time": 134400, "pitch": 61, "duration": 10, "velocity": 80}, {"time": 134520, "pitch": 54, "duration": 10, "velocity": 39}, {"time": 134640, "pitch": 46, "duration": 10, "velocity": 75}, {"time": 134640, "pitch": 54, "duration": 10, "velocity": 44}, {"time": 134640, "pitch": 64, "duration": 10, "velocity": 55}, {"time": 134640, "pitch": 70, "duration": 70, "velocity": 100}, {"time": 134760, "pitch": 38, "duration": 10, "velocity": 40}, {"time": 134760, "pitch": 54, "duration": 10, "velocity": 37}, {"time": 134760, "pitch": 64, "duration": 10, "velocity": 50}, {"time": 134760, "pitch": 70, "duration": 70, "velocity": 50}, {"time": 134880, "pitch": 35, "duration": 10, "velocity": 90}, {"time": 134880, "pitch": 42, "duration": 10, "velocity": 84}, {"time": 134880, "pitch": 54, "duration": 10, "velocity": 86}, {"time": 134880, "pitch": 57, "duration": 10, "velocity": 68}, {"time": 134880, "pitch": 61, "duration": 10, "velocity": 55}, {"time": 135000, "pitch": 54, "duration": 10, "velocity": 39}, {"time": 135120, "pitch": 38, "duration": 10, "velocity": 40}, {"time": 135120, "pitch": 46, "duration": 10, "velocity": 75}, {"time": 135120, "pitch": 54, "duration": 10, "velocity": 44}, {"time": 135120, "pitch": 63, "duration": 10, "velocity": 50}, {"time": 135120, "pitch": 70, "duration": 70, "velocity": 100}, {"time": 135240, "pitch": 38, "duration": 10, "velocity": 40}, {"time": 135240, "pitch": 54, "duration": 10, "velocity": 37}, {"time": 135240, "pitch": 63, "duration": 10, "velocity": 53}, {"time": 135240, "pitch": 70, "duration": 70, "velocity": 50}, {"time": 135360, "pitch": 35, "duration": 10, "velocity": 87}, {"time": 135360, "pitch": 39, "duration": 10, "velocity": 85}, {"time": 135360, "pitch": 40, "duration": 10, "velocity": 85}, {"time": 135360, "pitch": 42, "duration": 10, "velocity": 84}, {"time": 135360, "pitch": 54, "duration": 10, "velocity": 49}, {"time": 135360, "pitch": 62, "duration": 10, "velocity": 80}, {"time": 135480, "pitch": 54, "duration": 10, "velocity": 39}, {"time": 135600, "pitch": 46, "duration": 10, "velocity": 75}, {"time": 135600, "pitch": 54, "duration": 10, "velocity": 44}, {"time": 135600, "pitch": 64, "duration": 10, "velocity": 70}, {"time": 135600, "pitch": 70, "duration": 70, "velocity": 100}, {"time": 135720, "pitch": 38, "duration": 10, "velocity": 40}, {"time": 135720, "pitch": 54, "duration": 10, "velocity": 37}, {"time": 135720, "pitch": 63, "duration": 10, "velocity": 60}, {"time": 135840, "pitch": 35, "duration": 10, "velocity": 89}, {"time": 135840, "pitch": 42, "duration": 10, "velocity": 84}, {"time": 135840, "pitch": 54, "duration": 10, "velocity": 86}, {"time": 135960, "pitch": 38, "duration": 10, "velocity": 40}, {"time": 135960, "pitch": 42, "duration": 10, "velocity": 78}, {"time": 135960, "pitch": 54, "duration": 10, "velocity": 39}, {"time": 135960, "pitch": 62, "duration": 10, "velocity": 60}, {"time": 136080, "pitch": 46, "duration": 10, "velocity": 75}, {"time": 136080, "pitch": 54, "duration": 10, "velocity": 44}, {"time": 136080, "pitch": 60, "duration": 10, "velocity": 60}, {"time": 136080, "pitch": 70, "duration": 70, "velocity": 100}, {"time": 136200, "pitch": 54, "duration": 10, "velocity": 37}, {"time": 136320, "pitch": 35, "duration": 10, "velocity": 82}, {"time": 136320, "pitch": 39, "duration": 10, "velocity": 85}, {"time": 136320, "pitch": 40, "duration": 10, "velocity": 89}, {"time": 136320, "pitch": 42, "duration": 10, "velocity": 84}, {"time": 136320, "pitch": 54, "duration": 10, "velocity": 49}, {"time": 136320, "pitch": 64, "duration": 10, "velocity": 60}, {"time": 136440, "pitch": 54, "duration": 10, "velocity": 39}, {"time": 136560, "pitch": 46, "duration": 10, "velocity": 75}, {"time": 136560, "pitch": 54, "duration": 10, "velocity": 44}, {"time": 136560, "pitch": 61, "duration": 10, "velocity": 55}, {"time": 136560, "pitch": 70, "duration": 70, "velocity": 100}, {"time": 136680, "pitch": 38, "duration": 10, "velocity": 40}, {"time": 136680, "pitch": 54, "duration": 10, "velocity": 37}, {"time": 136680, "pitch": 61, "duration": 10, "velocity": 50}, {"time": 136680, "pitch": 70, "duration": 70, "velocity": 50}, {"time": 136800, "pitch": 35, "duration": 10, "velocity": 90}, {"time": 136800, "pitch": 42, "duration": 10, "velocity": 84}, {"time": 136800, "pitch": 54, "duration": 10, "velocity": 86}, {"time": 136800, "pitch": 63, "duration": 10, "velocity": 55}, {"time": 136920, "pitch": 54, "duration": 10, "velocity": 39}, {"time": 137040, "pitch": 38, "duration": 10, "velocity": 40}, {"time": 137040, "pitch": 46, "duration": 10, "velocity": 75}, {"time": 137040, "pitch": 54, "duration": 10, "velocity": 44}, {"time": 137040, "pitch": 61, "duration": 10, "velocity": 50}, {"time": 137040, "pitch": 70, "duration": 70, "velocity": 100}, {"time": 137160, "pitch": 38, "duration": 10, "velocity": 40}, {"time": 137160, "pitch": 54, "duration": 10, "velocity": 37}, {"time": 137160, "pitch": 63, "duration": 10, "velocity": 61}, {"time": 137160, "pitch": 70, "duration": 70, "velocity": 50}, {"time": 137280, "pitch": 35, "duration": 10, "velocity": 87}, {"time": 137280, "pitch": 39, "duration": 10, "velocity": 85}, {"time": 137280, "pitch": 40, "duration": 10, "velocity": 85}, {"time": 137280, "pitch": 42, "duration": 10, "velocity": 84}, {"time": 137280, "pitch": 54, "duration": 10, "velocity": 49}, {"time": 137280, "pitch": 62, "duration": 10, "velocity": 80}, {"time": 137400, "pitch": 54, "duration": 10, "velocity": 39}, {"time": 137520, "pitch": 46, "duration": 10, "velocity": 75}, {"time": 137520, "pitch": 54, "duration": 10, "velocity": 44}, {"time": 137520, "pitch": 64, "duration": 10, "velocity": 70}, {"time": 137520, "pitch": 70, "duration": 70, "velocity": 100}, {"time": 137640, "pitch": 38, "duration": 10, "velocity": 40}, {"time": 137640, "pitch": 54, "duration": 10, "velocity": 37}, {"time": 137640, "pitch": 63, "duration": 10, "velocity": 60}, {"time": 137760, "pitch": 35, "duration": 10, "velocity": 89}, {"time": 137760, "pitch": 42, "duration": 10, "velocity": 84}, {"time": 137760, "pitch": 54, "duration": 10, "velocity": 86}, {"time": 137880, "pitch": 38, "duration": 10, "velocity": 40}, {"time": 137880, "pitch": 42, "duration": 10, "velocity": 78}, {"time": 137880, "pitch": 54, "duration": 10, "velocity": 39}, {"time": 137880, "pitch": 63, "duration": 10, "velocity": 60}, {"time": 138000, "pitch": 46, "duration": 10, "velocity": 75}, {"time": 138000, "pitch": 54, "duration": 10, "velocity": 44}, {"time": 138000, "pitch": 60, "duration": 10, "velocity": 50}, {"time": 138000, "pitch": 70, "duration": 70, "velocity": 100}, {"time": 138120, "pitch": 54, "duration": 10, "velocity": 37}, {"time": 138240, "pitch": 35, "duration": 10, "velocity": 82}, {"time": 138240, "pitch": 39, "duration": 10, "velocity": 85}, {"time": 138240, "pitch": 40, "duration": 10, "velocity": 89}, {"time": 138240, "pitch": 42, "duration": 10, "velocity": 84}, {"time": 138240, "pitch": 54, "duration": 10, "velocity": 49}, {"time": 138240, "pitch": 61, "duration": 10, "velocity": 80}, {"time": 138360, "pitch": 54, "duration": 10, "velocity": 39}, {"time": 138480, "pitch": 46, "duration": 10, "velocity": 75}, {"time": 138480, "pitch": 54, "duration": 10, "velocity": 44}, {"time": 138480, "pitch": 64, "duration": 10, "velocity": 55}, {"time": 138480, "pitch": 70, "duration": 70, "velocity": 100}, {"time": 138600, "pitch": 38, "duration": 10, "velocity": 40}, {"time": 138600, "pitch": 54, "duration": 10, "velocity": 37}, {"time": 138600, "pitch": 64, "duration": 10, "velocity": 50}, {"time": 138600, "pitch": 70, "duration": 70, "velocity": 50}, {"time": 138720, "pitch": 35, "duration": 10, "velocity": 90}, {"time": 138720, "pitch": 42, "duration": 10, "velocity": 84}, {"time": 138720, "pitch": 54, "duration": 10, "velocity": 86}, {"time": 138720, "pitch": 61, "duration": 10, "velocity": 55}, {"time": 138840, "pitch": 54, "duration": 10, "velocity": 39}, {"time": 138960, "pitch": 38, "duration": 10, "velocity": 40}, {"time": 138960, "pitch": 46, "duration": 10, "velocity": 75}, {"time": 138960, "pitch": 54, "duration": 10, "velocity": 44}, {"time": 138960, "pitch": 63, "duration": 10, "velocity": 50}, {"time": 138960, "pitch": 70, "duration": 70, "velocity": 100}, {"time": 139080, "pitch": 38, "duration": 10, "velocity": 40}, {"time": 139080, "pitch": 54, "duration": 10, "velocity": 37}, {"time": 139080, "pitch": 63, "duration": 10, "velocity": 53}, {"time": 139080, "pitch": 70, "duration": 70, "velocity": 50}, {"time": 139200, "pitch": 35, "duration": 10, "velocity": 87}, {"time": 139200, "pitch": 39, "duration": 10, "velocity": 85}, {"time": 139200, "pitch": 40, "duration": 10, "velocity": 85}, {"time": 139200, "pitch": 42, "duration": 10, "velocity": 84}, {"time": 139200, "pitch": 54, "duration": 10, "velocity": 49}, {"time": 139200, "pitch": 62, "duration": 10, "velocity": 80}, {"time": 139320, "pitch": 54, "duration": 10, "velocity": 39}, {"time": 139440, "pitch": 46, "duration": 10, "velocity": 75}, {"time": 139440, "pitch": 54, "duration": 10, "velocity": 44}, {"time": 139440, "pitch": 64, "duration": 10, "velocity": 70}, {"time": 139440, "pitch": 70, "duration": 70, "velocity": 100}, {"time": 139560, "pitch": 38, "duration": 10, "velocity": 40}, {"time": 139560, "pitch": 54, "duration": 10, "velocity": 37}, {"time": 139560, "pitch": 63, "duration": 10, "velocity": 60}, {"time": 139680, "pitch": 35, "duration": 10, "velocity": 89}, {"time": 139680, "pitch": 42, "duration": 10, "velocity": 84}, {"time": 139680, "pitch": 54, "duration": 10, "velocity": 86}, {"time": 139800, "pitch": 38, "duration": 10, "velocity": 40}, {"time": 139800, "pitch": 42, "duration": 10, "velocity": 78}, {"time": 139800, "pitch": 54, "duration": 10, "velocity": 39}, {"time": 139800, "pitch": 62, "duration": 10, "velocity": 60}, {"time": 139920, "pitch": 46, "duration": 10, "velocity": 75}, {"time": 139920, "pitch": 54, "duration": 10, "velocity": 44}, {"time": 139920, "pitch": 60, "duration": 10, "velocity": 60}, {"time": 139920, "pitch": 70, "duration": 70, "velocity": 100}, {"time": 140040, "pitch": 54, "duration": 10, "velocity": 37}, {"time": 140160, "pitch": 35, "duration": 10, "velocity": 82}, {"time": 140160, "pitch": 39, "duration": 10, "velocity": 85}, {"time": 140160, "pitch": 40, "duration": 10, "velocity": 89}, {"time": 140160, "pitch": 42, "duration": 10, "velocity": 84}, {"time": 140160, "pitch": 54, "duration": 10, "velocity": 49}, {"time": 140160, "pitch": 64, "duration": 10, "velocity": 60}, {"time": 140280, "pitch": 54, "duration": 10, "velocity": 39}, {"time": 140400, "pitch": 46, "duration": 10, "velocity": 75}, {"time": 140400, "pitch": 54, "duration": 10, "velocity": 44}, {"time": 140400, "pitch": 61, "duration": 10, "velocity": 55}, {"time": 140400, "pitch": 70, "duration": 70, "velocity": 100}, {"time": 140520, "pitch": 38, "duration": 10, "velocity": 40}, {"time": 140520, "pitch": 54, "duration": 10, "velocity": 37}, {"time": 140520, "pitch": 61, "duration": 10, "velocity": 50}, {"time": 140520, "pitch": 70, "duration": 70, "velocity": 50}, {"time": 140640, "pitch": 35, "duration": 10, "velocity": 90}, {"time": 140640, "pitch": 42, "duration": 10, "velocity": 84}, {"time": 140640, "pitch": 54, "duration": 10, "velocity": 86}, {"time": 140640, "pitch": 63, "duration": 10, "velocity": 55}, {"time": 140760, "pitch": 54, "duration": 10, "velocity": 39}, {"time": 140880, "pitch": 38, "duration": 10, "velocity": 40}, {"time": 140880, "pitch": 46, "duration": 10, "velocity": 75}, {"time": 140880, "pitch": 54, "duration": 10, "velocity": 44}, {"time": 140880, "pitch": 61, "duration": 10, "velocity": 50}, {"time": 140880, "pitch": 70, "duration": 70, "velocity": 100}, {"time": 141000, "pitch": 38, "duration": 10, "velocity": 40}, {"time": 141000, "pitch": 54, "duration": 10, "velocity": 37}, {"time": 141000, "pitch": 63, "duration": 10, "velocity": 61}, {"time": 141000, "pitch": 70, "duration": 70, "velocity": 50}, {"time": 141120, "pitch": 35, "duration": 10, "velocity": 87}, {"time": 141120, "pitch": 39, "duration": 10, "velocity": 85}, {"time": 141120, "pitch": 40, "duration": 10, "velocity": 85}, {"time": 141120, "pitch": 42, "duration": 10, "velocity": 84}, {"time": 141120, "pitch": 54, "duration": 10, "velocity": 49}, {"time": 141120, "pitch": 62, "duration": 10, "velocity": 80}, {"time": 141240, "pitch": 54, "duration": 10, "velocity": 39}, {"time": 141360, "pitch": 46, "duration": 10, "velocity": 75}, {"time": 141360, "pitch": 54, "duration": 10, "velocity": 44}, {"time": 141360, "pitch": 64, "duration": 10, "velocity": 70}, {"time": 141360, "pitch": 70, "duration": 70, "velocity": 100}, {"time": 141480, "pitch": 38, "duration": 10, "velocity": 40}, {"time": 141480, "pitch": 54, "duration": 10, "velocity": 37}, {"time": 141480, "pitch": 63, "duration": 10, "velocity": 60}, {"time": 141600, "pitch": 35, "duration": 10, "velocity": 89}, {"time": 141600, "pitch": 42, "duration": 10, "velocity": 84}, {"time": 141600, "pitch": 54, "duration": 10, "velocity": 86}, {"time": 141720, "pitch": 38, "duration": 10, "velocity": 40}, {"time": 141720, "pitch": 42, "duration": 10, "velocity": 78}, {"time": 141720, "pitch": 54, "duration": 10, "velocity": 39}, {"time": 141720, "pitch": 63, "duration": 10, "velocity": 60}, {"time": 141840, "pitch": 46, "duration": 10, "velocity": 75}, {"time": 141840, "pitch": 54, "duration": 10, "velocity": 44}, {"time": 141840, "pitch": 60, "duration": 10, "velocity": 50}, {"time": 141840, "pitch": 70, "duration": 70, "velocity": 100}, {"time": 141960, "pitch": 54, "duration": 10, "velocity": 37}, {"time": 142080, "pitch": 35, "duration": 10, "velocity": 82}, {"time": 142080, "pitch": 39, "duration": 10, "velocity": 85}, {"time": 142080, "pitch": 40, "duration": 10, "velocity": 89}, {"time": 142080, "pitch": 42, "duration": 10, "velocity": 84}, {"time": 142080, "pitch": 54, "duration": 10, "velocity": 49}, {"time": 142080, "pitch": 61, "duration": 10, "velocity": 80}, {"time": 142200, "pitch": 54, "duration": 10, "velocity": 39}, {"time": 142320, "pitch": 46, "duration": 10, "velocity": 75}, {"time": 142320, "pitch": 54, "duration": 10, "velocity": 44}, {"time": 142320, "pitch": 64, "duration": 10, "velocity": 55}, {"time": 142320, "pitch": 70, "duration": 70, "velocity": 100}, {"time": 142440, "pitch": 38, "duration": 10, "velocity": 40}, {"time": 142440, "pitch": 54, "duration": 10, "velocity": 37}, {"time": 142440, "pitch": 64, "duration": 10, "velocity": 50}, {"time": 142440, "pitch": 70, "duration": 70, "velocity": 50}, {"time": 142560, "pitch": 35, "duration": 10, "velocity": 90}, {"time": 142560, "pitch": 42, "duration": 10, "velocity": 84}, {"time": 142560, "pitch": 49, "duration": 10, "velocity": 60}, {"time": 142560, "pitch": 54, "duration": 10, "velocity": 86}, {"time": 142560, "pitch": 61, "duration": 10, "velocity": 55}, {"time": 142680, "pitch": 54, "duration": 10, "velocity": 39}, {"time": 142800, "pitch": 38, "duration": 10, "velocity": 40}, {"time": 142800, "pitch": 46, "duration": 10, "velocity": 75}, {"time": 142800, "pitch": 54, "duration": 10, "velocity": 44}, {"time": 142800, "pitch": 63, "duration": 10, "velocity": 50}, {"time": 142800, "pitch": 70, "duration": 70, "velocity": 100}, {"time": 142920, "pitch": 38, "duration": 10, "velocity": 40}, {"time": 142920, "pitch": 54, "duration": 10, "velocity": 37}, {"time": 142920, "pitch": 63, "duration": 10, "velocity": 53}, {"time": 142920, "pitch": 70, "duration": 70, "velocity": 50}, {"time": 143040, "pitch": 35, "duration": 10, "velocity": 87}, {"time": 143040, "pitch": 39, "duration": 10, "velocity": 85}, {"time": 143040, "pitch": 40, "duration": 10, "velocity": 85}, {"time": 143040, "pitch": 42, "duration": 10, "velocity": 84}, {"time": 143040, "pitch": 54, "duration": 10, "velocity": 49}, {"time": 143040, "pitch": 62, "duration": 10, "velocity": 80}, {"time": 143160, "pitch": 54, "duration": 10, "velocity": 39}, {"time": 143280, "pitch": 46, "duration": 10, "velocity": 75}, {"time": 143280, "pitch": 54, "duration": 10, "velocity": 44}, {"time": 143280, "pitch": 64, "duration": 10, "velocity": 70}, {"time": 143280, "pitch": 70, "duration": 70, "velocity": 100}, {"time": 143400, "pitch": 38, "duration": 10, "velocity": 40}, {"time": 143400, "pitch": 54, "duration": 10, "velocity": 37}, {"time": 143400, "pitch": 63, "duration": 10, "velocity": 60}, {"time": 143520, "pitch": 35, "duration": 10, "velocity": 89}, {"time": 143520, "pitch": 42, "duration": 10, "velocity": 84}, {"time": 143520, "pitch": 54, "duration": 10, "velocity": 86}, {"time": 143640, "pitch": 38, "duration": 10, "velocity": 40}, {"time": 143640, "pitch": 42, "duration": 10, "velocity": 78}, {"time": 143640, "pitch": 54, "duration": 10, "velocity": 39}, {"time": 143640, "pitch": 62, "duration": 10, "velocity": 60}, {"time": 143760, "pitch": 46, "duration": 10, "velocity": 75}, {"time": 143760, "pitch": 54, "duration": 10, "velocity": 44}, {"time": 143760, "pitch": 60, "duration": 10, "velocity": 60}, {"time": 143760, "pitch": 70, "duration": 70, "velocity": 100}, {"time": 143880, "pitch": 54, "duration": 10, "velocity": 37}, {"time": 144000, "pitch": 35, "duration": 10, "velocity": 82}, {"time": 144000, "pitch": 39, "duration": 10, "velocity": 85}, {"time": 144000, "pitch": 40, "duration": 10, "velocity": 89}, {"time": 144000, "pitch": 42, "duration": 10, "velocity": 84}, {"time": 144000, "pitch": 54, "duration": 10, "velocity": 49}, {"time": 144000, "pitch": 64, "duration": 10, "velocity": 60}, {"time": 144120, "pitch": 54, "duration": 10, "velocity": 39}, {"time": 144240, "pitch": 46, "duration": 10, "velocity": 75}, {"time": 144240, "pitch": 54, "duration": 10, "velocity": 44}, {"time": 144240, "pitch": 61, "duration": 10, "velocity": 55}, {"time": 144240, "pitch": 70, "duration": 70, "velocity": 100}, {"time": 144360, "pitch": 38, "duration": 10, "velocity": 40}, {"time": 144360, "pitch": 54, "duration": 10, "velocity": 37}, {"time": 144360, "pitch": 61, "duration": 10, "velocity": 50}, {"time": 144360, "pitch": 70, "duration": 70, "velocity": 50}, {"time": 144480, "pitch": 35, "duration": 10, "velocity": 90}, {"time": 144480, "pitch": 42, "duration": 10, "velocity": 84}, {"time": 144480, "pitch": 54, "duration": 10, "velocity": 86}, {"time": 144480, "pitch": 63, "duration": 10, "velocity": 55}, {"time": 144600, "pitch": 54, "duration": 10, "velocity": 39}, {"time": 144720, "pitch": 38, "duration": 10, "velocity": 40}, {"time": 144720, "pitch": 46, "duration": 10, "velocity": 75}, {"time": 144720, "pitch": 54, "duration": 10, "velocity": 44}, {"time": 144720, "pitch": 61, "duration": 10, "velocity": 50}, {"time": 144720, "pitch": 70, "duration": 70, "velocity": 100}, {"time": 144840, "pitch": 38, "duration": 10, "velocity": 40}, {"time": 144840, "pitch": 54, "duration": 10, "velocity": 37}, {"time": 144840, "pitch": 63, "duration": 10, "velocity": 61}, {"time": 144840, "pitch": 70, "duration": 70, "velocity": 50}, {"time": 144960, "pitch": 35, "duration": 10, "velocity": 87}, {"time": 144960, "pitch": 39, "duration": 10, "velocity": 85}, {"time": 144960, "pitch": 40, "duration": 10, "velocity": 85}, {"time": 144960, "pitch": 42, "duration": 10, "velocity": 84}, {"time": 144960, "pitch": 54, "duration": 10, "velocity": 49}, {"time": 144960, "pitch": 62, "duration": 10, "velocity": 80}, {"time": 145080, "pitch": 54, "duration": 10, "velocity": 39}, {"time": 145200, "pitch": 46, "duration": 10, "velocity": 75}, {"time": 145200, "pitch": 54, "duration": 10, "velocity": 44}, {"time": 145200, "pitch": 64, "duration": 10, "velocity": 70}, {"time": 145200, "pitch": 70, "duration": 70, "velocity": 100}, {"time": 145320, "pitch": 38, "duration": 10, "velocity": 40}, {"time": 145320, "pitch": 54, "duration": 10, "velocity": 37}, {"time": 145320, "pitch": 63, "duration": 10, "velocity": 60}, {"time": 145440, "pitch": 35, "duration": 10, "velocity": 89}, {"time": 145440, "pitch": 42, "duration": 10, "velocity": 84}, {"time": 145440, "pitch": 54, "duration": 10, "velocity": 86}, {"time": 145560, "pitch": 38, "duration": 10, "velocity": 40}, {"time": 145560, "pitch": 42, "duration": 10, "velocity": 78}, {"time": 145560, "pitch": 54, "duration": 10, "velocity": 39}, {"time": 145560, "pitch": 63, "duration": 10, "velocity": 60}, {"time": 145680, "pitch": 46, "duration": 10, "velocity": 75}, {"time": 145680, "pitch": 54, "duration": 10, "velocity": 44}, {"time": 145680, "pitch": 60, "duration": 10, "velocity": 50}, {"time": 145680, "pitch": 70, "duration": 70, "velocity": 100}, {"time": 145800, "pitch": 54, "duration": 10, "velocity": 37}, {"time": 145920, "pitch": 35, "duration": 10, "velocity": 82}, {"time": 145920, "pitch": 39, "duration": 10, "velocity": 85}, {"time": 145920, "pitch": 40, "duration": 10, "velocity": 89}, {"time": 145920, "pitch": 42, "duration": 10, "velocity": 84}, {"time": 145920, "pitch": 54, "duration": 10, "velocity": 49}, {"time": 145920, "pitch": 61, "duration": 10, "velocity": 80}, {"time": 146040, "pitch": 54, "duration": 10, "velocity": 39}, {"time": 146160, "pitch": 46, "duration": 10, "velocity": 75}, {"time": 146160, "pitch": 54, "duration": 10, "velocity": 44}, {"time": 146160, "pitch": 64, "duration": 10, "velocity": 55}, {"time": 146160, "pitch": 70, "duration": 70, "velocity": 100}, {"time": 146280, "pitch": 38, "duration": 10, "velocity": 40}, {"time": 146280, "pitch": 54, "duration": 10, "velocity": 37}, {"time": 146280, "pitch": 64, "duration": 10, "velocity": 50}, {"time": 146280, "pitch": 70, "duration": 70, "velocity": 50}, {"time": 146400, "pitch": 35, "duration": 10, "velocity": 90}, {"time": 146400, "pitch": 42, "duration": 10, "velocity": 84}, {"time": 146400, "pitch": 54, "duration": 10, "velocity": 86}, {"time": 146400, "pitch": 61, "duration": 10, "velocity": 55}, {"time": 146520, "pitch": 54, "duration": 10, "velocity": 39}, {"time": 146640, "pitch": 38, "duration": 10, "velocity": 40}, {"time": 146640, "pitch": 46, "duration": 10, "velocity": 75}, {"time": 146640, "pitch": 54, "duration": 10, "velocity": 44}, {"time": 146640, "pitch": 63, "duration": 10, "velocity": 50}, {"time": 146640, "pitch": 70, "duration": 70, "velocity": 100}, {"time": 146760, "pitch": 38, "duration": 10, "velocity": 40}, {"time": 146760, "pitch": 54, "duration": 10, "velocity": 37}, {"time": 146760, "pitch": 63, "duration": 10, "velocity": 53}, {"time": 146760, "pitch": 70, "duration": 70, "velocity": 50}, {"time": 146880, "pitch": 35, "duration": 10, "velocity": 87}, {"time": 146880, "pitch": 39, "duration": 10, "velocity": 85}, {"time": 146880, "pitch": 40, "duration": 10, "velocity": 85}, {"time": 146880, "pitch": 42, "duration": 10, "velocity": 84}, {"time": 146880, "pitch": 54, "duration": 10, "velocity": 49}, {"time": 146880, "pitch": 62, "duration": 10, "velocity": 80}, {"time": 147000, "pitch": 54, "duration": 10, "velocity": 39}, {"time": 147120, "pitch": 46, "duration": 10, "velocity": 75}, {"time": 147120, "pitch": 54, "duration": 10, "velocity": 44}, {"time": 147120, "pitch": 64, "duration": 10, "velocity": 70}, {"time": 147120, "pitch": 70, "duration": 70, "velocity": 100}, {"time": 147240, "pitch": 38, "duration": 10, "velocity": 40}, {"time": 147240, "pitch": 54, "duration": 10, "velocity": 37}, {"time": 147240, "pitch": 63, "duration": 10, "velocity": 60}, {"time": 147360, "pitch": 35, "duration": 10, "velocity": 89}, {"time": 147360, "pitch": 42, "duration": 10, "velocity": 84}, {"time": 147360, "pitch": 54, "duration": 10, "velocity": 86}, {"time": 147480, "pitch": 38, "duration": 10, "velocity": 40}, {"time": 147480, "pitch": 42, "duration": 10, "velocity": 78}, {"time": 147480, "pitch": 54, "duration": 10, "velocity": 39}, {"time": 147480, "pitch": 62, "duration": 10, "velocity": 60}, {"time": 147600, "pitch": 46, "duration": 10, "velocity": 75}, {"time": 147600, "pitch": 54, "duration": 10, "velocity": 44}, {"time": 147600, "pitch": 60, "duration": 10, "velocity": 60}, {"time": 147600, "pitch": 70, "duration": 70, "velocity": 100}, {"time": 147720, "pitch": 54, "duration": 10, "velocity": 37}, {"time": 147840, "pitch": 35, "duration": 10, "velocity": 82}, {"time": 147840, "pitch": 39, "duration": 10, "velocity": 85}, {"time": 147840, "pitch": 40, "duration": 10, "velocity": 89}, {"time": 147840, "pitch": 42, "duration": 10, "velocity": 84}, {"time": 147840, "pitch": 54, "duration": 10, "velocity": 49}, {"time": 147840, "pitch": 64, "duration": 10, "velocity": 60}, {"time": 147960, "pitch": 54, "duration": 10, "velocity": 39}, {"time": 148080, "pitch": 46, "duration": 10, "velocity": 75}, {"time": 148080, "pitch": 54, "duration": 10, "velocity": 44}, {"time": 148080, "pitch": 61, "duration": 10, "velocity": 55}, {"time": 148080, "pitch": 70, "duration": 70, "velocity": 100}, {"time": 148200, "pitch": 38, "duration": 10, "velocity": 40}, {"time": 148200, "pitch": 54, "duration": 10, "velocity": 37}, {"time": 148200, "pitch": 61, "duration": 10, "velocity": 50}, {"time": 148200, "pitch": 70, "duration": 70, "velocity": 50}, {"time": 148320, "pitch": 35, "duration": 10, "velocity": 90}, {"time": 148320, "pitch": 42, "duration": 10, "velocity": 84}, {"time": 148320, "pitch": 54, "duration": 10, "velocity": 86}, {"time": 148320, "pitch": 63, "duration": 10, "velocity": 55}, {"time": 148440, "pitch": 54, "duration": 10, "velocity": 39}, {"time": 148560, "pitch": 38, "duration": 10, "velocity": 40}, {"time": 148560, "pitch": 46, "duration": 10, "velocity": 75}, {"time": 148560, "pitch": 54, "duration": 10, "velocity": 44}, {"time": 148560, "pitch": 61, "duration": 10, "velocity": 50}, {"time": 148560, "pitch": 70, "duration": 70, "velocity": 100}, {"time": 148680, "pitch": 38, "duration": 10, "velocity": 40}, {"time": 148680, "pitch": 54, "duration": 10, "velocity": 37}, {"time": 148680, "pitch": 63, "duration": 10, "velocity": 61}, {"time": 148680, "pitch": 70, "duration": 70, "velocity": 50}, {"time": 148800, "pitch": 35, "duration": 10, "velocity": 87}, {"time": 148800, "pitch": 39, "duration": 10, "velocity": 85}, {"time": 148800, "pitch": 40, "duration": 10, "velocity": 85}, {"time": 148800, "pitch": 42, "duration": 10, "velocity": 84}, {"time": 148800, "pitch": 54, "duration": 10, "velocity": 49}, {"time": 148800, "pitch": 62, "duration": 10, "velocity": 80}, {"time": 148920, "pitch": 54, "duration": 10, "velocity": 39}, {"time": 149040, "pitch": 46, "duration": 10, "velocity": 75}, {"time": 149040, "pitch": 54, "duration": 10, "velocity": 44}, {"time": 149040, "pitch": 64, "duration": 10, "velocity": 70}, {"time": 149040, "pitch": 70, "duration": 70, "velocity": 100}, {"time": 149160, "pitch": 38, "duration": 10, "velocity": 40}, {"time": 149160, "pitch": 54, "duration": 10, "velocity": 37}, {"time": 149160, "pitch": 63, "duration": 10, "velocity": 60}, {"time": 149280, "pitch": 35, "duration": 10, "velocity": 89}, {"time": 149280, "pitch": 42, "duration": 10, "velocity": 84}, {"time": 149280, "pitch": 54, "duration": 10, "velocity": 86}, {"time": 149400, "pitch": 38, "duration": 10, "velocity": 40}, {"time": 149400, "pitch": 42, "duration": 10, "velocity": 78}, {"time": 149400, "pitch": 54, "duration": 10, "velocity": 39}, {"time": 149400, "pitch": 63, "duration": 10, "velocity": 60}, {"time": 149520, "pitch": 46, "duration": 10, "velocity": 75}, {"time": 149520, "pitch": 54, "duration": 10, "velocity": 44}, {"time": 149520, "pitch": 60, "duration": 10, "velocity": 50}, {"time": 149520, "pitch": 70, "duration": 70, "velocity": 100}, {"time": 149640, "pitch": 54, "duration": 10, "velocity": 37}, {"time": 149760, "pitch": 35, "duration": 10, "velocity": 82}, {"time": 149760, "pitch": 39, "duration": 10, "velocity": 85}, {"time": 149760, "pitch": 40, "duration": 10, "velocity": 89}, {"time": 149760, "pitch": 42, "duration": 10, "velocity": 84}, {"time": 149760, "pitch": 54, "duration": 10, "velocity": 49}, {"time": 149760, "pitch": 61, "duration": 10, "velocity": 80}, {"time": 149880, "pitch": 54, "duration": 10, "velocity": 39}, {"time": 150000, "pitch": 46, "duration": 10, "velocity": 75}, {"time": 150000, "pitch": 54, "duration": 10, "velocity": 44}, {"time": 150000, "pitch": 64, "duration": 10, "velocity": 55}, {"time": 150000, "pitch": 70, "duration": 70, "velocity": 100}, {"time": 150120, "pitch": 38, "duration": 10, "velocity": 40}, {"time": 150120, "pitch": 54, "duration": 10, "velocity": 37}, {"time": 150120, "pitch": 64, "duration": 10, "velocity": 50}, {"time": 150120, "pitch": 70, "duration": 70, "velocity": 50}, {"time": 150240, "pitch": 42, "duration": 10, "velocity": 84}, {"time": 150240, "pitch": 49, "duration": 10, "velocity": 60}, {"time": 150240, "pitch": 54, "duration": 10, "velocity": 86}, {"time": 150240, "pitch": 61, "duration": 10, "velocity": 55}, {"time": 150360, "pitch": 54, "duration": 10, "velocity": 39}, {"time": 150480, "pitch": 38, "duration": 10, "velocity": 40}, {"time": 150480, "pitch": 46, "duration": 10, "velocity": 75}, {"time": 150480, "pitch": 54, "duration": 10, "velocity": 44}, {"time": 150480, "pitch": 63, "duration": 10, "velocity": 50}, {"time": 150600, "pitch": 38, "duration": 10, "velocity": 40}, {"time": 150600, "pitch": 54, "duration": 10, "velocity": 37}, {"time": 150600, "pitch": 63, "duration": 10, "velocity": 53}, {"time": 150720, "pitch": 39, "duration": 10, "velocity": 85}, {"time": 150720, "pitch": 42, "duration": 10, "velocity": 84}, {"time": 150720, "pitch": 54, "duration": 10, "velocity": 49}, {"time": 150720, "pitch": 62, "duration": 10, "velocity": 80}, {"time": 150840, "pitch": 54, "duration": 10, "velocity": 39}, {"time": 150960, "pitch": 46, "duration": 10, "velocity": 75}, {"time": 150960, "pitch": 54, "duration": 10, "velocity": 44}, {"time": 150960, "pitch": 64, "duration": 10, "velocity": 70}, {"time": 151080, "pitch": 38, "duration": 10, "velocity": 40}, {"time": 151080, "pitch": 54, "duration": 10, "velocity": 37}, {"time": 151080, "pitch": 63, "duration": 10, "velocity": 60}, {"time": 151200, "pitch": 42, "duration": 10, "velocity": 84}, {"time": 151200, "pitch": 54, "duration": 10, "velocity": 86}, {"time": 151320, "pitch": 38, "duration": 10, "velocity": 40}, {"time": 151320, "pitch": 42, "duration": 10, "velocity": 78}, {"time": 151320, "pitch": 54, "duration": 10, "velocity": 39}, {"time": 151320, "pitch": 62, "duration": 10, "velocity": 60}, {"time": 151440, "pitch": 46, "duration": 10, "velocity": 75}, {"time": 151440, "pitch": 54, "duration": 10, "velocity": 44}, {"time": 151440, "pitch": 60, "duration": 10, "velocity": 60}, {"time": 151560, "pitch": 54, "duration": 10, "velocity": 37}, {"time": 151680, "pitch": 39, "duration": 10, "velocity": 85}, {"time": 151680, "pitch": 42, "duration": 10, "velocity": 84}, {"time": 151680, "pitch": 54, "duration": 10, "velocity": 49}, {"time": 151680, "pitch": 64, "duration": 10, "velocity": 60}, {"time": 151800, "pitch": 54, "duration": 10, "velocity": 39}, {"time": 151920, "pitch": 46, "duration": 10, "velocity": 75}, {"time": 151920, "pitch": 54, "duration": 10, "velocity": 44}, {"time": 151920, "pitch": 61, "duration": 10, "velocity": 55}, {"time": 152040, "pitch": 38, "duration": 10, "velocity": 40}, {"time": 152040, "pitch": 54, "duration": 10, "velocity": 37}, {"time": 152040, "pitch": 61, "duration": 10, "velocity": 50}, {"time": 152160, "pitch": 42, "duration": 10, "velocity": 84}, {"time": 152160, "pitch": 54, "duration": 10, "velocity": 86}, {"time": 152160, "pitch": 61, "duration": 10, "velocity": 55}, {"time": 152280, "pitch": 54, "duration": 10, "velocity": 39}, {"time": 152400, "pitch": 38, "duration": 10, "velocity": 40}, {"time": 152400, "pitch": 46, "duration": 10, "velocity": 75}, {"time": 152400, "pitch": 54, "duration": 10, "velocity": 44}, {"time": 152400, "pitch": 63, "duration": 10, "velocity": 50}, {"time": 152520, "pitch": 38, "duration": 10, "velocity": 40}, {"time": 152520, "pitch": 54, "duration": 10, "velocity": 37}, {"time": 152520, "pitch": 63, "duration": 10, "velocity": 53}, {"time": 152640, "pitch": 39, "duration": 10, "velocity": 85}, {"time": 152640, "pitch": 42, "duration": 10, "velocity": 84}, {"time": 152640, "pitch": 54, "duration": 10, "velocity": 49}, {"time": 152640, "pitch": 62, "duration": 10, "velocity": 80}, {"time": 152760, "pitch": 54, "duration": 10, "velocity": 39}, {"time": 152880, "pitch": 46, "duration": 10, "velocity": 75}, {"time": 152880, "pitch": 54, "duration": 10, "velocity": 44}, {"time": 152880, "pitch": 64, "duration": 10, "velocity": 70}, {"time": 153000, "pitch": 38, "duration": 10, "velocity": 40}, {"time": 153000, "pitch": 54, "duration": 10, "velocity": 37}, {"time": 153000, "pitch": 63, "duration": 10, "velocity": 60}, {"time": 153120, "pitch": 42, "duration": 10, "velocity": 84}, {"time": 153120, "pitch": 54, "duration": 10, "velocity": 86}, {"time": 153240, "pitch": 38, "duration": 10, "velocity": 40}, {"time": 153240, "pitch": 42, "duration": 10, "velocity": 78}, {"time": 153240, "pitch": 54, "duration": 10, "velocity": 39}, {"time": 153240, "pitch": 62, "duration": 10, "velocity": 60}, {"time": 153360, "pitch": 46, "duration": 10, "velocity": 75}, {"time": 153360, "pitch": 54, "duration": 10, "velocity": 44}, {"time": 153360, "pitch": 60, "duration": 10, "velocity": 60}, {"time": 153480, "pitch": 54, "duration": 10, "velocity": 37}, {"time": 153600, "pitch": 39, "duration": 10, "velocity": 85}, {"time": 153600, "pitch": 42, "duration": 10, "velocity": 84}, {"time": 153600, "pitch": 54, "duration": 10, "velocity": 49}, {"time": 153600, "pitch": 64, "duration": 10, "velocity": 60}, {"time": 153720, "pitch": 54, "duration": 10, "velocity": 39}, {"time": 153840, "pitch": 46, "duration": 10, "velocity": 75}, {"time": 153840, "pitch": 54, "duration": 10, "velocity": 44}, {"time": 153840, "pitch": 61, "duration": 10, "velocity": 55}, {"time": 153960, "pitch": 38, "duration": 10, "velocity": 40}, {"time": 153960, "pitch": 54, "duration": 10, "velocity": 37}, {"time": 153960, "pitch": 61, "duration": 10, "velocity": 50}, {"time": 154080, "pitch": 42, "duration": 10, "velocity": 84}, {"time": 154080, "pitch": 54, "duration": 10, "velocity": 86}, {"time": 154080, "pitch": 61, "duration": 10, "velocity": 55}, {"time": 154200, "pitch": 54, "duration": 10, "velocity": 39}, {"time": 154320, "pitch": 38, "duration": 10, "velocity": 40}, {"time": 154320, "pitch": 46, "duration": 10, "velocity": 75}, {"time": 154320, "pitch": 54, "duration": 10, "velocity": 44}, {"time": 154320, "pitch": 63, "duration": 10, "velocity": 50}, {"time": 154440, "pitch": 38, "duration": 10, "velocity": 40}, {"time": 154440, "pitch": 54, "duration": 10, "velocity": 37}, {"time": 154440, "pitch": 63, "duration": 10, "velocity": 53}, {"time": 154560, "pitch": 39, "duration": 10, "velocity": 85}, {"time": 154560, "pitch": 42, "duration": 10, "velocity": 84}, {"time": 154560, "pitch": 54, "duration": 10, "velocity": 49}, {"time": 154560, "pitch": 62, "duration": 10, "velocity": 80}, {"time": 154680, "pitch": 54, "duration": 10, "velocity": 39}, {"time": 154800, "pitch": 46, "duration": 10, "velocity": 75}, {"time": 154800, "pitch": 54, "duration": 10, "velocity": 44}, {"time": 154800, "pitch": 64, "duration": 10, "velocity": 70}, {"time": 154920, "pitch": 38, "duration": 10, "velocity": 40}, {"time": 154920, "pitch": 54, "duration": 10, "velocity": 37}, {"time": 154920, "pitch": 63, "duration": 10, "velocity": 60}, {"time": 155040, "pitch": 42, "duration": 10, "velocity": 84}, {"time": 155040, "pitch": 54, "duration": 10, "velocity": 86}, {"time": 155160, "pitch": 38, "duration": 10, "velocity": 40}, {"time": 155160, "pitch": 42, "duration": 10, "velocity": 78}, {"time": 155160, "pitch": 54, "duration": 10, "velocity": 39}, {"time": 155160, "pitch": 62, "duration": 10, "velocity": 60}, {"time": 155280, "pitch": 46, "duration": 10, "velocity": 75}, {"time": 155280, "pitch": 54, "duration": 10, "velocity": 44}, {"time": 155280, "pitch": 60, "duration": 10, "velocity": 60}, {"time": 155400, "pitch": 54, "duration": 10, "velocity": 37}, {"time": 155520, "pitch": 39, "duration": 10, "velocity": 85}, {"time": 155520, "pitch": 42, "duration": 10, "velocity": 84}, {"time": 155520, "pitch": 54, "duration": 10, "velocity": 49}, {"time": 155520, "pitch": 64, "duration": 10, "velocity": 60}, {"time": 155640, "pitch": 54, "duration": 10, "velocity": 39}, {"time": 155760, "pitch": 46, "duration": 10, "velocity": 75}, {"time": 155760, "pitch": 54, "duration": 10, "velocity": 44}, {"time": 155760, "pitch": 61, "duration": 10, "velocity": 55}, {"time": 155880, "pitch": 38, "duration": 10, "velocity": 40}, {"time": 155880, "pitch": 54, "duration": 10, "velocity": 37}, {"time": 155880, "pitch": 61, "duration": 10, "velocity": 50}, {"time": 156000, "pitch": 42, "duration": 10, "velocity": 84}, {"time": 156000, "pitch": 54, "duration": 10, "velocity": 86}, {"time": 156000, "pitch": 63, "duration": 10, "velocity": 55}, {"time": 156120, "pitch": 54, "duration": 10, "velocity": 39}, {"time": 156240, "pitch": 38, "duration": 10, "velocity": 40}, {"time": 156240, "pitch": 46, "duration": 10, "velocity": 75}, {"time": 156240, "pitch": 54, "duration": 10, "velocity": 44}, {"time": 156240, "pitch": 61, "duration": 10, "velocity": 50}, {"time": 156360, "pitch": 38, "duration": 10, "velocity": 40}, {"time": 156360, "pitch": 54, "duration": 10, "velocity": 37}, {"time": 156360, "pitch": 63, "duration": 10, "velocity": 61}, {"time": 156480, "pitch": 39, "duration": 10, "velocity": 85}, {"time": 156480, "pitch": 42, "duration": 10, "velocity": 84}, {"time": 156480, "pitch": 54, "duration": 10, "velocity": 49}, {"time": 156480, "pitch": 62, "duration": 10, "velocity": 80}, {"time": 156600, "pitch": 54, "duration": 10, "velocity": 39}, {"time": 156720, "pitch": 46, "duration": 10, "velocity": 75}, {"time": 156720, "pitch": 54, "duration": 10, "velocity": 44}, {"time": 156720, "pitch": 64, "duration": 10, "velocity": 70}, {"time": 156840, "pitch": 38, "duration": 10, "velocity": 40}, {"time": 156840, "pitch": 54, "duration": 10, "velocity": 37}, {"time": 156840, "pitch": 63, "duration": 10, "velocity": 60}, {"time": 156960, "pitch": 42, "duration": 10, "velocity": 84}, {"time": 156960, "pitch": 54, "duration": 10, "velocity": 86}, {"time": 157080, "pitch": 38, "duration": 10, "velocity": 40}, {"time": 157080, "pitch": 42, "duration": 10, "velocity": 78}, {"time": 157080, "pitch": 54, "duration": 10, "velocity": 39}, {"time": 157080, "pitch": 63, "duration": 10, "velocity": 60}, {"time": 157200, "pitch": 46, "duration": 10, "velocity": 75}, {"time": 157200, "pitch": 54, "duration": 10, "velocity": 44}, {"time": 157200, "pitch": 60, "duration": 10, "velocity": 50}, {"time": 157320, "pitch": 54, "duration": 10, "velocity": 37}, {"time": 157440, "pitch": 39, "duration": 10, "velocity": 85}, {"time": 157440, "pitch": 42, "duration": 10, "velocity": 84}, {"time": 157440, "pitch": 54, "duration": 10, "velocity": 49}, {"time": 157440, "pitch": 61, "duration": 10, "velocity": 80}, {"time": 157560, "pitch": 54, "duration": 10, "velocity": 39}, {"time": 157680, "pitch": 46, "duration": 10, "velocity": 75}, {"time": 157680, "pitch": 54, "duration": 10, "velocity": 44}, {"time": 157680, "pitch": 64, "duration": 10, "velocity": 55}, {"time": 157800, "pitch": 38, "duration": 10, "velocity": 40}, {"time": 157800, "pitch": 54, "duration": 10, "velocity": 37}, {"time": 157800, "pitch": 64, "duration": 10, "velocity": 50}, {"time": 157920, "pitch": 42, "duration": 10, "velocity": 84}, {"time": 157920, "pitch": 49, "duration": 10, "velocity": 60}, {"time": 157920, "pitch": 54, "duration": 10, "velocity": 86}, {"time": 157920, "pitch": 61, "duration": 10, "velocity": 55}, {"time": 158040, "pitch": 54, "duration": 10, "velocity": 39}, {"time": 158160, "pitch": 38, "duration": 10, "velocity": 40}, {"time": 158160, "pitch": 46, "duration": 10, "velocity": 75}, {"time": 158160, "pitch": 54, "duration": 10, "velocity": 44}, {"time": 158160, "pitch": 63, "duration": 10, "velocity": 50}, {"time": 158280, "pitch": 38, "duration": 10, "velocity": 40}, {"time": 158280, "pitch": 54, "duration": 10, "velocity": 37}, {"time": 158280, "pitch": 63, "duration": 10, "velocity": 53}, {"time": 158400, "pitch": 39, "duration": 10, "velocity": 85}, {"time": 158400, "pitch": 42, "duration": 10, "velocity": 84}, {"time": 158400, "pitch": 54, "duration": 10, "velocity": 49}, {"time": 158400, "pitch": 62, "duration": 10, "velocity": 80}, {"time": 158520, "pitch": 54, "duration": 10, "velocity": 39}, {"time": 158640, "pitch": 46, "duration": 10, "velocity": 75}, {"time": 158640, "pitch": 54, "duration": 10, "velocity": 44}, {"time": 158640, "pitch": 64, "duration": 10, "velocity": 70}, {"time": 158760, "pitch": 38, "duration": 10, "velocity": 40}, {"time": 158760, "pitch": 54, "duration": 10, "velocity": 37}, {"time": 158760, "pitch": 63, "duration": 10, "velocity": 60}, {"time": 158880, "pitch": 42, "duration": 10, "velocity": 84}, {"time": 158880, "pitch": 54, "duration": 10, "velocity": 86}, {"time": 159000, "pitch": 38, "duration": 10, "velocity": 40}, {"time": 159000, "pitch": 42, "duration": 10, "velocity": 78}, {"time": 159000, "pitch": 54, "duration": 10, "velocity": 39}, {"time": 159000, "pitch": 62, "duration": 10, "velocity": 60}, {"time": 159120, "pitch": 46, "duration": 10, "velocity": 75}, {"time": 159120, "pitch": 54, "duration": 10, "velocity": 44}, {"time": 159120, "pitch": 60, "duration": 10, "velocity": 60}, {"time": 159240, "pitch": 54, "duration": 10, "velocity": 37}, {"time": 159360, "pitch": 39, "duration": 10, "velocity": 85}, {"time": 159360, "pitch": 42, "duration": 10, "velocity": 84}, {"time": 159360, "pitch": 54, "duration": 10, "velocity": 49}, {"time": 159360, "pitch": 64, "duration": 10, "velocity": 60}, {"time": 159480, "pitch": 54, "duration": 10, "velocity": 39}, {"time": 159600, "pitch": 46, "duration": 10, "velocity": 75}, {"time": 159600, "pitch": 54, "duration": 10, "velocity": 44}, {"time": 159600, "pitch": 61, "duration": 10, "velocity": 55}, {"time": 159720, "pitch": 38, "duration": 10, "velocity": 40}, {"time": 159720, "pitch": 54, "duration": 10, "velocity": 37}, {"time": 159720, "pitch": 61, "duration": 10, "velocity": 50}, {"time": 159840, "pitch": 42, "duration": 10, "velocity": 84}, {"time": 159840, "pitch": 54, "duration": 10, "velocity": 86}, {"time": 159840, "pitch": 63, "duration": 10, "velocity": 55}, {"time": 159960, "pitch": 54, "duration": 10, "velocity": 39}, {"time": 160080, "pitch": 38, "duration": 10, "velocity": 40}, {"time": 160080, "pitch": 46, "duration": 10, "velocity": 75}, {"time": 160080, "pitch": 54, "duration": 10, "velocity": 44}, {"time": 160080, "pitch": 61, "duration": 10, "velocity": 50}, {"time": 160200, "pitch": 38, "duration": 10, "velocity": 40}, {"time": 160200, "pitch": 54, "duration": 10, "velocity": 37}, {"time": 160200, "pitch": 63, "duration": 10, "velocity": 61}, {"time": 160320, "pitch": 39, "duration": 10, "velocity": 85}, {"time": 160320, "pitch": 42, "duration": 10, "velocity": 84}, {"time": 160320, "pitch": 54, "duration": 10, "velocity": 49}, {"time": 160320, "pitch": 62, "duration": 10, "velocity": 80}, {"time": 160440, "pitch": 54, "duration": 10, "velocity": 39}, {"time": 160560, "pitch": 46, "duration": 10, "velocity": 75}, {"time": 160560, "pitch": 54, "duration": 10, "velocity": 44}, {"time": 160560, "pitch": 64, "duration": 10, "velocity": 70}, {"time": 160680, "pitch": 38, "duration": 10, "velocity": 40}, {"time": 160680, "pitch": 54, "duration": 10, "velocity": 37}, {"time": 160680, "pitch": 63, "duration": 10, "velocity": 60}, {"time": 160800, "pitch": 42, "duration": 10, "velocity": 84}, {"time": 160800, "pitch": 54, "duration": 10, "velocity": 86}, {"time": 160920, "pitch": 38, "duration": 10, "velocity": 40}, {"time": 160920, "pitch": 42, "duration": 10, "velocity": 78}, {"time": 160920, "pitch": 54, "duration": 10, "velocity": 39}, {"time": 160920, "pitch": 63, "duration": 10, "velocity": 60}, {"time": 161040, "pitch": 46, "duration": 10, "velocity": 75}, {"time": 161040, "pitch": 54, "duration": 10, "velocity": 44}, {"time": 161040, "pitch": 60, "duration": 10, "velocity": 50}, {"time": 161160, "pitch": 54, "duration": 10, "velocity": 37}, {"time": 161280, "pitch": 39, "duration": 10, "velocity": 85}, {"time": 161280, "pitch": 42, "duration": 10, "velocity": 84}, {"time": 161280, "pitch": 54, "duration": 10, "velocity": 49}, {"time": 161280, "pitch": 61, "duration": 10, "velocity": 80}, {"time": 161400, "pitch": 54, "duration": 10, "velocity": 39}, {"time": 161520, "pitch": 46, "duration": 10, "velocity": 75}, {"time": 161520, "pitch": 54, "duration": 10, "velocity": 44}, {"time": 161520, "pitch": 64, "duration": 10, "velocity": 55}, {"time": 161640, "pitch": 38, "duration": 10, "velocity": 40}, {"time": 161640, "pitch": 54, "duration": 10, "velocity": 37}, {"time": 161640, "pitch": 64, "duration": 10, "velocity": 50}, {"time": 161760, "pitch": 35, "duration": 10, "velocity": 90}, {"time": 161760, "pitch": 42, "duration": 10, "velocity": 84}, {"time": 161760, "pitch": 54, "duration": 10, "velocity": 86}, {"time": 161760, "pitch": 57, "duration": 10, "velocity": 60}, {"time": 161760, "pitch": 61, "duration": 10, "velocity": 55}, {"time": 161880, "pitch": 54, "duration": 10, "velocity": 39}, {"time": 162000, "pitch": 38, "duration": 10, "velocity": 40}, {"time": 162000, "pitch": 46, "duration": 10, "velocity": 75}, {"time": 162000, "pitch": 54, "duration": 10, "velocity": 44}, {"time": 162000, "pitch": 63, "duration": 10, "velocity": 50}, {"time": 162120, "pitch": 38, "duration": 10, "velocity": 40}, {"time": 162120, "pitch": 54, "duration": 10, "velocity": 37}, {"time": 162120, "pitch": 63, "duration": 10, "velocity": 53}, {"time": 162240, "pitch": 35, "duration": 10, "velocity": 87}, {"time": 162240, "pitch": 39, "duration": 10, "velocity": 85}, {"time": 162240, "pitch": 42, "duration": 10, "velocity": 84}, {"time": 162240, "pitch": 54, "duration": 10, "velocity": 49}, {"time": 162240, "pitch": 62, "duration": 10, "velocity": 80}, {"time": 162360, "pitch": 54, "duration": 10, "velocity": 39}, {"time": 162480, "pitch": 46, "duration": 10, "velocity": 75}, {"time": 162480, "pitch": 54, "duration": 10, "velocity": 44}, {"time": 162480, "pitch": 64, "duration": 10, "velocity": 70}, {"time": 162600, "pitch": 38, "duration": 10, "velocity": 40}, {"time": 162600, "pitch": 54, "duration": 10, "velocity": 37}, {"time": 162600, "pitch": 63, "duration": 10, "velocity": 60}, {"time": 162720, "pitch": 35, "duration": 10, "velocity": 89}, {"time": 162720, "pitch": 42, "duration": 10, "velocity": 84}, {"time": 162720, "pitch": 54, "duration": 10, "velocity": 86}, {"time": 162840, "pitch": 38, "duration": 10, "velocity": 40}, {"time": 162840, "pitch": 42, "duration": 10, "velocity": 78}, {"time": 162840, "pitch": 54, "duration": 10, "velocity": 39}, {"time": 162840, "pitch": 62, "duration": 10, "velocity": 60}, {"time": 162960, "pitch": 46, "duration": 10, "velocity": 75}, {"time": 162960, "pitch": 54, "duration": 10, "velocity": 44}, {"time": 162960, "pitch": 60, "duration": 10, "velocity": 60}, {"time": 163080, "pitch": 54, "duration": 10, "velocity": 37}, {"time": 163200, "pitch": 35, "duration": 10, "velocity": 82}, {"time": 163200, "pitch": 39, "duration": 10, "velocity": 85}, {"time": 163200, "pitch": 42, "duration": 10, "velocity": 84}, {"time": 163200, "pitch": 54, "duration": 10, "velocity": 49}, {"time": 163200, "pitch": 64, "duration": 10, "velocity": 60}, {"time": 163320, "pitch": 54, "duration": 10, "velocity": 39}, {"time": 163440, "pitch": 46, "duration": 10, "velocity": 75}, {"time": 163440, "pitch": 54, "duration": 10, "velocity": 44}, {"time": 163440, "pitch": 61, "duration": 10, "velocity": 55}, {"time": 163560, "pitch": 38, "duration": 10, "velocity": 40}, {"time": 163560, "pitch": 54, "duration": 10, "velocity": 37}, {"time": 163560, "pitch": 61, "duration": 10, "velocity": 50}, {"time": 163680, "pitch": 35, "duration": 10, "velocity": 90}, {"time": 163680, "pitch": 42, "duration": 10, "velocity": 84}, {"time": 163680, "pitch": 54, "duration": 10, "velocity": 86}, {"time": 163680, "pitch": 63, "duration": 10, "velocity": 55}, {"time": 163800, "pitch": 54, "duration": 10, "velocity": 39}, {"time": 163920, "pitch": 38, "duration": 10, "velocity": 40}, {"time": 163920, "pitch": 46, "duration": 10, "velocity": 75}, {"time": 163920, "pitch": 54, "duration": 10, "velocity": 44}, {"time": 163920, "pitch": 61, "duration": 10, "velocity": 50}, {"time": 164040, "pitch": 38, "duration": 10, "velocity": 40}, {"time": 164040, "pitch": 54, "duration": 10, "velocity": 37}, {"time": 164040, "pitch": 63, "duration": 10, "velocity": 61}, {"time": 164160, "pitch": 35, "duration": 10, "velocity": 87}, {"time": 164160, "pitch": 39, "duration": 10, "velocity": 85}, {"time": 164160, "pitch": 42, "duration": 10, "velocity": 84}, {"time": 164160, "pitch": 54, "duration": 10, "velocity": 49}, {"time": 164160, "pitch": 62, "duration": 10, "velocity": 80}, {"time": 164280, "pitch": 54, "duration": 10, "velocity": 39}, {"time": 164400, "pitch": 46, "duration": 10, "velocity": 75}, {"time": 164400, "pitch": 54, "duration": 10, "velocity": 44}, {"time": 164400, "pitch": 64, "duration": 10, "velocity": 70}, {"time": 164520, "pitch": 38, "duration": 10, "velocity": 40}, {"time": 164520, "pitch": 54, "duration": 10, "velocity": 37}, {"time": 164520, "pitch": 63, "duration": 10, "velocity": 60}, {"time": 164640, "pitch": 35, "duration": 10, "velocity": 89}, {"time": 164640, "pitch": 42, "duration": 10, "velocity": 84}, {"time": 164640, "pitch": 54, "duration": 10, "velocity": 86}, {"time": 164760, "pitch": 38, "duration": 10, "velocity": 40}, {"time": 164760, "pitch": 42, "duration": 10, "velocity": 78}, {"time": 164760, "pitch": 54, "duration": 10, "velocity": 39}, {"time": 164760, "pitch": 63, "duration": 10, "velocity": 60}, {"time": 164880, "pitch": 46, "duration": 10, "velocity": 75}, {"time": 164880, "pitch": 54, "duration": 10, "velocity": 44}, {"time": 164880, "pitch": 60, "duration": 10, "velocity": 50}, {"time": 165000, "pitch": 54, "duration": 10, "velocity": 37}, {"time": 165120, "pitch": 35, "duration": 10, "velocity": 82}, {"time": 165120, "pitch": 39, "duration": 10, "velocity": 85}, {"time": 165120, "pitch": 42, "duration": 10, "velocity": 84}, {"time": 165120, "pitch": 54, "duration": 10, "velocity": 49}, {"time": 165120, "pitch": 61, "duration": 10, "velocity": 80}, {"time": 165240, "pitch": 54, "duration": 10, "velocity": 39}, {"time": 165360, "pitch": 46, "duration": 10, "velocity": 75}, {"time": 165360, "pitch": 54, "duration": 10, "velocity": 44}, {"time": 165360, "pitch": 64, "duration": 10, "velocity": 55}, {"time": 165480, "pitch": 38, "duration": 10, "velocity": 40}, {"time": 165480, "pitch": 54, "duration": 10, "velocity": 37}, {"time": 165480, "pitch": 64, "duration": 10, "velocity": 50}, {"time": 165600, "pitch": 35, "duration": 10, "velocity": 90}, {"time": 165600, "pitch": 42, "duration": 10, "velocity": 84}, {"time": 165600, "pitch": 54, "duration": 10, "velocity": 86}, {"time": 165600, "pitch": 57, "duration": 10, "velocity": 60}, {"time": 165600, "pitch": 61, "duration": 10, "velocity": 55}, {"time": 165720, "pitch": 54, "duration": 10, "velocity": 39}, {"time": 165840, "pitch": 38, "duration": 10, "velocity": 40}, {"time": 165840, "pitch": 46, "duration": 10, "velocity": 75}, {"time": 165840, "pitch": 54, "duration": 10, "velocity": 44}, {"time": 165840, "pitch": 63, "duration": 10, "velocity": 50}, {"time": 165960, "pitch": 38, "duration": 10, "velocity": 40}, {"time": 165960, "pitch": 54, "duration": 10, "velocity": 37}, {"time": 165960, "pitch": 63, "duration": 10, "velocity": 53}, {"time": 166080, "pitch": 35, "duration": 10, "velocity": 87}, {"time": 166080, "pitch": 39, "duration": 10, "velocity": 85}, {"time": 166080, "pitch": 42, "duration": 10, "velocity": 84}, {"time": 166080, "pitch": 54, "duration": 10, "velocity": 49}, {"time": 166080, "pitch": 62, "duration": 10, "velocity": 80}, {"time": 166200, "pitch": 54, "duration": 10, "velocity": 39}, {"time": 166320, "pitch": 46, "duration": 10, "velocity": 75}, {"time": 166320, "pitch": 54, "duration": 10, "velocity": 44}, {"time": 166320, "pitch": 64, "duration": 10, "velocity": 70}, {"time": 166440, "pitch": 38, "duration": 10, "velocity": 40}, {"time": 166440, "pitch": 54, "duration": 10, "velocity": 37}, {"time": 166440, "pitch": 63, "duration": 10, "velocity": 60}, {"time": 166560, "pitch": 35, "duration": 10, "velocity": 89}, {"time": 166560, "pitch": 42, "duration": 10, "velocity": 84}, {"time": 166560, "pitch": 54, "duration": 10, "velocity": 86}, {"time": 166680, "pitch": 38, "duration": 10, "velocity": 40}, {"time": 166680, "pitch": 42, "duration": 10, "velocity": 78}, {"time": 166680, "pitch": 54, "duration": 10, "velocity": 39}, {"time": 166680, "pitch": 62, "duration": 10, "velocity": 60}, {"time": 166800, "pitch": 46, "duration": 10, "velocity": 75}, {"time": 166800, "pitch": 54, "duration": 10, "velocity": 44}, {"time": 166800, "pitch": 60, "duration": 10, "velocity": 60}, {"time": 166920, "pitch": 54, "duration": 10, "velocity": 37}, {"time": 167040, "pitch": 35, "duration": 10, "velocity": 82}, {"time": 167040, "pitch": 39, "duration": 10, "velocity": 85}, {"time": 167040, "pitch": 42, "duration": 10, "velocity": 84}, {"time": 167040, "pitch": 54, "duration": 10, "velocity": 49}, {"time": 167040, "pitch": 64, "duration": 10, "velocity": 60}, {"time": 167160, "pitch": 54, "duration": 10, "velocity": 39}, {"time": 167280, "pitch": 46, "duration": 10, "velocity": 75}, {"time": 167280, "pitch": 54, "duration": 10, "velocity": 44}, {"time": 167280, "pitch": 61, "duration": 10, "velocity": 55}, {"time": 167400, "pitch": 38, "duration": 10, "velocity": 40}, {"time": 167400, "pitch": 54, "duration": 10, "velocity": 37}, {"time": 167400, "pitch": 61, "duration": 10, "velocity": 50}, {"time": 167520, "pitch": 35, "duration": 10, "velocity": 90}, {"time": 167520, "pitch": 42, "duration": 10, "velocity": 84}, {"time": 167520, "pitch": 54, "duration": 10, "velocity": 86}, {"time": 167520, "pitch": 63, "duration": 10, "velocity": 55}, {"time": 167640, "pitch": 54, "duration": 10, "velocity": 39}, {"time": 167760, "pitch": 38, "duration": 10, "velocity": 40}, {"time": 167760, "pitch": 46, "duration": 10, "velocity": 75}, {"time": 167760, "pitch": 54, "duration": 10, "velocity": 44}, {"time": 167760, "pitch": 61, "duration": 10, "velocity": 50}, {"time": 167880, "pitch": 38, "duration": 10, "velocity": 40}, {"time": 167880, "pitch": 54, "duration": 10, "velocity": 37}, {"time": 167880, "pitch": 63, "duration": 10, "velocity": 61}, {"time": 168000, "pitch": 35, "duration": 10, "velocity": 87}, {"time": 168000, "pitch": 39, "duration": 10, "velocity": 85}, {"time": 168000, "pitch": 42, "duration": 10, "velocity": 84}, {"time": 168000, "pitch": 54, "duration": 10, "velocity": 49}, {"time": 168000, "pitch": 62, "duration": 10, "velocity": 80}, {"time": 168120, "pitch": 54, "duration": 10, "velocity": 39}, {"time": 168240, "pitch": 46, "duration": 10, "velocity": 75}, {"time": 168240, "pitch": 54, "duration": 10, "velocity": 44}, {"time": 168240, "pitch": 64, "duration": 10, "velocity": 70}, {"time": 168360, "pitch": 38, "duration": 10, "velocity": 40}, {"time": 168360, "pitch": 54, "duration": 10, "velocity": 37}, {"time": 168360, "pitch": 63, "duration": 10, "velocity": 60}, {"time": 168480, "pitch": 35, "duration": 10, "velocity": 89}, {"time": 168480, "pitch": 42, "duration": 10, "velocity": 84}, {"time": 168480, "pitch": 54, "duration": 10, "velocity": 86}, {"time": 168600, "pitch": 38, "duration": 10, "velocity": 40}, {"time": 168600, "pitch": 42, "duration": 10, "velocity": 78}, {"time": 168600, "pitch": 54, "duration": 10, "velocity": 39}, {"time": 168600, "pitch": 63, "duration": 10, "velocity": 60}, {"time": 168720, "pitch": 46, "duration": 10, "velocity": 75}, {"time": 168720, "pitch": 54, "duration": 10, "velocity": 44}, {"time": 168720, "pitch": 60, "duration": 10, "velocity": 50}, {"time": 168840, "pitch": 54, "duration": 10, "velocity": 37}, {"time": 168960, "pitch": 35, "duration": 10, "velocity": 82}, {"time": 168960, "pitch": 39, "duration": 10, "velocity": 85}, {"time": 168960, "pitch": 42, "duration": 10, "velocity": 84}, {"time": 168960, "pitch": 54, "duration": 10, "velocity": 49}, {"time": 168960, "pitch": 61, "duration": 10, "velocity": 80}, {"time": 169080, "pitch": 54, "duration": 10, "velocity": 39}, {"time": 169200, "pitch": 46, "duration": 10, "velocity": 75}, {"time": 169200, "pitch": 54, "duration": 10, "velocity": 44}, {"time": 169200, "pitch": 64, "duration": 10, "velocity": 55}, {"time": 169320, "pitch": 38, "duration": 10, "velocity": 40}, {"time": 169320, "pitch": 54, "duration": 10, "velocity": 37}, {"time": 169320, "pitch": 64, "duration": 10, "velocity": 50}, {"time": 169440, "pitch": 35, "duration": 10, "velocity": 91}, {"time": 169440, "pitch": 40, "duration": 10, "velocity": 100}, {"time": 169440, "pitch": 61, "duration": 10, "velocity": 55}, {"time": 169680, "pitch": 35, "duration": 10, "velocity": 85}, {"time": 169680, "pitch": 40, "duration": 10, "velocity": 88}, {"time": 169680, "pitch": 63, "duration": 10, "velocity": 50}, {"time": 169800, "pitch": 63, "duration": 10, "velocity": 53}, {"time": 169920, "pitch": 62, "duration": 10, "velocity": 80}, {"time": 170160, "pitch": 64, "duration": 10, "velocity": 70}, {"time": 170280, "pitch": 63, "duration": 10, "velocity": 60}, {"time": 170400, "pitch": 35, "duration": 10, "velocity": 91}, {"time": 170400, "pitch": 40, "duration": 10, "velocity": 100}, {"time": 170520, "pitch": 62, "duration": 10, "velocity": 60}, {"time": 170640, "pitch": 35, "duration": 10, "velocity": 85}, {"time": 170640, "pitch": 40, "duration": 10, "velocity": 85}, {"time": 170640, "pitch": 60, "duration": 10, "velocity": 60}, {"time": 170880, "pitch": 64, "duration": 10, "velocity": 60}, {"time": 171120, "pitch": 35, "duration": 10, "velocity": 85}, {"time": 171120, "pitch": 61, "duration": 10, "velocity": 55}, {"time": 171240, "pitch": 61, "duration": 10, "velocity": 50}, {"time": 171360, "pitch": 63, "duration": 10, "velocity": 55}, {"time": 171600, "pitch": 61, "duration": 10, "velocity": 50}, {"time": 171720, "pitch": 63, "duration": 10, "velocity": 61}, {"time": 171840, "pitch": 35, "duration": 10, "velocity": 82}, {"time": 171840, "pitch": 49, "duration": 10, "velocity": 60}, {"time": 171840, "pitch": 62, "duration": 10, "velocity": 80}, {"time": 172080, "pitch": 48, "duration": 40, "velocity": 81}, {"time": 172080, "pitch": 64, "duration": 10, "velocity": 70}, {"time": 172200, "pitch": 63, "duration": 10, "velocity": 60}, {"time": 172440, "pitch": 63, "duration": 10, "velocity": 60}, {"time": 172560, "pitch": 45, "duration": 60, "velocity": 76}, {"time": 172560, "pitch": 60, "duration": 10, "velocity": 50}, {"time": 172800, "pitch": 35, "duration": 10, "velocity": 74}, {"time": 172800, "pitch": 42, "duration": 10, "velocity": 84}, {"time": 172800, "pitch": 61, "duration": 10, "velocity": 80}, {"time": 172920, "pitch": 42, "duration": 10, "velocity": 48}, {"time": 173040, "pitch": 38, "duration": 40, "velocity": 76}, {"time": 173040, "pitch": 46, "duration": 10, "velocity": 75}, {"time": 173040, "pitch": 64, "duration": 10, "velocity": 55}, {"time": 173160, "pitch": 38, "duration": 40, "velocity": 60}, {"time": 173160, "pitch": 64, "duration": 10, "velocity": 50}, {"time": 173280, "pitch": 35, "duration": 10, "velocity": 90}, {"time": 173280, "pitch": 42, "duration": 10, "velocity": 84}, {"time": 173280, "pitch": 54, "duration": 10, "velocity": 86}, {"time": 173280, "pitch": 57, "duration": 10, "velocity": 68}, {"time": 173280, "pitch": 61, "duration": 10, "velocity": 55}, {"time": 173400, "pitch": 54, "duration": 10, "velocity": 39}, {"time": 173520, "pitch": 38, "duration": 10, "velocity": 40}, {"time": 173520, "pitch": 46, "duration": 10, "velocity": 75}, {"time": 173520, "pitch": 54, "duration": 10, "velocity": 44}, {"time": 173520, "pitch": 63, "duration": 10, "velocity": 50}, {"time": 173520, "pitch": 70, "duration": 70, "velocity": 100}, {"time": 173640, "pitch": 38, "duration": 10, "velocity": 40}, {"time": 173640, "pitch": 54, "duration": 10, "velocity": 37}, {"time": 173640, "pitch": 63, "duration": 10, "velocity": 53}, {"time": 173640, "pitch": 70, "duration": 70, "velocity": 50}, {"time": 173760, "pitch": 35, "duration": 10, "velocity": 87}, {"time": 173760, "pitch": 39, "duration": 10, "velocity": 85}, {"time": 173760, "pitch": 40, "duration": 10, "velocity": 85}, {"time": 173760, "pitch": 42, "duration": 10, "velocity": 84}, {"time": 173760, "pitch": 54, "duration": 10, "velocity": 49}, {"time": 173760, "pitch": 62, "duration": 10, "velocity": 80}, {"time": 173880, "pitch": 54, "duration": 10, "velocity": 39}, {"time": 174000, "pitch": 46, "duration": 10, "velocity": 75}, {"time": 174000, "pitch": 54, "duration": 10, "velocity": 44}, {"time": 174000, "pitch": 64, "duration": 10, "velocity": 70}, {"time": 174000, "pitch": 70, "duration": 70, "velocity": 100}, {"time": 174120, "pitch": 38, "duration": 10, "velocity": 40}, {"time": 174120, "pitch": 54, "duration": 10, "velocity": 37}, {"time": 174120, "pitch": 63, "duration": 10, "velocity": 60}, {"time": 174240, "pitch": 35, "duration": 10, "velocity": 89}, {"time": 174240, "pitch": 42, "duration": 10, "velocity": 84}, {"time": 174240, "pitch": 54, "duration": 10, "velocity": 86}, {"time": 174360, "pitch": 38, "duration": 10, "velocity": 40}, {"time": 174360, "pitch": 42, "duration": 10, "velocity": 78}, {"time": 174360, "pitch": 54, "duration": 10, "velocity": 39}, {"time": 174360, "pitch": 62, "duration": 10, "velocity": 60}, {"time": 174480, "pitch": 46, "duration": 10, "velocity": 75}, {"time": 174480, "pitch": 54, "duration": 10, "velocity": 44}, {"time": 174480, "pitch": 60, "duration": 10, "velocity": 60}, {"time": 174480, "pitch": 70, "duration": 70, "velocity": 100}, {"time": 174600, "pitch": 54, "duration": 10, "velocity": 37}, {"time": 174720, "pitch": 35, "duration": 10, "velocity": 82}, {"time": 174720, "pitch": 39, "duration": 10, "velocity": 85}, {"time": 174720, "pitch": 40, "duration": 10, "velocity": 89}, {"time": 174720, "pitch": 42, "duration": 10, "velocity": 84}, {"time": 174720, "pitch": 54, "duration": 10, "velocity": 49}, {"time": 174720, "pitch": 64, "duration": 10, "velocity": 60}, {"time": 174840, "pitch": 54, "duration": 10, "velocity": 39}, {"time": 174960, "pitch": 46, "duration": 10, "velocity": 75}, {"time": 174960, "pitch": 54, "duration": 10, "velocity": 44}, {"time": 174960, "pitch": 61, "duration": 10, "velocity": 55}, {"time": 174960, "pitch": 70, "duration": 70, "velocity": 100}, {"time": 175080, "pitch": 38, "duration": 10, "velocity": 40}, {"time": 175080, "pitch": 54, "duration": 10, "velocity": 37}, {"time": 175080, "pitch": 61, "duration": 10, "velocity": 50}, {"time": 175080, "pitch": 70, "duration": 70, "velocity": 50}, {"time": 175200, "pitch": 35, "duration": 10, "velocity": 90}, {"time": 175200, "pitch": 42, "duration": 10, "velocity": 84}, {"time": 175200, "pitch": 54, "duration": 10, "velocity": 86}, {"time": 175200, "pitch": 63, "duration": 10, "velocity": 55}, {"time": 175320, "pitch": 54, "duration": 10, "velocity": 39}, {"time": 175440, "pitch": 38, "duration": 10, "velocity": 40}, {"time": 175440, "pitch": 46, "duration": 10, "velocity": 75}, {"time": 175440, "pitch": 54, "duration": 10, "velocity": 44}, {"time": 175440, "pitch": 61, "duration": 10, "velocity": 50}, {"time": 175440, "pitch": 70, "duration": 70, "velocity": 100}, {"time": 175560, "pitch": 38, "duration": 10, "velocity": 40}, {"time": 175560, "pitch": 54, "duration": 10, "velocity": 37}, {"time": 175560, "pitch": 63, "duration": 10, "velocity": 61}, {"time": 175560, "pitch": 70, "duration": 70, "velocity": 50}, {"time": 175680, "pitch": 35, "duration": 10, "velocity": 87}, {"time": 175680, "pitch": 39, "duration": 10, "velocity": 85}, {"time": 175680, "pitch": 40, "duration": 10, "velocity": 85}, {"time": 175680, "pitch": 42, "duration": 10, "velocity": 84}, {"time": 175680, "pitch": 54, "duration": 10, "velocity": 49}, {"time": 175680, "pitch": 62, "duration": 10, "velocity": 80}, {"time": 175800, "pitch": 54, "duration": 10, "velocity": 39}, {"time": 175920, "pitch": 46, "duration": 10, "velocity": 75}, {"time": 175920, "pitch": 54, "duration": 10, "velocity": 44}, {"time": 175920, "pitch": 64, "duration": 10, "velocity": 70}, {"time": 175920, "pitch": 70, "duration": 70, "velocity": 100}, {"time": 176040, "pitch": 38, "duration": 10, "velocity": 40}, {"time": 176040, "pitch": 54, "duration": 10, "velocity": 37}, {"time": 176040, "pitch": 63, "duration": 10, "velocity": 60}, {"time": 176160, "pitch": 35, "duration": 10, "velocity": 89}, {"time": 176160, "pitch": 42, "duration": 10, "velocity": 84}, {"time": 176160, "pitch": 54, "duration": 10, "velocity": 86}, {"time": 176280, "pitch": 38, "duration": 10, "velocity": 40}, {"time": 176280, "pitch": 42, "duration": 10, "velocity": 78}, {"time": 176280, "pitch": 54, "duration": 10, "velocity": 39}, {"time": 176280, "pitch": 63, "duration": 10, "velocity": 60}, {"time": 176400, "pitch": 46, "duration": 10, "velocity": 75}, {"time": 176400, "pitch": 54, "duration": 10, "velocity": 44}, {"time": 176400, "pitch": 60, "duration": 10, "velocity": 50}, {"time": 176400, "pitch": 70, "duration": 70, "velocity": 100}, {"time": 176520, "pitch": 54, "duration": 10, "velocity": 37}, {"time": 176640, "pitch": 35, "duration": 10, "velocity": 82}, {"time": 176640, "pitch": 39, "duration": 10, "velocity": 85}, {"time": 176640, "pitch": 40, "duration": 10, "velocity": 89}, {"time": 176640, "pitch": 42, "duration": 10, "velocity": 84}, {"time": 176640, "pitch": 54, "duration": 10, "velocity": 49}, {"time": 176640, "pitch": 61, "duration": 10, "velocity": 80}, {"time": 176760, "pitch": 54, "duration": 10, "velocity": 39}, {"time": 176880, "pitch": 46, "duration": 10, "velocity": 75}, {"time": 176880, "pitch": 54, "duration": 10, "velocity": 44}, {"time": 176880, "pitch": 64, "duration": 10, "velocity": 55}, {"time": 176880, "pitch": 70, "duration": 70, "velocity": 100}, {"time": 177000, "pitch": 38, "duration": 10, "velocity": 40}, {"time": 177000, "pitch": 54, "duration": 10, "velocity": 37}, {"time": 177000, "pitch": 64, "duration": 10, "velocity": 50}, {"time": 177000, "pitch": 70, "duration": 70, "velocity": 50}, {"time": 177120, "pitch": 35, "duration": 10, "velocity": 90}, {"time": 177120, "pitch": 42, "duration": 10, "velocity": 84}, {"time": 177120, "pitch": 54, "duration": 10, "velocity": 86}, {"time": 177120, "pitch": 61, "duration": 10, "velocity": 55}, {"time": 177240, "pitch": 54, "duration": 10, "velocity": 39}, {"time": 177360, "pitch": 38, "duration": 10, "velocity": 40}, {"time": 177360, "pitch": 46, "duration": 10, "velocity": 75}, {"time": 177360, "pitch": 54, "duration": 10, "velocity": 44}, {"time": 177360, "pitch": 63, "duration": 10, "velocity": 50}, {"time": 177360, "pitch": 70, "duration": 70, "velocity": 100}, {"time": 177480, "pitch": 38, "duration": 10, "velocity": 40}, {"time": 177480, "pitch": 54, "duration": 10, "velocity": 37}, {"time": 177480, "pitch": 63, "duration": 10, "velocity": 53}, {"time": 177480, "pitch": 70, "duration": 70, "velocity": 50}, {"time": 177600, "pitch": 35, "duration": 10, "velocity": 87}, {"time": 177600, "pitch": 39, "duration": 10, "velocity": 85}, {"time": 177600, "pitch": 40, "duration": 10, "velocity": 85}, {"time": 177600, "pitch": 42, "duration": 10, "velocity": 84}, {"time": 177600, "pitch": 54, "duration": 10, "velocity": 49}, {"time": 177600, "pitch": 62, "duration": 10, "velocity": 80}, {"time": 177720, "pitch": 54, "duration": 10, "velocity": 39}, {"time": 177840, "pitch": 46, "duration": 10, "velocity": 75}, {"time": 177840, "pitch": 54, "duration": 10, "velocity": 44}, {"time": 177840, "pitch": 64, "duration": 10, "velocity": 70}, {"time": 177840, "pitch": 70, "duration": 70, "velocity": 100}, {"time": 177960, "pitch": 38, "duration": 10, "velocity": 40}, {"time": 177960, "pitch": 54, "duration": 10, "velocity": 37}, {"time": 177960, "pitch": 63, "duration": 10, "velocity": 60}, {"time": 178080, "pitch": 35, "duration": 10, "velocity": 89}, {"time": 178080, "pitch": 42, "duration": 10, "velocity": 84}, {"time": 178080, "pitch": 54, "duration": 10, "velocity": 86}, {"time": 178200, "pitch": 38, "duration": 10, "velocity": 40}, {"time": 178200, "pitch": 42, "duration": 10, "velocity": 78}, {"time": 178200, "pitch": 54, "duration": 10, "velocity": 39}, {"time": 178200, "pitch": 62, "duration": 10, "velocity": 60}, {"time": 178320, "pitch": 46, "duration": 10, "velocity": 75}, {"time": 178320, "pitch": 54, "duration": 10, "velocity": 44}, {"time": 178320, "pitch": 60, "duration": 10, "velocity": 60}, {"time": 178320, "pitch": 70, "duration": 70, "velocity": 100}, {"time": 178440, "pitch": 54, "duration": 10, "velocity": 37}, {"time": 178560, "pitch": 35, "duration": 10, "velocity": 82}, {"time": 178560, "pitch": 39, "duration": 10, "velocity": 85}, {"time": 178560, "pitch": 40, "duration": 10, "velocity": 89}, {"time": 178560, "pitch": 42, "duration": 10, "velocity": 84}, {"time": 178560, "pitch": 54, "duration": 10, "velocity": 49}, {"time": 178560, "pitch": 64, "duration": 10, "velocity": 60}, {"time": 178680, "pitch": 54, "duration": 10, "velocity": 39}, {"time": 178800, "pitch": 46, "duration": 10, "velocity": 75}, {"time": 178800, "pitch": 54, "duration": 10, "velocity": 44}, {"time": 178800, "pitch": 61, "duration": 10, "velocity": 55}, {"time": 178800, "pitch": 70, "duration": 70, "velocity": 100}, {"time": 178920, "pitch": 38, "duration": 10, "velocity": 40}, {"time": 178920, "pitch": 54, "duration": 10, "velocity": 37}, {"time": 178920, "pitch": 61, "duration": 10, "velocity": 50}, {"time": 178920, "pitch": 70, "duration": 70, "velocity": 50}, {"time": 179040, "pitch": 35, "duration": 10, "velocity": 90}, {"time": 179040, "pitch": 42, "duration": 10, "velocity": 84}, {"time": 179040, "pitch": 54, "duration": 10, "velocity": 86}, {"time": 179040, "pitch": 63, "duration": 10, "velocity": 55}, {"time": 179160, "pitch": 54, "duration": 10, "velocity": 39}, {"time": 179280, "pitch": 38, "duration": 10, "velocity": 40}, {"time": 179280, "pitch": 46, "duration": 10, "velocity": 75}, {"time": 179280, "pitch": 54, "duration": 10, "velocity": 44}, {"time": 179280, "pitch": 61, "duration": 10, "velocity": 50}, {"time": 179280, "pitch": 70, "duration": 70, "velocity": 100}, {"time": 179400, "pitch": 38, "duration": 10, "velocity": 40}, {"time": 179400, "pitch": 54, "duration": 10, "velocity": 37}, {"time": 179400, "pitch": 63, "duration": 10, "velocity": 61}, {"time": 179400, "pitch": 70, "duration": 70, "velocity": 50}, {"time": 179520, "pitch": 35, "duration": 10, "velocity": 87}, {"time": 179520, "pitch": 39, "duration": 10, "velocity": 85}, {"time": 179520, "pitch": 40, "duration": 10, "velocity": 85}, {"time": 179520, "pitch": 42, "duration": 10, "velocity": 84}, {"time": 179520, "pitch": 54, "duration": 10, "velocity": 49}, {"time": 179520, "pitch": 62, "duration": 10, "velocity": 80}, {"time": 179640, "pitch": 54, "duration": 10, "velocity": 39}, {"time": 179760, "pitch": 46, "duration": 10, "velocity": 75}, {"time": 179760, "pitch": 54, "duration": 10, "velocity": 44}, {"time": 179760, "pitch": 64, "duration": 10, "velocity": 70}, {"time": 179760, "pitch": 70, "duration": 70, "velocity": 100}, {"time": 179880, "pitch": 38, "duration": 10, "velocity": 40}, {"time": 179880, "pitch": 54, "duration": 10, "velocity": 37}, {"time": 179880, "pitch": 63, "duration": 10, "velocity": 60}, {"time": 180000, "pitch": 35, "duration": 10, "velocity": 89}, {"time": 180000, "pitch": 42, "duration": 10, "velocity": 84}, {"time": 180000, "pitch": 54, "duration": 10, "velocity": 86}, {"time": 180120, "pitch": 38, "duration": 10, "velocity": 40}, {"time": 180120, "pitch": 42, "duration": 10, "velocity": 78}, {"time": 180120, "pitch": 54, "duration": 10, "velocity": 39}, {"time": 180120, "pitch": 63, "duration": 10, "velocity": 60}, {"time": 180240, "pitch": 46, "duration": 10, "velocity": 75}, {"time": 180240, "pitch": 54, "duration": 10, "velocity": 44}, {"time": 180240, "pitch": 60, "duration": 10, "velocity": 50}, {"time": 180240, "pitch": 70, "duration": 70, "velocity": 100}, {"time": 180360, "pitch": 54, "duration": 10, "velocity": 37}, {"time": 180480, "pitch": 35, "duration": 10, "velocity": 82}, {"time": 180480, "pitch": 39, "duration": 10, "velocity": 85}, {"time": 180480, "pitch": 40, "duration": 10, "velocity": 89}, {"time": 180480, "pitch": 42, "duration": 10, "velocity": 84}, {"time": 180480, "pitch": 54, "duration": 10, "velocity": 49}, {"time": 180480, "pitch": 61, "duration": 10, "velocity": 80}, {"time": 180600, "pitch": 54, "duration": 10, "velocity": 39}, {"time": 180720, "pitch": 46, "duration": 10, "velocity": 75}, {"time": 180720, "pitch": 54, "duration": 10, "velocity": 44}, {"time": 180720, "pitch": 64, "duration": 10, "velocity": 55}, {"time": 180720, "pitch": 70, "duration": 70, "velocity": 100}, {"time": 180840, "pitch": 38, "duration": 10, "velocity": 40}, {"time": 180840, "pitch": 54, "duration": 10, "velocity": 37}, {"time": 180840, "pitch": 64, "duration": 10, "velocity": 50}, {"time": 180840, "pitch": 70, "duration": 70, "velocity": 50}, {"time": 180960, "pitch": 35, "duration": 10, "velocity": 90}, {"time": 180960, "pitch": 42, "duration": 10, "velocity": 84}, {"time": 180960, "pitch": 49, "duration": 10, "velocity": 60}, {"time": 180960, "pitch": 54, "duration": 10, "velocity": 86}, {"time": 180960, "pitch": 61, "duration": 10, "velocity": 55}, {"time": 181080, "pitch": 54, "duration": 10, "velocity": 39}, {"time": 181200, "pitch": 38, "duration": 10, "velocity": 40}, {"time": 181200, "pitch": 46, "duration": 10, "velocity": 75}, {"time": 181200, "pitch": 54, "duration": 10, "velocity": 44}, {"time": 181200, "pitch": 63, "duration": 10, "velocity": 50}, {"time": 181200, "pitch": 70, "duration": 70, "velocity": 100}, {"time": 181320, "pitch": 38, "duration": 10, "velocity": 40}, {"time": 181320, "pitch": 54, "duration": 10, "velocity": 37}, {"time": 181320, "pitch": 63, "duration": 10, "velocity": 53}, {"time": 181320, "pitch": 70, "duration": 70, "velocity": 50}, {"time": 181440, "pitch": 35, "duration": 10, "velocity": 87}, {"time": 181440, "pitch": 39, "duration": 10, "velocity": 85}, {"time": 181440, "pitch": 40, "duration": 10, "velocity": 85}, {"time": 181440, "pitch": 42, "duration": 10, "velocity": 84}, {"time": 181440, "pitch": 54, "duration": 10, "velocity": 49}, {"time": 181440, "pitch": 62, "duration": 10, "velocity": 80}, {"time": 181560, "pitch": 54, "duration": 10, "velocity": 39}, {"time": 181680, "pitch": 46, "duration": 10, "velocity": 75}, {"time": 181680, "pitch": 54, "duration": 10, "velocity": 44}, {"time": 181680, "pitch": 64, "duration": 10, "velocity": 70}, {"time": 181680, "pitch": 70, "duration": 70, "velocity": 100}, {"time": 181800, "pitch": 38, "duration": 10, "velocity": 40}, {"time": 181800, "pitch": 54, "duration": 10, "velocity": 37}, {"time": 181800, "pitch": 63, "duration": 10, "velocity": 60}, {"time": 181920, "pitch": 35, "duration": 10, "velocity": 89}, {"time": 181920, "pitch": 42, "duration": 10, "velocity": 84}, {"time": 181920, "pitch": 54, "duration": 10, "velocity": 86}, {"time": 182040, "pitch": 38, "duration": 10, "velocity": 40}, {"time": 182040, "pitch": 42, "duration": 10, "velocity": 78}, {"time": 182040, "pitch": 54, "duration": 10, "velocity": 39}, {"time": 182040, "pitch": 62, "duration": 10, "velocity": 60}, {"time": 182160, "pitch": 46, "duration": 10, "velocity": 75}, {"time": 182160, "pitch": 54, "duration": 10, "velocity": 44}, {"time": 182160, "pitch": 60, "duration": 10, "velocity": 60}, {"time": 182160, "pitch": 70, "duration": 70, "velocity": 100}, {"time": 182280, "pitch": 54, "duration": 10, "velocity": 37}, {"time": 182400, "pitch": 35, "duration": 10, "velocity": 82}, {"time": 182400, "pitch": 39, "duration": 10, "velocity": 85}, {"time": 182400, "pitch": 40, "duration": 10, "velocity": 89}, {"time": 182400, "pitch": 42, "duration": 10, "velocity": 84}, {"time": 182400, "pitch": 54, "duration": 10, "velocity": 49}, {"time": 182400, "pitch": 64, "duration": 10, "velocity": 60}, {"time": 182520, "pitch": 54, "duration": 10, "velocity": 39}, {"time": 182640, "pitch": 46, "duration": 10, "velocity": 75}, {"time": 182640, "pitch": 54, "duration": 10, "velocity": 44}, {"time": 182640, "pitch": 61, "duration": 10, "velocity": 55}, {"time": 182640, "pitch": 70, "duration": 70, "velocity": 100}, {"time": 182760, "pitch": 38, "duration": 10, "velocity": 40}, {"time": 182760, "pitch": 54, "duration": 10, "velocity": 37}, {"time": 182760, "pitch": 61, "duration": 10, "velocity": 50}, {"time": 182760, "pitch": 70, "duration": 70, "velocity": 50}, {"time": 182880, "pitch": 35, "duration": 10, "velocity": 90}, {"time": 182880, "pitch": 42, "duration": 10, "velocity": 84}, {"time": 182880, "pitch": 54, "duration": 10, "velocity": 86}, {"time": 182880, "pitch": 63, "duration": 10, "velocity": 55}, {"time": 183000, "pitch": 54, "duration": 10, "velocity": 39}, {"time": 183120, "pitch": 38, "duration": 10, "velocity": 40}, {"time": 183120, "pitch": 46, "duration": 10, "velocity": 75}, {"time": 183120, "pitch": 54, "duration": 10, "velocity": 44}, {"time": 183120, "pitch": 61, "duration": 10, "velocity": 50}, {"time": 183120, "pitch": 70, "duration": 70, "velocity": 100}, {"time": 183240, "pitch": 38, "duration": 10, "velocity": 40}, {"time": 183240, "pitch": 54, "duration": 10, "velocity": 37}, {"time": 183240, "pitch": 63, "duration": 10, "velocity": 61}, {"time": 183240, "pitch": 70, "duration": 70, "velocity": 50}, {"time": 183360, "pitch": 35, "duration": 10, "velocity": 87}, {"time": 183360, "pitch": 39, "duration": 10, "velocity": 85}, {"time": 183360, "pitch": 40, "duration": 10, "velocity": 85}, {"time": 183360, "pitch": 42, "duration": 10, "velocity": 84}, {"time": 183360, "pitch": 54, "duration": 10, "velocity": 49}, {"time": 183360, "pitch": 62, "duration": 10, "velocity": 80}, {"time": 183480, "pitch": 54, "duration": 10, "velocity": 39}, {"time": 183600, "pitch": 46, "duration": 10, "velocity": 75}, {"time": 183600, "pitch": 54, "duration": 10, "velocity": 44}, {"time": 183600, "pitch": 64, "duration": 10, "velocity": 70}, {"time": 183600, "pitch": 70, "duration": 70, "velocity": 100}, {"time": 183720, "pitch": 38, "duration": 10, "velocity": 40}, {"time": 183720, "pitch": 54, "duration": 10, "velocity": 37}, {"time": 183720, "pitch": 63, "duration": 10, "velocity": 60}, {"time": 183840, "pitch": 35, "duration": 10, "velocity": 89}, {"time": 183840, "pitch": 42, "duration": 10, "velocity": 84}, {"time": 183840, "pitch": 54, "duration": 10, "velocity": 86}, {"time": 183960, "pitch": 38, "duration": 10, "velocity": 40}, {"time": 183960, "pitch": 42, "duration": 10, "velocity": 78}, {"time": 183960, "pitch": 54, "duration": 10, "velocity": 39}, {"time": 183960, "pitch": 63, "duration": 10, "velocity": 60}, {"time": 184080, "pitch": 46, "duration": 10, "velocity": 75}, {"time": 184080, "pitch": 54, "duration": 10, "velocity": 44}, {"time": 184080, "pitch": 60, "duration": 10, "velocity": 50}, {"time": 184080, "pitch": 70, "duration": 70, "velocity": 100}, {"time": 184200, "pitch": 54, "duration": 10, "velocity": 37}, {"time": 184320, "pitch": 35, "duration": 10, "velocity": 82}, {"time": 184320, "pitch": 39, "duration": 10, "velocity": 85}, {"time": 184320, "pitch": 40, "duration": 10, "velocity": 89}, {"time": 184320, "pitch": 42, "duration": 10, "velocity": 84}, {"time": 184320, "pitch": 54, "duration": 10, "velocity": 49}, {"time": 184320, "pitch": 61, "duration": 10, "velocity": 80}, {"time": 184440, "pitch": 54, "duration": 10, "velocity": 39}, {"time": 184560, "pitch": 46, "duration": 10, "velocity": 75}, {"time": 184560, "pitch": 54, "duration": 10, "velocity": 44}, {"time": 184560, "pitch": 64, "duration": 10, "velocity": 55}, {"time": 184560, "pitch": 70, "duration": 70, "velocity": 100}, {"time": 184680, "pitch": 38, "duration": 10, "velocity": 40}, {"time": 184680, "pitch": 54, "duration": 10, "velocity": 37}, {"time": 184680, "pitch": 64, "duration": 10, "velocity": 50}, {"time": 184680, "pitch": 70, "duration": 70, "velocity": 50}, {"time": 184800, "pitch": 35, "duration": 10, "velocity": 90}, {"time": 184800, "pitch": 42, "duration": 10, "velocity": 84}, {"time": 184800, "pitch": 54, "duration": 10, "velocity": 86}, {"time": 184800, "pitch": 61, "duration": 10, "velocity": 55}, {"time": 184920, "pitch": 54, "duration": 10, "velocity": 39}, {"time": 185040, "pitch": 38, "duration": 10, "velocity": 40}, {"time": 185040, "pitch": 46, "duration": 10, "velocity": 75}, {"time": 185040, "pitch": 54, "duration": 10, "velocity": 44}, {"time": 185040, "pitch": 63, "duration": 10, "velocity": 50}, {"time": 185040, "pitch": 70, "duration": 70, "velocity": 100}, {"time": 185160, "pitch": 38, "duration": 10, "velocity": 40}, {"time": 185160, "pitch": 54, "duration": 10, "velocity": 37}, {"time": 185160, "pitch": 63, "duration": 10, "velocity": 53}, {"time": 185160, "pitch": 70, "duration": 70, "velocity": 50}, {"time": 185280, "pitch": 35, "duration": 10, "velocity": 87}, {"time": 185280, "pitch": 39, "duration": 10, "velocity": 85}, {"time": 185280, "pitch": 40, "duration": 10, "velocity": 85}, {"time": 185280, "pitch": 42, "duration": 10, "velocity": 84}, {"time": 185280, "pitch": 54, "duration": 10, "velocity": 49}, {"time": 185280, "pitch": 62, "duration": 10, "velocity": 80}, {"time": 185400, "pitch": 54, "duration": 10, "velocity": 39}, {"time": 185520, "pitch": 46, "duration": 10, "velocity": 75}, {"time": 185520, "pitch": 54, "duration": 10, "velocity": 44}, {"time": 185520, "pitch": 64, "duration": 10, "velocity": 70}, {"time": 185520, "pitch": 70, "duration": 70, "velocity": 100}, {"time": 185640, "pitch": 38, "duration": 10, "velocity": 40}, {"time": 185640, "pitch": 54, "duration": 10, "velocity": 37}, {"time": 185640, "pitch": 63, "duration": 10, "velocity": 60}, {"time": 185760, "pitch": 35, "duration": 10, "velocity": 89}, {"time": 185760, "pitch": 42, "duration": 10, "velocity": 84}, {"time": 185760, "pitch": 54, "duration": 10, "velocity": 86}, {"time": 185880, "pitch": 38, "duration": 10, "velocity": 40}, {"time": 185880, "pitch": 42, "duration": 10, "velocity": 78}, {"time": 185880, "pitch": 54, "duration": 10, "velocity": 39}, {"time": 185880, "pitch": 62, "duration": 10, "velocity": 60}, {"time": 186000, "pitch": 46, "duration": 10, "velocity": 75}, {"time": 186000, "pitch": 54, "duration": 10, "velocity": 44}, {"time": 186000, "pitch": 60, "duration": 10, "velocity": 60}, {"time": 186000, "pitch": 70, "duration": 70, "velocity": 100}, {"time": 186120, "pitch": 54, "duration": 10, "velocity": 37}, {"time": 186240, "pitch": 35, "duration": 10, "velocity": 82}, {"time": 186240, "pitch": 39, "duration": 10, "velocity": 85}, {"time": 186240, "pitch": 40, "duration": 10, "velocity": 89}, {"time": 186240, "pitch": 42, "duration": 10, "velocity": 84}, {"time": 186240, "pitch": 54, "duration": 10, "velocity": 49}, {"time": 186240, "pitch": 64, "duration": 10, "velocity": 60}, {"time": 186360, "pitch": 54, "duration": 10, "velocity": 39}, {"time": 186480, "pitch": 46, "duration": 10, "velocity": 75}, {"time": 186480, "pitch": 54, "duration": 10, "velocity": 44}, {"time": 186480, "pitch": 61, "duration": 10, "velocity": 55}, {"time": 186480, "pitch": 70, "duration": 70, "velocity": 100}, {"time": 186600, "pitch": 38, "duration": 10, "velocity": 40}, {"time": 186600, "pitch": 54, "duration": 10, "velocity": 37}, {"time": 186600, "pitch": 61, "duration": 10, "velocity": 50}, {"time": 186600, "pitch": 70, "duration": 70, "velocity": 50}, {"time": 186720, "pitch": 35, "duration": 10, "velocity": 90}, {"time": 186720, "pitch": 42, "duration": 10, "velocity": 84}, {"time": 186720, "pitch": 54, "duration": 10, "velocity": 86}, {"time": 186720, "pitch": 63, "duration": 10, "velocity": 55}, {"time": 186840, "pitch": 54, "duration": 10, "velocity": 39}, {"time": 186960, "pitch": 38, "duration": 10, "velocity": 40}, {"time": 186960, "pitch": 46, "duration": 10, "velocity": 75}, {"time": 186960, "pitch": 54, "duration": 10, "velocity": 44}, {"time": 186960, "pitch": 61, "duration": 10, "velocity": 50}, {"time": 186960, "pitch": 70, "duration": 70, "velocity": 100}, {"time": 187080, "pitch": 38, "duration": 10, "velocity": 40}, {"time": 187080, "pitch": 54, "duration": 10, "velocity": 37}, {"time": 187080, "pitch": 63, "duration": 10, "velocity": 61}, {"time": 187080, "pitch": 70, "duration": 70, "velocity": 50}, {"time": 187200, "pitch": 35, "duration": 10, "velocity": 87}, {"time": 187200, "pitch": 39, "duration": 10, "velocity": 85}, {"time": 187200, "pitch": 40, "duration": 10, "velocity": 85}, {"time": 187200, "pitch": 42, "duration": 10, "velocity": 84}, {"time": 187200, "pitch": 54, "duration": 10, "velocity": 49}, {"time": 187200, "pitch": 62, "duration": 10, "velocity": 80}, {"time": 187320, "pitch": 54, "duration": 10, "velocity": 39}, {"time": 187440, "pitch": 46, "duration": 10, "velocity": 75}, {"time": 187440, "pitch": 48, "duration": 10, "velocity": 82}, {"time": 187440, "pitch": 54, "duration": 10, "velocity": 44}, {"time": 187440, "pitch": 64, "duration": 10, "velocity": 70}, {"time": 187440, "pitch": 70, "duration": 70, "velocity": 100}, {"time": 187560, "pitch": 38, "duration": 10, "velocity": 40}, {"time": 187560, "pitch": 54, "duration": 10, "velocity": 37}, {"time": 187560, "pitch": 63, "duration": 10, "velocity": 60}, {"time": 187680, "pitch": 35, "duration": 10, "velocity": 89}, {"time": 187680, "pitch": 42, "duration": 10, "velocity": 84}, {"time": 187680, "pitch": 54, "duration": 10, "velocity": 86}, {"time": 187800, "pitch": 38, "duration": 10, "velocity": 40}, {"time": 187800, "pitch": 42, "duration": 10, "velocity": 78}, {"time": 187800, "pitch": 45, "duration": 10, "velocity": 80}, {"time": 187800, "pitch": 54, "duration": 10, "velocity": 39}, {"time": 187800, "pitch": 63, "duration": 10, "velocity": 60}, {"time": 187920, "pitch": 45, "duration": 10, "velocity": 89}, {"time": 187920, "pitch": 46, "duration": 10, "velocity": 75}, {"time": 187920, "pitch": 54, "duration": 10, "velocity": 44}, {"time": 187920, "pitch": 60, "duration": 10, "velocity": 50}, {"time": 187920, "pitch": 70, "duration": 70, "velocity": 100}, {"time": 188040, "pitch": 54, "duration": 10, "velocity": 37}, {"time": 188160, "pitch": 35, "duration": 10, "velocity": 82}, {"time": 188160, "pitch": 39, "duration": 10, "velocity": 85}, {"time": 188160, "pitch": 40, "duration": 10, "velocity": 89}, {"time": 188160, "pitch": 42, "duration": 10, "velocity": 84}, {"time": 188160, "pitch": 54, "duration": 10, "velocity": 49}, {"time": 188160, "pitch": 61, "duration": 10, "velocity": 80}, {"time": 188280, "pitch": 54, "duration": 10, "velocity": 39}, {"time": 188400, "pitch": 41, "duration": 10, "velocity": 94}, {"time": 188400, "pitch": 46, "duration": 10, "velocity": 75}, {"time": 188400, "pitch": 54, "duration": 10, "velocity": 44}, {"time": 188400, "pitch": 64, "duration": 10, "velocity": 55}, {"time": 188400, "pitch": 70, "duration": 70, "velocity": 100}, {"time": 188520, "pitch": 38, "duration": 10, "velocity": 74}, {"time": 188520, "pitch": 54, "duration": 10, "velocity": 37}, {"time": 188520, "pitch": 64, "duration": 10, "velocity": 50}, {"time": 188520, "pitch": 70, "duration": 70, "velocity": 50}, {"time": 188640, "pitch": 35, "duration": 10, "velocity": 90}, {"time": 188640, "pitch": 42, "duration": 10, "velocity": 84}, {"time": 188640, "pitch": 54, "duration": 10, "velocity": 86}, {"time": 188640, "pitch": 57, "duration": 10, "velocity": 68}, {"time": 188640, "pitch": 61, "duration": 10, "velocity": 55}, {"time": 188760, "pitch": 54, "duration": 10, "velocity": 39}, {"time": 188880, "pitch": 38, "duration": 10, "velocity": 40}, {"time": 188880, "pitch": 46, "duration": 10, "velocity": 75}, {"time": 188880, "pitch": 53, "duration": 90, "velocity": 90}, {"time": 188880, "pitch": 54, "duration": 10, "velocity": 44}, {"time": 188880, "pitch": 63, "duration": 10, "velocity": 50}, {"time": 188880, "pitch": 70, "duration": 70, "velocity": 100}, {"time": 189000, "pitch": 38, "duration": 10, "velocity": 40}, {"time": 189000, "pitch": 54, "duration": 10, "velocity": 37}, {"time": 189000, "pitch": 63, "duration": 10, "velocity": 53}, {"time": 189000, "pitch": 70, "duration": 70, "velocity": 50}, {"time": 189120, "pitch": 35, "duration": 10, "velocity": 87}, {"time": 189120, "pitch": 39, "duration": 10, "velocity": 85}, {"time": 189120, "pitch": 40, "duration": 10, "velocity": 85}, {"time": 189120, "pitch": 42, "duration": 10, "velocity": 84}, {"time": 189120, "pitch": 54, "duration": 10, "velocity": 49}, {"time": 189120, "pitch": 62, "duration": 10, "velocity": 80}, {"time": 189240, "pitch": 54, "duration": 10, "velocity": 39}, {"time": 189360, "pitch": 46, "duration": 10, "velocity": 75}, {"time": 189360, "pitch": 53, "duration": 70, "velocity": 90}, {"time": 189360, "pitch": 54, "duration": 10, "velocity": 44}, {"time": 189360, "pitch": 64, "duration": 10, "velocity": 70}, {"time": 189360, "pitch": 70, "duration": 70, "velocity": 100}, {"time": 189480, "pitch": 38, "duration": 10, "velocity": 40}, {"time": 189480, "pitch": 54, "duration": 10, "velocity": 37}, {"time": 189480, "pitch": 63, "duration": 10, "velocity": 60}, {"time": 189600, "pitch": 35, "duration": 10, "velocity": 89}, {"time": 189600, "pitch": 42, "duration": 10, "velocity": 84}, {"time": 189600, "pitch": 54, "duration": 10, "velocity": 86}, {"time": 189720, "pitch": 38, "duration": 10, "velocity": 40}, {"time": 189720, "pitch": 42, "duration": 10, "velocity": 78}, {"time": 189720, "pitch": 54, "duration": 10, "velocity": 39}, {"time": 189720, "pitch": 62, "duration": 10, "velocity": 60}, {"time": 189840, "pitch": 46, "duration": 10, "velocity": 75}, {"time": 189840, "pitch": 53, "duration": 60, "velocity": 90}, {"time": 189840, "pitch": 54, "duration": 10, "velocity": 44}, {"time": 189840, "pitch": 60, "duration": 10, "velocity": 60}, {"time": 189840, "pitch": 70, "duration": 70, "velocity": 100}, {"time": 189960, "pitch": 54, "duration": 10, "velocity": 37}, {"time": 190080, "pitch": 35, "duration": 10, "velocity": 82}, {"time": 190080, "pitch": 39, "duration": 10, "velocity": 85}, {"time": 190080, "pitch": 40, "duration": 10, "velocity": 89}, {"time": 190080, "pitch": 42, "duration": 10, "velocity": 84}, {"time": 190080, "pitch": 54, "duration": 10, "velocity": 49}, {"time": 190080, "pitch": 64, "duration": 10, "velocity": 60}, {"time": 190200, "pitch": 54, "duration": 10, "velocity": 39}, {"time": 190320, "pitch": 46, "duration": 10, "velocity": 75}, {"time": 190320, "pitch": 53, "duration": 70, "velocity": 90}, {"time": 190320, "pitch": 54, "duration": 10, "velocity": 44}, {"time": 190320, "pitch": 61, "duration": 10, "velocity": 55}, {"time": 190320, "pitch": 70, "duration": 70, "velocity": 100}, {"time": 190440, "pitch": 38, "duration": 10, "velocity": 40}, {"time": 190440, "pitch": 54, "duration": 10, "velocity": 37}, {"time": 190440, "pitch": 61, "duration": 10, "velocity": 50}, {"time": 190440, "pitch": 70, "duration": 70, "velocity": 50}, {"time": 190560, "pitch": 35, "duration": 10, "velocity": 90}, {"time": 190560, "pitch": 42, "duration": 10, "velocity": 84}, {"time": 190560, "pitch": 54, "duration": 10, "velocity": 86}, {"time": 190560, "pitch": 63, "duration": 10, "velocity": 55}, {"time": 190680, "pitch": 54, "duration": 10, "velocity": 39}, {"time": 190800, "pitch": 38, "duration": 10, "velocity": 40}, {"time": 190800, "pitch": 46, "duration": 10, "velocity": 75}, {"time": 190800, "pitch": 53, "duration": 90, "velocity": 90}, {"time": 190800, "pitch": 54, "duration": 10, "velocity": 44}, {"time": 190800, "pitch": 61, "duration": 10, "velocity": 50}, {"time": 190800, "pitch": 70, "duration": 70, "velocity": 100}, {"time": 190920, "pitch": 38, "duration": 10, "velocity": 40}, {"time": 190920, "pitch": 54, "duration": 10, "velocity": 37}, {"time": 190920, "pitch": 63, "duration": 10, "velocity": 61}, {"time": 190920, "pitch": 70, "duration": 70, "velocity": 50}, {"time": 191040, "pitch": 35, "duration": 10, "velocity": 87}, {"time": 191040, "pitch": 39, "duration": 10, "velocity": 85}, {"time": 191040, "pitch": 40, "duration": 10, "velocity": 85}, {"time": 191040, "pitch": 42, "duration": 10, "velocity": 84}, {"time": 191040, "pitch": 54, "duration": 10, "velocity": 49}, {"time": 191040, "pitch": 62, "duration": 10, "velocity": 80}, {"time": 191160, "pitch": 54, "duration": 10, "velocity": 39}, {"time": 191280, "pitch": 46, "duration": 10, "velocity": 75}, {"time": 191280, "pitch": 53, "duration": 70, "velocity": 90}, {"time": 191280, "pitch": 54, "duration": 10, "velocity": 44}, {"time": 191280, "pitch": 64, "duration": 10, "velocity": 70}, {"time": 191280, "pitch": 70, "duration": 70, "velocity": 100}, {"time": 191400, "pitch": 38, "duration": 10, "velocity": 40}, {"time": 191400, "pitch": 54, "duration": 10, "velocity": 37}, {"time": 191400, "pitch": 63, "duration": 10, "velocity": 60}, {"time": 191520, "pitch": 35, "duration": 10, "velocity": 89}, {"time": 191520, "pitch": 42, "duration": 10, "velocity": 84}, {"time": 191520, "pitch": 54, "duration": 10, "velocity": 86}, {"time": 191640, "pitch": 38, "duration": 10, "velocity": 40}, {"time": 191640, "pitch": 42, "duration": 10, "velocity": 78}, {"time": 191640, "pitch": 54, "duration": 10, "velocity": 39}, {"time": 191640, "pitch": 63, "duration": 10, "velocity": 60}, {"time": 191760, "pitch": 46, "duration": 10, "velocity": 75}, {"time": 191760, "pitch": 53, "duration": 60, "velocity": 90}, {"time": 191760, "pitch": 54, "duration": 10, "velocity": 44}, {"time": 191760, "pitch": 60, "duration": 10, "velocity": 50}, {"time": 191760, "pitch": 70, "duration": 70, "velocity": 100}, {"time": 191880, "pitch": 54, "duration": 10, "velocity": 37}, {"time": 192000, "pitch": 35, "duration": 10, "velocity": 82}, {"time": 192000, "pitch": 39, "duration": 10, "velocity": 85}, {"time": 192000, "pitch": 40, "duration": 10, "velocity": 89}, {"time": 192000, "pitch": 42, "duration": 10, "velocity": 84}, {"time": 192000, "pitch": 54, "duration": 10, "velocity": 49}, {"time": 192000, "pitch": 61, "duration": 10, "velocity": 80}, {"time": 192120, "pitch": 54, "duration": 10, "velocity": 39}, {"time": 192240, "pitch": 46, "duration": 10, "velocity": 75}, {"time": 192240, "pitch": 53, "duration": 70, "velocity": 90}, {"time": 192240, "pitch": 54, "duration": 10, "velocity": 44}, {"time": 192240, "pitch": 64, "duration": 10, "velocity": 55}, {"time": 192240, "pitch": 70, "duration": 70, "velocity": 100}, {"time": 192360, "pitch": 38, "duration": 10, "velocity": 40}, {"time": 192360, "pitch": 54, "duration": 10, "velocity": 37}, {"time": 192360, "pitch": 64, "duration": 10, "velocity": 50}, {"time": 192360, "pitch": 70, "duration": 70, "velocity": 50}, {"time": 192480, "pitch": 35, "duration": 10, "velocity": 90}, {"time": 192480, "pitch": 42, "duration": 10, "velocity": 84}, {"time": 192480, "pitch": 54, "duration": 10, "velocity": 86}, {"time": 192480, "pitch": 61, "duration": 10, "velocity": 55}, {"time": 192600, "pitch": 54, "duration": 10, "velocity": 39}, {"time": 192720, "pitch": 38, "duration": 10, "velocity": 40}, {"time": 192720, "pitch": 46, "duration": 10, "velocity": 75}, {"time": 192720, "pitch": 53, "duration": 90, "velocity": 90}, {"time": 192720, "pitch": 54, "duration": 10, "velocity": 44}, {"time": 192720, "pitch": 63, "duration": 10, "velocity": 50}, {"time": 192720, "pitch": 70, "duration": 70, "velocity": 100}, {"time": 192840, "pitch": 38, "duration": 10, "velocity": 40}, {"time": 192840, "pitch": 54, "duration": 10, "velocity": 37}, {"time": 192840, "pitch": 63, "duration": 10, "velocity": 53}, {"time": 192840, "pitch": 70, "duration": 70, "velocity": 50}, {"time": 192960, "pitch": 35, "duration": 10, "velocity": 87}, {"time": 192960, "pitch": 39, "duration": 10, "velocity": 85}, {"time": 192960, "pitch": 40, "duration": 10, "velocity": 85}, {"time": 192960, "pitch": 42, "duration": 10, "velocity": 84}, {"time": 192960, "pitch": 54, "duration": 10, "velocity": 49}, {"time": 192960, "pitch": 62, "duration": 10, "velocity": 80}, {"time": 193080, "pitch": 54, "duration": 10, "velocity": 39}, {"time": 193200, "pitch": 46, "duration": 10, "velocity": 75}, {"time": 193200, "pitch": 53, "duration": 70, "velocity": 90}, {"time": 193200, "pitch": 54, "duration": 10, "velocity": 44}, {"time": 193200, "pitch": 64, "duration": 10, "velocity": 70}, {"time": 193200, "pitch": 70, "duration": 70, "velocity": 100}, {"time": 193320, "pitch": 38, "duration": 10, "velocity": 40}, {"time": 193320, "pitch": 54, "duration": 10, "velocity": 37}, {"time": 193320, "pitch": 63, "duration": 10, "velocity": 60}, {"time": 193440, "pitch": 35, "duration": 10, "velocity": 89}, {"time": 193440, "pitch": 42, "duration": 10, "velocity": 84}, {"time": 193440, "pitch": 54, "duration": 10, "velocity": 86}, {"time": 193560, "pitch": 38, "duration": 10, "velocity": 40}, {"time": 193560, "pitch": 42, "duration": 10, "velocity": 78}, {"time": 193560, "pitch": 54, "duration": 10, "velocity": 39}, {"time": 193560, "pitch": 62, "duration": 10, "velocity": 60}, {"time": 193680, "pitch": 46, "duration": 10, "velocity": 75}, {"time": 193680, "pitch": 53, "duration": 60, "velocity": 90}, {"time": 193680, "pitch": 54, "duration": 10, "velocity": 44}, {"time": 193680, "pitch": 60, "duration": 10, "velocity": 60}, {"time": 193680, "pitch": 70, "duration": 70, "velocity": 100}, {"time": 193800, "pitch": 54, "duration": 10, "velocity": 37}, {"time": 193920, "pitch": 35, "duration": 10, "velocity": 82}, {"time": 193920, "pitch": 39, "duration": 10, "velocity": 85}, {"time": 193920, "pitch": 40, "duration": 10, "velocity": 89}, {"time": 193920, "pitch": 42, "duration": 10, "velocity": 84}, {"time": 193920, "pitch": 54, "duration": 10, "velocity": 49}, {"time": 193920, "pitch": 64, "duration": 10, "velocity": 60}, {"time": 194040, "pitch": 54, "duration": 10, "velocity": 39}, {"time": 194160, "pitch": 46, "duration": 10, "velocity": 75}, {"time": 194160, "pitch": 53, "duration": 70, "velocity": 90}, {"time": 194160, "pitch": 54, "duration": 10, "velocity": 44}, {"time": 194160, "pitch": 61, "duration": 10, "velocity": 55}, {"time": 194160, "pitch": 70, "duration": 70, "velocity": 100}, {"time": 194280, "pitch": 38, "duration": 10, "velocity": 40}, {"time": 194280, "pitch": 54, "duration": 10, "velocity": 37}, {"time": 194280, "pitch": 61, "duration": 10, "velocity": 50}, {"time": 194280, "pitch": 70, "duration": 70, "velocity": 50}, {"time": 194400, "pitch": 35, "duration": 10, "velocity": 90}, {"time": 194400, "pitch": 42, "duration": 10, "velocity": 84}, {"time": 194400, "pitch": 54, "duration": 10, "velocity": 86}, {"time": 194400, "pitch": 63, "duration": 10, "velocity": 55}, {"time": 194520, "pitch": 54, "duration": 10, "velocity": 39}, {"time": 194640, "pitch": 38, "duration": 10, "velocity": 40}, {"time": 194640, "pitch": 46, "duration": 10, "velocity": 75}, {"time": 194640, "pitch": 53, "duration": 90, "velocity": 90}, {"time": 194640, "pitch": 54, "duration": 10, "velocity": 44}, {"time": 194640, "pitch": 61, "duration": 10, "velocity": 50}, {"time": 194640, "pitch": 70, "duration": 70, "velocity": 100}, {"time": 194760, "pitch": 38, "duration": 10, "velocity": 40}, {"time": 194760, "pitch": 54, "duration": 10, "velocity": 37}, {"time": 194760, "pitch": 63, "duration": 10, "velocity": 61}, {"time": 194760, "pitch": 70, "duration": 70, "velocity": 50}, {"time": 194880, "pitch": 35, "duration": 10, "velocity": 87}, {"time": 194880, "pitch": 39, "duration": 10, "velocity": 85}, {"time": 194880, "pitch": 40, "duration": 10, "velocity": 85}, {"time": 194880, "pitch": 42, "duration": 10, "velocity": 84}, {"time": 194880, "pitch": 54, "duration": 10, "velocity": 49}, {"time": 194880, "pitch": 62, "duration": 10, "velocity": 80}, {"time": 195000, "pitch": 54, "duration": 10, "velocity": 39}, {"time": 195120, "pitch": 46, "duration": 10, "velocity": 75}, {"time": 195120, "pitch": 53, "duration": 70, "velocity": 90}, {"time": 195120, "pitch": 54, "duration": 10, "velocity": 44}, {"time": 195120, "pitch": 64, "duration": 10, "velocity": 70}, {"time": 195120, "pitch": 70, "duration": 70, "velocity": 100}, {"time": 195240, "pitch": 38, "duration": 10, "velocity": 40}, {"time": 195240, "pitch": 54, "duration": 10, "velocity": 37}, {"time": 195240, "pitch": 63, "duration": 10, "velocity": 60}, {"time": 195360, "pitch": 35, "duration": 10, "velocity": 89}, {"time": 195360, "pitch": 42, "duration": 10, "velocity": 84}, {"time": 195360, "pitch": 54, "duration": 10, "velocity": 86}, {"time": 195480, "pitch": 38, "duration": 10, "velocity": 40}, {"time": 195480, "pitch": 42, "duration": 10, "velocity": 78}, {"time": 195480, "pitch": 54, "duration": 10, "velocity": 39}, {"time": 195480, "pitch": 63, "duration": 10, "velocity": 60}, {"time": 195600, "pitch": 46, "duration": 10, "velocity": 75}, {"time": 195600, "pitch": 53, "duration": 60, "velocity": 90}, {"time": 195600, "pitch": 54, "duration": 10, "velocity": 44}, {"time": 195600, "pitch": 60, "duration": 10, "velocity": 50}, {"time": 195600, "pitch": 70, "duration": 70, "velocity": 100}, {"time": 195720, "pitch": 54, "duration": 10, "velocity": 37}, {"time": 195840, "pitch": 35, "duration": 10, "velocity": 82}, {"time": 195840, "pitch": 39, "duration": 10, "velocity": 85}, {"time": 195840, "pitch": 40, "duration": 10, "velocity": 89}, {"time": 195840, "pitch": 42, "duration": 10, "velocity": 84}, {"time": 195840, "pitch": 54, "duration": 10, "velocity": 49}, {"time": 195840, "pitch": 61, "duration": 10, "velocity": 80}, {"time": 195960, "pitch": 38, "duration": 10, "velocity": 56}, {"time": 195960, "pitch": 54, "duration": 10, "velocity": 39}, {"time": 196080, "pitch": 38, "duration": 10, "velocity": 74}, {"time": 196080, "pitch": 46, "duration": 10, "velocity": 75}, {"time": 196080, "pitch": 53, "duration": 70, "velocity": 90}, {"time": 196080, "pitch": 54, "duration": 10, "velocity": 44}, {"time": 196080, "pitch": 64, "duration": 10, "velocity": 55}, {"time": 196080, "pitch": 70, "duration": 70, "velocity": 100}, {"time": 196200, "pitch": 38, "duration": 10, "velocity": 40}, {"time": 196200, "pitch": 45, "duration": 10, "velocity": 81}, {"time": 196200, "pitch": 54, "duration": 10, "velocity": 37}, {"time": 196200, "pitch": 64, "duration": 10, "velocity": 50}, {"time": 196200, "pitch": 70, "duration": 70, "velocity": 50}, {"time": 196320, "pitch": 35, "duration": 10, "velocity": 90}, {"time": 196320, "pitch": 42, "duration": 10, "velocity": 84}, {"time": 196320, "pitch": 49, "duration": 10, "velocity": 60}, {"time": 196320, "pitch": 54, "duration": 10, "velocity": 86}, {"time": 196320, "pitch": 61, "duration": 10, "velocity": 55}, {"time": 196440, "pitch": 54, "duration": 10, "velocity": 39}, {"time": 196560, "pitch": 38, "duration": 10, "velocity": 40}, {"time": 196560, "pitch": 46, "duration": 10, "velocity": 75}, {"time": 196560, "pitch": 53, "duration": 90, "velocity": 90}, {"time": 196560, "pitch": 54, "duration": 10, "velocity": 44}, {"time": 196560, "pitch": 63, "duration": 10, "velocity": 50}, {"time": 196560, "pitch": 70, "duration": 70, "velocity": 100}, {"time": 196680, "pitch": 38, "duration": 10, "velocity": 40}, {"time": 196680, "pitch": 54, "duration": 10, "velocity": 37}, {"time": 196680, "pitch": 63, "duration": 10, "velocity": 53}, {"time": 196680, "pitch": 70, "duration": 70, "velocity": 50}, {"time": 196800, "pitch": 35, "duration": 10, "velocity": 87}, {"time": 196800, "pitch": 39, "duration": 10, "velocity": 85}, {"time": 196800, "pitch": 40, "duration": 10, "velocity": 85}, {"time": 196800, "pitch": 42, "duration": 10, "velocity": 84}, {"time": 196800, "pitch": 54, "duration": 10, "velocity": 49}, {"time": 196800, "pitch": 62, "duration": 10, "velocity": 80}, {"time": 196920, "pitch": 54, "duration": 10, "velocity": 39}, {"time": 197040, "pitch": 46, "duration": 10, "velocity": 75}, {"time": 197040, "pitch": 53, "duration": 70, "velocity": 90}, {"time": 197040, "pitch": 54, "duration": 10, "velocity": 44}, {"time": 197040, "pitch": 64, "duration": 10, "velocity": 70}, {"time": 197040, "pitch": 70, "duration": 70, "velocity": 100}, {"time": 197160, "pitch": 38, "duration": 10, "velocity": 40}, {"time": 197160, "pitch": 54, "duration": 10, "velocity": 37}, {"time": 197160, "pitch": 63, "duration": 10, "velocity": 60}, {"time": 197280, "pitch": 35, "duration": 10, "velocity": 89}, {"time": 197280, "pitch": 42, "duration": 10, "velocity": 84}, {"time": 197280, "pitch": 54, "duration": 10, "velocity": 86}, {"time": 197400, "pitch": 38, "duration": 10, "velocity": 40}, {"time": 197400, "pitch": 42, "duration": 10, "velocity": 78}, {"time": 197400, "pitch": 54, "duration": 10, "velocity": 39}, {"time": 197400, "pitch": 62, "duration": 10, "velocity": 60}, {"time": 197520, "pitch": 46, "duration": 10, "velocity": 75}, {"time": 197520, "pitch": 53, "duration": 60, "velocity": 90}, {"time": 197520, "pitch": 54, "duration": 10, "velocity": 44}, {"time": 197520, "pitch": 60, "duration": 10, "velocity": 60}, {"time": 197520, "pitch": 70, "duration": 70, "velocity": 100}, {"time": 197640, "pitch": 54, "duration": 10, "velocity": 37}, {"time": 197760, "pitch": 35, "duration": 10, "velocity": 82}, {"time": 197760, "pitch": 39, "duration": 10, "velocity": 85}, {"time": 197760, "pitch": 40, "duration": 10, "velocity": 89}, {"time": 197760, "pitch": 42, "duration": 10, "velocity": 84}, {"time": 197760, "pitch": 54, "duration": 10, "velocity": 49}, {"time": 197760, "pitch": 64, "duration": 10, "velocity": 60}, {"time": 197880, "pitch": 54, "duration": 10, "velocity": 39}, {"time": 198000, "pitch": 46, "duration": 10, "velocity": 75}, {"time": 198000, "pitch": 53, "duration": 70, "velocity": 90}, {"time": 198000, "pitch": 54, "duration": 10, "velocity": 44}, {"time": 198000, "pitch": 61, "duration": 10, "velocity": 55}, {"time": 198000, "pitch": 70, "duration": 70, "velocity": 100}, {"time": 198120, "pitch": 38, "duration": 10, "velocity": 40}, {"time": 198120, "pitch": 54, "duration": 10, "velocity": 37}, {"time": 198120, "pitch": 61, "duration": 10, "velocity": 50}, {"time": 198120, "pitch": 70, "duration": 70, "velocity": 50}, {"time": 198240, "pitch": 35, "duration": 10, "velocity": 90}, {"time": 198240, "pitch": 42, "duration": 10, "velocity": 84}, {"time": 198240, "pitch": 54, "duration": 10, "velocity": 86}, {"time": 198240, "pitch": 63, "duration": 10, "velocity": 55}, {"time": 198360, "pitch": 54, "duration": 10, "velocity": 39}, {"time": 198480, "pitch": 38, "duration": 10, "velocity": 40}, {"time": 198480, "pitch": 46, "duration": 10, "velocity": 75}, {"time": 198480, "pitch": 53, "duration": 90, "velocity": 90}, {"time": 198480, "pitch": 54, "duration": 10, "velocity": 44}, {"time": 198480, "pitch": 61, "duration": 10, "velocity": 50}, {"time": 198480, "pitch": 70, "duration": 70, "velocity": 100}, {"time": 198600, "pitch": 38, "duration": 10, "velocity": 40}, {"time": 198600, "pitch": 54, "duration": 10, "velocity": 37}, {"time": 198600, "pitch": 63, "duration": 10, "velocity": 61}, {"time": 198600, "pitch": 70, "duration": 70, "velocity": 50}, {"time": 198720, "pitch": 35, "duration": 10, "velocity": 87}, {"time": 198720, "pitch": 39, "duration": 10, "velocity": 85}, {"time": 198720, "pitch": 40, "duration": 10, "velocity": 85}, {"time": 198720, "pitch": 42, "duration": 10, "velocity": 84}, {"time": 198720, "pitch": 54, "duration": 10, "velocity": 49}, {"time": 198720, "pitch": 62, "duration": 10, "velocity": 80}, {"time": 198840, "pitch": 54, "duration": 10, "velocity": 39}, {"time": 198960, "pitch": 46, "duration": 10, "velocity": 75}, {"time": 198960, "pitch": 53, "duration": 70, "velocity": 90}, {"time": 198960, "pitch": 54, "duration": 10, "velocity": 44}, {"time": 198960, "pitch": 64, "duration": 10, "velocity": 70}, {"time": 198960, "pitch": 70, "duration": 70, "velocity": 100}, {"time": 199080, "pitch": 38, "duration": 10, "velocity": 40}, {"time": 199080, "pitch": 54, "duration": 10, "velocity": 37}, {"time": 199080, "pitch": 63, "duration": 10, "velocity": 60}, {"time": 199200, "pitch": 35, "duration": 10, "velocity": 89}, {"time": 199200, "pitch": 42, "duration": 10, "velocity": 84}, {"time": 199200, "pitch": 54, "duration": 10, "velocity": 86}, {"time": 199320, "pitch": 38, "duration": 10, "velocity": 40}, {"time": 199320, "pitch": 42, "duration": 10, "velocity": 78}, {"time": 199320, "pitch": 54, "duration": 10, "velocity": 39}, {"time": 199320, "pitch": 63, "duration": 10, "velocity": 60}, {"time": 199440, "pitch": 46, "duration": 10, "velocity": 75}, {"time": 199440, "pitch": 53, "duration": 60, "velocity": 90}, {"time": 199440, "pitch": 54, "duration": 10, "velocity": 44}, {"time": 199440, "pitch": 60, "duration": 10, "velocity": 50}, {"time": 199440, "pitch": 70, "duration": 70, "velocity": 100}, {"time": 199560, "pitch": 54, "duration": 10, "velocity": 37}, {"time": 199680, "pitch": 35, "duration": 10, "velocity": 82}, {"time": 199680, "pitch": 39, "duration": 10, "velocity": 85}, {"time": 199680, "pitch": 40, "duration": 10, "velocity": 89}, {"time": 199680, "pitch": 42, "duration": 10, "velocity": 84}, {"time": 199680, "pitch": 54, "duration": 10, "velocity": 49}, {"time": 199680, "pitch": 61, "duration": 10, "velocity": 80}, {"time": 199800, "pitch": 54, "duration": 10, "velocity": 39}, {"time": 199920, "pitch": 46, "duration": 10, "velocity": 75}, {"time": 199920, "pitch": 53, "duration": 70, "velocity": 90}, {"time": 199920, "pitch": 54, "duration": 10, "velocity": 44}, {"time": 199920, "pitch": 64, "duration": 10, "velocity": 55}, {"time": 199920, "pitch": 70, "duration": 70, "velocity": 100}, {"time": 200040, "pitch": 38, "duration": 10, "velocity": 40}, {"time": 200040, "pitch": 54, "duration": 10, "velocity": 37}, {"time": 200040, "pitch": 64, "duration": 10, "velocity": 50}, {"time": 200040, "pitch": 70, "duration": 70, "velocity": 50}, {"time": 200160, "pitch": 35, "duration": 10, "velocity": 90}, {"time": 200160, "pitch": 42, "duration": 10, "velocity": 84}, {"time": 200160, "pitch": 54, "duration": 10, "velocity": 86}, {"time": 200160, "pitch": 61, "duration": 10, "velocity": 55}, {"time": 200280, "pitch": 54, "duration": 10, "velocity": 39}, {"time": 200400, "pitch": 38, "duration": 10, "velocity": 40}, {"time": 200400, "pitch": 46, "duration": 10, "velocity": 75}, {"time": 200400, "pitch": 53, "duration": 90, "velocity": 90}, {"time": 200400, "pitch": 54, "duration": 10, "velocity": 44}, {"time": 200400, "pitch": 63, "duration": 10, "velocity": 50}, {"time": 200400, "pitch": 70, "duration": 70, "velocity": 100}, {"time": 200520, "pitch": 38, "duration": 10, "velocity": 40}, {"time": 200520, "pitch": 54, "duration": 10, "velocity": 37}, {"time": 200520, "pitch": 63, "duration": 10, "velocity": 53}, {"time": 200520, "pitch": 70, "duration": 70, "velocity": 50}, {"time": 200640, "pitch": 35, "duration": 10, "velocity": 87}, {"time": 200640, "pitch": 39, "duration": 10, "velocity": 85}, {"time": 200640, "pitch": 40, "duration": 10, "velocity": 85}, {"time": 200640, "pitch": 42, "duration": 10, "velocity": 84}, {"time": 200640, "pitch": 54, "duration": 10, "velocity": 49}, {"time": 200640, "pitch": 62, "duration": 10, "velocity": 80}, {"time": 200760, "pitch": 54, "duration": 10, "velocity": 39}, {"time": 200880, "pitch": 46, "duration": 10, "velocity": 75}, {"time": 200880, "pitch": 53, "duration": 70, "velocity": 90}, {"time": 200880, "pitch": 54, "duration": 10, "velocity": 44}, {"time": 200880, "pitch": 64, "duration": 10, "velocity": 70}, {"time": 200880, "pitch": 70, "duration": 70, "velocity": 100}, {"time": 201000, "pitch": 38, "duration": 10, "velocity": 40}, {"time": 201000, "pitch": 54, "duration": 10, "velocity": 37}, {"time": 201000, "pitch": 63, "duration": 10, "velocity": 60}, {"time": 201120, "pitch": 35, "duration": 10, "velocity": 89}, {"time": 201120, "pitch": 42, "duration": 10, "velocity": 84}, {"time": 201120, "pitch": 54, "duration": 10, "velocity": 86}, {"time": 201240, "pitch": 38, "duration": 10, "velocity": 40}, {"time": 201240, "pitch": 42, "duration": 10, "velocity": 78}, {"time": 201240, "pitch": 54, "duration": 10, "velocity": 39}, {"time": 201240, "pitch": 62, "duration": 10, "velocity": 60}, {"time": 201360, "pitch": 46, "duration": 10, "velocity": 75}, {"time": 201360, "pitch": 53, "duration": 60, "velocity": 90}, {"time": 201360, "pitch": 54, "duration": 10, "velocity": 44}, {"time": 201360, "pitch": 60, "duration": 10, "velocity": 60}, {"time": 201360, "pitch": 70, "duration": 70, "velocity": 100}, {"time": 201480, "pitch": 54, "duration": 10, "velocity": 37}, {"time": 201600, "pitch": 35, "duration": 10, "velocity": 82}, {"time": 201600, "pitch": 39, "duration": 10, "velocity": 85}, {"time": 201600, "pitch": 40, "duration": 10, "velocity": 89}, {"time": 201600, "pitch": 42, "duration": 10, "velocity": 84}, {"time": 201600, "pitch": 54, "duration": 10, "velocity": 49}, {"time": 201600, "pitch": 64, "duration": 10, "velocity": 60}, {"time": 201720, "pitch": 54, "duration": 10, "velocity": 39}, {"time": 201840, "pitch": 46, "duration": 10, "velocity": 75}, {"time": 201840, "pitch": 53, "duration": 70, "velocity": 90}, {"time": 201840, "pitch": 54, "duration": 10, "velocity": 44}, {"time": 201840, "pitch": 61, "duration": 10, "velocity": 55}, {"time": 201840, "pitch": 70, "duration": 70, "velocity": 100}, {"time": 201960, "pitch": 38, "duration": 10, "velocity": 40}, {"time": 201960, "pitch": 54, "duration": 10, "velocity": 37}, {"time": 201960, "pitch": 61, "duration": 10, "velocity": 50}, {"time": 201960, "pitch": 70, "duration": 70, "velocity": 50}, {"time": 202080, "pitch": 35, "duration": 10, "velocity": 90}, {"time": 202080, "pitch": 42, "duration": 10, "velocity": 84}, {"time": 202080, "pitch": 54, "duration": 10, "velocity": 86}, {"time": 202080, "pitch": 63, "duration": 10, "velocity": 55}, {"time": 202200, "pitch": 54, "duration": 10, "velocity": 39}, {"time": 202320, "pitch": 38, "duration": 10, "velocity": 40}, {"time": 202320, "pitch": 46, "duration": 10, "velocity": 75}, {"time": 202320, "pitch": 53, "duration": 90, "velocity": 90}, {"time": 202320, "pitch": 54, "duration": 10, "velocity": 44}, {"time": 202320, "pitch": 61, "duration": 10, "velocity": 50}, {"time": 202320, "pitch": 70, "duration": 70, "velocity": 100}, {"time": 202440, "pitch": 38, "duration": 10, "velocity": 40}, {"time": 202440, "pitch": 54, "duration": 10, "velocity": 37}, {"time": 202440, "pitch": 63, "duration": 10, "velocity": 61}, {"time": 202440, "pitch": 70, "duration": 70, "velocity": 50}, {"time": 202560, "pitch": 35, "duration": 10, "velocity": 87}, {"time": 202560, "pitch": 39, "duration": 10, "velocity": 85}, {"time": 202560, "pitch": 40, "duration": 10, "velocity": 85}, {"time": 202560, "pitch": 42, "duration": 10, "velocity": 84}, {"time": 202560, "pitch": 54, "duration": 10, "velocity": 49}, {"time": 202560, "pitch": 62, "duration": 10, "velocity": 80}, {"time": 202680, "pitch": 54, "duration": 10, "velocity": 39}, {"time": 202800, "pitch": 46, "duration": 10, "velocity": 75}, {"time": 202800, "pitch": 48, "duration": 10, "velocity": 92}, {"time": 202800, "pitch": 53, "duration": 70, "velocity": 90}, {"time": 202800, "pitch": 54, "duration": 10, "velocity": 44}, {"time": 202800, "pitch": 64, "duration": 10, "velocity": 70}, {"time": 202800, "pitch": 70, "duration": 70, "velocity": 100}, {"time": 202920, "pitch": 38, "duration": 10, "velocity": 40}, {"time": 202920, "pitch": 48, "duration": 10, "velocity": 76}, {"time": 202920, "pitch": 54, "duration": 10, "velocity": 37}, {"time": 202920, "pitch": 63, "duration": 10, "velocity": 60}, {"time": 203040, "pitch": 35, "duration": 10, "velocity": 89}, {"time": 203040, "pitch": 42, "duration": 10, "velocity": 84}, {"time": 203040, "pitch": 54, "duration": 10, "velocity": 86}, {"time": 203160, "pitch": 38, "duration": 10, "velocity": 40}, {"time": 203160, "pitch": 42, "duration": 10, "velocity": 78}, {"time": 203160, "pitch": 45, "duration": 10, "velocity": 72}, {"time": 203160, "pitch": 54, "duration": 10, "velocity": 39}, {"time": 203160, "pitch": 63, "duration": 10, "velocity": 60}, {"time": 203280, "pitch": 45, "duration": 10, "velocity": 91}, {"time": 203280, "pitch": 46, "duration": 10, "velocity": 75}, {"time": 203280, "pitch": 53, "duration": 60, "velocity": 90}, {"time": 203280, "pitch": 54, "duration": 10, "velocity": 44}, {"time": 203280, "pitch": 60, "duration": 10, "velocity": 50}, {"time": 203280, "pitch": 70, "duration": 70, "velocity": 100}, {"time": 203400, "pitch": 54, "duration": 10, "velocity": 37}, {"time": 203520, "pitch": 35, "duration": 10, "velocity": 82}, {"time": 203520, "pitch": 39, "duration": 10, "velocity": 85}, {"time": 203520, "pitch": 40, "duration": 10, "velocity": 89}, {"time": 203520, "pitch": 42, "duration": 10, "velocity": 84}, {"time": 203520, "pitch": 54, "duration": 10, "velocity": 49}, {"time": 203520, "pitch": 61, "duration": 10, "velocity": 80}, {"time": 203640, "pitch": 38, "duration": 10, "velocity": 20}, {"time": 203640, "pitch": 54, "duration": 10, "velocity": 39}, {"time": 203680, "pitch": 38, "duration": 10, "velocity": 26}, {"time": 203720, "pitch": 38, "duration": 10, "velocity": 52}, {"time": 203760, "pitch": 38, "duration": 10, "velocity": 74}, {"time": 203760, "pitch": 41, "duration": 10, "velocity": 91}, {"time": 203760, "pitch": 46, "duration": 10, "velocity": 75}, {"time": 203760, "pitch": 53, "duration": 70, "velocity": 90}, {"time": 203760, "pitch": 54, "duration": 10, "velocity": 44}, {"time": 203760, "pitch": 64, "duration": 10, "velocity": 55}, {"time": 203760, "pitch": 70, "duration": 70, "velocity": 100}, {"time": 203880, "pitch": 38, "duration": 10, "velocity": 40}, {"time": 203880, "pitch": 40, "duration": 10, "velocity": 83}, {"time": 203880, "pitch": 54, "duration": 10, "velocity": 37}, {"time": 203880, "pitch": 64, "duration": 10, "velocity": 50}, {"time": 203880, "pitch": 70, "duration": 70, "velocity": 50}, {"time": 203900, "pitch": 38, "duration": 10, "velocity": 50}, {"time": 204000, "pitch": 35, "duration": 10, "velocity": 90}, {"time": 204000, "pitch": 42, "duration": 10, "velocity": 84}, {"time": 204000, "pitch": 54, "duration": 10, "velocity": 86}, {"time": 204000, "pitch": 57, "duration": 10, "velocity": 68}, {"time": 204000, "pitch": 61, "duration": 10, "velocity": 55}, {"time": 204120, "pitch": 54, "duration": 10, "velocity": 39}, {"time": 204240, "pitch": 38, "duration": 10, "velocity": 40}, {"time": 204240, "pitch": 46, "duration": 10, "velocity": 75}, {"time": 204240, "pitch": 54, "duration": 10, "velocity": 44}, {"time": 204240, "pitch": 63, "duration": 10, "velocity": 50}, {"time": 204240, "pitch": 70, "duration": 70, "velocity": 100}, {"time": 204360, "pitch": 38, "duration": 10, "velocity": 40}, {"time": 204360, "pitch": 54, "duration": 10, "velocity": 37}, {"time": 204360, "pitch": 63, "duration": 10, "velocity": 53}, {"time": 204360, "pitch": 70, "duration": 70, "velocity": 50}, {"time": 204480, "pitch": 35, "duration": 10, "velocity": 87}, {"time": 204480, "pitch": 39, "duration": 10, "velocity": 85}, {"time": 204480, "pitch": 40, "duration": 10, "velocity": 85}, {"time": 204480, "pitch": 42, "duration": 10, "velocity": 84}, {"time": 204480, "pitch": 54, "duration": 10, "velocity": 49}, {"time": 204480, "pitch": 62, "duration": 10, "velocity": 80}, {"time": 204600, "pitch": 54, "duration": 10, "velocity": 39}, {"time": 204720, "pitch": 46, "duration": 10, "velocity": 75}, {"time": 204720, "pitch": 54, "duration": 10, "velocity": 44}, {"time": 204720, "pitch": 64, "duration": 10, "velocity": 70}, {"time": 204720, "pitch": 70, "duration": 70, "velocity": 100}, {"time": 204840, "pitch": 38, "duration": 10, "velocity": 40}, {"time": 204840, "pitch": 54, "duration": 10, "velocity": 37}, {"time": 204840, "pitch": 63, "duration": 10, "velocity": 60}, {"time": 204960, "pitch": 35, "duration": 10, "velocity": 89}, {"time": 204960, "pitch": 42, "duration": 10, "velocity": 84}, {"time": 204960, "pitch": 54, "duration": 10, "velocity": 86}, {"time": 205080, "pitch": 38, "duration": 10, "velocity": 40}, {"time": 205080, "pitch": 42, "duration": 10, "velocity": 78}, {"time": 205080, "pitch": 54, "duration": 10, "velocity": 39}, {"time": 205080, "pitch": 62, "duration": 10, "velocity": 60}, {"time": 205200, "pitch": 46, "duration": 10, "velocity": 75}, {"time": 205200, "pitch": 54, "duration": 10, "velocity": 44}, {"time": 205200, "pitch": 60, "duration": 10, "velocity": 60}, {"time": 205200, "pitch": 70, "duration": 70, "velocity": 100}, {"time": 205320, "pitch": 54, "duration": 10, "velocity": 37}, {"time": 205440, "pitch": 35, "duration": 10, "velocity": 82}, {"time": 205440, "pitch": 39, "duration": 10, "velocity": 85}, {"time": 205440, "pitch": 40, "duration": 10, "velocity": 89}, {"time": 205440, "pitch": 42, "duration": 10, "velocity": 84}, {"time": 205440, "pitch": 54, "duration": 10, "velocity": 49}, {"time": 205440, "pitch": 64, "duration": 10, "velocity": 60}, {"time": 205560, "pitch": 54, "duration": 10, "velocity": 39}, {"time": 205680, "pitch": 46, "duration": 10, "velocity": 75}, {"time": 205680, "pitch": 54, "duration": 10, "velocity": 44}, {"time": 205680, "pitch": 61, "duration": 10, "velocity": 55}, {"time": 205680, "pitch": 70, "duration": 70, "velocity": 100}, {"time": 205800, "pitch": 38, "duration": 10, "velocity": 40}, {"time": 205800, "pitch": 54, "duration": 10, "velocity": 37}, {"time": 205800, "pitch": 61, "duration": 10, "velocity": 50}, {"time": 205800, "pitch": 70, "duration": 70, "velocity": 50}, {"time": 205920, "pitch": 35, "duration": 10, "velocity": 90}, {"time": 205920, "pitch": 42, "duration": 10, "velocity": 84}, {"time": 205920, "pitch": 54, "duration": 10, "velocity": 86}, {"time": 205920, "pitch": 63, "duration": 10, "velocity": 55}, {"time": 206040, "pitch": 54, "duration": 10, "velocity": 39}, {"time": 206160, "pitch": 38, "duration": 10, "velocity": 40}, {"time": 206160, "pitch": 46, "duration": 10, "velocity": 75}, {"time": 206160, "pitch": 54, "duration": 10, "velocity": 44}, {"time": 206160, "pitch": 61, "duration": 10, "velocity": 50}, {"time": 206160, "pitch": 70, "duration": 70, "velocity": 100}, {"time": 206280, "pitch": 38, "duration": 10, "velocity": 40}, {"time": 206280, "pitch": 54, "duration": 10, "velocity": 37}, {"time": 206280, "pitch": 63, "duration": 10, "velocity": 61}, {"time": 206280, "pitch": 70, "duration": 70, "velocity": 50}, {"time": 206400, "pitch": 35, "duration": 10, "velocity": 87}, {"time": 206400, "pitch": 39, "duration": 10, "velocity": 85}, {"time": 206400, "pitch": 40, "duration": 10, "velocity": 85}, {"time": 206400, "pitch": 42, "duration": 10, "velocity": 84}, {"time": 206400, "pitch": 54, "duration": 10, "velocity": 49}, {"time": 206400, "pitch": 62, "duration": 10, "velocity": 80}, {"time": 206520, "pitch": 54, "duration": 10, "velocity": 39}, {"time": 206640, "pitch": 46, "duration": 10, "velocity": 75}, {"time": 206640, "pitch": 54, "duration": 10, "velocity": 44}, {"time": 206640, "pitch": 64, "duration": 10, "velocity": 70}, {"time": 206640, "pitch": 70, "duration": 70, "velocity": 100}, {"time": 206760, "pitch": 38, "duration": 10, "velocity": 40}, {"time": 206760, "pitch": 54, "duration": 10, "velocity": 37}, {"time": 206760, "pitch": 63, "duration": 10, "velocity": 60}, {"time": 206880, "pitch": 35, "duration": 10, "velocity": 89}, {"time": 206880, "pitch": 42, "duration": 10, "velocity": 84}, {"time": 206880, "pitch": 54, "duration": 10, "velocity": 86}, {"time": 207000, "pitch": 38, "duration": 10, "velocity": 40}, {"time": 207000, "pitch": 42, "duration": 10, "velocity": 78}, {"time": 207000, "pitch": 54, "duration": 10, "velocity": 39}, {"time": 207000, "pitch": 63, "duration": 10, "velocity": 60}, {"time": 207120, "pitch": 46, "duration": 10, "velocity": 75}, {"time": 207120, "pitch": 54, "duration": 10, "velocity": 44}, {"time": 207120, "pitch": 60, "duration": 10, "velocity": 50}, {"time": 207120, "pitch": 70, "duration": 70, "velocity": 100}, {"time": 207240, "pitch": 54, "duration": 10, "velocity": 37}, {"time": 207360, "pitch": 35, "duration": 10, "velocity": 82}, {"time": 207360, "pitch": 39, "duration": 10, "velocity": 85}, {"time": 207360, "pitch": 40, "duration": 10, "velocity": 89}, {"time": 207360, "pitch": 42, "duration": 10, "velocity": 84}, {"time": 207360, "pitch": 54, "duration": 10, "velocity": 49}, {"time": 207360, "pitch": 61, "duration": 10, "velocity": 80}, {"time": 207480, "pitch": 54, "duration": 10, "velocity": 39}, {"time": 207600, "pitch": 46, "duration": 10, "velocity": 75}, {"time": 207600, "pitch": 54, "duration": 10, "velocity": 44}, {"time": 207600, "pitch": 64, "duration": 10, "velocity": 55}, {"time": 207600, "pitch": 70, "duration": 70, "velocity": 100}, {"time": 207720, "pitch": 38, "duration": 10, "velocity": 40}, {"time": 207720, "pitch": 54, "duration": 10, "velocity": 37}, {"time": 207720, "pitch": 64, "duration": 10, "velocity": 50}, {"time": 207720, "pitch": 70, "duration": 70, "velocity": 50}, {"time": 207840, "pitch": 35, "duration": 10, "velocity": 90}, {"time": 207840, "pitch": 42, "duration": 10, "velocity": 84}, {"time": 207840, "pitch": 54, "duration": 10, "velocity": 86}, {"time": 207840, "pitch": 61, "duration": 10, "velocity": 55}, {"time": 207960, "pitch": 54, "duration": 10, "velocity": 39}, {"time": 208080, "pitch": 38, "duration": 10, "velocity": 40}, {"time": 208080, "pitch": 46, "duration": 10, "velocity": 75}, {"time": 208080, "pitch": 54, "duration": 10, "velocity": 44}, {"time": 208080, "pitch": 63, "duration": 10, "velocity": 50}, {"time": 208080, "pitch": 70, "duration": 70, "velocity": 100}, {"time": 208200, "pitch": 38, "duration": 10, "velocity": 40}, {"time": 208200, "pitch": 54, "duration": 10, "velocity": 37}, {"time": 208200, "pitch": 63, "duration": 10, "velocity": 53}, {"time": 208200, "pitch": 70, "duration": 70, "velocity": 50}, {"time": 208320, "pitch": 35, "duration": 10, "velocity": 87}, {"time": 208320, "pitch": 39, "duration": 10, "velocity": 85}, {"time": 208320, "pitch": 40, "duration": 10, "velocity": 85}, {"time": 208320, "pitch": 42, "duration": 10, "velocity": 84}, {"time": 208320, "pitch": 54, "duration": 10, "velocity": 49}, {"time": 208320, "pitch": 62, "duration": 10, "velocity": 80}, {"time": 208440, "pitch": 54, "duration": 10, "velocity": 39}, {"time": 208560, "pitch": 46, "duration": 10, "velocity": 75}, {"time": 208560, "pitch": 54, "duration": 10, "velocity": 44}, {"time": 208560, "pitch": 64, "duration": 10, "velocity": 70}, {"time": 208560, "pitch": 70, "duration": 70, "velocity": 100}, {"time": 208680, "pitch": 38, "duration": 10, "velocity": 40}, {"time": 208680, "pitch": 54, "duration": 10, "velocity": 37}, {"time": 208680, "pitch": 63, "duration": 10, "velocity": 60}, {"time": 208800, "pitch": 35, "duration": 10, "velocity": 89}, {"time": 208800, "pitch": 42, "duration": 10, "velocity": 84}, {"time": 208800, "pitch": 54, "duration": 10, "velocity": 86}, {"time": 208920, "pitch": 38, "duration": 10, "velocity": 40}, {"time": 208920, "pitch": 42, "duration": 10, "velocity": 78}, {"time": 208920, "pitch": 54, "duration": 10, "velocity": 39}, {"time": 208920, "pitch": 62, "duration": 10, "velocity": 60}, {"time": 209040, "pitch": 46, "duration": 10, "velocity": 75}, {"time": 209040, "pitch": 54, "duration": 10, "velocity": 44}, {"time": 209040, "pitch": 60, "duration": 10, "velocity": 60}, {"time": 209040, "pitch": 70, "duration": 70, "velocity": 100}, {"time": 209160, "pitch": 54, "duration": 10, "velocity": 37}, {"time": 209280, "pitch": 35, "duration": 10, "velocity": 82}, {"time": 209280, "pitch": 39, "duration": 10, "velocity": 85}, {"time": 209280, "pitch": 40, "duration": 10, "velocity": 89}, {"time": 209280, "pitch": 42, "duration": 10, "velocity": 84}, {"time": 209280, "pitch": 54, "duration": 10, "velocity": 49}, {"time": 209280, "pitch": 64, "duration": 10, "velocity": 60}, {"time": 209400, "pitch": 54, "duration": 10, "velocity": 39}, {"time": 209520, "pitch": 46, "duration": 10, "velocity": 75}, {"time": 209520, "pitch": 54, "duration": 10, "velocity": 44}, {"time": 209520, "pitch": 61, "duration": 10, "velocity": 55}, {"time": 209520, "pitch": 70, "duration": 70, "velocity": 100}, {"time": 209640, "pitch": 38, "duration": 10, "velocity": 40}, {"time": 209640, "pitch": 54, "duration": 10, "velocity": 37}, {"time": 209640, "pitch": 61, "duration": 10, "velocity": 50}, {"time": 209640, "pitch": 70, "duration": 70, "velocity": 50}, {"time": 209760, "pitch": 35, "duration": 10, "velocity": 90}, {"time": 209760, "pitch": 42, "duration": 10, "velocity": 84}, {"time": 209760, "pitch": 54, "duration": 10, "velocity": 86}, {"time": 209760, "pitch": 63, "duration": 10, "velocity": 55}, {"time": 209880, "pitch": 54, "duration": 10, "velocity": 39}, {"time": 210000, "pitch": 38, "duration": 10, "velocity": 40}, {"time": 210000, "pitch": 46, "duration": 10, "velocity": 75}, {"time": 210000, "pitch": 54, "duration": 10, "velocity": 44}, {"time": 210000, "pitch": 61, "duration": 10, "velocity": 50}, {"time": 210000, "pitch": 70, "duration": 70, "velocity": 100}, {"time": 210120, "pitch": 38, "duration": 10, "velocity": 40}, {"time": 210120, "pitch": 54, "duration": 10, "velocity": 37}, {"time": 210120, "pitch": 63, "duration": 10, "velocity": 61}, {"time": 210120, "pitch": 70, "duration": 70, "velocity": 50}, {"time": 210240, "pitch": 35, "duration": 10, "velocity": 87}, {"time": 210240, "pitch": 39, "duration": 10, "velocity": 85}, {"time": 210240, "pitch": 40, "duration": 10, "velocity": 85}, {"time": 210240, "pitch": 42, "duration": 10, "velocity": 84}, {"time": 210240, "pitch": 54, "duration": 10, "velocity": 49}, {"time": 210240, "pitch": 62, "duration": 10, "velocity": 80}, {"time": 210360, "pitch": 54, "duration": 10, "velocity": 39}, {"time": 210480, "pitch": 46, "duration": 10, "velocity": 75}, {"time": 210480, "pitch": 54, "duration": 10, "velocity": 44}, {"time": 210480, "pitch": 64, "duration": 10, "velocity": 70}, {"time": 210480, "pitch": 70, "duration": 70, "velocity": 100}, {"time": 210600, "pitch": 38, "duration": 10, "velocity": 40}, {"time": 210600, "pitch": 54, "duration": 10, "velocity": 37}, {"time": 210600, "pitch": 63, "duration": 10, "velocity": 60}, {"time": 210720, "pitch": 35, "duration": 10, "velocity": 89}, {"time": 210720, "pitch": 42, "duration": 10, "velocity": 84}, {"time": 210720, "pitch": 54, "duration": 10, "velocity": 86}, {"time": 210840, "pitch": 38, "duration": 10, "velocity": 40}, {"time": 210840, "pitch": 42, "duration": 10, "velocity": 78}, {"time": 210840, "pitch": 54, "duration": 10, "velocity": 39}, {"time": 210840, "pitch": 63, "duration": 10, "velocity": 60}, {"time": 210960, "pitch": 46, "duration": 10, "velocity": 75}, {"time": 210960, "pitch": 54, "duration": 10, "velocity": 44}, {"time": 210960, "pitch": 60, "duration": 10, "velocity": 50}, {"time": 210960, "pitch": 70, "duration": 70, "velocity": 100}, {"time": 211080, "pitch": 54, "duration": 10, "velocity": 37}, {"time": 211200, "pitch": 35, "duration": 10, "velocity": 82}, {"time": 211200, "pitch": 39, "duration": 10, "velocity": 85}, {"time": 211200, "pitch": 40, "duration": 10, "velocity": 89}, {"time": 211200, "pitch": 42, "duration": 10, "velocity": 84}, {"time": 211200, "pitch": 54, "duration": 10, "velocity": 49}, {"time": 211200, "pitch": 61, "duration": 10, "velocity": 80}, {"time": 211320, "pitch": 54, "duration": 10, "velocity": 39}, {"time": 211440, "pitch": 46, "duration": 10, "velocity": 75}, {"time": 211440, "pitch": 54, "duration": 10, "velocity": 44}, {"time": 211440, "pitch": 64, "duration": 10, "velocity": 55}, {"time": 211440, "pitch": 70, "duration": 70, "velocity": 100}, {"time": 211560, "pitch": 38, "duration": 10, "velocity": 40}, {"time": 211560, "pitch": 54, "duration": 10, "velocity": 37}, {"time": 211560, "pitch": 64, "duration": 10, "velocity": 50}, {"time": 211560, "pitch": 70, "duration": 70, "velocity": 50}, {"time": 211680, "pitch": 35, "duration": 10, "velocity": 90}, {"time": 211680, "pitch": 42, "duration": 10, "velocity": 84}, {"time": 211680, "pitch": 49, "duration": 10, "velocity": 60}, {"time": 211680, "pitch": 54, "duration": 10, "velocity": 86}, {"time": 211680, "pitch": 61, "duration": 10, "velocity": 55}, {"time": 211800, "pitch": 54, "duration": 10, "velocity": 39}, {"time": 211920, "pitch": 38, "duration": 10, "velocity": 40}, {"time": 211920, "pitch": 46, "duration": 10, "velocity": 75}, {"time": 211920, "pitch": 54, "duration": 10, "velocity": 44}, {"time": 211920, "pitch": 63, "duration": 10, "velocity": 50}, {"time": 211920, "pitch": 70, "duration": 70, "velocity": 100}, {"time": 212040, "pitch": 38, "duration": 10, "velocity": 40}, {"time": 212040, "pitch": 54, "duration": 10, "velocity": 37}, {"time": 212040, "pitch": 63, "duration": 10, "velocity": 53}, {"time": 212040, "pitch": 70, "duration": 70, "velocity": 50}, {"time": 212160, "pitch": 35, "duration": 10, "velocity": 87}, {"time": 212160, "pitch": 39, "duration": 10, "velocity": 85}, {"time": 212160, "pitch": 40, "duration": 10, "velocity": 85}, {"time": 212160, "pitch": 42, "duration": 10, "velocity": 84}, {"time": 212160, "pitch": 54, "duration": 10, "velocity": 49}, {"time": 212160, "pitch": 62, "duration": 10, "velocity": 80}, {"time": 212280, "pitch": 54, "duration": 10, "velocity": 39}, {"time": 212400, "pitch": 46, "duration": 10, "velocity": 75}, {"time": 212400, "pitch": 54, "duration": 10, "velocity": 44}, {"time": 212400, "pitch": 64, "duration": 10, "velocity": 70}, {"time": 212400, "pitch": 70, "duration": 70, "velocity": 100}, {"time": 212520, "pitch": 38, "duration": 10, "velocity": 40}, {"time": 212520, "pitch": 54, "duration": 10, "velocity": 37}, {"time": 212520, "pitch": 63, "duration": 10, "velocity": 60}, {"time": 212640, "pitch": 35, "duration": 10, "velocity": 89}, {"time": 212640, "pitch": 42, "duration": 10, "velocity": 84}, {"time": 212640, "pitch": 54, "duration": 10, "velocity": 86}, {"time": 212760, "pitch": 38, "duration": 10, "velocity": 40}, {"time": 212760, "pitch": 42, "duration": 10, "velocity": 78}, {"time": 212760, "pitch": 54, "duration": 10, "velocity": 39}, {"time": 212760, "pitch": 62, "duration": 10, "velocity": 60}, {"time": 212880, "pitch": 46, "duration": 10, "velocity": 75}, {"time": 212880, "pitch": 54, "duration": 10, "velocity": 44}, {"time": 212880, "pitch": 60, "duration": 10, "velocity": 60}, {"time": 212880, "pitch": 70, "duration": 70, "velocity": 100}, {"time": 213000, "pitch": 54, "duration": 10, "velocity": 37}, {"time": 213120, "pitch": 35, "duration": 10, "velocity": 82}, {"time": 213120, "pitch": 39, "duration": 10, "velocity": 85}, {"time": 213120, "pitch": 40, "duration": 10, "velocity": 89}, {"time": 213120, "pitch": 42, "duration": 10, "velocity": 84}, {"time": 213120, "pitch": 54, "duration": 10, "velocity": 49}, {"time": 213120, "pitch": 64, "duration": 10, "velocity": 60}, {"time": 213240, "pitch": 54, "duration": 10, "velocity": 39}, {"time": 213360, "pitch": 46, "duration": 10, "velocity": 75}, {"time": 213360, "pitch": 54, "duration": 10, "velocity": 44}, {"time": 213360, "pitch": 61, "duration": 10, "velocity": 55}, {"time": 213360, "pitch": 70, "duration": 70, "velocity": 100}, {"time": 213480, "pitch": 38, "duration": 10, "velocity": 40}, {"time": 213480, "pitch": 54, "duration": 10, "velocity": 37}, {"time": 213480, "pitch": 61, "duration": 10, "velocity": 50}, {"time": 213480, "pitch": 70, "duration": 70, "velocity": 50}, {"time": 213600, "pitch": 35, "duration": 10, "velocity": 90}, {"time": 213600, "pitch": 42, "duration": 10, "velocity": 84}, {"time": 213600, "pitch": 54, "duration": 10, "velocity": 86}, {"time": 213600, "pitch": 63, "duration": 10, "velocity": 55}, {"time": 213720, "pitch": 54, "duration": 10, "velocity": 39}, {"time": 213840, "pitch": 38, "duration": 10, "velocity": 40}, {"time": 213840, "pitch": 46, "duration": 10, "velocity": 75}, {"time": 213840, "pitch": 54, "duration": 10, "velocity": 44}, {"time": 213840, "pitch": 61, "duration": 10, "velocity": 50}, {"time": 213840, "pitch": 70, "duration": 70, "velocity": 100}, {"time": 213960, "pitch": 38, "duration": 10, "velocity": 40}, {"time": 213960, "pitch": 54, "duration": 10, "velocity": 37}, {"time": 213960, "pitch": 63, "duration": 10, "velocity": 61}, {"time": 213960, "pitch": 70, "duration": 70, "velocity": 50}, {"time": 214080, "pitch": 35, "duration": 10, "velocity": 87}, {"time": 214080, "pitch": 39, "duration": 10, "velocity": 85}, {"time": 214080, "pitch": 40, "duration": 10, "velocity": 85}, {"time": 214080, "pitch": 42, "duration": 10, "velocity": 84}, {"time": 214080, "pitch": 54, "duration": 10, "velocity": 49}, {"time": 214080, "pitch": 62, "duration": 10, "velocity": 80}, {"time": 214200, "pitch": 54, "duration": 10, "velocity": 39}, {"time": 214320, "pitch": 46, "duration": 10, "velocity": 75}, {"time": 214320, "pitch": 54, "duration": 10, "velocity": 44}, {"time": 214320, "pitch": 64, "duration": 10, "velocity": 70}, {"time": 214320, "pitch": 70, "duration": 70, "velocity": 100}, {"time": 214440, "pitch": 38, "duration": 10, "velocity": 40}, {"time": 214440, "pitch": 54, "duration": 10, "velocity": 37}, {"time": 214440, "pitch": 63, "duration": 10, "velocity": 60}, {"time": 214560, "pitch": 35, "duration": 10, "velocity": 89}, {"time": 214560, "pitch": 42, "duration": 10, "velocity": 84}, {"time": 214560, "pitch": 54, "duration": 10, "velocity": 86}, {"time": 214680, "pitch": 38, "duration": 10, "velocity": 40}, {"time": 214680, "pitch": 42, "duration": 10, "velocity": 78}, {"time": 214680, "pitch": 54, "duration": 10, "velocity": 39}, {"time": 214680, "pitch": 63, "duration": 10, "velocity": 60}, {"time": 214800, "pitch": 46, "duration": 10, "velocity": 75}, {"time": 214800, "pitch": 54, "duration": 10, "velocity": 44}, {"time": 214800, "pitch": 60, "duration": 10, "velocity": 50}, {"time": 214800, "pitch": 70, "duration": 70, "velocity": 100}, {"time": 214920, "pitch": 54, "duration": 10, "velocity": 37}, {"time": 215040, "pitch": 35, "duration": 10, "velocity": 82}, {"time": 215040, "pitch": 39, "duration": 10, "velocity": 85}, {"time": 215040, "pitch": 40, "duration": 10, "velocity": 89}, {"time": 215040, "pitch": 42, "duration": 10, "velocity": 84}, {"time": 215040, "pitch": 54, "duration": 10, "velocity": 49}, {"time": 215040, "pitch": 61, "duration": 10, "velocity": 80}, {"time": 215160, "pitch": 54, "duration": 10, "velocity": 39}, {"time": 215280, "pitch": 46, "duration": 10, "velocity": 75}, {"time": 215280, "pitch": 54, "duration": 10, "velocity": 44}, {"time": 215280, "pitch": 64, "duration": 10, "velocity": 55}, {"time": 215280, "pitch": 70, "duration": 70, "velocity": 100}, {"time": 215400, "pitch": 38, "duration": 10, "velocity": 40}, {"time": 215400, "pitch": 54, "duration": 10, "velocity": 37}, {"time": 215400, "pitch": 64, "duration": 10, "velocity": 50}, {"time": 215400, "pitch": 70, "duration": 70, "velocity": 50}, {"time": 215520, "pitch": 35, "duration": 10, "velocity": 90}, {"time": 215520, "pitch": 42, "duration": 10, "velocity": 84}, {"time": 215520, "pitch": 54, "duration": 10, "velocity": 86}, {"time": 215520, "pitch": 61, "duration": 10, "velocity": 55}, {"time": 215640, "pitch": 54, "duration": 10, "velocity": 39}, {"time": 215760, "pitch": 38, "duration": 10, "velocity": 40}, {"time": 215760, "pitch": 46, "duration": 10, "velocity": 75}, {"time": 215760, "pitch": 54, "duration": 10, "velocity": 44}, {"time": 215760, "pitch": 63, "duration": 10, "velocity": 50}, {"time": 215760, "pitch": 70, "duration": 70, "velocity": 100}, {"time": 215880, "pitch": 38, "duration": 10, "velocity": 40}, {"time": 215880, "pitch": 54, "duration": 10, "velocity": 37}, {"time": 215880, "pitch": 63, "duration": 10, "velocity": 53}, {"time": 215880, "pitch": 70, "duration": 70, "velocity": 50}, {"time": 216000, "pitch": 35, "duration": 10, "velocity": 87}, {"time": 216000, "pitch": 39, "duration": 10, "velocity": 85}, {"time": 216000, "pitch": 40, "duration": 10, "velocity": 85}, {"time": 216000, "pitch": 42, "duration": 10, "velocity": 84}, {"time": 216000, "pitch": 54, "duration": 10, "velocity": 49}, {"time": 216000, "pitch": 62, "duration": 10, "velocity": 80}, {"time": 216120, "pitch": 54, "duration": 10, "velocity": 39}, {"time": 216240, "pitch": 46, "duration": 10, "velocity": 75}, {"time": 216240, "pitch": 54, "duration": 10, "velocity": 44}, {"time": 216240, "pitch": 64, "duration": 10, "velocity": 70}, {"time": 216240, "pitch": 70, "duration": 70, "velocity": 100}, {"time": 216360, "pitch": 38, "duration": 10, "velocity": 40}, {"time": 216360, "pitch": 54, "duration": 10, "velocity": 37}, {"time": 216360, "pitch": 63, "duration": 10, "velocity": 60}, {"time": 216480, "pitch": 35, "duration": 10, "velocity": 89}, {"time": 216480, "pitch": 42, "duration": 10, "velocity": 84}, {"time": 216480, "pitch": 54, "duration": 10, "velocity": 86}, {"time": 216600, "pitch": 38, "duration": 10, "velocity": 40}, {"time": 216600, "pitch": 42, "duration": 10, "velocity": 78}, {"time": 216600, "pitch": 54, "duration": 10, "velocity": 39}, {"time": 216600, "pitch": 62, "duration": 10, "velocity": 60}, {"time": 216720, "pitch": 46, "duration": 10, "velocity": 75}, {"time": 216720, "pitch": 54, "duration": 10, "velocity": 44}, {"time": 216720, "pitch": 60, "duration": 10, "velocity": 60}, {"time": 216720, "pitch": 70, "duration": 70, "velocity": 100}, {"time": 216840, "pitch": 54, "duration": 10, "velocity": 37}, {"time": 216960, "pitch": 35, "duration": 10, "velocity": 82}, {"time": 216960, "pitch": 39, "duration": 10, "velocity": 85}, {"time": 216960, "pitch": 40, "duration": 10, "velocity": 89}, {"time": 216960, "pitch": 42, "duration": 10, "velocity": 84}, {"time": 216960, "pitch": 54, "duration": 10, "velocity": 49}, {"time": 216960, "pitch": 64, "duration": 10, "velocity": 60}, {"time": 217080, "pitch": 54, "duration": 10, "velocity": 39}, {"time": 217200, "pitch": 46, "duration": 10, "velocity": 75}, {"time": 217200, "pitch": 54, "duration": 10, "velocity": 44}, {"time": 217200, "pitch": 61, "duration": 10, "velocity": 55}, {"time": 217200, "pitch": 70, "duration": 70, "velocity": 100}, {"time": 217320, "pitch": 38, "duration": 10, "velocity": 40}, {"time": 217320, "pitch": 54, "duration": 10, "velocity": 37}, {"time": 217320, "pitch": 61, "duration": 10, "velocity": 50}, {"time": 217320, "pitch": 70, "duration": 70, "velocity": 50}, {"time": 217440, "pitch": 35, "duration": 10, "velocity": 90}, {"time": 217440, "pitch": 42, "duration": 10, "velocity": 84}, {"time": 217440, "pitch": 54, "duration": 10, "velocity": 86}, {"time": 217440, "pitch": 63, "duration": 10, "velocity": 55}, {"time": 217560, "pitch": 54, "duration": 10, "velocity": 39}, {"time": 217680, "pitch": 38, "duration": 10, "velocity": 40}, {"time": 217680, "pitch": 46, "duration": 10, "velocity": 75}, {"time": 217680, "pitch": 54, "duration": 10, "velocity": 44}, {"time": 217680, "pitch": 61, "duration": 10, "velocity": 50}, {"time": 217680, "pitch": 70, "duration": 70, "velocity": 100}, {"time": 217800, "pitch": 38, "duration": 10, "velocity": 40}, {"time": 217800, "pitch": 54, "duration": 10, "velocity": 37}, {"time": 217800, "pitch": 63, "duration": 10, "velocity": 61}, {"time": 217800, "pitch": 70, "duration": 70, "velocity": 50}, {"time": 217920, "pitch": 35, "duration": 10, "velocity": 87}, {"time": 217920, "pitch": 39, "duration": 10, "velocity": 85}, {"time": 217920, "pitch": 40, "duration": 10, "velocity": 85}, {"time": 217920, "pitch": 42, "duration": 10, "velocity": 84}, {"time": 217920, "pitch": 54, "duration": 10, "velocity": 49}, {"time": 217920, "pitch": 62, "duration": 10, "velocity": 80}, {"time": 218040, "pitch": 54, "duration": 10, "velocity": 39}, {"time": 218160, "pitch": 46, "duration": 10, "velocity": 75}, {"time": 218160, "pitch": 54, "duration": 10, "velocity": 44}, {"time": 218160, "pitch": 64, "duration": 10, "velocity": 70}, {"time": 218160, "pitch": 70, "duration": 70, "velocity": 100}, {"time": 218280, "pitch": 38, "duration": 10, "velocity": 40}, {"time": 218280, "pitch": 54, "duration": 10, "velocity": 37}, {"time": 218280, "pitch": 63, "duration": 10, "velocity": 60}, {"time": 218400, "pitch": 35, "duration": 10, "velocity": 89}, {"time": 218400, "pitch": 42, "duration": 10, "velocity": 84}, {"time": 218400, "pitch": 54, "duration": 10, "velocity": 86}, {"time": 218520, "pitch": 38, "duration": 10, "velocity": 40}, {"time": 218520, "pitch": 42, "duration": 10, "velocity": 78}, {"time": 218520, "pitch": 54, "duration": 10, "velocity": 39}, {"time": 218520, "pitch": 63, "duration": 10, "velocity": 60}, {"time": 218640, "pitch": 46, "duration": 10, "velocity": 75}, {"time": 218640, "pitch": 54, "duration": 10, "velocity": 44}, {"time": 218640, "pitch": 60, "duration": 10, "velocity": 50}, {"time": 218640, "pitch": 70, "duration": 70, "velocity": 100}, {"time": 218760, "pitch": 54, "duration": 10, "velocity": 37}, {"time": 218880, "pitch": 35, "duration": 10, "velocity": 82}, {"time": 218880, "pitch": 39, "duration": 10, "velocity": 85}, {"time": 218880, "pitch": 40, "duration": 10, "velocity": 89}, {"time": 218880, "pitch": 42, "duration": 10, "velocity": 84}, {"time": 218880, "pitch": 54, "duration": 10, "velocity": 49}, {"time": 218880, "pitch": 61, "duration": 10, "velocity": 80}, {"time": 219000, "pitch": 54, "duration": 10, "velocity": 39}, {"time": 219120, "pitch": 46, "duration": 10, "velocity": 75}, {"time": 219120, "pitch": 54, "duration": 10, "velocity": 44}, {"time": 219120, "pitch": 64, "duration": 10, "velocity": 55}, {"time": 219120, "pitch": 70, "duration": 70, "velocity": 100}, {"time": 219240, "pitch": 38, "duration": 10, "velocity": 40}, {"time": 219240, "pitch": 54, "duration": 10, "velocity": 37}, {"time": 219240, "pitch": 64, "duration": 10, "velocity": 50}, {"time": 219240, "pitch": 70, "duration": 70, "velocity": 50}, {"time": 219360, "pitch": 35, "duration": 10, "velocity": 90}, {"time": 219360, "pitch": 42, "duration": 10, "velocity": 84}, {"time": 219360, "pitch": 54, "duration": 10, "velocity": 86}, {"time": 219360, "pitch": 57, "duration": 10, "velocity": 68}, {"time": 219360, "pitch": 61, "duration": 10, "velocity": 55}, {"time": 219480, "pitch": 54, "duration": 10, "velocity": 39}, {"time": 219600, "pitch": 38, "duration": 10, "velocity": 40}, {"time": 219600, "pitch": 46, "duration": 10, "velocity": 75}, {"time": 219600, "pitch": 54, "duration": 10, "velocity": 44}, {"time": 219600, "pitch": 63, "duration": 10, "velocity": 50}, {"time": 219600, "pitch": 70, "duration": 70, "velocity": 100}, {"time": 219720, "pitch": 38, "duration": 10, "velocity": 40}, {"time": 219720, "pitch": 54, "duration": 10, "velocity": 37}, {"time": 219720, "pitch": 63, "duration": 10, "velocity": 53}, {"time": 219720, "pitch": 70, "duration": 70, "velocity": 50}, {"time": 219840, "pitch": 35, "duration": 10, "velocity": 87}, {"time": 219840, "pitch": 39, "duration": 10, "velocity": 85}, {"time": 219840, "pitch": 40, "duration": 10, "velocity": 85}, {"time": 219840, "pitch": 42, "duration": 10, "velocity": 84}, {"time": 219840, "pitch": 54, "duration": 10, "velocity": 49}, {"time": 219840, "pitch": 62, "duration": 10, "velocity": 80}, {"time": 219960, "pitch": 54, "duration": 10, "velocity": 39}, {"time": 220080, "pitch": 46, "duration": 10, "velocity": 75}, {"time": 220080, "pitch": 54, "duration": 10, "velocity": 44}, {"time": 220080, "pitch": 64, "duration": 10, "velocity": 70}, {"time": 220080, "pitch": 70, "duration": 70, "velocity": 100}, {"time": 220200, "pitch": 38, "duration": 10, "velocity": 40}, {"time": 220200, "pitch": 54, "duration": 10, "velocity": 37}, {"time": 220200, "pitch": 63, "duration": 10, "velocity": 60}, {"time": 220320, "pitch": 35, "duration": 10, "velocity": 89}, {"time": 220320, "pitch": 42, "duration": 10, "velocity": 84}, {"time": 220320, "pitch": 54, "duration": 10, "velocity": 86}, {"time": 220440, "pitch": 38, "duration": 10, "velocity": 40}, {"time": 220440, "pitch": 42, "duration": 10, "velocity": 78}, {"time": 220440, "pitch": 54, "duration": 10, "velocity": 39}, {"time": 220440, "pitch": 62, "duration": 10, "velocity": 60}, {"time": 220560, "pitch": 46, "duration": 10, "velocity": 75}, {"time": 220560, "pitch": 54, "duration": 10, "velocity": 44}, {"time": 220560, "pitch": 60, "duration": 10, "velocity": 60}, {"time": 220560, "pitch": 70, "duration": 70, "velocity": 100}, {"time": 220680, "pitch": 54, "duration": 10, "velocity": 37}, {"time": 220800, "pitch": 35, "duration": 10, "velocity": 82}, {"time": 220800, "pitch": 39, "duration": 10, "velocity": 85}, {"time": 220800, "pitch": 40, "duration": 10, "velocity": 89}, {"time": 220800, "pitch": 42, "duration": 10, "velocity": 84}, {"time": 220800, "pitch": 54, "duration": 10, "velocity": 49}, {"time": 220800, "pitch": 64, "duration": 10, "velocity": 60}, {"time": 220920, "pitch": 54, "duration": 10, "velocity": 39}, {"time": 221040, "pitch": 46, "duration": 10, "velocity": 75}, {"time": 221040, "pitch": 54, "duration": 10, "velocity": 44}, {"time": 221040, "pitch": 61, "duration": 10, "velocity": 55}, {"time": 221040, "pitch": 70, "duration": 70, "velocity": 100}, {"time": 221160, "pitch": 38, "duration": 10, "velocity": 40}, {"time": 221160, "pitch": 54, "duration": 10, "velocity": 37}, {"time": 221160, "pitch": 61, "duration": 10, "velocity": 50}, {"time": 221160, "pitch": 70, "duration": 70, "velocity": 50}, {"time": 221280, "pitch": 35, "duration": 10, "velocity": 90}, {"time": 221280, "pitch": 42, "duration": 10, "velocity": 84}, {"time": 221280, "pitch": 54, "duration": 10, "velocity": 86}, {"time": 221280, "pitch": 63, "duration": 10, "velocity": 55}, {"time": 221400, "pitch": 54, "duration": 10, "velocity": 39}, {"time": 221520, "pitch": 38, "duration": 10, "velocity": 40}, {"time": 221520, "pitch": 46, "duration": 10, "velocity": 75}, {"time": 221520, "pitch": 54, "duration": 10, "velocity": 44}, {"time": 221520, "pitch": 61, "duration": 10, "velocity": 50}, {"time": 221520, "pitch": 70, "duration": 70, "velocity": 100}, {"time": 221640, "pitch": 38, "duration": 10, "velocity": 40}, {"time": 221640, "pitch": 54, "duration": 10, "velocity": 37}, {"time": 221640, "pitch": 63, "duration": 10, "velocity": 61}, {"time": 221640, "pitch": 70, "duration": 70, "velocity": 50}, {"time": 221760, "pitch": 35, "duration": 10, "velocity": 87}, {"time": 221760, "pitch": 39, "duration": 10, "velocity": 85}, {"time": 221760, "pitch": 40, "duration": 10, "velocity": 85}, {"time": 221760, "pitch": 42, "duration": 10, "velocity": 84}, {"time": 221760, "pitch": 54, "duration": 10, "velocity": 49}, {"time": 221760, "pitch": 62, "duration": 10, "velocity": 80}, {"time": 221880, "pitch": 54, "duration": 10, "velocity": 39}, {"time": 222000, "pitch": 46, "duration": 10, "velocity": 75}, {"time": 222000, "pitch": 54, "duration": 10, "velocity": 44}, {"time": 222000, "pitch": 64, "duration": 10, "velocity": 70}, {"time": 222000, "pitch": 70, "duration": 70, "velocity": 100}, {"time": 222120, "pitch": 38, "duration": 10, "velocity": 40}, {"time": 222120, "pitch": 54, "duration": 10, "velocity": 37}, {"time": 222120, "pitch": 63, "duration": 10, "velocity": 60}, {"time": 222240, "pitch": 35, "duration": 10, "velocity": 89}, {"time": 222240, "pitch": 42, "duration": 10, "velocity": 84}, {"time": 222240, "pitch": 54, "duration": 10, "velocity": 86}, {"time": 222360, "pitch": 38, "duration": 10, "velocity": 40}, {"time": 222360, "pitch": 42, "duration": 10, "velocity": 78}, {"time": 222360, "pitch": 54, "duration": 10, "velocity": 39}, {"time": 222360, "pitch": 63, "duration": 10, "velocity": 60}, {"time": 222480, "pitch": 46, "duration": 10, "velocity": 75}, {"time": 222480, "pitch": 54, "duration": 10, "velocity": 44}, {"time": 222480, "pitch": 60, "duration": 10, "velocity": 50}, {"time": 222480, "pitch": 70, "duration": 70, "velocity": 100}, {"time": 222600, "pitch": 54, "duration": 10, "velocity": 37}, {"time": 222720, "pitch": 35, "duration": 10, "velocity": 82}, {"time": 222720, "pitch": 39, "duration": 10, "velocity": 85}, {"time": 222720, "pitch": 40, "duration": 10, "velocity": 89}, {"time": 222720, "pitch": 42, "duration": 10, "velocity": 84}, {"time": 222720, "pitch": 54, "duration": 10, "velocity": 49}, {"time": 222720, "pitch": 61, "duration": 10, "velocity": 80}, {"time": 222840, "pitch": 54, "duration": 10, "velocity": 39}, {"time": 222960, "pitch": 46, "duration": 10, "velocity": 75}, {"time": 222960, "pitch": 54, "duration": 10, "velocity": 44}, {"time": 222960, "pitch": 64, "duration": 10, "velocity": 55}, {"time": 222960, "pitch": 70, "duration": 70, "velocity": 100}, {"time": 223080, "pitch": 38, "duration": 10, "velocity": 40}, {"time": 223080, "pitch": 54, "duration": 10, "velocity": 37}, {"time": 223080, "pitch": 64, "duration": 10, "velocity": 50}, {"time": 223080, "pitch": 70, "duration": 70, "velocity": 50}, {"time": 223200, "pitch": 35, "duration": 10, "velocity": 90}, {"time": 223200, "pitch": 42, "duration": 10, "velocity": 84}, {"time": 223200, "pitch": 54, "duration": 10, "velocity": 86}, {"time": 223200, "pitch": 61, "duration": 10, "velocity": 55}, {"time": 223320, "pitch": 54, "duration": 10, "velocity": 39}, {"time": 223440, "pitch": 38, "duration": 10, "velocity": 40}, {"time": 223440, "pitch": 46, "duration": 10, "velocity": 75}, {"time": 223440, "pitch": 54, "duration": 10, "velocity": 44}, {"time": 223440, "pitch": 63, "duration": 10, "velocity": 50}, {"time": 223440, "pitch": 70, "duration": 70, "velocity": 100}, {"time": 223560, "pitch": 38, "duration": 10, "velocity": 40}, {"time": 223560, "pitch": 54, "duration": 10, "velocity": 37}, {"time": 223560, "pitch": 63, "duration": 10, "velocity": 53}, {"time": 223560, "pitch": 70, "duration": 70, "velocity": 50}, {"time": 223680, "pitch": 35, "duration": 10, "velocity": 87}, {"time": 223680, "pitch": 39, "duration": 10, "velocity": 85}, {"time": 223680, "pitch": 40, "duration": 10, "velocity": 85}, {"time": 223680, "pitch": 42, "duration": 10, "velocity": 84}, {"time": 223680, "pitch": 54, "duration": 10, "velocity": 49}, {"time": 223680, "pitch": 62, "duration": 10, "velocity": 80}, {"time": 223800, "pitch": 54, "duration": 10, "velocity": 39}, {"time": 223920, "pitch": 46, "duration": 10, "velocity": 75}, {"time": 223920, "pitch": 54, "duration": 10, "velocity": 44}, {"time": 223920, "pitch": 64, "duration": 10, "velocity": 70}, {"time": 223920, "pitch": 70, "duration": 70, "velocity": 100}, {"time": 224040, "pitch": 38, "duration": 10, "velocity": 40}, {"time": 224040, "pitch": 54, "duration": 10, "velocity": 37}, {"time": 224040, "pitch": 63, "duration": 10, "velocity": 60}, {"time": 224160, "pitch": 35, "duration": 10, "velocity": 89}, {"time": 224160, "pitch": 42, "duration": 10, "velocity": 84}, {"time": 224160, "pitch": 54, "duration": 10, "velocity": 86}, {"time": 224280, "pitch": 38, "duration": 10, "velocity": 40}, {"time": 224280, "pitch": 42, "duration": 10, "velocity": 78}, {"time": 224280, "pitch": 54, "duration": 10, "velocity": 39}, {"time": 224280, "pitch": 62, "duration": 10, "velocity": 60}, {"time": 224400, "pitch": 46, "duration": 10, "velocity": 75}, {"time": 224400, "pitch": 54, "duration": 10, "velocity": 44}, {"time": 224400, "pitch": 60, "duration": 10, "velocity": 60}, {"time": 224400, "pitch": 70, "duration": 70, "velocity": 100}, {"time": 224520, "pitch": 54, "duration": 10, "velocity": 37}, {"time": 224640, "pitch": 35, "duration": 10, "velocity": 82}, {"time": 224640, "pitch": 39, "duration": 10, "velocity": 85}, {"time": 224640, "pitch": 40, "duration": 10, "velocity": 89}, {"time": 224640, "pitch": 42, "duration": 10, "velocity": 84}, {"time": 224640, "pitch": 54, "duration": 10, "velocity": 49}, {"time": 224640, "pitch": 64, "duration": 10, "velocity": 60}, {"time": 224760, "pitch": 54, "duration": 10, "velocity": 39}, {"time": 224880, "pitch": 46, "duration": 10, "velocity": 75}, {"time": 224880, "pitch": 54, "duration": 10, "velocity": 44}, {"time": 224880, "pitch": 61, "duration": 10, "velocity": 55}, {"time": 224880, "pitch": 70, "duration": 70, "velocity": 100}, {"time": 225000, "pitch": 38, "duration": 10, "velocity": 40}, {"time": 225000, "pitch": 54, "duration": 10, "velocity": 37}, {"time": 225000, "pitch": 61, "duration": 10, "velocity": 50}, {"time": 225000, "pitch": 70, "duration": 70, "velocity": 50}, {"time": 225120, "pitch": 35, "duration": 10, "velocity": 90}, {"time": 225120, "pitch": 42, "duration": 10, "velocity": 84}, {"time": 225120, "pitch": 54, "duration": 10, "velocity": 86}, {"time": 225120, "pitch": 63, "duration": 10, "velocity": 55}, {"time": 225240, "pitch": 54, "duration": 10, "velocity": 39}, {"time": 225360, "pitch": 38, "duration": 10, "velocity": 40}, {"time": 225360, "pitch": 46, "duration": 10, "velocity": 75}, {"time": 225360, "pitch": 54, "duration": 10, "velocity": 44}, {"time": 225360, "pitch": 61, "duration": 10, "velocity": 50}, {"time": 225360, "pitch": 70, "duration": 70, "velocity": 100}, {"time": 225480, "pitch": 38, "duration": 10, "velocity": 40}, {"time": 225480, "pitch": 54, "duration": 10, "velocity": 37}, {"time": 225480, "pitch": 63, "duration": 10, "velocity": 61}, {"time": 225480, "pitch": 70, "duration": 70, "velocity": 50}, {"time": 225600, "pitch": 35, "duration": 10, "velocity": 87}, {"time": 225600, "pitch": 39, "duration": 10, "velocity": 85}, {"time": 225600, "pitch": 40, "duration": 10, "velocity": 85}, {"time": 225600, "pitch": 42, "duration": 10, "velocity": 84}, {"time": 225600, "pitch": 54, "duration": 10, "velocity": 49}, {"time": 225600, "pitch": 62, "duration": 10, "velocity": 80}, {"time": 225720, "pitch": 54, "duration": 10, "velocity": 39}, {"time": 225840, "pitch": 46, "duration": 10, "velocity": 75}, {"time": 225840, "pitch": 54, "duration": 10, "velocity": 44}, {"time": 225840, "pitch": 64, "duration": 10, "velocity": 70}, {"time": 225840, "pitch": 70, "duration": 70, "velocity": 100}, {"time": 225960, "pitch": 38, "duration": 10, "velocity": 40}, {"time": 225960, "pitch": 54, "duration": 10, "velocity": 37}, {"time": 225960, "pitch": 63, "duration": 10, "velocity": 60}, {"time": 226080, "pitch": 35, "duration": 10, "velocity": 89}, {"time": 226080, "pitch": 42, "duration": 10, "velocity": 84}, {"time": 226080, "pitch": 54, "duration": 10, "velocity": 86}, {"time": 226200, "pitch": 38, "duration": 10, "velocity": 40}, {"time": 226200, "pitch": 42, "duration": 10, "velocity": 78}, {"time": 226200, "pitch": 54, "duration": 10, "velocity": 39}, {"time": 226200, "pitch": 63, "duration": 10, "velocity": 60}, {"time": 226320, "pitch": 46, "duration": 10, "velocity": 75}, {"time": 226320, "pitch": 54, "duration": 10, "velocity": 44}, {"time": 226320, "pitch": 60, "duration": 10, "velocity": 50}, {"time": 226320, "pitch": 70, "duration": 70, "velocity": 100}, {"time": 226440, "pitch": 54, "duration": 10, "velocity": 37}, {"time": 226560, "pitch": 35, "duration": 10, "velocity": 82}, {"time": 226560, "pitch": 39, "duration": 10, "velocity": 85}, {"time": 226560, "pitch": 40, "duration": 10, "velocity": 89}, {"time": 226560, "pitch": 42, "duration": 10, "velocity": 84}, {"time": 226560, "pitch": 54, "duration": 10, "velocity": 49}, {"time": 226560, "pitch": 61, "duration": 10, "velocity": 80}, {"time": 226680, "pitch": 54, "duration": 10, "velocity": 39}, {"time": 226800, "pitch": 46, "duration": 10, "velocity": 75}, {"time": 226800, "pitch": 54, "duration": 10, "velocity": 44}, {"time": 226800, "pitch": 64, "duration": 10, "velocity": 55}, {"time": 226800, "pitch": 70, "duration": 70, "velocity": 100}, {"time": 226920, "pitch": 38, "duration": 10, "velocity": 40}, {"time": 226920, "pitch": 54, "duration": 10, "velocity": 37}, {"time": 226920, "pitch": 64, "duration": 10, "velocity": 50}, {"time": 226920, "pitch": 70, "duration": 70, "velocity": 50}, {"time": 227040, "pitch": 35, "duration": 10, "velocity": 90}, {"time": 227040, "pitch": 42, "duration": 10, "velocity": 84}, {"time": 227040, "pitch": 49, "duration": 10, "velocity": 60}, {"time": 227040, "pitch": 54, "duration": 10, "velocity": 86}, {"time": 227040, "pitch": 61, "duration": 10, "velocity": 55}, {"time": 227160, "pitch": 54, "duration": 10, "velocity": 39}, {"time": 227280, "pitch": 38, "duration": 10, "velocity": 40}, {"time": 227280, "pitch": 46, "duration": 10, "velocity": 75}, {"time": 227280, "pitch": 54, "duration": 10, "velocity": 44}, {"time": 227280, "pitch": 63, "duration": 10, "velocity": 50}, {"time": 227280, "pitch": 70, "duration": 70, "velocity": 100}, {"time": 227400, "pitch": 38, "duration": 10, "velocity": 40}, {"time": 227400, "pitch": 54, "duration": 10, "velocity": 37}, {"time": 227400, "pitch": 63, "duration": 10, "velocity": 53}, {"time": 227400, "pitch": 70, "duration": 70, "velocity": 50}, {"time": 227520, "pitch": 35, "duration": 10, "velocity": 87}, {"time": 227520, "pitch": 39, "duration": 10, "velocity": 85}, {"time": 227520, "pitch": 40, "duration": 10, "velocity": 85}, {"time": 227520, "pitch": 42, "duration": 10, "velocity": 84}, {"time": 227520, "pitch": 54, "duration": 10, "velocity": 49}, {"time": 227520, "pitch": 62, "duration": 10, "velocity": 80}, {"time": 227640, "pitch": 54, "duration": 10, "velocity": 39}, {"time": 227760, "pitch": 46, "duration": 10, "velocity": 75}, {"time": 227760, "pitch": 54, "duration": 10, "velocity": 44}, {"time": 227760, "pitch": 64, "duration": 10, "velocity": 70}, {"time": 227760, "pitch": 70, "duration": 70, "velocity": 100}, {"time": 227880, "pitch": 38, "duration": 10, "velocity": 40}, {"time": 227880, "pitch": 54, "duration": 10, "velocity": 37}, {"time": 227880, "pitch": 63, "duration": 10, "velocity": 60}, {"time": 228000, "pitch": 35, "duration": 10, "velocity": 89}, {"time": 228000, "pitch": 42, "duration": 10, "velocity": 84}, {"time": 228000, "pitch": 54, "duration": 10, "velocity": 86}, {"time": 228120, "pitch": 38, "duration": 10, "velocity": 40}, {"time": 228120, "pitch": 42, "duration": 10, "velocity": 78}, {"time": 228120, "pitch": 54, "duration": 10, "velocity": 39}, {"time": 228120, "pitch": 62, "duration": 10, "velocity": 60}, {"time": 228240, "pitch": 46, "duration": 10, "velocity": 75}, {"time": 228240, "pitch": 54, "duration": 10, "velocity": 44}, {"time": 228240, "pitch": 60, "duration": 10, "velocity": 60}, {"time": 228240, "pitch": 70, "duration": 70, "velocity": 100}, {"time": 228360, "pitch": 54, "duration": 10, "velocity": 37}, {"time": 228480, "pitch": 35, "duration": 10, "velocity": 82}, {"time": 228480, "pitch": 39, "duration": 10, "velocity": 85}, {"time": 228480, "pitch": 40, "duration": 10, "velocity": 89}, {"time": 228480, "pitch": 42, "duration": 10, "velocity": 84}, {"time": 228480, "pitch": 54, "duration": 10, "velocity": 49}, {"time": 228480, "pitch": 64, "duration": 10, "velocity": 60}, {"time": 228600, "pitch": 54, "duration": 10, "velocity": 39}, {"time": 228720, "pitch": 46, "duration": 10, "velocity": 75}, {"time": 228720, "pitch": 54, "duration": 10, "velocity": 44}, {"time": 228720, "pitch": 61, "duration": 10, "velocity": 55}, {"time": 228720, "pitch": 70, "duration": 70, "velocity": 100}, {"time": 228840, "pitch": 38, "duration": 10, "velocity": 40}, {"time": 228840, "pitch": 54, "duration": 10, "velocity": 37}, {"time": 228840, "pitch": 61, "duration": 10, "velocity": 50}, {"time": 228840, "pitch": 70, "duration": 70, "velocity": 50}, {"time": 228960, "pitch": 35, "duration": 10, "velocity": 90}, {"time": 228960, "pitch": 42, "duration": 10, "velocity": 84}, {"time": 228960, "pitch": 54, "duration": 10, "velocity": 86}, {"time": 228960, "pitch": 63, "duration": 10, "velocity": 55}, {"time": 229080, "pitch": 54, "duration": 10, "velocity": 39}, {"time": 229200, "pitch": 38, "duration": 10, "velocity": 40}, {"time": 229200, "pitch": 46, "duration": 10, "velocity": 75}, {"time": 229200, "pitch": 54, "duration": 10, "velocity": 44}, {"time": 229200, "pitch": 61, "duration": 10, "velocity": 50}, {"time": 229200, "pitch": 70, "duration": 70, "velocity": 100}, {"time": 229320, "pitch": 38, "duration": 10, "velocity": 40}, {"time": 229320, "pitch": 54, "duration": 10, "velocity": 37}, {"time": 229320, "pitch": 63, "duration": 10, "velocity": 61}, {"time": 229320, "pitch": 70, "duration": 70, "velocity": 50}, {"time": 229440, "pitch": 35, "duration": 10, "velocity": 87}, {"time": 229440, "pitch": 39, "duration": 10, "velocity": 85}, {"time": 229440, "pitch": 40, "duration": 10, "velocity": 85}, {"time": 229440, "pitch": 42, "duration": 10, "velocity": 84}, {"time": 229440, "pitch": 54, "duration": 10, "velocity": 49}, {"time": 229440, "pitch": 62, "duration": 10, "velocity": 80}, {"time": 229560, "pitch": 54, "duration": 10, "velocity": 39}, {"time": 229680, "pitch": 46, "duration": 10, "velocity": 75}, {"time": 229680, "pitch": 54, "duration": 10, "velocity": 44}, {"time": 229680, "pitch": 64, "duration": 10, "velocity": 70}, {"time": 229680, "pitch": 70, "duration": 70, "velocity": 100}, {"time": 229800, "pitch": 38, "duration": 10, "velocity": 40}, {"time": 229800, "pitch": 54, "duration": 10, "velocity": 37}, {"time": 229800, "pitch": 63, "duration": 10, "velocity": 60}, {"time": 229920, "pitch": 35, "duration": 10, "velocity": 89}, {"time": 229920, "pitch": 42, "duration": 10, "velocity": 84}, {"time": 229920, "pitch": 54, "duration": 10, "velocity": 86}, {"time": 230040, "pitch": 38, "duration": 10, "velocity": 40}, {"time": 230040, "pitch": 42, "duration": 10, "velocity": 78}, {"time": 230040, "pitch": 54, "duration": 10, "velocity": 39}, {"time": 230040, "pitch": 63, "duration": 10, "velocity": 60}, {"time": 230160, "pitch": 46, "duration": 10, "velocity": 75}, {"time": 230160, "pitch": 54, "duration": 10, "velocity": 44}, {"time": 230160, "pitch": 60, "duration": 10, "velocity": 50}, {"time": 230160, "pitch": 70, "duration": 70, "velocity": 100}, {"time": 230280, "pitch": 54, "duration": 10, "velocity": 37}, {"time": 230400, "pitch": 35, "duration": 10, "velocity": 82}, {"time": 230400, "pitch": 39, "duration": 10, "velocity": 85}, {"time": 230400, "pitch": 40, "duration": 10, "velocity": 89}, {"time": 230400, "pitch": 42, "duration": 10, "velocity": 84}, {"time": 230400, "pitch": 54, "duration": 10, "velocity": 49}, {"time": 230400, "pitch": 61, "duration": 10, "velocity": 80}, {"time": 230520, "pitch": 54, "duration": 10, "velocity": 39}, {"time": 230640, "pitch": 46, "duration": 10, "velocity": 75}, {"time": 230640, "pitch": 54, "duration": 10, "velocity": 44}, {"time": 230640, "pitch": 64, "duration": 10, "velocity": 55}, {"time": 230640, "pitch": 70, "duration": 70, "velocity": 100}, {"time": 230760, "pitch": 38, "duration": 10, "velocity": 40}, {"time": 230760, "pitch": 54, "duration": 10, "velocity": 37}, {"time": 230760, "pitch": 64, "duration": 10, "velocity": 50}, {"time": 230760, "pitch": 70, "duration": 70, "velocity": 50}, {"time": 230880, "pitch": 35, "duration": 10, "velocity": 90}, {"time": 230880, "pitch": 42, "duration": 10, "velocity": 84}, {"time": 230880, "pitch": 54, "duration": 10, "velocity": 86}, {"time": 230880, "pitch": 61, "duration": 10, "velocity": 55}, {"time": 231000, "pitch": 54, "duration": 10, "velocity": 39}, {"time": 231120, "pitch": 38, "duration": 10, "velocity": 40}, {"time": 231120, "pitch": 46, "duration": 10, "velocity": 75}, {"time": 231120, "pitch": 54, "duration": 10, "velocity": 44}, {"time": 231120, "pitch": 63, "duration": 10, "velocity": 50}, {"time": 231120, "pitch": 70, "duration": 70, "velocity": 100}, {"time": 231240, "pitch": 38, "duration": 10, "velocity": 40}, {"time": 231240, "pitch": 54, "duration": 10, "velocity": 37}, {"time": 231240, "pitch": 63, "duration": 10, "velocity": 53}, {"time": 231240, "pitch": 70, "duration": 70, "velocity": 50}, {"time": 231360, "pitch": 35, "duration": 10, "velocity": 87}, {"time": 231360, "pitch": 39, "duration": 10, "velocity": 85}, {"time": 231360, "pitch": 40, "duration": 10, "velocity": 85}, {"time": 231360, "pitch": 42, "duration": 10, "velocity": 84}, {"time": 231360, "pitch": 54, "duration": 10, "velocity": 49}, {"time": 231360, "pitch": 62, "duration": 10, "velocity": 80}, {"time": 231480, "pitch": 54, "duration": 10, "velocity": 39}, {"time": 231600, "pitch": 46, "duration": 10, "velocity": 75}, {"time": 231600, "pitch": 54, "duration": 10, "velocity": 44}, {"time": 231600, "pitch": 64, "duration": 10, "velocity": 70}, {"time": 231600, "pitch": 70, "duration": 70, "velocity": 100}, {"time": 231720, "pitch": 38, "duration": 10, "velocity": 40}, {"time": 231720, "pitch": 54, "duration": 10, "velocity": 37}, {"time": 231720, "pitch": 63, "duration": 10, "velocity": 60}, {"time": 231840, "pitch": 35, "duration": 10, "velocity": 89}, {"time": 231840, "pitch": 42, "duration": 10, "velocity": 84}, {"time": 231840, "pitch": 54, "duration": 10, "velocity": 86}, {"time": 231960, "pitch": 38, "duration": 10, "velocity": 40}, {"time": 231960, "pitch": 42, "duration": 10, "velocity": 78}, {"time": 231960, "pitch": 54, "duration": 10, "velocity": 39}, {"time": 231960, "pitch": 62, "duration": 10, "velocity": 60}, {"time": 232080, "pitch": 46, "duration": 10, "velocity": 75}, {"time": 232080, "pitch": 54, "duration": 10, "velocity": 44}, {"time": 232080, "pitch": 60, "duration": 10, "velocity": 60}, {"time": 232080, "pitch": 70, "duration": 70, "velocity": 100}, {"time": 232200, "pitch": 54, "duration": 10, "velocity": 37}, {"time": 232320, "pitch": 35, "duration": 10, "velocity": 82}, {"time": 232320, "pitch": 39, "duration": 10, "velocity": 85}, {"time": 232320, "pitch": 40, "duration": 10, "velocity": 89}, {"time": 232320, "pitch": 42, "duration": 10, "velocity": 84}, {"time": 232320, "pitch": 54, "duration": 10, "velocity": 49}, {"time": 232320, "pitch": 64, "duration": 10, "velocity": 60}, {"time": 232440, "pitch": 54, "duration": 10, "velocity": 39}, {"time": 232560, "pitch": 46, "duration": 10, "velocity": 75}, {"time": 232560, "pitch": 54, "duration": 10, "velocity": 44}, {"time": 232560, "pitch": 61, "duration": 10, "velocity": 55}, {"time": 232560, "pitch": 70, "duration": 70, "velocity": 100}, {"time": 232680, "pitch": 38, "duration": 10, "velocity": 40}, {"time": 232680, "pitch": 54, "duration": 10, "velocity": 37}, {"time": 232680, "pitch": 61, "duration": 10, "velocity": 50}, {"time": 232680, "pitch": 70, "duration": 70, "velocity": 50}, {"time": 232800, "pitch": 35, "duration": 10, "velocity": 90}, {"time": 232800, "pitch": 42, "duration": 10, "velocity": 84}, {"time": 232800, "pitch": 54, "duration": 10, "velocity": 86}, {"time": 232800, "pitch": 63, "duration": 10, "velocity": 55}, {"time": 232920, "pitch": 54, "duration": 10, "velocity": 39}, {"time": 233040, "pitch": 38, "duration": 10, "velocity": 40}, {"time": 233040, "pitch": 46, "duration": 10, "velocity": 75}, {"time": 233040, "pitch": 54, "duration": 10, "velocity": 44}, {"time": 233040, "pitch": 61, "duration": 10, "velocity": 50}, {"time": 233040, "pitch": 70, "duration": 70, "velocity": 100}, {"time": 233160, "pitch": 38, "duration": 10, "velocity": 40}, {"time": 233160, "pitch": 54, "duration": 10, "velocity": 37}, {"time": 233160, "pitch": 63, "duration": 10, "velocity": 61}, {"time": 233160, "pitch": 70, "duration": 70, "velocity": 50}, {"time": 233280, "pitch": 35, "duration": 10, "velocity": 87}, {"time": 233280, "pitch": 39, "duration": 10, "velocity": 85}, {"time": 233280, "pitch": 40, "duration": 10, "velocity": 85}, {"time": 233280, "pitch": 42, "duration": 10, "velocity": 84}, {"time": 233280, "pitch": 54, "duration": 10, "velocity": 49}, {"time": 233280, "pitch": 62, "duration": 10, "velocity": 80}, {"time": 233400, "pitch": 54, "duration": 10, "velocity": 39}, {"time": 233520, "pitch": 46, "duration": 10, "velocity": 75}, {"time": 233520, "pitch": 54, "duration": 10, "velocity": 44}, {"time": 233520, "pitch": 64, "duration": 10, "velocity": 70}, {"time": 233520, "pitch": 70, "duration": 70, "velocity": 100}, {"time": 233640, "pitch": 38, "duration": 10, "velocity": 40}, {"time": 233640, "pitch": 54, "duration": 10, "velocity": 37}, {"time": 233640, "pitch": 63, "duration": 10, "velocity": 60}, {"time": 233760, "pitch": 35, "duration": 10, "velocity": 89}, {"time": 233760, "pitch": 42, "duration": 10, "velocity": 84}, {"time": 233760, "pitch": 54, "duration": 10, "velocity": 86}, {"time": 233880, "pitch": 38, "duration": 10, "velocity": 40}, {"time": 233880, "pitch": 42, "duration": 10, "velocity": 78}, {"time": 233880, "pitch": 54, "duration": 10, "velocity": 39}, {"time": 233880, "pitch": 63, "duration": 10, "velocity": 60}, {"time": 234000, "pitch": 46, "duration": 10, "velocity": 75}, {"time": 234000, "pitch": 54, "duration": 10, "velocity": 44}, {"time": 234000, "pitch": 60, "duration": 10, "velocity": 50}, {"time": 234000, "pitch": 70, "duration": 70, "velocity": 100}, {"time": 234120, "pitch": 54, "duration": 10, "velocity": 37}, {"time": 234240, "pitch": 35, "duration": 10, "velocity": 82}, {"time": 234240, "pitch": 39, "duration": 10, "velocity": 85}, {"time": 234240, "pitch": 40, "duration": 10, "velocity": 89}, {"time": 234240, "pitch": 42, "duration": 10, "velocity": 84}, {"time": 234240, "pitch": 54, "duration": 10, "velocity": 49}, {"time": 234240, "pitch": 61, "duration": 10, "velocity": 80}, {"time": 234360, "pitch": 54, "duration": 10, "velocity": 39}, {"time": 234480, "pitch": 46, "duration": 10, "velocity": 75}, {"time": 234480, "pitch": 54, "duration": 10, "velocity": 44}, {"time": 234480, "pitch": 64, "duration": 10, "velocity": 55}, {"time": 234480, "pitch": 70, "duration": 70, "velocity": 100}, {"time": 234600, "pitch": 38, "duration": 10, "velocity": 40}, {"time": 234600, "pitch": 54, "duration": 10, "velocity": 37}, {"time": 234600, "pitch": 64, "duration": 10, "velocity": 50}, {"time": 234600, "pitch": 70, "duration": 70, "velocity": 50}, {"time": 234720, "pitch": 35, "duration": 10, "velocity": 90}, {"time": 234720, "pitch": 42, "duration": 10, "velocity": 84}, {"time": 234720, "pitch": 54, "duration": 10, "velocity": 86}, {"time": 234720, "pitch": 61, "duration": 10, "velocity": 55}, {"time": 234840, "pitch": 54, "duration": 10, "velocity": 39}, {"time": 234960, "pitch": 38, "duration": 10, "velocity": 40}, {"time": 234960, "pitch": 46, "duration": 10, "velocity": 75}, {"time": 234960, "pitch": 50, "duration": 10, "velocity": 95}, {"time": 234960, "pitch": 54, "duration": 10, "velocity": 44}, {"time": 234960, "pitch": 63, "duration": 10, "velocity": 50}, {"time": 235080, "pitch": 38, "duration": 10, "velocity": 40}, {"time": 235080, "pitch": 54, "duration": 10, "velocity": 37}, {"time": 235080, "pitch": 63, "duration": 10, "velocity": 53}, {"time": 235200, "pitch": 35, "duration": 10, "velocity": 87}, {"time": 235200, "pitch": 39, "duration": 10, "velocity": 85}, {"time": 235200, "pitch": 40, "duration": 10, "velocity": 85}, {"time": 235200, "pitch": 42, "duration": 10, "velocity": 84}, {"time": 235200, "pitch": 54, "duration": 10, "velocity": 49}, {"time": 235200, "pitch": 62, "duration": 10, "velocity": 80}, {"time": 235320, "pitch": 54, "duration": 10, "velocity": 39}, {"time": 235440, "pitch": 46, "duration": 10, "velocity": 75}, {"time": 235440, "pitch": 48, "duration": 10, "velocity": 82}, {"time": 235440, "pitch": 54, "duration": 10, "velocity": 44}, {"time": 235440, "pitch": 64, "duration": 10, "velocity": 70}, {"time": 235560, "pitch": 38, "duration": 10, "velocity": 40}, {"time": 235560, "pitch": 54, "duration": 10, "velocity": 37}, {"time": 235560, "pitch": 63, "duration": 10, "velocity": 60}, {"time": 235680, "pitch": 35, "duration": 10, "velocity": 89}, {"time": 235680, "pitch": 42, "duration": 10, "velocity": 84}, {"time": 235680, "pitch": 54, "duration": 10, "velocity": 86}, {"time": 235800, "pitch": 38, "duration": 10, "velocity": 40}, {"time": 235800, "pitch": 42, "duration": 10, "velocity": 78}, {"time": 235800, "pitch": 45, "duration": 10, "velocity": 56}, {"time": 235800, "pitch": 54, "duration": 10, "velocity": 39}, {"time": 235800, "pitch": 62, "duration": 10, "velocity": 60}, {"time": 235920, "pitch": 45, "duration": 10, "velocity": 79}, {"time": 235920, "pitch": 46, "duration": 10, "velocity": 75}, {"time": 235920, "pitch": 54, "duration": 10, "velocity": 44}, {"time": 235920, "pitch": 60, "duration": 10, "velocity": 60}, {"time": 236040, "pitch": 54, "duration": 10, "velocity": 37}, {"time": 236160, "pitch": 35, "duration": 10, "velocity": 82}, {"time": 236160, "pitch": 39, "duration": 10, "velocity": 85}, {"time": 236160, "pitch": 40, "duration": 10, "velocity": 89}, {"time": 236160, "pitch": 42, "duration": 10, "velocity": 84}, {"time": 236160, "pitch": 54, "duration": 10, "velocity": 49}, {"time": 236160, "pitch": 64, "duration": 10, "velocity": 60}, {"time": 236280, "pitch": 54, "duration": 10, "velocity": 39}, {"time": 236400, "pitch": 41, "duration": 10, "velocity": 81}, {"time": 236400, "pitch": 46, "duration": 10, "velocity": 75}, {"time": 236400, "pitch": 54, "duration": 10, "velocity": 44}, {"time": 236400, "pitch": 61, "duration": 10, "velocity": 55}, {"time": 236520, "pitch": 38, "duration": 10, "velocity": 40}, {"time": 236520, "pitch": 54, "duration": 10, "velocity": 37}, {"time": 236520, "pitch": 61, "duration": 10, "velocity": 50}, {"time": 236640, "pitch": 35, "duration": 10, "velocity": 90}, {"time": 236640, "pitch": 42, "duration": 10, "velocity": 84}, {"time": 236640, "pitch": 54, "duration": 10, "velocity": 86}, {"time": 236640, "pitch": 63, "duration": 10, "velocity": 55}, {"time": 236760, "pitch": 54, "duration": 10, "velocity": 39}, {"time": 236880, "pitch": 38, "duration": 10, "velocity": 40}, {"time": 236880, "pitch": 46, "duration": 10, "velocity": 75}, {"time": 236880, "pitch": 50, "duration": 10, "velocity": 95}, {"time": 236880, "pitch": 54, "duration": 10, "velocity": 44}, {"time": 236880, "pitch": 61, "duration": 10, "velocity": 50}, {"time": 237000, "pitch": 38, "duration": 10, "velocity": 40}, {"time": 237000, "pitch": 54, "duration": 10, "velocity": 37}, {"time": 237000, "pitch": 63, "duration": 10, "velocity": 61}, {"time": 237120, "pitch": 35, "duration": 10, "velocity": 87}, {"time": 237120, "pitch": 39, "duration": 10, "velocity": 85}, {"time": 237120, "pitch": 40, "duration": 10, "velocity": 85}, {"time": 237120, "pitch": 42, "duration": 10, "velocity": 84}, {"time": 237120, "pitch": 54, "duration": 10, "velocity": 49}, {"time": 237120, "pitch": 62, "duration": 10, "velocity": 80}, {"time": 237240, "pitch": 54, "duration": 10, "velocity": 39}, {"time": 237360, "pitch": 46, "duration": 10, "velocity": 75}, {"time": 237360, "pitch": 48, "duration": 10, "velocity": 82}, {"time": 237360, "pitch": 54, "duration": 10, "velocity": 44}, {"time": 237360, "pitch": 64, "duration": 10, "velocity": 70}, {"time": 237480, "pitch": 38, "duration": 10, "velocity": 40}, {"time": 237480, "pitch": 54, "duration": 10, "velocity": 37}, {"time": 237480, "pitch": 63, "duration": 10, "velocity": 60}, {"time": 237600, "pitch": 35, "duration": 10, "velocity": 89}, {"time": 237600, "pitch": 42, "duration": 10, "velocity": 84}, {"time": 237600, "pitch": 54, "duration": 10, "velocity": 86}, {"time": 237720, "pitch": 38, "duration": 10, "velocity": 40}, {"time": 237720, "pitch": 42, "duration": 10, "velocity": 78}, {"time": 237720, "pitch": 45, "duration": 10, "velocity": 65}, {"time": 237720, "pitch": 54, "duration": 10, "velocity": 39}, {"time": 237720, "pitch": 63, "duration": 10, "velocity": 60}, {"time": 237840, "pitch": 45, "duration": 10, "velocity": 79}, {"time": 237840, "pitch": 46, "duration": 10, "velocity": 75}, {"time": 237840, "pitch": 54, "duration": 10, "velocity": 44}, {"time": 237840, "pitch": 60, "duration": 10, "velocity": 50}, {"time": 237960, "pitch": 54, "duration": 10, "velocity": 37}, {"time": 238080, "pitch": 35, "duration": 10, "velocity": 82}, {"time": 238080, "pitch": 39, "duration": 10, "velocity": 85}, {"time": 238080, "pitch": 40, "duration": 10, "velocity": 89}, {"time": 238080, "pitch": 42, "duration": 10, "velocity": 84}, {"time": 238080, "pitch": 54, "duration": 10, "velocity": 49}, {"time": 238080, "pitch": 61, "duration": 10, "velocity": 80}, {"time": 238200, "pitch": 54, "duration": 10, "velocity": 39}, {"time": 238320, "pitch": 41, "duration": 10, "velocity": 81}, {"time": 238320, "pitch": 46, "duration": 10, "velocity": 75}, {"time": 238320, "pitch": 54, "duration": 10, "velocity": 44}, {"time": 238320, "pitch": 64, "duration": 10, "velocity": 55}, {"time": 238440, "pitch": 38, "duration": 10, "velocity": 40}, {"time": 238440, "pitch": 54, "duration": 10, "velocity": 37}, {"time": 238440, "pitch": 64, "duration": 10, "velocity": 50}, {"time": 238560, "pitch": 35, "duration": 10, "velocity": 90}, {"time": 238560, "pitch": 42, "duration": 10, "velocity": 84}, {"time": 238560, "pitch": 54, "duration": 10, "velocity": 86}, {"time": 238560, "pitch": 63, "duration": 10, "velocity": 55}, {"time": 238680, "pitch": 54, "duration": 10, "velocity": 39}, {"time": 238800, "pitch": 38, "duration": 10, "velocity": 40}, {"time": 238800, "pitch": 46, "duration": 10, "velocity": 75}, {"time": 238800, "pitch": 50, "duration": 10, "velocity": 95}, {"time": 238800, "pitch": 54, "duration": 10, "velocity": 44}, {"time": 238800, "pitch": 61, "duration": 10, "velocity": 50}, {"time": 238920, "pitch": 38, "duration": 10, "velocity": 40}, {"time": 238920, "pitch": 54, "duration": 10, "velocity": 37}, {"time": 238920, "pitch": 63, "duration": 10, "velocity": 61}, {"time": 239040, "pitch": 35, "duration": 10, "velocity": 87}, {"time": 239040, "pitch": 39, "duration": 10, "velocity": 85}, {"time": 239040, "pitch": 40, "duration": 10, "velocity": 85}, {"time": 239040, "pitch": 42, "duration": 10, "velocity": 84}, {"time": 239040, "pitch": 54, "duration": 10, "velocity": 49}, {"time": 239040, "pitch": 62, "duration": 10, "velocity": 80}, {"time": 239160, "pitch": 54, "duration": 10, "velocity": 39}, {"time": 239280, "pitch": 46, "duration": 10, "velocity": 75}, {"time": 239280, "pitch": 48, "duration": 10, "velocity": 82}, {"time": 239280, "pitch": 54, "duration": 10, "velocity": 44}, {"time": 239280, "pitch": 64, "duration": 10, "velocity": 70}, {"time": 239400, "pitch": 38, "duration": 10, "velocity": 40}, {"time": 239400, "pitch": 54, "duration": 10, "velocity": 37}, {"time": 239400, "pitch": 63, "duration": 10, "velocity": 60}, {"time": 239520, "pitch": 35, "duration": 10, "velocity": 89}, {"time": 239520, "pitch": 42, "duration": 10, "velocity": 84}, {"time": 239520, "pitch": 54, "duration": 10, "velocity": 86}, {"time": 239640, "pitch": 38, "duration": 10, "velocity": 40}, {"time": 239640, "pitch": 42, "duration": 10, "velocity": 78}, {"time": 239640, "pitch": 45, "duration": 10, "velocity": 65}, {"time": 239640, "pitch": 54, "duration": 10, "velocity": 39}, {"time": 239640, "pitch": 63, "duration": 10, "velocity": 60}, {"time": 239760, "pitch": 45, "duration": 10, "velocity": 79}, {"time": 239760, "pitch": 46, "duration": 10, "velocity": 75}, {"time": 239760, "pitch": 54, "duration": 10, "velocity": 44}, {"time": 239760, "pitch": 60, "duration": 10, "velocity": 50}, {"time": 239880, "pitch": 54, "duration": 10, "velocity": 37}, {"time": 240000, "pitch": 35, "duration": 10, "velocity": 82}, {"time": 240000, "pitch": 39, "duration": 10, "velocity": 85}, {"time": 240000, "pitch": 40, "duration": 10, "velocity": 89}, {"time": 240000, "pitch": 42, "duration": 10, "velocity": 84}, {"time": 240000, "pitch": 54, "duration": 10, "velocity": 49}, {"time": 240000, "pitch": 61, "duration": 10, "velocity": 80}, {"time": 240120, "pitch": 54, "duration": 10, "velocity": 39}, {"time": 240240, "pitch": 41, "duration": 10, "velocity": 81}, {"time": 240240, "pitch": 46, "duration": 10, "velocity": 75}, {"time": 240240, "pitch": 54, "duration": 10, "velocity": 44}, {"time": 240240, "pitch": 64, "duration": 10, "velocity": 55}, {"time": 240360, "pitch": 38, "duration": 10, "velocity": 40}, {"time": 240360, "pitch": 54, "duration": 10, "velocity": 37}, {"time": 240360, "pitch": 64, "duration": 10, "velocity": 50}, {"time": 240480, "pitch": 35, "duration": 10, "velocity": 90}, {"time": 240480, "pitch": 42, "duration": 10, "velocity": 84}, {"time": 240480, "pitch": 54, "duration": 10, "velocity": 86}, {"time": 240480, "pitch": 63, "duration": 10, "velocity": 55}, {"time": 240600, "pitch": 54, "duration": 10, "velocity": 39}, {"time": 240720, "pitch": 38, "duration": 10, "velocity": 40}, {"time": 240720, "pitch": 46, "duration": 10, "velocity": 75}, {"time": 240720, "pitch": 50, "duration": 10, "velocity": 95}, {"time": 240720, "pitch": 54, "duration": 10, "velocity": 44}, {"time": 240720, "pitch": 61, "duration": 10, "velocity": 50}, {"time": 240840, "pitch": 38, "duration": 10, "velocity": 40}, {"time": 240840, "pitch": 54, "duration": 10, "velocity": 37}, {"time": 240840, "pitch": 63, "duration": 10, "velocity": 61}, {"time": 240960, "pitch": 35, "duration": 10, "velocity": 87}, {"time": 240960, "pitch": 39, "duration": 10, "velocity": 85}, {"time": 240960, "pitch": 40, "duration": 10, "velocity": 85}, {"time": 240960, "pitch": 42, "duration": 10, "velocity": 84}, {"time": 240960, "pitch": 54, "duration": 10, "velocity": 49}, {"time": 240960, "pitch": 62, "duration": 10, "velocity": 80}, {"time": 241080, "pitch": 54, "duration": 10, "velocity": 39}, {"time": 241200, "pitch": 46, "duration": 10, "velocity": 75}, {"time": 241200, "pitch": 48, "duration": 10, "velocity": 82}, {"time": 241200, "pitch": 54, "duration": 10, "velocity": 44}, {"time": 241200, "pitch": 64, "duration": 10, "velocity": 70}, {"time": 241320, "pitch": 38, "duration": 10, "velocity": 40}, {"time": 241320, "pitch": 54, "duration": 10, "velocity": 37}, {"time": 241320, "pitch": 63, "duration": 10, "velocity": 60}, {"time": 241440, "pitch": 35, "duration": 10, "velocity": 89}, {"time": 241440, "pitch": 42, "duration": 10, "velocity": 84}, {"time": 241440, "pitch": 54, "duration": 10, "velocity": 86}, {"time": 241560, "pitch": 38, "duration": 10, "velocity": 40}, {"time": 241560, "pitch": 42, "duration": 10, "velocity": 78}, {"time": 241560, "pitch": 45, "duration": 10, "velocity": 65}, {"time": 241560, "pitch": 54, "duration": 10, "velocity": 39}, {"time": 241560, "pitch": 63, "duration": 10, "velocity": 60}, {"time": 241680, "pitch": 45, "duration": 10, "velocity": 79}, {"time": 241680, "pitch": 46, "duration": 10, "velocity": 75}, {"time": 241680, "pitch": 54, "duration": 10, "velocity": 44}, {"time": 241680, "pitch": 60, "duration": 10, "velocity": 50}, {"time": 241800, "pitch": 54, "duration": 10, "velocity": 37}, {"time": 241920, "pitch": 35, "duration": 10, "velocity": 82}, {"time": 241920, "pitch": 39, "duration": 10, "velocity": 85}, {"time": 241920, "pitch": 40, "duration": 10, "velocity": 89}, {"time": 241920, "pitch": 42, "duration": 10, "velocity": 84}, {"time": 241920, "pitch": 54, "duration": 10, "velocity": 49}, {"time": 241920, "pitch": 61, "duration": 10, "velocity": 80}, {"time": 242040, "pitch": 38, "duration": 10, "velocity": 20}, {"time": 242040, "pitch": 54, "duration": 10, "velocity": 39}, {"time": 242080, "pitch": 38, "duration": 10, "velocity": 20}, {"time": 242120, "pitch": 38, "duration": 10, "velocity": 30}, {"time": 242160, "pitch": 38, "duration": 10, "velocity": 60}, {"time": 242160, "pitch": 41, "duration": 10, "velocity": 81}, {"time": 242160, "pitch": 46, "duration": 10, "velocity": 75}, {"time": 242160, "pitch": 54, "duration": 10, "velocity": 44}, {"time": 242160, "pitch": 64, "duration": 10, "velocity": 55}, {"time": 242280, "pitch": 38, "duration": 10, "velocity": 40}, {"time": 242280, "pitch": 54, "duration": 10, "velocity": 37}, {"time": 242280, "pitch": 64, "duration": 10, "velocity": 50}, {"time": 242300, "pitch": 38, "duration": 10, "velocity": 35}, {"time": 242400, "pitch": 35, "duration": 10, "velocity": 90}, {"time": 242400, "pitch": 40, "duration": 10, "velocity": 85}, {"time": 242400, "pitch": 49, "duration": 10, "velocity": 60}, {"time": 242640, "pitch": 35, "duration": 10, "velocity": 87}, {"time": 242640, "pitch": 40, "duration": 10, "velocity": 89}], "annotations": [{"time": 288, "annotation": {"number": 0, "value": 0}, "group": "control_change"}, {"time": 304, "annotation": {"number": 32, "value": 2}, "group": "control_change"}, {"time": 336, "annotation": {"number": 7, "value": 110}, "group": "control_change"}, {"time": 352, "annotation": {"number": 11, "value": 127}, "group": "control_change"}, {"time": 368, "annotation": {"number": 10, "value": 64}, "group": "control_change"}, {"time": 384, "annotation": {"number": 91, "value": 53}, "group": "control_change"}, {"time": 400, "annotation": {"number": 93, "value": 0}, "group": "control_change"}, {"time": 416, "annotation": {"number": 101, "value": 0}, "group": "control_change"}, {"time": 432, "annotation": {"number": 100, "value": 0}, "group": "control_change"}, {"time": 448, "annotation": {"number": 6, "value": 12}, "group": "control_change"}, {"time": 464, "annotation": {"number": 101, "value": 127}, "group": "control_change"}, {"time": 480, "annotation": {"number": 100, "value": 127}, "group": "control_change"}]}, {"program": 0, "is_drum": false, "name": "TRUMPET/E.guitar", "annotations": [{"time": 288, "annotation": {"number": 0, "value": 24}, "group": "control_change"}, {"time": 304, "annotation": {"number": 32, "value": 2}, "group": "control_change"}]}, {"program": 56, "is_drum": false, "name": "TRUMPET/E.guitar", "notes": [{"time": 15840, "pitch": 76, "duration": 220, "velocity": 110}, {"time": 15840, "pitch": 88, "duration": 220, "velocity": 120}, {"time": 16080, "pitch": 76, "duration": 80, "velocity": 110}, {"time": 16080, "pitch": 88, "duration": 80, "velocity": 120}, {"time": 16800, "pitch": 76, "duration": 220, "velocity": 110}, {"time": 16800, "pitch": 88, "duration": 220, "velocity": 120}, {"time": 17040, "pitch": 76, "duration": 80, "velocity": 110}, {"time": 17040, "pitch": 88, "duration": 80, "velocity": 120}, {"time": 17520, "pitch": 76, "duration": 80, "velocity": 110}, {"time": 17520, "pitch": 88, "duration": 80, "velocity": 120}, {"time": 18240, "pitch": 76, "duration": 1420, "velocity": 110}, {"time": 18240, "pitch": 88, "duration": 1420, "velocity": 120}, {"time": 53520, "pitch": 72, "duration": 70, "velocity": 110}, {"time": 53520, "pitch": 76, "duration": 90, "velocity": 112}, {"time": 54000, "pitch": 65, "duration": 940, "velocity": 99}, {"time": 54000, "pitch": 72, "duration": 940, "velocity": 114}, {"time": 54960, "pitch": 65, "duration": 134, "velocity": 110}, {"time": 54960, "pitch": 72, "duration": 134, "velocity": 116}, {"time": 56160, "pitch": 72, "duration": 940, "velocity": 99}, {"time": 56160, "pitch": 79, "duration": 940, "velocity": 114}, {"time": 57120, "pitch": 72, "duration": 950, "velocity": 98}, {"time": 57120, "pitch": 77, "duration": 950, "velocity": 113}, {"time": 58080, "pitch": 72, "duration": 140, "velocity": 104}, {"time": 58080, "pitch": 76, "duration": 140, "velocity": 119}, {"time": 68880, "pitch": 72, "duration": 70, "velocity": 110}, {"time": 68880, "pitch": 76, "duration": 90, "velocity": 112}, {"time": 69360, "pitch": 65, "duration": 940, "velocity": 99}, {"time": 69360, "pitch": 72, "duration": 940, "velocity": 114}, {"time": 70320, "pitch": 65, "duration": 134, "velocity": 110}, {"time": 70320, "pitch": 72, "duration": 134, "velocity": 116}, {"time": 81120, "pitch": 72, "duration": 190, "velocity": 127}, {"time": 81360, "pitch": 72, "duration": 110, "velocity": 127}, {"time": 83040, "pitch": 72, "duration": 180, "velocity": 127}, {"time": 83280, "pitch": 72, "duration": 90, "velocity": 125}, {"time": 84960, "pitch": 72, "duration": 1920, "velocity": 112}, {"time": 84960, "pitch": 84, "duration": 1920, "velocity": 112}, {"time": 122640, "pitch": 72, "duration": 70, "velocity": 110}, {"time": 122640, "pitch": 76, "duration": 90, "velocity": 112}, {"time": 123120, "pitch": 65, "duration": 940, "velocity": 99}, {"time": 123120, "pitch": 72, "duration": 940, "velocity": 114}, {"time": 124080, "pitch": 65, "duration": 134, "velocity": 110}, {"time": 124080, "pitch": 72, "duration": 134, "velocity": 116}, {"time": 125280, "pitch": 72, "duration": 940, "velocity": 99}, {"time": 125280, "pitch": 79, "duration": 940, "velocity": 114}, {"time": 126240, "pitch": 72, "duration": 950, "velocity": 98}, {"time": 126240, "pitch": 77, "duration": 950, "velocity": 113}, {"time": 127200, "pitch": 72, "duration": 140, "velocity": 104}, {"time": 127200, "pitch": 76, "duration": 140, "velocity": 119}, {"time": 138000, "pitch": 72, "duration": 70, "velocity": 110}, {"time": 138000, "pitch": 76, "duration": 90, "velocity": 112}, {"time": 138480, "pitch": 65, "duration": 940, "velocity": 99}, {"time": 138480, "pitch": 72, "duration": 940, "velocity": 114}, {"time": 139440, "pitch": 65, "duration": 134, "velocity": 110}, {"time": 139440, "pitch": 72, "duration": 134, "velocity": 116}, {"time": 169440, "pitch": 76, "duration": 220, "velocity": 110}, {"time": 169440, "pitch": 88, "duration": 220, "velocity": 120}, {"time": 169680, "pitch": 76, "duration": 80, "velocity": 110}, {"time": 169680, "pitch": 88, "duration": 80, "velocity": 120}, {"time": 170400, "pitch": 76, "duration": 220, "velocity": 110}, {"time": 170400, "pitch": 88, "duration": 220, "velocity": 120}, {"time": 170640, "pitch": 76, "duration": 80, "velocity": 110}, {"time": 170640, "pitch": 88, "duration": 80, "velocity": 120}, {"time": 171120, "pitch": 76, "duration": 80, "velocity": 110}, {"time": 171120, "pitch": 88, "duration": 80, "velocity": 120}, {"time": 171840, "pitch": 76, "duration": 1420, "velocity": 110}, {"time": 171840, "pitch": 88, "duration": 1420, "velocity": 120}, {"time": 207120, "pitch": 72, "duration": 70, "velocity": 110}, {"time": 207120, "pitch": 76, "duration": 90, "velocity": 112}, {"time": 207600, "pitch": 65, "duration": 940, "velocity": 99}, {"time": 207600, "pitch": 72, "duration": 940, "velocity": 114}, {"time": 208560, "pitch": 65, "duration": 134, "velocity": 110}, {"time": 208560, "pitch": 72, "duration": 134, "velocity": 116}, {"time": 209760, "pitch": 72, "duration": 940, "velocity": 99}, {"time": 209760, "pitch": 79, "duration": 940, "velocity": 114}, {"time": 210720, "pitch": 72, "duration": 950, "velocity": 98}, {"time": 210720, "pitch": 77, "duration": 950, "velocity": 113}, {"time": 211680, "pitch": 72, "duration": 140, "velocity": 104}, {"time": 211680, "pitch": 76, "duration": 140, "velocity": 119}, {"time": 222480, "pitch": 72, "duration": 70, "velocity": 110}, {"time": 222480, "pitch": 76, "duration": 90, "velocity": 112}, {"time": 222960, "pitch": 65, "duration": 940, "velocity": 99}, {"time": 222960, "pitch": 72, "duration": 940, "velocity": 114}, {"time": 223920, "pitch": 65, "duration": 134, "velocity": 110}, {"time": 223920, "pitch": 72, "duration": 134, "velocity": 116}, {"time": 234720, "pitch": 72, "duration": 190, "velocity": 127}, {"time": 234960, "pitch": 72, "duration": 110, "velocity": 127}, {"time": 236640, "pitch": 72, "duration": 180, "velocity": 127}, {"time": 236880, "pitch": 72, "duration": 90, "velocity": 125}, {"time": 238560, "pitch": 72, "duration": 180, "velocity": 127}, {"time": 238800, "pitch": 72, "duration": 90, "velocity": 125}, {"time": 239280, "pitch": 75, "duration": 120, "velocity": 127}, {"time": 239760, "pitch": 74, "duration": 150, "velocity": 127}, {"time": 240240, "pitch": 72, "duration": 120, "velocity": 127}, {"time": 240480, "pitch": 72, "duration": 180, "velocity": 127}, {"time": 240720, "pitch": 72, "duration": 90, "velocity": 125}, {"time": 241200, "pitch": 75, "duration": 120, "velocity": 127}, {"time": 241680, "pitch": 74, "duration": 150, "velocity": 127}, {"time": 242160, "pitch": 72, "duration": 120, "velocity": 127}, {"time": 242400, "pitch": 72, "duration": 180, "velocity": 127}, {"time": 242400, "pitch": 84, "duration": 180, "velocity": 127}, {"time": 242640, "pitch": 72, "duration": 90, "velocity": 125}, {"time": 242640, "pitch": 84, "duration": 90, "velocity": 125}], "annotations": [{"time": 336, "annotation": {"number": 7, "value": 70}, "group": "control_change"}, {"time": 352, "annotation": {"number": 11, "value": 127}, "group": "control_change"}, {"time": 368, "annotation": {"number": 10, "value": 84}, "group": "control_change"}, {"time": 384, "annotation": {"number": 91, "value": 40}, "group": "control_change"}, {"time": 400, "annotation": {"number": 93, "value": 20}, "group": "control_change"}, {"time": 416, "annotation": {"number": 101, "value": 0}, "group": "control_change"}, {"time": 432, "annotation": {"number": 100, "value": 0}, "group": "control_change"}, {"time": 448, "annotation": {"number": 6, "value": 12}, "group": "control_change"}, {"time": 464, "annotation": {"number": 101, "value": 127}, "group": "control_change"}, {"time": 480, "annotation": {"number": 100, "value": 127}, "group": "control_change"}, {"time": 18356, "annotation": {"number": 11, "value": 120}, "group": "control_change"}, {"time": 18372, "annotation": {"number": 11, "value": 117}, "group": "control_change"}, {"time": 18389, "annotation": {"number": 11, "value": 114}, "group": "control_change"}, {"time": 18405, "annotation": {"number": 11, "value": 111}, "group": "control_change"}, {"time": 18422, "annotation": {"number": 11, "value": 108}, "group": "control_change"}, {"time": 18438, "annotation": {"number": 11, "value": 105}, "group": "control_change"}, {"time": 18455, "annotation": {"number": 11, "value": 102}, "group": "control_change"}, {"time": 18471, "annotation": {"number": 11, "value": 99}, "group": "control_change"}, {"time": 18488, "annotation": {"number": 11, "value": 96}, "group": "control_change"}, {"time": 18504, "annotation": {"number": 11, "value": 93}, "group": "control_change"}, {"time": 18521, "annotation": {"number": 11, "value": 90}, "group": "control_change"}, {"time": 18537, "annotation": {"number": 11, "value": 87}, "group": "control_change"}, {"time": 18554, "annotation": {"number": 11, "value": 84}, "group": "control_change"}, {"time": 18570, "annotation": {"number": 11, "value": 81}, "group": "control_change"}, {"time": 18587, "annotation": {"number": 11, "value": 78}, "group": "control_change"}, {"time": 18603, "annotation": {"number": 11, "value": 75}, "group": "control_change"}, {"time": 18619, "annotation": {"number": 11, "value": 72}, "group": "control_change"}, {"time": 18960, "annotation": {"number": 11, "value": 76}, "group": "control_change"}, {"time": 18976, "annotation": {"number": 11, "value": 77}, "group": "control_change"}, {"time": 18992, "annotation": {"number": 11, "value": 79}, "group": "control_change"}, {"time": 19008, "annotation": {"number": 11, "value": 81}, "group": "control_change"}, {"time": 19024, "annotation": {"number": 11, "value": 82}, "group": "control_change"}, {"time": 19040, "annotation": {"number": 11, "value": 84}, "group": "control_change"}, {"time": 19056, "annotation": {"number": 11, "value": 86}, "group": "control_change"}, {"time": 19072, "annotation": {"number": 11, "value": 88}, "group": "control_change"}, {"time": 19089, "annotation": {"number": 11, "value": 90}, "group": "control_change"}, {"time": 19105, "annotation": {"number": 11, "value": 91}, "group": "control_change"}, {"time": 19121, "annotation": {"number": 11, "value": 93}, "group": "control_change"}, {"time": 19137, "annotation": {"number": 11, "value": 95}, "group": "control_change"}, {"time": 19153, "annotation": {"number": 11, "value": 97}, "group": "control_change"}, {"time": 19169, "annotation": {"number": 11, "value": 98}, "group": "control_change"}, {"time": 19185, "annotation": {"number": 11, "value": 100}, "group": "control_change"}, {"time": 19202, "annotation": {"number": 11, "value": 102}, "group": "control_change"}, {"time": 19218, "annotation": {"number": 11, "value": 104}, "group": "control_change"}, {"time": 19234, "annotation": {"number": 11, "value": 105}, "group": "control_change"}, {"time": 19250, "annotation": {"number": 11, "value": 107}, "group": "control_change"}, {"time": 19266, "annotation": {"number": 11, "value": 109}, "group": "control_change"}, {"time": 19282, "annotation": {"number": 11, "value": 111}, "group": "control_change"}, {"time": 19298, "annotation": {"number": 11, "value": 112}, "group": "control_change"}, {"time": 19315, "annotation": {"number": 11, "value": 114}, "group": "control_change"}, {"time": 19331, "annotation": {"number": 11, "value": 116}, "group": "control_change"}, {"time": 19347, "annotation": {"number": 11, "value": 118}, "group": "control_change"}, {"time": 19363, "annotation": {"number": 11, "value": 119}, "group": "control_change"}, {"time": 19379, "annotation": {"number": 11, "value": 121}, "group": "control_change"}, {"time": 19395, "annotation": {"number": 11, "value": 123}, "group": "control_change"}, {"time": 19411, "annotation": {"number": 11, "value": 125}, "group": "control_change"}, {"time": 19427, "annotation": {"number": 11, "value": 127}, "group": "control_change"}, {"time": 33030, "annotation": {"number": 0, "value": 8}, "group": "control_change"}, {"time": 33040, "annotation": {"number": 32, "value": 2}, "group": "control_change"}, {"time": 52350, "annotation": {"number": 7, "value": 80}, "group": "control_change"}, {"time": 52360, "annotation": {"number": 11, "value": 127}, "group": "control_change"}, {"time": 52370, "annotation": {"number": 10, "value": 84}, "group": "control_change"}, {"time": 52380, "annotation": {"number": 91, "value": 40}, "group": "control_change"}, {"time": 52390, "annotation": {"number": 93, "value": 20}, "group": "control_change"}, {"time": 54186, "annotation": {"number": 11, "value": 124}, "group": "control_change"}, {"time": 54202, "annotation": {"number": 11, "value": 115}, "group": "control_change"}, {"time": 54218, "annotation": {"number": 11, "value": 107}, "group": "control_change"}, {"time": 54235, "annotation": {"number": 11, "value": 98}, "group": "control_change"}, {"time": 54251, "annotation": {"number": 11, "value": 89}, "group": "control_change"}, {"time": 54268, "annotation": {"number": 11, "value": 80}, "group": "control_change"}, {"time": 54284, "annotation": {"number": 11, "value": 72}, "group": "control_change"}, {"time": 54558, "annotation": {"number": 11, "value": 78}, "group": "control_change"}, {"time": 54574, "annotation": {"number": 11, "value": 81}, "group": "control_change"}, {"time": 54591, "annotation": {"number": 11, "value": 84}, "group": "control_change"}, {"time": 54607, "annotation": {"number": 11, "value": 88}, "group": "control_change"}, {"time": 54624, "annotation": {"number": 11, "value": 91}, "group": "control_change"}, {"time": 54640, "annotation": {"number": 11, "value": 94}, "group": "control_change"}, {"time": 54656, "annotation": {"number": 11, "value": 97}, "group": "control_change"}, {"time": 54673, "annotation": {"number": 11, "value": 101}, "group": "control_change"}, {"time": 54689, "annotation": {"number": 11, "value": 104}, "group": "control_change"}, {"time": 54705, "annotation": {"number": 11, "value": 107}, "group": "control_change"}, {"time": 54722, "annotation": {"number": 11, "value": 110}, "group": "control_change"}, {"time": 54738, "annotation": {"number": 11, "value": 113}, "group": "control_change"}, {"time": 54754, "annotation": {"number": 11, "value": 117}, "group": "control_change"}, {"time": 54771, "annotation": {"number": 11, "value": 120}, "group": "control_change"}, {"time": 54787, "annotation": {"number": 11, "value": 123}, "group": "control_change"}, {"time": 54803, "annotation": {"number": 11, "value": 127}, "group": "control_change"}, {"time": 56301, "annotation": {"number": 11, "value": 124}, "group": "control_change"}, {"time": 56316, "annotation": {"number": 11, "value": 118}, "group": "control_change"}, {"time": 56332, "annotation": {"number": 11, "value": 113}, "group": "control_change"}, {"time": 56348, "annotation": {"number": 11, "value": 107}, "group": "control_change"}, {"time": 56364, "annotation": {"number": 11, "value": 102}, "group": "control_change"}, {"time": 56380, "annotation": {"number": 11, "value": 96}, "group": "control_change"}, {"time": 56395, "annotation": {"number": 11, "value": 91}, "group": "control_change"}, {"time": 56411, "annotation": {"number": 11, "value": 86}, "group": "control_change"}, {"time": 56427, "annotation": {"number": 11, "value": 80}, "group": "control_change"}, {"time": 56443, "annotation": {"number": 11, "value": 75}, "group": "control_change"}, {"time": 56459, "annotation": {"number": 11, "value": 69}, "group": "control_change"}, {"time": 56474, "annotation": {"number": 11, "value": 64}, "group": "control_change"}, {"time": 56688, "annotation": {"number": 11, "value": 72}, "group": "control_change"}, {"time": 56704, "annotation": {"number": 11, "value": 74}, "group": "control_change"}, {"time": 56720, "annotation": {"number": 11, "value": 76}, "group": "control_change"}, {"time": 56736, "annotation": {"number": 11, "value": 79}, "group": "control_change"}, {"time": 56752, "annotation": {"number": 11, "value": 81}, "group": "control_change"}, {"time": 56768, "annotation": {"number": 11, "value": 83}, "group": "control_change"}, {"time": 56784, "annotation": {"number": 11, "value": 86}, "group": "control_change"}, {"time": 56800, "annotation": {"number": 11, "value": 88}, "group": "control_change"}, {"time": 56816, "annotation": {"number": 11, "value": 91}, "group": "control_change"}, {"time": 56832, "annotation": {"number": 11, "value": 93}, "group": "control_change"}, {"time": 56848, "annotation": {"number": 11, "value": 95}, "group": "control_change"}, {"time": 56864, "annotation": {"number": 11, "value": 98}, "group": "control_change"}, {"time": 56880, "annotation": {"number": 11, "value": 100}, "group": "control_change"}, {"time": 56896, "annotation": {"number": 11, "value": 102}, "group": "control_change"}, {"time": 56912, "annotation": {"number": 11, "value": 105}, "group": "control_change"}, {"time": 56928, "annotation": {"number": 11, "value": 107}, "group": "control_change"}, {"time": 56944, "annotation": {"number": 11, "value": 110}, "group": "control_change"}, {"time": 56960, "annotation": {"number": 11, "value": 112}, "group": "control_change"}, {"time": 56976, "annotation": {"number": 11, "value": 114}, "group": "control_change"}, {"time": 56992, "annotation": {"number": 11, "value": 117}, "group": "control_change"}, {"time": 57008, "annotation": {"number": 11, "value": 119}, "group": "control_change"}, {"time": 57024, "annotation": {"number": 11, "value": 122}, "group": "control_change"}, {"time": 57040, "annotation": {"number": 11, "value": 124}, "group": "control_change"}, {"time": 57056, "annotation": {"number": 11, "value": 127}, "group": "control_change"}, {"time": 57273, "annotation": {"number": 11, "value": 120}, "group": "control_change"}, {"time": 57290, "annotation": {"number": 11, "value": 115}, "group": "control_change"}, {"time": 57307, "annotation": {"number": 11, "value": 111}, "group": "control_change"}, {"time": 57324, "annotation": {"number": 11, "value": 106}, "group": "control_change"}, {"time": 57341, "annotation": {"number": 11, "value": 102}, "group": "control_change"}, {"time": 57358, "annotation": {"number": 11, "value": 97}, "group": "control_change"}, {"time": 57375, "annotation": {"number": 11, "value": 93}, "group": "control_change"}, {"time": 57392, "annotation": {"number": 11, "value": 88}, "group": "control_change"}, {"time": 57409, "annotation": {"number": 11, "value": 84}, "group": "control_change"}, {"time": 57425, "annotation": {"number": 11, "value": 80}, "group": "control_change"}, {"time": 57627, "annotation": {"number": 11, "value": 84}, "group": "control_change"}, {"time": 57643, "annotation": {"number": 11, "value": 85}, "group": "control_change"}, {"time": 57660, "annotation": {"number": 11, "value": 87}, "group": "control_change"}, {"time": 57676, "annotation": {"number": 11, "value": 89}, "group": "control_change"}, {"time": 57693, "annotation": {"number": 11, "value": 91}, "group": "control_change"}, {"time": 57709, "annotation": {"number": 11, "value": 93}, "group": "control_change"}, {"time": 57726, "annotation": {"number": 11, "value": 95}, "group": "control_change"}, {"time": 57742, "annotation": {"number": 11, "value": 97}, "group": "control_change"}, {"time": 57759, "annotation": {"number": 11, "value": 99}, "group": "control_change"}, {"time": 57775, "annotation": {"number": 11, "value": 101}, "group": "control_change"}, {"time": 57792, "annotation": {"number": 11, "value": 103}, "group": "control_change"}, {"time": 57808, "annotation": {"number": 11, "value": 105}, "group": "control_change"}, {"time": 57825, "annotation": {"number": 11, "value": 107}, "group": "control_change"}, {"time": 57841, "annotation": {"number": 11, "value": 109}, "group": "control_change"}, {"time": 57858, "annotation": {"number": 11, "value": 111}, "group": "control_change"}, {"time": 57874, "annotation": {"number": 11, "value": 113}, "group": "control_change"}, {"time": 57891, "annotation": {"number": 11, "value": 115}, "group": "control_change"}, {"time": 57907, "annotation": {"number": 11, "value": 117}, "group": "control_change"}, {"time": 57924, "annotation": {"number": 11, "value": 119}, "group": "control_change"}, {"time": 57940, "annotation": {"number": 11, "value": 121}, "group": "control_change"}, {"time": 57957, "annotation": {"number": 11, "value": 123}, "group": "control_change"}, {"time": 57973, "annotation": {"number": 11, "value": 124}, "group": "control_change"}, {"time": 57989, "annotation": {"number": 11, "value": 127}, "group": "control_change"}, {"time": 69546, "annotation": {"number": 11, "value": 124}, "group": "control_change"}, {"time": 69562, "annotation": {"number": 11, "value": 115}, "group": "control_change"}, {"time": 69578, "annotation": {"number": 11, "value": 107}, "group": "control_change"}, {"time": 69595, "annotation": {"number": 11, "value": 98}, "group": "control_change"}, {"time": 69611, "annotation": {"number": 11, "value": 89}, "group": "control_change"}, {"time": 69628, "annotation": {"number": 11, "value": 80}, "group": "control_change"}, {"time": 69644, "annotation": {"number": 11, "value": 72}, "group": "control_change"}, {"time": 69918, "annotation": {"number": 11, "value": 78}, "group": "control_change"}, {"time": 69934, "annotation": {"number": 11, "value": 81}, "group": "control_change"}, {"time": 69951, "annotation": {"number": 11, "value": 84}, "group": "control_change"}, {"time": 69967, "annotation": {"number": 11, "value": 88}, "group": "control_change"}, {"time": 69984, "annotation": {"number": 11, "value": 91}, "group": "control_change"}, {"time": 70000, "annotation": {"number": 11, "value": 94}, "group": "control_change"}, {"time": 70016, "annotation": {"number": 11, "value": 97}, "group": "control_change"}, {"time": 70033, "annotation": {"number": 11, "value": 101}, "group": "control_change"}, {"time": 70049, "annotation": {"number": 11, "value": 104}, "group": "control_change"}, {"time": 70065, "annotation": {"number": 11, "value": 107}, "group": "control_change"}, {"time": 70082, "annotation": {"number": 11, "value": 110}, "group": "control_change"}, {"time": 70098, "annotation": {"number": 11, "value": 113}, "group": "control_change"}, {"time": 70114, "annotation": {"number": 11, "value": 117}, "group": "control_change"}, {"time": 70131, "annotation": {"number": 11, "value": 120}, "group": "control_change"}, {"time": 70147, "annotation": {"number": 11, "value": 123}, "group": "control_change"}, {"time": 70163, "annotation": {"number": 11, "value": 127}, "group": "control_change"}, {"time": 85092, "annotation": {"number": 11, "value": 122}, "group": "control_change"}, {"time": 85108, "annotation": {"number": 11, "value": 118}, "group": "control_change"}, {"time": 85125, "annotation": {"number": 11, "value": 114}, "group": "control_change"}, {"time": 85141, "annotation": {"number": 11, "value": 110}, "group": "control_change"}, {"time": 85158, "annotation": {"number": 11, "value": 106}, "group": "control_change"}, {"time": 85175, "annotation": {"number": 11, "value": 102}, "group": "control_change"}, {"time": 85191, "annotation": {"number": 11, "value": 98}, "group": "control_change"}, {"time": 85208, "annotation": {"number": 11, "value": 94}, "group": "control_change"}, {"time": 85224, "annotation": {"number": 11, "value": 91}, "group": "control_change"}, {"time": 85241, "annotation": {"number": 11, "value": 87}, "group": "control_change"}, {"time": 85258, "annotation": {"number": 11, "value": 83}, "group": "control_change"}, {"time": 85274, "annotation": {"number": 11, "value": 79}, "group": "control_change"}, {"time": 85291, "annotation": {"number": 11, "value": 75}, "group": "control_change"}, {"time": 85307, "annotation": {"number": 11, "value": 71}, "group": "control_change"}, {"time": 85324, "annotation": {"number": 11, "value": 67}, "group": "control_change"}, {"time": 85340, "annotation": {"number": 11, "value": 64}, "group": "control_change"}, {"time": 85857, "annotation": {"number": 11, "value": 66}, "group": "control_change"}, {"time": 85872, "annotation": {"number": 11, "value": 67}, "group": "control_change"}, {"time": 85888, "annotation": {"number": 11, "value": 69}, "group": "control_change"}, {"time": 85904, "annotation": {"number": 11, "value": 71}, "group": "control_change"}, {"time": 85920, "annotation": {"number": 11, "value": 73}, "group": "control_change"}, {"time": 85936, "annotation": {"number": 11, "value": 74}, "group": "control_change"}, {"time": 85952, "annotation": {"number": 11, "value": 76}, "group": "control_change"}, {"time": 85968, "annotation": {"number": 11, "value": 78}, "group": "control_change"}, {"time": 85984, "annotation": {"number": 11, "value": 80}, "group": "control_change"}, {"time": 86000, "annotation": {"number": 11, "value": 82}, "group": "control_change"}, {"time": 86015, "annotation": {"number": 11, "value": 83}, "group": "control_change"}, {"time": 86031, "annotation": {"number": 11, "value": 85}, "group": "control_change"}, {"time": 86047, "annotation": {"number": 11, "value": 87}, "group": "control_change"}, {"time": 86063, "annotation": {"number": 11, "value": 89}, "group": "control_change"}, {"time": 86079, "annotation": {"number": 11, "value": 91}, "group": "control_change"}, {"time": 86095, "annotation": {"number": 11, "value": 92}, "group": "control_change"}, {"time": 86111, "annotation": {"number": 11, "value": 94}, "group": "control_change"}, {"time": 86127, "annotation": {"number": 11, "value": 96}, "group": "control_change"}, {"time": 86142, "annotation": {"number": 11, "value": 98}, "group": "control_change"}, {"time": 86158, "annotation": {"number": 11, "value": 99}, "group": "control_change"}, {"time": 86174, "annotation": {"number": 11, "value": 101}, "group": "control_change"}, {"time": 86190, "annotation": {"number": 11, "value": 103}, "group": "control_change"}, {"time": 86206, "annotation": {"number": 11, "value": 105}, "group": "control_change"}, {"time": 86222, "annotation": {"number": 11, "value": 107}, "group": "control_change"}, {"time": 86238, "annotation": {"number": 11, "value": 108}, "group": "control_change"}, {"time": 86254, "annotation": {"number": 11, "value": 110}, "group": "control_change"}, {"time": 86269, "annotation": {"number": 11, "value": 112}, "group": "control_change"}, {"time": 86285, "annotation": {"number": 11, "value": 114}, "group": "control_change"}, {"time": 86301, "annotation": {"number": 11, "value": 116}, "group": "control_change"}, {"time": 86317, "annotation": {"number": 11, "value": 117}, "group": "control_change"}, {"time": 86333, "annotation": {"number": 11, "value": 119}, "group": "control_change"}, {"time": 86349, "annotation": {"number": 11, "value": 121}, "group": "control_change"}, {"time": 86365, "annotation": {"number": 11, "value": 123}, "group": "control_change"}, {"time": 86381, "annotation": {"number": 11, "value": 125}, "group": "control_change"}, {"time": 86396, "annotation": {"number": 11, "value": 127}, "group": "control_change"}, {"time": 102150, "annotation": {"number": 0, "value": 8}, "group": "control_change"}, {"time": 102160, "annotation": {"number": 32, "value": 2}, "group": "control_change"}, {"time": 121470, "annotation": {"number": 7, "value": 80}, "group": "control_change"}, {"time": 121480, "annotation": {"number": 11, "value": 127}, "group": "control_change"}, {"time": 121490, "annotation": {"number": 10, "value": 84}, "group": "control_change"}, {"time": 121500, "annotation": {"number": 91, "value": 40}, "group": "control_change"}, {"time": 121510, "annotation": {"number": 93, "value": 20}, "group": "control_change"}, {"time": 123306, "annotation": {"number": 11, "value": 124}, "group": "control_change"}, {"time": 123322, "annotation": {"number": 11, "value": 115}, "group": "control_change"}, {"time": 123338, "annotation": {"number": 11, "value": 107}, "group": "control_change"}, {"time": 123355, "annotation": {"number": 11, "value": 98}, "group": "control_change"}, {"time": 123371, "annotation": {"number": 11, "value": 89}, "group": "control_change"}, {"time": 123388, "annotation": {"number": 11, "value": 80}, "group": "control_change"}, {"time": 123404, "annotation": {"number": 11, "value": 72}, "group": "control_change"}, {"time": 123678, "annotation": {"number": 11, "value": 78}, "group": "control_change"}, {"time": 123694, "annotation": {"number": 11, "value": 81}, "group": "control_change"}, {"time": 123711, "annotation": {"number": 11, "value": 84}, "group": "control_change"}, {"time": 123727, "annotation": {"number": 11, "value": 88}, "group": "control_change"}, {"time": 123744, "annotation": {"number": 11, "value": 91}, "group": "control_change"}, {"time": 123760, "annotation": {"number": 11, "value": 94}, "group": "control_change"}, {"time": 123776, "annotation": {"number": 11, "value": 97}, "group": "control_change"}, {"time": 123793, "annotation": {"number": 11, "value": 101}, "group": "control_change"}, {"time": 123809, "annotation": {"number": 11, "value": 104}, "group": "control_change"}, {"time": 123825, "annotation": {"number": 11, "value": 107}, "group": "control_change"}, {"time": 123842, "annotation": {"number": 11, "value": 110}, "group": "control_change"}, {"time": 123858, "annotation": {"number": 11, "value": 113}, "group": "control_change"}, {"time": 123874, "annotation": {"number": 11, "value": 117}, "group": "control_change"}, {"time": 123891, "annotation": {"number": 11, "value": 120}, "group": "control_change"}, {"time": 123907, "annotation": {"number": 11, "value": 123}, "group": "control_change"}, {"time": 123923, "annotation": {"number": 11, "value": 127}, "group": "control_change"}, {"time": 125421, "annotation": {"number": 11, "value": 124}, "group": "control_change"}, {"time": 125436, "annotation": {"number": 11, "value": 118}, "group": "control_change"}, {"time": 125452, "annotation": {"number": 11, "value": 113}, "group": "control_change"}, {"time": 125468, "annotation": {"number": 11, "value": 107}, "group": "control_change"}, {"time": 125484, "annotation": {"number": 11, "value": 102}, "group": "control_change"}, {"time": 125500, "annotation": {"number": 11, "value": 96}, "group": "control_change"}, {"time": 125515, "annotation": {"number": 11, "value": 91}, "group": "control_change"}, {"time": 125531, "annotation": {"number": 11, "value": 86}, "group": "control_change"}, {"time": 125547, "annotation": {"number": 11, "value": 80}, "group": "control_change"}, {"time": 125563, "annotation": {"number": 11, "value": 75}, "group": "control_change"}, {"time": 125579, "annotation": {"number": 11, "value": 69}, "group": "control_change"}, {"time": 125594, "annotation": {"number": 11, "value": 64}, "group": "control_change"}, {"time": 125808, "annotation": {"number": 11, "value": 72}, "group": "control_change"}, {"time": 125824, "annotation": {"number": 11, "value": 74}, "group": "control_change"}, {"time": 125840, "annotation": {"number": 11, "value": 76}, "group": "control_change"}, {"time": 125856, "annotation": {"number": 11, "value": 79}, "group": "control_change"}, {"time": 125872, "annotation": {"number": 11, "value": 81}, "group": "control_change"}, {"time": 125888, "annotation": {"number": 11, "value": 83}, "group": "control_change"}, {"time": 125904, "annotation": {"number": 11, "value": 86}, "group": "control_change"}, {"time": 125920, "annotation": {"number": 11, "value": 88}, "group": "control_change"}, {"time": 125936, "annotation": {"number": 11, "value": 91}, "group": "control_change"}, {"time": 125952, "annotation": {"number": 11, "value": 93}, "group": "control_change"}, {"time": 125968, "annotation": {"number": 11, "value": 95}, "group": "control_change"}, {"time": 125984, "annotation": {"number": 11, "value": 98}, "group": "control_change"}, {"time": 126000, "annotation": {"number": 11, "value": 100}, "group": "control_change"}, {"time": 126016, "annotation": {"number": 11, "value": 102}, "group": "control_change"}, {"time": 126032, "annotation": {"number": 11, "value": 105}, "group": "control_change"}, {"time": 126048, "annotation": {"number": 11, "value": 107}, "group": "control_change"}, {"time": 126064, "annotation": {"number": 11, "value": 110}, "group": "control_change"}, {"time": 126080, "annotation": {"number": 11, "value": 112}, "group": "control_change"}, {"time": 126096, "annotation": {"number": 11, "value": 114}, "group": "control_change"}, {"time": 126112, "annotation": {"number": 11, "value": 117}, "group": "control_change"}, {"time": 126128, "annotation": {"number": 11, "value": 119}, "group": "control_change"}, {"time": 126144, "annotation": {"number": 11, "value": 122}, "group": "control_change"}, {"time": 126160, "annotation": {"number": 11, "value": 124}, "group": "control_change"}, {"time": 126176, "annotation": {"number": 11, "value": 127}, "group": "control_change"}, {"time": 126393, "annotation": {"number": 11, "value": 120}, "group": "control_change"}, {"time": 126410, "annotation": {"number": 11, "value": 115}, "group": "control_change"}, {"time": 126427, "annotation": {"number": 11, "value": 111}, "group": "control_change"}, {"time": 126444, "annotation": {"number": 11, "value": 106}, "group": "control_change"}, {"time": 126461, "annotation": {"number": 11, "value": 102}, "group": "control_change"}, {"time": 126478, "annotation": {"number": 11, "value": 97}, "group": "control_change"}, {"time": 126495, "annotation": {"number": 11, "value": 93}, "group": "control_change"}, {"time": 126512, "annotation": {"number": 11, "value": 88}, "group": "control_change"}, {"time": 126529, "annotation": {"number": 11, "value": 84}, "group": "control_change"}, {"time": 126545, "annotation": {"number": 11, "value": 80}, "group": "control_change"}, {"time": 126747, "annotation": {"number": 11, "value": 84}, "group": "control_change"}, {"time": 126763, "annotation": {"number": 11, "value": 85}, "group": "control_change"}, {"time": 126780, "annotation": {"number": 11, "value": 87}, "group": "control_change"}, {"time": 126796, "annotation": {"number": 11, "value": 89}, "group": "control_change"}, {"time": 126813, "annotation": {"number": 11, "value": 91}, "group": "control_change"}, {"time": 126829, "annotation": {"number": 11, "value": 93}, "group": "control_change"}, {"time": 126846, "annotation": {"number": 11, "value": 95}, "group": "control_change"}, {"time": 126862, "annotation": {"number": 11, "value": 97}, "group": "control_change"}, {"time": 126879, "annotation": {"number": 11, "value": 99}, "group": "control_change"}, {"time": 126895, "annotation": {"number": 11, "value": 101}, "group": "control_change"}, {"time": 126912, "annotation": {"number": 11, "value": 103}, "group": "control_change"}, {"time": 126928, "annotation": {"number": 11, "value": 105}, "group": "control_change"}, {"time": 126945, "annotation": {"number": 11, "value": 107}, "group": "control_change"}, {"time": 126961, "annotation": {"number": 11, "value": 109}, "group": "control_change"}, {"time": 126978, "annotation": {"number": 11, "value": 111}, "group": "control_change"}, {"time": 126994, "annotation": {"number": 11, "value": 113}, "group": "control_change"}, {"time": 127011, "annotation": {"number": 11, "value": 115}, "group": "control_change"}, {"time": 127027, "annotation": {"number": 11, "value": 117}, "group": "control_change"}, {"time": 127044, "annotation": {"number": 11, "value": 119}, "group": "control_change"}, {"time": 127060, "annotation": {"number": 11, "value": 121}, "group": "control_change"}, {"time": 127077, "annotation": {"number": 11, "value": 123}, "group": "control_change"}, {"time": 127093, "annotation": {"number": 11, "value": 124}, "group": "control_change"}, {"time": 127109, "annotation": {"number": 11, "value": 127}, "group": "control_change"}, {"time": 138666, "annotation": {"number": 11, "value": 124}, "group": "control_change"}, {"time": 138682, "annotation": {"number": 11, "value": 115}, "group": "control_change"}, {"time": 138698, "annotation": {"number": 11, "value": 107}, "group": "control_change"}, {"time": 138715, "annotation": {"number": 11, "value": 98}, "group": "control_change"}, {"time": 138731, "annotation": {"number": 11, "value": 89}, "group": "control_change"}, {"time": 138748, "annotation": {"number": 11, "value": 80}, "group": "control_change"}, {"time": 138764, "annotation": {"number": 11, "value": 72}, "group": "control_change"}, {"time": 139038, "annotation": {"number": 11, "value": 78}, "group": "control_change"}, {"time": 139054, "annotation": {"number": 11, "value": 81}, "group": "control_change"}, {"time": 139071, "annotation": {"number": 11, "value": 84}, "group": "control_change"}, {"time": 139087, "annotation": {"number": 11, "value": 88}, "group": "control_change"}, {"time": 139104, "annotation": {"number": 11, "value": 91}, "group": "control_change"}, {"time": 139120, "annotation": {"number": 11, "value": 94}, "group": "control_change"}, {"time": 139136, "annotation": {"number": 11, "value": 97}, "group": "control_change"}, {"time": 139153, "annotation": {"number": 11, "value": 101}, "group": "control_change"}, {"time": 139169, "annotation": {"number": 11, "value": 104}, "group": "control_change"}, {"time": 139185, "annotation": {"number": 11, "value": 107}, "group": "control_change"}, {"time": 139202, "annotation": {"number": 11, "value": 110}, "group": "control_change"}, {"time": 139218, "annotation": {"number": 11, "value": 113}, "group": "control_change"}, {"time": 139234, "annotation": {"number": 11, "value": 117}, "group": "control_change"}, {"time": 139251, "annotation": {"number": 11, "value": 120}, "group": "control_change"}, {"time": 139267, "annotation": {"number": 11, "value": 123}, "group": "control_change"}, {"time": 139283, "annotation": {"number": 11, "value": 127}, "group": "control_change"}, {"time": 171956, "annotation": {"number": 11, "value": 120}, "group": "control_change"}, {"time": 171972, "annotation": {"number": 11, "value": 117}, "group": "control_change"}, {"time": 171989, "annotation": {"number": 11, "value": 114}, "group": "control_change"}, {"time": 172005, "annotation": {"number": 11, "value": 111}, "group": "control_change"}, {"time": 172022, "annotation": {"number": 11, "value": 108}, "group": "control_change"}, {"time": 172038, "annotation": {"number": 11, "value": 105}, "group": "control_change"}, {"time": 172055, "annotation": {"number": 11, "value": 102}, "group": "control_change"}, {"time": 172071, "annotation": {"number": 11, "value": 99}, "group": "control_change"}, {"time": 172088, "annotation": {"number": 11, "value": 96}, "group": "control_change"}, {"time": 172104, "annotation": {"number": 11, "value": 93}, "group": "control_change"}, {"time": 172121, "annotation": {"number": 11, "value": 90}, "group": "control_change"}, {"time": 172137, "annotation": {"number": 11, "value": 87}, "group": "control_change"}, {"time": 172154, "annotation": {"number": 11, "value": 84}, "group": "control_change"}, {"time": 172170, "annotation": {"number": 11, "value": 81}, "group": "control_change"}, {"time": 172187, "annotation": {"number": 11, "value": 78}, "group": "control_change"}, {"time": 172203, "annotation": {"number": 11, "value": 75}, "group": "control_change"}, {"time": 172219, "annotation": {"number": 11, "value": 72}, "group": "control_change"}, {"time": 172560, "annotation": {"number": 11, "value": 76}, "group": "control_change"}, {"time": 172576, "annotation": {"number": 11, "value": 77}, "group": "control_change"}, {"time": 172592, "annotation": {"number": 11, "value": 79}, "group": "control_change"}, {"time": 172608, "annotation": {"number": 11, "value": 81}, "group": "control_change"}, {"time": 172624, "annotation": {"number": 11, "value": 82}, "group": "control_change"}, {"time": 172640, "annotation": {"number": 11, "value": 84}, "group": "control_change"}, {"time": 172656, "annotation": {"number": 11, "value": 86}, "group": "control_change"}, {"time": 172672, "annotation": {"number": 11, "value": 88}, "group": "control_change"}, {"time": 172689, "annotation": {"number": 11, "value": 90}, "group": "control_change"}, {"time": 172705, "annotation": {"number": 11, "value": 91}, "group": "control_change"}, {"time": 172721, "annotation": {"number": 11, "value": 93}, "group": "control_change"}, {"time": 172737, "annotation": {"number": 11, "value": 95}, "group": "control_change"}, {"time": 172753, "annotation": {"number": 11, "value": 97}, "group": "control_change"}, {"time": 172769, "annotation": {"number": 11, "value": 98}, "group": "control_change"}, {"time": 172785, "annotation": {"number": 11, "value": 100}, "group": "control_change"}, {"time": 172802, "annotation": {"number": 11, "value": 102}, "group": "control_change"}, {"time": 172818, "annotation": {"number": 11, "value": 104}, "group": "control_change"}, {"time": 172834, "annotation": {"number": 11, "value": 105}, "group": "control_change"}, {"time": 172850, "annotation": {"number": 11, "value": 107}, "group": "control_change"}, {"time": 172866, "annotation": {"number": 11, "value": 109}, "group": "control_change"}, {"time": 172882, "annotation": {"number": 11, "value": 111}, "group": "control_change"}, {"time": 172898, "annotation": {"number": 11, "value": 112}, "group": "control_change"}, {"time": 172915, "annotation": {"number": 11, "value": 114}, "group": "control_change"}, {"time": 172931, "annotation": {"number": 11, "value": 116}, "group": "control_change"}, {"time": 172947, "annotation": {"number": 11, "value": 118}, "group": "control_change"}, {"time": 172963, "annotation": {"number": 11, "value": 119}, "group": "control_change"}, {"time": 172979, "annotation": {"number": 11, "value": 121}, "group": "control_change"}, {"time": 172995, "annotation": {"number": 11, "value": 123}, "group": "control_change"}, {"time": 173011, "annotation": {"number": 11, "value": 125}, "group": "control_change"}, {"time": 173027, "annotation": {"number": 11, "value": 127}, "group": "control_change"}, {"time": 207786, "annotation": {"number": 11, "value": 124}, "group": "control_change"}, {"time": 207802, "annotation": {"number": 11, "value": 115}, "group": "control_change"}, {"time": 207818, "annotation": {"number": 11, "value": 107}, "group": "control_change"}, {"time": 207835, "annotation": {"number": 11, "value": 98}, "group": "control_change"}, {"time": 207851, "annotation": {"number": 11, "value": 89}, "group": "control_change"}, {"time": 207868, "annotation": {"number": 11, "value": 80}, "group": "control_change"}, {"time": 207884, "annotation": {"number": 11, "value": 72}, "group": "control_change"}, {"time": 208158, "annotation": {"number": 11, "value": 78}, "group": "control_change"}, {"time": 208174, "annotation": {"number": 11, "value": 81}, "group": "control_change"}, {"time": 208191, "annotation": {"number": 11, "value": 84}, "group": "control_change"}, {"time": 208207, "annotation": {"number": 11, "value": 88}, "group": "control_change"}, {"time": 208224, "annotation": {"number": 11, "value": 91}, "group": "control_change"}, {"time": 208240, "annotation": {"number": 11, "value": 94}, "group": "control_change"}, {"time": 208256, "annotation": {"number": 11, "value": 97}, "group": "control_change"}, {"time": 208273, "annotation": {"number": 11, "value": 101}, "group": "control_change"}, {"time": 208289, "annotation": {"number": 11, "value": 104}, "group": "control_change"}, {"time": 208305, "annotation": {"number": 11, "value": 107}, "group": "control_change"}, {"time": 208322, "annotation": {"number": 11, "value": 110}, "group": "control_change"}, {"time": 208338, "annotation": {"number": 11, "value": 113}, "group": "control_change"}, {"time": 208354, "annotation": {"number": 11, "value": 117}, "group": "control_change"}, {"time": 208371, "annotation": {"number": 11, "value": 120}, "group": "control_change"}, {"time": 208387, "annotation": {"number": 11, "value": 123}, "group": "control_change"}, {"time": 208403, "annotation": {"number": 11, "value": 127}, "group": "control_change"}, {"time": 209901, "annotation": {"number": 11, "value": 124}, "group": "control_change"}, {"time": 209916, "annotation": {"number": 11, "value": 118}, "group": "control_change"}, {"time": 209932, "annotation": {"number": 11, "value": 113}, "group": "control_change"}, {"time": 209948, "annotation": {"number": 11, "value": 107}, "group": "control_change"}, {"time": 209964, "annotation": {"number": 11, "value": 102}, "group": "control_change"}, {"time": 209980, "annotation": {"number": 11, "value": 96}, "group": "control_change"}, {"time": 209995, "annotation": {"number": 11, "value": 91}, "group": "control_change"}, {"time": 210011, "annotation": {"number": 11, "value": 86}, "group": "control_change"}, {"time": 210027, "annotation": {"number": 11, "value": 80}, "group": "control_change"}, {"time": 210043, "annotation": {"number": 11, "value": 75}, "group": "control_change"}, {"time": 210059, "annotation": {"number": 11, "value": 69}, "group": "control_change"}, {"time": 210074, "annotation": {"number": 11, "value": 64}, "group": "control_change"}, {"time": 210288, "annotation": {"number": 11, "value": 72}, "group": "control_change"}, {"time": 210304, "annotation": {"number": 11, "value": 74}, "group": "control_change"}, {"time": 210320, "annotation": {"number": 11, "value": 76}, "group": "control_change"}, {"time": 210336, "annotation": {"number": 11, "value": 79}, "group": "control_change"}, {"time": 210352, "annotation": {"number": 11, "value": 81}, "group": "control_change"}, {"time": 210368, "annotation": {"number": 11, "value": 83}, "group": "control_change"}, {"time": 210384, "annotation": {"number": 11, "value": 86}, "group": "control_change"}, {"time": 210400, "annotation": {"number": 11, "value": 88}, "group": "control_change"}, {"time": 210416, "annotation": {"number": 11, "value": 91}, "group": "control_change"}, {"time": 210432, "annotation": {"number": 11, "value": 93}, "group": "control_change"}, {"time": 210448, "annotation": {"number": 11, "value": 95}, "group": "control_change"}, {"time": 210464, "annotation": {"number": 11, "value": 98}, "group": "control_change"}, {"time": 210480, "annotation": {"number": 11, "value": 100}, "group": "control_change"}, {"time": 210496, "annotation": {"number": 11, "value": 102}, "group": "control_change"}, {"time": 210512, "annotation": {"number": 11, "value": 105}, "group": "control_change"}, {"time": 210528, "annotation": {"number": 11, "value": 107}, "group": "control_change"}, {"time": 210544, "annotation": {"number": 11, "value": 110}, "group": "control_change"}, {"time": 210560, "annotation": {"number": 11, "value": 112}, "group": "control_change"}, {"time": 210576, "annotation": {"number": 11, "value": 114}, "group": "control_change"}, {"time": 210592, "annotation": {"number": 11, "value": 117}, "group": "control_change"}, {"time": 210608, "annotation": {"number": 11, "value": 119}, "group": "control_change"}, {"time": 210624, "annotation": {"number": 11, "value": 122}, "group": "control_change"}, {"time": 210640, "annotation": {"number": 11, "value": 124}, "group": "control_change"}, {"time": 210656, "annotation": {"number": 11, "value": 127}, "group": "control_change"}, {"time": 210873, "annotation": {"number": 11, "value": 120}, "group": "control_change"}, {"time": 210890, "annotation": {"number": 11, "value": 115}, "group": "control_change"}, {"time": 210907, "annotation": {"number": 11, "value": 111}, "group": "control_change"}, {"time": 210924, "annotation": {"number": 11, "value": 106}, "group": "control_change"}, {"time": 210941, "annotation": {"number": 11, "value": 102}, "group": "control_change"}, {"time": 210958, "annotation": {"number": 11, "value": 97}, "group": "control_change"}, {"time": 210975, "annotation": {"number": 11, "value": 93}, "group": "control_change"}, {"time": 210992, "annotation": {"number": 11, "value": 88}, "group": "control_change"}, {"time": 211009, "annotation": {"number": 11, "value": 84}, "group": "control_change"}, {"time": 211025, "annotation": {"number": 11, "value": 80}, "group": "control_change"}, {"time": 211227, "annotation": {"number": 11, "value": 84}, "group": "control_change"}, {"time": 211243, "annotation": {"number": 11, "value": 85}, "group": "control_change"}, {"time": 211260, "annotation": {"number": 11, "value": 87}, "group": "control_change"}, {"time": 211276, "annotation": {"number": 11, "value": 89}, "group": "control_change"}, {"time": 211293, "annotation": {"number": 11, "value": 91}, "group": "control_change"}, {"time": 211309, "annotation": {"number": 11, "value": 93}, "group": "control_change"}, {"time": 211326, "annotation": {"number": 11, "value": 95}, "group": "control_change"}, {"time": 211342, "annotation": {"number": 11, "value": 97}, "group": "control_change"}, {"time": 211359, "annotation": {"number": 11, "value": 99}, "group": "control_change"}, {"time": 211375, "annotation": {"number": 11, "value": 101}, "group": "control_change"}, {"time": 211392, "annotation": {"number": 11, "value": 103}, "group": "control_change"}, {"time": 211408, "annotation": {"number": 11, "value": 105}, "group": "control_change"}, {"time": 211425, "annotation": {"number": 11, "value": 107}, "group": "control_change"}, {"time": 211441, "annotation": {"number": 11, "value": 109}, "group": "control_change"}, {"time": 211458, "annotation": {"number": 11, "value": 111}, "group": "control_change"}, {"time": 211474, "annotation": {"number": 11, "value": 113}, "group": "control_change"}, {"time": 211491, "annotation": {"number": 11, "value": 115}, "group": "control_change"}, {"time": 211507, "annotation": {"number": 11, "value": 117}, "group": "control_change"}, {"time": 211524, "annotation": {"number": 11, "value": 119}, "group": "control_change"}, {"time": 211540, "annotation": {"number": 11, "value": 121}, "group": "control_change"}, {"time": 211557, "annotation": {"number": 11, "value": 123}, "group": "control_change"}, {"time": 211573, "annotation": {"number": 11, "value": 124}, "group": "control_change"}, {"time": 211589, "annotation": {"number": 11, "value": 127}, "group": "control_change"}, {"time": 223146, "annotation": {"number": 11, "value": 124}, "group": "control_change"}, {"time": 223162, "annotation": {"number": 11, "value": 115}, "group": "control_change"}, {"time": 223178, "annotation": {"number": 11, "value": 107}, "group": "control_change"}, {"time": 223195, "annotation": {"number": 11, "value": 98}, "group": "control_change"}, {"time": 223211, "annotation": {"number": 11, "value": 89}, "group": "control_change"}, {"time": 223228, "annotation": {"number": 11, "value": 80}, "group": "control_change"}, {"time": 223244, "annotation": {"number": 11, "value": 72}, "group": "control_change"}, {"time": 223518, "annotation": {"number": 11, "value": 78}, "group": "control_change"}, {"time": 223534, "annotation": {"number": 11, "value": 81}, "group": "control_change"}, {"time": 223551, "annotation": {"number": 11, "value": 84}, "group": "control_change"}, {"time": 223567, "annotation": {"number": 11, "value": 88}, "group": "control_change"}, {"time": 223584, "annotation": {"number": 11, "value": 91}, "group": "control_change"}, {"time": 223600, "annotation": {"number": 11, "value": 94}, "group": "control_change"}, {"time": 223616, "annotation": {"number": 11, "value": 97}, "group": "control_change"}, {"time": 223633, "annotation": {"number": 11, "value": 101}, "group": "control_change"}, {"time": 223649, "annotation": {"number": 11, "value": 104}, "group": "control_change"}, {"time": 223665, "annotation": {"number": 11, "value": 107}, "group": "control_change"}, {"time": 223682, "annotation": {"number": 11, "value": 110}, "group": "control_change"}, {"time": 223698, "annotation": {"number": 11, "value": 113}, "group": "control_change"}, {"time": 223714, "annotation": {"number": 11, "value": 117}, "group": "control_change"}, {"time": 223731, "annotation": {"number": 11, "value": 120}, "group": "control_change"}, {"time": 223747, "annotation": {"number": 11, "value": 123}, "group": "control_change"}, {"time": 223763, "annotation": {"number": 11, "value": 127}, "group": "control_change"}]}, {"program": 27, "is_drum": false, "name": "TRUMPET/E.guitar", "notes": [{"time": 33110, "pitch": 59, "duration": 630, "velocity": 85}, {"time": 33120, "pitch": 62, "duration": 620, "velocity": 90}, {"time": 33140, "pitch": 67, "duration": 670, "velocity": 95}, {"time": 34060, "pitch": 61, "duration": 790, "velocity": 85}, {"time": 34080, "pitch": 67, "duration": 940, "velocity": 90}, {"time": 34110, "pitch": 72, "duration": 650, "velocity": 98}, {"time": 35040, "pitch": 57, "duration": 1800, "velocity": 82}, {"time": 35280, "pitch": 65, "duration": 1650, "velocity": 97}, {"time": 35520, "pitch": 60, "duration": 1340, "velocity": 89}, {"time": 35760, "pitch": 69, "duration": 1200, "velocity": 106}, {"time": 36960, "pitch": 56, "duration": 1630, "velocity": 82}, {"time": 37200, "pitch": 65, "duration": 1450, "velocity": 99}, {"time": 37440, "pitch": 60, "duration": 1150, "velocity": 91}, {"time": 37680, "pitch": 68, "duration": 940, "velocity": 106}, {"time": 102230, "pitch": 59, "duration": 630, "velocity": 85}, {"time": 102240, "pitch": 62, "duration": 620, "velocity": 90}, {"time": 102260, "pitch": 67, "duration": 670, "velocity": 95}, {"time": 103180, "pitch": 61, "duration": 790, "velocity": 85}, {"time": 103200, "pitch": 67, "duration": 940, "velocity": 90}, {"time": 103230, "pitch": 72, "duration": 650, "velocity": 98}, {"time": 104160, "pitch": 57, "duration": 1800, "velocity": 82}, {"time": 104400, "pitch": 65, "duration": 1650, "velocity": 97}, {"time": 104640, "pitch": 60, "duration": 1340, "velocity": 89}, {"time": 104880, "pitch": 69, "duration": 1200, "velocity": 106}, {"time": 106080, "pitch": 56, "duration": 1630, "velocity": 82}, {"time": 106320, "pitch": 65, "duration": 1450, "velocity": 99}, {"time": 106560, "pitch": 60, "duration": 1150, "velocity": 91}, {"time": 106800, "pitch": 68, "duration": 940, "velocity": 106}], "annotations": [{"time": 33060, "annotation": {"number": 7, "value": 70}, "group": "control_change"}, {"time": 33070, "annotation": {"number": 11, "value": 127}, "group": "control_change"}, {"time": 33080, "annotation": {"number": 10, "value": 87}, "group": "control_change"}, {"time": 33090, "annotation": {"number": 91, "value": 110}, "group": "control_change"}, {"time": 33100, "annotation": {"number": 93, "value": 0}, "group": "control_change"}, {"time": 52320, "annotation": {"number": 0, "value": 24}, "group": "control_change"}, {"time": 52330, "annotation": {"number": 32, "value": 2}, "group": "control_change"}, {"time": 102180, "annotation": {"number": 7, "value": 70}, "group": "control_change"}, {"time": 102190, "annotation": {"number": 11, "value": 127}, "group": "control_change"}, {"time": 102200, "annotation": {"number": 10, "value": 87}, "group": "control_change"}, {"time": 102210, "annotation": {"number": 91, "value": 110}, "group": "control_change"}, {"time": 102220, "annotation": {"number": 93, "value": 0}, "group": "control_change"}, {"time": 121440, "annotation": {"number": 0, "value": 24}, "group": "control_change"}, {"time": 121450, "annotation": {"number": 32, "value": 2}, "group": "control_change"}]}, {"program": 0, "is_drum": false, "name": "TROMBONE", "annotations": [{"time": 288, "annotation": {"number": 0, "value": 0}, "group": "control_change"}, {"time": 304, "annotation": {"number": 32, "value": 1}, "group": "control_change"}]}, {"program": 57, "is_drum": false, "name": "TROMBONE", "notes": [{"time": 15840, "pitch": 55, "duration": 220, "velocity": 110}, {"time": 15840, "pitch": 67, "duration": 220, "velocity": 120}, {"time": 16080, "pitch": 55, "duration": 80, "velocity": 110}, {"time": 16080, "pitch": 67, "duration": 80, "velocity": 120}, {"time": 16800, "pitch": 55, "duration": 220, "velocity": 110}, {"time": 16800, "pitch": 67, "duration": 220, "velocity": 120}, {"time": 17040, "pitch": 55, "duration": 80, "velocity": 110}, {"time": 17040, "pitch": 67, "duration": 80, "velocity": 120}, {"time": 17520, "pitch": 55, "duration": 80, "velocity": 110}, {"time": 17520, "pitch": 67, "duration": 80, "velocity": 120}, {"time": 18240, "pitch": 55, "duration": 1420, "velocity": 110}, {"time": 18240, "pitch": 67, "duration": 1420, "velocity": 120}, {"time": 46560, "pitch": 38, "duration": 700, "velocity": 110}, {"time": 46560, "pitch": 50, "duration": 700, "velocity": 110}, {"time": 47280, "pitch": 40, "duration": 440, "velocity": 100}, {"time": 47280, "pitch": 52, "duration": 440, "velocity": 100}, {"time": 47760, "pitch": 41, "duration": 420, "velocity": 100}, {"time": 47760, "pitch": 53, "duration": 420, "velocity": 100}, {"time": 48240, "pitch": 42, "duration": 190, "velocity": 105}, {"time": 48240, "pitch": 54, "duration": 190, "velocity": 105}, {"time": 48480, "pitch": 43, "duration": 200, "velocity": 110}, {"time": 48480, "pitch": 55, "duration": 200, "velocity": 110}, {"time": 48720, "pitch": 43, "duration": 80, "velocity": 112}, {"time": 48720, "pitch": 55, "duration": 80, "velocity": 112}, {"time": 50640, "pitch": 55, "duration": 70, "velocity": 114}, {"time": 50760, "pitch": 57, "duration": 90, "velocity": 114}, {"time": 51000, "pitch": 60, "duration": 120, "velocity": 122}, {"time": 51240, "pitch": 55, "duration": 70, "velocity": 106}, {"time": 51360, "pitch": 57, "duration": 70, "velocity": 114}, {"time": 51600, "pitch": 60, "duration": 140, "velocity": 127}, {"time": 52560, "pitch": 55, "duration": 110, "velocity": 97}, {"time": 52680, "pitch": 57, "duration": 120, "velocity": 112}, {"time": 52920, "pitch": 60, "duration": 120, "velocity": 106}, {"time": 53160, "pitch": 57, "duration": 110, "velocity": 97}, {"time": 53280, "pitch": 60, "duration": 120, "velocity": 106}, {"time": 53520, "pitch": 55, "duration": 230, "velocity": 112}, {"time": 53520, "pitch": 63, "duration": 230, "velocity": 127}, {"time": 53760, "pitch": 56, "duration": 170, "velocity": 112}, {"time": 53760, "pitch": 62, "duration": 170, "velocity": 127}, {"time": 54000, "pitch": 57, "duration": 940, "velocity": 99}, {"time": 54000, "pitch": 60, "duration": 940, "velocity": 114}, {"time": 54960, "pitch": 57, "duration": 134, "velocity": 110}, {"time": 54960, "pitch": 60, "duration": 134, "velocity": 116}, {"time": 66000, "pitch": 55, "duration": 70, "velocity": 114}, {"time": 66120, "pitch": 57, "duration": 90, "velocity": 114}, {"time": 66360, "pitch": 60, "duration": 120, "velocity": 122}, {"time": 66600, "pitch": 55, "duration": 70, "velocity": 106}, {"time": 66720, "pitch": 57, "duration": 70, "velocity": 114}, {"time": 66960, "pitch": 60, "duration": 140, "velocity": 127}, {"time": 67920, "pitch": 55, "duration": 110, "velocity": 97}, {"time": 68040, "pitch": 57, "duration": 120, "velocity": 112}, {"time": 68280, "pitch": 60, "duration": 120, "velocity": 106}, {"time": 68520, "pitch": 57, "duration": 110, "velocity": 97}, {"time": 68640, "pitch": 60, "duration": 120, "velocity": 106}, {"time": 68880, "pitch": 55, "duration": 230, "velocity": 112}, {"time": 68880, "pitch": 63, "duration": 230, "velocity": 127}, {"time": 69120, "pitch": 56, "duration": 170, "velocity": 112}, {"time": 69120, "pitch": 62, "duration": 170, "velocity": 127}, {"time": 69360, "pitch": 57, "duration": 940, "velocity": 99}, {"time": 69360, "pitch": 60, "duration": 940, "velocity": 114}, {"time": 70320, "pitch": 57, "duration": 134, "velocity": 110}, {"time": 70320, "pitch": 60, "duration": 134, "velocity": 116}, {"time": 81120, "pitch": 48, "duration": 190, "velocity": 127}, {"time": 81360, "pitch": 48, "duration": 110, "velocity": 127}, {"time": 81840, "pitch": 53, "duration": 380, "velocity": 101}, {"time": 82320, "pitch": 55, "duration": 410, "velocity": 96}, {"time": 82800, "pitch": 58, "duration": 210, "velocity": 100}, {"time": 83040, "pitch": 48, "duration": 220, "velocity": 125}, {"time": 83280, "pitch": 48, "duration": 110, "velocity": 114}, {"time": 83760, "pitch": 53, "duration": 380, "velocity": 101}, {"time": 84240, "pitch": 55, "duration": 410, "velocity": 96}, {"time": 84720, "pitch": 58, "duration": 210, "velocity": 99}, {"time": 84960, "pitch": 48, "duration": 1920, "velocity": 112}, {"time": 115680, "pitch": 38, "duration": 700, "velocity": 110}, {"time": 115680, "pitch": 50, "duration": 700, "velocity": 110}, {"time": 116400, "pitch": 40, "duration": 440, "velocity": 100}, {"time": 116400, "pitch": 52, "duration": 440, "velocity": 100}, {"time": 116880, "pitch": 41, "duration": 420, "velocity": 100}, {"time": 116880, "pitch": 53, "duration": 420, "velocity": 100}, {"time": 117360, "pitch": 42, "duration": 190, "velocity": 105}, {"time": 117360, "pitch": 54, "duration": 190, "velocity": 105}, {"time": 117600, "pitch": 43, "duration": 200, "velocity": 110}, {"time": 117600, "pitch": 55, "duration": 200, "velocity": 110}, {"time": 117840, "pitch": 43, "duration": 80, "velocity": 112}, {"time": 117840, "pitch": 55, "duration": 80, "velocity": 112}, {"time": 119760, "pitch": 55, "duration": 70, "velocity": 114}, {"time": 119880, "pitch": 57, "duration": 90, "velocity": 114}, {"time": 120120, "pitch": 60, "duration": 120, "velocity": 122}, {"time": 120360, "pitch": 55, "duration": 70, "velocity": 106}, {"time": 120480, "pitch": 57, "duration": 70, "velocity": 114}, {"time": 120720, "pitch": 60, "duration": 140, "velocity": 127}, {"time": 121680, "pitch": 55, "duration": 110, "velocity": 97}, {"time": 121800, "pitch": 57, "duration": 120, "velocity": 112}, {"time": 122040, "pitch": 60, "duration": 120, "velocity": 106}, {"time": 122280, "pitch": 57, "duration": 110, "velocity": 97}, {"time": 122400, "pitch": 60, "duration": 120, "velocity": 106}, {"time": 122640, "pitch": 55, "duration": 230, "velocity": 112}, {"time": 122640, "pitch": 63, "duration": 230, "velocity": 127}, {"time": 122880, "pitch": 56, "duration": 170, "velocity": 112}, {"time": 122880, "pitch": 62, "duration": 170, "velocity": 127}, {"time": 123120, "pitch": 57, "duration": 940, "velocity": 99}, {"time": 123120, "pitch": 60, "duration": 940, "velocity": 114}, {"time": 124080, "pitch": 57, "duration": 134, "velocity": 110}, {"time": 124080, "pitch": 60, "duration": 134, "velocity": 116}, {"time": 135120, "pitch": 55, "duration": 70, "velocity": 114}, {"time": 135240, "pitch": 57, "duration": 90, "velocity": 114}, {"time": 135480, "pitch": 60, "duration": 120, "velocity": 122}, {"time": 135720, "pitch": 55, "duration": 70, "velocity": 106}, {"time": 135840, "pitch": 57, "duration": 70, "velocity": 114}, {"time": 136080, "pitch": 60, "duration": 140, "velocity": 127}, {"time": 137040, "pitch": 55, "duration": 110, "velocity": 97}, {"time": 137160, "pitch": 57, "duration": 120, "velocity": 112}, {"time": 137400, "pitch": 60, "duration": 120, "velocity": 106}, {"time": 137640, "pitch": 57, "duration": 110, "velocity": 97}, {"time": 137760, "pitch": 60, "duration": 120, "velocity": 106}, {"time": 138000, "pitch": 55, "duration": 230, "velocity": 112}, {"time": 138000, "pitch": 63, "duration": 230, "velocity": 127}, {"time": 138240, "pitch": 56, "duration": 170, "velocity": 112}, {"time": 138240, "pitch": 62, "duration": 170, "velocity": 127}, {"time": 138480, "pitch": 57, "duration": 940, "velocity": 99}, {"time": 138480, "pitch": 60, "duration": 940, "velocity": 114}, {"time": 139440, "pitch": 57, "duration": 134, "velocity": 110}, {"time": 139440, "pitch": 60, "duration": 134, "velocity": 116}, {"time": 169440, "pitch": 55, "duration": 220, "velocity": 110}, {"time": 169440, "pitch": 67, "duration": 220, "velocity": 120}, {"time": 169680, "pitch": 55, "duration": 80, "velocity": 110}, {"time": 169680, "pitch": 67, "duration": 80, "velocity": 120}, {"time": 170400, "pitch": 55, "duration": 220, "velocity": 110}, {"time": 170400, "pitch": 67, "duration": 220, "velocity": 120}, {"time": 170640, "pitch": 55, "duration": 80, "velocity": 110}, {"time": 170640, "pitch": 67, "duration": 80, "velocity": 120}, {"time": 171120, "pitch": 55, "duration": 80, "velocity": 110}, {"time": 171120, "pitch": 67, "duration": 80, "velocity": 120}, {"time": 171840, "pitch": 55, "duration": 1420, "velocity": 110}, {"time": 171840, "pitch": 67, "duration": 1420, "velocity": 120}, {"time": 204240, "pitch": 55, "duration": 70, "velocity": 114}, {"time": 204360, "pitch": 57, "duration": 90, "velocity": 114}, {"time": 204600, "pitch": 60, "duration": 120, "velocity": 122}, {"time": 204840, "pitch": 55, "duration": 70, "velocity": 106}, {"time": 204960, "pitch": 57, "duration": 70, "velocity": 114}, {"time": 205200, "pitch": 60, "duration": 140, "velocity": 127}, {"time": 206160, "pitch": 55, "duration": 110, "velocity": 97}, {"time": 206280, "pitch": 57, "duration": 120, "velocity": 112}, {"time": 206520, "pitch": 60, "duration": 120, "velocity": 106}, {"time": 206760, "pitch": 57, "duration": 110, "velocity": 97}, {"time": 206880, "pitch": 60, "duration": 120, "velocity": 106}, {"time": 207120, "pitch": 55, "duration": 230, "velocity": 112}, {"time": 207120, "pitch": 63, "duration": 230, "velocity": 127}, {"time": 207360, "pitch": 56, "duration": 170, "velocity": 112}, {"time": 207360, "pitch": 62, "duration": 170, "velocity": 127}, {"time": 207600, "pitch": 57, "duration": 940, "velocity": 99}, {"time": 207600, "pitch": 60, "duration": 940, "velocity": 114}, {"time": 208560, "pitch": 57, "duration": 134, "velocity": 110}, {"time": 208560, "pitch": 60, "duration": 134, "velocity": 116}, {"time": 219600, "pitch": 55, "duration": 70, "velocity": 114}, {"time": 219720, "pitch": 57, "duration": 90, "velocity": 114}, {"time": 219960, "pitch": 60, "duration": 120, "velocity": 122}, {"time": 220200, "pitch": 55, "duration": 70, "velocity": 106}, {"time": 220320, "pitch": 57, "duration": 70, "velocity": 114}, {"time": 220560, "pitch": 60, "duration": 140, "velocity": 127}, {"time": 221520, "pitch": 55, "duration": 110, "velocity": 97}, {"time": 221640, "pitch": 57, "duration": 120, "velocity": 112}, {"time": 221880, "pitch": 60, "duration": 120, "velocity": 106}, {"time": 222120, "pitch": 57, "duration": 110, "velocity": 97}, {"time": 222240, "pitch": 60, "duration": 120, "velocity": 106}, {"time": 222480, "pitch": 55, "duration": 230, "velocity": 112}, {"time": 222480, "pitch": 63, "duration": 230, "velocity": 127}, {"time": 222720, "pitch": 56, "duration": 170, "velocity": 112}, {"time": 222720, "pitch": 62, "duration": 170, "velocity": 127}, {"time": 222960, "pitch": 57, "duration": 940, "velocity": 99}, {"time": 222960, "pitch": 60, "duration": 940, "velocity": 114}, {"time": 223920, "pitch": 57, "duration": 134, "velocity": 110}, {"time": 223920, "pitch": 60, "duration": 134, "velocity": 116}, {"time": 234720, "pitch": 48, "duration": 190, "velocity": 127}, {"time": 234960, "pitch": 48, "duration": 110, "velocity": 127}, {"time": 235440, "pitch": 53, "duration": 380, "velocity": 101}, {"time": 235920, "pitch": 55, "duration": 410, "velocity": 96}, {"time": 236400, "pitch": 58, "duration": 210, "velocity": 100}, {"time": 236640, "pitch": 48, "duration": 220, "velocity": 125}, {"time": 236880, "pitch": 48, "duration": 110, "velocity": 114}, {"time": 237360, "pitch": 53, "duration": 380, "velocity": 101}, {"time": 237840, "pitch": 55, "duration": 410, "velocity": 96}, {"time": 238320, "pitch": 58, "duration": 210, "velocity": 99}, {"time": 238560, "pitch": 48, "duration": 220, "velocity": 125}, {"time": 238800, "pitch": 48, "duration": 110, "velocity": 114}, {"time": 239280, "pitch": 53, "duration": 80, "velocity": 101}, {"time": 239280, "pitch": 63, "duration": 110, "velocity": 101}, {"time": 239760, "pitch": 55, "duration": 80, "velocity": 96}, {"time": 239760, "pitch": 62, "duration": 110, "velocity": 96}, {"time": 240240, "pitch": 58, "duration": 80, "velocity": 99}, {"time": 240240, "pitch": 60, "duration": 110, "velocity": 99}, {"time": 240480, "pitch": 48, "duration": 220, "velocity": 125}, {"time": 240720, "pitch": 48, "duration": 110, "velocity": 114}, {"time": 241200, "pitch": 53, "duration": 80, "velocity": 101}, {"time": 241200, "pitch": 63, "duration": 110, "velocity": 101}, {"time": 241680, "pitch": 55, "duration": 80, "velocity": 96}, {"time": 241680, "pitch": 62, "duration": 110, "velocity": 96}, {"time": 242160, "pitch": 58, "duration": 80, "velocity": 99}, {"time": 242160, "pitch": 60, "duration": 110, "velocity": 99}, {"time": 242400, "pitch": 48, "duration": 220, "velocity": 125}, {"time": 242640, "pitch": 48, "duration": 110, "velocity": 114}], "annotations": [{"time": 336, "annotation": {"number": 7, "value": 87}, "group": "control_change"}, {"time": 352, "annotation": {"number": 11, "value": 127}, "group": "control_change"}, {"time": 368, "annotation": {"number": 10, "value": 20}, "group": "control_change"}, {"time": 384, "annotation": {"number": 91, "value": 40}, "group": "control_change"}, {"time": 400, "annotation": {"number": 93, "value": 20}, "group": "control_change"}, {"time": 416, "annotation": {"number": 101, "value": 0}, "group": "control_change"}, {"time": 432, "annotation": {"number": 100, "value": 0}, "group": "control_change"}, {"time": 448, "annotation": {"number": 6, "value": 12}, "group": "control_change"}, {"time": 464, "annotation": {"number": 101, "value": 127}, "group": "control_change"}, {"time": 480, "annotation": {"number": 100, "value": 127}, "group": "control_change"}, {"time": 18356, "annotation": {"number": 11, "value": 120}, "group": "control_change"}, {"time": 18372, "annotation": {"number": 11, "value": 117}, "group": "control_change"}, {"time": 18389, "annotation": {"number": 11, "value": 114}, "group": "control_change"}, {"time": 18405, "annotation": {"number": 11, "value": 111}, "group": "control_change"}, {"time": 18422, "annotation": {"number": 11, "value": 108}, "group": "control_change"}, {"time": 18438, "annotation": {"number": 11, "value": 105}, "group": "control_change"}, {"time": 18455, "annotation": {"number": 11, "value": 102}, "group": "control_change"}, {"time": 18471, "annotation": {"number": 11, "value": 99}, "group": "control_change"}, {"time": 18488, "annotation": {"number": 11, "value": 96}, "group": "control_change"}, {"time": 18504, "annotation": {"number": 11, "value": 93}, "group": "control_change"}, {"time": 18521, "annotation": {"number": 11, "value": 90}, "group": "control_change"}, {"time": 18537, "annotation": {"number": 11, "value": 87}, "group": "control_change"}, {"time": 18554, "annotation": {"number": 11, "value": 84}, "group": "control_change"}, {"time": 18570, "annotation": {"number": 11, "value": 81}, "group": "control_change"}, {"time": 18587, "annotation": {"number": 11, "value": 78}, "group": "control_change"}, {"time": 18603, "annotation": {"number": 11, "value": 75}, "group": "control_change"}, {"time": 18619, "annotation": {"number": 11, "value": 72}, "group": "control_change"}, {"time": 18960, "annotation": {"number": 11, "value": 76}, "group": "control_change"}, {"time": 18976, "annotation": {"number": 11, "value": 77}, "group": "control_change"}, {"time": 18992, "annotation": {"number": 11, "value": 79}, "group": "control_change"}, {"time": 19008, "annotation": {"number": 11, "value": 81}, "group": "control_change"}, {"time": 19024, "annotation": {"number": 11, "value": 82}, "group": "control_change"}, {"time": 19040, "annotation": {"number": 11, "value": 84}, "group": "control_change"}, {"time": 19056, "annotation": {"number": 11, "value": 86}, "group": "control_change"}, {"time": 19072, "annotation": {"number": 11, "value": 88}, "group": "control_change"}, {"time": 19089, "annotation": {"number": 11, "value": 90}, "group": "control_change"}, {"time": 19105, "annotation": {"number": 11, "value": 91}, "group": "control_change"}, {"time": 19121, "annotation": {"number": 11, "value": 93}, "group": "control_change"}, {"time": 19137, "annotation": {"number": 11, "value": 95}, "group": "control_change"}, {"time": 19153, "annotation": {"number": 11, "value": 97}, "group": "control_change"}, {"time": 19169, "annotation": {"number": 11, "value": 98}, "group": "control_change"}, {"time": 19185, "annotation": {"number": 11, "value": 100}, "group": "control_change"}, {"time": 19202, "annotation": {"number": 11, "value": 102}, "group": "control_change"}, {"time": 19218, "annotation": {"number": 11, "value": 104}, "group": "control_change"}, {"time": 19234, "annotation": {"number": 11, "value": 105}, "group": "control_change"}, {"time": 19250, "annotation": {"number": 11, "value": 107}, "group": "control_change"}, {"time": 19266, "annotation": {"number": 11, "value": 109}, "group": "control_change"}, {"time": 19282, "annotation": {"number": 11, "value": 111}, "group": "control_change"}, {"time": 19298, "annotation": {"number": 11, "value": 112}, "group": "control_change"}, {"time": 19315, "annotation": {"number": 11, "value": 114}, "group": "control_change"}, {"time": 19331, "annotation": {"number": 11, "value": 116}, "group": "control_change"}, {"time": 19347, "annotation": {"number": 11, "value": 118}, "group": "control_change"}, {"time": 19363, "annotation": {"number": 11, "value": 119}, "group": "control_change"}, {"time": 19379, "annotation": {"number": 11, "value": 121}, "group": "control_change"}, {"time": 19395, "annotation": {"number": 11, "value": 123}, "group": "control_change"}, {"time": 19411, "annotation": {"number": 11, "value": 125}, "group": "control_change"}, {"time": 19427, "annotation": {"number": 11, "value": 127}, "group": "control_change"}, {"time": 54186, "annotation": {"number": 11, "value": 124}, "group": "control_change"}, {"time": 54202, "annotation": {"number": 11, "value": 115}, "group": "control_change"}, {"time": 54218, "annotation": {"number": 11, "value": 107}, "group": "control_change"}, {"time": 54235, "annotation": {"number": 11, "value": 98}, "group": "control_change"}, {"time": 54251, "annotation": {"number": 11, "value": 89}, "group": "control_change"}, {"time": 54268, "annotation": {"number": 11, "value": 80}, "group": "control_change"}, {"time": 54284, "annotation": {"number": 11, "value": 72}, "group": "control_change"}, {"time": 54558, "annotation": {"number": 11, "value": 78}, "group": "control_change"}, {"time": 54574, "annotation": {"number": 11, "value": 81}, "group": "control_change"}, {"time": 54591, "annotation": {"number": 11, "value": 84}, "group": "control_change"}, {"time": 54607, "annotation": {"number": 11, "value": 88}, "group": "control_change"}, {"time": 54624, "annotation": {"number": 11, "value": 91}, "group": "control_change"}, {"time": 54640, "annotation": {"number": 11, "value": 94}, "group": "control_change"}, {"time": 54656, "annotation": {"number": 11, "value": 97}, "group": "control_change"}, {"time": 54673, "annotation": {"number": 11, "value": 101}, "group": "control_change"}, {"time": 54689, "annotation": {"number": 11, "value": 104}, "group": "control_change"}, {"time": 54705, "annotation": {"number": 11, "value": 107}, "group": "control_change"}, {"time": 54722, "annotation": {"number": 11, "value": 110}, "group": "control_change"}, {"time": 54738, "annotation": {"number": 11, "value": 113}, "group": "control_change"}, {"time": 54754, "annotation": {"number": 11, "value": 117}, "group": "control_change"}, {"time": 54771, "annotation": {"number": 11, "value": 120}, "group": "control_change"}, {"time": 54787, "annotation": {"number": 11, "value": 123}, "group": "control_change"}, {"time": 54803, "annotation": {"number": 11, "value": 127}, "group": "control_change"}, {"time": 69546, "annotation": {"number": 11, "value": 124}, "group": "control_change"}, {"time": 69562, "annotation": {"number": 11, "value": 115}, "group": "control_change"}, {"time": 69578, "annotation": {"number": 11, "value": 107}, "group": "control_change"}, {"time": 69595, "annotation": {"number": 11, "value": 98}, "group": "control_change"}, {"time": 69611, "annotation": {"number": 11, "value": 89}, "group": "control_change"}, {"time": 69628, "annotation": {"number": 11, "value": 80}, "group": "control_change"}, {"time": 69644, "annotation": {"number": 11, "value": 72}, "group": "control_change"}, {"time": 69918, "annotation": {"number": 11, "value": 78}, "group": "control_change"}, {"time": 69934, "annotation": {"number": 11, "value": 81}, "group": "control_change"}, {"time": 69951, "annotation": {"number": 11, "value": 84}, "group": "control_change"}, {"time": 69967, "annotation": {"number": 11, "value": 88}, "group": "control_change"}, {"time": 69984, "annotation": {"number": 11, "value": 91}, "group": "control_change"}, {"time": 70000, "annotation": {"number": 11, "value": 94}, "group": "control_change"}, {"time": 70016, "annotation": {"number": 11, "value": 97}, "group": "control_change"}, {"time": 70033, "annotation": {"number": 11, "value": 101}, "group": "control_change"}, {"time": 70049, "annotation": {"number": 11, "value": 104}, "group": "control_change"}, {"time": 70065, "annotation": {"number": 11, "value": 107}, "group": "control_change"}, {"time": 70082, "annotation": {"number": 11, "value": 110}, "group": "control_change"}, {"time": 70098, "annotation": {"number": 11, "value": 113}, "group": "control_change"}, {"time": 70114, "annotation": {"number": 11, "value": 117}, "group": "control_change"}, {"time": 70131, "annotation": {"number": 11, "value": 120}, "group": "control_change"}, {"time": 70147, "annotation": {"number": 11, "value": 123}, "group": "control_change"}, {"time": 70163, "annotation": {"number": 11, "value": 127}, "group": "control_change"}, {"time": 85092, "annotation": {"number": 11, "value": 122}, "group": "control_change"}, {"time": 85108, "annotation": {"number": 11, "value": 118}, "group": "control_change"}, {"time": 85125, "annotation": {"number": 11, "value": 114}, "group": "control_change"}, {"time": 85141, "annotation": {"number": 11, "value": 110}, "group": "control_change"}, {"time": 85158, "annotation": {"number": 11, "value": 106}, "group": "control_change"}, {"time": 85175, "annotation": {"number": 11, "value": 102}, "group": "control_change"}, {"time": 85191, "annotation": {"number": 11, "value": 98}, "group": "control_change"}, {"time": 85208, "annotation": {"number": 11, "value": 94}, "group": "control_change"}, {"time": 85224, "annotation": {"number": 11, "value": 91}, "group": "control_change"}, {"time": 85241, "annotation": {"number": 11, "value": 87}, "group": "control_change"}, {"time": 85258, "annotation": {"number": 11, "value": 83}, "group": "control_change"}, {"time": 85274, "annotation": {"number": 11, "value": 79}, "group": "control_change"}, {"time": 85291, "annotation": {"number": 11, "value": 75}, "group": "control_change"}, {"time": 85307, "annotation": {"number": 11, "value": 71}, "group": "control_change"}, {"time": 85324, "annotation": {"number": 11, "value": 67}, "group": "control_change"}, {"time": 85340, "annotation": {"number": 11, "value": 64}, "group": "control_change"}, {"time": 85857, "annotation": {"number": 11, "value": 66}, "group": "control_change"}, {"time": 85872, "annotation": {"number": 11, "value": 67}, "group": "control_change"}, {"time": 85888, "annotation": {"number": 11, "value": 69}, "group": "control_change"}, {"time": 85904, "annotation": {"number": 11, "value": 71}, "group": "control_change"}, {"time": 85920, "annotation": {"number": 11, "value": 73}, "group": "control_change"}, {"time": 85936, "annotation": {"number": 11, "value": 74}, "group": "control_change"}, {"time": 85952, "annotation": {"number": 11, "value": 76}, "group": "control_change"}, {"time": 85968, "annotation": {"number": 11, "value": 78}, "group": "control_change"}, {"time": 85984, "annotation": {"number": 11, "value": 80}, "group": "control_change"}, {"time": 86000, "annotation": {"number": 11, "value": 82}, "group": "control_change"}, {"time": 86015, "annotation": {"number": 11, "value": 83}, "group": "control_change"}, {"time": 86031, "annotation": {"number": 11, "value": 85}, "group": "control_change"}, {"time": 86047, "annotation": {"number": 11, "value": 87}, "group": "control_change"}, {"time": 86063, "annotation": {"number": 11, "value": 89}, "group": "control_change"}, {"time": 86079, "annotation": {"number": 11, "value": 91}, "group": "control_change"}, {"time": 86095, "annotation": {"number": 11, "value": 92}, "group": "control_change"}, {"time": 86111, "annotation": {"number": 11, "value": 94}, "group": "control_change"}, {"time": 86127, "annotation": {"number": 11, "value": 96}, "group": "control_change"}, {"time": 86142, "annotation": {"number": 11, "value": 98}, "group": "control_change"}, {"time": 86158, "annotation": {"number": 11, "value": 99}, "group": "control_change"}, {"time": 86174, "annotation": {"number": 11, "value": 101}, "group": "control_change"}, {"time": 86190, "annotation": {"number": 11, "value": 103}, "group": "control_change"}, {"time": 86206, "annotation": {"number": 11, "value": 105}, "group": "control_change"}, {"time": 86222, "annotation": {"number": 11, "value": 107}, "group": "control_change"}, {"time": 86238, "annotation": {"number": 11, "value": 108}, "group": "control_change"}, {"time": 86254, "annotation": {"number": 11, "value": 110}, "group": "control_change"}, {"time": 86269, "annotation": {"number": 11, "value": 112}, "group": "control_change"}, {"time": 86285, "annotation": {"number": 11, "value": 114}, "group": "control_change"}, {"time": 86301, "annotation": {"number": 11, "value": 116}, "group": "control_change"}, {"time": 86317, "annotation": {"number": 11, "value": 117}, "group": "control_change"}, {"time": 86333, "annotation": {"number": 11, "value": 119}, "group": "control_change"}, {"time": 86349, "annotation": {"number": 11, "value": 121}, "group": "control_change"}, {"time": 86365, "annotation": {"number": 11, "value": 123}, "group": "control_change"}, {"time": 86381, "annotation": {"number": 11, "value": 125}, "group": "control_change"}, {"time": 86396, "annotation": {"number": 11, "value": 127}, "group": "control_change"}, {"time": 123306, "annotation": {"number": 11, "value": 124}, "group": "control_change"}, {"time": 123322, "annotation": {"number": 11, "value": 115}, "group": "control_change"}, {"time": 123338, "annotation": {"number": 11, "value": 107}, "group": "control_change"}, {"time": 123355, "annotation": {"number": 11, "value": 98}, "group": "control_change"}, {"time": 123371, "annotation": {"number": 11, "value": 89}, "group": "control_change"}, {"time": 123388, "annotation": {"number": 11, "value": 80}, "group": "control_change"}, {"time": 123404, "annotation": {"number": 11, "value": 72}, "group": "control_change"}, {"time": 123678, "annotation": {"number": 11, "value": 78}, "group": "control_change"}, {"time": 123694, "annotation": {"number": 11, "value": 81}, "group": "control_change"}, {"time": 123711, "annotation": {"number": 11, "value": 84}, "group": "control_change"}, {"time": 123727, "annotation": {"number": 11, "value": 88}, "group": "control_change"}, {"time": 123744, "annotation": {"number": 11, "value": 91}, "group": "control_change"}, {"time": 123760, "annotation": {"number": 11, "value": 94}, "group": "control_change"}, {"time": 123776, "annotation": {"number": 11, "value": 97}, "group": "control_change"}, {"time": 123793, "annotation": {"number": 11, "value": 101}, "group": "control_change"}, {"time": 123809, "annotation": {"number": 11, "value": 104}, "group": "control_change"}, {"time": 123825, "annotation": {"number": 11, "value": 107}, "group": "control_change"}, {"time": 123842, "annotation": {"number": 11, "value": 110}, "group": "control_change"}, {"time": 123858, "annotation": {"number": 11, "value": 113}, "group": "control_change"}, {"time": 123874, "annotation": {"number": 11, "value": 117}, "group": "control_change"}, {"time": 123891, "annotation": {"number": 11, "value": 120}, "group": "control_change"}, {"time": 123907, "annotation": {"number": 11, "value": 123}, "group": "control_change"}, {"time": 123923, "annotation": {"number": 11, "value": 127}, "group": "control_change"}, {"time": 138666, "annotation": {"number": 11, "value": 124}, "group": "control_change"}, {"time": 138682, "annotation": {"number": 11, "value": 115}, "group": "control_change"}, {"time": 138698, "annotation": {"number": 11, "value": 107}, "group": "control_change"}, {"time": 138715, "annotation": {"number": 11, "value": 98}, "group": "control_change"}, {"time": 138731, "annotation": {"number": 11, "value": 89}, "group": "control_change"}, {"time": 138748, "annotation": {"number": 11, "value": 80}, "group": "control_change"}, {"time": 138764, "annotation": {"number": 11, "value": 72}, "group": "control_change"}, {"time": 139038, "annotation": {"number": 11, "value": 78}, "group": "control_change"}, {"time": 139054, "annotation": {"number": 11, "value": 81}, "group": "control_change"}, {"time": 139071, "annotation": {"number": 11, "value": 84}, "group": "control_change"}, {"time": 139087, "annotation": {"number": 11, "value": 88}, "group": "control_change"}, {"time": 139104, "annotation": {"number": 11, "value": 91}, "group": "control_change"}, {"time": 139120, "annotation": {"number": 11, "value": 94}, "group": "control_change"}, {"time": 139136, "annotation": {"number": 11, "value": 97}, "group": "control_change"}, {"time": 139153, "annotation": {"number": 11, "value": 101}, "group": "control_change"}, {"time": 139169, "annotation": {"number": 11, "value": 104}, "group": "control_change"}, {"time": 139185, "annotation": {"number": 11, "value": 107}, "group": "control_change"}, {"time": 139202, "annotation": {"number": 11, "value": 110}, "group": "control_change"}, {"time": 139218, "annotation": {"number": 11, "value": 113}, "group": "control_change"}, {"time": 139234, "annotation": {"number": 11, "value": 117}, "group": "control_change"}, {"time": 139251, "annotation": {"number": 11, "value": 120}, "group": "control_change"}, {"time": 139267, "annotation": {"number": 11, "value": 123}, "group": "control_change"}, {"time": 139283, "annotation": {"number": 11, "value": 127}, "group": "control_change"}, {"time": 171956, "annotation": {"number": 11, "value": 120}, "group": "control_change"}, {"time": 171972, "annotation": {"number": 11, "value": 117}, "group": "control_change"}, {"time": 171989, "annotation": {"number": 11, "value": 114}, "group": "control_change"}, {"time": 172005, "annotation": {"number": 11, "value": 111}, "group": "control_change"}, {"time": 172022, "annotation": {"number": 11, "value": 108}, "group": "control_change"}, {"time": 172038, "annotation": {"number": 11, "value": 105}, "group": "control_change"}, {"time": 172055, "annotation": {"number": 11, "value": 102}, "group": "control_change"}, {"time": 172071, "annotation": {"number": 11, "value": 99}, "group": "control_change"}, {"time": 172088, "annotation": {"number": 11, "value": 96}, "group": "control_change"}, {"time": 172104, "annotation": {"number": 11, "value": 93}, "group": "control_change"}, {"time": 172121, "annotation": {"number": 11, "value": 90}, "group": "control_change"}, {"time": 172137, "annotation": {"number": 11, "value": 87}, "group": "control_change"}, {"time": 172154, "annotation": {"number": 11, "value": 84}, "group": "control_change"}, {"time": 172170, "annotation": {"number": 11, "value": 81}, "group": "control_change"}, {"time": 172187, "annotation": {"number": 11, "value": 78}, "group": "control_change"}, {"time": 172203, "annotation": {"number": 11, "value": 75}, "group": "control_change"}, {"time": 172219, "annotation": {"number": 11, "value": 72}, "group": "control_change"}, {"time": 172560, "annotation": {"number": 11, "value": 76}, "group": "control_change"}, {"time": 172576, "annotation": {"number": 11, "value": 77}, "group": "control_change"}, {"time": 172592, "annotation": {"number": 11, "value": 79}, "group": "control_change"}, {"time": 172608, "annotation": {"number": 11, "value": 81}, "group": "control_change"}, {"time": 172624, "annotation": {"number": 11, "value": 82}, "group": "control_change"}, {"time": 172640, "annotation": {"number": 11, "value": 84}, "group": "control_change"}, {"time": 172656, "annotation": {"number": 11, "value": 86}, "group": "control_change"}, {"time": 172672, "annotation": {"number": 11, "value": 88}, "group": "control_change"}, {"time": 172689, "annotation": {"number": 11, "value": 90}, "group": "control_change"}, {"time": 172705, "annotation": {"number": 11, "value": 91}, "group": "control_change"}, {"time": 172721, "annotation": {"number": 11, "value": 93}, "group": "control_change"}, {"time": 172737, "annotation": {"number": 11, "value": 95}, "group": "control_change"}, {"time": 172753, "annotation": {"number": 11, "value": 97}, "group": "control_change"}, {"time": 172769, "annotation": {"number": 11, "value": 98}, "group": "control_change"}, {"time": 172785, "annotation": {"number": 11, "value": 100}, "group": "control_change"}, {"time": 172802, "annotation": {"number": 11, "value": 102}, "group": "control_change"}, {"time": 172818, "annotation": {"number": 11, "value": 104}, "group": "control_change"}, {"time": 172834, "annotation": {"number": 11, "value": 105}, "group": "control_change"}, {"time": 172850, "annotation": {"number": 11, "value": 107}, "group": "control_change"}, {"time": 172866, "annotation": {"number": 11, "value": 109}, "group": "control_change"}, {"time": 172882, "annotation": {"number": 11, "value": 111}, "group": "control_change"}, {"time": 172898, "annotation": {"number": 11, "value": 112}, "group": "control_change"}, {"time": 172915, "annotation": {"number": 11, "value": 114}, "group": "control_change"}, {"time": 172931, "annotation": {"number": 11, "value": 116}, "group": "control_change"}, {"time": 172947, "annotation": {"number": 11, "value": 118}, "group": "control_change"}, {"time": 172963, "annotation": {"number": 11, "value": 119}, "group": "control_change"}, {"time": 172979, "annotation": {"number": 11, "value": 121}, "group": "control_change"}, {"time": 172995, "annotation": {"number": 11, "value": 123}, "group": "control_change"}, {"time": 173011, "annotation": {"number": 11, "value": 125}, "group": "control_change"}, {"time": 173027, "annotation": {"number": 11, "value": 127}, "group": "control_change"}, {"time": 207786, "annotation": {"number": 11, "value": 124}, "group": "control_change"}, {"time": 207802, "annotation": {"number": 11, "value": 115}, "group": "control_change"}, {"time": 207818, "annotation": {"number": 11, "value": 107}, "group": "control_change"}, {"time": 207835, "annotation": {"number": 11, "value": 98}, "group": "control_change"}, {"time": 207851, "annotation": {"number": 11, "value": 89}, "group": "control_change"}, {"time": 207868, "annotation": {"number": 11, "value": 80}, "group": "control_change"}, {"time": 207884, "annotation": {"number": 11, "value": 72}, "group": "control_change"}, {"time": 208158, "annotation": {"number": 11, "value": 78}, "group": "control_change"}, {"time": 208174, "annotation": {"number": 11, "value": 81}, "group": "control_change"}, {"time": 208191, "annotation": {"number": 11, "value": 84}, "group": "control_change"}, {"time": 208207, "annotation": {"number": 11, "value": 88}, "group": "control_change"}, {"time": 208224, "annotation": {"number": 11, "value": 91}, "group": "control_change"}, {"time": 208240, "annotation": {"number": 11, "value": 94}, "group": "control_change"}, {"time": 208256, "annotation": {"number": 11, "value": 97}, "group": "control_change"}, {"time": 208273, "annotation": {"number": 11, "value": 101}, "group": "control_change"}, {"time": 208289, "annotation": {"number": 11, "value": 104}, "group": "control_change"}, {"time": 208305, "annotation": {"number": 11, "value": 107}, "group": "control_change"}, {"time": 208322, "annotation": {"number": 11, "value": 110}, "group": "control_change"}, {"time": 208338, "annotation": {"number": 11, "value": 113}, "group": "control_change"}, {"time": 208354, "annotation": {"number": 11, "value": 117}, "group": "control_change"}, {"time": 208371, "annotation": {"number": 11, "value": 120}, "group": "control_change"}, {"time": 208387, "annotation": {"number": 11, "value": 123}, "group": "control_change"}, {"time": 208403, "annotation": {"number": 11, "value": 127}, "group": "control_change"}, {"time": 223146, "annotation": {"number": 11, "value": 124}, "group": "control_change"}, {"time": 223162, "annotation": {"number": 11, "value": 115}, "group": "control_change"}, {"time": 223178, "annotation": {"number": 11, "value": 107}, "group": "control_change"}, {"time": 223195, "annotation": {"number": 11, "value": 98}, "group": "control_change"}, {"time": 223211, "annotation": {"number": 11, "value": 89}, "group": "control_change"}, {"time": 223228, "annotation": {"number": 11, "value": 80}, "group": "control_change"}, {"time": 223244, "annotation": {"number": 11, "value": 72}, "group": "control_change"}, {"time": 223518, "annotation": {"number": 11, "value": 78}, "group": "control_change"}, {"time": 223534, "annotation": {"number": 11, "value": 81}, "group": "control_change"}, {"time": 223551, "annotation": {"number": 11, "value": 84}, "group": "control_change"}, {"time": 223567, "annotation": {"number": 11, "value": 88}, "group": "control_change"}, {"time": 223584, "annotation": {"number": 11, "value": 91}, "group": "control_change"}, {"time": 223600, "annotation": {"number": 11, "value": 94}, "group": "control_change"}, {"time": 223616, "annotation": {"number": 11, "value": 97}, "group": "control_change"}, {"time": 223633, "annotation": {"number": 11, "value": 101}, "group": "control_change"}, {"time": 223649, "annotation": {"number": 11, "value": 104}, "group": "control_change"}, {"time": 223665, "annotation": {"number": 11, "value": 107}, "group": "control_change"}, {"time": 223682, "annotation": {"number": 11, "value": 110}, "group": "control_change"}, {"time": 223698, "annotation": {"number": 11, "value": 113}, "group": "control_change"}, {"time": 223714, "annotation": {"number": 11, "value": 117}, "group": "control_change"}, {"time": 223731, "annotation": {"number": 11, "value": 120}, "group": "control_change"}, {"time": 223747, "annotation": {"number": 11, "value": 123}, "group": "control_change"}, {"time": 223763, "annotation": {"number": 11, "value": 127}, "group": "control_change"}]}, {"program": 0, "is_drum": false, "name": "HIT / SE", "annotations": [{"time": 288, "annotation": {"number": 0, "value": 0}, "group": "control_change"}, {"time": 304, "annotation": {"number": 32, "value": 2}, "group": "control_change"}]}, {"program": 55, "is_drum": false, "name": "HIT / SE", "notes": [{"time": 81120, "pitch": 60, "duration": 190, "velocity": 127}, {"time": 81120, "pitch": 72, "duration": 190, "velocity": 127}, {"time": 81360, "pitch": 60, "duration": 110, "velocity": 127}, {"time": 81360, "pitch": 72, "duration": 110, "velocity": 127}, {"time": 83040, "pitch": 60, "duration": 180, "velocity": 127}, {"time": 83040, "pitch": 72, "duration": 180, "velocity": 127}, {"time": 83280, "pitch": 60, "duration": 90, "velocity": 125}, {"time": 83280, "pitch": 72, "duration": 90, "velocity": 125}, {"time": 234720, "pitch": 60, "duration": 190, "velocity": 127}, {"time": 234720, "pitch": 72, "duration": 190, "velocity": 127}, {"time": 234960, "pitch": 60, "duration": 110, "velocity": 127}, {"time": 234960, "pitch": 72, "duration": 110, "velocity": 127}, {"time": 236640, "pitch": 60, "duration": 180, "velocity": 127}, {"time": 236640, "pitch": 72, "duration": 180, "velocity": 127}, {"time": 236880, "pitch": 60, "duration": 90, "velocity": 125}, {"time": 236880, "pitch": 72, "duration": 90, "velocity": 125}, {"time": 238560, "pitch": 60, "duration": 180, "velocity": 127}, {"time": 238560, "pitch": 72, "duration": 180, "velocity": 127}, {"time": 238800, "pitch": 60, "duration": 90, "velocity": 125}, {"time": 238800, "pitch": 72, "duration": 90, "velocity": 125}, {"time": 239280, "pitch": 63, "duration": 80, "velocity": 110}, {"time": 239760, "pitch": 62, "duration": 80, "velocity": 110}, {"time": 240240, "pitch": 60, "duration": 80, "velocity": 110}, {"time": 240480, "pitch": 60, "duration": 180, "velocity": 127}, {"time": 240480, "pitch": 72, "duration": 180, "velocity": 127}, {"time": 240720, "pitch": 60, "duration": 90, "velocity": 125}, {"time": 240720, "pitch": 72, "duration": 90, "velocity": 125}, {"time": 241200, "pitch": 75, "duration": 140, "velocity": 110}, {"time": 241680, "pitch": 74, "duration": 140, "velocity": 110}, {"time": 242160, "pitch": 72, "duration": 140, "velocity": 110}, {"time": 242400, "pitch": 60, "duration": 180, "velocity": 127}, {"time": 242400, "pitch": 72, "duration": 180, "velocity": 127}, {"time": 242640, "pitch": 60, "duration": 90, "velocity": 125}, {"time": 242640, "pitch": 72, "duration": 90, "velocity": 125}], "annotations": [{"time": 336, "annotation": {"number": 7, "value": 82}, "group": "control_change"}, {"time": 352, "annotation": {"number": 11, "value": 127}, "group": "control_change"}, {"time": 368, "annotation": {"number": 10, "value": 64}, "group": "control_change"}, {"time": 384, "annotation": {"number": 91, "value": 45}, "group": "control_change"}, {"time": 400, "annotation": {"number": 93, "value": 17}, "group": "control_change"}, {"time": 416, "annotation": {"number": 101, "value": 0}, "group": "control_change"}, {"time": 432, "annotation": {"number": 100, "value": 0}, "group": "control_change"}, {"time": 448, "annotation": {"number": 6, "value": 12}, "group": "control_change"}, {"time": 464, "annotation": {"number": 101, "value": 127}, "group": "control_change"}, {"time": 480, "annotation": {"number": 100, "value": 127}, "group": "control_change"}, {"time": 84960, "annotation": {"number": 0, "value": 8}, "group": "control_change"}, {"time": 84970, "annotation": {"number": 32, "value": 2}, "group": "control_change"}, {"time": 234670, "annotation": {"number": 7, "value": 70}, "group": "control_change"}, {"time": 234680, "annotation": {"number": 11, "value": 127}, "group": "control_change"}, {"time": 234690, "annotation": {"number": 10, "value": 64}, "group": "control_change"}, {"time": 234700, "annotation": {"number": 91, "value": 45}, "group": "control_change"}, {"time": 234710, "annotation": {"number": 93, "value": 17}, "group": "control_change"}]}, {"program": 125, "is_drum": false, "name": "HIT / SE", "notes": [{"time": 86400, "pitch": 71, "duration": 2400, "velocity": 111}, {"time": 151680, "pitch": 71, "duration": 2400, "velocity": 111}, {"time": 153600, "pitch": 72, "duration": 2400, "velocity": 117}, {"time": 155520, "pitch": 73, "duration": 2400, "velocity": 117}, {"time": 201600, "pitch": 71, "duration": 2400, "velocity": 111}], "annotations": [{"time": 84990, "annotation": {"number": 7, "value": 80}, "group": "control_change"}, {"time": 85000, "annotation": {"number": 11, "value": 127}, "group": "control_change"}, {"time": 85010, "annotation": {"number": 10, "value": 66}, "group": "control_change"}, {"time": 85020, "annotation": {"number": 91, "value": 40}, "group": "control_change"}, {"time": 85030, "annotation": {"number": 93, "value": 20}, "group": "control_change"}, {"time": 150240, "annotation": {"number": 0, "value": 8}, "group": "control_change"}, {"time": 150250, "annotation": {"number": 32, "value": 2}, "group": "control_change"}, {"time": 150270, "annotation": {"number": 7, "value": 80}, "group": "control_change"}, {"time": 150280, "annotation": {"number": 11, "value": 127}, "group": "control_change"}, {"time": 150290, "annotation": {"number": 10, "value": 66}, "group": "control_change"}, {"time": 150300, "annotation": {"number": 91, "value": 40}, "group": "control_change"}, {"time": 150310, "annotation": {"number": 93, "value": 20}, "group": "control_change"}, {"time": 200160, "annotation": {"number": 0, "value": 8}, "group": "control_change"}, {"time": 200170, "annotation": {"number": 32, "value": 2}, "group": "control_change"}, {"time": 200190, "annotation": {"number": 7, "value": 80}, "group": "control_change"}, {"time": 200200, "annotation": {"number": 11, "value": 127}, "group": "control_change"}, {"time": 200210, "annotation": {"number": 10, "value": 66}, "group": "control_change"}, {"time": 200220, "annotation": {"number": 91, "value": 40}, "group": "control_change"}, {"time": 200230, "annotation": {"number": 93, "value": 20}, "group": "control_change"}, {"time": 234640, "annotation": {"number": 0, "value": 0}, "group": "control_change"}, {"time": 234650, "annotation": {"number": 32, "value": 2}, "group": "control_change"}]}, {"program": 0, "is_drum": false, "name": "SWEEP PAD / HARP", "annotations": [{"time": 288, "annotation": {"number": 0, "value": 8}, "group": "control_change"}, {"time": 304, "annotation": {"number": 32, "value": 2}, "group": "control_change"}]}, {"program": 95, "is_drum": false, "name": "SWEEP PAD / HARP", "notes": [{"time": 480, "pitch": 48, "duration": 3130, "velocity": 91}, {"time": 480, "pitch": 60, "duration": 3130, "velocity": 106}, {"time": 480, "pitch": 64, "duration": 3130, "velocity": 109}, {"time": 480, "pitch": 67, "duration": 3130, "velocity": 112}, {"time": 480, "pitch": 71, "duration": 3130, "velocity": 115}, {"time": 3600, "pitch": 49, "duration": 240, "velocity": 84}, {"time": 3600, "pitch": 61, "duration": 240, "velocity": 99}, {"time": 3600, "pitch": 65, "duration": 240, "velocity": 102}, {"time": 3600, "pitch": 68, "duration": 240, "velocity": 105}, {"time": 3600, "pitch": 72, "duration": 240, "velocity": 108}, {"time": 3840, "pitch": 50, "duration": 240, "velocity": 82}, {"time": 3840, "pitch": 62, "duration": 240, "velocity": 97}, {"time": 3840, "pitch": 66, "duration": 240, "velocity": 100}, {"time": 3840, "pitch": 69, "duration": 240, "velocity": 103}, {"time": 3840, "pitch": 73, "duration": 240, "velocity": 106}, {"time": 4080, "pitch": 51, "duration": 3330, "velocity": 88}, {"time": 4080, "pitch": 63, "duration": 3330, "velocity": 103}, {"time": 4080, "pitch": 67, "duration": 3330, "velocity": 106}, {"time": 4080, "pitch": 70, "duration": 3330, "velocity": 109}, {"time": 4080, "pitch": 74, "duration": 3330, "velocity": 112}, {"time": 7440, "pitch": 50, "duration": 230, "velocity": 82}, {"time": 7440, "pitch": 62, "duration": 230, "velocity": 97}, {"time": 7440, "pitch": 66, "duration": 230, "velocity": 100}, {"time": 7440, "pitch": 69, "duration": 230, "velocity": 103}, {"time": 7440, "pitch": 73, "duration": 230, "velocity": 106}, {"time": 7680, "pitch": 49, "duration": 220, "velocity": 89}, {"time": 7680, "pitch": 61, "duration": 220, "velocity": 104}, {"time": 7680, "pitch": 65, "duration": 220, "velocity": 107}, {"time": 7680, "pitch": 68, "duration": 220, "velocity": 110}, {"time": 7680, "pitch": 72, "duration": 220, "velocity": 113}, {"time": 7920, "pitch": 48, "duration": 3320, "velocity": 85}, {"time": 7920, "pitch": 60, "duration": 3320, "velocity": 100}, {"time": 7920, "pitch": 64, "duration": 3320, "velocity": 103}, {"time": 7920, "pitch": 67, "duration": 3320, "velocity": 106}, {"time": 7920, "pitch": 71, "duration": 3320, "velocity": 109}, {"time": 11280, "pitch": 49, "duration": 177, "velocity": 82}, {"time": 11280, "pitch": 61, "duration": 240, "velocity": 97}, {"time": 11280, "pitch": 65, "duration": 240, "velocity": 100}, {"time": 11280, "pitch": 68, "duration": 240, "velocity": 103}, {"time": 11280, "pitch": 72, "duration": 240, "velocity": 106}, {"time": 11520, "pitch": 50, "duration": 240, "velocity": 91}, {"time": 11520, "pitch": 62, "duration": 240, "velocity": 106}, {"time": 11520, "pitch": 66, "duration": 240, "velocity": 109}, {"time": 11520, "pitch": 69, "duration": 240, "velocity": 112}, {"time": 11520, "pitch": 73, "duration": 240, "velocity": 115}, {"time": 11760, "pitch": 51, "duration": 3350, "velocity": 97}, {"time": 11760, "pitch": 63, "duration": 3350, "velocity": 112}, {"time": 11760, "pitch": 67, "duration": 3350, "velocity": 115}, {"time": 11760, "pitch": 70, "duration": 3350, "velocity": 118}, {"time": 11760, "pitch": 74, "duration": 3350, "velocity": 121}, {"time": 15120, "pitch": 50, "duration": 230, "velocity": 71}, {"time": 15120, "pitch": 62, "duration": 230, "velocity": 86}, {"time": 15120, "pitch": 66, "duration": 230, "velocity": 89}, {"time": 15120, "pitch": 69, "duration": 230, "velocity": 92}, {"time": 15120, "pitch": 73, "duration": 230, "velocity": 95}, {"time": 15360, "pitch": 49, "duration": 230, "velocity": 86}, {"time": 15360, "pitch": 61, "duration": 230, "velocity": 101}, {"time": 15360, "pitch": 65, "duration": 230, "velocity": 104}, {"time": 15360, "pitch": 68, "duration": 230, "velocity": 107}, {"time": 15360, "pitch": 72, "duration": 230, "velocity": 110}, {"time": 15600, "pitch": 48, "duration": 180, "velocity": 82}, {"time": 15600, "pitch": 60, "duration": 180, "velocity": 97}, {"time": 15600, "pitch": 64, "duration": 180, "velocity": 100}, {"time": 15600, "pitch": 67, "duration": 180, "velocity": 103}, {"time": 15600, "pitch": 71, "duration": 180, "velocity": 106}, {"time": 150240, "pitch": 44, "duration": 6930, "velocity": 91}, {"time": 150240, "pitch": 56, "duration": 6930, "velocity": 106}, {"time": 150240, "pitch": 60, "duration": 6930, "velocity": 109}, {"time": 150240, "pitch": 63, "duration": 6930, "velocity": 112}, {"time": 150240, "pitch": 67, "duration": 6930, "velocity": 115}, {"time": 157200, "pitch": 45, "duration": 240, "velocity": 84}, {"time": 157200, "pitch": 57, "duration": 240, "velocity": 99}, {"time": 157200, "pitch": 61, "duration": 240, "velocity": 102}, {"time": 157200, "pitch": 64, "duration": 240, "velocity": 105}, {"time": 157200, "pitch": 68, "duration": 240, "velocity": 108}, {"time": 157440, "pitch": 46, "duration": 240, "velocity": 82}, {"time": 157440, "pitch": 58, "duration": 240, "velocity": 97}, {"time": 157440, "pitch": 62, "duration": 240, "velocity": 100}, {"time": 157440, "pitch": 65, "duration": 240, "velocity": 103}, {"time": 157440, "pitch": 69, "duration": 240, "velocity": 106}, {"time": 157680, "pitch": 47, "duration": 3330, "velocity": 88}, {"time": 157680, "pitch": 59, "duration": 3330, "velocity": 103}, {"time": 157680, "pitch": 63, "duration": 3330, "velocity": 106}, {"time": 157680, "pitch": 66, "duration": 3330, "velocity": 109}, {"time": 157680, "pitch": 70, "duration": 3330, "velocity": 112}, {"time": 161040, "pitch": 46, "duration": 230, "velocity": 82}, {"time": 161040, "pitch": 58, "duration": 230, "velocity": 97}, {"time": 161040, "pitch": 62, "duration": 230, "velocity": 100}, {"time": 161040, "pitch": 65, "duration": 230, "velocity": 103}, {"time": 161040, "pitch": 69, "duration": 230, "velocity": 106}, {"time": 161280, "pitch": 45, "duration": 220, "velocity": 89}, {"time": 161280, "pitch": 57, "duration": 220, "velocity": 104}, {"time": 161280, "pitch": 61, "duration": 220, "velocity": 107}, {"time": 161280, "pitch": 64, "duration": 220, "velocity": 110}, {"time": 161280, "pitch": 68, "duration": 220, "velocity": 113}, {"time": 161520, "pitch": 44, "duration": 3320, "velocity": 85}, {"time": 161520, "pitch": 56, "duration": 3320, "velocity": 100}, {"time": 161520, "pitch": 60, "duration": 3320, "velocity": 103}, {"time": 161520, "pitch": 63, "duration": 3320, "velocity": 106}, {"time": 161520, "pitch": 67, "duration": 3320, "velocity": 109}, {"time": 164880, "pitch": 45, "duration": 177, "velocity": 82}, {"time": 164880, "pitch": 57, "duration": 240, "velocity": 97}, {"time": 164880, "pitch": 61, "duration": 240, "velocity": 100}, {"time": 164880, "pitch": 64, "duration": 240, "velocity": 103}, {"time": 164880, "pitch": 68, "duration": 240, "velocity": 106}, {"time": 165120, "pitch": 46, "duration": 240, "velocity": 91}, {"time": 165120, "pitch": 58, "duration": 240, "velocity": 106}, {"time": 165120, "pitch": 62, "duration": 240, "velocity": 109}, {"time": 165120, "pitch": 65, "duration": 240, "velocity": 112}, {"time": 165120, "pitch": 69, "duration": 240, "velocity": 115}, {"time": 165360, "pitch": 47, "duration": 3350, "velocity": 97}, {"time": 165360, "pitch": 59, "duration": 3350, "velocity": 112}, {"time": 165360, "pitch": 63, "duration": 3350, "velocity": 115}, {"time": 165360, "pitch": 66, "duration": 3350, "velocity": 118}, {"time": 165360, "pitch": 70, "duration": 3350, "velocity": 121}, {"time": 168720, "pitch": 46, "duration": 230, "velocity": 71}, {"time": 168720, "pitch": 58, "duration": 230, "velocity": 86}, {"time": 168720, "pitch": 62, "duration": 230, "velocity": 89}, {"time": 168720, "pitch": 65, "duration": 230, "velocity": 92}, {"time": 168720, "pitch": 69, "duration": 230, "velocity": 95}, {"time": 168960, "pitch": 45, "duration": 230, "velocity": 86}, {"time": 168960, "pitch": 57, "duration": 230, "velocity": 101}, {"time": 168960, "pitch": 61, "duration": 230, "velocity": 104}, {"time": 168960, "pitch": 64, "duration": 230, "velocity": 107}, {"time": 168960, "pitch": 68, "duration": 230, "velocity": 110}, {"time": 169200, "pitch": 44, "duration": 180, "velocity": 82}, {"time": 169200, "pitch": 56, "duration": 180, "velocity": 97}, {"time": 169200, "pitch": 60, "duration": 180, "velocity": 100}, {"time": 169200, "pitch": 63, "duration": 180, "velocity": 103}, {"time": 169200, "pitch": 67, "duration": 180, "velocity": 106}], "annotations": [{"time": 336, "annotation": {"number": 7, "value": 60}, "group": "control_change"}, {"time": 352, "annotation": {"number": 11, "value": 127}, "group": "control_change"}, {"time": 368, "annotation": {"number": 10, "value": 66}, "group": "control_change"}, {"time": 384, "annotation": {"number": 91, "value": 68}, "group": "control_change"}, {"time": 400, "annotation": {"number": 93, "value": 20}, "group": "control_change"}, {"time": 416, "annotation": {"number": 101, "value": 0}, "group": "control_change"}, {"time": 432, "annotation": {"number": 100, "value": 0}, "group": "control_change"}, {"time": 448, "annotation": {"number": 6, "value": 12}, "group": "control_change"}, {"time": 464, "annotation": {"number": 101, "value": 127}, "group": "control_change"}, {"time": 480, "annotation": {"number": 100, "value": 127}, "group": "control_change"}, {"time": 84960, "annotation": {"number": 0, "value": 0}, "group": "control_change"}, {"time": 84970, "annotation": {"number": 32, "value": 2}, "group": "control_change"}, {"time": 150190, "annotation": {"number": 7, "value": 60}, "group": "control_change"}, {"time": 150200, "annotation": {"number": 11, "value": 127}, "group": "control_change"}, {"time": 150210, "annotation": {"number": 10, "value": 66}, "group": "control_change"}, {"time": 150220, "annotation": {"number": 91, "value": 68}, "group": "control_change"}, {"time": 150230, "annotation": {"number": 93, "value": 20}, "group": "control_change"}, {"time": 202000, "annotation": {"number": 0, "value": 0}, "group": "control_change"}, {"time": 202010, "annotation": {"number": 32, "value": 2}, "group": "control_change"}]}, {"program": 46, "is_drum": false, "name": "SWEEP PAD / HARP", "notes": [{"time": 85920, "pitch": 96, "duration": 40, "velocity": 118}, {"time": 85960, "pitch": 95, "duration": 40, "velocity": 113}, {"time": 86000, "pitch": 93, "duration": 40, "velocity": 109}, {"time": 86040, "pitch": 91, "duration": 40, "velocity": 104}, {"time": 86080, "pitch": 89, "duration": 40, "velocity": 99}, {"time": 86120, "pitch": 88, "duration": 40, "velocity": 94}, {"time": 86160, "pitch": 86, "duration": 40, "velocity": 89}, {"time": 86200, "pitch": 84, "duration": 40, "velocity": 85}, {"time": 86240, "pitch": 83, "duration": 40, "velocity": 80}, {"time": 86280, "pitch": 81, "duration": 40, "velocity": 75}, {"time": 86320, "pitch": 79, "duration": 40, "velocity": 70}, {"time": 86360, "pitch": 77, "duration": 40, "velocity": 65}, {"time": 86400, "pitch": 76, "duration": 40, "velocity": 61}, {"time": 86440, "pitch": 77, "duration": 40, "velocity": 69}, {"time": 86480, "pitch": 79, "duration": 40, "velocity": 78}, {"time": 86520, "pitch": 81, "duration": 40, "velocity": 87}, {"time": 86560, "pitch": 83, "duration": 40, "velocity": 96}, {"time": 86600, "pitch": 84, "duration": 40, "velocity": 105}, {"time": 86640, "pitch": 86, "duration": 40, "velocity": 114}, {"time": 86680, "pitch": 88, "duration": 40, "velocity": 111}, {"time": 86720, "pitch": 86, "duration": 40, "velocity": 107}, {"time": 86760, "pitch": 84, "duration": 40, "velocity": 104}, {"time": 86800, "pitch": 83, "duration": 40, "velocity": 100}, {"time": 86840, "pitch": 81, "duration": 40, "velocity": 97}, {"time": 86880, "pitch": 79, "duration": 40, "velocity": 93}, {"time": 86920, "pitch": 77, "duration": 40, "velocity": 90}, {"time": 86960, "pitch": 76, "duration": 40, "velocity": 86}, {"time": 87000, "pitch": 74, "duration": 40, "velocity": 83}, {"time": 87040, "pitch": 72, "duration": 40, "velocity": 79}, {"time": 87080, "pitch": 71, "duration": 40, "velocity": 76}, {"time": 87120, "pitch": 72, "duration": 40, "velocity": 72}, {"time": 87160, "pitch": 74, "duration": 40, "velocity": 79}, {"time": 87200, "pitch": 76, "duration": 40, "velocity": 87}, {"time": 87240, "pitch": 77, "duration": 40, "velocity": 94}, {"time": 87280, "pitch": 79, "duration": 40, "velocity": 102}, {"time": 87320, "pitch": 81, "duration": 40, "velocity": 109}, {"time": 87360, "pitch": 83, "duration": 40, "velocity": 108}, {"time": 87400, "pitch": 84, "duration": 40, "velocity": 112}, {"time": 87440, "pitch": 83, "duration": 40, "velocity": 98}, {"time": 87480, "pitch": 81, "duration": 40, "velocity": 97}, {"time": 87520, "pitch": 79, "duration": 40, "velocity": 109}, {"time": 87560, "pitch": 77, "duration": 40, "velocity": 106}, {"time": 87600, "pitch": 76, "duration": 40, "velocity": 104}, {"time": 87640, "pitch": 74, "duration": 40, "velocity": 101}, {"time": 87680, "pitch": 72, "duration": 40, "velocity": 98}, {"time": 87720, "pitch": 71, "duration": 40, "velocity": 95}, {"time": 87760, "pitch": 69, "duration": 40, "velocity": 92}, {"time": 87800, "pitch": 67, "duration": 40, "velocity": 83}, {"time": 87840, "pitch": 65, "duration": 40, "velocity": 85}, {"time": 87880, "pitch": 64, "duration": 40, "velocity": 83}, {"time": 87920, "pitch": 62, "duration": 40, "velocity": 81}, {"time": 87960, "pitch": 60, "duration": 40, "velocity": 92}, {"time": 88000, "pitch": 59, "duration": 40, "velocity": 98}, {"time": 88040, "pitch": 57, "duration": 40, "velocity": 104}, {"time": 88080, "pitch": 55, "duration": 40, "velocity": 108}, {"time": 202080, "pitch": 79, "duration": 80, "velocity": 123}, {"time": 202120, "pitch": 75, "duration": 80, "velocity": 120}, {"time": 202160, "pitch": 72, "duration": 80, "velocity": 117}, {"time": 202200, "pitch": 68, "duration": 80, "velocity": 114}, {"time": 202240, "pitch": 75, "duration": 80, "velocity": 110}, {"time": 202280, "pitch": 72, "duration": 80, "velocity": 107}, {"time": 202320, "pitch": 68, "duration": 80, "velocity": 104}, {"time": 202360, "pitch": 65, "duration": 80, "velocity": 110}, {"time": 202400, "pitch": 72, "duration": 80, "velocity": 108}, {"time": 202440, "pitch": 68, "duration": 80, "velocity": 105}, {"time": 202480, "pitch": 65, "duration": 80, "velocity": 102}, {"time": 202520, "pitch": 60, "duration": 80, "velocity": 99}, {"time": 202560, "pitch": 68, "duration": 80, "velocity": 97}, {"time": 202600, "pitch": 65, "duration": 80, "velocity": 92}, {"time": 202640, "pitch": 60, "duration": 80, "velocity": 87}, {"time": 202680, "pitch": 56, "duration": 80, "velocity": 82}, {"time": 202720, "pitch": 65, "duration": 80, "velocity": 77}, {"time": 202760, "pitch": 60, "duration": 80, "velocity": 72}, {"time": 202800, "pitch": 56, "duration": 80, "velocity": 81}, {"time": 202840, "pitch": 53, "duration": 80, "velocity": 79}, {"time": 202880, "pitch": 63, "duration": 80, "velocity": 78}, {"time": 202920, "pitch": 60, "duration": 80, "velocity": 77}, {"time": 202960, "pitch": 56, "duration": 80, "velocity": 75}, {"time": 203000, "pitch": 51, "duration": 80, "velocity": 74}, {"time": 203040, "pitch": 50, "duration": 40, "velocity": 90}, {"time": 203080, "pitch": 53, "duration": 40, "velocity": 90}, {"time": 203120, "pitch": 57, "duration": 40, "velocity": 90}, {"time": 203160, "pitch": 60, "duration": 40, "velocity": 90}, {"time": 203200, "pitch": 65, "duration": 40, "velocity": 91}, {"time": 203240, "pitch": 53, "duration": 40, "velocity": 91}, {"time": 203280, "pitch": 57, "duration": 40, "velocity": 97}, {"time": 203320, "pitch": 60, "duration": 40, "velocity": 99}, {"time": 203360, "pitch": 62, "duration": 40, "velocity": 101}, {"time": 203400, "pitch": 65, "duration": 40, "velocity": 103}, {"time": 203440, "pitch": 69, "duration": 40, "velocity": 105}, {"time": 203480, "pitch": 57, "duration": 40, "velocity": 107}, {"time": 203520, "pitch": 60, "duration": 40, "velocity": 106}, {"time": 203560, "pitch": 62, "duration": 40, "velocity": 108}, {"time": 203600, "pitch": 65, "duration": 40, "velocity": 109}, {"time": 203640, "pitch": 69, "duration": 40, "velocity": 111}, {"time": 203680, "pitch": 72, "duration": 40, "velocity": 112}, {"time": 203720, "pitch": 62, "duration": 40, "velocity": 103}, {"time": 203760, "pitch": 65, "duration": 40, "velocity": 106}, {"time": 203800, "pitch": 69, "duration": 40, "velocity": 109}, {"time": 203840, "pitch": 72, "duration": 40, "velocity": 113}, {"time": 203880, "pitch": 77, "duration": 40, "velocity": 116}, {"time": 203920, "pitch": 81, "duration": 40, "velocity": 119}, {"time": 203960, "pitch": 84, "duration": 40, "velocity": 123}], "annotations": [{"time": 84990, "annotation": {"number": 7, "value": 80}, "group": "control_change"}, {"time": 85000, "annotation": {"number": 11, "value": 127}, "group": "control_change"}, {"time": 85010, "annotation": {"number": 10, "value": 66}, "group": "control_change"}, {"time": 85020, "annotation": {"number": 91, "value": 40}, "group": "control_change"}, {"time": 85030, "annotation": {"number": 93, "value": 20}, "group": "control_change"}, {"time": 150160, "annotation": {"number": 0, "value": 8}, "group": "control_change"}, {"time": 150170, "annotation": {"number": 32, "value": 2}, "group": "control_change"}, {"time": 202030, "annotation": {"number": 7, "value": 60}, "group": "control_change"}, {"time": 202040, "annotation": {"number": 11, "value": 127}, "group": "control_change"}, {"time": 202050, "annotation": {"number": 10, "value": 66}, "group": "control_change"}, {"time": 202060, "annotation": {"number": 91, "value": 40}, "group": "control_change"}, {"time": 202070, "annotation": {"number": 93, "value": 20}, "group": "control_change"}]}, {"program": 0, "is_drum": false, "name": "GUITAR", "annotations": [{"time": 288, "annotation": {"number": 0, "value": 0}, "group": "control_change"}, {"time": 304, "annotation": {"number": 32, "value": 2}, "group": "control_change"}]}, {"program": 27, "is_drum": false, "name": "GUITAR", "notes": [{"time": 19920, "pitch": 60, "duration": 120, "velocity": 85}, {"time": 19920, "pitch": 64, "duration": 120, "velocity": 90}, {"time": 19930, "pitch": 67, "duration": 110, "velocity": 95}, {"time": 20280, "pitch": 64, "duration": 100, "velocity": 85}, {"time": 20280, "pitch": 67, "duration": 100, "velocity": 90}, {"time": 20290, "pitch": 60, "duration": 90, "velocity": 80}, {"time": 20640, "pitch": 60, "duration": 110, "velocity": 85}, {"time": 20640, "pitch": 64, "duration": 110, "velocity": 90}, {"time": 20650, "pitch": 67, "duration": 100, "velocity": 95}, {"time": 21000, "pitch": 64, "duration": 100, "velocity": 85}, {"time": 21000, "pitch": 67, "duration": 100, "velocity": 90}, {"time": 21010, "pitch": 60, "duration": 90, "velocity": 80}, {"time": 21360, "pitch": 60, "duration": 100, "velocity": 80}, {"time": 21360, "pitch": 64, "duration": 100, "velocity": 85}, {"time": 21370, "pitch": 67, "duration": 90, "velocity": 90}, {"time": 21840, "pitch": 58, "duration": 120, "velocity": 85}, {"time": 21840, "pitch": 62, "duration": 120, "velocity": 90}, {"time": 21850, "pitch": 67, "duration": 110, "velocity": 95}, {"time": 22200, "pitch": 62, "duration": 100, "velocity": 85}, {"time": 22200, "pitch": 67, "duration": 100, "velocity": 90}, {"time": 22210, "pitch": 58, "duration": 90, "velocity": 80}, {"time": 22560, "pitch": 58, "duration": 110, "velocity": 85}, {"time": 22560, "pitch": 62, "duration": 110, "velocity": 90}, {"time": 22570, "pitch": 67, "duration": 100, "velocity": 95}, {"time": 22920, "pitch": 62, "duration": 100, "velocity": 85}, {"time": 22920, "pitch": 67, "duration": 100, "velocity": 90}, {"time": 22930, "pitch": 58, "duration": 90, "velocity": 80}, {"time": 23280, "pitch": 58, "duration": 100, "velocity": 80}, {"time": 23280, "pitch": 62, "duration": 100, "velocity": 85}, {"time": 23290, "pitch": 67, "duration": 90, "velocity": 90}, {"time": 23760, "pitch": 60, "duration": 120, "velocity": 85}, {"time": 23760, "pitch": 64, "duration": 120, "velocity": 90}, {"time": 23770, "pitch": 67, "duration": 110, "velocity": 95}, {"time": 24120, "pitch": 60, "duration": 100, "velocity": 85}, {"time": 24120, "pitch": 65, "duration": 100, "velocity": 90}, {"time": 24130, "pitch": 57, "duration": 90, "velocity": 80}, {"time": 24480, "pitch": 57, "duration": 110, "velocity": 85}, {"time": 24480, "pitch": 60, "duration": 110, "velocity": 90}, {"time": 24490, "pitch": 65, "duration": 100, "velocity": 95}, {"time": 24840, "pitch": 60, "duration": 100, "velocity": 85}, {"time": 24840, "pitch": 65, "duration": 100, "velocity": 90}, {"time": 24850, "pitch": 57, "duration": 90, "velocity": 80}, {"time": 25200, "pitch": 57, "duration": 100, "velocity": 80}, {"time": 25200, "pitch": 60, "duration": 100, "velocity": 85}, {"time": 25210, "pitch": 65, "duration": 90, "velocity": 90}, {"time": 25680, "pitch": 60, "duration": 120, "velocity": 85}, {"time": 25680, "pitch": 63, "duration": 120, "velocity": 90}, {"time": 25690, "pitch": 67, "duration": 110, "velocity": 95}, {"time": 26040, "pitch": 63, "duration": 100, "velocity": 85}, {"time": 26040, "pitch": 67, "duration": 100, "velocity": 90}, {"time": 26050, "pitch": 60, "duration": 90, "velocity": 80}, {"time": 26400, "pitch": 56, "duration": 110, "velocity": 85}, {"time": 26400, "pitch": 60, "duration": 110, "velocity": 90}, {"time": 26410, "pitch": 65, "duration": 100, "velocity": 95}, {"time": 26760, "pitch": 60, "duration": 100, "velocity": 85}, {"time": 26760, "pitch": 65, "duration": 100, "velocity": 90}, {"time": 26770, "pitch": 56, "duration": 90, "velocity": 80}, {"time": 27120, "pitch": 56, "duration": 100, "velocity": 80}, {"time": 27120, "pitch": 60, "duration": 100, "velocity": 85}, {"time": 27130, "pitch": 65, "duration": 90, "velocity": 90}, {"time": 27600, "pitch": 60, "duration": 120, "velocity": 85}, {"time": 27600, "pitch": 64, "duration": 120, "velocity": 90}, {"time": 27610, "pitch": 67, "duration": 110, "velocity": 95}, {"time": 27960, "pitch": 64, "duration": 100, "velocity": 85}, {"time": 27960, "pitch": 67, "duration": 100, "velocity": 90}, {"time": 27970, "pitch": 60, "duration": 90, "velocity": 80}, {"time": 28320, "pitch": 60, "duration": 110, "velocity": 85}, {"time": 28320, "pitch": 64, "duration": 110, "velocity": 90}, {"time": 28330, "pitch": 67, "duration": 100, "velocity": 95}, {"time": 28680, "pitch": 64, "duration": 100, "velocity": 85}, {"time": 28680, "pitch": 67, "duration": 100, "velocity": 90}, {"time": 28690, "pitch": 60, "duration": 90, "velocity": 80}, {"time": 29040, "pitch": 60, "duration": 100, "velocity": 80}, {"time": 29040, "pitch": 64, "duration": 100, "velocity": 85}, {"time": 29050, "pitch": 67, "duration": 90, "velocity": 90}, {"time": 29520, "pitch": 58, "duration": 120, "velocity": 85}, {"time": 29520, "pitch": 62, "duration": 120, "velocity": 90}, {"time": 29530, "pitch": 67, "duration": 110, "velocity": 95}, {"time": 29880, "pitch": 62, "duration": 100, "velocity": 85}, {"time": 29880, "pitch": 67, "duration": 100, "velocity": 90}, {"time": 29890, "pitch": 58, "duration": 90, "velocity": 80}, {"time": 30240, "pitch": 58, "duration": 110, "velocity": 85}, {"time": 30240, "pitch": 62, "duration": 110, "velocity": 90}, {"time": 30250, "pitch": 67, "duration": 100, "velocity": 95}, {"time": 30600, "pitch": 62, "duration": 100, "velocity": 85}, {"time": 30600, "pitch": 67, "duration": 100, "velocity": 90}, {"time": 30610, "pitch": 58, "duration": 90, "velocity": 80}, {"time": 30960, "pitch": 58, "duration": 100, "velocity": 80}, {"time": 30960, "pitch": 62, "duration": 100, "velocity": 85}, {"time": 30970, "pitch": 67, "duration": 90, "velocity": 90}, {"time": 31440, "pitch": 60, "duration": 120, "velocity": 85}, {"time": 31440, "pitch": 64, "duration": 120, "velocity": 90}, {"time": 31450, "pitch": 67, "duration": 110, "velocity": 95}, {"time": 31800, "pitch": 64, "duration": 100, "velocity": 85}, {"time": 31800, "pitch": 67, "duration": 100, "velocity": 90}, {"time": 31810, "pitch": 60, "duration": 90, "velocity": 80}, {"time": 32160, "pitch": 60, "duration": 110, "velocity": 85}, {"time": 32160, "pitch": 64, "duration": 110, "velocity": 90}, {"time": 32170, "pitch": 67, "duration": 100, "velocity": 95}, {"time": 32520, "pitch": 64, "duration": 100, "velocity": 85}, {"time": 32520, "pitch": 67, "duration": 100, "velocity": 90}, {"time": 32530, "pitch": 60, "duration": 90, "velocity": 80}, {"time": 32880, "pitch": 60, "duration": 100, "velocity": 80}, {"time": 32880, "pitch": 64, "duration": 100, "velocity": 85}, {"time": 32890, "pitch": 67, "duration": 90, "velocity": 90}, {"time": 33360, "pitch": 59, "duration": 120, "velocity": 85}, {"time": 33360, "pitch": 63, "duration": 120, "velocity": 90}, {"time": 33370, "pitch": 67, "duration": 110, "velocity": 95}, {"time": 33720, "pitch": 63, "duration": 100, "velocity": 85}, {"time": 33720, "pitch": 67, "duration": 100, "velocity": 90}, {"time": 33730, "pitch": 59, "duration": 90, "velocity": 80}, {"time": 34080, "pitch": 61, "duration": 110, "velocity": 85}, {"time": 34080, "pitch": 64, "duration": 110, "velocity": 90}, {"time": 34090, "pitch": 67, "duration": 100, "velocity": 95}, {"time": 34440, "pitch": 64, "duration": 100, "velocity": 85}, {"time": 34440, "pitch": 67, "duration": 100, "velocity": 90}, {"time": 34450, "pitch": 61, "duration": 90, "velocity": 80}, {"time": 34800, "pitch": 61, "duration": 100, "velocity": 80}, {"time": 34800, "pitch": 64, "duration": 100, "velocity": 85}, {"time": 34810, "pitch": 67, "duration": 90, "velocity": 90}, {"time": 35040, "pitch": 57, "duration": 340, "velocity": 103}, {"time": 35040, "pitch": 60, "duration": 340, "velocity": 108}, {"time": 35050, "pitch": 65, "duration": 330, "velocity": 111}, {"time": 35400, "pitch": 57, "duration": 80, "velocity": 95}, {"time": 35400, "pitch": 60, "duration": 80, "velocity": 98}, {"time": 35400, "pitch": 65, "duration": 70, "velocity": 102}, {"time": 35640, "pitch": 57, "duration": 40, "velocity": 75}, {"time": 35640, "pitch": 60, "duration": 40, "velocity": 80}, {"time": 35640, "pitch": 65, "duration": 30, "velocity": 85}, {"time": 35760, "pitch": 57, "duration": 380, "velocity": 100}, {"time": 35760, "pitch": 60, "duration": 380, "velocity": 102}, {"time": 35770, "pitch": 65, "duration": 370, "velocity": 106}, {"time": 36240, "pitch": 57, "duration": 220, "velocity": 89}, {"time": 36240, "pitch": 60, "duration": 220, "velocity": 94}, {"time": 36250, "pitch": 65, "duration": 210, "velocity": 101}, {"time": 36480, "pitch": 57, "duration": 230, "velocity": 75}, {"time": 36480, "pitch": 60, "duration": 230, "velocity": 80}, {"time": 36490, "pitch": 65, "duration": 220, "velocity": 85}, {"time": 36720, "pitch": 57, "duration": 110, "velocity": 100}, {"time": 36720, "pitch": 60, "duration": 110, "velocity": 105}, {"time": 36730, "pitch": 65, "duration": 100, "velocity": 110}, {"time": 36840, "pitch": 60, "duration": 90, "velocity": 90}, {"time": 36840, "pitch": 65, "duration": 90, "velocity": 95}, {"time": 36850, "pitch": 57, "duration": 80, "velocity": 85}, {"time": 36960, "pitch": 56, "duration": 340, "velocity": 103}, {"time": 36960, "pitch": 60, "duration": 340, "velocity": 108}, {"time": 36970, "pitch": 65, "duration": 330, "velocity": 111}, {"time": 37320, "pitch": 56, "duration": 80, "velocity": 95}, {"time": 37320, "pitch": 60, "duration": 80, "velocity": 98}, {"time": 37320, "pitch": 65, "duration": 70, "velocity": 102}, {"time": 37560, "pitch": 56, "duration": 40, "velocity": 75}, {"time": 37560, "pitch": 60, "duration": 40, "velocity": 80}, {"time": 37560, "pitch": 65, "duration": 30, "velocity": 85}, {"time": 37680, "pitch": 56, "duration": 380, "velocity": 100}, {"time": 37680, "pitch": 60, "duration": 380, "velocity": 102}, {"time": 37690, "pitch": 65, "duration": 370, "velocity": 106}, {"time": 38160, "pitch": 56, "duration": 220, "velocity": 89}, {"time": 38160, "pitch": 60, "duration": 220, "velocity": 94}, {"time": 38170, "pitch": 65, "duration": 210, "velocity": 101}, {"time": 38400, "pitch": 56, "duration": 230, "velocity": 75}, {"time": 38400, "pitch": 60, "duration": 230, "velocity": 80}, {"time": 38410, "pitch": 65, "duration": 220, "velocity": 85}, {"time": 38640, "pitch": 56, "duration": 110, "velocity": 100}, {"time": 38640, "pitch": 60, "duration": 110, "velocity": 105}, {"time": 38650, "pitch": 65, "duration": 100, "velocity": 110}, {"time": 38760, "pitch": 60, "duration": 90, "velocity": 90}, {"time": 38760, "pitch": 65, "duration": 90, "velocity": 95}, {"time": 38770, "pitch": 56, "duration": 80, "velocity": 85}, {"time": 38880, "pitch": 59, "duration": 340, "velocity": 103}, {"time": 38880, "pitch": 62, "duration": 340, "velocity": 108}, {"time": 38890, "pitch": 67, "duration": 330, "velocity": 111}, {"time": 39240, "pitch": 59, "duration": 80, "velocity": 95}, {"time": 39240, "pitch": 62, "duration": 80, "velocity": 98}, {"time": 39240, "pitch": 67, "duration": 70, "velocity": 102}, {"time": 39480, "pitch": 59, "duration": 40, "velocity": 75}, {"time": 39480, "pitch": 62, "duration": 40, "velocity": 80}, {"time": 39480, "pitch": 67, "duration": 30, "velocity": 85}, {"time": 39600, "pitch": 59, "duration": 380, "velocity": 100}, {"time": 39600, "pitch": 62, "duration": 380, "velocity": 102}, {"time": 39610, "pitch": 67, "duration": 370, "velocity": 106}, {"time": 40080, "pitch": 59, "duration": 220, "velocity": 89}, {"time": 40080, "pitch": 62, "duration": 220, "velocity": 94}, {"time": 40090, "pitch": 67, "duration": 210, "velocity": 101}, {"time": 40320, "pitch": 59, "duration": 230, "velocity": 75}, {"time": 40320, "pitch": 62, "duration": 230, "velocity": 80}, {"time": 40330, "pitch": 67, "duration": 220, "velocity": 85}, {"time": 40560, "pitch": 59, "duration": 110, "velocity": 100}, {"time": 40560, "pitch": 62, "duration": 110, "velocity": 105}, {"time": 40570, "pitch": 67, "duration": 100, "velocity": 110}, {"time": 40680, "pitch": 62, "duration": 90, "velocity": 90}, {"time": 40680, "pitch": 67, "duration": 90, "velocity": 95}, {"time": 40690, "pitch": 59, "duration": 80, "velocity": 85}, {"time": 40800, "pitch": 57, "duration": 340, "velocity": 103}, {"time": 40800, "pitch": 61, "duration": 340, "velocity": 108}, {"time": 40810, "pitch": 65, "duration": 330, "velocity": 111}, {"time": 41160, "pitch": 57, "duration": 80, "velocity": 95}, {"time": 41160, "pitch": 61, "duration": 80, "velocity": 98}, {"time": 41160, "pitch": 65, "duration": 70, "velocity": 102}, {"time": 41400, "pitch": 57, "duration": 40, "velocity": 75}, {"time": 41400, "pitch": 61, "duration": 40, "velocity": 80}, {"time": 41400, "pitch": 65, "duration": 30, "velocity": 85}, {"time": 41520, "pitch": 57, "duration": 380, "velocity": 100}, {"time": 41520, "pitch": 61, "duration": 380, "velocity": 102}, {"time": 41530, "pitch": 65, "duration": 370, "velocity": 106}, {"time": 42000, "pitch": 57, "duration": 220, "velocity": 89}, {"time": 42000, "pitch": 61, "duration": 220, "velocity": 94}, {"time": 42010, "pitch": 64, "duration": 210, "velocity": 101}, {"time": 42240, "pitch": 57, "duration": 230, "velocity": 75}, {"time": 42240, "pitch": 61, "duration": 230, "velocity": 80}, {"time": 42250, "pitch": 64, "duration": 220, "velocity": 85}, {"time": 42480, "pitch": 57, "duration": 110, "velocity": 100}, {"time": 42480, "pitch": 61, "duration": 110, "velocity": 105}, {"time": 42490, "pitch": 64, "duration": 100, "velocity": 110}, {"time": 42600, "pitch": 61, "duration": 90, "velocity": 90}, {"time": 42600, "pitch": 64, "duration": 90, "velocity": 95}, {"time": 42610, "pitch": 57, "duration": 80, "velocity": 85}, {"time": 42960, "pitch": 60, "duration": 120, "velocity": 85}, {"time": 42960, "pitch": 65, "duration": 120, "velocity": 90}, {"time": 42970, "pitch": 69, "duration": 110, "velocity": 95}, {"time": 43320, "pitch": 64, "duration": 100, "velocity": 85}, {"time": 43320, "pitch": 67, "duration": 100, "velocity": 90}, {"time": 43330, "pitch": 60, "duration": 90, "velocity": 80}, {"time": 43680, "pitch": 60, "duration": 110, "velocity": 85}, {"time": 43680, "pitch": 64, "duration": 110, "velocity": 90}, {"time": 43690, "pitch": 67, "duration": 100, "velocity": 95}, {"time": 44040, "pitch": 64, "duration": 100, "velocity": 85}, {"time": 44040, "pitch": 67, "duration": 100, "velocity": 90}, {"time": 44050, "pitch": 60, "duration": 90, "velocity": 80}, {"time": 44400, "pitch": 60, "duration": 100, "velocity": 80}, {"time": 44400, "pitch": 64, "duration": 100, "velocity": 85}, {"time": 44410, "pitch": 67, "duration": 90, "velocity": 90}, {"time": 44880, "pitch": 60, "duration": 120, "velocity": 85}, {"time": 44880, "pitch": 63, "duration": 120, "velocity": 90}, {"time": 44890, "pitch": 66, "duration": 110, "velocity": 95}, {"time": 45240, "pitch": 64, "duration": 100, "velocity": 85}, {"time": 45240, "pitch": 67, "duration": 100, "velocity": 90}, {"time": 45250, "pitch": 60, "duration": 90, "velocity": 80}, {"time": 45600, "pitch": 60, "duration": 110, "velocity": 85}, {"time": 45600, "pitch": 64, "duration": 110, "velocity": 90}, {"time": 45610, "pitch": 67, "duration": 100, "velocity": 95}, {"time": 45960, "pitch": 64, "duration": 100, "velocity": 85}, {"time": 45960, "pitch": 67, "duration": 100, "velocity": 90}, {"time": 45970, "pitch": 60, "duration": 90, "velocity": 80}, {"time": 46320, "pitch": 60, "duration": 100, "velocity": 80}, {"time": 46320, "pitch": 64, "duration": 100, "velocity": 85}, {"time": 46330, "pitch": 67, "duration": 90, "velocity": 90}, {"time": 46560, "pitch": 65, "duration": 700, "velocity": 103}, {"time": 46560, "pitch": 69, "duration": 680, "velocity": 98}, {"time": 46560, "pitch": 72, "duration": 680, "velocity": 102}, {"time": 47280, "pitch": 65, "duration": 420, "velocity": 100}, {"time": 47280, "pitch": 69, "duration": 410, "velocity": 98}, {"time": 47280, "pitch": 72, "duration": 430, "velocity": 114}, {"time": 47760, "pitch": 65, "duration": 410, "velocity": 96}, {"time": 47760, "pitch": 69, "duration": 390, "velocity": 98}, {"time": 47760, "pitch": 72, "duration": 390, "velocity": 103}, {"time": 48240, "pitch": 65, "duration": 230, "velocity": 85}, {"time": 48240, "pitch": 69, "duration": 230, "velocity": 100}, {"time": 48240, "pitch": 72, "duration": 230, "velocity": 89}, {"time": 48480, "pitch": 62, "duration": 190, "velocity": 89}, {"time": 48480, "pitch": 67, "duration": 190, "velocity": 102}, {"time": 48480, "pitch": 71, "duration": 190, "velocity": 103}, {"time": 48720, "pitch": 62, "duration": 120, "velocity": 89}, {"time": 48720, "pitch": 67, "duration": 120, "velocity": 102}, {"time": 48720, "pitch": 71, "duration": 120, "velocity": 103}, {"time": 50400, "pitch": 60, "duration": 230, "velocity": 103}, {"time": 50400, "pitch": 64, "duration": 230, "velocity": 109}, {"time": 50410, "pitch": 67, "duration": 230, "velocity": 118}, {"time": 50640, "pitch": 60, "duration": 110, "velocity": 90}, {"time": 50640, "pitch": 64, "duration": 110, "velocity": 96}, {"time": 50650, "pitch": 67, "duration": 110, "velocity": 100}, {"time": 50760, "pitch": 64, "duration": 110, "velocity": 75}, {"time": 50760, "pitch": 67, "duration": 110, "velocity": 80}, {"time": 50770, "pitch": 60, "duration": 110, "velocity": 70}, {"time": 50880, "pitch": 60, "duration": 110, "velocity": 65}, {"time": 50880, "pitch": 64, "duration": 110, "velocity": 70}, {"time": 50890, "pitch": 67, "duration": 110, "velocity": 75}, {"time": 51000, "pitch": 64, "duration": 110, "velocity": 75}, {"time": 51000, "pitch": 67, "duration": 110, "velocity": 80}, {"time": 51010, "pitch": 60, "duration": 110, "velocity": 70}, {"time": 51120, "pitch": 60, "duration": 110, "velocity": 109}, {"time": 51120, "pitch": 64, "duration": 110, "velocity": 113}, {"time": 51130, "pitch": 67, "duration": 110, "velocity": 115}, {"time": 51240, "pitch": 64, "duration": 110, "velocity": 70}, {"time": 51240, "pitch": 67, "duration": 110, "velocity": 75}, {"time": 51250, "pitch": 60, "duration": 110, "velocity": 65}, {"time": 51360, "pitch": 60, "duration": 110, "velocity": 65}, {"time": 51360, "pitch": 64, "duration": 110, "velocity": 70}, {"time": 51370, "pitch": 67, "duration": 110, "velocity": 75}, {"time": 51480, "pitch": 64, "duration": 110, "velocity": 75}, {"time": 51480, "pitch": 67, "duration": 110, "velocity": 80}, {"time": 51490, "pitch": 60, "duration": 110, "velocity": 70}, {"time": 51600, "pitch": 60, "duration": 110, "velocity": 109}, {"time": 51600, "pitch": 64, "duration": 110, "velocity": 113}, {"time": 51610, "pitch": 67, "duration": 110, "velocity": 115}, {"time": 51720, "pitch": 64, "duration": 110, "velocity": 70}, {"time": 51720, "pitch": 67, "duration": 110, "velocity": 75}, {"time": 51730, "pitch": 60, "duration": 110, "velocity": 65}, {"time": 51840, "pitch": 60, "duration": 110, "velocity": 65}, {"time": 51840, "pitch": 64, "duration": 110, "velocity": 70}, {"time": 51850, "pitch": 67, "duration": 110, "velocity": 75}, {"time": 51960, "pitch": 60, "duration": 110, "velocity": 89}, {"time": 51960, "pitch": 64, "duration": 110, "velocity": 102}, {"time": 51970, "pitch": 67, "duration": 110, "velocity": 107}, {"time": 52080, "pitch": 60, "duration": 110, "velocity": 75}, {"time": 52080, "pitch": 64, "duration": 110, "velocity": 80}, {"time": 52090, "pitch": 67, "duration": 110, "velocity": 70}, {"time": 52200, "pitch": 64, "duration": 110, "velocity": 74}, {"time": 52200, "pitch": 67, "duration": 110, "velocity": 80}, {"time": 52210, "pitch": 60, "duration": 110, "velocity": 70}, {"time": 52320, "pitch": 58, "duration": 230, "velocity": 103}, {"time": 52320, "pitch": 62, "duration": 230, "velocity": 109}, {"time": 52330, "pitch": 67, "duration": 230, "velocity": 118}, {"time": 52560, "pitch": 58, "duration": 110, "velocity": 90}, {"time": 52560, "pitch": 62, "duration": 110, "velocity": 96}, {"time": 52570, "pitch": 67, "duration": 110, "velocity": 100}, {"time": 52680, "pitch": 62, "duration": 110, "velocity": 75}, {"time": 52680, "pitch": 67, "duration": 110, "velocity": 80}, {"time": 52690, "pitch": 58, "duration": 110, "velocity": 70}, {"time": 52800, "pitch": 58, "duration": 110, "velocity": 65}, {"time": 52800, "pitch": 62, "duration": 110, "velocity": 70}, {"time": 52810, "pitch": 67, "duration": 110, "velocity": 75}, {"time": 52920, "pitch": 62, "duration": 110, "velocity": 75}, {"time": 52920, "pitch": 67, "duration": 110, "velocity": 80}, {"time": 52930, "pitch": 58, "duration": 110, "velocity": 70}, {"time": 53040, "pitch": 58, "duration": 110, "velocity": 109}, {"time": 53040, "pitch": 62, "duration": 110, "velocity": 113}, {"time": 53050, "pitch": 67, "duration": 110, "velocity": 115}, {"time": 53160, "pitch": 62, "duration": 110, "velocity": 70}, {"time": 53160, "pitch": 67, "duration": 110, "velocity": 75}, {"time": 53170, "pitch": 58, "duration": 110, "velocity": 65}, {"time": 53280, "pitch": 58, "duration": 110, "velocity": 65}, {"time": 53280, "pitch": 62, "duration": 110, "velocity": 70}, {"time": 53290, "pitch": 67, "duration": 110, "velocity": 75}, {"time": 53400, "pitch": 62, "duration": 110, "velocity": 75}, {"time": 53400, "pitch": 67, "duration": 110, "velocity": 80}, {"time": 53410, "pitch": 58, "duration": 110, "velocity": 70}, {"time": 53520, "pitch": 58, "duration": 110, "velocity": 109}, {"time": 53520, "pitch": 62, "duration": 110, "velocity": 113}, {"time": 53530, "pitch": 67, "duration": 110, "velocity": 115}, {"time": 53640, "pitch": 62, "duration": 110, "velocity": 70}, {"time": 53640, "pitch": 67, "duration": 110, "velocity": 75}, {"time": 53650, "pitch": 58, "duration": 110, "velocity": 65}, {"time": 53760, "pitch": 58, "duration": 110, "velocity": 65}, {"time": 53760, "pitch": 62, "duration": 110, "velocity": 70}, {"time": 53770, "pitch": 67, "duration": 110, "velocity": 75}, {"time": 53880, "pitch": 58, "duration": 110, "velocity": 89}, {"time": 53880, "pitch": 62, "duration": 110, "velocity": 102}, {"time": 53890, "pitch": 67, "duration": 110, "velocity": 107}, {"time": 54000, "pitch": 58, "duration": 110, "velocity": 75}, {"time": 54000, "pitch": 62, "duration": 110, "velocity": 80}, {"time": 54010, "pitch": 67, "duration": 110, "velocity": 70}, {"time": 54120, "pitch": 62, "duration": 110, "velocity": 74}, {"time": 54120, "pitch": 67, "duration": 110, "velocity": 80}, {"time": 54130, "pitch": 58, "duration": 110, "velocity": 70}, {"time": 54240, "pitch": 60, "duration": 230, "velocity": 103}, {"time": 54240, "pitch": 64, "duration": 230, "velocity": 109}, {"time": 54250, "pitch": 67, "duration": 230, "velocity": 118}, {"time": 54480, "pitch": 60, "duration": 110, "velocity": 90}, {"time": 54480, "pitch": 64, "duration": 110, "velocity": 96}, {"time": 54490, "pitch": 67, "duration": 110, "velocity": 100}, {"time": 54600, "pitch": 64, "duration": 110, "velocity": 75}, {"time": 54600, "pitch": 67, "duration": 110, "velocity": 80}, {"time": 54610, "pitch": 60, "duration": 110, "velocity": 70}, {"time": 54720, "pitch": 60, "duration": 110, "velocity": 65}, {"time": 54720, "pitch": 64, "duration": 110, "velocity": 70}, {"time": 54730, "pitch": 67, "duration": 110, "velocity": 75}, {"time": 54840, "pitch": 64, "duration": 110, "velocity": 75}, {"time": 54840, "pitch": 67, "duration": 110, "velocity": 80}, {"time": 54850, "pitch": 60, "duration": 110, "velocity": 70}, {"time": 54960, "pitch": 60, "duration": 110, "velocity": 109}, {"time": 54960, "pitch": 64, "duration": 110, "velocity": 113}, {"time": 54970, "pitch": 67, "duration": 110, "velocity": 115}, {"time": 55080, "pitch": 64, "duration": 110, "velocity": 70}, {"time": 55080, "pitch": 67, "duration": 110, "velocity": 75}, {"time": 55090, "pitch": 60, "duration": 110, "velocity": 65}, {"time": 55200, "pitch": 60, "duration": 110, "velocity": 65}, {"time": 55200, "pitch": 64, "duration": 110, "velocity": 70}, {"time": 55210, "pitch": 67, "duration": 110, "velocity": 75}, {"time": 55320, "pitch": 64, "duration": 110, "velocity": 75}, {"time": 55320, "pitch": 67, "duration": 110, "velocity": 80}, {"time": 55330, "pitch": 60, "duration": 110, "velocity": 70}, {"time": 55440, "pitch": 60, "duration": 110, "velocity": 109}, {"time": 55440, "pitch": 64, "duration": 110, "velocity": 113}, {"time": 55450, "pitch": 67, "duration": 110, "velocity": 115}, {"time": 55560, "pitch": 64, "duration": 110, "velocity": 70}, {"time": 55560, "pitch": 67, "duration": 110, "velocity": 75}, {"time": 55570, "pitch": 60, "duration": 110, "velocity": 65}, {"time": 55680, "pitch": 60, "duration": 110, "velocity": 65}, {"time": 55680, "pitch": 64, "duration": 110, "velocity": 70}, {"time": 55690, "pitch": 67, "duration": 110, "velocity": 75}, {"time": 55800, "pitch": 60, "duration": 110, "velocity": 89}, {"time": 55800, "pitch": 64, "duration": 110, "velocity": 102}, {"time": 55810, "pitch": 67, "duration": 110, "velocity": 107}, {"time": 55920, "pitch": 60, "duration": 110, "velocity": 75}, {"time": 55920, "pitch": 64, "duration": 110, "velocity": 80}, {"time": 55930, "pitch": 67, "duration": 110, "velocity": 70}, {"time": 56040, "pitch": 64, "duration": 110, "velocity": 74}, {"time": 56040, "pitch": 67, "duration": 110, "velocity": 80}, {"time": 56050, "pitch": 60, "duration": 110, "velocity": 70}, {"time": 56160, "pitch": 60, "duration": 230, "velocity": 103}, {"time": 56160, "pitch": 63, "duration": 230, "velocity": 109}, {"time": 56170, "pitch": 67, "duration": 230, "velocity": 118}, {"time": 56400, "pitch": 60, "duration": 110, "velocity": 90}, {"time": 56400, "pitch": 63, "duration": 110, "velocity": 96}, {"time": 56410, "pitch": 67, "duration": 110, "velocity": 100}, {"time": 56520, "pitch": 63, "duration": 110, "velocity": 75}, {"time": 56520, "pitch": 67, "duration": 110, "velocity": 80}, {"time": 56530, "pitch": 60, "duration": 110, "velocity": 70}, {"time": 56640, "pitch": 60, "duration": 110, "velocity": 65}, {"time": 56640, "pitch": 63, "duration": 110, "velocity": 70}, {"time": 56650, "pitch": 67, "duration": 110, "velocity": 75}, {"time": 56760, "pitch": 63, "duration": 110, "velocity": 75}, {"time": 56760, "pitch": 67, "duration": 110, "velocity": 80}, {"time": 56770, "pitch": 60, "duration": 110, "velocity": 70}, {"time": 56880, "pitch": 60, "duration": 110, "velocity": 109}, {"time": 56880, "pitch": 63, "duration": 110, "velocity": 113}, {"time": 56890, "pitch": 67, "duration": 110, "velocity": 115}, {"time": 57000, "pitch": 63, "duration": 110, "velocity": 70}, {"time": 57000, "pitch": 67, "duration": 110, "velocity": 75}, {"time": 57010, "pitch": 60, "duration": 110, "velocity": 65}, {"time": 57120, "pitch": 57, "duration": 110, "velocity": 65}, {"time": 57120, "pitch": 60, "duration": 110, "velocity": 70}, {"time": 57130, "pitch": 65, "duration": 110, "velocity": 75}, {"time": 57240, "pitch": 60, "duration": 110, "velocity": 75}, {"time": 57240, "pitch": 65, "duration": 110, "velocity": 80}, {"time": 57250, "pitch": 57, "duration": 110, "velocity": 70}, {"time": 57360, "pitch": 57, "duration": 110, "velocity": 109}, {"time": 57360, "pitch": 60, "duration": 110, "velocity": 113}, {"time": 57370, "pitch": 65, "duration": 110, "velocity": 115}, {"time": 57480, "pitch": 60, "duration": 110, "velocity": 70}, {"time": 57480, "pitch": 65, "duration": 110, "velocity": 75}, {"time": 57490, "pitch": 57, "duration": 110, "velocity": 65}, {"time": 57600, "pitch": 57, "duration": 110, "velocity": 65}, {"time": 57600, "pitch": 60, "duration": 110, "velocity": 70}, {"time": 57610, "pitch": 65, "duration": 110, "velocity": 75}, {"time": 57720, "pitch": 57, "duration": 110, "velocity": 89}, {"time": 57720, "pitch": 60, "duration": 110, "velocity": 102}, {"time": 57730, "pitch": 65, "duration": 110, "velocity": 107}, {"time": 57840, "pitch": 57, "duration": 110, "velocity": 75}, {"time": 57840, "pitch": 60, "duration": 110, "velocity": 80}, {"time": 57850, "pitch": 65, "duration": 110, "velocity": 70}, {"time": 57960, "pitch": 60, "duration": 110, "velocity": 74}, {"time": 57960, "pitch": 65, "duration": 110, "velocity": 80}, {"time": 57970, "pitch": 57, "duration": 110, "velocity": 70}, {"time": 58080, "pitch": 60, "duration": 230, "velocity": 103}, {"time": 58080, "pitch": 64, "duration": 230, "velocity": 109}, {"time": 58090, "pitch": 67, "duration": 230, "velocity": 118}, {"time": 58320, "pitch": 60, "duration": 110, "velocity": 90}, {"time": 58320, "pitch": 64, "duration": 110, "velocity": 96}, {"time": 58330, "pitch": 67, "duration": 110, "velocity": 100}, {"time": 58440, "pitch": 64, "duration": 110, "velocity": 75}, {"time": 58440, "pitch": 67, "duration": 110, "velocity": 80}, {"time": 58450, "pitch": 60, "duration": 110, "velocity": 70}, {"time": 58560, "pitch": 60, "duration": 110, "velocity": 65}, {"time": 58560, "pitch": 64, "duration": 110, "velocity": 70}, {"time": 58570, "pitch": 67, "duration": 110, "velocity": 75}, {"time": 58680, "pitch": 64, "duration": 110, "velocity": 75}, {"time": 58680, "pitch": 67, "duration": 110, "velocity": 80}, {"time": 58690, "pitch": 60, "duration": 110, "velocity": 70}, {"time": 58800, "pitch": 60, "duration": 110, "velocity": 109}, {"time": 58800, "pitch": 64, "duration": 110, "velocity": 113}, {"time": 58810, "pitch": 67, "duration": 110, "velocity": 115}, {"time": 58920, "pitch": 64, "duration": 110, "velocity": 70}, {"time": 58920, "pitch": 67, "duration": 110, "velocity": 75}, {"time": 58930, "pitch": 60, "duration": 110, "velocity": 65}, {"time": 59040, "pitch": 60, "duration": 110, "velocity": 65}, {"time": 59040, "pitch": 64, "duration": 110, "velocity": 70}, {"time": 59050, "pitch": 67, "duration": 110, "velocity": 75}, {"time": 59160, "pitch": 64, "duration": 110, "velocity": 75}, {"time": 59160, "pitch": 67, "duration": 110, "velocity": 80}, {"time": 59170, "pitch": 60, "duration": 110, "velocity": 70}, {"time": 59280, "pitch": 60, "duration": 110, "velocity": 109}, {"time": 59280, "pitch": 64, "duration": 110, "velocity": 113}, {"time": 59290, "pitch": 67, "duration": 110, "velocity": 115}, {"time": 59400, "pitch": 64, "duration": 110, "velocity": 70}, {"time": 59400, "pitch": 67, "duration": 110, "velocity": 75}, {"time": 59410, "pitch": 60, "duration": 110, "velocity": 65}, {"time": 59520, "pitch": 60, "duration": 110, "velocity": 65}, {"time": 59520, "pitch": 64, "duration": 110, "velocity": 70}, {"time": 59530, "pitch": 67, "duration": 110, "velocity": 75}, {"time": 59640, "pitch": 60, "duration": 110, "velocity": 89}, {"time": 59640, "pitch": 64, "duration": 110, "velocity": 102}, {"time": 59650, "pitch": 67, "duration": 110, "velocity": 107}, {"time": 59760, "pitch": 60, "duration": 110, "velocity": 75}, {"time": 59760, "pitch": 64, "duration": 110, "velocity": 80}, {"time": 59770, "pitch": 67, "duration": 110, "velocity": 70}, {"time": 59880, "pitch": 64, "duration": 110, "velocity": 74}, {"time": 59880, "pitch": 67, "duration": 110, "velocity": 80}, {"time": 59890, "pitch": 60, "duration": 110, "velocity": 70}, {"time": 60000, "pitch": 58, "duration": 230, "velocity": 103}, {"time": 60000, "pitch": 62, "duration": 230, "velocity": 109}, {"time": 60010, "pitch": 67, "duration": 230, "velocity": 118}, {"time": 60240, "pitch": 58, "duration": 110, "velocity": 90}, {"time": 60240, "pitch": 62, "duration": 110, "velocity": 96}, {"time": 60250, "pitch": 67, "duration": 110, "velocity": 100}, {"time": 60360, "pitch": 62, "duration": 110, "velocity": 75}, {"time": 60360, "pitch": 67, "duration": 110, "velocity": 80}, {"time": 60370, "pitch": 58, "duration": 110, "velocity": 70}, {"time": 60480, "pitch": 58, "duration": 110, "velocity": 65}, {"time": 60480, "pitch": 62, "duration": 110, "velocity": 70}, {"time": 60490, "pitch": 67, "duration": 110, "velocity": 75}, {"time": 60600, "pitch": 62, "duration": 110, "velocity": 75}, {"time": 60600, "pitch": 67, "duration": 110, "velocity": 80}, {"time": 60610, "pitch": 58, "duration": 110, "velocity": 70}, {"time": 60720, "pitch": 58, "duration": 110, "velocity": 109}, {"time": 60720, "pitch": 62, "duration": 110, "velocity": 113}, {"time": 60730, "pitch": 67, "duration": 110, "velocity": 115}, {"time": 60840, "pitch": 62, "duration": 110, "velocity": 70}, {"time": 60840, "pitch": 67, "duration": 110, "velocity": 75}, {"time": 60850, "pitch": 58, "duration": 110, "velocity": 65}, {"time": 60960, "pitch": 58, "duration": 110, "velocity": 65}, {"time": 60960, "pitch": 62, "duration": 110, "velocity": 70}, {"time": 60970, "pitch": 67, "duration": 110, "velocity": 75}, {"time": 61080, "pitch": 62, "duration": 110, "velocity": 75}, {"time": 61080, "pitch": 67, "duration": 110, "velocity": 80}, {"time": 61090, "pitch": 58, "duration": 110, "velocity": 70}, {"time": 61200, "pitch": 58, "duration": 110, "velocity": 109}, {"time": 61200, "pitch": 62, "duration": 110, "velocity": 113}, {"time": 61210, "pitch": 67, "duration": 110, "velocity": 115}, {"time": 61320, "pitch": 62, "duration": 110, "velocity": 70}, {"time": 61320, "pitch": 67, "duration": 110, "velocity": 75}, {"time": 61330, "pitch": 58, "duration": 110, "velocity": 65}, {"time": 61440, "pitch": 58, "duration": 110, "velocity": 65}, {"time": 61440, "pitch": 62, "duration": 110, "velocity": 70}, {"time": 61450, "pitch": 67, "duration": 110, "velocity": 75}, {"time": 61560, "pitch": 58, "duration": 110, "velocity": 89}, {"time": 61560, "pitch": 62, "duration": 110, "velocity": 102}, {"time": 61570, "pitch": 67, "duration": 110, "velocity": 107}, {"time": 61680, "pitch": 58, "duration": 110, "velocity": 75}, {"time": 61680, "pitch": 62, "duration": 110, "velocity": 80}, {"time": 61690, "pitch": 67, "duration": 110, "velocity": 70}, {"time": 61800, "pitch": 62, "duration": 110, "velocity": 74}, {"time": 61800, "pitch": 67, "duration": 110, "velocity": 80}, {"time": 61810, "pitch": 58, "duration": 110, "velocity": 70}, {"time": 61920, "pitch": 60, "duration": 230, "velocity": 103}, {"time": 61920, "pitch": 64, "duration": 230, "velocity": 109}, {"time": 61930, "pitch": 67, "duration": 230, "velocity": 118}, {"time": 62160, "pitch": 60, "duration": 110, "velocity": 90}, {"time": 62160, "pitch": 64, "duration": 110, "velocity": 96}, {"time": 62170, "pitch": 67, "duration": 110, "velocity": 100}, {"time": 62280, "pitch": 64, "duration": 110, "velocity": 75}, {"time": 62280, "pitch": 67, "duration": 110, "velocity": 80}, {"time": 62290, "pitch": 60, "duration": 110, "velocity": 70}, {"time": 62400, "pitch": 60, "duration": 110, "velocity": 65}, {"time": 62400, "pitch": 64, "duration": 110, "velocity": 70}, {"time": 62410, "pitch": 67, "duration": 110, "velocity": 75}, {"time": 62520, "pitch": 64, "duration": 110, "velocity": 75}, {"time": 62520, "pitch": 67, "duration": 110, "velocity": 80}, {"time": 62530, "pitch": 60, "duration": 110, "velocity": 70}, {"time": 62640, "pitch": 60, "duration": 110, "velocity": 109}, {"time": 62640, "pitch": 64, "duration": 110, "velocity": 113}, {"time": 62650, "pitch": 67, "duration": 110, "velocity": 115}, {"time": 62760, "pitch": 64, "duration": 110, "velocity": 70}, {"time": 62760, "pitch": 67, "duration": 110, "velocity": 75}, {"time": 62770, "pitch": 60, "duration": 110, "velocity": 65}, {"time": 62880, "pitch": 60, "duration": 110, "velocity": 65}, {"time": 62880, "pitch": 64, "duration": 110, "velocity": 70}, {"time": 62890, "pitch": 67, "duration": 110, "velocity": 75}, {"time": 63000, "pitch": 64, "duration": 110, "velocity": 75}, {"time": 63000, "pitch": 67, "duration": 110, "velocity": 80}, {"time": 63010, "pitch": 60, "duration": 110, "velocity": 70}, {"time": 63120, "pitch": 60, "duration": 110, "velocity": 109}, {"time": 63120, "pitch": 64, "duration": 110, "velocity": 113}, {"time": 63130, "pitch": 67, "duration": 110, "velocity": 115}, {"time": 63240, "pitch": 64, "duration": 110, "velocity": 70}, {"time": 63240, "pitch": 67, "duration": 110, "velocity": 75}, {"time": 63250, "pitch": 60, "duration": 110, "velocity": 65}, {"time": 63360, "pitch": 60, "duration": 110, "velocity": 65}, {"time": 63360, "pitch": 64, "duration": 110, "velocity": 70}, {"time": 63370, "pitch": 67, "duration": 110, "velocity": 75}, {"time": 63480, "pitch": 60, "duration": 110, "velocity": 89}, {"time": 63480, "pitch": 64, "duration": 110, "velocity": 102}, {"time": 63490, "pitch": 67, "duration": 110, "velocity": 107}, {"time": 63600, "pitch": 60, "duration": 110, "velocity": 75}, {"time": 63600, "pitch": 64, "duration": 110, "velocity": 80}, {"time": 63610, "pitch": 67, "duration": 110, "velocity": 70}, {"time": 63720, "pitch": 64, "duration": 110, "velocity": 74}, {"time": 63720, "pitch": 67, "duration": 110, "velocity": 80}, {"time": 63730, "pitch": 60, "duration": 110, "velocity": 70}, {"time": 63840, "pitch": 60, "duration": 230, "velocity": 103}, {"time": 63840, "pitch": 63, "duration": 230, "velocity": 109}, {"time": 63850, "pitch": 67, "duration": 230, "velocity": 118}, {"time": 64080, "pitch": 60, "duration": 110, "velocity": 90}, {"time": 64080, "pitch": 63, "duration": 110, "velocity": 96}, {"time": 64090, "pitch": 67, "duration": 110, "velocity": 100}, {"time": 64200, "pitch": 63, "duration": 110, "velocity": 75}, {"time": 64200, "pitch": 67, "duration": 110, "velocity": 80}, {"time": 64210, "pitch": 60, "duration": 110, "velocity": 70}, {"time": 64320, "pitch": 60, "duration": 110, "velocity": 65}, {"time": 64320, "pitch": 63, "duration": 110, "velocity": 70}, {"time": 64330, "pitch": 67, "duration": 110, "velocity": 75}, {"time": 64440, "pitch": 63, "duration": 110, "velocity": 75}, {"time": 64440, "pitch": 67, "duration": 110, "velocity": 80}, {"time": 64450, "pitch": 60, "duration": 110, "velocity": 70}, {"time": 64560, "pitch": 60, "duration": 110, "velocity": 109}, {"time": 64560, "pitch": 63, "duration": 110, "velocity": 113}, {"time": 64570, "pitch": 67, "duration": 110, "velocity": 115}, {"time": 64680, "pitch": 63, "duration": 110, "velocity": 70}, {"time": 64680, "pitch": 67, "duration": 110, "velocity": 75}, {"time": 64690, "pitch": 60, "duration": 110, "velocity": 65}, {"time": 64800, "pitch": 57, "duration": 110, "velocity": 65}, {"time": 64800, "pitch": 60, "duration": 110, "velocity": 70}, {"time": 64810, "pitch": 65, "duration": 110, "velocity": 75}, {"time": 64920, "pitch": 60, "duration": 110, "velocity": 75}, {"time": 64920, "pitch": 65, "duration": 110, "velocity": 80}, {"time": 64930, "pitch": 57, "duration": 110, "velocity": 70}, {"time": 65040, "pitch": 57, "duration": 110, "velocity": 109}, {"time": 65040, "pitch": 60, "duration": 110, "velocity": 113}, {"time": 65050, "pitch": 65, "duration": 110, "velocity": 115}, {"time": 65160, "pitch": 60, "duration": 110, "velocity": 70}, {"time": 65160, "pitch": 65, "duration": 110, "velocity": 75}, {"time": 65170, "pitch": 57, "duration": 110, "velocity": 65}, {"time": 65280, "pitch": 57, "duration": 110, "velocity": 65}, {"time": 65280, "pitch": 60, "duration": 110, "velocity": 70}, {"time": 65290, "pitch": 65, "duration": 110, "velocity": 75}, {"time": 65400, "pitch": 57, "duration": 110, "velocity": 89}, {"time": 65400, "pitch": 60, "duration": 110, "velocity": 102}, {"time": 65410, "pitch": 65, "duration": 110, "velocity": 107}, {"time": 65520, "pitch": 57, "duration": 110, "velocity": 75}, {"time": 65520, "pitch": 60, "duration": 110, "velocity": 80}, {"time": 65530, "pitch": 65, "duration": 110, "velocity": 70}, {"time": 65640, "pitch": 60, "duration": 110, "velocity": 74}, {"time": 65640, "pitch": 65, "duration": 110, "velocity": 80}, {"time": 65650, "pitch": 57, "duration": 110, "velocity": 70}, {"time": 65760, "pitch": 60, "duration": 230, "velocity": 103}, {"time": 65760, "pitch": 64, "duration": 230, "velocity": 109}, {"time": 65770, "pitch": 67, "duration": 230, "velocity": 118}, {"time": 66000, "pitch": 60, "duration": 110, "velocity": 90}, {"time": 66000, "pitch": 64, "duration": 110, "velocity": 96}, {"time": 66010, "pitch": 67, "duration": 110, "velocity": 100}, {"time": 66120, "pitch": 64, "duration": 110, "velocity": 75}, {"time": 66120, "pitch": 67, "duration": 110, "velocity": 80}, {"time": 66130, "pitch": 60, "duration": 110, "velocity": 70}, {"time": 66240, "pitch": 60, "duration": 110, "velocity": 65}, {"time": 66240, "pitch": 64, "duration": 110, "velocity": 70}, {"time": 66250, "pitch": 67, "duration": 110, "velocity": 75}, {"time": 66360, "pitch": 64, "duration": 110, "velocity": 75}, {"time": 66360, "pitch": 67, "duration": 110, "velocity": 80}, {"time": 66370, "pitch": 60, "duration": 110, "velocity": 70}, {"time": 66480, "pitch": 60, "duration": 110, "velocity": 109}, {"time": 66480, "pitch": 64, "duration": 110, "velocity": 113}, {"time": 66490, "pitch": 67, "duration": 110, "velocity": 115}, {"time": 66600, "pitch": 64, "duration": 110, "velocity": 70}, {"time": 66600, "pitch": 67, "duration": 110, "velocity": 75}, {"time": 66610, "pitch": 60, "duration": 110, "velocity": 65}, {"time": 66720, "pitch": 60, "duration": 110, "velocity": 65}, {"time": 66720, "pitch": 64, "duration": 110, "velocity": 70}, {"time": 66730, "pitch": 67, "duration": 110, "velocity": 75}, {"time": 66840, "pitch": 64, "duration": 110, "velocity": 75}, {"time": 66840, "pitch": 67, "duration": 110, "velocity": 80}, {"time": 66850, "pitch": 60, "duration": 110, "velocity": 70}, {"time": 66960, "pitch": 60, "duration": 110, "velocity": 109}, {"time": 66960, "pitch": 64, "duration": 110, "velocity": 113}, {"time": 66970, "pitch": 67, "duration": 110, "velocity": 115}, {"time": 67080, "pitch": 64, "duration": 110, "velocity": 70}, {"time": 67080, "pitch": 67, "duration": 110, "velocity": 75}, {"time": 67090, "pitch": 60, "duration": 110, "velocity": 65}, {"time": 67200, "pitch": 60, "duration": 110, "velocity": 65}, {"time": 67200, "pitch": 64, "duration": 110, "velocity": 70}, {"time": 67210, "pitch": 67, "duration": 110, "velocity": 75}, {"time": 67320, "pitch": 60, "duration": 110, "velocity": 89}, {"time": 67320, "pitch": 64, "duration": 110, "velocity": 102}, {"time": 67330, "pitch": 67, "duration": 110, "velocity": 107}, {"time": 67440, "pitch": 60, "duration": 110, "velocity": 75}, {"time": 67440, "pitch": 64, "duration": 110, "velocity": 80}, {"time": 67450, "pitch": 67, "duration": 110, "velocity": 70}, {"time": 67560, "pitch": 64, "duration": 110, "velocity": 74}, {"time": 67560, "pitch": 67, "duration": 110, "velocity": 80}, {"time": 67570, "pitch": 60, "duration": 110, "velocity": 70}, {"time": 67680, "pitch": 58, "duration": 230, "velocity": 103}, {"time": 67680, "pitch": 62, "duration": 230, "velocity": 109}, {"time": 67690, "pitch": 67, "duration": 230, "velocity": 118}, {"time": 67920, "pitch": 58, "duration": 110, "velocity": 90}, {"time": 67920, "pitch": 62, "duration": 110, "velocity": 96}, {"time": 67930, "pitch": 67, "duration": 110, "velocity": 100}, {"time": 68040, "pitch": 62, "duration": 110, "velocity": 75}, {"time": 68040, "pitch": 67, "duration": 110, "velocity": 80}, {"time": 68050, "pitch": 58, "duration": 110, "velocity": 70}, {"time": 68160, "pitch": 58, "duration": 110, "velocity": 65}, {"time": 68160, "pitch": 62, "duration": 110, "velocity": 70}, {"time": 68170, "pitch": 67, "duration": 110, "velocity": 75}, {"time": 68280, "pitch": 62, "duration": 110, "velocity": 75}, {"time": 68280, "pitch": 67, "duration": 110, "velocity": 80}, {"time": 68290, "pitch": 58, "duration": 110, "velocity": 70}, {"time": 68400, "pitch": 58, "duration": 110, "velocity": 109}, {"time": 68400, "pitch": 62, "duration": 110, "velocity": 113}, {"time": 68410, "pitch": 67, "duration": 110, "velocity": 115}, {"time": 68520, "pitch": 62, "duration": 110, "velocity": 70}, {"time": 68520, "pitch": 67, "duration": 110, "velocity": 75}, {"time": 68530, "pitch": 58, "duration": 110, "velocity": 65}, {"time": 68640, "pitch": 58, "duration": 110, "velocity": 65}, {"time": 68640, "pitch": 62, "duration": 110, "velocity": 70}, {"time": 68650, "pitch": 67, "duration": 110, "velocity": 75}, {"time": 68760, "pitch": 62, "duration": 110, "velocity": 75}, {"time": 68760, "pitch": 67, "duration": 110, "velocity": 80}, {"time": 68770, "pitch": 58, "duration": 110, "velocity": 70}, {"time": 68880, "pitch": 58, "duration": 110, "velocity": 109}, {"time": 68880, "pitch": 62, "duration": 110, "velocity": 113}, {"time": 68890, "pitch": 67, "duration": 110, "velocity": 115}, {"time": 69000, "pitch": 62, "duration": 110, "velocity": 70}, {"time": 69000, "pitch": 67, "duration": 110, "velocity": 75}, {"time": 69010, "pitch": 58, "duration": 110, "velocity": 65}, {"time": 69120, "pitch": 58, "duration": 110, "velocity": 65}, {"time": 69120, "pitch": 62, "duration": 110, "velocity": 70}, {"time": 69130, "pitch": 67, "duration": 110, "velocity": 75}, {"time": 69240, "pitch": 58, "duration": 110, "velocity": 89}, {"time": 69240, "pitch": 62, "duration": 110, "velocity": 102}, {"time": 69250, "pitch": 67, "duration": 110, "velocity": 107}, {"time": 69360, "pitch": 58, "duration": 110, "velocity": 75}, {"time": 69360, "pitch": 62, "duration": 110, "velocity": 80}, {"time": 69370, "pitch": 67, "duration": 110, "velocity": 70}, {"time": 69480, "pitch": 62, "duration": 110, "velocity": 74}, {"time": 69480, "pitch": 67, "duration": 110, "velocity": 80}, {"time": 69490, "pitch": 58, "duration": 110, "velocity": 70}, {"time": 69600, "pitch": 60, "duration": 230, "velocity": 103}, {"time": 69600, "pitch": 64, "duration": 230, "velocity": 109}, {"time": 69610, "pitch": 67, "duration": 230, "velocity": 118}, {"time": 69840, "pitch": 60, "duration": 110, "velocity": 90}, {"time": 69840, "pitch": 64, "duration": 110, "velocity": 96}, {"time": 69850, "pitch": 67, "duration": 110, "velocity": 100}, {"time": 69960, "pitch": 64, "duration": 110, "velocity": 75}, {"time": 69960, "pitch": 67, "duration": 110, "velocity": 80}, {"time": 69970, "pitch": 60, "duration": 110, "velocity": 70}, {"time": 70080, "pitch": 60, "duration": 110, "velocity": 65}, {"time": 70080, "pitch": 64, "duration": 110, "velocity": 70}, {"time": 70090, "pitch": 67, "duration": 110, "velocity": 75}, {"time": 70200, "pitch": 64, "duration": 110, "velocity": 75}, {"time": 70200, "pitch": 67, "duration": 110, "velocity": 80}, {"time": 70210, "pitch": 60, "duration": 110, "velocity": 70}, {"time": 70320, "pitch": 60, "duration": 110, "velocity": 109}, {"time": 70320, "pitch": 64, "duration": 110, "velocity": 113}, {"time": 70330, "pitch": 67, "duration": 110, "velocity": 115}, {"time": 70440, "pitch": 64, "duration": 110, "velocity": 70}, {"time": 70440, "pitch": 67, "duration": 110, "velocity": 75}, {"time": 70450, "pitch": 60, "duration": 110, "velocity": 65}, {"time": 70560, "pitch": 60, "duration": 110, "velocity": 65}, {"time": 70560, "pitch": 64, "duration": 110, "velocity": 70}, {"time": 70570, "pitch": 67, "duration": 110, "velocity": 75}, {"time": 70680, "pitch": 64, "duration": 110, "velocity": 75}, {"time": 70680, "pitch": 67, "duration": 110, "velocity": 80}, {"time": 70690, "pitch": 60, "duration": 110, "velocity": 70}, {"time": 70800, "pitch": 60, "duration": 110, "velocity": 109}, {"time": 70800, "pitch": 64, "duration": 110, "velocity": 113}, {"time": 70810, "pitch": 67, "duration": 110, "velocity": 115}, {"time": 70920, "pitch": 64, "duration": 110, "velocity": 70}, {"time": 70920, "pitch": 67, "duration": 110, "velocity": 75}, {"time": 70930, "pitch": 60, "duration": 110, "velocity": 65}, {"time": 71040, "pitch": 60, "duration": 110, "velocity": 65}, {"time": 71040, "pitch": 64, "duration": 110, "velocity": 70}, {"time": 71050, "pitch": 67, "duration": 110, "velocity": 75}, {"time": 71160, "pitch": 60, "duration": 110, "velocity": 89}, {"time": 71160, "pitch": 64, "duration": 110, "velocity": 102}, {"time": 71170, "pitch": 67, "duration": 110, "velocity": 107}, {"time": 71280, "pitch": 60, "duration": 110, "velocity": 75}, {"time": 71280, "pitch": 64, "duration": 110, "velocity": 80}, {"time": 71290, "pitch": 67, "duration": 110, "velocity": 70}, {"time": 71400, "pitch": 64, "duration": 110, "velocity": 74}, {"time": 71400, "pitch": 67, "duration": 110, "velocity": 80}, {"time": 71410, "pitch": 60, "duration": 110, "velocity": 70}, {"time": 71520, "pitch": 60, "duration": 230, "velocity": 103}, {"time": 71520, "pitch": 63, "duration": 230, "velocity": 109}, {"time": 71530, "pitch": 67, "duration": 230, "velocity": 118}, {"time": 71760, "pitch": 60, "duration": 110, "velocity": 90}, {"time": 71760, "pitch": 63, "duration": 110, "velocity": 96}, {"time": 71770, "pitch": 67, "duration": 110, "velocity": 100}, {"time": 71880, "pitch": 63, "duration": 110, "velocity": 75}, {"time": 71880, "pitch": 67, "duration": 110, "velocity": 80}, {"time": 71890, "pitch": 60, "duration": 110, "velocity": 70}, {"time": 72000, "pitch": 60, "duration": 110, "velocity": 65}, {"time": 72000, "pitch": 63, "duration": 110, "velocity": 70}, {"time": 72010, "pitch": 67, "duration": 110, "velocity": 75}, {"time": 72120, "pitch": 63, "duration": 110, "velocity": 75}, {"time": 72120, "pitch": 67, "duration": 110, "velocity": 80}, {"time": 72130, "pitch": 60, "duration": 110, "velocity": 70}, {"time": 72240, "pitch": 60, "duration": 110, "velocity": 109}, {"time": 72240, "pitch": 63, "duration": 110, "velocity": 113}, {"time": 72250, "pitch": 67, "duration": 110, "velocity": 115}, {"time": 72360, "pitch": 63, "duration": 110, "velocity": 70}, {"time": 72360, "pitch": 67, "duration": 110, "velocity": 75}, {"time": 72370, "pitch": 60, "duration": 110, "velocity": 65}, {"time": 72480, "pitch": 57, "duration": 110, "velocity": 65}, {"time": 72480, "pitch": 60, "duration": 110, "velocity": 70}, {"time": 72490, "pitch": 65, "duration": 110, "velocity": 75}, {"time": 72600, "pitch": 60, "duration": 110, "velocity": 75}, {"time": 72600, "pitch": 65, "duration": 110, "velocity": 80}, {"time": 72610, "pitch": 57, "duration": 110, "velocity": 70}, {"time": 72720, "pitch": 57, "duration": 110, "velocity": 109}, {"time": 72720, "pitch": 60, "duration": 110, "velocity": 113}, {"time": 72730, "pitch": 65, "duration": 110, "velocity": 115}, {"time": 72840, "pitch": 60, "duration": 110, "velocity": 70}, {"time": 72840, "pitch": 65, "duration": 110, "velocity": 75}, {"time": 72850, "pitch": 57, "duration": 110, "velocity": 65}, {"time": 72960, "pitch": 57, "duration": 110, "velocity": 65}, {"time": 72960, "pitch": 60, "duration": 110, "velocity": 70}, {"time": 72970, "pitch": 65, "duration": 110, "velocity": 75}, {"time": 73080, "pitch": 57, "duration": 110, "velocity": 89}, {"time": 73080, "pitch": 60, "duration": 110, "velocity": 102}, {"time": 73090, "pitch": 65, "duration": 110, "velocity": 107}, {"time": 73200, "pitch": 57, "duration": 110, "velocity": 75}, {"time": 73200, "pitch": 60, "duration": 110, "velocity": 80}, {"time": 73210, "pitch": 65, "duration": 110, "velocity": 70}, {"time": 73320, "pitch": 60, "duration": 110, "velocity": 74}, {"time": 73320, "pitch": 65, "duration": 110, "velocity": 80}, {"time": 73330, "pitch": 57, "duration": 110, "velocity": 70}, {"time": 73440, "pitch": 60, "duration": 230, "velocity": 103}, {"time": 73440, "pitch": 64, "duration": 230, "velocity": 109}, {"time": 73450, "pitch": 67, "duration": 230, "velocity": 118}, {"time": 73680, "pitch": 60, "duration": 110, "velocity": 90}, {"time": 73680, "pitch": 64, "duration": 110, "velocity": 96}, {"time": 73690, "pitch": 67, "duration": 110, "velocity": 100}, {"time": 73800, "pitch": 64, "duration": 110, "velocity": 75}, {"time": 73800, "pitch": 67, "duration": 110, "velocity": 80}, {"time": 73810, "pitch": 60, "duration": 110, "velocity": 70}, {"time": 73920, "pitch": 60, "duration": 110, "velocity": 65}, {"time": 73920, "pitch": 64, "duration": 110, "velocity": 70}, {"time": 73930, "pitch": 67, "duration": 110, "velocity": 75}, {"time": 74040, "pitch": 64, "duration": 110, "velocity": 75}, {"time": 74040, "pitch": 67, "duration": 110, "velocity": 80}, {"time": 74050, "pitch": 60, "duration": 110, "velocity": 70}, {"time": 74160, "pitch": 60, "duration": 110, "velocity": 109}, {"time": 74160, "pitch": 64, "duration": 110, "velocity": 113}, {"time": 74170, "pitch": 67, "duration": 110, "velocity": 115}, {"time": 74280, "pitch": 64, "duration": 110, "velocity": 70}, {"time": 74280, "pitch": 67, "duration": 110, "velocity": 75}, {"time": 74290, "pitch": 60, "duration": 110, "velocity": 65}, {"time": 74400, "pitch": 60, "duration": 110, "velocity": 65}, {"time": 74400, "pitch": 64, "duration": 110, "velocity": 70}, {"time": 74410, "pitch": 67, "duration": 110, "velocity": 75}, {"time": 74520, "pitch": 64, "duration": 110, "velocity": 75}, {"time": 74520, "pitch": 67, "duration": 110, "velocity": 80}, {"time": 74530, "pitch": 60, "duration": 110, "velocity": 70}, {"time": 74640, "pitch": 60, "duration": 110, "velocity": 109}, {"time": 74640, "pitch": 64, "duration": 110, "velocity": 113}, {"time": 74650, "pitch": 67, "duration": 110, "velocity": 115}, {"time": 74760, "pitch": 64, "duration": 110, "velocity": 70}, {"time": 74760, "pitch": 67, "duration": 110, "velocity": 75}, {"time": 74770, "pitch": 60, "duration": 110, "velocity": 65}, {"time": 74880, "pitch": 60, "duration": 110, "velocity": 65}, {"time": 74880, "pitch": 64, "duration": 110, "velocity": 70}, {"time": 74890, "pitch": 67, "duration": 110, "velocity": 75}, {"time": 75000, "pitch": 60, "duration": 110, "velocity": 89}, {"time": 75000, "pitch": 64, "duration": 110, "velocity": 102}, {"time": 75010, "pitch": 67, "duration": 110, "velocity": 107}, {"time": 75120, "pitch": 60, "duration": 110, "velocity": 75}, {"time": 75120, "pitch": 64, "duration": 110, "velocity": 80}, {"time": 75130, "pitch": 67, "duration": 110, "velocity": 70}, {"time": 75240, "pitch": 64, "duration": 110, "velocity": 74}, {"time": 75240, "pitch": 67, "duration": 110, "velocity": 80}, {"time": 75250, "pitch": 60, "duration": 110, "velocity": 70}, {"time": 75360, "pitch": 58, "duration": 230, "velocity": 103}, {"time": 75360, "pitch": 62, "duration": 230, "velocity": 109}, {"time": 75370, "pitch": 67, "duration": 230, "velocity": 118}, {"time": 75600, "pitch": 58, "duration": 110, "velocity": 90}, {"time": 75600, "pitch": 62, "duration": 110, "velocity": 96}, {"time": 75610, "pitch": 67, "duration": 110, "velocity": 100}, {"time": 75720, "pitch": 62, "duration": 110, "velocity": 75}, {"time": 75720, "pitch": 67, "duration": 110, "velocity": 80}, {"time": 75730, "pitch": 58, "duration": 110, "velocity": 70}, {"time": 75840, "pitch": 58, "duration": 110, "velocity": 65}, {"time": 75840, "pitch": 62, "duration": 110, "velocity": 70}, {"time": 75850, "pitch": 67, "duration": 110, "velocity": 75}, {"time": 75960, "pitch": 62, "duration": 110, "velocity": 75}, {"time": 75960, "pitch": 67, "duration": 110, "velocity": 80}, {"time": 75970, "pitch": 58, "duration": 110, "velocity": 70}, {"time": 76080, "pitch": 58, "duration": 110, "velocity": 109}, {"time": 76080, "pitch": 62, "duration": 110, "velocity": 113}, {"time": 76090, "pitch": 67, "duration": 110, "velocity": 115}, {"time": 76200, "pitch": 62, "duration": 110, "velocity": 70}, {"time": 76200, "pitch": 67, "duration": 110, "velocity": 75}, {"time": 76210, "pitch": 58, "duration": 110, "velocity": 65}, {"time": 76320, "pitch": 58, "duration": 110, "velocity": 65}, {"time": 76320, "pitch": 62, "duration": 110, "velocity": 70}, {"time": 76330, "pitch": 67, "duration": 110, "velocity": 75}, {"time": 76440, "pitch": 62, "duration": 110, "velocity": 75}, {"time": 76440, "pitch": 67, "duration": 110, "velocity": 80}, {"time": 76450, "pitch": 58, "duration": 110, "velocity": 70}, {"time": 76560, "pitch": 58, "duration": 110, "velocity": 109}, {"time": 76560, "pitch": 62, "duration": 110, "velocity": 113}, {"time": 76570, "pitch": 67, "duration": 110, "velocity": 115}, {"time": 76680, "pitch": 62, "duration": 110, "velocity": 70}, {"time": 76680, "pitch": 67, "duration": 110, "velocity": 75}, {"time": 76690, "pitch": 58, "duration": 110, "velocity": 65}, {"time": 76800, "pitch": 58, "duration": 110, "velocity": 65}, {"time": 76800, "pitch": 62, "duration": 110, "velocity": 70}, {"time": 76810, "pitch": 67, "duration": 110, "velocity": 75}, {"time": 76920, "pitch": 58, "duration": 110, "velocity": 89}, {"time": 76920, "pitch": 62, "duration": 110, "velocity": 102}, {"time": 76930, "pitch": 67, "duration": 110, "velocity": 107}, {"time": 77040, "pitch": 58, "duration": 110, "velocity": 75}, {"time": 77040, "pitch": 62, "duration": 110, "velocity": 80}, {"time": 77050, "pitch": 67, "duration": 110, "velocity": 70}, {"time": 77160, "pitch": 62, "duration": 110, "velocity": 74}, {"time": 77160, "pitch": 67, "duration": 110, "velocity": 80}, {"time": 77170, "pitch": 58, "duration": 110, "velocity": 70}, {"time": 77280, "pitch": 60, "duration": 230, "velocity": 103}, {"time": 77280, "pitch": 64, "duration": 230, "velocity": 109}, {"time": 77290, "pitch": 67, "duration": 230, "velocity": 118}, {"time": 77520, "pitch": 60, "duration": 110, "velocity": 90}, {"time": 77520, "pitch": 64, "duration": 110, "velocity": 96}, {"time": 77530, "pitch": 67, "duration": 110, "velocity": 100}, {"time": 77640, "pitch": 64, "duration": 110, "velocity": 75}, {"time": 77640, "pitch": 67, "duration": 110, "velocity": 80}, {"time": 77650, "pitch": 60, "duration": 110, "velocity": 70}, {"time": 77760, "pitch": 60, "duration": 110, "velocity": 65}, {"time": 77760, "pitch": 64, "duration": 110, "velocity": 70}, {"time": 77770, "pitch": 67, "duration": 110, "velocity": 75}, {"time": 77880, "pitch": 64, "duration": 110, "velocity": 75}, {"time": 77880, "pitch": 67, "duration": 110, "velocity": 80}, {"time": 77890, "pitch": 60, "duration": 110, "velocity": 70}, {"time": 78000, "pitch": 60, "duration": 110, "velocity": 109}, {"time": 78000, "pitch": 64, "duration": 110, "velocity": 113}, {"time": 78010, "pitch": 67, "duration": 110, "velocity": 115}, {"time": 78120, "pitch": 64, "duration": 110, "velocity": 70}, {"time": 78120, "pitch": 67, "duration": 110, "velocity": 75}, {"time": 78130, "pitch": 60, "duration": 110, "velocity": 65}, {"time": 78240, "pitch": 60, "duration": 110, "velocity": 65}, {"time": 78240, "pitch": 64, "duration": 110, "velocity": 70}, {"time": 78250, "pitch": 67, "duration": 110, "velocity": 75}, {"time": 78360, "pitch": 64, "duration": 110, "velocity": 75}, {"time": 78360, "pitch": 67, "duration": 110, "velocity": 80}, {"time": 78370, "pitch": 60, "duration": 110, "velocity": 70}, {"time": 78480, "pitch": 60, "duration": 110, "velocity": 109}, {"time": 78480, "pitch": 64, "duration": 110, "velocity": 113}, {"time": 78490, "pitch": 67, "duration": 110, "velocity": 115}, {"time": 78600, "pitch": 64, "duration": 110, "velocity": 70}, {"time": 78600, "pitch": 67, "duration": 110, "velocity": 75}, {"time": 78610, "pitch": 60, "duration": 110, "velocity": 65}, {"time": 78720, "pitch": 60, "duration": 110, "velocity": 65}, {"time": 78720, "pitch": 64, "duration": 110, "velocity": 70}, {"time": 78730, "pitch": 67, "duration": 110, "velocity": 75}, {"time": 78840, "pitch": 60, "duration": 110, "velocity": 89}, {"time": 78840, "pitch": 64, "duration": 110, "velocity": 102}, {"time": 78850, "pitch": 67, "duration": 110, "velocity": 107}, {"time": 78960, "pitch": 60, "duration": 110, "velocity": 75}, {"time": 78960, "pitch": 64, "duration": 110, "velocity": 80}, {"time": 78970, "pitch": 67, "duration": 110, "velocity": 70}, {"time": 79080, "pitch": 64, "duration": 110, "velocity": 74}, {"time": 79080, "pitch": 67, "duration": 110, "velocity": 80}, {"time": 79090, "pitch": 60, "duration": 110, "velocity": 70}, {"time": 79200, "pitch": 60, "duration": 230, "velocity": 103}, {"time": 79200, "pitch": 63, "duration": 230, "velocity": 109}, {"time": 79210, "pitch": 67, "duration": 230, "velocity": 118}, {"time": 79440, "pitch": 60, "duration": 110, "velocity": 90}, {"time": 79440, "pitch": 63, "duration": 110, "velocity": 96}, {"time": 79450, "pitch": 67, "duration": 110, "velocity": 100}, {"time": 79560, "pitch": 63, "duration": 110, "velocity": 75}, {"time": 79560, "pitch": 67, "duration": 110, "velocity": 80}, {"time": 79570, "pitch": 60, "duration": 110, "velocity": 70}, {"time": 79680, "pitch": 60, "duration": 110, "velocity": 65}, {"time": 79680, "pitch": 63, "duration": 110, "velocity": 70}, {"time": 79690, "pitch": 67, "duration": 110, "velocity": 75}, {"time": 79800, "pitch": 63, "duration": 110, "velocity": 75}, {"time": 79800, "pitch": 67, "duration": 110, "velocity": 80}, {"time": 79810, "pitch": 60, "duration": 110, "velocity": 70}, {"time": 79920, "pitch": 60, "duration": 110, "velocity": 109}, {"time": 79920, "pitch": 63, "duration": 110, "velocity": 113}, {"time": 79930, "pitch": 67, "duration": 110, "velocity": 115}, {"time": 80040, "pitch": 63, "duration": 110, "velocity": 70}, {"time": 80040, "pitch": 67, "duration": 110, "velocity": 75}, {"time": 80050, "pitch": 60, "duration": 110, "velocity": 65}, {"time": 80160, "pitch": 57, "duration": 110, "velocity": 65}, {"time": 80160, "pitch": 60, "duration": 110, "velocity": 70}, {"time": 80170, "pitch": 65, "duration": 110, "velocity": 75}, {"time": 80280, "pitch": 60, "duration": 110, "velocity": 75}, {"time": 80280, "pitch": 65, "duration": 110, "velocity": 80}, {"time": 80290, "pitch": 57, "duration": 110, "velocity": 70}, {"time": 80400, "pitch": 57, "duration": 110, "velocity": 109}, {"time": 80400, "pitch": 60, "duration": 110, "velocity": 113}, {"time": 80410, "pitch": 65, "duration": 110, "velocity": 115}, {"time": 80520, "pitch": 60, "duration": 110, "velocity": 70}, {"time": 80520, "pitch": 65, "duration": 110, "velocity": 75}, {"time": 80530, "pitch": 57, "duration": 110, "velocity": 65}, {"time": 80640, "pitch": 57, "duration": 110, "velocity": 65}, {"time": 80640, "pitch": 60, "duration": 110, "velocity": 70}, {"time": 80650, "pitch": 65, "duration": 110, "velocity": 75}, {"time": 80760, "pitch": 57, "duration": 110, "velocity": 89}, {"time": 80760, "pitch": 60, "duration": 110, "velocity": 102}, {"time": 80770, "pitch": 65, "duration": 110, "velocity": 107}, {"time": 80880, "pitch": 57, "duration": 110, "velocity": 75}, {"time": 80880, "pitch": 60, "duration": 110, "velocity": 80}, {"time": 80890, "pitch": 65, "duration": 110, "velocity": 70}, {"time": 81000, "pitch": 60, "duration": 110, "velocity": 74}, {"time": 81000, "pitch": 65, "duration": 110, "velocity": 80}, {"time": 81010, "pitch": 57, "duration": 110, "velocity": 70}, {"time": 81120, "pitch": 64, "duration": 190, "velocity": 89}, {"time": 81120, "pitch": 67, "duration": 190, "velocity": 102}, {"time": 81120, "pitch": 72, "duration": 190, "velocity": 103}, {"time": 81360, "pitch": 64, "duration": 120, "velocity": 89}, {"time": 81360, "pitch": 67, "duration": 120, "velocity": 102}, {"time": 81360, "pitch": 72, "duration": 120, "velocity": 103}, {"time": 83040, "pitch": 64, "duration": 190, "velocity": 89}, {"time": 83040, "pitch": 67, "duration": 190, "velocity": 102}, {"time": 83040, "pitch": 72, "duration": 190, "velocity": 103}, {"time": 83280, "pitch": 64, "duration": 120, "velocity": 89}, {"time": 83280, "pitch": 67, "duration": 120, "velocity": 102}, {"time": 83280, "pitch": 72, "duration": 120, "velocity": 103}, {"time": 89040, "pitch": 60, "duration": 120, "velocity": 85}, {"time": 89040, "pitch": 64, "duration": 120, "velocity": 90}, {"time": 89050, "pitch": 67, "duration": 110, "velocity": 95}, {"time": 89400, "pitch": 64, "duration": 100, "velocity": 85}, {"time": 89400, "pitch": 67, "duration": 100, "velocity": 90}, {"time": 89410, "pitch": 60, "duration": 90, "velocity": 80}, {"time": 89760, "pitch": 60, "duration": 110, "velocity": 85}, {"time": 89760, "pitch": 64, "duration": 110, "velocity": 90}, {"time": 89770, "pitch": 67, "duration": 100, "velocity": 95}, {"time": 90120, "pitch": 64, "duration": 100, "velocity": 85}, {"time": 90120, "pitch": 67, "duration": 100, "velocity": 90}, {"time": 90130, "pitch": 60, "duration": 90, "velocity": 80}, {"time": 90480, "pitch": 60, "duration": 100, "velocity": 80}, {"time": 90480, "pitch": 64, "duration": 100, "velocity": 85}, {"time": 90490, "pitch": 67, "duration": 90, "velocity": 90}, {"time": 90960, "pitch": 58, "duration": 120, "velocity": 85}, {"time": 90960, "pitch": 62, "duration": 120, "velocity": 90}, {"time": 90970, "pitch": 67, "duration": 110, "velocity": 95}, {"time": 91320, "pitch": 62, "duration": 100, "velocity": 85}, {"time": 91320, "pitch": 67, "duration": 100, "velocity": 90}, {"time": 91330, "pitch": 58, "duration": 90, "velocity": 80}, {"time": 91680, "pitch": 58, "duration": 110, "velocity": 85}, {"time": 91680, "pitch": 62, "duration": 110, "velocity": 90}, {"time": 91690, "pitch": 67, "duration": 100, "velocity": 95}, {"time": 92040, "pitch": 62, "duration": 100, "velocity": 85}, {"time": 92040, "pitch": 67, "duration": 100, "velocity": 90}, {"time": 92050, "pitch": 58, "duration": 90, "velocity": 80}, {"time": 92400, "pitch": 58, "duration": 100, "velocity": 80}, {"time": 92400, "pitch": 62, "duration": 100, "velocity": 85}, {"time": 92410, "pitch": 67, "duration": 90, "velocity": 90}, {"time": 92880, "pitch": 60, "duration": 120, "velocity": 85}, {"time": 92880, "pitch": 64, "duration": 120, "velocity": 90}, {"time": 92890, "pitch": 67, "duration": 110, "velocity": 95}, {"time": 93240, "pitch": 60, "duration": 100, "velocity": 85}, {"time": 93240, "pitch": 65, "duration": 100, "velocity": 90}, {"time": 93250, "pitch": 57, "duration": 90, "velocity": 80}, {"time": 93600, "pitch": 57, "duration": 110, "velocity": 85}, {"time": 93600, "pitch": 60, "duration": 110, "velocity": 90}, {"time": 93610, "pitch": 65, "duration": 100, "velocity": 95}, {"time": 93960, "pitch": 60, "duration": 100, "velocity": 85}, {"time": 93960, "pitch": 65, "duration": 100, "velocity": 90}, {"time": 93970, "pitch": 57, "duration": 90, "velocity": 80}, {"time": 94320, "pitch": 57, "duration": 100, "velocity": 80}, {"time": 94320, "pitch": 60, "duration": 100, "velocity": 85}, {"time": 94330, "pitch": 65, "duration": 90, "velocity": 90}, {"time": 94800, "pitch": 60, "duration": 120, "velocity": 85}, {"time": 94800, "pitch": 63, "duration": 120, "velocity": 90}, {"time": 94810, "pitch": 67, "duration": 110, "velocity": 95}, {"time": 95160, "pitch": 63, "duration": 100, "velocity": 85}, {"time": 95160, "pitch": 67, "duration": 100, "velocity": 90}, {"time": 95170, "pitch": 60, "duration": 90, "velocity": 80}, {"time": 95520, "pitch": 56, "duration": 110, "velocity": 85}, {"time": 95520, "pitch": 60, "duration": 110, "velocity": 90}, {"time": 95530, "pitch": 65, "duration": 100, "velocity": 95}, {"time": 95880, "pitch": 60, "duration": 100, "velocity": 85}, {"time": 95880, "pitch": 65, "duration": 100, "velocity": 90}, {"time": 95890, "pitch": 56, "duration": 90, "velocity": 80}, {"time": 96240, "pitch": 56, "duration": 100, "velocity": 80}, {"time": 96240, "pitch": 60, "duration": 100, "velocity": 85}, {"time": 96250, "pitch": 65, "duration": 90, "velocity": 90}, {"time": 96720, "pitch": 60, "duration": 120, "velocity": 85}, {"time": 96720, "pitch": 64, "duration": 120, "velocity": 90}, {"time": 96730, "pitch": 67, "duration": 110, "velocity": 95}, {"time": 97080, "pitch": 64, "duration": 100, "velocity": 85}, {"time": 97080, "pitch": 67, "duration": 100, "velocity": 90}, {"time": 97090, "pitch": 60, "duration": 90, "velocity": 80}, {"time": 97440, "pitch": 60, "duration": 110, "velocity": 85}, {"time": 97440, "pitch": 64, "duration": 110, "velocity": 90}, {"time": 97450, "pitch": 67, "duration": 100, "velocity": 95}, {"time": 97800, "pitch": 64, "duration": 100, "velocity": 85}, {"time": 97800, "pitch": 67, "duration": 100, "velocity": 90}, {"time": 97810, "pitch": 60, "duration": 90, "velocity": 80}, {"time": 98160, "pitch": 60, "duration": 100, "velocity": 80}, {"time": 98160, "pitch": 64, "duration": 100, "velocity": 85}, {"time": 98170, "pitch": 67, "duration": 90, "velocity": 90}, {"time": 98640, "pitch": 58, "duration": 120, "velocity": 85}, {"time": 98640, "pitch": 62, "duration": 120, "velocity": 90}, {"time": 98650, "pitch": 67, "duration": 110, "velocity": 95}, {"time": 99000, "pitch": 62, "duration": 100, "velocity": 85}, {"time": 99000, "pitch": 67, "duration": 100, "velocity": 90}, {"time": 99010, "pitch": 58, "duration": 90, "velocity": 80}, {"time": 99360, "pitch": 58, "duration": 110, "velocity": 85}, {"time": 99360, "pitch": 62, "duration": 110, "velocity": 90}, {"time": 99370, "pitch": 67, "duration": 100, "velocity": 95}, {"time": 99720, "pitch": 62, "duration": 100, "velocity": 85}, {"time": 99720, "pitch": 67, "duration": 100, "velocity": 90}, {"time": 99730, "pitch": 58, "duration": 90, "velocity": 80}, {"time": 100080, "pitch": 58, "duration": 100, "velocity": 80}, {"time": 100080, "pitch": 62, "duration": 100, "velocity": 85}, {"time": 100090, "pitch": 67, "duration": 90, "velocity": 90}, {"time": 100560, "pitch": 60, "duration": 120, "velocity": 85}, {"time": 100560, "pitch": 64, "duration": 120, "velocity": 90}, {"time": 100570, "pitch": 67, "duration": 110, "velocity": 95}, {"time": 100920, "pitch": 64, "duration": 100, "velocity": 85}, {"time": 100920, "pitch": 67, "duration": 100, "velocity": 90}, {"time": 100930, "pitch": 60, "duration": 90, "velocity": 80}, {"time": 101280, "pitch": 60, "duration": 110, "velocity": 85}, {"time": 101280, "pitch": 64, "duration": 110, "velocity": 90}, {"time": 101290, "pitch": 67, "duration": 100, "velocity": 95}, {"time": 101640, "pitch": 64, "duration": 100, "velocity": 85}, {"time": 101640, "pitch": 67, "duration": 100, "velocity": 90}, {"time": 101650, "pitch": 60, "duration": 90, "velocity": 80}, {"time": 102000, "pitch": 60, "duration": 100, "velocity": 80}, {"time": 102000, "pitch": 64, "duration": 100, "velocity": 85}, {"time": 102010, "pitch": 67, "duration": 90, "velocity": 90}, {"time": 102480, "pitch": 59, "duration": 120, "velocity": 85}, {"time": 102480, "pitch": 63, "duration": 120, "velocity": 90}, {"time": 102490, "pitch": 67, "duration": 110, "velocity": 95}, {"time": 102840, "pitch": 63, "duration": 100, "velocity": 85}, {"time": 102840, "pitch": 67, "duration": 100, "velocity": 90}, {"time": 102850, "pitch": 59, "duration": 90, "velocity": 80}, {"time": 103200, "pitch": 61, "duration": 110, "velocity": 85}, {"time": 103200, "pitch": 64, "duration": 110, "velocity": 90}, {"time": 103210, "pitch": 67, "duration": 100, "velocity": 95}, {"time": 103560, "pitch": 64, "duration": 100, "velocity": 85}, {"time": 103560, "pitch": 67, "duration": 100, "velocity": 90}, {"time": 103570, "pitch": 61, "duration": 90, "velocity": 80}, {"time": 103920, "pitch": 61, "duration": 100, "velocity": 80}, {"time": 103920, "pitch": 64, "duration": 100, "velocity": 85}, {"time": 103930, "pitch": 67, "duration": 90, "velocity": 90}, {"time": 104160, "pitch": 57, "duration": 340, "velocity": 103}, {"time": 104160, "pitch": 60, "duration": 340, "velocity": 108}, {"time": 104170, "pitch": 65, "duration": 330, "velocity": 111}, {"time": 104520, "pitch": 57, "duration": 80, "velocity": 95}, {"time": 104520, "pitch": 60, "duration": 80, "velocity": 98}, {"time": 104520, "pitch": 65, "duration": 70, "velocity": 102}, {"time": 104760, "pitch": 57, "duration": 40, "velocity": 75}, {"time": 104760, "pitch": 60, "duration": 40, "velocity": 80}, {"time": 104760, "pitch": 65, "duration": 30, "velocity": 85}, {"time": 104880, "pitch": 57, "duration": 380, "velocity": 100}, {"time": 104880, "pitch": 60, "duration": 380, "velocity": 102}, {"time": 104890, "pitch": 65, "duration": 370, "velocity": 106}, {"time": 105360, "pitch": 57, "duration": 220, "velocity": 89}, {"time": 105360, "pitch": 60, "duration": 220, "velocity": 94}, {"time": 105370, "pitch": 65, "duration": 210, "velocity": 101}, {"time": 105600, "pitch": 57, "duration": 230, "velocity": 75}, {"time": 105600, "pitch": 60, "duration": 230, "velocity": 80}, {"time": 105610, "pitch": 65, "duration": 220, "velocity": 85}, {"time": 105840, "pitch": 57, "duration": 110, "velocity": 100}, {"time": 105840, "pitch": 60, "duration": 110, "velocity": 105}, {"time": 105850, "pitch": 65, "duration": 100, "velocity": 110}, {"time": 105960, "pitch": 60, "duration": 90, "velocity": 90}, {"time": 105960, "pitch": 65, "duration": 90, "velocity": 95}, {"time": 105970, "pitch": 57, "duration": 80, "velocity": 85}, {"time": 106080, "pitch": 56, "duration": 340, "velocity": 103}, {"time": 106080, "pitch": 60, "duration": 340, "velocity": 108}, {"time": 106090, "pitch": 65, "duration": 330, "velocity": 111}, {"time": 106440, "pitch": 56, "duration": 80, "velocity": 95}, {"time": 106440, "pitch": 60, "duration": 80, "velocity": 98}, {"time": 106440, "pitch": 65, "duration": 70, "velocity": 102}, {"time": 106680, "pitch": 56, "duration": 40, "velocity": 75}, {"time": 106680, "pitch": 60, "duration": 40, "velocity": 80}, {"time": 106680, "pitch": 65, "duration": 30, "velocity": 85}, {"time": 106800, "pitch": 56, "duration": 380, "velocity": 100}, {"time": 106800, "pitch": 60, "duration": 380, "velocity": 102}, {"time": 106810, "pitch": 65, "duration": 370, "velocity": 106}, {"time": 107280, "pitch": 56, "duration": 220, "velocity": 89}, {"time": 107280, "pitch": 60, "duration": 220, "velocity": 94}, {"time": 107290, "pitch": 65, "duration": 210, "velocity": 101}, {"time": 107520, "pitch": 56, "duration": 230, "velocity": 75}, {"time": 107520, "pitch": 60, "duration": 230, "velocity": 80}, {"time": 107530, "pitch": 65, "duration": 220, "velocity": 85}, {"time": 107760, "pitch": 56, "duration": 110, "velocity": 100}, {"time": 107760, "pitch": 60, "duration": 110, "velocity": 105}, {"time": 107770, "pitch": 65, "duration": 100, "velocity": 110}, {"time": 107880, "pitch": 60, "duration": 90, "velocity": 90}, {"time": 107880, "pitch": 65, "duration": 90, "velocity": 95}, {"time": 107890, "pitch": 56, "duration": 80, "velocity": 85}, {"time": 108000, "pitch": 59, "duration": 340, "velocity": 103}, {"time": 108000, "pitch": 62, "duration": 340, "velocity": 108}, {"time": 108010, "pitch": 67, "duration": 330, "velocity": 111}, {"time": 108360, "pitch": 59, "duration": 80, "velocity": 95}, {"time": 108360, "pitch": 62, "duration": 80, "velocity": 98}, {"time": 108360, "pitch": 67, "duration": 70, "velocity": 102}, {"time": 108600, "pitch": 59, "duration": 40, "velocity": 75}, {"time": 108600, "pitch": 62, "duration": 40, "velocity": 80}, {"time": 108600, "pitch": 67, "duration": 30, "velocity": 85}, {"time": 108720, "pitch": 59, "duration": 380, "velocity": 100}, {"time": 108720, "pitch": 62, "duration": 380, "velocity": 102}, {"time": 108730, "pitch": 67, "duration": 370, "velocity": 106}, {"time": 109200, "pitch": 59, "duration": 220, "velocity": 89}, {"time": 109200, "pitch": 62, "duration": 220, "velocity": 94}, {"time": 109210, "pitch": 67, "duration": 210, "velocity": 101}, {"time": 109440, "pitch": 59, "duration": 230, "velocity": 75}, {"time": 109440, "pitch": 62, "duration": 230, "velocity": 80}, {"time": 109450, "pitch": 67, "duration": 220, "velocity": 85}, {"time": 109680, "pitch": 59, "duration": 110, "velocity": 100}, {"time": 109680, "pitch": 62, "duration": 110, "velocity": 105}, {"time": 109690, "pitch": 67, "duration": 100, "velocity": 110}, {"time": 109800, "pitch": 62, "duration": 90, "velocity": 90}, {"time": 109800, "pitch": 67, "duration": 90, "velocity": 95}, {"time": 109810, "pitch": 59, "duration": 80, "velocity": 85}, {"time": 109920, "pitch": 57, "duration": 340, "velocity": 103}, {"time": 109920, "pitch": 61, "duration": 340, "velocity": 108}, {"time": 109930, "pitch": 65, "duration": 330, "velocity": 111}, {"time": 110280, "pitch": 57, "duration": 80, "velocity": 95}, {"time": 110280, "pitch": 61, "duration": 80, "velocity": 98}, {"time": 110280, "pitch": 65, "duration": 70, "velocity": 102}, {"time": 110520, "pitch": 57, "duration": 40, "velocity": 75}, {"time": 110520, "pitch": 61, "duration": 40, "velocity": 80}, {"time": 110520, "pitch": 65, "duration": 30, "velocity": 85}, {"time": 110640, "pitch": 57, "duration": 380, "velocity": 100}, {"time": 110640, "pitch": 61, "duration": 380, "velocity": 102}, {"time": 110650, "pitch": 65, "duration": 370, "velocity": 106}, {"time": 111120, "pitch": 57, "duration": 220, "velocity": 89}, {"time": 111120, "pitch": 61, "duration": 220, "velocity": 94}, {"time": 111130, "pitch": 64, "duration": 210, "velocity": 101}, {"time": 111360, "pitch": 57, "duration": 230, "velocity": 75}, {"time": 111360, "pitch": 61, "duration": 230, "velocity": 80}, {"time": 111370, "pitch": 64, "duration": 220, "velocity": 85}, {"time": 111600, "pitch": 57, "duration": 110, "velocity": 100}, {"time": 111600, "pitch": 61, "duration": 110, "velocity": 105}, {"time": 111610, "pitch": 64, "duration": 100, "velocity": 110}, {"time": 111720, "pitch": 61, "duration": 90, "velocity": 90}, {"time": 111720, "pitch": 64, "duration": 90, "velocity": 95}, {"time": 111730, "pitch": 57, "duration": 80, "velocity": 85}, {"time": 112080, "pitch": 60, "duration": 120, "velocity": 85}, {"time": 112080, "pitch": 65, "duration": 120, "velocity": 90}, {"time": 112090, "pitch": 69, "duration": 110, "velocity": 95}, {"time": 112440, "pitch": 64, "duration": 100, "velocity": 85}, {"time": 112440, "pitch": 67, "duration": 100, "velocity": 90}, {"time": 112450, "pitch": 60, "duration": 90, "velocity": 80}, {"time": 112800, "pitch": 60, "duration": 110, "velocity": 85}, {"time": 112800, "pitch": 64, "duration": 110, "velocity": 90}, {"time": 112810, "pitch": 67, "duration": 100, "velocity": 95}, {"time": 113160, "pitch": 64, "duration": 100, "velocity": 85}, {"time": 113160, "pitch": 67, "duration": 100, "velocity": 90}, {"time": 113170, "pitch": 60, "duration": 90, "velocity": 80}, {"time": 113520, "pitch": 60, "duration": 100, "velocity": 80}, {"time": 113520, "pitch": 64, "duration": 100, "velocity": 85}, {"time": 113530, "pitch": 67, "duration": 90, "velocity": 90}, {"time": 114000, "pitch": 60, "duration": 120, "velocity": 85}, {"time": 114000, "pitch": 63, "duration": 120, "velocity": 90}, {"time": 114010, "pitch": 66, "duration": 110, "velocity": 95}, {"time": 114360, "pitch": 64, "duration": 100, "velocity": 85}, {"time": 114360, "pitch": 67, "duration": 100, "velocity": 90}, {"time": 114370, "pitch": 60, "duration": 90, "velocity": 80}, {"time": 114720, "pitch": 60, "duration": 110, "velocity": 85}, {"time": 114720, "pitch": 64, "duration": 110, "velocity": 90}, {"time": 114730, "pitch": 67, "duration": 100, "velocity": 95}, {"time": 115080, "pitch": 64, "duration": 100, "velocity": 85}, {"time": 115080, "pitch": 67, "duration": 100, "velocity": 90}, {"time": 115090, "pitch": 60, "duration": 90, "velocity": 80}, {"time": 115440, "pitch": 60, "duration": 100, "velocity": 80}, {"time": 115440, "pitch": 64, "duration": 100, "velocity": 85}, {"time": 115450, "pitch": 67, "duration": 90, "velocity": 90}, {"time": 115680, "pitch": 65, "duration": 700, "velocity": 103}, {"time": 115680, "pitch": 69, "duration": 680, "velocity": 98}, {"time": 115680, "pitch": 72, "duration": 680, "velocity": 102}, {"time": 116400, "pitch": 65, "duration": 420, "velocity": 100}, {"time": 116400, "pitch": 69, "duration": 410, "velocity": 98}, {"time": 116400, "pitch": 72, "duration": 430, "velocity": 114}, {"time": 116880, "pitch": 65, "duration": 410, "velocity": 96}, {"time": 116880, "pitch": 69, "duration": 390, "velocity": 98}, {"time": 116880, "pitch": 72, "duration": 390, "velocity": 103}, {"time": 117360, "pitch": 65, "duration": 230, "velocity": 85}, {"time": 117360, "pitch": 69, "duration": 230, "velocity": 100}, {"time": 117360, "pitch": 72, "duration": 230, "velocity": 89}, {"time": 117600, "pitch": 62, "duration": 190, "velocity": 89}, {"time": 117600, "pitch": 67, "duration": 190, "velocity": 102}, {"time": 117600, "pitch": 71, "duration": 190, "velocity": 103}, {"time": 117840, "pitch": 62, "duration": 120, "velocity": 89}, {"time": 117840, "pitch": 67, "duration": 120, "velocity": 102}, {"time": 117840, "pitch": 71, "duration": 120, "velocity": 103}, {"time": 119520, "pitch": 60, "duration": 230, "velocity": 103}, {"time": 119520, "pitch": 64, "duration": 230, "velocity": 109}, {"time": 119530, "pitch": 67, "duration": 230, "velocity": 118}, {"time": 119760, "pitch": 60, "duration": 110, "velocity": 90}, {"time": 119760, "pitch": 64, "duration": 110, "velocity": 96}, {"time": 119770, "pitch": 67, "duration": 110, "velocity": 100}, {"time": 119880, "pitch": 64, "duration": 110, "velocity": 75}, {"time": 119880, "pitch": 67, "duration": 110, "velocity": 80}, {"time": 119890, "pitch": 60, "duration": 110, "velocity": 70}, {"time": 120000, "pitch": 60, "duration": 110, "velocity": 65}, {"time": 120000, "pitch": 64, "duration": 110, "velocity": 70}, {"time": 120010, "pitch": 67, "duration": 110, "velocity": 75}, {"time": 120120, "pitch": 64, "duration": 110, "velocity": 75}, {"time": 120120, "pitch": 67, "duration": 110, "velocity": 80}, {"time": 120130, "pitch": 60, "duration": 110, "velocity": 70}, {"time": 120240, "pitch": 60, "duration": 110, "velocity": 109}, {"time": 120240, "pitch": 64, "duration": 110, "velocity": 113}, {"time": 120250, "pitch": 67, "duration": 110, "velocity": 115}, {"time": 120360, "pitch": 64, "duration": 110, "velocity": 70}, {"time": 120360, "pitch": 67, "duration": 110, "velocity": 75}, {"time": 120370, "pitch": 60, "duration": 110, "velocity": 65}, {"time": 120480, "pitch": 60, "duration": 110, "velocity": 65}, {"time": 120480, "pitch": 64, "duration": 110, "velocity": 70}, {"time": 120490, "pitch": 67, "duration": 110, "velocity": 75}, {"time": 120600, "pitch": 64, "duration": 110, "velocity": 75}, {"time": 120600, "pitch": 67, "duration": 110, "velocity": 80}, {"time": 120610, "pitch": 60, "duration": 110, "velocity": 70}, {"time": 120720, "pitch": 60, "duration": 110, "velocity": 109}, {"time": 120720, "pitch": 64, "duration": 110, "velocity": 113}, {"time": 120730, "pitch": 67, "duration": 110, "velocity": 115}, {"time": 120840, "pitch": 64, "duration": 110, "velocity": 70}, {"time": 120840, "pitch": 67, "duration": 110, "velocity": 75}, {"time": 120850, "pitch": 60, "duration": 110, "velocity": 65}, {"time": 120960, "pitch": 60, "duration": 110, "velocity": 65}, {"time": 120960, "pitch": 64, "duration": 110, "velocity": 70}, {"time": 120970, "pitch": 67, "duration": 110, "velocity": 75}, {"time": 121080, "pitch": 60, "duration": 110, "velocity": 89}, {"time": 121080, "pitch": 64, "duration": 110, "velocity": 102}, {"time": 121090, "pitch": 67, "duration": 110, "velocity": 107}, {"time": 121200, "pitch": 60, "duration": 110, "velocity": 75}, {"time": 121200, "pitch": 64, "duration": 110, "velocity": 80}, {"time": 121210, "pitch": 67, "duration": 110, "velocity": 70}, {"time": 121320, "pitch": 64, "duration": 110, "velocity": 74}, {"time": 121320, "pitch": 67, "duration": 110, "velocity": 80}, {"time": 121330, "pitch": 60, "duration": 110, "velocity": 70}, {"time": 121440, "pitch": 58, "duration": 230, "velocity": 103}, {"time": 121440, "pitch": 62, "duration": 230, "velocity": 109}, {"time": 121450, "pitch": 67, "duration": 230, "velocity": 118}, {"time": 121680, "pitch": 58, "duration": 110, "velocity": 90}, {"time": 121680, "pitch": 62, "duration": 110, "velocity": 96}, {"time": 121690, "pitch": 67, "duration": 110, "velocity": 100}, {"time": 121800, "pitch": 62, "duration": 110, "velocity": 75}, {"time": 121800, "pitch": 67, "duration": 110, "velocity": 80}, {"time": 121810, "pitch": 58, "duration": 110, "velocity": 70}, {"time": 121920, "pitch": 58, "duration": 110, "velocity": 65}, {"time": 121920, "pitch": 62, "duration": 110, "velocity": 70}, {"time": 121930, "pitch": 67, "duration": 110, "velocity": 75}, {"time": 122040, "pitch": 62, "duration": 110, "velocity": 75}, {"time": 122040, "pitch": 67, "duration": 110, "velocity": 80}, {"time": 122050, "pitch": 58, "duration": 110, "velocity": 70}, {"time": 122160, "pitch": 58, "duration": 110, "velocity": 109}, {"time": 122160, "pitch": 62, "duration": 110, "velocity": 113}, {"time": 122170, "pitch": 67, "duration": 110, "velocity": 115}, {"time": 122280, "pitch": 62, "duration": 110, "velocity": 70}, {"time": 122280, "pitch": 67, "duration": 110, "velocity": 75}, {"time": 122290, "pitch": 58, "duration": 110, "velocity": 65}, {"time": 122400, "pitch": 58, "duration": 110, "velocity": 65}, {"time": 122400, "pitch": 62, "duration": 110, "velocity": 70}, {"time": 122410, "pitch": 67, "duration": 110, "velocity": 75}, {"time": 122520, "pitch": 62, "duration": 110, "velocity": 75}, {"time": 122520, "pitch": 67, "duration": 110, "velocity": 80}, {"time": 122530, "pitch": 58, "duration": 110, "velocity": 70}, {"time": 122640, "pitch": 58, "duration": 110, "velocity": 109}, {"time": 122640, "pitch": 62, "duration": 110, "velocity": 113}, {"time": 122650, "pitch": 67, "duration": 110, "velocity": 115}, {"time": 122760, "pitch": 62, "duration": 110, "velocity": 70}, {"time": 122760, "pitch": 67, "duration": 110, "velocity": 75}, {"time": 122770, "pitch": 58, "duration": 110, "velocity": 65}, {"time": 122880, "pitch": 58, "duration": 110, "velocity": 65}, {"time": 122880, "pitch": 62, "duration": 110, "velocity": 70}, {"time": 122890, "pitch": 67, "duration": 110, "velocity": 75}, {"time": 123000, "pitch": 58, "duration": 110, "velocity": 89}, {"time": 123000, "pitch": 62, "duration": 110, "velocity": 102}, {"time": 123010, "pitch": 67, "duration": 110, "velocity": 107}, {"time": 123120, "pitch": 58, "duration": 110, "velocity": 75}, {"time": 123120, "pitch": 62, "duration": 110, "velocity": 80}, {"time": 123130, "pitch": 67, "duration": 110, "velocity": 70}, {"time": 123240, "pitch": 62, "duration": 110, "velocity": 74}, {"time": 123240, "pitch": 67, "duration": 110, "velocity": 80}, {"time": 123250, "pitch": 58, "duration": 110, "velocity": 70}, {"time": 123360, "pitch": 60, "duration": 230, "velocity": 103}, {"time": 123360, "pitch": 64, "duration": 230, "velocity": 109}, {"time": 123370, "pitch": 67, "duration": 230, "velocity": 118}, {"time": 123600, "pitch": 60, "duration": 110, "velocity": 90}, {"time": 123600, "pitch": 64, "duration": 110, "velocity": 96}, {"time": 123610, "pitch": 67, "duration": 110, "velocity": 100}, {"time": 123720, "pitch": 64, "duration": 110, "velocity": 75}, {"time": 123720, "pitch": 67, "duration": 110, "velocity": 80}, {"time": 123730, "pitch": 60, "duration": 110, "velocity": 70}, {"time": 123840, "pitch": 60, "duration": 110, "velocity": 65}, {"time": 123840, "pitch": 64, "duration": 110, "velocity": 70}, {"time": 123850, "pitch": 67, "duration": 110, "velocity": 75}, {"time": 123960, "pitch": 64, "duration": 110, "velocity": 75}, {"time": 123960, "pitch": 67, "duration": 110, "velocity": 80}, {"time": 123970, "pitch": 60, "duration": 110, "velocity": 70}, {"time": 124080, "pitch": 60, "duration": 110, "velocity": 109}, {"time": 124080, "pitch": 64, "duration": 110, "velocity": 113}, {"time": 124090, "pitch": 67, "duration": 110, "velocity": 115}, {"time": 124200, "pitch": 64, "duration": 110, "velocity": 70}, {"time": 124200, "pitch": 67, "duration": 110, "velocity": 75}, {"time": 124210, "pitch": 60, "duration": 110, "velocity": 65}, {"time": 124320, "pitch": 60, "duration": 110, "velocity": 65}, {"time": 124320, "pitch": 64, "duration": 110, "velocity": 70}, {"time": 124330, "pitch": 67, "duration": 110, "velocity": 75}, {"time": 124440, "pitch": 64, "duration": 110, "velocity": 75}, {"time": 124440, "pitch": 67, "duration": 110, "velocity": 80}, {"time": 124450, "pitch": 60, "duration": 110, "velocity": 70}, {"time": 124560, "pitch": 60, "duration": 110, "velocity": 109}, {"time": 124560, "pitch": 64, "duration": 110, "velocity": 113}, {"time": 124570, "pitch": 67, "duration": 110, "velocity": 115}, {"time": 124680, "pitch": 64, "duration": 110, "velocity": 70}, {"time": 124680, "pitch": 67, "duration": 110, "velocity": 75}, {"time": 124690, "pitch": 60, "duration": 110, "velocity": 65}, {"time": 124800, "pitch": 60, "duration": 110, "velocity": 65}, {"time": 124800, "pitch": 64, "duration": 110, "velocity": 70}, {"time": 124810, "pitch": 67, "duration": 110, "velocity": 75}, {"time": 124920, "pitch": 60, "duration": 110, "velocity": 89}, {"time": 124920, "pitch": 64, "duration": 110, "velocity": 102}, {"time": 124930, "pitch": 67, "duration": 110, "velocity": 107}, {"time": 125040, "pitch": 60, "duration": 110, "velocity": 75}, {"time": 125040, "pitch": 64, "duration": 110, "velocity": 80}, {"time": 125050, "pitch": 67, "duration": 110, "velocity": 70}, {"time": 125160, "pitch": 64, "duration": 110, "velocity": 74}, {"time": 125160, "pitch": 67, "duration": 110, "velocity": 80}, {"time": 125170, "pitch": 60, "duration": 110, "velocity": 70}, {"time": 125280, "pitch": 60, "duration": 230, "velocity": 103}, {"time": 125280, "pitch": 63, "duration": 230, "velocity": 109}, {"time": 125290, "pitch": 67, "duration": 230, "velocity": 118}, {"time": 125520, "pitch": 60, "duration": 110, "velocity": 90}, {"time": 125520, "pitch": 63, "duration": 110, "velocity": 96}, {"time": 125530, "pitch": 67, "duration": 110, "velocity": 100}, {"time": 125640, "pitch": 63, "duration": 110, "velocity": 75}, {"time": 125640, "pitch": 67, "duration": 110, "velocity": 80}, {"time": 125650, "pitch": 60, "duration": 110, "velocity": 70}, {"time": 125760, "pitch": 60, "duration": 110, "velocity": 65}, {"time": 125760, "pitch": 63, "duration": 110, "velocity": 70}, {"time": 125770, "pitch": 67, "duration": 110, "velocity": 75}, {"time": 125880, "pitch": 63, "duration": 110, "velocity": 75}, {"time": 125880, "pitch": 67, "duration": 110, "velocity": 80}, {"time": 125890, "pitch": 60, "duration": 110, "velocity": 70}, {"time": 126000, "pitch": 60, "duration": 110, "velocity": 109}, {"time": 126000, "pitch": 63, "duration": 110, "velocity": 113}, {"time": 126010, "pitch": 67, "duration": 110, "velocity": 115}, {"time": 126120, "pitch": 63, "duration": 110, "velocity": 70}, {"time": 126120, "pitch": 67, "duration": 110, "velocity": 75}, {"time": 126130, "pitch": 60, "duration": 110, "velocity": 65}, {"time": 126240, "pitch": 57, "duration": 110, "velocity": 65}, {"time": 126240, "pitch": 60, "duration": 110, "velocity": 70}, {"time": 126250, "pitch": 65, "duration": 110, "velocity": 75}, {"time": 126360, "pitch": 60, "duration": 110, "velocity": 75}, {"time": 126360, "pitch": 65, "duration": 110, "velocity": 80}, {"time": 126370, "pitch": 57, "duration": 110, "velocity": 70}, {"time": 126480, "pitch": 57, "duration": 110, "velocity": 109}, {"time": 126480, "pitch": 60, "duration": 110, "velocity": 113}, {"time": 126490, "pitch": 65, "duration": 110, "velocity": 115}, {"time": 126600, "pitch": 60, "duration": 110, "velocity": 70}, {"time": 126600, "pitch": 65, "duration": 110, "velocity": 75}, {"time": 126610, "pitch": 57, "duration": 110, "velocity": 65}, {"time": 126720, "pitch": 57, "duration": 110, "velocity": 65}, {"time": 126720, "pitch": 60, "duration": 110, "velocity": 70}, {"time": 126730, "pitch": 65, "duration": 110, "velocity": 75}, {"time": 126840, "pitch": 57, "duration": 110, "velocity": 89}, {"time": 126840, "pitch": 60, "duration": 110, "velocity": 102}, {"time": 126850, "pitch": 65, "duration": 110, "velocity": 107}, {"time": 126960, "pitch": 57, "duration": 110, "velocity": 75}, {"time": 126960, "pitch": 60, "duration": 110, "velocity": 80}, {"time": 126970, "pitch": 65, "duration": 110, "velocity": 70}, {"time": 127080, "pitch": 60, "duration": 110, "velocity": 74}, {"time": 127080, "pitch": 65, "duration": 110, "velocity": 80}, {"time": 127090, "pitch": 57, "duration": 110, "velocity": 70}, {"time": 127200, "pitch": 60, "duration": 230, "velocity": 103}, {"time": 127200, "pitch": 64, "duration": 230, "velocity": 109}, {"time": 127210, "pitch": 67, "duration": 230, "velocity": 118}, {"time": 127440, "pitch": 60, "duration": 110, "velocity": 90}, {"time": 127440, "pitch": 64, "duration": 110, "velocity": 96}, {"time": 127450, "pitch": 67, "duration": 110, "velocity": 100}, {"time": 127560, "pitch": 64, "duration": 110, "velocity": 75}, {"time": 127560, "pitch": 67, "duration": 110, "velocity": 80}, {"time": 127570, "pitch": 60, "duration": 110, "velocity": 70}, {"time": 127680, "pitch": 60, "duration": 110, "velocity": 65}, {"time": 127680, "pitch": 64, "duration": 110, "velocity": 70}, {"time": 127690, "pitch": 67, "duration": 110, "velocity": 75}, {"time": 127800, "pitch": 64, "duration": 110, "velocity": 75}, {"time": 127800, "pitch": 67, "duration": 110, "velocity": 80}, {"time": 127810, "pitch": 60, "duration": 110, "velocity": 70}, {"time": 127920, "pitch": 60, "duration": 110, "velocity": 109}, {"time": 127920, "pitch": 64, "duration": 110, "velocity": 113}, {"time": 127930, "pitch": 67, "duration": 110, "velocity": 115}, {"time": 128040, "pitch": 64, "duration": 110, "velocity": 70}, {"time": 128040, "pitch": 67, "duration": 110, "velocity": 75}, {"time": 128050, "pitch": 60, "duration": 110, "velocity": 65}, {"time": 128160, "pitch": 60, "duration": 110, "velocity": 65}, {"time": 128160, "pitch": 64, "duration": 110, "velocity": 70}, {"time": 128170, "pitch": 67, "duration": 110, "velocity": 75}, {"time": 128280, "pitch": 64, "duration": 110, "velocity": 75}, {"time": 128280, "pitch": 67, "duration": 110, "velocity": 80}, {"time": 128290, "pitch": 60, "duration": 110, "velocity": 70}, {"time": 128400, "pitch": 60, "duration": 110, "velocity": 109}, {"time": 128400, "pitch": 64, "duration": 110, "velocity": 113}, {"time": 128410, "pitch": 67, "duration": 110, "velocity": 115}, {"time": 128520, "pitch": 64, "duration": 110, "velocity": 70}, {"time": 128520, "pitch": 67, "duration": 110, "velocity": 75}, {"time": 128530, "pitch": 60, "duration": 110, "velocity": 65}, {"time": 128640, "pitch": 60, "duration": 110, "velocity": 65}, {"time": 128640, "pitch": 64, "duration": 110, "velocity": 70}, {"time": 128650, "pitch": 67, "duration": 110, "velocity": 75}, {"time": 128760, "pitch": 60, "duration": 110, "velocity": 89}, {"time": 128760, "pitch": 64, "duration": 110, "velocity": 102}, {"time": 128770, "pitch": 67, "duration": 110, "velocity": 107}, {"time": 128880, "pitch": 60, "duration": 110, "velocity": 75}, {"time": 128880, "pitch": 64, "duration": 110, "velocity": 80}, {"time": 128890, "pitch": 67, "duration": 110, "velocity": 70}, {"time": 129000, "pitch": 64, "duration": 110, "velocity": 74}, {"time": 129000, "pitch": 67, "duration": 110, "velocity": 80}, {"time": 129010, "pitch": 60, "duration": 110, "velocity": 70}, {"time": 129120, "pitch": 58, "duration": 230, "velocity": 103}, {"time": 129120, "pitch": 62, "duration": 230, "velocity": 109}, {"time": 129130, "pitch": 67, "duration": 230, "velocity": 118}, {"time": 129360, "pitch": 58, "duration": 110, "velocity": 90}, {"time": 129360, "pitch": 62, "duration": 110, "velocity": 96}, {"time": 129370, "pitch": 67, "duration": 110, "velocity": 100}, {"time": 129480, "pitch": 62, "duration": 110, "velocity": 75}, {"time": 129480, "pitch": 67, "duration": 110, "velocity": 80}, {"time": 129490, "pitch": 58, "duration": 110, "velocity": 70}, {"time": 129600, "pitch": 58, "duration": 110, "velocity": 65}, {"time": 129600, "pitch": 62, "duration": 110, "velocity": 70}, {"time": 129610, "pitch": 67, "duration": 110, "velocity": 75}, {"time": 129720, "pitch": 62, "duration": 110, "velocity": 75}, {"time": 129720, "pitch": 67, "duration": 110, "velocity": 80}, {"time": 129730, "pitch": 58, "duration": 110, "velocity": 70}, {"time": 129840, "pitch": 58, "duration": 110, "velocity": 109}, {"time": 129840, "pitch": 62, "duration": 110, "velocity": 113}, {"time": 129850, "pitch": 67, "duration": 110, "velocity": 115}, {"time": 129960, "pitch": 62, "duration": 110, "velocity": 70}, {"time": 129960, "pitch": 67, "duration": 110, "velocity": 75}, {"time": 129970, "pitch": 58, "duration": 110, "velocity": 65}, {"time": 130080, "pitch": 58, "duration": 110, "velocity": 65}, {"time": 130080, "pitch": 62, "duration": 110, "velocity": 70}, {"time": 130090, "pitch": 67, "duration": 110, "velocity": 75}, {"time": 130200, "pitch": 62, "duration": 110, "velocity": 75}, {"time": 130200, "pitch": 67, "duration": 110, "velocity": 80}, {"time": 130210, "pitch": 58, "duration": 110, "velocity": 70}, {"time": 130320, "pitch": 58, "duration": 110, "velocity": 109}, {"time": 130320, "pitch": 62, "duration": 110, "velocity": 113}, {"time": 130330, "pitch": 67, "duration": 110, "velocity": 115}, {"time": 130440, "pitch": 62, "duration": 110, "velocity": 70}, {"time": 130440, "pitch": 67, "duration": 110, "velocity": 75}, {"time": 130450, "pitch": 58, "duration": 110, "velocity": 65}, {"time": 130560, "pitch": 58, "duration": 110, "velocity": 65}, {"time": 130560, "pitch": 62, "duration": 110, "velocity": 70}, {"time": 130570, "pitch": 67, "duration": 110, "velocity": 75}, {"time": 130680, "pitch": 58, "duration": 110, "velocity": 89}, {"time": 130680, "pitch": 62, "duration": 110, "velocity": 102}, {"time": 130690, "pitch": 67, "duration": 110, "velocity": 107}, {"time": 130800, "pitch": 58, "duration": 110, "velocity": 75}, {"time": 130800, "pitch": 62, "duration": 110, "velocity": 80}, {"time": 130810, "pitch": 67, "duration": 110, "velocity": 70}, {"time": 130920, "pitch": 62, "duration": 110, "velocity": 74}, {"time": 130920, "pitch": 67, "duration": 110, "velocity": 80}, {"time": 130930, "pitch": 58, "duration": 110, "velocity": 70}, {"time": 131040, "pitch": 60, "duration": 230, "velocity": 103}, {"time": 131040, "pitch": 64, "duration": 230, "velocity": 109}, {"time": 131050, "pitch": 67, "duration": 230, "velocity": 118}, {"time": 131280, "pitch": 60, "duration": 110, "velocity": 90}, {"time": 131280, "pitch": 64, "duration": 110, "velocity": 96}, {"time": 131290, "pitch": 67, "duration": 110, "velocity": 100}, {"time": 131400, "pitch": 64, "duration": 110, "velocity": 75}, {"time": 131400, "pitch": 67, "duration": 110, "velocity": 80}, {"time": 131410, "pitch": 60, "duration": 110, "velocity": 70}, {"time": 131520, "pitch": 60, "duration": 110, "velocity": 65}, {"time": 131520, "pitch": 64, "duration": 110, "velocity": 70}, {"time": 131530, "pitch": 67, "duration": 110, "velocity": 75}, {"time": 131640, "pitch": 64, "duration": 110, "velocity": 75}, {"time": 131640, "pitch": 67, "duration": 110, "velocity": 80}, {"time": 131650, "pitch": 60, "duration": 110, "velocity": 70}, {"time": 131760, "pitch": 60, "duration": 110, "velocity": 109}, {"time": 131760, "pitch": 64, "duration": 110, "velocity": 113}, {"time": 131770, "pitch": 67, "duration": 110, "velocity": 115}, {"time": 131880, "pitch": 64, "duration": 110, "velocity": 70}, {"time": 131880, "pitch": 67, "duration": 110, "velocity": 75}, {"time": 131890, "pitch": 60, "duration": 110, "velocity": 65}, {"time": 132000, "pitch": 60, "duration": 110, "velocity": 65}, {"time": 132000, "pitch": 64, "duration": 110, "velocity": 70}, {"time": 132010, "pitch": 67, "duration": 110, "velocity": 75}, {"time": 132120, "pitch": 64, "duration": 110, "velocity": 75}, {"time": 132120, "pitch": 67, "duration": 110, "velocity": 80}, {"time": 132130, "pitch": 60, "duration": 110, "velocity": 70}, {"time": 132240, "pitch": 60, "duration": 110, "velocity": 109}, {"time": 132240, "pitch": 64, "duration": 110, "velocity": 113}, {"time": 132250, "pitch": 67, "duration": 110, "velocity": 115}, {"time": 132360, "pitch": 64, "duration": 110, "velocity": 70}, {"time": 132360, "pitch": 67, "duration": 110, "velocity": 75}, {"time": 132370, "pitch": 60, "duration": 110, "velocity": 65}, {"time": 132480, "pitch": 60, "duration": 110, "velocity": 65}, {"time": 132480, "pitch": 64, "duration": 110, "velocity": 70}, {"time": 132490, "pitch": 67, "duration": 110, "velocity": 75}, {"time": 132600, "pitch": 60, "duration": 110, "velocity": 89}, {"time": 132600, "pitch": 64, "duration": 110, "velocity": 102}, {"time": 132610, "pitch": 67, "duration": 110, "velocity": 107}, {"time": 132720, "pitch": 60, "duration": 110, "velocity": 75}, {"time": 132720, "pitch": 64, "duration": 110, "velocity": 80}, {"time": 132730, "pitch": 67, "duration": 110, "velocity": 70}, {"time": 132840, "pitch": 64, "duration": 110, "velocity": 74}, {"time": 132840, "pitch": 67, "duration": 110, "velocity": 80}, {"time": 132850, "pitch": 60, "duration": 110, "velocity": 70}, {"time": 132960, "pitch": 60, "duration": 230, "velocity": 103}, {"time": 132960, "pitch": 63, "duration": 230, "velocity": 109}, {"time": 132970, "pitch": 67, "duration": 230, "velocity": 118}, {"time": 133200, "pitch": 60, "duration": 110, "velocity": 90}, {"time": 133200, "pitch": 63, "duration": 110, "velocity": 96}, {"time": 133210, "pitch": 67, "duration": 110, "velocity": 100}, {"time": 133320, "pitch": 63, "duration": 110, "velocity": 75}, {"time": 133320, "pitch": 67, "duration": 110, "velocity": 80}, {"time": 133330, "pitch": 60, "duration": 110, "velocity": 70}, {"time": 133440, "pitch": 60, "duration": 110, "velocity": 65}, {"time": 133440, "pitch": 63, "duration": 110, "velocity": 70}, {"time": 133450, "pitch": 67, "duration": 110, "velocity": 75}, {"time": 133560, "pitch": 63, "duration": 110, "velocity": 75}, {"time": 133560, "pitch": 67, "duration": 110, "velocity": 80}, {"time": 133570, "pitch": 60, "duration": 110, "velocity": 70}, {"time": 133680, "pitch": 60, "duration": 110, "velocity": 109}, {"time": 133680, "pitch": 63, "duration": 110, "velocity": 113}, {"time": 133690, "pitch": 67, "duration": 110, "velocity": 115}, {"time": 133800, "pitch": 63, "duration": 110, "velocity": 70}, {"time": 133800, "pitch": 67, "duration": 110, "velocity": 75}, {"time": 133810, "pitch": 60, "duration": 110, "velocity": 65}, {"time": 133920, "pitch": 57, "duration": 110, "velocity": 65}, {"time": 133920, "pitch": 60, "duration": 110, "velocity": 70}, {"time": 133930, "pitch": 65, "duration": 110, "velocity": 75}, {"time": 134040, "pitch": 60, "duration": 110, "velocity": 75}, {"time": 134040, "pitch": 65, "duration": 110, "velocity": 80}, {"time": 134050, "pitch": 57, "duration": 110, "velocity": 70}, {"time": 134160, "pitch": 57, "duration": 110, "velocity": 109}, {"time": 134160, "pitch": 60, "duration": 110, "velocity": 113}, {"time": 134170, "pitch": 65, "duration": 110, "velocity": 115}, {"time": 134280, "pitch": 60, "duration": 110, "velocity": 70}, {"time": 134280, "pitch": 65, "duration": 110, "velocity": 75}, {"time": 134290, "pitch": 57, "duration": 110, "velocity": 65}, {"time": 134400, "pitch": 57, "duration": 110, "velocity": 65}, {"time": 134400, "pitch": 60, "duration": 110, "velocity": 70}, {"time": 134410, "pitch": 65, "duration": 110, "velocity": 75}, {"time": 134520, "pitch": 57, "duration": 110, "velocity": 89}, {"time": 134520, "pitch": 60, "duration": 110, "velocity": 102}, {"time": 134530, "pitch": 65, "duration": 110, "velocity": 107}, {"time": 134640, "pitch": 57, "duration": 110, "velocity": 75}, {"time": 134640, "pitch": 60, "duration": 110, "velocity": 80}, {"time": 134650, "pitch": 65, "duration": 110, "velocity": 70}, {"time": 134760, "pitch": 60, "duration": 110, "velocity": 74}, {"time": 134760, "pitch": 65, "duration": 110, "velocity": 80}, {"time": 134770, "pitch": 57, "duration": 110, "velocity": 70}, {"time": 134880, "pitch": 60, "duration": 230, "velocity": 103}, {"time": 134880, "pitch": 64, "duration": 230, "velocity": 109}, {"time": 134890, "pitch": 67, "duration": 230, "velocity": 118}, {"time": 135120, "pitch": 60, "duration": 110, "velocity": 90}, {"time": 135120, "pitch": 64, "duration": 110, "velocity": 96}, {"time": 135130, "pitch": 67, "duration": 110, "velocity": 100}, {"time": 135240, "pitch": 64, "duration": 110, "velocity": 75}, {"time": 135240, "pitch": 67, "duration": 110, "velocity": 80}, {"time": 135250, "pitch": 60, "duration": 110, "velocity": 70}, {"time": 135360, "pitch": 60, "duration": 110, "velocity": 65}, {"time": 135360, "pitch": 64, "duration": 110, "velocity": 70}, {"time": 135370, "pitch": 67, "duration": 110, "velocity": 75}, {"time": 135480, "pitch": 64, "duration": 110, "velocity": 75}, {"time": 135480, "pitch": 67, "duration": 110, "velocity": 80}, {"time": 135490, "pitch": 60, "duration": 110, "velocity": 70}, {"time": 135600, "pitch": 60, "duration": 110, "velocity": 109}, {"time": 135600, "pitch": 64, "duration": 110, "velocity": 113}, {"time": 135610, "pitch": 67, "duration": 110, "velocity": 115}, {"time": 135720, "pitch": 64, "duration": 110, "velocity": 70}, {"time": 135720, "pitch": 67, "duration": 110, "velocity": 75}, {"time": 135730, "pitch": 60, "duration": 110, "velocity": 65}, {"time": 135840, "pitch": 60, "duration": 110, "velocity": 65}, {"time": 135840, "pitch": 64, "duration": 110, "velocity": 70}, {"time": 135850, "pitch": 67, "duration": 110, "velocity": 75}, {"time": 135960, "pitch": 64, "duration": 110, "velocity": 75}, {"time": 135960, "pitch": 67, "duration": 110, "velocity": 80}, {"time": 135970, "pitch": 60, "duration": 110, "velocity": 70}, {"time": 136080, "pitch": 60, "duration": 110, "velocity": 109}, {"time": 136080, "pitch": 64, "duration": 110, "velocity": 113}, {"time": 136090, "pitch": 67, "duration": 110, "velocity": 115}, {"time": 136200, "pitch": 64, "duration": 110, "velocity": 70}, {"time": 136200, "pitch": 67, "duration": 110, "velocity": 75}, {"time": 136210, "pitch": 60, "duration": 110, "velocity": 65}, {"time": 136320, "pitch": 60, "duration": 110, "velocity": 65}, {"time": 136320, "pitch": 64, "duration": 110, "velocity": 70}, {"time": 136330, "pitch": 67, "duration": 110, "velocity": 75}, {"time": 136440, "pitch": 60, "duration": 110, "velocity": 89}, {"time": 136440, "pitch": 64, "duration": 110, "velocity": 102}, {"time": 136450, "pitch": 67, "duration": 110, "velocity": 107}, {"time": 136560, "pitch": 60, "duration": 110, "velocity": 75}, {"time": 136560, "pitch": 64, "duration": 110, "velocity": 80}, {"time": 136570, "pitch": 67, "duration": 110, "velocity": 70}, {"time": 136680, "pitch": 64, "duration": 110, "velocity": 74}, {"time": 136680, "pitch": 67, "duration": 110, "velocity": 80}, {"time": 136690, "pitch": 60, "duration": 110, "velocity": 70}, {"time": 136800, "pitch": 58, "duration": 230, "velocity": 103}, {"time": 136800, "pitch": 62, "duration": 230, "velocity": 109}, {"time": 136810, "pitch": 67, "duration": 230, "velocity": 118}, {"time": 137040, "pitch": 58, "duration": 110, "velocity": 90}, {"time": 137040, "pitch": 62, "duration": 110, "velocity": 96}, {"time": 137050, "pitch": 67, "duration": 110, "velocity": 100}, {"time": 137160, "pitch": 62, "duration": 110, "velocity": 75}, {"time": 137160, "pitch": 67, "duration": 110, "velocity": 80}, {"time": 137170, "pitch": 58, "duration": 110, "velocity": 70}, {"time": 137280, "pitch": 58, "duration": 110, "velocity": 65}, {"time": 137280, "pitch": 62, "duration": 110, "velocity": 70}, {"time": 137290, "pitch": 67, "duration": 110, "velocity": 75}, {"time": 137400, "pitch": 62, "duration": 110, "velocity": 75}, {"time": 137400, "pitch": 67, "duration": 110, "velocity": 80}, {"time": 137410, "pitch": 58, "duration": 110, "velocity": 70}, {"time": 137520, "pitch": 58, "duration": 110, "velocity": 109}, {"time": 137520, "pitch": 62, "duration": 110, "velocity": 113}, {"time": 137530, "pitch": 67, "duration": 110, "velocity": 115}, {"time": 137640, "pitch": 62, "duration": 110, "velocity": 70}, {"time": 137640, "pitch": 67, "duration": 110, "velocity": 75}, {"time": 137650, "pitch": 58, "duration": 110, "velocity": 65}, {"time": 137760, "pitch": 58, "duration": 110, "velocity": 65}, {"time": 137760, "pitch": 62, "duration": 110, "velocity": 70}, {"time": 137770, "pitch": 67, "duration": 110, "velocity": 75}, {"time": 137880, "pitch": 62, "duration": 110, "velocity": 75}, {"time": 137880, "pitch": 67, "duration": 110, "velocity": 80}, {"time": 137890, "pitch": 58, "duration": 110, "velocity": 70}, {"time": 138000, "pitch": 58, "duration": 110, "velocity": 109}, {"time": 138000, "pitch": 62, "duration": 110, "velocity": 113}, {"time": 138010, "pitch": 67, "duration": 110, "velocity": 115}, {"time": 138120, "pitch": 62, "duration": 110, "velocity": 70}, {"time": 138120, "pitch": 67, "duration": 110, "velocity": 75}, {"time": 138130, "pitch": 58, "duration": 110, "velocity": 65}, {"time": 138240, "pitch": 58, "duration": 110, "velocity": 65}, {"time": 138240, "pitch": 62, "duration": 110, "velocity": 70}, {"time": 138250, "pitch": 67, "duration": 110, "velocity": 75}, {"time": 138360, "pitch": 58, "duration": 110, "velocity": 89}, {"time": 138360, "pitch": 62, "duration": 110, "velocity": 102}, {"time": 138370, "pitch": 67, "duration": 110, "velocity": 107}, {"time": 138480, "pitch": 58, "duration": 110, "velocity": 75}, {"time": 138480, "pitch": 62, "duration": 110, "velocity": 80}, {"time": 138490, "pitch": 67, "duration": 110, "velocity": 70}, {"time": 138600, "pitch": 62, "duration": 110, "velocity": 74}, {"time": 138600, "pitch": 67, "duration": 110, "velocity": 80}, {"time": 138610, "pitch": 58, "duration": 110, "velocity": 70}, {"time": 138720, "pitch": 60, "duration": 230, "velocity": 103}, {"time": 138720, "pitch": 64, "duration": 230, "velocity": 109}, {"time": 138730, "pitch": 67, "duration": 230, "velocity": 118}, {"time": 138960, "pitch": 60, "duration": 110, "velocity": 90}, {"time": 138960, "pitch": 64, "duration": 110, "velocity": 96}, {"time": 138970, "pitch": 67, "duration": 110, "velocity": 100}, {"time": 139080, "pitch": 64, "duration": 110, "velocity": 75}, {"time": 139080, "pitch": 67, "duration": 110, "velocity": 80}, {"time": 139090, "pitch": 60, "duration": 110, "velocity": 70}, {"time": 139200, "pitch": 60, "duration": 110, "velocity": 65}, {"time": 139200, "pitch": 64, "duration": 110, "velocity": 70}, {"time": 139210, "pitch": 67, "duration": 110, "velocity": 75}, {"time": 139320, "pitch": 64, "duration": 110, "velocity": 75}, {"time": 139320, "pitch": 67, "duration": 110, "velocity": 80}, {"time": 139330, "pitch": 60, "duration": 110, "velocity": 70}, {"time": 139440, "pitch": 60, "duration": 110, "velocity": 109}, {"time": 139440, "pitch": 64, "duration": 110, "velocity": 113}, {"time": 139450, "pitch": 67, "duration": 110, "velocity": 115}, {"time": 139560, "pitch": 64, "duration": 110, "velocity": 70}, {"time": 139560, "pitch": 67, "duration": 110, "velocity": 75}, {"time": 139570, "pitch": 60, "duration": 110, "velocity": 65}, {"time": 139680, "pitch": 60, "duration": 110, "velocity": 65}, {"time": 139680, "pitch": 64, "duration": 110, "velocity": 70}, {"time": 139690, "pitch": 67, "duration": 110, "velocity": 75}, {"time": 139800, "pitch": 64, "duration": 110, "velocity": 75}, {"time": 139800, "pitch": 67, "duration": 110, "velocity": 80}, {"time": 139810, "pitch": 60, "duration": 110, "velocity": 70}, {"time": 139920, "pitch": 60, "duration": 110, "velocity": 109}, {"time": 139920, "pitch": 64, "duration": 110, "velocity": 113}, {"time": 139930, "pitch": 67, "duration": 110, "velocity": 115}, {"time": 140040, "pitch": 64, "duration": 110, "velocity": 70}, {"time": 140040, "pitch": 67, "duration": 110, "velocity": 75}, {"time": 140050, "pitch": 60, "duration": 110, "velocity": 65}, {"time": 140160, "pitch": 60, "duration": 110, "velocity": 65}, {"time": 140160, "pitch": 64, "duration": 110, "velocity": 70}, {"time": 140170, "pitch": 67, "duration": 110, "velocity": 75}, {"time": 140280, "pitch": 60, "duration": 110, "velocity": 89}, {"time": 140280, "pitch": 64, "duration": 110, "velocity": 102}, {"time": 140290, "pitch": 67, "duration": 110, "velocity": 107}, {"time": 140400, "pitch": 60, "duration": 110, "velocity": 75}, {"time": 140400, "pitch": 64, "duration": 110, "velocity": 80}, {"time": 140410, "pitch": 67, "duration": 110, "velocity": 70}, {"time": 140520, "pitch": 64, "duration": 110, "velocity": 74}, {"time": 140520, "pitch": 67, "duration": 110, "velocity": 80}, {"time": 140530, "pitch": 60, "duration": 110, "velocity": 70}, {"time": 140640, "pitch": 60, "duration": 230, "velocity": 103}, {"time": 140640, "pitch": 63, "duration": 230, "velocity": 109}, {"time": 140650, "pitch": 67, "duration": 230, "velocity": 118}, {"time": 140880, "pitch": 60, "duration": 110, "velocity": 90}, {"time": 140880, "pitch": 63, "duration": 110, "velocity": 96}, {"time": 140890, "pitch": 67, "duration": 110, "velocity": 100}, {"time": 141000, "pitch": 63, "duration": 110, "velocity": 75}, {"time": 141000, "pitch": 67, "duration": 110, "velocity": 80}, {"time": 141010, "pitch": 60, "duration": 110, "velocity": 70}, {"time": 141120, "pitch": 60, "duration": 110, "velocity": 65}, {"time": 141120, "pitch": 63, "duration": 110, "velocity": 70}, {"time": 141130, "pitch": 67, "duration": 110, "velocity": 75}, {"time": 141240, "pitch": 63, "duration": 110, "velocity": 75}, {"time": 141240, "pitch": 67, "duration": 110, "velocity": 80}, {"time": 141250, "pitch": 60, "duration": 110, "velocity": 70}, {"time": 141360, "pitch": 60, "duration": 110, "velocity": 109}, {"time": 141360, "pitch": 63, "duration": 110, "velocity": 113}, {"time": 141370, "pitch": 67, "duration": 110, "velocity": 115}, {"time": 141480, "pitch": 63, "duration": 110, "velocity": 70}, {"time": 141480, "pitch": 67, "duration": 110, "velocity": 75}, {"time": 141490, "pitch": 60, "duration": 110, "velocity": 65}, {"time": 141600, "pitch": 57, "duration": 110, "velocity": 65}, {"time": 141600, "pitch": 60, "duration": 110, "velocity": 70}, {"time": 141610, "pitch": 65, "duration": 110, "velocity": 75}, {"time": 141720, "pitch": 60, "duration": 110, "velocity": 75}, {"time": 141720, "pitch": 65, "duration": 110, "velocity": 80}, {"time": 141730, "pitch": 57, "duration": 110, "velocity": 70}, {"time": 141840, "pitch": 57, "duration": 110, "velocity": 109}, {"time": 141840, "pitch": 60, "duration": 110, "velocity": 113}, {"time": 141850, "pitch": 65, "duration": 110, "velocity": 115}, {"time": 141960, "pitch": 60, "duration": 110, "velocity": 70}, {"time": 141960, "pitch": 65, "duration": 110, "velocity": 75}, {"time": 141970, "pitch": 57, "duration": 110, "velocity": 65}, {"time": 142080, "pitch": 57, "duration": 110, "velocity": 65}, {"time": 142080, "pitch": 60, "duration": 110, "velocity": 70}, {"time": 142090, "pitch": 65, "duration": 110, "velocity": 75}, {"time": 142200, "pitch": 57, "duration": 110, "velocity": 89}, {"time": 142200, "pitch": 60, "duration": 110, "velocity": 102}, {"time": 142210, "pitch": 65, "duration": 110, "velocity": 107}, {"time": 142320, "pitch": 57, "duration": 110, "velocity": 75}, {"time": 142320, "pitch": 60, "duration": 110, "velocity": 80}, {"time": 142330, "pitch": 65, "duration": 110, "velocity": 70}, {"time": 142440, "pitch": 60, "duration": 110, "velocity": 74}, {"time": 142440, "pitch": 65, "duration": 110, "velocity": 80}, {"time": 142450, "pitch": 57, "duration": 110, "velocity": 70}, {"time": 142560, "pitch": 60, "duration": 230, "velocity": 103}, {"time": 142560, "pitch": 64, "duration": 230, "velocity": 109}, {"time": 142570, "pitch": 67, "duration": 230, "velocity": 118}, {"time": 142800, "pitch": 60, "duration": 110, "velocity": 90}, {"time": 142800, "pitch": 64, "duration": 110, "velocity": 96}, {"time": 142810, "pitch": 67, "duration": 110, "velocity": 100}, {"time": 142920, "pitch": 64, "duration": 110, "velocity": 75}, {"time": 142920, "pitch": 67, "duration": 110, "velocity": 80}, {"time": 142930, "pitch": 60, "duration": 110, "velocity": 70}, {"time": 143040, "pitch": 60, "duration": 110, "velocity": 65}, {"time": 143040, "pitch": 64, "duration": 110, "velocity": 70}, {"time": 143050, "pitch": 67, "duration": 110, "velocity": 75}, {"time": 143160, "pitch": 64, "duration": 110, "velocity": 75}, {"time": 143160, "pitch": 67, "duration": 110, "velocity": 80}, {"time": 143170, "pitch": 60, "duration": 110, "velocity": 70}, {"time": 143280, "pitch": 60, "duration": 110, "velocity": 109}, {"time": 143280, "pitch": 64, "duration": 110, "velocity": 113}, {"time": 143290, "pitch": 67, "duration": 110, "velocity": 115}, {"time": 143400, "pitch": 64, "duration": 110, "velocity": 70}, {"time": 143400, "pitch": 67, "duration": 110, "velocity": 75}, {"time": 143410, "pitch": 60, "duration": 110, "velocity": 65}, {"time": 143520, "pitch": 60, "duration": 110, "velocity": 65}, {"time": 143520, "pitch": 64, "duration": 110, "velocity": 70}, {"time": 143530, "pitch": 67, "duration": 110, "velocity": 75}, {"time": 143640, "pitch": 64, "duration": 110, "velocity": 75}, {"time": 143640, "pitch": 67, "duration": 110, "velocity": 80}, {"time": 143650, "pitch": 60, "duration": 110, "velocity": 70}, {"time": 143760, "pitch": 60, "duration": 110, "velocity": 109}, {"time": 143760, "pitch": 64, "duration": 110, "velocity": 113}, {"time": 143770, "pitch": 67, "duration": 110, "velocity": 115}, {"time": 143880, "pitch": 64, "duration": 110, "velocity": 70}, {"time": 143880, "pitch": 67, "duration": 110, "velocity": 75}, {"time": 143890, "pitch": 60, "duration": 110, "velocity": 65}, {"time": 144000, "pitch": 60, "duration": 110, "velocity": 65}, {"time": 144000, "pitch": 64, "duration": 110, "velocity": 70}, {"time": 144010, "pitch": 67, "duration": 110, "velocity": 75}, {"time": 144120, "pitch": 60, "duration": 110, "velocity": 89}, {"time": 144120, "pitch": 64, "duration": 110, "velocity": 102}, {"time": 144130, "pitch": 67, "duration": 110, "velocity": 107}, {"time": 144240, "pitch": 60, "duration": 110, "velocity": 75}, {"time": 144240, "pitch": 64, "duration": 110, "velocity": 80}, {"time": 144250, "pitch": 67, "duration": 110, "velocity": 70}, {"time": 144360, "pitch": 64, "duration": 110, "velocity": 74}, {"time": 144360, "pitch": 67, "duration": 110, "velocity": 80}, {"time": 144370, "pitch": 60, "duration": 110, "velocity": 70}, {"time": 144480, "pitch": 58, "duration": 230, "velocity": 103}, {"time": 144480, "pitch": 62, "duration": 230, "velocity": 109}, {"time": 144490, "pitch": 67, "duration": 230, "velocity": 118}, {"time": 144720, "pitch": 58, "duration": 110, "velocity": 90}, {"time": 144720, "pitch": 62, "duration": 110, "velocity": 96}, {"time": 144730, "pitch": 67, "duration": 110, "velocity": 100}, {"time": 144840, "pitch": 62, "duration": 110, "velocity": 75}, {"time": 144840, "pitch": 67, "duration": 110, "velocity": 80}, {"time": 144850, "pitch": 58, "duration": 110, "velocity": 70}, {"time": 144960, "pitch": 58, "duration": 110, "velocity": 65}, {"time": 144960, "pitch": 62, "duration": 110, "velocity": 70}, {"time": 144970, "pitch": 67, "duration": 110, "velocity": 75}, {"time": 145080, "pitch": 62, "duration": 110, "velocity": 75}, {"time": 145080, "pitch": 67, "duration": 110, "velocity": 80}, {"time": 145090, "pitch": 58, "duration": 110, "velocity": 70}, {"time": 145200, "pitch": 58, "duration": 110, "velocity": 109}, {"time": 145200, "pitch": 62, "duration": 110, "velocity": 113}, {"time": 145210, "pitch": 67, "duration": 110, "velocity": 115}, {"time": 145320, "pitch": 62, "duration": 110, "velocity": 70}, {"time": 145320, "pitch": 67, "duration": 110, "velocity": 75}, {"time": 145330, "pitch": 58, "duration": 110, "velocity": 65}, {"time": 145440, "pitch": 58, "duration": 110, "velocity": 65}, {"time": 145440, "pitch": 62, "duration": 110, "velocity": 70}, {"time": 145450, "pitch": 67, "duration": 110, "velocity": 75}, {"time": 145560, "pitch": 62, "duration": 110, "velocity": 75}, {"time": 145560, "pitch": 67, "duration": 110, "velocity": 80}, {"time": 145570, "pitch": 58, "duration": 110, "velocity": 70}, {"time": 145680, "pitch": 58, "duration": 110, "velocity": 109}, {"time": 145680, "pitch": 62, "duration": 110, "velocity": 113}, {"time": 145690, "pitch": 67, "duration": 110, "velocity": 115}, {"time": 145800, "pitch": 62, "duration": 110, "velocity": 70}, {"time": 145800, "pitch": 67, "duration": 110, "velocity": 75}, {"time": 145810, "pitch": 58, "duration": 110, "velocity": 65}, {"time": 145920, "pitch": 58, "duration": 110, "velocity": 65}, {"time": 145920, "pitch": 62, "duration": 110, "velocity": 70}, {"time": 145930, "pitch": 67, "duration": 110, "velocity": 75}, {"time": 146040, "pitch": 58, "duration": 110, "velocity": 89}, {"time": 146040, "pitch": 62, "duration": 110, "velocity": 102}, {"time": 146050, "pitch": 67, "duration": 110, "velocity": 107}, {"time": 146160, "pitch": 58, "duration": 110, "velocity": 75}, {"time": 146160, "pitch": 62, "duration": 110, "velocity": 80}, {"time": 146170, "pitch": 67, "duration": 110, "velocity": 70}, {"time": 146280, "pitch": 62, "duration": 110, "velocity": 74}, {"time": 146280, "pitch": 67, "duration": 110, "velocity": 80}, {"time": 146290, "pitch": 58, "duration": 110, "velocity": 70}, {"time": 146400, "pitch": 60, "duration": 230, "velocity": 103}, {"time": 146400, "pitch": 64, "duration": 230, "velocity": 109}, {"time": 146410, "pitch": 67, "duration": 230, "velocity": 118}, {"time": 146640, "pitch": 60, "duration": 110, "velocity": 90}, {"time": 146640, "pitch": 64, "duration": 110, "velocity": 96}, {"time": 146650, "pitch": 67, "duration": 110, "velocity": 100}, {"time": 146760, "pitch": 64, "duration": 110, "velocity": 75}, {"time": 146760, "pitch": 67, "duration": 110, "velocity": 80}, {"time": 146770, "pitch": 60, "duration": 110, "velocity": 70}, {"time": 146880, "pitch": 60, "duration": 110, "velocity": 65}, {"time": 146880, "pitch": 64, "duration": 110, "velocity": 70}, {"time": 146890, "pitch": 67, "duration": 110, "velocity": 75}, {"time": 147000, "pitch": 64, "duration": 110, "velocity": 75}, {"time": 147000, "pitch": 67, "duration": 110, "velocity": 80}, {"time": 147010, "pitch": 60, "duration": 110, "velocity": 70}, {"time": 147120, "pitch": 60, "duration": 110, "velocity": 109}, {"time": 147120, "pitch": 64, "duration": 110, "velocity": 113}, {"time": 147130, "pitch": 67, "duration": 110, "velocity": 115}, {"time": 147240, "pitch": 64, "duration": 110, "velocity": 70}, {"time": 147240, "pitch": 67, "duration": 110, "velocity": 75}, {"time": 147250, "pitch": 60, "duration": 110, "velocity": 65}, {"time": 147360, "pitch": 60, "duration": 110, "velocity": 65}, {"time": 147360, "pitch": 64, "duration": 110, "velocity": 70}, {"time": 147370, "pitch": 67, "duration": 110, "velocity": 75}, {"time": 147480, "pitch": 64, "duration": 110, "velocity": 75}, {"time": 147480, "pitch": 67, "duration": 110, "velocity": 80}, {"time": 147490, "pitch": 60, "duration": 110, "velocity": 70}, {"time": 147600, "pitch": 60, "duration": 110, "velocity": 109}, {"time": 147600, "pitch": 64, "duration": 110, "velocity": 113}, {"time": 147610, "pitch": 67, "duration": 110, "velocity": 115}, {"time": 147720, "pitch": 64, "duration": 110, "velocity": 70}, {"time": 147720, "pitch": 67, "duration": 110, "velocity": 75}, {"time": 147730, "pitch": 60, "duration": 110, "velocity": 65}, {"time": 147840, "pitch": 60, "duration": 110, "velocity": 65}, {"time": 147840, "pitch": 64, "duration": 110, "velocity": 70}, {"time": 147850, "pitch": 67, "duration": 110, "velocity": 75}, {"time": 147960, "pitch": 60, "duration": 110, "velocity": 89}, {"time": 147960, "pitch": 64, "duration": 110, "velocity": 102}, {"time": 147970, "pitch": 67, "duration": 110, "velocity": 107}, {"time": 148080, "pitch": 60, "duration": 110, "velocity": 75}, {"time": 148080, "pitch": 64, "duration": 110, "velocity": 80}, {"time": 148090, "pitch": 67, "duration": 110, "velocity": 70}, {"time": 148200, "pitch": 64, "duration": 110, "velocity": 74}, {"time": 148200, "pitch": 67, "duration": 110, "velocity": 80}, {"time": 148210, "pitch": 60, "duration": 110, "velocity": 70}, {"time": 148320, "pitch": 60, "duration": 230, "velocity": 103}, {"time": 148320, "pitch": 63, "duration": 230, "velocity": 109}, {"time": 148330, "pitch": 67, "duration": 230, "velocity": 118}, {"time": 148560, "pitch": 60, "duration": 110, "velocity": 90}, {"time": 148560, "pitch": 63, "duration": 110, "velocity": 96}, {"time": 148570, "pitch": 67, "duration": 110, "velocity": 100}, {"time": 148680, "pitch": 63, "duration": 110, "velocity": 75}, {"time": 148680, "pitch": 67, "duration": 110, "velocity": 80}, {"time": 148690, "pitch": 60, "duration": 110, "velocity": 70}, {"time": 148800, "pitch": 60, "duration": 110, "velocity": 65}, {"time": 148800, "pitch": 63, "duration": 110, "velocity": 70}, {"time": 148810, "pitch": 67, "duration": 110, "velocity": 75}, {"time": 148920, "pitch": 63, "duration": 110, "velocity": 75}, {"time": 148920, "pitch": 67, "duration": 110, "velocity": 80}, {"time": 148930, "pitch": 60, "duration": 110, "velocity": 70}, {"time": 149040, "pitch": 60, "duration": 110, "velocity": 109}, {"time": 149040, "pitch": 63, "duration": 110, "velocity": 113}, {"time": 149050, "pitch": 67, "duration": 110, "velocity": 115}, {"time": 149160, "pitch": 63, "duration": 110, "velocity": 70}, {"time": 149160, "pitch": 67, "duration": 110, "velocity": 75}, {"time": 149170, "pitch": 60, "duration": 110, "velocity": 65}, {"time": 149280, "pitch": 57, "duration": 110, "velocity": 65}, {"time": 149280, "pitch": 60, "duration": 110, "velocity": 70}, {"time": 149290, "pitch": 65, "duration": 110, "velocity": 75}, {"time": 149400, "pitch": 60, "duration": 110, "velocity": 75}, {"time": 149400, "pitch": 65, "duration": 110, "velocity": 80}, {"time": 149410, "pitch": 57, "duration": 110, "velocity": 70}, {"time": 149520, "pitch": 57, "duration": 110, "velocity": 109}, {"time": 149520, "pitch": 60, "duration": 110, "velocity": 113}, {"time": 149530, "pitch": 65, "duration": 110, "velocity": 115}, {"time": 149640, "pitch": 60, "duration": 110, "velocity": 70}, {"time": 149640, "pitch": 65, "duration": 110, "velocity": 75}, {"time": 149650, "pitch": 57, "duration": 110, "velocity": 65}, {"time": 149760, "pitch": 57, "duration": 110, "velocity": 65}, {"time": 149760, "pitch": 60, "duration": 110, "velocity": 70}, {"time": 149770, "pitch": 65, "duration": 110, "velocity": 75}, {"time": 149880, "pitch": 57, "duration": 110, "velocity": 89}, {"time": 149880, "pitch": 60, "duration": 110, "velocity": 102}, {"time": 149890, "pitch": 65, "duration": 110, "velocity": 107}, {"time": 150000, "pitch": 57, "duration": 110, "velocity": 75}, {"time": 150000, "pitch": 60, "duration": 110, "velocity": 80}, {"time": 150010, "pitch": 65, "duration": 110, "velocity": 70}, {"time": 150120, "pitch": 60, "duration": 110, "velocity": 74}, {"time": 150120, "pitch": 65, "duration": 110, "velocity": 80}, {"time": 150130, "pitch": 57, "duration": 110, "velocity": 70}, {"time": 173280, "pitch": 60, "duration": 230, "velocity": 103}, {"time": 173280, "pitch": 64, "duration": 230, "velocity": 109}, {"time": 173290, "pitch": 67, "duration": 230, "velocity": 118}, {"time": 173520, "pitch": 60, "duration": 110, "velocity": 90}, {"time": 173520, "pitch": 64, "duration": 110, "velocity": 96}, {"time": 173530, "pitch": 67, "duration": 110, "velocity": 100}, {"time": 173640, "pitch": 64, "duration": 110, "velocity": 75}, {"time": 173640, "pitch": 67, "duration": 110, "velocity": 80}, {"time": 173650, "pitch": 60, "duration": 110, "velocity": 70}, {"time": 173760, "pitch": 60, "duration": 110, "velocity": 65}, {"time": 173760, "pitch": 64, "duration": 110, "velocity": 70}, {"time": 173770, "pitch": 67, "duration": 110, "velocity": 75}, {"time": 173880, "pitch": 64, "duration": 110, "velocity": 75}, {"time": 173880, "pitch": 67, "duration": 110, "velocity": 80}, {"time": 173890, "pitch": 60, "duration": 110, "velocity": 70}, {"time": 174000, "pitch": 60, "duration": 110, "velocity": 109}, {"time": 174000, "pitch": 64, "duration": 110, "velocity": 113}, {"time": 174010, "pitch": 67, "duration": 110, "velocity": 115}, {"time": 174120, "pitch": 64, "duration": 110, "velocity": 70}, {"time": 174120, "pitch": 67, "duration": 110, "velocity": 75}, {"time": 174130, "pitch": 60, "duration": 110, "velocity": 65}, {"time": 174240, "pitch": 60, "duration": 110, "velocity": 65}, {"time": 174240, "pitch": 64, "duration": 110, "velocity": 70}, {"time": 174250, "pitch": 67, "duration": 110, "velocity": 75}, {"time": 174360, "pitch": 64, "duration": 110, "velocity": 75}, {"time": 174360, "pitch": 67, "duration": 110, "velocity": 80}, {"time": 174370, "pitch": 60, "duration": 110, "velocity": 70}, {"time": 174480, "pitch": 60, "duration": 110, "velocity": 109}, {"time": 174480, "pitch": 64, "duration": 110, "velocity": 113}, {"time": 174490, "pitch": 67, "duration": 110, "velocity": 115}, {"time": 174600, "pitch": 64, "duration": 110, "velocity": 70}, {"time": 174600, "pitch": 67, "duration": 110, "velocity": 75}, {"time": 174610, "pitch": 60, "duration": 110, "velocity": 65}, {"time": 174720, "pitch": 60, "duration": 110, "velocity": 65}, {"time": 174720, "pitch": 64, "duration": 110, "velocity": 70}, {"time": 174730, "pitch": 67, "duration": 110, "velocity": 75}, {"time": 174840, "pitch": 60, "duration": 110, "velocity": 89}, {"time": 174840, "pitch": 64, "duration": 110, "velocity": 102}, {"time": 174850, "pitch": 67, "duration": 110, "velocity": 107}, {"time": 174960, "pitch": 60, "duration": 110, "velocity": 75}, {"time": 174960, "pitch": 64, "duration": 110, "velocity": 80}, {"time": 174970, "pitch": 67, "duration": 110, "velocity": 70}, {"time": 175080, "pitch": 64, "duration": 110, "velocity": 74}, {"time": 175080, "pitch": 67, "duration": 110, "velocity": 80}, {"time": 175090, "pitch": 60, "duration": 110, "velocity": 70}, {"time": 175200, "pitch": 58, "duration": 230, "velocity": 103}, {"time": 175200, "pitch": 62, "duration": 230, "velocity": 109}, {"time": 175210, "pitch": 67, "duration": 230, "velocity": 118}, {"time": 175440, "pitch": 58, "duration": 110, "velocity": 90}, {"time": 175440, "pitch": 62, "duration": 110, "velocity": 96}, {"time": 175450, "pitch": 67, "duration": 110, "velocity": 100}, {"time": 175560, "pitch": 62, "duration": 110, "velocity": 75}, {"time": 175560, "pitch": 67, "duration": 110, "velocity": 80}, {"time": 175570, "pitch": 58, "duration": 110, "velocity": 70}, {"time": 175680, "pitch": 58, "duration": 110, "velocity": 65}, {"time": 175680, "pitch": 62, "duration": 110, "velocity": 70}, {"time": 175690, "pitch": 67, "duration": 110, "velocity": 75}, {"time": 175800, "pitch": 62, "duration": 110, "velocity": 75}, {"time": 175800, "pitch": 67, "duration": 110, "velocity": 80}, {"time": 175810, "pitch": 58, "duration": 110, "velocity": 70}, {"time": 175920, "pitch": 58, "duration": 110, "velocity": 109}, {"time": 175920, "pitch": 62, "duration": 110, "velocity": 113}, {"time": 175930, "pitch": 67, "duration": 110, "velocity": 115}, {"time": 176040, "pitch": 62, "duration": 110, "velocity": 70}, {"time": 176040, "pitch": 67, "duration": 110, "velocity": 75}, {"time": 176050, "pitch": 58, "duration": 110, "velocity": 65}, {"time": 176160, "pitch": 58, "duration": 110, "velocity": 65}, {"time": 176160, "pitch": 62, "duration": 110, "velocity": 70}, {"time": 176170, "pitch": 67, "duration": 110, "velocity": 75}, {"time": 176280, "pitch": 62, "duration": 110, "velocity": 75}, {"time": 176280, "pitch": 67, "duration": 110, "velocity": 80}, {"time": 176290, "pitch": 58, "duration": 110, "velocity": 70}, {"time": 176400, "pitch": 58, "duration": 110, "velocity": 109}, {"time": 176400, "pitch": 62, "duration": 110, "velocity": 113}, {"time": 176410, "pitch": 67, "duration": 110, "velocity": 115}, {"time": 176520, "pitch": 62, "duration": 110, "velocity": 70}, {"time": 176520, "pitch": 67, "duration": 110, "velocity": 75}, {"time": 176530, "pitch": 58, "duration": 110, "velocity": 65}, {"time": 176640, "pitch": 58, "duration": 110, "velocity": 65}, {"time": 176640, "pitch": 62, "duration": 110, "velocity": 70}, {"time": 176650, "pitch": 67, "duration": 110, "velocity": 75}, {"time": 176760, "pitch": 58, "duration": 110, "velocity": 89}, {"time": 176760, "pitch": 62, "duration": 110, "velocity": 102}, {"time": 176770, "pitch": 67, "duration": 110, "velocity": 107}, {"time": 176880, "pitch": 58, "duration": 110, "velocity": 75}, {"time": 176880, "pitch": 62, "duration": 110, "velocity": 80}, {"time": 176890, "pitch": 67, "duration": 110, "velocity": 70}, {"time": 177000, "pitch": 62, "duration": 110, "velocity": 74}, {"time": 177000, "pitch": 67, "duration": 110, "velocity": 80}, {"time": 177010, "pitch": 58, "duration": 110, "velocity": 70}, {"time": 177120, "pitch": 60, "duration": 230, "velocity": 103}, {"time": 177120, "pitch": 64, "duration": 230, "velocity": 109}, {"time": 177130, "pitch": 67, "duration": 230, "velocity": 118}, {"time": 177360, "pitch": 60, "duration": 110, "velocity": 90}, {"time": 177360, "pitch": 64, "duration": 110, "velocity": 96}, {"time": 177370, "pitch": 67, "duration": 110, "velocity": 100}, {"time": 177480, "pitch": 64, "duration": 110, "velocity": 75}, {"time": 177480, "pitch": 67, "duration": 110, "velocity": 80}, {"time": 177490, "pitch": 60, "duration": 110, "velocity": 70}, {"time": 177600, "pitch": 60, "duration": 110, "velocity": 65}, {"time": 177600, "pitch": 64, "duration": 110, "velocity": 70}, {"time": 177610, "pitch": 67, "duration": 110, "velocity": 75}, {"time": 177720, "pitch": 64, "duration": 110, "velocity": 75}, {"time": 177720, "pitch": 67, "duration": 110, "velocity": 80}, {"time": 177730, "pitch": 60, "duration": 110, "velocity": 70}, {"time": 177840, "pitch": 60, "duration": 110, "velocity": 109}, {"time": 177840, "pitch": 64, "duration": 110, "velocity": 113}, {"time": 177850, "pitch": 67, "duration": 110, "velocity": 115}, {"time": 177960, "pitch": 64, "duration": 110, "velocity": 70}, {"time": 177960, "pitch": 67, "duration": 110, "velocity": 75}, {"time": 177970, "pitch": 60, "duration": 110, "velocity": 65}, {"time": 178080, "pitch": 60, "duration": 110, "velocity": 65}, {"time": 178080, "pitch": 64, "duration": 110, "velocity": 70}, {"time": 178090, "pitch": 67, "duration": 110, "velocity": 75}, {"time": 178200, "pitch": 64, "duration": 110, "velocity": 75}, {"time": 178200, "pitch": 67, "duration": 110, "velocity": 80}, {"time": 178210, "pitch": 60, "duration": 110, "velocity": 70}, {"time": 178320, "pitch": 60, "duration": 110, "velocity": 109}, {"time": 178320, "pitch": 64, "duration": 110, "velocity": 113}, {"time": 178330, "pitch": 67, "duration": 110, "velocity": 115}, {"time": 178440, "pitch": 64, "duration": 110, "velocity": 70}, {"time": 178440, "pitch": 67, "duration": 110, "velocity": 75}, {"time": 178450, "pitch": 60, "duration": 110, "velocity": 65}, {"time": 178560, "pitch": 60, "duration": 110, "velocity": 65}, {"time": 178560, "pitch": 64, "duration": 110, "velocity": 70}, {"time": 178570, "pitch": 67, "duration": 110, "velocity": 75}, {"time": 178680, "pitch": 60, "duration": 110, "velocity": 89}, {"time": 178680, "pitch": 64, "duration": 110, "velocity": 102}, {"time": 178690, "pitch": 67, "duration": 110, "velocity": 107}, {"time": 178800, "pitch": 60, "duration": 110, "velocity": 75}, {"time": 178800, "pitch": 64, "duration": 110, "velocity": 80}, {"time": 178810, "pitch": 67, "duration": 110, "velocity": 70}, {"time": 178920, "pitch": 64, "duration": 110, "velocity": 74}, {"time": 178920, "pitch": 67, "duration": 110, "velocity": 80}, {"time": 178930, "pitch": 60, "duration": 110, "velocity": 70}, {"time": 179040, "pitch": 60, "duration": 230, "velocity": 103}, {"time": 179040, "pitch": 63, "duration": 230, "velocity": 109}, {"time": 179050, "pitch": 67, "duration": 230, "velocity": 118}, {"time": 179280, "pitch": 60, "duration": 110, "velocity": 90}, {"time": 179280, "pitch": 63, "duration": 110, "velocity": 96}, {"time": 179290, "pitch": 67, "duration": 110, "velocity": 100}, {"time": 179400, "pitch": 63, "duration": 110, "velocity": 75}, {"time": 179400, "pitch": 67, "duration": 110, "velocity": 80}, {"time": 179410, "pitch": 60, "duration": 110, "velocity": 70}, {"time": 179520, "pitch": 60, "duration": 110, "velocity": 65}, {"time": 179520, "pitch": 63, "duration": 110, "velocity": 70}, {"time": 179530, "pitch": 67, "duration": 110, "velocity": 75}, {"time": 179640, "pitch": 63, "duration": 110, "velocity": 75}, {"time": 179640, "pitch": 67, "duration": 110, "velocity": 80}, {"time": 179650, "pitch": 60, "duration": 110, "velocity": 70}, {"time": 179760, "pitch": 60, "duration": 110, "velocity": 109}, {"time": 179760, "pitch": 63, "duration": 110, "velocity": 113}, {"time": 179770, "pitch": 67, "duration": 110, "velocity": 115}, {"time": 179880, "pitch": 63, "duration": 110, "velocity": 70}, {"time": 179880, "pitch": 67, "duration": 110, "velocity": 75}, {"time": 179890, "pitch": 60, "duration": 110, "velocity": 65}, {"time": 180000, "pitch": 57, "duration": 110, "velocity": 65}, {"time": 180000, "pitch": 60, "duration": 110, "velocity": 70}, {"time": 180010, "pitch": 65, "duration": 110, "velocity": 75}, {"time": 180120, "pitch": 60, "duration": 110, "velocity": 75}, {"time": 180120, "pitch": 65, "duration": 110, "velocity": 80}, {"time": 180130, "pitch": 57, "duration": 110, "velocity": 70}, {"time": 180240, "pitch": 57, "duration": 110, "velocity": 109}, {"time": 180240, "pitch": 60, "duration": 110, "velocity": 113}, {"time": 180250, "pitch": 65, "duration": 110, "velocity": 115}, {"time": 180360, "pitch": 60, "duration": 110, "velocity": 70}, {"time": 180360, "pitch": 65, "duration": 110, "velocity": 75}, {"time": 180370, "pitch": 57, "duration": 110, "velocity": 65}, {"time": 180480, "pitch": 57, "duration": 110, "velocity": 65}, {"time": 180480, "pitch": 60, "duration": 110, "velocity": 70}, {"time": 180490, "pitch": 65, "duration": 110, "velocity": 75}, {"time": 180600, "pitch": 57, "duration": 110, "velocity": 89}, {"time": 180600, "pitch": 60, "duration": 110, "velocity": 102}, {"time": 180610, "pitch": 65, "duration": 110, "velocity": 107}, {"time": 180720, "pitch": 57, "duration": 110, "velocity": 75}, {"time": 180720, "pitch": 60, "duration": 110, "velocity": 80}, {"time": 180730, "pitch": 65, "duration": 110, "velocity": 70}, {"time": 180840, "pitch": 60, "duration": 110, "velocity": 74}, {"time": 180840, "pitch": 65, "duration": 110, "velocity": 80}, {"time": 180850, "pitch": 57, "duration": 110, "velocity": 70}, {"time": 180960, "pitch": 60, "duration": 230, "velocity": 103}, {"time": 180960, "pitch": 64, "duration": 230, "velocity": 109}, {"time": 180970, "pitch": 67, "duration": 230, "velocity": 118}, {"time": 181200, "pitch": 60, "duration": 110, "velocity": 90}, {"time": 181200, "pitch": 64, "duration": 110, "velocity": 96}, {"time": 181210, "pitch": 67, "duration": 110, "velocity": 100}, {"time": 181320, "pitch": 64, "duration": 110, "velocity": 75}, {"time": 181320, "pitch": 67, "duration": 110, "velocity": 80}, {"time": 181330, "pitch": 60, "duration": 110, "velocity": 70}, {"time": 181440, "pitch": 60, "duration": 110, "velocity": 65}, {"time": 181440, "pitch": 64, "duration": 110, "velocity": 70}, {"time": 181450, "pitch": 67, "duration": 110, "velocity": 75}, {"time": 181560, "pitch": 64, "duration": 110, "velocity": 75}, {"time": 181560, "pitch": 67, "duration": 110, "velocity": 80}, {"time": 181570, "pitch": 60, "duration": 110, "velocity": 70}, {"time": 181680, "pitch": 60, "duration": 110, "velocity": 109}, {"time": 181680, "pitch": 64, "duration": 110, "velocity": 113}, {"time": 181690, "pitch": 67, "duration": 110, "velocity": 115}, {"time": 181800, "pitch": 64, "duration": 110, "velocity": 70}, {"time": 181800, "pitch": 67, "duration": 110, "velocity": 75}, {"time": 181810, "pitch": 60, "duration": 110, "velocity": 65}, {"time": 181920, "pitch": 60, "duration": 110, "velocity": 65}, {"time": 181920, "pitch": 64, "duration": 110, "velocity": 70}, {"time": 181930, "pitch": 67, "duration": 110, "velocity": 75}, {"time": 182040, "pitch": 64, "duration": 110, "velocity": 75}, {"time": 182040, "pitch": 67, "duration": 110, "velocity": 80}, {"time": 182050, "pitch": 60, "duration": 110, "velocity": 70}, {"time": 182160, "pitch": 60, "duration": 110, "velocity": 109}, {"time": 182160, "pitch": 64, "duration": 110, "velocity": 113}, {"time": 182170, "pitch": 67, "duration": 110, "velocity": 115}, {"time": 182280, "pitch": 64, "duration": 110, "velocity": 70}, {"time": 182280, "pitch": 67, "duration": 110, "velocity": 75}, {"time": 182290, "pitch": 60, "duration": 110, "velocity": 65}, {"time": 182400, "pitch": 60, "duration": 110, "velocity": 65}, {"time": 182400, "pitch": 64, "duration": 110, "velocity": 70}, {"time": 182410, "pitch": 67, "duration": 110, "velocity": 75}, {"time": 182520, "pitch": 60, "duration": 110, "velocity": 89}, {"time": 182520, "pitch": 64, "duration": 110, "velocity": 102}, {"time": 182530, "pitch": 67, "duration": 110, "velocity": 107}, {"time": 182640, "pitch": 60, "duration": 110, "velocity": 75}, {"time": 182640, "pitch": 64, "duration": 110, "velocity": 80}, {"time": 182650, "pitch": 67, "duration": 110, "velocity": 70}, {"time": 182760, "pitch": 64, "duration": 110, "velocity": 74}, {"time": 182760, "pitch": 67, "duration": 110, "velocity": 80}, {"time": 182770, "pitch": 60, "duration": 110, "velocity": 70}, {"time": 182880, "pitch": 58, "duration": 230, "velocity": 103}, {"time": 182880, "pitch": 62, "duration": 230, "velocity": 109}, {"time": 182890, "pitch": 67, "duration": 230, "velocity": 118}, {"time": 183120, "pitch": 58, "duration": 110, "velocity": 90}, {"time": 183120, "pitch": 62, "duration": 110, "velocity": 96}, {"time": 183130, "pitch": 67, "duration": 110, "velocity": 100}, {"time": 183240, "pitch": 62, "duration": 110, "velocity": 75}, {"time": 183240, "pitch": 67, "duration": 110, "velocity": 80}, {"time": 183250, "pitch": 58, "duration": 110, "velocity": 70}, {"time": 183360, "pitch": 58, "duration": 110, "velocity": 65}, {"time": 183360, "pitch": 62, "duration": 110, "velocity": 70}, {"time": 183370, "pitch": 67, "duration": 110, "velocity": 75}, {"time": 183480, "pitch": 62, "duration": 110, "velocity": 75}, {"time": 183480, "pitch": 67, "duration": 110, "velocity": 80}, {"time": 183490, "pitch": 58, "duration": 110, "velocity": 70}, {"time": 183600, "pitch": 58, "duration": 110, "velocity": 109}, {"time": 183600, "pitch": 62, "duration": 110, "velocity": 113}, {"time": 183610, "pitch": 67, "duration": 110, "velocity": 115}, {"time": 183720, "pitch": 62, "duration": 110, "velocity": 70}, {"time": 183720, "pitch": 67, "duration": 110, "velocity": 75}, {"time": 183730, "pitch": 58, "duration": 110, "velocity": 65}, {"time": 183840, "pitch": 58, "duration": 110, "velocity": 65}, {"time": 183840, "pitch": 62, "duration": 110, "velocity": 70}, {"time": 183850, "pitch": 67, "duration": 110, "velocity": 75}, {"time": 183960, "pitch": 62, "duration": 110, "velocity": 75}, {"time": 183960, "pitch": 67, "duration": 110, "velocity": 80}, {"time": 183970, "pitch": 58, "duration": 110, "velocity": 70}, {"time": 184080, "pitch": 58, "duration": 110, "velocity": 109}, {"time": 184080, "pitch": 62, "duration": 110, "velocity": 113}, {"time": 184090, "pitch": 67, "duration": 110, "velocity": 115}, {"time": 184200, "pitch": 62, "duration": 110, "velocity": 70}, {"time": 184200, "pitch": 67, "duration": 110, "velocity": 75}, {"time": 184210, "pitch": 58, "duration": 110, "velocity": 65}, {"time": 184320, "pitch": 58, "duration": 110, "velocity": 65}, {"time": 184320, "pitch": 62, "duration": 110, "velocity": 70}, {"time": 184330, "pitch": 67, "duration": 110, "velocity": 75}, {"time": 184440, "pitch": 58, "duration": 110, "velocity": 89}, {"time": 184440, "pitch": 62, "duration": 110, "velocity": 102}, {"time": 184450, "pitch": 67, "duration": 110, "velocity": 107}, {"time": 184560, "pitch": 58, "duration": 110, "velocity": 75}, {"time": 184560, "pitch": 62, "duration": 110, "velocity": 80}, {"time": 184570, "pitch": 67, "duration": 110, "velocity": 70}, {"time": 184680, "pitch": 62, "duration": 110, "velocity": 74}, {"time": 184680, "pitch": 67, "duration": 110, "velocity": 80}, {"time": 184690, "pitch": 58, "duration": 110, "velocity": 70}, {"time": 184800, "pitch": 60, "duration": 230, "velocity": 103}, {"time": 184800, "pitch": 64, "duration": 230, "velocity": 109}, {"time": 184810, "pitch": 67, "duration": 230, "velocity": 118}, {"time": 185040, "pitch": 60, "duration": 110, "velocity": 90}, {"time": 185040, "pitch": 64, "duration": 110, "velocity": 96}, {"time": 185050, "pitch": 67, "duration": 110, "velocity": 100}, {"time": 185160, "pitch": 64, "duration": 110, "velocity": 75}, {"time": 185160, "pitch": 67, "duration": 110, "velocity": 80}, {"time": 185170, "pitch": 60, "duration": 110, "velocity": 70}, {"time": 185280, "pitch": 60, "duration": 110, "velocity": 65}, {"time": 185280, "pitch": 64, "duration": 110, "velocity": 70}, {"time": 185290, "pitch": 67, "duration": 110, "velocity": 75}, {"time": 185400, "pitch": 64, "duration": 110, "velocity": 75}, {"time": 185400, "pitch": 67, "duration": 110, "velocity": 80}, {"time": 185410, "pitch": 60, "duration": 110, "velocity": 70}, {"time": 185520, "pitch": 60, "duration": 110, "velocity": 109}, {"time": 185520, "pitch": 64, "duration": 110, "velocity": 113}, {"time": 185530, "pitch": 67, "duration": 110, "velocity": 115}, {"time": 185640, "pitch": 64, "duration": 110, "velocity": 70}, {"time": 185640, "pitch": 67, "duration": 110, "velocity": 75}, {"time": 185650, "pitch": 60, "duration": 110, "velocity": 65}, {"time": 185760, "pitch": 60, "duration": 110, "velocity": 65}, {"time": 185760, "pitch": 64, "duration": 110, "velocity": 70}, {"time": 185770, "pitch": 67, "duration": 110, "velocity": 75}, {"time": 185880, "pitch": 64, "duration": 110, "velocity": 75}, {"time": 185880, "pitch": 67, "duration": 110, "velocity": 80}, {"time": 185890, "pitch": 60, "duration": 110, "velocity": 70}, {"time": 186000, "pitch": 60, "duration": 110, "velocity": 109}, {"time": 186000, "pitch": 64, "duration": 110, "velocity": 113}, {"time": 186010, "pitch": 67, "duration": 110, "velocity": 115}, {"time": 186120, "pitch": 64, "duration": 110, "velocity": 70}, {"time": 186120, "pitch": 67, "duration": 110, "velocity": 75}, {"time": 186130, "pitch": 60, "duration": 110, "velocity": 65}, {"time": 186240, "pitch": 60, "duration": 110, "velocity": 65}, {"time": 186240, "pitch": 64, "duration": 110, "velocity": 70}, {"time": 186250, "pitch": 67, "duration": 110, "velocity": 75}, {"time": 186360, "pitch": 60, "duration": 110, "velocity": 89}, {"time": 186360, "pitch": 64, "duration": 110, "velocity": 102}, {"time": 186370, "pitch": 67, "duration": 110, "velocity": 107}, {"time": 186480, "pitch": 60, "duration": 110, "velocity": 75}, {"time": 186480, "pitch": 64, "duration": 110, "velocity": 80}, {"time": 186490, "pitch": 67, "duration": 110, "velocity": 70}, {"time": 186600, "pitch": 64, "duration": 110, "velocity": 74}, {"time": 186600, "pitch": 67, "duration": 110, "velocity": 80}, {"time": 186610, "pitch": 60, "duration": 110, "velocity": 70}, {"time": 186720, "pitch": 60, "duration": 230, "velocity": 103}, {"time": 186720, "pitch": 63, "duration": 230, "velocity": 109}, {"time": 186730, "pitch": 67, "duration": 230, "velocity": 118}, {"time": 186960, "pitch": 60, "duration": 110, "velocity": 90}, {"time": 186960, "pitch": 63, "duration": 110, "velocity": 96}, {"time": 186970, "pitch": 67, "duration": 110, "velocity": 100}, {"time": 187080, "pitch": 63, "duration": 110, "velocity": 75}, {"time": 187080, "pitch": 67, "duration": 110, "velocity": 80}, {"time": 187090, "pitch": 60, "duration": 110, "velocity": 70}, {"time": 187200, "pitch": 60, "duration": 110, "velocity": 65}, {"time": 187200, "pitch": 63, "duration": 110, "velocity": 70}, {"time": 187210, "pitch": 67, "duration": 110, "velocity": 75}, {"time": 187320, "pitch": 63, "duration": 110, "velocity": 75}, {"time": 187320, "pitch": 67, "duration": 110, "velocity": 80}, {"time": 187330, "pitch": 60, "duration": 110, "velocity": 70}, {"time": 187440, "pitch": 60, "duration": 110, "velocity": 109}, {"time": 187440, "pitch": 63, "duration": 110, "velocity": 113}, {"time": 187450, "pitch": 67, "duration": 110, "velocity": 115}, {"time": 187560, "pitch": 63, "duration": 110, "velocity": 70}, {"time": 187560, "pitch": 67, "duration": 110, "velocity": 75}, {"time": 187570, "pitch": 60, "duration": 110, "velocity": 65}, {"time": 187680, "pitch": 57, "duration": 110, "velocity": 65}, {"time": 187680, "pitch": 60, "duration": 110, "velocity": 70}, {"time": 187690, "pitch": 65, "duration": 110, "velocity": 75}, {"time": 187800, "pitch": 60, "duration": 110, "velocity": 75}, {"time": 187800, "pitch": 65, "duration": 110, "velocity": 80}, {"time": 187810, "pitch": 57, "duration": 110, "velocity": 70}, {"time": 187920, "pitch": 57, "duration": 110, "velocity": 109}, {"time": 187920, "pitch": 60, "duration": 110, "velocity": 113}, {"time": 187930, "pitch": 65, "duration": 110, "velocity": 115}, {"time": 188040, "pitch": 60, "duration": 110, "velocity": 70}, {"time": 188040, "pitch": 65, "duration": 110, "velocity": 75}, {"time": 188050, "pitch": 57, "duration": 110, "velocity": 65}, {"time": 188160, "pitch": 57, "duration": 110, "velocity": 65}, {"time": 188160, "pitch": 60, "duration": 110, "velocity": 70}, {"time": 188170, "pitch": 65, "duration": 110, "velocity": 75}, {"time": 188280, "pitch": 57, "duration": 110, "velocity": 89}, {"time": 188280, "pitch": 60, "duration": 110, "velocity": 102}, {"time": 188290, "pitch": 65, "duration": 110, "velocity": 107}, {"time": 188400, "pitch": 57, "duration": 110, "velocity": 75}, {"time": 188400, "pitch": 60, "duration": 110, "velocity": 80}, {"time": 188410, "pitch": 65, "duration": 110, "velocity": 70}, {"time": 188520, "pitch": 60, "duration": 110, "velocity": 74}, {"time": 188520, "pitch": 65, "duration": 110, "velocity": 80}, {"time": 188530, "pitch": 57, "duration": 110, "velocity": 70}, {"time": 188640, "pitch": 60, "duration": 230, "velocity": 103}, {"time": 188640, "pitch": 64, "duration": 230, "velocity": 109}, {"time": 188650, "pitch": 67, "duration": 230, "velocity": 118}, {"time": 188880, "pitch": 60, "duration": 110, "velocity": 90}, {"time": 188880, "pitch": 64, "duration": 110, "velocity": 96}, {"time": 188890, "pitch": 67, "duration": 110, "velocity": 100}, {"time": 189000, "pitch": 64, "duration": 110, "velocity": 75}, {"time": 189000, "pitch": 67, "duration": 110, "velocity": 80}, {"time": 189010, "pitch": 60, "duration": 110, "velocity": 70}, {"time": 189120, "pitch": 60, "duration": 110, "velocity": 65}, {"time": 189120, "pitch": 64, "duration": 110, "velocity": 70}, {"time": 189130, "pitch": 67, "duration": 110, "velocity": 75}, {"time": 189240, "pitch": 64, "duration": 110, "velocity": 75}, {"time": 189240, "pitch": 67, "duration": 110, "velocity": 80}, {"time": 189250, "pitch": 60, "duration": 110, "velocity": 70}, {"time": 189360, "pitch": 60, "duration": 110, "velocity": 109}, {"time": 189360, "pitch": 64, "duration": 110, "velocity": 113}, {"time": 189370, "pitch": 67, "duration": 110, "velocity": 115}, {"time": 189480, "pitch": 64, "duration": 110, "velocity": 70}, {"time": 189480, "pitch": 67, "duration": 110, "velocity": 75}, {"time": 189490, "pitch": 60, "duration": 110, "velocity": 65}, {"time": 189600, "pitch": 60, "duration": 110, "velocity": 65}, {"time": 189600, "pitch": 64, "duration": 110, "velocity": 70}, {"time": 189610, "pitch": 67, "duration": 110, "velocity": 75}, {"time": 189720, "pitch": 64, "duration": 110, "velocity": 75}, {"time": 189720, "pitch": 67, "duration": 110, "velocity": 80}, {"time": 189730, "pitch": 60, "duration": 110, "velocity": 70}, {"time": 189840, "pitch": 60, "duration": 110, "velocity": 109}, {"time": 189840, "pitch": 64, "duration": 110, "velocity": 113}, {"time": 189850, "pitch": 67, "duration": 110, "velocity": 115}, {"time": 189960, "pitch": 64, "duration": 110, "velocity": 70}, {"time": 189960, "pitch": 67, "duration": 110, "velocity": 75}, {"time": 189970, "pitch": 60, "duration": 110, "velocity": 65}, {"time": 190080, "pitch": 60, "duration": 110, "velocity": 65}, {"time": 190080, "pitch": 64, "duration": 110, "velocity": 70}, {"time": 190090, "pitch": 67, "duration": 110, "velocity": 75}, {"time": 190200, "pitch": 60, "duration": 110, "velocity": 89}, {"time": 190200, "pitch": 64, "duration": 110, "velocity": 102}, {"time": 190210, "pitch": 67, "duration": 110, "velocity": 107}, {"time": 190320, "pitch": 60, "duration": 110, "velocity": 75}, {"time": 190320, "pitch": 64, "duration": 110, "velocity": 80}, {"time": 190330, "pitch": 67, "duration": 110, "velocity": 70}, {"time": 190440, "pitch": 64, "duration": 110, "velocity": 74}, {"time": 190440, "pitch": 67, "duration": 110, "velocity": 80}, {"time": 190450, "pitch": 60, "duration": 110, "velocity": 70}, {"time": 190560, "pitch": 58, "duration": 230, "velocity": 103}, {"time": 190560, "pitch": 62, "duration": 230, "velocity": 109}, {"time": 190570, "pitch": 67, "duration": 230, "velocity": 118}, {"time": 190800, "pitch": 58, "duration": 110, "velocity": 90}, {"time": 190800, "pitch": 62, "duration": 110, "velocity": 96}, {"time": 190810, "pitch": 67, "duration": 110, "velocity": 100}, {"time": 190920, "pitch": 62, "duration": 110, "velocity": 75}, {"time": 190920, "pitch": 67, "duration": 110, "velocity": 80}, {"time": 190930, "pitch": 58, "duration": 110, "velocity": 70}, {"time": 191040, "pitch": 58, "duration": 110, "velocity": 65}, {"time": 191040, "pitch": 62, "duration": 110, "velocity": 70}, {"time": 191050, "pitch": 67, "duration": 110, "velocity": 75}, {"time": 191160, "pitch": 62, "duration": 110, "velocity": 75}, {"time": 191160, "pitch": 67, "duration": 110, "velocity": 80}, {"time": 191170, "pitch": 58, "duration": 110, "velocity": 70}, {"time": 191280, "pitch": 58, "duration": 110, "velocity": 109}, {"time": 191280, "pitch": 62, "duration": 110, "velocity": 113}, {"time": 191290, "pitch": 67, "duration": 110, "velocity": 115}, {"time": 191400, "pitch": 62, "duration": 110, "velocity": 70}, {"time": 191400, "pitch": 67, "duration": 110, "velocity": 75}, {"time": 191410, "pitch": 58, "duration": 110, "velocity": 65}, {"time": 191520, "pitch": 58, "duration": 110, "velocity": 65}, {"time": 191520, "pitch": 62, "duration": 110, "velocity": 70}, {"time": 191530, "pitch": 67, "duration": 110, "velocity": 75}, {"time": 191640, "pitch": 62, "duration": 110, "velocity": 75}, {"time": 191640, "pitch": 67, "duration": 110, "velocity": 80}, {"time": 191650, "pitch": 58, "duration": 110, "velocity": 70}, {"time": 191760, "pitch": 58, "duration": 110, "velocity": 109}, {"time": 191760, "pitch": 62, "duration": 110, "velocity": 113}, {"time": 191770, "pitch": 67, "duration": 110, "velocity": 115}, {"time": 191880, "pitch": 62, "duration": 110, "velocity": 70}, {"time": 191880, "pitch": 67, "duration": 110, "velocity": 75}, {"time": 191890, "pitch": 58, "duration": 110, "velocity": 65}, {"time": 192000, "pitch": 58, "duration": 110, "velocity": 65}, {"time": 192000, "pitch": 62, "duration": 110, "velocity": 70}, {"time": 192010, "pitch": 67, "duration": 110, "velocity": 75}, {"time": 192120, "pitch": 58, "duration": 110, "velocity": 89}, {"time": 192120, "pitch": 62, "duration": 110, "velocity": 102}, {"time": 192130, "pitch": 67, "duration": 110, "velocity": 107}, {"time": 192240, "pitch": 58, "duration": 110, "velocity": 75}, {"time": 192240, "pitch": 62, "duration": 110, "velocity": 80}, {"time": 192250, "pitch": 67, "duration": 110, "velocity": 70}, {"time": 192360, "pitch": 62, "duration": 110, "velocity": 74}, {"time": 192360, "pitch": 67, "duration": 110, "velocity": 80}, {"time": 192370, "pitch": 58, "duration": 110, "velocity": 70}, {"time": 192480, "pitch": 60, "duration": 230, "velocity": 103}, {"time": 192480, "pitch": 64, "duration": 230, "velocity": 109}, {"time": 192490, "pitch": 67, "duration": 230, "velocity": 118}, {"time": 192720, "pitch": 60, "duration": 110, "velocity": 90}, {"time": 192720, "pitch": 64, "duration": 110, "velocity": 96}, {"time": 192730, "pitch": 67, "duration": 110, "velocity": 100}, {"time": 192840, "pitch": 64, "duration": 110, "velocity": 75}, {"time": 192840, "pitch": 67, "duration": 110, "velocity": 80}, {"time": 192850, "pitch": 60, "duration": 110, "velocity": 70}, {"time": 192960, "pitch": 60, "duration": 110, "velocity": 65}, {"time": 192960, "pitch": 64, "duration": 110, "velocity": 70}, {"time": 192970, "pitch": 67, "duration": 110, "velocity": 75}, {"time": 193080, "pitch": 64, "duration": 110, "velocity": 75}, {"time": 193080, "pitch": 67, "duration": 110, "velocity": 80}, {"time": 193090, "pitch": 60, "duration": 110, "velocity": 70}, {"time": 193200, "pitch": 60, "duration": 110, "velocity": 109}, {"time": 193200, "pitch": 64, "duration": 110, "velocity": 113}, {"time": 193210, "pitch": 67, "duration": 110, "velocity": 115}, {"time": 193320, "pitch": 64, "duration": 110, "velocity": 70}, {"time": 193320, "pitch": 67, "duration": 110, "velocity": 75}, {"time": 193330, "pitch": 60, "duration": 110, "velocity": 65}, {"time": 193440, "pitch": 60, "duration": 110, "velocity": 65}, {"time": 193440, "pitch": 64, "duration": 110, "velocity": 70}, {"time": 193450, "pitch": 67, "duration": 110, "velocity": 75}, {"time": 193560, "pitch": 64, "duration": 110, "velocity": 75}, {"time": 193560, "pitch": 67, "duration": 110, "velocity": 80}, {"time": 193570, "pitch": 60, "duration": 110, "velocity": 70}, {"time": 193680, "pitch": 60, "duration": 110, "velocity": 109}, {"time": 193680, "pitch": 64, "duration": 110, "velocity": 113}, {"time": 193690, "pitch": 67, "duration": 110, "velocity": 115}, {"time": 193800, "pitch": 64, "duration": 110, "velocity": 70}, {"time": 193800, "pitch": 67, "duration": 110, "velocity": 75}, {"time": 193810, "pitch": 60, "duration": 110, "velocity": 65}, {"time": 193920, "pitch": 60, "duration": 110, "velocity": 65}, {"time": 193920, "pitch": 64, "duration": 110, "velocity": 70}, {"time": 193930, "pitch": 67, "duration": 110, "velocity": 75}, {"time": 194040, "pitch": 60, "duration": 110, "velocity": 89}, {"time": 194040, "pitch": 64, "duration": 110, "velocity": 102}, {"time": 194050, "pitch": 67, "duration": 110, "velocity": 107}, {"time": 194160, "pitch": 60, "duration": 110, "velocity": 75}, {"time": 194160, "pitch": 64, "duration": 110, "velocity": 80}, {"time": 194170, "pitch": 67, "duration": 110, "velocity": 70}, {"time": 194280, "pitch": 64, "duration": 110, "velocity": 74}, {"time": 194280, "pitch": 67, "duration": 110, "velocity": 80}, {"time": 194290, "pitch": 60, "duration": 110, "velocity": 70}, {"time": 194400, "pitch": 60, "duration": 230, "velocity": 103}, {"time": 194400, "pitch": 63, "duration": 230, "velocity": 109}, {"time": 194410, "pitch": 67, "duration": 230, "velocity": 118}, {"time": 194640, "pitch": 60, "duration": 110, "velocity": 90}, {"time": 194640, "pitch": 63, "duration": 110, "velocity": 96}, {"time": 194650, "pitch": 67, "duration": 110, "velocity": 100}, {"time": 194760, "pitch": 63, "duration": 110, "velocity": 75}, {"time": 194760, "pitch": 67, "duration": 110, "velocity": 80}, {"time": 194770, "pitch": 60, "duration": 110, "velocity": 70}, {"time": 194880, "pitch": 60, "duration": 110, "velocity": 65}, {"time": 194880, "pitch": 63, "duration": 110, "velocity": 70}, {"time": 194890, "pitch": 67, "duration": 110, "velocity": 75}, {"time": 195000, "pitch": 63, "duration": 110, "velocity": 75}, {"time": 195000, "pitch": 67, "duration": 110, "velocity": 80}, {"time": 195010, "pitch": 60, "duration": 110, "velocity": 70}, {"time": 195120, "pitch": 60, "duration": 110, "velocity": 109}, {"time": 195120, "pitch": 63, "duration": 110, "velocity": 113}, {"time": 195130, "pitch": 67, "duration": 110, "velocity": 115}, {"time": 195240, "pitch": 63, "duration": 110, "velocity": 70}, {"time": 195240, "pitch": 67, "duration": 110, "velocity": 75}, {"time": 195250, "pitch": 60, "duration": 110, "velocity": 65}, {"time": 195360, "pitch": 57, "duration": 110, "velocity": 65}, {"time": 195360, "pitch": 60, "duration": 110, "velocity": 70}, {"time": 195370, "pitch": 65, "duration": 110, "velocity": 75}, {"time": 195480, "pitch": 60, "duration": 110, "velocity": 75}, {"time": 195480, "pitch": 65, "duration": 110, "velocity": 80}, {"time": 195490, "pitch": 57, "duration": 110, "velocity": 70}, {"time": 195600, "pitch": 57, "duration": 110, "velocity": 109}, {"time": 195600, "pitch": 60, "duration": 110, "velocity": 113}, {"time": 195610, "pitch": 65, "duration": 110, "velocity": 115}, {"time": 195720, "pitch": 60, "duration": 110, "velocity": 70}, {"time": 195720, "pitch": 65, "duration": 110, "velocity": 75}, {"time": 195730, "pitch": 57, "duration": 110, "velocity": 65}, {"time": 195840, "pitch": 57, "duration": 110, "velocity": 65}, {"time": 195840, "pitch": 60, "duration": 110, "velocity": 70}, {"time": 195850, "pitch": 65, "duration": 110, "velocity": 75}, {"time": 195960, "pitch": 57, "duration": 110, "velocity": 89}, {"time": 195960, "pitch": 60, "duration": 110, "velocity": 102}, {"time": 195970, "pitch": 65, "duration": 110, "velocity": 107}, {"time": 196080, "pitch": 57, "duration": 110, "velocity": 75}, {"time": 196080, "pitch": 60, "duration": 110, "velocity": 80}, {"time": 196090, "pitch": 65, "duration": 110, "velocity": 70}, {"time": 196200, "pitch": 60, "duration": 110, "velocity": 74}, {"time": 196200, "pitch": 65, "duration": 110, "velocity": 80}, {"time": 196210, "pitch": 57, "duration": 110, "velocity": 70}, {"time": 196320, "pitch": 60, "duration": 230, "velocity": 103}, {"time": 196320, "pitch": 64, "duration": 230, "velocity": 109}, {"time": 196330, "pitch": 67, "duration": 230, "velocity": 118}, {"time": 196560, "pitch": 60, "duration": 110, "velocity": 90}, {"time": 196560, "pitch": 64, "duration": 110, "velocity": 96}, {"time": 196570, "pitch": 67, "duration": 110, "velocity": 100}, {"time": 196680, "pitch": 64, "duration": 110, "velocity": 75}, {"time": 196680, "pitch": 67, "duration": 110, "velocity": 80}, {"time": 196690, "pitch": 60, "duration": 110, "velocity": 70}, {"time": 196800, "pitch": 60, "duration": 110, "velocity": 65}, {"time": 196800, "pitch": 64, "duration": 110, "velocity": 70}, {"time": 196810, "pitch": 67, "duration": 110, "velocity": 75}, {"time": 196920, "pitch": 64, "duration": 110, "velocity": 75}, {"time": 196920, "pitch": 67, "duration": 110, "velocity": 80}, {"time": 196930, "pitch": 60, "duration": 110, "velocity": 70}, {"time": 197040, "pitch": 60, "duration": 110, "velocity": 109}, {"time": 197040, "pitch": 64, "duration": 110, "velocity": 113}, {"time": 197050, "pitch": 67, "duration": 110, "velocity": 115}, {"time": 197160, "pitch": 64, "duration": 110, "velocity": 70}, {"time": 197160, "pitch": 67, "duration": 110, "velocity": 75}, {"time": 197170, "pitch": 60, "duration": 110, "velocity": 65}, {"time": 197280, "pitch": 60, "duration": 110, "velocity": 65}, {"time": 197280, "pitch": 64, "duration": 110, "velocity": 70}, {"time": 197290, "pitch": 67, "duration": 110, "velocity": 75}, {"time": 197400, "pitch": 64, "duration": 110, "velocity": 75}, {"time": 197400, "pitch": 67, "duration": 110, "velocity": 80}, {"time": 197410, "pitch": 60, "duration": 110, "velocity": 70}, {"time": 197520, "pitch": 60, "duration": 110, "velocity": 109}, {"time": 197520, "pitch": 64, "duration": 110, "velocity": 113}, {"time": 197530, "pitch": 67, "duration": 110, "velocity": 115}, {"time": 197640, "pitch": 64, "duration": 110, "velocity": 70}, {"time": 197640, "pitch": 67, "duration": 110, "velocity": 75}, {"time": 197650, "pitch": 60, "duration": 110, "velocity": 65}, {"time": 197760, "pitch": 60, "duration": 110, "velocity": 65}, {"time": 197760, "pitch": 64, "duration": 110, "velocity": 70}, {"time": 197770, "pitch": 67, "duration": 110, "velocity": 75}, {"time": 197880, "pitch": 60, "duration": 110, "velocity": 89}, {"time": 197880, "pitch": 64, "duration": 110, "velocity": 102}, {"time": 197890, "pitch": 67, "duration": 110, "velocity": 107}, {"time": 198000, "pitch": 60, "duration": 110, "velocity": 75}, {"time": 198000, "pitch": 64, "duration": 110, "velocity": 80}, {"time": 198010, "pitch": 67, "duration": 110, "velocity": 70}, {"time": 198120, "pitch": 64, "duration": 110, "velocity": 74}, {"time": 198120, "pitch": 67, "duration": 110, "velocity": 80}, {"time": 198130, "pitch": 60, "duration": 110, "velocity": 70}, {"time": 198240, "pitch": 58, "duration": 230, "velocity": 103}, {"time": 198240, "pitch": 62, "duration": 230, "velocity": 109}, {"time": 198250, "pitch": 67, "duration": 230, "velocity": 118}, {"time": 198480, "pitch": 58, "duration": 110, "velocity": 90}, {"time": 198480, "pitch": 62, "duration": 110, "velocity": 96}, {"time": 198490, "pitch": 67, "duration": 110, "velocity": 100}, {"time": 198600, "pitch": 62, "duration": 110, "velocity": 75}, {"time": 198600, "pitch": 67, "duration": 110, "velocity": 80}, {"time": 198610, "pitch": 58, "duration": 110, "velocity": 70}, {"time": 198720, "pitch": 58, "duration": 110, "velocity": 65}, {"time": 198720, "pitch": 62, "duration": 110, "velocity": 70}, {"time": 198730, "pitch": 67, "duration": 110, "velocity": 75}, {"time": 198840, "pitch": 62, "duration": 110, "velocity": 75}, {"time": 198840, "pitch": 67, "duration": 110, "velocity": 80}, {"time": 198850, "pitch": 58, "duration": 110, "velocity": 70}, {"time": 198960, "pitch": 58, "duration": 110, "velocity": 109}, {"time": 198960, "pitch": 62, "duration": 110, "velocity": 113}, {"time": 198970, "pitch": 67, "duration": 110, "velocity": 115}, {"time": 199080, "pitch": 62, "duration": 110, "velocity": 70}, {"time": 199080, "pitch": 67, "duration": 110, "velocity": 75}, {"time": 199090, "pitch": 58, "duration": 110, "velocity": 65}, {"time": 199200, "pitch": 58, "duration": 110, "velocity": 65}, {"time": 199200, "pitch": 62, "duration": 110, "velocity": 70}, {"time": 199210, "pitch": 67, "duration": 110, "velocity": 75}, {"time": 199320, "pitch": 62, "duration": 110, "velocity": 75}, {"time": 199320, "pitch": 67, "duration": 110, "velocity": 80}, {"time": 199330, "pitch": 58, "duration": 110, "velocity": 70}, {"time": 199440, "pitch": 58, "duration": 110, "velocity": 109}, {"time": 199440, "pitch": 62, "duration": 110, "velocity": 113}, {"time": 199450, "pitch": 67, "duration": 110, "velocity": 115}, {"time": 199560, "pitch": 62, "duration": 110, "velocity": 70}, {"time": 199560, "pitch": 67, "duration": 110, "velocity": 75}, {"time": 199570, "pitch": 58, "duration": 110, "velocity": 65}, {"time": 199680, "pitch": 58, "duration": 110, "velocity": 65}, {"time": 199680, "pitch": 62, "duration": 110, "velocity": 70}, {"time": 199690, "pitch": 67, "duration": 110, "velocity": 75}, {"time": 199800, "pitch": 58, "duration": 110, "velocity": 89}, {"time": 199800, "pitch": 62, "duration": 110, "velocity": 102}, {"time": 199810, "pitch": 67, "duration": 110, "velocity": 107}, {"time": 199920, "pitch": 58, "duration": 110, "velocity": 75}, {"time": 199920, "pitch": 62, "duration": 110, "velocity": 80}, {"time": 199930, "pitch": 67, "duration": 110, "velocity": 70}, {"time": 200040, "pitch": 62, "duration": 110, "velocity": 74}, {"time": 200040, "pitch": 67, "duration": 110, "velocity": 80}, {"time": 200050, "pitch": 58, "duration": 110, "velocity": 70}, {"time": 200160, "pitch": 60, "duration": 230, "velocity": 103}, {"time": 200160, "pitch": 64, "duration": 230, "velocity": 109}, {"time": 200170, "pitch": 67, "duration": 230, "velocity": 118}, {"time": 200400, "pitch": 60, "duration": 110, "velocity": 90}, {"time": 200400, "pitch": 64, "duration": 110, "velocity": 96}, {"time": 200410, "pitch": 67, "duration": 110, "velocity": 100}, {"time": 200520, "pitch": 64, "duration": 110, "velocity": 75}, {"time": 200520, "pitch": 67, "duration": 110, "velocity": 80}, {"time": 200530, "pitch": 60, "duration": 110, "velocity": 70}, {"time": 200640, "pitch": 60, "duration": 110, "velocity": 65}, {"time": 200640, "pitch": 64, "duration": 110, "velocity": 70}, {"time": 200650, "pitch": 67, "duration": 110, "velocity": 75}, {"time": 200760, "pitch": 64, "duration": 110, "velocity": 75}, {"time": 200760, "pitch": 67, "duration": 110, "velocity": 80}, {"time": 200770, "pitch": 60, "duration": 110, "velocity": 70}, {"time": 200880, "pitch": 60, "duration": 110, "velocity": 109}, {"time": 200880, "pitch": 64, "duration": 110, "velocity": 113}, {"time": 200890, "pitch": 67, "duration": 110, "velocity": 115}, {"time": 201000, "pitch": 64, "duration": 110, "velocity": 70}, {"time": 201000, "pitch": 67, "duration": 110, "velocity": 75}, {"time": 201010, "pitch": 60, "duration": 110, "velocity": 65}, {"time": 201120, "pitch": 60, "duration": 110, "velocity": 65}, {"time": 201120, "pitch": 64, "duration": 110, "velocity": 70}, {"time": 201130, "pitch": 67, "duration": 110, "velocity": 75}, {"time": 201240, "pitch": 64, "duration": 110, "velocity": 75}, {"time": 201240, "pitch": 67, "duration": 110, "velocity": 80}, {"time": 201250, "pitch": 60, "duration": 110, "velocity": 70}, {"time": 201360, "pitch": 60, "duration": 110, "velocity": 109}, {"time": 201360, "pitch": 64, "duration": 110, "velocity": 113}, {"time": 201370, "pitch": 67, "duration": 110, "velocity": 115}, {"time": 201480, "pitch": 64, "duration": 110, "velocity": 70}, {"time": 201480, "pitch": 67, "duration": 110, "velocity": 75}, {"time": 201490, "pitch": 60, "duration": 110, "velocity": 65}, {"time": 201600, "pitch": 60, "duration": 110, "velocity": 65}, {"time": 201600, "pitch": 64, "duration": 110, "velocity": 70}, {"time": 201610, "pitch": 67, "duration": 110, "velocity": 75}, {"time": 201720, "pitch": 60, "duration": 110, "velocity": 89}, {"time": 201720, "pitch": 64, "duration": 110, "velocity": 102}, {"time": 201730, "pitch": 67, "duration": 110, "velocity": 107}, {"time": 201840, "pitch": 60, "duration": 110, "velocity": 75}, {"time": 201840, "pitch": 64, "duration": 110, "velocity": 80}, {"time": 201850, "pitch": 67, "duration": 110, "velocity": 70}, {"time": 201960, "pitch": 64, "duration": 110, "velocity": 74}, {"time": 201960, "pitch": 67, "duration": 110, "velocity": 80}, {"time": 201970, "pitch": 60, "duration": 110, "velocity": 70}, {"time": 202080, "pitch": 60, "duration": 230, "velocity": 103}, {"time": 202080, "pitch": 63, "duration": 230, "velocity": 109}, {"time": 202090, "pitch": 67, "duration": 230, "velocity": 118}, {"time": 202320, "pitch": 60, "duration": 110, "velocity": 90}, {"time": 202320, "pitch": 63, "duration": 110, "velocity": 96}, {"time": 202330, "pitch": 67, "duration": 110, "velocity": 100}, {"time": 202440, "pitch": 63, "duration": 110, "velocity": 75}, {"time": 202440, "pitch": 67, "duration": 110, "velocity": 80}, {"time": 202450, "pitch": 60, "duration": 110, "velocity": 70}, {"time": 202560, "pitch": 60, "duration": 110, "velocity": 65}, {"time": 202560, "pitch": 63, "duration": 110, "velocity": 70}, {"time": 202570, "pitch": 67, "duration": 110, "velocity": 75}, {"time": 202680, "pitch": 63, "duration": 110, "velocity": 75}, {"time": 202680, "pitch": 67, "duration": 110, "velocity": 80}, {"time": 202690, "pitch": 60, "duration": 110, "velocity": 70}, {"time": 202800, "pitch": 60, "duration": 110, "velocity": 109}, {"time": 202800, "pitch": 63, "duration": 110, "velocity": 113}, {"time": 202810, "pitch": 67, "duration": 110, "velocity": 115}, {"time": 202920, "pitch": 63, "duration": 110, "velocity": 70}, {"time": 202920, "pitch": 67, "duration": 110, "velocity": 75}, {"time": 202930, "pitch": 60, "duration": 110, "velocity": 65}, {"time": 203040, "pitch": 57, "duration": 110, "velocity": 65}, {"time": 203040, "pitch": 60, "duration": 110, "velocity": 70}, {"time": 203050, "pitch": 65, "duration": 110, "velocity": 75}, {"time": 203160, "pitch": 60, "duration": 110, "velocity": 75}, {"time": 203160, "pitch": 65, "duration": 110, "velocity": 80}, {"time": 203170, "pitch": 57, "duration": 110, "velocity": 70}, {"time": 203280, "pitch": 57, "duration": 110, "velocity": 109}, {"time": 203280, "pitch": 60, "duration": 110, "velocity": 113}, {"time": 203290, "pitch": 65, "duration": 110, "velocity": 115}, {"time": 203400, "pitch": 60, "duration": 110, "velocity": 70}, {"time": 203400, "pitch": 65, "duration": 110, "velocity": 75}, {"time": 203410, "pitch": 57, "duration": 110, "velocity": 65}, {"time": 203520, "pitch": 57, "duration": 110, "velocity": 65}, {"time": 203520, "pitch": 60, "duration": 110, "velocity": 70}, {"time": 203530, "pitch": 65, "duration": 110, "velocity": 75}, {"time": 203640, "pitch": 57, "duration": 110, "velocity": 89}, {"time": 203640, "pitch": 60, "duration": 110, "velocity": 102}, {"time": 203650, "pitch": 65, "duration": 110, "velocity": 107}, {"time": 203760, "pitch": 57, "duration": 110, "velocity": 75}, {"time": 203760, "pitch": 60, "duration": 110, "velocity": 80}, {"time": 203770, "pitch": 65, "duration": 110, "velocity": 70}, {"time": 203880, "pitch": 60, "duration": 110, "velocity": 74}, {"time": 203880, "pitch": 65, "duration": 110, "velocity": 80}, {"time": 203890, "pitch": 57, "duration": 110, "velocity": 70}, {"time": 204000, "pitch": 60, "duration": 230, "velocity": 103}, {"time": 204000, "pitch": 64, "duration": 230, "velocity": 109}, {"time": 204010, "pitch": 67, "duration": 230, "velocity": 118}, {"time": 204240, "pitch": 60, "duration": 110, "velocity": 90}, {"time": 204240, "pitch": 64, "duration": 110, "velocity": 96}, {"time": 204250, "pitch": 67, "duration": 110, "velocity": 100}, {"time": 204360, "pitch": 64, "duration": 110, "velocity": 75}, {"time": 204360, "pitch": 67, "duration": 110, "velocity": 80}, {"time": 204370, "pitch": 60, "duration": 110, "velocity": 70}, {"time": 204480, "pitch": 60, "duration": 110, "velocity": 65}, {"time": 204480, "pitch": 64, "duration": 110, "velocity": 70}, {"time": 204490, "pitch": 67, "duration": 110, "velocity": 75}, {"time": 204600, "pitch": 64, "duration": 110, "velocity": 75}, {"time": 204600, "pitch": 67, "duration": 110, "velocity": 80}, {"time": 204610, "pitch": 60, "duration": 110, "velocity": 70}, {"time": 204720, "pitch": 60, "duration": 110, "velocity": 109}, {"time": 204720, "pitch": 64, "duration": 110, "velocity": 113}, {"time": 204730, "pitch": 67, "duration": 110, "velocity": 115}, {"time": 204840, "pitch": 64, "duration": 110, "velocity": 70}, {"time": 204840, "pitch": 67, "duration": 110, "velocity": 75}, {"time": 204850, "pitch": 60, "duration": 110, "velocity": 65}, {"time": 204960, "pitch": 60, "duration": 110, "velocity": 65}, {"time": 204960, "pitch": 64, "duration": 110, "velocity": 70}, {"time": 204970, "pitch": 67, "duration": 110, "velocity": 75}, {"time": 205080, "pitch": 64, "duration": 110, "velocity": 75}, {"time": 205080, "pitch": 67, "duration": 110, "velocity": 80}, {"time": 205090, "pitch": 60, "duration": 110, "velocity": 70}, {"time": 205200, "pitch": 60, "duration": 110, "velocity": 109}, {"time": 205200, "pitch": 64, "duration": 110, "velocity": 113}, {"time": 205210, "pitch": 67, "duration": 110, "velocity": 115}, {"time": 205320, "pitch": 64, "duration": 110, "velocity": 70}, {"time": 205320, "pitch": 67, "duration": 110, "velocity": 75}, {"time": 205330, "pitch": 60, "duration": 110, "velocity": 65}, {"time": 205440, "pitch": 60, "duration": 110, "velocity": 65}, {"time": 205440, "pitch": 64, "duration": 110, "velocity": 70}, {"time": 205450, "pitch": 67, "duration": 110, "velocity": 75}, {"time": 205560, "pitch": 60, "duration": 110, "velocity": 89}, {"time": 205560, "pitch": 64, "duration": 110, "velocity": 102}, {"time": 205570, "pitch": 67, "duration": 110, "velocity": 107}, {"time": 205680, "pitch": 60, "duration": 110, "velocity": 75}, {"time": 205680, "pitch": 64, "duration": 110, "velocity": 80}, {"time": 205690, "pitch": 67, "duration": 110, "velocity": 70}, {"time": 205800, "pitch": 64, "duration": 110, "velocity": 74}, {"time": 205800, "pitch": 67, "duration": 110, "velocity": 80}, {"time": 205810, "pitch": 60, "duration": 110, "velocity": 70}, {"time": 205920, "pitch": 58, "duration": 230, "velocity": 103}, {"time": 205920, "pitch": 62, "duration": 230, "velocity": 109}, {"time": 205930, "pitch": 67, "duration": 230, "velocity": 118}, {"time": 206160, "pitch": 58, "duration": 110, "velocity": 90}, {"time": 206160, "pitch": 62, "duration": 110, "velocity": 96}, {"time": 206170, "pitch": 67, "duration": 110, "velocity": 100}, {"time": 206280, "pitch": 62, "duration": 110, "velocity": 75}, {"time": 206280, "pitch": 67, "duration": 110, "velocity": 80}, {"time": 206290, "pitch": 58, "duration": 110, "velocity": 70}, {"time": 206400, "pitch": 58, "duration": 110, "velocity": 65}, {"time": 206400, "pitch": 62, "duration": 110, "velocity": 70}, {"time": 206410, "pitch": 67, "duration": 110, "velocity": 75}, {"time": 206520, "pitch": 62, "duration": 110, "velocity": 75}, {"time": 206520, "pitch": 67, "duration": 110, "velocity": 80}, {"time": 206530, "pitch": 58, "duration": 110, "velocity": 70}, {"time": 206640, "pitch": 58, "duration": 110, "velocity": 109}, {"time": 206640, "pitch": 62, "duration": 110, "velocity": 113}, {"time": 206650, "pitch": 67, "duration": 110, "velocity": 115}, {"time": 206760, "pitch": 62, "duration": 110, "velocity": 70}, {"time": 206760, "pitch": 67, "duration": 110, "velocity": 75}, {"time": 206770, "pitch": 58, "duration": 110, "velocity": 65}, {"time": 206880, "pitch": 58, "duration": 110, "velocity": 65}, {"time": 206880, "pitch": 62, "duration": 110, "velocity": 70}, {"time": 206890, "pitch": 67, "duration": 110, "velocity": 75}, {"time": 207000, "pitch": 62, "duration": 110, "velocity": 75}, {"time": 207000, "pitch": 67, "duration": 110, "velocity": 80}, {"time": 207010, "pitch": 58, "duration": 110, "velocity": 70}, {"time": 207120, "pitch": 58, "duration": 110, "velocity": 109}, {"time": 207120, "pitch": 62, "duration": 110, "velocity": 113}, {"time": 207130, "pitch": 67, "duration": 110, "velocity": 115}, {"time": 207240, "pitch": 62, "duration": 110, "velocity": 70}, {"time": 207240, "pitch": 67, "duration": 110, "velocity": 75}, {"time": 207250, "pitch": 58, "duration": 110, "velocity": 65}, {"time": 207360, "pitch": 58, "duration": 110, "velocity": 65}, {"time": 207360, "pitch": 62, "duration": 110, "velocity": 70}, {"time": 207370, "pitch": 67, "duration": 110, "velocity": 75}, {"time": 207480, "pitch": 58, "duration": 110, "velocity": 89}, {"time": 207480, "pitch": 62, "duration": 110, "velocity": 102}, {"time": 207490, "pitch": 67, "duration": 110, "velocity": 107}, {"time": 207600, "pitch": 58, "duration": 110, "velocity": 75}, {"time": 207600, "pitch": 62, "duration": 110, "velocity": 80}, {"time": 207610, "pitch": 67, "duration": 110, "velocity": 70}, {"time": 207720, "pitch": 62, "duration": 110, "velocity": 74}, {"time": 207720, "pitch": 67, "duration": 110, "velocity": 80}, {"time": 207730, "pitch": 58, "duration": 110, "velocity": 70}, {"time": 207840, "pitch": 60, "duration": 230, "velocity": 103}, {"time": 207840, "pitch": 64, "duration": 230, "velocity": 109}, {"time": 207850, "pitch": 67, "duration": 230, "velocity": 118}, {"time": 208080, "pitch": 60, "duration": 110, "velocity": 90}, {"time": 208080, "pitch": 64, "duration": 110, "velocity": 96}, {"time": 208090, "pitch": 67, "duration": 110, "velocity": 100}, {"time": 208200, "pitch": 64, "duration": 110, "velocity": 75}, {"time": 208200, "pitch": 67, "duration": 110, "velocity": 80}, {"time": 208210, "pitch": 60, "duration": 110, "velocity": 70}, {"time": 208320, "pitch": 60, "duration": 110, "velocity": 65}, {"time": 208320, "pitch": 64, "duration": 110, "velocity": 70}, {"time": 208330, "pitch": 67, "duration": 110, "velocity": 75}, {"time": 208440, "pitch": 64, "duration": 110, "velocity": 75}, {"time": 208440, "pitch": 67, "duration": 110, "velocity": 80}, {"time": 208450, "pitch": 60, "duration": 110, "velocity": 70}, {"time": 208560, "pitch": 60, "duration": 110, "velocity": 109}, {"time": 208560, "pitch": 64, "duration": 110, "velocity": 113}, {"time": 208570, "pitch": 67, "duration": 110, "velocity": 115}, {"time": 208680, "pitch": 64, "duration": 110, "velocity": 70}, {"time": 208680, "pitch": 67, "duration": 110, "velocity": 75}, {"time": 208690, "pitch": 60, "duration": 110, "velocity": 65}, {"time": 208800, "pitch": 60, "duration": 110, "velocity": 65}, {"time": 208800, "pitch": 64, "duration": 110, "velocity": 70}, {"time": 208810, "pitch": 67, "duration": 110, "velocity": 75}, {"time": 208920, "pitch": 64, "duration": 110, "velocity": 75}, {"time": 208920, "pitch": 67, "duration": 110, "velocity": 80}, {"time": 208930, "pitch": 60, "duration": 110, "velocity": 70}, {"time": 209040, "pitch": 60, "duration": 110, "velocity": 109}, {"time": 209040, "pitch": 64, "duration": 110, "velocity": 113}, {"time": 209050, "pitch": 67, "duration": 110, "velocity": 115}, {"time": 209160, "pitch": 64, "duration": 110, "velocity": 70}, {"time": 209160, "pitch": 67, "duration": 110, "velocity": 75}, {"time": 209170, "pitch": 60, "duration": 110, "velocity": 65}, {"time": 209280, "pitch": 60, "duration": 110, "velocity": 65}, {"time": 209280, "pitch": 64, "duration": 110, "velocity": 70}, {"time": 209290, "pitch": 67, "duration": 110, "velocity": 75}, {"time": 209400, "pitch": 60, "duration": 110, "velocity": 89}, {"time": 209400, "pitch": 64, "duration": 110, "velocity": 102}, {"time": 209410, "pitch": 67, "duration": 110, "velocity": 107}, {"time": 209520, "pitch": 60, "duration": 110, "velocity": 75}, {"time": 209520, "pitch": 64, "duration": 110, "velocity": 80}, {"time": 209530, "pitch": 67, "duration": 110, "velocity": 70}, {"time": 209640, "pitch": 64, "duration": 110, "velocity": 74}, {"time": 209640, "pitch": 67, "duration": 110, "velocity": 80}, {"time": 209650, "pitch": 60, "duration": 110, "velocity": 70}, {"time": 209760, "pitch": 60, "duration": 230, "velocity": 103}, {"time": 209760, "pitch": 63, "duration": 230, "velocity": 109}, {"time": 209770, "pitch": 67, "duration": 230, "velocity": 118}, {"time": 210000, "pitch": 60, "duration": 110, "velocity": 90}, {"time": 210000, "pitch": 63, "duration": 110, "velocity": 96}, {"time": 210010, "pitch": 67, "duration": 110, "velocity": 100}, {"time": 210120, "pitch": 63, "duration": 110, "velocity": 75}, {"time": 210120, "pitch": 67, "duration": 110, "velocity": 80}, {"time": 210130, "pitch": 60, "duration": 110, "velocity": 70}, {"time": 210240, "pitch": 60, "duration": 110, "velocity": 65}, {"time": 210240, "pitch": 63, "duration": 110, "velocity": 70}, {"time": 210250, "pitch": 67, "duration": 110, "velocity": 75}, {"time": 210360, "pitch": 63, "duration": 110, "velocity": 75}, {"time": 210360, "pitch": 67, "duration": 110, "velocity": 80}, {"time": 210370, "pitch": 60, "duration": 110, "velocity": 70}, {"time": 210480, "pitch": 60, "duration": 110, "velocity": 109}, {"time": 210480, "pitch": 63, "duration": 110, "velocity": 113}, {"time": 210490, "pitch": 67, "duration": 110, "velocity": 115}, {"time": 210600, "pitch": 63, "duration": 110, "velocity": 70}, {"time": 210600, "pitch": 67, "duration": 110, "velocity": 75}, {"time": 210610, "pitch": 60, "duration": 110, "velocity": 65}, {"time": 210720, "pitch": 57, "duration": 110, "velocity": 65}, {"time": 210720, "pitch": 60, "duration": 110, "velocity": 70}, {"time": 210730, "pitch": 65, "duration": 110, "velocity": 75}, {"time": 210840, "pitch": 60, "duration": 110, "velocity": 75}, {"time": 210840, "pitch": 65, "duration": 110, "velocity": 80}, {"time": 210850, "pitch": 57, "duration": 110, "velocity": 70}, {"time": 210960, "pitch": 57, "duration": 110, "velocity": 109}, {"time": 210960, "pitch": 60, "duration": 110, "velocity": 113}, {"time": 210970, "pitch": 65, "duration": 110, "velocity": 115}, {"time": 211080, "pitch": 60, "duration": 110, "velocity": 70}, {"time": 211080, "pitch": 65, "duration": 110, "velocity": 75}, {"time": 211090, "pitch": 57, "duration": 110, "velocity": 65}, {"time": 211200, "pitch": 57, "duration": 110, "velocity": 65}, {"time": 211200, "pitch": 60, "duration": 110, "velocity": 70}, {"time": 211210, "pitch": 65, "duration": 110, "velocity": 75}, {"time": 211320, "pitch": 57, "duration": 110, "velocity": 89}, {"time": 211320, "pitch": 60, "duration": 110, "velocity": 102}, {"time": 211330, "pitch": 65, "duration": 110, "velocity": 107}, {"time": 211440, "pitch": 57, "duration": 110, "velocity": 75}, {"time": 211440, "pitch": 60, "duration": 110, "velocity": 80}, {"time": 211450, "pitch": 65, "duration": 110, "velocity": 70}, {"time": 211560, "pitch": 60, "duration": 110, "velocity": 74}, {"time": 211560, "pitch": 65, "duration": 110, "velocity": 80}, {"time": 211570, "pitch": 57, "duration": 110, "velocity": 70}, {"time": 211680, "pitch": 60, "duration": 230, "velocity": 103}, {"time": 211680, "pitch": 64, "duration": 230, "velocity": 109}, {"time": 211690, "pitch": 67, "duration": 230, "velocity": 118}, {"time": 211920, "pitch": 60, "duration": 110, "velocity": 90}, {"time": 211920, "pitch": 64, "duration": 110, "velocity": 96}, {"time": 211930, "pitch": 67, "duration": 110, "velocity": 100}, {"time": 212040, "pitch": 64, "duration": 110, "velocity": 75}, {"time": 212040, "pitch": 67, "duration": 110, "velocity": 80}, {"time": 212050, "pitch": 60, "duration": 110, "velocity": 70}, {"time": 212160, "pitch": 60, "duration": 110, "velocity": 65}, {"time": 212160, "pitch": 64, "duration": 110, "velocity": 70}, {"time": 212170, "pitch": 67, "duration": 110, "velocity": 75}, {"time": 212280, "pitch": 64, "duration": 110, "velocity": 75}, {"time": 212280, "pitch": 67, "duration": 110, "velocity": 80}, {"time": 212290, "pitch": 60, "duration": 110, "velocity": 70}, {"time": 212400, "pitch": 60, "duration": 110, "velocity": 109}, {"time": 212400, "pitch": 64, "duration": 110, "velocity": 113}, {"time": 212410, "pitch": 67, "duration": 110, "velocity": 115}, {"time": 212520, "pitch": 64, "duration": 110, "velocity": 70}, {"time": 212520, "pitch": 67, "duration": 110, "velocity": 75}, {"time": 212530, "pitch": 60, "duration": 110, "velocity": 65}, {"time": 212640, "pitch": 60, "duration": 110, "velocity": 65}, {"time": 212640, "pitch": 64, "duration": 110, "velocity": 70}, {"time": 212650, "pitch": 67, "duration": 110, "velocity": 75}, {"time": 212760, "pitch": 64, "duration": 110, "velocity": 75}, {"time": 212760, "pitch": 67, "duration": 110, "velocity": 80}, {"time": 212770, "pitch": 60, "duration": 110, "velocity": 70}, {"time": 212880, "pitch": 60, "duration": 110, "velocity": 109}, {"time": 212880, "pitch": 64, "duration": 110, "velocity": 113}, {"time": 212890, "pitch": 67, "duration": 110, "velocity": 115}, {"time": 213000, "pitch": 64, "duration": 110, "velocity": 70}, {"time": 213000, "pitch": 67, "duration": 110, "velocity": 75}, {"time": 213010, "pitch": 60, "duration": 110, "velocity": 65}, {"time": 213120, "pitch": 60, "duration": 110, "velocity": 65}, {"time": 213120, "pitch": 64, "duration": 110, "velocity": 70}, {"time": 213130, "pitch": 67, "duration": 110, "velocity": 75}, {"time": 213240, "pitch": 60, "duration": 110, "velocity": 89}, {"time": 213240, "pitch": 64, "duration": 110, "velocity": 102}, {"time": 213250, "pitch": 67, "duration": 110, "velocity": 107}, {"time": 213360, "pitch": 60, "duration": 110, "velocity": 75}, {"time": 213360, "pitch": 64, "duration": 110, "velocity": 80}, {"time": 213370, "pitch": 67, "duration": 110, "velocity": 70}, {"time": 213480, "pitch": 64, "duration": 110, "velocity": 74}, {"time": 213480, "pitch": 67, "duration": 110, "velocity": 80}, {"time": 213490, "pitch": 60, "duration": 110, "velocity": 70}, {"time": 213600, "pitch": 58, "duration": 230, "velocity": 103}, {"time": 213600, "pitch": 62, "duration": 230, "velocity": 109}, {"time": 213610, "pitch": 67, "duration": 230, "velocity": 118}, {"time": 213840, "pitch": 58, "duration": 110, "velocity": 90}, {"time": 213840, "pitch": 62, "duration": 110, "velocity": 96}, {"time": 213850, "pitch": 67, "duration": 110, "velocity": 100}, {"time": 213960, "pitch": 62, "duration": 110, "velocity": 75}, {"time": 213960, "pitch": 67, "duration": 110, "velocity": 80}, {"time": 213970, "pitch": 58, "duration": 110, "velocity": 70}, {"time": 214080, "pitch": 58, "duration": 110, "velocity": 65}, {"time": 214080, "pitch": 62, "duration": 110, "velocity": 70}, {"time": 214090, "pitch": 67, "duration": 110, "velocity": 75}, {"time": 214200, "pitch": 62, "duration": 110, "velocity": 75}, {"time": 214200, "pitch": 67, "duration": 110, "velocity": 80}, {"time": 214210, "pitch": 58, "duration": 110, "velocity": 70}, {"time": 214320, "pitch": 58, "duration": 110, "velocity": 109}, {"time": 214320, "pitch": 62, "duration": 110, "velocity": 113}, {"time": 214330, "pitch": 67, "duration": 110, "velocity": 115}, {"time": 214440, "pitch": 62, "duration": 110, "velocity": 70}, {"time": 214440, "pitch": 67, "duration": 110, "velocity": 75}, {"time": 214450, "pitch": 58, "duration": 110, "velocity": 65}, {"time": 214560, "pitch": 58, "duration": 110, "velocity": 65}, {"time": 214560, "pitch": 62, "duration": 110, "velocity": 70}, {"time": 214570, "pitch": 67, "duration": 110, "velocity": 75}, {"time": 214680, "pitch": 62, "duration": 110, "velocity": 75}, {"time": 214680, "pitch": 67, "duration": 110, "velocity": 80}, {"time": 214690, "pitch": 58, "duration": 110, "velocity": 70}, {"time": 214800, "pitch": 58, "duration": 110, "velocity": 109}, {"time": 214800, "pitch": 62, "duration": 110, "velocity": 113}, {"time": 214810, "pitch": 67, "duration": 110, "velocity": 115}, {"time": 214920, "pitch": 62, "duration": 110, "velocity": 70}, {"time": 214920, "pitch": 67, "duration": 110, "velocity": 75}, {"time": 214930, "pitch": 58, "duration": 110, "velocity": 65}, {"time": 215040, "pitch": 58, "duration": 110, "velocity": 65}, {"time": 215040, "pitch": 62, "duration": 110, "velocity": 70}, {"time": 215050, "pitch": 67, "duration": 110, "velocity": 75}, {"time": 215160, "pitch": 58, "duration": 110, "velocity": 89}, {"time": 215160, "pitch": 62, "duration": 110, "velocity": 102}, {"time": 215170, "pitch": 67, "duration": 110, "velocity": 107}, {"time": 215280, "pitch": 58, "duration": 110, "velocity": 75}, {"time": 215280, "pitch": 62, "duration": 110, "velocity": 80}, {"time": 215290, "pitch": 67, "duration": 110, "velocity": 70}, {"time": 215400, "pitch": 62, "duration": 110, "velocity": 74}, {"time": 215400, "pitch": 67, "duration": 110, "velocity": 80}, {"time": 215410, "pitch": 58, "duration": 110, "velocity": 70}, {"time": 215520, "pitch": 60, "duration": 230, "velocity": 103}, {"time": 215520, "pitch": 64, "duration": 230, "velocity": 109}, {"time": 215530, "pitch": 67, "duration": 230, "velocity": 118}, {"time": 215760, "pitch": 60, "duration": 110, "velocity": 90}, {"time": 215760, "pitch": 64, "duration": 110, "velocity": 96}, {"time": 215770, "pitch": 67, "duration": 110, "velocity": 100}, {"time": 215880, "pitch": 64, "duration": 110, "velocity": 75}, {"time": 215880, "pitch": 67, "duration": 110, "velocity": 80}, {"time": 215890, "pitch": 60, "duration": 110, "velocity": 70}, {"time": 216000, "pitch": 60, "duration": 110, "velocity": 65}, {"time": 216000, "pitch": 64, "duration": 110, "velocity": 70}, {"time": 216010, "pitch": 67, "duration": 110, "velocity": 75}, {"time": 216120, "pitch": 64, "duration": 110, "velocity": 75}, {"time": 216120, "pitch": 67, "duration": 110, "velocity": 80}, {"time": 216130, "pitch": 60, "duration": 110, "velocity": 70}, {"time": 216240, "pitch": 60, "duration": 110, "velocity": 109}, {"time": 216240, "pitch": 64, "duration": 110, "velocity": 113}, {"time": 216250, "pitch": 67, "duration": 110, "velocity": 115}, {"time": 216360, "pitch": 64, "duration": 110, "velocity": 70}, {"time": 216360, "pitch": 67, "duration": 110, "velocity": 75}, {"time": 216370, "pitch": 60, "duration": 110, "velocity": 65}, {"time": 216480, "pitch": 60, "duration": 110, "velocity": 65}, {"time": 216480, "pitch": 64, "duration": 110, "velocity": 70}, {"time": 216490, "pitch": 67, "duration": 110, "velocity": 75}, {"time": 216600, "pitch": 64, "duration": 110, "velocity": 75}, {"time": 216600, "pitch": 67, "duration": 110, "velocity": 80}, {"time": 216610, "pitch": 60, "duration": 110, "velocity": 70}, {"time": 216720, "pitch": 60, "duration": 110, "velocity": 109}, {"time": 216720, "pitch": 64, "duration": 110, "velocity": 113}, {"time": 216730, "pitch": 67, "duration": 110, "velocity": 115}, {"time": 216840, "pitch": 64, "duration": 110, "velocity": 70}, {"time": 216840, "pitch": 67, "duration": 110, "velocity": 75}, {"time": 216850, "pitch": 60, "duration": 110, "velocity": 65}, {"time": 216960, "pitch": 60, "duration": 110, "velocity": 65}, {"time": 216960, "pitch": 64, "duration": 110, "velocity": 70}, {"time": 216970, "pitch": 67, "duration": 110, "velocity": 75}, {"time": 217080, "pitch": 60, "duration": 110, "velocity": 89}, {"time": 217080, "pitch": 64, "duration": 110, "velocity": 102}, {"time": 217090, "pitch": 67, "duration": 110, "velocity": 107}, {"time": 217200, "pitch": 60, "duration": 110, "velocity": 75}, {"time": 217200, "pitch": 64, "duration": 110, "velocity": 80}, {"time": 217210, "pitch": 67, "duration": 110, "velocity": 70}, {"time": 217320, "pitch": 64, "duration": 110, "velocity": 74}, {"time": 217320, "pitch": 67, "duration": 110, "velocity": 80}, {"time": 217330, "pitch": 60, "duration": 110, "velocity": 70}, {"time": 217440, "pitch": 60, "duration": 230, "velocity": 103}, {"time": 217440, "pitch": 63, "duration": 230, "velocity": 109}, {"time": 217450, "pitch": 67, "duration": 230, "velocity": 118}, {"time": 217680, "pitch": 60, "duration": 110, "velocity": 90}, {"time": 217680, "pitch": 63, "duration": 110, "velocity": 96}, {"time": 217690, "pitch": 67, "duration": 110, "velocity": 100}, {"time": 217800, "pitch": 63, "duration": 110, "velocity": 75}, {"time": 217800, "pitch": 67, "duration": 110, "velocity": 80}, {"time": 217810, "pitch": 60, "duration": 110, "velocity": 70}, {"time": 217920, "pitch": 60, "duration": 110, "velocity": 65}, {"time": 217920, "pitch": 63, "duration": 110, "velocity": 70}, {"time": 217930, "pitch": 67, "duration": 110, "velocity": 75}, {"time": 218040, "pitch": 63, "duration": 110, "velocity": 75}, {"time": 218040, "pitch": 67, "duration": 110, "velocity": 80}, {"time": 218050, "pitch": 60, "duration": 110, "velocity": 70}, {"time": 218160, "pitch": 60, "duration": 110, "velocity": 109}, {"time": 218160, "pitch": 63, "duration": 110, "velocity": 113}, {"time": 218170, "pitch": 67, "duration": 110, "velocity": 115}, {"time": 218280, "pitch": 63, "duration": 110, "velocity": 70}, {"time": 218280, "pitch": 67, "duration": 110, "velocity": 75}, {"time": 218290, "pitch": 60, "duration": 110, "velocity": 65}, {"time": 218400, "pitch": 57, "duration": 110, "velocity": 65}, {"time": 218400, "pitch": 60, "duration": 110, "velocity": 70}, {"time": 218410, "pitch": 65, "duration": 110, "velocity": 75}, {"time": 218520, "pitch": 60, "duration": 110, "velocity": 75}, {"time": 218520, "pitch": 65, "duration": 110, "velocity": 80}, {"time": 218530, "pitch": 57, "duration": 110, "velocity": 70}, {"time": 218640, "pitch": 57, "duration": 110, "velocity": 109}, {"time": 218640, "pitch": 60, "duration": 110, "velocity": 113}, {"time": 218650, "pitch": 65, "duration": 110, "velocity": 115}, {"time": 218760, "pitch": 60, "duration": 110, "velocity": 70}, {"time": 218760, "pitch": 65, "duration": 110, "velocity": 75}, {"time": 218770, "pitch": 57, "duration": 110, "velocity": 65}, {"time": 218880, "pitch": 57, "duration": 110, "velocity": 65}, {"time": 218880, "pitch": 60, "duration": 110, "velocity": 70}, {"time": 218890, "pitch": 65, "duration": 110, "velocity": 75}, {"time": 219000, "pitch": 57, "duration": 110, "velocity": 89}, {"time": 219000, "pitch": 60, "duration": 110, "velocity": 102}, {"time": 219010, "pitch": 65, "duration": 110, "velocity": 107}, {"time": 219120, "pitch": 57, "duration": 110, "velocity": 75}, {"time": 219120, "pitch": 60, "duration": 110, "velocity": 80}, {"time": 219130, "pitch": 65, "duration": 110, "velocity": 70}, {"time": 219240, "pitch": 60, "duration": 110, "velocity": 74}, {"time": 219240, "pitch": 65, "duration": 110, "velocity": 80}, {"time": 219250, "pitch": 57, "duration": 110, "velocity": 70}, {"time": 219360, "pitch": 60, "duration": 230, "velocity": 103}, {"time": 219360, "pitch": 64, "duration": 230, "velocity": 109}, {"time": 219370, "pitch": 67, "duration": 230, "velocity": 118}, {"time": 219600, "pitch": 60, "duration": 110, "velocity": 90}, {"time": 219600, "pitch": 64, "duration": 110, "velocity": 96}, {"time": 219610, "pitch": 67, "duration": 110, "velocity": 100}, {"time": 219720, "pitch": 64, "duration": 110, "velocity": 75}, {"time": 219720, "pitch": 67, "duration": 110, "velocity": 80}, {"time": 219730, "pitch": 60, "duration": 110, "velocity": 70}, {"time": 219840, "pitch": 60, "duration": 110, "velocity": 65}, {"time": 219840, "pitch": 64, "duration": 110, "velocity": 70}, {"time": 219850, "pitch": 67, "duration": 110, "velocity": 75}, {"time": 219960, "pitch": 64, "duration": 110, "velocity": 75}, {"time": 219960, "pitch": 67, "duration": 110, "velocity": 80}, {"time": 219970, "pitch": 60, "duration": 110, "velocity": 70}, {"time": 220080, "pitch": 60, "duration": 110, "velocity": 109}, {"time": 220080, "pitch": 64, "duration": 110, "velocity": 113}, {"time": 220090, "pitch": 67, "duration": 110, "velocity": 115}, {"time": 220200, "pitch": 64, "duration": 110, "velocity": 70}, {"time": 220200, "pitch": 67, "duration": 110, "velocity": 75}, {"time": 220210, "pitch": 60, "duration": 110, "velocity": 65}, {"time": 220320, "pitch": 60, "duration": 110, "velocity": 65}, {"time": 220320, "pitch": 64, "duration": 110, "velocity": 70}, {"time": 220330, "pitch": 67, "duration": 110, "velocity": 75}, {"time": 220440, "pitch": 64, "duration": 110, "velocity": 75}, {"time": 220440, "pitch": 67, "duration": 110, "velocity": 80}, {"time": 220450, "pitch": 60, "duration": 110, "velocity": 70}, {"time": 220560, "pitch": 60, "duration": 110, "velocity": 109}, {"time": 220560, "pitch": 64, "duration": 110, "velocity": 113}, {"time": 220570, "pitch": 67, "duration": 110, "velocity": 115}, {"time": 220680, "pitch": 64, "duration": 110, "velocity": 70}, {"time": 220680, "pitch": 67, "duration": 110, "velocity": 75}, {"time": 220690, "pitch": 60, "duration": 110, "velocity": 65}, {"time": 220800, "pitch": 60, "duration": 110, "velocity": 65}, {"time": 220800, "pitch": 64, "duration": 110, "velocity": 70}, {"time": 220810, "pitch": 67, "duration": 110, "velocity": 75}, {"time": 220920, "pitch": 60, "duration": 110, "velocity": 89}, {"time": 220920, "pitch": 64, "duration": 110, "velocity": 102}, {"time": 220930, "pitch": 67, "duration": 110, "velocity": 107}, {"time": 221040, "pitch": 60, "duration": 110, "velocity": 75}, {"time": 221040, "pitch": 64, "duration": 110, "velocity": 80}, {"time": 221050, "pitch": 67, "duration": 110, "velocity": 70}, {"time": 221160, "pitch": 64, "duration": 110, "velocity": 74}, {"time": 221160, "pitch": 67, "duration": 110, "velocity": 80}, {"time": 221170, "pitch": 60, "duration": 110, "velocity": 70}, {"time": 221280, "pitch": 58, "duration": 230, "velocity": 103}, {"time": 221280, "pitch": 62, "duration": 230, "velocity": 109}, {"time": 221290, "pitch": 67, "duration": 230, "velocity": 118}, {"time": 221520, "pitch": 58, "duration": 110, "velocity": 90}, {"time": 221520, "pitch": 62, "duration": 110, "velocity": 96}, {"time": 221530, "pitch": 67, "duration": 110, "velocity": 100}, {"time": 221640, "pitch": 62, "duration": 110, "velocity": 75}, {"time": 221640, "pitch": 67, "duration": 110, "velocity": 80}, {"time": 221650, "pitch": 58, "duration": 110, "velocity": 70}, {"time": 221760, "pitch": 58, "duration": 110, "velocity": 65}, {"time": 221760, "pitch": 62, "duration": 110, "velocity": 70}, {"time": 221770, "pitch": 67, "duration": 110, "velocity": 75}, {"time": 221880, "pitch": 62, "duration": 110, "velocity": 75}, {"time": 221880, "pitch": 67, "duration": 110, "velocity": 80}, {"time": 221890, "pitch": 58, "duration": 110, "velocity": 70}, {"time": 222000, "pitch": 58, "duration": 110, "velocity": 109}, {"time": 222000, "pitch": 62, "duration": 110, "velocity": 113}, {"time": 222010, "pitch": 67, "duration": 110, "velocity": 115}, {"time": 222120, "pitch": 62, "duration": 110, "velocity": 70}, {"time": 222120, "pitch": 67, "duration": 110, "velocity": 75}, {"time": 222130, "pitch": 58, "duration": 110, "velocity": 65}, {"time": 222240, "pitch": 58, "duration": 110, "velocity": 65}, {"time": 222240, "pitch": 62, "duration": 110, "velocity": 70}, {"time": 222250, "pitch": 67, "duration": 110, "velocity": 75}, {"time": 222360, "pitch": 62, "duration": 110, "velocity": 75}, {"time": 222360, "pitch": 67, "duration": 110, "velocity": 80}, {"time": 222370, "pitch": 58, "duration": 110, "velocity": 70}, {"time": 222480, "pitch": 58, "duration": 110, "velocity": 109}, {"time": 222480, "pitch": 62, "duration": 110, "velocity": 113}, {"time": 222490, "pitch": 67, "duration": 110, "velocity": 115}, {"time": 222600, "pitch": 62, "duration": 110, "velocity": 70}, {"time": 222600, "pitch": 67, "duration": 110, "velocity": 75}, {"time": 222610, "pitch": 58, "duration": 110, "velocity": 65}, {"time": 222720, "pitch": 58, "duration": 110, "velocity": 65}, {"time": 222720, "pitch": 62, "duration": 110, "velocity": 70}, {"time": 222730, "pitch": 67, "duration": 110, "velocity": 75}, {"time": 222840, "pitch": 58, "duration": 110, "velocity": 89}, {"time": 222840, "pitch": 62, "duration": 110, "velocity": 102}, {"time": 222850, "pitch": 67, "duration": 110, "velocity": 107}, {"time": 222960, "pitch": 58, "duration": 110, "velocity": 75}, {"time": 222960, "pitch": 62, "duration": 110, "velocity": 80}, {"time": 222970, "pitch": 67, "duration": 110, "velocity": 70}, {"time": 223080, "pitch": 62, "duration": 110, "velocity": 74}, {"time": 223080, "pitch": 67, "duration": 110, "velocity": 80}, {"time": 223090, "pitch": 58, "duration": 110, "velocity": 70}, {"time": 223200, "pitch": 60, "duration": 230, "velocity": 103}, {"time": 223200, "pitch": 64, "duration": 230, "velocity": 109}, {"time": 223210, "pitch": 67, "duration": 230, "velocity": 118}, {"time": 223440, "pitch": 60, "duration": 110, "velocity": 90}, {"time": 223440, "pitch": 64, "duration": 110, "velocity": 96}, {"time": 223450, "pitch": 67, "duration": 110, "velocity": 100}, {"time": 223560, "pitch": 64, "duration": 110, "velocity": 75}, {"time": 223560, "pitch": 67, "duration": 110, "velocity": 80}, {"time": 223570, "pitch": 60, "duration": 110, "velocity": 70}, {"time": 223680, "pitch": 60, "duration": 110, "velocity": 65}, {"time": 223680, "pitch": 64, "duration": 110, "velocity": 70}, {"time": 223690, "pitch": 67, "duration": 110, "velocity": 75}, {"time": 223800, "pitch": 64, "duration": 110, "velocity": 75}, {"time": 223800, "pitch": 67, "duration": 110, "velocity": 80}, {"time": 223810, "pitch": 60, "duration": 110, "velocity": 70}, {"time": 223920, "pitch": 60, "duration": 110, "velocity": 109}, {"time": 223920, "pitch": 64, "duration": 110, "velocity": 113}, {"time": 223930, "pitch": 67, "duration": 110, "velocity": 115}, {"time": 224040, "pitch": 64, "duration": 110, "velocity": 70}, {"time": 224040, "pitch": 67, "duration": 110, "velocity": 75}, {"time": 224050, "pitch": 60, "duration": 110, "velocity": 65}, {"time": 224160, "pitch": 60, "duration": 110, "velocity": 65}, {"time": 224160, "pitch": 64, "duration": 110, "velocity": 70}, {"time": 224170, "pitch": 67, "duration": 110, "velocity": 75}, {"time": 224280, "pitch": 64, "duration": 110, "velocity": 75}, {"time": 224280, "pitch": 67, "duration": 110, "velocity": 80}, {"time": 224290, "pitch": 60, "duration": 110, "velocity": 70}, {"time": 224400, "pitch": 60, "duration": 110, "velocity": 109}, {"time": 224400, "pitch": 64, "duration": 110, "velocity": 113}, {"time": 224410, "pitch": 67, "duration": 110, "velocity": 115}, {"time": 224520, "pitch": 64, "duration": 110, "velocity": 70}, {"time": 224520, "pitch": 67, "duration": 110, "velocity": 75}, {"time": 224530, "pitch": 60, "duration": 110, "velocity": 65}, {"time": 224640, "pitch": 60, "duration": 110, "velocity": 65}, {"time": 224640, "pitch": 64, "duration": 110, "velocity": 70}, {"time": 224650, "pitch": 67, "duration": 110, "velocity": 75}, {"time": 224760, "pitch": 60, "duration": 110, "velocity": 89}, {"time": 224760, "pitch": 64, "duration": 110, "velocity": 102}, {"time": 224770, "pitch": 67, "duration": 110, "velocity": 107}, {"time": 224880, "pitch": 60, "duration": 110, "velocity": 75}, {"time": 224880, "pitch": 64, "duration": 110, "velocity": 80}, {"time": 224890, "pitch": 67, "duration": 110, "velocity": 70}, {"time": 225000, "pitch": 64, "duration": 110, "velocity": 74}, {"time": 225000, "pitch": 67, "duration": 110, "velocity": 80}, {"time": 225010, "pitch": 60, "duration": 110, "velocity": 70}, {"time": 225120, "pitch": 60, "duration": 230, "velocity": 103}, {"time": 225120, "pitch": 63, "duration": 230, "velocity": 109}, {"time": 225130, "pitch": 67, "duration": 230, "velocity": 118}, {"time": 225360, "pitch": 60, "duration": 110, "velocity": 90}, {"time": 225360, "pitch": 63, "duration": 110, "velocity": 96}, {"time": 225370, "pitch": 67, "duration": 110, "velocity": 100}, {"time": 225480, "pitch": 63, "duration": 110, "velocity": 75}, {"time": 225480, "pitch": 67, "duration": 110, "velocity": 80}, {"time": 225490, "pitch": 60, "duration": 110, "velocity": 70}, {"time": 225600, "pitch": 60, "duration": 110, "velocity": 65}, {"time": 225600, "pitch": 63, "duration": 110, "velocity": 70}, {"time": 225610, "pitch": 67, "duration": 110, "velocity": 75}, {"time": 225720, "pitch": 63, "duration": 110, "velocity": 75}, {"time": 225720, "pitch": 67, "duration": 110, "velocity": 80}, {"time": 225730, "pitch": 60, "duration": 110, "velocity": 70}, {"time": 225840, "pitch": 60, "duration": 110, "velocity": 109}, {"time": 225840, "pitch": 63, "duration": 110, "velocity": 113}, {"time": 225850, "pitch": 67, "duration": 110, "velocity": 115}, {"time": 225960, "pitch": 63, "duration": 110, "velocity": 70}, {"time": 225960, "pitch": 67, "duration": 110, "velocity": 75}, {"time": 225970, "pitch": 60, "duration": 110, "velocity": 65}, {"time": 226080, "pitch": 57, "duration": 110, "velocity": 65}, {"time": 226080, "pitch": 60, "duration": 110, "velocity": 70}, {"time": 226090, "pitch": 65, "duration": 110, "velocity": 75}, {"time": 226200, "pitch": 60, "duration": 110, "velocity": 75}, {"time": 226200, "pitch": 65, "duration": 110, "velocity": 80}, {"time": 226210, "pitch": 57, "duration": 110, "velocity": 70}, {"time": 226320, "pitch": 57, "duration": 110, "velocity": 109}, {"time": 226320, "pitch": 60, "duration": 110, "velocity": 113}, {"time": 226330, "pitch": 65, "duration": 110, "velocity": 115}, {"time": 226440, "pitch": 60, "duration": 110, "velocity": 70}, {"time": 226440, "pitch": 65, "duration": 110, "velocity": 75}, {"time": 226450, "pitch": 57, "duration": 110, "velocity": 65}, {"time": 226560, "pitch": 57, "duration": 110, "velocity": 65}, {"time": 226560, "pitch": 60, "duration": 110, "velocity": 70}, {"time": 226570, "pitch": 65, "duration": 110, "velocity": 75}, {"time": 226680, "pitch": 57, "duration": 110, "velocity": 89}, {"time": 226680, "pitch": 60, "duration": 110, "velocity": 102}, {"time": 226690, "pitch": 65, "duration": 110, "velocity": 107}, {"time": 226800, "pitch": 57, "duration": 110, "velocity": 75}, {"time": 226800, "pitch": 60, "duration": 110, "velocity": 80}, {"time": 226810, "pitch": 65, "duration": 110, "velocity": 70}, {"time": 226920, "pitch": 60, "duration": 110, "velocity": 74}, {"time": 226920, "pitch": 65, "duration": 110, "velocity": 80}, {"time": 226930, "pitch": 57, "duration": 110, "velocity": 70}, {"time": 227040, "pitch": 60, "duration": 230, "velocity": 103}, {"time": 227040, "pitch": 64, "duration": 230, "velocity": 109}, {"time": 227050, "pitch": 67, "duration": 230, "velocity": 118}, {"time": 227280, "pitch": 60, "duration": 110, "velocity": 90}, {"time": 227280, "pitch": 64, "duration": 110, "velocity": 96}, {"time": 227290, "pitch": 67, "duration": 110, "velocity": 100}, {"time": 227400, "pitch": 64, "duration": 110, "velocity": 75}, {"time": 227400, "pitch": 67, "duration": 110, "velocity": 80}, {"time": 227410, "pitch": 60, "duration": 110, "velocity": 70}, {"time": 227520, "pitch": 60, "duration": 110, "velocity": 65}, {"time": 227520, "pitch": 64, "duration": 110, "velocity": 70}, {"time": 227530, "pitch": 67, "duration": 110, "velocity": 75}, {"time": 227640, "pitch": 64, "duration": 110, "velocity": 75}, {"time": 227640, "pitch": 67, "duration": 110, "velocity": 80}, {"time": 227650, "pitch": 60, "duration": 110, "velocity": 70}, {"time": 227760, "pitch": 60, "duration": 110, "velocity": 109}, {"time": 227760, "pitch": 64, "duration": 110, "velocity": 113}, {"time": 227770, "pitch": 67, "duration": 110, "velocity": 115}, {"time": 227880, "pitch": 64, "duration": 110, "velocity": 70}, {"time": 227880, "pitch": 67, "duration": 110, "velocity": 75}, {"time": 227890, "pitch": 60, "duration": 110, "velocity": 65}, {"time": 228000, "pitch": 60, "duration": 110, "velocity": 65}, {"time": 228000, "pitch": 64, "duration": 110, "velocity": 70}, {"time": 228010, "pitch": 67, "duration": 110, "velocity": 75}, {"time": 228120, "pitch": 64, "duration": 110, "velocity": 75}, {"time": 228120, "pitch": 67, "duration": 110, "velocity": 80}, {"time": 228130, "pitch": 60, "duration": 110, "velocity": 70}, {"time": 228240, "pitch": 60, "duration": 110, "velocity": 109}, {"time": 228240, "pitch": 64, "duration": 110, "velocity": 113}, {"time": 228250, "pitch": 67, "duration": 110, "velocity": 115}, {"time": 228360, "pitch": 64, "duration": 110, "velocity": 70}, {"time": 228360, "pitch": 67, "duration": 110, "velocity": 75}, {"time": 228370, "pitch": 60, "duration": 110, "velocity": 65}, {"time": 228480, "pitch": 60, "duration": 110, "velocity": 65}, {"time": 228480, "pitch": 64, "duration": 110, "velocity": 70}, {"time": 228490, "pitch": 67, "duration": 110, "velocity": 75}, {"time": 228600, "pitch": 60, "duration": 110, "velocity": 89}, {"time": 228600, "pitch": 64, "duration": 110, "velocity": 102}, {"time": 228610, "pitch": 67, "duration": 110, "velocity": 107}, {"time": 228720, "pitch": 60, "duration": 110, "velocity": 75}, {"time": 228720, "pitch": 64, "duration": 110, "velocity": 80}, {"time": 228730, "pitch": 67, "duration": 110, "velocity": 70}, {"time": 228840, "pitch": 64, "duration": 110, "velocity": 74}, {"time": 228840, "pitch": 67, "duration": 110, "velocity": 80}, {"time": 228850, "pitch": 60, "duration": 110, "velocity": 70}, {"time": 228960, "pitch": 58, "duration": 230, "velocity": 103}, {"time": 228960, "pitch": 62, "duration": 230, "velocity": 109}, {"time": 228970, "pitch": 67, "duration": 230, "velocity": 118}, {"time": 229200, "pitch": 58, "duration": 110, "velocity": 90}, {"time": 229200, "pitch": 62, "duration": 110, "velocity": 96}, {"time": 229210, "pitch": 67, "duration": 110, "velocity": 100}, {"time": 229320, "pitch": 62, "duration": 110, "velocity": 75}, {"time": 229320, "pitch": 67, "duration": 110, "velocity": 80}, {"time": 229330, "pitch": 58, "duration": 110, "velocity": 70}, {"time": 229440, "pitch": 58, "duration": 110, "velocity": 65}, {"time": 229440, "pitch": 62, "duration": 110, "velocity": 70}, {"time": 229450, "pitch": 67, "duration": 110, "velocity": 75}, {"time": 229560, "pitch": 62, "duration": 110, "velocity": 75}, {"time": 229560, "pitch": 67, "duration": 110, "velocity": 80}, {"time": 229570, "pitch": 58, "duration": 110, "velocity": 70}, {"time": 229680, "pitch": 58, "duration": 110, "velocity": 109}, {"time": 229680, "pitch": 62, "duration": 110, "velocity": 113}, {"time": 229690, "pitch": 67, "duration": 110, "velocity": 115}, {"time": 229800, "pitch": 62, "duration": 110, "velocity": 70}, {"time": 229800, "pitch": 67, "duration": 110, "velocity": 75}, {"time": 229810, "pitch": 58, "duration": 110, "velocity": 65}, {"time": 229920, "pitch": 58, "duration": 110, "velocity": 65}, {"time": 229920, "pitch": 62, "duration": 110, "velocity": 70}, {"time": 229930, "pitch": 67, "duration": 110, "velocity": 75}, {"time": 230040, "pitch": 62, "duration": 110, "velocity": 75}, {"time": 230040, "pitch": 67, "duration": 110, "velocity": 80}, {"time": 230050, "pitch": 58, "duration": 110, "velocity": 70}, {"time": 230160, "pitch": 58, "duration": 110, "velocity": 109}, {"time": 230160, "pitch": 62, "duration": 110, "velocity": 113}, {"time": 230170, "pitch": 67, "duration": 110, "velocity": 115}, {"time": 230280, "pitch": 62, "duration": 110, "velocity": 70}, {"time": 230280, "pitch": 67, "duration": 110, "velocity": 75}, {"time": 230290, "pitch": 58, "duration": 110, "velocity": 65}, {"time": 230400, "pitch": 58, "duration": 110, "velocity": 65}, {"time": 230400, "pitch": 62, "duration": 110, "velocity": 70}, {"time": 230410, "pitch": 67, "duration": 110, "velocity": 75}, {"time": 230520, "pitch": 58, "duration": 110, "velocity": 89}, {"time": 230520, "pitch": 62, "duration": 110, "velocity": 102}, {"time": 230530, "pitch": 67, "duration": 110, "velocity": 107}, {"time": 230640, "pitch": 58, "duration": 110, "velocity": 75}, {"time": 230640, "pitch": 62, "duration": 110, "velocity": 80}, {"time": 230650, "pitch": 67, "duration": 110, "velocity": 70}, {"time": 230760, "pitch": 62, "duration": 110, "velocity": 74}, {"time": 230760, "pitch": 67, "duration": 110, "velocity": 80}, {"time": 230770, "pitch": 58, "duration": 110, "velocity": 70}, {"time": 230880, "pitch": 60, "duration": 230, "velocity": 103}, {"time": 230880, "pitch": 64, "duration": 230, "velocity": 109}, {"time": 230890, "pitch": 67, "duration": 230, "velocity": 118}, {"time": 231120, "pitch": 60, "duration": 110, "velocity": 90}, {"time": 231120, "pitch": 64, "duration": 110, "velocity": 96}, {"time": 231130, "pitch": 67, "duration": 110, "velocity": 100}, {"time": 231240, "pitch": 64, "duration": 110, "velocity": 75}, {"time": 231240, "pitch": 67, "duration": 110, "velocity": 80}, {"time": 231250, "pitch": 60, "duration": 110, "velocity": 70}, {"time": 231360, "pitch": 60, "duration": 110, "velocity": 65}, {"time": 231360, "pitch": 64, "duration": 110, "velocity": 70}, {"time": 231370, "pitch": 67, "duration": 110, "velocity": 75}, {"time": 231480, "pitch": 64, "duration": 110, "velocity": 75}, {"time": 231480, "pitch": 67, "duration": 110, "velocity": 80}, {"time": 231490, "pitch": 60, "duration": 110, "velocity": 70}, {"time": 231600, "pitch": 60, "duration": 110, "velocity": 109}, {"time": 231600, "pitch": 64, "duration": 110, "velocity": 113}, {"time": 231610, "pitch": 67, "duration": 110, "velocity": 115}, {"time": 231720, "pitch": 64, "duration": 110, "velocity": 70}, {"time": 231720, "pitch": 67, "duration": 110, "velocity": 75}, {"time": 231730, "pitch": 60, "duration": 110, "velocity": 65}, {"time": 231840, "pitch": 60, "duration": 110, "velocity": 65}, {"time": 231840, "pitch": 64, "duration": 110, "velocity": 70}, {"time": 231850, "pitch": 67, "duration": 110, "velocity": 75}, {"time": 231960, "pitch": 64, "duration": 110, "velocity": 75}, {"time": 231960, "pitch": 67, "duration": 110, "velocity": 80}, {"time": 231970, "pitch": 60, "duration": 110, "velocity": 70}, {"time": 232080, "pitch": 60, "duration": 110, "velocity": 109}, {"time": 232080, "pitch": 64, "duration": 110, "velocity": 113}, {"time": 232090, "pitch": 67, "duration": 110, "velocity": 115}, {"time": 232200, "pitch": 64, "duration": 110, "velocity": 70}, {"time": 232200, "pitch": 67, "duration": 110, "velocity": 75}, {"time": 232210, "pitch": 60, "duration": 110, "velocity": 65}, {"time": 232320, "pitch": 60, "duration": 110, "velocity": 65}, {"time": 232320, "pitch": 64, "duration": 110, "velocity": 70}, {"time": 232330, "pitch": 67, "duration": 110, "velocity": 75}, {"time": 232440, "pitch": 60, "duration": 110, "velocity": 89}, {"time": 232440, "pitch": 64, "duration": 110, "velocity": 102}, {"time": 232450, "pitch": 67, "duration": 110, "velocity": 107}, {"time": 232560, "pitch": 60, "duration": 110, "velocity": 75}, {"time": 232560, "pitch": 64, "duration": 110, "velocity": 80}, {"time": 232570, "pitch": 67, "duration": 110, "velocity": 70}, {"time": 232680, "pitch": 64, "duration": 110, "velocity": 74}, {"time": 232680, "pitch": 67, "duration": 110, "velocity": 80}, {"time": 232690, "pitch": 60, "duration": 110, "velocity": 70}, {"time": 232800, "pitch": 60, "duration": 230, "velocity": 103}, {"time": 232800, "pitch": 63, "duration": 230, "velocity": 109}, {"time": 232810, "pitch": 67, "duration": 230, "velocity": 118}, {"time": 233040, "pitch": 60, "duration": 110, "velocity": 90}, {"time": 233040, "pitch": 63, "duration": 110, "velocity": 96}, {"time": 233050, "pitch": 67, "duration": 110, "velocity": 100}, {"time": 233160, "pitch": 63, "duration": 110, "velocity": 75}, {"time": 233160, "pitch": 67, "duration": 110, "velocity": 80}, {"time": 233170, "pitch": 60, "duration": 110, "velocity": 70}, {"time": 233280, "pitch": 60, "duration": 110, "velocity": 65}, {"time": 233280, "pitch": 63, "duration": 110, "velocity": 70}, {"time": 233290, "pitch": 67, "duration": 110, "velocity": 75}, {"time": 233400, "pitch": 63, "duration": 110, "velocity": 75}, {"time": 233400, "pitch": 67, "duration": 110, "velocity": 80}, {"time": 233410, "pitch": 60, "duration": 110, "velocity": 70}, {"time": 233520, "pitch": 60, "duration": 110, "velocity": 109}, {"time": 233520, "pitch": 63, "duration": 110, "velocity": 113}, {"time": 233530, "pitch": 67, "duration": 110, "velocity": 115}, {"time": 233640, "pitch": 63, "duration": 110, "velocity": 70}, {"time": 233640, "pitch": 67, "duration": 110, "velocity": 75}, {"time": 233650, "pitch": 60, "duration": 110, "velocity": 65}, {"time": 233760, "pitch": 57, "duration": 110, "velocity": 65}, {"time": 233760, "pitch": 60, "duration": 110, "velocity": 70}, {"time": 233770, "pitch": 65, "duration": 110, "velocity": 75}, {"time": 233880, "pitch": 60, "duration": 110, "velocity": 75}, {"time": 233880, "pitch": 65, "duration": 110, "velocity": 80}, {"time": 233890, "pitch": 57, "duration": 110, "velocity": 70}, {"time": 234000, "pitch": 57, "duration": 110, "velocity": 109}, {"time": 234000, "pitch": 60, "duration": 110, "velocity": 113}, {"time": 234010, "pitch": 65, "duration": 110, "velocity": 115}, {"time": 234120, "pitch": 60, "duration": 110, "velocity": 70}, {"time": 234120, "pitch": 65, "duration": 110, "velocity": 75}, {"time": 234130, "pitch": 57, "duration": 110, "velocity": 65}, {"time": 234240, "pitch": 57, "duration": 110, "velocity": 65}, {"time": 234240, "pitch": 60, "duration": 110, "velocity": 70}, {"time": 234250, "pitch": 65, "duration": 110, "velocity": 75}, {"time": 234360, "pitch": 57, "duration": 110, "velocity": 89}, {"time": 234360, "pitch": 60, "duration": 110, "velocity": 102}, {"time": 234370, "pitch": 65, "duration": 110, "velocity": 107}, {"time": 234480, "pitch": 57, "duration": 110, "velocity": 75}, {"time": 234480, "pitch": 60, "duration": 110, "velocity": 80}, {"time": 234490, "pitch": 65, "duration": 110, "velocity": 70}, {"time": 234600, "pitch": 60, "duration": 110, "velocity": 74}, {"time": 234600, "pitch": 65, "duration": 110, "velocity": 80}, {"time": 234610, "pitch": 57, "duration": 110, "velocity": 70}, {"time": 234720, "pitch": 64, "duration": 190, "velocity": 89}, {"time": 234720, "pitch": 67, "duration": 190, "velocity": 102}, {"time": 234720, "pitch": 72, "duration": 190, "velocity": 103}, {"time": 234960, "pitch": 64, "duration": 120, "velocity": 89}, {"time": 234960, "pitch": 67, "duration": 120, "velocity": 102}, {"time": 234960, "pitch": 72, "duration": 120, "velocity": 103}, {"time": 236640, "pitch": 64, "duration": 190, "velocity": 89}, {"time": 236640, "pitch": 67, "duration": 190, "velocity": 102}, {"time": 236640, "pitch": 72, "duration": 190, "velocity": 103}, {"time": 236880, "pitch": 64, "duration": 120, "velocity": 89}, {"time": 236880, "pitch": 67, "duration": 120, "velocity": 102}, {"time": 236880, "pitch": 72, "duration": 120, "velocity": 103}, {"time": 238560, "pitch": 64, "duration": 190, "velocity": 89}, {"time": 238560, "pitch": 67, "duration": 190, "velocity": 102}, {"time": 238560, "pitch": 72, "duration": 190, "velocity": 103}, {"time": 238800, "pitch": 64, "duration": 120, "velocity": 89}, {"time": 238800, "pitch": 67, "duration": 120, "velocity": 102}, {"time": 238800, "pitch": 72, "duration": 120, "velocity": 103}, {"time": 240480, "pitch": 64, "duration": 190, "velocity": 89}, {"time": 240480, "pitch": 67, "duration": 190, "velocity": 102}, {"time": 240480, "pitch": 72, "duration": 190, "velocity": 103}, {"time": 240720, "pitch": 64, "duration": 120, "velocity": 89}, {"time": 240720, "pitch": 67, "duration": 120, "velocity": 102}, {"time": 240720, "pitch": 72, "duration": 120, "velocity": 103}, {"time": 242400, "pitch": 64, "duration": 190, "velocity": 89}, {"time": 242400, "pitch": 67, "duration": 190, "velocity": 102}, {"time": 242400, "pitch": 72, "duration": 190, "velocity": 103}, {"time": 242640, "pitch": 64, "duration": 120, "velocity": 89}, {"time": 242640, "pitch": 67, "duration": 120, "velocity": 102}, {"time": 242640, "pitch": 72, "duration": 120, "velocity": 103}], "annotations": [{"time": 336, "annotation": {"number": 7, "value": 50}, "group": "control_change"}, {"time": 352, "annotation": {"number": 11, "value": 127}, "group": "control_change"}, {"time": 368, "annotation": {"number": 10, "value": 0}, "group": "control_change"}, {"time": 384, "annotation": {"number": 91, "value": 49}, "group": "control_change"}, {"time": 400, "annotation": {"number": 93, "value": 18}, "group": "control_change"}, {"time": 416, "annotation": {"number": 101, "value": 0}, "group": "control_change"}, {"time": 432, "annotation": {"number": 100, "value": 0}, "group": "control_change"}, {"time": 448, "annotation": {"number": 6, "value": 12}, "group": "control_change"}, {"time": 464, "annotation": {"number": 101, "value": 127}, "group": "control_change"}, {"time": 480, "annotation": {"number": 100, "value": 127}, "group": "control_change"}]}]}