{"metadata": {"schema_version": "0.1", "title": "RWC-MDB-P-2001 No. 80: Sagashimono / Tomomi Ogata", "copyright": "RWC Music Database. Copyright (C) 2001 Real World Computing Partnership (contact: Masataka GOTO <m.goto@aist.go.jp>)", "source_filename": "RM-P080.SMF_SYNC.MID", "source_format": "midi"}, "resolution": 480, "tempos": [{"time": 0, "qpm": 58.8235294117647}, {"time": 480, "qpm": 80.0}, {"time": 8640, "qpm": 78.94736842105263}, {"time": 9120, "qpm": 81.08108108108108}, {"time": 9600, "qpm": 80.0}], "key_signatures": [{"time": 0, "root": 8, "mode": "major"}], "time_signatures": [{"time": 0, "numerator": 1, "denominator": 4}, {"time": 480, "numerator": 4, "denominator": 4}], "tracks": [{"program": 0, "is_drum": false, "name": "A.PIANO", "notes": [{"time": 480, "pitch": 38, "duration": 1916, "velocity": 100}, {"time": 480, "pitch": 72, "duration": 1916, "velocity": 110}, {"time": 490, "pitch": 84, "duration": 1906, "velocity": 125}, {"time": 720, "pitch": 46, "duration": 1676, "velocity": 95}, {"time": 960, "pitch": 50, "duration": 476, "velocity": 90}, {"time": 960, "pitch": 68, "duration": 1436, "velocity": 95}, {"time": 970, "pitch": 80, "duration": 1426, "velocity": 120}, {"time": 1200, "pitch": 58, "duration": 1196, "velocity": 100}, {"time": 1440, "pitch": 50, "duration": 716, "velocity": 95}, {"time": 1440, "pitch": 56, "duration": 956, "velocity": 105}, {"time": 1440, "pitch": 60, "duration": 956, "velocity": 115}, {"time": 1440, "pitch": 65, "duration": 956, "velocity": 125}, {"time": 1920, "pitch": 77, "duration": 476, "velocity": 100}, {"time": 1930, "pitch": 89, "duration": 466, "velocity": 115}, {"time": 2160, "pitch": 50, "duration": 236, "velocity": 85}, {"time": 2400, "pitch": 49, "duration": 566, "velocity": 95}, {"time": 2400, "pitch": 58, "duration": 566, "velocity": 105}, {"time": 2400, "pitch": 76, "duration": 476, "velocity": 110}, {"time": 2410, "pitch": 88, "duration": 466, "velocity": 125}, {"time": 2640, "pitch": 44, "duration": 326, "velocity": 95}, {"time": 2880, "pitch": 37, "duration": 86, "velocity": 100}, {"time": 2880, "pitch": 76, "duration": 86, "velocity": 100}, {"time": 2890, "pitch": 88, "duration": 76, "velocity": 115}, {"time": 3120, "pitch": 48, "duration": 566, "velocity": 100}, {"time": 3120, "pitch": 58, "duration": 476, "velocity": 105}, {"time": 3120, "pitch": 75, "duration": 476, "velocity": 110}, {"time": 3130, "pitch": 87, "duration": 466, "velocity": 125}, {"time": 3360, "pitch": 55, "duration": 326, "velocity": 95}, {"time": 3600, "pitch": 58, "duration": 86, "velocity": 95}, {"time": 3600, "pitch": 63, "duration": 86, "velocity": 105}, {"time": 3600, "pitch": 67, "duration": 86, "velocity": 115}, {"time": 3600, "pitch": 75, "duration": 86, "velocity": 100}, {"time": 3610, "pitch": 87, "duration": 76, "velocity": 115}, {"time": 3840, "pitch": 47, "duration": 476, "velocity": 85}, {"time": 3840, "pitch": 57, "duration": 476, "velocity": 100}, {"time": 3840, "pitch": 62, "duration": 476, "velocity": 110}, {"time": 3840, "pitch": 66, "duration": 476, "velocity": 120}, {"time": 3840, "pitch": 74, "duration": 476, "velocity": 100}, {"time": 3850, "pitch": 86, "duration": 466, "velocity": 115}, {"time": 4320, "pitch": 46, "duration": 716, "velocity": 95}, {"time": 4320, "pitch": 56, "duration": 476, "velocity": 105}, {"time": 4320, "pitch": 73, "duration": 1916, "velocity": 110}, {"time": 4330, "pitch": 85, "duration": 1906, "velocity": 125}, {"time": 4560, "pitch": 53, "duration": 1196, "velocity": 95}, {"time": 4800, "pitch": 56, "duration": 716, "velocity": 95}, {"time": 5040, "pitch": 46, "duration": 956, "velocity": 95}, {"time": 5040, "pitch": 61, "duration": 476, "velocity": 105}, {"time": 5040, "pitch": 65, "duration": 476, "velocity": 115}, {"time": 5040, "pitch": 68, "duration": 1196, "velocity": 125}, {"time": 5520, "pitch": 56, "duration": 236, "velocity": 95}, {"time": 5520, "pitch": 61, "duration": 236, "velocity": 105}, {"time": 5520, "pitch": 65, "duration": 716, "velocity": 115}, {"time": 5760, "pitch": 53, "duration": 476, "velocity": 100}, {"time": 5760, "pitch": 56, "duration": 476, "velocity": 110}, {"time": 5760, "pitch": 61, "duration": 476, "velocity": 120}, {"time": 6000, "pitch": 46, "duration": 236, "velocity": 85}, {"time": 6240, "pitch": 51, "duration": 715, "velocity": 95}, {"time": 6240, "pitch": 58, "duration": 476, "velocity": 105}, {"time": 6240, "pitch": 63, "duration": 476, "velocity": 115}, {"time": 6240, "pitch": 68, "duration": 476, "velocity": 125}, {"time": 6720, "pitch": 58, "duration": 475, "velocity": 95}, {"time": 6720, "pitch": 63, "duration": 475, "velocity": 105}, {"time": 6720, "pitch": 68, "duration": 475, "velocity": 115}, {"time": 6959, "pitch": 51, "duration": 236, "velocity": 75}, {"time": 7199, "pitch": 51, "duration": 956, "velocity": 75}, {"time": 7199, "pitch": 58, "duration": 956, "velocity": 85}, {"time": 7199, "pitch": 63, "duration": 956, "velocity": 95}, {"time": 7199, "pitch": 67, "duration": 956, "velocity": 105}, {"time": 8159, "pitch": 44, "duration": 716, "velocity": 85}, {"time": 8159, "pitch": 55, "duration": 476, "velocity": 95}, {"time": 8159, "pitch": 58, "duration": 476, "velocity": 95}, {"time": 8159, "pitch": 60, "duration": 476, "velocity": 95}, {"time": 8159, "pitch": 63, "duration": 476, "velocity": 105}, {"time": 8639, "pitch": 55, "duration": 476, "velocity": 95}, {"time": 8639, "pitch": 58, "duration": 476, "velocity": 95}, {"time": 8639, "pitch": 60, "duration": 476, "velocity": 95}, {"time": 8639, "pitch": 63, "duration": 476, "velocity": 105}, {"time": 8879, "pitch": 44, "duration": 236, "velocity": 85}, {"time": 9119, "pitch": 44, "duration": 716, "velocity": 85}, {"time": 9119, "pitch": 55, "duration": 476, "velocity": 95}, {"time": 9119, "pitch": 58, "duration": 476, "velocity": 95}, {"time": 9119, "pitch": 60, "duration": 476, "velocity": 95}, {"time": 9119, "pitch": 63, "duration": 476, "velocity": 105}, {"time": 9599, "pitch": 55, "duration": 476, "velocity": 95}, {"time": 9599, "pitch": 58, "duration": 476, "velocity": 95}, {"time": 9599, "pitch": 60, "duration": 476, "velocity": 95}, {"time": 9599, "pitch": 63, "duration": 476, "velocity": 105}, {"time": 9839, "pitch": 44, "duration": 236, "velocity": 85}, {"time": 10079, "pitch": 46, "duration": 716, "velocity": 85}, {"time": 10079, "pitch": 56, "duration": 476, "velocity": 95}, {"time": 10079, "pitch": 60, "duration": 476, "velocity": 95}, {"time": 10079, "pitch": 61, "duration": 476, "velocity": 95}, {"time": 10079, "pitch": 65, "duration": 476, "velocity": 105}, {"time": 10559, "pitch": 56, "duration": 476, "velocity": 95}, {"time": 10559, "pitch": 60, "duration": 476, "velocity": 95}, {"time": 10559, "pitch": 61, "duration": 476, "velocity": 95}, {"time": 10559, "pitch": 65, "duration": 476, "velocity": 105}, {"time": 10799, "pitch": 46, "duration": 236, "velocity": 85}, {"time": 11039, "pitch": 46, "duration": 716, "velocity": 85}, {"time": 11039, "pitch": 56, "duration": 476, "velocity": 95}, {"time": 11039, "pitch": 60, "duration": 476, "velocity": 95}, {"time": 11039, "pitch": 61, "duration": 476, "velocity": 95}, {"time": 11039, "pitch": 65, "duration": 476, "velocity": 105}, {"time": 11519, "pitch": 56, "duration": 476, "velocity": 95}, {"time": 11519, "pitch": 60, "duration": 476, "velocity": 95}, {"time": 11519, "pitch": 61, "duration": 476, "velocity": 95}, {"time": 11519, "pitch": 65, "duration": 476, "velocity": 105}, {"time": 11759, "pitch": 46, "duration": 236, "velocity": 85}, {"time": 11999, "pitch": 48, "duration": 716, "velocity": 85}, {"time": 11999, "pitch": 60, "duration": 476, "velocity": 95}, {"time": 11999, "pitch": 65, "duration": 476, "velocity": 95}, {"time": 11999, "pitch": 67, "duration": 476, "velocity": 105}, {"time": 12479, "pitch": 60, "duration": 476, "velocity": 95}, {"time": 12479, "pitch": 65, "duration": 476, "velocity": 95}, {"time": 12479, "pitch": 67, "duration": 476, "velocity": 105}, {"time": 12719, "pitch": 48, "duration": 236, "velocity": 85}, {"time": 12959, "pitch": 48, "duration": 716, "velocity": 85}, {"time": 12959, "pitch": 60, "duration": 476, "velocity": 95}, {"time": 12959, "pitch": 64, "duration": 476, "velocity": 95}, {"time": 12959, "pitch": 67, "duration": 476, "velocity": 105}, {"time": 13439, "pitch": 60, "duration": 476, "velocity": 95}, {"time": 13439, "pitch": 64, "duration": 476, "velocity": 95}, {"time": 13439, "pitch": 67, "duration": 476, "velocity": 105}, {"time": 13679, "pitch": 48, "duration": 236, "velocity": 85}, {"time": 13919, "pitch": 41, "duration": 716, "velocity": 85}, {"time": 13919, "pitch": 60, "duration": 476, "velocity": 95}, {"time": 13919, "pitch": 63, "duration": 476, "velocity": 95}, {"time": 13919, "pitch": 68, "duration": 476, "velocity": 105}, {"time": 14399, "pitch": 60, "duration": 476, "velocity": 95}, {"time": 14399, "pitch": 63, "duration": 476, "velocity": 95}, {"time": 14399, "pitch": 68, "duration": 476, "velocity": 105}, {"time": 14639, "pitch": 41, "duration": 236, "velocity": 85}, {"time": 14879, "pitch": 48, "duration": 716, "velocity": 85}, {"time": 14879, "pitch": 58, "duration": 476, "velocity": 95}, {"time": 14879, "pitch": 64, "duration": 476, "velocity": 95}, {"time": 14879, "pitch": 68, "duration": 476, "velocity": 105}, {"time": 15359, "pitch": 58, "duration": 476, "velocity": 95}, {"time": 15359, "pitch": 64, "duration": 476, "velocity": 95}, {"time": 15359, "pitch": 67, "duration": 476, "velocity": 105}, {"time": 15599, "pitch": 48, "duration": 236, "velocity": 85}, {"time": 15839, "pitch": 46, "duration": 716, "velocity": 85}, {"time": 15839, "pitch": 56, "duration": 476, "velocity": 95}, {"time": 15839, "pitch": 61, "duration": 476, "velocity": 95}, {"time": 15839, "pitch": 65, "duration": 476, "velocity": 105}, {"time": 16319, "pitch": 56, "duration": 476, "velocity": 95}, {"time": 16319, "pitch": 61, "duration": 476, "velocity": 95}, {"time": 16319, "pitch": 65, "duration": 476, "velocity": 105}, {"time": 16559, "pitch": 46, "duration": 236, "velocity": 85}, {"time": 16799, "pitch": 46, "duration": 716, "velocity": 85}, {"time": 16799, "pitch": 56, "duration": 476, "velocity": 95}, {"time": 16799, "pitch": 61, "duration": 476, "velocity": 95}, {"time": 16799, "pitch": 65, "duration": 476, "velocity": 105}, {"time": 17279, "pitch": 56, "duration": 476, "velocity": 95}, {"time": 17279, "pitch": 61, "duration": 476, "velocity": 95}, {"time": 17279, "pitch": 65, "duration": 476, "velocity": 105}, {"time": 17519, "pitch": 46, "duration": 236, "velocity": 85}, {"time": 17759, "pitch": 42, "duration": 716, "velocity": 85}, {"time": 17759, "pitch": 58, "duration": 476, "velocity": 95}, {"time": 17759, "pitch": 61, "duration": 476, "velocity": 95}, {"time": 17759, "pitch": 65, "duration": 476, "velocity": 105}, {"time": 18239, "pitch": 58, "duration": 476, "velocity": 95}, {"time": 18239, "pitch": 61, "duration": 476, "velocity": 95}, {"time": 18239, "pitch": 65, "duration": 476, "velocity": 105}, {"time": 18479, "pitch": 42, "duration": 236, "velocity": 85}, {"time": 18719, "pitch": 42, "duration": 716, "velocity": 85}, {"time": 18719, "pitch": 58, "duration": 476, "velocity": 95}, {"time": 18719, "pitch": 61, "duration": 476, "velocity": 95}, {"time": 18719, "pitch": 65, "duration": 476, "velocity": 105}, {"time": 19199, "pitch": 58, "duration": 476, "velocity": 95}, {"time": 19199, "pitch": 61, "duration": 476, "velocity": 95}, {"time": 19199, "pitch": 65, "duration": 476, "velocity": 105}, {"time": 19439, "pitch": 42, "duration": 236, "velocity": 85}, {"time": 19679, "pitch": 39, "duration": 716, "velocity": 85}, {"time": 19679, "pitch": 58, "duration": 476, "velocity": 95}, {"time": 19679, "pitch": 61, "duration": 476, "velocity": 95}, {"time": 19679, "pitch": 66, "duration": 476, "velocity": 105}, {"time": 20159, "pitch": 58, "duration": 476, "velocity": 95}, {"time": 20159, "pitch": 61, "duration": 476, "velocity": 95}, {"time": 20159, "pitch": 66, "duration": 476, "velocity": 105}, {"time": 20399, "pitch": 39, "duration": 236, "velocity": 85}, {"time": 20639, "pitch": 39, "duration": 716, "velocity": 85}, {"time": 20639, "pitch": 58, "duration": 476, "velocity": 95}, {"time": 20639, "pitch": 61, "duration": 476, "velocity": 95}, {"time": 20639, "pitch": 66, "duration": 476, "velocity": 105}, {"time": 21119, "pitch": 58, "duration": 476, "velocity": 95}, {"time": 21119, "pitch": 61, "duration": 476, "velocity": 95}, {"time": 21119, "pitch": 66, "duration": 476, "velocity": 105}, {"time": 21359, "pitch": 39, "duration": 236, "velocity": 85}, {"time": 21599, "pitch": 44, "duration": 716, "velocity": 85}, {"time": 21599, "pitch": 56, "duration": 476, "velocity": 95}, {"time": 21599, "pitch": 61, "duration": 476, "velocity": 95}, {"time": 21599, "pitch": 63, "duration": 476, "velocity": 105}, {"time": 22079, "pitch": 56, "duration": 476, "velocity": 95}, {"time": 22079, "pitch": 61, "duration": 476, "velocity": 95}, {"time": 22079, "pitch": 63, "duration": 476, "velocity": 105}, {"time": 22319, "pitch": 44, "duration": 236, "velocity": 85}, {"time": 22559, "pitch": 44, "duration": 716, "velocity": 85}, {"time": 22559, "pitch": 56, "duration": 476, "velocity": 95}, {"time": 22559, "pitch": 60, "duration": 476, "velocity": 95}, {"time": 22559, "pitch": 63, "duration": 476, "velocity": 105}, {"time": 22799, "pitch": 68, "duration": 716, "velocity": 105}, {"time": 23039, "pitch": 56, "duration": 476, "velocity": 95}, {"time": 23039, "pitch": 60, "duration": 476, "velocity": 95}, {"time": 23039, "pitch": 63, "duration": 476, "velocity": 105}, {"time": 23159, "pitch": 75, "duration": 356, "velocity": 105}, {"time": 23279, "pitch": 44, "duration": 236, "velocity": 85}, {"time": 23279, "pitch": 80, "duration": 236, "velocity": 105}, {"time": 23519, "pitch": 42, "duration": 716, "velocity": 75}, {"time": 23519, "pitch": 58, "duration": 476, "velocity": 85}, {"time": 23519, "pitch": 61, "duration": 476, "velocity": 85}, {"time": 23519, "pitch": 65, "duration": 476, "velocity": 85}, {"time": 23519, "pitch": 68, "duration": 476, "velocity": 95}, {"time": 23999, "pitch": 58, "duration": 476, "velocity": 85}, {"time": 23999, "pitch": 61, "duration": 476, "velocity": 85}, {"time": 23999, "pitch": 65, "duration": 476, "velocity": 85}, {"time": 23999, "pitch": 68, "duration": 476, "velocity": 95}, {"time": 24239, "pitch": 42, "duration": 956, "velocity": 75}, {"time": 24479, "pitch": 58, "duration": 476, "velocity": 85}, {"time": 24479, "pitch": 61, "duration": 476, "velocity": 85}, {"time": 24479, "pitch": 65, "duration": 476, "velocity": 85}, {"time": 24479, "pitch": 68, "duration": 476, "velocity": 95}, {"time": 24719, "pitch": 80, "duration": 716, "velocity": 100}, {"time": 24959, "pitch": 58, "duration": 476, "velocity": 85}, {"time": 24959, "pitch": 61, "duration": 476, "velocity": 85}, {"time": 24959, "pitch": 65, "duration": 476, "velocity": 85}, {"time": 24959, "pitch": 68, "duration": 476, "velocity": 95}, {"time": 24959, "pitch": 73, "duration": 476, "velocity": 90}, {"time": 25199, "pitch": 37, "duration": 236, "velocity": 75}, {"time": 25439, "pitch": 42, "duration": 716, "velocity": 75}, {"time": 25439, "pitch": 58, "duration": 476, "velocity": 85}, {"time": 25439, "pitch": 61, "duration": 476, "velocity": 85}, {"time": 25439, "pitch": 65, "duration": 476, "velocity": 85}, {"time": 25439, "pitch": 68, "duration": 476, "velocity": 95}, {"time": 25919, "pitch": 58, "duration": 476, "velocity": 85}, {"time": 25919, "pitch": 61, "duration": 476, "velocity": 85}, {"time": 25919, "pitch": 65, "duration": 476, "velocity": 85}, {"time": 25919, "pitch": 68, "duration": 476, "velocity": 95}, {"time": 26159, "pitch": 42, "duration": 236, "velocity": 75}, {"time": 26399, "pitch": 42, "duration": 716, "velocity": 75}, {"time": 26399, "pitch": 58, "duration": 476, "velocity": 85}, {"time": 26399, "pitch": 61, "duration": 476, "velocity": 85}, {"time": 26399, "pitch": 65, "duration": 476, "velocity": 85}, {"time": 26399, "pitch": 68, "duration": 476, "velocity": 95}, {"time": 26639, "pitch": 80, "duration": 716, "velocity": 100}, {"time": 26879, "pitch": 58, "duration": 476, "velocity": 85}, {"time": 26879, "pitch": 61, "duration": 476, "velocity": 85}, {"time": 26879, "pitch": 65, "duration": 476, "velocity": 85}, {"time": 26879, "pitch": 68, "duration": 476, "velocity": 95}, {"time": 26879, "pitch": 73, "duration": 476, "velocity": 90}, {"time": 27119, "pitch": 42, "duration": 236, "velocity": 75}, {"time": 27359, "pitch": 41, "duration": 716, "velocity": 75}, {"time": 27359, "pitch": 56, "duration": 476, "velocity": 85}, {"time": 27359, "pitch": 60, "duration": 476, "velocity": 85}, {"time": 27359, "pitch": 63, "duration": 476, "velocity": 85}, {"time": 27359, "pitch": 67, "duration": 476, "velocity": 95}, {"time": 27839, "pitch": 56, "duration": 476, "velocity": 85}, {"time": 27839, "pitch": 60, "duration": 476, "velocity": 85}, {"time": 27839, "pitch": 63, "duration": 476, "velocity": 85}, {"time": 27839, "pitch": 67, "duration": 476, "velocity": 95}, {"time": 28079, "pitch": 41, "duration": 956, "velocity": 75}, {"time": 28319, "pitch": 56, "duration": 476, "velocity": 85}, {"time": 28319, "pitch": 60, "duration": 476, "velocity": 85}, {"time": 28319, "pitch": 63, "duration": 476, "velocity": 85}, {"time": 28319, "pitch": 67, "duration": 476, "velocity": 95}, {"time": 28559, "pitch": 79, "duration": 716, "velocity": 100}, {"time": 28799, "pitch": 56, "duration": 476, "velocity": 85}, {"time": 28799, "pitch": 60, "duration": 476, "velocity": 85}, {"time": 28799, "pitch": 63, "duration": 476, "velocity": 85}, {"time": 28799, "pitch": 67, "duration": 476, "velocity": 95}, {"time": 28799, "pitch": 72, "duration": 476, "velocity": 90}, {"time": 29039, "pitch": 36, "duration": 236, "velocity": 75}, {"time": 29279, "pitch": 41, "duration": 716, "velocity": 75}, {"time": 29279, "pitch": 56, "duration": 476, "velocity": 85}, {"time": 29279, "pitch": 60, "duration": 476, "velocity": 85}, {"time": 29279, "pitch": 63, "duration": 476, "velocity": 85}, {"time": 29279, "pitch": 67, "duration": 476, "velocity": 95}, {"time": 29759, "pitch": 56, "duration": 476, "velocity": 85}, {"time": 29759, "pitch": 60, "duration": 476, "velocity": 85}, {"time": 29759, "pitch": 63, "duration": 476, "velocity": 85}, {"time": 29759, "pitch": 67, "duration": 476, "velocity": 95}, {"time": 29999, "pitch": 41, "duration": 956, "velocity": 75}, {"time": 30239, "pitch": 56, "duration": 476, "velocity": 85}, {"time": 30239, "pitch": 60, "duration": 476, "velocity": 85}, {"time": 30239, "pitch": 63, "duration": 476, "velocity": 85}, {"time": 30239, "pitch": 67, "duration": 476, "velocity": 95}, {"time": 30239, "pitch": 79, "duration": 954, "velocity": 95}, {"time": 30479, "pitch": 75, "duration": 714, "velocity": 95}, {"time": 30599, "pitch": 70, "duration": 594, "velocity": 95}, {"time": 30719, "pitch": 56, "duration": 475, "velocity": 85}, {"time": 30719, "pitch": 60, "duration": 475, "velocity": 85}, {"time": 30719, "pitch": 63, "duration": 475, "velocity": 85}, {"time": 30719, "pitch": 67, "duration": 475, "velocity": 95}, {"time": 30959, "pitch": 41, "duration": 235, "velocity": 75}, {"time": 31198, "pitch": 42, "duration": 716, "velocity": 75}, {"time": 31198, "pitch": 58, "duration": 476, "velocity": 85}, {"time": 31198, "pitch": 61, "duration": 476, "velocity": 85}, {"time": 31198, "pitch": 65, "duration": 476, "velocity": 85}, {"time": 31198, "pitch": 68, "duration": 476, "velocity": 95}, {"time": 31678, "pitch": 58, "duration": 476, "velocity": 85}, {"time": 31678, "pitch": 61, "duration": 476, "velocity": 85}, {"time": 31678, "pitch": 65, "duration": 476, "velocity": 85}, {"time": 31678, "pitch": 68, "duration": 476, "velocity": 95}, {"time": 31918, "pitch": 42, "duration": 956, "velocity": 75}, {"time": 32158, "pitch": 58, "duration": 476, "velocity": 85}, {"time": 32158, "pitch": 61, "duration": 476, "velocity": 85}, {"time": 32158, "pitch": 65, "duration": 476, "velocity": 85}, {"time": 32158, "pitch": 68, "duration": 476, "velocity": 95}, {"time": 32398, "pitch": 80, "duration": 716, "velocity": 100}, {"time": 32638, "pitch": 58, "duration": 476, "velocity": 85}, {"time": 32638, "pitch": 61, "duration": 476, "velocity": 85}, {"time": 32638, "pitch": 65, "duration": 476, "velocity": 85}, {"time": 32638, "pitch": 68, "duration": 476, "velocity": 95}, {"time": 32638, "pitch": 73, "duration": 476, "velocity": 90}, {"time": 32878, "pitch": 37, "duration": 236, "velocity": 75}, {"time": 33118, "pitch": 42, "duration": 716, "velocity": 75}, {"time": 33118, "pitch": 58, "duration": 476, "velocity": 85}, {"time": 33118, "pitch": 61, "duration": 476, "velocity": 85}, {"time": 33118, "pitch": 65, "duration": 476, "velocity": 85}, {"time": 33118, "pitch": 68, "duration": 476, "velocity": 95}, {"time": 33598, "pitch": 58, "duration": 476, "velocity": 85}, {"time": 33598, "pitch": 61, "duration": 476, "velocity": 85}, {"time": 33598, "pitch": 65, "duration": 476, "velocity": 85}, {"time": 33598, "pitch": 68, "duration": 476, "velocity": 95}, {"time": 33838, "pitch": 42, "duration": 236, "velocity": 75}, {"time": 34078, "pitch": 42, "duration": 716, "velocity": 75}, {"time": 34078, "pitch": 58, "duration": 476, "velocity": 85}, {"time": 34078, "pitch": 61, "duration": 476, "velocity": 85}, {"time": 34078, "pitch": 65, "duration": 476, "velocity": 85}, {"time": 34078, "pitch": 68, "duration": 476, "velocity": 95}, {"time": 34318, "pitch": 80, "duration": 716, "velocity": 100}, {"time": 34558, "pitch": 58, "duration": 476, "velocity": 85}, {"time": 34558, "pitch": 61, "duration": 476, "velocity": 85}, {"time": 34558, "pitch": 65, "duration": 476, "velocity": 85}, {"time": 34558, "pitch": 68, "duration": 476, "velocity": 95}, {"time": 34558, "pitch": 73, "duration": 476, "velocity": 90}, {"time": 34798, "pitch": 42, "duration": 236, "velocity": 75}, {"time": 35038, "pitch": 43, "duration": 716, "velocity": 75}, {"time": 35038, "pitch": 58, "duration": 476, "velocity": 85}, {"time": 35038, "pitch": 61, "duration": 476, "velocity": 85}, {"time": 35038, "pitch": 65, "duration": 476, "velocity": 95}, {"time": 35518, "pitch": 58, "duration": 476, "velocity": 95}, {"time": 35518, "pitch": 61, "duration": 476, "velocity": 95}, {"time": 35518, "pitch": 65, "duration": 476, "velocity": 105}, {"time": 35758, "pitch": 43, "duration": 236, "velocity": 75}, {"time": 35998, "pitch": 43, "duration": 716, "velocity": 75}, {"time": 35998, "pitch": 61, "duration": 476, "velocity": 85}, {"time": 35998, "pitch": 65, "duration": 476, "velocity": 95}, {"time": 35998, "pitch": 70, "duration": 476, "velocity": 105}, {"time": 36478, "pitch": 61, "duration": 476, "velocity": 85}, {"time": 36478, "pitch": 65, "duration": 476, "velocity": 95}, {"time": 36478, "pitch": 70, "duration": 476, "velocity": 105}, {"time": 36718, "pitch": 43, "duration": 236, "velocity": 95}, {"time": 36958, "pitch": 48, "duration": 716, "velocity": 85}, {"time": 36958, "pitch": 58, "duration": 476, "velocity": 95}, {"time": 36958, "pitch": 64, "duration": 476, "velocity": 105}, {"time": 36958, "pitch": 68, "duration": 476, "velocity": 115}, {"time": 37438, "pitch": 58, "duration": 476, "velocity": 95}, {"time": 37438, "pitch": 64, "duration": 476, "velocity": 105}, {"time": 37438, "pitch": 68, "duration": 476, "velocity": 115}, {"time": 37678, "pitch": 48, "duration": 236, "velocity": 75}, {"time": 37918, "pitch": 48, "duration": 716, "velocity": 85}, {"time": 37918, "pitch": 64, "duration": 476, "velocity": 95}, {"time": 37918, "pitch": 67, "duration": 476, "velocity": 105}, {"time": 37918, "pitch": 70, "duration": 476, "velocity": 115}, {"time": 38398, "pitch": 64, "duration": 476, "velocity": 95}, {"time": 38398, "pitch": 67, "duration": 476, "velocity": 105}, {"time": 38398, "pitch": 72, "duration": 476, "velocity": 115}, {"time": 38638, "pitch": 48, "duration": 236, "velocity": 75}, {"time": 38878, "pitch": 49, "duration": 716, "velocity": 85}, {"time": 38878, "pitch": 60, "duration": 476, "velocity": 105}, {"time": 38878, "pitch": 65, "duration": 476, "velocity": 105}, {"time": 38878, "pitch": 68, "duration": 476, "velocity": 115}, {"time": 39358, "pitch": 60, "duration": 476, "velocity": 105}, {"time": 39358, "pitch": 65, "duration": 476, "velocity": 105}, {"time": 39358, "pitch": 68, "duration": 476, "velocity": 115}, {"time": 39598, "pitch": 44, "duration": 236, "velocity": 85}, {"time": 39838, "pitch": 37, "duration": 716, "velocity": 85}, {"time": 39838, "pitch": 60, "duration": 476, "velocity": 105}, {"time": 39838, "pitch": 65, "duration": 476, "velocity": 105}, {"time": 39838, "pitch": 68, "duration": 476, "velocity": 115}, {"time": 40318, "pitch": 60, "duration": 476, "velocity": 105}, {"time": 40318, "pitch": 65, "duration": 476, "velocity": 105}, {"time": 40318, "pitch": 68, "duration": 476, "velocity": 115}, {"time": 40558, "pitch": 49, "duration": 236, "velocity": 85}, {"time": 40798, "pitch": 49, "duration": 716, "velocity": 85}, {"time": 40798, "pitch": 60, "duration": 476, "velocity": 105}, {"time": 40798, "pitch": 65, "duration": 476, "velocity": 105}, {"time": 40798, "pitch": 68, "duration": 476, "velocity": 115}, {"time": 41278, "pitch": 60, "duration": 476, "velocity": 105}, {"time": 41278, "pitch": 65, "duration": 476, "velocity": 105}, {"time": 41278, "pitch": 68, "duration": 476, "velocity": 115}, {"time": 41518, "pitch": 44, "duration": 236, "velocity": 85}, {"time": 41758, "pitch": 49, "duration": 716, "velocity": 85}, {"time": 41758, "pitch": 60, "duration": 476, "velocity": 105}, {"time": 41758, "pitch": 65, "duration": 476, "velocity": 105}, {"time": 41758, "pitch": 68, "duration": 476, "velocity": 115}, {"time": 42238, "pitch": 60, "duration": 476, "velocity": 105}, {"time": 42238, "pitch": 65, "duration": 476, "velocity": 105}, {"time": 42238, "pitch": 68, "duration": 476, "velocity": 115}, {"time": 42478, "pitch": 49, "duration": 236, "velocity": 85}, {"time": 42718, "pitch": 48, "duration": 716, "velocity": 85}, {"time": 42718, "pitch": 58, "duration": 476, "velocity": 105}, {"time": 42718, "pitch": 63, "duration": 476, "velocity": 105}, {"time": 42718, "pitch": 68, "duration": 476, "velocity": 115}, {"time": 43198, "pitch": 58, "duration": 476, "velocity": 105}, {"time": 43198, "pitch": 63, "duration": 476, "velocity": 105}, {"time": 43198, "pitch": 68, "duration": 476, "velocity": 115}, {"time": 43438, "pitch": 43, "duration": 236, "velocity": 85}, {"time": 43678, "pitch": 36, "duration": 716, "velocity": 85}, {"time": 43678, "pitch": 58, "duration": 476, "velocity": 105}, {"time": 43678, "pitch": 63, "duration": 476, "velocity": 105}, {"time": 43678, "pitch": 68, "duration": 476, "velocity": 115}, {"time": 44158, "pitch": 58, "duration": 236, "velocity": 105}, {"time": 44158, "pitch": 63, "duration": 236, "velocity": 105}, {"time": 44158, "pitch": 68, "duration": 236, "velocity": 115}, {"time": 44398, "pitch": 47, "duration": 956, "velocity": 85}, {"time": 44398, "pitch": 57, "duration": 476, "velocity": 105}, {"time": 44398, "pitch": 63, "duration": 476, "velocity": 105}, {"time": 44398, "pitch": 68, "duration": 476, "velocity": 115}, {"time": 44878, "pitch": 57, "duration": 236, "velocity": 105}, {"time": 44878, "pitch": 63, "duration": 236, "velocity": 105}, {"time": 44878, "pitch": 68, "duration": 236, "velocity": 115}, {"time": 45118, "pitch": 57, "duration": 476, "velocity": 105}, {"time": 45118, "pitch": 63, "duration": 476, "velocity": 105}, {"time": 45118, "pitch": 68, "duration": 476, "velocity": 115}, {"time": 45358, "pitch": 42, "duration": 236, "velocity": 85}, {"time": 45598, "pitch": 35, "duration": 716, "velocity": 85}, {"time": 45598, "pitch": 57, "duration": 476, "velocity": 105}, {"time": 45598, "pitch": 63, "duration": 476, "velocity": 105}, {"time": 45598, "pitch": 68, "duration": 476, "velocity": 115}, {"time": 46078, "pitch": 57, "duration": 476, "velocity": 105}, {"time": 46078, "pitch": 63, "duration": 476, "velocity": 105}, {"time": 46078, "pitch": 68, "duration": 476, "velocity": 115}, {"time": 46318, "pitch": 47, "duration": 236, "velocity": 85}, {"time": 46558, "pitch": 46, "duration": 716, "velocity": 85}, {"time": 46558, "pitch": 61, "duration": 476, "velocity": 105}, {"time": 46558, "pitch": 65, "duration": 476, "velocity": 105}, {"time": 46558, "pitch": 68, "duration": 476, "velocity": 115}, {"time": 47038, "pitch": 61, "duration": 476, "velocity": 105}, {"time": 47038, "pitch": 65, "duration": 476, "velocity": 105}, {"time": 47038, "pitch": 68, "duration": 476, "velocity": 115}, {"time": 47278, "pitch": 41, "duration": 236, "velocity": 85}, {"time": 47518, "pitch": 46, "duration": 236, "velocity": 85}, {"time": 47518, "pitch": 61, "duration": 476, "velocity": 105}, {"time": 47518, "pitch": 65, "duration": 476, "velocity": 105}, {"time": 47518, "pitch": 68, "duration": 476, "velocity": 115}, {"time": 47758, "pitch": 48, "duration": 236, "velocity": 85}, {"time": 47998, "pitch": 49, "duration": 236, "velocity": 85}, {"time": 47998, "pitch": 61, "duration": 236, "velocity": 105}, {"time": 47998, "pitch": 65, "duration": 236, "velocity": 105}, {"time": 47998, "pitch": 68, "duration": 236, "velocity": 115}, {"time": 48238, "pitch": 48, "duration": 476, "velocity": 85}, {"time": 48238, "pitch": 63, "duration": 476, "velocity": 105}, {"time": 48238, "pitch": 67, "duration": 476, "velocity": 105}, {"time": 48238, "pitch": 70, "duration": 476, "velocity": 115}, {"time": 48718, "pitch": 43, "duration": 236, "velocity": 85}, {"time": 48718, "pitch": 63, "duration": 236, "velocity": 105}, {"time": 48718, "pitch": 67, "duration": 236, "velocity": 105}, {"time": 48718, "pitch": 70, "duration": 236, "velocity": 115}, {"time": 48958, "pitch": 36, "duration": 476, "velocity": 85}, {"time": 48958, "pitch": 63, "duration": 476, "velocity": 105}, {"time": 48958, "pitch": 67, "duration": 476, "velocity": 105}, {"time": 48958, "pitch": 70, "duration": 476, "velocity": 115}, {"time": 49438, "pitch": 48, "duration": 236, "velocity": 85}, {"time": 49438, "pitch": 63, "duration": 476, "velocity": 105}, {"time": 49438, "pitch": 67, "duration": 476, "velocity": 105}, {"time": 49438, "pitch": 70, "duration": 476, "velocity": 115}, {"time": 49678, "pitch": 43, "duration": 236, "velocity": 85}, {"time": 49918, "pitch": 48, "duration": 476, "velocity": 85}, {"time": 49918, "pitch": 63, "duration": 476, "velocity": 105}, {"time": 49918, "pitch": 67, "duration": 476, "velocity": 105}, {"time": 49918, "pitch": 70, "duration": 476, "velocity": 115}, {"time": 50398, "pitch": 50, "duration": 716, "velocity": 85}, {"time": 50398, "pitch": 60, "duration": 476, "velocity": 105}, {"time": 50398, "pitch": 65, "duration": 476, "velocity": 105}, {"time": 50398, "pitch": 68, "duration": 476, "velocity": 115}, {"time": 50878, "pitch": 60, "duration": 476, "velocity": 105}, {"time": 50878, "pitch": 65, "duration": 476, "velocity": 105}, {"time": 50878, "pitch": 68, "duration": 476, "velocity": 115}, {"time": 51118, "pitch": 50, "duration": 236, "velocity": 85}, {"time": 51358, "pitch": 46, "duration": 716, "velocity": 85}, {"time": 51358, "pitch": 60, "duration": 476, "velocity": 105}, {"time": 51358, "pitch": 65, "duration": 476, "velocity": 105}, {"time": 51358, "pitch": 68, "duration": 476, "velocity": 115}, {"time": 51838, "pitch": 60, "duration": 236, "velocity": 105}, {"time": 51838, "pitch": 65, "duration": 236, "velocity": 105}, {"time": 51838, "pitch": 68, "duration": 236, "velocity": 115}, {"time": 52078, "pitch": 51, "duration": 476, "velocity": 85}, {"time": 52078, "pitch": 61, "duration": 476, "velocity": 105}, {"time": 52078, "pitch": 65, "duration": 476, "velocity": 105}, {"time": 52078, "pitch": 68, "duration": 476, "velocity": 115}, {"time": 52558, "pitch": 46, "duration": 236, "velocity": 85}, {"time": 52558, "pitch": 61, "duration": 236, "velocity": 105}, {"time": 52558, "pitch": 65, "duration": 236, "velocity": 105}, {"time": 52558, "pitch": 68, "duration": 236, "velocity": 115}, {"time": 52798, "pitch": 39, "duration": 476, "velocity": 85}, {"time": 52798, "pitch": 61, "duration": 476, "velocity": 105}, {"time": 52798, "pitch": 65, "duration": 476, "velocity": 105}, {"time": 52798, "pitch": 68, "duration": 476, "velocity": 115}, {"time": 53278, "pitch": 41, "duration": 476, "velocity": 85}, {"time": 53278, "pitch": 63, "duration": 476, "velocity": 105}, {"time": 53278, "pitch": 67, "duration": 476, "velocity": 105}, {"time": 53278, "pitch": 70, "duration": 476, "velocity": 115}, {"time": 53758, "pitch": 40, "duration": 476, "velocity": 85}, {"time": 53758, "pitch": 62, "duration": 476, "velocity": 105}, {"time": 53758, "pitch": 67, "duration": 476, "velocity": 105}, {"time": 53758, "pitch": 71, "duration": 476, "velocity": 115}, {"time": 54238, "pitch": 49, "duration": 716, "velocity": 90}, {"time": 54238, "pitch": 65, "duration": 476, "velocity": 110}, {"time": 54238, "pitch": 68, "duration": 476, "velocity": 110}, {"time": 54238, "pitch": 72, "duration": 476, "velocity": 120}, {"time": 54718, "pitch": 65, "duration": 476, "velocity": 110}, {"time": 54718, "pitch": 68, "duration": 476, "velocity": 110}, {"time": 54718, "pitch": 72, "duration": 476, "velocity": 120}, {"time": 54958, "pitch": 44, "duration": 236, "velocity": 90}, {"time": 55198, "pitch": 37, "duration": 715, "velocity": 90}, {"time": 55198, "pitch": 65, "duration": 475, "velocity": 110}, {"time": 55198, "pitch": 68, "duration": 475, "velocity": 110}, {"time": 55198, "pitch": 72, "duration": 475, "velocity": 120}, {"time": 55677, "pitch": 65, "duration": 476, "velocity": 110}, {"time": 55677, "pitch": 68, "duration": 476, "velocity": 110}, {"time": 55677, "pitch": 72, "duration": 476, "velocity": 120}, {"time": 55917, "pitch": 44, "duration": 236, "velocity": 90}, {"time": 56157, "pitch": 49, "duration": 716, "velocity": 90}, {"time": 56157, "pitch": 65, "duration": 476, "velocity": 110}, {"time": 56157, "pitch": 68, "duration": 476, "velocity": 110}, {"time": 56157, "pitch": 72, "duration": 476, "velocity": 120}, {"time": 56637, "pitch": 65, "duration": 476, "velocity": 110}, {"time": 56637, "pitch": 68, "duration": 476, "velocity": 110}, {"time": 56637, "pitch": 72, "duration": 476, "velocity": 120}, {"time": 56877, "pitch": 44, "duration": 236, "velocity": 90}, {"time": 57117, "pitch": 49, "duration": 716, "velocity": 90}, {"time": 57117, "pitch": 65, "duration": 476, "velocity": 110}, {"time": 57117, "pitch": 68, "duration": 476, "velocity": 110}, {"time": 57117, "pitch": 72, "duration": 476, "velocity": 120}, {"time": 57597, "pitch": 65, "duration": 476, "velocity": 110}, {"time": 57597, "pitch": 68, "duration": 476, "velocity": 110}, {"time": 57597, "pitch": 72, "duration": 476, "velocity": 120}, {"time": 57837, "pitch": 51, "duration": 236, "velocity": 90}, {"time": 58077, "pitch": 48, "duration": 716, "velocity": 90}, {"time": 58077, "pitch": 58, "duration": 476, "velocity": 110}, {"time": 58077, "pitch": 63, "duration": 476, "velocity": 110}, {"time": 58077, "pitch": 68, "duration": 476, "velocity": 120}, {"time": 58557, "pitch": 58, "duration": 476, "velocity": 110}, {"time": 58557, "pitch": 63, "duration": 476, "velocity": 110}, {"time": 58557, "pitch": 68, "duration": 476, "velocity": 120}, {"time": 58797, "pitch": 43, "duration": 236, "velocity": 90}, {"time": 59037, "pitch": 36, "duration": 716, "velocity": 90}, {"time": 59037, "pitch": 58, "duration": 476, "velocity": 110}, {"time": 59037, "pitch": 63, "duration": 476, "velocity": 110}, {"time": 59037, "pitch": 68, "duration": 476, "velocity": 120}, {"time": 59517, "pitch": 58, "duration": 116, "velocity": 110}, {"time": 59517, "pitch": 63, "duration": 116, "velocity": 110}, {"time": 59517, "pitch": 68, "duration": 116, "velocity": 120}, {"time": 59757, "pitch": 47, "duration": 956, "velocity": 90}, {"time": 59757, "pitch": 57, "duration": 476, "velocity": 110}, {"time": 59757, "pitch": 63, "duration": 476, "velocity": 110}, {"time": 59757, "pitch": 68, "duration": 476, "velocity": 120}, {"time": 60237, "pitch": 57, "duration": 116, "velocity": 110}, {"time": 60237, "pitch": 63, "duration": 116, "velocity": 110}, {"time": 60237, "pitch": 68, "duration": 116, "velocity": 120}, {"time": 60477, "pitch": 57, "duration": 476, "velocity": 110}, {"time": 60477, "pitch": 63, "duration": 476, "velocity": 110}, {"time": 60477, "pitch": 68, "duration": 476, "velocity": 120}, {"time": 60717, "pitch": 42, "duration": 236, "velocity": 90}, {"time": 60957, "pitch": 35, "duration": 716, "velocity": 90}, {"time": 60957, "pitch": 57, "duration": 476, "velocity": 110}, {"time": 60957, "pitch": 63, "duration": 476, "velocity": 110}, {"time": 60957, "pitch": 68, "duration": 476, "velocity": 120}, {"time": 61437, "pitch": 57, "duration": 476, "velocity": 110}, {"time": 61437, "pitch": 63, "duration": 476, "velocity": 110}, {"time": 61437, "pitch": 68, "duration": 476, "velocity": 120}, {"time": 61677, "pitch": 47, "duration": 236, "velocity": 90}, {"time": 61917, "pitch": 46, "duration": 716, "velocity": 90}, {"time": 61917, "pitch": 61, "duration": 476, "velocity": 110}, {"time": 61917, "pitch": 65, "duration": 476, "velocity": 110}, {"time": 61917, "pitch": 68, "duration": 476, "velocity": 120}, {"time": 62397, "pitch": 61, "duration": 476, "velocity": 110}, {"time": 62397, "pitch": 65, "duration": 476, "velocity": 110}, {"time": 62397, "pitch": 68, "duration": 476, "velocity": 120}, {"time": 62637, "pitch": 41, "duration": 236, "velocity": 90}, {"time": 62877, "pitch": 46, "duration": 236, "velocity": 90}, {"time": 62877, "pitch": 61, "duration": 476, "velocity": 110}, {"time": 62877, "pitch": 65, "duration": 476, "velocity": 110}, {"time": 62877, "pitch": 68, "duration": 476, "velocity": 120}, {"time": 63117, "pitch": 48, "duration": 236, "velocity": 90}, {"time": 63357, "pitch": 49, "duration": 236, "velocity": 90}, {"time": 63357, "pitch": 61, "duration": 116, "velocity": 110}, {"time": 63357, "pitch": 65, "duration": 116, "velocity": 110}, {"time": 63357, "pitch": 68, "duration": 116, "velocity": 120}, {"time": 63597, "pitch": 51, "duration": 476, "velocity": 90}, {"time": 63597, "pitch": 61, "duration": 476, "velocity": 110}, {"time": 63597, "pitch": 65, "duration": 476, "velocity": 110}, {"time": 63597, "pitch": 68, "duration": 476, "velocity": 120}, {"time": 64077, "pitch": 46, "duration": 236, "velocity": 90}, {"time": 64077, "pitch": 61, "duration": 116, "velocity": 110}, {"time": 64077, "pitch": 65, "duration": 116, "velocity": 110}, {"time": 64077, "pitch": 68, "duration": 116, "velocity": 120}, {"time": 64317, "pitch": 39, "duration": 476, "velocity": 90}, {"time": 64317, "pitch": 61, "duration": 476, "velocity": 110}, {"time": 64317, "pitch": 65, "duration": 476, "velocity": 110}, {"time": 64317, "pitch": 68, "duration": 476, "velocity": 120}, {"time": 64797, "pitch": 42, "duration": 476, "velocity": 90}, {"time": 64797, "pitch": 58, "duration": 476, "velocity": 110}, {"time": 64797, "pitch": 64, "duration": 476, "velocity": 110}, {"time": 64797, "pitch": 68, "duration": 476, "velocity": 120}, {"time": 65277, "pitch": 48, "duration": 476, "velocity": 90}, {"time": 65277, "pitch": 58, "duration": 476, "velocity": 110}, {"time": 65277, "pitch": 64, "duration": 476, "velocity": 110}, {"time": 65277, "pitch": 67, "duration": 476, "velocity": 120}, {"time": 65757, "pitch": 50, "duration": 716, "velocity": 90}, {"time": 65757, "pitch": 60, "duration": 476, "velocity": 110}, {"time": 65757, "pitch": 65, "duration": 476, "velocity": 110}, {"time": 65757, "pitch": 68, "duration": 476, "velocity": 120}, {"time": 66237, "pitch": 60, "duration": 476, "velocity": 110}, {"time": 66237, "pitch": 65, "duration": 476, "velocity": 110}, {"time": 66237, "pitch": 68, "duration": 476, "velocity": 120}, {"time": 66477, "pitch": 50, "duration": 236, "velocity": 90}, {"time": 66717, "pitch": 49, "duration": 596, "velocity": 90}, {"time": 66717, "pitch": 58, "duration": 476, "velocity": 110}, {"time": 66717, "pitch": 64, "duration": 476, "velocity": 110}, {"time": 66717, "pitch": 68, "duration": 476, "velocity": 120}, {"time": 67197, "pitch": 58, "duration": 116, "velocity": 110}, {"time": 67197, "pitch": 64, "duration": 116, "velocity": 110}, {"time": 67197, "pitch": 68, "duration": 116, "velocity": 120}, {"time": 67437, "pitch": 48, "duration": 596, "velocity": 90}, {"time": 67437, "pitch": 58, "duration": 476, "velocity": 110}, {"time": 67437, "pitch": 63, "duration": 476, "velocity": 110}, {"time": 67437, "pitch": 67, "duration": 476, "velocity": 120}, {"time": 67917, "pitch": 58, "duration": 116, "velocity": 110}, {"time": 67917, "pitch": 63, "duration": 116, "velocity": 110}, {"time": 67917, "pitch": 67, "duration": 116, "velocity": 120}, {"time": 68157, "pitch": 47, "duration": 716, "velocity": 90}, {"time": 68157, "pitch": 58, "duration": 716, "velocity": 110}, {"time": 68157, "pitch": 63, "duration": 716, "velocity": 110}, {"time": 68157, "pitch": 66, "duration": 716, "velocity": 120}, {"time": 68877, "pitch": 46, "duration": 716, "velocity": 90}, {"time": 68877, "pitch": 56, "duration": 716, "velocity": 110}, {"time": 68877, "pitch": 61, "duration": 716, "velocity": 110}, {"time": 68877, "pitch": 65, "duration": 716, "velocity": 120}, {"time": 69597, "pitch": 44, "duration": 716, "velocity": 85}, {"time": 69597, "pitch": 55, "duration": 476, "velocity": 95}, {"time": 69597, "pitch": 58, "duration": 476, "velocity": 95}, {"time": 69597, "pitch": 60, "duration": 476, "velocity": 95}, {"time": 69597, "pitch": 63, "duration": 476, "velocity": 105}, {"time": 70077, "pitch": 55, "duration": 476, "velocity": 95}, {"time": 70077, "pitch": 58, "duration": 476, "velocity": 95}, {"time": 70077, "pitch": 60, "duration": 476, "velocity": 95}, {"time": 70077, "pitch": 63, "duration": 476, "velocity": 105}, {"time": 70317, "pitch": 44, "duration": 236, "velocity": 85}, {"time": 70557, "pitch": 44, "duration": 716, "velocity": 85}, {"time": 70557, "pitch": 55, "duration": 476, "velocity": 95}, {"time": 70557, "pitch": 58, "duration": 476, "velocity": 95}, {"time": 70557, "pitch": 60, "duration": 476, "velocity": 95}, {"time": 70557, "pitch": 63, "duration": 476, "velocity": 105}, {"time": 71037, "pitch": 55, "duration": 476, "velocity": 95}, {"time": 71037, "pitch": 58, "duration": 476, "velocity": 95}, {"time": 71037, "pitch": 60, "duration": 476, "velocity": 95}, {"time": 71037, "pitch": 63, "duration": 476, "velocity": 105}, {"time": 71277, "pitch": 45, "duration": 236, "velocity": 85}, {"time": 71517, "pitch": 46, "duration": 719, "velocity": 85}, {"time": 71517, "pitch": 56, "duration": 476, "velocity": 95}, {"time": 71517, "pitch": 60, "duration": 476, "velocity": 95}, {"time": 71517, "pitch": 61, "duration": 476, "velocity": 95}, {"time": 71517, "pitch": 65, "duration": 476, "velocity": 105}, {"time": 71997, "pitch": 56, "duration": 482, "velocity": 95}, {"time": 71997, "pitch": 60, "duration": 482, "velocity": 95}, {"time": 71997, "pitch": 61, "duration": 482, "velocity": 95}, {"time": 71997, "pitch": 65, "duration": 482, "velocity": 105}, {"time": 72240, "pitch": 46, "duration": 239, "velocity": 85}, {"time": 72483, "pitch": 46, "duration": 716, "velocity": 85}, {"time": 72483, "pitch": 56, "duration": 476, "velocity": 95}, {"time": 72483, "pitch": 60, "duration": 476, "velocity": 95}, {"time": 72483, "pitch": 61, "duration": 476, "velocity": 95}, {"time": 72483, "pitch": 65, "duration": 476, "velocity": 105}, {"time": 72963, "pitch": 56, "duration": 476, "velocity": 95}, {"time": 72963, "pitch": 60, "duration": 476, "velocity": 95}, {"time": 72963, "pitch": 61, "duration": 476, "velocity": 95}, {"time": 72963, "pitch": 65, "duration": 476, "velocity": 105}, {"time": 73203, "pitch": 46, "duration": 236, "velocity": 85}, {"time": 73443, "pitch": 48, "duration": 716, "velocity": 85}, {"time": 73443, "pitch": 60, "duration": 476, "velocity": 95}, {"time": 73443, "pitch": 65, "duration": 476, "velocity": 95}, {"time": 73443, "pitch": 67, "duration": 476, "velocity": 105}, {"time": 73923, "pitch": 60, "duration": 476, "velocity": 95}, {"time": 73923, "pitch": 65, "duration": 476, "velocity": 95}, {"time": 73923, "pitch": 67, "duration": 476, "velocity": 105}, {"time": 74163, "pitch": 48, "duration": 236, "velocity": 85}, {"time": 74403, "pitch": 48, "duration": 716, "velocity": 85}, {"time": 74403, "pitch": 60, "duration": 476, "velocity": 95}, {"time": 74403, "pitch": 64, "duration": 476, "velocity": 95}, {"time": 74403, "pitch": 67, "duration": 476, "velocity": 105}, {"time": 74883, "pitch": 60, "duration": 476, "velocity": 95}, {"time": 74883, "pitch": 64, "duration": 476, "velocity": 95}, {"time": 74883, "pitch": 67, "duration": 476, "velocity": 105}, {"time": 75123, "pitch": 48, "duration": 236, "velocity": 85}, {"time": 75363, "pitch": 41, "duration": 716, "velocity": 85}, {"time": 75363, "pitch": 60, "duration": 476, "velocity": 95}, {"time": 75363, "pitch": 63, "duration": 476, "velocity": 95}, {"time": 75363, "pitch": 68, "duration": 476, "velocity": 105}, {"time": 75843, "pitch": 60, "duration": 476, "velocity": 95}, {"time": 75843, "pitch": 63, "duration": 476, "velocity": 95}, {"time": 75843, "pitch": 68, "duration": 476, "velocity": 105}, {"time": 76083, "pitch": 41, "duration": 236, "velocity": 85}, {"time": 76323, "pitch": 48, "duration": 716, "velocity": 85}, {"time": 76323, "pitch": 58, "duration": 476, "velocity": 95}, {"time": 76323, "pitch": 64, "duration": 476, "velocity": 95}, {"time": 76323, "pitch": 68, "duration": 476, "velocity": 105}, {"time": 76803, "pitch": 58, "duration": 476, "velocity": 95}, {"time": 76803, "pitch": 64, "duration": 476, "velocity": 95}, {"time": 76803, "pitch": 67, "duration": 476, "velocity": 105}, {"time": 77043, "pitch": 48, "duration": 236, "velocity": 85}, {"time": 77283, "pitch": 46, "duration": 716, "velocity": 85}, {"time": 77283, "pitch": 56, "duration": 476, "velocity": 95}, {"time": 77283, "pitch": 61, "duration": 476, "velocity": 95}, {"time": 77283, "pitch": 65, "duration": 476, "velocity": 105}, {"time": 77763, "pitch": 56, "duration": 476, "velocity": 95}, {"time": 77763, "pitch": 61, "duration": 476, "velocity": 95}, {"time": 77763, "pitch": 65, "duration": 476, "velocity": 105}, {"time": 78003, "pitch": 46, "duration": 236, "velocity": 85}, {"time": 78243, "pitch": 46, "duration": 716, "velocity": 85}, {"time": 78243, "pitch": 56, "duration": 476, "velocity": 95}, {"time": 78243, "pitch": 61, "duration": 476, "velocity": 95}, {"time": 78243, "pitch": 65, "duration": 476, "velocity": 105}, {"time": 78723, "pitch": 56, "duration": 476, "velocity": 95}, {"time": 78723, "pitch": 61, "duration": 476, "velocity": 95}, {"time": 78723, "pitch": 65, "duration": 476, "velocity": 105}, {"time": 78963, "pitch": 44, "duration": 236, "velocity": 85}, {"time": 79203, "pitch": 42, "duration": 716, "velocity": 85}, {"time": 79203, "pitch": 58, "duration": 476, "velocity": 95}, {"time": 79203, "pitch": 61, "duration": 476, "velocity": 95}, {"time": 79203, "pitch": 65, "duration": 476, "velocity": 105}, {"time": 79683, "pitch": 58, "duration": 476, "velocity": 95}, {"time": 79683, "pitch": 61, "duration": 476, "velocity": 95}, {"time": 79683, "pitch": 65, "duration": 476, "velocity": 105}, {"time": 79923, "pitch": 42, "duration": 236, "velocity": 85}, {"time": 80163, "pitch": 42, "duration": 716, "velocity": 85}, {"time": 80163, "pitch": 58, "duration": 476, "velocity": 95}, {"time": 80163, "pitch": 61, "duration": 476, "velocity": 95}, {"time": 80163, "pitch": 65, "duration": 476, "velocity": 105}, {"time": 80643, "pitch": 58, "duration": 476, "velocity": 95}, {"time": 80643, "pitch": 61, "duration": 476, "velocity": 95}, {"time": 80643, "pitch": 65, "duration": 476, "velocity": 105}, {"time": 80883, "pitch": 41, "duration": 236, "velocity": 85}, {"time": 81123, "pitch": 39, "duration": 716, "velocity": 85}, {"time": 81123, "pitch": 58, "duration": 476, "velocity": 95}, {"time": 81123, "pitch": 61, "duration": 476, "velocity": 95}, {"time": 81123, "pitch": 66, "duration": 476, "velocity": 105}, {"time": 81603, "pitch": 58, "duration": 476, "velocity": 95}, {"time": 81603, "pitch": 61, "duration": 476, "velocity": 95}, {"time": 81603, "pitch": 66, "duration": 476, "velocity": 105}, {"time": 81843, "pitch": 39, "duration": 236, "velocity": 85}, {"time": 82083, "pitch": 39, "duration": 716, "velocity": 85}, {"time": 82083, "pitch": 58, "duration": 476, "velocity": 95}, {"time": 82083, "pitch": 61, "duration": 476, "velocity": 95}, {"time": 82083, "pitch": 66, "duration": 476, "velocity": 105}, {"time": 82563, "pitch": 58, "duration": 476, "velocity": 95}, {"time": 82563, "pitch": 61, "duration": 476, "velocity": 95}, {"time": 82563, "pitch": 66, "duration": 476, "velocity": 105}, {"time": 82803, "pitch": 39, "duration": 236, "velocity": 85}, {"time": 83043, "pitch": 44, "duration": 716, "velocity": 85}, {"time": 83043, "pitch": 56, "duration": 476, "velocity": 95}, {"time": 83043, "pitch": 61, "duration": 476, "velocity": 95}, {"time": 83043, "pitch": 63, "duration": 476, "velocity": 105}, {"time": 83523, "pitch": 56, "duration": 476, "velocity": 95}, {"time": 83523, "pitch": 61, "duration": 476, "velocity": 95}, {"time": 83523, "pitch": 63, "duration": 476, "velocity": 105}, {"time": 83763, "pitch": 44, "duration": 236, "velocity": 85}, {"time": 84003, "pitch": 44, "duration": 716, "velocity": 85}, {"time": 84003, "pitch": 56, "duration": 476, "velocity": 95}, {"time": 84003, "pitch": 60, "duration": 476, "velocity": 95}, {"time": 84003, "pitch": 63, "duration": 476, "velocity": 105}, {"time": 84243, "pitch": 68, "duration": 716, "velocity": 105}, {"time": 84483, "pitch": 56, "duration": 476, "velocity": 95}, {"time": 84483, "pitch": 60, "duration": 476, "velocity": 95}, {"time": 84483, "pitch": 63, "duration": 476, "velocity": 105}, {"time": 84603, "pitch": 75, "duration": 356, "velocity": 105}, {"time": 84723, "pitch": 44, "duration": 236, "velocity": 85}, {"time": 84723, "pitch": 80, "duration": 236, "velocity": 105}, {"time": 84963, "pitch": 42, "duration": 716, "velocity": 75}, {"time": 84963, "pitch": 58, "duration": 476, "velocity": 85}, {"time": 84963, "pitch": 61, "duration": 476, "velocity": 85}, {"time": 84963, "pitch": 65, "duration": 476, "velocity": 85}, {"time": 84963, "pitch": 68, "duration": 476, "velocity": 95}, {"time": 85443, "pitch": 58, "duration": 476, "velocity": 85}, {"time": 85443, "pitch": 61, "duration": 476, "velocity": 85}, {"time": 85443, "pitch": 65, "duration": 476, "velocity": 85}, {"time": 85443, "pitch": 68, "duration": 476, "velocity": 95}, {"time": 85683, "pitch": 42, "duration": 956, "velocity": 75}, {"time": 85923, "pitch": 58, "duration": 476, "velocity": 85}, {"time": 85923, "pitch": 61, "duration": 476, "velocity": 85}, {"time": 85923, "pitch": 65, "duration": 476, "velocity": 85}, {"time": 85923, "pitch": 68, "duration": 476, "velocity": 95}, {"time": 86163, "pitch": 80, "duration": 716, "velocity": 100}, {"time": 86403, "pitch": 58, "duration": 476, "velocity": 85}, {"time": 86403, "pitch": 61, "duration": 476, "velocity": 85}, {"time": 86403, "pitch": 65, "duration": 476, "velocity": 85}, {"time": 86403, "pitch": 68, "duration": 476, "velocity": 95}, {"time": 86403, "pitch": 73, "duration": 476, "velocity": 90}, {"time": 86643, "pitch": 37, "duration": 236, "velocity": 75}, {"time": 86883, "pitch": 42, "duration": 716, "velocity": 75}, {"time": 86883, "pitch": 58, "duration": 476, "velocity": 85}, {"time": 86883, "pitch": 61, "duration": 476, "velocity": 85}, {"time": 86883, "pitch": 65, "duration": 476, "velocity": 85}, {"time": 86883, "pitch": 68, "duration": 476, "velocity": 95}, {"time": 87363, "pitch": 58, "duration": 476, "velocity": 85}, {"time": 87363, "pitch": 61, "duration": 476, "velocity": 85}, {"time": 87363, "pitch": 65, "duration": 476, "velocity": 85}, {"time": 87363, "pitch": 68, "duration": 476, "velocity": 95}, {"time": 87603, "pitch": 42, "duration": 236, "velocity": 75}, {"time": 87843, "pitch": 42, "duration": 716, "velocity": 75}, {"time": 87843, "pitch": 58, "duration": 476, "velocity": 85}, {"time": 87843, "pitch": 61, "duration": 476, "velocity": 85}, {"time": 87843, "pitch": 65, "duration": 476, "velocity": 85}, {"time": 87843, "pitch": 68, "duration": 476, "velocity": 95}, {"time": 88083, "pitch": 80, "duration": 716, "velocity": 100}, {"time": 88323, "pitch": 58, "duration": 476, "velocity": 85}, {"time": 88323, "pitch": 61, "duration": 476, "velocity": 85}, {"time": 88323, "pitch": 65, "duration": 476, "velocity": 85}, {"time": 88323, "pitch": 68, "duration": 476, "velocity": 95}, {"time": 88323, "pitch": 73, "duration": 476, "velocity": 90}, {"time": 88563, "pitch": 42, "duration": 236, "velocity": 75}, {"time": 88803, "pitch": 41, "duration": 715, "velocity": 75}, {"time": 88803, "pitch": 56, "duration": 475, "velocity": 85}, {"time": 88803, "pitch": 60, "duration": 475, "velocity": 85}, {"time": 88803, "pitch": 63, "duration": 475, "velocity": 85}, {"time": 88803, "pitch": 67, "duration": 475, "velocity": 95}, {"time": 89282, "pitch": 56, "duration": 476, "velocity": 85}, {"time": 89282, "pitch": 60, "duration": 476, "velocity": 85}, {"time": 89282, "pitch": 63, "duration": 476, "velocity": 85}, {"time": 89282, "pitch": 67, "duration": 476, "velocity": 95}, {"time": 89522, "pitch": 41, "duration": 956, "velocity": 75}, {"time": 89762, "pitch": 56, "duration": 476, "velocity": 85}, {"time": 89762, "pitch": 60, "duration": 476, "velocity": 85}, {"time": 89762, "pitch": 63, "duration": 476, "velocity": 85}, {"time": 89762, "pitch": 67, "duration": 476, "velocity": 95}, {"time": 90002, "pitch": 79, "duration": 716, "velocity": 100}, {"time": 90242, "pitch": 56, "duration": 476, "velocity": 85}, {"time": 90242, "pitch": 60, "duration": 476, "velocity": 85}, {"time": 90242, "pitch": 63, "duration": 476, "velocity": 85}, {"time": 90242, "pitch": 67, "duration": 476, "velocity": 95}, {"time": 90242, "pitch": 72, "duration": 476, "velocity": 90}, {"time": 90482, "pitch": 36, "duration": 236, "velocity": 75}, {"time": 90722, "pitch": 41, "duration": 716, "velocity": 75}, {"time": 90722, "pitch": 56, "duration": 476, "velocity": 85}, {"time": 90722, "pitch": 60, "duration": 476, "velocity": 85}, {"time": 90722, "pitch": 63, "duration": 476, "velocity": 85}, {"time": 90722, "pitch": 67, "duration": 476, "velocity": 95}, {"time": 91202, "pitch": 56, "duration": 476, "velocity": 85}, {"time": 91202, "pitch": 60, "duration": 476, "velocity": 85}, {"time": 91202, "pitch": 63, "duration": 476, "velocity": 85}, {"time": 91202, "pitch": 67, "duration": 476, "velocity": 95}, {"time": 91442, "pitch": 41, "duration": 956, "velocity": 75}, {"time": 91682, "pitch": 56, "duration": 476, "velocity": 85}, {"time": 91682, "pitch": 60, "duration": 476, "velocity": 85}, {"time": 91682, "pitch": 63, "duration": 476, "velocity": 85}, {"time": 91682, "pitch": 67, "duration": 476, "velocity": 95}, {"time": 91682, "pitch": 79, "duration": 955, "velocity": 105}, {"time": 91922, "pitch": 75, "duration": 715, "velocity": 85}, {"time": 92042, "pitch": 70, "duration": 595, "velocity": 95}, {"time": 92162, "pitch": 56, "duration": 476, "velocity": 85}, {"time": 92162, "pitch": 60, "duration": 476, "velocity": 85}, {"time": 92162, "pitch": 63, "duration": 476, "velocity": 85}, {"time": 92162, "pitch": 67, "duration": 476, "velocity": 95}, {"time": 92402, "pitch": 41, "duration": 236, "velocity": 75}, {"time": 92642, "pitch": 42, "duration": 716, "velocity": 75}, {"time": 92642, "pitch": 58, "duration": 476, "velocity": 85}, {"time": 92642, "pitch": 61, "duration": 476, "velocity": 85}, {"time": 92642, "pitch": 65, "duration": 476, "velocity": 85}, {"time": 92642, "pitch": 68, "duration": 476, "velocity": 95}, {"time": 93122, "pitch": 58, "duration": 476, "velocity": 85}, {"time": 93122, "pitch": 61, "duration": 476, "velocity": 85}, {"time": 93122, "pitch": 65, "duration": 476, "velocity": 85}, {"time": 93122, "pitch": 68, "duration": 476, "velocity": 95}, {"time": 93362, "pitch": 42, "duration": 956, "velocity": 75}, {"time": 93602, "pitch": 58, "duration": 476, "velocity": 85}, {"time": 93602, "pitch": 61, "duration": 476, "velocity": 85}, {"time": 93602, "pitch": 65, "duration": 476, "velocity": 85}, {"time": 93602, "pitch": 68, "duration": 476, "velocity": 95}, {"time": 93722, "pitch": 73, "duration": 836, "velocity": 100}, {"time": 93842, "pitch": 75, "duration": 716, "velocity": 90}, {"time": 93962, "pitch": 80, "duration": 596, "velocity": 105}, {"time": 94082, "pitch": 58, "duration": 476, "velocity": 85}, {"time": 94082, "pitch": 61, "duration": 476, "velocity": 85}, {"time": 94082, "pitch": 65, "duration": 476, "velocity": 85}, {"time": 94082, "pitch": 68, "duration": 476, "velocity": 95}, {"time": 94322, "pitch": 37, "duration": 236, "velocity": 75}, {"time": 94562, "pitch": 42, "duration": 716, "velocity": 75}, {"time": 94562, "pitch": 58, "duration": 476, "velocity": 85}, {"time": 94562, "pitch": 61, "duration": 476, "velocity": 85}, {"time": 94562, "pitch": 65, "duration": 476, "velocity": 85}, {"time": 94562, "pitch": 68, "duration": 476, "velocity": 95}, {"time": 95042, "pitch": 58, "duration": 476, "velocity": 85}, {"time": 95042, "pitch": 61, "duration": 476, "velocity": 85}, {"time": 95042, "pitch": 65, "duration": 476, "velocity": 85}, {"time": 95042, "pitch": 68, "duration": 476, "velocity": 95}, {"time": 95162, "pitch": 85, "duration": 1316, "velocity": 105}, {"time": 95282, "pitch": 42, "duration": 236, "velocity": 75}, {"time": 95282, "pitch": 80, "duration": 1196, "velocity": 90}, {"time": 95402, "pitch": 75, "duration": 1076, "velocity": 100}, {"time": 95522, "pitch": 42, "duration": 716, "velocity": 75}, {"time": 95522, "pitch": 58, "duration": 476, "velocity": 85}, {"time": 95522, "pitch": 61, "duration": 476, "velocity": 85}, {"time": 95522, "pitch": 65, "duration": 476, "velocity": 85}, {"time": 95522, "pitch": 68, "duration": 476, "velocity": 95}, {"time": 96002, "pitch": 58, "duration": 476, "velocity": 85}, {"time": 96002, "pitch": 61, "duration": 476, "velocity": 85}, {"time": 96002, "pitch": 65, "duration": 476, "velocity": 85}, {"time": 96002, "pitch": 68, "duration": 476, "velocity": 95}, {"time": 96242, "pitch": 42, "duration": 236, "velocity": 75}, {"time": 96482, "pitch": 43, "duration": 1436, "velocity": 100}, {"time": 96482, "pitch": 58, "duration": 1756, "velocity": 85}, {"time": 96482, "pitch": 61, "duration": 236, "velocity": 95}, {"time": 96482, "pitch": 65, "duration": 1596, "velocity": 105}, {"time": 96602, "pitch": 53, "duration": 1316, "velocity": 90}, {"time": 96722, "pitch": 61, "duration": 1436, "velocity": 85}, {"time": 96842, "pitch": 70, "duration": 1156, "velocity": 95}, {"time": 96962, "pitch": 73, "duration": 956, "velocity": 100}, {"time": 97082, "pitch": 77, "duration": 716, "velocity": 105}, {"time": 97202, "pitch": 82, "duration": 476, "velocity": 110}, {"time": 97322, "pitch": 85, "duration": 236, "velocity": 115}, {"time": 97442, "pitch": 89, "duration": 956, "velocity": 110}, {"time": 97562, "pitch": 85, "duration": 836, "velocity": 95}, {"time": 97682, "pitch": 82, "duration": 716, "velocity": 100}, {"time": 97802, "pitch": 77, "duration": 596, "velocity": 90}, {"time": 97922, "pitch": 43, "duration": 476, "velocity": 100}, {"time": 97922, "pitch": 53, "duration": 396, "velocity": 90}, {"time": 97922, "pitch": 73, "duration": 476, "velocity": 105}, {"time": 98002, "pitch": 70, "duration": 396, "velocity": 100}, {"time": 98082, "pitch": 65, "duration": 316, "velocity": 95}, {"time": 98162, "pitch": 61, "duration": 236, "velocity": 100}, {"time": 98242, "pitch": 58, "duration": 156, "velocity": 95}, {"time": 98322, "pitch": 53, "duration": 76, "velocity": 85}, {"time": 98402, "pitch": 48, "duration": 956, "velocity": 98}, {"time": 98482, "pitch": 58, "duration": 876, "velocity": 101}, {"time": 98562, "pitch": 64, "duration": 796, "velocity": 104}, {"time": 98642, "pitch": 68, "duration": 716, "velocity": 107}, {"time": 98722, "pitch": 70, "duration": 636, "velocity": 110}, {"time": 98802, "pitch": 72, "duration": 556, "velocity": 113}, {"time": 98882, "pitch": 76, "duration": 476, "velocity": 117}, {"time": 98962, "pitch": 80, "duration": 396, "velocity": 120}, {"time": 99042, "pitch": 82, "duration": 316, "velocity": 123}, {"time": 99122, "pitch": 84, "duration": 236, "velocity": 126}, {"time": 99202, "pitch": 88, "duration": 156, "velocity": 127}, {"time": 99282, "pitch": 91, "duration": 120, "velocity": 111}, {"time": 99362, "pitch": 60, "duration": 956, "velocity": 110}, {"time": 99362, "pitch": 70, "duration": 956, "velocity": 100}, {"time": 99362, "pitch": 84, "duration": 726, "velocity": 111}, {"time": 99372, "pitch": 96, "duration": 956, "velocity": 120}, {"time": 99722, "pitch": 79, "duration": 596, "velocity": 110}, {"time": 99732, "pitch": 91, "duration": 596, "velocity": 120}, {"time": 99842, "pitch": 48, "duration": 475, "velocity": 118}, {"time": 99842, "pitch": 58, "duration": 476, "velocity": 118}, {"time": 100082, "pitch": 72, "duration": 236, "velocity": 105}, {"time": 100092, "pitch": 84, "duration": 236, "velocity": 115}, {"time": 100322, "pitch": 49, "duration": 716, "velocity": 85}, {"time": 100322, "pitch": 60, "duration": 476, "velocity": 105}, {"time": 100322, "pitch": 65, "duration": 476, "velocity": 105}, {"time": 100322, "pitch": 68, "duration": 476, "velocity": 115}, {"time": 100802, "pitch": 60, "duration": 476, "velocity": 105}, {"time": 100802, "pitch": 65, "duration": 476, "velocity": 105}, {"time": 100802, "pitch": 68, "duration": 476, "velocity": 115}, {"time": 101042, "pitch": 44, "duration": 236, "velocity": 85}, {"time": 101282, "pitch": 37, "duration": 716, "velocity": 85}, {"time": 101282, "pitch": 60, "duration": 476, "velocity": 105}, {"time": 101282, "pitch": 65, "duration": 476, "velocity": 105}, {"time": 101282, "pitch": 68, "duration": 476, "velocity": 115}, {"time": 101762, "pitch": 60, "duration": 476, "velocity": 105}, {"time": 101762, "pitch": 65, "duration": 476, "velocity": 105}, {"time": 101762, "pitch": 68, "duration": 476, "velocity": 115}, {"time": 102002, "pitch": 49, "duration": 236, "velocity": 85}, {"time": 102242, "pitch": 49, "duration": 716, "velocity": 85}, {"time": 102242, "pitch": 60, "duration": 476, "velocity": 105}, {"time": 102242, "pitch": 65, "duration": 476, "velocity": 105}, {"time": 102242, "pitch": 68, "duration": 356, "velocity": 115}, {"time": 102602, "pitch": 68, "duration": 116, "velocity": 105}, {"time": 102602, "pitch": 72, "duration": 356, "velocity": 105}, {"time": 102602, "pitch": 77, "duration": 356, "velocity": 115}, {"time": 102722, "pitch": 60, "duration": 476, "velocity": 105}, {"time": 102722, "pitch": 65, "duration": 476, "velocity": 105}, {"time": 102722, "pitch": 68, "duration": 476, "velocity": 115}, {"time": 102962, "pitch": 44, "duration": 236, "velocity": 85}, {"time": 102962, "pitch": 72, "duration": 1196, "velocity": 105}, {"time": 102962, "pitch": 77, "duration": 1196, "velocity": 105}, {"time": 102962, "pitch": 80, "duration": 656, "velocity": 115}, {"time": 103202, "pitch": 49, "duration": 236, "velocity": 85}, {"time": 103202, "pitch": 60, "duration": 476, "velocity": 105}, {"time": 103202, "pitch": 65, "duration": 476, "velocity": 105}, {"time": 103202, "pitch": 68, "duration": 476, "velocity": 115}, {"time": 103442, "pitch": 44, "duration": 236, "velocity": 85}, {"time": 103622, "pitch": 80, "duration": 536, "velocity": 95}, {"time": 103652, "pitch": 84, "duration": 506, "velocity": 105}, {"time": 103682, "pitch": 49, "duration": 236, "velocity": 85}, {"time": 103682, "pitch": 60, "duration": 476, "velocity": 105}, {"time": 103682, "pitch": 65, "duration": 476, "velocity": 105}, {"time": 103682, "pitch": 68, "duration": 476, "velocity": 115}, {"time": 103682, "pitch": 89, "duration": 476, "velocity": 125}, {"time": 103922, "pitch": 51, "duration": 236, "velocity": 85}, {"time": 104162, "pitch": 48, "duration": 716, "velocity": 85}, {"time": 104162, "pitch": 58, "duration": 476, "velocity": 105}, {"time": 104162, "pitch": 63, "duration": 476, "velocity": 105}, {"time": 104162, "pitch": 68, "duration": 356, "velocity": 115}, {"time": 104522, "pitch": 68, "duration": 116, "velocity": 105}, {"time": 104522, "pitch": 70, "duration": 356, "velocity": 105}, {"time": 104522, "pitch": 75, "duration": 356, "velocity": 115}, {"time": 104642, "pitch": 58, "duration": 476, "velocity": 105}, {"time": 104642, "pitch": 63, "duration": 476, "velocity": 105}, {"time": 104642, "pitch": 68, "duration": 476, "velocity": 115}, {"time": 104882, "pitch": 43, "duration": 236, "velocity": 85}, {"time": 104882, "pitch": 70, "duration": 956, "velocity": 105}, {"time": 104882, "pitch": 75, "duration": 956, "velocity": 105}, {"time": 104882, "pitch": 80, "duration": 416, "velocity": 115}, {"time": 105122, "pitch": 36, "duration": 716, "velocity": 85}, {"time": 105122, "pitch": 58, "duration": 476, "velocity": 105}, {"time": 105122, "pitch": 63, "duration": 476, "velocity": 105}, {"time": 105122, "pitch": 68, "duration": 476, "velocity": 115}, {"time": 105302, "pitch": 80, "duration": 536, "velocity": 95}, {"time": 105332, "pitch": 82, "duration": 506, "velocity": 105}, {"time": 105362, "pitch": 87, "duration": 476, "velocity": 125}, {"time": 105602, "pitch": 58, "duration": 236, "velocity": 105}, {"time": 105602, "pitch": 63, "duration": 236, "velocity": 105}, {"time": 105602, "pitch": 68, "duration": 236, "velocity": 115}, {"time": 105842, "pitch": 47, "duration": 2156, "velocity": 85}, {"time": 105842, "pitch": 57, "duration": 2156, "velocity": 105}, {"time": 105842, "pitch": 81, "duration": 476, "velocity": 115}, {"time": 105842, "pitch": 87, "duration": 476, "velocity": 115}, {"time": 105842, "pitch": 92, "duration": 2156, "velocity": 125}, {"time": 106202, "pitch": 66, "duration": 116, "velocity": 100}, {"time": 106322, "pitch": 68, "duration": 116, "velocity": 100}, {"time": 106322, "pitch": 75, "duration": 476, "velocity": 105}, {"time": 106322, "pitch": 81, "duration": 476, "velocity": 105}, {"time": 106322, "pitch": 87, "duration": 1676, "velocity": 115}, {"time": 106562, "pitch": 35, "duration": 1436, "velocity": 90}, {"time": 106802, "pitch": 61, "duration": 116, "velocity": 100}, {"time": 106802, "pitch": 69, "duration": 476, "velocity": 110}, {"time": 106802, "pitch": 75, "duration": 1196, "velocity": 110}, {"time": 106802, "pitch": 81, "duration": 1196, "velocity": 120}, {"time": 106922, "pitch": 63, "duration": 116, "velocity": 100}, {"time": 107162, "pitch": 56, "duration": 836, "velocity": 100}, {"time": 107282, "pitch": 63, "duration": 716, "velocity": 100}, {"time": 107282, "pitch": 69, "duration": 716, "velocity": 110}, {"time": 107402, "pitch": 54, "duration": 596, "velocity": 105}, {"time": 107642, "pitch": 49, "duration": 356, "velocity": 110}, {"time": 108002, "pitch": 46, "duration": 716, "velocity": 85}, {"time": 108002, "pitch": 61, "duration": 476, "velocity": 105}, {"time": 108002, "pitch": 65, "duration": 476, "velocity": 105}, {"time": 108002, "pitch": 68, "duration": 476, "velocity": 115}, {"time": 108482, "pitch": 61, "duration": 476, "velocity": 105}, {"time": 108482, "pitch": 65, "duration": 476, "velocity": 105}, {"time": 108482, "pitch": 68, "duration": 476, "velocity": 115}, {"time": 108722, "pitch": 41, "duration": 236, "velocity": 85}, {"time": 108962, "pitch": 46, "duration": 236, "velocity": 85}, {"time": 108962, "pitch": 61, "duration": 476, "velocity": 105}, {"time": 108962, "pitch": 65, "duration": 476, "velocity": 105}, {"time": 108962, "pitch": 68, "duration": 476, "velocity": 115}, {"time": 109202, "pitch": 48, "duration": 236, "velocity": 85}, {"time": 109442, "pitch": 49, "duration": 236, "velocity": 85}, {"time": 109442, "pitch": 61, "duration": 116, "velocity": 105}, {"time": 109442, "pitch": 65, "duration": 116, "velocity": 105}, {"time": 109442, "pitch": 68, "duration": 116, "velocity": 115}, {"time": 109682, "pitch": 48, "duration": 476, "velocity": 85}, {"time": 109682, "pitch": 63, "duration": 476, "velocity": 105}, {"time": 109682, "pitch": 67, "duration": 476, "velocity": 105}, {"time": 109682, "pitch": 70, "duration": 476, "velocity": 115}, {"time": 110162, "pitch": 43, "duration": 156, "velocity": 85}, {"time": 110162, "pitch": 63, "duration": 116, "velocity": 105}, {"time": 110162, "pitch": 67, "duration": 116, "velocity": 105}, {"time": 110162, "pitch": 70, "duration": 116, "velocity": 115}, {"time": 110402, "pitch": 36, "duration": 476, "velocity": 85}, {"time": 110402, "pitch": 63, "duration": 476, "velocity": 115}, {"time": 110402, "pitch": 67, "duration": 476, "velocity": 105}, {"time": 110402, "pitch": 70, "duration": 476, "velocity": 105}, {"time": 110882, "pitch": 42, "duration": 476, "velocity": 85}, {"time": 110882, "pitch": 64, "duration": 476, "velocity": 105}, {"time": 110882, "pitch": 70, "duration": 476, "velocity": 115}, {"time": 110882, "pitch": 75, "duration": 476, "velocity": 105}, {"time": 111362, "pitch": 48, "duration": 476, "velocity": 85}, {"time": 111362, "pitch": 64, "duration": 476, "velocity": 105}, {"time": 111362, "pitch": 70, "duration": 476, "velocity": 105}, {"time": 111362, "pitch": 73, "duration": 476, "velocity": 115}, {"time": 111842, "pitch": 50, "duration": 716, "velocity": 85}, {"time": 111842, "pitch": 65, "duration": 476, "velocity": 105}, {"time": 111842, "pitch": 68, "duration": 476, "velocity": 105}, {"time": 111842, "pitch": 72, "duration": 476, "velocity": 115}, {"time": 112322, "pitch": 65, "duration": 476, "velocity": 105}, {"time": 112322, "pitch": 68, "duration": 476, "velocity": 105}, {"time": 112322, "pitch": 72, "duration": 476, "velocity": 115}, {"time": 112562, "pitch": 50, "duration": 236, "velocity": 85}, {"time": 112802, "pitch": 46, "duration": 715, "velocity": 85}, {"time": 112802, "pitch": 65, "duration": 475, "velocity": 105}, {"time": 112802, "pitch": 68, "duration": 475, "velocity": 105}, {"time": 112802, "pitch": 72, "duration": 475, "velocity": 115}, {"time": 113281, "pitch": 65, "duration": 116, "velocity": 105}, {"time": 113281, "pitch": 68, "duration": 116, "velocity": 105}, {"time": 113281, "pitch": 72, "duration": 116, "velocity": 115}, {"time": 113521, "pitch": 51, "duration": 476, "velocity": 85}, {"time": 113521, "pitch": 65, "duration": 476, "velocity": 105}, {"time": 113521, "pitch": 68, "duration": 476, "velocity": 105}, {"time": 113521, "pitch": 73, "duration": 476, "velocity": 115}, {"time": 114001, "pitch": 46, "duration": 236, "velocity": 85}, {"time": 114001, "pitch": 65, "duration": 116, "velocity": 105}, {"time": 114001, "pitch": 68, "duration": 116, "velocity": 105}, {"time": 114001, "pitch": 73, "duration": 116, "velocity": 115}, {"time": 114241, "pitch": 39, "duration": 476, "velocity": 85}, {"time": 114241, "pitch": 65, "duration": 476, "velocity": 105}, {"time": 114241, "pitch": 68, "duration": 476, "velocity": 105}, {"time": 114241, "pitch": 73, "duration": 476, "velocity": 115}, {"time": 114721, "pitch": 41, "duration": 476, "velocity": 85}, {"time": 114721, "pitch": 67, "duration": 476, "velocity": 105}, {"time": 114721, "pitch": 70, "duration": 476, "velocity": 105}, {"time": 114721, "pitch": 75, "duration": 476, "velocity": 115}, {"time": 115201, "pitch": 40, "duration": 476, "velocity": 85}, {"time": 115201, "pitch": 66, "duration": 476, "velocity": 105}, {"time": 115201, "pitch": 70, "duration": 476, "velocity": 105}, {"time": 115201, "pitch": 76, "duration": 476, "velocity": 115}, {"time": 115681, "pitch": 49, "duration": 716, "velocity": 90}, {"time": 115681, "pitch": 60, "duration": 716, "velocity": 80}, {"time": 115681, "pitch": 68, "duration": 476, "velocity": 110}, {"time": 115681, "pitch": 72, "duration": 476, "velocity": 110}, {"time": 115681, "pitch": 77, "duration": 476, "velocity": 120}, {"time": 116161, "pitch": 68, "duration": 356, "velocity": 110}, {"time": 116161, "pitch": 72, "duration": 356, "velocity": 110}, {"time": 116161, "pitch": 77, "duration": 356, "velocity": 120}, {"time": 116401, "pitch": 49, "duration": 236, "velocity": 90}, {"time": 116401, "pitch": 60, "duration": 236, "velocity": 80}, {"time": 116521, "pitch": 68, "duration": 356, "velocity": 110}, {"time": 116521, "pitch": 72, "duration": 356, "velocity": 110}, {"time": 116521, "pitch": 77, "duration": 1076, "velocity": 120}, {"time": 116641, "pitch": 49, "duration": 716, "velocity": 90}, {"time": 116641, "pitch": 60, "duration": 476, "velocity": 80}, {"time": 116881, "pitch": 65, "duration": 236, "velocity": 100}, {"time": 116881, "pitch": 68, "duration": 236, "velocity": 100}, {"time": 116881, "pitch": 72, "duration": 716, "velocity": 110}, {"time": 117121, "pitch": 60, "duration": 476, "velocity": 105}, {"time": 117121, "pitch": 65, "duration": 476, "velocity": 105}, {"time": 117121, "pitch": 68, "duration": 476, "velocity": 115}, {"time": 117361, "pitch": 51, "duration": 236, "velocity": 90}, {"time": 117601, "pitch": 49, "duration": 716, "velocity": 90}, {"time": 117601, "pitch": 60, "duration": 476, "velocity": 110}, {"time": 117601, "pitch": 65, "duration": 476, "velocity": 110}, {"time": 117601, "pitch": 68, "duration": 476, "velocity": 120}, {"time": 118081, "pitch": 60, "duration": 476, "velocity": 110}, {"time": 118081, "pitch": 65, "duration": 476, "velocity": 110}, {"time": 118081, "pitch": 68, "duration": 476, "velocity": 120}, {"time": 118321, "pitch": 44, "duration": 236, "velocity": 90}, {"time": 118561, "pitch": 49, "duration": 956, "velocity": 90}, {"time": 118561, "pitch": 60, "duration": 716, "velocity": 110}, {"time": 118561, "pitch": 65, "duration": 956, "velocity": 110}, {"time": 118561, "pitch": 68, "duration": 956, "velocity": 120}, {"time": 118801, "pitch": 72, "duration": 716, "velocity": 110}, {"time": 118921, "pitch": 77, "duration": 596, "velocity": 100}, {"time": 119041, "pitch": 56, "duration": 476, "velocity": 90}, {"time": 119041, "pitch": 80, "duration": 476, "velocity": 95}, {"time": 119161, "pitch": 84, "duration": 356, "velocity": 105}, {"time": 119281, "pitch": 60, "duration": 236, "velocity": 90}, {"time": 119281, "pitch": 89, "duration": 236, "velocity": 115}, {"time": 119521, "pitch": 48, "duration": 1196, "velocity": 90}, {"time": 119521, "pitch": 58, "duration": 476, "velocity": 110}, {"time": 119521, "pitch": 63, "duration": 476, "velocity": 110}, {"time": 119521, "pitch": 68, "duration": 476, "velocity": 120}, {"time": 120001, "pitch": 58, "duration": 356, "velocity": 110}, {"time": 120001, "pitch": 63, "duration": 476, "velocity": 110}, {"time": 120001, "pitch": 68, "duration": 556, "velocity": 120}, {"time": 120241, "pitch": 43, "duration": 476, "velocity": 90}, {"time": 120241, "pitch": 55, "duration": 956, "velocity": 110}, {"time": 120361, "pitch": 58, "duration": 596, "velocity": 110}, {"time": 120481, "pitch": 36, "duration": 716, "velocity": 90}, {"time": 120481, "pitch": 63, "duration": 476, "velocity": 110}, {"time": 120561, "pitch": 64, "duration": 636, "velocity": 90}, {"time": 120641, "pitch": 66, "duration": 556, "velocity": 95}, {"time": 120721, "pitch": 48, "duration": 476, "velocity": 90}, {"time": 120721, "pitch": 67, "duration": 476, "velocity": 100}, {"time": 120801, "pitch": 69, "duration": 396, "velocity": 105}, {"time": 120881, "pitch": 72, "duration": 316, "velocity": 110}, {"time": 120961, "pitch": 58, "duration": 236, "velocity": 110}, {"time": 120961, "pitch": 63, "duration": 236, "velocity": 110}, {"time": 120961, "pitch": 68, "duration": 236, "velocity": 120}, {"time": 120961, "pitch": 73, "duration": 236, "velocity": 115}, {"time": 121041, "pitch": 75, "duration": 156, "velocity": 125}, {"time": 121121, "pitch": 76, "duration": 556, "velocity": 120}, {"time": 121201, "pitch": 47, "duration": 1196, "velocity": 90}, {"time": 121201, "pitch": 57, "duration": 1196, "velocity": 110}, {"time": 121201, "pitch": 81, "duration": 476, "velocity": 105}, {"time": 121201, "pitch": 87, "duration": 476, "velocity": 115}, {"time": 121201, "pitch": 92, "duration": 2156, "velocity": 125}, {"time": 121681, "pitch": 75, "duration": 956, "velocity": 95}, {"time": 121681, "pitch": 81, "duration": 476, "velocity": 105}, {"time": 121681, "pitch": 87, "duration": 1676, "velocity": 115}, {"time": 121921, "pitch": 59, "duration": 1436, "velocity": 90}, {"time": 121921, "pitch": 69, "duration": 1436, "velocity": 110}, {"time": 122161, "pitch": 71, "duration": 1196, "velocity": 95}, {"time": 122161, "pitch": 81, "duration": 1196, "velocity": 115}, {"time": 122401, "pitch": 47, "duration": 476, "velocity": 90}, {"time": 122401, "pitch": 57, "duration": 476, "velocity": 110}, {"time": 122641, "pitch": 66, "duration": 716, "velocity": 85}, {"time": 122641, "pitch": 75, "duration": 716, "velocity": 105}, {"time": 122881, "pitch": 47, "duration": 476, "velocity": 90}, {"time": 122881, "pitch": 57, "duration": 476, "velocity": 110}, {"time": 123121, "pitch": 35, "duration": 236, "velocity": 80}, {"time": 123361, "pitch": 46, "duration": 716, "velocity": 90}, {"time": 123361, "pitch": 61, "duration": 476, "velocity": 110}, {"time": 123361, "pitch": 65, "duration": 476, "velocity": 110}, {"time": 123361, "pitch": 68, "duration": 476, "velocity": 120}, {"time": 123841, "pitch": 61, "duration": 476, "velocity": 110}, {"time": 123841, "pitch": 65, "duration": 476, "velocity": 110}, {"time": 123841, "pitch": 68, "duration": 476, "velocity": 120}, {"time": 124081, "pitch": 46, "duration": 236, "velocity": 90}, {"time": 124321, "pitch": 46, "duration": 716, "velocity": 90}, {"time": 124321, "pitch": 61, "duration": 476, "velocity": 110}, {"time": 124321, "pitch": 65, "duration": 476, "velocity": 110}, {"time": 124321, "pitch": 68, "duration": 476, "velocity": 120}, {"time": 124801, "pitch": 61, "duration": 116, "velocity": 110}, {"time": 124801, "pitch": 65, "duration": 116, "velocity": 110}, {"time": 124801, "pitch": 68, "duration": 116, "velocity": 120}, {"time": 125041, "pitch": 51, "duration": 956, "velocity": 90}, {"time": 125041, "pitch": 61, "duration": 476, "velocity": 110}, {"time": 125041, "pitch": 65, "duration": 476, "velocity": 110}, {"time": 125041, "pitch": 68, "duration": 476, "velocity": 120}, {"time": 125521, "pitch": 61, "duration": 116, "velocity": 110}, {"time": 125521, "pitch": 65, "duration": 116, "velocity": 110}, {"time": 125521, "pitch": 68, "duration": 116, "velocity": 120}, {"time": 125761, "pitch": 61, "duration": 476, "velocity": 110}, {"time": 125761, "pitch": 65, "duration": 476, "velocity": 110}, {"time": 125761, "pitch": 68, "duration": 476, "velocity": 120}, {"time": 126001, "pitch": 51, "duration": 236, "velocity": 90}, {"time": 126241, "pitch": 51, "duration": 716, "velocity": 90}, {"time": 126241, "pitch": 61, "duration": 476, "velocity": 110}, {"time": 126241, "pitch": 65, "duration": 476, "velocity": 110}, {"time": 126241, "pitch": 68, "duration": 476, "velocity": 120}, {"time": 126721, "pitch": 63, "duration": 476, "velocity": 110}, {"time": 126721, "pitch": 67, "duration": 476, "velocity": 110}, {"time": 126721, "pitch": 70, "duration": 476, "velocity": 120}, {"time": 126961, "pitch": 51, "duration": 236, "velocity": 90}, {"time": 127201, "pitch": 50, "duration": 716, "velocity": 85}, {"time": 127201, "pitch": 60, "duration": 476, "velocity": 105}, {"time": 127201, "pitch": 65, "duration": 476, "velocity": 105}, {"time": 127201, "pitch": 68, "duration": 476, "velocity": 115}, {"time": 127681, "pitch": 60, "duration": 476, "velocity": 105}, {"time": 127681, "pitch": 65, "duration": 476, "velocity": 105}, {"time": 127681, "pitch": 68, "duration": 476, "velocity": 115}, {"time": 127921, "pitch": 50, "duration": 356, "velocity": 85}, {"time": 128161, "pitch": 60, "duration": 236, "velocity": 105}, {"time": 128161, "pitch": 65, "duration": 236, "velocity": 105}, {"time": 128161, "pitch": 68, "duration": 236, "velocity": 115}, {"time": 128281, "pitch": 71, "duration": 116, "velocity": 90}, {"time": 128401, "pitch": 50, "duration": 356, "velocity": 85}, {"time": 128401, "pitch": 72, "duration": 116, "velocity": 95}, {"time": 128521, "pitch": 60, "duration": 596, "velocity": 100}, {"time": 128521, "pitch": 65, "duration": 596, "velocity": 100}, {"time": 128521, "pitch": 68, "duration": 596, "velocity": 110}, {"time": 128521, "pitch": 74, "duration": 116, "velocity": 100}, {"time": 128641, "pitch": 75, "duration": 116, "velocity": 105}, {"time": 128761, "pitch": 77, "duration": 116, "velocity": 110}, {"time": 128881, "pitch": 50, "duration": 236, "velocity": 85}, {"time": 128881, "pitch": 78, "duration": 76, "velocity": 115}, {"time": 128961, "pitch": 80, "duration": 76, "velocity": 110}, {"time": 129041, "pitch": 81, "duration": 76, "velocity": 105}, {"time": 129121, "pitch": 49, "duration": 556, "velocity": 85}, {"time": 129121, "pitch": 59, "duration": 556, "velocity": 85}, {"time": 129121, "pitch": 73, "duration": 476, "velocity": 105}, {"time": 129121, "pitch": 76, "duration": 476, "velocity": 105}, {"time": 129121, "pitch": 82, "duration": 476, "velocity": 115}, {"time": 129601, "pitch": 73, "duration": 96, "velocity": 105}, {"time": 129601, "pitch": 76, "duration": 96, "velocity": 105}, {"time": 129601, "pitch": 80, "duration": 96, "velocity": 115}, {"time": 129841, "pitch": 48, "duration": 566, "velocity": 85}, {"time": 129841, "pitch": 58, "duration": 566, "velocity": 85}, {"time": 129841, "pitch": 70, "duration": 476, "velocity": 105}, {"time": 129841, "pitch": 75, "duration": 476, "velocity": 105}, {"time": 129841, "pitch": 79, "duration": 476, "velocity": 115}, {"time": 130321, "pitch": 70, "duration": 96, "velocity": 105}, {"time": 130321, "pitch": 75, "duration": 96, "velocity": 105}, {"time": 130321, "pitch": 79, "duration": 96, "velocity": 115}, {"time": 130561, "pitch": 47, "duration": 476, "velocity": 85}, {"time": 130561, "pitch": 57, "duration": 476, "velocity": 85}, {"time": 130561, "pitch": 69, "duration": 476, "velocity": 105}, {"time": 130561, "pitch": 74, "duration": 476, "velocity": 105}, {"time": 130561, "pitch": 78, "duration": 476, "velocity": 115}, {"time": 131041, "pitch": 46, "duration": 955, "velocity": 85}, {"time": 131041, "pitch": 56, "duration": 475, "velocity": 85}, {"time": 131041, "pitch": 68, "duration": 1316, "velocity": 105}, {"time": 131041, "pitch": 73, "duration": 1916, "velocity": 105}, {"time": 131041, "pitch": 77, "duration": 1756, "velocity": 115}, {"time": 131521, "pitch": 56, "duration": 476, "velocity": 105}, {"time": 131521, "pitch": 61, "duration": 476, "velocity": 105}, {"time": 131521, "pitch": 65, "duration": 476, "velocity": 115}, {"time": 131761, "pitch": 41, "duration": 236, "velocity": 85}, {"time": 132001, "pitch": 46, "duration": 956, "velocity": 85}, {"time": 132001, "pitch": 56, "duration": 956, "velocity": 105}, {"time": 132001, "pitch": 61, "duration": 116, "velocity": 105}, {"time": 132001, "pitch": 65, "duration": 236, "velocity": 115}, {"time": 132121, "pitch": 61, "duration": 836, "velocity": 105}, {"time": 132241, "pitch": 65, "duration": 716, "velocity": 115}, {"time": 132361, "pitch": 68, "duration": 596, "velocity": 115}, {"time": 132481, "pitch": 70, "duration": 476, "velocity": 110}, {"time": 132601, "pitch": 72, "duration": 356, "velocity": 100}, {"time": 132721, "pitch": 37, "duration": 236, "velocity": 85}, {"time": 132721, "pitch": 76, "duration": 236, "velocity": 115}, {"time": 132801, "pitch": 77, "duration": 156, "velocity": 105}, {"time": 132881, "pitch": 79, "duration": 76, "velocity": 95}, {"time": 132961, "pitch": 36, "duration": 956, "velocity": 85}, {"time": 132961, "pitch": 70, "duration": 956, "velocity": 105}, {"time": 132961, "pitch": 76, "duration": 956, "velocity": 105}, {"time": 132961, "pitch": 80, "duration": 956, "velocity": 115}, {"time": 133201, "pitch": 46, "duration": 716, "velocity": 75}, {"time": 133441, "pitch": 52, "duration": 476, "velocity": 90}, {"time": 133681, "pitch": 56, "duration": 236, "velocity": 80}, {"time": 133921, "pitch": 48, "duration": 956, "velocity": 85}, {"time": 133921, "pitch": 58, "duration": 240, "velocity": 105}, {"time": 133921, "pitch": 64, "duration": 480, "velocity": 105}, {"time": 133921, "pitch": 67, "duration": 960, "velocity": 115}, {"time": 133921, "pitch": 70, "duration": 720, "velocity": 105}, {"time": 133921, "pitch": 76, "duration": 960, "velocity": 105}, {"time": 133921, "pitch": 79, "duration": 960, "velocity": 115}, {"time": 134161, "pitch": 58, "duration": 716, "velocity": 95}, {"time": 134401, "pitch": 64, "duration": 476, "velocity": 105}, {"time": 134641, "pitch": 70, "duration": 236, "velocity": 115}, {"time": 134881, "pitch": 37, "duration": 5755, "velocity": 100}, {"time": 134881, "pitch": 56, "duration": 5755, "velocity": 95}, {"time": 134881, "pitch": 60, "duration": 5755, "velocity": 105}, {"time": 134881, "pitch": 63, "duration": 5755, "velocity": 115}, {"time": 134881, "pitch": 65, "duration": 5755, "velocity": 115}, {"time": 136828, "pitch": 80, "duration": 3805, "velocity": 58}, {"time": 136892, "pitch": 84, "duration": 3741, "velocity": 75}, {"time": 136953, "pitch": 89, "duration": 3680, "velocity": 81}], "annotations": [{"time": 288, "annotation": {"number": 0, "value": 0}, "group": "control_change"}, {"time": 304, "annotation": {"number": 32, "value": 2}, "group": "control_change"}, {"time": 336, "annotation": {"number": 7, "value": 120}, "group": "control_change"}, {"time": 352, "annotation": {"number": 11, "value": 120}, "group": "control_change"}, {"time": 368, "annotation": {"number": 10, "value": 64}, "group": "control_change"}, {"time": 384, "annotation": {"number": 91, "value": 50}, "group": "control_change"}, {"time": 400, "annotation": {"number": 93, "value": 0}, "group": "control_change"}, {"time": 416, "annotation": {"number": 101, "value": 0}, "group": "control_change"}, {"time": 432, "annotation": {"number": 100, "value": 0}, "group": "control_change"}, {"time": 448, "annotation": {"number": 6, "value": 12}, "group": "control_change"}, {"time": 464, "annotation": {"number": 101, "value": 127}, "group": "control_change"}, {"time": 480, "annotation": {"number": 100, "value": 127}, "group": "control_change"}]}, {"program": 0, "is_drum": false, "name": "MELODY", "annotations": [{"time": 288, "annotation": {"number": 0, "value": 0}, "group": "control_change"}, {"time": 304, "annotation": {"number": 32, "value": 2}, "group": "control_change"}]}, {"program": 73, "is_drum": false, "name": "MELODY", "notes": [{"time": 7439, "pitch": 72, "duration": 230, "velocity": 100}, {"time": 7679, "pitch": 70, "duration": 230, "velocity": 95}, {"time": 7919, "pitch": 72, "duration": 110, "velocity": 100}, {"time": 8039, "pitch": 70, "duration": 350, "velocity": 100}, {"time": 8399, "pitch": 68, "duration": 110, "velocity": 95}, {"time": 8519, "pitch": 68, "duration": 590, "velocity": 95}, {"time": 9359, "pitch": 68, "duration": 230, "velocity": 95}, {"time": 9599, "pitch": 70, "duration": 230, "velocity": 100}, {"time": 9839, "pitch": 72, "duration": 110, "velocity": 100}, {"time": 9959, "pitch": 73, "duration": 350, "velocity": 100}, {"time": 10319, "pitch": 72, "duration": 110, "velocity": 95}, {"time": 10439, "pitch": 73, "duration": 350, "velocity": 100}, {"time": 11039, "pitch": 73, "duration": 230, "velocity": 95}, {"time": 11279, "pitch": 75, "duration": 230, "velocity": 100}, {"time": 11519, "pitch": 77, "duration": 230, "velocity": 100}, {"time": 11759, "pitch": 79, "duration": 590, "velocity": 100}, {"time": 12479, "pitch": 79, "duration": 230, "velocity": 100}, {"time": 12719, "pitch": 80, "duration": 110, "velocity": 100}, {"time": 12839, "pitch": 79, "duration": 350, "velocity": 100}, {"time": 13199, "pitch": 72, "duration": 470, "velocity": 95}, {"time": 13679, "pitch": 77, "duration": 1190, "velocity": 100}, {"time": 15119, "pitch": 72, "duration": 230, "velocity": 100}, {"time": 15359, "pitch": 70, "duration": 230, "velocity": 95}, {"time": 15599, "pitch": 72, "duration": 110, "velocity": 100}, {"time": 15719, "pitch": 70, "duration": 350, "velocity": 100}, {"time": 16079, "pitch": 68, "duration": 110, "velocity": 95}, {"time": 16199, "pitch": 68, "duration": 590, "velocity": 95}, {"time": 17039, "pitch": 68, "duration": 230, "velocity": 95}, {"time": 17279, "pitch": 70, "duration": 230, "velocity": 100}, {"time": 17519, "pitch": 72, "duration": 110, "velocity": 100}, {"time": 17639, "pitch": 73, "duration": 230, "velocity": 100}, {"time": 17879, "pitch": 72, "duration": 110, "velocity": 95}, {"time": 17999, "pitch": 73, "duration": 710, "velocity": 100}, {"time": 18959, "pitch": 73, "duration": 230, "velocity": 95}, {"time": 19199, "pitch": 75, "duration": 230, "velocity": 100}, {"time": 19439, "pitch": 77, "duration": 230, "velocity": 100}, {"time": 19679, "pitch": 78, "duration": 470, "velocity": 100}, {"time": 20159, "pitch": 77, "duration": 350, "velocity": 100}, {"time": 20519, "pitch": 75, "duration": 350, "velocity": 95}, {"time": 20879, "pitch": 77, "duration": 230, "velocity": 100}, {"time": 21119, "pitch": 78, "duration": 230, "velocity": 100}, {"time": 21359, "pitch": 78, "duration": 230, "velocity": 100}, {"time": 21599, "pitch": 77, "duration": 710, "velocity": 95}, {"time": 22319, "pitch": 75, "duration": 110, "velocity": 90}, {"time": 22439, "pitch": 75, "duration": 710, "velocity": 90}, {"time": 23519, "pitch": 77, "duration": 950, "velocity": 95}, {"time": 24479, "pitch": 82, "duration": 710, "velocity": 95}, {"time": 25199, "pitch": 77, "duration": 230, "velocity": 90}, {"time": 25439, "pitch": 77, "duration": 470, "velocity": 95}, {"time": 26159, "pitch": 77, "duration": 230, "velocity": 95}, {"time": 26399, "pitch": 77, "duration": 230, "velocity": 95}, {"time": 26639, "pitch": 75, "duration": 230, "velocity": 95}, {"time": 26879, "pitch": 73, "duration": 470, "velocity": 95}, {"time": 27359, "pitch": 75, "duration": 950, "velocity": 95}, {"time": 28319, "pitch": 80, "duration": 710, "velocity": 95}, {"time": 29039, "pitch": 75, "duration": 230, "velocity": 90}, {"time": 29279, "pitch": 75, "duration": 950, "velocity": 95}, {"time": 30719, "pitch": 73, "duration": 230, "velocity": 90}, {"time": 30959, "pitch": 75, "duration": 229, "velocity": 95}, {"time": 31198, "pitch": 77, "duration": 950, "velocity": 95}, {"time": 32158, "pitch": 82, "duration": 710, "velocity": 95}, {"time": 32878, "pitch": 77, "duration": 230, "velocity": 90}, {"time": 33118, "pitch": 77, "duration": 950, "velocity": 95}, {"time": 34558, "pitch": 75, "duration": 230, "velocity": 95}, {"time": 34798, "pitch": 77, "duration": 230, "velocity": 100}, {"time": 35038, "pitch": 79, "duration": 470, "velocity": 100}, {"time": 35518, "pitch": 79, "duration": 230, "velocity": 100}, {"time": 35758, "pitch": 80, "duration": 110, "velocity": 100}, {"time": 35878, "pitch": 79, "duration": 350, "velocity": 95}, {"time": 36238, "pitch": 79, "duration": 230, "velocity": 100}, {"time": 36478, "pitch": 80, "duration": 230, "velocity": 100}, {"time": 36718, "pitch": 82, "duration": 1190, "velocity": 105}, {"time": 38158, "pitch": 79, "duration": 230, "velocity": 100}, {"time": 38398, "pitch": 80, "duration": 230, "velocity": 105}, {"time": 38638, "pitch": 82, "duration": 230, "velocity": 105}, {"time": 38878, "pitch": 84, "duration": 470, "velocity": 110}, {"time": 39358, "pitch": 84, "duration": 350, "velocity": 105}, {"time": 39718, "pitch": 84, "duration": 350, "velocity": 105}, {"time": 40078, "pitch": 82, "duration": 230, "velocity": 105}, {"time": 40318, "pitch": 80, "duration": 230, "velocity": 100}, {"time": 40558, "pitch": 84, "duration": 710, "velocity": 105}, {"time": 41518, "pitch": 77, "duration": 470, "velocity": 100}, {"time": 41998, "pitch": 79, "duration": 230, "velocity": 105}, {"time": 42238, "pitch": 80, "duration": 230, "velocity": 105}, {"time": 42478, "pitch": 82, "duration": 230, "velocity": 105}, {"time": 42718, "pitch": 84, "duration": 470, "velocity": 110}, {"time": 43198, "pitch": 84, "duration": 350, "velocity": 105}, {"time": 43558, "pitch": 84, "duration": 350, "velocity": 105}, {"time": 43918, "pitch": 82, "duration": 230, "velocity": 105}, {"time": 44158, "pitch": 80, "duration": 230, "velocity": 105}, {"time": 44398, "pitch": 75, "duration": 710, "velocity": 100}, {"time": 45358, "pitch": 75, "duration": 470, "velocity": 100}, {"time": 45838, "pitch": 77, "duration": 230, "velocity": 105}, {"time": 46078, "pitch": 75, "duration": 230, "velocity": 105}, {"time": 46318, "pitch": 73, "duration": 710, "velocity": 100}, {"time": 47278, "pitch": 72, "duration": 230, "velocity": 100}, {"time": 47518, "pitch": 73, "duration": 230, "velocity": 105}, {"time": 47758, "pitch": 75, "duration": 230, "velocity": 105}, {"time": 47998, "pitch": 77, "duration": 230, "velocity": 105}, {"time": 48238, "pitch": 79, "duration": 710, "velocity": 110}, {"time": 49198, "pitch": 77, "duration": 230, "velocity": 100}, {"time": 49438, "pitch": 79, "duration": 230, "velocity": 105}, {"time": 49678, "pitch": 80, "duration": 230, "velocity": 105}, {"time": 49918, "pitch": 82, "duration": 350, "velocity": 105}, {"time": 50278, "pitch": 80, "duration": 590, "velocity": 105}, {"time": 50878, "pitch": 77, "duration": 230, "velocity": 105}, {"time": 51118, "pitch": 80, "duration": 110, "velocity": 105}, {"time": 51238, "pitch": 84, "duration": 350, "velocity": 110}, {"time": 51598, "pitch": 82, "duration": 230, "velocity": 105}, {"time": 51838, "pitch": 80, "duration": 230, "velocity": 100}, {"time": 52078, "pitch": 82, "duration": 710, "velocity": 105}, {"time": 53038, "pitch": 77, "duration": 230, "velocity": 100}, {"time": 53278, "pitch": 79, "duration": 230, "velocity": 105}, {"time": 53518, "pitch": 80, "duration": 230, "velocity": 105}, {"time": 53758, "pitch": 82, "duration": 230, "velocity": 105}, {"time": 53998, "pitch": 80, "duration": 230, "velocity": 105}, {"time": 54238, "pitch": 84, "duration": 470, "velocity": 110}, {"time": 54718, "pitch": 84, "duration": 230, "velocity": 100}, {"time": 54958, "pitch": 84, "duration": 110, "velocity": 105}, {"time": 55078, "pitch": 84, "duration": 349, "velocity": 105}, {"time": 55437, "pitch": 82, "duration": 230, "velocity": 105}, {"time": 55677, "pitch": 80, "duration": 230, "velocity": 100}, {"time": 55917, "pitch": 84, "duration": 710, "velocity": 105}, {"time": 56877, "pitch": 77, "duration": 470, "velocity": 100}, {"time": 57357, "pitch": 79, "duration": 230, "velocity": 105}, {"time": 57597, "pitch": 80, "duration": 230, "velocity": 105}, {"time": 57837, "pitch": 82, "duration": 230, "velocity": 105}, {"time": 58077, "pitch": 84, "duration": 470, "velocity": 110}, {"time": 58557, "pitch": 84, "duration": 350, "velocity": 100}, {"time": 58917, "pitch": 84, "duration": 350, "velocity": 105}, {"time": 59277, "pitch": 82, "duration": 230, "velocity": 105}, {"time": 59517, "pitch": 80, "duration": 230, "velocity": 105}, {"time": 59757, "pitch": 75, "duration": 710, "velocity": 100}, {"time": 60717, "pitch": 75, "duration": 470, "velocity": 100}, {"time": 61197, "pitch": 77, "duration": 230, "velocity": 105}, {"time": 61437, "pitch": 75, "duration": 230, "velocity": 105}, {"time": 61677, "pitch": 73, "duration": 710, "velocity": 100}, {"time": 62637, "pitch": 73, "duration": 230, "velocity": 100}, {"time": 62877, "pitch": 73, "duration": 230, "velocity": 105}, {"time": 63117, "pitch": 75, "duration": 230, "velocity": 105}, {"time": 63357, "pitch": 77, "duration": 230, "velocity": 105}, {"time": 63597, "pitch": 80, "duration": 710, "velocity": 105}, {"time": 64557, "pitch": 77, "duration": 230, "velocity": 100}, {"time": 64797, "pitch": 79, "duration": 230, "velocity": 105}, {"time": 65037, "pitch": 80, "duration": 230, "velocity": 105}, {"time": 65277, "pitch": 82, "duration": 350, "velocity": 105}, {"time": 65637, "pitch": 82, "duration": 350, "velocity": 105}, {"time": 65997, "pitch": 80, "duration": 110, "velocity": 100}, {"time": 66117, "pitch": 80, "duration": 1550, "velocity": 100}, {"time": 68877, "pitch": 72, "duration": 230, "velocity": 100}, {"time": 69117, "pitch": 70, "duration": 230, "velocity": 95}, {"time": 69357, "pitch": 72, "duration": 110, "velocity": 100}, {"time": 69477, "pitch": 70, "duration": 350, "velocity": 100}, {"time": 69837, "pitch": 68, "duration": 110, "velocity": 95}, {"time": 69957, "pitch": 68, "duration": 590, "velocity": 95}, {"time": 70797, "pitch": 68, "duration": 230, "velocity": 95}, {"time": 71037, "pitch": 70, "duration": 230, "velocity": 100}, {"time": 71277, "pitch": 72, "duration": 110, "velocity": 100}, {"time": 71397, "pitch": 73, "duration": 350, "velocity": 100}, {"time": 71757, "pitch": 72, "duration": 110, "velocity": 95}, {"time": 71877, "pitch": 73, "duration": 353, "velocity": 100}, {"time": 72483, "pitch": 73, "duration": 230, "velocity": 95}, {"time": 72723, "pitch": 75, "duration": 230, "velocity": 100}, {"time": 72963, "pitch": 77, "duration": 230, "velocity": 100}, {"time": 73203, "pitch": 79, "duration": 470, "velocity": 100}, {"time": 73683, "pitch": 79, "duration": 230, "velocity": 100}, {"time": 73923, "pitch": 79, "duration": 230, "velocity": 100}, {"time": 74163, "pitch": 80, "duration": 110, "velocity": 100}, {"time": 74283, "pitch": 79, "duration": 350, "velocity": 100}, {"time": 74643, "pitch": 72, "duration": 470, "velocity": 95}, {"time": 75123, "pitch": 77, "duration": 1190, "velocity": 100}, {"time": 76563, "pitch": 72, "duration": 230, "velocity": 100}, {"time": 76803, "pitch": 70, "duration": 230, "velocity": 95}, {"time": 77043, "pitch": 72, "duration": 110, "velocity": 100}, {"time": 77163, "pitch": 70, "duration": 350, "velocity": 100}, {"time": 77523, "pitch": 68, "duration": 110, "velocity": 95}, {"time": 77643, "pitch": 68, "duration": 590, "velocity": 95}, {"time": 78483, "pitch": 68, "duration": 230, "velocity": 95}, {"time": 78723, "pitch": 70, "duration": 230, "velocity": 100}, {"time": 78963, "pitch": 72, "duration": 110, "velocity": 100}, {"time": 79083, "pitch": 73, "duration": 230, "velocity": 100}, {"time": 79323, "pitch": 72, "duration": 110, "velocity": 95}, {"time": 79443, "pitch": 73, "duration": 710, "velocity": 100}, {"time": 80643, "pitch": 75, "duration": 230, "velocity": 100}, {"time": 80883, "pitch": 77, "duration": 230, "velocity": 100}, {"time": 81123, "pitch": 78, "duration": 470, "velocity": 100}, {"time": 81603, "pitch": 77, "duration": 350, "velocity": 100}, {"time": 81963, "pitch": 75, "duration": 350, "velocity": 95}, {"time": 82323, "pitch": 77, "duration": 230, "velocity": 100}, {"time": 82563, "pitch": 78, "duration": 230, "velocity": 100}, {"time": 82803, "pitch": 78, "duration": 230, "velocity": 100}, {"time": 83043, "pitch": 77, "duration": 710, "velocity": 95}, {"time": 83763, "pitch": 75, "duration": 110, "velocity": 90}, {"time": 83883, "pitch": 75, "duration": 710, "velocity": 90}, {"time": 84963, "pitch": 77, "duration": 950, "velocity": 95}, {"time": 85923, "pitch": 82, "duration": 710, "velocity": 95}, {"time": 86643, "pitch": 77, "duration": 230, "velocity": 90}, {"time": 86883, "pitch": 77, "duration": 470, "velocity": 95}, {"time": 87603, "pitch": 77, "duration": 230, "velocity": 95}, {"time": 87843, "pitch": 77, "duration": 230, "velocity": 95}, {"time": 88083, "pitch": 75, "duration": 230, "velocity": 95}, {"time": 88323, "pitch": 73, "duration": 470, "velocity": 95}, {"time": 88803, "pitch": 75, "duration": 949, "velocity": 95}, {"time": 89762, "pitch": 80, "duration": 710, "velocity": 95}, {"time": 90482, "pitch": 75, "duration": 230, "velocity": 90}, {"time": 90722, "pitch": 75, "duration": 950, "velocity": 95}, {"time": 92162, "pitch": 73, "duration": 230, "velocity": 90}, {"time": 92402, "pitch": 75, "duration": 230, "velocity": 95}, {"time": 92642, "pitch": 77, "duration": 950, "velocity": 95}, {"time": 93602, "pitch": 82, "duration": 710, "velocity": 95}, {"time": 94322, "pitch": 77, "duration": 230, "velocity": 90}, {"time": 94562, "pitch": 77, "duration": 950, "velocity": 95}, {"time": 96002, "pitch": 75, "duration": 230, "velocity": 95}, {"time": 96242, "pitch": 77, "duration": 230, "velocity": 100}, {"time": 96482, "pitch": 79, "duration": 470, "velocity": 100}, {"time": 96962, "pitch": 79, "duration": 230, "velocity": 100}, {"time": 97202, "pitch": 80, "duration": 110, "velocity": 100}, {"time": 97322, "pitch": 79, "duration": 350, "velocity": 95}, {"time": 97682, "pitch": 79, "duration": 230, "velocity": 100}, {"time": 97922, "pitch": 80, "duration": 230, "velocity": 100}, {"time": 98162, "pitch": 82, "duration": 1190, "velocity": 105}, {"time": 99602, "pitch": 79, "duration": 230, "velocity": 100}, {"time": 99842, "pitch": 80, "duration": 230, "velocity": 105}, {"time": 100082, "pitch": 82, "duration": 230, "velocity": 105}, {"time": 100322, "pitch": 84, "duration": 470, "velocity": 110}, {"time": 100802, "pitch": 84, "duration": 230, "velocity": 105}, {"time": 101042, "pitch": 84, "duration": 110, "velocity": 105}, {"time": 101162, "pitch": 84, "duration": 350, "velocity": 105}, {"time": 101522, "pitch": 82, "duration": 230, "velocity": 105}, {"time": 101762, "pitch": 80, "duration": 230, "velocity": 100}, {"time": 102002, "pitch": 84, "duration": 710, "velocity": 105}, {"time": 102962, "pitch": 77, "duration": 470, "velocity": 100}, {"time": 103442, "pitch": 79, "duration": 230, "velocity": 105}, {"time": 103682, "pitch": 80, "duration": 230, "velocity": 105}, {"time": 103922, "pitch": 82, "duration": 230, "velocity": 105}, {"time": 104162, "pitch": 84, "duration": 470, "velocity": 110}, {"time": 104642, "pitch": 84, "duration": 350, "velocity": 100}, {"time": 105002, "pitch": 84, "duration": 350, "velocity": 105}, {"time": 105362, "pitch": 82, "duration": 230, "velocity": 105}, {"time": 105602, "pitch": 80, "duration": 230, "velocity": 105}, {"time": 105842, "pitch": 75, "duration": 710, "velocity": 100}, {"time": 106802, "pitch": 75, "duration": 470, "velocity": 100}, {"time": 107282, "pitch": 77, "duration": 230, "velocity": 105}, {"time": 107522, "pitch": 75, "duration": 230, "velocity": 105}, {"time": 107762, "pitch": 73, "duration": 710, "velocity": 100}, {"time": 108722, "pitch": 72, "duration": 230, "velocity": 100}, {"time": 108962, "pitch": 73, "duration": 230, "velocity": 105}, {"time": 109202, "pitch": 75, "duration": 230, "velocity": 105}, {"time": 109442, "pitch": 77, "duration": 230, "velocity": 105}, {"time": 109682, "pitch": 79, "duration": 710, "velocity": 110}, {"time": 110642, "pitch": 77, "duration": 230, "velocity": 100}, {"time": 110882, "pitch": 79, "duration": 230, "velocity": 105}, {"time": 111122, "pitch": 80, "duration": 230, "velocity": 105}, {"time": 111362, "pitch": 82, "duration": 350, "velocity": 105}, {"time": 111722, "pitch": 80, "duration": 590, "velocity": 105}, {"time": 112322, "pitch": 77, "duration": 230, "velocity": 105}, {"time": 112562, "pitch": 80, "duration": 110, "velocity": 105}, {"time": 112682, "pitch": 84, "duration": 350, "velocity": 110}, {"time": 113042, "pitch": 82, "duration": 230, "velocity": 105}, {"time": 113281, "pitch": 80, "duration": 230, "velocity": 100}, {"time": 113521, "pitch": 82, "duration": 710, "velocity": 105}, {"time": 114481, "pitch": 77, "duration": 230, "velocity": 100}, {"time": 114721, "pitch": 79, "duration": 230, "velocity": 105}, {"time": 114961, "pitch": 80, "duration": 230, "velocity": 105}, {"time": 115201, "pitch": 82, "duration": 230, "velocity": 105}, {"time": 115441, "pitch": 80, "duration": 230, "velocity": 105}, {"time": 115681, "pitch": 84, "duration": 470, "velocity": 110}, {"time": 116161, "pitch": 84, "duration": 230, "velocity": 100}, {"time": 116401, "pitch": 84, "duration": 110, "velocity": 105}, {"time": 116521, "pitch": 84, "duration": 350, "velocity": 105}, {"time": 116881, "pitch": 82, "duration": 230, "velocity": 105}, {"time": 117121, "pitch": 80, "duration": 230, "velocity": 100}, {"time": 117361, "pitch": 84, "duration": 710, "velocity": 105}, {"time": 118321, "pitch": 77, "duration": 470, "velocity": 100}, {"time": 118801, "pitch": 79, "duration": 230, "velocity": 105}, {"time": 119041, "pitch": 80, "duration": 230, "velocity": 105}, {"time": 119281, "pitch": 82, "duration": 230, "velocity": 105}, {"time": 119521, "pitch": 84, "duration": 470, "velocity": 110}, {"time": 120001, "pitch": 84, "duration": 350, "velocity": 100}, {"time": 120361, "pitch": 84, "duration": 350, "velocity": 105}, {"time": 120721, "pitch": 82, "duration": 230, "velocity": 105}, {"time": 120961, "pitch": 80, "duration": 230, "velocity": 105}, {"time": 121201, "pitch": 75, "duration": 710, "velocity": 100}, {"time": 122161, "pitch": 75, "duration": 470, "velocity": 100}, {"time": 122641, "pitch": 77, "duration": 230, "velocity": 105}, {"time": 122881, "pitch": 75, "duration": 230, "velocity": 105}, {"time": 123121, "pitch": 73, "duration": 710, "velocity": 100}, {"time": 124081, "pitch": 73, "duration": 230, "velocity": 100}, {"time": 124321, "pitch": 73, "duration": 230, "velocity": 105}, {"time": 124561, "pitch": 75, "duration": 230, "velocity": 105}, {"time": 124801, "pitch": 77, "duration": 230, "velocity": 105}, {"time": 125041, "pitch": 80, "duration": 710, "velocity": 105}, {"time": 126001, "pitch": 77, "duration": 230, "velocity": 100}, {"time": 126241, "pitch": 79, "duration": 230, "velocity": 105}, {"time": 126481, "pitch": 80, "duration": 230, "velocity": 105}, {"time": 126721, "pitch": 82, "duration": 350, "velocity": 105}, {"time": 127081, "pitch": 82, "duration": 350, "velocity": 105}, {"time": 127441, "pitch": 80, "duration": 110, "velocity": 100}, {"time": 127561, "pitch": 80, "duration": 1550, "velocity": 100}, {"time": 129841, "pitch": 77, "duration": 230, "velocity": 100}, {"time": 130081, "pitch": 79, "duration": 230, "velocity": 105}, {"time": 130321, "pitch": 80, "duration": 230, "velocity": 105}, {"time": 130561, "pitch": 82, "duration": 350, "velocity": 105}, {"time": 130921, "pitch": 82, "duration": 350, "velocity": 105}, {"time": 131281, "pitch": 80, "duration": 110, "velocity": 100}, {"time": 131401, "pitch": 80, "duration": 1550, "velocity": 100}], "annotations": [{"time": 336, "annotation": {"number": 7, "value": 90}, "group": "control_change"}, {"time": 352, "annotation": {"number": 11, "value": 120}, "group": "control_change"}, {"time": 368, "annotation": {"number": 10, "value": 64}, "group": "control_change"}, {"time": 384, "annotation": {"number": 91, "value": 50}, "group": "control_change"}, {"time": 400, "annotation": {"number": 93, "value": 0}, "group": "control_change"}, {"time": 416, "annotation": {"number": 101, "value": 0}, "group": "control_change"}, {"time": 432, "annotation": {"number": 100, "value": 0}, "group": "control_change"}, {"time": 448, "annotation": {"number": 6, "value": 12}, "group": "control_change"}, {"time": 464, "annotation": {"number": 101, "value": 127}, "group": "control_change"}, {"time": 480, "annotation": {"number": 100, "value": 127}, "group": "control_change"}, {"time": 66717, "annotation": {"number": 11, "value": 120}, "group": "control_change"}, {"time": 66750, "annotation": {"number": 11, "value": 119}, "group": "control_change"}, {"time": 66847, "annotation": {"number": 11, "value": 118}, "group": "control_change"}, {"time": 66880, "annotation": {"number": 11, "value": 117}, "group": "control_change"}, {"time": 66912, "annotation": {"number": 11, "value": 116}, "group": "control_change"}, {"time": 66945, "annotation": {"number": 11, "value": 114}, "group": "control_change"}, {"time": 66977, "annotation": {"number": 11, "value": 113}, "group": "control_change"}, {"time": 67010, "annotation": {"number": 11, "value": 111}, "group": "control_change"}, {"time": 67042, "annotation": {"number": 11, "value": 109}, "group": "control_change"}, {"time": 67075, "annotation": {"number": 11, "value": 107}, "group": "control_change"}, {"time": 67107, "annotation": {"number": 11, "value": 105}, "group": "control_change"}, {"time": 67140, "annotation": {"number": 11, "value": 102}, "group": "control_change"}, {"time": 67173, "annotation": {"number": 11, "value": 99}, "group": "control_change"}, {"time": 67205, "annotation": {"number": 11, "value": 96}, "group": "control_change"}, {"time": 67238, "annotation": {"number": 11, "value": 93}, "group": "control_change"}, {"time": 67270, "annotation": {"number": 11, "value": 90}, "group": "control_change"}, {"time": 67303, "annotation": {"number": 11, "value": 86}, "group": "control_change"}, {"time": 67335, "annotation": {"number": 11, "value": 82}, "group": "control_change"}, {"time": 67368, "annotation": {"number": 11, "value": 78}, "group": "control_change"}, {"time": 67400, "annotation": {"number": 11, "value": 74}, "group": "control_change"}, {"time": 67433, "annotation": {"number": 11, "value": 69}, "group": "control_change"}, {"time": 67465, "annotation": {"number": 11, "value": 65}, "group": "control_change"}, {"time": 67498, "annotation": {"number": 11, "value": 60}, "group": "control_change"}, {"time": 67530, "annotation": {"number": 11, "value": 55}, "group": "control_change"}, {"time": 67563, "annotation": {"number": 11, "value": 50}, "group": "control_change"}, {"time": 67596, "annotation": {"number": 11, "value": 44}, "group": "control_change"}, {"time": 67628, "annotation": {"number": 11, "value": 38}, "group": "control_change"}, {"time": 67661, "annotation": {"number": 11, "value": 32}, "group": "control_change"}, {"time": 67677, "annotation": {"number": 11, "value": 30}, "group": "control_change"}, {"time": 68637, "annotation": {"number": 11, "value": 120}, "group": "control_change"}, {"time": 132001, "annotation": {"number": 11, "value": 120}, "group": "control_change"}, {"time": 132034, "annotation": {"number": 11, "value": 119}, "group": "control_change"}, {"time": 132131, "annotation": {"number": 11, "value": 118}, "group": "control_change"}, {"time": 132164, "annotation": {"number": 11, "value": 117}, "group": "control_change"}, {"time": 132196, "annotation": {"number": 11, "value": 116}, "group": "control_change"}, {"time": 132229, "annotation": {"number": 11, "value": 114}, "group": "control_change"}, {"time": 132261, "annotation": {"number": 11, "value": 113}, "group": "control_change"}, {"time": 132294, "annotation": {"number": 11, "value": 111}, "group": "control_change"}, {"time": 132326, "annotation": {"number": 11, "value": 109}, "group": "control_change"}, {"time": 132359, "annotation": {"number": 11, "value": 107}, "group": "control_change"}, {"time": 132391, "annotation": {"number": 11, "value": 105}, "group": "control_change"}, {"time": 132424, "annotation": {"number": 11, "value": 102}, "group": "control_change"}, {"time": 132457, "annotation": {"number": 11, "value": 99}, "group": "control_change"}, {"time": 132489, "annotation": {"number": 11, "value": 96}, "group": "control_change"}, {"time": 132522, "annotation": {"number": 11, "value": 93}, "group": "control_change"}, {"time": 132554, "annotation": {"number": 11, "value": 90}, "group": "control_change"}, {"time": 132587, "annotation": {"number": 11, "value": 86}, "group": "control_change"}, {"time": 132619, "annotation": {"number": 11, "value": 82}, "group": "control_change"}, {"time": 132652, "annotation": {"number": 11, "value": 78}, "group": "control_change"}, {"time": 132684, "annotation": {"number": 11, "value": 74}, "group": "control_change"}, {"time": 132717, "annotation": {"number": 11, "value": 69}, "group": "control_change"}, {"time": 132749, "annotation": {"number": 11, "value": 65}, "group": "control_change"}, {"time": 132782, "annotation": {"number": 11, "value": 60}, "group": "control_change"}, {"time": 132814, "annotation": {"number": 11, "value": 55}, "group": "control_change"}, {"time": 132847, "annotation": {"number": 11, "value": 50}, "group": "control_change"}, {"time": 132880, "annotation": {"number": 11, "value": 44}, "group": "control_change"}, {"time": 132912, "annotation": {"number": 11, "value": 38}, "group": "control_change"}, {"time": 132945, "annotation": {"number": 11, "value": 32}, "group": "control_change"}, {"time": 132961, "annotation": {"number": 11, "value": 30}, "group": "control_change"}]}]}