{"metadata": {"schema_version": "0.1", "title": "RWC-MDB-P-2001 No. 26: Aozora sanpo michi / Tomoko Nitta", "copyright": "RWC Music Database. Copyright (C) 2001 Real World Computing Partnership (contact: Masataka GOTO <m.goto@aist.go.jp>)", "source_filename": "RM-P026.SMF_SYNC.MID", "source_format": "midi"}, "resolution": 480, "tempos": [{"time": 0, "qpm": 49.586776859504134}, {"time": 480, "qpm": 157.89473684210526}, {"time": 3840, "qpm": 162.16216216216216}, {"time": 4320, "qpm": 153.84615384615384}, {"time": 4800, "qpm": 157.89473684210526}, {"time": 6240, "qpm": 162.16216216216216}, {"time": 6720, "qpm": 153.84615384615384}, {"time": 7200, "qpm": 162.16216216216216}, {"time": 7680, "qpm": 157.89473684210526}, {"time": 8160, "qpm": 153.84615384615384}, {"time": 8640, "qpm": 162.16216216216216}, {"time": 9120, "qpm": 157.89473684210526}, {"time": 16320, "qpm": 153.84615384615384}, {"time": 16800, "qpm": 162.16216216216216}, {"time": 17280, "qpm": 157.89473684210526}, {"time": 23040, "qpm": 162.16216216216216}, {"time": 23520, "qpm": 153.84615384615384}, {"time": 24000, "qpm": 162.16216216216216}, {"time": 24480, "qpm": 153.84615384615384}, {"time": 24960, "qpm": 162.16216216216216}, {"time": 25440, "qpm": 153.84615384615384}, {"time": 25920, "qpm": 162.16216216216216}, {"time": 26400, "qpm": 153.84615384615384}, {"time": 26880, "qpm": 162.16216216216216}, {"time": 27360, "qpm": 157.89473684210526}, {"time": 42240, "qpm": 162.16216216216216}, {"time": 42720, "qpm": 153.84615384615384}, {"time": 43200, "qpm": 157.89473684210526}, {"time": 43680, "qpm": 162.16216216216216}, {"time": 44160, "qpm": 157.89473684210526}, {"time": 45120, "qpm": 153.84615384615384}, {"time": 45600, "qpm": 157.89473684210526}, {"time": 46080, "qpm": 162.16216216216216}, {"time": 46560, "qpm": 157.89473684210526}, {"time": 61440, "qpm": 162.16216216216216}, {"time": 61920, "qpm": 153.84615384615384}, {"time": 62400, "qpm": 162.16216216216216}, {"time": 62880, "qpm": 153.84615384615384}, {"time": 63360, "qpm": 162.16216216216216}, {"time": 63840, "qpm": 157.89473684210526}, {"time": 66240, "qpm": 153.84615384615384}, {"time": 66720, "qpm": 162.16216216216216}, {"time": 67200, "qpm": 157.89473684210526}, {"time": 67680, "qpm": 153.84615384615384}, {"time": 68160, "qpm": 162.16216216216216}, {"time": 68640, "qpm": 157.89473684210526}, {"time": 72000, "qpm": 153.84615384615384}, {"time": 72480, "qpm": 162.16216216216216}, {"time": 72960, "qpm": 157.89473684210526}, {"time": 80640, "qpm": 162.16216216216216}, {"time": 81120, "qpm": 157.89473684210526}, {"time": 99840, "qpm": 162.16216216216216}, {"time": 100320, "qpm": 153.84615384615384}, {"time": 100800, "qpm": 162.16216216216216}, {"time": 101280, "qpm": 157.89473684210526}, {"time": 105120, "qpm": 153.84615384615384}, {"time": 105600, "qpm": 162.16216216216216}, {"time": 106080, "qpm": 157.89473684210526}, {"time": 108960, "qpm": 153.84615384615384}, {"time": 109440, "qpm": 162.16216216216216}, {"time": 109920, "qpm": 157.89473684210526}, {"time": 119040, "qpm": 162.16216216216216}, {"time": 119520, "qpm": 153.84615384615384}, {"time": 120000, "qpm": 162.16216216216216}, {"time": 120480, "qpm": 157.89473684210526}, {"time": 129120, "qpm": 153.84615384615384}, {"time": 129600, "qpm": 162.16216216216216}, {"time": 130080, "qpm": 157.89473684210526}, {"time": 136320, "qpm": 162.16216216216216}, {"time": 136800, "qpm": 153.84615384615384}, {"time": 137280, "qpm": 157.89473684210526}, {"time": 137760, "qpm": 162.16216216216216}, {"time": 138240, "qpm": 157.89473684210526}, {"time": 139680, "qpm": 153.84615384615384}, {"time": 140160, "qpm": 162.16216216216216}, {"time": 140640, "qpm": 157.89473684210526}, {"time": 149760, "qpm": 153.84615384615384}, {"time": 150240, "qpm": 162.16216216216216}, {"time": 150720, "qpm": 157.89473684210526}, {"time": 155520, "qpm": 162.16216216216216}, {"time": 156000, "qpm": 153.84615384615384}, {"time": 156480, "qpm": 157.89473684210526}, {"time": 156960, "qpm": 162.16216216216216}, {"time": 157440, "qpm": 157.89473684210526}, {"time": 172800, "qpm": 162.16216216216216}, {"time": 173280, "qpm": 153.84615384615384}, {"time": 173760, "qpm": 157.89473684210526}, {"time": 174720, "qpm": 162.16216216216216}, {"time": 175200, "qpm": 153.84615384615384}, {"time": 175680, "qpm": 157.89473684210526}, {"time": 176160, "qpm": 162.16216216216216}, {"time": 176640, "qpm": 157.89473684210526}, {"time": 177120, "qpm": 153.84615384615384}, {"time": 177600, "qpm": 162.16216216216216}, {"time": 178080, "qpm": 157.89473684210526}, {"time": 180960, "qpm": 150.0}, {"time": 181440, "qpm": 166.66666666666666}, {"time": 181920, "qpm": 157.89473684210526}, {"time": 194880, "qpm": 162.16216216216216}, {"time": 195360, "qpm": 153.84615384615384}, {"time": 195840, "qpm": 162.16216216216216}, {"time": 196320, "qpm": 157.89473684210526}, {"time": 204000, "qpm": 153.84615384615384}, {"time": 204480, "qpm": 162.16216216216216}, {"time": 204960, "qpm": 157.89473684210526}, {"time": 214560, "qpm": 162.16216216216216}, {"time": 215040, "qpm": 157.89473684210526}, {"time": 216480, "qpm": 153.84615384615384}, {"time": 216960, "qpm": 162.16216216216216}, {"time": 217440, "qpm": 157.89473684210526}, {"time": 230400, "qpm": 162.16216216216216}, {"time": 230880, "qpm": 153.84615384615384}, {"time": 231360, "qpm": 157.89473684210526}, {"time": 232320, "qpm": 162.16216216216216}, {"time": 232800, "qpm": 153.84615384615384}, {"time": 233280, "qpm": 157.89473684210526}, {"time": 233760, "qpm": 162.16216216216216}, {"time": 234240, "qpm": 157.89473684210526}, {"time": 234720, "qpm": 153.84615384615384}, {"time": 235200, "qpm": 162.16216216216216}, {"time": 235680, "qpm": 157.89473684210526}, {"time": 237120, "qpm": 153.84615384615384}, {"time": 237600, "qpm": 162.16216216216216}, {"time": 238080, "qpm": 157.89473684210526}, {"time": 249600, "qpm": 162.16216216216216}, {"time": 250080, "qpm": 153.84615384615384}, {"time": 250560, "qpm": 157.89473684210526}, {"time": 251520, "qpm": 162.16216216216216}, {"time": 252000, "qpm": 153.84615384615384}, {"time": 252480, "qpm": 157.89473684210526}, {"time": 253440, "qpm": 162.16216216216216}, {"time": 253920, "qpm": 157.89473684210526}], "time_signatures": [{"time": 0, "numerator": 1, "denominator": 4}, {"time": 480, "numerator": 4, "denominator": 4}], "tracks": [{"program": 0, "is_drum": false, "name": "BASS", "annotations": [{"time": 184, "annotation": {"number": 0, "value": 0}, "group": "control_change"}, {"time": 203, "annotation": {"number": 32, "value": 2}, "group": "control_change"}]}, {"program": 33, "is_drum": false, "name": "BASS", "notes": [{"time": 2397, "pitch": 31, "duration": 192, "velocity": 96}, {"time": 2637, "pitch": 31, "duration": 140, "velocity": 96}, {"time": 2877, "pitch": 31, "duration": 153, "velocity": 96}, {"time": 3117, "pitch": 31, "duration": 147, "velocity": 96}, {"time": 3357, "pitch": 31, "duration": 172, "velocity": 96}, {"time": 3597, "pitch": 31, "duration": 153, "velocity": 96}, {"time": 3836, "pitch": 31, "duration": 148, "velocity": 96}, {"time": 4076, "pitch": 31, "duration": 109, "velocity": 96}, {"time": 4316, "pitch": 31, "duration": 192, "velocity": 96}, {"time": 4556, "pitch": 31, "duration": 140, "velocity": 96}, {"time": 4796, "pitch": 31, "duration": 153, "velocity": 96}, {"time": 5036, "pitch": 31, "duration": 147, "velocity": 96}, {"time": 5276, "pitch": 31, "duration": 171, "velocity": 96}, {"time": 5515, "pitch": 28, "duration": 153, "velocity": 96}, {"time": 5755, "pitch": 29, "duration": 148, "velocity": 96}, {"time": 5995, "pitch": 30, "duration": 109, "velocity": 96}, {"time": 6235, "pitch": 31, "duration": 160, "velocity": 96}, {"time": 6475, "pitch": 31, "duration": 135, "velocity": 96}, {"time": 6715, "pitch": 31, "duration": 140, "velocity": 96}, {"time": 6954, "pitch": 31, "duration": 160, "velocity": 96}, {"time": 7194, "pitch": 31, "duration": 147, "velocity": 96}, {"time": 7434, "pitch": 31, "duration": 141, "velocity": 96}, {"time": 7674, "pitch": 31, "duration": 131, "velocity": 96}, {"time": 7920, "pitch": 31, "duration": 158, "velocity": 96}, {"time": 8166, "pitch": 31, "duration": 147, "velocity": 96}, {"time": 8406, "pitch": 31, "duration": 148, "velocity": 96}, {"time": 8646, "pitch": 31, "duration": 134, "velocity": 96}, {"time": 8886, "pitch": 31, "duration": 134, "velocity": 96}, {"time": 9126, "pitch": 31, "duration": 140, "velocity": 96}, {"time": 9365, "pitch": 31, "duration": 135, "velocity": 96}, {"time": 9605, "pitch": 31, "duration": 140, "velocity": 96}, {"time": 9845, "pitch": 31, "duration": 217, "velocity": 96}, {"time": 10085, "pitch": 31, "duration": 192, "velocity": 96}, {"time": 10325, "pitch": 31, "duration": 140, "velocity": 96}, {"time": 10565, "pitch": 31, "duration": 153, "velocity": 96}, {"time": 10804, "pitch": 31, "duration": 147, "velocity": 96}, {"time": 11044, "pitch": 31, "duration": 172, "velocity": 96}, {"time": 11284, "pitch": 31, "duration": 153, "velocity": 96}, {"time": 11524, "pitch": 31, "duration": 148, "velocity": 96}, {"time": 11764, "pitch": 31, "duration": 109, "velocity": 96}, {"time": 12004, "pitch": 31, "duration": 192, "velocity": 96}, {"time": 12243, "pitch": 31, "duration": 140, "velocity": 96}, {"time": 12483, "pitch": 31, "duration": 153, "velocity": 96}, {"time": 12723, "pitch": 31, "duration": 147, "velocity": 96}, {"time": 12963, "pitch": 31, "duration": 172, "velocity": 96}, {"time": 13203, "pitch": 28, "duration": 153, "velocity": 96}, {"time": 13443, "pitch": 29, "duration": 148, "velocity": 96}, {"time": 13683, "pitch": 30, "duration": 108, "velocity": 96}, {"time": 13922, "pitch": 31, "duration": 160, "velocity": 96}, {"time": 14162, "pitch": 31, "duration": 135, "velocity": 96}, {"time": 14402, "pitch": 31, "duration": 141, "velocity": 96}, {"time": 14642, "pitch": 31, "duration": 160, "velocity": 96}, {"time": 14882, "pitch": 31, "duration": 147, "velocity": 96}, {"time": 15122, "pitch": 31, "duration": 140, "velocity": 96}, {"time": 15361, "pitch": 31, "duration": 128, "velocity": 96}, {"time": 15601, "pitch": 31, "duration": 154, "velocity": 96}, {"time": 16081, "pitch": 36, "duration": 134, "velocity": 96}, {"time": 16321, "pitch": 36, "duration": 224, "velocity": 96}, {"time": 16561, "pitch": 35, "duration": 185, "velocity": 96}, {"time": 16800, "pitch": 36, "duration": 192, "velocity": 96}, {"time": 17040, "pitch": 35, "duration": 192, "velocity": 96}, {"time": 17280, "pitch": 36, "duration": 224, "velocity": 96}, {"time": 17520, "pitch": 38, "duration": 224, "velocity": 96}, {"time": 17760, "pitch": 30, "duration": 248, "velocity": 96}, {"time": 18000, "pitch": 31, "duration": 287, "velocity": 96}, {"time": 18479, "pitch": 35, "duration": 204, "velocity": 96}, {"time": 18719, "pitch": 36, "duration": 186, "velocity": 96}, {"time": 18959, "pitch": 36, "duration": 148, "velocity": 96}, {"time": 19199, "pitch": 36, "duration": 160, "velocity": 96}, {"time": 19439, "pitch": 36, "duration": 173, "velocity": 96}, {"time": 19679, "pitch": 30, "duration": 260, "velocity": 96}, {"time": 19918, "pitch": 31, "duration": 275, "velocity": 96}, {"time": 20398, "pitch": 35, "duration": 198, "velocity": 96}, {"time": 20638, "pitch": 36, "duration": 173, "velocity": 96}, {"time": 20878, "pitch": 36, "duration": 154, "velocity": 96}, {"time": 21118, "pitch": 36, "duration": 152, "velocity": 96}, {"time": 21357, "pitch": 36, "duration": 173, "velocity": 96}, {"time": 21597, "pitch": 30, "duration": 274, "velocity": 96}, {"time": 21837, "pitch": 31, "duration": 301, "velocity": 96}, {"time": 22317, "pitch": 35, "duration": 198, "velocity": 96}, {"time": 22557, "pitch": 36, "duration": 159, "velocity": 96}, {"time": 22796, "pitch": 36, "duration": 153, "velocity": 96}, {"time": 23036, "pitch": 36, "duration": 154, "velocity": 96}, {"time": 23276, "pitch": 36, "duration": 237, "velocity": 96}, {"time": 23756, "pitch": 36, "duration": 147, "velocity": 96}, {"time": 23996, "pitch": 36, "duration": 179, "velocity": 96}, {"time": 24235, "pitch": 35, "duration": 198, "velocity": 96}, {"time": 24475, "pitch": 36, "duration": 160, "velocity": 96}, {"time": 24715, "pitch": 35, "duration": 256, "velocity": 96}, {"time": 24955, "pitch": 36, "duration": 243, "velocity": 96}, {"time": 25195, "pitch": 38, "duration": 186, "velocity": 96}, {"time": 25435, "pitch": 30, "duration": 247, "velocity": 96}, {"time": 25675, "pitch": 31, "duration": 287, "velocity": 96}, {"time": 26154, "pitch": 35, "duration": 204, "velocity": 96}, {"time": 26394, "pitch": 36, "duration": 186, "velocity": 96}, {"time": 26634, "pitch": 36, "duration": 148, "velocity": 96}, {"time": 26874, "pitch": 36, "duration": 164, "velocity": 96}, {"time": 27120, "pitch": 36, "duration": 177, "velocity": 96}, {"time": 27366, "pitch": 30, "duration": 261, "velocity": 96}, {"time": 27606, "pitch": 31, "duration": 275, "velocity": 96}, {"time": 28086, "pitch": 35, "duration": 197, "velocity": 96}, {"time": 28325, "pitch": 36, "duration": 173, "velocity": 96}, {"time": 28565, "pitch": 36, "duration": 154, "velocity": 96}, {"time": 28805, "pitch": 36, "duration": 153, "velocity": 96}, {"time": 29045, "pitch": 36, "duration": 173, "velocity": 96}, {"time": 29285, "pitch": 30, "duration": 274, "velocity": 96}, {"time": 29525, "pitch": 31, "duration": 300, "velocity": 96}, {"time": 30004, "pitch": 35, "duration": 198, "velocity": 96}, {"time": 30244, "pitch": 36, "duration": 160, "velocity": 96}, {"time": 30484, "pitch": 36, "duration": 153, "velocity": 96}, {"time": 30724, "pitch": 36, "duration": 154, "velocity": 96}, {"time": 30964, "pitch": 36, "duration": 236, "velocity": 96}, {"time": 31443, "pitch": 36, "duration": 147, "velocity": 96}, {"time": 31683, "pitch": 36, "duration": 179, "velocity": 96}, {"time": 31923, "pitch": 35, "duration": 198, "velocity": 96}, {"time": 32163, "pitch": 36, "duration": 160, "velocity": 96}, {"time": 32403, "pitch": 35, "duration": 255, "velocity": 96}, {"time": 32642, "pitch": 36, "duration": 243, "velocity": 96}, {"time": 32882, "pitch": 38, "duration": 186, "velocity": 96}, {"time": 33122, "pitch": 30, "duration": 248, "velocity": 96}, {"time": 33362, "pitch": 31, "duration": 288, "velocity": 96}, {"time": 33842, "pitch": 35, "duration": 204, "velocity": 96}, {"time": 34082, "pitch": 36, "duration": 185, "velocity": 96}, {"time": 34321, "pitch": 36, "duration": 148, "velocity": 96}, {"time": 34561, "pitch": 36, "duration": 160, "velocity": 96}, {"time": 34801, "pitch": 36, "duration": 173, "velocity": 96}, {"time": 35041, "pitch": 30, "duration": 261, "velocity": 96}, {"time": 35281, "pitch": 31, "duration": 275, "velocity": 96}, {"time": 35760, "pitch": 35, "duration": 198, "velocity": 96}, {"time": 36000, "pitch": 36, "duration": 173, "velocity": 96}, {"time": 36240, "pitch": 36, "duration": 154, "velocity": 96}, {"time": 36480, "pitch": 36, "duration": 153, "velocity": 96}, {"time": 36720, "pitch": 36, "duration": 173, "velocity": 96}, {"time": 36960, "pitch": 30, "duration": 273, "velocity": 96}, {"time": 37199, "pitch": 31, "duration": 301, "velocity": 96}, {"time": 37679, "pitch": 35, "duration": 198, "velocity": 96}, {"time": 37919, "pitch": 36, "duration": 160, "velocity": 96}, {"time": 38159, "pitch": 36, "duration": 153, "velocity": 96}, {"time": 38399, "pitch": 36, "duration": 154, "velocity": 96}, {"time": 38638, "pitch": 36, "duration": 237, "velocity": 96}, {"time": 39118, "pitch": 36, "duration": 147, "velocity": 96}, {"time": 39358, "pitch": 36, "duration": 179, "velocity": 96}, {"time": 39598, "pitch": 35, "duration": 198, "velocity": 96}, {"time": 39838, "pitch": 36, "duration": 160, "velocity": 96}, {"time": 40078, "pitch": 35, "duration": 255, "velocity": 96}, {"time": 40317, "pitch": 36, "duration": 243, "velocity": 96}, {"time": 40557, "pitch": 38, "duration": 186, "velocity": 96}, {"time": 40797, "pitch": 30, "duration": 248, "velocity": 96}, {"time": 41037, "pitch": 31, "duration": 288, "velocity": 96}, {"time": 41517, "pitch": 35, "duration": 203, "velocity": 96}, {"time": 41756, "pitch": 36, "duration": 186, "velocity": 96}, {"time": 41996, "pitch": 36, "duration": 148, "velocity": 96}, {"time": 42236, "pitch": 36, "duration": 160, "velocity": 96}, {"time": 42476, "pitch": 36, "duration": 173, "velocity": 96}, {"time": 42716, "pitch": 30, "duration": 261, "velocity": 96}, {"time": 42956, "pitch": 31, "duration": 274, "velocity": 96}, {"time": 43435, "pitch": 35, "duration": 198, "velocity": 96}, {"time": 43675, "pitch": 36, "duration": 173, "velocity": 96}, {"time": 43915, "pitch": 36, "duration": 154, "velocity": 96}, {"time": 44155, "pitch": 36, "duration": 153, "velocity": 96}, {"time": 44395, "pitch": 36, "duration": 173, "velocity": 96}, {"time": 44634, "pitch": 30, "duration": 274, "velocity": 96}, {"time": 44874, "pitch": 31, "duration": 301, "velocity": 96}, {"time": 45354, "pitch": 35, "duration": 198, "velocity": 96}, {"time": 45594, "pitch": 36, "duration": 164, "velocity": 96}, {"time": 45840, "pitch": 36, "duration": 157, "velocity": 96}, {"time": 46086, "pitch": 36, "duration": 154, "velocity": 96}, {"time": 46326, "pitch": 36, "duration": 237, "velocity": 96}, {"time": 46806, "pitch": 36, "duration": 147, "velocity": 96}, {"time": 47045, "pitch": 36, "duration": 179, "velocity": 96}, {"time": 47285, "pitch": 35, "duration": 198, "velocity": 96}, {"time": 47525, "pitch": 36, "duration": 160, "velocity": 96}, {"time": 47765, "pitch": 35, "duration": 256, "velocity": 96}, {"time": 48005, "pitch": 36, "duration": 243, "velocity": 96}, {"time": 48245, "pitch": 38, "duration": 186, "velocity": 96}, {"time": 48485, "pitch": 30, "duration": 247, "velocity": 96}, {"time": 48724, "pitch": 31, "duration": 288, "velocity": 96}, {"time": 49204, "pitch": 35, "duration": 204, "velocity": 96}, {"time": 49444, "pitch": 36, "duration": 186, "velocity": 96}, {"time": 49684, "pitch": 36, "duration": 148, "velocity": 96}, {"time": 49924, "pitch": 36, "duration": 159, "velocity": 96}, {"time": 50163, "pitch": 36, "duration": 173, "velocity": 96}, {"time": 50403, "pitch": 30, "duration": 261, "velocity": 96}, {"time": 50643, "pitch": 31, "duration": 275, "velocity": 96}, {"time": 51123, "pitch": 35, "duration": 198, "velocity": 96}, {"time": 51363, "pitch": 36, "duration": 172, "velocity": 96}, {"time": 51602, "pitch": 36, "duration": 154, "velocity": 96}, {"time": 51842, "pitch": 36, "duration": 153, "velocity": 96}, {"time": 52082, "pitch": 36, "duration": 173, "velocity": 96}, {"time": 52322, "pitch": 30, "duration": 274, "velocity": 96}, {"time": 52562, "pitch": 31, "duration": 301, "velocity": 96}, {"time": 53041, "pitch": 35, "duration": 198, "velocity": 96}, {"time": 53281, "pitch": 36, "duration": 160, "velocity": 96}, {"time": 53521, "pitch": 36, "duration": 153, "velocity": 96}, {"time": 53761, "pitch": 36, "duration": 154, "velocity": 96}, {"time": 54001, "pitch": 36, "duration": 237, "velocity": 96}, {"time": 54481, "pitch": 36, "duration": 146, "velocity": 96}, {"time": 54720, "pitch": 36, "duration": 179, "velocity": 96}, {"time": 54960, "pitch": 35, "duration": 198, "velocity": 96}, {"time": 55200, "pitch": 36, "duration": 160, "velocity": 96}, {"time": 55440, "pitch": 35, "duration": 256, "velocity": 96}, {"time": 55680, "pitch": 36, "duration": 243, "velocity": 96}, {"time": 55920, "pitch": 38, "duration": 185, "velocity": 96}, {"time": 56159, "pitch": 30, "duration": 248, "velocity": 96}, {"time": 56399, "pitch": 31, "duration": 288, "velocity": 96}, {"time": 56879, "pitch": 35, "duration": 204, "velocity": 96}, {"time": 57119, "pitch": 36, "duration": 186, "velocity": 96}, {"time": 57359, "pitch": 36, "duration": 147, "velocity": 96}, {"time": 57598, "pitch": 36, "duration": 160, "velocity": 96}, {"time": 57838, "pitch": 36, "duration": 173, "velocity": 96}, {"time": 58078, "pitch": 30, "duration": 261, "velocity": 96}, {"time": 58318, "pitch": 31, "duration": 275, "velocity": 96}, {"time": 58798, "pitch": 35, "duration": 197, "velocity": 96}, {"time": 59037, "pitch": 36, "duration": 173, "velocity": 96}, {"time": 59277, "pitch": 36, "duration": 154, "velocity": 96}, {"time": 59517, "pitch": 36, "duration": 153, "velocity": 96}, {"time": 59757, "pitch": 36, "duration": 173, "velocity": 96}, {"time": 59997, "pitch": 30, "duration": 274, "velocity": 96}, {"time": 60237, "pitch": 31, "duration": 300, "velocity": 96}, {"time": 60716, "pitch": 35, "duration": 198, "velocity": 96}, {"time": 60956, "pitch": 36, "duration": 160, "velocity": 96}, {"time": 61196, "pitch": 36, "duration": 153, "velocity": 96}, {"time": 61436, "pitch": 36, "duration": 154, "velocity": 96}, {"time": 61676, "pitch": 36, "duration": 237, "velocity": 96}, {"time": 62155, "pitch": 36, "duration": 147, "velocity": 96}, {"time": 62395, "pitch": 36, "duration": 179, "velocity": 96}, {"time": 62635, "pitch": 35, "duration": 198, "velocity": 96}, {"time": 62875, "pitch": 36, "duration": 160, "velocity": 96}, {"time": 63115, "pitch": 35, "duration": 256, "velocity": 96}, {"time": 63355, "pitch": 36, "duration": 242, "velocity": 96}, {"time": 63594, "pitch": 38, "duration": 186, "velocity": 96}, {"time": 63834, "pitch": 36, "duration": 341, "velocity": 96}, {"time": 64314, "pitch": 36, "duration": 162, "velocity": 96}, {"time": 64560, "pitch": 36, "duration": 162, "velocity": 96}, {"time": 64806, "pitch": 36, "duration": 177, "velocity": 96}, {"time": 65046, "pitch": 36, "duration": 145, "velocity": 96}, {"time": 65286, "pitch": 36, "duration": 152, "velocity": 96}, {"time": 65526, "pitch": 36, "duration": 158, "velocity": 96}, {"time": 65766, "pitch": 39, "duration": 378, "velocity": 96}, {"time": 66245, "pitch": 39, "duration": 139, "velocity": 96}, {"time": 66485, "pitch": 39, "duration": 158, "velocity": 96}, {"time": 66725, "pitch": 39, "duration": 151, "velocity": 96}, {"time": 66965, "pitch": 39, "duration": 158, "velocity": 96}, {"time": 67205, "pitch": 39, "duration": 158, "velocity": 96}, {"time": 67444, "pitch": 39, "duration": 215, "velocity": 96}, {"time": 67684, "pitch": 31, "duration": 341, "velocity": 96}, {"time": 68164, "pitch": 31, "duration": 158, "velocity": 96}, {"time": 68404, "pitch": 31, "duration": 158, "velocity": 96}, {"time": 68644, "pitch": 31, "duration": 177, "velocity": 96}, {"time": 68884, "pitch": 31, "duration": 144, "velocity": 96}, {"time": 69123, "pitch": 31, "duration": 152, "velocity": 96}, {"time": 69363, "pitch": 31, "duration": 158, "velocity": 96}, {"time": 69603, "pitch": 31, "duration": 341, "velocity": 96}, {"time": 70083, "pitch": 31, "duration": 158, "velocity": 96}, {"time": 70323, "pitch": 31, "duration": 157, "velocity": 96}, {"time": 70562, "pitch": 31, "duration": 177, "velocity": 96}, {"time": 70802, "pitch": 31, "duration": 145, "velocity": 96}, {"time": 71042, "pitch": 31, "duration": 152, "velocity": 96}, {"time": 71282, "pitch": 31, "duration": 158, "velocity": 96}, {"time": 71522, "pitch": 36, "duration": 341, "velocity": 96}, {"time": 72001, "pitch": 36, "duration": 158, "velocity": 96}, {"time": 72241, "pitch": 36, "duration": 158, "velocity": 96}, {"time": 72481, "pitch": 36, "duration": 177, "velocity": 96}, {"time": 72721, "pitch": 36, "duration": 145, "velocity": 96}, {"time": 72961, "pitch": 36, "duration": 152, "velocity": 96}, {"time": 73201, "pitch": 36, "duration": 158, "velocity": 96}, {"time": 73440, "pitch": 39, "duration": 379, "velocity": 96}, {"time": 73920, "pitch": 39, "duration": 139, "velocity": 96}, {"time": 74160, "pitch": 39, "duration": 158, "velocity": 96}, {"time": 74400, "pitch": 39, "duration": 151, "velocity": 96}, {"time": 74640, "pitch": 39, "duration": 158, "velocity": 96}, {"time": 74880, "pitch": 39, "duration": 157, "velocity": 96}, {"time": 75119, "pitch": 39, "duration": 215, "velocity": 96}, {"time": 75359, "pitch": 31, "duration": 341, "velocity": 96}, {"time": 75839, "pitch": 31, "duration": 158, "velocity": 96}, {"time": 76079, "pitch": 31, "duration": 158, "velocity": 96}, {"time": 76319, "pitch": 31, "duration": 176, "velocity": 96}, {"time": 76558, "pitch": 31, "duration": 145, "velocity": 96}, {"time": 76798, "pitch": 31, "duration": 152, "velocity": 96}, {"time": 77038, "pitch": 31, "duration": 158, "velocity": 96}, {"time": 77278, "pitch": 31, "duration": 341, "velocity": 96}, {"time": 77758, "pitch": 31, "duration": 157, "velocity": 96}, {"time": 77997, "pitch": 31, "duration": 158, "velocity": 96}, {"time": 78237, "pitch": 31, "duration": 177, "velocity": 96}, {"time": 78477, "pitch": 31, "duration": 145, "velocity": 96}, {"time": 78717, "pitch": 31, "duration": 152, "velocity": 96}, {"time": 78957, "pitch": 31, "duration": 158, "velocity": 96}, {"time": 79197, "pitch": 30, "duration": 247, "velocity": 96}, {"time": 79436, "pitch": 31, "duration": 288, "velocity": 96}, {"time": 79916, "pitch": 35, "duration": 204, "velocity": 96}, {"time": 80156, "pitch": 36, "duration": 186, "velocity": 96}, {"time": 80396, "pitch": 36, "duration": 148, "velocity": 96}, {"time": 80636, "pitch": 36, "duration": 160, "velocity": 96}, {"time": 80876, "pitch": 36, "duration": 172, "velocity": 96}, {"time": 81115, "pitch": 30, "duration": 261, "velocity": 96}, {"time": 81355, "pitch": 31, "duration": 275, "velocity": 96}, {"time": 81835, "pitch": 35, "duration": 198, "velocity": 96}, {"time": 82075, "pitch": 36, "duration": 173, "velocity": 96}, {"time": 82315, "pitch": 36, "duration": 153, "velocity": 96}, {"time": 82554, "pitch": 36, "duration": 153, "velocity": 96}, {"time": 82794, "pitch": 36, "duration": 173, "velocity": 96}, {"time": 83034, "pitch": 30, "duration": 274, "velocity": 96}, {"time": 83274, "pitch": 31, "duration": 302, "velocity": 96}, {"time": 83760, "pitch": 35, "duration": 203, "velocity": 96}, {"time": 84006, "pitch": 36, "duration": 160, "velocity": 96}, {"time": 84246, "pitch": 36, "duration": 153, "velocity": 96}, {"time": 84486, "pitch": 36, "duration": 154, "velocity": 96}, {"time": 84726, "pitch": 36, "duration": 236, "velocity": 96}, {"time": 85205, "pitch": 36, "duration": 147, "velocity": 96}, {"time": 85445, "pitch": 36, "duration": 179, "velocity": 96}, {"time": 85685, "pitch": 35, "duration": 198, "velocity": 96}, {"time": 85925, "pitch": 36, "duration": 160, "velocity": 96}, {"time": 86165, "pitch": 35, "duration": 255, "velocity": 96}, {"time": 86404, "pitch": 36, "duration": 243, "velocity": 96}, {"time": 86644, "pitch": 38, "duration": 186, "velocity": 96}, {"time": 86884, "pitch": 30, "duration": 248, "velocity": 96}, {"time": 87124, "pitch": 31, "duration": 288, "velocity": 96}, {"time": 87604, "pitch": 35, "duration": 204, "velocity": 96}, {"time": 87843, "pitch": 36, "duration": 186, "velocity": 96}, {"time": 88083, "pitch": 36, "duration": 148, "velocity": 96}, {"time": 88323, "pitch": 36, "duration": 160, "velocity": 96}, {"time": 88563, "pitch": 36, "duration": 173, "velocity": 96}, {"time": 88803, "pitch": 30, "duration": 261, "velocity": 96}, {"time": 89043, "pitch": 31, "duration": 274, "velocity": 96}, {"time": 89522, "pitch": 35, "duration": 198, "velocity": 96}, {"time": 89762, "pitch": 36, "duration": 173, "velocity": 96}, {"time": 90002, "pitch": 36, "duration": 154, "velocity": 96}, {"time": 90242, "pitch": 36, "duration": 153, "velocity": 96}, {"time": 90482, "pitch": 36, "duration": 173, "velocity": 96}, {"time": 90722, "pitch": 30, "duration": 273, "velocity": 96}, {"time": 90961, "pitch": 31, "duration": 301, "velocity": 96}, {"time": 91441, "pitch": 35, "duration": 198, "velocity": 96}, {"time": 91681, "pitch": 36, "duration": 160, "velocity": 96}, {"time": 91921, "pitch": 36, "duration": 153, "velocity": 96}, {"time": 92161, "pitch": 36, "duration": 153, "velocity": 96}, {"time": 92400, "pitch": 36, "duration": 237, "velocity": 96}, {"time": 92880, "pitch": 36, "duration": 147, "velocity": 96}, {"time": 93120, "pitch": 36, "duration": 179, "velocity": 96}, {"time": 93360, "pitch": 35, "duration": 198, "velocity": 96}, {"time": 93600, "pitch": 36, "duration": 160, "velocity": 96}, {"time": 93839, "pitch": 35, "duration": 256, "velocity": 96}, {"time": 94079, "pitch": 36, "duration": 243, "velocity": 96}, {"time": 94319, "pitch": 38, "duration": 186, "velocity": 96}, {"time": 94559, "pitch": 36, "duration": 341, "velocity": 96}, {"time": 95039, "pitch": 36, "duration": 158, "velocity": 96}, {"time": 95279, "pitch": 36, "duration": 157, "velocity": 96}, {"time": 95518, "pitch": 36, "duration": 177, "velocity": 96}, {"time": 95758, "pitch": 36, "duration": 145, "velocity": 96}, {"time": 95998, "pitch": 36, "duration": 152, "velocity": 96}, {"time": 96238, "pitch": 36, "duration": 158, "velocity": 96}, {"time": 96478, "pitch": 39, "duration": 378, "velocity": 96}, {"time": 96957, "pitch": 39, "duration": 139, "velocity": 96}, {"time": 97197, "pitch": 39, "duration": 158, "velocity": 96}, {"time": 97437, "pitch": 39, "duration": 151, "velocity": 96}, {"time": 97677, "pitch": 39, "duration": 158, "velocity": 96}, {"time": 97917, "pitch": 39, "duration": 158, "velocity": 96}, {"time": 98157, "pitch": 39, "duration": 214, "velocity": 96}, {"time": 98396, "pitch": 31, "duration": 341, "velocity": 96}, {"time": 98876, "pitch": 31, "duration": 158, "velocity": 96}, {"time": 99116, "pitch": 31, "duration": 158, "velocity": 96}, {"time": 99356, "pitch": 31, "duration": 177, "velocity": 96}, {"time": 99596, "pitch": 31, "duration": 145, "velocity": 96}, {"time": 99835, "pitch": 31, "duration": 152, "velocity": 96}, {"time": 100075, "pitch": 31, "duration": 158, "velocity": 96}, {"time": 100315, "pitch": 31, "duration": 341, "velocity": 96}, {"time": 100795, "pitch": 31, "duration": 158, "velocity": 96}, {"time": 101035, "pitch": 31, "duration": 158, "velocity": 96}, {"time": 101274, "pitch": 31, "duration": 177, "velocity": 96}, {"time": 101514, "pitch": 31, "duration": 145, "velocity": 96}, {"time": 101754, "pitch": 31, "duration": 152, "velocity": 96}, {"time": 101994, "pitch": 31, "duration": 158, "velocity": 96}, {"time": 102234, "pitch": 36, "duration": 350, "velocity": 96}, {"time": 102726, "pitch": 36, "duration": 158, "velocity": 96}, {"time": 102966, "pitch": 36, "duration": 158, "velocity": 96}, {"time": 103206, "pitch": 36, "duration": 177, "velocity": 96}, {"time": 103446, "pitch": 36, "duration": 145, "velocity": 96}, {"time": 103686, "pitch": 36, "duration": 151, "velocity": 96}, {"time": 103925, "pitch": 36, "duration": 158, "velocity": 96}, {"time": 104165, "pitch": 39, "duration": 379, "velocity": 96}, {"time": 104645, "pitch": 39, "duration": 139, "velocity": 96}, {"time": 104885, "pitch": 39, "duration": 158, "velocity": 96}, {"time": 105125, "pitch": 39, "duration": 150, "velocity": 96}, {"time": 105364, "pitch": 39, "duration": 158, "velocity": 96}, {"time": 105604, "pitch": 39, "duration": 158, "velocity": 96}, {"time": 105844, "pitch": 39, "duration": 215, "velocity": 96}, {"time": 106084, "pitch": 35, "duration": 341, "velocity": 96}, {"time": 106564, "pitch": 35, "duration": 157, "velocity": 96}, {"time": 106803, "pitch": 35, "duration": 158, "velocity": 96}, {"time": 107043, "pitch": 35, "duration": 177, "velocity": 96}, {"time": 107283, "pitch": 35, "duration": 145, "velocity": 96}, {"time": 107523, "pitch": 35, "duration": 152, "velocity": 96}, {"time": 107763, "pitch": 35, "duration": 158, "velocity": 96}, {"time": 108003, "pitch": 38, "duration": 340, "velocity": 96}, {"time": 108482, "pitch": 38, "duration": 158, "velocity": 96}, {"time": 108722, "pitch": 38, "duration": 158, "velocity": 96}, {"time": 108962, "pitch": 38, "duration": 177, "velocity": 96}, {"time": 109202, "pitch": 38, "duration": 145, "velocity": 96}, {"time": 109442, "pitch": 38, "duration": 152, "velocity": 96}, {"time": 109682, "pitch": 38, "duration": 157, "velocity": 96}, {"time": 109921, "pitch": 31, "duration": 132, "velocity": 96}, {"time": 110161, "pitch": 31, "duration": 128, "velocity": 96}, {"time": 110401, "pitch": 31, "duration": 126, "velocity": 96}, {"time": 110641, "pitch": 31, "duration": 116, "velocity": 96}, {"time": 110881, "pitch": 31, "duration": 136, "velocity": 96}, {"time": 111121, "pitch": 31, "duration": 125, "velocity": 96}, {"time": 111360, "pitch": 31, "duration": 131, "velocity": 96}, {"time": 111600, "pitch": 31, "duration": 136, "velocity": 96}, {"time": 111840, "pitch": 33, "duration": 140, "velocity": 96}, {"time": 112080, "pitch": 33, "duration": 120, "velocity": 96}, {"time": 112320, "pitch": 33, "duration": 131, "velocity": 96}, {"time": 112560, "pitch": 33, "duration": 141, "velocity": 96}, {"time": 112799, "pitch": 33, "duration": 138, "velocity": 96}, {"time": 113039, "pitch": 33, "duration": 136, "velocity": 96}, {"time": 113279, "pitch": 33, "duration": 127, "velocity": 96}, {"time": 113519, "pitch": 33, "duration": 145, "velocity": 96}, {"time": 113759, "pitch": 36, "duration": 144, "velocity": 96}, {"time": 113999, "pitch": 36, "duration": 120, "velocity": 96}, {"time": 114238, "pitch": 36, "duration": 128, "velocity": 96}, {"time": 114478, "pitch": 36, "duration": 128, "velocity": 96}, {"time": 114718, "pitch": 36, "duration": 128, "velocity": 96}, {"time": 114958, "pitch": 36, "duration": 120, "velocity": 96}, {"time": 115198, "pitch": 36, "duration": 124, "velocity": 96}, {"time": 115438, "pitch": 36, "duration": 109, "velocity": 96}, {"time": 115678, "pitch": 38, "duration": 132, "velocity": 96}, {"time": 115917, "pitch": 38, "duration": 115, "velocity": 96}, {"time": 116157, "pitch": 38, "duration": 128, "velocity": 96}, {"time": 116397, "pitch": 38, "duration": 114, "velocity": 96}, {"time": 116637, "pitch": 38, "duration": 120, "velocity": 96}, {"time": 116877, "pitch": 38, "duration": 112, "velocity": 96}, {"time": 117117, "pitch": 38, "duration": 122, "velocity": 96}, {"time": 117356, "pitch": 38, "duration": 129, "velocity": 96}, {"time": 117596, "pitch": 31, "duration": 132, "velocity": 96}, {"time": 117836, "pitch": 31, "duration": 128, "velocity": 96}, {"time": 118076, "pitch": 31, "duration": 126, "velocity": 96}, {"time": 118316, "pitch": 31, "duration": 116, "velocity": 96}, {"time": 118556, "pitch": 31, "duration": 135, "velocity": 96}, {"time": 118795, "pitch": 31, "duration": 126, "velocity": 96}, {"time": 119035, "pitch": 31, "duration": 131, "velocity": 96}, {"time": 119275, "pitch": 31, "duration": 136, "velocity": 96}, {"time": 119515, "pitch": 33, "duration": 140, "velocity": 96}, {"time": 119755, "pitch": 33, "duration": 120, "velocity": 96}, {"time": 119995, "pitch": 33, "duration": 131, "velocity": 96}, {"time": 120234, "pitch": 33, "duration": 142, "velocity": 96}, {"time": 120474, "pitch": 33, "duration": 138, "velocity": 96}, {"time": 120714, "pitch": 33, "duration": 136, "velocity": 96}, {"time": 120954, "pitch": 33, "duration": 130, "velocity": 96}, {"time": 121200, "pitch": 33, "duration": 149, "velocity": 96}, {"time": 121446, "pitch": 36, "duration": 144, "velocity": 96}, {"time": 121686, "pitch": 36, "duration": 120, "velocity": 96}, {"time": 121926, "pitch": 36, "duration": 128, "velocity": 96}, {"time": 122166, "pitch": 36, "duration": 128, "velocity": 96}, {"time": 122406, "pitch": 36, "duration": 128, "velocity": 96}, {"time": 122645, "pitch": 36, "duration": 120, "velocity": 96}, {"time": 122885, "pitch": 36, "duration": 124, "velocity": 96}, {"time": 123125, "pitch": 36, "duration": 109, "velocity": 96}, {"time": 123365, "pitch": 38, "duration": 133, "velocity": 96}, {"time": 123605, "pitch": 38, "duration": 115, "velocity": 96}, {"time": 123845, "pitch": 38, "duration": 128, "velocity": 96}, {"time": 124085, "pitch": 38, "duration": 113, "velocity": 96}, {"time": 124324, "pitch": 38, "duration": 120, "velocity": 96}, {"time": 124564, "pitch": 38, "duration": 112, "velocity": 96}, {"time": 124804, "pitch": 38, "duration": 123, "velocity": 96}, {"time": 125044, "pitch": 38, "duration": 129, "velocity": 96}, {"time": 125284, "pitch": 31, "duration": 132, "velocity": 96}, {"time": 125524, "pitch": 31, "duration": 127, "velocity": 96}, {"time": 125763, "pitch": 31, "duration": 126, "velocity": 96}, {"time": 126003, "pitch": 31, "duration": 116, "velocity": 96}, {"time": 126243, "pitch": 31, "duration": 136, "velocity": 96}, {"time": 126483, "pitch": 31, "duration": 126, "velocity": 96}, {"time": 126723, "pitch": 31, "duration": 131, "velocity": 96}, {"time": 126963, "pitch": 31, "duration": 136, "velocity": 96}, {"time": 127202, "pitch": 33, "duration": 140, "velocity": 96}, {"time": 127442, "pitch": 33, "duration": 120, "velocity": 96}, {"time": 127682, "pitch": 33, "duration": 131, "velocity": 96}, {"time": 127922, "pitch": 33, "duration": 142, "velocity": 96}, {"time": 128162, "pitch": 33, "duration": 138, "velocity": 96}, {"time": 128402, "pitch": 33, "duration": 136, "velocity": 96}, {"time": 128641, "pitch": 33, "duration": 127, "velocity": 96}, {"time": 128881, "pitch": 33, "duration": 145, "velocity": 96}, {"time": 129121, "pitch": 36, "duration": 144, "velocity": 96}, {"time": 129361, "pitch": 36, "duration": 120, "velocity": 96}, {"time": 129601, "pitch": 36, "duration": 128, "velocity": 96}, {"time": 129841, "pitch": 36, "duration": 128, "velocity": 96}, {"time": 130081, "pitch": 36, "duration": 127, "velocity": 96}, {"time": 130320, "pitch": 36, "duration": 120, "velocity": 96}, {"time": 130560, "pitch": 36, "duration": 124, "velocity": 96}, {"time": 130800, "pitch": 36, "duration": 109, "velocity": 96}, {"time": 131040, "pitch": 38, "duration": 133, "velocity": 96}, {"time": 131280, "pitch": 38, "duration": 115, "velocity": 96}, {"time": 131520, "pitch": 38, "duration": 127, "velocity": 96}, {"time": 131759, "pitch": 38, "duration": 114, "velocity": 96}, {"time": 131999, "pitch": 38, "duration": 120, "velocity": 96}, {"time": 132239, "pitch": 38, "duration": 112, "velocity": 96}, {"time": 132479, "pitch": 38, "duration": 123, "velocity": 96}, {"time": 132719, "pitch": 38, "duration": 129, "velocity": 96}, {"time": 132959, "pitch": 31, "duration": 131, "velocity": 96}, {"time": 133198, "pitch": 31, "duration": 128, "velocity": 96}, {"time": 133438, "pitch": 31, "duration": 126, "velocity": 96}, {"time": 133678, "pitch": 31, "duration": 116, "velocity": 96}, {"time": 133918, "pitch": 31, "duration": 136, "velocity": 96}, {"time": 134158, "pitch": 31, "duration": 126, "velocity": 96}, {"time": 134398, "pitch": 31, "duration": 131, "velocity": 96}, {"time": 134637, "pitch": 31, "duration": 136, "velocity": 96}, {"time": 134877, "pitch": 33, "duration": 140, "velocity": 96}, {"time": 135117, "pitch": 33, "duration": 120, "velocity": 96}, {"time": 135357, "pitch": 33, "duration": 131, "velocity": 96}, {"time": 135597, "pitch": 33, "duration": 142, "velocity": 96}, {"time": 135837, "pitch": 33, "duration": 138, "velocity": 96}, {"time": 136076, "pitch": 33, "duration": 136, "velocity": 96}, {"time": 136316, "pitch": 33, "duration": 127, "velocity": 96}, {"time": 136556, "pitch": 33, "duration": 145, "velocity": 96}, {"time": 136796, "pitch": 36, "duration": 144, "velocity": 96}, {"time": 137036, "pitch": 36, "duration": 120, "velocity": 96}, {"time": 137276, "pitch": 36, "duration": 128, "velocity": 96}, {"time": 137516, "pitch": 36, "duration": 127, "velocity": 96}, {"time": 137755, "pitch": 36, "duration": 128, "velocity": 96}, {"time": 137995, "pitch": 36, "duration": 120, "velocity": 96}, {"time": 138235, "pitch": 36, "duration": 124, "velocity": 96}, {"time": 138475, "pitch": 36, "duration": 109, "velocity": 96}, {"time": 138715, "pitch": 38, "duration": 133, "velocity": 96}, {"time": 138955, "pitch": 38, "duration": 114, "velocity": 96}, {"time": 139194, "pitch": 38, "duration": 128, "velocity": 96}, {"time": 140646, "pitch": 30, "duration": 248, "velocity": 96}, {"time": 140886, "pitch": 31, "duration": 288, "velocity": 96}, {"time": 141366, "pitch": 35, "duration": 203, "velocity": 96}, {"time": 141605, "pitch": 36, "duration": 186, "velocity": 96}, {"time": 141845, "pitch": 36, "duration": 148, "velocity": 96}, {"time": 142085, "pitch": 36, "duration": 160, "velocity": 96}, {"time": 142325, "pitch": 36, "duration": 173, "velocity": 96}, {"time": 142565, "pitch": 30, "duration": 261, "velocity": 96}, {"time": 142805, "pitch": 31, "duration": 274, "velocity": 96}, {"time": 143284, "pitch": 35, "duration": 198, "velocity": 96}, {"time": 143524, "pitch": 36, "duration": 173, "velocity": 96}, {"time": 143764, "pitch": 36, "duration": 154, "velocity": 96}, {"time": 144004, "pitch": 36, "duration": 153, "velocity": 96}, {"time": 144244, "pitch": 36, "duration": 173, "velocity": 96}, {"time": 144484, "pitch": 30, "duration": 273, "velocity": 96}, {"time": 144723, "pitch": 31, "duration": 301, "velocity": 96}, {"time": 145203, "pitch": 35, "duration": 198, "velocity": 96}, {"time": 145443, "pitch": 36, "duration": 160, "velocity": 96}, {"time": 145683, "pitch": 36, "duration": 153, "velocity": 96}, {"time": 145923, "pitch": 36, "duration": 153, "velocity": 96}, {"time": 146162, "pitch": 36, "duration": 237, "velocity": 96}, {"time": 146642, "pitch": 36, "duration": 147, "velocity": 96}, {"time": 146882, "pitch": 36, "duration": 179, "velocity": 96}, {"time": 147122, "pitch": 35, "duration": 198, "velocity": 96}, {"time": 147362, "pitch": 36, "duration": 159, "velocity": 96}, {"time": 147601, "pitch": 35, "duration": 256, "velocity": 96}, {"time": 147841, "pitch": 36, "duration": 243, "velocity": 96}, {"time": 148081, "pitch": 38, "duration": 186, "velocity": 96}, {"time": 148321, "pitch": 30, "duration": 248, "velocity": 96}, {"time": 148561, "pitch": 31, "duration": 288, "velocity": 96}, {"time": 149040, "pitch": 35, "duration": 204, "velocity": 96}, {"time": 149280, "pitch": 36, "duration": 186, "velocity": 96}, {"time": 149520, "pitch": 36, "duration": 148, "velocity": 96}, {"time": 149760, "pitch": 36, "duration": 160, "velocity": 96}, {"time": 150000, "pitch": 36, "duration": 173, "velocity": 96}, {"time": 150240, "pitch": 30, "duration": 260, "velocity": 96}, {"time": 150480, "pitch": 31, "duration": 274, "velocity": 96}, {"time": 150959, "pitch": 35, "duration": 198, "velocity": 96}, {"time": 151199, "pitch": 36, "duration": 173, "velocity": 96}, {"time": 151439, "pitch": 36, "duration": 154, "velocity": 96}, {"time": 151679, "pitch": 36, "duration": 153, "velocity": 96}, {"time": 151919, "pitch": 36, "duration": 172, "velocity": 96}, {"time": 152158, "pitch": 30, "duration": 274, "velocity": 96}, {"time": 152398, "pitch": 31, "duration": 301, "velocity": 96}, {"time": 152878, "pitch": 35, "duration": 198, "velocity": 96}, {"time": 153118, "pitch": 36, "duration": 160, "velocity": 96}, {"time": 153358, "pitch": 36, "duration": 152, "velocity": 96}, {"time": 153597, "pitch": 36, "duration": 154, "velocity": 96}, {"time": 153837, "pitch": 36, "duration": 237, "velocity": 96}, {"time": 154317, "pitch": 36, "duration": 147, "velocity": 96}, {"time": 154557, "pitch": 36, "duration": 179, "velocity": 96}, {"time": 154797, "pitch": 35, "duration": 197, "velocity": 96}, {"time": 155036, "pitch": 36, "duration": 160, "velocity": 96}, {"time": 155276, "pitch": 35, "duration": 256, "velocity": 96}, {"time": 155516, "pitch": 36, "duration": 243, "velocity": 96}, {"time": 155756, "pitch": 38, "duration": 186, "velocity": 96}, {"time": 155996, "pitch": 30, "duration": 248, "velocity": 96}, {"time": 156236, "pitch": 31, "duration": 287, "velocity": 96}, {"time": 156715, "pitch": 35, "duration": 204, "velocity": 96}, {"time": 156955, "pitch": 36, "duration": 186, "velocity": 96}, {"time": 157195, "pitch": 36, "duration": 148, "velocity": 96}, {"time": 157435, "pitch": 36, "duration": 160, "velocity": 96}, {"time": 157675, "pitch": 36, "duration": 173, "velocity": 96}, {"time": 157915, "pitch": 30, "duration": 260, "velocity": 96}, {"time": 158154, "pitch": 31, "duration": 275, "velocity": 96}, {"time": 158634, "pitch": 35, "duration": 198, "velocity": 96}, {"time": 158874, "pitch": 36, "duration": 177, "velocity": 96}, {"time": 159120, "pitch": 36, "duration": 158, "velocity": 96}, {"time": 159366, "pitch": 36, "duration": 153, "velocity": 96}, {"time": 159606, "pitch": 36, "duration": 173, "velocity": 96}, {"time": 159846, "pitch": 30, "duration": 274, "velocity": 96}, {"time": 160086, "pitch": 31, "duration": 301, "velocity": 96}, {"time": 160565, "pitch": 35, "duration": 198, "velocity": 96}, {"time": 160805, "pitch": 36, "duration": 160, "velocity": 96}, {"time": 161045, "pitch": 36, "duration": 153, "velocity": 96}, {"time": 161285, "pitch": 36, "duration": 154, "velocity": 96}, {"time": 161525, "pitch": 36, "duration": 237, "velocity": 96}, {"time": 162004, "pitch": 36, "duration": 147, "velocity": 96}, {"time": 162244, "pitch": 36, "duration": 179, "velocity": 96}, {"time": 162484, "pitch": 35, "duration": 198, "velocity": 96}, {"time": 162724, "pitch": 36, "duration": 160, "velocity": 96}, {"time": 162964, "pitch": 35, "duration": 256, "velocity": 96}, {"time": 163204, "pitch": 36, "duration": 242, "velocity": 96}, {"time": 163443, "pitch": 38, "duration": 186, "velocity": 96}, {"time": 163683, "pitch": 30, "duration": 248, "velocity": 96}, {"time": 163923, "pitch": 31, "duration": 288, "velocity": 96}, {"time": 164403, "pitch": 35, "duration": 204, "velocity": 96}, {"time": 164643, "pitch": 36, "duration": 186, "velocity": 96}, {"time": 164883, "pitch": 36, "duration": 147, "velocity": 96}, {"time": 165122, "pitch": 36, "duration": 160, "velocity": 96}, {"time": 165362, "pitch": 36, "duration": 173, "velocity": 96}, {"time": 165602, "pitch": 30, "duration": 261, "velocity": 96}, {"time": 165842, "pitch": 31, "duration": 275, "velocity": 96}, {"time": 166322, "pitch": 35, "duration": 197, "velocity": 96}, {"time": 166561, "pitch": 36, "duration": 173, "velocity": 96}, {"time": 166801, "pitch": 36, "duration": 154, "velocity": 96}, {"time": 167041, "pitch": 36, "duration": 153, "velocity": 96}, {"time": 167281, "pitch": 36, "duration": 173, "velocity": 96}, {"time": 167521, "pitch": 30, "duration": 274, "velocity": 96}, {"time": 167761, "pitch": 31, "duration": 300, "velocity": 96}, {"time": 168240, "pitch": 35, "duration": 198, "velocity": 96}, {"time": 168480, "pitch": 36, "duration": 160, "velocity": 96}, {"time": 168720, "pitch": 36, "duration": 153, "velocity": 96}, {"time": 168960, "pitch": 36, "duration": 154, "velocity": 96}, {"time": 169200, "pitch": 36, "duration": 236, "velocity": 96}, {"time": 169679, "pitch": 36, "duration": 147, "velocity": 96}, {"time": 169919, "pitch": 36, "duration": 179, "velocity": 96}, {"time": 170159, "pitch": 35, "duration": 198, "velocity": 96}, {"time": 170399, "pitch": 36, "duration": 160, "velocity": 96}, {"time": 170639, "pitch": 35, "duration": 255, "velocity": 96}, {"time": 170879, "pitch": 36, "duration": 242, "velocity": 96}, {"time": 171118, "pitch": 38, "duration": 186, "velocity": 96}, {"time": 171358, "pitch": 30, "duration": 248, "velocity": 96}, {"time": 171598, "pitch": 31, "duration": 288, "velocity": 96}, {"time": 172078, "pitch": 35, "duration": 204, "velocity": 96}, {"time": 172318, "pitch": 36, "duration": 185, "velocity": 96}, {"time": 172557, "pitch": 36, "duration": 148, "velocity": 96}, {"time": 172797, "pitch": 36, "duration": 160, "velocity": 96}, {"time": 173037, "pitch": 36, "duration": 173, "velocity": 96}, {"time": 173277, "pitch": 30, "duration": 261, "velocity": 96}, {"time": 173517, "pitch": 31, "duration": 275, "velocity": 96}, {"time": 173996, "pitch": 35, "duration": 198, "velocity": 96}, {"time": 174236, "pitch": 36, "duration": 173, "velocity": 96}, {"time": 174476, "pitch": 36, "duration": 154, "velocity": 96}, {"time": 174716, "pitch": 36, "duration": 153, "velocity": 96}, {"time": 174956, "pitch": 36, "duration": 173, "velocity": 96}, {"time": 175196, "pitch": 30, "duration": 273, "velocity": 96}, {"time": 175435, "pitch": 31, "duration": 301, "velocity": 96}, {"time": 175915, "pitch": 35, "duration": 198, "velocity": 96}, {"time": 176155, "pitch": 36, "duration": 160, "velocity": 96}, {"time": 176395, "pitch": 36, "duration": 153, "velocity": 96}, {"time": 176635, "pitch": 36, "duration": 154, "velocity": 96}, {"time": 176874, "pitch": 36, "duration": 237, "velocity": 96}, {"time": 177354, "pitch": 36, "duration": 147, "velocity": 96}, {"time": 177594, "pitch": 36, "duration": 179, "velocity": 96}, {"time": 177834, "pitch": 35, "duration": 198, "velocity": 96}, {"time": 178074, "pitch": 36, "duration": 164, "velocity": 96}, {"time": 178320, "pitch": 35, "duration": 262, "velocity": 96}, {"time": 178566, "pitch": 36, "duration": 243, "velocity": 96}, {"time": 178806, "pitch": 38, "duration": 186, "velocity": 96}, {"time": 179046, "pitch": 30, "duration": 248, "velocity": 96}, {"time": 179286, "pitch": 31, "duration": 287, "velocity": 96}, {"time": 179765, "pitch": 35, "duration": 204, "velocity": 96}, {"time": 180005, "pitch": 36, "duration": 186, "velocity": 96}, {"time": 180245, "pitch": 36, "duration": 148, "velocity": 96}, {"time": 180485, "pitch": 36, "duration": 160, "velocity": 96}, {"time": 180725, "pitch": 36, "duration": 172, "velocity": 96}, {"time": 180964, "pitch": 30, "duration": 261, "velocity": 96}, {"time": 181204, "pitch": 31, "duration": 275, "velocity": 96}, {"time": 181684, "pitch": 35, "duration": 198, "velocity": 96}, {"time": 181924, "pitch": 36, "duration": 173, "velocity": 96}, {"time": 182164, "pitch": 36, "duration": 153, "velocity": 96}, {"time": 182403, "pitch": 36, "duration": 153, "velocity": 96}, {"time": 182643, "pitch": 36, "duration": 173, "velocity": 96}, {"time": 182883, "pitch": 30, "duration": 274, "velocity": 96}, {"time": 183123, "pitch": 31, "duration": 301, "velocity": 96}, {"time": 183603, "pitch": 35, "duration": 197, "velocity": 96}, {"time": 183842, "pitch": 36, "duration": 160, "velocity": 96}, {"time": 184082, "pitch": 36, "duration": 153, "velocity": 96}, {"time": 184322, "pitch": 36, "duration": 154, "velocity": 96}, {"time": 184562, "pitch": 36, "duration": 237, "velocity": 96}, {"time": 185042, "pitch": 36, "duration": 147, "velocity": 96}, {"time": 185282, "pitch": 36, "duration": 178, "velocity": 96}, {"time": 185521, "pitch": 35, "duration": 198, "velocity": 96}, {"time": 185761, "pitch": 36, "duration": 160, "velocity": 96}, {"time": 186001, "pitch": 35, "duration": 256, "velocity": 96}, {"time": 186241, "pitch": 36, "duration": 243, "velocity": 96}, {"time": 186481, "pitch": 38, "duration": 186, "velocity": 96}, {"time": 186721, "pitch": 36, "duration": 340, "velocity": 96}, {"time": 187200, "pitch": 36, "duration": 158, "velocity": 96}, {"time": 187440, "pitch": 36, "duration": 158, "velocity": 96}, {"time": 187680, "pitch": 36, "duration": 177, "velocity": 96}, {"time": 187920, "pitch": 36, "duration": 145, "velocity": 96}, {"time": 188160, "pitch": 36, "duration": 151, "velocity": 96}, {"time": 188399, "pitch": 36, "duration": 158, "velocity": 96}, {"time": 188639, "pitch": 39, "duration": 379, "velocity": 96}, {"time": 189119, "pitch": 39, "duration": 139, "velocity": 96}, {"time": 189359, "pitch": 39, "duration": 158, "velocity": 96}, {"time": 189599, "pitch": 39, "duration": 151, "velocity": 96}, {"time": 189838, "pitch": 39, "duration": 158, "velocity": 96}, {"time": 190078, "pitch": 39, "duration": 158, "velocity": 96}, {"time": 190318, "pitch": 39, "duration": 215, "velocity": 96}, {"time": 190558, "pitch": 31, "duration": 341, "velocity": 96}, {"time": 191038, "pitch": 31, "duration": 158, "velocity": 96}, {"time": 191277, "pitch": 31, "duration": 158, "velocity": 96}, {"time": 191517, "pitch": 31, "duration": 177, "velocity": 96}, {"time": 191757, "pitch": 31, "duration": 145, "velocity": 96}, {"time": 191997, "pitch": 31, "duration": 152, "velocity": 96}, {"time": 192237, "pitch": 31, "duration": 158, "velocity": 96}, {"time": 192477, "pitch": 31, "duration": 340, "velocity": 96}, {"time": 192956, "pitch": 31, "duration": 158, "velocity": 96}, {"time": 193196, "pitch": 31, "duration": 158, "velocity": 96}, {"time": 193436, "pitch": 31, "duration": 177, "velocity": 96}, {"time": 193676, "pitch": 31, "duration": 145, "velocity": 96}, {"time": 193916, "pitch": 31, "duration": 152, "velocity": 96}, {"time": 194156, "pitch": 31, "duration": 157, "velocity": 96}, {"time": 194395, "pitch": 36, "duration": 341, "velocity": 96}, {"time": 194875, "pitch": 36, "duration": 158, "velocity": 96}, {"time": 195115, "pitch": 36, "duration": 158, "velocity": 96}, {"time": 195355, "pitch": 36, "duration": 177, "velocity": 96}, {"time": 195595, "pitch": 36, "duration": 145, "velocity": 96}, {"time": 195834, "pitch": 36, "duration": 152, "velocity": 96}, {"time": 196074, "pitch": 36, "duration": 158, "velocity": 96}, {"time": 196314, "pitch": 39, "duration": 379, "velocity": 96}, {"time": 196794, "pitch": 39, "duration": 142, "velocity": 96}, {"time": 197040, "pitch": 39, "duration": 162, "velocity": 96}, {"time": 197286, "pitch": 39, "duration": 151, "velocity": 96}, {"time": 197526, "pitch": 39, "duration": 158, "velocity": 96}, {"time": 197766, "pitch": 39, "duration": 158, "velocity": 96}, {"time": 198006, "pitch": 39, "duration": 214, "velocity": 96}, {"time": 198245, "pitch": 35, "duration": 341, "velocity": 96}, {"time": 198725, "pitch": 35, "duration": 158, "velocity": 96}, {"time": 198965, "pitch": 35, "duration": 158, "velocity": 96}, {"time": 199205, "pitch": 35, "duration": 177, "velocity": 96}, {"time": 199445, "pitch": 35, "duration": 145, "velocity": 96}, {"time": 199685, "pitch": 35, "duration": 151, "velocity": 96}, {"time": 199924, "pitch": 35, "duration": 158, "velocity": 96}, {"time": 200164, "pitch": 38, "duration": 341, "velocity": 96}, {"time": 200644, "pitch": 38, "duration": 158, "velocity": 96}, {"time": 200884, "pitch": 38, "duration": 158, "velocity": 96}, {"time": 201124, "pitch": 38, "duration": 176, "velocity": 96}, {"time": 201363, "pitch": 38, "duration": 145, "velocity": 96}, {"time": 201603, "pitch": 38, "duration": 152, "velocity": 96}, {"time": 201843, "pitch": 38, "duration": 158, "velocity": 96}, {"time": 202083, "pitch": 31, "duration": 132, "velocity": 96}, {"time": 202323, "pitch": 31, "duration": 128, "velocity": 96}, {"time": 202563, "pitch": 31, "duration": 126, "velocity": 96}, {"time": 202802, "pitch": 31, "duration": 116, "velocity": 96}, {"time": 203042, "pitch": 31, "duration": 136, "velocity": 96}, {"time": 203282, "pitch": 31, "duration": 126, "velocity": 96}, {"time": 203522, "pitch": 31, "duration": 131, "velocity": 96}, {"time": 203762, "pitch": 31, "duration": 136, "velocity": 96}, {"time": 204002, "pitch": 33, "duration": 140, "velocity": 96}, {"time": 204241, "pitch": 33, "duration": 120, "velocity": 96}, {"time": 204481, "pitch": 33, "duration": 131, "velocity": 96}, {"time": 204721, "pitch": 33, "duration": 142, "velocity": 96}, {"time": 204961, "pitch": 33, "duration": 138, "velocity": 96}, {"time": 205201, "pitch": 33, "duration": 136, "velocity": 96}, {"time": 205441, "pitch": 33, "duration": 127, "velocity": 96}, {"time": 205681, "pitch": 33, "duration": 144, "velocity": 96}, {"time": 205920, "pitch": 36, "duration": 144, "velocity": 96}, {"time": 206160, "pitch": 36, "duration": 120, "velocity": 96}, {"time": 206400, "pitch": 36, "duration": 128, "velocity": 96}, {"time": 206640, "pitch": 36, "duration": 128, "velocity": 96}, {"time": 206880, "pitch": 36, "duration": 128, "velocity": 96}, {"time": 207120, "pitch": 36, "duration": 119, "velocity": 96}, {"time": 207359, "pitch": 36, "duration": 124, "velocity": 96}, {"time": 207599, "pitch": 36, "duration": 109, "velocity": 96}, {"time": 207839, "pitch": 38, "duration": 133, "velocity": 96}, {"time": 208079, "pitch": 38, "duration": 115, "velocity": 96}, {"time": 208319, "pitch": 38, "duration": 128, "velocity": 96}, {"time": 208559, "pitch": 38, "duration": 114, "velocity": 96}, {"time": 208798, "pitch": 38, "duration": 120, "velocity": 96}, {"time": 209038, "pitch": 38, "duration": 112, "velocity": 96}, {"time": 209278, "pitch": 38, "duration": 123, "velocity": 96}, {"time": 209518, "pitch": 38, "duration": 129, "velocity": 96}, {"time": 209758, "pitch": 31, "duration": 132, "velocity": 96}, {"time": 209998, "pitch": 31, "duration": 128, "velocity": 96}, {"time": 210237, "pitch": 31, "duration": 126, "velocity": 96}, {"time": 210477, "pitch": 31, "duration": 116, "velocity": 96}, {"time": 210717, "pitch": 31, "duration": 136, "velocity": 96}, {"time": 210957, "pitch": 31, "duration": 126, "velocity": 96}, {"time": 211197, "pitch": 31, "duration": 131, "velocity": 96}, {"time": 211437, "pitch": 31, "duration": 136, "velocity": 96}, {"time": 211676, "pitch": 33, "duration": 140, "velocity": 96}, {"time": 211916, "pitch": 33, "duration": 120, "velocity": 96}, {"time": 212156, "pitch": 33, "duration": 131, "velocity": 96}, {"time": 212396, "pitch": 33, "duration": 142, "velocity": 96}, {"time": 212636, "pitch": 33, "duration": 138, "velocity": 96}, {"time": 212876, "pitch": 33, "duration": 136, "velocity": 96}, {"time": 213116, "pitch": 33, "duration": 126, "velocity": 96}, {"time": 213355, "pitch": 33, "duration": 145, "velocity": 96}, {"time": 213595, "pitch": 36, "duration": 144, "velocity": 96}, {"time": 213835, "pitch": 36, "duration": 120, "velocity": 96}, {"time": 214075, "pitch": 36, "duration": 128, "velocity": 96}, {"time": 214315, "pitch": 36, "duration": 128, "velocity": 96}, {"time": 214555, "pitch": 36, "duration": 127, "velocity": 96}, {"time": 214794, "pitch": 36, "duration": 120, "velocity": 96}, {"time": 215034, "pitch": 36, "duration": 124, "velocity": 96}, {"time": 215274, "pitch": 36, "duration": 109, "velocity": 96}, {"time": 215514, "pitch": 38, "duration": 136, "velocity": 96}, {"time": 215760, "pitch": 38, "duration": 118, "velocity": 96}, {"time": 216006, "pitch": 38, "duration": 128, "velocity": 96}, {"time": 216246, "pitch": 38, "duration": 114, "velocity": 96}, {"time": 216486, "pitch": 38, "duration": 120, "velocity": 96}, {"time": 216726, "pitch": 38, "duration": 112, "velocity": 96}, {"time": 216966, "pitch": 38, "duration": 123, "velocity": 96}, {"time": 217205, "pitch": 38, "duration": 129, "velocity": 96}, {"time": 217445, "pitch": 31, "duration": 132, "velocity": 96}, {"time": 217685, "pitch": 31, "duration": 128, "velocity": 96}, {"time": 217925, "pitch": 31, "duration": 126, "velocity": 96}, {"time": 218165, "pitch": 31, "duration": 116, "velocity": 96}, {"time": 218405, "pitch": 31, "duration": 136, "velocity": 96}, {"time": 218644, "pitch": 31, "duration": 126, "velocity": 96}, {"time": 218884, "pitch": 31, "duration": 131, "velocity": 96}, {"time": 219124, "pitch": 31, "duration": 136, "velocity": 96}, {"time": 219364, "pitch": 33, "duration": 140, "velocity": 96}, {"time": 219604, "pitch": 33, "duration": 120, "velocity": 96}, {"time": 219844, "pitch": 33, "duration": 131, "velocity": 96}, {"time": 220084, "pitch": 33, "duration": 141, "velocity": 96}, {"time": 220323, "pitch": 33, "duration": 138, "velocity": 96}, {"time": 220563, "pitch": 33, "duration": 136, "velocity": 96}, {"time": 220803, "pitch": 33, "duration": 127, "velocity": 96}, {"time": 221043, "pitch": 33, "duration": 145, "velocity": 96}, {"time": 221283, "pitch": 36, "duration": 144, "velocity": 96}, {"time": 221523, "pitch": 36, "duration": 119, "velocity": 96}, {"time": 221762, "pitch": 36, "duration": 128, "velocity": 96}, {"time": 222002, "pitch": 36, "duration": 128, "velocity": 96}, {"time": 222242, "pitch": 36, "duration": 128, "velocity": 96}, {"time": 222482, "pitch": 36, "duration": 120, "velocity": 96}, {"time": 222722, "pitch": 36, "duration": 124, "velocity": 96}, {"time": 222962, "pitch": 36, "duration": 109, "velocity": 96}, {"time": 223201, "pitch": 38, "duration": 133, "velocity": 96}, {"time": 223441, "pitch": 38, "duration": 115, "velocity": 96}, {"time": 223681, "pitch": 38, "duration": 128, "velocity": 96}, {"time": 223921, "pitch": 38, "duration": 114, "velocity": 96}, {"time": 224161, "pitch": 38, "duration": 120, "velocity": 96}, {"time": 224401, "pitch": 38, "duration": 112, "velocity": 96}, {"time": 224640, "pitch": 38, "duration": 123, "velocity": 96}, {"time": 224880, "pitch": 38, "duration": 129, "velocity": 96}, {"time": 225120, "pitch": 31, "duration": 132, "velocity": 96}, {"time": 225360, "pitch": 31, "duration": 128, "velocity": 96}, {"time": 225600, "pitch": 31, "duration": 126, "velocity": 96}, {"time": 225840, "pitch": 31, "duration": 116, "velocity": 96}, {"time": 226079, "pitch": 31, "duration": 136, "velocity": 96}, {"time": 226319, "pitch": 31, "duration": 126, "velocity": 96}, {"time": 226559, "pitch": 31, "duration": 131, "velocity": 96}, {"time": 226799, "pitch": 31, "duration": 136, "velocity": 96}, {"time": 227039, "pitch": 33, "duration": 140, "velocity": 96}, {"time": 227279, "pitch": 33, "duration": 120, "velocity": 96}, {"time": 227519, "pitch": 33, "duration": 130, "velocity": 96}, {"time": 227758, "pitch": 33, "duration": 142, "velocity": 96}, {"time": 227998, "pitch": 33, "duration": 138, "velocity": 96}, {"time": 228238, "pitch": 33, "duration": 136, "velocity": 96}, {"time": 228478, "pitch": 33, "duration": 127, "velocity": 96}, {"time": 228718, "pitch": 33, "duration": 145, "velocity": 96}, {"time": 228958, "pitch": 36, "duration": 143, "velocity": 96}, {"time": 229197, "pitch": 36, "duration": 120, "velocity": 96}, {"time": 229437, "pitch": 36, "duration": 128, "velocity": 96}, {"time": 229677, "pitch": 36, "duration": 128, "velocity": 96}, {"time": 229917, "pitch": 36, "duration": 128, "velocity": 96}, {"time": 230157, "pitch": 36, "duration": 120, "velocity": 96}, {"time": 230397, "pitch": 36, "duration": 124, "velocity": 96}, {"time": 230636, "pitch": 36, "duration": 109, "velocity": 96}, {"time": 230876, "pitch": 38, "duration": 428, "velocity": 96}, {"time": 232795, "pitch": 30, "duration": 248, "velocity": 96}, {"time": 233035, "pitch": 31, "duration": 288, "velocity": 96}, {"time": 233515, "pitch": 35, "duration": 203, "velocity": 96}, {"time": 233754, "pitch": 36, "duration": 186, "velocity": 96}, {"time": 233994, "pitch": 36, "duration": 148, "velocity": 96}, {"time": 234234, "pitch": 36, "duration": 160, "velocity": 96}, {"time": 234474, "pitch": 36, "duration": 173, "velocity": 96}, {"time": 234714, "pitch": 30, "duration": 267, "velocity": 96}, {"time": 234960, "pitch": 31, "duration": 281, "velocity": 96}, {"time": 235446, "pitch": 35, "duration": 198, "velocity": 96}, {"time": 235686, "pitch": 36, "duration": 173, "velocity": 96}, {"time": 235926, "pitch": 36, "duration": 153, "velocity": 96}, {"time": 236165, "pitch": 36, "duration": 153, "velocity": 96}, {"time": 236405, "pitch": 36, "duration": 173, "velocity": 96}, {"time": 236645, "pitch": 30, "duration": 274, "velocity": 96}, {"time": 236885, "pitch": 31, "duration": 301, "velocity": 96}, {"time": 237365, "pitch": 35, "duration": 197, "velocity": 96}, {"time": 237604, "pitch": 36, "duration": 160, "velocity": 96}, {"time": 237844, "pitch": 36, "duration": 153, "velocity": 96}, {"time": 238084, "pitch": 36, "duration": 154, "velocity": 96}, {"time": 238324, "pitch": 36, "duration": 237, "velocity": 96}, {"time": 238804, "pitch": 36, "duration": 147, "velocity": 96}, {"time": 239043, "pitch": 36, "duration": 179, "velocity": 96}, {"time": 239283, "pitch": 35, "duration": 198, "velocity": 96}, {"time": 239523, "pitch": 36, "duration": 160, "velocity": 96}, {"time": 239763, "pitch": 35, "duration": 256, "velocity": 96}, {"time": 240003, "pitch": 36, "duration": 243, "velocity": 96}, {"time": 240243, "pitch": 38, "duration": 186, "velocity": 96}, {"time": 240483, "pitch": 30, "duration": 247, "velocity": 96}, {"time": 240722, "pitch": 31, "duration": 288, "velocity": 96}, {"time": 241202, "pitch": 35, "duration": 204, "velocity": 96}, {"time": 241442, "pitch": 36, "duration": 186, "velocity": 96}, {"time": 241682, "pitch": 36, "duration": 148, "velocity": 96}, {"time": 241922, "pitch": 36, "duration": 159, "velocity": 96}, {"time": 242161, "pitch": 36, "duration": 173, "velocity": 96}, {"time": 242401, "pitch": 30, "duration": 261, "velocity": 96}, {"time": 242641, "pitch": 31, "duration": 275, "velocity": 96}, {"time": 243121, "pitch": 35, "duration": 198, "velocity": 96}, {"time": 243361, "pitch": 36, "duration": 172, "velocity": 96}, {"time": 243600, "pitch": 36, "duration": 154, "velocity": 96}, {"time": 243840, "pitch": 36, "duration": 153, "velocity": 96}, {"time": 244080, "pitch": 36, "duration": 173, "velocity": 96}, {"time": 244320, "pitch": 30, "duration": 274, "velocity": 96}, {"time": 244560, "pitch": 31, "duration": 301, "velocity": 96}, {"time": 245039, "pitch": 35, "duration": 198, "velocity": 96}, {"time": 245279, "pitch": 36, "duration": 160, "velocity": 96}, {"time": 245519, "pitch": 36, "duration": 153, "velocity": 96}, {"time": 245759, "pitch": 36, "duration": 154, "velocity": 96}, {"time": 245999, "pitch": 36, "duration": 237, "velocity": 96}, {"time": 246478, "pitch": 36, "duration": 147, "velocity": 96}, {"time": 246718, "pitch": 36, "duration": 179, "velocity": 96}, {"time": 246958, "pitch": 35, "duration": 198, "velocity": 96}, {"time": 247198, "pitch": 36, "duration": 160, "velocity": 96}, {"time": 247438, "pitch": 35, "duration": 256, "velocity": 96}, {"time": 247678, "pitch": 36, "duration": 243, "velocity": 96}, {"time": 247918, "pitch": 38, "duration": 185, "velocity": 96}, {"time": 248157, "pitch": 31, "duration": 5277, "velocity": 98}], "annotations": [{"time": 240, "annotation": {"number": 7, "value": 120}, "group": "control_change"}, {"time": 258, "annotation": {"number": 11, "value": 110}, "group": "control_change"}, {"time": 277, "annotation": {"number": 10, "value": 64}, "group": "control_change"}, {"time": 295, "annotation": {"number": 91, "value": 0}, "group": "control_change"}, {"time": 314, "annotation": {"number": 93, "value": 0}, "group": "control_change"}, {"time": 332, "annotation": {"number": 101, "value": 0}, "group": "control_change"}, {"time": 350, "annotation": {"number": 100, "value": 0}, "group": "control_change"}, {"time": 369, "annotation": {"number": 6, "value": 12}, "group": "control_change"}, {"time": 387, "annotation": {"number": 101, "value": 127}, "group": "control_change"}, {"time": 406, "annotation": {"number": 100, "value": 127}, "group": "control_change"}]}, {"program": 0, "is_drum": false, "name": "E.G PANING", "annotations": [{"time": 184, "annotation": {"number": 0, "value": 0}, "group": "control_change"}, {"time": 203, "annotation": {"number": 32, "value": 2}, "group": "control_change"}]}, {"program": 29, "is_drum": false, "name": "E.G PANING", "notes": [{"time": 2382, "pitch": 62, "duration": 1152, "velocity": 127}, {"time": 2397, "pitch": 67, "duration": 1009, "velocity": 112}, {"time": 2420, "pitch": 55, "duration": 620, "velocity": 127}, {"time": 2660, "pitch": 55, "duration": 380, "velocity": 125}, {"time": 2900, "pitch": 55, "duration": 140, "velocity": 123}, {"time": 3140, "pitch": 55, "duration": 140, "velocity": 121}, {"time": 3570, "pitch": 79, "duration": 755, "velocity": 127}, {"time": 3597, "pitch": 79, "duration": 728, "velocity": 118}, {"time": 3658, "pitch": 74, "duration": 692, "velocity": 127}, {"time": 4436, "pitch": 74, "duration": 1184, "velocity": 118}, {"time": 4517, "pitch": 55, "duration": 1002, "velocity": 122}, {"time": 4517, "pitch": 74, "duration": 1103, "velocity": 127}, {"time": 5466, "pitch": 55, "duration": 53, "velocity": 115}, {"time": 5622, "pitch": 62, "duration": 140, "velocity": 115}, {"time": 5706, "pitch": 55, "duration": 134, "velocity": 113}, {"time": 5714, "pitch": 55, "duration": 126, "velocity": 93}, {"time": 5881, "pitch": 62, "duration": 108, "velocity": 93}, {"time": 5946, "pitch": 55, "duration": 134, "velocity": 111}, {"time": 5954, "pitch": 55, "duration": 126, "velocity": 91}, {"time": 5976, "pitch": 62, "duration": 13, "velocity": 122}, {"time": 6186, "pitch": 55, "duration": 134, "velocity": 89}, {"time": 6194, "pitch": 55, "duration": 126, "velocity": 69}, {"time": 6216, "pitch": 62, "duration": 105, "velocity": 100}, {"time": 6395, "pitch": 71, "duration": 438, "velocity": 119}, {"time": 6400, "pitch": 74, "duration": 231, "velocity": 97}, {"time": 6434, "pitch": 55, "duration": 129, "velocity": 67}, {"time": 6456, "pitch": 62, "duration": 105, "velocity": 98}, {"time": 6489, "pitch": 71, "duration": 344, "velocity": 122}, {"time": 6635, "pitch": 71, "duration": 198, "velocity": 100}, {"time": 6640, "pitch": 74, "duration": 230, "velocity": 95}, {"time": 6696, "pitch": 62, "duration": 104, "velocity": 96}, {"time": 6729, "pitch": 71, "duration": 104, "velocity": 120}, {"time": 6874, "pitch": 71, "duration": 154, "velocity": 98}, {"time": 6879, "pitch": 74, "duration": 231, "velocity": 93}, {"time": 6923, "pitch": 71, "duration": 105, "velocity": 102}, {"time": 6927, "pitch": 67, "duration": 181, "velocity": 118}, {"time": 6968, "pitch": 71, "duration": 60, "velocity": 118}, {"time": 6988, "pitch": 67, "duration": 120, "velocity": 127}, {"time": 7114, "pitch": 71, "duration": 92, "velocity": 96}, {"time": 7119, "pitch": 74, "duration": 231, "velocity": 91}, {"time": 7163, "pitch": 71, "duration": 43, "velocity": 100}, {"time": 7167, "pitch": 67, "duration": 181, "velocity": 98}, {"time": 7208, "pitch": 71, "duration": 60, "velocity": 116}, {"time": 7228, "pitch": 67, "duration": 120, "velocity": 125}, {"time": 7395, "pitch": 62, "duration": 595, "velocity": 124}, {"time": 7401, "pitch": 67, "duration": 187, "velocity": 108}, {"time": 7403, "pitch": 71, "duration": 43, "velocity": 98}, {"time": 7407, "pitch": 67, "duration": 181, "velocity": 96}, {"time": 7423, "pitch": 62, "duration": 567, "velocity": 127}, {"time": 7468, "pitch": 67, "duration": 120, "velocity": 123}, {"time": 7635, "pitch": 62, "duration": 355, "velocity": 95}, {"time": 7641, "pitch": 67, "duration": 112, "velocity": 106}, {"time": 7643, "pitch": 71, "duration": 43, "velocity": 96}, {"time": 7647, "pitch": 67, "duration": 106, "velocity": 94}, {"time": 7663, "pitch": 62, "duration": 327, "velocity": 126}, {"time": 7674, "pitch": 74, "duration": 607, "velocity": 95}, {"time": 7674, "pitch": 79, "duration": 583, "velocity": 105}, {"time": 7674, "pitch": 83, "duration": 637, "velocity": 98}, {"time": 7674, "pitch": 83, "duration": 637, "velocity": 98}, {"time": 7709, "pitch": 67, "duration": 44, "velocity": 121}, {"time": 7880, "pitch": 62, "duration": 110, "velocity": 93}, {"time": 7886, "pitch": 67, "duration": 113, "velocity": 104}, {"time": 7909, "pitch": 62, "duration": 81, "velocity": 124}, {"time": 7920, "pitch": 74, "duration": 361, "velocity": 93}, {"time": 7920, "pitch": 79, "duration": 337, "velocity": 103}, {"time": 7920, "pitch": 83, "duration": 391, "velocity": 96}, {"time": 7920, "pitch": 83, "duration": 391, "velocity": 96}, {"time": 7948, "pitch": 55, "duration": 534, "velocity": 78}, {"time": 8155, "pitch": 62, "duration": 79, "velocity": 122}, {"time": 8166, "pitch": 59, "duration": 120, "velocity": 66}, {"time": 8166, "pitch": 62, "duration": 68, "velocity": 74}, {"time": 8166, "pitch": 67, "duration": 77, "velocity": 83}, {"time": 8166, "pitch": 71, "duration": 237, "velocity": 104}, {"time": 8166, "pitch": 74, "duration": 115, "velocity": 99}, {"time": 8166, "pitch": 74, "duration": 115, "velocity": 110}, {"time": 8166, "pitch": 79, "duration": 91, "velocity": 89}, {"time": 8166, "pitch": 83, "duration": 145, "velocity": 102}, {"time": 8166, "pitch": 83, "duration": 145, "velocity": 102}, {"time": 8286, "pitch": 59, "duration": 120, "velocity": 69}, {"time": 8286, "pitch": 62, "duration": 34, "velocity": 70}, {"time": 8286, "pitch": 67, "duration": 120, "velocity": 74}, {"time": 8286, "pitch": 67, "duration": 120, "velocity": 113}, {"time": 8406, "pitch": 59, "duration": 120, "velocity": 65}, {"time": 8406, "pitch": 62, "duration": 68, "velocity": 70}, {"time": 8406, "pitch": 67, "duration": 120, "velocity": 81}, {"time": 8406, "pitch": 74, "duration": 115, "velocity": 97}, {"time": 8406, "pitch": 74, "duration": 115, "velocity": 110}, {"time": 8406, "pitch": 79, "duration": 91, "velocity": 107}, {"time": 8406, "pitch": 83, "duration": 145, "velocity": 100}, {"time": 8406, "pitch": 83, "duration": 145, "velocity": 100}, {"time": 8526, "pitch": 59, "duration": 120, "velocity": 60}, {"time": 8526, "pitch": 62, "duration": 34, "velocity": 68}, {"time": 8526, "pitch": 67, "duration": 57, "velocity": 73}, {"time": 8526, "pitch": 67, "duration": 57, "velocity": 111}, {"time": 8646, "pitch": 59, "duration": 120, "velocity": 61}, {"time": 8646, "pitch": 62, "duration": 120, "velocity": 69}, {"time": 8646, "pitch": 67, "duration": 120, "velocity": 79}, {"time": 8646, "pitch": 74, "duration": 115, "velocity": 108}, {"time": 8766, "pitch": 59, "duration": 120, "velocity": 72}, {"time": 8766, "pitch": 62, "duration": 34, "velocity": 70}, {"time": 8766, "pitch": 67, "duration": 57, "velocity": 78}, {"time": 8766, "pitch": 67, "duration": 57, "velocity": 109}, {"time": 8886, "pitch": 59, "duration": 120, "velocity": 70}, {"time": 8886, "pitch": 62, "duration": 120, "velocity": 67}, {"time": 8886, "pitch": 67, "duration": 120, "velocity": 73}, {"time": 8886, "pitch": 74, "duration": 115, "velocity": 106}, {"time": 9006, "pitch": 59, "duration": 120, "velocity": 65}, {"time": 9006, "pitch": 62, "duration": 120, "velocity": 72}, {"time": 9006, "pitch": 67, "duration": 57, "velocity": 73}, {"time": 9126, "pitch": 59, "duration": 119, "velocity": 62}, {"time": 9126, "pitch": 62, "duration": 119, "velocity": 70}, {"time": 9126, "pitch": 67, "duration": 119, "velocity": 77}, {"time": 9126, "pitch": 74, "duration": 385, "velocity": 104}, {"time": 9245, "pitch": 59, "duration": 120, "velocity": 57}, {"time": 9245, "pitch": 62, "duration": 120, "velocity": 75}, {"time": 9245, "pitch": 67, "duration": 120, "velocity": 75}, {"time": 9365, "pitch": 59, "duration": 120, "velocity": 66}, {"time": 9365, "pitch": 62, "duration": 120, "velocity": 74}, {"time": 9365, "pitch": 67, "duration": 120, "velocity": 83}, {"time": 9365, "pitch": 79, "duration": 877, "velocity": 121}, {"time": 9485, "pitch": 59, "duration": 120, "velocity": 69}, {"time": 9485, "pitch": 62, "duration": 120, "velocity": 70}, {"time": 9485, "pitch": 67, "duration": 120, "velocity": 74}, {"time": 9605, "pitch": 59, "duration": 120, "velocity": 65}, {"time": 9605, "pitch": 62, "duration": 120, "velocity": 70}, {"time": 9605, "pitch": 67, "duration": 120, "velocity": 81}, {"time": 9605, "pitch": 79, "duration": 637, "velocity": 119}, {"time": 9725, "pitch": 59, "duration": 120, "velocity": 60}, {"time": 9725, "pitch": 62, "duration": 120, "velocity": 68}, {"time": 9725, "pitch": 67, "duration": 120, "velocity": 73}, {"time": 9845, "pitch": 59, "duration": 120, "velocity": 61}, {"time": 9845, "pitch": 62, "duration": 120, "velocity": 69}, {"time": 9845, "pitch": 67, "duration": 120, "velocity": 79}, {"time": 9845, "pitch": 79, "duration": 397, "velocity": 117}, {"time": 9965, "pitch": 59, "duration": 120, "velocity": 72}, {"time": 9965, "pitch": 62, "duration": 120, "velocity": 70}, {"time": 9965, "pitch": 67, "duration": 120, "velocity": 78}, {"time": 10126, "pitch": 67, "duration": 783, "velocity": 106}, {"time": 10135, "pitch": 55, "duration": 938, "velocity": 107}, {"time": 10136, "pitch": 62, "duration": 902, "velocity": 88}, {"time": 10366, "pitch": 67, "duration": 543, "velocity": 104}, {"time": 10375, "pitch": 55, "duration": 698, "velocity": 105}, {"time": 10376, "pitch": 62, "duration": 662, "velocity": 86}, {"time": 10508, "pitch": 83, "duration": 250, "velocity": 71}, {"time": 10606, "pitch": 67, "duration": 303, "velocity": 102}, {"time": 10615, "pitch": 55, "duration": 458, "velocity": 103}, {"time": 10616, "pitch": 62, "duration": 422, "velocity": 84}, {"time": 10845, "pitch": 67, "duration": 64, "velocity": 100}, {"time": 10854, "pitch": 55, "duration": 219, "velocity": 101}, {"time": 10855, "pitch": 62, "duration": 183, "velocity": 82}, {"time": 11233, "pitch": 59, "duration": 670, "velocity": 115}, {"time": 11234, "pitch": 67, "duration": 155, "velocity": 99}, {"time": 11277, "pitch": 79, "duration": 815, "velocity": 106}, {"time": 11473, "pitch": 59, "duration": 430, "velocity": 113}, {"time": 11474, "pitch": 67, "duration": 155, "velocity": 97}, {"time": 11517, "pitch": 79, "duration": 575, "velocity": 104}, {"time": 11713, "pitch": 59, "duration": 190, "velocity": 111}, {"time": 11714, "pitch": 67, "duration": 425, "velocity": 95}, {"time": 11757, "pitch": 79, "duration": 335, "velocity": 102}, {"time": 11953, "pitch": 59, "duration": 190, "velocity": 109}, {"time": 11954, "pitch": 67, "duration": 185, "velocity": 93}, {"time": 11997, "pitch": 79, "duration": 95, "velocity": 100}, {"time": 12128, "pitch": 74, "duration": 1370, "velocity": 100}, {"time": 12230, "pitch": 55, "duration": 1006, "velocity": 98}, {"time": 12230, "pitch": 62, "duration": 1292, "velocity": 115}, {"time": 12367, "pitch": 74, "duration": 1131, "velocity": 98}, {"time": 12470, "pitch": 55, "duration": 766, "velocity": 96}, {"time": 12470, "pitch": 62, "duration": 1052, "velocity": 113}, {"time": 12607, "pitch": 74, "duration": 891, "velocity": 96}, {"time": 12710, "pitch": 55, "duration": 526, "velocity": 94}, {"time": 12710, "pitch": 62, "duration": 812, "velocity": 111}, {"time": 12847, "pitch": 74, "duration": 651, "velocity": 94}, {"time": 12950, "pitch": 55, "duration": 286, "velocity": 92}, {"time": 12950, "pitch": 62, "duration": 572, "velocity": 109}, {"time": 13922, "pitch": 59, "duration": 120, "velocity": 94}, {"time": 13922, "pitch": 62, "duration": 79, "velocity": 115}, {"time": 13922, "pitch": 67, "duration": 120, "velocity": 86}, {"time": 13968, "pitch": 62, "duration": 33, "velocity": 127}, {"time": 14042, "pitch": 59, "duration": 120, "velocity": 107}, {"time": 14042, "pitch": 62, "duration": 120, "velocity": 106}, {"time": 14042, "pitch": 67, "duration": 120, "velocity": 94}, {"time": 14162, "pitch": 59, "duration": 120, "velocity": 92}, {"time": 14162, "pitch": 62, "duration": 79, "velocity": 110}, {"time": 14162, "pitch": 62, "duration": 79, "velocity": 113}, {"time": 14162, "pitch": 67, "duration": 120, "velocity": 84}, {"time": 14162, "pitch": 67, "duration": 120, "velocity": 103}, {"time": 14202, "pitch": 83, "duration": 144, "velocity": 95}, {"time": 14208, "pitch": 62, "duration": 33, "velocity": 127}, {"time": 14282, "pitch": 59, "duration": 120, "velocity": 105}, {"time": 14282, "pitch": 62, "duration": 90, "velocity": 104}, {"time": 14282, "pitch": 67, "duration": 120, "velocity": 92}, {"time": 14392, "pitch": 59, "duration": 10, "velocity": 94}, {"time": 14392, "pitch": 62, "duration": 10, "velocity": 115}, {"time": 14392, "pitch": 67, "duration": 10, "velocity": 86}, {"time": 14402, "pitch": 59, "duration": 110, "velocity": 90}, {"time": 14402, "pitch": 62, "duration": 110, "velocity": 108}, {"time": 14402, "pitch": 62, "duration": 110, "velocity": 111}, {"time": 14402, "pitch": 67, "duration": 110, "velocity": 82}, {"time": 14402, "pitch": 67, "duration": 110, "velocity": 101}, {"time": 14442, "pitch": 83, "duration": 144, "velocity": 93}, {"time": 14512, "pitch": 59, "duration": 10, "velocity": 107}, {"time": 14512, "pitch": 62, "duration": 10, "velocity": 106}, {"time": 14512, "pitch": 67, "duration": 10, "velocity": 94}, {"time": 14522, "pitch": 59, "duration": 110, "velocity": 103}, {"time": 14522, "pitch": 62, "duration": 90, "velocity": 102}, {"time": 14522, "pitch": 67, "duration": 110, "velocity": 90}, {"time": 14632, "pitch": 59, "duration": 10, "velocity": 92}, {"time": 14632, "pitch": 62, "duration": 10, "velocity": 110}, {"time": 14632, "pitch": 62, "duration": 10, "velocity": 113}, {"time": 14632, "pitch": 67, "duration": 10, "velocity": 84}, {"time": 14632, "pitch": 67, "duration": 10, "velocity": 103}, {"time": 14642, "pitch": 59, "duration": 110, "velocity": 88}, {"time": 14642, "pitch": 62, "duration": 110, "velocity": 106}, {"time": 14642, "pitch": 62, "duration": 110, "velocity": 109}, {"time": 14642, "pitch": 67, "duration": 110, "velocity": 80}, {"time": 14642, "pitch": 67, "duration": 110, "velocity": 99}, {"time": 14675, "pitch": 83, "duration": 122, "velocity": 66}, {"time": 14682, "pitch": 83, "duration": 115, "velocity": 91}, {"time": 14752, "pitch": 59, "duration": 10, "velocity": 105}, {"time": 14752, "pitch": 62, "duration": 10, "velocity": 104}, {"time": 14752, "pitch": 67, "duration": 10, "velocity": 92}, {"time": 14762, "pitch": 59, "duration": 110, "velocity": 101}, {"time": 14762, "pitch": 62, "duration": 110, "velocity": 100}, {"time": 14762, "pitch": 67, "duration": 110, "velocity": 88}, {"time": 14872, "pitch": 59, "duration": 10, "velocity": 90}, {"time": 14872, "pitch": 59, "duration": 10, "velocity": 94}, {"time": 14872, "pitch": 62, "duration": 10, "velocity": 108}, {"time": 14872, "pitch": 62, "duration": 10, "velocity": 111}, {"time": 14872, "pitch": 62, "duration": 10, "velocity": 115}, {"time": 14872, "pitch": 67, "duration": 10, "velocity": 82}, {"time": 14872, "pitch": 67, "duration": 10, "velocity": 86}, {"time": 14872, "pitch": 67, "duration": 10, "velocity": 101}, {"time": 14882, "pitch": 62, "duration": 110, "velocity": 104}, {"time": 14882, "pitch": 67, "duration": 110, "velocity": 97}, {"time": 14915, "pitch": 83, "duration": 122, "velocity": 64}, {"time": 14922, "pitch": 83, "duration": 115, "velocity": 89}, {"time": 14992, "pitch": 59, "duration": 120, "velocity": 103}, {"time": 14992, "pitch": 59, "duration": 120, "velocity": 107}, {"time": 14992, "pitch": 62, "duration": 120, "velocity": 102}, {"time": 14992, "pitch": 62, "duration": 120, "velocity": 106}, {"time": 14992, "pitch": 67, "duration": 120, "velocity": 90}, {"time": 14992, "pitch": 67, "duration": 120, "velocity": 94}, {"time": 15112, "pitch": 59, "duration": 119, "velocity": 88}, {"time": 15112, "pitch": 59, "duration": 119, "velocity": 92}, {"time": 15112, "pitch": 62, "duration": 10, "velocity": 106}, {"time": 15112, "pitch": 62, "duration": 10, "velocity": 109}, {"time": 15112, "pitch": 62, "duration": 10, "velocity": 110}, {"time": 15112, "pitch": 62, "duration": 10, "velocity": 113}, {"time": 15112, "pitch": 67, "duration": 10, "velocity": 80}, {"time": 15112, "pitch": 67, "duration": 10, "velocity": 84}, {"time": 15112, "pitch": 67, "duration": 10, "velocity": 99}, {"time": 15112, "pitch": 67, "duration": 10, "velocity": 103}, {"time": 15116, "pitch": 83, "duration": 121, "velocity": 66}, {"time": 15155, "pitch": 83, "duration": 82, "velocity": 62}, {"time": 15231, "pitch": 59, "duration": 120, "velocity": 101}, {"time": 15231, "pitch": 59, "duration": 120, "velocity": 105}, {"time": 15231, "pitch": 62, "duration": 120, "velocity": 100}, {"time": 15231, "pitch": 62, "duration": 120, "velocity": 104}, {"time": 15231, "pitch": 67, "duration": 120, "velocity": 88}, {"time": 15231, "pitch": 67, "duration": 120, "velocity": 92}, {"time": 15351, "pitch": 59, "duration": 120, "velocity": 90}, {"time": 15351, "pitch": 59, "duration": 120, "velocity": 94}, {"time": 15351, "pitch": 62, "duration": 120, "velocity": 104}, {"time": 15351, "pitch": 62, "duration": 120, "velocity": 108}, {"time": 15351, "pitch": 62, "duration": 120, "velocity": 111}, {"time": 15351, "pitch": 62, "duration": 120, "velocity": 115}, {"time": 15351, "pitch": 67, "duration": 120, "velocity": 82}, {"time": 15351, "pitch": 67, "duration": 120, "velocity": 86}, {"time": 15351, "pitch": 67, "duration": 120, "velocity": 97}, {"time": 15351, "pitch": 67, "duration": 120, "velocity": 101}, {"time": 15355, "pitch": 83, "duration": 122, "velocity": 64}, {"time": 15394, "pitch": 83, "duration": 83, "velocity": 60}, {"time": 15471, "pitch": 59, "duration": 120, "velocity": 103}, {"time": 15471, "pitch": 59, "duration": 120, "velocity": 107}, {"time": 15471, "pitch": 62, "duration": 120, "velocity": 102}, {"time": 15471, "pitch": 62, "duration": 120, "velocity": 106}, {"time": 15471, "pitch": 67, "duration": 120, "velocity": 90}, {"time": 15471, "pitch": 67, "duration": 120, "velocity": 94}, {"time": 15586, "pitch": 83, "duration": 131, "velocity": 66}, {"time": 15591, "pitch": 59, "duration": 120, "velocity": 88}, {"time": 15591, "pitch": 59, "duration": 120, "velocity": 92}, {"time": 15591, "pitch": 62, "duration": 120, "velocity": 106}, {"time": 15591, "pitch": 62, "duration": 120, "velocity": 109}, {"time": 15591, "pitch": 62, "duration": 120, "velocity": 110}, {"time": 15591, "pitch": 62, "duration": 120, "velocity": 113}, {"time": 15591, "pitch": 67, "duration": 120, "velocity": 80}, {"time": 15591, "pitch": 67, "duration": 120, "velocity": 84}, {"time": 15591, "pitch": 67, "duration": 120, "velocity": 99}, {"time": 15591, "pitch": 67, "duration": 120, "velocity": 103}, {"time": 15595, "pitch": 83, "duration": 122, "velocity": 62}, {"time": 15711, "pitch": 59, "duration": 120, "velocity": 101}, {"time": 15711, "pitch": 59, "duration": 120, "velocity": 105}, {"time": 15711, "pitch": 62, "duration": 120, "velocity": 100}, {"time": 15711, "pitch": 62, "duration": 120, "velocity": 104}, {"time": 15711, "pitch": 67, "duration": 120, "velocity": 88}, {"time": 15711, "pitch": 67, "duration": 120, "velocity": 92}, {"time": 15813, "pitch": 59, "duration": 18, "velocity": 101}, {"time": 15813, "pitch": 59, "duration": 18, "velocity": 105}, {"time": 15813, "pitch": 62, "duration": 18, "velocity": 119}, {"time": 15813, "pitch": 62, "duration": 18, "velocity": 122}, {"time": 15813, "pitch": 62, "duration": 18, "velocity": 126}, {"time": 15813, "pitch": 67, "duration": 18, "velocity": 93}, {"time": 15813, "pitch": 67, "duration": 18, "velocity": 97}, {"time": 15813, "pitch": 67, "duration": 18, "velocity": 112}, {"time": 15855, "pitch": 83, "duration": 122, "velocity": 66}, {"time": 15863, "pitch": 83, "duration": 114, "velocity": 91}, {"time": 15933, "pitch": 59, "duration": 120, "velocity": 114}, {"time": 15933, "pitch": 59, "duration": 120, "velocity": 118}, {"time": 15933, "pitch": 62, "duration": 61, "velocity": 113}, {"time": 15933, "pitch": 62, "duration": 61, "velocity": 117}, {"time": 15933, "pitch": 67, "duration": 52, "velocity": 101}, {"time": 15933, "pitch": 67, "duration": 52, "velocity": 105}, {"time": 16053, "pitch": 59, "duration": 120, "velocity": 99}, {"time": 16053, "pitch": 59, "duration": 120, "velocity": 103}, {"time": 16053, "pitch": 62, "duration": 120, "velocity": 117}, {"time": 16053, "pitch": 62, "duration": 120, "velocity": 120}, {"time": 16053, "pitch": 62, "duration": 120, "velocity": 121}, {"time": 16053, "pitch": 62, "duration": 120, "velocity": 124}, {"time": 16053, "pitch": 67, "duration": 120, "velocity": 91}, {"time": 16053, "pitch": 67, "duration": 120, "velocity": 95}, {"time": 16053, "pitch": 67, "duration": 120, "velocity": 110}, {"time": 16053, "pitch": 67, "duration": 120, "velocity": 114}, {"time": 16057, "pitch": 83, "duration": 122, "velocity": 68}, {"time": 16095, "pitch": 83, "duration": 84, "velocity": 64}, {"time": 16173, "pitch": 59, "duration": 120, "velocity": 112}, {"time": 16173, "pitch": 59, "duration": 120, "velocity": 116}, {"time": 16173, "pitch": 62, "duration": 120, "velocity": 111}, {"time": 16173, "pitch": 62, "duration": 120, "velocity": 115}, {"time": 16173, "pitch": 67, "duration": 120, "velocity": 99}, {"time": 16173, "pitch": 67, "duration": 120, "velocity": 103}, {"time": 16311, "pitch": 59, "duration": 120, "velocity": 87}, {"time": 16311, "pitch": 62, "duration": 120, "velocity": 101}, {"time": 16311, "pitch": 62, "duration": 120, "velocity": 105}, {"time": 16311, "pitch": 62, "duration": 120, "velocity": 108}, {"time": 16311, "pitch": 67, "duration": 120, "velocity": 79}, {"time": 16311, "pitch": 67, "duration": 120, "velocity": 94}, {"time": 16311, "pitch": 67, "duration": 120, "velocity": 98}, {"time": 16312, "pitch": 83, "duration": 446, "velocity": 66}, {"time": 16321, "pitch": 59, "duration": 110, "velocity": 115}, {"time": 16321, "pitch": 62, "duration": 110, "velocity": 113}, {"time": 16321, "pitch": 67, "duration": 110, "velocity": 105}, {"time": 16431, "pitch": 59, "duration": 120, "velocity": 100}, {"time": 16431, "pitch": 62, "duration": 120, "velocity": 99}, {"time": 16431, "pitch": 67, "duration": 120, "velocity": 87}, {"time": 16551, "pitch": 59, "duration": 120, "velocity": 85}, {"time": 16551, "pitch": 62, "duration": 120, "velocity": 103}, {"time": 16551, "pitch": 62, "duration": 120, "velocity": 106}, {"time": 16551, "pitch": 67, "duration": 120, "velocity": 77}, {"time": 16551, "pitch": 67, "duration": 120, "velocity": 96}, {"time": 16552, "pitch": 83, "duration": 206, "velocity": 64}, {"time": 16561, "pitch": 59, "duration": 110, "velocity": 113}, {"time": 16561, "pitch": 62, "duration": 110, "velocity": 111}, {"time": 16561, "pitch": 67, "duration": 110, "velocity": 103}, {"time": 16671, "pitch": 59, "duration": 119, "velocity": 98}, {"time": 16671, "pitch": 62, "duration": 42, "velocity": 97}, {"time": 16671, "pitch": 67, "duration": 34, "velocity": 85}, {"time": 16790, "pitch": 62, "duration": 163, "velocity": 99}, {"time": 16790, "pitch": 67, "duration": 154, "velocity": 92}, {"time": 16791, "pitch": 83, "duration": 207, "velocity": 60}, {"time": 16800, "pitch": 59, "duration": 452, "velocity": 109}, {"time": 16800, "pitch": 62, "duration": 153, "velocity": 107}, {"time": 16800, "pitch": 67, "duration": 144, "velocity": 99}, {"time": 17040, "pitch": 59, "duration": 212, "velocity": 107}, {"time": 17040, "pitch": 62, "duration": 153, "velocity": 105}, {"time": 17040, "pitch": 67, "duration": 144, "velocity": 97}, {"time": 17520, "pitch": 48, "duration": 383, "velocity": 96}, {"time": 17520, "pitch": 55, "duration": 393, "velocity": 117}, {"time": 48245, "pitch": 55, "duration": 128, "velocity": 106}, {"time": 48245, "pitch": 59, "duration": 148, "velocity": 80}, {"time": 48245, "pitch": 62, "duration": 119, "velocity": 79}, {"time": 48245, "pitch": 67, "duration": 137, "velocity": 69}, {"time": 48245, "pitch": 67, "duration": 137, "velocity": 69}, {"time": 48485, "pitch": 55, "duration": 365, "velocity": 120}, {"time": 48485, "pitch": 59, "duration": 381, "velocity": 91}, {"time": 48485, "pitch": 62, "duration": 372, "velocity": 112}, {"time": 48485, "pitch": 67, "duration": 410, "velocity": 85}, {"time": 48964, "pitch": 55, "duration": 304, "velocity": 115}, {"time": 48964, "pitch": 59, "duration": 334, "velocity": 97}, {"time": 48964, "pitch": 62, "duration": 321, "velocity": 102}, {"time": 48964, "pitch": 67, "duration": 242, "velocity": 81}, {"time": 48964, "pitch": 67, "duration": 242, "velocity": 118}, {"time": 49444, "pitch": 55, "duration": 310, "velocity": 84}, {"time": 49444, "pitch": 59, "duration": 282, "velocity": 83}, {"time": 49444, "pitch": 62, "duration": 254, "velocity": 91}, {"time": 49444, "pitch": 67, "duration": 226, "velocity": 73}, {"time": 49444, "pitch": 67, "duration": 226, "velocity": 112}, {"time": 49924, "pitch": 55, "duration": 174, "velocity": 93}, {"time": 49924, "pitch": 59, "duration": 170, "velocity": 81}, {"time": 49924, "pitch": 62, "duration": 157, "velocity": 85}, {"time": 49924, "pitch": 67, "duration": 120, "velocity": 72}, {"time": 49924, "pitch": 67, "duration": 120, "velocity": 112}, {"time": 50163, "pitch": 55, "duration": 337, "velocity": 84}, {"time": 50163, "pitch": 59, "duration": 351, "velocity": 85}, {"time": 50163, "pitch": 62, "duration": 330, "velocity": 96}, {"time": 50163, "pitch": 67, "duration": 207, "velocity": 74}, {"time": 50163, "pitch": 67, "duration": 207, "velocity": 88}, {"time": 50643, "pitch": 55, "duration": 443, "velocity": 73}, {"time": 50643, "pitch": 59, "duration": 425, "velocity": 82}, {"time": 50643, "pitch": 62, "duration": 411, "velocity": 89}, {"time": 50643, "pitch": 67, "duration": 270, "velocity": 84}, {"time": 50643, "pitch": 67, "duration": 270, "velocity": 107}, {"time": 51123, "pitch": 55, "duration": 139, "velocity": 106}, {"time": 51123, "pitch": 59, "duration": 138, "velocity": 86}, {"time": 51123, "pitch": 62, "duration": 122, "velocity": 106}, {"time": 51123, "pitch": 67, "duration": 102, "velocity": 89}, {"time": 51123, "pitch": 67, "duration": 102, "velocity": 105}, {"time": 51363, "pitch": 55, "duration": 127, "velocity": 102}, {"time": 51363, "pitch": 59, "duration": 144, "velocity": 97}, {"time": 51363, "pitch": 62, "duration": 119, "velocity": 110}, {"time": 51363, "pitch": 67, "duration": 116, "velocity": 93}, {"time": 51363, "pitch": 67, "duration": 116, "velocity": 107}, {"time": 51602, "pitch": 55, "duration": 127, "velocity": 98}, {"time": 51602, "pitch": 59, "duration": 130, "velocity": 86}, {"time": 51602, "pitch": 62, "duration": 101, "velocity": 108}, {"time": 51602, "pitch": 67, "duration": 96, "velocity": 82}, {"time": 51602, "pitch": 67, "duration": 96, "velocity": 83}, {"time": 51842, "pitch": 55, "duration": 122, "velocity": 81}, {"time": 51842, "pitch": 59, "duration": 139, "velocity": 91}, {"time": 51842, "pitch": 62, "duration": 111, "velocity": 110}, {"time": 51842, "pitch": 67, "duration": 107, "velocity": 82}, {"time": 51842, "pitch": 67, "duration": 107, "velocity": 112}, {"time": 51962, "pitch": 55, "duration": 2, "velocity": 73}, {"time": 52082, "pitch": 59, "duration": 128, "velocity": 86}, {"time": 52082, "pitch": 62, "duration": 98, "velocity": 102}, {"time": 52082, "pitch": 67, "duration": 93, "velocity": 84}, {"time": 52082, "pitch": 67, "duration": 93, "velocity": 105}, {"time": 52202, "pitch": 55, "duration": 396, "velocity": 84}, {"time": 52322, "pitch": 59, "duration": 395, "velocity": 103}, {"time": 52322, "pitch": 62, "duration": 382, "velocity": 125}, {"time": 52322, "pitch": 67, "duration": 271, "velocity": 98}, {"time": 52322, "pitch": 67, "duration": 271, "velocity": 117}, {"time": 52802, "pitch": 55, "duration": 303, "velocity": 115}, {"time": 52802, "pitch": 59, "duration": 327, "velocity": 105}, {"time": 52802, "pitch": 62, "duration": 290, "velocity": 102}, {"time": 52802, "pitch": 67, "duration": 223, "velocity": 91}, {"time": 52802, "pitch": 67, "duration": 223, "velocity": 112}, {"time": 53281, "pitch": 55, "duration": 306, "velocity": 81}, {"time": 53281, "pitch": 59, "duration": 309, "velocity": 84}, {"time": 53281, "pitch": 62, "duration": 236, "velocity": 85}, {"time": 53281, "pitch": 67, "duration": 232, "velocity": 74}, {"time": 53281, "pitch": 67, "duration": 232, "velocity": 118}, {"time": 53761, "pitch": 55, "duration": 179, "velocity": 81}, {"time": 53761, "pitch": 59, "duration": 133, "velocity": 76}, {"time": 53761, "pitch": 62, "duration": 101, "velocity": 79}, {"time": 53761, "pitch": 67, "duration": 121, "velocity": 66}, {"time": 53761, "pitch": 67, "duration": 121, "velocity": 105}, {"time": 54001, "pitch": 55, "duration": 234, "velocity": 81}, {"time": 54001, "pitch": 59, "duration": 292, "velocity": 77}, {"time": 54001, "pitch": 62, "duration": 225, "velocity": 84}, {"time": 54001, "pitch": 67, "duration": 253, "velocity": 72}, {"time": 54001, "pitch": 67, "duration": 253, "velocity": 105}, {"time": 54481, "pitch": 55, "duration": 320, "velocity": 75}, {"time": 54481, "pitch": 59, "duration": 364, "velocity": 87}, {"time": 54481, "pitch": 62, "duration": 290, "velocity": 97}, {"time": 54481, "pitch": 67, "duration": 233, "velocity": 80}, {"time": 54481, "pitch": 67, "duration": 233, "velocity": 80}, {"time": 54481, "pitch": 67, "duration": 233, "velocity": 112}, {"time": 54960, "pitch": 55, "duration": 158, "velocity": 81}, {"time": 54960, "pitch": 59, "duration": 154, "velocity": 78}, {"time": 54960, "pitch": 62, "duration": 114, "velocity": 85}, {"time": 54960, "pitch": 67, "duration": 100, "velocity": 68}, {"time": 54960, "pitch": 67, "duration": 100, "velocity": 112}, {"time": 55200, "pitch": 55, "duration": 148, "velocity": 81}, {"time": 55200, "pitch": 59, "duration": 140, "velocity": 74}, {"time": 55200, "pitch": 62, "duration": 112, "velocity": 82}, {"time": 55200, "pitch": 67, "duration": 102, "velocity": 68}, {"time": 55200, "pitch": 67, "duration": 102, "velocity": 112}, {"time": 55440, "pitch": 55, "duration": 168, "velocity": 84}, {"time": 55440, "pitch": 59, "duration": 156, "velocity": 79}, {"time": 55440, "pitch": 62, "duration": 122, "velocity": 97}, {"time": 55440, "pitch": 67, "duration": 99, "velocity": 62}, {"time": 55440, "pitch": 67, "duration": 99, "velocity": 112}, {"time": 55680, "pitch": 55, "duration": 163, "velocity": 86}, {"time": 55680, "pitch": 59, "duration": 143, "velocity": 74}, {"time": 55680, "pitch": 62, "duration": 124, "velocity": 89}, {"time": 55680, "pitch": 67, "duration": 109, "velocity": 65}, {"time": 55680, "pitch": 67, "duration": 109, "velocity": 112}, {"time": 55920, "pitch": 55, "duration": 155, "velocity": 89}, {"time": 55920, "pitch": 55, "duration": 155, "velocity": 89}, {"time": 55920, "pitch": 59, "duration": 164, "velocity": 86}, {"time": 55920, "pitch": 62, "duration": 145, "velocity": 110}, {"time": 55920, "pitch": 67, "duration": 121, "velocity": 81}, {"time": 55920, "pitch": 67, "duration": 121, "velocity": 112}, {"time": 56159, "pitch": 55, "duration": 320, "velocity": 100}, {"time": 56159, "pitch": 59, "duration": 366, "velocity": 105}, {"time": 56159, "pitch": 62, "duration": 339, "velocity": 119}, {"time": 56159, "pitch": 67, "duration": 322, "velocity": 92}, {"time": 56159, "pitch": 67, "duration": 322, "velocity": 112}, {"time": 56639, "pitch": 55, "duration": 269, "velocity": 86}, {"time": 56639, "pitch": 59, "duration": 290, "velocity": 97}, {"time": 56639, "pitch": 62, "duration": 232, "velocity": 105}, {"time": 56639, "pitch": 67, "duration": 244, "velocity": 78}, {"time": 56639, "pitch": 67, "duration": 244, "velocity": 110}, {"time": 57119, "pitch": 55, "duration": 270, "velocity": 84}, {"time": 57119, "pitch": 59, "duration": 239, "velocity": 97}, {"time": 57119, "pitch": 62, "duration": 183, "velocity": 91}, {"time": 57119, "pitch": 67, "duration": 236, "velocity": 68}, {"time": 57119, "pitch": 67, "duration": 236, "velocity": 112}, {"time": 57598, "pitch": 55, "duration": 165, "velocity": 100}, {"time": 57598, "pitch": 59, "duration": 157, "velocity": 81}, {"time": 57598, "pitch": 62, "duration": 143, "velocity": 89}, {"time": 57598, "pitch": 67, "duration": 144, "velocity": 68}, {"time": 57598, "pitch": 67, "duration": 144, "velocity": 112}, {"time": 57838, "pitch": 55, "duration": 348, "velocity": 72}, {"time": 57838, "pitch": 59, "duration": 357, "velocity": 81}, {"time": 57838, "pitch": 62, "duration": 336, "velocity": 89}, {"time": 57838, "pitch": 67, "duration": 209, "velocity": 64}, {"time": 57838, "pitch": 67, "duration": 209, "velocity": 107}, {"time": 58318, "pitch": 55, "duration": 373, "velocity": 84}, {"time": 58318, "pitch": 59, "duration": 330, "velocity": 77}, {"time": 58318, "pitch": 62, "duration": 308, "velocity": 92}, {"time": 58318, "pitch": 67, "duration": 298, "velocity": 68}, {"time": 58318, "pitch": 67, "duration": 298, "velocity": 112}, {"time": 58798, "pitch": 55, "duration": 169, "velocity": 84}, {"time": 58798, "pitch": 59, "duration": 155, "velocity": 79}, {"time": 58798, "pitch": 62, "duration": 142, "velocity": 85}, {"time": 58798, "pitch": 67, "duration": 93, "velocity": 63}, {"time": 58798, "pitch": 67, "duration": 93, "velocity": 107}, {"time": 59037, "pitch": 55, "duration": 128, "velocity": 96}, {"time": 59037, "pitch": 59, "duration": 165, "velocity": 77}, {"time": 59037, "pitch": 62, "duration": 136, "velocity": 96}, {"time": 59037, "pitch": 67, "duration": 105, "velocity": 75}, {"time": 59037, "pitch": 67, "duration": 105, "velocity": 112}, {"time": 59277, "pitch": 55, "duration": 165, "velocity": 81}, {"time": 59277, "pitch": 59, "duration": 160, "velocity": 74}, {"time": 59277, "pitch": 62, "duration": 129, "velocity": 91}, {"time": 59277, "pitch": 67, "duration": 98, "velocity": 65}, {"time": 59277, "pitch": 67, "duration": 98, "velocity": 105}, {"time": 59517, "pitch": 55, "duration": 155, "velocity": 87}, {"time": 59517, "pitch": 59, "duration": 159, "velocity": 82}, {"time": 59517, "pitch": 62, "duration": 137, "velocity": 100}, {"time": 59517, "pitch": 67, "duration": 100, "velocity": 82}, {"time": 59517, "pitch": 67, "duration": 100, "velocity": 105}, {"time": 59757, "pitch": 55, "duration": 169, "velocity": 98}, {"time": 59757, "pitch": 59, "duration": 188, "velocity": 86}, {"time": 59757, "pitch": 62, "duration": 167, "velocity": 106}, {"time": 59757, "pitch": 67, "duration": 108, "velocity": 82}, {"time": 59757, "pitch": 67, "duration": 108, "velocity": 112}, {"time": 59997, "pitch": 55, "duration": 285, "velocity": 105}, {"time": 59997, "pitch": 59, "duration": 339, "velocity": 91}, {"time": 59997, "pitch": 62, "duration": 286, "velocity": 119}, {"time": 59997, "pitch": 67, "duration": 325, "velocity": 86}, {"time": 59997, "pitch": 67, "duration": 325, "velocity": 112}, {"time": 60477, "pitch": 55, "duration": 302, "velocity": 106}, {"time": 60477, "pitch": 59, "duration": 374, "velocity": 98}, {"time": 60477, "pitch": 62, "duration": 349, "velocity": 112}, {"time": 60477, "pitch": 67, "duration": 248, "velocity": 86}, {"time": 60477, "pitch": 67, "duration": 248, "velocity": 112}, {"time": 60956, "pitch": 55, "duration": 255, "velocity": 78}, {"time": 60956, "pitch": 59, "duration": 279, "velocity": 80}, {"time": 60956, "pitch": 62, "duration": 259, "velocity": 91}, {"time": 60956, "pitch": 67, "duration": 268, "velocity": 72}, {"time": 60956, "pitch": 67, "duration": 268, "velocity": 96}, {"time": 60956, "pitch": 69, "duration": 36, "velocity": 87}, {"time": 61436, "pitch": 55, "duration": 197, "velocity": 81}, {"time": 61436, "pitch": 59, "duration": 189, "velocity": 79}, {"time": 61436, "pitch": 62, "duration": 184, "velocity": 85}, {"time": 61436, "pitch": 67, "duration": 131, "velocity": 74}, {"time": 61436, "pitch": 67, "duration": 131, "velocity": 112}, {"time": 61676, "pitch": 55, "duration": 316, "velocity": 88}, {"time": 61676, "pitch": 59, "duration": 383, "velocity": 75}, {"time": 61676, "pitch": 62, "duration": 359, "velocity": 94}, {"time": 61676, "pitch": 67, "duration": 227, "velocity": 78}, {"time": 61676, "pitch": 67, "duration": 227, "velocity": 96}, {"time": 62155, "pitch": 55, "duration": 338, "velocity": 87}, {"time": 62155, "pitch": 59, "duration": 406, "velocity": 87}, {"time": 62155, "pitch": 62, "duration": 349, "velocity": 94}, {"time": 62155, "pitch": 67, "duration": 260, "velocity": 79}, {"time": 62155, "pitch": 67, "duration": 260, "velocity": 118}, {"time": 62635, "pitch": 55, "duration": 152, "velocity": 94}, {"time": 62635, "pitch": 59, "duration": 149, "velocity": 93}, {"time": 62635, "pitch": 62, "duration": 110, "velocity": 103}, {"time": 62635, "pitch": 67, "duration": 98, "velocity": 86}, {"time": 62635, "pitch": 67, "duration": 98, "velocity": 112}, {"time": 62875, "pitch": 55, "duration": 149, "velocity": 98}, {"time": 62875, "pitch": 55, "duration": 149, "velocity": 98}, {"time": 62875, "pitch": 59, "duration": 161, "velocity": 88}, {"time": 62875, "pitch": 62, "duration": 115, "velocity": 110}, {"time": 62875, "pitch": 67, "duration": 102, "velocity": 84}, {"time": 62875, "pitch": 67, "duration": 102, "velocity": 112}, {"time": 63115, "pitch": 55, "duration": 150, "velocity": 93}, {"time": 63115, "pitch": 55, "duration": 150, "velocity": 93}, {"time": 63115, "pitch": 59, "duration": 152, "velocity": 88}, {"time": 63115, "pitch": 62, "duration": 112, "velocity": 115}, {"time": 63115, "pitch": 67, "duration": 102, "velocity": 87}, {"time": 63115, "pitch": 67, "duration": 102, "velocity": 112}, {"time": 63355, "pitch": 47, "duration": 68, "velocity": 57}, {"time": 63355, "pitch": 48, "duration": 43, "velocity": 56}, {"time": 63355, "pitch": 55, "duration": 143, "velocity": 105}, {"time": 63355, "pitch": 59, "duration": 170, "velocity": 98}, {"time": 63355, "pitch": 62, "duration": 109, "velocity": 115}, {"time": 63355, "pitch": 67, "duration": 115, "velocity": 92}, {"time": 63355, "pitch": 67, "duration": 115, "velocity": 107}, {"time": 63594, "pitch": 55, "duration": 299, "velocity": 97}, {"time": 63594, "pitch": 59, "duration": 313, "velocity": 98}, {"time": 63594, "pitch": 62, "duration": 234, "velocity": 117}, {"time": 63594, "pitch": 67, "duration": 145, "velocity": 91}, {"time": 63594, "pitch": 67, "duration": 145, "velocity": 112}, {"time": 78957, "pitch": 55, "duration": 128, "velocity": 106}, {"time": 78957, "pitch": 59, "duration": 148, "velocity": 80}, {"time": 78957, "pitch": 62, "duration": 119, "velocity": 79}, {"time": 78957, "pitch": 67, "duration": 137, "velocity": 69}, {"time": 78957, "pitch": 67, "duration": 137, "velocity": 69}, {"time": 79197, "pitch": 55, "duration": 365, "velocity": 120}, {"time": 79197, "pitch": 59, "duration": 381, "velocity": 91}, {"time": 79197, "pitch": 62, "duration": 372, "velocity": 112}, {"time": 79197, "pitch": 67, "duration": 410, "velocity": 85}, {"time": 79676, "pitch": 55, "duration": 304, "velocity": 115}, {"time": 79676, "pitch": 59, "duration": 334, "velocity": 97}, {"time": 79676, "pitch": 62, "duration": 321, "velocity": 102}, {"time": 79676, "pitch": 67, "duration": 242, "velocity": 81}, {"time": 79676, "pitch": 67, "duration": 242, "velocity": 118}, {"time": 80156, "pitch": 55, "duration": 310, "velocity": 84}, {"time": 80156, "pitch": 59, "duration": 282, "velocity": 83}, {"time": 80156, "pitch": 62, "duration": 254, "velocity": 91}, {"time": 80156, "pitch": 67, "duration": 226, "velocity": 73}, {"time": 80156, "pitch": 67, "duration": 226, "velocity": 112}, {"time": 80636, "pitch": 55, "duration": 175, "velocity": 93}, {"time": 80636, "pitch": 59, "duration": 171, "velocity": 81}, {"time": 80636, "pitch": 62, "duration": 158, "velocity": 85}, {"time": 80636, "pitch": 67, "duration": 121, "velocity": 72}, {"time": 80636, "pitch": 67, "duration": 121, "velocity": 112}, {"time": 80876, "pitch": 55, "duration": 336, "velocity": 84}, {"time": 80876, "pitch": 59, "duration": 350, "velocity": 85}, {"time": 80876, "pitch": 62, "duration": 329, "velocity": 96}, {"time": 80876, "pitch": 67, "duration": 206, "velocity": 74}, {"time": 80876, "pitch": 67, "duration": 206, "velocity": 88}, {"time": 81355, "pitch": 55, "duration": 443, "velocity": 73}, {"time": 81355, "pitch": 59, "duration": 425, "velocity": 82}, {"time": 81355, "pitch": 62, "duration": 411, "velocity": 89}, {"time": 81355, "pitch": 67, "duration": 270, "velocity": 84}, {"time": 81355, "pitch": 67, "duration": 270, "velocity": 107}, {"time": 81835, "pitch": 55, "duration": 139, "velocity": 106}, {"time": 81835, "pitch": 59, "duration": 138, "velocity": 86}, {"time": 81835, "pitch": 62, "duration": 122, "velocity": 106}, {"time": 81835, "pitch": 67, "duration": 102, "velocity": 89}, {"time": 81835, "pitch": 67, "duration": 102, "velocity": 105}, {"time": 82075, "pitch": 55, "duration": 127, "velocity": 102}, {"time": 82075, "pitch": 59, "duration": 144, "velocity": 97}, {"time": 82075, "pitch": 62, "duration": 119, "velocity": 110}, {"time": 82075, "pitch": 67, "duration": 116, "velocity": 93}, {"time": 82075, "pitch": 67, "duration": 116, "velocity": 107}, {"time": 82315, "pitch": 55, "duration": 126, "velocity": 98}, {"time": 82315, "pitch": 59, "duration": 129, "velocity": 86}, {"time": 82315, "pitch": 62, "duration": 100, "velocity": 108}, {"time": 82315, "pitch": 67, "duration": 95, "velocity": 82}, {"time": 82315, "pitch": 67, "duration": 95, "velocity": 83}, {"time": 82554, "pitch": 55, "duration": 122, "velocity": 81}, {"time": 82554, "pitch": 59, "duration": 139, "velocity": 91}, {"time": 82554, "pitch": 62, "duration": 111, "velocity": 110}, {"time": 82554, "pitch": 67, "duration": 107, "velocity": 82}, {"time": 82554, "pitch": 67, "duration": 107, "velocity": 112}, {"time": 82674, "pitch": 55, "duration": 2, "velocity": 73}, {"time": 82794, "pitch": 59, "duration": 128, "velocity": 86}, {"time": 82794, "pitch": 62, "duration": 98, "velocity": 102}, {"time": 82794, "pitch": 67, "duration": 93, "velocity": 84}, {"time": 82794, "pitch": 67, "duration": 93, "velocity": 105}, {"time": 82914, "pitch": 55, "duration": 396, "velocity": 84}, {"time": 83034, "pitch": 59, "duration": 395, "velocity": 103}, {"time": 83034, "pitch": 62, "duration": 382, "velocity": 125}, {"time": 83034, "pitch": 67, "duration": 271, "velocity": 98}, {"time": 83034, "pitch": 67, "duration": 271, "velocity": 117}, {"time": 83514, "pitch": 55, "duration": 312, "velocity": 115}, {"time": 83514, "pitch": 59, "duration": 336, "velocity": 105}, {"time": 83514, "pitch": 62, "duration": 298, "velocity": 102}, {"time": 83514, "pitch": 67, "duration": 229, "velocity": 91}, {"time": 83514, "pitch": 67, "duration": 229, "velocity": 112}, {"time": 84006, "pitch": 55, "duration": 306, "velocity": 81}, {"time": 84006, "pitch": 59, "duration": 309, "velocity": 84}, {"time": 84006, "pitch": 62, "duration": 236, "velocity": 85}, {"time": 84006, "pitch": 67, "duration": 232, "velocity": 74}, {"time": 84006, "pitch": 67, "duration": 232, "velocity": 118}, {"time": 84486, "pitch": 55, "duration": 179, "velocity": 81}, {"time": 84486, "pitch": 59, "duration": 133, "velocity": 76}, {"time": 84486, "pitch": 62, "duration": 101, "velocity": 79}, {"time": 84486, "pitch": 67, "duration": 121, "velocity": 66}, {"time": 84486, "pitch": 67, "duration": 121, "velocity": 105}, {"time": 84726, "pitch": 55, "duration": 233, "velocity": 81}, {"time": 84726, "pitch": 59, "duration": 291, "velocity": 77}, {"time": 84726, "pitch": 62, "duration": 224, "velocity": 84}, {"time": 84726, "pitch": 67, "duration": 252, "velocity": 72}, {"time": 84726, "pitch": 67, "duration": 252, "velocity": 105}, {"time": 85205, "pitch": 55, "duration": 321, "velocity": 75}, {"time": 85205, "pitch": 59, "duration": 365, "velocity": 87}, {"time": 85205, "pitch": 62, "duration": 291, "velocity": 97}, {"time": 85205, "pitch": 67, "duration": 234, "velocity": 80}, {"time": 85205, "pitch": 67, "duration": 234, "velocity": 80}, {"time": 85205, "pitch": 67, "duration": 234, "velocity": 112}, {"time": 85685, "pitch": 55, "duration": 158, "velocity": 81}, {"time": 85685, "pitch": 59, "duration": 154, "velocity": 78}, {"time": 85685, "pitch": 62, "duration": 114, "velocity": 85}, {"time": 85685, "pitch": 67, "duration": 100, "velocity": 68}, {"time": 85685, "pitch": 67, "duration": 100, "velocity": 112}, {"time": 85925, "pitch": 55, "duration": 148, "velocity": 81}, {"time": 85925, "pitch": 59, "duration": 140, "velocity": 74}, {"time": 85925, "pitch": 62, "duration": 112, "velocity": 82}, {"time": 85925, "pitch": 67, "duration": 102, "velocity": 68}, {"time": 85925, "pitch": 67, "duration": 102, "velocity": 112}, {"time": 86165, "pitch": 55, "duration": 167, "velocity": 84}, {"time": 86165, "pitch": 59, "duration": 155, "velocity": 79}, {"time": 86165, "pitch": 62, "duration": 122, "velocity": 97}, {"time": 86165, "pitch": 67, "duration": 99, "velocity": 62}, {"time": 86165, "pitch": 67, "duration": 99, "velocity": 112}, {"time": 86404, "pitch": 55, "duration": 163, "velocity": 86}, {"time": 86404, "pitch": 59, "duration": 143, "velocity": 74}, {"time": 86404, "pitch": 62, "duration": 124, "velocity": 89}, {"time": 86404, "pitch": 67, "duration": 109, "velocity": 65}, {"time": 86404, "pitch": 67, "duration": 109, "velocity": 112}, {"time": 86644, "pitch": 55, "duration": 156, "velocity": 89}, {"time": 86644, "pitch": 55, "duration": 156, "velocity": 89}, {"time": 86644, "pitch": 59, "duration": 165, "velocity": 86}, {"time": 86644, "pitch": 62, "duration": 146, "velocity": 110}, {"time": 86644, "pitch": 67, "duration": 122, "velocity": 81}, {"time": 86644, "pitch": 67, "duration": 122, "velocity": 112}, {"time": 86884, "pitch": 55, "duration": 320, "velocity": 100}, {"time": 86884, "pitch": 59, "duration": 366, "velocity": 105}, {"time": 86884, "pitch": 62, "duration": 339, "velocity": 119}, {"time": 86884, "pitch": 67, "duration": 322, "velocity": 92}, {"time": 86884, "pitch": 67, "duration": 322, "velocity": 112}, {"time": 87364, "pitch": 55, "duration": 269, "velocity": 86}, {"time": 87364, "pitch": 59, "duration": 290, "velocity": 97}, {"time": 87364, "pitch": 62, "duration": 232, "velocity": 105}, {"time": 87364, "pitch": 67, "duration": 244, "velocity": 78}, {"time": 87364, "pitch": 67, "duration": 244, "velocity": 110}, {"time": 87843, "pitch": 55, "duration": 270, "velocity": 84}, {"time": 87843, "pitch": 59, "duration": 239, "velocity": 97}, {"time": 87843, "pitch": 62, "duration": 183, "velocity": 91}, {"time": 87843, "pitch": 67, "duration": 236, "velocity": 68}, {"time": 87843, "pitch": 67, "duration": 236, "velocity": 112}, {"time": 88323, "pitch": 55, "duration": 165, "velocity": 100}, {"time": 88323, "pitch": 59, "duration": 157, "velocity": 81}, {"time": 88323, "pitch": 62, "duration": 143, "velocity": 89}, {"time": 88323, "pitch": 67, "duration": 144, "velocity": 68}, {"time": 88323, "pitch": 67, "duration": 144, "velocity": 112}, {"time": 88563, "pitch": 55, "duration": 348, "velocity": 72}, {"time": 88563, "pitch": 59, "duration": 357, "velocity": 81}, {"time": 88563, "pitch": 62, "duration": 336, "velocity": 89}, {"time": 88563, "pitch": 67, "duration": 209, "velocity": 64}, {"time": 88563, "pitch": 67, "duration": 209, "velocity": 107}, {"time": 89043, "pitch": 55, "duration": 372, "velocity": 84}, {"time": 89043, "pitch": 59, "duration": 329, "velocity": 77}, {"time": 89043, "pitch": 62, "duration": 307, "velocity": 92}, {"time": 89043, "pitch": 67, "duration": 297, "velocity": 68}, {"time": 89043, "pitch": 67, "duration": 297, "velocity": 112}, {"time": 89522, "pitch": 55, "duration": 169, "velocity": 84}, {"time": 89522, "pitch": 59, "duration": 155, "velocity": 79}, {"time": 89522, "pitch": 62, "duration": 142, "velocity": 85}, {"time": 89522, "pitch": 67, "duration": 93, "velocity": 63}, {"time": 89522, "pitch": 67, "duration": 93, "velocity": 107}, {"time": 89762, "pitch": 55, "duration": 128, "velocity": 96}, {"time": 89762, "pitch": 59, "duration": 165, "velocity": 77}, {"time": 89762, "pitch": 62, "duration": 136, "velocity": 96}, {"time": 89762, "pitch": 67, "duration": 105, "velocity": 75}, {"time": 89762, "pitch": 67, "duration": 105, "velocity": 112}, {"time": 90002, "pitch": 55, "duration": 165, "velocity": 81}, {"time": 90002, "pitch": 59, "duration": 160, "velocity": 74}, {"time": 90002, "pitch": 62, "duration": 129, "velocity": 91}, {"time": 90002, "pitch": 67, "duration": 98, "velocity": 65}, {"time": 90002, "pitch": 67, "duration": 98, "velocity": 105}, {"time": 90242, "pitch": 55, "duration": 155, "velocity": 87}, {"time": 90242, "pitch": 59, "duration": 159, "velocity": 82}, {"time": 90242, "pitch": 62, "duration": 137, "velocity": 100}, {"time": 90242, "pitch": 67, "duration": 100, "velocity": 82}, {"time": 90242, "pitch": 67, "duration": 100, "velocity": 105}, {"time": 90482, "pitch": 55, "duration": 169, "velocity": 98}, {"time": 90482, "pitch": 59, "duration": 188, "velocity": 86}, {"time": 90482, "pitch": 62, "duration": 167, "velocity": 106}, {"time": 90482, "pitch": 67, "duration": 108, "velocity": 82}, {"time": 90482, "pitch": 67, "duration": 108, "velocity": 112}, {"time": 90722, "pitch": 55, "duration": 284, "velocity": 105}, {"time": 90722, "pitch": 59, "duration": 338, "velocity": 91}, {"time": 90722, "pitch": 62, "duration": 285, "velocity": 119}, {"time": 90722, "pitch": 67, "duration": 324, "velocity": 86}, {"time": 90722, "pitch": 67, "duration": 324, "velocity": 112}, {"time": 91201, "pitch": 55, "duration": 303, "velocity": 106}, {"time": 91201, "pitch": 59, "duration": 375, "velocity": 98}, {"time": 91201, "pitch": 62, "duration": 350, "velocity": 112}, {"time": 91201, "pitch": 67, "duration": 249, "velocity": 86}, {"time": 91201, "pitch": 67, "duration": 249, "velocity": 112}, {"time": 91681, "pitch": 55, "duration": 255, "velocity": 78}, {"time": 91681, "pitch": 59, "duration": 279, "velocity": 80}, {"time": 91681, "pitch": 62, "duration": 259, "velocity": 91}, {"time": 91681, "pitch": 67, "duration": 268, "velocity": 72}, {"time": 91681, "pitch": 67, "duration": 268, "velocity": 96}, {"time": 91681, "pitch": 69, "duration": 36, "velocity": 87}, {"time": 92161, "pitch": 55, "duration": 196, "velocity": 81}, {"time": 92161, "pitch": 59, "duration": 188, "velocity": 79}, {"time": 92161, "pitch": 62, "duration": 183, "velocity": 85}, {"time": 92161, "pitch": 67, "duration": 131, "velocity": 74}, {"time": 92161, "pitch": 67, "duration": 131, "velocity": 112}, {"time": 92400, "pitch": 55, "duration": 317, "velocity": 88}, {"time": 92400, "pitch": 59, "duration": 384, "velocity": 75}, {"time": 92400, "pitch": 62, "duration": 360, "velocity": 94}, {"time": 92400, "pitch": 67, "duration": 227, "velocity": 78}, {"time": 92400, "pitch": 67, "duration": 227, "velocity": 96}, {"time": 92880, "pitch": 55, "duration": 338, "velocity": 87}, {"time": 92880, "pitch": 59, "duration": 406, "velocity": 87}, {"time": 92880, "pitch": 62, "duration": 349, "velocity": 94}, {"time": 92880, "pitch": 67, "duration": 260, "velocity": 79}, {"time": 92880, "pitch": 67, "duration": 260, "velocity": 118}, {"time": 93360, "pitch": 55, "duration": 152, "velocity": 94}, {"time": 93360, "pitch": 59, "duration": 149, "velocity": 93}, {"time": 93360, "pitch": 62, "duration": 110, "velocity": 103}, {"time": 93360, "pitch": 67, "duration": 98, "velocity": 86}, {"time": 93360, "pitch": 67, "duration": 98, "velocity": 112}, {"time": 93600, "pitch": 55, "duration": 149, "velocity": 98}, {"time": 93600, "pitch": 55, "duration": 149, "velocity": 98}, {"time": 93600, "pitch": 59, "duration": 161, "velocity": 88}, {"time": 93600, "pitch": 62, "duration": 115, "velocity": 110}, {"time": 93600, "pitch": 67, "duration": 102, "velocity": 84}, {"time": 93600, "pitch": 67, "duration": 102, "velocity": 112}, {"time": 93839, "pitch": 55, "duration": 150, "velocity": 93}, {"time": 93839, "pitch": 55, "duration": 150, "velocity": 93}, {"time": 93839, "pitch": 59, "duration": 152, "velocity": 88}, {"time": 93839, "pitch": 62, "duration": 112, "velocity": 115}, {"time": 93839, "pitch": 67, "duration": 102, "velocity": 87}, {"time": 93839, "pitch": 67, "duration": 102, "velocity": 112}, {"time": 94079, "pitch": 47, "duration": 68, "velocity": 57}, {"time": 94079, "pitch": 48, "duration": 43, "velocity": 56}, {"time": 94079, "pitch": 55, "duration": 144, "velocity": 105}, {"time": 94079, "pitch": 59, "duration": 171, "velocity": 98}, {"time": 94079, "pitch": 62, "duration": 109, "velocity": 115}, {"time": 94079, "pitch": 67, "duration": 115, "velocity": 92}, {"time": 94079, "pitch": 67, "duration": 115, "velocity": 107}, {"time": 94319, "pitch": 55, "duration": 299, "velocity": 97}, {"time": 94319, "pitch": 59, "duration": 313, "velocity": 98}, {"time": 94319, "pitch": 62, "duration": 234, "velocity": 117}, {"time": 94319, "pitch": 67, "duration": 145, "velocity": 91}, {"time": 94319, "pitch": 67, "duration": 145, "velocity": 112}, {"time": 155756, "pitch": 55, "duration": 128, "velocity": 106}, {"time": 155756, "pitch": 59, "duration": 148, "velocity": 80}, {"time": 155756, "pitch": 62, "duration": 119, "velocity": 79}, {"time": 155756, "pitch": 67, "duration": 137, "velocity": 69}, {"time": 155756, "pitch": 67, "duration": 137, "velocity": 69}, {"time": 155996, "pitch": 55, "duration": 366, "velocity": 120}, {"time": 155996, "pitch": 59, "duration": 382, "velocity": 91}, {"time": 155996, "pitch": 62, "duration": 373, "velocity": 112}, {"time": 155996, "pitch": 67, "duration": 411, "velocity": 85}, {"time": 156475, "pitch": 55, "duration": 304, "velocity": 115}, {"time": 156475, "pitch": 59, "duration": 334, "velocity": 97}, {"time": 156475, "pitch": 62, "duration": 321, "velocity": 102}, {"time": 156475, "pitch": 67, "duration": 242, "velocity": 81}, {"time": 156475, "pitch": 67, "duration": 242, "velocity": 118}, {"time": 156955, "pitch": 55, "duration": 310, "velocity": 84}, {"time": 156955, "pitch": 59, "duration": 282, "velocity": 83}, {"time": 156955, "pitch": 62, "duration": 254, "velocity": 91}, {"time": 156955, "pitch": 67, "duration": 226, "velocity": 73}, {"time": 156955, "pitch": 67, "duration": 226, "velocity": 112}, {"time": 157435, "pitch": 55, "duration": 175, "velocity": 93}, {"time": 157435, "pitch": 59, "duration": 171, "velocity": 81}, {"time": 157435, "pitch": 62, "duration": 158, "velocity": 85}, {"time": 157435, "pitch": 67, "duration": 121, "velocity": 72}, {"time": 157435, "pitch": 67, "duration": 121, "velocity": 112}, {"time": 157675, "pitch": 55, "duration": 336, "velocity": 84}, {"time": 157675, "pitch": 59, "duration": 350, "velocity": 85}, {"time": 157675, "pitch": 62, "duration": 329, "velocity": 96}, {"time": 157675, "pitch": 67, "duration": 207, "velocity": 74}, {"time": 157675, "pitch": 67, "duration": 207, "velocity": 88}, {"time": 158154, "pitch": 55, "duration": 443, "velocity": 73}, {"time": 158154, "pitch": 59, "duration": 425, "velocity": 82}, {"time": 158154, "pitch": 62, "duration": 411, "velocity": 89}, {"time": 158154, "pitch": 67, "duration": 270, "velocity": 84}, {"time": 158154, "pitch": 67, "duration": 270, "velocity": 107}, {"time": 158634, "pitch": 55, "duration": 139, "velocity": 106}, {"time": 158634, "pitch": 59, "duration": 138, "velocity": 86}, {"time": 158634, "pitch": 62, "duration": 122, "velocity": 106}, {"time": 158634, "pitch": 67, "duration": 102, "velocity": 89}, {"time": 158634, "pitch": 67, "duration": 102, "velocity": 105}, {"time": 158874, "pitch": 55, "duration": 130, "velocity": 102}, {"time": 158874, "pitch": 59, "duration": 148, "velocity": 97}, {"time": 158874, "pitch": 62, "duration": 122, "velocity": 110}, {"time": 158874, "pitch": 67, "duration": 119, "velocity": 93}, {"time": 158874, "pitch": 67, "duration": 119, "velocity": 107}, {"time": 159120, "pitch": 55, "duration": 130, "velocity": 98}, {"time": 159120, "pitch": 59, "duration": 133, "velocity": 86}, {"time": 159120, "pitch": 62, "duration": 104, "velocity": 108}, {"time": 159120, "pitch": 67, "duration": 99, "velocity": 82}, {"time": 159120, "pitch": 67, "duration": 99, "velocity": 83}, {"time": 159366, "pitch": 55, "duration": 122, "velocity": 81}, {"time": 159366, "pitch": 59, "duration": 139, "velocity": 91}, {"time": 159366, "pitch": 62, "duration": 111, "velocity": 110}, {"time": 159366, "pitch": 67, "duration": 107, "velocity": 82}, {"time": 159366, "pitch": 67, "duration": 107, "velocity": 112}, {"time": 159486, "pitch": 55, "duration": 2, "velocity": 73}, {"time": 159606, "pitch": 59, "duration": 128, "velocity": 86}, {"time": 159606, "pitch": 62, "duration": 98, "velocity": 102}, {"time": 159606, "pitch": 67, "duration": 93, "velocity": 84}, {"time": 159606, "pitch": 67, "duration": 93, "velocity": 105}, {"time": 159726, "pitch": 55, "duration": 396, "velocity": 84}, {"time": 159846, "pitch": 59, "duration": 395, "velocity": 103}, {"time": 159846, "pitch": 62, "duration": 382, "velocity": 125}, {"time": 159846, "pitch": 67, "duration": 271, "velocity": 98}, {"time": 159846, "pitch": 67, "duration": 271, "velocity": 117}, {"time": 160326, "pitch": 55, "duration": 303, "velocity": 115}, {"time": 160326, "pitch": 59, "duration": 327, "velocity": 105}, {"time": 160326, "pitch": 62, "duration": 290, "velocity": 102}, {"time": 160326, "pitch": 67, "duration": 223, "velocity": 91}, {"time": 160326, "pitch": 67, "duration": 223, "velocity": 112}, {"time": 160805, "pitch": 55, "duration": 306, "velocity": 81}, {"time": 160805, "pitch": 59, "duration": 309, "velocity": 84}, {"time": 160805, "pitch": 62, "duration": 236, "velocity": 85}, {"time": 160805, "pitch": 67, "duration": 232, "velocity": 74}, {"time": 160805, "pitch": 67, "duration": 232, "velocity": 118}, {"time": 161285, "pitch": 55, "duration": 179, "velocity": 81}, {"time": 161285, "pitch": 59, "duration": 133, "velocity": 76}, {"time": 161285, "pitch": 62, "duration": 101, "velocity": 79}, {"time": 161285, "pitch": 67, "duration": 121, "velocity": 66}, {"time": 161285, "pitch": 67, "duration": 121, "velocity": 105}, {"time": 161525, "pitch": 55, "duration": 234, "velocity": 81}, {"time": 161525, "pitch": 59, "duration": 292, "velocity": 77}, {"time": 161525, "pitch": 62, "duration": 225, "velocity": 84}, {"time": 161525, "pitch": 67, "duration": 253, "velocity": 72}, {"time": 161525, "pitch": 67, "duration": 253, "velocity": 105}, {"time": 162004, "pitch": 55, "duration": 321, "velocity": 75}, {"time": 162004, "pitch": 59, "duration": 365, "velocity": 87}, {"time": 162004, "pitch": 62, "duration": 291, "velocity": 97}, {"time": 162004, "pitch": 67, "duration": 234, "velocity": 80}, {"time": 162004, "pitch": 67, "duration": 234, "velocity": 80}, {"time": 162004, "pitch": 67, "duration": 234, "velocity": 112}, {"time": 162484, "pitch": 55, "duration": 158, "velocity": 81}, {"time": 162484, "pitch": 59, "duration": 154, "velocity": 78}, {"time": 162484, "pitch": 62, "duration": 114, "velocity": 85}, {"time": 162484, "pitch": 67, "duration": 100, "velocity": 68}, {"time": 162484, "pitch": 67, "duration": 100, "velocity": 112}, {"time": 162724, "pitch": 55, "duration": 148, "velocity": 81}, {"time": 162724, "pitch": 59, "duration": 140, "velocity": 74}, {"time": 162724, "pitch": 62, "duration": 112, "velocity": 82}, {"time": 162724, "pitch": 67, "duration": 102, "velocity": 68}, {"time": 162724, "pitch": 67, "duration": 102, "velocity": 112}, {"time": 162964, "pitch": 55, "duration": 168, "velocity": 84}, {"time": 162964, "pitch": 59, "duration": 156, "velocity": 79}, {"time": 162964, "pitch": 62, "duration": 122, "velocity": 97}, {"time": 162964, "pitch": 67, "duration": 99, "velocity": 62}, {"time": 162964, "pitch": 67, "duration": 99, "velocity": 112}, {"time": 163204, "pitch": 55, "duration": 163, "velocity": 86}, {"time": 163204, "pitch": 59, "duration": 143, "velocity": 74}, {"time": 163204, "pitch": 62, "duration": 124, "velocity": 89}, {"time": 163204, "pitch": 67, "duration": 109, "velocity": 65}, {"time": 163204, "pitch": 67, "duration": 109, "velocity": 112}, {"time": 163443, "pitch": 55, "duration": 156, "velocity": 89}, {"time": 163443, "pitch": 55, "duration": 156, "velocity": 89}, {"time": 163443, "pitch": 59, "duration": 165, "velocity": 86}, {"time": 163443, "pitch": 62, "duration": 146, "velocity": 110}, {"time": 163443, "pitch": 67, "duration": 122, "velocity": 81}, {"time": 163443, "pitch": 67, "duration": 122, "velocity": 112}, {"time": 163683, "pitch": 55, "duration": 320, "velocity": 100}, {"time": 163683, "pitch": 59, "duration": 366, "velocity": 105}, {"time": 163683, "pitch": 62, "duration": 339, "velocity": 119}, {"time": 163683, "pitch": 67, "duration": 322, "velocity": 92}, {"time": 163683, "pitch": 67, "duration": 322, "velocity": 112}, {"time": 164163, "pitch": 55, "duration": 269, "velocity": 86}, {"time": 164163, "pitch": 59, "duration": 290, "velocity": 97}, {"time": 164163, "pitch": 62, "duration": 232, "velocity": 105}, {"time": 164163, "pitch": 67, "duration": 244, "velocity": 78}, {"time": 164163, "pitch": 67, "duration": 244, "velocity": 110}, {"time": 164643, "pitch": 55, "duration": 269, "velocity": 84}, {"time": 164643, "pitch": 59, "duration": 239, "velocity": 97}, {"time": 164643, "pitch": 62, "duration": 183, "velocity": 91}, {"time": 164643, "pitch": 67, "duration": 236, "velocity": 68}, {"time": 164643, "pitch": 67, "duration": 236, "velocity": 112}, {"time": 165122, "pitch": 55, "duration": 165, "velocity": 100}, {"time": 165122, "pitch": 59, "duration": 157, "velocity": 81}, {"time": 165122, "pitch": 62, "duration": 143, "velocity": 89}, {"time": 165122, "pitch": 67, "duration": 144, "velocity": 68}, {"time": 165122, "pitch": 67, "duration": 144, "velocity": 112}, {"time": 165362, "pitch": 55, "duration": 348, "velocity": 72}, {"time": 165362, "pitch": 59, "duration": 357, "velocity": 81}, {"time": 165362, "pitch": 62, "duration": 336, "velocity": 89}, {"time": 165362, "pitch": 67, "duration": 209, "velocity": 64}, {"time": 165362, "pitch": 67, "duration": 209, "velocity": 107}, {"time": 165842, "pitch": 55, "duration": 373, "velocity": 84}, {"time": 165842, "pitch": 59, "duration": 330, "velocity": 77}, {"time": 165842, "pitch": 62, "duration": 308, "velocity": 92}, {"time": 165842, "pitch": 67, "duration": 298, "velocity": 68}, {"time": 165842, "pitch": 67, "duration": 298, "velocity": 112}, {"time": 166322, "pitch": 55, "duration": 168, "velocity": 84}, {"time": 166322, "pitch": 59, "duration": 154, "velocity": 79}, {"time": 166322, "pitch": 62, "duration": 141, "velocity": 85}, {"time": 166322, "pitch": 67, "duration": 92, "velocity": 63}, {"time": 166322, "pitch": 67, "duration": 92, "velocity": 107}, {"time": 166561, "pitch": 55, "duration": 128, "velocity": 96}, {"time": 166561, "pitch": 59, "duration": 165, "velocity": 77}, {"time": 166561, "pitch": 62, "duration": 136, "velocity": 96}, {"time": 166561, "pitch": 67, "duration": 105, "velocity": 75}, {"time": 166561, "pitch": 67, "duration": 105, "velocity": 112}, {"time": 166801, "pitch": 55, "duration": 165, "velocity": 81}, {"time": 166801, "pitch": 59, "duration": 160, "velocity": 74}, {"time": 166801, "pitch": 62, "duration": 129, "velocity": 91}, {"time": 166801, "pitch": 67, "duration": 98, "velocity": 65}, {"time": 166801, "pitch": 67, "duration": 98, "velocity": 105}, {"time": 167041, "pitch": 55, "duration": 155, "velocity": 87}, {"time": 167041, "pitch": 59, "duration": 159, "velocity": 82}, {"time": 167041, "pitch": 62, "duration": 137, "velocity": 100}, {"time": 167041, "pitch": 67, "duration": 100, "velocity": 82}, {"time": 167041, "pitch": 67, "duration": 100, "velocity": 105}, {"time": 167281, "pitch": 55, "duration": 169, "velocity": 98}, {"time": 167281, "pitch": 59, "duration": 188, "velocity": 86}, {"time": 167281, "pitch": 62, "duration": 167, "velocity": 106}, {"time": 167281, "pitch": 67, "duration": 108, "velocity": 82}, {"time": 167281, "pitch": 67, "duration": 108, "velocity": 112}, {"time": 167521, "pitch": 55, "duration": 285, "velocity": 105}, {"time": 167521, "pitch": 59, "duration": 339, "velocity": 91}, {"time": 167521, "pitch": 62, "duration": 286, "velocity": 119}, {"time": 167521, "pitch": 67, "duration": 325, "velocity": 86}, {"time": 167521, "pitch": 67, "duration": 325, "velocity": 112}, {"time": 168000, "pitch": 55, "duration": 303, "velocity": 106}, {"time": 168000, "pitch": 59, "duration": 375, "velocity": 98}, {"time": 168000, "pitch": 62, "duration": 350, "velocity": 112}, {"time": 168000, "pitch": 67, "duration": 249, "velocity": 86}, {"time": 168000, "pitch": 67, "duration": 249, "velocity": 112}, {"time": 168480, "pitch": 55, "duration": 255, "velocity": 78}, {"time": 168480, "pitch": 59, "duration": 279, "velocity": 80}, {"time": 168480, "pitch": 62, "duration": 259, "velocity": 91}, {"time": 168480, "pitch": 67, "duration": 268, "velocity": 72}, {"time": 168480, "pitch": 67, "duration": 268, "velocity": 96}, {"time": 168480, "pitch": 69, "duration": 36, "velocity": 87}, {"time": 168960, "pitch": 55, "duration": 197, "velocity": 81}, {"time": 168960, "pitch": 59, "duration": 189, "velocity": 79}, {"time": 168960, "pitch": 62, "duration": 184, "velocity": 85}, {"time": 168960, "pitch": 67, "duration": 131, "velocity": 74}, {"time": 168960, "pitch": 67, "duration": 131, "velocity": 112}, {"time": 169200, "pitch": 55, "duration": 316, "velocity": 88}, {"time": 169200, "pitch": 59, "duration": 383, "velocity": 75}, {"time": 169200, "pitch": 62, "duration": 359, "velocity": 94}, {"time": 169200, "pitch": 67, "duration": 226, "velocity": 78}, {"time": 169200, "pitch": 67, "duration": 226, "velocity": 96}, {"time": 169679, "pitch": 55, "duration": 338, "velocity": 87}, {"time": 169679, "pitch": 59, "duration": 406, "velocity": 87}, {"time": 169679, "pitch": 62, "duration": 349, "velocity": 94}, {"time": 169679, "pitch": 67, "duration": 260, "velocity": 79}, {"time": 169679, "pitch": 67, "duration": 260, "velocity": 118}, {"time": 170159, "pitch": 55, "duration": 152, "velocity": 94}, {"time": 170159, "pitch": 59, "duration": 149, "velocity": 93}, {"time": 170159, "pitch": 62, "duration": 110, "velocity": 103}, {"time": 170159, "pitch": 67, "duration": 98, "velocity": 86}, {"time": 170159, "pitch": 67, "duration": 98, "velocity": 112}, {"time": 170399, "pitch": 55, "duration": 149, "velocity": 98}, {"time": 170399, "pitch": 55, "duration": 149, "velocity": 98}, {"time": 170399, "pitch": 59, "duration": 161, "velocity": 88}, {"time": 170399, "pitch": 62, "duration": 115, "velocity": 110}, {"time": 170399, "pitch": 67, "duration": 102, "velocity": 84}, {"time": 170399, "pitch": 67, "duration": 102, "velocity": 112}, {"time": 170639, "pitch": 55, "duration": 150, "velocity": 93}, {"time": 170639, "pitch": 55, "duration": 150, "velocity": 93}, {"time": 170639, "pitch": 59, "duration": 152, "velocity": 88}, {"time": 170639, "pitch": 62, "duration": 112, "velocity": 115}, {"time": 170639, "pitch": 67, "duration": 102, "velocity": 87}, {"time": 170639, "pitch": 67, "duration": 102, "velocity": 112}, {"time": 170879, "pitch": 47, "duration": 67, "velocity": 57}, {"time": 170879, "pitch": 48, "duration": 42, "velocity": 56}, {"time": 170879, "pitch": 55, "duration": 143, "velocity": 105}, {"time": 170879, "pitch": 59, "duration": 170, "velocity": 98}, {"time": 170879, "pitch": 62, "duration": 108, "velocity": 115}, {"time": 170879, "pitch": 67, "duration": 114, "velocity": 92}, {"time": 170879, "pitch": 67, "duration": 114, "velocity": 107}, {"time": 171118, "pitch": 55, "duration": 299, "velocity": 97}, {"time": 171118, "pitch": 59, "duration": 313, "velocity": 98}, {"time": 171118, "pitch": 62, "duration": 234, "velocity": 117}, {"time": 171118, "pitch": 67, "duration": 145, "velocity": 91}, {"time": 171118, "pitch": 67, "duration": 145, "velocity": 112}, {"time": 171358, "pitch": 55, "duration": 59, "velocity": 120}, {"time": 171358, "pitch": 59, "duration": 73, "velocity": 91}, {"time": 171358, "pitch": 62, "duration": 373, "velocity": 112}, {"time": 171358, "pitch": 67, "duration": 32, "velocity": 85}, {"time": 171838, "pitch": 55, "duration": 304, "velocity": 115}, {"time": 171838, "pitch": 59, "duration": 334, "velocity": 97}, {"time": 171838, "pitch": 62, "duration": 321, "velocity": 102}, {"time": 171838, "pitch": 67, "duration": 242, "velocity": 81}, {"time": 171838, "pitch": 67, "duration": 242, "velocity": 118}, {"time": 172318, "pitch": 55, "duration": 309, "velocity": 84}, {"time": 172318, "pitch": 59, "duration": 281, "velocity": 83}, {"time": 172318, "pitch": 62, "duration": 253, "velocity": 91}, {"time": 172318, "pitch": 67, "duration": 225, "velocity": 73}, {"time": 172318, "pitch": 67, "duration": 225, "velocity": 112}, {"time": 172797, "pitch": 55, "duration": 175, "velocity": 93}, {"time": 172797, "pitch": 59, "duration": 171, "velocity": 81}, {"time": 172797, "pitch": 62, "duration": 158, "velocity": 85}, {"time": 172797, "pitch": 67, "duration": 121, "velocity": 72}, {"time": 172797, "pitch": 67, "duration": 121, "velocity": 112}, {"time": 173037, "pitch": 55, "duration": 337, "velocity": 84}, {"time": 173037, "pitch": 59, "duration": 351, "velocity": 85}, {"time": 173037, "pitch": 62, "duration": 330, "velocity": 96}, {"time": 173037, "pitch": 67, "duration": 207, "velocity": 74}, {"time": 173037, "pitch": 67, "duration": 207, "velocity": 88}, {"time": 173517, "pitch": 55, "duration": 442, "velocity": 73}, {"time": 173517, "pitch": 59, "duration": 424, "velocity": 82}, {"time": 173517, "pitch": 62, "duration": 410, "velocity": 89}, {"time": 173517, "pitch": 67, "duration": 270, "velocity": 84}, {"time": 173517, "pitch": 67, "duration": 270, "velocity": 107}, {"time": 173996, "pitch": 55, "duration": 139, "velocity": 106}, {"time": 173996, "pitch": 59, "duration": 138, "velocity": 86}, {"time": 173996, "pitch": 62, "duration": 122, "velocity": 106}, {"time": 173996, "pitch": 67, "duration": 102, "velocity": 89}, {"time": 173996, "pitch": 67, "duration": 102, "velocity": 105}, {"time": 174236, "pitch": 55, "duration": 127, "velocity": 102}, {"time": 174236, "pitch": 59, "duration": 144, "velocity": 97}, {"time": 174236, "pitch": 62, "duration": 119, "velocity": 110}, {"time": 174236, "pitch": 67, "duration": 116, "velocity": 93}, {"time": 174236, "pitch": 67, "duration": 116, "velocity": 107}, {"time": 174476, "pitch": 55, "duration": 127, "velocity": 98}, {"time": 174476, "pitch": 59, "duration": 130, "velocity": 86}, {"time": 174476, "pitch": 62, "duration": 101, "velocity": 108}, {"time": 174476, "pitch": 67, "duration": 96, "velocity": 82}, {"time": 174476, "pitch": 67, "duration": 96, "velocity": 83}, {"time": 174716, "pitch": 55, "duration": 122, "velocity": 81}, {"time": 174716, "pitch": 59, "duration": 139, "velocity": 91}, {"time": 174716, "pitch": 62, "duration": 111, "velocity": 110}, {"time": 174716, "pitch": 67, "duration": 107, "velocity": 82}, {"time": 174716, "pitch": 67, "duration": 107, "velocity": 112}, {"time": 174836, "pitch": 55, "duration": 2, "velocity": 73}, {"time": 174956, "pitch": 59, "duration": 128, "velocity": 86}, {"time": 174956, "pitch": 62, "duration": 98, "velocity": 102}, {"time": 174956, "pitch": 67, "duration": 93, "velocity": 84}, {"time": 174956, "pitch": 67, "duration": 93, "velocity": 105}, {"time": 175076, "pitch": 55, "duration": 395, "velocity": 84}, {"time": 175196, "pitch": 59, "duration": 394, "velocity": 103}, {"time": 175196, "pitch": 62, "duration": 381, "velocity": 125}, {"time": 175196, "pitch": 67, "duration": 270, "velocity": 98}, {"time": 175196, "pitch": 67, "duration": 270, "velocity": 117}, {"time": 175675, "pitch": 55, "duration": 304, "velocity": 115}, {"time": 175675, "pitch": 59, "duration": 328, "velocity": 105}, {"time": 175675, "pitch": 62, "duration": 291, "velocity": 102}, {"time": 175675, "pitch": 67, "duration": 224, "velocity": 91}, {"time": 175675, "pitch": 67, "duration": 224, "velocity": 112}, {"time": 176155, "pitch": 55, "duration": 306, "velocity": 81}, {"time": 176155, "pitch": 59, "duration": 309, "velocity": 84}, {"time": 176155, "pitch": 62, "duration": 236, "velocity": 85}, {"time": 176155, "pitch": 67, "duration": 232, "velocity": 74}, {"time": 176155, "pitch": 67, "duration": 232, "velocity": 118}, {"time": 176635, "pitch": 55, "duration": 179, "velocity": 81}, {"time": 176635, "pitch": 59, "duration": 133, "velocity": 76}, {"time": 176635, "pitch": 62, "duration": 101, "velocity": 79}, {"time": 176635, "pitch": 67, "duration": 121, "velocity": 66}, {"time": 176635, "pitch": 67, "duration": 121, "velocity": 105}, {"time": 176874, "pitch": 55, "duration": 234, "velocity": 81}, {"time": 176874, "pitch": 59, "duration": 292, "velocity": 77}, {"time": 176874, "pitch": 62, "duration": 225, "velocity": 84}, {"time": 176874, "pitch": 67, "duration": 253, "velocity": 72}, {"time": 176874, "pitch": 67, "duration": 253, "velocity": 105}, {"time": 177354, "pitch": 55, "duration": 321, "velocity": 75}, {"time": 177354, "pitch": 59, "duration": 365, "velocity": 87}, {"time": 177354, "pitch": 62, "duration": 291, "velocity": 97}, {"time": 177354, "pitch": 67, "duration": 234, "velocity": 80}, {"time": 177354, "pitch": 67, "duration": 234, "velocity": 80}, {"time": 177354, "pitch": 67, "duration": 234, "velocity": 112}, {"time": 177834, "pitch": 55, "duration": 158, "velocity": 81}, {"time": 177834, "pitch": 59, "duration": 154, "velocity": 78}, {"time": 177834, "pitch": 62, "duration": 114, "velocity": 85}, {"time": 177834, "pitch": 67, "duration": 100, "velocity": 68}, {"time": 177834, "pitch": 67, "duration": 100, "velocity": 112}, {"time": 178074, "pitch": 55, "duration": 151, "velocity": 81}, {"time": 178074, "pitch": 59, "duration": 143, "velocity": 74}, {"time": 178074, "pitch": 62, "duration": 114, "velocity": 82}, {"time": 178074, "pitch": 67, "duration": 104, "velocity": 68}, {"time": 178074, "pitch": 67, "duration": 104, "velocity": 112}, {"time": 178320, "pitch": 55, "duration": 172, "velocity": 84}, {"time": 178320, "pitch": 59, "duration": 160, "velocity": 79}, {"time": 178320, "pitch": 62, "duration": 125, "velocity": 97}, {"time": 178320, "pitch": 67, "duration": 101, "velocity": 62}, {"time": 178320, "pitch": 67, "duration": 101, "velocity": 112}, {"time": 178566, "pitch": 55, "duration": 163, "velocity": 86}, {"time": 178566, "pitch": 59, "duration": 143, "velocity": 74}, {"time": 178566, "pitch": 62, "duration": 124, "velocity": 89}, {"time": 178566, "pitch": 67, "duration": 109, "velocity": 65}, {"time": 178566, "pitch": 67, "duration": 109, "velocity": 112}, {"time": 178806, "pitch": 55, "duration": 156, "velocity": 89}, {"time": 178806, "pitch": 55, "duration": 156, "velocity": 89}, {"time": 178806, "pitch": 59, "duration": 165, "velocity": 86}, {"time": 178806, "pitch": 62, "duration": 146, "velocity": 110}, {"time": 178806, "pitch": 67, "duration": 122, "velocity": 81}, {"time": 178806, "pitch": 67, "duration": 122, "velocity": 112}, {"time": 179046, "pitch": 55, "duration": 319, "velocity": 100}, {"time": 179046, "pitch": 59, "duration": 365, "velocity": 105}, {"time": 179046, "pitch": 62, "duration": 338, "velocity": 119}, {"time": 179046, "pitch": 67, "duration": 321, "velocity": 92}, {"time": 179046, "pitch": 67, "duration": 321, "velocity": 112}, {"time": 179525, "pitch": 55, "duration": 269, "velocity": 86}, {"time": 179525, "pitch": 59, "duration": 290, "velocity": 97}, {"time": 179525, "pitch": 62, "duration": 232, "velocity": 105}, {"time": 179525, "pitch": 67, "duration": 244, "velocity": 78}, {"time": 179525, "pitch": 67, "duration": 244, "velocity": 110}, {"time": 180005, "pitch": 55, "duration": 270, "velocity": 84}, {"time": 180005, "pitch": 59, "duration": 239, "velocity": 97}, {"time": 180005, "pitch": 62, "duration": 183, "velocity": 91}, {"time": 180005, "pitch": 67, "duration": 236, "velocity": 68}, {"time": 180005, "pitch": 67, "duration": 236, "velocity": 112}, {"time": 180485, "pitch": 55, "duration": 165, "velocity": 100}, {"time": 180485, "pitch": 59, "duration": 157, "velocity": 81}, {"time": 180485, "pitch": 62, "duration": 143, "velocity": 89}, {"time": 180485, "pitch": 67, "duration": 144, "velocity": 68}, {"time": 180485, "pitch": 67, "duration": 144, "velocity": 112}, {"time": 180725, "pitch": 55, "duration": 347, "velocity": 72}, {"time": 180725, "pitch": 59, "duration": 356, "velocity": 81}, {"time": 180725, "pitch": 62, "duration": 335, "velocity": 89}, {"time": 180725, "pitch": 67, "duration": 208, "velocity": 64}, {"time": 180725, "pitch": 67, "duration": 208, "velocity": 107}, {"time": 181204, "pitch": 55, "duration": 373, "velocity": 84}, {"time": 181204, "pitch": 59, "duration": 330, "velocity": 77}, {"time": 181204, "pitch": 62, "duration": 308, "velocity": 92}, {"time": 181204, "pitch": 67, "duration": 298, "velocity": 68}, {"time": 181204, "pitch": 67, "duration": 298, "velocity": 112}, {"time": 181684, "pitch": 55, "duration": 169, "velocity": 84}, {"time": 181684, "pitch": 59, "duration": 155, "velocity": 79}, {"time": 181684, "pitch": 62, "duration": 142, "velocity": 85}, {"time": 181684, "pitch": 67, "duration": 93, "velocity": 63}, {"time": 181684, "pitch": 67, "duration": 93, "velocity": 107}, {"time": 181924, "pitch": 55, "duration": 128, "velocity": 96}, {"time": 181924, "pitch": 59, "duration": 165, "velocity": 77}, {"time": 181924, "pitch": 62, "duration": 136, "velocity": 96}, {"time": 181924, "pitch": 67, "duration": 105, "velocity": 75}, {"time": 181924, "pitch": 67, "duration": 105, "velocity": 112}, {"time": 182164, "pitch": 55, "duration": 164, "velocity": 81}, {"time": 182164, "pitch": 59, "duration": 159, "velocity": 74}, {"time": 182164, "pitch": 62, "duration": 129, "velocity": 91}, {"time": 182164, "pitch": 67, "duration": 98, "velocity": 65}, {"time": 182164, "pitch": 67, "duration": 98, "velocity": 105}, {"time": 182403, "pitch": 55, "duration": 155, "velocity": 87}, {"time": 182403, "pitch": 59, "duration": 159, "velocity": 82}, {"time": 182403, "pitch": 62, "duration": 137, "velocity": 100}, {"time": 182403, "pitch": 67, "duration": 100, "velocity": 82}, {"time": 182403, "pitch": 67, "duration": 100, "velocity": 105}, {"time": 182643, "pitch": 55, "duration": 169, "velocity": 98}, {"time": 182643, "pitch": 59, "duration": 188, "velocity": 86}, {"time": 182643, "pitch": 62, "duration": 167, "velocity": 106}, {"time": 182643, "pitch": 67, "duration": 108, "velocity": 82}, {"time": 182643, "pitch": 67, "duration": 108, "velocity": 112}, {"time": 182883, "pitch": 55, "duration": 285, "velocity": 105}, {"time": 182883, "pitch": 59, "duration": 339, "velocity": 91}, {"time": 182883, "pitch": 62, "duration": 286, "velocity": 119}, {"time": 182883, "pitch": 67, "duration": 325, "velocity": 86}, {"time": 182883, "pitch": 67, "duration": 325, "velocity": 112}, {"time": 183363, "pitch": 55, "duration": 303, "velocity": 106}, {"time": 183363, "pitch": 59, "duration": 375, "velocity": 98}, {"time": 183363, "pitch": 62, "duration": 350, "velocity": 112}, {"time": 183363, "pitch": 67, "duration": 249, "velocity": 86}, {"time": 183363, "pitch": 67, "duration": 249, "velocity": 112}, {"time": 183842, "pitch": 55, "duration": 255, "velocity": 78}, {"time": 183842, "pitch": 59, "duration": 279, "velocity": 80}, {"time": 183842, "pitch": 62, "duration": 259, "velocity": 91}, {"time": 183842, "pitch": 67, "duration": 268, "velocity": 72}, {"time": 183842, "pitch": 67, "duration": 268, "velocity": 96}, {"time": 183842, "pitch": 69, "duration": 36, "velocity": 87}, {"time": 184322, "pitch": 55, "duration": 197, "velocity": 81}, {"time": 184322, "pitch": 59, "duration": 189, "velocity": 79}, {"time": 184322, "pitch": 62, "duration": 184, "velocity": 85}, {"time": 184322, "pitch": 67, "duration": 131, "velocity": 74}, {"time": 184322, "pitch": 67, "duration": 131, "velocity": 112}, {"time": 184562, "pitch": 55, "duration": 317, "velocity": 88}, {"time": 184562, "pitch": 59, "duration": 384, "velocity": 75}, {"time": 184562, "pitch": 62, "duration": 360, "velocity": 94}, {"time": 184562, "pitch": 67, "duration": 227, "velocity": 78}, {"time": 184562, "pitch": 67, "duration": 227, "velocity": 96}, {"time": 185042, "pitch": 55, "duration": 337, "velocity": 87}, {"time": 185042, "pitch": 59, "duration": 405, "velocity": 87}, {"time": 185042, "pitch": 62, "duration": 348, "velocity": 94}, {"time": 185042, "pitch": 67, "duration": 259, "velocity": 79}, {"time": 185042, "pitch": 67, "duration": 259, "velocity": 118}, {"time": 185521, "pitch": 55, "duration": 152, "velocity": 94}, {"time": 185521, "pitch": 59, "duration": 149, "velocity": 93}, {"time": 185521, "pitch": 62, "duration": 110, "velocity": 103}, {"time": 185521, "pitch": 67, "duration": 98, "velocity": 86}, {"time": 185521, "pitch": 67, "duration": 98, "velocity": 112}, {"time": 185761, "pitch": 55, "duration": 149, "velocity": 98}, {"time": 185761, "pitch": 55, "duration": 149, "velocity": 98}, {"time": 185761, "pitch": 59, "duration": 161, "velocity": 88}, {"time": 185761, "pitch": 62, "duration": 115, "velocity": 110}, {"time": 185761, "pitch": 67, "duration": 102, "velocity": 84}, {"time": 185761, "pitch": 67, "duration": 102, "velocity": 112}, {"time": 186001, "pitch": 55, "duration": 150, "velocity": 93}, {"time": 186001, "pitch": 55, "duration": 150, "velocity": 93}, {"time": 186001, "pitch": 59, "duration": 152, "velocity": 88}, {"time": 186001, "pitch": 62, "duration": 112, "velocity": 115}, {"time": 186001, "pitch": 67, "duration": 102, "velocity": 87}, {"time": 186001, "pitch": 67, "duration": 102, "velocity": 112}, {"time": 186241, "pitch": 47, "duration": 68, "velocity": 57}, {"time": 186241, "pitch": 48, "duration": 43, "velocity": 56}, {"time": 186241, "pitch": 55, "duration": 144, "velocity": 105}, {"time": 186241, "pitch": 59, "duration": 171, "velocity": 98}, {"time": 186241, "pitch": 62, "duration": 109, "velocity": 115}, {"time": 186241, "pitch": 67, "duration": 115, "velocity": 92}, {"time": 186241, "pitch": 67, "duration": 115, "velocity": 107}, {"time": 186481, "pitch": 55, "duration": 299, "velocity": 97}, {"time": 186481, "pitch": 59, "duration": 312, "velocity": 98}, {"time": 186481, "pitch": 62, "duration": 234, "velocity": 117}, {"time": 186481, "pitch": 67, "duration": 145, "velocity": 91}, {"time": 186481, "pitch": 67, "duration": 145, "velocity": 112}], "annotations": [{"time": 240, "annotation": {"number": 7, "value": 80}, "group": "control_change"}, {"time": 258, "annotation": {"number": 11, "value": 110}, "group": "control_change"}, {"time": 277, "annotation": {"number": 10, "value": 64}, "group": "control_change"}, {"time": 295, "annotation": {"number": 91, "value": 0}, "group": "control_change"}, {"time": 314, "annotation": {"number": 93, "value": 40}, "group": "control_change"}, {"time": 332, "annotation": {"number": 94, "value": 80}, "group": "control_change"}, {"time": 350, "annotation": {"number": 101, "value": 0}, "group": "control_change"}, {"time": 369, "annotation": {"number": 100, "value": 0}, "group": "control_change"}, {"time": 387, "annotation": {"number": 6, "value": 12}, "group": "control_change"}, {"time": 406, "annotation": {"number": 101, "value": 127}, "group": "control_change"}, {"time": 424, "annotation": {"number": 100, "value": 127}, "group": "control_change"}, {"time": 480, "annotation": {"number": 1, "value": 127}, "group": "control_change"}, {"time": 2358, "annotation": {"number": 10, "value": 64}, "group": "control_change"}, {"time": 2437, "annotation": {"number": 10, "value": 58}, "group": "control_change"}, {"time": 2465, "annotation": {"number": 10, "value": 49}, "group": "control_change"}, {"time": 2478, "annotation": {"number": 10, "value": 42}, "group": "control_change"}, {"time": 2506, "annotation": {"number": 10, "value": 32}, "group": "control_change"}, {"time": 2658, "annotation": {"number": 10, "value": 28}, "group": "control_change"}, {"time": 2702, "annotation": {"number": 10, "value": 35}, "group": "control_change"}, {"time": 2730, "annotation": {"number": 10, "value": 44}, "group": "control_change"}, {"time": 2759, "annotation": {"number": 10, "value": 55}, "group": "control_change"}, {"time": 2791, "annotation": {"number": 10, "value": 64}, "group": "control_change"}, {"time": 2923, "annotation": {"number": 10, "value": 65}, "group": "control_change"}, {"time": 2968, "annotation": {"number": 10, "value": 56}, "group": "control_change"}, {"time": 3043, "annotation": {"number": 10, "value": 52}, "group": "control_change"}, {"time": 3116, "annotation": {"number": 10, "value": 64}, "group": "control_change"}, {"time": 3148, "annotation": {"number": 10, "value": 74}, "group": "control_change"}, {"time": 3160, "annotation": {"number": 10, "value": 81}, "group": "control_change"}, {"time": 3192, "annotation": {"number": 10, "value": 89}, "group": "control_change"}, {"time": 3325, "annotation": {"number": 10, "value": 87}, "group": "control_change"}, {"time": 3340, "annotation": {"number": 10, "value": 80}, "group": "control_change"}, {"time": 3356, "annotation": {"number": 10, "value": 72}, "group": "control_change"}, {"time": 3372, "annotation": {"number": 10, "value": 65}, "group": "control_change"}, {"time": 3385, "annotation": {"number": 10, "value": 58}, "group": "control_change"}, {"time": 3401, "annotation": {"number": 10, "value": 51}, "group": "control_change"}, {"time": 3429, "annotation": {"number": 10, "value": 44}, "group": "control_change"}, {"time": 3505, "annotation": {"number": 10, "value": 45}, "group": "control_change"}, {"time": 3533, "annotation": {"number": 10, "value": 57}, "group": "control_change"}, {"time": 3549, "annotation": {"number": 10, "value": 64}, "group": "control_change"}, {"time": 3565, "annotation": {"number": 10, "value": 71}, "group": "control_change"}, {"time": 3593, "annotation": {"number": 10, "value": 81}, "group": "control_change"}, {"time": 3625, "annotation": {"number": 10, "value": 84}, "group": "control_change"}, {"time": 3726, "annotation": {"number": 10, "value": 80}, "group": "control_change"}, {"time": 3758, "annotation": {"number": 10, "value": 70}, "group": "control_change"}, {"time": 3773, "annotation": {"number": 10, "value": 62}, "group": "control_change"}, {"time": 3786, "annotation": {"number": 10, "value": 55}, "group": "control_change"}, {"time": 3801, "annotation": {"number": 10, "value": 45}, "group": "control_change"}, {"time": 3816, "annotation": {"number": 10, "value": 38}, "group": "control_change"}, {"time": 3934, "annotation": {"number": 10, "value": 37}, "group": "control_change"}, {"time": 3965, "annotation": {"number": 10, "value": 52}, "group": "control_change"}, {"time": 3978, "annotation": {"number": 10, "value": 61}, "group": "control_change"}, {"time": 3993, "annotation": {"number": 10, "value": 70}, "group": "control_change"}, {"time": 4010, "annotation": {"number": 10, "value": 82}, "group": "control_change"}, {"time": 4025, "annotation": {"number": 10, "value": 89}, "group": "control_change"}, {"time": 4054, "annotation": {"number": 10, "value": 98}, "group": "control_change"}, {"time": 4158, "annotation": {"number": 10, "value": 97}, "group": "control_change"}, {"time": 4187, "annotation": {"number": 10, "value": 84}, "group": "control_change"}, {"time": 4202, "annotation": {"number": 10, "value": 74}, "group": "control_change"}, {"time": 4218, "annotation": {"number": 10, "value": 63}, "group": "control_change"}, {"time": 4231, "annotation": {"number": 10, "value": 53}, "group": "control_change"}, {"time": 4246, "annotation": {"number": 10, "value": 44}, "group": "control_change"}, {"time": 4275, "annotation": {"number": 10, "value": 35}, "group": "control_change"}, {"time": 4351, "annotation": {"number": 10, "value": 36}, "group": "control_change"}, {"time": 4382, "annotation": {"number": 10, "value": 48}, "group": "control_change"}, {"time": 4395, "annotation": {"number": 10, "value": 55}, "group": "control_change"}, {"time": 4411, "annotation": {"number": 10, "value": 64}, "group": "control_change"}, {"time": 4439, "annotation": {"number": 10, "value": 77}, "group": "control_change"}, {"time": 4471, "annotation": {"number": 10, "value": 85}, "group": "control_change"}, {"time": 4515, "annotation": {"number": 10, "value": 87}, "group": "control_change"}, {"time": 4603, "annotation": {"number": 10, "value": 85}, "group": "control_change"}, {"time": 4635, "annotation": {"number": 10, "value": 73}, "group": "control_change"}, {"time": 4664, "annotation": {"number": 10, "value": 61}, "group": "control_change"}, {"time": 4679, "annotation": {"number": 10, "value": 54}, "group": "control_change"}, {"time": 4708, "annotation": {"number": 10, "value": 41}, "group": "control_change"}, {"time": 4739, "annotation": {"number": 10, "value": 31}, "group": "control_change"}, {"time": 4752, "annotation": {"number": 10, "value": 24}, "group": "control_change"}, {"time": 4856, "annotation": {"number": 10, "value": 26}, "group": "control_change"}, {"time": 4888, "annotation": {"number": 10, "value": 39}, "group": "control_change"}, {"time": 4900, "annotation": {"number": 10, "value": 48}, "group": "control_change"}, {"time": 4916, "annotation": {"number": 10, "value": 56}, "group": "control_change"}, {"time": 4945, "annotation": {"number": 10, "value": 69}, "group": "control_change"}, {"time": 4992, "annotation": {"number": 10, "value": 76}, "group": "control_change"}, {"time": 5109, "annotation": {"number": 10, "value": 76}, "group": "control_change"}, {"time": 5141, "annotation": {"number": 10, "value": 68}, "group": "control_change"}, {"time": 5153, "annotation": {"number": 10, "value": 61}, "group": "control_change"}, {"time": 5182, "annotation": {"number": 10, "value": 50}, "group": "control_change"}, {"time": 5213, "annotation": {"number": 10, "value": 42}, "group": "control_change"}, {"time": 5301, "annotation": {"number": 10, "value": 39}, "group": "control_change"}, {"time": 5332, "annotation": {"number": 10, "value": 51}, "group": "control_change"}, {"time": 5361, "annotation": {"number": 10, "value": 63}, "group": "control_change"}, {"time": 5377, "annotation": {"number": 10, "value": 71}, "group": "control_change"}, {"time": 5389, "annotation": {"number": 10, "value": 78}, "group": "control_change"}, {"time": 5421, "annotation": {"number": 10, "value": 87}, "group": "control_change"}, {"time": 5525, "annotation": {"number": 10, "value": 91}, "group": "control_change"}, {"time": 5585, "annotation": {"number": 10, "value": 83}, "group": "control_change"}, {"time": 5598, "annotation": {"number": 10, "value": 76}, "group": "control_change"}, {"time": 5614, "annotation": {"number": 10, "value": 69}, "group": "control_change"}, {"time": 5629, "annotation": {"number": 10, "value": 60}, "group": "control_change"}, {"time": 5645, "annotation": {"number": 10, "value": 53}, "group": "control_change"}, {"time": 5658, "annotation": {"number": 10, "value": 46}, "group": "control_change"}, {"time": 5762, "annotation": {"number": 10, "value": 41}, "group": "control_change"}, {"time": 5794, "annotation": {"number": 10, "value": 51}, "group": "control_change"}, {"time": 5822, "annotation": {"number": 10, "value": 66}, "group": "control_change"}, {"time": 5838, "annotation": {"number": 10, "value": 74}, "group": "control_change"}, {"time": 5851, "annotation": {"number": 10, "value": 84}, "group": "control_change"}, {"time": 5866, "annotation": {"number": 10, "value": 93}, "group": "control_change"}, {"time": 5895, "annotation": {"number": 10, "value": 103}, "group": "control_change"}, {"time": 6031, "annotation": {"number": 10, "value": 105}, "group": "control_change"}, {"time": 6059, "annotation": {"number": 10, "value": 94}, "group": "control_change"}, {"time": 6075, "annotation": {"number": 10, "value": 87}, "group": "control_change"}, {"time": 6091, "annotation": {"number": 10, "value": 78}, "group": "control_change"}, {"time": 6104, "annotation": {"number": 10, "value": 68}, "group": "control_change"}, {"time": 6119, "annotation": {"number": 10, "value": 60}, "group": "control_change"}, {"time": 6148, "annotation": {"number": 10, "value": 50}, "group": "control_change"}, {"time": 6208, "annotation": {"number": 10, "value": 48}, "group": "control_change"}, {"time": 6255, "annotation": {"number": 10, "value": 52}, "group": "control_change"}, {"time": 6283, "annotation": {"number": 10, "value": 62}, "group": "control_change"}, {"time": 6300, "annotation": {"number": 10, "value": 71}, "group": "control_change"}, {"time": 6312, "annotation": {"number": 10, "value": 80}, "group": "control_change"}, {"time": 6328, "annotation": {"number": 10, "value": 88}, "group": "control_change"}, {"time": 6344, "annotation": {"number": 10, "value": 96}, "group": "control_change"}, {"time": 6385, "annotation": {"number": 10, "value": 106}, "group": "control_change"}, {"time": 6476, "annotation": {"number": 10, "value": 106}, "group": "control_change"}, {"time": 6508, "annotation": {"number": 10, "value": 95}, "group": "control_change"}, {"time": 6521, "annotation": {"number": 10, "value": 88}, "group": "control_change"}, {"time": 6536, "annotation": {"number": 10, "value": 79}, "group": "control_change"}, {"time": 6552, "annotation": {"number": 10, "value": 72}, "group": "control_change"}, {"time": 6565, "annotation": {"number": 10, "value": 65}, "group": "control_change"}, {"time": 6596, "annotation": {"number": 10, "value": 57}, "group": "control_change"}, {"time": 6669, "annotation": {"number": 10, "value": 56}, "group": "control_change"}, {"time": 6729, "annotation": {"number": 10, "value": 65}, "group": "control_change"}, {"time": 6757, "annotation": {"number": 10, "value": 79}, "group": "control_change"}, {"time": 6774, "annotation": {"number": 10, "value": 87}, "group": "control_change"}, {"time": 6788, "annotation": {"number": 10, "value": 95}, "group": "control_change"}, {"time": 6804, "annotation": {"number": 10, "value": 102}, "group": "control_change"}, {"time": 6833, "annotation": {"number": 10, "value": 112}, "group": "control_change"}, {"time": 6953, "annotation": {"number": 10, "value": 113}, "group": "control_change"}, {"time": 6981, "annotation": {"number": 10, "value": 100}, "group": "control_change"}, {"time": 6997, "annotation": {"number": 10, "value": 93}, "group": "control_change"}, {"time": 7012, "annotation": {"number": 10, "value": 83}, "group": "control_change"}, {"time": 7025, "annotation": {"number": 10, "value": 76}, "group": "control_change"}, {"time": 7041, "annotation": {"number": 10, "value": 68}, "group": "control_change"}, {"time": 7057, "annotation": {"number": 10, "value": 61}, "group": "control_change"}, {"time": 7085, "annotation": {"number": 10, "value": 52}, "group": "control_change"}, {"time": 7101, "annotation": {"number": 10, "value": 50}, "group": "control_change"}, {"time": 7113, "annotation": {"number": 10, "value": 48}, "group": "control_change"}, {"time": 7218, "annotation": {"number": 10, "value": 50}, "group": "control_change"}, {"time": 7250, "annotation": {"number": 10, "value": 60}, "group": "control_change"}, {"time": 7278, "annotation": {"number": 10, "value": 74}, "group": "control_change"}, {"time": 7310, "annotation": {"number": 10, "value": 87}, "group": "control_change"}, {"time": 7338, "annotation": {"number": 10, "value": 95}, "group": "control_change"}, {"time": 7487, "annotation": {"number": 10, "value": 96}, "group": "control_change"}, {"time": 7515, "annotation": {"number": 10, "value": 88}, "group": "control_change"}, {"time": 7531, "annotation": {"number": 10, "value": 81}, "group": "control_change"}, {"time": 7546, "annotation": {"number": 10, "value": 73}, "group": "control_change"}, {"time": 7559, "annotation": {"number": 10, "value": 64}, "group": "control_change"}, {"time": 7575, "annotation": {"number": 10, "value": 53}, "group": "control_change"}, {"time": 7591, "annotation": {"number": 10, "value": 46}, "group": "control_change"}, {"time": 7619, "annotation": {"number": 10, "value": 37}, "group": "control_change"}, {"time": 7724, "annotation": {"number": 10, "value": 39}, "group": "control_change"}, {"time": 7757, "annotation": {"number": 10, "value": 52}, "group": "control_change"}, {"time": 7773, "annotation": {"number": 10, "value": 62}, "group": "control_change"}, {"time": 7787, "annotation": {"number": 10, "value": 72}, "group": "control_change"}, {"time": 7802, "annotation": {"number": 10, "value": 83}, "group": "control_change"}, {"time": 7818, "annotation": {"number": 10, "value": 92}, "group": "control_change"}, {"time": 7832, "annotation": {"number": 10, "value": 99}, "group": "control_change"}, {"time": 7864, "annotation": {"number": 10, "value": 105}, "group": "control_change"}, {"time": 7974, "annotation": {"number": 10, "value": 104}, "group": "control_change"}, {"time": 8000, "annotation": {"number": 10, "value": 95}, "group": "control_change"}, {"time": 8017, "annotation": {"number": 10, "value": 87}, "group": "control_change"}, {"time": 8033, "annotation": {"number": 10, "value": 80}, "group": "control_change"}, {"time": 8045, "annotation": {"number": 10, "value": 71}, "group": "control_change"}, {"time": 8078, "annotation": {"number": 10, "value": 57}, "group": "control_change"}, {"time": 8213, "annotation": {"number": 10, "value": 52}, "group": "control_change"}, {"time": 8257, "annotation": {"number": 10, "value": 60}, "group": "control_change"}, {"time": 8286, "annotation": {"number": 10, "value": 72}, "group": "control_change"}, {"time": 8317, "annotation": {"number": 10, "value": 85}, "group": "control_change"}, {"time": 8345, "annotation": {"number": 10, "value": 96}, "group": "control_change"}, {"time": 8481, "annotation": {"number": 10, "value": 100}, "group": "control_change"}, {"time": 8510, "annotation": {"number": 10, "value": 90}, "group": "control_change"}, {"time": 8541, "annotation": {"number": 10, "value": 76}, "group": "control_change"}, {"time": 8570, "annotation": {"number": 10, "value": 60}, "group": "control_change"}, {"time": 8585, "annotation": {"number": 10, "value": 53}, "group": "control_change"}, {"time": 8614, "annotation": {"number": 10, "value": 44}, "group": "control_change"}, {"time": 8690, "annotation": {"number": 10, "value": 43}, "group": "control_change"}, {"time": 8734, "annotation": {"number": 10, "value": 51}, "group": "control_change"}, {"time": 8762, "annotation": {"number": 10, "value": 63}, "group": "control_change"}, {"time": 8794, "annotation": {"number": 10, "value": 73}, "group": "control_change"}, {"time": 8807, "annotation": {"number": 10, "value": 80}, "group": "control_change"}, {"time": 8822, "annotation": {"number": 10, "value": 83}, "group": "control_change"}, {"time": 8839, "annotation": {"number": 10, "value": 84}, "group": "control_change"}, {"time": 8942, "annotation": {"number": 10, "value": 84}, "group": "control_change"}, {"time": 8971, "annotation": {"number": 10, "value": 77}, "group": "control_change"}, {"time": 9003, "annotation": {"number": 10, "value": 65}, "group": "control_change"}, {"time": 9031, "annotation": {"number": 10, "value": 52}, "group": "control_change"}, {"time": 9060, "annotation": {"number": 10, "value": 40}, "group": "control_change"}, {"time": 9151, "annotation": {"number": 10, "value": 35}, "group": "control_change"}, {"time": 9224, "annotation": {"number": 10, "value": 44}, "group": "control_change"}, {"time": 9239, "annotation": {"number": 10, "value": 51}, "group": "control_change"}, {"time": 9267, "annotation": {"number": 10, "value": 65}, "group": "control_change"}, {"time": 9299, "annotation": {"number": 10, "value": 72}, "group": "control_change"}, {"time": 9431, "annotation": {"number": 10, "value": 74}, "group": "control_change"}, {"time": 9460, "annotation": {"number": 10, "value": 67}, "group": "control_change"}, {"time": 9492, "annotation": {"number": 10, "value": 56}, "group": "control_change"}, {"time": 9520, "annotation": {"number": 10, "value": 43}, "group": "control_change"}, {"time": 9548, "annotation": {"number": 10, "value": 36}, "group": "control_change"}, {"time": 9640, "annotation": {"number": 10, "value": 35}, "group": "control_change"}, {"time": 9669, "annotation": {"number": 10, "value": 43}, "group": "control_change"}, {"time": 9684, "annotation": {"number": 10, "value": 49}, "group": "control_change"}, {"time": 9700, "annotation": {"number": 10, "value": 55}, "group": "control_change"}, {"time": 9728, "annotation": {"number": 10, "value": 67}, "group": "control_change"}, {"time": 9757, "annotation": {"number": 10, "value": 78}, "group": "control_change"}, {"time": 9789, "annotation": {"number": 10, "value": 85}, "group": "control_change"}, {"time": 9909, "annotation": {"number": 10, "value": 85}, "group": "control_change"}, {"time": 9937, "annotation": {"number": 10, "value": 77}, "group": "control_change"}, {"time": 9953, "annotation": {"number": 10, "value": 70}, "group": "control_change"}, {"time": 9981, "annotation": {"number": 10, "value": 59}, "group": "control_change"}, {"time": 9997, "annotation": {"number": 10, "value": 51}, "group": "control_change"}, {"time": 10070, "annotation": {"number": 10, "value": 44}, "group": "control_change"}, {"time": 10145, "annotation": {"number": 10, "value": 48}, "group": "control_change"}, {"time": 10174, "annotation": {"number": 10, "value": 57}, "group": "control_change"}, {"time": 10206, "annotation": {"number": 10, "value": 68}, "group": "control_change"}, {"time": 10234, "annotation": {"number": 10, "value": 80}, "group": "control_change"}, {"time": 10263, "annotation": {"number": 10, "value": 87}, "group": "control_change"}, {"time": 10383, "annotation": {"number": 10, "value": 89}, "group": "control_change"}, {"time": 10427, "annotation": {"number": 10, "value": 79}, "group": "control_change"}, {"time": 10443, "annotation": {"number": 10, "value": 71}, "group": "control_change"}, {"time": 10471, "annotation": {"number": 10, "value": 61}, "group": "control_change"}, {"time": 10503, "annotation": {"number": 10, "value": 53}, "group": "control_change"}, {"time": 10547, "annotation": {"number": 10, "value": 48}, "group": "control_change"}, {"time": 10635, "annotation": {"number": 10, "value": 51}, "group": "control_change"}, {"time": 10679, "annotation": {"number": 10, "value": 63}, "group": "control_change"}, {"time": 10696, "annotation": {"number": 10, "value": 71}, "group": "control_change"}, {"time": 10724, "annotation": {"number": 10, "value": 82}, "group": "control_change"}, {"time": 10754, "annotation": {"number": 10, "value": 90}, "group": "control_change"}, {"time": 10903, "annotation": {"number": 10, "value": 93}, "group": "control_change"}, {"time": 10931, "annotation": {"number": 10, "value": 81}, "group": "control_change"}, {"time": 10947, "annotation": {"number": 10, "value": 74}, "group": "control_change"}, {"time": 10963, "annotation": {"number": 10, "value": 67}, "group": "control_change"}, {"time": 10976, "annotation": {"number": 10, "value": 60}, "group": "control_change"}, {"time": 11007, "annotation": {"number": 10, "value": 49}, "group": "control_change"}, {"time": 11124, "annotation": {"number": 10, "value": 46}, "group": "control_change"}, {"time": 11156, "annotation": {"number": 10, "value": 53}, "group": "control_change"}, {"time": 11172, "annotation": {"number": 10, "value": 62}, "group": "control_change"}, {"time": 11184, "annotation": {"number": 10, "value": 69}, "group": "control_change"}, {"time": 11200, "annotation": {"number": 10, "value": 77}, "group": "control_change"}, {"time": 11229, "annotation": {"number": 10, "value": 91}, "group": "control_change"}, {"time": 11260, "annotation": {"number": 10, "value": 98}, "group": "control_change"}, {"time": 11377, "annotation": {"number": 10, "value": 98}, "group": "control_change"}, {"time": 11408, "annotation": {"number": 10, "value": 87}, "group": "control_change"}, {"time": 11421, "annotation": {"number": 10, "value": 79}, "group": "control_change"}, {"time": 11437, "annotation": {"number": 10, "value": 70}, "group": "control_change"}, {"time": 11453, "annotation": {"number": 10, "value": 61}, "group": "control_change"}, {"time": 11469, "annotation": {"number": 10, "value": 53}, "group": "control_change"}, {"time": 11481, "annotation": {"number": 10, "value": 46}, "group": "control_change"}, {"time": 11585, "annotation": {"number": 10, "value": 39}, "group": "control_change"}, {"time": 11630, "annotation": {"number": 10, "value": 46}, "group": "control_change"}, {"time": 11662, "annotation": {"number": 10, "value": 56}, "group": "control_change"}, {"time": 11690, "annotation": {"number": 10, "value": 67}, "group": "control_change"}, {"time": 11706, "annotation": {"number": 10, "value": 74}, "group": "control_change"}, {"time": 11734, "annotation": {"number": 10, "value": 82}, "group": "control_change"}, {"time": 11766, "annotation": {"number": 10, "value": 89}, "group": "control_change"}, {"time": 11898, "annotation": {"number": 10, "value": 87}, "group": "control_change"}, {"time": 11930, "annotation": {"number": 10, "value": 76}, "group": "control_change"}, {"time": 11943, "annotation": {"number": 10, "value": 69}, "group": "control_change"}, {"time": 11959, "annotation": {"number": 10, "value": 62}, "group": "control_change"}, {"time": 11974, "annotation": {"number": 10, "value": 55}, "group": "control_change"}, {"time": 11987, "annotation": {"number": 10, "value": 47}, "group": "control_change"}, {"time": 12018, "annotation": {"number": 10, "value": 37}, "group": "control_change"}, {"time": 12136, "annotation": {"number": 10, "value": 37}, "group": "control_change"}, {"time": 12167, "annotation": {"number": 10, "value": 46}, "group": "control_change"}, {"time": 12195, "annotation": {"number": 10, "value": 57}, "group": "control_change"}, {"time": 12226, "annotation": {"number": 10, "value": 69}, "group": "control_change"}, {"time": 12255, "annotation": {"number": 10, "value": 79}, "group": "control_change"}, {"time": 12270, "annotation": {"number": 10, "value": 82}, "group": "control_change"}, {"time": 12286, "annotation": {"number": 10, "value": 83}, "group": "control_change"}, {"time": 12374, "annotation": {"number": 10, "value": 84}, "group": "control_change"}, {"time": 12435, "annotation": {"number": 10, "value": 73}, "group": "control_change"}, {"time": 12463, "annotation": {"number": 10, "value": 62}, "group": "control_change"}, {"time": 12482, "annotation": {"number": 10, "value": 54}, "group": "control_change"}, {"time": 12491, "annotation": {"number": 10, "value": 47}, "group": "control_change"}, {"time": 12523, "annotation": {"number": 10, "value": 37}, "group": "control_change"}, {"time": 12656, "annotation": {"number": 10, "value": 38}, "group": "control_change"}, {"time": 12684, "annotation": {"number": 10, "value": 47}, "group": "control_change"}, {"time": 12716, "annotation": {"number": 10, "value": 57}, "group": "control_change"}, {"time": 12745, "annotation": {"number": 10, "value": 67}, "group": "control_change"}, {"time": 12776, "annotation": {"number": 10, "value": 76}, "group": "control_change"}, {"time": 12804, "annotation": {"number": 10, "value": 85}, "group": "control_change"}, {"time": 12909, "annotation": {"number": 10, "value": 89}, "group": "control_change"}, {"time": 12953, "annotation": {"number": 10, "value": 78}, "group": "control_change"}, {"time": 12984, "annotation": {"number": 10, "value": 66}, "group": "control_change"}, {"time": 12997, "annotation": {"number": 10, "value": 59}, "group": "control_change"}, {"time": 13013, "annotation": {"number": 10, "value": 51}, "group": "control_change"}, {"time": 13041, "annotation": {"number": 10, "value": 39}, "group": "control_change"}, {"time": 13117, "annotation": {"number": 10, "value": 35}, "group": "control_change"}, {"time": 13177, "annotation": {"number": 10, "value": 38}, "group": "control_change"}, {"time": 13206, "annotation": {"number": 10, "value": 48}, "group": "control_change"}, {"time": 13222, "annotation": {"number": 10, "value": 55}, "group": "control_change"}, {"time": 13237, "annotation": {"number": 10, "value": 62}, "group": "control_change"}, {"time": 13250, "annotation": {"number": 10, "value": 71}, "group": "control_change"}, {"time": 13266, "annotation": {"number": 10, "value": 78}, "group": "control_change"}, {"time": 13294, "annotation": {"number": 10, "value": 91}, "group": "control_change"}, {"time": 13414, "annotation": {"number": 10, "value": 95}, "group": "control_change"}, {"time": 13446, "annotation": {"number": 10, "value": 84}, "group": "control_change"}, {"time": 13458, "annotation": {"number": 10, "value": 76}, "group": "control_change"}, {"time": 13477, "annotation": {"number": 10, "value": 68}, "group": "control_change"}, {"time": 13490, "annotation": {"number": 10, "value": 59}, "group": "control_change"}, {"time": 13503, "annotation": {"number": 10, "value": 50}, "group": "control_change"}, {"time": 13534, "annotation": {"number": 10, "value": 37}, "group": "control_change"}, {"time": 13651, "annotation": {"number": 10, "value": 34}, "group": "control_change"}, {"time": 13699, "annotation": {"number": 10, "value": 48}, "group": "control_change"}, {"time": 13711, "annotation": {"number": 10, "value": 55}, "group": "control_change"}, {"time": 13726, "annotation": {"number": 10, "value": 62}, "group": "control_change"}, {"time": 13754, "annotation": {"number": 10, "value": 74}, "group": "control_change"}, {"time": 13786, "annotation": {"number": 10, "value": 82}, "group": "control_change"}, {"time": 13890, "annotation": {"number": 10, "value": 84}, "group": "control_change"}, {"time": 13934, "annotation": {"number": 10, "value": 71}, "group": "control_change"}, {"time": 13953, "annotation": {"number": 10, "value": 64}, "group": "control_change"}, {"time": 13963, "annotation": {"number": 10, "value": 55}, "group": "control_change"}, {"time": 13979, "annotation": {"number": 10, "value": 47}, "group": "control_change"}, {"time": 13995, "annotation": {"number": 10, "value": 42}, "group": "control_change"}, {"time": 14007, "annotation": {"number": 10, "value": 38}, "group": "control_change"}, {"time": 14099, "annotation": {"number": 10, "value": 37}, "group": "control_change"}, {"time": 14128, "annotation": {"number": 10, "value": 45}, "group": "control_change"}, {"time": 14156, "annotation": {"number": 10, "value": 56}, "group": "control_change"}, {"time": 14187, "annotation": {"number": 10, "value": 67}, "group": "control_change"}, {"time": 14216, "annotation": {"number": 10, "value": 75}, "group": "control_change"}, {"time": 14253, "annotation": {"number": 1, "value": 126}, "group": "control_change"}, {"time": 14260, "annotation": {"number": 1, "value": 123}, "group": "control_change"}, {"time": 14267, "annotation": {"number": 1, "value": 121}, "group": "control_change"}, {"time": 14275, "annotation": {"number": 1, "value": 118}, "group": "control_change"}, {"time": 14282, "annotation": {"number": 1, "value": 115}, "group": "control_change"}, {"time": 14290, "annotation": {"number": 1, "value": 113}, "group": "control_change"}, {"time": 14298, "annotation": {"number": 1, "value": 110}, "group": "control_change"}, {"time": 14305, "annotation": {"number": 1, "value": 108}, "group": "control_change"}, {"time": 14307, "annotation": {"number": 10, "value": 79}, "group": "control_change"}, {"time": 14313, "annotation": {"number": 1, "value": 106}, "group": "control_change"}, {"time": 14321, "annotation": {"number": 1, "value": 104}, "group": "control_change"}, {"time": 14329, "annotation": {"number": 1, "value": 102}, "group": "control_change"}, {"time": 14336, "annotation": {"number": 1, "value": 100}, "group": "control_change"}, {"time": 14344, "annotation": {"number": 1, "value": 99}, "group": "control_change"}, {"time": 14351, "annotation": {"number": 1, "value": 97}, "group": "control_change"}, {"time": 14359, "annotation": {"number": 1, "value": 96}, "group": "control_change"}, {"time": 14364, "annotation": {"number": 10, "value": 72}, "group": "control_change"}, {"time": 14396, "annotation": {"number": 10, "value": 61}, "group": "control_change"}, {"time": 14404, "annotation": {"number": 1, "value": 98}, "group": "control_change"}, {"time": 14411, "annotation": {"number": 1, "value": 100}, "group": "control_change"}, {"time": 14412, "annotation": {"number": 10, "value": 54}, "group": "control_change"}, {"time": 14419, "annotation": {"number": 1, "value": 103}, "group": "control_change"}, {"time": 14425, "annotation": {"number": 10, "value": 47}, "group": "control_change"}, {"time": 14426, "annotation": {"number": 1, "value": 106}, "group": "control_change"}, {"time": 14434, "annotation": {"number": 1, "value": 110}, "group": "control_change"}, {"time": 14440, "annotation": {"number": 10, "value": 39}, "group": "control_change"}, {"time": 14441, "annotation": {"number": 1, "value": 114}, "group": "control_change"}, {"time": 14449, "annotation": {"number": 1, "value": 119}, "group": "control_change"}, {"time": 14456, "annotation": {"number": 1, "value": 124}, "group": "control_change"}, {"time": 14464, "annotation": {"number": 1, "value": 127}, "group": "control_change"}, {"time": 14469, "annotation": {"number": 10, "value": 31}, "group": "control_change"}, {"time": 14573, "annotation": {"number": 10, "value": 35}, "group": "control_change"}, {"time": 14582, "annotation": {"number": 1, "value": 122}, "group": "control_change"}, {"time": 14590, "annotation": {"number": 1, "value": 117}, "group": "control_change"}, {"time": 14598, "annotation": {"number": 1, "value": 112}, "group": "control_change"}, {"time": 14605, "annotation": {"number": 10, "value": 48}, "group": "control_change"}, {"time": 14605, "annotation": {"number": 1, "value": 107}, "group": "control_change"}, {"time": 14613, "annotation": {"number": 1, "value": 101}, "group": "control_change"}, {"time": 14621, "annotation": {"number": 1, "value": 96}, "group": "control_change"}, {"time": 14628, "annotation": {"number": 1, "value": 92}, "group": "control_change"}, {"time": 14633, "annotation": {"number": 10, "value": 63}, "group": "control_change"}, {"time": 14636, "annotation": {"number": 1, "value": 86}, "group": "control_change"}, {"time": 14644, "annotation": {"number": 1, "value": 81}, "group": "control_change"}, {"time": 14649, "annotation": {"number": 10, "value": 72}, "group": "control_change"}, {"time": 14651, "annotation": {"number": 1, "value": 76}, "group": "control_change"}, {"time": 14658, "annotation": {"number": 1, "value": 71}, "group": "control_change"}, {"time": 14667, "annotation": {"number": 1, "value": 67}, "group": "control_change"}, {"time": 14674, "annotation": {"number": 1, "value": 64}, "group": "control_change"}, {"time": 14677, "annotation": {"number": 10, "value": 87}, "group": "control_change"}, {"time": 14709, "annotation": {"number": 10, "value": 98}, "group": "control_change"}, {"time": 14740, "annotation": {"number": 1, "value": 63}, "group": "control_change"}, {"time": 14748, "annotation": {"number": 1, "value": 61}, "group": "control_change"}, {"time": 14755, "annotation": {"number": 1, "value": 60}, "group": "control_change"}, {"time": 14763, "annotation": {"number": 1, "value": 59}, "group": "control_change"}, {"time": 14770, "annotation": {"number": 1, "value": 58}, "group": "control_change"}, {"time": 14826, "annotation": {"number": 10, "value": 98}, "group": "control_change"}, {"time": 14829, "annotation": {"number": 1, "value": 61}, "group": "control_change"}, {"time": 14838, "annotation": {"number": 1, "value": 62}, "group": "control_change"}, {"time": 14845, "annotation": {"number": 1, "value": 64}, "group": "control_change"}, {"time": 14857, "annotation": {"number": 10, "value": 86}, "group": "control_change"}, {"time": 14873, "annotation": {"number": 10, "value": 79}, "group": "control_change"}, {"time": 14886, "annotation": {"number": 10, "value": 72}, "group": "control_change"}, {"time": 14902, "annotation": {"number": 10, "value": 63}, "group": "control_change"}, {"time": 14914, "annotation": {"number": 10, "value": 56}, "group": "control_change"}, {"time": 14934, "annotation": {"number": 1, "value": 68}, "group": "control_change"}, {"time": 14942, "annotation": {"number": 1, "value": 73}, "group": "control_change"}, {"time": 14946, "annotation": {"number": 10, "value": 46}, "group": "control_change"}, {"time": 14950, "annotation": {"number": 1, "value": 80}, "group": "control_change"}, {"time": 14957, "annotation": {"number": 1, "value": 87}, "group": "control_change"}, {"time": 14965, "annotation": {"number": 1, "value": 93}, "group": "control_change"}, {"time": 14972, "annotation": {"number": 1, "value": 98}, "group": "control_change"}, {"time": 14980, "annotation": {"number": 1, "value": 103}, "group": "control_change"}, {"time": 14988, "annotation": {"number": 1, "value": 108}, "group": "control_change"}, {"time": 14996, "annotation": {"number": 1, "value": 112}, "group": "control_change"}, {"time": 15003, "annotation": {"number": 1, "value": 116}, "group": "control_change"}, {"time": 15010, "annotation": {"number": 1, "value": 120}, "group": "control_change"}, {"time": 15018, "annotation": {"number": 1, "value": 123}, "group": "control_change"}, {"time": 15026, "annotation": {"number": 1, "value": 126}, "group": "control_change"}, {"time": 15033, "annotation": {"number": 1, "value": 127}, "group": "control_change"}, {"time": 15050, "annotation": {"number": 10, "value": 48}, "group": "control_change"}, {"time": 15079, "annotation": {"number": 10, "value": 59}, "group": "control_change"}, {"time": 15094, "annotation": {"number": 10, "value": 67}, "group": "control_change"}, {"time": 15113, "annotation": {"number": 10, "value": 74}, "group": "control_change"}, {"time": 15129, "annotation": {"number": 1, "value": 124}, "group": "control_change"}, {"time": 15137, "annotation": {"number": 1, "value": 120}, "group": "control_change"}, {"time": 15138, "annotation": {"number": 10, "value": 85}, "group": "control_change"}, {"time": 15144, "annotation": {"number": 1, "value": 116}, "group": "control_change"}, {"time": 15152, "annotation": {"number": 1, "value": 111}, "group": "control_change"}, {"time": 15159, "annotation": {"number": 1, "value": 105}, "group": "control_change"}, {"time": 15167, "annotation": {"number": 1, "value": 99}, "group": "control_change"}, {"time": 15170, "annotation": {"number": 10, "value": 93}, "group": "control_change"}, {"time": 15175, "annotation": {"number": 1, "value": 92}, "group": "control_change"}, {"time": 15182, "annotation": {"number": 1, "value": 84}, "group": "control_change"}, {"time": 15190, "annotation": {"number": 1, "value": 76}, "group": "control_change"}, {"time": 15197, "annotation": {"number": 1, "value": 68}, "group": "control_change"}, {"time": 15204, "annotation": {"number": 1, "value": 64}, "group": "control_change"}, {"time": 15233, "annotation": {"number": 1, "value": 62}, "group": "control_change"}, {"time": 15242, "annotation": {"number": 1, "value": 56}, "group": "control_change"}, {"time": 15242, "annotation": {"number": 10, "value": 94}, "group": "control_change"}, {"time": 15250, "annotation": {"number": 1, "value": 52}, "group": "control_change"}, {"time": 15257, "annotation": {"number": 1, "value": 49}, "group": "control_change"}, {"time": 15265, "annotation": {"number": 1, "value": 47}, "group": "control_change"}, {"time": 15270, "annotation": {"number": 10, "value": 86}, "group": "control_change"}, {"time": 15273, "annotation": {"number": 1, "value": 45}, "group": "control_change"}, {"time": 15302, "annotation": {"number": 10, "value": 73}, "group": "control_change"}, {"time": 15302, "annotation": {"number": 1, "value": 48}, "group": "control_change"}, {"time": 15310, "annotation": {"number": 1, "value": 51}, "group": "control_change"}, {"time": 15317, "annotation": {"number": 1, "value": 56}, "group": "control_change"}, {"time": 15318, "annotation": {"number": 10, "value": 62}, "group": "control_change"}, {"time": 15325, "annotation": {"number": 1, "value": 61}, "group": "control_change"}, {"time": 15330, "annotation": {"number": 10, "value": 53}, "group": "control_change"}, {"time": 15332, "annotation": {"number": 1, "value": 64}, "group": "control_change"}, {"time": 15346, "annotation": {"number": 10, "value": 44}, "group": "control_change"}, {"time": 15363, "annotation": {"number": 1, "value": 65}, "group": "control_change"}, {"time": 15369, "annotation": {"number": 1, "value": 71}, "group": "control_change"}, {"time": 15374, "annotation": {"number": 10, "value": 37}, "group": "control_change"}, {"time": 15377, "annotation": {"number": 1, "value": 79}, "group": "control_change"}, {"time": 15385, "annotation": {"number": 1, "value": 86}, "group": "control_change"}, {"time": 15392, "annotation": {"number": 1, "value": 94}, "group": "control_change"}, {"time": 15400, "annotation": {"number": 1, "value": 101}, "group": "control_change"}, {"time": 15407, "annotation": {"number": 1, "value": 107}, "group": "control_change"}, {"time": 15415, "annotation": {"number": 1, "value": 114}, "group": "control_change"}, {"time": 15423, "annotation": {"number": 1, "value": 120}, "group": "control_change"}, {"time": 15430, "annotation": {"number": 1, "value": 125}, "group": "control_change"}, {"time": 15438, "annotation": {"number": 1, "value": 127}, "group": "control_change"}, {"time": 15466, "annotation": {"number": 10, "value": 36}, "group": "control_change"}, {"time": 15494, "annotation": {"number": 10, "value": 44}, "group": "control_change"}, {"time": 15511, "annotation": {"number": 10, "value": 51}, "group": "control_change"}, {"time": 15526, "annotation": {"number": 10, "value": 58}, "group": "control_change"}, {"time": 15539, "annotation": {"number": 10, "value": 65}, "group": "control_change"}, {"time": 15555, "annotation": {"number": 10, "value": 74}, "group": "control_change"}, {"time": 15583, "annotation": {"number": 10, "value": 85}, "group": "control_change"}, {"time": 15609, "annotation": {"number": 1, "value": 122}, "group": "control_change"}, {"time": 15616, "annotation": {"number": 1, "value": 116}, "group": "control_change"}, {"time": 15624, "annotation": {"number": 1, "value": 111}, "group": "control_change"}, {"time": 15631, "annotation": {"number": 1, "value": 104}, "group": "control_change"}, {"time": 15638, "annotation": {"number": 1, "value": 98}, "group": "control_change"}, {"time": 15646, "annotation": {"number": 1, "value": 91}, "group": "control_change"}, {"time": 15653, "annotation": {"number": 1, "value": 83}, "group": "control_change"}, {"time": 15661, "annotation": {"number": 1, "value": 76}, "group": "control_change"}, {"time": 15668, "annotation": {"number": 1, "value": 69}, "group": "control_change"}, {"time": 15676, "annotation": {"number": 1, "value": 64}, "group": "control_change"}, {"time": 15703, "annotation": {"number": 10, "value": 90}, "group": "control_change"}, {"time": 15715, "annotation": {"number": 1, "value": 58}, "group": "control_change"}, {"time": 15719, "annotation": {"number": 10, "value": 86}, "group": "control_change"}, {"time": 15722, "annotation": {"number": 1, "value": 54}, "group": "control_change"}, {"time": 15728, "annotation": {"number": 1, "value": 50}, "group": "control_change"}, {"time": 15735, "annotation": {"number": 10, "value": 81}, "group": "control_change"}, {"time": 15736, "annotation": {"number": 1, "value": 47}, "group": "control_change"}, {"time": 15744, "annotation": {"number": 1, "value": 45}, "group": "control_change"}, {"time": 15747, "annotation": {"number": 10, "value": 73}, "group": "control_change"}, {"time": 15751, "annotation": {"number": 1, "value": 44}, "group": "control_change"}, {"time": 15763, "annotation": {"number": 10, "value": 64}, "group": "control_change"}, {"time": 15779, "annotation": {"number": 10, "value": 56}, "group": "control_change"}, {"time": 15789, "annotation": {"number": 1, "value": 47}, "group": "control_change"}, {"time": 15792, "annotation": {"number": 10, "value": 47}, "group": "control_change"}, {"time": 15796, "annotation": {"number": 1, "value": 50}, "group": "control_change"}, {"time": 15804, "annotation": {"number": 1, "value": 53}, "group": "control_change"}, {"time": 15812, "annotation": {"number": 1, "value": 56}, "group": "control_change"}, {"time": 15823, "annotation": {"number": 10, "value": 40}, "group": "control_change"}, {"time": 15864, "annotation": {"number": 1, "value": 69}, "group": "control_change"}, {"time": 15872, "annotation": {"number": 1, "value": 75}, "group": "control_change"}, {"time": 15879, "annotation": {"number": 1, "value": 82}, "group": "control_change"}, {"time": 15887, "annotation": {"number": 1, "value": 89}, "group": "control_change"}, {"time": 15894, "annotation": {"number": 1, "value": 96}, "group": "control_change"}, {"time": 15903, "annotation": {"number": 1, "value": 101}, "group": "control_change"}, {"time": 15910, "annotation": {"number": 1, "value": 107}, "group": "control_change"}, {"time": 15912, "annotation": {"number": 10, "value": 40}, "group": "control_change"}, {"time": 15918, "annotation": {"number": 1, "value": 112}, "group": "control_change"}, {"time": 15925, "annotation": {"number": 1, "value": 117}, "group": "control_change"}, {"time": 15933, "annotation": {"number": 1, "value": 121}, "group": "control_change"}, {"time": 15940, "annotation": {"number": 1, "value": 125}, "group": "control_change"}, {"time": 15940, "annotation": {"number": 10, "value": 47}, "group": "control_change"}, {"time": 15948, "annotation": {"number": 1, "value": 127}, "group": "control_change"}, {"time": 15956, "annotation": {"number": 10, "value": 54}, "group": "control_change"}, {"time": 15972, "annotation": {"number": 10, "value": 61}, "group": "control_change"}, {"time": 15984, "annotation": {"number": 10, "value": 68}, "group": "control_change"}, {"time": 16016, "annotation": {"number": 10, "value": 79}, "group": "control_change"}, {"time": 16045, "annotation": {"number": 10, "value": 87}, "group": "control_change"}, {"time": 16080, "annotation": {"number": 1, "value": 125}, "group": "control_change"}, {"time": 16088, "annotation": {"number": 1, "value": 120}, "group": "control_change"}, {"time": 16095, "annotation": {"number": 1, "value": 114}, "group": "control_change"}, {"time": 16103, "annotation": {"number": 1, "value": 109}, "group": "control_change"}, {"time": 16111, "annotation": {"number": 1, "value": 102}, "group": "control_change"}, {"time": 16118, "annotation": {"number": 1, "value": 96}, "group": "control_change"}, {"time": 16126, "annotation": {"number": 1, "value": 89}, "group": "control_change"}, {"time": 16134, "annotation": {"number": 1, "value": 82}, "group": "control_change"}, {"time": 16141, "annotation": {"number": 1, "value": 74}, "group": "control_change"}, {"time": 16149, "annotation": {"number": 1, "value": 68}, "group": "control_change"}, {"time": 16156, "annotation": {"number": 1, "value": 66}, "group": "control_change"}, {"time": 16165, "annotation": {"number": 10, "value": 85}, "group": "control_change"}, {"time": 16187, "annotation": {"number": 1, "value": 63}, "group": "control_change"}, {"time": 16193, "annotation": {"number": 10, "value": 74}, "group": "control_change"}, {"time": 16194, "annotation": {"number": 1, "value": 60}, "group": "control_change"}, {"time": 16202, "annotation": {"number": 1, "value": 56}, "group": "control_change"}, {"time": 16209, "annotation": {"number": 10, "value": 66}, "group": "control_change"}, {"time": 16209, "annotation": {"number": 1, "value": 54}, "group": "control_change"}, {"time": 16217, "annotation": {"number": 1, "value": 53}, "group": "control_change"}, {"time": 16224, "annotation": {"number": 10, "value": 58}, "group": "control_change"}, {"time": 16237, "annotation": {"number": 10, "value": 49}, "group": "control_change"}, {"time": 16239, "annotation": {"number": 1, "value": 55}, "group": "control_change"}, {"time": 16246, "annotation": {"number": 1, "value": 58}, "group": "control_change"}, {"time": 16255, "annotation": {"number": 1, "value": 62}, "group": "control_change"}, {"time": 16262, "annotation": {"number": 1, "value": 66}, "group": "control_change"}, {"time": 16269, "annotation": {"number": 10, "value": 41}, "group": "control_change"}, {"time": 16291, "annotation": {"number": 1, "value": 69}, "group": "control_change"}, {"time": 16298, "annotation": {"number": 1, "value": 75}, "group": "control_change"}, {"time": 16307, "annotation": {"number": 1, "value": 82}, "group": "control_change"}, {"time": 16314, "annotation": {"number": 1, "value": 88}, "group": "control_change"}, {"time": 16322, "annotation": {"number": 1, "value": 95}, "group": "control_change"}, {"time": 16330, "annotation": {"number": 1, "value": 100}, "group": "control_change"}, {"time": 16337, "annotation": {"number": 1, "value": 106}, "group": "control_change"}, {"time": 16345, "annotation": {"number": 1, "value": 111}, "group": "control_change"}, {"time": 16352, "annotation": {"number": 1, "value": 116}, "group": "control_change"}, {"time": 16357, "annotation": {"number": 10, "value": 44}, "group": "control_change"}, {"time": 16359, "annotation": {"number": 1, "value": 120}, "group": "control_change"}, {"time": 16368, "annotation": {"number": 1, "value": 125}, "group": "control_change"}, {"time": 16375, "annotation": {"number": 1, "value": 127}, "group": "control_change"}, {"time": 16383, "annotation": {"number": 1, "value": 127}, "group": "control_change"}, {"time": 16386, "annotation": {"number": 10, "value": 51}, "group": "control_change"}, {"time": 16417, "annotation": {"number": 10, "value": 63}, "group": "control_change"}, {"time": 16430, "annotation": {"number": 10, "value": 70}, "group": "control_change"}, {"time": 16446, "annotation": {"number": 10, "value": 77}, "group": "control_change"}, {"time": 16477, "annotation": {"number": 10, "value": 84}, "group": "control_change"}, {"time": 16521, "annotation": {"number": 10, "value": 88}, "group": "control_change"}, {"time": 16594, "annotation": {"number": 10, "value": 84}, "group": "control_change"}, {"time": 16604, "annotation": {"number": 1, "value": 127}, "group": "control_change"}, {"time": 16611, "annotation": {"number": 1, "value": 124}, "group": "control_change"}, {"time": 16619, "annotation": {"number": 1, "value": 121}, "group": "control_change"}, {"time": 16626, "annotation": {"number": 10, "value": 73}, "group": "control_change"}, {"time": 16627, "annotation": {"number": 1, "value": 117}, "group": "control_change"}, {"time": 16634, "annotation": {"number": 1, "value": 113}, "group": "control_change"}, {"time": 16642, "annotation": {"number": 1, "value": 110}, "group": "control_change"}, {"time": 16650, "annotation": {"number": 1, "value": 106}, "group": "control_change"}, {"time": 16654, "annotation": {"number": 10, "value": 59}, "group": "control_change"}, {"time": 16657, "annotation": {"number": 1, "value": 103}, "group": "control_change"}, {"time": 16665, "annotation": {"number": 1, "value": 100}, "group": "control_change"}, {"time": 16672, "annotation": {"number": 1, "value": 98}, "group": "control_change"}, {"time": 16680, "annotation": {"number": 1, "value": 95}, "group": "control_change"}, {"time": 16686, "annotation": {"number": 10, "value": 47}, "group": "control_change"}, {"time": 16688, "annotation": {"number": 1, "value": 93}, "group": "control_change"}, {"time": 16696, "annotation": {"number": 1, "value": 90}, "group": "control_change"}, {"time": 16703, "annotation": {"number": 1, "value": 89}, "group": "control_change"}, {"time": 16711, "annotation": {"number": 1, "value": 88}, "group": "control_change"}, {"time": 16718, "annotation": {"number": 1, "value": 87}, "group": "control_change"}, {"time": 16725, "annotation": {"number": 1, "value": 86}, "group": "control_change"}, {"time": 16777, "annotation": {"number": 1, "value": 87}, "group": "control_change"}, {"time": 16786, "annotation": {"number": 10, "value": 44}, "group": "control_change"}, {"time": 16818, "annotation": {"number": 10, "value": 53}, "group": "control_change"}, {"time": 16846, "annotation": {"number": 10, "value": 66}, "group": "control_change"}, {"time": 16862, "annotation": {"number": 10, "value": 74}, "group": "control_change"}, {"time": 16878, "annotation": {"number": 10, "value": 81}, "group": "control_change"}, {"time": 16906, "annotation": {"number": 10, "value": 92}, "group": "control_change"}, {"time": 17026, "annotation": {"number": 10, "value": 94}, "group": "control_change"}, {"time": 17055, "annotation": {"number": 10, "value": 87}, "group": "control_change"}, {"time": 17086, "annotation": {"number": 10, "value": 74}, "group": "control_change"}, {"time": 17099, "annotation": {"number": 10, "value": 67}, "group": "control_change"}, {"time": 17130, "annotation": {"number": 10, "value": 58}, "group": "control_change"}, {"time": 17280, "annotation": {"number": 11, "value": 110}, "group": "control_change"}, {"time": 17295, "annotation": {"number": 10, "value": 55}, "group": "control_change"}, {"time": 17323, "annotation": {"number": 10, "value": 62}, "group": "control_change"}, {"time": 17368, "annotation": {"number": 10, "value": 71}, "group": "control_change"}, {"time": 17383, "annotation": {"number": 10, "value": 72}, "group": "control_change"}, {"time": 17400, "annotation": {"number": 11, "value": 91}, "group": "control_change"}, {"time": 17520, "annotation": {"number": 11, "value": 73}, "group": "control_change"}, {"time": 17560, "annotation": {"number": 10, "value": 73}, "group": "control_change"}, {"time": 17640, "annotation": {"number": 11, "value": 55}, "group": "control_change"}, {"time": 17760, "annotation": {"number": 11, "value": 36}, "group": "control_change"}, {"time": 17798, "annotation": {"number": 10, "value": 64}, "group": "control_change"}, {"time": 17880, "annotation": {"number": 11, "value": 18}, "group": "control_change"}, {"time": 18000, "annotation": {"number": 11, "value": 0}, "group": "control_change"}, {"time": 45635, "annotation": {"number": 11, "value": 100}, "group": "control_change"}, {"time": 45655, "annotation": {"number": 91, "value": 0}, "group": "control_change"}, {"time": 45665, "annotation": {"number": 93, "value": 0}, "group": "control_change"}, {"time": 45676, "annotation": {"number": 94, "value": 80}, "group": "control_change"}, {"time": 46566, "annotation": {"number": 1, "value": 127}, "group": "control_change"}, {"time": 48485, "annotation": {"number": 10, "value": 67}, "group": "control_change"}, {"time": 48519, "annotation": {"number": 10, "value": 73}, "group": "control_change"}, {"time": 48537, "annotation": {"number": 10, "value": 65}, "group": "control_change"}, {"time": 48546, "annotation": {"number": 10, "value": 57}, "group": "control_change"}, {"time": 48575, "annotation": {"number": 10, "value": 44}, "group": "control_change"}, {"time": 48607, "annotation": {"number": 10, "value": 34}, "group": "control_change"}, {"time": 48723, "annotation": {"number": 10, "value": 33}, "group": "control_change"}, {"time": 48739, "annotation": {"number": 10, "value": 43}, "group": "control_change"}, {"time": 48755, "annotation": {"number": 10, "value": 55}, "group": "control_change"}, {"time": 48767, "annotation": {"number": 10, "value": 72}, "group": "control_change"}, {"time": 48783, "annotation": {"number": 10, "value": 88}, "group": "control_change"}, {"time": 48799, "annotation": {"number": 10, "value": 106}, "group": "control_change"}, {"time": 48815, "annotation": {"number": 10, "value": 122}, "group": "control_change"}, {"time": 48828, "annotation": {"number": 10, "value": 127}, "group": "control_change"}, {"time": 48963, "annotation": {"number": 10, "value": 125}, "group": "control_change"}, {"time": 48979, "annotation": {"number": 10, "value": 118}, "group": "control_change"}, {"time": 48992, "annotation": {"number": 10, "value": 106}, "group": "control_change"}, {"time": 49011, "annotation": {"number": 10, "value": 90}, "group": "control_change"}, {"time": 49023, "annotation": {"number": 10, "value": 64}, "group": "control_change"}, {"time": 49036, "annotation": {"number": 10, "value": 36}, "group": "control_change"}, {"time": 49052, "annotation": {"number": 10, "value": 17}, "group": "control_change"}, {"time": 49068, "annotation": {"number": 10, "value": 7}, "group": "control_change"}, {"time": 49140, "annotation": {"number": 10, "value": 0}, "group": "control_change"}, {"time": 49172, "annotation": {"number": 10, "value": 10}, "group": "control_change"}, {"time": 49184, "annotation": {"number": 10, "value": 20}, "group": "control_change"}, {"time": 49200, "annotation": {"number": 10, "value": 28}, "group": "control_change"}, {"time": 49216, "annotation": {"number": 10, "value": 37}, "group": "control_change"}, {"time": 49232, "annotation": {"number": 10, "value": 45}, "group": "control_change"}, {"time": 49245, "annotation": {"number": 10, "value": 53}, "group": "control_change"}, {"time": 49261, "annotation": {"number": 10, "value": 60}, "group": "control_change"}, {"time": 49289, "annotation": {"number": 10, "value": 68}, "group": "control_change"}, {"time": 49324, "annotation": {"number": 10, "value": 76}, "group": "control_change"}, {"time": 49425, "annotation": {"number": 10, "value": 78}, "group": "control_change"}, {"time": 49438, "annotation": {"number": 10, "value": 70}, "group": "control_change"}, {"time": 49453, "annotation": {"number": 10, "value": 62}, "group": "control_change"}, {"time": 49469, "annotation": {"number": 10, "value": 50}, "group": "control_change"}, {"time": 49485, "annotation": {"number": 10, "value": 35}, "group": "control_change"}, {"time": 49497, "annotation": {"number": 10, "value": 18}, "group": "control_change"}, {"time": 49513, "annotation": {"number": 10, "value": 2}, "group": "control_change"}, {"time": 49633, "annotation": {"number": 10, "value": 3}, "group": "control_change"}, {"time": 49646, "annotation": {"number": 10, "value": 13}, "group": "control_change"}, {"time": 49662, "annotation": {"number": 10, "value": 23}, "group": "control_change"}, {"time": 49678, "annotation": {"number": 10, "value": 35}, "group": "control_change"}, {"time": 49690, "annotation": {"number": 10, "value": 46}, "group": "control_change"}, {"time": 49706, "annotation": {"number": 10, "value": 59}, "group": "control_change"}, {"time": 49722, "annotation": {"number": 10, "value": 69}, "group": "control_change"}, {"time": 49737, "annotation": {"number": 10, "value": 77}, "group": "control_change"}, {"time": 49750, "annotation": {"number": 10, "value": 85}, "group": "control_change"}, {"time": 49782, "annotation": {"number": 10, "value": 95}, "group": "control_change"}, {"time": 49855, "annotation": {"number": 10, "value": 94}, "group": "control_change"}, {"time": 49870, "annotation": {"number": 10, "value": 85}, "group": "control_change"}, {"time": 49883, "annotation": {"number": 10, "value": 75}, "group": "control_change"}, {"time": 49899, "annotation": {"number": 10, "value": 61}, "group": "control_change"}, {"time": 49927, "annotation": {"number": 10, "value": 41}, "group": "control_change"}, {"time": 49934, "annotation": {"number": 10, "value": 15}, "group": "control_change"}, {"time": 49943, "annotation": {"number": 10, "value": 0}, "group": "control_change"}, {"time": 50081, "annotation": {"number": 10, "value": 6}, "group": "control_change"}, {"time": 50091, "annotation": {"number": 10, "value": 16}, "group": "control_change"}, {"time": 50106, "annotation": {"number": 10, "value": 29}, "group": "control_change"}, {"time": 50122, "annotation": {"number": 10, "value": 42}, "group": "control_change"}, {"time": 50135, "annotation": {"number": 10, "value": 54}, "group": "control_change"}, {"time": 50150, "annotation": {"number": 10, "value": 67}, "group": "control_change"}, {"time": 50166, "annotation": {"number": 10, "value": 78}, "group": "control_change"}, {"time": 50182, "annotation": {"number": 10, "value": 88}, "group": "control_change"}, {"time": 50195, "annotation": {"number": 10, "value": 96}, "group": "control_change"}, {"time": 50211, "annotation": {"number": 10, "value": 103}, "group": "control_change"}, {"time": 50299, "annotation": {"number": 10, "value": 106}, "group": "control_change"}, {"time": 50331, "annotation": {"number": 10, "value": 94}, "group": "control_change"}, {"time": 50359, "annotation": {"number": 10, "value": 78}, "group": "control_change"}, {"time": 50375, "annotation": {"number": 10, "value": 66}, "group": "control_change"}, {"time": 50391, "annotation": {"number": 10, "value": 52}, "group": "control_change"}, {"time": 50403, "annotation": {"number": 10, "value": 40}, "group": "control_change"}, {"time": 50419, "annotation": {"number": 10, "value": 29}, "group": "control_change"}, {"time": 50435, "annotation": {"number": 10, "value": 21}, "group": "control_change"}, {"time": 50508, "annotation": {"number": 10, "value": 17}, "group": "control_change"}, {"time": 50539, "annotation": {"number": 10, "value": 34}, "group": "control_change"}, {"time": 50552, "annotation": {"number": 10, "value": 46}, "group": "control_change"}, {"time": 50568, "annotation": {"number": 10, "value": 60}, "group": "control_change"}, {"time": 50587, "annotation": {"number": 10, "value": 71}, "group": "control_change"}, {"time": 50599, "annotation": {"number": 10, "value": 85}, "group": "control_change"}, {"time": 50612, "annotation": {"number": 10, "value": 95}, "group": "control_change"}, {"time": 50628, "annotation": {"number": 10, "value": 105}, "group": "control_change"}, {"time": 50644, "annotation": {"number": 10, "value": 114}, "group": "control_change"}, {"time": 50656, "annotation": {"number": 10, "value": 121}, "group": "control_change"}, {"time": 50792, "annotation": {"number": 10, "value": 126}, "group": "control_change"}, {"time": 50821, "annotation": {"number": 10, "value": 116}, "group": "control_change"}, {"time": 50836, "annotation": {"number": 10, "value": 107}, "group": "control_change"}, {"time": 50849, "annotation": {"number": 10, "value": 93}, "group": "control_change"}, {"time": 50865, "annotation": {"number": 10, "value": 75}, "group": "control_change"}, {"time": 50880, "annotation": {"number": 10, "value": 53}, "group": "control_change"}, {"time": 50899, "annotation": {"number": 10, "value": 30}, "group": "control_change"}, {"time": 50909, "annotation": {"number": 10, "value": 19}, "group": "control_change"}, {"time": 50925, "annotation": {"number": 10, "value": 12}, "group": "control_change"}, {"time": 50941, "annotation": {"number": 10, "value": 5}, "group": "control_change"}, {"time": 51118, "annotation": {"number": 10, "value": 1}, "group": "control_change"}, {"time": 51193, "annotation": {"number": 10, "value": 0}, "group": "control_change"}, {"time": 51357, "annotation": {"number": 10, "value": 8}, "group": "control_change"}, {"time": 51370, "annotation": {"number": 10, "value": 22}, "group": "control_change"}, {"time": 51386, "annotation": {"number": 10, "value": 39}, "group": "control_change"}, {"time": 51402, "annotation": {"number": 10, "value": 61}, "group": "control_change"}, {"time": 51414, "annotation": {"number": 10, "value": 80}, "group": "control_change"}, {"time": 51430, "annotation": {"number": 10, "value": 103}, "group": "control_change"}, {"time": 51450, "annotation": {"number": 10, "value": 127}, "group": "control_change"}, {"time": 51609, "annotation": {"number": 10, "value": 120}, "group": "control_change"}, {"time": 51622, "annotation": {"number": 10, "value": 112}, "group": "control_change"}, {"time": 51638, "annotation": {"number": 10, "value": 100}, "group": "control_change"}, {"time": 51654, "annotation": {"number": 10, "value": 82}, "group": "control_change"}, {"time": 51666, "annotation": {"number": 10, "value": 57}, "group": "control_change"}, {"time": 51682, "annotation": {"number": 10, "value": 27}, "group": "control_change"}, {"time": 51698, "annotation": {"number": 10, "value": 9}, "group": "control_change"}, {"time": 51714, "annotation": {"number": 10, "value": 0}, "group": "control_change"}, {"time": 51786, "annotation": {"number": 10, "value": 1}, "group": "control_change"}, {"time": 51802, "annotation": {"number": 10, "value": 11}, "group": "control_change"}, {"time": 51815, "annotation": {"number": 10, "value": 27}, "group": "control_change"}, {"time": 51830, "annotation": {"number": 10, "value": 46}, "group": "control_change"}, {"time": 51847, "annotation": {"number": 10, "value": 62}, "group": "control_change"}, {"time": 51862, "annotation": {"number": 10, "value": 87}, "group": "control_change"}, {"time": 51875, "annotation": {"number": 10, "value": 110}, "group": "control_change"}, {"time": 51891, "annotation": {"number": 10, "value": 117}, "group": "control_change"}, {"time": 51919, "annotation": {"number": 10, "value": 127}, "group": "control_change"}, {"time": 51995, "annotation": {"number": 10, "value": 126}, "group": "control_change"}, {"time": 52023, "annotation": {"number": 10, "value": 114}, "group": "control_change"}, {"time": 52039, "annotation": {"number": 10, "value": 106}, "group": "control_change"}, {"time": 52055, "annotation": {"number": 10, "value": 94}, "group": "control_change"}, {"time": 52068, "annotation": {"number": 10, "value": 78}, "group": "control_change"}, {"time": 52084, "annotation": {"number": 10, "value": 62}, "group": "control_change"}, {"time": 52099, "annotation": {"number": 10, "value": 51}, "group": "control_change"}, {"time": 52112, "annotation": {"number": 10, "value": 41}, "group": "control_change"}, {"time": 52143, "annotation": {"number": 10, "value": 30}, "group": "control_change"}, {"time": 52216, "annotation": {"number": 10, "value": 42}, "group": "control_change"}, {"time": 52232, "annotation": {"number": 10, "value": 55}, "group": "control_change"}, {"time": 52248, "annotation": {"number": 10, "value": 70}, "group": "control_change"}, {"time": 52263, "annotation": {"number": 10, "value": 88}, "group": "control_change"}, {"time": 52276, "annotation": {"number": 10, "value": 110}, "group": "control_change"}, {"time": 52292, "annotation": {"number": 10, "value": 127}, "group": "control_change"}, {"time": 52374, "annotation": {"number": 1, "value": 65}, "group": "control_change"}, {"time": 52381, "annotation": {"number": 1, "value": 67}, "group": "control_change"}, {"time": 52389, "annotation": {"number": 1, "value": 70}, "group": "control_change"}, {"time": 52396, "annotation": {"number": 1, "value": 72}, "group": "control_change"}, {"time": 52404, "annotation": {"number": 1, "value": 74}, "group": "control_change"}, {"time": 52411, "annotation": {"number": 1, "value": 77}, "group": "control_change"}, {"time": 52419, "annotation": {"number": 1, "value": 79}, "group": "control_change"}, {"time": 52426, "annotation": {"number": 1, "value": 81}, "group": "control_change"}, {"time": 52433, "annotation": {"number": 1, "value": 83}, "group": "control_change"}, {"time": 52442, "annotation": {"number": 1, "value": 85}, "group": "control_change"}, {"time": 52444, "annotation": {"number": 10, "value": 122}, "group": "control_change"}, {"time": 52450, "annotation": {"number": 1, "value": 87}, "group": "control_change"}, {"time": 52456, "annotation": {"number": 10, "value": 115}, "group": "control_change"}, {"time": 52457, "annotation": {"number": 1, "value": 89}, "group": "control_change"}, {"time": 52465, "annotation": {"number": 1, "value": 91}, "group": "control_change"}, {"time": 52469, "annotation": {"number": 10, "value": 104}, "group": "control_change"}, {"time": 52473, "annotation": {"number": 1, "value": 93}, "group": "control_change"}, {"time": 52481, "annotation": {"number": 1, "value": 94}, "group": "control_change"}, {"time": 52485, "annotation": {"number": 10, "value": 92}, "group": "control_change"}, {"time": 52488, "annotation": {"number": 1, "value": 95}, "group": "control_change"}, {"time": 52495, "annotation": {"number": 1, "value": 96}, "group": "control_change"}, {"time": 52501, "annotation": {"number": 10, "value": 74}, "group": "control_change"}, {"time": 52503, "annotation": {"number": 1, "value": 98}, "group": "control_change"}, {"time": 52511, "annotation": {"number": 1, "value": 99}, "group": "control_change"}, {"time": 52516, "annotation": {"number": 10, "value": 54}, "group": "control_change"}, {"time": 52518, "annotation": {"number": 1, "value": 100}, "group": "control_change"}, {"time": 52525, "annotation": {"number": 1, "value": 101}, "group": "control_change"}, {"time": 52529, "annotation": {"number": 10, "value": 36}, "group": "control_change"}, {"time": 52533, "annotation": {"number": 1, "value": 102}, "group": "control_change"}, {"time": 52541, "annotation": {"number": 1, "value": 103}, "group": "control_change"}, {"time": 52545, "annotation": {"number": 10, "value": 26}, "group": "control_change"}, {"time": 52548, "annotation": {"number": 1, "value": 104}, "group": "control_change"}, {"time": 52560, "annotation": {"number": 10, "value": 17}, "group": "control_change"}, {"time": 52564, "annotation": {"number": 1, "value": 105}, "group": "control_change"}, {"time": 52571, "annotation": {"number": 1, "value": 106}, "group": "control_change"}, {"time": 52586, "annotation": {"number": 1, "value": 107}, "group": "control_change"}, {"time": 52589, "annotation": {"number": 10, "value": 7}, "group": "control_change"}, {"time": 52594, "annotation": {"number": 1, "value": 108}, "group": "control_change"}, {"time": 52609, "annotation": {"number": 1, "value": 109}, "group": "control_change"}, {"time": 52617, "annotation": {"number": 1, "value": 110}, "group": "control_change"}, {"time": 52632, "annotation": {"number": 1, "value": 111}, "group": "control_change"}, {"time": 52639, "annotation": {"number": 1, "value": 112}, "group": "control_change"}, {"time": 52647, "annotation": {"number": 1, "value": 113}, "group": "control_change"}, {"time": 52662, "annotation": {"number": 10, "value": 14}, "group": "control_change"}, {"time": 52670, "annotation": {"number": 1, "value": 114}, "group": "control_change"}, {"time": 52677, "annotation": {"number": 1, "value": 115}, "group": "control_change"}, {"time": 52678, "annotation": {"number": 10, "value": 25}, "group": "control_change"}, {"time": 52685, "annotation": {"number": 1, "value": 116}, "group": "control_change"}, {"time": 52693, "annotation": {"number": 10, "value": 38}, "group": "control_change"}, {"time": 52700, "annotation": {"number": 1, "value": 117}, "group": "control_change"}, {"time": 52707, "annotation": {"number": 1, "value": 118}, "group": "control_change"}, {"time": 52709, "annotation": {"number": 10, "value": 51}, "group": "control_change"}, {"time": 52715, "annotation": {"number": 1, "value": 119}, "group": "control_change"}, {"time": 52722, "annotation": {"number": 10, "value": 65}, "group": "control_change"}, {"time": 52737, "annotation": {"number": 1, "value": 121}, "group": "control_change"}, {"time": 52737, "annotation": {"number": 10, "value": 78}, "group": "control_change"}, {"time": 52752, "annotation": {"number": 1, "value": 122}, "group": "control_change"}, {"time": 52753, "annotation": {"number": 10, "value": 90}, "group": "control_change"}, {"time": 52760, "annotation": {"number": 1, "value": 123}, "group": "control_change"}, {"time": 52768, "annotation": {"number": 1, "value": 124}, "group": "control_change"}, {"time": 52769, "annotation": {"number": 10, "value": 100}, "group": "control_change"}, {"time": 52775, "annotation": {"number": 1, "value": 125}, "group": "control_change"}, {"time": 52782, "annotation": {"number": 10, "value": 108}, "group": "control_change"}, {"time": 52783, "annotation": {"number": 1, "value": 126}, "group": "control_change"}, {"time": 52798, "annotation": {"number": 1, "value": 127}, "group": "control_change"}, {"time": 52814, "annotation": {"number": 10, "value": 118}, "group": "control_change"}, {"time": 52886, "annotation": {"number": 10, "value": 117}, "group": "control_change"}, {"time": 52918, "annotation": {"number": 10, "value": 99}, "group": "control_change"}, {"time": 52930, "annotation": {"number": 10, "value": 84}, "group": "control_change"}, {"time": 52946, "annotation": {"number": 10, "value": 64}, "group": "control_change"}, {"time": 52962, "annotation": {"number": 10, "value": 41}, "group": "control_change"}, {"time": 52978, "annotation": {"number": 10, "value": 18}, "group": "control_change"}, {"time": 52991, "annotation": {"number": 10, "value": 1}, "group": "control_change"}, {"time": 53006, "annotation": {"number": 10, "value": 0}, "group": "control_change"}, {"time": 53173, "annotation": {"number": 10, "value": 6}, "group": "control_change"}, {"time": 53189, "annotation": {"number": 10, "value": 17}, "group": "control_change"}, {"time": 53198, "annotation": {"number": 10, "value": 29}, "group": "control_change"}, {"time": 53214, "annotation": {"number": 10, "value": 41}, "group": "control_change"}, {"time": 53230, "annotation": {"number": 10, "value": 55}, "group": "control_change"}, {"time": 53242, "annotation": {"number": 10, "value": 66}, "group": "control_change"}, {"time": 53258, "annotation": {"number": 10, "value": 75}, "group": "control_change"}, {"time": 53274, "annotation": {"number": 10, "value": 83}, "group": "control_change"}, {"time": 53362, "annotation": {"number": 10, "value": 84}, "group": "control_change"}, {"time": 53391, "annotation": {"number": 10, "value": 68}, "group": "control_change"}, {"time": 53406, "annotation": {"number": 10, "value": 58}, "group": "control_change"}, {"time": 53422, "annotation": {"number": 10, "value": 46}, "group": "control_change"}, {"time": 53435, "annotation": {"number": 10, "value": 32}, "group": "control_change"}, {"time": 53451, "annotation": {"number": 10, "value": 17}, "group": "control_change"}, {"time": 53467, "annotation": {"number": 10, "value": 0}, "group": "control_change"}, {"time": 53628, "annotation": {"number": 10, "value": 2}, "group": "control_change"}, {"time": 53659, "annotation": {"number": 10, "value": 11}, "group": "control_change"}, {"time": 53675, "annotation": {"number": 10, "value": 18}, "group": "control_change"}, {"time": 53688, "annotation": {"number": 10, "value": 27}, "group": "control_change"}, {"time": 53703, "annotation": {"number": 10, "value": 43}, "group": "control_change"}, {"time": 53720, "annotation": {"number": 10, "value": 60}, "group": "control_change"}, {"time": 53735, "annotation": {"number": 10, "value": 82}, "group": "control_change"}, {"time": 53748, "annotation": {"number": 10, "value": 102}, "group": "control_change"}, {"time": 53764, "annotation": {"number": 10, "value": 116}, "group": "control_change"}, {"time": 53779, "annotation": {"number": 10, "value": 124}, "group": "control_change"}, {"time": 53928, "annotation": {"number": 10, "value": 126}, "group": "control_change"}, {"time": 53942, "annotation": {"number": 1, "value": 126}, "group": "control_change"}, {"time": 53956, "annotation": {"number": 10, "value": 117}, "group": "control_change"}, {"time": 53972, "annotation": {"number": 10, "value": 110}, "group": "control_change"}, {"time": 53972, "annotation": {"number": 1, "value": 125}, "group": "control_change"}, {"time": 53988, "annotation": {"number": 10, "value": 100}, "group": "control_change"}, {"time": 54000, "annotation": {"number": 10, "value": 89}, "group": "control_change"}, {"time": 54009, "annotation": {"number": 1, "value": 124}, "group": "control_change"}, {"time": 54016, "annotation": {"number": 10, "value": 75}, "group": "control_change"}, {"time": 54032, "annotation": {"number": 10, "value": 63}, "group": "control_change"}, {"time": 54054, "annotation": {"number": 10, "value": 50}, "group": "control_change"}, {"time": 54055, "annotation": {"number": 1, "value": 123}, "group": "control_change"}, {"time": 54061, "annotation": {"number": 10, "value": 42}, "group": "control_change"}, {"time": 54076, "annotation": {"number": 10, "value": 35}, "group": "control_change"}, {"time": 54107, "annotation": {"number": 1, "value": 122}, "group": "control_change"}, {"time": 54129, "annotation": {"number": 1, "value": 121}, "group": "control_change"}, {"time": 54158, "annotation": {"number": 1, "value": 120}, "group": "control_change"}, {"time": 54196, "annotation": {"number": 1, "value": 119}, "group": "control_change"}, {"time": 54226, "annotation": {"number": 1, "value": 118}, "group": "control_change"}, {"time": 54233, "annotation": {"number": 1, "value": 117}, "group": "control_change"}, {"time": 54263, "annotation": {"number": 1, "value": 116}, "group": "control_change"}, {"time": 54269, "annotation": {"number": 10, "value": 31}, "group": "control_change"}, {"time": 54292, "annotation": {"number": 1, "value": 115}, "group": "control_change"}, {"time": 54314, "annotation": {"number": 10, "value": 20}, "group": "control_change"}, {"time": 54329, "annotation": {"number": 10, "value": 13}, "group": "control_change"}, {"time": 54330, "annotation": {"number": 1, "value": 114}, "group": "control_change"}, {"time": 54337, "annotation": {"number": 1, "value": 113}, "group": "control_change"}, {"time": 54353, "annotation": {"number": 1, "value": 112}, "group": "control_change"}, {"time": 54357, "annotation": {"number": 10, "value": 4}, "group": "control_change"}, {"time": 54376, "annotation": {"number": 1, "value": 111}, "group": "control_change"}, {"time": 54383, "annotation": {"number": 1, "value": 110}, "group": "control_change"}, {"time": 54405, "annotation": {"number": 1, "value": 108}, "group": "control_change"}, {"time": 54428, "annotation": {"number": 1, "value": 107}, "group": "control_change"}, {"time": 54435, "annotation": {"number": 1, "value": 106}, "group": "control_change"}, {"time": 54442, "annotation": {"number": 1, "value": 105}, "group": "control_change"}, {"time": 54457, "annotation": {"number": 1, "value": 104}, "group": "control_change"}, {"time": 54465, "annotation": {"number": 1, "value": 103}, "group": "control_change"}, {"time": 54480, "annotation": {"number": 1, "value": 102}, "group": "control_change"}, {"time": 54481, "annotation": {"number": 10, "value": 7}, "group": "control_change"}, {"time": 54488, "annotation": {"number": 1, "value": 101}, "group": "control_change"}, {"time": 54496, "annotation": {"number": 1, "value": 100}, "group": "control_change"}, {"time": 54497, "annotation": {"number": 10, "value": 16}, "group": "control_change"}, {"time": 54505, "annotation": {"number": 10, "value": 27}, "group": "control_change"}, {"time": 54518, "annotation": {"number": 1, "value": 99}, "group": "control_change"}, {"time": 54521, "annotation": {"number": 10, "value": 42}, "group": "control_change"}, {"time": 54526, "annotation": {"number": 1, "value": 98}, "group": "control_change"}, {"time": 54537, "annotation": {"number": 10, "value": 58}, "group": "control_change"}, {"time": 54548, "annotation": {"number": 1, "value": 97}, "group": "control_change"}, {"time": 54552, "annotation": {"number": 10, "value": 82}, "group": "control_change"}, {"time": 54565, "annotation": {"number": 10, "value": 99}, "group": "control_change"}, {"time": 54581, "annotation": {"number": 10, "value": 111}, "group": "control_change"}, {"time": 54593, "annotation": {"number": 1, "value": 96}, "group": "control_change"}, {"time": 54594, "annotation": {"number": 10, "value": 120}, "group": "control_change"}, {"time": 54615, "annotation": {"number": 1, "value": 95}, "group": "control_change"}, {"time": 54625, "annotation": {"number": 10, "value": 127}, "group": "control_change"}, {"time": 54652, "annotation": {"number": 1, "value": 94}, "group": "control_change"}, {"time": 54690, "annotation": {"number": 1, "value": 93}, "group": "control_change"}, {"time": 54774, "annotation": {"number": 10, "value": 122}, "group": "control_change"}, {"time": 54789, "annotation": {"number": 10, "value": 115}, "group": "control_change"}, {"time": 54802, "annotation": {"number": 10, "value": 107}, "group": "control_change"}, {"time": 54808, "annotation": {"number": 1, "value": 92}, "group": "control_change"}, {"time": 54818, "annotation": {"number": 10, "value": 97}, "group": "control_change"}, {"time": 54834, "annotation": {"number": 10, "value": 87}, "group": "control_change"}, {"time": 54846, "annotation": {"number": 10, "value": 79}, "group": "control_change"}, {"time": 54862, "annotation": {"number": 10, "value": 69}, "group": "control_change"}, {"time": 54875, "annotation": {"number": 1, "value": 91}, "group": "control_change"}, {"time": 54878, "annotation": {"number": 10, "value": 61}, "group": "control_change"}, {"time": 54894, "annotation": {"number": 10, "value": 53}, "group": "control_change"}, {"time": 54922, "annotation": {"number": 10, "value": 41}, "group": "control_change"}, {"time": 54941, "annotation": {"number": 1, "value": 90}, "group": "control_change"}, {"time": 55055, "annotation": {"number": 10, "value": 38}, "group": "control_change"}, {"time": 55099, "annotation": {"number": 10, "value": 45}, "group": "control_change"}, {"time": 55105, "annotation": {"number": 1, "value": 88}, "group": "control_change"}, {"time": 55131, "annotation": {"number": 10, "value": 56}, "group": "control_change"}, {"time": 55136, "annotation": {"number": 1, "value": 87}, "group": "control_change"}, {"time": 55147, "annotation": {"number": 10, "value": 63}, "group": "control_change"}, {"time": 55159, "annotation": {"number": 10, "value": 70}, "group": "control_change"}, {"time": 55165, "annotation": {"number": 1, "value": 86}, "group": "control_change"}, {"time": 55175, "annotation": {"number": 10, "value": 77}, "group": "control_change"}, {"time": 55187, "annotation": {"number": 1, "value": 85}, "group": "control_change"}, {"time": 55191, "annotation": {"number": 10, "value": 84}, "group": "control_change"}, {"time": 55195, "annotation": {"number": 1, "value": 84}, "group": "control_change"}, {"time": 55210, "annotation": {"number": 1, "value": 83}, "group": "control_change"}, {"time": 55219, "annotation": {"number": 10, "value": 92}, "group": "control_change"}, {"time": 55240, "annotation": {"number": 1, "value": 82}, "group": "control_change"}, {"time": 55249, "annotation": {"number": 1, "value": 81}, "group": "control_change"}, {"time": 55258, "annotation": {"number": 1, "value": 80}, "group": "control_change"}, {"time": 55267, "annotation": {"number": 10, "value": 99}, "group": "control_change"}, {"time": 55279, "annotation": {"number": 1, "value": 79}, "group": "control_change"}, {"time": 55309, "annotation": {"number": 1, "value": 77}, "group": "control_change"}, {"time": 55316, "annotation": {"number": 1, "value": 76}, "group": "control_change"}, {"time": 55338, "annotation": {"number": 1, "value": 75}, "group": "control_change"}, {"time": 55360, "annotation": {"number": 1, "value": 74}, "group": "control_change"}, {"time": 55368, "annotation": {"number": 1, "value": 73}, "group": "control_change"}, {"time": 55383, "annotation": {"number": 1, "value": 72}, "group": "control_change"}, {"time": 55404, "annotation": {"number": 1, "value": 71}, "group": "control_change"}, {"time": 55428, "annotation": {"number": 10, "value": 99}, "group": "control_change"}, {"time": 55442, "annotation": {"number": 1, "value": 70}, "group": "control_change"}, {"time": 55460, "annotation": {"number": 10, "value": 88}, "group": "control_change"}, {"time": 55472, "annotation": {"number": 10, "value": 81}, "group": "control_change"}, {"time": 55488, "annotation": {"number": 10, "value": 72}, "group": "control_change"}, {"time": 55501, "annotation": {"number": 10, "value": 62}, "group": "control_change"}, {"time": 55502, "annotation": {"number": 1, "value": 69}, "group": "control_change"}, {"time": 55519, "annotation": {"number": 10, "value": 50}, "group": "control_change"}, {"time": 55532, "annotation": {"number": 10, "value": 37}, "group": "control_change"}, {"time": 55548, "annotation": {"number": 10, "value": 24}, "group": "control_change"}, {"time": 55560, "annotation": {"number": 10, "value": 12}, "group": "control_change"}, {"time": 55576, "annotation": {"number": 10, "value": 0}, "group": "control_change"}, {"time": 55586, "annotation": {"number": 1, "value": 68}, "group": "control_change"}, {"time": 55889, "annotation": {"number": 10, "value": 2}, "group": "control_change"}, {"time": 56005, "annotation": {"number": 1, "value": 67}, "group": "control_change"}, {"time": 56012, "annotation": {"number": 1, "value": 66}, "group": "control_change"}, {"time": 56035, "annotation": {"number": 1, "value": 65}, "group": "control_change"}, {"time": 56053, "annotation": {"number": 10, "value": 8}, "group": "control_change"}, {"time": 56057, "annotation": {"number": 1, "value": 64}, "group": "control_change"}, {"time": 56081, "annotation": {"number": 10, "value": 16}, "group": "control_change"}, {"time": 56097, "annotation": {"number": 10, "value": 24}, "group": "control_change"}, {"time": 56110, "annotation": {"number": 10, "value": 32}, "group": "control_change"}, {"time": 56125, "annotation": {"number": 10, "value": 42}, "group": "control_change"}, {"time": 56141, "annotation": {"number": 10, "value": 51}, "group": "control_change"}, {"time": 56160, "annotation": {"number": 10, "value": 65}, "group": "control_change"}, {"time": 56173, "annotation": {"number": 10, "value": 78}, "group": "control_change"}, {"time": 56185, "annotation": {"number": 10, "value": 90}, "group": "control_change"}, {"time": 56201, "annotation": {"number": 10, "value": 103}, "group": "control_change"}, {"time": 56214, "annotation": {"number": 10, "value": 116}, "group": "control_change"}, {"time": 56230, "annotation": {"number": 10, "value": 127}, "group": "control_change"}, {"time": 56467, "annotation": {"number": 10, "value": 126}, "group": "control_change"}, {"time": 56491, "annotation": {"number": 1, "value": 65}, "group": "control_change"}, {"time": 56500, "annotation": {"number": 1, "value": 66}, "group": "control_change"}, {"time": 56507, "annotation": {"number": 1, "value": 67}, "group": "control_change"}, {"time": 56515, "annotation": {"number": 1, "value": 68}, "group": "control_change"}, {"time": 56522, "annotation": {"number": 1, "value": 69}, "group": "control_change"}, {"time": 56530, "annotation": {"number": 1, "value": 70}, "group": "control_change"}, {"time": 56537, "annotation": {"number": 1, "value": 71}, "group": "control_change"}, {"time": 56545, "annotation": {"number": 1, "value": 72}, "group": "control_change"}, {"time": 56553, "annotation": {"number": 1, "value": 73}, "group": "control_change"}, {"time": 56561, "annotation": {"number": 1, "value": 74}, "group": "control_change"}, {"time": 56568, "annotation": {"number": 1, "value": 75}, "group": "control_change"}, {"time": 56576, "annotation": {"number": 1, "value": 76}, "group": "control_change"}, {"time": 56583, "annotation": {"number": 1, "value": 78}, "group": "control_change"}, {"time": 56587, "annotation": {"number": 10, "value": 122}, "group": "control_change"}, {"time": 56592, "annotation": {"number": 1, "value": 79}, "group": "control_change"}, {"time": 56599, "annotation": {"number": 1, "value": 80}, "group": "control_change"}, {"time": 56602, "annotation": {"number": 10, "value": 113}, "group": "control_change"}, {"time": 56606, "annotation": {"number": 1, "value": 81}, "group": "control_change"}, {"time": 56614, "annotation": {"number": 1, "value": 83}, "group": "control_change"}, {"time": 56622, "annotation": {"number": 1, "value": 84}, "group": "control_change"}, {"time": 56628, "annotation": {"number": 10, "value": 100}, "group": "control_change"}, {"time": 56629, "annotation": {"number": 1, "value": 85}, "group": "control_change"}, {"time": 56634, "annotation": {"number": 10, "value": 85}, "group": "control_change"}, {"time": 56637, "annotation": {"number": 1, "value": 86}, "group": "control_change"}, {"time": 56644, "annotation": {"number": 1, "value": 88}, "group": "control_change"}, {"time": 56646, "annotation": {"number": 10, "value": 71}, "group": "control_change"}, {"time": 56652, "annotation": {"number": 1, "value": 89}, "group": "control_change"}, {"time": 56659, "annotation": {"number": 1, "value": 91}, "group": "control_change"}, {"time": 56663, "annotation": {"number": 10, "value": 58}, "group": "control_change"}, {"time": 56667, "annotation": {"number": 1, "value": 92}, "group": "control_change"}, {"time": 56674, "annotation": {"number": 1, "value": 93}, "group": "control_change"}, {"time": 56675, "annotation": {"number": 10, "value": 48}, "group": "control_change"}, {"time": 56682, "annotation": {"number": 1, "value": 95}, "group": "control_change"}, {"time": 56689, "annotation": {"number": 1, "value": 96}, "group": "control_change"}, {"time": 56694, "annotation": {"number": 10, "value": 41}, "group": "control_change"}, {"time": 56698, "annotation": {"number": 1, "value": 97}, "group": "control_change"}, {"time": 56706, "annotation": {"number": 1, "value": 98}, "group": "control_change"}, {"time": 56714, "annotation": {"number": 1, "value": 100}, "group": "control_change"}, {"time": 56721, "annotation": {"number": 1, "value": 101}, "group": "control_change"}, {"time": 56722, "annotation": {"number": 10, "value": 33}, "group": "control_change"}, {"time": 56729, "annotation": {"number": 1, "value": 102}, "group": "control_change"}, {"time": 56737, "annotation": {"number": 1, "value": 103}, "group": "control_change"}, {"time": 56744, "annotation": {"number": 1, "value": 104}, "group": "control_change"}, {"time": 56752, "annotation": {"number": 1, "value": 106}, "group": "control_change"}, {"time": 56759, "annotation": {"number": 1, "value": 107}, "group": "control_change"}, {"time": 56767, "annotation": {"number": 1, "value": 108}, "group": "control_change"}, {"time": 56775, "annotation": {"number": 1, "value": 109}, "group": "control_change"}, {"time": 56782, "annotation": {"number": 1, "value": 110}, "group": "control_change"}, {"time": 56790, "annotation": {"number": 1, "value": 111}, "group": "control_change"}, {"time": 56798, "annotation": {"number": 1, "value": 112}, "group": "control_change"}, {"time": 56811, "annotation": {"number": 10, "value": 27}, "group": "control_change"}, {"time": 56813, "annotation": {"number": 1, "value": 113}, "group": "control_change"}, {"time": 56821, "annotation": {"number": 1, "value": 114}, "group": "control_change"}, {"time": 56828, "annotation": {"number": 1, "value": 115}, "group": "control_change"}, {"time": 56850, "annotation": {"number": 1, "value": 117}, "group": "control_change"}, {"time": 56871, "annotation": {"number": 10, "value": 19}, "group": "control_change"}, {"time": 56873, "annotation": {"number": 1, "value": 118}, "group": "control_change"}, {"time": 56880, "annotation": {"number": 1, "value": 119}, "group": "control_change"}, {"time": 56896, "annotation": {"number": 1, "value": 120}, "group": "control_change"}, {"time": 56926, "annotation": {"number": 1, "value": 121}, "group": "control_change"}, {"time": 56928, "annotation": {"number": 10, "value": 12}, "group": "control_change"}, {"time": 56956, "annotation": {"number": 1, "value": 122}, "group": "control_change"}, {"time": 57020, "annotation": {"number": 10, "value": 10}, "group": "control_change"}, {"time": 57076, "annotation": {"number": 10, "value": 20}, "group": "control_change"}, {"time": 57092, "annotation": {"number": 10, "value": 28}, "group": "control_change"}, {"time": 57108, "annotation": {"number": 10, "value": 38}, "group": "control_change"}, {"time": 57124, "annotation": {"number": 10, "value": 49}, "group": "control_change"}, {"time": 57140, "annotation": {"number": 10, "value": 57}, "group": "control_change"}, {"time": 57152, "annotation": {"number": 10, "value": 69}, "group": "control_change"}, {"time": 57168, "annotation": {"number": 10, "value": 79}, "group": "control_change"}, {"time": 57181, "annotation": {"number": 10, "value": 89}, "group": "control_change"}, {"time": 57199, "annotation": {"number": 10, "value": 100}, "group": "control_change"}, {"time": 57212, "annotation": {"number": 10, "value": 107}, "group": "control_change"}, {"time": 57241, "annotation": {"number": 10, "value": 116}, "group": "control_change"}, {"time": 57272, "annotation": {"number": 10, "value": 123}, "group": "control_change"}, {"time": 57301, "annotation": {"number": 10, "value": 127}, "group": "control_change"}, {"time": 57622, "annotation": {"number": 1, "value": 121}, "group": "control_change"}, {"time": 57625, "annotation": {"number": 10, "value": 125}, "group": "control_change"}, {"time": 57646, "annotation": {"number": 1, "value": 120}, "group": "control_change"}, {"time": 57657, "annotation": {"number": 10, "value": 112}, "group": "control_change"}, {"time": 57668, "annotation": {"number": 1, "value": 119}, "group": "control_change"}, {"time": 57673, "annotation": {"number": 10, "value": 102}, "group": "control_change"}, {"time": 57685, "annotation": {"number": 10, "value": 93}, "group": "control_change"}, {"time": 57691, "annotation": {"number": 1, "value": 117}, "group": "control_change"}, {"time": 57698, "annotation": {"number": 1, "value": 116}, "group": "control_change"}, {"time": 57706, "annotation": {"number": 1, "value": 115}, "group": "control_change"}, {"time": 57714, "annotation": {"number": 1, "value": 114}, "group": "control_change"}, {"time": 57717, "annotation": {"number": 10, "value": 79}, "group": "control_change"}, {"time": 57729, "annotation": {"number": 1, "value": 113}, "group": "control_change"}, {"time": 57729, "annotation": {"number": 10, "value": 68}, "group": "control_change"}, {"time": 57736, "annotation": {"number": 1, "value": 112}, "group": "control_change"}, {"time": 57744, "annotation": {"number": 1, "value": 111}, "group": "control_change"}, {"time": 57745, "annotation": {"number": 10, "value": 55}, "group": "control_change"}, {"time": 57752, "annotation": {"number": 1, "value": 110}, "group": "control_change"}, {"time": 57761, "annotation": {"number": 10, "value": 48}, "group": "control_change"}, {"time": 57767, "annotation": {"number": 1, "value": 109}, "group": "control_change"}, {"time": 57774, "annotation": {"number": 1, "value": 108}, "group": "control_change"}, {"time": 57777, "annotation": {"number": 10, "value": 39}, "group": "control_change"}, {"time": 57790, "annotation": {"number": 1, "value": 107}, "group": "control_change"}, {"time": 57790, "annotation": {"number": 10, "value": 30}, "group": "control_change"}, {"time": 57797, "annotation": {"number": 1, "value": 106}, "group": "control_change"}, {"time": 57806, "annotation": {"number": 10, "value": 22}, "group": "control_change"}, {"time": 57812, "annotation": {"number": 1, "value": 105}, "group": "control_change"}, {"time": 57819, "annotation": {"number": 1, "value": 104}, "group": "control_change"}, {"time": 57834, "annotation": {"number": 1, "value": 103}, "group": "control_change"}, {"time": 57857, "annotation": {"number": 1, "value": 102}, "group": "control_change"}, {"time": 57864, "annotation": {"number": 1, "value": 101}, "group": "control_change"}, {"time": 57878, "annotation": {"number": 10, "value": 16}, "group": "control_change"}, {"time": 57895, "annotation": {"number": 1, "value": 100}, "group": "control_change"}, {"time": 57954, "annotation": {"number": 10, "value": 12}, "group": "control_change"}, {"time": 57977, "annotation": {"number": 1, "value": 99}, "group": "control_change"}, {"time": 57998, "annotation": {"number": 10, "value": 4}, "group": "control_change"}, {"time": 58110, "annotation": {"number": 1, "value": 98}, "group": "control_change"}, {"time": 58147, "annotation": {"number": 1, "value": 97}, "group": "control_change"}, {"time": 58176, "annotation": {"number": 1, "value": 96}, "group": "control_change"}, {"time": 58191, "annotation": {"number": 10, "value": 2}, "group": "control_change"}, {"time": 58200, "annotation": {"number": 1, "value": 95}, "group": "control_change"}, {"time": 58230, "annotation": {"number": 1, "value": 94}, "group": "control_change"}, {"time": 58235, "annotation": {"number": 10, "value": 15}, "group": "control_change"}, {"time": 58238, "annotation": {"number": 1, "value": 93}, "group": "control_change"}, {"time": 58251, "annotation": {"number": 10, "value": 26}, "group": "control_change"}, {"time": 58260, "annotation": {"number": 1, "value": 92}, "group": "control_change"}, {"time": 58283, "annotation": {"number": 10, "value": 38}, "group": "control_change"}, {"time": 58289, "annotation": {"number": 1, "value": 91}, "group": "control_change"}, {"time": 58295, "annotation": {"number": 10, "value": 47}, "group": "control_change"}, {"time": 58297, "annotation": {"number": 1, "value": 90}, "group": "control_change"}, {"time": 58311, "annotation": {"number": 10, "value": 55}, "group": "control_change"}, {"time": 58319, "annotation": {"number": 1, "value": 89}, "group": "control_change"}, {"time": 58327, "annotation": {"number": 10, "value": 64}, "group": "control_change"}, {"time": 58327, "annotation": {"number": 1, "value": 88}, "group": "control_change"}, {"time": 58339, "annotation": {"number": 10, "value": 72}, "group": "control_change"}, {"time": 58350, "annotation": {"number": 1, "value": 87}, "group": "control_change"}, {"time": 58355, "annotation": {"number": 10, "value": 81}, "group": "control_change"}, {"time": 58377, "annotation": {"number": 10, "value": 88}, "group": "control_change"}, {"time": 58399, "annotation": {"number": 10, "value": 101}, "group": "control_change"}, {"time": 58415, "annotation": {"number": 10, "value": 108}, "group": "control_change"}, {"time": 58459, "annotation": {"number": 10, "value": 116}, "group": "control_change"}, {"time": 58504, "annotation": {"number": 10, "value": 125}, "group": "control_change"}, {"time": 58845, "annotation": {"number": 10, "value": 126}, "group": "control_change"}, {"time": 58876, "annotation": {"number": 1, "value": 88}, "group": "control_change"}, {"time": 58877, "annotation": {"number": 10, "value": 116}, "group": "control_change"}, {"time": 58905, "annotation": {"number": 10, "value": 101}, "group": "control_change"}, {"time": 58924, "annotation": {"number": 10, "value": 93}, "group": "control_change"}, {"time": 58936, "annotation": {"number": 10, "value": 86}, "group": "control_change"}, {"time": 58952, "annotation": {"number": 10, "value": 79}, "group": "control_change"}, {"time": 58957, "annotation": {"number": 1, "value": 90}, "group": "control_change"}, {"time": 58981, "annotation": {"number": 10, "value": 69}, "group": "control_change"}, {"time": 59008, "annotation": {"number": 10, "value": 61}, "group": "control_change"}, {"time": 59031, "annotation": {"number": 1, "value": 91}, "group": "control_change"}, {"time": 59053, "annotation": {"number": 10, "value": 54}, "group": "control_change"}, {"time": 59062, "annotation": {"number": 1, "value": 92}, "group": "control_change"}, {"time": 59084, "annotation": {"number": 1, "value": 93}, "group": "control_change"}, {"time": 59091, "annotation": {"number": 1, "value": 94}, "group": "control_change"}, {"time": 59107, "annotation": {"number": 1, "value": 95}, "group": "control_change"}, {"time": 59128, "annotation": {"number": 10, "value": 50}, "group": "control_change"}, {"time": 59128, "annotation": {"number": 1, "value": 96}, "group": "control_change"}, {"time": 59137, "annotation": {"number": 1, "value": 97}, "group": "control_change"}, {"time": 59152, "annotation": {"number": 1, "value": 98}, "group": "control_change"}, {"time": 59174, "annotation": {"number": 1, "value": 99}, "group": "control_change"}, {"time": 59182, "annotation": {"number": 1, "value": 100}, "group": "control_change"}, {"time": 59189, "annotation": {"number": 10, "value": 40}, "group": "control_change"}, {"time": 59204, "annotation": {"number": 1, "value": 101}, "group": "control_change"}, {"time": 59217, "annotation": {"number": 10, "value": 31}, "group": "control_change"}, {"time": 59234, "annotation": {"number": 1, "value": 103}, "group": "control_change"}, {"time": 59245, "annotation": {"number": 10, "value": 21}, "group": "control_change"}, {"time": 59256, "annotation": {"number": 1, "value": 104}, "group": "control_change"}, {"time": 59277, "annotation": {"number": 10, "value": 11}, "group": "control_change"}, {"time": 59279, "annotation": {"number": 1, "value": 105}, "group": "control_change"}, {"time": 59305, "annotation": {"number": 10, "value": 1}, "group": "control_change"}, {"time": 59309, "annotation": {"number": 1, "value": 106}, "group": "control_change"}, {"time": 59338, "annotation": {"number": 1, "value": 107}, "group": "control_change"}, {"time": 59361, "annotation": {"number": 1, "value": 108}, "group": "control_change"}, {"time": 59390, "annotation": {"number": 1, "value": 109}, "group": "control_change"}, {"time": 59398, "annotation": {"number": 1, "value": 110}, "group": "control_change"}, {"time": 59419, "annotation": {"number": 1, "value": 111}, "group": "control_change"}, {"time": 59450, "annotation": {"number": 1, "value": 112}, "group": "control_change"}, {"time": 59458, "annotation": {"number": 1, "value": 113}, "group": "control_change"}, {"time": 59473, "annotation": {"number": 1, "value": 114}, "group": "control_change"}, {"time": 59486, "annotation": {"number": 10, "value": 1}, "group": "control_change"}, {"time": 59502, "annotation": {"number": 1, "value": 115}, "group": "control_change"}, {"time": 59510, "annotation": {"number": 1, "value": 116}, "group": "control_change"}, {"time": 59520, "annotation": {"number": 10, "value": 12}, "group": "control_change"}, {"time": 59525, "annotation": {"number": 1, "value": 117}, "group": "control_change"}, {"time": 59530, "annotation": {"number": 10, "value": 21}, "group": "control_change"}, {"time": 59545, "annotation": {"number": 10, "value": 29}, "group": "control_change"}, {"time": 59550, "annotation": {"number": 1, "value": 118}, "group": "control_change"}, {"time": 59557, "annotation": {"number": 1, "value": 119}, "group": "control_change"}, {"time": 59558, "annotation": {"number": 10, "value": 37}, "group": "control_change"}, {"time": 59572, "annotation": {"number": 1, "value": 120}, "group": "control_change"}, {"time": 59574, "annotation": {"number": 10, "value": 46}, "group": "control_change"}, {"time": 59590, "annotation": {"number": 10, "value": 54}, "group": "control_change"}, {"time": 59602, "annotation": {"number": 1, "value": 121}, "group": "control_change"}, {"time": 59602, "annotation": {"number": 10, "value": 63}, "group": "control_change"}, {"time": 59631, "annotation": {"number": 1, "value": 122}, "group": "control_change"}, {"time": 59634, "annotation": {"number": 10, "value": 75}, "group": "control_change"}, {"time": 59646, "annotation": {"number": 10, "value": 82}, "group": "control_change"}, {"time": 59678, "annotation": {"number": 10, "value": 90}, "group": "control_change"}, {"time": 59727, "annotation": {"number": 1, "value": 123}, "group": "control_change"}, {"time": 59738, "annotation": {"number": 10, "value": 97}, "group": "control_change"}, {"time": 59827, "annotation": {"number": 10, "value": 105}, "group": "control_change"}, {"time": 59871, "annotation": {"number": 10, "value": 112}, "group": "control_change"}, {"time": 59916, "annotation": {"number": 10, "value": 120}, "group": "control_change"}, {"time": 59960, "annotation": {"number": 10, "value": 127}, "group": "control_change"}, {"time": 59964, "annotation": {"number": 1, "value": 122}, "group": "control_change"}, {"time": 59992, "annotation": {"number": 1, "value": 121}, "group": "control_change"}, {"time": 60024, "annotation": {"number": 1, "value": 119}, "group": "control_change"}, {"time": 60039, "annotation": {"number": 1, "value": 118}, "group": "control_change"}, {"time": 60047, "annotation": {"number": 1, "value": 117}, "group": "control_change"}, {"time": 60055, "annotation": {"number": 1, "value": 116}, "group": "control_change"}, {"time": 60062, "annotation": {"number": 1, "value": 115}, "group": "control_change"}, {"time": 60070, "annotation": {"number": 1, "value": 114}, "group": "control_change"}, {"time": 60078, "annotation": {"number": 1, "value": 113}, "group": "control_change"}, {"time": 60085, "annotation": {"number": 1, "value": 112}, "group": "control_change"}, {"time": 60093, "annotation": {"number": 1, "value": 111}, "group": "control_change"}, {"time": 60101, "annotation": {"number": 1, "value": 110}, "group": "control_change"}, {"time": 60108, "annotation": {"number": 1, "value": 108}, "group": "control_change"}, {"time": 60111, "annotation": {"number": 10, "value": 126}, "group": "control_change"}, {"time": 60116, "annotation": {"number": 1, "value": 107}, "group": "control_change"}, {"time": 60123, "annotation": {"number": 1, "value": 106}, "group": "control_change"}, {"time": 60131, "annotation": {"number": 1, "value": 105}, "group": "control_change"}, {"time": 60139, "annotation": {"number": 1, "value": 104}, "group": "control_change"}, {"time": 60140, "annotation": {"number": 10, "value": 116}, "group": "control_change"}, {"time": 60147, "annotation": {"number": 1, "value": 103}, "group": "control_change"}, {"time": 60154, "annotation": {"number": 1, "value": 102}, "group": "control_change"}, {"time": 60155, "annotation": {"number": 10, "value": 109}, "group": "control_change"}, {"time": 60162, "annotation": {"number": 1, "value": 101}, "group": "control_change"}, {"time": 60168, "annotation": {"number": 10, "value": 102}, "group": "control_change"}, {"time": 60169, "annotation": {"number": 1, "value": 100}, "group": "control_change"}, {"time": 60177, "annotation": {"number": 1, "value": 99}, "group": "control_change"}, {"time": 60192, "annotation": {"number": 1, "value": 98}, "group": "control_change"}, {"time": 60199, "annotation": {"number": 1, "value": 97}, "group": "control_change"}, {"time": 60199, "annotation": {"number": 10, "value": 89}, "group": "control_change"}, {"time": 60212, "annotation": {"number": 10, "value": 81}, "group": "control_change"}, {"time": 60215, "annotation": {"number": 1, "value": 96}, "group": "control_change"}, {"time": 60228, "annotation": {"number": 10, "value": 74}, "group": "control_change"}, {"time": 60237, "annotation": {"number": 1, "value": 95}, "group": "control_change"}, {"time": 60244, "annotation": {"number": 10, "value": 67}, "group": "control_change"}, {"time": 60260, "annotation": {"number": 10, "value": 58}, "group": "control_change"}, {"time": 60267, "annotation": {"number": 1, "value": 94}, "group": "control_change"}, {"time": 60272, "annotation": {"number": 10, "value": 50}, "group": "control_change"}, {"time": 60288, "annotation": {"number": 10, "value": 41}, "group": "control_change"}, {"time": 60304, "annotation": {"number": 1, "value": 93}, "group": "control_change"}, {"time": 60304, "annotation": {"number": 10, "value": 34}, "group": "control_change"}, {"time": 60341, "annotation": {"number": 1, "value": 92}, "group": "control_change"}, {"time": 60348, "annotation": {"number": 10, "value": 27}, "group": "control_change"}, {"time": 60371, "annotation": {"number": 1, "value": 91}, "group": "control_change"}, {"time": 60379, "annotation": {"number": 1, "value": 90}, "group": "control_change"}, {"time": 60401, "annotation": {"number": 1, "value": 89}, "group": "control_change"}, {"time": 60421, "annotation": {"number": 10, "value": 23}, "group": "control_change"}, {"time": 60431, "annotation": {"number": 1, "value": 88}, "group": "control_change"}, {"time": 60452, "annotation": {"number": 10, "value": 16}, "group": "control_change"}, {"time": 60460, "annotation": {"number": 1, "value": 87}, "group": "control_change"}, {"time": 60481, "annotation": {"number": 10, "value": 8}, "group": "control_change"}, {"time": 60497, "annotation": {"number": 1, "value": 86}, "group": "control_change"}, {"time": 60511, "annotation": {"number": 10, "value": 0}, "group": "control_change"}, {"time": 60536, "annotation": {"number": 1, "value": 85}, "group": "control_change"}, {"time": 60565, "annotation": {"number": 1, "value": 84}, "group": "control_change"}, {"time": 60602, "annotation": {"number": 1, "value": 83}, "group": "control_change"}, {"time": 60646, "annotation": {"number": 1, "value": 82}, "group": "control_change"}, {"time": 60684, "annotation": {"number": 1, "value": 81}, "group": "control_change"}, {"time": 60704, "annotation": {"number": 10, "value": 1}, "group": "control_change"}, {"time": 60714, "annotation": {"number": 1, "value": 80}, "group": "control_change"}, {"time": 60749, "annotation": {"number": 10, "value": 15}, "group": "control_change"}, {"time": 60758, "annotation": {"number": 1, "value": 79}, "group": "control_change"}, {"time": 60764, "annotation": {"number": 10, "value": 27}, "group": "control_change"}, {"time": 60777, "annotation": {"number": 10, "value": 38}, "group": "control_change"}, {"time": 60781, "annotation": {"number": 1, "value": 77}, "group": "control_change"}, {"time": 60793, "annotation": {"number": 10, "value": 49}, "group": "control_change"}, {"time": 60808, "annotation": {"number": 10, "value": 61}, "group": "control_change"}, {"time": 60811, "annotation": {"number": 1, "value": 76}, "group": "control_change"}, {"time": 60819, "annotation": {"number": 1, "value": 75}, "group": "control_change"}, {"time": 60821, "annotation": {"number": 10, "value": 73}, "group": "control_change"}, {"time": 60834, "annotation": {"number": 1, "value": 74}, "group": "control_change"}, {"time": 60837, "annotation": {"number": 10, "value": 84}, "group": "control_change"}, {"time": 60853, "annotation": {"number": 10, "value": 94}, "group": "control_change"}, {"time": 60856, "annotation": {"number": 1, "value": 73}, "group": "control_change"}, {"time": 60865, "annotation": {"number": 10, "value": 101}, "group": "control_change"}, {"time": 60881, "annotation": {"number": 10, "value": 108}, "group": "control_change"}, {"time": 60892, "annotation": {"number": 1, "value": 72}, "group": "control_change"}, {"time": 60900, "annotation": {"number": 1, "value": 71}, "group": "control_change"}, {"time": 60913, "annotation": {"number": 10, "value": 117}, "group": "control_change"}, {"time": 60937, "annotation": {"number": 1, "value": 70}, "group": "control_change"}, {"time": 60941, "annotation": {"number": 10, "value": 121}, "group": "control_change"}, {"time": 60990, "annotation": {"number": 1, "value": 69}, "group": "control_change"}, {"time": 61014, "annotation": {"number": 10, "value": 127}, "group": "control_change"}, {"time": 61079, "annotation": {"number": 1, "value": 68}, "group": "control_change"}, {"time": 61264, "annotation": {"number": 1, "value": 67}, "group": "control_change"}, {"time": 61382, "annotation": {"number": 1, "value": 68}, "group": "control_change"}, {"time": 61405, "annotation": {"number": 1, "value": 70}, "group": "control_change"}, {"time": 61418, "annotation": {"number": 10, "value": 126}, "group": "control_change"}, {"time": 61420, "annotation": {"number": 1, "value": 71}, "group": "control_change"}, {"time": 61428, "annotation": {"number": 1, "value": 72}, "group": "control_change"}, {"time": 61436, "annotation": {"number": 1, "value": 73}, "group": "control_change"}, {"time": 61444, "annotation": {"number": 1, "value": 75}, "group": "control_change"}, {"time": 61447, "annotation": {"number": 10, "value": 116}, "group": "control_change"}, {"time": 61452, "annotation": {"number": 1, "value": 76}, "group": "control_change"}, {"time": 61460, "annotation": {"number": 1, "value": 77}, "group": "control_change"}, {"time": 61462, "annotation": {"number": 10, "value": 107}, "group": "control_change"}, {"time": 61467, "annotation": {"number": 1, "value": 79}, "group": "control_change"}, {"time": 61475, "annotation": {"number": 1, "value": 80}, "group": "control_change"}, {"time": 61475, "annotation": {"number": 10, "value": 97}, "group": "control_change"}, {"time": 61483, "annotation": {"number": 1, "value": 81}, "group": "control_change"}, {"time": 61490, "annotation": {"number": 1, "value": 83}, "group": "control_change"}, {"time": 61491, "annotation": {"number": 10, "value": 88}, "group": "control_change"}, {"time": 61497, "annotation": {"number": 1, "value": 84}, "group": "control_change"}, {"time": 61505, "annotation": {"number": 1, "value": 86}, "group": "control_change"}, {"time": 61507, "annotation": {"number": 10, "value": 79}, "group": "control_change"}, {"time": 61513, "annotation": {"number": 1, "value": 87}, "group": "control_change"}, {"time": 61520, "annotation": {"number": 1, "value": 88}, "group": "control_change"}, {"time": 61528, "annotation": {"number": 1, "value": 90}, "group": "control_change"}, {"time": 61535, "annotation": {"number": 10, "value": 69}, "group": "control_change"}, {"time": 61536, "annotation": {"number": 1, "value": 92}, "group": "control_change"}, {"time": 61543, "annotation": {"number": 1, "value": 93}, "group": "control_change"}, {"time": 61551, "annotation": {"number": 1, "value": 94}, "group": "control_change"}, {"time": 61559, "annotation": {"number": 1, "value": 95}, "group": "control_change"}, {"time": 61566, "annotation": {"number": 1, "value": 96}, "group": "control_change"}, {"time": 61567, "annotation": {"number": 10, "value": 62}, "group": "control_change"}, {"time": 61574, "annotation": {"number": 1, "value": 98}, "group": "control_change"}, {"time": 61582, "annotation": {"number": 1, "value": 99}, "group": "control_change"}, {"time": 61590, "annotation": {"number": 1, "value": 100}, "group": "control_change"}, {"time": 61598, "annotation": {"number": 1, "value": 101}, "group": "control_change"}, {"time": 61605, "annotation": {"number": 1, "value": 102}, "group": "control_change"}, {"time": 61614, "annotation": {"number": 1, "value": 103}, "group": "control_change"}, {"time": 61622, "annotation": {"number": 1, "value": 104}, "group": "control_change"}, {"time": 61624, "annotation": {"number": 10, "value": 55}, "group": "control_change"}, {"time": 61628, "annotation": {"number": 1, "value": 105}, "group": "control_change"}, {"time": 61636, "annotation": {"number": 1, "value": 106}, "group": "control_change"}, {"time": 61644, "annotation": {"number": 1, "value": 107}, "group": "control_change"}, {"time": 61666, "annotation": {"number": 1, "value": 108}, "group": "control_change"}, {"time": 61673, "annotation": {"number": 1, "value": 109}, "group": "control_change"}, {"time": 61681, "annotation": {"number": 1, "value": 110}, "group": "control_change"}, {"time": 61696, "annotation": {"number": 1, "value": 111}, "group": "control_change"}, {"time": 61700, "annotation": {"number": 10, "value": 49}, "group": "control_change"}, {"time": 61719, "annotation": {"number": 1, "value": 112}, "group": "control_change"}, {"time": 61728, "annotation": {"number": 1, "value": 113}, "group": "control_change"}, {"time": 61735, "annotation": {"number": 1, "value": 114}, "group": "control_change"}, {"time": 61744, "annotation": {"number": 10, "value": 42}, "group": "control_change"}, {"time": 61750, "annotation": {"number": 1, "value": 115}, "group": "control_change"}, {"time": 61773, "annotation": {"number": 1, "value": 116}, "group": "control_change"}, {"time": 61776, "annotation": {"number": 10, "value": 35}, "group": "control_change"}, {"time": 61781, "annotation": {"number": 1, "value": 117}, "group": "control_change"}, {"time": 61788, "annotation": {"number": 10, "value": 30}, "group": "control_change"}, {"time": 61803, "annotation": {"number": 1, "value": 118}, "group": "control_change"}, {"time": 61804, "annotation": {"number": 10, "value": 25}, "group": "control_change"}, {"time": 61825, "annotation": {"number": 1, "value": 119}, "group": "control_change"}, {"time": 61832, "annotation": {"number": 1, "value": 120}, "group": "control_change"}, {"time": 61833, "annotation": {"number": 10, "value": 18}, "group": "control_change"}, {"time": 61847, "annotation": {"number": 1, "value": 121}, "group": "control_change"}, {"time": 61869, "annotation": {"number": 1, "value": 122}, "group": "control_change"}, {"time": 61892, "annotation": {"number": 10, "value": 11}, "group": "control_change"}, {"time": 61899, "annotation": {"number": 1, "value": 123}, "group": "control_change"}, {"time": 61907, "annotation": {"number": 1, "value": 124}, "group": "control_change"}, {"time": 61922, "annotation": {"number": 1, "value": 125}, "group": "control_change"}, {"time": 61952, "annotation": {"number": 1, "value": 126}, "group": "control_change"}, {"time": 61959, "annotation": {"number": 1, "value": 127}, "group": "control_change"}, {"time": 62084, "annotation": {"number": 10, "value": 14}, "group": "control_change"}, {"time": 62100, "annotation": {"number": 10, "value": 23}, "group": "control_change"}, {"time": 62116, "annotation": {"number": 10, "value": 32}, "group": "control_change"}, {"time": 62128, "annotation": {"number": 10, "value": 42}, "group": "control_change"}, {"time": 62144, "annotation": {"number": 10, "value": 54}, "group": "control_change"}, {"time": 62160, "annotation": {"number": 10, "value": 66}, "group": "control_change"}, {"time": 62176, "annotation": {"number": 10, "value": 79}, "group": "control_change"}, {"time": 62189, "annotation": {"number": 10, "value": 91}, "group": "control_change"}, {"time": 62204, "annotation": {"number": 10, "value": 103}, "group": "control_change"}, {"time": 62220, "annotation": {"number": 10, "value": 112}, "group": "control_change"}, {"time": 62226, "annotation": {"number": 1, "value": 126}, "group": "control_change"}, {"time": 62234, "annotation": {"number": 1, "value": 125}, "group": "control_change"}, {"time": 62236, "annotation": {"number": 10, "value": 120}, "group": "control_change"}, {"time": 62241, "annotation": {"number": 1, "value": 124}, "group": "control_change"}, {"time": 62249, "annotation": {"number": 1, "value": 123}, "group": "control_change"}, {"time": 62264, "annotation": {"number": 10, "value": 127}, "group": "control_change"}, {"time": 62271, "annotation": {"number": 1, "value": 122}, "group": "control_change"}, {"time": 62279, "annotation": {"number": 1, "value": 121}, "group": "control_change"}, {"time": 62294, "annotation": {"number": 1, "value": 120}, "group": "control_change"}, {"time": 62324, "annotation": {"number": 1, "value": 119}, "group": "control_change"}, {"time": 62361, "annotation": {"number": 1, "value": 118}, "group": "control_change"}, {"time": 62471, "annotation": {"number": 1, "value": 117}, "group": "control_change"}, {"time": 62500, "annotation": {"number": 1, "value": 116}, "group": "control_change"}, {"time": 62523, "annotation": {"number": 1, "value": 115}, "group": "control_change"}, {"time": 62532, "annotation": {"number": 1, "value": 114}, "group": "control_change"}, {"time": 62554, "annotation": {"number": 1, "value": 113}, "group": "control_change"}, {"time": 62562, "annotation": {"number": 1, "value": 112}, "group": "control_change"}, {"time": 62569, "annotation": {"number": 1, "value": 111}, "group": "control_change"}, {"time": 62577, "annotation": {"number": 1, "value": 110}, "group": "control_change"}, {"time": 62592, "annotation": {"number": 1, "value": 109}, "group": "control_change"}, {"time": 62600, "annotation": {"number": 1, "value": 108}, "group": "control_change"}, {"time": 62606, "annotation": {"number": 10, "value": 123}, "group": "control_change"}, {"time": 62607, "annotation": {"number": 1, "value": 107}, "group": "control_change"}, {"time": 62615, "annotation": {"number": 1, "value": 106}, "group": "control_change"}, {"time": 62622, "annotation": {"number": 1, "value": 105}, "group": "control_change"}, {"time": 62630, "annotation": {"number": 1, "value": 104}, "group": "control_change"}, {"time": 62637, "annotation": {"number": 10, "value": 112}, "group": "control_change"}, {"time": 62638, "annotation": {"number": 1, "value": 103}, "group": "control_change"}, {"time": 62646, "annotation": {"number": 1, "value": 102}, "group": "control_change"}, {"time": 62650, "annotation": {"number": 10, "value": 103}, "group": "control_change"}, {"time": 62652, "annotation": {"number": 1, "value": 101}, "group": "control_change"}, {"time": 62661, "annotation": {"number": 1, "value": 100}, "group": "control_change"}, {"time": 62669, "annotation": {"number": 10, "value": 95}, "group": "control_change"}, {"time": 62671, "annotation": {"number": 1, "value": 98}, "group": "control_change"}, {"time": 62678, "annotation": {"number": 1, "value": 97}, "group": "control_change"}, {"time": 62685, "annotation": {"number": 1, "value": 96}, "group": "control_change"}, {"time": 62694, "annotation": {"number": 10, "value": 83}, "group": "control_change"}, {"time": 62700, "annotation": {"number": 1, "value": 95}, "group": "control_change"}, {"time": 62708, "annotation": {"number": 1, "value": 94}, "group": "control_change"}, {"time": 62710, "annotation": {"number": 10, "value": 76}, "group": "control_change"}, {"time": 62715, "annotation": {"number": 1, "value": 93}, "group": "control_change"}, {"time": 62723, "annotation": {"number": 1, "value": 92}, "group": "control_change"}, {"time": 62737, "annotation": {"number": 1, "value": 91}, "group": "control_change"}, {"time": 62738, "annotation": {"number": 10, "value": 64}, "group": "control_change"}, {"time": 62744, "annotation": {"number": 1, "value": 90}, "group": "control_change"}, {"time": 62753, "annotation": {"number": 1, "value": 89}, "group": "control_change"}, {"time": 62770, "annotation": {"number": 1, "value": 87}, "group": "control_change"}, {"time": 62770, "annotation": {"number": 10, "value": 52}, "group": "control_change"}, {"time": 62790, "annotation": {"number": 1, "value": 86}, "group": "control_change"}, {"time": 62798, "annotation": {"number": 10, "value": 43}, "group": "control_change"}, {"time": 62799, "annotation": {"number": 1, "value": 85}, "group": "control_change"}, {"time": 62806, "annotation": {"number": 1, "value": 84}, "group": "control_change"}, {"time": 62814, "annotation": {"number": 1, "value": 83}, "group": "control_change"}, {"time": 62829, "annotation": {"number": 1, "value": 82}, "group": "control_change"}, {"time": 62836, "annotation": {"number": 1, "value": 81}, "group": "control_change"}, {"time": 62842, "annotation": {"number": 10, "value": 34}, "group": "control_change"}, {"time": 62844, "annotation": {"number": 1, "value": 80}, "group": "control_change"}, {"time": 62867, "annotation": {"number": 1, "value": 79}, "group": "control_change"}, {"time": 62874, "annotation": {"number": 1, "value": 78}, "group": "control_change"}, {"time": 62891, "annotation": {"number": 1, "value": 77}, "group": "control_change"}, {"time": 62898, "annotation": {"number": 1, "value": 76}, "group": "control_change"}, {"time": 62919, "annotation": {"number": 10, "value": 24}, "group": "control_change"}, {"time": 62943, "annotation": {"number": 1, "value": 75}, "group": "control_change"}, {"time": 62978, "annotation": {"number": 10, "value": 17}, "group": "control_change"}, {"time": 63023, "annotation": {"number": 10, "value": 10}, "group": "control_change"}, {"time": 63051, "annotation": {"number": 10, "value": 2}, "group": "control_change"}, {"time": 63149, "annotation": {"number": 1, "value": 74}, "group": "control_change"}, {"time": 63188, "annotation": {"number": 1, "value": 73}, "group": "control_change"}, {"time": 63224, "annotation": {"number": 1, "value": 72}, "group": "control_change"}, {"time": 63232, "annotation": {"number": 1, "value": 71}, "group": "control_change"}, {"time": 63255, "annotation": {"number": 1, "value": 70}, "group": "control_change"}, {"time": 63277, "annotation": {"number": 1, "value": 69}, "group": "control_change"}, {"time": 63307, "annotation": {"number": 1, "value": 68}, "group": "control_change"}, {"time": 63352, "annotation": {"number": 10, "value": 2}, "group": "control_change"}, {"time": 63380, "annotation": {"number": 10, "value": 16}, "group": "control_change"}, {"time": 63396, "annotation": {"number": 10, "value": 24}, "group": "control_change"}, {"time": 63408, "annotation": {"number": 10, "value": 32}, "group": "control_change"}, {"time": 63424, "annotation": {"number": 10, "value": 42}, "group": "control_change"}, {"time": 63440, "annotation": {"number": 10, "value": 50}, "group": "control_change"}, {"time": 63452, "annotation": {"number": 10, "value": 58}, "group": "control_change"}, {"time": 63468, "annotation": {"number": 10, "value": 67}, "group": "control_change"}, {"time": 63483, "annotation": {"number": 10, "value": 75}, "group": "control_change"}, {"time": 63499, "annotation": {"number": 10, "value": 82}, "group": "control_change"}, {"time": 63499, "annotation": {"number": 1, "value": 69}, "group": "control_change"}, {"time": 63511, "annotation": {"number": 10, "value": 87}, "group": "control_change"}, {"time": 63527, "annotation": {"number": 10, "value": 89}, "group": "control_change"}, {"time": 63543, "annotation": {"number": 1, "value": 0}, "group": "control_change"}, {"time": 76359, "annotation": {"number": 11, "value": 100}, "group": "control_change"}, {"time": 76379, "annotation": {"number": 91, "value": 0}, "group": "control_change"}, {"time": 76389, "annotation": {"number": 93, "value": 0}, "group": "control_change"}, {"time": 76398, "annotation": {"number": 94, "value": 80}, "group": "control_change"}, {"time": 77278, "annotation": {"number": 1, "value": 127}, "group": "control_change"}, {"time": 79197, "annotation": {"number": 10, "value": 67}, "group": "control_change"}, {"time": 79231, "annotation": {"number": 10, "value": 73}, "group": "control_change"}, {"time": 79250, "annotation": {"number": 10, "value": 65}, "group": "control_change"}, {"time": 79259, "annotation": {"number": 10, "value": 57}, "group": "control_change"}, {"time": 79288, "annotation": {"number": 10, "value": 44}, "group": "control_change"}, {"time": 79320, "annotation": {"number": 10, "value": 34}, "group": "control_change"}, {"time": 79435, "annotation": {"number": 10, "value": 33}, "group": "control_change"}, {"time": 79451, "annotation": {"number": 10, "value": 43}, "group": "control_change"}, {"time": 79467, "annotation": {"number": 10, "value": 55}, "group": "control_change"}, {"time": 79479, "annotation": {"number": 10, "value": 72}, "group": "control_change"}, {"time": 79495, "annotation": {"number": 10, "value": 88}, "group": "control_change"}, {"time": 79511, "annotation": {"number": 10, "value": 106}, "group": "control_change"}, {"time": 79527, "annotation": {"number": 10, "value": 122}, "group": "control_change"}, {"time": 79540, "annotation": {"number": 10, "value": 127}, "group": "control_change"}, {"time": 79675, "annotation": {"number": 10, "value": 125}, "group": "control_change"}, {"time": 79691, "annotation": {"number": 10, "value": 118}, "group": "control_change"}, {"time": 79704, "annotation": {"number": 10, "value": 106}, "group": "control_change"}, {"time": 79723, "annotation": {"number": 10, "value": 90}, "group": "control_change"}, {"time": 79735, "annotation": {"number": 10, "value": 64}, "group": "control_change"}, {"time": 79748, "annotation": {"number": 10, "value": 36}, "group": "control_change"}, {"time": 79764, "annotation": {"number": 10, "value": 17}, "group": "control_change"}, {"time": 79780, "annotation": {"number": 10, "value": 7}, "group": "control_change"}, {"time": 79852, "annotation": {"number": 10, "value": 0}, "group": "control_change"}, {"time": 79884, "annotation": {"number": 10, "value": 10}, "group": "control_change"}, {"time": 79896, "annotation": {"number": 10, "value": 20}, "group": "control_change"}, {"time": 79912, "annotation": {"number": 10, "value": 28}, "group": "control_change"}, {"time": 79928, "annotation": {"number": 10, "value": 37}, "group": "control_change"}, {"time": 79944, "annotation": {"number": 10, "value": 45}, "group": "control_change"}, {"time": 79957, "annotation": {"number": 10, "value": 53}, "group": "control_change"}, {"time": 79973, "annotation": {"number": 10, "value": 60}, "group": "control_change"}, {"time": 80001, "annotation": {"number": 10, "value": 68}, "group": "control_change"}, {"time": 80036, "annotation": {"number": 10, "value": 76}, "group": "control_change"}, {"time": 80137, "annotation": {"number": 10, "value": 78}, "group": "control_change"}, {"time": 80150, "annotation": {"number": 10, "value": 70}, "group": "control_change"}, {"time": 80165, "annotation": {"number": 10, "value": 62}, "group": "control_change"}, {"time": 80181, "annotation": {"number": 10, "value": 50}, "group": "control_change"}, {"time": 80197, "annotation": {"number": 10, "value": 35}, "group": "control_change"}, {"time": 80209, "annotation": {"number": 10, "value": 18}, "group": "control_change"}, {"time": 80225, "annotation": {"number": 10, "value": 2}, "group": "control_change"}, {"time": 80345, "annotation": {"number": 10, "value": 3}, "group": "control_change"}, {"time": 80358, "annotation": {"number": 10, "value": 13}, "group": "control_change"}, {"time": 80374, "annotation": {"number": 10, "value": 23}, "group": "control_change"}, {"time": 80390, "annotation": {"number": 10, "value": 35}, "group": "control_change"}, {"time": 80402, "annotation": {"number": 10, "value": 46}, "group": "control_change"}, {"time": 80418, "annotation": {"number": 10, "value": 59}, "group": "control_change"}, {"time": 80434, "annotation": {"number": 10, "value": 69}, "group": "control_change"}, {"time": 80449, "annotation": {"number": 10, "value": 77}, "group": "control_change"}, {"time": 80462, "annotation": {"number": 10, "value": 85}, "group": "control_change"}, {"time": 80494, "annotation": {"number": 10, "value": 95}, "group": "control_change"}, {"time": 80567, "annotation": {"number": 10, "value": 94}, "group": "control_change"}, {"time": 80582, "annotation": {"number": 10, "value": 85}, "group": "control_change"}, {"time": 80595, "annotation": {"number": 10, "value": 75}, "group": "control_change"}, {"time": 80611, "annotation": {"number": 10, "value": 61}, "group": "control_change"}, {"time": 80639, "annotation": {"number": 10, "value": 41}, "group": "control_change"}, {"time": 80646, "annotation": {"number": 10, "value": 15}, "group": "control_change"}, {"time": 80655, "annotation": {"number": 10, "value": 0}, "group": "control_change"}, {"time": 80794, "annotation": {"number": 10, "value": 6}, "group": "control_change"}, {"time": 80804, "annotation": {"number": 10, "value": 16}, "group": "control_change"}, {"time": 80819, "annotation": {"number": 10, "value": 29}, "group": "control_change"}, {"time": 80835, "annotation": {"number": 10, "value": 42}, "group": "control_change"}, {"time": 80848, "annotation": {"number": 10, "value": 54}, "group": "control_change"}, {"time": 80863, "annotation": {"number": 10, "value": 67}, "group": "control_change"}, {"time": 80878, "annotation": {"number": 10, "value": 78}, "group": "control_change"}, {"time": 80894, "annotation": {"number": 10, "value": 88}, "group": "control_change"}, {"time": 80907, "annotation": {"number": 10, "value": 96}, "group": "control_change"}, {"time": 80923, "annotation": {"number": 10, "value": 103}, "group": "control_change"}, {"time": 81011, "annotation": {"number": 10, "value": 106}, "group": "control_change"}, {"time": 81043, "annotation": {"number": 10, "value": 94}, "group": "control_change"}, {"time": 81071, "annotation": {"number": 10, "value": 78}, "group": "control_change"}, {"time": 81087, "annotation": {"number": 10, "value": 66}, "group": "control_change"}, {"time": 81103, "annotation": {"number": 10, "value": 52}, "group": "control_change"}, {"time": 81115, "annotation": {"number": 10, "value": 40}, "group": "control_change"}, {"time": 81131, "annotation": {"number": 10, "value": 29}, "group": "control_change"}, {"time": 81147, "annotation": {"number": 10, "value": 21}, "group": "control_change"}, {"time": 81220, "annotation": {"number": 10, "value": 17}, "group": "control_change"}, {"time": 81251, "annotation": {"number": 10, "value": 34}, "group": "control_change"}, {"time": 81264, "annotation": {"number": 10, "value": 46}, "group": "control_change"}, {"time": 81280, "annotation": {"number": 10, "value": 60}, "group": "control_change"}, {"time": 81299, "annotation": {"number": 10, "value": 71}, "group": "control_change"}, {"time": 81311, "annotation": {"number": 10, "value": 85}, "group": "control_change"}, {"time": 81324, "annotation": {"number": 10, "value": 95}, "group": "control_change"}, {"time": 81340, "annotation": {"number": 10, "value": 105}, "group": "control_change"}, {"time": 81356, "annotation": {"number": 10, "value": 114}, "group": "control_change"}, {"time": 81368, "annotation": {"number": 10, "value": 121}, "group": "control_change"}, {"time": 81504, "annotation": {"number": 10, "value": 126}, "group": "control_change"}, {"time": 81533, "annotation": {"number": 10, "value": 116}, "group": "control_change"}, {"time": 81548, "annotation": {"number": 10, "value": 107}, "group": "control_change"}, {"time": 81561, "annotation": {"number": 10, "value": 93}, "group": "control_change"}, {"time": 81577, "annotation": {"number": 10, "value": 75}, "group": "control_change"}, {"time": 81592, "annotation": {"number": 10, "value": 53}, "group": "control_change"}, {"time": 81611, "annotation": {"number": 10, "value": 30}, "group": "control_change"}, {"time": 81621, "annotation": {"number": 10, "value": 19}, "group": "control_change"}, {"time": 81637, "annotation": {"number": 10, "value": 12}, "group": "control_change"}, {"time": 81653, "annotation": {"number": 10, "value": 5}, "group": "control_change"}, {"time": 81830, "annotation": {"number": 10, "value": 1}, "group": "control_change"}, {"time": 81905, "annotation": {"number": 10, "value": 0}, "group": "control_change"}, {"time": 82069, "annotation": {"number": 10, "value": 8}, "group": "control_change"}, {"time": 82082, "annotation": {"number": 10, "value": 22}, "group": "control_change"}, {"time": 82098, "annotation": {"number": 10, "value": 39}, "group": "control_change"}, {"time": 82114, "annotation": {"number": 10, "value": 61}, "group": "control_change"}, {"time": 82126, "annotation": {"number": 10, "value": 80}, "group": "control_change"}, {"time": 82142, "annotation": {"number": 10, "value": 103}, "group": "control_change"}, {"time": 82162, "annotation": {"number": 10, "value": 127}, "group": "control_change"}, {"time": 82322, "annotation": {"number": 10, "value": 120}, "group": "control_change"}, {"time": 82335, "annotation": {"number": 10, "value": 112}, "group": "control_change"}, {"time": 82351, "annotation": {"number": 10, "value": 100}, "group": "control_change"}, {"time": 82367, "annotation": {"number": 10, "value": 82}, "group": "control_change"}, {"time": 82378, "annotation": {"number": 10, "value": 57}, "group": "control_change"}, {"time": 82394, "annotation": {"number": 10, "value": 27}, "group": "control_change"}, {"time": 82410, "annotation": {"number": 10, "value": 9}, "group": "control_change"}, {"time": 82426, "annotation": {"number": 10, "value": 0}, "group": "control_change"}, {"time": 82498, "annotation": {"number": 10, "value": 1}, "group": "control_change"}, {"time": 82514, "annotation": {"number": 10, "value": 11}, "group": "control_change"}, {"time": 82527, "annotation": {"number": 10, "value": 27}, "group": "control_change"}, {"time": 82542, "annotation": {"number": 10, "value": 46}, "group": "control_change"}, {"time": 82559, "annotation": {"number": 10, "value": 62}, "group": "control_change"}, {"time": 82574, "annotation": {"number": 10, "value": 87}, "group": "control_change"}, {"time": 82587, "annotation": {"number": 10, "value": 110}, "group": "control_change"}, {"time": 82603, "annotation": {"number": 10, "value": 117}, "group": "control_change"}, {"time": 82631, "annotation": {"number": 10, "value": 127}, "group": "control_change"}, {"time": 82707, "annotation": {"number": 10, "value": 126}, "group": "control_change"}, {"time": 82735, "annotation": {"number": 10, "value": 114}, "group": "control_change"}, {"time": 82751, "annotation": {"number": 10, "value": 106}, "group": "control_change"}, {"time": 82767, "annotation": {"number": 10, "value": 94}, "group": "control_change"}, {"time": 82780, "annotation": {"number": 10, "value": 78}, "group": "control_change"}, {"time": 82796, "annotation": {"number": 10, "value": 62}, "group": "control_change"}, {"time": 82811, "annotation": {"number": 10, "value": 51}, "group": "control_change"}, {"time": 82824, "annotation": {"number": 10, "value": 41}, "group": "control_change"}, {"time": 82855, "annotation": {"number": 10, "value": 30}, "group": "control_change"}, {"time": 82928, "annotation": {"number": 10, "value": 42}, "group": "control_change"}, {"time": 82944, "annotation": {"number": 10, "value": 55}, "group": "control_change"}, {"time": 82960, "annotation": {"number": 10, "value": 70}, "group": "control_change"}, {"time": 82975, "annotation": {"number": 10, "value": 88}, "group": "control_change"}, {"time": 82988, "annotation": {"number": 10, "value": 110}, "group": "control_change"}, {"time": 83004, "annotation": {"number": 10, "value": 127}, "group": "control_change"}, {"time": 83086, "annotation": {"number": 1, "value": 65}, "group": "control_change"}, {"time": 83093, "annotation": {"number": 1, "value": 67}, "group": "control_change"}, {"time": 83101, "annotation": {"number": 1, "value": 70}, "group": "control_change"}, {"time": 83108, "annotation": {"number": 1, "value": 72}, "group": "control_change"}, {"time": 83116, "annotation": {"number": 1, "value": 74}, "group": "control_change"}, {"time": 83123, "annotation": {"number": 1, "value": 77}, "group": "control_change"}, {"time": 83131, "annotation": {"number": 1, "value": 79}, "group": "control_change"}, {"time": 83138, "annotation": {"number": 1, "value": 81}, "group": "control_change"}, {"time": 83145, "annotation": {"number": 1, "value": 83}, "group": "control_change"}, {"time": 83154, "annotation": {"number": 1, "value": 85}, "group": "control_change"}, {"time": 83156, "annotation": {"number": 10, "value": 122}, "group": "control_change"}, {"time": 83162, "annotation": {"number": 1, "value": 87}, "group": "control_change"}, {"time": 83168, "annotation": {"number": 10, "value": 115}, "group": "control_change"}, {"time": 83169, "annotation": {"number": 1, "value": 89}, "group": "control_change"}, {"time": 83177, "annotation": {"number": 1, "value": 91}, "group": "control_change"}, {"time": 83181, "annotation": {"number": 10, "value": 104}, "group": "control_change"}, {"time": 83185, "annotation": {"number": 1, "value": 93}, "group": "control_change"}, {"time": 83193, "annotation": {"number": 1, "value": 94}, "group": "control_change"}, {"time": 83197, "annotation": {"number": 10, "value": 92}, "group": "control_change"}, {"time": 83200, "annotation": {"number": 1, "value": 95}, "group": "control_change"}, {"time": 83207, "annotation": {"number": 1, "value": 96}, "group": "control_change"}, {"time": 83213, "annotation": {"number": 10, "value": 74}, "group": "control_change"}, {"time": 83215, "annotation": {"number": 1, "value": 98}, "group": "control_change"}, {"time": 83223, "annotation": {"number": 1, "value": 99}, "group": "control_change"}, {"time": 83228, "annotation": {"number": 10, "value": 54}, "group": "control_change"}, {"time": 83230, "annotation": {"number": 1, "value": 100}, "group": "control_change"}, {"time": 83237, "annotation": {"number": 1, "value": 101}, "group": "control_change"}, {"time": 83241, "annotation": {"number": 10, "value": 36}, "group": "control_change"}, {"time": 83245, "annotation": {"number": 1, "value": 102}, "group": "control_change"}, {"time": 83253, "annotation": {"number": 1, "value": 103}, "group": "control_change"}, {"time": 83257, "annotation": {"number": 10, "value": 26}, "group": "control_change"}, {"time": 83260, "annotation": {"number": 1, "value": 104}, "group": "control_change"}, {"time": 83272, "annotation": {"number": 10, "value": 17}, "group": "control_change"}, {"time": 83276, "annotation": {"number": 1, "value": 105}, "group": "control_change"}, {"time": 83283, "annotation": {"number": 1, "value": 106}, "group": "control_change"}, {"time": 83298, "annotation": {"number": 1, "value": 107}, "group": "control_change"}, {"time": 83301, "annotation": {"number": 10, "value": 7}, "group": "control_change"}, {"time": 83306, "annotation": {"number": 1, "value": 108}, "group": "control_change"}, {"time": 83321, "annotation": {"number": 1, "value": 109}, "group": "control_change"}, {"time": 83329, "annotation": {"number": 1, "value": 110}, "group": "control_change"}, {"time": 83344, "annotation": {"number": 1, "value": 111}, "group": "control_change"}, {"time": 83351, "annotation": {"number": 1, "value": 112}, "group": "control_change"}, {"time": 83359, "annotation": {"number": 1, "value": 113}, "group": "control_change"}, {"time": 83374, "annotation": {"number": 10, "value": 14}, "group": "control_change"}, {"time": 83382, "annotation": {"number": 1, "value": 114}, "group": "control_change"}, {"time": 83389, "annotation": {"number": 1, "value": 115}, "group": "control_change"}, {"time": 83390, "annotation": {"number": 10, "value": 25}, "group": "control_change"}, {"time": 83397, "annotation": {"number": 1, "value": 116}, "group": "control_change"}, {"time": 83405, "annotation": {"number": 10, "value": 38}, "group": "control_change"}, {"time": 83412, "annotation": {"number": 1, "value": 117}, "group": "control_change"}, {"time": 83419, "annotation": {"number": 1, "value": 118}, "group": "control_change"}, {"time": 83421, "annotation": {"number": 10, "value": 51}, "group": "control_change"}, {"time": 83427, "annotation": {"number": 1, "value": 119}, "group": "control_change"}, {"time": 83434, "annotation": {"number": 10, "value": 65}, "group": "control_change"}, {"time": 83449, "annotation": {"number": 1, "value": 121}, "group": "control_change"}, {"time": 83449, "annotation": {"number": 10, "value": 78}, "group": "control_change"}, {"time": 83464, "annotation": {"number": 1, "value": 122}, "group": "control_change"}, {"time": 83465, "annotation": {"number": 10, "value": 90}, "group": "control_change"}, {"time": 83472, "annotation": {"number": 1, "value": 123}, "group": "control_change"}, {"time": 83480, "annotation": {"number": 1, "value": 124}, "group": "control_change"}, {"time": 83481, "annotation": {"number": 10, "value": 100}, "group": "control_change"}, {"time": 83487, "annotation": {"number": 1, "value": 125}, "group": "control_change"}, {"time": 83494, "annotation": {"number": 10, "value": 108}, "group": "control_change"}, {"time": 83495, "annotation": {"number": 1, "value": 126}, "group": "control_change"}, {"time": 83510, "annotation": {"number": 1, "value": 127}, "group": "control_change"}, {"time": 83526, "annotation": {"number": 10, "value": 118}, "group": "control_change"}, {"time": 83600, "annotation": {"number": 10, "value": 117}, "group": "control_change"}, {"time": 83633, "annotation": {"number": 10, "value": 99}, "group": "control_change"}, {"time": 83645, "annotation": {"number": 10, "value": 84}, "group": "control_change"}, {"time": 83661, "annotation": {"number": 10, "value": 64}, "group": "control_change"}, {"time": 83678, "annotation": {"number": 10, "value": 41}, "group": "control_change"}, {"time": 83694, "annotation": {"number": 10, "value": 18}, "group": "control_change"}, {"time": 83708, "annotation": {"number": 10, "value": 1}, "group": "control_change"}, {"time": 83723, "annotation": {"number": 10, "value": 0}, "group": "control_change"}, {"time": 83895, "annotation": {"number": 10, "value": 6}, "group": "control_change"}, {"time": 83912, "annotation": {"number": 10, "value": 17}, "group": "control_change"}, {"time": 83921, "annotation": {"number": 10, "value": 29}, "group": "control_change"}, {"time": 83937, "annotation": {"number": 10, "value": 41}, "group": "control_change"}, {"time": 83954, "annotation": {"number": 10, "value": 55}, "group": "control_change"}, {"time": 83966, "annotation": {"number": 10, "value": 66}, "group": "control_change"}, {"time": 83983, "annotation": {"number": 10, "value": 75}, "group": "control_change"}, {"time": 83999, "annotation": {"number": 10, "value": 83}, "group": "control_change"}, {"time": 84087, "annotation": {"number": 10, "value": 84}, "group": "control_change"}, {"time": 84116, "annotation": {"number": 10, "value": 68}, "group": "control_change"}, {"time": 84131, "annotation": {"number": 10, "value": 58}, "group": "control_change"}, {"time": 84147, "annotation": {"number": 10, "value": 46}, "group": "control_change"}, {"time": 84160, "annotation": {"number": 10, "value": 32}, "group": "control_change"}, {"time": 84176, "annotation": {"number": 10, "value": 17}, "group": "control_change"}, {"time": 84192, "annotation": {"number": 10, "value": 0}, "group": "control_change"}, {"time": 84353, "annotation": {"number": 10, "value": 2}, "group": "control_change"}, {"time": 84384, "annotation": {"number": 10, "value": 11}, "group": "control_change"}, {"time": 84400, "annotation": {"number": 10, "value": 18}, "group": "control_change"}, {"time": 84413, "annotation": {"number": 10, "value": 27}, "group": "control_change"}, {"time": 84428, "annotation": {"number": 10, "value": 43}, "group": "control_change"}, {"time": 84445, "annotation": {"number": 10, "value": 60}, "group": "control_change"}, {"time": 84460, "annotation": {"number": 10, "value": 82}, "group": "control_change"}, {"time": 84473, "annotation": {"number": 10, "value": 102}, "group": "control_change"}, {"time": 84489, "annotation": {"number": 10, "value": 116}, "group": "control_change"}, {"time": 84504, "annotation": {"number": 10, "value": 124}, "group": "control_change"}, {"time": 84653, "annotation": {"number": 10, "value": 126}, "group": "control_change"}, {"time": 84667, "annotation": {"number": 1, "value": 126}, "group": "control_change"}, {"time": 84681, "annotation": {"number": 10, "value": 117}, "group": "control_change"}, {"time": 84697, "annotation": {"number": 10, "value": 110}, "group": "control_change"}, {"time": 84697, "annotation": {"number": 1, "value": 125}, "group": "control_change"}, {"time": 84713, "annotation": {"number": 10, "value": 100}, "group": "control_change"}, {"time": 84725, "annotation": {"number": 10, "value": 89}, "group": "control_change"}, {"time": 84734, "annotation": {"number": 1, "value": 124}, "group": "control_change"}, {"time": 84741, "annotation": {"number": 10, "value": 75}, "group": "control_change"}, {"time": 84757, "annotation": {"number": 10, "value": 63}, "group": "control_change"}, {"time": 84779, "annotation": {"number": 10, "value": 50}, "group": "control_change"}, {"time": 84780, "annotation": {"number": 1, "value": 123}, "group": "control_change"}, {"time": 84786, "annotation": {"number": 10, "value": 42}, "group": "control_change"}, {"time": 84801, "annotation": {"number": 10, "value": 35}, "group": "control_change"}, {"time": 84831, "annotation": {"number": 1, "value": 122}, "group": "control_change"}, {"time": 84853, "annotation": {"number": 1, "value": 121}, "group": "control_change"}, {"time": 84882, "annotation": {"number": 1, "value": 120}, "group": "control_change"}, {"time": 84920, "annotation": {"number": 1, "value": 119}, "group": "control_change"}, {"time": 84950, "annotation": {"number": 1, "value": 118}, "group": "control_change"}, {"time": 84957, "annotation": {"number": 1, "value": 117}, "group": "control_change"}, {"time": 84987, "annotation": {"number": 1, "value": 116}, "group": "control_change"}, {"time": 84993, "annotation": {"number": 10, "value": 31}, "group": "control_change"}, {"time": 85016, "annotation": {"number": 1, "value": 115}, "group": "control_change"}, {"time": 85038, "annotation": {"number": 10, "value": 20}, "group": "control_change"}, {"time": 85053, "annotation": {"number": 10, "value": 13}, "group": "control_change"}, {"time": 85054, "annotation": {"number": 1, "value": 114}, "group": "control_change"}, {"time": 85061, "annotation": {"number": 1, "value": 113}, "group": "control_change"}, {"time": 85077, "annotation": {"number": 1, "value": 112}, "group": "control_change"}, {"time": 85081, "annotation": {"number": 10, "value": 4}, "group": "control_change"}, {"time": 85100, "annotation": {"number": 1, "value": 111}, "group": "control_change"}, {"time": 85107, "annotation": {"number": 1, "value": 110}, "group": "control_change"}, {"time": 85129, "annotation": {"number": 1, "value": 108}, "group": "control_change"}, {"time": 85152, "annotation": {"number": 1, "value": 107}, "group": "control_change"}, {"time": 85159, "annotation": {"number": 1, "value": 106}, "group": "control_change"}, {"time": 85166, "annotation": {"number": 1, "value": 105}, "group": "control_change"}, {"time": 85181, "annotation": {"number": 1, "value": 104}, "group": "control_change"}, {"time": 85189, "annotation": {"number": 1, "value": 103}, "group": "control_change"}, {"time": 85204, "annotation": {"number": 1, "value": 102}, "group": "control_change"}, {"time": 85205, "annotation": {"number": 10, "value": 7}, "group": "control_change"}, {"time": 85212, "annotation": {"number": 1, "value": 101}, "group": "control_change"}, {"time": 85220, "annotation": {"number": 1, "value": 100}, "group": "control_change"}, {"time": 85221, "annotation": {"number": 10, "value": 16}, "group": "control_change"}, {"time": 85230, "annotation": {"number": 10, "value": 27}, "group": "control_change"}, {"time": 85243, "annotation": {"number": 1, "value": 99}, "group": "control_change"}, {"time": 85246, "annotation": {"number": 10, "value": 42}, "group": "control_change"}, {"time": 85251, "annotation": {"number": 1, "value": 98}, "group": "control_change"}, {"time": 85262, "annotation": {"number": 10, "value": 58}, "group": "control_change"}, {"time": 85273, "annotation": {"number": 1, "value": 97}, "group": "control_change"}, {"time": 85277, "annotation": {"number": 10, "value": 82}, "group": "control_change"}, {"time": 85290, "annotation": {"number": 10, "value": 99}, "group": "control_change"}, {"time": 85306, "annotation": {"number": 10, "value": 111}, "group": "control_change"}, {"time": 85318, "annotation": {"number": 1, "value": 96}, "group": "control_change"}, {"time": 85319, "annotation": {"number": 10, "value": 120}, "group": "control_change"}, {"time": 85340, "annotation": {"number": 1, "value": 95}, "group": "control_change"}, {"time": 85350, "annotation": {"number": 10, "value": 127}, "group": "control_change"}, {"time": 85377, "annotation": {"number": 1, "value": 94}, "group": "control_change"}, {"time": 85415, "annotation": {"number": 1, "value": 93}, "group": "control_change"}, {"time": 85499, "annotation": {"number": 10, "value": 122}, "group": "control_change"}, {"time": 85514, "annotation": {"number": 10, "value": 115}, "group": "control_change"}, {"time": 85527, "annotation": {"number": 10, "value": 107}, "group": "control_change"}, {"time": 85533, "annotation": {"number": 1, "value": 92}, "group": "control_change"}, {"time": 85543, "annotation": {"number": 10, "value": 97}, "group": "control_change"}, {"time": 85559, "annotation": {"number": 10, "value": 87}, "group": "control_change"}, {"time": 85571, "annotation": {"number": 10, "value": 79}, "group": "control_change"}, {"time": 85587, "annotation": {"number": 10, "value": 69}, "group": "control_change"}, {"time": 85600, "annotation": {"number": 1, "value": 91}, "group": "control_change"}, {"time": 85603, "annotation": {"number": 10, "value": 61}, "group": "control_change"}, {"time": 85619, "annotation": {"number": 10, "value": 53}, "group": "control_change"}, {"time": 85647, "annotation": {"number": 10, "value": 41}, "group": "control_change"}, {"time": 85666, "annotation": {"number": 1, "value": 90}, "group": "control_change"}, {"time": 85780, "annotation": {"number": 10, "value": 38}, "group": "control_change"}, {"time": 85824, "annotation": {"number": 10, "value": 45}, "group": "control_change"}, {"time": 85830, "annotation": {"number": 1, "value": 88}, "group": "control_change"}, {"time": 85856, "annotation": {"number": 10, "value": 56}, "group": "control_change"}, {"time": 85861, "annotation": {"number": 1, "value": 87}, "group": "control_change"}, {"time": 85872, "annotation": {"number": 10, "value": 63}, "group": "control_change"}, {"time": 85884, "annotation": {"number": 10, "value": 70}, "group": "control_change"}, {"time": 85890, "annotation": {"number": 1, "value": 86}, "group": "control_change"}, {"time": 85900, "annotation": {"number": 10, "value": 77}, "group": "control_change"}, {"time": 85912, "annotation": {"number": 1, "value": 85}, "group": "control_change"}, {"time": 85916, "annotation": {"number": 10, "value": 84}, "group": "control_change"}, {"time": 85920, "annotation": {"number": 1, "value": 84}, "group": "control_change"}, {"time": 85935, "annotation": {"number": 1, "value": 83}, "group": "control_change"}, {"time": 85944, "annotation": {"number": 10, "value": 92}, "group": "control_change"}, {"time": 85965, "annotation": {"number": 1, "value": 82}, "group": "control_change"}, {"time": 85974, "annotation": {"number": 1, "value": 81}, "group": "control_change"}, {"time": 85983, "annotation": {"number": 1, "value": 80}, "group": "control_change"}, {"time": 85992, "annotation": {"number": 10, "value": 99}, "group": "control_change"}, {"time": 86004, "annotation": {"number": 1, "value": 79}, "group": "control_change"}, {"time": 86034, "annotation": {"number": 1, "value": 77}, "group": "control_change"}, {"time": 86041, "annotation": {"number": 1, "value": 76}, "group": "control_change"}, {"time": 86063, "annotation": {"number": 1, "value": 75}, "group": "control_change"}, {"time": 86085, "annotation": {"number": 1, "value": 74}, "group": "control_change"}, {"time": 86093, "annotation": {"number": 1, "value": 73}, "group": "control_change"}, {"time": 86108, "annotation": {"number": 1, "value": 72}, "group": "control_change"}, {"time": 86129, "annotation": {"number": 1, "value": 71}, "group": "control_change"}, {"time": 86153, "annotation": {"number": 10, "value": 99}, "group": "control_change"}, {"time": 86167, "annotation": {"number": 1, "value": 70}, "group": "control_change"}, {"time": 86185, "annotation": {"number": 10, "value": 88}, "group": "control_change"}, {"time": 86197, "annotation": {"number": 10, "value": 81}, "group": "control_change"}, {"time": 86213, "annotation": {"number": 10, "value": 72}, "group": "control_change"}, {"time": 86226, "annotation": {"number": 10, "value": 62}, "group": "control_change"}, {"time": 86227, "annotation": {"number": 1, "value": 69}, "group": "control_change"}, {"time": 86244, "annotation": {"number": 10, "value": 50}, "group": "control_change"}, {"time": 86257, "annotation": {"number": 10, "value": 37}, "group": "control_change"}, {"time": 86273, "annotation": {"number": 10, "value": 24}, "group": "control_change"}, {"time": 86285, "annotation": {"number": 10, "value": 12}, "group": "control_change"}, {"time": 86301, "annotation": {"number": 10, "value": 0}, "group": "control_change"}, {"time": 86311, "annotation": {"number": 1, "value": 68}, "group": "control_change"}, {"time": 86613, "annotation": {"number": 10, "value": 2}, "group": "control_change"}, {"time": 86730, "annotation": {"number": 1, "value": 67}, "group": "control_change"}, {"time": 86737, "annotation": {"number": 1, "value": 66}, "group": "control_change"}, {"time": 86760, "annotation": {"number": 1, "value": 65}, "group": "control_change"}, {"time": 86778, "annotation": {"number": 10, "value": 8}, "group": "control_change"}, {"time": 86782, "annotation": {"number": 1, "value": 64}, "group": "control_change"}, {"time": 86806, "annotation": {"number": 10, "value": 16}, "group": "control_change"}, {"time": 86822, "annotation": {"number": 10, "value": 24}, "group": "control_change"}, {"time": 86835, "annotation": {"number": 10, "value": 32}, "group": "control_change"}, {"time": 86850, "annotation": {"number": 10, "value": 42}, "group": "control_change"}, {"time": 86866, "annotation": {"number": 10, "value": 51}, "group": "control_change"}, {"time": 86885, "annotation": {"number": 10, "value": 65}, "group": "control_change"}, {"time": 86898, "annotation": {"number": 10, "value": 78}, "group": "control_change"}, {"time": 86910, "annotation": {"number": 10, "value": 90}, "group": "control_change"}, {"time": 86926, "annotation": {"number": 10, "value": 103}, "group": "control_change"}, {"time": 86939, "annotation": {"number": 10, "value": 116}, "group": "control_change"}, {"time": 86955, "annotation": {"number": 10, "value": 127}, "group": "control_change"}, {"time": 87192, "annotation": {"number": 10, "value": 126}, "group": "control_change"}, {"time": 87216, "annotation": {"number": 1, "value": 65}, "group": "control_change"}, {"time": 87225, "annotation": {"number": 1, "value": 66}, "group": "control_change"}, {"time": 87232, "annotation": {"number": 1, "value": 67}, "group": "control_change"}, {"time": 87240, "annotation": {"number": 1, "value": 68}, "group": "control_change"}, {"time": 87247, "annotation": {"number": 1, "value": 69}, "group": "control_change"}, {"time": 87255, "annotation": {"number": 1, "value": 70}, "group": "control_change"}, {"time": 87262, "annotation": {"number": 1, "value": 71}, "group": "control_change"}, {"time": 87270, "annotation": {"number": 1, "value": 72}, "group": "control_change"}, {"time": 87278, "annotation": {"number": 1, "value": 73}, "group": "control_change"}, {"time": 87286, "annotation": {"number": 1, "value": 74}, "group": "control_change"}, {"time": 87293, "annotation": {"number": 1, "value": 75}, "group": "control_change"}, {"time": 87301, "annotation": {"number": 1, "value": 76}, "group": "control_change"}, {"time": 87308, "annotation": {"number": 1, "value": 78}, "group": "control_change"}, {"time": 87312, "annotation": {"number": 10, "value": 122}, "group": "control_change"}, {"time": 87317, "annotation": {"number": 1, "value": 79}, "group": "control_change"}, {"time": 87324, "annotation": {"number": 1, "value": 80}, "group": "control_change"}, {"time": 87327, "annotation": {"number": 10, "value": 113}, "group": "control_change"}, {"time": 87331, "annotation": {"number": 1, "value": 81}, "group": "control_change"}, {"time": 87339, "annotation": {"number": 1, "value": 83}, "group": "control_change"}, {"time": 87347, "annotation": {"number": 1, "value": 84}, "group": "control_change"}, {"time": 87353, "annotation": {"number": 10, "value": 100}, "group": "control_change"}, {"time": 87354, "annotation": {"number": 1, "value": 85}, "group": "control_change"}, {"time": 87359, "annotation": {"number": 10, "value": 85}, "group": "control_change"}, {"time": 87362, "annotation": {"number": 1, "value": 86}, "group": "control_change"}, {"time": 87369, "annotation": {"number": 1, "value": 88}, "group": "control_change"}, {"time": 87371, "annotation": {"number": 10, "value": 71}, "group": "control_change"}, {"time": 87377, "annotation": {"number": 1, "value": 89}, "group": "control_change"}, {"time": 87384, "annotation": {"number": 1, "value": 91}, "group": "control_change"}, {"time": 87388, "annotation": {"number": 10, "value": 58}, "group": "control_change"}, {"time": 87392, "annotation": {"number": 1, "value": 92}, "group": "control_change"}, {"time": 87399, "annotation": {"number": 1, "value": 93}, "group": "control_change"}, {"time": 87400, "annotation": {"number": 10, "value": 48}, "group": "control_change"}, {"time": 87407, "annotation": {"number": 1, "value": 95}, "group": "control_change"}, {"time": 87414, "annotation": {"number": 1, "value": 96}, "group": "control_change"}, {"time": 87419, "annotation": {"number": 10, "value": 41}, "group": "control_change"}, {"time": 87423, "annotation": {"number": 1, "value": 97}, "group": "control_change"}, {"time": 87431, "annotation": {"number": 1, "value": 98}, "group": "control_change"}, {"time": 87439, "annotation": {"number": 1, "value": 100}, "group": "control_change"}, {"time": 87446, "annotation": {"number": 1, "value": 101}, "group": "control_change"}, {"time": 87447, "annotation": {"number": 10, "value": 33}, "group": "control_change"}, {"time": 87454, "annotation": {"number": 1, "value": 102}, "group": "control_change"}, {"time": 87462, "annotation": {"number": 1, "value": 103}, "group": "control_change"}, {"time": 87469, "annotation": {"number": 1, "value": 104}, "group": "control_change"}, {"time": 87477, "annotation": {"number": 1, "value": 106}, "group": "control_change"}, {"time": 87484, "annotation": {"number": 1, "value": 107}, "group": "control_change"}, {"time": 87492, "annotation": {"number": 1, "value": 108}, "group": "control_change"}, {"time": 87500, "annotation": {"number": 1, "value": 109}, "group": "control_change"}, {"time": 87507, "annotation": {"number": 1, "value": 110}, "group": "control_change"}, {"time": 87515, "annotation": {"number": 1, "value": 111}, "group": "control_change"}, {"time": 87523, "annotation": {"number": 1, "value": 112}, "group": "control_change"}, {"time": 87536, "annotation": {"number": 10, "value": 27}, "group": "control_change"}, {"time": 87538, "annotation": {"number": 1, "value": 113}, "group": "control_change"}, {"time": 87546, "annotation": {"number": 1, "value": 114}, "group": "control_change"}, {"time": 87553, "annotation": {"number": 1, "value": 115}, "group": "control_change"}, {"time": 87575, "annotation": {"number": 1, "value": 117}, "group": "control_change"}, {"time": 87596, "annotation": {"number": 10, "value": 19}, "group": "control_change"}, {"time": 87598, "annotation": {"number": 1, "value": 118}, "group": "control_change"}, {"time": 87605, "annotation": {"number": 1, "value": 119}, "group": "control_change"}, {"time": 87621, "annotation": {"number": 1, "value": 120}, "group": "control_change"}, {"time": 87651, "annotation": {"number": 1, "value": 121}, "group": "control_change"}, {"time": 87653, "annotation": {"number": 10, "value": 12}, "group": "control_change"}, {"time": 87681, "annotation": {"number": 1, "value": 122}, "group": "control_change"}, {"time": 87745, "annotation": {"number": 10, "value": 10}, "group": "control_change"}, {"time": 87801, "annotation": {"number": 10, "value": 20}, "group": "control_change"}, {"time": 87816, "annotation": {"number": 10, "value": 28}, "group": "control_change"}, {"time": 87832, "annotation": {"number": 10, "value": 38}, "group": "control_change"}, {"time": 87848, "annotation": {"number": 10, "value": 49}, "group": "control_change"}, {"time": 87864, "annotation": {"number": 10, "value": 57}, "group": "control_change"}, {"time": 87876, "annotation": {"number": 10, "value": 69}, "group": "control_change"}, {"time": 87892, "annotation": {"number": 10, "value": 79}, "group": "control_change"}, {"time": 87905, "annotation": {"number": 10, "value": 89}, "group": "control_change"}, {"time": 87923, "annotation": {"number": 10, "value": 100}, "group": "control_change"}, {"time": 87936, "annotation": {"number": 10, "value": 107}, "group": "control_change"}, {"time": 87965, "annotation": {"number": 10, "value": 116}, "group": "control_change"}, {"time": 87996, "annotation": {"number": 10, "value": 123}, "group": "control_change"}, {"time": 88025, "annotation": {"number": 10, "value": 127}, "group": "control_change"}, {"time": 88347, "annotation": {"number": 1, "value": 121}, "group": "control_change"}, {"time": 88350, "annotation": {"number": 10, "value": 125}, "group": "control_change"}, {"time": 88371, "annotation": {"number": 1, "value": 120}, "group": "control_change"}, {"time": 88382, "annotation": {"number": 10, "value": 112}, "group": "control_change"}, {"time": 88393, "annotation": {"number": 1, "value": 119}, "group": "control_change"}, {"time": 88398, "annotation": {"number": 10, "value": 102}, "group": "control_change"}, {"time": 88410, "annotation": {"number": 10, "value": 93}, "group": "control_change"}, {"time": 88416, "annotation": {"number": 1, "value": 117}, "group": "control_change"}, {"time": 88423, "annotation": {"number": 1, "value": 116}, "group": "control_change"}, {"time": 88431, "annotation": {"number": 1, "value": 115}, "group": "control_change"}, {"time": 88439, "annotation": {"number": 1, "value": 114}, "group": "control_change"}, {"time": 88442, "annotation": {"number": 10, "value": 79}, "group": "control_change"}, {"time": 88454, "annotation": {"number": 1, "value": 113}, "group": "control_change"}, {"time": 88454, "annotation": {"number": 10, "value": 68}, "group": "control_change"}, {"time": 88461, "annotation": {"number": 1, "value": 112}, "group": "control_change"}, {"time": 88469, "annotation": {"number": 1, "value": 111}, "group": "control_change"}, {"time": 88470, "annotation": {"number": 10, "value": 55}, "group": "control_change"}, {"time": 88477, "annotation": {"number": 1, "value": 110}, "group": "control_change"}, {"time": 88486, "annotation": {"number": 10, "value": 48}, "group": "control_change"}, {"time": 88492, "annotation": {"number": 1, "value": 109}, "group": "control_change"}, {"time": 88499, "annotation": {"number": 1, "value": 108}, "group": "control_change"}, {"time": 88502, "annotation": {"number": 10, "value": 39}, "group": "control_change"}, {"time": 88515, "annotation": {"number": 1, "value": 107}, "group": "control_change"}, {"time": 88515, "annotation": {"number": 10, "value": 30}, "group": "control_change"}, {"time": 88522, "annotation": {"number": 1, "value": 106}, "group": "control_change"}, {"time": 88531, "annotation": {"number": 10, "value": 22}, "group": "control_change"}, {"time": 88537, "annotation": {"number": 1, "value": 105}, "group": "control_change"}, {"time": 88544, "annotation": {"number": 1, "value": 104}, "group": "control_change"}, {"time": 88559, "annotation": {"number": 1, "value": 103}, "group": "control_change"}, {"time": 88582, "annotation": {"number": 1, "value": 102}, "group": "control_change"}, {"time": 88589, "annotation": {"number": 1, "value": 101}, "group": "control_change"}, {"time": 88603, "annotation": {"number": 10, "value": 16}, "group": "control_change"}, {"time": 88620, "annotation": {"number": 1, "value": 100}, "group": "control_change"}, {"time": 88679, "annotation": {"number": 10, "value": 12}, "group": "control_change"}, {"time": 88702, "annotation": {"number": 1, "value": 99}, "group": "control_change"}, {"time": 88723, "annotation": {"number": 10, "value": 4}, "group": "control_change"}, {"time": 88835, "annotation": {"number": 1, "value": 98}, "group": "control_change"}, {"time": 88872, "annotation": {"number": 1, "value": 97}, "group": "control_change"}, {"time": 88901, "annotation": {"number": 1, "value": 96}, "group": "control_change"}, {"time": 88916, "annotation": {"number": 10, "value": 2}, "group": "control_change"}, {"time": 88925, "annotation": {"number": 1, "value": 95}, "group": "control_change"}, {"time": 88955, "annotation": {"number": 1, "value": 94}, "group": "control_change"}, {"time": 88960, "annotation": {"number": 10, "value": 15}, "group": "control_change"}, {"time": 88963, "annotation": {"number": 1, "value": 93}, "group": "control_change"}, {"time": 88976, "annotation": {"number": 10, "value": 26}, "group": "control_change"}, {"time": 88985, "annotation": {"number": 1, "value": 92}, "group": "control_change"}, {"time": 89008, "annotation": {"number": 10, "value": 38}, "group": "control_change"}, {"time": 89014, "annotation": {"number": 1, "value": 91}, "group": "control_change"}, {"time": 89020, "annotation": {"number": 10, "value": 47}, "group": "control_change"}, {"time": 89022, "annotation": {"number": 1, "value": 90}, "group": "control_change"}, {"time": 89036, "annotation": {"number": 10, "value": 55}, "group": "control_change"}, {"time": 89044, "annotation": {"number": 1, "value": 89}, "group": "control_change"}, {"time": 89052, "annotation": {"number": 10, "value": 64}, "group": "control_change"}, {"time": 89052, "annotation": {"number": 1, "value": 88}, "group": "control_change"}, {"time": 89064, "annotation": {"number": 10, "value": 72}, "group": "control_change"}, {"time": 89075, "annotation": {"number": 1, "value": 87}, "group": "control_change"}, {"time": 89080, "annotation": {"number": 10, "value": 81}, "group": "control_change"}, {"time": 89102, "annotation": {"number": 10, "value": 88}, "group": "control_change"}, {"time": 89124, "annotation": {"number": 10, "value": 101}, "group": "control_change"}, {"time": 89140, "annotation": {"number": 10, "value": 108}, "group": "control_change"}, {"time": 89184, "annotation": {"number": 10, "value": 116}, "group": "control_change"}, {"time": 89229, "annotation": {"number": 10, "value": 125}, "group": "control_change"}, {"time": 89569, "annotation": {"number": 10, "value": 126}, "group": "control_change"}, {"time": 89600, "annotation": {"number": 1, "value": 88}, "group": "control_change"}, {"time": 89601, "annotation": {"number": 10, "value": 116}, "group": "control_change"}, {"time": 89629, "annotation": {"number": 10, "value": 101}, "group": "control_change"}, {"time": 89648, "annotation": {"number": 10, "value": 93}, "group": "control_change"}, {"time": 89660, "annotation": {"number": 10, "value": 86}, "group": "control_change"}, {"time": 89676, "annotation": {"number": 10, "value": 79}, "group": "control_change"}, {"time": 89681, "annotation": {"number": 1, "value": 90}, "group": "control_change"}, {"time": 89705, "annotation": {"number": 10, "value": 69}, "group": "control_change"}, {"time": 89733, "annotation": {"number": 10, "value": 61}, "group": "control_change"}, {"time": 89756, "annotation": {"number": 1, "value": 91}, "group": "control_change"}, {"time": 89778, "annotation": {"number": 10, "value": 54}, "group": "control_change"}, {"time": 89787, "annotation": {"number": 1, "value": 92}, "group": "control_change"}, {"time": 89809, "annotation": {"number": 1, "value": 93}, "group": "control_change"}, {"time": 89816, "annotation": {"number": 1, "value": 94}, "group": "control_change"}, {"time": 89832, "annotation": {"number": 1, "value": 95}, "group": "control_change"}, {"time": 89853, "annotation": {"number": 10, "value": 50}, "group": "control_change"}, {"time": 89853, "annotation": {"number": 1, "value": 96}, "group": "control_change"}, {"time": 89862, "annotation": {"number": 1, "value": 97}, "group": "control_change"}, {"time": 89877, "annotation": {"number": 1, "value": 98}, "group": "control_change"}, {"time": 89899, "annotation": {"number": 1, "value": 99}, "group": "control_change"}, {"time": 89907, "annotation": {"number": 1, "value": 100}, "group": "control_change"}, {"time": 89914, "annotation": {"number": 10, "value": 40}, "group": "control_change"}, {"time": 89929, "annotation": {"number": 1, "value": 101}, "group": "control_change"}, {"time": 89942, "annotation": {"number": 10, "value": 31}, "group": "control_change"}, {"time": 89959, "annotation": {"number": 1, "value": 103}, "group": "control_change"}, {"time": 89970, "annotation": {"number": 10, "value": 21}, "group": "control_change"}, {"time": 89981, "annotation": {"number": 1, "value": 104}, "group": "control_change"}, {"time": 90002, "annotation": {"number": 10, "value": 11}, "group": "control_change"}, {"time": 90004, "annotation": {"number": 1, "value": 105}, "group": "control_change"}, {"time": 90030, "annotation": {"number": 10, "value": 1}, "group": "control_change"}, {"time": 90034, "annotation": {"number": 1, "value": 106}, "group": "control_change"}, {"time": 90063, "annotation": {"number": 1, "value": 107}, "group": "control_change"}, {"time": 90086, "annotation": {"number": 1, "value": 108}, "group": "control_change"}, {"time": 90115, "annotation": {"number": 1, "value": 109}, "group": "control_change"}, {"time": 90123, "annotation": {"number": 1, "value": 110}, "group": "control_change"}, {"time": 90144, "annotation": {"number": 1, "value": 111}, "group": "control_change"}, {"time": 90175, "annotation": {"number": 1, "value": 112}, "group": "control_change"}, {"time": 90183, "annotation": {"number": 1, "value": 113}, "group": "control_change"}, {"time": 90198, "annotation": {"number": 1, "value": 114}, "group": "control_change"}, {"time": 90211, "annotation": {"number": 10, "value": 1}, "group": "control_change"}, {"time": 90227, "annotation": {"number": 1, "value": 115}, "group": "control_change"}, {"time": 90235, "annotation": {"number": 1, "value": 116}, "group": "control_change"}, {"time": 90245, "annotation": {"number": 10, "value": 12}, "group": "control_change"}, {"time": 90250, "annotation": {"number": 1, "value": 117}, "group": "control_change"}, {"time": 90255, "annotation": {"number": 10, "value": 21}, "group": "control_change"}, {"time": 90270, "annotation": {"number": 10, "value": 29}, "group": "control_change"}, {"time": 90275, "annotation": {"number": 1, "value": 118}, "group": "control_change"}, {"time": 90282, "annotation": {"number": 1, "value": 119}, "group": "control_change"}, {"time": 90283, "annotation": {"number": 10, "value": 37}, "group": "control_change"}, {"time": 90297, "annotation": {"number": 1, "value": 120}, "group": "control_change"}, {"time": 90299, "annotation": {"number": 10, "value": 46}, "group": "control_change"}, {"time": 90315, "annotation": {"number": 10, "value": 54}, "group": "control_change"}, {"time": 90327, "annotation": {"number": 1, "value": 121}, "group": "control_change"}, {"time": 90327, "annotation": {"number": 10, "value": 63}, "group": "control_change"}, {"time": 90356, "annotation": {"number": 1, "value": 122}, "group": "control_change"}, {"time": 90359, "annotation": {"number": 10, "value": 75}, "group": "control_change"}, {"time": 90371, "annotation": {"number": 10, "value": 82}, "group": "control_change"}, {"time": 90403, "annotation": {"number": 10, "value": 90}, "group": "control_change"}, {"time": 90452, "annotation": {"number": 1, "value": 123}, "group": "control_change"}, {"time": 90463, "annotation": {"number": 10, "value": 97}, "group": "control_change"}, {"time": 90552, "annotation": {"number": 10, "value": 105}, "group": "control_change"}, {"time": 90596, "annotation": {"number": 10, "value": 112}, "group": "control_change"}, {"time": 90641, "annotation": {"number": 10, "value": 120}, "group": "control_change"}, {"time": 90685, "annotation": {"number": 10, "value": 127}, "group": "control_change"}, {"time": 90689, "annotation": {"number": 1, "value": 122}, "group": "control_change"}, {"time": 90717, "annotation": {"number": 1, "value": 121}, "group": "control_change"}, {"time": 90749, "annotation": {"number": 1, "value": 119}, "group": "control_change"}, {"time": 90764, "annotation": {"number": 1, "value": 118}, "group": "control_change"}, {"time": 90772, "annotation": {"number": 1, "value": 117}, "group": "control_change"}, {"time": 90780, "annotation": {"number": 1, "value": 116}, "group": "control_change"}, {"time": 90787, "annotation": {"number": 1, "value": 115}, "group": "control_change"}, {"time": 90795, "annotation": {"number": 1, "value": 114}, "group": "control_change"}, {"time": 90803, "annotation": {"number": 1, "value": 113}, "group": "control_change"}, {"time": 90809, "annotation": {"number": 1, "value": 112}, "group": "control_change"}, {"time": 90817, "annotation": {"number": 1, "value": 111}, "group": "control_change"}, {"time": 90825, "annotation": {"number": 1, "value": 110}, "group": "control_change"}, {"time": 90832, "annotation": {"number": 1, "value": 108}, "group": "control_change"}, {"time": 90835, "annotation": {"number": 10, "value": 126}, "group": "control_change"}, {"time": 90840, "annotation": {"number": 1, "value": 107}, "group": "control_change"}, {"time": 90847, "annotation": {"number": 1, "value": 106}, "group": "control_change"}, {"time": 90855, "annotation": {"number": 1, "value": 105}, "group": "control_change"}, {"time": 90863, "annotation": {"number": 1, "value": 104}, "group": "control_change"}, {"time": 90864, "annotation": {"number": 10, "value": 116}, "group": "control_change"}, {"time": 90871, "annotation": {"number": 1, "value": 103}, "group": "control_change"}, {"time": 90878, "annotation": {"number": 1, "value": 102}, "group": "control_change"}, {"time": 90879, "annotation": {"number": 10, "value": 109}, "group": "control_change"}, {"time": 90886, "annotation": {"number": 1, "value": 101}, "group": "control_change"}, {"time": 90892, "annotation": {"number": 10, "value": 102}, "group": "control_change"}, {"time": 90893, "annotation": {"number": 1, "value": 100}, "group": "control_change"}, {"time": 90901, "annotation": {"number": 1, "value": 99}, "group": "control_change"}, {"time": 90916, "annotation": {"number": 1, "value": 98}, "group": "control_change"}, {"time": 90923, "annotation": {"number": 1, "value": 97}, "group": "control_change"}, {"time": 90923, "annotation": {"number": 10, "value": 89}, "group": "control_change"}, {"time": 90936, "annotation": {"number": 10, "value": 81}, "group": "control_change"}, {"time": 90939, "annotation": {"number": 1, "value": 96}, "group": "control_change"}, {"time": 90952, "annotation": {"number": 10, "value": 74}, "group": "control_change"}, {"time": 90961, "annotation": {"number": 1, "value": 95}, "group": "control_change"}, {"time": 90968, "annotation": {"number": 10, "value": 67}, "group": "control_change"}, {"time": 90984, "annotation": {"number": 10, "value": 58}, "group": "control_change"}, {"time": 90991, "annotation": {"number": 1, "value": 94}, "group": "control_change"}, {"time": 90996, "annotation": {"number": 10, "value": 50}, "group": "control_change"}, {"time": 91012, "annotation": {"number": 10, "value": 41}, "group": "control_change"}, {"time": 91028, "annotation": {"number": 1, "value": 93}, "group": "control_change"}, {"time": 91028, "annotation": {"number": 10, "value": 34}, "group": "control_change"}, {"time": 91065, "annotation": {"number": 1, "value": 92}, "group": "control_change"}, {"time": 91072, "annotation": {"number": 10, "value": 27}, "group": "control_change"}, {"time": 91095, "annotation": {"number": 1, "value": 91}, "group": "control_change"}, {"time": 91103, "annotation": {"number": 1, "value": 90}, "group": "control_change"}, {"time": 91125, "annotation": {"number": 1, "value": 89}, "group": "control_change"}, {"time": 91145, "annotation": {"number": 10, "value": 23}, "group": "control_change"}, {"time": 91155, "annotation": {"number": 1, "value": 88}, "group": "control_change"}, {"time": 91176, "annotation": {"number": 10, "value": 16}, "group": "control_change"}, {"time": 91184, "annotation": {"number": 1, "value": 87}, "group": "control_change"}, {"time": 91205, "annotation": {"number": 10, "value": 8}, "group": "control_change"}, {"time": 91222, "annotation": {"number": 1, "value": 86}, "group": "control_change"}, {"time": 91236, "annotation": {"number": 10, "value": 0}, "group": "control_change"}, {"time": 91261, "annotation": {"number": 1, "value": 85}, "group": "control_change"}, {"time": 91290, "annotation": {"number": 1, "value": 84}, "group": "control_change"}, {"time": 91327, "annotation": {"number": 1, "value": 83}, "group": "control_change"}, {"time": 91371, "annotation": {"number": 1, "value": 82}, "group": "control_change"}, {"time": 91409, "annotation": {"number": 1, "value": 81}, "group": "control_change"}, {"time": 91429, "annotation": {"number": 10, "value": 1}, "group": "control_change"}, {"time": 91439, "annotation": {"number": 1, "value": 80}, "group": "control_change"}, {"time": 91474, "annotation": {"number": 10, "value": 15}, "group": "control_change"}, {"time": 91483, "annotation": {"number": 1, "value": 79}, "group": "control_change"}, {"time": 91489, "annotation": {"number": 10, "value": 27}, "group": "control_change"}, {"time": 91502, "annotation": {"number": 10, "value": 38}, "group": "control_change"}, {"time": 91506, "annotation": {"number": 1, "value": 77}, "group": "control_change"}, {"time": 91518, "annotation": {"number": 10, "value": 49}, "group": "control_change"}, {"time": 91533, "annotation": {"number": 10, "value": 61}, "group": "control_change"}, {"time": 91536, "annotation": {"number": 1, "value": 76}, "group": "control_change"}, {"time": 91544, "annotation": {"number": 1, "value": 75}, "group": "control_change"}, {"time": 91546, "annotation": {"number": 10, "value": 73}, "group": "control_change"}, {"time": 91559, "annotation": {"number": 1, "value": 74}, "group": "control_change"}, {"time": 91562, "annotation": {"number": 10, "value": 84}, "group": "control_change"}, {"time": 91578, "annotation": {"number": 10, "value": 94}, "group": "control_change"}, {"time": 91581, "annotation": {"number": 1, "value": 73}, "group": "control_change"}, {"time": 91590, "annotation": {"number": 10, "value": 101}, "group": "control_change"}, {"time": 91606, "annotation": {"number": 10, "value": 108}, "group": "control_change"}, {"time": 91617, "annotation": {"number": 1, "value": 72}, "group": "control_change"}, {"time": 91625, "annotation": {"number": 1, "value": 71}, "group": "control_change"}, {"time": 91638, "annotation": {"number": 10, "value": 117}, "group": "control_change"}, {"time": 91662, "annotation": {"number": 1, "value": 70}, "group": "control_change"}, {"time": 91666, "annotation": {"number": 10, "value": 121}, "group": "control_change"}, {"time": 91715, "annotation": {"number": 1, "value": 69}, "group": "control_change"}, {"time": 91739, "annotation": {"number": 10, "value": 127}, "group": "control_change"}, {"time": 91804, "annotation": {"number": 1, "value": 68}, "group": "control_change"}, {"time": 91989, "annotation": {"number": 1, "value": 67}, "group": "control_change"}, {"time": 92107, "annotation": {"number": 1, "value": 68}, "group": "control_change"}, {"time": 92130, "annotation": {"number": 1, "value": 70}, "group": "control_change"}, {"time": 92143, "annotation": {"number": 10, "value": 126}, "group": "control_change"}, {"time": 92145, "annotation": {"number": 1, "value": 71}, "group": "control_change"}, {"time": 92153, "annotation": {"number": 1, "value": 72}, "group": "control_change"}, {"time": 92161, "annotation": {"number": 1, "value": 73}, "group": "control_change"}, {"time": 92169, "annotation": {"number": 1, "value": 75}, "group": "control_change"}, {"time": 92172, "annotation": {"number": 10, "value": 116}, "group": "control_change"}, {"time": 92177, "annotation": {"number": 1, "value": 76}, "group": "control_change"}, {"time": 92185, "annotation": {"number": 1, "value": 77}, "group": "control_change"}, {"time": 92187, "annotation": {"number": 10, "value": 107}, "group": "control_change"}, {"time": 92192, "annotation": {"number": 1, "value": 79}, "group": "control_change"}, {"time": 92200, "annotation": {"number": 1, "value": 80}, "group": "control_change"}, {"time": 92200, "annotation": {"number": 10, "value": 97}, "group": "control_change"}, {"time": 92208, "annotation": {"number": 1, "value": 81}, "group": "control_change"}, {"time": 92215, "annotation": {"number": 1, "value": 83}, "group": "control_change"}, {"time": 92216, "annotation": {"number": 10, "value": 88}, "group": "control_change"}, {"time": 92222, "annotation": {"number": 1, "value": 84}, "group": "control_change"}, {"time": 92230, "annotation": {"number": 1, "value": 86}, "group": "control_change"}, {"time": 92232, "annotation": {"number": 10, "value": 79}, "group": "control_change"}, {"time": 92238, "annotation": {"number": 1, "value": 87}, "group": "control_change"}, {"time": 92245, "annotation": {"number": 1, "value": 88}, "group": "control_change"}, {"time": 92253, "annotation": {"number": 1, "value": 90}, "group": "control_change"}, {"time": 92260, "annotation": {"number": 10, "value": 69}, "group": "control_change"}, {"time": 92261, "annotation": {"number": 1, "value": 92}, "group": "control_change"}, {"time": 92268, "annotation": {"number": 1, "value": 93}, "group": "control_change"}, {"time": 92276, "annotation": {"number": 1, "value": 94}, "group": "control_change"}, {"time": 92284, "annotation": {"number": 1, "value": 95}, "group": "control_change"}, {"time": 92291, "annotation": {"number": 1, "value": 96}, "group": "control_change"}, {"time": 92292, "annotation": {"number": 10, "value": 62}, "group": "control_change"}, {"time": 92299, "annotation": {"number": 1, "value": 98}, "group": "control_change"}, {"time": 92306, "annotation": {"number": 1, "value": 99}, "group": "control_change"}, {"time": 92314, "annotation": {"number": 1, "value": 100}, "group": "control_change"}, {"time": 92322, "annotation": {"number": 1, "value": 101}, "group": "control_change"}, {"time": 92329, "annotation": {"number": 1, "value": 102}, "group": "control_change"}, {"time": 92338, "annotation": {"number": 1, "value": 103}, "group": "control_change"}, {"time": 92346, "annotation": {"number": 1, "value": 104}, "group": "control_change"}, {"time": 92348, "annotation": {"number": 10, "value": 55}, "group": "control_change"}, {"time": 92352, "annotation": {"number": 1, "value": 105}, "group": "control_change"}, {"time": 92360, "annotation": {"number": 1, "value": 106}, "group": "control_change"}, {"time": 92368, "annotation": {"number": 1, "value": 107}, "group": "control_change"}, {"time": 92390, "annotation": {"number": 1, "value": 108}, "group": "control_change"}, {"time": 92397, "annotation": {"number": 1, "value": 109}, "group": "control_change"}, {"time": 92405, "annotation": {"number": 1, "value": 110}, "group": "control_change"}, {"time": 92420, "annotation": {"number": 1, "value": 111}, "group": "control_change"}, {"time": 92424, "annotation": {"number": 10, "value": 49}, "group": "control_change"}, {"time": 92443, "annotation": {"number": 1, "value": 112}, "group": "control_change"}, {"time": 92452, "annotation": {"number": 1, "value": 113}, "group": "control_change"}, {"time": 92459, "annotation": {"number": 1, "value": 114}, "group": "control_change"}, {"time": 92468, "annotation": {"number": 10, "value": 42}, "group": "control_change"}, {"time": 92474, "annotation": {"number": 1, "value": 115}, "group": "control_change"}, {"time": 92497, "annotation": {"number": 1, "value": 116}, "group": "control_change"}, {"time": 92500, "annotation": {"number": 10, "value": 35}, "group": "control_change"}, {"time": 92505, "annotation": {"number": 1, "value": 117}, "group": "control_change"}, {"time": 92512, "annotation": {"number": 10, "value": 30}, "group": "control_change"}, {"time": 92527, "annotation": {"number": 1, "value": 118}, "group": "control_change"}, {"time": 92528, "annotation": {"number": 10, "value": 25}, "group": "control_change"}, {"time": 92549, "annotation": {"number": 1, "value": 119}, "group": "control_change"}, {"time": 92556, "annotation": {"number": 1, "value": 120}, "group": "control_change"}, {"time": 92557, "annotation": {"number": 10, "value": 18}, "group": "control_change"}, {"time": 92571, "annotation": {"number": 1, "value": 121}, "group": "control_change"}, {"time": 92593, "annotation": {"number": 1, "value": 122}, "group": "control_change"}, {"time": 92616, "annotation": {"number": 10, "value": 11}, "group": "control_change"}, {"time": 92623, "annotation": {"number": 1, "value": 123}, "group": "control_change"}, {"time": 92631, "annotation": {"number": 1, "value": 124}, "group": "control_change"}, {"time": 92646, "annotation": {"number": 1, "value": 125}, "group": "control_change"}, {"time": 92676, "annotation": {"number": 1, "value": 126}, "group": "control_change"}, {"time": 92683, "annotation": {"number": 1, "value": 127}, "group": "control_change"}, {"time": 92809, "annotation": {"number": 10, "value": 14}, "group": "control_change"}, {"time": 92825, "annotation": {"number": 10, "value": 23}, "group": "control_change"}, {"time": 92841, "annotation": {"number": 10, "value": 32}, "group": "control_change"}, {"time": 92853, "annotation": {"number": 10, "value": 42}, "group": "control_change"}, {"time": 92869, "annotation": {"number": 10, "value": 54}, "group": "control_change"}, {"time": 92885, "annotation": {"number": 10, "value": 66}, "group": "control_change"}, {"time": 92901, "annotation": {"number": 10, "value": 79}, "group": "control_change"}, {"time": 92914, "annotation": {"number": 10, "value": 91}, "group": "control_change"}, {"time": 92929, "annotation": {"number": 10, "value": 103}, "group": "control_change"}, {"time": 92945, "annotation": {"number": 10, "value": 112}, "group": "control_change"}, {"time": 92951, "annotation": {"number": 1, "value": 126}, "group": "control_change"}, {"time": 92959, "annotation": {"number": 1, "value": 125}, "group": "control_change"}, {"time": 92961, "annotation": {"number": 10, "value": 120}, "group": "control_change"}, {"time": 92966, "annotation": {"number": 1, "value": 124}, "group": "control_change"}, {"time": 92974, "annotation": {"number": 1, "value": 123}, "group": "control_change"}, {"time": 92989, "annotation": {"number": 10, "value": 127}, "group": "control_change"}, {"time": 92996, "annotation": {"number": 1, "value": 122}, "group": "control_change"}, {"time": 93004, "annotation": {"number": 1, "value": 121}, "group": "control_change"}, {"time": 93019, "annotation": {"number": 1, "value": 120}, "group": "control_change"}, {"time": 93049, "annotation": {"number": 1, "value": 119}, "group": "control_change"}, {"time": 93086, "annotation": {"number": 1, "value": 118}, "group": "control_change"}, {"time": 93196, "annotation": {"number": 1, "value": 117}, "group": "control_change"}, {"time": 93225, "annotation": {"number": 1, "value": 116}, "group": "control_change"}, {"time": 93248, "annotation": {"number": 1, "value": 115}, "group": "control_change"}, {"time": 93257, "annotation": {"number": 1, "value": 114}, "group": "control_change"}, {"time": 93279, "annotation": {"number": 1, "value": 113}, "group": "control_change"}, {"time": 93287, "annotation": {"number": 1, "value": 112}, "group": "control_change"}, {"time": 93294, "annotation": {"number": 1, "value": 111}, "group": "control_change"}, {"time": 93302, "annotation": {"number": 1, "value": 110}, "group": "control_change"}, {"time": 93317, "annotation": {"number": 1, "value": 109}, "group": "control_change"}, {"time": 93325, "annotation": {"number": 1, "value": 108}, "group": "control_change"}, {"time": 93331, "annotation": {"number": 10, "value": 123}, "group": "control_change"}, {"time": 93332, "annotation": {"number": 1, "value": 107}, "group": "control_change"}, {"time": 93340, "annotation": {"number": 1, "value": 106}, "group": "control_change"}, {"time": 93347, "annotation": {"number": 1, "value": 105}, "group": "control_change"}, {"time": 93355, "annotation": {"number": 1, "value": 104}, "group": "control_change"}, {"time": 93362, "annotation": {"number": 10, "value": 112}, "group": "control_change"}, {"time": 93363, "annotation": {"number": 1, "value": 103}, "group": "control_change"}, {"time": 93371, "annotation": {"number": 1, "value": 102}, "group": "control_change"}, {"time": 93375, "annotation": {"number": 10, "value": 103}, "group": "control_change"}, {"time": 93377, "annotation": {"number": 1, "value": 101}, "group": "control_change"}, {"time": 93386, "annotation": {"number": 1, "value": 100}, "group": "control_change"}, {"time": 93394, "annotation": {"number": 10, "value": 95}, "group": "control_change"}, {"time": 93396, "annotation": {"number": 1, "value": 98}, "group": "control_change"}, {"time": 93403, "annotation": {"number": 1, "value": 97}, "group": "control_change"}, {"time": 93410, "annotation": {"number": 1, "value": 96}, "group": "control_change"}, {"time": 93419, "annotation": {"number": 10, "value": 83}, "group": "control_change"}, {"time": 93425, "annotation": {"number": 1, "value": 95}, "group": "control_change"}, {"time": 93433, "annotation": {"number": 1, "value": 94}, "group": "control_change"}, {"time": 93435, "annotation": {"number": 10, "value": 76}, "group": "control_change"}, {"time": 93440, "annotation": {"number": 1, "value": 93}, "group": "control_change"}, {"time": 93448, "annotation": {"number": 1, "value": 92}, "group": "control_change"}, {"time": 93462, "annotation": {"number": 1, "value": 91}, "group": "control_change"}, {"time": 93463, "annotation": {"number": 10, "value": 64}, "group": "control_change"}, {"time": 93469, "annotation": {"number": 1, "value": 90}, "group": "control_change"}, {"time": 93478, "annotation": {"number": 1, "value": 89}, "group": "control_change"}, {"time": 93495, "annotation": {"number": 1, "value": 87}, "group": "control_change"}, {"time": 93495, "annotation": {"number": 10, "value": 52}, "group": "control_change"}, {"time": 93515, "annotation": {"number": 1, "value": 86}, "group": "control_change"}, {"time": 93523, "annotation": {"number": 10, "value": 43}, "group": "control_change"}, {"time": 93524, "annotation": {"number": 1, "value": 85}, "group": "control_change"}, {"time": 93531, "annotation": {"number": 1, "value": 84}, "group": "control_change"}, {"time": 93539, "annotation": {"number": 1, "value": 83}, "group": "control_change"}, {"time": 93554, "annotation": {"number": 1, "value": 82}, "group": "control_change"}, {"time": 93561, "annotation": {"number": 1, "value": 81}, "group": "control_change"}, {"time": 93567, "annotation": {"number": 10, "value": 34}, "group": "control_change"}, {"time": 93569, "annotation": {"number": 1, "value": 80}, "group": "control_change"}, {"time": 93592, "annotation": {"number": 1, "value": 79}, "group": "control_change"}, {"time": 93599, "annotation": {"number": 1, "value": 78}, "group": "control_change"}, {"time": 93616, "annotation": {"number": 1, "value": 77}, "group": "control_change"}, {"time": 93623, "annotation": {"number": 1, "value": 76}, "group": "control_change"}, {"time": 93644, "annotation": {"number": 10, "value": 24}, "group": "control_change"}, {"time": 93668, "annotation": {"number": 1, "value": 75}, "group": "control_change"}, {"time": 93703, "annotation": {"number": 10, "value": 17}, "group": "control_change"}, {"time": 93748, "annotation": {"number": 10, "value": 10}, "group": "control_change"}, {"time": 93776, "annotation": {"number": 10, "value": 2}, "group": "control_change"}, {"time": 93873, "annotation": {"number": 1, "value": 74}, "group": "control_change"}, {"time": 93912, "annotation": {"number": 1, "value": 73}, "group": "control_change"}, {"time": 93948, "annotation": {"number": 1, "value": 72}, "group": "control_change"}, {"time": 93956, "annotation": {"number": 1, "value": 71}, "group": "control_change"}, {"time": 93979, "annotation": {"number": 1, "value": 70}, "group": "control_change"}, {"time": 94001, "annotation": {"number": 1, "value": 69}, "group": "control_change"}, {"time": 94031, "annotation": {"number": 1, "value": 68}, "group": "control_change"}, {"time": 94076, "annotation": {"number": 10, "value": 2}, "group": "control_change"}, {"time": 94104, "annotation": {"number": 10, "value": 16}, "group": "control_change"}, {"time": 94120, "annotation": {"number": 10, "value": 24}, "group": "control_change"}, {"time": 94132, "annotation": {"number": 10, "value": 32}, "group": "control_change"}, {"time": 94148, "annotation": {"number": 10, "value": 42}, "group": "control_change"}, {"time": 94164, "annotation": {"number": 10, "value": 50}, "group": "control_change"}, {"time": 94176, "annotation": {"number": 10, "value": 58}, "group": "control_change"}, {"time": 94192, "annotation": {"number": 10, "value": 67}, "group": "control_change"}, {"time": 94208, "annotation": {"number": 10, "value": 75}, "group": "control_change"}, {"time": 94224, "annotation": {"number": 10, "value": 82}, "group": "control_change"}, {"time": 94224, "annotation": {"number": 1, "value": 69}, "group": "control_change"}, {"time": 94236, "annotation": {"number": 10, "value": 87}, "group": "control_change"}, {"time": 94252, "annotation": {"number": 10, "value": 89}, "group": "control_change"}, {"time": 94268, "annotation": {"number": 1, "value": 0}, "group": "control_change"}, {"time": 153158, "annotation": {"number": 11, "value": 110}, "group": "control_change"}, {"time": 153178, "annotation": {"number": 91, "value": 0}, "group": "control_change"}, {"time": 153188, "annotation": {"number": 93, "value": 0}, "group": "control_change"}, {"time": 153198, "annotation": {"number": 94, "value": 80}, "group": "control_change"}, {"time": 154077, "annotation": {"number": 1, "value": 127}, "group": "control_change"}, {"time": 155996, "annotation": {"number": 10, "value": 67}, "group": "control_change"}, {"time": 156030, "annotation": {"number": 10, "value": 73}, "group": "control_change"}, {"time": 156049, "annotation": {"number": 10, "value": 65}, "group": "control_change"}, {"time": 156058, "annotation": {"number": 10, "value": 57}, "group": "control_change"}, {"time": 156087, "annotation": {"number": 10, "value": 44}, "group": "control_change"}, {"time": 156119, "annotation": {"number": 10, "value": 34}, "group": "control_change"}, {"time": 156235, "annotation": {"number": 10, "value": 33}, "group": "control_change"}, {"time": 156251, "annotation": {"number": 10, "value": 43}, "group": "control_change"}, {"time": 156267, "annotation": {"number": 10, "value": 55}, "group": "control_change"}, {"time": 156279, "annotation": {"number": 10, "value": 72}, "group": "control_change"}, {"time": 156295, "annotation": {"number": 10, "value": 88}, "group": "control_change"}, {"time": 156311, "annotation": {"number": 10, "value": 106}, "group": "control_change"}, {"time": 156327, "annotation": {"number": 10, "value": 122}, "group": "control_change"}, {"time": 156340, "annotation": {"number": 10, "value": 127}, "group": "control_change"}, {"time": 156474, "annotation": {"number": 10, "value": 125}, "group": "control_change"}, {"time": 156490, "annotation": {"number": 10, "value": 118}, "group": "control_change"}, {"time": 156503, "annotation": {"number": 10, "value": 106}, "group": "control_change"}, {"time": 156522, "annotation": {"number": 10, "value": 90}, "group": "control_change"}, {"time": 156534, "annotation": {"number": 10, "value": 64}, "group": "control_change"}, {"time": 156547, "annotation": {"number": 10, "value": 36}, "group": "control_change"}, {"time": 156563, "annotation": {"number": 10, "value": 17}, "group": "control_change"}, {"time": 156579, "annotation": {"number": 10, "value": 7}, "group": "control_change"}, {"time": 156651, "annotation": {"number": 10, "value": 0}, "group": "control_change"}, {"time": 156683, "annotation": {"number": 10, "value": 10}, "group": "control_change"}, {"time": 156695, "annotation": {"number": 10, "value": 20}, "group": "control_change"}, {"time": 156711, "annotation": {"number": 10, "value": 28}, "group": "control_change"}, {"time": 156727, "annotation": {"number": 10, "value": 37}, "group": "control_change"}, {"time": 156743, "annotation": {"number": 10, "value": 45}, "group": "control_change"}, {"time": 156756, "annotation": {"number": 10, "value": 53}, "group": "control_change"}, {"time": 156772, "annotation": {"number": 10, "value": 60}, "group": "control_change"}, {"time": 156800, "annotation": {"number": 10, "value": 68}, "group": "control_change"}, {"time": 156835, "annotation": {"number": 10, "value": 76}, "group": "control_change"}, {"time": 156936, "annotation": {"number": 10, "value": 78}, "group": "control_change"}, {"time": 156949, "annotation": {"number": 10, "value": 70}, "group": "control_change"}, {"time": 156964, "annotation": {"number": 10, "value": 62}, "group": "control_change"}, {"time": 156980, "annotation": {"number": 10, "value": 50}, "group": "control_change"}, {"time": 156996, "annotation": {"number": 10, "value": 35}, "group": "control_change"}, {"time": 157008, "annotation": {"number": 10, "value": 18}, "group": "control_change"}, {"time": 157024, "annotation": {"number": 10, "value": 2}, "group": "control_change"}, {"time": 157144, "annotation": {"number": 10, "value": 3}, "group": "control_change"}, {"time": 157157, "annotation": {"number": 10, "value": 13}, "group": "control_change"}, {"time": 157173, "annotation": {"number": 10, "value": 23}, "group": "control_change"}, {"time": 157189, "annotation": {"number": 10, "value": 35}, "group": "control_change"}, {"time": 157201, "annotation": {"number": 10, "value": 46}, "group": "control_change"}, {"time": 157217, "annotation": {"number": 10, "value": 59}, "group": "control_change"}, {"time": 157233, "annotation": {"number": 10, "value": 69}, "group": "control_change"}, {"time": 157248, "annotation": {"number": 10, "value": 77}, "group": "control_change"}, {"time": 157261, "annotation": {"number": 10, "value": 85}, "group": "control_change"}, {"time": 157293, "annotation": {"number": 10, "value": 95}, "group": "control_change"}, {"time": 157366, "annotation": {"number": 10, "value": 94}, "group": "control_change"}, {"time": 157381, "annotation": {"number": 10, "value": 85}, "group": "control_change"}, {"time": 157394, "annotation": {"number": 10, "value": 75}, "group": "control_change"}, {"time": 157410, "annotation": {"number": 10, "value": 61}, "group": "control_change"}, {"time": 157438, "annotation": {"number": 10, "value": 41}, "group": "control_change"}, {"time": 157445, "annotation": {"number": 10, "value": 15}, "group": "control_change"}, {"time": 157454, "annotation": {"number": 10, "value": 0}, "group": "control_change"}, {"time": 157593, "annotation": {"number": 10, "value": 6}, "group": "control_change"}, {"time": 157603, "annotation": {"number": 10, "value": 16}, "group": "control_change"}, {"time": 157618, "annotation": {"number": 10, "value": 29}, "group": "control_change"}, {"time": 157634, "annotation": {"number": 10, "value": 42}, "group": "control_change"}, {"time": 157647, "annotation": {"number": 10, "value": 54}, "group": "control_change"}, {"time": 157662, "annotation": {"number": 10, "value": 67}, "group": "control_change"}, {"time": 157678, "annotation": {"number": 10, "value": 78}, "group": "control_change"}, {"time": 157694, "annotation": {"number": 10, "value": 88}, "group": "control_change"}, {"time": 157707, "annotation": {"number": 10, "value": 96}, "group": "control_change"}, {"time": 157723, "annotation": {"number": 10, "value": 103}, "group": "control_change"}, {"time": 157811, "annotation": {"number": 10, "value": 106}, "group": "control_change"}, {"time": 157843, "annotation": {"number": 10, "value": 94}, "group": "control_change"}, {"time": 157871, "annotation": {"number": 10, "value": 78}, "group": "control_change"}, {"time": 157887, "annotation": {"number": 10, "value": 66}, "group": "control_change"}, {"time": 157903, "annotation": {"number": 10, "value": 52}, "group": "control_change"}, {"time": 157915, "annotation": {"number": 10, "value": 40}, "group": "control_change"}, {"time": 157931, "annotation": {"number": 10, "value": 29}, "group": "control_change"}, {"time": 157947, "annotation": {"number": 10, "value": 21}, "group": "control_change"}, {"time": 158019, "annotation": {"number": 10, "value": 17}, "group": "control_change"}, {"time": 158050, "annotation": {"number": 10, "value": 34}, "group": "control_change"}, {"time": 158063, "annotation": {"number": 10, "value": 46}, "group": "control_change"}, {"time": 158079, "annotation": {"number": 10, "value": 60}, "group": "control_change"}, {"time": 158098, "annotation": {"number": 10, "value": 71}, "group": "control_change"}, {"time": 158110, "annotation": {"number": 10, "value": 85}, "group": "control_change"}, {"time": 158123, "annotation": {"number": 10, "value": 95}, "group": "control_change"}, {"time": 158139, "annotation": {"number": 10, "value": 105}, "group": "control_change"}, {"time": 158155, "annotation": {"number": 10, "value": 114}, "group": "control_change"}, {"time": 158167, "annotation": {"number": 10, "value": 121}, "group": "control_change"}, {"time": 158303, "annotation": {"number": 10, "value": 126}, "group": "control_change"}, {"time": 158332, "annotation": {"number": 10, "value": 116}, "group": "control_change"}, {"time": 158347, "annotation": {"number": 10, "value": 107}, "group": "control_change"}, {"time": 158360, "annotation": {"number": 10, "value": 93}, "group": "control_change"}, {"time": 158376, "annotation": {"number": 10, "value": 75}, "group": "control_change"}, {"time": 158391, "annotation": {"number": 10, "value": 53}, "group": "control_change"}, {"time": 158410, "annotation": {"number": 10, "value": 30}, "group": "control_change"}, {"time": 158420, "annotation": {"number": 10, "value": 19}, "group": "control_change"}, {"time": 158436, "annotation": {"number": 10, "value": 12}, "group": "control_change"}, {"time": 158452, "annotation": {"number": 10, "value": 5}, "group": "control_change"}, {"time": 158629, "annotation": {"number": 10, "value": 1}, "group": "control_change"}, {"time": 158704, "annotation": {"number": 10, "value": 0}, "group": "control_change"}, {"time": 158868, "annotation": {"number": 10, "value": 8}, "group": "control_change"}, {"time": 158881, "annotation": {"number": 10, "value": 22}, "group": "control_change"}, {"time": 158897, "annotation": {"number": 10, "value": 39}, "group": "control_change"}, {"time": 158914, "annotation": {"number": 10, "value": 61}, "group": "control_change"}, {"time": 158926, "annotation": {"number": 10, "value": 80}, "group": "control_change"}, {"time": 158942, "annotation": {"number": 10, "value": 103}, "group": "control_change"}, {"time": 158963, "annotation": {"number": 10, "value": 127}, "group": "control_change"}, {"time": 159127, "annotation": {"number": 10, "value": 120}, "group": "control_change"}, {"time": 159141, "annotation": {"number": 10, "value": 112}, "group": "control_change"}, {"time": 159157, "annotation": {"number": 10, "value": 100}, "group": "control_change"}, {"time": 159173, "annotation": {"number": 10, "value": 82}, "group": "control_change"}, {"time": 159186, "annotation": {"number": 10, "value": 57}, "group": "control_change"}, {"time": 159202, "annotation": {"number": 10, "value": 27}, "group": "control_change"}, {"time": 159219, "annotation": {"number": 10, "value": 9}, "group": "control_change"}, {"time": 159235, "annotation": {"number": 10, "value": 0}, "group": "control_change"}, {"time": 159309, "annotation": {"number": 10, "value": 1}, "group": "control_change"}, {"time": 159325, "annotation": {"number": 10, "value": 11}, "group": "control_change"}, {"time": 159339, "annotation": {"number": 10, "value": 27}, "group": "control_change"}, {"time": 159354, "annotation": {"number": 10, "value": 46}, "group": "control_change"}, {"time": 159371, "annotation": {"number": 10, "value": 62}, "group": "control_change"}, {"time": 159386, "annotation": {"number": 10, "value": 87}, "group": "control_change"}, {"time": 159399, "annotation": {"number": 10, "value": 110}, "group": "control_change"}, {"time": 159415, "annotation": {"number": 10, "value": 117}, "group": "control_change"}, {"time": 159443, "annotation": {"number": 10, "value": 127}, "group": "control_change"}, {"time": 159519, "annotation": {"number": 10, "value": 126}, "group": "control_change"}, {"time": 159547, "annotation": {"number": 10, "value": 114}, "group": "control_change"}, {"time": 159563, "annotation": {"number": 10, "value": 106}, "group": "control_change"}, {"time": 159579, "annotation": {"number": 10, "value": 94}, "group": "control_change"}, {"time": 159592, "annotation": {"number": 10, "value": 78}, "group": "control_change"}, {"time": 159608, "annotation": {"number": 10, "value": 62}, "group": "control_change"}, {"time": 159623, "annotation": {"number": 10, "value": 51}, "group": "control_change"}, {"time": 159636, "annotation": {"number": 10, "value": 41}, "group": "control_change"}, {"time": 159667, "annotation": {"number": 10, "value": 30}, "group": "control_change"}, {"time": 159740, "annotation": {"number": 10, "value": 42}, "group": "control_change"}, {"time": 159756, "annotation": {"number": 10, "value": 55}, "group": "control_change"}, {"time": 159772, "annotation": {"number": 10, "value": 70}, "group": "control_change"}, {"time": 159787, "annotation": {"number": 10, "value": 88}, "group": "control_change"}, {"time": 159800, "annotation": {"number": 10, "value": 110}, "group": "control_change"}, {"time": 159816, "annotation": {"number": 10, "value": 127}, "group": "control_change"}, {"time": 159898, "annotation": {"number": 1, "value": 65}, "group": "control_change"}, {"time": 159905, "annotation": {"number": 1, "value": 67}, "group": "control_change"}, {"time": 159913, "annotation": {"number": 1, "value": 70}, "group": "control_change"}, {"time": 159920, "annotation": {"number": 1, "value": 72}, "group": "control_change"}, {"time": 159928, "annotation": {"number": 1, "value": 74}, "group": "control_change"}, {"time": 159935, "annotation": {"number": 1, "value": 77}, "group": "control_change"}, {"time": 159943, "annotation": {"number": 1, "value": 79}, "group": "control_change"}, {"time": 159950, "annotation": {"number": 1, "value": 81}, "group": "control_change"}, {"time": 159957, "annotation": {"number": 1, "value": 83}, "group": "control_change"}, {"time": 159966, "annotation": {"number": 1, "value": 85}, "group": "control_change"}, {"time": 159968, "annotation": {"number": 10, "value": 122}, "group": "control_change"}, {"time": 159974, "annotation": {"number": 1, "value": 87}, "group": "control_change"}, {"time": 159980, "annotation": {"number": 10, "value": 115}, "group": "control_change"}, {"time": 159981, "annotation": {"number": 1, "value": 89}, "group": "control_change"}, {"time": 159989, "annotation": {"number": 1, "value": 91}, "group": "control_change"}, {"time": 159993, "annotation": {"number": 10, "value": 104}, "group": "control_change"}, {"time": 159997, "annotation": {"number": 1, "value": 93}, "group": "control_change"}, {"time": 160005, "annotation": {"number": 1, "value": 94}, "group": "control_change"}, {"time": 160009, "annotation": {"number": 10, "value": 92}, "group": "control_change"}, {"time": 160012, "annotation": {"number": 1, "value": 95}, "group": "control_change"}, {"time": 160019, "annotation": {"number": 1, "value": 96}, "group": "control_change"}, {"time": 160025, "annotation": {"number": 10, "value": 74}, "group": "control_change"}, {"time": 160027, "annotation": {"number": 1, "value": 98}, "group": "control_change"}, {"time": 160035, "annotation": {"number": 1, "value": 99}, "group": "control_change"}, {"time": 160040, "annotation": {"number": 10, "value": 54}, "group": "control_change"}, {"time": 160042, "annotation": {"number": 1, "value": 100}, "group": "control_change"}, {"time": 160049, "annotation": {"number": 1, "value": 101}, "group": "control_change"}, {"time": 160053, "annotation": {"number": 10, "value": 36}, "group": "control_change"}, {"time": 160057, "annotation": {"number": 1, "value": 102}, "group": "control_change"}, {"time": 160065, "annotation": {"number": 1, "value": 103}, "group": "control_change"}, {"time": 160069, "annotation": {"number": 10, "value": 26}, "group": "control_change"}, {"time": 160072, "annotation": {"number": 1, "value": 104}, "group": "control_change"}, {"time": 160084, "annotation": {"number": 10, "value": 17}, "group": "control_change"}, {"time": 160088, "annotation": {"number": 1, "value": 105}, "group": "control_change"}, {"time": 160095, "annotation": {"number": 1, "value": 106}, "group": "control_change"}, {"time": 160110, "annotation": {"number": 1, "value": 107}, "group": "control_change"}, {"time": 160113, "annotation": {"number": 10, "value": 7}, "group": "control_change"}, {"time": 160118, "annotation": {"number": 1, "value": 108}, "group": "control_change"}, {"time": 160133, "annotation": {"number": 1, "value": 109}, "group": "control_change"}, {"time": 160141, "annotation": {"number": 1, "value": 110}, "group": "control_change"}, {"time": 160156, "annotation": {"number": 1, "value": 111}, "group": "control_change"}, {"time": 160163, "annotation": {"number": 1, "value": 112}, "group": "control_change"}, {"time": 160171, "annotation": {"number": 1, "value": 113}, "group": "control_change"}, {"time": 160186, "annotation": {"number": 10, "value": 14}, "group": "control_change"}, {"time": 160194, "annotation": {"number": 1, "value": 114}, "group": "control_change"}, {"time": 160201, "annotation": {"number": 1, "value": 115}, "group": "control_change"}, {"time": 160202, "annotation": {"number": 10, "value": 25}, "group": "control_change"}, {"time": 160209, "annotation": {"number": 1, "value": 116}, "group": "control_change"}, {"time": 160217, "annotation": {"number": 10, "value": 38}, "group": "control_change"}, {"time": 160224, "annotation": {"number": 1, "value": 117}, "group": "control_change"}, {"time": 160231, "annotation": {"number": 1, "value": 118}, "group": "control_change"}, {"time": 160233, "annotation": {"number": 10, "value": 51}, "group": "control_change"}, {"time": 160239, "annotation": {"number": 1, "value": 119}, "group": "control_change"}, {"time": 160246, "annotation": {"number": 10, "value": 65}, "group": "control_change"}, {"time": 160261, "annotation": {"number": 1, "value": 121}, "group": "control_change"}, {"time": 160261, "annotation": {"number": 10, "value": 78}, "group": "control_change"}, {"time": 160276, "annotation": {"number": 1, "value": 122}, "group": "control_change"}, {"time": 160277, "annotation": {"number": 10, "value": 90}, "group": "control_change"}, {"time": 160284, "annotation": {"number": 1, "value": 123}, "group": "control_change"}, {"time": 160292, "annotation": {"number": 1, "value": 124}, "group": "control_change"}, {"time": 160293, "annotation": {"number": 10, "value": 100}, "group": "control_change"}, {"time": 160299, "annotation": {"number": 1, "value": 125}, "group": "control_change"}, {"time": 160306, "annotation": {"number": 10, "value": 108}, "group": "control_change"}, {"time": 160307, "annotation": {"number": 1, "value": 126}, "group": "control_change"}, {"time": 160322, "annotation": {"number": 1, "value": 127}, "group": "control_change"}, {"time": 160338, "annotation": {"number": 10, "value": 118}, "group": "control_change"}, {"time": 160410, "annotation": {"number": 10, "value": 117}, "group": "control_change"}, {"time": 160441, "annotation": {"number": 10, "value": 99}, "group": "control_change"}, {"time": 160453, "annotation": {"number": 10, "value": 84}, "group": "control_change"}, {"time": 160469, "annotation": {"number": 10, "value": 64}, "group": "control_change"}, {"time": 160485, "annotation": {"number": 10, "value": 41}, "group": "control_change"}, {"time": 160501, "annotation": {"number": 10, "value": 18}, "group": "control_change"}, {"time": 160514, "annotation": {"number": 10, "value": 1}, "group": "control_change"}, {"time": 160529, "annotation": {"number": 10, "value": 0}, "group": "control_change"}, {"time": 160697, "annotation": {"number": 10, "value": 6}, "group": "control_change"}, {"time": 160713, "annotation": {"number": 10, "value": 17}, "group": "control_change"}, {"time": 160722, "annotation": {"number": 10, "value": 29}, "group": "control_change"}, {"time": 160738, "annotation": {"number": 10, "value": 41}, "group": "control_change"}, {"time": 160754, "annotation": {"number": 10, "value": 55}, "group": "control_change"}, {"time": 160766, "annotation": {"number": 10, "value": 66}, "group": "control_change"}, {"time": 160782, "annotation": {"number": 10, "value": 75}, "group": "control_change"}, {"time": 160798, "annotation": {"number": 10, "value": 83}, "group": "control_change"}, {"time": 160886, "annotation": {"number": 10, "value": 84}, "group": "control_change"}, {"time": 160915, "annotation": {"number": 10, "value": 68}, "group": "control_change"}, {"time": 160930, "annotation": {"number": 10, "value": 58}, "group": "control_change"}, {"time": 160946, "annotation": {"number": 10, "value": 46}, "group": "control_change"}, {"time": 160959, "annotation": {"number": 10, "value": 32}, "group": "control_change"}, {"time": 160975, "annotation": {"number": 10, "value": 17}, "group": "control_change"}, {"time": 160991, "annotation": {"number": 10, "value": 0}, "group": "control_change"}, {"time": 161152, "annotation": {"number": 10, "value": 2}, "group": "control_change"}, {"time": 161183, "annotation": {"number": 10, "value": 11}, "group": "control_change"}, {"time": 161199, "annotation": {"number": 10, "value": 18}, "group": "control_change"}, {"time": 161212, "annotation": {"number": 10, "value": 27}, "group": "control_change"}, {"time": 161227, "annotation": {"number": 10, "value": 43}, "group": "control_change"}, {"time": 161244, "annotation": {"number": 10, "value": 60}, "group": "control_change"}, {"time": 161259, "annotation": {"number": 10, "value": 82}, "group": "control_change"}, {"time": 161272, "annotation": {"number": 10, "value": 102}, "group": "control_change"}, {"time": 161288, "annotation": {"number": 10, "value": 116}, "group": "control_change"}, {"time": 161303, "annotation": {"number": 10, "value": 124}, "group": "control_change"}, {"time": 161452, "annotation": {"number": 10, "value": 126}, "group": "control_change"}, {"time": 161466, "annotation": {"number": 1, "value": 126}, "group": "control_change"}, {"time": 161480, "annotation": {"number": 10, "value": 117}, "group": "control_change"}, {"time": 161496, "annotation": {"number": 10, "value": 110}, "group": "control_change"}, {"time": 161496, "annotation": {"number": 1, "value": 125}, "group": "control_change"}, {"time": 161512, "annotation": {"number": 10, "value": 100}, "group": "control_change"}, {"time": 161524, "annotation": {"number": 10, "value": 89}, "group": "control_change"}, {"time": 161533, "annotation": {"number": 1, "value": 124}, "group": "control_change"}, {"time": 161540, "annotation": {"number": 10, "value": 75}, "group": "control_change"}, {"time": 161556, "annotation": {"number": 10, "value": 63}, "group": "control_change"}, {"time": 161578, "annotation": {"number": 10, "value": 50}, "group": "control_change"}, {"time": 161579, "annotation": {"number": 1, "value": 123}, "group": "control_change"}, {"time": 161585, "annotation": {"number": 10, "value": 42}, "group": "control_change"}, {"time": 161600, "annotation": {"number": 10, "value": 35}, "group": "control_change"}, {"time": 161631, "annotation": {"number": 1, "value": 122}, "group": "control_change"}, {"time": 161653, "annotation": {"number": 1, "value": 121}, "group": "control_change"}, {"time": 161682, "annotation": {"number": 1, "value": 120}, "group": "control_change"}, {"time": 161720, "annotation": {"number": 1, "value": 119}, "group": "control_change"}, {"time": 161750, "annotation": {"number": 1, "value": 118}, "group": "control_change"}, {"time": 161757, "annotation": {"number": 1, "value": 117}, "group": "control_change"}, {"time": 161787, "annotation": {"number": 1, "value": 116}, "group": "control_change"}, {"time": 161793, "annotation": {"number": 10, "value": 31}, "group": "control_change"}, {"time": 161816, "annotation": {"number": 1, "value": 115}, "group": "control_change"}, {"time": 161838, "annotation": {"number": 10, "value": 20}, "group": "control_change"}, {"time": 161853, "annotation": {"number": 10, "value": 13}, "group": "control_change"}, {"time": 161854, "annotation": {"number": 1, "value": 114}, "group": "control_change"}, {"time": 161861, "annotation": {"number": 1, "value": 113}, "group": "control_change"}, {"time": 161877, "annotation": {"number": 1, "value": 112}, "group": "control_change"}, {"time": 161881, "annotation": {"number": 10, "value": 4}, "group": "control_change"}, {"time": 161900, "annotation": {"number": 1, "value": 111}, "group": "control_change"}, {"time": 161907, "annotation": {"number": 1, "value": 110}, "group": "control_change"}, {"time": 161928, "annotation": {"number": 1, "value": 108}, "group": "control_change"}, {"time": 161951, "annotation": {"number": 1, "value": 107}, "group": "control_change"}, {"time": 161958, "annotation": {"number": 1, "value": 106}, "group": "control_change"}, {"time": 161965, "annotation": {"number": 1, "value": 105}, "group": "control_change"}, {"time": 161980, "annotation": {"number": 1, "value": 104}, "group": "control_change"}, {"time": 161988, "annotation": {"number": 1, "value": 103}, "group": "control_change"}, {"time": 162003, "annotation": {"number": 1, "value": 102}, "group": "control_change"}, {"time": 162004, "annotation": {"number": 10, "value": 7}, "group": "control_change"}, {"time": 162011, "annotation": {"number": 1, "value": 101}, "group": "control_change"}, {"time": 162019, "annotation": {"number": 1, "value": 100}, "group": "control_change"}, {"time": 162020, "annotation": {"number": 10, "value": 16}, "group": "control_change"}, {"time": 162029, "annotation": {"number": 10, "value": 27}, "group": "control_change"}, {"time": 162042, "annotation": {"number": 1, "value": 99}, "group": "control_change"}, {"time": 162045, "annotation": {"number": 10, "value": 42}, "group": "control_change"}, {"time": 162050, "annotation": {"number": 1, "value": 98}, "group": "control_change"}, {"time": 162061, "annotation": {"number": 10, "value": 58}, "group": "control_change"}, {"time": 162072, "annotation": {"number": 1, "value": 97}, "group": "control_change"}, {"time": 162076, "annotation": {"number": 10, "value": 82}, "group": "control_change"}, {"time": 162089, "annotation": {"number": 10, "value": 99}, "group": "control_change"}, {"time": 162105, "annotation": {"number": 10, "value": 111}, "group": "control_change"}, {"time": 162117, "annotation": {"number": 1, "value": 96}, "group": "control_change"}, {"time": 162118, "annotation": {"number": 10, "value": 120}, "group": "control_change"}, {"time": 162139, "annotation": {"number": 1, "value": 95}, "group": "control_change"}, {"time": 162149, "annotation": {"number": 10, "value": 127}, "group": "control_change"}, {"time": 162176, "annotation": {"number": 1, "value": 94}, "group": "control_change"}, {"time": 162214, "annotation": {"number": 1, "value": 93}, "group": "control_change"}, {"time": 162298, "annotation": {"number": 10, "value": 122}, "group": "control_change"}, {"time": 162313, "annotation": {"number": 10, "value": 115}, "group": "control_change"}, {"time": 162326, "annotation": {"number": 10, "value": 107}, "group": "control_change"}, {"time": 162332, "annotation": {"number": 1, "value": 92}, "group": "control_change"}, {"time": 162342, "annotation": {"number": 10, "value": 97}, "group": "control_change"}, {"time": 162358, "annotation": {"number": 10, "value": 87}, "group": "control_change"}, {"time": 162370, "annotation": {"number": 10, "value": 79}, "group": "control_change"}, {"time": 162386, "annotation": {"number": 10, "value": 69}, "group": "control_change"}, {"time": 162399, "annotation": {"number": 1, "value": 91}, "group": "control_change"}, {"time": 162402, "annotation": {"number": 10, "value": 61}, "group": "control_change"}, {"time": 162418, "annotation": {"number": 10, "value": 53}, "group": "control_change"}, {"time": 162446, "annotation": {"number": 10, "value": 41}, "group": "control_change"}, {"time": 162465, "annotation": {"number": 1, "value": 90}, "group": "control_change"}, {"time": 162579, "annotation": {"number": 10, "value": 38}, "group": "control_change"}, {"time": 162623, "annotation": {"number": 10, "value": 45}, "group": "control_change"}, {"time": 162629, "annotation": {"number": 1, "value": 88}, "group": "control_change"}, {"time": 162655, "annotation": {"number": 10, "value": 56}, "group": "control_change"}, {"time": 162660, "annotation": {"number": 1, "value": 87}, "group": "control_change"}, {"time": 162671, "annotation": {"number": 10, "value": 63}, "group": "control_change"}, {"time": 162683, "annotation": {"number": 10, "value": 70}, "group": "control_change"}, {"time": 162689, "annotation": {"number": 1, "value": 86}, "group": "control_change"}, {"time": 162699, "annotation": {"number": 10, "value": 77}, "group": "control_change"}, {"time": 162711, "annotation": {"number": 1, "value": 85}, "group": "control_change"}, {"time": 162715, "annotation": {"number": 10, "value": 84}, "group": "control_change"}, {"time": 162719, "annotation": {"number": 1, "value": 84}, "group": "control_change"}, {"time": 162734, "annotation": {"number": 1, "value": 83}, "group": "control_change"}, {"time": 162743, "annotation": {"number": 10, "value": 92}, "group": "control_change"}, {"time": 162764, "annotation": {"number": 1, "value": 82}, "group": "control_change"}, {"time": 162773, "annotation": {"number": 1, "value": 81}, "group": "control_change"}, {"time": 162782, "annotation": {"number": 1, "value": 80}, "group": "control_change"}, {"time": 162791, "annotation": {"number": 10, "value": 99}, "group": "control_change"}, {"time": 162803, "annotation": {"number": 1, "value": 79}, "group": "control_change"}, {"time": 162833, "annotation": {"number": 1, "value": 77}, "group": "control_change"}, {"time": 162840, "annotation": {"number": 1, "value": 76}, "group": "control_change"}, {"time": 162862, "annotation": {"number": 1, "value": 75}, "group": "control_change"}, {"time": 162884, "annotation": {"number": 1, "value": 74}, "group": "control_change"}, {"time": 162892, "annotation": {"number": 1, "value": 73}, "group": "control_change"}, {"time": 162907, "annotation": {"number": 1, "value": 72}, "group": "control_change"}, {"time": 162928, "annotation": {"number": 1, "value": 71}, "group": "control_change"}, {"time": 162952, "annotation": {"number": 10, "value": 99}, "group": "control_change"}, {"time": 162966, "annotation": {"number": 1, "value": 70}, "group": "control_change"}, {"time": 162984, "annotation": {"number": 10, "value": 88}, "group": "control_change"}, {"time": 162996, "annotation": {"number": 10, "value": 81}, "group": "control_change"}, {"time": 163012, "annotation": {"number": 10, "value": 72}, "group": "control_change"}, {"time": 163025, "annotation": {"number": 10, "value": 62}, "group": "control_change"}, {"time": 163026, "annotation": {"number": 1, "value": 69}, "group": "control_change"}, {"time": 163043, "annotation": {"number": 10, "value": 50}, "group": "control_change"}, {"time": 163056, "annotation": {"number": 10, "value": 37}, "group": "control_change"}, {"time": 163072, "annotation": {"number": 10, "value": 24}, "group": "control_change"}, {"time": 163084, "annotation": {"number": 10, "value": 12}, "group": "control_change"}, {"time": 163100, "annotation": {"number": 10, "value": 0}, "group": "control_change"}, {"time": 163110, "annotation": {"number": 1, "value": 68}, "group": "control_change"}, {"time": 163412, "annotation": {"number": 10, "value": 2}, "group": "control_change"}, {"time": 163529, "annotation": {"number": 1, "value": 67}, "group": "control_change"}, {"time": 163536, "annotation": {"number": 1, "value": 66}, "group": "control_change"}, {"time": 163559, "annotation": {"number": 1, "value": 65}, "group": "control_change"}, {"time": 163577, "annotation": {"number": 10, "value": 8}, "group": "control_change"}, {"time": 163581, "annotation": {"number": 1, "value": 64}, "group": "control_change"}, {"time": 163605, "annotation": {"number": 10, "value": 16}, "group": "control_change"}, {"time": 163621, "annotation": {"number": 10, "value": 24}, "group": "control_change"}, {"time": 163634, "annotation": {"number": 10, "value": 32}, "group": "control_change"}, {"time": 163649, "annotation": {"number": 10, "value": 42}, "group": "control_change"}, {"time": 163665, "annotation": {"number": 10, "value": 51}, "group": "control_change"}, {"time": 163684, "annotation": {"number": 10, "value": 65}, "group": "control_change"}, {"time": 163697, "annotation": {"number": 10, "value": 78}, "group": "control_change"}, {"time": 163709, "annotation": {"number": 10, "value": 90}, "group": "control_change"}, {"time": 163725, "annotation": {"number": 10, "value": 103}, "group": "control_change"}, {"time": 163738, "annotation": {"number": 10, "value": 116}, "group": "control_change"}, {"time": 163754, "annotation": {"number": 10, "value": 127}, "group": "control_change"}, {"time": 163991, "annotation": {"number": 10, "value": 126}, "group": "control_change"}, {"time": 164015, "annotation": {"number": 1, "value": 65}, "group": "control_change"}, {"time": 164024, "annotation": {"number": 1, "value": 66}, "group": "control_change"}, {"time": 164031, "annotation": {"number": 1, "value": 67}, "group": "control_change"}, {"time": 164039, "annotation": {"number": 1, "value": 68}, "group": "control_change"}, {"time": 164046, "annotation": {"number": 1, "value": 69}, "group": "control_change"}, {"time": 164054, "annotation": {"number": 1, "value": 70}, "group": "control_change"}, {"time": 164061, "annotation": {"number": 1, "value": 71}, "group": "control_change"}, {"time": 164069, "annotation": {"number": 1, "value": 72}, "group": "control_change"}, {"time": 164077, "annotation": {"number": 1, "value": 73}, "group": "control_change"}, {"time": 164085, "annotation": {"number": 1, "value": 74}, "group": "control_change"}, {"time": 164092, "annotation": {"number": 1, "value": 75}, "group": "control_change"}, {"time": 164100, "annotation": {"number": 1, "value": 76}, "group": "control_change"}, {"time": 164107, "annotation": {"number": 1, "value": 78}, "group": "control_change"}, {"time": 164111, "annotation": {"number": 10, "value": 122}, "group": "control_change"}, {"time": 164116, "annotation": {"number": 1, "value": 79}, "group": "control_change"}, {"time": 164123, "annotation": {"number": 1, "value": 80}, "group": "control_change"}, {"time": 164126, "annotation": {"number": 10, "value": 113}, "group": "control_change"}, {"time": 164130, "annotation": {"number": 1, "value": 81}, "group": "control_change"}, {"time": 164138, "annotation": {"number": 1, "value": 83}, "group": "control_change"}, {"time": 164146, "annotation": {"number": 1, "value": 84}, "group": "control_change"}, {"time": 164152, "annotation": {"number": 10, "value": 100}, "group": "control_change"}, {"time": 164153, "annotation": {"number": 1, "value": 85}, "group": "control_change"}, {"time": 164158, "annotation": {"number": 10, "value": 85}, "group": "control_change"}, {"time": 164161, "annotation": {"number": 1, "value": 86}, "group": "control_change"}, {"time": 164168, "annotation": {"number": 1, "value": 88}, "group": "control_change"}, {"time": 164170, "annotation": {"number": 10, "value": 71}, "group": "control_change"}, {"time": 164176, "annotation": {"number": 1, "value": 89}, "group": "control_change"}, {"time": 164183, "annotation": {"number": 1, "value": 91}, "group": "control_change"}, {"time": 164187, "annotation": {"number": 10, "value": 58}, "group": "control_change"}, {"time": 164191, "annotation": {"number": 1, "value": 92}, "group": "control_change"}, {"time": 164198, "annotation": {"number": 1, "value": 93}, "group": "control_change"}, {"time": 164199, "annotation": {"number": 10, "value": 48}, "group": "control_change"}, {"time": 164206, "annotation": {"number": 1, "value": 95}, "group": "control_change"}, {"time": 164213, "annotation": {"number": 1, "value": 96}, "group": "control_change"}, {"time": 164218, "annotation": {"number": 10, "value": 41}, "group": "control_change"}, {"time": 164222, "annotation": {"number": 1, "value": 97}, "group": "control_change"}, {"time": 164230, "annotation": {"number": 1, "value": 98}, "group": "control_change"}, {"time": 164238, "annotation": {"number": 1, "value": 100}, "group": "control_change"}, {"time": 164245, "annotation": {"number": 1, "value": 101}, "group": "control_change"}, {"time": 164246, "annotation": {"number": 10, "value": 33}, "group": "control_change"}, {"time": 164253, "annotation": {"number": 1, "value": 102}, "group": "control_change"}, {"time": 164261, "annotation": {"number": 1, "value": 103}, "group": "control_change"}, {"time": 164268, "annotation": {"number": 1, "value": 104}, "group": "control_change"}, {"time": 164276, "annotation": {"number": 1, "value": 106}, "group": "control_change"}, {"time": 164283, "annotation": {"number": 1, "value": 107}, "group": "control_change"}, {"time": 164291, "annotation": {"number": 1, "value": 108}, "group": "control_change"}, {"time": 164299, "annotation": {"number": 1, "value": 109}, "group": "control_change"}, {"time": 164306, "annotation": {"number": 1, "value": 110}, "group": "control_change"}, {"time": 164314, "annotation": {"number": 1, "value": 111}, "group": "control_change"}, {"time": 164322, "annotation": {"number": 1, "value": 112}, "group": "control_change"}, {"time": 164335, "annotation": {"number": 10, "value": 27}, "group": "control_change"}, {"time": 164337, "annotation": {"number": 1, "value": 113}, "group": "control_change"}, {"time": 164345, "annotation": {"number": 1, "value": 114}, "group": "control_change"}, {"time": 164352, "annotation": {"number": 1, "value": 115}, "group": "control_change"}, {"time": 164374, "annotation": {"number": 1, "value": 117}, "group": "control_change"}, {"time": 164395, "annotation": {"number": 10, "value": 19}, "group": "control_change"}, {"time": 164397, "annotation": {"number": 1, "value": 118}, "group": "control_change"}, {"time": 164404, "annotation": {"number": 1, "value": 119}, "group": "control_change"}, {"time": 164420, "annotation": {"number": 1, "value": 120}, "group": "control_change"}, {"time": 164450, "annotation": {"number": 1, "value": 121}, "group": "control_change"}, {"time": 164452, "annotation": {"number": 10, "value": 12}, "group": "control_change"}, {"time": 164480, "annotation": {"number": 1, "value": 122}, "group": "control_change"}, {"time": 164544, "annotation": {"number": 10, "value": 10}, "group": "control_change"}, {"time": 164600, "annotation": {"number": 10, "value": 20}, "group": "control_change"}, {"time": 164616, "annotation": {"number": 10, "value": 28}, "group": "control_change"}, {"time": 164632, "annotation": {"number": 10, "value": 38}, "group": "control_change"}, {"time": 164648, "annotation": {"number": 10, "value": 49}, "group": "control_change"}, {"time": 164664, "annotation": {"number": 10, "value": 57}, "group": "control_change"}, {"time": 164676, "annotation": {"number": 10, "value": 69}, "group": "control_change"}, {"time": 164692, "annotation": {"number": 10, "value": 79}, "group": "control_change"}, {"time": 164705, "annotation": {"number": 10, "value": 89}, "group": "control_change"}, {"time": 164723, "annotation": {"number": 10, "value": 100}, "group": "control_change"}, {"time": 164736, "annotation": {"number": 10, "value": 107}, "group": "control_change"}, {"time": 164765, "annotation": {"number": 10, "value": 116}, "group": "control_change"}, {"time": 164796, "annotation": {"number": 10, "value": 123}, "group": "control_change"}, {"time": 164825, "annotation": {"number": 10, "value": 127}, "group": "control_change"}, {"time": 165146, "annotation": {"number": 1, "value": 121}, "group": "control_change"}, {"time": 165149, "annotation": {"number": 10, "value": 125}, "group": "control_change"}, {"time": 165170, "annotation": {"number": 1, "value": 120}, "group": "control_change"}, {"time": 165181, "annotation": {"number": 10, "value": 112}, "group": "control_change"}, {"time": 165192, "annotation": {"number": 1, "value": 119}, "group": "control_change"}, {"time": 165197, "annotation": {"number": 10, "value": 102}, "group": "control_change"}, {"time": 165209, "annotation": {"number": 10, "value": 93}, "group": "control_change"}, {"time": 165215, "annotation": {"number": 1, "value": 117}, "group": "control_change"}, {"time": 165222, "annotation": {"number": 1, "value": 116}, "group": "control_change"}, {"time": 165230, "annotation": {"number": 1, "value": 115}, "group": "control_change"}, {"time": 165238, "annotation": {"number": 1, "value": 114}, "group": "control_change"}, {"time": 165241, "annotation": {"number": 10, "value": 79}, "group": "control_change"}, {"time": 165253, "annotation": {"number": 1, "value": 113}, "group": "control_change"}, {"time": 165253, "annotation": {"number": 10, "value": 68}, "group": "control_change"}, {"time": 165260, "annotation": {"number": 1, "value": 112}, "group": "control_change"}, {"time": 165268, "annotation": {"number": 1, "value": 111}, "group": "control_change"}, {"time": 165269, "annotation": {"number": 10, "value": 55}, "group": "control_change"}, {"time": 165276, "annotation": {"number": 1, "value": 110}, "group": "control_change"}, {"time": 165285, "annotation": {"number": 10, "value": 48}, "group": "control_change"}, {"time": 165291, "annotation": {"number": 1, "value": 109}, "group": "control_change"}, {"time": 165298, "annotation": {"number": 1, "value": 108}, "group": "control_change"}, {"time": 165301, "annotation": {"number": 10, "value": 39}, "group": "control_change"}, {"time": 165314, "annotation": {"number": 1, "value": 107}, "group": "control_change"}, {"time": 165314, "annotation": {"number": 10, "value": 30}, "group": "control_change"}, {"time": 165321, "annotation": {"number": 1, "value": 106}, "group": "control_change"}, {"time": 165330, "annotation": {"number": 10, "value": 22}, "group": "control_change"}, {"time": 165336, "annotation": {"number": 1, "value": 105}, "group": "control_change"}, {"time": 165343, "annotation": {"number": 1, "value": 104}, "group": "control_change"}, {"time": 165358, "annotation": {"number": 1, "value": 103}, "group": "control_change"}, {"time": 165381, "annotation": {"number": 1, "value": 102}, "group": "control_change"}, {"time": 165388, "annotation": {"number": 1, "value": 101}, "group": "control_change"}, {"time": 165402, "annotation": {"number": 10, "value": 16}, "group": "control_change"}, {"time": 165419, "annotation": {"number": 1, "value": 100}, "group": "control_change"}, {"time": 165478, "annotation": {"number": 10, "value": 12}, "group": "control_change"}, {"time": 165501, "annotation": {"number": 1, "value": 99}, "group": "control_change"}, {"time": 165522, "annotation": {"number": 10, "value": 4}, "group": "control_change"}, {"time": 165634, "annotation": {"number": 1, "value": 98}, "group": "control_change"}, {"time": 165671, "annotation": {"number": 1, "value": 97}, "group": "control_change"}, {"time": 165700, "annotation": {"number": 1, "value": 96}, "group": "control_change"}, {"time": 165715, "annotation": {"number": 10, "value": 2}, "group": "control_change"}, {"time": 165724, "annotation": {"number": 1, "value": 95}, "group": "control_change"}, {"time": 165754, "annotation": {"number": 1, "value": 94}, "group": "control_change"}, {"time": 165759, "annotation": {"number": 10, "value": 15}, "group": "control_change"}, {"time": 165762, "annotation": {"number": 1, "value": 93}, "group": "control_change"}, {"time": 165775, "annotation": {"number": 10, "value": 26}, "group": "control_change"}, {"time": 165784, "annotation": {"number": 1, "value": 92}, "group": "control_change"}, {"time": 165807, "annotation": {"number": 10, "value": 38}, "group": "control_change"}, {"time": 165813, "annotation": {"number": 1, "value": 91}, "group": "control_change"}, {"time": 165819, "annotation": {"number": 10, "value": 47}, "group": "control_change"}, {"time": 165821, "annotation": {"number": 1, "value": 90}, "group": "control_change"}, {"time": 165835, "annotation": {"number": 10, "value": 55}, "group": "control_change"}, {"time": 165843, "annotation": {"number": 1, "value": 89}, "group": "control_change"}, {"time": 165851, "annotation": {"number": 10, "value": 64}, "group": "control_change"}, {"time": 165851, "annotation": {"number": 1, "value": 88}, "group": "control_change"}, {"time": 165863, "annotation": {"number": 10, "value": 72}, "group": "control_change"}, {"time": 165874, "annotation": {"number": 1, "value": 87}, "group": "control_change"}, {"time": 165879, "annotation": {"number": 10, "value": 81}, "group": "control_change"}, {"time": 165901, "annotation": {"number": 10, "value": 88}, "group": "control_change"}, {"time": 165923, "annotation": {"number": 10, "value": 101}, "group": "control_change"}, {"time": 165939, "annotation": {"number": 10, "value": 108}, "group": "control_change"}, {"time": 165983, "annotation": {"number": 10, "value": 116}, "group": "control_change"}, {"time": 166028, "annotation": {"number": 10, "value": 125}, "group": "control_change"}, {"time": 166369, "annotation": {"number": 10, "value": 126}, "group": "control_change"}, {"time": 166399, "annotation": {"number": 1, "value": 88}, "group": "control_change"}, {"time": 166400, "annotation": {"number": 10, "value": 116}, "group": "control_change"}, {"time": 166428, "annotation": {"number": 10, "value": 101}, "group": "control_change"}, {"time": 166447, "annotation": {"number": 10, "value": 93}, "group": "control_change"}, {"time": 166459, "annotation": {"number": 10, "value": 86}, "group": "control_change"}, {"time": 166475, "annotation": {"number": 10, "value": 79}, "group": "control_change"}, {"time": 166480, "annotation": {"number": 1, "value": 90}, "group": "control_change"}, {"time": 166504, "annotation": {"number": 10, "value": 69}, "group": "control_change"}, {"time": 166532, "annotation": {"number": 10, "value": 61}, "group": "control_change"}, {"time": 166555, "annotation": {"number": 1, "value": 91}, "group": "control_change"}, {"time": 166577, "annotation": {"number": 10, "value": 54}, "group": "control_change"}, {"time": 166586, "annotation": {"number": 1, "value": 92}, "group": "control_change"}, {"time": 166608, "annotation": {"number": 1, "value": 93}, "group": "control_change"}, {"time": 166615, "annotation": {"number": 1, "value": 94}, "group": "control_change"}, {"time": 166631, "annotation": {"number": 1, "value": 95}, "group": "control_change"}, {"time": 166652, "annotation": {"number": 10, "value": 50}, "group": "control_change"}, {"time": 166652, "annotation": {"number": 1, "value": 96}, "group": "control_change"}, {"time": 166661, "annotation": {"number": 1, "value": 97}, "group": "control_change"}, {"time": 166676, "annotation": {"number": 1, "value": 98}, "group": "control_change"}, {"time": 166698, "annotation": {"number": 1, "value": 99}, "group": "control_change"}, {"time": 166706, "annotation": {"number": 1, "value": 100}, "group": "control_change"}, {"time": 166713, "annotation": {"number": 10, "value": 40}, "group": "control_change"}, {"time": 166728, "annotation": {"number": 1, "value": 101}, "group": "control_change"}, {"time": 166741, "annotation": {"number": 10, "value": 31}, "group": "control_change"}, {"time": 166758, "annotation": {"number": 1, "value": 103}, "group": "control_change"}, {"time": 166769, "annotation": {"number": 10, "value": 21}, "group": "control_change"}, {"time": 166780, "annotation": {"number": 1, "value": 104}, "group": "control_change"}, {"time": 166801, "annotation": {"number": 10, "value": 11}, "group": "control_change"}, {"time": 166803, "annotation": {"number": 1, "value": 105}, "group": "control_change"}, {"time": 166829, "annotation": {"number": 10, "value": 1}, "group": "control_change"}, {"time": 166833, "annotation": {"number": 1, "value": 106}, "group": "control_change"}, {"time": 166862, "annotation": {"number": 1, "value": 107}, "group": "control_change"}, {"time": 166885, "annotation": {"number": 1, "value": 108}, "group": "control_change"}, {"time": 166914, "annotation": {"number": 1, "value": 109}, "group": "control_change"}, {"time": 166922, "annotation": {"number": 1, "value": 110}, "group": "control_change"}, {"time": 166943, "annotation": {"number": 1, "value": 111}, "group": "control_change"}, {"time": 166974, "annotation": {"number": 1, "value": 112}, "group": "control_change"}, {"time": 166982, "annotation": {"number": 1, "value": 113}, "group": "control_change"}, {"time": 166997, "annotation": {"number": 1, "value": 114}, "group": "control_change"}, {"time": 167010, "annotation": {"number": 10, "value": 1}, "group": "control_change"}, {"time": 167026, "annotation": {"number": 1, "value": 115}, "group": "control_change"}, {"time": 167034, "annotation": {"number": 1, "value": 116}, "group": "control_change"}, {"time": 167044, "annotation": {"number": 10, "value": 12}, "group": "control_change"}, {"time": 167049, "annotation": {"number": 1, "value": 117}, "group": "control_change"}, {"time": 167054, "annotation": {"number": 10, "value": 21}, "group": "control_change"}, {"time": 167069, "annotation": {"number": 10, "value": 29}, "group": "control_change"}, {"time": 167074, "annotation": {"number": 1, "value": 118}, "group": "control_change"}, {"time": 167081, "annotation": {"number": 1, "value": 119}, "group": "control_change"}, {"time": 167082, "annotation": {"number": 10, "value": 37}, "group": "control_change"}, {"time": 167096, "annotation": {"number": 1, "value": 120}, "group": "control_change"}, {"time": 167098, "annotation": {"number": 10, "value": 46}, "group": "control_change"}, {"time": 167114, "annotation": {"number": 10, "value": 54}, "group": "control_change"}, {"time": 167126, "annotation": {"number": 1, "value": 121}, "group": "control_change"}, {"time": 167126, "annotation": {"number": 10, "value": 63}, "group": "control_change"}, {"time": 167155, "annotation": {"number": 1, "value": 122}, "group": "control_change"}, {"time": 167158, "annotation": {"number": 10, "value": 75}, "group": "control_change"}, {"time": 167170, "annotation": {"number": 10, "value": 82}, "group": "control_change"}, {"time": 167202, "annotation": {"number": 10, "value": 90}, "group": "control_change"}, {"time": 167251, "annotation": {"number": 1, "value": 123}, "group": "control_change"}, {"time": 167262, "annotation": {"number": 10, "value": 97}, "group": "control_change"}, {"time": 167351, "annotation": {"number": 10, "value": 105}, "group": "control_change"}, {"time": 167395, "annotation": {"number": 10, "value": 112}, "group": "control_change"}, {"time": 167440, "annotation": {"number": 10, "value": 120}, "group": "control_change"}, {"time": 167484, "annotation": {"number": 10, "value": 127}, "group": "control_change"}, {"time": 167488, "annotation": {"number": 1, "value": 122}, "group": "control_change"}, {"time": 167516, "annotation": {"number": 1, "value": 121}, "group": "control_change"}, {"time": 167548, "annotation": {"number": 1, "value": 119}, "group": "control_change"}, {"time": 167563, "annotation": {"number": 1, "value": 118}, "group": "control_change"}, {"time": 167571, "annotation": {"number": 1, "value": 117}, "group": "control_change"}, {"time": 167579, "annotation": {"number": 1, "value": 116}, "group": "control_change"}, {"time": 167586, "annotation": {"number": 1, "value": 115}, "group": "control_change"}, {"time": 167594, "annotation": {"number": 1, "value": 114}, "group": "control_change"}, {"time": 167602, "annotation": {"number": 1, "value": 113}, "group": "control_change"}, {"time": 167609, "annotation": {"number": 1, "value": 112}, "group": "control_change"}, {"time": 167617, "annotation": {"number": 1, "value": 111}, "group": "control_change"}, {"time": 167625, "annotation": {"number": 1, "value": 110}, "group": "control_change"}, {"time": 167632, "annotation": {"number": 1, "value": 108}, "group": "control_change"}, {"time": 167635, "annotation": {"number": 10, "value": 126}, "group": "control_change"}, {"time": 167640, "annotation": {"number": 1, "value": 107}, "group": "control_change"}, {"time": 167647, "annotation": {"number": 1, "value": 106}, "group": "control_change"}, {"time": 167655, "annotation": {"number": 1, "value": 105}, "group": "control_change"}, {"time": 167663, "annotation": {"number": 1, "value": 104}, "group": "control_change"}, {"time": 167664, "annotation": {"number": 10, "value": 116}, "group": "control_change"}, {"time": 167671, "annotation": {"number": 1, "value": 103}, "group": "control_change"}, {"time": 167678, "annotation": {"number": 1, "value": 102}, "group": "control_change"}, {"time": 167679, "annotation": {"number": 10, "value": 109}, "group": "control_change"}, {"time": 167686, "annotation": {"number": 1, "value": 101}, "group": "control_change"}, {"time": 167692, "annotation": {"number": 10, "value": 102}, "group": "control_change"}, {"time": 167693, "annotation": {"number": 1, "value": 100}, "group": "control_change"}, {"time": 167701, "annotation": {"number": 1, "value": 99}, "group": "control_change"}, {"time": 167716, "annotation": {"number": 1, "value": 98}, "group": "control_change"}, {"time": 167723, "annotation": {"number": 1, "value": 97}, "group": "control_change"}, {"time": 167723, "annotation": {"number": 10, "value": 89}, "group": "control_change"}, {"time": 167736, "annotation": {"number": 10, "value": 81}, "group": "control_change"}, {"time": 167739, "annotation": {"number": 1, "value": 96}, "group": "control_change"}, {"time": 167752, "annotation": {"number": 10, "value": 74}, "group": "control_change"}, {"time": 167761, "annotation": {"number": 1, "value": 95}, "group": "control_change"}, {"time": 167768, "annotation": {"number": 10, "value": 67}, "group": "control_change"}, {"time": 167784, "annotation": {"number": 10, "value": 58}, "group": "control_change"}, {"time": 167791, "annotation": {"number": 1, "value": 94}, "group": "control_change"}, {"time": 167796, "annotation": {"number": 10, "value": 50}, "group": "control_change"}, {"time": 167812, "annotation": {"number": 10, "value": 41}, "group": "control_change"}, {"time": 167828, "annotation": {"number": 1, "value": 93}, "group": "control_change"}, {"time": 167828, "annotation": {"number": 10, "value": 34}, "group": "control_change"}, {"time": 167865, "annotation": {"number": 1, "value": 92}, "group": "control_change"}, {"time": 167872, "annotation": {"number": 10, "value": 27}, "group": "control_change"}, {"time": 167894, "annotation": {"number": 1, "value": 91}, "group": "control_change"}, {"time": 167902, "annotation": {"number": 1, "value": 90}, "group": "control_change"}, {"time": 167924, "annotation": {"number": 1, "value": 89}, "group": "control_change"}, {"time": 167944, "annotation": {"number": 10, "value": 23}, "group": "control_change"}, {"time": 167954, "annotation": {"number": 1, "value": 88}, "group": "control_change"}, {"time": 167975, "annotation": {"number": 10, "value": 16}, "group": "control_change"}, {"time": 167983, "annotation": {"number": 1, "value": 87}, "group": "control_change"}, {"time": 168004, "annotation": {"number": 10, "value": 8}, "group": "control_change"}, {"time": 168021, "annotation": {"number": 1, "value": 86}, "group": "control_change"}, {"time": 168035, "annotation": {"number": 10, "value": 0}, "group": "control_change"}, {"time": 168060, "annotation": {"number": 1, "value": 85}, "group": "control_change"}, {"time": 168089, "annotation": {"number": 1, "value": 84}, "group": "control_change"}, {"time": 168126, "annotation": {"number": 1, "value": 83}, "group": "control_change"}, {"time": 168170, "annotation": {"number": 1, "value": 82}, "group": "control_change"}, {"time": 168208, "annotation": {"number": 1, "value": 81}, "group": "control_change"}, {"time": 168228, "annotation": {"number": 10, "value": 1}, "group": "control_change"}, {"time": 168238, "annotation": {"number": 1, "value": 80}, "group": "control_change"}, {"time": 168273, "annotation": {"number": 10, "value": 15}, "group": "control_change"}, {"time": 168282, "annotation": {"number": 1, "value": 79}, "group": "control_change"}, {"time": 168288, "annotation": {"number": 10, "value": 27}, "group": "control_change"}, {"time": 168301, "annotation": {"number": 10, "value": 38}, "group": "control_change"}, {"time": 168305, "annotation": {"number": 1, "value": 77}, "group": "control_change"}, {"time": 168317, "annotation": {"number": 10, "value": 49}, "group": "control_change"}, {"time": 168332, "annotation": {"number": 10, "value": 61}, "group": "control_change"}, {"time": 168335, "annotation": {"number": 1, "value": 76}, "group": "control_change"}, {"time": 168343, "annotation": {"number": 1, "value": 75}, "group": "control_change"}, {"time": 168345, "annotation": {"number": 10, "value": 73}, "group": "control_change"}, {"time": 168358, "annotation": {"number": 1, "value": 74}, "group": "control_change"}, {"time": 168361, "annotation": {"number": 10, "value": 84}, "group": "control_change"}, {"time": 168377, "annotation": {"number": 10, "value": 94}, "group": "control_change"}, {"time": 168380, "annotation": {"number": 1, "value": 73}, "group": "control_change"}, {"time": 168389, "annotation": {"number": 10, "value": 101}, "group": "control_change"}, {"time": 168405, "annotation": {"number": 10, "value": 108}, "group": "control_change"}, {"time": 168416, "annotation": {"number": 1, "value": 72}, "group": "control_change"}, {"time": 168424, "annotation": {"number": 1, "value": 71}, "group": "control_change"}, {"time": 168437, "annotation": {"number": 10, "value": 117}, "group": "control_change"}, {"time": 168461, "annotation": {"number": 1, "value": 70}, "group": "control_change"}, {"time": 168465, "annotation": {"number": 10, "value": 121}, "group": "control_change"}, {"time": 168514, "annotation": {"number": 1, "value": 69}, "group": "control_change"}, {"time": 168538, "annotation": {"number": 10, "value": 127}, "group": "control_change"}, {"time": 168603, "annotation": {"number": 1, "value": 68}, "group": "control_change"}, {"time": 168788, "annotation": {"number": 1, "value": 67}, "group": "control_change"}, {"time": 168906, "annotation": {"number": 1, "value": 68}, "group": "control_change"}, {"time": 168929, "annotation": {"number": 1, "value": 70}, "group": "control_change"}, {"time": 168942, "annotation": {"number": 10, "value": 126}, "group": "control_change"}, {"time": 168944, "annotation": {"number": 1, "value": 71}, "group": "control_change"}, {"time": 168952, "annotation": {"number": 1, "value": 72}, "group": "control_change"}, {"time": 168960, "annotation": {"number": 1, "value": 73}, "group": "control_change"}, {"time": 168968, "annotation": {"number": 1, "value": 75}, "group": "control_change"}, {"time": 168971, "annotation": {"number": 10, "value": 116}, "group": "control_change"}, {"time": 168976, "annotation": {"number": 1, "value": 76}, "group": "control_change"}, {"time": 168984, "annotation": {"number": 1, "value": 77}, "group": "control_change"}, {"time": 168986, "annotation": {"number": 10, "value": 107}, "group": "control_change"}, {"time": 168991, "annotation": {"number": 1, "value": 79}, "group": "control_change"}, {"time": 168999, "annotation": {"number": 1, "value": 80}, "group": "control_change"}, {"time": 168999, "annotation": {"number": 10, "value": 97}, "group": "control_change"}, {"time": 169007, "annotation": {"number": 1, "value": 81}, "group": "control_change"}, {"time": 169014, "annotation": {"number": 1, "value": 83}, "group": "control_change"}, {"time": 169015, "annotation": {"number": 10, "value": 88}, "group": "control_change"}, {"time": 169021, "annotation": {"number": 1, "value": 84}, "group": "control_change"}, {"time": 169029, "annotation": {"number": 1, "value": 86}, "group": "control_change"}, {"time": 169031, "annotation": {"number": 10, "value": 79}, "group": "control_change"}, {"time": 169037, "annotation": {"number": 1, "value": 87}, "group": "control_change"}, {"time": 169044, "annotation": {"number": 1, "value": 88}, "group": "control_change"}, {"time": 169052, "annotation": {"number": 1, "value": 90}, "group": "control_change"}, {"time": 169059, "annotation": {"number": 10, "value": 69}, "group": "control_change"}, {"time": 169060, "annotation": {"number": 1, "value": 92}, "group": "control_change"}, {"time": 169067, "annotation": {"number": 1, "value": 93}, "group": "control_change"}, {"time": 169075, "annotation": {"number": 1, "value": 94}, "group": "control_change"}, {"time": 169083, "annotation": {"number": 1, "value": 95}, "group": "control_change"}, {"time": 169090, "annotation": {"number": 1, "value": 96}, "group": "control_change"}, {"time": 169091, "annotation": {"number": 10, "value": 62}, "group": "control_change"}, {"time": 169098, "annotation": {"number": 1, "value": 98}, "group": "control_change"}, {"time": 169106, "annotation": {"number": 1, "value": 99}, "group": "control_change"}, {"time": 169114, "annotation": {"number": 1, "value": 100}, "group": "control_change"}, {"time": 169122, "annotation": {"number": 1, "value": 101}, "group": "control_change"}, {"time": 169129, "annotation": {"number": 1, "value": 102}, "group": "control_change"}, {"time": 169138, "annotation": {"number": 1, "value": 103}, "group": "control_change"}, {"time": 169146, "annotation": {"number": 1, "value": 104}, "group": "control_change"}, {"time": 169148, "annotation": {"number": 10, "value": 55}, "group": "control_change"}, {"time": 169152, "annotation": {"number": 1, "value": 105}, "group": "control_change"}, {"time": 169160, "annotation": {"number": 1, "value": 106}, "group": "control_change"}, {"time": 169168, "annotation": {"number": 1, "value": 107}, "group": "control_change"}, {"time": 169190, "annotation": {"number": 1, "value": 108}, "group": "control_change"}, {"time": 169197, "annotation": {"number": 1, "value": 109}, "group": "control_change"}, {"time": 169205, "annotation": {"number": 1, "value": 110}, "group": "control_change"}, {"time": 169220, "annotation": {"number": 1, "value": 111}, "group": "control_change"}, {"time": 169224, "annotation": {"number": 10, "value": 49}, "group": "control_change"}, {"time": 169243, "annotation": {"number": 1, "value": 112}, "group": "control_change"}, {"time": 169252, "annotation": {"number": 1, "value": 113}, "group": "control_change"}, {"time": 169259, "annotation": {"number": 1, "value": 114}, "group": "control_change"}, {"time": 169268, "annotation": {"number": 10, "value": 42}, "group": "control_change"}, {"time": 169274, "annotation": {"number": 1, "value": 115}, "group": "control_change"}, {"time": 169297, "annotation": {"number": 1, "value": 116}, "group": "control_change"}, {"time": 169300, "annotation": {"number": 10, "value": 35}, "group": "control_change"}, {"time": 169305, "annotation": {"number": 1, "value": 117}, "group": "control_change"}, {"time": 169312, "annotation": {"number": 10, "value": 30}, "group": "control_change"}, {"time": 169327, "annotation": {"number": 1, "value": 118}, "group": "control_change"}, {"time": 169328, "annotation": {"number": 10, "value": 25}, "group": "control_change"}, {"time": 169349, "annotation": {"number": 1, "value": 119}, "group": "control_change"}, {"time": 169356, "annotation": {"number": 1, "value": 120}, "group": "control_change"}, {"time": 169357, "annotation": {"number": 10, "value": 18}, "group": "control_change"}, {"time": 169371, "annotation": {"number": 1, "value": 121}, "group": "control_change"}, {"time": 169392, "annotation": {"number": 1, "value": 122}, "group": "control_change"}, {"time": 169415, "annotation": {"number": 10, "value": 11}, "group": "control_change"}, {"time": 169422, "annotation": {"number": 1, "value": 123}, "group": "control_change"}, {"time": 169430, "annotation": {"number": 1, "value": 124}, "group": "control_change"}, {"time": 169445, "annotation": {"number": 1, "value": 125}, "group": "control_change"}, {"time": 169475, "annotation": {"number": 1, "value": 126}, "group": "control_change"}, {"time": 169482, "annotation": {"number": 1, "value": 127}, "group": "control_change"}, {"time": 169608, "annotation": {"number": 10, "value": 14}, "group": "control_change"}, {"time": 169624, "annotation": {"number": 10, "value": 23}, "group": "control_change"}, {"time": 169640, "annotation": {"number": 10, "value": 32}, "group": "control_change"}, {"time": 169652, "annotation": {"number": 10, "value": 42}, "group": "control_change"}, {"time": 169668, "annotation": {"number": 10, "value": 54}, "group": "control_change"}, {"time": 169684, "annotation": {"number": 10, "value": 66}, "group": "control_change"}, {"time": 169700, "annotation": {"number": 10, "value": 79}, "group": "control_change"}, {"time": 169713, "annotation": {"number": 10, "value": 91}, "group": "control_change"}, {"time": 169728, "annotation": {"number": 10, "value": 103}, "group": "control_change"}, {"time": 169744, "annotation": {"number": 10, "value": 112}, "group": "control_change"}, {"time": 169750, "annotation": {"number": 1, "value": 126}, "group": "control_change"}, {"time": 169758, "annotation": {"number": 1, "value": 125}, "group": "control_change"}, {"time": 169760, "annotation": {"number": 10, "value": 120}, "group": "control_change"}, {"time": 169765, "annotation": {"number": 1, "value": 124}, "group": "control_change"}, {"time": 169773, "annotation": {"number": 1, "value": 123}, "group": "control_change"}, {"time": 169788, "annotation": {"number": 10, "value": 127}, "group": "control_change"}, {"time": 169795, "annotation": {"number": 1, "value": 122}, "group": "control_change"}, {"time": 169803, "annotation": {"number": 1, "value": 121}, "group": "control_change"}, {"time": 169818, "annotation": {"number": 1, "value": 120}, "group": "control_change"}, {"time": 169848, "annotation": {"number": 1, "value": 119}, "group": "control_change"}, {"time": 169885, "annotation": {"number": 1, "value": 118}, "group": "control_change"}, {"time": 169995, "annotation": {"number": 1, "value": 117}, "group": "control_change"}, {"time": 170024, "annotation": {"number": 1, "value": 116}, "group": "control_change"}, {"time": 170047, "annotation": {"number": 1, "value": 115}, "group": "control_change"}, {"time": 170056, "annotation": {"number": 1, "value": 114}, "group": "control_change"}, {"time": 170078, "annotation": {"number": 1, "value": 113}, "group": "control_change"}, {"time": 170086, "annotation": {"number": 1, "value": 112}, "group": "control_change"}, {"time": 170093, "annotation": {"number": 1, "value": 111}, "group": "control_change"}, {"time": 170101, "annotation": {"number": 1, "value": 110}, "group": "control_change"}, {"time": 170116, "annotation": {"number": 1, "value": 109}, "group": "control_change"}, {"time": 170124, "annotation": {"number": 1, "value": 108}, "group": "control_change"}, {"time": 170130, "annotation": {"number": 10, "value": 123}, "group": "control_change"}, {"time": 170131, "annotation": {"number": 1, "value": 107}, "group": "control_change"}, {"time": 170139, "annotation": {"number": 1, "value": 106}, "group": "control_change"}, {"time": 170146, "annotation": {"number": 1, "value": 105}, "group": "control_change"}, {"time": 170154, "annotation": {"number": 1, "value": 104}, "group": "control_change"}, {"time": 170161, "annotation": {"number": 10, "value": 112}, "group": "control_change"}, {"time": 170162, "annotation": {"number": 1, "value": 103}, "group": "control_change"}, {"time": 170170, "annotation": {"number": 1, "value": 102}, "group": "control_change"}, {"time": 170174, "annotation": {"number": 10, "value": 103}, "group": "control_change"}, {"time": 170176, "annotation": {"number": 1, "value": 101}, "group": "control_change"}, {"time": 170185, "annotation": {"number": 1, "value": 100}, "group": "control_change"}, {"time": 170193, "annotation": {"number": 10, "value": 95}, "group": "control_change"}, {"time": 170195, "annotation": {"number": 1, "value": 98}, "group": "control_change"}, {"time": 170202, "annotation": {"number": 1, "value": 97}, "group": "control_change"}, {"time": 170209, "annotation": {"number": 1, "value": 96}, "group": "control_change"}, {"time": 170218, "annotation": {"number": 10, "value": 83}, "group": "control_change"}, {"time": 170224, "annotation": {"number": 1, "value": 95}, "group": "control_change"}, {"time": 170232, "annotation": {"number": 1, "value": 94}, "group": "control_change"}, {"time": 170234, "annotation": {"number": 10, "value": 76}, "group": "control_change"}, {"time": 170239, "annotation": {"number": 1, "value": 93}, "group": "control_change"}, {"time": 170247, "annotation": {"number": 1, "value": 92}, "group": "control_change"}, {"time": 170261, "annotation": {"number": 1, "value": 91}, "group": "control_change"}, {"time": 170262, "annotation": {"number": 10, "value": 64}, "group": "control_change"}, {"time": 170268, "annotation": {"number": 1, "value": 90}, "group": "control_change"}, {"time": 170277, "annotation": {"number": 1, "value": 89}, "group": "control_change"}, {"time": 170294, "annotation": {"number": 1, "value": 87}, "group": "control_change"}, {"time": 170294, "annotation": {"number": 10, "value": 52}, "group": "control_change"}, {"time": 170314, "annotation": {"number": 1, "value": 86}, "group": "control_change"}, {"time": 170322, "annotation": {"number": 10, "value": 43}, "group": "control_change"}, {"time": 170323, "annotation": {"number": 1, "value": 85}, "group": "control_change"}, {"time": 170330, "annotation": {"number": 1, "value": 84}, "group": "control_change"}, {"time": 170338, "annotation": {"number": 1, "value": 83}, "group": "control_change"}, {"time": 170353, "annotation": {"number": 1, "value": 82}, "group": "control_change"}, {"time": 170360, "annotation": {"number": 1, "value": 81}, "group": "control_change"}, {"time": 170366, "annotation": {"number": 10, "value": 34}, "group": "control_change"}, {"time": 170368, "annotation": {"number": 1, "value": 80}, "group": "control_change"}, {"time": 170391, "annotation": {"number": 1, "value": 79}, "group": "control_change"}, {"time": 170398, "annotation": {"number": 1, "value": 78}, "group": "control_change"}, {"time": 170415, "annotation": {"number": 1, "value": 77}, "group": "control_change"}, {"time": 170422, "annotation": {"number": 1, "value": 76}, "group": "control_change"}, {"time": 170443, "annotation": {"number": 10, "value": 24}, "group": "control_change"}, {"time": 170467, "annotation": {"number": 1, "value": 75}, "group": "control_change"}, {"time": 170502, "annotation": {"number": 10, "value": 17}, "group": "control_change"}, {"time": 170547, "annotation": {"number": 10, "value": 10}, "group": "control_change"}, {"time": 170575, "annotation": {"number": 10, "value": 2}, "group": "control_change"}, {"time": 170673, "annotation": {"number": 1, "value": 74}, "group": "control_change"}, {"time": 170712, "annotation": {"number": 1, "value": 73}, "group": "control_change"}, {"time": 170748, "annotation": {"number": 1, "value": 72}, "group": "control_change"}, {"time": 170756, "annotation": {"number": 1, "value": 71}, "group": "control_change"}, {"time": 170779, "annotation": {"number": 1, "value": 70}, "group": "control_change"}, {"time": 170801, "annotation": {"number": 1, "value": 69}, "group": "control_change"}, {"time": 170831, "annotation": {"number": 1, "value": 68}, "group": "control_change"}, {"time": 170876, "annotation": {"number": 10, "value": 2}, "group": "control_change"}, {"time": 170903, "annotation": {"number": 10, "value": 16}, "group": "control_change"}, {"time": 170919, "annotation": {"number": 10, "value": 24}, "group": "control_change"}, {"time": 170931, "annotation": {"number": 10, "value": 32}, "group": "control_change"}, {"time": 170947, "annotation": {"number": 10, "value": 42}, "group": "control_change"}, {"time": 170963, "annotation": {"number": 10, "value": 50}, "group": "control_change"}, {"time": 170975, "annotation": {"number": 10, "value": 58}, "group": "control_change"}, {"time": 170991, "annotation": {"number": 10, "value": 67}, "group": "control_change"}, {"time": 171007, "annotation": {"number": 10, "value": 75}, "group": "control_change"}, {"time": 171023, "annotation": {"number": 10, "value": 82}, "group": "control_change"}, {"time": 171023, "annotation": {"number": 1, "value": 69}, "group": "control_change"}, {"time": 171035, "annotation": {"number": 10, "value": 87}, "group": "control_change"}, {"time": 171051, "annotation": {"number": 10, "value": 89}, "group": "control_change"}, {"time": 171067, "annotation": {"number": 1, "value": 0}, "group": "control_change"}, {"time": 171358, "annotation": {"number": 10, "value": 67}, "group": "control_change"}, {"time": 171392, "annotation": {"number": 10, "value": 73}, "group": "control_change"}, {"time": 171411, "annotation": {"number": 10, "value": 65}, "group": "control_change"}, {"time": 171420, "annotation": {"number": 10, "value": 57}, "group": "control_change"}, {"time": 171449, "annotation": {"number": 10, "value": 44}, "group": "control_change"}, {"time": 171481, "annotation": {"number": 10, "value": 34}, "group": "control_change"}, {"time": 171597, "annotation": {"number": 10, "value": 33}, "group": "control_change"}, {"time": 171613, "annotation": {"number": 10, "value": 43}, "group": "control_change"}, {"time": 171629, "annotation": {"number": 10, "value": 55}, "group": "control_change"}, {"time": 171641, "annotation": {"number": 10, "value": 72}, "group": "control_change"}, {"time": 171657, "annotation": {"number": 10, "value": 88}, "group": "control_change"}, {"time": 171673, "annotation": {"number": 10, "value": 106}, "group": "control_change"}, {"time": 171689, "annotation": {"number": 10, "value": 122}, "group": "control_change"}, {"time": 171702, "annotation": {"number": 10, "value": 127}, "group": "control_change"}, {"time": 171837, "annotation": {"number": 10, "value": 125}, "group": "control_change"}, {"time": 171853, "annotation": {"number": 10, "value": 118}, "group": "control_change"}, {"time": 171866, "annotation": {"number": 10, "value": 106}, "group": "control_change"}, {"time": 171885, "annotation": {"number": 10, "value": 90}, "group": "control_change"}, {"time": 171897, "annotation": {"number": 10, "value": 64}, "group": "control_change"}, {"time": 171910, "annotation": {"number": 10, "value": 36}, "group": "control_change"}, {"time": 171926, "annotation": {"number": 10, "value": 17}, "group": "control_change"}, {"time": 171942, "annotation": {"number": 10, "value": 7}, "group": "control_change"}, {"time": 172014, "annotation": {"number": 10, "value": 0}, "group": "control_change"}, {"time": 172046, "annotation": {"number": 10, "value": 10}, "group": "control_change"}, {"time": 172058, "annotation": {"number": 10, "value": 20}, "group": "control_change"}, {"time": 172074, "annotation": {"number": 10, "value": 28}, "group": "control_change"}, {"time": 172090, "annotation": {"number": 10, "value": 37}, "group": "control_change"}, {"time": 172106, "annotation": {"number": 10, "value": 45}, "group": "control_change"}, {"time": 172119, "annotation": {"number": 10, "value": 53}, "group": "control_change"}, {"time": 172135, "annotation": {"number": 10, "value": 60}, "group": "control_change"}, {"time": 172163, "annotation": {"number": 10, "value": 68}, "group": "control_change"}, {"time": 172198, "annotation": {"number": 10, "value": 76}, "group": "control_change"}, {"time": 172299, "annotation": {"number": 10, "value": 78}, "group": "control_change"}, {"time": 172312, "annotation": {"number": 10, "value": 70}, "group": "control_change"}, {"time": 172327, "annotation": {"number": 10, "value": 62}, "group": "control_change"}, {"time": 172343, "annotation": {"number": 10, "value": 50}, "group": "control_change"}, {"time": 172359, "annotation": {"number": 10, "value": 35}, "group": "control_change"}, {"time": 172371, "annotation": {"number": 10, "value": 18}, "group": "control_change"}, {"time": 172386, "annotation": {"number": 10, "value": 2}, "group": "control_change"}, {"time": 172506, "annotation": {"number": 10, "value": 3}, "group": "control_change"}, {"time": 172519, "annotation": {"number": 10, "value": 13}, "group": "control_change"}, {"time": 172535, "annotation": {"number": 10, "value": 23}, "group": "control_change"}, {"time": 172551, "annotation": {"number": 10, "value": 35}, "group": "control_change"}, {"time": 172563, "annotation": {"number": 10, "value": 46}, "group": "control_change"}, {"time": 172579, "annotation": {"number": 10, "value": 59}, "group": "control_change"}, {"time": 172595, "annotation": {"number": 10, "value": 69}, "group": "control_change"}, {"time": 172610, "annotation": {"number": 10, "value": 77}, "group": "control_change"}, {"time": 172623, "annotation": {"number": 10, "value": 85}, "group": "control_change"}, {"time": 172655, "annotation": {"number": 10, "value": 95}, "group": "control_change"}, {"time": 172728, "annotation": {"number": 10, "value": 94}, "group": "control_change"}, {"time": 172743, "annotation": {"number": 10, "value": 85}, "group": "control_change"}, {"time": 172756, "annotation": {"number": 10, "value": 75}, "group": "control_change"}, {"time": 172772, "annotation": {"number": 10, "value": 61}, "group": "control_change"}, {"time": 172800, "annotation": {"number": 10, "value": 41}, "group": "control_change"}, {"time": 172807, "annotation": {"number": 10, "value": 15}, "group": "control_change"}, {"time": 172816, "annotation": {"number": 10, "value": 0}, "group": "control_change"}, {"time": 172955, "annotation": {"number": 10, "value": 6}, "group": "control_change"}, {"time": 172965, "annotation": {"number": 10, "value": 16}, "group": "control_change"}, {"time": 172980, "annotation": {"number": 10, "value": 29}, "group": "control_change"}, {"time": 172996, "annotation": {"number": 10, "value": 42}, "group": "control_change"}, {"time": 173009, "annotation": {"number": 10, "value": 54}, "group": "control_change"}, {"time": 173024, "annotation": {"number": 10, "value": 67}, "group": "control_change"}, {"time": 173040, "annotation": {"number": 10, "value": 78}, "group": "control_change"}, {"time": 173056, "annotation": {"number": 10, "value": 88}, "group": "control_change"}, {"time": 173069, "annotation": {"number": 10, "value": 96}, "group": "control_change"}, {"time": 173085, "annotation": {"number": 10, "value": 103}, "group": "control_change"}, {"time": 173173, "annotation": {"number": 10, "value": 106}, "group": "control_change"}, {"time": 173205, "annotation": {"number": 10, "value": 94}, "group": "control_change"}, {"time": 173233, "annotation": {"number": 10, "value": 78}, "group": "control_change"}, {"time": 173249, "annotation": {"number": 10, "value": 66}, "group": "control_change"}, {"time": 173265, "annotation": {"number": 10, "value": 52}, "group": "control_change"}, {"time": 173277, "annotation": {"number": 10, "value": 40}, "group": "control_change"}, {"time": 173293, "annotation": {"number": 10, "value": 29}, "group": "control_change"}, {"time": 173309, "annotation": {"number": 10, "value": 21}, "group": "control_change"}, {"time": 173382, "annotation": {"number": 10, "value": 17}, "group": "control_change"}, {"time": 173413, "annotation": {"number": 10, "value": 34}, "group": "control_change"}, {"time": 173426, "annotation": {"number": 10, "value": 46}, "group": "control_change"}, {"time": 173442, "annotation": {"number": 10, "value": 60}, "group": "control_change"}, {"time": 173461, "annotation": {"number": 10, "value": 71}, "group": "control_change"}, {"time": 173473, "annotation": {"number": 10, "value": 85}, "group": "control_change"}, {"time": 173486, "annotation": {"number": 10, "value": 95}, "group": "control_change"}, {"time": 173502, "annotation": {"number": 10, "value": 105}, "group": "control_change"}, {"time": 173518, "annotation": {"number": 10, "value": 114}, "group": "control_change"}, {"time": 173530, "annotation": {"number": 10, "value": 121}, "group": "control_change"}, {"time": 173666, "annotation": {"number": 10, "value": 126}, "group": "control_change"}, {"time": 173695, "annotation": {"number": 10, "value": 116}, "group": "control_change"}, {"time": 173710, "annotation": {"number": 10, "value": 107}, "group": "control_change"}, {"time": 173723, "annotation": {"number": 10, "value": 93}, "group": "control_change"}, {"time": 173739, "annotation": {"number": 10, "value": 75}, "group": "control_change"}, {"time": 173754, "annotation": {"number": 10, "value": 53}, "group": "control_change"}, {"time": 173773, "annotation": {"number": 10, "value": 30}, "group": "control_change"}, {"time": 173783, "annotation": {"number": 10, "value": 19}, "group": "control_change"}, {"time": 173799, "annotation": {"number": 10, "value": 12}, "group": "control_change"}, {"time": 173815, "annotation": {"number": 10, "value": 5}, "group": "control_change"}, {"time": 173991, "annotation": {"number": 10, "value": 1}, "group": "control_change"}, {"time": 174066, "annotation": {"number": 10, "value": 0}, "group": "control_change"}, {"time": 174230, "annotation": {"number": 10, "value": 8}, "group": "control_change"}, {"time": 174243, "annotation": {"number": 10, "value": 22}, "group": "control_change"}, {"time": 174259, "annotation": {"number": 10, "value": 39}, "group": "control_change"}, {"time": 174275, "annotation": {"number": 10, "value": 61}, "group": "control_change"}, {"time": 174287, "annotation": {"number": 10, "value": 80}, "group": "control_change"}, {"time": 174303, "annotation": {"number": 10, "value": 103}, "group": "control_change"}, {"time": 174323, "annotation": {"number": 10, "value": 127}, "group": "control_change"}, {"time": 174483, "annotation": {"number": 10, "value": 120}, "group": "control_change"}, {"time": 174496, "annotation": {"number": 10, "value": 112}, "group": "control_change"}, {"time": 174512, "annotation": {"number": 10, "value": 100}, "group": "control_change"}, {"time": 174528, "annotation": {"number": 10, "value": 82}, "group": "control_change"}, {"time": 174540, "annotation": {"number": 10, "value": 57}, "group": "control_change"}, {"time": 174556, "annotation": {"number": 10, "value": 27}, "group": "control_change"}, {"time": 174572, "annotation": {"number": 10, "value": 9}, "group": "control_change"}, {"time": 174588, "annotation": {"number": 10, "value": 0}, "group": "control_change"}, {"time": 174660, "annotation": {"number": 10, "value": 1}, "group": "control_change"}, {"time": 174676, "annotation": {"number": 10, "value": 11}, "group": "control_change"}, {"time": 174689, "annotation": {"number": 10, "value": 27}, "group": "control_change"}, {"time": 174704, "annotation": {"number": 10, "value": 46}, "group": "control_change"}, {"time": 174721, "annotation": {"number": 10, "value": 62}, "group": "control_change"}, {"time": 174736, "annotation": {"number": 10, "value": 87}, "group": "control_change"}, {"time": 174749, "annotation": {"number": 10, "value": 110}, "group": "control_change"}, {"time": 174765, "annotation": {"number": 10, "value": 117}, "group": "control_change"}, {"time": 174793, "annotation": {"number": 10, "value": 127}, "group": "control_change"}, {"time": 174869, "annotation": {"number": 10, "value": 126}, "group": "control_change"}, {"time": 174897, "annotation": {"number": 10, "value": 114}, "group": "control_change"}, {"time": 174913, "annotation": {"number": 10, "value": 106}, "group": "control_change"}, {"time": 174929, "annotation": {"number": 10, "value": 94}, "group": "control_change"}, {"time": 174942, "annotation": {"number": 10, "value": 78}, "group": "control_change"}, {"time": 174958, "annotation": {"number": 10, "value": 62}, "group": "control_change"}, {"time": 174973, "annotation": {"number": 10, "value": 51}, "group": "control_change"}, {"time": 174986, "annotation": {"number": 10, "value": 41}, "group": "control_change"}, {"time": 175017, "annotation": {"number": 10, "value": 30}, "group": "control_change"}, {"time": 175090, "annotation": {"number": 10, "value": 42}, "group": "control_change"}, {"time": 175106, "annotation": {"number": 10, "value": 55}, "group": "control_change"}, {"time": 175122, "annotation": {"number": 10, "value": 70}, "group": "control_change"}, {"time": 175137, "annotation": {"number": 10, "value": 88}, "group": "control_change"}, {"time": 175150, "annotation": {"number": 10, "value": 110}, "group": "control_change"}, {"time": 175166, "annotation": {"number": 10, "value": 127}, "group": "control_change"}, {"time": 175248, "annotation": {"number": 1, "value": 65}, "group": "control_change"}, {"time": 175255, "annotation": {"number": 1, "value": 67}, "group": "control_change"}, {"time": 175263, "annotation": {"number": 1, "value": 70}, "group": "control_change"}, {"time": 175270, "annotation": {"number": 1, "value": 72}, "group": "control_change"}, {"time": 175278, "annotation": {"number": 1, "value": 74}, "group": "control_change"}, {"time": 175285, "annotation": {"number": 1, "value": 77}, "group": "control_change"}, {"time": 175293, "annotation": {"number": 1, "value": 79}, "group": "control_change"}, {"time": 175300, "annotation": {"number": 1, "value": 81}, "group": "control_change"}, {"time": 175307, "annotation": {"number": 1, "value": 83}, "group": "control_change"}, {"time": 175316, "annotation": {"number": 1, "value": 85}, "group": "control_change"}, {"time": 175318, "annotation": {"number": 10, "value": 122}, "group": "control_change"}, {"time": 175324, "annotation": {"number": 1, "value": 87}, "group": "control_change"}, {"time": 175330, "annotation": {"number": 10, "value": 115}, "group": "control_change"}, {"time": 175331, "annotation": {"number": 1, "value": 89}, "group": "control_change"}, {"time": 175339, "annotation": {"number": 1, "value": 91}, "group": "control_change"}, {"time": 175343, "annotation": {"number": 10, "value": 104}, "group": "control_change"}, {"time": 175347, "annotation": {"number": 1, "value": 93}, "group": "control_change"}, {"time": 175355, "annotation": {"number": 1, "value": 94}, "group": "control_change"}, {"time": 175359, "annotation": {"number": 10, "value": 92}, "group": "control_change"}, {"time": 175362, "annotation": {"number": 1, "value": 95}, "group": "control_change"}, {"time": 175368, "annotation": {"number": 1, "value": 96}, "group": "control_change"}, {"time": 175374, "annotation": {"number": 10, "value": 74}, "group": "control_change"}, {"time": 175376, "annotation": {"number": 1, "value": 98}, "group": "control_change"}, {"time": 175384, "annotation": {"number": 1, "value": 99}, "group": "control_change"}, {"time": 175389, "annotation": {"number": 10, "value": 54}, "group": "control_change"}, {"time": 175391, "annotation": {"number": 1, "value": 100}, "group": "control_change"}, {"time": 175398, "annotation": {"number": 1, "value": 101}, "group": "control_change"}, {"time": 175402, "annotation": {"number": 10, "value": 36}, "group": "control_change"}, {"time": 175406, "annotation": {"number": 1, "value": 102}, "group": "control_change"}, {"time": 175414, "annotation": {"number": 1, "value": 103}, "group": "control_change"}, {"time": 175418, "annotation": {"number": 10, "value": 26}, "group": "control_change"}, {"time": 175421, "annotation": {"number": 1, "value": 104}, "group": "control_change"}, {"time": 175433, "annotation": {"number": 10, "value": 17}, "group": "control_change"}, {"time": 175437, "annotation": {"number": 1, "value": 105}, "group": "control_change"}, {"time": 175444, "annotation": {"number": 1, "value": 106}, "group": "control_change"}, {"time": 175459, "annotation": {"number": 1, "value": 107}, "group": "control_change"}, {"time": 175462, "annotation": {"number": 10, "value": 7}, "group": "control_change"}, {"time": 175467, "annotation": {"number": 1, "value": 108}, "group": "control_change"}, {"time": 175482, "annotation": {"number": 1, "value": 109}, "group": "control_change"}, {"time": 175490, "annotation": {"number": 1, "value": 110}, "group": "control_change"}, {"time": 175505, "annotation": {"number": 1, "value": 111}, "group": "control_change"}, {"time": 175512, "annotation": {"number": 1, "value": 112}, "group": "control_change"}, {"time": 175520, "annotation": {"number": 1, "value": 113}, "group": "control_change"}, {"time": 175535, "annotation": {"number": 10, "value": 14}, "group": "control_change"}, {"time": 175543, "annotation": {"number": 1, "value": 114}, "group": "control_change"}, {"time": 175550, "annotation": {"number": 1, "value": 115}, "group": "control_change"}, {"time": 175551, "annotation": {"number": 10, "value": 25}, "group": "control_change"}, {"time": 175558, "annotation": {"number": 1, "value": 116}, "group": "control_change"}, {"time": 175566, "annotation": {"number": 10, "value": 38}, "group": "control_change"}, {"time": 175573, "annotation": {"number": 1, "value": 117}, "group": "control_change"}, {"time": 175580, "annotation": {"number": 1, "value": 118}, "group": "control_change"}, {"time": 175582, "annotation": {"number": 10, "value": 51}, "group": "control_change"}, {"time": 175588, "annotation": {"number": 1, "value": 119}, "group": "control_change"}, {"time": 175595, "annotation": {"number": 10, "value": 65}, "group": "control_change"}, {"time": 175610, "annotation": {"number": 1, "value": 121}, "group": "control_change"}, {"time": 175610, "annotation": {"number": 10, "value": 78}, "group": "control_change"}, {"time": 175625, "annotation": {"number": 1, "value": 122}, "group": "control_change"}, {"time": 175626, "annotation": {"number": 10, "value": 90}, "group": "control_change"}, {"time": 175633, "annotation": {"number": 1, "value": 123}, "group": "control_change"}, {"time": 175641, "annotation": {"number": 1, "value": 124}, "group": "control_change"}, {"time": 175642, "annotation": {"number": 10, "value": 100}, "group": "control_change"}, {"time": 175648, "annotation": {"number": 1, "value": 125}, "group": "control_change"}, {"time": 175655, "annotation": {"number": 10, "value": 108}, "group": "control_change"}, {"time": 175656, "annotation": {"number": 1, "value": 126}, "group": "control_change"}, {"time": 175671, "annotation": {"number": 1, "value": 127}, "group": "control_change"}, {"time": 175687, "annotation": {"number": 10, "value": 118}, "group": "control_change"}, {"time": 175759, "annotation": {"number": 10, "value": 117}, "group": "control_change"}, {"time": 175791, "annotation": {"number": 10, "value": 99}, "group": "control_change"}, {"time": 175803, "annotation": {"number": 10, "value": 84}, "group": "control_change"}, {"time": 175819, "annotation": {"number": 10, "value": 64}, "group": "control_change"}, {"time": 175835, "annotation": {"number": 10, "value": 41}, "group": "control_change"}, {"time": 175851, "annotation": {"number": 10, "value": 18}, "group": "control_change"}, {"time": 175864, "annotation": {"number": 10, "value": 1}, "group": "control_change"}, {"time": 175879, "annotation": {"number": 10, "value": 0}, "group": "control_change"}, {"time": 176047, "annotation": {"number": 10, "value": 6}, "group": "control_change"}, {"time": 176063, "annotation": {"number": 10, "value": 17}, "group": "control_change"}, {"time": 176072, "annotation": {"number": 10, "value": 29}, "group": "control_change"}, {"time": 176088, "annotation": {"number": 10, "value": 41}, "group": "control_change"}, {"time": 176104, "annotation": {"number": 10, "value": 55}, "group": "control_change"}, {"time": 176116, "annotation": {"number": 10, "value": 66}, "group": "control_change"}, {"time": 176132, "annotation": {"number": 10, "value": 75}, "group": "control_change"}, {"time": 176148, "annotation": {"number": 10, "value": 83}, "group": "control_change"}, {"time": 176236, "annotation": {"number": 10, "value": 84}, "group": "control_change"}, {"time": 176265, "annotation": {"number": 10, "value": 68}, "group": "control_change"}, {"time": 176280, "annotation": {"number": 10, "value": 58}, "group": "control_change"}, {"time": 176296, "annotation": {"number": 10, "value": 46}, "group": "control_change"}, {"time": 176309, "annotation": {"number": 10, "value": 32}, "group": "control_change"}, {"time": 176325, "annotation": {"number": 10, "value": 17}, "group": "control_change"}, {"time": 176341, "annotation": {"number": 10, "value": 0}, "group": "control_change"}, {"time": 176502, "annotation": {"number": 10, "value": 2}, "group": "control_change"}, {"time": 176533, "annotation": {"number": 10, "value": 11}, "group": "control_change"}, {"time": 176549, "annotation": {"number": 10, "value": 18}, "group": "control_change"}, {"time": 176562, "annotation": {"number": 10, "value": 27}, "group": "control_change"}, {"time": 176577, "annotation": {"number": 10, "value": 43}, "group": "control_change"}, {"time": 176594, "annotation": {"number": 10, "value": 60}, "group": "control_change"}, {"time": 176609, "annotation": {"number": 10, "value": 82}, "group": "control_change"}, {"time": 176622, "annotation": {"number": 10, "value": 102}, "group": "control_change"}, {"time": 176638, "annotation": {"number": 10, "value": 116}, "group": "control_change"}, {"time": 176653, "annotation": {"number": 10, "value": 124}, "group": "control_change"}, {"time": 176802, "annotation": {"number": 10, "value": 126}, "group": "control_change"}, {"time": 176816, "annotation": {"number": 1, "value": 126}, "group": "control_change"}, {"time": 176830, "annotation": {"number": 10, "value": 117}, "group": "control_change"}, {"time": 176846, "annotation": {"number": 10, "value": 110}, "group": "control_change"}, {"time": 176846, "annotation": {"number": 1, "value": 125}, "group": "control_change"}, {"time": 176861, "annotation": {"number": 10, "value": 100}, "group": "control_change"}, {"time": 176873, "annotation": {"number": 10, "value": 89}, "group": "control_change"}, {"time": 176882, "annotation": {"number": 1, "value": 124}, "group": "control_change"}, {"time": 176889, "annotation": {"number": 10, "value": 75}, "group": "control_change"}, {"time": 176905, "annotation": {"number": 10, "value": 63}, "group": "control_change"}, {"time": 176927, "annotation": {"number": 10, "value": 50}, "group": "control_change"}, {"time": 176928, "annotation": {"number": 1, "value": 123}, "group": "control_change"}, {"time": 176934, "annotation": {"number": 10, "value": 42}, "group": "control_change"}, {"time": 176949, "annotation": {"number": 10, "value": 35}, "group": "control_change"}, {"time": 176980, "annotation": {"number": 1, "value": 122}, "group": "control_change"}, {"time": 177002, "annotation": {"number": 1, "value": 121}, "group": "control_change"}, {"time": 177031, "annotation": {"number": 1, "value": 120}, "group": "control_change"}, {"time": 177069, "annotation": {"number": 1, "value": 119}, "group": "control_change"}, {"time": 177099, "annotation": {"number": 1, "value": 118}, "group": "control_change"}, {"time": 177106, "annotation": {"number": 1, "value": 117}, "group": "control_change"}, {"time": 177136, "annotation": {"number": 1, "value": 116}, "group": "control_change"}, {"time": 177142, "annotation": {"number": 10, "value": 31}, "group": "control_change"}, {"time": 177165, "annotation": {"number": 1, "value": 115}, "group": "control_change"}, {"time": 177187, "annotation": {"number": 10, "value": 20}, "group": "control_change"}, {"time": 177202, "annotation": {"number": 10, "value": 13}, "group": "control_change"}, {"time": 177203, "annotation": {"number": 1, "value": 114}, "group": "control_change"}, {"time": 177210, "annotation": {"number": 1, "value": 113}, "group": "control_change"}, {"time": 177226, "annotation": {"number": 1, "value": 112}, "group": "control_change"}, {"time": 177230, "annotation": {"number": 10, "value": 4}, "group": "control_change"}, {"time": 177249, "annotation": {"number": 1, "value": 111}, "group": "control_change"}, {"time": 177256, "annotation": {"number": 1, "value": 110}, "group": "control_change"}, {"time": 177278, "annotation": {"number": 1, "value": 108}, "group": "control_change"}, {"time": 177301, "annotation": {"number": 1, "value": 107}, "group": "control_change"}, {"time": 177308, "annotation": {"number": 1, "value": 106}, "group": "control_change"}, {"time": 177315, "annotation": {"number": 1, "value": 105}, "group": "control_change"}, {"time": 177330, "annotation": {"number": 1, "value": 104}, "group": "control_change"}, {"time": 177338, "annotation": {"number": 1, "value": 103}, "group": "control_change"}, {"time": 177353, "annotation": {"number": 1, "value": 102}, "group": "control_change"}, {"time": 177354, "annotation": {"number": 10, "value": 7}, "group": "control_change"}, {"time": 177361, "annotation": {"number": 1, "value": 101}, "group": "control_change"}, {"time": 177369, "annotation": {"number": 1, "value": 100}, "group": "control_change"}, {"time": 177370, "annotation": {"number": 10, "value": 16}, "group": "control_change"}, {"time": 177379, "annotation": {"number": 10, "value": 27}, "group": "control_change"}, {"time": 177392, "annotation": {"number": 1, "value": 99}, "group": "control_change"}, {"time": 177395, "annotation": {"number": 10, "value": 42}, "group": "control_change"}, {"time": 177400, "annotation": {"number": 1, "value": 98}, "group": "control_change"}, {"time": 177411, "annotation": {"number": 10, "value": 58}, "group": "control_change"}, {"time": 177422, "annotation": {"number": 1, "value": 97}, "group": "control_change"}, {"time": 177426, "annotation": {"number": 10, "value": 82}, "group": "control_change"}, {"time": 177439, "annotation": {"number": 10, "value": 99}, "group": "control_change"}, {"time": 177455, "annotation": {"number": 10, "value": 111}, "group": "control_change"}, {"time": 177467, "annotation": {"number": 1, "value": 96}, "group": "control_change"}, {"time": 177468, "annotation": {"number": 10, "value": 120}, "group": "control_change"}, {"time": 177489, "annotation": {"number": 1, "value": 95}, "group": "control_change"}, {"time": 177499, "annotation": {"number": 10, "value": 127}, "group": "control_change"}, {"time": 177526, "annotation": {"number": 1, "value": 94}, "group": "control_change"}, {"time": 177564, "annotation": {"number": 1, "value": 93}, "group": "control_change"}, {"time": 177648, "annotation": {"number": 10, "value": 122}, "group": "control_change"}, {"time": 177663, "annotation": {"number": 10, "value": 115}, "group": "control_change"}, {"time": 177676, "annotation": {"number": 10, "value": 107}, "group": "control_change"}, {"time": 177682, "annotation": {"number": 1, "value": 92}, "group": "control_change"}, {"time": 177692, "annotation": {"number": 10, "value": 97}, "group": "control_change"}, {"time": 177708, "annotation": {"number": 10, "value": 87}, "group": "control_change"}, {"time": 177720, "annotation": {"number": 10, "value": 79}, "group": "control_change"}, {"time": 177736, "annotation": {"number": 10, "value": 69}, "group": "control_change"}, {"time": 177749, "annotation": {"number": 1, "value": 91}, "group": "control_change"}, {"time": 177752, "annotation": {"number": 10, "value": 61}, "group": "control_change"}, {"time": 177768, "annotation": {"number": 10, "value": 53}, "group": "control_change"}, {"time": 177796, "annotation": {"number": 10, "value": 41}, "group": "control_change"}, {"time": 177815, "annotation": {"number": 1, "value": 90}, "group": "control_change"}, {"time": 177929, "annotation": {"number": 10, "value": 38}, "group": "control_change"}, {"time": 177973, "annotation": {"number": 10, "value": 45}, "group": "control_change"}, {"time": 177979, "annotation": {"number": 1, "value": 88}, "group": "control_change"}, {"time": 178005, "annotation": {"number": 10, "value": 56}, "group": "control_change"}, {"time": 178010, "annotation": {"number": 1, "value": 87}, "group": "control_change"}, {"time": 178021, "annotation": {"number": 10, "value": 63}, "group": "control_change"}, {"time": 178033, "annotation": {"number": 10, "value": 70}, "group": "control_change"}, {"time": 178039, "annotation": {"number": 1, "value": 86}, "group": "control_change"}, {"time": 178049, "annotation": {"number": 10, "value": 77}, "group": "control_change"}, {"time": 178061, "annotation": {"number": 1, "value": 85}, "group": "control_change"}, {"time": 178065, "annotation": {"number": 10, "value": 84}, "group": "control_change"}, {"time": 178069, "annotation": {"number": 1, "value": 84}, "group": "control_change"}, {"time": 178084, "annotation": {"number": 1, "value": 83}, "group": "control_change"}, {"time": 178093, "annotation": {"number": 10, "value": 92}, "group": "control_change"}, {"time": 178115, "annotation": {"number": 1, "value": 82}, "group": "control_change"}, {"time": 178124, "annotation": {"number": 1, "value": 81}, "group": "control_change"}, {"time": 178133, "annotation": {"number": 1, "value": 80}, "group": "control_change"}, {"time": 178142, "annotation": {"number": 10, "value": 99}, "group": "control_change"}, {"time": 178155, "annotation": {"number": 1, "value": 79}, "group": "control_change"}, {"time": 178185, "annotation": {"number": 1, "value": 77}, "group": "control_change"}, {"time": 178193, "annotation": {"number": 1, "value": 76}, "group": "control_change"}, {"time": 178215, "annotation": {"number": 1, "value": 75}, "group": "control_change"}, {"time": 178238, "annotation": {"number": 1, "value": 74}, "group": "control_change"}, {"time": 178246, "annotation": {"number": 1, "value": 73}, "group": "control_change"}, {"time": 178261, "annotation": {"number": 1, "value": 72}, "group": "control_change"}, {"time": 178283, "annotation": {"number": 1, "value": 71}, "group": "control_change"}, {"time": 178308, "annotation": {"number": 10, "value": 99}, "group": "control_change"}, {"time": 178322, "annotation": {"number": 1, "value": 70}, "group": "control_change"}, {"time": 178340, "annotation": {"number": 10, "value": 88}, "group": "control_change"}, {"time": 178353, "annotation": {"number": 10, "value": 81}, "group": "control_change"}, {"time": 178369, "annotation": {"number": 10, "value": 72}, "group": "control_change"}, {"time": 178382, "annotation": {"number": 10, "value": 62}, "group": "control_change"}, {"time": 178383, "annotation": {"number": 1, "value": 69}, "group": "control_change"}, {"time": 178401, "annotation": {"number": 10, "value": 50}, "group": "control_change"}, {"time": 178414, "annotation": {"number": 10, "value": 37}, "group": "control_change"}, {"time": 178431, "annotation": {"number": 10, "value": 24}, "group": "control_change"}, {"time": 178443, "annotation": {"number": 10, "value": 12}, "group": "control_change"}, {"time": 178459, "annotation": {"number": 10, "value": 0}, "group": "control_change"}, {"time": 178470, "annotation": {"number": 1, "value": 68}, "group": "control_change"}, {"time": 178775, "annotation": {"number": 10, "value": 2}, "group": "control_change"}, {"time": 178892, "annotation": {"number": 1, "value": 67}, "group": "control_change"}, {"time": 178899, "annotation": {"number": 1, "value": 66}, "group": "control_change"}, {"time": 178922, "annotation": {"number": 1, "value": 65}, "group": "control_change"}, {"time": 178940, "annotation": {"number": 10, "value": 8}, "group": "control_change"}, {"time": 178944, "annotation": {"number": 1, "value": 64}, "group": "control_change"}, {"time": 178968, "annotation": {"number": 10, "value": 16}, "group": "control_change"}, {"time": 178984, "annotation": {"number": 10, "value": 24}, "group": "control_change"}, {"time": 178997, "annotation": {"number": 10, "value": 32}, "group": "control_change"}, {"time": 179012, "annotation": {"number": 10, "value": 42}, "group": "control_change"}, {"time": 179028, "annotation": {"number": 10, "value": 51}, "group": "control_change"}, {"time": 179047, "annotation": {"number": 10, "value": 65}, "group": "control_change"}, {"time": 179060, "annotation": {"number": 10, "value": 78}, "group": "control_change"}, {"time": 179072, "annotation": {"number": 10, "value": 90}, "group": "control_change"}, {"time": 179088, "annotation": {"number": 10, "value": 103}, "group": "control_change"}, {"time": 179101, "annotation": {"number": 10, "value": 116}, "group": "control_change"}, {"time": 179117, "annotation": {"number": 10, "value": 127}, "group": "control_change"}, {"time": 179353, "annotation": {"number": 10, "value": 126}, "group": "control_change"}, {"time": 179377, "annotation": {"number": 1, "value": 65}, "group": "control_change"}, {"time": 179386, "annotation": {"number": 1, "value": 66}, "group": "control_change"}, {"time": 179393, "annotation": {"number": 1, "value": 67}, "group": "control_change"}, {"time": 179401, "annotation": {"number": 1, "value": 68}, "group": "control_change"}, {"time": 179408, "annotation": {"number": 1, "value": 69}, "group": "control_change"}, {"time": 179416, "annotation": {"number": 1, "value": 70}, "group": "control_change"}, {"time": 179423, "annotation": {"number": 1, "value": 71}, "group": "control_change"}, {"time": 179431, "annotation": {"number": 1, "value": 72}, "group": "control_change"}, {"time": 179439, "annotation": {"number": 1, "value": 73}, "group": "control_change"}, {"time": 179447, "annotation": {"number": 1, "value": 74}, "group": "control_change"}, {"time": 179454, "annotation": {"number": 1, "value": 75}, "group": "control_change"}, {"time": 179462, "annotation": {"number": 1, "value": 76}, "group": "control_change"}, {"time": 179469, "annotation": {"number": 1, "value": 78}, "group": "control_change"}, {"time": 179473, "annotation": {"number": 10, "value": 122}, "group": "control_change"}, {"time": 179478, "annotation": {"number": 1, "value": 79}, "group": "control_change"}, {"time": 179485, "annotation": {"number": 1, "value": 80}, "group": "control_change"}, {"time": 179488, "annotation": {"number": 10, "value": 113}, "group": "control_change"}, {"time": 179492, "annotation": {"number": 1, "value": 81}, "group": "control_change"}, {"time": 179500, "annotation": {"number": 1, "value": 83}, "group": "control_change"}, {"time": 179508, "annotation": {"number": 1, "value": 84}, "group": "control_change"}, {"time": 179514, "annotation": {"number": 10, "value": 100}, "group": "control_change"}, {"time": 179515, "annotation": {"number": 1, "value": 85}, "group": "control_change"}, {"time": 179520, "annotation": {"number": 10, "value": 85}, "group": "control_change"}, {"time": 179523, "annotation": {"number": 1, "value": 86}, "group": "control_change"}, {"time": 179530, "annotation": {"number": 1, "value": 88}, "group": "control_change"}, {"time": 179532, "annotation": {"number": 10, "value": 71}, "group": "control_change"}, {"time": 179538, "annotation": {"number": 1, "value": 89}, "group": "control_change"}, {"time": 179545, "annotation": {"number": 1, "value": 91}, "group": "control_change"}, {"time": 179549, "annotation": {"number": 10, "value": 58}, "group": "control_change"}, {"time": 179553, "annotation": {"number": 1, "value": 92}, "group": "control_change"}, {"time": 179560, "annotation": {"number": 1, "value": 93}, "group": "control_change"}, {"time": 179561, "annotation": {"number": 10, "value": 48}, "group": "control_change"}, {"time": 179568, "annotation": {"number": 1, "value": 95}, "group": "control_change"}, {"time": 179575, "annotation": {"number": 1, "value": 96}, "group": "control_change"}, {"time": 179580, "annotation": {"number": 10, "value": 41}, "group": "control_change"}, {"time": 179584, "annotation": {"number": 1, "value": 97}, "group": "control_change"}, {"time": 179592, "annotation": {"number": 1, "value": 98}, "group": "control_change"}, {"time": 179600, "annotation": {"number": 1, "value": 100}, "group": "control_change"}, {"time": 179607, "annotation": {"number": 1, "value": 101}, "group": "control_change"}, {"time": 179608, "annotation": {"number": 10, "value": 33}, "group": "control_change"}, {"time": 179615, "annotation": {"number": 1, "value": 102}, "group": "control_change"}, {"time": 179623, "annotation": {"number": 1, "value": 103}, "group": "control_change"}, {"time": 179630, "annotation": {"number": 1, "value": 104}, "group": "control_change"}, {"time": 179638, "annotation": {"number": 1, "value": 106}, "group": "control_change"}, {"time": 179645, "annotation": {"number": 1, "value": 107}, "group": "control_change"}, {"time": 179653, "annotation": {"number": 1, "value": 108}, "group": "control_change"}, {"time": 179661, "annotation": {"number": 1, "value": 109}, "group": "control_change"}, {"time": 179668, "annotation": {"number": 1, "value": 110}, "group": "control_change"}, {"time": 179676, "annotation": {"number": 1, "value": 111}, "group": "control_change"}, {"time": 179684, "annotation": {"number": 1, "value": 112}, "group": "control_change"}, {"time": 179697, "annotation": {"number": 10, "value": 27}, "group": "control_change"}, {"time": 179699, "annotation": {"number": 1, "value": 113}, "group": "control_change"}, {"time": 179707, "annotation": {"number": 1, "value": 114}, "group": "control_change"}, {"time": 179714, "annotation": {"number": 1, "value": 115}, "group": "control_change"}, {"time": 179736, "annotation": {"number": 1, "value": 117}, "group": "control_change"}, {"time": 179757, "annotation": {"number": 10, "value": 19}, "group": "control_change"}, {"time": 179759, "annotation": {"number": 1, "value": 118}, "group": "control_change"}, {"time": 179766, "annotation": {"number": 1, "value": 119}, "group": "control_change"}, {"time": 179782, "annotation": {"number": 1, "value": 120}, "group": "control_change"}, {"time": 179812, "annotation": {"number": 1, "value": 121}, "group": "control_change"}, {"time": 179814, "annotation": {"number": 10, "value": 12}, "group": "control_change"}, {"time": 179842, "annotation": {"number": 1, "value": 122}, "group": "control_change"}, {"time": 179906, "annotation": {"number": 10, "value": 10}, "group": "control_change"}, {"time": 179962, "annotation": {"number": 10, "value": 20}, "group": "control_change"}, {"time": 179978, "annotation": {"number": 10, "value": 28}, "group": "control_change"}, {"time": 179994, "annotation": {"number": 10, "value": 38}, "group": "control_change"}, {"time": 180010, "annotation": {"number": 10, "value": 49}, "group": "control_change"}, {"time": 180026, "annotation": {"number": 10, "value": 57}, "group": "control_change"}, {"time": 180038, "annotation": {"number": 10, "value": 69}, "group": "control_change"}, {"time": 180054, "annotation": {"number": 10, "value": 79}, "group": "control_change"}, {"time": 180067, "annotation": {"number": 10, "value": 89}, "group": "control_change"}, {"time": 180085, "annotation": {"number": 10, "value": 100}, "group": "control_change"}, {"time": 180098, "annotation": {"number": 10, "value": 107}, "group": "control_change"}, {"time": 180127, "annotation": {"number": 10, "value": 116}, "group": "control_change"}, {"time": 180158, "annotation": {"number": 10, "value": 123}, "group": "control_change"}, {"time": 180187, "annotation": {"number": 10, "value": 127}, "group": "control_change"}, {"time": 180509, "annotation": {"number": 1, "value": 121}, "group": "control_change"}, {"time": 180512, "annotation": {"number": 10, "value": 125}, "group": "control_change"}, {"time": 180533, "annotation": {"number": 1, "value": 120}, "group": "control_change"}, {"time": 180544, "annotation": {"number": 10, "value": 112}, "group": "control_change"}, {"time": 180555, "annotation": {"number": 1, "value": 119}, "group": "control_change"}, {"time": 180560, "annotation": {"number": 10, "value": 102}, "group": "control_change"}, {"time": 180572, "annotation": {"number": 10, "value": 93}, "group": "control_change"}, {"time": 180578, "annotation": {"number": 1, "value": 117}, "group": "control_change"}, {"time": 180585, "annotation": {"number": 1, "value": 116}, "group": "control_change"}, {"time": 180593, "annotation": {"number": 1, "value": 115}, "group": "control_change"}, {"time": 180601, "annotation": {"number": 1, "value": 114}, "group": "control_change"}, {"time": 180604, "annotation": {"number": 10, "value": 79}, "group": "control_change"}, {"time": 180616, "annotation": {"number": 1, "value": 113}, "group": "control_change"}, {"time": 180616, "annotation": {"number": 10, "value": 68}, "group": "control_change"}, {"time": 180623, "annotation": {"number": 1, "value": 112}, "group": "control_change"}, {"time": 180631, "annotation": {"number": 1, "value": 111}, "group": "control_change"}, {"time": 180632, "annotation": {"number": 10, "value": 55}, "group": "control_change"}, {"time": 180639, "annotation": {"number": 1, "value": 110}, "group": "control_change"}, {"time": 180648, "annotation": {"number": 10, "value": 48}, "group": "control_change"}, {"time": 180654, "annotation": {"number": 1, "value": 109}, "group": "control_change"}, {"time": 180661, "annotation": {"number": 1, "value": 108}, "group": "control_change"}, {"time": 180664, "annotation": {"number": 10, "value": 39}, "group": "control_change"}, {"time": 180677, "annotation": {"number": 1, "value": 107}, "group": "control_change"}, {"time": 180677, "annotation": {"number": 10, "value": 30}, "group": "control_change"}, {"time": 180684, "annotation": {"number": 1, "value": 106}, "group": "control_change"}, {"time": 180693, "annotation": {"number": 10, "value": 22}, "group": "control_change"}, {"time": 180699, "annotation": {"number": 1, "value": 105}, "group": "control_change"}, {"time": 180706, "annotation": {"number": 1, "value": 104}, "group": "control_change"}, {"time": 180721, "annotation": {"number": 1, "value": 103}, "group": "control_change"}, {"time": 180744, "annotation": {"number": 1, "value": 102}, "group": "control_change"}, {"time": 180751, "annotation": {"number": 1, "value": 101}, "group": "control_change"}, {"time": 180765, "annotation": {"number": 10, "value": 16}, "group": "control_change"}, {"time": 180782, "annotation": {"number": 1, "value": 100}, "group": "control_change"}, {"time": 180840, "annotation": {"number": 10, "value": 12}, "group": "control_change"}, {"time": 180863, "annotation": {"number": 1, "value": 99}, "group": "control_change"}, {"time": 180884, "annotation": {"number": 10, "value": 4}, "group": "control_change"}, {"time": 180996, "annotation": {"number": 1, "value": 98}, "group": "control_change"}, {"time": 181033, "annotation": {"number": 1, "value": 97}, "group": "control_change"}, {"time": 181062, "annotation": {"number": 1, "value": 96}, "group": "control_change"}, {"time": 181077, "annotation": {"number": 10, "value": 2}, "group": "control_change"}, {"time": 181086, "annotation": {"number": 1, "value": 95}, "group": "control_change"}, {"time": 181116, "annotation": {"number": 1, "value": 94}, "group": "control_change"}, {"time": 181121, "annotation": {"number": 10, "value": 15}, "group": "control_change"}, {"time": 181124, "annotation": {"number": 1, "value": 93}, "group": "control_change"}, {"time": 181137, "annotation": {"number": 10, "value": 26}, "group": "control_change"}, {"time": 181146, "annotation": {"number": 1, "value": 92}, "group": "control_change"}, {"time": 181169, "annotation": {"number": 10, "value": 38}, "group": "control_change"}, {"time": 181175, "annotation": {"number": 1, "value": 91}, "group": "control_change"}, {"time": 181181, "annotation": {"number": 10, "value": 47}, "group": "control_change"}, {"time": 181183, "annotation": {"number": 1, "value": 90}, "group": "control_change"}, {"time": 181197, "annotation": {"number": 10, "value": 55}, "group": "control_change"}, {"time": 181205, "annotation": {"number": 1, "value": 89}, "group": "control_change"}, {"time": 181213, "annotation": {"number": 10, "value": 64}, "group": "control_change"}, {"time": 181213, "annotation": {"number": 1, "value": 88}, "group": "control_change"}, {"time": 181225, "annotation": {"number": 10, "value": 72}, "group": "control_change"}, {"time": 181236, "annotation": {"number": 1, "value": 87}, "group": "control_change"}, {"time": 181241, "annotation": {"number": 10, "value": 81}, "group": "control_change"}, {"time": 181263, "annotation": {"number": 10, "value": 88}, "group": "control_change"}, {"time": 181285, "annotation": {"number": 10, "value": 101}, "group": "control_change"}, {"time": 181301, "annotation": {"number": 10, "value": 108}, "group": "control_change"}, {"time": 181345, "annotation": {"number": 10, "value": 116}, "group": "control_change"}, {"time": 181390, "annotation": {"number": 10, "value": 125}, "group": "control_change"}, {"time": 181731, "annotation": {"number": 10, "value": 126}, "group": "control_change"}, {"time": 181762, "annotation": {"number": 1, "value": 88}, "group": "control_change"}, {"time": 181763, "annotation": {"number": 10, "value": 116}, "group": "control_change"}, {"time": 181791, "annotation": {"number": 10, "value": 101}, "group": "control_change"}, {"time": 181810, "annotation": {"number": 10, "value": 93}, "group": "control_change"}, {"time": 181822, "annotation": {"number": 10, "value": 86}, "group": "control_change"}, {"time": 181838, "annotation": {"number": 10, "value": 79}, "group": "control_change"}, {"time": 181843, "annotation": {"number": 1, "value": 90}, "group": "control_change"}, {"time": 181867, "annotation": {"number": 10, "value": 69}, "group": "control_change"}, {"time": 181895, "annotation": {"number": 10, "value": 61}, "group": "control_change"}, {"time": 181918, "annotation": {"number": 1, "value": 91}, "group": "control_change"}, {"time": 181940, "annotation": {"number": 10, "value": 54}, "group": "control_change"}, {"time": 181949, "annotation": {"number": 1, "value": 92}, "group": "control_change"}, {"time": 181971, "annotation": {"number": 1, "value": 93}, "group": "control_change"}, {"time": 181978, "annotation": {"number": 1, "value": 94}, "group": "control_change"}, {"time": 181994, "annotation": {"number": 1, "value": 95}, "group": "control_change"}, {"time": 182015, "annotation": {"number": 10, "value": 50}, "group": "control_change"}, {"time": 182015, "annotation": {"number": 1, "value": 96}, "group": "control_change"}, {"time": 182024, "annotation": {"number": 1, "value": 97}, "group": "control_change"}, {"time": 182039, "annotation": {"number": 1, "value": 98}, "group": "control_change"}, {"time": 182061, "annotation": {"number": 1, "value": 99}, "group": "control_change"}, {"time": 182069, "annotation": {"number": 1, "value": 100}, "group": "control_change"}, {"time": 182076, "annotation": {"number": 10, "value": 40}, "group": "control_change"}, {"time": 182091, "annotation": {"number": 1, "value": 101}, "group": "control_change"}, {"time": 182104, "annotation": {"number": 10, "value": 31}, "group": "control_change"}, {"time": 182121, "annotation": {"number": 1, "value": 103}, "group": "control_change"}, {"time": 182132, "annotation": {"number": 10, "value": 21}, "group": "control_change"}, {"time": 182143, "annotation": {"number": 1, "value": 104}, "group": "control_change"}, {"time": 182164, "annotation": {"number": 10, "value": 11}, "group": "control_change"}, {"time": 182166, "annotation": {"number": 1, "value": 105}, "group": "control_change"}, {"time": 182192, "annotation": {"number": 10, "value": 1}, "group": "control_change"}, {"time": 182196, "annotation": {"number": 1, "value": 106}, "group": "control_change"}, {"time": 182225, "annotation": {"number": 1, "value": 107}, "group": "control_change"}, {"time": 182248, "annotation": {"number": 1, "value": 108}, "group": "control_change"}, {"time": 182277, "annotation": {"number": 1, "value": 109}, "group": "control_change"}, {"time": 182285, "annotation": {"number": 1, "value": 110}, "group": "control_change"}, {"time": 182305, "annotation": {"number": 1, "value": 111}, "group": "control_change"}, {"time": 182336, "annotation": {"number": 1, "value": 112}, "group": "control_change"}, {"time": 182344, "annotation": {"number": 1, "value": 113}, "group": "control_change"}, {"time": 182359, "annotation": {"number": 1, "value": 114}, "group": "control_change"}, {"time": 182372, "annotation": {"number": 10, "value": 1}, "group": "control_change"}, {"time": 182388, "annotation": {"number": 1, "value": 115}, "group": "control_change"}, {"time": 182396, "annotation": {"number": 1, "value": 116}, "group": "control_change"}, {"time": 182406, "annotation": {"number": 10, "value": 12}, "group": "control_change"}, {"time": 182411, "annotation": {"number": 1, "value": 117}, "group": "control_change"}, {"time": 182416, "annotation": {"number": 10, "value": 21}, "group": "control_change"}, {"time": 182431, "annotation": {"number": 10, "value": 29}, "group": "control_change"}, {"time": 182436, "annotation": {"number": 1, "value": 118}, "group": "control_change"}, {"time": 182443, "annotation": {"number": 1, "value": 119}, "group": "control_change"}, {"time": 182444, "annotation": {"number": 10, "value": 37}, "group": "control_change"}, {"time": 182458, "annotation": {"number": 1, "value": 120}, "group": "control_change"}, {"time": 182460, "annotation": {"number": 10, "value": 46}, "group": "control_change"}, {"time": 182476, "annotation": {"number": 10, "value": 54}, "group": "control_change"}, {"time": 182488, "annotation": {"number": 1, "value": 121}, "group": "control_change"}, {"time": 182488, "annotation": {"number": 10, "value": 63}, "group": "control_change"}, {"time": 182517, "annotation": {"number": 1, "value": 122}, "group": "control_change"}, {"time": 182520, "annotation": {"number": 10, "value": 75}, "group": "control_change"}, {"time": 182532, "annotation": {"number": 10, "value": 82}, "group": "control_change"}, {"time": 182564, "annotation": {"number": 10, "value": 90}, "group": "control_change"}, {"time": 182613, "annotation": {"number": 1, "value": 123}, "group": "control_change"}, {"time": 182624, "annotation": {"number": 10, "value": 97}, "group": "control_change"}, {"time": 182713, "annotation": {"number": 10, "value": 105}, "group": "control_change"}, {"time": 182757, "annotation": {"number": 10, "value": 112}, "group": "control_change"}, {"time": 182802, "annotation": {"number": 10, "value": 120}, "group": "control_change"}, {"time": 182846, "annotation": {"number": 10, "value": 127}, "group": "control_change"}, {"time": 182850, "annotation": {"number": 1, "value": 122}, "group": "control_change"}, {"time": 182878, "annotation": {"number": 1, "value": 121}, "group": "control_change"}, {"time": 182910, "annotation": {"number": 1, "value": 119}, "group": "control_change"}, {"time": 182925, "annotation": {"number": 1, "value": 118}, "group": "control_change"}, {"time": 182933, "annotation": {"number": 1, "value": 117}, "group": "control_change"}, {"time": 182941, "annotation": {"number": 1, "value": 116}, "group": "control_change"}, {"time": 182948, "annotation": {"number": 1, "value": 115}, "group": "control_change"}, {"time": 182956, "annotation": {"number": 1, "value": 114}, "group": "control_change"}, {"time": 182964, "annotation": {"number": 1, "value": 113}, "group": "control_change"}, {"time": 182971, "annotation": {"number": 1, "value": 112}, "group": "control_change"}, {"time": 182979, "annotation": {"number": 1, "value": 111}, "group": "control_change"}, {"time": 182987, "annotation": {"number": 1, "value": 110}, "group": "control_change"}, {"time": 182994, "annotation": {"number": 1, "value": 108}, "group": "control_change"}, {"time": 182997, "annotation": {"number": 10, "value": 126}, "group": "control_change"}, {"time": 183002, "annotation": {"number": 1, "value": 107}, "group": "control_change"}, {"time": 183009, "annotation": {"number": 1, "value": 106}, "group": "control_change"}, {"time": 183017, "annotation": {"number": 1, "value": 105}, "group": "control_change"}, {"time": 183025, "annotation": {"number": 1, "value": 104}, "group": "control_change"}, {"time": 183026, "annotation": {"number": 10, "value": 116}, "group": "control_change"}, {"time": 183033, "annotation": {"number": 1, "value": 103}, "group": "control_change"}, {"time": 183040, "annotation": {"number": 1, "value": 102}, "group": "control_change"}, {"time": 183041, "annotation": {"number": 10, "value": 109}, "group": "control_change"}, {"time": 183048, "annotation": {"number": 1, "value": 101}, "group": "control_change"}, {"time": 183054, "annotation": {"number": 10, "value": 102}, "group": "control_change"}, {"time": 183055, "annotation": {"number": 1, "value": 100}, "group": "control_change"}, {"time": 183063, "annotation": {"number": 1, "value": 99}, "group": "control_change"}, {"time": 183078, "annotation": {"number": 1, "value": 98}, "group": "control_change"}, {"time": 183085, "annotation": {"number": 1, "value": 97}, "group": "control_change"}, {"time": 183085, "annotation": {"number": 10, "value": 89}, "group": "control_change"}, {"time": 183098, "annotation": {"number": 10, "value": 81}, "group": "control_change"}, {"time": 183101, "annotation": {"number": 1, "value": 96}, "group": "control_change"}, {"time": 183114, "annotation": {"number": 10, "value": 74}, "group": "control_change"}, {"time": 183123, "annotation": {"number": 1, "value": 95}, "group": "control_change"}, {"time": 183130, "annotation": {"number": 10, "value": 67}, "group": "control_change"}, {"time": 183146, "annotation": {"number": 10, "value": 58}, "group": "control_change"}, {"time": 183153, "annotation": {"number": 1, "value": 94}, "group": "control_change"}, {"time": 183158, "annotation": {"number": 10, "value": 50}, "group": "control_change"}, {"time": 183174, "annotation": {"number": 10, "value": 41}, "group": "control_change"}, {"time": 183190, "annotation": {"number": 1, "value": 93}, "group": "control_change"}, {"time": 183190, "annotation": {"number": 10, "value": 34}, "group": "control_change"}, {"time": 183227, "annotation": {"number": 1, "value": 92}, "group": "control_change"}, {"time": 183234, "annotation": {"number": 10, "value": 27}, "group": "control_change"}, {"time": 183257, "annotation": {"number": 1, "value": 91}, "group": "control_change"}, {"time": 183265, "annotation": {"number": 1, "value": 90}, "group": "control_change"}, {"time": 183287, "annotation": {"number": 1, "value": 89}, "group": "control_change"}, {"time": 183307, "annotation": {"number": 10, "value": 23}, "group": "control_change"}, {"time": 183317, "annotation": {"number": 1, "value": 88}, "group": "control_change"}, {"time": 183338, "annotation": {"number": 10, "value": 16}, "group": "control_change"}, {"time": 183346, "annotation": {"number": 1, "value": 87}, "group": "control_change"}, {"time": 183367, "annotation": {"number": 10, "value": 8}, "group": "control_change"}, {"time": 183384, "annotation": {"number": 1, "value": 86}, "group": "control_change"}, {"time": 183398, "annotation": {"number": 10, "value": 0}, "group": "control_change"}, {"time": 183423, "annotation": {"number": 1, "value": 85}, "group": "control_change"}, {"time": 183452, "annotation": {"number": 1, "value": 84}, "group": "control_change"}, {"time": 183489, "annotation": {"number": 1, "value": 83}, "group": "control_change"}, {"time": 183533, "annotation": {"number": 1, "value": 82}, "group": "control_change"}, {"time": 183571, "annotation": {"number": 1, "value": 81}, "group": "control_change"}, {"time": 183591, "annotation": {"number": 10, "value": 1}, "group": "control_change"}, {"time": 183601, "annotation": {"number": 1, "value": 80}, "group": "control_change"}, {"time": 183636, "annotation": {"number": 10, "value": 15}, "group": "control_change"}, {"time": 183645, "annotation": {"number": 1, "value": 79}, "group": "control_change"}, {"time": 183651, "annotation": {"number": 10, "value": 27}, "group": "control_change"}, {"time": 183664, "annotation": {"number": 10, "value": 38}, "group": "control_change"}, {"time": 183668, "annotation": {"number": 1, "value": 77}, "group": "control_change"}, {"time": 183680, "annotation": {"number": 10, "value": 49}, "group": "control_change"}, {"time": 183695, "annotation": {"number": 10, "value": 61}, "group": "control_change"}, {"time": 183698, "annotation": {"number": 1, "value": 76}, "group": "control_change"}, {"time": 183706, "annotation": {"number": 1, "value": 75}, "group": "control_change"}, {"time": 183708, "annotation": {"number": 10, "value": 73}, "group": "control_change"}, {"time": 183721, "annotation": {"number": 1, "value": 74}, "group": "control_change"}, {"time": 183724, "annotation": {"number": 10, "value": 84}, "group": "control_change"}, {"time": 183740, "annotation": {"number": 10, "value": 94}, "group": "control_change"}, {"time": 183743, "annotation": {"number": 1, "value": 73}, "group": "control_change"}, {"time": 183752, "annotation": {"number": 10, "value": 101}, "group": "control_change"}, {"time": 183768, "annotation": {"number": 10, "value": 108}, "group": "control_change"}, {"time": 183779, "annotation": {"number": 1, "value": 72}, "group": "control_change"}, {"time": 183787, "annotation": {"number": 1, "value": 71}, "group": "control_change"}, {"time": 183799, "annotation": {"number": 10, "value": 117}, "group": "control_change"}, {"time": 183823, "annotation": {"number": 1, "value": 70}, "group": "control_change"}, {"time": 183827, "annotation": {"number": 10, "value": 121}, "group": "control_change"}, {"time": 183876, "annotation": {"number": 1, "value": 69}, "group": "control_change"}, {"time": 183900, "annotation": {"number": 10, "value": 127}, "group": "control_change"}, {"time": 183965, "annotation": {"number": 1, "value": 68}, "group": "control_change"}, {"time": 184150, "annotation": {"number": 1, "value": 67}, "group": "control_change"}, {"time": 184268, "annotation": {"number": 1, "value": 68}, "group": "control_change"}, {"time": 184291, "annotation": {"number": 1, "value": 70}, "group": "control_change"}, {"time": 184304, "annotation": {"number": 10, "value": 126}, "group": "control_change"}, {"time": 184306, "annotation": {"number": 1, "value": 71}, "group": "control_change"}, {"time": 184314, "annotation": {"number": 1, "value": 72}, "group": "control_change"}, {"time": 184322, "annotation": {"number": 1, "value": 73}, "group": "control_change"}, {"time": 184330, "annotation": {"number": 1, "value": 75}, "group": "control_change"}, {"time": 184333, "annotation": {"number": 10, "value": 116}, "group": "control_change"}, {"time": 184338, "annotation": {"number": 1, "value": 76}, "group": "control_change"}, {"time": 184346, "annotation": {"number": 1, "value": 77}, "group": "control_change"}, {"time": 184348, "annotation": {"number": 10, "value": 107}, "group": "control_change"}, {"time": 184353, "annotation": {"number": 1, "value": 79}, "group": "control_change"}, {"time": 184361, "annotation": {"number": 1, "value": 80}, "group": "control_change"}, {"time": 184361, "annotation": {"number": 10, "value": 97}, "group": "control_change"}, {"time": 184369, "annotation": {"number": 1, "value": 81}, "group": "control_change"}, {"time": 184376, "annotation": {"number": 1, "value": 83}, "group": "control_change"}, {"time": 184377, "annotation": {"number": 10, "value": 88}, "group": "control_change"}, {"time": 184383, "annotation": {"number": 1, "value": 84}, "group": "control_change"}, {"time": 184391, "annotation": {"number": 1, "value": 86}, "group": "control_change"}, {"time": 184393, "annotation": {"number": 10, "value": 79}, "group": "control_change"}, {"time": 184399, "annotation": {"number": 1, "value": 87}, "group": "control_change"}, {"time": 184406, "annotation": {"number": 1, "value": 88}, "group": "control_change"}, {"time": 184414, "annotation": {"number": 1, "value": 90}, "group": "control_change"}, {"time": 184421, "annotation": {"number": 10, "value": 69}, "group": "control_change"}, {"time": 184422, "annotation": {"number": 1, "value": 92}, "group": "control_change"}, {"time": 184429, "annotation": {"number": 1, "value": 93}, "group": "control_change"}, {"time": 184437, "annotation": {"number": 1, "value": 94}, "group": "control_change"}, {"time": 184445, "annotation": {"number": 1, "value": 95}, "group": "control_change"}, {"time": 184452, "annotation": {"number": 1, "value": 96}, "group": "control_change"}, {"time": 184453, "annotation": {"number": 10, "value": 62}, "group": "control_change"}, {"time": 184460, "annotation": {"number": 1, "value": 98}, "group": "control_change"}, {"time": 184468, "annotation": {"number": 1, "value": 99}, "group": "control_change"}, {"time": 184476, "annotation": {"number": 1, "value": 100}, "group": "control_change"}, {"time": 184484, "annotation": {"number": 1, "value": 101}, "group": "control_change"}, {"time": 184491, "annotation": {"number": 1, "value": 102}, "group": "control_change"}, {"time": 184500, "annotation": {"number": 1, "value": 103}, "group": "control_change"}, {"time": 184508, "annotation": {"number": 1, "value": 104}, "group": "control_change"}, {"time": 184510, "annotation": {"number": 10, "value": 55}, "group": "control_change"}, {"time": 184514, "annotation": {"number": 1, "value": 105}, "group": "control_change"}, {"time": 184522, "annotation": {"number": 1, "value": 106}, "group": "control_change"}, {"time": 184530, "annotation": {"number": 1, "value": 107}, "group": "control_change"}, {"time": 184552, "annotation": {"number": 1, "value": 108}, "group": "control_change"}, {"time": 184559, "annotation": {"number": 1, "value": 109}, "group": "control_change"}, {"time": 184567, "annotation": {"number": 1, "value": 110}, "group": "control_change"}, {"time": 184582, "annotation": {"number": 1, "value": 111}, "group": "control_change"}, {"time": 184586, "annotation": {"number": 10, "value": 49}, "group": "control_change"}, {"time": 184605, "annotation": {"number": 1, "value": 112}, "group": "control_change"}, {"time": 184614, "annotation": {"number": 1, "value": 113}, "group": "control_change"}, {"time": 184621, "annotation": {"number": 1, "value": 114}, "group": "control_change"}, {"time": 184630, "annotation": {"number": 10, "value": 42}, "group": "control_change"}, {"time": 184636, "annotation": {"number": 1, "value": 115}, "group": "control_change"}, {"time": 184659, "annotation": {"number": 1, "value": 116}, "group": "control_change"}, {"time": 184662, "annotation": {"number": 10, "value": 35}, "group": "control_change"}, {"time": 184667, "annotation": {"number": 1, "value": 117}, "group": "control_change"}, {"time": 184674, "annotation": {"number": 10, "value": 30}, "group": "control_change"}, {"time": 184689, "annotation": {"number": 1, "value": 118}, "group": "control_change"}, {"time": 184690, "annotation": {"number": 10, "value": 25}, "group": "control_change"}, {"time": 184711, "annotation": {"number": 1, "value": 119}, "group": "control_change"}, {"time": 184718, "annotation": {"number": 1, "value": 120}, "group": "control_change"}, {"time": 184719, "annotation": {"number": 10, "value": 18}, "group": "control_change"}, {"time": 184733, "annotation": {"number": 1, "value": 121}, "group": "control_change"}, {"time": 184755, "annotation": {"number": 1, "value": 122}, "group": "control_change"}, {"time": 184778, "annotation": {"number": 10, "value": 11}, "group": "control_change"}, {"time": 184785, "annotation": {"number": 1, "value": 123}, "group": "control_change"}, {"time": 184793, "annotation": {"number": 1, "value": 124}, "group": "control_change"}, {"time": 184808, "annotation": {"number": 1, "value": 125}, "group": "control_change"}, {"time": 184838, "annotation": {"number": 1, "value": 126}, "group": "control_change"}, {"time": 184845, "annotation": {"number": 1, "value": 127}, "group": "control_change"}, {"time": 184971, "annotation": {"number": 10, "value": 14}, "group": "control_change"}, {"time": 184987, "annotation": {"number": 10, "value": 23}, "group": "control_change"}, {"time": 185003, "annotation": {"number": 10, "value": 32}, "group": "control_change"}, {"time": 185015, "annotation": {"number": 10, "value": 42}, "group": "control_change"}, {"time": 185031, "annotation": {"number": 10, "value": 54}, "group": "control_change"}, {"time": 185047, "annotation": {"number": 10, "value": 66}, "group": "control_change"}, {"time": 185063, "annotation": {"number": 10, "value": 79}, "group": "control_change"}, {"time": 185076, "annotation": {"number": 10, "value": 91}, "group": "control_change"}, {"time": 185091, "annotation": {"number": 10, "value": 103}, "group": "control_change"}, {"time": 185107, "annotation": {"number": 10, "value": 112}, "group": "control_change"}, {"time": 185113, "annotation": {"number": 1, "value": 126}, "group": "control_change"}, {"time": 185121, "annotation": {"number": 1, "value": 125}, "group": "control_change"}, {"time": 185123, "annotation": {"number": 10, "value": 120}, "group": "control_change"}, {"time": 185128, "annotation": {"number": 1, "value": 124}, "group": "control_change"}, {"time": 185136, "annotation": {"number": 1, "value": 123}, "group": "control_change"}, {"time": 185151, "annotation": {"number": 10, "value": 127}, "group": "control_change"}, {"time": 185158, "annotation": {"number": 1, "value": 122}, "group": "control_change"}, {"time": 185166, "annotation": {"number": 1, "value": 121}, "group": "control_change"}, {"time": 185181, "annotation": {"number": 1, "value": 120}, "group": "control_change"}, {"time": 185211, "annotation": {"number": 1, "value": 119}, "group": "control_change"}, {"time": 185248, "annotation": {"number": 1, "value": 118}, "group": "control_change"}, {"time": 185357, "annotation": {"number": 1, "value": 117}, "group": "control_change"}, {"time": 185386, "annotation": {"number": 1, "value": 116}, "group": "control_change"}, {"time": 185409, "annotation": {"number": 1, "value": 115}, "group": "control_change"}, {"time": 185418, "annotation": {"number": 1, "value": 114}, "group": "control_change"}, {"time": 185440, "annotation": {"number": 1, "value": 113}, "group": "control_change"}, {"time": 185448, "annotation": {"number": 1, "value": 112}, "group": "control_change"}, {"time": 185455, "annotation": {"number": 1, "value": 111}, "group": "control_change"}, {"time": 185463, "annotation": {"number": 1, "value": 110}, "group": "control_change"}, {"time": 185478, "annotation": {"number": 1, "value": 109}, "group": "control_change"}, {"time": 185486, "annotation": {"number": 1, "value": 108}, "group": "control_change"}, {"time": 185492, "annotation": {"number": 10, "value": 123}, "group": "control_change"}, {"time": 185493, "annotation": {"number": 1, "value": 107}, "group": "control_change"}, {"time": 185501, "annotation": {"number": 1, "value": 106}, "group": "control_change"}, {"time": 185508, "annotation": {"number": 1, "value": 105}, "group": "control_change"}, {"time": 185516, "annotation": {"number": 1, "value": 104}, "group": "control_change"}, {"time": 185523, "annotation": {"number": 10, "value": 112}, "group": "control_change"}, {"time": 185524, "annotation": {"number": 1, "value": 103}, "group": "control_change"}, {"time": 185532, "annotation": {"number": 1, "value": 102}, "group": "control_change"}, {"time": 185536, "annotation": {"number": 10, "value": 103}, "group": "control_change"}, {"time": 185538, "annotation": {"number": 1, "value": 101}, "group": "control_change"}, {"time": 185547, "annotation": {"number": 1, "value": 100}, "group": "control_change"}, {"time": 185555, "annotation": {"number": 10, "value": 95}, "group": "control_change"}, {"time": 185557, "annotation": {"number": 1, "value": 98}, "group": "control_change"}, {"time": 185564, "annotation": {"number": 1, "value": 97}, "group": "control_change"}, {"time": 185571, "annotation": {"number": 1, "value": 96}, "group": "control_change"}, {"time": 185580, "annotation": {"number": 10, "value": 83}, "group": "control_change"}, {"time": 185586, "annotation": {"number": 1, "value": 95}, "group": "control_change"}, {"time": 185594, "annotation": {"number": 1, "value": 94}, "group": "control_change"}, {"time": 185596, "annotation": {"number": 10, "value": 76}, "group": "control_change"}, {"time": 185601, "annotation": {"number": 1, "value": 93}, "group": "control_change"}, {"time": 185609, "annotation": {"number": 1, "value": 92}, "group": "control_change"}, {"time": 185623, "annotation": {"number": 1, "value": 91}, "group": "control_change"}, {"time": 185624, "annotation": {"number": 10, "value": 64}, "group": "control_change"}, {"time": 185630, "annotation": {"number": 1, "value": 90}, "group": "control_change"}, {"time": 185639, "annotation": {"number": 1, "value": 89}, "group": "control_change"}, {"time": 185656, "annotation": {"number": 1, "value": 87}, "group": "control_change"}, {"time": 185656, "annotation": {"number": 10, "value": 52}, "group": "control_change"}, {"time": 185676, "annotation": {"number": 1, "value": 86}, "group": "control_change"}, {"time": 185684, "annotation": {"number": 10, "value": 43}, "group": "control_change"}, {"time": 185685, "annotation": {"number": 1, "value": 85}, "group": "control_change"}, {"time": 185692, "annotation": {"number": 1, "value": 84}, "group": "control_change"}, {"time": 185700, "annotation": {"number": 1, "value": 83}, "group": "control_change"}, {"time": 185715, "annotation": {"number": 1, "value": 82}, "group": "control_change"}, {"time": 185722, "annotation": {"number": 1, "value": 81}, "group": "control_change"}, {"time": 185728, "annotation": {"number": 10, "value": 34}, "group": "control_change"}, {"time": 185730, "annotation": {"number": 1, "value": 80}, "group": "control_change"}, {"time": 185753, "annotation": {"number": 1, "value": 79}, "group": "control_change"}, {"time": 185760, "annotation": {"number": 1, "value": 78}, "group": "control_change"}, {"time": 185777, "annotation": {"number": 1, "value": 77}, "group": "control_change"}, {"time": 185784, "annotation": {"number": 1, "value": 76}, "group": "control_change"}, {"time": 185805, "annotation": {"number": 10, "value": 24}, "group": "control_change"}, {"time": 185829, "annotation": {"number": 1, "value": 75}, "group": "control_change"}, {"time": 185864, "annotation": {"number": 10, "value": 17}, "group": "control_change"}, {"time": 185909, "annotation": {"number": 10, "value": 10}, "group": "control_change"}, {"time": 185937, "annotation": {"number": 10, "value": 2}, "group": "control_change"}, {"time": 186035, "annotation": {"number": 1, "value": 74}, "group": "control_change"}, {"time": 186074, "annotation": {"number": 1, "value": 73}, "group": "control_change"}, {"time": 186110, "annotation": {"number": 1, "value": 72}, "group": "control_change"}, {"time": 186118, "annotation": {"number": 1, "value": 71}, "group": "control_change"}, {"time": 186141, "annotation": {"number": 1, "value": 70}, "group": "control_change"}, {"time": 186163, "annotation": {"number": 1, "value": 69}, "group": "control_change"}, {"time": 186193, "annotation": {"number": 1, "value": 68}, "group": "control_change"}, {"time": 186238, "annotation": {"number": 10, "value": 2}, "group": "control_change"}, {"time": 186266, "annotation": {"number": 10, "value": 16}, "group": "control_change"}, {"time": 186282, "annotation": {"number": 10, "value": 24}, "group": "control_change"}, {"time": 186294, "annotation": {"number": 10, "value": 32}, "group": "control_change"}, {"time": 186310, "annotation": {"number": 10, "value": 42}, "group": "control_change"}, {"time": 186326, "annotation": {"number": 10, "value": 50}, "group": "control_change"}, {"time": 186338, "annotation": {"number": 10, "value": 58}, "group": "control_change"}, {"time": 186354, "annotation": {"number": 10, "value": 67}, "group": "control_change"}, {"time": 186370, "annotation": {"number": 10, "value": 75}, "group": "control_change"}, {"time": 186386, "annotation": {"number": 10, "value": 82}, "group": "control_change"}, {"time": 186386, "annotation": {"number": 1, "value": 69}, "group": "control_change"}, {"time": 186398, "annotation": {"number": 10, "value": 87}, "group": "control_change"}, {"time": 186414, "annotation": {"number": 10, "value": 89}, "group": "control_change"}, {"time": 186430, "annotation": {"number": 1, "value": 0}, "group": "control_change"}]}, {"program": 0, "is_drum": false, "name": "MELODY", "annotations": [{"time": 184, "annotation": {"number": 0, "value": 0}, "group": "control_change"}, {"time": 203, "annotation": {"number": 32, "value": 0}, "group": "control_change"}]}, {"program": 73, "is_drum": false, "name": "MELODY", "notes": [{"time": 33602, "pitch": 79, "duration": 120, "velocity": 120}, {"time": 33842, "pitch": 79, "duration": 120, "velocity": 120}, {"time": 34082, "pitch": 79, "duration": 239, "velocity": 120}, {"time": 34801, "pitch": 79, "duration": 240, "velocity": 120}, {"time": 35281, "pitch": 79, "duration": 240, "velocity": 120}, {"time": 35760, "pitch": 76, "duration": 240, "velocity": 120}, {"time": 36240, "pitch": 83, "duration": 120, "velocity": 120}, {"time": 36480, "pitch": 83, "duration": 240, "velocity": 120}, {"time": 37439, "pitch": 79, "duration": 120, "velocity": 120}, {"time": 37679, "pitch": 79, "duration": 120, "velocity": 120}, {"time": 37919, "pitch": 79, "duration": 240, "velocity": 120}, {"time": 38638, "pitch": 81, "duration": 240, "velocity": 120}, {"time": 39118, "pitch": 81, "duration": 240, "velocity": 120}, {"time": 39598, "pitch": 79, "duration": 120, "velocity": 120}, {"time": 39838, "pitch": 81, "duration": 120, "velocity": 120}, {"time": 40078, "pitch": 83, "duration": 119, "velocity": 120}, {"time": 40317, "pitch": 81, "duration": 120, "velocity": 120}, {"time": 40557, "pitch": 79, "duration": 240, "velocity": 120}, {"time": 41277, "pitch": 79, "duration": 120, "velocity": 120}, {"time": 41517, "pitch": 79, "duration": 119, "velocity": 120}, {"time": 41756, "pitch": 79, "duration": 240, "velocity": 120}, {"time": 42476, "pitch": 79, "duration": 240, "velocity": 120}, {"time": 42956, "pitch": 79, "duration": 239, "velocity": 120}, {"time": 43435, "pitch": 76, "duration": 240, "velocity": 120}, {"time": 43915, "pitch": 83, "duration": 120, "velocity": 120}, {"time": 44155, "pitch": 83, "duration": 240, "velocity": 120}, {"time": 45114, "pitch": 79, "duration": 120, "velocity": 120}, {"time": 45354, "pitch": 79, "duration": 120, "velocity": 120}, {"time": 45594, "pitch": 79, "duration": 246, "velocity": 120}, {"time": 46326, "pitch": 81, "duration": 240, "velocity": 120}, {"time": 46806, "pitch": 81, "duration": 239, "velocity": 120}, {"time": 47285, "pitch": 79, "duration": 120, "velocity": 120}, {"time": 47525, "pitch": 81, "duration": 120, "velocity": 120}, {"time": 47765, "pitch": 83, "duration": 120, "velocity": 120}, {"time": 48005, "pitch": 81, "duration": 120, "velocity": 120}, {"time": 48245, "pitch": 79, "duration": 240, "velocity": 120}, {"time": 48964, "pitch": 79, "duration": 120, "velocity": 120}, {"time": 49204, "pitch": 79, "duration": 120, "velocity": 120}, {"time": 49444, "pitch": 79, "duration": 240, "velocity": 120}, {"time": 50163, "pitch": 79, "duration": 240, "velocity": 120}, {"time": 50643, "pitch": 79, "duration": 240, "velocity": 120}, {"time": 51123, "pitch": 76, "duration": 240, "velocity": 120}, {"time": 51602, "pitch": 83, "duration": 120, "velocity": 120}, {"time": 51842, "pitch": 83, "duration": 240, "velocity": 120}, {"time": 52802, "pitch": 79, "duration": 120, "velocity": 120}, {"time": 53041, "pitch": 79, "duration": 120, "velocity": 120}, {"time": 53281, "pitch": 79, "duration": 240, "velocity": 120}, {"time": 54001, "pitch": 81, "duration": 240, "velocity": 120}, {"time": 54481, "pitch": 81, "duration": 239, "velocity": 120}, {"time": 54960, "pitch": 79, "duration": 120, "velocity": 120}, {"time": 55200, "pitch": 81, "duration": 120, "velocity": 120}, {"time": 55440, "pitch": 83, "duration": 120, "velocity": 120}, {"time": 55680, "pitch": 81, "duration": 120, "velocity": 120}, {"time": 55920, "pitch": 79, "duration": 239, "velocity": 120}, {"time": 56639, "pitch": 79, "duration": 120, "velocity": 120}, {"time": 56879, "pitch": 79, "duration": 120, "velocity": 120}, {"time": 57119, "pitch": 79, "duration": 240, "velocity": 120}, {"time": 57838, "pitch": 79, "duration": 240, "velocity": 120}, {"time": 58318, "pitch": 79, "duration": 240, "velocity": 120}, {"time": 58798, "pitch": 76, "duration": 239, "velocity": 120}, {"time": 59277, "pitch": 83, "duration": 120, "velocity": 120}, {"time": 59517, "pitch": 83, "duration": 240, "velocity": 120}, {"time": 60477, "pitch": 79, "duration": 119, "velocity": 120}, {"time": 60716, "pitch": 79, "duration": 120, "velocity": 120}, {"time": 60956, "pitch": 79, "duration": 240, "velocity": 120}, {"time": 61676, "pitch": 81, "duration": 240, "velocity": 120}, {"time": 62155, "pitch": 81, "duration": 240, "velocity": 120}, {"time": 62635, "pitch": 79, "duration": 120, "velocity": 120}, {"time": 62875, "pitch": 81, "duration": 120, "velocity": 120}, {"time": 63115, "pitch": 83, "duration": 120, "velocity": 120}, {"time": 63355, "pitch": 81, "duration": 120, "velocity": 120}, {"time": 63594, "pitch": 79, "duration": 240, "velocity": 120}, {"time": 64314, "pitch": 84, "duration": 492, "velocity": 120}, {"time": 64806, "pitch": 84, "duration": 720, "velocity": 120}, {"time": 65526, "pitch": 87, "duration": 479, "velocity": 120}, {"time": 66005, "pitch": 87, "duration": 480, "velocity": 120}, {"time": 66485, "pitch": 87, "duration": 480, "velocity": 120}, {"time": 66965, "pitch": 86, "duration": 240, "velocity": 120}, {"time": 67205, "pitch": 84, "duration": 479, "velocity": 120}, {"time": 67684, "pitch": 83, "duration": 720, "velocity": 120}, {"time": 68404, "pitch": 86, "duration": 3118, "velocity": 120}, {"time": 72001, "pitch": 84, "duration": 480, "velocity": 120}, {"time": 72481, "pitch": 84, "duration": 720, "velocity": 120}, {"time": 73201, "pitch": 87, "duration": 479, "velocity": 120}, {"time": 73680, "pitch": 87, "duration": 480, "velocity": 120}, {"time": 74160, "pitch": 87, "duration": 480, "velocity": 120}, {"time": 74640, "pitch": 86, "duration": 240, "velocity": 120}, {"time": 74880, "pitch": 84, "duration": 479, "velocity": 120}, {"time": 75359, "pitch": 83, "duration": 720, "velocity": 120}, {"time": 76079, "pitch": 86, "duration": 3118, "velocity": 120}, {"time": 79676, "pitch": 79, "duration": 120, "velocity": 120}, {"time": 79916, "pitch": 79, "duration": 120, "velocity": 120}, {"time": 80156, "pitch": 79, "duration": 240, "velocity": 120}, {"time": 80876, "pitch": 79, "duration": 239, "velocity": 120}, {"time": 81355, "pitch": 79, "duration": 240, "velocity": 120}, {"time": 81835, "pitch": 76, "duration": 240, "velocity": 120}, {"time": 82315, "pitch": 83, "duration": 119, "velocity": 120}, {"time": 82554, "pitch": 83, "duration": 240, "velocity": 120}, {"time": 83514, "pitch": 79, "duration": 123, "velocity": 120}, {"time": 83760, "pitch": 79, "duration": 123, "velocity": 120}, {"time": 84006, "pitch": 79, "duration": 240, "velocity": 120}, {"time": 84726, "pitch": 81, "duration": 239, "velocity": 120}, {"time": 85205, "pitch": 81, "duration": 240, "velocity": 120}, {"time": 85685, "pitch": 79, "duration": 120, "velocity": 120}, {"time": 85925, "pitch": 81, "duration": 120, "velocity": 120}, {"time": 86165, "pitch": 83, "duration": 120, "velocity": 120}, {"time": 86404, "pitch": 81, "duration": 120, "velocity": 120}, {"time": 86644, "pitch": 79, "duration": 240, "velocity": 120}, {"time": 87364, "pitch": 79, "duration": 120, "velocity": 120}, {"time": 87604, "pitch": 79, "duration": 120, "velocity": 120}, {"time": 87843, "pitch": 79, "duration": 240, "velocity": 120}, {"time": 88563, "pitch": 79, "duration": 240, "velocity": 120}, {"time": 89043, "pitch": 79, "duration": 240, "velocity": 120}, {"time": 89522, "pitch": 76, "duration": 240, "velocity": 120}, {"time": 90002, "pitch": 83, "duration": 120, "velocity": 120}, {"time": 90242, "pitch": 83, "duration": 240, "velocity": 120}, {"time": 91201, "pitch": 79, "duration": 120, "velocity": 120}, {"time": 91441, "pitch": 79, "duration": 120, "velocity": 120}, {"time": 91681, "pitch": 79, "duration": 240, "velocity": 120}, {"time": 92400, "pitch": 81, "duration": 240, "velocity": 120}, {"time": 92880, "pitch": 81, "duration": 240, "velocity": 120}, {"time": 93360, "pitch": 79, "duration": 120, "velocity": 120}, {"time": 93600, "pitch": 81, "duration": 120, "velocity": 120}, {"time": 93839, "pitch": 83, "duration": 120, "velocity": 120}, {"time": 94079, "pitch": 81, "duration": 120, "velocity": 120}, {"time": 94319, "pitch": 79, "duration": 240, "velocity": 120}, {"time": 95039, "pitch": 84, "duration": 479, "velocity": 120}, {"time": 95518, "pitch": 84, "duration": 720, "velocity": 120}, {"time": 96238, "pitch": 87, "duration": 480, "velocity": 120}, {"time": 96718, "pitch": 87, "duration": 479, "velocity": 120}, {"time": 97197, "pitch": 87, "duration": 480, "velocity": 120}, {"time": 97677, "pitch": 86, "duration": 240, "velocity": 120}, {"time": 97917, "pitch": 84, "duration": 479, "velocity": 120}, {"time": 98396, "pitch": 83, "duration": 720, "velocity": 120}, {"time": 99116, "pitch": 86, "duration": 3118, "velocity": 120}, {"time": 102726, "pitch": 84, "duration": 480, "velocity": 120}, {"time": 103206, "pitch": 84, "duration": 719, "velocity": 120}, {"time": 103925, "pitch": 87, "duration": 480, "velocity": 120}, {"time": 104405, "pitch": 87, "duration": 480, "velocity": 120}, {"time": 104885, "pitch": 87, "duration": 479, "velocity": 120}, {"time": 105364, "pitch": 86, "duration": 240, "velocity": 120}, {"time": 105604, "pitch": 84, "duration": 480, "velocity": 120}, {"time": 106084, "pitch": 83, "duration": 1919, "velocity": 120}, {"time": 108003, "pitch": 86, "duration": 1918, "velocity": 120}, {"time": 110401, "pitch": 91, "duration": 360, "velocity": 120}, {"time": 110881, "pitch": 91, "duration": 359, "velocity": 120}, {"time": 111360, "pitch": 86, "duration": 120, "velocity": 120}, {"time": 111600, "pitch": 88, "duration": 360, "velocity": 120}, {"time": 112080, "pitch": 88, "duration": 240, "velocity": 120}, {"time": 112560, "pitch": 84, "duration": 359, "velocity": 120}, {"time": 113039, "pitch": 86, "duration": 120, "velocity": 120}, {"time": 113279, "pitch": 84, "duration": 360, "velocity": 120}, {"time": 113759, "pitch": 83, "duration": 599, "velocity": 120}, {"time": 114478, "pitch": 86, "duration": 1799, "velocity": 120}, {"time": 118076, "pitch": 91, "duration": 360, "velocity": 120}, {"time": 118556, "pitch": 91, "duration": 359, "velocity": 120}, {"time": 119035, "pitch": 86, "duration": 120, "velocity": 120}, {"time": 119275, "pitch": 88, "duration": 360, "velocity": 120}, {"time": 119755, "pitch": 88, "duration": 240, "velocity": 120}, {"time": 120234, "pitch": 84, "duration": 360, "velocity": 120}, {"time": 120714, "pitch": 86, "duration": 120, "velocity": 120}, {"time": 120954, "pitch": 84, "duration": 369, "velocity": 120}, {"time": 121446, "pitch": 83, "duration": 600, "velocity": 120}, {"time": 122166, "pitch": 86, "duration": 1799, "velocity": 120}, {"time": 125763, "pitch": 91, "duration": 360, "velocity": 120}, {"time": 126243, "pitch": 91, "duration": 360, "velocity": 120}, {"time": 126723, "pitch": 86, "duration": 120, "velocity": 120}, {"time": 126963, "pitch": 88, "duration": 359, "velocity": 120}, {"time": 127442, "pitch": 88, "duration": 240, "velocity": 120}, {"time": 127922, "pitch": 84, "duration": 360, "velocity": 120}, {"time": 128402, "pitch": 86, "duration": 120, "velocity": 120}, {"time": 128641, "pitch": 84, "duration": 360, "velocity": 120}, {"time": 129121, "pitch": 83, "duration": 600, "velocity": 120}, {"time": 129841, "pitch": 86, "duration": 1798, "velocity": 120}, {"time": 133438, "pitch": 91, "duration": 360, "velocity": 120}, {"time": 133918, "pitch": 91, "duration": 360, "velocity": 120}, {"time": 134398, "pitch": 86, "duration": 120, "velocity": 120}, {"time": 134637, "pitch": 88, "duration": 360, "velocity": 120}, {"time": 135117, "pitch": 88, "duration": 240, "velocity": 120}, {"time": 135597, "pitch": 84, "duration": 360, "velocity": 120}, {"time": 136076, "pitch": 86, "duration": 120, "velocity": 120}, {"time": 136316, "pitch": 84, "duration": 360, "velocity": 120}, {"time": 136796, "pitch": 83, "duration": 524, "velocity": 120}, {"time": 137516, "pitch": 86, "duration": 1834, "velocity": 120}, {"time": 139674, "pitch": 84, "duration": 296, "velocity": 120}, {"time": 139914, "pitch": 83, "duration": 312, "velocity": 120}, {"time": 140154, "pitch": 81, "duration": 243, "velocity": 120}, {"time": 140400, "pitch": 79, "duration": 1542, "velocity": 120}, {"time": 156475, "pitch": 79, "duration": 120, "velocity": 120}, {"time": 156715, "pitch": 79, "duration": 120, "velocity": 120}, {"time": 156955, "pitch": 79, "duration": 240, "velocity": 120}, {"time": 157675, "pitch": 79, "duration": 240, "velocity": 120}, {"time": 158154, "pitch": 79, "duration": 240, "velocity": 120}, {"time": 158634, "pitch": 76, "duration": 240, "velocity": 120}, {"time": 159120, "pitch": 83, "duration": 123, "velocity": 120}, {"time": 159366, "pitch": 83, "duration": 240, "velocity": 120}, {"time": 160326, "pitch": 79, "duration": 119, "velocity": 120}, {"time": 160565, "pitch": 79, "duration": 120, "velocity": 120}, {"time": 160805, "pitch": 79, "duration": 240, "velocity": 120}, {"time": 161525, "pitch": 81, "duration": 240, "velocity": 120}, {"time": 162004, "pitch": 81, "duration": 240, "velocity": 120}, {"time": 162484, "pitch": 79, "duration": 120, "velocity": 120}, {"time": 162724, "pitch": 81, "duration": 120, "velocity": 120}, {"time": 162964, "pitch": 83, "duration": 120, "velocity": 120}, {"time": 163204, "pitch": 81, "duration": 120, "velocity": 120}, {"time": 163443, "pitch": 79, "duration": 240, "velocity": 120}, {"time": 164163, "pitch": 79, "duration": 120, "velocity": 120}, {"time": 164403, "pitch": 79, "duration": 120, "velocity": 120}, {"time": 164643, "pitch": 79, "duration": 240, "velocity": 120}, {"time": 165362, "pitch": 79, "duration": 240, "velocity": 120}, {"time": 165842, "pitch": 79, "duration": 240, "velocity": 120}, {"time": 166322, "pitch": 76, "duration": 239, "velocity": 120}, {"time": 166801, "pitch": 83, "duration": 120, "velocity": 120}, {"time": 167041, "pitch": 83, "duration": 240, "velocity": 120}, {"time": 168000, "pitch": 79, "duration": 120, "velocity": 120}, {"time": 168240, "pitch": 79, "duration": 120, "velocity": 120}, {"time": 168480, "pitch": 79, "duration": 240, "velocity": 120}, {"time": 169200, "pitch": 81, "duration": 239, "velocity": 120}, {"time": 169679, "pitch": 81, "duration": 240, "velocity": 120}, {"time": 170159, "pitch": 79, "duration": 120, "velocity": 120}, {"time": 170399, "pitch": 81, "duration": 120, "velocity": 120}, {"time": 170639, "pitch": 83, "duration": 120, "velocity": 120}, {"time": 170879, "pitch": 81, "duration": 119, "velocity": 120}, {"time": 171118, "pitch": 79, "duration": 240, "velocity": 120}, {"time": 171838, "pitch": 79, "duration": 120, "velocity": 120}, {"time": 172078, "pitch": 79, "duration": 120, "velocity": 120}, {"time": 172318, "pitch": 79, "duration": 239, "velocity": 120}, {"time": 173037, "pitch": 79, "duration": 240, "velocity": 120}, {"time": 173517, "pitch": 79, "duration": 240, "velocity": 120}, {"time": 173996, "pitch": 76, "duration": 240, "velocity": 120}, {"time": 174476, "pitch": 83, "duration": 120, "velocity": 120}, {"time": 174716, "pitch": 83, "duration": 240, "velocity": 120}, {"time": 175675, "pitch": 79, "duration": 120, "velocity": 120}, {"time": 175915, "pitch": 79, "duration": 120, "velocity": 120}, {"time": 176155, "pitch": 79, "duration": 240, "velocity": 120}, {"time": 176874, "pitch": 81, "duration": 240, "velocity": 120}, {"time": 177354, "pitch": 81, "duration": 240, "velocity": 120}, {"time": 177834, "pitch": 79, "duration": 120, "velocity": 120}, {"time": 178074, "pitch": 81, "duration": 123, "velocity": 120}, {"time": 178320, "pitch": 83, "duration": 123, "velocity": 120}, {"time": 178566, "pitch": 81, "duration": 120, "velocity": 120}, {"time": 178806, "pitch": 79, "duration": 240, "velocity": 120}, {"time": 179525, "pitch": 79, "duration": 120, "velocity": 120}, {"time": 179765, "pitch": 79, "duration": 120, "velocity": 120}, {"time": 180005, "pitch": 79, "duration": 240, "velocity": 120}, {"time": 180725, "pitch": 79, "duration": 239, "velocity": 120}, {"time": 181204, "pitch": 79, "duration": 240, "velocity": 120}, {"time": 181684, "pitch": 76, "duration": 240, "velocity": 120}, {"time": 182164, "pitch": 83, "duration": 120, "velocity": 120}, {"time": 182403, "pitch": 83, "duration": 240, "velocity": 120}, {"time": 183363, "pitch": 79, "duration": 120, "velocity": 120}, {"time": 183603, "pitch": 79, "duration": 120, "velocity": 120}, {"time": 183842, "pitch": 79, "duration": 240, "velocity": 120}, {"time": 184562, "pitch": 81, "duration": 240, "velocity": 120}, {"time": 185042, "pitch": 81, "duration": 240, "velocity": 120}, {"time": 185521, "pitch": 79, "duration": 120, "velocity": 120}, {"time": 185761, "pitch": 81, "duration": 120, "velocity": 120}, {"time": 186001, "pitch": 83, "duration": 120, "velocity": 120}, {"time": 186241, "pitch": 81, "duration": 120, "velocity": 120}, {"time": 186481, "pitch": 79, "duration": 240, "velocity": 120}, {"time": 187200, "pitch": 84, "duration": 480, "velocity": 120}, {"time": 187680, "pitch": 84, "duration": 719, "velocity": 120}, {"time": 188399, "pitch": 87, "duration": 480, "velocity": 120}, {"time": 188879, "pitch": 87, "duration": 480, "velocity": 120}, {"time": 189359, "pitch": 87, "duration": 479, "velocity": 120}, {"time": 189838, "pitch": 86, "duration": 240, "velocity": 120}, {"time": 190078, "pitch": 84, "duration": 480, "velocity": 120}, {"time": 190558, "pitch": 83, "duration": 719, "velocity": 120}, {"time": 191277, "pitch": 86, "duration": 3118, "velocity": 120}, {"time": 194875, "pitch": 84, "duration": 480, "velocity": 120}, {"time": 195355, "pitch": 84, "duration": 719, "velocity": 120}, {"time": 196074, "pitch": 87, "duration": 480, "velocity": 120}, {"time": 196554, "pitch": 87, "duration": 486, "velocity": 120}, {"time": 197040, "pitch": 87, "duration": 486, "velocity": 120}, {"time": 197526, "pitch": 86, "duration": 240, "velocity": 120}, {"time": 197766, "pitch": 84, "duration": 479, "velocity": 120}, {"time": 198245, "pitch": 83, "duration": 1919, "velocity": 120}, {"time": 200164, "pitch": 86, "duration": 1919, "velocity": 120}, {"time": 202563, "pitch": 91, "duration": 359, "velocity": 120}, {"time": 203042, "pitch": 91, "duration": 360, "velocity": 120}, {"time": 203522, "pitch": 86, "duration": 120, "velocity": 120}, {"time": 203762, "pitch": 88, "duration": 360, "velocity": 120}, {"time": 204241, "pitch": 88, "duration": 240, "velocity": 120}, {"time": 204721, "pitch": 84, "duration": 360, "velocity": 120}, {"time": 205201, "pitch": 86, "duration": 120, "velocity": 120}, {"time": 205441, "pitch": 84, "duration": 359, "velocity": 120}, {"time": 205920, "pitch": 83, "duration": 600, "velocity": 120}, {"time": 206640, "pitch": 86, "duration": 1799, "velocity": 120}, {"time": 210237, "pitch": 91, "duration": 360, "velocity": 120}, {"time": 210717, "pitch": 91, "duration": 360, "velocity": 120}, {"time": 211197, "pitch": 86, "duration": 120, "velocity": 120}, {"time": 211437, "pitch": 88, "duration": 359, "velocity": 120}, {"time": 211916, "pitch": 88, "duration": 240, "velocity": 120}, {"time": 212396, "pitch": 84, "duration": 360, "velocity": 120}, {"time": 212876, "pitch": 86, "duration": 120, "velocity": 120}, {"time": 213116, "pitch": 84, "duration": 359, "velocity": 120}, {"time": 213595, "pitch": 83, "duration": 600, "velocity": 120}, {"time": 214315, "pitch": 86, "duration": 1811, "velocity": 120}, {"time": 217925, "pitch": 91, "duration": 360, "velocity": 120}, {"time": 218405, "pitch": 91, "duration": 359, "velocity": 120}, {"time": 218884, "pitch": 86, "duration": 120, "velocity": 120}, {"time": 219124, "pitch": 88, "duration": 360, "velocity": 120}, {"time": 219604, "pitch": 88, "duration": 240, "velocity": 120}, {"time": 220084, "pitch": 84, "duration": 359, "velocity": 120}, {"time": 220563, "pitch": 86, "duration": 120, "velocity": 120}, {"time": 220803, "pitch": 84, "duration": 360, "velocity": 120}, {"time": 221283, "pitch": 83, "duration": 599, "velocity": 120}, {"time": 222002, "pitch": 86, "duration": 1799, "velocity": 120}, {"time": 225600, "pitch": 91, "duration": 360, "velocity": 120}, {"time": 226079, "pitch": 91, "duration": 360, "velocity": 120}, {"time": 226559, "pitch": 86, "duration": 120, "velocity": 120}, {"time": 226799, "pitch": 88, "duration": 360, "velocity": 120}, {"time": 227279, "pitch": 88, "duration": 240, "velocity": 120}, {"time": 227758, "pitch": 84, "duration": 360, "velocity": 120}, {"time": 228238, "pitch": 86, "duration": 120, "velocity": 120}, {"time": 228478, "pitch": 84, "duration": 360, "velocity": 120}, {"time": 228958, "pitch": 83, "duration": 599, "velocity": 120}, {"time": 229677, "pitch": 86, "duration": 1799, "velocity": 120}, {"time": 231836, "pitch": 84, "duration": 295, "velocity": 120}, {"time": 232075, "pitch": 83, "duration": 311, "velocity": 120}, {"time": 232315, "pitch": 81, "duration": 237, "velocity": 120}, {"time": 232555, "pitch": 79, "duration": 1536, "velocity": 120}], "annotations": [{"time": 240, "annotation": {"number": 7, "value": 100}, "group": "control_change"}, {"time": 258, "annotation": {"number": 11, "value": 110}, "group": "control_change"}, {"time": 277, "annotation": {"number": 10, "value": 64}, "group": "control_change"}, {"time": 295, "annotation": {"number": 91, "value": 20}, "group": "control_change"}, {"time": 314, "annotation": {"number": 93, "value": 0}, "group": "control_change"}, {"time": 332, "annotation": {"number": 101, "value": 0}, "group": "control_change"}, {"time": 350, "annotation": {"number": 100, "value": 0}, "group": "control_change"}, {"time": 369, "annotation": {"number": 6, "value": 12}, "group": "control_change"}, {"time": 387, "annotation": {"number": 101, "value": 127}, "group": "control_change"}, {"time": 406, "annotation": {"number": 100, "value": 127}, "group": "control_change"}]}, {"program": 0, "is_drum": false, "name": "CHO", "annotations": [{"time": 184, "annotation": {"number": 0, "value": 0}, "group": "control_change"}, {"time": 203, "annotation": {"number": 32, "value": 2}, "group": "control_change"}]}, {"program": 54, "is_drum": false, "name": "CHO", "notes": [{"time": 110401, "pitch": 86, "duration": 360, "velocity": 120}, {"time": 110881, "pitch": 86, "duration": 359, "velocity": 120}, {"time": 111360, "pitch": 81, "duration": 120, "velocity": 120}, {"time": 111600, "pitch": 83, "duration": 360, "velocity": 120}, {"time": 112080, "pitch": 83, "duration": 240, "velocity": 120}, {"time": 112560, "pitch": 79, "duration": 359, "velocity": 120}, {"time": 113039, "pitch": 81, "duration": 120, "velocity": 120}, {"time": 113279, "pitch": 79, "duration": 360, "velocity": 120}, {"time": 113759, "pitch": 78, "duration": 599, "velocity": 120}, {"time": 114478, "pitch": 81, "duration": 1799, "velocity": 120}, {"time": 118076, "pitch": 86, "duration": 360, "velocity": 120}, {"time": 118556, "pitch": 86, "duration": 359, "velocity": 120}, {"time": 119035, "pitch": 81, "duration": 120, "velocity": 120}, {"time": 119275, "pitch": 83, "duration": 360, "velocity": 120}, {"time": 119755, "pitch": 83, "duration": 240, "velocity": 120}, {"time": 120234, "pitch": 79, "duration": 360, "velocity": 120}, {"time": 120714, "pitch": 81, "duration": 120, "velocity": 120}, {"time": 120954, "pitch": 79, "duration": 369, "velocity": 120}, {"time": 121446, "pitch": 78, "duration": 600, "velocity": 120}, {"time": 122166, "pitch": 81, "duration": 1799, "velocity": 120}, {"time": 125763, "pitch": 86, "duration": 360, "velocity": 120}, {"time": 126243, "pitch": 86, "duration": 360, "velocity": 120}, {"time": 126723, "pitch": 81, "duration": 120, "velocity": 120}, {"time": 126963, "pitch": 83, "duration": 359, "velocity": 120}, {"time": 127442, "pitch": 83, "duration": 240, "velocity": 120}, {"time": 127922, "pitch": 79, "duration": 360, "velocity": 120}, {"time": 128402, "pitch": 81, "duration": 120, "velocity": 120}, {"time": 128641, "pitch": 79, "duration": 360, "velocity": 120}, {"time": 129121, "pitch": 78, "duration": 600, "velocity": 120}, {"time": 129841, "pitch": 81, "duration": 1798, "velocity": 120}, {"time": 133438, "pitch": 86, "duration": 360, "velocity": 120}, {"time": 133918, "pitch": 86, "duration": 360, "velocity": 120}, {"time": 134398, "pitch": 81, "duration": 120, "velocity": 120}, {"time": 134637, "pitch": 83, "duration": 360, "velocity": 120}, {"time": 135117, "pitch": 83, "duration": 240, "velocity": 120}, {"time": 135597, "pitch": 79, "duration": 360, "velocity": 120}, {"time": 136076, "pitch": 81, "duration": 120, "velocity": 120}, {"time": 136316, "pitch": 79, "duration": 360, "velocity": 120}, {"time": 136796, "pitch": 78, "duration": 524, "velocity": 120}, {"time": 137516, "pitch": 81, "duration": 1834, "velocity": 120}, {"time": 202563, "pitch": 86, "duration": 359, "velocity": 120}, {"time": 203042, "pitch": 86, "duration": 360, "velocity": 120}, {"time": 203522, "pitch": 81, "duration": 120, "velocity": 120}, {"time": 203762, "pitch": 83, "duration": 360, "velocity": 120}, {"time": 204241, "pitch": 83, "duration": 240, "velocity": 120}, {"time": 204721, "pitch": 79, "duration": 360, "velocity": 120}, {"time": 205201, "pitch": 81, "duration": 120, "velocity": 120}, {"time": 205441, "pitch": 79, "duration": 359, "velocity": 120}, {"time": 205920, "pitch": 78, "duration": 600, "velocity": 120}, {"time": 206640, "pitch": 81, "duration": 1799, "velocity": 120}, {"time": 210237, "pitch": 86, "duration": 360, "velocity": 120}, {"time": 210717, "pitch": 86, "duration": 360, "velocity": 120}, {"time": 211197, "pitch": 81, "duration": 120, "velocity": 120}, {"time": 211437, "pitch": 83, "duration": 359, "velocity": 120}, {"time": 211916, "pitch": 83, "duration": 240, "velocity": 120}, {"time": 212396, "pitch": 79, "duration": 360, "velocity": 120}, {"time": 212876, "pitch": 81, "duration": 120, "velocity": 120}, {"time": 213116, "pitch": 79, "duration": 359, "velocity": 120}, {"time": 213595, "pitch": 78, "duration": 600, "velocity": 120}, {"time": 214315, "pitch": 81, "duration": 1811, "velocity": 120}, {"time": 217925, "pitch": 86, "duration": 360, "velocity": 120}, {"time": 218405, "pitch": 86, "duration": 359, "velocity": 120}, {"time": 218884, "pitch": 81, "duration": 120, "velocity": 120}, {"time": 219124, "pitch": 83, "duration": 360, "velocity": 120}, {"time": 219604, "pitch": 83, "duration": 240, "velocity": 120}, {"time": 220084, "pitch": 79, "duration": 359, "velocity": 120}, {"time": 220563, "pitch": 81, "duration": 120, "velocity": 120}, {"time": 220803, "pitch": 79, "duration": 360, "velocity": 120}, {"time": 221283, "pitch": 78, "duration": 599, "velocity": 120}, {"time": 222002, "pitch": 81, "duration": 1799, "velocity": 120}, {"time": 225600, "pitch": 86, "duration": 360, "velocity": 120}, {"time": 226079, "pitch": 86, "duration": 360, "velocity": 120}, {"time": 226559, "pitch": 81, "duration": 120, "velocity": 120}, {"time": 226799, "pitch": 83, "duration": 360, "velocity": 120}, {"time": 227279, "pitch": 83, "duration": 240, "velocity": 120}, {"time": 227758, "pitch": 79, "duration": 360, "velocity": 120}, {"time": 228238, "pitch": 81, "duration": 120, "velocity": 120}, {"time": 228478, "pitch": 79, "duration": 360, "velocity": 120}, {"time": 228958, "pitch": 78, "duration": 599, "velocity": 120}, {"time": 229677, "pitch": 81, "duration": 1799, "velocity": 120}], "annotations": [{"time": 240, "annotation": {"number": 7, "value": 100}, "group": "control_change"}, {"time": 258, "annotation": {"number": 11, "value": 100}, "group": "control_change"}, {"time": 277, "annotation": {"number": 10, "value": 64}, "group": "control_change"}, {"time": 295, "annotation": {"number": 91, "value": 20}, "group": "control_change"}, {"time": 314, "annotation": {"number": 93, "value": 80}, "group": "control_change"}, {"time": 332, "annotation": {"number": 101, "value": 0}, "group": "control_change"}, {"time": 350, "annotation": {"number": 100, "value": 0}, "group": "control_change"}, {"time": 369, "annotation": {"number": 6, "value": 12}, "group": "control_change"}, {"time": 387, "annotation": {"number": 101, "value": 127}, "group": "control_change"}, {"time": 406, "annotation": {"number": 100, "value": 127}, "group": "control_change"}]}, {"program": 0, "is_drum": false, "name": "Gt.R", "annotations": [{"time": 184, "annotation": {"number": 0, "value": 0}, "group": "control_change"}, {"time": 203, "annotation": {"number": 32, "value": 2}, "group": "control_change"}]}, {"program": 30, "is_drum": false, "name": "Gt.R", "notes": [{"time": 17540, "pitch": 42, "duration": 210, "velocity": 84}, {"time": 17540, "pitch": 49, "duration": 217, "velocity": 91}, {"time": 17540, "pitch": 54, "duration": 210, "velocity": 109}, {"time": 17540, "pitch": 58, "duration": 193, "velocity": 102}, {"time": 17540, "pitch": 61, "duration": 190, "velocity": 106}, {"time": 17540, "pitch": 66, "duration": 197, "velocity": 92}, {"time": 17780, "pitch": 43, "duration": 588, "velocity": 84}, {"time": 17780, "pitch": 50, "duration": 214, "velocity": 91}, {"time": 17780, "pitch": 55, "duration": 192, "velocity": 109}, {"time": 17780, "pitch": 59, "duration": 169, "velocity": 102}, {"time": 17780, "pitch": 62, "duration": 166, "velocity": 106}, {"time": 17780, "pitch": 67, "duration": 173, "velocity": 92}, {"time": 18020, "pitch": 50, "duration": 278, "velocity": 85}, {"time": 18020, "pitch": 55, "duration": 202, "velocity": 106}, {"time": 18020, "pitch": 59, "duration": 236, "velocity": 109}, {"time": 18020, "pitch": 62, "duration": 220, "velocity": 111}, {"time": 18020, "pitch": 67, "duration": 256, "velocity": 102}, {"time": 18499, "pitch": 43, "duration": 151, "velocity": 127}, {"time": 18499, "pitch": 50, "duration": 231, "velocity": 98}, {"time": 18499, "pitch": 55, "duration": 223, "velocity": 110}, {"time": 18499, "pitch": 59, "duration": 213, "velocity": 102}, {"time": 18499, "pitch": 62, "duration": 204, "velocity": 106}, {"time": 18499, "pitch": 67, "duration": 211, "velocity": 95}, {"time": 18739, "pitch": 48, "duration": 146, "velocity": 127}, {"time": 18739, "pitch": 55, "duration": 148, "velocity": 102}, {"time": 18739, "pitch": 60, "duration": 175, "velocity": 97}, {"time": 18739, "pitch": 64, "duration": 155, "velocity": 105}, {"time": 18739, "pitch": 67, "duration": 150, "velocity": 98}, {"time": 18979, "pitch": 48, "duration": 216, "velocity": 127}, {"time": 18979, "pitch": 55, "duration": 226, "velocity": 123}, {"time": 18979, "pitch": 60, "duration": 199, "velocity": 104}, {"time": 18979, "pitch": 64, "duration": 200, "velocity": 116}, {"time": 18979, "pitch": 67, "duration": 226, "velocity": 110}, {"time": 19462, "pitch": 42, "duration": 232, "velocity": 84}, {"time": 19462, "pitch": 49, "duration": 238, "velocity": 91}, {"time": 19462, "pitch": 54, "duration": 232, "velocity": 109}, {"time": 19462, "pitch": 58, "duration": 215, "velocity": 102}, {"time": 19462, "pitch": 61, "duration": 212, "velocity": 106}, {"time": 19462, "pitch": 66, "duration": 219, "velocity": 92}, {"time": 19699, "pitch": 43, "duration": 588, "velocity": 84}, {"time": 19699, "pitch": 50, "duration": 213, "velocity": 91}, {"time": 19699, "pitch": 55, "duration": 191, "velocity": 109}, {"time": 19699, "pitch": 59, "duration": 168, "velocity": 102}, {"time": 19699, "pitch": 62, "duration": 165, "velocity": 106}, {"time": 19699, "pitch": 67, "duration": 172, "velocity": 92}, {"time": 19938, "pitch": 50, "duration": 279, "velocity": 85}, {"time": 19938, "pitch": 55, "duration": 203, "velocity": 106}, {"time": 19938, "pitch": 59, "duration": 237, "velocity": 109}, {"time": 19938, "pitch": 62, "duration": 221, "velocity": 111}, {"time": 19938, "pitch": 67, "duration": 257, "velocity": 102}, {"time": 20418, "pitch": 43, "duration": 151, "velocity": 127}, {"time": 20418, "pitch": 50, "duration": 231, "velocity": 98}, {"time": 20418, "pitch": 55, "duration": 223, "velocity": 110}, {"time": 20418, "pitch": 59, "duration": 213, "velocity": 102}, {"time": 20418, "pitch": 62, "duration": 204, "velocity": 106}, {"time": 20418, "pitch": 67, "duration": 211, "velocity": 95}, {"time": 20658, "pitch": 48, "duration": 146, "velocity": 127}, {"time": 20658, "pitch": 55, "duration": 148, "velocity": 102}, {"time": 20658, "pitch": 60, "duration": 175, "velocity": 97}, {"time": 20658, "pitch": 64, "duration": 155, "velocity": 105}, {"time": 20658, "pitch": 67, "duration": 150, "velocity": 98}, {"time": 20898, "pitch": 48, "duration": 216, "velocity": 127}, {"time": 20898, "pitch": 55, "duration": 226, "velocity": 123}, {"time": 20898, "pitch": 60, "duration": 199, "velocity": 104}, {"time": 20898, "pitch": 64, "duration": 200, "velocity": 116}, {"time": 20898, "pitch": 67, "duration": 226, "velocity": 110}, {"time": 21377, "pitch": 42, "duration": 232, "velocity": 84}, {"time": 21377, "pitch": 49, "duration": 239, "velocity": 91}, {"time": 21377, "pitch": 54, "duration": 232, "velocity": 109}, {"time": 21377, "pitch": 58, "duration": 215, "velocity": 102}, {"time": 21377, "pitch": 61, "duration": 212, "velocity": 106}, {"time": 21377, "pitch": 66, "duration": 219, "velocity": 92}, {"time": 21617, "pitch": 43, "duration": 589, "velocity": 84}, {"time": 21617, "pitch": 50, "duration": 214, "velocity": 91}, {"time": 21617, "pitch": 55, "duration": 192, "velocity": 109}, {"time": 21617, "pitch": 59, "duration": 169, "velocity": 102}, {"time": 21617, "pitch": 62, "duration": 166, "velocity": 106}, {"time": 21617, "pitch": 67, "duration": 173, "velocity": 92}, {"time": 21857, "pitch": 50, "duration": 279, "velocity": 85}, {"time": 21857, "pitch": 55, "duration": 203, "velocity": 106}, {"time": 21857, "pitch": 59, "duration": 237, "velocity": 109}, {"time": 21857, "pitch": 62, "duration": 221, "velocity": 111}, {"time": 21857, "pitch": 67, "duration": 257, "velocity": 102}, {"time": 22337, "pitch": 43, "duration": 151, "velocity": 127}, {"time": 22337, "pitch": 50, "duration": 231, "velocity": 98}, {"time": 22337, "pitch": 55, "duration": 223, "velocity": 110}, {"time": 22337, "pitch": 59, "duration": 213, "velocity": 102}, {"time": 22337, "pitch": 62, "duration": 204, "velocity": 106}, {"time": 22337, "pitch": 67, "duration": 211, "velocity": 95}, {"time": 22577, "pitch": 48, "duration": 145, "velocity": 127}, {"time": 22577, "pitch": 55, "duration": 147, "velocity": 102}, {"time": 22577, "pitch": 60, "duration": 174, "velocity": 97}, {"time": 22577, "pitch": 64, "duration": 154, "velocity": 105}, {"time": 22577, "pitch": 67, "duration": 149, "velocity": 98}, {"time": 22816, "pitch": 48, "duration": 216, "velocity": 127}, {"time": 22816, "pitch": 55, "duration": 226, "velocity": 123}, {"time": 22816, "pitch": 60, "duration": 199, "velocity": 104}, {"time": 22816, "pitch": 64, "duration": 200, "velocity": 116}, {"time": 22816, "pitch": 67, "duration": 226, "velocity": 110}, {"time": 23296, "pitch": 48, "duration": 171, "velocity": 127}, {"time": 23296, "pitch": 55, "duration": 177, "velocity": 113}, {"time": 23296, "pitch": 60, "duration": 204, "velocity": 92}, {"time": 23296, "pitch": 64, "duration": 179, "velocity": 96}, {"time": 23296, "pitch": 67, "duration": 204, "velocity": 99}, {"time": 23776, "pitch": 48, "duration": 174, "velocity": 127}, {"time": 23776, "pitch": 55, "duration": 217, "velocity": 100}, {"time": 23776, "pitch": 60, "duration": 217, "velocity": 107}, {"time": 23776, "pitch": 64, "duration": 242, "velocity": 122}, {"time": 23776, "pitch": 67, "duration": 219, "velocity": 105}, {"time": 24255, "pitch": 47, "duration": 192, "velocity": 127}, {"time": 24255, "pitch": 50, "duration": 205, "velocity": 106}, {"time": 24255, "pitch": 55, "duration": 212, "velocity": 102}, {"time": 24255, "pitch": 59, "duration": 203, "velocity": 105}, {"time": 24255, "pitch": 62, "duration": 197, "velocity": 110}, {"time": 24495, "pitch": 48, "duration": 169, "velocity": 127}, {"time": 24495, "pitch": 55, "duration": 218, "velocity": 100}, {"time": 24495, "pitch": 60, "duration": 188, "velocity": 107}, {"time": 24495, "pitch": 64, "duration": 231, "velocity": 122}, {"time": 24495, "pitch": 67, "duration": 218, "velocity": 105}, {"time": 24735, "pitch": 47, "duration": 165, "velocity": 127}, {"time": 24735, "pitch": 50, "duration": 240, "velocity": 106}, {"time": 24735, "pitch": 55, "duration": 179, "velocity": 102}, {"time": 24735, "pitch": 59, "duration": 187, "velocity": 105}, {"time": 24735, "pitch": 62, "duration": 181, "velocity": 110}, {"time": 24975, "pitch": 48, "duration": 214, "velocity": 127}, {"time": 24975, "pitch": 55, "duration": 229, "velocity": 100}, {"time": 24975, "pitch": 59, "duration": 209, "velocity": 107}, {"time": 24975, "pitch": 64, "duration": 210, "velocity": 105}, {"time": 24975, "pitch": 67, "duration": 206, "velocity": 122}, {"time": 25215, "pitch": 50, "duration": 190, "velocity": 127}, {"time": 25215, "pitch": 57, "duration": 229, "velocity": 100}, {"time": 25215, "pitch": 62, "duration": 209, "velocity": 107}, {"time": 25215, "pitch": 66, "duration": 206, "velocity": 122}, {"time": 25215, "pitch": 69, "duration": 210, "velocity": 105}, {"time": 25318, "pitch": 43, "duration": 239, "velocity": 84}, {"time": 25318, "pitch": 50, "duration": 87, "velocity": 91}, {"time": 25318, "pitch": 55, "duration": 180, "velocity": 109}, {"time": 25318, "pitch": 59, "duration": 157, "velocity": 102}, {"time": 25318, "pitch": 62, "duration": 106, "velocity": 106}, {"time": 25318, "pitch": 67, "duration": 161, "velocity": 92}, {"time": 25455, "pitch": 43, "duration": 102, "velocity": 84}, {"time": 25455, "pitch": 50, "duration": 65, "velocity": 91}, {"time": 25455, "pitch": 55, "duration": 43, "velocity": 109}, {"time": 25455, "pitch": 59, "duration": 20, "velocity": 102}, {"time": 25455, "pitch": 62, "duration": 17, "velocity": 106}, {"time": 25455, "pitch": 67, "duration": 24, "velocity": 92}, {"time": 25694, "pitch": 50, "duration": 279, "velocity": 85}, {"time": 25694, "pitch": 55, "duration": 203, "velocity": 106}, {"time": 25694, "pitch": 59, "duration": 237, "velocity": 109}, {"time": 25694, "pitch": 62, "duration": 221, "velocity": 111}, {"time": 25694, "pitch": 67, "duration": 257, "velocity": 102}, {"time": 26174, "pitch": 43, "duration": 151, "velocity": 127}, {"time": 26174, "pitch": 50, "duration": 231, "velocity": 98}, {"time": 26174, "pitch": 55, "duration": 223, "velocity": 110}, {"time": 26174, "pitch": 59, "duration": 213, "velocity": 102}, {"time": 26174, "pitch": 62, "duration": 204, "velocity": 106}, {"time": 26174, "pitch": 67, "duration": 211, "velocity": 95}, {"time": 26414, "pitch": 48, "duration": 146, "velocity": 127}, {"time": 26414, "pitch": 55, "duration": 148, "velocity": 102}, {"time": 26414, "pitch": 60, "duration": 175, "velocity": 97}, {"time": 26414, "pitch": 64, "duration": 155, "velocity": 105}, {"time": 26414, "pitch": 67, "duration": 150, "velocity": 98}, {"time": 26654, "pitch": 48, "duration": 216, "velocity": 127}, {"time": 26654, "pitch": 55, "duration": 226, "velocity": 123}, {"time": 26654, "pitch": 60, "duration": 199, "velocity": 104}, {"time": 26654, "pitch": 64, "duration": 200, "velocity": 116}, {"time": 26654, "pitch": 67, "duration": 226, "velocity": 110}, {"time": 27140, "pitch": 42, "duration": 238, "velocity": 84}, {"time": 27140, "pitch": 49, "duration": 245, "velocity": 91}, {"time": 27140, "pitch": 54, "duration": 238, "velocity": 109}, {"time": 27140, "pitch": 58, "duration": 221, "velocity": 102}, {"time": 27140, "pitch": 61, "duration": 218, "velocity": 106}, {"time": 27140, "pitch": 66, "duration": 225, "velocity": 92}, {"time": 27386, "pitch": 43, "duration": 589, "velocity": 84}, {"time": 27386, "pitch": 50, "duration": 214, "velocity": 91}, {"time": 27386, "pitch": 55, "duration": 192, "velocity": 109}, {"time": 27386, "pitch": 59, "duration": 169, "velocity": 102}, {"time": 27386, "pitch": 62, "duration": 166, "velocity": 106}, {"time": 27386, "pitch": 67, "duration": 173, "velocity": 92}, {"time": 27626, "pitch": 50, "duration": 279, "velocity": 85}, {"time": 27626, "pitch": 55, "duration": 203, "velocity": 106}, {"time": 27626, "pitch": 59, "duration": 237, "velocity": 109}, {"time": 27626, "pitch": 62, "duration": 221, "velocity": 111}, {"time": 27626, "pitch": 67, "duration": 257, "velocity": 102}, {"time": 28106, "pitch": 43, "duration": 150, "velocity": 127}, {"time": 28106, "pitch": 50, "duration": 230, "velocity": 98}, {"time": 28106, "pitch": 55, "duration": 222, "velocity": 110}, {"time": 28106, "pitch": 59, "duration": 212, "velocity": 102}, {"time": 28106, "pitch": 62, "duration": 203, "velocity": 106}, {"time": 28106, "pitch": 67, "duration": 210, "velocity": 95}, {"time": 28345, "pitch": 48, "duration": 146, "velocity": 127}, {"time": 28345, "pitch": 55, "duration": 148, "velocity": 102}, {"time": 28345, "pitch": 60, "duration": 175, "velocity": 97}, {"time": 28345, "pitch": 64, "duration": 155, "velocity": 105}, {"time": 28345, "pitch": 67, "duration": 150, "velocity": 98}, {"time": 28585, "pitch": 48, "duration": 216, "velocity": 127}, {"time": 28585, "pitch": 55, "duration": 226, "velocity": 123}, {"time": 28585, "pitch": 60, "duration": 199, "velocity": 104}, {"time": 28585, "pitch": 64, "duration": 200, "velocity": 116}, {"time": 28585, "pitch": 67, "duration": 226, "velocity": 110}, {"time": 29065, "pitch": 42, "duration": 232, "velocity": 84}, {"time": 29065, "pitch": 49, "duration": 239, "velocity": 91}, {"time": 29065, "pitch": 54, "duration": 232, "velocity": 109}, {"time": 29065, "pitch": 58, "duration": 215, "velocity": 102}, {"time": 29065, "pitch": 61, "duration": 212, "velocity": 106}, {"time": 29065, "pitch": 66, "duration": 219, "velocity": 92}, {"time": 29305, "pitch": 43, "duration": 588, "velocity": 84}, {"time": 29305, "pitch": 50, "duration": 214, "velocity": 91}, {"time": 29305, "pitch": 55, "duration": 192, "velocity": 109}, {"time": 29305, "pitch": 59, "duration": 169, "velocity": 102}, {"time": 29305, "pitch": 62, "duration": 166, "velocity": 106}, {"time": 29305, "pitch": 67, "duration": 173, "velocity": 92}, {"time": 29545, "pitch": 50, "duration": 278, "velocity": 85}, {"time": 29545, "pitch": 55, "duration": 202, "velocity": 106}, {"time": 29545, "pitch": 59, "duration": 236, "velocity": 109}, {"time": 29545, "pitch": 62, "duration": 220, "velocity": 111}, {"time": 29545, "pitch": 67, "duration": 256, "velocity": 102}, {"time": 30024, "pitch": 43, "duration": 151, "velocity": 127}, {"time": 30024, "pitch": 50, "duration": 231, "velocity": 98}, {"time": 30024, "pitch": 55, "duration": 223, "velocity": 110}, {"time": 30024, "pitch": 59, "duration": 213, "velocity": 102}, {"time": 30024, "pitch": 62, "duration": 204, "velocity": 106}, {"time": 30024, "pitch": 67, "duration": 211, "velocity": 95}, {"time": 30264, "pitch": 48, "duration": 146, "velocity": 127}, {"time": 30264, "pitch": 55, "duration": 148, "velocity": 102}, {"time": 30264, "pitch": 60, "duration": 175, "velocity": 97}, {"time": 30264, "pitch": 64, "duration": 155, "velocity": 105}, {"time": 30264, "pitch": 67, "duration": 150, "velocity": 98}, {"time": 30504, "pitch": 48, "duration": 216, "velocity": 127}, {"time": 30504, "pitch": 55, "duration": 226, "velocity": 123}, {"time": 30504, "pitch": 60, "duration": 199, "velocity": 104}, {"time": 30504, "pitch": 64, "duration": 200, "velocity": 116}, {"time": 30504, "pitch": 67, "duration": 226, "velocity": 110}, {"time": 30984, "pitch": 48, "duration": 170, "velocity": 127}, {"time": 30984, "pitch": 55, "duration": 176, "velocity": 113}, {"time": 30984, "pitch": 60, "duration": 203, "velocity": 92}, {"time": 30984, "pitch": 64, "duration": 178, "velocity": 96}, {"time": 30984, "pitch": 67, "duration": 203, "velocity": 99}, {"time": 31463, "pitch": 48, "duration": 174, "velocity": 127}, {"time": 31463, "pitch": 55, "duration": 217, "velocity": 100}, {"time": 31463, "pitch": 60, "duration": 217, "velocity": 107}, {"time": 31463, "pitch": 64, "duration": 242, "velocity": 122}, {"time": 31463, "pitch": 67, "duration": 219, "velocity": 105}, {"time": 31943, "pitch": 47, "duration": 192, "velocity": 127}, {"time": 31943, "pitch": 50, "duration": 205, "velocity": 106}, {"time": 31943, "pitch": 55, "duration": 212, "velocity": 102}, {"time": 31943, "pitch": 59, "duration": 203, "velocity": 105}, {"time": 31943, "pitch": 62, "duration": 197, "velocity": 110}, {"time": 32183, "pitch": 48, "duration": 169, "velocity": 127}, {"time": 32183, "pitch": 55, "duration": 218, "velocity": 100}, {"time": 32183, "pitch": 60, "duration": 188, "velocity": 107}, {"time": 32183, "pitch": 64, "duration": 231, "velocity": 122}, {"time": 32183, "pitch": 67, "duration": 218, "velocity": 105}, {"time": 32423, "pitch": 47, "duration": 165, "velocity": 127}, {"time": 32423, "pitch": 50, "duration": 239, "velocity": 106}, {"time": 32423, "pitch": 55, "duration": 179, "velocity": 102}, {"time": 32423, "pitch": 59, "duration": 187, "velocity": 105}, {"time": 32423, "pitch": 62, "duration": 181, "velocity": 110}, {"time": 32662, "pitch": 48, "duration": 214, "velocity": 127}, {"time": 32662, "pitch": 55, "duration": 229, "velocity": 100}, {"time": 32662, "pitch": 59, "duration": 209, "velocity": 107}, {"time": 32662, "pitch": 64, "duration": 206, "velocity": 122}, {"time": 32662, "pitch": 67, "duration": 210, "velocity": 105}, {"time": 32902, "pitch": 50, "duration": 190, "velocity": 127}, {"time": 32902, "pitch": 57, "duration": 229, "velocity": 100}, {"time": 32902, "pitch": 62, "duration": 209, "velocity": 107}, {"time": 32902, "pitch": 66, "duration": 206, "velocity": 122}, {"time": 32902, "pitch": 69, "duration": 210, "velocity": 105}, {"time": 63854, "pitch": 48, "duration": 1818, "velocity": 109}, {"time": 63854, "pitch": 55, "duration": 1861, "velocity": 127}, {"time": 63854, "pitch": 60, "duration": 1890, "velocity": 127}, {"time": 63854, "pitch": 64, "duration": 1848, "velocity": 127}, {"time": 63854, "pitch": 67, "duration": 1856, "velocity": 127}, {"time": 65788, "pitch": 48, "duration": 1817, "velocity": 111}, {"time": 65788, "pitch": 55, "duration": 1843, "velocity": 127}, {"time": 65788, "pitch": 60, "duration": 1882, "velocity": 127}, {"time": 65788, "pitch": 63, "duration": 1840, "velocity": 127}, {"time": 65788, "pitch": 67, "duration": 1895, "velocity": 127}, {"time": 67704, "pitch": 43, "duration": 1911, "velocity": 116}, {"time": 67704, "pitch": 50, "duration": 1860, "velocity": 127}, {"time": 67704, "pitch": 55, "duration": 1868, "velocity": 127}, {"time": 67704, "pitch": 59, "duration": 1847, "velocity": 127}, {"time": 67704, "pitch": 62, "duration": 1853, "velocity": 127}, {"time": 67704, "pitch": 67, "duration": 1874, "velocity": 120}, {"time": 69623, "pitch": 42, "duration": 235, "velocity": 115}, {"time": 69623, "pitch": 49, "duration": 235, "velocity": 105}, {"time": 69623, "pitch": 54, "duration": 226, "velocity": 127}, {"time": 69623, "pitch": 58, "duration": 232, "velocity": 108}, {"time": 69623, "pitch": 61, "duration": 232, "velocity": 111}, {"time": 69623, "pitch": 66, "duration": 232, "velocity": 110}, {"time": 69863, "pitch": 43, "duration": 157, "velocity": 124}, {"time": 69863, "pitch": 50, "duration": 157, "velocity": 127}, {"time": 69863, "pitch": 55, "duration": 139, "velocity": 127}, {"time": 69863, "pitch": 59, "duration": 149, "velocity": 114}, {"time": 69863, "pitch": 62, "duration": 149, "velocity": 123}, {"time": 69863, "pitch": 67, "duration": 149, "velocity": 125}, {"time": 70100, "pitch": 59, "duration": 180, "velocity": 112}, {"time": 70103, "pitch": 43, "duration": 178, "velocity": 118}, {"time": 70103, "pitch": 50, "duration": 178, "velocity": 126}, {"time": 70103, "pitch": 55, "duration": 175, "velocity": 127}, {"time": 70103, "pitch": 62, "duration": 180, "velocity": 127}, {"time": 70103, "pitch": 67, "duration": 180, "velocity": 122}, {"time": 70343, "pitch": 42, "duration": 232, "velocity": 127}, {"time": 70343, "pitch": 49, "duration": 232, "velocity": 119}, {"time": 70343, "pitch": 54, "duration": 225, "velocity": 127}, {"time": 70343, "pitch": 58, "duration": 232, "velocity": 107}, {"time": 70343, "pitch": 61, "duration": 232, "velocity": 115}, {"time": 70343, "pitch": 66, "duration": 232, "velocity": 102}, {"time": 70582, "pitch": 43, "duration": 156, "velocity": 107}, {"time": 70582, "pitch": 50, "duration": 156, "velocity": 119}, {"time": 70582, "pitch": 55, "duration": 144, "velocity": 127}, {"time": 70582, "pitch": 59, "duration": 158, "velocity": 112}, {"time": 70582, "pitch": 62, "duration": 158, "velocity": 115}, {"time": 70582, "pitch": 67, "duration": 158, "velocity": 119}, {"time": 70822, "pitch": 43, "duration": 164, "velocity": 111}, {"time": 70822, "pitch": 50, "duration": 164, "velocity": 127}, {"time": 70822, "pitch": 55, "duration": 162, "velocity": 127}, {"time": 70822, "pitch": 59, "duration": 161, "velocity": 115}, {"time": 70822, "pitch": 62, "duration": 161, "velocity": 126}, {"time": 70822, "pitch": 67, "duration": 161, "velocity": 121}, {"time": 71062, "pitch": 42, "duration": 231, "velocity": 100}, {"time": 71062, "pitch": 49, "duration": 231, "velocity": 101}, {"time": 71062, "pitch": 54, "duration": 235, "velocity": 127}, {"time": 71062, "pitch": 58, "duration": 231, "velocity": 107}, {"time": 71062, "pitch": 61, "duration": 231, "velocity": 111}, {"time": 71062, "pitch": 66, "duration": 231, "velocity": 112}, {"time": 71302, "pitch": 43, "duration": 165, "velocity": 118}, {"time": 71302, "pitch": 50, "duration": 165, "velocity": 111}, {"time": 71302, "pitch": 55, "duration": 165, "velocity": 127}, {"time": 71302, "pitch": 59, "duration": 167, "velocity": 119}, {"time": 71302, "pitch": 62, "duration": 167, "velocity": 114}, {"time": 71302, "pitch": 67, "duration": 167, "velocity": 122}, {"time": 71542, "pitch": 48, "duration": 1805, "velocity": 109}, {"time": 71542, "pitch": 55, "duration": 1848, "velocity": 127}, {"time": 71542, "pitch": 60, "duration": 1876, "velocity": 127}, {"time": 71542, "pitch": 64, "duration": 1835, "velocity": 127}, {"time": 71542, "pitch": 67, "duration": 1843, "velocity": 127}, {"time": 73461, "pitch": 48, "duration": 1818, "velocity": 111}, {"time": 73461, "pitch": 55, "duration": 1844, "velocity": 127}, {"time": 73461, "pitch": 60, "duration": 1883, "velocity": 127}, {"time": 73461, "pitch": 63, "duration": 1841, "velocity": 127}, {"time": 73461, "pitch": 67, "duration": 1896, "velocity": 127}, {"time": 75379, "pitch": 43, "duration": 1911, "velocity": 116}, {"time": 75379, "pitch": 50, "duration": 1860, "velocity": 127}, {"time": 75379, "pitch": 55, "duration": 1868, "velocity": 127}, {"time": 75379, "pitch": 59, "duration": 1847, "velocity": 127}, {"time": 75379, "pitch": 62, "duration": 1853, "velocity": 127}, {"time": 75379, "pitch": 67, "duration": 1874, "velocity": 120}, {"time": 77298, "pitch": 42, "duration": 235, "velocity": 115}, {"time": 77298, "pitch": 49, "duration": 235, "velocity": 105}, {"time": 77298, "pitch": 54, "duration": 226, "velocity": 127}, {"time": 77298, "pitch": 58, "duration": 232, "velocity": 108}, {"time": 77298, "pitch": 61, "duration": 232, "velocity": 111}, {"time": 77298, "pitch": 66, "duration": 232, "velocity": 110}, {"time": 77538, "pitch": 43, "duration": 157, "velocity": 124}, {"time": 77538, "pitch": 50, "duration": 157, "velocity": 127}, {"time": 77538, "pitch": 55, "duration": 139, "velocity": 127}, {"time": 77538, "pitch": 59, "duration": 149, "velocity": 114}, {"time": 77538, "pitch": 62, "duration": 149, "velocity": 123}, {"time": 77538, "pitch": 67, "duration": 149, "velocity": 125}, {"time": 77775, "pitch": 59, "duration": 179, "velocity": 112}, {"time": 77778, "pitch": 43, "duration": 177, "velocity": 118}, {"time": 77778, "pitch": 50, "duration": 177, "velocity": 126}, {"time": 77778, "pitch": 55, "duration": 174, "velocity": 127}, {"time": 77778, "pitch": 62, "duration": 179, "velocity": 127}, {"time": 77778, "pitch": 67, "duration": 179, "velocity": 122}, {"time": 78017, "pitch": 42, "duration": 233, "velocity": 127}, {"time": 78017, "pitch": 49, "duration": 233, "velocity": 119}, {"time": 78017, "pitch": 54, "duration": 226, "velocity": 127}, {"time": 78017, "pitch": 58, "duration": 233, "velocity": 107}, {"time": 78017, "pitch": 61, "duration": 233, "velocity": 115}, {"time": 78017, "pitch": 66, "duration": 233, "velocity": 102}, {"time": 78257, "pitch": 43, "duration": 156, "velocity": 107}, {"time": 78257, "pitch": 50, "duration": 156, "velocity": 119}, {"time": 78257, "pitch": 55, "duration": 144, "velocity": 127}, {"time": 78257, "pitch": 59, "duration": 158, "velocity": 112}, {"time": 78257, "pitch": 62, "duration": 158, "velocity": 115}, {"time": 78257, "pitch": 67, "duration": 158, "velocity": 119}, {"time": 78497, "pitch": 43, "duration": 164, "velocity": 111}, {"time": 78497, "pitch": 50, "duration": 164, "velocity": 127}, {"time": 78497, "pitch": 55, "duration": 162, "velocity": 127}, {"time": 78497, "pitch": 59, "duration": 161, "velocity": 115}, {"time": 78497, "pitch": 62, "duration": 161, "velocity": 126}, {"time": 78497, "pitch": 67, "duration": 161, "velocity": 121}, {"time": 78737, "pitch": 42, "duration": 231, "velocity": 100}, {"time": 78737, "pitch": 49, "duration": 231, "velocity": 101}, {"time": 78737, "pitch": 54, "duration": 235, "velocity": 127}, {"time": 78737, "pitch": 58, "duration": 231, "velocity": 107}, {"time": 78737, "pitch": 61, "duration": 231, "velocity": 111}, {"time": 78737, "pitch": 66, "duration": 231, "velocity": 112}, {"time": 78977, "pitch": 43, "duration": 165, "velocity": 118}, {"time": 78977, "pitch": 50, "duration": 165, "velocity": 111}, {"time": 78977, "pitch": 55, "duration": 165, "velocity": 127}, {"time": 78977, "pitch": 59, "duration": 167, "velocity": 119}, {"time": 78977, "pitch": 62, "duration": 167, "velocity": 114}, {"time": 78977, "pitch": 67, "duration": 167, "velocity": 122}, {"time": 94579, "pitch": 48, "duration": 1805, "velocity": 91}, {"time": 94579, "pitch": 55, "duration": 1848, "velocity": 127}, {"time": 94579, "pitch": 60, "duration": 1877, "velocity": 127}, {"time": 94579, "pitch": 64, "duration": 1835, "velocity": 127}, {"time": 94579, "pitch": 67, "duration": 1843, "velocity": 127}, {"time": 96500, "pitch": 48, "duration": 1817, "velocity": 93}, {"time": 96500, "pitch": 55, "duration": 1843, "velocity": 127}, {"time": 96500, "pitch": 60, "duration": 1882, "velocity": 127}, {"time": 96500, "pitch": 63, "duration": 1840, "velocity": 127}, {"time": 96500, "pitch": 67, "duration": 1895, "velocity": 127}, {"time": 98416, "pitch": 43, "duration": 1911, "velocity": 106}, {"time": 98416, "pitch": 50, "duration": 1860, "velocity": 119}, {"time": 98416, "pitch": 55, "duration": 1868, "velocity": 117}, {"time": 98416, "pitch": 59, "duration": 1847, "velocity": 120}, {"time": 98416, "pitch": 62, "duration": 1853, "velocity": 118}, {"time": 98416, "pitch": 67, "duration": 1874, "velocity": 110}, {"time": 100335, "pitch": 42, "duration": 235, "velocity": 105}, {"time": 100335, "pitch": 49, "duration": 235, "velocity": 95}, {"time": 100335, "pitch": 54, "duration": 226, "velocity": 127}, {"time": 100335, "pitch": 58, "duration": 232, "velocity": 98}, {"time": 100335, "pitch": 61, "duration": 232, "velocity": 101}, {"time": 100335, "pitch": 66, "duration": 232, "velocity": 100}, {"time": 100575, "pitch": 43, "duration": 157, "velocity": 114}, {"time": 100575, "pitch": 50, "duration": 157, "velocity": 119}, {"time": 100575, "pitch": 55, "duration": 139, "velocity": 122}, {"time": 100575, "pitch": 59, "duration": 149, "velocity": 104}, {"time": 100575, "pitch": 62, "duration": 149, "velocity": 113}, {"time": 100575, "pitch": 67, "duration": 149, "velocity": 115}, {"time": 100812, "pitch": 59, "duration": 180, "velocity": 102}, {"time": 100815, "pitch": 43, "duration": 178, "velocity": 108}, {"time": 100815, "pitch": 50, "duration": 178, "velocity": 116}, {"time": 100815, "pitch": 55, "duration": 175, "velocity": 122}, {"time": 100815, "pitch": 62, "duration": 180, "velocity": 121}, {"time": 100815, "pitch": 67, "duration": 180, "velocity": 112}, {"time": 101055, "pitch": 42, "duration": 232, "velocity": 117}, {"time": 101055, "pitch": 49, "duration": 232, "velocity": 109}, {"time": 101055, "pitch": 54, "duration": 225, "velocity": 127}, {"time": 101055, "pitch": 58, "duration": 232, "velocity": 97}, {"time": 101055, "pitch": 61, "duration": 232, "velocity": 105}, {"time": 101055, "pitch": 66, "duration": 232, "velocity": 92}, {"time": 101294, "pitch": 43, "duration": 156, "velocity": 97}, {"time": 101294, "pitch": 50, "duration": 156, "velocity": 109}, {"time": 101294, "pitch": 55, "duration": 144, "velocity": 127}, {"time": 101294, "pitch": 59, "duration": 158, "velocity": 102}, {"time": 101294, "pitch": 62, "duration": 158, "velocity": 105}, {"time": 101294, "pitch": 67, "duration": 158, "velocity": 109}, {"time": 101534, "pitch": 43, "duration": 164, "velocity": 101}, {"time": 101534, "pitch": 50, "duration": 164, "velocity": 119}, {"time": 101534, "pitch": 55, "duration": 162, "velocity": 122}, {"time": 101534, "pitch": 59, "duration": 161, "velocity": 105}, {"time": 101534, "pitch": 62, "duration": 161, "velocity": 116}, {"time": 101534, "pitch": 67, "duration": 161, "velocity": 111}, {"time": 101774, "pitch": 42, "duration": 231, "velocity": 90}, {"time": 101774, "pitch": 49, "duration": 231, "velocity": 91}, {"time": 101774, "pitch": 54, "duration": 235, "velocity": 127}, {"time": 101774, "pitch": 58, "duration": 231, "velocity": 97}, {"time": 101774, "pitch": 61, "duration": 231, "velocity": 101}, {"time": 101774, "pitch": 66, "duration": 231, "velocity": 102}, {"time": 102014, "pitch": 43, "duration": 165, "velocity": 108}, {"time": 102014, "pitch": 50, "duration": 165, "velocity": 101}, {"time": 102014, "pitch": 55, "duration": 165, "velocity": 127}, {"time": 102014, "pitch": 59, "duration": 167, "velocity": 109}, {"time": 102014, "pitch": 62, "duration": 167, "velocity": 104}, {"time": 102014, "pitch": 67, "duration": 167, "velocity": 112}, {"time": 102254, "pitch": 48, "duration": 1817, "velocity": 91}, {"time": 102254, "pitch": 55, "duration": 1860, "velocity": 127}, {"time": 102254, "pitch": 60, "duration": 1889, "velocity": 127}, {"time": 102254, "pitch": 64, "duration": 1847, "velocity": 127}, {"time": 102254, "pitch": 67, "duration": 1855, "velocity": 127}, {"time": 104186, "pitch": 48, "duration": 1818, "velocity": 93}, {"time": 104186, "pitch": 55, "duration": 1844, "velocity": 127}, {"time": 104186, "pitch": 60, "duration": 1883, "velocity": 127}, {"time": 104186, "pitch": 63, "duration": 1841, "velocity": 127}, {"time": 104186, "pitch": 67, "duration": 1896, "velocity": 127}, {"time": 106104, "pitch": 43, "duration": 1951, "velocity": 104}, {"time": 106104, "pitch": 50, "duration": 1900, "velocity": 117}, {"time": 106104, "pitch": 55, "duration": 1909, "velocity": 115}, {"time": 106104, "pitch": 59, "duration": 1887, "velocity": 118}, {"time": 106104, "pitch": 62, "duration": 1894, "velocity": 116}, {"time": 106104, "pitch": 67, "duration": 1915, "velocity": 108}, {"time": 108023, "pitch": 50, "duration": 1804, "velocity": 91}, {"time": 108023, "pitch": 57, "duration": 1847, "velocity": 127}, {"time": 108023, "pitch": 62, "duration": 1876, "velocity": 127}, {"time": 108023, "pitch": 66, "duration": 1834, "velocity": 127}, {"time": 108023, "pitch": 69, "duration": 1842, "velocity": 127}, {"time": 109941, "pitch": 43, "duration": 510, "velocity": 105}, {"time": 109941, "pitch": 50, "duration": 449, "velocity": 103}, {"time": 109941, "pitch": 55, "duration": 583, "velocity": 105}, {"time": 109941, "pitch": 59, "duration": 583, "velocity": 105}, {"time": 109941, "pitch": 62, "duration": 581, "velocity": 105}, {"time": 110661, "pitch": 43, "duration": 188, "velocity": 105}, {"time": 110661, "pitch": 50, "duration": 252, "velocity": 105}, {"time": 110661, "pitch": 55, "duration": 272, "velocity": 98}, {"time": 110661, "pitch": 59, "duration": 234, "velocity": 105}, {"time": 110661, "pitch": 62, "duration": 249, "velocity": 103}, {"time": 111141, "pitch": 43, "duration": 166, "velocity": 105}, {"time": 111141, "pitch": 50, "duration": 162, "velocity": 105}, {"time": 111141, "pitch": 55, "duration": 250, "velocity": 103}, {"time": 111141, "pitch": 59, "duration": 206, "velocity": 105}, {"time": 111141, "pitch": 62, "duration": 203, "velocity": 105}, {"time": 111620, "pitch": 43, "duration": 123, "velocity": 105}, {"time": 111620, "pitch": 50, "duration": 153, "velocity": 103}, {"time": 111620, "pitch": 55, "duration": 236, "velocity": 86}, {"time": 111620, "pitch": 59, "duration": 209, "velocity": 105}, {"time": 111620, "pitch": 62, "duration": 212, "velocity": 105}, {"time": 111860, "pitch": 45, "duration": 503, "velocity": 104}, {"time": 111860, "pitch": 52, "duration": 477, "velocity": 105}, {"time": 111860, "pitch": 57, "duration": 575, "velocity": 105}, {"time": 111860, "pitch": 60, "duration": 566, "velocity": 105}, {"time": 111860, "pitch": 64, "duration": 581, "velocity": 103}, {"time": 112580, "pitch": 45, "duration": 206, "velocity": 105}, {"time": 112580, "pitch": 52, "duration": 215, "velocity": 105}, {"time": 112580, "pitch": 57, "duration": 313, "velocity": 91}, {"time": 112580, "pitch": 60, "duration": 308, "velocity": 105}, {"time": 112580, "pitch": 64, "duration": 311, "velocity": 103}, {"time": 113059, "pitch": 45, "duration": 177, "velocity": 105}, {"time": 113059, "pitch": 52, "duration": 189, "velocity": 105}, {"time": 113059, "pitch": 57, "duration": 269, "velocity": 94}, {"time": 113059, "pitch": 60, "duration": 236, "velocity": 103}, {"time": 113059, "pitch": 64, "duration": 247, "velocity": 86}, {"time": 113539, "pitch": 45, "duration": 131, "velocity": 105}, {"time": 113539, "pitch": 52, "duration": 169, "velocity": 105}, {"time": 113539, "pitch": 57, "duration": 238, "velocity": 94}, {"time": 113539, "pitch": 60, "duration": 217, "velocity": 105}, {"time": 113539, "pitch": 64, "duration": 230, "velocity": 103}, {"time": 113779, "pitch": 48, "duration": 551, "velocity": 105}, {"time": 113779, "pitch": 55, "duration": 528, "velocity": 98}, {"time": 113779, "pitch": 59, "duration": 515, "velocity": 105}, {"time": 113779, "pitch": 64, "duration": 518, "velocity": 105}, {"time": 114498, "pitch": 48, "duration": 317, "velocity": 105}, {"time": 114498, "pitch": 55, "duration": 266, "velocity": 100}, {"time": 114498, "pitch": 59, "duration": 266, "velocity": 105}, {"time": 114498, "pitch": 64, "duration": 271, "velocity": 94}, {"time": 114978, "pitch": 48, "duration": 227, "velocity": 105}, {"time": 114978, "pitch": 55, "duration": 214, "velocity": 90}, {"time": 114978, "pitch": 59, "duration": 212, "velocity": 105}, {"time": 114978, "pitch": 64, "duration": 212, "velocity": 93}, {"time": 115458, "pitch": 48, "duration": 118, "velocity": 105}, {"time": 115458, "pitch": 55, "duration": 250, "velocity": 91}, {"time": 115458, "pitch": 59, "duration": 237, "velocity": 105}, {"time": 115458, "pitch": 64, "duration": 254, "velocity": 103}, {"time": 115697, "pitch": 50, "duration": 560, "velocity": 105}, {"time": 115697, "pitch": 57, "duration": 531, "velocity": 105}, {"time": 115697, "pitch": 62, "duration": 572, "velocity": 103}, {"time": 115697, "pitch": 66, "duration": 556, "velocity": 105}, {"time": 115697, "pitch": 69, "duration": 572, "velocity": 77}, {"time": 116417, "pitch": 50, "duration": 284, "velocity": 105}, {"time": 116417, "pitch": 57, "duration": 285, "velocity": 105}, {"time": 116417, "pitch": 62, "duration": 335, "velocity": 103}, {"time": 116417, "pitch": 66, "duration": 299, "velocity": 105}, {"time": 116417, "pitch": 69, "duration": 332, "velocity": 69}, {"time": 116897, "pitch": 50, "duration": 194, "velocity": 105}, {"time": 116897, "pitch": 57, "duration": 203, "velocity": 105}, {"time": 116897, "pitch": 62, "duration": 316, "velocity": 86}, {"time": 116897, "pitch": 66, "duration": 278, "velocity": 105}, {"time": 116897, "pitch": 69, "duration": 289, "velocity": 70}, {"time": 117376, "pitch": 50, "duration": 127, "velocity": 105}, {"time": 117376, "pitch": 57, "duration": 153, "velocity": 105}, {"time": 117376, "pitch": 62, "duration": 208, "velocity": 100}, {"time": 117376, "pitch": 66, "duration": 180, "velocity": 105}, {"time": 117376, "pitch": 69, "duration": 192, "velocity": 72}, {"time": 117616, "pitch": 43, "duration": 510, "velocity": 105}, {"time": 117616, "pitch": 50, "duration": 449, "velocity": 103}, {"time": 117616, "pitch": 55, "duration": 583, "velocity": 105}, {"time": 117616, "pitch": 59, "duration": 583, "velocity": 105}, {"time": 117616, "pitch": 62, "duration": 581, "velocity": 105}, {"time": 118336, "pitch": 43, "duration": 188, "velocity": 105}, {"time": 118336, "pitch": 50, "duration": 252, "velocity": 105}, {"time": 118336, "pitch": 55, "duration": 272, "velocity": 98}, {"time": 118336, "pitch": 59, "duration": 234, "velocity": 105}, {"time": 118336, "pitch": 62, "duration": 249, "velocity": 103}, {"time": 118815, "pitch": 43, "duration": 167, "velocity": 105}, {"time": 118815, "pitch": 50, "duration": 163, "velocity": 105}, {"time": 118815, "pitch": 55, "duration": 251, "velocity": 103}, {"time": 118815, "pitch": 59, "duration": 207, "velocity": 105}, {"time": 118815, "pitch": 62, "duration": 204, "velocity": 105}, {"time": 119295, "pitch": 43, "duration": 123, "velocity": 105}, {"time": 119295, "pitch": 50, "duration": 153, "velocity": 103}, {"time": 119295, "pitch": 55, "duration": 236, "velocity": 86}, {"time": 119295, "pitch": 59, "duration": 209, "velocity": 105}, {"time": 119295, "pitch": 62, "duration": 212, "velocity": 105}, {"time": 119535, "pitch": 45, "duration": 503, "velocity": 104}, {"time": 119535, "pitch": 52, "duration": 477, "velocity": 105}, {"time": 119535, "pitch": 57, "duration": 575, "velocity": 105}, {"time": 119535, "pitch": 60, "duration": 566, "velocity": 105}, {"time": 119535, "pitch": 64, "duration": 581, "velocity": 103}, {"time": 120254, "pitch": 45, "duration": 207, "velocity": 105}, {"time": 120254, "pitch": 52, "duration": 216, "velocity": 105}, {"time": 120254, "pitch": 57, "duration": 314, "velocity": 91}, {"time": 120254, "pitch": 60, "duration": 309, "velocity": 105}, {"time": 120254, "pitch": 64, "duration": 312, "velocity": 103}, {"time": 120734, "pitch": 45, "duration": 177, "velocity": 105}, {"time": 120734, "pitch": 52, "duration": 189, "velocity": 105}, {"time": 120734, "pitch": 57, "duration": 270, "velocity": 94}, {"time": 120734, "pitch": 60, "duration": 236, "velocity": 103}, {"time": 120734, "pitch": 64, "duration": 248, "velocity": 86}, {"time": 121221, "pitch": 45, "duration": 134, "velocity": 105}, {"time": 121221, "pitch": 52, "duration": 173, "velocity": 105}, {"time": 121221, "pitch": 57, "duration": 243, "velocity": 94}, {"time": 121221, "pitch": 60, "duration": 222, "velocity": 105}, {"time": 121221, "pitch": 64, "duration": 235, "velocity": 103}, {"time": 121466, "pitch": 48, "duration": 552, "velocity": 105}, {"time": 121466, "pitch": 55, "duration": 529, "velocity": 98}, {"time": 121466, "pitch": 59, "duration": 516, "velocity": 105}, {"time": 121466, "pitch": 64, "duration": 519, "velocity": 105}, {"time": 122186, "pitch": 48, "duration": 317, "velocity": 105}, {"time": 122186, "pitch": 55, "duration": 266, "velocity": 100}, {"time": 122186, "pitch": 59, "duration": 266, "velocity": 105}, {"time": 122186, "pitch": 64, "duration": 271, "velocity": 94}, {"time": 122665, "pitch": 48, "duration": 227, "velocity": 105}, {"time": 122665, "pitch": 55, "duration": 214, "velocity": 90}, {"time": 122665, "pitch": 59, "duration": 212, "velocity": 105}, {"time": 122665, "pitch": 64, "duration": 212, "velocity": 93}, {"time": 123145, "pitch": 48, "duration": 118, "velocity": 105}, {"time": 123145, "pitch": 55, "duration": 251, "velocity": 91}, {"time": 123145, "pitch": 59, "duration": 238, "velocity": 105}, {"time": 123145, "pitch": 64, "duration": 255, "velocity": 103}, {"time": 123385, "pitch": 50, "duration": 560, "velocity": 105}, {"time": 123385, "pitch": 57, "duration": 531, "velocity": 105}, {"time": 123385, "pitch": 62, "duration": 572, "velocity": 103}, {"time": 123385, "pitch": 66, "duration": 556, "velocity": 105}, {"time": 123385, "pitch": 69, "duration": 572, "velocity": 77}, {"time": 124105, "pitch": 50, "duration": 283, "velocity": 105}, {"time": 124105, "pitch": 57, "duration": 284, "velocity": 105}, {"time": 124105, "pitch": 62, "duration": 334, "velocity": 103}, {"time": 124105, "pitch": 66, "duration": 298, "velocity": 105}, {"time": 124105, "pitch": 69, "duration": 331, "velocity": 69}, {"time": 124584, "pitch": 50, "duration": 194, "velocity": 105}, {"time": 124584, "pitch": 57, "duration": 203, "velocity": 105}, {"time": 124584, "pitch": 62, "duration": 317, "velocity": 86}, {"time": 124584, "pitch": 66, "duration": 278, "velocity": 105}, {"time": 124584, "pitch": 69, "duration": 290, "velocity": 70}, {"time": 125064, "pitch": 50, "duration": 127, "velocity": 105}, {"time": 125064, "pitch": 57, "duration": 153, "velocity": 105}, {"time": 125064, "pitch": 62, "duration": 208, "velocity": 100}, {"time": 125064, "pitch": 66, "duration": 180, "velocity": 105}, {"time": 125064, "pitch": 69, "duration": 192, "velocity": 72}, {"time": 125304, "pitch": 43, "duration": 509, "velocity": 105}, {"time": 125304, "pitch": 50, "duration": 448, "velocity": 103}, {"time": 125304, "pitch": 55, "duration": 582, "velocity": 105}, {"time": 125304, "pitch": 59, "duration": 582, "velocity": 105}, {"time": 125304, "pitch": 62, "duration": 580, "velocity": 105}, {"time": 126023, "pitch": 43, "duration": 188, "velocity": 105}, {"time": 126023, "pitch": 50, "duration": 252, "velocity": 105}, {"time": 126023, "pitch": 55, "duration": 272, "velocity": 98}, {"time": 126023, "pitch": 59, "duration": 234, "velocity": 105}, {"time": 126023, "pitch": 62, "duration": 249, "velocity": 103}, {"time": 126503, "pitch": 43, "duration": 167, "velocity": 105}, {"time": 126503, "pitch": 50, "duration": 163, "velocity": 105}, {"time": 126503, "pitch": 55, "duration": 251, "velocity": 103}, {"time": 126503, "pitch": 59, "duration": 207, "velocity": 105}, {"time": 126503, "pitch": 62, "duration": 204, "velocity": 105}, {"time": 126983, "pitch": 43, "duration": 123, "velocity": 105}, {"time": 126983, "pitch": 50, "duration": 152, "velocity": 103}, {"time": 126983, "pitch": 55, "duration": 235, "velocity": 86}, {"time": 126983, "pitch": 59, "duration": 208, "velocity": 105}, {"time": 126983, "pitch": 62, "duration": 211, "velocity": 105}, {"time": 127222, "pitch": 45, "duration": 503, "velocity": 104}, {"time": 127222, "pitch": 52, "duration": 477, "velocity": 105}, {"time": 127222, "pitch": 57, "duration": 575, "velocity": 105}, {"time": 127222, "pitch": 60, "duration": 566, "velocity": 105}, {"time": 127222, "pitch": 64, "duration": 581, "velocity": 103}, {"time": 127942, "pitch": 45, "duration": 207, "velocity": 105}, {"time": 127942, "pitch": 52, "duration": 216, "velocity": 105}, {"time": 127942, "pitch": 57, "duration": 314, "velocity": 91}, {"time": 127942, "pitch": 60, "duration": 309, "velocity": 105}, {"time": 127942, "pitch": 64, "duration": 312, "velocity": 103}, {"time": 128422, "pitch": 45, "duration": 177, "velocity": 105}, {"time": 128422, "pitch": 52, "duration": 188, "velocity": 105}, {"time": 128422, "pitch": 57, "duration": 268, "velocity": 94}, {"time": 128422, "pitch": 60, "duration": 235, "velocity": 103}, {"time": 128422, "pitch": 64, "duration": 246, "velocity": 86}, {"time": 128901, "pitch": 45, "duration": 131, "velocity": 105}, {"time": 128901, "pitch": 52, "duration": 169, "velocity": 105}, {"time": 128901, "pitch": 57, "duration": 238, "velocity": 94}, {"time": 128901, "pitch": 60, "duration": 217, "velocity": 105}, {"time": 128901, "pitch": 64, "duration": 230, "velocity": 103}, {"time": 129141, "pitch": 48, "duration": 552, "velocity": 105}, {"time": 129141, "pitch": 55, "duration": 529, "velocity": 98}, {"time": 129141, "pitch": 59, "duration": 516, "velocity": 105}, {"time": 129141, "pitch": 64, "duration": 519, "velocity": 105}, {"time": 129861, "pitch": 48, "duration": 316, "velocity": 105}, {"time": 129861, "pitch": 55, "duration": 265, "velocity": 100}, {"time": 129861, "pitch": 59, "duration": 265, "velocity": 105}, {"time": 129861, "pitch": 64, "duration": 270, "velocity": 94}, {"time": 130340, "pitch": 48, "duration": 227, "velocity": 105}, {"time": 130340, "pitch": 55, "duration": 214, "velocity": 90}, {"time": 130340, "pitch": 59, "duration": 212, "velocity": 105}, {"time": 130340, "pitch": 64, "duration": 212, "velocity": 93}, {"time": 130820, "pitch": 48, "duration": 118, "velocity": 105}, {"time": 130820, "pitch": 55, "duration": 251, "velocity": 91}, {"time": 130820, "pitch": 59, "duration": 238, "velocity": 105}, {"time": 130820, "pitch": 64, "duration": 255, "velocity": 103}, {"time": 131060, "pitch": 50, "duration": 559, "velocity": 105}, {"time": 131060, "pitch": 57, "duration": 531, "velocity": 105}, {"time": 131060, "pitch": 62, "duration": 571, "velocity": 103}, {"time": 131060, "pitch": 66, "duration": 555, "velocity": 105}, {"time": 131060, "pitch": 69, "duration": 571, "velocity": 77}, {"time": 131779, "pitch": 50, "duration": 284, "velocity": 105}, {"time": 131779, "pitch": 57, "duration": 285, "velocity": 105}, {"time": 131779, "pitch": 62, "duration": 335, "velocity": 103}, {"time": 131779, "pitch": 66, "duration": 299, "velocity": 105}, {"time": 131779, "pitch": 69, "duration": 332, "velocity": 69}, {"time": 132259, "pitch": 50, "duration": 194, "velocity": 105}, {"time": 132259, "pitch": 57, "duration": 203, "velocity": 105}, {"time": 132259, "pitch": 62, "duration": 317, "velocity": 86}, {"time": 132259, "pitch": 66, "duration": 278, "velocity": 105}, {"time": 132259, "pitch": 69, "duration": 290, "velocity": 70}, {"time": 132739, "pitch": 50, "duration": 127, "velocity": 105}, {"time": 132739, "pitch": 57, "duration": 153, "velocity": 105}, {"time": 132739, "pitch": 62, "duration": 208, "velocity": 100}, {"time": 132739, "pitch": 66, "duration": 180, "velocity": 105}, {"time": 132739, "pitch": 69, "duration": 192, "velocity": 72}, {"time": 132979, "pitch": 43, "duration": 509, "velocity": 105}, {"time": 132979, "pitch": 50, "duration": 448, "velocity": 103}, {"time": 132979, "pitch": 55, "duration": 582, "velocity": 105}, {"time": 132979, "pitch": 59, "duration": 582, "velocity": 105}, {"time": 132979, "pitch": 62, "duration": 580, "velocity": 105}, {"time": 133698, "pitch": 43, "duration": 188, "velocity": 105}, {"time": 133698, "pitch": 50, "duration": 252, "velocity": 105}, {"time": 133698, "pitch": 55, "duration": 272, "velocity": 98}, {"time": 133698, "pitch": 59, "duration": 234, "velocity": 105}, {"time": 133698, "pitch": 62, "duration": 249, "velocity": 103}, {"time": 134178, "pitch": 43, "duration": 167, "velocity": 105}, {"time": 134178, "pitch": 50, "duration": 163, "velocity": 105}, {"time": 134178, "pitch": 55, "duration": 251, "velocity": 103}, {"time": 134178, "pitch": 59, "duration": 207, "velocity": 105}, {"time": 134178, "pitch": 62, "duration": 204, "velocity": 105}, {"time": 134657, "pitch": 43, "duration": 123, "velocity": 105}, {"time": 134657, "pitch": 50, "duration": 153, "velocity": 103}, {"time": 134657, "pitch": 55, "duration": 236, "velocity": 86}, {"time": 134657, "pitch": 59, "duration": 209, "velocity": 105}, {"time": 134657, "pitch": 62, "duration": 212, "velocity": 105}, {"time": 134897, "pitch": 45, "duration": 503, "velocity": 104}, {"time": 134897, "pitch": 52, "duration": 477, "velocity": 105}, {"time": 134897, "pitch": 57, "duration": 575, "velocity": 105}, {"time": 134897, "pitch": 60, "duration": 566, "velocity": 105}, {"time": 134897, "pitch": 64, "duration": 581, "velocity": 103}, {"time": 135617, "pitch": 45, "duration": 207, "velocity": 105}, {"time": 135617, "pitch": 52, "duration": 216, "velocity": 105}, {"time": 135617, "pitch": 57, "duration": 314, "velocity": 91}, {"time": 135617, "pitch": 60, "duration": 309, "velocity": 105}, {"time": 135617, "pitch": 64, "duration": 312, "velocity": 103}, {"time": 136096, "pitch": 45, "duration": 177, "velocity": 105}, {"time": 136096, "pitch": 52, "duration": 189, "velocity": 105}, {"time": 136096, "pitch": 57, "duration": 269, "velocity": 94}, {"time": 136096, "pitch": 60, "duration": 236, "velocity": 103}, {"time": 136096, "pitch": 64, "duration": 247, "velocity": 86}, {"time": 136576, "pitch": 45, "duration": 131, "velocity": 105}, {"time": 136576, "pitch": 52, "duration": 169, "velocity": 105}, {"time": 136576, "pitch": 57, "duration": 238, "velocity": 94}, {"time": 136576, "pitch": 60, "duration": 217, "velocity": 105}, {"time": 136576, "pitch": 64, "duration": 230, "velocity": 103}, {"time": 136816, "pitch": 48, "duration": 552, "velocity": 105}, {"time": 136816, "pitch": 55, "duration": 529, "velocity": 98}, {"time": 136816, "pitch": 59, "duration": 516, "velocity": 105}, {"time": 136816, "pitch": 64, "duration": 519, "velocity": 105}, {"time": 137536, "pitch": 48, "duration": 316, "velocity": 105}, {"time": 137536, "pitch": 55, "duration": 265, "velocity": 100}, {"time": 137536, "pitch": 59, "duration": 265, "velocity": 105}, {"time": 137536, "pitch": 64, "duration": 270, "velocity": 94}, {"time": 138015, "pitch": 48, "duration": 227, "velocity": 105}, {"time": 138015, "pitch": 55, "duration": 214, "velocity": 90}, {"time": 138015, "pitch": 59, "duration": 212, "velocity": 105}, {"time": 138015, "pitch": 64, "duration": 212, "velocity": 93}, {"time": 138495, "pitch": 48, "duration": 118, "velocity": 105}, {"time": 138495, "pitch": 55, "duration": 251, "velocity": 91}, {"time": 138495, "pitch": 59, "duration": 238, "velocity": 105}, {"time": 138495, "pitch": 64, "duration": 255, "velocity": 103}, {"time": 138735, "pitch": 50, "duration": 224, "velocity": 105}, {"time": 138735, "pitch": 57, "duration": 195, "velocity": 105}, {"time": 138735, "pitch": 62, "duration": 211, "velocity": 103}, {"time": 138735, "pitch": 66, "duration": 220, "velocity": 105}, {"time": 138735, "pitch": 69, "duration": 198, "velocity": 77}, {"time": 138975, "pitch": 50, "duration": 220, "velocity": 105}, {"time": 138975, "pitch": 57, "duration": 207, "velocity": 105}, {"time": 138975, "pitch": 62, "duration": 226, "velocity": 103}, {"time": 138975, "pitch": 66, "duration": 181, "velocity": 105}, {"time": 138975, "pitch": 69, "duration": 201, "velocity": 69}, {"time": 140420, "pitch": 42, "duration": 216, "velocity": 84}, {"time": 140420, "pitch": 49, "duration": 223, "velocity": 91}, {"time": 140420, "pitch": 54, "duration": 216, "velocity": 109}, {"time": 140420, "pitch": 58, "duration": 199, "velocity": 102}, {"time": 140420, "pitch": 61, "duration": 195, "velocity": 106}, {"time": 140420, "pitch": 66, "duration": 203, "velocity": 92}, {"time": 140666, "pitch": 43, "duration": 589, "velocity": 84}, {"time": 140666, "pitch": 50, "duration": 214, "velocity": 91}, {"time": 140666, "pitch": 55, "duration": 192, "velocity": 109}, {"time": 140666, "pitch": 59, "duration": 169, "velocity": 102}, {"time": 140666, "pitch": 62, "duration": 166, "velocity": 106}, {"time": 140666, "pitch": 67, "duration": 173, "velocity": 92}, {"time": 140906, "pitch": 50, "duration": 279, "velocity": 85}, {"time": 140906, "pitch": 55, "duration": 203, "velocity": 106}, {"time": 140906, "pitch": 59, "duration": 237, "velocity": 109}, {"time": 140906, "pitch": 62, "duration": 221, "velocity": 111}, {"time": 140906, "pitch": 67, "duration": 257, "velocity": 102}, {"time": 141386, "pitch": 43, "duration": 150, "velocity": 127}, {"time": 141386, "pitch": 50, "duration": 230, "velocity": 98}, {"time": 141386, "pitch": 55, "duration": 222, "velocity": 110}, {"time": 141386, "pitch": 59, "duration": 212, "velocity": 102}, {"time": 141386, "pitch": 62, "duration": 203, "velocity": 106}, {"time": 141386, "pitch": 67, "duration": 210, "velocity": 95}, {"time": 141625, "pitch": 48, "duration": 146, "velocity": 127}, {"time": 141625, "pitch": 55, "duration": 148, "velocity": 102}, {"time": 141625, "pitch": 60, "duration": 175, "velocity": 97}, {"time": 141625, "pitch": 64, "duration": 155, "velocity": 105}, {"time": 141625, "pitch": 67, "duration": 150, "velocity": 98}, {"time": 141865, "pitch": 48, "duration": 216, "velocity": 127}, {"time": 141865, "pitch": 55, "duration": 226, "velocity": 123}, {"time": 141865, "pitch": 60, "duration": 199, "velocity": 104}, {"time": 141865, "pitch": 64, "duration": 200, "velocity": 116}, {"time": 141865, "pitch": 67, "duration": 226, "velocity": 110}, {"time": 142348, "pitch": 42, "duration": 232, "velocity": 84}, {"time": 142348, "pitch": 49, "duration": 239, "velocity": 91}, {"time": 142348, "pitch": 54, "duration": 232, "velocity": 109}, {"time": 142348, "pitch": 58, "duration": 215, "velocity": 102}, {"time": 142348, "pitch": 61, "duration": 212, "velocity": 106}, {"time": 142348, "pitch": 66, "duration": 219, "velocity": 92}, {"time": 142585, "pitch": 43, "duration": 588, "velocity": 84}, {"time": 142585, "pitch": 50, "duration": 214, "velocity": 91}, {"time": 142585, "pitch": 55, "duration": 192, "velocity": 109}, {"time": 142585, "pitch": 59, "duration": 169, "velocity": 102}, {"time": 142585, "pitch": 62, "duration": 166, "velocity": 106}, {"time": 142585, "pitch": 67, "duration": 173, "velocity": 92}, {"time": 142825, "pitch": 50, "duration": 278, "velocity": 85}, {"time": 142825, "pitch": 55, "duration": 202, "velocity": 106}, {"time": 142825, "pitch": 59, "duration": 236, "velocity": 109}, {"time": 142825, "pitch": 62, "duration": 220, "velocity": 111}, {"time": 142825, "pitch": 67, "duration": 256, "velocity": 102}, {"time": 143304, "pitch": 43, "duration": 151, "velocity": 127}, {"time": 143304, "pitch": 50, "duration": 231, "velocity": 98}, {"time": 143304, "pitch": 55, "duration": 223, "velocity": 110}, {"time": 143304, "pitch": 59, "duration": 213, "velocity": 102}, {"time": 143304, "pitch": 62, "duration": 204, "velocity": 106}, {"time": 143304, "pitch": 67, "duration": 211, "velocity": 95}, {"time": 143544, "pitch": 48, "duration": 146, "velocity": 127}, {"time": 143544, "pitch": 55, "duration": 148, "velocity": 102}, {"time": 143544, "pitch": 60, "duration": 175, "velocity": 97}, {"time": 143544, "pitch": 64, "duration": 155, "velocity": 105}, {"time": 143544, "pitch": 67, "duration": 150, "velocity": 98}, {"time": 143784, "pitch": 48, "duration": 216, "velocity": 127}, {"time": 143784, "pitch": 55, "duration": 226, "velocity": 123}, {"time": 143784, "pitch": 60, "duration": 199, "velocity": 104}, {"time": 143784, "pitch": 64, "duration": 200, "velocity": 116}, {"time": 143784, "pitch": 67, "duration": 226, "velocity": 110}, {"time": 144264, "pitch": 42, "duration": 232, "velocity": 84}, {"time": 144264, "pitch": 49, "duration": 239, "velocity": 91}, {"time": 144264, "pitch": 54, "duration": 232, "velocity": 109}, {"time": 144264, "pitch": 58, "duration": 215, "velocity": 102}, {"time": 144264, "pitch": 61, "duration": 212, "velocity": 106}, {"time": 144264, "pitch": 66, "duration": 219, "velocity": 92}, {"time": 144504, "pitch": 43, "duration": 588, "velocity": 84}, {"time": 144504, "pitch": 50, "duration": 213, "velocity": 91}, {"time": 144504, "pitch": 55, "duration": 191, "velocity": 109}, {"time": 144504, "pitch": 59, "duration": 168, "velocity": 102}, {"time": 144504, "pitch": 62, "duration": 165, "velocity": 106}, {"time": 144504, "pitch": 67, "duration": 172, "velocity": 92}, {"time": 144743, "pitch": 50, "duration": 279, "velocity": 85}, {"time": 144743, "pitch": 55, "duration": 203, "velocity": 106}, {"time": 144743, "pitch": 59, "duration": 237, "velocity": 109}, {"time": 144743, "pitch": 62, "duration": 221, "velocity": 111}, {"time": 144743, "pitch": 67, "duration": 257, "velocity": 102}, {"time": 145223, "pitch": 43, "duration": 151, "velocity": 127}, {"time": 145223, "pitch": 50, "duration": 231, "velocity": 98}, {"time": 145223, "pitch": 55, "duration": 223, "velocity": 110}, {"time": 145223, "pitch": 59, "duration": 213, "velocity": 102}, {"time": 145223, "pitch": 62, "duration": 204, "velocity": 106}, {"time": 145223, "pitch": 67, "duration": 211, "velocity": 95}, {"time": 145463, "pitch": 48, "duration": 146, "velocity": 127}, {"time": 145463, "pitch": 55, "duration": 148, "velocity": 102}, {"time": 145463, "pitch": 60, "duration": 175, "velocity": 97}, {"time": 145463, "pitch": 64, "duration": 155, "velocity": 105}, {"time": 145463, "pitch": 67, "duration": 150, "velocity": 98}, {"time": 145703, "pitch": 48, "duration": 216, "velocity": 127}, {"time": 145703, "pitch": 55, "duration": 226, "velocity": 123}, {"time": 145703, "pitch": 60, "duration": 199, "velocity": 104}, {"time": 145703, "pitch": 64, "duration": 200, "velocity": 116}, {"time": 145703, "pitch": 67, "duration": 226, "velocity": 110}, {"time": 146182, "pitch": 48, "duration": 171, "velocity": 127}, {"time": 146182, "pitch": 55, "duration": 177, "velocity": 113}, {"time": 146182, "pitch": 60, "duration": 204, "velocity": 92}, {"time": 146182, "pitch": 64, "duration": 179, "velocity": 96}, {"time": 146182, "pitch": 67, "duration": 204, "velocity": 99}, {"time": 146662, "pitch": 48, "duration": 174, "velocity": 127}, {"time": 146662, "pitch": 55, "duration": 217, "velocity": 100}, {"time": 146662, "pitch": 60, "duration": 217, "velocity": 107}, {"time": 146662, "pitch": 64, "duration": 242, "velocity": 122}, {"time": 146662, "pitch": 67, "duration": 219, "velocity": 105}, {"time": 147142, "pitch": 47, "duration": 192, "velocity": 127}, {"time": 147142, "pitch": 50, "duration": 205, "velocity": 106}, {"time": 147142, "pitch": 55, "duration": 212, "velocity": 102}, {"time": 147142, "pitch": 59, "duration": 203, "velocity": 105}, {"time": 147142, "pitch": 62, "duration": 197, "velocity": 110}, {"time": 147382, "pitch": 48, "duration": 168, "velocity": 127}, {"time": 147382, "pitch": 55, "duration": 217, "velocity": 100}, {"time": 147382, "pitch": 60, "duration": 187, "velocity": 107}, {"time": 147382, "pitch": 64, "duration": 230, "velocity": 122}, {"time": 147382, "pitch": 67, "duration": 217, "velocity": 105}, {"time": 147621, "pitch": 47, "duration": 165, "velocity": 127}, {"time": 147621, "pitch": 50, "duration": 240, "velocity": 106}, {"time": 147621, "pitch": 55, "duration": 179, "velocity": 102}, {"time": 147621, "pitch": 59, "duration": 187, "velocity": 105}, {"time": 147621, "pitch": 62, "duration": 181, "velocity": 110}, {"time": 147861, "pitch": 48, "duration": 214, "velocity": 127}, {"time": 147861, "pitch": 55, "duration": 229, "velocity": 100}, {"time": 147861, "pitch": 59, "duration": 209, "velocity": 107}, {"time": 147861, "pitch": 64, "duration": 210, "velocity": 105}, {"time": 147861, "pitch": 67, "duration": 206, "velocity": 122}, {"time": 148101, "pitch": 50, "duration": 190, "velocity": 127}, {"time": 148101, "pitch": 57, "duration": 229, "velocity": 100}, {"time": 148101, "pitch": 62, "duration": 209, "velocity": 107}, {"time": 148101, "pitch": 66, "duration": 206, "velocity": 122}, {"time": 148101, "pitch": 69, "duration": 210, "velocity": 105}, {"time": 148204, "pitch": 43, "duration": 239, "velocity": 84}, {"time": 148204, "pitch": 50, "duration": 87, "velocity": 91}, {"time": 148204, "pitch": 55, "duration": 180, "velocity": 109}, {"time": 148204, "pitch": 59, "duration": 157, "velocity": 102}, {"time": 148204, "pitch": 62, "duration": 106, "velocity": 106}, {"time": 148204, "pitch": 67, "duration": 161, "velocity": 92}, {"time": 148341, "pitch": 43, "duration": 102, "velocity": 84}, {"time": 148341, "pitch": 50, "duration": 65, "velocity": 91}, {"time": 148341, "pitch": 55, "duration": 43, "velocity": 109}, {"time": 148341, "pitch": 59, "duration": 20, "velocity": 102}, {"time": 148341, "pitch": 62, "duration": 17, "velocity": 106}, {"time": 148341, "pitch": 67, "duration": 24, "velocity": 92}, {"time": 148581, "pitch": 50, "duration": 279, "velocity": 85}, {"time": 148581, "pitch": 55, "duration": 203, "velocity": 106}, {"time": 148581, "pitch": 59, "duration": 237, "velocity": 109}, {"time": 148581, "pitch": 62, "duration": 221, "velocity": 111}, {"time": 148581, "pitch": 67, "duration": 257, "velocity": 102}, {"time": 149060, "pitch": 43, "duration": 151, "velocity": 127}, {"time": 149060, "pitch": 50, "duration": 231, "velocity": 98}, {"time": 149060, "pitch": 55, "duration": 223, "velocity": 110}, {"time": 149060, "pitch": 59, "duration": 213, "velocity": 102}, {"time": 149060, "pitch": 62, "duration": 204, "velocity": 106}, {"time": 149060, "pitch": 67, "duration": 211, "velocity": 95}, {"time": 149300, "pitch": 48, "duration": 146, "velocity": 127}, {"time": 149300, "pitch": 55, "duration": 148, "velocity": 102}, {"time": 149300, "pitch": 60, "duration": 175, "velocity": 97}, {"time": 149300, "pitch": 64, "duration": 155, "velocity": 105}, {"time": 149300, "pitch": 67, "duration": 150, "velocity": 98}, {"time": 149540, "pitch": 48, "duration": 216, "velocity": 127}, {"time": 149540, "pitch": 55, "duration": 226, "velocity": 123}, {"time": 149540, "pitch": 60, "duration": 199, "velocity": 104}, {"time": 149540, "pitch": 64, "duration": 200, "velocity": 116}, {"time": 149540, "pitch": 67, "duration": 226, "velocity": 110}, {"time": 150020, "pitch": 42, "duration": 232, "velocity": 84}, {"time": 150020, "pitch": 49, "duration": 239, "velocity": 91}, {"time": 150020, "pitch": 54, "duration": 232, "velocity": 109}, {"time": 150020, "pitch": 58, "duration": 215, "velocity": 102}, {"time": 150020, "pitch": 61, "duration": 212, "velocity": 106}, {"time": 150020, "pitch": 66, "duration": 219, "velocity": 92}, {"time": 150260, "pitch": 43, "duration": 588, "velocity": 84}, {"time": 150260, "pitch": 50, "duration": 214, "velocity": 91}, {"time": 150260, "pitch": 55, "duration": 192, "velocity": 109}, {"time": 150260, "pitch": 59, "duration": 169, "velocity": 102}, {"time": 150260, "pitch": 62, "duration": 166, "velocity": 106}, {"time": 150260, "pitch": 67, "duration": 173, "velocity": 92}, {"time": 150499, "pitch": 50, "duration": 279, "velocity": 85}, {"time": 150499, "pitch": 55, "duration": 203, "velocity": 106}, {"time": 150499, "pitch": 59, "duration": 237, "velocity": 109}, {"time": 150499, "pitch": 62, "duration": 221, "velocity": 111}, {"time": 150499, "pitch": 67, "duration": 257, "velocity": 102}, {"time": 150979, "pitch": 43, "duration": 151, "velocity": 127}, {"time": 150979, "pitch": 50, "duration": 231, "velocity": 98}, {"time": 150979, "pitch": 55, "duration": 223, "velocity": 110}, {"time": 150979, "pitch": 59, "duration": 213, "velocity": 102}, {"time": 150979, "pitch": 62, "duration": 204, "velocity": 106}, {"time": 150979, "pitch": 67, "duration": 211, "velocity": 95}, {"time": 151219, "pitch": 48, "duration": 146, "velocity": 127}, {"time": 151219, "pitch": 55, "duration": 148, "velocity": 102}, {"time": 151219, "pitch": 60, "duration": 175, "velocity": 97}, {"time": 151219, "pitch": 64, "duration": 155, "velocity": 105}, {"time": 151219, "pitch": 67, "duration": 150, "velocity": 98}, {"time": 151459, "pitch": 48, "duration": 216, "velocity": 127}, {"time": 151459, "pitch": 55, "duration": 226, "velocity": 123}, {"time": 151459, "pitch": 60, "duration": 199, "velocity": 104}, {"time": 151459, "pitch": 64, "duration": 200, "velocity": 116}, {"time": 151459, "pitch": 67, "duration": 226, "velocity": 110}, {"time": 151939, "pitch": 42, "duration": 231, "velocity": 84}, {"time": 151939, "pitch": 49, "duration": 238, "velocity": 91}, {"time": 151939, "pitch": 54, "duration": 231, "velocity": 109}, {"time": 151939, "pitch": 58, "duration": 214, "velocity": 102}, {"time": 151939, "pitch": 61, "duration": 211, "velocity": 106}, {"time": 151939, "pitch": 66, "duration": 218, "velocity": 92}, {"time": 152178, "pitch": 43, "duration": 589, "velocity": 84}, {"time": 152178, "pitch": 50, "duration": 214, "velocity": 91}, {"time": 152178, "pitch": 55, "duration": 192, "velocity": 109}, {"time": 152178, "pitch": 59, "duration": 169, "velocity": 102}, {"time": 152178, "pitch": 62, "duration": 166, "velocity": 106}, {"time": 152178, "pitch": 67, "duration": 173, "velocity": 92}, {"time": 152418, "pitch": 50, "duration": 279, "velocity": 85}, {"time": 152418, "pitch": 55, "duration": 203, "velocity": 106}, {"time": 152418, "pitch": 59, "duration": 237, "velocity": 109}, {"time": 152418, "pitch": 62, "duration": 221, "velocity": 111}, {"time": 152418, "pitch": 67, "duration": 257, "velocity": 102}, {"time": 152898, "pitch": 43, "duration": 151, "velocity": 127}, {"time": 152898, "pitch": 50, "duration": 231, "velocity": 98}, {"time": 152898, "pitch": 55, "duration": 223, "velocity": 110}, {"time": 152898, "pitch": 59, "duration": 213, "velocity": 102}, {"time": 152898, "pitch": 62, "duration": 204, "velocity": 106}, {"time": 152898, "pitch": 67, "duration": 211, "velocity": 95}, {"time": 153138, "pitch": 48, "duration": 146, "velocity": 127}, {"time": 153138, "pitch": 55, "duration": 148, "velocity": 102}, {"time": 153138, "pitch": 60, "duration": 175, "velocity": 97}, {"time": 153138, "pitch": 64, "duration": 155, "velocity": 105}, {"time": 153138, "pitch": 67, "duration": 150, "velocity": 98}, {"time": 153378, "pitch": 48, "duration": 215, "velocity": 127}, {"time": 153378, "pitch": 55, "duration": 225, "velocity": 123}, {"time": 153378, "pitch": 60, "duration": 198, "velocity": 104}, {"time": 153378, "pitch": 64, "duration": 199, "velocity": 116}, {"time": 153378, "pitch": 67, "duration": 225, "velocity": 110}, {"time": 153857, "pitch": 48, "duration": 171, "velocity": 127}, {"time": 153857, "pitch": 55, "duration": 177, "velocity": 113}, {"time": 153857, "pitch": 60, "duration": 204, "velocity": 92}, {"time": 153857, "pitch": 64, "duration": 179, "velocity": 96}, {"time": 153857, "pitch": 67, "duration": 204, "velocity": 99}, {"time": 154337, "pitch": 48, "duration": 174, "velocity": 127}, {"time": 154337, "pitch": 55, "duration": 217, "velocity": 100}, {"time": 154337, "pitch": 60, "duration": 217, "velocity": 107}, {"time": 154337, "pitch": 64, "duration": 242, "velocity": 122}, {"time": 154337, "pitch": 67, "duration": 219, "velocity": 105}, {"time": 154817, "pitch": 47, "duration": 191, "velocity": 127}, {"time": 154817, "pitch": 50, "duration": 204, "velocity": 106}, {"time": 154817, "pitch": 55, "duration": 211, "velocity": 102}, {"time": 154817, "pitch": 59, "duration": 202, "velocity": 105}, {"time": 154817, "pitch": 62, "duration": 196, "velocity": 110}, {"time": 155056, "pitch": 48, "duration": 169, "velocity": 127}, {"time": 155056, "pitch": 55, "duration": 218, "velocity": 100}, {"time": 155056, "pitch": 60, "duration": 188, "velocity": 107}, {"time": 155056, "pitch": 64, "duration": 231, "velocity": 122}, {"time": 155056, "pitch": 67, "duration": 218, "velocity": 105}, {"time": 155296, "pitch": 47, "duration": 165, "velocity": 127}, {"time": 155296, "pitch": 50, "duration": 240, "velocity": 106}, {"time": 155296, "pitch": 55, "duration": 179, "velocity": 102}, {"time": 155296, "pitch": 59, "duration": 187, "velocity": 105}, {"time": 155296, "pitch": 62, "duration": 181, "velocity": 110}, {"time": 155536, "pitch": 48, "duration": 214, "velocity": 127}, {"time": 155536, "pitch": 55, "duration": 229, "velocity": 100}, {"time": 155536, "pitch": 59, "duration": 209, "velocity": 107}, {"time": 155536, "pitch": 64, "duration": 206, "velocity": 122}, {"time": 155536, "pitch": 67, "duration": 210, "velocity": 105}, {"time": 155776, "pitch": 50, "duration": 190, "velocity": 127}, {"time": 155776, "pitch": 57, "duration": 229, "velocity": 100}, {"time": 155776, "pitch": 62, "duration": 209, "velocity": 107}, {"time": 155776, "pitch": 66, "duration": 206, "velocity": 122}, {"time": 155776, "pitch": 69, "duration": 210, "velocity": 105}, {"time": 186741, "pitch": 48, "duration": 1804, "velocity": 83}, {"time": 186741, "pitch": 55, "duration": 1847, "velocity": 121}, {"time": 186741, "pitch": 60, "duration": 1876, "velocity": 121}, {"time": 186741, "pitch": 64, "duration": 1834, "velocity": 121}, {"time": 186741, "pitch": 67, "duration": 1842, "velocity": 119}, {"time": 188661, "pitch": 48, "duration": 1818, "velocity": 85}, {"time": 188661, "pitch": 55, "duration": 1844, "velocity": 121}, {"time": 188661, "pitch": 60, "duration": 1883, "velocity": 121}, {"time": 188661, "pitch": 63, "duration": 1841, "velocity": 121}, {"time": 188661, "pitch": 67, "duration": 1896, "velocity": 119}, {"time": 190578, "pitch": 43, "duration": 1911, "velocity": 106}, {"time": 190578, "pitch": 50, "duration": 1860, "velocity": 119}, {"time": 190578, "pitch": 55, "duration": 1868, "velocity": 117}, {"time": 190578, "pitch": 59, "duration": 1847, "velocity": 120}, {"time": 190578, "pitch": 62, "duration": 1853, "velocity": 118}, {"time": 190578, "pitch": 67, "duration": 1874, "velocity": 110}, {"time": 192497, "pitch": 42, "duration": 235, "velocity": 105}, {"time": 192497, "pitch": 49, "duration": 235, "velocity": 95}, {"time": 192497, "pitch": 54, "duration": 226, "velocity": 127}, {"time": 192497, "pitch": 58, "duration": 232, "velocity": 98}, {"time": 192497, "pitch": 61, "duration": 232, "velocity": 101}, {"time": 192497, "pitch": 66, "duration": 232, "velocity": 100}, {"time": 192737, "pitch": 43, "duration": 156, "velocity": 114}, {"time": 192737, "pitch": 50, "duration": 156, "velocity": 119}, {"time": 192737, "pitch": 55, "duration": 138, "velocity": 122}, {"time": 192737, "pitch": 59, "duration": 148, "velocity": 104}, {"time": 192737, "pitch": 62, "duration": 148, "velocity": 113}, {"time": 192737, "pitch": 67, "duration": 148, "velocity": 115}, {"time": 192973, "pitch": 59, "duration": 180, "velocity": 102}, {"time": 192976, "pitch": 43, "duration": 178, "velocity": 108}, {"time": 192976, "pitch": 50, "duration": 178, "velocity": 116}, {"time": 192976, "pitch": 55, "duration": 175, "velocity": 122}, {"time": 192976, "pitch": 62, "duration": 180, "velocity": 121}, {"time": 192976, "pitch": 67, "duration": 180, "velocity": 112}, {"time": 193216, "pitch": 42, "duration": 233, "velocity": 117}, {"time": 193216, "pitch": 49, "duration": 233, "velocity": 109}, {"time": 193216, "pitch": 54, "duration": 226, "velocity": 127}, {"time": 193216, "pitch": 58, "duration": 233, "velocity": 97}, {"time": 193216, "pitch": 61, "duration": 233, "velocity": 105}, {"time": 193216, "pitch": 66, "duration": 233, "velocity": 92}, {"time": 193456, "pitch": 43, "duration": 156, "velocity": 97}, {"time": 193456, "pitch": 50, "duration": 156, "velocity": 109}, {"time": 193456, "pitch": 55, "duration": 144, "velocity": 127}, {"time": 193456, "pitch": 59, "duration": 158, "velocity": 102}, {"time": 193456, "pitch": 62, "duration": 158, "velocity": 105}, {"time": 193456, "pitch": 67, "duration": 158, "velocity": 109}, {"time": 193696, "pitch": 43, "duration": 164, "velocity": 101}, {"time": 193696, "pitch": 50, "duration": 164, "velocity": 119}, {"time": 193696, "pitch": 55, "duration": 162, "velocity": 122}, {"time": 193696, "pitch": 59, "duration": 161, "velocity": 105}, {"time": 193696, "pitch": 62, "duration": 161, "velocity": 116}, {"time": 193696, "pitch": 67, "duration": 161, "velocity": 111}, {"time": 193936, "pitch": 42, "duration": 231, "velocity": 90}, {"time": 193936, "pitch": 49, "duration": 231, "velocity": 91}, {"time": 193936, "pitch": 54, "duration": 235, "velocity": 127}, {"time": 193936, "pitch": 58, "duration": 231, "velocity": 97}, {"time": 193936, "pitch": 61, "duration": 231, "velocity": 101}, {"time": 193936, "pitch": 66, "duration": 231, "velocity": 102}, {"time": 194176, "pitch": 43, "duration": 164, "velocity": 108}, {"time": 194176, "pitch": 50, "duration": 164, "velocity": 101}, {"time": 194176, "pitch": 55, "duration": 164, "velocity": 127}, {"time": 194176, "pitch": 59, "duration": 166, "velocity": 109}, {"time": 194176, "pitch": 62, "duration": 166, "velocity": 104}, {"time": 194176, "pitch": 67, "duration": 166, "velocity": 112}, {"time": 194415, "pitch": 48, "duration": 1805, "velocity": 83}, {"time": 194415, "pitch": 55, "duration": 1848, "velocity": 121}, {"time": 194415, "pitch": 60, "duration": 1877, "velocity": 121}, {"time": 194415, "pitch": 64, "duration": 1835, "velocity": 121}, {"time": 194415, "pitch": 67, "duration": 1843, "velocity": 119}, {"time": 196335, "pitch": 48, "duration": 1831, "velocity": 85}, {"time": 196335, "pitch": 55, "duration": 1857, "velocity": 121}, {"time": 196335, "pitch": 60, "duration": 1895, "velocity": 121}, {"time": 196335, "pitch": 63, "duration": 1854, "velocity": 121}, {"time": 196335, "pitch": 67, "duration": 1908, "velocity": 119}, {"time": 198265, "pitch": 43, "duration": 1951, "velocity": 96}, {"time": 198265, "pitch": 50, "duration": 1900, "velocity": 109}, {"time": 198265, "pitch": 55, "duration": 1909, "velocity": 107}, {"time": 198265, "pitch": 59, "duration": 1887, "velocity": 110}, {"time": 198265, "pitch": 62, "duration": 1894, "velocity": 108}, {"time": 198265, "pitch": 67, "duration": 1915, "velocity": 100}, {"time": 200184, "pitch": 50, "duration": 1805, "velocity": 83}, {"time": 200184, "pitch": 57, "duration": 1848, "velocity": 121}, {"time": 200184, "pitch": 62, "duration": 1877, "velocity": 121}, {"time": 200184, "pitch": 66, "duration": 1835, "velocity": 121}, {"time": 200184, "pitch": 69, "duration": 1843, "velocity": 119}, {"time": 202103, "pitch": 43, "duration": 510, "velocity": 113}, {"time": 202103, "pitch": 50, "duration": 449, "velocity": 111}, {"time": 202103, "pitch": 55, "duration": 583, "velocity": 113}, {"time": 202103, "pitch": 59, "duration": 583, "velocity": 113}, {"time": 202103, "pitch": 62, "duration": 581, "velocity": 113}, {"time": 202822, "pitch": 43, "duration": 188, "velocity": 113}, {"time": 202822, "pitch": 50, "duration": 252, "velocity": 113}, {"time": 202822, "pitch": 55, "duration": 272, "velocity": 106}, {"time": 202822, "pitch": 59, "duration": 234, "velocity": 113}, {"time": 202822, "pitch": 62, "duration": 249, "velocity": 111}, {"time": 203302, "pitch": 43, "duration": 167, "velocity": 113}, {"time": 203302, "pitch": 50, "duration": 163, "velocity": 113}, {"time": 203302, "pitch": 55, "duration": 251, "velocity": 111}, {"time": 203302, "pitch": 59, "duration": 207, "velocity": 113}, {"time": 203302, "pitch": 62, "duration": 204, "velocity": 113}, {"time": 203782, "pitch": 43, "duration": 123, "velocity": 113}, {"time": 203782, "pitch": 50, "duration": 153, "velocity": 111}, {"time": 203782, "pitch": 55, "duration": 236, "velocity": 94}, {"time": 203782, "pitch": 59, "duration": 209, "velocity": 113}, {"time": 203782, "pitch": 62, "duration": 212, "velocity": 113}, {"time": 204022, "pitch": 45, "duration": 502, "velocity": 112}, {"time": 204022, "pitch": 52, "duration": 476, "velocity": 113}, {"time": 204022, "pitch": 57, "duration": 574, "velocity": 113}, {"time": 204022, "pitch": 60, "duration": 565, "velocity": 113}, {"time": 204022, "pitch": 64, "duration": 580, "velocity": 111}, {"time": 204741, "pitch": 45, "duration": 207, "velocity": 113}, {"time": 204741, "pitch": 52, "duration": 216, "velocity": 113}, {"time": 204741, "pitch": 57, "duration": 314, "velocity": 99}, {"time": 204741, "pitch": 60, "duration": 309, "velocity": 113}, {"time": 204741, "pitch": 64, "duration": 312, "velocity": 111}, {"time": 205221, "pitch": 45, "duration": 177, "velocity": 113}, {"time": 205221, "pitch": 52, "duration": 189, "velocity": 113}, {"time": 205221, "pitch": 57, "duration": 269, "velocity": 102}, {"time": 205221, "pitch": 60, "duration": 236, "velocity": 111}, {"time": 205221, "pitch": 64, "duration": 247, "velocity": 94}, {"time": 205700, "pitch": 45, "duration": 131, "velocity": 113}, {"time": 205700, "pitch": 52, "duration": 169, "velocity": 113}, {"time": 205700, "pitch": 57, "duration": 238, "velocity": 102}, {"time": 205700, "pitch": 60, "duration": 217, "velocity": 113}, {"time": 205700, "pitch": 64, "duration": 230, "velocity": 111}, {"time": 205940, "pitch": 48, "duration": 552, "velocity": 113}, {"time": 205940, "pitch": 55, "duration": 529, "velocity": 106}, {"time": 205940, "pitch": 59, "duration": 516, "velocity": 113}, {"time": 205940, "pitch": 64, "duration": 519, "velocity": 113}, {"time": 206660, "pitch": 48, "duration": 317, "velocity": 113}, {"time": 206660, "pitch": 55, "duration": 266, "velocity": 108}, {"time": 206660, "pitch": 59, "duration": 266, "velocity": 113}, {"time": 206660, "pitch": 64, "duration": 271, "velocity": 102}, {"time": 207140, "pitch": 48, "duration": 226, "velocity": 113}, {"time": 207140, "pitch": 55, "duration": 213, "velocity": 98}, {"time": 207140, "pitch": 59, "duration": 211, "velocity": 113}, {"time": 207140, "pitch": 64, "duration": 211, "velocity": 101}, {"time": 207619, "pitch": 48, "duration": 118, "velocity": 113}, {"time": 207619, "pitch": 55, "duration": 251, "velocity": 99}, {"time": 207619, "pitch": 59, "duration": 238, "velocity": 113}, {"time": 207619, "pitch": 64, "duration": 255, "velocity": 111}, {"time": 207859, "pitch": 50, "duration": 560, "velocity": 113}, {"time": 207859, "pitch": 57, "duration": 531, "velocity": 113}, {"time": 207859, "pitch": 62, "duration": 572, "velocity": 111}, {"time": 207859, "pitch": 66, "duration": 556, "velocity": 113}, {"time": 207859, "pitch": 69, "duration": 572, "velocity": 85}, {"time": 208579, "pitch": 50, "duration": 283, "velocity": 113}, {"time": 208579, "pitch": 57, "duration": 284, "velocity": 113}, {"time": 208579, "pitch": 62, "duration": 334, "velocity": 111}, {"time": 208579, "pitch": 66, "duration": 298, "velocity": 113}, {"time": 208579, "pitch": 69, "duration": 331, "velocity": 77}, {"time": 209058, "pitch": 50, "duration": 194, "velocity": 113}, {"time": 209058, "pitch": 57, "duration": 203, "velocity": 113}, {"time": 209058, "pitch": 62, "duration": 317, "velocity": 94}, {"time": 209058, "pitch": 66, "duration": 278, "velocity": 113}, {"time": 209058, "pitch": 69, "duration": 290, "velocity": 78}, {"time": 209538, "pitch": 50, "duration": 127, "velocity": 113}, {"time": 209538, "pitch": 57, "duration": 153, "velocity": 113}, {"time": 209538, "pitch": 62, "duration": 208, "velocity": 108}, {"time": 209538, "pitch": 66, "duration": 180, "velocity": 113}, {"time": 209538, "pitch": 69, "duration": 192, "velocity": 80}, {"time": 209778, "pitch": 43, "duration": 509, "velocity": 113}, {"time": 209778, "pitch": 50, "duration": 448, "velocity": 111}, {"time": 209778, "pitch": 55, "duration": 582, "velocity": 113}, {"time": 209778, "pitch": 59, "duration": 582, "velocity": 113}, {"time": 209778, "pitch": 62, "duration": 580, "velocity": 113}, {"time": 210497, "pitch": 43, "duration": 188, "velocity": 113}, {"time": 210497, "pitch": 50, "duration": 252, "velocity": 113}, {"time": 210497, "pitch": 55, "duration": 272, "velocity": 106}, {"time": 210497, "pitch": 59, "duration": 234, "velocity": 113}, {"time": 210497, "pitch": 62, "duration": 249, "velocity": 111}, {"time": 210977, "pitch": 43, "duration": 167, "velocity": 113}, {"time": 210977, "pitch": 50, "duration": 163, "velocity": 113}, {"time": 210977, "pitch": 55, "duration": 251, "velocity": 111}, {"time": 210977, "pitch": 59, "duration": 207, "velocity": 113}, {"time": 210977, "pitch": 62, "duration": 204, "velocity": 113}, {"time": 211457, "pitch": 43, "duration": 123, "velocity": 113}, {"time": 211457, "pitch": 50, "duration": 153, "velocity": 111}, {"time": 211457, "pitch": 55, "duration": 235, "velocity": 94}, {"time": 211457, "pitch": 59, "duration": 209, "velocity": 113}, {"time": 211457, "pitch": 62, "duration": 211, "velocity": 113}, {"time": 211696, "pitch": 45, "duration": 503, "velocity": 112}, {"time": 211696, "pitch": 52, "duration": 477, "velocity": 113}, {"time": 211696, "pitch": 57, "duration": 575, "velocity": 113}, {"time": 211696, "pitch": 60, "duration": 566, "velocity": 113}, {"time": 211696, "pitch": 64, "duration": 581, "velocity": 111}, {"time": 212416, "pitch": 45, "duration": 207, "velocity": 113}, {"time": 212416, "pitch": 52, "duration": 216, "velocity": 113}, {"time": 212416, "pitch": 57, "duration": 314, "velocity": 99}, {"time": 212416, "pitch": 60, "duration": 309, "velocity": 113}, {"time": 212416, "pitch": 64, "duration": 312, "velocity": 111}, {"time": 212896, "pitch": 45, "duration": 177, "velocity": 113}, {"time": 212896, "pitch": 52, "duration": 189, "velocity": 113}, {"time": 212896, "pitch": 57, "duration": 268, "velocity": 102}, {"time": 212896, "pitch": 60, "duration": 236, "velocity": 111}, {"time": 212896, "pitch": 64, "duration": 247, "velocity": 94}, {"time": 213375, "pitch": 45, "duration": 131, "velocity": 113}, {"time": 213375, "pitch": 52, "duration": 169, "velocity": 113}, {"time": 213375, "pitch": 57, "duration": 238, "velocity": 102}, {"time": 213375, "pitch": 60, "duration": 217, "velocity": 113}, {"time": 213375, "pitch": 64, "duration": 230, "velocity": 111}, {"time": 213615, "pitch": 48, "duration": 552, "velocity": 113}, {"time": 213615, "pitch": 55, "duration": 529, "velocity": 106}, {"time": 213615, "pitch": 59, "duration": 516, "velocity": 113}, {"time": 213615, "pitch": 64, "duration": 519, "velocity": 113}, {"time": 214335, "pitch": 48, "duration": 317, "velocity": 113}, {"time": 214335, "pitch": 55, "duration": 266, "velocity": 108}, {"time": 214335, "pitch": 59, "duration": 266, "velocity": 113}, {"time": 214335, "pitch": 64, "duration": 271, "velocity": 102}, {"time": 214814, "pitch": 48, "duration": 227, "velocity": 113}, {"time": 214814, "pitch": 55, "duration": 214, "velocity": 98}, {"time": 214814, "pitch": 59, "duration": 212, "velocity": 113}, {"time": 214814, "pitch": 64, "duration": 212, "velocity": 101}, {"time": 215294, "pitch": 48, "duration": 118, "velocity": 113}, {"time": 215294, "pitch": 55, "duration": 252, "velocity": 99}, {"time": 215294, "pitch": 59, "duration": 238, "velocity": 113}, {"time": 215294, "pitch": 64, "duration": 256, "velocity": 111}, {"time": 215534, "pitch": 50, "duration": 572, "velocity": 113}, {"time": 215534, "pitch": 57, "duration": 543, "velocity": 113}, {"time": 215534, "pitch": 62, "duration": 584, "velocity": 111}, {"time": 215534, "pitch": 66, "duration": 568, "velocity": 113}, {"time": 215534, "pitch": 69, "duration": 584, "velocity": 85}, {"time": 216266, "pitch": 50, "duration": 284, "velocity": 113}, {"time": 216266, "pitch": 57, "duration": 285, "velocity": 113}, {"time": 216266, "pitch": 62, "duration": 335, "velocity": 111}, {"time": 216266, "pitch": 66, "duration": 299, "velocity": 113}, {"time": 216266, "pitch": 69, "duration": 332, "velocity": 77}, {"time": 216746, "pitch": 50, "duration": 194, "velocity": 113}, {"time": 216746, "pitch": 57, "duration": 203, "velocity": 113}, {"time": 216746, "pitch": 62, "duration": 317, "velocity": 94}, {"time": 216746, "pitch": 66, "duration": 278, "velocity": 113}, {"time": 216746, "pitch": 69, "duration": 290, "velocity": 78}, {"time": 217225, "pitch": 50, "duration": 127, "velocity": 113}, {"time": 217225, "pitch": 57, "duration": 153, "velocity": 113}, {"time": 217225, "pitch": 62, "duration": 208, "velocity": 108}, {"time": 217225, "pitch": 66, "duration": 180, "velocity": 113}, {"time": 217225, "pitch": 69, "duration": 192, "velocity": 80}, {"time": 217465, "pitch": 43, "duration": 510, "velocity": 113}, {"time": 217465, "pitch": 50, "duration": 449, "velocity": 111}, {"time": 217465, "pitch": 55, "duration": 583, "velocity": 113}, {"time": 217465, "pitch": 59, "duration": 583, "velocity": 113}, {"time": 217465, "pitch": 62, "duration": 581, "velocity": 113}, {"time": 218185, "pitch": 43, "duration": 188, "velocity": 113}, {"time": 218185, "pitch": 50, "duration": 252, "velocity": 113}, {"time": 218185, "pitch": 55, "duration": 272, "velocity": 106}, {"time": 218185, "pitch": 59, "duration": 234, "velocity": 113}, {"time": 218185, "pitch": 62, "duration": 249, "velocity": 111}, {"time": 218664, "pitch": 43, "duration": 167, "velocity": 113}, {"time": 218664, "pitch": 50, "duration": 163, "velocity": 113}, {"time": 218664, "pitch": 55, "duration": 251, "velocity": 111}, {"time": 218664, "pitch": 59, "duration": 207, "velocity": 113}, {"time": 218664, "pitch": 62, "duration": 204, "velocity": 113}, {"time": 219144, "pitch": 43, "duration": 123, "velocity": 113}, {"time": 219144, "pitch": 50, "duration": 153, "velocity": 111}, {"time": 219144, "pitch": 55, "duration": 236, "velocity": 94}, {"time": 219144, "pitch": 59, "duration": 209, "velocity": 113}, {"time": 219144, "pitch": 62, "duration": 212, "velocity": 113}, {"time": 219384, "pitch": 45, "duration": 503, "velocity": 112}, {"time": 219384, "pitch": 52, "duration": 477, "velocity": 113}, {"time": 219384, "pitch": 57, "duration": 575, "velocity": 113}, {"time": 219384, "pitch": 60, "duration": 566, "velocity": 113}, {"time": 219384, "pitch": 64, "duration": 581, "velocity": 111}, {"time": 220103, "pitch": 45, "duration": 207, "velocity": 113}, {"time": 220103, "pitch": 52, "duration": 216, "velocity": 113}, {"time": 220103, "pitch": 57, "duration": 314, "velocity": 99}, {"time": 220103, "pitch": 60, "duration": 309, "velocity": 113}, {"time": 220103, "pitch": 64, "duration": 312, "velocity": 111}, {"time": 220583, "pitch": 45, "duration": 177, "velocity": 113}, {"time": 220583, "pitch": 52, "duration": 189, "velocity": 113}, {"time": 220583, "pitch": 57, "duration": 269, "velocity": 102}, {"time": 220583, "pitch": 60, "duration": 236, "velocity": 111}, {"time": 220583, "pitch": 64, "duration": 247, "velocity": 94}, {"time": 221063, "pitch": 45, "duration": 131, "velocity": 113}, {"time": 221063, "pitch": 52, "duration": 169, "velocity": 113}, {"time": 221063, "pitch": 57, "duration": 238, "velocity": 102}, {"time": 221063, "pitch": 60, "duration": 217, "velocity": 113}, {"time": 221063, "pitch": 64, "duration": 230, "velocity": 111}, {"time": 221303, "pitch": 48, "duration": 551, "velocity": 113}, {"time": 221303, "pitch": 55, "duration": 528, "velocity": 106}, {"time": 221303, "pitch": 59, "duration": 515, "velocity": 113}, {"time": 221303, "pitch": 64, "duration": 518, "velocity": 113}, {"time": 222022, "pitch": 48, "duration": 317, "velocity": 113}, {"time": 222022, "pitch": 55, "duration": 266, "velocity": 108}, {"time": 222022, "pitch": 59, "duration": 266, "velocity": 113}, {"time": 222022, "pitch": 64, "duration": 271, "velocity": 102}, {"time": 222502, "pitch": 48, "duration": 227, "velocity": 113}, {"time": 222502, "pitch": 55, "duration": 214, "velocity": 98}, {"time": 222502, "pitch": 59, "duration": 212, "velocity": 113}, {"time": 222502, "pitch": 64, "duration": 212, "velocity": 101}, {"time": 222982, "pitch": 48, "duration": 117, "velocity": 113}, {"time": 222982, "pitch": 55, "duration": 250, "velocity": 99}, {"time": 222982, "pitch": 59, "duration": 237, "velocity": 113}, {"time": 222982, "pitch": 64, "duration": 254, "velocity": 111}, {"time": 223221, "pitch": 50, "duration": 560, "velocity": 113}, {"time": 223221, "pitch": 57, "duration": 531, "velocity": 113}, {"time": 223221, "pitch": 62, "duration": 572, "velocity": 111}, {"time": 223221, "pitch": 66, "duration": 556, "velocity": 113}, {"time": 223221, "pitch": 69, "duration": 572, "velocity": 85}, {"time": 223941, "pitch": 50, "duration": 284, "velocity": 113}, {"time": 223941, "pitch": 57, "duration": 285, "velocity": 113}, {"time": 223941, "pitch": 62, "duration": 335, "velocity": 111}, {"time": 223941, "pitch": 66, "duration": 299, "velocity": 113}, {"time": 223941, "pitch": 69, "duration": 332, "velocity": 77}, {"time": 224421, "pitch": 50, "duration": 193, "velocity": 113}, {"time": 224421, "pitch": 57, "duration": 202, "velocity": 113}, {"time": 224421, "pitch": 62, "duration": 316, "velocity": 94}, {"time": 224421, "pitch": 66, "duration": 277, "velocity": 113}, {"time": 224421, "pitch": 69, "duration": 289, "velocity": 78}, {"time": 224900, "pitch": 50, "duration": 127, "velocity": 113}, {"time": 224900, "pitch": 57, "duration": 153, "velocity": 113}, {"time": 224900, "pitch": 62, "duration": 208, "velocity": 108}, {"time": 224900, "pitch": 66, "duration": 180, "velocity": 113}, {"time": 224900, "pitch": 69, "duration": 192, "velocity": 80}, {"time": 225140, "pitch": 43, "duration": 510, "velocity": 113}, {"time": 225140, "pitch": 50, "duration": 449, "velocity": 111}, {"time": 225140, "pitch": 55, "duration": 583, "velocity": 113}, {"time": 225140, "pitch": 59, "duration": 583, "velocity": 113}, {"time": 225140, "pitch": 62, "duration": 581, "velocity": 113}, {"time": 225860, "pitch": 43, "duration": 188, "velocity": 113}, {"time": 225860, "pitch": 50, "duration": 251, "velocity": 113}, {"time": 225860, "pitch": 55, "duration": 271, "velocity": 106}, {"time": 225860, "pitch": 59, "duration": 233, "velocity": 113}, {"time": 225860, "pitch": 62, "duration": 248, "velocity": 111}, {"time": 226339, "pitch": 43, "duration": 167, "velocity": 113}, {"time": 226339, "pitch": 50, "duration": 163, "velocity": 113}, {"time": 226339, "pitch": 55, "duration": 251, "velocity": 111}, {"time": 226339, "pitch": 59, "duration": 207, "velocity": 113}, {"time": 226339, "pitch": 62, "duration": 204, "velocity": 113}, {"time": 226819, "pitch": 43, "duration": 123, "velocity": 113}, {"time": 226819, "pitch": 50, "duration": 153, "velocity": 111}, {"time": 226819, "pitch": 55, "duration": 236, "velocity": 94}, {"time": 226819, "pitch": 59, "duration": 209, "velocity": 113}, {"time": 226819, "pitch": 62, "duration": 212, "velocity": 113}, {"time": 227059, "pitch": 45, "duration": 503, "velocity": 112}, {"time": 227059, "pitch": 52, "duration": 477, "velocity": 113}, {"time": 227059, "pitch": 57, "duration": 574, "velocity": 113}, {"time": 227059, "pitch": 60, "duration": 565, "velocity": 113}, {"time": 227059, "pitch": 64, "duration": 580, "velocity": 111}, {"time": 227778, "pitch": 45, "duration": 207, "velocity": 113}, {"time": 227778, "pitch": 52, "duration": 216, "velocity": 113}, {"time": 227778, "pitch": 57, "duration": 314, "velocity": 99}, {"time": 227778, "pitch": 60, "duration": 309, "velocity": 113}, {"time": 227778, "pitch": 64, "duration": 312, "velocity": 111}, {"time": 228258, "pitch": 45, "duration": 177, "velocity": 113}, {"time": 228258, "pitch": 52, "duration": 189, "velocity": 113}, {"time": 228258, "pitch": 57, "duration": 269, "velocity": 102}, {"time": 228258, "pitch": 60, "duration": 236, "velocity": 111}, {"time": 228258, "pitch": 64, "duration": 247, "velocity": 94}, {"time": 228738, "pitch": 45, "duration": 131, "velocity": 113}, {"time": 228738, "pitch": 52, "duration": 169, "velocity": 113}, {"time": 228738, "pitch": 57, "duration": 238, "velocity": 102}, {"time": 228738, "pitch": 60, "duration": 217, "velocity": 113}, {"time": 228738, "pitch": 64, "duration": 230, "velocity": 111}, {"time": 228978, "pitch": 48, "duration": 551, "velocity": 113}, {"time": 228978, "pitch": 55, "duration": 528, "velocity": 106}, {"time": 228978, "pitch": 59, "duration": 515, "velocity": 113}, {"time": 228978, "pitch": 64, "duration": 518, "velocity": 113}, {"time": 229697, "pitch": 48, "duration": 317, "velocity": 113}, {"time": 229697, "pitch": 55, "duration": 266, "velocity": 108}, {"time": 229697, "pitch": 59, "duration": 266, "velocity": 113}, {"time": 229697, "pitch": 64, "duration": 271, "velocity": 102}, {"time": 230177, "pitch": 48, "duration": 227, "velocity": 113}, {"time": 230177, "pitch": 55, "duration": 214, "velocity": 98}, {"time": 230177, "pitch": 59, "duration": 212, "velocity": 113}, {"time": 230177, "pitch": 64, "duration": 212, "velocity": 101}, {"time": 230656, "pitch": 48, "duration": 118, "velocity": 113}, {"time": 230656, "pitch": 55, "duration": 251, "velocity": 99}, {"time": 230656, "pitch": 59, "duration": 238, "velocity": 113}, {"time": 230656, "pitch": 64, "duration": 255, "velocity": 111}, {"time": 230896, "pitch": 50, "duration": 224, "velocity": 113}, {"time": 230896, "pitch": 57, "duration": 195, "velocity": 113}, {"time": 230896, "pitch": 62, "duration": 211, "velocity": 111}, {"time": 230896, "pitch": 66, "duration": 220, "velocity": 113}, {"time": 230896, "pitch": 69, "duration": 198, "velocity": 85}, {"time": 231136, "pitch": 50, "duration": 221, "velocity": 113}, {"time": 231136, "pitch": 57, "duration": 208, "velocity": 113}, {"time": 231136, "pitch": 62, "duration": 227, "velocity": 111}, {"time": 231136, "pitch": 66, "duration": 182, "velocity": 113}, {"time": 231136, "pitch": 69, "duration": 202, "velocity": 77}, {"time": 232575, "pitch": 42, "duration": 210, "velocity": 79}, {"time": 232575, "pitch": 49, "duration": 217, "velocity": 86}, {"time": 232575, "pitch": 54, "duration": 210, "velocity": 104}, {"time": 232575, "pitch": 58, "duration": 193, "velocity": 97}, {"time": 232575, "pitch": 61, "duration": 190, "velocity": 101}, {"time": 232575, "pitch": 66, "duration": 197, "velocity": 87}, {"time": 232815, "pitch": 43, "duration": 589, "velocity": 79}, {"time": 232815, "pitch": 50, "duration": 214, "velocity": 86}, {"time": 232815, "pitch": 55, "duration": 192, "velocity": 104}, {"time": 232815, "pitch": 59, "duration": 169, "velocity": 97}, {"time": 232815, "pitch": 62, "duration": 166, "velocity": 101}, {"time": 232815, "pitch": 67, "duration": 173, "velocity": 87}, {"time": 233055, "pitch": 50, "duration": 279, "velocity": 80}, {"time": 233055, "pitch": 55, "duration": 203, "velocity": 101}, {"time": 233055, "pitch": 59, "duration": 237, "velocity": 104}, {"time": 233055, "pitch": 62, "duration": 221, "velocity": 106}, {"time": 233055, "pitch": 67, "duration": 257, "velocity": 97}, {"time": 233535, "pitch": 43, "duration": 150, "velocity": 127}, {"time": 233535, "pitch": 50, "duration": 230, "velocity": 93}, {"time": 233535, "pitch": 55, "duration": 222, "velocity": 105}, {"time": 233535, "pitch": 59, "duration": 212, "velocity": 97}, {"time": 233535, "pitch": 62, "duration": 203, "velocity": 101}, {"time": 233535, "pitch": 67, "duration": 210, "velocity": 90}, {"time": 233774, "pitch": 48, "duration": 146, "velocity": 127}, {"time": 233774, "pitch": 55, "duration": 148, "velocity": 97}, {"time": 233774, "pitch": 60, "duration": 175, "velocity": 92}, {"time": 233774, "pitch": 64, "duration": 155, "velocity": 100}, {"time": 233774, "pitch": 67, "duration": 150, "velocity": 93}, {"time": 234014, "pitch": 48, "duration": 216, "velocity": 127}, {"time": 234014, "pitch": 55, "duration": 226, "velocity": 118}, {"time": 234014, "pitch": 60, "duration": 199, "velocity": 99}, {"time": 234014, "pitch": 64, "duration": 200, "velocity": 111}, {"time": 234014, "pitch": 67, "duration": 226, "velocity": 105}, {"time": 234497, "pitch": 42, "duration": 232, "velocity": 79}, {"time": 234497, "pitch": 49, "duration": 239, "velocity": 86}, {"time": 234497, "pitch": 54, "duration": 232, "velocity": 104}, {"time": 234497, "pitch": 58, "duration": 215, "velocity": 97}, {"time": 234497, "pitch": 61, "duration": 212, "velocity": 101}, {"time": 234497, "pitch": 66, "duration": 219, "velocity": 87}, {"time": 234734, "pitch": 43, "duration": 601, "velocity": 79}, {"time": 234734, "pitch": 50, "duration": 220, "velocity": 86}, {"time": 234734, "pitch": 55, "duration": 197, "velocity": 104}, {"time": 234734, "pitch": 59, "duration": 174, "velocity": 97}, {"time": 234734, "pitch": 62, "duration": 170, "velocity": 101}, {"time": 234734, "pitch": 67, "duration": 178, "velocity": 87}, {"time": 234980, "pitch": 50, "duration": 285, "velocity": 80}, {"time": 234980, "pitch": 55, "duration": 209, "velocity": 101}, {"time": 234980, "pitch": 59, "duration": 243, "velocity": 104}, {"time": 234980, "pitch": 62, "duration": 227, "velocity": 106}, {"time": 234980, "pitch": 67, "duration": 263, "velocity": 97}, {"time": 235466, "pitch": 43, "duration": 151, "velocity": 127}, {"time": 235466, "pitch": 50, "duration": 231, "velocity": 93}, {"time": 235466, "pitch": 55, "duration": 223, "velocity": 105}, {"time": 235466, "pitch": 59, "duration": 213, "velocity": 97}, {"time": 235466, "pitch": 62, "duration": 204, "velocity": 101}, {"time": 235466, "pitch": 67, "duration": 211, "velocity": 90}, {"time": 235706, "pitch": 48, "duration": 146, "velocity": 127}, {"time": 235706, "pitch": 55, "duration": 148, "velocity": 97}, {"time": 235706, "pitch": 60, "duration": 175, "velocity": 92}, {"time": 235706, "pitch": 64, "duration": 155, "velocity": 100}, {"time": 235706, "pitch": 67, "duration": 150, "velocity": 93}, {"time": 235946, "pitch": 48, "duration": 215, "velocity": 127}, {"time": 235946, "pitch": 55, "duration": 225, "velocity": 118}, {"time": 235946, "pitch": 60, "duration": 198, "velocity": 99}, {"time": 235946, "pitch": 64, "duration": 199, "velocity": 111}, {"time": 235946, "pitch": 67, "duration": 225, "velocity": 105}, {"time": 236425, "pitch": 42, "duration": 232, "velocity": 79}, {"time": 236425, "pitch": 49, "duration": 239, "velocity": 86}, {"time": 236425, "pitch": 54, "duration": 232, "velocity": 104}, {"time": 236425, "pitch": 58, "duration": 215, "velocity": 97}, {"time": 236425, "pitch": 61, "duration": 212, "velocity": 101}, {"time": 236425, "pitch": 66, "duration": 219, "velocity": 87}, {"time": 236665, "pitch": 43, "duration": 589, "velocity": 79}, {"time": 236665, "pitch": 50, "duration": 214, "velocity": 86}, {"time": 236665, "pitch": 55, "duration": 192, "velocity": 104}, {"time": 236665, "pitch": 59, "duration": 169, "velocity": 97}, {"time": 236665, "pitch": 62, "duration": 166, "velocity": 101}, {"time": 236665, "pitch": 67, "duration": 173, "velocity": 87}, {"time": 236905, "pitch": 50, "duration": 279, "velocity": 80}, {"time": 236905, "pitch": 55, "duration": 203, "velocity": 101}, {"time": 236905, "pitch": 59, "duration": 237, "velocity": 104}, {"time": 236905, "pitch": 62, "duration": 221, "velocity": 106}, {"time": 236905, "pitch": 67, "duration": 257, "velocity": 97}, {"time": 237385, "pitch": 43, "duration": 150, "velocity": 127}, {"time": 237385, "pitch": 50, "duration": 230, "velocity": 93}, {"time": 237385, "pitch": 55, "duration": 222, "velocity": 105}, {"time": 237385, "pitch": 59, "duration": 212, "velocity": 97}, {"time": 237385, "pitch": 62, "duration": 203, "velocity": 101}, {"time": 237385, "pitch": 67, "duration": 210, "velocity": 90}, {"time": 237624, "pitch": 48, "duration": 146, "velocity": 127}, {"time": 237624, "pitch": 55, "duration": 148, "velocity": 97}, {"time": 237624, "pitch": 60, "duration": 175, "velocity": 92}, {"time": 237624, "pitch": 64, "duration": 155, "velocity": 100}, {"time": 237624, "pitch": 67, "duration": 150, "velocity": 93}, {"time": 237864, "pitch": 48, "duration": 216, "velocity": 127}, {"time": 237864, "pitch": 55, "duration": 226, "velocity": 118}, {"time": 237864, "pitch": 60, "duration": 199, "velocity": 99}, {"time": 237864, "pitch": 64, "duration": 200, "velocity": 111}, {"time": 237864, "pitch": 67, "duration": 226, "velocity": 105}, {"time": 238344, "pitch": 48, "duration": 171, "velocity": 127}, {"time": 238344, "pitch": 55, "duration": 177, "velocity": 108}, {"time": 238344, "pitch": 60, "duration": 204, "velocity": 87}, {"time": 238344, "pitch": 64, "duration": 179, "velocity": 91}, {"time": 238344, "pitch": 67, "duration": 204, "velocity": 94}, {"time": 238824, "pitch": 48, "duration": 173, "velocity": 127}, {"time": 238824, "pitch": 55, "duration": 216, "velocity": 95}, {"time": 238824, "pitch": 60, "duration": 216, "velocity": 102}, {"time": 238824, "pitch": 64, "duration": 241, "velocity": 117}, {"time": 238824, "pitch": 67, "duration": 218, "velocity": 100}, {"time": 239303, "pitch": 47, "duration": 192, "velocity": 127}, {"time": 239303, "pitch": 50, "duration": 205, "velocity": 101}, {"time": 239303, "pitch": 55, "duration": 212, "velocity": 97}, {"time": 239303, "pitch": 59, "duration": 203, "velocity": 100}, {"time": 239303, "pitch": 62, "duration": 197, "velocity": 105}, {"time": 239543, "pitch": 48, "duration": 169, "velocity": 127}, {"time": 239543, "pitch": 55, "duration": 218, "velocity": 95}, {"time": 239543, "pitch": 60, "duration": 188, "velocity": 102}, {"time": 239543, "pitch": 64, "duration": 231, "velocity": 117}, {"time": 239543, "pitch": 67, "duration": 218, "velocity": 100}, {"time": 239783, "pitch": 47, "duration": 165, "velocity": 127}, {"time": 239783, "pitch": 50, "duration": 240, "velocity": 101}, {"time": 239783, "pitch": 55, "duration": 179, "velocity": 97}, {"time": 239783, "pitch": 59, "duration": 187, "velocity": 100}, {"time": 239783, "pitch": 62, "duration": 181, "velocity": 105}, {"time": 240023, "pitch": 48, "duration": 214, "velocity": 127}, {"time": 240023, "pitch": 55, "duration": 229, "velocity": 95}, {"time": 240023, "pitch": 59, "duration": 209, "velocity": 102}, {"time": 240023, "pitch": 64, "duration": 210, "velocity": 100}, {"time": 240023, "pitch": 67, "duration": 206, "velocity": 117}, {"time": 240263, "pitch": 50, "duration": 190, "velocity": 127}, {"time": 240263, "pitch": 57, "duration": 228, "velocity": 95}, {"time": 240263, "pitch": 62, "duration": 209, "velocity": 102}, {"time": 240263, "pitch": 66, "duration": 206, "velocity": 117}, {"time": 240263, "pitch": 69, "duration": 210, "velocity": 100}, {"time": 240366, "pitch": 43, "duration": 238, "velocity": 79}, {"time": 240366, "pitch": 50, "duration": 87, "velocity": 86}, {"time": 240366, "pitch": 55, "duration": 179, "velocity": 104}, {"time": 240366, "pitch": 59, "duration": 156, "velocity": 97}, {"time": 240366, "pitch": 62, "duration": 106, "velocity": 101}, {"time": 240366, "pitch": 67, "duration": 160, "velocity": 87}, {"time": 240502, "pitch": 43, "duration": 102, "velocity": 79}, {"time": 240502, "pitch": 50, "duration": 65, "velocity": 86}, {"time": 240502, "pitch": 55, "duration": 43, "velocity": 104}, {"time": 240502, "pitch": 59, "duration": 20, "velocity": 97}, {"time": 240502, "pitch": 62, "duration": 17, "velocity": 101}, {"time": 240502, "pitch": 67, "duration": 24, "velocity": 87}, {"time": 240742, "pitch": 50, "duration": 279, "velocity": 80}, {"time": 240742, "pitch": 55, "duration": 203, "velocity": 101}, {"time": 240742, "pitch": 59, "duration": 237, "velocity": 104}, {"time": 240742, "pitch": 62, "duration": 221, "velocity": 106}, {"time": 240742, "pitch": 67, "duration": 257, "velocity": 97}, {"time": 241222, "pitch": 43, "duration": 151, "velocity": 127}, {"time": 241222, "pitch": 50, "duration": 231, "velocity": 93}, {"time": 241222, "pitch": 55, "duration": 223, "velocity": 105}, {"time": 241222, "pitch": 59, "duration": 213, "velocity": 97}, {"time": 241222, "pitch": 62, "duration": 204, "velocity": 101}, {"time": 241222, "pitch": 67, "duration": 211, "velocity": 90}, {"time": 241462, "pitch": 48, "duration": 146, "velocity": 127}, {"time": 241462, "pitch": 55, "duration": 148, "velocity": 97}, {"time": 241462, "pitch": 60, "duration": 175, "velocity": 92}, {"time": 241462, "pitch": 64, "duration": 155, "velocity": 100}, {"time": 241462, "pitch": 67, "duration": 150, "velocity": 93}, {"time": 241702, "pitch": 48, "duration": 216, "velocity": 127}, {"time": 241702, "pitch": 55, "duration": 226, "velocity": 118}, {"time": 241702, "pitch": 60, "duration": 199, "velocity": 99}, {"time": 241702, "pitch": 64, "duration": 200, "velocity": 111}, {"time": 241702, "pitch": 67, "duration": 226, "velocity": 105}, {"time": 242181, "pitch": 42, "duration": 232, "velocity": 79}, {"time": 242181, "pitch": 49, "duration": 239, "velocity": 86}, {"time": 242181, "pitch": 54, "duration": 232, "velocity": 104}, {"time": 242181, "pitch": 58, "duration": 215, "velocity": 97}, {"time": 242181, "pitch": 61, "duration": 212, "velocity": 101}, {"time": 242181, "pitch": 66, "duration": 219, "velocity": 87}, {"time": 242421, "pitch": 43, "duration": 589, "velocity": 79}, {"time": 242421, "pitch": 50, "duration": 214, "velocity": 86}, {"time": 242421, "pitch": 55, "duration": 192, "velocity": 104}, {"time": 242421, "pitch": 59, "duration": 169, "velocity": 97}, {"time": 242421, "pitch": 62, "duration": 166, "velocity": 101}, {"time": 242421, "pitch": 67, "duration": 173, "velocity": 87}, {"time": 242661, "pitch": 50, "duration": 279, "velocity": 80}, {"time": 242661, "pitch": 55, "duration": 203, "velocity": 101}, {"time": 242661, "pitch": 59, "duration": 237, "velocity": 104}, {"time": 242661, "pitch": 62, "duration": 221, "velocity": 106}, {"time": 242661, "pitch": 67, "duration": 257, "velocity": 97}, {"time": 243141, "pitch": 43, "duration": 151, "velocity": 127}, {"time": 243141, "pitch": 50, "duration": 231, "velocity": 93}, {"time": 243141, "pitch": 55, "duration": 223, "velocity": 105}, {"time": 243141, "pitch": 59, "duration": 213, "velocity": 97}, {"time": 243141, "pitch": 62, "duration": 204, "velocity": 101}, {"time": 243141, "pitch": 67, "duration": 211, "velocity": 90}, {"time": 243381, "pitch": 48, "duration": 145, "velocity": 127}, {"time": 243381, "pitch": 55, "duration": 147, "velocity": 97}, {"time": 243381, "pitch": 60, "duration": 174, "velocity": 92}, {"time": 243381, "pitch": 64, "duration": 154, "velocity": 100}, {"time": 243381, "pitch": 67, "duration": 149, "velocity": 93}, {"time": 243620, "pitch": 48, "duration": 216, "velocity": 127}, {"time": 243620, "pitch": 55, "duration": 226, "velocity": 118}, {"time": 243620, "pitch": 60, "duration": 199, "velocity": 99}, {"time": 243620, "pitch": 64, "duration": 200, "velocity": 111}, {"time": 243620, "pitch": 67, "duration": 226, "velocity": 105}, {"time": 244100, "pitch": 42, "duration": 232, "velocity": 79}, {"time": 244100, "pitch": 49, "duration": 239, "velocity": 86}, {"time": 244100, "pitch": 54, "duration": 232, "velocity": 104}, {"time": 244100, "pitch": 58, "duration": 215, "velocity": 97}, {"time": 244100, "pitch": 61, "duration": 212, "velocity": 101}, {"time": 244100, "pitch": 66, "duration": 219, "velocity": 87}, {"time": 244340, "pitch": 43, "duration": 589, "velocity": 79}, {"time": 244340, "pitch": 50, "duration": 214, "velocity": 86}, {"time": 244340, "pitch": 55, "duration": 192, "velocity": 104}, {"time": 244340, "pitch": 59, "duration": 169, "velocity": 97}, {"time": 244340, "pitch": 62, "duration": 166, "velocity": 101}, {"time": 244340, "pitch": 67, "duration": 173, "velocity": 87}, {"time": 244580, "pitch": 50, "duration": 279, "velocity": 80}, {"time": 244580, "pitch": 55, "duration": 203, "velocity": 101}, {"time": 244580, "pitch": 59, "duration": 237, "velocity": 104}, {"time": 244580, "pitch": 62, "duration": 221, "velocity": 106}, {"time": 244580, "pitch": 67, "duration": 257, "velocity": 97}, {"time": 245059, "pitch": 43, "duration": 151, "velocity": 127}, {"time": 245059, "pitch": 50, "duration": 231, "velocity": 93}, {"time": 245059, "pitch": 55, "duration": 223, "velocity": 105}, {"time": 245059, "pitch": 59, "duration": 213, "velocity": 97}, {"time": 245059, "pitch": 62, "duration": 204, "velocity": 101}, {"time": 245059, "pitch": 67, "duration": 211, "velocity": 90}, {"time": 245299, "pitch": 48, "duration": 146, "velocity": 127}, {"time": 245299, "pitch": 55, "duration": 148, "velocity": 97}, {"time": 245299, "pitch": 60, "duration": 175, "velocity": 92}, {"time": 245299, "pitch": 64, "duration": 155, "velocity": 100}, {"time": 245299, "pitch": 67, "duration": 150, "velocity": 93}, {"time": 245539, "pitch": 48, "duration": 216, "velocity": 127}, {"time": 245539, "pitch": 55, "duration": 226, "velocity": 118}, {"time": 245539, "pitch": 60, "duration": 199, "velocity": 99}, {"time": 245539, "pitch": 64, "duration": 200, "velocity": 111}, {"time": 245539, "pitch": 67, "duration": 226, "velocity": 105}, {"time": 246019, "pitch": 48, "duration": 171, "velocity": 127}, {"time": 246019, "pitch": 55, "duration": 177, "velocity": 108}, {"time": 246019, "pitch": 60, "duration": 204, "velocity": 87}, {"time": 246019, "pitch": 64, "duration": 179, "velocity": 91}, {"time": 246019, "pitch": 67, "duration": 204, "velocity": 94}, {"time": 246498, "pitch": 48, "duration": 174, "velocity": 127}, {"time": 246498, "pitch": 55, "duration": 217, "velocity": 95}, {"time": 246498, "pitch": 60, "duration": 217, "velocity": 102}, {"time": 246498, "pitch": 64, "duration": 242, "velocity": 117}, {"time": 246498, "pitch": 67, "duration": 219, "velocity": 100}, {"time": 246978, "pitch": 47, "duration": 192, "velocity": 127}, {"time": 246978, "pitch": 50, "duration": 205, "velocity": 101}, {"time": 246978, "pitch": 55, "duration": 212, "velocity": 97}, {"time": 246978, "pitch": 59, "duration": 203, "velocity": 100}, {"time": 246978, "pitch": 62, "duration": 197, "velocity": 105}, {"time": 247218, "pitch": 48, "duration": 169, "velocity": 127}, {"time": 247218, "pitch": 55, "duration": 218, "velocity": 95}, {"time": 247218, "pitch": 60, "duration": 188, "velocity": 102}, {"time": 247218, "pitch": 64, "duration": 231, "velocity": 117}, {"time": 247218, "pitch": 67, "duration": 218, "velocity": 100}, {"time": 247458, "pitch": 47, "duration": 165, "velocity": 127}, {"time": 247458, "pitch": 50, "duration": 240, "velocity": 101}, {"time": 247458, "pitch": 55, "duration": 179, "velocity": 97}, {"time": 247458, "pitch": 59, "duration": 187, "velocity": 100}, {"time": 247458, "pitch": 62, "duration": 181, "velocity": 105}, {"time": 247698, "pitch": 48, "duration": 214, "velocity": 127}, {"time": 247698, "pitch": 55, "duration": 229, "velocity": 95}, {"time": 247698, "pitch": 59, "duration": 209, "velocity": 102}, {"time": 247698, "pitch": 64, "duration": 206, "velocity": 117}, {"time": 247698, "pitch": 67, "duration": 210, "velocity": 100}, {"time": 247938, "pitch": 50, "duration": 189, "velocity": 127}, {"time": 247938, "pitch": 57, "duration": 228, "velocity": 95}, {"time": 247938, "pitch": 62, "duration": 208, "velocity": 102}, {"time": 247938, "pitch": 66, "duration": 205, "velocity": 117}, {"time": 247938, "pitch": 69, "duration": 209, "velocity": 100}, {"time": 248177, "pitch": 43, "duration": 5793, "velocity": 112}, {"time": 248177, "pitch": 50, "duration": 5742, "velocity": 125}, {"time": 248177, "pitch": 55, "duration": 5750, "velocity": 123}, {"time": 248177, "pitch": 59, "duration": 5729, "velocity": 126}, {"time": 248177, "pitch": 62, "duration": 5735, "velocity": 124}, {"time": 248177, "pitch": 67, "duration": 5756, "velocity": 116}], "annotations": [{"time": 240, "annotation": {"number": 7, "value": 60}, "group": "control_change"}, {"time": 258, "annotation": {"number": 11, "value": 110}, "group": "control_change"}, {"time": 277, "annotation": {"number": 10, "value": 0}, "group": "control_change"}, {"time": 295, "annotation": {"number": 91, "value": 30}, "group": "control_change"}, {"time": 314, "annotation": {"number": 93, "value": 0}, "group": "control_change"}, {"time": 332, "annotation": {"number": 101, "value": 0}, "group": "control_change"}, {"time": 350, "annotation": {"number": 100, "value": 0}, "group": "control_change"}, {"time": 369, "annotation": {"number": 6, "value": 12}, "group": "control_change"}, {"time": 387, "annotation": {"number": 101, "value": 127}, "group": "control_change"}, {"time": 406, "annotation": {"number": 100, "value": 127}, "group": "control_change"}, {"time": 250076, "annotation": {"number": 11, "value": 110}, "group": "control_change"}, {"time": 250196, "annotation": {"number": 11, "value": 106}, "group": "control_change"}, {"time": 250316, "annotation": {"number": 11, "value": 103}, "group": "control_change"}, {"time": 250436, "annotation": {"number": 11, "value": 99}, "group": "control_change"}, {"time": 250556, "annotation": {"number": 11, "value": 96}, "group": "control_change"}, {"time": 250676, "annotation": {"number": 11, "value": 92}, "group": "control_change"}, {"time": 250796, "annotation": {"number": 11, "value": 89}, "group": "control_change"}, {"time": 250916, "annotation": {"number": 11, "value": 85}, "group": "control_change"}, {"time": 251035, "annotation": {"number": 11, "value": 82}, "group": "control_change"}, {"time": 251155, "annotation": {"number": 11, "value": 79}, "group": "control_change"}, {"time": 251275, "annotation": {"number": 11, "value": 75}, "group": "control_change"}, {"time": 251395, "annotation": {"number": 11, "value": 72}, "group": "control_change"}, {"time": 251515, "annotation": {"number": 11, "value": 68}, "group": "control_change"}, {"time": 251635, "annotation": {"number": 11, "value": 65}, "group": "control_change"}, {"time": 251755, "annotation": {"number": 11, "value": 61}, "group": "control_change"}, {"time": 251875, "annotation": {"number": 11, "value": 58}, "group": "control_change"}, {"time": 251995, "annotation": {"number": 11, "value": 55}, "group": "control_change"}, {"time": 252115, "annotation": {"number": 11, "value": 51}, "group": "control_change"}, {"time": 252235, "annotation": {"number": 11, "value": 48}, "group": "control_change"}, {"time": 252355, "annotation": {"number": 11, "value": 44}, "group": "control_change"}, {"time": 252474, "annotation": {"number": 11, "value": 41}, "group": "control_change"}, {"time": 252594, "annotation": {"number": 11, "value": 37}, "group": "control_change"}, {"time": 252714, "annotation": {"number": 11, "value": 34}, "group": "control_change"}, {"time": 252834, "annotation": {"number": 11, "value": 30}, "group": "control_change"}, {"time": 252954, "annotation": {"number": 11, "value": 27}, "group": "control_change"}, {"time": 253074, "annotation": {"number": 11, "value": 24}, "group": "control_change"}, {"time": 253194, "annotation": {"number": 11, "value": 20}, "group": "control_change"}, {"time": 253314, "annotation": {"number": 11, "value": 17}, "group": "control_change"}, {"time": 253434, "annotation": {"number": 11, "value": 13}, "group": "control_change"}, {"time": 253557, "annotation": {"number": 11, "value": 10}, "group": "control_change"}, {"time": 253680, "annotation": {"number": 11, "value": 6}, "group": "control_change"}, {"time": 253803, "annotation": {"number": 11, "value": 3}, "group": "control_change"}, {"time": 253926, "annotation": {"number": 11, "value": 0}, "group": "control_change"}]}, {"program": 0, "is_drum": false, "name": "Gt.L", "annotations": [{"time": 184, "annotation": {"number": 0, "value": 0}, "group": "control_change"}, {"time": 203, "annotation": {"number": 32, "value": 2}, "group": "control_change"}]}, {"program": 30, "is_drum": false, "name": "Gt.L", "notes": [{"time": 17520, "pitch": 42, "duration": 210, "velocity": 84}, {"time": 17520, "pitch": 49, "duration": 217, "velocity": 91}, {"time": 17520, "pitch": 54, "duration": 210, "velocity": 109}, {"time": 17520, "pitch": 58, "duration": 193, "velocity": 102}, {"time": 17520, "pitch": 61, "duration": 190, "velocity": 106}, {"time": 17520, "pitch": 66, "duration": 197, "velocity": 92}, {"time": 17760, "pitch": 43, "duration": 588, "velocity": 84}, {"time": 17760, "pitch": 50, "duration": 214, "velocity": 91}, {"time": 17760, "pitch": 55, "duration": 192, "velocity": 109}, {"time": 17760, "pitch": 59, "duration": 169, "velocity": 102}, {"time": 17760, "pitch": 62, "duration": 166, "velocity": 106}, {"time": 17760, "pitch": 67, "duration": 173, "velocity": 92}, {"time": 18000, "pitch": 50, "duration": 278, "velocity": 85}, {"time": 18000, "pitch": 55, "duration": 203, "velocity": 106}, {"time": 18000, "pitch": 59, "duration": 236, "velocity": 109}, {"time": 18000, "pitch": 62, "duration": 220, "velocity": 111}, {"time": 18000, "pitch": 67, "duration": 256, "velocity": 102}, {"time": 18479, "pitch": 43, "duration": 151, "velocity": 127}, {"time": 18479, "pitch": 50, "duration": 231, "velocity": 98}, {"time": 18479, "pitch": 55, "duration": 223, "velocity": 110}, {"time": 18479, "pitch": 59, "duration": 213, "velocity": 102}, {"time": 18479, "pitch": 62, "duration": 204, "velocity": 106}, {"time": 18479, "pitch": 67, "duration": 211, "velocity": 95}, {"time": 18719, "pitch": 48, "duration": 146, "velocity": 127}, {"time": 18719, "pitch": 55, "duration": 148, "velocity": 102}, {"time": 18719, "pitch": 60, "duration": 175, "velocity": 97}, {"time": 18719, "pitch": 64, "duration": 155, "velocity": 105}, {"time": 18719, "pitch": 67, "duration": 150, "velocity": 98}, {"time": 18959, "pitch": 48, "duration": 216, "velocity": 127}, {"time": 18959, "pitch": 55, "duration": 226, "velocity": 123}, {"time": 18959, "pitch": 60, "duration": 199, "velocity": 104}, {"time": 18959, "pitch": 64, "duration": 200, "velocity": 116}, {"time": 18959, "pitch": 67, "duration": 226, "velocity": 110}, {"time": 19439, "pitch": 48, "duration": 382, "velocity": 111}, {"time": 19439, "pitch": 55, "duration": 392, "velocity": 127}, {"time": 19442, "pitch": 42, "duration": 232, "velocity": 84}, {"time": 19442, "pitch": 49, "duration": 239, "velocity": 91}, {"time": 19442, "pitch": 54, "duration": 232, "velocity": 109}, {"time": 19442, "pitch": 58, "duration": 215, "velocity": 102}, {"time": 19442, "pitch": 61, "duration": 212, "velocity": 106}, {"time": 19442, "pitch": 66, "duration": 219, "velocity": 92}, {"time": 19679, "pitch": 43, "duration": 588, "velocity": 84}, {"time": 19679, "pitch": 50, "duration": 213, "velocity": 91}, {"time": 19679, "pitch": 55, "duration": 152, "velocity": 109}, {"time": 19679, "pitch": 59, "duration": 168, "velocity": 102}, {"time": 19679, "pitch": 62, "duration": 165, "velocity": 106}, {"time": 19679, "pitch": 67, "duration": 172, "velocity": 92}, {"time": 19918, "pitch": 50, "duration": 279, "velocity": 85}, {"time": 19918, "pitch": 55, "duration": 203, "velocity": 106}, {"time": 19918, "pitch": 59, "duration": 237, "velocity": 109}, {"time": 19918, "pitch": 62, "duration": 221, "velocity": 111}, {"time": 19918, "pitch": 67, "duration": 257, "velocity": 102}, {"time": 20398, "pitch": 43, "duration": 151, "velocity": 127}, {"time": 20398, "pitch": 50, "duration": 231, "velocity": 98}, {"time": 20398, "pitch": 55, "duration": 223, "velocity": 110}, {"time": 20398, "pitch": 59, "duration": 213, "velocity": 102}, {"time": 20398, "pitch": 62, "duration": 204, "velocity": 106}, {"time": 20398, "pitch": 67, "duration": 211, "velocity": 95}, {"time": 20638, "pitch": 48, "duration": 146, "velocity": 127}, {"time": 20638, "pitch": 55, "duration": 148, "velocity": 102}, {"time": 20638, "pitch": 60, "duration": 175, "velocity": 97}, {"time": 20638, "pitch": 64, "duration": 155, "velocity": 105}, {"time": 20638, "pitch": 67, "duration": 150, "velocity": 98}, {"time": 20878, "pitch": 48, "duration": 216, "velocity": 127}, {"time": 20878, "pitch": 55, "duration": 226, "velocity": 123}, {"time": 20878, "pitch": 60, "duration": 199, "velocity": 104}, {"time": 20878, "pitch": 64, "duration": 200, "velocity": 116}, {"time": 20878, "pitch": 67, "duration": 226, "velocity": 110}, {"time": 21357, "pitch": 42, "duration": 232, "velocity": 84}, {"time": 21357, "pitch": 48, "duration": 383, "velocity": 111}, {"time": 21357, "pitch": 49, "duration": 239, "velocity": 91}, {"time": 21357, "pitch": 54, "duration": 232, "velocity": 109}, {"time": 21357, "pitch": 55, "duration": 393, "velocity": 127}, {"time": 21357, "pitch": 58, "duration": 215, "velocity": 102}, {"time": 21357, "pitch": 61, "duration": 212, "velocity": 106}, {"time": 21357, "pitch": 66, "duration": 219, "velocity": 92}, {"time": 21597, "pitch": 43, "duration": 589, "velocity": 84}, {"time": 21597, "pitch": 50, "duration": 214, "velocity": 91}, {"time": 21597, "pitch": 55, "duration": 153, "velocity": 109}, {"time": 21597, "pitch": 59, "duration": 169, "velocity": 102}, {"time": 21597, "pitch": 62, "duration": 166, "velocity": 106}, {"time": 21597, "pitch": 67, "duration": 173, "velocity": 92}, {"time": 21837, "pitch": 50, "duration": 279, "velocity": 85}, {"time": 21837, "pitch": 55, "duration": 203, "velocity": 106}, {"time": 21837, "pitch": 59, "duration": 237, "velocity": 109}, {"time": 21837, "pitch": 62, "duration": 221, "velocity": 111}, {"time": 21837, "pitch": 67, "duration": 257, "velocity": 102}, {"time": 22317, "pitch": 43, "duration": 151, "velocity": 127}, {"time": 22317, "pitch": 50, "duration": 231, "velocity": 98}, {"time": 22317, "pitch": 55, "duration": 223, "velocity": 110}, {"time": 22317, "pitch": 59, "duration": 213, "velocity": 102}, {"time": 22317, "pitch": 62, "duration": 204, "velocity": 106}, {"time": 22317, "pitch": 67, "duration": 211, "velocity": 95}, {"time": 22557, "pitch": 48, "duration": 145, "velocity": 127}, {"time": 22557, "pitch": 55, "duration": 147, "velocity": 102}, {"time": 22557, "pitch": 60, "duration": 174, "velocity": 97}, {"time": 22557, "pitch": 64, "duration": 154, "velocity": 105}, {"time": 22557, "pitch": 67, "duration": 149, "velocity": 98}, {"time": 22796, "pitch": 48, "duration": 216, "velocity": 127}, {"time": 22796, "pitch": 55, "duration": 226, "velocity": 123}, {"time": 22796, "pitch": 60, "duration": 199, "velocity": 104}, {"time": 22796, "pitch": 64, "duration": 200, "velocity": 116}, {"time": 22796, "pitch": 67, "duration": 226, "velocity": 110}, {"time": 23276, "pitch": 48, "duration": 171, "velocity": 127}, {"time": 23276, "pitch": 55, "duration": 177, "velocity": 113}, {"time": 23276, "pitch": 60, "duration": 204, "velocity": 92}, {"time": 23276, "pitch": 64, "duration": 179, "velocity": 96}, {"time": 23276, "pitch": 67, "duration": 204, "velocity": 99}, {"time": 23756, "pitch": 48, "duration": 174, "velocity": 127}, {"time": 23756, "pitch": 55, "duration": 217, "velocity": 100}, {"time": 23756, "pitch": 60, "duration": 217, "velocity": 107}, {"time": 23756, "pitch": 64, "duration": 242, "velocity": 122}, {"time": 23756, "pitch": 67, "duration": 219, "velocity": 105}, {"time": 24235, "pitch": 47, "duration": 192, "velocity": 127}, {"time": 24235, "pitch": 50, "duration": 205, "velocity": 106}, {"time": 24235, "pitch": 55, "duration": 212, "velocity": 102}, {"time": 24235, "pitch": 59, "duration": 203, "velocity": 105}, {"time": 24235, "pitch": 62, "duration": 197, "velocity": 110}, {"time": 24475, "pitch": 48, "duration": 169, "velocity": 127}, {"time": 24475, "pitch": 55, "duration": 218, "velocity": 100}, {"time": 24475, "pitch": 60, "duration": 188, "velocity": 107}, {"time": 24475, "pitch": 64, "duration": 231, "velocity": 122}, {"time": 24475, "pitch": 67, "duration": 218, "velocity": 105}, {"time": 24715, "pitch": 47, "duration": 165, "velocity": 127}, {"time": 24715, "pitch": 50, "duration": 240, "velocity": 106}, {"time": 24715, "pitch": 55, "duration": 179, "velocity": 102}, {"time": 24715, "pitch": 59, "duration": 187, "velocity": 105}, {"time": 24715, "pitch": 62, "duration": 181, "velocity": 110}, {"time": 24955, "pitch": 48, "duration": 214, "velocity": 127}, {"time": 24955, "pitch": 55, "duration": 229, "velocity": 100}, {"time": 24955, "pitch": 59, "duration": 209, "velocity": 107}, {"time": 24955, "pitch": 64, "duration": 210, "velocity": 105}, {"time": 24955, "pitch": 67, "duration": 206, "velocity": 122}, {"time": 25195, "pitch": 50, "duration": 190, "velocity": 127}, {"time": 25195, "pitch": 57, "duration": 229, "velocity": 100}, {"time": 25195, "pitch": 62, "duration": 209, "velocity": 107}, {"time": 25195, "pitch": 66, "duration": 206, "velocity": 122}, {"time": 25195, "pitch": 69, "duration": 210, "velocity": 105}, {"time": 25298, "pitch": 43, "duration": 239, "velocity": 84}, {"time": 25298, "pitch": 50, "duration": 87, "velocity": 91}, {"time": 25298, "pitch": 55, "duration": 180, "velocity": 109}, {"time": 25298, "pitch": 59, "duration": 157, "velocity": 102}, {"time": 25298, "pitch": 62, "duration": 106, "velocity": 106}, {"time": 25298, "pitch": 67, "duration": 161, "velocity": 92}, {"time": 25435, "pitch": 43, "duration": 102, "velocity": 84}, {"time": 25435, "pitch": 50, "duration": 65, "velocity": 91}, {"time": 25435, "pitch": 55, "duration": 43, "velocity": 109}, {"time": 25435, "pitch": 59, "duration": 20, "velocity": 102}, {"time": 25435, "pitch": 62, "duration": 17, "velocity": 106}, {"time": 25435, "pitch": 67, "duration": 24, "velocity": 92}, {"time": 25675, "pitch": 50, "duration": 278, "velocity": 85}, {"time": 25675, "pitch": 55, "duration": 202, "velocity": 106}, {"time": 25675, "pitch": 59, "duration": 236, "velocity": 109}, {"time": 25675, "pitch": 62, "duration": 220, "velocity": 111}, {"time": 25675, "pitch": 67, "duration": 256, "velocity": 102}, {"time": 26154, "pitch": 43, "duration": 151, "velocity": 127}, {"time": 26154, "pitch": 50, "duration": 231, "velocity": 98}, {"time": 26154, "pitch": 55, "duration": 223, "velocity": 110}, {"time": 26154, "pitch": 59, "duration": 213, "velocity": 102}, {"time": 26154, "pitch": 62, "duration": 204, "velocity": 106}, {"time": 26154, "pitch": 67, "duration": 211, "velocity": 95}, {"time": 26394, "pitch": 48, "duration": 146, "velocity": 127}, {"time": 26394, "pitch": 55, "duration": 148, "velocity": 102}, {"time": 26394, "pitch": 60, "duration": 175, "velocity": 97}, {"time": 26394, "pitch": 64, "duration": 155, "velocity": 105}, {"time": 26394, "pitch": 67, "duration": 150, "velocity": 98}, {"time": 26634, "pitch": 48, "duration": 216, "velocity": 127}, {"time": 26634, "pitch": 55, "duration": 226, "velocity": 123}, {"time": 26634, "pitch": 60, "duration": 199, "velocity": 104}, {"time": 26634, "pitch": 64, "duration": 200, "velocity": 116}, {"time": 26634, "pitch": 67, "duration": 226, "velocity": 110}, {"time": 27120, "pitch": 42, "duration": 238, "velocity": 84}, {"time": 27120, "pitch": 48, "duration": 423, "velocity": 110}, {"time": 27120, "pitch": 49, "duration": 245, "velocity": 91}, {"time": 27120, "pitch": 54, "duration": 238, "velocity": 109}, {"time": 27120, "pitch": 55, "duration": 422, "velocity": 127}, {"time": 27120, "pitch": 58, "duration": 221, "velocity": 102}, {"time": 27120, "pitch": 61, "duration": 217, "velocity": 106}, {"time": 27120, "pitch": 66, "duration": 225, "velocity": 92}, {"time": 27366, "pitch": 43, "duration": 589, "velocity": 84}, {"time": 27366, "pitch": 50, "duration": 214, "velocity": 91}, {"time": 27366, "pitch": 55, "duration": 176, "velocity": 109}, {"time": 27366, "pitch": 59, "duration": 169, "velocity": 102}, {"time": 27366, "pitch": 62, "duration": 166, "velocity": 106}, {"time": 27366, "pitch": 67, "duration": 173, "velocity": 92}, {"time": 27606, "pitch": 50, "duration": 279, "velocity": 85}, {"time": 27606, "pitch": 55, "duration": 203, "velocity": 106}, {"time": 27606, "pitch": 59, "duration": 237, "velocity": 109}, {"time": 27606, "pitch": 62, "duration": 221, "velocity": 111}, {"time": 27606, "pitch": 67, "duration": 257, "velocity": 102}, {"time": 28086, "pitch": 43, "duration": 150, "velocity": 127}, {"time": 28086, "pitch": 50, "duration": 230, "velocity": 98}, {"time": 28086, "pitch": 55, "duration": 222, "velocity": 110}, {"time": 28086, "pitch": 59, "duration": 212, "velocity": 102}, {"time": 28086, "pitch": 62, "duration": 203, "velocity": 106}, {"time": 28086, "pitch": 67, "duration": 210, "velocity": 95}, {"time": 28325, "pitch": 48, "duration": 146, "velocity": 127}, {"time": 28325, "pitch": 55, "duration": 148, "velocity": 102}, {"time": 28325, "pitch": 60, "duration": 175, "velocity": 97}, {"time": 28325, "pitch": 64, "duration": 155, "velocity": 105}, {"time": 28325, "pitch": 67, "duration": 150, "velocity": 98}, {"time": 28565, "pitch": 48, "duration": 216, "velocity": 127}, {"time": 28565, "pitch": 55, "duration": 226, "velocity": 123}, {"time": 28565, "pitch": 60, "duration": 199, "velocity": 104}, {"time": 28565, "pitch": 64, "duration": 200, "velocity": 116}, {"time": 28565, "pitch": 67, "duration": 226, "velocity": 110}, {"time": 29045, "pitch": 42, "duration": 232, "velocity": 84}, {"time": 29045, "pitch": 48, "duration": 379, "velocity": 125}, {"time": 29045, "pitch": 49, "duration": 239, "velocity": 91}, {"time": 29045, "pitch": 54, "duration": 232, "velocity": 109}, {"time": 29045, "pitch": 55, "duration": 380, "velocity": 127}, {"time": 29045, "pitch": 58, "duration": 215, "velocity": 102}, {"time": 29045, "pitch": 61, "duration": 212, "velocity": 106}, {"time": 29045, "pitch": 66, "duration": 219, "velocity": 92}, {"time": 29285, "pitch": 43, "duration": 588, "velocity": 84}, {"time": 29285, "pitch": 50, "duration": 214, "velocity": 91}, {"time": 29285, "pitch": 55, "duration": 140, "velocity": 109}, {"time": 29285, "pitch": 59, "duration": 169, "velocity": 102}, {"time": 29285, "pitch": 62, "duration": 166, "velocity": 106}, {"time": 29285, "pitch": 67, "duration": 173, "velocity": 92}, {"time": 29525, "pitch": 50, "duration": 278, "velocity": 85}, {"time": 29525, "pitch": 55, "duration": 202, "velocity": 106}, {"time": 29525, "pitch": 59, "duration": 236, "velocity": 109}, {"time": 29525, "pitch": 62, "duration": 220, "velocity": 111}, {"time": 29525, "pitch": 67, "duration": 256, "velocity": 102}, {"time": 30004, "pitch": 43, "duration": 151, "velocity": 127}, {"time": 30004, "pitch": 50, "duration": 231, "velocity": 98}, {"time": 30004, "pitch": 55, "duration": 223, "velocity": 110}, {"time": 30004, "pitch": 59, "duration": 213, "velocity": 102}, {"time": 30004, "pitch": 62, "duration": 204, "velocity": 106}, {"time": 30004, "pitch": 67, "duration": 211, "velocity": 95}, {"time": 30244, "pitch": 48, "duration": 146, "velocity": 127}, {"time": 30244, "pitch": 55, "duration": 148, "velocity": 102}, {"time": 30244, "pitch": 60, "duration": 175, "velocity": 97}, {"time": 30244, "pitch": 64, "duration": 155, "velocity": 105}, {"time": 30244, "pitch": 67, "duration": 150, "velocity": 98}, {"time": 30484, "pitch": 48, "duration": 216, "velocity": 127}, {"time": 30484, "pitch": 55, "duration": 226, "velocity": 123}, {"time": 30484, "pitch": 60, "duration": 199, "velocity": 104}, {"time": 30484, "pitch": 64, "duration": 200, "velocity": 116}, {"time": 30484, "pitch": 67, "duration": 226, "velocity": 110}, {"time": 30964, "pitch": 48, "duration": 170, "velocity": 127}, {"time": 30964, "pitch": 55, "duration": 176, "velocity": 113}, {"time": 30964, "pitch": 60, "duration": 203, "velocity": 92}, {"time": 30964, "pitch": 64, "duration": 178, "velocity": 96}, {"time": 30964, "pitch": 67, "duration": 203, "velocity": 99}, {"time": 31443, "pitch": 48, "duration": 174, "velocity": 127}, {"time": 31443, "pitch": 55, "duration": 217, "velocity": 100}, {"time": 31443, "pitch": 60, "duration": 217, "velocity": 107}, {"time": 31443, "pitch": 64, "duration": 242, "velocity": 122}, {"time": 31443, "pitch": 67, "duration": 219, "velocity": 105}, {"time": 31923, "pitch": 47, "duration": 192, "velocity": 127}, {"time": 31923, "pitch": 50, "duration": 205, "velocity": 106}, {"time": 31923, "pitch": 55, "duration": 212, "velocity": 102}, {"time": 31923, "pitch": 59, "duration": 203, "velocity": 105}, {"time": 31923, "pitch": 62, "duration": 197, "velocity": 110}, {"time": 32163, "pitch": 48, "duration": 169, "velocity": 127}, {"time": 32163, "pitch": 55, "duration": 218, "velocity": 100}, {"time": 32163, "pitch": 60, "duration": 188, "velocity": 107}, {"time": 32163, "pitch": 64, "duration": 231, "velocity": 122}, {"time": 32163, "pitch": 67, "duration": 218, "velocity": 105}, {"time": 32403, "pitch": 47, "duration": 165, "velocity": 127}, {"time": 32403, "pitch": 50, "duration": 239, "velocity": 106}, {"time": 32403, "pitch": 55, "duration": 179, "velocity": 102}, {"time": 32403, "pitch": 59, "duration": 187, "velocity": 105}, {"time": 32403, "pitch": 62, "duration": 181, "velocity": 110}, {"time": 32642, "pitch": 48, "duration": 214, "velocity": 127}, {"time": 32642, "pitch": 55, "duration": 229, "velocity": 100}, {"time": 32642, "pitch": 59, "duration": 209, "velocity": 107}, {"time": 32642, "pitch": 64, "duration": 206, "velocity": 122}, {"time": 32642, "pitch": 67, "duration": 210, "velocity": 105}, {"time": 32882, "pitch": 50, "duration": 190, "velocity": 127}, {"time": 32882, "pitch": 57, "duration": 229, "velocity": 100}, {"time": 32882, "pitch": 62, "duration": 209, "velocity": 107}, {"time": 32882, "pitch": 66, "duration": 206, "velocity": 122}, {"time": 32882, "pitch": 69, "duration": 210, "velocity": 105}, {"time": 63834, "pitch": 48, "duration": 1818, "velocity": 97}, {"time": 63834, "pitch": 55, "duration": 1861, "velocity": 127}, {"time": 63834, "pitch": 60, "duration": 1890, "velocity": 127}, {"time": 63834, "pitch": 64, "duration": 1848, "velocity": 127}, {"time": 63834, "pitch": 67, "duration": 1856, "velocity": 127}, {"time": 65768, "pitch": 48, "duration": 1817, "velocity": 99}, {"time": 65768, "pitch": 55, "duration": 1843, "velocity": 127}, {"time": 65768, "pitch": 60, "duration": 1882, "velocity": 127}, {"time": 65768, "pitch": 63, "duration": 1840, "velocity": 127}, {"time": 65768, "pitch": 67, "duration": 1895, "velocity": 127}, {"time": 67684, "pitch": 43, "duration": 1917, "velocity": 108}, {"time": 67684, "pitch": 50, "duration": 1866, "velocity": 121}, {"time": 67684, "pitch": 55, "duration": 1874, "velocity": 119}, {"time": 67684, "pitch": 59, "duration": 1853, "velocity": 122}, {"time": 67684, "pitch": 62, "duration": 1859, "velocity": 120}, {"time": 67684, "pitch": 67, "duration": 1880, "velocity": 112}, {"time": 69603, "pitch": 42, "duration": 235, "velocity": 115}, {"time": 69603, "pitch": 49, "duration": 235, "velocity": 105}, {"time": 69603, "pitch": 54, "duration": 226, "velocity": 127}, {"time": 69603, "pitch": 58, "duration": 232, "velocity": 108}, {"time": 69603, "pitch": 61, "duration": 232, "velocity": 111}, {"time": 69603, "pitch": 66, "duration": 232, "velocity": 110}, {"time": 69843, "pitch": 43, "duration": 157, "velocity": 124}, {"time": 69843, "pitch": 50, "duration": 157, "velocity": 127}, {"time": 69843, "pitch": 55, "duration": 139, "velocity": 127}, {"time": 69843, "pitch": 59, "duration": 149, "velocity": 114}, {"time": 69843, "pitch": 62, "duration": 149, "velocity": 123}, {"time": 69843, "pitch": 67, "duration": 149, "velocity": 125}, {"time": 70080, "pitch": 59, "duration": 180, "velocity": 112}, {"time": 70083, "pitch": 43, "duration": 178, "velocity": 118}, {"time": 70083, "pitch": 50, "duration": 178, "velocity": 126}, {"time": 70083, "pitch": 55, "duration": 175, "velocity": 127}, {"time": 70083, "pitch": 62, "duration": 180, "velocity": 127}, {"time": 70083, "pitch": 67, "duration": 180, "velocity": 122}, {"time": 70323, "pitch": 42, "duration": 232, "velocity": 127}, {"time": 70323, "pitch": 49, "duration": 232, "velocity": 119}, {"time": 70323, "pitch": 54, "duration": 225, "velocity": 127}, {"time": 70323, "pitch": 58, "duration": 232, "velocity": 107}, {"time": 70323, "pitch": 61, "duration": 232, "velocity": 115}, {"time": 70323, "pitch": 66, "duration": 232, "velocity": 102}, {"time": 70562, "pitch": 43, "duration": 156, "velocity": 107}, {"time": 70562, "pitch": 50, "duration": 156, "velocity": 119}, {"time": 70562, "pitch": 55, "duration": 144, "velocity": 127}, {"time": 70562, "pitch": 59, "duration": 158, "velocity": 112}, {"time": 70562, "pitch": 62, "duration": 158, "velocity": 115}, {"time": 70562, "pitch": 67, "duration": 158, "velocity": 119}, {"time": 70802, "pitch": 43, "duration": 164, "velocity": 111}, {"time": 70802, "pitch": 50, "duration": 164, "velocity": 127}, {"time": 70802, "pitch": 55, "duration": 162, "velocity": 127}, {"time": 70802, "pitch": 59, "duration": 161, "velocity": 115}, {"time": 70802, "pitch": 62, "duration": 161, "velocity": 126}, {"time": 70802, "pitch": 67, "duration": 161, "velocity": 121}, {"time": 71042, "pitch": 42, "duration": 231, "velocity": 100}, {"time": 71042, "pitch": 49, "duration": 231, "velocity": 101}, {"time": 71042, "pitch": 54, "duration": 235, "velocity": 127}, {"time": 71042, "pitch": 58, "duration": 231, "velocity": 107}, {"time": 71042, "pitch": 61, "duration": 231, "velocity": 111}, {"time": 71042, "pitch": 66, "duration": 231, "velocity": 112}, {"time": 71282, "pitch": 43, "duration": 165, "velocity": 118}, {"time": 71282, "pitch": 50, "duration": 165, "velocity": 111}, {"time": 71282, "pitch": 55, "duration": 165, "velocity": 127}, {"time": 71282, "pitch": 59, "duration": 167, "velocity": 119}, {"time": 71282, "pitch": 62, "duration": 167, "velocity": 114}, {"time": 71282, "pitch": 67, "duration": 167, "velocity": 122}, {"time": 71522, "pitch": 48, "duration": 1805, "velocity": 97}, {"time": 71522, "pitch": 55, "duration": 1848, "velocity": 127}, {"time": 71522, "pitch": 60, "duration": 1877, "velocity": 127}, {"time": 71522, "pitch": 64, "duration": 1835, "velocity": 127}, {"time": 71522, "pitch": 67, "duration": 1843, "velocity": 127}, {"time": 73441, "pitch": 48, "duration": 1818, "velocity": 99}, {"time": 73441, "pitch": 55, "duration": 1844, "velocity": 127}, {"time": 73441, "pitch": 60, "duration": 1883, "velocity": 127}, {"time": 73441, "pitch": 63, "duration": 1841, "velocity": 127}, {"time": 73441, "pitch": 67, "duration": 1896, "velocity": 127}, {"time": 75359, "pitch": 43, "duration": 1917, "velocity": 108}, {"time": 75359, "pitch": 50, "duration": 1866, "velocity": 121}, {"time": 75359, "pitch": 55, "duration": 1874, "velocity": 119}, {"time": 75359, "pitch": 59, "duration": 1853, "velocity": 122}, {"time": 75359, "pitch": 62, "duration": 1859, "velocity": 120}, {"time": 75359, "pitch": 67, "duration": 1880, "velocity": 112}, {"time": 77278, "pitch": 42, "duration": 235, "velocity": 115}, {"time": 77278, "pitch": 49, "duration": 235, "velocity": 105}, {"time": 77278, "pitch": 54, "duration": 226, "velocity": 127}, {"time": 77278, "pitch": 58, "duration": 232, "velocity": 108}, {"time": 77278, "pitch": 61, "duration": 232, "velocity": 111}, {"time": 77278, "pitch": 66, "duration": 232, "velocity": 110}, {"time": 77518, "pitch": 43, "duration": 157, "velocity": 124}, {"time": 77518, "pitch": 50, "duration": 157, "velocity": 127}, {"time": 77518, "pitch": 55, "duration": 139, "velocity": 127}, {"time": 77518, "pitch": 59, "duration": 149, "velocity": 114}, {"time": 77518, "pitch": 62, "duration": 149, "velocity": 123}, {"time": 77518, "pitch": 67, "duration": 149, "velocity": 125}, {"time": 77755, "pitch": 59, "duration": 179, "velocity": 112}, {"time": 77758, "pitch": 43, "duration": 177, "velocity": 118}, {"time": 77758, "pitch": 50, "duration": 177, "velocity": 126}, {"time": 77758, "pitch": 55, "duration": 174, "velocity": 127}, {"time": 77758, "pitch": 62, "duration": 179, "velocity": 127}, {"time": 77758, "pitch": 67, "duration": 179, "velocity": 122}, {"time": 77997, "pitch": 42, "duration": 233, "velocity": 127}, {"time": 77997, "pitch": 49, "duration": 233, "velocity": 119}, {"time": 77997, "pitch": 54, "duration": 226, "velocity": 127}, {"time": 77997, "pitch": 58, "duration": 233, "velocity": 107}, {"time": 77997, "pitch": 61, "duration": 233, "velocity": 115}, {"time": 77997, "pitch": 66, "duration": 233, "velocity": 102}, {"time": 78237, "pitch": 43, "duration": 156, "velocity": 107}, {"time": 78237, "pitch": 50, "duration": 156, "velocity": 119}, {"time": 78237, "pitch": 55, "duration": 144, "velocity": 127}, {"time": 78237, "pitch": 59, "duration": 158, "velocity": 112}, {"time": 78237, "pitch": 62, "duration": 158, "velocity": 115}, {"time": 78237, "pitch": 67, "duration": 158, "velocity": 119}, {"time": 78477, "pitch": 43, "duration": 164, "velocity": 111}, {"time": 78477, "pitch": 50, "duration": 164, "velocity": 127}, {"time": 78477, "pitch": 55, "duration": 162, "velocity": 127}, {"time": 78477, "pitch": 59, "duration": 161, "velocity": 115}, {"time": 78477, "pitch": 62, "duration": 161, "velocity": 126}, {"time": 78477, "pitch": 67, "duration": 161, "velocity": 121}, {"time": 78717, "pitch": 42, "duration": 231, "velocity": 100}, {"time": 78717, "pitch": 49, "duration": 231, "velocity": 101}, {"time": 78717, "pitch": 54, "duration": 235, "velocity": 127}, {"time": 78717, "pitch": 58, "duration": 231, "velocity": 107}, {"time": 78717, "pitch": 61, "duration": 231, "velocity": 111}, {"time": 78717, "pitch": 66, "duration": 231, "velocity": 112}, {"time": 78957, "pitch": 43, "duration": 165, "velocity": 118}, {"time": 78957, "pitch": 50, "duration": 165, "velocity": 111}, {"time": 78957, "pitch": 55, "duration": 165, "velocity": 127}, {"time": 78957, "pitch": 59, "duration": 167, "velocity": 119}, {"time": 78957, "pitch": 62, "duration": 167, "velocity": 114}, {"time": 78957, "pitch": 67, "duration": 167, "velocity": 122}, {"time": 94559, "pitch": 48, "duration": 1805, "velocity": 87}, {"time": 94559, "pitch": 55, "duration": 1848, "velocity": 125}, {"time": 94559, "pitch": 60, "duration": 1877, "velocity": 125}, {"time": 94559, "pitch": 64, "duration": 1835, "velocity": 125}, {"time": 94559, "pitch": 67, "duration": 1843, "velocity": 123}, {"time": 96480, "pitch": 48, "duration": 1817, "velocity": 89}, {"time": 96480, "pitch": 55, "duration": 1843, "velocity": 125}, {"time": 96480, "pitch": 60, "duration": 1882, "velocity": 125}, {"time": 96480, "pitch": 63, "duration": 1840, "velocity": 125}, {"time": 96480, "pitch": 67, "duration": 1895, "velocity": 123}, {"time": 98396, "pitch": 43, "duration": 1917, "velocity": 98}, {"time": 98396, "pitch": 50, "duration": 1866, "velocity": 111}, {"time": 98396, "pitch": 55, "duration": 1874, "velocity": 109}, {"time": 98396, "pitch": 59, "duration": 1853, "velocity": 112}, {"time": 98396, "pitch": 62, "duration": 1859, "velocity": 110}, {"time": 98396, "pitch": 67, "duration": 1880, "velocity": 102}, {"time": 100315, "pitch": 42, "duration": 235, "velocity": 105}, {"time": 100315, "pitch": 49, "duration": 235, "velocity": 95}, {"time": 100315, "pitch": 54, "duration": 226, "velocity": 127}, {"time": 100315, "pitch": 58, "duration": 232, "velocity": 98}, {"time": 100315, "pitch": 61, "duration": 232, "velocity": 101}, {"time": 100315, "pitch": 66, "duration": 232, "velocity": 100}, {"time": 100555, "pitch": 43, "duration": 157, "velocity": 114}, {"time": 100555, "pitch": 50, "duration": 157, "velocity": 119}, {"time": 100555, "pitch": 55, "duration": 139, "velocity": 122}, {"time": 100555, "pitch": 59, "duration": 149, "velocity": 104}, {"time": 100555, "pitch": 62, "duration": 149, "velocity": 113}, {"time": 100555, "pitch": 67, "duration": 149, "velocity": 115}, {"time": 100792, "pitch": 59, "duration": 180, "velocity": 102}, {"time": 100795, "pitch": 43, "duration": 178, "velocity": 108}, {"time": 100795, "pitch": 50, "duration": 178, "velocity": 116}, {"time": 100795, "pitch": 55, "duration": 175, "velocity": 122}, {"time": 100795, "pitch": 62, "duration": 180, "velocity": 121}, {"time": 100795, "pitch": 67, "duration": 180, "velocity": 112}, {"time": 101035, "pitch": 42, "duration": 233, "velocity": 117}, {"time": 101035, "pitch": 49, "duration": 233, "velocity": 109}, {"time": 101035, "pitch": 54, "duration": 226, "velocity": 127}, {"time": 101035, "pitch": 58, "duration": 233, "velocity": 97}, {"time": 101035, "pitch": 61, "duration": 233, "velocity": 105}, {"time": 101035, "pitch": 66, "duration": 233, "velocity": 92}, {"time": 101274, "pitch": 43, "duration": 156, "velocity": 97}, {"time": 101274, "pitch": 50, "duration": 156, "velocity": 109}, {"time": 101274, "pitch": 55, "duration": 144, "velocity": 127}, {"time": 101274, "pitch": 59, "duration": 158, "velocity": 102}, {"time": 101274, "pitch": 62, "duration": 158, "velocity": 105}, {"time": 101274, "pitch": 67, "duration": 158, "velocity": 109}, {"time": 101514, "pitch": 43, "duration": 164, "velocity": 101}, {"time": 101514, "pitch": 50, "duration": 164, "velocity": 119}, {"time": 101514, "pitch": 55, "duration": 162, "velocity": 122}, {"time": 101514, "pitch": 59, "duration": 161, "velocity": 105}, {"time": 101514, "pitch": 62, "duration": 161, "velocity": 116}, {"time": 101514, "pitch": 67, "duration": 161, "velocity": 111}, {"time": 101754, "pitch": 42, "duration": 231, "velocity": 90}, {"time": 101754, "pitch": 49, "duration": 231, "velocity": 91}, {"time": 101754, "pitch": 54, "duration": 235, "velocity": 127}, {"time": 101754, "pitch": 58, "duration": 231, "velocity": 97}, {"time": 101754, "pitch": 61, "duration": 231, "velocity": 101}, {"time": 101754, "pitch": 66, "duration": 231, "velocity": 102}, {"time": 101994, "pitch": 43, "duration": 165, "velocity": 108}, {"time": 101994, "pitch": 50, "duration": 165, "velocity": 101}, {"time": 101994, "pitch": 55, "duration": 165, "velocity": 127}, {"time": 101994, "pitch": 59, "duration": 167, "velocity": 109}, {"time": 101994, "pitch": 62, "duration": 167, "velocity": 104}, {"time": 101994, "pitch": 67, "duration": 167, "velocity": 112}, {"time": 102234, "pitch": 48, "duration": 1817, "velocity": 87}, {"time": 102234, "pitch": 55, "duration": 1860, "velocity": 125}, {"time": 102234, "pitch": 60, "duration": 1889, "velocity": 125}, {"time": 102234, "pitch": 64, "duration": 1847, "velocity": 125}, {"time": 102234, "pitch": 67, "duration": 1855, "velocity": 123}, {"time": 104166, "pitch": 48, "duration": 1818, "velocity": 89}, {"time": 104166, "pitch": 55, "duration": 1844, "velocity": 125}, {"time": 104166, "pitch": 60, "duration": 1883, "velocity": 125}, {"time": 104166, "pitch": 63, "duration": 1841, "velocity": 125}, {"time": 104166, "pitch": 67, "duration": 1896, "velocity": 123}, {"time": 106084, "pitch": 43, "duration": 1951, "velocity": 100}, {"time": 106084, "pitch": 50, "duration": 1900, "velocity": 113}, {"time": 106084, "pitch": 55, "duration": 1909, "velocity": 111}, {"time": 106084, "pitch": 59, "duration": 1887, "velocity": 114}, {"time": 106084, "pitch": 62, "duration": 1894, "velocity": 112}, {"time": 106084, "pitch": 67, "duration": 1915, "velocity": 104}, {"time": 108003, "pitch": 50, "duration": 1804, "velocity": 87}, {"time": 108003, "pitch": 57, "duration": 1847, "velocity": 125}, {"time": 108003, "pitch": 62, "duration": 1876, "velocity": 125}, {"time": 108003, "pitch": 66, "duration": 1834, "velocity": 125}, {"time": 108003, "pitch": 69, "duration": 1842, "velocity": 123}, {"time": 109921, "pitch": 43, "duration": 510, "velocity": 113}, {"time": 109921, "pitch": 50, "duration": 449, "velocity": 111}, {"time": 109921, "pitch": 55, "duration": 583, "velocity": 113}, {"time": 109921, "pitch": 59, "duration": 583, "velocity": 113}, {"time": 109921, "pitch": 62, "duration": 581, "velocity": 113}, {"time": 110641, "pitch": 43, "duration": 188, "velocity": 113}, {"time": 110641, "pitch": 50, "duration": 252, "velocity": 113}, {"time": 110641, "pitch": 55, "duration": 272, "velocity": 106}, {"time": 110641, "pitch": 59, "duration": 234, "velocity": 113}, {"time": 110641, "pitch": 62, "duration": 249, "velocity": 111}, {"time": 111121, "pitch": 43, "duration": 166, "velocity": 113}, {"time": 111121, "pitch": 50, "duration": 162, "velocity": 113}, {"time": 111121, "pitch": 55, "duration": 250, "velocity": 111}, {"time": 111121, "pitch": 59, "duration": 206, "velocity": 113}, {"time": 111121, "pitch": 62, "duration": 203, "velocity": 113}, {"time": 111600, "pitch": 43, "duration": 123, "velocity": 113}, {"time": 111600, "pitch": 50, "duration": 153, "velocity": 111}, {"time": 111600, "pitch": 55, "duration": 236, "velocity": 94}, {"time": 111600, "pitch": 59, "duration": 209, "velocity": 113}, {"time": 111600, "pitch": 62, "duration": 212, "velocity": 113}, {"time": 111840, "pitch": 45, "duration": 503, "velocity": 112}, {"time": 111840, "pitch": 52, "duration": 477, "velocity": 113}, {"time": 111840, "pitch": 57, "duration": 575, "velocity": 113}, {"time": 111840, "pitch": 60, "duration": 566, "velocity": 113}, {"time": 111840, "pitch": 64, "duration": 581, "velocity": 111}, {"time": 112560, "pitch": 45, "duration": 206, "velocity": 113}, {"time": 112560, "pitch": 52, "duration": 215, "velocity": 113}, {"time": 112560, "pitch": 57, "duration": 313, "velocity": 99}, {"time": 112560, "pitch": 60, "duration": 308, "velocity": 113}, {"time": 112560, "pitch": 64, "duration": 311, "velocity": 111}, {"time": 113039, "pitch": 45, "duration": 177, "velocity": 113}, {"time": 113039, "pitch": 52, "duration": 189, "velocity": 113}, {"time": 113039, "pitch": 57, "duration": 269, "velocity": 102}, {"time": 113039, "pitch": 60, "duration": 236, "velocity": 111}, {"time": 113039, "pitch": 64, "duration": 247, "velocity": 94}, {"time": 113519, "pitch": 45, "duration": 131, "velocity": 113}, {"time": 113519, "pitch": 52, "duration": 169, "velocity": 113}, {"time": 113519, "pitch": 57, "duration": 238, "velocity": 102}, {"time": 113519, "pitch": 60, "duration": 217, "velocity": 113}, {"time": 113519, "pitch": 64, "duration": 230, "velocity": 111}, {"time": 113759, "pitch": 48, "duration": 551, "velocity": 113}, {"time": 113759, "pitch": 55, "duration": 528, "velocity": 106}, {"time": 113759, "pitch": 59, "duration": 515, "velocity": 113}, {"time": 113759, "pitch": 64, "duration": 518, "velocity": 113}, {"time": 114478, "pitch": 48, "duration": 317, "velocity": 113}, {"time": 114478, "pitch": 55, "duration": 266, "velocity": 108}, {"time": 114478, "pitch": 59, "duration": 266, "velocity": 113}, {"time": 114478, "pitch": 64, "duration": 271, "velocity": 102}, {"time": 114958, "pitch": 48, "duration": 227, "velocity": 113}, {"time": 114958, "pitch": 55, "duration": 214, "velocity": 98}, {"time": 114958, "pitch": 59, "duration": 212, "velocity": 113}, {"time": 114958, "pitch": 64, "duration": 212, "velocity": 101}, {"time": 115438, "pitch": 48, "duration": 118, "velocity": 113}, {"time": 115438, "pitch": 55, "duration": 250, "velocity": 99}, {"time": 115438, "pitch": 59, "duration": 238, "velocity": 113}, {"time": 115438, "pitch": 64, "duration": 254, "velocity": 111}, {"time": 115678, "pitch": 50, "duration": 559, "velocity": 113}, {"time": 115678, "pitch": 57, "duration": 530, "velocity": 113}, {"time": 115678, "pitch": 62, "duration": 571, "velocity": 111}, {"time": 115678, "pitch": 66, "duration": 555, "velocity": 113}, {"time": 115678, "pitch": 69, "duration": 571, "velocity": 85}, {"time": 116397, "pitch": 50, "duration": 284, "velocity": 113}, {"time": 116397, "pitch": 57, "duration": 285, "velocity": 113}, {"time": 116397, "pitch": 62, "duration": 335, "velocity": 111}, {"time": 116397, "pitch": 66, "duration": 299, "velocity": 113}, {"time": 116397, "pitch": 69, "duration": 332, "velocity": 77}, {"time": 116877, "pitch": 50, "duration": 194, "velocity": 113}, {"time": 116877, "pitch": 57, "duration": 203, "velocity": 113}, {"time": 116877, "pitch": 62, "duration": 316, "velocity": 94}, {"time": 116877, "pitch": 66, "duration": 278, "velocity": 113}, {"time": 116877, "pitch": 69, "duration": 290, "velocity": 78}, {"time": 117356, "pitch": 50, "duration": 127, "velocity": 113}, {"time": 117356, "pitch": 57, "duration": 153, "velocity": 113}, {"time": 117356, "pitch": 62, "duration": 208, "velocity": 108}, {"time": 117356, "pitch": 66, "duration": 180, "velocity": 113}, {"time": 117356, "pitch": 69, "duration": 192, "velocity": 80}, {"time": 117596, "pitch": 43, "duration": 510, "velocity": 113}, {"time": 117596, "pitch": 50, "duration": 449, "velocity": 111}, {"time": 117596, "pitch": 55, "duration": 583, "velocity": 113}, {"time": 117596, "pitch": 59, "duration": 583, "velocity": 113}, {"time": 117596, "pitch": 62, "duration": 581, "velocity": 113}, {"time": 118316, "pitch": 43, "duration": 188, "velocity": 113}, {"time": 118316, "pitch": 50, "duration": 252, "velocity": 113}, {"time": 118316, "pitch": 55, "duration": 272, "velocity": 106}, {"time": 118316, "pitch": 59, "duration": 234, "velocity": 113}, {"time": 118316, "pitch": 62, "duration": 249, "velocity": 111}, {"time": 118795, "pitch": 43, "duration": 167, "velocity": 113}, {"time": 118795, "pitch": 50, "duration": 163, "velocity": 113}, {"time": 118795, "pitch": 55, "duration": 251, "velocity": 111}, {"time": 118795, "pitch": 59, "duration": 207, "velocity": 113}, {"time": 118795, "pitch": 62, "duration": 204, "velocity": 113}, {"time": 119275, "pitch": 43, "duration": 123, "velocity": 113}, {"time": 119275, "pitch": 50, "duration": 153, "velocity": 111}, {"time": 119275, "pitch": 55, "duration": 236, "velocity": 94}, {"time": 119275, "pitch": 59, "duration": 209, "velocity": 113}, {"time": 119275, "pitch": 62, "duration": 212, "velocity": 113}, {"time": 119515, "pitch": 45, "duration": 503, "velocity": 112}, {"time": 119515, "pitch": 52, "duration": 477, "velocity": 113}, {"time": 119515, "pitch": 57, "duration": 575, "velocity": 113}, {"time": 119515, "pitch": 60, "duration": 566, "velocity": 113}, {"time": 119515, "pitch": 64, "duration": 581, "velocity": 111}, {"time": 120234, "pitch": 45, "duration": 207, "velocity": 113}, {"time": 120234, "pitch": 52, "duration": 216, "velocity": 113}, {"time": 120234, "pitch": 57, "duration": 314, "velocity": 99}, {"time": 120234, "pitch": 60, "duration": 309, "velocity": 113}, {"time": 120234, "pitch": 64, "duration": 312, "velocity": 111}, {"time": 120714, "pitch": 45, "duration": 177, "velocity": 113}, {"time": 120714, "pitch": 52, "duration": 189, "velocity": 113}, {"time": 120714, "pitch": 57, "duration": 270, "velocity": 102}, {"time": 120714, "pitch": 60, "duration": 236, "velocity": 111}, {"time": 120714, "pitch": 64, "duration": 247, "velocity": 94}, {"time": 121200, "pitch": 45, "duration": 135, "velocity": 113}, {"time": 121200, "pitch": 52, "duration": 174, "velocity": 113}, {"time": 121200, "pitch": 57, "duration": 244, "velocity": 102}, {"time": 121200, "pitch": 60, "duration": 223, "velocity": 113}, {"time": 121200, "pitch": 64, "duration": 236, "velocity": 111}, {"time": 121446, "pitch": 48, "duration": 552, "velocity": 113}, {"time": 121446, "pitch": 55, "duration": 529, "velocity": 106}, {"time": 121446, "pitch": 59, "duration": 516, "velocity": 113}, {"time": 121446, "pitch": 64, "duration": 519, "velocity": 113}, {"time": 122166, "pitch": 48, "duration": 317, "velocity": 113}, {"time": 122166, "pitch": 55, "duration": 266, "velocity": 108}, {"time": 122166, "pitch": 59, "duration": 266, "velocity": 113}, {"time": 122166, "pitch": 64, "duration": 271, "velocity": 102}, {"time": 122645, "pitch": 48, "duration": 227, "velocity": 113}, {"time": 122645, "pitch": 55, "duration": 214, "velocity": 98}, {"time": 122645, "pitch": 59, "duration": 212, "velocity": 113}, {"time": 122645, "pitch": 64, "duration": 212, "velocity": 101}, {"time": 123125, "pitch": 48, "duration": 118, "velocity": 113}, {"time": 123125, "pitch": 55, "duration": 251, "velocity": 99}, {"time": 123125, "pitch": 59, "duration": 238, "velocity": 113}, {"time": 123125, "pitch": 64, "duration": 255, "velocity": 111}, {"time": 123365, "pitch": 50, "duration": 560, "velocity": 113}, {"time": 123365, "pitch": 57, "duration": 531, "velocity": 113}, {"time": 123365, "pitch": 62, "duration": 572, "velocity": 111}, {"time": 123365, "pitch": 66, "duration": 556, "velocity": 113}, {"time": 123365, "pitch": 69, "duration": 572, "velocity": 85}, {"time": 124085, "pitch": 50, "duration": 283, "velocity": 113}, {"time": 124085, "pitch": 57, "duration": 284, "velocity": 113}, {"time": 124085, "pitch": 62, "duration": 334, "velocity": 111}, {"time": 124085, "pitch": 66, "duration": 298, "velocity": 113}, {"time": 124085, "pitch": 69, "duration": 331, "velocity": 77}, {"time": 124564, "pitch": 50, "duration": 194, "velocity": 113}, {"time": 124564, "pitch": 57, "duration": 203, "velocity": 113}, {"time": 124564, "pitch": 62, "duration": 317, "velocity": 94}, {"time": 124564, "pitch": 66, "duration": 278, "velocity": 113}, {"time": 124564, "pitch": 69, "duration": 290, "velocity": 78}, {"time": 125044, "pitch": 50, "duration": 127, "velocity": 113}, {"time": 125044, "pitch": 57, "duration": 153, "velocity": 113}, {"time": 125044, "pitch": 62, "duration": 208, "velocity": 108}, {"time": 125044, "pitch": 66, "duration": 180, "velocity": 113}, {"time": 125044, "pitch": 69, "duration": 192, "velocity": 80}, {"time": 125284, "pitch": 43, "duration": 509, "velocity": 113}, {"time": 125284, "pitch": 50, "duration": 448, "velocity": 111}, {"time": 125284, "pitch": 55, "duration": 582, "velocity": 113}, {"time": 125284, "pitch": 59, "duration": 582, "velocity": 113}, {"time": 125284, "pitch": 62, "duration": 580, "velocity": 113}, {"time": 126003, "pitch": 43, "duration": 188, "velocity": 113}, {"time": 126003, "pitch": 50, "duration": 252, "velocity": 113}, {"time": 126003, "pitch": 55, "duration": 272, "velocity": 106}, {"time": 126003, "pitch": 59, "duration": 234, "velocity": 113}, {"time": 126003, "pitch": 62, "duration": 249, "velocity": 111}, {"time": 126483, "pitch": 43, "duration": 167, "velocity": 113}, {"time": 126483, "pitch": 50, "duration": 163, "velocity": 113}, {"time": 126483, "pitch": 55, "duration": 251, "velocity": 111}, {"time": 126483, "pitch": 59, "duration": 207, "velocity": 113}, {"time": 126483, "pitch": 62, "duration": 204, "velocity": 113}, {"time": 126963, "pitch": 43, "duration": 123, "velocity": 113}, {"time": 126963, "pitch": 50, "duration": 152, "velocity": 111}, {"time": 126963, "pitch": 55, "duration": 235, "velocity": 94}, {"time": 126963, "pitch": 59, "duration": 208, "velocity": 113}, {"time": 126963, "pitch": 62, "duration": 211, "velocity": 113}, {"time": 127202, "pitch": 45, "duration": 503, "velocity": 112}, {"time": 127202, "pitch": 52, "duration": 477, "velocity": 113}, {"time": 127202, "pitch": 57, "duration": 575, "velocity": 113}, {"time": 127202, "pitch": 60, "duration": 566, "velocity": 113}, {"time": 127202, "pitch": 64, "duration": 581, "velocity": 111}, {"time": 127922, "pitch": 45, "duration": 207, "velocity": 113}, {"time": 127922, "pitch": 52, "duration": 216, "velocity": 113}, {"time": 127922, "pitch": 57, "duration": 314, "velocity": 99}, {"time": 127922, "pitch": 60, "duration": 309, "velocity": 113}, {"time": 127922, "pitch": 64, "duration": 312, "velocity": 111}, {"time": 128402, "pitch": 45, "duration": 177, "velocity": 113}, {"time": 128402, "pitch": 52, "duration": 189, "velocity": 113}, {"time": 128402, "pitch": 57, "duration": 268, "velocity": 102}, {"time": 128402, "pitch": 60, "duration": 235, "velocity": 111}, {"time": 128402, "pitch": 64, "duration": 246, "velocity": 94}, {"time": 128881, "pitch": 45, "duration": 131, "velocity": 113}, {"time": 128881, "pitch": 52, "duration": 169, "velocity": 113}, {"time": 128881, "pitch": 57, "duration": 238, "velocity": 102}, {"time": 128881, "pitch": 60, "duration": 217, "velocity": 113}, {"time": 128881, "pitch": 64, "duration": 230, "velocity": 111}, {"time": 129121, "pitch": 48, "duration": 552, "velocity": 113}, {"time": 129121, "pitch": 55, "duration": 529, "velocity": 106}, {"time": 129121, "pitch": 59, "duration": 516, "velocity": 113}, {"time": 129121, "pitch": 64, "duration": 519, "velocity": 113}, {"time": 129841, "pitch": 48, "duration": 316, "velocity": 113}, {"time": 129841, "pitch": 55, "duration": 265, "velocity": 108}, {"time": 129841, "pitch": 59, "duration": 265, "velocity": 113}, {"time": 129841, "pitch": 64, "duration": 270, "velocity": 102}, {"time": 130320, "pitch": 48, "duration": 227, "velocity": 113}, {"time": 130320, "pitch": 55, "duration": 214, "velocity": 98}, {"time": 130320, "pitch": 59, "duration": 212, "velocity": 113}, {"time": 130320, "pitch": 64, "duration": 212, "velocity": 101}, {"time": 130800, "pitch": 48, "duration": 118, "velocity": 113}, {"time": 130800, "pitch": 55, "duration": 251, "velocity": 99}, {"time": 130800, "pitch": 59, "duration": 238, "velocity": 113}, {"time": 130800, "pitch": 64, "duration": 255, "velocity": 111}, {"time": 131040, "pitch": 50, "duration": 559, "velocity": 113}, {"time": 131040, "pitch": 57, "duration": 531, "velocity": 113}, {"time": 131040, "pitch": 62, "duration": 571, "velocity": 111}, {"time": 131040, "pitch": 66, "duration": 555, "velocity": 113}, {"time": 131040, "pitch": 69, "duration": 571, "velocity": 85}, {"time": 131759, "pitch": 50, "duration": 284, "velocity": 113}, {"time": 131759, "pitch": 57, "duration": 285, "velocity": 113}, {"time": 131759, "pitch": 62, "duration": 335, "velocity": 111}, {"time": 131759, "pitch": 66, "duration": 299, "velocity": 113}, {"time": 131759, "pitch": 69, "duration": 332, "velocity": 77}, {"time": 132239, "pitch": 50, "duration": 194, "velocity": 113}, {"time": 132239, "pitch": 57, "duration": 203, "velocity": 113}, {"time": 132239, "pitch": 62, "duration": 317, "velocity": 94}, {"time": 132239, "pitch": 66, "duration": 278, "velocity": 113}, {"time": 132239, "pitch": 69, "duration": 290, "velocity": 78}, {"time": 132719, "pitch": 50, "duration": 127, "velocity": 113}, {"time": 132719, "pitch": 57, "duration": 153, "velocity": 113}, {"time": 132719, "pitch": 62, "duration": 208, "velocity": 108}, {"time": 132719, "pitch": 66, "duration": 180, "velocity": 113}, {"time": 132719, "pitch": 69, "duration": 192, "velocity": 80}, {"time": 132959, "pitch": 43, "duration": 509, "velocity": 113}, {"time": 132959, "pitch": 50, "duration": 448, "velocity": 111}, {"time": 132959, "pitch": 55, "duration": 582, "velocity": 113}, {"time": 132959, "pitch": 59, "duration": 582, "velocity": 113}, {"time": 132959, "pitch": 62, "duration": 580, "velocity": 113}, {"time": 133678, "pitch": 43, "duration": 188, "velocity": 113}, {"time": 133678, "pitch": 50, "duration": 252, "velocity": 113}, {"time": 133678, "pitch": 55, "duration": 272, "velocity": 106}, {"time": 133678, "pitch": 59, "duration": 234, "velocity": 113}, {"time": 133678, "pitch": 62, "duration": 249, "velocity": 111}, {"time": 134158, "pitch": 43, "duration": 167, "velocity": 113}, {"time": 134158, "pitch": 50, "duration": 163, "velocity": 113}, {"time": 134158, "pitch": 55, "duration": 251, "velocity": 111}, {"time": 134158, "pitch": 59, "duration": 207, "velocity": 113}, {"time": 134158, "pitch": 62, "duration": 204, "velocity": 113}, {"time": 134637, "pitch": 43, "duration": 123, "velocity": 113}, {"time": 134637, "pitch": 50, "duration": 153, "velocity": 111}, {"time": 134637, "pitch": 55, "duration": 236, "velocity": 94}, {"time": 134637, "pitch": 59, "duration": 209, "velocity": 113}, {"time": 134637, "pitch": 62, "duration": 212, "velocity": 113}, {"time": 134877, "pitch": 45, "duration": 503, "velocity": 112}, {"time": 134877, "pitch": 52, "duration": 477, "velocity": 113}, {"time": 134877, "pitch": 57, "duration": 575, "velocity": 113}, {"time": 134877, "pitch": 60, "duration": 566, "velocity": 113}, {"time": 134877, "pitch": 64, "duration": 581, "velocity": 111}, {"time": 135597, "pitch": 45, "duration": 207, "velocity": 113}, {"time": 135597, "pitch": 52, "duration": 216, "velocity": 113}, {"time": 135597, "pitch": 57, "duration": 314, "velocity": 99}, {"time": 135597, "pitch": 60, "duration": 309, "velocity": 113}, {"time": 135597, "pitch": 64, "duration": 312, "velocity": 111}, {"time": 136076, "pitch": 45, "duration": 177, "velocity": 113}, {"time": 136076, "pitch": 52, "duration": 189, "velocity": 113}, {"time": 136076, "pitch": 57, "duration": 269, "velocity": 102}, {"time": 136076, "pitch": 60, "duration": 236, "velocity": 111}, {"time": 136076, "pitch": 64, "duration": 247, "velocity": 94}, {"time": 136556, "pitch": 45, "duration": 131, "velocity": 113}, {"time": 136556, "pitch": 52, "duration": 169, "velocity": 113}, {"time": 136556, "pitch": 57, "duration": 238, "velocity": 102}, {"time": 136556, "pitch": 60, "duration": 217, "velocity": 113}, {"time": 136556, "pitch": 64, "duration": 230, "velocity": 111}, {"time": 136796, "pitch": 48, "duration": 552, "velocity": 113}, {"time": 136796, "pitch": 55, "duration": 529, "velocity": 106}, {"time": 136796, "pitch": 59, "duration": 516, "velocity": 113}, {"time": 136796, "pitch": 64, "duration": 519, "velocity": 113}, {"time": 137516, "pitch": 48, "duration": 316, "velocity": 113}, {"time": 137516, "pitch": 55, "duration": 265, "velocity": 108}, {"time": 137516, "pitch": 59, "duration": 265, "velocity": 113}, {"time": 137516, "pitch": 64, "duration": 270, "velocity": 102}, {"time": 137995, "pitch": 48, "duration": 227, "velocity": 113}, {"time": 137995, "pitch": 55, "duration": 214, "velocity": 98}, {"time": 137995, "pitch": 59, "duration": 212, "velocity": 113}, {"time": 137995, "pitch": 64, "duration": 212, "velocity": 101}, {"time": 138475, "pitch": 48, "duration": 118, "velocity": 113}, {"time": 138475, "pitch": 55, "duration": 251, "velocity": 99}, {"time": 138475, "pitch": 59, "duration": 238, "velocity": 113}, {"time": 138475, "pitch": 64, "duration": 255, "velocity": 111}, {"time": 138715, "pitch": 50, "duration": 224, "velocity": 113}, {"time": 138715, "pitch": 57, "duration": 195, "velocity": 113}, {"time": 138715, "pitch": 62, "duration": 211, "velocity": 111}, {"time": 138715, "pitch": 66, "duration": 220, "velocity": 113}, {"time": 138715, "pitch": 69, "duration": 198, "velocity": 85}, {"time": 138955, "pitch": 50, "duration": 220, "velocity": 113}, {"time": 138955, "pitch": 57, "duration": 207, "velocity": 113}, {"time": 138955, "pitch": 62, "duration": 226, "velocity": 111}, {"time": 138955, "pitch": 66, "duration": 181, "velocity": 113}, {"time": 138955, "pitch": 69, "duration": 201, "velocity": 77}, {"time": 140400, "pitch": 42, "duration": 215, "velocity": 84}, {"time": 140400, "pitch": 49, "duration": 223, "velocity": 91}, {"time": 140400, "pitch": 54, "duration": 215, "velocity": 109}, {"time": 140400, "pitch": 58, "duration": 198, "velocity": 102}, {"time": 140400, "pitch": 61, "duration": 195, "velocity": 106}, {"time": 140400, "pitch": 66, "duration": 202, "velocity": 92}, {"time": 140646, "pitch": 43, "duration": 589, "velocity": 84}, {"time": 140646, "pitch": 50, "duration": 214, "velocity": 91}, {"time": 140646, "pitch": 55, "duration": 192, "velocity": 109}, {"time": 140646, "pitch": 59, "duration": 169, "velocity": 102}, {"time": 140646, "pitch": 62, "duration": 166, "velocity": 106}, {"time": 140646, "pitch": 67, "duration": 173, "velocity": 92}, {"time": 140886, "pitch": 50, "duration": 279, "velocity": 85}, {"time": 140886, "pitch": 55, "duration": 203, "velocity": 106}, {"time": 140886, "pitch": 59, "duration": 237, "velocity": 109}, {"time": 140886, "pitch": 62, "duration": 221, "velocity": 111}, {"time": 140886, "pitch": 67, "duration": 257, "velocity": 102}, {"time": 141366, "pitch": 43, "duration": 151, "velocity": 127}, {"time": 141366, "pitch": 50, "duration": 230, "velocity": 98}, {"time": 141366, "pitch": 55, "duration": 222, "velocity": 110}, {"time": 141366, "pitch": 59, "duration": 212, "velocity": 102}, {"time": 141366, "pitch": 62, "duration": 203, "velocity": 106}, {"time": 141366, "pitch": 67, "duration": 210, "velocity": 95}, {"time": 141605, "pitch": 48, "duration": 146, "velocity": 127}, {"time": 141605, "pitch": 55, "duration": 148, "velocity": 102}, {"time": 141605, "pitch": 60, "duration": 175, "velocity": 97}, {"time": 141605, "pitch": 64, "duration": 155, "velocity": 105}, {"time": 141605, "pitch": 67, "duration": 150, "velocity": 98}, {"time": 141845, "pitch": 48, "duration": 216, "velocity": 127}, {"time": 141845, "pitch": 55, "duration": 226, "velocity": 123}, {"time": 141845, "pitch": 60, "duration": 199, "velocity": 104}, {"time": 141845, "pitch": 64, "duration": 200, "velocity": 116}, {"time": 141845, "pitch": 67, "duration": 226, "velocity": 110}, {"time": 142325, "pitch": 48, "duration": 383, "velocity": 111}, {"time": 142325, "pitch": 55, "duration": 393, "velocity": 127}, {"time": 142328, "pitch": 42, "duration": 232, "velocity": 84}, {"time": 142328, "pitch": 49, "duration": 239, "velocity": 91}, {"time": 142328, "pitch": 54, "duration": 232, "velocity": 109}, {"time": 142328, "pitch": 58, "duration": 215, "velocity": 102}, {"time": 142328, "pitch": 61, "duration": 212, "velocity": 106}, {"time": 142328, "pitch": 66, "duration": 219, "velocity": 92}, {"time": 142565, "pitch": 43, "duration": 588, "velocity": 84}, {"time": 142565, "pitch": 50, "duration": 214, "velocity": 91}, {"time": 142565, "pitch": 55, "duration": 153, "velocity": 109}, {"time": 142565, "pitch": 59, "duration": 169, "velocity": 102}, {"time": 142565, "pitch": 62, "duration": 166, "velocity": 106}, {"time": 142565, "pitch": 67, "duration": 173, "velocity": 92}, {"time": 142805, "pitch": 50, "duration": 278, "velocity": 85}, {"time": 142805, "pitch": 55, "duration": 203, "velocity": 106}, {"time": 142805, "pitch": 59, "duration": 236, "velocity": 109}, {"time": 142805, "pitch": 62, "duration": 220, "velocity": 111}, {"time": 142805, "pitch": 67, "duration": 256, "velocity": 102}, {"time": 143284, "pitch": 43, "duration": 151, "velocity": 127}, {"time": 143284, "pitch": 50, "duration": 231, "velocity": 98}, {"time": 143284, "pitch": 55, "duration": 223, "velocity": 110}, {"time": 143284, "pitch": 59, "duration": 213, "velocity": 102}, {"time": 143284, "pitch": 62, "duration": 204, "velocity": 106}, {"time": 143284, "pitch": 67, "duration": 211, "velocity": 95}, {"time": 143524, "pitch": 48, "duration": 146, "velocity": 127}, {"time": 143524, "pitch": 55, "duration": 148, "velocity": 102}, {"time": 143524, "pitch": 60, "duration": 175, "velocity": 97}, {"time": 143524, "pitch": 64, "duration": 155, "velocity": 105}, {"time": 143524, "pitch": 67, "duration": 150, "velocity": 98}, {"time": 143764, "pitch": 48, "duration": 216, "velocity": 127}, {"time": 143764, "pitch": 55, "duration": 226, "velocity": 123}, {"time": 143764, "pitch": 60, "duration": 199, "velocity": 104}, {"time": 143764, "pitch": 64, "duration": 200, "velocity": 116}, {"time": 143764, "pitch": 67, "duration": 226, "velocity": 110}, {"time": 144244, "pitch": 42, "duration": 232, "velocity": 84}, {"time": 144244, "pitch": 48, "duration": 382, "velocity": 111}, {"time": 144244, "pitch": 49, "duration": 239, "velocity": 91}, {"time": 144244, "pitch": 54, "duration": 232, "velocity": 109}, {"time": 144244, "pitch": 55, "duration": 392, "velocity": 127}, {"time": 144244, "pitch": 58, "duration": 215, "velocity": 102}, {"time": 144244, "pitch": 61, "duration": 212, "velocity": 106}, {"time": 144244, "pitch": 66, "duration": 219, "velocity": 92}, {"time": 144484, "pitch": 43, "duration": 588, "velocity": 84}, {"time": 144484, "pitch": 50, "duration": 213, "velocity": 91}, {"time": 144484, "pitch": 55, "duration": 152, "velocity": 109}, {"time": 144484, "pitch": 59, "duration": 168, "velocity": 102}, {"time": 144484, "pitch": 62, "duration": 165, "velocity": 106}, {"time": 144484, "pitch": 67, "duration": 172, "velocity": 92}, {"time": 144723, "pitch": 50, "duration": 279, "velocity": 85}, {"time": 144723, "pitch": 55, "duration": 203, "velocity": 106}, {"time": 144723, "pitch": 59, "duration": 237, "velocity": 109}, {"time": 144723, "pitch": 62, "duration": 221, "velocity": 111}, {"time": 144723, "pitch": 67, "duration": 257, "velocity": 102}, {"time": 145203, "pitch": 43, "duration": 151, "velocity": 127}, {"time": 145203, "pitch": 50, "duration": 231, "velocity": 98}, {"time": 145203, "pitch": 55, "duration": 223, "velocity": 110}, {"time": 145203, "pitch": 59, "duration": 213, "velocity": 102}, {"time": 145203, "pitch": 62, "duration": 204, "velocity": 106}, {"time": 145203, "pitch": 67, "duration": 211, "velocity": 95}, {"time": 145443, "pitch": 48, "duration": 146, "velocity": 127}, {"time": 145443, "pitch": 55, "duration": 148, "velocity": 102}, {"time": 145443, "pitch": 60, "duration": 175, "velocity": 97}, {"time": 145443, "pitch": 64, "duration": 155, "velocity": 105}, {"time": 145443, "pitch": 67, "duration": 150, "velocity": 98}, {"time": 145683, "pitch": 48, "duration": 216, "velocity": 127}, {"time": 145683, "pitch": 55, "duration": 226, "velocity": 123}, {"time": 145683, "pitch": 60, "duration": 199, "velocity": 104}, {"time": 145683, "pitch": 64, "duration": 200, "velocity": 116}, {"time": 145683, "pitch": 67, "duration": 226, "velocity": 110}, {"time": 146162, "pitch": 48, "duration": 171, "velocity": 127}, {"time": 146162, "pitch": 55, "duration": 177, "velocity": 113}, {"time": 146162, "pitch": 60, "duration": 204, "velocity": 92}, {"time": 146162, "pitch": 64, "duration": 179, "velocity": 96}, {"time": 146162, "pitch": 67, "duration": 204, "velocity": 99}, {"time": 146642, "pitch": 48, "duration": 174, "velocity": 127}, {"time": 146642, "pitch": 55, "duration": 217, "velocity": 100}, {"time": 146642, "pitch": 60, "duration": 217, "velocity": 107}, {"time": 146642, "pitch": 64, "duration": 242, "velocity": 122}, {"time": 146642, "pitch": 67, "duration": 219, "velocity": 105}, {"time": 147122, "pitch": 47, "duration": 192, "velocity": 127}, {"time": 147122, "pitch": 50, "duration": 205, "velocity": 106}, {"time": 147122, "pitch": 55, "duration": 212, "velocity": 102}, {"time": 147122, "pitch": 59, "duration": 203, "velocity": 105}, {"time": 147122, "pitch": 62, "duration": 197, "velocity": 110}, {"time": 147362, "pitch": 48, "duration": 168, "velocity": 127}, {"time": 147362, "pitch": 55, "duration": 217, "velocity": 100}, {"time": 147362, "pitch": 60, "duration": 187, "velocity": 107}, {"time": 147362, "pitch": 64, "duration": 230, "velocity": 122}, {"time": 147362, "pitch": 67, "duration": 217, "velocity": 105}, {"time": 147601, "pitch": 47, "duration": 165, "velocity": 127}, {"time": 147601, "pitch": 50, "duration": 240, "velocity": 106}, {"time": 147601, "pitch": 55, "duration": 179, "velocity": 102}, {"time": 147601, "pitch": 59, "duration": 187, "velocity": 105}, {"time": 147601, "pitch": 62, "duration": 181, "velocity": 110}, {"time": 147841, "pitch": 48, "duration": 214, "velocity": 127}, {"time": 147841, "pitch": 55, "duration": 229, "velocity": 100}, {"time": 147841, "pitch": 59, "duration": 209, "velocity": 107}, {"time": 147841, "pitch": 64, "duration": 210, "velocity": 105}, {"time": 147841, "pitch": 67, "duration": 206, "velocity": 122}, {"time": 148081, "pitch": 50, "duration": 190, "velocity": 127}, {"time": 148081, "pitch": 57, "duration": 229, "velocity": 100}, {"time": 148081, "pitch": 62, "duration": 209, "velocity": 107}, {"time": 148081, "pitch": 66, "duration": 206, "velocity": 122}, {"time": 148081, "pitch": 69, "duration": 210, "velocity": 105}, {"time": 148184, "pitch": 43, "duration": 239, "velocity": 84}, {"time": 148184, "pitch": 50, "duration": 87, "velocity": 91}, {"time": 148184, "pitch": 55, "duration": 180, "velocity": 109}, {"time": 148184, "pitch": 59, "duration": 157, "velocity": 102}, {"time": 148184, "pitch": 62, "duration": 106, "velocity": 106}, {"time": 148184, "pitch": 67, "duration": 161, "velocity": 92}, {"time": 148321, "pitch": 43, "duration": 102, "velocity": 84}, {"time": 148321, "pitch": 50, "duration": 65, "velocity": 91}, {"time": 148321, "pitch": 55, "duration": 43, "velocity": 109}, {"time": 148321, "pitch": 59, "duration": 20, "velocity": 102}, {"time": 148321, "pitch": 62, "duration": 17, "velocity": 106}, {"time": 148321, "pitch": 67, "duration": 24, "velocity": 92}, {"time": 148561, "pitch": 50, "duration": 279, "velocity": 85}, {"time": 148561, "pitch": 55, "duration": 203, "velocity": 106}, {"time": 148561, "pitch": 59, "duration": 237, "velocity": 109}, {"time": 148561, "pitch": 62, "duration": 221, "velocity": 111}, {"time": 148561, "pitch": 67, "duration": 257, "velocity": 102}, {"time": 149040, "pitch": 43, "duration": 151, "velocity": 127}, {"time": 149040, "pitch": 50, "duration": 231, "velocity": 98}, {"time": 149040, "pitch": 55, "duration": 223, "velocity": 110}, {"time": 149040, "pitch": 59, "duration": 213, "velocity": 102}, {"time": 149040, "pitch": 62, "duration": 204, "velocity": 106}, {"time": 149040, "pitch": 67, "duration": 211, "velocity": 95}, {"time": 149280, "pitch": 48, "duration": 146, "velocity": 127}, {"time": 149280, "pitch": 55, "duration": 148, "velocity": 102}, {"time": 149280, "pitch": 60, "duration": 175, "velocity": 97}, {"time": 149280, "pitch": 64, "duration": 155, "velocity": 105}, {"time": 149280, "pitch": 67, "duration": 150, "velocity": 98}, {"time": 149520, "pitch": 48, "duration": 216, "velocity": 127}, {"time": 149520, "pitch": 55, "duration": 226, "velocity": 123}, {"time": 149520, "pitch": 60, "duration": 199, "velocity": 104}, {"time": 149520, "pitch": 64, "duration": 200, "velocity": 116}, {"time": 149520, "pitch": 67, "duration": 226, "velocity": 110}, {"time": 150000, "pitch": 42, "duration": 232, "velocity": 84}, {"time": 150000, "pitch": 48, "duration": 417, "velocity": 110}, {"time": 150000, "pitch": 49, "duration": 239, "velocity": 91}, {"time": 150000, "pitch": 54, "duration": 232, "velocity": 109}, {"time": 150000, "pitch": 55, "duration": 416, "velocity": 127}, {"time": 150000, "pitch": 58, "duration": 215, "velocity": 102}, {"time": 150000, "pitch": 61, "duration": 212, "velocity": 106}, {"time": 150000, "pitch": 66, "duration": 219, "velocity": 92}, {"time": 150240, "pitch": 43, "duration": 588, "velocity": 84}, {"time": 150240, "pitch": 50, "duration": 214, "velocity": 91}, {"time": 150240, "pitch": 55, "duration": 176, "velocity": 109}, {"time": 150240, "pitch": 59, "duration": 169, "velocity": 102}, {"time": 150240, "pitch": 62, "duration": 166, "velocity": 106}, {"time": 150240, "pitch": 67, "duration": 173, "velocity": 92}, {"time": 150480, "pitch": 50, "duration": 278, "velocity": 85}, {"time": 150480, "pitch": 55, "duration": 202, "velocity": 106}, {"time": 150480, "pitch": 59, "duration": 236, "velocity": 109}, {"time": 150480, "pitch": 62, "duration": 220, "velocity": 111}, {"time": 150480, "pitch": 67, "duration": 256, "velocity": 102}, {"time": 150959, "pitch": 43, "duration": 151, "velocity": 127}, {"time": 150959, "pitch": 50, "duration": 231, "velocity": 98}, {"time": 150959, "pitch": 55, "duration": 223, "velocity": 110}, {"time": 150959, "pitch": 59, "duration": 213, "velocity": 102}, {"time": 150959, "pitch": 62, "duration": 204, "velocity": 106}, {"time": 150959, "pitch": 67, "duration": 211, "velocity": 95}, {"time": 151199, "pitch": 48, "duration": 146, "velocity": 127}, {"time": 151199, "pitch": 55, "duration": 148, "velocity": 102}, {"time": 151199, "pitch": 60, "duration": 175, "velocity": 97}, {"time": 151199, "pitch": 64, "duration": 155, "velocity": 105}, {"time": 151199, "pitch": 67, "duration": 150, "velocity": 98}, {"time": 151439, "pitch": 48, "duration": 216, "velocity": 127}, {"time": 151439, "pitch": 55, "duration": 226, "velocity": 123}, {"time": 151439, "pitch": 60, "duration": 199, "velocity": 104}, {"time": 151439, "pitch": 64, "duration": 200, "velocity": 116}, {"time": 151439, "pitch": 67, "duration": 226, "velocity": 110}, {"time": 151919, "pitch": 42, "duration": 231, "velocity": 84}, {"time": 151919, "pitch": 48, "duration": 378, "velocity": 125}, {"time": 151919, "pitch": 49, "duration": 238, "velocity": 91}, {"time": 151919, "pitch": 54, "duration": 231, "velocity": 109}, {"time": 151919, "pitch": 55, "duration": 379, "velocity": 127}, {"time": 151919, "pitch": 58, "duration": 214, "velocity": 102}, {"time": 151919, "pitch": 61, "duration": 211, "velocity": 106}, {"time": 151919, "pitch": 66, "duration": 218, "velocity": 92}, {"time": 152158, "pitch": 43, "duration": 589, "velocity": 84}, {"time": 152158, "pitch": 50, "duration": 214, "velocity": 91}, {"time": 152158, "pitch": 55, "duration": 140, "velocity": 109}, {"time": 152158, "pitch": 59, "duration": 169, "velocity": 102}, {"time": 152158, "pitch": 62, "duration": 166, "velocity": 106}, {"time": 152158, "pitch": 67, "duration": 173, "velocity": 92}, {"time": 152398, "pitch": 50, "duration": 279, "velocity": 85}, {"time": 152398, "pitch": 55, "duration": 203, "velocity": 106}, {"time": 152398, "pitch": 59, "duration": 237, "velocity": 109}, {"time": 152398, "pitch": 62, "duration": 221, "velocity": 111}, {"time": 152398, "pitch": 67, "duration": 257, "velocity": 102}, {"time": 152878, "pitch": 43, "duration": 151, "velocity": 127}, {"time": 152878, "pitch": 50, "duration": 231, "velocity": 98}, {"time": 152878, "pitch": 55, "duration": 223, "velocity": 110}, {"time": 152878, "pitch": 59, "duration": 213, "velocity": 102}, {"time": 152878, "pitch": 62, "duration": 204, "velocity": 106}, {"time": 152878, "pitch": 67, "duration": 211, "velocity": 95}, {"time": 153118, "pitch": 48, "duration": 146, "velocity": 127}, {"time": 153118, "pitch": 55, "duration": 148, "velocity": 102}, {"time": 153118, "pitch": 60, "duration": 175, "velocity": 97}, {"time": 153118, "pitch": 64, "duration": 155, "velocity": 105}, {"time": 153118, "pitch": 67, "duration": 150, "velocity": 98}, {"time": 153358, "pitch": 48, "duration": 215, "velocity": 127}, {"time": 153358, "pitch": 55, "duration": 225, "velocity": 123}, {"time": 153358, "pitch": 60, "duration": 198, "velocity": 104}, {"time": 153358, "pitch": 64, "duration": 199, "velocity": 116}, {"time": 153358, "pitch": 67, "duration": 225, "velocity": 110}, {"time": 153837, "pitch": 48, "duration": 171, "velocity": 127}, {"time": 153837, "pitch": 55, "duration": 177, "velocity": 113}, {"time": 153837, "pitch": 60, "duration": 204, "velocity": 92}, {"time": 153837, "pitch": 64, "duration": 179, "velocity": 96}, {"time": 153837, "pitch": 67, "duration": 204, "velocity": 99}, {"time": 154317, "pitch": 48, "duration": 174, "velocity": 127}, {"time": 154317, "pitch": 55, "duration": 217, "velocity": 100}, {"time": 154317, "pitch": 60, "duration": 217, "velocity": 107}, {"time": 154317, "pitch": 64, "duration": 242, "velocity": 122}, {"time": 154317, "pitch": 67, "duration": 219, "velocity": 105}, {"time": 154797, "pitch": 47, "duration": 191, "velocity": 127}, {"time": 154797, "pitch": 50, "duration": 204, "velocity": 106}, {"time": 154797, "pitch": 55, "duration": 211, "velocity": 102}, {"time": 154797, "pitch": 59, "duration": 202, "velocity": 105}, {"time": 154797, "pitch": 62, "duration": 196, "velocity": 110}, {"time": 155036, "pitch": 48, "duration": 169, "velocity": 127}, {"time": 155036, "pitch": 55, "duration": 218, "velocity": 100}, {"time": 155036, "pitch": 60, "duration": 188, "velocity": 107}, {"time": 155036, "pitch": 64, "duration": 231, "velocity": 122}, {"time": 155036, "pitch": 67, "duration": 218, "velocity": 105}, {"time": 155276, "pitch": 47, "duration": 165, "velocity": 127}, {"time": 155276, "pitch": 50, "duration": 240, "velocity": 106}, {"time": 155276, "pitch": 55, "duration": 179, "velocity": 102}, {"time": 155276, "pitch": 59, "duration": 187, "velocity": 105}, {"time": 155276, "pitch": 62, "duration": 181, "velocity": 110}, {"time": 155516, "pitch": 48, "duration": 214, "velocity": 127}, {"time": 155516, "pitch": 55, "duration": 229, "velocity": 100}, {"time": 155516, "pitch": 59, "duration": 209, "velocity": 107}, {"time": 155516, "pitch": 64, "duration": 206, "velocity": 122}, {"time": 155516, "pitch": 67, "duration": 210, "velocity": 105}, {"time": 155756, "pitch": 50, "duration": 190, "velocity": 127}, {"time": 155756, "pitch": 57, "duration": 229, "velocity": 100}, {"time": 155756, "pitch": 62, "duration": 209, "velocity": 107}, {"time": 155756, "pitch": 66, "duration": 206, "velocity": 122}, {"time": 155756, "pitch": 69, "duration": 210, "velocity": 105}, {"time": 186721, "pitch": 48, "duration": 1804, "velocity": 75}, {"time": 186721, "pitch": 55, "duration": 1847, "velocity": 113}, {"time": 186721, "pitch": 60, "duration": 1876, "velocity": 113}, {"time": 186721, "pitch": 64, "duration": 1834, "velocity": 113}, {"time": 186721, "pitch": 67, "duration": 1842, "velocity": 111}, {"time": 188641, "pitch": 48, "duration": 1818, "velocity": 77}, {"time": 188641, "pitch": 55, "duration": 1844, "velocity": 113}, {"time": 188641, "pitch": 60, "duration": 1883, "velocity": 113}, {"time": 188641, "pitch": 63, "duration": 1841, "velocity": 113}, {"time": 188641, "pitch": 67, "duration": 1896, "velocity": 111}, {"time": 190558, "pitch": 43, "duration": 1917, "velocity": 98}, {"time": 190558, "pitch": 50, "duration": 1866, "velocity": 111}, {"time": 190558, "pitch": 55, "duration": 1874, "velocity": 109}, {"time": 190558, "pitch": 59, "duration": 1853, "velocity": 112}, {"time": 190558, "pitch": 62, "duration": 1859, "velocity": 110}, {"time": 190558, "pitch": 67, "duration": 1880, "velocity": 102}, {"time": 192477, "pitch": 42, "duration": 235, "velocity": 105}, {"time": 192477, "pitch": 49, "duration": 235, "velocity": 95}, {"time": 192477, "pitch": 54, "duration": 226, "velocity": 127}, {"time": 192477, "pitch": 58, "duration": 232, "velocity": 98}, {"time": 192477, "pitch": 61, "duration": 232, "velocity": 101}, {"time": 192477, "pitch": 66, "duration": 232, "velocity": 100}, {"time": 192717, "pitch": 43, "duration": 156, "velocity": 114}, {"time": 192717, "pitch": 50, "duration": 156, "velocity": 119}, {"time": 192717, "pitch": 55, "duration": 138, "velocity": 122}, {"time": 192717, "pitch": 59, "duration": 148, "velocity": 104}, {"time": 192717, "pitch": 62, "duration": 148, "velocity": 113}, {"time": 192717, "pitch": 67, "duration": 148, "velocity": 115}, {"time": 192953, "pitch": 59, "duration": 180, "velocity": 102}, {"time": 192956, "pitch": 43, "duration": 178, "velocity": 108}, {"time": 192956, "pitch": 50, "duration": 178, "velocity": 116}, {"time": 192956, "pitch": 55, "duration": 175, "velocity": 122}, {"time": 192956, "pitch": 62, "duration": 180, "velocity": 121}, {"time": 192956, "pitch": 67, "duration": 180, "velocity": 112}, {"time": 193196, "pitch": 42, "duration": 233, "velocity": 117}, {"time": 193196, "pitch": 49, "duration": 233, "velocity": 109}, {"time": 193196, "pitch": 54, "duration": 226, "velocity": 127}, {"time": 193196, "pitch": 58, "duration": 233, "velocity": 97}, {"time": 193196, "pitch": 61, "duration": 233, "velocity": 105}, {"time": 193196, "pitch": 66, "duration": 233, "velocity": 92}, {"time": 193436, "pitch": 43, "duration": 156, "velocity": 97}, {"time": 193436, "pitch": 50, "duration": 156, "velocity": 109}, {"time": 193436, "pitch": 55, "duration": 144, "velocity": 127}, {"time": 193436, "pitch": 59, "duration": 158, "velocity": 102}, {"time": 193436, "pitch": 62, "duration": 158, "velocity": 105}, {"time": 193436, "pitch": 67, "duration": 158, "velocity": 109}, {"time": 193676, "pitch": 43, "duration": 164, "velocity": 101}, {"time": 193676, "pitch": 50, "duration": 164, "velocity": 119}, {"time": 193676, "pitch": 55, "duration": 162, "velocity": 122}, {"time": 193676, "pitch": 59, "duration": 161, "velocity": 105}, {"time": 193676, "pitch": 62, "duration": 161, "velocity": 116}, {"time": 193676, "pitch": 67, "duration": 161, "velocity": 111}, {"time": 193916, "pitch": 42, "duration": 231, "velocity": 90}, {"time": 193916, "pitch": 49, "duration": 231, "velocity": 91}, {"time": 193916, "pitch": 54, "duration": 235, "velocity": 127}, {"time": 193916, "pitch": 58, "duration": 231, "velocity": 97}, {"time": 193916, "pitch": 61, "duration": 231, "velocity": 101}, {"time": 193916, "pitch": 66, "duration": 231, "velocity": 102}, {"time": 194156, "pitch": 43, "duration": 164, "velocity": 108}, {"time": 194156, "pitch": 50, "duration": 164, "velocity": 101}, {"time": 194156, "pitch": 55, "duration": 164, "velocity": 127}, {"time": 194156, "pitch": 59, "duration": 166, "velocity": 109}, {"time": 194156, "pitch": 62, "duration": 166, "velocity": 104}, {"time": 194156, "pitch": 67, "duration": 166, "velocity": 112}, {"time": 194395, "pitch": 48, "duration": 1805, "velocity": 75}, {"time": 194395, "pitch": 55, "duration": 168, "velocity": 113}, {"time": 194395, "pitch": 55, "duration": 168, "velocity": 127}, {"time": 194395, "pitch": 55, "duration": 168, "velocity": 127}, {"time": 194395, "pitch": 60, "duration": 1877, "velocity": 113}, {"time": 194395, "pitch": 64, "duration": 1835, "velocity": 113}, {"time": 194395, "pitch": 67, "duration": 1843, "velocity": 111}, {"time": 196315, "pitch": 48, "duration": 1831, "velocity": 77}, {"time": 196315, "pitch": 55, "duration": 1857, "velocity": 113}, {"time": 196315, "pitch": 60, "duration": 1896, "velocity": 113}, {"time": 196315, "pitch": 63, "duration": 1854, "velocity": 113}, {"time": 196315, "pitch": 67, "duration": 1908, "velocity": 111}, {"time": 198245, "pitch": 43, "duration": 1951, "velocity": 88}, {"time": 198245, "pitch": 50, "duration": 1900, "velocity": 101}, {"time": 198245, "pitch": 55, "duration": 1909, "velocity": 99}, {"time": 198245, "pitch": 59, "duration": 1887, "velocity": 102}, {"time": 198245, "pitch": 62, "duration": 1894, "velocity": 100}, {"time": 198245, "pitch": 67, "duration": 1915, "velocity": 92}, {"time": 200164, "pitch": 50, "duration": 1805, "velocity": 75}, {"time": 200164, "pitch": 57, "duration": 1848, "velocity": 113}, {"time": 200164, "pitch": 62, "duration": 1877, "velocity": 113}, {"time": 200164, "pitch": 66, "duration": 1835, "velocity": 113}, {"time": 200164, "pitch": 69, "duration": 1843, "velocity": 111}, {"time": 202083, "pitch": 43, "duration": 510, "velocity": 117}, {"time": 202083, "pitch": 50, "duration": 449, "velocity": 115}, {"time": 202083, "pitch": 55, "duration": 583, "velocity": 117}, {"time": 202083, "pitch": 59, "duration": 583, "velocity": 117}, {"time": 202083, "pitch": 62, "duration": 581, "velocity": 117}, {"time": 202802, "pitch": 43, "duration": 188, "velocity": 117}, {"time": 202802, "pitch": 50, "duration": 252, "velocity": 117}, {"time": 202802, "pitch": 55, "duration": 272, "velocity": 110}, {"time": 202802, "pitch": 59, "duration": 234, "velocity": 117}, {"time": 202802, "pitch": 62, "duration": 249, "velocity": 115}, {"time": 203282, "pitch": 43, "duration": 167, "velocity": 117}, {"time": 203282, "pitch": 50, "duration": 163, "velocity": 117}, {"time": 203282, "pitch": 55, "duration": 251, "velocity": 115}, {"time": 203282, "pitch": 59, "duration": 207, "velocity": 117}, {"time": 203282, "pitch": 62, "duration": 204, "velocity": 117}, {"time": 203762, "pitch": 43, "duration": 123, "velocity": 117}, {"time": 203762, "pitch": 50, "duration": 153, "velocity": 115}, {"time": 203762, "pitch": 55, "duration": 236, "velocity": 98}, {"time": 203762, "pitch": 59, "duration": 209, "velocity": 117}, {"time": 203762, "pitch": 62, "duration": 212, "velocity": 117}, {"time": 204002, "pitch": 45, "duration": 502, "velocity": 116}, {"time": 204002, "pitch": 52, "duration": 476, "velocity": 117}, {"time": 204002, "pitch": 57, "duration": 574, "velocity": 117}, {"time": 204002, "pitch": 60, "duration": 565, "velocity": 117}, {"time": 204002, "pitch": 64, "duration": 580, "velocity": 115}, {"time": 204721, "pitch": 45, "duration": 207, "velocity": 117}, {"time": 204721, "pitch": 52, "duration": 216, "velocity": 117}, {"time": 204721, "pitch": 57, "duration": 314, "velocity": 103}, {"time": 204721, "pitch": 60, "duration": 309, "velocity": 117}, {"time": 204721, "pitch": 64, "duration": 312, "velocity": 115}, {"time": 205201, "pitch": 45, "duration": 177, "velocity": 117}, {"time": 205201, "pitch": 52, "duration": 189, "velocity": 117}, {"time": 205201, "pitch": 57, "duration": 269, "velocity": 106}, {"time": 205201, "pitch": 60, "duration": 236, "velocity": 115}, {"time": 205201, "pitch": 64, "duration": 247, "velocity": 98}, {"time": 205681, "pitch": 45, "duration": 130, "velocity": 117}, {"time": 205681, "pitch": 52, "duration": 168, "velocity": 117}, {"time": 205681, "pitch": 57, "duration": 237, "velocity": 106}, {"time": 205681, "pitch": 60, "duration": 216, "velocity": 117}, {"time": 205681, "pitch": 64, "duration": 229, "velocity": 115}, {"time": 205920, "pitch": 48, "duration": 552, "velocity": 117}, {"time": 205920, "pitch": 55, "duration": 529, "velocity": 110}, {"time": 205920, "pitch": 59, "duration": 516, "velocity": 117}, {"time": 205920, "pitch": 64, "duration": 519, "velocity": 117}, {"time": 206640, "pitch": 48, "duration": 317, "velocity": 117}, {"time": 206640, "pitch": 55, "duration": 266, "velocity": 112}, {"time": 206640, "pitch": 59, "duration": 266, "velocity": 117}, {"time": 206640, "pitch": 64, "duration": 271, "velocity": 106}, {"time": 207120, "pitch": 48, "duration": 226, "velocity": 117}, {"time": 207120, "pitch": 55, "duration": 213, "velocity": 102}, {"time": 207120, "pitch": 59, "duration": 211, "velocity": 117}, {"time": 207120, "pitch": 64, "duration": 211, "velocity": 105}, {"time": 207599, "pitch": 48, "duration": 118, "velocity": 117}, {"time": 207599, "pitch": 55, "duration": 251, "velocity": 103}, {"time": 207599, "pitch": 59, "duration": 238, "velocity": 117}, {"time": 207599, "pitch": 64, "duration": 255, "velocity": 115}, {"time": 207839, "pitch": 50, "duration": 560, "velocity": 117}, {"time": 207839, "pitch": 57, "duration": 531, "velocity": 117}, {"time": 207839, "pitch": 62, "duration": 572, "velocity": 115}, {"time": 207839, "pitch": 66, "duration": 556, "velocity": 117}, {"time": 207839, "pitch": 69, "duration": 572, "velocity": 89}, {"time": 208559, "pitch": 50, "duration": 283, "velocity": 117}, {"time": 208559, "pitch": 57, "duration": 284, "velocity": 117}, {"time": 208559, "pitch": 62, "duration": 334, "velocity": 115}, {"time": 208559, "pitch": 66, "duration": 298, "velocity": 117}, {"time": 208559, "pitch": 69, "duration": 331, "velocity": 81}, {"time": 209038, "pitch": 50, "duration": 194, "velocity": 117}, {"time": 209038, "pitch": 57, "duration": 203, "velocity": 117}, {"time": 209038, "pitch": 62, "duration": 317, "velocity": 98}, {"time": 209038, "pitch": 66, "duration": 278, "velocity": 117}, {"time": 209038, "pitch": 69, "duration": 290, "velocity": 82}, {"time": 209518, "pitch": 50, "duration": 127, "velocity": 117}, {"time": 209518, "pitch": 57, "duration": 153, "velocity": 117}, {"time": 209518, "pitch": 62, "duration": 208, "velocity": 112}, {"time": 209518, "pitch": 66, "duration": 180, "velocity": 117}, {"time": 209518, "pitch": 69, "duration": 192, "velocity": 84}, {"time": 209758, "pitch": 43, "duration": 509, "velocity": 117}, {"time": 209758, "pitch": 50, "duration": 448, "velocity": 115}, {"time": 209758, "pitch": 55, "duration": 582, "velocity": 117}, {"time": 209758, "pitch": 59, "duration": 582, "velocity": 117}, {"time": 209758, "pitch": 62, "duration": 580, "velocity": 117}, {"time": 210477, "pitch": 43, "duration": 188, "velocity": 117}, {"time": 210477, "pitch": 50, "duration": 252, "velocity": 117}, {"time": 210477, "pitch": 55, "duration": 272, "velocity": 110}, {"time": 210477, "pitch": 59, "duration": 234, "velocity": 117}, {"time": 210477, "pitch": 62, "duration": 249, "velocity": 115}, {"time": 210957, "pitch": 43, "duration": 167, "velocity": 117}, {"time": 210957, "pitch": 50, "duration": 163, "velocity": 117}, {"time": 210957, "pitch": 55, "duration": 251, "velocity": 115}, {"time": 210957, "pitch": 59, "duration": 207, "velocity": 117}, {"time": 210957, "pitch": 62, "duration": 204, "velocity": 117}, {"time": 211437, "pitch": 43, "duration": 123, "velocity": 117}, {"time": 211437, "pitch": 50, "duration": 153, "velocity": 115}, {"time": 211437, "pitch": 55, "duration": 235, "velocity": 98}, {"time": 211437, "pitch": 59, "duration": 209, "velocity": 117}, {"time": 211437, "pitch": 62, "duration": 212, "velocity": 117}, {"time": 211676, "pitch": 45, "duration": 503, "velocity": 116}, {"time": 211676, "pitch": 52, "duration": 477, "velocity": 117}, {"time": 211676, "pitch": 57, "duration": 575, "velocity": 117}, {"time": 211676, "pitch": 60, "duration": 566, "velocity": 117}, {"time": 211676, "pitch": 64, "duration": 581, "velocity": 115}, {"time": 212396, "pitch": 45, "duration": 207, "velocity": 117}, {"time": 212396, "pitch": 52, "duration": 216, "velocity": 117}, {"time": 212396, "pitch": 57, "duration": 314, "velocity": 103}, {"time": 212396, "pitch": 60, "duration": 309, "velocity": 117}, {"time": 212396, "pitch": 64, "duration": 312, "velocity": 115}, {"time": 212876, "pitch": 45, "duration": 177, "velocity": 117}, {"time": 212876, "pitch": 52, "duration": 189, "velocity": 117}, {"time": 212876, "pitch": 57, "duration": 269, "velocity": 106}, {"time": 212876, "pitch": 60, "duration": 236, "velocity": 115}, {"time": 212876, "pitch": 64, "duration": 247, "velocity": 98}, {"time": 213355, "pitch": 45, "duration": 131, "velocity": 117}, {"time": 213355, "pitch": 52, "duration": 169, "velocity": 117}, {"time": 213355, "pitch": 57, "duration": 238, "velocity": 106}, {"time": 213355, "pitch": 60, "duration": 217, "velocity": 117}, {"time": 213355, "pitch": 64, "duration": 230, "velocity": 115}, {"time": 213595, "pitch": 48, "duration": 552, "velocity": 117}, {"time": 213595, "pitch": 55, "duration": 529, "velocity": 110}, {"time": 213595, "pitch": 59, "duration": 516, "velocity": 117}, {"time": 213595, "pitch": 64, "duration": 519, "velocity": 117}, {"time": 214315, "pitch": 48, "duration": 317, "velocity": 117}, {"time": 214315, "pitch": 55, "duration": 266, "velocity": 112}, {"time": 214315, "pitch": 59, "duration": 266, "velocity": 117}, {"time": 214315, "pitch": 64, "duration": 271, "velocity": 106}, {"time": 214794, "pitch": 48, "duration": 227, "velocity": 117}, {"time": 214794, "pitch": 55, "duration": 214, "velocity": 102}, {"time": 214794, "pitch": 59, "duration": 212, "velocity": 117}, {"time": 214794, "pitch": 64, "duration": 212, "velocity": 105}, {"time": 215274, "pitch": 48, "duration": 118, "velocity": 117}, {"time": 215274, "pitch": 55, "duration": 251, "velocity": 103}, {"time": 215274, "pitch": 59, "duration": 238, "velocity": 117}, {"time": 215274, "pitch": 64, "duration": 255, "velocity": 115}, {"time": 215514, "pitch": 50, "duration": 572, "velocity": 117}, {"time": 215514, "pitch": 57, "duration": 543, "velocity": 117}, {"time": 215514, "pitch": 62, "duration": 584, "velocity": 115}, {"time": 215514, "pitch": 66, "duration": 568, "velocity": 117}, {"time": 215514, "pitch": 69, "duration": 584, "velocity": 89}, {"time": 216246, "pitch": 50, "duration": 284, "velocity": 117}, {"time": 216246, "pitch": 57, "duration": 285, "velocity": 117}, {"time": 216246, "pitch": 62, "duration": 335, "velocity": 115}, {"time": 216246, "pitch": 66, "duration": 299, "velocity": 117}, {"time": 216246, "pitch": 69, "duration": 332, "velocity": 81}, {"time": 216726, "pitch": 50, "duration": 194, "velocity": 117}, {"time": 216726, "pitch": 57, "duration": 203, "velocity": 117}, {"time": 216726, "pitch": 62, "duration": 317, "velocity": 98}, {"time": 216726, "pitch": 66, "duration": 278, "velocity": 117}, {"time": 216726, "pitch": 69, "duration": 290, "velocity": 82}, {"time": 217205, "pitch": 50, "duration": 127, "velocity": 117}, {"time": 217205, "pitch": 57, "duration": 153, "velocity": 117}, {"time": 217205, "pitch": 62, "duration": 208, "velocity": 112}, {"time": 217205, "pitch": 66, "duration": 180, "velocity": 117}, {"time": 217205, "pitch": 69, "duration": 192, "velocity": 84}, {"time": 217445, "pitch": 43, "duration": 510, "velocity": 117}, {"time": 217445, "pitch": 50, "duration": 449, "velocity": 115}, {"time": 217445, "pitch": 55, "duration": 583, "velocity": 117}, {"time": 217445, "pitch": 59, "duration": 583, "velocity": 117}, {"time": 217445, "pitch": 62, "duration": 581, "velocity": 117}, {"time": 218165, "pitch": 43, "duration": 188, "velocity": 117}, {"time": 218165, "pitch": 50, "duration": 252, "velocity": 117}, {"time": 218165, "pitch": 55, "duration": 272, "velocity": 110}, {"time": 218165, "pitch": 59, "duration": 234, "velocity": 117}, {"time": 218165, "pitch": 62, "duration": 249, "velocity": 115}, {"time": 218644, "pitch": 43, "duration": 167, "velocity": 117}, {"time": 218644, "pitch": 50, "duration": 163, "velocity": 117}, {"time": 218644, "pitch": 55, "duration": 251, "velocity": 115}, {"time": 218644, "pitch": 59, "duration": 207, "velocity": 117}, {"time": 218644, "pitch": 62, "duration": 204, "velocity": 117}, {"time": 219124, "pitch": 43, "duration": 123, "velocity": 117}, {"time": 219124, "pitch": 50, "duration": 153, "velocity": 115}, {"time": 219124, "pitch": 55, "duration": 236, "velocity": 98}, {"time": 219124, "pitch": 59, "duration": 209, "velocity": 117}, {"time": 219124, "pitch": 62, "duration": 212, "velocity": 117}, {"time": 219364, "pitch": 45, "duration": 503, "velocity": 116}, {"time": 219364, "pitch": 52, "duration": 477, "velocity": 117}, {"time": 219364, "pitch": 57, "duration": 575, "velocity": 117}, {"time": 219364, "pitch": 60, "duration": 566, "velocity": 117}, {"time": 219364, "pitch": 64, "duration": 581, "velocity": 115}, {"time": 220084, "pitch": 45, "duration": 206, "velocity": 117}, {"time": 220084, "pitch": 52, "duration": 215, "velocity": 117}, {"time": 220084, "pitch": 57, "duration": 313, "velocity": 103}, {"time": 220084, "pitch": 60, "duration": 308, "velocity": 117}, {"time": 220084, "pitch": 64, "duration": 311, "velocity": 115}, {"time": 220563, "pitch": 45, "duration": 177, "velocity": 117}, {"time": 220563, "pitch": 52, "duration": 189, "velocity": 117}, {"time": 220563, "pitch": 57, "duration": 269, "velocity": 106}, {"time": 220563, "pitch": 60, "duration": 236, "velocity": 115}, {"time": 220563, "pitch": 64, "duration": 247, "velocity": 98}, {"time": 221043, "pitch": 45, "duration": 131, "velocity": 117}, {"time": 221043, "pitch": 52, "duration": 169, "velocity": 117}, {"time": 221043, "pitch": 57, "duration": 238, "velocity": 106}, {"time": 221043, "pitch": 60, "duration": 217, "velocity": 117}, {"time": 221043, "pitch": 64, "duration": 230, "velocity": 115}, {"time": 221283, "pitch": 48, "duration": 551, "velocity": 117}, {"time": 221283, "pitch": 55, "duration": 528, "velocity": 110}, {"time": 221283, "pitch": 59, "duration": 515, "velocity": 117}, {"time": 221283, "pitch": 64, "duration": 518, "velocity": 117}, {"time": 222002, "pitch": 48, "duration": 317, "velocity": 117}, {"time": 222002, "pitch": 55, "duration": 266, "velocity": 112}, {"time": 222002, "pitch": 59, "duration": 266, "velocity": 117}, {"time": 222002, "pitch": 64, "duration": 271, "velocity": 106}, {"time": 222482, "pitch": 48, "duration": 227, "velocity": 117}, {"time": 222482, "pitch": 55, "duration": 214, "velocity": 102}, {"time": 222482, "pitch": 59, "duration": 212, "velocity": 117}, {"time": 222482, "pitch": 64, "duration": 212, "velocity": 105}, {"time": 222962, "pitch": 48, "duration": 118, "velocity": 117}, {"time": 222962, "pitch": 55, "duration": 250, "velocity": 103}, {"time": 222962, "pitch": 59, "duration": 237, "velocity": 117}, {"time": 222962, "pitch": 64, "duration": 254, "velocity": 115}, {"time": 223201, "pitch": 50, "duration": 560, "velocity": 117}, {"time": 223201, "pitch": 57, "duration": 531, "velocity": 117}, {"time": 223201, "pitch": 62, "duration": 572, "velocity": 115}, {"time": 223201, "pitch": 66, "duration": 556, "velocity": 117}, {"time": 223201, "pitch": 69, "duration": 572, "velocity": 89}, {"time": 223921, "pitch": 50, "duration": 284, "velocity": 117}, {"time": 223921, "pitch": 57, "duration": 285, "velocity": 117}, {"time": 223921, "pitch": 62, "duration": 335, "velocity": 115}, {"time": 223921, "pitch": 66, "duration": 299, "velocity": 117}, {"time": 223921, "pitch": 69, "duration": 332, "velocity": 81}, {"time": 224401, "pitch": 50, "duration": 193, "velocity": 117}, {"time": 224401, "pitch": 57, "duration": 202, "velocity": 117}, {"time": 224401, "pitch": 62, "duration": 316, "velocity": 98}, {"time": 224401, "pitch": 66, "duration": 277, "velocity": 117}, {"time": 224401, "pitch": 69, "duration": 289, "velocity": 82}, {"time": 224880, "pitch": 50, "duration": 127, "velocity": 117}, {"time": 224880, "pitch": 57, "duration": 153, "velocity": 117}, {"time": 224880, "pitch": 62, "duration": 208, "velocity": 112}, {"time": 224880, "pitch": 66, "duration": 180, "velocity": 117}, {"time": 224880, "pitch": 69, "duration": 192, "velocity": 84}, {"time": 225120, "pitch": 43, "duration": 510, "velocity": 117}, {"time": 225120, "pitch": 50, "duration": 449, "velocity": 115}, {"time": 225120, "pitch": 55, "duration": 583, "velocity": 117}, {"time": 225120, "pitch": 59, "duration": 583, "velocity": 117}, {"time": 225120, "pitch": 62, "duration": 581, "velocity": 117}, {"time": 225840, "pitch": 43, "duration": 188, "velocity": 117}, {"time": 225840, "pitch": 50, "duration": 251, "velocity": 117}, {"time": 225840, "pitch": 55, "duration": 271, "velocity": 110}, {"time": 225840, "pitch": 59, "duration": 234, "velocity": 117}, {"time": 225840, "pitch": 62, "duration": 248, "velocity": 115}, {"time": 226319, "pitch": 43, "duration": 167, "velocity": 117}, {"time": 226319, "pitch": 50, "duration": 163, "velocity": 117}, {"time": 226319, "pitch": 55, "duration": 251, "velocity": 115}, {"time": 226319, "pitch": 59, "duration": 207, "velocity": 117}, {"time": 226319, "pitch": 62, "duration": 204, "velocity": 117}, {"time": 226799, "pitch": 43, "duration": 123, "velocity": 117}, {"time": 226799, "pitch": 50, "duration": 153, "velocity": 115}, {"time": 226799, "pitch": 55, "duration": 236, "velocity": 98}, {"time": 226799, "pitch": 59, "duration": 209, "velocity": 117}, {"time": 226799, "pitch": 62, "duration": 212, "velocity": 117}, {"time": 227039, "pitch": 45, "duration": 503, "velocity": 116}, {"time": 227039, "pitch": 52, "duration": 477, "velocity": 117}, {"time": 227039, "pitch": 57, "duration": 574, "velocity": 117}, {"time": 227039, "pitch": 60, "duration": 565, "velocity": 117}, {"time": 227039, "pitch": 64, "duration": 580, "velocity": 115}, {"time": 227758, "pitch": 45, "duration": 207, "velocity": 117}, {"time": 227758, "pitch": 52, "duration": 216, "velocity": 117}, {"time": 227758, "pitch": 57, "duration": 314, "velocity": 103}, {"time": 227758, "pitch": 60, "duration": 309, "velocity": 117}, {"time": 227758, "pitch": 64, "duration": 312, "velocity": 115}, {"time": 228238, "pitch": 45, "duration": 177, "velocity": 117}, {"time": 228238, "pitch": 52, "duration": 189, "velocity": 117}, {"time": 228238, "pitch": 57, "duration": 269, "velocity": 106}, {"time": 228238, "pitch": 60, "duration": 236, "velocity": 115}, {"time": 228238, "pitch": 64, "duration": 247, "velocity": 98}, {"time": 228718, "pitch": 45, "duration": 131, "velocity": 117}, {"time": 228718, "pitch": 52, "duration": 169, "velocity": 117}, {"time": 228718, "pitch": 57, "duration": 238, "velocity": 106}, {"time": 228718, "pitch": 60, "duration": 217, "velocity": 117}, {"time": 228718, "pitch": 64, "duration": 230, "velocity": 115}, {"time": 228958, "pitch": 48, "duration": 551, "velocity": 117}, {"time": 228958, "pitch": 55, "duration": 528, "velocity": 110}, {"time": 228958, "pitch": 59, "duration": 515, "velocity": 117}, {"time": 228958, "pitch": 64, "duration": 518, "velocity": 117}, {"time": 229677, "pitch": 48, "duration": 317, "velocity": 117}, {"time": 229677, "pitch": 55, "duration": 266, "velocity": 112}, {"time": 229677, "pitch": 59, "duration": 266, "velocity": 117}, {"time": 229677, "pitch": 64, "duration": 271, "velocity": 106}, {"time": 230157, "pitch": 48, "duration": 227, "velocity": 117}, {"time": 230157, "pitch": 55, "duration": 214, "velocity": 102}, {"time": 230157, "pitch": 59, "duration": 212, "velocity": 117}, {"time": 230157, "pitch": 64, "duration": 212, "velocity": 105}, {"time": 230636, "pitch": 48, "duration": 118, "velocity": 117}, {"time": 230636, "pitch": 55, "duration": 251, "velocity": 103}, {"time": 230636, "pitch": 59, "duration": 238, "velocity": 117}, {"time": 230636, "pitch": 64, "duration": 255, "velocity": 115}, {"time": 230876, "pitch": 50, "duration": 224, "velocity": 117}, {"time": 230876, "pitch": 57, "duration": 195, "velocity": 117}, {"time": 230876, "pitch": 62, "duration": 211, "velocity": 115}, {"time": 230876, "pitch": 66, "duration": 220, "velocity": 117}, {"time": 230876, "pitch": 69, "duration": 198, "velocity": 89}, {"time": 231116, "pitch": 50, "duration": 221, "velocity": 117}, {"time": 231116, "pitch": 57, "duration": 208, "velocity": 117}, {"time": 231116, "pitch": 62, "duration": 227, "velocity": 115}, {"time": 231116, "pitch": 66, "duration": 182, "velocity": 117}, {"time": 231116, "pitch": 69, "duration": 202, "velocity": 81}, {"time": 232555, "pitch": 42, "duration": 210, "velocity": 79}, {"time": 232555, "pitch": 49, "duration": 217, "velocity": 86}, {"time": 232555, "pitch": 54, "duration": 210, "velocity": 104}, {"time": 232555, "pitch": 58, "duration": 193, "velocity": 97}, {"time": 232555, "pitch": 61, "duration": 190, "velocity": 101}, {"time": 232555, "pitch": 66, "duration": 197, "velocity": 87}, {"time": 232795, "pitch": 43, "duration": 589, "velocity": 79}, {"time": 232795, "pitch": 50, "duration": 214, "velocity": 86}, {"time": 232795, "pitch": 55, "duration": 192, "velocity": 104}, {"time": 232795, "pitch": 59, "duration": 169, "velocity": 97}, {"time": 232795, "pitch": 62, "duration": 166, "velocity": 101}, {"time": 232795, "pitch": 67, "duration": 173, "velocity": 87}, {"time": 233035, "pitch": 50, "duration": 279, "velocity": 80}, {"time": 233035, "pitch": 55, "duration": 203, "velocity": 101}, {"time": 233035, "pitch": 59, "duration": 237, "velocity": 104}, {"time": 233035, "pitch": 62, "duration": 221, "velocity": 106}, {"time": 233035, "pitch": 67, "duration": 257, "velocity": 97}, {"time": 233515, "pitch": 43, "duration": 150, "velocity": 127}, {"time": 233515, "pitch": 50, "duration": 230, "velocity": 93}, {"time": 233515, "pitch": 55, "duration": 222, "velocity": 105}, {"time": 233515, "pitch": 59, "duration": 212, "velocity": 97}, {"time": 233515, "pitch": 62, "duration": 203, "velocity": 101}, {"time": 233515, "pitch": 67, "duration": 210, "velocity": 90}, {"time": 233754, "pitch": 48, "duration": 146, "velocity": 127}, {"time": 233754, "pitch": 55, "duration": 148, "velocity": 97}, {"time": 233754, "pitch": 60, "duration": 175, "velocity": 92}, {"time": 233754, "pitch": 64, "duration": 155, "velocity": 100}, {"time": 233754, "pitch": 67, "duration": 150, "velocity": 93}, {"time": 233994, "pitch": 48, "duration": 216, "velocity": 127}, {"time": 233994, "pitch": 55, "duration": 226, "velocity": 118}, {"time": 233994, "pitch": 60, "duration": 199, "velocity": 99}, {"time": 233994, "pitch": 64, "duration": 200, "velocity": 111}, {"time": 233994, "pitch": 67, "duration": 226, "velocity": 105}, {"time": 234474, "pitch": 48, "duration": 386, "velocity": 106}, {"time": 234474, "pitch": 55, "duration": 397, "velocity": 127}, {"time": 234477, "pitch": 42, "duration": 232, "velocity": 79}, {"time": 234477, "pitch": 49, "duration": 239, "velocity": 86}, {"time": 234477, "pitch": 54, "duration": 232, "velocity": 104}, {"time": 234477, "pitch": 58, "duration": 215, "velocity": 97}, {"time": 234477, "pitch": 61, "duration": 212, "velocity": 101}, {"time": 234477, "pitch": 66, "duration": 219, "velocity": 87}, {"time": 234714, "pitch": 43, "duration": 601, "velocity": 79}, {"time": 234714, "pitch": 50, "duration": 219, "velocity": 86}, {"time": 234714, "pitch": 55, "duration": 157, "velocity": 104}, {"time": 234714, "pitch": 59, "duration": 173, "velocity": 97}, {"time": 234714, "pitch": 62, "duration": 170, "velocity": 101}, {"time": 234714, "pitch": 67, "duration": 177, "velocity": 87}, {"time": 234960, "pitch": 50, "duration": 285, "velocity": 80}, {"time": 234960, "pitch": 55, "duration": 208, "velocity": 101}, {"time": 234960, "pitch": 59, "duration": 243, "velocity": 104}, {"time": 234960, "pitch": 62, "duration": 227, "velocity": 106}, {"time": 234960, "pitch": 67, "duration": 263, "velocity": 97}, {"time": 235446, "pitch": 43, "duration": 151, "velocity": 127}, {"time": 235446, "pitch": 50, "duration": 231, "velocity": 93}, {"time": 235446, "pitch": 55, "duration": 223, "velocity": 105}, {"time": 235446, "pitch": 59, "duration": 213, "velocity": 97}, {"time": 235446, "pitch": 62, "duration": 204, "velocity": 101}, {"time": 235446, "pitch": 67, "duration": 211, "velocity": 90}, {"time": 235686, "pitch": 48, "duration": 146, "velocity": 127}, {"time": 235686, "pitch": 55, "duration": 148, "velocity": 97}, {"time": 235686, "pitch": 60, "duration": 175, "velocity": 92}, {"time": 235686, "pitch": 64, "duration": 155, "velocity": 100}, {"time": 235686, "pitch": 67, "duration": 150, "velocity": 93}, {"time": 235926, "pitch": 48, "duration": 215, "velocity": 127}, {"time": 235926, "pitch": 55, "duration": 225, "velocity": 118}, {"time": 235926, "pitch": 60, "duration": 198, "velocity": 99}, {"time": 235926, "pitch": 64, "duration": 199, "velocity": 111}, {"time": 235926, "pitch": 67, "duration": 225, "velocity": 105}, {"time": 236405, "pitch": 42, "duration": 232, "velocity": 79}, {"time": 236405, "pitch": 48, "duration": 383, "velocity": 106}, {"time": 236405, "pitch": 49, "duration": 239, "velocity": 86}, {"time": 236405, "pitch": 54, "duration": 232, "velocity": 104}, {"time": 236405, "pitch": 55, "duration": 393, "velocity": 127}, {"time": 236405, "pitch": 58, "duration": 215, "velocity": 97}, {"time": 236405, "pitch": 61, "duration": 212, "velocity": 101}, {"time": 236405, "pitch": 66, "duration": 219, "velocity": 87}, {"time": 236645, "pitch": 43, "duration": 589, "velocity": 79}, {"time": 236645, "pitch": 50, "duration": 214, "velocity": 86}, {"time": 236645, "pitch": 55, "duration": 153, "velocity": 104}, {"time": 236645, "pitch": 59, "duration": 169, "velocity": 97}, {"time": 236645, "pitch": 62, "duration": 166, "velocity": 101}, {"time": 236645, "pitch": 67, "duration": 173, "velocity": 87}, {"time": 236885, "pitch": 50, "duration": 279, "velocity": 80}, {"time": 236885, "pitch": 55, "duration": 203, "velocity": 101}, {"time": 236885, "pitch": 59, "duration": 237, "velocity": 104}, {"time": 236885, "pitch": 62, "duration": 221, "velocity": 106}, {"time": 236885, "pitch": 67, "duration": 257, "velocity": 97}, {"time": 237365, "pitch": 43, "duration": 150, "velocity": 127}, {"time": 237365, "pitch": 50, "duration": 230, "velocity": 93}, {"time": 237365, "pitch": 55, "duration": 222, "velocity": 105}, {"time": 237365, "pitch": 59, "duration": 212, "velocity": 97}, {"time": 237365, "pitch": 62, "duration": 203, "velocity": 101}, {"time": 237365, "pitch": 67, "duration": 210, "velocity": 90}, {"time": 237604, "pitch": 48, "duration": 146, "velocity": 127}, {"time": 237604, "pitch": 55, "duration": 148, "velocity": 97}, {"time": 237604, "pitch": 60, "duration": 175, "velocity": 92}, {"time": 237604, "pitch": 64, "duration": 155, "velocity": 100}, {"time": 237604, "pitch": 67, "duration": 150, "velocity": 93}, {"time": 237844, "pitch": 48, "duration": 216, "velocity": 127}, {"time": 237844, "pitch": 55, "duration": 226, "velocity": 118}, {"time": 237844, "pitch": 60, "duration": 199, "velocity": 99}, {"time": 237844, "pitch": 64, "duration": 200, "velocity": 111}, {"time": 237844, "pitch": 67, "duration": 226, "velocity": 105}, {"time": 238324, "pitch": 48, "duration": 171, "velocity": 127}, {"time": 238324, "pitch": 55, "duration": 177, "velocity": 108}, {"time": 238324, "pitch": 60, "duration": 204, "velocity": 87}, {"time": 238324, "pitch": 64, "duration": 179, "velocity": 91}, {"time": 238324, "pitch": 67, "duration": 204, "velocity": 94}, {"time": 238804, "pitch": 48, "duration": 174, "velocity": 127}, {"time": 238804, "pitch": 55, "duration": 216, "velocity": 95}, {"time": 238804, "pitch": 60, "duration": 216, "velocity": 102}, {"time": 238804, "pitch": 64, "duration": 241, "velocity": 117}, {"time": 238804, "pitch": 67, "duration": 218, "velocity": 100}, {"time": 239283, "pitch": 47, "duration": 192, "velocity": 127}, {"time": 239283, "pitch": 50, "duration": 205, "velocity": 101}, {"time": 239283, "pitch": 55, "duration": 212, "velocity": 97}, {"time": 239283, "pitch": 59, "duration": 203, "velocity": 100}, {"time": 239283, "pitch": 62, "duration": 197, "velocity": 105}, {"time": 239523, "pitch": 48, "duration": 169, "velocity": 127}, {"time": 239523, "pitch": 55, "duration": 218, "velocity": 95}, {"time": 239523, "pitch": 60, "duration": 188, "velocity": 102}, {"time": 239523, "pitch": 64, "duration": 231, "velocity": 117}, {"time": 239523, "pitch": 67, "duration": 218, "velocity": 100}, {"time": 239763, "pitch": 47, "duration": 165, "velocity": 127}, {"time": 239763, "pitch": 50, "duration": 240, "velocity": 101}, {"time": 239763, "pitch": 55, "duration": 179, "velocity": 97}, {"time": 239763, "pitch": 59, "duration": 187, "velocity": 100}, {"time": 239763, "pitch": 62, "duration": 181, "velocity": 105}, {"time": 240003, "pitch": 48, "duration": 214, "velocity": 127}, {"time": 240003, "pitch": 55, "duration": 229, "velocity": 95}, {"time": 240003, "pitch": 59, "duration": 209, "velocity": 102}, {"time": 240003, "pitch": 64, "duration": 210, "velocity": 100}, {"time": 240003, "pitch": 67, "duration": 206, "velocity": 117}, {"time": 240243, "pitch": 50, "duration": 190, "velocity": 127}, {"time": 240243, "pitch": 57, "duration": 229, "velocity": 95}, {"time": 240243, "pitch": 62, "duration": 209, "velocity": 102}, {"time": 240243, "pitch": 66, "duration": 206, "velocity": 117}, {"time": 240243, "pitch": 69, "duration": 210, "velocity": 100}, {"time": 240346, "pitch": 43, "duration": 238, "velocity": 79}, {"time": 240346, "pitch": 50, "duration": 87, "velocity": 86}, {"time": 240346, "pitch": 55, "duration": 179, "velocity": 104}, {"time": 240346, "pitch": 59, "duration": 156, "velocity": 97}, {"time": 240346, "pitch": 62, "duration": 106, "velocity": 101}, {"time": 240346, "pitch": 67, "duration": 160, "velocity": 87}, {"time": 240483, "pitch": 43, "duration": 101, "velocity": 79}, {"time": 240483, "pitch": 50, "duration": 64, "velocity": 86}, {"time": 240483, "pitch": 55, "duration": 42, "velocity": 104}, {"time": 240483, "pitch": 59, "duration": 19, "velocity": 97}, {"time": 240483, "pitch": 62, "duration": 16, "velocity": 101}, {"time": 240483, "pitch": 67, "duration": 23, "velocity": 87}, {"time": 240722, "pitch": 50, "duration": 279, "velocity": 80}, {"time": 240722, "pitch": 55, "duration": 203, "velocity": 101}, {"time": 240722, "pitch": 59, "duration": 237, "velocity": 104}, {"time": 240722, "pitch": 62, "duration": 221, "velocity": 106}, {"time": 240722, "pitch": 67, "duration": 257, "velocity": 97}, {"time": 241202, "pitch": 43, "duration": 151, "velocity": 127}, {"time": 241202, "pitch": 50, "duration": 231, "velocity": 93}, {"time": 241202, "pitch": 55, "duration": 223, "velocity": 105}, {"time": 241202, "pitch": 59, "duration": 213, "velocity": 97}, {"time": 241202, "pitch": 62, "duration": 204, "velocity": 101}, {"time": 241202, "pitch": 67, "duration": 211, "velocity": 90}, {"time": 241442, "pitch": 48, "duration": 146, "velocity": 127}, {"time": 241442, "pitch": 55, "duration": 148, "velocity": 97}, {"time": 241442, "pitch": 60, "duration": 175, "velocity": 92}, {"time": 241442, "pitch": 64, "duration": 155, "velocity": 100}, {"time": 241442, "pitch": 67, "duration": 150, "velocity": 93}, {"time": 241682, "pitch": 48, "duration": 216, "velocity": 127}, {"time": 241682, "pitch": 55, "duration": 226, "velocity": 118}, {"time": 241682, "pitch": 60, "duration": 199, "velocity": 99}, {"time": 241682, "pitch": 64, "duration": 200, "velocity": 111}, {"time": 241682, "pitch": 67, "duration": 226, "velocity": 105}, {"time": 242161, "pitch": 42, "duration": 232, "velocity": 79}, {"time": 242161, "pitch": 48, "duration": 417, "velocity": 105}, {"time": 242161, "pitch": 49, "duration": 239, "velocity": 86}, {"time": 242161, "pitch": 54, "duration": 232, "velocity": 104}, {"time": 242161, "pitch": 55, "duration": 416, "velocity": 127}, {"time": 242161, "pitch": 58, "duration": 215, "velocity": 97}, {"time": 242161, "pitch": 61, "duration": 212, "velocity": 101}, {"time": 242161, "pitch": 66, "duration": 219, "velocity": 87}, {"time": 242401, "pitch": 43, "duration": 589, "velocity": 79}, {"time": 242401, "pitch": 50, "duration": 214, "velocity": 86}, {"time": 242401, "pitch": 55, "duration": 176, "velocity": 104}, {"time": 242401, "pitch": 59, "duration": 169, "velocity": 97}, {"time": 242401, "pitch": 62, "duration": 166, "velocity": 101}, {"time": 242401, "pitch": 67, "duration": 173, "velocity": 87}, {"time": 242641, "pitch": 50, "duration": 279, "velocity": 80}, {"time": 242641, "pitch": 55, "duration": 203, "velocity": 101}, {"time": 242641, "pitch": 59, "duration": 237, "velocity": 104}, {"time": 242641, "pitch": 62, "duration": 221, "velocity": 106}, {"time": 242641, "pitch": 67, "duration": 257, "velocity": 97}, {"time": 243121, "pitch": 43, "duration": 151, "velocity": 127}, {"time": 243121, "pitch": 50, "duration": 231, "velocity": 93}, {"time": 243121, "pitch": 55, "duration": 223, "velocity": 105}, {"time": 243121, "pitch": 59, "duration": 213, "velocity": 97}, {"time": 243121, "pitch": 62, "duration": 204, "velocity": 101}, {"time": 243121, "pitch": 67, "duration": 211, "velocity": 90}, {"time": 243361, "pitch": 48, "duration": 145, "velocity": 127}, {"time": 243361, "pitch": 55, "duration": 147, "velocity": 97}, {"time": 243361, "pitch": 60, "duration": 174, "velocity": 92}, {"time": 243361, "pitch": 64, "duration": 154, "velocity": 100}, {"time": 243361, "pitch": 67, "duration": 149, "velocity": 93}, {"time": 243600, "pitch": 48, "duration": 216, "velocity": 127}, {"time": 243600, "pitch": 55, "duration": 226, "velocity": 118}, {"time": 243600, "pitch": 60, "duration": 199, "velocity": 99}, {"time": 243600, "pitch": 64, "duration": 200, "velocity": 111}, {"time": 243600, "pitch": 67, "duration": 226, "velocity": 105}, {"time": 244080, "pitch": 42, "duration": 232, "velocity": 79}, {"time": 244080, "pitch": 48, "duration": 379, "velocity": 120}, {"time": 244080, "pitch": 49, "duration": 239, "velocity": 86}, {"time": 244080, "pitch": 54, "duration": 232, "velocity": 104}, {"time": 244080, "pitch": 55, "duration": 380, "velocity": 125}, {"time": 244080, "pitch": 58, "duration": 215, "velocity": 97}, {"time": 244080, "pitch": 61, "duration": 212, "velocity": 101}, {"time": 244080, "pitch": 66, "duration": 219, "velocity": 87}, {"time": 244320, "pitch": 43, "duration": 589, "velocity": 79}, {"time": 244320, "pitch": 50, "duration": 214, "velocity": 86}, {"time": 244320, "pitch": 55, "duration": 140, "velocity": 104}, {"time": 244320, "pitch": 59, "duration": 169, "velocity": 97}, {"time": 244320, "pitch": 62, "duration": 166, "velocity": 101}, {"time": 244320, "pitch": 67, "duration": 173, "velocity": 87}, {"time": 244560, "pitch": 50, "duration": 279, "velocity": 80}, {"time": 244560, "pitch": 55, "duration": 203, "velocity": 101}, {"time": 244560, "pitch": 59, "duration": 237, "velocity": 104}, {"time": 244560, "pitch": 62, "duration": 221, "velocity": 106}, {"time": 244560, "pitch": 67, "duration": 257, "velocity": 97}, {"time": 245039, "pitch": 43, "duration": 151, "velocity": 127}, {"time": 245039, "pitch": 50, "duration": 231, "velocity": 93}, {"time": 245039, "pitch": 55, "duration": 223, "velocity": 105}, {"time": 245039, "pitch": 59, "duration": 213, "velocity": 97}, {"time": 245039, "pitch": 62, "duration": 204, "velocity": 101}, {"time": 245039, "pitch": 67, "duration": 211, "velocity": 90}, {"time": 245279, "pitch": 48, "duration": 146, "velocity": 127}, {"time": 245279, "pitch": 55, "duration": 148, "velocity": 97}, {"time": 245279, "pitch": 60, "duration": 175, "velocity": 92}, {"time": 245279, "pitch": 64, "duration": 155, "velocity": 100}, {"time": 245279, "pitch": 67, "duration": 150, "velocity": 93}, {"time": 245519, "pitch": 48, "duration": 216, "velocity": 127}, {"time": 245519, "pitch": 55, "duration": 226, "velocity": 118}, {"time": 245519, "pitch": 60, "duration": 199, "velocity": 99}, {"time": 245519, "pitch": 64, "duration": 200, "velocity": 111}, {"time": 245519, "pitch": 67, "duration": 226, "velocity": 105}, {"time": 245999, "pitch": 48, "duration": 171, "velocity": 127}, {"time": 245999, "pitch": 55, "duration": 177, "velocity": 108}, {"time": 245999, "pitch": 60, "duration": 204, "velocity": 87}, {"time": 245999, "pitch": 64, "duration": 179, "velocity": 91}, {"time": 245999, "pitch": 67, "duration": 204, "velocity": 94}, {"time": 246478, "pitch": 48, "duration": 174, "velocity": 127}, {"time": 246478, "pitch": 55, "duration": 217, "velocity": 95}, {"time": 246478, "pitch": 60, "duration": 217, "velocity": 102}, {"time": 246478, "pitch": 64, "duration": 242, "velocity": 117}, {"time": 246478, "pitch": 67, "duration": 219, "velocity": 100}, {"time": 246958, "pitch": 47, "duration": 192, "velocity": 127}, {"time": 246958, "pitch": 50, "duration": 205, "velocity": 101}, {"time": 246958, "pitch": 55, "duration": 212, "velocity": 97}, {"time": 246958, "pitch": 59, "duration": 203, "velocity": 100}, {"time": 246958, "pitch": 62, "duration": 197, "velocity": 105}, {"time": 247198, "pitch": 48, "duration": 169, "velocity": 127}, {"time": 247198, "pitch": 55, "duration": 218, "velocity": 95}, {"time": 247198, "pitch": 60, "duration": 188, "velocity": 102}, {"time": 247198, "pitch": 64, "duration": 231, "velocity": 117}, {"time": 247198, "pitch": 67, "duration": 218, "velocity": 100}, {"time": 247438, "pitch": 47, "duration": 165, "velocity": 127}, {"time": 247438, "pitch": 50, "duration": 240, "velocity": 101}, {"time": 247438, "pitch": 55, "duration": 179, "velocity": 97}, {"time": 247438, "pitch": 59, "duration": 187, "velocity": 100}, {"time": 247438, "pitch": 62, "duration": 181, "velocity": 105}, {"time": 247678, "pitch": 48, "duration": 214, "velocity": 127}, {"time": 247678, "pitch": 55, "duration": 229, "velocity": 95}, {"time": 247678, "pitch": 59, "duration": 209, "velocity": 102}, {"time": 247678, "pitch": 64, "duration": 206, "velocity": 117}, {"time": 247678, "pitch": 67, "duration": 210, "velocity": 100}, {"time": 247918, "pitch": 50, "duration": 189, "velocity": 127}, {"time": 247918, "pitch": 57, "duration": 228, "velocity": 95}, {"time": 247918, "pitch": 62, "duration": 208, "velocity": 102}, {"time": 247918, "pitch": 66, "duration": 205, "velocity": 117}, {"time": 247918, "pitch": 69, "duration": 209, "velocity": 100}, {"time": 248157, "pitch": 43, "duration": 5793, "velocity": 112}, {"time": 248157, "pitch": 50, "duration": 5742, "velocity": 125}, {"time": 248157, "pitch": 55, "duration": 5750, "velocity": 123}, {"time": 248157, "pitch": 59, "duration": 5728, "velocity": 126}, {"time": 248157, "pitch": 62, "duration": 5734, "velocity": 124}, {"time": 248157, "pitch": 67, "duration": 5756, "velocity": 116}], "annotations": [{"time": 240, "annotation": {"number": 7, "value": 60}, "group": "control_change"}, {"time": 258, "annotation": {"number": 11, "value": 110}, "group": "control_change"}, {"time": 277, "annotation": {"number": 10, "value": 127}, "group": "control_change"}, {"time": 295, "annotation": {"number": 91, "value": 30}, "group": "control_change"}, {"time": 314, "annotation": {"number": 93, "value": 0}, "group": "control_change"}, {"time": 332, "annotation": {"number": 101, "value": 0}, "group": "control_change"}, {"time": 350, "annotation": {"number": 100, "value": 0}, "group": "control_change"}, {"time": 369, "annotation": {"number": 6, "value": 12}, "group": "control_change"}, {"time": 387, "annotation": {"number": 101, "value": 127}, "group": "control_change"}, {"time": 406, "annotation": {"number": 100, "value": 127}, "group": "control_change"}, {"time": 94559, "annotation": {"number": 10, "value": 127}, "group": "control_change"}, {"time": 102234, "annotation": {"number": 10, "value": 127}, "group": "control_change"}, {"time": 194395, "annotation": {"number": 10, "value": 127}, "group": "control_change"}, {"time": 250076, "annotation": {"number": 11, "value": 110}, "group": "control_change"}, {"time": 250196, "annotation": {"number": 11, "value": 106}, "group": "control_change"}, {"time": 250316, "annotation": {"number": 11, "value": 103}, "group": "control_change"}, {"time": 250436, "annotation": {"number": 11, "value": 99}, "group": "control_change"}, {"time": 250556, "annotation": {"number": 11, "value": 96}, "group": "control_change"}, {"time": 250676, "annotation": {"number": 11, "value": 92}, "group": "control_change"}, {"time": 250796, "annotation": {"number": 11, "value": 89}, "group": "control_change"}, {"time": 250916, "annotation": {"number": 11, "value": 85}, "group": "control_change"}, {"time": 251035, "annotation": {"number": 11, "value": 82}, "group": "control_change"}, {"time": 251155, "annotation": {"number": 11, "value": 79}, "group": "control_change"}, {"time": 251275, "annotation": {"number": 11, "value": 75}, "group": "control_change"}, {"time": 251395, "annotation": {"number": 11, "value": 72}, "group": "control_change"}, {"time": 251515, "annotation": {"number": 11, "value": 68}, "group": "control_change"}, {"time": 251635, "annotation": {"number": 11, "value": 65}, "group": "control_change"}, {"time": 251755, "annotation": {"number": 11, "value": 61}, "group": "control_change"}, {"time": 251875, "annotation": {"number": 11, "value": 58}, "group": "control_change"}, {"time": 251995, "annotation": {"number": 11, "value": 55}, "group": "control_change"}, {"time": 252115, "annotation": {"number": 11, "value": 51}, "group": "control_change"}, {"time": 252235, "annotation": {"number": 11, "value": 48}, "group": "control_change"}, {"time": 252355, "annotation": {"number": 11, "value": 44}, "group": "control_change"}, {"time": 252474, "annotation": {"number": 11, "value": 41}, "group": "control_change"}, {"time": 252594, "annotation": {"number": 11, "value": 37}, "group": "control_change"}, {"time": 252714, "annotation": {"number": 11, "value": 34}, "group": "control_change"}, {"time": 252834, "annotation": {"number": 11, "value": 30}, "group": "control_change"}, {"time": 252954, "annotation": {"number": 11, "value": 27}, "group": "control_change"}, {"time": 253074, "annotation": {"number": 11, "value": 24}, "group": "control_change"}, {"time": 253194, "annotation": {"number": 11, "value": 20}, "group": "control_change"}, {"time": 253314, "annotation": {"number": 11, "value": 17}, "group": "control_change"}, {"time": 253434, "annotation": {"number": 11, "value": 13}, "group": "control_change"}, {"time": 253557, "annotation": {"number": 11, "value": 10}, "group": "control_change"}, {"time": 253680, "annotation": {"number": 11, "value": 6}, "group": "control_change"}, {"time": 253803, "annotation": {"number": 11, "value": 3}, "group": "control_change"}, {"time": 253926, "annotation": {"number": 11, "value": 0}, "group": "control_change"}]}, {"program": 0, "is_drum": false, "name": "E.G SUB", "annotations": [{"time": 184, "annotation": {"number": 0, "value": 0}, "group": "control_change"}, {"time": 203, "annotation": {"number": 32, "value": 2}, "group": "control_change"}]}, {"program": 29, "is_drum": false, "name": "E.G SUB", "notes": [{"time": 17760, "pitch": 42, "duration": 339, "velocity": 99}, {"time": 17760, "pitch": 49, "duration": 339, "velocity": 99}, {"time": 17760, "pitch": 54, "duration": 290, "velocity": 109}, {"time": 18000, "pitch": 43, "duration": 179, "velocity": 113}, {"time": 18000, "pitch": 50, "duration": 179, "velocity": 113}, {"time": 18000, "pitch": 55, "duration": 194, "velocity": 105}, {"time": 18239, "pitch": 43, "duration": 173, "velocity": 101}, {"time": 18479, "pitch": 47, "duration": 213, "velocity": 113}, {"time": 18479, "pitch": 54, "duration": 213, "velocity": 113}, {"time": 18479, "pitch": 59, "duration": 220, "velocity": 107}, {"time": 18719, "pitch": 48, "duration": 178, "velocity": 115}, {"time": 18719, "pitch": 55, "duration": 178, "velocity": 115}, {"time": 18719, "pitch": 60, "duration": 200, "velocity": 99}, {"time": 18959, "pitch": 48, "duration": 163, "velocity": 111}, {"time": 18959, "pitch": 55, "duration": 163, "velocity": 111}, {"time": 18959, "pitch": 60, "duration": 206, "velocity": 105}, {"time": 19199, "pitch": 48, "duration": 152, "velocity": 105}, {"time": 19439, "pitch": 48, "duration": 184, "velocity": 109}, {"time": 19439, "pitch": 55, "duration": 184, "velocity": 109}, {"time": 19439, "pitch": 60, "duration": 186, "velocity": 107}, {"time": 19679, "pitch": 42, "duration": 238, "velocity": 103}, {"time": 19679, "pitch": 49, "duration": 238, "velocity": 103}, {"time": 19679, "pitch": 54, "duration": 266, "velocity": 103}, {"time": 19918, "pitch": 43, "duration": 178, "velocity": 99}, {"time": 19918, "pitch": 50, "duration": 178, "velocity": 99}, {"time": 19918, "pitch": 55, "duration": 226, "velocity": 109}, {"time": 20158, "pitch": 43, "duration": 160, "velocity": 105}, {"time": 20398, "pitch": 47, "duration": 180, "velocity": 115}, {"time": 20398, "pitch": 54, "duration": 180, "velocity": 115}, {"time": 20398, "pitch": 59, "duration": 180, "velocity": 109}, {"time": 20638, "pitch": 48, "duration": 178, "velocity": 113}, {"time": 20638, "pitch": 55, "duration": 178, "velocity": 113}, {"time": 20638, "pitch": 60, "duration": 197, "velocity": 103}, {"time": 20878, "pitch": 48, "duration": 177, "velocity": 107}, {"time": 20878, "pitch": 55, "duration": 177, "velocity": 107}, {"time": 20878, "pitch": 60, "duration": 215, "velocity": 105}, {"time": 21118, "pitch": 48, "duration": 152, "velocity": 113}, {"time": 21357, "pitch": 48, "duration": 178, "velocity": 109}, {"time": 21357, "pitch": 55, "duration": 178, "velocity": 109}, {"time": 21357, "pitch": 60, "duration": 178, "velocity": 111}, {"time": 21597, "pitch": 42, "duration": 185, "velocity": 89}, {"time": 21597, "pitch": 49, "duration": 185, "velocity": 89}, {"time": 21597, "pitch": 54, "duration": 263, "velocity": 107}, {"time": 21837, "pitch": 43, "duration": 174, "velocity": 111}, {"time": 21837, "pitch": 50, "duration": 174, "velocity": 111}, {"time": 21837, "pitch": 55, "duration": 215, "velocity": 93}, {"time": 22077, "pitch": 43, "duration": 156, "velocity": 101}, {"time": 22317, "pitch": 47, "duration": 185, "velocity": 119}, {"time": 22317, "pitch": 54, "duration": 185, "velocity": 119}, {"time": 22317, "pitch": 59, "duration": 191, "velocity": 111}, {"time": 22557, "pitch": 48, "duration": 153, "velocity": 117}, {"time": 22557, "pitch": 55, "duration": 153, "velocity": 117}, {"time": 22557, "pitch": 60, "duration": 181, "velocity": 105}, {"time": 22796, "pitch": 48, "duration": 175, "velocity": 111}, {"time": 22796, "pitch": 55, "duration": 175, "velocity": 111}, {"time": 22796, "pitch": 60, "duration": 212, "velocity": 107}, {"time": 23036, "pitch": 48, "duration": 153, "velocity": 109}, {"time": 23276, "pitch": 48, "duration": 154, "velocity": 109}, {"time": 23276, "pitch": 55, "duration": 154, "velocity": 109}, {"time": 23276, "pitch": 60, "duration": 232, "velocity": 115}, {"time": 23516, "pitch": 48, "duration": 148, "velocity": 111}, {"time": 23756, "pitch": 48, "duration": 158, "velocity": 113}, {"time": 23756, "pitch": 55, "duration": 158, "velocity": 113}, {"time": 23756, "pitch": 60, "duration": 163, "velocity": 119}, {"time": 23996, "pitch": 48, "duration": 210, "velocity": 109}, {"time": 23996, "pitch": 55, "duration": 210, "velocity": 109}, {"time": 23996, "pitch": 60, "duration": 234, "velocity": 107}, {"time": 24235, "pitch": 47, "duration": 235, "velocity": 109}, {"time": 24235, "pitch": 54, "duration": 235, "velocity": 109}, {"time": 24235, "pitch": 59, "duration": 200, "velocity": 103}, {"time": 24475, "pitch": 48, "duration": 186, "velocity": 113}, {"time": 24475, "pitch": 55, "duration": 186, "velocity": 113}, {"time": 24475, "pitch": 60, "duration": 202, "velocity": 107}, {"time": 24715, "pitch": 47, "duration": 276, "velocity": 109}, {"time": 24715, "pitch": 54, "duration": 276, "velocity": 109}, {"time": 24715, "pitch": 59, "duration": 214, "velocity": 109}, {"time": 24955, "pitch": 48, "duration": 278, "velocity": 109}, {"time": 24955, "pitch": 55, "duration": 278, "velocity": 109}, {"time": 24955, "pitch": 60, "duration": 258, "velocity": 103}, {"time": 25195, "pitch": 50, "duration": 279, "velocity": 105}, {"time": 25195, "pitch": 57, "duration": 279, "velocity": 105}, {"time": 25195, "pitch": 62, "duration": 190, "velocity": 101}, {"time": 25435, "pitch": 42, "duration": 166, "velocity": 109}, {"time": 25435, "pitch": 49, "duration": 166, "velocity": 109}, {"time": 25435, "pitch": 54, "duration": 225, "velocity": 97}, {"time": 25675, "pitch": 43, "duration": 180, "velocity": 113}, {"time": 25675, "pitch": 50, "duration": 180, "velocity": 113}, {"time": 25675, "pitch": 55, "duration": 213, "velocity": 113}, {"time": 25914, "pitch": 43, "duration": 159, "velocity": 103}, {"time": 26154, "pitch": 47, "duration": 213, "velocity": 113}, {"time": 26154, "pitch": 54, "duration": 213, "velocity": 113}, {"time": 26154, "pitch": 59, "duration": 213, "velocity": 113}, {"time": 26394, "pitch": 48, "duration": 174, "velocity": 115}, {"time": 26394, "pitch": 55, "duration": 174, "velocity": 115}, {"time": 26394, "pitch": 60, "duration": 192, "velocity": 99}, {"time": 26634, "pitch": 48, "duration": 181, "velocity": 111}, {"time": 26634, "pitch": 55, "duration": 181, "velocity": 111}, {"time": 26634, "pitch": 60, "duration": 257, "velocity": 117}, {"time": 26874, "pitch": 48, "duration": 135, "velocity": 99}, {"time": 27120, "pitch": 48, "duration": 219, "velocity": 109}, {"time": 27120, "pitch": 55, "duration": 219, "velocity": 109}, {"time": 27120, "pitch": 60, "duration": 169, "velocity": 119}, {"time": 27366, "pitch": 42, "duration": 259, "velocity": 107}, {"time": 27366, "pitch": 49, "duration": 259, "velocity": 107}, {"time": 27366, "pitch": 54, "duration": 287, "velocity": 105}, {"time": 27606, "pitch": 43, "duration": 183, "velocity": 99}, {"time": 27606, "pitch": 50, "duration": 183, "velocity": 99}, {"time": 27606, "pitch": 55, "duration": 208, "velocity": 105}, {"time": 27846, "pitch": 43, "duration": 144, "velocity": 93}, {"time": 28086, "pitch": 47, "duration": 199, "velocity": 109}, {"time": 28086, "pitch": 54, "duration": 199, "velocity": 109}, {"time": 28086, "pitch": 59, "duration": 176, "velocity": 111}, {"time": 28325, "pitch": 48, "duration": 175, "velocity": 103}, {"time": 28325, "pitch": 55, "duration": 175, "velocity": 103}, {"time": 28325, "pitch": 60, "duration": 174, "velocity": 105}, {"time": 28565, "pitch": 48, "duration": 170, "velocity": 95}, {"time": 28565, "pitch": 55, "duration": 170, "velocity": 95}, {"time": 28565, "pitch": 60, "duration": 208, "velocity": 109}, {"time": 28805, "pitch": 48, "duration": 124, "velocity": 99}, {"time": 29045, "pitch": 48, "duration": 198, "velocity": 111}, {"time": 29045, "pitch": 55, "duration": 198, "velocity": 111}, {"time": 29045, "pitch": 60, "duration": 156, "velocity": 115}, {"time": 29285, "pitch": 42, "duration": 221, "velocity": 105}, {"time": 29285, "pitch": 49, "duration": 221, "velocity": 105}, {"time": 29285, "pitch": 54, "duration": 246, "velocity": 105}, {"time": 29525, "pitch": 43, "duration": 193, "velocity": 107}, {"time": 29525, "pitch": 50, "duration": 193, "velocity": 107}, {"time": 29525, "pitch": 55, "duration": 193, "velocity": 107}, {"time": 29764, "pitch": 43, "duration": 147, "velocity": 97}, {"time": 30004, "pitch": 47, "duration": 220, "velocity": 107}, {"time": 30004, "pitch": 54, "duration": 220, "velocity": 107}, {"time": 30004, "pitch": 59, "duration": 221, "velocity": 107}, {"time": 30244, "pitch": 48, "duration": 148, "velocity": 111}, {"time": 30244, "pitch": 55, "duration": 148, "velocity": 111}, {"time": 30244, "pitch": 60, "duration": 176, "velocity": 111}, {"time": 30484, "pitch": 48, "duration": 167, "velocity": 107}, {"time": 30484, "pitch": 55, "duration": 167, "velocity": 107}, {"time": 30484, "pitch": 60, "duration": 210, "velocity": 109}, {"time": 30724, "pitch": 48, "duration": 150, "velocity": 113}, {"time": 30964, "pitch": 48, "duration": 191, "velocity": 105}, {"time": 30964, "pitch": 55, "duration": 191, "velocity": 105}, {"time": 30964, "pitch": 60, "duration": 196, "velocity": 119}, {"time": 31203, "pitch": 48, "duration": 139, "velocity": 105}, {"time": 31443, "pitch": 48, "duration": 159, "velocity": 111}, {"time": 31443, "pitch": 55, "duration": 159, "velocity": 111}, {"time": 31443, "pitch": 60, "duration": 185, "velocity": 113}, {"time": 31683, "pitch": 48, "duration": 199, "velocity": 107}, {"time": 31683, "pitch": 55, "duration": 199, "velocity": 107}, {"time": 31683, "pitch": 60, "duration": 219, "velocity": 103}, {"time": 31923, "pitch": 47, "duration": 202, "velocity": 115}, {"time": 31923, "pitch": 54, "duration": 202, "velocity": 115}, {"time": 31923, "pitch": 59, "duration": 205, "velocity": 107}, {"time": 32163, "pitch": 48, "duration": 155, "velocity": 111}, {"time": 32163, "pitch": 55, "duration": 155, "velocity": 111}, {"time": 32163, "pitch": 60, "duration": 194, "velocity": 111}, {"time": 32403, "pitch": 47, "duration": 258, "velocity": 97}, {"time": 32403, "pitch": 54, "duration": 258, "velocity": 97}, {"time": 32403, "pitch": 59, "duration": 216, "velocity": 101}, {"time": 32642, "pitch": 48, "duration": 235, "velocity": 111}, {"time": 32642, "pitch": 55, "duration": 235, "velocity": 111}, {"time": 32642, "pitch": 60, "duration": 223, "velocity": 107}, {"time": 32882, "pitch": 50, "duration": 272, "velocity": 109}, {"time": 32882, "pitch": 57, "duration": 272, "velocity": 109}, {"time": 32882, "pitch": 62, "duration": 286, "velocity": 97}, {"time": 63834, "pitch": 48, "duration": 1882, "velocity": 114}, {"time": 63834, "pitch": 55, "duration": 1865, "velocity": 114}, {"time": 63834, "pitch": 60, "duration": 1864, "velocity": 108}, {"time": 65766, "pitch": 51, "duration": 1810, "velocity": 104}, {"time": 65766, "pitch": 58, "duration": 1756, "velocity": 98}, {"time": 65766, "pitch": 63, "duration": 1757, "velocity": 106}, {"time": 67684, "pitch": 43, "duration": 1819, "velocity": 106}, {"time": 67684, "pitch": 50, "duration": 1802, "velocity": 104}, {"time": 67684, "pitch": 55, "duration": 1804, "velocity": 104}, {"time": 69603, "pitch": 42, "duration": 333, "velocity": 98}, {"time": 69603, "pitch": 49, "duration": 328, "velocity": 100}, {"time": 69603, "pitch": 54, "duration": 288, "velocity": 90}, {"time": 69843, "pitch": 43, "duration": 132, "velocity": 106}, {"time": 69843, "pitch": 50, "duration": 146, "velocity": 94}, {"time": 69843, "pitch": 55, "duration": 147, "velocity": 82}, {"time": 70083, "pitch": 43, "duration": 162, "velocity": 100}, {"time": 70083, "pitch": 50, "duration": 128, "velocity": 98}, {"time": 70083, "pitch": 55, "duration": 169, "velocity": 106}, {"time": 70323, "pitch": 42, "duration": 285, "velocity": 104}, {"time": 70323, "pitch": 49, "duration": 294, "velocity": 98}, {"time": 70323, "pitch": 54, "duration": 234, "velocity": 90}, {"time": 70562, "pitch": 43, "duration": 131, "velocity": 104}, {"time": 70562, "pitch": 50, "duration": 142, "velocity": 94}, {"time": 70562, "pitch": 55, "duration": 161, "velocity": 90}, {"time": 70802, "pitch": 43, "duration": 162, "velocity": 100}, {"time": 70802, "pitch": 50, "duration": 152, "velocity": 92}, {"time": 70802, "pitch": 55, "duration": 177, "velocity": 104}, {"time": 71042, "pitch": 42, "duration": 299, "velocity": 102}, {"time": 71042, "pitch": 49, "duration": 282, "velocity": 98}, {"time": 71042, "pitch": 54, "duration": 244, "velocity": 90}, {"time": 71282, "pitch": 43, "duration": 163, "velocity": 112}, {"time": 71282, "pitch": 50, "duration": 172, "velocity": 94}, {"time": 71282, "pitch": 55, "duration": 188, "velocity": 90}, {"time": 71522, "pitch": 48, "duration": 1860, "velocity": 112}, {"time": 71522, "pitch": 55, "duration": 1826, "velocity": 106}, {"time": 71522, "pitch": 60, "duration": 1839, "velocity": 112}, {"time": 73440, "pitch": 51, "duration": 1814, "velocity": 98}, {"time": 73440, "pitch": 58, "duration": 1813, "velocity": 100}, {"time": 73440, "pitch": 63, "duration": 1781, "velocity": 102}, {"time": 75359, "pitch": 43, "duration": 1819, "velocity": 106}, {"time": 75359, "pitch": 50, "duration": 1802, "velocity": 104}, {"time": 75359, "pitch": 55, "duration": 1804, "velocity": 104}, {"time": 77278, "pitch": 42, "duration": 333, "velocity": 98}, {"time": 77278, "pitch": 49, "duration": 328, "velocity": 100}, {"time": 77278, "pitch": 54, "duration": 288, "velocity": 90}, {"time": 77518, "pitch": 43, "duration": 132, "velocity": 106}, {"time": 77518, "pitch": 50, "duration": 146, "velocity": 94}, {"time": 77518, "pitch": 55, "duration": 147, "velocity": 82}, {"time": 77758, "pitch": 43, "duration": 161, "velocity": 100}, {"time": 77758, "pitch": 50, "duration": 128, "velocity": 98}, {"time": 77758, "pitch": 55, "duration": 168, "velocity": 106}, {"time": 77997, "pitch": 42, "duration": 286, "velocity": 104}, {"time": 77997, "pitch": 49, "duration": 295, "velocity": 98}, {"time": 77997, "pitch": 54, "duration": 235, "velocity": 90}, {"time": 78237, "pitch": 43, "duration": 131, "velocity": 104}, {"time": 78237, "pitch": 50, "duration": 142, "velocity": 94}, {"time": 78237, "pitch": 55, "duration": 161, "velocity": 90}, {"time": 78477, "pitch": 43, "duration": 162, "velocity": 100}, {"time": 78477, "pitch": 50, "duration": 152, "velocity": 92}, {"time": 78477, "pitch": 55, "duration": 177, "velocity": 104}, {"time": 78717, "pitch": 42, "duration": 299, "velocity": 102}, {"time": 78717, "pitch": 49, "duration": 282, "velocity": 98}, {"time": 78717, "pitch": 54, "duration": 244, "velocity": 90}, {"time": 78957, "pitch": 43, "duration": 163, "velocity": 112}, {"time": 78957, "pitch": 50, "duration": 172, "velocity": 94}, {"time": 78957, "pitch": 55, "duration": 188, "velocity": 90}, {"time": 94559, "pitch": 48, "duration": 1869, "velocity": 114}, {"time": 94559, "pitch": 55, "duration": 1852, "velocity": 114}, {"time": 94559, "pitch": 60, "duration": 1851, "velocity": 108}, {"time": 96478, "pitch": 51, "duration": 1810, "velocity": 104}, {"time": 96478, "pitch": 58, "duration": 1757, "velocity": 98}, {"time": 96478, "pitch": 63, "duration": 1758, "velocity": 106}, {"time": 98396, "pitch": 43, "duration": 1819, "velocity": 106}, {"time": 98396, "pitch": 50, "duration": 1802, "velocity": 104}, {"time": 98396, "pitch": 55, "duration": 1804, "velocity": 104}, {"time": 100315, "pitch": 42, "duration": 333, "velocity": 98}, {"time": 100315, "pitch": 49, "duration": 328, "velocity": 100}, {"time": 100315, "pitch": 54, "duration": 288, "velocity": 90}, {"time": 100555, "pitch": 43, "duration": 132, "velocity": 106}, {"time": 100555, "pitch": 50, "duration": 146, "velocity": 94}, {"time": 100555, "pitch": 55, "duration": 147, "velocity": 82}, {"time": 100795, "pitch": 43, "duration": 162, "velocity": 100}, {"time": 100795, "pitch": 50, "duration": 128, "velocity": 98}, {"time": 100795, "pitch": 55, "duration": 169, "velocity": 106}, {"time": 101035, "pitch": 42, "duration": 285, "velocity": 104}, {"time": 101035, "pitch": 49, "duration": 294, "velocity": 98}, {"time": 101035, "pitch": 54, "duration": 235, "velocity": 90}, {"time": 101274, "pitch": 43, "duration": 131, "velocity": 104}, {"time": 101274, "pitch": 50, "duration": 142, "velocity": 94}, {"time": 101274, "pitch": 55, "duration": 161, "velocity": 90}, {"time": 101514, "pitch": 43, "duration": 162, "velocity": 100}, {"time": 101514, "pitch": 50, "duration": 152, "velocity": 92}, {"time": 101514, "pitch": 55, "duration": 177, "velocity": 104}, {"time": 101754, "pitch": 42, "duration": 299, "velocity": 102}, {"time": 101754, "pitch": 49, "duration": 282, "velocity": 98}, {"time": 101754, "pitch": 54, "duration": 244, "velocity": 90}, {"time": 101994, "pitch": 43, "duration": 163, "velocity": 112}, {"time": 101994, "pitch": 50, "duration": 172, "velocity": 94}, {"time": 101994, "pitch": 55, "duration": 188, "velocity": 90}, {"time": 102234, "pitch": 48, "duration": 1872, "velocity": 112}, {"time": 102234, "pitch": 55, "duration": 1838, "velocity": 106}, {"time": 102234, "pitch": 60, "duration": 1851, "velocity": 112}, {"time": 104165, "pitch": 51, "duration": 1814, "velocity": 98}, {"time": 104165, "pitch": 58, "duration": 1813, "velocity": 100}, {"time": 104165, "pitch": 63, "duration": 1781, "velocity": 102}, {"time": 106084, "pitch": 47, "duration": 1832, "velocity": 114}, {"time": 106084, "pitch": 54, "duration": 1832, "velocity": 108}, {"time": 106084, "pitch": 59, "duration": 1799, "velocity": 108}, {"time": 108003, "pitch": 50, "duration": 1924, "velocity": 108}, {"time": 108003, "pitch": 57, "duration": 1928, "velocity": 108}, {"time": 108003, "pitch": 62, "duration": 1941, "velocity": 102}, {"time": 109921, "pitch": 43, "duration": 510, "velocity": 113}, {"time": 109921, "pitch": 50, "duration": 6, "velocity": 111}, {"time": 109921, "pitch": 55, "duration": 583, "velocity": 113}, {"time": 109921, "pitch": 59, "duration": 583, "velocity": 113}, {"time": 109921, "pitch": 62, "duration": 23, "velocity": 113}, {"time": 110641, "pitch": 43, "duration": 188, "velocity": 113}, {"time": 110641, "pitch": 50, "duration": 252, "velocity": 113}, {"time": 110641, "pitch": 55, "duration": 272, "velocity": 106}, {"time": 110641, "pitch": 59, "duration": 234, "velocity": 113}, {"time": 110641, "pitch": 62, "duration": 249, "velocity": 111}, {"time": 111121, "pitch": 43, "duration": 166, "velocity": 113}, {"time": 111121, "pitch": 50, "duration": 162, "velocity": 113}, {"time": 111121, "pitch": 55, "duration": 250, "velocity": 111}, {"time": 111121, "pitch": 59, "duration": 206, "velocity": 113}, {"time": 111121, "pitch": 62, "duration": 203, "velocity": 113}, {"time": 111600, "pitch": 43, "duration": 123, "velocity": 113}, {"time": 111600, "pitch": 50, "duration": 153, "velocity": 111}, {"time": 111600, "pitch": 55, "duration": 236, "velocity": 94}, {"time": 111600, "pitch": 59, "duration": 209, "velocity": 113}, {"time": 111600, "pitch": 62, "duration": 212, "velocity": 113}, {"time": 111840, "pitch": 45, "duration": 503, "velocity": 112}, {"time": 111840, "pitch": 52, "duration": 477, "velocity": 113}, {"time": 111840, "pitch": 57, "duration": 575, "velocity": 113}, {"time": 111840, "pitch": 60, "duration": 566, "velocity": 113}, {"time": 111840, "pitch": 64, "duration": 581, "velocity": 111}, {"time": 112560, "pitch": 45, "duration": 206, "velocity": 113}, {"time": 112560, "pitch": 52, "duration": 215, "velocity": 113}, {"time": 112560, "pitch": 57, "duration": 313, "velocity": 99}, {"time": 112560, "pitch": 60, "duration": 308, "velocity": 113}, {"time": 112560, "pitch": 64, "duration": 311, "velocity": 111}, {"time": 113039, "pitch": 45, "duration": 177, "velocity": 113}, {"time": 113039, "pitch": 52, "duration": 189, "velocity": 113}, {"time": 113039, "pitch": 57, "duration": 269, "velocity": 102}, {"time": 113039, "pitch": 60, "duration": 236, "velocity": 111}, {"time": 113039, "pitch": 64, "duration": 247, "velocity": 94}, {"time": 113519, "pitch": 45, "duration": 131, "velocity": 113}, {"time": 113519, "pitch": 52, "duration": 169, "velocity": 113}, {"time": 113519, "pitch": 57, "duration": 238, "velocity": 102}, {"time": 113519, "pitch": 60, "duration": 217, "velocity": 113}, {"time": 113519, "pitch": 64, "duration": 230, "velocity": 111}, {"time": 113759, "pitch": 48, "duration": 551, "velocity": 113}, {"time": 113759, "pitch": 55, "duration": 528, "velocity": 106}, {"time": 113759, "pitch": 59, "duration": 515, "velocity": 113}, {"time": 113759, "pitch": 64, "duration": 518, "velocity": 113}, {"time": 114478, "pitch": 48, "duration": 317, "velocity": 113}, {"time": 114478, "pitch": 55, "duration": 266, "velocity": 108}, {"time": 114478, "pitch": 59, "duration": 266, "velocity": 113}, {"time": 114478, "pitch": 64, "duration": 271, "velocity": 102}, {"time": 114958, "pitch": 48, "duration": 227, "velocity": 113}, {"time": 114958, "pitch": 55, "duration": 214, "velocity": 98}, {"time": 114958, "pitch": 59, "duration": 212, "velocity": 113}, {"time": 114958, "pitch": 64, "duration": 212, "velocity": 101}, {"time": 115438, "pitch": 48, "duration": 118, "velocity": 113}, {"time": 115438, "pitch": 55, "duration": 250, "velocity": 99}, {"time": 115438, "pitch": 59, "duration": 238, "velocity": 113}, {"time": 115438, "pitch": 64, "duration": 254, "velocity": 111}, {"time": 115678, "pitch": 50, "duration": 559, "velocity": 113}, {"time": 115678, "pitch": 57, "duration": 530, "velocity": 113}, {"time": 115678, "pitch": 62, "duration": 571, "velocity": 111}, {"time": 115678, "pitch": 66, "duration": 555, "velocity": 113}, {"time": 115678, "pitch": 69, "duration": 571, "velocity": 85}, {"time": 116397, "pitch": 50, "duration": 284, "velocity": 113}, {"time": 116397, "pitch": 57, "duration": 285, "velocity": 113}, {"time": 116397, "pitch": 62, "duration": 335, "velocity": 111}, {"time": 116397, "pitch": 66, "duration": 299, "velocity": 113}, {"time": 116397, "pitch": 69, "duration": 332, "velocity": 77}, {"time": 116877, "pitch": 50, "duration": 194, "velocity": 113}, {"time": 116877, "pitch": 57, "duration": 203, "velocity": 113}, {"time": 116877, "pitch": 62, "duration": 316, "velocity": 94}, {"time": 116877, "pitch": 66, "duration": 278, "velocity": 113}, {"time": 116877, "pitch": 69, "duration": 290, "velocity": 78}, {"time": 117356, "pitch": 50, "duration": 127, "velocity": 113}, {"time": 117356, "pitch": 57, "duration": 153, "velocity": 113}, {"time": 117356, "pitch": 62, "duration": 208, "velocity": 108}, {"time": 117356, "pitch": 66, "duration": 180, "velocity": 113}, {"time": 117356, "pitch": 69, "duration": 192, "velocity": 80}, {"time": 117596, "pitch": 43, "duration": 510, "velocity": 113}, {"time": 117596, "pitch": 50, "duration": 449, "velocity": 111}, {"time": 117596, "pitch": 55, "duration": 583, "velocity": 113}, {"time": 117596, "pitch": 59, "duration": 583, "velocity": 113}, {"time": 117596, "pitch": 62, "duration": 581, "velocity": 113}, {"time": 118316, "pitch": 43, "duration": 188, "velocity": 113}, {"time": 118316, "pitch": 50, "duration": 252, "velocity": 113}, {"time": 118316, "pitch": 55, "duration": 272, "velocity": 106}, {"time": 118316, "pitch": 59, "duration": 234, "velocity": 113}, {"time": 118316, "pitch": 62, "duration": 249, "velocity": 111}, {"time": 118795, "pitch": 43, "duration": 167, "velocity": 113}, {"time": 118795, "pitch": 50, "duration": 163, "velocity": 113}, {"time": 118795, "pitch": 55, "duration": 251, "velocity": 111}, {"time": 118795, "pitch": 59, "duration": 207, "velocity": 113}, {"time": 118795, "pitch": 62, "duration": 204, "velocity": 113}, {"time": 119275, "pitch": 43, "duration": 123, "velocity": 113}, {"time": 119275, "pitch": 50, "duration": 153, "velocity": 111}, {"time": 119275, "pitch": 55, "duration": 236, "velocity": 94}, {"time": 119275, "pitch": 59, "duration": 209, "velocity": 113}, {"time": 119275, "pitch": 62, "duration": 212, "velocity": 113}, {"time": 119515, "pitch": 45, "duration": 503, "velocity": 112}, {"time": 119515, "pitch": 52, "duration": 477, "velocity": 113}, {"time": 119515, "pitch": 57, "duration": 575, "velocity": 113}, {"time": 119515, "pitch": 60, "duration": 566, "velocity": 113}, {"time": 119515, "pitch": 64, "duration": 581, "velocity": 111}, {"time": 120234, "pitch": 45, "duration": 207, "velocity": 113}, {"time": 120234, "pitch": 52, "duration": 216, "velocity": 113}, {"time": 120234, "pitch": 57, "duration": 314, "velocity": 99}, {"time": 120234, "pitch": 60, "duration": 309, "velocity": 113}, {"time": 120234, "pitch": 64, "duration": 312, "velocity": 111}, {"time": 120714, "pitch": 45, "duration": 177, "velocity": 113}, {"time": 120714, "pitch": 52, "duration": 189, "velocity": 113}, {"time": 120714, "pitch": 57, "duration": 270, "velocity": 102}, {"time": 120714, "pitch": 60, "duration": 236, "velocity": 111}, {"time": 120714, "pitch": 64, "duration": 247, "velocity": 94}, {"time": 121200, "pitch": 45, "duration": 135, "velocity": 113}, {"time": 121200, "pitch": 52, "duration": 174, "velocity": 113}, {"time": 121200, "pitch": 57, "duration": 244, "velocity": 102}, {"time": 121200, "pitch": 60, "duration": 223, "velocity": 113}, {"time": 121200, "pitch": 64, "duration": 236, "velocity": 111}, {"time": 121446, "pitch": 48, "duration": 552, "velocity": 113}, {"time": 121446, "pitch": 55, "duration": 529, "velocity": 106}, {"time": 121446, "pitch": 59, "duration": 516, "velocity": 113}, {"time": 121446, "pitch": 64, "duration": 519, "velocity": 113}, {"time": 122166, "pitch": 48, "duration": 317, "velocity": 113}, {"time": 122166, "pitch": 55, "duration": 266, "velocity": 108}, {"time": 122166, "pitch": 59, "duration": 266, "velocity": 113}, {"time": 122166, "pitch": 64, "duration": 271, "velocity": 102}, {"time": 122645, "pitch": 48, "duration": 227, "velocity": 113}, {"time": 122645, "pitch": 55, "duration": 214, "velocity": 98}, {"time": 122645, "pitch": 59, "duration": 212, "velocity": 113}, {"time": 122645, "pitch": 64, "duration": 212, "velocity": 101}, {"time": 123125, "pitch": 48, "duration": 118, "velocity": 113}, {"time": 123125, "pitch": 55, "duration": 251, "velocity": 99}, {"time": 123125, "pitch": 59, "duration": 238, "velocity": 113}, {"time": 123125, "pitch": 64, "duration": 255, "velocity": 111}, {"time": 123365, "pitch": 50, "duration": 560, "velocity": 113}, {"time": 123365, "pitch": 57, "duration": 531, "velocity": 113}, {"time": 123365, "pitch": 62, "duration": 572, "velocity": 111}, {"time": 123365, "pitch": 66, "duration": 556, "velocity": 113}, {"time": 123365, "pitch": 69, "duration": 572, "velocity": 85}, {"time": 124085, "pitch": 50, "duration": 283, "velocity": 113}, {"time": 124085, "pitch": 57, "duration": 284, "velocity": 113}, {"time": 124085, "pitch": 62, "duration": 334, "velocity": 111}, {"time": 124085, "pitch": 66, "duration": 298, "velocity": 113}, {"time": 124085, "pitch": 69, "duration": 331, "velocity": 77}, {"time": 124564, "pitch": 50, "duration": 194, "velocity": 113}, {"time": 124564, "pitch": 57, "duration": 203, "velocity": 113}, {"time": 124564, "pitch": 62, "duration": 317, "velocity": 94}, {"time": 124564, "pitch": 66, "duration": 278, "velocity": 113}, {"time": 124564, "pitch": 69, "duration": 290, "velocity": 78}, {"time": 125044, "pitch": 50, "duration": 127, "velocity": 113}, {"time": 125044, "pitch": 57, "duration": 153, "velocity": 113}, {"time": 125044, "pitch": 62, "duration": 208, "velocity": 108}, {"time": 125044, "pitch": 66, "duration": 180, "velocity": 113}, {"time": 125044, "pitch": 69, "duration": 192, "velocity": 80}, {"time": 125284, "pitch": 43, "duration": 509, "velocity": 113}, {"time": 125284, "pitch": 50, "duration": 448, "velocity": 111}, {"time": 125284, "pitch": 55, "duration": 582, "velocity": 113}, {"time": 125284, "pitch": 59, "duration": 582, "velocity": 113}, {"time": 125284, "pitch": 62, "duration": 580, "velocity": 113}, {"time": 126003, "pitch": 43, "duration": 188, "velocity": 113}, {"time": 126003, "pitch": 50, "duration": 252, "velocity": 113}, {"time": 126003, "pitch": 55, "duration": 272, "velocity": 106}, {"time": 126003, "pitch": 59, "duration": 234, "velocity": 113}, {"time": 126003, "pitch": 62, "duration": 249, "velocity": 111}, {"time": 126483, "pitch": 43, "duration": 167, "velocity": 113}, {"time": 126483, "pitch": 50, "duration": 163, "velocity": 113}, {"time": 126483, "pitch": 55, "duration": 251, "velocity": 111}, {"time": 126483, "pitch": 59, "duration": 207, "velocity": 113}, {"time": 126483, "pitch": 62, "duration": 204, "velocity": 113}, {"time": 126963, "pitch": 43, "duration": 123, "velocity": 113}, {"time": 126963, "pitch": 50, "duration": 152, "velocity": 111}, {"time": 126963, "pitch": 55, "duration": 235, "velocity": 94}, {"time": 126963, "pitch": 59, "duration": 208, "velocity": 113}, {"time": 126963, "pitch": 62, "duration": 211, "velocity": 113}, {"time": 127202, "pitch": 45, "duration": 503, "velocity": 112}, {"time": 127202, "pitch": 52, "duration": 477, "velocity": 113}, {"time": 127202, "pitch": 57, "duration": 575, "velocity": 113}, {"time": 127202, "pitch": 60, "duration": 566, "velocity": 113}, {"time": 127202, "pitch": 64, "duration": 581, "velocity": 111}, {"time": 127922, "pitch": 45, "duration": 207, "velocity": 113}, {"time": 127922, "pitch": 52, "duration": 216, "velocity": 113}, {"time": 127922, "pitch": 57, "duration": 314, "velocity": 99}, {"time": 127922, "pitch": 60, "duration": 309, "velocity": 113}, {"time": 127922, "pitch": 64, "duration": 312, "velocity": 111}, {"time": 128402, "pitch": 45, "duration": 177, "velocity": 113}, {"time": 128402, "pitch": 52, "duration": 189, "velocity": 113}, {"time": 128402, "pitch": 57, "duration": 268, "velocity": 102}, {"time": 128402, "pitch": 60, "duration": 235, "velocity": 111}, {"time": 128402, "pitch": 64, "duration": 246, "velocity": 94}, {"time": 128881, "pitch": 45, "duration": 131, "velocity": 113}, {"time": 128881, "pitch": 52, "duration": 169, "velocity": 113}, {"time": 128881, "pitch": 57, "duration": 238, "velocity": 102}, {"time": 128881, "pitch": 60, "duration": 217, "velocity": 113}, {"time": 128881, "pitch": 64, "duration": 230, "velocity": 111}, {"time": 129121, "pitch": 48, "duration": 552, "velocity": 113}, {"time": 129121, "pitch": 55, "duration": 529, "velocity": 106}, {"time": 129121, "pitch": 59, "duration": 516, "velocity": 113}, {"time": 129121, "pitch": 64, "duration": 519, "velocity": 113}, {"time": 129841, "pitch": 48, "duration": 316, "velocity": 113}, {"time": 129841, "pitch": 55, "duration": 265, "velocity": 108}, {"time": 129841, "pitch": 59, "duration": 265, "velocity": 113}, {"time": 129841, "pitch": 64, "duration": 270, "velocity": 102}, {"time": 130320, "pitch": 48, "duration": 227, "velocity": 113}, {"time": 130320, "pitch": 55, "duration": 214, "velocity": 98}, {"time": 130320, "pitch": 59, "duration": 212, "velocity": 113}, {"time": 130320, "pitch": 64, "duration": 212, "velocity": 101}, {"time": 130800, "pitch": 48, "duration": 118, "velocity": 113}, {"time": 130800, "pitch": 55, "duration": 251, "velocity": 99}, {"time": 130800, "pitch": 59, "duration": 238, "velocity": 113}, {"time": 130800, "pitch": 64, "duration": 255, "velocity": 111}, {"time": 131040, "pitch": 50, "duration": 559, "velocity": 113}, {"time": 131040, "pitch": 57, "duration": 531, "velocity": 113}, {"time": 131040, "pitch": 62, "duration": 571, "velocity": 111}, {"time": 131040, "pitch": 66, "duration": 555, "velocity": 113}, {"time": 131040, "pitch": 69, "duration": 571, "velocity": 85}, {"time": 131759, "pitch": 50, "duration": 284, "velocity": 113}, {"time": 131759, "pitch": 57, "duration": 285, "velocity": 113}, {"time": 131759, "pitch": 62, "duration": 335, "velocity": 111}, {"time": 131759, "pitch": 66, "duration": 299, "velocity": 113}, {"time": 131759, "pitch": 69, "duration": 332, "velocity": 77}, {"time": 132239, "pitch": 50, "duration": 194, "velocity": 113}, {"time": 132239, "pitch": 57, "duration": 203, "velocity": 113}, {"time": 132239, "pitch": 62, "duration": 317, "velocity": 94}, {"time": 132239, "pitch": 66, "duration": 278, "velocity": 113}, {"time": 132239, "pitch": 69, "duration": 290, "velocity": 78}, {"time": 132719, "pitch": 50, "duration": 127, "velocity": 113}, {"time": 132719, "pitch": 57, "duration": 153, "velocity": 113}, {"time": 132719, "pitch": 62, "duration": 208, "velocity": 108}, {"time": 132719, "pitch": 66, "duration": 180, "velocity": 113}, {"time": 132719, "pitch": 69, "duration": 192, "velocity": 80}, {"time": 132959, "pitch": 43, "duration": 509, "velocity": 113}, {"time": 132959, "pitch": 50, "duration": 448, "velocity": 111}, {"time": 132959, "pitch": 55, "duration": 582, "velocity": 113}, {"time": 132959, "pitch": 59, "duration": 582, "velocity": 113}, {"time": 132959, "pitch": 62, "duration": 580, "velocity": 113}, {"time": 133678, "pitch": 43, "duration": 188, "velocity": 113}, {"time": 133678, "pitch": 50, "duration": 252, "velocity": 113}, {"time": 133678, "pitch": 55, "duration": 272, "velocity": 106}, {"time": 133678, "pitch": 59, "duration": 234, "velocity": 113}, {"time": 133678, "pitch": 62, "duration": 249, "velocity": 111}, {"time": 134158, "pitch": 43, "duration": 167, "velocity": 113}, {"time": 134158, "pitch": 50, "duration": 163, "velocity": 113}, {"time": 134158, "pitch": 55, "duration": 251, "velocity": 111}, {"time": 134158, "pitch": 59, "duration": 207, "velocity": 113}, {"time": 134158, "pitch": 62, "duration": 204, "velocity": 113}, {"time": 134637, "pitch": 43, "duration": 123, "velocity": 113}, {"time": 134637, "pitch": 50, "duration": 153, "velocity": 111}, {"time": 134637, "pitch": 55, "duration": 236, "velocity": 94}, {"time": 134637, "pitch": 59, "duration": 209, "velocity": 113}, {"time": 134637, "pitch": 62, "duration": 212, "velocity": 113}, {"time": 134877, "pitch": 45, "duration": 503, "velocity": 112}, {"time": 134877, "pitch": 52, "duration": 477, "velocity": 113}, {"time": 134877, "pitch": 57, "duration": 575, "velocity": 113}, {"time": 134877, "pitch": 60, "duration": 566, "velocity": 113}, {"time": 134877, "pitch": 64, "duration": 581, "velocity": 111}, {"time": 135597, "pitch": 45, "duration": 207, "velocity": 113}, {"time": 135597, "pitch": 52, "duration": 216, "velocity": 113}, {"time": 135597, "pitch": 57, "duration": 314, "velocity": 99}, {"time": 135597, "pitch": 60, "duration": 309, "velocity": 113}, {"time": 135597, "pitch": 64, "duration": 312, "velocity": 111}, {"time": 136076, "pitch": 45, "duration": 177, "velocity": 113}, {"time": 136076, "pitch": 52, "duration": 189, "velocity": 113}, {"time": 136076, "pitch": 57, "duration": 269, "velocity": 102}, {"time": 136076, "pitch": 60, "duration": 236, "velocity": 111}, {"time": 136076, "pitch": 64, "duration": 247, "velocity": 94}, {"time": 136556, "pitch": 45, "duration": 131, "velocity": 113}, {"time": 136556, "pitch": 52, "duration": 169, "velocity": 113}, {"time": 136556, "pitch": 57, "duration": 238, "velocity": 102}, {"time": 136556, "pitch": 60, "duration": 217, "velocity": 113}, {"time": 136556, "pitch": 64, "duration": 230, "velocity": 111}, {"time": 136796, "pitch": 48, "duration": 552, "velocity": 113}, {"time": 136796, "pitch": 55, "duration": 529, "velocity": 106}, {"time": 136796, "pitch": 59, "duration": 516, "velocity": 113}, {"time": 136796, "pitch": 64, "duration": 519, "velocity": 113}, {"time": 137516, "pitch": 48, "duration": 316, "velocity": 113}, {"time": 137516, "pitch": 55, "duration": 265, "velocity": 108}, {"time": 137516, "pitch": 59, "duration": 265, "velocity": 113}, {"time": 137516, "pitch": 64, "duration": 270, "velocity": 102}, {"time": 137995, "pitch": 48, "duration": 227, "velocity": 113}, {"time": 137995, "pitch": 55, "duration": 214, "velocity": 98}, {"time": 137995, "pitch": 59, "duration": 212, "velocity": 113}, {"time": 137995, "pitch": 64, "duration": 212, "velocity": 101}, {"time": 138475, "pitch": 48, "duration": 118, "velocity": 113}, {"time": 138475, "pitch": 55, "duration": 251, "velocity": 99}, {"time": 138475, "pitch": 59, "duration": 238, "velocity": 113}, {"time": 138475, "pitch": 64, "duration": 255, "velocity": 111}, {"time": 138715, "pitch": 50, "duration": 224, "velocity": 113}, {"time": 138715, "pitch": 57, "duration": 195, "velocity": 113}, {"time": 138715, "pitch": 62, "duration": 211, "velocity": 111}, {"time": 138715, "pitch": 66, "duration": 220, "velocity": 113}, {"time": 138715, "pitch": 69, "duration": 198, "velocity": 85}, {"time": 138955, "pitch": 50, "duration": 220, "velocity": 113}, {"time": 138955, "pitch": 57, "duration": 207, "velocity": 113}, {"time": 138955, "pitch": 62, "duration": 226, "velocity": 111}, {"time": 138955, "pitch": 66, "duration": 181, "velocity": 113}, {"time": 138955, "pitch": 69, "duration": 201, "velocity": 77}, {"time": 140646, "pitch": 42, "duration": 339, "velocity": 99}, {"time": 140646, "pitch": 49, "duration": 339, "velocity": 99}, {"time": 140646, "pitch": 54, "duration": 290, "velocity": 109}, {"time": 140886, "pitch": 43, "duration": 179, "velocity": 113}, {"time": 140886, "pitch": 50, "duration": 179, "velocity": 113}, {"time": 140886, "pitch": 55, "duration": 194, "velocity": 105}, {"time": 141126, "pitch": 43, "duration": 173, "velocity": 101}, {"time": 141366, "pitch": 47, "duration": 212, "velocity": 113}, {"time": 141366, "pitch": 54, "duration": 212, "velocity": 113}, {"time": 141366, "pitch": 59, "duration": 219, "velocity": 107}, {"time": 141605, "pitch": 48, "duration": 178, "velocity": 115}, {"time": 141605, "pitch": 55, "duration": 178, "velocity": 115}, {"time": 141605, "pitch": 60, "duration": 200, "velocity": 99}, {"time": 141845, "pitch": 48, "duration": 163, "velocity": 111}, {"time": 141845, "pitch": 55, "duration": 163, "velocity": 111}, {"time": 141845, "pitch": 60, "duration": 206, "velocity": 105}, {"time": 142085, "pitch": 48, "duration": 152, "velocity": 105}, {"time": 142325, "pitch": 48, "duration": 184, "velocity": 109}, {"time": 142325, "pitch": 55, "duration": 184, "velocity": 109}, {"time": 142325, "pitch": 60, "duration": 186, "velocity": 107}, {"time": 142565, "pitch": 42, "duration": 239, "velocity": 103}, {"time": 142565, "pitch": 49, "duration": 239, "velocity": 103}, {"time": 142565, "pitch": 54, "duration": 267, "velocity": 103}, {"time": 142805, "pitch": 43, "duration": 178, "velocity": 99}, {"time": 142805, "pitch": 50, "duration": 178, "velocity": 99}, {"time": 142805, "pitch": 55, "duration": 225, "velocity": 109}, {"time": 143044, "pitch": 43, "duration": 160, "velocity": 105}, {"time": 143284, "pitch": 47, "duration": 180, "velocity": 115}, {"time": 143284, "pitch": 54, "duration": 180, "velocity": 115}, {"time": 143284, "pitch": 59, "duration": 180, "velocity": 109}, {"time": 143524, "pitch": 48, "duration": 178, "velocity": 113}, {"time": 143524, "pitch": 55, "duration": 178, "velocity": 113}, {"time": 143524, "pitch": 60, "duration": 197, "velocity": 103}, {"time": 143764, "pitch": 48, "duration": 177, "velocity": 107}, {"time": 143764, "pitch": 55, "duration": 177, "velocity": 107}, {"time": 143764, "pitch": 60, "duration": 215, "velocity": 105}, {"time": 144004, "pitch": 48, "duration": 153, "velocity": 113}, {"time": 144244, "pitch": 48, "duration": 178, "velocity": 109}, {"time": 144244, "pitch": 55, "duration": 178, "velocity": 109}, {"time": 144244, "pitch": 60, "duration": 178, "velocity": 111}, {"time": 144484, "pitch": 42, "duration": 184, "velocity": 89}, {"time": 144484, "pitch": 49, "duration": 184, "velocity": 89}, {"time": 144484, "pitch": 54, "duration": 262, "velocity": 107}, {"time": 144723, "pitch": 43, "duration": 174, "velocity": 111}, {"time": 144723, "pitch": 50, "duration": 174, "velocity": 111}, {"time": 144723, "pitch": 55, "duration": 215, "velocity": 93}, {"time": 144963, "pitch": 43, "duration": 156, "velocity": 101}, {"time": 145203, "pitch": 47, "duration": 185, "velocity": 119}, {"time": 145203, "pitch": 54, "duration": 185, "velocity": 119}, {"time": 145203, "pitch": 59, "duration": 191, "velocity": 111}, {"time": 145443, "pitch": 48, "duration": 154, "velocity": 117}, {"time": 145443, "pitch": 55, "duration": 154, "velocity": 117}, {"time": 145443, "pitch": 60, "duration": 182, "velocity": 105}, {"time": 145683, "pitch": 48, "duration": 175, "velocity": 111}, {"time": 145683, "pitch": 55, "duration": 175, "velocity": 111}, {"time": 145683, "pitch": 60, "duration": 212, "velocity": 107}, {"time": 145923, "pitch": 48, "duration": 152, "velocity": 109}, {"time": 146162, "pitch": 48, "duration": 154, "velocity": 109}, {"time": 146162, "pitch": 55, "duration": 154, "velocity": 109}, {"time": 146162, "pitch": 60, "duration": 232, "velocity": 115}, {"time": 146402, "pitch": 48, "duration": 148, "velocity": 111}, {"time": 146642, "pitch": 48, "duration": 158, "velocity": 113}, {"time": 146642, "pitch": 55, "duration": 158, "velocity": 113}, {"time": 146642, "pitch": 60, "duration": 163, "velocity": 119}, {"time": 146882, "pitch": 48, "duration": 211, "velocity": 109}, {"time": 146882, "pitch": 55, "duration": 211, "velocity": 109}, {"time": 146882, "pitch": 60, "duration": 235, "velocity": 107}, {"time": 147122, "pitch": 47, "duration": 235, "velocity": 109}, {"time": 147122, "pitch": 54, "duration": 235, "velocity": 109}, {"time": 147122, "pitch": 59, "duration": 200, "velocity": 103}, {"time": 147362, "pitch": 48, "duration": 185, "velocity": 113}, {"time": 147362, "pitch": 55, "duration": 185, "velocity": 113}, {"time": 147362, "pitch": 60, "duration": 201, "velocity": 107}, {"time": 147601, "pitch": 47, "duration": 276, "velocity": 109}, {"time": 147601, "pitch": 54, "duration": 276, "velocity": 109}, {"time": 147601, "pitch": 59, "duration": 214, "velocity": 109}, {"time": 147841, "pitch": 48, "duration": 278, "velocity": 109}, {"time": 147841, "pitch": 55, "duration": 278, "velocity": 109}, {"time": 147841, "pitch": 60, "duration": 258, "velocity": 103}, {"time": 148081, "pitch": 50, "duration": 279, "velocity": 105}, {"time": 148081, "pitch": 57, "duration": 279, "velocity": 105}, {"time": 148081, "pitch": 62, "duration": 190, "velocity": 101}, {"time": 148321, "pitch": 42, "duration": 166, "velocity": 109}, {"time": 148321, "pitch": 49, "duration": 166, "velocity": 109}, {"time": 148321, "pitch": 54, "duration": 225, "velocity": 97}, {"time": 148561, "pitch": 43, "duration": 181, "velocity": 113}, {"time": 148561, "pitch": 50, "duration": 181, "velocity": 113}, {"time": 148561, "pitch": 55, "duration": 214, "velocity": 113}, {"time": 148801, "pitch": 43, "duration": 159, "velocity": 103}, {"time": 149040, "pitch": 47, "duration": 213, "velocity": 113}, {"time": 149040, "pitch": 54, "duration": 213, "velocity": 113}, {"time": 149040, "pitch": 59, "duration": 213, "velocity": 113}, {"time": 149280, "pitch": 48, "duration": 174, "velocity": 115}, {"time": 149280, "pitch": 55, "duration": 174, "velocity": 115}, {"time": 149280, "pitch": 60, "duration": 192, "velocity": 99}, {"time": 149520, "pitch": 48, "duration": 181, "velocity": 111}, {"time": 149520, "pitch": 55, "duration": 181, "velocity": 111}, {"time": 149520, "pitch": 60, "duration": 257, "velocity": 117}, {"time": 149760, "pitch": 48, "duration": 132, "velocity": 99}, {"time": 150000, "pitch": 48, "duration": 214, "velocity": 109}, {"time": 150000, "pitch": 55, "duration": 214, "velocity": 109}, {"time": 150000, "pitch": 60, "duration": 165, "velocity": 119}, {"time": 150240, "pitch": 42, "duration": 258, "velocity": 107}, {"time": 150240, "pitch": 49, "duration": 258, "velocity": 107}, {"time": 150240, "pitch": 54, "duration": 286, "velocity": 105}, {"time": 150480, "pitch": 43, "duration": 182, "velocity": 99}, {"time": 150480, "pitch": 50, "duration": 182, "velocity": 99}, {"time": 150480, "pitch": 55, "duration": 207, "velocity": 105}, {"time": 150719, "pitch": 43, "duration": 144, "velocity": 93}, {"time": 150959, "pitch": 47, "duration": 200, "velocity": 109}, {"time": 150959, "pitch": 54, "duration": 200, "velocity": 109}, {"time": 150959, "pitch": 59, "duration": 177, "velocity": 111}, {"time": 151199, "pitch": 48, "duration": 175, "velocity": 103}, {"time": 151199, "pitch": 55, "duration": 175, "velocity": 103}, {"time": 151199, "pitch": 60, "duration": 174, "velocity": 105}, {"time": 151439, "pitch": 48, "duration": 170, "velocity": 95}, {"time": 151439, "pitch": 55, "duration": 170, "velocity": 95}, {"time": 151439, "pitch": 60, "duration": 208, "velocity": 109}, {"time": 151679, "pitch": 48, "duration": 124, "velocity": 99}, {"time": 151919, "pitch": 48, "duration": 197, "velocity": 111}, {"time": 151919, "pitch": 55, "duration": 197, "velocity": 111}, {"time": 151919, "pitch": 60, "duration": 155, "velocity": 115}, {"time": 152158, "pitch": 42, "duration": 221, "velocity": 105}, {"time": 152158, "pitch": 49, "duration": 221, "velocity": 105}, {"time": 152158, "pitch": 54, "duration": 246, "velocity": 105}, {"time": 152398, "pitch": 43, "duration": 194, "velocity": 107}, {"time": 152398, "pitch": 50, "duration": 194, "velocity": 107}, {"time": 152398, "pitch": 55, "duration": 194, "velocity": 107}, {"time": 152638, "pitch": 43, "duration": 147, "velocity": 97}, {"time": 152878, "pitch": 47, "duration": 220, "velocity": 107}, {"time": 152878, "pitch": 54, "duration": 220, "velocity": 107}, {"time": 152878, "pitch": 59, "duration": 221, "velocity": 107}, {"time": 153118, "pitch": 48, "duration": 148, "velocity": 111}, {"time": 153118, "pitch": 55, "duration": 148, "velocity": 111}, {"time": 153118, "pitch": 60, "duration": 176, "velocity": 111}, {"time": 153358, "pitch": 48, "duration": 166, "velocity": 107}, {"time": 153358, "pitch": 55, "duration": 166, "velocity": 107}, {"time": 153358, "pitch": 60, "duration": 209, "velocity": 109}, {"time": 153597, "pitch": 48, "duration": 150, "velocity": 113}, {"time": 153837, "pitch": 48, "duration": 192, "velocity": 105}, {"time": 153837, "pitch": 55, "duration": 192, "velocity": 105}, {"time": 153837, "pitch": 60, "duration": 197, "velocity": 119}, {"time": 154077, "pitch": 48, "duration": 139, "velocity": 105}, {"time": 154317, "pitch": 48, "duration": 159, "velocity": 111}, {"time": 154317, "pitch": 55, "duration": 159, "velocity": 111}, {"time": 154317, "pitch": 60, "duration": 185, "velocity": 113}, {"time": 154557, "pitch": 48, "duration": 199, "velocity": 107}, {"time": 154557, "pitch": 55, "duration": 199, "velocity": 107}, {"time": 154557, "pitch": 60, "duration": 219, "velocity": 103}, {"time": 154797, "pitch": 47, "duration": 201, "velocity": 115}, {"time": 154797, "pitch": 54, "duration": 201, "velocity": 115}, {"time": 154797, "pitch": 59, "duration": 204, "velocity": 107}, {"time": 155036, "pitch": 48, "duration": 155, "velocity": 111}, {"time": 155036, "pitch": 55, "duration": 155, "velocity": 111}, {"time": 155036, "pitch": 60, "duration": 194, "velocity": 111}, {"time": 155276, "pitch": 47, "duration": 259, "velocity": 97}, {"time": 155276, "pitch": 54, "duration": 259, "velocity": 97}, {"time": 155276, "pitch": 59, "duration": 217, "velocity": 101}, {"time": 155516, "pitch": 48, "duration": 235, "velocity": 111}, {"time": 155516, "pitch": 55, "duration": 235, "velocity": 111}, {"time": 155516, "pitch": 60, "duration": 223, "velocity": 107}, {"time": 155756, "pitch": 50, "duration": 272, "velocity": 109}, {"time": 155756, "pitch": 57, "duration": 272, "velocity": 109}, {"time": 155756, "pitch": 62, "duration": 286, "velocity": 97}, {"time": 186721, "pitch": 48, "duration": 1868, "velocity": 114}, {"time": 186721, "pitch": 55, "duration": 1851, "velocity": 114}, {"time": 186721, "pitch": 60, "duration": 1850, "velocity": 108}, {"time": 188639, "pitch": 51, "duration": 1811, "velocity": 104}, {"time": 188639, "pitch": 58, "duration": 1757, "velocity": 98}, {"time": 188639, "pitch": 63, "duration": 1758, "velocity": 106}, {"time": 190558, "pitch": 43, "duration": 1819, "velocity": 106}, {"time": 190558, "pitch": 50, "duration": 1802, "velocity": 104}, {"time": 190558, "pitch": 55, "duration": 1804, "velocity": 104}, {"time": 192477, "pitch": 42, "duration": 332, "velocity": 98}, {"time": 192477, "pitch": 49, "duration": 327, "velocity": 100}, {"time": 192477, "pitch": 54, "duration": 288, "velocity": 90}, {"time": 192717, "pitch": 43, "duration": 131, "velocity": 106}, {"time": 192717, "pitch": 50, "duration": 145, "velocity": 94}, {"time": 192717, "pitch": 55, "duration": 146, "velocity": 82}, {"time": 192956, "pitch": 43, "duration": 162, "velocity": 100}, {"time": 192956, "pitch": 50, "duration": 128, "velocity": 98}, {"time": 192956, "pitch": 55, "duration": 169, "velocity": 106}, {"time": 193196, "pitch": 42, "duration": 286, "velocity": 104}, {"time": 193196, "pitch": 49, "duration": 295, "velocity": 98}, {"time": 193196, "pitch": 54, "duration": 235, "velocity": 90}, {"time": 193436, "pitch": 43, "duration": 131, "velocity": 104}, {"time": 193436, "pitch": 50, "duration": 142, "velocity": 94}, {"time": 193436, "pitch": 55, "duration": 161, "velocity": 90}, {"time": 193676, "pitch": 43, "duration": 162, "velocity": 100}, {"time": 193676, "pitch": 50, "duration": 152, "velocity": 92}, {"time": 193676, "pitch": 55, "duration": 177, "velocity": 104}, {"time": 193916, "pitch": 42, "duration": 299, "velocity": 102}, {"time": 193916, "pitch": 49, "duration": 282, "velocity": 98}, {"time": 193916, "pitch": 54, "duration": 244, "velocity": 90}, {"time": 194156, "pitch": 43, "duration": 162, "velocity": 112}, {"time": 194156, "pitch": 50, "duration": 171, "velocity": 94}, {"time": 194156, "pitch": 55, "duration": 187, "velocity": 90}, {"time": 194395, "pitch": 48, "duration": 1860, "velocity": 112}, {"time": 194395, "pitch": 55, "duration": 1826, "velocity": 106}, {"time": 194395, "pitch": 60, "duration": 1839, "velocity": 112}, {"time": 196314, "pitch": 51, "duration": 1827, "velocity": 98}, {"time": 196314, "pitch": 58, "duration": 1826, "velocity": 100}, {"time": 196314, "pitch": 63, "duration": 1794, "velocity": 102}, {"time": 198245, "pitch": 47, "duration": 1832, "velocity": 114}, {"time": 198245, "pitch": 54, "duration": 1832, "velocity": 108}, {"time": 198245, "pitch": 59, "duration": 1799, "velocity": 108}, {"time": 200164, "pitch": 50, "duration": 1925, "velocity": 108}, {"time": 200164, "pitch": 57, "duration": 1929, "velocity": 108}, {"time": 200164, "pitch": 62, "duration": 1942, "velocity": 102}, {"time": 202083, "pitch": 43, "duration": 510, "velocity": 113}, {"time": 202083, "pitch": 50, "duration": 6, "velocity": 111}, {"time": 202083, "pitch": 55, "duration": 583, "velocity": 113}, {"time": 202083, "pitch": 59, "duration": 583, "velocity": 113}, {"time": 202083, "pitch": 62, "duration": 23, "velocity": 113}, {"time": 202802, "pitch": 43, "duration": 188, "velocity": 113}, {"time": 202802, "pitch": 50, "duration": 252, "velocity": 113}, {"time": 202802, "pitch": 55, "duration": 272, "velocity": 106}, {"time": 202802, "pitch": 59, "duration": 234, "velocity": 113}, {"time": 202802, "pitch": 62, "duration": 249, "velocity": 111}, {"time": 203282, "pitch": 43, "duration": 167, "velocity": 113}, {"time": 203282, "pitch": 50, "duration": 163, "velocity": 113}, {"time": 203282, "pitch": 55, "duration": 251, "velocity": 111}, {"time": 203282, "pitch": 59, "duration": 207, "velocity": 113}, {"time": 203282, "pitch": 62, "duration": 204, "velocity": 113}, {"time": 203762, "pitch": 43, "duration": 123, "velocity": 113}, {"time": 203762, "pitch": 50, "duration": 153, "velocity": 111}, {"time": 203762, "pitch": 55, "duration": 236, "velocity": 94}, {"time": 203762, "pitch": 59, "duration": 209, "velocity": 113}, {"time": 203762, "pitch": 62, "duration": 212, "velocity": 113}, {"time": 204002, "pitch": 45, "duration": 502, "velocity": 112}, {"time": 204002, "pitch": 52, "duration": 476, "velocity": 113}, {"time": 204002, "pitch": 57, "duration": 574, "velocity": 113}, {"time": 204002, "pitch": 60, "duration": 565, "velocity": 113}, {"time": 204002, "pitch": 64, "duration": 580, "velocity": 111}, {"time": 204721, "pitch": 45, "duration": 207, "velocity": 113}, {"time": 204721, "pitch": 52, "duration": 216, "velocity": 113}, {"time": 204721, "pitch": 57, "duration": 314, "velocity": 99}, {"time": 204721, "pitch": 60, "duration": 309, "velocity": 113}, {"time": 204721, "pitch": 64, "duration": 312, "velocity": 111}, {"time": 205201, "pitch": 45, "duration": 177, "velocity": 113}, {"time": 205201, "pitch": 52, "duration": 189, "velocity": 113}, {"time": 205201, "pitch": 57, "duration": 269, "velocity": 102}, {"time": 205201, "pitch": 60, "duration": 236, "velocity": 111}, {"time": 205201, "pitch": 64, "duration": 247, "velocity": 94}, {"time": 205681, "pitch": 45, "duration": 130, "velocity": 113}, {"time": 205681, "pitch": 52, "duration": 168, "velocity": 113}, {"time": 205681, "pitch": 57, "duration": 237, "velocity": 102}, {"time": 205681, "pitch": 60, "duration": 216, "velocity": 113}, {"time": 205681, "pitch": 64, "duration": 229, "velocity": 111}, {"time": 205920, "pitch": 48, "duration": 552, "velocity": 113}, {"time": 205920, "pitch": 55, "duration": 529, "velocity": 106}, {"time": 205920, "pitch": 59, "duration": 516, "velocity": 113}, {"time": 205920, "pitch": 64, "duration": 519, "velocity": 113}, {"time": 206640, "pitch": 48, "duration": 317, "velocity": 113}, {"time": 206640, "pitch": 55, "duration": 266, "velocity": 108}, {"time": 206640, "pitch": 59, "duration": 266, "velocity": 113}, {"time": 206640, "pitch": 64, "duration": 271, "velocity": 102}, {"time": 207120, "pitch": 48, "duration": 226, "velocity": 113}, {"time": 207120, "pitch": 55, "duration": 213, "velocity": 98}, {"time": 207120, "pitch": 59, "duration": 211, "velocity": 113}, {"time": 207120, "pitch": 64, "duration": 211, "velocity": 101}, {"time": 207599, "pitch": 48, "duration": 118, "velocity": 113}, {"time": 207599, "pitch": 55, "duration": 251, "velocity": 99}, {"time": 207599, "pitch": 59, "duration": 238, "velocity": 113}, {"time": 207599, "pitch": 64, "duration": 255, "velocity": 111}, {"time": 207839, "pitch": 50, "duration": 560, "velocity": 113}, {"time": 207839, "pitch": 57, "duration": 531, "velocity": 113}, {"time": 207839, "pitch": 62, "duration": 572, "velocity": 111}, {"time": 207839, "pitch": 66, "duration": 556, "velocity": 113}, {"time": 207839, "pitch": 69, "duration": 572, "velocity": 85}, {"time": 208559, "pitch": 50, "duration": 283, "velocity": 113}, {"time": 208559, "pitch": 57, "duration": 284, "velocity": 113}, {"time": 208559, "pitch": 62, "duration": 334, "velocity": 111}, {"time": 208559, "pitch": 66, "duration": 298, "velocity": 113}, {"time": 208559, "pitch": 69, "duration": 331, "velocity": 77}, {"time": 209038, "pitch": 50, "duration": 194, "velocity": 113}, {"time": 209038, "pitch": 57, "duration": 203, "velocity": 113}, {"time": 209038, "pitch": 62, "duration": 317, "velocity": 94}, {"time": 209038, "pitch": 66, "duration": 278, "velocity": 113}, {"time": 209038, "pitch": 69, "duration": 290, "velocity": 78}, {"time": 209518, "pitch": 50, "duration": 127, "velocity": 113}, {"time": 209518, "pitch": 57, "duration": 153, "velocity": 113}, {"time": 209518, "pitch": 62, "duration": 208, "velocity": 108}, {"time": 209518, "pitch": 66, "duration": 180, "velocity": 113}, {"time": 209518, "pitch": 69, "duration": 192, "velocity": 80}, {"time": 209758, "pitch": 43, "duration": 509, "velocity": 113}, {"time": 209758, "pitch": 50, "duration": 448, "velocity": 111}, {"time": 209758, "pitch": 55, "duration": 582, "velocity": 113}, {"time": 209758, "pitch": 59, "duration": 582, "velocity": 113}, {"time": 209758, "pitch": 62, "duration": 580, "velocity": 113}, {"time": 210477, "pitch": 43, "duration": 188, "velocity": 113}, {"time": 210477, "pitch": 50, "duration": 252, "velocity": 113}, {"time": 210477, "pitch": 55, "duration": 272, "velocity": 106}, {"time": 210477, "pitch": 59, "duration": 234, "velocity": 113}, {"time": 210477, "pitch": 62, "duration": 249, "velocity": 111}, {"time": 210957, "pitch": 43, "duration": 167, "velocity": 113}, {"time": 210957, "pitch": 50, "duration": 163, "velocity": 113}, {"time": 210957, "pitch": 55, "duration": 251, "velocity": 111}, {"time": 210957, "pitch": 59, "duration": 207, "velocity": 113}, {"time": 210957, "pitch": 62, "duration": 204, "velocity": 113}, {"time": 211437, "pitch": 43, "duration": 123, "velocity": 113}, {"time": 211437, "pitch": 50, "duration": 153, "velocity": 111}, {"time": 211437, "pitch": 55, "duration": 235, "velocity": 94}, {"time": 211437, "pitch": 59, "duration": 209, "velocity": 113}, {"time": 211437, "pitch": 62, "duration": 212, "velocity": 113}, {"time": 211676, "pitch": 45, "duration": 503, "velocity": 112}, {"time": 211676, "pitch": 52, "duration": 477, "velocity": 113}, {"time": 211676, "pitch": 57, "duration": 575, "velocity": 113}, {"time": 211676, "pitch": 60, "duration": 566, "velocity": 113}, {"time": 211676, "pitch": 64, "duration": 581, "velocity": 111}, {"time": 212396, "pitch": 45, "duration": 207, "velocity": 113}, {"time": 212396, "pitch": 52, "duration": 216, "velocity": 113}, {"time": 212396, "pitch": 57, "duration": 314, "velocity": 99}, {"time": 212396, "pitch": 60, "duration": 309, "velocity": 113}, {"time": 212396, "pitch": 64, "duration": 312, "velocity": 111}, {"time": 212876, "pitch": 45, "duration": 177, "velocity": 113}, {"time": 212876, "pitch": 52, "duration": 189, "velocity": 113}, {"time": 212876, "pitch": 57, "duration": 269, "velocity": 102}, {"time": 212876, "pitch": 60, "duration": 236, "velocity": 111}, {"time": 212876, "pitch": 64, "duration": 247, "velocity": 94}, {"time": 213355, "pitch": 45, "duration": 131, "velocity": 113}, {"time": 213355, "pitch": 52, "duration": 169, "velocity": 113}, {"time": 213355, "pitch": 57, "duration": 238, "velocity": 102}, {"time": 213355, "pitch": 60, "duration": 217, "velocity": 113}, {"time": 213355, "pitch": 64, "duration": 230, "velocity": 111}, {"time": 213595, "pitch": 48, "duration": 552, "velocity": 113}, {"time": 213595, "pitch": 55, "duration": 529, "velocity": 106}, {"time": 213595, "pitch": 59, "duration": 516, "velocity": 113}, {"time": 213595, "pitch": 64, "duration": 519, "velocity": 113}, {"time": 214315, "pitch": 48, "duration": 317, "velocity": 113}, {"time": 214315, "pitch": 55, "duration": 266, "velocity": 108}, {"time": 214315, "pitch": 59, "duration": 266, "velocity": 113}, {"time": 214315, "pitch": 64, "duration": 271, "velocity": 102}, {"time": 214794, "pitch": 48, "duration": 227, "velocity": 113}, {"time": 214794, "pitch": 55, "duration": 214, "velocity": 98}, {"time": 214794, "pitch": 59, "duration": 212, "velocity": 113}, {"time": 214794, "pitch": 64, "duration": 212, "velocity": 101}, {"time": 215274, "pitch": 48, "duration": 118, "velocity": 113}, {"time": 215274, "pitch": 55, "duration": 251, "velocity": 99}, {"time": 215274, "pitch": 59, "duration": 238, "velocity": 113}, {"time": 215274, "pitch": 64, "duration": 255, "velocity": 111}, {"time": 215514, "pitch": 50, "duration": 572, "velocity": 113}, {"time": 215514, "pitch": 57, "duration": 543, "velocity": 113}, {"time": 215514, "pitch": 62, "duration": 584, "velocity": 111}, {"time": 215514, "pitch": 66, "duration": 568, "velocity": 113}, {"time": 215514, "pitch": 69, "duration": 584, "velocity": 85}, {"time": 216246, "pitch": 50, "duration": 284, "velocity": 113}, {"time": 216246, "pitch": 57, "duration": 285, "velocity": 113}, {"time": 216246, "pitch": 62, "duration": 335, "velocity": 111}, {"time": 216246, "pitch": 66, "duration": 299, "velocity": 113}, {"time": 216246, "pitch": 69, "duration": 332, "velocity": 77}, {"time": 216726, "pitch": 50, "duration": 194, "velocity": 113}, {"time": 216726, "pitch": 57, "duration": 203, "velocity": 113}, {"time": 216726, "pitch": 62, "duration": 317, "velocity": 94}, {"time": 216726, "pitch": 66, "duration": 278, "velocity": 113}, {"time": 216726, "pitch": 69, "duration": 290, "velocity": 78}, {"time": 217205, "pitch": 50, "duration": 127, "velocity": 113}, {"time": 217205, "pitch": 57, "duration": 153, "velocity": 113}, {"time": 217205, "pitch": 62, "duration": 208, "velocity": 108}, {"time": 217205, "pitch": 66, "duration": 180, "velocity": 113}, {"time": 217205, "pitch": 69, "duration": 192, "velocity": 80}, {"time": 217445, "pitch": 43, "duration": 510, "velocity": 113}, {"time": 217445, "pitch": 50, "duration": 449, "velocity": 111}, {"time": 217445, "pitch": 55, "duration": 583, "velocity": 113}, {"time": 217445, "pitch": 59, "duration": 583, "velocity": 113}, {"time": 217445, "pitch": 62, "duration": 581, "velocity": 113}, {"time": 218165, "pitch": 43, "duration": 188, "velocity": 113}, {"time": 218165, "pitch": 50, "duration": 252, "velocity": 113}, {"time": 218165, "pitch": 55, "duration": 272, "velocity": 106}, {"time": 218165, "pitch": 59, "duration": 234, "velocity": 113}, {"time": 218165, "pitch": 62, "duration": 249, "velocity": 111}, {"time": 218644, "pitch": 43, "duration": 167, "velocity": 113}, {"time": 218644, "pitch": 50, "duration": 163, "velocity": 113}, {"time": 218644, "pitch": 55, "duration": 251, "velocity": 111}, {"time": 218644, "pitch": 59, "duration": 207, "velocity": 113}, {"time": 218644, "pitch": 62, "duration": 204, "velocity": 113}, {"time": 219124, "pitch": 43, "duration": 123, "velocity": 113}, {"time": 219124, "pitch": 50, "duration": 153, "velocity": 111}, {"time": 219124, "pitch": 55, "duration": 236, "velocity": 94}, {"time": 219124, "pitch": 59, "duration": 209, "velocity": 113}, {"time": 219124, "pitch": 62, "duration": 212, "velocity": 113}, {"time": 219364, "pitch": 45, "duration": 503, "velocity": 112}, {"time": 219364, "pitch": 52, "duration": 477, "velocity": 113}, {"time": 219364, "pitch": 57, "duration": 575, "velocity": 113}, {"time": 219364, "pitch": 60, "duration": 566, "velocity": 113}, {"time": 219364, "pitch": 64, "duration": 581, "velocity": 111}, {"time": 220084, "pitch": 45, "duration": 206, "velocity": 113}, {"time": 220084, "pitch": 52, "duration": 215, "velocity": 113}, {"time": 220084, "pitch": 57, "duration": 313, "velocity": 99}, {"time": 220084, "pitch": 60, "duration": 308, "velocity": 113}, {"time": 220084, "pitch": 64, "duration": 311, "velocity": 111}, {"time": 220563, "pitch": 45, "duration": 177, "velocity": 113}, {"time": 220563, "pitch": 52, "duration": 189, "velocity": 113}, {"time": 220563, "pitch": 57, "duration": 269, "velocity": 102}, {"time": 220563, "pitch": 60, "duration": 236, "velocity": 111}, {"time": 220563, "pitch": 64, "duration": 247, "velocity": 94}, {"time": 221043, "pitch": 45, "duration": 131, "velocity": 113}, {"time": 221043, "pitch": 52, "duration": 169, "velocity": 113}, {"time": 221043, "pitch": 57, "duration": 238, "velocity": 102}, {"time": 221043, "pitch": 60, "duration": 217, "velocity": 113}, {"time": 221043, "pitch": 64, "duration": 230, "velocity": 111}, {"time": 221283, "pitch": 48, "duration": 551, "velocity": 113}, {"time": 221283, "pitch": 55, "duration": 528, "velocity": 106}, {"time": 221283, "pitch": 59, "duration": 515, "velocity": 113}, {"time": 221283, "pitch": 64, "duration": 518, "velocity": 113}, {"time": 222002, "pitch": 48, "duration": 317, "velocity": 113}, {"time": 222002, "pitch": 55, "duration": 266, "velocity": 108}, {"time": 222002, "pitch": 59, "duration": 266, "velocity": 113}, {"time": 222002, "pitch": 64, "duration": 271, "velocity": 102}, {"time": 222482, "pitch": 48, "duration": 227, "velocity": 113}, {"time": 222482, "pitch": 55, "duration": 214, "velocity": 98}, {"time": 222482, "pitch": 59, "duration": 212, "velocity": 113}, {"time": 222482, "pitch": 64, "duration": 212, "velocity": 101}, {"time": 222962, "pitch": 48, "duration": 118, "velocity": 113}, {"time": 222962, "pitch": 55, "duration": 250, "velocity": 99}, {"time": 222962, "pitch": 59, "duration": 237, "velocity": 113}, {"time": 222962, "pitch": 64, "duration": 254, "velocity": 111}, {"time": 223201, "pitch": 50, "duration": 560, "velocity": 113}, {"time": 223201, "pitch": 57, "duration": 531, "velocity": 113}, {"time": 223201, "pitch": 62, "duration": 572, "velocity": 111}, {"time": 223201, "pitch": 66, "duration": 556, "velocity": 113}, {"time": 223201, "pitch": 69, "duration": 572, "velocity": 85}, {"time": 223921, "pitch": 50, "duration": 284, "velocity": 113}, {"time": 223921, "pitch": 57, "duration": 285, "velocity": 113}, {"time": 223921, "pitch": 62, "duration": 335, "velocity": 111}, {"time": 223921, "pitch": 66, "duration": 299, "velocity": 113}, {"time": 223921, "pitch": 69, "duration": 332, "velocity": 77}, {"time": 224401, "pitch": 50, "duration": 193, "velocity": 113}, {"time": 224401, "pitch": 57, "duration": 202, "velocity": 113}, {"time": 224401, "pitch": 62, "duration": 316, "velocity": 94}, {"time": 224401, "pitch": 66, "duration": 277, "velocity": 113}, {"time": 224401, "pitch": 69, "duration": 289, "velocity": 78}, {"time": 224880, "pitch": 50, "duration": 127, "velocity": 113}, {"time": 224880, "pitch": 57, "duration": 153, "velocity": 113}, {"time": 224880, "pitch": 62, "duration": 208, "velocity": 108}, {"time": 224880, "pitch": 66, "duration": 180, "velocity": 113}, {"time": 224880, "pitch": 69, "duration": 192, "velocity": 80}, {"time": 225120, "pitch": 43, "duration": 510, "velocity": 113}, {"time": 225120, "pitch": 50, "duration": 449, "velocity": 111}, {"time": 225120, "pitch": 55, "duration": 583, "velocity": 113}, {"time": 225120, "pitch": 59, "duration": 583, "velocity": 113}, {"time": 225120, "pitch": 62, "duration": 581, "velocity": 113}, {"time": 225840, "pitch": 43, "duration": 188, "velocity": 113}, {"time": 225840, "pitch": 50, "duration": 251, "velocity": 113}, {"time": 225840, "pitch": 55, "duration": 271, "velocity": 106}, {"time": 225840, "pitch": 59, "duration": 234, "velocity": 113}, {"time": 225840, "pitch": 62, "duration": 248, "velocity": 111}, {"time": 226319, "pitch": 43, "duration": 167, "velocity": 113}, {"time": 226319, "pitch": 50, "duration": 163, "velocity": 113}, {"time": 226319, "pitch": 55, "duration": 251, "velocity": 111}, {"time": 226319, "pitch": 59, "duration": 207, "velocity": 113}, {"time": 226319, "pitch": 62, "duration": 204, "velocity": 113}, {"time": 226799, "pitch": 43, "duration": 123, "velocity": 113}, {"time": 226799, "pitch": 50, "duration": 153, "velocity": 111}, {"time": 226799, "pitch": 55, "duration": 236, "velocity": 94}, {"time": 226799, "pitch": 59, "duration": 209, "velocity": 113}, {"time": 226799, "pitch": 62, "duration": 212, "velocity": 113}, {"time": 227039, "pitch": 45, "duration": 503, "velocity": 112}, {"time": 227039, "pitch": 52, "duration": 477, "velocity": 113}, {"time": 227039, "pitch": 57, "duration": 574, "velocity": 113}, {"time": 227039, "pitch": 60, "duration": 565, "velocity": 113}, {"time": 227039, "pitch": 64, "duration": 580, "velocity": 111}, {"time": 227758, "pitch": 45, "duration": 207, "velocity": 113}, {"time": 227758, "pitch": 52, "duration": 216, "velocity": 113}, {"time": 227758, "pitch": 57, "duration": 314, "velocity": 99}, {"time": 227758, "pitch": 60, "duration": 309, "velocity": 113}, {"time": 227758, "pitch": 64, "duration": 312, "velocity": 111}, {"time": 228238, "pitch": 45, "duration": 177, "velocity": 113}, {"time": 228238, "pitch": 52, "duration": 189, "velocity": 113}, {"time": 228238, "pitch": 57, "duration": 269, "velocity": 102}, {"time": 228238, "pitch": 60, "duration": 236, "velocity": 111}, {"time": 228238, "pitch": 64, "duration": 247, "velocity": 94}, {"time": 228718, "pitch": 45, "duration": 131, "velocity": 113}, {"time": 228718, "pitch": 52, "duration": 169, "velocity": 113}, {"time": 228718, "pitch": 57, "duration": 238, "velocity": 102}, {"time": 228718, "pitch": 60, "duration": 217, "velocity": 113}, {"time": 228718, "pitch": 64, "duration": 230, "velocity": 111}, {"time": 228958, "pitch": 48, "duration": 551, "velocity": 113}, {"time": 228958, "pitch": 55, "duration": 528, "velocity": 106}, {"time": 228958, "pitch": 59, "duration": 515, "velocity": 113}, {"time": 228958, "pitch": 64, "duration": 518, "velocity": 113}, {"time": 229677, "pitch": 48, "duration": 317, "velocity": 113}, {"time": 229677, "pitch": 55, "duration": 266, "velocity": 108}, {"time": 229677, "pitch": 59, "duration": 266, "velocity": 113}, {"time": 229677, "pitch": 64, "duration": 271, "velocity": 102}, {"time": 230157, "pitch": 48, "duration": 227, "velocity": 113}, {"time": 230157, "pitch": 55, "duration": 214, "velocity": 98}, {"time": 230157, "pitch": 59, "duration": 212, "velocity": 113}, {"time": 230157, "pitch": 64, "duration": 212, "velocity": 101}, {"time": 230636, "pitch": 48, "duration": 118, "velocity": 113}, {"time": 230636, "pitch": 55, "duration": 251, "velocity": 99}, {"time": 230636, "pitch": 59, "duration": 238, "velocity": 113}, {"time": 230636, "pitch": 64, "duration": 255, "velocity": 111}, {"time": 230876, "pitch": 50, "duration": 224, "velocity": 113}, {"time": 230876, "pitch": 50, "duration": 224, "velocity": 117}, {"time": 230876, "pitch": 57, "duration": 195, "velocity": 113}, {"time": 230876, "pitch": 57, "duration": 195, "velocity": 117}, {"time": 230876, "pitch": 62, "duration": 211, "velocity": 111}, {"time": 230876, "pitch": 62, "duration": 211, "velocity": 115}, {"time": 230876, "pitch": 66, "duration": 220, "velocity": 113}, {"time": 230876, "pitch": 66, "duration": 220, "velocity": 117}, {"time": 230876, "pitch": 69, "duration": 198, "velocity": 85}, {"time": 230876, "pitch": 69, "duration": 198, "velocity": 89}, {"time": 231116, "pitch": 50, "duration": 221, "velocity": 113}, {"time": 231116, "pitch": 50, "duration": 221, "velocity": 117}, {"time": 231116, "pitch": 57, "duration": 208, "velocity": 113}, {"time": 231116, "pitch": 57, "duration": 208, "velocity": 117}, {"time": 231116, "pitch": 62, "duration": 227, "velocity": 111}, {"time": 231116, "pitch": 62, "duration": 227, "velocity": 115}, {"time": 231116, "pitch": 66, "duration": 182, "velocity": 113}, {"time": 231116, "pitch": 66, "duration": 182, "velocity": 117}, {"time": 231116, "pitch": 69, "duration": 202, "velocity": 77}, {"time": 231116, "pitch": 69, "duration": 202, "velocity": 81}, {"time": 232555, "pitch": 42, "duration": 210, "velocity": 79}, {"time": 232555, "pitch": 49, "duration": 217, "velocity": 86}, {"time": 232555, "pitch": 54, "duration": 210, "velocity": 104}, {"time": 232555, "pitch": 58, "duration": 193, "velocity": 97}, {"time": 232555, "pitch": 61, "duration": 190, "velocity": 101}, {"time": 232555, "pitch": 66, "duration": 197, "velocity": 87}, {"time": 232795, "pitch": 43, "duration": 589, "velocity": 79}, {"time": 232795, "pitch": 50, "duration": 214, "velocity": 86}, {"time": 232795, "pitch": 55, "duration": 192, "velocity": 104}, {"time": 232795, "pitch": 59, "duration": 169, "velocity": 97}, {"time": 232795, "pitch": 62, "duration": 166, "velocity": 101}, {"time": 232795, "pitch": 67, "duration": 173, "velocity": 87}, {"time": 233035, "pitch": 50, "duration": 279, "velocity": 80}, {"time": 233035, "pitch": 55, "duration": 203, "velocity": 101}, {"time": 233035, "pitch": 59, "duration": 237, "velocity": 104}, {"time": 233035, "pitch": 62, "duration": 221, "velocity": 106}, {"time": 233035, "pitch": 67, "duration": 257, "velocity": 97}, {"time": 233515, "pitch": 43, "duration": 150, "velocity": 127}, {"time": 233515, "pitch": 50, "duration": 230, "velocity": 93}, {"time": 233515, "pitch": 55, "duration": 222, "velocity": 105}, {"time": 233515, "pitch": 59, "duration": 212, "velocity": 97}, {"time": 233515, "pitch": 62, "duration": 203, "velocity": 101}, {"time": 233515, "pitch": 67, "duration": 210, "velocity": 90}, {"time": 233754, "pitch": 48, "duration": 146, "velocity": 127}, {"time": 233754, "pitch": 55, "duration": 148, "velocity": 97}, {"time": 233754, "pitch": 60, "duration": 175, "velocity": 92}, {"time": 233754, "pitch": 64, "duration": 155, "velocity": 100}, {"time": 233754, "pitch": 67, "duration": 150, "velocity": 93}, {"time": 233994, "pitch": 48, "duration": 216, "velocity": 127}, {"time": 233994, "pitch": 55, "duration": 226, "velocity": 118}, {"time": 233994, "pitch": 60, "duration": 199, "velocity": 99}, {"time": 233994, "pitch": 64, "duration": 200, "velocity": 111}, {"time": 233994, "pitch": 67, "duration": 226, "velocity": 105}, {"time": 234474, "pitch": 48, "duration": 386, "velocity": 106}, {"time": 234474, "pitch": 55, "duration": 397, "velocity": 127}, {"time": 234477, "pitch": 42, "duration": 232, "velocity": 79}, {"time": 234477, "pitch": 49, "duration": 239, "velocity": 86}, {"time": 234477, "pitch": 54, "duration": 232, "velocity": 104}, {"time": 234477, "pitch": 58, "duration": 215, "velocity": 97}, {"time": 234477, "pitch": 61, "duration": 212, "velocity": 101}, {"time": 234477, "pitch": 66, "duration": 219, "velocity": 87}, {"time": 234714, "pitch": 43, "duration": 601, "velocity": 79}, {"time": 234714, "pitch": 50, "duration": 219, "velocity": 86}, {"time": 234714, "pitch": 55, "duration": 157, "velocity": 104}, {"time": 234714, "pitch": 59, "duration": 173, "velocity": 97}, {"time": 234714, "pitch": 62, "duration": 170, "velocity": 101}, {"time": 234714, "pitch": 67, "duration": 177, "velocity": 87}, {"time": 234960, "pitch": 50, "duration": 285, "velocity": 80}, {"time": 234960, "pitch": 55, "duration": 208, "velocity": 101}, {"time": 234960, "pitch": 59, "duration": 243, "velocity": 104}, {"time": 234960, "pitch": 62, "duration": 227, "velocity": 106}, {"time": 234960, "pitch": 67, "duration": 263, "velocity": 97}, {"time": 235446, "pitch": 43, "duration": 151, "velocity": 127}, {"time": 235446, "pitch": 50, "duration": 231, "velocity": 93}, {"time": 235446, "pitch": 55, "duration": 223, "velocity": 105}, {"time": 235446, "pitch": 59, "duration": 213, "velocity": 97}, {"time": 235446, "pitch": 62, "duration": 204, "velocity": 101}, {"time": 235446, "pitch": 67, "duration": 211, "velocity": 90}, {"time": 235686, "pitch": 48, "duration": 146, "velocity": 127}, {"time": 235686, "pitch": 55, "duration": 148, "velocity": 97}, {"time": 235686, "pitch": 60, "duration": 175, "velocity": 92}, {"time": 235686, "pitch": 64, "duration": 155, "velocity": 100}, {"time": 235686, "pitch": 67, "duration": 150, "velocity": 93}, {"time": 235926, "pitch": 48, "duration": 215, "velocity": 127}, {"time": 235926, "pitch": 55, "duration": 225, "velocity": 118}, {"time": 235926, "pitch": 60, "duration": 198, "velocity": 99}, {"time": 235926, "pitch": 64, "duration": 199, "velocity": 111}, {"time": 235926, "pitch": 67, "duration": 225, "velocity": 105}, {"time": 236405, "pitch": 42, "duration": 232, "velocity": 79}, {"time": 236405, "pitch": 48, "duration": 383, "velocity": 106}, {"time": 236405, "pitch": 49, "duration": 239, "velocity": 86}, {"time": 236405, "pitch": 54, "duration": 232, "velocity": 104}, {"time": 236405, "pitch": 55, "duration": 393, "velocity": 127}, {"time": 236405, "pitch": 58, "duration": 215, "velocity": 97}, {"time": 236405, "pitch": 61, "duration": 212, "velocity": 101}, {"time": 236405, "pitch": 66, "duration": 219, "velocity": 87}, {"time": 236645, "pitch": 43, "duration": 589, "velocity": 79}, {"time": 236645, "pitch": 50, "duration": 214, "velocity": 86}, {"time": 236645, "pitch": 55, "duration": 153, "velocity": 104}, {"time": 236645, "pitch": 59, "duration": 169, "velocity": 97}, {"time": 236645, "pitch": 62, "duration": 166, "velocity": 101}, {"time": 236645, "pitch": 67, "duration": 173, "velocity": 87}, {"time": 236885, "pitch": 50, "duration": 279, "velocity": 80}, {"time": 236885, "pitch": 55, "duration": 203, "velocity": 101}, {"time": 236885, "pitch": 59, "duration": 237, "velocity": 104}, {"time": 236885, "pitch": 62, "duration": 221, "velocity": 106}, {"time": 236885, "pitch": 67, "duration": 257, "velocity": 97}, {"time": 237365, "pitch": 43, "duration": 150, "velocity": 127}, {"time": 237365, "pitch": 50, "duration": 230, "velocity": 93}, {"time": 237365, "pitch": 55, "duration": 222, "velocity": 105}, {"time": 237365, "pitch": 59, "duration": 212, "velocity": 97}, {"time": 237365, "pitch": 62, "duration": 203, "velocity": 101}, {"time": 237365, "pitch": 67, "duration": 210, "velocity": 90}, {"time": 237604, "pitch": 48, "duration": 146, "velocity": 127}, {"time": 237604, "pitch": 55, "duration": 148, "velocity": 97}, {"time": 237604, "pitch": 60, "duration": 175, "velocity": 92}, {"time": 237604, "pitch": 64, "duration": 155, "velocity": 100}, {"time": 237604, "pitch": 67, "duration": 150, "velocity": 93}, {"time": 237844, "pitch": 48, "duration": 216, "velocity": 127}, {"time": 237844, "pitch": 55, "duration": 226, "velocity": 118}, {"time": 237844, "pitch": 60, "duration": 199, "velocity": 99}, {"time": 237844, "pitch": 64, "duration": 200, "velocity": 111}, {"time": 237844, "pitch": 67, "duration": 226, "velocity": 105}, {"time": 238324, "pitch": 48, "duration": 171, "velocity": 127}, {"time": 238324, "pitch": 55, "duration": 177, "velocity": 108}, {"time": 238324, "pitch": 60, "duration": 204, "velocity": 87}, {"time": 238324, "pitch": 64, "duration": 179, "velocity": 91}, {"time": 238324, "pitch": 67, "duration": 204, "velocity": 94}, {"time": 238804, "pitch": 48, "duration": 174, "velocity": 127}, {"time": 238804, "pitch": 55, "duration": 216, "velocity": 95}, {"time": 238804, "pitch": 60, "duration": 216, "velocity": 102}, {"time": 238804, "pitch": 64, "duration": 241, "velocity": 117}, {"time": 238804, "pitch": 67, "duration": 218, "velocity": 100}, {"time": 239283, "pitch": 47, "duration": 192, "velocity": 127}, {"time": 239283, "pitch": 50, "duration": 205, "velocity": 101}, {"time": 239283, "pitch": 55, "duration": 212, "velocity": 97}, {"time": 239283, "pitch": 59, "duration": 203, "velocity": 100}, {"time": 239283, "pitch": 62, "duration": 197, "velocity": 105}, {"time": 239523, "pitch": 48, "duration": 169, "velocity": 127}, {"time": 239523, "pitch": 55, "duration": 218, "velocity": 95}, {"time": 239523, "pitch": 60, "duration": 188, "velocity": 102}, {"time": 239523, "pitch": 64, "duration": 231, "velocity": 117}, {"time": 239523, "pitch": 67, "duration": 218, "velocity": 100}, {"time": 239763, "pitch": 47, "duration": 165, "velocity": 127}, {"time": 239763, "pitch": 50, "duration": 240, "velocity": 101}, {"time": 239763, "pitch": 55, "duration": 179, "velocity": 97}, {"time": 239763, "pitch": 59, "duration": 187, "velocity": 100}, {"time": 239763, "pitch": 62, "duration": 181, "velocity": 105}, {"time": 240003, "pitch": 48, "duration": 214, "velocity": 127}, {"time": 240003, "pitch": 55, "duration": 229, "velocity": 95}, {"time": 240003, "pitch": 59, "duration": 209, "velocity": 102}, {"time": 240003, "pitch": 64, "duration": 210, "velocity": 100}, {"time": 240003, "pitch": 67, "duration": 206, "velocity": 117}, {"time": 240243, "pitch": 50, "duration": 190, "velocity": 127}, {"time": 240243, "pitch": 57, "duration": 229, "velocity": 95}, {"time": 240243, "pitch": 62, "duration": 209, "velocity": 102}, {"time": 240243, "pitch": 66, "duration": 206, "velocity": 117}, {"time": 240243, "pitch": 69, "duration": 210, "velocity": 100}, {"time": 240346, "pitch": 43, "duration": 238, "velocity": 79}, {"time": 240346, "pitch": 50, "duration": 87, "velocity": 86}, {"time": 240346, "pitch": 55, "duration": 179, "velocity": 104}, {"time": 240346, "pitch": 59, "duration": 156, "velocity": 97}, {"time": 240346, "pitch": 62, "duration": 106, "velocity": 101}, {"time": 240346, "pitch": 67, "duration": 160, "velocity": 87}, {"time": 240483, "pitch": 43, "duration": 101, "velocity": 79}, {"time": 240483, "pitch": 50, "duration": 64, "velocity": 86}, {"time": 240483, "pitch": 55, "duration": 42, "velocity": 104}, {"time": 240483, "pitch": 59, "duration": 19, "velocity": 97}, {"time": 240483, "pitch": 62, "duration": 16, "velocity": 101}, {"time": 240483, "pitch": 67, "duration": 23, "velocity": 87}, {"time": 240722, "pitch": 50, "duration": 279, "velocity": 80}, {"time": 240722, "pitch": 55, "duration": 203, "velocity": 101}, {"time": 240722, "pitch": 59, "duration": 237, "velocity": 104}, {"time": 240722, "pitch": 62, "duration": 221, "velocity": 106}, {"time": 240722, "pitch": 67, "duration": 257, "velocity": 97}, {"time": 241202, "pitch": 43, "duration": 151, "velocity": 127}, {"time": 241202, "pitch": 50, "duration": 231, "velocity": 93}, {"time": 241202, "pitch": 55, "duration": 223, "velocity": 105}, {"time": 241202, "pitch": 59, "duration": 213, "velocity": 97}, {"time": 241202, "pitch": 62, "duration": 204, "velocity": 101}, {"time": 241202, "pitch": 67, "duration": 211, "velocity": 90}, {"time": 241442, "pitch": 48, "duration": 146, "velocity": 127}, {"time": 241442, "pitch": 55, "duration": 148, "velocity": 97}, {"time": 241442, "pitch": 60, "duration": 175, "velocity": 92}, {"time": 241442, "pitch": 64, "duration": 155, "velocity": 100}, {"time": 241442, "pitch": 67, "duration": 150, "velocity": 93}, {"time": 241682, "pitch": 48, "duration": 216, "velocity": 127}, {"time": 241682, "pitch": 55, "duration": 226, "velocity": 118}, {"time": 241682, "pitch": 60, "duration": 199, "velocity": 99}, {"time": 241682, "pitch": 64, "duration": 200, "velocity": 111}, {"time": 241682, "pitch": 67, "duration": 226, "velocity": 105}, {"time": 242161, "pitch": 42, "duration": 232, "velocity": 79}, {"time": 242161, "pitch": 48, "duration": 417, "velocity": 105}, {"time": 242161, "pitch": 49, "duration": 239, "velocity": 86}, {"time": 242161, "pitch": 54, "duration": 232, "velocity": 104}, {"time": 242161, "pitch": 55, "duration": 416, "velocity": 127}, {"time": 242161, "pitch": 58, "duration": 215, "velocity": 97}, {"time": 242161, "pitch": 61, "duration": 212, "velocity": 101}, {"time": 242161, "pitch": 66, "duration": 219, "velocity": 87}, {"time": 242401, "pitch": 43, "duration": 589, "velocity": 79}, {"time": 242401, "pitch": 50, "duration": 214, "velocity": 86}, {"time": 242401, "pitch": 55, "duration": 176, "velocity": 104}, {"time": 242401, "pitch": 59, "duration": 169, "velocity": 97}, {"time": 242401, "pitch": 62, "duration": 166, "velocity": 101}, {"time": 242401, "pitch": 67, "duration": 173, "velocity": 87}, {"time": 242641, "pitch": 50, "duration": 279, "velocity": 80}, {"time": 242641, "pitch": 55, "duration": 203, "velocity": 101}, {"time": 242641, "pitch": 59, "duration": 237, "velocity": 104}, {"time": 242641, "pitch": 62, "duration": 221, "velocity": 106}, {"time": 242641, "pitch": 67, "duration": 257, "velocity": 97}, {"time": 243121, "pitch": 43, "duration": 151, "velocity": 127}, {"time": 243121, "pitch": 50, "duration": 231, "velocity": 93}, {"time": 243121, "pitch": 55, "duration": 223, "velocity": 105}, {"time": 243121, "pitch": 59, "duration": 213, "velocity": 97}, {"time": 243121, "pitch": 62, "duration": 204, "velocity": 101}, {"time": 243121, "pitch": 67, "duration": 211, "velocity": 90}, {"time": 243361, "pitch": 48, "duration": 145, "velocity": 127}, {"time": 243361, "pitch": 55, "duration": 147, "velocity": 97}, {"time": 243361, "pitch": 60, "duration": 174, "velocity": 92}, {"time": 243361, "pitch": 64, "duration": 154, "velocity": 100}, {"time": 243361, "pitch": 67, "duration": 149, "velocity": 93}, {"time": 243600, "pitch": 48, "duration": 216, "velocity": 127}, {"time": 243600, "pitch": 55, "duration": 226, "velocity": 118}, {"time": 243600, "pitch": 60, "duration": 199, "velocity": 99}, {"time": 243600, "pitch": 64, "duration": 200, "velocity": 111}, {"time": 243600, "pitch": 67, "duration": 226, "velocity": 105}, {"time": 244080, "pitch": 42, "duration": 232, "velocity": 79}, {"time": 244080, "pitch": 48, "duration": 379, "velocity": 120}, {"time": 244080, "pitch": 49, "duration": 239, "velocity": 86}, {"time": 244080, "pitch": 54, "duration": 232, "velocity": 104}, {"time": 244080, "pitch": 55, "duration": 380, "velocity": 125}, {"time": 244080, "pitch": 58, "duration": 215, "velocity": 97}, {"time": 244080, "pitch": 61, "duration": 212, "velocity": 101}, {"time": 244080, "pitch": 66, "duration": 219, "velocity": 87}, {"time": 244320, "pitch": 43, "duration": 589, "velocity": 79}, {"time": 244320, "pitch": 50, "duration": 214, "velocity": 86}, {"time": 244320, "pitch": 55, "duration": 140, "velocity": 104}, {"time": 244320, "pitch": 59, "duration": 169, "velocity": 97}, {"time": 244320, "pitch": 62, "duration": 166, "velocity": 101}, {"time": 244320, "pitch": 67, "duration": 173, "velocity": 87}, {"time": 244560, "pitch": 50, "duration": 279, "velocity": 80}, {"time": 244560, "pitch": 55, "duration": 203, "velocity": 101}, {"time": 244560, "pitch": 59, "duration": 237, "velocity": 104}, {"time": 244560, "pitch": 62, "duration": 221, "velocity": 106}, {"time": 244560, "pitch": 67, "duration": 257, "velocity": 97}, {"time": 245039, "pitch": 43, "duration": 151, "velocity": 127}, {"time": 245039, "pitch": 50, "duration": 231, "velocity": 93}, {"time": 245039, "pitch": 55, "duration": 223, "velocity": 105}, {"time": 245039, "pitch": 59, "duration": 213, "velocity": 97}, {"time": 245039, "pitch": 62, "duration": 204, "velocity": 101}, {"time": 245039, "pitch": 67, "duration": 211, "velocity": 90}, {"time": 245279, "pitch": 48, "duration": 146, "velocity": 127}, {"time": 245279, "pitch": 55, "duration": 148, "velocity": 97}, {"time": 245279, "pitch": 60, "duration": 175, "velocity": 92}, {"time": 245279, "pitch": 64, "duration": 155, "velocity": 100}, {"time": 245279, "pitch": 67, "duration": 150, "velocity": 93}, {"time": 245519, "pitch": 48, "duration": 216, "velocity": 127}, {"time": 245519, "pitch": 55, "duration": 226, "velocity": 118}, {"time": 245519, "pitch": 60, "duration": 199, "velocity": 99}, {"time": 245519, "pitch": 64, "duration": 200, "velocity": 111}, {"time": 245519, "pitch": 67, "duration": 226, "velocity": 105}, {"time": 245999, "pitch": 48, "duration": 171, "velocity": 127}, {"time": 245999, "pitch": 55, "duration": 177, "velocity": 108}, {"time": 245999, "pitch": 60, "duration": 204, "velocity": 87}, {"time": 245999, "pitch": 64, "duration": 179, "velocity": 91}, {"time": 245999, "pitch": 67, "duration": 204, "velocity": 94}, {"time": 246478, "pitch": 48, "duration": 174, "velocity": 127}, {"time": 246478, "pitch": 55, "duration": 217, "velocity": 95}, {"time": 246478, "pitch": 60, "duration": 217, "velocity": 102}, {"time": 246478, "pitch": 64, "duration": 242, "velocity": 117}, {"time": 246478, "pitch": 67, "duration": 219, "velocity": 100}, {"time": 246958, "pitch": 47, "duration": 192, "velocity": 127}, {"time": 246958, "pitch": 50, "duration": 205, "velocity": 101}, {"time": 246958, "pitch": 55, "duration": 212, "velocity": 97}, {"time": 246958, "pitch": 59, "duration": 203, "velocity": 100}, {"time": 246958, "pitch": 62, "duration": 197, "velocity": 105}, {"time": 247198, "pitch": 48, "duration": 169, "velocity": 127}, {"time": 247198, "pitch": 55, "duration": 218, "velocity": 95}, {"time": 247198, "pitch": 60, "duration": 188, "velocity": 102}, {"time": 247198, "pitch": 64, "duration": 231, "velocity": 117}, {"time": 247198, "pitch": 67, "duration": 218, "velocity": 100}, {"time": 247438, "pitch": 47, "duration": 165, "velocity": 127}, {"time": 247438, "pitch": 50, "duration": 240, "velocity": 101}, {"time": 247438, "pitch": 55, "duration": 179, "velocity": 97}, {"time": 247438, "pitch": 59, "duration": 187, "velocity": 100}, {"time": 247438, "pitch": 62, "duration": 181, "velocity": 105}, {"time": 247678, "pitch": 48, "duration": 214, "velocity": 127}, {"time": 247678, "pitch": 55, "duration": 229, "velocity": 95}, {"time": 247678, "pitch": 59, "duration": 209, "velocity": 102}, {"time": 247678, "pitch": 64, "duration": 206, "velocity": 117}, {"time": 247678, "pitch": 67, "duration": 210, "velocity": 100}, {"time": 247918, "pitch": 50, "duration": 189, "velocity": 127}, {"time": 247918, "pitch": 57, "duration": 228, "velocity": 95}, {"time": 247918, "pitch": 62, "duration": 208, "velocity": 102}, {"time": 247918, "pitch": 66, "duration": 205, "velocity": 117}, {"time": 247918, "pitch": 69, "duration": 209, "velocity": 100}, {"time": 248157, "pitch": 43, "duration": 5793, "velocity": 112}, {"time": 248157, "pitch": 50, "duration": 5742, "velocity": 125}, {"time": 248157, "pitch": 55, "duration": 5750, "velocity": 123}, {"time": 248157, "pitch": 59, "duration": 5728, "velocity": 126}, {"time": 248157, "pitch": 62, "duration": 5734, "velocity": 124}, {"time": 248157, "pitch": 67, "duration": 5756, "velocity": 116}], "annotations": [{"time": 240, "annotation": {"number": 7, "value": 90}, "group": "control_change"}, {"time": 258, "annotation": {"number": 11, "value": 110}, "group": "control_change"}, {"time": 277, "annotation": {"number": 10, "value": 64}, "group": "control_change"}, {"time": 295, "annotation": {"number": 91, "value": 30}, "group": "control_change"}, {"time": 314, "annotation": {"number": 93, "value": 0}, "group": "control_change"}, {"time": 332, "annotation": {"number": 101, "value": 0}, "group": "control_change"}, {"time": 350, "annotation": {"number": 100, "value": 0}, "group": "control_change"}, {"time": 369, "annotation": {"number": 6, "value": 12}, "group": "control_change"}, {"time": 387, "annotation": {"number": 101, "value": 127}, "group": "control_change"}, {"time": 406, "annotation": {"number": 100, "value": 127}, "group": "control_change"}, {"time": 250076, "annotation": {"number": 11, "value": 110}, "group": "control_change"}, {"time": 250196, "annotation": {"number": 11, "value": 106}, "group": "control_change"}, {"time": 250316, "annotation": {"number": 11, "value": 103}, "group": "control_change"}, {"time": 250436, "annotation": {"number": 11, "value": 99}, "group": "control_change"}, {"time": 250556, "annotation": {"number": 11, "value": 96}, "group": "control_change"}, {"time": 250676, "annotation": {"number": 11, "value": 92}, "group": "control_change"}, {"time": 250796, "annotation": {"number": 11, "value": 89}, "group": "control_change"}, {"time": 250916, "annotation": {"number": 11, "value": 85}, "group": "control_change"}, {"time": 251035, "annotation": {"number": 11, "value": 82}, "group": "control_change"}, {"time": 251155, "annotation": {"number": 11, "value": 79}, "group": "control_change"}, {"time": 251275, "annotation": {"number": 11, "value": 75}, "group": "control_change"}, {"time": 251395, "annotation": {"number": 11, "value": 72}, "group": "control_change"}, {"time": 251515, "annotation": {"number": 11, "value": 68}, "group": "control_change"}, {"time": 251635, "annotation": {"number": 11, "value": 65}, "group": "control_change"}, {"time": 251755, "annotation": {"number": 11, "value": 61}, "group": "control_change"}, {"time": 251875, "annotation": {"number": 11, "value": 58}, "group": "control_change"}, {"time": 251995, "annotation": {"number": 11, "value": 55}, "group": "control_change"}, {"time": 252115, "annotation": {"number": 11, "value": 51}, "group": "control_change"}, {"time": 252235, "annotation": {"number": 11, "value": 48}, "group": "control_change"}, {"time": 252355, "annotation": {"number": 11, "value": 44}, "group": "control_change"}, {"time": 252474, "annotation": {"number": 11, "value": 41}, "group": "control_change"}, {"time": 252594, "annotation": {"number": 11, "value": 37}, "group": "control_change"}, {"time": 252714, "annotation": {"number": 11, "value": 34}, "group": "control_change"}, {"time": 252834, "annotation": {"number": 11, "value": 30}, "group": "control_change"}, {"time": 252954, "annotation": {"number": 11, "value": 27}, "group": "control_change"}, {"time": 253074, "annotation": {"number": 11, "value": 24}, "group": "control_change"}, {"time": 253194, "annotation": {"number": 11, "value": 20}, "group": "control_change"}, {"time": 253314, "annotation": {"number": 11, "value": 17}, "group": "control_change"}, {"time": 253434, "annotation": {"number": 11, "value": 13}, "group": "control_change"}, {"time": 253557, "annotation": {"number": 11, "value": 10}, "group": "control_change"}, {"time": 253680, "annotation": {"number": 11, "value": 6}, "group": "control_change"}, {"time": 253803, "annotation": {"number": 11, "value": 3}, "group": "control_change"}, {"time": 253926, "annotation": {"number": 11, "value": 0}, "group": "control_change"}]}, {"program": 0, "is_drum": false, "name": "E.G SFX", "annotations": [{"time": 184, "annotation": {"number": 0, "value": 0}, "group": "control_change"}, {"time": 203, "annotation": {"number": 32, "value": 2}, "group": "control_change"}]}, {"program": 29, "is_drum": false, "name": "E.G SFX", "notes": [{"time": 64314, "pitch": 84, "duration": 277, "velocity": 124}, {"time": 64560, "pitch": 83, "duration": 168, "velocity": 112}, {"time": 64806, "pitch": 79, "duration": 437, "velocity": 120}, {"time": 65286, "pitch": 74, "duration": 177, "velocity": 114}, {"time": 65526, "pitch": 72, "duration": 311, "velocity": 126}, {"time": 66005, "pitch": 71, "duration": 263, "velocity": 118}, {"time": 66485, "pitch": 67, "duration": 254, "velocity": 127}, {"time": 66965, "pitch": 67, "duration": 149, "velocity": 126}, {"time": 67205, "pitch": 65, "duration": 214, "velocity": 120}, {"time": 67444, "pitch": 67, "duration": 259, "velocity": 120}, {"time": 67924, "pitch": 67, "duration": 250, "velocity": 118}, {"time": 68404, "pitch": 67, "duration": 248, "velocity": 120}, {"time": 68884, "pitch": 67, "duration": 254, "velocity": 120}, {"time": 69123, "pitch": 65, "duration": 211, "velocity": 118}, {"time": 69363, "pitch": 67, "duration": 222, "velocity": 116}, {"time": 69843, "pitch": 67, "duration": 211, "velocity": 126}, {"time": 70323, "pitch": 67, "duration": 231, "velocity": 120}, {"time": 70802, "pitch": 67, "duration": 239, "velocity": 118}, {"time": 71042, "pitch": 65, "duration": 235, "velocity": 116}, {"time": 71282, "pitch": 67, "duration": 219, "velocity": 120}, {"time": 72001, "pitch": 84, "duration": 270, "velocity": 124}, {"time": 72241, "pitch": 83, "duration": 164, "velocity": 112}, {"time": 72481, "pitch": 79, "duration": 437, "velocity": 120}, {"time": 72961, "pitch": 74, "duration": 177, "velocity": 114}, {"time": 73201, "pitch": 72, "duration": 310, "velocity": 126}, {"time": 73680, "pitch": 71, "duration": 263, "velocity": 118}, {"time": 74160, "pitch": 67, "duration": 254, "velocity": 127}, {"time": 74640, "pitch": 67, "duration": 149, "velocity": 126}, {"time": 74880, "pitch": 65, "duration": 213, "velocity": 120}, {"time": 75119, "pitch": 67, "duration": 259, "velocity": 120}, {"time": 75599, "pitch": 67, "duration": 250, "velocity": 118}, {"time": 76079, "pitch": 67, "duration": 248, "velocity": 120}, {"time": 76558, "pitch": 67, "duration": 255, "velocity": 127}, {"time": 76798, "pitch": 65, "duration": 211, "velocity": 127}, {"time": 77038, "pitch": 67, "duration": 222, "velocity": 127}, {"time": 77278, "pitch": 79, "duration": 1787, "velocity": 127}, {"time": 95039, "pitch": 84, "duration": 269, "velocity": 124}, {"time": 95279, "pitch": 83, "duration": 163, "velocity": 112}, {"time": 95518, "pitch": 79, "duration": 437, "velocity": 120}, {"time": 95998, "pitch": 74, "duration": 177, "velocity": 114}, {"time": 96238, "pitch": 72, "duration": 311, "velocity": 126}, {"time": 96718, "pitch": 71, "duration": 262, "velocity": 118}, {"time": 97197, "pitch": 67, "duration": 254, "velocity": 127}, {"time": 97677, "pitch": 67, "duration": 149, "velocity": 126}, {"time": 97917, "pitch": 65, "duration": 214, "velocity": 120}, {"time": 98157, "pitch": 67, "duration": 258, "velocity": 120}, {"time": 98636, "pitch": 67, "duration": 250, "velocity": 118}, {"time": 99116, "pitch": 67, "duration": 248, "velocity": 120}, {"time": 99596, "pitch": 67, "duration": 254, "velocity": 120}, {"time": 99835, "pitch": 65, "duration": 211, "velocity": 118}, {"time": 100075, "pitch": 67, "duration": 222, "velocity": 116}, {"time": 100555, "pitch": 67, "duration": 211, "velocity": 126}, {"time": 101035, "pitch": 67, "duration": 232, "velocity": 120}, {"time": 101514, "pitch": 67, "duration": 239, "velocity": 118}, {"time": 101754, "pitch": 65, "duration": 235, "velocity": 116}, {"time": 101994, "pitch": 67, "duration": 219, "velocity": 120}, {"time": 102726, "pitch": 84, "duration": 270, "velocity": 124}, {"time": 102966, "pitch": 83, "duration": 164, "velocity": 112}, {"time": 103206, "pitch": 79, "duration": 437, "velocity": 120}, {"time": 103686, "pitch": 74, "duration": 176, "velocity": 114}, {"time": 103925, "pitch": 72, "duration": 311, "velocity": 126}, {"time": 104405, "pitch": 71, "duration": 263, "velocity": 118}, {"time": 104885, "pitch": 67, "duration": 254, "velocity": 127}, {"time": 105364, "pitch": 67, "duration": 149, "velocity": 126}, {"time": 105604, "pitch": 65, "duration": 214, "velocity": 120}, {"time": 105844, "pitch": 67, "duration": 259, "velocity": 120}, {"time": 106324, "pitch": 67, "duration": 250, "velocity": 118}, {"time": 106803, "pitch": 67, "duration": 248, "velocity": 120}, {"time": 107283, "pitch": 67, "duration": 255, "velocity": 120}, {"time": 107523, "pitch": 65, "duration": 211, "velocity": 118}, {"time": 107763, "pitch": 67, "duration": 222, "velocity": 116}, {"time": 108242, "pitch": 67, "duration": 211, "velocity": 126}, {"time": 108722, "pitch": 67, "duration": 232, "velocity": 120}, {"time": 109202, "pitch": 67, "duration": 239, "velocity": 118}, {"time": 109442, "pitch": 65, "duration": 235, "velocity": 116}, {"time": 109682, "pitch": 67, "duration": 218, "velocity": 120}, {"time": 109921, "pitch": 79, "duration": 732, "velocity": 124}, {"time": 110641, "pitch": 74, "duration": 1075, "velocity": 116}, {"time": 111840, "pitch": 79, "duration": 738, "velocity": 122}, {"time": 112560, "pitch": 74, "duration": 1126, "velocity": 110}, {"time": 113759, "pitch": 79, "duration": 695, "velocity": 118}, {"time": 114358, "pitch": 74, "duration": 2267, "velocity": 108}, {"time": 117596, "pitch": 79, "duration": 732, "velocity": 124}, {"time": 118316, "pitch": 74, "duration": 1075, "velocity": 116}, {"time": 119515, "pitch": 79, "duration": 737, "velocity": 122}, {"time": 120234, "pitch": 74, "duration": 1138, "velocity": 110}, {"time": 121446, "pitch": 79, "duration": 696, "velocity": 118}, {"time": 122046, "pitch": 74, "duration": 2266, "velocity": 108}, {"time": 125284, "pitch": 79, "duration": 731, "velocity": 124}, {"time": 126003, "pitch": 74, "duration": 1076, "velocity": 116}, {"time": 127202, "pitch": 79, "duration": 738, "velocity": 122}, {"time": 127922, "pitch": 74, "duration": 1126, "velocity": 110}, {"time": 129121, "pitch": 79, "duration": 696, "velocity": 118}, {"time": 129721, "pitch": 74, "duration": 2266, "velocity": 108}, {"time": 132959, "pitch": 79, "duration": 731, "velocity": 124}, {"time": 133678, "pitch": 74, "duration": 1075, "velocity": 116}, {"time": 134877, "pitch": 79, "duration": 738, "velocity": 122}, {"time": 135597, "pitch": 74, "duration": 1126, "velocity": 110}, {"time": 136796, "pitch": 79, "duration": 696, "velocity": 118}, {"time": 137396, "pitch": 74, "duration": 1307, "velocity": 108}, {"time": 187200, "pitch": 84, "duration": 270, "velocity": 124}, {"time": 187440, "pitch": 83, "duration": 164, "velocity": 112}, {"time": 187680, "pitch": 79, "duration": 437, "velocity": 120}, {"time": 188160, "pitch": 74, "duration": 176, "velocity": 114}, {"time": 188399, "pitch": 72, "duration": 311, "velocity": 126}, {"time": 188879, "pitch": 71, "duration": 263, "velocity": 118}, {"time": 189359, "pitch": 67, "duration": 254, "velocity": 127}, {"time": 189838, "pitch": 67, "duration": 149, "velocity": 126}, {"time": 190078, "pitch": 65, "duration": 214, "velocity": 120}, {"time": 190318, "pitch": 67, "duration": 259, "velocity": 120}, {"time": 190798, "pitch": 67, "duration": 250, "velocity": 118}, {"time": 191277, "pitch": 67, "duration": 248, "velocity": 120}, {"time": 191757, "pitch": 67, "duration": 255, "velocity": 120}, {"time": 191997, "pitch": 65, "duration": 211, "velocity": 118}, {"time": 192237, "pitch": 67, "duration": 222, "velocity": 116}, {"time": 192717, "pitch": 67, "duration": 210, "velocity": 126}, {"time": 193196, "pitch": 67, "duration": 232, "velocity": 120}, {"time": 193676, "pitch": 67, "duration": 239, "velocity": 118}, {"time": 193916, "pitch": 65, "duration": 235, "velocity": 116}, {"time": 194156, "pitch": 67, "duration": 218, "velocity": 120}, {"time": 194875, "pitch": 84, "duration": 270, "velocity": 124}, {"time": 195115, "pitch": 83, "duration": 164, "velocity": 112}, {"time": 195355, "pitch": 79, "duration": 436, "velocity": 120}, {"time": 195834, "pitch": 74, "duration": 177, "velocity": 114}, {"time": 196074, "pitch": 72, "duration": 311, "velocity": 126}, {"time": 196554, "pitch": 71, "duration": 263, "velocity": 118}, {"time": 197040, "pitch": 67, "duration": 260, "velocity": 127}, {"time": 197526, "pitch": 67, "duration": 149, "velocity": 126}, {"time": 197766, "pitch": 65, "duration": 214, "velocity": 120}, {"time": 198006, "pitch": 67, "duration": 258, "velocity": 120}, {"time": 198485, "pitch": 67, "duration": 250, "velocity": 118}, {"time": 198965, "pitch": 67, "duration": 248, "velocity": 120}, {"time": 199445, "pitch": 67, "duration": 255, "velocity": 120}, {"time": 199685, "pitch": 65, "duration": 210, "velocity": 118}, {"time": 199924, "pitch": 67, "duration": 222, "velocity": 116}, {"time": 200404, "pitch": 67, "duration": 211, "velocity": 126}, {"time": 200884, "pitch": 67, "duration": 232, "velocity": 120}, {"time": 201363, "pitch": 67, "duration": 239, "velocity": 118}, {"time": 201603, "pitch": 65, "duration": 235, "velocity": 116}, {"time": 201843, "pitch": 67, "duration": 219, "velocity": 120}, {"time": 202083, "pitch": 79, "duration": 731, "velocity": 124}, {"time": 202802, "pitch": 74, "duration": 1076, "velocity": 116}, {"time": 204002, "pitch": 79, "duration": 737, "velocity": 122}, {"time": 204721, "pitch": 74, "duration": 1126, "velocity": 110}, {"time": 205920, "pitch": 79, "duration": 696, "velocity": 118}, {"time": 206520, "pitch": 74, "duration": 2266, "velocity": 108}, {"time": 209758, "pitch": 79, "duration": 731, "velocity": 124}, {"time": 210477, "pitch": 74, "duration": 1076, "velocity": 116}, {"time": 211676, "pitch": 79, "duration": 738, "velocity": 122}, {"time": 212396, "pitch": 74, "duration": 1126, "velocity": 110}, {"time": 213595, "pitch": 79, "duration": 696, "velocity": 118}, {"time": 214195, "pitch": 74, "duration": 2279, "velocity": 108}, {"time": 217445, "pitch": 79, "duration": 732, "velocity": 124}, {"time": 218165, "pitch": 74, "duration": 1075, "velocity": 116}, {"time": 219364, "pitch": 79, "duration": 737, "velocity": 122}, {"time": 220084, "pitch": 74, "duration": 1126, "velocity": 110}, {"time": 221283, "pitch": 79, "duration": 695, "velocity": 118}, {"time": 221882, "pitch": 74, "duration": 2267, "velocity": 108}, {"time": 225120, "pitch": 79, "duration": 732, "velocity": 124}, {"time": 225840, "pitch": 74, "duration": 1075, "velocity": 116}, {"time": 227039, "pitch": 79, "duration": 737, "velocity": 122}, {"time": 227758, "pitch": 74, "duration": 1127, "velocity": 110}, {"time": 228958, "pitch": 79, "duration": 695, "velocity": 118}, {"time": 229557, "pitch": 74, "duration": 1307, "velocity": 108}], "annotations": [{"time": 240, "annotation": {"number": 7, "value": 70}, "group": "control_change"}, {"time": 258, "annotation": {"number": 11, "value": 110}, "group": "control_change"}, {"time": 277, "annotation": {"number": 10, "value": 74}, "group": "control_change"}, {"time": 295, "annotation": {"number": 91, "value": 40}, "group": "control_change"}, {"time": 314, "annotation": {"number": 93, "value": 0}, "group": "control_change"}, {"time": 332, "annotation": {"number": 94, "value": 100}, "group": "control_change"}, {"time": 350, "annotation": {"number": 101, "value": 0}, "group": "control_change"}, {"time": 369, "annotation": {"number": 100, "value": 0}, "group": "control_change"}, {"time": 387, "annotation": {"number": 6, "value": 12}, "group": "control_change"}, {"time": 406, "annotation": {"number": 101, "value": 127}, "group": "control_change"}, {"time": 424, "annotation": {"number": 100, "value": 127}, "group": "control_change"}, {"time": 109921, "annotation": {"number": 11, "value": 100}, "group": "control_change"}, {"time": 186721, "annotation": {"number": 11, "value": 110}, "group": "control_change"}, {"time": 202083, "annotation": {"number": 11, "value": 100}, "group": "control_change"}]}, {"program": 0, "is_drum": true, "name": "DRUMS", "notes": [{"time": 480, "pitch": 31, "duration": 119, "velocity": 127}, {"time": 958, "pitch": 31, "duration": 125, "velocity": 127}, {"time": 1438, "pitch": 31, "duration": 115, "velocity": 127}, {"time": 1918, "pitch": 31, "duration": 96, "velocity": 127}, {"time": 2397, "pitch": 36, "duration": 198, "velocity": 127}, {"time": 2397, "pitch": 42, "duration": 163, "velocity": 120}, {"time": 2397, "pitch": 49, "duration": 111, "velocity": 100}, {"time": 2877, "pitch": 38, "duration": 167, "velocity": 127}, {"time": 2877, "pitch": 42, "duration": 184, "velocity": 120}, {"time": 2877, "pitch": 43, "duration": 133, "velocity": 120}, {"time": 3357, "pitch": 36, "duration": 108, "velocity": 127}, {"time": 3357, "pitch": 42, "duration": 206, "velocity": 120}, {"time": 3597, "pitch": 36, "duration": 135, "velocity": 127}, {"time": 3836, "pitch": 38, "duration": 154, "velocity": 127}, {"time": 3836, "pitch": 42, "duration": 184, "velocity": 120}, {"time": 3836, "pitch": 43, "duration": 128, "velocity": 120}, {"time": 4076, "pitch": 36, "duration": 109, "velocity": 127}, {"time": 4316, "pitch": 36, "duration": 211, "velocity": 127}, {"time": 4316, "pitch": 42, "duration": 175, "velocity": 120}, {"time": 4796, "pitch": 38, "duration": 116, "velocity": 127}, {"time": 4796, "pitch": 42, "duration": 210, "velocity": 120}, {"time": 4796, "pitch": 43, "duration": 132, "velocity": 122}, {"time": 5276, "pitch": 36, "duration": 95, "velocity": 127}, {"time": 5276, "pitch": 42, "duration": 198, "velocity": 120}, {"time": 5515, "pitch": 36, "duration": 135, "velocity": 127}, {"time": 5755, "pitch": 38, "duration": 134, "velocity": 127}, {"time": 5755, "pitch": 42, "duration": 206, "velocity": 120}, {"time": 5755, "pitch": 43, "duration": 137, "velocity": 122}, {"time": 5995, "pitch": 36, "duration": 90, "velocity": 127}, {"time": 6235, "pitch": 36, "duration": 205, "velocity": 127}, {"time": 6235, "pitch": 42, "duration": 186, "velocity": 120}, {"time": 6715, "pitch": 38, "duration": 127, "velocity": 127}, {"time": 6715, "pitch": 42, "duration": 183, "velocity": 120}, {"time": 6715, "pitch": 43, "duration": 131, "velocity": 116}, {"time": 7194, "pitch": 36, "duration": 198, "velocity": 127}, {"time": 7194, "pitch": 42, "duration": 170, "velocity": 120}, {"time": 7674, "pitch": 38, "duration": 144, "velocity": 127}, {"time": 7674, "pitch": 42, "duration": 171, "velocity": 120}, {"time": 7674, "pitch": 43, "duration": 126, "velocity": 116}, {"time": 7920, "pitch": 36, "duration": 106, "velocity": 127}, {"time": 8166, "pitch": 36, "duration": 256, "velocity": 127}, {"time": 8166, "pitch": 42, "duration": 179, "velocity": 120}, {"time": 8646, "pitch": 38, "duration": 160, "velocity": 127}, {"time": 8646, "pitch": 42, "duration": 181, "velocity": 120}, {"time": 8646, "pitch": 43, "duration": 142, "velocity": 116}, {"time": 9126, "pitch": 36, "duration": 120, "velocity": 127}, {"time": 9126, "pitch": 42, "duration": 195, "velocity": 120}, {"time": 9365, "pitch": 36, "duration": 256, "velocity": 127}, {"time": 9365, "pitch": 41, "duration": 118, "velocity": 106}, {"time": 9365, "pitch": 49, "duration": 133, "velocity": 100}, {"time": 9605, "pitch": 38, "duration": 166, "velocity": 127}, {"time": 9605, "pitch": 42, "duration": 170, "velocity": 120}, {"time": 9605, "pitch": 43, "duration": 128, "velocity": 114}, {"time": 9845, "pitch": 36, "duration": 109, "velocity": 127}, {"time": 9845, "pitch": 57, "duration": 113, "velocity": 100}, {"time": 10085, "pitch": 36, "duration": 262, "velocity": 127}, {"time": 10085, "pitch": 49, "duration": 150, "velocity": 100}, {"time": 10565, "pitch": 38, "duration": 153, "velocity": 127}, {"time": 10565, "pitch": 42, "duration": 185, "velocity": 120}, {"time": 10565, "pitch": 43, "duration": 133, "velocity": 120}, {"time": 11044, "pitch": 36, "duration": 167, "velocity": 127}, {"time": 11044, "pitch": 42, "duration": 196, "velocity": 120}, {"time": 11524, "pitch": 38, "duration": 141, "velocity": 127}, {"time": 11524, "pitch": 42, "duration": 193, "velocity": 120}, {"time": 11524, "pitch": 43, "duration": 128, "velocity": 120}, {"time": 11764, "pitch": 36, "duration": 115, "velocity": 127}, {"time": 12004, "pitch": 36, "duration": 166, "velocity": 127}, {"time": 12004, "pitch": 42, "duration": 171, "velocity": 120}, {"time": 12483, "pitch": 38, "duration": 154, "velocity": 127}, {"time": 12483, "pitch": 42, "duration": 177, "velocity": 120}, {"time": 12483, "pitch": 43, "duration": 132, "velocity": 122}, {"time": 12963, "pitch": 36, "duration": 109, "velocity": 127}, {"time": 12963, "pitch": 42, "duration": 179, "velocity": 120}, {"time": 13203, "pitch": 36, "duration": 180, "velocity": 127}, {"time": 13443, "pitch": 38, "duration": 154, "velocity": 127}, {"time": 13443, "pitch": 42, "duration": 180, "velocity": 120}, {"time": 13443, "pitch": 43, "duration": 137, "velocity": 122}, {"time": 13683, "pitch": 36, "duration": 120, "velocity": 127}, {"time": 13922, "pitch": 36, "duration": 230, "velocity": 127}, {"time": 13922, "pitch": 42, "duration": 186, "velocity": 120}, {"time": 14402, "pitch": 38, "duration": 141, "velocity": 127}, {"time": 14402, "pitch": 42, "duration": 201, "velocity": 120}, {"time": 14402, "pitch": 43, "duration": 132, "velocity": 116}, {"time": 14882, "pitch": 36, "duration": 160, "velocity": 127}, {"time": 14882, "pitch": 42, "duration": 204, "velocity": 120}, {"time": 15361, "pitch": 38, "duration": 128, "velocity": 127}, {"time": 15361, "pitch": 42, "duration": 171, "velocity": 120}, {"time": 15361, "pitch": 43, "duration": 123, "velocity": 116}, {"time": 15601, "pitch": 36, "duration": 128, "velocity": 127}, {"time": 15841, "pitch": 36, "duration": 282, "velocity": 127}, {"time": 16081, "pitch": 49, "duration": 119, "velocity": 100}, {"time": 16321, "pitch": 38, "duration": 141, "velocity": 127}, {"time": 16321, "pitch": 43, "duration": 142, "velocity": 116}, {"time": 16561, "pitch": 57, "duration": 133, "velocity": 100}, {"time": 16800, "pitch": 36, "duration": 121, "velocity": 127}, {"time": 16800, "pitch": 49, "duration": 133, "velocity": 100}, {"time": 17040, "pitch": 36, "duration": 224, "velocity": 127}, {"time": 17040, "pitch": 41, "duration": 118, "velocity": 106}, {"time": 17040, "pitch": 57, "duration": 171, "velocity": 100}, {"time": 17280, "pitch": 38, "duration": 128, "velocity": 127}, {"time": 17280, "pitch": 43, "duration": 128, "velocity": 114}, {"time": 17280, "pitch": 49, "duration": 150, "velocity": 100}, {"time": 17520, "pitch": 36, "duration": 96, "velocity": 127}, {"time": 17520, "pitch": 57, "duration": 126, "velocity": 100}, {"time": 17640, "pitch": 38, "duration": 84, "velocity": 127}, {"time": 17760, "pitch": 36, "duration": 153, "velocity": 127}, {"time": 17760, "pitch": 46, "duration": 163, "velocity": 120}, {"time": 17760, "pitch": 49, "duration": 122, "velocity": 100}, {"time": 17760, "pitch": 56, "duration": 186, "velocity": 127}, {"time": 17760, "pitch": 57, "duration": 104, "velocity": 100}, {"time": 18239, "pitch": 38, "duration": 141, "velocity": 127}, {"time": 18239, "pitch": 46, "duration": 209, "velocity": 120}, {"time": 18239, "pitch": 56, "duration": 173, "velocity": 127}, {"time": 18719, "pitch": 36, "duration": 109, "velocity": 127}, {"time": 18719, "pitch": 46, "duration": 228, "velocity": 120}, {"time": 18719, "pitch": 56, "duration": 186, "velocity": 127}, {"time": 18959, "pitch": 36, "duration": 122, "velocity": 127}, {"time": 19199, "pitch": 38, "duration": 147, "velocity": 127}, {"time": 19199, "pitch": 46, "duration": 206, "velocity": 120}, {"time": 19199, "pitch": 56, "duration": 186, "velocity": 127}, {"time": 19439, "pitch": 36, "duration": 115, "velocity": 127}, {"time": 19679, "pitch": 36, "duration": 179, "velocity": 127}, {"time": 19679, "pitch": 46, "duration": 217, "velocity": 120}, {"time": 19679, "pitch": 56, "duration": 204, "velocity": 127}, {"time": 20158, "pitch": 36, "duration": 141, "velocity": 127}, {"time": 20158, "pitch": 38, "duration": 121, "velocity": 127}, {"time": 20158, "pitch": 46, "duration": 234, "velocity": 120}, {"time": 20158, "pitch": 56, "duration": 218, "velocity": 127}, {"time": 20638, "pitch": 36, "duration": 179, "velocity": 127}, {"time": 20638, "pitch": 46, "duration": 257, "velocity": 120}, {"time": 20638, "pitch": 56, "duration": 230, "velocity": 127}, {"time": 21118, "pitch": 36, "duration": 101, "velocity": 127}, {"time": 21118, "pitch": 38, "duration": 121, "velocity": 127}, {"time": 21118, "pitch": 46, "duration": 254, "velocity": 120}, {"time": 21118, "pitch": 56, "duration": 130, "velocity": 127}, {"time": 21357, "pitch": 36, "duration": 76, "velocity": 127}, {"time": 21597, "pitch": 36, "duration": 211, "velocity": 127}, {"time": 21597, "pitch": 46, "duration": 204, "velocity": 120}, {"time": 21597, "pitch": 56, "duration": 147, "velocity": 127}, {"time": 22077, "pitch": 36, "duration": 128, "velocity": 127}, {"time": 22077, "pitch": 38, "duration": 122, "velocity": 127}, {"time": 22077, "pitch": 46, "duration": 228, "velocity": 120}, {"time": 22077, "pitch": 56, "duration": 192, "velocity": 127}, {"time": 22557, "pitch": 36, "duration": 166, "velocity": 127}, {"time": 22557, "pitch": 46, "duration": 222, "velocity": 120}, {"time": 22557, "pitch": 56, "duration": 204, "velocity": 127}, {"time": 23036, "pitch": 36, "duration": 128, "velocity": 127}, {"time": 23036, "pitch": 38, "duration": 147, "velocity": 127}, {"time": 23036, "pitch": 46, "duration": 230, "velocity": 120}, {"time": 23036, "pitch": 56, "duration": 185, "velocity": 127}, {"time": 23516, "pitch": 36, "duration": 135, "velocity": 127}, {"time": 23516, "pitch": 46, "duration": 195, "velocity": 120}, {"time": 23516, "pitch": 56, "duration": 192, "velocity": 127}, {"time": 23996, "pitch": 36, "duration": 167, "velocity": 127}, {"time": 23996, "pitch": 38, "duration": 128, "velocity": 127}, {"time": 23996, "pitch": 46, "duration": 181, "velocity": 120}, {"time": 23996, "pitch": 56, "duration": 197, "velocity": 127}, {"time": 24475, "pitch": 36, "duration": 96, "velocity": 127}, {"time": 24475, "pitch": 46, "duration": 193, "velocity": 120}, {"time": 24475, "pitch": 56, "duration": 205, "velocity": 127}, {"time": 24715, "pitch": 36, "duration": 103, "velocity": 127}, {"time": 24955, "pitch": 38, "duration": 128, "velocity": 127}, {"time": 24955, "pitch": 46, "duration": 172, "velocity": 120}, {"time": 24955, "pitch": 56, "duration": 148, "velocity": 127}, {"time": 25195, "pitch": 36, "duration": 96, "velocity": 127}, {"time": 25435, "pitch": 36, "duration": 192, "velocity": 127}, {"time": 25435, "pitch": 46, "duration": 138, "velocity": 120}, {"time": 25435, "pitch": 49, "duration": 122, "velocity": 100}, {"time": 25435, "pitch": 56, "duration": 186, "velocity": 127}, {"time": 25435, "pitch": 57, "duration": 104, "velocity": 100}, {"time": 25914, "pitch": 36, "duration": 154, "velocity": 127}, {"time": 25914, "pitch": 38, "duration": 154, "velocity": 127}, {"time": 25914, "pitch": 46, "duration": 149, "velocity": 120}, {"time": 25914, "pitch": 56, "duration": 173, "velocity": 127}, {"time": 26394, "pitch": 36, "duration": 224, "velocity": 127}, {"time": 26394, "pitch": 46, "duration": 180, "velocity": 120}, {"time": 26394, "pitch": 56, "duration": 186, "velocity": 127}, {"time": 26874, "pitch": 36, "duration": 204, "velocity": 127}, {"time": 26874, "pitch": 38, "duration": 150, "velocity": 127}, {"time": 26874, "pitch": 46, "duration": 169, "velocity": 120}, {"time": 26874, "pitch": 56, "duration": 190, "velocity": 127}, {"time": 27366, "pitch": 36, "duration": 173, "velocity": 127}, {"time": 27366, "pitch": 46, "duration": 172, "velocity": 120}, {"time": 27366, "pitch": 56, "duration": 205, "velocity": 127}, {"time": 27846, "pitch": 36, "duration": 185, "velocity": 127}, {"time": 27846, "pitch": 38, "duration": 179, "velocity": 127}, {"time": 27846, "pitch": 46, "duration": 158, "velocity": 120}, {"time": 27846, "pitch": 56, "duration": 218, "velocity": 127}, {"time": 28325, "pitch": 36, "duration": 141, "velocity": 127}, {"time": 28325, "pitch": 46, "duration": 145, "velocity": 120}, {"time": 28325, "pitch": 56, "duration": 230, "velocity": 127}, {"time": 28565, "pitch": 36, "duration": 108, "velocity": 127}, {"time": 28805, "pitch": 36, "duration": 128, "velocity": 127}, {"time": 28805, "pitch": 38, "duration": 153, "velocity": 127}, {"time": 28805, "pitch": 46, "duration": 153, "velocity": 120}, {"time": 28805, "pitch": 56, "duration": 131, "velocity": 127}, {"time": 29045, "pitch": 36, "duration": 83, "velocity": 127}, {"time": 29285, "pitch": 36, "duration": 211, "velocity": 127}, {"time": 29285, "pitch": 46, "duration": 155, "velocity": 120}, {"time": 29285, "pitch": 56, "duration": 147, "velocity": 127}, {"time": 29764, "pitch": 36, "duration": 186, "velocity": 127}, {"time": 29764, "pitch": 38, "duration": 160, "velocity": 127}, {"time": 29764, "pitch": 46, "duration": 146, "velocity": 120}, {"time": 29764, "pitch": 56, "duration": 192, "velocity": 127}, {"time": 30244, "pitch": 36, "duration": 186, "velocity": 127}, {"time": 30244, "pitch": 46, "duration": 150, "velocity": 120}, {"time": 30244, "pitch": 56, "duration": 205, "velocity": 127}, {"time": 30724, "pitch": 36, "duration": 179, "velocity": 127}, {"time": 30724, "pitch": 38, "duration": 186, "velocity": 127}, {"time": 30724, "pitch": 46, "duration": 150, "velocity": 120}, {"time": 30724, "pitch": 56, "duration": 185, "velocity": 127}, {"time": 31203, "pitch": 36, "duration": 301, "velocity": 127}, {"time": 31203, "pitch": 46, "duration": 144, "velocity": 120}, {"time": 31203, "pitch": 56, "duration": 192, "velocity": 127}, {"time": 31683, "pitch": 36, "duration": 192, "velocity": 127}, {"time": 31683, "pitch": 38, "duration": 173, "velocity": 127}, {"time": 31683, "pitch": 46, "duration": 146, "velocity": 120}, {"time": 31683, "pitch": 56, "duration": 198, "velocity": 127}, {"time": 32163, "pitch": 36, "duration": 218, "velocity": 127}, {"time": 32163, "pitch": 46, "duration": 146, "velocity": 120}, {"time": 32163, "pitch": 56, "duration": 205, "velocity": 127}, {"time": 32403, "pitch": 38, "duration": 121, "velocity": 127}, {"time": 32642, "pitch": 38, "duration": 90, "velocity": 127}, {"time": 32642, "pitch": 46, "duration": 154, "velocity": 120}, {"time": 32642, "pitch": 56, "duration": 148, "velocity": 127}, {"time": 32882, "pitch": 36, "duration": 70, "velocity": 127}, {"time": 32882, "pitch": 38, "duration": 115, "velocity": 127}, {"time": 33122, "pitch": 36, "duration": 153, "velocity": 127}, {"time": 33122, "pitch": 46, "duration": 144, "velocity": 120}, {"time": 33122, "pitch": 49, "duration": 122, "velocity": 100}, {"time": 33122, "pitch": 56, "duration": 186, "velocity": 127}, {"time": 33122, "pitch": 57, "duration": 104, "velocity": 100}, {"time": 33602, "pitch": 38, "duration": 141, "velocity": 127}, {"time": 33602, "pitch": 46, "duration": 138, "velocity": 120}, {"time": 33602, "pitch": 56, "duration": 173, "velocity": 127}, {"time": 34082, "pitch": 36, "duration": 108, "velocity": 127}, {"time": 34082, "pitch": 46, "duration": 144, "velocity": 120}, {"time": 34082, "pitch": 56, "duration": 185, "velocity": 127}, {"time": 34321, "pitch": 36, "duration": 122, "velocity": 127}, {"time": 34561, "pitch": 38, "duration": 147, "velocity": 127}, {"time": 34561, "pitch": 46, "duration": 127, "velocity": 120}, {"time": 34561, "pitch": 56, "duration": 186, "velocity": 127}, {"time": 34801, "pitch": 36, "duration": 115, "velocity": 127}, {"time": 35041, "pitch": 36, "duration": 180, "velocity": 127}, {"time": 35041, "pitch": 46, "duration": 115, "velocity": 120}, {"time": 35041, "pitch": 56, "duration": 205, "velocity": 127}, {"time": 35521, "pitch": 36, "duration": 140, "velocity": 127}, {"time": 35521, "pitch": 38, "duration": 120, "velocity": 127}, {"time": 35521, "pitch": 46, "duration": 98, "velocity": 120}, {"time": 35521, "pitch": 56, "duration": 217, "velocity": 127}, {"time": 36000, "pitch": 36, "duration": 179, "velocity": 127}, {"time": 36000, "pitch": 46, "duration": 88, "velocity": 120}, {"time": 36000, "pitch": 56, "duration": 230, "velocity": 127}, {"time": 36480, "pitch": 36, "duration": 102, "velocity": 127}, {"time": 36480, "pitch": 38, "duration": 122, "velocity": 127}, {"time": 36480, "pitch": 46, "duration": 95, "velocity": 120}, {"time": 36480, "pitch": 56, "duration": 131, "velocity": 127}, {"time": 36720, "pitch": 36, "duration": 76, "velocity": 127}, {"time": 36960, "pitch": 36, "duration": 210, "velocity": 127}, {"time": 36960, "pitch": 46, "duration": 143, "velocity": 120}, {"time": 36960, "pitch": 56, "duration": 146, "velocity": 127}, {"time": 37439, "pitch": 36, "duration": 128, "velocity": 127}, {"time": 37439, "pitch": 38, "duration": 122, "velocity": 127}, {"time": 37439, "pitch": 46, "duration": 138, "velocity": 120}, {"time": 37439, "pitch": 56, "duration": 192, "velocity": 127}, {"time": 37919, "pitch": 36, "duration": 167, "velocity": 127}, {"time": 37919, "pitch": 46, "duration": 145, "velocity": 120}, {"time": 37919, "pitch": 56, "duration": 205, "velocity": 127}, {"time": 38399, "pitch": 36, "duration": 128, "velocity": 127}, {"time": 38399, "pitch": 38, "duration": 147, "velocity": 127}, {"time": 38399, "pitch": 46, "duration": 127, "velocity": 120}, {"time": 38399, "pitch": 56, "duration": 185, "velocity": 127}, {"time": 38878, "pitch": 36, "duration": 135, "velocity": 127}, {"time": 38878, "pitch": 46, "duration": 115, "velocity": 120}, {"time": 38878, "pitch": 56, "duration": 192, "velocity": 127}, {"time": 39358, "pitch": 36, "duration": 167, "velocity": 127}, {"time": 39358, "pitch": 38, "duration": 128, "velocity": 127}, {"time": 39358, "pitch": 46, "duration": 99, "velocity": 120}, {"time": 39358, "pitch": 56, "duration": 198, "velocity": 127}, {"time": 39838, "pitch": 36, "duration": 96, "velocity": 127}, {"time": 39838, "pitch": 46, "duration": 88, "velocity": 120}, {"time": 39838, "pitch": 56, "duration": 205, "velocity": 127}, {"time": 40078, "pitch": 36, "duration": 102, "velocity": 127}, {"time": 40317, "pitch": 38, "duration": 128, "velocity": 127}, {"time": 40317, "pitch": 46, "duration": 95, "velocity": 120}, {"time": 40317, "pitch": 56, "duration": 148, "velocity": 127}, {"time": 40557, "pitch": 36, "duration": 96, "velocity": 127}, {"time": 40797, "pitch": 36, "duration": 192, "velocity": 127}, {"time": 40797, "pitch": 46, "duration": 144, "velocity": 120}, {"time": 40797, "pitch": 56, "duration": 186, "velocity": 127}, {"time": 41277, "pitch": 36, "duration": 154, "velocity": 127}, {"time": 41277, "pitch": 38, "duration": 154, "velocity": 127}, {"time": 41277, "pitch": 46, "duration": 138, "velocity": 120}, {"time": 41277, "pitch": 56, "duration": 173, "velocity": 127}, {"time": 41756, "pitch": 36, "duration": 224, "velocity": 127}, {"time": 41756, "pitch": 46, "duration": 145, "velocity": 120}, {"time": 41756, "pitch": 56, "duration": 186, "velocity": 127}, {"time": 42236, "pitch": 36, "duration": 199, "velocity": 127}, {"time": 42236, "pitch": 38, "duration": 147, "velocity": 127}, {"time": 42236, "pitch": 46, "duration": 127, "velocity": 120}, {"time": 42236, "pitch": 56, "duration": 186, "velocity": 127}, {"time": 42716, "pitch": 36, "duration": 173, "velocity": 127}, {"time": 42716, "pitch": 46, "duration": 115, "velocity": 120}, {"time": 42716, "pitch": 56, "duration": 205, "velocity": 127}, {"time": 43195, "pitch": 36, "duration": 185, "velocity": 127}, {"time": 43195, "pitch": 38, "duration": 179, "velocity": 127}, {"time": 43195, "pitch": 46, "duration": 99, "velocity": 120}, {"time": 43195, "pitch": 56, "duration": 218, "velocity": 127}, {"time": 43675, "pitch": 36, "duration": 141, "velocity": 127}, {"time": 43675, "pitch": 46, "duration": 88, "velocity": 120}, {"time": 43675, "pitch": 56, "duration": 230, "velocity": 127}, {"time": 43915, "pitch": 36, "duration": 108, "velocity": 127}, {"time": 44155, "pitch": 36, "duration": 128, "velocity": 127}, {"time": 44155, "pitch": 38, "duration": 153, "velocity": 127}, {"time": 44155, "pitch": 46, "duration": 95, "velocity": 120}, {"time": 44155, "pitch": 56, "duration": 131, "velocity": 127}, {"time": 44395, "pitch": 36, "duration": 83, "velocity": 127}, {"time": 44634, "pitch": 36, "duration": 211, "velocity": 127}, {"time": 44634, "pitch": 46, "duration": 144, "velocity": 120}, {"time": 44634, "pitch": 56, "duration": 147, "velocity": 127}, {"time": 45114, "pitch": 36, "duration": 186, "velocity": 127}, {"time": 45114, "pitch": 38, "duration": 160, "velocity": 127}, {"time": 45114, "pitch": 46, "duration": 138, "velocity": 120}, {"time": 45114, "pitch": 56, "duration": 192, "velocity": 127}, {"time": 45594, "pitch": 36, "duration": 191, "velocity": 127}, {"time": 45594, "pitch": 46, "duration": 148, "velocity": 120}, {"time": 45594, "pitch": 56, "duration": 210, "velocity": 127}, {"time": 46086, "pitch": 36, "duration": 179, "velocity": 127}, {"time": 46086, "pitch": 38, "duration": 186, "velocity": 127}, {"time": 46086, "pitch": 46, "duration": 127, "velocity": 120}, {"time": 46086, "pitch": 56, "duration": 185, "velocity": 127}, {"time": 46566, "pitch": 36, "duration": 301, "velocity": 127}, {"time": 46566, "pitch": 46, "duration": 115, "velocity": 120}, {"time": 46566, "pitch": 56, "duration": 192, "velocity": 127}, {"time": 47045, "pitch": 36, "duration": 192, "velocity": 127}, {"time": 47045, "pitch": 38, "duration": 173, "velocity": 127}, {"time": 47045, "pitch": 46, "duration": 99, "velocity": 120}, {"time": 47045, "pitch": 56, "duration": 198, "velocity": 127}, {"time": 47525, "pitch": 36, "duration": 218, "velocity": 127}, {"time": 47525, "pitch": 46, "duration": 88, "velocity": 120}, {"time": 47525, "pitch": 56, "duration": 205, "velocity": 127}, {"time": 47765, "pitch": 38, "duration": 121, "velocity": 127}, {"time": 48005, "pitch": 38, "duration": 90, "velocity": 127}, {"time": 48005, "pitch": 46, "duration": 95, "velocity": 120}, {"time": 48005, "pitch": 56, "duration": 148, "velocity": 127}, {"time": 48245, "pitch": 36, "duration": 70, "velocity": 127}, {"time": 48245, "pitch": 38, "duration": 115, "velocity": 127}, {"time": 48485, "pitch": 36, "duration": 152, "velocity": 127}, {"time": 48485, "pitch": 46, "duration": 143, "velocity": 120}, {"time": 48485, "pitch": 49, "duration": 121, "velocity": 100}, {"time": 48485, "pitch": 56, "duration": 185, "velocity": 127}, {"time": 48485, "pitch": 57, "duration": 103, "velocity": 100}, {"time": 48964, "pitch": 38, "duration": 141, "velocity": 127}, {"time": 48964, "pitch": 46, "duration": 138, "velocity": 120}, {"time": 48964, "pitch": 56, "duration": 173, "velocity": 127}, {"time": 49444, "pitch": 36, "duration": 109, "velocity": 127}, {"time": 49444, "pitch": 46, "duration": 145, "velocity": 120}, {"time": 49444, "pitch": 56, "duration": 186, "velocity": 127}, {"time": 49684, "pitch": 36, "duration": 122, "velocity": 127}, {"time": 49924, "pitch": 38, "duration": 146, "velocity": 127}, {"time": 49924, "pitch": 46, "duration": 126, "velocity": 120}, {"time": 49924, "pitch": 56, "duration": 185, "velocity": 127}, {"time": 50163, "pitch": 36, "duration": 115, "velocity": 127}, {"time": 50403, "pitch": 36, "duration": 180, "velocity": 127}, {"time": 50403, "pitch": 46, "duration": 115, "velocity": 120}, {"time": 50403, "pitch": 56, "duration": 205, "velocity": 127}, {"time": 50883, "pitch": 36, "duration": 141, "velocity": 127}, {"time": 50883, "pitch": 38, "duration": 121, "velocity": 127}, {"time": 50883, "pitch": 46, "duration": 99, "velocity": 120}, {"time": 50883, "pitch": 56, "duration": 218, "velocity": 127}, {"time": 51363, "pitch": 36, "duration": 178, "velocity": 127}, {"time": 51363, "pitch": 46, "duration": 88, "velocity": 120}, {"time": 51363, "pitch": 56, "duration": 229, "velocity": 127}, {"time": 51842, "pitch": 36, "duration": 102, "velocity": 127}, {"time": 51842, "pitch": 38, "duration": 122, "velocity": 127}, {"time": 51842, "pitch": 46, "duration": 95, "velocity": 120}, {"time": 51842, "pitch": 56, "duration": 131, "velocity": 127}, {"time": 52082, "pitch": 36, "duration": 76, "velocity": 127}, {"time": 52322, "pitch": 36, "duration": 211, "velocity": 127}, {"time": 52322, "pitch": 46, "duration": 144, "velocity": 120}, {"time": 52322, "pitch": 56, "duration": 147, "velocity": 127}, {"time": 52802, "pitch": 36, "duration": 128, "velocity": 127}, {"time": 52802, "pitch": 38, "duration": 122, "velocity": 127}, {"time": 52802, "pitch": 46, "duration": 138, "velocity": 120}, {"time": 52802, "pitch": 56, "duration": 192, "velocity": 127}, {"time": 53281, "pitch": 36, "duration": 167, "velocity": 127}, {"time": 53281, "pitch": 46, "duration": 145, "velocity": 120}, {"time": 53281, "pitch": 56, "duration": 205, "velocity": 127}, {"time": 53761, "pitch": 36, "duration": 128, "velocity": 127}, {"time": 53761, "pitch": 38, "duration": 147, "velocity": 127}, {"time": 53761, "pitch": 46, "duration": 127, "velocity": 120}, {"time": 53761, "pitch": 56, "duration": 185, "velocity": 127}, {"time": 54241, "pitch": 36, "duration": 135, "velocity": 127}, {"time": 54241, "pitch": 46, "duration": 115, "velocity": 120}, {"time": 54241, "pitch": 56, "duration": 192, "velocity": 127}, {"time": 54720, "pitch": 36, "duration": 167, "velocity": 127}, {"time": 54720, "pitch": 38, "duration": 128, "velocity": 127}, {"time": 54720, "pitch": 46, "duration": 99, "velocity": 120}, {"time": 54720, "pitch": 56, "duration": 198, "velocity": 127}, {"time": 55200, "pitch": 36, "duration": 96, "velocity": 127}, {"time": 55200, "pitch": 46, "duration": 88, "velocity": 120}, {"time": 55200, "pitch": 56, "duration": 205, "velocity": 127}, {"time": 55440, "pitch": 36, "duration": 103, "velocity": 127}, {"time": 55680, "pitch": 38, "duration": 128, "velocity": 127}, {"time": 55680, "pitch": 46, "duration": 95, "velocity": 120}, {"time": 55680, "pitch": 56, "duration": 148, "velocity": 127}, {"time": 55920, "pitch": 36, "duration": 95, "velocity": 127}, {"time": 56159, "pitch": 36, "duration": 192, "velocity": 127}, {"time": 56159, "pitch": 46, "duration": 144, "velocity": 120}, {"time": 56159, "pitch": 56, "duration": 186, "velocity": 127}, {"time": 56639, "pitch": 36, "duration": 154, "velocity": 127}, {"time": 56639, "pitch": 38, "duration": 154, "velocity": 127}, {"time": 56639, "pitch": 46, "duration": 138, "velocity": 120}, {"time": 56639, "pitch": 56, "duration": 173, "velocity": 127}, {"time": 57119, "pitch": 36, "duration": 224, "velocity": 127}, {"time": 57119, "pitch": 46, "duration": 145, "velocity": 120}, {"time": 57119, "pitch": 56, "duration": 186, "velocity": 127}, {"time": 57598, "pitch": 36, "duration": 199, "velocity": 127}, {"time": 57598, "pitch": 38, "duration": 147, "velocity": 127}, {"time": 57598, "pitch": 46, "duration": 127, "velocity": 120}, {"time": 57598, "pitch": 56, "duration": 186, "velocity": 127}, {"time": 58078, "pitch": 36, "duration": 173, "velocity": 127}, {"time": 58078, "pitch": 46, "duration": 115, "velocity": 120}, {"time": 58078, "pitch": 56, "duration": 205, "velocity": 127}, {"time": 58558, "pitch": 36, "duration": 185, "velocity": 127}, {"time": 58558, "pitch": 38, "duration": 179, "velocity": 127}, {"time": 58558, "pitch": 46, "duration": 99, "velocity": 120}, {"time": 58558, "pitch": 56, "duration": 218, "velocity": 127}, {"time": 59037, "pitch": 36, "duration": 141, "velocity": 127}, {"time": 59037, "pitch": 46, "duration": 88, "velocity": 120}, {"time": 59037, "pitch": 56, "duration": 230, "velocity": 127}, {"time": 59277, "pitch": 36, "duration": 108, "velocity": 127}, {"time": 59517, "pitch": 36, "duration": 128, "velocity": 127}, {"time": 59517, "pitch": 38, "duration": 153, "velocity": 127}, {"time": 59517, "pitch": 46, "duration": 95, "velocity": 120}, {"time": 59517, "pitch": 56, "duration": 131, "velocity": 127}, {"time": 59757, "pitch": 36, "duration": 83, "velocity": 127}, {"time": 59997, "pitch": 36, "duration": 211, "velocity": 127}, {"time": 59997, "pitch": 46, "duration": 144, "velocity": 120}, {"time": 59997, "pitch": 56, "duration": 147, "velocity": 127}, {"time": 60477, "pitch": 36, "duration": 185, "velocity": 127}, {"time": 60477, "pitch": 38, "duration": 159, "velocity": 127}, {"time": 60477, "pitch": 46, "duration": 137, "velocity": 120}, {"time": 60477, "pitch": 56, "duration": 191, "velocity": 127}, {"time": 60956, "pitch": 36, "duration": 186, "velocity": 127}, {"time": 60956, "pitch": 46, "duration": 145, "velocity": 120}, {"time": 60956, "pitch": 56, "duration": 205, "velocity": 127}, {"time": 61436, "pitch": 36, "duration": 179, "velocity": 127}, {"time": 61436, "pitch": 38, "duration": 186, "velocity": 127}, {"time": 61436, "pitch": 46, "duration": 127, "velocity": 120}, {"time": 61436, "pitch": 56, "duration": 185, "velocity": 127}, {"time": 61916, "pitch": 36, "duration": 300, "velocity": 127}, {"time": 61916, "pitch": 46, "duration": 114, "velocity": 120}, {"time": 61916, "pitch": 56, "duration": 191, "velocity": 127}, {"time": 62395, "pitch": 36, "duration": 192, "velocity": 127}, {"time": 62395, "pitch": 38, "duration": 173, "velocity": 127}, {"time": 62395, "pitch": 46, "duration": 99, "velocity": 120}, {"time": 62395, "pitch": 56, "duration": 198, "velocity": 127}, {"time": 62875, "pitch": 36, "duration": 218, "velocity": 127}, {"time": 62875, "pitch": 46, "duration": 88, "velocity": 120}, {"time": 62875, "pitch": 56, "duration": 205, "velocity": 127}, {"time": 63115, "pitch": 38, "duration": 121, "velocity": 127}, {"time": 63355, "pitch": 38, "duration": 90, "velocity": 127}, {"time": 63355, "pitch": 46, "duration": 95, "velocity": 120}, {"time": 63355, "pitch": 56, "duration": 147, "velocity": 127}, {"time": 63594, "pitch": 36, "duration": 70, "velocity": 127}, {"time": 63594, "pitch": 38, "duration": 115, "velocity": 127}, {"time": 63834, "pitch": 36, "duration": 153, "velocity": 127}, {"time": 63834, "pitch": 42, "duration": 98, "velocity": 120}, {"time": 63834, "pitch": 49, "duration": 122, "velocity": 100}, {"time": 63834, "pitch": 57, "duration": 104, "velocity": 100}, {"time": 64074, "pitch": 42, "duration": 96, "velocity": 120}, {"time": 64314, "pitch": 38, "duration": 144, "velocity": 127}, {"time": 64314, "pitch": 46, "duration": 162, "velocity": 120}, {"time": 64560, "pitch": 42, "duration": 86, "velocity": 120}, {"time": 64806, "pitch": 36, "duration": 109, "velocity": 127}, {"time": 64806, "pitch": 42, "duration": 99, "velocity": 120}, {"time": 65046, "pitch": 36, "duration": 122, "velocity": 127}, {"time": 65046, "pitch": 42, "duration": 98, "velocity": 120}, {"time": 65286, "pitch": 38, "duration": 147, "velocity": 127}, {"time": 65286, "pitch": 46, "duration": 139, "velocity": 120}, {"time": 65526, "pitch": 36, "duration": 115, "velocity": 127}, {"time": 65526, "pitch": 42, "duration": 98, "velocity": 120}, {"time": 65766, "pitch": 36, "duration": 179, "velocity": 127}, {"time": 65766, "pitch": 42, "duration": 87, "velocity": 120}, {"time": 66005, "pitch": 42, "duration": 84, "velocity": 120}, {"time": 66245, "pitch": 36, "duration": 141, "velocity": 127}, {"time": 66245, "pitch": 38, "duration": 121, "velocity": 127}, {"time": 66245, "pitch": 46, "duration": 133, "velocity": 120}, {"time": 66485, "pitch": 42, "duration": 115, "velocity": 120}, {"time": 66725, "pitch": 36, "duration": 179, "velocity": 127}, {"time": 66725, "pitch": 42, "duration": 102, "velocity": 120}, {"time": 66965, "pitch": 42, "duration": 92, "velocity": 120}, {"time": 67205, "pitch": 36, "duration": 102, "velocity": 127}, {"time": 67205, "pitch": 38, "duration": 122, "velocity": 127}, {"time": 67205, "pitch": 46, "duration": 130, "velocity": 120}, {"time": 67444, "pitch": 36, "duration": 76, "velocity": 127}, {"time": 67444, "pitch": 42, "duration": 137, "velocity": 120}, {"time": 67684, "pitch": 36, "duration": 211, "velocity": 127}, {"time": 67684, "pitch": 42, "duration": 105, "velocity": 120}, {"time": 67924, "pitch": 42, "duration": 95, "velocity": 120}, {"time": 68164, "pitch": 36, "duration": 128, "velocity": 127}, {"time": 68164, "pitch": 38, "duration": 122, "velocity": 127}, {"time": 68164, "pitch": 46, "duration": 145, "velocity": 120}, {"time": 68404, "pitch": 42, "duration": 111, "velocity": 120}, {"time": 68644, "pitch": 36, "duration": 167, "velocity": 127}, {"time": 68644, "pitch": 42, "duration": 98, "velocity": 120}, {"time": 68884, "pitch": 42, "duration": 88, "velocity": 120}, {"time": 69123, "pitch": 36, "duration": 128, "velocity": 127}, {"time": 69123, "pitch": 38, "duration": 147, "velocity": 127}, {"time": 69123, "pitch": 46, "duration": 162, "velocity": 120}, {"time": 69363, "pitch": 42, "duration": 99, "velocity": 120}, {"time": 69603, "pitch": 36, "duration": 135, "velocity": 127}, {"time": 69603, "pitch": 42, "duration": 108, "velocity": 120}, {"time": 69843, "pitch": 42, "duration": 105, "velocity": 120}, {"time": 70083, "pitch": 36, "duration": 167, "velocity": 127}, {"time": 70083, "pitch": 38, "duration": 128, "velocity": 127}, {"time": 70083, "pitch": 46, "duration": 136, "velocity": 120}, {"time": 70323, "pitch": 42, "duration": 112, "velocity": 120}, {"time": 70562, "pitch": 36, "duration": 96, "velocity": 127}, {"time": 70562, "pitch": 42, "duration": 98, "velocity": 120}, {"time": 70802, "pitch": 36, "duration": 103, "velocity": 127}, {"time": 70802, "pitch": 38, "duration": 143, "velocity": 127}, {"time": 70802, "pitch": 46, "duration": 124, "velocity": 120}, {"time": 70802, "pitch": 49, "duration": 119, "velocity": 100}, {"time": 71042, "pitch": 38, "duration": 128, "velocity": 127}, {"time": 71042, "pitch": 42, "duration": 114, "velocity": 120}, {"time": 71282, "pitch": 36, "duration": 96, "velocity": 127}, {"time": 71282, "pitch": 38, "duration": 128, "velocity": 127}, {"time": 71282, "pitch": 46, "duration": 126, "velocity": 120}, {"time": 71282, "pitch": 57, "duration": 113, "velocity": 100}, {"time": 71522, "pitch": 36, "duration": 192, "velocity": 127}, {"time": 71522, "pitch": 42, "duration": 106, "velocity": 120}, {"time": 71522, "pitch": 49, "duration": 140, "velocity": 100}, {"time": 71762, "pitch": 42, "duration": 93, "velocity": 120}, {"time": 72001, "pitch": 36, "duration": 154, "velocity": 127}, {"time": 72001, "pitch": 38, "duration": 154, "velocity": 127}, {"time": 72001, "pitch": 46, "duration": 137, "velocity": 120}, {"time": 72241, "pitch": 42, "duration": 119, "velocity": 120}, {"time": 72481, "pitch": 36, "duration": 224, "velocity": 127}, {"time": 72481, "pitch": 42, "duration": 106, "velocity": 120}, {"time": 72721, "pitch": 42, "duration": 85, "velocity": 120}, {"time": 72961, "pitch": 36, "duration": 199, "velocity": 127}, {"time": 72961, "pitch": 38, "duration": 147, "velocity": 127}, {"time": 72961, "pitch": 46, "duration": 132, "velocity": 120}, {"time": 73201, "pitch": 42, "duration": 112, "velocity": 120}, {"time": 73440, "pitch": 36, "duration": 173, "velocity": 127}, {"time": 73440, "pitch": 42, "duration": 98, "velocity": 120}, {"time": 73680, "pitch": 42, "duration": 93, "velocity": 120}, {"time": 73920, "pitch": 36, "duration": 185, "velocity": 127}, {"time": 73920, "pitch": 38, "duration": 179, "velocity": 127}, {"time": 73920, "pitch": 46, "duration": 141, "velocity": 120}, {"time": 74160, "pitch": 42, "duration": 105, "velocity": 120}, {"time": 74400, "pitch": 36, "duration": 141, "velocity": 127}, {"time": 74400, "pitch": 42, "duration": 92, "velocity": 120}, {"time": 74640, "pitch": 36, "duration": 108, "velocity": 127}, {"time": 74640, "pitch": 42, "duration": 102, "velocity": 120}, {"time": 74880, "pitch": 36, "duration": 127, "velocity": 127}, {"time": 74880, "pitch": 38, "duration": 152, "velocity": 127}, {"time": 74880, "pitch": 46, "duration": 144, "velocity": 120}, {"time": 75119, "pitch": 36, "duration": 83, "velocity": 127}, {"time": 75119, "pitch": 42, "duration": 102, "velocity": 120}, {"time": 75359, "pitch": 36, "duration": 211, "velocity": 127}, {"time": 75359, "pitch": 42, "duration": 101, "velocity": 120}, {"time": 75599, "pitch": 42, "duration": 109, "velocity": 120}, {"time": 75839, "pitch": 36, "duration": 186, "velocity": 127}, {"time": 75839, "pitch": 38, "duration": 160, "velocity": 127}, {"time": 75839, "pitch": 46, "duration": 172, "velocity": 120}, {"time": 76079, "pitch": 42, "duration": 111, "velocity": 120}, {"time": 76319, "pitch": 36, "duration": 185, "velocity": 127}, {"time": 76319, "pitch": 42, "duration": 118, "velocity": 120}, {"time": 76558, "pitch": 42, "duration": 102, "velocity": 120}, {"time": 76798, "pitch": 36, "duration": 179, "velocity": 127}, {"time": 76798, "pitch": 38, "duration": 186, "velocity": 127}, {"time": 76798, "pitch": 46, "duration": 158, "velocity": 120}, {"time": 77038, "pitch": 42, "duration": 119, "velocity": 120}, {"time": 77278, "pitch": 36, "duration": 202, "velocity": 127}, {"time": 77278, "pitch": 38, "duration": 106, "velocity": 127}, {"time": 77278, "pitch": 42, "duration": 111, "velocity": 120}, {"time": 77278, "pitch": 43, "duration": 60, "velocity": 127}, {"time": 77398, "pitch": 36, "duration": 82, "velocity": 127}, {"time": 77518, "pitch": 36, "duration": 61, "velocity": 127}, {"time": 77518, "pitch": 43, "duration": 60, "velocity": 127}, {"time": 77518, "pitch": 46, "duration": 149, "velocity": 120}, {"time": 77518, "pitch": 49, "duration": 119, "velocity": 100}, {"time": 77758, "pitch": 36, "duration": 88, "velocity": 127}, {"time": 77758, "pitch": 38, "duration": 172, "velocity": 127}, {"time": 77758, "pitch": 42, "duration": 99, "velocity": 120}, {"time": 77758, "pitch": 43, "duration": 60, "velocity": 127}, {"time": 77997, "pitch": 42, "duration": 109, "velocity": 120}, {"time": 77997, "pitch": 57, "duration": 133, "velocity": 100}, {"time": 78117, "pitch": 36, "duration": 96, "velocity": 127}, {"time": 78117, "pitch": 43, "duration": 60, "velocity": 127}, {"time": 78237, "pitch": 36, "duration": 205, "velocity": 127}, {"time": 78237, "pitch": 38, "duration": 115, "velocity": 127}, {"time": 78237, "pitch": 43, "duration": 60, "velocity": 127}, {"time": 78237, "pitch": 46, "duration": 137, "velocity": 120}, {"time": 78237, "pitch": 49, "duration": 133, "velocity": 100}, {"time": 78357, "pitch": 36, "duration": 85, "velocity": 127}, {"time": 78357, "pitch": 43, "duration": 60, "velocity": 127}, {"time": 78477, "pitch": 36, "duration": 121, "velocity": 127}, {"time": 78477, "pitch": 42, "duration": 107, "velocity": 120}, {"time": 78477, "pitch": 43, "duration": 60, "velocity": 127}, {"time": 78477, "pitch": 57, "duration": 171, "velocity": 100}, {"time": 78597, "pitch": 36, "duration": 1, "velocity": 127}, {"time": 78597, "pitch": 38, "duration": 45, "velocity": 127}, {"time": 78597, "pitch": 43, "duration": 60, "velocity": 127}, {"time": 78717, "pitch": 36, "duration": 103, "velocity": 127}, {"time": 78717, "pitch": 38, "duration": 90, "velocity": 127}, {"time": 78717, "pitch": 43, "duration": 60, "velocity": 127}, {"time": 78717, "pitch": 46, "duration": 140, "velocity": 120}, {"time": 78717, "pitch": 49, "duration": 150, "velocity": 100}, {"time": 78957, "pitch": 36, "duration": 70, "velocity": 127}, {"time": 78957, "pitch": 38, "duration": 115, "velocity": 127}, {"time": 78957, "pitch": 42, "duration": 124, "velocity": 120}, {"time": 78957, "pitch": 43, "duration": 60, "velocity": 127}, {"time": 78957, "pitch": 57, "duration": 126, "velocity": 100}, {"time": 79197, "pitch": 36, "duration": 153, "velocity": 127}, {"time": 79197, "pitch": 46, "duration": 144, "velocity": 120}, {"time": 79197, "pitch": 49, "duration": 122, "velocity": 100}, {"time": 79197, "pitch": 56, "duration": 186, "velocity": 127}, {"time": 79197, "pitch": 57, "duration": 104, "velocity": 100}, {"time": 79676, "pitch": 38, "duration": 141, "velocity": 127}, {"time": 79676, "pitch": 46, "duration": 138, "velocity": 120}, {"time": 79676, "pitch": 56, "duration": 173, "velocity": 127}, {"time": 80156, "pitch": 36, "duration": 109, "velocity": 127}, {"time": 80156, "pitch": 46, "duration": 145, "velocity": 120}, {"time": 80156, "pitch": 56, "duration": 186, "velocity": 127}, {"time": 80396, "pitch": 36, "duration": 122, "velocity": 127}, {"time": 80636, "pitch": 38, "duration": 147, "velocity": 127}, {"time": 80636, "pitch": 46, "duration": 127, "velocity": 120}, {"time": 80636, "pitch": 56, "duration": 186, "velocity": 127}, {"time": 80876, "pitch": 36, "duration": 114, "velocity": 127}, {"time": 81115, "pitch": 36, "duration": 180, "velocity": 127}, {"time": 81115, "pitch": 46, "duration": 115, "velocity": 120}, {"time": 81115, "pitch": 56, "duration": 205, "velocity": 127}, {"time": 81595, "pitch": 36, "duration": 141, "velocity": 127}, {"time": 81595, "pitch": 38, "duration": 121, "velocity": 127}, {"time": 81595, "pitch": 46, "duration": 99, "velocity": 120}, {"time": 81595, "pitch": 56, "duration": 218, "velocity": 127}, {"time": 82075, "pitch": 36, "duration": 179, "velocity": 127}, {"time": 82075, "pitch": 46, "duration": 88, "velocity": 120}, {"time": 82075, "pitch": 56, "duration": 230, "velocity": 127}, {"time": 82554, "pitch": 36, "duration": 102, "velocity": 127}, {"time": 82554, "pitch": 38, "duration": 122, "velocity": 127}, {"time": 82554, "pitch": 46, "duration": 95, "velocity": 120}, {"time": 82554, "pitch": 56, "duration": 131, "velocity": 127}, {"time": 82794, "pitch": 36, "duration": 76, "velocity": 127}, {"time": 83034, "pitch": 36, "duration": 211, "velocity": 127}, {"time": 83034, "pitch": 46, "duration": 144, "velocity": 120}, {"time": 83034, "pitch": 56, "duration": 147, "velocity": 127}, {"time": 83514, "pitch": 36, "duration": 131, "velocity": 127}, {"time": 83514, "pitch": 38, "duration": 125, "velocity": 127}, {"time": 83514, "pitch": 46, "duration": 141, "velocity": 120}, {"time": 83514, "pitch": 56, "duration": 197, "velocity": 127}, {"time": 84006, "pitch": 36, "duration": 167, "velocity": 127}, {"time": 84006, "pitch": 46, "duration": 145, "velocity": 120}, {"time": 84006, "pitch": 56, "duration": 205, "velocity": 127}, {"time": 84486, "pitch": 36, "duration": 128, "velocity": 127}, {"time": 84486, "pitch": 38, "duration": 147, "velocity": 127}, {"time": 84486, "pitch": 46, "duration": 127, "velocity": 120}, {"time": 84486, "pitch": 56, "duration": 185, "velocity": 127}, {"time": 84965, "pitch": 36, "duration": 135, "velocity": 127}, {"time": 84965, "pitch": 46, "duration": 115, "velocity": 120}, {"time": 84965, "pitch": 56, "duration": 192, "velocity": 127}, {"time": 85445, "pitch": 36, "duration": 167, "velocity": 127}, {"time": 85445, "pitch": 38, "duration": 128, "velocity": 127}, {"time": 85445, "pitch": 46, "duration": 99, "velocity": 120}, {"time": 85445, "pitch": 56, "duration": 198, "velocity": 127}, {"time": 85925, "pitch": 36, "duration": 96, "velocity": 127}, {"time": 85925, "pitch": 46, "duration": 88, "velocity": 120}, {"time": 85925, "pitch": 56, "duration": 205, "velocity": 127}, {"time": 86165, "pitch": 36, "duration": 103, "velocity": 127}, {"time": 86404, "pitch": 38, "duration": 128, "velocity": 127}, {"time": 86404, "pitch": 46, "duration": 95, "velocity": 120}, {"time": 86404, "pitch": 56, "duration": 148, "velocity": 127}, {"time": 86644, "pitch": 36, "duration": 96, "velocity": 127}, {"time": 86884, "pitch": 36, "duration": 192, "velocity": 127}, {"time": 86884, "pitch": 46, "duration": 144, "velocity": 120}, {"time": 86884, "pitch": 56, "duration": 186, "velocity": 127}, {"time": 87364, "pitch": 36, "duration": 154, "velocity": 127}, {"time": 87364, "pitch": 38, "duration": 154, "velocity": 127}, {"time": 87364, "pitch": 46, "duration": 138, "velocity": 120}, {"time": 87364, "pitch": 56, "duration": 173, "velocity": 127}, {"time": 87843, "pitch": 36, "duration": 224, "velocity": 127}, {"time": 87843, "pitch": 46, "duration": 145, "velocity": 120}, {"time": 87843, "pitch": 56, "duration": 186, "velocity": 127}, {"time": 88323, "pitch": 36, "duration": 199, "velocity": 127}, {"time": 88323, "pitch": 38, "duration": 147, "velocity": 127}, {"time": 88323, "pitch": 46, "duration": 127, "velocity": 120}, {"time": 88323, "pitch": 56, "duration": 186, "velocity": 127}, {"time": 88803, "pitch": 36, "duration": 173, "velocity": 127}, {"time": 88803, "pitch": 46, "duration": 115, "velocity": 120}, {"time": 88803, "pitch": 56, "duration": 205, "velocity": 127}, {"time": 89283, "pitch": 36, "duration": 184, "velocity": 127}, {"time": 89283, "pitch": 38, "duration": 178, "velocity": 127}, {"time": 89283, "pitch": 46, "duration": 98, "velocity": 120}, {"time": 89283, "pitch": 56, "duration": 217, "velocity": 127}, {"time": 89762, "pitch": 36, "duration": 141, "velocity": 127}, {"time": 89762, "pitch": 46, "duration": 88, "velocity": 120}, {"time": 89762, "pitch": 56, "duration": 230, "velocity": 127}, {"time": 90002, "pitch": 36, "duration": 108, "velocity": 127}, {"time": 90242, "pitch": 36, "duration": 128, "velocity": 127}, {"time": 90242, "pitch": 38, "duration": 153, "velocity": 127}, {"time": 90242, "pitch": 46, "duration": 95, "velocity": 120}, {"time": 90242, "pitch": 56, "duration": 131, "velocity": 127}, {"time": 90482, "pitch": 36, "duration": 83, "velocity": 127}, {"time": 90722, "pitch": 36, "duration": 210, "velocity": 127}, {"time": 90722, "pitch": 46, "duration": 143, "velocity": 120}, {"time": 90722, "pitch": 56, "duration": 146, "velocity": 127}, {"time": 91201, "pitch": 36, "duration": 186, "velocity": 127}, {"time": 91201, "pitch": 38, "duration": 160, "velocity": 127}, {"time": 91201, "pitch": 46, "duration": 138, "velocity": 120}, {"time": 91201, "pitch": 56, "duration": 192, "velocity": 127}, {"time": 91681, "pitch": 36, "duration": 186, "velocity": 127}, {"time": 91681, "pitch": 46, "duration": 145, "velocity": 120}, {"time": 91681, "pitch": 56, "duration": 205, "velocity": 127}, {"time": 92161, "pitch": 36, "duration": 178, "velocity": 127}, {"time": 92161, "pitch": 38, "duration": 185, "velocity": 127}, {"time": 92161, "pitch": 46, "duration": 127, "velocity": 120}, {"time": 92161, "pitch": 56, "duration": 184, "velocity": 127}, {"time": 92640, "pitch": 36, "duration": 301, "velocity": 127}, {"time": 92640, "pitch": 46, "duration": 115, "velocity": 120}, {"time": 92640, "pitch": 56, "duration": 192, "velocity": 127}, {"time": 93120, "pitch": 36, "duration": 192, "velocity": 127}, {"time": 93120, "pitch": 38, "duration": 173, "velocity": 127}, {"time": 93120, "pitch": 46, "duration": 99, "velocity": 120}, {"time": 93120, "pitch": 56, "duration": 198, "velocity": 127}, {"time": 93600, "pitch": 36, "duration": 217, "velocity": 127}, {"time": 93600, "pitch": 46, "duration": 88, "velocity": 120}, {"time": 93600, "pitch": 56, "duration": 204, "velocity": 127}, {"time": 93839, "pitch": 38, "duration": 121, "velocity": 127}, {"time": 94079, "pitch": 38, "duration": 90, "velocity": 127}, {"time": 94079, "pitch": 46, "duration": 95, "velocity": 120}, {"time": 94079, "pitch": 56, "duration": 148, "velocity": 127}, {"time": 94319, "pitch": 36, "duration": 70, "velocity": 127}, {"time": 94319, "pitch": 38, "duration": 115, "velocity": 127}, {"time": 94559, "pitch": 36, "duration": 153, "velocity": 127}, {"time": 94559, "pitch": 42, "duration": 98, "velocity": 120}, {"time": 94559, "pitch": 49, "duration": 122, "velocity": 100}, {"time": 94559, "pitch": 57, "duration": 104, "velocity": 100}, {"time": 94799, "pitch": 42, "duration": 96, "velocity": 120}, {"time": 95039, "pitch": 38, "duration": 141, "velocity": 127}, {"time": 95039, "pitch": 46, "duration": 158, "velocity": 120}, {"time": 95279, "pitch": 42, "duration": 83, "velocity": 120}, {"time": 95518, "pitch": 36, "duration": 109, "velocity": 127}, {"time": 95518, "pitch": 42, "duration": 99, "velocity": 120}, {"time": 95758, "pitch": 36, "duration": 122, "velocity": 127}, {"time": 95758, "pitch": 42, "duration": 98, "velocity": 120}, {"time": 95998, "pitch": 38, "duration": 147, "velocity": 127}, {"time": 95998, "pitch": 46, "duration": 139, "velocity": 120}, {"time": 96238, "pitch": 36, "duration": 115, "velocity": 127}, {"time": 96238, "pitch": 42, "duration": 98, "velocity": 120}, {"time": 96478, "pitch": 36, "duration": 180, "velocity": 127}, {"time": 96478, "pitch": 42, "duration": 87, "velocity": 120}, {"time": 96718, "pitch": 42, "duration": 83, "velocity": 120}, {"time": 96957, "pitch": 36, "duration": 141, "velocity": 127}, {"time": 96957, "pitch": 38, "duration": 121, "velocity": 127}, {"time": 96957, "pitch": 46, "duration": 133, "velocity": 120}, {"time": 97197, "pitch": 42, "duration": 115, "velocity": 120}, {"time": 97437, "pitch": 36, "duration": 179, "velocity": 127}, {"time": 97437, "pitch": 42, "duration": 102, "velocity": 120}, {"time": 97677, "pitch": 42, "duration": 92, "velocity": 120}, {"time": 97917, "pitch": 36, "duration": 102, "velocity": 127}, {"time": 97917, "pitch": 38, "duration": 122, "velocity": 127}, {"time": 97917, "pitch": 46, "duration": 130, "velocity": 120}, {"time": 98157, "pitch": 36, "duration": 76, "velocity": 127}, {"time": 98157, "pitch": 42, "duration": 136, "velocity": 120}, {"time": 98396, "pitch": 36, "duration": 211, "velocity": 127}, {"time": 98396, "pitch": 42, "duration": 105, "velocity": 120}, {"time": 98636, "pitch": 42, "duration": 95, "velocity": 120}, {"time": 98876, "pitch": 36, "duration": 128, "velocity": 127}, {"time": 98876, "pitch": 38, "duration": 122, "velocity": 127}, {"time": 98876, "pitch": 46, "duration": 145, "velocity": 120}, {"time": 99116, "pitch": 42, "duration": 111, "velocity": 120}, {"time": 99356, "pitch": 36, "duration": 167, "velocity": 127}, {"time": 99356, "pitch": 42, "duration": 98, "velocity": 120}, {"time": 99596, "pitch": 42, "duration": 89, "velocity": 120}, {"time": 99835, "pitch": 36, "duration": 128, "velocity": 127}, {"time": 99835, "pitch": 38, "duration": 147, "velocity": 127}, {"time": 99835, "pitch": 46, "duration": 162, "velocity": 120}, {"time": 100075, "pitch": 42, "duration": 99, "velocity": 120}, {"time": 100315, "pitch": 36, "duration": 135, "velocity": 127}, {"time": 100315, "pitch": 42, "duration": 108, "velocity": 120}, {"time": 100555, "pitch": 42, "duration": 105, "velocity": 120}, {"time": 100795, "pitch": 36, "duration": 167, "velocity": 127}, {"time": 100795, "pitch": 38, "duration": 128, "velocity": 127}, {"time": 100795, "pitch": 46, "duration": 136, "velocity": 120}, {"time": 101035, "pitch": 42, "duration": 113, "velocity": 120}, {"time": 101274, "pitch": 36, "duration": 96, "velocity": 127}, {"time": 101274, "pitch": 42, "duration": 98, "velocity": 120}, {"time": 101514, "pitch": 36, "duration": 103, "velocity": 127}, {"time": 101514, "pitch": 46, "duration": 124, "velocity": 120}, {"time": 101514, "pitch": 49, "duration": 119, "velocity": 100}, {"time": 101754, "pitch": 38, "duration": 128, "velocity": 127}, {"time": 101754, "pitch": 42, "duration": 114, "velocity": 120}, {"time": 101994, "pitch": 36, "duration": 96, "velocity": 127}, {"time": 101994, "pitch": 46, "duration": 126, "velocity": 120}, {"time": 101994, "pitch": 57, "duration": 113, "velocity": 100}, {"time": 102234, "pitch": 36, "duration": 197, "velocity": 127}, {"time": 102234, "pitch": 42, "duration": 108, "velocity": 120}, {"time": 102234, "pitch": 49, "duration": 143, "velocity": 100}, {"time": 102480, "pitch": 42, "duration": 95, "velocity": 120}, {"time": 102726, "pitch": 36, "duration": 154, "velocity": 127}, {"time": 102726, "pitch": 38, "duration": 154, "velocity": 127}, {"time": 102726, "pitch": 46, "duration": 137, "velocity": 120}, {"time": 102966, "pitch": 42, "duration": 119, "velocity": 120}, {"time": 103206, "pitch": 36, "duration": 224, "velocity": 127}, {"time": 103206, "pitch": 42, "duration": 106, "velocity": 120}, {"time": 103446, "pitch": 42, "duration": 85, "velocity": 120}, {"time": 103686, "pitch": 36, "duration": 198, "velocity": 127}, {"time": 103686, "pitch": 38, "duration": 146, "velocity": 127}, {"time": 103686, "pitch": 46, "duration": 131, "velocity": 120}, {"time": 103925, "pitch": 42, "duration": 112, "velocity": 120}, {"time": 104165, "pitch": 36, "duration": 173, "velocity": 127}, {"time": 104165, "pitch": 42, "duration": 98, "velocity": 120}, {"time": 104405, "pitch": 42, "duration": 93, "velocity": 120}, {"time": 104645, "pitch": 36, "duration": 185, "velocity": 127}, {"time": 104645, "pitch": 38, "duration": 179, "velocity": 127}, {"time": 104645, "pitch": 46, "duration": 141, "velocity": 120}, {"time": 104885, "pitch": 42, "duration": 105, "velocity": 120}, {"time": 105125, "pitch": 36, "duration": 140, "velocity": 127}, {"time": 105125, "pitch": 42, "duration": 92, "velocity": 120}, {"time": 105364, "pitch": 36, "duration": 108, "velocity": 127}, {"time": 105364, "pitch": 42, "duration": 102, "velocity": 120}, {"time": 105604, "pitch": 36, "duration": 128, "velocity": 127}, {"time": 105604, "pitch": 38, "duration": 153, "velocity": 127}, {"time": 105604, "pitch": 46, "duration": 145, "velocity": 120}, {"time": 105844, "pitch": 36, "duration": 83, "velocity": 127}, {"time": 105844, "pitch": 42, "duration": 102, "velocity": 120}, {"time": 106084, "pitch": 36, "duration": 211, "velocity": 127}, {"time": 106084, "pitch": 42, "duration": 101, "velocity": 120}, {"time": 106324, "pitch": 42, "duration": 109, "velocity": 120}, {"time": 106564, "pitch": 36, "duration": 185, "velocity": 127}, {"time": 106564, "pitch": 38, "duration": 159, "velocity": 127}, {"time": 106564, "pitch": 46, "duration": 171, "velocity": 120}, {"time": 106803, "pitch": 42, "duration": 111, "velocity": 120}, {"time": 107043, "pitch": 36, "duration": 186, "velocity": 127}, {"time": 107043, "pitch": 42, "duration": 119, "velocity": 120}, {"time": 107283, "pitch": 42, "duration": 102, "velocity": 120}, {"time": 107523, "pitch": 36, "duration": 179, "velocity": 127}, {"time": 107523, "pitch": 38, "duration": 186, "velocity": 127}, {"time": 107523, "pitch": 46, "duration": 158, "velocity": 120}, {"time": 107763, "pitch": 42, "duration": 119, "velocity": 120}, {"time": 108003, "pitch": 36, "duration": 300, "velocity": 127}, {"time": 108003, "pitch": 42, "duration": 111, "velocity": 120}, {"time": 108242, "pitch": 46, "duration": 149, "velocity": 120}, {"time": 108242, "pitch": 49, "duration": 119, "velocity": 100}, {"time": 108482, "pitch": 36, "duration": 192, "velocity": 127}, {"time": 108482, "pitch": 38, "duration": 173, "velocity": 127}, {"time": 108482, "pitch": 42, "duration": 99, "velocity": 120}, {"time": 108722, "pitch": 42, "duration": 109, "velocity": 120}, {"time": 108722, "pitch": 57, "duration": 133, "velocity": 100}, {"time": 108962, "pitch": 36, "duration": 218, "velocity": 127}, {"time": 108962, "pitch": 46, "duration": 137, "velocity": 120}, {"time": 108962, "pitch": 49, "duration": 133, "velocity": 100}, {"time": 109202, "pitch": 38, "duration": 121, "velocity": 127}, {"time": 109202, "pitch": 42, "duration": 107, "velocity": 120}, {"time": 109202, "pitch": 57, "duration": 171, "velocity": 100}, {"time": 109442, "pitch": 38, "duration": 90, "velocity": 127}, {"time": 109442, "pitch": 46, "duration": 140, "velocity": 120}, {"time": 109442, "pitch": 49, "duration": 150, "velocity": 100}, {"time": 109682, "pitch": 36, "duration": 69, "velocity": 127}, {"time": 109682, "pitch": 38, "duration": 114, "velocity": 127}, {"time": 109682, "pitch": 42, "duration": 123, "velocity": 120}, {"time": 109682, "pitch": 57, "duration": 125, "velocity": 100}, {"time": 109921, "pitch": 36, "duration": 153, "velocity": 127}, {"time": 109921, "pitch": 46, "duration": 144, "velocity": 120}, {"time": 109921, "pitch": 49, "duration": 122, "velocity": 100}, {"time": 109921, "pitch": 56, "duration": 186, "velocity": 127}, {"time": 109921, "pitch": 57, "duration": 104, "velocity": 100}, {"time": 110401, "pitch": 38, "duration": 141, "velocity": 127}, {"time": 110401, "pitch": 46, "duration": 138, "velocity": 120}, {"time": 110401, "pitch": 53, "duration": 210, "velocity": 100}, {"time": 110401, "pitch": 56, "duration": 173, "velocity": 127}, {"time": 110881, "pitch": 36, "duration": 109, "velocity": 127}, {"time": 110881, "pitch": 46, "duration": 145, "velocity": 120}, {"time": 110881, "pitch": 53, "duration": 189, "velocity": 100}, {"time": 110881, "pitch": 56, "duration": 186, "velocity": 127}, {"time": 111121, "pitch": 36, "duration": 121, "velocity": 127}, {"time": 111360, "pitch": 38, "duration": 147, "velocity": 127}, {"time": 111360, "pitch": 46, "duration": 127, "velocity": 120}, {"time": 111360, "pitch": 53, "duration": 172, "velocity": 100}, {"time": 111360, "pitch": 56, "duration": 186, "velocity": 127}, {"time": 111600, "pitch": 36, "duration": 115, "velocity": 127}, {"time": 111840, "pitch": 36, "duration": 180, "velocity": 127}, {"time": 111840, "pitch": 46, "duration": 115, "velocity": 120}, {"time": 111840, "pitch": 53, "duration": 210, "velocity": 100}, {"time": 111840, "pitch": 56, "duration": 205, "velocity": 127}, {"time": 112320, "pitch": 36, "duration": 141, "velocity": 127}, {"time": 112320, "pitch": 38, "duration": 121, "velocity": 127}, {"time": 112320, "pitch": 46, "duration": 99, "velocity": 120}, {"time": 112320, "pitch": 53, "duration": 209, "velocity": 100}, {"time": 112320, "pitch": 56, "duration": 218, "velocity": 127}, {"time": 112799, "pitch": 36, "duration": 179, "velocity": 127}, {"time": 112799, "pitch": 46, "duration": 88, "velocity": 120}, {"time": 112799, "pitch": 53, "duration": 203, "velocity": 100}, {"time": 112799, "pitch": 56, "duration": 230, "velocity": 127}, {"time": 113279, "pitch": 36, "duration": 102, "velocity": 127}, {"time": 113279, "pitch": 38, "duration": 122, "velocity": 127}, {"time": 113279, "pitch": 46, "duration": 95, "velocity": 120}, {"time": 113279, "pitch": 53, "duration": 232, "velocity": 100}, {"time": 113279, "pitch": 56, "duration": 131, "velocity": 127}, {"time": 113519, "pitch": 36, "duration": 76, "velocity": 127}, {"time": 113759, "pitch": 36, "duration": 211, "velocity": 127}, {"time": 113759, "pitch": 46, "duration": 144, "velocity": 120}, {"time": 113759, "pitch": 53, "duration": 249, "velocity": 100}, {"time": 113759, "pitch": 56, "duration": 147, "velocity": 127}, {"time": 114238, "pitch": 36, "duration": 128, "velocity": 127}, {"time": 114238, "pitch": 38, "duration": 122, "velocity": 127}, {"time": 114238, "pitch": 46, "duration": 138, "velocity": 120}, {"time": 114238, "pitch": 53, "duration": 231, "velocity": 100}, {"time": 114238, "pitch": 56, "duration": 192, "velocity": 127}, {"time": 114718, "pitch": 36, "duration": 167, "velocity": 127}, {"time": 114718, "pitch": 46, "duration": 145, "velocity": 120}, {"time": 114718, "pitch": 53, "duration": 245, "velocity": 100}, {"time": 114718, "pitch": 56, "duration": 205, "velocity": 127}, {"time": 115198, "pitch": 36, "duration": 128, "velocity": 127}, {"time": 115198, "pitch": 38, "duration": 147, "velocity": 127}, {"time": 115198, "pitch": 46, "duration": 127, "velocity": 120}, {"time": 115198, "pitch": 53, "duration": 223, "velocity": 100}, {"time": 115198, "pitch": 56, "duration": 185, "velocity": 127}, {"time": 115678, "pitch": 36, "duration": 134, "velocity": 127}, {"time": 115678, "pitch": 46, "duration": 114, "velocity": 120}, {"time": 115678, "pitch": 56, "duration": 191, "velocity": 127}, {"time": 115917, "pitch": 49, "duration": 114, "velocity": 100}, {"time": 116157, "pitch": 36, "duration": 167, "velocity": 127}, {"time": 116157, "pitch": 38, "duration": 128, "velocity": 127}, {"time": 116157, "pitch": 46, "duration": 99, "velocity": 120}, {"time": 116157, "pitch": 56, "duration": 198, "velocity": 127}, {"time": 116637, "pitch": 36, "duration": 96, "velocity": 127}, {"time": 116637, "pitch": 46, "duration": 88, "velocity": 120}, {"time": 116637, "pitch": 56, "duration": 205, "velocity": 127}, {"time": 116637, "pitch": 57, "duration": 164, "velocity": 100}, {"time": 116877, "pitch": 36, "duration": 103, "velocity": 127}, {"time": 117117, "pitch": 38, "duration": 127, "velocity": 127}, {"time": 117117, "pitch": 46, "duration": 94, "velocity": 120}, {"time": 117117, "pitch": 49, "duration": 152, "velocity": 100}, {"time": 117117, "pitch": 56, "duration": 147, "velocity": 127}, {"time": 117356, "pitch": 36, "duration": 96, "velocity": 127}, {"time": 117596, "pitch": 36, "duration": 153, "velocity": 127}, {"time": 117596, "pitch": 46, "duration": 144, "velocity": 120}, {"time": 117596, "pitch": 49, "duration": 122, "velocity": 100}, {"time": 117596, "pitch": 56, "duration": 186, "velocity": 127}, {"time": 117596, "pitch": 57, "duration": 104, "velocity": 100}, {"time": 118076, "pitch": 38, "duration": 141, "velocity": 127}, {"time": 118076, "pitch": 46, "duration": 138, "velocity": 120}, {"time": 118076, "pitch": 53, "duration": 198, "velocity": 100}, {"time": 118076, "pitch": 56, "duration": 173, "velocity": 127}, {"time": 118556, "pitch": 36, "duration": 109, "velocity": 127}, {"time": 118556, "pitch": 46, "duration": 144, "velocity": 120}, {"time": 118556, "pitch": 53, "duration": 213, "velocity": 100}, {"time": 118556, "pitch": 56, "duration": 185, "velocity": 127}, {"time": 118795, "pitch": 36, "duration": 122, "velocity": 127}, {"time": 119035, "pitch": 38, "duration": 147, "velocity": 127}, {"time": 119035, "pitch": 46, "duration": 127, "velocity": 120}, {"time": 119035, "pitch": 53, "duration": 232, "velocity": 100}, {"time": 119035, "pitch": 56, "duration": 186, "velocity": 127}, {"time": 119275, "pitch": 36, "duration": 115, "velocity": 127}, {"time": 119515, "pitch": 36, "duration": 180, "velocity": 127}, {"time": 119515, "pitch": 46, "duration": 115, "velocity": 120}, {"time": 119515, "pitch": 53, "duration": 239, "velocity": 100}, {"time": 119515, "pitch": 56, "duration": 205, "velocity": 127}, {"time": 119995, "pitch": 36, "duration": 141, "velocity": 127}, {"time": 119995, "pitch": 38, "duration": 121, "velocity": 127}, {"time": 119995, "pitch": 46, "duration": 99, "velocity": 120}, {"time": 119995, "pitch": 53, "duration": 222, "velocity": 100}, {"time": 119995, "pitch": 56, "duration": 217, "velocity": 127}, {"time": 120474, "pitch": 36, "duration": 179, "velocity": 127}, {"time": 120474, "pitch": 46, "duration": 88, "velocity": 120}, {"time": 120474, "pitch": 53, "duration": 203, "velocity": 100}, {"time": 120474, "pitch": 56, "duration": 230, "velocity": 127}, {"time": 120954, "pitch": 36, "duration": 104, "velocity": 127}, {"time": 120954, "pitch": 38, "duration": 125, "velocity": 127}, {"time": 120954, "pitch": 46, "duration": 97, "velocity": 120}, {"time": 120954, "pitch": 53, "duration": 192, "velocity": 100}, {"time": 120954, "pitch": 56, "duration": 134, "velocity": 127}, {"time": 121200, "pitch": 36, "duration": 78, "velocity": 127}, {"time": 121446, "pitch": 36, "duration": 211, "velocity": 127}, {"time": 121446, "pitch": 46, "duration": 144, "velocity": 120}, {"time": 121446, "pitch": 53, "duration": 209, "velocity": 100}, {"time": 121446, "pitch": 56, "duration": 147, "velocity": 127}, {"time": 121926, "pitch": 36, "duration": 128, "velocity": 127}, {"time": 121926, "pitch": 38, "duration": 122, "velocity": 127}, {"time": 121926, "pitch": 46, "duration": 138, "velocity": 120}, {"time": 121926, "pitch": 53, "duration": 219, "velocity": 100}, {"time": 121926, "pitch": 56, "duration": 192, "velocity": 127}, {"time": 122406, "pitch": 36, "duration": 167, "velocity": 127}, {"time": 122406, "pitch": 46, "duration": 145, "velocity": 120}, {"time": 122406, "pitch": 53, "duration": 208, "velocity": 100}, {"time": 122406, "pitch": 56, "duration": 205, "velocity": 127}, {"time": 122885, "pitch": 36, "duration": 128, "velocity": 127}, {"time": 122885, "pitch": 38, "duration": 147, "velocity": 127}, {"time": 122885, "pitch": 46, "duration": 127, "velocity": 120}, {"time": 122885, "pitch": 53, "duration": 188, "velocity": 100}, {"time": 122885, "pitch": 56, "duration": 185, "velocity": 127}, {"time": 123365, "pitch": 36, "duration": 135, "velocity": 127}, {"time": 123365, "pitch": 46, "duration": 115, "velocity": 120}, {"time": 123365, "pitch": 56, "duration": 192, "velocity": 127}, {"time": 123605, "pitch": 49, "duration": 114, "velocity": 100}, {"time": 123845, "pitch": 36, "duration": 167, "velocity": 127}, {"time": 123845, "pitch": 38, "duration": 128, "velocity": 127}, {"time": 123845, "pitch": 46, "duration": 99, "velocity": 120}, {"time": 123845, "pitch": 56, "duration": 198, "velocity": 127}, {"time": 124324, "pitch": 36, "duration": 96, "velocity": 127}, {"time": 124324, "pitch": 46, "duration": 88, "velocity": 120}, {"time": 124324, "pitch": 56, "duration": 205, "velocity": 127}, {"time": 124324, "pitch": 57, "duration": 164, "velocity": 100}, {"time": 124564, "pitch": 36, "duration": 103, "velocity": 127}, {"time": 124804, "pitch": 38, "duration": 128, "velocity": 127}, {"time": 124804, "pitch": 46, "duration": 95, "velocity": 120}, {"time": 124804, "pitch": 49, "duration": 153, "velocity": 100}, {"time": 124804, "pitch": 56, "duration": 148, "velocity": 127}, {"time": 125044, "pitch": 36, "duration": 96, "velocity": 127}, {"time": 125284, "pitch": 36, "duration": 153, "velocity": 127}, {"time": 125284, "pitch": 46, "duration": 144, "velocity": 120}, {"time": 125284, "pitch": 49, "duration": 122, "velocity": 100}, {"time": 125284, "pitch": 56, "duration": 186, "velocity": 127}, {"time": 125284, "pitch": 57, "duration": 104, "velocity": 100}, {"time": 125763, "pitch": 38, "duration": 141, "velocity": 127}, {"time": 125763, "pitch": 46, "duration": 138, "velocity": 120}, {"time": 125763, "pitch": 53, "duration": 206, "velocity": 100}, {"time": 125763, "pitch": 56, "duration": 173, "velocity": 127}, {"time": 126243, "pitch": 36, "duration": 109, "velocity": 127}, {"time": 126243, "pitch": 46, "duration": 145, "velocity": 120}, {"time": 126243, "pitch": 53, "duration": 234, "velocity": 100}, {"time": 126243, "pitch": 56, "duration": 186, "velocity": 127}, {"time": 126483, "pitch": 36, "duration": 122, "velocity": 127}, {"time": 126723, "pitch": 38, "duration": 147, "velocity": 127}, {"time": 126723, "pitch": 46, "duration": 127, "velocity": 120}, {"time": 126723, "pitch": 53, "duration": 235, "velocity": 100}, {"time": 126723, "pitch": 56, "duration": 186, "velocity": 127}, {"time": 126963, "pitch": 36, "duration": 115, "velocity": 127}, {"time": 127202, "pitch": 36, "duration": 180, "velocity": 127}, {"time": 127202, "pitch": 46, "duration": 115, "velocity": 120}, {"time": 127202, "pitch": 53, "duration": 198, "velocity": 100}, {"time": 127202, "pitch": 56, "duration": 205, "velocity": 127}, {"time": 127682, "pitch": 36, "duration": 141, "velocity": 127}, {"time": 127682, "pitch": 38, "duration": 121, "velocity": 127}, {"time": 127682, "pitch": 46, "duration": 99, "velocity": 120}, {"time": 127682, "pitch": 53, "duration": 228, "velocity": 100}, {"time": 127682, "pitch": 56, "duration": 218, "velocity": 127}, {"time": 128162, "pitch": 36, "duration": 179, "velocity": 127}, {"time": 128162, "pitch": 46, "duration": 88, "velocity": 120}, {"time": 128162, "pitch": 53, "duration": 226, "velocity": 100}, {"time": 128162, "pitch": 56, "duration": 230, "velocity": 127}, {"time": 128641, "pitch": 36, "duration": 102, "velocity": 127}, {"time": 128641, "pitch": 38, "duration": 122, "velocity": 127}, {"time": 128641, "pitch": 46, "duration": 95, "velocity": 120}, {"time": 128641, "pitch": 53, "duration": 223, "velocity": 100}, {"time": 128641, "pitch": 56, "duration": 131, "velocity": 127}, {"time": 128881, "pitch": 36, "duration": 76, "velocity": 127}, {"time": 129121, "pitch": 36, "duration": 211, "velocity": 127}, {"time": 129121, "pitch": 46, "duration": 144, "velocity": 120}, {"time": 129121, "pitch": 53, "duration": 214, "velocity": 100}, {"time": 129121, "pitch": 56, "duration": 147, "velocity": 127}, {"time": 129601, "pitch": 36, "duration": 128, "velocity": 127}, {"time": 129601, "pitch": 38, "duration": 122, "velocity": 127}, {"time": 129601, "pitch": 46, "duration": 138, "velocity": 120}, {"time": 129601, "pitch": 53, "duration": 236, "velocity": 100}, {"time": 129601, "pitch": 56, "duration": 192, "velocity": 127}, {"time": 130081, "pitch": 36, "duration": 166, "velocity": 127}, {"time": 130081, "pitch": 46, "duration": 144, "velocity": 120}, {"time": 130081, "pitch": 53, "duration": 218, "velocity": 100}, {"time": 130081, "pitch": 56, "duration": 204, "velocity": 127}, {"time": 130560, "pitch": 36, "duration": 128, "velocity": 127}, {"time": 130560, "pitch": 38, "duration": 147, "velocity": 127}, {"time": 130560, "pitch": 46, "duration": 127, "velocity": 120}, {"time": 130560, "pitch": 53, "duration": 117, "velocity": 100}, {"time": 130560, "pitch": 56, "duration": 185, "velocity": 127}, {"time": 131040, "pitch": 36, "duration": 135, "velocity": 127}, {"time": 131040, "pitch": 46, "duration": 115, "velocity": 120}, {"time": 131040, "pitch": 56, "duration": 192, "velocity": 127}, {"time": 131280, "pitch": 49, "duration": 114, "velocity": 100}, {"time": 131520, "pitch": 36, "duration": 166, "velocity": 127}, {"time": 131520, "pitch": 38, "duration": 127, "velocity": 127}, {"time": 131520, "pitch": 46, "duration": 98, "velocity": 120}, {"time": 131520, "pitch": 56, "duration": 197, "velocity": 127}, {"time": 131999, "pitch": 36, "duration": 96, "velocity": 127}, {"time": 131999, "pitch": 46, "duration": 88, "velocity": 120}, {"time": 131999, "pitch": 56, "duration": 205, "velocity": 127}, {"time": 131999, "pitch": 57, "duration": 164, "velocity": 100}, {"time": 132239, "pitch": 36, "duration": 103, "velocity": 127}, {"time": 132479, "pitch": 38, "duration": 128, "velocity": 127}, {"time": 132479, "pitch": 46, "duration": 95, "velocity": 120}, {"time": 132479, "pitch": 49, "duration": 153, "velocity": 100}, {"time": 132479, "pitch": 56, "duration": 148, "velocity": 127}, {"time": 132719, "pitch": 36, "duration": 96, "velocity": 127}, {"time": 132959, "pitch": 36, "duration": 152, "velocity": 127}, {"time": 132959, "pitch": 46, "duration": 143, "velocity": 120}, {"time": 132959, "pitch": 49, "duration": 122, "velocity": 100}, {"time": 132959, "pitch": 56, "duration": 185, "velocity": 127}, {"time": 132959, "pitch": 57, "duration": 104, "velocity": 100}, {"time": 133438, "pitch": 38, "duration": 141, "velocity": 127}, {"time": 133438, "pitch": 46, "duration": 138, "velocity": 120}, {"time": 133438, "pitch": 53, "duration": 202, "velocity": 100}, {"time": 133438, "pitch": 56, "duration": 173, "velocity": 127}, {"time": 133918, "pitch": 36, "duration": 109, "velocity": 127}, {"time": 133918, "pitch": 46, "duration": 145, "velocity": 120}, {"time": 133918, "pitch": 53, "duration": 206, "velocity": 100}, {"time": 133918, "pitch": 56, "duration": 186, "velocity": 127}, {"time": 134158, "pitch": 36, "duration": 122, "velocity": 127}, {"time": 134398, "pitch": 38, "duration": 147, "velocity": 127}, {"time": 134398, "pitch": 46, "duration": 127, "velocity": 120}, {"time": 134398, "pitch": 53, "duration": 170, "velocity": 100}, {"time": 134398, "pitch": 56, "duration": 185, "velocity": 127}, {"time": 134637, "pitch": 36, "duration": 115, "velocity": 127}, {"time": 134877, "pitch": 36, "duration": 180, "velocity": 127}, {"time": 134877, "pitch": 46, "duration": 115, "velocity": 120}, {"time": 134877, "pitch": 53, "duration": 180, "velocity": 100}, {"time": 134877, "pitch": 56, "duration": 205, "velocity": 127}, {"time": 135357, "pitch": 36, "duration": 141, "velocity": 127}, {"time": 135357, "pitch": 38, "duration": 121, "velocity": 127}, {"time": 135357, "pitch": 46, "duration": 99, "velocity": 120}, {"time": 135357, "pitch": 53, "duration": 180, "velocity": 100}, {"time": 135357, "pitch": 56, "duration": 218, "velocity": 127}, {"time": 135837, "pitch": 36, "duration": 179, "velocity": 127}, {"time": 135837, "pitch": 46, "duration": 88, "velocity": 120}, {"time": 135837, "pitch": 53, "duration": 191, "velocity": 100}, {"time": 135837, "pitch": 56, "duration": 230, "velocity": 127}, {"time": 136316, "pitch": 36, "duration": 102, "velocity": 127}, {"time": 136316, "pitch": 38, "duration": 122, "velocity": 127}, {"time": 136316, "pitch": 46, "duration": 95, "velocity": 120}, {"time": 136316, "pitch": 53, "duration": 158, "velocity": 100}, {"time": 136316, "pitch": 56, "duration": 131, "velocity": 127}, {"time": 136556, "pitch": 36, "duration": 76, "velocity": 127}, {"time": 136796, "pitch": 36, "duration": 211, "velocity": 127}, {"time": 136796, "pitch": 46, "duration": 144, "velocity": 120}, {"time": 136796, "pitch": 53, "duration": 177, "velocity": 100}, {"time": 136796, "pitch": 56, "duration": 147, "velocity": 127}, {"time": 137276, "pitch": 36, "duration": 128, "velocity": 127}, {"time": 137276, "pitch": 38, "duration": 122, "velocity": 127}, {"time": 137276, "pitch": 46, "duration": 138, "velocity": 120}, {"time": 137276, "pitch": 53, "duration": 176, "velocity": 100}, {"time": 137276, "pitch": 56, "duration": 192, "velocity": 127}, {"time": 137755, "pitch": 36, "duration": 167, "velocity": 127}, {"time": 137755, "pitch": 46, "duration": 145, "velocity": 120}, {"time": 137755, "pitch": 53, "duration": 159, "velocity": 100}, {"time": 137755, "pitch": 56, "duration": 205, "velocity": 127}, {"time": 138235, "pitch": 36, "duration": 128, "velocity": 127}, {"time": 138235, "pitch": 38, "duration": 147, "velocity": 127}, {"time": 138235, "pitch": 46, "duration": 127, "velocity": 120}, {"time": 138235, "pitch": 53, "duration": 98, "velocity": 100}, {"time": 138235, "pitch": 56, "duration": 185, "velocity": 127}, {"time": 138704, "pitch": 38, "duration": 107, "velocity": 127}, {"time": 138707, "pitch": 40, "duration": 111, "velocity": 127}, {"time": 138707, "pitch": 40, "duration": 111, "velocity": 127}, {"time": 138715, "pitch": 36, "duration": 128, "velocity": 127}, {"time": 138715, "pitch": 38, "duration": 96, "velocity": 127}, {"time": 138715, "pitch": 42, "duration": 115, "velocity": 120}, {"time": 138715, "pitch": 56, "duration": 192, "velocity": 127}, {"time": 138935, "pitch": 38, "duration": 128, "velocity": 127}, {"time": 138955, "pitch": 38, "duration": 108, "velocity": 127}, {"time": 139914, "pitch": 36, "duration": 115, "velocity": 127}, {"time": 140154, "pitch": 38, "duration": 131, "velocity": 127}, {"time": 140154, "pitch": 56, "duration": 152, "velocity": 127}, {"time": 140174, "pitch": 38, "duration": 111, "velocity": 127}, {"time": 140400, "pitch": 36, "duration": 98, "velocity": 127}, {"time": 140646, "pitch": 36, "duration": 153, "velocity": 127}, {"time": 140646, "pitch": 46, "duration": 163, "velocity": 120}, {"time": 140646, "pitch": 49, "duration": 122, "velocity": 100}, {"time": 140646, "pitch": 56, "duration": 186, "velocity": 127}, {"time": 140646, "pitch": 57, "duration": 104, "velocity": 100}, {"time": 141126, "pitch": 38, "duration": 141, "velocity": 127}, {"time": 141126, "pitch": 46, "duration": 209, "velocity": 120}, {"time": 141126, "pitch": 56, "duration": 173, "velocity": 127}, {"time": 141605, "pitch": 36, "duration": 109, "velocity": 127}, {"time": 141605, "pitch": 46, "duration": 228, "velocity": 120}, {"time": 141605, "pitch": 56, "duration": 186, "velocity": 127}, {"time": 141845, "pitch": 36, "duration": 122, "velocity": 127}, {"time": 142085, "pitch": 38, "duration": 147, "velocity": 127}, {"time": 142085, "pitch": 46, "duration": 206, "velocity": 120}, {"time": 142085, "pitch": 56, "duration": 186, "velocity": 127}, {"time": 142325, "pitch": 36, "duration": 115, "velocity": 127}, {"time": 142565, "pitch": 36, "duration": 180, "velocity": 127}, {"time": 142565, "pitch": 46, "duration": 218, "velocity": 120}, {"time": 142565, "pitch": 56, "duration": 205, "velocity": 127}, {"time": 143044, "pitch": 36, "duration": 141, "velocity": 127}, {"time": 143044, "pitch": 38, "duration": 121, "velocity": 127}, {"time": 143044, "pitch": 46, "duration": 234, "velocity": 120}, {"time": 143044, "pitch": 56, "duration": 218, "velocity": 127}, {"time": 143524, "pitch": 36, "duration": 179, "velocity": 127}, {"time": 143524, "pitch": 46, "duration": 257, "velocity": 120}, {"time": 143524, "pitch": 56, "duration": 230, "velocity": 127}, {"time": 144004, "pitch": 36, "duration": 102, "velocity": 127}, {"time": 144004, "pitch": 38, "duration": 122, "velocity": 127}, {"time": 144004, "pitch": 46, "duration": 255, "velocity": 120}, {"time": 144004, "pitch": 56, "duration": 131, "velocity": 127}, {"time": 144244, "pitch": 36, "duration": 76, "velocity": 127}, {"time": 144484, "pitch": 36, "duration": 210, "velocity": 127}, {"time": 144484, "pitch": 46, "duration": 203, "velocity": 120}, {"time": 144484, "pitch": 56, "duration": 146, "velocity": 127}, {"time": 144963, "pitch": 36, "duration": 128, "velocity": 127}, {"time": 144963, "pitch": 38, "duration": 122, "velocity": 127}, {"time": 144963, "pitch": 46, "duration": 228, "velocity": 120}, {"time": 144963, "pitch": 56, "duration": 192, "velocity": 127}, {"time": 145443, "pitch": 36, "duration": 167, "velocity": 127}, {"time": 145443, "pitch": 46, "duration": 223, "velocity": 120}, {"time": 145443, "pitch": 56, "duration": 205, "velocity": 127}, {"time": 145923, "pitch": 36, "duration": 127, "velocity": 127}, {"time": 145923, "pitch": 38, "duration": 146, "velocity": 127}, {"time": 145923, "pitch": 46, "duration": 229, "velocity": 120}, {"time": 145923, "pitch": 56, "duration": 184, "velocity": 127}, {"time": 146402, "pitch": 36, "duration": 135, "velocity": 127}, {"time": 146402, "pitch": 46, "duration": 195, "velocity": 120}, {"time": 146402, "pitch": 56, "duration": 192, "velocity": 127}, {"time": 146882, "pitch": 36, "duration": 167, "velocity": 127}, {"time": 146882, "pitch": 38, "duration": 128, "velocity": 127}, {"time": 146882, "pitch": 46, "duration": 181, "velocity": 120}, {"time": 146882, "pitch": 56, "duration": 198, "velocity": 127}, {"time": 147362, "pitch": 36, "duration": 96, "velocity": 127}, {"time": 147362, "pitch": 46, "duration": 192, "velocity": 120}, {"time": 147362, "pitch": 56, "duration": 204, "velocity": 127}, {"time": 147601, "pitch": 36, "duration": 103, "velocity": 127}, {"time": 147841, "pitch": 38, "duration": 128, "velocity": 127}, {"time": 147841, "pitch": 46, "duration": 172, "velocity": 120}, {"time": 147841, "pitch": 56, "duration": 148, "velocity": 127}, {"time": 148081, "pitch": 36, "duration": 96, "velocity": 127}, {"time": 148321, "pitch": 36, "duration": 192, "velocity": 127}, {"time": 148321, "pitch": 46, "duration": 138, "velocity": 120}, {"time": 148321, "pitch": 49, "duration": 122, "velocity": 100}, {"time": 148321, "pitch": 56, "duration": 186, "velocity": 127}, {"time": 148321, "pitch": 57, "duration": 104, "velocity": 100}, {"time": 148801, "pitch": 36, "duration": 154, "velocity": 127}, {"time": 148801, "pitch": 38, "duration": 154, "velocity": 127}, {"time": 148801, "pitch": 46, "duration": 149, "velocity": 120}, {"time": 148801, "pitch": 56, "duration": 173, "velocity": 127}, {"time": 149280, "pitch": 36, "duration": 224, "velocity": 127}, {"time": 149280, "pitch": 46, "duration": 180, "velocity": 120}, {"time": 149280, "pitch": 56, "duration": 186, "velocity": 127}, {"time": 149760, "pitch": 36, "duration": 199, "velocity": 127}, {"time": 149760, "pitch": 38, "duration": 147, "velocity": 127}, {"time": 149760, "pitch": 46, "duration": 165, "velocity": 120}, {"time": 149760, "pitch": 56, "duration": 186, "velocity": 127}, {"time": 150240, "pitch": 36, "duration": 173, "velocity": 127}, {"time": 150240, "pitch": 46, "duration": 172, "velocity": 120}, {"time": 150240, "pitch": 56, "duration": 205, "velocity": 127}, {"time": 150719, "pitch": 36, "duration": 185, "velocity": 127}, {"time": 150719, "pitch": 38, "duration": 179, "velocity": 127}, {"time": 150719, "pitch": 46, "duration": 158, "velocity": 120}, {"time": 150719, "pitch": 56, "duration": 218, "velocity": 127}, {"time": 151199, "pitch": 36, "duration": 141, "velocity": 127}, {"time": 151199, "pitch": 46, "duration": 145, "velocity": 120}, {"time": 151199, "pitch": 56, "duration": 230, "velocity": 127}, {"time": 151439, "pitch": 36, "duration": 108, "velocity": 127}, {"time": 151679, "pitch": 36, "duration": 128, "velocity": 127}, {"time": 151679, "pitch": 38, "duration": 153, "velocity": 127}, {"time": 151679, "pitch": 46, "duration": 153, "velocity": 120}, {"time": 151679, "pitch": 56, "duration": 131, "velocity": 127}, {"time": 151919, "pitch": 36, "duration": 82, "velocity": 127}, {"time": 152158, "pitch": 36, "duration": 211, "velocity": 127}, {"time": 152158, "pitch": 46, "duration": 155, "velocity": 120}, {"time": 152158, "pitch": 56, "duration": 147, "velocity": 127}, {"time": 152638, "pitch": 36, "duration": 186, "velocity": 127}, {"time": 152638, "pitch": 38, "duration": 160, "velocity": 127}, {"time": 152638, "pitch": 46, "duration": 146, "velocity": 120}, {"time": 152638, "pitch": 56, "duration": 192, "velocity": 127}, {"time": 153118, "pitch": 36, "duration": 186, "velocity": 127}, {"time": 153118, "pitch": 46, "duration": 150, "velocity": 120}, {"time": 153118, "pitch": 56, "duration": 205, "velocity": 127}, {"time": 153597, "pitch": 36, "duration": 179, "velocity": 127}, {"time": 153597, "pitch": 38, "duration": 186, "velocity": 127}, {"time": 153597, "pitch": 46, "duration": 150, "velocity": 120}, {"time": 153597, "pitch": 56, "duration": 185, "velocity": 127}, {"time": 154077, "pitch": 36, "duration": 301, "velocity": 127}, {"time": 154077, "pitch": 46, "duration": 144, "velocity": 120}, {"time": 154077, "pitch": 56, "duration": 192, "velocity": 127}, {"time": 154557, "pitch": 36, "duration": 192, "velocity": 127}, {"time": 154557, "pitch": 38, "duration": 173, "velocity": 127}, {"time": 154557, "pitch": 46, "duration": 146, "velocity": 120}, {"time": 154557, "pitch": 56, "duration": 198, "velocity": 127}, {"time": 155036, "pitch": 36, "duration": 218, "velocity": 127}, {"time": 155036, "pitch": 46, "duration": 146, "velocity": 120}, {"time": 155036, "pitch": 56, "duration": 205, "velocity": 127}, {"time": 155276, "pitch": 38, "duration": 121, "velocity": 127}, {"time": 155516, "pitch": 38, "duration": 90, "velocity": 127}, {"time": 155516, "pitch": 46, "duration": 154, "velocity": 120}, {"time": 155516, "pitch": 56, "duration": 148, "velocity": 127}, {"time": 155756, "pitch": 36, "duration": 70, "velocity": 127}, {"time": 155756, "pitch": 38, "duration": 115, "velocity": 127}, {"time": 155996, "pitch": 36, "duration": 153, "velocity": 127}, {"time": 155996, "pitch": 46, "duration": 144, "velocity": 120}, {"time": 155996, "pitch": 49, "duration": 122, "velocity": 100}, {"time": 155996, "pitch": 56, "duration": 186, "velocity": 127}, {"time": 155996, "pitch": 57, "duration": 104, "velocity": 100}, {"time": 156475, "pitch": 38, "duration": 141, "velocity": 127}, {"time": 156475, "pitch": 46, "duration": 138, "velocity": 120}, {"time": 156475, "pitch": 56, "duration": 173, "velocity": 127}, {"time": 156955, "pitch": 36, "duration": 109, "velocity": 127}, {"time": 156955, "pitch": 46, "duration": 145, "velocity": 120}, {"time": 156955, "pitch": 56, "duration": 186, "velocity": 127}, {"time": 157195, "pitch": 36, "duration": 122, "velocity": 127}, {"time": 157435, "pitch": 38, "duration": 147, "velocity": 127}, {"time": 157435, "pitch": 46, "duration": 127, "velocity": 120}, {"time": 157435, "pitch": 56, "duration": 186, "velocity": 127}, {"time": 157675, "pitch": 36, "duration": 115, "velocity": 127}, {"time": 157915, "pitch": 36, "duration": 179, "velocity": 127}, {"time": 157915, "pitch": 46, "duration": 114, "velocity": 120}, {"time": 157915, "pitch": 56, "duration": 204, "velocity": 127}, {"time": 158394, "pitch": 36, "duration": 141, "velocity": 127}, {"time": 158394, "pitch": 38, "duration": 121, "velocity": 127}, {"time": 158394, "pitch": 46, "duration": 99, "velocity": 120}, {"time": 158394, "pitch": 56, "duration": 218, "velocity": 127}, {"time": 158874, "pitch": 36, "duration": 183, "velocity": 127}, {"time": 158874, "pitch": 46, "duration": 90, "velocity": 120}, {"time": 158874, "pitch": 56, "duration": 236, "velocity": 127}, {"time": 159366, "pitch": 36, "duration": 102, "velocity": 127}, {"time": 159366, "pitch": 38, "duration": 122, "velocity": 127}, {"time": 159366, "pitch": 46, "duration": 95, "velocity": 120}, {"time": 159366, "pitch": 56, "duration": 131, "velocity": 127}, {"time": 159606, "pitch": 36, "duration": 76, "velocity": 127}, {"time": 159846, "pitch": 36, "duration": 211, "velocity": 127}, {"time": 159846, "pitch": 46, "duration": 144, "velocity": 120}, {"time": 159846, "pitch": 56, "duration": 147, "velocity": 127}, {"time": 160326, "pitch": 36, "duration": 127, "velocity": 127}, {"time": 160326, "pitch": 38, "duration": 121, "velocity": 127}, {"time": 160326, "pitch": 46, "duration": 137, "velocity": 120}, {"time": 160326, "pitch": 56, "duration": 191, "velocity": 127}, {"time": 160805, "pitch": 36, "duration": 167, "velocity": 127}, {"time": 160805, "pitch": 46, "duration": 145, "velocity": 120}, {"time": 160805, "pitch": 56, "duration": 205, "velocity": 127}, {"time": 161285, "pitch": 36, "duration": 128, "velocity": 127}, {"time": 161285, "pitch": 38, "duration": 147, "velocity": 127}, {"time": 161285, "pitch": 46, "duration": 127, "velocity": 120}, {"time": 161285, "pitch": 56, "duration": 185, "velocity": 127}, {"time": 161765, "pitch": 36, "duration": 135, "velocity": 127}, {"time": 161765, "pitch": 46, "duration": 115, "velocity": 120}, {"time": 161765, "pitch": 56, "duration": 191, "velocity": 127}, {"time": 162244, "pitch": 36, "duration": 167, "velocity": 127}, {"time": 162244, "pitch": 38, "duration": 128, "velocity": 127}, {"time": 162244, "pitch": 46, "duration": 99, "velocity": 120}, {"time": 162244, "pitch": 56, "duration": 198, "velocity": 127}, {"time": 162724, "pitch": 36, "duration": 96, "velocity": 127}, {"time": 162724, "pitch": 46, "duration": 88, "velocity": 120}, {"time": 162724, "pitch": 56, "duration": 205, "velocity": 127}, {"time": 162964, "pitch": 36, "duration": 103, "velocity": 127}, {"time": 163204, "pitch": 38, "duration": 128, "velocity": 127}, {"time": 163204, "pitch": 46, "duration": 95, "velocity": 120}, {"time": 163204, "pitch": 56, "duration": 148, "velocity": 127}, {"time": 163443, "pitch": 36, "duration": 96, "velocity": 127}, {"time": 163683, "pitch": 36, "duration": 211, "velocity": 127}, {"time": 163683, "pitch": 42, "duration": 138, "velocity": 120}, {"time": 164883, "pitch": 36, "duration": 104, "velocity": 127}, {"time": 164883, "pitch": 42, "duration": 136, "velocity": 90}, {"time": 165122, "pitch": 38, "duration": 115, "velocity": 127}, {"time": 165122, "pitch": 46, "duration": 127, "velocity": 120}, {"time": 165362, "pitch": 36, "duration": 97, "velocity": 127}, {"time": 165602, "pitch": 36, "duration": 173, "velocity": 127}, {"time": 165602, "pitch": 46, "duration": 115, "velocity": 120}, {"time": 165602, "pitch": 56, "duration": 205, "velocity": 127}, {"time": 166082, "pitch": 36, "duration": 185, "velocity": 127}, {"time": 166082, "pitch": 38, "duration": 179, "velocity": 127}, {"time": 166082, "pitch": 46, "duration": 99, "velocity": 120}, {"time": 166082, "pitch": 56, "duration": 218, "velocity": 127}, {"time": 166561, "pitch": 36, "duration": 141, "velocity": 127}, {"time": 166561, "pitch": 46, "duration": 88, "velocity": 120}, {"time": 166561, "pitch": 56, "duration": 230, "velocity": 127}, {"time": 166801, "pitch": 36, "duration": 108, "velocity": 127}, {"time": 167041, "pitch": 36, "duration": 128, "velocity": 127}, {"time": 167041, "pitch": 38, "duration": 153, "velocity": 127}, {"time": 167041, "pitch": 46, "duration": 95, "velocity": 120}, {"time": 167041, "pitch": 56, "duration": 131, "velocity": 127}, {"time": 167281, "pitch": 36, "duration": 83, "velocity": 127}, {"time": 167521, "pitch": 36, "duration": 211, "velocity": 127}, {"time": 167521, "pitch": 46, "duration": 144, "velocity": 120}, {"time": 167521, "pitch": 56, "duration": 147, "velocity": 127}, {"time": 168000, "pitch": 36, "duration": 186, "velocity": 127}, {"time": 168000, "pitch": 38, "duration": 160, "velocity": 127}, {"time": 168000, "pitch": 46, "duration": 138, "velocity": 120}, {"time": 168000, "pitch": 56, "duration": 192, "velocity": 127}, {"time": 168480, "pitch": 36, "duration": 186, "velocity": 127}, {"time": 168480, "pitch": 46, "duration": 145, "velocity": 120}, {"time": 168480, "pitch": 56, "duration": 205, "velocity": 127}, {"time": 168960, "pitch": 36, "duration": 179, "velocity": 127}, {"time": 168960, "pitch": 38, "duration": 186, "velocity": 127}, {"time": 168960, "pitch": 46, "duration": 127, "velocity": 120}, {"time": 168960, "pitch": 56, "duration": 185, "velocity": 127}, {"time": 169439, "pitch": 36, "duration": 301, "velocity": 127}, {"time": 169439, "pitch": 46, "duration": 115, "velocity": 120}, {"time": 169439, "pitch": 56, "duration": 192, "velocity": 127}, {"time": 169919, "pitch": 36, "duration": 192, "velocity": 127}, {"time": 169919, "pitch": 38, "duration": 173, "velocity": 127}, {"time": 169919, "pitch": 46, "duration": 99, "velocity": 120}, {"time": 169919, "pitch": 56, "duration": 198, "velocity": 127}, {"time": 170399, "pitch": 36, "duration": 218, "velocity": 127}, {"time": 170399, "pitch": 46, "duration": 88, "velocity": 120}, {"time": 170399, "pitch": 56, "duration": 205, "velocity": 127}, {"time": 170639, "pitch": 38, "duration": 121, "velocity": 127}, {"time": 170879, "pitch": 38, "duration": 89, "velocity": 127}, {"time": 170879, "pitch": 46, "duration": 94, "velocity": 120}, {"time": 170879, "pitch": 56, "duration": 147, "velocity": 127}, {"time": 171118, "pitch": 36, "duration": 70, "velocity": 127}, {"time": 171118, "pitch": 38, "duration": 115, "velocity": 127}, {"time": 171358, "pitch": 36, "duration": 153, "velocity": 127}, {"time": 171358, "pitch": 46, "duration": 144, "velocity": 120}, {"time": 171358, "pitch": 49, "duration": 122, "velocity": 100}, {"time": 171358, "pitch": 56, "duration": 186, "velocity": 127}, {"time": 171358, "pitch": 57, "duration": 104, "velocity": 100}, {"time": 171838, "pitch": 38, "duration": 141, "velocity": 127}, {"time": 171838, "pitch": 46, "duration": 138, "velocity": 120}, {"time": 171838, "pitch": 56, "duration": 173, "velocity": 127}, {"time": 172318, "pitch": 36, "duration": 108, "velocity": 127}, {"time": 172318, "pitch": 46, "duration": 144, "velocity": 120}, {"time": 172318, "pitch": 56, "duration": 185, "velocity": 127}, {"time": 172557, "pitch": 36, "duration": 122, "velocity": 127}, {"time": 172797, "pitch": 38, "duration": 147, "velocity": 127}, {"time": 172797, "pitch": 46, "duration": 127, "velocity": 120}, {"time": 172797, "pitch": 56, "duration": 186, "velocity": 127}, {"time": 173037, "pitch": 36, "duration": 115, "velocity": 127}, {"time": 173277, "pitch": 36, "duration": 180, "velocity": 127}, {"time": 173277, "pitch": 46, "duration": 115, "velocity": 120}, {"time": 173277, "pitch": 56, "duration": 205, "velocity": 127}, {"time": 173757, "pitch": 36, "duration": 140, "velocity": 127}, {"time": 173757, "pitch": 38, "duration": 120, "velocity": 127}, {"time": 173757, "pitch": 46, "duration": 99, "velocity": 120}, {"time": 173757, "pitch": 56, "duration": 217, "velocity": 127}, {"time": 174236, "pitch": 36, "duration": 179, "velocity": 127}, {"time": 174236, "pitch": 46, "duration": 88, "velocity": 120}, {"time": 174236, "pitch": 56, "duration": 230, "velocity": 127}, {"time": 174716, "pitch": 36, "duration": 102, "velocity": 127}, {"time": 174716, "pitch": 38, "duration": 122, "velocity": 127}, {"time": 174716, "pitch": 46, "duration": 95, "velocity": 120}, {"time": 174716, "pitch": 56, "duration": 131, "velocity": 127}, {"time": 174956, "pitch": 36, "duration": 76, "velocity": 127}, {"time": 175196, "pitch": 36, "duration": 210, "velocity": 127}, {"time": 175196, "pitch": 46, "duration": 144, "velocity": 120}, {"time": 175196, "pitch": 56, "duration": 147, "velocity": 127}, {"time": 175675, "pitch": 36, "duration": 128, "velocity": 127}, {"time": 175675, "pitch": 38, "duration": 122, "velocity": 127}, {"time": 175675, "pitch": 46, "duration": 138, "velocity": 120}, {"time": 175675, "pitch": 56, "duration": 192, "velocity": 127}, {"time": 176155, "pitch": 36, "duration": 167, "velocity": 127}, {"time": 176155, "pitch": 46, "duration": 145, "velocity": 120}, {"time": 176155, "pitch": 56, "duration": 205, "velocity": 127}, {"time": 176635, "pitch": 36, "duration": 128, "velocity": 127}, {"time": 176635, "pitch": 38, "duration": 147, "velocity": 127}, {"time": 176635, "pitch": 46, "duration": 127, "velocity": 120}, {"time": 176635, "pitch": 56, "duration": 185, "velocity": 127}, {"time": 177114, "pitch": 36, "duration": 135, "velocity": 127}, {"time": 177114, "pitch": 46, "duration": 115, "velocity": 120}, {"time": 177114, "pitch": 56, "duration": 192, "velocity": 127}, {"time": 177594, "pitch": 36, "duration": 167, "velocity": 127}, {"time": 177594, "pitch": 38, "duration": 128, "velocity": 127}, {"time": 177594, "pitch": 46, "duration": 99, "velocity": 120}, {"time": 177594, "pitch": 56, "duration": 198, "velocity": 127}, {"time": 178074, "pitch": 36, "duration": 98, "velocity": 127}, {"time": 178074, "pitch": 46, "duration": 90, "velocity": 120}, {"time": 178074, "pitch": 56, "duration": 210, "velocity": 127}, {"time": 178320, "pitch": 36, "duration": 106, "velocity": 127}, {"time": 178566, "pitch": 38, "duration": 128, "velocity": 127}, {"time": 178566, "pitch": 46, "duration": 95, "velocity": 120}, {"time": 178566, "pitch": 56, "duration": 148, "velocity": 127}, {"time": 178806, "pitch": 36, "duration": 96, "velocity": 127}, {"time": 179046, "pitch": 36, "duration": 192, "velocity": 127}, {"time": 179046, "pitch": 46, "duration": 144, "velocity": 120}, {"time": 179046, "pitch": 56, "duration": 186, "velocity": 127}, {"time": 179525, "pitch": 36, "duration": 154, "velocity": 127}, {"time": 179525, "pitch": 38, "duration": 154, "velocity": 127}, {"time": 179525, "pitch": 46, "duration": 138, "velocity": 120}, {"time": 179525, "pitch": 56, "duration": 173, "velocity": 127}, {"time": 180005, "pitch": 36, "duration": 224, "velocity": 127}, {"time": 180005, "pitch": 46, "duration": 145, "velocity": 120}, {"time": 180005, "pitch": 56, "duration": 186, "velocity": 127}, {"time": 180485, "pitch": 36, "duration": 199, "velocity": 127}, {"time": 180485, "pitch": 38, "duration": 147, "velocity": 127}, {"time": 180485, "pitch": 46, "duration": 127, "velocity": 120}, {"time": 180485, "pitch": 56, "duration": 186, "velocity": 127}, {"time": 180964, "pitch": 36, "duration": 173, "velocity": 127}, {"time": 180964, "pitch": 46, "duration": 115, "velocity": 120}, {"time": 180964, "pitch": 56, "duration": 205, "velocity": 127}, {"time": 181444, "pitch": 36, "duration": 185, "velocity": 127}, {"time": 181444, "pitch": 38, "duration": 179, "velocity": 127}, {"time": 181444, "pitch": 46, "duration": 99, "velocity": 120}, {"time": 181444, "pitch": 56, "duration": 218, "velocity": 127}, {"time": 181924, "pitch": 36, "duration": 141, "velocity": 127}, {"time": 181924, "pitch": 46, "duration": 88, "velocity": 120}, {"time": 181924, "pitch": 56, "duration": 230, "velocity": 127}, {"time": 182164, "pitch": 36, "duration": 108, "velocity": 127}, {"time": 182403, "pitch": 36, "duration": 128, "velocity": 127}, {"time": 182403, "pitch": 38, "duration": 153, "velocity": 127}, {"time": 182403, "pitch": 46, "duration": 95, "velocity": 120}, {"time": 182403, "pitch": 56, "duration": 131, "velocity": 127}, {"time": 182643, "pitch": 36, "duration": 83, "velocity": 127}, {"time": 182883, "pitch": 36, "duration": 211, "velocity": 127}, {"time": 182883, "pitch": 46, "duration": 144, "velocity": 120}, {"time": 182883, "pitch": 56, "duration": 147, "velocity": 127}, {"time": 183363, "pitch": 36, "duration": 186, "velocity": 127}, {"time": 183363, "pitch": 38, "duration": 160, "velocity": 127}, {"time": 183363, "pitch": 46, "duration": 138, "velocity": 120}, {"time": 183363, "pitch": 56, "duration": 192, "velocity": 127}, {"time": 183842, "pitch": 36, "duration": 186, "velocity": 127}, {"time": 183842, "pitch": 46, "duration": 145, "velocity": 120}, {"time": 183842, "pitch": 56, "duration": 205, "velocity": 127}, {"time": 184322, "pitch": 36, "duration": 179, "velocity": 127}, {"time": 184322, "pitch": 38, "duration": 186, "velocity": 127}, {"time": 184322, "pitch": 46, "duration": 127, "velocity": 120}, {"time": 184322, "pitch": 56, "duration": 185, "velocity": 127}, {"time": 184802, "pitch": 36, "duration": 301, "velocity": 127}, {"time": 184802, "pitch": 43, "duration": 60, "velocity": 127}, {"time": 184802, "pitch": 46, "duration": 115, "velocity": 120}, {"time": 184802, "pitch": 56, "duration": 192, "velocity": 127}, {"time": 185042, "pitch": 43, "duration": 60, "velocity": 127}, {"time": 185282, "pitch": 36, "duration": 191, "velocity": 127}, {"time": 185282, "pitch": 38, "duration": 172, "velocity": 127}, {"time": 185282, "pitch": 43, "duration": 59, "velocity": 127}, {"time": 185282, "pitch": 46, "duration": 98, "velocity": 120}, {"time": 185282, "pitch": 56, "duration": 197, "velocity": 127}, {"time": 185641, "pitch": 43, "duration": 60, "velocity": 127}, {"time": 185761, "pitch": 36, "duration": 218, "velocity": 127}, {"time": 185761, "pitch": 43, "duration": 60, "velocity": 127}, {"time": 185761, "pitch": 46, "duration": 88, "velocity": 120}, {"time": 185761, "pitch": 56, "duration": 205, "velocity": 127}, {"time": 185881, "pitch": 43, "duration": 60, "velocity": 127}, {"time": 186001, "pitch": 38, "duration": 121, "velocity": 127}, {"time": 186001, "pitch": 43, "duration": 60, "velocity": 127}, {"time": 186121, "pitch": 43, "duration": 60, "velocity": 127}, {"time": 186241, "pitch": 38, "duration": 90, "velocity": 127}, {"time": 186241, "pitch": 43, "duration": 60, "velocity": 127}, {"time": 186241, "pitch": 46, "duration": 95, "velocity": 120}, {"time": 186241, "pitch": 56, "duration": 148, "velocity": 127}, {"time": 186481, "pitch": 36, "duration": 70, "velocity": 127}, {"time": 186481, "pitch": 38, "duration": 115, "velocity": 127}, {"time": 186481, "pitch": 43, "duration": 60, "velocity": 127}, {"time": 186721, "pitch": 36, "duration": 152, "velocity": 127}, {"time": 186721, "pitch": 42, "duration": 97, "velocity": 120}, {"time": 186721, "pitch": 49, "duration": 121, "velocity": 100}, {"time": 186721, "pitch": 57, "duration": 103, "velocity": 100}, {"time": 186960, "pitch": 42, "duration": 96, "velocity": 120}, {"time": 187200, "pitch": 38, "duration": 141, "velocity": 127}, {"time": 187200, "pitch": 46, "duration": 158, "velocity": 120}, {"time": 187440, "pitch": 42, "duration": 84, "velocity": 120}, {"time": 187680, "pitch": 36, "duration": 109, "velocity": 127}, {"time": 187680, "pitch": 42, "duration": 99, "velocity": 120}, {"time": 187920, "pitch": 36, "duration": 122, "velocity": 127}, {"time": 187920, "pitch": 42, "duration": 98, "velocity": 120}, {"time": 188160, "pitch": 38, "duration": 146, "velocity": 127}, {"time": 188160, "pitch": 46, "duration": 138, "velocity": 120}, {"time": 188399, "pitch": 36, "duration": 115, "velocity": 127}, {"time": 188399, "pitch": 42, "duration": 98, "velocity": 120}, {"time": 188639, "pitch": 36, "duration": 180, "velocity": 127}, {"time": 188639, "pitch": 42, "duration": 87, "velocity": 120}, {"time": 188879, "pitch": 42, "duration": 84, "velocity": 120}, {"time": 189119, "pitch": 36, "duration": 141, "velocity": 127}, {"time": 189119, "pitch": 38, "duration": 121, "velocity": 127}, {"time": 189119, "pitch": 46, "duration": 133, "velocity": 120}, {"time": 189359, "pitch": 42, "duration": 115, "velocity": 120}, {"time": 189599, "pitch": 36, "duration": 179, "velocity": 127}, {"time": 189599, "pitch": 42, "duration": 102, "velocity": 120}, {"time": 189838, "pitch": 42, "duration": 92, "velocity": 120}, {"time": 190078, "pitch": 36, "duration": 102, "velocity": 127}, {"time": 190078, "pitch": 38, "duration": 122, "velocity": 127}, {"time": 190078, "pitch": 46, "duration": 130, "velocity": 120}, {"time": 190318, "pitch": 36, "duration": 76, "velocity": 127}, {"time": 190318, "pitch": 42, "duration": 137, "velocity": 120}, {"time": 190558, "pitch": 36, "duration": 211, "velocity": 127}, {"time": 190558, "pitch": 42, "duration": 105, "velocity": 120}, {"time": 190798, "pitch": 42, "duration": 95, "velocity": 120}, {"time": 191038, "pitch": 36, "duration": 128, "velocity": 127}, {"time": 191038, "pitch": 38, "duration": 122, "velocity": 127}, {"time": 191038, "pitch": 46, "duration": 145, "velocity": 120}, {"time": 191277, "pitch": 42, "duration": 111, "velocity": 120}, {"time": 191517, "pitch": 36, "duration": 167, "velocity": 127}, {"time": 191517, "pitch": 42, "duration": 98, "velocity": 120}, {"time": 191757, "pitch": 42, "duration": 89, "velocity": 120}, {"time": 191997, "pitch": 36, "duration": 128, "velocity": 127}, {"time": 191997, "pitch": 38, "duration": 147, "velocity": 127}, {"time": 191997, "pitch": 46, "duration": 162, "velocity": 120}, {"time": 192237, "pitch": 42, "duration": 99, "velocity": 120}, {"time": 192477, "pitch": 36, "duration": 135, "velocity": 127}, {"time": 192477, "pitch": 42, "duration": 108, "velocity": 120}, {"time": 192717, "pitch": 42, "duration": 104, "velocity": 120}, {"time": 192956, "pitch": 36, "duration": 167, "velocity": 127}, {"time": 192956, "pitch": 38, "duration": 128, "velocity": 127}, {"time": 192956, "pitch": 46, "duration": 136, "velocity": 120}, {"time": 193196, "pitch": 42, "duration": 113, "velocity": 120}, {"time": 193436, "pitch": 36, "duration": 96, "velocity": 127}, {"time": 193436, "pitch": 42, "duration": 98, "velocity": 120}, {"time": 193676, "pitch": 36, "duration": 103, "velocity": 127}, {"time": 193676, "pitch": 46, "duration": 124, "velocity": 120}, {"time": 193676, "pitch": 49, "duration": 119, "velocity": 100}, {"time": 193916, "pitch": 38, "duration": 128, "velocity": 127}, {"time": 193916, "pitch": 42, "duration": 114, "velocity": 120}, {"time": 194156, "pitch": 36, "duration": 96, "velocity": 127}, {"time": 194156, "pitch": 46, "duration": 125, "velocity": 120}, {"time": 194156, "pitch": 57, "duration": 112, "velocity": 100}, {"time": 194395, "pitch": 36, "duration": 192, "velocity": 127}, {"time": 194395, "pitch": 42, "duration": 106, "velocity": 120}, {"time": 194395, "pitch": 49, "duration": 140, "velocity": 100}, {"time": 194635, "pitch": 42, "duration": 93, "velocity": 120}, {"time": 194875, "pitch": 36, "duration": 154, "velocity": 127}, {"time": 194875, "pitch": 38, "duration": 154, "velocity": 127}, {"time": 194875, "pitch": 46, "duration": 137, "velocity": 120}, {"time": 195115, "pitch": 42, "duration": 119, "velocity": 120}, {"time": 195355, "pitch": 36, "duration": 224, "velocity": 127}, {"time": 195355, "pitch": 42, "duration": 106, "velocity": 120}, {"time": 195595, "pitch": 42, "duration": 85, "velocity": 120}, {"time": 195834, "pitch": 36, "duration": 199, "velocity": 127}, {"time": 195834, "pitch": 38, "duration": 147, "velocity": 127}, {"time": 195834, "pitch": 46, "duration": 132, "velocity": 120}, {"time": 196074, "pitch": 42, "duration": 112, "velocity": 120}, {"time": 196314, "pitch": 36, "duration": 173, "velocity": 127}, {"time": 196314, "pitch": 42, "duration": 98, "velocity": 120}, {"time": 196554, "pitch": 42, "duration": 93, "velocity": 120}, {"time": 196794, "pitch": 36, "duration": 190, "velocity": 127}, {"time": 196794, "pitch": 38, "duration": 183, "velocity": 127}, {"time": 196794, "pitch": 46, "duration": 144, "velocity": 120}, {"time": 197040, "pitch": 42, "duration": 108, "velocity": 120}, {"time": 197286, "pitch": 36, "duration": 141, "velocity": 127}, {"time": 197286, "pitch": 42, "duration": 92, "velocity": 120}, {"time": 197526, "pitch": 36, "duration": 108, "velocity": 127}, {"time": 197526, "pitch": 42, "duration": 102, "velocity": 120}, {"time": 197766, "pitch": 36, "duration": 128, "velocity": 127}, {"time": 197766, "pitch": 38, "duration": 153, "velocity": 127}, {"time": 197766, "pitch": 46, "duration": 145, "velocity": 120}, {"time": 198006, "pitch": 36, "duration": 83, "velocity": 127}, {"time": 198006, "pitch": 42, "duration": 102, "velocity": 120}, {"time": 198245, "pitch": 36, "duration": 211, "velocity": 127}, {"time": 198245, "pitch": 42, "duration": 101, "velocity": 120}, {"time": 198485, "pitch": 42, "duration": 109, "velocity": 120}, {"time": 198725, "pitch": 36, "duration": 186, "velocity": 127}, {"time": 198725, "pitch": 38, "duration": 160, "velocity": 127}, {"time": 198725, "pitch": 46, "duration": 172, "velocity": 120}, {"time": 198965, "pitch": 42, "duration": 111, "velocity": 120}, {"time": 199205, "pitch": 36, "duration": 186, "velocity": 127}, {"time": 199205, "pitch": 42, "duration": 119, "velocity": 120}, {"time": 199445, "pitch": 42, "duration": 102, "velocity": 120}, {"time": 199685, "pitch": 36, "duration": 178, "velocity": 127}, {"time": 199685, "pitch": 38, "duration": 185, "velocity": 127}, {"time": 199685, "pitch": 46, "duration": 157, "velocity": 120}, {"time": 199924, "pitch": 42, "duration": 119, "velocity": 120}, {"time": 200164, "pitch": 36, "duration": 301, "velocity": 127}, {"time": 200164, "pitch": 42, "duration": 111, "velocity": 120}, {"time": 200404, "pitch": 46, "duration": 149, "velocity": 120}, {"time": 200404, "pitch": 49, "duration": 119, "velocity": 100}, {"time": 200644, "pitch": 36, "duration": 192, "velocity": 127}, {"time": 200644, "pitch": 38, "duration": 173, "velocity": 127}, {"time": 200644, "pitch": 42, "duration": 99, "velocity": 120}, {"time": 200884, "pitch": 42, "duration": 109, "velocity": 120}, {"time": 200884, "pitch": 57, "duration": 133, "velocity": 100}, {"time": 201124, "pitch": 36, "duration": 217, "velocity": 127}, {"time": 201124, "pitch": 46, "duration": 136, "velocity": 120}, {"time": 201124, "pitch": 49, "duration": 132, "velocity": 100}, {"time": 201363, "pitch": 38, "duration": 121, "velocity": 127}, {"time": 201363, "pitch": 42, "duration": 107, "velocity": 120}, {"time": 201363, "pitch": 57, "duration": 171, "velocity": 100}, {"time": 201603, "pitch": 38, "duration": 90, "velocity": 127}, {"time": 201603, "pitch": 46, "duration": 140, "velocity": 120}, {"time": 201603, "pitch": 49, "duration": 150, "velocity": 100}, {"time": 201843, "pitch": 36, "duration": 70, "velocity": 127}, {"time": 201843, "pitch": 38, "duration": 115, "velocity": 127}, {"time": 201843, "pitch": 42, "duration": 124, "velocity": 120}, {"time": 201843, "pitch": 57, "duration": 126, "velocity": 100}, {"time": 202083, "pitch": 36, "duration": 153, "velocity": 127}, {"time": 202083, "pitch": 46, "duration": 144, "velocity": 120}, {"time": 202083, "pitch": 49, "duration": 122, "velocity": 100}, {"time": 202083, "pitch": 56, "duration": 186, "velocity": 127}, {"time": 202083, "pitch": 57, "duration": 104, "velocity": 100}, {"time": 202563, "pitch": 38, "duration": 140, "velocity": 127}, {"time": 202563, "pitch": 46, "duration": 137, "velocity": 120}, {"time": 202563, "pitch": 53, "duration": 209, "velocity": 100}, {"time": 202563, "pitch": 56, "duration": 172, "velocity": 127}, {"time": 203042, "pitch": 36, "duration": 109, "velocity": 127}, {"time": 203042, "pitch": 46, "duration": 145, "velocity": 120}, {"time": 203042, "pitch": 53, "duration": 189, "velocity": 100}, {"time": 203042, "pitch": 56, "duration": 186, "velocity": 127}, {"time": 203282, "pitch": 36, "duration": 122, "velocity": 127}, {"time": 203522, "pitch": 38, "duration": 147, "velocity": 127}, {"time": 203522, "pitch": 46, "duration": 127, "velocity": 120}, {"time": 203522, "pitch": 53, "duration": 172, "velocity": 100}, {"time": 203522, "pitch": 56, "duration": 186, "velocity": 127}, {"time": 203762, "pitch": 36, "duration": 115, "velocity": 127}, {"time": 204002, "pitch": 36, "duration": 180, "velocity": 127}, {"time": 204002, "pitch": 46, "duration": 115, "velocity": 120}, {"time": 204002, "pitch": 53, "duration": 209, "velocity": 100}, {"time": 204002, "pitch": 56, "duration": 204, "velocity": 127}, {"time": 204481, "pitch": 36, "duration": 141, "velocity": 127}, {"time": 204481, "pitch": 38, "duration": 121, "velocity": 127}, {"time": 204481, "pitch": 46, "duration": 99, "velocity": 120}, {"time": 204481, "pitch": 53, "duration": 209, "velocity": 100}, {"time": 204481, "pitch": 56, "duration": 218, "velocity": 127}, {"time": 204961, "pitch": 36, "duration": 179, "velocity": 127}, {"time": 204961, "pitch": 46, "duration": 88, "velocity": 120}, {"time": 204961, "pitch": 53, "duration": 203, "velocity": 100}, {"time": 204961, "pitch": 56, "duration": 230, "velocity": 127}, {"time": 205441, "pitch": 36, "duration": 102, "velocity": 127}, {"time": 205441, "pitch": 38, "duration": 122, "velocity": 127}, {"time": 205441, "pitch": 46, "duration": 95, "velocity": 120}, {"time": 205441, "pitch": 53, "duration": 232, "velocity": 100}, {"time": 205441, "pitch": 56, "duration": 131, "velocity": 127}, {"time": 205681, "pitch": 36, "duration": 75, "velocity": 127}, {"time": 205920, "pitch": 36, "duration": 211, "velocity": 127}, {"time": 205920, "pitch": 46, "duration": 144, "velocity": 120}, {"time": 205920, "pitch": 53, "duration": 249, "velocity": 100}, {"time": 205920, "pitch": 56, "duration": 147, "velocity": 127}, {"time": 206400, "pitch": 36, "duration": 128, "velocity": 127}, {"time": 206400, "pitch": 38, "duration": 122, "velocity": 127}, {"time": 206400, "pitch": 46, "duration": 138, "velocity": 120}, {"time": 206400, "pitch": 53, "duration": 231, "velocity": 100}, {"time": 206400, "pitch": 56, "duration": 192, "velocity": 127}, {"time": 206880, "pitch": 36, "duration": 167, "velocity": 127}, {"time": 206880, "pitch": 46, "duration": 145, "velocity": 120}, {"time": 206880, "pitch": 53, "duration": 245, "velocity": 100}, {"time": 206880, "pitch": 56, "duration": 205, "velocity": 127}, {"time": 207359, "pitch": 36, "duration": 128, "velocity": 127}, {"time": 207359, "pitch": 38, "duration": 147, "velocity": 127}, {"time": 207359, "pitch": 46, "duration": 127, "velocity": 120}, {"time": 207359, "pitch": 53, "duration": 223, "velocity": 100}, {"time": 207359, "pitch": 56, "duration": 185, "velocity": 127}, {"time": 207839, "pitch": 36, "duration": 135, "velocity": 127}, {"time": 207839, "pitch": 46, "duration": 115, "velocity": 120}, {"time": 207839, "pitch": 56, "duration": 192, "velocity": 127}, {"time": 208079, "pitch": 49, "duration": 114, "velocity": 100}, {"time": 208319, "pitch": 36, "duration": 167, "velocity": 127}, {"time": 208319, "pitch": 38, "duration": 128, "velocity": 127}, {"time": 208319, "pitch": 46, "duration": 99, "velocity": 120}, {"time": 208319, "pitch": 56, "duration": 198, "velocity": 127}, {"time": 208798, "pitch": 36, "duration": 96, "velocity": 127}, {"time": 208798, "pitch": 46, "duration": 88, "velocity": 120}, {"time": 208798, "pitch": 56, "duration": 205, "velocity": 127}, {"time": 208798, "pitch": 57, "duration": 164, "velocity": 100}, {"time": 209038, "pitch": 36, "duration": 103, "velocity": 127}, {"time": 209278, "pitch": 38, "duration": 128, "velocity": 127}, {"time": 209278, "pitch": 46, "duration": 95, "velocity": 120}, {"time": 209278, "pitch": 49, "duration": 153, "velocity": 100}, {"time": 209278, "pitch": 56, "duration": 148, "velocity": 127}, {"time": 209518, "pitch": 36, "duration": 96, "velocity": 127}, {"time": 209758, "pitch": 36, "duration": 153, "velocity": 127}, {"time": 209758, "pitch": 46, "duration": 144, "velocity": 120}, {"time": 209758, "pitch": 49, "duration": 122, "velocity": 100}, {"time": 209758, "pitch": 56, "duration": 186, "velocity": 127}, {"time": 209758, "pitch": 57, "duration": 104, "velocity": 100}, {"time": 210237, "pitch": 38, "duration": 141, "velocity": 127}, {"time": 210237, "pitch": 46, "duration": 138, "velocity": 120}, {"time": 210237, "pitch": 53, "duration": 198, "velocity": 100}, {"time": 210237, "pitch": 56, "duration": 173, "velocity": 127}, {"time": 210717, "pitch": 36, "duration": 109, "velocity": 127}, {"time": 210717, "pitch": 46, "duration": 145, "velocity": 120}, {"time": 210717, "pitch": 53, "duration": 214, "velocity": 100}, {"time": 210717, "pitch": 56, "duration": 186, "velocity": 127}, {"time": 210957, "pitch": 36, "duration": 122, "velocity": 127}, {"time": 211197, "pitch": 38, "duration": 147, "velocity": 127}, {"time": 211197, "pitch": 46, "duration": 127, "velocity": 120}, {"time": 211197, "pitch": 53, "duration": 232, "velocity": 100}, {"time": 211197, "pitch": 56, "duration": 186, "velocity": 127}, {"time": 211437, "pitch": 36, "duration": 115, "velocity": 127}, {"time": 211676, "pitch": 36, "duration": 180, "velocity": 127}, {"time": 211676, "pitch": 46, "duration": 115, "velocity": 120}, {"time": 211676, "pitch": 53, "duration": 239, "velocity": 100}, {"time": 211676, "pitch": 56, "duration": 205, "velocity": 127}, {"time": 212156, "pitch": 36, "duration": 141, "velocity": 127}, {"time": 212156, "pitch": 38, "duration": 121, "velocity": 127}, {"time": 212156, "pitch": 46, "duration": 99, "velocity": 120}, {"time": 212156, "pitch": 53, "duration": 223, "velocity": 100}, {"time": 212156, "pitch": 56, "duration": 218, "velocity": 127}, {"time": 212636, "pitch": 36, "duration": 179, "velocity": 127}, {"time": 212636, "pitch": 46, "duration": 88, "velocity": 120}, {"time": 212636, "pitch": 53, "duration": 203, "velocity": 100}, {"time": 212636, "pitch": 56, "duration": 230, "velocity": 127}, {"time": 213116, "pitch": 36, "duration": 101, "velocity": 127}, {"time": 213116, "pitch": 38, "duration": 121, "velocity": 127}, {"time": 213116, "pitch": 46, "duration": 94, "velocity": 120}, {"time": 213116, "pitch": 53, "duration": 186, "velocity": 100}, {"time": 213116, "pitch": 56, "duration": 130, "velocity": 127}, {"time": 213355, "pitch": 36, "duration": 76, "velocity": 127}, {"time": 213595, "pitch": 36, "duration": 211, "velocity": 127}, {"time": 213595, "pitch": 46, "duration": 144, "velocity": 120}, {"time": 213595, "pitch": 53, "duration": 209, "velocity": 100}, {"time": 213595, "pitch": 56, "duration": 147, "velocity": 127}, {"time": 214075, "pitch": 36, "duration": 128, "velocity": 127}, {"time": 214075, "pitch": 38, "duration": 122, "velocity": 127}, {"time": 214075, "pitch": 46, "duration": 138, "velocity": 120}, {"time": 214075, "pitch": 53, "duration": 219, "velocity": 100}, {"time": 214075, "pitch": 56, "duration": 192, "velocity": 127}, {"time": 214555, "pitch": 36, "duration": 166, "velocity": 127}, {"time": 214555, "pitch": 46, "duration": 144, "velocity": 120}, {"time": 214555, "pitch": 53, "duration": 207, "velocity": 100}, {"time": 214555, "pitch": 56, "duration": 204, "velocity": 127}, {"time": 215034, "pitch": 36, "duration": 128, "velocity": 127}, {"time": 215034, "pitch": 38, "duration": 147, "velocity": 127}, {"time": 215034, "pitch": 46, "duration": 127, "velocity": 120}, {"time": 215034, "pitch": 53, "duration": 188, "velocity": 100}, {"time": 215034, "pitch": 56, "duration": 185, "velocity": 127}, {"time": 215514, "pitch": 36, "duration": 138, "velocity": 127}, {"time": 215514, "pitch": 46, "duration": 118, "velocity": 120}, {"time": 215514, "pitch": 56, "duration": 197, "velocity": 127}, {"time": 215760, "pitch": 49, "duration": 117, "velocity": 100}, {"time": 216006, "pitch": 36, "duration": 167, "velocity": 127}, {"time": 216006, "pitch": 38, "duration": 128, "velocity": 127}, {"time": 216006, "pitch": 46, "duration": 99, "velocity": 120}, {"time": 216006, "pitch": 56, "duration": 198, "velocity": 127}, {"time": 216486, "pitch": 36, "duration": 96, "velocity": 127}, {"time": 216486, "pitch": 46, "duration": 88, "velocity": 120}, {"time": 216486, "pitch": 56, "duration": 205, "velocity": 127}, {"time": 216486, "pitch": 57, "duration": 164, "velocity": 100}, {"time": 216726, "pitch": 36, "duration": 103, "velocity": 127}, {"time": 216966, "pitch": 38, "duration": 128, "velocity": 127}, {"time": 216966, "pitch": 46, "duration": 95, "velocity": 120}, {"time": 216966, "pitch": 49, "duration": 152, "velocity": 100}, {"time": 216966, "pitch": 56, "duration": 147, "velocity": 127}, {"time": 217205, "pitch": 36, "duration": 96, "velocity": 127}, {"time": 217445, "pitch": 36, "duration": 153, "velocity": 127}, {"time": 217445, "pitch": 46, "duration": 144, "velocity": 120}, {"time": 217445, "pitch": 49, "duration": 122, "velocity": 100}, {"time": 217445, "pitch": 56, "duration": 186, "velocity": 127}, {"time": 217445, "pitch": 57, "duration": 104, "velocity": 100}, {"time": 217925, "pitch": 38, "duration": 141, "velocity": 127}, {"time": 217925, "pitch": 46, "duration": 138, "velocity": 120}, {"time": 217925, "pitch": 53, "duration": 206, "velocity": 100}, {"time": 217925, "pitch": 56, "duration": 173, "velocity": 127}, {"time": 218405, "pitch": 36, "duration": 109, "velocity": 127}, {"time": 218405, "pitch": 46, "duration": 145, "velocity": 120}, {"time": 218405, "pitch": 53, "duration": 233, "velocity": 100}, {"time": 218405, "pitch": 56, "duration": 186, "velocity": 127}, {"time": 218644, "pitch": 36, "duration": 122, "velocity": 127}, {"time": 218884, "pitch": 38, "duration": 147, "velocity": 127}, {"time": 218884, "pitch": 46, "duration": 127, "velocity": 120}, {"time": 218884, "pitch": 53, "duration": 235, "velocity": 100}, {"time": 218884, "pitch": 56, "duration": 186, "velocity": 127}, {"time": 219124, "pitch": 36, "duration": 115, "velocity": 127}, {"time": 219364, "pitch": 36, "duration": 180, "velocity": 127}, {"time": 219364, "pitch": 46, "duration": 115, "velocity": 120}, {"time": 219364, "pitch": 53, "duration": 198, "velocity": 100}, {"time": 219364, "pitch": 56, "duration": 205, "velocity": 127}, {"time": 219844, "pitch": 36, "duration": 141, "velocity": 127}, {"time": 219844, "pitch": 38, "duration": 121, "velocity": 127}, {"time": 219844, "pitch": 46, "duration": 99, "velocity": 120}, {"time": 219844, "pitch": 53, "duration": 228, "velocity": 100}, {"time": 219844, "pitch": 56, "duration": 218, "velocity": 127}, {"time": 220323, "pitch": 36, "duration": 179, "velocity": 127}, {"time": 220323, "pitch": 46, "duration": 88, "velocity": 120}, {"time": 220323, "pitch": 53, "duration": 226, "velocity": 100}, {"time": 220323, "pitch": 56, "duration": 230, "velocity": 127}, {"time": 220803, "pitch": 36, "duration": 102, "velocity": 127}, {"time": 220803, "pitch": 38, "duration": 122, "velocity": 127}, {"time": 220803, "pitch": 46, "duration": 95, "velocity": 120}, {"time": 220803, "pitch": 53, "duration": 223, "velocity": 100}, {"time": 220803, "pitch": 56, "duration": 131, "velocity": 127}, {"time": 221043, "pitch": 36, "duration": 76, "velocity": 127}, {"time": 221283, "pitch": 36, "duration": 211, "velocity": 127}, {"time": 221283, "pitch": 46, "duration": 144, "velocity": 120}, {"time": 221283, "pitch": 53, "duration": 214, "velocity": 100}, {"time": 221283, "pitch": 56, "duration": 147, "velocity": 127}, {"time": 221762, "pitch": 36, "duration": 128, "velocity": 127}, {"time": 221762, "pitch": 38, "duration": 122, "velocity": 127}, {"time": 221762, "pitch": 46, "duration": 138, "velocity": 120}, {"time": 221762, "pitch": 53, "duration": 236, "velocity": 100}, {"time": 221762, "pitch": 56, "duration": 192, "velocity": 127}, {"time": 222242, "pitch": 36, "duration": 167, "velocity": 127}, {"time": 222242, "pitch": 46, "duration": 145, "velocity": 120}, {"time": 222242, "pitch": 53, "duration": 219, "velocity": 100}, {"time": 222242, "pitch": 56, "duration": 205, "velocity": 127}, {"time": 222722, "pitch": 36, "duration": 128, "velocity": 127}, {"time": 222722, "pitch": 38, "duration": 147, "velocity": 127}, {"time": 222722, "pitch": 46, "duration": 127, "velocity": 120}, {"time": 222722, "pitch": 53, "duration": 117, "velocity": 100}, {"time": 222722, "pitch": 56, "duration": 185, "velocity": 127}, {"time": 223201, "pitch": 36, "duration": 135, "velocity": 127}, {"time": 223201, "pitch": 46, "duration": 115, "velocity": 120}, {"time": 223201, "pitch": 56, "duration": 192, "velocity": 127}, {"time": 223441, "pitch": 49, "duration": 114, "velocity": 100}, {"time": 223681, "pitch": 36, "duration": 167, "velocity": 127}, {"time": 223681, "pitch": 38, "duration": 128, "velocity": 127}, {"time": 223681, "pitch": 46, "duration": 99, "velocity": 120}, {"time": 223681, "pitch": 56, "duration": 198, "velocity": 127}, {"time": 224161, "pitch": 36, "duration": 96, "velocity": 127}, {"time": 224161, "pitch": 46, "duration": 88, "velocity": 120}, {"time": 224161, "pitch": 56, "duration": 205, "velocity": 127}, {"time": 224161, "pitch": 57, "duration": 164, "velocity": 100}, {"time": 224401, "pitch": 36, "duration": 103, "velocity": 127}, {"time": 224640, "pitch": 38, "duration": 128, "velocity": 127}, {"time": 224640, "pitch": 46, "duration": 95, "velocity": 120}, {"time": 224640, "pitch": 49, "duration": 153, "velocity": 100}, {"time": 224640, "pitch": 56, "duration": 148, "velocity": 127}, {"time": 224880, "pitch": 36, "duration": 96, "velocity": 127}, {"time": 225120, "pitch": 36, "duration": 153, "velocity": 127}, {"time": 225120, "pitch": 46, "duration": 144, "velocity": 120}, {"time": 225120, "pitch": 49, "duration": 122, "velocity": 100}, {"time": 225120, "pitch": 56, "duration": 186, "velocity": 127}, {"time": 225120, "pitch": 57, "duration": 104, "velocity": 100}, {"time": 225600, "pitch": 38, "duration": 141, "velocity": 127}, {"time": 225600, "pitch": 46, "duration": 138, "velocity": 120}, {"time": 225600, "pitch": 53, "duration": 202, "velocity": 100}, {"time": 225600, "pitch": 56, "duration": 173, "velocity": 127}, {"time": 226079, "pitch": 36, "duration": 109, "velocity": 127}, {"time": 226079, "pitch": 46, "duration": 145, "velocity": 120}, {"time": 226079, "pitch": 53, "duration": 206, "velocity": 100}, {"time": 226079, "pitch": 56, "duration": 186, "velocity": 127}, {"time": 226319, "pitch": 36, "duration": 122, "velocity": 127}, {"time": 226559, "pitch": 38, "duration": 147, "velocity": 127}, {"time": 226559, "pitch": 46, "duration": 127, "velocity": 120}, {"time": 226559, "pitch": 53, "duration": 170, "velocity": 100}, {"time": 226559, "pitch": 56, "duration": 186, "velocity": 127}, {"time": 226799, "pitch": 36, "duration": 115, "velocity": 127}, {"time": 227039, "pitch": 36, "duration": 180, "velocity": 127}, {"time": 227039, "pitch": 46, "duration": 115, "velocity": 120}, {"time": 227039, "pitch": 53, "duration": 180, "velocity": 100}, {"time": 227039, "pitch": 56, "duration": 205, "velocity": 127}, {"time": 227519, "pitch": 36, "duration": 140, "velocity": 127}, {"time": 227519, "pitch": 38, "duration": 120, "velocity": 127}, {"time": 227519, "pitch": 46, "duration": 98, "velocity": 120}, {"time": 227519, "pitch": 53, "duration": 179, "velocity": 100}, {"time": 227519, "pitch": 56, "duration": 217, "velocity": 127}, {"time": 227998, "pitch": 36, "duration": 179, "velocity": 127}, {"time": 227998, "pitch": 46, "duration": 88, "velocity": 120}, {"time": 227998, "pitch": 53, "duration": 191, "velocity": 100}, {"time": 227998, "pitch": 56, "duration": 230, "velocity": 127}, {"time": 228478, "pitch": 36, "duration": 102, "velocity": 127}, {"time": 228478, "pitch": 38, "duration": 122, "velocity": 127}, {"time": 228478, "pitch": 46, "duration": 95, "velocity": 120}, {"time": 228478, "pitch": 53, "duration": 158, "velocity": 100}, {"time": 228478, "pitch": 56, "duration": 131, "velocity": 127}, {"time": 228718, "pitch": 36, "duration": 76, "velocity": 127}, {"time": 228958, "pitch": 36, "duration": 210, "velocity": 127}, {"time": 228958, "pitch": 46, "duration": 143, "velocity": 120}, {"time": 228958, "pitch": 53, "duration": 176, "velocity": 100}, {"time": 228958, "pitch": 56, "duration": 146, "velocity": 127}, {"time": 229437, "pitch": 36, "duration": 128, "velocity": 127}, {"time": 229437, "pitch": 38, "duration": 122, "velocity": 127}, {"time": 229437, "pitch": 46, "duration": 138, "velocity": 120}, {"time": 229437, "pitch": 53, "duration": 176, "velocity": 100}, {"time": 229437, "pitch": 56, "duration": 192, "velocity": 127}, {"time": 229917, "pitch": 36, "duration": 167, "velocity": 127}, {"time": 229917, "pitch": 46, "duration": 145, "velocity": 120}, {"time": 229917, "pitch": 53, "duration": 159, "velocity": 100}, {"time": 229917, "pitch": 56, "duration": 205, "velocity": 127}, {"time": 230397, "pitch": 36, "duration": 128, "velocity": 127}, {"time": 230397, "pitch": 38, "duration": 147, "velocity": 127}, {"time": 230397, "pitch": 46, "duration": 127, "velocity": 120}, {"time": 230397, "pitch": 53, "duration": 98, "velocity": 100}, {"time": 230397, "pitch": 56, "duration": 184, "velocity": 127}, {"time": 230876, "pitch": 36, "duration": 128, "velocity": 127}, {"time": 230876, "pitch": 38, "duration": 147, "velocity": 127}, {"time": 230876, "pitch": 42, "duration": 115, "velocity": 120}, {"time": 230876, "pitch": 56, "duration": 192, "velocity": 127}, {"time": 231096, "pitch": 38, "duration": 128, "velocity": 127}, {"time": 231116, "pitch": 38, "duration": 108, "velocity": 127}, {"time": 232075, "pitch": 36, "duration": 115, "velocity": 127}, {"time": 232315, "pitch": 38, "duration": 128, "velocity": 127}, {"time": 232315, "pitch": 56, "duration": 148, "velocity": 127}, {"time": 232335, "pitch": 38, "duration": 108, "velocity": 127}, {"time": 232555, "pitch": 36, "duration": 96, "velocity": 127}, {"time": 232795, "pitch": 36, "duration": 153, "velocity": 127}, {"time": 232795, "pitch": 46, "duration": 163, "velocity": 120}, {"time": 232795, "pitch": 49, "duration": 122, "velocity": 100}, {"time": 232795, "pitch": 56, "duration": 186, "velocity": 127}, {"time": 232795, "pitch": 57, "duration": 104, "velocity": 100}, {"time": 233275, "pitch": 38, "duration": 141, "velocity": 127}, {"time": 233275, "pitch": 46, "duration": 209, "velocity": 120}, {"time": 233275, "pitch": 56, "duration": 173, "velocity": 127}, {"time": 233754, "pitch": 36, "duration": 109, "velocity": 127}, {"time": 233754, "pitch": 46, "duration": 228, "velocity": 120}, {"time": 233754, "pitch": 56, "duration": 186, "velocity": 127}, {"time": 233994, "pitch": 36, "duration": 122, "velocity": 127}, {"time": 234234, "pitch": 38, "duration": 147, "velocity": 127}, {"time": 234234, "pitch": 46, "duration": 206, "velocity": 120}, {"time": 234234, "pitch": 56, "duration": 186, "velocity": 127}, {"time": 234474, "pitch": 36, "duration": 115, "velocity": 127}, {"time": 234714, "pitch": 36, "duration": 184, "velocity": 127}, {"time": 234714, "pitch": 46, "duration": 223, "velocity": 120}, {"time": 234714, "pitch": 56, "duration": 210, "velocity": 127}, {"time": 235206, "pitch": 36, "duration": 141, "velocity": 127}, {"time": 235206, "pitch": 38, "duration": 121, "velocity": 127}, {"time": 235206, "pitch": 46, "duration": 234, "velocity": 120}, {"time": 235206, "pitch": 56, "duration": 218, "velocity": 127}, {"time": 235686, "pitch": 36, "duration": 179, "velocity": 127}, {"time": 235686, "pitch": 46, "duration": 257, "velocity": 120}, {"time": 235686, "pitch": 56, "duration": 230, "velocity": 127}, {"time": 236165, "pitch": 36, "duration": 102, "velocity": 127}, {"time": 236165, "pitch": 38, "duration": 122, "velocity": 127}, {"time": 236165, "pitch": 46, "duration": 255, "velocity": 120}, {"time": 236165, "pitch": 56, "duration": 131, "velocity": 127}, {"time": 236405, "pitch": 36, "duration": 76, "velocity": 127}, {"time": 236645, "pitch": 36, "duration": 211, "velocity": 127}, {"time": 236645, "pitch": 46, "duration": 204, "velocity": 120}, {"time": 236645, "pitch": 56, "duration": 147, "velocity": 127}, {"time": 237125, "pitch": 36, "duration": 128, "velocity": 127}, {"time": 237125, "pitch": 38, "duration": 122, "velocity": 127}, {"time": 237125, "pitch": 46, "duration": 228, "velocity": 120}, {"time": 237125, "pitch": 56, "duration": 192, "velocity": 127}, {"time": 237604, "pitch": 36, "duration": 167, "velocity": 127}, {"time": 237604, "pitch": 46, "duration": 223, "velocity": 120}, {"time": 237604, "pitch": 56, "duration": 205, "velocity": 127}, {"time": 238084, "pitch": 36, "duration": 128, "velocity": 127}, {"time": 238084, "pitch": 38, "duration": 147, "velocity": 127}, {"time": 238084, "pitch": 46, "duration": 230, "velocity": 120}, {"time": 238084, "pitch": 56, "duration": 185, "velocity": 127}, {"time": 238564, "pitch": 36, "duration": 135, "velocity": 127}, {"time": 238564, "pitch": 46, "duration": 195, "velocity": 120}, {"time": 238564, "pitch": 56, "duration": 192, "velocity": 127}, {"time": 239043, "pitch": 36, "duration": 167, "velocity": 127}, {"time": 239043, "pitch": 38, "duration": 128, "velocity": 127}, {"time": 239043, "pitch": 46, "duration": 181, "velocity": 120}, {"time": 239043, "pitch": 56, "duration": 198, "velocity": 127}, {"time": 239523, "pitch": 36, "duration": 96, "velocity": 127}, {"time": 239523, "pitch": 46, "duration": 193, "velocity": 120}, {"time": 239523, "pitch": 56, "duration": 205, "velocity": 127}, {"time": 239763, "pitch": 36, "duration": 103, "velocity": 127}, {"time": 240003, "pitch": 38, "duration": 128, "velocity": 127}, {"time": 240003, "pitch": 46, "duration": 172, "velocity": 120}, {"time": 240003, "pitch": 56, "duration": 148, "velocity": 127}, {"time": 240243, "pitch": 36, "duration": 96, "velocity": 127}, {"time": 240483, "pitch": 36, "duration": 191, "velocity": 127}, {"time": 240483, "pitch": 46, "duration": 137, "velocity": 120}, {"time": 240483, "pitch": 49, "duration": 121, "velocity": 100}, {"time": 240483, "pitch": 56, "duration": 185, "velocity": 127}, {"time": 240483, "pitch": 57, "duration": 103, "velocity": 100}, {"time": 240962, "pitch": 36, "duration": 154, "velocity": 127}, {"time": 240962, "pitch": 38, "duration": 154, "velocity": 127}, {"time": 240962, "pitch": 46, "duration": 149, "velocity": 120}, {"time": 240962, "pitch": 56, "duration": 173, "velocity": 127}, {"time": 241442, "pitch": 36, "duration": 224, "velocity": 127}, {"time": 241442, "pitch": 46, "duration": 180, "velocity": 120}, {"time": 241442, "pitch": 56, "duration": 186, "velocity": 127}, {"time": 241922, "pitch": 36, "duration": 198, "velocity": 127}, {"time": 241922, "pitch": 38, "duration": 146, "velocity": 127}, {"time": 241922, "pitch": 46, "duration": 164, "velocity": 120}, {"time": 241922, "pitch": 56, "duration": 185, "velocity": 127}, {"time": 242401, "pitch": 36, "duration": 173, "velocity": 127}, {"time": 242401, "pitch": 46, "duration": 172, "velocity": 120}, {"time": 242401, "pitch": 56, "duration": 205, "velocity": 127}, {"time": 242881, "pitch": 36, "duration": 185, "velocity": 127}, {"time": 242881, "pitch": 38, "duration": 179, "velocity": 127}, {"time": 242881, "pitch": 46, "duration": 158, "velocity": 120}, {"time": 242881, "pitch": 56, "duration": 218, "velocity": 127}, {"time": 243361, "pitch": 36, "duration": 140, "velocity": 127}, {"time": 243361, "pitch": 46, "duration": 144, "velocity": 120}, {"time": 243361, "pitch": 56, "duration": 229, "velocity": 127}, {"time": 243600, "pitch": 36, "duration": 108, "velocity": 127}, {"time": 243840, "pitch": 36, "duration": 128, "velocity": 127}, {"time": 243840, "pitch": 38, "duration": 153, "velocity": 127}, {"time": 243840, "pitch": 46, "duration": 153, "velocity": 120}, {"time": 243840, "pitch": 56, "duration": 131, "velocity": 127}, {"time": 244080, "pitch": 36, "duration": 83, "velocity": 127}, {"time": 244320, "pitch": 36, "duration": 211, "velocity": 127}, {"time": 244320, "pitch": 46, "duration": 155, "velocity": 120}, {"time": 244320, "pitch": 56, "duration": 147, "velocity": 127}, {"time": 244800, "pitch": 36, "duration": 185, "velocity": 127}, {"time": 244800, "pitch": 38, "duration": 160, "velocity": 127}, {"time": 244800, "pitch": 46, "duration": 146, "velocity": 120}, {"time": 244800, "pitch": 56, "duration": 191, "velocity": 127}, {"time": 245279, "pitch": 36, "duration": 186, "velocity": 127}, {"time": 245279, "pitch": 46, "duration": 150, "velocity": 120}, {"time": 245279, "pitch": 56, "duration": 205, "velocity": 127}, {"time": 245759, "pitch": 36, "duration": 179, "velocity": 127}, {"time": 245759, "pitch": 38, "duration": 186, "velocity": 127}, {"time": 245759, "pitch": 46, "duration": 150, "velocity": 120}, {"time": 245759, "pitch": 56, "duration": 185, "velocity": 127}, {"time": 246239, "pitch": 36, "duration": 300, "velocity": 127}, {"time": 246239, "pitch": 46, "duration": 144, "velocity": 120}, {"time": 246239, "pitch": 56, "duration": 192, "velocity": 127}, {"time": 246718, "pitch": 36, "duration": 192, "velocity": 127}, {"time": 246718, "pitch": 38, "duration": 173, "velocity": 127}, {"time": 246718, "pitch": 46, "duration": 146, "velocity": 120}, {"time": 246718, "pitch": 56, "duration": 198, "velocity": 127}, {"time": 247198, "pitch": 36, "duration": 218, "velocity": 127}, {"time": 247198, "pitch": 46, "duration": 146, "velocity": 120}, {"time": 247198, "pitch": 56, "duration": 205, "velocity": 127}, {"time": 247438, "pitch": 38, "duration": 121, "velocity": 127}, {"time": 247678, "pitch": 38, "duration": 90, "velocity": 127}, {"time": 247678, "pitch": 46, "duration": 154, "velocity": 120}, {"time": 247678, "pitch": 56, "duration": 148, "velocity": 127}, {"time": 247918, "pitch": 36, "duration": 69, "velocity": 127}, {"time": 247918, "pitch": 38, "duration": 114, "velocity": 127}, {"time": 248157, "pitch": 36, "duration": 135, "velocity": 127}, {"time": 248157, "pitch": 38, "duration": 128, "velocity": 127}, {"time": 248157, "pitch": 46, "duration": 115, "velocity": 120}, {"time": 248157, "pitch": 49, "duration": 122, "velocity": 100}, {"time": 248157, "pitch": 57, "duration": 104, "velocity": 100}, {"time": 248397, "pitch": 42, "duration": 99, "velocity": 120}], "annotations": [{"time": 184, "annotation": {"number": 0, "value": 0}, "group": "control_change"}, {"time": 203, "annotation": {"number": 32, "value": 2}, "group": "control_change"}, {"time": 240, "annotation": {"number": 7, "value": 120}, "group": "control_change"}, {"time": 258, "annotation": {"number": 11, "value": 110}, "group": "control_change"}, {"time": 277, "annotation": {"number": 91, "value": 60}, "group": "control_change"}, {"time": 295, "annotation": {"number": 101, "value": 127}, "group": "control_change"}, {"time": 314, "annotation": {"number": 100, "value": 127}, "group": "control_change"}]}]}