{"metadata": {"schema_version": "0.1", "title": "RWC-MDB-P-2001 No. 30: Syounen no omoi / Mitsuru Tanimoto", "copyright": "RWC Music Database. Copyright (C) 2001 Real World Computing Partnership (contact: Masataka GOTO <m.goto@aist.go.jp>)", "source_filename": "RM-P030.SMF_SYNC.MID", "source_format": "midi"}, "resolution": 480, "tempos": [{"time": 0, "qpm": 58.8235294117647}, {"time": 480, "qpm": 107.14285714285714}, {"time": 1920, "qpm": 105.26315789473684}, {"time": 2400, "qpm": 107.14285714285714}, {"time": 8640, "qpm": 105.26315789473684}, {"time": 9120, "qpm": 107.14285714285714}, {"time": 15360, "qpm": 105.26315789473684}, {"time": 15840, "qpm": 107.14285714285714}, {"time": 21120, "qpm": 105.26315789473684}, {"time": 21600, "qpm": 107.14285714285714}, {"time": 27360, "qpm": 105.26315789473684}, {"time": 27840, "qpm": 107.14285714285714}, {"time": 33600, "qpm": 105.26315789473684}, {"time": 34080, "qpm": 109.0909090909091}, {"time": 34560, "qpm": 105.26315789473684}, {"time": 35040, "qpm": 107.14285714285714}, {"time": 40320, "qpm": 105.26315789473684}, {"time": 40800, "qpm": 107.14285714285714}, {"time": 46560, "qpm": 105.26315789473684}, {"time": 47040, "qpm": 107.14285714285714}, {"time": 53760, "qpm": 105.26315789473684}, {"time": 54240, "qpm": 107.14285714285714}, {"time": 60000, "qpm": 105.26315789473684}, {"time": 60480, "qpm": 107.14285714285714}, {"time": 66720, "qpm": 105.26315789473684}, {"time": 67200, "qpm": 107.14285714285714}, {"time": 72480, "qpm": 105.26315789473684}, {"time": 72960, "qpm": 107.14285714285714}, {"time": 79200, "qpm": 105.26315789473684}, {"time": 79680, "qpm": 107.14285714285714}, {"time": 85440, "qpm": 105.26315789473684}, {"time": 85920, "qpm": 107.14285714285714}, {"time": 91680, "qpm": 105.26315789473684}, {"time": 92160, "qpm": 107.14285714285714}, {"time": 98880, "qpm": 105.26315789473684}, {"time": 99360, "qpm": 107.14285714285714}, {"time": 104160, "qpm": 105.26315789473684}, {"time": 104640, "qpm": 107.14285714285714}, {"time": 110880, "qpm": 105.26315789473684}, {"time": 111360, "qpm": 109.0909090909091}, {"time": 111840, "qpm": 105.26315789473684}, {"time": 112320, "qpm": 107.14285714285714}, {"time": 117120, "qpm": 105.26315789473684}, {"time": 117600, "qpm": 109.0909090909091}, {"time": 118080, "qpm": 105.26315789473684}, {"time": 118560, "qpm": 107.14285714285714}, {"time": 123360, "qpm": 105.26315789473684}, {"time": 123840, "qpm": 107.14285714285714}, {"time": 129120, "qpm": 105.26315789473684}, {"time": 129600, "qpm": 109.0909090909091}, {"time": 130080, "qpm": 107.14285714285714}, {"time": 130560, "qpm": 105.26315789473684}, {"time": 131040, "qpm": 107.14285714285714}, {"time": 137280, "qpm": 105.26315789473684}, {"time": 137760, "qpm": 107.14285714285714}, {"time": 142560, "qpm": 105.26315789473684}, {"time": 143040, "qpm": 107.14285714285714}, {"time": 148800, "qpm": 105.26315789473684}, {"time": 149280, "qpm": 109.0909090909091}, {"time": 149760, "qpm": 107.14285714285714}, {"time": 150240, "qpm": 105.26315789473684}, {"time": 150720, "qpm": 107.14285714285714}, {"time": 155520, "qpm": 105.26315789473684}, {"time": 156000, "qpm": 109.0909090909091}, {"time": 156480, "qpm": 105.26315789473684}, {"time": 156960, "qpm": 107.14285714285714}], "key_signatures": [{"time": 0, "root": 0, "mode": "major"}], "time_signatures": [{"time": 0, "numerator": 1, "denominator": 4}, {"time": 480, "numerator": 4, "denominator": 4}], "tracks": [{"program": 0, "is_drum": false, "name": "E.PIANO", "annotations": [{"time": 219, "annotation": {"number": 0, "value": 0}, "group": "control_change"}, {"time": 241, "annotation": {"number": 32, "value": 2}, "group": "control_change"}]}, {"program": 4, "is_drum": false, "name": "E.PIANO", "notes": [{"time": 482, "pitch": 36, "duration": 1893, "velocity": 100}, {"time": 482, "pitch": 48, "duration": 1899, "velocity": 100}, {"time": 482, "pitch": 55, "duration": 1849, "velocity": 100}, {"time": 482, "pitch": 58, "duration": 1876, "velocity": 100}, {"time": 482, "pitch": 62, "duration": 1844, "velocity": 100}, {"time": 482, "pitch": 65, "duration": 1836, "velocity": 100}, {"time": 2404, "pitch": 41, "duration": 1832, "velocity": 100}, {"time": 2404, "pitch": 53, "duration": 1773, "velocity": 104}, {"time": 2404, "pitch": 57, "duration": 1755, "velocity": 110}, {"time": 2404, "pitch": 60, "duration": 1748, "velocity": 106}, {"time": 2404, "pitch": 64, "duration": 1687, "velocity": 100}, {"time": 4317, "pitch": 46, "duration": 1898, "velocity": 100}, {"time": 4317, "pitch": 53, "duration": 1861, "velocity": 102}, {"time": 4317, "pitch": 57, "duration": 1856, "velocity": 108}, {"time": 4317, "pitch": 58, "duration": 1871, "velocity": 100}, {"time": 4317, "pitch": 62, "duration": 1850, "velocity": 100}, {"time": 6239, "pitch": 39, "duration": 1767, "velocity": 100}, {"time": 6239, "pitch": 53, "duration": 1748, "velocity": 100}, {"time": 6239, "pitch": 55, "duration": 1743, "velocity": 112}, {"time": 6239, "pitch": 58, "duration": 1797, "velocity": 100}, {"time": 6239, "pitch": 61, "duration": 1789, "velocity": 100}, {"time": 8161, "pitch": 38, "duration": 1523, "velocity": 106}, {"time": 8161, "pitch": 53, "duration": 1535, "velocity": 112}, {"time": 8161, "pitch": 55, "duration": 1561, "velocity": 116}, {"time": 8161, "pitch": 60, "duration": 1557, "velocity": 116}, {"time": 9840, "pitch": 38, "duration": 149, "velocity": 100}, {"time": 9840, "pitch": 53, "duration": 105, "velocity": 102}, {"time": 9840, "pitch": 55, "duration": 106, "velocity": 110}, {"time": 9840, "pitch": 60, "duration": 126, "velocity": 106}, {"time": 10083, "pitch": 43, "duration": 937, "velocity": 100}, {"time": 10083, "pitch": 55, "duration": 833, "velocity": 112}, {"time": 10083, "pitch": 58, "duration": 862, "velocity": 108}, {"time": 10083, "pitch": 62, "duration": 849, "velocity": 112}, {"time": 10083, "pitch": 65, "duration": 844, "velocity": 110}, {"time": 11044, "pitch": 45, "duration": 869, "velocity": 102}, {"time": 11044, "pitch": 57, "duration": 852, "velocity": 108}, {"time": 11044, "pitch": 60, "duration": 872, "velocity": 112}, {"time": 11044, "pitch": 64, "duration": 911, "velocity": 100}, {"time": 11044, "pitch": 67, "duration": 887, "velocity": 104}, {"time": 11996, "pitch": 46, "duration": 188, "velocity": 118}, {"time": 11996, "pitch": 58, "duration": 186, "velocity": 110}, {"time": 11996, "pitch": 62, "duration": 169, "velocity": 114}, {"time": 11996, "pitch": 65, "duration": 177, "velocity": 110}, {"time": 11996, "pitch": 69, "duration": 166, "velocity": 112}, {"time": 12957, "pitch": 45, "duration": 152, "velocity": 118}, {"time": 12957, "pitch": 57, "duration": 162, "velocity": 116}, {"time": 12957, "pitch": 60, "duration": 158, "velocity": 122}, {"time": 12957, "pitch": 64, "duration": 143, "velocity": 120}, {"time": 12957, "pitch": 67, "duration": 153, "velocity": 126}, {"time": 13680, "pitch": 43, "duration": 1076, "velocity": 122}, {"time": 13680, "pitch": 55, "duration": 1067, "velocity": 114}, {"time": 13680, "pitch": 58, "duration": 1099, "velocity": 112}, {"time": 13680, "pitch": 62, "duration": 1076, "velocity": 112}, {"time": 13680, "pitch": 65, "duration": 1056, "velocity": 112}, {"time": 14879, "pitch": 43, "duration": 235, "velocity": 110}, {"time": 14879, "pitch": 55, "duration": 181, "velocity": 116}, {"time": 14879, "pitch": 58, "duration": 208, "velocity": 112}, {"time": 14879, "pitch": 62, "duration": 187, "velocity": 112}, {"time": 14879, "pitch": 65, "duration": 183, "velocity": 114}, {"time": 15364, "pitch": 45, "duration": 193, "velocity": 110}, {"time": 15364, "pitch": 57, "duration": 167, "velocity": 118}, {"time": 15364, "pitch": 60, "duration": 150, "velocity": 122}, {"time": 15364, "pitch": 64, "duration": 178, "velocity": 114}, {"time": 15364, "pitch": 67, "duration": 176, "velocity": 126}, {"time": 15840, "pitch": 46, "duration": 190, "velocity": 118}, {"time": 15840, "pitch": 58, "duration": 217, "velocity": 110}, {"time": 15840, "pitch": 62, "duration": 188, "velocity": 114}, {"time": 15840, "pitch": 65, "duration": 199, "velocity": 110}, {"time": 15840, "pitch": 69, "duration": 187, "velocity": 116}, {"time": 16801, "pitch": 45, "duration": 205, "velocity": 116}, {"time": 16801, "pitch": 57, "duration": 206, "velocity": 120}, {"time": 16801, "pitch": 60, "duration": 216, "velocity": 124}, {"time": 16801, "pitch": 64, "duration": 204, "velocity": 118}, {"time": 16801, "pitch": 67, "duration": 184, "velocity": 126}, {"time": 17519, "pitch": 43, "duration": 1069, "velocity": 110}, {"time": 17519, "pitch": 55, "duration": 1091, "velocity": 120}, {"time": 17519, "pitch": 58, "duration": 1106, "velocity": 110}, {"time": 17519, "pitch": 62, "duration": 1094, "velocity": 116}, {"time": 17519, "pitch": 65, "duration": 1071, "velocity": 110}, {"time": 18723, "pitch": 43, "duration": 231, "velocity": 110}, {"time": 18723, "pitch": 55, "duration": 190, "velocity": 118}, {"time": 18723, "pitch": 58, "duration": 216, "velocity": 110}, {"time": 18723, "pitch": 62, "duration": 212, "velocity": 110}, {"time": 18723, "pitch": 65, "duration": 221, "velocity": 112}, {"time": 19199, "pitch": 45, "duration": 217, "velocity": 110}, {"time": 19199, "pitch": 57, "duration": 166, "velocity": 116}, {"time": 19199, "pitch": 60, "duration": 162, "velocity": 118}, {"time": 19199, "pitch": 64, "duration": 179, "velocity": 110}, {"time": 19199, "pitch": 67, "duration": 182, "velocity": 116}, {"time": 19684, "pitch": 46, "duration": 189, "velocity": 112}, {"time": 19684, "pitch": 58, "duration": 207, "velocity": 110}, {"time": 19684, "pitch": 62, "duration": 179, "velocity": 122}, {"time": 19684, "pitch": 65, "duration": 189, "velocity": 118}, {"time": 19684, "pitch": 69, "duration": 178, "velocity": 120}, {"time": 20636, "pitch": 45, "duration": 183, "velocity": 112}, {"time": 20636, "pitch": 57, "duration": 210, "velocity": 116}, {"time": 20636, "pitch": 60, "duration": 204, "velocity": 120}, {"time": 20636, "pitch": 64, "duration": 218, "velocity": 110}, {"time": 20636, "pitch": 67, "duration": 196, "velocity": 126}, {"time": 21359, "pitch": 43, "duration": 1011, "velocity": 110}, {"time": 21359, "pitch": 55, "duration": 1051, "velocity": 116}, {"time": 21359, "pitch": 58, "duration": 1055, "velocity": 110}, {"time": 21359, "pitch": 62, "duration": 1039, "velocity": 110}, {"time": 21359, "pitch": 65, "duration": 1029, "velocity": 110}, {"time": 22558, "pitch": 43, "duration": 244, "velocity": 110}, {"time": 22558, "pitch": 55, "duration": 193, "velocity": 118}, {"time": 22558, "pitch": 58, "duration": 218, "velocity": 110}, {"time": 22558, "pitch": 62, "duration": 202, "velocity": 110}, {"time": 22558, "pitch": 65, "duration": 204, "velocity": 110}, {"time": 23043, "pitch": 45, "duration": 203, "velocity": 112}, {"time": 23043, "pitch": 57, "duration": 165, "velocity": 120}, {"time": 23043, "pitch": 60, "duration": 165, "velocity": 124}, {"time": 23043, "pitch": 64, "duration": 174, "velocity": 116}, {"time": 23043, "pitch": 67, "duration": 196, "velocity": 118}, {"time": 23519, "pitch": 46, "duration": 202, "velocity": 118}, {"time": 23519, "pitch": 58, "duration": 233, "velocity": 110}, {"time": 23519, "pitch": 62, "duration": 199, "velocity": 114}, {"time": 23519, "pitch": 65, "duration": 216, "velocity": 112}, {"time": 23519, "pitch": 69, "duration": 199, "velocity": 110}, {"time": 24480, "pitch": 45, "duration": 191, "velocity": 114}, {"time": 24480, "pitch": 57, "duration": 191, "velocity": 118}, {"time": 24480, "pitch": 60, "duration": 201, "velocity": 124}, {"time": 24480, "pitch": 64, "duration": 201, "velocity": 116}, {"time": 24480, "pitch": 67, "duration": 193, "velocity": 126}, {"time": 25199, "pitch": 43, "duration": 1006, "velocity": 110}, {"time": 25199, "pitch": 55, "duration": 1050, "velocity": 124}, {"time": 25199, "pitch": 58, "duration": 1068, "velocity": 110}, {"time": 25199, "pitch": 62, "duration": 1038, "velocity": 116}, {"time": 25199, "pitch": 65, "duration": 1020, "velocity": 110}, {"time": 26402, "pitch": 43, "duration": 283, "velocity": 116}, {"time": 26402, "pitch": 55, "duration": 224, "velocity": 126}, {"time": 26402, "pitch": 58, "duration": 242, "velocity": 114}, {"time": 26402, "pitch": 62, "duration": 230, "velocity": 118}, {"time": 26402, "pitch": 65, "duration": 237, "velocity": 116}, {"time": 26878, "pitch": 45, "duration": 223, "velocity": 116}, {"time": 26878, "pitch": 57, "duration": 206, "velocity": 116}, {"time": 26878, "pitch": 60, "duration": 204, "velocity": 124}, {"time": 26878, "pitch": 64, "duration": 223, "velocity": 116}, {"time": 26878, "pitch": 67, "duration": 208, "velocity": 126}, {"time": 27363, "pitch": 46, "duration": 184, "velocity": 118}, {"time": 27363, "pitch": 58, "duration": 182, "velocity": 110}, {"time": 27363, "pitch": 62, "duration": 166, "velocity": 114}, {"time": 27363, "pitch": 65, "duration": 173, "velocity": 110}, {"time": 27363, "pitch": 69, "duration": 163, "velocity": 112}, {"time": 28324, "pitch": 45, "duration": 149, "velocity": 118}, {"time": 28324, "pitch": 57, "duration": 159, "velocity": 116}, {"time": 28324, "pitch": 60, "duration": 155, "velocity": 122}, {"time": 28324, "pitch": 64, "duration": 140, "velocity": 120}, {"time": 28324, "pitch": 67, "duration": 150, "velocity": 126}, {"time": 29038, "pitch": 43, "duration": 1076, "velocity": 122}, {"time": 29038, "pitch": 55, "duration": 1067, "velocity": 114}, {"time": 29038, "pitch": 58, "duration": 1099, "velocity": 112}, {"time": 29038, "pitch": 62, "duration": 1076, "velocity": 112}, {"time": 29038, "pitch": 65, "duration": 1056, "velocity": 112}, {"time": 30237, "pitch": 43, "duration": 235, "velocity": 110}, {"time": 30237, "pitch": 55, "duration": 181, "velocity": 116}, {"time": 30237, "pitch": 58, "duration": 208, "velocity": 112}, {"time": 30237, "pitch": 62, "duration": 187, "velocity": 112}, {"time": 30237, "pitch": 65, "duration": 183, "velocity": 114}, {"time": 30722, "pitch": 45, "duration": 193, "velocity": 110}, {"time": 30722, "pitch": 57, "duration": 168, "velocity": 118}, {"time": 30722, "pitch": 60, "duration": 150, "velocity": 122}, {"time": 30722, "pitch": 64, "duration": 178, "velocity": 114}, {"time": 30722, "pitch": 67, "duration": 176, "velocity": 126}, {"time": 31198, "pitch": 46, "duration": 194, "velocity": 118}, {"time": 31198, "pitch": 58, "duration": 221, "velocity": 110}, {"time": 31198, "pitch": 62, "duration": 192, "velocity": 114}, {"time": 31198, "pitch": 65, "duration": 203, "velocity": 110}, {"time": 31198, "pitch": 69, "duration": 191, "velocity": 116}, {"time": 32159, "pitch": 45, "duration": 209, "velocity": 116}, {"time": 32159, "pitch": 57, "duration": 210, "velocity": 120}, {"time": 32159, "pitch": 60, "duration": 220, "velocity": 124}, {"time": 32159, "pitch": 64, "duration": 208, "velocity": 118}, {"time": 32159, "pitch": 67, "duration": 188, "velocity": 126}, {"time": 32882, "pitch": 43, "duration": 1064, "velocity": 110}, {"time": 32882, "pitch": 55, "duration": 1086, "velocity": 120}, {"time": 32882, "pitch": 58, "duration": 1101, "velocity": 110}, {"time": 32882, "pitch": 62, "duration": 1089, "velocity": 116}, {"time": 32882, "pitch": 65, "duration": 1066, "velocity": 110}, {"time": 34081, "pitch": 43, "duration": 231, "velocity": 110}, {"time": 34081, "pitch": 55, "duration": 190, "velocity": 118}, {"time": 34081, "pitch": 58, "duration": 216, "velocity": 110}, {"time": 34081, "pitch": 62, "duration": 212, "velocity": 110}, {"time": 34081, "pitch": 65, "duration": 221, "velocity": 112}, {"time": 34557, "pitch": 45, "duration": 217, "velocity": 110}, {"time": 34557, "pitch": 57, "duration": 166, "velocity": 116}, {"time": 34557, "pitch": 60, "duration": 162, "velocity": 118}, {"time": 34557, "pitch": 64, "duration": 179, "velocity": 110}, {"time": 34557, "pitch": 67, "duration": 182, "velocity": 116}, {"time": 35042, "pitch": 46, "duration": 189, "velocity": 112}, {"time": 35042, "pitch": 58, "duration": 207, "velocity": 110}, {"time": 35042, "pitch": 62, "duration": 179, "velocity": 122}, {"time": 35042, "pitch": 65, "duration": 189, "velocity": 118}, {"time": 35042, "pitch": 69, "duration": 178, "velocity": 120}, {"time": 36003, "pitch": 45, "duration": 179, "velocity": 112}, {"time": 36003, "pitch": 57, "duration": 206, "velocity": 116}, {"time": 36003, "pitch": 60, "duration": 200, "velocity": 120}, {"time": 36003, "pitch": 64, "duration": 214, "velocity": 110}, {"time": 36003, "pitch": 67, "duration": 192, "velocity": 126}, {"time": 36721, "pitch": 43, "duration": 1007, "velocity": 110}, {"time": 36721, "pitch": 55, "duration": 1047, "velocity": 116}, {"time": 36721, "pitch": 58, "duration": 1051, "velocity": 110}, {"time": 36721, "pitch": 62, "duration": 1035, "velocity": 110}, {"time": 36721, "pitch": 65, "duration": 1026, "velocity": 110}, {"time": 37916, "pitch": 43, "duration": 245, "velocity": 110}, {"time": 37916, "pitch": 55, "duration": 193, "velocity": 118}, {"time": 37916, "pitch": 58, "duration": 218, "velocity": 110}, {"time": 37916, "pitch": 62, "duration": 202, "velocity": 110}, {"time": 37916, "pitch": 65, "duration": 204, "velocity": 110}, {"time": 38401, "pitch": 45, "duration": 203, "velocity": 112}, {"time": 38401, "pitch": 57, "duration": 165, "velocity": 120}, {"time": 38401, "pitch": 60, "duration": 165, "velocity": 124}, {"time": 38401, "pitch": 64, "duration": 175, "velocity": 116}, {"time": 38401, "pitch": 67, "duration": 196, "velocity": 118}, {"time": 38877, "pitch": 46, "duration": 202, "velocity": 118}, {"time": 38877, "pitch": 58, "duration": 233, "velocity": 110}, {"time": 38877, "pitch": 62, "duration": 199, "velocity": 114}, {"time": 38877, "pitch": 65, "duration": 216, "velocity": 112}, {"time": 38877, "pitch": 69, "duration": 199, "velocity": 110}, {"time": 39838, "pitch": 45, "duration": 195, "velocity": 114}, {"time": 39838, "pitch": 57, "duration": 195, "velocity": 118}, {"time": 39838, "pitch": 60, "duration": 205, "velocity": 124}, {"time": 39838, "pitch": 64, "duration": 205, "velocity": 116}, {"time": 39838, "pitch": 67, "duration": 197, "velocity": 126}, {"time": 40561, "pitch": 43, "duration": 1006, "velocity": 110}, {"time": 40561, "pitch": 55, "duration": 1049, "velocity": 124}, {"time": 40561, "pitch": 58, "duration": 1066, "velocity": 110}, {"time": 40561, "pitch": 62, "duration": 1037, "velocity": 116}, {"time": 40561, "pitch": 65, "duration": 1019, "velocity": 110}, {"time": 41760, "pitch": 43, "duration": 283, "velocity": 116}, {"time": 41760, "pitch": 55, "duration": 224, "velocity": 126}, {"time": 41760, "pitch": 58, "duration": 242, "velocity": 114}, {"time": 41760, "pitch": 62, "duration": 230, "velocity": 118}, {"time": 41760, "pitch": 65, "duration": 237, "velocity": 116}, {"time": 42236, "pitch": 45, "duration": 223, "velocity": 116}, {"time": 42236, "pitch": 57, "duration": 206, "velocity": 116}, {"time": 42236, "pitch": 60, "duration": 204, "velocity": 124}, {"time": 42236, "pitch": 64, "duration": 223, "velocity": 116}, {"time": 42236, "pitch": 67, "duration": 208, "velocity": 126}, {"time": 42721, "pitch": 46, "duration": 184, "velocity": 118}, {"time": 42721, "pitch": 58, "duration": 182, "velocity": 110}, {"time": 42721, "pitch": 62, "duration": 166, "velocity": 114}, {"time": 42721, "pitch": 65, "duration": 174, "velocity": 110}, {"time": 42721, "pitch": 69, "duration": 163, "velocity": 112}, {"time": 43682, "pitch": 45, "duration": 149, "velocity": 118}, {"time": 43682, "pitch": 57, "duration": 159, "velocity": 116}, {"time": 43682, "pitch": 60, "duration": 155, "velocity": 122}, {"time": 43682, "pitch": 64, "duration": 140, "velocity": 120}, {"time": 43682, "pitch": 67, "duration": 150, "velocity": 126}, {"time": 44400, "pitch": 43, "duration": 1079, "velocity": 122}, {"time": 44400, "pitch": 55, "duration": 1069, "velocity": 114}, {"time": 44400, "pitch": 58, "duration": 1102, "velocity": 112}, {"time": 44400, "pitch": 62, "duration": 1079, "velocity": 112}, {"time": 44400, "pitch": 65, "duration": 1058, "velocity": 112}, {"time": 45604, "pitch": 43, "duration": 231, "velocity": 110}, {"time": 45604, "pitch": 55, "duration": 177, "velocity": 116}, {"time": 45604, "pitch": 58, "duration": 204, "velocity": 112}, {"time": 45604, "pitch": 62, "duration": 183, "velocity": 112}, {"time": 45604, "pitch": 65, "duration": 179, "velocity": 114}, {"time": 46080, "pitch": 45, "duration": 193, "velocity": 110}, {"time": 46080, "pitch": 57, "duration": 168, "velocity": 118}, {"time": 46080, "pitch": 60, "duration": 150, "velocity": 122}, {"time": 46080, "pitch": 64, "duration": 179, "velocity": 114}, {"time": 46080, "pitch": 67, "duration": 177, "velocity": 126}, {"time": 46556, "pitch": 46, "duration": 194, "velocity": 118}, {"time": 46556, "pitch": 58, "duration": 221, "velocity": 110}, {"time": 46556, "pitch": 62, "duration": 192, "velocity": 114}, {"time": 46556, "pitch": 65, "duration": 203, "velocity": 110}, {"time": 46556, "pitch": 69, "duration": 191, "velocity": 116}, {"time": 47517, "pitch": 45, "duration": 209, "velocity": 116}, {"time": 47517, "pitch": 57, "duration": 210, "velocity": 120}, {"time": 47517, "pitch": 60, "duration": 220, "velocity": 124}, {"time": 47517, "pitch": 64, "duration": 208, "velocity": 118}, {"time": 47517, "pitch": 67, "duration": 188, "velocity": 126}, {"time": 48240, "pitch": 43, "duration": 1066, "velocity": 110}, {"time": 48240, "pitch": 55, "duration": 1088, "velocity": 120}, {"time": 48240, "pitch": 58, "duration": 1103, "velocity": 110}, {"time": 48240, "pitch": 62, "duration": 1091, "velocity": 116}, {"time": 48240, "pitch": 65, "duration": 1068, "velocity": 110}, {"time": 49439, "pitch": 43, "duration": 235, "velocity": 110}, {"time": 49439, "pitch": 55, "duration": 194, "velocity": 118}, {"time": 49439, "pitch": 58, "duration": 220, "velocity": 110}, {"time": 49439, "pitch": 62, "duration": 216, "velocity": 110}, {"time": 49439, "pitch": 65, "duration": 225, "velocity": 112}, {"time": 49924, "pitch": 45, "duration": 213, "velocity": 110}, {"time": 49924, "pitch": 57, "duration": 162, "velocity": 116}, {"time": 49924, "pitch": 60, "duration": 158, "velocity": 118}, {"time": 49924, "pitch": 64, "duration": 175, "velocity": 110}, {"time": 49924, "pitch": 67, "duration": 178, "velocity": 116}, {"time": 50400, "pitch": 46, "duration": 189, "velocity": 112}, {"time": 50400, "pitch": 58, "duration": 207, "velocity": 110}, {"time": 50400, "pitch": 62, "duration": 180, "velocity": 122}, {"time": 50400, "pitch": 65, "duration": 189, "velocity": 118}, {"time": 50400, "pitch": 69, "duration": 179, "velocity": 120}, {"time": 51361, "pitch": 45, "duration": 179, "velocity": 112}, {"time": 51361, "pitch": 57, "duration": 206, "velocity": 116}, {"time": 51361, "pitch": 60, "duration": 200, "velocity": 120}, {"time": 51361, "pitch": 64, "duration": 214, "velocity": 110}, {"time": 51361, "pitch": 67, "duration": 192, "velocity": 126}, {"time": 52079, "pitch": 43, "duration": 1012, "velocity": 110}, {"time": 52079, "pitch": 55, "duration": 1053, "velocity": 116}, {"time": 52079, "pitch": 58, "duration": 1057, "velocity": 110}, {"time": 52079, "pitch": 62, "duration": 1041, "velocity": 110}, {"time": 52079, "pitch": 65, "duration": 1031, "velocity": 110}, {"time": 53283, "pitch": 43, "duration": 240, "velocity": 110}, {"time": 53283, "pitch": 55, "duration": 189, "velocity": 118}, {"time": 53283, "pitch": 58, "duration": 214, "velocity": 110}, {"time": 53283, "pitch": 62, "duration": 198, "velocity": 110}, {"time": 53283, "pitch": 65, "duration": 200, "velocity": 110}, {"time": 53759, "pitch": 45, "duration": 207, "velocity": 112}, {"time": 53759, "pitch": 57, "duration": 168, "velocity": 120}, {"time": 53759, "pitch": 60, "duration": 168, "velocity": 124}, {"time": 53759, "pitch": 64, "duration": 178, "velocity": 116}, {"time": 53759, "pitch": 67, "duration": 200, "velocity": 118}, {"time": 54244, "pitch": 46, "duration": 198, "velocity": 118}, {"time": 54244, "pitch": 58, "duration": 229, "velocity": 110}, {"time": 54244, "pitch": 62, "duration": 195, "velocity": 114}, {"time": 54244, "pitch": 65, "duration": 212, "velocity": 112}, {"time": 54244, "pitch": 69, "duration": 195, "velocity": 110}, {"time": 55196, "pitch": 45, "duration": 195, "velocity": 114}, {"time": 55196, "pitch": 57, "duration": 195, "velocity": 118}, {"time": 55196, "pitch": 60, "duration": 205, "velocity": 124}, {"time": 55196, "pitch": 64, "duration": 205, "velocity": 116}, {"time": 55196, "pitch": 67, "duration": 197, "velocity": 126}, {"time": 55919, "pitch": 43, "duration": 1006, "velocity": 110}, {"time": 55919, "pitch": 55, "duration": 1049, "velocity": 124}, {"time": 55919, "pitch": 58, "duration": 1066, "velocity": 110}, {"time": 55919, "pitch": 62, "duration": 1037, "velocity": 116}, {"time": 55919, "pitch": 65, "duration": 1019, "velocity": 110}, {"time": 57118, "pitch": 43, "duration": 288, "velocity": 116}, {"time": 57118, "pitch": 55, "duration": 228, "velocity": 126}, {"time": 57118, "pitch": 58, "duration": 246, "velocity": 114}, {"time": 57118, "pitch": 62, "duration": 234, "velocity": 118}, {"time": 57118, "pitch": 65, "duration": 241, "velocity": 116}, {"time": 57603, "pitch": 45, "duration": 219, "velocity": 116}, {"time": 57603, "pitch": 57, "duration": 202, "velocity": 116}, {"time": 57603, "pitch": 60, "duration": 200, "velocity": 124}, {"time": 57603, "pitch": 64, "duration": 219, "velocity": 116}, {"time": 57603, "pitch": 67, "duration": 204, "velocity": 126}, {"time": 58079, "pitch": 46, "duration": 188, "velocity": 118}, {"time": 58079, "pitch": 58, "duration": 186, "velocity": 110}, {"time": 58079, "pitch": 62, "duration": 169, "velocity": 114}, {"time": 58079, "pitch": 65, "duration": 177, "velocity": 110}, {"time": 58079, "pitch": 69, "duration": 166, "velocity": 112}, {"time": 59040, "pitch": 45, "duration": 149, "velocity": 118}, {"time": 59040, "pitch": 57, "duration": 159, "velocity": 116}, {"time": 59040, "pitch": 60, "duration": 155, "velocity": 122}, {"time": 59040, "pitch": 64, "duration": 140, "velocity": 120}, {"time": 59040, "pitch": 67, "duration": 150, "velocity": 126}, {"time": 59758, "pitch": 43, "duration": 1079, "velocity": 122}, {"time": 59758, "pitch": 55, "duration": 1070, "velocity": 114}, {"time": 59758, "pitch": 58, "duration": 1102, "velocity": 112}, {"time": 59758, "pitch": 62, "duration": 1079, "velocity": 112}, {"time": 59758, "pitch": 65, "duration": 1058, "velocity": 112}, {"time": 60962, "pitch": 43, "duration": 231, "velocity": 110}, {"time": 60962, "pitch": 55, "duration": 177, "velocity": 116}, {"time": 60962, "pitch": 58, "duration": 204, "velocity": 112}, {"time": 60962, "pitch": 62, "duration": 183, "velocity": 112}, {"time": 60962, "pitch": 65, "duration": 179, "velocity": 114}, {"time": 61438, "pitch": 45, "duration": 197, "velocity": 110}, {"time": 61438, "pitch": 57, "duration": 171, "velocity": 118}, {"time": 61438, "pitch": 60, "duration": 153, "velocity": 122}, {"time": 61438, "pitch": 64, "duration": 182, "velocity": 114}, {"time": 61438, "pitch": 67, "duration": 180, "velocity": 126}, {"time": 61923, "pitch": 46, "duration": 190, "velocity": 118}, {"time": 61923, "pitch": 58, "duration": 217, "velocity": 110}, {"time": 61923, "pitch": 62, "duration": 188, "velocity": 114}, {"time": 61923, "pitch": 65, "duration": 199, "velocity": 110}, {"time": 61923, "pitch": 69, "duration": 187, "velocity": 116}, {"time": 62884, "pitch": 45, "duration": 205, "velocity": 116}, {"time": 62884, "pitch": 57, "duration": 206, "velocity": 120}, {"time": 62884, "pitch": 60, "duration": 216, "velocity": 124}, {"time": 62884, "pitch": 64, "duration": 204, "velocity": 118}, {"time": 62884, "pitch": 67, "duration": 184, "velocity": 126}, {"time": 63598, "pitch": 43, "duration": 1066, "velocity": 110}, {"time": 63598, "pitch": 55, "duration": 1088, "velocity": 120}, {"time": 63598, "pitch": 58, "duration": 1103, "velocity": 110}, {"time": 63598, "pitch": 62, "duration": 1091, "velocity": 116}, {"time": 63598, "pitch": 65, "duration": 1068, "velocity": 110}, {"time": 64797, "pitch": 43, "duration": 235, "velocity": 110}, {"time": 64797, "pitch": 55, "duration": 194, "velocity": 118}, {"time": 64797, "pitch": 58, "duration": 220, "velocity": 110}, {"time": 64797, "pitch": 62, "duration": 216, "velocity": 110}, {"time": 64797, "pitch": 65, "duration": 225, "velocity": 112}, {"time": 65282, "pitch": 45, "duration": 213, "velocity": 110}, {"time": 65282, "pitch": 57, "duration": 163, "velocity": 116}, {"time": 65282, "pitch": 60, "duration": 159, "velocity": 118}, {"time": 65282, "pitch": 64, "duration": 175, "velocity": 110}, {"time": 65282, "pitch": 67, "duration": 178, "velocity": 116}, {"time": 65758, "pitch": 46, "duration": 193, "velocity": 112}, {"time": 65758, "pitch": 58, "duration": 211, "velocity": 110}, {"time": 65758, "pitch": 62, "duration": 183, "velocity": 122}, {"time": 65758, "pitch": 65, "duration": 193, "velocity": 118}, {"time": 65758, "pitch": 69, "duration": 182, "velocity": 120}, {"time": 66719, "pitch": 45, "duration": 183, "velocity": 112}, {"time": 66719, "pitch": 57, "duration": 210, "velocity": 116}, {"time": 66719, "pitch": 60, "duration": 204, "velocity": 120}, {"time": 66719, "pitch": 64, "duration": 218, "velocity": 110}, {"time": 66719, "pitch": 67, "duration": 196, "velocity": 126}, {"time": 67442, "pitch": 43, "duration": 1007, "velocity": 110}, {"time": 67442, "pitch": 55, "duration": 1048, "velocity": 116}, {"time": 67442, "pitch": 58, "duration": 1052, "velocity": 110}, {"time": 67442, "pitch": 62, "duration": 1036, "velocity": 110}, {"time": 67442, "pitch": 65, "duration": 1026, "velocity": 110}, {"time": 68641, "pitch": 43, "duration": 240, "velocity": 110}, {"time": 68641, "pitch": 55, "duration": 189, "velocity": 118}, {"time": 68641, "pitch": 58, "duration": 214, "velocity": 110}, {"time": 68641, "pitch": 62, "duration": 198, "velocity": 110}, {"time": 68641, "pitch": 65, "duration": 200, "velocity": 110}, {"time": 69117, "pitch": 45, "duration": 207, "velocity": 112}, {"time": 69117, "pitch": 57, "duration": 168, "velocity": 120}, {"time": 69117, "pitch": 60, "duration": 168, "velocity": 124}, {"time": 69117, "pitch": 64, "duration": 178, "velocity": 116}, {"time": 69117, "pitch": 67, "duration": 200, "velocity": 118}, {"time": 69602, "pitch": 46, "duration": 198, "velocity": 118}, {"time": 69602, "pitch": 58, "duration": 229, "velocity": 110}, {"time": 69602, "pitch": 62, "duration": 195, "velocity": 114}, {"time": 69602, "pitch": 65, "duration": 212, "velocity": 112}, {"time": 69602, "pitch": 69, "duration": 195, "velocity": 110}, {"time": 70563, "pitch": 45, "duration": 191, "velocity": 114}, {"time": 70563, "pitch": 57, "duration": 191, "velocity": 118}, {"time": 70563, "pitch": 60, "duration": 201, "velocity": 124}, {"time": 70563, "pitch": 64, "duration": 201, "velocity": 116}, {"time": 70563, "pitch": 67, "duration": 193, "velocity": 126}, {"time": 71281, "pitch": 43, "duration": 1002, "velocity": 110}, {"time": 71281, "pitch": 55, "duration": 1045, "velocity": 124}, {"time": 71281, "pitch": 58, "duration": 1062, "velocity": 110}, {"time": 71281, "pitch": 62, "duration": 1033, "velocity": 116}, {"time": 71281, "pitch": 65, "duration": 1016, "velocity": 110}, {"time": 72476, "pitch": 43, "duration": 288, "velocity": 116}, {"time": 72476, "pitch": 55, "duration": 228, "velocity": 126}, {"time": 72476, "pitch": 58, "duration": 247, "velocity": 114}, {"time": 72476, "pitch": 62, "duration": 234, "velocity": 118}, {"time": 72476, "pitch": 65, "duration": 241, "velocity": 116}, {"time": 72961, "pitch": 45, "duration": 219, "velocity": 116}, {"time": 72961, "pitch": 57, "duration": 202, "velocity": 116}, {"time": 72961, "pitch": 60, "duration": 200, "velocity": 124}, {"time": 72961, "pitch": 64, "duration": 219, "velocity": 116}, {"time": 72961, "pitch": 67, "duration": 204, "velocity": 126}, {"time": 73437, "pitch": 46, "duration": 188, "velocity": 118}, {"time": 73437, "pitch": 58, "duration": 186, "velocity": 110}, {"time": 73437, "pitch": 62, "duration": 169, "velocity": 114}, {"time": 73437, "pitch": 65, "duration": 177, "velocity": 110}, {"time": 73437, "pitch": 69, "duration": 166, "velocity": 112}, {"time": 74398, "pitch": 45, "duration": 151, "velocity": 118}, {"time": 74398, "pitch": 57, "duration": 162, "velocity": 116}, {"time": 74398, "pitch": 60, "duration": 158, "velocity": 122}, {"time": 74398, "pitch": 64, "duration": 142, "velocity": 120}, {"time": 74398, "pitch": 67, "duration": 153, "velocity": 126}, {"time": 75121, "pitch": 43, "duration": 1076, "velocity": 122}, {"time": 75121, "pitch": 55, "duration": 1067, "velocity": 114}, {"time": 75121, "pitch": 58, "duration": 1099, "velocity": 112}, {"time": 75121, "pitch": 62, "duration": 1076, "velocity": 112}, {"time": 75121, "pitch": 65, "duration": 1056, "velocity": 112}, {"time": 76320, "pitch": 43, "duration": 231, "velocity": 110}, {"time": 76320, "pitch": 55, "duration": 178, "velocity": 116}, {"time": 76320, "pitch": 58, "duration": 204, "velocity": 112}, {"time": 76320, "pitch": 62, "duration": 183, "velocity": 112}, {"time": 76320, "pitch": 65, "duration": 179, "velocity": 114}, {"time": 76796, "pitch": 45, "duration": 197, "velocity": 110}, {"time": 76796, "pitch": 57, "duration": 171, "velocity": 118}, {"time": 76796, "pitch": 60, "duration": 153, "velocity": 122}, {"time": 76796, "pitch": 64, "duration": 182, "velocity": 114}, {"time": 76796, "pitch": 67, "duration": 180, "velocity": 126}, {"time": 77281, "pitch": 46, "duration": 190, "velocity": 118}, {"time": 77281, "pitch": 58, "duration": 217, "velocity": 110}, {"time": 77281, "pitch": 62, "duration": 188, "velocity": 114}, {"time": 77281, "pitch": 65, "duration": 199, "velocity": 110}, {"time": 77281, "pitch": 69, "duration": 187, "velocity": 116}, {"time": 78242, "pitch": 45, "duration": 205, "velocity": 116}, {"time": 78242, "pitch": 57, "duration": 206, "velocity": 120}, {"time": 78242, "pitch": 60, "duration": 216, "velocity": 124}, {"time": 78242, "pitch": 64, "duration": 204, "velocity": 118}, {"time": 78242, "pitch": 67, "duration": 184, "velocity": 126}, {"time": 78960, "pitch": 43, "duration": 1068, "velocity": 110}, {"time": 78960, "pitch": 55, "duration": 1091, "velocity": 120}, {"time": 78960, "pitch": 58, "duration": 1106, "velocity": 110}, {"time": 78960, "pitch": 62, "duration": 1094, "velocity": 116}, {"time": 78960, "pitch": 65, "duration": 1070, "velocity": 110}, {"time": 80164, "pitch": 43, "duration": 231, "velocity": 110}, {"time": 80164, "pitch": 55, "duration": 190, "velocity": 118}, {"time": 80164, "pitch": 58, "duration": 216, "velocity": 110}, {"time": 80164, "pitch": 62, "duration": 212, "velocity": 110}, {"time": 80164, "pitch": 65, "duration": 221, "velocity": 112}, {"time": 80640, "pitch": 45, "duration": 213, "velocity": 110}, {"time": 80640, "pitch": 57, "duration": 163, "velocity": 116}, {"time": 80640, "pitch": 60, "duration": 159, "velocity": 118}, {"time": 80640, "pitch": 64, "duration": 176, "velocity": 110}, {"time": 80640, "pitch": 67, "duration": 178, "velocity": 116}, {"time": 81116, "pitch": 46, "duration": 193, "velocity": 112}, {"time": 81116, "pitch": 58, "duration": 211, "velocity": 110}, {"time": 81116, "pitch": 62, "duration": 183, "velocity": 122}, {"time": 81116, "pitch": 65, "duration": 193, "velocity": 118}, {"time": 81116, "pitch": 69, "duration": 182, "velocity": 120}, {"time": 82077, "pitch": 45, "duration": 183, "velocity": 112}, {"time": 82077, "pitch": 57, "duration": 210, "velocity": 116}, {"time": 82077, "pitch": 60, "duration": 204, "velocity": 120}, {"time": 82077, "pitch": 64, "duration": 218, "velocity": 110}, {"time": 82077, "pitch": 67, "duration": 196, "velocity": 126}, {"time": 82800, "pitch": 43, "duration": 1010, "velocity": 110}, {"time": 82800, "pitch": 55, "duration": 1051, "velocity": 116}, {"time": 82800, "pitch": 58, "duration": 1055, "velocity": 110}, {"time": 82800, "pitch": 62, "duration": 1039, "velocity": 110}, {"time": 82800, "pitch": 65, "duration": 1029, "velocity": 110}, {"time": 83999, "pitch": 43, "duration": 244, "velocity": 110}, {"time": 83999, "pitch": 55, "duration": 193, "velocity": 118}, {"time": 83999, "pitch": 58, "duration": 218, "velocity": 110}, {"time": 83999, "pitch": 62, "duration": 202, "velocity": 110}, {"time": 83999, "pitch": 65, "duration": 204, "velocity": 110}, {"time": 84484, "pitch": 45, "duration": 203, "velocity": 112}, {"time": 84484, "pitch": 57, "duration": 164, "velocity": 120}, {"time": 84484, "pitch": 60, "duration": 164, "velocity": 124}, {"time": 84484, "pitch": 64, "duration": 174, "velocity": 116}, {"time": 84484, "pitch": 67, "duration": 196, "velocity": 118}, {"time": 84960, "pitch": 46, "duration": 198, "velocity": 118}, {"time": 84960, "pitch": 58, "duration": 229, "velocity": 110}, {"time": 84960, "pitch": 62, "duration": 195, "velocity": 114}, {"time": 84960, "pitch": 65, "duration": 212, "velocity": 112}, {"time": 84960, "pitch": 69, "duration": 195, "velocity": 110}, {"time": 85921, "pitch": 45, "duration": 191, "velocity": 114}, {"time": 85921, "pitch": 57, "duration": 191, "velocity": 118}, {"time": 85921, "pitch": 60, "duration": 201, "velocity": 124}, {"time": 85921, "pitch": 64, "duration": 201, "velocity": 116}, {"time": 85921, "pitch": 67, "duration": 193, "velocity": 126}, {"time": 86639, "pitch": 43, "duration": 1007, "velocity": 110}, {"time": 86639, "pitch": 55, "duration": 1051, "velocity": 124}, {"time": 86639, "pitch": 58, "duration": 1068, "velocity": 110}, {"time": 86639, "pitch": 62, "duration": 1039, "velocity": 116}, {"time": 86639, "pitch": 65, "duration": 1021, "velocity": 110}, {"time": 87843, "pitch": 43, "duration": 283, "velocity": 116}, {"time": 87843, "pitch": 55, "duration": 224, "velocity": 126}, {"time": 87843, "pitch": 58, "duration": 242, "velocity": 114}, {"time": 87843, "pitch": 62, "duration": 230, "velocity": 118}, {"time": 87843, "pitch": 65, "duration": 237, "velocity": 116}, {"time": 88319, "pitch": 45, "duration": 223, "velocity": 116}, {"time": 88319, "pitch": 57, "duration": 206, "velocity": 116}, {"time": 88319, "pitch": 60, "duration": 204, "velocity": 124}, {"time": 88319, "pitch": 64, "duration": 223, "velocity": 116}, {"time": 88319, "pitch": 67, "duration": 208, "velocity": 126}, {"time": 88804, "pitch": 46, "duration": 184, "velocity": 118}, {"time": 88804, "pitch": 58, "duration": 182, "velocity": 110}, {"time": 88804, "pitch": 62, "duration": 165, "velocity": 114}, {"time": 88804, "pitch": 65, "duration": 173, "velocity": 110}, {"time": 88804, "pitch": 69, "duration": 162, "velocity": 112}, {"time": 89756, "pitch": 45, "duration": 152, "velocity": 118}, {"time": 89756, "pitch": 57, "duration": 162, "velocity": 116}, {"time": 89756, "pitch": 60, "duration": 158, "velocity": 122}, {"time": 89756, "pitch": 64, "duration": 142, "velocity": 120}, {"time": 89756, "pitch": 67, "duration": 153, "velocity": 126}, {"time": 90479, "pitch": 43, "duration": 1076, "velocity": 122}, {"time": 90479, "pitch": 55, "duration": 1067, "velocity": 114}, {"time": 90479, "pitch": 58, "duration": 1099, "velocity": 112}, {"time": 90479, "pitch": 62, "duration": 1076, "velocity": 112}, {"time": 90479, "pitch": 65, "duration": 1056, "velocity": 112}, {"time": 91678, "pitch": 43, "duration": 235, "velocity": 110}, {"time": 91678, "pitch": 55, "duration": 181, "velocity": 116}, {"time": 91678, "pitch": 58, "duration": 208, "velocity": 112}, {"time": 91678, "pitch": 62, "duration": 187, "velocity": 112}, {"time": 91678, "pitch": 65, "duration": 183, "velocity": 114}, {"time": 92163, "pitch": 45, "duration": 193, "velocity": 110}, {"time": 92163, "pitch": 57, "duration": 167, "velocity": 118}, {"time": 92163, "pitch": 60, "duration": 150, "velocity": 122}, {"time": 92163, "pitch": 64, "duration": 178, "velocity": 114}, {"time": 92163, "pitch": 67, "duration": 176, "velocity": 126}, {"time": 92639, "pitch": 46, "duration": 194, "velocity": 118}, {"time": 92639, "pitch": 58, "duration": 221, "velocity": 110}, {"time": 92639, "pitch": 62, "duration": 192, "velocity": 114}, {"time": 92639, "pitch": 65, "duration": 203, "velocity": 110}, {"time": 92639, "pitch": 69, "duration": 191, "velocity": 116}, {"time": 93600, "pitch": 45, "duration": 205, "velocity": 116}, {"time": 93600, "pitch": 57, "duration": 206, "velocity": 120}, {"time": 93600, "pitch": 60, "duration": 216, "velocity": 124}, {"time": 93600, "pitch": 64, "duration": 204, "velocity": 118}, {"time": 93600, "pitch": 67, "duration": 184, "velocity": 126}, {"time": 94318, "pitch": 43, "duration": 1068, "velocity": 110}, {"time": 94318, "pitch": 55, "duration": 1091, "velocity": 120}, {"time": 94318, "pitch": 58, "duration": 1106, "velocity": 110}, {"time": 94318, "pitch": 62, "duration": 1094, "velocity": 116}, {"time": 94318, "pitch": 65, "duration": 1071, "velocity": 110}, {"time": 95522, "pitch": 43, "duration": 231, "velocity": 110}, {"time": 95522, "pitch": 55, "duration": 190, "velocity": 118}, {"time": 95522, "pitch": 58, "duration": 216, "velocity": 110}, {"time": 95522, "pitch": 62, "duration": 212, "velocity": 110}, {"time": 95522, "pitch": 65, "duration": 221, "velocity": 112}, {"time": 95998, "pitch": 45, "duration": 217, "velocity": 110}, {"time": 95998, "pitch": 57, "duration": 166, "velocity": 116}, {"time": 95998, "pitch": 60, "duration": 162, "velocity": 118}, {"time": 95998, "pitch": 64, "duration": 179, "velocity": 110}, {"time": 95998, "pitch": 67, "duration": 182, "velocity": 116}, {"time": 96483, "pitch": 46, "duration": 189, "velocity": 112}, {"time": 96483, "pitch": 58, "duration": 207, "velocity": 110}, {"time": 96483, "pitch": 62, "duration": 179, "velocity": 122}, {"time": 96483, "pitch": 65, "duration": 189, "velocity": 118}, {"time": 96483, "pitch": 69, "duration": 178, "velocity": 120}, {"time": 97444, "pitch": 45, "duration": 179, "velocity": 112}, {"time": 97444, "pitch": 57, "duration": 206, "velocity": 116}, {"time": 97444, "pitch": 60, "duration": 200, "velocity": 120}, {"time": 97444, "pitch": 64, "duration": 214, "velocity": 110}, {"time": 97444, "pitch": 67, "duration": 192, "velocity": 126}, {"time": 98158, "pitch": 43, "duration": 1011, "velocity": 110}, {"time": 98158, "pitch": 55, "duration": 1051, "velocity": 116}, {"time": 98158, "pitch": 58, "duration": 1055, "velocity": 110}, {"time": 98158, "pitch": 62, "duration": 1039, "velocity": 110}, {"time": 98158, "pitch": 65, "duration": 1029, "velocity": 110}, {"time": 99357, "pitch": 43, "duration": 244, "velocity": 110}, {"time": 99357, "pitch": 55, "duration": 193, "velocity": 118}, {"time": 99357, "pitch": 58, "duration": 218, "velocity": 110}, {"time": 99357, "pitch": 62, "duration": 202, "velocity": 110}, {"time": 99357, "pitch": 65, "duration": 204, "velocity": 110}, {"time": 99842, "pitch": 45, "duration": 203, "velocity": 112}, {"time": 99842, "pitch": 57, "duration": 164, "velocity": 120}, {"time": 99842, "pitch": 60, "duration": 164, "velocity": 124}, {"time": 99842, "pitch": 64, "duration": 174, "velocity": 116}, {"time": 99842, "pitch": 67, "duration": 196, "velocity": 118}, {"time": 100318, "pitch": 46, "duration": 202, "velocity": 118}, {"time": 100318, "pitch": 58, "duration": 233, "velocity": 110}, {"time": 100318, "pitch": 62, "duration": 199, "velocity": 114}, {"time": 100318, "pitch": 65, "duration": 216, "velocity": 112}, {"time": 100318, "pitch": 69, "duration": 199, "velocity": 110}, {"time": 101279, "pitch": 45, "duration": 195, "velocity": 114}, {"time": 101279, "pitch": 57, "duration": 195, "velocity": 118}, {"time": 101279, "pitch": 60, "duration": 205, "velocity": 124}, {"time": 101279, "pitch": 64, "duration": 205, "velocity": 116}, {"time": 101279, "pitch": 67, "duration": 197, "velocity": 126}, {"time": 102002, "pitch": 43, "duration": 1002, "velocity": 110}, {"time": 102002, "pitch": 55, "duration": 1046, "velocity": 124}, {"time": 102002, "pitch": 58, "duration": 1064, "velocity": 110}, {"time": 102002, "pitch": 62, "duration": 1034, "velocity": 116}, {"time": 102002, "pitch": 65, "duration": 1016, "velocity": 110}, {"time": 103201, "pitch": 43, "duration": 283, "velocity": 116}, {"time": 103201, "pitch": 55, "duration": 224, "velocity": 126}, {"time": 103201, "pitch": 58, "duration": 242, "velocity": 114}, {"time": 103201, "pitch": 62, "duration": 230, "velocity": 118}, {"time": 103201, "pitch": 65, "duration": 237, "velocity": 116}, {"time": 103677, "pitch": 45, "duration": 223, "velocity": 116}, {"time": 103677, "pitch": 57, "duration": 206, "velocity": 116}, {"time": 103677, "pitch": 60, "duration": 204, "velocity": 124}, {"time": 103677, "pitch": 64, "duration": 223, "velocity": 116}, {"time": 103677, "pitch": 67, "duration": 208, "velocity": 126}, {"time": 104162, "pitch": 43, "duration": 1850, "velocity": 108}, {"time": 104162, "pitch": 55, "duration": 1825, "velocity": 110}, {"time": 104162, "pitch": 58, "duration": 1852, "velocity": 104}, {"time": 104162, "pitch": 62, "duration": 1806, "velocity": 116}, {"time": 104162, "pitch": 65, "duration": 1811, "velocity": 112}, {"time": 104162, "pitch": 69, "duration": 1805, "velocity": 108}, {"time": 106084, "pitch": 41, "duration": 1781, "velocity": 100}, {"time": 106084, "pitch": 53, "duration": 1721, "velocity": 100}, {"time": 106084, "pitch": 57, "duration": 1753, "velocity": 108}, {"time": 106084, "pitch": 60, "duration": 1755, "velocity": 112}, {"time": 106084, "pitch": 64, "duration": 1737, "velocity": 104}, {"time": 106084, "pitch": 67, "duration": 1749, "velocity": 112}, {"time": 107997, "pitch": 39, "duration": 1876, "velocity": 100}, {"time": 107997, "pitch": 51, "duration": 1841, "velocity": 100}, {"time": 107997, "pitch": 55, "duration": 1796, "velocity": 110}, {"time": 107997, "pitch": 58, "duration": 1855, "velocity": 106}, {"time": 107997, "pitch": 62, "duration": 1820, "velocity": 106}, {"time": 107997, "pitch": 65, "duration": 1812, "velocity": 104}, {"time": 109919, "pitch": 38, "duration": 1709, "velocity": 100}, {"time": 109919, "pitch": 50, "duration": 1717, "velocity": 100}, {"time": 109919, "pitch": 57, "duration": 1695, "velocity": 104}, {"time": 109919, "pitch": 60, "duration": 1700, "velocity": 108}, {"time": 109919, "pitch": 64, "duration": 1715, "velocity": 100}, {"time": 109919, "pitch": 67, "duration": 1735, "velocity": 116}, {"time": 111841, "pitch": 43, "duration": 1843, "velocity": 100}, {"time": 111841, "pitch": 55, "duration": 1747, "velocity": 106}, {"time": 111841, "pitch": 58, "duration": 1747, "velocity": 104}, {"time": 111841, "pitch": 62, "duration": 1725, "velocity": 102}, {"time": 111841, "pitch": 65, "duration": 1736, "velocity": 102}, {"time": 111841, "pitch": 69, "duration": 1735, "velocity": 104}, {"time": 113763, "pitch": 41, "duration": 1615, "velocity": 100}, {"time": 113763, "pitch": 53, "duration": 1544, "velocity": 100}, {"time": 113763, "pitch": 57, "duration": 1595, "velocity": 100}, {"time": 113763, "pitch": 60, "duration": 1595, "velocity": 102}, {"time": 113763, "pitch": 64, "duration": 1591, "velocity": 100}, {"time": 113763, "pitch": 67, "duration": 1575, "velocity": 110}, {"time": 115676, "pitch": 39, "duration": 2055, "velocity": 100}, {"time": 115676, "pitch": 51, "duration": 2043, "velocity": 100}, {"time": 115676, "pitch": 55, "duration": 2040, "velocity": 108}, {"time": 115676, "pitch": 58, "duration": 2066, "velocity": 100}, {"time": 115676, "pitch": 62, "duration": 2051, "velocity": 102}, {"time": 115676, "pitch": 65, "duration": 2043, "velocity": 100}, {"time": 117840, "pitch": 39, "duration": 79, "velocity": 100}, {"time": 117840, "pitch": 51, "duration": 98, "velocity": 100}, {"time": 117840, "pitch": 55, "duration": 75, "velocity": 100}, {"time": 117840, "pitch": 58, "duration": 80, "velocity": 100}, {"time": 117840, "pitch": 62, "duration": 76, "velocity": 100}, {"time": 117840, "pitch": 65, "duration": 75, "velocity": 100}, {"time": 118083, "pitch": 39, "duration": 112, "velocity": 100}, {"time": 118083, "pitch": 51, "duration": 97, "velocity": 100}, {"time": 118083, "pitch": 55, "duration": 90, "velocity": 100}, {"time": 118083, "pitch": 58, "duration": 96, "velocity": 100}, {"time": 118083, "pitch": 62, "duration": 84, "velocity": 100}, {"time": 118083, "pitch": 65, "duration": 92, "velocity": 100}, {"time": 118321, "pitch": 39, "duration": 107, "velocity": 100}, {"time": 118321, "pitch": 51, "duration": 87, "velocity": 100}, {"time": 118321, "pitch": 55, "duration": 91, "velocity": 100}, {"time": 118321, "pitch": 58, "duration": 101, "velocity": 100}, {"time": 118321, "pitch": 62, "duration": 88, "velocity": 100}, {"time": 118321, "pitch": 65, "duration": 93, "velocity": 100}, {"time": 118559, "pitch": 39, "duration": 104, "velocity": 100}, {"time": 118559, "pitch": 51, "duration": 87, "velocity": 100}, {"time": 118559, "pitch": 55, "duration": 96, "velocity": 106}, {"time": 118559, "pitch": 58, "duration": 104, "velocity": 100}, {"time": 118559, "pitch": 62, "duration": 92, "velocity": 100}, {"time": 118559, "pitch": 65, "duration": 101, "velocity": 100}, {"time": 118801, "pitch": 39, "duration": 97, "velocity": 100}, {"time": 118801, "pitch": 51, "duration": 82, "velocity": 100}, {"time": 118801, "pitch": 55, "duration": 93, "velocity": 102}, {"time": 118801, "pitch": 58, "duration": 100, "velocity": 100}, {"time": 118801, "pitch": 62, "duration": 94, "velocity": 100}, {"time": 118801, "pitch": 65, "duration": 103, "velocity": 100}, {"time": 119044, "pitch": 39, "duration": 105, "velocity": 100}, {"time": 119044, "pitch": 51, "duration": 93, "velocity": 100}, {"time": 119044, "pitch": 55, "duration": 96, "velocity": 102}, {"time": 119044, "pitch": 58, "duration": 103, "velocity": 100}, {"time": 119044, "pitch": 62, "duration": 97, "velocity": 100}, {"time": 119044, "pitch": 65, "duration": 106, "velocity": 100}, {"time": 119282, "pitch": 39, "duration": 98, "velocity": 100}, {"time": 119282, "pitch": 51, "duration": 83, "velocity": 100}, {"time": 119282, "pitch": 55, "duration": 95, "velocity": 106}, {"time": 119282, "pitch": 58, "duration": 99, "velocity": 100}, {"time": 119282, "pitch": 62, "duration": 93, "velocity": 100}, {"time": 119282, "pitch": 65, "duration": 104, "velocity": 100}, {"time": 119520, "pitch": 46, "duration": 184, "velocity": 118}, {"time": 119520, "pitch": 58, "duration": 182, "velocity": 110}, {"time": 119520, "pitch": 62, "duration": 166, "velocity": 114}, {"time": 119520, "pitch": 65, "duration": 173, "velocity": 110}, {"time": 119520, "pitch": 69, "duration": 163, "velocity": 112}, {"time": 120481, "pitch": 45, "duration": 149, "velocity": 118}, {"time": 120481, "pitch": 57, "duration": 159, "velocity": 116}, {"time": 120481, "pitch": 60, "duration": 155, "velocity": 122}, {"time": 120481, "pitch": 64, "duration": 140, "velocity": 120}, {"time": 120481, "pitch": 67, "duration": 150, "velocity": 126}, {"time": 121199, "pitch": 43, "duration": 1079, "velocity": 122}, {"time": 121199, "pitch": 55, "duration": 1069, "velocity": 114}, {"time": 121199, "pitch": 58, "duration": 1102, "velocity": 112}, {"time": 121199, "pitch": 62, "duration": 1079, "velocity": 112}, {"time": 121199, "pitch": 65, "duration": 1058, "velocity": 112}, {"time": 122403, "pitch": 43, "duration": 231, "velocity": 110}, {"time": 122403, "pitch": 55, "duration": 177, "velocity": 116}, {"time": 122403, "pitch": 58, "duration": 204, "velocity": 112}, {"time": 122403, "pitch": 62, "duration": 183, "velocity": 112}, {"time": 122403, "pitch": 65, "duration": 179, "velocity": 114}, {"time": 122879, "pitch": 45, "duration": 197, "velocity": 110}, {"time": 122879, "pitch": 57, "duration": 171, "velocity": 118}, {"time": 122879, "pitch": 60, "duration": 152, "velocity": 122}, {"time": 122879, "pitch": 64, "duration": 182, "velocity": 114}, {"time": 122879, "pitch": 67, "duration": 180, "velocity": 126}, {"time": 123364, "pitch": 46, "duration": 190, "velocity": 118}, {"time": 123364, "pitch": 58, "duration": 217, "velocity": 110}, {"time": 123364, "pitch": 62, "duration": 188, "velocity": 114}, {"time": 123364, "pitch": 65, "duration": 199, "velocity": 110}, {"time": 123364, "pitch": 69, "duration": 187, "velocity": 116}, {"time": 124316, "pitch": 45, "duration": 209, "velocity": 116}, {"time": 124316, "pitch": 57, "duration": 210, "velocity": 120}, {"time": 124316, "pitch": 60, "duration": 220, "velocity": 124}, {"time": 124316, "pitch": 64, "duration": 208, "velocity": 118}, {"time": 124316, "pitch": 67, "duration": 188, "velocity": 126}, {"time": 125039, "pitch": 43, "duration": 1066, "velocity": 110}, {"time": 125039, "pitch": 55, "duration": 1088, "velocity": 120}, {"time": 125039, "pitch": 58, "duration": 1103, "velocity": 110}, {"time": 125039, "pitch": 62, "duration": 1091, "velocity": 116}, {"time": 125039, "pitch": 65, "duration": 1068, "velocity": 110}, {"time": 126238, "pitch": 43, "duration": 235, "velocity": 110}, {"time": 126238, "pitch": 55, "duration": 194, "velocity": 118}, {"time": 126238, "pitch": 58, "duration": 220, "velocity": 110}, {"time": 126238, "pitch": 62, "duration": 216, "velocity": 110}, {"time": 126238, "pitch": 65, "duration": 225, "velocity": 112}, {"time": 126723, "pitch": 45, "duration": 213, "velocity": 110}, {"time": 126723, "pitch": 57, "duration": 162, "velocity": 116}, {"time": 126723, "pitch": 60, "duration": 158, "velocity": 118}, {"time": 126723, "pitch": 64, "duration": 175, "velocity": 110}, {"time": 126723, "pitch": 67, "duration": 178, "velocity": 116}, {"time": 127199, "pitch": 46, "duration": 193, "velocity": 112}, {"time": 127199, "pitch": 58, "duration": 211, "velocity": 110}, {"time": 127199, "pitch": 62, "duration": 183, "velocity": 122}, {"time": 127199, "pitch": 65, "duration": 193, "velocity": 118}, {"time": 127199, "pitch": 69, "duration": 182, "velocity": 120}, {"time": 128160, "pitch": 45, "duration": 179, "velocity": 112}, {"time": 128160, "pitch": 57, "duration": 206, "velocity": 116}, {"time": 128160, "pitch": 60, "duration": 200, "velocity": 120}, {"time": 128160, "pitch": 64, "duration": 214, "velocity": 110}, {"time": 128160, "pitch": 67, "duration": 192, "velocity": 126}, {"time": 128878, "pitch": 43, "duration": 1012, "velocity": 110}, {"time": 128878, "pitch": 55, "duration": 1053, "velocity": 116}, {"time": 128878, "pitch": 58, "duration": 1057, "velocity": 110}, {"time": 128878, "pitch": 62, "duration": 1041, "velocity": 110}, {"time": 128878, "pitch": 65, "duration": 1031, "velocity": 110}, {"time": 130082, "pitch": 43, "duration": 240, "velocity": 110}, {"time": 130082, "pitch": 55, "duration": 189, "velocity": 118}, {"time": 130082, "pitch": 58, "duration": 214, "velocity": 110}, {"time": 130082, "pitch": 62, "duration": 198, "velocity": 110}, {"time": 130082, "pitch": 65, "duration": 200, "velocity": 110}, {"time": 130558, "pitch": 45, "duration": 207, "velocity": 112}, {"time": 130558, "pitch": 57, "duration": 168, "velocity": 120}, {"time": 130558, "pitch": 60, "duration": 168, "velocity": 124}, {"time": 130558, "pitch": 64, "duration": 178, "velocity": 116}, {"time": 130558, "pitch": 67, "duration": 200, "velocity": 118}, {"time": 131043, "pitch": 46, "duration": 198, "velocity": 118}, {"time": 131043, "pitch": 58, "duration": 229, "velocity": 110}, {"time": 131043, "pitch": 62, "duration": 195, "velocity": 114}, {"time": 131043, "pitch": 65, "duration": 212, "velocity": 112}, {"time": 131043, "pitch": 69, "duration": 195, "velocity": 110}, {"time": 132004, "pitch": 45, "duration": 191, "velocity": 114}, {"time": 132004, "pitch": 57, "duration": 191, "velocity": 118}, {"time": 132004, "pitch": 60, "duration": 201, "velocity": 124}, {"time": 132004, "pitch": 64, "duration": 201, "velocity": 116}, {"time": 132004, "pitch": 67, "duration": 193, "velocity": 126}, {"time": 132718, "pitch": 43, "duration": 1006, "velocity": 110}, {"time": 132718, "pitch": 55, "duration": 1049, "velocity": 124}, {"time": 132718, "pitch": 58, "duration": 1066, "velocity": 110}, {"time": 132718, "pitch": 62, "duration": 1037, "velocity": 116}, {"time": 132718, "pitch": 65, "duration": 1019, "velocity": 110}, {"time": 133917, "pitch": 43, "duration": 288, "velocity": 116}, {"time": 133917, "pitch": 55, "duration": 228, "velocity": 126}, {"time": 133917, "pitch": 58, "duration": 246, "velocity": 114}, {"time": 133917, "pitch": 62, "duration": 234, "velocity": 118}, {"time": 133917, "pitch": 65, "duration": 241, "velocity": 116}, {"time": 134402, "pitch": 45, "duration": 219, "velocity": 116}, {"time": 134402, "pitch": 57, "duration": 202, "velocity": 116}, {"time": 134402, "pitch": 60, "duration": 200, "velocity": 124}, {"time": 134402, "pitch": 64, "duration": 219, "velocity": 116}, {"time": 134402, "pitch": 67, "duration": 204, "velocity": 126}, {"time": 134878, "pitch": 46, "duration": 188, "velocity": 118}, {"time": 134878, "pitch": 58, "duration": 186, "velocity": 110}, {"time": 134878, "pitch": 62, "duration": 169, "velocity": 114}, {"time": 134878, "pitch": 65, "duration": 177, "velocity": 110}, {"time": 134878, "pitch": 69, "duration": 166, "velocity": 112}, {"time": 135839, "pitch": 45, "duration": 151, "velocity": 118}, {"time": 135839, "pitch": 57, "duration": 162, "velocity": 116}, {"time": 135839, "pitch": 60, "duration": 157, "velocity": 122}, {"time": 135839, "pitch": 64, "duration": 142, "velocity": 120}, {"time": 135839, "pitch": 67, "duration": 152, "velocity": 126}, {"time": 136562, "pitch": 43, "duration": 1074, "velocity": 122}, {"time": 136562, "pitch": 55, "duration": 1064, "velocity": 114}, {"time": 136562, "pitch": 58, "duration": 1097, "velocity": 112}, {"time": 136562, "pitch": 62, "duration": 1074, "velocity": 112}, {"time": 136562, "pitch": 65, "duration": 1053, "velocity": 112}, {"time": 137761, "pitch": 43, "duration": 231, "velocity": 110}, {"time": 137761, "pitch": 55, "duration": 177, "velocity": 116}, {"time": 137761, "pitch": 58, "duration": 204, "velocity": 112}, {"time": 137761, "pitch": 62, "duration": 183, "velocity": 112}, {"time": 137761, "pitch": 65, "duration": 179, "velocity": 114}, {"time": 138237, "pitch": 45, "duration": 197, "velocity": 110}, {"time": 138237, "pitch": 57, "duration": 171, "velocity": 118}, {"time": 138237, "pitch": 60, "duration": 152, "velocity": 122}, {"time": 138237, "pitch": 64, "duration": 182, "velocity": 114}, {"time": 138237, "pitch": 67, "duration": 180, "velocity": 126}, {"time": 138722, "pitch": 46, "duration": 190, "velocity": 118}, {"time": 138722, "pitch": 58, "duration": 217, "velocity": 110}, {"time": 138722, "pitch": 62, "duration": 188, "velocity": 114}, {"time": 138722, "pitch": 65, "duration": 199, "velocity": 110}, {"time": 138722, "pitch": 69, "duration": 187, "velocity": 116}, {"time": 139683, "pitch": 45, "duration": 205, "velocity": 116}, {"time": 139683, "pitch": 57, "duration": 206, "velocity": 120}, {"time": 139683, "pitch": 60, "duration": 216, "velocity": 124}, {"time": 139683, "pitch": 64, "duration": 204, "velocity": 118}, {"time": 139683, "pitch": 67, "duration": 184, "velocity": 126}, {"time": 140401, "pitch": 43, "duration": 1062, "velocity": 110}, {"time": 140401, "pitch": 55, "duration": 1084, "velocity": 120}, {"time": 140401, "pitch": 58, "duration": 1099, "velocity": 110}, {"time": 140401, "pitch": 62, "duration": 1087, "velocity": 116}, {"time": 140401, "pitch": 65, "duration": 1064, "velocity": 110}, {"time": 141596, "pitch": 43, "duration": 235, "velocity": 110}, {"time": 141596, "pitch": 55, "duration": 194, "velocity": 118}, {"time": 141596, "pitch": 58, "duration": 220, "velocity": 110}, {"time": 141596, "pitch": 62, "duration": 216, "velocity": 110}, {"time": 141596, "pitch": 65, "duration": 225, "velocity": 112}, {"time": 142081, "pitch": 45, "duration": 213, "velocity": 110}, {"time": 142081, "pitch": 57, "duration": 163, "velocity": 116}, {"time": 142081, "pitch": 60, "duration": 159, "velocity": 118}, {"time": 142081, "pitch": 64, "duration": 175, "velocity": 110}, {"time": 142081, "pitch": 67, "duration": 178, "velocity": 116}, {"time": 142557, "pitch": 46, "duration": 193, "velocity": 112}, {"time": 142557, "pitch": 58, "duration": 211, "velocity": 110}, {"time": 142557, "pitch": 62, "duration": 183, "velocity": 122}, {"time": 142557, "pitch": 65, "duration": 193, "velocity": 118}, {"time": 142557, "pitch": 69, "duration": 182, "velocity": 120}, {"time": 143518, "pitch": 45, "duration": 183, "velocity": 112}, {"time": 143518, "pitch": 57, "duration": 210, "velocity": 116}, {"time": 143518, "pitch": 60, "duration": 204, "velocity": 120}, {"time": 143518, "pitch": 64, "duration": 218, "velocity": 110}, {"time": 143518, "pitch": 67, "duration": 196, "velocity": 126}, {"time": 144241, "pitch": 43, "duration": 1010, "velocity": 110}, {"time": 144241, "pitch": 55, "duration": 1051, "velocity": 116}, {"time": 144241, "pitch": 58, "duration": 1055, "velocity": 110}, {"time": 144241, "pitch": 62, "duration": 1039, "velocity": 110}, {"time": 144241, "pitch": 65, "duration": 1029, "velocity": 110}, {"time": 145440, "pitch": 43, "duration": 240, "velocity": 110}, {"time": 145440, "pitch": 55, "duration": 189, "velocity": 118}, {"time": 145440, "pitch": 58, "duration": 214, "velocity": 110}, {"time": 145440, "pitch": 62, "duration": 198, "velocity": 110}, {"time": 145440, "pitch": 65, "duration": 200, "velocity": 110}, {"time": 145916, "pitch": 45, "duration": 207, "velocity": 112}, {"time": 145916, "pitch": 57, "duration": 168, "velocity": 120}, {"time": 145916, "pitch": 60, "duration": 168, "velocity": 124}, {"time": 145916, "pitch": 64, "duration": 178, "velocity": 116}, {"time": 145916, "pitch": 67, "duration": 200, "velocity": 118}, {"time": 146401, "pitch": 46, "duration": 198, "velocity": 118}, {"time": 146401, "pitch": 58, "duration": 229, "velocity": 110}, {"time": 146401, "pitch": 62, "duration": 195, "velocity": 114}, {"time": 146401, "pitch": 65, "duration": 212, "velocity": 112}, {"time": 146401, "pitch": 69, "duration": 195, "velocity": 110}, {"time": 147362, "pitch": 45, "duration": 191, "velocity": 114}, {"time": 147362, "pitch": 57, "duration": 191, "velocity": 118}, {"time": 147362, "pitch": 60, "duration": 201, "velocity": 124}, {"time": 147362, "pitch": 64, "duration": 201, "velocity": 116}, {"time": 147362, "pitch": 67, "duration": 193, "velocity": 126}, {"time": 148080, "pitch": 43, "duration": 1007, "velocity": 110}, {"time": 148080, "pitch": 55, "duration": 1051, "velocity": 124}, {"time": 148080, "pitch": 58, "duration": 1068, "velocity": 110}, {"time": 148080, "pitch": 62, "duration": 1039, "velocity": 116}, {"time": 148080, "pitch": 65, "duration": 1021, "velocity": 110}, {"time": 149284, "pitch": 43, "duration": 282, "velocity": 116}, {"time": 149284, "pitch": 55, "duration": 224, "velocity": 126}, {"time": 149284, "pitch": 58, "duration": 242, "velocity": 114}, {"time": 149284, "pitch": 62, "duration": 230, "velocity": 118}, {"time": 149284, "pitch": 65, "duration": 237, "velocity": 116}, {"time": 149760, "pitch": 45, "duration": 219, "velocity": 116}, {"time": 149760, "pitch": 57, "duration": 202, "velocity": 116}, {"time": 149760, "pitch": 60, "duration": 200, "velocity": 124}, {"time": 149760, "pitch": 64, "duration": 219, "velocity": 116}, {"time": 149760, "pitch": 67, "duration": 204, "velocity": 126}, {"time": 150236, "pitch": 46, "duration": 188, "velocity": 118}, {"time": 150236, "pitch": 58, "duration": 186, "velocity": 110}, {"time": 150236, "pitch": 62, "duration": 169, "velocity": 114}, {"time": 150236, "pitch": 65, "duration": 177, "velocity": 110}, {"time": 150236, "pitch": 69, "duration": 166, "velocity": 112}, {"time": 151197, "pitch": 45, "duration": 151, "velocity": 118}, {"time": 151197, "pitch": 57, "duration": 162, "velocity": 116}, {"time": 151197, "pitch": 60, "duration": 158, "velocity": 122}, {"time": 151197, "pitch": 64, "duration": 142, "velocity": 120}, {"time": 151197, "pitch": 67, "duration": 152, "velocity": 126}, {"time": 151920, "pitch": 43, "duration": 1076, "velocity": 122}, {"time": 151920, "pitch": 55, "duration": 1067, "velocity": 114}, {"time": 151920, "pitch": 58, "duration": 1099, "velocity": 112}, {"time": 151920, "pitch": 62, "duration": 1076, "velocity": 112}, {"time": 151920, "pitch": 65, "duration": 1056, "velocity": 112}, {"time": 153119, "pitch": 43, "duration": 235, "velocity": 110}, {"time": 153119, "pitch": 55, "duration": 181, "velocity": 116}, {"time": 153119, "pitch": 58, "duration": 208, "velocity": 112}, {"time": 153119, "pitch": 62, "duration": 187, "velocity": 112}, {"time": 153119, "pitch": 65, "duration": 183, "velocity": 114}, {"time": 153604, "pitch": 45, "duration": 193, "velocity": 110}, {"time": 153604, "pitch": 57, "duration": 167, "velocity": 118}, {"time": 153604, "pitch": 60, "duration": 149, "velocity": 122}, {"time": 153604, "pitch": 64, "duration": 178, "velocity": 114}, {"time": 153604, "pitch": 67, "duration": 176, "velocity": 126}, {"time": 154080, "pitch": 46, "duration": 190, "velocity": 118}, {"time": 154080, "pitch": 58, "duration": 217, "velocity": 110}, {"time": 154080, "pitch": 62, "duration": 188, "velocity": 114}, {"time": 154080, "pitch": 65, "duration": 199, "velocity": 110}, {"time": 154080, "pitch": 69, "duration": 187, "velocity": 116}, {"time": 155041, "pitch": 45, "duration": 205, "velocity": 116}, {"time": 155041, "pitch": 57, "duration": 206, "velocity": 120}, {"time": 155041, "pitch": 60, "duration": 216, "velocity": 124}, {"time": 155041, "pitch": 64, "duration": 204, "velocity": 118}, {"time": 155041, "pitch": 67, "duration": 184, "velocity": 126}, {"time": 155759, "pitch": 43, "duration": 1068, "velocity": 110}, {"time": 155759, "pitch": 55, "duration": 1091, "velocity": 120}, {"time": 155759, "pitch": 58, "duration": 1106, "velocity": 110}, {"time": 155759, "pitch": 62, "duration": 1094, "velocity": 116}, {"time": 155759, "pitch": 65, "duration": 1070, "velocity": 110}, {"time": 156963, "pitch": 43, "duration": 231, "velocity": 110}, {"time": 156963, "pitch": 55, "duration": 190, "velocity": 118}, {"time": 156963, "pitch": 58, "duration": 216, "velocity": 110}, {"time": 156963, "pitch": 62, "duration": 212, "velocity": 110}, {"time": 156963, "pitch": 65, "duration": 221, "velocity": 112}, {"time": 157439, "pitch": 45, "duration": 217, "velocity": 110}, {"time": 157439, "pitch": 57, "duration": 166, "velocity": 116}, {"time": 157439, "pitch": 60, "duration": 161, "velocity": 118}, {"time": 157439, "pitch": 64, "duration": 179, "velocity": 110}, {"time": 157439, "pitch": 67, "duration": 182, "velocity": 116}, {"time": 157924, "pitch": 46, "duration": 189, "velocity": 112}, {"time": 157924, "pitch": 58, "duration": 207, "velocity": 110}, {"time": 157924, "pitch": 62, "duration": 179, "velocity": 122}, {"time": 157924, "pitch": 65, "duration": 189, "velocity": 118}, {"time": 157924, "pitch": 69, "duration": 178, "velocity": 120}, {"time": 158876, "pitch": 45, "duration": 183, "velocity": 112}, {"time": 158876, "pitch": 57, "duration": 210, "velocity": 116}, {"time": 158876, "pitch": 60, "duration": 204, "velocity": 120}, {"time": 158876, "pitch": 64, "duration": 218, "velocity": 110}, {"time": 158876, "pitch": 67, "duration": 196, "velocity": 126}, {"time": 159599, "pitch": 43, "duration": 1010, "velocity": 110}, {"time": 159599, "pitch": 55, "duration": 1051, "velocity": 116}, {"time": 159599, "pitch": 58, "duration": 1055, "velocity": 110}, {"time": 159599, "pitch": 62, "duration": 1039, "velocity": 110}, {"time": 159599, "pitch": 65, "duration": 1029, "velocity": 110}, {"time": 160798, "pitch": 43, "duration": 240, "velocity": 110}, {"time": 160798, "pitch": 55, "duration": 189, "velocity": 118}, {"time": 160798, "pitch": 58, "duration": 214, "velocity": 110}, {"time": 160798, "pitch": 62, "duration": 198, "velocity": 110}, {"time": 160798, "pitch": 65, "duration": 200, "velocity": 110}, {"time": 161274, "pitch": 45, "duration": 203, "velocity": 112}, {"time": 161274, "pitch": 57, "duration": 165, "velocity": 120}, {"time": 161274, "pitch": 60, "duration": 165, "velocity": 124}, {"time": 161274, "pitch": 64, "duration": 175, "velocity": 116}, {"time": 161274, "pitch": 67, "duration": 197, "velocity": 118}, {"time": 161750, "pitch": 46, "duration": 199, "velocity": 118}, {"time": 161750, "pitch": 58, "duration": 229, "velocity": 110}, {"time": 161750, "pitch": 62, "duration": 196, "velocity": 114}, {"time": 161750, "pitch": 65, "duration": 213, "velocity": 112}, {"time": 161750, "pitch": 69, "duration": 196, "velocity": 110}, {"time": 162703, "pitch": 45, "duration": 191, "velocity": 114}, {"time": 162703, "pitch": 57, "duration": 191, "velocity": 118}, {"time": 162703, "pitch": 60, "duration": 201, "velocity": 124}, {"time": 162703, "pitch": 64, "duration": 201, "velocity": 116}, {"time": 162703, "pitch": 67, "duration": 193, "velocity": 126}, {"time": 163417, "pitch": 43, "duration": 997, "velocity": 110}, {"time": 163417, "pitch": 55, "duration": 1041, "velocity": 124}, {"time": 163417, "pitch": 58, "duration": 1058, "velocity": 110}, {"time": 163417, "pitch": 62, "duration": 1029, "velocity": 116}, {"time": 163417, "pitch": 65, "duration": 1011, "velocity": 110}, {"time": 164607, "pitch": 43, "duration": 283, "velocity": 116}, {"time": 164607, "pitch": 55, "duration": 225, "velocity": 126}, {"time": 164607, "pitch": 58, "duration": 243, "velocity": 114}, {"time": 164607, "pitch": 62, "duration": 231, "velocity": 118}, {"time": 164607, "pitch": 65, "duration": 238, "velocity": 116}, {"time": 165084, "pitch": 45, "duration": 219, "velocity": 116}, {"time": 165084, "pitch": 57, "duration": 202, "velocity": 116}, {"time": 165084, "pitch": 60, "duration": 200, "velocity": 124}, {"time": 165084, "pitch": 64, "duration": 219, "velocity": 116}, {"time": 165084, "pitch": 67, "duration": 204, "velocity": 126}], "annotations": [{"time": 284, "annotation": {"number": 7, "value": 100}, "group": "control_change"}, {"time": 306, "annotation": {"number": 11, "value": 110}, "group": "control_change"}, {"time": 328, "annotation": {"number": 10, "value": 64}, "group": "control_change"}, {"time": 350, "annotation": {"number": 91, "value": 10}, "group": "control_change"}, {"time": 372, "annotation": {"number": 93, "value": 30}, "group": "control_change"}, {"time": 394, "annotation": {"number": 101, "value": 0}, "group": "control_change"}, {"time": 415, "annotation": {"number": 100, "value": 0}, "group": "control_change"}, {"time": 437, "annotation": {"number": 6, "value": 12}, "group": "control_change"}, {"time": 459, "annotation": {"number": 101, "value": 127}, "group": "control_change"}, {"time": 482, "annotation": {"number": 100, "value": 127}, "group": "control_change"}, {"time": 152159, "annotation": {"number": 11, "value": 110}, "group": "control_change"}, {"time": 152280, "annotation": {"number": 11, "value": 109}, "group": "control_change"}, {"time": 152401, "annotation": {"number": 11, "value": 108}, "group": "control_change"}, {"time": 152523, "annotation": {"number": 11, "value": 107}, "group": "control_change"}, {"time": 152644, "annotation": {"number": 11, "value": 106}, "group": "control_change"}, {"time": 152763, "annotation": {"number": 11, "value": 105}, "group": "control_change"}, {"time": 152882, "annotation": {"number": 11, "value": 104}, "group": "control_change"}, {"time": 153001, "annotation": {"number": 11, "value": 103}, "group": "control_change"}, {"time": 153120, "annotation": {"number": 11, "value": 102}, "group": "control_change"}, {"time": 153241, "annotation": {"number": 11, "value": 101}, "group": "control_change"}, {"time": 153362, "annotation": {"number": 11, "value": 100}, "group": "control_change"}, {"time": 153484, "annotation": {"number": 11, "value": 99}, "group": "control_change"}, {"time": 153605, "annotation": {"number": 11, "value": 98}, "group": "control_change"}, {"time": 153724, "annotation": {"number": 11, "value": 97}, "group": "control_change"}, {"time": 153843, "annotation": {"number": 11, "value": 96}, "group": "control_change"}, {"time": 153962, "annotation": {"number": 11, "value": 95}, "group": "control_change"}, {"time": 154081, "annotation": {"number": 11, "value": 94}, "group": "control_change"}, {"time": 154200, "annotation": {"number": 11, "value": 93}, "group": "control_change"}, {"time": 154319, "annotation": {"number": 11, "value": 92}, "group": "control_change"}, {"time": 154438, "annotation": {"number": 11, "value": 91}, "group": "control_change"}, {"time": 154557, "annotation": {"number": 11, "value": 90}, "group": "control_change"}, {"time": 154678, "annotation": {"number": 11, "value": 89}, "group": "control_change"}, {"time": 154799, "annotation": {"number": 11, "value": 88}, "group": "control_change"}, {"time": 154921, "annotation": {"number": 11, "value": 87}, "group": "control_change"}, {"time": 155042, "annotation": {"number": 11, "value": 86}, "group": "control_change"}, {"time": 155161, "annotation": {"number": 11, "value": 85}, "group": "control_change"}, {"time": 155280, "annotation": {"number": 11, "value": 84}, "group": "control_change"}, {"time": 155399, "annotation": {"number": 11, "value": 83}, "group": "control_change"}, {"time": 155518, "annotation": {"number": 11, "value": 82}, "group": "control_change"}, {"time": 155639, "annotation": {"number": 11, "value": 81}, "group": "control_change"}, {"time": 155760, "annotation": {"number": 11, "value": 80}, "group": "control_change"}, {"time": 155882, "annotation": {"number": 11, "value": 79}, "group": "control_change"}, {"time": 156003, "annotation": {"number": 11, "value": 78}, "group": "control_change"}, {"time": 156122, "annotation": {"number": 11, "value": 77}, "group": "control_change"}, {"time": 156241, "annotation": {"number": 11, "value": 76}, "group": "control_change"}, {"time": 156360, "annotation": {"number": 11, "value": 75}, "group": "control_change"}, {"time": 156479, "annotation": {"number": 11, "value": 74}, "group": "control_change"}, {"time": 156600, "annotation": {"number": 11, "value": 73}, "group": "control_change"}, {"time": 156721, "annotation": {"number": 11, "value": 72}, "group": "control_change"}, {"time": 156843, "annotation": {"number": 11, "value": 71}, "group": "control_change"}, {"time": 156964, "annotation": {"number": 11, "value": 70}, "group": "control_change"}, {"time": 157083, "annotation": {"number": 11, "value": 69}, "group": "control_change"}, {"time": 157202, "annotation": {"number": 11, "value": 68}, "group": "control_change"}, {"time": 157321, "annotation": {"number": 11, "value": 67}, "group": "control_change"}, {"time": 157440, "annotation": {"number": 11, "value": 66}, "group": "control_change"}, {"time": 157561, "annotation": {"number": 11, "value": 65}, "group": "control_change"}, {"time": 157682, "annotation": {"number": 11, "value": 64}, "group": "control_change"}, {"time": 157804, "annotation": {"number": 11, "value": 63}, "group": "control_change"}, {"time": 157925, "annotation": {"number": 11, "value": 62}, "group": "control_change"}, {"time": 158044, "annotation": {"number": 11, "value": 61}, "group": "control_change"}, {"time": 158163, "annotation": {"number": 11, "value": 60}, "group": "control_change"}, {"time": 158282, "annotation": {"number": 11, "value": 59}, "group": "control_change"}, {"time": 158401, "annotation": {"number": 11, "value": 58}, "group": "control_change"}, {"time": 158520, "annotation": {"number": 11, "value": 57}, "group": "control_change"}, {"time": 158639, "annotation": {"number": 11, "value": 56}, "group": "control_change"}, {"time": 158758, "annotation": {"number": 11, "value": 55}, "group": "control_change"}, {"time": 159000, "annotation": {"number": 11, "value": 54}, "group": "control_change"}, {"time": 159121, "annotation": {"number": 11, "value": 53}, "group": "control_change"}, {"time": 159243, "annotation": {"number": 11, "value": 52}, "group": "control_change"}, {"time": 159364, "annotation": {"number": 11, "value": 51}, "group": "control_change"}, {"time": 159483, "annotation": {"number": 11, "value": 50}, "group": "control_change"}, {"time": 159602, "annotation": {"number": 11, "value": 49}, "group": "control_change"}, {"time": 159721, "annotation": {"number": 11, "value": 48}, "group": "control_change"}, {"time": 159840, "annotation": {"number": 11, "value": 47}, "group": "control_change"}, {"time": 159961, "annotation": {"number": 11, "value": 46}, "group": "control_change"}, {"time": 160082, "annotation": {"number": 11, "value": 45}, "group": "control_change"}, {"time": 160204, "annotation": {"number": 11, "value": 44}, "group": "control_change"}, {"time": 160325, "annotation": {"number": 11, "value": 43}, "group": "control_change"}, {"time": 160444, "annotation": {"number": 11, "value": 42}, "group": "control_change"}, {"time": 160563, "annotation": {"number": 11, "value": 41}, "group": "control_change"}, {"time": 160682, "annotation": {"number": 11, "value": 40}, "group": "control_change"}, {"time": 160801, "annotation": {"number": 11, "value": 39}, "group": "control_change"}, {"time": 160920, "annotation": {"number": 11, "value": 38}, "group": "control_change"}, {"time": 161039, "annotation": {"number": 11, "value": 37}, "group": "control_change"}, {"time": 161158, "annotation": {"number": 11, "value": 36}, "group": "control_change"}, {"time": 161277, "annotation": {"number": 11, "value": 35}, "group": "control_change"}, {"time": 161396, "annotation": {"number": 11, "value": 34}, "group": "control_change"}, {"time": 161515, "annotation": {"number": 11, "value": 33}, "group": "control_change"}, {"time": 161634, "annotation": {"number": 11, "value": 32}, "group": "control_change"}, {"time": 161753, "annotation": {"number": 11, "value": 31}, "group": "control_change"}, {"time": 161872, "annotation": {"number": 11, "value": 30}, "group": "control_change"}, {"time": 161991, "annotation": {"number": 11, "value": 29}, "group": "control_change"}, {"time": 162110, "annotation": {"number": 11, "value": 28}, "group": "control_change"}, {"time": 162229, "annotation": {"number": 11, "value": 27}, "group": "control_change"}, {"time": 162349, "annotation": {"number": 11, "value": 26}, "group": "control_change"}, {"time": 162468, "annotation": {"number": 11, "value": 25}, "group": "control_change"}, {"time": 162587, "annotation": {"number": 11, "value": 24}, "group": "control_change"}, {"time": 162706, "annotation": {"number": 11, "value": 23}, "group": "control_change"}, {"time": 162825, "annotation": {"number": 11, "value": 22}, "group": "control_change"}, {"time": 162944, "annotation": {"number": 11, "value": 21}, "group": "control_change"}, {"time": 163063, "annotation": {"number": 11, "value": 20}, "group": "control_change"}, {"time": 163182, "annotation": {"number": 11, "value": 19}, "group": "control_change"}, {"time": 163301, "annotation": {"number": 11, "value": 18}, "group": "control_change"}, {"time": 163420, "annotation": {"number": 11, "value": 17}, "group": "control_change"}, {"time": 163539, "annotation": {"number": 11, "value": 16}, "group": "control_change"}, {"time": 163658, "annotation": {"number": 11, "value": 15}, "group": "control_change"}, {"time": 163777, "annotation": {"number": 11, "value": 14}, "group": "control_change"}, {"time": 163896, "annotation": {"number": 11, "value": 13}, "group": "control_change"}, {"time": 164015, "annotation": {"number": 11, "value": 12}, "group": "control_change"}, {"time": 164134, "annotation": {"number": 11, "value": 11}, "group": "control_change"}, {"time": 164253, "annotation": {"number": 11, "value": 10}, "group": "control_change"}, {"time": 164372, "annotation": {"number": 11, "value": 9}, "group": "control_change"}, {"time": 164491, "annotation": {"number": 11, "value": 8}, "group": "control_change"}, {"time": 164610, "annotation": {"number": 11, "value": 7}, "group": "control_change"}, {"time": 164729, "annotation": {"number": 11, "value": 6}, "group": "control_change"}, {"time": 164849, "annotation": {"number": 11, "value": 5}, "group": "control_change"}, {"time": 164968, "annotation": {"number": 11, "value": 4}, "group": "control_change"}, {"time": 165087, "annotation": {"number": 11, "value": 3}, "group": "control_change"}, {"time": 165206, "annotation": {"number": 11, "value": 2}, "group": "control_change"}, {"time": 165325, "annotation": {"number": 11, "value": 1}, "group": "control_change"}, {"time": 165444, "annotation": {"number": 11, "value": 0}, "group": "control_change"}]}, {"program": 0, "is_drum": false, "name": "BASS", "annotations": [{"time": 219, "annotation": {"number": 0, "value": 1}, "group": "control_change"}, {"time": 241, "annotation": {"number": 32, "value": 0}, "group": "control_change"}]}, {"program": 38, "is_drum": false, "name": "BASS", "notes": [{"time": 58079, "pitch": 34, "duration": 961, "velocity": 120}, {"time": 59040, "pitch": 33, "duration": 238, "velocity": 120}, {"time": 59278, "pitch": 29, "duration": 238, "velocity": 120}, {"time": 59516, "pitch": 31, "duration": 242, "velocity": 120}, {"time": 59758, "pitch": 24, "duration": 1442, "velocity": 120}, {"time": 61200, "pitch": 24, "duration": 238, "velocity": 120}, {"time": 61438, "pitch": 29, "duration": 242, "velocity": 120}, {"time": 61680, "pitch": 31, "duration": 243, "velocity": 120}, {"time": 61923, "pitch": 34, "duration": 961, "velocity": 120}, {"time": 62884, "pitch": 33, "duration": 238, "velocity": 120}, {"time": 63122, "pitch": 29, "duration": 238, "velocity": 120}, {"time": 63360, "pitch": 31, "duration": 238, "velocity": 120}, {"time": 63598, "pitch": 36, "duration": 2160, "velocity": 120}, {"time": 65758, "pitch": 34, "duration": 961, "velocity": 120}, {"time": 66719, "pitch": 33, "duration": 242, "velocity": 120}, {"time": 66961, "pitch": 29, "duration": 243, "velocity": 120}, {"time": 67204, "pitch": 31, "duration": 238, "velocity": 120}, {"time": 67442, "pitch": 24, "duration": 1437, "velocity": 120}, {"time": 68879, "pitch": 24, "duration": 238, "velocity": 120}, {"time": 69117, "pitch": 29, "duration": 242, "velocity": 120}, {"time": 69359, "pitch": 31, "duration": 243, "velocity": 120}, {"time": 69602, "pitch": 34, "duration": 961, "velocity": 120}, {"time": 70563, "pitch": 33, "duration": 238, "velocity": 120}, {"time": 70801, "pitch": 29, "duration": 238, "velocity": 120}, {"time": 71039, "pitch": 31, "duration": 242, "velocity": 120}, {"time": 71281, "pitch": 36, "duration": 2156, "velocity": 120}, {"time": 88804, "pitch": 34, "duration": 952, "velocity": 120}, {"time": 89756, "pitch": 33, "duration": 242, "velocity": 120}, {"time": 89998, "pitch": 29, "duration": 243, "velocity": 120}, {"time": 90241, "pitch": 31, "duration": 238, "velocity": 120}, {"time": 90479, "pitch": 24, "duration": 1441, "velocity": 120}, {"time": 91920, "pitch": 24, "duration": 243, "velocity": 120}, {"time": 92163, "pitch": 29, "duration": 238, "velocity": 120}, {"time": 92401, "pitch": 31, "duration": 238, "velocity": 120}, {"time": 92639, "pitch": 34, "duration": 961, "velocity": 120}, {"time": 93600, "pitch": 33, "duration": 238, "velocity": 120}, {"time": 93838, "pitch": 29, "duration": 238, "velocity": 120}, {"time": 94076, "pitch": 31, "duration": 242, "velocity": 120}, {"time": 94318, "pitch": 36, "duration": 2165, "velocity": 120}, {"time": 96483, "pitch": 34, "duration": 961, "velocity": 120}, {"time": 97444, "pitch": 33, "duration": 238, "velocity": 120}, {"time": 97682, "pitch": 29, "duration": 238, "velocity": 120}, {"time": 97920, "pitch": 31, "duration": 238, "velocity": 120}, {"time": 98158, "pitch": 24, "duration": 1441, "velocity": 120}, {"time": 99599, "pitch": 24, "duration": 243, "velocity": 120}, {"time": 99842, "pitch": 29, "duration": 238, "velocity": 120}, {"time": 100080, "pitch": 31, "duration": 238, "velocity": 120}, {"time": 100318, "pitch": 34, "duration": 961, "velocity": 120}, {"time": 101279, "pitch": 33, "duration": 242, "velocity": 120}, {"time": 101521, "pitch": 29, "duration": 243, "velocity": 120}, {"time": 101764, "pitch": 31, "duration": 238, "velocity": 120}, {"time": 102002, "pitch": 36, "duration": 2160, "velocity": 120}, {"time": 119520, "pitch": 34, "duration": 961, "velocity": 120}, {"time": 120481, "pitch": 33, "duration": 238, "velocity": 120}, {"time": 120719, "pitch": 29, "duration": 238, "velocity": 120}, {"time": 120957, "pitch": 31, "duration": 242, "velocity": 120}, {"time": 121199, "pitch": 24, "duration": 1442, "velocity": 120}, {"time": 122641, "pitch": 24, "duration": 238, "velocity": 120}, {"time": 122879, "pitch": 29, "duration": 242, "velocity": 120}, {"time": 123121, "pitch": 31, "duration": 243, "velocity": 120}, {"time": 123364, "pitch": 34, "duration": 952, "velocity": 120}, {"time": 124316, "pitch": 33, "duration": 242, "velocity": 120}, {"time": 124558, "pitch": 29, "duration": 243, "velocity": 120}, {"time": 124801, "pitch": 31, "duration": 238, "velocity": 120}, {"time": 125039, "pitch": 36, "duration": 2160, "velocity": 120}, {"time": 127199, "pitch": 34, "duration": 961, "velocity": 120}, {"time": 128160, "pitch": 33, "duration": 238, "velocity": 120}, {"time": 128398, "pitch": 29, "duration": 238, "velocity": 120}, {"time": 128636, "pitch": 31, "duration": 242, "velocity": 120}, {"time": 128878, "pitch": 24, "duration": 1442, "velocity": 120}, {"time": 130320, "pitch": 24, "duration": 238, "velocity": 120}, {"time": 130558, "pitch": 29, "duration": 242, "velocity": 120}, {"time": 130800, "pitch": 31, "duration": 243, "velocity": 120}, {"time": 131043, "pitch": 34, "duration": 961, "velocity": 120}, {"time": 132004, "pitch": 33, "duration": 238, "velocity": 120}, {"time": 132242, "pitch": 29, "duration": 238, "velocity": 120}, {"time": 132480, "pitch": 31, "duration": 238, "velocity": 120}, {"time": 132718, "pitch": 36, "duration": 2160, "velocity": 120}, {"time": 134878, "pitch": 34, "duration": 961, "velocity": 120}, {"time": 135839, "pitch": 33, "duration": 242, "velocity": 120}, {"time": 136081, "pitch": 29, "duration": 243, "velocity": 120}, {"time": 136324, "pitch": 31, "duration": 238, "velocity": 120}, {"time": 136562, "pitch": 24, "duration": 1437, "velocity": 120}, {"time": 137999, "pitch": 24, "duration": 238, "velocity": 120}, {"time": 138237, "pitch": 29, "duration": 242, "velocity": 120}, {"time": 138479, "pitch": 31, "duration": 243, "velocity": 120}, {"time": 138722, "pitch": 34, "duration": 961, "velocity": 120}, {"time": 139683, "pitch": 33, "duration": 238, "velocity": 120}, {"time": 139921, "pitch": 29, "duration": 238, "velocity": 120}, {"time": 140159, "pitch": 31, "duration": 242, "velocity": 120}, {"time": 140401, "pitch": 36, "duration": 2156, "velocity": 120}, {"time": 142557, "pitch": 34, "duration": 961, "velocity": 120}, {"time": 143518, "pitch": 33, "duration": 242, "velocity": 120}, {"time": 143760, "pitch": 29, "duration": 243, "velocity": 120}, {"time": 144003, "pitch": 31, "duration": 238, "velocity": 120}, {"time": 144241, "pitch": 24, "duration": 1437, "velocity": 120}, {"time": 145678, "pitch": 24, "duration": 238, "velocity": 120}, {"time": 145916, "pitch": 29, "duration": 242, "velocity": 120}, {"time": 146158, "pitch": 31, "duration": 243, "velocity": 120}, {"time": 146401, "pitch": 34, "duration": 961, "velocity": 120}, {"time": 147362, "pitch": 33, "duration": 238, "velocity": 120}, {"time": 147600, "pitch": 29, "duration": 238, "velocity": 120}, {"time": 147838, "pitch": 31, "duration": 242, "velocity": 120}, {"time": 148080, "pitch": 36, "duration": 2156, "velocity": 120}, {"time": 150236, "pitch": 34, "duration": 961, "velocity": 120}, {"time": 151197, "pitch": 33, "duration": 242, "velocity": 120}, {"time": 151439, "pitch": 29, "duration": 243, "velocity": 120}, {"time": 151682, "pitch": 31, "duration": 238, "velocity": 120}, {"time": 151920, "pitch": 24, "duration": 1441, "velocity": 120}, {"time": 153361, "pitch": 24, "duration": 243, "velocity": 120}, {"time": 153604, "pitch": 29, "duration": 238, "velocity": 120}, {"time": 153842, "pitch": 31, "duration": 238, "velocity": 120}, {"time": 154080, "pitch": 34, "duration": 961, "velocity": 120}, {"time": 155041, "pitch": 33, "duration": 238, "velocity": 120}, {"time": 155279, "pitch": 29, "duration": 238, "velocity": 120}, {"time": 155517, "pitch": 31, "duration": 242, "velocity": 120}, {"time": 155759, "pitch": 36, "duration": 2165, "velocity": 120}, {"time": 157924, "pitch": 34, "duration": 952, "velocity": 120}, {"time": 158876, "pitch": 33, "duration": 242, "velocity": 120}, {"time": 159118, "pitch": 29, "duration": 243, "velocity": 120}, {"time": 159361, "pitch": 31, "duration": 238, "velocity": 120}, {"time": 159599, "pitch": 24, "duration": 1437, "velocity": 120}, {"time": 161036, "pitch": 24, "duration": 238, "velocity": 120}, {"time": 161274, "pitch": 29, "duration": 238, "velocity": 120}, {"time": 161512, "pitch": 31, "duration": 238, "velocity": 120}, {"time": 161750, "pitch": 34, "duration": 953, "velocity": 120}, {"time": 162703, "pitch": 33, "duration": 238, "velocity": 120}, {"time": 162941, "pitch": 29, "duration": 238, "velocity": 120}, {"time": 163179, "pitch": 31, "duration": 238, "velocity": 120}, {"time": 163417, "pitch": 36, "duration": 2101, "velocity": 120}], "annotations": [{"time": 284, "annotation": {"number": 7, "value": 100}, "group": "control_change"}, {"time": 306, "annotation": {"number": 11, "value": 110}, "group": "control_change"}, {"time": 328, "annotation": {"number": 10, "value": 64}, "group": "control_change"}, {"time": 350, "annotation": {"number": 91, "value": 0}, "group": "control_change"}, {"time": 372, "annotation": {"number": 93, "value": 0}, "group": "control_change"}, {"time": 394, "annotation": {"number": 101, "value": 0}, "group": "control_change"}, {"time": 415, "annotation": {"number": 100, "value": 0}, "group": "control_change"}, {"time": 437, "annotation": {"number": 6, "value": 12}, "group": "control_change"}, {"time": 459, "annotation": {"number": 101, "value": 127}, "group": "control_change"}, {"time": 482, "annotation": {"number": 100, "value": 127}, "group": "control_change"}, {"time": 152158, "annotation": {"number": 11, "value": 110}, "group": "control_change"}, {"time": 152279, "annotation": {"number": 11, "value": 109}, "group": "control_change"}, {"time": 152400, "annotation": {"number": 11, "value": 108}, "group": "control_change"}, {"time": 152522, "annotation": {"number": 11, "value": 107}, "group": "control_change"}, {"time": 152643, "annotation": {"number": 11, "value": 106}, "group": "control_change"}, {"time": 152762, "annotation": {"number": 11, "value": 105}, "group": "control_change"}, {"time": 152881, "annotation": {"number": 11, "value": 104}, "group": "control_change"}, {"time": 153000, "annotation": {"number": 11, "value": 103}, "group": "control_change"}, {"time": 153119, "annotation": {"number": 11, "value": 102}, "group": "control_change"}, {"time": 153240, "annotation": {"number": 11, "value": 101}, "group": "control_change"}, {"time": 153361, "annotation": {"number": 11, "value": 100}, "group": "control_change"}, {"time": 153483, "annotation": {"number": 11, "value": 99}, "group": "control_change"}, {"time": 153604, "annotation": {"number": 11, "value": 98}, "group": "control_change"}, {"time": 153723, "annotation": {"number": 11, "value": 97}, "group": "control_change"}, {"time": 153842, "annotation": {"number": 11, "value": 96}, "group": "control_change"}, {"time": 153961, "annotation": {"number": 11, "value": 95}, "group": "control_change"}, {"time": 154080, "annotation": {"number": 11, "value": 94}, "group": "control_change"}, {"time": 154199, "annotation": {"number": 11, "value": 93}, "group": "control_change"}, {"time": 154318, "annotation": {"number": 11, "value": 92}, "group": "control_change"}, {"time": 154437, "annotation": {"number": 11, "value": 91}, "group": "control_change"}, {"time": 154556, "annotation": {"number": 11, "value": 90}, "group": "control_change"}, {"time": 154677, "annotation": {"number": 11, "value": 89}, "group": "control_change"}, {"time": 154798, "annotation": {"number": 11, "value": 88}, "group": "control_change"}, {"time": 154920, "annotation": {"number": 11, "value": 87}, "group": "control_change"}, {"time": 155041, "annotation": {"number": 11, "value": 86}, "group": "control_change"}, {"time": 155160, "annotation": {"number": 11, "value": 85}, "group": "control_change"}, {"time": 155279, "annotation": {"number": 11, "value": 84}, "group": "control_change"}, {"time": 155398, "annotation": {"number": 11, "value": 83}, "group": "control_change"}, {"time": 155517, "annotation": {"number": 11, "value": 82}, "group": "control_change"}, {"time": 155638, "annotation": {"number": 11, "value": 81}, "group": "control_change"}, {"time": 155759, "annotation": {"number": 11, "value": 80}, "group": "control_change"}, {"time": 155881, "annotation": {"number": 11, "value": 79}, "group": "control_change"}, {"time": 156002, "annotation": {"number": 11, "value": 78}, "group": "control_change"}, {"time": 156121, "annotation": {"number": 11, "value": 77}, "group": "control_change"}, {"time": 156240, "annotation": {"number": 11, "value": 76}, "group": "control_change"}, {"time": 156359, "annotation": {"number": 11, "value": 75}, "group": "control_change"}, {"time": 156478, "annotation": {"number": 11, "value": 74}, "group": "control_change"}, {"time": 156599, "annotation": {"number": 11, "value": 73}, "group": "control_change"}, {"time": 156720, "annotation": {"number": 11, "value": 72}, "group": "control_change"}, {"time": 156842, "annotation": {"number": 11, "value": 71}, "group": "control_change"}, {"time": 156963, "annotation": {"number": 11, "value": 70}, "group": "control_change"}, {"time": 157082, "annotation": {"number": 11, "value": 69}, "group": "control_change"}, {"time": 157201, "annotation": {"number": 11, "value": 68}, "group": "control_change"}, {"time": 157320, "annotation": {"number": 11, "value": 67}, "group": "control_change"}, {"time": 157439, "annotation": {"number": 11, "value": 66}, "group": "control_change"}, {"time": 157560, "annotation": {"number": 11, "value": 65}, "group": "control_change"}, {"time": 157681, "annotation": {"number": 11, "value": 64}, "group": "control_change"}, {"time": 157803, "annotation": {"number": 11, "value": 63}, "group": "control_change"}, {"time": 157924, "annotation": {"number": 11, "value": 62}, "group": "control_change"}, {"time": 158043, "annotation": {"number": 11, "value": 61}, "group": "control_change"}, {"time": 158162, "annotation": {"number": 11, "value": 60}, "group": "control_change"}, {"time": 158281, "annotation": {"number": 11, "value": 59}, "group": "control_change"}, {"time": 158400, "annotation": {"number": 11, "value": 58}, "group": "control_change"}, {"time": 158519, "annotation": {"number": 11, "value": 57}, "group": "control_change"}, {"time": 158638, "annotation": {"number": 11, "value": 56}, "group": "control_change"}, {"time": 158757, "annotation": {"number": 11, "value": 55}, "group": "control_change"}, {"time": 158999, "annotation": {"number": 11, "value": 54}, "group": "control_change"}, {"time": 159120, "annotation": {"number": 11, "value": 53}, "group": "control_change"}, {"time": 159242, "annotation": {"number": 11, "value": 52}, "group": "control_change"}, {"time": 159363, "annotation": {"number": 11, "value": 51}, "group": "control_change"}, {"time": 159482, "annotation": {"number": 11, "value": 50}, "group": "control_change"}, {"time": 159601, "annotation": {"number": 11, "value": 49}, "group": "control_change"}, {"time": 159720, "annotation": {"number": 11, "value": 48}, "group": "control_change"}, {"time": 159839, "annotation": {"number": 11, "value": 47}, "group": "control_change"}, {"time": 159960, "annotation": {"number": 11, "value": 46}, "group": "control_change"}, {"time": 160081, "annotation": {"number": 11, "value": 45}, "group": "control_change"}, {"time": 160203, "annotation": {"number": 11, "value": 44}, "group": "control_change"}, {"time": 160324, "annotation": {"number": 11, "value": 43}, "group": "control_change"}, {"time": 160443, "annotation": {"number": 11, "value": 42}, "group": "control_change"}, {"time": 160562, "annotation": {"number": 11, "value": 41}, "group": "control_change"}, {"time": 160681, "annotation": {"number": 11, "value": 40}, "group": "control_change"}, {"time": 160800, "annotation": {"number": 11, "value": 39}, "group": "control_change"}, {"time": 160919, "annotation": {"number": 11, "value": 38}, "group": "control_change"}, {"time": 161038, "annotation": {"number": 11, "value": 37}, "group": "control_change"}, {"time": 161157, "annotation": {"number": 11, "value": 36}, "group": "control_change"}, {"time": 161276, "annotation": {"number": 11, "value": 35}, "group": "control_change"}, {"time": 161395, "annotation": {"number": 11, "value": 34}, "group": "control_change"}, {"time": 161514, "annotation": {"number": 11, "value": 33}, "group": "control_change"}, {"time": 161633, "annotation": {"number": 11, "value": 32}, "group": "control_change"}, {"time": 161752, "annotation": {"number": 11, "value": 31}, "group": "control_change"}, {"time": 161871, "annotation": {"number": 11, "value": 30}, "group": "control_change"}, {"time": 161990, "annotation": {"number": 11, "value": 29}, "group": "control_change"}, {"time": 162109, "annotation": {"number": 11, "value": 28}, "group": "control_change"}, {"time": 162228, "annotation": {"number": 11, "value": 27}, "group": "control_change"}, {"time": 162348, "annotation": {"number": 11, "value": 26}, "group": "control_change"}, {"time": 162467, "annotation": {"number": 11, "value": 25}, "group": "control_change"}, {"time": 162586, "annotation": {"number": 11, "value": 24}, "group": "control_change"}, {"time": 162705, "annotation": {"number": 11, "value": 23}, "group": "control_change"}, {"time": 162824, "annotation": {"number": 11, "value": 22}, "group": "control_change"}, {"time": 162943, "annotation": {"number": 11, "value": 21}, "group": "control_change"}, {"time": 163062, "annotation": {"number": 11, "value": 20}, "group": "control_change"}, {"time": 163181, "annotation": {"number": 11, "value": 19}, "group": "control_change"}, {"time": 163300, "annotation": {"number": 11, "value": 18}, "group": "control_change"}, {"time": 163419, "annotation": {"number": 11, "value": 17}, "group": "control_change"}, {"time": 163538, "annotation": {"number": 11, "value": 16}, "group": "control_change"}, {"time": 163657, "annotation": {"number": 11, "value": 15}, "group": "control_change"}, {"time": 163776, "annotation": {"number": 11, "value": 14}, "group": "control_change"}, {"time": 163895, "annotation": {"number": 11, "value": 13}, "group": "control_change"}, {"time": 164014, "annotation": {"number": 11, "value": 12}, "group": "control_change"}, {"time": 164133, "annotation": {"number": 11, "value": 11}, "group": "control_change"}, {"time": 164252, "annotation": {"number": 11, "value": 10}, "group": "control_change"}, {"time": 164371, "annotation": {"number": 11, "value": 9}, "group": "control_change"}, {"time": 164490, "annotation": {"number": 11, "value": 8}, "group": "control_change"}, {"time": 164609, "annotation": {"number": 11, "value": 7}, "group": "control_change"}, {"time": 164728, "annotation": {"number": 11, "value": 6}, "group": "control_change"}, {"time": 164848, "annotation": {"number": 11, "value": 5}, "group": "control_change"}, {"time": 164967, "annotation": {"number": 11, "value": 4}, "group": "control_change"}, {"time": 165086, "annotation": {"number": 11, "value": 3}, "group": "control_change"}, {"time": 165205, "annotation": {"number": 11, "value": 2}, "group": "control_change"}, {"time": 165324, "annotation": {"number": 11, "value": 1}, "group": "control_change"}, {"time": 165443, "annotation": {"number": 11, "value": 0}, "group": "control_change"}, {"time": 165560, "annotation": {"number": 11, "value": 0}, "group": "control_change"}]}, {"program": 0, "is_drum": false, "name": "BRAS", "annotations": [{"time": 219, "annotation": {"number": 0, "value": 0}, "group": "control_change"}, {"time": 241, "annotation": {"number": 32, "value": 2}, "group": "control_change"}]}, {"program": 61, "is_drum": false, "name": "BRAS", "notes": [{"time": 11996, "pitch": 65, "duration": 454, "velocity": 120}, {"time": 11996, "pitch": 77, "duration": 462, "velocity": 120}, {"time": 13200, "pitch": 60, "duration": 291, "velocity": 120}, {"time": 13200, "pitch": 72, "duration": 227, "velocity": 120}, {"time": 13442, "pitch": 62, "duration": 137, "velocity": 120}, {"time": 13442, "pitch": 74, "duration": 126, "velocity": 120}, {"time": 13680, "pitch": 65, "duration": 473, "velocity": 120}, {"time": 13680, "pitch": 77, "duration": 471, "velocity": 120}, {"time": 15121, "pitch": 67, "duration": 84, "velocity": 120}, {"time": 15121, "pitch": 79, "duration": 91, "velocity": 120}, {"time": 15364, "pitch": 67, "duration": 220, "velocity": 120}, {"time": 15364, "pitch": 79, "duration": 247, "velocity": 120}, {"time": 15602, "pitch": 65, "duration": 199, "velocity": 120}, {"time": 15602, "pitch": 77, "duration": 202, "velocity": 120}, {"time": 16316, "pitch": 65, "duration": 539, "velocity": 120}, {"time": 16316, "pitch": 77, "duration": 530, "velocity": 120}, {"time": 17039, "pitch": 60, "duration": 273, "velocity": 120}, {"time": 17039, "pitch": 72, "duration": 234, "velocity": 120}, {"time": 17277, "pitch": 62, "duration": 142, "velocity": 120}, {"time": 17277, "pitch": 74, "duration": 137, "velocity": 120}, {"time": 17519, "pitch": 65, "duration": 682, "velocity": 120}, {"time": 17519, "pitch": 77, "duration": 712, "velocity": 120}, {"time": 18961, "pitch": 69, "duration": 231, "velocity": 120}, {"time": 18961, "pitch": 81, "duration": 227, "velocity": 120}, {"time": 19199, "pitch": 67, "duration": 199, "velocity": 120}, {"time": 19199, "pitch": 79, "duration": 216, "velocity": 120}, {"time": 19441, "pitch": 65, "duration": 292, "velocity": 120}, {"time": 19441, "pitch": 77, "duration": 286, "velocity": 120}, {"time": 20160, "pitch": 65, "duration": 518, "velocity": 120}, {"time": 20160, "pitch": 77, "duration": 495, "velocity": 120}, {"time": 20879, "pitch": 60, "duration": 286, "velocity": 120}, {"time": 20879, "pitch": 72, "duration": 244, "velocity": 120}, {"time": 21121, "pitch": 62, "duration": 107, "velocity": 120}, {"time": 21121, "pitch": 74, "duration": 105, "velocity": 120}, {"time": 21359, "pitch": 65, "duration": 779, "velocity": 120}, {"time": 21359, "pitch": 77, "duration": 778, "velocity": 120}, {"time": 22800, "pitch": 65, "duration": 127, "velocity": 120}, {"time": 22800, "pitch": 77, "duration": 118, "velocity": 120}, {"time": 23043, "pitch": 67, "duration": 257, "velocity": 120}, {"time": 23043, "pitch": 79, "duration": 238, "velocity": 120}, {"time": 23281, "pitch": 65, "duration": 181, "velocity": 120}, {"time": 23281, "pitch": 77, "duration": 195, "velocity": 120}, {"time": 24004, "pitch": 65, "duration": 441, "velocity": 120}, {"time": 24004, "pitch": 77, "duration": 449, "velocity": 120}, {"time": 24718, "pitch": 60, "duration": 253, "velocity": 120}, {"time": 24718, "pitch": 72, "duration": 223, "velocity": 120}, {"time": 24956, "pitch": 62, "duration": 121, "velocity": 120}, {"time": 24956, "pitch": 74, "duration": 121, "velocity": 120}, {"time": 25199, "pitch": 65, "duration": 616, "velocity": 120}, {"time": 25199, "pitch": 77, "duration": 630, "velocity": 120}, {"time": 26640, "pitch": 69, "duration": 221, "velocity": 120}, {"time": 26640, "pitch": 81, "duration": 216, "velocity": 120}, {"time": 26878, "pitch": 67, "duration": 173, "velocity": 120}, {"time": 26878, "pitch": 79, "duration": 196, "velocity": 120}, {"time": 27120, "pitch": 65, "duration": 222, "velocity": 120}, {"time": 27120, "pitch": 77, "duration": 217, "velocity": 120}, {"time": 27363, "pitch": 65, "duration": 445, "velocity": 120}, {"time": 27363, "pitch": 77, "duration": 453, "velocity": 120}, {"time": 28562, "pitch": 60, "duration": 288, "velocity": 120}, {"time": 28562, "pitch": 72, "duration": 223, "velocity": 120}, {"time": 28800, "pitch": 62, "duration": 137, "velocity": 120}, {"time": 28800, "pitch": 74, "duration": 126, "velocity": 120}, {"time": 29038, "pitch": 65, "duration": 473, "velocity": 120}, {"time": 29038, "pitch": 77, "duration": 471, "velocity": 120}, {"time": 30479, "pitch": 67, "duration": 84, "velocity": 120}, {"time": 30479, "pitch": 79, "duration": 91, "velocity": 120}, {"time": 30722, "pitch": 67, "duration": 220, "velocity": 120}, {"time": 30722, "pitch": 79, "duration": 247, "velocity": 120}, {"time": 30960, "pitch": 65, "duration": 199, "velocity": 120}, {"time": 30960, "pitch": 77, "duration": 202, "velocity": 120}, {"time": 31683, "pitch": 65, "duration": 532, "velocity": 120}, {"time": 31683, "pitch": 77, "duration": 521, "velocity": 120}, {"time": 32401, "pitch": 60, "duration": 277, "velocity": 120}, {"time": 32401, "pitch": 72, "duration": 239, "velocity": 120}, {"time": 32644, "pitch": 62, "duration": 140, "velocity": 120}, {"time": 32644, "pitch": 74, "duration": 135, "velocity": 120}, {"time": 32882, "pitch": 65, "duration": 677, "velocity": 120}, {"time": 32882, "pitch": 77, "duration": 707, "velocity": 120}, {"time": 34319, "pitch": 69, "duration": 231, "velocity": 120}, {"time": 34319, "pitch": 81, "duration": 227, "velocity": 120}, {"time": 34557, "pitch": 67, "duration": 199, "velocity": 120}, {"time": 34557, "pitch": 79, "duration": 216, "velocity": 120}, {"time": 34799, "pitch": 65, "duration": 292, "velocity": 120}, {"time": 34799, "pitch": 77, "duration": 287, "velocity": 120}, {"time": 35518, "pitch": 65, "duration": 525, "velocity": 120}, {"time": 35518, "pitch": 77, "duration": 504, "velocity": 120}, {"time": 36241, "pitch": 60, "duration": 282, "velocity": 120}, {"time": 36241, "pitch": 72, "duration": 240, "velocity": 120}, {"time": 36479, "pitch": 62, "duration": 109, "velocity": 120}, {"time": 36479, "pitch": 74, "duration": 107, "velocity": 120}, {"time": 36721, "pitch": 65, "duration": 776, "velocity": 120}, {"time": 36721, "pitch": 77, "duration": 775, "velocity": 120}, {"time": 38159, "pitch": 65, "duration": 126, "velocity": 120}, {"time": 38159, "pitch": 77, "duration": 117, "velocity": 120}, {"time": 38401, "pitch": 67, "duration": 257, "velocity": 120}, {"time": 38401, "pitch": 79, "duration": 238, "velocity": 120}, {"time": 38639, "pitch": 65, "duration": 182, "velocity": 120}, {"time": 38639, "pitch": 77, "duration": 195, "velocity": 120}, {"time": 39362, "pitch": 65, "duration": 441, "velocity": 120}, {"time": 39362, "pitch": 77, "duration": 449, "velocity": 120}, {"time": 40080, "pitch": 60, "duration": 258, "velocity": 120}, {"time": 40080, "pitch": 72, "duration": 228, "velocity": 120}, {"time": 40323, "pitch": 62, "duration": 119, "velocity": 120}, {"time": 40323, "pitch": 74, "duration": 119, "velocity": 120}, {"time": 40561, "pitch": 65, "duration": 619, "velocity": 120}, {"time": 40561, "pitch": 77, "duration": 633, "velocity": 120}, {"time": 41998, "pitch": 69, "duration": 221, "velocity": 120}, {"time": 41998, "pitch": 81, "duration": 216, "velocity": 120}, {"time": 42236, "pitch": 67, "duration": 173, "velocity": 120}, {"time": 42236, "pitch": 79, "duration": 196, "velocity": 120}, {"time": 42479, "pitch": 65, "duration": 221, "velocity": 120}, {"time": 42479, "pitch": 77, "duration": 216, "velocity": 120}, {"time": 42721, "pitch": 65, "duration": 445, "velocity": 120}, {"time": 42721, "pitch": 77, "duration": 453, "velocity": 120}, {"time": 43920, "pitch": 60, "duration": 289, "velocity": 120}, {"time": 43920, "pitch": 72, "duration": 223, "velocity": 120}, {"time": 44158, "pitch": 62, "duration": 139, "velocity": 120}, {"time": 44158, "pitch": 74, "duration": 128, "velocity": 120}, {"time": 44400, "pitch": 65, "duration": 474, "velocity": 120}, {"time": 44400, "pitch": 77, "duration": 472, "velocity": 120}, {"time": 45842, "pitch": 67, "duration": 82, "velocity": 120}, {"time": 45842, "pitch": 79, "duration": 89, "velocity": 120}, {"time": 46080, "pitch": 67, "duration": 220, "velocity": 120}, {"time": 46080, "pitch": 79, "duration": 247, "velocity": 120}, {"time": 46318, "pitch": 65, "duration": 199, "velocity": 120}, {"time": 46318, "pitch": 77, "duration": 202, "velocity": 120}, {"time": 47041, "pitch": 65, "duration": 532, "velocity": 120}, {"time": 47041, "pitch": 77, "duration": 521, "velocity": 120}, {"time": 47759, "pitch": 60, "duration": 278, "velocity": 120}, {"time": 47759, "pitch": 72, "duration": 239, "velocity": 120}, {"time": 48002, "pitch": 62, "duration": 140, "velocity": 120}, {"time": 48002, "pitch": 74, "duration": 135, "velocity": 120}, {"time": 48240, "pitch": 65, "duration": 685, "velocity": 120}, {"time": 48240, "pitch": 77, "duration": 716, "velocity": 120}, {"time": 49681, "pitch": 69, "duration": 236, "velocity": 120}, {"time": 49681, "pitch": 81, "duration": 232, "velocity": 120}, {"time": 49924, "pitch": 67, "duration": 195, "velocity": 120}, {"time": 49924, "pitch": 79, "duration": 212, "velocity": 120}, {"time": 50162, "pitch": 65, "duration": 288, "velocity": 120}, {"time": 50162, "pitch": 77, "duration": 282, "velocity": 120}, {"time": 50876, "pitch": 65, "duration": 526, "velocity": 120}, {"time": 50876, "pitch": 77, "duration": 504, "velocity": 120}, {"time": 51599, "pitch": 60, "duration": 282, "velocity": 120}, {"time": 51599, "pitch": 72, "duration": 240, "velocity": 120}, {"time": 51837, "pitch": 62, "duration": 109, "velocity": 120}, {"time": 51837, "pitch": 74, "duration": 107, "velocity": 120}, {"time": 52079, "pitch": 65, "duration": 777, "velocity": 120}, {"time": 52079, "pitch": 77, "duration": 776, "velocity": 120}, {"time": 53521, "pitch": 65, "duration": 124, "velocity": 120}, {"time": 53521, "pitch": 77, "duration": 115, "velocity": 120}, {"time": 53759, "pitch": 67, "duration": 262, "velocity": 120}, {"time": 53759, "pitch": 79, "duration": 242, "velocity": 120}, {"time": 54001, "pitch": 65, "duration": 185, "velocity": 120}, {"time": 54001, "pitch": 77, "duration": 199, "velocity": 120}, {"time": 54720, "pitch": 65, "duration": 441, "velocity": 120}, {"time": 54720, "pitch": 77, "duration": 449, "velocity": 120}, {"time": 55438, "pitch": 60, "duration": 258, "velocity": 120}, {"time": 55438, "pitch": 72, "duration": 228, "velocity": 120}, {"time": 55681, "pitch": 62, "duration": 119, "velocity": 120}, {"time": 55681, "pitch": 74, "duration": 119, "velocity": 120}, {"time": 55919, "pitch": 65, "duration": 619, "velocity": 120}, {"time": 55919, "pitch": 77, "duration": 633, "velocity": 120}, {"time": 57360, "pitch": 69, "duration": 226, "velocity": 120}, {"time": 57360, "pitch": 81, "duration": 221, "velocity": 120}, {"time": 57603, "pitch": 67, "duration": 169, "velocity": 120}, {"time": 57603, "pitch": 79, "duration": 192, "velocity": 120}, {"time": 57841, "pitch": 65, "duration": 217, "velocity": 120}, {"time": 57841, "pitch": 77, "duration": 212, "velocity": 120}, {"time": 58079, "pitch": 65, "duration": 454, "velocity": 120}, {"time": 58079, "pitch": 77, "duration": 462, "velocity": 120}, {"time": 59278, "pitch": 60, "duration": 289, "velocity": 120}, {"time": 59278, "pitch": 72, "duration": 223, "velocity": 120}, {"time": 59516, "pitch": 62, "duration": 139, "velocity": 120}, {"time": 59516, "pitch": 74, "duration": 128, "velocity": 120}, {"time": 59758, "pitch": 65, "duration": 474, "velocity": 120}, {"time": 59758, "pitch": 77, "duration": 472, "velocity": 120}, {"time": 61200, "pitch": 67, "duration": 82, "velocity": 120}, {"time": 61200, "pitch": 79, "duration": 89, "velocity": 120}, {"time": 61438, "pitch": 67, "duration": 224, "velocity": 120}, {"time": 61438, "pitch": 79, "duration": 252, "velocity": 120}, {"time": 61680, "pitch": 65, "duration": 203, "velocity": 120}, {"time": 61680, "pitch": 77, "duration": 206, "velocity": 120}, {"time": 62399, "pitch": 65, "duration": 539, "velocity": 120}, {"time": 62399, "pitch": 77, "duration": 529, "velocity": 120}, {"time": 63122, "pitch": 60, "duration": 273, "velocity": 120}, {"time": 63122, "pitch": 72, "duration": 234, "velocity": 120}, {"time": 63360, "pitch": 62, "duration": 140, "velocity": 120}, {"time": 63360, "pitch": 74, "duration": 135, "velocity": 120}, {"time": 63598, "pitch": 65, "duration": 686, "velocity": 120}, {"time": 63598, "pitch": 77, "duration": 716, "velocity": 120}, {"time": 65039, "pitch": 69, "duration": 236, "velocity": 120}, {"time": 65039, "pitch": 81, "duration": 232, "velocity": 120}, {"time": 65282, "pitch": 67, "duration": 195, "velocity": 120}, {"time": 65282, "pitch": 79, "duration": 212, "velocity": 120}, {"time": 65520, "pitch": 65, "duration": 288, "velocity": 120}, {"time": 65520, "pitch": 77, "duration": 282, "velocity": 120}, {"time": 66243, "pitch": 65, "duration": 517, "velocity": 120}, {"time": 66243, "pitch": 77, "duration": 495, "velocity": 120}, {"time": 66961, "pitch": 60, "duration": 286, "velocity": 120}, {"time": 66961, "pitch": 72, "duration": 245, "velocity": 120}, {"time": 67204, "pitch": 62, "duration": 107, "velocity": 120}, {"time": 67204, "pitch": 74, "duration": 105, "velocity": 120}, {"time": 67442, "pitch": 65, "duration": 772, "velocity": 120}, {"time": 67442, "pitch": 77, "duration": 771, "velocity": 120}, {"time": 68879, "pitch": 65, "duration": 124, "velocity": 120}, {"time": 68879, "pitch": 77, "duration": 115, "velocity": 120}, {"time": 69117, "pitch": 67, "duration": 262, "velocity": 120}, {"time": 69117, "pitch": 79, "duration": 242, "velocity": 120}, {"time": 69359, "pitch": 65, "duration": 185, "velocity": 120}, {"time": 69359, "pitch": 77, "duration": 199, "velocity": 120}, {"time": 70078, "pitch": 65, "duration": 449, "velocity": 120}, {"time": 70078, "pitch": 77, "duration": 458, "velocity": 120}, {"time": 70801, "pitch": 60, "duration": 253, "velocity": 120}, {"time": 70801, "pitch": 72, "duration": 223, "velocity": 120}, {"time": 71039, "pitch": 62, "duration": 121, "velocity": 120}, {"time": 71039, "pitch": 74, "duration": 121, "velocity": 120}, {"time": 71281, "pitch": 65, "duration": 617, "velocity": 120}, {"time": 71281, "pitch": 77, "duration": 631, "velocity": 120}, {"time": 72718, "pitch": 69, "duration": 226, "velocity": 120}, {"time": 72718, "pitch": 81, "duration": 221, "velocity": 120}, {"time": 72961, "pitch": 67, "duration": 170, "velocity": 120}, {"time": 72961, "pitch": 79, "duration": 192, "velocity": 120}, {"time": 73199, "pitch": 65, "duration": 217, "velocity": 120}, {"time": 73199, "pitch": 77, "duration": 212, "velocity": 120}, {"time": 73437, "pitch": 65, "duration": 454, "velocity": 120}, {"time": 73437, "pitch": 77, "duration": 462, "velocity": 120}, {"time": 74640, "pitch": 60, "duration": 292, "velocity": 120}, {"time": 74640, "pitch": 72, "duration": 228, "velocity": 120}, {"time": 74883, "pitch": 62, "duration": 137, "velocity": 120}, {"time": 74883, "pitch": 74, "duration": 126, "velocity": 120}, {"time": 75121, "pitch": 65, "duration": 473, "velocity": 120}, {"time": 75121, "pitch": 77, "duration": 471, "velocity": 120}, {"time": 76558, "pitch": 67, "duration": 82, "velocity": 120}, {"time": 76558, "pitch": 79, "duration": 89, "velocity": 120}, {"time": 76796, "pitch": 67, "duration": 224, "velocity": 120}, {"time": 76796, "pitch": 79, "duration": 252, "velocity": 120}, {"time": 77038, "pitch": 65, "duration": 203, "velocity": 120}, {"time": 77038, "pitch": 77, "duration": 207, "velocity": 120}, {"time": 77757, "pitch": 65, "duration": 539, "velocity": 120}, {"time": 77757, "pitch": 77, "duration": 529, "velocity": 120}, {"time": 78480, "pitch": 60, "duration": 273, "velocity": 120}, {"time": 78480, "pitch": 72, "duration": 234, "velocity": 120}, {"time": 78718, "pitch": 62, "duration": 142, "velocity": 120}, {"time": 78718, "pitch": 74, "duration": 137, "velocity": 120}, {"time": 78960, "pitch": 65, "duration": 682, "velocity": 120}, {"time": 78960, "pitch": 77, "duration": 712, "velocity": 120}, {"time": 80402, "pitch": 69, "duration": 231, "velocity": 120}, {"time": 80402, "pitch": 81, "duration": 227, "velocity": 120}, {"time": 80640, "pitch": 67, "duration": 195, "velocity": 120}, {"time": 80640, "pitch": 79, "duration": 212, "velocity": 120}, {"time": 80878, "pitch": 65, "duration": 289, "velocity": 120}, {"time": 80878, "pitch": 77, "duration": 282, "velocity": 120}, {"time": 81601, "pitch": 65, "duration": 517, "velocity": 120}, {"time": 81601, "pitch": 77, "duration": 495, "velocity": 120}, {"time": 82319, "pitch": 60, "duration": 286, "velocity": 120}, {"time": 82319, "pitch": 72, "duration": 245, "velocity": 120}, {"time": 82562, "pitch": 62, "duration": 107, "velocity": 120}, {"time": 82562, "pitch": 74, "duration": 105, "velocity": 120}, {"time": 82800, "pitch": 65, "duration": 779, "velocity": 120}, {"time": 82800, "pitch": 77, "duration": 778, "velocity": 120}, {"time": 84241, "pitch": 65, "duration": 127, "velocity": 120}, {"time": 84241, "pitch": 77, "duration": 118, "velocity": 120}, {"time": 84484, "pitch": 67, "duration": 257, "velocity": 120}, {"time": 84484, "pitch": 79, "duration": 238, "velocity": 120}, {"time": 84722, "pitch": 65, "duration": 181, "velocity": 120}, {"time": 84722, "pitch": 77, "duration": 195, "velocity": 120}, {"time": 85436, "pitch": 65, "duration": 450, "velocity": 120}, {"time": 85436, "pitch": 77, "duration": 458, "velocity": 120}, {"time": 86159, "pitch": 60, "duration": 253, "velocity": 120}, {"time": 86159, "pitch": 72, "duration": 223, "velocity": 120}, {"time": 86397, "pitch": 62, "duration": 121, "velocity": 120}, {"time": 86397, "pitch": 74, "duration": 121, "velocity": 120}, {"time": 86639, "pitch": 65, "duration": 617, "velocity": 120}, {"time": 86639, "pitch": 77, "duration": 631, "velocity": 120}, {"time": 88081, "pitch": 69, "duration": 221, "velocity": 120}, {"time": 88081, "pitch": 81, "duration": 216, "velocity": 120}, {"time": 88319, "pitch": 67, "duration": 173, "velocity": 120}, {"time": 88319, "pitch": 79, "duration": 196, "velocity": 120}, {"time": 88561, "pitch": 65, "duration": 222, "velocity": 120}, {"time": 88561, "pitch": 77, "duration": 217, "velocity": 120}, {"time": 88804, "pitch": 65, "duration": 445, "velocity": 120}, {"time": 88804, "pitch": 77, "duration": 453, "velocity": 120}, {"time": 89998, "pitch": 60, "duration": 292, "velocity": 120}, {"time": 89998, "pitch": 72, "duration": 228, "velocity": 120}, {"time": 90241, "pitch": 62, "duration": 137, "velocity": 120}, {"time": 90241, "pitch": 74, "duration": 126, "velocity": 120}, {"time": 90479, "pitch": 65, "duration": 473, "velocity": 120}, {"time": 90479, "pitch": 77, "duration": 471, "velocity": 120}, {"time": 91920, "pitch": 67, "duration": 84, "velocity": 120}, {"time": 91920, "pitch": 79, "duration": 91, "velocity": 120}, {"time": 92163, "pitch": 67, "duration": 220, "velocity": 120}, {"time": 92163, "pitch": 79, "duration": 247, "velocity": 120}, {"time": 92401, "pitch": 65, "duration": 199, "velocity": 120}, {"time": 92401, "pitch": 77, "duration": 202, "velocity": 120}, {"time": 93124, "pitch": 65, "duration": 530, "velocity": 120}, {"time": 93124, "pitch": 77, "duration": 521, "velocity": 120}, {"time": 93838, "pitch": 60, "duration": 273, "velocity": 120}, {"time": 93838, "pitch": 72, "duration": 234, "velocity": 120}, {"time": 94076, "pitch": 62, "duration": 142, "velocity": 120}, {"time": 94076, "pitch": 74, "duration": 137, "velocity": 120}, {"time": 94318, "pitch": 65, "duration": 682, "velocity": 120}, {"time": 94318, "pitch": 77, "duration": 712, "velocity": 120}, {"time": 95760, "pitch": 69, "duration": 231, "velocity": 120}, {"time": 95760, "pitch": 81, "duration": 227, "velocity": 120}, {"time": 95998, "pitch": 67, "duration": 199, "velocity": 120}, {"time": 95998, "pitch": 79, "duration": 216, "velocity": 120}, {"time": 96240, "pitch": 65, "duration": 292, "velocity": 120}, {"time": 96240, "pitch": 77, "duration": 286, "velocity": 120}, {"time": 96959, "pitch": 65, "duration": 525, "velocity": 120}, {"time": 96959, "pitch": 77, "duration": 504, "velocity": 120}, {"time": 97682, "pitch": 60, "duration": 282, "velocity": 120}, {"time": 97682, "pitch": 72, "duration": 240, "velocity": 120}, {"time": 97920, "pitch": 62, "duration": 107, "velocity": 120}, {"time": 97920, "pitch": 74, "duration": 105, "velocity": 120}, {"time": 98158, "pitch": 65, "duration": 779, "velocity": 120}, {"time": 98158, "pitch": 77, "duration": 778, "velocity": 120}, {"time": 99599, "pitch": 65, "duration": 127, "velocity": 120}, {"time": 99599, "pitch": 77, "duration": 118, "velocity": 120}, {"time": 99842, "pitch": 67, "duration": 257, "velocity": 120}, {"time": 99842, "pitch": 79, "duration": 238, "velocity": 120}, {"time": 100080, "pitch": 65, "duration": 181, "velocity": 120}, {"time": 100080, "pitch": 77, "duration": 195, "velocity": 120}, {"time": 100803, "pitch": 65, "duration": 441, "velocity": 120}, {"time": 100803, "pitch": 77, "duration": 449, "velocity": 120}, {"time": 101521, "pitch": 60, "duration": 258, "velocity": 120}, {"time": 101521, "pitch": 72, "duration": 228, "velocity": 120}, {"time": 101764, "pitch": 62, "duration": 119, "velocity": 120}, {"time": 101764, "pitch": 74, "duration": 119, "velocity": 120}, {"time": 102002, "pitch": 65, "duration": 612, "velocity": 120}, {"time": 102002, "pitch": 77, "duration": 626, "velocity": 120}, {"time": 103439, "pitch": 69, "duration": 221, "velocity": 120}, {"time": 103439, "pitch": 81, "duration": 216, "velocity": 120}, {"time": 103677, "pitch": 67, "duration": 173, "velocity": 120}, {"time": 103677, "pitch": 79, "duration": 196, "velocity": 120}, {"time": 103919, "pitch": 65, "duration": 222, "velocity": 120}, {"time": 103919, "pitch": 77, "duration": 217, "velocity": 120}, {"time": 119520, "pitch": 65, "duration": 445, "velocity": 120}, {"time": 119520, "pitch": 77, "duration": 453, "velocity": 120}, {"time": 120719, "pitch": 60, "duration": 288, "velocity": 120}, {"time": 120719, "pitch": 72, "duration": 223, "velocity": 120}, {"time": 120957, "pitch": 62, "duration": 139, "velocity": 120}, {"time": 120957, "pitch": 74, "duration": 128, "velocity": 120}, {"time": 121199, "pitch": 65, "duration": 474, "velocity": 120}, {"time": 121199, "pitch": 77, "duration": 472, "velocity": 120}, {"time": 122641, "pitch": 67, "duration": 82, "velocity": 120}, {"time": 122641, "pitch": 79, "duration": 89, "velocity": 120}, {"time": 122879, "pitch": 67, "duration": 224, "velocity": 120}, {"time": 122879, "pitch": 79, "duration": 251, "velocity": 120}, {"time": 123121, "pitch": 65, "duration": 203, "velocity": 120}, {"time": 123121, "pitch": 77, "duration": 206, "velocity": 120}, {"time": 123840, "pitch": 65, "duration": 532, "velocity": 120}, {"time": 123840, "pitch": 77, "duration": 521, "velocity": 120}, {"time": 124558, "pitch": 60, "duration": 278, "velocity": 120}, {"time": 124558, "pitch": 72, "duration": 239, "velocity": 120}, {"time": 124801, "pitch": 62, "duration": 140, "velocity": 120}, {"time": 124801, "pitch": 74, "duration": 135, "velocity": 120}, {"time": 125039, "pitch": 65, "duration": 685, "velocity": 120}, {"time": 125039, "pitch": 77, "duration": 716, "velocity": 120}, {"time": 126480, "pitch": 69, "duration": 236, "velocity": 120}, {"time": 126480, "pitch": 81, "duration": 232, "velocity": 120}, {"time": 126723, "pitch": 67, "duration": 195, "velocity": 120}, {"time": 126723, "pitch": 79, "duration": 212, "velocity": 120}, {"time": 126961, "pitch": 65, "duration": 288, "velocity": 120}, {"time": 126961, "pitch": 77, "duration": 282, "velocity": 120}, {"time": 127684, "pitch": 65, "duration": 517, "velocity": 120}, {"time": 127684, "pitch": 77, "duration": 495, "velocity": 120}, {"time": 128398, "pitch": 60, "duration": 282, "velocity": 120}, {"time": 128398, "pitch": 72, "duration": 240, "velocity": 120}, {"time": 128636, "pitch": 62, "duration": 109, "velocity": 120}, {"time": 128636, "pitch": 74, "duration": 107, "velocity": 120}, {"time": 128878, "pitch": 65, "duration": 777, "velocity": 120}, {"time": 128878, "pitch": 77, "duration": 776, "velocity": 120}, {"time": 130320, "pitch": 65, "duration": 124, "velocity": 120}, {"time": 130320, "pitch": 77, "duration": 115, "velocity": 120}, {"time": 130558, "pitch": 67, "duration": 262, "velocity": 120}, {"time": 130558, "pitch": 79, "duration": 242, "velocity": 120}, {"time": 130800, "pitch": 65, "duration": 185, "velocity": 120}, {"time": 130800, "pitch": 77, "duration": 199, "velocity": 120}, {"time": 131519, "pitch": 65, "duration": 449, "velocity": 120}, {"time": 131519, "pitch": 77, "duration": 457, "velocity": 120}, {"time": 132242, "pitch": 60, "duration": 253, "velocity": 120}, {"time": 132242, "pitch": 72, "duration": 223, "velocity": 120}, {"time": 132480, "pitch": 62, "duration": 119, "velocity": 120}, {"time": 132480, "pitch": 74, "duration": 119, "velocity": 120}, {"time": 132718, "pitch": 65, "duration": 619, "velocity": 120}, {"time": 132718, "pitch": 77, "duration": 633, "velocity": 120}, {"time": 134159, "pitch": 69, "duration": 226, "velocity": 120}, {"time": 134159, "pitch": 81, "duration": 221, "velocity": 120}, {"time": 134402, "pitch": 67, "duration": 169, "velocity": 120}, {"time": 134402, "pitch": 79, "duration": 192, "velocity": 120}, {"time": 134640, "pitch": 65, "duration": 217, "velocity": 120}, {"time": 134640, "pitch": 77, "duration": 212, "velocity": 120}, {"time": 134878, "pitch": 65, "duration": 453, "velocity": 120}, {"time": 134878, "pitch": 77, "duration": 462, "velocity": 120}, {"time": 136081, "pitch": 60, "duration": 292, "velocity": 120}, {"time": 136081, "pitch": 72, "duration": 228, "velocity": 120}, {"time": 136324, "pitch": 62, "duration": 137, "velocity": 120}, {"time": 136324, "pitch": 74, "duration": 126, "velocity": 120}, {"time": 136562, "pitch": 65, "duration": 469, "velocity": 120}, {"time": 136562, "pitch": 77, "duration": 467, "velocity": 120}, {"time": 137999, "pitch": 67, "duration": 82, "velocity": 120}, {"time": 137999, "pitch": 79, "duration": 89, "velocity": 120}, {"time": 138237, "pitch": 67, "duration": 224, "velocity": 120}, {"time": 138237, "pitch": 79, "duration": 251, "velocity": 120}, {"time": 138479, "pitch": 65, "duration": 203, "velocity": 120}, {"time": 138479, "pitch": 77, "duration": 206, "velocity": 120}, {"time": 139198, "pitch": 65, "duration": 539, "velocity": 120}, {"time": 139198, "pitch": 77, "duration": 529, "velocity": 120}, {"time": 139921, "pitch": 60, "duration": 273, "velocity": 120}, {"time": 139921, "pitch": 72, "duration": 234, "velocity": 120}, {"time": 140159, "pitch": 62, "duration": 142, "velocity": 120}, {"time": 140159, "pitch": 74, "duration": 137, "velocity": 120}, {"time": 140401, "pitch": 65, "duration": 682, "velocity": 120}, {"time": 140401, "pitch": 77, "duration": 712, "velocity": 120}, {"time": 141838, "pitch": 69, "duration": 236, "velocity": 120}, {"time": 141838, "pitch": 81, "duration": 232, "velocity": 120}, {"time": 142081, "pitch": 67, "duration": 195, "velocity": 120}, {"time": 142081, "pitch": 79, "duration": 212, "velocity": 120}, {"time": 142319, "pitch": 65, "duration": 288, "velocity": 120}, {"time": 142319, "pitch": 77, "duration": 282, "velocity": 120}, {"time": 143042, "pitch": 65, "duration": 517, "velocity": 120}, {"time": 143042, "pitch": 77, "duration": 495, "velocity": 120}, {"time": 143760, "pitch": 60, "duration": 286, "velocity": 120}, {"time": 143760, "pitch": 72, "duration": 245, "velocity": 120}, {"time": 144003, "pitch": 62, "duration": 107, "velocity": 120}, {"time": 144003, "pitch": 74, "duration": 105, "velocity": 120}, {"time": 144241, "pitch": 65, "duration": 779, "velocity": 120}, {"time": 144241, "pitch": 77, "duration": 778, "velocity": 120}, {"time": 145678, "pitch": 65, "duration": 124, "velocity": 120}, {"time": 145678, "pitch": 77, "duration": 115, "velocity": 120}, {"time": 145916, "pitch": 67, "duration": 262, "velocity": 120}, {"time": 145916, "pitch": 79, "duration": 242, "velocity": 120}, {"time": 146158, "pitch": 65, "duration": 185, "velocity": 120}, {"time": 146158, "pitch": 77, "duration": 199, "velocity": 120}, {"time": 146877, "pitch": 65, "duration": 449, "velocity": 120}, {"time": 146877, "pitch": 77, "duration": 458, "velocity": 120}, {"time": 147600, "pitch": 60, "duration": 253, "velocity": 120}, {"time": 147600, "pitch": 72, "duration": 223, "velocity": 120}, {"time": 147838, "pitch": 62, "duration": 121, "velocity": 120}, {"time": 147838, "pitch": 74, "duration": 121, "velocity": 120}, {"time": 148080, "pitch": 65, "duration": 617, "velocity": 120}, {"time": 148080, "pitch": 77, "duration": 631, "velocity": 120}, {"time": 149522, "pitch": 69, "duration": 221, "velocity": 120}, {"time": 149522, "pitch": 81, "duration": 216, "velocity": 120}, {"time": 149760, "pitch": 67, "duration": 169, "velocity": 120}, {"time": 149760, "pitch": 79, "duration": 192, "velocity": 120}, {"time": 149998, "pitch": 65, "duration": 217, "velocity": 120}, {"time": 149998, "pitch": 77, "duration": 212, "velocity": 120}, {"time": 150236, "pitch": 65, "duration": 454, "velocity": 120}, {"time": 150236, "pitch": 77, "duration": 462, "velocity": 120}, {"time": 151439, "pitch": 60, "duration": 292, "velocity": 120}, {"time": 151439, "pitch": 72, "duration": 228, "velocity": 120}, {"time": 151682, "pitch": 62, "duration": 137, "velocity": 120}, {"time": 151682, "pitch": 74, "duration": 126, "velocity": 120}, {"time": 151920, "pitch": 65, "duration": 473, "velocity": 120}, {"time": 151920, "pitch": 77, "duration": 471, "velocity": 120}, {"time": 153361, "pitch": 67, "duration": 84, "velocity": 120}, {"time": 153361, "pitch": 79, "duration": 91, "velocity": 120}, {"time": 153604, "pitch": 67, "duration": 220, "velocity": 120}, {"time": 153604, "pitch": 79, "duration": 247, "velocity": 120}, {"time": 153842, "pitch": 65, "duration": 199, "velocity": 120}, {"time": 153842, "pitch": 77, "duration": 202, "velocity": 120}, {"time": 154556, "pitch": 65, "duration": 539, "velocity": 120}, {"time": 154556, "pitch": 77, "duration": 529, "velocity": 120}, {"time": 155279, "pitch": 60, "duration": 273, "velocity": 120}, {"time": 155279, "pitch": 72, "duration": 234, "velocity": 120}, {"time": 155517, "pitch": 62, "duration": 142, "velocity": 120}, {"time": 155517, "pitch": 74, "duration": 137, "velocity": 120}, {"time": 155759, "pitch": 65, "duration": 682, "velocity": 120}, {"time": 155759, "pitch": 77, "duration": 712, "velocity": 120}, {"time": 157201, "pitch": 69, "duration": 231, "velocity": 120}, {"time": 157201, "pitch": 81, "duration": 227, "velocity": 120}, {"time": 157439, "pitch": 67, "duration": 199, "velocity": 120}, {"time": 157439, "pitch": 79, "duration": 216, "velocity": 120}, {"time": 157681, "pitch": 65, "duration": 292, "velocity": 120}, {"time": 157681, "pitch": 77, "duration": 286, "velocity": 120}, {"time": 158400, "pitch": 65, "duration": 517, "velocity": 120}, {"time": 158400, "pitch": 77, "duration": 495, "velocity": 120}, {"time": 159118, "pitch": 60, "duration": 286, "velocity": 120}, {"time": 159118, "pitch": 72, "duration": 245, "velocity": 120}, {"time": 159361, "pitch": 62, "duration": 107, "velocity": 120}, {"time": 159361, "pitch": 74, "duration": 105, "velocity": 120}, {"time": 159599, "pitch": 65, "duration": 779, "velocity": 120}, {"time": 159599, "pitch": 77, "duration": 778, "velocity": 120}, {"time": 161036, "pitch": 65, "duration": 124, "velocity": 120}, {"time": 161036, "pitch": 77, "duration": 115, "velocity": 120}, {"time": 161274, "pitch": 67, "duration": 257, "velocity": 120}, {"time": 161274, "pitch": 79, "duration": 238, "velocity": 120}, {"time": 161512, "pitch": 65, "duration": 182, "velocity": 120}, {"time": 161512, "pitch": 77, "duration": 196, "velocity": 120}, {"time": 162227, "pitch": 65, "duration": 441, "velocity": 120}, {"time": 162227, "pitch": 77, "duration": 449, "velocity": 120}, {"time": 162941, "pitch": 60, "duration": 253, "velocity": 120}, {"time": 162941, "pitch": 72, "duration": 223, "velocity": 120}, {"time": 163179, "pitch": 62, "duration": 119, "velocity": 120}, {"time": 163179, "pitch": 74, "duration": 119, "velocity": 120}, {"time": 163417, "pitch": 65, "duration": 612, "velocity": 120}, {"time": 163417, "pitch": 77, "duration": 626, "velocity": 120}, {"time": 164846, "pitch": 69, "duration": 221, "velocity": 120}, {"time": 164846, "pitch": 81, "duration": 216, "velocity": 120}, {"time": 165084, "pitch": 67, "duration": 169, "velocity": 120}, {"time": 165084, "pitch": 79, "duration": 192, "velocity": 120}, {"time": 165322, "pitch": 65, "duration": 217, "velocity": 120}, {"time": 165322, "pitch": 77, "duration": 212, "velocity": 120}], "annotations": [{"time": 284, "annotation": {"number": 7, "value": 110}, "group": "control_change"}, {"time": 306, "annotation": {"number": 11, "value": 110}, "group": "control_change"}, {"time": 328, "annotation": {"number": 10, "value": 64}, "group": "control_change"}, {"time": 350, "annotation": {"number": 91, "value": 20}, "group": "control_change"}, {"time": 372, "annotation": {"number": 93, "value": 40}, "group": "control_change"}, {"time": 394, "annotation": {"number": 101, "value": 0}, "group": "control_change"}, {"time": 415, "annotation": {"number": 100, "value": 0}, "group": "control_change"}, {"time": 437, "annotation": {"number": 6, "value": 12}, "group": "control_change"}, {"time": 459, "annotation": {"number": 101, "value": 127}, "group": "control_change"}, {"time": 482, "annotation": {"number": 100, "value": 127}, "group": "control_change"}, {"time": 152158, "annotation": {"number": 11, "value": 110}, "group": "control_change"}, {"time": 152279, "annotation": {"number": 11, "value": 109}, "group": "control_change"}, {"time": 152400, "annotation": {"number": 11, "value": 108}, "group": "control_change"}, {"time": 152522, "annotation": {"number": 11, "value": 107}, "group": "control_change"}, {"time": 152643, "annotation": {"number": 11, "value": 106}, "group": "control_change"}, {"time": 152762, "annotation": {"number": 11, "value": 105}, "group": "control_change"}, {"time": 152881, "annotation": {"number": 11, "value": 104}, "group": "control_change"}, {"time": 153000, "annotation": {"number": 11, "value": 103}, "group": "control_change"}, {"time": 153119, "annotation": {"number": 11, "value": 102}, "group": "control_change"}, {"time": 153240, "annotation": {"number": 11, "value": 101}, "group": "control_change"}, {"time": 153361, "annotation": {"number": 11, "value": 100}, "group": "control_change"}, {"time": 153483, "annotation": {"number": 11, "value": 99}, "group": "control_change"}, {"time": 153604, "annotation": {"number": 11, "value": 98}, "group": "control_change"}, {"time": 153723, "annotation": {"number": 11, "value": 97}, "group": "control_change"}, {"time": 153842, "annotation": {"number": 11, "value": 96}, "group": "control_change"}, {"time": 153961, "annotation": {"number": 11, "value": 95}, "group": "control_change"}, {"time": 154080, "annotation": {"number": 11, "value": 94}, "group": "control_change"}, {"time": 154199, "annotation": {"number": 11, "value": 93}, "group": "control_change"}, {"time": 154318, "annotation": {"number": 11, "value": 92}, "group": "control_change"}, {"time": 154437, "annotation": {"number": 11, "value": 91}, "group": "control_change"}, {"time": 154556, "annotation": {"number": 11, "value": 90}, "group": "control_change"}, {"time": 154677, "annotation": {"number": 11, "value": 89}, "group": "control_change"}, {"time": 154798, "annotation": {"number": 11, "value": 88}, "group": "control_change"}, {"time": 154920, "annotation": {"number": 11, "value": 87}, "group": "control_change"}, {"time": 155041, "annotation": {"number": 11, "value": 86}, "group": "control_change"}, {"time": 155160, "annotation": {"number": 11, "value": 85}, "group": "control_change"}, {"time": 155279, "annotation": {"number": 11, "value": 84}, "group": "control_change"}, {"time": 155398, "annotation": {"number": 11, "value": 83}, "group": "control_change"}, {"time": 155517, "annotation": {"number": 11, "value": 82}, "group": "control_change"}, {"time": 155638, "annotation": {"number": 11, "value": 81}, "group": "control_change"}, {"time": 155759, "annotation": {"number": 11, "value": 80}, "group": "control_change"}, {"time": 155881, "annotation": {"number": 11, "value": 79}, "group": "control_change"}, {"time": 156002, "annotation": {"number": 11, "value": 78}, "group": "control_change"}, {"time": 156121, "annotation": {"number": 11, "value": 77}, "group": "control_change"}, {"time": 156240, "annotation": {"number": 11, "value": 76}, "group": "control_change"}, {"time": 156359, "annotation": {"number": 11, "value": 75}, "group": "control_change"}, {"time": 156478, "annotation": {"number": 11, "value": 74}, "group": "control_change"}, {"time": 156599, "annotation": {"number": 11, "value": 73}, "group": "control_change"}, {"time": 156720, "annotation": {"number": 11, "value": 72}, "group": "control_change"}, {"time": 156842, "annotation": {"number": 11, "value": 71}, "group": "control_change"}, {"time": 156963, "annotation": {"number": 11, "value": 70}, "group": "control_change"}, {"time": 157082, "annotation": {"number": 11, "value": 69}, "group": "control_change"}, {"time": 157201, "annotation": {"number": 11, "value": 68}, "group": "control_change"}, {"time": 157320, "annotation": {"number": 11, "value": 67}, "group": "control_change"}, {"time": 157439, "annotation": {"number": 11, "value": 66}, "group": "control_change"}, {"time": 157560, "annotation": {"number": 11, "value": 65}, "group": "control_change"}, {"time": 157681, "annotation": {"number": 11, "value": 64}, "group": "control_change"}, {"time": 157803, "annotation": {"number": 11, "value": 63}, "group": "control_change"}, {"time": 157924, "annotation": {"number": 11, "value": 62}, "group": "control_change"}, {"time": 158043, "annotation": {"number": 11, "value": 61}, "group": "control_change"}, {"time": 158162, "annotation": {"number": 11, "value": 60}, "group": "control_change"}, {"time": 158281, "annotation": {"number": 11, "value": 59}, "group": "control_change"}, {"time": 158400, "annotation": {"number": 11, "value": 58}, "group": "control_change"}, {"time": 158519, "annotation": {"number": 11, "value": 57}, "group": "control_change"}, {"time": 158638, "annotation": {"number": 11, "value": 56}, "group": "control_change"}, {"time": 158757, "annotation": {"number": 11, "value": 55}, "group": "control_change"}, {"time": 158999, "annotation": {"number": 11, "value": 54}, "group": "control_change"}, {"time": 159120, "annotation": {"number": 11, "value": 53}, "group": "control_change"}, {"time": 159242, "annotation": {"number": 11, "value": 52}, "group": "control_change"}, {"time": 159363, "annotation": {"number": 11, "value": 51}, "group": "control_change"}, {"time": 159482, "annotation": {"number": 11, "value": 50}, "group": "control_change"}, {"time": 159601, "annotation": {"number": 11, "value": 49}, "group": "control_change"}, {"time": 159720, "annotation": {"number": 11, "value": 48}, "group": "control_change"}, {"time": 159839, "annotation": {"number": 11, "value": 47}, "group": "control_change"}, {"time": 159960, "annotation": {"number": 11, "value": 46}, "group": "control_change"}, {"time": 160081, "annotation": {"number": 11, "value": 45}, "group": "control_change"}, {"time": 160203, "annotation": {"number": 11, "value": 44}, "group": "control_change"}, {"time": 160324, "annotation": {"number": 11, "value": 43}, "group": "control_change"}, {"time": 160443, "annotation": {"number": 11, "value": 42}, "group": "control_change"}, {"time": 160562, "annotation": {"number": 11, "value": 41}, "group": "control_change"}, {"time": 160681, "annotation": {"number": 11, "value": 40}, "group": "control_change"}, {"time": 160800, "annotation": {"number": 11, "value": 39}, "group": "control_change"}, {"time": 160919, "annotation": {"number": 11, "value": 38}, "group": "control_change"}, {"time": 161038, "annotation": {"number": 11, "value": 37}, "group": "control_change"}, {"time": 161157, "annotation": {"number": 11, "value": 36}, "group": "control_change"}, {"time": 161276, "annotation": {"number": 11, "value": 35}, "group": "control_change"}, {"time": 161395, "annotation": {"number": 11, "value": 34}, "group": "control_change"}, {"time": 161514, "annotation": {"number": 11, "value": 33}, "group": "control_change"}, {"time": 161633, "annotation": {"number": 11, "value": 32}, "group": "control_change"}, {"time": 161752, "annotation": {"number": 11, "value": 31}, "group": "control_change"}, {"time": 161871, "annotation": {"number": 11, "value": 30}, "group": "control_change"}, {"time": 161990, "annotation": {"number": 11, "value": 29}, "group": "control_change"}, {"time": 162109, "annotation": {"number": 11, "value": 28}, "group": "control_change"}, {"time": 162228, "annotation": {"number": 11, "value": 27}, "group": "control_change"}, {"time": 162348, "annotation": {"number": 11, "value": 26}, "group": "control_change"}, {"time": 162467, "annotation": {"number": 11, "value": 25}, "group": "control_change"}, {"time": 162586, "annotation": {"number": 11, "value": 24}, "group": "control_change"}, {"time": 162705, "annotation": {"number": 11, "value": 23}, "group": "control_change"}, {"time": 162824, "annotation": {"number": 11, "value": 22}, "group": "control_change"}, {"time": 162943, "annotation": {"number": 11, "value": 21}, "group": "control_change"}, {"time": 163062, "annotation": {"number": 11, "value": 20}, "group": "control_change"}, {"time": 163181, "annotation": {"number": 11, "value": 19}, "group": "control_change"}, {"time": 163300, "annotation": {"number": 11, "value": 18}, "group": "control_change"}, {"time": 163419, "annotation": {"number": 11, "value": 17}, "group": "control_change"}, {"time": 163538, "annotation": {"number": 11, "value": 16}, "group": "control_change"}, {"time": 163657, "annotation": {"number": 11, "value": 15}, "group": "control_change"}, {"time": 163776, "annotation": {"number": 11, "value": 14}, "group": "control_change"}, {"time": 163895, "annotation": {"number": 11, "value": 13}, "group": "control_change"}, {"time": 164014, "annotation": {"number": 11, "value": 12}, "group": "control_change"}, {"time": 164133, "annotation": {"number": 11, "value": 11}, "group": "control_change"}, {"time": 164252, "annotation": {"number": 11, "value": 10}, "group": "control_change"}, {"time": 164371, "annotation": {"number": 11, "value": 9}, "group": "control_change"}, {"time": 164490, "annotation": {"number": 11, "value": 8}, "group": "control_change"}, {"time": 164609, "annotation": {"number": 11, "value": 7}, "group": "control_change"}, {"time": 164728, "annotation": {"number": 11, "value": 6}, "group": "control_change"}, {"time": 164848, "annotation": {"number": 11, "value": 5}, "group": "control_change"}, {"time": 164967, "annotation": {"number": 11, "value": 4}, "group": "control_change"}, {"time": 165086, "annotation": {"number": 11, "value": 3}, "group": "control_change"}, {"time": 165205, "annotation": {"number": 11, "value": 2}, "group": "control_change"}, {"time": 165324, "annotation": {"number": 11, "value": 1}, "group": "control_change"}, {"time": 165443, "annotation": {"number": 11, "value": 0}, "group": "control_change"}, {"time": 165560, "annotation": {"number": 11, "value": 0}, "group": "control_change"}]}, {"program": 0, "is_drum": false, "name": "MELODY ", "annotations": [{"time": 219, "annotation": {"number": 0, "value": 0}, "group": "control_change"}, {"time": 241, "annotation": {"number": 32, "value": 0}, "group": "control_change"}]}, {"program": 73, "is_drum": false, "name": "MELODY ", "notes": [{"time": 27482, "pitch": 77, "duration": 79, "velocity": 120}, {"time": 27601, "pitch": 77, "duration": 79, "velocity": 120}, {"time": 27720, "pitch": 77, "duration": 79, "velocity": 120}, {"time": 27839, "pitch": 77, "duration": 81, "velocity": 120}, {"time": 27960, "pitch": 77, "duration": 81, "velocity": 120}, {"time": 28081, "pitch": 77, "duration": 81, "velocity": 120}, {"time": 28203, "pitch": 77, "duration": 80, "velocity": 120}, {"time": 28324, "pitch": 77, "duration": 79, "velocity": 120}, {"time": 28443, "pitch": 77, "duration": 79, "velocity": 120}, {"time": 28562, "pitch": 77, "duration": 79, "velocity": 120}, {"time": 28681, "pitch": 77, "duration": 79, "velocity": 120}, {"time": 28800, "pitch": 77, "duration": 79, "velocity": 120}, {"time": 28919, "pitch": 77, "duration": 79, "velocity": 120}, {"time": 29038, "pitch": 77, "duration": 79, "velocity": 120}, {"time": 29157, "pitch": 77, "duration": 79, "velocity": 120}, {"time": 29397, "pitch": 77, "duration": 81, "velocity": 120}, {"time": 29519, "pitch": 77, "duration": 80, "velocity": 120}, {"time": 29640, "pitch": 77, "duration": 81, "velocity": 120}, {"time": 29761, "pitch": 77, "duration": 79, "velocity": 120}, {"time": 29880, "pitch": 77, "duration": 79, "velocity": 120}, {"time": 29999, "pitch": 77, "duration": 159, "velocity": 120}, {"time": 30237, "pitch": 84, "duration": 81, "velocity": 120}, {"time": 30358, "pitch": 84, "duration": 162, "velocity": 120}, {"time": 30601, "pitch": 84, "duration": 81, "velocity": 120}, {"time": 30722, "pitch": 79, "duration": 79, "velocity": 120}, {"time": 30841, "pitch": 76, "duration": 79, "velocity": 120}, {"time": 30960, "pitch": 77, "duration": 79, "velocity": 120}, {"time": 31319, "pitch": 77, "duration": 162, "velocity": 120}, {"time": 31562, "pitch": 77, "duration": 161, "velocity": 120}, {"time": 31802, "pitch": 77, "duration": 79, "velocity": 120}, {"time": 31921, "pitch": 77, "duration": 79, "velocity": 120}, {"time": 32040, "pitch": 77, "duration": 79, "velocity": 120}, {"time": 32159, "pitch": 77, "duration": 162, "velocity": 120}, {"time": 32401, "pitch": 77, "duration": 81, "velocity": 120}, {"time": 32523, "pitch": 77, "duration": 80, "velocity": 120}, {"time": 32644, "pitch": 77, "duration": 79, "velocity": 120}, {"time": 32763, "pitch": 77, "duration": 79, "velocity": 120}, {"time": 32882, "pitch": 77, "duration": 79, "velocity": 120}, {"time": 33239, "pitch": 72, "duration": 79, "velocity": 120}, {"time": 33358, "pitch": 72, "duration": 79, "velocity": 120}, {"time": 33477, "pitch": 72, "duration": 79, "velocity": 120}, {"time": 33596, "pitch": 84, "duration": 81, "velocity": 120}, {"time": 33717, "pitch": 84, "duration": 81, "velocity": 120}, {"time": 33839, "pitch": 84, "duration": 80, "velocity": 120}, {"time": 33960, "pitch": 84, "duration": 81, "velocity": 120}, {"time": 34081, "pitch": 84, "duration": 79, "velocity": 120}, {"time": 34200, "pitch": 84, "duration": 79, "velocity": 120}, {"time": 34319, "pitch": 84, "duration": 79, "velocity": 120}, {"time": 34438, "pitch": 84, "duration": 79, "velocity": 120}, {"time": 34557, "pitch": 84, "duration": 81, "velocity": 120}, {"time": 34678, "pitch": 79, "duration": 81, "velocity": 120}, {"time": 34799, "pitch": 76, "duration": 81, "velocity": 120}, {"time": 34921, "pitch": 77, "duration": 80, "velocity": 120}, {"time": 35161, "pitch": 77, "duration": 79, "velocity": 120}, {"time": 35280, "pitch": 77, "duration": 79, "velocity": 120}, {"time": 35399, "pitch": 77, "duration": 79, "velocity": 120}, {"time": 35518, "pitch": 77, "duration": 81, "velocity": 120}, {"time": 35639, "pitch": 77, "duration": 81, "velocity": 120}, {"time": 35760, "pitch": 77, "duration": 81, "velocity": 120}, {"time": 35882, "pitch": 77, "duration": 80, "velocity": 120}, {"time": 36003, "pitch": 77, "duration": 79, "velocity": 120}, {"time": 36241, "pitch": 77, "duration": 79, "velocity": 120}, {"time": 36360, "pitch": 77, "duration": 79, "velocity": 120}, {"time": 36479, "pitch": 77, "duration": 81, "velocity": 120}, {"time": 36721, "pitch": 77, "duration": 81, "velocity": 120}, {"time": 37083, "pitch": 77, "duration": 79, "velocity": 120}, {"time": 37202, "pitch": 77, "duration": 79, "velocity": 120}, {"time": 37321, "pitch": 77, "duration": 79, "velocity": 120}, {"time": 37440, "pitch": 77, "duration": 79, "velocity": 120}, {"time": 37559, "pitch": 77, "duration": 79, "velocity": 120}, {"time": 37678, "pitch": 77, "duration": 79, "velocity": 120}, {"time": 37797, "pitch": 77, "duration": 79, "velocity": 120}, {"time": 37916, "pitch": 84, "duration": 162, "velocity": 120}, {"time": 38159, "pitch": 84, "duration": 80, "velocity": 120}, {"time": 38280, "pitch": 84, "duration": 81, "velocity": 120}, {"time": 38401, "pitch": 79, "duration": 79, "velocity": 120}, {"time": 38520, "pitch": 76, "duration": 79, "velocity": 120}, {"time": 38639, "pitch": 77, "duration": 79, "velocity": 120}, {"time": 38998, "pitch": 77, "duration": 81, "velocity": 120}, {"time": 39119, "pitch": 77, "duration": 81, "velocity": 120}, {"time": 39241, "pitch": 77, "duration": 80, "velocity": 120}, {"time": 39362, "pitch": 77, "duration": 79, "velocity": 120}, {"time": 39481, "pitch": 77, "duration": 79, "velocity": 120}, {"time": 39600, "pitch": 77, "duration": 79, "velocity": 120}, {"time": 39719, "pitch": 77, "duration": 79, "velocity": 120}, {"time": 39838, "pitch": 77, "duration": 81, "velocity": 120}, {"time": 39959, "pitch": 77, "duration": 81, "velocity": 120}, {"time": 40080, "pitch": 77, "duration": 81, "velocity": 120}, {"time": 40202, "pitch": 77, "duration": 80, "velocity": 120}, {"time": 40323, "pitch": 77, "duration": 79, "velocity": 120}, {"time": 40442, "pitch": 77, "duration": 79, "velocity": 120}, {"time": 40561, "pitch": 77, "duration": 79, "velocity": 120}, {"time": 40920, "pitch": 72, "duration": 81, "velocity": 120}, {"time": 41041, "pitch": 72, "duration": 81, "velocity": 120}, {"time": 41163, "pitch": 72, "duration": 80, "velocity": 120}, {"time": 41284, "pitch": 84, "duration": 79, "velocity": 120}, {"time": 41522, "pitch": 84, "duration": 79, "velocity": 120}, {"time": 41641, "pitch": 84, "duration": 79, "velocity": 120}, {"time": 41760, "pitch": 84, "duration": 79, "velocity": 120}, {"time": 41879, "pitch": 84, "duration": 79, "velocity": 120}, {"time": 41998, "pitch": 84, "duration": 79, "velocity": 120}, {"time": 42117, "pitch": 84, "duration": 79, "velocity": 120}, {"time": 42236, "pitch": 79, "duration": 81, "velocity": 120}, {"time": 42357, "pitch": 76, "duration": 81, "velocity": 120}, {"time": 42479, "pitch": 77, "duration": 80, "velocity": 120}, {"time": 42840, "pitch": 77, "duration": 79, "velocity": 120}, {"time": 42959, "pitch": 77, "duration": 79, "velocity": 120}, {"time": 43078, "pitch": 77, "duration": 79, "velocity": 120}, {"time": 43197, "pitch": 77, "duration": 81, "velocity": 120}, {"time": 43318, "pitch": 77, "duration": 81, "velocity": 120}, {"time": 43439, "pitch": 77, "duration": 81, "velocity": 120}, {"time": 43561, "pitch": 77, "duration": 80, "velocity": 120}, {"time": 43682, "pitch": 77, "duration": 79, "velocity": 120}, {"time": 43801, "pitch": 77, "duration": 79, "velocity": 120}, {"time": 43920, "pitch": 77, "duration": 79, "velocity": 120}, {"time": 44039, "pitch": 77, "duration": 79, "velocity": 120}, {"time": 44158, "pitch": 77, "duration": 81, "velocity": 120}, {"time": 44279, "pitch": 77, "duration": 81, "velocity": 120}, {"time": 44400, "pitch": 77, "duration": 81, "velocity": 120}, {"time": 44762, "pitch": 77, "duration": 79, "velocity": 120}, {"time": 45000, "pitch": 77, "duration": 79, "velocity": 120}, {"time": 45119, "pitch": 77, "duration": 81, "velocity": 120}, {"time": 45240, "pitch": 77, "duration": 81, "velocity": 120}, {"time": 45361, "pitch": 77, "duration": 81, "velocity": 120}, {"time": 45483, "pitch": 77, "duration": 80, "velocity": 120}, {"time": 45604, "pitch": 84, "duration": 79, "velocity": 120}, {"time": 45723, "pitch": 84, "duration": 79, "velocity": 120}, {"time": 45842, "pitch": 84, "duration": 79, "velocity": 120}, {"time": 45961, "pitch": 84, "duration": 79, "velocity": 120}, {"time": 46080, "pitch": 84, "duration": 79, "velocity": 120}, {"time": 46199, "pitch": 79, "duration": 79, "velocity": 120}, {"time": 46318, "pitch": 76, "duration": 79, "velocity": 120}, {"time": 46437, "pitch": 77, "duration": 79, "velocity": 120}, {"time": 46677, "pitch": 77, "duration": 81, "velocity": 120}, {"time": 46920, "pitch": 77, "duration": 81, "velocity": 120}, {"time": 47041, "pitch": 77, "duration": 79, "velocity": 120}, {"time": 47160, "pitch": 77, "duration": 79, "velocity": 120}, {"time": 47279, "pitch": 77, "duration": 79, "velocity": 120}, {"time": 47398, "pitch": 77, "duration": 79, "velocity": 120}, {"time": 47517, "pitch": 77, "duration": 81, "velocity": 120}, {"time": 47638, "pitch": 77, "duration": 81, "velocity": 120}, {"time": 47759, "pitch": 77, "duration": 81, "velocity": 120}, {"time": 47881, "pitch": 77, "duration": 80, "velocity": 120}, {"time": 48002, "pitch": 77, "duration": 79, "velocity": 120}, {"time": 48121, "pitch": 77, "duration": 79, "velocity": 120}, {"time": 48240, "pitch": 77, "duration": 79, "velocity": 120}, {"time": 48599, "pitch": 72, "duration": 81, "velocity": 120}, {"time": 48720, "pitch": 72, "duration": 81, "velocity": 120}, {"time": 48842, "pitch": 72, "duration": 80, "velocity": 120}, {"time": 48963, "pitch": 84, "duration": 79, "velocity": 120}, {"time": 49082, "pitch": 84, "duration": 79, "velocity": 120}, {"time": 49201, "pitch": 84, "duration": 79, "velocity": 120}, {"time": 49320, "pitch": 84, "duration": 79, "velocity": 120}, {"time": 49439, "pitch": 84, "duration": 81, "velocity": 120}, {"time": 49560, "pitch": 84, "duration": 81, "velocity": 120}, {"time": 49681, "pitch": 84, "duration": 81, "velocity": 120}, {"time": 49803, "pitch": 84, "duration": 80, "velocity": 120}, {"time": 49924, "pitch": 79, "duration": 79, "velocity": 120}, {"time": 50043, "pitch": 76, "duration": 79, "velocity": 120}, {"time": 50162, "pitch": 77, "duration": 79, "velocity": 120}, {"time": 50519, "pitch": 77, "duration": 79, "velocity": 120}, {"time": 50638, "pitch": 77, "duration": 79, "velocity": 120}, {"time": 50757, "pitch": 77, "duration": 79, "velocity": 120}, {"time": 50876, "pitch": 77, "duration": 81, "velocity": 120}, {"time": 50997, "pitch": 77, "duration": 81, "velocity": 120}, {"time": 51118, "pitch": 77, "duration": 81, "velocity": 120}, {"time": 51240, "pitch": 77, "duration": 81, "velocity": 120}, {"time": 51361, "pitch": 77, "duration": 79, "velocity": 120}, {"time": 51480, "pitch": 77, "duration": 79, "velocity": 120}, {"time": 51599, "pitch": 77, "duration": 79, "velocity": 120}, {"time": 51718, "pitch": 77, "duration": 79, "velocity": 120}, {"time": 51837, "pitch": 77, "duration": 81, "velocity": 120}, {"time": 51958, "pitch": 77, "duration": 81, "velocity": 120}, {"time": 52079, "pitch": 77, "duration": 81, "velocity": 120}, {"time": 52441, "pitch": 77, "duration": 79, "velocity": 120}, {"time": 52560, "pitch": 77, "duration": 79, "velocity": 120}, {"time": 52679, "pitch": 77, "duration": 79, "velocity": 120}, {"time": 52798, "pitch": 77, "duration": 81, "velocity": 120}, {"time": 52919, "pitch": 77, "duration": 81, "velocity": 120}, {"time": 53040, "pitch": 77, "duration": 81, "velocity": 120}, {"time": 53162, "pitch": 77, "duration": 80, "velocity": 120}, {"time": 53283, "pitch": 84, "duration": 79, "velocity": 120}, {"time": 53402, "pitch": 84, "duration": 79, "velocity": 120}, {"time": 53521, "pitch": 84, "duration": 79, "velocity": 120}, {"time": 53640, "pitch": 84, "duration": 79, "velocity": 120}, {"time": 53759, "pitch": 84, "duration": 81, "velocity": 120}, {"time": 53880, "pitch": 79, "duration": 81, "velocity": 120}, {"time": 54001, "pitch": 76, "duration": 81, "velocity": 120}, {"time": 54123, "pitch": 77, "duration": 80, "velocity": 120}, {"time": 54363, "pitch": 77, "duration": 79, "velocity": 120}, {"time": 54601, "pitch": 77, "duration": 79, "velocity": 120}, {"time": 54720, "pitch": 77, "duration": 79, "velocity": 120}, {"time": 54839, "pitch": 77, "duration": 79, "velocity": 120}, {"time": 54958, "pitch": 77, "duration": 79, "velocity": 120}, {"time": 55077, "pitch": 77, "duration": 79, "velocity": 120}, {"time": 55196, "pitch": 77, "duration": 81, "velocity": 120}, {"time": 55317, "pitch": 77, "duration": 81, "velocity": 120}, {"time": 55438, "pitch": 77, "duration": 81, "velocity": 120}, {"time": 55560, "pitch": 77, "duration": 81, "velocity": 120}, {"time": 55681, "pitch": 77, "duration": 79, "velocity": 120}, {"time": 55800, "pitch": 77, "duration": 79, "velocity": 120}, {"time": 55919, "pitch": 77, "duration": 79, "velocity": 120}, {"time": 56038, "pitch": 77, "duration": 79, "velocity": 120}, {"time": 56278, "pitch": 72, "duration": 81, "velocity": 120}, {"time": 56399, "pitch": 72, "duration": 81, "velocity": 120}, {"time": 56521, "pitch": 72, "duration": 80, "velocity": 120}, {"time": 56642, "pitch": 84, "duration": 79, "velocity": 120}, {"time": 56761, "pitch": 84, "duration": 79, "velocity": 120}, {"time": 56880, "pitch": 84, "duration": 79, "velocity": 120}, {"time": 56999, "pitch": 84, "duration": 79, "velocity": 120}, {"time": 57118, "pitch": 84, "duration": 81, "velocity": 120}, {"time": 57239, "pitch": 84, "duration": 81, "velocity": 120}, {"time": 57360, "pitch": 84, "duration": 81, "velocity": 120}, {"time": 57482, "pitch": 84, "duration": 80, "velocity": 120}, {"time": 57603, "pitch": 79, "duration": 79, "velocity": 120}, {"time": 57722, "pitch": 76, "duration": 79, "velocity": 120}, {"time": 57841, "pitch": 77, "duration": 79, "velocity": 120}, {"time": 73558, "pitch": 77, "duration": 81, "velocity": 120}, {"time": 73679, "pitch": 77, "duration": 81, "velocity": 120}, {"time": 73801, "pitch": 77, "duration": 80, "velocity": 120}, {"time": 73922, "pitch": 77, "duration": 79, "velocity": 120}, {"time": 74041, "pitch": 77, "duration": 79, "velocity": 120}, {"time": 74160, "pitch": 77, "duration": 159, "velocity": 120}, {"time": 74398, "pitch": 77, "duration": 81, "velocity": 120}, {"time": 74479, "pitch": 77, "duration": 60, "velocity": 120}, {"time": 74560, "pitch": 77, "duration": 60, "velocity": 120}, {"time": 74640, "pitch": 77, "duration": 61, "velocity": 120}, {"time": 74883, "pitch": 77, "duration": 79, "velocity": 120}, {"time": 75002, "pitch": 77, "duration": 79, "velocity": 120}, {"time": 75121, "pitch": 77, "duration": 79, "velocity": 120}, {"time": 75480, "pitch": 77, "duration": 162, "velocity": 120}, {"time": 75723, "pitch": 77, "duration": 80, "velocity": 120}, {"time": 75844, "pitch": 77, "duration": 79, "velocity": 120}, {"time": 75963, "pitch": 77, "duration": 79, "velocity": 120}, {"time": 76082, "pitch": 77, "duration": 79, "velocity": 120}, {"time": 76201, "pitch": 77, "duration": 79, "velocity": 120}, {"time": 76320, "pitch": 84, "duration": 79, "velocity": 120}, {"time": 76439, "pitch": 84, "duration": 79, "velocity": 120}, {"time": 76558, "pitch": 84, "duration": 79, "velocity": 120}, {"time": 76677, "pitch": 84, "duration": 79, "velocity": 120}, {"time": 76796, "pitch": 79, "duration": 81, "velocity": 120}, {"time": 76917, "pitch": 76, "duration": 81, "velocity": 120}, {"time": 77038, "pitch": 77, "duration": 81, "velocity": 120}, {"time": 77400, "pitch": 77, "duration": 79, "velocity": 120}, {"time": 77638, "pitch": 77, "duration": 79, "velocity": 120}, {"time": 77757, "pitch": 77, "duration": 81, "velocity": 120}, {"time": 77878, "pitch": 77, "duration": 81, "velocity": 120}, {"time": 77999, "pitch": 77, "duration": 81, "velocity": 120}, {"time": 78121, "pitch": 77, "duration": 80, "velocity": 120}, {"time": 78242, "pitch": 77, "duration": 79, "velocity": 120}, {"time": 78361, "pitch": 77, "duration": 79, "velocity": 120}, {"time": 78480, "pitch": 77, "duration": 159, "velocity": 120}, {"time": 78718, "pitch": 77, "duration": 81, "velocity": 120}, {"time": 78839, "pitch": 77, "duration": 81, "velocity": 120}, {"time": 78960, "pitch": 77, "duration": 81, "velocity": 120}, {"time": 79322, "pitch": 72, "duration": 79, "velocity": 120}, {"time": 79441, "pitch": 72, "duration": 79, "velocity": 120}, {"time": 79560, "pitch": 72, "duration": 79, "velocity": 120}, {"time": 79679, "pitch": 84, "duration": 81, "velocity": 120}, {"time": 79800, "pitch": 84, "duration": 81, "velocity": 120}, {"time": 79921, "pitch": 84, "duration": 81, "velocity": 120}, {"time": 80043, "pitch": 84, "duration": 80, "velocity": 120}, {"time": 80164, "pitch": 84, "duration": 79, "velocity": 120}, {"time": 80283, "pitch": 84, "duration": 79, "velocity": 120}, {"time": 80402, "pitch": 84, "duration": 79, "velocity": 120}, {"time": 80521, "pitch": 84, "duration": 79, "velocity": 120}, {"time": 80640, "pitch": 84, "duration": 79, "velocity": 120}, {"time": 80759, "pitch": 79, "duration": 79, "velocity": 120}, {"time": 80878, "pitch": 76, "duration": 79, "velocity": 120}, {"time": 80997, "pitch": 77, "duration": 79, "velocity": 120}, {"time": 81237, "pitch": 77, "duration": 81, "velocity": 120}, {"time": 81480, "pitch": 77, "duration": 80, "velocity": 120}, {"time": 81601, "pitch": 77, "duration": 79, "velocity": 120}, {"time": 81720, "pitch": 77, "duration": 79, "velocity": 120}, {"time": 81839, "pitch": 77, "duration": 79, "velocity": 120}, {"time": 81958, "pitch": 77, "duration": 79, "velocity": 120}, {"time": 82077, "pitch": 77, "duration": 81, "velocity": 120}, {"time": 82198, "pitch": 77, "duration": 81, "velocity": 120}, {"time": 82319, "pitch": 77, "duration": 81, "velocity": 120}, {"time": 82441, "pitch": 77, "duration": 80, "velocity": 120}, {"time": 82562, "pitch": 77, "duration": 159, "velocity": 120}, {"time": 82800, "pitch": 77, "duration": 159, "velocity": 120}, {"time": 83159, "pitch": 77, "duration": 81, "velocity": 120}, {"time": 83402, "pitch": 77, "duration": 80, "velocity": 120}, {"time": 83523, "pitch": 77, "duration": 79, "velocity": 120}, {"time": 83642, "pitch": 77, "duration": 79, "velocity": 120}, {"time": 83761, "pitch": 77, "duration": 79, "velocity": 120}, {"time": 83880, "pitch": 77, "duration": 79, "velocity": 120}, {"time": 83999, "pitch": 77, "duration": 61, "velocity": 120}, {"time": 84080, "pitch": 77, "duration": 60, "velocity": 120}, {"time": 84161, "pitch": 77, "duration": 60, "velocity": 120}, {"time": 84241, "pitch": 77, "duration": 81, "velocity": 120}, {"time": 84363, "pitch": 77, "duration": 80, "velocity": 120}, {"time": 84484, "pitch": 77, "duration": 158, "velocity": 120}, {"time": 84722, "pitch": 77, "duration": 159, "velocity": 120}, {"time": 85079, "pitch": 77, "duration": 159, "velocity": 120}, {"time": 85317, "pitch": 77, "duration": 79, "velocity": 120}, {"time": 85436, "pitch": 77, "duration": 81, "velocity": 120}, {"time": 85557, "pitch": 77, "duration": 81, "velocity": 120}, {"time": 85678, "pitch": 77, "duration": 81, "velocity": 120}, {"time": 85800, "pitch": 77, "duration": 80, "velocity": 120}, {"time": 85921, "pitch": 77, "duration": 79, "velocity": 120}, {"time": 86040, "pitch": 77, "duration": 79, "velocity": 120}, {"time": 86159, "pitch": 77, "duration": 79, "velocity": 120}, {"time": 86278, "pitch": 77, "duration": 79, "velocity": 120}, {"time": 86397, "pitch": 77, "duration": 162, "velocity": 120}, {"time": 86639, "pitch": 77, "duration": 162, "velocity": 120}, {"time": 87001, "pitch": 72, "duration": 79, "velocity": 120}, {"time": 87120, "pitch": 72, "duration": 79, "velocity": 120}, {"time": 87239, "pitch": 72, "duration": 79, "velocity": 120}, {"time": 87358, "pitch": 84, "duration": 81, "velocity": 120}, {"time": 87600, "pitch": 84, "duration": 81, "velocity": 120}, {"time": 87722, "pitch": 84, "duration": 80, "velocity": 120}, {"time": 87843, "pitch": 84, "duration": 79, "velocity": 120}, {"time": 87962, "pitch": 84, "duration": 79, "velocity": 120}, {"time": 88081, "pitch": 84, "duration": 79, "velocity": 120}, {"time": 88200, "pitch": 84, "duration": 79, "velocity": 120}, {"time": 88319, "pitch": 79, "duration": 81, "velocity": 120}, {"time": 88440, "pitch": 76, "duration": 81, "velocity": 120}, {"time": 88561, "pitch": 77, "duration": 81, "velocity": 120}, {"time": 88923, "pitch": 77, "duration": 79, "velocity": 120}, {"time": 89042, "pitch": 77, "duration": 79, "velocity": 120}, {"time": 89161, "pitch": 77, "duration": 79, "velocity": 120}, {"time": 89280, "pitch": 77, "duration": 79, "velocity": 120}, {"time": 89399, "pitch": 77, "duration": 79, "velocity": 120}, {"time": 89518, "pitch": 77, "duration": 79, "velocity": 120}, {"time": 89637, "pitch": 77, "duration": 79, "velocity": 120}, {"time": 89756, "pitch": 77, "duration": 81, "velocity": 120}, {"time": 89877, "pitch": 77, "duration": 81, "velocity": 120}, {"time": 89998, "pitch": 77, "duration": 81, "velocity": 120}, {"time": 90120, "pitch": 77, "duration": 80, "velocity": 120}, {"time": 90241, "pitch": 81, "duration": 139, "velocity": 120}, {"time": 90479, "pitch": 79, "duration": 79, "velocity": 120}, {"time": 90598, "pitch": 77, "duration": 79, "velocity": 120}, {"time": 90838, "pitch": 77, "duration": 81, "velocity": 120}, {"time": 90959, "pitch": 77, "duration": 81, "velocity": 120}, {"time": 91081, "pitch": 77, "duration": 80, "velocity": 120}, {"time": 91202, "pitch": 77, "duration": 79, "velocity": 120}, {"time": 91321, "pitch": 77, "duration": 79, "velocity": 120}, {"time": 91440, "pitch": 77, "duration": 79, "velocity": 120}, {"time": 91559, "pitch": 77, "duration": 79, "velocity": 120}, {"time": 91678, "pitch": 77, "duration": 81, "velocity": 120}, {"time": 91799, "pitch": 77, "duration": 81, "velocity": 120}, {"time": 91920, "pitch": 77, "duration": 81, "velocity": 120}, {"time": 92042, "pitch": 72, "duration": 80, "velocity": 120}, {"time": 92163, "pitch": 81, "duration": 158, "velocity": 120}, {"time": 92401, "pitch": 79, "duration": 79, "velocity": 120}, {"time": 92520, "pitch": 77, "duration": 79, "velocity": 120}, {"time": 92760, "pitch": 77, "duration": 81, "velocity": 120}, {"time": 92881, "pitch": 77, "duration": 81, "velocity": 120}, {"time": 93003, "pitch": 77, "duration": 80, "velocity": 120}, {"time": 93124, "pitch": 77, "duration": 79, "velocity": 120}, {"time": 93243, "pitch": 77, "duration": 79, "velocity": 120}, {"time": 93362, "pitch": 77, "duration": 79, "velocity": 120}, {"time": 93481, "pitch": 77, "duration": 79, "velocity": 120}, {"time": 93600, "pitch": 77, "duration": 79, "velocity": 120}, {"time": 93719, "pitch": 77, "duration": 79, "velocity": 120}, {"time": 93838, "pitch": 72, "duration": 79, "velocity": 120}, {"time": 94076, "pitch": 81, "duration": 162, "velocity": 120}, {"time": 94318, "pitch": 79, "duration": 81, "velocity": 120}, {"time": 94440, "pitch": 77, "duration": 80, "velocity": 120}, {"time": 94680, "pitch": 72, "duration": 79, "velocity": 120}, {"time": 94799, "pitch": 72, "duration": 79, "velocity": 120}, {"time": 94918, "pitch": 72, "duration": 79, "velocity": 120}, {"time": 95037, "pitch": 84, "duration": 81, "velocity": 120}, {"time": 95158, "pitch": 84, "duration": 81, "velocity": 120}, {"time": 95279, "pitch": 84, "duration": 81, "velocity": 120}, {"time": 95401, "pitch": 84, "duration": 80, "velocity": 120}, {"time": 95522, "pitch": 84, "duration": 79, "velocity": 120}, {"time": 95641, "pitch": 84, "duration": 79, "velocity": 120}, {"time": 95760, "pitch": 84, "duration": 79, "velocity": 120}, {"time": 95879, "pitch": 84, "duration": 79, "velocity": 120}, {"time": 95998, "pitch": 81, "duration": 81, "velocity": 120}, {"time": 96119, "pitch": 79, "duration": 81, "velocity": 120}, {"time": 96240, "pitch": 76, "duration": 81, "velocity": 120}, {"time": 96362, "pitch": 77, "duration": 80, "velocity": 120}, {"time": 96602, "pitch": 77, "duration": 79, "velocity": 120}, {"time": 96721, "pitch": 77, "duration": 79, "velocity": 120}, {"time": 96840, "pitch": 77, "duration": 79, "velocity": 120}, {"time": 96959, "pitch": 77, "duration": 81, "velocity": 120}, {"time": 97080, "pitch": 77, "duration": 81, "velocity": 120}, {"time": 97201, "pitch": 77, "duration": 81, "velocity": 120}, {"time": 97323, "pitch": 77, "duration": 80, "velocity": 120}, {"time": 97444, "pitch": 77, "duration": 79, "velocity": 120}, {"time": 97563, "pitch": 77, "duration": 79, "velocity": 120}, {"time": 97682, "pitch": 77, "duration": 79, "velocity": 120}, {"time": 97801, "pitch": 77, "duration": 79, "velocity": 120}, {"time": 98039, "pitch": 77, "duration": 79, "velocity": 120}, {"time": 98158, "pitch": 77, "duration": 79, "velocity": 120}, {"time": 98277, "pitch": 77, "duration": 79, "velocity": 120}, {"time": 98517, "pitch": 77, "duration": 81, "velocity": 120}, {"time": 98638, "pitch": 77, "duration": 81, "velocity": 120}, {"time": 98760, "pitch": 77, "duration": 80, "velocity": 120}, {"time": 98881, "pitch": 77, "duration": 79, "velocity": 120}, {"time": 99000, "pitch": 77, "duration": 79, "velocity": 120}, {"time": 99119, "pitch": 77, "duration": 79, "velocity": 120}, {"time": 99238, "pitch": 77, "duration": 79, "velocity": 120}, {"time": 99357, "pitch": 77, "duration": 81, "velocity": 120}, {"time": 99478, "pitch": 77, "duration": 81, "velocity": 120}, {"time": 99599, "pitch": 77, "duration": 81, "velocity": 120}, {"time": 99721, "pitch": 77, "duration": 80, "velocity": 120}, {"time": 99842, "pitch": 77, "duration": 79, "velocity": 120}, {"time": 99961, "pitch": 77, "duration": 79, "velocity": 120}, {"time": 100080, "pitch": 77, "duration": 79, "velocity": 120}, {"time": 100199, "pitch": 77, "duration": 79, "velocity": 120}, {"time": 100439, "pitch": 77, "duration": 81, "velocity": 120}, {"time": 100560, "pitch": 77, "duration": 81, "velocity": 120}, {"time": 100682, "pitch": 77, "duration": 80, "velocity": 120}, {"time": 100803, "pitch": 77, "duration": 79, "velocity": 120}, {"time": 100922, "pitch": 77, "duration": 79, "velocity": 120}, {"time": 101041, "pitch": 77, "duration": 79, "velocity": 120}, {"time": 101160, "pitch": 77, "duration": 79, "velocity": 120}, {"time": 101279, "pitch": 77, "duration": 81, "velocity": 120}, {"time": 101400, "pitch": 77, "duration": 81, "velocity": 120}, {"time": 101521, "pitch": 77, "duration": 81, "velocity": 120}, {"time": 101764, "pitch": 77, "duration": 79, "velocity": 120}, {"time": 101883, "pitch": 77, "duration": 79, "velocity": 120}, {"time": 102002, "pitch": 77, "duration": 79, "velocity": 120}, {"time": 102359, "pitch": 72, "duration": 79, "velocity": 120}, {"time": 102478, "pitch": 72, "duration": 79, "velocity": 120}, {"time": 102597, "pitch": 72, "duration": 79, "velocity": 120}, {"time": 102716, "pitch": 84, "duration": 81, "velocity": 120}, {"time": 102837, "pitch": 84, "duration": 81, "velocity": 120}, {"time": 102958, "pitch": 84, "duration": 81, "velocity": 120}, {"time": 103080, "pitch": 84, "duration": 80, "velocity": 120}, {"time": 103201, "pitch": 84, "duration": 79, "velocity": 120}, {"time": 103320, "pitch": 84, "duration": 79, "velocity": 120}, {"time": 103439, "pitch": 84, "duration": 79, "velocity": 120}, {"time": 103558, "pitch": 84, "duration": 79, "velocity": 120}, {"time": 103677, "pitch": 79, "duration": 81, "velocity": 120}, {"time": 103798, "pitch": 76, "duration": 81, "velocity": 120}, {"time": 103919, "pitch": 77, "duration": 81, "velocity": 120}, {"time": 104638, "pitch": 82, "duration": 413, "velocity": 120}, {"time": 105123, "pitch": 82, "duration": 406, "velocity": 120}, {"time": 105599, "pitch": 82, "duration": 178, "velocity": 120}, {"time": 105841, "pitch": 84, "duration": 451, "velocity": 120}, {"time": 106322, "pitch": 82, "duration": 183, "velocity": 120}, {"time": 106560, "pitch": 84, "duration": 188, "velocity": 120}, {"time": 106798, "pitch": 86, "duration": 292, "velocity": 120}, {"time": 107278, "pitch": 77, "duration": 202, "velocity": 120}, {"time": 107521, "pitch": 79, "duration": 133, "velocity": 120}, {"time": 107759, "pitch": 82, "duration": 462, "velocity": 120}, {"time": 108239, "pitch": 81, "duration": 190, "velocity": 120}, {"time": 108482, "pitch": 82, "duration": 215, "velocity": 120}, {"time": 108720, "pitch": 79, "duration": 186, "velocity": 120}, {"time": 108958, "pitch": 82, "duration": 207, "velocity": 120}, {"time": 109200, "pitch": 79, "duration": 191, "velocity": 120}, {"time": 109443, "pitch": 82, "duration": 163, "velocity": 120}, {"time": 109681, "pitch": 86, "duration": 230, "velocity": 120}, {"time": 109919, "pitch": 85, "duration": 242, "velocity": 120}, {"time": 110161, "pitch": 86, "duration": 1622, "velocity": 120}, {"time": 112317, "pitch": 82, "duration": 387, "velocity": 120}, {"time": 112802, "pitch": 82, "duration": 414, "velocity": 120}, {"time": 113278, "pitch": 84, "duration": 217, "velocity": 120}, {"time": 113520, "pitch": 86, "duration": 266, "velocity": 120}, {"time": 114001, "pitch": 77, "duration": 200, "velocity": 120}, {"time": 114239, "pitch": 79, "duration": 141, "velocity": 120}, {"time": 114481, "pitch": 82, "duration": 339, "velocity": 120}, {"time": 114962, "pitch": 77, "duration": 199, "velocity": 120}, {"time": 115200, "pitch": 79, "duration": 210, "velocity": 120}, {"time": 115438, "pitch": 82, "duration": 2151, "velocity": 120}, {"time": 119639, "pitch": 77, "duration": 79, "velocity": 120}, {"time": 119758, "pitch": 77, "duration": 79, "velocity": 120}, {"time": 119877, "pitch": 77, "duration": 79, "velocity": 120}, {"time": 119996, "pitch": 77, "duration": 81, "velocity": 120}, {"time": 120117, "pitch": 77, "duration": 81, "velocity": 120}, {"time": 120238, "pitch": 77, "duration": 162, "velocity": 120}, {"time": 120481, "pitch": 77, "duration": 79, "velocity": 120}, {"time": 120560, "pitch": 77, "duration": 60, "velocity": 120}, {"time": 120640, "pitch": 77, "duration": 59, "velocity": 120}, {"time": 120719, "pitch": 77, "duration": 59, "velocity": 120}, {"time": 120957, "pitch": 77, "duration": 81, "velocity": 120}, {"time": 121078, "pitch": 77, "duration": 81, "velocity": 120}, {"time": 121199, "pitch": 77, "duration": 81, "velocity": 120}, {"time": 121561, "pitch": 77, "duration": 159, "velocity": 120}, {"time": 121799, "pitch": 77, "duration": 79, "velocity": 120}, {"time": 121918, "pitch": 77, "duration": 81, "velocity": 120}, {"time": 122039, "pitch": 77, "duration": 81, "velocity": 120}, {"time": 122160, "pitch": 77, "duration": 81, "velocity": 120}, {"time": 122282, "pitch": 77, "duration": 80, "velocity": 120}, {"time": 122403, "pitch": 84, "duration": 79, "velocity": 120}, {"time": 122522, "pitch": 84, "duration": 79, "velocity": 120}, {"time": 122641, "pitch": 84, "duration": 79, "velocity": 120}, {"time": 122760, "pitch": 84, "duration": 79, "velocity": 120}, {"time": 122879, "pitch": 79, "duration": 81, "velocity": 120}, {"time": 123000, "pitch": 76, "duration": 81, "velocity": 120}, {"time": 123121, "pitch": 77, "duration": 81, "velocity": 120}, {"time": 123483, "pitch": 77, "duration": 79, "velocity": 120}, {"time": 123721, "pitch": 77, "duration": 79, "velocity": 120}, {"time": 123840, "pitch": 77, "duration": 79, "velocity": 120}, {"time": 123959, "pitch": 77, "duration": 79, "velocity": 120}, {"time": 124078, "pitch": 77, "duration": 79, "velocity": 120}, {"time": 124197, "pitch": 77, "duration": 79, "velocity": 120}, {"time": 124316, "pitch": 77, "duration": 81, "velocity": 120}, {"time": 124437, "pitch": 77, "duration": 81, "velocity": 120}, {"time": 124558, "pitch": 77, "duration": 162, "velocity": 120}, {"time": 124801, "pitch": 77, "duration": 79, "velocity": 120}, {"time": 124920, "pitch": 77, "duration": 79, "velocity": 120}, {"time": 125039, "pitch": 77, "duration": 79, "velocity": 120}, {"time": 125398, "pitch": 72, "duration": 81, "velocity": 120}, {"time": 125519, "pitch": 72, "duration": 81, "velocity": 120}, {"time": 125641, "pitch": 72, "duration": 80, "velocity": 120}, {"time": 125762, "pitch": 84, "duration": 79, "velocity": 120}, {"time": 125881, "pitch": 84, "duration": 79, "velocity": 120}, {"time": 126000, "pitch": 84, "duration": 79, "velocity": 120}, {"time": 126119, "pitch": 84, "duration": 79, "velocity": 120}, {"time": 126238, "pitch": 84, "duration": 81, "velocity": 120}, {"time": 126359, "pitch": 84, "duration": 81, "velocity": 120}, {"time": 126480, "pitch": 84, "duration": 81, "velocity": 120}, {"time": 126602, "pitch": 84, "duration": 80, "velocity": 120}, {"time": 126723, "pitch": 84, "duration": 79, "velocity": 120}, {"time": 126842, "pitch": 79, "duration": 79, "velocity": 120}, {"time": 126961, "pitch": 76, "duration": 79, "velocity": 120}, {"time": 127080, "pitch": 77, "duration": 79, "velocity": 120}, {"time": 127320, "pitch": 77, "duration": 81, "velocity": 120}, {"time": 127563, "pitch": 77, "duration": 80, "velocity": 120}, {"time": 127684, "pitch": 77, "duration": 79, "velocity": 120}, {"time": 127803, "pitch": 77, "duration": 79, "velocity": 120}, {"time": 127922, "pitch": 77, "duration": 79, "velocity": 120}, {"time": 128041, "pitch": 77, "duration": 79, "velocity": 120}, {"time": 128160, "pitch": 77, "duration": 79, "velocity": 120}, {"time": 128279, "pitch": 77, "duration": 79, "velocity": 120}, {"time": 128398, "pitch": 77, "duration": 79, "velocity": 120}, {"time": 128517, "pitch": 77, "duration": 79, "velocity": 120}, {"time": 128636, "pitch": 77, "duration": 162, "velocity": 120}, {"time": 128878, "pitch": 77, "duration": 162, "velocity": 120}, {"time": 129240, "pitch": 77, "duration": 79, "velocity": 120}, {"time": 129478, "pitch": 77, "duration": 79, "velocity": 120}, {"time": 129597, "pitch": 77, "duration": 81, "velocity": 120}, {"time": 129718, "pitch": 77, "duration": 81, "velocity": 120}, {"time": 129839, "pitch": 77, "duration": 81, "velocity": 120}, {"time": 129961, "pitch": 77, "duration": 80, "velocity": 120}, {"time": 130082, "pitch": 77, "duration": 59, "velocity": 120}, {"time": 130161, "pitch": 77, "duration": 60, "velocity": 120}, {"time": 130241, "pitch": 77, "duration": 59, "velocity": 120}, {"time": 130320, "pitch": 77, "duration": 79, "velocity": 120}, {"time": 130439, "pitch": 77, "duration": 79, "velocity": 120}, {"time": 130558, "pitch": 77, "duration": 162, "velocity": 120}, {"time": 130800, "pitch": 77, "duration": 162, "velocity": 120}, {"time": 131162, "pitch": 77, "duration": 159, "velocity": 120}, {"time": 131400, "pitch": 77, "duration": 79, "velocity": 120}, {"time": 131519, "pitch": 77, "duration": 81, "velocity": 120}, {"time": 131640, "pitch": 77, "duration": 81, "velocity": 120}, {"time": 131761, "pitch": 77, "duration": 81, "velocity": 120}, {"time": 131883, "pitch": 77, "duration": 80, "velocity": 120}, {"time": 132004, "pitch": 77, "duration": 79, "velocity": 120}, {"time": 132123, "pitch": 77, "duration": 79, "velocity": 120}, {"time": 132242, "pitch": 77, "duration": 79, "velocity": 120}, {"time": 132361, "pitch": 77, "duration": 79, "velocity": 120}, {"time": 132480, "pitch": 77, "duration": 159, "velocity": 120}, {"time": 132718, "pitch": 77, "duration": 159, "velocity": 120}, {"time": 133077, "pitch": 72, "duration": 81, "velocity": 120}, {"time": 133198, "pitch": 72, "duration": 81, "velocity": 120}, {"time": 133320, "pitch": 72, "duration": 80, "velocity": 120}, {"time": 133441, "pitch": 84, "duration": 79, "velocity": 120}, {"time": 133679, "pitch": 84, "duration": 79, "velocity": 120}, {"time": 133798, "pitch": 84, "duration": 79, "velocity": 120}, {"time": 133917, "pitch": 84, "duration": 81, "velocity": 120}, {"time": 134038, "pitch": 84, "duration": 81, "velocity": 120}, {"time": 134159, "pitch": 84, "duration": 81, "velocity": 120}, {"time": 134281, "pitch": 84, "duration": 80, "velocity": 120}, {"time": 134402, "pitch": 79, "duration": 79, "velocity": 120}, {"time": 134521, "pitch": 76, "duration": 79, "velocity": 120}, {"time": 134640, "pitch": 77, "duration": 79, "velocity": 120}, {"time": 134999, "pitch": 77, "duration": 81, "velocity": 120}, {"time": 135120, "pitch": 77, "duration": 81, "velocity": 120}, {"time": 135242, "pitch": 77, "duration": 80, "velocity": 120}, {"time": 135363, "pitch": 77, "duration": 79, "velocity": 120}, {"time": 135482, "pitch": 77, "duration": 79, "velocity": 120}, {"time": 135601, "pitch": 77, "duration": 79, "velocity": 120}, {"time": 135720, "pitch": 77, "duration": 79, "velocity": 120}, {"time": 135839, "pitch": 77, "duration": 81, "velocity": 120}, {"time": 135960, "pitch": 77, "duration": 81, "velocity": 120}, {"time": 136081, "pitch": 77, "duration": 81, "velocity": 120}, {"time": 136203, "pitch": 77, "duration": 80, "velocity": 120}, {"time": 136324, "pitch": 81, "duration": 139, "velocity": 120}, {"time": 136562, "pitch": 79, "duration": 79, "velocity": 120}, {"time": 136681, "pitch": 77, "duration": 79, "velocity": 120}, {"time": 136919, "pitch": 77, "duration": 79, "velocity": 120}, {"time": 137038, "pitch": 77, "duration": 79, "velocity": 120}, {"time": 137157, "pitch": 77, "duration": 79, "velocity": 120}, {"time": 137276, "pitch": 77, "duration": 81, "velocity": 120}, {"time": 137397, "pitch": 77, "duration": 81, "velocity": 120}, {"time": 137518, "pitch": 77, "duration": 81, "velocity": 120}, {"time": 137640, "pitch": 77, "duration": 80, "velocity": 120}, {"time": 137761, "pitch": 77, "duration": 79, "velocity": 120}, {"time": 137880, "pitch": 77, "duration": 79, "velocity": 120}, {"time": 137999, "pitch": 77, "duration": 79, "velocity": 120}, {"time": 138118, "pitch": 72, "duration": 79, "velocity": 120}, {"time": 138237, "pitch": 81, "duration": 162, "velocity": 120}, {"time": 138479, "pitch": 79, "duration": 81, "velocity": 120}, {"time": 138601, "pitch": 77, "duration": 80, "velocity": 120}, {"time": 138841, "pitch": 77, "duration": 79, "velocity": 120}, {"time": 138960, "pitch": 77, "duration": 79, "velocity": 120}, {"time": 139079, "pitch": 77, "duration": 79, "velocity": 120}, {"time": 139198, "pitch": 77, "duration": 81, "velocity": 120}, {"time": 139319, "pitch": 77, "duration": 81, "velocity": 120}, {"time": 139440, "pitch": 77, "duration": 81, "velocity": 120}, {"time": 139562, "pitch": 77, "duration": 80, "velocity": 120}, {"time": 139683, "pitch": 77, "duration": 79, "velocity": 120}, {"time": 139802, "pitch": 77, "duration": 79, "velocity": 120}, {"time": 139921, "pitch": 72, "duration": 79, "velocity": 120}, {"time": 140159, "pitch": 81, "duration": 162, "velocity": 120}, {"time": 140401, "pitch": 79, "duration": 81, "velocity": 120}, {"time": 140523, "pitch": 77, "duration": 80, "velocity": 120}, {"time": 140763, "pitch": 72, "duration": 79, "velocity": 120}, {"time": 140882, "pitch": 72, "duration": 79, "velocity": 120}, {"time": 141001, "pitch": 72, "duration": 79, "velocity": 120}, {"time": 141120, "pitch": 84, "duration": 79, "velocity": 120}, {"time": 141239, "pitch": 84, "duration": 79, "velocity": 120}, {"time": 141358, "pitch": 84, "duration": 79, "velocity": 120}, {"time": 141477, "pitch": 84, "duration": 79, "velocity": 120}, {"time": 141596, "pitch": 84, "duration": 81, "velocity": 120}, {"time": 141717, "pitch": 84, "duration": 81, "velocity": 120}, {"time": 141838, "pitch": 84, "duration": 81, "velocity": 120}, {"time": 141960, "pitch": 84, "duration": 80, "velocity": 120}, {"time": 142081, "pitch": 81, "duration": 79, "velocity": 120}, {"time": 142200, "pitch": 79, "duration": 79, "velocity": 120}, {"time": 142319, "pitch": 76, "duration": 79, "velocity": 120}, {"time": 142438, "pitch": 77, "duration": 79, "velocity": 120}, {"time": 142678, "pitch": 77, "duration": 81, "velocity": 120}, {"time": 142799, "pitch": 77, "duration": 81, "velocity": 120}, {"time": 142921, "pitch": 77, "duration": 80, "velocity": 120}, {"time": 143042, "pitch": 77, "duration": 79, "velocity": 120}, {"time": 143161, "pitch": 77, "duration": 79, "velocity": 120}, {"time": 143280, "pitch": 77, "duration": 79, "velocity": 120}, {"time": 143399, "pitch": 77, "duration": 79, "velocity": 120}, {"time": 143518, "pitch": 77, "duration": 81, "velocity": 120}, {"time": 143639, "pitch": 77, "duration": 81, "velocity": 120}, {"time": 143760, "pitch": 77, "duration": 81, "velocity": 120}, {"time": 143882, "pitch": 77, "duration": 80, "velocity": 120}, {"time": 144122, "pitch": 77, "duration": 79, "velocity": 120}, {"time": 144241, "pitch": 77, "duration": 79, "velocity": 120}, {"time": 144360, "pitch": 77, "duration": 79, "velocity": 120}, {"time": 144600, "pitch": 77, "duration": 81, "velocity": 120}, {"time": 144721, "pitch": 77, "duration": 81, "velocity": 120}, {"time": 144843, "pitch": 77, "duration": 80, "velocity": 120}, {"time": 144964, "pitch": 77, "duration": 79, "velocity": 120}, {"time": 145083, "pitch": 77, "duration": 79, "velocity": 120}, {"time": 145202, "pitch": 77, "duration": 79, "velocity": 120}, {"time": 145321, "pitch": 77, "duration": 79, "velocity": 120}, {"time": 145440, "pitch": 77, "duration": 79, "velocity": 120}, {"time": 145559, "pitch": 77, "duration": 79, "velocity": 120}, {"time": 145678, "pitch": 77, "duration": 79, "velocity": 120}, {"time": 145797, "pitch": 77, "duration": 79, "velocity": 120}, {"time": 145916, "pitch": 77, "duration": 81, "velocity": 120}, {"time": 146037, "pitch": 77, "duration": 81, "velocity": 120}, {"time": 146158, "pitch": 77, "duration": 81, "velocity": 120}, {"time": 146280, "pitch": 77, "duration": 80, "velocity": 120}, {"time": 146520, "pitch": 77, "duration": 79, "velocity": 120}, {"time": 146639, "pitch": 77, "duration": 79, "velocity": 120}, {"time": 146758, "pitch": 77, "duration": 79, "velocity": 120}, {"time": 146877, "pitch": 77, "duration": 81, "velocity": 120}, {"time": 146998, "pitch": 77, "duration": 81, "velocity": 120}, {"time": 147119, "pitch": 77, "duration": 81, "velocity": 120}, {"time": 147241, "pitch": 77, "duration": 80, "velocity": 120}, {"time": 147362, "pitch": 77, "duration": 79, "velocity": 120}, {"time": 147481, "pitch": 77, "duration": 79, "velocity": 120}, {"time": 147600, "pitch": 77, "duration": 79, "velocity": 120}, {"time": 147838, "pitch": 77, "duration": 81, "velocity": 120}, {"time": 147959, "pitch": 77, "duration": 81, "velocity": 120}, {"time": 148080, "pitch": 77, "duration": 81, "velocity": 120}, {"time": 148442, "pitch": 72, "duration": 79, "velocity": 120}, {"time": 148561, "pitch": 72, "duration": 79, "velocity": 120}, {"time": 148680, "pitch": 72, "duration": 79, "velocity": 120}, {"time": 148799, "pitch": 84, "duration": 81, "velocity": 120}, {"time": 148920, "pitch": 84, "duration": 81, "velocity": 120}, {"time": 149041, "pitch": 84, "duration": 81, "velocity": 120}, {"time": 149163, "pitch": 84, "duration": 80, "velocity": 120}, {"time": 149284, "pitch": 84, "duration": 79, "velocity": 120}, {"time": 149403, "pitch": 84, "duration": 79, "velocity": 120}, {"time": 149522, "pitch": 84, "duration": 79, "velocity": 120}, {"time": 149641, "pitch": 84, "duration": 79, "velocity": 120}, {"time": 149760, "pitch": 79, "duration": 79, "velocity": 120}, {"time": 149879, "pitch": 76, "duration": 79, "velocity": 120}, {"time": 149998, "pitch": 77, "duration": 79, "velocity": 120}], "annotations": [{"time": 284, "annotation": {"number": 7, "value": 110}, "group": "control_change"}, {"time": 306, "annotation": {"number": 11, "value": 110}, "group": "control_change"}, {"time": 328, "annotation": {"number": 10, "value": 64}, "group": "control_change"}, {"time": 350, "annotation": {"number": 91, "value": 20}, "group": "control_change"}, {"time": 372, "annotation": {"number": 93, "value": 0}, "group": "control_change"}, {"time": 394, "annotation": {"number": 101, "value": 0}, "group": "control_change"}, {"time": 415, "annotation": {"number": 100, "value": 0}, "group": "control_change"}, {"time": 437, "annotation": {"number": 6, "value": 12}, "group": "control_change"}, {"time": 459, "annotation": {"number": 101, "value": 127}, "group": "control_change"}, {"time": 482, "annotation": {"number": 100, "value": 127}, "group": "control_change"}]}, {"program": 0, "is_drum": false, "name": "STRINGS", "annotations": [{"time": 219, "annotation": {"number": 0, "value": 0}, "group": "control_change"}, {"time": 241, "annotation": {"number": 32, "value": 2}, "group": "control_change"}]}, {"program": 48, "is_drum": false, "name": "STRINGS", "notes": [{"time": 482, "pitch": 36, "duration": 1922, "velocity": 120}, {"time": 2404, "pitch": 41, "duration": 1913, "velocity": 120}, {"time": 4317, "pitch": 46, "duration": 1922, "velocity": 120}, {"time": 6239, "pitch": 39, "duration": 1922, "velocity": 120}, {"time": 8161, "pitch": 38, "duration": 1922, "velocity": 120}, {"time": 10083, "pitch": 43, "duration": 961, "velocity": 120}, {"time": 11044, "pitch": 45, "duration": 952, "velocity": 120}, {"time": 11996, "pitch": 77, "duration": 121, "velocity": 120}, {"time": 11996, "pitch": 89, "duration": 122, "velocity": 120}, {"time": 12481, "pitch": 77, "duration": 119, "velocity": 120}, {"time": 12481, "pitch": 89, "duration": 119, "velocity": 120}, {"time": 12957, "pitch": 77, "duration": 121, "velocity": 120}, {"time": 12957, "pitch": 89, "duration": 121, "velocity": 120}, {"time": 13200, "pitch": 72, "duration": 242, "velocity": 120}, {"time": 13200, "pitch": 84, "duration": 242, "velocity": 120}, {"time": 13442, "pitch": 74, "duration": 238, "velocity": 120}, {"time": 13442, "pitch": 86, "duration": 238, "velocity": 120}, {"time": 13680, "pitch": 77, "duration": 119, "velocity": 120}, {"time": 13680, "pitch": 89, "duration": 119, "velocity": 120}, {"time": 13918, "pitch": 77, "duration": 121, "velocity": 120}, {"time": 13918, "pitch": 89, "duration": 121, "velocity": 120}, {"time": 14403, "pitch": 77, "duration": 119, "velocity": 120}, {"time": 14403, "pitch": 89, "duration": 119, "velocity": 120}, {"time": 14879, "pitch": 77, "duration": 121, "velocity": 120}, {"time": 14879, "pitch": 89, "duration": 121, "velocity": 120}, {"time": 15121, "pitch": 81, "duration": 243, "velocity": 120}, {"time": 15121, "pitch": 93, "duration": 243, "velocity": 120}, {"time": 15364, "pitch": 79, "duration": 238, "velocity": 120}, {"time": 15364, "pitch": 91, "duration": 238, "velocity": 120}, {"time": 15602, "pitch": 77, "duration": 119, "velocity": 120}, {"time": 15602, "pitch": 89, "duration": 119, "velocity": 120}, {"time": 15840, "pitch": 77, "duration": 119, "velocity": 120}, {"time": 15840, "pitch": 89, "duration": 120, "velocity": 120}, {"time": 16316, "pitch": 77, "duration": 121, "velocity": 120}, {"time": 16316, "pitch": 89, "duration": 121, "velocity": 120}, {"time": 16801, "pitch": 77, "duration": 119, "velocity": 120}, {"time": 16801, "pitch": 89, "duration": 119, "velocity": 120}, {"time": 17039, "pitch": 72, "duration": 238, "velocity": 120}, {"time": 17039, "pitch": 84, "duration": 238, "velocity": 120}, {"time": 17277, "pitch": 74, "duration": 242, "velocity": 120}, {"time": 17277, "pitch": 86, "duration": 242, "velocity": 120}, {"time": 17519, "pitch": 77, "duration": 122, "velocity": 120}, {"time": 17519, "pitch": 89, "duration": 122, "velocity": 120}, {"time": 17762, "pitch": 77, "duration": 119, "velocity": 120}, {"time": 17762, "pitch": 89, "duration": 119, "velocity": 120}, {"time": 18238, "pitch": 77, "duration": 121, "velocity": 120}, {"time": 18238, "pitch": 89, "duration": 121, "velocity": 120}, {"time": 18723, "pitch": 77, "duration": 119, "velocity": 120}, {"time": 18723, "pitch": 89, "duration": 119, "velocity": 120}, {"time": 18961, "pitch": 81, "duration": 238, "velocity": 120}, {"time": 18961, "pitch": 93, "duration": 238, "velocity": 120}, {"time": 19199, "pitch": 79, "duration": 242, "velocity": 120}, {"time": 19199, "pitch": 91, "duration": 242, "velocity": 120}, {"time": 19441, "pitch": 77, "duration": 122, "velocity": 120}, {"time": 19441, "pitch": 89, "duration": 122, "velocity": 120}, {"time": 19684, "pitch": 77, "duration": 119, "velocity": 120}, {"time": 19684, "pitch": 89, "duration": 120, "velocity": 120}, {"time": 20160, "pitch": 77, "duration": 119, "velocity": 120}, {"time": 20160, "pitch": 89, "duration": 119, "velocity": 120}, {"time": 20636, "pitch": 77, "duration": 121, "velocity": 120}, {"time": 20636, "pitch": 89, "duration": 121, "velocity": 120}, {"time": 20879, "pitch": 72, "duration": 242, "velocity": 120}, {"time": 20879, "pitch": 84, "duration": 242, "velocity": 120}, {"time": 21121, "pitch": 74, "duration": 238, "velocity": 120}, {"time": 21121, "pitch": 86, "duration": 238, "velocity": 120}, {"time": 21359, "pitch": 77, "duration": 119, "velocity": 120}, {"time": 21359, "pitch": 89, "duration": 119, "velocity": 120}, {"time": 21597, "pitch": 77, "duration": 121, "velocity": 120}, {"time": 21597, "pitch": 89, "duration": 121, "velocity": 120}, {"time": 22082, "pitch": 77, "duration": 119, "velocity": 120}, {"time": 22082, "pitch": 89, "duration": 119, "velocity": 120}, {"time": 22558, "pitch": 77, "duration": 121, "velocity": 120}, {"time": 22558, "pitch": 89, "duration": 121, "velocity": 120}, {"time": 22800, "pitch": 81, "duration": 243, "velocity": 120}, {"time": 22800, "pitch": 93, "duration": 243, "velocity": 120}, {"time": 23043, "pitch": 79, "duration": 238, "velocity": 120}, {"time": 23043, "pitch": 91, "duration": 238, "velocity": 120}, {"time": 23281, "pitch": 77, "duration": 119, "velocity": 120}, {"time": 23281, "pitch": 89, "duration": 119, "velocity": 120}, {"time": 23519, "pitch": 77, "duration": 121, "velocity": 120}, {"time": 23519, "pitch": 89, "duration": 122, "velocity": 120}, {"time": 24004, "pitch": 77, "duration": 119, "velocity": 120}, {"time": 24004, "pitch": 89, "duration": 119, "velocity": 120}, {"time": 24480, "pitch": 77, "duration": 119, "velocity": 120}, {"time": 24480, "pitch": 89, "duration": 119, "velocity": 120}, {"time": 24718, "pitch": 72, "duration": 238, "velocity": 120}, {"time": 24718, "pitch": 84, "duration": 238, "velocity": 120}, {"time": 24956, "pitch": 74, "duration": 243, "velocity": 120}, {"time": 24956, "pitch": 86, "duration": 243, "velocity": 120}, {"time": 25199, "pitch": 77, "duration": 121, "velocity": 120}, {"time": 25199, "pitch": 89, "duration": 121, "velocity": 120}, {"time": 25441, "pitch": 77, "duration": 119, "velocity": 120}, {"time": 25441, "pitch": 89, "duration": 119, "velocity": 120}, {"time": 25917, "pitch": 77, "duration": 121, "velocity": 120}, {"time": 25917, "pitch": 89, "duration": 121, "velocity": 120}, {"time": 26402, "pitch": 77, "duration": 119, "velocity": 120}, {"time": 26402, "pitch": 89, "duration": 119, "velocity": 120}, {"time": 26640, "pitch": 81, "duration": 238, "velocity": 120}, {"time": 26640, "pitch": 93, "duration": 238, "velocity": 120}, {"time": 26878, "pitch": 79, "duration": 242, "velocity": 120}, {"time": 26878, "pitch": 91, "duration": 242, "velocity": 120}, {"time": 27120, "pitch": 77, "duration": 122, "velocity": 120}, {"time": 27120, "pitch": 89, "duration": 122, "velocity": 120}, {"time": 58079, "pitch": 77, "duration": 121, "velocity": 120}, {"time": 58079, "pitch": 89, "duration": 122, "velocity": 120}, {"time": 58564, "pitch": 77, "duration": 119, "velocity": 120}, {"time": 58564, "pitch": 89, "duration": 119, "velocity": 120}, {"time": 59040, "pitch": 77, "duration": 119, "velocity": 120}, {"time": 59040, "pitch": 89, "duration": 119, "velocity": 120}, {"time": 59278, "pitch": 72, "duration": 238, "velocity": 120}, {"time": 59278, "pitch": 84, "duration": 238, "velocity": 120}, {"time": 59516, "pitch": 74, "duration": 242, "velocity": 120}, {"time": 59516, "pitch": 86, "duration": 242, "velocity": 120}, {"time": 59758, "pitch": 77, "duration": 122, "velocity": 120}, {"time": 59758, "pitch": 89, "duration": 122, "velocity": 120}, {"time": 60001, "pitch": 77, "duration": 119, "velocity": 120}, {"time": 60001, "pitch": 89, "duration": 119, "velocity": 120}, {"time": 60477, "pitch": 77, "duration": 121, "velocity": 120}, {"time": 60477, "pitch": 89, "duration": 121, "velocity": 120}, {"time": 60962, "pitch": 77, "duration": 119, "velocity": 120}, {"time": 60962, "pitch": 89, "duration": 119, "velocity": 120}, {"time": 61200, "pitch": 81, "duration": 238, "velocity": 120}, {"time": 61200, "pitch": 93, "duration": 238, "velocity": 120}, {"time": 61438, "pitch": 79, "duration": 242, "velocity": 120}, {"time": 61438, "pitch": 91, "duration": 242, "velocity": 120}, {"time": 61680, "pitch": 77, "duration": 122, "velocity": 120}, {"time": 61680, "pitch": 89, "duration": 122, "velocity": 120}, {"time": 61923, "pitch": 77, "duration": 119, "velocity": 120}, {"time": 61923, "pitch": 89, "duration": 120, "velocity": 120}, {"time": 62399, "pitch": 77, "duration": 121, "velocity": 120}, {"time": 62399, "pitch": 89, "duration": 121, "velocity": 120}, {"time": 62884, "pitch": 77, "duration": 119, "velocity": 120}, {"time": 62884, "pitch": 89, "duration": 119, "velocity": 120}, {"time": 63122, "pitch": 72, "duration": 238, "velocity": 120}, {"time": 63122, "pitch": 84, "duration": 238, "velocity": 120}, {"time": 63360, "pitch": 74, "duration": 238, "velocity": 120}, {"time": 63360, "pitch": 86, "duration": 238, "velocity": 120}, {"time": 63598, "pitch": 77, "duration": 119, "velocity": 120}, {"time": 63598, "pitch": 89, "duration": 119, "velocity": 120}, {"time": 63836, "pitch": 77, "duration": 121, "velocity": 120}, {"time": 63836, "pitch": 89, "duration": 121, "velocity": 120}, {"time": 64321, "pitch": 77, "duration": 119, "velocity": 120}, {"time": 64321, "pitch": 89, "duration": 119, "velocity": 120}, {"time": 64797, "pitch": 77, "duration": 121, "velocity": 120}, {"time": 64797, "pitch": 89, "duration": 121, "velocity": 120}, {"time": 65039, "pitch": 81, "duration": 243, "velocity": 120}, {"time": 65039, "pitch": 93, "duration": 243, "velocity": 120}, {"time": 65282, "pitch": 79, "duration": 238, "velocity": 120}, {"time": 65282, "pitch": 91, "duration": 238, "velocity": 120}, {"time": 65520, "pitch": 77, "duration": 119, "velocity": 120}, {"time": 65520, "pitch": 89, "duration": 119, "velocity": 120}, {"time": 65758, "pitch": 77, "duration": 121, "velocity": 120}, {"time": 65758, "pitch": 89, "duration": 122, "velocity": 120}, {"time": 66243, "pitch": 77, "duration": 119, "velocity": 120}, {"time": 66243, "pitch": 89, "duration": 119, "velocity": 120}, {"time": 66719, "pitch": 77, "duration": 121, "velocity": 120}, {"time": 66719, "pitch": 89, "duration": 121, "velocity": 120}, {"time": 66961, "pitch": 72, "duration": 243, "velocity": 120}, {"time": 66961, "pitch": 84, "duration": 243, "velocity": 120}, {"time": 67204, "pitch": 74, "duration": 238, "velocity": 120}, {"time": 67204, "pitch": 86, "duration": 238, "velocity": 120}, {"time": 67442, "pitch": 77, "duration": 119, "velocity": 120}, {"time": 67442, "pitch": 89, "duration": 119, "velocity": 120}, {"time": 67680, "pitch": 77, "duration": 119, "velocity": 120}, {"time": 67680, "pitch": 89, "duration": 119, "velocity": 120}, {"time": 68156, "pitch": 77, "duration": 121, "velocity": 120}, {"time": 68156, "pitch": 89, "duration": 121, "velocity": 120}, {"time": 68641, "pitch": 77, "duration": 119, "velocity": 120}, {"time": 68641, "pitch": 89, "duration": 119, "velocity": 120}, {"time": 68879, "pitch": 81, "duration": 238, "velocity": 120}, {"time": 68879, "pitch": 93, "duration": 238, "velocity": 120}, {"time": 69117, "pitch": 79, "duration": 242, "velocity": 120}, {"time": 69117, "pitch": 91, "duration": 242, "velocity": 120}, {"time": 69359, "pitch": 77, "duration": 122, "velocity": 120}, {"time": 69359, "pitch": 89, "duration": 122, "velocity": 120}, {"time": 69602, "pitch": 77, "duration": 119, "velocity": 120}, {"time": 69602, "pitch": 89, "duration": 120, "velocity": 120}, {"time": 70078, "pitch": 77, "duration": 121, "velocity": 120}, {"time": 70078, "pitch": 89, "duration": 121, "velocity": 120}, {"time": 70563, "pitch": 77, "duration": 119, "velocity": 120}, {"time": 70563, "pitch": 89, "duration": 119, "velocity": 120}, {"time": 70801, "pitch": 72, "duration": 238, "velocity": 120}, {"time": 70801, "pitch": 84, "duration": 238, "velocity": 120}, {"time": 71039, "pitch": 74, "duration": 242, "velocity": 120}, {"time": 71039, "pitch": 86, "duration": 242, "velocity": 120}, {"time": 71281, "pitch": 77, "duration": 122, "velocity": 120}, {"time": 71281, "pitch": 89, "duration": 122, "velocity": 120}, {"time": 71524, "pitch": 77, "duration": 119, "velocity": 120}, {"time": 71524, "pitch": 89, "duration": 119, "velocity": 120}, {"time": 72000, "pitch": 77, "duration": 119, "velocity": 120}, {"time": 72000, "pitch": 89, "duration": 119, "velocity": 120}, {"time": 72476, "pitch": 77, "duration": 121, "velocity": 120}, {"time": 72476, "pitch": 89, "duration": 121, "velocity": 120}, {"time": 72718, "pitch": 81, "duration": 243, "velocity": 120}, {"time": 72718, "pitch": 93, "duration": 243, "velocity": 120}, {"time": 72961, "pitch": 79, "duration": 238, "velocity": 120}, {"time": 72961, "pitch": 91, "duration": 238, "velocity": 120}, {"time": 73199, "pitch": 77, "duration": 119, "velocity": 120}, {"time": 73199, "pitch": 89, "duration": 119, "velocity": 120}, {"time": 88804, "pitch": 77, "duration": 119, "velocity": 120}, {"time": 88804, "pitch": 89, "duration": 120, "velocity": 120}, {"time": 89280, "pitch": 77, "duration": 119, "velocity": 120}, {"time": 89280, "pitch": 89, "duration": 119, "velocity": 120}, {"time": 89756, "pitch": 77, "duration": 121, "velocity": 120}, {"time": 89756, "pitch": 89, "duration": 121, "velocity": 120}, {"time": 89998, "pitch": 72, "duration": 243, "velocity": 120}, {"time": 89998, "pitch": 84, "duration": 243, "velocity": 120}, {"time": 90241, "pitch": 74, "duration": 238, "velocity": 120}, {"time": 90241, "pitch": 86, "duration": 238, "velocity": 120}, {"time": 90479, "pitch": 77, "duration": 119, "velocity": 120}, {"time": 90479, "pitch": 89, "duration": 119, "velocity": 120}, {"time": 90717, "pitch": 77, "duration": 121, "velocity": 120}, {"time": 90717, "pitch": 89, "duration": 121, "velocity": 120}, {"time": 91202, "pitch": 77, "duration": 119, "velocity": 120}, {"time": 91202, "pitch": 89, "duration": 119, "velocity": 120}, {"time": 91678, "pitch": 77, "duration": 121, "velocity": 120}, {"time": 91678, "pitch": 89, "duration": 121, "velocity": 120}, {"time": 91920, "pitch": 81, "duration": 243, "velocity": 120}, {"time": 91920, "pitch": 93, "duration": 243, "velocity": 120}, {"time": 92163, "pitch": 79, "duration": 238, "velocity": 120}, {"time": 92163, "pitch": 91, "duration": 238, "velocity": 120}, {"time": 92401, "pitch": 77, "duration": 119, "velocity": 120}, {"time": 92401, "pitch": 89, "duration": 119, "velocity": 120}, {"time": 92639, "pitch": 77, "duration": 121, "velocity": 120}, {"time": 92639, "pitch": 89, "duration": 122, "velocity": 120}, {"time": 93124, "pitch": 77, "duration": 119, "velocity": 120}, {"time": 93124, "pitch": 89, "duration": 119, "velocity": 120}, {"time": 93600, "pitch": 77, "duration": 119, "velocity": 120}, {"time": 93600, "pitch": 89, "duration": 119, "velocity": 120}, {"time": 93838, "pitch": 72, "duration": 238, "velocity": 120}, {"time": 93838, "pitch": 84, "duration": 238, "velocity": 120}, {"time": 94076, "pitch": 74, "duration": 242, "velocity": 120}, {"time": 94076, "pitch": 86, "duration": 242, "velocity": 120}, {"time": 94318, "pitch": 77, "duration": 122, "velocity": 120}, {"time": 94318, "pitch": 89, "duration": 122, "velocity": 120}, {"time": 94561, "pitch": 77, "duration": 119, "velocity": 120}, {"time": 94561, "pitch": 89, "duration": 119, "velocity": 120}, {"time": 95037, "pitch": 77, "duration": 121, "velocity": 120}, {"time": 95037, "pitch": 89, "duration": 121, "velocity": 120}, {"time": 95522, "pitch": 77, "duration": 119, "velocity": 120}, {"time": 95522, "pitch": 89, "duration": 119, "velocity": 120}, {"time": 95760, "pitch": 81, "duration": 238, "velocity": 120}, {"time": 95760, "pitch": 93, "duration": 238, "velocity": 120}, {"time": 95998, "pitch": 79, "duration": 242, "velocity": 120}, {"time": 95998, "pitch": 91, "duration": 242, "velocity": 120}, {"time": 96240, "pitch": 77, "duration": 122, "velocity": 120}, {"time": 96240, "pitch": 89, "duration": 122, "velocity": 120}, {"time": 96483, "pitch": 77, "duration": 119, "velocity": 120}, {"time": 96483, "pitch": 89, "duration": 120, "velocity": 120}, {"time": 96959, "pitch": 77, "duration": 121, "velocity": 120}, {"time": 96959, "pitch": 89, "duration": 121, "velocity": 120}, {"time": 97444, "pitch": 77, "duration": 119, "velocity": 120}, {"time": 97444, "pitch": 89, "duration": 119, "velocity": 120}, {"time": 97682, "pitch": 72, "duration": 238, "velocity": 120}, {"time": 97682, "pitch": 84, "duration": 238, "velocity": 120}, {"time": 97920, "pitch": 74, "duration": 238, "velocity": 120}, {"time": 97920, "pitch": 86, "duration": 238, "velocity": 120}, {"time": 98158, "pitch": 77, "duration": 119, "velocity": 120}, {"time": 98158, "pitch": 89, "duration": 119, "velocity": 120}, {"time": 98396, "pitch": 77, "duration": 121, "velocity": 120}, {"time": 98396, "pitch": 89, "duration": 121, "velocity": 120}, {"time": 98881, "pitch": 77, "duration": 119, "velocity": 120}, {"time": 98881, "pitch": 89, "duration": 119, "velocity": 120}, {"time": 99357, "pitch": 77, "duration": 121, "velocity": 120}, {"time": 99357, "pitch": 89, "duration": 121, "velocity": 120}, {"time": 99599, "pitch": 81, "duration": 243, "velocity": 120}, {"time": 99599, "pitch": 93, "duration": 243, "velocity": 120}, {"time": 99842, "pitch": 79, "duration": 238, "velocity": 120}, {"time": 99842, "pitch": 91, "duration": 238, "velocity": 120}, {"time": 100080, "pitch": 77, "duration": 119, "velocity": 120}, {"time": 100080, "pitch": 89, "duration": 119, "velocity": 120}, {"time": 100318, "pitch": 77, "duration": 121, "velocity": 120}, {"time": 100318, "pitch": 89, "duration": 122, "velocity": 120}, {"time": 100803, "pitch": 77, "duration": 119, "velocity": 120}, {"time": 100803, "pitch": 89, "duration": 119, "velocity": 120}, {"time": 101279, "pitch": 77, "duration": 121, "velocity": 120}, {"time": 101279, "pitch": 89, "duration": 121, "velocity": 120}, {"time": 101521, "pitch": 72, "duration": 243, "velocity": 120}, {"time": 101521, "pitch": 84, "duration": 243, "velocity": 120}, {"time": 101764, "pitch": 74, "duration": 238, "velocity": 120}, {"time": 101764, "pitch": 86, "duration": 238, "velocity": 120}, {"time": 102002, "pitch": 77, "duration": 119, "velocity": 120}, {"time": 102002, "pitch": 89, "duration": 119, "velocity": 120}, {"time": 102240, "pitch": 77, "duration": 119, "velocity": 120}, {"time": 102240, "pitch": 89, "duration": 119, "velocity": 120}, {"time": 102716, "pitch": 77, "duration": 121, "velocity": 120}, {"time": 102716, "pitch": 89, "duration": 121, "velocity": 120}, {"time": 103201, "pitch": 77, "duration": 119, "velocity": 120}, {"time": 103201, "pitch": 89, "duration": 119, "velocity": 120}, {"time": 103439, "pitch": 81, "duration": 238, "velocity": 120}, {"time": 103439, "pitch": 93, "duration": 238, "velocity": 120}, {"time": 103677, "pitch": 79, "duration": 242, "velocity": 120}, {"time": 103677, "pitch": 91, "duration": 242, "velocity": 120}, {"time": 103919, "pitch": 77, "duration": 122, "velocity": 120}, {"time": 103919, "pitch": 89, "duration": 122, "velocity": 120}, {"time": 119520, "pitch": 77, "duration": 119, "velocity": 120}, {"time": 119520, "pitch": 89, "duration": 120, "velocity": 120}, {"time": 119996, "pitch": 77, "duration": 121, "velocity": 120}, {"time": 119996, "pitch": 89, "duration": 121, "velocity": 120}, {"time": 120481, "pitch": 77, "duration": 119, "velocity": 120}, {"time": 120481, "pitch": 89, "duration": 119, "velocity": 120}, {"time": 120719, "pitch": 72, "duration": 238, "velocity": 120}, {"time": 120719, "pitch": 84, "duration": 238, "velocity": 120}, {"time": 120957, "pitch": 74, "duration": 242, "velocity": 120}, {"time": 120957, "pitch": 86, "duration": 242, "velocity": 120}, {"time": 121199, "pitch": 77, "duration": 122, "velocity": 120}, {"time": 121199, "pitch": 89, "duration": 122, "velocity": 120}, {"time": 121442, "pitch": 77, "duration": 119, "velocity": 120}, {"time": 121442, "pitch": 89, "duration": 119, "velocity": 120}, {"time": 121918, "pitch": 77, "duration": 121, "velocity": 120}, {"time": 121918, "pitch": 89, "duration": 121, "velocity": 120}, {"time": 122403, "pitch": 77, "duration": 119, "velocity": 120}, {"time": 122403, "pitch": 89, "duration": 119, "velocity": 120}, {"time": 122641, "pitch": 81, "duration": 238, "velocity": 120}, {"time": 122641, "pitch": 93, "duration": 238, "velocity": 120}, {"time": 122879, "pitch": 79, "duration": 242, "velocity": 120}, {"time": 122879, "pitch": 91, "duration": 242, "velocity": 120}, {"time": 123121, "pitch": 77, "duration": 122, "velocity": 120}, {"time": 123121, "pitch": 89, "duration": 122, "velocity": 120}, {"time": 123364, "pitch": 77, "duration": 119, "velocity": 120}, {"time": 123364, "pitch": 89, "duration": 120, "velocity": 120}, {"time": 123840, "pitch": 77, "duration": 119, "velocity": 120}, {"time": 123840, "pitch": 89, "duration": 119, "velocity": 120}, {"time": 124316, "pitch": 77, "duration": 121, "velocity": 120}, {"time": 124316, "pitch": 89, "duration": 121, "velocity": 120}, {"time": 124558, "pitch": 72, "duration": 243, "velocity": 120}, {"time": 124558, "pitch": 84, "duration": 243, "velocity": 120}, {"time": 124801, "pitch": 74, "duration": 238, "velocity": 120}, {"time": 124801, "pitch": 86, "duration": 238, "velocity": 120}, {"time": 125039, "pitch": 77, "duration": 119, "velocity": 120}, {"time": 125039, "pitch": 89, "duration": 119, "velocity": 120}, {"time": 125277, "pitch": 77, "duration": 121, "velocity": 120}, {"time": 125277, "pitch": 89, "duration": 121, "velocity": 120}, {"time": 125762, "pitch": 77, "duration": 119, "velocity": 120}, {"time": 125762, "pitch": 89, "duration": 119, "velocity": 120}, {"time": 126238, "pitch": 77, "duration": 121, "velocity": 120}, {"time": 126238, "pitch": 89, "duration": 121, "velocity": 120}, {"time": 126480, "pitch": 81, "duration": 243, "velocity": 120}, {"time": 126480, "pitch": 93, "duration": 243, "velocity": 120}, {"time": 126723, "pitch": 79, "duration": 238, "velocity": 120}, {"time": 126723, "pitch": 91, "duration": 238, "velocity": 120}, {"time": 126961, "pitch": 77, "duration": 119, "velocity": 120}, {"time": 126961, "pitch": 89, "duration": 119, "velocity": 120}, {"time": 127199, "pitch": 77, "duration": 121, "velocity": 120}, {"time": 127199, "pitch": 89, "duration": 122, "velocity": 120}, {"time": 127684, "pitch": 77, "duration": 119, "velocity": 120}, {"time": 127684, "pitch": 89, "duration": 119, "velocity": 120}, {"time": 128160, "pitch": 77, "duration": 119, "velocity": 120}, {"time": 128160, "pitch": 89, "duration": 119, "velocity": 120}, {"time": 128398, "pitch": 72, "duration": 238, "velocity": 120}, {"time": 128398, "pitch": 84, "duration": 238, "velocity": 120}, {"time": 128636, "pitch": 74, "duration": 242, "velocity": 120}, {"time": 128636, "pitch": 86, "duration": 242, "velocity": 120}, {"time": 128878, "pitch": 77, "duration": 122, "velocity": 120}, {"time": 128878, "pitch": 89, "duration": 122, "velocity": 120}, {"time": 129121, "pitch": 77, "duration": 119, "velocity": 120}, {"time": 129121, "pitch": 89, "duration": 119, "velocity": 120}, {"time": 129597, "pitch": 77, "duration": 121, "velocity": 120}, {"time": 129597, "pitch": 89, "duration": 121, "velocity": 120}, {"time": 130082, "pitch": 77, "duration": 119, "velocity": 120}, {"time": 130082, "pitch": 89, "duration": 119, "velocity": 120}, {"time": 130320, "pitch": 81, "duration": 238, "velocity": 120}, {"time": 130320, "pitch": 93, "duration": 238, "velocity": 120}, {"time": 130558, "pitch": 79, "duration": 242, "velocity": 120}, {"time": 130558, "pitch": 91, "duration": 242, "velocity": 120}, {"time": 130800, "pitch": 77, "duration": 122, "velocity": 120}, {"time": 130800, "pitch": 89, "duration": 122, "velocity": 120}, {"time": 131043, "pitch": 77, "duration": 119, "velocity": 120}, {"time": 131043, "pitch": 89, "duration": 120, "velocity": 120}, {"time": 131519, "pitch": 77, "duration": 121, "velocity": 120}, {"time": 131519, "pitch": 89, "duration": 121, "velocity": 120}, {"time": 132004, "pitch": 77, "duration": 119, "velocity": 120}, {"time": 132004, "pitch": 89, "duration": 119, "velocity": 120}, {"time": 132242, "pitch": 72, "duration": 238, "velocity": 120}, {"time": 132242, "pitch": 84, "duration": 238, "velocity": 120}, {"time": 132480, "pitch": 74, "duration": 238, "velocity": 120}, {"time": 132480, "pitch": 86, "duration": 238, "velocity": 120}, {"time": 132718, "pitch": 77, "duration": 119, "velocity": 120}, {"time": 132718, "pitch": 89, "duration": 119, "velocity": 120}, {"time": 132956, "pitch": 77, "duration": 121, "velocity": 120}, {"time": 132956, "pitch": 89, "duration": 121, "velocity": 120}, {"time": 133441, "pitch": 77, "duration": 119, "velocity": 120}, {"time": 133441, "pitch": 89, "duration": 119, "velocity": 120}, {"time": 133917, "pitch": 77, "duration": 121, "velocity": 120}, {"time": 133917, "pitch": 89, "duration": 121, "velocity": 120}, {"time": 134159, "pitch": 81, "duration": 243, "velocity": 120}, {"time": 134159, "pitch": 93, "duration": 243, "velocity": 120}, {"time": 134402, "pitch": 79, "duration": 238, "velocity": 120}, {"time": 134402, "pitch": 91, "duration": 238, "velocity": 120}, {"time": 134640, "pitch": 77, "duration": 119, "velocity": 120}, {"time": 134640, "pitch": 89, "duration": 119, "velocity": 120}, {"time": 134878, "pitch": 77, "duration": 121, "velocity": 120}, {"time": 134878, "pitch": 89, "duration": 122, "velocity": 120}, {"time": 135363, "pitch": 77, "duration": 119, "velocity": 120}, {"time": 135363, "pitch": 89, "duration": 119, "velocity": 120}, {"time": 135839, "pitch": 77, "duration": 121, "velocity": 120}, {"time": 135839, "pitch": 89, "duration": 121, "velocity": 120}, {"time": 136081, "pitch": 72, "duration": 243, "velocity": 120}, {"time": 136081, "pitch": 84, "duration": 243, "velocity": 120}, {"time": 136324, "pitch": 74, "duration": 238, "velocity": 120}, {"time": 136324, "pitch": 86, "duration": 238, "velocity": 120}, {"time": 136562, "pitch": 77, "duration": 119, "velocity": 120}, {"time": 136562, "pitch": 89, "duration": 119, "velocity": 120}, {"time": 136800, "pitch": 77, "duration": 119, "velocity": 120}, {"time": 136800, "pitch": 89, "duration": 119, "velocity": 120}, {"time": 137276, "pitch": 77, "duration": 121, "velocity": 120}, {"time": 137276, "pitch": 89, "duration": 121, "velocity": 120}, {"time": 137761, "pitch": 77, "duration": 119, "velocity": 120}, {"time": 137761, "pitch": 89, "duration": 119, "velocity": 120}, {"time": 137999, "pitch": 81, "duration": 238, "velocity": 120}, {"time": 137999, "pitch": 93, "duration": 238, "velocity": 120}, {"time": 138237, "pitch": 79, "duration": 242, "velocity": 120}, {"time": 138237, "pitch": 91, "duration": 242, "velocity": 120}, {"time": 138479, "pitch": 77, "duration": 122, "velocity": 120}, {"time": 138479, "pitch": 89, "duration": 122, "velocity": 120}, {"time": 138722, "pitch": 77, "duration": 119, "velocity": 120}, {"time": 138722, "pitch": 89, "duration": 120, "velocity": 120}, {"time": 139198, "pitch": 77, "duration": 121, "velocity": 120}, {"time": 139198, "pitch": 89, "duration": 121, "velocity": 120}, {"time": 139683, "pitch": 77, "duration": 119, "velocity": 120}, {"time": 139683, "pitch": 89, "duration": 119, "velocity": 120}, {"time": 139921, "pitch": 72, "duration": 238, "velocity": 120}, {"time": 139921, "pitch": 84, "duration": 238, "velocity": 120}, {"time": 140159, "pitch": 74, "duration": 242, "velocity": 120}, {"time": 140159, "pitch": 86, "duration": 242, "velocity": 120}, {"time": 140401, "pitch": 77, "duration": 122, "velocity": 120}, {"time": 140401, "pitch": 89, "duration": 122, "velocity": 120}, {"time": 140644, "pitch": 77, "duration": 119, "velocity": 120}, {"time": 140644, "pitch": 89, "duration": 119, "velocity": 120}, {"time": 141120, "pitch": 77, "duration": 119, "velocity": 120}, {"time": 141120, "pitch": 89, "duration": 119, "velocity": 120}, {"time": 141596, "pitch": 77, "duration": 121, "velocity": 120}, {"time": 141596, "pitch": 89, "duration": 121, "velocity": 120}, {"time": 141838, "pitch": 81, "duration": 243, "velocity": 120}, {"time": 141838, "pitch": 93, "duration": 243, "velocity": 120}, {"time": 142081, "pitch": 79, "duration": 238, "velocity": 120}, {"time": 142081, "pitch": 91, "duration": 238, "velocity": 120}, {"time": 142319, "pitch": 77, "duration": 119, "velocity": 120}, {"time": 142319, "pitch": 89, "duration": 119, "velocity": 120}, {"time": 142557, "pitch": 77, "duration": 121, "velocity": 120}, {"time": 142557, "pitch": 89, "duration": 122, "velocity": 120}, {"time": 143042, "pitch": 77, "duration": 119, "velocity": 120}, {"time": 143042, "pitch": 89, "duration": 119, "velocity": 120}, {"time": 143518, "pitch": 77, "duration": 121, "velocity": 120}, {"time": 143518, "pitch": 89, "duration": 121, "velocity": 120}, {"time": 143760, "pitch": 72, "duration": 243, "velocity": 120}, {"time": 143760, "pitch": 84, "duration": 243, "velocity": 120}, {"time": 144003, "pitch": 74, "duration": 238, "velocity": 120}, {"time": 144003, "pitch": 86, "duration": 238, "velocity": 120}, {"time": 144241, "pitch": 77, "duration": 119, "velocity": 120}, {"time": 144241, "pitch": 89, "duration": 119, "velocity": 120}, {"time": 144479, "pitch": 77, "duration": 121, "velocity": 120}, {"time": 144479, "pitch": 89, "duration": 121, "velocity": 120}, {"time": 144964, "pitch": 77, "duration": 119, "velocity": 120}, {"time": 144964, "pitch": 89, "duration": 119, "velocity": 120}, {"time": 145440, "pitch": 77, "duration": 119, "velocity": 120}, {"time": 145440, "pitch": 89, "duration": 119, "velocity": 120}, {"time": 145678, "pitch": 81, "duration": 238, "velocity": 120}, {"time": 145678, "pitch": 93, "duration": 238, "velocity": 120}, {"time": 145916, "pitch": 79, "duration": 242, "velocity": 120}, {"time": 145916, "pitch": 91, "duration": 242, "velocity": 120}, {"time": 146158, "pitch": 77, "duration": 122, "velocity": 120}, {"time": 146158, "pitch": 89, "duration": 122, "velocity": 120}, {"time": 146401, "pitch": 77, "duration": 119, "velocity": 120}, {"time": 146401, "pitch": 89, "duration": 120, "velocity": 120}, {"time": 146877, "pitch": 77, "duration": 121, "velocity": 120}, {"time": 146877, "pitch": 89, "duration": 121, "velocity": 120}, {"time": 147362, "pitch": 77, "duration": 119, "velocity": 120}, {"time": 147362, "pitch": 89, "duration": 119, "velocity": 120}, {"time": 147600, "pitch": 72, "duration": 238, "velocity": 120}, {"time": 147600, "pitch": 84, "duration": 238, "velocity": 120}, {"time": 147838, "pitch": 74, "duration": 242, "velocity": 120}, {"time": 147838, "pitch": 86, "duration": 242, "velocity": 120}, {"time": 148080, "pitch": 77, "duration": 122, "velocity": 120}, {"time": 148080, "pitch": 89, "duration": 122, "velocity": 120}, {"time": 148323, "pitch": 77, "duration": 119, "velocity": 120}, {"time": 148323, "pitch": 89, "duration": 119, "velocity": 120}, {"time": 148799, "pitch": 77, "duration": 121, "velocity": 120}, {"time": 148799, "pitch": 89, "duration": 121, "velocity": 120}, {"time": 149284, "pitch": 77, "duration": 119, "velocity": 120}, {"time": 149284, "pitch": 89, "duration": 119, "velocity": 120}, {"time": 149522, "pitch": 81, "duration": 238, "velocity": 120}, {"time": 149522, "pitch": 93, "duration": 238, "velocity": 120}, {"time": 149760, "pitch": 79, "duration": 238, "velocity": 120}, {"time": 149760, "pitch": 91, "duration": 238, "velocity": 120}, {"time": 149998, "pitch": 77, "duration": 119, "velocity": 120}, {"time": 149998, "pitch": 89, "duration": 119, "velocity": 120}, {"time": 150236, "pitch": 77, "duration": 121, "velocity": 120}, {"time": 150236, "pitch": 89, "duration": 122, "velocity": 120}, {"time": 150721, "pitch": 77, "duration": 119, "velocity": 120}, {"time": 150721, "pitch": 89, "duration": 119, "velocity": 120}, {"time": 151197, "pitch": 77, "duration": 121, "velocity": 120}, {"time": 151197, "pitch": 89, "duration": 121, "velocity": 120}, {"time": 151439, "pitch": 72, "duration": 243, "velocity": 120}, {"time": 151439, "pitch": 84, "duration": 243, "velocity": 120}, {"time": 151682, "pitch": 74, "duration": 238, "velocity": 120}, {"time": 151682, "pitch": 86, "duration": 238, "velocity": 120}, {"time": 151920, "pitch": 77, "duration": 119, "velocity": 120}, {"time": 151920, "pitch": 89, "duration": 119, "velocity": 120}, {"time": 152158, "pitch": 77, "duration": 121, "velocity": 120}, {"time": 152158, "pitch": 89, "duration": 121, "velocity": 120}, {"time": 152643, "pitch": 77, "duration": 119, "velocity": 120}, {"time": 152643, "pitch": 89, "duration": 119, "velocity": 120}, {"time": 153119, "pitch": 77, "duration": 121, "velocity": 120}, {"time": 153119, "pitch": 89, "duration": 121, "velocity": 120}, {"time": 153361, "pitch": 81, "duration": 243, "velocity": 120}, {"time": 153361, "pitch": 93, "duration": 243, "velocity": 120}, {"time": 153604, "pitch": 79, "duration": 238, "velocity": 120}, {"time": 153604, "pitch": 91, "duration": 238, "velocity": 120}, {"time": 153842, "pitch": 77, "duration": 119, "velocity": 120}, {"time": 153842, "pitch": 89, "duration": 119, "velocity": 120}, {"time": 154080, "pitch": 77, "duration": 119, "velocity": 120}, {"time": 154080, "pitch": 89, "duration": 120, "velocity": 120}, {"time": 154556, "pitch": 77, "duration": 121, "velocity": 120}, {"time": 154556, "pitch": 89, "duration": 121, "velocity": 120}, {"time": 155041, "pitch": 77, "duration": 119, "velocity": 120}, {"time": 155041, "pitch": 89, "duration": 119, "velocity": 120}, {"time": 155279, "pitch": 72, "duration": 238, "velocity": 120}, {"time": 155279, "pitch": 84, "duration": 238, "velocity": 120}, {"time": 155517, "pitch": 74, "duration": 242, "velocity": 120}, {"time": 155517, "pitch": 86, "duration": 242, "velocity": 120}, {"time": 155759, "pitch": 77, "duration": 122, "velocity": 120}, {"time": 155759, "pitch": 89, "duration": 122, "velocity": 120}, {"time": 156002, "pitch": 77, "duration": 119, "velocity": 120}, {"time": 156002, "pitch": 89, "duration": 119, "velocity": 120}, {"time": 156478, "pitch": 77, "duration": 121, "velocity": 120}, {"time": 156478, "pitch": 89, "duration": 121, "velocity": 120}, {"time": 156963, "pitch": 77, "duration": 119, "velocity": 120}, {"time": 156963, "pitch": 89, "duration": 119, "velocity": 120}, {"time": 157201, "pitch": 81, "duration": 238, "velocity": 120}, {"time": 157201, "pitch": 93, "duration": 238, "velocity": 120}, {"time": 157439, "pitch": 79, "duration": 242, "velocity": 120}, {"time": 157439, "pitch": 91, "duration": 242, "velocity": 120}, {"time": 157681, "pitch": 77, "duration": 122, "velocity": 120}, {"time": 157681, "pitch": 89, "duration": 122, "velocity": 120}, {"time": 157924, "pitch": 77, "duration": 119, "velocity": 120}, {"time": 157924, "pitch": 89, "duration": 120, "velocity": 120}, {"time": 158400, "pitch": 77, "duration": 119, "velocity": 120}, {"time": 158400, "pitch": 89, "duration": 119, "velocity": 120}, {"time": 158876, "pitch": 77, "duration": 121, "velocity": 120}, {"time": 158876, "pitch": 89, "duration": 121, "velocity": 120}, {"time": 159118, "pitch": 72, "duration": 243, "velocity": 120}, {"time": 159118, "pitch": 84, "duration": 243, "velocity": 120}, {"time": 159361, "pitch": 74, "duration": 238, "velocity": 120}, {"time": 159361, "pitch": 86, "duration": 238, "velocity": 120}, {"time": 159599, "pitch": 77, "duration": 119, "velocity": 120}, {"time": 159599, "pitch": 89, "duration": 119, "velocity": 120}, {"time": 159837, "pitch": 77, "duration": 121, "velocity": 120}, {"time": 159837, "pitch": 89, "duration": 121, "velocity": 120}, {"time": 160322, "pitch": 77, "duration": 119, "velocity": 120}, {"time": 160322, "pitch": 89, "duration": 119, "velocity": 120}, {"time": 160798, "pitch": 77, "duration": 119, "velocity": 120}, {"time": 160798, "pitch": 89, "duration": 119, "velocity": 120}, {"time": 161036, "pitch": 81, "duration": 238, "velocity": 120}, {"time": 161036, "pitch": 93, "duration": 238, "velocity": 120}, {"time": 161274, "pitch": 79, "duration": 238, "velocity": 120}, {"time": 161274, "pitch": 91, "duration": 238, "velocity": 120}, {"time": 161512, "pitch": 77, "duration": 119, "velocity": 120}, {"time": 161512, "pitch": 89, "duration": 119, "velocity": 120}, {"time": 161750, "pitch": 77, "duration": 119, "velocity": 120}, {"time": 161750, "pitch": 89, "duration": 120, "velocity": 120}, {"time": 162227, "pitch": 77, "duration": 119, "velocity": 120}, {"time": 162227, "pitch": 89, "duration": 119, "velocity": 120}, {"time": 162703, "pitch": 77, "duration": 119, "velocity": 120}, {"time": 162703, "pitch": 89, "duration": 119, "velocity": 120}, {"time": 162941, "pitch": 72, "duration": 238, "velocity": 120}, {"time": 162941, "pitch": 84, "duration": 238, "velocity": 120}, {"time": 163179, "pitch": 74, "duration": 238, "velocity": 120}, {"time": 163179, "pitch": 86, "duration": 238, "velocity": 120}, {"time": 163417, "pitch": 77, "duration": 119, "velocity": 120}, {"time": 163417, "pitch": 89, "duration": 119, "velocity": 120}, {"time": 163655, "pitch": 77, "duration": 119, "velocity": 120}, {"time": 163655, "pitch": 89, "duration": 119, "velocity": 120}, {"time": 164131, "pitch": 77, "duration": 119, "velocity": 120}, {"time": 164131, "pitch": 89, "duration": 119, "velocity": 120}, {"time": 164607, "pitch": 77, "duration": 120, "velocity": 120}, {"time": 164607, "pitch": 89, "duration": 120, "velocity": 120}, {"time": 164846, "pitch": 81, "duration": 238, "velocity": 120}, {"time": 164846, "pitch": 93, "duration": 238, "velocity": 120}, {"time": 165084, "pitch": 79, "duration": 238, "velocity": 120}, {"time": 165084, "pitch": 91, "duration": 238, "velocity": 120}, {"time": 165322, "pitch": 77, "duration": 119, "velocity": 120}, {"time": 165322, "pitch": 89, "duration": 119, "velocity": 120}], "annotations": [{"time": 284, "annotation": {"number": 7, "value": 120}, "group": "control_change"}, {"time": 306, "annotation": {"number": 11, "value": 110}, "group": "control_change"}, {"time": 328, "annotation": {"number": 10, "value": 68}, "group": "control_change"}, {"time": 350, "annotation": {"number": 91, "value": 40}, "group": "control_change"}, {"time": 372, "annotation": {"number": 93, "value": 20}, "group": "control_change"}, {"time": 394, "annotation": {"number": 101, "value": 0}, "group": "control_change"}, {"time": 415, "annotation": {"number": 100, "value": 0}, "group": "control_change"}, {"time": 437, "annotation": {"number": 6, "value": 12}, "group": "control_change"}, {"time": 459, "annotation": {"number": 101, "value": 127}, "group": "control_change"}, {"time": 482, "annotation": {"number": 100, "value": 127}, "group": "control_change"}, {"time": 152158, "annotation": {"number": 11, "value": 110}, "group": "control_change"}, {"time": 152279, "annotation": {"number": 11, "value": 109}, "group": "control_change"}, {"time": 152400, "annotation": {"number": 11, "value": 108}, "group": "control_change"}, {"time": 152522, "annotation": {"number": 11, "value": 107}, "group": "control_change"}, {"time": 152643, "annotation": {"number": 11, "value": 106}, "group": "control_change"}, {"time": 152762, "annotation": {"number": 11, "value": 105}, "group": "control_change"}, {"time": 152881, "annotation": {"number": 11, "value": 104}, "group": "control_change"}, {"time": 153000, "annotation": {"number": 11, "value": 103}, "group": "control_change"}, {"time": 153119, "annotation": {"number": 11, "value": 102}, "group": "control_change"}, {"time": 153240, "annotation": {"number": 11, "value": 101}, "group": "control_change"}, {"time": 153361, "annotation": {"number": 11, "value": 100}, "group": "control_change"}, {"time": 153483, "annotation": {"number": 11, "value": 99}, "group": "control_change"}, {"time": 153604, "annotation": {"number": 11, "value": 98}, "group": "control_change"}, {"time": 153723, "annotation": {"number": 11, "value": 97}, "group": "control_change"}, {"time": 153842, "annotation": {"number": 11, "value": 96}, "group": "control_change"}, {"time": 153961, "annotation": {"number": 11, "value": 95}, "group": "control_change"}, {"time": 154080, "annotation": {"number": 11, "value": 94}, "group": "control_change"}, {"time": 154199, "annotation": {"number": 11, "value": 93}, "group": "control_change"}, {"time": 154318, "annotation": {"number": 11, "value": 92}, "group": "control_change"}, {"time": 154437, "annotation": {"number": 11, "value": 91}, "group": "control_change"}, {"time": 154556, "annotation": {"number": 11, "value": 90}, "group": "control_change"}, {"time": 154677, "annotation": {"number": 11, "value": 89}, "group": "control_change"}, {"time": 154798, "annotation": {"number": 11, "value": 88}, "group": "control_change"}, {"time": 154920, "annotation": {"number": 11, "value": 87}, "group": "control_change"}, {"time": 155041, "annotation": {"number": 11, "value": 86}, "group": "control_change"}, {"time": 155160, "annotation": {"number": 11, "value": 85}, "group": "control_change"}, {"time": 155279, "annotation": {"number": 11, "value": 84}, "group": "control_change"}, {"time": 155398, "annotation": {"number": 11, "value": 83}, "group": "control_change"}, {"time": 155517, "annotation": {"number": 11, "value": 82}, "group": "control_change"}, {"time": 155638, "annotation": {"number": 11, "value": 81}, "group": "control_change"}, {"time": 155759, "annotation": {"number": 11, "value": 80}, "group": "control_change"}, {"time": 155881, "annotation": {"number": 11, "value": 79}, "group": "control_change"}, {"time": 156002, "annotation": {"number": 11, "value": 78}, "group": "control_change"}, {"time": 156121, "annotation": {"number": 11, "value": 77}, "group": "control_change"}, {"time": 156240, "annotation": {"number": 11, "value": 76}, "group": "control_change"}, {"time": 156359, "annotation": {"number": 11, "value": 75}, "group": "control_change"}, {"time": 156478, "annotation": {"number": 11, "value": 74}, "group": "control_change"}, {"time": 156599, "annotation": {"number": 11, "value": 73}, "group": "control_change"}, {"time": 156720, "annotation": {"number": 11, "value": 72}, "group": "control_change"}, {"time": 156842, "annotation": {"number": 11, "value": 71}, "group": "control_change"}, {"time": 156963, "annotation": {"number": 11, "value": 70}, "group": "control_change"}, {"time": 157082, "annotation": {"number": 11, "value": 69}, "group": "control_change"}, {"time": 157201, "annotation": {"number": 11, "value": 68}, "group": "control_change"}, {"time": 157320, "annotation": {"number": 11, "value": 67}, "group": "control_change"}, {"time": 157439, "annotation": {"number": 11, "value": 66}, "group": "control_change"}, {"time": 157560, "annotation": {"number": 11, "value": 65}, "group": "control_change"}, {"time": 157681, "annotation": {"number": 11, "value": 64}, "group": "control_change"}, {"time": 157803, "annotation": {"number": 11, "value": 63}, "group": "control_change"}, {"time": 157924, "annotation": {"number": 11, "value": 62}, "group": "control_change"}, {"time": 158043, "annotation": {"number": 11, "value": 61}, "group": "control_change"}, {"time": 158162, "annotation": {"number": 11, "value": 60}, "group": "control_change"}, {"time": 158281, "annotation": {"number": 11, "value": 59}, "group": "control_change"}, {"time": 158400, "annotation": {"number": 11, "value": 58}, "group": "control_change"}, {"time": 158519, "annotation": {"number": 11, "value": 57}, "group": "control_change"}, {"time": 158638, "annotation": {"number": 11, "value": 56}, "group": "control_change"}, {"time": 158757, "annotation": {"number": 11, "value": 55}, "group": "control_change"}, {"time": 158999, "annotation": {"number": 11, "value": 54}, "group": "control_change"}, {"time": 159120, "annotation": {"number": 11, "value": 53}, "group": "control_change"}, {"time": 159242, "annotation": {"number": 11, "value": 52}, "group": "control_change"}, {"time": 159363, "annotation": {"number": 11, "value": 51}, "group": "control_change"}, {"time": 159482, "annotation": {"number": 11, "value": 50}, "group": "control_change"}, {"time": 159601, "annotation": {"number": 11, "value": 49}, "group": "control_change"}, {"time": 159720, "annotation": {"number": 11, "value": 48}, "group": "control_change"}, {"time": 159839, "annotation": {"number": 11, "value": 47}, "group": "control_change"}, {"time": 159960, "annotation": {"number": 11, "value": 46}, "group": "control_change"}, {"time": 160081, "annotation": {"number": 11, "value": 45}, "group": "control_change"}, {"time": 160203, "annotation": {"number": 11, "value": 44}, "group": "control_change"}, {"time": 160324, "annotation": {"number": 11, "value": 43}, "group": "control_change"}, {"time": 160443, "annotation": {"number": 11, "value": 42}, "group": "control_change"}, {"time": 160562, "annotation": {"number": 11, "value": 41}, "group": "control_change"}, {"time": 160681, "annotation": {"number": 11, "value": 40}, "group": "control_change"}, {"time": 160800, "annotation": {"number": 11, "value": 39}, "group": "control_change"}, {"time": 160919, "annotation": {"number": 11, "value": 38}, "group": "control_change"}, {"time": 161038, "annotation": {"number": 11, "value": 37}, "group": "control_change"}, {"time": 161157, "annotation": {"number": 11, "value": 36}, "group": "control_change"}, {"time": 161276, "annotation": {"number": 11, "value": 35}, "group": "control_change"}, {"time": 161395, "annotation": {"number": 11, "value": 34}, "group": "control_change"}, {"time": 161514, "annotation": {"number": 11, "value": 33}, "group": "control_change"}, {"time": 161633, "annotation": {"number": 11, "value": 32}, "group": "control_change"}, {"time": 161752, "annotation": {"number": 11, "value": 31}, "group": "control_change"}, {"time": 161871, "annotation": {"number": 11, "value": 30}, "group": "control_change"}, {"time": 161990, "annotation": {"number": 11, "value": 29}, "group": "control_change"}, {"time": 162109, "annotation": {"number": 11, "value": 28}, "group": "control_change"}, {"time": 162228, "annotation": {"number": 11, "value": 27}, "group": "control_change"}, {"time": 162348, "annotation": {"number": 11, "value": 26}, "group": "control_change"}, {"time": 162467, "annotation": {"number": 11, "value": 25}, "group": "control_change"}, {"time": 162586, "annotation": {"number": 11, "value": 24}, "group": "control_change"}, {"time": 162705, "annotation": {"number": 11, "value": 23}, "group": "control_change"}, {"time": 162824, "annotation": {"number": 11, "value": 22}, "group": "control_change"}, {"time": 162943, "annotation": {"number": 11, "value": 21}, "group": "control_change"}, {"time": 163062, "annotation": {"number": 11, "value": 20}, "group": "control_change"}, {"time": 163181, "annotation": {"number": 11, "value": 19}, "group": "control_change"}, {"time": 163300, "annotation": {"number": 11, "value": 18}, "group": "control_change"}, {"time": 163419, "annotation": {"number": 11, "value": 17}, "group": "control_change"}, {"time": 163538, "annotation": {"number": 11, "value": 16}, "group": "control_change"}, {"time": 163657, "annotation": {"number": 11, "value": 15}, "group": "control_change"}, {"time": 163776, "annotation": {"number": 11, "value": 14}, "group": "control_change"}, {"time": 163895, "annotation": {"number": 11, "value": 13}, "group": "control_change"}, {"time": 164014, "annotation": {"number": 11, "value": 12}, "group": "control_change"}, {"time": 164133, "annotation": {"number": 11, "value": 11}, "group": "control_change"}, {"time": 164252, "annotation": {"number": 11, "value": 10}, "group": "control_change"}, {"time": 164371, "annotation": {"number": 11, "value": 9}, "group": "control_change"}, {"time": 164490, "annotation": {"number": 11, "value": 8}, "group": "control_change"}, {"time": 164609, "annotation": {"number": 11, "value": 7}, "group": "control_change"}, {"time": 164728, "annotation": {"number": 11, "value": 6}, "group": "control_change"}, {"time": 164848, "annotation": {"number": 11, "value": 5}, "group": "control_change"}, {"time": 164967, "annotation": {"number": 11, "value": 4}, "group": "control_change"}, {"time": 165086, "annotation": {"number": 11, "value": 3}, "group": "control_change"}, {"time": 165205, "annotation": {"number": 11, "value": 2}, "group": "control_change"}, {"time": 165324, "annotation": {"number": 11, "value": 1}, "group": "control_change"}, {"time": 165443, "annotation": {"number": 11, "value": 0}, "group": "control_change"}, {"time": 165560, "annotation": {"number": 11, "value": 0}, "group": "control_change"}]}, {"program": 0, "is_drum": false, "name": "BELL", "annotations": [{"time": 219, "annotation": {"number": 0, "value": 0}, "group": "control_change"}, {"time": 241, "annotation": {"number": 32, "value": 2}, "group": "control_change"}]}, {"program": 98, "is_drum": false, "name": "BELL", "notes": [{"time": 104400, "pitch": 70, "duration": 59, "velocity": 120}, {"time": 104400, "pitch": 82, "duration": 59, "velocity": 120}, {"time": 104519, "pitch": 72, "duration": 59, "velocity": 120}, {"time": 104519, "pitch": 84, "duration": 59, "velocity": 120}, {"time": 104638, "pitch": 82, "duration": 61, "velocity": 120}, {"time": 104638, "pitch": 94, "duration": 61, "velocity": 120}, {"time": 104759, "pitch": 84, "duration": 61, "velocity": 120}, {"time": 104759, "pitch": 96, "duration": 61, "velocity": 120}, {"time": 104880, "pitch": 89, "duration": 61, "velocity": 120}, {"time": 104880, "pitch": 101, "duration": 61, "velocity": 120}, {"time": 105002, "pitch": 84, "duration": 60, "velocity": 120}, {"time": 105002, "pitch": 96, "duration": 60, "velocity": 120}, {"time": 105123, "pitch": 82, "duration": 59, "velocity": 120}, {"time": 105123, "pitch": 94, "duration": 59, "velocity": 120}, {"time": 105242, "pitch": 77, "duration": 59, "velocity": 120}, {"time": 105242, "pitch": 89, "duration": 59, "velocity": 120}, {"time": 105361, "pitch": 72, "duration": 59, "velocity": 120}, {"time": 105361, "pitch": 84, "duration": 59, "velocity": 120}, {"time": 105480, "pitch": 77, "duration": 59, "velocity": 120}, {"time": 105480, "pitch": 89, "duration": 59, "velocity": 120}, {"time": 105599, "pitch": 72, "duration": 61, "velocity": 120}, {"time": 105599, "pitch": 84, "duration": 61, "velocity": 120}, {"time": 105720, "pitch": 82, "duration": 61, "velocity": 120}, {"time": 105720, "pitch": 94, "duration": 61, "velocity": 120}, {"time": 105841, "pitch": 84, "duration": 61, "velocity": 120}, {"time": 105841, "pitch": 96, "duration": 61, "velocity": 120}, {"time": 105963, "pitch": 82, "duration": 60, "velocity": 120}, {"time": 105963, "pitch": 94, "duration": 60, "velocity": 120}, {"time": 106322, "pitch": 70, "duration": 59, "velocity": 120}, {"time": 106322, "pitch": 82, "duration": 59, "velocity": 120}, {"time": 106441, "pitch": 72, "duration": 59, "velocity": 120}, {"time": 106441, "pitch": 84, "duration": 59, "velocity": 120}, {"time": 106560, "pitch": 82, "duration": 59, "velocity": 120}, {"time": 106560, "pitch": 94, "duration": 59, "velocity": 120}, {"time": 106679, "pitch": 84, "duration": 59, "velocity": 120}, {"time": 106679, "pitch": 96, "duration": 59, "velocity": 120}, {"time": 106798, "pitch": 89, "duration": 60, "velocity": 120}, {"time": 106798, "pitch": 101, "duration": 60, "velocity": 120}, {"time": 106917, "pitch": 84, "duration": 60, "velocity": 120}, {"time": 106917, "pitch": 96, "duration": 60, "velocity": 120}, {"time": 107036, "pitch": 82, "duration": 61, "velocity": 120}, {"time": 107036, "pitch": 94, "duration": 61, "velocity": 120}, {"time": 107157, "pitch": 77, "duration": 61, "velocity": 120}, {"time": 107157, "pitch": 89, "duration": 61, "velocity": 120}, {"time": 107278, "pitch": 72, "duration": 61, "velocity": 120}, {"time": 107278, "pitch": 84, "duration": 61, "velocity": 120}, {"time": 107400, "pitch": 77, "duration": 60, "velocity": 120}, {"time": 107400, "pitch": 89, "duration": 60, "velocity": 120}, {"time": 107521, "pitch": 72, "duration": 59, "velocity": 120}, {"time": 107521, "pitch": 84, "duration": 59, "velocity": 120}, {"time": 107640, "pitch": 82, "duration": 59, "velocity": 120}, {"time": 107640, "pitch": 94, "duration": 59, "velocity": 120}, {"time": 107759, "pitch": 84, "duration": 59, "velocity": 120}, {"time": 107759, "pitch": 96, "duration": 59, "velocity": 120}, {"time": 107878, "pitch": 82, "duration": 60, "velocity": 120}, {"time": 107878, "pitch": 94, "duration": 60, "velocity": 120}, {"time": 108239, "pitch": 70, "duration": 61, "velocity": 120}, {"time": 108239, "pitch": 82, "duration": 61, "velocity": 120}, {"time": 108361, "pitch": 72, "duration": 60, "velocity": 120}, {"time": 108361, "pitch": 84, "duration": 60, "velocity": 120}, {"time": 108482, "pitch": 82, "duration": 59, "velocity": 120}, {"time": 108482, "pitch": 94, "duration": 59, "velocity": 120}, {"time": 108601, "pitch": 84, "duration": 59, "velocity": 120}, {"time": 108601, "pitch": 96, "duration": 59, "velocity": 120}, {"time": 108720, "pitch": 89, "duration": 59, "velocity": 120}, {"time": 108720, "pitch": 101, "duration": 59, "velocity": 120}, {"time": 108839, "pitch": 84, "duration": 59, "velocity": 120}, {"time": 108839, "pitch": 96, "duration": 59, "velocity": 120}, {"time": 108958, "pitch": 82, "duration": 61, "velocity": 120}, {"time": 108958, "pitch": 94, "duration": 61, "velocity": 120}, {"time": 109079, "pitch": 77, "duration": 61, "velocity": 120}, {"time": 109079, "pitch": 89, "duration": 61, "velocity": 120}, {"time": 109200, "pitch": 72, "duration": 61, "velocity": 120}, {"time": 109200, "pitch": 84, "duration": 61, "velocity": 120}, {"time": 109322, "pitch": 77, "duration": 60, "velocity": 120}, {"time": 109322, "pitch": 89, "duration": 60, "velocity": 120}, {"time": 109443, "pitch": 72, "duration": 59, "velocity": 120}, {"time": 109443, "pitch": 84, "duration": 59, "velocity": 120}, {"time": 109562, "pitch": 82, "duration": 59, "velocity": 120}, {"time": 109562, "pitch": 94, "duration": 59, "velocity": 120}, {"time": 109681, "pitch": 84, "duration": 59, "velocity": 120}, {"time": 109681, "pitch": 96, "duration": 59, "velocity": 120}, {"time": 109800, "pitch": 82, "duration": 59, "velocity": 120}, {"time": 109800, "pitch": 94, "duration": 59, "velocity": 120}, {"time": 110161, "pitch": 70, "duration": 61, "velocity": 120}, {"time": 110161, "pitch": 82, "duration": 61, "velocity": 120}, {"time": 110283, "pitch": 72, "duration": 60, "velocity": 120}, {"time": 110283, "pitch": 84, "duration": 60, "velocity": 120}, {"time": 110404, "pitch": 82, "duration": 59, "velocity": 120}, {"time": 110404, "pitch": 94, "duration": 59, "velocity": 120}, {"time": 110523, "pitch": 84, "duration": 59, "velocity": 120}, {"time": 110523, "pitch": 96, "duration": 59, "velocity": 120}, {"time": 110642, "pitch": 89, "duration": 59, "velocity": 120}, {"time": 110642, "pitch": 101, "duration": 59, "velocity": 120}, {"time": 110761, "pitch": 84, "duration": 59, "velocity": 120}, {"time": 110761, "pitch": 96, "duration": 59, "velocity": 120}, {"time": 110880, "pitch": 82, "duration": 59, "velocity": 120}, {"time": 110880, "pitch": 94, "duration": 59, "velocity": 120}, {"time": 110999, "pitch": 77, "duration": 59, "velocity": 120}, {"time": 110999, "pitch": 89, "duration": 59, "velocity": 120}, {"time": 111118, "pitch": 72, "duration": 60, "velocity": 120}, {"time": 111118, "pitch": 84, "duration": 60, "velocity": 120}, {"time": 111237, "pitch": 77, "duration": 60, "velocity": 120}, {"time": 111237, "pitch": 89, "duration": 60, "velocity": 120}, {"time": 111356, "pitch": 72, "duration": 61, "velocity": 120}, {"time": 111356, "pitch": 84, "duration": 61, "velocity": 120}, {"time": 111477, "pitch": 82, "duration": 61, "velocity": 120}, {"time": 111477, "pitch": 94, "duration": 61, "velocity": 120}, {"time": 111598, "pitch": 84, "duration": 61, "velocity": 120}, {"time": 111598, "pitch": 96, "duration": 61, "velocity": 120}, {"time": 111720, "pitch": 82, "duration": 60, "velocity": 120}, {"time": 111720, "pitch": 94, "duration": 60, "velocity": 120}, {"time": 112079, "pitch": 70, "duration": 59, "velocity": 120}, {"time": 112079, "pitch": 82, "duration": 59, "velocity": 120}, {"time": 112198, "pitch": 72, "duration": 60, "velocity": 120}, {"time": 112198, "pitch": 84, "duration": 60, "velocity": 120}, {"time": 112317, "pitch": 82, "duration": 61, "velocity": 120}, {"time": 112317, "pitch": 94, "duration": 61, "velocity": 120}, {"time": 112438, "pitch": 84, "duration": 61, "velocity": 120}, {"time": 112438, "pitch": 96, "duration": 61, "velocity": 120}, {"time": 112559, "pitch": 89, "duration": 61, "velocity": 120}, {"time": 112559, "pitch": 101, "duration": 61, "velocity": 120}, {"time": 112681, "pitch": 84, "duration": 60, "velocity": 120}, {"time": 112681, "pitch": 96, "duration": 60, "velocity": 120}, {"time": 112802, "pitch": 82, "duration": 59, "velocity": 120}, {"time": 112802, "pitch": 94, "duration": 59, "velocity": 120}, {"time": 112921, "pitch": 77, "duration": 59, "velocity": 120}, {"time": 112921, "pitch": 89, "duration": 59, "velocity": 120}, {"time": 113040, "pitch": 72, "duration": 59, "velocity": 120}, {"time": 113040, "pitch": 84, "duration": 59, "velocity": 120}, {"time": 113159, "pitch": 77, "duration": 59, "velocity": 120}, {"time": 113159, "pitch": 89, "duration": 59, "velocity": 120}, {"time": 113278, "pitch": 72, "duration": 61, "velocity": 120}, {"time": 113278, "pitch": 84, "duration": 61, "velocity": 120}, {"time": 113399, "pitch": 82, "duration": 61, "velocity": 120}, {"time": 113399, "pitch": 94, "duration": 61, "velocity": 120}, {"time": 113520, "pitch": 84, "duration": 61, "velocity": 120}, {"time": 113520, "pitch": 96, "duration": 61, "velocity": 120}, {"time": 113642, "pitch": 82, "duration": 60, "velocity": 120}, {"time": 113642, "pitch": 94, "duration": 60, "velocity": 120}, {"time": 114001, "pitch": 70, "duration": 59, "velocity": 120}, {"time": 114001, "pitch": 82, "duration": 59, "velocity": 120}, {"time": 114120, "pitch": 72, "duration": 59, "velocity": 120}, {"time": 114120, "pitch": 84, "duration": 59, "velocity": 120}, {"time": 114239, "pitch": 82, "duration": 61, "velocity": 120}, {"time": 114239, "pitch": 94, "duration": 61, "velocity": 120}, {"time": 114360, "pitch": 84, "duration": 61, "velocity": 120}, {"time": 114360, "pitch": 96, "duration": 61, "velocity": 120}, {"time": 114481, "pitch": 89, "duration": 61, "velocity": 120}, {"time": 114481, "pitch": 101, "duration": 61, "velocity": 120}, {"time": 114603, "pitch": 84, "duration": 60, "velocity": 120}, {"time": 114603, "pitch": 96, "duration": 60, "velocity": 120}, {"time": 114724, "pitch": 82, "duration": 59, "velocity": 120}, {"time": 114724, "pitch": 94, "duration": 59, "velocity": 120}, {"time": 114843, "pitch": 77, "duration": 59, "velocity": 120}, {"time": 114843, "pitch": 89, "duration": 59, "velocity": 120}, {"time": 114962, "pitch": 72, "duration": 59, "velocity": 120}, {"time": 114962, "pitch": 84, "duration": 59, "velocity": 120}, {"time": 115081, "pitch": 77, "duration": 59, "velocity": 120}, {"time": 115081, "pitch": 89, "duration": 59, "velocity": 120}, {"time": 115200, "pitch": 72, "duration": 59, "velocity": 120}, {"time": 115200, "pitch": 84, "duration": 59, "velocity": 120}, {"time": 115319, "pitch": 82, "duration": 59, "velocity": 120}, {"time": 115319, "pitch": 94, "duration": 59, "velocity": 120}, {"time": 115438, "pitch": 84, "duration": 60, "velocity": 120}, {"time": 115438, "pitch": 96, "duration": 60, "velocity": 120}, {"time": 115557, "pitch": 82, "duration": 60, "velocity": 120}, {"time": 115557, "pitch": 94, "duration": 60, "velocity": 120}, {"time": 115918, "pitch": 70, "duration": 61, "velocity": 120}, {"time": 115918, "pitch": 82, "duration": 61, "velocity": 120}, {"time": 116040, "pitch": 72, "duration": 60, "velocity": 120}, {"time": 116040, "pitch": 84, "duration": 60, "velocity": 120}, {"time": 116161, "pitch": 82, "duration": 59, "velocity": 120}, {"time": 116161, "pitch": 94, "duration": 59, "velocity": 120}, {"time": 116280, "pitch": 84, "duration": 59, "velocity": 120}, {"time": 116280, "pitch": 96, "duration": 59, "velocity": 120}, {"time": 116399, "pitch": 89, "duration": 59, "velocity": 120}, {"time": 116399, "pitch": 101, "duration": 59, "velocity": 120}, {"time": 116518, "pitch": 84, "duration": 60, "velocity": 120}, {"time": 116518, "pitch": 96, "duration": 60, "velocity": 120}, {"time": 116637, "pitch": 82, "duration": 61, "velocity": 120}, {"time": 116637, "pitch": 94, "duration": 61, "velocity": 120}, {"time": 116758, "pitch": 77, "duration": 61, "velocity": 120}, {"time": 116758, "pitch": 89, "duration": 61, "velocity": 120}, {"time": 116879, "pitch": 72, "duration": 61, "velocity": 120}, {"time": 116879, "pitch": 84, "duration": 61, "velocity": 120}, {"time": 117001, "pitch": 77, "duration": 60, "velocity": 120}, {"time": 117001, "pitch": 89, "duration": 60, "velocity": 120}, {"time": 117122, "pitch": 72, "duration": 59, "velocity": 120}, {"time": 117122, "pitch": 84, "duration": 59, "velocity": 120}, {"time": 117241, "pitch": 82, "duration": 59, "velocity": 120}, {"time": 117241, "pitch": 94, "duration": 59, "velocity": 120}, {"time": 117360, "pitch": 84, "duration": 59, "velocity": 120}, {"time": 117360, "pitch": 96, "duration": 59, "velocity": 120}, {"time": 117479, "pitch": 82, "duration": 59, "velocity": 120}, {"time": 117479, "pitch": 94, "duration": 59, "velocity": 120}, {"time": 117840, "pitch": 70, "duration": 61, "velocity": 120}, {"time": 117840, "pitch": 82, "duration": 61, "velocity": 120}, {"time": 117962, "pitch": 72, "duration": 60, "velocity": 120}, {"time": 117962, "pitch": 84, "duration": 60, "velocity": 120}, {"time": 118083, "pitch": 82, "duration": 59, "velocity": 120}, {"time": 118083, "pitch": 94, "duration": 59, "velocity": 120}, {"time": 118202, "pitch": 84, "duration": 59, "velocity": 120}, {"time": 118202, "pitch": 96, "duration": 59, "velocity": 120}, {"time": 118321, "pitch": 89, "duration": 59, "velocity": 120}, {"time": 118321, "pitch": 101, "duration": 59, "velocity": 120}, {"time": 118440, "pitch": 84, "duration": 59, "velocity": 120}, {"time": 118440, "pitch": 96, "duration": 59, "velocity": 120}, {"time": 118559, "pitch": 82, "duration": 61, "velocity": 120}, {"time": 118559, "pitch": 94, "duration": 61, "velocity": 120}, {"time": 118680, "pitch": 77, "duration": 61, "velocity": 120}, {"time": 118680, "pitch": 89, "duration": 61, "velocity": 120}, {"time": 118801, "pitch": 72, "duration": 61, "velocity": 120}, {"time": 118801, "pitch": 84, "duration": 61, "velocity": 120}, {"time": 118923, "pitch": 77, "duration": 60, "velocity": 120}, {"time": 118923, "pitch": 89, "duration": 60, "velocity": 120}, {"time": 119044, "pitch": 72, "duration": 59, "velocity": 120}, {"time": 119044, "pitch": 84, "duration": 59, "velocity": 120}, {"time": 119163, "pitch": 82, "duration": 59, "velocity": 120}, {"time": 119163, "pitch": 94, "duration": 59, "velocity": 120}, {"time": 119282, "pitch": 84, "duration": 59, "velocity": 120}, {"time": 119282, "pitch": 96, "duration": 59, "velocity": 120}, {"time": 119401, "pitch": 82, "duration": 59, "velocity": 120}, {"time": 119401, "pitch": 94, "duration": 59, "velocity": 120}, {"time": 134878, "pitch": 89, "duration": 1203, "velocity": 120}, {"time": 136081, "pitch": 84, "duration": 481, "velocity": 120}, {"time": 136562, "pitch": 79, "duration": 476, "velocity": 120}, {"time": 137038, "pitch": 77, "duration": 961, "velocity": 120}, {"time": 137999, "pitch": 72, "duration": 238, "velocity": 120}, {"time": 138237, "pitch": 74, "duration": 242, "velocity": 120}, {"time": 138479, "pitch": 77, "duration": 1442, "velocity": 120}, {"time": 139683, "pitch": 79, "duration": 238, "velocity": 120}, {"time": 139921, "pitch": 77, "duration": 238, "velocity": 120}, {"time": 140159, "pitch": 79, "duration": 242, "velocity": 120}, {"time": 140401, "pitch": 81, "duration": 481, "velocity": 120}, {"time": 140882, "pitch": 77, "duration": 1675, "velocity": 120}, {"time": 142557, "pitch": 89, "duration": 1203, "velocity": 120}, {"time": 143760, "pitch": 84, "duration": 481, "velocity": 120}, {"time": 144241, "pitch": 79, "duration": 480, "velocity": 120}, {"time": 144721, "pitch": 77, "duration": 957, "velocity": 120}, {"time": 145678, "pitch": 72, "duration": 238, "velocity": 120}, {"time": 145916, "pitch": 74, "duration": 242, "velocity": 120}, {"time": 146158, "pitch": 77, "duration": 961, "velocity": 120}, {"time": 147119, "pitch": 74, "duration": 243, "velocity": 120}, {"time": 147362, "pitch": 79, "duration": 238, "velocity": 120}, {"time": 147600, "pitch": 77, "duration": 238, "velocity": 120}, {"time": 147838, "pitch": 79, "duration": 242, "velocity": 120}, {"time": 148080, "pitch": 81, "duration": 481, "velocity": 120}, {"time": 148561, "pitch": 77, "duration": 1675, "velocity": 120}, {"time": 150236, "pitch": 89, "duration": 1203, "velocity": 120}, {"time": 151439, "pitch": 84, "duration": 481, "velocity": 120}, {"time": 151920, "pitch": 79, "duration": 480, "velocity": 120}, {"time": 152400, "pitch": 77, "duration": 961, "velocity": 120}, {"time": 153361, "pitch": 72, "duration": 243, "velocity": 120}, {"time": 153604, "pitch": 74, "duration": 238, "velocity": 120}, {"time": 153842, "pitch": 77, "duration": 1437, "velocity": 120}, {"time": 155041, "pitch": 79, "duration": 238, "velocity": 120}, {"time": 155279, "pitch": 77, "duration": 238, "velocity": 120}, {"time": 155517, "pitch": 79, "duration": 242, "velocity": 120}, {"time": 155759, "pitch": 81, "duration": 481, "velocity": 120}, {"time": 156240, "pitch": 77, "duration": 1684, "velocity": 120}, {"time": 157924, "pitch": 89, "duration": 1194, "velocity": 120}, {"time": 159118, "pitch": 84, "duration": 481, "velocity": 120}, {"time": 159599, "pitch": 79, "duration": 480, "velocity": 120}, {"time": 160079, "pitch": 77, "duration": 957, "velocity": 120}, {"time": 161036, "pitch": 72, "duration": 238, "velocity": 120}, {"time": 161274, "pitch": 74, "duration": 238, "velocity": 120}, {"time": 161512, "pitch": 77, "duration": 953, "velocity": 120}, {"time": 162465, "pitch": 74, "duration": 238, "velocity": 120}, {"time": 162703, "pitch": 79, "duration": 238, "velocity": 120}, {"time": 162941, "pitch": 77, "duration": 238, "velocity": 120}, {"time": 163179, "pitch": 79, "duration": 238, "velocity": 120}, {"time": 163417, "pitch": 81, "duration": 476, "velocity": 120}, {"time": 163893, "pitch": 77, "duration": 1667, "velocity": 120}], "annotations": [{"time": 284, "annotation": {"number": 7, "value": 60}, "group": "control_change"}, {"time": 306, "annotation": {"number": 11, "value": 110}, "group": "control_change"}, {"time": 328, "annotation": {"number": 10, "value": 64}, "group": "control_change"}, {"time": 350, "annotation": {"number": 91, "value": 40}, "group": "control_change"}, {"time": 372, "annotation": {"number": 93, "value": 40}, "group": "control_change"}, {"time": 394, "annotation": {"number": 101, "value": 0}, "group": "control_change"}, {"time": 415, "annotation": {"number": 100, "value": 0}, "group": "control_change"}, {"time": 437, "annotation": {"number": 6, "value": 12}, "group": "control_change"}, {"time": 459, "annotation": {"number": 101, "value": 127}, "group": "control_change"}, {"time": 482, "annotation": {"number": 100, "value": 127}, "group": "control_change"}, {"time": 104162, "annotation": {"number": 10, "value": 124}, "group": "control_change"}, {"time": 104281, "annotation": {"number": 10, "value": 116}, "group": "control_change"}, {"time": 104400, "annotation": {"number": 10, "value": 109}, "group": "control_change"}, {"time": 104519, "annotation": {"number": 10, "value": 101}, "group": "control_change"}, {"time": 104638, "annotation": {"number": 10, "value": 94}, "group": "control_change"}, {"time": 104759, "annotation": {"number": 10, "value": 86}, "group": "control_change"}, {"time": 104880, "annotation": {"number": 10, "value": 79}, "group": "control_change"}, {"time": 105002, "annotation": {"number": 10, "value": 71}, "group": "control_change"}, {"time": 105123, "annotation": {"number": 10, "value": 64}, "group": "control_change"}, {"time": 105242, "annotation": {"number": 10, "value": 56}, "group": "control_change"}, {"time": 105361, "annotation": {"number": 10, "value": 49}, "group": "control_change"}, {"time": 105480, "annotation": {"number": 10, "value": 41}, "group": "control_change"}, {"time": 105599, "annotation": {"number": 10, "value": 34}, "group": "control_change"}, {"time": 105720, "annotation": {"number": 10, "value": 26}, "group": "control_change"}, {"time": 105841, "annotation": {"number": 10, "value": 19}, "group": "control_change"}, {"time": 105963, "annotation": {"number": 10, "value": 11}, "group": "control_change"}, {"time": 106084, "annotation": {"number": 10, "value": 4}, "group": "control_change"}, {"time": 106084, "annotation": {"number": 10, "value": 4}, "group": "control_change"}, {"time": 106203, "annotation": {"number": 10, "value": 11}, "group": "control_change"}, {"time": 106322, "annotation": {"number": 10, "value": 19}, "group": "control_change"}, {"time": 106441, "annotation": {"number": 10, "value": 26}, "group": "control_change"}, {"time": 106560, "annotation": {"number": 10, "value": 34}, "group": "control_change"}, {"time": 106679, "annotation": {"number": 10, "value": 41}, "group": "control_change"}, {"time": 106798, "annotation": {"number": 10, "value": 49}, "group": "control_change"}, {"time": 106917, "annotation": {"number": 10, "value": 56}, "group": "control_change"}, {"time": 107036, "annotation": {"number": 10, "value": 64}, "group": "control_change"}, {"time": 107157, "annotation": {"number": 10, "value": 71}, "group": "control_change"}, {"time": 107278, "annotation": {"number": 10, "value": 79}, "group": "control_change"}, {"time": 107400, "annotation": {"number": 10, "value": 86}, "group": "control_change"}, {"time": 107521, "annotation": {"number": 10, "value": 94}, "group": "control_change"}, {"time": 107640, "annotation": {"number": 10, "value": 101}, "group": "control_change"}, {"time": 107759, "annotation": {"number": 10, "value": 109}, "group": "control_change"}, {"time": 107878, "annotation": {"number": 10, "value": 116}, "group": "control_change"}, {"time": 107997, "annotation": {"number": 10, "value": 124}, "group": "control_change"}, {"time": 107997, "annotation": {"number": 10, "value": 124}, "group": "control_change"}, {"time": 108118, "annotation": {"number": 10, "value": 116}, "group": "control_change"}, {"time": 108239, "annotation": {"number": 10, "value": 109}, "group": "control_change"}, {"time": 108361, "annotation": {"number": 10, "value": 101}, "group": "control_change"}, {"time": 108482, "annotation": {"number": 10, "value": 94}, "group": "control_change"}, {"time": 108601, "annotation": {"number": 10, "value": 86}, "group": "control_change"}, {"time": 108720, "annotation": {"number": 10, "value": 79}, "group": "control_change"}, {"time": 108839, "annotation": {"number": 10, "value": 71}, "group": "control_change"}, {"time": 108958, "annotation": {"number": 10, "value": 64}, "group": "control_change"}, {"time": 109079, "annotation": {"number": 10, "value": 56}, "group": "control_change"}, {"time": 109200, "annotation": {"number": 10, "value": 49}, "group": "control_change"}, {"time": 109322, "annotation": {"number": 10, "value": 41}, "group": "control_change"}, {"time": 109443, "annotation": {"number": 10, "value": 34}, "group": "control_change"}, {"time": 109562, "annotation": {"number": 10, "value": 26}, "group": "control_change"}, {"time": 109681, "annotation": {"number": 10, "value": 19}, "group": "control_change"}, {"time": 109800, "annotation": {"number": 10, "value": 11}, "group": "control_change"}, {"time": 109919, "annotation": {"number": 10, "value": 4}, "group": "control_change"}, {"time": 109919, "annotation": {"number": 10, "value": 4}, "group": "control_change"}, {"time": 110040, "annotation": {"number": 10, "value": 11}, "group": "control_change"}, {"time": 110161, "annotation": {"number": 10, "value": 19}, "group": "control_change"}, {"time": 110283, "annotation": {"number": 10, "value": 26}, "group": "control_change"}, {"time": 110404, "annotation": {"number": 10, "value": 34}, "group": "control_change"}, {"time": 110523, "annotation": {"number": 10, "value": 41}, "group": "control_change"}, {"time": 110642, "annotation": {"number": 10, "value": 49}, "group": "control_change"}, {"time": 110761, "annotation": {"number": 10, "value": 56}, "group": "control_change"}, {"time": 110880, "annotation": {"number": 10, "value": 64}, "group": "control_change"}, {"time": 110999, "annotation": {"number": 10, "value": 71}, "group": "control_change"}, {"time": 111118, "annotation": {"number": 10, "value": 79}, "group": "control_change"}, {"time": 111237, "annotation": {"number": 10, "value": 86}, "group": "control_change"}, {"time": 111356, "annotation": {"number": 10, "value": 94}, "group": "control_change"}, {"time": 111477, "annotation": {"number": 10, "value": 101}, "group": "control_change"}, {"time": 111598, "annotation": {"number": 10, "value": 109}, "group": "control_change"}, {"time": 111720, "annotation": {"number": 10, "value": 116}, "group": "control_change"}, {"time": 111841, "annotation": {"number": 10, "value": 124}, "group": "control_change"}, {"time": 111841, "annotation": {"number": 10, "value": 124}, "group": "control_change"}, {"time": 111960, "annotation": {"number": 10, "value": 116}, "group": "control_change"}, {"time": 112079, "annotation": {"number": 10, "value": 109}, "group": "control_change"}, {"time": 112198, "annotation": {"number": 10, "value": 101}, "group": "control_change"}, {"time": 112317, "annotation": {"number": 10, "value": 94}, "group": "control_change"}, {"time": 112438, "annotation": {"number": 10, "value": 86}, "group": "control_change"}, {"time": 112559, "annotation": {"number": 10, "value": 79}, "group": "control_change"}, {"time": 112681, "annotation": {"number": 10, "value": 71}, "group": "control_change"}, {"time": 112802, "annotation": {"number": 10, "value": 64}, "group": "control_change"}, {"time": 112921, "annotation": {"number": 10, "value": 56}, "group": "control_change"}, {"time": 113040, "annotation": {"number": 10, "value": 49}, "group": "control_change"}, {"time": 113159, "annotation": {"number": 10, "value": 41}, "group": "control_change"}, {"time": 113278, "annotation": {"number": 10, "value": 34}, "group": "control_change"}, {"time": 113399, "annotation": {"number": 10, "value": 26}, "group": "control_change"}, {"time": 113520, "annotation": {"number": 10, "value": 19}, "group": "control_change"}, {"time": 113642, "annotation": {"number": 10, "value": 11}, "group": "control_change"}, {"time": 113763, "annotation": {"number": 10, "value": 4}, "group": "control_change"}, {"time": 113763, "annotation": {"number": 10, "value": 4}, "group": "control_change"}, {"time": 113882, "annotation": {"number": 10, "value": 11}, "group": "control_change"}, {"time": 114001, "annotation": {"number": 10, "value": 19}, "group": "control_change"}, {"time": 114120, "annotation": {"number": 10, "value": 26}, "group": "control_change"}, {"time": 114239, "annotation": {"number": 10, "value": 34}, "group": "control_change"}, {"time": 114360, "annotation": {"number": 10, "value": 41}, "group": "control_change"}, {"time": 114481, "annotation": {"number": 10, "value": 49}, "group": "control_change"}, {"time": 114603, "annotation": {"number": 10, "value": 56}, "group": "control_change"}, {"time": 114724, "annotation": {"number": 10, "value": 64}, "group": "control_change"}, {"time": 114843, "annotation": {"number": 10, "value": 71}, "group": "control_change"}, {"time": 114962, "annotation": {"number": 10, "value": 79}, "group": "control_change"}, {"time": 115081, "annotation": {"number": 10, "value": 86}, "group": "control_change"}, {"time": 115200, "annotation": {"number": 10, "value": 94}, "group": "control_change"}, {"time": 115319, "annotation": {"number": 10, "value": 101}, "group": "control_change"}, {"time": 115438, "annotation": {"number": 10, "value": 109}, "group": "control_change"}, {"time": 115557, "annotation": {"number": 10, "value": 116}, "group": "control_change"}, {"time": 115676, "annotation": {"number": 10, "value": 124}, "group": "control_change"}, {"time": 115676, "annotation": {"number": 10, "value": 124}, "group": "control_change"}, {"time": 115797, "annotation": {"number": 10, "value": 116}, "group": "control_change"}, {"time": 115918, "annotation": {"number": 10, "value": 109}, "group": "control_change"}, {"time": 116040, "annotation": {"number": 10, "value": 101}, "group": "control_change"}, {"time": 116161, "annotation": {"number": 10, "value": 94}, "group": "control_change"}, {"time": 116280, "annotation": {"number": 10, "value": 86}, "group": "control_change"}, {"time": 116399, "annotation": {"number": 10, "value": 79}, "group": "control_change"}, {"time": 116518, "annotation": {"number": 10, "value": 71}, "group": "control_change"}, {"time": 116637, "annotation": {"number": 10, "value": 64}, "group": "control_change"}, {"time": 116758, "annotation": {"number": 10, "value": 56}, "group": "control_change"}, {"time": 116879, "annotation": {"number": 10, "value": 49}, "group": "control_change"}, {"time": 117001, "annotation": {"number": 10, "value": 41}, "group": "control_change"}, {"time": 117122, "annotation": {"number": 10, "value": 34}, "group": "control_change"}, {"time": 117241, "annotation": {"number": 10, "value": 26}, "group": "control_change"}, {"time": 117360, "annotation": {"number": 10, "value": 19}, "group": "control_change"}, {"time": 117479, "annotation": {"number": 10, "value": 11}, "group": "control_change"}, {"time": 117598, "annotation": {"number": 10, "value": 4}, "group": "control_change"}, {"time": 117598, "annotation": {"number": 10, "value": 4}, "group": "control_change"}, {"time": 117719, "annotation": {"number": 10, "value": 11}, "group": "control_change"}, {"time": 117840, "annotation": {"number": 10, "value": 19}, "group": "control_change"}, {"time": 117962, "annotation": {"number": 10, "value": 26}, "group": "control_change"}, {"time": 118083, "annotation": {"number": 10, "value": 34}, "group": "control_change"}, {"time": 118202, "annotation": {"number": 10, "value": 41}, "group": "control_change"}, {"time": 118321, "annotation": {"number": 10, "value": 49}, "group": "control_change"}, {"time": 118440, "annotation": {"number": 10, "value": 56}, "group": "control_change"}, {"time": 118559, "annotation": {"number": 10, "value": 64}, "group": "control_change"}, {"time": 118680, "annotation": {"number": 10, "value": 71}, "group": "control_change"}, {"time": 118801, "annotation": {"number": 10, "value": 79}, "group": "control_change"}, {"time": 118923, "annotation": {"number": 10, "value": 86}, "group": "control_change"}, {"time": 119044, "annotation": {"number": 10, "value": 94}, "group": "control_change"}, {"time": 119163, "annotation": {"number": 10, "value": 101}, "group": "control_change"}, {"time": 119282, "annotation": {"number": 10, "value": 109}, "group": "control_change"}, {"time": 119401, "annotation": {"number": 10, "value": 116}, "group": "control_change"}, {"time": 119520, "annotation": {"number": 10, "value": 124}, "group": "control_change"}, {"time": 132956, "annotation": {"number": 10, "value": 64}, "group": "control_change"}, {"time": 152158, "annotation": {"number": 11, "value": 110}, "group": "control_change"}, {"time": 152279, "annotation": {"number": 11, "value": 109}, "group": "control_change"}, {"time": 152400, "annotation": {"number": 11, "value": 108}, "group": "control_change"}, {"time": 152522, "annotation": {"number": 11, "value": 107}, "group": "control_change"}, {"time": 152643, "annotation": {"number": 11, "value": 106}, "group": "control_change"}, {"time": 152762, "annotation": {"number": 11, "value": 105}, "group": "control_change"}, {"time": 152881, "annotation": {"number": 11, "value": 104}, "group": "control_change"}, {"time": 153000, "annotation": {"number": 11, "value": 103}, "group": "control_change"}, {"time": 153119, "annotation": {"number": 11, "value": 102}, "group": "control_change"}, {"time": 153240, "annotation": {"number": 11, "value": 101}, "group": "control_change"}, {"time": 153361, "annotation": {"number": 11, "value": 100}, "group": "control_change"}, {"time": 153483, "annotation": {"number": 11, "value": 99}, "group": "control_change"}, {"time": 153604, "annotation": {"number": 11, "value": 98}, "group": "control_change"}, {"time": 153723, "annotation": {"number": 11, "value": 97}, "group": "control_change"}, {"time": 153842, "annotation": {"number": 11, "value": 96}, "group": "control_change"}, {"time": 153961, "annotation": {"number": 11, "value": 95}, "group": "control_change"}, {"time": 154080, "annotation": {"number": 11, "value": 94}, "group": "control_change"}, {"time": 154199, "annotation": {"number": 11, "value": 93}, "group": "control_change"}, {"time": 154318, "annotation": {"number": 11, "value": 92}, "group": "control_change"}, {"time": 154437, "annotation": {"number": 11, "value": 91}, "group": "control_change"}, {"time": 154556, "annotation": {"number": 11, "value": 90}, "group": "control_change"}, {"time": 154677, "annotation": {"number": 11, "value": 89}, "group": "control_change"}, {"time": 154798, "annotation": {"number": 11, "value": 88}, "group": "control_change"}, {"time": 154920, "annotation": {"number": 11, "value": 87}, "group": "control_change"}, {"time": 155041, "annotation": {"number": 11, "value": 86}, "group": "control_change"}, {"time": 155160, "annotation": {"number": 11, "value": 85}, "group": "control_change"}, {"time": 155279, "annotation": {"number": 11, "value": 84}, "group": "control_change"}, {"time": 155398, "annotation": {"number": 11, "value": 83}, "group": "control_change"}, {"time": 155517, "annotation": {"number": 11, "value": 82}, "group": "control_change"}, {"time": 155638, "annotation": {"number": 11, "value": 81}, "group": "control_change"}, {"time": 155759, "annotation": {"number": 11, "value": 80}, "group": "control_change"}, {"time": 155881, "annotation": {"number": 11, "value": 79}, "group": "control_change"}, {"time": 156002, "annotation": {"number": 11, "value": 78}, "group": "control_change"}, {"time": 156121, "annotation": {"number": 11, "value": 77}, "group": "control_change"}, {"time": 156240, "annotation": {"number": 11, "value": 76}, "group": "control_change"}, {"time": 156359, "annotation": {"number": 11, "value": 75}, "group": "control_change"}, {"time": 156478, "annotation": {"number": 11, "value": 74}, "group": "control_change"}, {"time": 156599, "annotation": {"number": 11, "value": 73}, "group": "control_change"}, {"time": 156720, "annotation": {"number": 11, "value": 72}, "group": "control_change"}, {"time": 156842, "annotation": {"number": 11, "value": 71}, "group": "control_change"}, {"time": 156963, "annotation": {"number": 11, "value": 70}, "group": "control_change"}, {"time": 157082, "annotation": {"number": 11, "value": 69}, "group": "control_change"}, {"time": 157201, "annotation": {"number": 11, "value": 68}, "group": "control_change"}, {"time": 157320, "annotation": {"number": 11, "value": 67}, "group": "control_change"}, {"time": 157439, "annotation": {"number": 11, "value": 66}, "group": "control_change"}, {"time": 157560, "annotation": {"number": 11, "value": 65}, "group": "control_change"}, {"time": 157681, "annotation": {"number": 11, "value": 64}, "group": "control_change"}, {"time": 157803, "annotation": {"number": 11, "value": 63}, "group": "control_change"}, {"time": 157924, "annotation": {"number": 11, "value": 62}, "group": "control_change"}, {"time": 158043, "annotation": {"number": 11, "value": 61}, "group": "control_change"}, {"time": 158162, "annotation": {"number": 11, "value": 60}, "group": "control_change"}, {"time": 158281, "annotation": {"number": 11, "value": 59}, "group": "control_change"}, {"time": 158400, "annotation": {"number": 11, "value": 58}, "group": "control_change"}, {"time": 158519, "annotation": {"number": 11, "value": 57}, "group": "control_change"}, {"time": 158638, "annotation": {"number": 11, "value": 56}, "group": "control_change"}, {"time": 158757, "annotation": {"number": 11, "value": 55}, "group": "control_change"}, {"time": 158999, "annotation": {"number": 11, "value": 54}, "group": "control_change"}, {"time": 159120, "annotation": {"number": 11, "value": 53}, "group": "control_change"}, {"time": 159242, "annotation": {"number": 11, "value": 52}, "group": "control_change"}, {"time": 159363, "annotation": {"number": 11, "value": 51}, "group": "control_change"}, {"time": 159482, "annotation": {"number": 11, "value": 50}, "group": "control_change"}, {"time": 159601, "annotation": {"number": 11, "value": 49}, "group": "control_change"}, {"time": 159720, "annotation": {"number": 11, "value": 48}, "group": "control_change"}, {"time": 159839, "annotation": {"number": 11, "value": 47}, "group": "control_change"}, {"time": 159960, "annotation": {"number": 11, "value": 46}, "group": "control_change"}, {"time": 160081, "annotation": {"number": 11, "value": 45}, "group": "control_change"}, {"time": 160203, "annotation": {"number": 11, "value": 44}, "group": "control_change"}, {"time": 160324, "annotation": {"number": 11, "value": 43}, "group": "control_change"}, {"time": 160443, "annotation": {"number": 11, "value": 42}, "group": "control_change"}, {"time": 160562, "annotation": {"number": 11, "value": 41}, "group": "control_change"}, {"time": 160681, "annotation": {"number": 11, "value": 40}, "group": "control_change"}, {"time": 160800, "annotation": {"number": 11, "value": 39}, "group": "control_change"}, {"time": 160919, "annotation": {"number": 11, "value": 38}, "group": "control_change"}, {"time": 161038, "annotation": {"number": 11, "value": 37}, "group": "control_change"}, {"time": 161157, "annotation": {"number": 11, "value": 36}, "group": "control_change"}, {"time": 161276, "annotation": {"number": 11, "value": 35}, "group": "control_change"}, {"time": 161395, "annotation": {"number": 11, "value": 34}, "group": "control_change"}, {"time": 161514, "annotation": {"number": 11, "value": 33}, "group": "control_change"}, {"time": 161633, "annotation": {"number": 11, "value": 32}, "group": "control_change"}, {"time": 161752, "annotation": {"number": 11, "value": 31}, "group": "control_change"}, {"time": 161871, "annotation": {"number": 11, "value": 30}, "group": "control_change"}, {"time": 161990, "annotation": {"number": 11, "value": 29}, "group": "control_change"}, {"time": 162109, "annotation": {"number": 11, "value": 28}, "group": "control_change"}, {"time": 162228, "annotation": {"number": 11, "value": 27}, "group": "control_change"}, {"time": 162348, "annotation": {"number": 11, "value": 26}, "group": "control_change"}, {"time": 162467, "annotation": {"number": 11, "value": 25}, "group": "control_change"}, {"time": 162586, "annotation": {"number": 11, "value": 24}, "group": "control_change"}, {"time": 162705, "annotation": {"number": 11, "value": 23}, "group": "control_change"}, {"time": 162824, "annotation": {"number": 11, "value": 22}, "group": "control_change"}, {"time": 162943, "annotation": {"number": 11, "value": 21}, "group": "control_change"}, {"time": 163062, "annotation": {"number": 11, "value": 20}, "group": "control_change"}, {"time": 163181, "annotation": {"number": 11, "value": 19}, "group": "control_change"}, {"time": 163300, "annotation": {"number": 11, "value": 18}, "group": "control_change"}, {"time": 163419, "annotation": {"number": 11, "value": 17}, "group": "control_change"}, {"time": 163538, "annotation": {"number": 11, "value": 16}, "group": "control_change"}, {"time": 163657, "annotation": {"number": 11, "value": 15}, "group": "control_change"}, {"time": 163776, "annotation": {"number": 11, "value": 14}, "group": "control_change"}, {"time": 163895, "annotation": {"number": 11, "value": 13}, "group": "control_change"}, {"time": 164014, "annotation": {"number": 11, "value": 12}, "group": "control_change"}, {"time": 164133, "annotation": {"number": 11, "value": 11}, "group": "control_change"}, {"time": 164252, "annotation": {"number": 11, "value": 10}, "group": "control_change"}, {"time": 164371, "annotation": {"number": 11, "value": 9}, "group": "control_change"}, {"time": 164490, "annotation": {"number": 11, "value": 8}, "group": "control_change"}, {"time": 164609, "annotation": {"number": 11, "value": 7}, "group": "control_change"}, {"time": 164728, "annotation": {"number": 11, "value": 6}, "group": "control_change"}, {"time": 164848, "annotation": {"number": 11, "value": 5}, "group": "control_change"}, {"time": 164967, "annotation": {"number": 11, "value": 4}, "group": "control_change"}, {"time": 165086, "annotation": {"number": 11, "value": 3}, "group": "control_change"}, {"time": 165205, "annotation": {"number": 11, "value": 2}, "group": "control_change"}, {"time": 165324, "annotation": {"number": 11, "value": 1}, "group": "control_change"}, {"time": 165443, "annotation": {"number": 11, "value": 0}, "group": "control_change"}, {"time": 165560, "annotation": {"number": 11, "value": 0}, "group": "control_change"}]}, {"program": 0, "is_drum": false, "name": "SYNTH", "annotations": [{"time": 219, "annotation": {"number": 0, "value": 0}, "group": "control_change"}, {"time": 241, "annotation": {"number": 32, "value": 0}, "group": "control_change"}]}, {"program": 81, "is_drum": false, "name": "SYNTH", "notes": [{"time": 104400, "pitch": 58, "duration": 119, "velocity": 120}, {"time": 104400, "pitch": 70, "duration": 119, "velocity": 120}, {"time": 104519, "pitch": 60, "duration": 119, "velocity": 120}, {"time": 104519, "pitch": 72, "duration": 119, "velocity": 120}, {"time": 104638, "pitch": 70, "duration": 121, "velocity": 120}, {"time": 104638, "pitch": 82, "duration": 121, "velocity": 120}, {"time": 104759, "pitch": 72, "duration": 121, "velocity": 120}, {"time": 104759, "pitch": 84, "duration": 121, "velocity": 120}, {"time": 104880, "pitch": 77, "duration": 122, "velocity": 120}, {"time": 104880, "pitch": 89, "duration": 122, "velocity": 120}, {"time": 105002, "pitch": 72, "duration": 121, "velocity": 120}, {"time": 105002, "pitch": 84, "duration": 121, "velocity": 120}, {"time": 105123, "pitch": 70, "duration": 119, "velocity": 120}, {"time": 105123, "pitch": 82, "duration": 119, "velocity": 120}, {"time": 105242, "pitch": 65, "duration": 119, "velocity": 120}, {"time": 105242, "pitch": 77, "duration": 119, "velocity": 120}, {"time": 105361, "pitch": 60, "duration": 119, "velocity": 120}, {"time": 105361, "pitch": 72, "duration": 119, "velocity": 120}, {"time": 105480, "pitch": 65, "duration": 119, "velocity": 120}, {"time": 105480, "pitch": 77, "duration": 119, "velocity": 120}, {"time": 105599, "pitch": 60, "duration": 121, "velocity": 120}, {"time": 105599, "pitch": 72, "duration": 121, "velocity": 120}, {"time": 105720, "pitch": 70, "duration": 121, "velocity": 120}, {"time": 105720, "pitch": 82, "duration": 121, "velocity": 120}, {"time": 105841, "pitch": 72, "duration": 122, "velocity": 120}, {"time": 105841, "pitch": 84, "duration": 122, "velocity": 120}, {"time": 105963, "pitch": 70, "duration": 121, "velocity": 120}, {"time": 105963, "pitch": 82, "duration": 121, "velocity": 120}, {"time": 106322, "pitch": 58, "duration": 119, "velocity": 120}, {"time": 106322, "pitch": 70, "duration": 119, "velocity": 120}, {"time": 106441, "pitch": 60, "duration": 119, "velocity": 120}, {"time": 106441, "pitch": 72, "duration": 119, "velocity": 120}, {"time": 106560, "pitch": 70, "duration": 119, "velocity": 120}, {"time": 106560, "pitch": 82, "duration": 119, "velocity": 120}, {"time": 106679, "pitch": 72, "duration": 119, "velocity": 120}, {"time": 106679, "pitch": 84, "duration": 119, "velocity": 120}, {"time": 106798, "pitch": 77, "duration": 119, "velocity": 120}, {"time": 106798, "pitch": 89, "duration": 119, "velocity": 120}, {"time": 106917, "pitch": 72, "duration": 119, "velocity": 120}, {"time": 106917, "pitch": 84, "duration": 119, "velocity": 120}, {"time": 107036, "pitch": 70, "duration": 121, "velocity": 120}, {"time": 107036, "pitch": 82, "duration": 121, "velocity": 120}, {"time": 107157, "pitch": 65, "duration": 121, "velocity": 120}, {"time": 107157, "pitch": 77, "duration": 121, "velocity": 120}, {"time": 107278, "pitch": 60, "duration": 122, "velocity": 120}, {"time": 107278, "pitch": 72, "duration": 122, "velocity": 120}, {"time": 107400, "pitch": 65, "duration": 121, "velocity": 120}, {"time": 107400, "pitch": 77, "duration": 121, "velocity": 120}, {"time": 107521, "pitch": 60, "duration": 119, "velocity": 120}, {"time": 107521, "pitch": 72, "duration": 119, "velocity": 120}, {"time": 107640, "pitch": 70, "duration": 119, "velocity": 120}, {"time": 107640, "pitch": 82, "duration": 119, "velocity": 120}, {"time": 107759, "pitch": 72, "duration": 119, "velocity": 120}, {"time": 107759, "pitch": 84, "duration": 119, "velocity": 120}, {"time": 107878, "pitch": 70, "duration": 119, "velocity": 120}, {"time": 107878, "pitch": 82, "duration": 119, "velocity": 120}, {"time": 108239, "pitch": 58, "duration": 122, "velocity": 120}, {"time": 108239, "pitch": 70, "duration": 122, "velocity": 120}, {"time": 108361, "pitch": 60, "duration": 121, "velocity": 120}, {"time": 108361, "pitch": 72, "duration": 121, "velocity": 120}, {"time": 108482, "pitch": 70, "duration": 119, "velocity": 120}, {"time": 108482, "pitch": 82, "duration": 119, "velocity": 120}, {"time": 108601, "pitch": 72, "duration": 119, "velocity": 120}, {"time": 108601, "pitch": 84, "duration": 119, "velocity": 120}, {"time": 108720, "pitch": 77, "duration": 119, "velocity": 120}, {"time": 108720, "pitch": 89, "duration": 119, "velocity": 120}, {"time": 108839, "pitch": 72, "duration": 119, "velocity": 120}, {"time": 108839, "pitch": 84, "duration": 119, "velocity": 120}, {"time": 108958, "pitch": 70, "duration": 121, "velocity": 120}, {"time": 108958, "pitch": 82, "duration": 121, "velocity": 120}, {"time": 109079, "pitch": 65, "duration": 121, "velocity": 120}, {"time": 109079, "pitch": 77, "duration": 121, "velocity": 120}, {"time": 109200, "pitch": 60, "duration": 122, "velocity": 120}, {"time": 109200, "pitch": 72, "duration": 122, "velocity": 120}, {"time": 109322, "pitch": 65, "duration": 121, "velocity": 120}, {"time": 109322, "pitch": 77, "duration": 121, "velocity": 120}, {"time": 109443, "pitch": 60, "duration": 119, "velocity": 120}, {"time": 109443, "pitch": 72, "duration": 119, "velocity": 120}, {"time": 109562, "pitch": 70, "duration": 119, "velocity": 120}, {"time": 109562, "pitch": 82, "duration": 119, "velocity": 120}, {"time": 109681, "pitch": 72, "duration": 119, "velocity": 120}, {"time": 109681, "pitch": 84, "duration": 119, "velocity": 120}, {"time": 109800, "pitch": 70, "duration": 119, "velocity": 120}, {"time": 109800, "pitch": 82, "duration": 119, "velocity": 120}, {"time": 110161, "pitch": 58, "duration": 122, "velocity": 120}, {"time": 110161, "pitch": 70, "duration": 122, "velocity": 120}, {"time": 110283, "pitch": 60, "duration": 121, "velocity": 120}, {"time": 110283, "pitch": 72, "duration": 121, "velocity": 120}, {"time": 110404, "pitch": 70, "duration": 119, "velocity": 120}, {"time": 110404, "pitch": 82, "duration": 119, "velocity": 120}, {"time": 110523, "pitch": 72, "duration": 119, "velocity": 120}, {"time": 110523, "pitch": 84, "duration": 119, "velocity": 120}, {"time": 110642, "pitch": 77, "duration": 119, "velocity": 120}, {"time": 110642, "pitch": 89, "duration": 119, "velocity": 120}, {"time": 110761, "pitch": 72, "duration": 119, "velocity": 120}, {"time": 110761, "pitch": 84, "duration": 119, "velocity": 120}, {"time": 110880, "pitch": 70, "duration": 119, "velocity": 120}, {"time": 110880, "pitch": 82, "duration": 119, "velocity": 120}, {"time": 110999, "pitch": 65, "duration": 119, "velocity": 120}, {"time": 110999, "pitch": 77, "duration": 119, "velocity": 120}, {"time": 111118, "pitch": 60, "duration": 119, "velocity": 120}, {"time": 111118, "pitch": 72, "duration": 119, "velocity": 120}, {"time": 111237, "pitch": 65, "duration": 119, "velocity": 120}, {"time": 111237, "pitch": 77, "duration": 119, "velocity": 120}, {"time": 111356, "pitch": 60, "duration": 121, "velocity": 120}, {"time": 111356, "pitch": 72, "duration": 121, "velocity": 120}, {"time": 111477, "pitch": 70, "duration": 121, "velocity": 120}, {"time": 111477, "pitch": 82, "duration": 121, "velocity": 120}, {"time": 111598, "pitch": 72, "duration": 122, "velocity": 120}, {"time": 111598, "pitch": 84, "duration": 122, "velocity": 120}, {"time": 111720, "pitch": 70, "duration": 121, "velocity": 120}, {"time": 111720, "pitch": 82, "duration": 121, "velocity": 120}, {"time": 112079, "pitch": 58, "duration": 119, "velocity": 120}, {"time": 112079, "pitch": 70, "duration": 119, "velocity": 120}, {"time": 112198, "pitch": 60, "duration": 119, "velocity": 120}, {"time": 112198, "pitch": 72, "duration": 119, "velocity": 120}, {"time": 112317, "pitch": 70, "duration": 121, "velocity": 120}, {"time": 112317, "pitch": 82, "duration": 121, "velocity": 120}, {"time": 112438, "pitch": 72, "duration": 121, "velocity": 120}, {"time": 112438, "pitch": 84, "duration": 121, "velocity": 120}, {"time": 112559, "pitch": 77, "duration": 122, "velocity": 120}, {"time": 112559, "pitch": 89, "duration": 122, "velocity": 120}, {"time": 112681, "pitch": 72, "duration": 121, "velocity": 120}, {"time": 112681, "pitch": 84, "duration": 121, "velocity": 120}, {"time": 112802, "pitch": 70, "duration": 119, "velocity": 120}, {"time": 112802, "pitch": 82, "duration": 119, "velocity": 120}, {"time": 112921, "pitch": 65, "duration": 119, "velocity": 120}, {"time": 112921, "pitch": 77, "duration": 119, "velocity": 120}, {"time": 113040, "pitch": 60, "duration": 119, "velocity": 120}, {"time": 113040, "pitch": 72, "duration": 119, "velocity": 120}, {"time": 113159, "pitch": 65, "duration": 119, "velocity": 120}, {"time": 113159, "pitch": 77, "duration": 119, "velocity": 120}, {"time": 113278, "pitch": 60, "duration": 121, "velocity": 120}, {"time": 113278, "pitch": 72, "duration": 121, "velocity": 120}, {"time": 113399, "pitch": 70, "duration": 121, "velocity": 120}, {"time": 113399, "pitch": 82, "duration": 121, "velocity": 120}, {"time": 113520, "pitch": 72, "duration": 122, "velocity": 120}, {"time": 113520, "pitch": 84, "duration": 122, "velocity": 120}, {"time": 113642, "pitch": 70, "duration": 121, "velocity": 120}, {"time": 113642, "pitch": 82, "duration": 121, "velocity": 120}, {"time": 114001, "pitch": 58, "duration": 119, "velocity": 120}, {"time": 114001, "pitch": 70, "duration": 119, "velocity": 120}, {"time": 114120, "pitch": 60, "duration": 119, "velocity": 120}, {"time": 114120, "pitch": 72, "duration": 119, "velocity": 120}, {"time": 114239, "pitch": 70, "duration": 121, "velocity": 120}, {"time": 114239, "pitch": 82, "duration": 121, "velocity": 120}, {"time": 114360, "pitch": 72, "duration": 121, "velocity": 120}, {"time": 114360, "pitch": 84, "duration": 121, "velocity": 120}, {"time": 114481, "pitch": 77, "duration": 122, "velocity": 120}, {"time": 114481, "pitch": 89, "duration": 122, "velocity": 120}, {"time": 114603, "pitch": 72, "duration": 121, "velocity": 120}, {"time": 114603, "pitch": 84, "duration": 121, "velocity": 120}, {"time": 114724, "pitch": 70, "duration": 119, "velocity": 120}, {"time": 114724, "pitch": 82, "duration": 119, "velocity": 120}, {"time": 114843, "pitch": 65, "duration": 119, "velocity": 120}, {"time": 114843, "pitch": 77, "duration": 119, "velocity": 120}, {"time": 114962, "pitch": 60, "duration": 119, "velocity": 120}, {"time": 114962, "pitch": 72, "duration": 119, "velocity": 120}, {"time": 115081, "pitch": 65, "duration": 119, "velocity": 120}, {"time": 115081, "pitch": 77, "duration": 119, "velocity": 120}, {"time": 115200, "pitch": 60, "duration": 119, "velocity": 120}, {"time": 115200, "pitch": 72, "duration": 119, "velocity": 120}, {"time": 115319, "pitch": 70, "duration": 119, "velocity": 120}, {"time": 115319, "pitch": 82, "duration": 119, "velocity": 120}, {"time": 115438, "pitch": 72, "duration": 119, "velocity": 120}, {"time": 115438, "pitch": 84, "duration": 119, "velocity": 120}, {"time": 115557, "pitch": 70, "duration": 119, "velocity": 120}, {"time": 115557, "pitch": 82, "duration": 119, "velocity": 120}, {"time": 115918, "pitch": 58, "duration": 122, "velocity": 120}, {"time": 115918, "pitch": 70, "duration": 122, "velocity": 120}, {"time": 116040, "pitch": 60, "duration": 121, "velocity": 120}, {"time": 116040, "pitch": 72, "duration": 121, "velocity": 120}, {"time": 116161, "pitch": 70, "duration": 119, "velocity": 120}, {"time": 116161, "pitch": 82, "duration": 119, "velocity": 120}, {"time": 116280, "pitch": 72, "duration": 119, "velocity": 120}, {"time": 116280, "pitch": 84, "duration": 119, "velocity": 120}, {"time": 116399, "pitch": 77, "duration": 119, "velocity": 120}, {"time": 116399, "pitch": 89, "duration": 119, "velocity": 120}, {"time": 116518, "pitch": 72, "duration": 119, "velocity": 120}, {"time": 116518, "pitch": 84, "duration": 119, "velocity": 120}, {"time": 116637, "pitch": 70, "duration": 121, "velocity": 120}, {"time": 116637, "pitch": 82, "duration": 121, "velocity": 120}, {"time": 116758, "pitch": 65, "duration": 121, "velocity": 120}, {"time": 116758, "pitch": 77, "duration": 121, "velocity": 120}, {"time": 116879, "pitch": 60, "duration": 122, "velocity": 120}, {"time": 116879, "pitch": 72, "duration": 122, "velocity": 120}, {"time": 117001, "pitch": 65, "duration": 121, "velocity": 120}, {"time": 117001, "pitch": 77, "duration": 121, "velocity": 120}, {"time": 117122, "pitch": 60, "duration": 119, "velocity": 120}, {"time": 117122, "pitch": 72, "duration": 119, "velocity": 120}, {"time": 117241, "pitch": 70, "duration": 119, "velocity": 120}, {"time": 117241, "pitch": 82, "duration": 119, "velocity": 120}, {"time": 117360, "pitch": 72, "duration": 119, "velocity": 120}, {"time": 117360, "pitch": 84, "duration": 119, "velocity": 120}, {"time": 117479, "pitch": 70, "duration": 119, "velocity": 120}, {"time": 117479, "pitch": 82, "duration": 119, "velocity": 120}, {"time": 117840, "pitch": 58, "duration": 122, "velocity": 120}, {"time": 117840, "pitch": 70, "duration": 122, "velocity": 120}, {"time": 117962, "pitch": 60, "duration": 121, "velocity": 120}, {"time": 117962, "pitch": 72, "duration": 121, "velocity": 120}, {"time": 118083, "pitch": 70, "duration": 119, "velocity": 120}, {"time": 118083, "pitch": 82, "duration": 119, "velocity": 120}, {"time": 118202, "pitch": 72, "duration": 119, "velocity": 120}, {"time": 118202, "pitch": 84, "duration": 119, "velocity": 120}, {"time": 118321, "pitch": 77, "duration": 119, "velocity": 120}, {"time": 118321, "pitch": 89, "duration": 119, "velocity": 120}, {"time": 118440, "pitch": 72, "duration": 119, "velocity": 120}, {"time": 118440, "pitch": 84, "duration": 119, "velocity": 120}, {"time": 118559, "pitch": 70, "duration": 121, "velocity": 120}, {"time": 118559, "pitch": 82, "duration": 121, "velocity": 120}, {"time": 118680, "pitch": 65, "duration": 121, "velocity": 120}, {"time": 118680, "pitch": 77, "duration": 121, "velocity": 120}, {"time": 118801, "pitch": 60, "duration": 122, "velocity": 120}, {"time": 118801, "pitch": 72, "duration": 122, "velocity": 120}, {"time": 118923, "pitch": 65, "duration": 121, "velocity": 120}, {"time": 118923, "pitch": 77, "duration": 121, "velocity": 120}, {"time": 119044, "pitch": 60, "duration": 119, "velocity": 120}, {"time": 119044, "pitch": 72, "duration": 119, "velocity": 120}, {"time": 119163, "pitch": 70, "duration": 119, "velocity": 120}, {"time": 119163, "pitch": 82, "duration": 119, "velocity": 120}, {"time": 119282, "pitch": 72, "duration": 119, "velocity": 120}, {"time": 119282, "pitch": 84, "duration": 119, "velocity": 120}, {"time": 119401, "pitch": 70, "duration": 119, "velocity": 120}, {"time": 119401, "pitch": 82, "duration": 119, "velocity": 120}, {"time": 134878, "pitch": 77, "duration": 1203, "velocity": 120}, {"time": 136081, "pitch": 72, "duration": 481, "velocity": 120}, {"time": 136562, "pitch": 67, "duration": 476, "velocity": 120}, {"time": 137038, "pitch": 65, "duration": 961, "velocity": 120}, {"time": 137999, "pitch": 60, "duration": 238, "velocity": 120}, {"time": 138237, "pitch": 62, "duration": 242, "velocity": 120}, {"time": 138479, "pitch": 65, "duration": 1442, "velocity": 120}, {"time": 139683, "pitch": 67, "duration": 238, "velocity": 120}, {"time": 139921, "pitch": 65, "duration": 238, "velocity": 120}, {"time": 140159, "pitch": 67, "duration": 242, "velocity": 120}, {"time": 140401, "pitch": 69, "duration": 481, "velocity": 120}, {"time": 140882, "pitch": 65, "duration": 1675, "velocity": 120}, {"time": 142557, "pitch": 77, "duration": 1203, "velocity": 120}, {"time": 143760, "pitch": 72, "duration": 481, "velocity": 120}, {"time": 144241, "pitch": 67, "duration": 480, "velocity": 120}, {"time": 144721, "pitch": 65, "duration": 957, "velocity": 120}, {"time": 145678, "pitch": 60, "duration": 238, "velocity": 120}, {"time": 145916, "pitch": 62, "duration": 242, "velocity": 120}, {"time": 146158, "pitch": 65, "duration": 961, "velocity": 120}, {"time": 147119, "pitch": 62, "duration": 243, "velocity": 120}, {"time": 147362, "pitch": 67, "duration": 238, "velocity": 120}, {"time": 147600, "pitch": 65, "duration": 238, "velocity": 120}, {"time": 147838, "pitch": 67, "duration": 242, "velocity": 120}, {"time": 148080, "pitch": 69, "duration": 481, "velocity": 120}, {"time": 148561, "pitch": 65, "duration": 1675, "velocity": 120}, {"time": 150236, "pitch": 77, "duration": 1203, "velocity": 120}, {"time": 151439, "pitch": 72, "duration": 481, "velocity": 120}, {"time": 151920, "pitch": 67, "duration": 480, "velocity": 120}, {"time": 152400, "pitch": 65, "duration": 961, "velocity": 120}, {"time": 153361, "pitch": 60, "duration": 243, "velocity": 120}, {"time": 153604, "pitch": 62, "duration": 238, "velocity": 120}, {"time": 153842, "pitch": 65, "duration": 1437, "velocity": 120}, {"time": 155041, "pitch": 67, "duration": 238, "velocity": 120}, {"time": 155279, "pitch": 65, "duration": 238, "velocity": 120}, {"time": 155517, "pitch": 67, "duration": 242, "velocity": 120}, {"time": 155759, "pitch": 69, "duration": 481, "velocity": 120}, {"time": 156240, "pitch": 65, "duration": 1684, "velocity": 120}, {"time": 157924, "pitch": 77, "duration": 1194, "velocity": 120}, {"time": 159118, "pitch": 72, "duration": 481, "velocity": 120}, {"time": 159599, "pitch": 67, "duration": 480, "velocity": 120}, {"time": 160079, "pitch": 65, "duration": 957, "velocity": 120}, {"time": 161036, "pitch": 60, "duration": 238, "velocity": 120}, {"time": 161274, "pitch": 62, "duration": 238, "velocity": 120}, {"time": 161512, "pitch": 65, "duration": 953, "velocity": 120}, {"time": 162465, "pitch": 62, "duration": 238, "velocity": 120}, {"time": 162703, "pitch": 67, "duration": 238, "velocity": 120}, {"time": 162941, "pitch": 65, "duration": 238, "velocity": 120}, {"time": 163179, "pitch": 67, "duration": 238, "velocity": 120}, {"time": 163417, "pitch": 69, "duration": 476, "velocity": 120}, {"time": 163893, "pitch": 65, "duration": 1667, "velocity": 120}], "annotations": [{"time": 284, "annotation": {"number": 7, "value": 80}, "group": "control_change"}, {"time": 306, "annotation": {"number": 11, "value": 110}, "group": "control_change"}, {"time": 328, "annotation": {"number": 10, "value": 74}, "group": "control_change"}, {"time": 350, "annotation": {"number": 91, "value": 40}, "group": "control_change"}, {"time": 372, "annotation": {"number": 93, "value": 20}, "group": "control_change"}, {"time": 394, "annotation": {"number": 101, "value": 0}, "group": "control_change"}, {"time": 415, "annotation": {"number": 100, "value": 0}, "group": "control_change"}, {"time": 437, "annotation": {"number": 6, "value": 12}, "group": "control_change"}, {"time": 459, "annotation": {"number": 101, "value": 127}, "group": "control_change"}, {"time": 482, "annotation": {"number": 100, "value": 127}, "group": "control_change"}, {"time": 152158, "annotation": {"number": 11, "value": 110}, "group": "control_change"}, {"time": 152279, "annotation": {"number": 11, "value": 109}, "group": "control_change"}, {"time": 152400, "annotation": {"number": 11, "value": 108}, "group": "control_change"}, {"time": 152522, "annotation": {"number": 11, "value": 107}, "group": "control_change"}, {"time": 152643, "annotation": {"number": 11, "value": 106}, "group": "control_change"}, {"time": 152762, "annotation": {"number": 11, "value": 105}, "group": "control_change"}, {"time": 152881, "annotation": {"number": 11, "value": 104}, "group": "control_change"}, {"time": 153000, "annotation": {"number": 11, "value": 103}, "group": "control_change"}, {"time": 153119, "annotation": {"number": 11, "value": 102}, "group": "control_change"}, {"time": 153240, "annotation": {"number": 11, "value": 101}, "group": "control_change"}, {"time": 153361, "annotation": {"number": 11, "value": 100}, "group": "control_change"}, {"time": 153483, "annotation": {"number": 11, "value": 99}, "group": "control_change"}, {"time": 153604, "annotation": {"number": 11, "value": 98}, "group": "control_change"}, {"time": 153723, "annotation": {"number": 11, "value": 97}, "group": "control_change"}, {"time": 153842, "annotation": {"number": 11, "value": 96}, "group": "control_change"}, {"time": 153961, "annotation": {"number": 11, "value": 95}, "group": "control_change"}, {"time": 154080, "annotation": {"number": 11, "value": 94}, "group": "control_change"}, {"time": 154199, "annotation": {"number": 11, "value": 93}, "group": "control_change"}, {"time": 154318, "annotation": {"number": 11, "value": 92}, "group": "control_change"}, {"time": 154437, "annotation": {"number": 11, "value": 91}, "group": "control_change"}, {"time": 154556, "annotation": {"number": 11, "value": 90}, "group": "control_change"}, {"time": 154677, "annotation": {"number": 11, "value": 89}, "group": "control_change"}, {"time": 154798, "annotation": {"number": 11, "value": 88}, "group": "control_change"}, {"time": 154920, "annotation": {"number": 11, "value": 87}, "group": "control_change"}, {"time": 155041, "annotation": {"number": 11, "value": 86}, "group": "control_change"}, {"time": 155160, "annotation": {"number": 11, "value": 85}, "group": "control_change"}, {"time": 155279, "annotation": {"number": 11, "value": 84}, "group": "control_change"}, {"time": 155398, "annotation": {"number": 11, "value": 83}, "group": "control_change"}, {"time": 155517, "annotation": {"number": 11, "value": 82}, "group": "control_change"}, {"time": 155638, "annotation": {"number": 11, "value": 81}, "group": "control_change"}, {"time": 155759, "annotation": {"number": 11, "value": 80}, "group": "control_change"}, {"time": 155881, "annotation": {"number": 11, "value": 79}, "group": "control_change"}, {"time": 156002, "annotation": {"number": 11, "value": 78}, "group": "control_change"}, {"time": 156121, "annotation": {"number": 11, "value": 77}, "group": "control_change"}, {"time": 156240, "annotation": {"number": 11, "value": 76}, "group": "control_change"}, {"time": 156359, "annotation": {"number": 11, "value": 75}, "group": "control_change"}, {"time": 156478, "annotation": {"number": 11, "value": 74}, "group": "control_change"}, {"time": 156599, "annotation": {"number": 11, "value": 73}, "group": "control_change"}, {"time": 156720, "annotation": {"number": 11, "value": 72}, "group": "control_change"}, {"time": 156842, "annotation": {"number": 11, "value": 71}, "group": "control_change"}, {"time": 156963, "annotation": {"number": 11, "value": 70}, "group": "control_change"}, {"time": 157082, "annotation": {"number": 11, "value": 69}, "group": "control_change"}, {"time": 157201, "annotation": {"number": 11, "value": 68}, "group": "control_change"}, {"time": 157320, "annotation": {"number": 11, "value": 67}, "group": "control_change"}, {"time": 157439, "annotation": {"number": 11, "value": 66}, "group": "control_change"}, {"time": 157560, "annotation": {"number": 11, "value": 65}, "group": "control_change"}, {"time": 157681, "annotation": {"number": 11, "value": 64}, "group": "control_change"}, {"time": 157803, "annotation": {"number": 11, "value": 63}, "group": "control_change"}, {"time": 157924, "annotation": {"number": 11, "value": 62}, "group": "control_change"}, {"time": 158043, "annotation": {"number": 11, "value": 61}, "group": "control_change"}, {"time": 158162, "annotation": {"number": 11, "value": 60}, "group": "control_change"}, {"time": 158281, "annotation": {"number": 11, "value": 59}, "group": "control_change"}, {"time": 158400, "annotation": {"number": 11, "value": 58}, "group": "control_change"}, {"time": 158519, "annotation": {"number": 11, "value": 57}, "group": "control_change"}, {"time": 158638, "annotation": {"number": 11, "value": 56}, "group": "control_change"}, {"time": 158757, "annotation": {"number": 11, "value": 55}, "group": "control_change"}, {"time": 158999, "annotation": {"number": 11, "value": 54}, "group": "control_change"}, {"time": 159120, "annotation": {"number": 11, "value": 53}, "group": "control_change"}, {"time": 159242, "annotation": {"number": 11, "value": 52}, "group": "control_change"}, {"time": 159363, "annotation": {"number": 11, "value": 51}, "group": "control_change"}, {"time": 159482, "annotation": {"number": 11, "value": 50}, "group": "control_change"}, {"time": 159601, "annotation": {"number": 11, "value": 49}, "group": "control_change"}, {"time": 159720, "annotation": {"number": 11, "value": 48}, "group": "control_change"}, {"time": 159839, "annotation": {"number": 11, "value": 47}, "group": "control_change"}, {"time": 159960, "annotation": {"number": 11, "value": 46}, "group": "control_change"}, {"time": 160081, "annotation": {"number": 11, "value": 45}, "group": "control_change"}, {"time": 160203, "annotation": {"number": 11, "value": 44}, "group": "control_change"}, {"time": 160324, "annotation": {"number": 11, "value": 43}, "group": "control_change"}, {"time": 160443, "annotation": {"number": 11, "value": 42}, "group": "control_change"}, {"time": 160562, "annotation": {"number": 11, "value": 41}, "group": "control_change"}, {"time": 160681, "annotation": {"number": 11, "value": 40}, "group": "control_change"}, {"time": 160800, "annotation": {"number": 11, "value": 39}, "group": "control_change"}, {"time": 160919, "annotation": {"number": 11, "value": 38}, "group": "control_change"}, {"time": 161038, "annotation": {"number": 11, "value": 37}, "group": "control_change"}, {"time": 161157, "annotation": {"number": 11, "value": 36}, "group": "control_change"}, {"time": 161276, "annotation": {"number": 11, "value": 35}, "group": "control_change"}, {"time": 161395, "annotation": {"number": 11, "value": 34}, "group": "control_change"}, {"time": 161514, "annotation": {"number": 11, "value": 33}, "group": "control_change"}, {"time": 161633, "annotation": {"number": 11, "value": 32}, "group": "control_change"}, {"time": 161752, "annotation": {"number": 11, "value": 31}, "group": "control_change"}, {"time": 161871, "annotation": {"number": 11, "value": 30}, "group": "control_change"}, {"time": 161990, "annotation": {"number": 11, "value": 29}, "group": "control_change"}, {"time": 162109, "annotation": {"number": 11, "value": 28}, "group": "control_change"}, {"time": 162228, "annotation": {"number": 11, "value": 27}, "group": "control_change"}, {"time": 162348, "annotation": {"number": 11, "value": 26}, "group": "control_change"}, {"time": 162467, "annotation": {"number": 11, "value": 25}, "group": "control_change"}, {"time": 162586, "annotation": {"number": 11, "value": 24}, "group": "control_change"}, {"time": 162705, "annotation": {"number": 11, "value": 23}, "group": "control_change"}, {"time": 162824, "annotation": {"number": 11, "value": 22}, "group": "control_change"}, {"time": 162943, "annotation": {"number": 11, "value": 21}, "group": "control_change"}, {"time": 163062, "annotation": {"number": 11, "value": 20}, "group": "control_change"}, {"time": 163181, "annotation": {"number": 11, "value": 19}, "group": "control_change"}, {"time": 163300, "annotation": {"number": 11, "value": 18}, "group": "control_change"}, {"time": 163419, "annotation": {"number": 11, "value": 17}, "group": "control_change"}, {"time": 163538, "annotation": {"number": 11, "value": 16}, "group": "control_change"}, {"time": 163657, "annotation": {"number": 11, "value": 15}, "group": "control_change"}, {"time": 163776, "annotation": {"number": 11, "value": 14}, "group": "control_change"}, {"time": 163895, "annotation": {"number": 11, "value": 13}, "group": "control_change"}, {"time": 164014, "annotation": {"number": 11, "value": 12}, "group": "control_change"}, {"time": 164133, "annotation": {"number": 11, "value": 11}, "group": "control_change"}, {"time": 164252, "annotation": {"number": 11, "value": 10}, "group": "control_change"}, {"time": 164371, "annotation": {"number": 11, "value": 9}, "group": "control_change"}, {"time": 164490, "annotation": {"number": 11, "value": 8}, "group": "control_change"}, {"time": 164609, "annotation": {"number": 11, "value": 7}, "group": "control_change"}, {"time": 164728, "annotation": {"number": 11, "value": 6}, "group": "control_change"}, {"time": 164848, "annotation": {"number": 11, "value": 5}, "group": "control_change"}, {"time": 164967, "annotation": {"number": 11, "value": 4}, "group": "control_change"}, {"time": 165086, "annotation": {"number": 11, "value": 3}, "group": "control_change"}, {"time": 165205, "annotation": {"number": 11, "value": 2}, "group": "control_change"}, {"time": 165324, "annotation": {"number": 11, "value": 1}, "group": "control_change"}, {"time": 165443, "annotation": {"number": 11, "value": 0}, "group": "control_change"}, {"time": 165560, "annotation": {"number": 11, "value": 0}, "group": "control_change"}]}, {"program": 0, "is_drum": false, "name": "WHA E.G", "annotations": [{"time": 219, "annotation": {"number": 0, "value": 8}, "group": "control_change"}, {"time": 241, "annotation": {"number": 32, "value": 2}, "group": "control_change"}]}, {"program": 28, "is_drum": false, "name": "WHA E.G", "notes": [{"time": 27601, "pitch": 65, "duration": 117, "velocity": 106}, {"time": 27839, "pitch": 65, "duration": 168, "velocity": 110}, {"time": 28203, "pitch": 65, "duration": 84, "velocity": 76}, {"time": 28562, "pitch": 65, "duration": 55, "velocity": 114}, {"time": 28681, "pitch": 65, "duration": 13, "velocity": 98}, {"time": 28800, "pitch": 65, "duration": 228, "velocity": 114}, {"time": 29038, "pitch": 62, "duration": 108, "velocity": 96}, {"time": 29157, "pitch": 60, "duration": 105, "velocity": 102}, {"time": 29519, "pitch": 65, "duration": 103, "velocity": 108}, {"time": 29761, "pitch": 65, "duration": 177, "velocity": 108}, {"time": 30237, "pitch": 65, "duration": 129, "velocity": 104}, {"time": 30479, "pitch": 65, "duration": 153, "velocity": 108}, {"time": 30722, "pitch": 68, "duration": 231, "velocity": 108}, {"time": 30960, "pitch": 65, "duration": 231, "velocity": 102}, {"time": 31440, "pitch": 65, "duration": 109, "velocity": 108}, {"time": 31683, "pitch": 65, "duration": 165, "velocity": 110}, {"time": 31921, "pitch": 65, "duration": 62, "velocity": 84}, {"time": 32040, "pitch": 65, "duration": 73, "velocity": 88}, {"time": 32159, "pitch": 65, "duration": 177, "velocity": 110}, {"time": 32401, "pitch": 65, "duration": 120, "velocity": 110}, {"time": 32523, "pitch": 65, "duration": 90, "velocity": 84}, {"time": 32644, "pitch": 65, "duration": 184, "velocity": 108}, {"time": 32882, "pitch": 62, "duration": 100, "velocity": 82}, {"time": 33001, "pitch": 60, "duration": 162, "velocity": 92}, {"time": 33358, "pitch": 65, "duration": 83, "velocity": 98}, {"time": 33596, "pitch": 65, "duration": 98, "velocity": 102}, {"time": 33839, "pitch": 65, "duration": 63, "velocity": 66}, {"time": 33960, "pitch": 65, "duration": 72, "velocity": 78}, {"time": 34081, "pitch": 65, "duration": 109, "velocity": 102}, {"time": 34319, "pitch": 65, "duration": 97, "velocity": 76}, {"time": 34557, "pitch": 69, "duration": 228, "velocity": 106}, {"time": 34799, "pitch": 65, "duration": 133, "velocity": 102}, {"time": 35280, "pitch": 65, "duration": 117, "velocity": 106}, {"time": 35518, "pitch": 65, "duration": 168, "velocity": 110}, {"time": 35882, "pitch": 65, "duration": 85, "velocity": 76}, {"time": 36241, "pitch": 65, "duration": 55, "velocity": 114}, {"time": 36360, "pitch": 65, "duration": 13, "velocity": 98}, {"time": 36479, "pitch": 65, "duration": 232, "velocity": 114}, {"time": 36721, "pitch": 62, "duration": 111, "velocity": 96}, {"time": 36843, "pitch": 60, "duration": 107, "velocity": 102}, {"time": 37202, "pitch": 65, "duration": 101, "velocity": 108}, {"time": 37440, "pitch": 65, "duration": 177, "velocity": 108}, {"time": 37916, "pitch": 65, "duration": 129, "velocity": 104}, {"time": 38159, "pitch": 65, "duration": 152, "velocity": 108}, {"time": 38401, "pitch": 68, "duration": 231, "velocity": 108}, {"time": 38639, "pitch": 65, "duration": 231, "velocity": 102}, {"time": 39119, "pitch": 65, "duration": 109, "velocity": 108}, {"time": 39362, "pitch": 65, "duration": 165, "velocity": 110}, {"time": 39600, "pitch": 65, "duration": 62, "velocity": 84}, {"time": 39719, "pitch": 65, "duration": 73, "velocity": 88}, {"time": 39838, "pitch": 65, "duration": 177, "velocity": 110}, {"time": 40080, "pitch": 65, "duration": 120, "velocity": 110}, {"time": 40202, "pitch": 65, "duration": 90, "velocity": 84}, {"time": 40323, "pitch": 65, "duration": 184, "velocity": 108}, {"time": 40561, "pitch": 62, "duration": 100, "velocity": 82}, {"time": 40680, "pitch": 60, "duration": 162, "velocity": 92}, {"time": 41041, "pitch": 65, "duration": 85, "velocity": 98}, {"time": 41284, "pitch": 65, "duration": 96, "velocity": 102}, {"time": 41522, "pitch": 65, "duration": 62, "velocity": 66}, {"time": 41641, "pitch": 65, "duration": 71, "velocity": 78}, {"time": 41760, "pitch": 65, "duration": 109, "velocity": 102}, {"time": 41998, "pitch": 65, "duration": 97, "velocity": 76}, {"time": 42236, "pitch": 69, "duration": 228, "velocity": 106}, {"time": 42479, "pitch": 65, "duration": 132, "velocity": 102}, {"time": 42959, "pitch": 65, "duration": 117, "velocity": 106}, {"time": 43197, "pitch": 65, "duration": 168, "velocity": 110}, {"time": 43561, "pitch": 65, "duration": 85, "velocity": 76}, {"time": 43920, "pitch": 65, "duration": 56, "velocity": 114}, {"time": 44039, "pitch": 65, "duration": 13, "velocity": 98}, {"time": 44158, "pitch": 65, "duration": 232, "velocity": 114}, {"time": 44400, "pitch": 62, "duration": 111, "velocity": 96}, {"time": 44522, "pitch": 60, "duration": 107, "velocity": 102}, {"time": 44881, "pitch": 65, "duration": 101, "velocity": 108}, {"time": 45119, "pitch": 65, "duration": 180, "velocity": 108}, {"time": 45604, "pitch": 65, "duration": 127, "velocity": 104}, {"time": 45842, "pitch": 65, "duration": 150, "velocity": 108}, {"time": 46080, "pitch": 68, "duration": 231, "velocity": 108}, {"time": 46318, "pitch": 65, "duration": 231, "velocity": 102}, {"time": 46798, "pitch": 65, "duration": 109, "velocity": 108}, {"time": 47041, "pitch": 65, "duration": 165, "velocity": 110}, {"time": 47279, "pitch": 65, "duration": 62, "velocity": 84}, {"time": 47398, "pitch": 65, "duration": 73, "velocity": 88}, {"time": 47517, "pitch": 65, "duration": 177, "velocity": 110}, {"time": 47759, "pitch": 65, "duration": 120, "velocity": 110}, {"time": 47881, "pitch": 65, "duration": 90, "velocity": 84}, {"time": 48002, "pitch": 65, "duration": 184, "velocity": 108}, {"time": 48240, "pitch": 62, "duration": 100, "velocity": 82}, {"time": 48359, "pitch": 60, "duration": 162, "velocity": 92}, {"time": 48720, "pitch": 65, "duration": 85, "velocity": 98}, {"time": 48963, "pitch": 65, "duration": 96, "velocity": 102}, {"time": 49201, "pitch": 65, "duration": 62, "velocity": 66}, {"time": 49320, "pitch": 65, "duration": 71, "velocity": 78}, {"time": 49439, "pitch": 65, "duration": 111, "velocity": 102}, {"time": 49681, "pitch": 65, "duration": 99, "velocity": 76}, {"time": 49924, "pitch": 69, "duration": 224, "velocity": 106}, {"time": 50162, "pitch": 65, "duration": 130, "velocity": 102}, {"time": 50638, "pitch": 65, "duration": 117, "velocity": 106}, {"time": 50876, "pitch": 65, "duration": 168, "velocity": 110}, {"time": 51240, "pitch": 65, "duration": 85, "velocity": 76}, {"time": 51599, "pitch": 65, "duration": 56, "velocity": 114}, {"time": 51718, "pitch": 65, "duration": 13, "velocity": 98}, {"time": 51837, "pitch": 65, "duration": 232, "velocity": 114}, {"time": 52079, "pitch": 62, "duration": 111, "velocity": 96}, {"time": 52201, "pitch": 60, "duration": 107, "velocity": 102}, {"time": 52560, "pitch": 65, "duration": 101, "velocity": 108}, {"time": 52798, "pitch": 65, "duration": 180, "velocity": 108}, {"time": 53283, "pitch": 65, "duration": 127, "velocity": 104}, {"time": 53521, "pitch": 65, "duration": 150, "velocity": 108}, {"time": 53759, "pitch": 68, "duration": 235, "velocity": 108}, {"time": 54001, "pitch": 65, "duration": 236, "velocity": 102}, {"time": 54482, "pitch": 65, "duration": 106, "velocity": 108}, {"time": 54720, "pitch": 65, "duration": 165, "velocity": 110}, {"time": 54958, "pitch": 65, "duration": 63, "velocity": 84}, {"time": 55077, "pitch": 65, "duration": 73, "velocity": 88}, {"time": 55196, "pitch": 65, "duration": 177, "velocity": 110}, {"time": 55438, "pitch": 65, "duration": 120, "velocity": 110}, {"time": 55560, "pitch": 65, "duration": 90, "velocity": 84}, {"time": 55681, "pitch": 65, "duration": 184, "velocity": 108}, {"time": 55919, "pitch": 62, "duration": 100, "velocity": 82}, {"time": 56038, "pitch": 60, "duration": 162, "velocity": 92}, {"time": 56399, "pitch": 65, "duration": 85, "velocity": 98}, {"time": 56642, "pitch": 65, "duration": 96, "velocity": 102}, {"time": 56880, "pitch": 65, "duration": 62, "velocity": 66}, {"time": 56999, "pitch": 65, "duration": 71, "velocity": 78}, {"time": 57118, "pitch": 65, "duration": 111, "velocity": 102}, {"time": 57360, "pitch": 65, "duration": 99, "velocity": 76}, {"time": 57603, "pitch": 69, "duration": 224, "velocity": 106}, {"time": 57841, "pitch": 65, "duration": 130, "velocity": 102}, {"time": 58321, "pitch": 65, "duration": 120, "velocity": 106}, {"time": 58564, "pitch": 65, "duration": 164, "velocity": 110}, {"time": 58921, "pitch": 65, "duration": 83, "velocity": 76}, {"time": 59278, "pitch": 65, "duration": 56, "velocity": 114}, {"time": 59397, "pitch": 65, "duration": 13, "velocity": 98}, {"time": 59516, "pitch": 65, "duration": 232, "velocity": 114}, {"time": 59758, "pitch": 62, "duration": 111, "velocity": 96}, {"time": 59880, "pitch": 60, "duration": 107, "velocity": 102}, {"time": 60239, "pitch": 65, "duration": 101, "velocity": 108}, {"time": 60477, "pitch": 65, "duration": 180, "velocity": 108}, {"time": 60962, "pitch": 65, "duration": 127, "velocity": 104}, {"time": 61200, "pitch": 65, "duration": 150, "velocity": 108}, {"time": 61438, "pitch": 68, "duration": 235, "velocity": 108}, {"time": 61680, "pitch": 65, "duration": 236, "velocity": 102}, {"time": 62161, "pitch": 65, "duration": 106, "velocity": 108}, {"time": 62399, "pitch": 65, "duration": 168, "velocity": 110}, {"time": 62641, "pitch": 65, "duration": 64, "velocity": 84}, {"time": 62763, "pitch": 65, "duration": 74, "velocity": 88}, {"time": 62884, "pitch": 65, "duration": 173, "velocity": 110}, {"time": 63122, "pitch": 65, "duration": 117, "velocity": 110}, {"time": 63241, "pitch": 65, "duration": 88, "velocity": 84}, {"time": 63360, "pitch": 65, "duration": 184, "velocity": 108}, {"time": 63598, "pitch": 62, "duration": 100, "velocity": 82}, {"time": 63717, "pitch": 60, "duration": 162, "velocity": 92}, {"time": 64078, "pitch": 65, "duration": 85, "velocity": 98}, {"time": 64321, "pitch": 65, "duration": 96, "velocity": 102}, {"time": 64559, "pitch": 65, "duration": 62, "velocity": 66}, {"time": 64678, "pitch": 65, "duration": 71, "velocity": 78}, {"time": 64797, "pitch": 65, "duration": 111, "velocity": 102}, {"time": 65039, "pitch": 65, "duration": 99, "velocity": 76}, {"time": 65282, "pitch": 69, "duration": 224, "velocity": 106}, {"time": 65520, "pitch": 65, "duration": 130, "velocity": 102}, {"time": 66000, "pitch": 65, "duration": 120, "velocity": 106}, {"time": 66243, "pitch": 65, "duration": 164, "velocity": 110}, {"time": 66600, "pitch": 65, "duration": 83, "velocity": 76}, {"time": 66961, "pitch": 65, "duration": 57, "velocity": 114}, {"time": 67083, "pitch": 65, "duration": 13, "velocity": 98}, {"time": 67204, "pitch": 65, "duration": 228, "velocity": 114}, {"time": 67442, "pitch": 62, "duration": 108, "velocity": 96}, {"time": 67561, "pitch": 60, "duration": 105, "velocity": 102}, {"time": 67918, "pitch": 65, "duration": 101, "velocity": 108}, {"time": 68156, "pitch": 65, "duration": 180, "velocity": 108}, {"time": 68641, "pitch": 65, "duration": 127, "velocity": 104}, {"time": 68879, "pitch": 65, "duration": 150, "velocity": 108}, {"time": 69117, "pitch": 68, "duration": 235, "velocity": 108}, {"time": 69359, "pitch": 65, "duration": 236, "velocity": 102}, {"time": 69840, "pitch": 65, "duration": 106, "velocity": 108}, {"time": 70078, "pitch": 65, "duration": 168, "velocity": 110}, {"time": 70320, "pitch": 65, "duration": 64, "velocity": 84}, {"time": 70442, "pitch": 65, "duration": 74, "velocity": 88}, {"time": 70563, "pitch": 65, "duration": 173, "velocity": 110}, {"time": 70801, "pitch": 65, "duration": 117, "velocity": 110}, {"time": 70920, "pitch": 65, "duration": 88, "velocity": 84}, {"time": 71039, "pitch": 65, "duration": 188, "velocity": 108}, {"time": 71281, "pitch": 62, "duration": 102, "velocity": 82}, {"time": 71403, "pitch": 60, "duration": 163, "velocity": 92}, {"time": 71762, "pitch": 65, "duration": 83, "velocity": 98}, {"time": 72000, "pitch": 65, "duration": 96, "velocity": 102}, {"time": 72238, "pitch": 65, "duration": 63, "velocity": 66}, {"time": 72357, "pitch": 65, "duration": 71, "velocity": 78}, {"time": 72476, "pitch": 65, "duration": 111, "velocity": 102}, {"time": 72718, "pitch": 65, "duration": 99, "velocity": 76}, {"time": 72961, "pitch": 69, "duration": 224, "velocity": 106}, {"time": 73199, "pitch": 65, "duration": 130, "velocity": 102}, {"time": 73679, "pitch": 65, "duration": 120, "velocity": 106}, {"time": 73922, "pitch": 65, "duration": 165, "velocity": 110}, {"time": 74279, "pitch": 65, "duration": 83, "velocity": 76}, {"time": 74640, "pitch": 65, "duration": 57, "velocity": 114}, {"time": 74762, "pitch": 65, "duration": 13, "velocity": 98}, {"time": 74883, "pitch": 65, "duration": 228, "velocity": 114}, {"time": 75121, "pitch": 62, "duration": 108, "velocity": 96}, {"time": 75240, "pitch": 60, "duration": 105, "velocity": 102}, {"time": 75601, "pitch": 65, "duration": 103, "velocity": 108}, {"time": 75844, "pitch": 65, "duration": 176, "velocity": 108}, {"time": 76320, "pitch": 65, "duration": 127, "velocity": 104}, {"time": 76558, "pitch": 65, "duration": 150, "velocity": 108}, {"time": 76796, "pitch": 68, "duration": 235, "velocity": 108}, {"time": 77038, "pitch": 65, "duration": 236, "velocity": 102}, {"time": 77519, "pitch": 65, "duration": 106, "velocity": 108}, {"time": 77757, "pitch": 65, "duration": 168, "velocity": 110}, {"time": 77999, "pitch": 65, "duration": 64, "velocity": 84}, {"time": 78121, "pitch": 65, "duration": 74, "velocity": 88}, {"time": 78242, "pitch": 65, "duration": 173, "velocity": 110}, {"time": 78480, "pitch": 65, "duration": 117, "velocity": 110}, {"time": 78599, "pitch": 65, "duration": 88, "velocity": 84}, {"time": 78718, "pitch": 65, "duration": 188, "velocity": 108}, {"time": 78960, "pitch": 62, "duration": 102, "velocity": 82}, {"time": 79082, "pitch": 60, "duration": 163, "velocity": 92}, {"time": 79441, "pitch": 65, "duration": 83, "velocity": 98}, {"time": 79679, "pitch": 65, "duration": 98, "velocity": 102}, {"time": 79921, "pitch": 65, "duration": 64, "velocity": 66}, {"time": 80043, "pitch": 65, "duration": 72, "velocity": 78}, {"time": 80164, "pitch": 65, "duration": 109, "velocity": 102}, {"time": 80402, "pitch": 65, "duration": 97, "velocity": 76}, {"time": 80640, "pitch": 69, "duration": 224, "velocity": 106}, {"time": 80878, "pitch": 65, "duration": 130, "velocity": 102}, {"time": 81358, "pitch": 65, "duration": 120, "velocity": 106}, {"time": 81601, "pitch": 65, "duration": 165, "velocity": 110}, {"time": 81958, "pitch": 65, "duration": 83, "velocity": 76}, {"time": 82319, "pitch": 65, "duration": 57, "velocity": 114}, {"time": 82441, "pitch": 65, "duration": 13, "velocity": 98}, {"time": 82562, "pitch": 65, "duration": 228, "velocity": 114}, {"time": 82800, "pitch": 62, "duration": 108, "velocity": 96}, {"time": 82919, "pitch": 60, "duration": 105, "velocity": 102}, {"time": 83280, "pitch": 65, "duration": 103, "velocity": 108}, {"time": 83523, "pitch": 65, "duration": 176, "velocity": 108}, {"time": 83999, "pitch": 65, "duration": 129, "velocity": 104}, {"time": 84241, "pitch": 65, "duration": 153, "velocity": 108}, {"time": 84484, "pitch": 68, "duration": 231, "velocity": 108}, {"time": 84722, "pitch": 65, "duration": 231, "velocity": 102}, {"time": 85198, "pitch": 65, "duration": 106, "velocity": 108}, {"time": 85436, "pitch": 65, "duration": 168, "velocity": 110}, {"time": 85678, "pitch": 65, "duration": 64, "velocity": 84}, {"time": 85800, "pitch": 65, "duration": 74, "velocity": 88}, {"time": 85921, "pitch": 65, "duration": 173, "velocity": 110}, {"time": 86159, "pitch": 65, "duration": 117, "velocity": 110}, {"time": 86278, "pitch": 65, "duration": 88, "velocity": 84}, {"time": 86397, "pitch": 65, "duration": 188, "velocity": 108}, {"time": 86639, "pitch": 62, "duration": 102, "velocity": 82}, {"time": 86761, "pitch": 60, "duration": 163, "velocity": 92}, {"time": 87120, "pitch": 65, "duration": 83, "velocity": 98}, {"time": 87358, "pitch": 65, "duration": 98, "velocity": 102}, {"time": 87600, "pitch": 65, "duration": 64, "velocity": 66}, {"time": 87722, "pitch": 65, "duration": 72, "velocity": 78}, {"time": 87843, "pitch": 65, "duration": 109, "velocity": 102}, {"time": 88081, "pitch": 65, "duration": 97, "velocity": 76}, {"time": 88319, "pitch": 69, "duration": 228, "velocity": 106}, {"time": 88561, "pitch": 65, "duration": 133, "velocity": 102}, {"time": 89042, "pitch": 65, "duration": 117, "velocity": 106}, {"time": 89280, "pitch": 65, "duration": 165, "velocity": 110}, {"time": 89637, "pitch": 65, "duration": 83, "velocity": 76}, {"time": 89998, "pitch": 65, "duration": 57, "velocity": 114}, {"time": 90120, "pitch": 65, "duration": 13, "velocity": 98}, {"time": 90241, "pitch": 65, "duration": 228, "velocity": 114}, {"time": 90479, "pitch": 62, "duration": 108, "velocity": 96}, {"time": 90598, "pitch": 60, "duration": 105, "velocity": 102}, {"time": 90959, "pitch": 65, "duration": 103, "velocity": 108}, {"time": 91202, "pitch": 65, "duration": 176, "velocity": 108}, {"time": 91678, "pitch": 65, "duration": 129, "velocity": 104}, {"time": 91920, "pitch": 65, "duration": 153, "velocity": 108}, {"time": 92163, "pitch": 68, "duration": 231, "velocity": 108}, {"time": 92401, "pitch": 65, "duration": 231, "velocity": 102}, {"time": 92881, "pitch": 65, "duration": 108, "velocity": 108}, {"time": 93124, "pitch": 65, "duration": 164, "velocity": 110}, {"time": 93362, "pitch": 65, "duration": 62, "velocity": 84}, {"time": 93481, "pitch": 65, "duration": 73, "velocity": 88}, {"time": 93600, "pitch": 65, "duration": 174, "velocity": 110}, {"time": 93838, "pitch": 65, "duration": 117, "velocity": 110}, {"time": 93957, "pitch": 65, "duration": 88, "velocity": 84}, {"time": 94076, "pitch": 65, "duration": 188, "velocity": 108}, {"time": 94318, "pitch": 62, "duration": 102, "velocity": 82}, {"time": 94440, "pitch": 60, "duration": 164, "velocity": 92}, {"time": 94799, "pitch": 65, "duration": 83, "velocity": 98}, {"time": 95037, "pitch": 65, "duration": 98, "velocity": 102}, {"time": 95279, "pitch": 65, "duration": 64, "velocity": 66}, {"time": 95401, "pitch": 65, "duration": 72, "velocity": 78}, {"time": 95522, "pitch": 65, "duration": 109, "velocity": 102}, {"time": 95760, "pitch": 65, "duration": 97, "velocity": 76}, {"time": 95998, "pitch": 69, "duration": 228, "velocity": 106}, {"time": 96240, "pitch": 65, "duration": 133, "velocity": 102}, {"time": 96721, "pitch": 65, "duration": 117, "velocity": 106}, {"time": 96959, "pitch": 65, "duration": 168, "velocity": 110}, {"time": 97323, "pitch": 65, "duration": 84, "velocity": 76}, {"time": 97682, "pitch": 65, "duration": 55, "velocity": 114}, {"time": 97801, "pitch": 65, "duration": 13, "velocity": 98}, {"time": 97920, "pitch": 65, "duration": 228, "velocity": 114}, {"time": 98158, "pitch": 62, "duration": 108, "velocity": 96}, {"time": 98277, "pitch": 60, "duration": 105, "velocity": 102}, {"time": 98638, "pitch": 65, "duration": 103, "velocity": 108}, {"time": 98881, "pitch": 65, "duration": 176, "velocity": 108}, {"time": 99357, "pitch": 65, "duration": 129, "velocity": 104}, {"time": 99599, "pitch": 65, "duration": 153, "velocity": 108}, {"time": 99842, "pitch": 68, "duration": 231, "velocity": 108}, {"time": 100080, "pitch": 65, "duration": 231, "velocity": 102}, {"time": 100560, "pitch": 65, "duration": 108, "velocity": 108}, {"time": 100803, "pitch": 65, "duration": 164, "velocity": 110}, {"time": 101041, "pitch": 65, "duration": 62, "velocity": 84}, {"time": 101160, "pitch": 65, "duration": 73, "velocity": 88}, {"time": 101279, "pitch": 65, "duration": 177, "velocity": 110}, {"time": 101521, "pitch": 65, "duration": 120, "velocity": 110}, {"time": 101643, "pitch": 65, "duration": 89, "velocity": 84}, {"time": 101764, "pitch": 65, "duration": 184, "velocity": 108}, {"time": 102002, "pitch": 62, "duration": 100, "velocity": 82}, {"time": 102121, "pitch": 60, "duration": 162, "velocity": 92}, {"time": 102478, "pitch": 65, "duration": 83, "velocity": 98}, {"time": 102716, "pitch": 65, "duration": 98, "velocity": 102}, {"time": 102958, "pitch": 65, "duration": 64, "velocity": 66}, {"time": 103080, "pitch": 65, "duration": 72, "velocity": 78}, {"time": 103201, "pitch": 65, "duration": 109, "velocity": 102}, {"time": 103439, "pitch": 65, "duration": 97, "velocity": 76}, {"time": 103677, "pitch": 69, "duration": 228, "velocity": 106}, {"time": 103919, "pitch": 65, "duration": 133, "velocity": 102}, {"time": 119758, "pitch": 65, "duration": 117, "velocity": 106}, {"time": 119996, "pitch": 65, "duration": 168, "velocity": 110}, {"time": 120360, "pitch": 65, "duration": 84, "velocity": 76}, {"time": 120719, "pitch": 65, "duration": 55, "velocity": 114}, {"time": 120838, "pitch": 65, "duration": 13, "velocity": 98}, {"time": 120957, "pitch": 65, "duration": 232, "velocity": 114}, {"time": 121199, "pitch": 62, "duration": 110, "velocity": 96}, {"time": 121321, "pitch": 60, "duration": 107, "velocity": 102}, {"time": 121680, "pitch": 65, "duration": 101, "velocity": 108}, {"time": 121918, "pitch": 65, "duration": 180, "velocity": 108}, {"time": 122403, "pitch": 65, "duration": 127, "velocity": 104}, {"time": 122641, "pitch": 65, "duration": 150, "velocity": 108}, {"time": 122879, "pitch": 68, "duration": 235, "velocity": 108}, {"time": 123121, "pitch": 65, "duration": 236, "velocity": 102}, {"time": 123602, "pitch": 65, "duration": 106, "velocity": 108}, {"time": 123840, "pitch": 65, "duration": 165, "velocity": 110}, {"time": 124078, "pitch": 65, "duration": 62, "velocity": 84}, {"time": 124197, "pitch": 65, "duration": 73, "velocity": 88}, {"time": 124316, "pitch": 65, "duration": 177, "velocity": 110}, {"time": 124558, "pitch": 65, "duration": 120, "velocity": 110}, {"time": 124680, "pitch": 65, "duration": 90, "velocity": 84}, {"time": 124801, "pitch": 65, "duration": 184, "velocity": 108}, {"time": 125039, "pitch": 62, "duration": 100, "velocity": 82}, {"time": 125158, "pitch": 60, "duration": 162, "velocity": 92}, {"time": 125519, "pitch": 65, "duration": 85, "velocity": 98}, {"time": 125762, "pitch": 65, "duration": 96, "velocity": 102}, {"time": 126000, "pitch": 65, "duration": 62, "velocity": 66}, {"time": 126119, "pitch": 65, "duration": 71, "velocity": 78}, {"time": 126238, "pitch": 65, "duration": 111, "velocity": 102}, {"time": 126480, "pitch": 65, "duration": 99, "velocity": 76}, {"time": 126723, "pitch": 69, "duration": 224, "velocity": 106}, {"time": 126961, "pitch": 65, "duration": 130, "velocity": 102}, {"time": 127441, "pitch": 65, "duration": 120, "velocity": 106}, {"time": 127684, "pitch": 65, "duration": 164, "velocity": 110}, {"time": 128041, "pitch": 65, "duration": 83, "velocity": 76}, {"time": 128398, "pitch": 65, "duration": 56, "velocity": 114}, {"time": 128517, "pitch": 65, "duration": 13, "velocity": 98}, {"time": 128636, "pitch": 65, "duration": 232, "velocity": 114}, {"time": 128878, "pitch": 62, "duration": 111, "velocity": 96}, {"time": 129000, "pitch": 60, "duration": 107, "velocity": 102}, {"time": 129359, "pitch": 65, "duration": 101, "velocity": 108}, {"time": 129597, "pitch": 65, "duration": 180, "velocity": 108}, {"time": 130082, "pitch": 65, "duration": 127, "velocity": 104}, {"time": 130320, "pitch": 65, "duration": 150, "velocity": 108}, {"time": 130558, "pitch": 68, "duration": 235, "velocity": 108}, {"time": 130800, "pitch": 65, "duration": 236, "velocity": 102}, {"time": 131281, "pitch": 65, "duration": 106, "velocity": 108}, {"time": 131519, "pitch": 65, "duration": 168, "velocity": 110}, {"time": 131761, "pitch": 65, "duration": 64, "velocity": 84}, {"time": 131883, "pitch": 65, "duration": 74, "velocity": 88}, {"time": 132004, "pitch": 65, "duration": 173, "velocity": 110}, {"time": 132242, "pitch": 65, "duration": 117, "velocity": 110}, {"time": 132361, "pitch": 65, "duration": 88, "velocity": 84}, {"time": 132480, "pitch": 65, "duration": 184, "velocity": 108}, {"time": 132718, "pitch": 62, "duration": 100, "velocity": 82}, {"time": 132837, "pitch": 60, "duration": 162, "velocity": 92}, {"time": 133198, "pitch": 65, "duration": 85, "velocity": 98}, {"time": 133441, "pitch": 65, "duration": 96, "velocity": 102}, {"time": 133679, "pitch": 65, "duration": 62, "velocity": 66}, {"time": 133798, "pitch": 65, "duration": 71, "velocity": 78}, {"time": 133917, "pitch": 65, "duration": 111, "velocity": 102}, {"time": 134159, "pitch": 65, "duration": 99, "velocity": 76}, {"time": 134402, "pitch": 69, "duration": 224, "velocity": 106}, {"time": 134640, "pitch": 65, "duration": 130, "velocity": 102}, {"time": 135120, "pitch": 65, "duration": 120, "velocity": 106}, {"time": 135363, "pitch": 65, "duration": 164, "velocity": 110}, {"time": 135720, "pitch": 65, "duration": 83, "velocity": 76}, {"time": 136081, "pitch": 65, "duration": 57, "velocity": 114}, {"time": 136203, "pitch": 65, "duration": 13, "velocity": 98}, {"time": 136324, "pitch": 65, "duration": 228, "velocity": 114}, {"time": 136562, "pitch": 62, "duration": 108, "velocity": 96}, {"time": 136681, "pitch": 60, "duration": 105, "velocity": 102}, {"time": 137038, "pitch": 65, "duration": 101, "velocity": 108}, {"time": 137276, "pitch": 65, "duration": 180, "velocity": 108}, {"time": 137761, "pitch": 65, "duration": 127, "velocity": 104}, {"time": 137999, "pitch": 65, "duration": 150, "velocity": 108}, {"time": 138237, "pitch": 68, "duration": 235, "velocity": 108}, {"time": 138479, "pitch": 65, "duration": 236, "velocity": 102}, {"time": 138960, "pitch": 65, "duration": 106, "velocity": 108}, {"time": 139198, "pitch": 65, "duration": 168, "velocity": 110}, {"time": 139440, "pitch": 65, "duration": 64, "velocity": 84}, {"time": 139562, "pitch": 65, "duration": 74, "velocity": 88}, {"time": 139683, "pitch": 65, "duration": 173, "velocity": 110}, {"time": 139921, "pitch": 65, "duration": 117, "velocity": 110}, {"time": 140040, "pitch": 65, "duration": 88, "velocity": 84}, {"time": 140159, "pitch": 65, "duration": 188, "velocity": 108}, {"time": 140401, "pitch": 62, "duration": 102, "velocity": 82}, {"time": 140523, "pitch": 60, "duration": 163, "velocity": 92}, {"time": 140882, "pitch": 65, "duration": 83, "velocity": 98}, {"time": 141120, "pitch": 65, "duration": 96, "velocity": 102}, {"time": 141358, "pitch": 65, "duration": 62, "velocity": 66}, {"time": 141477, "pitch": 65, "duration": 71, "velocity": 78}, {"time": 141596, "pitch": 65, "duration": 111, "velocity": 102}, {"time": 141838, "pitch": 65, "duration": 99, "velocity": 76}, {"time": 142081, "pitch": 69, "duration": 224, "velocity": 106}, {"time": 142319, "pitch": 65, "duration": 130, "velocity": 102}, {"time": 142799, "pitch": 65, "duration": 120, "velocity": 106}, {"time": 143042, "pitch": 65, "duration": 164, "velocity": 110}, {"time": 143399, "pitch": 65, "duration": 83, "velocity": 76}, {"time": 143760, "pitch": 65, "duration": 57, "velocity": 114}, {"time": 143882, "pitch": 65, "duration": 13, "velocity": 98}, {"time": 144003, "pitch": 65, "duration": 228, "velocity": 114}, {"time": 144241, "pitch": 62, "duration": 108, "velocity": 96}, {"time": 144360, "pitch": 60, "duration": 105, "velocity": 102}, {"time": 144721, "pitch": 65, "duration": 103, "velocity": 108}, {"time": 144964, "pitch": 65, "duration": 176, "velocity": 108}, {"time": 145440, "pitch": 65, "duration": 127, "velocity": 104}, {"time": 145678, "pitch": 65, "duration": 150, "velocity": 108}, {"time": 145916, "pitch": 68, "duration": 235, "velocity": 108}, {"time": 146158, "pitch": 65, "duration": 236, "velocity": 102}, {"time": 146639, "pitch": 65, "duration": 106, "velocity": 108}, {"time": 146877, "pitch": 65, "duration": 168, "velocity": 110}, {"time": 147119, "pitch": 65, "duration": 64, "velocity": 84}, {"time": 147241, "pitch": 65, "duration": 74, "velocity": 88}, {"time": 147362, "pitch": 65, "duration": 173, "velocity": 110}, {"time": 147600, "pitch": 65, "duration": 117, "velocity": 110}, {"time": 147719, "pitch": 65, "duration": 88, "velocity": 84}, {"time": 147838, "pitch": 65, "duration": 188, "velocity": 108}, {"time": 148080, "pitch": 62, "duration": 102, "velocity": 82}, {"time": 148202, "pitch": 60, "duration": 163, "velocity": 92}, {"time": 148561, "pitch": 65, "duration": 83, "velocity": 98}, {"time": 148799, "pitch": 65, "duration": 98, "velocity": 102}, {"time": 149041, "pitch": 65, "duration": 64, "velocity": 66}, {"time": 149163, "pitch": 65, "duration": 72, "velocity": 78}, {"time": 149284, "pitch": 65, "duration": 109, "velocity": 102}, {"time": 149522, "pitch": 65, "duration": 97, "velocity": 76}, {"time": 149760, "pitch": 69, "duration": 224, "velocity": 106}, {"time": 149998, "pitch": 65, "duration": 130, "velocity": 102}, {"time": 150478, "pitch": 65, "duration": 120, "velocity": 106}, {"time": 150721, "pitch": 65, "duration": 164, "velocity": 110}, {"time": 151078, "pitch": 65, "duration": 83, "velocity": 76}, {"time": 151439, "pitch": 65, "duration": 57, "velocity": 114}, {"time": 151561, "pitch": 65, "duration": 13, "velocity": 98}, {"time": 151682, "pitch": 65, "duration": 228, "velocity": 114}, {"time": 151920, "pitch": 62, "duration": 108, "velocity": 96}, {"time": 152039, "pitch": 60, "duration": 105, "velocity": 102}, {"time": 152400, "pitch": 65, "duration": 103, "velocity": 108}, {"time": 152643, "pitch": 65, "duration": 176, "velocity": 108}, {"time": 153119, "pitch": 65, "duration": 129, "velocity": 104}, {"time": 153361, "pitch": 65, "duration": 153, "velocity": 108}, {"time": 153604, "pitch": 68, "duration": 231, "velocity": 108}, {"time": 153842, "pitch": 65, "duration": 231, "velocity": 102}, {"time": 154318, "pitch": 65, "duration": 106, "velocity": 108}, {"time": 154556, "pitch": 65, "duration": 168, "velocity": 110}, {"time": 154798, "pitch": 65, "duration": 64, "velocity": 84}, {"time": 154920, "pitch": 65, "duration": 74, "velocity": 88}, {"time": 155041, "pitch": 65, "duration": 173, "velocity": 110}, {"time": 155279, "pitch": 65, "duration": 117, "velocity": 110}, {"time": 155398, "pitch": 65, "duration": 88, "velocity": 84}, {"time": 155517, "pitch": 65, "duration": 188, "velocity": 108}, {"time": 155759, "pitch": 62, "duration": 102, "velocity": 82}, {"time": 155881, "pitch": 60, "duration": 163, "velocity": 92}, {"time": 156240, "pitch": 65, "duration": 83, "velocity": 98}, {"time": 156478, "pitch": 65, "duration": 98, "velocity": 102}, {"time": 156720, "pitch": 65, "duration": 64, "velocity": 66}, {"time": 156842, "pitch": 65, "duration": 72, "velocity": 78}, {"time": 156963, "pitch": 65, "duration": 109, "velocity": 102}, {"time": 157201, "pitch": 65, "duration": 97, "velocity": 76}, {"time": 157439, "pitch": 69, "duration": 228, "velocity": 106}, {"time": 157681, "pitch": 65, "duration": 133, "velocity": 102}, {"time": 158162, "pitch": 65, "duration": 117, "velocity": 106}, {"time": 158400, "pitch": 65, "duration": 165, "velocity": 110}, {"time": 158757, "pitch": 65, "duration": 83, "velocity": 76}, {"time": 159118, "pitch": 65, "duration": 57, "velocity": 114}, {"time": 159240, "pitch": 65, "duration": 13, "velocity": 98}, {"time": 159361, "pitch": 65, "duration": 228, "velocity": 114}, {"time": 159599, "pitch": 62, "duration": 108, "velocity": 96}, {"time": 159718, "pitch": 60, "duration": 105, "velocity": 102}, {"time": 160079, "pitch": 65, "duration": 103, "velocity": 108}, {"time": 160322, "pitch": 65, "duration": 176, "velocity": 108}, {"time": 160798, "pitch": 65, "duration": 127, "velocity": 104}, {"time": 161036, "pitch": 65, "duration": 150, "velocity": 108}, {"time": 161274, "pitch": 68, "duration": 231, "velocity": 108}, {"time": 161512, "pitch": 65, "duration": 231, "velocity": 102}, {"time": 161988, "pitch": 65, "duration": 107, "velocity": 108}, {"time": 162227, "pitch": 65, "duration": 164, "velocity": 110}, {"time": 162465, "pitch": 65, "duration": 62, "velocity": 84}, {"time": 162584, "pitch": 65, "duration": 73, "velocity": 88}, {"time": 162703, "pitch": 65, "duration": 173, "velocity": 110}, {"time": 162941, "pitch": 65, "duration": 117, "velocity": 110}, {"time": 163060, "pitch": 65, "duration": 88, "velocity": 84}, {"time": 163179, "pitch": 65, "duration": 184, "velocity": 108}, {"time": 163417, "pitch": 62, "duration": 100, "velocity": 82}, {"time": 163536, "pitch": 60, "duration": 162, "velocity": 92}, {"time": 163893, "pitch": 65, "duration": 84, "velocity": 98}, {"time": 164131, "pitch": 65, "duration": 96, "velocity": 102}, {"time": 164369, "pitch": 65, "duration": 63, "velocity": 66}, {"time": 164488, "pitch": 65, "duration": 72, "velocity": 78}, {"time": 164607, "pitch": 65, "duration": 110, "velocity": 102}, {"time": 164846, "pitch": 65, "duration": 97, "velocity": 76}, {"time": 165084, "pitch": 69, "duration": 224, "velocity": 106}, {"time": 165322, "pitch": 65, "duration": 130, "velocity": 102}], "annotations": [{"time": 284, "annotation": {"number": 7, "value": 110}, "group": "control_change"}, {"time": 306, "annotation": {"number": 11, "value": 120}, "group": "control_change"}, {"time": 328, "annotation": {"number": 10, "value": 14}, "group": "control_change"}, {"time": 350, "annotation": {"number": 91, "value": 20}, "group": "control_change"}, {"time": 372, "annotation": {"number": 93, "value": 40}, "group": "control_change"}, {"time": 394, "annotation": {"number": 101, "value": 0}, "group": "control_change"}, {"time": 415, "annotation": {"number": 100, "value": 0}, "group": "control_change"}, {"time": 437, "annotation": {"number": 6, "value": 12}, "group": "control_change"}, {"time": 459, "annotation": {"number": 101, "value": 127}, "group": "control_change"}, {"time": 482, "annotation": {"number": 100, "value": 127}, "group": "control_change"}, {"time": 152158, "annotation": {"number": 11, "value": 110}, "group": "control_change"}, {"time": 152279, "annotation": {"number": 11, "value": 109}, "group": "control_change"}, {"time": 152400, "annotation": {"number": 11, "value": 108}, "group": "control_change"}, {"time": 152522, "annotation": {"number": 11, "value": 107}, "group": "control_change"}, {"time": 152643, "annotation": {"number": 11, "value": 106}, "group": "control_change"}, {"time": 152762, "annotation": {"number": 11, "value": 105}, "group": "control_change"}, {"time": 152881, "annotation": {"number": 11, "value": 104}, "group": "control_change"}, {"time": 153000, "annotation": {"number": 11, "value": 103}, "group": "control_change"}, {"time": 153119, "annotation": {"number": 11, "value": 102}, "group": "control_change"}, {"time": 153240, "annotation": {"number": 11, "value": 101}, "group": "control_change"}, {"time": 153361, "annotation": {"number": 11, "value": 100}, "group": "control_change"}, {"time": 153483, "annotation": {"number": 11, "value": 99}, "group": "control_change"}, {"time": 153604, "annotation": {"number": 11, "value": 98}, "group": "control_change"}, {"time": 153723, "annotation": {"number": 11, "value": 97}, "group": "control_change"}, {"time": 153842, "annotation": {"number": 11, "value": 96}, "group": "control_change"}, {"time": 153961, "annotation": {"number": 11, "value": 95}, "group": "control_change"}, {"time": 154080, "annotation": {"number": 11, "value": 94}, "group": "control_change"}, {"time": 154199, "annotation": {"number": 11, "value": 93}, "group": "control_change"}, {"time": 154318, "annotation": {"number": 11, "value": 92}, "group": "control_change"}, {"time": 154437, "annotation": {"number": 11, "value": 91}, "group": "control_change"}, {"time": 154556, "annotation": {"number": 11, "value": 90}, "group": "control_change"}, {"time": 154677, "annotation": {"number": 11, "value": 89}, "group": "control_change"}, {"time": 154798, "annotation": {"number": 11, "value": 88}, "group": "control_change"}, {"time": 154920, "annotation": {"number": 11, "value": 87}, "group": "control_change"}, {"time": 155041, "annotation": {"number": 11, "value": 86}, "group": "control_change"}, {"time": 155160, "annotation": {"number": 11, "value": 85}, "group": "control_change"}, {"time": 155279, "annotation": {"number": 11, "value": 84}, "group": "control_change"}, {"time": 155398, "annotation": {"number": 11, "value": 83}, "group": "control_change"}, {"time": 155517, "annotation": {"number": 11, "value": 82}, "group": "control_change"}, {"time": 155638, "annotation": {"number": 11, "value": 81}, "group": "control_change"}, {"time": 155759, "annotation": {"number": 11, "value": 80}, "group": "control_change"}, {"time": 155881, "annotation": {"number": 11, "value": 79}, "group": "control_change"}, {"time": 156002, "annotation": {"number": 11, "value": 78}, "group": "control_change"}, {"time": 156121, "annotation": {"number": 11, "value": 77}, "group": "control_change"}, {"time": 156240, "annotation": {"number": 11, "value": 76}, "group": "control_change"}, {"time": 156359, "annotation": {"number": 11, "value": 75}, "group": "control_change"}, {"time": 156478, "annotation": {"number": 11, "value": 74}, "group": "control_change"}, {"time": 156599, "annotation": {"number": 11, "value": 73}, "group": "control_change"}, {"time": 156720, "annotation": {"number": 11, "value": 72}, "group": "control_change"}, {"time": 156842, "annotation": {"number": 11, "value": 71}, "group": "control_change"}, {"time": 156963, "annotation": {"number": 11, "value": 70}, "group": "control_change"}, {"time": 157082, "annotation": {"number": 11, "value": 69}, "group": "control_change"}, {"time": 157201, "annotation": {"number": 11, "value": 68}, "group": "control_change"}, {"time": 157320, "annotation": {"number": 11, "value": 67}, "group": "control_change"}, {"time": 157439, "annotation": {"number": 11, "value": 66}, "group": "control_change"}, {"time": 157560, "annotation": {"number": 11, "value": 65}, "group": "control_change"}, {"time": 157681, "annotation": {"number": 11, "value": 64}, "group": "control_change"}, {"time": 157803, "annotation": {"number": 11, "value": 63}, "group": "control_change"}, {"time": 157924, "annotation": {"number": 11, "value": 62}, "group": "control_change"}, {"time": 158043, "annotation": {"number": 11, "value": 61}, "group": "control_change"}, {"time": 158162, "annotation": {"number": 11, "value": 60}, "group": "control_change"}, {"time": 158281, "annotation": {"number": 11, "value": 59}, "group": "control_change"}, {"time": 158400, "annotation": {"number": 11, "value": 58}, "group": "control_change"}, {"time": 158519, "annotation": {"number": 11, "value": 57}, "group": "control_change"}, {"time": 158638, "annotation": {"number": 11, "value": 56}, "group": "control_change"}, {"time": 158757, "annotation": {"number": 11, "value": 55}, "group": "control_change"}, {"time": 158999, "annotation": {"number": 11, "value": 54}, "group": "control_change"}, {"time": 159120, "annotation": {"number": 11, "value": 53}, "group": "control_change"}, {"time": 159242, "annotation": {"number": 11, "value": 52}, "group": "control_change"}, {"time": 159363, "annotation": {"number": 11, "value": 51}, "group": "control_change"}, {"time": 159482, "annotation": {"number": 11, "value": 50}, "group": "control_change"}, {"time": 159601, "annotation": {"number": 11, "value": 49}, "group": "control_change"}, {"time": 159720, "annotation": {"number": 11, "value": 48}, "group": "control_change"}, {"time": 159839, "annotation": {"number": 11, "value": 47}, "group": "control_change"}, {"time": 159960, "annotation": {"number": 11, "value": 46}, "group": "control_change"}, {"time": 160081, "annotation": {"number": 11, "value": 45}, "group": "control_change"}, {"time": 160203, "annotation": {"number": 11, "value": 44}, "group": "control_change"}, {"time": 160324, "annotation": {"number": 11, "value": 43}, "group": "control_change"}, {"time": 160443, "annotation": {"number": 11, "value": 42}, "group": "control_change"}, {"time": 160562, "annotation": {"number": 11, "value": 41}, "group": "control_change"}, {"time": 160681, "annotation": {"number": 11, "value": 40}, "group": "control_change"}, {"time": 160800, "annotation": {"number": 11, "value": 39}, "group": "control_change"}, {"time": 160919, "annotation": {"number": 11, "value": 38}, "group": "control_change"}, {"time": 161038, "annotation": {"number": 11, "value": 37}, "group": "control_change"}, {"time": 161157, "annotation": {"number": 11, "value": 36}, "group": "control_change"}, {"time": 161276, "annotation": {"number": 11, "value": 35}, "group": "control_change"}, {"time": 161395, "annotation": {"number": 11, "value": 34}, "group": "control_change"}, {"time": 161514, "annotation": {"number": 11, "value": 33}, "group": "control_change"}, {"time": 161633, "annotation": {"number": 11, "value": 32}, "group": "control_change"}, {"time": 161752, "annotation": {"number": 11, "value": 31}, "group": "control_change"}, {"time": 161871, "annotation": {"number": 11, "value": 30}, "group": "control_change"}, {"time": 161990, "annotation": {"number": 11, "value": 29}, "group": "control_change"}, {"time": 162109, "annotation": {"number": 11, "value": 28}, "group": "control_change"}, {"time": 162228, "annotation": {"number": 11, "value": 27}, "group": "control_change"}, {"time": 162348, "annotation": {"number": 11, "value": 26}, "group": "control_change"}, {"time": 162467, "annotation": {"number": 11, "value": 25}, "group": "control_change"}, {"time": 162586, "annotation": {"number": 11, "value": 24}, "group": "control_change"}, {"time": 162705, "annotation": {"number": 11, "value": 23}, "group": "control_change"}, {"time": 162824, "annotation": {"number": 11, "value": 22}, "group": "control_change"}, {"time": 162943, "annotation": {"number": 11, "value": 21}, "group": "control_change"}, {"time": 163062, "annotation": {"number": 11, "value": 20}, "group": "control_change"}, {"time": 163181, "annotation": {"number": 11, "value": 19}, "group": "control_change"}, {"time": 163300, "annotation": {"number": 11, "value": 18}, "group": "control_change"}, {"time": 163419, "annotation": {"number": 11, "value": 17}, "group": "control_change"}, {"time": 163538, "annotation": {"number": 11, "value": 16}, "group": "control_change"}, {"time": 163657, "annotation": {"number": 11, "value": 15}, "group": "control_change"}, {"time": 163776, "annotation": {"number": 11, "value": 14}, "group": "control_change"}, {"time": 163895, "annotation": {"number": 11, "value": 13}, "group": "control_change"}, {"time": 164014, "annotation": {"number": 11, "value": 12}, "group": "control_change"}, {"time": 164133, "annotation": {"number": 11, "value": 11}, "group": "control_change"}, {"time": 164252, "annotation": {"number": 11, "value": 10}, "group": "control_change"}, {"time": 164371, "annotation": {"number": 11, "value": 9}, "group": "control_change"}, {"time": 164490, "annotation": {"number": 11, "value": 8}, "group": "control_change"}, {"time": 164609, "annotation": {"number": 11, "value": 7}, "group": "control_change"}, {"time": 164728, "annotation": {"number": 11, "value": 6}, "group": "control_change"}, {"time": 164848, "annotation": {"number": 11, "value": 5}, "group": "control_change"}, {"time": 164967, "annotation": {"number": 11, "value": 4}, "group": "control_change"}, {"time": 165086, "annotation": {"number": 11, "value": 3}, "group": "control_change"}, {"time": 165205, "annotation": {"number": 11, "value": 2}, "group": "control_change"}, {"time": 165324, "annotation": {"number": 11, "value": 1}, "group": "control_change"}, {"time": 165443, "annotation": {"number": 11, "value": 0}, "group": "control_change"}, {"time": 165560, "annotation": {"number": 11, "value": 0}, "group": "control_change"}]}, {"program": 0, "is_drum": false, "name": "CUT E.G", "annotations": [{"time": 219, "annotation": {"number": 0, "value": 0}, "group": "control_change"}, {"time": 241, "annotation": {"number": 32, "value": 1}, "group": "control_change"}]}, {"program": 26, "is_drum": false, "name": "CUT E.G", "notes": [{"time": 88804, "pitch": 60, "duration": 1136, "velocity": 112}, {"time": 88804, "pitch": 65, "duration": 1142, "velocity": 118}, {"time": 89998, "pitch": 64, "duration": 239, "velocity": 116}, {"time": 89998, "pitch": 69, "duration": 238, "velocity": 114}, {"time": 90538, "pitch": 60, "duration": 1274, "velocity": 108}, {"time": 90538, "pitch": 65, "duration": 1326, "velocity": 112}, {"time": 91920, "pitch": 60, "duration": 586, "velocity": 116}, {"time": 92163, "pitch": 62, "duration": 348, "velocity": 106}, {"time": 92639, "pitch": 60, "duration": 1129, "velocity": 112}, {"time": 92639, "pitch": 65, "duration": 1136, "velocity": 114}, {"time": 93838, "pitch": 64, "duration": 303, "velocity": 112}, {"time": 93838, "pitch": 69, "duration": 273, "velocity": 112}, {"time": 94318, "pitch": 60, "duration": 2010, "velocity": 112}, {"time": 94318, "pitch": 65, "duration": 2010, "velocity": 110}, {"time": 96483, "pitch": 60, "duration": 1141, "velocity": 112}, {"time": 96483, "pitch": 65, "duration": 1147, "velocity": 118}, {"time": 97682, "pitch": 64, "duration": 234, "velocity": 116}, {"time": 97682, "pitch": 69, "duration": 233, "velocity": 114}, {"time": 98218, "pitch": 60, "duration": 1273, "velocity": 108}, {"time": 98218, "pitch": 65, "duration": 1325, "velocity": 112}, {"time": 99599, "pitch": 60, "duration": 586, "velocity": 116}, {"time": 99842, "pitch": 62, "duration": 348, "velocity": 106}, {"time": 100318, "pitch": 60, "duration": 1132, "velocity": 112}, {"time": 100318, "pitch": 65, "duration": 1139, "velocity": 114}, {"time": 101521, "pitch": 64, "duration": 306, "velocity": 112}, {"time": 101521, "pitch": 69, "duration": 277, "velocity": 112}, {"time": 102002, "pitch": 60, "duration": 2005, "velocity": 112}, {"time": 102002, "pitch": 65, "duration": 2005, "velocity": 110}, {"time": 119520, "pitch": 60, "duration": 1141, "velocity": 112}, {"time": 119520, "pitch": 65, "duration": 1147, "velocity": 118}, {"time": 120719, "pitch": 64, "duration": 234, "velocity": 116}, {"time": 120719, "pitch": 69, "duration": 233, "velocity": 114}, {"time": 121260, "pitch": 60, "duration": 1275, "velocity": 108}, {"time": 121260, "pitch": 65, "duration": 1325, "velocity": 112}, {"time": 122641, "pitch": 60, "duration": 587, "velocity": 116}, {"time": 122879, "pitch": 62, "duration": 354, "velocity": 106}, {"time": 123364, "pitch": 60, "duration": 1123, "velocity": 112}, {"time": 123364, "pitch": 65, "duration": 1130, "velocity": 114}, {"time": 124558, "pitch": 64, "duration": 306, "velocity": 112}, {"time": 124558, "pitch": 69, "duration": 278, "velocity": 112}, {"time": 125039, "pitch": 60, "duration": 2008, "velocity": 112}, {"time": 125039, "pitch": 65, "duration": 2008, "velocity": 110}, {"time": 127199, "pitch": 60, "duration": 1141, "velocity": 112}, {"time": 127199, "pitch": 65, "duration": 1147, "velocity": 118}, {"time": 128398, "pitch": 64, "duration": 234, "velocity": 116}, {"time": 128398, "pitch": 69, "duration": 233, "velocity": 114}, {"time": 128939, "pitch": 60, "duration": 1275, "velocity": 108}, {"time": 128939, "pitch": 65, "duration": 1325, "velocity": 112}, {"time": 130320, "pitch": 60, "duration": 587, "velocity": 116}, {"time": 130558, "pitch": 62, "duration": 354, "velocity": 106}, {"time": 131043, "pitch": 60, "duration": 1128, "velocity": 112}, {"time": 131043, "pitch": 65, "duration": 1135, "velocity": 114}, {"time": 132242, "pitch": 64, "duration": 301, "velocity": 112}, {"time": 132242, "pitch": 69, "duration": 273, "velocity": 112}, {"time": 132718, "pitch": 60, "duration": 2008, "velocity": 112}, {"time": 132718, "pitch": 65, "duration": 2008, "velocity": 110}, {"time": 134878, "pitch": 60, "duration": 1145, "velocity": 112}, {"time": 134878, "pitch": 65, "duration": 1151, "velocity": 118}, {"time": 136081, "pitch": 64, "duration": 239, "velocity": 116}, {"time": 136081, "pitch": 69, "duration": 238, "velocity": 114}, {"time": 136621, "pitch": 60, "duration": 1272, "velocity": 108}, {"time": 136621, "pitch": 65, "duration": 1322, "velocity": 112}, {"time": 137999, "pitch": 60, "duration": 587, "velocity": 116}, {"time": 138237, "pitch": 62, "duration": 354, "velocity": 106}, {"time": 138722, "pitch": 60, "duration": 1128, "velocity": 112}, {"time": 138722, "pitch": 65, "duration": 1135, "velocity": 114}, {"time": 139921, "pitch": 64, "duration": 303, "velocity": 112}, {"time": 139921, "pitch": 69, "duration": 273, "velocity": 112}, {"time": 140401, "pitch": 60, "duration": 2004, "velocity": 112}, {"time": 140401, "pitch": 65, "duration": 2004, "velocity": 110}, {"time": 142557, "pitch": 60, "duration": 1145, "velocity": 112}, {"time": 142557, "pitch": 65, "duration": 1151, "velocity": 118}, {"time": 143760, "pitch": 64, "duration": 239, "velocity": 116}, {"time": 143760, "pitch": 69, "duration": 238, "velocity": 114}, {"time": 144300, "pitch": 60, "duration": 1272, "velocity": 108}, {"time": 144300, "pitch": 65, "duration": 1322, "velocity": 112}, {"time": 145678, "pitch": 60, "duration": 587, "velocity": 116}, {"time": 145916, "pitch": 62, "duration": 355, "velocity": 106}, {"time": 146401, "pitch": 60, "duration": 1128, "velocity": 112}, {"time": 146401, "pitch": 65, "duration": 1135, "velocity": 114}, {"time": 147600, "pitch": 64, "duration": 303, "velocity": 112}, {"time": 147600, "pitch": 69, "duration": 273, "velocity": 112}, {"time": 148080, "pitch": 60, "duration": 2004, "velocity": 112}, {"time": 148080, "pitch": 65, "duration": 2004, "velocity": 110}, {"time": 150236, "pitch": 60, "duration": 1145, "velocity": 112}, {"time": 150236, "pitch": 65, "duration": 1151, "velocity": 118}, {"time": 151439, "pitch": 64, "duration": 239, "velocity": 116}, {"time": 151439, "pitch": 69, "duration": 238, "velocity": 114}, {"time": 151979, "pitch": 60, "duration": 1274, "velocity": 108}, {"time": 151979, "pitch": 65, "duration": 1326, "velocity": 112}, {"time": 153361, "pitch": 60, "duration": 586, "velocity": 116}, {"time": 153604, "pitch": 62, "duration": 348, "velocity": 106}, {"time": 154080, "pitch": 60, "duration": 1128, "velocity": 112}, {"time": 154080, "pitch": 65, "duration": 1135, "velocity": 114}, {"time": 155279, "pitch": 64, "duration": 303, "velocity": 112}, {"time": 155279, "pitch": 69, "duration": 273, "velocity": 112}, {"time": 155759, "pitch": 60, "duration": 2010, "velocity": 112}, {"time": 155759, "pitch": 65, "duration": 2010, "velocity": 110}, {"time": 157924, "pitch": 60, "duration": 1136, "velocity": 112}, {"time": 157924, "pitch": 65, "duration": 1142, "velocity": 118}, {"time": 159118, "pitch": 64, "duration": 239, "velocity": 116}, {"time": 159118, "pitch": 69, "duration": 238, "velocity": 114}, {"time": 159658, "pitch": 60, "duration": 1272, "velocity": 108}, {"time": 159658, "pitch": 65, "duration": 1322, "velocity": 112}, {"time": 161036, "pitch": 60, "duration": 581, "velocity": 116}, {"time": 161274, "pitch": 62, "duration": 348, "velocity": 106}, {"time": 161750, "pitch": 60, "duration": 1120, "velocity": 112}, {"time": 161750, "pitch": 65, "duration": 1127, "velocity": 114}, {"time": 162941, "pitch": 64, "duration": 301, "velocity": 112}, {"time": 162941, "pitch": 69, "duration": 273, "velocity": 112}, {"time": 163417, "pitch": 60, "duration": 1991, "velocity": 112}, {"time": 163417, "pitch": 65, "duration": 1991, "velocity": 110}], "annotations": [{"time": 284, "annotation": {"number": 7, "value": 90}, "group": "control_change"}, {"time": 306, "annotation": {"number": 11, "value": 110}, "group": "control_change"}, {"time": 328, "annotation": {"number": 10, "value": 114}, "group": "control_change"}, {"time": 350, "annotation": {"number": 91, "value": 40}, "group": "control_change"}, {"time": 372, "annotation": {"number": 93, "value": 40}, "group": "control_change"}, {"time": 394, "annotation": {"number": 101, "value": 0}, "group": "control_change"}, {"time": 415, "annotation": {"number": 100, "value": 0}, "group": "control_change"}, {"time": 437, "annotation": {"number": 6, "value": 12}, "group": "control_change"}, {"time": 459, "annotation": {"number": 101, "value": 127}, "group": "control_change"}, {"time": 482, "annotation": {"number": 100, "value": 127}, "group": "control_change"}, {"time": 152158, "annotation": {"number": 11, "value": 110}, "group": "control_change"}, {"time": 152279, "annotation": {"number": 11, "value": 109}, "group": "control_change"}, {"time": 152400, "annotation": {"number": 11, "value": 108}, "group": "control_change"}, {"time": 152522, "annotation": {"number": 11, "value": 107}, "group": "control_change"}, {"time": 152643, "annotation": {"number": 11, "value": 106}, "group": "control_change"}, {"time": 152762, "annotation": {"number": 11, "value": 105}, "group": "control_change"}, {"time": 152881, "annotation": {"number": 11, "value": 104}, "group": "control_change"}, {"time": 153000, "annotation": {"number": 11, "value": 103}, "group": "control_change"}, {"time": 153119, "annotation": {"number": 11, "value": 102}, "group": "control_change"}, {"time": 153240, "annotation": {"number": 11, "value": 101}, "group": "control_change"}, {"time": 153361, "annotation": {"number": 11, "value": 100}, "group": "control_change"}, {"time": 153483, "annotation": {"number": 11, "value": 99}, "group": "control_change"}, {"time": 153604, "annotation": {"number": 11, "value": 98}, "group": "control_change"}, {"time": 153723, "annotation": {"number": 11, "value": 97}, "group": "control_change"}, {"time": 153842, "annotation": {"number": 11, "value": 96}, "group": "control_change"}, {"time": 153961, "annotation": {"number": 11, "value": 95}, "group": "control_change"}, {"time": 154080, "annotation": {"number": 11, "value": 94}, "group": "control_change"}, {"time": 154199, "annotation": {"number": 11, "value": 93}, "group": "control_change"}, {"time": 154318, "annotation": {"number": 11, "value": 92}, "group": "control_change"}, {"time": 154437, "annotation": {"number": 11, "value": 91}, "group": "control_change"}, {"time": 154556, "annotation": {"number": 11, "value": 90}, "group": "control_change"}, {"time": 154677, "annotation": {"number": 11, "value": 89}, "group": "control_change"}, {"time": 154798, "annotation": {"number": 11, "value": 88}, "group": "control_change"}, {"time": 154920, "annotation": {"number": 11, "value": 87}, "group": "control_change"}, {"time": 155041, "annotation": {"number": 11, "value": 86}, "group": "control_change"}, {"time": 155160, "annotation": {"number": 11, "value": 85}, "group": "control_change"}, {"time": 155279, "annotation": {"number": 11, "value": 84}, "group": "control_change"}, {"time": 155398, "annotation": {"number": 11, "value": 83}, "group": "control_change"}, {"time": 155517, "annotation": {"number": 11, "value": 82}, "group": "control_change"}, {"time": 155638, "annotation": {"number": 11, "value": 81}, "group": "control_change"}, {"time": 155759, "annotation": {"number": 11, "value": 80}, "group": "control_change"}, {"time": 155881, "annotation": {"number": 11, "value": 79}, "group": "control_change"}, {"time": 156002, "annotation": {"number": 11, "value": 78}, "group": "control_change"}, {"time": 156121, "annotation": {"number": 11, "value": 77}, "group": "control_change"}, {"time": 156240, "annotation": {"number": 11, "value": 76}, "group": "control_change"}, {"time": 156359, "annotation": {"number": 11, "value": 75}, "group": "control_change"}, {"time": 156478, "annotation": {"number": 11, "value": 74}, "group": "control_change"}, {"time": 156599, "annotation": {"number": 11, "value": 73}, "group": "control_change"}, {"time": 156720, "annotation": {"number": 11, "value": 72}, "group": "control_change"}, {"time": 156842, "annotation": {"number": 11, "value": 71}, "group": "control_change"}, {"time": 156963, "annotation": {"number": 11, "value": 70}, "group": "control_change"}, {"time": 157082, "annotation": {"number": 11, "value": 69}, "group": "control_change"}, {"time": 157201, "annotation": {"number": 11, "value": 68}, "group": "control_change"}, {"time": 157320, "annotation": {"number": 11, "value": 67}, "group": "control_change"}, {"time": 157439, "annotation": {"number": 11, "value": 66}, "group": "control_change"}, {"time": 157560, "annotation": {"number": 11, "value": 65}, "group": "control_change"}, {"time": 157681, "annotation": {"number": 11, "value": 64}, "group": "control_change"}, {"time": 157803, "annotation": {"number": 11, "value": 63}, "group": "control_change"}, {"time": 157924, "annotation": {"number": 11, "value": 62}, "group": "control_change"}, {"time": 158043, "annotation": {"number": 11, "value": 61}, "group": "control_change"}, {"time": 158162, "annotation": {"number": 11, "value": 60}, "group": "control_change"}, {"time": 158281, "annotation": {"number": 11, "value": 59}, "group": "control_change"}, {"time": 158400, "annotation": {"number": 11, "value": 58}, "group": "control_change"}, {"time": 158519, "annotation": {"number": 11, "value": 57}, "group": "control_change"}, {"time": 158638, "annotation": {"number": 11, "value": 56}, "group": "control_change"}, {"time": 158757, "annotation": {"number": 11, "value": 55}, "group": "control_change"}, {"time": 158999, "annotation": {"number": 11, "value": 54}, "group": "control_change"}, {"time": 159120, "annotation": {"number": 11, "value": 53}, "group": "control_change"}, {"time": 159242, "annotation": {"number": 11, "value": 52}, "group": "control_change"}, {"time": 159363, "annotation": {"number": 11, "value": 51}, "group": "control_change"}, {"time": 159482, "annotation": {"number": 11, "value": 50}, "group": "control_change"}, {"time": 159601, "annotation": {"number": 11, "value": 49}, "group": "control_change"}, {"time": 159720, "annotation": {"number": 11, "value": 48}, "group": "control_change"}, {"time": 159839, "annotation": {"number": 11, "value": 47}, "group": "control_change"}, {"time": 159960, "annotation": {"number": 11, "value": 46}, "group": "control_change"}, {"time": 160081, "annotation": {"number": 11, "value": 45}, "group": "control_change"}, {"time": 160203, "annotation": {"number": 11, "value": 44}, "group": "control_change"}, {"time": 160324, "annotation": {"number": 11, "value": 43}, "group": "control_change"}, {"time": 160443, "annotation": {"number": 11, "value": 42}, "group": "control_change"}, {"time": 160562, "annotation": {"number": 11, "value": 41}, "group": "control_change"}, {"time": 160681, "annotation": {"number": 11, "value": 40}, "group": "control_change"}, {"time": 160800, "annotation": {"number": 11, "value": 39}, "group": "control_change"}, {"time": 160919, "annotation": {"number": 11, "value": 38}, "group": "control_change"}, {"time": 161038, "annotation": {"number": 11, "value": 37}, "group": "control_change"}, {"time": 161157, "annotation": {"number": 11, "value": 36}, "group": "control_change"}, {"time": 161276, "annotation": {"number": 11, "value": 35}, "group": "control_change"}, {"time": 161395, "annotation": {"number": 11, "value": 34}, "group": "control_change"}, {"time": 161514, "annotation": {"number": 11, "value": 33}, "group": "control_change"}, {"time": 161633, "annotation": {"number": 11, "value": 32}, "group": "control_change"}, {"time": 161752, "annotation": {"number": 11, "value": 31}, "group": "control_change"}, {"time": 161871, "annotation": {"number": 11, "value": 30}, "group": "control_change"}, {"time": 161990, "annotation": {"number": 11, "value": 29}, "group": "control_change"}, {"time": 162109, "annotation": {"number": 11, "value": 28}, "group": "control_change"}, {"time": 162228, "annotation": {"number": 11, "value": 27}, "group": "control_change"}, {"time": 162348, "annotation": {"number": 11, "value": 26}, "group": "control_change"}, {"time": 162467, "annotation": {"number": 11, "value": 25}, "group": "control_change"}, {"time": 162586, "annotation": {"number": 11, "value": 24}, "group": "control_change"}, {"time": 162705, "annotation": {"number": 11, "value": 23}, "group": "control_change"}, {"time": 162824, "annotation": {"number": 11, "value": 22}, "group": "control_change"}, {"time": 162943, "annotation": {"number": 11, "value": 21}, "group": "control_change"}, {"time": 163062, "annotation": {"number": 11, "value": 20}, "group": "control_change"}, {"time": 163181, "annotation": {"number": 11, "value": 19}, "group": "control_change"}, {"time": 163300, "annotation": {"number": 11, "value": 18}, "group": "control_change"}, {"time": 163419, "annotation": {"number": 11, "value": 17}, "group": "control_change"}, {"time": 163538, "annotation": {"number": 11, "value": 16}, "group": "control_change"}, {"time": 163657, "annotation": {"number": 11, "value": 15}, "group": "control_change"}, {"time": 163776, "annotation": {"number": 11, "value": 14}, "group": "control_change"}, {"time": 163895, "annotation": {"number": 11, "value": 13}, "group": "control_change"}, {"time": 164014, "annotation": {"number": 11, "value": 12}, "group": "control_change"}, {"time": 164133, "annotation": {"number": 11, "value": 11}, "group": "control_change"}, {"time": 164252, "annotation": {"number": 11, "value": 10}, "group": "control_change"}, {"time": 164371, "annotation": {"number": 11, "value": 9}, "group": "control_change"}, {"time": 164490, "annotation": {"number": 11, "value": 8}, "group": "control_change"}, {"time": 164609, "annotation": {"number": 11, "value": 7}, "group": "control_change"}, {"time": 164728, "annotation": {"number": 11, "value": 6}, "group": "control_change"}, {"time": 164848, "annotation": {"number": 11, "value": 5}, "group": "control_change"}, {"time": 164967, "annotation": {"number": 11, "value": 4}, "group": "control_change"}, {"time": 165086, "annotation": {"number": 11, "value": 3}, "group": "control_change"}, {"time": 165205, "annotation": {"number": 11, "value": 2}, "group": "control_change"}, {"time": 165324, "annotation": {"number": 11, "value": 1}, "group": "control_change"}, {"time": 165443, "annotation": {"number": 11, "value": 0}, "group": "control_change"}, {"time": 165560, "annotation": {"number": 11, "value": 0}, "group": "control_change"}]}, {"program": 0, "is_drum": true, "name": "DRUMS", "annotations": [{"time": 219, "annotation": {"number": 0, "value": 0}, "group": "control_change"}, {"time": 241, "annotation": {"number": 32, "value": 2}, "group": "control_change"}]}, {"program": 32, "is_drum": true, "name": "DRUMS", "notes": [{"time": 482, "pitch": 36, "duration": 139, "velocity": 116}, {"time": 482, "pitch": 42, "duration": 81, "velocity": 100}, {"time": 720, "pitch": 42, "duration": 79, "velocity": 94}, {"time": 958, "pitch": 38, "duration": 102, "velocity": 127}, {"time": 958, "pitch": 40, "duration": 102, "velocity": 84}, {"time": 958, "pitch": 46, "duration": 112, "velocity": 88}, {"time": 1200, "pitch": 42, "duration": 91, "velocity": 96}, {"time": 1443, "pitch": 36, "duration": 81, "velocity": 112}, {"time": 1443, "pitch": 44, "duration": 97, "velocity": 88}, {"time": 1681, "pitch": 36, "duration": 106, "velocity": 108}, {"time": 1681, "pitch": 42, "duration": 92, "velocity": 96}, {"time": 1919, "pitch": 38, "duration": 100, "velocity": 127}, {"time": 1919, "pitch": 40, "duration": 100, "velocity": 88}, {"time": 1919, "pitch": 46, "duration": 96, "velocity": 90}, {"time": 2161, "pitch": 36, "duration": 88, "velocity": 104}, {"time": 2161, "pitch": 42, "duration": 91, "velocity": 98}, {"time": 2283, "pitch": 38, "duration": 116, "velocity": 122}, {"time": 2283, "pitch": 40, "duration": 116, "velocity": 72}, {"time": 2404, "pitch": 36, "duration": 165, "velocity": 112}, {"time": 2404, "pitch": 42, "duration": 76, "velocity": 100}, {"time": 2642, "pitch": 42, "duration": 91, "velocity": 98}, {"time": 2880, "pitch": 38, "duration": 116, "velocity": 127}, {"time": 2880, "pitch": 40, "duration": 116, "velocity": 86}, {"time": 2880, "pitch": 46, "duration": 92, "velocity": 86}, {"time": 3118, "pitch": 42, "duration": 92, "velocity": 98}, {"time": 3356, "pitch": 36, "duration": 94, "velocity": 112}, {"time": 3356, "pitch": 44, "duration": 96, "velocity": 98}, {"time": 3585, "pitch": 29, "duration": 82, "velocity": 110}, {"time": 3599, "pitch": 36, "duration": 157, "velocity": 110}, {"time": 3599, "pitch": 42, "duration": 110, "velocity": 100}, {"time": 3841, "pitch": 38, "duration": 104, "velocity": 127}, {"time": 3841, "pitch": 40, "duration": 104, "velocity": 86}, {"time": 3841, "pitch": 46, "duration": 103, "velocity": 88}, {"time": 4056, "pitch": 29, "duration": 80, "velocity": 112}, {"time": 4079, "pitch": 36, "duration": 116, "velocity": 106}, {"time": 4079, "pitch": 42, "duration": 97, "velocity": 100}, {"time": 4198, "pitch": 38, "duration": 103, "velocity": 126}, {"time": 4198, "pitch": 40, "duration": 103, "velocity": 76}, {"time": 4317, "pitch": 36, "duration": 178, "velocity": 118}, {"time": 4317, "pitch": 44, "duration": 93, "velocity": 96}, {"time": 4560, "pitch": 42, "duration": 92, "velocity": 98}, {"time": 4802, "pitch": 38, "duration": 98, "velocity": 127}, {"time": 4802, "pitch": 40, "duration": 98, "velocity": 84}, {"time": 4802, "pitch": 46, "duration": 105, "velocity": 92}, {"time": 5040, "pitch": 42, "duration": 89, "velocity": 100}, {"time": 5159, "pitch": 36, "duration": 40, "velocity": 106}, {"time": 5278, "pitch": 36, "duration": 85, "velocity": 110}, {"time": 5278, "pitch": 42, "duration": 83, "velocity": 94}, {"time": 5520, "pitch": 36, "duration": 180, "velocity": 112}, {"time": 5520, "pitch": 42, "duration": 93, "velocity": 100}, {"time": 5763, "pitch": 38, "duration": 117, "velocity": 127}, {"time": 5763, "pitch": 40, "duration": 117, "velocity": 82}, {"time": 5763, "pitch": 46, "duration": 112, "velocity": 90}, {"time": 6001, "pitch": 36, "duration": 137, "velocity": 116}, {"time": 6001, "pitch": 42, "duration": 89, "velocity": 98}, {"time": 6120, "pitch": 38, "duration": 94, "velocity": 126}, {"time": 6120, "pitch": 40, "duration": 94, "velocity": 76}, {"time": 6239, "pitch": 36, "duration": 199, "velocity": 114}, {"time": 6239, "pitch": 44, "duration": 89, "velocity": 102}, {"time": 6481, "pitch": 42, "duration": 83, "velocity": 100}, {"time": 6724, "pitch": 38, "duration": 106, "velocity": 127}, {"time": 6724, "pitch": 40, "duration": 106, "velocity": 84}, {"time": 6724, "pitch": 46, "duration": 82, "velocity": 92}, {"time": 6962, "pitch": 42, "duration": 80, "velocity": 102}, {"time": 7081, "pitch": 36, "duration": 49, "velocity": 114}, {"time": 7200, "pitch": 36, "duration": 81, "velocity": 108}, {"time": 7200, "pitch": 42, "duration": 117, "velocity": 98}, {"time": 7436, "pitch": 29, "duration": 84, "velocity": 110}, {"time": 7438, "pitch": 36, "duration": 169, "velocity": 118}, {"time": 7438, "pitch": 46, "duration": 215, "velocity": 88}, {"time": 7676, "pitch": 38, "duration": 119, "velocity": 127}, {"time": 7676, "pitch": 40, "duration": 119, "velocity": 84}, {"time": 7676, "pitch": 42, "duration": 106, "velocity": 98}, {"time": 7919, "pitch": 36, "duration": 136, "velocity": 116}, {"time": 7919, "pitch": 46, "duration": 145, "velocity": 94}, {"time": 7925, "pitch": 29, "duration": 230, "velocity": 112}, {"time": 8040, "pitch": 38, "duration": 96, "velocity": 122}, {"time": 8040, "pitch": 40, "duration": 96, "velocity": 72}, {"time": 8161, "pitch": 36, "duration": 153, "velocity": 120}, {"time": 8161, "pitch": 42, "duration": 81, "velocity": 100}, {"time": 8399, "pitch": 42, "duration": 79, "velocity": 94}, {"time": 8401, "pitch": 30, "duration": 69, "velocity": 116}, {"time": 8611, "pitch": 29, "duration": 64, "velocity": 110}, {"time": 8637, "pitch": 38, "duration": 114, "velocity": 127}, {"time": 8637, "pitch": 40, "duration": 114, "velocity": 84}, {"time": 8637, "pitch": 46, "duration": 112, "velocity": 88}, {"time": 8880, "pitch": 42, "duration": 90, "velocity": 96}, {"time": 9001, "pitch": 36, "duration": 43, "velocity": 110}, {"time": 9122, "pitch": 36, "duration": 82, "velocity": 108}, {"time": 9122, "pitch": 44, "duration": 97, "velocity": 88}, {"time": 9360, "pitch": 36, "duration": 139, "velocity": 116}, {"time": 9360, "pitch": 42, "duration": 92, "velocity": 96}, {"time": 9598, "pitch": 38, "duration": 122, "velocity": 127}, {"time": 9598, "pitch": 40, "duration": 122, "velocity": 82}, {"time": 9598, "pitch": 46, "duration": 96, "velocity": 90}, {"time": 9840, "pitch": 36, "duration": 88, "velocity": 114}, {"time": 9840, "pitch": 42, "duration": 91, "velocity": 98}, {"time": 9962, "pitch": 36, "duration": 64, "velocity": 108}, {"time": 10083, "pitch": 38, "duration": 130, "velocity": 127}, {"time": 10083, "pitch": 40, "duration": 130, "velocity": 86}, {"time": 10083, "pitch": 42, "duration": 76, "velocity": 100}, {"time": 10318, "pitch": 30, "duration": 67, "velocity": 106}, {"time": 10321, "pitch": 42, "duration": 91, "velocity": 98}, {"time": 10549, "pitch": 29, "duration": 83, "velocity": 108}, {"time": 10559, "pitch": 38, "duration": 136, "velocity": 127}, {"time": 10559, "pitch": 40, "duration": 136, "velocity": 84}, {"time": 10559, "pitch": 46, "duration": 94, "velocity": 86}, {"time": 10801, "pitch": 29, "duration": 72, "velocity": 112}, {"time": 10801, "pitch": 36, "duration": 81, "velocity": 122}, {"time": 10801, "pitch": 42, "duration": 94, "velocity": 98}, {"time": 11042, "pitch": 30, "duration": 62, "velocity": 104}, {"time": 11044, "pitch": 38, "duration": 231, "velocity": 127}, {"time": 11044, "pitch": 40, "duration": 231, "velocity": 80}, {"time": 11044, "pitch": 44, "duration": 94, "velocity": 98}, {"time": 11273, "pitch": 30, "duration": 60, "velocity": 104}, {"time": 11282, "pitch": 36, "duration": 95, "velocity": 124}, {"time": 11282, "pitch": 42, "duration": 108, "velocity": 100}, {"time": 11402, "pitch": 29, "duration": 88, "velocity": 108}, {"time": 11481, "pitch": 30, "duration": 196, "velocity": 96}, {"time": 11520, "pitch": 38, "duration": 149, "velocity": 127}, {"time": 11520, "pitch": 40, "duration": 149, "velocity": 82}, {"time": 11520, "pitch": 46, "duration": 103, "velocity": 88}, {"time": 11736, "pitch": 29, "duration": 96, "velocity": 110}, {"time": 11758, "pitch": 36, "duration": 83, "velocity": 118}, {"time": 11758, "pitch": 42, "duration": 97, "velocity": 100}, {"time": 11877, "pitch": 38, "duration": 88, "velocity": 127}, {"time": 11877, "pitch": 40, "duration": 88, "velocity": 86}, {"time": 11996, "pitch": 36, "duration": 149, "velocity": 104}, {"time": 11996, "pitch": 44, "duration": 93, "velocity": 96}, {"time": 12239, "pitch": 42, "duration": 92, "velocity": 98}, {"time": 12481, "pitch": 38, "duration": 218, "velocity": 127}, {"time": 12481, "pitch": 40, "duration": 218, "velocity": 84}, {"time": 12481, "pitch": 46, "duration": 105, "velocity": 92}, {"time": 12719, "pitch": 42, "duration": 89, "velocity": 100}, {"time": 12838, "pitch": 36, "duration": 59, "velocity": 92}, {"time": 12957, "pitch": 36, "duration": 102, "velocity": 86}, {"time": 12957, "pitch": 42, "duration": 83, "velocity": 94}, {"time": 13200, "pitch": 36, "duration": 200, "velocity": 104}, {"time": 13200, "pitch": 42, "duration": 92, "velocity": 100}, {"time": 13442, "pitch": 38, "duration": 147, "velocity": 127}, {"time": 13442, "pitch": 40, "duration": 147, "velocity": 86}, {"time": 13442, "pitch": 46, "duration": 112, "velocity": 90}, {"time": 13680, "pitch": 36, "duration": 92, "velocity": 104}, {"time": 13680, "pitch": 42, "duration": 89, "velocity": 98}, {"time": 13918, "pitch": 36, "duration": 280, "velocity": 104}, {"time": 13918, "pitch": 44, "duration": 89, "velocity": 102}, {"time": 14160, "pitch": 42, "duration": 83, "velocity": 100}, {"time": 14403, "pitch": 38, "duration": 279, "velocity": 127}, {"time": 14403, "pitch": 40, "duration": 279, "velocity": 86}, {"time": 14403, "pitch": 46, "duration": 82, "velocity": 92}, {"time": 14641, "pitch": 42, "duration": 80, "velocity": 102}, {"time": 14760, "pitch": 36, "duration": 45, "velocity": 94}, {"time": 14879, "pitch": 36, "duration": 81, "velocity": 84}, {"time": 14879, "pitch": 42, "duration": 119, "velocity": 98}, {"time": 15121, "pitch": 36, "duration": 147, "velocity": 104}, {"time": 15121, "pitch": 46, "duration": 220, "velocity": 88}, {"time": 15364, "pitch": 38, "duration": 166, "velocity": 127}, {"time": 15364, "pitch": 40, "duration": 166, "velocity": 86}, {"time": 15364, "pitch": 42, "duration": 104, "velocity": 98}, {"time": 15602, "pitch": 36, "duration": 98, "velocity": 102}, {"time": 15602, "pitch": 46, "duration": 143, "velocity": 94}, {"time": 15721, "pitch": 38, "duration": 141, "velocity": 126}, {"time": 15721, "pitch": 40, "duration": 141, "velocity": 76}, {"time": 15840, "pitch": 36, "duration": 147, "velocity": 110}, {"time": 15840, "pitch": 42, "duration": 76, "velocity": 100}, {"time": 16078, "pitch": 42, "duration": 91, "velocity": 98}, {"time": 16316, "pitch": 38, "duration": 206, "velocity": 127}, {"time": 16316, "pitch": 40, "duration": 206, "velocity": 82}, {"time": 16316, "pitch": 46, "duration": 94, "velocity": 86}, {"time": 16559, "pitch": 42, "duration": 93, "velocity": 98}, {"time": 16680, "pitch": 36, "duration": 61, "velocity": 102}, {"time": 16801, "pitch": 36, "duration": 97, "velocity": 96}, {"time": 16801, "pitch": 44, "duration": 94, "velocity": 98}, {"time": 17039, "pitch": 36, "duration": 171, "velocity": 110}, {"time": 17039, "pitch": 42, "duration": 108, "velocity": 100}, {"time": 17277, "pitch": 38, "duration": 199, "velocity": 127}, {"time": 17277, "pitch": 40, "duration": 199, "velocity": 82}, {"time": 17277, "pitch": 46, "duration": 105, "velocity": 88}, {"time": 17519, "pitch": 36, "duration": 119, "velocity": 106}, {"time": 17519, "pitch": 42, "duration": 99, "velocity": 100}, {"time": 17762, "pitch": 36, "duration": 199, "velocity": 110}, {"time": 17762, "pitch": 44, "duration": 91, "velocity": 96}, {"time": 18000, "pitch": 42, "duration": 91, "velocity": 98}, {"time": 18238, "pitch": 38, "duration": 284, "velocity": 127}, {"time": 18238, "pitch": 40, "duration": 284, "velocity": 86}, {"time": 18238, "pitch": 46, "duration": 107, "velocity": 92}, {"time": 18480, "pitch": 42, "duration": 91, "velocity": 100}, {"time": 18602, "pitch": 36, "duration": 61, "velocity": 106}, {"time": 18723, "pitch": 36, "duration": 76, "velocity": 96}, {"time": 18723, "pitch": 42, "duration": 81, "velocity": 94}, {"time": 18961, "pitch": 36, "duration": 255, "velocity": 114}, {"time": 18961, "pitch": 42, "duration": 91, "velocity": 100}, {"time": 19199, "pitch": 38, "duration": 170, "velocity": 127}, {"time": 19199, "pitch": 40, "duration": 170, "velocity": 86}, {"time": 19199, "pitch": 46, "duration": 114, "velocity": 90}, {"time": 19441, "pitch": 36, "duration": 106, "velocity": 112}, {"time": 19441, "pitch": 42, "duration": 91, "velocity": 98}, {"time": 19563, "pitch": 38, "duration": 143, "velocity": 126}, {"time": 19563, "pitch": 40, "duration": 143, "velocity": 76}, {"time": 19684, "pitch": 36, "duration": 146, "velocity": 104}, {"time": 19684, "pitch": 44, "duration": 87, "velocity": 102}, {"time": 19922, "pitch": 42, "duration": 81, "velocity": 100}, {"time": 20160, "pitch": 38, "duration": 218, "velocity": 127}, {"time": 20160, "pitch": 40, "duration": 218, "velocity": 84}, {"time": 20160, "pitch": 46, "duration": 82, "velocity": 92}, {"time": 20398, "pitch": 42, "duration": 80, "velocity": 102}, {"time": 20517, "pitch": 36, "duration": 59, "velocity": 92}, {"time": 20636, "pitch": 36, "duration": 102, "velocity": 86}, {"time": 20636, "pitch": 42, "duration": 119, "velocity": 98}, {"time": 20879, "pitch": 36, "duration": 200, "velocity": 104}, {"time": 20879, "pitch": 46, "duration": 219, "velocity": 88}, {"time": 21121, "pitch": 38, "duration": 147, "velocity": 127}, {"time": 21121, "pitch": 40, "duration": 147, "velocity": 86}, {"time": 21121, "pitch": 42, "duration": 104, "velocity": 98}, {"time": 21359, "pitch": 36, "duration": 92, "velocity": 104}, {"time": 21359, "pitch": 46, "duration": 143, "velocity": 94}, {"time": 21597, "pitch": 36, "duration": 272, "velocity": 106}, {"time": 21597, "pitch": 42, "duration": 78, "velocity": 100}, {"time": 21839, "pitch": 42, "duration": 93, "velocity": 98}, {"time": 22082, "pitch": 38, "duration": 306, "velocity": 127}, {"time": 22082, "pitch": 40, "duration": 306, "velocity": 88}, {"time": 22082, "pitch": 46, "duration": 92, "velocity": 86}, {"time": 22320, "pitch": 42, "duration": 92, "velocity": 98}, {"time": 22439, "pitch": 36, "duration": 72, "velocity": 102}, {"time": 22558, "pitch": 36, "duration": 102, "velocity": 100}, {"time": 22558, "pitch": 44, "duration": 96, "velocity": 98}, {"time": 22800, "pitch": 36, "duration": 150, "velocity": 108}, {"time": 22800, "pitch": 42, "duration": 111, "velocity": 100}, {"time": 23043, "pitch": 38, "duration": 158, "velocity": 127}, {"time": 23043, "pitch": 40, "duration": 158, "velocity": 88}, {"time": 23043, "pitch": 46, "duration": 103, "velocity": 88}, {"time": 23281, "pitch": 36, "duration": 113, "velocity": 104}, {"time": 23281, "pitch": 42, "duration": 97, "velocity": 100}, {"time": 23400, "pitch": 38, "duration": 154, "velocity": 127}, {"time": 23400, "pitch": 40, "duration": 154, "velocity": 80}, {"time": 23519, "pitch": 36, "duration": 223, "velocity": 108}, {"time": 23519, "pitch": 44, "duration": 93, "velocity": 96}, {"time": 23761, "pitch": 42, "duration": 93, "velocity": 98}, {"time": 24004, "pitch": 38, "duration": 225, "velocity": 127}, {"time": 24004, "pitch": 40, "duration": 225, "velocity": 80}, {"time": 24004, "pitch": 46, "duration": 105, "velocity": 92}, {"time": 24242, "pitch": 36, "duration": 122, "velocity": 106}, {"time": 24242, "pitch": 42, "duration": 89, "velocity": 100}, {"time": 24480, "pitch": 36, "duration": 254, "velocity": 106}, {"time": 24480, "pitch": 42, "duration": 81, "velocity": 94}, {"time": 24718, "pitch": 42, "duration": 91, "velocity": 100}, {"time": 24837, "pitch": 36, "duration": 104, "velocity": 100}, {"time": 24956, "pitch": 38, "duration": 249, "velocity": 127}, {"time": 24956, "pitch": 40, "duration": 249, "velocity": 82}, {"time": 24956, "pitch": 46, "duration": 114, "velocity": 90}, {"time": 25199, "pitch": 36, "duration": 153, "velocity": 108}, {"time": 25199, "pitch": 42, "duration": 90, "velocity": 98}, {"time": 25441, "pitch": 36, "duration": 206, "velocity": 114}, {"time": 25441, "pitch": 44, "duration": 87, "velocity": 102}, {"time": 25679, "pitch": 42, "duration": 81, "velocity": 100}, {"time": 25798, "pitch": 36, "duration": 71, "velocity": 110}, {"time": 25917, "pitch": 38, "duration": 159, "velocity": 127}, {"time": 25917, "pitch": 40, "duration": 159, "velocity": 86}, {"time": 25917, "pitch": 46, "duration": 84, "velocity": 92}, {"time": 26159, "pitch": 36, "duration": 106, "velocity": 96}, {"time": 26159, "pitch": 42, "duration": 82, "velocity": 102}, {"time": 26402, "pitch": 38, "duration": 111, "velocity": 127}, {"time": 26402, "pitch": 40, "duration": 111, "velocity": 84}, {"time": 26402, "pitch": 42, "duration": 117, "velocity": 98}, {"time": 26640, "pitch": 36, "duration": 88, "velocity": 104}, {"time": 26640, "pitch": 46, "duration": 215, "velocity": 88}, {"time": 26878, "pitch": 38, "duration": 208, "velocity": 127}, {"time": 26878, "pitch": 40, "duration": 208, "velocity": 84}, {"time": 26878, "pitch": 42, "duration": 106, "velocity": 98}, {"time": 27120, "pitch": 36, "duration": 98, "velocity": 114}, {"time": 27120, "pitch": 46, "duration": 146, "velocity": 94}, {"time": 27363, "pitch": 36, "duration": 146, "velocity": 104}, {"time": 27363, "pitch": 44, "duration": 91, "velocity": 96}, {"time": 27601, "pitch": 42, "duration": 91, "velocity": 98}, {"time": 27839, "pitch": 38, "duration": 222, "velocity": 127}, {"time": 27839, "pitch": 40, "duration": 222, "velocity": 84}, {"time": 27839, "pitch": 46, "duration": 107, "velocity": 92}, {"time": 28081, "pitch": 42, "duration": 91, "velocity": 100}, {"time": 28203, "pitch": 36, "duration": 59, "velocity": 92}, {"time": 28324, "pitch": 36, "duration": 100, "velocity": 86}, {"time": 28324, "pitch": 42, "duration": 81, "velocity": 94}, {"time": 28562, "pitch": 36, "duration": 196, "velocity": 104}, {"time": 28562, "pitch": 42, "duration": 91, "velocity": 100}, {"time": 28800, "pitch": 38, "duration": 147, "velocity": 127}, {"time": 28800, "pitch": 40, "duration": 147, "velocity": 86}, {"time": 28800, "pitch": 46, "duration": 112, "velocity": 90}, {"time": 29038, "pitch": 36, "duration": 92, "velocity": 104}, {"time": 29038, "pitch": 42, "duration": 89, "velocity": 98}, {"time": 29276, "pitch": 36, "duration": 280, "velocity": 104}, {"time": 29276, "pitch": 44, "duration": 89, "velocity": 102}, {"time": 29519, "pitch": 42, "duration": 82, "velocity": 100}, {"time": 29761, "pitch": 38, "duration": 279, "velocity": 127}, {"time": 29761, "pitch": 40, "duration": 279, "velocity": 86}, {"time": 29761, "pitch": 46, "duration": 82, "velocity": 92}, {"time": 29999, "pitch": 42, "duration": 80, "velocity": 102}, {"time": 30118, "pitch": 36, "duration": 45, "velocity": 94}, {"time": 30237, "pitch": 36, "duration": 81, "velocity": 84}, {"time": 30237, "pitch": 42, "duration": 119, "velocity": 98}, {"time": 30479, "pitch": 36, "duration": 147, "velocity": 104}, {"time": 30479, "pitch": 46, "duration": 220, "velocity": 88}, {"time": 30722, "pitch": 38, "duration": 167, "velocity": 127}, {"time": 30722, "pitch": 40, "duration": 167, "velocity": 86}, {"time": 30722, "pitch": 42, "duration": 104, "velocity": 98}, {"time": 30960, "pitch": 36, "duration": 98, "velocity": 102}, {"time": 30960, "pitch": 46, "duration": 143, "velocity": 94}, {"time": 31079, "pitch": 38, "duration": 141, "velocity": 126}, {"time": 31079, "pitch": 40, "duration": 141, "velocity": 76}, {"time": 31198, "pitch": 36, "duration": 150, "velocity": 110}, {"time": 31198, "pitch": 42, "duration": 78, "velocity": 100}, {"time": 31440, "pitch": 42, "duration": 93, "velocity": 98}, {"time": 31683, "pitch": 38, "duration": 202, "velocity": 127}, {"time": 31683, "pitch": 40, "duration": 202, "velocity": 82}, {"time": 31683, "pitch": 46, "duration": 92, "velocity": 86}, {"time": 31921, "pitch": 42, "duration": 92, "velocity": 98}, {"time": 32040, "pitch": 36, "duration": 60, "velocity": 102}, {"time": 32159, "pitch": 36, "duration": 99, "velocity": 96}, {"time": 32159, "pitch": 44, "duration": 96, "velocity": 98}, {"time": 32401, "pitch": 36, "duration": 174, "velocity": 110}, {"time": 32401, "pitch": 42, "duration": 111, "velocity": 100}, {"time": 32644, "pitch": 38, "duration": 195, "velocity": 127}, {"time": 32644, "pitch": 40, "duration": 195, "velocity": 82}, {"time": 32644, "pitch": 46, "duration": 103, "velocity": 88}, {"time": 32882, "pitch": 36, "duration": 116, "velocity": 106}, {"time": 32882, "pitch": 42, "duration": 97, "velocity": 100}, {"time": 33120, "pitch": 36, "duration": 199, "velocity": 110}, {"time": 33120, "pitch": 44, "duration": 91, "velocity": 96}, {"time": 33358, "pitch": 42, "duration": 91, "velocity": 98}, {"time": 33596, "pitch": 38, "duration": 284, "velocity": 127}, {"time": 33596, "pitch": 40, "duration": 284, "velocity": 86}, {"time": 33596, "pitch": 46, "duration": 107, "velocity": 92}, {"time": 33839, "pitch": 42, "duration": 90, "velocity": 100}, {"time": 33960, "pitch": 36, "duration": 61, "velocity": 106}, {"time": 34081, "pitch": 36, "duration": 76, "velocity": 96}, {"time": 34081, "pitch": 42, "duration": 81, "velocity": 94}, {"time": 34319, "pitch": 36, "duration": 255, "velocity": 114}, {"time": 34319, "pitch": 42, "duration": 91, "velocity": 100}, {"time": 34557, "pitch": 38, "duration": 170, "velocity": 127}, {"time": 34557, "pitch": 40, "duration": 170, "velocity": 86}, {"time": 34557, "pitch": 46, "duration": 114, "velocity": 90}, {"time": 34799, "pitch": 36, "duration": 107, "velocity": 112}, {"time": 34799, "pitch": 42, "duration": 91, "velocity": 98}, {"time": 34921, "pitch": 38, "duration": 143, "velocity": 126}, {"time": 34921, "pitch": 40, "duration": 143, "velocity": 76}, {"time": 35042, "pitch": 36, "duration": 146, "velocity": 104}, {"time": 35042, "pitch": 44, "duration": 87, "velocity": 102}, {"time": 35280, "pitch": 42, "duration": 81, "velocity": 100}, {"time": 35518, "pitch": 38, "duration": 222, "velocity": 127}, {"time": 35518, "pitch": 40, "duration": 222, "velocity": 84}, {"time": 35518, "pitch": 46, "duration": 84, "velocity": 92}, {"time": 35760, "pitch": 42, "duration": 82, "velocity": 102}, {"time": 35882, "pitch": 36, "duration": 59, "velocity": 92}, {"time": 36003, "pitch": 36, "duration": 100, "velocity": 86}, {"time": 36003, "pitch": 42, "duration": 117, "velocity": 98}, {"time": 36241, "pitch": 36, "duration": 196, "velocity": 104}, {"time": 36241, "pitch": 46, "duration": 215, "velocity": 88}, {"time": 36479, "pitch": 38, "duration": 149, "velocity": 127}, {"time": 36479, "pitch": 40, "duration": 149, "velocity": 86}, {"time": 36479, "pitch": 42, "duration": 106, "velocity": 98}, {"time": 36721, "pitch": 36, "duration": 94, "velocity": 104}, {"time": 36721, "pitch": 46, "duration": 146, "velocity": 94}, {"time": 36964, "pitch": 36, "duration": 267, "velocity": 106}, {"time": 36964, "pitch": 42, "duration": 76, "velocity": 100}, {"time": 37202, "pitch": 42, "duration": 91, "velocity": 98}, {"time": 37440, "pitch": 38, "duration": 307, "velocity": 127}, {"time": 37440, "pitch": 40, "duration": 307, "velocity": 88}, {"time": 37440, "pitch": 46, "duration": 92, "velocity": 86}, {"time": 37678, "pitch": 42, "duration": 92, "velocity": 98}, {"time": 37797, "pitch": 36, "duration": 73, "velocity": 102}, {"time": 37916, "pitch": 36, "duration": 102, "velocity": 100}, {"time": 37916, "pitch": 44, "duration": 96, "velocity": 98}, {"time": 38159, "pitch": 36, "duration": 149, "velocity": 108}, {"time": 38159, "pitch": 42, "duration": 110, "velocity": 100}, {"time": 38401, "pitch": 38, "duration": 158, "velocity": 127}, {"time": 38401, "pitch": 40, "duration": 158, "velocity": 88}, {"time": 38401, "pitch": 46, "duration": 103, "velocity": 88}, {"time": 38639, "pitch": 36, "duration": 113, "velocity": 104}, {"time": 38639, "pitch": 42, "duration": 97, "velocity": 100}, {"time": 38758, "pitch": 38, "duration": 154, "velocity": 127}, {"time": 38758, "pitch": 40, "duration": 154, "velocity": 80}, {"time": 38877, "pitch": 36, "duration": 223, "velocity": 108}, {"time": 38877, "pitch": 44, "duration": 93, "velocity": 96}, {"time": 39119, "pitch": 42, "duration": 93, "velocity": 98}, {"time": 39362, "pitch": 38, "duration": 225, "velocity": 127}, {"time": 39362, "pitch": 40, "duration": 225, "velocity": 80}, {"time": 39362, "pitch": 46, "duration": 105, "velocity": 92}, {"time": 39600, "pitch": 36, "duration": 122, "velocity": 106}, {"time": 39600, "pitch": 42, "duration": 89, "velocity": 100}, {"time": 39838, "pitch": 36, "duration": 259, "velocity": 106}, {"time": 39838, "pitch": 42, "duration": 83, "velocity": 94}, {"time": 40080, "pitch": 42, "duration": 93, "velocity": 100}, {"time": 40202, "pitch": 36, "duration": 106, "velocity": 100}, {"time": 40323, "pitch": 38, "duration": 244, "velocity": 127}, {"time": 40323, "pitch": 40, "duration": 244, "velocity": 82}, {"time": 40323, "pitch": 46, "duration": 112, "velocity": 90}, {"time": 40561, "pitch": 36, "duration": 151, "velocity": 108}, {"time": 40561, "pitch": 42, "duration": 89, "velocity": 98}, {"time": 40799, "pitch": 36, "duration": 210, "velocity": 114}, {"time": 40799, "pitch": 44, "duration": 89, "velocity": 102}, {"time": 41041, "pitch": 42, "duration": 83, "velocity": 100}, {"time": 41163, "pitch": 36, "duration": 71, "velocity": 110}, {"time": 41284, "pitch": 38, "duration": 156, "velocity": 127}, {"time": 41284, "pitch": 40, "duration": 156, "velocity": 86}, {"time": 41284, "pitch": 46, "duration": 82, "velocity": 92}, {"time": 41522, "pitch": 36, "duration": 103, "velocity": 96}, {"time": 41522, "pitch": 42, "duration": 80, "velocity": 102}, {"time": 41760, "pitch": 38, "duration": 111, "velocity": 127}, {"time": 41760, "pitch": 40, "duration": 111, "velocity": 84}, {"time": 41760, "pitch": 42, "duration": 117, "velocity": 98}, {"time": 41998, "pitch": 36, "duration": 88, "velocity": 104}, {"time": 41998, "pitch": 46, "duration": 215, "velocity": 88}, {"time": 42236, "pitch": 38, "duration": 208, "velocity": 127}, {"time": 42236, "pitch": 40, "duration": 208, "velocity": 84}, {"time": 42236, "pitch": 42, "duration": 106, "velocity": 98}, {"time": 42479, "pitch": 36, "duration": 97, "velocity": 114}, {"time": 42479, "pitch": 46, "duration": 145, "velocity": 94}, {"time": 42721, "pitch": 36, "duration": 146, "velocity": 104}, {"time": 42721, "pitch": 44, "duration": 91, "velocity": 96}, {"time": 42959, "pitch": 42, "duration": 91, "velocity": 98}, {"time": 43197, "pitch": 38, "duration": 222, "velocity": 127}, {"time": 43197, "pitch": 40, "duration": 222, "velocity": 84}, {"time": 43197, "pitch": 46, "duration": 107, "velocity": 92}, {"time": 43439, "pitch": 42, "duration": 91, "velocity": 100}, {"time": 43561, "pitch": 36, "duration": 59, "velocity": 92}, {"time": 43682, "pitch": 36, "duration": 100, "velocity": 86}, {"time": 43682, "pitch": 42, "duration": 81, "velocity": 94}, {"time": 43920, "pitch": 36, "duration": 196, "velocity": 104}, {"time": 43920, "pitch": 42, "duration": 91, "velocity": 100}, {"time": 44158, "pitch": 38, "duration": 150, "velocity": 127}, {"time": 44158, "pitch": 40, "duration": 150, "velocity": 86}, {"time": 44158, "pitch": 46, "duration": 114, "velocity": 90}, {"time": 44400, "pitch": 36, "duration": 94, "velocity": 104}, {"time": 44400, "pitch": 42, "duration": 91, "velocity": 98}, {"time": 44643, "pitch": 36, "duration": 275, "velocity": 104}, {"time": 44643, "pitch": 44, "duration": 87, "velocity": 102}, {"time": 44881, "pitch": 42, "duration": 81, "velocity": 100}, {"time": 45119, "pitch": 38, "duration": 284, "velocity": 127}, {"time": 45119, "pitch": 40, "duration": 284, "velocity": 86}, {"time": 45119, "pitch": 46, "duration": 84, "velocity": 92}, {"time": 45361, "pitch": 42, "duration": 82, "velocity": 102}, {"time": 45483, "pitch": 36, "duration": 45, "velocity": 94}, {"time": 45604, "pitch": 36, "duration": 79, "velocity": 84}, {"time": 45604, "pitch": 42, "duration": 117, "velocity": 98}, {"time": 45842, "pitch": 36, "duration": 144, "velocity": 104}, {"time": 45842, "pitch": 46, "duration": 215, "velocity": 88}, {"time": 46080, "pitch": 38, "duration": 167, "velocity": 127}, {"time": 46080, "pitch": 40, "duration": 167, "velocity": 86}, {"time": 46080, "pitch": 42, "duration": 104, "velocity": 98}, {"time": 46318, "pitch": 36, "duration": 98, "velocity": 102}, {"time": 46318, "pitch": 46, "duration": 143, "velocity": 94}, {"time": 46437, "pitch": 38, "duration": 141, "velocity": 126}, {"time": 46437, "pitch": 40, "duration": 141, "velocity": 76}, {"time": 46556, "pitch": 36, "duration": 150, "velocity": 110}, {"time": 46556, "pitch": 42, "duration": 78, "velocity": 100}, {"time": 46798, "pitch": 42, "duration": 93, "velocity": 98}, {"time": 47041, "pitch": 38, "duration": 202, "velocity": 127}, {"time": 47041, "pitch": 40, "duration": 202, "velocity": 82}, {"time": 47041, "pitch": 46, "duration": 92, "velocity": 86}, {"time": 47279, "pitch": 42, "duration": 92, "velocity": 98}, {"time": 47398, "pitch": 36, "duration": 61, "velocity": 102}, {"time": 47517, "pitch": 36, "duration": 99, "velocity": 96}, {"time": 47517, "pitch": 44, "duration": 96, "velocity": 98}, {"time": 47759, "pitch": 36, "duration": 174, "velocity": 110}, {"time": 47759, "pitch": 42, "duration": 111, "velocity": 100}, {"time": 48002, "pitch": 38, "duration": 195, "velocity": 127}, {"time": 48002, "pitch": 40, "duration": 195, "velocity": 82}, {"time": 48002, "pitch": 46, "duration": 103, "velocity": 88}, {"time": 48240, "pitch": 36, "duration": 116, "velocity": 106}, {"time": 48240, "pitch": 42, "duration": 97, "velocity": 100}, {"time": 48478, "pitch": 36, "duration": 203, "velocity": 110}, {"time": 48478, "pitch": 44, "duration": 93, "velocity": 96}, {"time": 48720, "pitch": 42, "duration": 93, "velocity": 98}, {"time": 48963, "pitch": 38, "duration": 279, "velocity": 127}, {"time": 48963, "pitch": 40, "duration": 279, "velocity": 86}, {"time": 48963, "pitch": 46, "duration": 105, "velocity": 92}, {"time": 49201, "pitch": 42, "duration": 89, "velocity": 100}, {"time": 49320, "pitch": 36, "duration": 60, "velocity": 106}, {"time": 49439, "pitch": 36, "duration": 78, "velocity": 96}, {"time": 49439, "pitch": 42, "duration": 83, "velocity": 94}, {"time": 49681, "pitch": 36, "duration": 260, "velocity": 114}, {"time": 49681, "pitch": 42, "duration": 93, "velocity": 100}, {"time": 49924, "pitch": 38, "duration": 166, "velocity": 127}, {"time": 49924, "pitch": 40, "duration": 166, "velocity": 86}, {"time": 49924, "pitch": 46, "duration": 112, "velocity": 90}, {"time": 50162, "pitch": 36, "duration": 104, "velocity": 112}, {"time": 50162, "pitch": 42, "duration": 89, "velocity": 98}, {"time": 50281, "pitch": 38, "duration": 141, "velocity": 126}, {"time": 50281, "pitch": 40, "duration": 141, "velocity": 76}, {"time": 50400, "pitch": 36, "duration": 146, "velocity": 104}, {"time": 50400, "pitch": 44, "duration": 87, "velocity": 102}, {"time": 50638, "pitch": 42, "duration": 81, "velocity": 100}, {"time": 50876, "pitch": 38, "duration": 222, "velocity": 127}, {"time": 50876, "pitch": 40, "duration": 222, "velocity": 84}, {"time": 50876, "pitch": 46, "duration": 84, "velocity": 92}, {"time": 51118, "pitch": 42, "duration": 82, "velocity": 102}, {"time": 51240, "pitch": 36, "duration": 59, "velocity": 92}, {"time": 51361, "pitch": 36, "duration": 100, "velocity": 86}, {"time": 51361, "pitch": 42, "duration": 117, "velocity": 98}, {"time": 51599, "pitch": 36, "duration": 196, "velocity": 104}, {"time": 51599, "pitch": 46, "duration": 215, "velocity": 88}, {"time": 51837, "pitch": 38, "duration": 150, "velocity": 127}, {"time": 51837, "pitch": 40, "duration": 150, "velocity": 86}, {"time": 51837, "pitch": 42, "duration": 106, "velocity": 98}, {"time": 52079, "pitch": 36, "duration": 94, "velocity": 104}, {"time": 52079, "pitch": 46, "duration": 146, "velocity": 94}, {"time": 52322, "pitch": 36, "duration": 267, "velocity": 106}, {"time": 52322, "pitch": 42, "duration": 76, "velocity": 100}, {"time": 52560, "pitch": 42, "duration": 91, "velocity": 98}, {"time": 52798, "pitch": 38, "duration": 312, "velocity": 127}, {"time": 52798, "pitch": 40, "duration": 312, "velocity": 88}, {"time": 52798, "pitch": 46, "duration": 94, "velocity": 86}, {"time": 53040, "pitch": 42, "duration": 94, "velocity": 98}, {"time": 53162, "pitch": 36, "duration": 73, "velocity": 102}, {"time": 53283, "pitch": 36, "duration": 100, "velocity": 100}, {"time": 53283, "pitch": 44, "duration": 94, "velocity": 98}, {"time": 53521, "pitch": 36, "duration": 147, "velocity": 108}, {"time": 53521, "pitch": 42, "duration": 108, "velocity": 100}, {"time": 53759, "pitch": 38, "duration": 161, "velocity": 127}, {"time": 53759, "pitch": 40, "duration": 161, "velocity": 88}, {"time": 53759, "pitch": 46, "duration": 105, "velocity": 88}, {"time": 54001, "pitch": 36, "duration": 116, "velocity": 104}, {"time": 54001, "pitch": 42, "duration": 99, "velocity": 100}, {"time": 54123, "pitch": 38, "duration": 155, "velocity": 127}, {"time": 54123, "pitch": 40, "duration": 155, "velocity": 80}, {"time": 54244, "pitch": 36, "duration": 219, "velocity": 108}, {"time": 54244, "pitch": 44, "duration": 91, "velocity": 96}, {"time": 54482, "pitch": 42, "duration": 91, "velocity": 98}, {"time": 54720, "pitch": 38, "duration": 225, "velocity": 127}, {"time": 54720, "pitch": 40, "duration": 225, "velocity": 80}, {"time": 54720, "pitch": 46, "duration": 105, "velocity": 92}, {"time": 54958, "pitch": 36, "duration": 122, "velocity": 106}, {"time": 54958, "pitch": 42, "duration": 89, "velocity": 100}, {"time": 55196, "pitch": 36, "duration": 259, "velocity": 106}, {"time": 55196, "pitch": 42, "duration": 83, "velocity": 94}, {"time": 55438, "pitch": 42, "duration": 93, "velocity": 100}, {"time": 55560, "pitch": 36, "duration": 106, "velocity": 100}, {"time": 55681, "pitch": 38, "duration": 244, "velocity": 127}, {"time": 55681, "pitch": 40, "duration": 244, "velocity": 82}, {"time": 55681, "pitch": 46, "duration": 112, "velocity": 90}, {"time": 55919, "pitch": 36, "duration": 151, "velocity": 108}, {"time": 55919, "pitch": 42, "duration": 89, "velocity": 98}, {"time": 56157, "pitch": 36, "duration": 210, "velocity": 114}, {"time": 56157, "pitch": 44, "duration": 89, "velocity": 102}, {"time": 56399, "pitch": 42, "duration": 83, "velocity": 100}, {"time": 56521, "pitch": 36, "duration": 71, "velocity": 110}, {"time": 56642, "pitch": 38, "duration": 156, "velocity": 127}, {"time": 56642, "pitch": 40, "duration": 156, "velocity": 86}, {"time": 56642, "pitch": 46, "duration": 82, "velocity": 92}, {"time": 56880, "pitch": 36, "duration": 103, "velocity": 96}, {"time": 56880, "pitch": 42, "duration": 80, "velocity": 102}, {"time": 57118, "pitch": 38, "duration": 113, "velocity": 127}, {"time": 57118, "pitch": 40, "duration": 113, "velocity": 84}, {"time": 57118, "pitch": 42, "duration": 119, "velocity": 98}, {"time": 57360, "pitch": 36, "duration": 90, "velocity": 104}, {"time": 57360, "pitch": 46, "duration": 220, "velocity": 88}, {"time": 57603, "pitch": 38, "duration": 204, "velocity": 127}, {"time": 57603, "pitch": 40, "duration": 204, "velocity": 84}, {"time": 57603, "pitch": 42, "duration": 104, "velocity": 98}, {"time": 57841, "pitch": 36, "duration": 96, "velocity": 114}, {"time": 57841, "pitch": 46, "duration": 143, "velocity": 94}, {"time": 58079, "pitch": 36, "duration": 148, "velocity": 104}, {"time": 58079, "pitch": 44, "duration": 93, "velocity": 96}, {"time": 58321, "pitch": 42, "duration": 93, "velocity": 98}, {"time": 58564, "pitch": 38, "duration": 218, "velocity": 127}, {"time": 58564, "pitch": 40, "duration": 218, "velocity": 84}, {"time": 58564, "pitch": 46, "duration": 105, "velocity": 92}, {"time": 58802, "pitch": 42, "duration": 89, "velocity": 100}, {"time": 58921, "pitch": 36, "duration": 58, "velocity": 92}, {"time": 59040, "pitch": 36, "duration": 100, "velocity": 86}, {"time": 59040, "pitch": 42, "duration": 81, "velocity": 94}, {"time": 59278, "pitch": 36, "duration": 196, "velocity": 104}, {"time": 59278, "pitch": 42, "duration": 91, "velocity": 100}, {"time": 59516, "pitch": 38, "duration": 150, "velocity": 127}, {"time": 59516, "pitch": 40, "duration": 150, "velocity": 86}, {"time": 59516, "pitch": 46, "duration": 114, "velocity": 90}, {"time": 59758, "pitch": 36, "duration": 94, "velocity": 104}, {"time": 59758, "pitch": 42, "duration": 91, "velocity": 98}, {"time": 60001, "pitch": 36, "duration": 275, "velocity": 104}, {"time": 60001, "pitch": 44, "duration": 87, "velocity": 102}, {"time": 60239, "pitch": 42, "duration": 81, "velocity": 100}, {"time": 60477, "pitch": 38, "duration": 284, "velocity": 127}, {"time": 60477, "pitch": 40, "duration": 284, "velocity": 86}, {"time": 60477, "pitch": 46, "duration": 84, "velocity": 92}, {"time": 60719, "pitch": 42, "duration": 82, "velocity": 102}, {"time": 60841, "pitch": 36, "duration": 45, "velocity": 94}, {"time": 60962, "pitch": 36, "duration": 79, "velocity": 84}, {"time": 60962, "pitch": 42, "duration": 117, "velocity": 98}, {"time": 61200, "pitch": 36, "duration": 144, "velocity": 104}, {"time": 61200, "pitch": 46, "duration": 215, "velocity": 88}, {"time": 61438, "pitch": 38, "duration": 170, "velocity": 127}, {"time": 61438, "pitch": 40, "duration": 170, "velocity": 86}, {"time": 61438, "pitch": 42, "duration": 106, "velocity": 98}, {"time": 61680, "pitch": 36, "duration": 100, "velocity": 102}, {"time": 61680, "pitch": 46, "duration": 146, "velocity": 94}, {"time": 61802, "pitch": 38, "duration": 143, "velocity": 126}, {"time": 61802, "pitch": 40, "duration": 143, "velocity": 76}, {"time": 61923, "pitch": 36, "duration": 147, "velocity": 110}, {"time": 61923, "pitch": 42, "duration": 76, "velocity": 100}, {"time": 62161, "pitch": 42, "duration": 91, "velocity": 98}, {"time": 62399, "pitch": 38, "duration": 206, "velocity": 127}, {"time": 62399, "pitch": 40, "duration": 206, "velocity": 82}, {"time": 62399, "pitch": 46, "duration": 94, "velocity": 86}, {"time": 62641, "pitch": 42, "duration": 94, "velocity": 98}, {"time": 62763, "pitch": 36, "duration": 61, "velocity": 102}, {"time": 62884, "pitch": 36, "duration": 97, "velocity": 96}, {"time": 62884, "pitch": 44, "duration": 94, "velocity": 98}, {"time": 63122, "pitch": 36, "duration": 170, "velocity": 110}, {"time": 63122, "pitch": 42, "duration": 108, "velocity": 100}, {"time": 63360, "pitch": 38, "duration": 195, "velocity": 127}, {"time": 63360, "pitch": 40, "duration": 195, "velocity": 82}, {"time": 63360, "pitch": 46, "duration": 103, "velocity": 88}, {"time": 63598, "pitch": 36, "duration": 116, "velocity": 106}, {"time": 63598, "pitch": 42, "duration": 97, "velocity": 100}, {"time": 63836, "pitch": 36, "duration": 203, "velocity": 110}, {"time": 63836, "pitch": 44, "duration": 93, "velocity": 96}, {"time": 64078, "pitch": 42, "duration": 93, "velocity": 98}, {"time": 64321, "pitch": 38, "duration": 279, "velocity": 127}, {"time": 64321, "pitch": 40, "duration": 279, "velocity": 86}, {"time": 64321, "pitch": 46, "duration": 105, "velocity": 92}, {"time": 64559, "pitch": 42, "duration": 89, "velocity": 100}, {"time": 64678, "pitch": 36, "duration": 61, "velocity": 106}, {"time": 64797, "pitch": 36, "duration": 78, "velocity": 96}, {"time": 64797, "pitch": 42, "duration": 83, "velocity": 94}, {"time": 65039, "pitch": 36, "duration": 260, "velocity": 114}, {"time": 65039, "pitch": 42, "duration": 93, "velocity": 100}, {"time": 65282, "pitch": 38, "duration": 167, "velocity": 127}, {"time": 65282, "pitch": 40, "duration": 167, "velocity": 86}, {"time": 65282, "pitch": 46, "duration": 112, "velocity": 90}, {"time": 65520, "pitch": 36, "duration": 104, "velocity": 112}, {"time": 65520, "pitch": 42, "duration": 89, "velocity": 98}, {"time": 65639, "pitch": 38, "duration": 141, "velocity": 126}, {"time": 65639, "pitch": 40, "duration": 141, "velocity": 76}, {"time": 65758, "pitch": 36, "duration": 148, "velocity": 104}, {"time": 65758, "pitch": 44, "duration": 89, "velocity": 102}, {"time": 66000, "pitch": 42, "duration": 83, "velocity": 100}, {"time": 66243, "pitch": 38, "duration": 218, "velocity": 127}, {"time": 66243, "pitch": 40, "duration": 218, "velocity": 84}, {"time": 66243, "pitch": 46, "duration": 82, "velocity": 92}, {"time": 66481, "pitch": 42, "duration": 80, "velocity": 102}, {"time": 66600, "pitch": 36, "duration": 58, "velocity": 92}, {"time": 66719, "pitch": 36, "duration": 102, "velocity": 86}, {"time": 66719, "pitch": 42, "duration": 119, "velocity": 98}, {"time": 66961, "pitch": 36, "duration": 200, "velocity": 104}, {"time": 66961, "pitch": 46, "duration": 220, "velocity": 88}, {"time": 67204, "pitch": 38, "duration": 147, "velocity": 127}, {"time": 67204, "pitch": 40, "duration": 147, "velocity": 86}, {"time": 67204, "pitch": 42, "duration": 104, "velocity": 98}, {"time": 67442, "pitch": 36, "duration": 92, "velocity": 104}, {"time": 67442, "pitch": 46, "duration": 143, "velocity": 94}, {"time": 67680, "pitch": 36, "duration": 267, "velocity": 106}, {"time": 67680, "pitch": 42, "duration": 76, "velocity": 100}, {"time": 67918, "pitch": 42, "duration": 91, "velocity": 98}, {"time": 68156, "pitch": 38, "duration": 312, "velocity": 127}, {"time": 68156, "pitch": 40, "duration": 312, "velocity": 88}, {"time": 68156, "pitch": 46, "duration": 94, "velocity": 86}, {"time": 68398, "pitch": 42, "duration": 94, "velocity": 98}, {"time": 68520, "pitch": 36, "duration": 73, "velocity": 102}, {"time": 68641, "pitch": 36, "duration": 100, "velocity": 100}, {"time": 68641, "pitch": 44, "duration": 94, "velocity": 98}, {"time": 68879, "pitch": 36, "duration": 147, "velocity": 108}, {"time": 68879, "pitch": 42, "duration": 108, "velocity": 100}, {"time": 69117, "pitch": 38, "duration": 161, "velocity": 127}, {"time": 69117, "pitch": 40, "duration": 161, "velocity": 88}, {"time": 69117, "pitch": 46, "duration": 105, "velocity": 88}, {"time": 69359, "pitch": 36, "duration": 116, "velocity": 104}, {"time": 69359, "pitch": 42, "duration": 99, "velocity": 100}, {"time": 69481, "pitch": 38, "duration": 156, "velocity": 127}, {"time": 69481, "pitch": 40, "duration": 156, "velocity": 80}, {"time": 69602, "pitch": 36, "duration": 219, "velocity": 108}, {"time": 69602, "pitch": 44, "duration": 91, "velocity": 96}, {"time": 69840, "pitch": 42, "duration": 91, "velocity": 98}, {"time": 70078, "pitch": 38, "duration": 229, "velocity": 127}, {"time": 70078, "pitch": 40, "duration": 229, "velocity": 80}, {"time": 70078, "pitch": 46, "duration": 107, "velocity": 92}, {"time": 70320, "pitch": 36, "duration": 125, "velocity": 106}, {"time": 70320, "pitch": 42, "duration": 91, "velocity": 100}, {"time": 70563, "pitch": 36, "duration": 254, "velocity": 106}, {"time": 70563, "pitch": 42, "duration": 81, "velocity": 94}, {"time": 70801, "pitch": 42, "duration": 91, "velocity": 100}, {"time": 70920, "pitch": 36, "duration": 104, "velocity": 100}, {"time": 71039, "pitch": 38, "duration": 248, "velocity": 127}, {"time": 71039, "pitch": 40, "duration": 248, "velocity": 82}, {"time": 71039, "pitch": 46, "duration": 114, "velocity": 90}, {"time": 71281, "pitch": 36, "duration": 154, "velocity": 108}, {"time": 71281, "pitch": 42, "duration": 91, "velocity": 98}, {"time": 71524, "pitch": 36, "duration": 206, "velocity": 114}, {"time": 71524, "pitch": 44, "duration": 87, "velocity": 102}, {"time": 71762, "pitch": 42, "duration": 81, "velocity": 100}, {"time": 71881, "pitch": 36, "duration": 70, "velocity": 110}, {"time": 72000, "pitch": 38, "duration": 156, "velocity": 127}, {"time": 72000, "pitch": 40, "duration": 156, "velocity": 86}, {"time": 72000, "pitch": 46, "duration": 82, "velocity": 92}, {"time": 72238, "pitch": 36, "duration": 103, "velocity": 96}, {"time": 72238, "pitch": 42, "duration": 80, "velocity": 102}, {"time": 72476, "pitch": 38, "duration": 113, "velocity": 127}, {"time": 72476, "pitch": 40, "duration": 113, "velocity": 84}, {"time": 72476, "pitch": 42, "duration": 119, "velocity": 98}, {"time": 72718, "pitch": 36, "duration": 90, "velocity": 104}, {"time": 72718, "pitch": 46, "duration": 220, "velocity": 88}, {"time": 72961, "pitch": 38, "duration": 204, "velocity": 127}, {"time": 72961, "pitch": 40, "duration": 204, "velocity": 84}, {"time": 72961, "pitch": 42, "duration": 104, "velocity": 98}, {"time": 73199, "pitch": 36, "duration": 96, "velocity": 114}, {"time": 73199, "pitch": 46, "duration": 143, "velocity": 94}, {"time": 73437, "pitch": 36, "duration": 149, "velocity": 104}, {"time": 73437, "pitch": 44, "duration": 93, "velocity": 96}, {"time": 73679, "pitch": 42, "duration": 93, "velocity": 98}, {"time": 73922, "pitch": 38, "duration": 218, "velocity": 127}, {"time": 73922, "pitch": 40, "duration": 218, "velocity": 84}, {"time": 73922, "pitch": 46, "duration": 105, "velocity": 92}, {"time": 74160, "pitch": 42, "duration": 89, "velocity": 100}, {"time": 74279, "pitch": 36, "duration": 59, "velocity": 92}, {"time": 74398, "pitch": 36, "duration": 102, "velocity": 86}, {"time": 74398, "pitch": 42, "duration": 83, "velocity": 94}, {"time": 74640, "pitch": 36, "duration": 200, "velocity": 104}, {"time": 74640, "pitch": 42, "duration": 93, "velocity": 100}, {"time": 74883, "pitch": 38, "duration": 147, "velocity": 127}, {"time": 74883, "pitch": 40, "duration": 147, "velocity": 86}, {"time": 74883, "pitch": 46, "duration": 112, "velocity": 90}, {"time": 75121, "pitch": 36, "duration": 92, "velocity": 104}, {"time": 75121, "pitch": 42, "duration": 89, "velocity": 98}, {"time": 75359, "pitch": 36, "duration": 280, "velocity": 104}, {"time": 75359, "pitch": 44, "duration": 89, "velocity": 102}, {"time": 75601, "pitch": 42, "duration": 83, "velocity": 100}, {"time": 75844, "pitch": 38, "duration": 279, "velocity": 127}, {"time": 75844, "pitch": 40, "duration": 279, "velocity": 86}, {"time": 75844, "pitch": 46, "duration": 82, "velocity": 92}, {"time": 76082, "pitch": 42, "duration": 80, "velocity": 102}, {"time": 76201, "pitch": 36, "duration": 45, "velocity": 94}, {"time": 76320, "pitch": 36, "duration": 79, "velocity": 84}, {"time": 76320, "pitch": 42, "duration": 117, "velocity": 98}, {"time": 76558, "pitch": 36, "duration": 144, "velocity": 104}, {"time": 76558, "pitch": 46, "duration": 215, "velocity": 88}, {"time": 76796, "pitch": 38, "duration": 170, "velocity": 127}, {"time": 76796, "pitch": 40, "duration": 170, "velocity": 86}, {"time": 76796, "pitch": 42, "duration": 106, "velocity": 98}, {"time": 77038, "pitch": 36, "duration": 100, "velocity": 102}, {"time": 77038, "pitch": 46, "duration": 146, "velocity": 94}, {"time": 77160, "pitch": 38, "duration": 143, "velocity": 126}, {"time": 77160, "pitch": 40, "duration": 143, "velocity": 76}, {"time": 77281, "pitch": 36, "duration": 147, "velocity": 110}, {"time": 77281, "pitch": 42, "duration": 76, "velocity": 100}, {"time": 77519, "pitch": 42, "duration": 91, "velocity": 98}, {"time": 77757, "pitch": 38, "duration": 206, "velocity": 127}, {"time": 77757, "pitch": 40, "duration": 206, "velocity": 82}, {"time": 77757, "pitch": 46, "duration": 94, "velocity": 86}, {"time": 77999, "pitch": 42, "duration": 94, "velocity": 98}, {"time": 78121, "pitch": 36, "duration": 61, "velocity": 102}, {"time": 78242, "pitch": 36, "duration": 97, "velocity": 96}, {"time": 78242, "pitch": 44, "duration": 94, "velocity": 98}, {"time": 78480, "pitch": 36, "duration": 171, "velocity": 110}, {"time": 78480, "pitch": 42, "duration": 108, "velocity": 100}, {"time": 78718, "pitch": 38, "duration": 199, "velocity": 127}, {"time": 78718, "pitch": 40, "duration": 199, "velocity": 82}, {"time": 78718, "pitch": 46, "duration": 105, "velocity": 88}, {"time": 78960, "pitch": 36, "duration": 119, "velocity": 106}, {"time": 78960, "pitch": 42, "duration": 99, "velocity": 100}, {"time": 79203, "pitch": 36, "duration": 199, "velocity": 110}, {"time": 79203, "pitch": 44, "duration": 91, "velocity": 96}, {"time": 79441, "pitch": 42, "duration": 91, "velocity": 98}, {"time": 79679, "pitch": 38, "duration": 284, "velocity": 127}, {"time": 79679, "pitch": 40, "duration": 284, "velocity": 86}, {"time": 79679, "pitch": 46, "duration": 107, "velocity": 92}, {"time": 79921, "pitch": 42, "duration": 91, "velocity": 100}, {"time": 80043, "pitch": 36, "duration": 61, "velocity": 106}, {"time": 80164, "pitch": 36, "duration": 76, "velocity": 96}, {"time": 80164, "pitch": 42, "duration": 81, "velocity": 94}, {"time": 80402, "pitch": 36, "duration": 255, "velocity": 114}, {"time": 80402, "pitch": 42, "duration": 91, "velocity": 100}, {"time": 80640, "pitch": 38, "duration": 167, "velocity": 127}, {"time": 80640, "pitch": 40, "duration": 167, "velocity": 86}, {"time": 80640, "pitch": 46, "duration": 112, "velocity": 90}, {"time": 80878, "pitch": 36, "duration": 104, "velocity": 112}, {"time": 80878, "pitch": 42, "duration": 89, "velocity": 98}, {"time": 80997, "pitch": 38, "duration": 141, "velocity": 126}, {"time": 80997, "pitch": 40, "duration": 141, "velocity": 76}, {"time": 81116, "pitch": 36, "duration": 149, "velocity": 104}, {"time": 81116, "pitch": 44, "duration": 89, "velocity": 102}, {"time": 81358, "pitch": 42, "duration": 83, "velocity": 100}, {"time": 81601, "pitch": 38, "duration": 218, "velocity": 127}, {"time": 81601, "pitch": 40, "duration": 218, "velocity": 84}, {"time": 81601, "pitch": 46, "duration": 82, "velocity": 92}, {"time": 81839, "pitch": 42, "duration": 80, "velocity": 102}, {"time": 81958, "pitch": 36, "duration": 59, "velocity": 92}, {"time": 82077, "pitch": 36, "duration": 102, "velocity": 86}, {"time": 82077, "pitch": 42, "duration": 119, "velocity": 98}, {"time": 82319, "pitch": 36, "duration": 200, "velocity": 104}, {"time": 82319, "pitch": 46, "duration": 220, "velocity": 88}, {"time": 82562, "pitch": 38, "duration": 147, "velocity": 127}, {"time": 82562, "pitch": 40, "duration": 147, "velocity": 86}, {"time": 82562, "pitch": 42, "duration": 104, "velocity": 98}, {"time": 82800, "pitch": 36, "duration": 92, "velocity": 104}, {"time": 82800, "pitch": 46, "duration": 143, "velocity": 94}, {"time": 83038, "pitch": 36, "duration": 272, "velocity": 106}, {"time": 83038, "pitch": 42, "duration": 78, "velocity": 100}, {"time": 83280, "pitch": 42, "duration": 93, "velocity": 98}, {"time": 83523, "pitch": 38, "duration": 306, "velocity": 127}, {"time": 83523, "pitch": 40, "duration": 306, "velocity": 88}, {"time": 83523, "pitch": 46, "duration": 92, "velocity": 86}, {"time": 83761, "pitch": 42, "duration": 92, "velocity": 98}, {"time": 83880, "pitch": 36, "duration": 72, "velocity": 102}, {"time": 83999, "pitch": 36, "duration": 102, "velocity": 100}, {"time": 83999, "pitch": 44, "duration": 96, "velocity": 98}, {"time": 84241, "pitch": 36, "duration": 150, "velocity": 108}, {"time": 84241, "pitch": 42, "duration": 110, "velocity": 100}, {"time": 84484, "pitch": 38, "duration": 157, "velocity": 127}, {"time": 84484, "pitch": 40, "duration": 157, "velocity": 88}, {"time": 84484, "pitch": 46, "duration": 103, "velocity": 88}, {"time": 84722, "pitch": 36, "duration": 113, "velocity": 104}, {"time": 84722, "pitch": 42, "duration": 97, "velocity": 100}, {"time": 84841, "pitch": 38, "duration": 154, "velocity": 127}, {"time": 84841, "pitch": 40, "duration": 154, "velocity": 80}, {"time": 84960, "pitch": 36, "duration": 219, "velocity": 108}, {"time": 84960, "pitch": 44, "duration": 91, "velocity": 96}, {"time": 85198, "pitch": 42, "duration": 91, "velocity": 98}, {"time": 85436, "pitch": 38, "duration": 229, "velocity": 127}, {"time": 85436, "pitch": 40, "duration": 229, "velocity": 80}, {"time": 85436, "pitch": 46, "duration": 107, "velocity": 92}, {"time": 85678, "pitch": 36, "duration": 125, "velocity": 106}, {"time": 85678, "pitch": 42, "duration": 91, "velocity": 100}, {"time": 85921, "pitch": 36, "duration": 254, "velocity": 106}, {"time": 85921, "pitch": 42, "duration": 81, "velocity": 94}, {"time": 86159, "pitch": 42, "duration": 91, "velocity": 100}, {"time": 86278, "pitch": 36, "duration": 104, "velocity": 100}, {"time": 86397, "pitch": 38, "duration": 248, "velocity": 127}, {"time": 86397, "pitch": 40, "duration": 248, "velocity": 82}, {"time": 86397, "pitch": 46, "duration": 114, "velocity": 90}, {"time": 86639, "pitch": 36, "duration": 154, "velocity": 108}, {"time": 86639, "pitch": 42, "duration": 91, "velocity": 98}, {"time": 86882, "pitch": 36, "duration": 206, "velocity": 114}, {"time": 86882, "pitch": 44, "duration": 87, "velocity": 102}, {"time": 87120, "pitch": 42, "duration": 81, "velocity": 100}, {"time": 87239, "pitch": 36, "duration": 70, "velocity": 110}, {"time": 87358, "pitch": 38, "duration": 159, "velocity": 127}, {"time": 87358, "pitch": 40, "duration": 159, "velocity": 86}, {"time": 87358, "pitch": 46, "duration": 84, "velocity": 92}, {"time": 87600, "pitch": 36, "duration": 105, "velocity": 96}, {"time": 87600, "pitch": 42, "duration": 82, "velocity": 102}, {"time": 87843, "pitch": 38, "duration": 111, "velocity": 127}, {"time": 87843, "pitch": 40, "duration": 111, "velocity": 84}, {"time": 87843, "pitch": 42, "duration": 117, "velocity": 98}, {"time": 88081, "pitch": 36, "duration": 88, "velocity": 104}, {"time": 88081, "pitch": 46, "duration": 215, "velocity": 88}, {"time": 88319, "pitch": 38, "duration": 208, "velocity": 127}, {"time": 88319, "pitch": 40, "duration": 208, "velocity": 84}, {"time": 88319, "pitch": 42, "duration": 106, "velocity": 98}, {"time": 88561, "pitch": 36, "duration": 98, "velocity": 114}, {"time": 88561, "pitch": 46, "duration": 146, "velocity": 94}, {"time": 88804, "pitch": 36, "duration": 146, "velocity": 104}, {"time": 88804, "pitch": 44, "duration": 91, "velocity": 96}, {"time": 89042, "pitch": 42, "duration": 91, "velocity": 98}, {"time": 89280, "pitch": 38, "duration": 218, "velocity": 127}, {"time": 89280, "pitch": 40, "duration": 218, "velocity": 84}, {"time": 89280, "pitch": 46, "duration": 105, "velocity": 92}, {"time": 89518, "pitch": 42, "duration": 89, "velocity": 100}, {"time": 89637, "pitch": 36, "duration": 59, "velocity": 92}, {"time": 89756, "pitch": 36, "duration": 102, "velocity": 86}, {"time": 89756, "pitch": 42, "duration": 83, "velocity": 94}, {"time": 89998, "pitch": 36, "duration": 200, "velocity": 104}, {"time": 89998, "pitch": 42, "duration": 93, "velocity": 100}, {"time": 90241, "pitch": 38, "duration": 147, "velocity": 127}, {"time": 90241, "pitch": 40, "duration": 147, "velocity": 86}, {"time": 90241, "pitch": 46, "duration": 112, "velocity": 90}, {"time": 90479, "pitch": 36, "duration": 92, "velocity": 104}, {"time": 90479, "pitch": 42, "duration": 89, "velocity": 98}, {"time": 90717, "pitch": 36, "duration": 280, "velocity": 104}, {"time": 90717, "pitch": 44, "duration": 89, "velocity": 102}, {"time": 90959, "pitch": 42, "duration": 83, "velocity": 100}, {"time": 91202, "pitch": 38, "duration": 279, "velocity": 127}, {"time": 91202, "pitch": 40, "duration": 279, "velocity": 86}, {"time": 91202, "pitch": 46, "duration": 82, "velocity": 92}, {"time": 91440, "pitch": 42, "duration": 80, "velocity": 102}, {"time": 91559, "pitch": 36, "duration": 45, "velocity": 94}, {"time": 91678, "pitch": 36, "duration": 81, "velocity": 84}, {"time": 91678, "pitch": 42, "duration": 119, "velocity": 98}, {"time": 91920, "pitch": 36, "duration": 147, "velocity": 104}, {"time": 91920, "pitch": 46, "duration": 220, "velocity": 88}, {"time": 92163, "pitch": 38, "duration": 166, "velocity": 127}, {"time": 92163, "pitch": 40, "duration": 166, "velocity": 86}, {"time": 92163, "pitch": 42, "duration": 104, "velocity": 98}, {"time": 92401, "pitch": 36, "duration": 98, "velocity": 102}, {"time": 92401, "pitch": 46, "duration": 143, "velocity": 94}, {"time": 92520, "pitch": 38, "duration": 141, "velocity": 126}, {"time": 92520, "pitch": 40, "duration": 141, "velocity": 76}, {"time": 92639, "pitch": 36, "duration": 149, "velocity": 110}, {"time": 92639, "pitch": 42, "duration": 78, "velocity": 100}, {"time": 92881, "pitch": 42, "duration": 93, "velocity": 98}, {"time": 93124, "pitch": 38, "duration": 202, "velocity": 127}, {"time": 93124, "pitch": 40, "duration": 202, "velocity": 82}, {"time": 93124, "pitch": 46, "duration": 92, "velocity": 86}, {"time": 93362, "pitch": 42, "duration": 92, "velocity": 98}, {"time": 93481, "pitch": 36, "duration": 60, "velocity": 102}, {"time": 93600, "pitch": 36, "duration": 97, "velocity": 96}, {"time": 93600, "pitch": 44, "duration": 94, "velocity": 98}, {"time": 93838, "pitch": 36, "duration": 171, "velocity": 110}, {"time": 93838, "pitch": 42, "duration": 108, "velocity": 100}, {"time": 94076, "pitch": 38, "duration": 199, "velocity": 127}, {"time": 94076, "pitch": 40, "duration": 199, "velocity": 82}, {"time": 94076, "pitch": 46, "duration": 105, "velocity": 88}, {"time": 94318, "pitch": 36, "duration": 119, "velocity": 106}, {"time": 94318, "pitch": 42, "duration": 99, "velocity": 100}, {"time": 94561, "pitch": 36, "duration": 199, "velocity": 110}, {"time": 94561, "pitch": 44, "duration": 91, "velocity": 96}, {"time": 94799, "pitch": 42, "duration": 91, "velocity": 98}, {"time": 95037, "pitch": 38, "duration": 284, "velocity": 127}, {"time": 95037, "pitch": 40, "duration": 284, "velocity": 86}, {"time": 95037, "pitch": 46, "duration": 107, "velocity": 92}, {"time": 95279, "pitch": 42, "duration": 91, "velocity": 100}, {"time": 95401, "pitch": 36, "duration": 61, "velocity": 106}, {"time": 95522, "pitch": 36, "duration": 76, "velocity": 96}, {"time": 95522, "pitch": 42, "duration": 81, "velocity": 94}, {"time": 95760, "pitch": 36, "duration": 255, "velocity": 114}, {"time": 95760, "pitch": 42, "duration": 91, "velocity": 100}, {"time": 95998, "pitch": 38, "duration": 170, "velocity": 127}, {"time": 95998, "pitch": 40, "duration": 170, "velocity": 86}, {"time": 95998, "pitch": 46, "duration": 114, "velocity": 90}, {"time": 96240, "pitch": 36, "duration": 106, "velocity": 112}, {"time": 96240, "pitch": 42, "duration": 91, "velocity": 98}, {"time": 96362, "pitch": 38, "duration": 143, "velocity": 126}, {"time": 96362, "pitch": 40, "duration": 143, "velocity": 76}, {"time": 96483, "pitch": 36, "duration": 146, "velocity": 104}, {"time": 96483, "pitch": 44, "duration": 87, "velocity": 102}, {"time": 96721, "pitch": 42, "duration": 81, "velocity": 100}, {"time": 96959, "pitch": 38, "duration": 222, "velocity": 127}, {"time": 96959, "pitch": 40, "duration": 222, "velocity": 84}, {"time": 96959, "pitch": 46, "duration": 84, "velocity": 92}, {"time": 97201, "pitch": 42, "duration": 82, "velocity": 102}, {"time": 97323, "pitch": 36, "duration": 59, "velocity": 92}, {"time": 97444, "pitch": 36, "duration": 100, "velocity": 86}, {"time": 97444, "pitch": 42, "duration": 117, "velocity": 98}, {"time": 97682, "pitch": 36, "duration": 196, "velocity": 104}, {"time": 97682, "pitch": 46, "duration": 215, "velocity": 88}, {"time": 97920, "pitch": 38, "duration": 147, "velocity": 127}, {"time": 97920, "pitch": 40, "duration": 147, "velocity": 86}, {"time": 97920, "pitch": 42, "duration": 104, "velocity": 98}, {"time": 98158, "pitch": 36, "duration": 92, "velocity": 104}, {"time": 98158, "pitch": 46, "duration": 143, "velocity": 94}, {"time": 98396, "pitch": 36, "duration": 272, "velocity": 106}, {"time": 98396, "pitch": 42, "duration": 78, "velocity": 100}, {"time": 98638, "pitch": 42, "duration": 93, "velocity": 98}, {"time": 98881, "pitch": 38, "duration": 306, "velocity": 127}, {"time": 98881, "pitch": 40, "duration": 306, "velocity": 88}, {"time": 98881, "pitch": 46, "duration": 92, "velocity": 86}, {"time": 99119, "pitch": 42, "duration": 92, "velocity": 98}, {"time": 99238, "pitch": 36, "duration": 72, "velocity": 102}, {"time": 99357, "pitch": 36, "duration": 102, "velocity": 100}, {"time": 99357, "pitch": 44, "duration": 96, "velocity": 98}, {"time": 99599, "pitch": 36, "duration": 150, "velocity": 108}, {"time": 99599, "pitch": 42, "duration": 111, "velocity": 100}, {"time": 99842, "pitch": 38, "duration": 158, "velocity": 127}, {"time": 99842, "pitch": 40, "duration": 158, "velocity": 88}, {"time": 99842, "pitch": 46, "duration": 103, "velocity": 88}, {"time": 100080, "pitch": 36, "duration": 113, "velocity": 104}, {"time": 100080, "pitch": 42, "duration": 97, "velocity": 100}, {"time": 100199, "pitch": 38, "duration": 154, "velocity": 127}, {"time": 100199, "pitch": 40, "duration": 154, "velocity": 80}, {"time": 100318, "pitch": 36, "duration": 223, "velocity": 108}, {"time": 100318, "pitch": 44, "duration": 93, "velocity": 96}, {"time": 100560, "pitch": 42, "duration": 93, "velocity": 98}, {"time": 100803, "pitch": 38, "duration": 225, "velocity": 127}, {"time": 100803, "pitch": 40, "duration": 225, "velocity": 80}, {"time": 100803, "pitch": 46, "duration": 105, "velocity": 92}, {"time": 101041, "pitch": 36, "duration": 122, "velocity": 106}, {"time": 101041, "pitch": 42, "duration": 89, "velocity": 100}, {"time": 101279, "pitch": 36, "duration": 259, "velocity": 106}, {"time": 101279, "pitch": 42, "duration": 83, "velocity": 94}, {"time": 101521, "pitch": 42, "duration": 93, "velocity": 100}, {"time": 101643, "pitch": 36, "duration": 106, "velocity": 100}, {"time": 101764, "pitch": 38, "duration": 244, "velocity": 127}, {"time": 101764, "pitch": 40, "duration": 244, "velocity": 82}, {"time": 101764, "pitch": 46, "duration": 112, "velocity": 90}, {"time": 102002, "pitch": 36, "duration": 151, "velocity": 108}, {"time": 102002, "pitch": 42, "duration": 89, "velocity": 98}, {"time": 102240, "pitch": 36, "duration": 206, "velocity": 114}, {"time": 102240, "pitch": 44, "duration": 87, "velocity": 102}, {"time": 102478, "pitch": 42, "duration": 81, "velocity": 100}, {"time": 102597, "pitch": 36, "duration": 70, "velocity": 110}, {"time": 102716, "pitch": 38, "duration": 159, "velocity": 127}, {"time": 102716, "pitch": 40, "duration": 159, "velocity": 86}, {"time": 102716, "pitch": 46, "duration": 84, "velocity": 92}, {"time": 102958, "pitch": 36, "duration": 105, "velocity": 96}, {"time": 102958, "pitch": 42, "duration": 82, "velocity": 102}, {"time": 103201, "pitch": 38, "duration": 111, "velocity": 127}, {"time": 103201, "pitch": 40, "duration": 111, "velocity": 84}, {"time": 103201, "pitch": 42, "duration": 117, "velocity": 98}, {"time": 103439, "pitch": 36, "duration": 88, "velocity": 104}, {"time": 103439, "pitch": 46, "duration": 215, "velocity": 88}, {"time": 103677, "pitch": 38, "duration": 208, "velocity": 127}, {"time": 103677, "pitch": 40, "duration": 208, "velocity": 84}, {"time": 103677, "pitch": 42, "duration": 106, "velocity": 98}, {"time": 103919, "pitch": 36, "duration": 98, "velocity": 114}, {"time": 103919, "pitch": 46, "duration": 146, "velocity": 94}, {"time": 104162, "pitch": 36, "duration": 146, "velocity": 104}, {"time": 104162, "pitch": 44, "duration": 91, "velocity": 96}, {"time": 104400, "pitch": 42, "duration": 91, "velocity": 98}, {"time": 104638, "pitch": 38, "duration": 222, "velocity": 127}, {"time": 104638, "pitch": 40, "duration": 222, "velocity": 84}, {"time": 104638, "pitch": 46, "duration": 107, "velocity": 92}, {"time": 104880, "pitch": 42, "duration": 91, "velocity": 100}, {"time": 105002, "pitch": 36, "duration": 59, "velocity": 92}, {"time": 105123, "pitch": 36, "duration": 100, "velocity": 86}, {"time": 105123, "pitch": 42, "duration": 81, "velocity": 94}, {"time": 105361, "pitch": 36, "duration": 196, "velocity": 104}, {"time": 105361, "pitch": 42, "duration": 91, "velocity": 100}, {"time": 105599, "pitch": 38, "duration": 149, "velocity": 127}, {"time": 105599, "pitch": 40, "duration": 149, "velocity": 86}, {"time": 105599, "pitch": 46, "duration": 114, "velocity": 90}, {"time": 105841, "pitch": 36, "duration": 94, "velocity": 104}, {"time": 105841, "pitch": 42, "duration": 91, "velocity": 98}, {"time": 106084, "pitch": 36, "duration": 275, "velocity": 104}, {"time": 106084, "pitch": 44, "duration": 87, "velocity": 102}, {"time": 106322, "pitch": 42, "duration": 81, "velocity": 100}, {"time": 106560, "pitch": 38, "duration": 279, "velocity": 127}, {"time": 106560, "pitch": 40, "duration": 279, "velocity": 86}, {"time": 106560, "pitch": 46, "duration": 82, "velocity": 92}, {"time": 106798, "pitch": 42, "duration": 80, "velocity": 102}, {"time": 106917, "pitch": 36, "duration": 45, "velocity": 94}, {"time": 107036, "pitch": 36, "duration": 81, "velocity": 84}, {"time": 107036, "pitch": 42, "duration": 119, "velocity": 98}, {"time": 107278, "pitch": 36, "duration": 147, "velocity": 104}, {"time": 107278, "pitch": 46, "duration": 220, "velocity": 88}, {"time": 107521, "pitch": 38, "duration": 167, "velocity": 127}, {"time": 107521, "pitch": 40, "duration": 167, "velocity": 86}, {"time": 107521, "pitch": 42, "duration": 104, "velocity": 98}, {"time": 107759, "pitch": 36, "duration": 98, "velocity": 102}, {"time": 107759, "pitch": 46, "duration": 143, "velocity": 94}, {"time": 107878, "pitch": 38, "duration": 141, "velocity": 126}, {"time": 107878, "pitch": 40, "duration": 141, "velocity": 76}, {"time": 107997, "pitch": 36, "duration": 149, "velocity": 110}, {"time": 107997, "pitch": 42, "duration": 78, "velocity": 100}, {"time": 108239, "pitch": 42, "duration": 93, "velocity": 98}, {"time": 108482, "pitch": 38, "duration": 202, "velocity": 127}, {"time": 108482, "pitch": 40, "duration": 202, "velocity": 82}, {"time": 108482, "pitch": 46, "duration": 92, "velocity": 86}, {"time": 108720, "pitch": 42, "duration": 92, "velocity": 98}, {"time": 108839, "pitch": 36, "duration": 60, "velocity": 102}, {"time": 108958, "pitch": 36, "duration": 99, "velocity": 96}, {"time": 108958, "pitch": 44, "duration": 96, "velocity": 98}, {"time": 109200, "pitch": 36, "duration": 174, "velocity": 110}, {"time": 109200, "pitch": 42, "duration": 110, "velocity": 100}, {"time": 109443, "pitch": 38, "duration": 195, "velocity": 127}, {"time": 109443, "pitch": 40, "duration": 195, "velocity": 82}, {"time": 109443, "pitch": 46, "duration": 103, "velocity": 88}, {"time": 109681, "pitch": 36, "duration": 116, "velocity": 106}, {"time": 109681, "pitch": 42, "duration": 97, "velocity": 100}, {"time": 109919, "pitch": 36, "duration": 203, "velocity": 110}, {"time": 109919, "pitch": 44, "duration": 93, "velocity": 96}, {"time": 110161, "pitch": 42, "duration": 93, "velocity": 98}, {"time": 110404, "pitch": 38, "duration": 278, "velocity": 127}, {"time": 110404, "pitch": 40, "duration": 278, "velocity": 86}, {"time": 110404, "pitch": 46, "duration": 105, "velocity": 92}, {"time": 110642, "pitch": 42, "duration": 89, "velocity": 100}, {"time": 110761, "pitch": 36, "duration": 60, "velocity": 106}, {"time": 110880, "pitch": 36, "duration": 76, "velocity": 96}, {"time": 110880, "pitch": 42, "duration": 81, "velocity": 94}, {"time": 111118, "pitch": 36, "duration": 255, "velocity": 114}, {"time": 111118, "pitch": 42, "duration": 91, "velocity": 100}, {"time": 111356, "pitch": 38, "duration": 170, "velocity": 127}, {"time": 111356, "pitch": 40, "duration": 170, "velocity": 86}, {"time": 111356, "pitch": 46, "duration": 114, "velocity": 90}, {"time": 111598, "pitch": 36, "duration": 106, "velocity": 112}, {"time": 111598, "pitch": 42, "duration": 91, "velocity": 98}, {"time": 111720, "pitch": 38, "duration": 143, "velocity": 126}, {"time": 111720, "pitch": 40, "duration": 143, "velocity": 76}, {"time": 111841, "pitch": 36, "duration": 146, "velocity": 104}, {"time": 111841, "pitch": 44, "duration": 87, "velocity": 102}, {"time": 112079, "pitch": 42, "duration": 81, "velocity": 100}, {"time": 112317, "pitch": 38, "duration": 222, "velocity": 127}, {"time": 112317, "pitch": 40, "duration": 222, "velocity": 84}, {"time": 112317, "pitch": 46, "duration": 84, "velocity": 92}, {"time": 112559, "pitch": 42, "duration": 82, "velocity": 102}, {"time": 112681, "pitch": 36, "duration": 59, "velocity": 92}, {"time": 112802, "pitch": 36, "duration": 100, "velocity": 86}, {"time": 112802, "pitch": 42, "duration": 117, "velocity": 98}, {"time": 113040, "pitch": 36, "duration": 196, "velocity": 104}, {"time": 113040, "pitch": 46, "duration": 215, "velocity": 88}, {"time": 113278, "pitch": 38, "duration": 149, "velocity": 127}, {"time": 113278, "pitch": 40, "duration": 149, "velocity": 86}, {"time": 113278, "pitch": 42, "duration": 106, "velocity": 98}, {"time": 113520, "pitch": 36, "duration": 94, "velocity": 104}, {"time": 113520, "pitch": 46, "duration": 146, "velocity": 94}, {"time": 113763, "pitch": 36, "duration": 267, "velocity": 106}, {"time": 113763, "pitch": 42, "duration": 76, "velocity": 100}, {"time": 114001, "pitch": 42, "duration": 91, "velocity": 98}, {"time": 114239, "pitch": 38, "duration": 312, "velocity": 127}, {"time": 114239, "pitch": 40, "duration": 312, "velocity": 88}, {"time": 114239, "pitch": 46, "duration": 94, "velocity": 86}, {"time": 114481, "pitch": 42, "duration": 94, "velocity": 98}, {"time": 114603, "pitch": 36, "duration": 73, "velocity": 102}, {"time": 114724, "pitch": 36, "duration": 100, "velocity": 100}, {"time": 114724, "pitch": 44, "duration": 94, "velocity": 98}, {"time": 114962, "pitch": 36, "duration": 147, "velocity": 108}, {"time": 114962, "pitch": 42, "duration": 108, "velocity": 100}, {"time": 115200, "pitch": 38, "duration": 158, "velocity": 127}, {"time": 115200, "pitch": 40, "duration": 158, "velocity": 88}, {"time": 115200, "pitch": 46, "duration": 103, "velocity": 88}, {"time": 115438, "pitch": 36, "duration": 113, "velocity": 104}, {"time": 115438, "pitch": 42, "duration": 97, "velocity": 100}, {"time": 115557, "pitch": 38, "duration": 154, "velocity": 127}, {"time": 115557, "pitch": 40, "duration": 154, "velocity": 80}, {"time": 115676, "pitch": 36, "duration": 223, "velocity": 108}, {"time": 115676, "pitch": 44, "duration": 93, "velocity": 96}, {"time": 115918, "pitch": 42, "duration": 93, "velocity": 98}, {"time": 116161, "pitch": 38, "duration": 225, "velocity": 127}, {"time": 116161, "pitch": 40, "duration": 225, "velocity": 80}, {"time": 116161, "pitch": 46, "duration": 105, "velocity": 92}, {"time": 116399, "pitch": 36, "duration": 122, "velocity": 106}, {"time": 116399, "pitch": 42, "duration": 89, "velocity": 100}, {"time": 116637, "pitch": 36, "duration": 259, "velocity": 106}, {"time": 116637, "pitch": 42, "duration": 83, "velocity": 94}, {"time": 116879, "pitch": 42, "duration": 93, "velocity": 100}, {"time": 117001, "pitch": 36, "duration": 106, "velocity": 100}, {"time": 117122, "pitch": 38, "duration": 244, "velocity": 127}, {"time": 117122, "pitch": 40, "duration": 244, "velocity": 82}, {"time": 117122, "pitch": 46, "duration": 112, "velocity": 90}, {"time": 117360, "pitch": 36, "duration": 151, "velocity": 108}, {"time": 117360, "pitch": 42, "duration": 89, "velocity": 98}, {"time": 117598, "pitch": 36, "duration": 210, "velocity": 114}, {"time": 117598, "pitch": 44, "duration": 89, "velocity": 102}, {"time": 117840, "pitch": 42, "duration": 83, "velocity": 100}, {"time": 117962, "pitch": 36, "duration": 71, "velocity": 110}, {"time": 118083, "pitch": 38, "duration": 155, "velocity": 127}, {"time": 118083, "pitch": 40, "duration": 155, "velocity": 86}, {"time": 118083, "pitch": 46, "duration": 82, "velocity": 92}, {"time": 118321, "pitch": 36, "duration": 103, "velocity": 96}, {"time": 118321, "pitch": 42, "duration": 80, "velocity": 102}, {"time": 118559, "pitch": 38, "duration": 113, "velocity": 127}, {"time": 118559, "pitch": 40, "duration": 113, "velocity": 84}, {"time": 118559, "pitch": 42, "duration": 119, "velocity": 98}, {"time": 118801, "pitch": 36, "duration": 90, "velocity": 104}, {"time": 118801, "pitch": 46, "duration": 220, "velocity": 88}, {"time": 119044, "pitch": 38, "duration": 204, "velocity": 127}, {"time": 119044, "pitch": 40, "duration": 204, "velocity": 84}, {"time": 119044, "pitch": 42, "duration": 104, "velocity": 98}, {"time": 119282, "pitch": 36, "duration": 96, "velocity": 114}, {"time": 119282, "pitch": 46, "duration": 143, "velocity": 94}, {"time": 119520, "pitch": 36, "duration": 146, "velocity": 104}, {"time": 119520, "pitch": 44, "duration": 91, "velocity": 96}, {"time": 119758, "pitch": 29, "duration": 88, "velocity": 108}, {"time": 119758, "pitch": 42, "duration": 91, "velocity": 98}, {"time": 119996, "pitch": 38, "duration": 222, "velocity": 127}, {"time": 119996, "pitch": 40, "duration": 222, "velocity": 84}, {"time": 119996, "pitch": 46, "duration": 107, "velocity": 92}, {"time": 120238, "pitch": 29, "duration": 85, "velocity": 102}, {"time": 120238, "pitch": 42, "duration": 91, "velocity": 100}, {"time": 120360, "pitch": 36, "duration": 59, "velocity": 92}, {"time": 120481, "pitch": 36, "duration": 100, "velocity": 86}, {"time": 120481, "pitch": 42, "duration": 81, "velocity": 94}, {"time": 120719, "pitch": 29, "duration": 94, "velocity": 104}, {"time": 120719, "pitch": 36, "duration": 196, "velocity": 104}, {"time": 120719, "pitch": 42, "duration": 91, "velocity": 100}, {"time": 120957, "pitch": 38, "duration": 149, "velocity": 127}, {"time": 120957, "pitch": 40, "duration": 149, "velocity": 86}, {"time": 120957, "pitch": 46, "duration": 114, "velocity": 90}, {"time": 121199, "pitch": 29, "duration": 90, "velocity": 104}, {"time": 121199, "pitch": 36, "duration": 94, "velocity": 104}, {"time": 121199, "pitch": 42, "duration": 91, "velocity": 98}, {"time": 121442, "pitch": 36, "duration": 275, "velocity": 104}, {"time": 121442, "pitch": 44, "duration": 87, "velocity": 102}, {"time": 121680, "pitch": 29, "duration": 90, "velocity": 108}, {"time": 121680, "pitch": 42, "duration": 81, "velocity": 100}, {"time": 121918, "pitch": 38, "duration": 284, "velocity": 127}, {"time": 121918, "pitch": 40, "duration": 284, "velocity": 86}, {"time": 121918, "pitch": 46, "duration": 84, "velocity": 92}, {"time": 122160, "pitch": 29, "duration": 88, "velocity": 98}, {"time": 122160, "pitch": 42, "duration": 82, "velocity": 102}, {"time": 122282, "pitch": 36, "duration": 45, "velocity": 94}, {"time": 122403, "pitch": 36, "duration": 79, "velocity": 84}, {"time": 122403, "pitch": 42, "duration": 117, "velocity": 98}, {"time": 122641, "pitch": 29, "duration": 95, "velocity": 108}, {"time": 122641, "pitch": 36, "duration": 144, "velocity": 104}, {"time": 122641, "pitch": 46, "duration": 215, "velocity": 88}, {"time": 122879, "pitch": 29, "duration": 176, "velocity": 108}, {"time": 122879, "pitch": 38, "duration": 170, "velocity": 127}, {"time": 122879, "pitch": 40, "duration": 170, "velocity": 86}, {"time": 122879, "pitch": 42, "duration": 106, "velocity": 98}, {"time": 123121, "pitch": 29, "duration": 196, "velocity": 96}, {"time": 123121, "pitch": 36, "duration": 100, "velocity": 102}, {"time": 123121, "pitch": 46, "duration": 146, "velocity": 94}, {"time": 123243, "pitch": 38, "duration": 143, "velocity": 126}, {"time": 123243, "pitch": 40, "duration": 143, "velocity": 76}, {"time": 123364, "pitch": 36, "duration": 147, "velocity": 110}, {"time": 123364, "pitch": 42, "duration": 76, "velocity": 100}, {"time": 123602, "pitch": 29, "duration": 100, "velocity": 110}, {"time": 123602, "pitch": 42, "duration": 91, "velocity": 98}, {"time": 123840, "pitch": 38, "duration": 202, "velocity": 127}, {"time": 123840, "pitch": 40, "duration": 202, "velocity": 82}, {"time": 123840, "pitch": 46, "duration": 92, "velocity": 86}, {"time": 124078, "pitch": 29, "duration": 97, "velocity": 104}, {"time": 124078, "pitch": 42, "duration": 92, "velocity": 98}, {"time": 124197, "pitch": 36, "duration": 61, "velocity": 102}, {"time": 124316, "pitch": 36, "duration": 99, "velocity": 96}, {"time": 124316, "pitch": 44, "duration": 96, "velocity": 98}, {"time": 124558, "pitch": 29, "duration": 88, "velocity": 108}, {"time": 124558, "pitch": 36, "duration": 174, "velocity": 110}, {"time": 124558, "pitch": 42, "duration": 111, "velocity": 100}, {"time": 124801, "pitch": 38, "duration": 195, "velocity": 127}, {"time": 124801, "pitch": 40, "duration": 195, "velocity": 82}, {"time": 124801, "pitch": 46, "duration": 103, "velocity": 88}, {"time": 125039, "pitch": 29, "duration": 87, "velocity": 112}, {"time": 125039, "pitch": 36, "duration": 116, "velocity": 106}, {"time": 125039, "pitch": 42, "duration": 97, "velocity": 100}, {"time": 125277, "pitch": 36, "duration": 203, "velocity": 110}, {"time": 125277, "pitch": 44, "duration": 93, "velocity": 96}, {"time": 125519, "pitch": 29, "duration": 102, "velocity": 110}, {"time": 125519, "pitch": 42, "duration": 93, "velocity": 98}, {"time": 125762, "pitch": 38, "duration": 279, "velocity": 127}, {"time": 125762, "pitch": 40, "duration": 279, "velocity": 86}, {"time": 125762, "pitch": 46, "duration": 105, "velocity": 92}, {"time": 126000, "pitch": 29, "duration": 97, "velocity": 106}, {"time": 126000, "pitch": 42, "duration": 89, "velocity": 100}, {"time": 126119, "pitch": 36, "duration": 60, "velocity": 106}, {"time": 126238, "pitch": 36, "duration": 78, "velocity": 96}, {"time": 126238, "pitch": 42, "duration": 83, "velocity": 94}, {"time": 126480, "pitch": 29, "duration": 96, "velocity": 112}, {"time": 126480, "pitch": 36, "duration": 260, "velocity": 114}, {"time": 126480, "pitch": 42, "duration": 93, "velocity": 100}, {"time": 126723, "pitch": 30, "duration": 108, "velocity": 102}, {"time": 126723, "pitch": 38, "duration": 166, "velocity": 127}, {"time": 126723, "pitch": 40, "duration": 166, "velocity": 86}, {"time": 126723, "pitch": 46, "duration": 112, "velocity": 90}, {"time": 126961, "pitch": 30, "duration": 149, "velocity": 106}, {"time": 126961, "pitch": 36, "duration": 104, "velocity": 112}, {"time": 126961, "pitch": 42, "duration": 89, "velocity": 98}, {"time": 127080, "pitch": 38, "duration": 141, "velocity": 126}, {"time": 127080, "pitch": 40, "duration": 141, "velocity": 76}, {"time": 127199, "pitch": 36, "duration": 148, "velocity": 104}, {"time": 127199, "pitch": 44, "duration": 89, "velocity": 102}, {"time": 127441, "pitch": 29, "duration": 114, "velocity": 100}, {"time": 127441, "pitch": 42, "duration": 83, "velocity": 100}, {"time": 127684, "pitch": 38, "duration": 218, "velocity": 127}, {"time": 127684, "pitch": 40, "duration": 218, "velocity": 84}, {"time": 127684, "pitch": 46, "duration": 82, "velocity": 92}, {"time": 127922, "pitch": 29, "duration": 103, "velocity": 104}, {"time": 127922, "pitch": 42, "duration": 80, "velocity": 102}, {"time": 128041, "pitch": 36, "duration": 58, "velocity": 92}, {"time": 128160, "pitch": 36, "duration": 100, "velocity": 86}, {"time": 128160, "pitch": 42, "duration": 117, "velocity": 98}, {"time": 128398, "pitch": 29, "duration": 102, "velocity": 106}, {"time": 128398, "pitch": 36, "duration": 196, "velocity": 104}, {"time": 128398, "pitch": 46, "duration": 215, "velocity": 88}, {"time": 128636, "pitch": 38, "duration": 149, "velocity": 127}, {"time": 128636, "pitch": 40, "duration": 149, "velocity": 86}, {"time": 128636, "pitch": 42, "duration": 106, "velocity": 98}, {"time": 128878, "pitch": 29, "duration": 108, "velocity": 106}, {"time": 128878, "pitch": 36, "duration": 94, "velocity": 104}, {"time": 128878, "pitch": 46, "duration": 146, "velocity": 94}, {"time": 129121, "pitch": 36, "duration": 267, "velocity": 106}, {"time": 129121, "pitch": 42, "duration": 76, "velocity": 100}, {"time": 129359, "pitch": 29, "duration": 97, "velocity": 110}, {"time": 129359, "pitch": 42, "duration": 91, "velocity": 98}, {"time": 129597, "pitch": 38, "duration": 312, "velocity": 127}, {"time": 129597, "pitch": 40, "duration": 312, "velocity": 88}, {"time": 129597, "pitch": 46, "duration": 94, "velocity": 86}, {"time": 129839, "pitch": 29, "duration": 105, "velocity": 108}, {"time": 129839, "pitch": 42, "duration": 94, "velocity": 98}, {"time": 129961, "pitch": 36, "duration": 73, "velocity": 102}, {"time": 130082, "pitch": 29, "duration": 101, "velocity": 108}, {"time": 130082, "pitch": 36, "duration": 100, "velocity": 100}, {"time": 130082, "pitch": 44, "duration": 94, "velocity": 98}, {"time": 130320, "pitch": 29, "duration": 103, "velocity": 112}, {"time": 130320, "pitch": 36, "duration": 147, "velocity": 108}, {"time": 130320, "pitch": 42, "duration": 108, "velocity": 100}, {"time": 130558, "pitch": 30, "duration": 90, "velocity": 110}, {"time": 130558, "pitch": 38, "duration": 161, "velocity": 127}, {"time": 130558, "pitch": 40, "duration": 161, "velocity": 88}, {"time": 130558, "pitch": 46, "duration": 105, "velocity": 88}, {"time": 130679, "pitch": 29, "duration": 103, "velocity": 104}, {"time": 130800, "pitch": 30, "duration": 130, "velocity": 104}, {"time": 130800, "pitch": 36, "duration": 116, "velocity": 104}, {"time": 130800, "pitch": 42, "duration": 99, "velocity": 100}, {"time": 130922, "pitch": 38, "duration": 155, "velocity": 127}, {"time": 130922, "pitch": 40, "duration": 155, "velocity": 80}, {"time": 131043, "pitch": 36, "duration": 219, "velocity": 108}, {"time": 131043, "pitch": 44, "duration": 91, "velocity": 96}, {"time": 131281, "pitch": 29, "duration": 93, "velocity": 112}, {"time": 131281, "pitch": 42, "duration": 91, "velocity": 98}, {"time": 131519, "pitch": 30, "duration": 87, "velocity": 102}, {"time": 131519, "pitch": 38, "duration": 229, "velocity": 127}, {"time": 131519, "pitch": 40, "duration": 229, "velocity": 80}, {"time": 131519, "pitch": 46, "duration": 107, "velocity": 92}, {"time": 131640, "pitch": 29, "duration": 91, "velocity": 104}, {"time": 131761, "pitch": 30, "duration": 120, "velocity": 104}, {"time": 131761, "pitch": 36, "duration": 125, "velocity": 106}, {"time": 131761, "pitch": 42, "duration": 91, "velocity": 100}, {"time": 132004, "pitch": 29, "duration": 97, "velocity": 116}, {"time": 132004, "pitch": 36, "duration": 254, "velocity": 106}, {"time": 132004, "pitch": 42, "duration": 81, "velocity": 94}, {"time": 132242, "pitch": 30, "duration": 77, "velocity": 104}, {"time": 132242, "pitch": 42, "duration": 91, "velocity": 100}, {"time": 132361, "pitch": 29, "duration": 100, "velocity": 106}, {"time": 132361, "pitch": 36, "duration": 104, "velocity": 100}, {"time": 132480, "pitch": 38, "duration": 244, "velocity": 127}, {"time": 132480, "pitch": 40, "duration": 244, "velocity": 82}, {"time": 132480, "pitch": 46, "duration": 112, "velocity": 90}, {"time": 132599, "pitch": 30, "duration": 80, "velocity": 110}, {"time": 132718, "pitch": 29, "duration": 107, "velocity": 100}, {"time": 132718, "pitch": 36, "duration": 151, "velocity": 108}, {"time": 132718, "pitch": 42, "duration": 89, "velocity": 98}, {"time": 132956, "pitch": 36, "duration": 210, "velocity": 114}, {"time": 132956, "pitch": 44, "duration": 89, "velocity": 102}, {"time": 133198, "pitch": 30, "duration": 98, "velocity": 102}, {"time": 133198, "pitch": 42, "duration": 83, "velocity": 100}, {"time": 133320, "pitch": 36, "duration": 71, "velocity": 110}, {"time": 133441, "pitch": 30, "duration": 88, "velocity": 112}, {"time": 133441, "pitch": 38, "duration": 156, "velocity": 127}, {"time": 133441, "pitch": 40, "duration": 156, "velocity": 86}, {"time": 133441, "pitch": 46, "duration": 82, "velocity": 92}, {"time": 133679, "pitch": 30, "duration": 101, "velocity": 104}, {"time": 133679, "pitch": 36, "duration": 103, "velocity": 96}, {"time": 133679, "pitch": 42, "duration": 80, "velocity": 102}, {"time": 133917, "pitch": 30, "duration": 93, "velocity": 108}, {"time": 133917, "pitch": 38, "duration": 113, "velocity": 127}, {"time": 133917, "pitch": 40, "duration": 113, "velocity": 84}, {"time": 133917, "pitch": 42, "duration": 119, "velocity": 98}, {"time": 134159, "pitch": 30, "duration": 87, "velocity": 104}, {"time": 134159, "pitch": 36, "duration": 90, "velocity": 104}, {"time": 134159, "pitch": 46, "duration": 220, "velocity": 88}, {"time": 134402, "pitch": 30, "duration": 83, "velocity": 108}, {"time": 134402, "pitch": 38, "duration": 204, "velocity": 127}, {"time": 134402, "pitch": 40, "duration": 204, "velocity": 84}, {"time": 134402, "pitch": 42, "duration": 104, "velocity": 98}, {"time": 134521, "pitch": 29, "duration": 88, "velocity": 102}, {"time": 134640, "pitch": 30, "duration": 104, "velocity": 108}, {"time": 134640, "pitch": 36, "duration": 96, "velocity": 114}, {"time": 134640, "pitch": 46, "duration": 143, "velocity": 94}, {"time": 134878, "pitch": 36, "duration": 148, "velocity": 104}, {"time": 134878, "pitch": 44, "duration": 93, "velocity": 96}, {"time": 135120, "pitch": 29, "duration": 90, "velocity": 108}, {"time": 135120, "pitch": 42, "duration": 93, "velocity": 98}, {"time": 135363, "pitch": 38, "duration": 218, "velocity": 127}, {"time": 135363, "pitch": 40, "duration": 218, "velocity": 84}, {"time": 135363, "pitch": 46, "duration": 105, "velocity": 92}, {"time": 135601, "pitch": 29, "duration": 83, "velocity": 102}, {"time": 135601, "pitch": 42, "duration": 89, "velocity": 100}, {"time": 135720, "pitch": 36, "duration": 58, "velocity": 92}, {"time": 135839, "pitch": 36, "duration": 102, "velocity": 86}, {"time": 135839, "pitch": 42, "duration": 83, "velocity": 94}, {"time": 136081, "pitch": 29, "duration": 96, "velocity": 104}, {"time": 136081, "pitch": 36, "duration": 200, "velocity": 104}, {"time": 136081, "pitch": 42, "duration": 93, "velocity": 100}, {"time": 136324, "pitch": 38, "duration": 146, "velocity": 127}, {"time": 136324, "pitch": 40, "duration": 146, "velocity": 86}, {"time": 136324, "pitch": 46, "duration": 112, "velocity": 90}, {"time": 136562, "pitch": 29, "duration": 88, "velocity": 104}, {"time": 136562, "pitch": 36, "duration": 92, "velocity": 104}, {"time": 136562, "pitch": 42, "duration": 89, "velocity": 98}, {"time": 136800, "pitch": 36, "duration": 275, "velocity": 104}, {"time": 136800, "pitch": 44, "duration": 87, "velocity": 102}, {"time": 137038, "pitch": 29, "duration": 90, "velocity": 108}, {"time": 137038, "pitch": 42, "duration": 81, "velocity": 100}, {"time": 137276, "pitch": 38, "duration": 284, "velocity": 127}, {"time": 137276, "pitch": 40, "duration": 284, "velocity": 86}, {"time": 137276, "pitch": 46, "duration": 84, "velocity": 92}, {"time": 137518, "pitch": 29, "duration": 88, "velocity": 98}, {"time": 137518, "pitch": 42, "duration": 82, "velocity": 102}, {"time": 137640, "pitch": 36, "duration": 45, "velocity": 94}, {"time": 137761, "pitch": 36, "duration": 79, "velocity": 84}, {"time": 137761, "pitch": 42, "duration": 117, "velocity": 98}, {"time": 137999, "pitch": 29, "duration": 95, "velocity": 108}, {"time": 137999, "pitch": 36, "duration": 144, "velocity": 104}, {"time": 137999, "pitch": 46, "duration": 215, "velocity": 88}, {"time": 138237, "pitch": 30, "duration": 176, "velocity": 108}, {"time": 138237, "pitch": 38, "duration": 170, "velocity": 127}, {"time": 138237, "pitch": 40, "duration": 170, "velocity": 86}, {"time": 138237, "pitch": 42, "duration": 106, "velocity": 98}, {"time": 138479, "pitch": 30, "duration": 196, "velocity": 96}, {"time": 138479, "pitch": 36, "duration": 100, "velocity": 102}, {"time": 138479, "pitch": 46, "duration": 146, "velocity": 94}, {"time": 138601, "pitch": 38, "duration": 143, "velocity": 126}, {"time": 138601, "pitch": 40, "duration": 143, "velocity": 76}, {"time": 138722, "pitch": 36, "duration": 147, "velocity": 110}, {"time": 138722, "pitch": 42, "duration": 76, "velocity": 100}, {"time": 138960, "pitch": 29, "duration": 100, "velocity": 110}, {"time": 138960, "pitch": 42, "duration": 91, "velocity": 98}, {"time": 139198, "pitch": 38, "duration": 206, "velocity": 127}, {"time": 139198, "pitch": 40, "duration": 206, "velocity": 82}, {"time": 139198, "pitch": 46, "duration": 94, "velocity": 86}, {"time": 139440, "pitch": 29, "duration": 99, "velocity": 104}, {"time": 139440, "pitch": 42, "duration": 94, "velocity": 98}, {"time": 139562, "pitch": 36, "duration": 61, "velocity": 102}, {"time": 139683, "pitch": 36, "duration": 97, "velocity": 96}, {"time": 139683, "pitch": 44, "duration": 94, "velocity": 98}, {"time": 139921, "pitch": 29, "duration": 86, "velocity": 108}, {"time": 139921, "pitch": 36, "duration": 170, "velocity": 110}, {"time": 139921, "pitch": 42, "duration": 108, "velocity": 100}, {"time": 140159, "pitch": 38, "duration": 199, "velocity": 127}, {"time": 140159, "pitch": 40, "duration": 199, "velocity": 82}, {"time": 140159, "pitch": 46, "duration": 105, "velocity": 88}, {"time": 140401, "pitch": 29, "duration": 89, "velocity": 112}, {"time": 140401, "pitch": 36, "duration": 118, "velocity": 106}, {"time": 140401, "pitch": 42, "duration": 99, "velocity": 100}, {"time": 140644, "pitch": 36, "duration": 199, "velocity": 110}, {"time": 140644, "pitch": 44, "duration": 91, "velocity": 96}, {"time": 140882, "pitch": 29, "duration": 100, "velocity": 110}, {"time": 140882, "pitch": 42, "duration": 91, "velocity": 98}, {"time": 141120, "pitch": 38, "duration": 279, "velocity": 127}, {"time": 141120, "pitch": 40, "duration": 279, "velocity": 86}, {"time": 141120, "pitch": 46, "duration": 105, "velocity": 92}, {"time": 141358, "pitch": 29, "duration": 97, "velocity": 106}, {"time": 141358, "pitch": 42, "duration": 89, "velocity": 100}, {"time": 141477, "pitch": 36, "duration": 61, "velocity": 106}, {"time": 141596, "pitch": 36, "duration": 78, "velocity": 96}, {"time": 141596, "pitch": 42, "duration": 83, "velocity": 94}, {"time": 141838, "pitch": 29, "duration": 96, "velocity": 112}, {"time": 141838, "pitch": 36, "duration": 260, "velocity": 114}, {"time": 141838, "pitch": 42, "duration": 93, "velocity": 100}, {"time": 142081, "pitch": 30, "duration": 108, "velocity": 102}, {"time": 142081, "pitch": 38, "duration": 166, "velocity": 127}, {"time": 142081, "pitch": 40, "duration": 166, "velocity": 86}, {"time": 142081, "pitch": 46, "duration": 112, "velocity": 90}, {"time": 142319, "pitch": 30, "duration": 149, "velocity": 106}, {"time": 142319, "pitch": 36, "duration": 104, "velocity": 112}, {"time": 142319, "pitch": 42, "duration": 89, "velocity": 98}, {"time": 142438, "pitch": 38, "duration": 141, "velocity": 126}, {"time": 142438, "pitch": 40, "duration": 141, "velocity": 76}, {"time": 142557, "pitch": 36, "duration": 148, "velocity": 104}, {"time": 142557, "pitch": 44, "duration": 89, "velocity": 102}, {"time": 142799, "pitch": 29, "duration": 115, "velocity": 100}, {"time": 142799, "pitch": 42, "duration": 83, "velocity": 100}, {"time": 143042, "pitch": 38, "duration": 218, "velocity": 127}, {"time": 143042, "pitch": 40, "duration": 218, "velocity": 84}, {"time": 143042, "pitch": 46, "duration": 82, "velocity": 92}, {"time": 143280, "pitch": 29, "duration": 103, "velocity": 104}, {"time": 143280, "pitch": 42, "duration": 80, "velocity": 102}, {"time": 143399, "pitch": 36, "duration": 58, "velocity": 92}, {"time": 143518, "pitch": 36, "duration": 102, "velocity": 86}, {"time": 143518, "pitch": 42, "duration": 119, "velocity": 98}, {"time": 143760, "pitch": 29, "duration": 104, "velocity": 106}, {"time": 143760, "pitch": 36, "duration": 200, "velocity": 104}, {"time": 143760, "pitch": 46, "duration": 220, "velocity": 88}, {"time": 144003, "pitch": 38, "duration": 147, "velocity": 127}, {"time": 144003, "pitch": 40, "duration": 147, "velocity": 86}, {"time": 144003, "pitch": 42, "duration": 104, "velocity": 98}, {"time": 144241, "pitch": 29, "duration": 106, "velocity": 106}, {"time": 144241, "pitch": 36, "duration": 92, "velocity": 104}, {"time": 144241, "pitch": 46, "duration": 143, "velocity": 94}, {"time": 144479, "pitch": 36, "duration": 272, "velocity": 106}, {"time": 144479, "pitch": 42, "duration": 78, "velocity": 100}, {"time": 144721, "pitch": 29, "duration": 99, "velocity": 110}, {"time": 144721, "pitch": 42, "duration": 93, "velocity": 98}, {"time": 144964, "pitch": 38, "duration": 306, "velocity": 127}, {"time": 144964, "pitch": 40, "duration": 306, "velocity": 88}, {"time": 144964, "pitch": 46, "duration": 92, "velocity": 86}, {"time": 145202, "pitch": 29, "duration": 103, "velocity": 108}, {"time": 145202, "pitch": 42, "duration": 92, "velocity": 98}, {"time": 145321, "pitch": 36, "duration": 72, "velocity": 102}, {"time": 145440, "pitch": 29, "duration": 101, "velocity": 108}, {"time": 145440, "pitch": 36, "duration": 100, "velocity": 100}, {"time": 145440, "pitch": 44, "duration": 94, "velocity": 98}, {"time": 145678, "pitch": 29, "duration": 103, "velocity": 112}, {"time": 145678, "pitch": 36, "duration": 147, "velocity": 108}, {"time": 145678, "pitch": 42, "duration": 108, "velocity": 100}, {"time": 145916, "pitch": 30, "duration": 90, "velocity": 110}, {"time": 145916, "pitch": 38, "duration": 161, "velocity": 127}, {"time": 145916, "pitch": 40, "duration": 161, "velocity": 88}, {"time": 145916, "pitch": 46, "duration": 105, "velocity": 88}, {"time": 146037, "pitch": 29, "duration": 103, "velocity": 104}, {"time": 146158, "pitch": 30, "duration": 130, "velocity": 104}, {"time": 146158, "pitch": 36, "duration": 116, "velocity": 104}, {"time": 146158, "pitch": 42, "duration": 99, "velocity": 100}, {"time": 146280, "pitch": 38, "duration": 156, "velocity": 127}, {"time": 146280, "pitch": 40, "duration": 156, "velocity": 80}, {"time": 146401, "pitch": 36, "duration": 219, "velocity": 108}, {"time": 146401, "pitch": 44, "duration": 91, "velocity": 96}, {"time": 146639, "pitch": 29, "duration": 93, "velocity": 112}, {"time": 146639, "pitch": 42, "duration": 91, "velocity": 98}, {"time": 146877, "pitch": 30, "duration": 87, "velocity": 102}, {"time": 146877, "pitch": 38, "duration": 229, "velocity": 127}, {"time": 146877, "pitch": 40, "duration": 229, "velocity": 80}, {"time": 146877, "pitch": 46, "duration": 107, "velocity": 92}, {"time": 146998, "pitch": 29, "duration": 91, "velocity": 104}, {"time": 147119, "pitch": 30, "duration": 120, "velocity": 104}, {"time": 147119, "pitch": 36, "duration": 125, "velocity": 106}, {"time": 147119, "pitch": 42, "duration": 91, "velocity": 100}, {"time": 147362, "pitch": 29, "duration": 97, "velocity": 116}, {"time": 147362, "pitch": 36, "duration": 254, "velocity": 106}, {"time": 147362, "pitch": 42, "duration": 81, "velocity": 94}, {"time": 147600, "pitch": 30, "duration": 77, "velocity": 104}, {"time": 147600, "pitch": 42, "duration": 91, "velocity": 100}, {"time": 147719, "pitch": 29, "duration": 100, "velocity": 106}, {"time": 147719, "pitch": 36, "duration": 104, "velocity": 100}, {"time": 147838, "pitch": 38, "duration": 248, "velocity": 127}, {"time": 147838, "pitch": 40, "duration": 248, "velocity": 82}, {"time": 147838, "pitch": 46, "duration": 114, "velocity": 90}, {"time": 147959, "pitch": 30, "duration": 82, "velocity": 110}, {"time": 148080, "pitch": 29, "duration": 109, "velocity": 100}, {"time": 148080, "pitch": 36, "duration": 154, "velocity": 108}, {"time": 148080, "pitch": 42, "duration": 91, "velocity": 98}, {"time": 148323, "pitch": 36, "duration": 206, "velocity": 114}, {"time": 148323, "pitch": 44, "duration": 87, "velocity": 102}, {"time": 148561, "pitch": 30, "duration": 96, "velocity": 102}, {"time": 148561, "pitch": 42, "duration": 81, "velocity": 100}, {"time": 148680, "pitch": 36, "duration": 70, "velocity": 110}, {"time": 148799, "pitch": 29, "duration": 90, "velocity": 112}, {"time": 148799, "pitch": 38, "duration": 158, "velocity": 127}, {"time": 148799, "pitch": 40, "duration": 158, "velocity": 86}, {"time": 148799, "pitch": 46, "duration": 84, "velocity": 92}, {"time": 149041, "pitch": 30, "duration": 103, "velocity": 104}, {"time": 149041, "pitch": 36, "duration": 105, "velocity": 96}, {"time": 149041, "pitch": 42, "duration": 82, "velocity": 102}, {"time": 149284, "pitch": 30, "duration": 91, "velocity": 108}, {"time": 149284, "pitch": 38, "duration": 111, "velocity": 127}, {"time": 149284, "pitch": 40, "duration": 111, "velocity": 84}, {"time": 149284, "pitch": 42, "duration": 117, "velocity": 98}, {"time": 149522, "pitch": 30, "duration": 85, "velocity": 104}, {"time": 149522, "pitch": 36, "duration": 88, "velocity": 104}, {"time": 149522, "pitch": 46, "duration": 215, "velocity": 88}, {"time": 149760, "pitch": 30, "duration": 83, "velocity": 108}, {"time": 149760, "pitch": 38, "duration": 204, "velocity": 127}, {"time": 149760, "pitch": 40, "duration": 204, "velocity": 84}, {"time": 149760, "pitch": 42, "duration": 104, "velocity": 98}, {"time": 149879, "pitch": 29, "duration": 88, "velocity": 102}, {"time": 149998, "pitch": 30, "duration": 104, "velocity": 108}, {"time": 149998, "pitch": 36, "duration": 96, "velocity": 114}, {"time": 149998, "pitch": 46, "duration": 143, "velocity": 94}, {"time": 150236, "pitch": 36, "duration": 148, "velocity": 104}, {"time": 150236, "pitch": 44, "duration": 93, "velocity": 96}, {"time": 150478, "pitch": 29, "duration": 90, "velocity": 108}, {"time": 150478, "pitch": 42, "duration": 93, "velocity": 98}, {"time": 150721, "pitch": 38, "duration": 218, "velocity": 127}, {"time": 150721, "pitch": 40, "duration": 218, "velocity": 84}, {"time": 150721, "pitch": 46, "duration": 105, "velocity": 92}, {"time": 150959, "pitch": 29, "duration": 83, "velocity": 102}, {"time": 150959, "pitch": 42, "duration": 89, "velocity": 100}, {"time": 151078, "pitch": 36, "duration": 58, "velocity": 92}, {"time": 151197, "pitch": 36, "duration": 102, "velocity": 86}, {"time": 151197, "pitch": 42, "duration": 83, "velocity": 94}, {"time": 151439, "pitch": 29, "duration": 96, "velocity": 104}, {"time": 151439, "pitch": 36, "duration": 200, "velocity": 104}, {"time": 151439, "pitch": 42, "duration": 93, "velocity": 100}, {"time": 151682, "pitch": 38, "duration": 147, "velocity": 127}, {"time": 151682, "pitch": 40, "duration": 147, "velocity": 86}, {"time": 151682, "pitch": 46, "duration": 112, "velocity": 90}, {"time": 151920, "pitch": 29, "duration": 88, "velocity": 104}, {"time": 151920, "pitch": 36, "duration": 92, "velocity": 104}, {"time": 151920, "pitch": 42, "duration": 89, "velocity": 98}, {"time": 152158, "pitch": 36, "duration": 280, "velocity": 104}, {"time": 152158, "pitch": 44, "duration": 89, "velocity": 102}, {"time": 152400, "pitch": 29, "duration": 92, "velocity": 108}, {"time": 152400, "pitch": 42, "duration": 83, "velocity": 100}, {"time": 152643, "pitch": 38, "duration": 278, "velocity": 127}, {"time": 152643, "pitch": 40, "duration": 278, "velocity": 86}, {"time": 152643, "pitch": 46, "duration": 82, "velocity": 92}, {"time": 152881, "pitch": 29, "duration": 86, "velocity": 98}, {"time": 152881, "pitch": 42, "duration": 80, "velocity": 102}, {"time": 153000, "pitch": 36, "duration": 44, "velocity": 94}, {"time": 153119, "pitch": 36, "duration": 81, "velocity": 84}, {"time": 153119, "pitch": 42, "duration": 119, "velocity": 98}, {"time": 153361, "pitch": 29, "duration": 97, "velocity": 108}, {"time": 153361, "pitch": 36, "duration": 147, "velocity": 104}, {"time": 153361, "pitch": 46, "duration": 219, "velocity": 88}, {"time": 153604, "pitch": 30, "duration": 172, "velocity": 108}, {"time": 153604, "pitch": 38, "duration": 166, "velocity": 127}, {"time": 153604, "pitch": 40, "duration": 166, "velocity": 86}, {"time": 153604, "pitch": 42, "duration": 104, "velocity": 98}, {"time": 153842, "pitch": 30, "duration": 192, "velocity": 96}, {"time": 153842, "pitch": 36, "duration": 98, "velocity": 102}, {"time": 153842, "pitch": 46, "duration": 143, "velocity": 94}, {"time": 153961, "pitch": 38, "duration": 141, "velocity": 126}, {"time": 153961, "pitch": 40, "duration": 141, "velocity": 76}, {"time": 154080, "pitch": 36, "duration": 147, "velocity": 110}, {"time": 154080, "pitch": 42, "duration": 76, "velocity": 100}, {"time": 154318, "pitch": 29, "duration": 100, "velocity": 110}, {"time": 154318, "pitch": 42, "duration": 91, "velocity": 98}, {"time": 154556, "pitch": 38, "duration": 206, "velocity": 127}, {"time": 154556, "pitch": 40, "duration": 206, "velocity": 82}, {"time": 154556, "pitch": 46, "duration": 94, "velocity": 86}, {"time": 154798, "pitch": 29, "duration": 99, "velocity": 104}, {"time": 154798, "pitch": 42, "duration": 94, "velocity": 98}, {"time": 154920, "pitch": 36, "duration": 61, "velocity": 102}, {"time": 155041, "pitch": 36, "duration": 97, "velocity": 96}, {"time": 155041, "pitch": 44, "duration": 94, "velocity": 98}, {"time": 155279, "pitch": 29, "duration": 86, "velocity": 108}, {"time": 155279, "pitch": 36, "duration": 171, "velocity": 110}, {"time": 155279, "pitch": 42, "duration": 108, "velocity": 100}, {"time": 155517, "pitch": 38, "duration": 199, "velocity": 127}, {"time": 155517, "pitch": 40, "duration": 199, "velocity": 82}, {"time": 155517, "pitch": 46, "duration": 105, "velocity": 88}, {"time": 155759, "pitch": 29, "duration": 89, "velocity": 112}, {"time": 155759, "pitch": 36, "duration": 119, "velocity": 106}, {"time": 155759, "pitch": 42, "duration": 99, "velocity": 100}, {"time": 156002, "pitch": 36, "duration": 199, "velocity": 110}, {"time": 156002, "pitch": 44, "duration": 91, "velocity": 96}, {"time": 156240, "pitch": 29, "duration": 100, "velocity": 110}, {"time": 156240, "pitch": 42, "duration": 91, "velocity": 98}, {"time": 156478, "pitch": 38, "duration": 284, "velocity": 127}, {"time": 156478, "pitch": 40, "duration": 284, "velocity": 86}, {"time": 156478, "pitch": 46, "duration": 107, "velocity": 92}, {"time": 156720, "pitch": 29, "duration": 99, "velocity": 106}, {"time": 156720, "pitch": 42, "duration": 91, "velocity": 100}, {"time": 156842, "pitch": 36, "duration": 61, "velocity": 106}, {"time": 156963, "pitch": 36, "duration": 76, "velocity": 96}, {"time": 156963, "pitch": 42, "duration": 81, "velocity": 94}, {"time": 157201, "pitch": 29, "duration": 94, "velocity": 112}, {"time": 157201, "pitch": 36, "duration": 255, "velocity": 114}, {"time": 157201, "pitch": 42, "duration": 91, "velocity": 100}, {"time": 157439, "pitch": 30, "duration": 110, "velocity": 102}, {"time": 157439, "pitch": 38, "duration": 170, "velocity": 127}, {"time": 157439, "pitch": 40, "duration": 170, "velocity": 86}, {"time": 157439, "pitch": 46, "duration": 114, "velocity": 90}, {"time": 157681, "pitch": 30, "duration": 152, "velocity": 106}, {"time": 157681, "pitch": 36, "duration": 106, "velocity": 112}, {"time": 157681, "pitch": 42, "duration": 91, "velocity": 98}, {"time": 157803, "pitch": 38, "duration": 142, "velocity": 126}, {"time": 157803, "pitch": 40, "duration": 142, "velocity": 76}, {"time": 157924, "pitch": 36, "duration": 145, "velocity": 104}, {"time": 157924, "pitch": 44, "duration": 87, "velocity": 102}, {"time": 158162, "pitch": 29, "duration": 112, "velocity": 100}, {"time": 158162, "pitch": 42, "duration": 81, "velocity": 100}, {"time": 158400, "pitch": 38, "duration": 218, "velocity": 127}, {"time": 158400, "pitch": 40, "duration": 218, "velocity": 84}, {"time": 158400, "pitch": 46, "duration": 82, "velocity": 92}, {"time": 158638, "pitch": 29, "duration": 103, "velocity": 104}, {"time": 158638, "pitch": 42, "duration": 80, "velocity": 102}, {"time": 158757, "pitch": 36, "duration": 59, "velocity": 92}, {"time": 158876, "pitch": 36, "duration": 102, "velocity": 86}, {"time": 158876, "pitch": 42, "duration": 119, "velocity": 98}, {"time": 159118, "pitch": 29, "duration": 104, "velocity": 106}, {"time": 159118, "pitch": 36, "duration": 200, "velocity": 104}, {"time": 159118, "pitch": 46, "duration": 220, "velocity": 88}, {"time": 159361, "pitch": 38, "duration": 147, "velocity": 127}, {"time": 159361, "pitch": 40, "duration": 147, "velocity": 86}, {"time": 159361, "pitch": 42, "duration": 104, "velocity": 98}, {"time": 159599, "pitch": 29, "duration": 106, "velocity": 106}, {"time": 159599, "pitch": 36, "duration": 92, "velocity": 104}, {"time": 159599, "pitch": 46, "duration": 143, "velocity": 94}, {"time": 159837, "pitch": 36, "duration": 272, "velocity": 106}, {"time": 159837, "pitch": 42, "duration": 78, "velocity": 100}, {"time": 160079, "pitch": 29, "duration": 99, "velocity": 110}, {"time": 160079, "pitch": 42, "duration": 93, "velocity": 98}, {"time": 160322, "pitch": 38, "duration": 306, "velocity": 127}, {"time": 160322, "pitch": 40, "duration": 306, "velocity": 88}, {"time": 160322, "pitch": 46, "duration": 92, "velocity": 86}, {"time": 160560, "pitch": 29, "duration": 103, "velocity": 108}, {"time": 160560, "pitch": 42, "duration": 92, "velocity": 98}, {"time": 160679, "pitch": 36, "duration": 72, "velocity": 102}, {"time": 160798, "pitch": 29, "duration": 101, "velocity": 108}, {"time": 160798, "pitch": 36, "duration": 100, "velocity": 100}, {"time": 160798, "pitch": 44, "duration": 94, "velocity": 98}, {"time": 161036, "pitch": 29, "duration": 103, "velocity": 112}, {"time": 161036, "pitch": 36, "duration": 147, "velocity": 108}, {"time": 161036, "pitch": 42, "duration": 108, "velocity": 100}, {"time": 161274, "pitch": 30, "duration": 88, "velocity": 110}, {"time": 161274, "pitch": 38, "duration": 158, "velocity": 127}, {"time": 161274, "pitch": 40, "duration": 158, "velocity": 88}, {"time": 161274, "pitch": 46, "duration": 103, "velocity": 88}, {"time": 161393, "pitch": 29, "duration": 101, "velocity": 104}, {"time": 161512, "pitch": 30, "duration": 127, "velocity": 104}, {"time": 161512, "pitch": 36, "duration": 113, "velocity": 104}, {"time": 161512, "pitch": 42, "duration": 97, "velocity": 100}, {"time": 161631, "pitch": 38, "duration": 154, "velocity": 127}, {"time": 161631, "pitch": 40, "duration": 154, "velocity": 80}, {"time": 161750, "pitch": 36, "duration": 220, "velocity": 108}, {"time": 161750, "pitch": 44, "duration": 92, "velocity": 96}, {"time": 161988, "pitch": 29, "duration": 94, "velocity": 112}, {"time": 161988, "pitch": 42, "duration": 92, "velocity": 98}, {"time": 162227, "pitch": 30, "duration": 85, "velocity": 102}, {"time": 162227, "pitch": 38, "duration": 225, "velocity": 127}, {"time": 162227, "pitch": 40, "duration": 225, "velocity": 80}, {"time": 162227, "pitch": 46, "duration": 105, "velocity": 92}, {"time": 162346, "pitch": 29, "duration": 89, "velocity": 104}, {"time": 162465, "pitch": 30, "duration": 117, "velocity": 104}, {"time": 162465, "pitch": 36, "duration": 122, "velocity": 106}, {"time": 162465, "pitch": 42, "duration": 89, "velocity": 100}, {"time": 162703, "pitch": 29, "duration": 97, "velocity": 116}, {"time": 162703, "pitch": 36, "duration": 254, "velocity": 106}, {"time": 162703, "pitch": 42, "duration": 81, "velocity": 94}, {"time": 162941, "pitch": 30, "duration": 77, "velocity": 104}, {"time": 162941, "pitch": 42, "duration": 91, "velocity": 100}, {"time": 163060, "pitch": 29, "duration": 100, "velocity": 106}, {"time": 163060, "pitch": 36, "duration": 104, "velocity": 100}, {"time": 163179, "pitch": 38, "duration": 244, "velocity": 127}, {"time": 163179, "pitch": 40, "duration": 244, "velocity": 82}, {"time": 163179, "pitch": 46, "duration": 112, "velocity": 90}, {"time": 163298, "pitch": 30, "duration": 80, "velocity": 110}, {"time": 163417, "pitch": 29, "duration": 107, "velocity": 100}, {"time": 163417, "pitch": 36, "duration": 151, "velocity": 108}, {"time": 163417, "pitch": 42, "duration": 89, "velocity": 98}, {"time": 163655, "pitch": 36, "duration": 206, "velocity": 114}, {"time": 163655, "pitch": 44, "duration": 87, "velocity": 102}, {"time": 163893, "pitch": 30, "duration": 96, "velocity": 102}, {"time": 163893, "pitch": 42, "duration": 82, "velocity": 100}, {"time": 164012, "pitch": 36, "duration": 71, "velocity": 110}, {"time": 164131, "pitch": 30, "duration": 89, "velocity": 112}, {"time": 164131, "pitch": 38, "duration": 156, "velocity": 127}, {"time": 164131, "pitch": 40, "duration": 156, "velocity": 86}, {"time": 164131, "pitch": 46, "duration": 83, "velocity": 92}, {"time": 164369, "pitch": 30, "duration": 102, "velocity": 104}, {"time": 164369, "pitch": 36, "duration": 104, "velocity": 96}, {"time": 164369, "pitch": 42, "duration": 81, "velocity": 102}, {"time": 164607, "pitch": 30, "duration": 92, "velocity": 108}, {"time": 164607, "pitch": 38, "duration": 112, "velocity": 127}, {"time": 164607, "pitch": 40, "duration": 112, "velocity": 84}, {"time": 164607, "pitch": 42, "duration": 118, "velocity": 98}, {"time": 164846, "pitch": 30, "duration": 85, "velocity": 104}, {"time": 164846, "pitch": 36, "duration": 88, "velocity": 104}, {"time": 164846, "pitch": 46, "duration": 215, "velocity": 88}, {"time": 165084, "pitch": 30, "duration": 83, "velocity": 108}, {"time": 165084, "pitch": 38, "duration": 204, "velocity": 127}, {"time": 165084, "pitch": 40, "duration": 204, "velocity": 84}, {"time": 165084, "pitch": 42, "duration": 104, "velocity": 98}, {"time": 165203, "pitch": 30, "duration": 88, "velocity": 102}, {"time": 165322, "pitch": 30, "duration": 104, "velocity": 108}, {"time": 165322, "pitch": 36, "duration": 96, "velocity": 114}, {"time": 165322, "pitch": 46, "duration": 143, "velocity": 94}], "annotations": [{"time": 284, "annotation": {"number": 7, "value": 127}, "group": "control_change"}, {"time": 306, "annotation": {"number": 11, "value": 127}, "group": "control_change"}, {"time": 328, "annotation": {"number": 91, "value": 40}, "group": "control_change"}, {"time": 350, "annotation": {"number": 101, "value": 127}, "group": "control_change"}, {"time": 372, "annotation": {"number": 100, "value": 127}, "group": "control_change"}, {"time": 152158, "annotation": {"number": 11, "value": 110}, "group": "control_change"}, {"time": 152279, "annotation": {"number": 11, "value": 109}, "group": "control_change"}, {"time": 152400, "annotation": {"number": 11, "value": 108}, "group": "control_change"}, {"time": 152522, "annotation": {"number": 11, "value": 107}, "group": "control_change"}, {"time": 152643, "annotation": {"number": 11, "value": 106}, "group": "control_change"}, {"time": 152762, "annotation": {"number": 11, "value": 105}, "group": "control_change"}, {"time": 152881, "annotation": {"number": 11, "value": 104}, "group": "control_change"}, {"time": 153000, "annotation": {"number": 11, "value": 103}, "group": "control_change"}, {"time": 153119, "annotation": {"number": 11, "value": 102}, "group": "control_change"}, {"time": 153240, "annotation": {"number": 11, "value": 101}, "group": "control_change"}, {"time": 153361, "annotation": {"number": 11, "value": 100}, "group": "control_change"}, {"time": 153483, "annotation": {"number": 11, "value": 99}, "group": "control_change"}, {"time": 153604, "annotation": {"number": 11, "value": 98}, "group": "control_change"}, {"time": 153723, "annotation": {"number": 11, "value": 97}, "group": "control_change"}, {"time": 153842, "annotation": {"number": 11, "value": 96}, "group": "control_change"}, {"time": 153961, "annotation": {"number": 11, "value": 95}, "group": "control_change"}, {"time": 154080, "annotation": {"number": 11, "value": 94}, "group": "control_change"}, {"time": 154199, "annotation": {"number": 11, "value": 93}, "group": "control_change"}, {"time": 154318, "annotation": {"number": 11, "value": 92}, "group": "control_change"}, {"time": 154437, "annotation": {"number": 11, "value": 91}, "group": "control_change"}, {"time": 154556, "annotation": {"number": 11, "value": 90}, "group": "control_change"}, {"time": 154677, "annotation": {"number": 11, "value": 89}, "group": "control_change"}, {"time": 154798, "annotation": {"number": 11, "value": 88}, "group": "control_change"}, {"time": 154920, "annotation": {"number": 11, "value": 87}, "group": "control_change"}, {"time": 155041, "annotation": {"number": 11, "value": 86}, "group": "control_change"}, {"time": 155160, "annotation": {"number": 11, "value": 85}, "group": "control_change"}, {"time": 155279, "annotation": {"number": 11, "value": 84}, "group": "control_change"}, {"time": 155398, "annotation": {"number": 11, "value": 83}, "group": "control_change"}, {"time": 155517, "annotation": {"number": 11, "value": 82}, "group": "control_change"}, {"time": 155638, "annotation": {"number": 11, "value": 81}, "group": "control_change"}, {"time": 155759, "annotation": {"number": 11, "value": 80}, "group": "control_change"}, {"time": 155881, "annotation": {"number": 11, "value": 79}, "group": "control_change"}, {"time": 156002, "annotation": {"number": 11, "value": 78}, "group": "control_change"}, {"time": 156121, "annotation": {"number": 11, "value": 77}, "group": "control_change"}, {"time": 156240, "annotation": {"number": 11, "value": 76}, "group": "control_change"}, {"time": 156359, "annotation": {"number": 11, "value": 75}, "group": "control_change"}, {"time": 156478, "annotation": {"number": 11, "value": 74}, "group": "control_change"}, {"time": 156599, "annotation": {"number": 11, "value": 73}, "group": "control_change"}, {"time": 156720, "annotation": {"number": 11, "value": 72}, "group": "control_change"}, {"time": 156842, "annotation": {"number": 11, "value": 71}, "group": "control_change"}, {"time": 156963, "annotation": {"number": 11, "value": 70}, "group": "control_change"}, {"time": 157082, "annotation": {"number": 11, "value": 69}, "group": "control_change"}, {"time": 157201, "annotation": {"number": 11, "value": 68}, "group": "control_change"}, {"time": 157320, "annotation": {"number": 11, "value": 67}, "group": "control_change"}, {"time": 157439, "annotation": {"number": 11, "value": 66}, "group": "control_change"}, {"time": 157560, "annotation": {"number": 11, "value": 65}, "group": "control_change"}, {"time": 157681, "annotation": {"number": 11, "value": 64}, "group": "control_change"}, {"time": 157803, "annotation": {"number": 11, "value": 63}, "group": "control_change"}, {"time": 157924, "annotation": {"number": 11, "value": 62}, "group": "control_change"}, {"time": 158043, "annotation": {"number": 11, "value": 61}, "group": "control_change"}, {"time": 158162, "annotation": {"number": 11, "value": 60}, "group": "control_change"}, {"time": 158281, "annotation": {"number": 11, "value": 59}, "group": "control_change"}, {"time": 158400, "annotation": {"number": 11, "value": 58}, "group": "control_change"}, {"time": 158519, "annotation": {"number": 11, "value": 57}, "group": "control_change"}, {"time": 158638, "annotation": {"number": 11, "value": 56}, "group": "control_change"}, {"time": 158757, "annotation": {"number": 11, "value": 55}, "group": "control_change"}, {"time": 158999, "annotation": {"number": 11, "value": 54}, "group": "control_change"}, {"time": 159120, "annotation": {"number": 11, "value": 53}, "group": "control_change"}, {"time": 159242, "annotation": {"number": 11, "value": 52}, "group": "control_change"}, {"time": 159363, "annotation": {"number": 11, "value": 51}, "group": "control_change"}, {"time": 159482, "annotation": {"number": 11, "value": 50}, "group": "control_change"}, {"time": 159601, "annotation": {"number": 11, "value": 49}, "group": "control_change"}, {"time": 159720, "annotation": {"number": 11, "value": 48}, "group": "control_change"}, {"time": 159839, "annotation": {"number": 11, "value": 47}, "group": "control_change"}, {"time": 159960, "annotation": {"number": 11, "value": 46}, "group": "control_change"}, {"time": 160081, "annotation": {"number": 11, "value": 45}, "group": "control_change"}, {"time": 160203, "annotation": {"number": 11, "value": 44}, "group": "control_change"}, {"time": 160324, "annotation": {"number": 11, "value": 43}, "group": "control_change"}, {"time": 160443, "annotation": {"number": 11, "value": 42}, "group": "control_change"}, {"time": 160562, "annotation": {"number": 11, "value": 41}, "group": "control_change"}, {"time": 160681, "annotation": {"number": 11, "value": 40}, "group": "control_change"}, {"time": 160800, "annotation": {"number": 11, "value": 39}, "group": "control_change"}, {"time": 160919, "annotation": {"number": 11, "value": 38}, "group": "control_change"}, {"time": 161038, "annotation": {"number": 11, "value": 37}, "group": "control_change"}, {"time": 161157, "annotation": {"number": 11, "value": 36}, "group": "control_change"}, {"time": 161276, "annotation": {"number": 11, "value": 35}, "group": "control_change"}, {"time": 161395, "annotation": {"number": 11, "value": 34}, "group": "control_change"}, {"time": 161514, "annotation": {"number": 11, "value": 33}, "group": "control_change"}, {"time": 161633, "annotation": {"number": 11, "value": 32}, "group": "control_change"}, {"time": 161752, "annotation": {"number": 11, "value": 31}, "group": "control_change"}, {"time": 161871, "annotation": {"number": 11, "value": 30}, "group": "control_change"}, {"time": 161990, "annotation": {"number": 11, "value": 29}, "group": "control_change"}, {"time": 162109, "annotation": {"number": 11, "value": 28}, "group": "control_change"}, {"time": 162228, "annotation": {"number": 11, "value": 27}, "group": "control_change"}, {"time": 162348, "annotation": {"number": 11, "value": 26}, "group": "control_change"}, {"time": 162467, "annotation": {"number": 11, "value": 25}, "group": "control_change"}, {"time": 162586, "annotation": {"number": 11, "value": 24}, "group": "control_change"}, {"time": 162705, "annotation": {"number": 11, "value": 23}, "group": "control_change"}, {"time": 162824, "annotation": {"number": 11, "value": 22}, "group": "control_change"}, {"time": 162943, "annotation": {"number": 11, "value": 21}, "group": "control_change"}, {"time": 163062, "annotation": {"number": 11, "value": 20}, "group": "control_change"}, {"time": 163181, "annotation": {"number": 11, "value": 19}, "group": "control_change"}, {"time": 163300, "annotation": {"number": 11, "value": 18}, "group": "control_change"}, {"time": 163419, "annotation": {"number": 11, "value": 17}, "group": "control_change"}, {"time": 163538, "annotation": {"number": 11, "value": 16}, "group": "control_change"}, {"time": 163657, "annotation": {"number": 11, "value": 15}, "group": "control_change"}, {"time": 163776, "annotation": {"number": 11, "value": 14}, "group": "control_change"}, {"time": 163895, "annotation": {"number": 11, "value": 13}, "group": "control_change"}, {"time": 164014, "annotation": {"number": 11, "value": 12}, "group": "control_change"}, {"time": 164133, "annotation": {"number": 11, "value": 11}, "group": "control_change"}, {"time": 164252, "annotation": {"number": 11, "value": 10}, "group": "control_change"}, {"time": 164371, "annotation": {"number": 11, "value": 9}, "group": "control_change"}, {"time": 164490, "annotation": {"number": 11, "value": 8}, "group": "control_change"}, {"time": 164609, "annotation": {"number": 11, "value": 7}, "group": "control_change"}, {"time": 164728, "annotation": {"number": 11, "value": 6}, "group": "control_change"}, {"time": 164848, "annotation": {"number": 11, "value": 5}, "group": "control_change"}, {"time": 164967, "annotation": {"number": 11, "value": 4}, "group": "control_change"}, {"time": 165086, "annotation": {"number": 11, "value": 3}, "group": "control_change"}, {"time": 165205, "annotation": {"number": 11, "value": 2}, "group": "control_change"}, {"time": 165324, "annotation": {"number": 11, "value": 1}, "group": "control_change"}, {"time": 165443, "annotation": {"number": 11, "value": 0}, "group": "control_change"}, {"time": 165560, "annotation": {"number": 11, "value": 0}, "group": "control_change"}]}, {"program": 0, "is_drum": false, "name": "BASS SUB", "annotations": [{"time": 219, "annotation": {"number": 0, "value": 0}, "group": "control_change"}, {"time": 241, "annotation": {"number": 32, "value": 2}, "group": "control_change"}]}, {"program": 39, "is_drum": false, "name": "BASS SUB", "notes": [{"time": 58079, "pitch": 34, "duration": 961, "velocity": 120}, {"time": 59040, "pitch": 33, "duration": 238, "velocity": 120}, {"time": 59278, "pitch": 29, "duration": 238, "velocity": 120}, {"time": 59516, "pitch": 31, "duration": 242, "velocity": 120}, {"time": 59758, "pitch": 24, "duration": 1442, "velocity": 120}, {"time": 61200, "pitch": 24, "duration": 238, "velocity": 120}, {"time": 61438, "pitch": 29, "duration": 242, "velocity": 120}, {"time": 61680, "pitch": 31, "duration": 243, "velocity": 120}, {"time": 61923, "pitch": 34, "duration": 961, "velocity": 120}, {"time": 62884, "pitch": 33, "duration": 238, "velocity": 120}, {"time": 63122, "pitch": 29, "duration": 238, "velocity": 120}, {"time": 63360, "pitch": 31, "duration": 238, "velocity": 120}, {"time": 63598, "pitch": 36, "duration": 2160, "velocity": 120}, {"time": 65758, "pitch": 34, "duration": 961, "velocity": 120}, {"time": 66719, "pitch": 33, "duration": 242, "velocity": 120}, {"time": 66961, "pitch": 29, "duration": 243, "velocity": 120}, {"time": 67204, "pitch": 31, "duration": 238, "velocity": 120}, {"time": 67442, "pitch": 24, "duration": 1437, "velocity": 120}, {"time": 68879, "pitch": 24, "duration": 238, "velocity": 120}, {"time": 69117, "pitch": 29, "duration": 242, "velocity": 120}, {"time": 69359, "pitch": 31, "duration": 243, "velocity": 120}, {"time": 69602, "pitch": 34, "duration": 961, "velocity": 120}, {"time": 70563, "pitch": 33, "duration": 238, "velocity": 120}, {"time": 70801, "pitch": 29, "duration": 238, "velocity": 120}, {"time": 71039, "pitch": 31, "duration": 242, "velocity": 120}, {"time": 71281, "pitch": 36, "duration": 2156, "velocity": 120}, {"time": 88804, "pitch": 34, "duration": 952, "velocity": 120}, {"time": 89756, "pitch": 33, "duration": 242, "velocity": 120}, {"time": 89998, "pitch": 29, "duration": 243, "velocity": 120}, {"time": 90241, "pitch": 31, "duration": 238, "velocity": 120}, {"time": 90479, "pitch": 24, "duration": 1441, "velocity": 120}, {"time": 91920, "pitch": 24, "duration": 243, "velocity": 120}, {"time": 92163, "pitch": 29, "duration": 238, "velocity": 120}, {"time": 92401, "pitch": 31, "duration": 238, "velocity": 120}, {"time": 92639, "pitch": 34, "duration": 961, "velocity": 120}, {"time": 93600, "pitch": 33, "duration": 238, "velocity": 120}, {"time": 93838, "pitch": 29, "duration": 238, "velocity": 120}, {"time": 94076, "pitch": 31, "duration": 242, "velocity": 120}, {"time": 94318, "pitch": 36, "duration": 2165, "velocity": 120}, {"time": 96483, "pitch": 34, "duration": 961, "velocity": 120}, {"time": 97444, "pitch": 33, "duration": 238, "velocity": 120}, {"time": 97682, "pitch": 29, "duration": 238, "velocity": 120}, {"time": 97920, "pitch": 31, "duration": 238, "velocity": 120}, {"time": 98158, "pitch": 24, "duration": 1441, "velocity": 120}, {"time": 99599, "pitch": 24, "duration": 243, "velocity": 120}, {"time": 99842, "pitch": 29, "duration": 238, "velocity": 120}, {"time": 100080, "pitch": 31, "duration": 238, "velocity": 120}, {"time": 100318, "pitch": 34, "duration": 961, "velocity": 120}, {"time": 101279, "pitch": 33, "duration": 242, "velocity": 120}, {"time": 101521, "pitch": 29, "duration": 243, "velocity": 120}, {"time": 101764, "pitch": 31, "duration": 238, "velocity": 120}, {"time": 102002, "pitch": 36, "duration": 2160, "velocity": 120}, {"time": 119520, "pitch": 34, "duration": 961, "velocity": 120}, {"time": 120481, "pitch": 33, "duration": 238, "velocity": 120}, {"time": 120719, "pitch": 29, "duration": 238, "velocity": 120}, {"time": 120957, "pitch": 31, "duration": 242, "velocity": 120}, {"time": 121199, "pitch": 24, "duration": 1442, "velocity": 120}, {"time": 122641, "pitch": 24, "duration": 238, "velocity": 120}, {"time": 122879, "pitch": 29, "duration": 242, "velocity": 120}, {"time": 123121, "pitch": 31, "duration": 243, "velocity": 120}, {"time": 123364, "pitch": 34, "duration": 952, "velocity": 120}, {"time": 124316, "pitch": 33, "duration": 242, "velocity": 120}, {"time": 124558, "pitch": 29, "duration": 243, "velocity": 120}, {"time": 124801, "pitch": 31, "duration": 238, "velocity": 120}, {"time": 125039, "pitch": 36, "duration": 2160, "velocity": 120}, {"time": 127199, "pitch": 34, "duration": 961, "velocity": 120}, {"time": 128160, "pitch": 33, "duration": 238, "velocity": 120}, {"time": 128398, "pitch": 29, "duration": 238, "velocity": 120}, {"time": 128636, "pitch": 31, "duration": 242, "velocity": 120}, {"time": 128878, "pitch": 24, "duration": 1442, "velocity": 120}, {"time": 130320, "pitch": 24, "duration": 238, "velocity": 120}, {"time": 130558, "pitch": 29, "duration": 242, "velocity": 120}, {"time": 130800, "pitch": 31, "duration": 243, "velocity": 120}, {"time": 131043, "pitch": 34, "duration": 961, "velocity": 120}, {"time": 132004, "pitch": 33, "duration": 238, "velocity": 120}, {"time": 132242, "pitch": 29, "duration": 238, "velocity": 120}, {"time": 132480, "pitch": 31, "duration": 238, "velocity": 120}, {"time": 132718, "pitch": 36, "duration": 2160, "velocity": 120}, {"time": 134878, "pitch": 34, "duration": 961, "velocity": 120}, {"time": 135839, "pitch": 33, "duration": 242, "velocity": 120}, {"time": 136081, "pitch": 29, "duration": 243, "velocity": 120}, {"time": 136324, "pitch": 31, "duration": 238, "velocity": 120}, {"time": 136562, "pitch": 24, "duration": 1437, "velocity": 120}, {"time": 137999, "pitch": 24, "duration": 238, "velocity": 120}, {"time": 138237, "pitch": 29, "duration": 242, "velocity": 120}, {"time": 138479, "pitch": 31, "duration": 243, "velocity": 120}, {"time": 138722, "pitch": 34, "duration": 961, "velocity": 120}, {"time": 139683, "pitch": 33, "duration": 238, "velocity": 120}, {"time": 139921, "pitch": 29, "duration": 238, "velocity": 120}, {"time": 140159, "pitch": 31, "duration": 242, "velocity": 120}, {"time": 140401, "pitch": 36, "duration": 2156, "velocity": 120}, {"time": 142557, "pitch": 34, "duration": 961, "velocity": 120}, {"time": 143518, "pitch": 33, "duration": 242, "velocity": 120}, {"time": 143760, "pitch": 29, "duration": 243, "velocity": 120}, {"time": 144003, "pitch": 31, "duration": 238, "velocity": 120}, {"time": 144241, "pitch": 24, "duration": 1437, "velocity": 120}, {"time": 145678, "pitch": 24, "duration": 238, "velocity": 120}, {"time": 145916, "pitch": 29, "duration": 242, "velocity": 120}, {"time": 146158, "pitch": 31, "duration": 243, "velocity": 120}, {"time": 146401, "pitch": 34, "duration": 961, "velocity": 120}, {"time": 147362, "pitch": 33, "duration": 238, "velocity": 120}, {"time": 147600, "pitch": 29, "duration": 238, "velocity": 120}, {"time": 147838, "pitch": 31, "duration": 242, "velocity": 120}, {"time": 148080, "pitch": 36, "duration": 2156, "velocity": 120}, {"time": 150236, "pitch": 34, "duration": 961, "velocity": 120}, {"time": 151197, "pitch": 33, "duration": 242, "velocity": 120}, {"time": 151439, "pitch": 29, "duration": 243, "velocity": 120}, {"time": 151682, "pitch": 31, "duration": 238, "velocity": 120}, {"time": 151920, "pitch": 24, "duration": 1441, "velocity": 120}, {"time": 153361, "pitch": 24, "duration": 243, "velocity": 120}, {"time": 153604, "pitch": 29, "duration": 238, "velocity": 120}, {"time": 153842, "pitch": 31, "duration": 238, "velocity": 120}, {"time": 154080, "pitch": 34, "duration": 961, "velocity": 120}, {"time": 155041, "pitch": 33, "duration": 238, "velocity": 120}, {"time": 155279, "pitch": 29, "duration": 238, "velocity": 120}, {"time": 155517, "pitch": 31, "duration": 242, "velocity": 120}, {"time": 155759, "pitch": 36, "duration": 2165, "velocity": 120}, {"time": 157924, "pitch": 34, "duration": 952, "velocity": 120}, {"time": 158876, "pitch": 33, "duration": 242, "velocity": 120}, {"time": 159118, "pitch": 29, "duration": 243, "velocity": 120}, {"time": 159361, "pitch": 31, "duration": 238, "velocity": 120}, {"time": 159599, "pitch": 24, "duration": 1437, "velocity": 120}, {"time": 161036, "pitch": 24, "duration": 238, "velocity": 120}, {"time": 161274, "pitch": 29, "duration": 238, "velocity": 120}, {"time": 161512, "pitch": 31, "duration": 238, "velocity": 120}, {"time": 161750, "pitch": 34, "duration": 953, "velocity": 120}, {"time": 162703, "pitch": 33, "duration": 238, "velocity": 120}, {"time": 162941, "pitch": 29, "duration": 238, "velocity": 120}, {"time": 163179, "pitch": 31, "duration": 238, "velocity": 120}, {"time": 163417, "pitch": 36, "duration": 2101, "velocity": 120}], "annotations": [{"time": 284, "annotation": {"number": 7, "value": 100}, "group": "control_change"}, {"time": 306, "annotation": {"number": 11, "value": 110}, "group": "control_change"}, {"time": 328, "annotation": {"number": 10, "value": 64}, "group": "control_change"}, {"time": 350, "annotation": {"number": 91, "value": 0}, "group": "control_change"}, {"time": 372, "annotation": {"number": 93, "value": 0}, "group": "control_change"}, {"time": 394, "annotation": {"number": 101, "value": 0}, "group": "control_change"}, {"time": 415, "annotation": {"number": 100, "value": 0}, "group": "control_change"}, {"time": 437, "annotation": {"number": 6, "value": 12}, "group": "control_change"}, {"time": 459, "annotation": {"number": 101, "value": 127}, "group": "control_change"}, {"time": 482, "annotation": {"number": 100, "value": 127}, "group": "control_change"}, {"time": 152158, "annotation": {"number": 11, "value": 110}, "group": "control_change"}, {"time": 152279, "annotation": {"number": 11, "value": 109}, "group": "control_change"}, {"time": 152400, "annotation": {"number": 11, "value": 108}, "group": "control_change"}, {"time": 152522, "annotation": {"number": 11, "value": 107}, "group": "control_change"}, {"time": 152643, "annotation": {"number": 11, "value": 106}, "group": "control_change"}, {"time": 152762, "annotation": {"number": 11, "value": 105}, "group": "control_change"}, {"time": 152881, "annotation": {"number": 11, "value": 104}, "group": "control_change"}, {"time": 153000, "annotation": {"number": 11, "value": 103}, "group": "control_change"}, {"time": 153119, "annotation": {"number": 11, "value": 102}, "group": "control_change"}, {"time": 153240, "annotation": {"number": 11, "value": 101}, "group": "control_change"}, {"time": 153361, "annotation": {"number": 11, "value": 100}, "group": "control_change"}, {"time": 153483, "annotation": {"number": 11, "value": 99}, "group": "control_change"}, {"time": 153604, "annotation": {"number": 11, "value": 98}, "group": "control_change"}, {"time": 153723, "annotation": {"number": 11, "value": 97}, "group": "control_change"}, {"time": 153842, "annotation": {"number": 11, "value": 96}, "group": "control_change"}, {"time": 153961, "annotation": {"number": 11, "value": 95}, "group": "control_change"}, {"time": 154080, "annotation": {"number": 11, "value": 94}, "group": "control_change"}, {"time": 154199, "annotation": {"number": 11, "value": 93}, "group": "control_change"}, {"time": 154318, "annotation": {"number": 11, "value": 92}, "group": "control_change"}, {"time": 154437, "annotation": {"number": 11, "value": 91}, "group": "control_change"}, {"time": 154556, "annotation": {"number": 11, "value": 90}, "group": "control_change"}, {"time": 154677, "annotation": {"number": 11, "value": 89}, "group": "control_change"}, {"time": 154798, "annotation": {"number": 11, "value": 88}, "group": "control_change"}, {"time": 154920, "annotation": {"number": 11, "value": 87}, "group": "control_change"}, {"time": 155041, "annotation": {"number": 11, "value": 86}, "group": "control_change"}, {"time": 155160, "annotation": {"number": 11, "value": 85}, "group": "control_change"}, {"time": 155279, "annotation": {"number": 11, "value": 84}, "group": "control_change"}, {"time": 155398, "annotation": {"number": 11, "value": 83}, "group": "control_change"}, {"time": 155517, "annotation": {"number": 11, "value": 82}, "group": "control_change"}, {"time": 155638, "annotation": {"number": 11, "value": 81}, "group": "control_change"}, {"time": 155759, "annotation": {"number": 11, "value": 80}, "group": "control_change"}, {"time": 155881, "annotation": {"number": 11, "value": 79}, "group": "control_change"}, {"time": 156002, "annotation": {"number": 11, "value": 78}, "group": "control_change"}, {"time": 156121, "annotation": {"number": 11, "value": 77}, "group": "control_change"}, {"time": 156240, "annotation": {"number": 11, "value": 76}, "group": "control_change"}, {"time": 156359, "annotation": {"number": 11, "value": 75}, "group": "control_change"}, {"time": 156478, "annotation": {"number": 11, "value": 74}, "group": "control_change"}, {"time": 156599, "annotation": {"number": 11, "value": 73}, "group": "control_change"}, {"time": 156720, "annotation": {"number": 11, "value": 72}, "group": "control_change"}, {"time": 156842, "annotation": {"number": 11, "value": 71}, "group": "control_change"}, {"time": 156963, "annotation": {"number": 11, "value": 70}, "group": "control_change"}, {"time": 157082, "annotation": {"number": 11, "value": 69}, "group": "control_change"}, {"time": 157201, "annotation": {"number": 11, "value": 68}, "group": "control_change"}, {"time": 157320, "annotation": {"number": 11, "value": 67}, "group": "control_change"}, {"time": 157439, "annotation": {"number": 11, "value": 66}, "group": "control_change"}, {"time": 157560, "annotation": {"number": 11, "value": 65}, "group": "control_change"}, {"time": 157681, "annotation": {"number": 11, "value": 64}, "group": "control_change"}, {"time": 157803, "annotation": {"number": 11, "value": 63}, "group": "control_change"}, {"time": 157924, "annotation": {"number": 11, "value": 62}, "group": "control_change"}, {"time": 158043, "annotation": {"number": 11, "value": 61}, "group": "control_change"}, {"time": 158162, "annotation": {"number": 11, "value": 60}, "group": "control_change"}, {"time": 158281, "annotation": {"number": 11, "value": 59}, "group": "control_change"}, {"time": 158400, "annotation": {"number": 11, "value": 58}, "group": "control_change"}, {"time": 158519, "annotation": {"number": 11, "value": 57}, "group": "control_change"}, {"time": 158638, "annotation": {"number": 11, "value": 56}, "group": "control_change"}, {"time": 158757, "annotation": {"number": 11, "value": 55}, "group": "control_change"}, {"time": 158999, "annotation": {"number": 11, "value": 54}, "group": "control_change"}, {"time": 159120, "annotation": {"number": 11, "value": 53}, "group": "control_change"}, {"time": 159242, "annotation": {"number": 11, "value": 52}, "group": "control_change"}, {"time": 159363, "annotation": {"number": 11, "value": 51}, "group": "control_change"}, {"time": 159482, "annotation": {"number": 11, "value": 50}, "group": "control_change"}, {"time": 159601, "annotation": {"number": 11, "value": 49}, "group": "control_change"}, {"time": 159720, "annotation": {"number": 11, "value": 48}, "group": "control_change"}, {"time": 159839, "annotation": {"number": 11, "value": 47}, "group": "control_change"}, {"time": 159960, "annotation": {"number": 11, "value": 46}, "group": "control_change"}, {"time": 160081, "annotation": {"number": 11, "value": 45}, "group": "control_change"}, {"time": 160203, "annotation": {"number": 11, "value": 44}, "group": "control_change"}, {"time": 160324, "annotation": {"number": 11, "value": 43}, "group": "control_change"}, {"time": 160443, "annotation": {"number": 11, "value": 42}, "group": "control_change"}, {"time": 160562, "annotation": {"number": 11, "value": 41}, "group": "control_change"}, {"time": 160681, "annotation": {"number": 11, "value": 40}, "group": "control_change"}, {"time": 160800, "annotation": {"number": 11, "value": 39}, "group": "control_change"}, {"time": 160919, "annotation": {"number": 11, "value": 38}, "group": "control_change"}, {"time": 161038, "annotation": {"number": 11, "value": 37}, "group": "control_change"}, {"time": 161157, "annotation": {"number": 11, "value": 36}, "group": "control_change"}, {"time": 161276, "annotation": {"number": 11, "value": 35}, "group": "control_change"}, {"time": 161395, "annotation": {"number": 11, "value": 34}, "group": "control_change"}, {"time": 161514, "annotation": {"number": 11, "value": 33}, "group": "control_change"}, {"time": 161633, "annotation": {"number": 11, "value": 32}, "group": "control_change"}, {"time": 161752, "annotation": {"number": 11, "value": 31}, "group": "control_change"}, {"time": 161871, "annotation": {"number": 11, "value": 30}, "group": "control_change"}, {"time": 161990, "annotation": {"number": 11, "value": 29}, "group": "control_change"}, {"time": 162109, "annotation": {"number": 11, "value": 28}, "group": "control_change"}, {"time": 162228, "annotation": {"number": 11, "value": 27}, "group": "control_change"}, {"time": 162348, "annotation": {"number": 11, "value": 26}, "group": "control_change"}, {"time": 162467, "annotation": {"number": 11, "value": 25}, "group": "control_change"}, {"time": 162586, "annotation": {"number": 11, "value": 24}, "group": "control_change"}, {"time": 162705, "annotation": {"number": 11, "value": 23}, "group": "control_change"}, {"time": 162824, "annotation": {"number": 11, "value": 22}, "group": "control_change"}, {"time": 162943, "annotation": {"number": 11, "value": 21}, "group": "control_change"}, {"time": 163062, "annotation": {"number": 11, "value": 20}, "group": "control_change"}, {"time": 163181, "annotation": {"number": 11, "value": 19}, "group": "control_change"}, {"time": 163300, "annotation": {"number": 11, "value": 18}, "group": "control_change"}, {"time": 163419, "annotation": {"number": 11, "value": 17}, "group": "control_change"}, {"time": 163538, "annotation": {"number": 11, "value": 16}, "group": "control_change"}, {"time": 163657, "annotation": {"number": 11, "value": 15}, "group": "control_change"}, {"time": 163776, "annotation": {"number": 11, "value": 14}, "group": "control_change"}, {"time": 163895, "annotation": {"number": 11, "value": 13}, "group": "control_change"}, {"time": 164014, "annotation": {"number": 11, "value": 12}, "group": "control_change"}, {"time": 164133, "annotation": {"number": 11, "value": 11}, "group": "control_change"}, {"time": 164252, "annotation": {"number": 11, "value": 10}, "group": "control_change"}, {"time": 164371, "annotation": {"number": 11, "value": 9}, "group": "control_change"}, {"time": 164490, "annotation": {"number": 11, "value": 8}, "group": "control_change"}, {"time": 164609, "annotation": {"number": 11, "value": 7}, "group": "control_change"}, {"time": 164728, "annotation": {"number": 11, "value": 6}, "group": "control_change"}, {"time": 164848, "annotation": {"number": 11, "value": 5}, "group": "control_change"}, {"time": 164967, "annotation": {"number": 11, "value": 4}, "group": "control_change"}, {"time": 165086, "annotation": {"number": 11, "value": 3}, "group": "control_change"}, {"time": 165205, "annotation": {"number": 11, "value": 2}, "group": "control_change"}, {"time": 165324, "annotation": {"number": 11, "value": 1}, "group": "control_change"}, {"time": 165443, "annotation": {"number": 11, "value": 0}, "group": "control_change"}, {"time": 165560, "annotation": {"number": 11, "value": 0}, "group": "control_change"}]}, {"program": 0, "is_drum": false, "name": "SYNTH SUB", "annotations": [{"time": 219, "annotation": {"number": 0, "value": 1}, "group": "control_change"}, {"time": 241, "annotation": {"number": 32, "value": 2}, "group": "control_change"}]}, {"program": 81, "is_drum": false, "name": "SYNTH SUB", "notes": [{"time": 104400, "pitch": 58, "duration": 119, "velocity": 120}, {"time": 104400, "pitch": 70, "duration": 119, "velocity": 120}, {"time": 104519, "pitch": 60, "duration": 119, "velocity": 120}, {"time": 104519, "pitch": 72, "duration": 119, "velocity": 120}, {"time": 104638, "pitch": 70, "duration": 121, "velocity": 120}, {"time": 104638, "pitch": 82, "duration": 121, "velocity": 120}, {"time": 104759, "pitch": 72, "duration": 121, "velocity": 120}, {"time": 104759, "pitch": 84, "duration": 121, "velocity": 120}, {"time": 104880, "pitch": 77, "duration": 122, "velocity": 120}, {"time": 104880, "pitch": 89, "duration": 122, "velocity": 120}, {"time": 105002, "pitch": 72, "duration": 121, "velocity": 120}, {"time": 105002, "pitch": 84, "duration": 121, "velocity": 120}, {"time": 105123, "pitch": 70, "duration": 119, "velocity": 120}, {"time": 105123, "pitch": 82, "duration": 119, "velocity": 120}, {"time": 105242, "pitch": 65, "duration": 119, "velocity": 120}, {"time": 105242, "pitch": 77, "duration": 119, "velocity": 120}, {"time": 105361, "pitch": 60, "duration": 119, "velocity": 120}, {"time": 105361, "pitch": 72, "duration": 119, "velocity": 120}, {"time": 105480, "pitch": 65, "duration": 119, "velocity": 120}, {"time": 105480, "pitch": 77, "duration": 119, "velocity": 120}, {"time": 105599, "pitch": 60, "duration": 121, "velocity": 120}, {"time": 105599, "pitch": 72, "duration": 121, "velocity": 120}, {"time": 105720, "pitch": 70, "duration": 121, "velocity": 120}, {"time": 105720, "pitch": 82, "duration": 121, "velocity": 120}, {"time": 105841, "pitch": 72, "duration": 122, "velocity": 120}, {"time": 105841, "pitch": 84, "duration": 122, "velocity": 120}, {"time": 105963, "pitch": 70, "duration": 121, "velocity": 120}, {"time": 105963, "pitch": 82, "duration": 121, "velocity": 120}, {"time": 106322, "pitch": 58, "duration": 119, "velocity": 120}, {"time": 106322, "pitch": 70, "duration": 119, "velocity": 120}, {"time": 106441, "pitch": 60, "duration": 119, "velocity": 120}, {"time": 106441, "pitch": 72, "duration": 119, "velocity": 120}, {"time": 106560, "pitch": 70, "duration": 119, "velocity": 120}, {"time": 106560, "pitch": 82, "duration": 119, "velocity": 120}, {"time": 106679, "pitch": 72, "duration": 119, "velocity": 120}, {"time": 106679, "pitch": 84, "duration": 119, "velocity": 120}, {"time": 106798, "pitch": 77, "duration": 119, "velocity": 120}, {"time": 106798, "pitch": 89, "duration": 119, "velocity": 120}, {"time": 106917, "pitch": 72, "duration": 119, "velocity": 120}, {"time": 106917, "pitch": 84, "duration": 119, "velocity": 120}, {"time": 107036, "pitch": 70, "duration": 121, "velocity": 120}, {"time": 107036, "pitch": 82, "duration": 121, "velocity": 120}, {"time": 107157, "pitch": 65, "duration": 121, "velocity": 120}, {"time": 107157, "pitch": 77, "duration": 121, "velocity": 120}, {"time": 107278, "pitch": 60, "duration": 122, "velocity": 120}, {"time": 107278, "pitch": 72, "duration": 122, "velocity": 120}, {"time": 107400, "pitch": 65, "duration": 121, "velocity": 120}, {"time": 107400, "pitch": 77, "duration": 121, "velocity": 120}, {"time": 107521, "pitch": 60, "duration": 119, "velocity": 120}, {"time": 107521, "pitch": 72, "duration": 119, "velocity": 120}, {"time": 107640, "pitch": 70, "duration": 119, "velocity": 120}, {"time": 107640, "pitch": 82, "duration": 119, "velocity": 120}, {"time": 107759, "pitch": 72, "duration": 119, "velocity": 120}, {"time": 107759, "pitch": 84, "duration": 119, "velocity": 120}, {"time": 107878, "pitch": 70, "duration": 119, "velocity": 120}, {"time": 107878, "pitch": 82, "duration": 119, "velocity": 120}, {"time": 108239, "pitch": 58, "duration": 122, "velocity": 120}, {"time": 108239, "pitch": 70, "duration": 122, "velocity": 120}, {"time": 108361, "pitch": 60, "duration": 121, "velocity": 120}, {"time": 108361, "pitch": 72, "duration": 121, "velocity": 120}, {"time": 108482, "pitch": 70, "duration": 119, "velocity": 120}, {"time": 108482, "pitch": 82, "duration": 119, "velocity": 120}, {"time": 108601, "pitch": 72, "duration": 119, "velocity": 120}, {"time": 108601, "pitch": 84, "duration": 119, "velocity": 120}, {"time": 108720, "pitch": 77, "duration": 119, "velocity": 120}, {"time": 108720, "pitch": 89, "duration": 119, "velocity": 120}, {"time": 108839, "pitch": 72, "duration": 119, "velocity": 120}, {"time": 108839, "pitch": 84, "duration": 119, "velocity": 120}, {"time": 108958, "pitch": 70, "duration": 121, "velocity": 120}, {"time": 108958, "pitch": 82, "duration": 121, "velocity": 120}, {"time": 109079, "pitch": 65, "duration": 121, "velocity": 120}, {"time": 109079, "pitch": 77, "duration": 121, "velocity": 120}, {"time": 109200, "pitch": 60, "duration": 122, "velocity": 120}, {"time": 109200, "pitch": 72, "duration": 122, "velocity": 120}, {"time": 109322, "pitch": 65, "duration": 121, "velocity": 120}, {"time": 109322, "pitch": 77, "duration": 121, "velocity": 120}, {"time": 109443, "pitch": 60, "duration": 119, "velocity": 120}, {"time": 109443, "pitch": 72, "duration": 119, "velocity": 120}, {"time": 109562, "pitch": 70, "duration": 119, "velocity": 120}, {"time": 109562, "pitch": 82, "duration": 119, "velocity": 120}, {"time": 109681, "pitch": 72, "duration": 119, "velocity": 120}, {"time": 109681, "pitch": 84, "duration": 119, "velocity": 120}, {"time": 109800, "pitch": 70, "duration": 119, "velocity": 120}, {"time": 109800, "pitch": 82, "duration": 119, "velocity": 120}, {"time": 110161, "pitch": 58, "duration": 122, "velocity": 120}, {"time": 110161, "pitch": 70, "duration": 122, "velocity": 120}, {"time": 110283, "pitch": 60, "duration": 121, "velocity": 120}, {"time": 110283, "pitch": 72, "duration": 121, "velocity": 120}, {"time": 110404, "pitch": 70, "duration": 119, "velocity": 120}, {"time": 110404, "pitch": 82, "duration": 119, "velocity": 120}, {"time": 110523, "pitch": 72, "duration": 119, "velocity": 120}, {"time": 110523, "pitch": 84, "duration": 119, "velocity": 120}, {"time": 110642, "pitch": 77, "duration": 119, "velocity": 120}, {"time": 110642, "pitch": 89, "duration": 119, "velocity": 120}, {"time": 110761, "pitch": 72, "duration": 119, "velocity": 120}, {"time": 110761, "pitch": 84, "duration": 119, "velocity": 120}, {"time": 110880, "pitch": 70, "duration": 119, "velocity": 120}, {"time": 110880, "pitch": 82, "duration": 119, "velocity": 120}, {"time": 110999, "pitch": 65, "duration": 119, "velocity": 120}, {"time": 110999, "pitch": 77, "duration": 119, "velocity": 120}, {"time": 111118, "pitch": 60, "duration": 119, "velocity": 120}, {"time": 111118, "pitch": 72, "duration": 119, "velocity": 120}, {"time": 111237, "pitch": 65, "duration": 119, "velocity": 120}, {"time": 111237, "pitch": 77, "duration": 119, "velocity": 120}, {"time": 111356, "pitch": 60, "duration": 121, "velocity": 120}, {"time": 111356, "pitch": 72, "duration": 121, "velocity": 120}, {"time": 111477, "pitch": 70, "duration": 121, "velocity": 120}, {"time": 111477, "pitch": 82, "duration": 121, "velocity": 120}, {"time": 111598, "pitch": 72, "duration": 122, "velocity": 120}, {"time": 111598, "pitch": 84, "duration": 122, "velocity": 120}, {"time": 111720, "pitch": 70, "duration": 121, "velocity": 120}, {"time": 111720, "pitch": 82, "duration": 121, "velocity": 120}, {"time": 112079, "pitch": 58, "duration": 119, "velocity": 120}, {"time": 112079, "pitch": 70, "duration": 119, "velocity": 120}, {"time": 112198, "pitch": 60, "duration": 119, "velocity": 120}, {"time": 112198, "pitch": 72, "duration": 119, "velocity": 120}, {"time": 112317, "pitch": 70, "duration": 121, "velocity": 120}, {"time": 112317, "pitch": 82, "duration": 121, "velocity": 120}, {"time": 112438, "pitch": 72, "duration": 121, "velocity": 120}, {"time": 112438, "pitch": 84, "duration": 121, "velocity": 120}, {"time": 112559, "pitch": 77, "duration": 122, "velocity": 120}, {"time": 112559, "pitch": 89, "duration": 122, "velocity": 120}, {"time": 112681, "pitch": 72, "duration": 121, "velocity": 120}, {"time": 112681, "pitch": 84, "duration": 121, "velocity": 120}, {"time": 112802, "pitch": 70, "duration": 119, "velocity": 120}, {"time": 112802, "pitch": 82, "duration": 119, "velocity": 120}, {"time": 112921, "pitch": 65, "duration": 119, "velocity": 120}, {"time": 112921, "pitch": 77, "duration": 119, "velocity": 120}, {"time": 113040, "pitch": 60, "duration": 119, "velocity": 120}, {"time": 113040, "pitch": 72, "duration": 119, "velocity": 120}, {"time": 113159, "pitch": 65, "duration": 119, "velocity": 120}, {"time": 113159, "pitch": 77, "duration": 119, "velocity": 120}, {"time": 113278, "pitch": 60, "duration": 121, "velocity": 120}, {"time": 113278, "pitch": 72, "duration": 121, "velocity": 120}, {"time": 113399, "pitch": 70, "duration": 121, "velocity": 120}, {"time": 113399, "pitch": 82, "duration": 121, "velocity": 120}, {"time": 113520, "pitch": 72, "duration": 122, "velocity": 120}, {"time": 113520, "pitch": 84, "duration": 122, "velocity": 120}, {"time": 113642, "pitch": 70, "duration": 121, "velocity": 120}, {"time": 113642, "pitch": 82, "duration": 121, "velocity": 120}, {"time": 114001, "pitch": 58, "duration": 119, "velocity": 120}, {"time": 114001, "pitch": 70, "duration": 119, "velocity": 120}, {"time": 114120, "pitch": 60, "duration": 119, "velocity": 120}, {"time": 114120, "pitch": 72, "duration": 119, "velocity": 120}, {"time": 114239, "pitch": 70, "duration": 121, "velocity": 120}, {"time": 114239, "pitch": 82, "duration": 121, "velocity": 120}, {"time": 114360, "pitch": 72, "duration": 121, "velocity": 120}, {"time": 114360, "pitch": 84, "duration": 121, "velocity": 120}, {"time": 114481, "pitch": 77, "duration": 122, "velocity": 120}, {"time": 114481, "pitch": 89, "duration": 122, "velocity": 120}, {"time": 114603, "pitch": 72, "duration": 121, "velocity": 120}, {"time": 114603, "pitch": 84, "duration": 121, "velocity": 120}, {"time": 114724, "pitch": 70, "duration": 119, "velocity": 120}, {"time": 114724, "pitch": 82, "duration": 119, "velocity": 120}, {"time": 114843, "pitch": 65, "duration": 119, "velocity": 120}, {"time": 114843, "pitch": 77, "duration": 119, "velocity": 120}, {"time": 114962, "pitch": 60, "duration": 119, "velocity": 120}, {"time": 114962, "pitch": 72, "duration": 119, "velocity": 120}, {"time": 115081, "pitch": 65, "duration": 119, "velocity": 120}, {"time": 115081, "pitch": 77, "duration": 119, "velocity": 120}, {"time": 115200, "pitch": 60, "duration": 119, "velocity": 120}, {"time": 115200, "pitch": 72, "duration": 119, "velocity": 120}, {"time": 115319, "pitch": 70, "duration": 119, "velocity": 120}, {"time": 115319, "pitch": 82, "duration": 119, "velocity": 120}, {"time": 115438, "pitch": 72, "duration": 119, "velocity": 120}, {"time": 115438, "pitch": 84, "duration": 119, "velocity": 120}, {"time": 115557, "pitch": 70, "duration": 119, "velocity": 120}, {"time": 115557, "pitch": 82, "duration": 119, "velocity": 120}, {"time": 115918, "pitch": 58, "duration": 122, "velocity": 120}, {"time": 115918, "pitch": 70, "duration": 122, "velocity": 120}, {"time": 116040, "pitch": 60, "duration": 121, "velocity": 120}, {"time": 116040, "pitch": 72, "duration": 121, "velocity": 120}, {"time": 116161, "pitch": 70, "duration": 119, "velocity": 120}, {"time": 116161, "pitch": 82, "duration": 119, "velocity": 120}, {"time": 116280, "pitch": 72, "duration": 119, "velocity": 120}, {"time": 116280, "pitch": 84, "duration": 119, "velocity": 120}, {"time": 116399, "pitch": 77, "duration": 119, "velocity": 120}, {"time": 116399, "pitch": 89, "duration": 119, "velocity": 120}, {"time": 116518, "pitch": 72, "duration": 119, "velocity": 120}, {"time": 116518, "pitch": 84, "duration": 119, "velocity": 120}, {"time": 116637, "pitch": 70, "duration": 121, "velocity": 120}, {"time": 116637, "pitch": 82, "duration": 121, "velocity": 120}, {"time": 116758, "pitch": 65, "duration": 121, "velocity": 120}, {"time": 116758, "pitch": 77, "duration": 121, "velocity": 120}, {"time": 116879, "pitch": 60, "duration": 122, "velocity": 120}, {"time": 116879, "pitch": 72, "duration": 122, "velocity": 120}, {"time": 117001, "pitch": 65, "duration": 121, "velocity": 120}, {"time": 117001, "pitch": 77, "duration": 121, "velocity": 120}, {"time": 117122, "pitch": 60, "duration": 119, "velocity": 120}, {"time": 117122, "pitch": 72, "duration": 119, "velocity": 120}, {"time": 117241, "pitch": 70, "duration": 119, "velocity": 120}, {"time": 117241, "pitch": 82, "duration": 119, "velocity": 120}, {"time": 117360, "pitch": 72, "duration": 119, "velocity": 120}, {"time": 117360, "pitch": 84, "duration": 119, "velocity": 120}, {"time": 117479, "pitch": 70, "duration": 119, "velocity": 120}, {"time": 117479, "pitch": 82, "duration": 119, "velocity": 120}, {"time": 117840, "pitch": 58, "duration": 122, "velocity": 120}, {"time": 117840, "pitch": 70, "duration": 122, "velocity": 120}, {"time": 117962, "pitch": 60, "duration": 121, "velocity": 120}, {"time": 117962, "pitch": 72, "duration": 121, "velocity": 120}, {"time": 118083, "pitch": 70, "duration": 119, "velocity": 120}, {"time": 118083, "pitch": 82, "duration": 119, "velocity": 120}, {"time": 118202, "pitch": 72, "duration": 119, "velocity": 120}, {"time": 118202, "pitch": 84, "duration": 119, "velocity": 120}, {"time": 118321, "pitch": 77, "duration": 119, "velocity": 120}, {"time": 118321, "pitch": 89, "duration": 119, "velocity": 120}, {"time": 118440, "pitch": 72, "duration": 119, "velocity": 120}, {"time": 118440, "pitch": 84, "duration": 119, "velocity": 120}, {"time": 118559, "pitch": 70, "duration": 121, "velocity": 120}, {"time": 118559, "pitch": 82, "duration": 121, "velocity": 120}, {"time": 118680, "pitch": 65, "duration": 121, "velocity": 120}, {"time": 118680, "pitch": 77, "duration": 121, "velocity": 120}, {"time": 118801, "pitch": 60, "duration": 122, "velocity": 120}, {"time": 118801, "pitch": 72, "duration": 122, "velocity": 120}, {"time": 118923, "pitch": 65, "duration": 121, "velocity": 120}, {"time": 118923, "pitch": 77, "duration": 121, "velocity": 120}, {"time": 119044, "pitch": 60, "duration": 119, "velocity": 120}, {"time": 119044, "pitch": 72, "duration": 119, "velocity": 120}, {"time": 119163, "pitch": 70, "duration": 119, "velocity": 120}, {"time": 119163, "pitch": 82, "duration": 119, "velocity": 120}, {"time": 119282, "pitch": 72, "duration": 119, "velocity": 120}, {"time": 119282, "pitch": 84, "duration": 119, "velocity": 120}, {"time": 119401, "pitch": 70, "duration": 119, "velocity": 120}, {"time": 119401, "pitch": 82, "duration": 119, "velocity": 120}, {"time": 134878, "pitch": 77, "duration": 1203, "velocity": 120}, {"time": 136081, "pitch": 72, "duration": 481, "velocity": 120}, {"time": 136562, "pitch": 67, "duration": 476, "velocity": 120}, {"time": 137038, "pitch": 65, "duration": 961, "velocity": 120}, {"time": 137999, "pitch": 60, "duration": 238, "velocity": 120}, {"time": 138237, "pitch": 62, "duration": 242, "velocity": 120}, {"time": 138479, "pitch": 65, "duration": 1442, "velocity": 120}, {"time": 139683, "pitch": 67, "duration": 238, "velocity": 120}, {"time": 139921, "pitch": 65, "duration": 238, "velocity": 120}, {"time": 140159, "pitch": 67, "duration": 242, "velocity": 120}, {"time": 140401, "pitch": 69, "duration": 481, "velocity": 120}, {"time": 140882, "pitch": 65, "duration": 1675, "velocity": 120}, {"time": 142557, "pitch": 77, "duration": 1203, "velocity": 120}, {"time": 143760, "pitch": 72, "duration": 481, "velocity": 120}, {"time": 144241, "pitch": 67, "duration": 480, "velocity": 120}, {"time": 144721, "pitch": 65, "duration": 957, "velocity": 120}, {"time": 145678, "pitch": 60, "duration": 238, "velocity": 120}, {"time": 145916, "pitch": 62, "duration": 242, "velocity": 120}, {"time": 146158, "pitch": 65, "duration": 961, "velocity": 120}, {"time": 147119, "pitch": 62, "duration": 243, "velocity": 120}, {"time": 147362, "pitch": 67, "duration": 238, "velocity": 120}, {"time": 147600, "pitch": 65, "duration": 238, "velocity": 120}, {"time": 147838, "pitch": 67, "duration": 242, "velocity": 120}, {"time": 148080, "pitch": 69, "duration": 481, "velocity": 120}, {"time": 148561, "pitch": 65, "duration": 1675, "velocity": 120}, {"time": 150236, "pitch": 77, "duration": 1203, "velocity": 120}, {"time": 151439, "pitch": 72, "duration": 481, "velocity": 120}, {"time": 151920, "pitch": 67, "duration": 480, "velocity": 120}, {"time": 152400, "pitch": 65, "duration": 961, "velocity": 120}, {"time": 153361, "pitch": 60, "duration": 243, "velocity": 120}, {"time": 153604, "pitch": 62, "duration": 238, "velocity": 120}, {"time": 153842, "pitch": 65, "duration": 1437, "velocity": 120}, {"time": 155041, "pitch": 67, "duration": 238, "velocity": 120}, {"time": 155279, "pitch": 65, "duration": 238, "velocity": 120}, {"time": 155517, "pitch": 67, "duration": 242, "velocity": 120}, {"time": 155759, "pitch": 69, "duration": 481, "velocity": 120}, {"time": 156240, "pitch": 65, "duration": 1684, "velocity": 120}, {"time": 157924, "pitch": 77, "duration": 1194, "velocity": 120}, {"time": 159118, "pitch": 72, "duration": 481, "velocity": 120}, {"time": 159599, "pitch": 67, "duration": 480, "velocity": 120}, {"time": 160079, "pitch": 65, "duration": 957, "velocity": 120}, {"time": 161036, "pitch": 60, "duration": 238, "velocity": 120}, {"time": 161274, "pitch": 62, "duration": 238, "velocity": 120}, {"time": 161512, "pitch": 65, "duration": 953, "velocity": 120}, {"time": 162465, "pitch": 62, "duration": 238, "velocity": 120}, {"time": 162703, "pitch": 67, "duration": 238, "velocity": 120}, {"time": 162941, "pitch": 65, "duration": 238, "velocity": 120}, {"time": 163179, "pitch": 67, "duration": 238, "velocity": 120}, {"time": 163417, "pitch": 69, "duration": 476, "velocity": 120}, {"time": 163893, "pitch": 65, "duration": 1667, "velocity": 120}], "annotations": [{"time": 284, "annotation": {"number": 7, "value": 80}, "group": "control_change"}, {"time": 306, "annotation": {"number": 11, "value": 110}, "group": "control_change"}, {"time": 328, "annotation": {"number": 10, "value": 54}, "group": "control_change"}, {"time": 350, "annotation": {"number": 91, "value": 40}, "group": "control_change"}, {"time": 372, "annotation": {"number": 93, "value": 20}, "group": "control_change"}, {"time": 394, "annotation": {"number": 101, "value": 0}, "group": "control_change"}, {"time": 415, "annotation": {"number": 100, "value": 0}, "group": "control_change"}, {"time": 437, "annotation": {"number": 6, "value": 12}, "group": "control_change"}, {"time": 459, "annotation": {"number": 101, "value": 127}, "group": "control_change"}, {"time": 482, "annotation": {"number": 100, "value": 127}, "group": "control_change"}, {"time": 152158, "annotation": {"number": 11, "value": 110}, "group": "control_change"}, {"time": 152279, "annotation": {"number": 11, "value": 109}, "group": "control_change"}, {"time": 152400, "annotation": {"number": 11, "value": 108}, "group": "control_change"}, {"time": 152522, "annotation": {"number": 11, "value": 107}, "group": "control_change"}, {"time": 152643, "annotation": {"number": 11, "value": 106}, "group": "control_change"}, {"time": 152762, "annotation": {"number": 11, "value": 105}, "group": "control_change"}, {"time": 152881, "annotation": {"number": 11, "value": 104}, "group": "control_change"}, {"time": 153000, "annotation": {"number": 11, "value": 103}, "group": "control_change"}, {"time": 153119, "annotation": {"number": 11, "value": 102}, "group": "control_change"}, {"time": 153240, "annotation": {"number": 11, "value": 101}, "group": "control_change"}, {"time": 153361, "annotation": {"number": 11, "value": 100}, "group": "control_change"}, {"time": 153483, "annotation": {"number": 11, "value": 99}, "group": "control_change"}, {"time": 153604, "annotation": {"number": 11, "value": 98}, "group": "control_change"}, {"time": 153723, "annotation": {"number": 11, "value": 97}, "group": "control_change"}, {"time": 153842, "annotation": {"number": 11, "value": 96}, "group": "control_change"}, {"time": 153961, "annotation": {"number": 11, "value": 95}, "group": "control_change"}, {"time": 154080, "annotation": {"number": 11, "value": 94}, "group": "control_change"}, {"time": 154199, "annotation": {"number": 11, "value": 93}, "group": "control_change"}, {"time": 154318, "annotation": {"number": 11, "value": 92}, "group": "control_change"}, {"time": 154437, "annotation": {"number": 11, "value": 91}, "group": "control_change"}, {"time": 154556, "annotation": {"number": 11, "value": 90}, "group": "control_change"}, {"time": 154677, "annotation": {"number": 11, "value": 89}, "group": "control_change"}, {"time": 154798, "annotation": {"number": 11, "value": 88}, "group": "control_change"}, {"time": 154920, "annotation": {"number": 11, "value": 87}, "group": "control_change"}, {"time": 155041, "annotation": {"number": 11, "value": 86}, "group": "control_change"}, {"time": 155160, "annotation": {"number": 11, "value": 85}, "group": "control_change"}, {"time": 155279, "annotation": {"number": 11, "value": 84}, "group": "control_change"}, {"time": 155398, "annotation": {"number": 11, "value": 83}, "group": "control_change"}, {"time": 155517, "annotation": {"number": 11, "value": 82}, "group": "control_change"}, {"time": 155638, "annotation": {"number": 11, "value": 81}, "group": "control_change"}, {"time": 155759, "annotation": {"number": 11, "value": 80}, "group": "control_change"}, {"time": 155881, "annotation": {"number": 11, "value": 79}, "group": "control_change"}, {"time": 156002, "annotation": {"number": 11, "value": 78}, "group": "control_change"}, {"time": 156121, "annotation": {"number": 11, "value": 77}, "group": "control_change"}, {"time": 156240, "annotation": {"number": 11, "value": 76}, "group": "control_change"}, {"time": 156359, "annotation": {"number": 11, "value": 75}, "group": "control_change"}, {"time": 156478, "annotation": {"number": 11, "value": 74}, "group": "control_change"}, {"time": 156599, "annotation": {"number": 11, "value": 73}, "group": "control_change"}, {"time": 156720, "annotation": {"number": 11, "value": 72}, "group": "control_change"}, {"time": 156842, "annotation": {"number": 11, "value": 71}, "group": "control_change"}, {"time": 156963, "annotation": {"number": 11, "value": 70}, "group": "control_change"}, {"time": 157082, "annotation": {"number": 11, "value": 69}, "group": "control_change"}, {"time": 157201, "annotation": {"number": 11, "value": 68}, "group": "control_change"}, {"time": 157320, "annotation": {"number": 11, "value": 67}, "group": "control_change"}, {"time": 157439, "annotation": {"number": 11, "value": 66}, "group": "control_change"}, {"time": 157560, "annotation": {"number": 11, "value": 65}, "group": "control_change"}, {"time": 157681, "annotation": {"number": 11, "value": 64}, "group": "control_change"}, {"time": 157803, "annotation": {"number": 11, "value": 63}, "group": "control_change"}, {"time": 157924, "annotation": {"number": 11, "value": 62}, "group": "control_change"}, {"time": 158043, "annotation": {"number": 11, "value": 61}, "group": "control_change"}, {"time": 158162, "annotation": {"number": 11, "value": 60}, "group": "control_change"}, {"time": 158281, "annotation": {"number": 11, "value": 59}, "group": "control_change"}, {"time": 158400, "annotation": {"number": 11, "value": 58}, "group": "control_change"}, {"time": 158519, "annotation": {"number": 11, "value": 57}, "group": "control_change"}, {"time": 158638, "annotation": {"number": 11, "value": 56}, "group": "control_change"}, {"time": 158757, "annotation": {"number": 11, "value": 55}, "group": "control_change"}, {"time": 158999, "annotation": {"number": 11, "value": 54}, "group": "control_change"}, {"time": 159120, "annotation": {"number": 11, "value": 53}, "group": "control_change"}, {"time": 159242, "annotation": {"number": 11, "value": 52}, "group": "control_change"}, {"time": 159363, "annotation": {"number": 11, "value": 51}, "group": "control_change"}, {"time": 159482, "annotation": {"number": 11, "value": 50}, "group": "control_change"}, {"time": 159601, "annotation": {"number": 11, "value": 49}, "group": "control_change"}, {"time": 159720, "annotation": {"number": 11, "value": 48}, "group": "control_change"}, {"time": 159839, "annotation": {"number": 11, "value": 47}, "group": "control_change"}, {"time": 159960, "annotation": {"number": 11, "value": 46}, "group": "control_change"}, {"time": 160081, "annotation": {"number": 11, "value": 45}, "group": "control_change"}, {"time": 160203, "annotation": {"number": 11, "value": 44}, "group": "control_change"}, {"time": 160324, "annotation": {"number": 11, "value": 43}, "group": "control_change"}, {"time": 160443, "annotation": {"number": 11, "value": 42}, "group": "control_change"}, {"time": 160562, "annotation": {"number": 11, "value": 41}, "group": "control_change"}, {"time": 160681, "annotation": {"number": 11, "value": 40}, "group": "control_change"}, {"time": 160800, "annotation": {"number": 11, "value": 39}, "group": "control_change"}, {"time": 160919, "annotation": {"number": 11, "value": 38}, "group": "control_change"}, {"time": 161038, "annotation": {"number": 11, "value": 37}, "group": "control_change"}, {"time": 161157, "annotation": {"number": 11, "value": 36}, "group": "control_change"}, {"time": 161276, "annotation": {"number": 11, "value": 35}, "group": "control_change"}, {"time": 161395, "annotation": {"number": 11, "value": 34}, "group": "control_change"}, {"time": 161514, "annotation": {"number": 11, "value": 33}, "group": "control_change"}, {"time": 161633, "annotation": {"number": 11, "value": 32}, "group": "control_change"}, {"time": 161752, "annotation": {"number": 11, "value": 31}, "group": "control_change"}, {"time": 161871, "annotation": {"number": 11, "value": 30}, "group": "control_change"}, {"time": 161990, "annotation": {"number": 11, "value": 29}, "group": "control_change"}, {"time": 162109, "annotation": {"number": 11, "value": 28}, "group": "control_change"}, {"time": 162228, "annotation": {"number": 11, "value": 27}, "group": "control_change"}, {"time": 162348, "annotation": {"number": 11, "value": 26}, "group": "control_change"}, {"time": 162467, "annotation": {"number": 11, "value": 25}, "group": "control_change"}, {"time": 162586, "annotation": {"number": 11, "value": 24}, "group": "control_change"}, {"time": 162705, "annotation": {"number": 11, "value": 23}, "group": "control_change"}, {"time": 162824, "annotation": {"number": 11, "value": 22}, "group": "control_change"}, {"time": 162943, "annotation": {"number": 11, "value": 21}, "group": "control_change"}, {"time": 163062, "annotation": {"number": 11, "value": 20}, "group": "control_change"}, {"time": 163181, "annotation": {"number": 11, "value": 19}, "group": "control_change"}, {"time": 163300, "annotation": {"number": 11, "value": 18}, "group": "control_change"}, {"time": 163419, "annotation": {"number": 11, "value": 17}, "group": "control_change"}, {"time": 163538, "annotation": {"number": 11, "value": 16}, "group": "control_change"}, {"time": 163657, "annotation": {"number": 11, "value": 15}, "group": "control_change"}, {"time": 163776, "annotation": {"number": 11, "value": 14}, "group": "control_change"}, {"time": 163895, "annotation": {"number": 11, "value": 13}, "group": "control_change"}, {"time": 164014, "annotation": {"number": 11, "value": 12}, "group": "control_change"}, {"time": 164133, "annotation": {"number": 11, "value": 11}, "group": "control_change"}, {"time": 164252, "annotation": {"number": 11, "value": 10}, "group": "control_change"}, {"time": 164371, "annotation": {"number": 11, "value": 9}, "group": "control_change"}, {"time": 164490, "annotation": {"number": 11, "value": 8}, "group": "control_change"}, {"time": 164609, "annotation": {"number": 11, "value": 7}, "group": "control_change"}, {"time": 164728, "annotation": {"number": 11, "value": 6}, "group": "control_change"}, {"time": 164848, "annotation": {"number": 11, "value": 5}, "group": "control_change"}, {"time": 164967, "annotation": {"number": 11, "value": 4}, "group": "control_change"}, {"time": 165086, "annotation": {"number": 11, "value": 3}, "group": "control_change"}, {"time": 165205, "annotation": {"number": 11, "value": 2}, "group": "control_change"}, {"time": 165324, "annotation": {"number": 11, "value": 1}, "group": "control_change"}, {"time": 165443, "annotation": {"number": 11, "value": 0}, "group": "control_change"}, {"time": 165560, "annotation": {"number": 11, "value": 0}, "group": "control_change"}]}, {"program": 0, "is_drum": false, "name": "GAYA", "annotations": [{"time": 219, "annotation": {"number": 0, "value": 0}, "group": "control_change"}, {"time": 241, "annotation": {"number": 32, "value": 2}, "group": "control_change"}]}, {"program": 54, "is_drum": false, "name": "GAYA", "notes": [{"time": 13680, "pitch": 65, "duration": 1441, "velocity": 120}, {"time": 15602, "pitch": 65, "duration": 1437, "velocity": 120}, {"time": 17519, "pitch": 65, "duration": 1442, "velocity": 120}, {"time": 19441, "pitch": 65, "duration": 1438, "velocity": 120}, {"time": 21359, "pitch": 65, "duration": 1441, "velocity": 120}, {"time": 23281, "pitch": 65, "duration": 1437, "velocity": 120}, {"time": 25199, "pitch": 65, "duration": 1441, "velocity": 120}, {"time": 27120, "pitch": 65, "duration": 1442, "velocity": 120}, {"time": 57841, "pitch": 65, "duration": 1437, "velocity": 120}, {"time": 59758, "pitch": 65, "duration": 1442, "velocity": 120}, {"time": 61680, "pitch": 65, "duration": 1442, "velocity": 120}, {"time": 63598, "pitch": 65, "duration": 1441, "velocity": 120}, {"time": 65520, "pitch": 65, "duration": 1441, "velocity": 120}, {"time": 67442, "pitch": 65, "duration": 1437, "velocity": 120}, {"time": 69359, "pitch": 65, "duration": 1442, "velocity": 120}, {"time": 71281, "pitch": 65, "duration": 1437, "velocity": 120}, {"time": 88561, "pitch": 65, "duration": 1437, "velocity": 120}, {"time": 90479, "pitch": 65, "duration": 1441, "velocity": 120}, {"time": 92401, "pitch": 65, "duration": 1437, "velocity": 120}, {"time": 94318, "pitch": 65, "duration": 1442, "velocity": 120}, {"time": 96240, "pitch": 65, "duration": 1442, "velocity": 120}, {"time": 98158, "pitch": 65, "duration": 1441, "velocity": 120}, {"time": 100080, "pitch": 65, "duration": 1441, "velocity": 120}, {"time": 102002, "pitch": 65, "duration": 1437, "velocity": 120}, {"time": 119282, "pitch": 65, "duration": 1437, "velocity": 120}, {"time": 121199, "pitch": 65, "duration": 1442, "velocity": 120}, {"time": 123121, "pitch": 65, "duration": 1437, "velocity": 120}, {"time": 125039, "pitch": 65, "duration": 1441, "velocity": 120}, {"time": 126961, "pitch": 65, "duration": 1437, "velocity": 120}, {"time": 128878, "pitch": 65, "duration": 1442, "velocity": 120}, {"time": 130800, "pitch": 65, "duration": 1442, "velocity": 120}, {"time": 132718, "pitch": 65, "duration": 1441, "velocity": 120}, {"time": 134640, "pitch": 65, "duration": 1441, "velocity": 120}, {"time": 136562, "pitch": 65, "duration": 1437, "velocity": 120}, {"time": 138479, "pitch": 65, "duration": 1442, "velocity": 120}, {"time": 140401, "pitch": 65, "duration": 1437, "velocity": 120}, {"time": 142319, "pitch": 65, "duration": 1441, "velocity": 120}, {"time": 144241, "pitch": 65, "duration": 1437, "velocity": 120}, {"time": 146158, "pitch": 65, "duration": 1442, "velocity": 120}, {"time": 148080, "pitch": 65, "duration": 1442, "velocity": 120}, {"time": 149998, "pitch": 65, "duration": 1441, "velocity": 120}, {"time": 151920, "pitch": 65, "duration": 1441, "velocity": 120}, {"time": 153842, "pitch": 65, "duration": 1437, "velocity": 120}, {"time": 155759, "pitch": 65, "duration": 1442, "velocity": 120}, {"time": 157681, "pitch": 65, "duration": 1437, "velocity": 120}, {"time": 159599, "pitch": 65, "duration": 1437, "velocity": 120}, {"time": 161512, "pitch": 65, "duration": 1429, "velocity": 120}, {"time": 163417, "pitch": 65, "duration": 1429, "velocity": 120}], "annotations": [{"time": 284, "annotation": {"number": 7, "value": 100}, "group": "control_change"}, {"time": 306, "annotation": {"number": 11, "value": 110}, "group": "control_change"}, {"time": 328, "annotation": {"number": 10, "value": 104}, "group": "control_change"}, {"time": 350, "annotation": {"number": 91, "value": 80}, "group": "control_change"}, {"time": 372, "annotation": {"number": 93, "value": 40}, "group": "control_change"}, {"time": 394, "annotation": {"number": 101, "value": 0}, "group": "control_change"}, {"time": 415, "annotation": {"number": 100, "value": 0}, "group": "control_change"}, {"time": 437, "annotation": {"number": 6, "value": 2}, "group": "control_change"}, {"time": 459, "annotation": {"number": 101, "value": 127}, "group": "control_change"}, {"time": 482, "annotation": {"number": 100, "value": 127}, "group": "control_change"}, {"time": 152158, "annotation": {"number": 11, "value": 110}, "group": "control_change"}, {"time": 152279, "annotation": {"number": 11, "value": 109}, "group": "control_change"}, {"time": 152400, "annotation": {"number": 11, "value": 108}, "group": "control_change"}, {"time": 152522, "annotation": {"number": 11, "value": 107}, "group": "control_change"}, {"time": 152643, "annotation": {"number": 11, "value": 106}, "group": "control_change"}, {"time": 152762, "annotation": {"number": 11, "value": 105}, "group": "control_change"}, {"time": 152881, "annotation": {"number": 11, "value": 104}, "group": "control_change"}, {"time": 153000, "annotation": {"number": 11, "value": 103}, "group": "control_change"}, {"time": 153119, "annotation": {"number": 11, "value": 102}, "group": "control_change"}, {"time": 153240, "annotation": {"number": 11, "value": 101}, "group": "control_change"}, {"time": 153361, "annotation": {"number": 11, "value": 100}, "group": "control_change"}, {"time": 153483, "annotation": {"number": 11, "value": 99}, "group": "control_change"}, {"time": 153604, "annotation": {"number": 11, "value": 98}, "group": "control_change"}, {"time": 153723, "annotation": {"number": 11, "value": 97}, "group": "control_change"}, {"time": 153842, "annotation": {"number": 11, "value": 96}, "group": "control_change"}, {"time": 153961, "annotation": {"number": 11, "value": 95}, "group": "control_change"}, {"time": 154080, "annotation": {"number": 11, "value": 94}, "group": "control_change"}, {"time": 154199, "annotation": {"number": 11, "value": 93}, "group": "control_change"}, {"time": 154318, "annotation": {"number": 11, "value": 92}, "group": "control_change"}, {"time": 154437, "annotation": {"number": 11, "value": 91}, "group": "control_change"}, {"time": 154556, "annotation": {"number": 11, "value": 90}, "group": "control_change"}, {"time": 154677, "annotation": {"number": 11, "value": 89}, "group": "control_change"}, {"time": 154798, "annotation": {"number": 11, "value": 88}, "group": "control_change"}, {"time": 154920, "annotation": {"number": 11, "value": 87}, "group": "control_change"}, {"time": 155041, "annotation": {"number": 11, "value": 86}, "group": "control_change"}, {"time": 155160, "annotation": {"number": 11, "value": 85}, "group": "control_change"}, {"time": 155279, "annotation": {"number": 11, "value": 84}, "group": "control_change"}, {"time": 155398, "annotation": {"number": 11, "value": 83}, "group": "control_change"}, {"time": 155517, "annotation": {"number": 11, "value": 82}, "group": "control_change"}, {"time": 155638, "annotation": {"number": 11, "value": 81}, "group": "control_change"}, {"time": 155759, "annotation": {"number": 11, "value": 80}, "group": "control_change"}, {"time": 155881, "annotation": {"number": 11, "value": 79}, "group": "control_change"}, {"time": 156002, "annotation": {"number": 11, "value": 78}, "group": "control_change"}, {"time": 156121, "annotation": {"number": 11, "value": 77}, "group": "control_change"}, {"time": 156240, "annotation": {"number": 11, "value": 76}, "group": "control_change"}, {"time": 156359, "annotation": {"number": 11, "value": 75}, "group": "control_change"}, {"time": 156478, "annotation": {"number": 11, "value": 74}, "group": "control_change"}, {"time": 156599, "annotation": {"number": 11, "value": 73}, "group": "control_change"}, {"time": 156720, "annotation": {"number": 11, "value": 72}, "group": "control_change"}, {"time": 156842, "annotation": {"number": 11, "value": 71}, "group": "control_change"}, {"time": 156963, "annotation": {"number": 11, "value": 70}, "group": "control_change"}, {"time": 157082, "annotation": {"number": 11, "value": 69}, "group": "control_change"}, {"time": 157201, "annotation": {"number": 11, "value": 68}, "group": "control_change"}, {"time": 157320, "annotation": {"number": 11, "value": 67}, "group": "control_change"}, {"time": 157439, "annotation": {"number": 11, "value": 66}, "group": "control_change"}, {"time": 157560, "annotation": {"number": 11, "value": 65}, "group": "control_change"}, {"time": 157681, "annotation": {"number": 11, "value": 64}, "group": "control_change"}, {"time": 157803, "annotation": {"number": 11, "value": 63}, "group": "control_change"}, {"time": 157924, "annotation": {"number": 11, "value": 62}, "group": "control_change"}, {"time": 158043, "annotation": {"number": 11, "value": 61}, "group": "control_change"}, {"time": 158162, "annotation": {"number": 11, "value": 60}, "group": "control_change"}, {"time": 158281, "annotation": {"number": 11, "value": 59}, "group": "control_change"}, {"time": 158400, "annotation": {"number": 11, "value": 58}, "group": "control_change"}, {"time": 158519, "annotation": {"number": 11, "value": 57}, "group": "control_change"}, {"time": 158638, "annotation": {"number": 11, "value": 56}, "group": "control_change"}, {"time": 158757, "annotation": {"number": 11, "value": 55}, "group": "control_change"}, {"time": 158999, "annotation": {"number": 11, "value": 54}, "group": "control_change"}, {"time": 159120, "annotation": {"number": 11, "value": 53}, "group": "control_change"}, {"time": 159242, "annotation": {"number": 11, "value": 52}, "group": "control_change"}, {"time": 159363, "annotation": {"number": 11, "value": 51}, "group": "control_change"}, {"time": 159482, "annotation": {"number": 11, "value": 50}, "group": "control_change"}, {"time": 159601, "annotation": {"number": 11, "value": 49}, "group": "control_change"}, {"time": 159720, "annotation": {"number": 11, "value": 48}, "group": "control_change"}, {"time": 159839, "annotation": {"number": 11, "value": 47}, "group": "control_change"}, {"time": 159960, "annotation": {"number": 11, "value": 46}, "group": "control_change"}, {"time": 160081, "annotation": {"number": 11, "value": 45}, "group": "control_change"}, {"time": 160203, "annotation": {"number": 11, "value": 44}, "group": "control_change"}, {"time": 160324, "annotation": {"number": 11, "value": 43}, "group": "control_change"}, {"time": 160443, "annotation": {"number": 11, "value": 42}, "group": "control_change"}, {"time": 160562, "annotation": {"number": 11, "value": 41}, "group": "control_change"}, {"time": 160681, "annotation": {"number": 11, "value": 40}, "group": "control_change"}, {"time": 160800, "annotation": {"number": 11, "value": 39}, "group": "control_change"}, {"time": 160919, "annotation": {"number": 11, "value": 38}, "group": "control_change"}, {"time": 161038, "annotation": {"number": 11, "value": 37}, "group": "control_change"}, {"time": 161157, "annotation": {"number": 11, "value": 36}, "group": "control_change"}, {"time": 161276, "annotation": {"number": 11, "value": 35}, "group": "control_change"}, {"time": 161395, "annotation": {"number": 11, "value": 34}, "group": "control_change"}, {"time": 161514, "annotation": {"number": 11, "value": 33}, "group": "control_change"}, {"time": 161633, "annotation": {"number": 11, "value": 32}, "group": "control_change"}, {"time": 161752, "annotation": {"number": 11, "value": 31}, "group": "control_change"}, {"time": 161871, "annotation": {"number": 11, "value": 30}, "group": "control_change"}, {"time": 161990, "annotation": {"number": 11, "value": 29}, "group": "control_change"}, {"time": 162109, "annotation": {"number": 11, "value": 28}, "group": "control_change"}, {"time": 162228, "annotation": {"number": 11, "value": 27}, "group": "control_change"}, {"time": 162348, "annotation": {"number": 11, "value": 26}, "group": "control_change"}, {"time": 162467, "annotation": {"number": 11, "value": 25}, "group": "control_change"}, {"time": 162586, "annotation": {"number": 11, "value": 24}, "group": "control_change"}, {"time": 162705, "annotation": {"number": 11, "value": 23}, "group": "control_change"}, {"time": 162824, "annotation": {"number": 11, "value": 22}, "group": "control_change"}, {"time": 162943, "annotation": {"number": 11, "value": 21}, "group": "control_change"}, {"time": 163062, "annotation": {"number": 11, "value": 20}, "group": "control_change"}, {"time": 163181, "annotation": {"number": 11, "value": 19}, "group": "control_change"}, {"time": 163300, "annotation": {"number": 11, "value": 18}, "group": "control_change"}, {"time": 163419, "annotation": {"number": 11, "value": 17}, "group": "control_change"}, {"time": 163538, "annotation": {"number": 11, "value": 16}, "group": "control_change"}, {"time": 163657, "annotation": {"number": 11, "value": 15}, "group": "control_change"}, {"time": 163776, "annotation": {"number": 11, "value": 14}, "group": "control_change"}, {"time": 163895, "annotation": {"number": 11, "value": 13}, "group": "control_change"}, {"time": 164014, "annotation": {"number": 11, "value": 12}, "group": "control_change"}, {"time": 164133, "annotation": {"number": 11, "value": 11}, "group": "control_change"}, {"time": 164252, "annotation": {"number": 11, "value": 10}, "group": "control_change"}, {"time": 164371, "annotation": {"number": 11, "value": 9}, "group": "control_change"}, {"time": 164490, "annotation": {"number": 11, "value": 8}, "group": "control_change"}, {"time": 164609, "annotation": {"number": 11, "value": 7}, "group": "control_change"}, {"time": 164728, "annotation": {"number": 11, "value": 6}, "group": "control_change"}, {"time": 164848, "annotation": {"number": 11, "value": 5}, "group": "control_change"}, {"time": 164967, "annotation": {"number": 11, "value": 4}, "group": "control_change"}, {"time": 165086, "annotation": {"number": 11, "value": 3}, "group": "control_change"}, {"time": 165205, "annotation": {"number": 11, "value": 2}, "group": "control_change"}, {"time": 165324, "annotation": {"number": 11, "value": 1}, "group": "control_change"}, {"time": 165443, "annotation": {"number": 11, "value": 0}, "group": "control_change"}, {"time": 165560, "annotation": {"number": 11, "value": 0}, "group": "control_change"}]}, {"program": 0, "is_drum": false, "name": "GAYA", "annotations": [{"time": 219, "annotation": {"number": 0, "value": 0}, "group": "control_change"}, {"time": 241, "annotation": {"number": 32, "value": 2}, "group": "control_change"}]}, {"program": 54, "is_drum": false, "name": "GAYA", "notes": [{"time": 13680, "pitch": 77, "duration": 1441, "velocity": 120}, {"time": 15602, "pitch": 77, "duration": 1437, "velocity": 120}, {"time": 17519, "pitch": 77, "duration": 1442, "velocity": 120}, {"time": 19441, "pitch": 77, "duration": 1438, "velocity": 120}, {"time": 21359, "pitch": 77, "duration": 1441, "velocity": 120}, {"time": 23281, "pitch": 77, "duration": 1437, "velocity": 120}, {"time": 25199, "pitch": 77, "duration": 1441, "velocity": 120}, {"time": 27120, "pitch": 77, "duration": 1442, "velocity": 120}, {"time": 57841, "pitch": 77, "duration": 1437, "velocity": 120}, {"time": 59758, "pitch": 77, "duration": 1442, "velocity": 120}, {"time": 61680, "pitch": 77, "duration": 1442, "velocity": 120}, {"time": 63598, "pitch": 77, "duration": 1441, "velocity": 120}, {"time": 65520, "pitch": 77, "duration": 1441, "velocity": 120}, {"time": 67442, "pitch": 77, "duration": 1437, "velocity": 120}, {"time": 69359, "pitch": 77, "duration": 1442, "velocity": 120}, {"time": 71281, "pitch": 77, "duration": 1437, "velocity": 120}, {"time": 88561, "pitch": 77, "duration": 1437, "velocity": 120}, {"time": 90479, "pitch": 77, "duration": 1441, "velocity": 120}, {"time": 92401, "pitch": 77, "duration": 1437, "velocity": 120}, {"time": 94318, "pitch": 77, "duration": 1442, "velocity": 120}, {"time": 96240, "pitch": 77, "duration": 1442, "velocity": 120}, {"time": 98158, "pitch": 77, "duration": 1441, "velocity": 120}, {"time": 100080, "pitch": 77, "duration": 1441, "velocity": 120}, {"time": 102002, "pitch": 77, "duration": 1437, "velocity": 120}, {"time": 119282, "pitch": 77, "duration": 1437, "velocity": 120}, {"time": 121199, "pitch": 77, "duration": 1442, "velocity": 120}, {"time": 123121, "pitch": 77, "duration": 1437, "velocity": 120}, {"time": 125039, "pitch": 77, "duration": 1441, "velocity": 120}, {"time": 126961, "pitch": 77, "duration": 1437, "velocity": 120}, {"time": 128878, "pitch": 77, "duration": 1442, "velocity": 120}, {"time": 130800, "pitch": 77, "duration": 1442, "velocity": 120}, {"time": 132718, "pitch": 77, "duration": 1441, "velocity": 120}, {"time": 134640, "pitch": 77, "duration": 1441, "velocity": 120}, {"time": 136562, "pitch": 77, "duration": 1437, "velocity": 120}, {"time": 138479, "pitch": 77, "duration": 1442, "velocity": 120}, {"time": 140401, "pitch": 77, "duration": 1437, "velocity": 120}, {"time": 142319, "pitch": 77, "duration": 1441, "velocity": 120}, {"time": 144241, "pitch": 77, "duration": 1437, "velocity": 120}, {"time": 146158, "pitch": 77, "duration": 1442, "velocity": 120}, {"time": 148080, "pitch": 77, "duration": 1442, "velocity": 120}, {"time": 149998, "pitch": 77, "duration": 1441, "velocity": 120}, {"time": 151920, "pitch": 77, "duration": 1441, "velocity": 120}, {"time": 153842, "pitch": 77, "duration": 1437, "velocity": 120}, {"time": 155759, "pitch": 77, "duration": 1442, "velocity": 120}, {"time": 157681, "pitch": 77, "duration": 1437, "velocity": 120}, {"time": 159599, "pitch": 77, "duration": 1437, "velocity": 120}, {"time": 161512, "pitch": 77, "duration": 1429, "velocity": 120}, {"time": 163417, "pitch": 77, "duration": 1429, "velocity": 120}], "annotations": [{"time": 284, "annotation": {"number": 7, "value": 100}, "group": "control_change"}, {"time": 306, "annotation": {"number": 11, "value": 110}, "group": "control_change"}, {"time": 328, "annotation": {"number": 10, "value": 24}, "group": "control_change"}, {"time": 350, "annotation": {"number": 91, "value": 80}, "group": "control_change"}, {"time": 372, "annotation": {"number": 93, "value": 40}, "group": "control_change"}, {"time": 394, "annotation": {"number": 101, "value": 0}, "group": "control_change"}, {"time": 415, "annotation": {"number": 100, "value": 0}, "group": "control_change"}, {"time": 437, "annotation": {"number": 6, "value": 2}, "group": "control_change"}, {"time": 459, "annotation": {"number": 101, "value": 127}, "group": "control_change"}, {"time": 482, "annotation": {"number": 100, "value": 127}, "group": "control_change"}, {"time": 152158, "annotation": {"number": 11, "value": 110}, "group": "control_change"}, {"time": 152279, "annotation": {"number": 11, "value": 109}, "group": "control_change"}, {"time": 152400, "annotation": {"number": 11, "value": 108}, "group": "control_change"}, {"time": 152522, "annotation": {"number": 11, "value": 107}, "group": "control_change"}, {"time": 152643, "annotation": {"number": 11, "value": 106}, "group": "control_change"}, {"time": 152762, "annotation": {"number": 11, "value": 105}, "group": "control_change"}, {"time": 152881, "annotation": {"number": 11, "value": 104}, "group": "control_change"}, {"time": 153000, "annotation": {"number": 11, "value": 103}, "group": "control_change"}, {"time": 153119, "annotation": {"number": 11, "value": 102}, "group": "control_change"}, {"time": 153240, "annotation": {"number": 11, "value": 101}, "group": "control_change"}, {"time": 153361, "annotation": {"number": 11, "value": 100}, "group": "control_change"}, {"time": 153483, "annotation": {"number": 11, "value": 99}, "group": "control_change"}, {"time": 153604, "annotation": {"number": 11, "value": 98}, "group": "control_change"}, {"time": 153723, "annotation": {"number": 11, "value": 97}, "group": "control_change"}, {"time": 153842, "annotation": {"number": 11, "value": 96}, "group": "control_change"}, {"time": 153961, "annotation": {"number": 11, "value": 95}, "group": "control_change"}, {"time": 154080, "annotation": {"number": 11, "value": 94}, "group": "control_change"}, {"time": 154199, "annotation": {"number": 11, "value": 93}, "group": "control_change"}, {"time": 154318, "annotation": {"number": 11, "value": 92}, "group": "control_change"}, {"time": 154437, "annotation": {"number": 11, "value": 91}, "group": "control_change"}, {"time": 154556, "annotation": {"number": 11, "value": 90}, "group": "control_change"}, {"time": 154677, "annotation": {"number": 11, "value": 89}, "group": "control_change"}, {"time": 154798, "annotation": {"number": 11, "value": 88}, "group": "control_change"}, {"time": 154920, "annotation": {"number": 11, "value": 87}, "group": "control_change"}, {"time": 155041, "annotation": {"number": 11, "value": 86}, "group": "control_change"}, {"time": 155160, "annotation": {"number": 11, "value": 85}, "group": "control_change"}, {"time": 155279, "annotation": {"number": 11, "value": 84}, "group": "control_change"}, {"time": 155398, "annotation": {"number": 11, "value": 83}, "group": "control_change"}, {"time": 155517, "annotation": {"number": 11, "value": 82}, "group": "control_change"}, {"time": 155638, "annotation": {"number": 11, "value": 81}, "group": "control_change"}, {"time": 155759, "annotation": {"number": 11, "value": 80}, "group": "control_change"}, {"time": 155881, "annotation": {"number": 11, "value": 79}, "group": "control_change"}, {"time": 156002, "annotation": {"number": 11, "value": 78}, "group": "control_change"}, {"time": 156121, "annotation": {"number": 11, "value": 77}, "group": "control_change"}, {"time": 156240, "annotation": {"number": 11, "value": 76}, "group": "control_change"}, {"time": 156359, "annotation": {"number": 11, "value": 75}, "group": "control_change"}, {"time": 156478, "annotation": {"number": 11, "value": 74}, "group": "control_change"}, {"time": 156599, "annotation": {"number": 11, "value": 73}, "group": "control_change"}, {"time": 156720, "annotation": {"number": 11, "value": 72}, "group": "control_change"}, {"time": 156842, "annotation": {"number": 11, "value": 71}, "group": "control_change"}, {"time": 156963, "annotation": {"number": 11, "value": 70}, "group": "control_change"}, {"time": 157082, "annotation": {"number": 11, "value": 69}, "group": "control_change"}, {"time": 157201, "annotation": {"number": 11, "value": 68}, "group": "control_change"}, {"time": 157320, "annotation": {"number": 11, "value": 67}, "group": "control_change"}, {"time": 157439, "annotation": {"number": 11, "value": 66}, "group": "control_change"}, {"time": 157560, "annotation": {"number": 11, "value": 65}, "group": "control_change"}, {"time": 157681, "annotation": {"number": 11, "value": 64}, "group": "control_change"}, {"time": 157803, "annotation": {"number": 11, "value": 63}, "group": "control_change"}, {"time": 157924, "annotation": {"number": 11, "value": 62}, "group": "control_change"}, {"time": 158043, "annotation": {"number": 11, "value": 61}, "group": "control_change"}, {"time": 158162, "annotation": {"number": 11, "value": 60}, "group": "control_change"}, {"time": 158281, "annotation": {"number": 11, "value": 59}, "group": "control_change"}, {"time": 158400, "annotation": {"number": 11, "value": 58}, "group": "control_change"}, {"time": 158519, "annotation": {"number": 11, "value": 57}, "group": "control_change"}, {"time": 158638, "annotation": {"number": 11, "value": 56}, "group": "control_change"}, {"time": 158757, "annotation": {"number": 11, "value": 55}, "group": "control_change"}, {"time": 158999, "annotation": {"number": 11, "value": 54}, "group": "control_change"}, {"time": 159120, "annotation": {"number": 11, "value": 53}, "group": "control_change"}, {"time": 159242, "annotation": {"number": 11, "value": 52}, "group": "control_change"}, {"time": 159363, "annotation": {"number": 11, "value": 51}, "group": "control_change"}, {"time": 159482, "annotation": {"number": 11, "value": 50}, "group": "control_change"}, {"time": 159601, "annotation": {"number": 11, "value": 49}, "group": "control_change"}, {"time": 159720, "annotation": {"number": 11, "value": 48}, "group": "control_change"}, {"time": 159839, "annotation": {"number": 11, "value": 47}, "group": "control_change"}, {"time": 159960, "annotation": {"number": 11, "value": 46}, "group": "control_change"}, {"time": 160081, "annotation": {"number": 11, "value": 45}, "group": "control_change"}, {"time": 160203, "annotation": {"number": 11, "value": 44}, "group": "control_change"}, {"time": 160324, "annotation": {"number": 11, "value": 43}, "group": "control_change"}, {"time": 160443, "annotation": {"number": 11, "value": 42}, "group": "control_change"}, {"time": 160562, "annotation": {"number": 11, "value": 41}, "group": "control_change"}, {"time": 160681, "annotation": {"number": 11, "value": 40}, "group": "control_change"}, {"time": 160800, "annotation": {"number": 11, "value": 39}, "group": "control_change"}, {"time": 160919, "annotation": {"number": 11, "value": 38}, "group": "control_change"}, {"time": 161038, "annotation": {"number": 11, "value": 37}, "group": "control_change"}, {"time": 161157, "annotation": {"number": 11, "value": 36}, "group": "control_change"}, {"time": 161276, "annotation": {"number": 11, "value": 35}, "group": "control_change"}, {"time": 161395, "annotation": {"number": 11, "value": 34}, "group": "control_change"}, {"time": 161514, "annotation": {"number": 11, "value": 33}, "group": "control_change"}, {"time": 161633, "annotation": {"number": 11, "value": 32}, "group": "control_change"}, {"time": 161752, "annotation": {"number": 11, "value": 31}, "group": "control_change"}, {"time": 161871, "annotation": {"number": 11, "value": 30}, "group": "control_change"}, {"time": 161990, "annotation": {"number": 11, "value": 29}, "group": "control_change"}, {"time": 162109, "annotation": {"number": 11, "value": 28}, "group": "control_change"}, {"time": 162228, "annotation": {"number": 11, "value": 27}, "group": "control_change"}, {"time": 162348, "annotation": {"number": 11, "value": 26}, "group": "control_change"}, {"time": 162467, "annotation": {"number": 11, "value": 25}, "group": "control_change"}, {"time": 162586, "annotation": {"number": 11, "value": 24}, "group": "control_change"}, {"time": 162705, "annotation": {"number": 11, "value": 23}, "group": "control_change"}, {"time": 162824, "annotation": {"number": 11, "value": 22}, "group": "control_change"}, {"time": 162943, "annotation": {"number": 11, "value": 21}, "group": "control_change"}, {"time": 163062, "annotation": {"number": 11, "value": 20}, "group": "control_change"}, {"time": 163181, "annotation": {"number": 11, "value": 19}, "group": "control_change"}, {"time": 163300, "annotation": {"number": 11, "value": 18}, "group": "control_change"}, {"time": 163419, "annotation": {"number": 11, "value": 17}, "group": "control_change"}, {"time": 163538, "annotation": {"number": 11, "value": 16}, "group": "control_change"}, {"time": 163657, "annotation": {"number": 11, "value": 15}, "group": "control_change"}, {"time": 163776, "annotation": {"number": 11, "value": 14}, "group": "control_change"}, {"time": 163895, "annotation": {"number": 11, "value": 13}, "group": "control_change"}, {"time": 164014, "annotation": {"number": 11, "value": 12}, "group": "control_change"}, {"time": 164133, "annotation": {"number": 11, "value": 11}, "group": "control_change"}, {"time": 164252, "annotation": {"number": 11, "value": 10}, "group": "control_change"}, {"time": 164371, "annotation": {"number": 11, "value": 9}, "group": "control_change"}, {"time": 164490, "annotation": {"number": 11, "value": 8}, "group": "control_change"}, {"time": 164609, "annotation": {"number": 11, "value": 7}, "group": "control_change"}, {"time": 164728, "annotation": {"number": 11, "value": 6}, "group": "control_change"}, {"time": 164848, "annotation": {"number": 11, "value": 5}, "group": "control_change"}, {"time": 164967, "annotation": {"number": 11, "value": 4}, "group": "control_change"}, {"time": 165086, "annotation": {"number": 11, "value": 3}, "group": "control_change"}, {"time": 165205, "annotation": {"number": 11, "value": 2}, "group": "control_change"}, {"time": 165324, "annotation": {"number": 11, "value": 1}, "group": "control_change"}, {"time": 165443, "annotation": {"number": 11, "value": 0}, "group": "control_change"}, {"time": 165560, "annotation": {"number": 11, "value": 0}, "group": "control_change"}]}, {"program": 0, "is_drum": false, "name": "CHORUS", "annotations": [{"time": 219, "annotation": {"number": 0, "value": 0}, "group": "control_change"}, {"time": 241, "annotation": {"number": 32, "value": 0}, "group": "control_change"}]}, {"program": 54, "is_drum": false, "name": "CHORUS", "notes": [{"time": 104638, "pitch": 70, "duration": 413, "velocity": 120}, {"time": 105123, "pitch": 70, "duration": 406, "velocity": 120}, {"time": 105599, "pitch": 70, "duration": 178, "velocity": 120}, {"time": 105841, "pitch": 72, "duration": 451, "velocity": 120}, {"time": 106322, "pitch": 70, "duration": 183, "velocity": 120}, {"time": 106560, "pitch": 72, "duration": 188, "velocity": 120}, {"time": 106798, "pitch": 74, "duration": 292, "velocity": 120}, {"time": 107278, "pitch": 65, "duration": 202, "velocity": 120}, {"time": 107521, "pitch": 67, "duration": 133, "velocity": 120}, {"time": 107759, "pitch": 70, "duration": 462, "velocity": 120}, {"time": 108239, "pitch": 69, "duration": 190, "velocity": 120}, {"time": 108482, "pitch": 70, "duration": 215, "velocity": 120}, {"time": 108720, "pitch": 67, "duration": 186, "velocity": 120}, {"time": 108958, "pitch": 70, "duration": 207, "velocity": 120}, {"time": 109200, "pitch": 67, "duration": 191, "velocity": 120}, {"time": 109443, "pitch": 70, "duration": 163, "velocity": 120}, {"time": 109681, "pitch": 74, "duration": 230, "velocity": 120}, {"time": 109919, "pitch": 73, "duration": 242, "velocity": 120}, {"time": 110161, "pitch": 74, "duration": 1622, "velocity": 120}, {"time": 112317, "pitch": 70, "duration": 387, "velocity": 120}, {"time": 112802, "pitch": 70, "duration": 414, "velocity": 120}, {"time": 113278, "pitch": 72, "duration": 217, "velocity": 120}, {"time": 113520, "pitch": 74, "duration": 266, "velocity": 120}, {"time": 114001, "pitch": 70, "duration": 200, "velocity": 120}, {"time": 114239, "pitch": 70, "duration": 141, "velocity": 120}, {"time": 114481, "pitch": 70, "duration": 339, "velocity": 120}, {"time": 114962, "pitch": 73, "duration": 30, "velocity": 120}, {"time": 114962, "pitch": 74, "duration": 199, "velocity": 120}, {"time": 115200, "pitch": 72, "duration": 210, "velocity": 120}, {"time": 115438, "pitch": 70, "duration": 2151, "velocity": 120}], "annotations": [{"time": 284, "annotation": {"number": 7, "value": 120}, "group": "control_change"}, {"time": 306, "annotation": {"number": 11, "value": 110}, "group": "control_change"}, {"time": 328, "annotation": {"number": 10, "value": 64}, "group": "control_change"}, {"time": 350, "annotation": {"number": 91, "value": 20}, "group": "control_change"}, {"time": 372, "annotation": {"number": 93, "value": 0}, "group": "control_change"}, {"time": 394, "annotation": {"number": 101, "value": 0}, "group": "control_change"}, {"time": 415, "annotation": {"number": 100, "value": 0}, "group": "control_change"}, {"time": 437, "annotation": {"number": 6, "value": 12}, "group": "control_change"}, {"time": 459, "annotation": {"number": 101, "value": 127}, "group": "control_change"}, {"time": 482, "annotation": {"number": 100, "value": 127}, "group": "control_change"}]}]}