{"metadata": {"schema_version": "0.1", "title": "RWC-MDB-P-2001 No. 43: Centimeter no kodoku / Kazuo Nishi", "copyright": "RWC Music Database. Copyright (C) 2001 Real World Computing Partnership (contact: Masataka GOTO <m.goto@aist.go.jp>)", "source_filename": "RM-P043.SMF_SYNC.MID", "source_format": "midi"}, "resolution": 480, "tempos": [{"time": 0, "qpm": 58.8235294117647}, {"time": 480, "qpm": 162.16216216216216}, {"time": 960, "qpm": 166.66666666666666}, {"time": 1440, "qpm": 162.16216216216216}, {"time": 3360, "qpm": 166.66666666666666}, {"time": 3840, "qpm": 162.16216216216216}, {"time": 5760, "qpm": 166.66666666666666}, {"time": 6240, "qpm": 162.16216216216216}, {"time": 8160, "qpm": 166.66666666666666}, {"time": 8640, "qpm": 162.16216216216216}, {"time": 10560, "qpm": 166.66666666666666}, {"time": 11040, "qpm": 162.16216216216216}, {"time": 12960, "qpm": 166.66666666666666}, {"time": 13440, "qpm": 162.16216216216216}, {"time": 15840, "qpm": 166.66666666666666}, {"time": 16320, "qpm": 162.16216216216216}, {"time": 18240, "qpm": 166.66666666666666}, {"time": 18720, "qpm": 162.16216216216216}, {"time": 21120, "qpm": 166.66666666666666}, {"time": 21600, "qpm": 162.16216216216216}, {"time": 23520, "qpm": 166.66666666666666}, {"time": 24000, "qpm": 162.16216216216216}, {"time": 25920, "qpm": 166.66666666666666}, {"time": 26400, "qpm": 162.16216216216216}, {"time": 28320, "qpm": 166.66666666666666}, {"time": 28800, "qpm": 162.16216216216216}, {"time": 30720, "qpm": 166.66666666666666}, {"time": 31200, "qpm": 162.16216216216216}, {"time": 33120, "qpm": 166.66666666666666}, {"time": 33600, "qpm": 162.16216216216216}, {"time": 36000, "qpm": 166.66666666666666}, {"time": 36480, "qpm": 162.16216216216216}, {"time": 38400, "qpm": 166.66666666666666}, {"time": 38880, "qpm": 162.16216216216216}, {"time": 40800, "qpm": 166.66666666666666}, {"time": 41280, "qpm": 162.16216216216216}, {"time": 43200, "qpm": 166.66666666666666}, {"time": 43680, "qpm": 162.16216216216216}, {"time": 45600, "qpm": 166.66666666666666}, {"time": 46080, "qpm": 162.16216216216216}, {"time": 48000, "qpm": 166.66666666666666}, {"time": 48480, "qpm": 162.16216216216216}, {"time": 50400, "qpm": 166.66666666666666}, {"time": 50880, "qpm": 162.16216216216216}, {"time": 53280, "qpm": 166.66666666666666}, {"time": 53760, "qpm": 162.16216216216216}, {"time": 55680, "qpm": 166.66666666666666}, {"time": 56160, "qpm": 162.16216216216216}, {"time": 58080, "qpm": 166.66666666666666}, {"time": 58560, "qpm": 162.16216216216216}, {"time": 60960, "qpm": 166.66666666666666}, {"time": 61440, "qpm": 162.16216216216216}, {"time": 63360, "qpm": 166.66666666666666}, {"time": 63840, "qpm": 162.16216216216216}, {"time": 65760, "qpm": 166.66666666666666}, {"time": 66240, "qpm": 162.16216216216216}, {"time": 68160, "qpm": 166.66666666666666}, {"time": 68640, "qpm": 162.16216216216216}, {"time": 71040, "qpm": 166.66666666666666}, {"time": 71520, "qpm": 162.16216216216216}, {"time": 72960, "qpm": 166.66666666666666}, {"time": 73440, "qpm": 162.16216216216216}, {"time": 75840, "qpm": 166.66666666666666}, {"time": 76320, "qpm": 162.16216216216216}, {"time": 78240, "qpm": 166.66666666666666}, {"time": 78720, "qpm": 162.16216216216216}, {"time": 80640, "qpm": 166.66666666666666}, {"time": 81120, "qpm": 162.16216216216216}, {"time": 83520, "qpm": 166.66666666666666}, {"time": 84000, "qpm": 162.16216216216216}, {"time": 85440, "qpm": 166.66666666666666}, {"time": 85920, "qpm": 162.16216216216216}, {"time": 88320, "qpm": 166.66666666666666}, {"time": 88800, "qpm": 162.16216216216216}, {"time": 90720, "qpm": 166.66666666666666}, {"time": 91200, "qpm": 162.16216216216216}, {"time": 93120, "qpm": 166.66666666666666}, {"time": 93600, "qpm": 162.16216216216216}, {"time": 95520, "qpm": 166.66666666666666}, {"time": 96000, "qpm": 162.16216216216216}, {"time": 98400, "qpm": 166.66666666666666}, {"time": 98880, "qpm": 162.16216216216216}, {"time": 100800, "qpm": 166.66666666666666}, {"time": 101280, "qpm": 162.16216216216216}, {"time": 103200, "qpm": 166.66666666666666}, {"time": 103680, "qpm": 162.16216216216216}, {"time": 105600, "qpm": 166.66666666666666}, {"time": 106080, "qpm": 162.16216216216216}, {"time": 108480, "qpm": 166.66666666666666}, {"time": 108960, "qpm": 162.16216216216216}, {"time": 111360, "qpm": 166.66666666666666}, {"time": 111840, "qpm": 162.16216216216216}, {"time": 113280, "qpm": 166.66666666666666}, {"time": 113760, "qpm": 162.16216216216216}, {"time": 115680, "qpm": 166.66666666666666}, {"time": 116160, "qpm": 162.16216216216216}, {"time": 118560, "qpm": 166.66666666666666}, {"time": 119040, "qpm": 162.16216216216216}, {"time": 120960, "qpm": 166.66666666666666}, {"time": 121440, "qpm": 162.16216216216216}, {"time": 123360, "qpm": 166.66666666666666}, {"time": 123840, "qpm": 162.16216216216216}, {"time": 125760, "qpm": 166.66666666666666}, {"time": 126240, "qpm": 162.16216216216216}, {"time": 128160, "qpm": 166.66666666666666}, {"time": 128640, "qpm": 162.16216216216216}, {"time": 131040, "qpm": 166.66666666666666}, {"time": 131520, "qpm": 162.16216216216216}, {"time": 133440, "qpm": 166.66666666666666}, {"time": 133920, "qpm": 162.16216216216216}, {"time": 135840, "qpm": 166.66666666666666}, {"time": 136320, "qpm": 162.16216216216216}, {"time": 138240, "qpm": 166.66666666666666}, {"time": 138720, "qpm": 162.16216216216216}, {"time": 140640, "qpm": 166.66666666666666}, {"time": 141120, "qpm": 162.16216216216216}, {"time": 143040, "qpm": 166.66666666666666}, {"time": 143520, "qpm": 162.16216216216216}, {"time": 145920, "qpm": 166.66666666666666}, {"time": 146400, "qpm": 162.16216216216216}, {"time": 148320, "qpm": 166.66666666666666}, {"time": 148800, "qpm": 162.16216216216216}, {"time": 150720, "qpm": 166.66666666666666}, {"time": 151200, "qpm": 162.16216216216216}, {"time": 153120, "qpm": 166.66666666666666}, {"time": 153600, "qpm": 162.16216216216216}, {"time": 156000, "qpm": 166.66666666666666}, {"time": 156480, "qpm": 162.16216216216216}, {"time": 157920, "qpm": 166.66666666666666}, {"time": 158400, "qpm": 162.16216216216216}, {"time": 160800, "qpm": 166.66666666666666}, {"time": 161280, "qpm": 162.16216216216216}, {"time": 163200, "qpm": 166.66666666666666}, {"time": 163680, "qpm": 162.16216216216216}, {"time": 165600, "qpm": 166.66666666666666}, {"time": 166080, "qpm": 162.16216216216216}, {"time": 168480, "qpm": 166.66666666666666}, {"time": 168960, "qpm": 162.16216216216216}, {"time": 170880, "qpm": 166.66666666666666}, {"time": 171360, "qpm": 162.16216216216216}, {"time": 172800, "qpm": 166.66666666666666}, {"time": 173280, "qpm": 162.16216216216216}, {"time": 175680, "qpm": 166.66666666666666}, {"time": 176160, "qpm": 162.16216216216216}, {"time": 178080, "qpm": 166.66666666666666}, {"time": 178560, "qpm": 162.16216216216216}, {"time": 180480, "qpm": 166.66666666666666}, {"time": 180960, "qpm": 162.16216216216216}, {"time": 182880, "qpm": 166.66666666666666}, {"time": 183360, "qpm": 162.16216216216216}, {"time": 185760, "qpm": 166.66666666666666}, {"time": 186240, "qpm": 162.16216216216216}, {"time": 188160, "qpm": 166.66666666666666}, {"time": 188640, "qpm": 162.16216216216216}, {"time": 190560, "qpm": 166.66666666666666}, {"time": 191040, "qpm": 162.16216216216216}, {"time": 193440, "qpm": 166.66666666666666}, {"time": 193920, "qpm": 162.16216216216216}, {"time": 195840, "qpm": 166.66666666666666}, {"time": 196320, "qpm": 162.16216216216216}, {"time": 198240, "qpm": 166.66666666666666}, {"time": 198720, "qpm": 162.16216216216216}, {"time": 200640, "qpm": 166.66666666666666}, {"time": 201120, "qpm": 162.16216216216216}, {"time": 203040, "qpm": 166.66666666666666}, {"time": 203520, "qpm": 162.16216216216216}, {"time": 205920, "qpm": 166.66666666666666}, {"time": 206400, "qpm": 162.16216216216216}, {"time": 208320, "qpm": 166.66666666666666}, {"time": 208800, "qpm": 162.16216216216216}, {"time": 210720, "qpm": 166.66666666666666}, {"time": 211200, "qpm": 162.16216216216216}, {"time": 213120, "qpm": 166.66666666666666}, {"time": 213600, "qpm": 162.16216216216216}, {"time": 215520, "qpm": 166.66666666666666}, {"time": 216000, "qpm": 162.16216216216216}, {"time": 218400, "qpm": 166.66666666666666}, {"time": 218880, "qpm": 162.16216216216216}, {"time": 220800, "qpm": 166.66666666666666}, {"time": 221280, "qpm": 162.16216216216216}, {"time": 223200, "qpm": 166.66666666666666}, {"time": 223680, "qpm": 162.16216216216216}, {"time": 225600, "qpm": 166.66666666666666}, {"time": 226080, "qpm": 162.16216216216216}, {"time": 228000, "qpm": 166.66666666666666}, {"time": 228480, "qpm": 162.16216216216216}, {"time": 230880, "qpm": 166.66666666666666}, {"time": 231360, "qpm": 162.16216216216216}, {"time": 233280, "qpm": 166.66666666666666}, {"time": 233760, "qpm": 162.16216216216216}, {"time": 235680, "qpm": 166.66666666666666}, {"time": 236160, "qpm": 162.16216216216216}, {"time": 238080, "qpm": 166.66666666666666}, {"time": 238560, "qpm": 162.16216216216216}, {"time": 240480, "qpm": 166.66666666666666}, {"time": 240960, "qpm": 162.16216216216216}, {"time": 243360, "qpm": 166.66666666666666}, {"time": 243840, "qpm": 162.16216216216216}, {"time": 245760, "qpm": 166.66666666666666}, {"time": 246240, "qpm": 162.16216216216216}, {"time": 248160, "qpm": 166.66666666666666}, {"time": 248640, "qpm": 162.16216216216216}, {"time": 250560, "qpm": 166.66666666666666}, {"time": 251040, "qpm": 162.16216216216216}, {"time": 252960, "qpm": 166.66666666666666}, {"time": 253440, "qpm": 162.16216216216216}, {"time": 255840, "qpm": 166.66666666666666}, {"time": 256320, "qpm": 162.16216216216216}, {"time": 258240, "qpm": 166.66666666666666}, {"time": 258720, "qpm": 162.16216216216216}], "key_signatures": [{"time": 0, "root": 7, "mode": "major"}], "time_signatures": [{"time": 0, "numerator": 3, "denominator": 4}, {"time": 15840, "numerator": 4, "denominator": 4}, {"time": 29280, "numerator": 2, "denominator": 4}, {"time": 30240, "numerator": 4, "denominator": 4}, {"time": 91680, "numerator": 3, "denominator": 4}, {"time": 103200, "numerator": 4, "denominator": 4}, {"time": 116640, "numerator": 2, "denominator": 4}, {"time": 117600, "numerator": 4, "denominator": 4}, {"time": 248160, "numerator": 3, "denominator": 4}], "tracks": [{"program": 0, "is_drum": false, "name": "A.P", "notes": [{"time": 4316, "pitch": 43, "duration": 448, "velocity": 104}, {"time": 4794, "pitch": 71, "duration": 245, "velocity": 110}, {"time": 4794, "pitch": 74, "duration": 245, "velocity": 104}, {"time": 4794, "pitch": 79, "duration": 245, "velocity": 100}, {"time": 5284, "pitch": 71, "duration": 239, "velocity": 110}, {"time": 5284, "pitch": 74, "duration": 239, "velocity": 104}, {"time": 5284, "pitch": 79, "duration": 239, "velocity": 100}, {"time": 5762, "pitch": 41, "duration": 448, "velocity": 104}, {"time": 6239, "pitch": 69, "duration": 239, "velocity": 110}, {"time": 6239, "pitch": 72, "duration": 239, "velocity": 104}, {"time": 6239, "pitch": 77, "duration": 239, "velocity": 100}, {"time": 6717, "pitch": 69, "duration": 239, "velocity": 110}, {"time": 6717, "pitch": 72, "duration": 239, "velocity": 104}, {"time": 6717, "pitch": 77, "duration": 239, "velocity": 100}, {"time": 7195, "pitch": 40, "duration": 459, "velocity": 104}, {"time": 7685, "pitch": 71, "duration": 239, "velocity": 108}, {"time": 7685, "pitch": 74, "duration": 239, "velocity": 106}, {"time": 7685, "pitch": 76, "duration": 239, "velocity": 106}, {"time": 7685, "pitch": 80, "duration": 239, "velocity": 98}, {"time": 8163, "pitch": 71, "duration": 238, "velocity": 108}, {"time": 8163, "pitch": 74, "duration": 238, "velocity": 106}, {"time": 8163, "pitch": 76, "duration": 238, "velocity": 106}, {"time": 8163, "pitch": 80, "duration": 238, "velocity": 98}, {"time": 8640, "pitch": 39, "duration": 448, "velocity": 108}, {"time": 9118, "pitch": 67, "duration": 238, "velocity": 110}, {"time": 9118, "pitch": 70, "duration": 238, "velocity": 105}, {"time": 9118, "pitch": 75, "duration": 238, "velocity": 100}, {"time": 9595, "pitch": 55, "duration": 245, "velocity": 90}, {"time": 9595, "pitch": 71, "duration": 245, "velocity": 110}, {"time": 9595, "pitch": 74, "duration": 245, "velocity": 105}, {"time": 9595, "pitch": 79, "duration": 245, "velocity": 100}, {"time": 10086, "pitch": 43, "duration": 447, "velocity": 104}, {"time": 10563, "pitch": 71, "duration": 239, "velocity": 110}, {"time": 10563, "pitch": 74, "duration": 239, "velocity": 104}, {"time": 10563, "pitch": 79, "duration": 239, "velocity": 100}, {"time": 11041, "pitch": 71, "duration": 238, "velocity": 110}, {"time": 11041, "pitch": 74, "duration": 238, "velocity": 104}, {"time": 11041, "pitch": 79, "duration": 238, "velocity": 100}, {"time": 11518, "pitch": 41, "duration": 448, "velocity": 104}, {"time": 11996, "pitch": 69, "duration": 245, "velocity": 110}, {"time": 11996, "pitch": 72, "duration": 245, "velocity": 104}, {"time": 11996, "pitch": 77, "duration": 245, "velocity": 100}, {"time": 12486, "pitch": 69, "duration": 239, "velocity": 110}, {"time": 12486, "pitch": 72, "duration": 239, "velocity": 104}, {"time": 12486, "pitch": 77, "duration": 239, "velocity": 100}, {"time": 12964, "pitch": 40, "duration": 448, "velocity": 104}, {"time": 13441, "pitch": 71, "duration": 239, "velocity": 110}, {"time": 13441, "pitch": 74, "duration": 239, "velocity": 110}, {"time": 13441, "pitch": 76, "duration": 239, "velocity": 110}, {"time": 13441, "pitch": 79, "duration": 239, "velocity": 110}, {"time": 13441, "pitch": 80, "duration": 239, "velocity": 110}, {"time": 13919, "pitch": 71, "duration": 239, "velocity": 108}, {"time": 13919, "pitch": 74, "duration": 239, "velocity": 106}, {"time": 13919, "pitch": 76, "duration": 239, "velocity": 106}, {"time": 13919, "pitch": 77, "duration": 239, "velocity": 104}, {"time": 13919, "pitch": 80, "duration": 239, "velocity": 98}, {"time": 14396, "pitch": 39, "duration": 448, "velocity": 108}, {"time": 14874, "pitch": 67, "duration": 245, "velocity": 110}, {"time": 14874, "pitch": 70, "duration": 245, "velocity": 105}, {"time": 14874, "pitch": 75, "duration": 245, "velocity": 100}, {"time": 15364, "pitch": 55, "duration": 239, "velocity": 90}, {"time": 15364, "pitch": 71, "duration": 239, "velocity": 110}, {"time": 15364, "pitch": 74, "duration": 239, "velocity": 105}, {"time": 15364, "pitch": 79, "duration": 239, "velocity": 100}, {"time": 49438, "pitch": 57, "duration": 1903, "velocity": 100}, {"time": 49438, "pitch": 60, "duration": 1903, "velocity": 100}, {"time": 49438, "pitch": 64, "duration": 1903, "velocity": 100}, {"time": 51361, "pitch": 56, "duration": 1903, "velocity": 100}, {"time": 51361, "pitch": 59, "duration": 1903, "velocity": 100}, {"time": 51361, "pitch": 64, "duration": 1903, "velocity": 100}, {"time": 53284, "pitch": 55, "duration": 1890, "velocity": 100}, {"time": 53284, "pitch": 60, "duration": 1890, "velocity": 100}, {"time": 53284, "pitch": 63, "duration": 1890, "velocity": 100}, {"time": 55194, "pitch": 55, "duration": 1903, "velocity": 100}, {"time": 55194, "pitch": 58, "duration": 1903, "velocity": 100}, {"time": 55194, "pitch": 62, "duration": 1903, "velocity": 100}, {"time": 57117, "pitch": 62, "duration": 219, "velocity": 80}, {"time": 57117, "pitch": 66, "duration": 219, "velocity": 90}, {"time": 57117, "pitch": 69, "duration": 219, "velocity": 100}, {"time": 57595, "pitch": 62, "duration": 225, "velocity": 80}, {"time": 57595, "pitch": 66, "duration": 225, "velocity": 90}, {"time": 57595, "pitch": 69, "duration": 225, "velocity": 100}, {"time": 58085, "pitch": 50, "duration": 448, "velocity": 90}, {"time": 58563, "pitch": 62, "duration": 219, "velocity": 80}, {"time": 58563, "pitch": 66, "duration": 219, "velocity": 90}, {"time": 58563, "pitch": 69, "duration": 219, "velocity": 100}, {"time": 59040, "pitch": 62, "duration": 219, "velocity": 80}, {"time": 59040, "pitch": 66, "duration": 219, "velocity": 90}, {"time": 59040, "pitch": 69, "duration": 219, "velocity": 100}, {"time": 59518, "pitch": 50, "duration": 448, "velocity": 90}, {"time": 59996, "pitch": 74, "duration": 122, "velocity": 112}, {"time": 59996, "pitch": 86, "duration": 122, "velocity": 100}, {"time": 60241, "pitch": 74, "duration": 122, "velocity": 112}, {"time": 60241, "pitch": 86, "duration": 122, "velocity": 100}, {"time": 60486, "pitch": 74, "duration": 119, "velocity": 112}, {"time": 60486, "pitch": 86, "duration": 119, "velocity": 100}, {"time": 60725, "pitch": 74, "duration": 119, "velocity": 112}, {"time": 60725, "pitch": 86, "duration": 119, "velocity": 100}, {"time": 60964, "pitch": 43, "duration": 1890, "velocity": 100}, {"time": 60964, "pitch": 55, "duration": 1890, "velocity": 90}, {"time": 60964, "pitch": 59, "duration": 1890, "velocity": 85}, {"time": 60964, "pitch": 62, "duration": 1890, "velocity": 95}, {"time": 60964, "pitch": 64, "duration": 1890, "velocity": 100}, {"time": 62874, "pitch": 43, "duration": 1903, "velocity": 100}, {"time": 62874, "pitch": 55, "duration": 1903, "velocity": 85}, {"time": 62874, "pitch": 60, "duration": 1903, "velocity": 95}, {"time": 62874, "pitch": 64, "duration": 1903, "velocity": 100}, {"time": 64797, "pitch": 43, "duration": 1903, "velocity": 100}, {"time": 64797, "pitch": 55, "duration": 1903, "velocity": 90}, {"time": 64797, "pitch": 59, "duration": 1903, "velocity": 85}, {"time": 64807, "pitch": 62, "duration": 1903, "velocity": 95}, {"time": 64817, "pitch": 64, "duration": 1903, "velocity": 100}, {"time": 66720, "pitch": 43, "duration": 1903, "velocity": 100}, {"time": 66720, "pitch": 57, "duration": 1903, "velocity": 85}, {"time": 66720, "pitch": 62, "duration": 1903, "velocity": 95}, {"time": 66720, "pitch": 65, "duration": 1903, "velocity": 100}, {"time": 68643, "pitch": 43, "duration": 1903, "velocity": 100}, {"time": 68643, "pitch": 55, "duration": 1903, "velocity": 90}, {"time": 68643, "pitch": 59, "duration": 1903, "velocity": 85}, {"time": 68643, "pitch": 62, "duration": 1903, "velocity": 95}, {"time": 68643, "pitch": 64, "duration": 1903, "velocity": 100}, {"time": 69359, "pitch": 71, "duration": 1105, "velocity": 94}, {"time": 69479, "pitch": 74, "duration": 1016, "velocity": 97}, {"time": 69598, "pitch": 79, "duration": 927, "velocity": 110}, {"time": 70566, "pitch": 43, "duration": 1890, "velocity": 100}, {"time": 70566, "pitch": 55, "duration": 1890, "velocity": 85}, {"time": 70566, "pitch": 60, "duration": 1890, "velocity": 95}, {"time": 70566, "pitch": 64, "duration": 1890, "velocity": 100}, {"time": 72476, "pitch": 43, "duration": 1903, "velocity": 100}, {"time": 72476, "pitch": 55, "duration": 1903, "velocity": 90}, {"time": 72476, "pitch": 59, "duration": 1903, "velocity": 85}, {"time": 72476, "pitch": 62, "duration": 1903, "velocity": 95}, {"time": 72476, "pitch": 64, "duration": 1903, "velocity": 100}, {"time": 73199, "pitch": 86, "duration": 653, "velocity": 92}, {"time": 73683, "pitch": 83, "duration": 647, "velocity": 89}, {"time": 74161, "pitch": 79, "duration": 218, "velocity": 85}, {"time": 74399, "pitch": 43, "duration": 1904, "velocity": 100}, {"time": 74399, "pitch": 57, "duration": 1904, "velocity": 85}, {"time": 74399, "pitch": 62, "duration": 1904, "velocity": 95}, {"time": 74399, "pitch": 65, "duration": 1904, "velocity": 100}, {"time": 76322, "pitch": 48, "duration": 219, "velocity": 70}, {"time": 76322, "pitch": 72, "duration": 219, "velocity": 95}, {"time": 76322, "pitch": 76, "duration": 219, "velocity": 100}, {"time": 76322, "pitch": 79, "duration": 219, "velocity": 85}, {"time": 76800, "pitch": 48, "duration": 219, "velocity": 70}, {"time": 76800, "pitch": 72, "duration": 219, "velocity": 95}, {"time": 76800, "pitch": 76, "duration": 219, "velocity": 100}, {"time": 76800, "pitch": 79, "duration": 219, "velocity": 85}, {"time": 77277, "pitch": 48, "duration": 219, "velocity": 70}, {"time": 77277, "pitch": 72, "duration": 219, "velocity": 95}, {"time": 77277, "pitch": 76, "duration": 219, "velocity": 100}, {"time": 77277, "pitch": 79, "duration": 219, "velocity": 85}, {"time": 77755, "pitch": 48, "duration": 225, "velocity": 70}, {"time": 77755, "pitch": 72, "duration": 225, "velocity": 95}, {"time": 77755, "pitch": 76, "duration": 225, "velocity": 100}, {"time": 77755, "pitch": 79, "duration": 225, "velocity": 85}, {"time": 78246, "pitch": 43, "duration": 218, "velocity": 70}, {"time": 78246, "pitch": 71, "duration": 218, "velocity": 95}, {"time": 78246, "pitch": 74, "duration": 218, "velocity": 100}, {"time": 78246, "pitch": 79, "duration": 218, "velocity": 85}, {"time": 78723, "pitch": 43, "duration": 219, "velocity": 70}, {"time": 78723, "pitch": 71, "duration": 219, "velocity": 95}, {"time": 78723, "pitch": 74, "duration": 219, "velocity": 100}, {"time": 78723, "pitch": 79, "duration": 219, "velocity": 85}, {"time": 79201, "pitch": 43, "duration": 218, "velocity": 70}, {"time": 79201, "pitch": 71, "duration": 218, "velocity": 95}, {"time": 79201, "pitch": 74, "duration": 218, "velocity": 100}, {"time": 79201, "pitch": 79, "duration": 218, "velocity": 85}, {"time": 79678, "pitch": 43, "duration": 219, "velocity": 70}, {"time": 79678, "pitch": 71, "duration": 219, "velocity": 95}, {"time": 79678, "pitch": 74, "duration": 219, "velocity": 100}, {"time": 79678, "pitch": 79, "duration": 219, "velocity": 85}, {"time": 80156, "pitch": 48, "duration": 224, "velocity": 70}, {"time": 80156, "pitch": 72, "duration": 224, "velocity": 95}, {"time": 80156, "pitch": 76, "duration": 224, "velocity": 100}, {"time": 80156, "pitch": 79, "duration": 224, "velocity": 85}, {"time": 80646, "pitch": 48, "duration": 219, "velocity": 70}, {"time": 80646, "pitch": 72, "duration": 219, "velocity": 95}, {"time": 80646, "pitch": 76, "duration": 219, "velocity": 100}, {"time": 80646, "pitch": 79, "duration": 219, "velocity": 85}, {"time": 81124, "pitch": 48, "duration": 219, "velocity": 70}, {"time": 81124, "pitch": 72, "duration": 219, "velocity": 95}, {"time": 81124, "pitch": 76, "duration": 219, "velocity": 100}, {"time": 81124, "pitch": 79, "duration": 219, "velocity": 85}, {"time": 81601, "pitch": 48, "duration": 219, "velocity": 70}, {"time": 81601, "pitch": 72, "duration": 219, "velocity": 95}, {"time": 81601, "pitch": 76, "duration": 219, "velocity": 100}, {"time": 81601, "pitch": 79, "duration": 219, "velocity": 85}, {"time": 82079, "pitch": 43, "duration": 219, "velocity": 70}, {"time": 82079, "pitch": 71, "duration": 219, "velocity": 95}, {"time": 82079, "pitch": 74, "duration": 219, "velocity": 100}, {"time": 82079, "pitch": 79, "duration": 219, "velocity": 85}, {"time": 82556, "pitch": 43, "duration": 219, "velocity": 70}, {"time": 82556, "pitch": 71, "duration": 219, "velocity": 95}, {"time": 82556, "pitch": 74, "duration": 219, "velocity": 100}, {"time": 82556, "pitch": 79, "duration": 219, "velocity": 85}, {"time": 83034, "pitch": 43, "duration": 225, "velocity": 70}, {"time": 83034, "pitch": 71, "duration": 225, "velocity": 95}, {"time": 83034, "pitch": 74, "duration": 225, "velocity": 100}, {"time": 83034, "pitch": 79, "duration": 225, "velocity": 85}, {"time": 83524, "pitch": 43, "duration": 219, "velocity": 70}, {"time": 83524, "pitch": 71, "duration": 219, "velocity": 95}, {"time": 83524, "pitch": 74, "duration": 219, "velocity": 100}, {"time": 83524, "pitch": 79, "duration": 219, "velocity": 85}, {"time": 84002, "pitch": 48, "duration": 219, "velocity": 70}, {"time": 84002, "pitch": 72, "duration": 219, "velocity": 95}, {"time": 84002, "pitch": 76, "duration": 219, "velocity": 100}, {"time": 84002, "pitch": 79, "duration": 219, "velocity": 85}, {"time": 84479, "pitch": 48, "duration": 219, "velocity": 70}, {"time": 84479, "pitch": 72, "duration": 219, "velocity": 95}, {"time": 84479, "pitch": 76, "duration": 219, "velocity": 100}, {"time": 84479, "pitch": 79, "duration": 219, "velocity": 85}, {"time": 84957, "pitch": 47, "duration": 219, "velocity": 70}, {"time": 84957, "pitch": 72, "duration": 219, "velocity": 95}, {"time": 84957, "pitch": 76, "duration": 219, "velocity": 100}, {"time": 84957, "pitch": 79, "duration": 219, "velocity": 85}, {"time": 85434, "pitch": 47, "duration": 225, "velocity": 70}, {"time": 85434, "pitch": 72, "duration": 225, "velocity": 95}, {"time": 85434, "pitch": 76, "duration": 225, "velocity": 100}, {"time": 85434, "pitch": 79, "duration": 225, "velocity": 85}, {"time": 85925, "pitch": 45, "duration": 219, "velocity": 70}, {"time": 85925, "pitch": 72, "duration": 219, "velocity": 95}, {"time": 85925, "pitch": 76, "duration": 219, "velocity": 100}, {"time": 85925, "pitch": 79, "duration": 219, "velocity": 85}, {"time": 86403, "pitch": 45, "duration": 218, "velocity": 70}, {"time": 86403, "pitch": 72, "duration": 218, "velocity": 95}, {"time": 86403, "pitch": 76, "duration": 218, "velocity": 100}, {"time": 86403, "pitch": 79, "duration": 218, "velocity": 85}, {"time": 86880, "pitch": 43, "duration": 219, "velocity": 70}, {"time": 86880, "pitch": 72, "duration": 219, "velocity": 95}, {"time": 86880, "pitch": 76, "duration": 219, "velocity": 100}, {"time": 86880, "pitch": 79, "duration": 219, "velocity": 85}, {"time": 87358, "pitch": 43, "duration": 218, "velocity": 70}, {"time": 87358, "pitch": 72, "duration": 218, "velocity": 95}, {"time": 87358, "pitch": 76, "duration": 218, "velocity": 100}, {"time": 87358, "pitch": 79, "duration": 218, "velocity": 85}, {"time": 87835, "pitch": 41, "duration": 2851, "velocity": 70}, {"time": 87835, "pitch": 69, "duration": 729, "velocity": 100}, {"time": 87835, "pitch": 72, "duration": 729, "velocity": 85}, {"time": 87835, "pitch": 77, "duration": 729, "velocity": 95}, {"time": 88564, "pitch": 72, "duration": 239, "velocity": 81}, {"time": 88564, "pitch": 77, "duration": 239, "velocity": 91}, {"time": 88564, "pitch": 81, "duration": 239, "velocity": 96}, {"time": 88803, "pitch": 72, "duration": 716, "velocity": 84}, {"time": 88803, "pitch": 77, "duration": 716, "velocity": 94}, {"time": 88803, "pitch": 81, "duration": 716, "velocity": 99}, {"time": 89519, "pitch": 77, "duration": 239, "velocity": 90}, {"time": 89519, "pitch": 81, "duration": 239, "velocity": 95}, {"time": 89519, "pitch": 84, "duration": 239, "velocity": 80}, {"time": 89758, "pitch": 77, "duration": 928, "velocity": 95}, {"time": 89758, "pitch": 81, "duration": 928, "velocity": 100}, {"time": 89758, "pitch": 84, "duration": 928, "velocity": 85}, {"time": 90726, "pitch": 55, "duration": 239, "velocity": 100}, {"time": 90726, "pitch": 67, "duration": 239, "velocity": 100}, {"time": 91204, "pitch": 55, "duration": 239, "velocity": 100}, {"time": 91204, "pitch": 67, "duration": 239, "velocity": 100}, {"time": 91681, "pitch": 43, "duration": 448, "velocity": 104}, {"time": 92159, "pitch": 71, "duration": 239, "velocity": 110}, {"time": 92159, "pitch": 74, "duration": 239, "velocity": 104}, {"time": 92159, "pitch": 79, "duration": 239, "velocity": 100}, {"time": 92636, "pitch": 71, "duration": 239, "velocity": 110}, {"time": 92636, "pitch": 74, "duration": 239, "velocity": 104}, {"time": 92636, "pitch": 79, "duration": 239, "velocity": 100}, {"time": 93114, "pitch": 41, "duration": 460, "velocity": 104}, {"time": 93604, "pitch": 69, "duration": 239, "velocity": 110}, {"time": 93604, "pitch": 72, "duration": 239, "velocity": 104}, {"time": 93604, "pitch": 77, "duration": 239, "velocity": 100}, {"time": 94082, "pitch": 69, "duration": 239, "velocity": 110}, {"time": 94082, "pitch": 72, "duration": 239, "velocity": 104}, {"time": 94082, "pitch": 77, "duration": 239, "velocity": 100}, {"time": 94559, "pitch": 40, "duration": 448, "velocity": 104}, {"time": 95037, "pitch": 71, "duration": 239, "velocity": 108}, {"time": 95037, "pitch": 74, "duration": 239, "velocity": 106}, {"time": 95037, "pitch": 76, "duration": 239, "velocity": 106}, {"time": 95037, "pitch": 80, "duration": 239, "velocity": 98}, {"time": 95515, "pitch": 71, "duration": 245, "velocity": 108}, {"time": 95515, "pitch": 74, "duration": 245, "velocity": 106}, {"time": 95515, "pitch": 76, "duration": 245, "velocity": 106}, {"time": 95515, "pitch": 80, "duration": 245, "velocity": 98}, {"time": 96005, "pitch": 39, "duration": 448, "velocity": 108}, {"time": 96483, "pitch": 67, "duration": 238, "velocity": 110}, {"time": 96483, "pitch": 70, "duration": 238, "velocity": 105}, {"time": 96483, "pitch": 75, "duration": 238, "velocity": 100}, {"time": 96960, "pitch": 55, "duration": 239, "velocity": 90}, {"time": 96960, "pitch": 71, "duration": 239, "velocity": 110}, {"time": 96960, "pitch": 74, "duration": 239, "velocity": 105}, {"time": 96960, "pitch": 79, "duration": 239, "velocity": 100}, {"time": 97438, "pitch": 43, "duration": 447, "velocity": 104}, {"time": 97915, "pitch": 71, "duration": 245, "velocity": 110}, {"time": 97915, "pitch": 74, "duration": 245, "velocity": 104}, {"time": 97915, "pitch": 79, "duration": 245, "velocity": 100}, {"time": 98406, "pitch": 71, "duration": 238, "velocity": 110}, {"time": 98406, "pitch": 74, "duration": 238, "velocity": 104}, {"time": 98406, "pitch": 79, "duration": 238, "velocity": 100}, {"time": 98883, "pitch": 41, "duration": 448, "velocity": 104}, {"time": 99361, "pitch": 69, "duration": 239, "velocity": 110}, {"time": 99361, "pitch": 72, "duration": 239, "velocity": 104}, {"time": 99361, "pitch": 77, "duration": 239, "velocity": 100}, {"time": 99838, "pitch": 69, "duration": 239, "velocity": 110}, {"time": 99838, "pitch": 72, "duration": 239, "velocity": 104}, {"time": 99838, "pitch": 77, "duration": 239, "velocity": 100}, {"time": 100316, "pitch": 40, "duration": 460, "velocity": 104}, {"time": 100806, "pitch": 71, "duration": 239, "velocity": 110}, {"time": 100806, "pitch": 74, "duration": 239, "velocity": 110}, {"time": 100806, "pitch": 76, "duration": 239, "velocity": 110}, {"time": 100806, "pitch": 79, "duration": 239, "velocity": 110}, {"time": 100806, "pitch": 80, "duration": 239, "velocity": 110}, {"time": 101284, "pitch": 71, "duration": 239, "velocity": 108}, {"time": 101284, "pitch": 74, "duration": 239, "velocity": 106}, {"time": 101284, "pitch": 76, "duration": 239, "velocity": 106}, {"time": 101284, "pitch": 77, "duration": 239, "velocity": 104}, {"time": 101284, "pitch": 80, "duration": 239, "velocity": 98}, {"time": 101761, "pitch": 39, "duration": 448, "velocity": 108}, {"time": 102239, "pitch": 67, "duration": 239, "velocity": 110}, {"time": 102239, "pitch": 70, "duration": 239, "velocity": 105}, {"time": 102239, "pitch": 75, "duration": 239, "velocity": 100}, {"time": 102716, "pitch": 55, "duration": 239, "velocity": 90}, {"time": 102716, "pitch": 71, "duration": 239, "velocity": 110}, {"time": 102716, "pitch": 74, "duration": 239, "velocity": 105}, {"time": 102716, "pitch": 79, "duration": 239, "velocity": 100}, {"time": 136803, "pitch": 57, "duration": 1903, "velocity": 100}, {"time": 136803, "pitch": 60, "duration": 1903, "velocity": 100}, {"time": 136803, "pitch": 64, "duration": 1903, "velocity": 100}, {"time": 138726, "pitch": 56, "duration": 1890, "velocity": 100}, {"time": 138726, "pitch": 59, "duration": 1890, "velocity": 100}, {"time": 138726, "pitch": 64, "duration": 1890, "velocity": 100}, {"time": 140636, "pitch": 55, "duration": 1903, "velocity": 100}, {"time": 140636, "pitch": 60, "duration": 1903, "velocity": 100}, {"time": 140636, "pitch": 63, "duration": 1903, "velocity": 100}, {"time": 142559, "pitch": 55, "duration": 1903, "velocity": 100}, {"time": 142559, "pitch": 58, "duration": 1903, "velocity": 100}, {"time": 142559, "pitch": 62, "duration": 1903, "velocity": 100}, {"time": 144482, "pitch": 62, "duration": 219, "velocity": 80}, {"time": 144482, "pitch": 66, "duration": 219, "velocity": 90}, {"time": 144482, "pitch": 69, "duration": 219, "velocity": 100}, {"time": 144960, "pitch": 62, "duration": 219, "velocity": 80}, {"time": 144960, "pitch": 66, "duration": 219, "velocity": 90}, {"time": 144960, "pitch": 69, "duration": 219, "velocity": 100}, {"time": 145437, "pitch": 50, "duration": 448, "velocity": 90}, {"time": 145915, "pitch": 62, "duration": 225, "velocity": 80}, {"time": 145915, "pitch": 66, "duration": 225, "velocity": 90}, {"time": 145915, "pitch": 69, "duration": 225, "velocity": 100}, {"time": 146405, "pitch": 62, "duration": 219, "velocity": 80}, {"time": 146405, "pitch": 66, "duration": 219, "velocity": 90}, {"time": 146405, "pitch": 69, "duration": 219, "velocity": 100}, {"time": 146883, "pitch": 50, "duration": 448, "velocity": 90}, {"time": 147360, "pitch": 74, "duration": 120, "velocity": 112}, {"time": 147360, "pitch": 86, "duration": 120, "velocity": 100}, {"time": 147599, "pitch": 74, "duration": 120, "velocity": 112}, {"time": 147599, "pitch": 86, "duration": 120, "velocity": 100}, {"time": 147838, "pitch": 74, "duration": 119, "velocity": 112}, {"time": 147838, "pitch": 86, "duration": 119, "velocity": 100}, {"time": 148077, "pitch": 74, "duration": 119, "velocity": 112}, {"time": 148077, "pitch": 86, "duration": 119, "velocity": 100}, {"time": 148316, "pitch": 43, "duration": 1903, "velocity": 100}, {"time": 148316, "pitch": 55, "duration": 1903, "velocity": 90}, {"time": 148316, "pitch": 59, "duration": 1903, "velocity": 85}, {"time": 148316, "pitch": 62, "duration": 1903, "velocity": 95}, {"time": 148316, "pitch": 64, "duration": 1903, "velocity": 100}, {"time": 150239, "pitch": 43, "duration": 1903, "velocity": 100}, {"time": 150239, "pitch": 55, "duration": 1903, "velocity": 85}, {"time": 150239, "pitch": 60, "duration": 1903, "velocity": 95}, {"time": 150239, "pitch": 64, "duration": 1903, "velocity": 100}, {"time": 152162, "pitch": 43, "duration": 1903, "velocity": 100}, {"time": 152162, "pitch": 55, "duration": 1903, "velocity": 90}, {"time": 152162, "pitch": 59, "duration": 1903, "velocity": 85}, {"time": 152172, "pitch": 62, "duration": 1903, "velocity": 95}, {"time": 152182, "pitch": 64, "duration": 1903, "velocity": 100}, {"time": 154085, "pitch": 43, "duration": 1890, "velocity": 100}, {"time": 154085, "pitch": 57, "duration": 1890, "velocity": 85}, {"time": 154085, "pitch": 62, "duration": 1890, "velocity": 95}, {"time": 154085, "pitch": 65, "duration": 1890, "velocity": 100}, {"time": 155995, "pitch": 43, "duration": 1903, "velocity": 100}, {"time": 155995, "pitch": 55, "duration": 1903, "velocity": 90}, {"time": 155995, "pitch": 59, "duration": 1903, "velocity": 85}, {"time": 155995, "pitch": 62, "duration": 1903, "velocity": 95}, {"time": 155995, "pitch": 64, "duration": 1903, "velocity": 100}, {"time": 156724, "pitch": 71, "duration": 1095, "velocity": 94}, {"time": 156844, "pitch": 74, "duration": 1004, "velocity": 97}, {"time": 156963, "pitch": 79, "duration": 915, "velocity": 110}, {"time": 157918, "pitch": 43, "duration": 1903, "velocity": 100}, {"time": 157918, "pitch": 55, "duration": 1903, "velocity": 85}, {"time": 157918, "pitch": 60, "duration": 1903, "velocity": 95}, {"time": 157918, "pitch": 64, "duration": 1903, "velocity": 100}, {"time": 159841, "pitch": 43, "duration": 1903, "velocity": 100}, {"time": 159841, "pitch": 55, "duration": 1903, "velocity": 90}, {"time": 159841, "pitch": 59, "duration": 1903, "velocity": 85}, {"time": 159841, "pitch": 62, "duration": 1903, "velocity": 95}, {"time": 159841, "pitch": 64, "duration": 1903, "velocity": 100}, {"time": 160558, "pitch": 86, "duration": 646, "velocity": 92}, {"time": 161035, "pitch": 83, "duration": 658, "velocity": 89}, {"time": 161519, "pitch": 79, "duration": 225, "velocity": 85}, {"time": 161764, "pitch": 43, "duration": 1891, "velocity": 100}, {"time": 161764, "pitch": 57, "duration": 1891, "velocity": 85}, {"time": 161764, "pitch": 62, "duration": 1891, "velocity": 95}, {"time": 161764, "pitch": 65, "duration": 1891, "velocity": 100}, {"time": 163674, "pitch": 48, "duration": 225, "velocity": 70}, {"time": 163674, "pitch": 72, "duration": 225, "velocity": 95}, {"time": 163674, "pitch": 76, "duration": 225, "velocity": 100}, {"time": 163674, "pitch": 79, "duration": 225, "velocity": 85}, {"time": 164165, "pitch": 48, "duration": 219, "velocity": 70}, {"time": 164165, "pitch": 72, "duration": 219, "velocity": 95}, {"time": 164165, "pitch": 76, "duration": 219, "velocity": 100}, {"time": 164165, "pitch": 79, "duration": 219, "velocity": 85}, {"time": 164642, "pitch": 48, "duration": 219, "velocity": 70}, {"time": 164642, "pitch": 72, "duration": 219, "velocity": 95}, {"time": 164642, "pitch": 76, "duration": 219, "velocity": 100}, {"time": 164642, "pitch": 79, "duration": 219, "velocity": 85}, {"time": 165120, "pitch": 48, "duration": 219, "velocity": 70}, {"time": 165120, "pitch": 72, "duration": 219, "velocity": 95}, {"time": 165120, "pitch": 76, "duration": 219, "velocity": 100}, {"time": 165120, "pitch": 79, "duration": 219, "velocity": 85}, {"time": 165598, "pitch": 43, "duration": 218, "velocity": 70}, {"time": 165598, "pitch": 71, "duration": 218, "velocity": 95}, {"time": 165598, "pitch": 74, "duration": 218, "velocity": 100}, {"time": 165598, "pitch": 79, "duration": 218, "velocity": 85}, {"time": 166075, "pitch": 43, "duration": 225, "velocity": 70}, {"time": 166075, "pitch": 71, "duration": 225, "velocity": 95}, {"time": 166075, "pitch": 74, "duration": 225, "velocity": 100}, {"time": 166075, "pitch": 79, "duration": 225, "velocity": 85}, {"time": 166566, "pitch": 43, "duration": 218, "velocity": 70}, {"time": 166566, "pitch": 71, "duration": 218, "velocity": 95}, {"time": 166566, "pitch": 74, "duration": 218, "velocity": 100}, {"time": 166566, "pitch": 79, "duration": 218, "velocity": 85}, {"time": 167043, "pitch": 43, "duration": 219, "velocity": 70}, {"time": 167043, "pitch": 71, "duration": 219, "velocity": 95}, {"time": 167043, "pitch": 74, "duration": 219, "velocity": 100}, {"time": 167043, "pitch": 79, "duration": 219, "velocity": 85}, {"time": 167521, "pitch": 48, "duration": 219, "velocity": 70}, {"time": 167521, "pitch": 72, "duration": 219, "velocity": 95}, {"time": 167521, "pitch": 76, "duration": 219, "velocity": 100}, {"time": 167521, "pitch": 79, "duration": 219, "velocity": 85}, {"time": 167998, "pitch": 48, "duration": 219, "velocity": 70}, {"time": 167998, "pitch": 72, "duration": 219, "velocity": 95}, {"time": 167998, "pitch": 76, "duration": 219, "velocity": 100}, {"time": 167998, "pitch": 79, "duration": 219, "velocity": 85}, {"time": 168476, "pitch": 48, "duration": 225, "velocity": 70}, {"time": 168476, "pitch": 72, "duration": 225, "velocity": 95}, {"time": 168476, "pitch": 76, "duration": 225, "velocity": 100}, {"time": 168476, "pitch": 79, "duration": 225, "velocity": 85}, {"time": 168966, "pitch": 48, "duration": 219, "velocity": 70}, {"time": 168966, "pitch": 72, "duration": 219, "velocity": 95}, {"time": 168966, "pitch": 76, "duration": 219, "velocity": 100}, {"time": 168966, "pitch": 79, "duration": 219, "velocity": 85}, {"time": 169444, "pitch": 43, "duration": 219, "velocity": 70}, {"time": 169444, "pitch": 71, "duration": 219, "velocity": 95}, {"time": 169444, "pitch": 74, "duration": 219, "velocity": 100}, {"time": 169444, "pitch": 79, "duration": 219, "velocity": 85}, {"time": 169921, "pitch": 43, "duration": 219, "velocity": 70}, {"time": 169921, "pitch": 71, "duration": 219, "velocity": 95}, {"time": 169921, "pitch": 74, "duration": 219, "velocity": 100}, {"time": 169921, "pitch": 79, "duration": 219, "velocity": 85}, {"time": 170399, "pitch": 43, "duration": 219, "velocity": 70}, {"time": 170399, "pitch": 71, "duration": 219, "velocity": 95}, {"time": 170399, "pitch": 74, "duration": 219, "velocity": 100}, {"time": 170399, "pitch": 79, "duration": 219, "velocity": 85}, {"time": 170876, "pitch": 43, "duration": 219, "velocity": 70}, {"time": 170876, "pitch": 71, "duration": 219, "velocity": 95}, {"time": 170876, "pitch": 74, "duration": 219, "velocity": 100}, {"time": 170876, "pitch": 79, "duration": 219, "velocity": 85}, {"time": 171354, "pitch": 48, "duration": 225, "velocity": 70}, {"time": 171354, "pitch": 72, "duration": 225, "velocity": 95}, {"time": 171354, "pitch": 76, "duration": 225, "velocity": 100}, {"time": 171354, "pitch": 79, "duration": 225, "velocity": 85}, {"time": 171844, "pitch": 48, "duration": 219, "velocity": 70}, {"time": 171844, "pitch": 72, "duration": 219, "velocity": 95}, {"time": 171844, "pitch": 76, "duration": 219, "velocity": 100}, {"time": 171844, "pitch": 79, "duration": 219, "velocity": 85}, {"time": 172322, "pitch": 47, "duration": 219, "velocity": 70}, {"time": 172322, "pitch": 72, "duration": 219, "velocity": 95}, {"time": 172322, "pitch": 76, "duration": 219, "velocity": 100}, {"time": 172322, "pitch": 79, "duration": 219, "velocity": 85}, {"time": 172799, "pitch": 47, "duration": 219, "velocity": 70}, {"time": 172799, "pitch": 72, "duration": 219, "velocity": 95}, {"time": 172799, "pitch": 76, "duration": 219, "velocity": 100}, {"time": 172799, "pitch": 79, "duration": 219, "velocity": 85}, {"time": 173277, "pitch": 45, "duration": 219, "velocity": 70}, {"time": 173277, "pitch": 72, "duration": 219, "velocity": 95}, {"time": 173277, "pitch": 76, "duration": 219, "velocity": 100}, {"time": 173277, "pitch": 79, "duration": 219, "velocity": 85}, {"time": 173755, "pitch": 45, "duration": 224, "velocity": 70}, {"time": 173755, "pitch": 72, "duration": 224, "velocity": 95}, {"time": 173755, "pitch": 76, "duration": 224, "velocity": 100}, {"time": 173755, "pitch": 79, "duration": 224, "velocity": 85}, {"time": 174245, "pitch": 43, "duration": 219, "velocity": 70}, {"time": 174245, "pitch": 72, "duration": 219, "velocity": 95}, {"time": 174245, "pitch": 76, "duration": 219, "velocity": 100}, {"time": 174245, "pitch": 79, "duration": 219, "velocity": 85}, {"time": 174723, "pitch": 43, "duration": 218, "velocity": 70}, {"time": 174723, "pitch": 72, "duration": 218, "velocity": 95}, {"time": 174723, "pitch": 76, "duration": 218, "velocity": 100}, {"time": 174723, "pitch": 79, "duration": 218, "velocity": 85}, {"time": 175200, "pitch": 41, "duration": 2838, "velocity": 70}, {"time": 175200, "pitch": 69, "duration": 716, "velocity": 100}, {"time": 175200, "pitch": 72, "duration": 716, "velocity": 85}, {"time": 175200, "pitch": 77, "duration": 716, "velocity": 95}, {"time": 175916, "pitch": 72, "duration": 100, "velocity": 81}, {"time": 175916, "pitch": 77, "duration": 100, "velocity": 91}, {"time": 175916, "pitch": 81, "duration": 100, "velocity": 96}, {"time": 176036, "pitch": 72, "duration": 99, "velocity": 79}, {"time": 176036, "pitch": 77, "duration": 99, "velocity": 88}, {"time": 176036, "pitch": 81, "duration": 99, "velocity": 94}, {"time": 176155, "pitch": 72, "duration": 729, "velocity": 84}, {"time": 176155, "pitch": 77, "duration": 729, "velocity": 94}, {"time": 176155, "pitch": 81, "duration": 729, "velocity": 99}, {"time": 176884, "pitch": 77, "duration": 100, "velocity": 90}, {"time": 176884, "pitch": 81, "duration": 100, "velocity": 95}, {"time": 176884, "pitch": 84, "duration": 100, "velocity": 80}, {"time": 177004, "pitch": 77, "duration": 99, "velocity": 88}, {"time": 177004, "pitch": 81, "duration": 99, "velocity": 93}, {"time": 177004, "pitch": 84, "duration": 99, "velocity": 78}, {"time": 177123, "pitch": 77, "duration": 915, "velocity": 95}, {"time": 177123, "pitch": 81, "duration": 915, "velocity": 100}, {"time": 177123, "pitch": 84, "duration": 915, "velocity": 85}, {"time": 178078, "pitch": 55, "duration": 239, "velocity": 100}, {"time": 178078, "pitch": 67, "duration": 239, "velocity": 100}, {"time": 178556, "pitch": 55, "duration": 245, "velocity": 100}, {"time": 178556, "pitch": 67, "duration": 245, "velocity": 100}, {"time": 179046, "pitch": 40, "duration": 697, "velocity": 85}, {"time": 179046, "pitch": 76, "duration": 677, "velocity": 105}, {"time": 179046, "pitch": 88, "duration": 677, "velocity": 105}, {"time": 179763, "pitch": 40, "duration": 1174, "velocity": 81}, {"time": 179763, "pitch": 75, "duration": 99, "velocity": 95}, {"time": 179763, "pitch": 87, "duration": 99, "velocity": 95}, {"time": 179882, "pitch": 76, "duration": 99, "velocity": 105}, {"time": 179882, "pitch": 88, "duration": 99, "velocity": 105}, {"time": 180001, "pitch": 78, "duration": 448, "velocity": 108}, {"time": 180001, "pitch": 90, "duration": 448, "velocity": 108}, {"time": 180479, "pitch": 71, "duration": 448, "velocity": 99}, {"time": 180479, "pitch": 83, "duration": 448, "velocity": 99}, {"time": 180956, "pitch": 39, "duration": 723, "velocity": 85}, {"time": 180956, "pitch": 79, "duration": 723, "velocity": 103}, {"time": 180956, "pitch": 91, "duration": 723, "velocity": 103}, {"time": 181679, "pitch": 39, "duration": 1181, "velocity": 81}, {"time": 181679, "pitch": 78, "duration": 123, "velocity": 99}, {"time": 181679, "pitch": 90, "duration": 123, "velocity": 99}, {"time": 181802, "pitch": 79, "duration": 122, "velocity": 102}, {"time": 181802, "pitch": 91, "duration": 122, "velocity": 102}, {"time": 181924, "pitch": 81, "duration": 239, "velocity": 106}, {"time": 181924, "pitch": 93, "duration": 239, "velocity": 106}, {"time": 182163, "pitch": 75, "duration": 239, "velocity": 99}, {"time": 182163, "pitch": 87, "duration": 239, "velocity": 99}, {"time": 182402, "pitch": 78, "duration": 239, "velocity": 95}, {"time": 182402, "pitch": 90, "duration": 239, "velocity": 95}, {"time": 182641, "pitch": 81, "duration": 239, "velocity": 101}, {"time": 182641, "pitch": 93, "duration": 239, "velocity": 101}, {"time": 182880, "pitch": 43, "duration": 1903, "velocity": 104}, {"time": 182880, "pitch": 84, "duration": 477, "velocity": 104}, {"time": 182880, "pitch": 96, "duration": 477, "velocity": 104}, {"time": 183357, "pitch": 83, "duration": 478, "velocity": 99}, {"time": 183357, "pitch": 95, "duration": 478, "velocity": 99}, {"time": 183835, "pitch": 79, "duration": 490, "velocity": 107}, {"time": 183835, "pitch": 91, "duration": 490, "velocity": 107}, {"time": 184325, "pitch": 74, "duration": 478, "velocity": 102}, {"time": 184325, "pitch": 86, "duration": 478, "velocity": 102}, {"time": 184803, "pitch": 36, "duration": 338, "velocity": 82}, {"time": 184803, "pitch": 48, "duration": 338, "velocity": 102}, {"time": 185041, "pitch": 67, "duration": 100, "velocity": 72}, {"time": 185161, "pitch": 72, "duration": 99, "velocity": 106}, {"time": 185161, "pitch": 84, "duration": 99, "velocity": 106}, {"time": 185280, "pitch": 72, "duration": 338, "velocity": 118}, {"time": 185280, "pitch": 84, "duration": 338, "velocity": 118}, {"time": 185519, "pitch": 68, "duration": 99, "velocity": 70}, {"time": 185638, "pitch": 73, "duration": 100, "velocity": 111}, {"time": 185638, "pitch": 85, "duration": 100, "velocity": 111}, {"time": 185758, "pitch": 73, "duration": 338, "velocity": 118}, {"time": 185758, "pitch": 85, "duration": 338, "velocity": 118}, {"time": 185996, "pitch": 69, "duration": 100, "velocity": 69}, {"time": 186116, "pitch": 74, "duration": 99, "velocity": 114}, {"time": 186116, "pitch": 86, "duration": 99, "velocity": 114}, {"time": 186235, "pitch": 74, "duration": 460, "velocity": 118}, {"time": 186235, "pitch": 86, "duration": 460, "velocity": 118}, {"time": 186317, "pitch": 85, "duration": 51, "velocity": 114}, {"time": 186358, "pitch": 84, "duration": 51, "velocity": 112}, {"time": 186399, "pitch": 83, "duration": 51, "velocity": 111}, {"time": 186440, "pitch": 82, "duration": 51, "velocity": 109}, {"time": 186480, "pitch": 81, "duration": 52, "velocity": 107}, {"time": 186521, "pitch": 80, "duration": 52, "velocity": 104}, {"time": 186562, "pitch": 79, "duration": 51, "velocity": 101}, {"time": 186603, "pitch": 78, "duration": 51, "velocity": 100}, {"time": 186644, "pitch": 77, "duration": 51, "velocity": 97}, {"time": 186685, "pitch": 76, "duration": 41, "velocity": 93}, {"time": 186726, "pitch": 39, "duration": 119, "velocity": 88}, {"time": 186726, "pitch": 75, "duration": 119, "velocity": 108}, {"time": 186726, "pitch": 87, "duration": 119, "velocity": 118}, {"time": 186964, "pitch": 75, "duration": 120, "velocity": 106}, {"time": 186964, "pitch": 87, "duration": 120, "velocity": 116}, {"time": 187203, "pitch": 39, "duration": 120, "velocity": 88}, {"time": 187203, "pitch": 75, "duration": 120, "velocity": 108}, {"time": 187203, "pitch": 87, "duration": 120, "velocity": 118}, {"time": 187442, "pitch": 75, "duration": 119, "velocity": 106}, {"time": 187442, "pitch": 87, "duration": 119, "velocity": 116}, {"time": 187681, "pitch": 39, "duration": 119, "velocity": 88}, {"time": 187681, "pitch": 75, "duration": 119, "velocity": 108}, {"time": 187681, "pitch": 87, "duration": 119, "velocity": 118}, {"time": 187920, "pitch": 75, "duration": 119, "velocity": 106}, {"time": 187920, "pitch": 87, "duration": 119, "velocity": 116}, {"time": 188158, "pitch": 39, "duration": 120, "velocity": 84}, {"time": 188158, "pitch": 75, "duration": 120, "velocity": 108}, {"time": 188158, "pitch": 87, "duration": 120, "velocity": 118}, {"time": 188397, "pitch": 75, "duration": 119, "velocity": 106}, {"time": 188397, "pitch": 87, "duration": 119, "velocity": 116}, {"time": 188636, "pitch": 39, "duration": 122, "velocity": 88}, {"time": 188636, "pitch": 75, "duration": 122, "velocity": 108}, {"time": 188636, "pitch": 87, "duration": 122, "velocity": 118}, {"time": 188881, "pitch": 75, "duration": 123, "velocity": 106}, {"time": 188881, "pitch": 87, "duration": 123, "velocity": 116}, {"time": 189126, "pitch": 39, "duration": 120, "velocity": 88}, {"time": 189126, "pitch": 75, "duration": 120, "velocity": 108}, {"time": 189126, "pitch": 87, "duration": 120, "velocity": 118}, {"time": 189365, "pitch": 75, "duration": 120, "velocity": 106}, {"time": 189365, "pitch": 87, "duration": 120, "velocity": 116}, {"time": 189604, "pitch": 39, "duration": 119, "velocity": 88}, {"time": 189604, "pitch": 75, "duration": 119, "velocity": 108}, {"time": 189604, "pitch": 87, "duration": 119, "velocity": 118}, {"time": 189843, "pitch": 75, "duration": 119, "velocity": 106}, {"time": 189843, "pitch": 87, "duration": 119, "velocity": 116}, {"time": 190081, "pitch": 39, "duration": 120, "velocity": 84}, {"time": 190081, "pitch": 75, "duration": 120, "velocity": 108}, {"time": 190081, "pitch": 87, "duration": 120, "velocity": 118}, {"time": 190320, "pitch": 75, "duration": 120, "velocity": 106}, {"time": 190320, "pitch": 87, "duration": 120, "velocity": 116}, {"time": 190559, "pitch": 38, "duration": 119, "velocity": 88}, {"time": 190559, "pitch": 74, "duration": 119, "velocity": 108}, {"time": 190559, "pitch": 86, "duration": 119, "velocity": 118}, {"time": 190798, "pitch": 74, "duration": 119, "velocity": 106}, {"time": 190798, "pitch": 86, "duration": 119, "velocity": 116}, {"time": 191036, "pitch": 38, "duration": 120, "velocity": 88}, {"time": 191036, "pitch": 74, "duration": 120, "velocity": 108}, {"time": 191036, "pitch": 86, "duration": 120, "velocity": 118}, {"time": 191275, "pitch": 74, "duration": 120, "velocity": 106}, {"time": 191275, "pitch": 86, "duration": 120, "velocity": 116}, {"time": 191514, "pitch": 38, "duration": 123, "velocity": 88}, {"time": 191514, "pitch": 74, "duration": 123, "velocity": 108}, {"time": 191514, "pitch": 86, "duration": 123, "velocity": 118}, {"time": 191759, "pitch": 74, "duration": 123, "velocity": 106}, {"time": 191759, "pitch": 86, "duration": 123, "velocity": 116}, {"time": 192005, "pitch": 38, "duration": 119, "velocity": 84}, {"time": 192005, "pitch": 74, "duration": 119, "velocity": 108}, {"time": 192005, "pitch": 86, "duration": 119, "velocity": 118}, {"time": 192243, "pitch": 74, "duration": 120, "velocity": 106}, {"time": 192243, "pitch": 86, "duration": 120, "velocity": 116}, {"time": 192482, "pitch": 38, "duration": 119, "velocity": 88}, {"time": 192482, "pitch": 74, "duration": 119, "velocity": 108}, {"time": 192482, "pitch": 86, "duration": 119, "velocity": 118}, {"time": 192721, "pitch": 74, "duration": 119, "velocity": 106}, {"time": 192721, "pitch": 86, "duration": 119, "velocity": 116}, {"time": 192960, "pitch": 38, "duration": 119, "velocity": 88}, {"time": 192960, "pitch": 74, "duration": 119, "velocity": 108}, {"time": 192960, "pitch": 86, "duration": 119, "velocity": 118}, {"time": 193198, "pitch": 74, "duration": 120, "velocity": 106}, {"time": 193198, "pitch": 86, "duration": 120, "velocity": 116}, {"time": 193437, "pitch": 38, "duration": 120, "velocity": 88}, {"time": 193437, "pitch": 74, "duration": 120, "velocity": 108}, {"time": 193437, "pitch": 86, "duration": 120, "velocity": 118}, {"time": 193676, "pitch": 74, "duration": 119, "velocity": 106}, {"time": 193676, "pitch": 86, "duration": 119, "velocity": 116}, {"time": 193915, "pitch": 38, "duration": 122, "velocity": 84}, {"time": 193915, "pitch": 74, "duration": 122, "velocity": 108}, {"time": 193915, "pitch": 86, "duration": 122, "velocity": 118}, {"time": 194160, "pitch": 74, "duration": 123, "velocity": 106}, {"time": 194160, "pitch": 86, "duration": 123, "velocity": 116}, {"time": 202085, "pitch": 57, "duration": 1890, "velocity": 100}, {"time": 202085, "pitch": 60, "duration": 1890, "velocity": 100}, {"time": 202085, "pitch": 64, "duration": 1890, "velocity": 100}, {"time": 203995, "pitch": 56, "duration": 1903, "velocity": 100}, {"time": 203995, "pitch": 59, "duration": 1903, "velocity": 100}, {"time": 203995, "pitch": 64, "duration": 1903, "velocity": 100}, {"time": 205918, "pitch": 55, "duration": 1903, "velocity": 100}, {"time": 205918, "pitch": 60, "duration": 1903, "velocity": 100}, {"time": 205918, "pitch": 63, "duration": 1903, "velocity": 100}, {"time": 207841, "pitch": 55, "duration": 1903, "velocity": 100}, {"time": 207841, "pitch": 58, "duration": 1903, "velocity": 100}, {"time": 207841, "pitch": 62, "duration": 1903, "velocity": 100}, {"time": 209764, "pitch": 62, "duration": 219, "velocity": 80}, {"time": 209764, "pitch": 66, "duration": 219, "velocity": 90}, {"time": 209764, "pitch": 69, "duration": 219, "velocity": 100}, {"time": 210242, "pitch": 62, "duration": 218, "velocity": 80}, {"time": 210242, "pitch": 66, "duration": 218, "velocity": 90}, {"time": 210242, "pitch": 69, "duration": 218, "velocity": 100}, {"time": 210719, "pitch": 50, "duration": 448, "velocity": 90}, {"time": 211197, "pitch": 62, "duration": 219, "velocity": 80}, {"time": 211197, "pitch": 66, "duration": 219, "velocity": 90}, {"time": 211197, "pitch": 69, "duration": 219, "velocity": 100}, {"time": 211674, "pitch": 62, "duration": 225, "velocity": 80}, {"time": 211674, "pitch": 66, "duration": 225, "velocity": 90}, {"time": 211674, "pitch": 69, "duration": 225, "velocity": 100}, {"time": 212165, "pitch": 50, "duration": 447, "velocity": 90}, {"time": 212642, "pitch": 62, "duration": 219, "velocity": 80}, {"time": 212642, "pitch": 66, "duration": 219, "velocity": 90}, {"time": 212642, "pitch": 69, "duration": 219, "velocity": 100}, {"time": 213120, "pitch": 62, "duration": 219, "velocity": 80}, {"time": 213120, "pitch": 66, "duration": 219, "velocity": 90}, {"time": 213120, "pitch": 69, "duration": 219, "velocity": 100}, {"time": 213597, "pitch": 66, "duration": 219, "velocity": 90}, {"time": 213597, "pitch": 69, "duration": 219, "velocity": 100}, {"time": 213597, "pitch": 74, "duration": 219, "velocity": 80}, {"time": 214075, "pitch": 66, "duration": 225, "velocity": 90}, {"time": 214075, "pitch": 69, "duration": 225, "velocity": 100}, {"time": 214075, "pitch": 74, "duration": 225, "velocity": 80}, {"time": 214565, "pitch": 50, "duration": 448, "velocity": 90}, {"time": 215043, "pitch": 66, "duration": 219, "velocity": 90}, {"time": 215043, "pitch": 69, "duration": 219, "velocity": 100}, {"time": 215043, "pitch": 74, "duration": 219, "velocity": 80}, {"time": 215520, "pitch": 66, "duration": 219, "velocity": 90}, {"time": 215520, "pitch": 69, "duration": 219, "velocity": 100}, {"time": 215520, "pitch": 74, "duration": 219, "velocity": 80}, {"time": 215998, "pitch": 50, "duration": 448, "velocity": 90}, {"time": 216475, "pitch": 74, "duration": 123, "velocity": 112}, {"time": 216475, "pitch": 86, "duration": 123, "velocity": 100}, {"time": 216721, "pitch": 74, "duration": 122, "velocity": 112}, {"time": 216721, "pitch": 86, "duration": 122, "velocity": 100}, {"time": 216966, "pitch": 74, "duration": 119, "velocity": 112}, {"time": 216966, "pitch": 86, "duration": 119, "velocity": 100}, {"time": 217205, "pitch": 74, "duration": 119, "velocity": 112}, {"time": 217205, "pitch": 86, "duration": 119, "velocity": 100}, {"time": 217443, "pitch": 43, "duration": 1891, "velocity": 100}, {"time": 217443, "pitch": 55, "duration": 1891, "velocity": 90}, {"time": 217443, "pitch": 59, "duration": 1891, "velocity": 85}, {"time": 217443, "pitch": 62, "duration": 1891, "velocity": 95}, {"time": 217443, "pitch": 64, "duration": 1891, "velocity": 100}, {"time": 219354, "pitch": 43, "duration": 1903, "velocity": 100}, {"time": 219354, "pitch": 55, "duration": 1903, "velocity": 85}, {"time": 219354, "pitch": 60, "duration": 1903, "velocity": 95}, {"time": 219354, "pitch": 64, "duration": 1903, "velocity": 100}, {"time": 221277, "pitch": 43, "duration": 1903, "velocity": 100}, {"time": 221277, "pitch": 55, "duration": 1903, "velocity": 90}, {"time": 221277, "pitch": 59, "duration": 1903, "velocity": 85}, {"time": 221287, "pitch": 62, "duration": 1903, "velocity": 95}, {"time": 221297, "pitch": 64, "duration": 1903, "velocity": 100}, {"time": 223200, "pitch": 43, "duration": 1903, "velocity": 100}, {"time": 223200, "pitch": 57, "duration": 1903, "velocity": 85}, {"time": 223200, "pitch": 62, "duration": 1903, "velocity": 95}, {"time": 223200, "pitch": 65, "duration": 1903, "velocity": 100}, {"time": 225123, "pitch": 43, "duration": 1903, "velocity": 100}, {"time": 225123, "pitch": 55, "duration": 1903, "velocity": 90}, {"time": 225123, "pitch": 59, "duration": 1903, "velocity": 85}, {"time": 225123, "pitch": 62, "duration": 1903, "velocity": 95}, {"time": 225123, "pitch": 64, "duration": 1903, "velocity": 100}, {"time": 225839, "pitch": 71, "duration": 1105, "velocity": 94}, {"time": 225959, "pitch": 74, "duration": 1016, "velocity": 97}, {"time": 226078, "pitch": 79, "duration": 927, "velocity": 110}, {"time": 227046, "pitch": 43, "duration": 1890, "velocity": 100}, {"time": 227046, "pitch": 55, "duration": 1890, "velocity": 85}, {"time": 227046, "pitch": 60, "duration": 1890, "velocity": 95}, {"time": 227046, "pitch": 64, "duration": 1890, "velocity": 100}, {"time": 228956, "pitch": 43, "duration": 1903, "velocity": 100}, {"time": 228956, "pitch": 55, "duration": 1903, "velocity": 90}, {"time": 228956, "pitch": 59, "duration": 1903, "velocity": 85}, {"time": 228956, "pitch": 62, "duration": 1903, "velocity": 95}, {"time": 228956, "pitch": 64, "duration": 1903, "velocity": 100}, {"time": 229679, "pitch": 86, "duration": 653, "velocity": 92}, {"time": 230163, "pitch": 83, "duration": 647, "velocity": 89}, {"time": 230640, "pitch": 79, "duration": 219, "velocity": 85}, {"time": 230879, "pitch": 43, "duration": 1903, "velocity": 100}, {"time": 230879, "pitch": 57, "duration": 1903, "velocity": 85}, {"time": 230879, "pitch": 62, "duration": 1903, "velocity": 95}, {"time": 230879, "pitch": 65, "duration": 1903, "velocity": 100}, {"time": 232802, "pitch": 48, "duration": 219, "velocity": 70}, {"time": 232802, "pitch": 72, "duration": 219, "velocity": 95}, {"time": 232802, "pitch": 76, "duration": 219, "velocity": 100}, {"time": 232802, "pitch": 79, "duration": 219, "velocity": 85}, {"time": 233280, "pitch": 48, "duration": 219, "velocity": 70}, {"time": 233280, "pitch": 72, "duration": 219, "velocity": 95}, {"time": 233280, "pitch": 76, "duration": 219, "velocity": 100}, {"time": 233280, "pitch": 79, "duration": 219, "velocity": 85}, {"time": 233757, "pitch": 48, "duration": 219, "velocity": 70}, {"time": 233757, "pitch": 72, "duration": 219, "velocity": 95}, {"time": 233757, "pitch": 76, "duration": 219, "velocity": 100}, {"time": 233757, "pitch": 79, "duration": 219, "velocity": 85}, {"time": 234235, "pitch": 48, "duration": 225, "velocity": 70}, {"time": 234235, "pitch": 72, "duration": 225, "velocity": 95}, {"time": 234235, "pitch": 76, "duration": 225, "velocity": 100}, {"time": 234235, "pitch": 79, "duration": 225, "velocity": 85}, {"time": 234725, "pitch": 43, "duration": 219, "velocity": 70}, {"time": 234725, "pitch": 71, "duration": 219, "velocity": 95}, {"time": 234725, "pitch": 74, "duration": 219, "velocity": 100}, {"time": 234725, "pitch": 79, "duration": 219, "velocity": 85}, {"time": 235203, "pitch": 43, "duration": 219, "velocity": 70}, {"time": 235203, "pitch": 71, "duration": 219, "velocity": 95}, {"time": 235203, "pitch": 74, "duration": 219, "velocity": 100}, {"time": 235203, "pitch": 79, "duration": 219, "velocity": 85}, {"time": 235681, "pitch": 43, "duration": 218, "velocity": 70}, {"time": 235681, "pitch": 71, "duration": 218, "velocity": 95}, {"time": 235681, "pitch": 74, "duration": 218, "velocity": 100}, {"time": 235681, "pitch": 79, "duration": 218, "velocity": 85}, {"time": 236158, "pitch": 43, "duration": 219, "velocity": 70}, {"time": 236158, "pitch": 71, "duration": 219, "velocity": 95}, {"time": 236158, "pitch": 74, "duration": 219, "velocity": 100}, {"time": 236158, "pitch": 79, "duration": 219, "velocity": 85}, {"time": 236636, "pitch": 48, "duration": 224, "velocity": 70}, {"time": 236636, "pitch": 72, "duration": 224, "velocity": 95}, {"time": 236636, "pitch": 76, "duration": 224, "velocity": 100}, {"time": 236636, "pitch": 79, "duration": 224, "velocity": 85}, {"time": 237126, "pitch": 48, "duration": 219, "velocity": 70}, {"time": 237126, "pitch": 72, "duration": 219, "velocity": 95}, {"time": 237126, "pitch": 76, "duration": 219, "velocity": 100}, {"time": 237126, "pitch": 79, "duration": 219, "velocity": 85}, {"time": 237604, "pitch": 48, "duration": 219, "velocity": 70}, {"time": 237604, "pitch": 72, "duration": 219, "velocity": 95}, {"time": 237604, "pitch": 76, "duration": 219, "velocity": 100}, {"time": 237604, "pitch": 79, "duration": 219, "velocity": 85}, {"time": 238081, "pitch": 48, "duration": 219, "velocity": 70}, {"time": 238081, "pitch": 72, "duration": 219, "velocity": 95}, {"time": 238081, "pitch": 76, "duration": 219, "velocity": 100}, {"time": 238081, "pitch": 79, "duration": 219, "velocity": 85}, {"time": 238559, "pitch": 43, "duration": 219, "velocity": 70}, {"time": 238559, "pitch": 71, "duration": 219, "velocity": 95}, {"time": 238559, "pitch": 74, "duration": 219, "velocity": 100}, {"time": 238559, "pitch": 79, "duration": 219, "velocity": 85}, {"time": 239036, "pitch": 43, "duration": 219, "velocity": 70}, {"time": 239036, "pitch": 71, "duration": 219, "velocity": 95}, {"time": 239036, "pitch": 74, "duration": 219, "velocity": 100}, {"time": 239036, "pitch": 79, "duration": 219, "velocity": 85}, {"time": 239514, "pitch": 43, "duration": 225, "velocity": 70}, {"time": 239514, "pitch": 71, "duration": 225, "velocity": 95}, {"time": 239514, "pitch": 74, "duration": 225, "velocity": 100}, {"time": 239514, "pitch": 79, "duration": 225, "velocity": 85}, {"time": 240004, "pitch": 43, "duration": 219, "velocity": 70}, {"time": 240004, "pitch": 71, "duration": 219, "velocity": 95}, {"time": 240004, "pitch": 74, "duration": 219, "velocity": 100}, {"time": 240004, "pitch": 79, "duration": 219, "velocity": 85}, {"time": 240482, "pitch": 48, "duration": 219, "velocity": 70}, {"time": 240482, "pitch": 72, "duration": 219, "velocity": 95}, {"time": 240482, "pitch": 76, "duration": 219, "velocity": 100}, {"time": 240482, "pitch": 79, "duration": 219, "velocity": 85}, {"time": 240959, "pitch": 48, "duration": 219, "velocity": 70}, {"time": 240959, "pitch": 72, "duration": 219, "velocity": 95}, {"time": 240959, "pitch": 76, "duration": 219, "velocity": 100}, {"time": 240959, "pitch": 79, "duration": 219, "velocity": 85}, {"time": 241437, "pitch": 47, "duration": 219, "velocity": 70}, {"time": 241437, "pitch": 72, "duration": 219, "velocity": 95}, {"time": 241437, "pitch": 76, "duration": 219, "velocity": 100}, {"time": 241437, "pitch": 79, "duration": 219, "velocity": 85}, {"time": 241914, "pitch": 47, "duration": 225, "velocity": 70}, {"time": 241914, "pitch": 72, "duration": 225, "velocity": 95}, {"time": 241914, "pitch": 76, "duration": 225, "velocity": 100}, {"time": 241914, "pitch": 79, "duration": 225, "velocity": 85}, {"time": 242405, "pitch": 45, "duration": 219, "velocity": 70}, {"time": 242405, "pitch": 72, "duration": 219, "velocity": 95}, {"time": 242405, "pitch": 76, "duration": 219, "velocity": 100}, {"time": 242405, "pitch": 79, "duration": 219, "velocity": 85}, {"time": 242882, "pitch": 45, "duration": 219, "velocity": 70}, {"time": 242882, "pitch": 72, "duration": 219, "velocity": 95}, {"time": 242882, "pitch": 76, "duration": 219, "velocity": 100}, {"time": 242882, "pitch": 79, "duration": 219, "velocity": 85}, {"time": 243360, "pitch": 43, "duration": 219, "velocity": 70}, {"time": 243360, "pitch": 72, "duration": 219, "velocity": 95}, {"time": 243360, "pitch": 76, "duration": 219, "velocity": 100}, {"time": 243360, "pitch": 79, "duration": 219, "velocity": 85}, {"time": 243838, "pitch": 43, "duration": 218, "velocity": 70}, {"time": 243838, "pitch": 72, "duration": 218, "velocity": 95}, {"time": 243838, "pitch": 76, "duration": 218, "velocity": 100}, {"time": 243838, "pitch": 79, "duration": 218, "velocity": 85}, {"time": 244315, "pitch": 41, "duration": 2850, "velocity": 70}, {"time": 244315, "pitch": 69, "duration": 729, "velocity": 100}, {"time": 244315, "pitch": 72, "duration": 729, "velocity": 85}, {"time": 244315, "pitch": 77, "duration": 729, "velocity": 95}, {"time": 245044, "pitch": 72, "duration": 239, "velocity": 81}, {"time": 245044, "pitch": 77, "duration": 239, "velocity": 91}, {"time": 245044, "pitch": 81, "duration": 239, "velocity": 96}, {"time": 245283, "pitch": 72, "duration": 716, "velocity": 84}, {"time": 245283, "pitch": 77, "duration": 716, "velocity": 94}, {"time": 245283, "pitch": 81, "duration": 716, "velocity": 99}, {"time": 245999, "pitch": 77, "duration": 239, "velocity": 90}, {"time": 245999, "pitch": 81, "duration": 239, "velocity": 95}, {"time": 245999, "pitch": 84, "duration": 239, "velocity": 80}, {"time": 246238, "pitch": 77, "duration": 927, "velocity": 95}, {"time": 246238, "pitch": 81, "duration": 927, "velocity": 100}, {"time": 246238, "pitch": 84, "duration": 927, "velocity": 85}, {"time": 247206, "pitch": 55, "duration": 239, "velocity": 100}, {"time": 247206, "pitch": 67, "duration": 239, "velocity": 100}, {"time": 247684, "pitch": 55, "duration": 238, "velocity": 100}, {"time": 247684, "pitch": 67, "duration": 238, "velocity": 100}, {"time": 248161, "pitch": 43, "duration": 448, "velocity": 104}, {"time": 248639, "pitch": 71, "duration": 239, "velocity": 110}, {"time": 248639, "pitch": 74, "duration": 239, "velocity": 104}, {"time": 248639, "pitch": 79, "duration": 239, "velocity": 100}, {"time": 249116, "pitch": 71, "duration": 239, "velocity": 110}, {"time": 249116, "pitch": 74, "duration": 239, "velocity": 104}, {"time": 249116, "pitch": 79, "duration": 239, "velocity": 100}, {"time": 249594, "pitch": 41, "duration": 460, "velocity": 104}, {"time": 250084, "pitch": 69, "duration": 239, "velocity": 110}, {"time": 250084, "pitch": 72, "duration": 239, "velocity": 104}, {"time": 250084, "pitch": 77, "duration": 239, "velocity": 100}, {"time": 250562, "pitch": 69, "duration": 239, "velocity": 110}, {"time": 250562, "pitch": 72, "duration": 239, "velocity": 104}, {"time": 250562, "pitch": 77, "duration": 239, "velocity": 100}, {"time": 251039, "pitch": 40, "duration": 448, "velocity": 104}, {"time": 251517, "pitch": 71, "duration": 239, "velocity": 108}, {"time": 251517, "pitch": 74, "duration": 239, "velocity": 106}, {"time": 251517, "pitch": 76, "duration": 239, "velocity": 106}, {"time": 251517, "pitch": 80, "duration": 239, "velocity": 98}, {"time": 251994, "pitch": 71, "duration": 246, "velocity": 108}, {"time": 251994, "pitch": 74, "duration": 246, "velocity": 106}, {"time": 251994, "pitch": 76, "duration": 246, "velocity": 106}, {"time": 251994, "pitch": 80, "duration": 246, "velocity": 98}, {"time": 252485, "pitch": 39, "duration": 448, "velocity": 108}, {"time": 252963, "pitch": 67, "duration": 238, "velocity": 110}, {"time": 252963, "pitch": 70, "duration": 238, "velocity": 105}, {"time": 252963, "pitch": 75, "duration": 238, "velocity": 100}, {"time": 253440, "pitch": 55, "duration": 239, "velocity": 90}, {"time": 253440, "pitch": 71, "duration": 239, "velocity": 110}, {"time": 253440, "pitch": 74, "duration": 239, "velocity": 105}, {"time": 253440, "pitch": 79, "duration": 239, "velocity": 100}, {"time": 253918, "pitch": 43, "duration": 447, "velocity": 104}, {"time": 254395, "pitch": 71, "duration": 245, "velocity": 110}, {"time": 254395, "pitch": 74, "duration": 245, "velocity": 104}, {"time": 254395, "pitch": 79, "duration": 245, "velocity": 100}, {"time": 254886, "pitch": 71, "duration": 238, "velocity": 110}, {"time": 254886, "pitch": 74, "duration": 238, "velocity": 104}, {"time": 254886, "pitch": 79, "duration": 238, "velocity": 100}, {"time": 255363, "pitch": 41, "duration": 448, "velocity": 104}, {"time": 255841, "pitch": 69, "duration": 238, "velocity": 110}, {"time": 255841, "pitch": 72, "duration": 238, "velocity": 104}, {"time": 255841, "pitch": 77, "duration": 238, "velocity": 100}, {"time": 256318, "pitch": 69, "duration": 239, "velocity": 110}, {"time": 256318, "pitch": 72, "duration": 239, "velocity": 104}, {"time": 256318, "pitch": 77, "duration": 239, "velocity": 100}, {"time": 256796, "pitch": 40, "duration": 460, "velocity": 104}, {"time": 257286, "pitch": 71, "duration": 239, "velocity": 110}, {"time": 257286, "pitch": 74, "duration": 239, "velocity": 110}, {"time": 257286, "pitch": 76, "duration": 239, "velocity": 110}, {"time": 257286, "pitch": 79, "duration": 239, "velocity": 110}, {"time": 257286, "pitch": 80, "duration": 239, "velocity": 110}, {"time": 257764, "pitch": 71, "duration": 239, "velocity": 108}, {"time": 257764, "pitch": 74, "duration": 239, "velocity": 106}, {"time": 257764, "pitch": 76, "duration": 239, "velocity": 106}, {"time": 257764, "pitch": 77, "duration": 239, "velocity": 104}, {"time": 257764, "pitch": 80, "duration": 239, "velocity": 98}, {"time": 258241, "pitch": 39, "duration": 448, "velocity": 108}, {"time": 258719, "pitch": 67, "duration": 239, "velocity": 110}, {"time": 258719, "pitch": 70, "duration": 239, "velocity": 105}, {"time": 258719, "pitch": 75, "duration": 239, "velocity": 100}, {"time": 259196, "pitch": 64, "duration": 239, "velocity": 110}, {"time": 259196, "pitch": 67, "duration": 239, "velocity": 110}, {"time": 259196, "pitch": 70, "duration": 239, "velocity": 110}, {"time": 259196, "pitch": 73, "duration": 239, "velocity": 110}], "annotations": [{"time": 230, "annotation": {"number": 0, "value": 0}, "group": "control_change"}, {"time": 251, "annotation": {"number": 32, "value": 0}, "group": "control_change"}, {"time": 293, "annotation": {"number": 7, "value": 100}, "group": "control_change"}, {"time": 314, "annotation": {"number": 11, "value": 100}, "group": "control_change"}, {"time": 335, "annotation": {"number": 10, "value": 64}, "group": "control_change"}, {"time": 356, "annotation": {"number": 91, "value": 40}, "group": "control_change"}, {"time": 377, "annotation": {"number": 93, "value": 0}, "group": "control_change"}, {"time": 397, "annotation": {"number": 101, "value": 0}, "group": "control_change"}, {"time": 418, "annotation": {"number": 100, "value": 0}, "group": "control_change"}, {"time": 439, "annotation": {"number": 6, "value": 12}, "group": "control_change"}, {"time": 460, "annotation": {"number": 101, "value": 127}, "group": "control_change"}, {"time": 483, "annotation": {"number": 100, "value": 127}, "group": "control_change"}]}, {"program": 0, "is_drum": false, "name": "BASS", "annotations": [{"time": 230, "annotation": {"number": 0, "value": 0}, "group": "control_change"}, {"time": 251, "annotation": {"number": 32, "value": 0}, "group": "control_change"}]}, {"program": 33, "is_drum": false, "name": "BASS", "notes": [{"time": 4316, "pitch": 31, "duration": 209, "velocity": 114}, {"time": 4555, "pitch": 31, "duration": 209, "velocity": 106}, {"time": 4794, "pitch": 43, "duration": 245, "velocity": 117}, {"time": 5284, "pitch": 43, "duration": 239, "velocity": 115}, {"time": 5762, "pitch": 29, "duration": 209, "velocity": 114}, {"time": 6001, "pitch": 29, "duration": 209, "velocity": 106}, {"time": 6239, "pitch": 41, "duration": 239, "velocity": 118}, {"time": 6717, "pitch": 41, "duration": 239, "velocity": 115}, {"time": 7195, "pitch": 28, "duration": 235, "velocity": 113}, {"time": 7440, "pitch": 28, "duration": 235, "velocity": 107}, {"time": 7685, "pitch": 44, "duration": 239, "velocity": 118}, {"time": 7924, "pitch": 40, "duration": 239, "velocity": 112}, {"time": 8163, "pitch": 50, "duration": 218, "velocity": 116}, {"time": 8401, "pitch": 40, "duration": 219, "velocity": 111}, {"time": 8640, "pitch": 39, "duration": 239, "velocity": 115}, {"time": 9118, "pitch": 39, "duration": 238, "velocity": 110}, {"time": 9595, "pitch": 41, "duration": 225, "velocity": 110}, {"time": 9840, "pitch": 43, "duration": 225, "velocity": 112}, {"time": 10086, "pitch": 31, "duration": 209, "velocity": 114}, {"time": 10324, "pitch": 31, "duration": 209, "velocity": 106}, {"time": 10563, "pitch": 43, "duration": 239, "velocity": 117}, {"time": 11041, "pitch": 43, "duration": 238, "velocity": 115}, {"time": 11518, "pitch": 29, "duration": 209, "velocity": 114}, {"time": 11757, "pitch": 29, "duration": 209, "velocity": 106}, {"time": 11996, "pitch": 41, "duration": 245, "velocity": 118}, {"time": 12486, "pitch": 41, "duration": 239, "velocity": 115}, {"time": 12964, "pitch": 28, "duration": 229, "velocity": 113}, {"time": 13203, "pitch": 28, "duration": 228, "velocity": 107}, {"time": 13441, "pitch": 44, "duration": 239, "velocity": 118}, {"time": 13680, "pitch": 40, "duration": 239, "velocity": 112}, {"time": 13919, "pitch": 50, "duration": 219, "velocity": 116}, {"time": 14158, "pitch": 40, "duration": 219, "velocity": 111}, {"time": 14396, "pitch": 39, "duration": 239, "velocity": 115}, {"time": 14874, "pitch": 39, "duration": 245, "velocity": 110}, {"time": 15364, "pitch": 41, "duration": 219, "velocity": 110}, {"time": 15603, "pitch": 43, "duration": 219, "velocity": 112}, {"time": 15842, "pitch": 31, "duration": 1433, "velocity": 114}, {"time": 19675, "pitch": 31, "duration": 1426, "velocity": 115}, {"time": 27355, "pitch": 31, "duration": 1445, "velocity": 114}, {"time": 30246, "pitch": 31, "duration": 1412, "velocity": 115}, {"time": 39835, "pitch": 31, "duration": 225, "velocity": 115}, {"time": 40565, "pitch": 35, "duration": 219, "velocity": 110}, {"time": 41758, "pitch": 29, "duration": 219, "velocity": 118}, {"time": 41997, "pitch": 29, "duration": 219, "velocity": 114}, {"time": 42236, "pitch": 41, "duration": 239, "velocity": 117}, {"time": 42475, "pitch": 29, "duration": 219, "velocity": 109}, {"time": 42714, "pitch": 29, "duration": 224, "velocity": 113}, {"time": 42959, "pitch": 41, "duration": 225, "velocity": 118}, {"time": 43204, "pitch": 29, "duration": 219, "velocity": 114}, {"time": 43443, "pitch": 31, "duration": 457, "velocity": 118}, {"time": 43920, "pitch": 31, "duration": 219, "velocity": 109}, {"time": 44159, "pitch": 35, "duration": 219, "velocity": 112}, {"time": 44398, "pitch": 36, "duration": 219, "velocity": 114}, {"time": 44637, "pitch": 38, "duration": 219, "velocity": 119}, {"time": 44875, "pitch": 31, "duration": 219, "velocity": 110}, {"time": 45114, "pitch": 43, "duration": 225, "velocity": 117}, {"time": 45359, "pitch": 42, "duration": 225, "velocity": 113}, {"time": 45605, "pitch": 41, "duration": 219, "velocity": 107}, {"time": 45843, "pitch": 33, "duration": 448, "velocity": 111}, {"time": 46321, "pitch": 34, "duration": 448, "velocity": 115}, {"time": 46799, "pitch": 35, "duration": 447, "velocity": 110}, {"time": 47276, "pitch": 36, "duration": 219, "velocity": 114}, {"time": 47515, "pitch": 43, "duration": 225, "velocity": 118}, {"time": 47760, "pitch": 31, "duration": 245, "velocity": 110}, {"time": 49199, "pitch": 31, "duration": 219, "velocity": 120}, {"time": 49438, "pitch": 33, "duration": 229, "velocity": 114}, {"time": 49677, "pitch": 33, "duration": 228, "velocity": 108}, {"time": 49915, "pitch": 33, "duration": 235, "velocity": 112}, {"time": 50161, "pitch": 33, "duration": 235, "velocity": 107}, {"time": 50406, "pitch": 33, "duration": 229, "velocity": 111}, {"time": 50645, "pitch": 33, "duration": 229, "velocity": 107}, {"time": 50883, "pitch": 33, "duration": 229, "velocity": 111}, {"time": 51122, "pitch": 33, "duration": 229, "velocity": 105}, {"time": 51361, "pitch": 28, "duration": 229, "velocity": 114}, {"time": 51600, "pitch": 28, "duration": 229, "velocity": 108}, {"time": 51839, "pitch": 28, "duration": 228, "velocity": 112}, {"time": 52077, "pitch": 28, "duration": 229, "velocity": 107}, {"time": 52316, "pitch": 28, "duration": 229, "velocity": 111}, {"time": 52555, "pitch": 28, "duration": 229, "velocity": 107}, {"time": 52794, "pitch": 28, "duration": 235, "velocity": 111}, {"time": 53039, "pitch": 28, "duration": 235, "velocity": 105}, {"time": 53284, "pitch": 36, "duration": 229, "velocity": 114}, {"time": 53523, "pitch": 36, "duration": 229, "velocity": 108}, {"time": 53762, "pitch": 36, "duration": 228, "velocity": 112}, {"time": 54000, "pitch": 36, "duration": 229, "velocity": 107}, {"time": 54239, "pitch": 36, "duration": 229, "velocity": 111}, {"time": 54478, "pitch": 36, "duration": 229, "velocity": 107}, {"time": 54717, "pitch": 36, "duration": 229, "velocity": 111}, {"time": 54955, "pitch": 36, "duration": 229, "velocity": 105}, {"time": 55194, "pitch": 31, "duration": 235, "velocity": 114}, {"time": 55439, "pitch": 31, "duration": 236, "velocity": 108}, {"time": 55685, "pitch": 31, "duration": 229, "velocity": 112}, {"time": 55924, "pitch": 31, "duration": 228, "velocity": 107}, {"time": 56162, "pitch": 31, "duration": 229, "velocity": 111}, {"time": 56401, "pitch": 31, "duration": 229, "velocity": 107}, {"time": 56640, "pitch": 31, "duration": 229, "velocity": 111}, {"time": 56879, "pitch": 31, "duration": 228, "velocity": 105}, {"time": 60964, "pitch": 43, "duration": 218, "velocity": 113}, {"time": 61202, "pitch": 31, "duration": 219, "velocity": 107}, {"time": 61441, "pitch": 31, "duration": 219, "velocity": 112}, {"time": 61680, "pitch": 31, "duration": 219, "velocity": 107}, {"time": 61919, "pitch": 31, "duration": 218, "velocity": 112}, {"time": 62157, "pitch": 31, "duration": 219, "velocity": 106}, {"time": 62396, "pitch": 31, "duration": 219, "velocity": 110}, {"time": 62635, "pitch": 31, "duration": 219, "velocity": 106}, {"time": 62874, "pitch": 36, "duration": 224, "velocity": 113}, {"time": 63119, "pitch": 31, "duration": 225, "velocity": 107}, {"time": 63364, "pitch": 31, "duration": 219, "velocity": 112}, {"time": 63603, "pitch": 31, "duration": 219, "velocity": 107}, {"time": 63842, "pitch": 31, "duration": 219, "velocity": 112}, {"time": 64080, "pitch": 31, "duration": 219, "velocity": 106}, {"time": 64319, "pitch": 31, "duration": 219, "velocity": 110}, {"time": 64558, "pitch": 31, "duration": 219, "velocity": 106}, {"time": 64797, "pitch": 43, "duration": 219, "velocity": 113}, {"time": 65036, "pitch": 31, "duration": 218, "velocity": 107}, {"time": 65274, "pitch": 31, "duration": 225, "velocity": 112}, {"time": 65520, "pitch": 31, "duration": 225, "velocity": 107}, {"time": 65765, "pitch": 31, "duration": 219, "velocity": 112}, {"time": 66004, "pitch": 31, "duration": 218, "velocity": 106}, {"time": 66242, "pitch": 31, "duration": 219, "velocity": 110}, {"time": 66481, "pitch": 31, "duration": 219, "velocity": 106}, {"time": 66720, "pitch": 43, "duration": 219, "velocity": 113}, {"time": 66959, "pitch": 26, "duration": 219, "velocity": 107}, {"time": 67197, "pitch": 31, "duration": 219, "velocity": 112}, {"time": 67436, "pitch": 26, "duration": 219, "velocity": 107}, {"time": 67675, "pitch": 31, "duration": 225, "velocity": 112}, {"time": 67920, "pitch": 26, "duration": 225, "velocity": 106}, {"time": 68165, "pitch": 29, "duration": 219, "velocity": 110}, {"time": 68404, "pitch": 30, "duration": 219, "velocity": 106}, {"time": 68643, "pitch": 43, "duration": 219, "velocity": 113}, {"time": 68882, "pitch": 31, "duration": 219, "velocity": 107}, {"time": 69121, "pitch": 31, "duration": 218, "velocity": 112}, {"time": 69359, "pitch": 31, "duration": 219, "velocity": 107}, {"time": 69598, "pitch": 31, "duration": 219, "velocity": 112}, {"time": 69837, "pitch": 31, "duration": 219, "velocity": 106}, {"time": 70076, "pitch": 31, "duration": 224, "velocity": 110}, {"time": 70321, "pitch": 31, "duration": 225, "velocity": 106}, {"time": 70566, "pitch": 36, "duration": 219, "velocity": 113}, {"time": 70805, "pitch": 31, "duration": 219, "velocity": 107}, {"time": 71044, "pitch": 31, "duration": 218, "velocity": 112}, {"time": 71282, "pitch": 31, "duration": 219, "velocity": 107}, {"time": 71521, "pitch": 31, "duration": 219, "velocity": 112}, {"time": 71760, "pitch": 31, "duration": 219, "velocity": 106}, {"time": 71999, "pitch": 31, "duration": 219, "velocity": 110}, {"time": 72237, "pitch": 31, "duration": 219, "velocity": 106}, {"time": 72476, "pitch": 43, "duration": 219, "velocity": 113}, {"time": 72715, "pitch": 31, "duration": 219, "velocity": 107}, {"time": 72954, "pitch": 31, "duration": 225, "velocity": 112}, {"time": 73199, "pitch": 31, "duration": 225, "velocity": 107}, {"time": 73444, "pitch": 31, "duration": 219, "velocity": 112}, {"time": 73683, "pitch": 31, "duration": 219, "velocity": 106}, {"time": 73922, "pitch": 31, "duration": 219, "velocity": 110}, {"time": 74161, "pitch": 31, "duration": 218, "velocity": 106}, {"time": 74399, "pitch": 43, "duration": 219, "velocity": 113}, {"time": 74638, "pitch": 26, "duration": 219, "velocity": 107}, {"time": 74877, "pitch": 31, "duration": 219, "velocity": 112}, {"time": 75116, "pitch": 26, "duration": 218, "velocity": 107}, {"time": 75354, "pitch": 31, "duration": 225, "velocity": 112}, {"time": 75600, "pitch": 31, "duration": 225, "velocity": 106}, {"time": 75845, "pitch": 33, "duration": 219, "velocity": 110}, {"time": 76084, "pitch": 35, "duration": 219, "velocity": 106}, {"time": 84002, "pitch": 36, "duration": 477, "velocity": 108}, {"time": 84479, "pitch": 36, "duration": 478, "velocity": 105}, {"time": 84957, "pitch": 35, "duration": 477, "velocity": 108}, {"time": 85434, "pitch": 35, "duration": 491, "velocity": 104}, {"time": 85925, "pitch": 33, "duration": 478, "velocity": 109}, {"time": 86403, "pitch": 33, "duration": 477, "velocity": 105}, {"time": 86880, "pitch": 31, "duration": 478, "velocity": 109}, {"time": 87358, "pitch": 31, "duration": 477, "velocity": 104}, {"time": 87835, "pitch": 29, "duration": 1923, "velocity": 106}, {"time": 89758, "pitch": 41, "duration": 928, "velocity": 103}, {"time": 90726, "pitch": 43, "duration": 239, "velocity": 111}, {"time": 91204, "pitch": 43, "duration": 239, "velocity": 108}, {"time": 91681, "pitch": 31, "duration": 209, "velocity": 114}, {"time": 91920, "pitch": 31, "duration": 209, "velocity": 106}, {"time": 92159, "pitch": 43, "duration": 239, "velocity": 117}, {"time": 92636, "pitch": 43, "duration": 239, "velocity": 115}, {"time": 93114, "pitch": 29, "duration": 214, "velocity": 114}, {"time": 93359, "pitch": 29, "duration": 215, "velocity": 106}, {"time": 93604, "pitch": 41, "duration": 239, "velocity": 118}, {"time": 94082, "pitch": 41, "duration": 239, "velocity": 115}, {"time": 94559, "pitch": 28, "duration": 229, "velocity": 113}, {"time": 94798, "pitch": 28, "duration": 229, "velocity": 107}, {"time": 95037, "pitch": 44, "duration": 239, "velocity": 118}, {"time": 95276, "pitch": 40, "duration": 239, "velocity": 112}, {"time": 95515, "pitch": 50, "duration": 224, "velocity": 116}, {"time": 95760, "pitch": 40, "duration": 225, "velocity": 111}, {"time": 96005, "pitch": 39, "duration": 239, "velocity": 115}, {"time": 96483, "pitch": 39, "duration": 238, "velocity": 110}, {"time": 96960, "pitch": 41, "duration": 219, "velocity": 110}, {"time": 97199, "pitch": 43, "duration": 219, "velocity": 112}, {"time": 97438, "pitch": 31, "duration": 209, "velocity": 114}, {"time": 97676, "pitch": 31, "duration": 209, "velocity": 106}, {"time": 97915, "pitch": 43, "duration": 245, "velocity": 117}, {"time": 98406, "pitch": 43, "duration": 238, "velocity": 115}, {"time": 98883, "pitch": 29, "duration": 209, "velocity": 114}, {"time": 99122, "pitch": 29, "duration": 209, "velocity": 106}, {"time": 99361, "pitch": 41, "duration": 239, "velocity": 118}, {"time": 99838, "pitch": 41, "duration": 239, "velocity": 115}, {"time": 100316, "pitch": 28, "duration": 235, "velocity": 113}, {"time": 100561, "pitch": 28, "duration": 235, "velocity": 107}, {"time": 100806, "pitch": 44, "duration": 239, "velocity": 118}, {"time": 101045, "pitch": 40, "duration": 239, "velocity": 112}, {"time": 101284, "pitch": 50, "duration": 219, "velocity": 116}, {"time": 101523, "pitch": 40, "duration": 218, "velocity": 111}, {"time": 101761, "pitch": 39, "duration": 239, "velocity": 115}, {"time": 102239, "pitch": 39, "duration": 239, "velocity": 110}, {"time": 102716, "pitch": 41, "duration": 219, "velocity": 110}, {"time": 102955, "pitch": 43, "duration": 219, "velocity": 112}, {"time": 103194, "pitch": 31, "duration": 1446, "velocity": 114}, {"time": 107040, "pitch": 31, "duration": 1425, "velocity": 115}, {"time": 114720, "pitch": 31, "duration": 1445, "velocity": 114}, {"time": 117598, "pitch": 31, "duration": 1425, "velocity": 115}, {"time": 127200, "pitch": 31, "duration": 219, "velocity": 115}, {"time": 127917, "pitch": 35, "duration": 219, "velocity": 110}, {"time": 129123, "pitch": 29, "duration": 219, "velocity": 118}, {"time": 129362, "pitch": 29, "duration": 219, "velocity": 114}, {"time": 129601, "pitch": 41, "duration": 239, "velocity": 117}, {"time": 129840, "pitch": 29, "duration": 219, "velocity": 109}, {"time": 130079, "pitch": 29, "duration": 218, "velocity": 113}, {"time": 130317, "pitch": 41, "duration": 219, "velocity": 118}, {"time": 130556, "pitch": 29, "duration": 219, "velocity": 114}, {"time": 130795, "pitch": 31, "duration": 463, "velocity": 118}, {"time": 131279, "pitch": 31, "duration": 225, "velocity": 109}, {"time": 131524, "pitch": 35, "duration": 219, "velocity": 112}, {"time": 131763, "pitch": 36, "duration": 219, "velocity": 114}, {"time": 132002, "pitch": 38, "duration": 218, "velocity": 119}, {"time": 132240, "pitch": 31, "duration": 219, "velocity": 110}, {"time": 132479, "pitch": 43, "duration": 219, "velocity": 117}, {"time": 132718, "pitch": 42, "duration": 219, "velocity": 113}, {"time": 132957, "pitch": 41, "duration": 219, "velocity": 107}, {"time": 133195, "pitch": 33, "duration": 454, "velocity": 111}, {"time": 133679, "pitch": 34, "duration": 455, "velocity": 115}, {"time": 134163, "pitch": 35, "duration": 448, "velocity": 110}, {"time": 134641, "pitch": 36, "duration": 219, "velocity": 114}, {"time": 134880, "pitch": 43, "duration": 219, "velocity": 118}, {"time": 135119, "pitch": 31, "duration": 238, "velocity": 110}, {"time": 136564, "pitch": 31, "duration": 219, "velocity": 120}, {"time": 136803, "pitch": 33, "duration": 229, "velocity": 114}, {"time": 137042, "pitch": 33, "duration": 228, "velocity": 108}, {"time": 137280, "pitch": 33, "duration": 229, "velocity": 112}, {"time": 137519, "pitch": 33, "duration": 229, "velocity": 107}, {"time": 137758, "pitch": 33, "duration": 229, "velocity": 111}, {"time": 137997, "pitch": 33, "duration": 229, "velocity": 107}, {"time": 138235, "pitch": 33, "duration": 236, "velocity": 111}, {"time": 138481, "pitch": 33, "duration": 235, "velocity": 105}, {"time": 138726, "pitch": 28, "duration": 229, "velocity": 114}, {"time": 138965, "pitch": 28, "duration": 229, "velocity": 108}, {"time": 139204, "pitch": 28, "duration": 228, "velocity": 112}, {"time": 139442, "pitch": 28, "duration": 229, "velocity": 107}, {"time": 139681, "pitch": 28, "duration": 229, "velocity": 111}, {"time": 139920, "pitch": 28, "duration": 229, "velocity": 107}, {"time": 140159, "pitch": 28, "duration": 228, "velocity": 111}, {"time": 140397, "pitch": 28, "duration": 229, "velocity": 105}, {"time": 140636, "pitch": 36, "duration": 229, "velocity": 114}, {"time": 140875, "pitch": 36, "duration": 229, "velocity": 108}, {"time": 141114, "pitch": 36, "duration": 235, "velocity": 112}, {"time": 141359, "pitch": 36, "duration": 235, "velocity": 107}, {"time": 141604, "pitch": 36, "duration": 229, "velocity": 111}, {"time": 141843, "pitch": 36, "duration": 229, "velocity": 107}, {"time": 142082, "pitch": 36, "duration": 229, "velocity": 111}, {"time": 142320, "pitch": 36, "duration": 229, "velocity": 105}, {"time": 142559, "pitch": 31, "duration": 229, "velocity": 114}, {"time": 142798, "pitch": 31, "duration": 229, "velocity": 108}, {"time": 143037, "pitch": 31, "duration": 229, "velocity": 112}, {"time": 143276, "pitch": 31, "duration": 228, "velocity": 107}, {"time": 143514, "pitch": 31, "duration": 235, "velocity": 111}, {"time": 143760, "pitch": 31, "duration": 235, "velocity": 107}, {"time": 144005, "pitch": 31, "duration": 229, "velocity": 111}, {"time": 144244, "pitch": 31, "duration": 228, "velocity": 105}, {"time": 148316, "pitch": 43, "duration": 224, "velocity": 113}, {"time": 148561, "pitch": 31, "duration": 225, "velocity": 107}, {"time": 148806, "pitch": 31, "duration": 219, "velocity": 112}, {"time": 149045, "pitch": 31, "duration": 219, "velocity": 107}, {"time": 149284, "pitch": 31, "duration": 218, "velocity": 112}, {"time": 149522, "pitch": 31, "duration": 219, "velocity": 106}, {"time": 149761, "pitch": 31, "duration": 219, "velocity": 110}, {"time": 150000, "pitch": 31, "duration": 219, "velocity": 106}, {"time": 150239, "pitch": 36, "duration": 219, "velocity": 113}, {"time": 150477, "pitch": 31, "duration": 219, "velocity": 107}, {"time": 150716, "pitch": 31, "duration": 219, "velocity": 112}, {"time": 150955, "pitch": 31, "duration": 219, "velocity": 107}, {"time": 151194, "pitch": 31, "duration": 225, "velocity": 112}, {"time": 151439, "pitch": 31, "duration": 225, "velocity": 106}, {"time": 151684, "pitch": 31, "duration": 219, "velocity": 110}, {"time": 151923, "pitch": 31, "duration": 219, "velocity": 106}, {"time": 152162, "pitch": 43, "duration": 219, "velocity": 113}, {"time": 152401, "pitch": 31, "duration": 218, "velocity": 107}, {"time": 152639, "pitch": 31, "duration": 219, "velocity": 112}, {"time": 152878, "pitch": 31, "duration": 219, "velocity": 107}, {"time": 153117, "pitch": 31, "duration": 219, "velocity": 112}, {"time": 153356, "pitch": 31, "duration": 218, "velocity": 106}, {"time": 153594, "pitch": 31, "duration": 225, "velocity": 110}, {"time": 153840, "pitch": 31, "duration": 225, "velocity": 106}, {"time": 154085, "pitch": 43, "duration": 219, "velocity": 113}, {"time": 154324, "pitch": 26, "duration": 219, "velocity": 107}, {"time": 154562, "pitch": 31, "duration": 219, "velocity": 112}, {"time": 154801, "pitch": 26, "duration": 219, "velocity": 107}, {"time": 155040, "pitch": 31, "duration": 219, "velocity": 112}, {"time": 155279, "pitch": 26, "duration": 219, "velocity": 106}, {"time": 155517, "pitch": 29, "duration": 219, "velocity": 110}, {"time": 155756, "pitch": 30, "duration": 219, "velocity": 106}, {"time": 155995, "pitch": 43, "duration": 225, "velocity": 113}, {"time": 156240, "pitch": 31, "duration": 225, "velocity": 107}, {"time": 156486, "pitch": 31, "duration": 218, "velocity": 112}, {"time": 156724, "pitch": 31, "duration": 219, "velocity": 107}, {"time": 156963, "pitch": 31, "duration": 219, "velocity": 112}, {"time": 157202, "pitch": 31, "duration": 219, "velocity": 106}, {"time": 157441, "pitch": 31, "duration": 218, "velocity": 110}, {"time": 157679, "pitch": 31, "duration": 219, "velocity": 106}, {"time": 157918, "pitch": 36, "duration": 219, "velocity": 113}, {"time": 158157, "pitch": 31, "duration": 219, "velocity": 107}, {"time": 158396, "pitch": 31, "duration": 224, "velocity": 112}, {"time": 158641, "pitch": 31, "duration": 225, "velocity": 107}, {"time": 158886, "pitch": 31, "duration": 219, "velocity": 112}, {"time": 159125, "pitch": 31, "duration": 219, "velocity": 106}, {"time": 159364, "pitch": 31, "duration": 219, "velocity": 110}, {"time": 159602, "pitch": 31, "duration": 219, "velocity": 106}, {"time": 159841, "pitch": 43, "duration": 219, "velocity": 113}, {"time": 160080, "pitch": 31, "duration": 219, "velocity": 107}, {"time": 160319, "pitch": 31, "duration": 219, "velocity": 112}, {"time": 160558, "pitch": 31, "duration": 218, "velocity": 107}, {"time": 160796, "pitch": 31, "duration": 219, "velocity": 112}, {"time": 161035, "pitch": 31, "duration": 219, "velocity": 106}, {"time": 161274, "pitch": 31, "duration": 225, "velocity": 110}, {"time": 161519, "pitch": 31, "duration": 225, "velocity": 106}, {"time": 161764, "pitch": 43, "duration": 219, "velocity": 113}, {"time": 162003, "pitch": 26, "duration": 219, "velocity": 107}, {"time": 162242, "pitch": 31, "duration": 219, "velocity": 112}, {"time": 162481, "pitch": 26, "duration": 218, "velocity": 107}, {"time": 162719, "pitch": 31, "duration": 219, "velocity": 112}, {"time": 162958, "pitch": 31, "duration": 219, "velocity": 106}, {"time": 163197, "pitch": 33, "duration": 219, "velocity": 110}, {"time": 163436, "pitch": 35, "duration": 219, "velocity": 106}, {"time": 171354, "pitch": 36, "duration": 490, "velocity": 108}, {"time": 171844, "pitch": 36, "duration": 478, "velocity": 105}, {"time": 172322, "pitch": 35, "duration": 477, "velocity": 108}, {"time": 172799, "pitch": 35, "duration": 478, "velocity": 104}, {"time": 173277, "pitch": 33, "duration": 478, "velocity": 109}, {"time": 173755, "pitch": 33, "duration": 490, "velocity": 105}, {"time": 174245, "pitch": 31, "duration": 478, "velocity": 109}, {"time": 174723, "pitch": 31, "duration": 477, "velocity": 104}, {"time": 175200, "pitch": 29, "duration": 1923, "velocity": 106}, {"time": 177123, "pitch": 41, "duration": 915, "velocity": 103}, {"time": 179046, "pitch": 40, "duration": 229, "velocity": 112}, {"time": 179285, "pitch": 40, "duration": 229, "velocity": 106}, {"time": 179524, "pitch": 40, "duration": 229, "velocity": 112}, {"time": 179763, "pitch": 40, "duration": 228, "velocity": 106}, {"time": 180001, "pitch": 40, "duration": 229, "velocity": 112}, {"time": 180240, "pitch": 40, "duration": 229, "velocity": 106}, {"time": 180479, "pitch": 40, "duration": 229, "velocity": 112}, {"time": 180718, "pitch": 40, "duration": 228, "velocity": 106}, {"time": 180956, "pitch": 39, "duration": 229, "velocity": 112}, {"time": 181195, "pitch": 39, "duration": 229, "velocity": 106}, {"time": 181434, "pitch": 39, "duration": 235, "velocity": 112}, {"time": 181679, "pitch": 39, "duration": 235, "velocity": 106}, {"time": 181924, "pitch": 39, "duration": 229, "velocity": 112}, {"time": 182163, "pitch": 39, "duration": 229, "velocity": 106}, {"time": 182402, "pitch": 39, "duration": 229, "velocity": 112}, {"time": 182641, "pitch": 42, "duration": 229, "velocity": 106}, {"time": 182880, "pitch": 31, "duration": 228, "velocity": 109}, {"time": 183118, "pitch": 31, "duration": 229, "velocity": 106}, {"time": 183357, "pitch": 43, "duration": 229, "velocity": 110}, {"time": 183596, "pitch": 31, "duration": 229, "velocity": 105}, {"time": 183835, "pitch": 31, "duration": 235, "velocity": 110}, {"time": 184080, "pitch": 43, "duration": 235, "velocity": 103}, {"time": 184325, "pitch": 31, "duration": 229, "velocity": 107}, {"time": 184564, "pitch": 31, "duration": 229, "velocity": 103}, {"time": 184803, "pitch": 36, "duration": 228, "velocity": 100}, {"time": 185519, "pitch": 36, "duration": 219, "velocity": 99}, {"time": 185758, "pitch": 37, "duration": 219, "velocity": 99}, {"time": 186235, "pitch": 38, "duration": 225, "velocity": 99}, {"time": 186726, "pitch": 39, "duration": 219, "velocity": 105}, {"time": 186964, "pitch": 39, "duration": 219, "velocity": 102}, {"time": 187203, "pitch": 39, "duration": 219, "velocity": 99}, {"time": 187442, "pitch": 38, "duration": 229, "velocity": 99}, {"time": 187681, "pitch": 39, "duration": 219, "velocity": 106}, {"time": 187920, "pitch": 39, "duration": 218, "velocity": 103}, {"time": 188158, "pitch": 39, "duration": 219, "velocity": 104}, {"time": 188397, "pitch": 39, "duration": 219, "velocity": 101}, {"time": 188636, "pitch": 39, "duration": 225, "velocity": 104}, {"time": 188881, "pitch": 39, "duration": 225, "velocity": 101}, {"time": 189126, "pitch": 43, "duration": 219, "velocity": 104}, {"time": 189365, "pitch": 43, "duration": 219, "velocity": 99}, {"time": 189604, "pitch": 46, "duration": 219, "velocity": 103}, {"time": 189843, "pitch": 46, "duration": 219, "velocity": 98}, {"time": 190081, "pitch": 51, "duration": 219, "velocity": 107}, {"time": 190320, "pitch": 39, "duration": 219, "velocity": 102}, {"time": 190559, "pitch": 38, "duration": 219, "velocity": 105}, {"time": 190798, "pitch": 38, "duration": 219, "velocity": 102}, {"time": 191036, "pitch": 38, "duration": 219, "velocity": 99}, {"time": 191275, "pitch": 37, "duration": 229, "velocity": 99}, {"time": 191514, "pitch": 38, "duration": 225, "velocity": 106}, {"time": 191759, "pitch": 38, "duration": 225, "velocity": 103}, {"time": 192005, "pitch": 38, "duration": 218, "velocity": 104}, {"time": 192243, "pitch": 38, "duration": 219, "velocity": 101}, {"time": 192482, "pitch": 42, "duration": 219, "velocity": 105}, {"time": 192721, "pitch": 38, "duration": 219, "velocity": 100}, {"time": 192960, "pitch": 43, "duration": 218, "velocity": 105}, {"time": 193198, "pitch": 43, "duration": 219, "velocity": 100}, {"time": 193437, "pitch": 42, "duration": 219, "velocity": 105}, {"time": 193676, "pitch": 38, "duration": 219, "velocity": 99}, {"time": 193915, "pitch": 36, "duration": 224, "velocity": 102}, {"time": 194160, "pitch": 35, "duration": 225, "velocity": 98}, {"time": 194405, "pitch": 29, "duration": 219, "velocity": 118}, {"time": 194644, "pitch": 29, "duration": 219, "velocity": 114}, {"time": 194883, "pitch": 41, "duration": 238, "velocity": 117}, {"time": 195121, "pitch": 29, "duration": 219, "velocity": 109}, {"time": 195360, "pitch": 29, "duration": 219, "velocity": 113}, {"time": 195599, "pitch": 41, "duration": 219, "velocity": 118}, {"time": 195838, "pitch": 29, "duration": 219, "velocity": 114}, {"time": 196077, "pitch": 31, "duration": 463, "velocity": 118}, {"time": 196561, "pitch": 31, "duration": 225, "velocity": 109}, {"time": 196806, "pitch": 35, "duration": 219, "velocity": 112}, {"time": 197045, "pitch": 36, "duration": 218, "velocity": 114}, {"time": 197283, "pitch": 38, "duration": 219, "velocity": 119}, {"time": 197522, "pitch": 31, "duration": 219, "velocity": 110}, {"time": 197761, "pitch": 43, "duration": 219, "velocity": 117}, {"time": 198000, "pitch": 42, "duration": 219, "velocity": 113}, {"time": 198238, "pitch": 41, "duration": 219, "velocity": 107}, {"time": 198477, "pitch": 33, "duration": 454, "velocity": 111}, {"time": 198961, "pitch": 34, "duration": 454, "velocity": 115}, {"time": 199445, "pitch": 35, "duration": 448, "velocity": 110}, {"time": 199923, "pitch": 36, "duration": 219, "velocity": 114}, {"time": 200162, "pitch": 43, "duration": 218, "velocity": 118}, {"time": 200400, "pitch": 31, "duration": 239, "velocity": 110}, {"time": 201839, "pitch": 31, "duration": 225, "velocity": 120}, {"time": 202085, "pitch": 33, "duration": 228, "velocity": 114}, {"time": 202323, "pitch": 33, "duration": 229, "velocity": 108}, {"time": 202562, "pitch": 33, "duration": 229, "velocity": 112}, {"time": 202801, "pitch": 33, "duration": 229, "velocity": 107}, {"time": 203040, "pitch": 33, "duration": 228, "velocity": 111}, {"time": 203278, "pitch": 33, "duration": 229, "velocity": 107}, {"time": 203517, "pitch": 33, "duration": 229, "velocity": 111}, {"time": 203756, "pitch": 33, "duration": 229, "velocity": 105}, {"time": 203995, "pitch": 28, "duration": 235, "velocity": 114}, {"time": 204240, "pitch": 28, "duration": 235, "velocity": 108}, {"time": 204485, "pitch": 28, "duration": 229, "velocity": 112}, {"time": 204724, "pitch": 28, "duration": 229, "velocity": 107}, {"time": 204963, "pitch": 28, "duration": 229, "velocity": 111}, {"time": 205202, "pitch": 28, "duration": 228, "velocity": 107}, {"time": 205440, "pitch": 28, "duration": 229, "velocity": 111}, {"time": 205679, "pitch": 28, "duration": 229, "velocity": 105}, {"time": 205918, "pitch": 36, "duration": 229, "velocity": 114}, {"time": 206157, "pitch": 36, "duration": 228, "velocity": 108}, {"time": 206395, "pitch": 36, "duration": 235, "velocity": 112}, {"time": 206641, "pitch": 36, "duration": 235, "velocity": 107}, {"time": 206886, "pitch": 36, "duration": 229, "velocity": 111}, {"time": 207125, "pitch": 36, "duration": 228, "velocity": 107}, {"time": 207363, "pitch": 36, "duration": 229, "velocity": 111}, {"time": 207602, "pitch": 36, "duration": 229, "velocity": 105}, {"time": 207841, "pitch": 31, "duration": 229, "velocity": 114}, {"time": 208080, "pitch": 31, "duration": 229, "velocity": 108}, {"time": 208318, "pitch": 31, "duration": 229, "velocity": 112}, {"time": 208557, "pitch": 31, "duration": 229, "velocity": 107}, {"time": 208796, "pitch": 31, "duration": 229, "velocity": 111}, {"time": 209035, "pitch": 31, "duration": 229, "velocity": 107}, {"time": 209274, "pitch": 31, "duration": 235, "velocity": 111}, {"time": 209519, "pitch": 31, "duration": 235, "velocity": 105}, {"time": 217443, "pitch": 43, "duration": 219, "velocity": 113}, {"time": 217682, "pitch": 31, "duration": 219, "velocity": 107}, {"time": 217921, "pitch": 31, "duration": 219, "velocity": 112}, {"time": 218160, "pitch": 31, "duration": 219, "velocity": 107}, {"time": 218399, "pitch": 31, "duration": 218, "velocity": 112}, {"time": 218637, "pitch": 31, "duration": 219, "velocity": 106}, {"time": 218876, "pitch": 31, "duration": 219, "velocity": 110}, {"time": 219115, "pitch": 31, "duration": 219, "velocity": 106}, {"time": 219354, "pitch": 36, "duration": 224, "velocity": 113}, {"time": 219599, "pitch": 31, "duration": 225, "velocity": 107}, {"time": 219844, "pitch": 31, "duration": 219, "velocity": 112}, {"time": 220083, "pitch": 31, "duration": 219, "velocity": 107}, {"time": 220322, "pitch": 31, "duration": 219, "velocity": 112}, {"time": 220560, "pitch": 31, "duration": 219, "velocity": 106}, {"time": 220799, "pitch": 31, "duration": 219, "velocity": 110}, {"time": 221038, "pitch": 31, "duration": 219, "velocity": 106}, {"time": 221277, "pitch": 43, "duration": 219, "velocity": 113}, {"time": 221515, "pitch": 31, "duration": 219, "velocity": 107}, {"time": 221754, "pitch": 31, "duration": 225, "velocity": 112}, {"time": 221999, "pitch": 31, "duration": 225, "velocity": 107}, {"time": 222245, "pitch": 31, "duration": 219, "velocity": 112}, {"time": 222484, "pitch": 31, "duration": 218, "velocity": 106}, {"time": 222722, "pitch": 31, "duration": 219, "velocity": 110}, {"time": 222961, "pitch": 31, "duration": 219, "velocity": 106}, {"time": 223200, "pitch": 43, "duration": 219, "velocity": 113}, {"time": 223439, "pitch": 26, "duration": 218, "velocity": 107}, {"time": 223677, "pitch": 31, "duration": 219, "velocity": 112}, {"time": 223916, "pitch": 26, "duration": 219, "velocity": 107}, {"time": 224155, "pitch": 31, "duration": 225, "velocity": 112}, {"time": 224400, "pitch": 26, "duration": 225, "velocity": 106}, {"time": 224645, "pitch": 29, "duration": 219, "velocity": 110}, {"time": 224884, "pitch": 30, "duration": 219, "velocity": 106}, {"time": 225123, "pitch": 43, "duration": 219, "velocity": 113}, {"time": 225362, "pitch": 31, "duration": 219, "velocity": 107}, {"time": 225600, "pitch": 31, "duration": 219, "velocity": 112}, {"time": 225839, "pitch": 31, "duration": 219, "velocity": 107}, {"time": 226078, "pitch": 31, "duration": 219, "velocity": 112}, {"time": 226317, "pitch": 31, "duration": 219, "velocity": 106}, {"time": 226556, "pitch": 31, "duration": 224, "velocity": 110}, {"time": 226801, "pitch": 31, "duration": 225, "velocity": 106}, {"time": 227046, "pitch": 36, "duration": 219, "velocity": 113}, {"time": 227285, "pitch": 31, "duration": 219, "velocity": 107}, {"time": 227524, "pitch": 31, "duration": 218, "velocity": 112}, {"time": 227762, "pitch": 31, "duration": 219, "velocity": 107}, {"time": 228001, "pitch": 31, "duration": 219, "velocity": 112}, {"time": 228240, "pitch": 31, "duration": 219, "velocity": 106}, {"time": 228479, "pitch": 31, "duration": 218, "velocity": 110}, {"time": 228717, "pitch": 31, "duration": 219, "velocity": 106}, {"time": 228956, "pitch": 43, "duration": 219, "velocity": 113}, {"time": 229195, "pitch": 31, "duration": 219, "velocity": 107}, {"time": 229434, "pitch": 31, "duration": 224, "velocity": 112}, {"time": 229679, "pitch": 31, "duration": 225, "velocity": 107}, {"time": 229924, "pitch": 31, "duration": 219, "velocity": 112}, {"time": 230163, "pitch": 31, "duration": 219, "velocity": 106}, {"time": 230402, "pitch": 31, "duration": 219, "velocity": 110}, {"time": 230640, "pitch": 31, "duration": 219, "velocity": 106}, {"time": 230879, "pitch": 43, "duration": 219, "velocity": 113}, {"time": 231118, "pitch": 26, "duration": 219, "velocity": 107}, {"time": 231357, "pitch": 31, "duration": 219, "velocity": 112}, {"time": 231596, "pitch": 26, "duration": 218, "velocity": 107}, {"time": 231834, "pitch": 31, "duration": 225, "velocity": 112}, {"time": 232080, "pitch": 31, "duration": 225, "velocity": 106}, {"time": 232325, "pitch": 33, "duration": 219, "velocity": 110}, {"time": 232564, "pitch": 35, "duration": 218, "velocity": 106}, {"time": 240482, "pitch": 36, "duration": 477, "velocity": 108}, {"time": 240959, "pitch": 36, "duration": 478, "velocity": 105}, {"time": 241437, "pitch": 35, "duration": 477, "velocity": 108}, {"time": 241914, "pitch": 35, "duration": 491, "velocity": 104}, {"time": 242405, "pitch": 33, "duration": 477, "velocity": 109}, {"time": 242882, "pitch": 33, "duration": 478, "velocity": 105}, {"time": 243360, "pitch": 31, "duration": 478, "velocity": 109}, {"time": 243838, "pitch": 31, "duration": 477, "velocity": 104}, {"time": 244315, "pitch": 29, "duration": 1923, "velocity": 106}, {"time": 246238, "pitch": 41, "duration": 927, "velocity": 103}, {"time": 247206, "pitch": 43, "duration": 239, "velocity": 111}, {"time": 247684, "pitch": 43, "duration": 238, "velocity": 108}, {"time": 248161, "pitch": 31, "duration": 209, "velocity": 114}, {"time": 248400, "pitch": 31, "duration": 209, "velocity": 106}, {"time": 248639, "pitch": 43, "duration": 239, "velocity": 117}, {"time": 249116, "pitch": 43, "duration": 239, "velocity": 115}, {"time": 249594, "pitch": 29, "duration": 214, "velocity": 114}, {"time": 249839, "pitch": 29, "duration": 215, "velocity": 106}, {"time": 250084, "pitch": 41, "duration": 239, "velocity": 118}, {"time": 250562, "pitch": 41, "duration": 239, "velocity": 115}, {"time": 251039, "pitch": 28, "duration": 229, "velocity": 113}, {"time": 251278, "pitch": 28, "duration": 229, "velocity": 107}, {"time": 251517, "pitch": 44, "duration": 239, "velocity": 118}, {"time": 251756, "pitch": 40, "duration": 238, "velocity": 112}, {"time": 251994, "pitch": 50, "duration": 225, "velocity": 116}, {"time": 252240, "pitch": 40, "duration": 225, "velocity": 111}, {"time": 252485, "pitch": 39, "duration": 239, "velocity": 115}, {"time": 252963, "pitch": 39, "duration": 238, "velocity": 110}, {"time": 253440, "pitch": 41, "duration": 219, "velocity": 110}, {"time": 253679, "pitch": 43, "duration": 219, "velocity": 112}, {"time": 253918, "pitch": 31, "duration": 209, "velocity": 114}, {"time": 254156, "pitch": 31, "duration": 209, "velocity": 106}, {"time": 254395, "pitch": 43, "duration": 245, "velocity": 117}, {"time": 254886, "pitch": 43, "duration": 238, "velocity": 115}, {"time": 255363, "pitch": 29, "duration": 209, "velocity": 114}, {"time": 255602, "pitch": 29, "duration": 209, "velocity": 106}, {"time": 255841, "pitch": 41, "duration": 238, "velocity": 118}, {"time": 256318, "pitch": 41, "duration": 239, "velocity": 115}, {"time": 256796, "pitch": 28, "duration": 235, "velocity": 113}, {"time": 257041, "pitch": 28, "duration": 235, "velocity": 107}, {"time": 257286, "pitch": 44, "duration": 239, "velocity": 118}, {"time": 257525, "pitch": 40, "duration": 239, "velocity": 112}, {"time": 257764, "pitch": 50, "duration": 219, "velocity": 116}, {"time": 258003, "pitch": 40, "duration": 218, "velocity": 111}, {"time": 258241, "pitch": 39, "duration": 239, "velocity": 115}, {"time": 258719, "pitch": 39, "duration": 239, "velocity": 110}, {"time": 259196, "pitch": 41, "duration": 219, "velocity": 110}, {"time": 259435, "pitch": 34, "duration": 219, "velocity": 112}], "annotations": [{"time": 293, "annotation": {"number": 7, "value": 120}, "group": "control_change"}, {"time": 314, "annotation": {"number": 11, "value": 120}, "group": "control_change"}, {"time": 335, "annotation": {"number": 10, "value": 64}, "group": "control_change"}, {"time": 356, "annotation": {"number": 91, "value": 0}, "group": "control_change"}, {"time": 377, "annotation": {"number": 93, "value": 10}, "group": "control_change"}, {"time": 397, "annotation": {"number": 101, "value": 0}, "group": "control_change"}, {"time": 418, "annotation": {"number": 100, "value": 0}, "group": "control_change"}, {"time": 439, "annotation": {"number": 6, "value": 12}, "group": "control_change"}, {"time": 460, "annotation": {"number": 101, "value": 127}, "group": "control_change"}, {"time": 483, "annotation": {"number": 100, "value": 127}, "group": "control_change"}]}, {"program": 0, "is_drum": false, "name": "SLAP BASS", "annotations": [{"time": 230, "annotation": {"number": 0, "value": 0}, "group": "control_change"}, {"time": 251, "annotation": {"number": 32, "value": 0}, "group": "control_change"}]}, {"program": 37, "is_drum": false, "name": "SLAP BASS", "notes": [{"time": 17520, "pitch": 26, "duration": 225, "velocity": 102}, {"time": 17765, "pitch": 31, "duration": 219, "velocity": 108}, {"time": 18004, "pitch": 31, "duration": 219, "velocity": 103}, {"time": 18959, "pitch": 26, "duration": 219, "velocity": 99}, {"time": 19198, "pitch": 29, "duration": 219, "velocity": 104}, {"time": 19436, "pitch": 26, "duration": 219, "velocity": 97}, {"time": 21360, "pitch": 26, "duration": 218, "velocity": 102}, {"time": 21598, "pitch": 31, "duration": 219, "velocity": 108}, {"time": 21837, "pitch": 31, "duration": 219, "velocity": 103}, {"time": 22805, "pitch": 31, "duration": 219, "velocity": 99}, {"time": 23044, "pitch": 26, "duration": 219, "velocity": 104}, {"time": 23283, "pitch": 26, "duration": 219, "velocity": 97}, {"time": 23521, "pitch": 29, "duration": 219, "velocity": 105}, {"time": 23999, "pitch": 29, "duration": 448, "velocity": 103}, {"time": 24715, "pitch": 26, "duration": 219, "velocity": 100}, {"time": 24954, "pitch": 29, "duration": 225, "velocity": 104}, {"time": 25199, "pitch": 31, "duration": 225, "velocity": 103}, {"time": 25683, "pitch": 31, "duration": 219, "velocity": 106}, {"time": 26161, "pitch": 31, "duration": 219, "velocity": 106}, {"time": 29039, "pitch": 26, "duration": 219, "velocity": 102}, {"time": 29278, "pitch": 31, "duration": 219, "velocity": 108}, {"time": 29517, "pitch": 31, "duration": 218, "velocity": 103}, {"time": 31917, "pitch": 26, "duration": 219, "velocity": 102}, {"time": 32156, "pitch": 31, "duration": 225, "velocity": 108}, {"time": 32401, "pitch": 31, "duration": 225, "velocity": 103}, {"time": 33363, "pitch": 31, "duration": 219, "velocity": 99}, {"time": 33601, "pitch": 26, "duration": 219, "velocity": 104}, {"time": 33840, "pitch": 26, "duration": 219, "velocity": 97}, {"time": 34079, "pitch": 31, "duration": 219, "velocity": 105}, {"time": 34557, "pitch": 31, "duration": 447, "velocity": 103}, {"time": 35279, "pitch": 26, "duration": 225, "velocity": 100}, {"time": 35525, "pitch": 31, "duration": 218, "velocity": 104}, {"time": 35763, "pitch": 29, "duration": 219, "velocity": 103}, {"time": 36241, "pitch": 29, "duration": 219, "velocity": 106}, {"time": 36718, "pitch": 29, "duration": 219, "velocity": 106}, {"time": 37196, "pitch": 29, "duration": 219, "velocity": 106}, {"time": 37435, "pitch": 26, "duration": 225, "velocity": 104}, {"time": 37680, "pitch": 26, "duration": 225, "velocity": 100}, {"time": 37925, "pitch": 31, "duration": 219, "velocity": 106}, {"time": 38164, "pitch": 43, "duration": 219, "velocity": 101}, {"time": 38642, "pitch": 43, "duration": 218, "velocity": 106}, {"time": 39119, "pitch": 31, "duration": 219, "velocity": 103}, {"time": 39358, "pitch": 47, "duration": 358, "velocity": 110}, {"time": 40081, "pitch": 50, "duration": 454, "velocity": 110}, {"time": 40803, "pitch": 36, "duration": 219, "velocity": 106}, {"time": 41042, "pitch": 31, "duration": 219, "velocity": 100}, {"time": 41520, "pitch": 31, "duration": 219, "velocity": 106}, {"time": 48005, "pitch": 47, "duration": 349, "velocity": 113}, {"time": 48363, "pitch": 43, "duration": 100, "velocity": 106}, {"time": 48483, "pitch": 50, "duration": 229, "velocity": 113}, {"time": 48722, "pitch": 48, "duration": 228, "velocity": 106}, {"time": 48960, "pitch": 47, "duration": 229, "velocity": 110}, {"time": 57117, "pitch": 38, "duration": 229, "velocity": 110}, {"time": 57595, "pitch": 38, "duration": 235, "velocity": 103}, {"time": 58085, "pitch": 33, "duration": 199, "velocity": 101}, {"time": 58324, "pitch": 33, "duration": 199, "velocity": 95}, {"time": 58563, "pitch": 38, "duration": 229, "velocity": 110}, {"time": 59040, "pitch": 38, "duration": 229, "velocity": 103}, {"time": 59518, "pitch": 33, "duration": 199, "velocity": 101}, {"time": 59757, "pitch": 33, "duration": 199, "velocity": 95}, {"time": 59996, "pitch": 38, "duration": 122, "velocity": 110}, {"time": 60241, "pitch": 38, "duration": 122, "velocity": 107}, {"time": 60486, "pitch": 38, "duration": 119, "velocity": 109}, {"time": 60725, "pitch": 38, "duration": 119, "velocity": 108}, {"time": 76322, "pitch": 36, "duration": 219, "velocity": 109}, {"time": 76800, "pitch": 36, "duration": 219, "velocity": 106}, {"time": 77277, "pitch": 36, "duration": 219, "velocity": 109}, {"time": 77755, "pitch": 36, "duration": 470, "velocity": 107}, {"time": 78246, "pitch": 31, "duration": 238, "velocity": 111}, {"time": 78723, "pitch": 31, "duration": 239, "velocity": 108}, {"time": 79201, "pitch": 31, "duration": 218, "velocity": 107}, {"time": 79439, "pitch": 31, "duration": 219, "velocity": 101}, {"time": 79678, "pitch": 33, "duration": 219, "velocity": 105}, {"time": 79917, "pitch": 35, "duration": 219, "velocity": 101}, {"time": 80156, "pitch": 36, "duration": 224, "velocity": 109}, {"time": 80646, "pitch": 36, "duration": 219, "velocity": 106}, {"time": 81124, "pitch": 36, "duration": 219, "velocity": 109}, {"time": 81601, "pitch": 36, "duration": 458, "velocity": 107}, {"time": 82079, "pitch": 31, "duration": 239, "velocity": 111}, {"time": 82556, "pitch": 31, "duration": 239, "velocity": 108}, {"time": 83034, "pitch": 31, "duration": 225, "velocity": 107}, {"time": 83279, "pitch": 31, "duration": 225, "velocity": 101}, {"time": 83524, "pitch": 33, "duration": 219, "velocity": 105}, {"time": 83763, "pitch": 35, "duration": 219, "velocity": 101}, {"time": 104878, "pitch": 26, "duration": 219, "velocity": 102}, {"time": 105117, "pitch": 31, "duration": 219, "velocity": 108}, {"time": 105356, "pitch": 31, "duration": 219, "velocity": 103}, {"time": 106324, "pitch": 26, "duration": 219, "velocity": 99}, {"time": 106563, "pitch": 29, "duration": 219, "velocity": 104}, {"time": 106801, "pitch": 26, "duration": 219, "velocity": 97}, {"time": 108725, "pitch": 26, "duration": 218, "velocity": 102}, {"time": 108963, "pitch": 31, "duration": 219, "velocity": 108}, {"time": 109202, "pitch": 31, "duration": 219, "velocity": 103}, {"time": 110157, "pitch": 31, "duration": 219, "velocity": 99}, {"time": 110396, "pitch": 26, "duration": 225, "velocity": 104}, {"time": 110641, "pitch": 26, "duration": 225, "velocity": 97}, {"time": 110886, "pitch": 29, "duration": 219, "velocity": 105}, {"time": 111364, "pitch": 29, "duration": 448, "velocity": 103}, {"time": 112080, "pitch": 26, "duration": 219, "velocity": 100}, {"time": 112319, "pitch": 29, "duration": 219, "velocity": 104}, {"time": 112558, "pitch": 31, "duration": 219, "velocity": 103}, {"time": 113035, "pitch": 31, "duration": 219, "velocity": 106}, {"time": 113519, "pitch": 31, "duration": 225, "velocity": 106}, {"time": 116404, "pitch": 26, "duration": 219, "velocity": 102}, {"time": 119282, "pitch": 26, "duration": 219, "velocity": 102}, {"time": 119521, "pitch": 31, "duration": 219, "velocity": 108}, {"time": 119760, "pitch": 31, "duration": 219, "velocity": 103}, {"time": 120721, "pitch": 31, "duration": 225, "velocity": 99}, {"time": 120966, "pitch": 26, "duration": 219, "velocity": 104}, {"time": 121205, "pitch": 26, "duration": 219, "velocity": 97}, {"time": 121444, "pitch": 31, "duration": 219, "velocity": 105}, {"time": 121922, "pitch": 31, "duration": 447, "velocity": 103}, {"time": 122638, "pitch": 26, "duration": 219, "velocity": 100}, {"time": 122877, "pitch": 31, "duration": 218, "velocity": 104}, {"time": 123115, "pitch": 29, "duration": 219, "velocity": 103}, {"time": 123599, "pitch": 29, "duration": 225, "velocity": 106}, {"time": 124083, "pitch": 29, "duration": 219, "velocity": 106}, {"time": 124561, "pitch": 29, "duration": 219, "velocity": 106}, {"time": 124800, "pitch": 26, "duration": 219, "velocity": 104}, {"time": 125038, "pitch": 26, "duration": 219, "velocity": 100}, {"time": 125277, "pitch": 31, "duration": 219, "velocity": 106}, {"time": 125516, "pitch": 43, "duration": 219, "velocity": 101}, {"time": 126000, "pitch": 43, "duration": 225, "velocity": 106}, {"time": 126484, "pitch": 31, "duration": 219, "velocity": 103}, {"time": 126723, "pitch": 47, "duration": 358, "velocity": 110}, {"time": 127439, "pitch": 50, "duration": 448, "velocity": 110}, {"time": 128155, "pitch": 36, "duration": 225, "velocity": 106}, {"time": 128401, "pitch": 31, "duration": 225, "velocity": 100}, {"time": 128885, "pitch": 31, "duration": 219, "velocity": 106}, {"time": 135357, "pitch": 47, "duration": 349, "velocity": 113}, {"time": 135715, "pitch": 43, "duration": 100, "velocity": 106}, {"time": 135835, "pitch": 50, "duration": 235, "velocity": 113}, {"time": 136080, "pitch": 48, "duration": 235, "velocity": 106}, {"time": 136325, "pitch": 47, "duration": 229, "velocity": 110}, {"time": 144482, "pitch": 38, "duration": 229, "velocity": 110}, {"time": 144960, "pitch": 38, "duration": 229, "velocity": 103}, {"time": 145437, "pitch": 33, "duration": 199, "velocity": 101}, {"time": 145676, "pitch": 33, "duration": 199, "velocity": 95}, {"time": 145915, "pitch": 38, "duration": 235, "velocity": 110}, {"time": 146405, "pitch": 38, "duration": 229, "velocity": 103}, {"time": 146883, "pitch": 33, "duration": 199, "velocity": 101}, {"time": 147122, "pitch": 33, "duration": 199, "velocity": 95}, {"time": 147360, "pitch": 38, "duration": 120, "velocity": 110}, {"time": 147599, "pitch": 38, "duration": 120, "velocity": 107}, {"time": 147838, "pitch": 38, "duration": 119, "velocity": 109}, {"time": 148077, "pitch": 38, "duration": 119, "velocity": 108}, {"time": 163674, "pitch": 36, "duration": 225, "velocity": 109}, {"time": 164165, "pitch": 36, "duration": 219, "velocity": 106}, {"time": 164642, "pitch": 36, "duration": 219, "velocity": 109}, {"time": 165120, "pitch": 36, "duration": 458, "velocity": 107}, {"time": 165598, "pitch": 31, "duration": 238, "velocity": 111}, {"time": 166075, "pitch": 31, "duration": 245, "velocity": 108}, {"time": 166566, "pitch": 31, "duration": 218, "velocity": 107}, {"time": 166804, "pitch": 31, "duration": 219, "velocity": 101}, {"time": 167043, "pitch": 33, "duration": 219, "velocity": 105}, {"time": 167282, "pitch": 35, "duration": 219, "velocity": 101}, {"time": 167521, "pitch": 36, "duration": 219, "velocity": 109}, {"time": 167998, "pitch": 36, "duration": 219, "velocity": 106}, {"time": 168476, "pitch": 36, "duration": 225, "velocity": 109}, {"time": 168966, "pitch": 36, "duration": 458, "velocity": 107}, {"time": 169444, "pitch": 31, "duration": 239, "velocity": 111}, {"time": 169921, "pitch": 31, "duration": 239, "velocity": 108}, {"time": 170399, "pitch": 31, "duration": 219, "velocity": 107}, {"time": 170638, "pitch": 31, "duration": 218, "velocity": 101}, {"time": 170876, "pitch": 33, "duration": 219, "velocity": 105}, {"time": 171115, "pitch": 35, "duration": 219, "velocity": 101}, {"time": 178078, "pitch": 31, "duration": 239, "velocity": 115}, {"time": 178556, "pitch": 31, "duration": 245, "velocity": 115}, {"time": 185041, "pitch": 36, "duration": 219, "velocity": 120}, {"time": 185280, "pitch": 36, "duration": 219, "velocity": 120}, {"time": 185996, "pitch": 37, "duration": 219, "velocity": 120}, {"time": 186480, "pitch": 38, "duration": 225, "velocity": 120}, {"time": 200639, "pitch": 47, "duration": 348, "velocity": 113}, {"time": 200997, "pitch": 43, "duration": 100, "velocity": 106}, {"time": 201117, "pitch": 50, "duration": 228, "velocity": 113}, {"time": 201355, "pitch": 48, "duration": 229, "velocity": 106}, {"time": 201594, "pitch": 47, "duration": 235, "velocity": 110}, {"time": 209764, "pitch": 38, "duration": 229, "velocity": 110}, {"time": 210242, "pitch": 38, "duration": 228, "velocity": 103}, {"time": 210719, "pitch": 33, "duration": 199, "velocity": 101}, {"time": 210958, "pitch": 33, "duration": 199, "velocity": 95}, {"time": 211197, "pitch": 38, "duration": 228, "velocity": 110}, {"time": 211674, "pitch": 38, "duration": 235, "velocity": 103}, {"time": 212165, "pitch": 33, "duration": 199, "velocity": 101}, {"time": 212403, "pitch": 33, "duration": 199, "velocity": 95}, {"time": 212642, "pitch": 38, "duration": 229, "velocity": 110}, {"time": 213120, "pitch": 38, "duration": 229, "velocity": 107}, {"time": 213597, "pitch": 38, "duration": 229, "velocity": 110}, {"time": 214075, "pitch": 38, "duration": 235, "velocity": 103}, {"time": 214565, "pitch": 33, "duration": 199, "velocity": 101}, {"time": 214804, "pitch": 33, "duration": 199, "velocity": 95}, {"time": 215043, "pitch": 38, "duration": 229, "velocity": 110}, {"time": 215520, "pitch": 38, "duration": 229, "velocity": 103}, {"time": 215998, "pitch": 33, "duration": 199, "velocity": 101}, {"time": 216237, "pitch": 33, "duration": 199, "velocity": 95}, {"time": 216475, "pitch": 38, "duration": 123, "velocity": 110}, {"time": 216721, "pitch": 38, "duration": 122, "velocity": 107}, {"time": 216966, "pitch": 38, "duration": 119, "velocity": 109}, {"time": 217205, "pitch": 38, "duration": 119, "velocity": 108}, {"time": 232802, "pitch": 36, "duration": 219, "velocity": 109}, {"time": 233280, "pitch": 36, "duration": 219, "velocity": 106}, {"time": 233757, "pitch": 36, "duration": 219, "velocity": 109}, {"time": 234235, "pitch": 36, "duration": 470, "velocity": 107}, {"time": 234725, "pitch": 31, "duration": 239, "velocity": 111}, {"time": 235203, "pitch": 31, "duration": 239, "velocity": 108}, {"time": 235681, "pitch": 31, "duration": 218, "velocity": 107}, {"time": 235919, "pitch": 31, "duration": 219, "velocity": 101}, {"time": 236158, "pitch": 33, "duration": 219, "velocity": 105}, {"time": 236397, "pitch": 35, "duration": 219, "velocity": 101}, {"time": 236636, "pitch": 36, "duration": 224, "velocity": 109}, {"time": 237126, "pitch": 36, "duration": 219, "velocity": 106}, {"time": 237604, "pitch": 36, "duration": 219, "velocity": 109}, {"time": 238081, "pitch": 36, "duration": 458, "velocity": 107}, {"time": 238559, "pitch": 31, "duration": 238, "velocity": 111}, {"time": 239036, "pitch": 31, "duration": 239, "velocity": 108}, {"time": 239514, "pitch": 31, "duration": 225, "velocity": 107}, {"time": 239759, "pitch": 31, "duration": 225, "velocity": 101}, {"time": 240004, "pitch": 33, "duration": 219, "velocity": 105}, {"time": 240243, "pitch": 35, "duration": 219, "velocity": 101}], "annotations": [{"time": 293, "annotation": {"number": 7, "value": 120}, "group": "control_change"}, {"time": 314, "annotation": {"number": 11, "value": 100}, "group": "control_change"}, {"time": 335, "annotation": {"number": 10, "value": 64}, "group": "control_change"}, {"time": 356, "annotation": {"number": 91, "value": 0}, "group": "control_change"}, {"time": 377, "annotation": {"number": 93, "value": 10}, "group": "control_change"}, {"time": 397, "annotation": {"number": 101, "value": 0}, "group": "control_change"}, {"time": 418, "annotation": {"number": 100, "value": 0}, "group": "control_change"}, {"time": 439, "annotation": {"number": 6, "value": 12}, "group": "control_change"}, {"time": 460, "annotation": {"number": 101, "value": 127}, "group": "control_change"}, {"time": 483, "annotation": {"number": 100, "value": 127}, "group": "control_change"}]}, {"program": 0, "is_drum": false, "name": "MELODY", "annotations": [{"time": 230, "annotation": {"number": 0, "value": 0}, "group": "control_change"}, {"time": 251, "annotation": {"number": 32, "value": 0}, "group": "control_change"}]}, {"program": 73, "is_drum": false, "name": "MELODY", "notes": [{"time": 16081, "pitch": 71, "duration": 477, "velocity": 127}, {"time": 16558, "pitch": 71, "duration": 219, "velocity": 127}, {"time": 16797, "pitch": 71, "duration": 219, "velocity": 127}, {"time": 17036, "pitch": 71, "duration": 219, "velocity": 127}, {"time": 17275, "pitch": 71, "duration": 224, "velocity": 127}, {"time": 17520, "pitch": 72, "duration": 464, "velocity": 127}, {"time": 18004, "pitch": 71, "duration": 448, "velocity": 127}, {"time": 19920, "pitch": 71, "duration": 225, "velocity": 127}, {"time": 20166, "pitch": 71, "duration": 219, "velocity": 127}, {"time": 20404, "pitch": 71, "duration": 219, "velocity": 127}, {"time": 20643, "pitch": 71, "duration": 219, "velocity": 127}, {"time": 20882, "pitch": 71, "duration": 219, "velocity": 127}, {"time": 21121, "pitch": 71, "duration": 219, "velocity": 127}, {"time": 21360, "pitch": 71, "duration": 238, "velocity": 127}, {"time": 21598, "pitch": 72, "duration": 219, "velocity": 127}, {"time": 21837, "pitch": 71, "duration": 453, "velocity": 127}, {"time": 22321, "pitch": 67, "duration": 454, "velocity": 127}, {"time": 22805, "pitch": 67, "duration": 716, "velocity": 127}, {"time": 23521, "pitch": 65, "duration": 448, "velocity": 127}, {"time": 23999, "pitch": 67, "duration": 219, "velocity": 127}, {"time": 24238, "pitch": 69, "duration": 447, "velocity": 127}, {"time": 24715, "pitch": 72, "duration": 454, "velocity": 127}, {"time": 25199, "pitch": 71, "duration": 464, "velocity": 127}, {"time": 25683, "pitch": 67, "duration": 677, "velocity": 127}, {"time": 27845, "pitch": 74, "duration": 219, "velocity": 127}, {"time": 28084, "pitch": 72, "duration": 219, "velocity": 127}, {"time": 28323, "pitch": 71, "duration": 219, "velocity": 127}, {"time": 28561, "pitch": 72, "duration": 448, "velocity": 127}, {"time": 29039, "pitch": 74, "duration": 478, "velocity": 127}, {"time": 29517, "pitch": 67, "duration": 484, "velocity": 127}, {"time": 30485, "pitch": 62, "duration": 238, "velocity": 127}, {"time": 30723, "pitch": 74, "duration": 219, "velocity": 127}, {"time": 30962, "pitch": 72, "duration": 219, "velocity": 127}, {"time": 31201, "pitch": 71, "duration": 219, "velocity": 127}, {"time": 31440, "pitch": 72, "duration": 447, "velocity": 127}, {"time": 31917, "pitch": 74, "duration": 464, "velocity": 127}, {"time": 32401, "pitch": 67, "duration": 454, "velocity": 127}, {"time": 34557, "pitch": 74, "duration": 218, "velocity": 127}, {"time": 34795, "pitch": 72, "duration": 219, "velocity": 127}, {"time": 35034, "pitch": 71, "duration": 225, "velocity": 127}, {"time": 35279, "pitch": 72, "duration": 455, "velocity": 127}, {"time": 35763, "pitch": 74, "duration": 458, "velocity": 127}, {"time": 36241, "pitch": 79, "duration": 448, "velocity": 127}, {"time": 36718, "pitch": 77, "duration": 448, "velocity": 127}, {"time": 37196, "pitch": 74, "duration": 453, "velocity": 127}, {"time": 37680, "pitch": 72, "duration": 464, "velocity": 127}, {"time": 38164, "pitch": 72, "duration": 219, "velocity": 127}, {"time": 38403, "pitch": 74, "duration": 447, "velocity": 127}, {"time": 38880, "pitch": 71, "duration": 1884, "velocity": 127}, {"time": 40803, "pitch": 67, "duration": 916, "velocity": 127}, {"time": 41758, "pitch": 65, "duration": 916, "velocity": 127}, {"time": 42714, "pitch": 65, "duration": 224, "velocity": 127}, {"time": 42959, "pitch": 67, "duration": 225, "velocity": 127}, {"time": 43204, "pitch": 69, "duration": 219, "velocity": 127}, {"time": 43443, "pitch": 72, "duration": 457, "velocity": 127}, {"time": 43920, "pitch": 71, "duration": 448, "velocity": 127}, {"time": 45114, "pitch": 67, "duration": 460, "velocity": 127}, {"time": 45605, "pitch": 65, "duration": 915, "velocity": 127}, {"time": 46560, "pitch": 65, "duration": 219, "velocity": 127}, {"time": 46799, "pitch": 67, "duration": 218, "velocity": 127}, {"time": 47037, "pitch": 69, "duration": 219, "velocity": 127}, {"time": 47276, "pitch": 72, "duration": 464, "velocity": 127}, {"time": 47760, "pitch": 74, "duration": 454, "velocity": 127}, {"time": 49199, "pitch": 62, "duration": 239, "velocity": 127}, {"time": 49438, "pitch": 72, "duration": 477, "velocity": 127}, {"time": 49915, "pitch": 72, "duration": 246, "velocity": 127}, {"time": 50161, "pitch": 72, "duration": 484, "velocity": 127}, {"time": 50645, "pitch": 72, "duration": 447, "velocity": 127}, {"time": 51122, "pitch": 71, "duration": 717, "velocity": 127}, {"time": 51839, "pitch": 71, "duration": 238, "velocity": 127}, {"time": 52077, "pitch": 72, "duration": 448, "velocity": 127}, {"time": 52555, "pitch": 74, "duration": 453, "velocity": 127}, {"time": 53284, "pitch": 75, "duration": 448, "velocity": 127}, {"time": 53762, "pitch": 74, "duration": 477, "velocity": 127}, {"time": 54239, "pitch": 72, "duration": 448, "velocity": 127}, {"time": 54717, "pitch": 70, "duration": 447, "velocity": 127}, {"time": 55194, "pitch": 67, "duration": 491, "velocity": 127}, {"time": 55685, "pitch": 65, "duration": 447, "velocity": 127}, {"time": 56162, "pitch": 63, "duration": 448, "velocity": 127}, {"time": 56640, "pitch": 67, "duration": 477, "velocity": 127}, {"time": 57117, "pitch": 66, "duration": 1904, "velocity": 127}, {"time": 59040, "pitch": 69, "duration": 1904, "velocity": 127}, {"time": 61441, "pitch": 74, "duration": 448, "velocity": 127}, {"time": 61919, "pitch": 74, "duration": 447, "velocity": 127}, {"time": 62396, "pitch": 74, "duration": 448, "velocity": 127}, {"time": 62874, "pitch": 72, "duration": 460, "velocity": 127}, {"time": 63364, "pitch": 74, "duration": 448, "velocity": 127}, {"time": 63842, "pitch": 72, "duration": 447, "velocity": 127}, {"time": 64319, "pitch": 74, "duration": 448, "velocity": 127}, {"time": 64797, "pitch": 71, "duration": 1425, "velocity": 127}, {"time": 66242, "pitch": 74, "duration": 448, "velocity": 127}, {"time": 66720, "pitch": 69, "duration": 1903, "velocity": 127}, {"time": 69121, "pitch": 74, "duration": 447, "velocity": 127}, {"time": 69598, "pitch": 74, "duration": 448, "velocity": 127}, {"time": 70076, "pitch": 74, "duration": 460, "velocity": 127}, {"time": 70566, "pitch": 72, "duration": 448, "velocity": 127}, {"time": 71044, "pitch": 74, "duration": 447, "velocity": 127}, {"time": 71521, "pitch": 72, "duration": 448, "velocity": 127}, {"time": 71999, "pitch": 74, "duration": 447, "velocity": 127}, {"time": 72476, "pitch": 71, "duration": 1426, "velocity": 127}, {"time": 73922, "pitch": 74, "duration": 447, "velocity": 127}, {"time": 74399, "pitch": 69, "duration": 1904, "velocity": 127}, {"time": 76800, "pitch": 76, "duration": 239, "velocity": 127}, {"time": 77039, "pitch": 76, "duration": 238, "velocity": 127}, {"time": 77277, "pitch": 76, "duration": 239, "velocity": 127}, {"time": 77516, "pitch": 76, "duration": 239, "velocity": 127}, {"time": 77755, "pitch": 76, "duration": 491, "velocity": 127}, {"time": 78246, "pitch": 74, "duration": 447, "velocity": 127}, {"time": 78723, "pitch": 79, "duration": 219, "velocity": 127}, {"time": 78962, "pitch": 67, "duration": 448, "velocity": 127}, {"time": 79439, "pitch": 69, "duration": 677, "velocity": 127}, {"time": 80646, "pitch": 76, "duration": 478, "velocity": 127}, {"time": 81124, "pitch": 76, "duration": 219, "velocity": 127}, {"time": 81362, "pitch": 76, "duration": 219, "velocity": 127}, {"time": 81601, "pitch": 76, "duration": 239, "velocity": 127}, {"time": 81840, "pitch": 76, "duration": 239, "velocity": 127}, {"time": 82079, "pitch": 74, "duration": 447, "velocity": 127}, {"time": 82556, "pitch": 79, "duration": 219, "velocity": 127}, {"time": 82795, "pitch": 67, "duration": 453, "velocity": 127}, {"time": 83279, "pitch": 69, "duration": 683, "velocity": 127}, {"time": 84479, "pitch": 76, "duration": 239, "velocity": 127}, {"time": 84718, "pitch": 76, "duration": 239, "velocity": 127}, {"time": 84957, "pitch": 76, "duration": 239, "velocity": 127}, {"time": 85196, "pitch": 76, "duration": 238, "velocity": 127}, {"time": 85434, "pitch": 76, "duration": 491, "velocity": 127}, {"time": 85925, "pitch": 74, "duration": 448, "velocity": 127}, {"time": 86403, "pitch": 72, "duration": 218, "velocity": 127}, {"time": 86641, "pitch": 71, "duration": 448, "velocity": 127}, {"time": 87119, "pitch": 72, "duration": 219, "velocity": 127}, {"time": 87358, "pitch": 74, "duration": 477, "velocity": 127}, {"time": 87835, "pitch": 72, "duration": 307, "velocity": 127}, {"time": 88162, "pitch": 71, "duration": 303, "velocity": 127}, {"time": 88485, "pitch": 67, "duration": 298, "velocity": 127}, {"time": 88803, "pitch": 72, "duration": 299, "velocity": 127}, {"time": 89122, "pitch": 71, "duration": 298, "velocity": 127}, {"time": 89440, "pitch": 67, "duration": 298, "velocity": 127}, {"time": 89758, "pitch": 72, "duration": 299, "velocity": 127}, {"time": 90077, "pitch": 71, "duration": 302, "velocity": 127}, {"time": 90399, "pitch": 67, "duration": 307, "velocity": 127}, {"time": 90726, "pitch": 72, "duration": 239, "velocity": 127}, {"time": 91204, "pitch": 71, "duration": 477, "velocity": 127}, {"time": 103439, "pitch": 71, "duration": 225, "velocity": 127}, {"time": 103684, "pitch": 71, "duration": 219, "velocity": 127}, {"time": 103923, "pitch": 71, "duration": 219, "velocity": 127}, {"time": 104162, "pitch": 71, "duration": 219, "velocity": 127}, {"time": 104401, "pitch": 71, "duration": 219, "velocity": 127}, {"time": 104640, "pitch": 71, "duration": 218, "velocity": 127}, {"time": 104878, "pitch": 72, "duration": 458, "velocity": 127}, {"time": 105356, "pitch": 71, "duration": 453, "velocity": 127}, {"time": 107279, "pitch": 71, "duration": 219, "velocity": 127}, {"time": 107518, "pitch": 71, "duration": 219, "velocity": 127}, {"time": 107756, "pitch": 71, "duration": 219, "velocity": 127}, {"time": 107995, "pitch": 71, "duration": 225, "velocity": 127}, {"time": 108241, "pitch": 71, "duration": 224, "velocity": 127}, {"time": 108486, "pitch": 71, "duration": 219, "velocity": 127}, {"time": 108725, "pitch": 72, "duration": 457, "velocity": 127}, {"time": 109202, "pitch": 71, "duration": 448, "velocity": 127}, {"time": 109680, "pitch": 67, "duration": 447, "velocity": 127}, {"time": 110157, "pitch": 67, "duration": 239, "velocity": 127}, {"time": 110396, "pitch": 67, "duration": 245, "velocity": 127}, {"time": 110641, "pitch": 67, "duration": 245, "velocity": 127}, {"time": 110886, "pitch": 65, "duration": 448, "velocity": 127}, {"time": 111364, "pitch": 67, "duration": 219, "velocity": 127}, {"time": 111603, "pitch": 69, "duration": 447, "velocity": 127}, {"time": 112080, "pitch": 72, "duration": 448, "velocity": 127}, {"time": 112558, "pitch": 71, "duration": 457, "velocity": 127}, {"time": 113035, "pitch": 67, "duration": 689, "velocity": 127}, {"time": 114958, "pitch": 62, "duration": 239, "velocity": 127}, {"time": 115197, "pitch": 74, "duration": 219, "velocity": 127}, {"time": 115436, "pitch": 72, "duration": 219, "velocity": 127}, {"time": 115675, "pitch": 71, "duration": 224, "velocity": 127}, {"time": 115920, "pitch": 72, "duration": 454, "velocity": 127}, {"time": 116404, "pitch": 74, "duration": 478, "velocity": 127}, {"time": 116882, "pitch": 67, "duration": 477, "velocity": 127}, {"time": 117837, "pitch": 62, "duration": 218, "velocity": 127}, {"time": 118075, "pitch": 74, "duration": 225, "velocity": 127}, {"time": 118321, "pitch": 72, "duration": 225, "velocity": 127}, {"time": 118566, "pitch": 71, "duration": 219, "velocity": 127}, {"time": 118805, "pitch": 72, "duration": 447, "velocity": 127}, {"time": 119282, "pitch": 74, "duration": 458, "velocity": 127}, {"time": 119760, "pitch": 67, "duration": 447, "velocity": 127}, {"time": 121922, "pitch": 74, "duration": 218, "velocity": 127}, {"time": 122160, "pitch": 72, "duration": 219, "velocity": 127}, {"time": 122399, "pitch": 71, "duration": 219, "velocity": 127}, {"time": 122638, "pitch": 72, "duration": 448, "velocity": 127}, {"time": 123115, "pitch": 74, "duration": 464, "velocity": 127}, {"time": 123599, "pitch": 79, "duration": 455, "velocity": 127}, {"time": 124083, "pitch": 77, "duration": 448, "velocity": 127}, {"time": 124561, "pitch": 74, "duration": 448, "velocity": 127}, {"time": 125038, "pitch": 72, "duration": 458, "velocity": 127}, {"time": 125516, "pitch": 72, "duration": 219, "velocity": 127}, {"time": 125755, "pitch": 74, "duration": 460, "velocity": 127}, {"time": 126245, "pitch": 71, "duration": 1871, "velocity": 127}, {"time": 128155, "pitch": 67, "duration": 929, "velocity": 127}, {"time": 129123, "pitch": 65, "duration": 916, "velocity": 127}, {"time": 130079, "pitch": 65, "duration": 218, "velocity": 127}, {"time": 130317, "pitch": 67, "duration": 219, "velocity": 127}, {"time": 130556, "pitch": 69, "duration": 219, "velocity": 127}, {"time": 130795, "pitch": 72, "duration": 463, "velocity": 127}, {"time": 131279, "pitch": 71, "duration": 454, "velocity": 127}, {"time": 132479, "pitch": 67, "duration": 448, "velocity": 127}, {"time": 132957, "pitch": 65, "duration": 927, "velocity": 127}, {"time": 133925, "pitch": 65, "duration": 219, "velocity": 127}, {"time": 134163, "pitch": 67, "duration": 219, "velocity": 127}, {"time": 134402, "pitch": 69, "duration": 219, "velocity": 127}, {"time": 134641, "pitch": 72, "duration": 458, "velocity": 127}, {"time": 135119, "pitch": 74, "duration": 447, "velocity": 127}, {"time": 136564, "pitch": 60, "duration": 239, "velocity": 127}, {"time": 136803, "pitch": 72, "duration": 448, "velocity": 127}, {"time": 137280, "pitch": 72, "duration": 219, "velocity": 127}, {"time": 137519, "pitch": 72, "duration": 448, "velocity": 127}, {"time": 137997, "pitch": 72, "duration": 484, "velocity": 127}, {"time": 138481, "pitch": 72, "duration": 484, "velocity": 127}, {"time": 138965, "pitch": 71, "duration": 447, "velocity": 127}, {"time": 139442, "pitch": 71, "duration": 239, "velocity": 127}, {"time": 139681, "pitch": 72, "duration": 239, "velocity": 127}, {"time": 139920, "pitch": 74, "duration": 686, "velocity": 127}, {"time": 140636, "pitch": 75, "duration": 478, "velocity": 127}, {"time": 141114, "pitch": 74, "duration": 460, "velocity": 127}, {"time": 141604, "pitch": 72, "duration": 448, "velocity": 127}, {"time": 142082, "pitch": 70, "duration": 477, "velocity": 127}, {"time": 142559, "pitch": 67, "duration": 478, "velocity": 127}, {"time": 143037, "pitch": 65, "duration": 447, "velocity": 127}, {"time": 143514, "pitch": 63, "duration": 460, "velocity": 127}, {"time": 144005, "pitch": 67, "duration": 477, "velocity": 127}, {"time": 144482, "pitch": 66, "duration": 1903, "velocity": 127}, {"time": 146405, "pitch": 69, "duration": 1891, "velocity": 127}, {"time": 148806, "pitch": 74, "duration": 448, "velocity": 127}, {"time": 149284, "pitch": 74, "duration": 447, "velocity": 127}, {"time": 149761, "pitch": 74, "duration": 448, "velocity": 127}, {"time": 150239, "pitch": 72, "duration": 447, "velocity": 127}, {"time": 150716, "pitch": 74, "duration": 448, "velocity": 127}, {"time": 151194, "pitch": 72, "duration": 460, "velocity": 127}, {"time": 151684, "pitch": 74, "duration": 448, "velocity": 127}, {"time": 152162, "pitch": 71, "duration": 1412, "velocity": 127}, {"time": 153594, "pitch": 74, "duration": 460, "velocity": 127}, {"time": 154085, "pitch": 69, "duration": 1890, "velocity": 127}, {"time": 156486, "pitch": 74, "duration": 447, "velocity": 127}, {"time": 156963, "pitch": 74, "duration": 448, "velocity": 127}, {"time": 157441, "pitch": 74, "duration": 447, "velocity": 127}, {"time": 157918, "pitch": 72, "duration": 448, "velocity": 127}, {"time": 158396, "pitch": 74, "duration": 460, "velocity": 127}, {"time": 158886, "pitch": 72, "duration": 448, "velocity": 127}, {"time": 159364, "pitch": 74, "duration": 447, "velocity": 127}, {"time": 159841, "pitch": 71, "duration": 1413, "velocity": 127}, {"time": 161274, "pitch": 74, "duration": 460, "velocity": 127}, {"time": 161764, "pitch": 69, "duration": 1891, "velocity": 127}, {"time": 164165, "pitch": 76, "duration": 239, "velocity": 127}, {"time": 164404, "pitch": 76, "duration": 238, "velocity": 127}, {"time": 164642, "pitch": 76, "duration": 239, "velocity": 127}, {"time": 164881, "pitch": 76, "duration": 239, "velocity": 127}, {"time": 165120, "pitch": 76, "duration": 239, "velocity": 127}, {"time": 165359, "pitch": 76, "duration": 239, "velocity": 127}, {"time": 165598, "pitch": 74, "duration": 447, "velocity": 127}, {"time": 166075, "pitch": 79, "duration": 225, "velocity": 127}, {"time": 166320, "pitch": 67, "duration": 454, "velocity": 127}, {"time": 166804, "pitch": 69, "duration": 677, "velocity": 127}, {"time": 167759, "pitch": 64, "duration": 219, "velocity": 127}, {"time": 167998, "pitch": 76, "duration": 219, "velocity": 127}, {"time": 168237, "pitch": 76, "duration": 219, "velocity": 127}, {"time": 168476, "pitch": 76, "duration": 225, "velocity": 127}, {"time": 168721, "pitch": 76, "duration": 225, "velocity": 127}, {"time": 168966, "pitch": 76, "duration": 239, "velocity": 127}, {"time": 169205, "pitch": 76, "duration": 239, "velocity": 127}, {"time": 169444, "pitch": 74, "duration": 447, "velocity": 127}, {"time": 169921, "pitch": 79, "duration": 219, "velocity": 127}, {"time": 170160, "pitch": 67, "duration": 448, "velocity": 127}, {"time": 170638, "pitch": 69, "duration": 676, "velocity": 127}, {"time": 171844, "pitch": 76, "duration": 239, "velocity": 127}, {"time": 172083, "pitch": 76, "duration": 239, "velocity": 127}, {"time": 172322, "pitch": 76, "duration": 239, "velocity": 127}, {"time": 172561, "pitch": 76, "duration": 238, "velocity": 127}, {"time": 172799, "pitch": 76, "duration": 478, "velocity": 127}, {"time": 173277, "pitch": 74, "duration": 448, "velocity": 127}, {"time": 173755, "pitch": 72, "duration": 224, "velocity": 127}, {"time": 174000, "pitch": 71, "duration": 454, "velocity": 127}, {"time": 174484, "pitch": 72, "duration": 219, "velocity": 127}, {"time": 174723, "pitch": 74, "duration": 477, "velocity": 127}, {"time": 175200, "pitch": 72, "duration": 299, "velocity": 127}, {"time": 175518, "pitch": 71, "duration": 299, "velocity": 127}, {"time": 175837, "pitch": 67, "duration": 298, "velocity": 127}, {"time": 176155, "pitch": 72, "duration": 307, "velocity": 127}, {"time": 176482, "pitch": 71, "duration": 303, "velocity": 127}, {"time": 176805, "pitch": 67, "duration": 298, "velocity": 127}, {"time": 177123, "pitch": 72, "duration": 299, "velocity": 127}, {"time": 177442, "pitch": 71, "duration": 298, "velocity": 127}, {"time": 177760, "pitch": 67, "duration": 298, "velocity": 127}, {"time": 178078, "pitch": 72, "duration": 239, "velocity": 127}, {"time": 178556, "pitch": 71, "duration": 490, "velocity": 127}, {"time": 193437, "pitch": 67, "duration": 968, "velocity": 127}, {"time": 194405, "pitch": 65, "duration": 915, "velocity": 127}, {"time": 195360, "pitch": 65, "duration": 219, "velocity": 127}, {"time": 195599, "pitch": 67, "duration": 219, "velocity": 127}, {"time": 195838, "pitch": 69, "duration": 219, "velocity": 127}, {"time": 196077, "pitch": 72, "duration": 463, "velocity": 127}, {"time": 196561, "pitch": 71, "duration": 454, "velocity": 127}, {"time": 197522, "pitch": 67, "duration": 239, "velocity": 127}, {"time": 197761, "pitch": 67, "duration": 239, "velocity": 127}, {"time": 198000, "pitch": 65, "duration": 961, "velocity": 127}, {"time": 198961, "pitch": 65, "duration": 245, "velocity": 127}, {"time": 199206, "pitch": 65, "duration": 219, "velocity": 127}, {"time": 199445, "pitch": 67, "duration": 219, "velocity": 127}, {"time": 199684, "pitch": 69, "duration": 219, "velocity": 127}, {"time": 199923, "pitch": 72, "duration": 457, "velocity": 127}, {"time": 200400, "pitch": 74, "duration": 448, "velocity": 127}, {"time": 201839, "pitch": 62, "duration": 246, "velocity": 127}, {"time": 202085, "pitch": 72, "duration": 447, "velocity": 127}, {"time": 202562, "pitch": 72, "duration": 219, "velocity": 127}, {"time": 202801, "pitch": 72, "duration": 448, "velocity": 127}, {"time": 203278, "pitch": 72, "duration": 448, "velocity": 127}, {"time": 203756, "pitch": 71, "duration": 729, "velocity": 127}, {"time": 204485, "pitch": 71, "duration": 239, "velocity": 127}, {"time": 204724, "pitch": 72, "duration": 448, "velocity": 127}, {"time": 205202, "pitch": 74, "duration": 447, "velocity": 127}, {"time": 205679, "pitch": 74, "duration": 239, "velocity": 127}, {"time": 205918, "pitch": 75, "duration": 448, "velocity": 127}, {"time": 206395, "pitch": 74, "duration": 491, "velocity": 127}, {"time": 206886, "pitch": 72, "duration": 448, "velocity": 127}, {"time": 207363, "pitch": 70, "duration": 448, "velocity": 127}, {"time": 207841, "pitch": 67, "duration": 477, "velocity": 127}, {"time": 208318, "pitch": 65, "duration": 448, "velocity": 127}, {"time": 208796, "pitch": 63, "duration": 448, "velocity": 127}, {"time": 209274, "pitch": 67, "duration": 490, "velocity": 127}, {"time": 209764, "pitch": 66, "duration": 1890, "velocity": 127}, {"time": 211674, "pitch": 69, "duration": 1903, "velocity": 127}, {"time": 213597, "pitch": 74, "duration": 1903, "velocity": 127}, {"time": 215520, "pitch": 78, "duration": 1904, "velocity": 127}, {"time": 217921, "pitch": 74, "duration": 448, "velocity": 127}, {"time": 218399, "pitch": 74, "duration": 447, "velocity": 127}, {"time": 218876, "pitch": 74, "duration": 448, "velocity": 127}, {"time": 219354, "pitch": 72, "duration": 460, "velocity": 127}, {"time": 219844, "pitch": 74, "duration": 448, "velocity": 127}, {"time": 220322, "pitch": 72, "duration": 447, "velocity": 127}, {"time": 220799, "pitch": 74, "duration": 448, "velocity": 127}, {"time": 221277, "pitch": 71, "duration": 1425, "velocity": 127}, {"time": 222722, "pitch": 74, "duration": 448, "velocity": 127}, {"time": 223200, "pitch": 69, "duration": 1903, "velocity": 127}, {"time": 225600, "pitch": 74, "duration": 448, "velocity": 127}, {"time": 226078, "pitch": 74, "duration": 448, "velocity": 127}, {"time": 226556, "pitch": 74, "duration": 460, "velocity": 127}, {"time": 227046, "pitch": 72, "duration": 448, "velocity": 127}, {"time": 227524, "pitch": 74, "duration": 447, "velocity": 127}, {"time": 228001, "pitch": 72, "duration": 448, "velocity": 127}, {"time": 228479, "pitch": 74, "duration": 447, "velocity": 127}, {"time": 228956, "pitch": 71, "duration": 1426, "velocity": 127}, {"time": 230402, "pitch": 74, "duration": 447, "velocity": 127}, {"time": 230879, "pitch": 69, "duration": 1903, "velocity": 127}, {"time": 233280, "pitch": 76, "duration": 239, "velocity": 127}, {"time": 233519, "pitch": 76, "duration": 238, "velocity": 127}, {"time": 233757, "pitch": 76, "duration": 239, "velocity": 127}, {"time": 233996, "pitch": 76, "duration": 239, "velocity": 127}, {"time": 234235, "pitch": 76, "duration": 490, "velocity": 127}, {"time": 234725, "pitch": 74, "duration": 448, "velocity": 127}, {"time": 235203, "pitch": 79, "duration": 219, "velocity": 127}, {"time": 235442, "pitch": 67, "duration": 348, "velocity": 127}, {"time": 235919, "pitch": 69, "duration": 677, "velocity": 127}, {"time": 237126, "pitch": 76, "duration": 219, "velocity": 127}, {"time": 237365, "pitch": 76, "duration": 219, "velocity": 127}, {"time": 237604, "pitch": 76, "duration": 477, "velocity": 127}, {"time": 238081, "pitch": 76, "duration": 239, "velocity": 127}, {"time": 238320, "pitch": 74, "duration": 686, "velocity": 127}, {"time": 239036, "pitch": 79, "duration": 219, "velocity": 127}, {"time": 239275, "pitch": 67, "duration": 453, "velocity": 127}, {"time": 239759, "pitch": 69, "duration": 683, "velocity": 127}, {"time": 240959, "pitch": 76, "duration": 239, "velocity": 127}, {"time": 241198, "pitch": 76, "duration": 239, "velocity": 127}, {"time": 241437, "pitch": 76, "duration": 239, "velocity": 127}, {"time": 241676, "pitch": 76, "duration": 238, "velocity": 127}, {"time": 241914, "pitch": 76, "duration": 491, "velocity": 127}, {"time": 242405, "pitch": 74, "duration": 448, "velocity": 127}, {"time": 242882, "pitch": 72, "duration": 219, "velocity": 127}, {"time": 243121, "pitch": 71, "duration": 448, "velocity": 127}, {"time": 243599, "pitch": 72, "duration": 219, "velocity": 127}, {"time": 243838, "pitch": 74, "duration": 477, "velocity": 127}, {"time": 244315, "pitch": 72, "duration": 307, "velocity": 127}, {"time": 244642, "pitch": 71, "duration": 303, "velocity": 127}, {"time": 244965, "pitch": 67, "duration": 298, "velocity": 127}, {"time": 245283, "pitch": 72, "duration": 299, "velocity": 127}, {"time": 245601, "pitch": 71, "duration": 299, "velocity": 127}, {"time": 245920, "pitch": 67, "duration": 298, "velocity": 127}, {"time": 246238, "pitch": 72, "duration": 299, "velocity": 127}, {"time": 246556, "pitch": 71, "duration": 303, "velocity": 127}, {"time": 246879, "pitch": 67, "duration": 307, "velocity": 127}, {"time": 247206, "pitch": 72, "duration": 239, "velocity": 127}, {"time": 247684, "pitch": 71, "duration": 477, "velocity": 127}], "annotations": [{"time": 293, "annotation": {"number": 7, "value": 100}, "group": "control_change"}, {"time": 314, "annotation": {"number": 11, "value": 100}, "group": "control_change"}, {"time": 335, "annotation": {"number": 10, "value": 64}, "group": "control_change"}, {"time": 356, "annotation": {"number": 91, "value": 20}, "group": "control_change"}, {"time": 377, "annotation": {"number": 93, "value": 0}, "group": "control_change"}, {"time": 397, "annotation": {"number": 101, "value": 0}, "group": "control_change"}, {"time": 418, "annotation": {"number": 100, "value": 0}, "group": "control_change"}, {"time": 439, "annotation": {"number": 6, "value": 12}, "group": "control_change"}, {"time": 460, "annotation": {"number": 101, "value": 127}, "group": "control_change"}, {"time": 483, "annotation": {"number": 100, "value": 127}, "group": "control_change"}]}, {"program": 0, "is_drum": false, "name": "ORGAN", "annotations": [{"time": 230, "annotation": {"number": 0, "value": 0}, "group": "control_change"}, {"time": 251, "annotation": {"number": 32, "value": 0}, "group": "control_change"}]}, {"program": 18, "is_drum": false, "name": "ORGAN", "notes": [{"time": 15842, "pitch": 67, "duration": 239, "velocity": 100}, {"time": 16081, "pitch": 74, "duration": 239, "velocity": 105}, {"time": 16320, "pitch": 72, "duration": 238, "velocity": 101}, {"time": 16558, "pitch": 71, "duration": 239, "velocity": 97}, {"time": 16797, "pitch": 72, "duration": 239, "velocity": 105}, {"time": 17036, "pitch": 71, "duration": 239, "velocity": 99}, {"time": 17275, "pitch": 67, "duration": 245, "velocity": 100}, {"time": 17520, "pitch": 74, "duration": 245, "velocity": 105}, {"time": 17765, "pitch": 72, "duration": 239, "velocity": 101}, {"time": 18004, "pitch": 71, "duration": 239, "velocity": 97}, {"time": 18243, "pitch": 72, "duration": 238, "velocity": 105}, {"time": 18481, "pitch": 71, "duration": 239, "velocity": 99}, {"time": 18720, "pitch": 67, "duration": 239, "velocity": 100}, {"time": 18959, "pitch": 74, "duration": 239, "velocity": 105}, {"time": 19198, "pitch": 72, "duration": 238, "velocity": 101}, {"time": 19436, "pitch": 71, "duration": 239, "velocity": 97}, {"time": 19675, "pitch": 72, "duration": 245, "velocity": 105}, {"time": 19920, "pitch": 71, "duration": 246, "velocity": 99}, {"time": 20166, "pitch": 67, "duration": 238, "velocity": 100}, {"time": 20404, "pitch": 74, "duration": 239, "velocity": 105}, {"time": 20643, "pitch": 72, "duration": 239, "velocity": 101}, {"time": 20882, "pitch": 71, "duration": 239, "velocity": 97}, {"time": 21121, "pitch": 72, "duration": 239, "velocity": 105}, {"time": 21360, "pitch": 71, "duration": 238, "velocity": 99}, {"time": 21598, "pitch": 67, "duration": 239, "velocity": 100}, {"time": 21837, "pitch": 74, "duration": 239, "velocity": 105}, {"time": 22076, "pitch": 72, "duration": 245, "velocity": 101}, {"time": 22321, "pitch": 71, "duration": 245, "velocity": 97}, {"time": 22566, "pitch": 72, "duration": 239, "velocity": 105}, {"time": 22805, "pitch": 71, "duration": 239, "velocity": 99}, {"time": 23044, "pitch": 67, "duration": 239, "velocity": 100}, {"time": 23283, "pitch": 74, "duration": 238, "velocity": 105}, {"time": 23521, "pitch": 72, "duration": 239, "velocity": 105}, {"time": 23760, "pitch": 71, "duration": 239, "velocity": 99}, {"time": 23999, "pitch": 72, "duration": 239, "velocity": 100}, {"time": 24238, "pitch": 69, "duration": 238, "velocity": 105}, {"time": 24476, "pitch": 65, "duration": 239, "velocity": 101}, {"time": 24715, "pitch": 74, "duration": 239, "velocity": 97}, {"time": 24954, "pitch": 72, "duration": 245, "velocity": 105}, {"time": 25199, "pitch": 71, "duration": 246, "velocity": 99}, {"time": 25445, "pitch": 72, "duration": 238, "velocity": 105}, {"time": 25683, "pitch": 71, "duration": 239, "velocity": 99}, {"time": 25922, "pitch": 67, "duration": 239, "velocity": 100}, {"time": 26161, "pitch": 74, "duration": 239, "velocity": 105}, {"time": 26400, "pitch": 72, "duration": 238, "velocity": 101}, {"time": 26638, "pitch": 71, "duration": 239, "velocity": 97}, {"time": 26877, "pitch": 72, "duration": 239, "velocity": 105}, {"time": 27116, "pitch": 71, "duration": 239, "velocity": 99}, {"time": 27355, "pitch": 67, "duration": 245, "velocity": 100}, {"time": 27600, "pitch": 74, "duration": 245, "velocity": 105}, {"time": 27845, "pitch": 72, "duration": 239, "velocity": 101}, {"time": 28084, "pitch": 71, "duration": 239, "velocity": 97}, {"time": 28323, "pitch": 72, "duration": 238, "velocity": 105}, {"time": 28561, "pitch": 71, "duration": 239, "velocity": 99}, {"time": 28800, "pitch": 67, "duration": 239, "velocity": 100}, {"time": 29039, "pitch": 74, "duration": 239, "velocity": 105}, {"time": 29278, "pitch": 72, "duration": 239, "velocity": 101}, {"time": 29517, "pitch": 71, "duration": 238, "velocity": 97}, {"time": 29755, "pitch": 72, "duration": 246, "velocity": 105}, {"time": 30001, "pitch": 71, "duration": 245, "velocity": 99}, {"time": 30246, "pitch": 67, "duration": 239, "velocity": 100}, {"time": 30485, "pitch": 74, "duration": 238, "velocity": 105}, {"time": 30723, "pitch": 72, "duration": 239, "velocity": 101}, {"time": 30962, "pitch": 71, "duration": 239, "velocity": 97}, {"time": 31201, "pitch": 72, "duration": 239, "velocity": 105}, {"time": 31440, "pitch": 71, "duration": 238, "velocity": 99}, {"time": 31678, "pitch": 67, "duration": 239, "velocity": 100}, {"time": 31917, "pitch": 74, "duration": 239, "velocity": 105}, {"time": 32156, "pitch": 72, "duration": 245, "velocity": 101}, {"time": 32401, "pitch": 71, "duration": 245, "velocity": 97}, {"time": 32646, "pitch": 72, "duration": 239, "velocity": 105}, {"time": 32885, "pitch": 71, "duration": 239, "velocity": 99}, {"time": 33124, "pitch": 67, "duration": 239, "velocity": 100}, {"time": 33363, "pitch": 74, "duration": 238, "velocity": 105}, {"time": 33601, "pitch": 72, "duration": 239, "velocity": 101}, {"time": 33840, "pitch": 71, "duration": 239, "velocity": 97}, {"time": 34079, "pitch": 72, "duration": 239, "velocity": 105}, {"time": 34318, "pitch": 71, "duration": 239, "velocity": 99}, {"time": 34557, "pitch": 72, "duration": 238, "velocity": 100}, {"time": 34795, "pitch": 71, "duration": 239, "velocity": 105}, {"time": 35034, "pitch": 67, "duration": 245, "velocity": 101}, {"time": 35279, "pitch": 74, "duration": 246, "velocity": 97}, {"time": 35525, "pitch": 72, "duration": 238, "velocity": 105}, {"time": 35763, "pitch": 71, "duration": 239, "velocity": 99}, {"time": 36002, "pitch": 72, "duration": 239, "velocity": 105}, {"time": 36241, "pitch": 69, "duration": 239, "velocity": 99}, {"time": 36480, "pitch": 65, "duration": 238, "velocity": 100}, {"time": 36718, "pitch": 74, "duration": 239, "velocity": 105}, {"time": 36957, "pitch": 72, "duration": 239, "velocity": 101}, {"time": 37196, "pitch": 71, "duration": 239, "velocity": 97}, {"time": 37435, "pitch": 72, "duration": 245, "velocity": 105}, {"time": 37680, "pitch": 69, "duration": 245, "velocity": 99}, {"time": 37925, "pitch": 67, "duration": 239, "velocity": 100}, {"time": 38164, "pitch": 74, "duration": 239, "velocity": 105}, {"time": 38403, "pitch": 72, "duration": 239, "velocity": 101}, {"time": 38642, "pitch": 71, "duration": 238, "velocity": 97}, {"time": 38880, "pitch": 72, "duration": 239, "velocity": 105}, {"time": 39119, "pitch": 71, "duration": 239, "velocity": 99}, {"time": 39358, "pitch": 67, "duration": 239, "velocity": 100}, {"time": 39597, "pitch": 74, "duration": 238, "velocity": 105}, {"time": 39835, "pitch": 72, "duration": 246, "velocity": 101}, {"time": 40081, "pitch": 71, "duration": 245, "velocity": 97}, {"time": 40326, "pitch": 72, "duration": 239, "velocity": 105}, {"time": 40565, "pitch": 71, "duration": 238, "velocity": 99}, {"time": 40803, "pitch": 67, "duration": 239, "velocity": 100}, {"time": 41042, "pitch": 74, "duration": 239, "velocity": 105}, {"time": 41281, "pitch": 72, "duration": 239, "velocity": 97}, {"time": 41520, "pitch": 71, "duration": 238, "velocity": 105}, {"time": 103194, "pitch": 67, "duration": 245, "velocity": 100}, {"time": 103439, "pitch": 74, "duration": 245, "velocity": 105}, {"time": 103684, "pitch": 72, "duration": 239, "velocity": 101}, {"time": 103923, "pitch": 71, "duration": 239, "velocity": 97}, {"time": 104162, "pitch": 72, "duration": 239, "velocity": 105}, {"time": 104401, "pitch": 71, "duration": 239, "velocity": 99}, {"time": 104640, "pitch": 67, "duration": 238, "velocity": 100}, {"time": 104878, "pitch": 74, "duration": 239, "velocity": 105}, {"time": 105117, "pitch": 72, "duration": 239, "velocity": 101}, {"time": 105356, "pitch": 71, "duration": 239, "velocity": 97}, {"time": 105595, "pitch": 72, "duration": 245, "velocity": 105}, {"time": 105840, "pitch": 71, "duration": 245, "velocity": 99}, {"time": 106085, "pitch": 67, "duration": 239, "velocity": 100}, {"time": 106324, "pitch": 74, "duration": 239, "velocity": 105}, {"time": 106563, "pitch": 72, "duration": 238, "velocity": 101}, {"time": 106801, "pitch": 71, "duration": 239, "velocity": 97}, {"time": 107040, "pitch": 72, "duration": 239, "velocity": 105}, {"time": 107279, "pitch": 71, "duration": 239, "velocity": 99}, {"time": 107518, "pitch": 67, "duration": 238, "velocity": 100}, {"time": 107756, "pitch": 74, "duration": 239, "velocity": 105}, {"time": 107995, "pitch": 72, "duration": 246, "velocity": 101}, {"time": 108241, "pitch": 71, "duration": 245, "velocity": 97}, {"time": 108486, "pitch": 72, "duration": 239, "velocity": 105}, {"time": 108725, "pitch": 71, "duration": 238, "velocity": 99}, {"time": 108963, "pitch": 67, "duration": 239, "velocity": 100}, {"time": 109202, "pitch": 74, "duration": 239, "velocity": 105}, {"time": 109441, "pitch": 72, "duration": 239, "velocity": 101}, {"time": 109680, "pitch": 71, "duration": 238, "velocity": 97}, {"time": 109918, "pitch": 72, "duration": 239, "velocity": 105}, {"time": 110157, "pitch": 71, "duration": 239, "velocity": 99}, {"time": 110396, "pitch": 67, "duration": 245, "velocity": 100}, {"time": 110641, "pitch": 74, "duration": 245, "velocity": 105}, {"time": 110886, "pitch": 72, "duration": 239, "velocity": 105}, {"time": 111125, "pitch": 71, "duration": 239, "velocity": 99}, {"time": 111364, "pitch": 72, "duration": 239, "velocity": 100}, {"time": 111603, "pitch": 69, "duration": 238, "velocity": 105}, {"time": 111841, "pitch": 65, "duration": 239, "velocity": 101}, {"time": 112080, "pitch": 74, "duration": 239, "velocity": 97}, {"time": 112319, "pitch": 72, "duration": 239, "velocity": 105}, {"time": 112558, "pitch": 71, "duration": 239, "velocity": 99}, {"time": 112797, "pitch": 72, "duration": 238, "velocity": 105}, {"time": 113035, "pitch": 71, "duration": 239, "velocity": 99}, {"time": 113274, "pitch": 67, "duration": 245, "velocity": 100}, {"time": 113519, "pitch": 74, "duration": 246, "velocity": 105}, {"time": 113765, "pitch": 72, "duration": 238, "velocity": 101}, {"time": 114003, "pitch": 71, "duration": 239, "velocity": 97}, {"time": 114242, "pitch": 72, "duration": 239, "velocity": 105}, {"time": 114481, "pitch": 71, "duration": 239, "velocity": 99}, {"time": 114720, "pitch": 67, "duration": 238, "velocity": 100}, {"time": 114958, "pitch": 74, "duration": 239, "velocity": 105}, {"time": 115197, "pitch": 72, "duration": 239, "velocity": 101}, {"time": 115436, "pitch": 71, "duration": 239, "velocity": 97}, {"time": 115675, "pitch": 72, "duration": 245, "velocity": 105}, {"time": 115920, "pitch": 71, "duration": 245, "velocity": 99}, {"time": 116165, "pitch": 67, "duration": 239, "velocity": 100}, {"time": 116404, "pitch": 74, "duration": 239, "velocity": 105}, {"time": 117598, "pitch": 67, "duration": 239, "velocity": 100}, {"time": 117837, "pitch": 74, "duration": 238, "velocity": 105}, {"time": 118075, "pitch": 72, "duration": 246, "velocity": 101}, {"time": 118321, "pitch": 71, "duration": 245, "velocity": 97}, {"time": 118566, "pitch": 72, "duration": 239, "velocity": 105}, {"time": 118805, "pitch": 71, "duration": 238, "velocity": 99}, {"time": 119043, "pitch": 67, "duration": 239, "velocity": 100}, {"time": 119282, "pitch": 74, "duration": 239, "velocity": 105}, {"time": 119521, "pitch": 72, "duration": 239, "velocity": 101}, {"time": 119760, "pitch": 71, "duration": 238, "velocity": 97}, {"time": 119998, "pitch": 72, "duration": 239, "velocity": 105}, {"time": 120237, "pitch": 71, "duration": 239, "velocity": 99}, {"time": 120476, "pitch": 67, "duration": 245, "velocity": 100}, {"time": 120721, "pitch": 74, "duration": 245, "velocity": 105}, {"time": 120966, "pitch": 72, "duration": 239, "velocity": 101}, {"time": 121205, "pitch": 71, "duration": 239, "velocity": 97}, {"time": 121444, "pitch": 72, "duration": 239, "velocity": 105}, {"time": 121683, "pitch": 71, "duration": 239, "velocity": 99}, {"time": 121922, "pitch": 72, "duration": 238, "velocity": 100}, {"time": 122160, "pitch": 71, "duration": 239, "velocity": 105}, {"time": 122399, "pitch": 67, "duration": 239, "velocity": 101}, {"time": 122638, "pitch": 74, "duration": 239, "velocity": 97}, {"time": 122877, "pitch": 72, "duration": 238, "velocity": 105}, {"time": 123115, "pitch": 71, "duration": 239, "velocity": 99}, {"time": 123354, "pitch": 72, "duration": 245, "velocity": 105}, {"time": 123599, "pitch": 69, "duration": 246, "velocity": 99}, {"time": 123845, "pitch": 65, "duration": 238, "velocity": 100}, {"time": 124083, "pitch": 74, "duration": 239, "velocity": 105}, {"time": 124322, "pitch": 72, "duration": 239, "velocity": 101}, {"time": 124561, "pitch": 71, "duration": 239, "velocity": 97}, {"time": 124800, "pitch": 72, "duration": 238, "velocity": 105}, {"time": 125038, "pitch": 69, "duration": 239, "velocity": 99}, {"time": 125277, "pitch": 67, "duration": 239, "velocity": 100}, {"time": 125516, "pitch": 74, "duration": 239, "velocity": 105}, {"time": 125755, "pitch": 72, "duration": 245, "velocity": 101}, {"time": 126000, "pitch": 71, "duration": 245, "velocity": 97}, {"time": 126245, "pitch": 72, "duration": 239, "velocity": 105}, {"time": 126484, "pitch": 71, "duration": 239, "velocity": 99}, {"time": 126723, "pitch": 67, "duration": 239, "velocity": 100}, {"time": 126962, "pitch": 74, "duration": 238, "velocity": 105}, {"time": 127200, "pitch": 72, "duration": 239, "velocity": 101}, {"time": 127439, "pitch": 71, "duration": 239, "velocity": 97}, {"time": 127678, "pitch": 72, "duration": 239, "velocity": 105}, {"time": 127917, "pitch": 71, "duration": 238, "velocity": 99}, {"time": 128155, "pitch": 67, "duration": 246, "velocity": 100}, {"time": 128401, "pitch": 74, "duration": 245, "velocity": 105}, {"time": 128646, "pitch": 72, "duration": 239, "velocity": 97}, {"time": 128885, "pitch": 71, "duration": 238, "velocity": 105}, {"time": 179046, "pitch": 64, "duration": 1910, "velocity": 80}, {"time": 179046, "pitch": 67, "duration": 5757, "velocity": 80}, {"time": 179046, "pitch": 71, "duration": 5757, "velocity": 80}, {"time": 180956, "pitch": 63, "duration": 1924, "velocity": 80}, {"time": 182880, "pitch": 62, "duration": 1923, "velocity": 80}, {"time": 184803, "pitch": 64, "duration": 955, "velocity": 80}, {"time": 184803, "pitch": 67, "duration": 955, "velocity": 80}, {"time": 184803, "pitch": 72, "duration": 955, "velocity": 80}, {"time": 185758, "pitch": 73, "duration": 477, "velocity": 80}, {"time": 186235, "pitch": 74, "duration": 491, "velocity": 80}], "annotations": [{"time": 293, "annotation": {"number": 7, "value": 100}, "group": "control_change"}, {"time": 314, "annotation": {"number": 11, "value": 100}, "group": "control_change"}, {"time": 335, "annotation": {"number": 10, "value": 64}, "group": "control_change"}, {"time": 356, "annotation": {"number": 91, "value": 10}, "group": "control_change"}, {"time": 377, "annotation": {"number": 93, "value": 50}, "group": "control_change"}, {"time": 397, "annotation": {"number": 101, "value": 0}, "group": "control_change"}, {"time": 418, "annotation": {"number": 100, "value": 0}, "group": "control_change"}, {"time": 439, "annotation": {"number": 6, "value": 12}, "group": "control_change"}, {"time": 460, "annotation": {"number": 101, "value": 127}, "group": "control_change"}, {"time": 483, "annotation": {"number": 100, "value": 127}, "group": "control_change"}]}, {"program": 0, "is_drum": false, "name": "SQ", "annotations": [{"time": 230, "annotation": {"number": 0, "value": 0}, "group": "control_change"}, {"time": 251, "annotation": {"number": 32, "value": 0}, "group": "control_change"}]}, {"program": 29, "is_drum": false, "name": "SQ", "notes": [{"time": 4316, "pitch": 60, "duration": 1426, "velocity": 90}, {"time": 4794, "pitch": 69, "duration": 968, "velocity": 78}, {"time": 5762, "pitch": 58, "duration": 1413, "velocity": 90}, {"time": 6239, "pitch": 67, "duration": 956, "velocity": 78}, {"time": 7195, "pitch": 57, "duration": 1415, "velocity": 90}, {"time": 7685, "pitch": 66, "duration": 955, "velocity": 90}, {"time": 8640, "pitch": 56, "duration": 1395, "velocity": 70}, {"time": 8879, "pitch": 65, "duration": 1145, "velocity": 70}, {"time": 10086, "pitch": 60, "duration": 1412, "velocity": 90}, {"time": 10563, "pitch": 69, "duration": 955, "velocity": 78}, {"time": 11518, "pitch": 58, "duration": 1426, "velocity": 90}, {"time": 11996, "pitch": 67, "duration": 968, "velocity": 78}, {"time": 12964, "pitch": 57, "duration": 1403, "velocity": 90}, {"time": 13441, "pitch": 66, "duration": 955, "velocity": 90}, {"time": 14396, "pitch": 56, "duration": 1396, "velocity": 70}, {"time": 14635, "pitch": 65, "duration": 1147, "velocity": 70}, {"time": 91681, "pitch": 60, "duration": 1413, "velocity": 90}, {"time": 92159, "pitch": 69, "duration": 955, "velocity": 78}, {"time": 93114, "pitch": 58, "duration": 1426, "velocity": 90}, {"time": 93604, "pitch": 67, "duration": 955, "velocity": 78}, {"time": 94559, "pitch": 57, "duration": 1416, "velocity": 90}, {"time": 95037, "pitch": 66, "duration": 968, "velocity": 90}, {"time": 96005, "pitch": 56, "duration": 1383, "velocity": 70}, {"time": 96244, "pitch": 65, "duration": 1134, "velocity": 70}, {"time": 97438, "pitch": 60, "duration": 1425, "velocity": 90}, {"time": 97915, "pitch": 69, "duration": 968, "velocity": 78}, {"time": 98883, "pitch": 58, "duration": 1413, "velocity": 90}, {"time": 99361, "pitch": 67, "duration": 955, "velocity": 78}, {"time": 100316, "pitch": 57, "duration": 1416, "velocity": 90}, {"time": 100806, "pitch": 66, "duration": 955, "velocity": 90}, {"time": 101761, "pitch": 56, "duration": 1383, "velocity": 70}, {"time": 102000, "pitch": 65, "duration": 1134, "velocity": 70}, {"time": 179046, "pitch": 64, "duration": 478, "velocity": 102}, {"time": 179524, "pitch": 67, "duration": 477, "velocity": 110}, {"time": 180001, "pitch": 71, "duration": 478, "velocity": 111}, {"time": 180479, "pitch": 76, "duration": 477, "velocity": 106}, {"time": 180956, "pitch": 78, "duration": 478, "velocity": 102}, {"time": 181434, "pitch": 76, "duration": 490, "velocity": 110}, {"time": 181924, "pitch": 79, "duration": 478, "velocity": 111}, {"time": 182402, "pitch": 78, "duration": 348, "velocity": 106}, {"time": 182880, "pitch": 79, "duration": 955, "velocity": 109}, {"time": 183835, "pitch": 79, "duration": 928, "velocity": 104}, {"time": 184803, "pitch": 81, "duration": 955, "velocity": 109}, {"time": 185758, "pitch": 81, "duration": 630, "velocity": 104}, {"time": 186480, "pitch": 70, "duration": 484, "velocity": 82}, {"time": 186480, "pitch": 75, "duration": 484, "velocity": 112}, {"time": 186964, "pitch": 70, "duration": 239, "velocity": 78}, {"time": 186964, "pitch": 75, "duration": 239, "velocity": 104}, {"time": 187203, "pitch": 70, "duration": 239, "velocity": 81}, {"time": 187203, "pitch": 75, "duration": 239, "velocity": 112}, {"time": 187681, "pitch": 68, "duration": 477, "velocity": 100}, {"time": 188158, "pitch": 73, "duration": 239, "velocity": 97}, {"time": 188397, "pitch": 68, "duration": 443, "velocity": 105}, {"time": 188881, "pitch": 66, "duration": 215, "velocity": 101}, {"time": 189126, "pitch": 68, "duration": 239, "velocity": 105}, {"time": 189365, "pitch": 63, "duration": 239, "velocity": 102}, {"time": 189604, "pitch": 66, "duration": 477, "velocity": 105}, {"time": 190081, "pitch": 63, "duration": 239, "velocity": 96}, {"time": 190320, "pitch": 73, "duration": 478, "velocity": 105}, {"time": 190798, "pitch": 69, "duration": 238, "velocity": 101}, {"time": 191036, "pitch": 67, "duration": 239, "velocity": 98}, {"time": 191275, "pitch": 65, "duration": 239, "velocity": 91}, {"time": 191514, "pitch": 66, "duration": 245, "velocity": 96}, {"time": 191759, "pitch": 62, "duration": 246, "velocity": 103}, {"time": 192005, "pitch": 60, "duration": 238, "velocity": 95}, {"time": 192243, "pitch": 62, "duration": 239, "velocity": 101}, {"time": 192482, "pitch": 72, "duration": 239, "velocity": 101}, {"time": 192721, "pitch": 74, "duration": 239, "velocity": 101}, {"time": 192960, "pitch": 77, "duration": 238, "velocity": 101}, {"time": 193198, "pitch": 79, "duration": 1146, "velocity": 101}, {"time": 248161, "pitch": 60, "duration": 1413, "velocity": 90}, {"time": 248639, "pitch": 69, "duration": 955, "velocity": 78}, {"time": 249594, "pitch": 58, "duration": 1426, "velocity": 90}, {"time": 250084, "pitch": 67, "duration": 955, "velocity": 78}, {"time": 251039, "pitch": 57, "duration": 1415, "velocity": 90}, {"time": 251517, "pitch": 66, "duration": 968, "velocity": 90}, {"time": 252485, "pitch": 56, "duration": 1383, "velocity": 70}, {"time": 252724, "pitch": 65, "duration": 1134, "velocity": 70}, {"time": 253918, "pitch": 60, "duration": 1425, "velocity": 90}, {"time": 254395, "pitch": 69, "duration": 968, "velocity": 78}, {"time": 255363, "pitch": 58, "duration": 1413, "velocity": 90}, {"time": 255841, "pitch": 67, "duration": 955, "velocity": 78}, {"time": 256796, "pitch": 57, "duration": 1415, "velocity": 90}, {"time": 257286, "pitch": 66, "duration": 955, "velocity": 90}, {"time": 258241, "pitch": 56, "duration": 1383, "velocity": 70}, {"time": 258480, "pitch": 65, "duration": 1134, "velocity": 70}], "annotations": [{"time": 293, "annotation": {"number": 7, "value": 100}, "group": "control_change"}, {"time": 314, "annotation": {"number": 11, "value": 110}, "group": "control_change"}, {"time": 335, "annotation": {"number": 10, "value": 64}, "group": "control_change"}, {"time": 356, "annotation": {"number": 91, "value": 30}, "group": "control_change"}, {"time": 377, "annotation": {"number": 93, "value": 30}, "group": "control_change"}, {"time": 397, "annotation": {"number": 101, "value": 0}, "group": "control_change"}, {"time": 418, "annotation": {"number": 100, "value": 0}, "group": "control_change"}, {"time": 439, "annotation": {"number": 6, "value": 12}, "group": "control_change"}, {"time": 460, "annotation": {"number": 101, "value": 127}, "group": "control_change"}, {"time": 483, "annotation": {"number": 100, "value": 127}, "group": "control_change"}, {"time": 40803, "annotation": {"number": 0, "value": 0}, "group": "control_change"}, {"time": 40813, "annotation": {"number": 32, "value": 0}, "group": "control_change"}, {"time": 90756, "annotation": {"number": 11, "value": 110}, "group": "control_change"}, {"time": 90766, "annotation": {"number": 10, "value": 64}, "group": "control_change"}, {"time": 128155, "annotation": {"number": 0, "value": 0}, "group": "control_change"}, {"time": 128166, "annotation": {"number": 32, "value": 0}, "group": "control_change"}, {"time": 178108, "annotation": {"number": 11, "value": 110}, "group": "control_change"}, {"time": 178118, "annotation": {"number": 10, "value": 64}, "group": "control_change"}, {"time": 183835, "annotation": {"number": 1, "value": 0}, "group": "control_change"}, {"time": 183926, "annotation": {"number": 1, "value": 4}, "group": "control_change"}, {"time": 183937, "annotation": {"number": 1, "value": 8}, "group": "control_change"}, {"time": 183947, "annotation": {"number": 1, "value": 11}, "group": "control_change"}, {"time": 183957, "annotation": {"number": 1, "value": 14}, "group": "control_change"}, {"time": 183967, "annotation": {"number": 1, "value": 17}, "group": "control_change"}, {"time": 183978, "annotation": {"number": 1, "value": 19}, "group": "control_change"}, {"time": 183988, "annotation": {"number": 1, "value": 21}, "group": "control_change"}, {"time": 183998, "annotation": {"number": 1, "value": 24}, "group": "control_change"}, {"time": 184008, "annotation": {"number": 1, "value": 26}, "group": "control_change"}, {"time": 184018, "annotation": {"number": 1, "value": 28}, "group": "control_change"}, {"time": 184029, "annotation": {"number": 1, "value": 29}, "group": "control_change"}, {"time": 184039, "annotation": {"number": 1, "value": 31}, "group": "control_change"}, {"time": 184049, "annotation": {"number": 1, "value": 33}, "group": "control_change"}, {"time": 184059, "annotation": {"number": 1, "value": 34}, "group": "control_change"}, {"time": 184070, "annotation": {"number": 1, "value": 36}, "group": "control_change"}, {"time": 184080, "annotation": {"number": 1, "value": 37}, "group": "control_change"}, {"time": 184090, "annotation": {"number": 1, "value": 38}, "group": "control_change"}, {"time": 184100, "annotation": {"number": 1, "value": 39}, "group": "control_change"}, {"time": 184111, "annotation": {"number": 1, "value": 41}, "group": "control_change"}, {"time": 184121, "annotation": {"number": 1, "value": 42}, "group": "control_change"}, {"time": 184131, "annotation": {"number": 1, "value": 43}, "group": "control_change"}, {"time": 184151, "annotation": {"number": 1, "value": 44}, "group": "control_change"}, {"time": 184162, "annotation": {"number": 1, "value": 45}, "group": "control_change"}, {"time": 184172, "annotation": {"number": 1, "value": 46}, "group": "control_change"}, {"time": 184182, "annotation": {"number": 1, "value": 47}, "group": "control_change"}, {"time": 184203, "annotation": {"number": 1, "value": 48}, "group": "control_change"}, {"time": 184213, "annotation": {"number": 1, "value": 49}, "group": "control_change"}, {"time": 184233, "annotation": {"number": 1, "value": 50}, "group": "control_change"}, {"time": 184264, "annotation": {"number": 1, "value": 51}, "group": "control_change"}, {"time": 184284, "annotation": {"number": 1, "value": 52}, "group": "control_change"}, {"time": 184315, "annotation": {"number": 1, "value": 53}, "group": "control_change"}, {"time": 184345, "annotation": {"number": 1, "value": 54}, "group": "control_change"}, {"time": 184395, "annotation": {"number": 1, "value": 55}, "group": "control_change"}, {"time": 184454, "annotation": {"number": 1, "value": 56}, "group": "control_change"}, {"time": 184554, "annotation": {"number": 1, "value": 57}, "group": "control_change"}, {"time": 184793, "annotation": {"number": 1, "value": 0}, "group": "control_change"}, {"time": 185758, "annotation": {"number": 1, "value": 0}, "group": "control_change"}, {"time": 185847, "annotation": {"number": 1, "value": 4}, "group": "control_change"}, {"time": 185857, "annotation": {"number": 1, "value": 8}, "group": "control_change"}, {"time": 185867, "annotation": {"number": 1, "value": 11}, "group": "control_change"}, {"time": 185877, "annotation": {"number": 1, "value": 14}, "group": "control_change"}, {"time": 185887, "annotation": {"number": 1, "value": 17}, "group": "control_change"}, {"time": 185897, "annotation": {"number": 1, "value": 19}, "group": "control_change"}, {"time": 185907, "annotation": {"number": 1, "value": 21}, "group": "control_change"}, {"time": 185917, "annotation": {"number": 1, "value": 24}, "group": "control_change"}, {"time": 185927, "annotation": {"number": 1, "value": 26}, "group": "control_change"}, {"time": 185937, "annotation": {"number": 1, "value": 28}, "group": "control_change"}, {"time": 185947, "annotation": {"number": 1, "value": 29}, "group": "control_change"}, {"time": 185957, "annotation": {"number": 1, "value": 31}, "group": "control_change"}, {"time": 185967, "annotation": {"number": 1, "value": 33}, "group": "control_change"}, {"time": 185977, "annotation": {"number": 1, "value": 34}, "group": "control_change"}, {"time": 185987, "annotation": {"number": 1, "value": 36}, "group": "control_change"}, {"time": 185996, "annotation": {"number": 1, "value": 37}, "group": "control_change"}, {"time": 186006, "annotation": {"number": 1, "value": 38}, "group": "control_change"}, {"time": 186016, "annotation": {"number": 1, "value": 39}, "group": "control_change"}, {"time": 186026, "annotation": {"number": 1, "value": 41}, "group": "control_change"}, {"time": 186036, "annotation": {"number": 1, "value": 42}, "group": "control_change"}, {"time": 186046, "annotation": {"number": 1, "value": 43}, "group": "control_change"}, {"time": 186066, "annotation": {"number": 1, "value": 44}, "group": "control_change"}, {"time": 186076, "annotation": {"number": 1, "value": 45}, "group": "control_change"}, {"time": 186086, "annotation": {"number": 1, "value": 46}, "group": "control_change"}, {"time": 186096, "annotation": {"number": 1, "value": 47}, "group": "control_change"}, {"time": 186116, "annotation": {"number": 1, "value": 48}, "group": "control_change"}, {"time": 186126, "annotation": {"number": 1, "value": 49}, "group": "control_change"}, {"time": 186146, "annotation": {"number": 1, "value": 50}, "group": "control_change"}, {"time": 186176, "annotation": {"number": 1, "value": 51}, "group": "control_change"}, {"time": 186195, "annotation": {"number": 1, "value": 52}, "group": "control_change"}, {"time": 186225, "annotation": {"number": 1, "value": 53}, "group": "control_change"}, {"time": 186256, "annotation": {"number": 1, "value": 54}, "group": "control_change"}, {"time": 186307, "annotation": {"number": 1, "value": 55}, "group": "control_change"}, {"time": 186368, "annotation": {"number": 1, "value": 56}, "group": "control_change"}, {"time": 186470, "annotation": {"number": 1, "value": 0}, "group": "control_change"}, {"time": 193198, "annotation": {"number": 1, "value": 0}, "group": "control_change"}, {"time": 193596, "annotation": {"number": 1, "value": 3}, "group": "control_change"}, {"time": 193636, "annotation": {"number": 1, "value": 10}, "group": "control_change"}, {"time": 193676, "annotation": {"number": 1, "value": 15}, "group": "control_change"}, {"time": 193716, "annotation": {"number": 1, "value": 19}, "group": "control_change"}, {"time": 193755, "annotation": {"number": 1, "value": 22}, "group": "control_change"}, {"time": 193795, "annotation": {"number": 1, "value": 24}, "group": "control_change"}, {"time": 193835, "annotation": {"number": 1, "value": 26}, "group": "control_change"}, {"time": 193875, "annotation": {"number": 1, "value": 27}, "group": "control_change"}, {"time": 193915, "annotation": {"number": 1, "value": 28}, "group": "control_change"}, {"time": 193955, "annotation": {"number": 1, "value": 29}, "group": "control_change"}, {"time": 193996, "annotation": {"number": 1, "value": 30}, "group": "control_change"}, {"time": 194078, "annotation": {"number": 1, "value": 31}, "group": "control_change"}, {"time": 194334, "annotation": {"number": 1, "value": 0}, "group": "control_change"}, {"time": 194354, "annotation": {"number": 0, "value": 0}, "group": "control_change"}, {"time": 194364, "annotation": {"number": 32, "value": 0}, "group": "control_change"}, {"time": 247236, "annotation": {"number": 11, "value": 110}, "group": "control_change"}, {"time": 247246, "annotation": {"number": 10, "value": 64}, "group": "control_change"}]}, {"program": 79, "is_drum": false, "name": "SQ", "notes": [{"time": 41758, "pitch": 89, "duration": 50, "velocity": 95}, {"time": 41878, "pitch": 89, "duration": 50, "velocity": 95}, {"time": 41997, "pitch": 89, "duration": 50, "velocity": 95}, {"time": 42236, "pitch": 89, "duration": 50, "velocity": 95}, {"time": 42475, "pitch": 89, "duration": 50, "velocity": 95}, {"time": 42594, "pitch": 89, "duration": 50, "velocity": 95}, {"time": 42714, "pitch": 89, "duration": 50, "velocity": 95}, {"time": 42959, "pitch": 89, "duration": 51, "velocity": 95}, {"time": 43204, "pitch": 89, "duration": 50, "velocity": 95}, {"time": 43323, "pitch": 89, "duration": 50, "velocity": 95}, {"time": 43443, "pitch": 89, "duration": 50, "velocity": 95}, {"time": 43562, "pitch": 89, "duration": 50, "velocity": 65}, {"time": 43682, "pitch": 91, "duration": 49, "velocity": 95}, {"time": 43801, "pitch": 91, "duration": 50, "velocity": 95}, {"time": 43920, "pitch": 91, "duration": 50, "velocity": 95}, {"time": 44159, "pitch": 91, "duration": 50, "velocity": 95}, {"time": 44398, "pitch": 91, "duration": 50, "velocity": 95}, {"time": 44517, "pitch": 91, "duration": 50, "velocity": 95}, {"time": 44637, "pitch": 91, "duration": 49, "velocity": 95}, {"time": 44875, "pitch": 91, "duration": 50, "velocity": 95}, {"time": 45114, "pitch": 91, "duration": 51, "velocity": 95}, {"time": 45237, "pitch": 91, "duration": 51, "velocity": 95}, {"time": 45359, "pitch": 91, "duration": 52, "velocity": 95}, {"time": 45482, "pitch": 91, "duration": 51, "velocity": 65}, {"time": 45605, "pitch": 89, "duration": 49, "velocity": 95}, {"time": 45724, "pitch": 89, "duration": 50, "velocity": 95}, {"time": 45843, "pitch": 89, "duration": 50, "velocity": 95}, {"time": 46082, "pitch": 89, "duration": 50, "velocity": 95}, {"time": 46321, "pitch": 89, "duration": 50, "velocity": 95}, {"time": 46440, "pitch": 89, "duration": 50, "velocity": 95}, {"time": 46560, "pitch": 89, "duration": 49, "velocity": 95}, {"time": 46799, "pitch": 89, "duration": 49, "velocity": 95}, {"time": 47037, "pitch": 89, "duration": 50, "velocity": 95}, {"time": 47157, "pitch": 89, "duration": 49, "velocity": 95}, {"time": 47276, "pitch": 89, "duration": 50, "velocity": 95}, {"time": 47395, "pitch": 89, "duration": 50, "velocity": 65}, {"time": 47515, "pitch": 91, "duration": 51, "velocity": 95}, {"time": 47637, "pitch": 91, "duration": 51, "velocity": 95}, {"time": 47760, "pitch": 91, "duration": 51, "velocity": 95}, {"time": 48005, "pitch": 91, "duration": 50, "velocity": 95}, {"time": 48244, "pitch": 91, "duration": 50, "velocity": 95}, {"time": 48363, "pitch": 91, "duration": 50, "velocity": 95}, {"time": 48483, "pitch": 91, "duration": 50, "velocity": 95}, {"time": 48722, "pitch": 91, "duration": 49, "velocity": 95}, {"time": 48960, "pitch": 91, "duration": 50, "velocity": 95}, {"time": 49080, "pitch": 91, "duration": 50, "velocity": 95}, {"time": 49199, "pitch": 91, "duration": 50, "velocity": 95}, {"time": 49319, "pitch": 91, "duration": 49, "velocity": 65}, {"time": 129123, "pitch": 89, "duration": 50, "velocity": 95}, {"time": 129243, "pitch": 89, "duration": 50, "velocity": 95}, {"time": 129362, "pitch": 89, "duration": 50, "velocity": 95}, {"time": 129601, "pitch": 89, "duration": 50, "velocity": 95}, {"time": 129840, "pitch": 89, "duration": 49, "velocity": 95}, {"time": 129959, "pitch": 89, "duration": 50, "velocity": 95}, {"time": 130079, "pitch": 89, "duration": 49, "velocity": 95}, {"time": 130317, "pitch": 89, "duration": 50, "velocity": 95}, {"time": 130556, "pitch": 89, "duration": 50, "velocity": 95}, {"time": 130675, "pitch": 89, "duration": 50, "velocity": 95}, {"time": 130795, "pitch": 89, "duration": 50, "velocity": 95}, {"time": 130914, "pitch": 89, "duration": 50, "velocity": 65}, {"time": 131034, "pitch": 91, "duration": 51, "velocity": 95}, {"time": 131156, "pitch": 91, "duration": 51, "velocity": 95}, {"time": 131279, "pitch": 91, "duration": 51, "velocity": 95}, {"time": 131524, "pitch": 91, "duration": 50, "velocity": 95}, {"time": 131763, "pitch": 91, "duration": 50, "velocity": 95}, {"time": 131882, "pitch": 91, "duration": 50, "velocity": 95}, {"time": 132002, "pitch": 91, "duration": 49, "velocity": 95}, {"time": 132240, "pitch": 91, "duration": 50, "velocity": 95}, {"time": 132479, "pitch": 91, "duration": 50, "velocity": 95}, {"time": 132599, "pitch": 91, "duration": 49, "velocity": 95}, {"time": 132718, "pitch": 91, "duration": 50, "velocity": 95}, {"time": 132837, "pitch": 91, "duration": 50, "velocity": 65}, {"time": 132957, "pitch": 89, "duration": 49, "velocity": 95}, {"time": 133076, "pitch": 89, "duration": 50, "velocity": 95}, {"time": 133195, "pitch": 89, "duration": 50, "velocity": 95}, {"time": 133434, "pitch": 89, "duration": 51, "velocity": 95}, {"time": 133679, "pitch": 89, "duration": 52, "velocity": 95}, {"time": 133802, "pitch": 89, "duration": 51, "velocity": 95}, {"time": 133925, "pitch": 89, "duration": 49, "velocity": 95}, {"time": 134163, "pitch": 89, "duration": 50, "velocity": 95}, {"time": 134402, "pitch": 89, "duration": 50, "velocity": 95}, {"time": 134522, "pitch": 89, "duration": 49, "velocity": 95}, {"time": 134641, "pitch": 89, "duration": 50, "velocity": 95}, {"time": 134760, "pitch": 89, "duration": 50, "velocity": 65}, {"time": 134880, "pitch": 91, "duration": 50, "velocity": 95}, {"time": 134999, "pitch": 91, "duration": 50, "velocity": 95}, {"time": 135119, "pitch": 91, "duration": 49, "velocity": 95}, {"time": 135357, "pitch": 91, "duration": 50, "velocity": 95}, {"time": 135596, "pitch": 91, "duration": 50, "velocity": 95}, {"time": 135715, "pitch": 91, "duration": 50, "velocity": 95}, {"time": 135835, "pitch": 91, "duration": 51, "velocity": 95}, {"time": 136080, "pitch": 91, "duration": 51, "velocity": 95}, {"time": 136325, "pitch": 91, "duration": 50, "velocity": 95}, {"time": 136445, "pitch": 91, "duration": 49, "velocity": 95}, {"time": 136564, "pitch": 91, "duration": 50, "velocity": 95}, {"time": 136684, "pitch": 91, "duration": 49, "velocity": 65}, {"time": 194405, "pitch": 89, "duration": 50, "velocity": 95}, {"time": 194525, "pitch": 89, "duration": 49, "velocity": 95}, {"time": 194644, "pitch": 89, "duration": 50, "velocity": 95}, {"time": 194883, "pitch": 89, "duration": 49, "velocity": 95}, {"time": 195121, "pitch": 89, "duration": 50, "velocity": 95}, {"time": 195241, "pitch": 89, "duration": 50, "velocity": 95}, {"time": 195360, "pitch": 89, "duration": 50, "velocity": 95}, {"time": 195599, "pitch": 89, "duration": 50, "velocity": 95}, {"time": 195838, "pitch": 89, "duration": 50, "velocity": 95}, {"time": 195957, "pitch": 89, "duration": 50, "velocity": 95}, {"time": 196077, "pitch": 89, "duration": 49, "velocity": 95}, {"time": 196196, "pitch": 89, "duration": 50, "velocity": 65}, {"time": 196315, "pitch": 91, "duration": 51, "velocity": 95}, {"time": 196438, "pitch": 91, "duration": 51, "velocity": 95}, {"time": 196561, "pitch": 91, "duration": 51, "velocity": 95}, {"time": 196806, "pitch": 91, "duration": 50, "velocity": 95}, {"time": 197045, "pitch": 91, "duration": 49, "velocity": 95}, {"time": 197164, "pitch": 91, "duration": 50, "velocity": 95}, {"time": 197283, "pitch": 91, "duration": 50, "velocity": 95}, {"time": 197522, "pitch": 91, "duration": 50, "velocity": 95}, {"time": 197761, "pitch": 91, "duration": 50, "velocity": 95}, {"time": 197880, "pitch": 91, "duration": 50, "velocity": 95}, {"time": 198000, "pitch": 91, "duration": 49, "velocity": 95}, {"time": 198119, "pitch": 91, "duration": 50, "velocity": 65}, {"time": 198238, "pitch": 89, "duration": 50, "velocity": 95}, {"time": 198358, "pitch": 89, "duration": 50, "velocity": 95}, {"time": 198477, "pitch": 89, "duration": 50, "velocity": 95}, {"time": 198716, "pitch": 89, "duration": 51, "velocity": 95}, {"time": 198961, "pitch": 89, "duration": 51, "velocity": 95}, {"time": 199084, "pitch": 89, "duration": 51, "velocity": 95}, {"time": 199206, "pitch": 89, "duration": 50, "velocity": 95}, {"time": 199445, "pitch": 89, "duration": 50, "velocity": 95}, {"time": 199684, "pitch": 89, "duration": 50, "velocity": 95}, {"time": 199803, "pitch": 89, "duration": 50, "velocity": 95}, {"time": 199923, "pitch": 89, "duration": 49, "velocity": 95}, {"time": 200042, "pitch": 89, "duration": 50, "velocity": 65}, {"time": 200162, "pitch": 91, "duration": 49, "velocity": 95}, {"time": 200281, "pitch": 91, "duration": 50, "velocity": 95}, {"time": 200400, "pitch": 91, "duration": 50, "velocity": 95}, {"time": 200639, "pitch": 91, "duration": 50, "velocity": 95}, {"time": 200878, "pitch": 91, "duration": 50, "velocity": 95}, {"time": 200997, "pitch": 91, "duration": 50, "velocity": 95}, {"time": 201117, "pitch": 91, "duration": 49, "velocity": 95}, {"time": 201355, "pitch": 91, "duration": 50, "velocity": 95}, {"time": 201594, "pitch": 91, "duration": 51, "velocity": 95}, {"time": 201717, "pitch": 91, "duration": 51, "velocity": 95}, {"time": 201839, "pitch": 91, "duration": 51, "velocity": 95}, {"time": 201962, "pitch": 91, "duration": 51, "velocity": 65}], "annotations": [{"time": 40833, "annotation": {"number": 11, "value": 100}, "group": "control_change"}, {"time": 40843, "annotation": {"number": 10, "value": 54}, "group": "control_change"}, {"time": 90726, "annotation": {"number": 0, "value": 0}, "group": "control_change"}, {"time": 90736, "annotation": {"number": 32, "value": 0}, "group": "control_change"}, {"time": 128186, "annotation": {"number": 11, "value": 100}, "group": "control_change"}, {"time": 128196, "annotation": {"number": 10, "value": 54}, "group": "control_change"}, {"time": 178078, "annotation": {"number": 0, "value": 0}, "group": "control_change"}, {"time": 178088, "annotation": {"number": 32, "value": 0}, "group": "control_change"}, {"time": 194385, "annotation": {"number": 11, "value": 100}, "group": "control_change"}, {"time": 194395, "annotation": {"number": 10, "value": 54}, "group": "control_change"}, {"time": 247206, "annotation": {"number": 0, "value": 0}, "group": "control_change"}, {"time": 247216, "annotation": {"number": 32, "value": 0}, "group": "control_change"}]}, {"program": 0, "is_drum": false, "name": "ST 1", "annotations": [{"time": 230, "annotation": {"number": 0, "value": 0}, "group": "control_change"}, {"time": 251, "annotation": {"number": 32, "value": 0}, "group": "control_change"}]}, {"program": 48, "is_drum": false, "name": "ST 1", "notes": [{"time": 48960, "pitch": 74, "duration": 120, "velocity": 102}, {"time": 48960, "pitch": 86, "duration": 120, "velocity": 102}, {"time": 49080, "pitch": 72, "duration": 119, "velocity": 97}, {"time": 49080, "pitch": 84, "duration": 119, "velocity": 97}, {"time": 49199, "pitch": 71, "duration": 120, "velocity": 101}, {"time": 49199, "pitch": 83, "duration": 120, "velocity": 101}, {"time": 49319, "pitch": 67, "duration": 119, "velocity": 96}, {"time": 49319, "pitch": 79, "duration": 119, "velocity": 96}, {"time": 49438, "pitch": 69, "duration": 968, "velocity": 99}, {"time": 49438, "pitch": 72, "duration": 1903, "velocity": 94}, {"time": 49448, "pitch": 76, "duration": 1903, "velocity": 89}, {"time": 49915, "pitch": 60, "duration": 491, "velocity": 104}, {"time": 50406, "pitch": 69, "duration": 955, "velocity": 107}, {"time": 51361, "pitch": 68, "duration": 1903, "velocity": 99}, {"time": 51361, "pitch": 71, "duration": 1903, "velocity": 94}, {"time": 51371, "pitch": 76, "duration": 1903, "velocity": 89}, {"time": 52316, "pitch": 80, "duration": 968, "velocity": 97}, {"time": 53284, "pitch": 67, "duration": 478, "velocity": 102}, {"time": 53284, "pitch": 79, "duration": 478, "velocity": 97}, {"time": 53762, "pitch": 65, "duration": 477, "velocity": 97}, {"time": 53762, "pitch": 77, "duration": 477, "velocity": 92}, {"time": 54239, "pitch": 63, "duration": 478, "velocity": 99}, {"time": 54239, "pitch": 75, "duration": 478, "velocity": 95}, {"time": 54717, "pitch": 62, "duration": 477, "velocity": 96}, {"time": 54717, "pitch": 74, "duration": 477, "velocity": 92}, {"time": 55194, "pitch": 58, "duration": 491, "velocity": 102}, {"time": 55194, "pitch": 70, "duration": 491, "velocity": 97}, {"time": 55685, "pitch": 56, "duration": 477, "velocity": 98}, {"time": 55685, "pitch": 68, "duration": 477, "velocity": 93}, {"time": 56162, "pitch": 55, "duration": 478, "velocity": 102}, {"time": 56162, "pitch": 67, "duration": 478, "velocity": 97}, {"time": 56640, "pitch": 51, "duration": 477, "velocity": 95}, {"time": 56640, "pitch": 63, "duration": 477, "velocity": 90}, {"time": 57117, "pitch": 74, "duration": 179, "velocity": 90}, {"time": 57117, "pitch": 86, "duration": 179, "velocity": 100}, {"time": 57356, "pitch": 62, "duration": 179, "velocity": 84}, {"time": 57356, "pitch": 74, "duration": 179, "velocity": 94}, {"time": 57595, "pitch": 73, "duration": 184, "velocity": 89}, {"time": 57595, "pitch": 85, "duration": 184, "velocity": 99}, {"time": 57840, "pitch": 61, "duration": 184, "velocity": 83}, {"time": 57840, "pitch": 73, "duration": 184, "velocity": 93}, {"time": 58085, "pitch": 72, "duration": 179, "velocity": 87}, {"time": 58085, "pitch": 84, "duration": 179, "velocity": 97}, {"time": 58324, "pitch": 60, "duration": 179, "velocity": 81}, {"time": 58324, "pitch": 72, "duration": 179, "velocity": 91}, {"time": 58563, "pitch": 71, "duration": 179, "velocity": 87}, {"time": 58563, "pitch": 83, "duration": 179, "velocity": 97}, {"time": 58802, "pitch": 59, "duration": 179, "velocity": 82}, {"time": 58802, "pitch": 71, "duration": 179, "velocity": 92}, {"time": 59040, "pitch": 70, "duration": 180, "velocity": 90}, {"time": 59040, "pitch": 82, "duration": 180, "velocity": 100}, {"time": 59279, "pitch": 58, "duration": 179, "velocity": 84}, {"time": 59279, "pitch": 70, "duration": 179, "velocity": 94}, {"time": 59518, "pitch": 69, "duration": 179, "velocity": 89}, {"time": 59518, "pitch": 81, "duration": 179, "velocity": 99}, {"time": 59757, "pitch": 57, "duration": 179, "velocity": 83}, {"time": 59757, "pitch": 69, "duration": 179, "velocity": 93}, {"time": 59996, "pitch": 68, "duration": 183, "velocity": 88}, {"time": 59996, "pitch": 80, "duration": 183, "velocity": 98}, {"time": 60241, "pitch": 56, "duration": 184, "velocity": 81}, {"time": 60241, "pitch": 68, "duration": 184, "velocity": 91}, {"time": 60486, "pitch": 67, "duration": 129, "velocity": 88}, {"time": 60486, "pitch": 79, "duration": 129, "velocity": 98}, {"time": 60605, "pitch": 66, "duration": 130, "velocity": 80}, {"time": 60605, "pitch": 78, "duration": 130, "velocity": 90}, {"time": 60725, "pitch": 65, "duration": 129, "velocity": 88}, {"time": 60725, "pitch": 77, "duration": 129, "velocity": 98}, {"time": 60844, "pitch": 64, "duration": 130, "velocity": 80}, {"time": 60844, "pitch": 76, "duration": 130, "velocity": 90}, {"time": 60964, "pitch": 74, "duration": 1910, "velocity": 66}, {"time": 60964, "pitch": 91, "duration": 7679, "velocity": 90}, {"time": 62874, "pitch": 72, "duration": 490, "velocity": 65}, {"time": 63364, "pitch": 74, "duration": 478, "velocity": 70}, {"time": 63842, "pitch": 72, "duration": 477, "velocity": 65}, {"time": 64319, "pitch": 74, "duration": 478, "velocity": 70}, {"time": 64797, "pitch": 71, "duration": 1923, "velocity": 70}, {"time": 66720, "pitch": 69, "duration": 1923, "velocity": 70}, {"time": 68643, "pitch": 74, "duration": 1923, "velocity": 66}, {"time": 68643, "pitch": 91, "duration": 7679, "velocity": 90}, {"time": 70566, "pitch": 72, "duration": 478, "velocity": 65}, {"time": 71044, "pitch": 74, "duration": 477, "velocity": 70}, {"time": 71521, "pitch": 72, "duration": 478, "velocity": 65}, {"time": 71999, "pitch": 74, "duration": 477, "velocity": 70}, {"time": 72476, "pitch": 71, "duration": 1923, "velocity": 70}, {"time": 74399, "pitch": 69, "duration": 1923, "velocity": 70}, {"time": 76800, "pitch": 72, "duration": 99, "velocity": 100}, {"time": 76800, "pitch": 84, "duration": 99, "velocity": 100}, {"time": 76919, "pitch": 67, "duration": 100, "velocity": 94}, {"time": 76919, "pitch": 79, "duration": 100, "velocity": 94}, {"time": 77039, "pitch": 64, "duration": 99, "velocity": 89}, {"time": 77039, "pitch": 76, "duration": 99, "velocity": 89}, {"time": 77158, "pitch": 67, "duration": 100, "velocity": 92}, {"time": 77158, "pitch": 79, "duration": 100, "velocity": 92}, {"time": 77277, "pitch": 76, "duration": 928, "velocity": 100}, {"time": 77277, "pitch": 88, "duration": 928, "velocity": 100}, {"time": 78723, "pitch": 71, "duration": 100, "velocity": 100}, {"time": 78723, "pitch": 83, "duration": 100, "velocity": 100}, {"time": 78842, "pitch": 67, "duration": 100, "velocity": 94}, {"time": 78842, "pitch": 79, "duration": 100, "velocity": 94}, {"time": 78962, "pitch": 62, "duration": 99, "velocity": 89}, {"time": 78962, "pitch": 74, "duration": 99, "velocity": 89}, {"time": 79081, "pitch": 67, "duration": 100, "velocity": 92}, {"time": 79081, "pitch": 79, "duration": 100, "velocity": 92}, {"time": 79201, "pitch": 74, "duration": 915, "velocity": 100}, {"time": 79201, "pitch": 86, "duration": 915, "velocity": 100}, {"time": 80646, "pitch": 72, "duration": 100, "velocity": 100}, {"time": 80646, "pitch": 84, "duration": 100, "velocity": 100}, {"time": 80766, "pitch": 67, "duration": 99, "velocity": 94}, {"time": 80766, "pitch": 79, "duration": 99, "velocity": 94}, {"time": 80885, "pitch": 64, "duration": 99, "velocity": 89}, {"time": 80885, "pitch": 76, "duration": 99, "velocity": 89}, {"time": 81004, "pitch": 67, "duration": 100, "velocity": 92}, {"time": 81004, "pitch": 79, "duration": 100, "velocity": 92}, {"time": 81124, "pitch": 76, "duration": 915, "velocity": 100}, {"time": 81124, "pitch": 88, "duration": 915, "velocity": 100}, {"time": 82556, "pitch": 71, "duration": 100, "velocity": 100}, {"time": 82556, "pitch": 83, "duration": 100, "velocity": 100}, {"time": 82676, "pitch": 67, "duration": 99, "velocity": 94}, {"time": 82676, "pitch": 79, "duration": 99, "velocity": 94}, {"time": 82795, "pitch": 62, "duration": 100, "velocity": 89}, {"time": 82795, "pitch": 74, "duration": 100, "velocity": 89}, {"time": 82914, "pitch": 67, "duration": 100, "velocity": 92}, {"time": 82914, "pitch": 79, "duration": 100, "velocity": 92}, {"time": 83034, "pitch": 74, "duration": 928, "velocity": 100}, {"time": 83034, "pitch": 86, "duration": 928, "velocity": 100}, {"time": 84002, "pitch": 57, "duration": 119, "velocity": 104}, {"time": 84241, "pitch": 59, "duration": 119, "velocity": 101}, {"time": 84479, "pitch": 60, "duration": 120, "velocity": 103}, {"time": 84718, "pitch": 62, "duration": 120, "velocity": 106}, {"time": 84957, "pitch": 64, "duration": 119, "velocity": 99}, {"time": 85196, "pitch": 66, "duration": 119, "velocity": 104}, {"time": 85434, "pitch": 67, "duration": 123, "velocity": 107}, {"time": 85680, "pitch": 69, "duration": 122, "velocity": 109}, {"time": 85925, "pitch": 71, "duration": 119, "velocity": 102}, {"time": 86164, "pitch": 72, "duration": 119, "velocity": 98}, {"time": 86403, "pitch": 74, "duration": 119, "velocity": 103}, {"time": 86641, "pitch": 76, "duration": 120, "velocity": 106}, {"time": 86880, "pitch": 78, "duration": 119, "velocity": 107}, {"time": 87119, "pitch": 79, "duration": 119, "velocity": 102}, {"time": 87358, "pitch": 81, "duration": 119, "velocity": 104}, {"time": 87596, "pitch": 83, "duration": 120, "velocity": 109}, {"time": 87835, "pitch": 84, "duration": 491, "velocity": 105}, {"time": 88326, "pitch": 83, "duration": 477, "velocity": 102}, {"time": 88803, "pitch": 81, "duration": 478, "velocity": 105}, {"time": 89281, "pitch": 79, "duration": 477, "velocity": 102}, {"time": 89758, "pitch": 77, "duration": 968, "velocity": 101}, {"time": 90726, "pitch": 62, "duration": 448, "velocity": 95}, {"time": 91204, "pitch": 67, "duration": 59, "velocity": 101}, {"time": 91263, "pitch": 66, "duration": 60, "velocity": 98}, {"time": 91323, "pitch": 64, "duration": 60, "velocity": 100}, {"time": 91383, "pitch": 62, "duration": 60, "velocity": 97}, {"time": 91443, "pitch": 60, "duration": 59, "velocity": 99}, {"time": 91502, "pitch": 59, "duration": 60, "velocity": 97}, {"time": 91562, "pitch": 57, "duration": 60, "velocity": 98}, {"time": 91622, "pitch": 55, "duration": 59, "velocity": 94}, {"time": 91681, "pitch": 53, "duration": 60, "velocity": 98}, {"time": 91741, "pitch": 52, "duration": 60, "velocity": 96}, {"time": 91801, "pitch": 50, "duration": 59, "velocity": 97}, {"time": 91860, "pitch": 48, "duration": 60, "velocity": 95}, {"time": 91920, "pitch": 47, "duration": 60, "velocity": 96}, {"time": 91980, "pitch": 45, "duration": 59, "velocity": 94}, {"time": 92039, "pitch": 43, "duration": 60, "velocity": 95}, {"time": 92099, "pitch": 42, "duration": 60, "velocity": 93}, {"time": 136325, "pitch": 74, "duration": 120, "velocity": 102}, {"time": 136325, "pitch": 86, "duration": 120, "velocity": 102}, {"time": 136445, "pitch": 72, "duration": 119, "velocity": 97}, {"time": 136445, "pitch": 84, "duration": 119, "velocity": 97}, {"time": 136564, "pitch": 71, "duration": 120, "velocity": 101}, {"time": 136564, "pitch": 83, "duration": 120, "velocity": 101}, {"time": 136684, "pitch": 67, "duration": 119, "velocity": 96}, {"time": 136684, "pitch": 79, "duration": 119, "velocity": 96}, {"time": 136803, "pitch": 69, "duration": 955, "velocity": 99}, {"time": 136803, "pitch": 72, "duration": 1903, "velocity": 94}, {"time": 136813, "pitch": 76, "duration": 1903, "velocity": 89}, {"time": 137280, "pitch": 60, "duration": 478, "velocity": 104}, {"time": 137758, "pitch": 69, "duration": 968, "velocity": 107}, {"time": 138726, "pitch": 68, "duration": 1890, "velocity": 99}, {"time": 138726, "pitch": 71, "duration": 1890, "velocity": 94}, {"time": 138736, "pitch": 76, "duration": 1890, "velocity": 89}, {"time": 139681, "pitch": 80, "duration": 955, "velocity": 97}, {"time": 140636, "pitch": 67, "duration": 478, "velocity": 102}, {"time": 140636, "pitch": 79, "duration": 478, "velocity": 97}, {"time": 141114, "pitch": 65, "duration": 490, "velocity": 97}, {"time": 141114, "pitch": 77, "duration": 490, "velocity": 92}, {"time": 141604, "pitch": 63, "duration": 478, "velocity": 99}, {"time": 141604, "pitch": 75, "duration": 478, "velocity": 95}, {"time": 142082, "pitch": 62, "duration": 477, "velocity": 96}, {"time": 142082, "pitch": 74, "duration": 477, "velocity": 92}, {"time": 142559, "pitch": 58, "duration": 478, "velocity": 102}, {"time": 142559, "pitch": 70, "duration": 478, "velocity": 97}, {"time": 143037, "pitch": 56, "duration": 477, "velocity": 98}, {"time": 143037, "pitch": 68, "duration": 477, "velocity": 93}, {"time": 143514, "pitch": 55, "duration": 491, "velocity": 102}, {"time": 143514, "pitch": 67, "duration": 491, "velocity": 97}, {"time": 144005, "pitch": 51, "duration": 477, "velocity": 95}, {"time": 144005, "pitch": 63, "duration": 477, "velocity": 90}, {"time": 144482, "pitch": 74, "duration": 179, "velocity": 90}, {"time": 144482, "pitch": 86, "duration": 179, "velocity": 100}, {"time": 144721, "pitch": 62, "duration": 179, "velocity": 84}, {"time": 144721, "pitch": 74, "duration": 179, "velocity": 94}, {"time": 144960, "pitch": 73, "duration": 179, "velocity": 89}, {"time": 144960, "pitch": 85, "duration": 179, "velocity": 99}, {"time": 145199, "pitch": 61, "duration": 179, "velocity": 83}, {"time": 145199, "pitch": 73, "duration": 179, "velocity": 93}, {"time": 145437, "pitch": 72, "duration": 179, "velocity": 87}, {"time": 145437, "pitch": 84, "duration": 179, "velocity": 97}, {"time": 145676, "pitch": 60, "duration": 179, "velocity": 81}, {"time": 145676, "pitch": 72, "duration": 179, "velocity": 91}, {"time": 145915, "pitch": 71, "duration": 184, "velocity": 87}, {"time": 145915, "pitch": 83, "duration": 184, "velocity": 97}, {"time": 146160, "pitch": 59, "duration": 184, "velocity": 82}, {"time": 146160, "pitch": 71, "duration": 184, "velocity": 92}, {"time": 146405, "pitch": 70, "duration": 180, "velocity": 90}, {"time": 146405, "pitch": 82, "duration": 180, "velocity": 100}, {"time": 146644, "pitch": 58, "duration": 179, "velocity": 84}, {"time": 146644, "pitch": 70, "duration": 179, "velocity": 94}, {"time": 146883, "pitch": 69, "duration": 179, "velocity": 89}, {"time": 146883, "pitch": 81, "duration": 179, "velocity": 99}, {"time": 147122, "pitch": 57, "duration": 179, "velocity": 83}, {"time": 147122, "pitch": 69, "duration": 179, "velocity": 93}, {"time": 147360, "pitch": 68, "duration": 180, "velocity": 88}, {"time": 147360, "pitch": 80, "duration": 180, "velocity": 98}, {"time": 147599, "pitch": 56, "duration": 179, "velocity": 81}, {"time": 147599, "pitch": 68, "duration": 179, "velocity": 91}, {"time": 147838, "pitch": 67, "duration": 129, "velocity": 88}, {"time": 147838, "pitch": 79, "duration": 129, "velocity": 98}, {"time": 147957, "pitch": 66, "duration": 130, "velocity": 80}, {"time": 147957, "pitch": 78, "duration": 130, "velocity": 90}, {"time": 148077, "pitch": 65, "duration": 129, "velocity": 88}, {"time": 148077, "pitch": 77, "duration": 129, "velocity": 98}, {"time": 148196, "pitch": 64, "duration": 130, "velocity": 80}, {"time": 148196, "pitch": 76, "duration": 130, "velocity": 90}, {"time": 148316, "pitch": 74, "duration": 1923, "velocity": 66}, {"time": 148316, "pitch": 91, "duration": 7679, "velocity": 90}, {"time": 150239, "pitch": 72, "duration": 477, "velocity": 65}, {"time": 150716, "pitch": 74, "duration": 478, "velocity": 70}, {"time": 151194, "pitch": 72, "duration": 490, "velocity": 65}, {"time": 151684, "pitch": 74, "duration": 478, "velocity": 70}, {"time": 152162, "pitch": 71, "duration": 1923, "velocity": 70}, {"time": 154085, "pitch": 69, "duration": 1910, "velocity": 70}, {"time": 155995, "pitch": 74, "duration": 1923, "velocity": 66}, {"time": 155995, "pitch": 91, "duration": 7679, "velocity": 90}, {"time": 157918, "pitch": 72, "duration": 478, "velocity": 65}, {"time": 158396, "pitch": 74, "duration": 490, "velocity": 70}, {"time": 158886, "pitch": 72, "duration": 478, "velocity": 65}, {"time": 159364, "pitch": 74, "duration": 477, "velocity": 70}, {"time": 159841, "pitch": 71, "duration": 1923, "velocity": 70}, {"time": 161764, "pitch": 69, "duration": 1910, "velocity": 70}, {"time": 164165, "pitch": 72, "duration": 99, "velocity": 100}, {"time": 164165, "pitch": 84, "duration": 99, "velocity": 100}, {"time": 164284, "pitch": 67, "duration": 100, "velocity": 94}, {"time": 164284, "pitch": 79, "duration": 100, "velocity": 94}, {"time": 164404, "pitch": 64, "duration": 99, "velocity": 89}, {"time": 164404, "pitch": 76, "duration": 99, "velocity": 89}, {"time": 164523, "pitch": 67, "duration": 100, "velocity": 92}, {"time": 164523, "pitch": 79, "duration": 100, "velocity": 92}, {"time": 164642, "pitch": 76, "duration": 916, "velocity": 100}, {"time": 164642, "pitch": 88, "duration": 916, "velocity": 100}, {"time": 166075, "pitch": 71, "duration": 102, "velocity": 100}, {"time": 166075, "pitch": 83, "duration": 102, "velocity": 100}, {"time": 166198, "pitch": 67, "duration": 102, "velocity": 94}, {"time": 166198, "pitch": 79, "duration": 102, "velocity": 94}, {"time": 166320, "pitch": 62, "duration": 103, "velocity": 89}, {"time": 166320, "pitch": 74, "duration": 103, "velocity": 89}, {"time": 166443, "pitch": 67, "duration": 102, "velocity": 92}, {"time": 166443, "pitch": 79, "duration": 102, "velocity": 92}, {"time": 166566, "pitch": 74, "duration": 915, "velocity": 100}, {"time": 166566, "pitch": 86, "duration": 915, "velocity": 100}, {"time": 167998, "pitch": 72, "duration": 100, "velocity": 100}, {"time": 167998, "pitch": 84, "duration": 100, "velocity": 100}, {"time": 168118, "pitch": 67, "duration": 99, "velocity": 94}, {"time": 168118, "pitch": 79, "duration": 99, "velocity": 94}, {"time": 168237, "pitch": 64, "duration": 99, "velocity": 89}, {"time": 168237, "pitch": 76, "duration": 99, "velocity": 89}, {"time": 168356, "pitch": 67, "duration": 100, "velocity": 92}, {"time": 168356, "pitch": 79, "duration": 100, "velocity": 92}, {"time": 168476, "pitch": 76, "duration": 928, "velocity": 100}, {"time": 168476, "pitch": 88, "duration": 928, "velocity": 100}, {"time": 169921, "pitch": 71, "duration": 100, "velocity": 100}, {"time": 169921, "pitch": 83, "duration": 100, "velocity": 100}, {"time": 170041, "pitch": 67, "duration": 99, "velocity": 94}, {"time": 170041, "pitch": 79, "duration": 99, "velocity": 94}, {"time": 170160, "pitch": 62, "duration": 100, "velocity": 89}, {"time": 170160, "pitch": 74, "duration": 100, "velocity": 89}, {"time": 170279, "pitch": 67, "duration": 100, "velocity": 92}, {"time": 170279, "pitch": 79, "duration": 100, "velocity": 92}, {"time": 170399, "pitch": 74, "duration": 915, "velocity": 100}, {"time": 170399, "pitch": 86, "duration": 915, "velocity": 100}, {"time": 171354, "pitch": 57, "duration": 122, "velocity": 104}, {"time": 171599, "pitch": 59, "duration": 123, "velocity": 101}, {"time": 171844, "pitch": 60, "duration": 120, "velocity": 103}, {"time": 172083, "pitch": 62, "duration": 120, "velocity": 106}, {"time": 172322, "pitch": 64, "duration": 119, "velocity": 99}, {"time": 172561, "pitch": 66, "duration": 119, "velocity": 104}, {"time": 172799, "pitch": 67, "duration": 120, "velocity": 107}, {"time": 173038, "pitch": 69, "duration": 120, "velocity": 109}, {"time": 173277, "pitch": 71, "duration": 119, "velocity": 102}, {"time": 173516, "pitch": 72, "duration": 119, "velocity": 98}, {"time": 173755, "pitch": 74, "duration": 122, "velocity": 103}, {"time": 174000, "pitch": 76, "duration": 122, "velocity": 106}, {"time": 174245, "pitch": 78, "duration": 119, "velocity": 107}, {"time": 174484, "pitch": 79, "duration": 119, "velocity": 102}, {"time": 174723, "pitch": 81, "duration": 119, "velocity": 104}, {"time": 174961, "pitch": 83, "duration": 120, "velocity": 109}, {"time": 175200, "pitch": 84, "duration": 478, "velocity": 105}, {"time": 175678, "pitch": 83, "duration": 477, "velocity": 102}, {"time": 176155, "pitch": 81, "duration": 491, "velocity": 105}, {"time": 176646, "pitch": 79, "duration": 477, "velocity": 102}, {"time": 177123, "pitch": 77, "duration": 955, "velocity": 101}, {"time": 178078, "pitch": 62, "duration": 448, "velocity": 95}, {"time": 178556, "pitch": 55, "duration": 61, "velocity": 96}, {"time": 178617, "pitch": 57, "duration": 61, "velocity": 98}, {"time": 178678, "pitch": 59, "duration": 62, "velocity": 100}, {"time": 178740, "pitch": 60, "duration": 61, "velocity": 98}, {"time": 178801, "pitch": 62, "duration": 61, "velocity": 101}, {"time": 178862, "pitch": 64, "duration": 62, "velocity": 103}, {"time": 178924, "pitch": 66, "duration": 61, "velocity": 102}, {"time": 178985, "pitch": 67, "duration": 61, "velocity": 105}, {"time": 179046, "pitch": 76, "duration": 717, "velocity": 103}, {"time": 179763, "pitch": 75, "duration": 119, "velocity": 99}, {"time": 179882, "pitch": 76, "duration": 119, "velocity": 102}, {"time": 180001, "pitch": 78, "duration": 478, "velocity": 106}, {"time": 180479, "pitch": 71, "duration": 477, "velocity": 99}, {"time": 180956, "pitch": 79, "duration": 723, "velocity": 103}, {"time": 181679, "pitch": 78, "duration": 123, "velocity": 99}, {"time": 181802, "pitch": 79, "duration": 122, "velocity": 102}, {"time": 181924, "pitch": 81, "duration": 239, "velocity": 106}, {"time": 182163, "pitch": 75, "duration": 239, "velocity": 99}, {"time": 182402, "pitch": 78, "duration": 239, "velocity": 95}, {"time": 182641, "pitch": 81, "duration": 239, "velocity": 101}, {"time": 182880, "pitch": 84, "duration": 477, "velocity": 104}, {"time": 183357, "pitch": 83, "duration": 478, "velocity": 99}, {"time": 183835, "pitch": 79, "duration": 490, "velocity": 107}, {"time": 184325, "pitch": 74, "duration": 478, "velocity": 102}, {"time": 184803, "pitch": 72, "duration": 716, "velocity": 105}, {"time": 185519, "pitch": 71, "duration": 119, "velocity": 92}, {"time": 185638, "pitch": 72, "duration": 120, "velocity": 95}, {"time": 185758, "pitch": 73, "duration": 119, "velocity": 105}, {"time": 185877, "pitch": 69, "duration": 119, "velocity": 93}, {"time": 185996, "pitch": 73, "duration": 120, "velocity": 98}, {"time": 186116, "pitch": 78, "duration": 119, "velocity": 102}, {"time": 186235, "pitch": 81, "duration": 123, "velocity": 99}, {"time": 186358, "pitch": 83, "duration": 122, "velocity": 103}, {"time": 186480, "pitch": 84, "duration": 123, "velocity": 105}, {"time": 186603, "pitch": 86, "duration": 123, "velocity": 107}, {"time": 186726, "pitch": 82, "duration": 3833, "velocity": 80}, {"time": 186726, "pitch": 87, "duration": 3833, "velocity": 80}, {"time": 190559, "pitch": 81, "duration": 3846, "velocity": 80}, {"time": 190559, "pitch": 86, "duration": 3846, "velocity": 80}, {"time": 201594, "pitch": 74, "duration": 123, "velocity": 102}, {"time": 201594, "pitch": 86, "duration": 123, "velocity": 102}, {"time": 201717, "pitch": 72, "duration": 122, "velocity": 97}, {"time": 201717, "pitch": 84, "duration": 122, "velocity": 97}, {"time": 201839, "pitch": 71, "duration": 123, "velocity": 101}, {"time": 201839, "pitch": 83, "duration": 123, "velocity": 101}, {"time": 201962, "pitch": 67, "duration": 123, "velocity": 96}, {"time": 201962, "pitch": 79, "duration": 123, "velocity": 96}, {"time": 202085, "pitch": 69, "duration": 955, "velocity": 99}, {"time": 202085, "pitch": 72, "duration": 1890, "velocity": 94}, {"time": 202095, "pitch": 76, "duration": 1890, "velocity": 89}, {"time": 202562, "pitch": 60, "duration": 478, "velocity": 104}, {"time": 203040, "pitch": 69, "duration": 955, "velocity": 107}, {"time": 203995, "pitch": 68, "duration": 1903, "velocity": 99}, {"time": 203995, "pitch": 71, "duration": 1903, "velocity": 94}, {"time": 204005, "pitch": 76, "duration": 1903, "velocity": 89}, {"time": 204963, "pitch": 80, "duration": 955, "velocity": 97}, {"time": 205918, "pitch": 67, "duration": 477, "velocity": 102}, {"time": 205918, "pitch": 79, "duration": 477, "velocity": 97}, {"time": 206395, "pitch": 65, "duration": 491, "velocity": 97}, {"time": 206395, "pitch": 77, "duration": 491, "velocity": 92}, {"time": 206886, "pitch": 63, "duration": 477, "velocity": 99}, {"time": 206886, "pitch": 75, "duration": 477, "velocity": 95}, {"time": 207363, "pitch": 62, "duration": 478, "velocity": 96}, {"time": 207363, "pitch": 74, "duration": 478, "velocity": 92}, {"time": 207841, "pitch": 58, "duration": 477, "velocity": 102}, {"time": 207841, "pitch": 70, "duration": 477, "velocity": 97}, {"time": 208318, "pitch": 56, "duration": 478, "velocity": 98}, {"time": 208318, "pitch": 68, "duration": 478, "velocity": 93}, {"time": 208796, "pitch": 55, "duration": 478, "velocity": 102}, {"time": 208796, "pitch": 67, "duration": 478, "velocity": 97}, {"time": 209274, "pitch": 51, "duration": 490, "velocity": 95}, {"time": 209274, "pitch": 63, "duration": 490, "velocity": 90}, {"time": 209764, "pitch": 74, "duration": 179, "velocity": 90}, {"time": 209764, "pitch": 86, "duration": 179, "velocity": 100}, {"time": 210003, "pitch": 62, "duration": 179, "velocity": 84}, {"time": 210003, "pitch": 74, "duration": 179, "velocity": 94}, {"time": 210242, "pitch": 73, "duration": 179, "velocity": 89}, {"time": 210242, "pitch": 85, "duration": 179, "velocity": 99}, {"time": 210480, "pitch": 61, "duration": 179, "velocity": 83}, {"time": 210480, "pitch": 73, "duration": 179, "velocity": 93}, {"time": 210719, "pitch": 72, "duration": 179, "velocity": 87}, {"time": 210719, "pitch": 84, "duration": 179, "velocity": 97}, {"time": 210958, "pitch": 60, "duration": 179, "velocity": 81}, {"time": 210958, "pitch": 72, "duration": 179, "velocity": 91}, {"time": 211197, "pitch": 71, "duration": 179, "velocity": 87}, {"time": 211197, "pitch": 83, "duration": 179, "velocity": 97}, {"time": 211435, "pitch": 59, "duration": 179, "velocity": 82}, {"time": 211435, "pitch": 71, "duration": 179, "velocity": 92}, {"time": 211674, "pitch": 70, "duration": 184, "velocity": 90}, {"time": 211674, "pitch": 82, "duration": 184, "velocity": 100}, {"time": 211919, "pitch": 58, "duration": 184, "velocity": 84}, {"time": 211919, "pitch": 70, "duration": 184, "velocity": 94}, {"time": 212165, "pitch": 69, "duration": 179, "velocity": 89}, {"time": 212165, "pitch": 81, "duration": 179, "velocity": 99}, {"time": 212403, "pitch": 57, "duration": 180, "velocity": 83}, {"time": 212403, "pitch": 69, "duration": 180, "velocity": 93}, {"time": 212642, "pitch": 68, "duration": 179, "velocity": 88}, {"time": 212642, "pitch": 80, "duration": 179, "velocity": 98}, {"time": 212881, "pitch": 56, "duration": 179, "velocity": 81}, {"time": 212881, "pitch": 68, "duration": 179, "velocity": 91}, {"time": 213120, "pitch": 67, "duration": 179, "velocity": 90}, {"time": 213120, "pitch": 79, "duration": 179, "velocity": 100}, {"time": 213359, "pitch": 55, "duration": 179, "velocity": 84}, {"time": 213359, "pitch": 67, "duration": 179, "velocity": 94}, {"time": 213597, "pitch": 66, "duration": 179, "velocity": 90}, {"time": 213597, "pitch": 78, "duration": 179, "velocity": 100}, {"time": 213836, "pitch": 54, "duration": 179, "velocity": 84}, {"time": 213836, "pitch": 66, "duration": 179, "velocity": 94}, {"time": 214075, "pitch": 65, "duration": 184, "velocity": 89}, {"time": 214075, "pitch": 77, "duration": 184, "velocity": 99}, {"time": 214320, "pitch": 53, "duration": 184, "velocity": 83}, {"time": 214320, "pitch": 65, "duration": 184, "velocity": 93}, {"time": 214565, "pitch": 64, "duration": 179, "velocity": 87}, {"time": 214565, "pitch": 76, "duration": 179, "velocity": 97}, {"time": 214804, "pitch": 52, "duration": 179, "velocity": 81}, {"time": 214804, "pitch": 64, "duration": 179, "velocity": 91}, {"time": 215043, "pitch": 63, "duration": 179, "velocity": 87}, {"time": 215043, "pitch": 75, "duration": 179, "velocity": 97}, {"time": 215282, "pitch": 51, "duration": 179, "velocity": 82}, {"time": 215282, "pitch": 63, "duration": 179, "velocity": 92}, {"time": 215520, "pitch": 62, "duration": 179, "velocity": 90}, {"time": 215520, "pitch": 74, "duration": 179, "velocity": 100}, {"time": 215759, "pitch": 50, "duration": 179, "velocity": 84}, {"time": 215759, "pitch": 62, "duration": 179, "velocity": 94}, {"time": 215998, "pitch": 61, "duration": 179, "velocity": 89}, {"time": 215998, "pitch": 73, "duration": 179, "velocity": 99}, {"time": 216237, "pitch": 49, "duration": 179, "velocity": 83}, {"time": 216237, "pitch": 61, "duration": 179, "velocity": 93}, {"time": 216475, "pitch": 60, "duration": 184, "velocity": 88}, {"time": 216475, "pitch": 72, "duration": 184, "velocity": 98}, {"time": 216721, "pitch": 48, "duration": 184, "velocity": 81}, {"time": 216721, "pitch": 60, "duration": 184, "velocity": 91}, {"time": 216966, "pitch": 67, "duration": 129, "velocity": 88}, {"time": 216966, "pitch": 79, "duration": 129, "velocity": 98}, {"time": 217085, "pitch": 66, "duration": 130, "velocity": 80}, {"time": 217085, "pitch": 78, "duration": 130, "velocity": 90}, {"time": 217205, "pitch": 65, "duration": 129, "velocity": 88}, {"time": 217205, "pitch": 77, "duration": 129, "velocity": 98}, {"time": 217324, "pitch": 64, "duration": 129, "velocity": 80}, {"time": 217324, "pitch": 76, "duration": 129, "velocity": 90}, {"time": 217443, "pitch": 74, "duration": 1911, "velocity": 66}, {"time": 217443, "pitch": 91, "duration": 7680, "velocity": 90}, {"time": 219354, "pitch": 72, "duration": 490, "velocity": 65}, {"time": 219844, "pitch": 74, "duration": 478, "velocity": 70}, {"time": 220322, "pitch": 72, "duration": 477, "velocity": 65}, {"time": 220799, "pitch": 74, "duration": 478, "velocity": 70}, {"time": 221277, "pitch": 71, "duration": 1923, "velocity": 70}, {"time": 223200, "pitch": 69, "duration": 1923, "velocity": 70}, {"time": 225123, "pitch": 74, "duration": 1923, "velocity": 66}, {"time": 225123, "pitch": 91, "duration": 7679, "velocity": 90}, {"time": 227046, "pitch": 72, "duration": 478, "velocity": 65}, {"time": 227524, "pitch": 74, "duration": 477, "velocity": 70}, {"time": 228001, "pitch": 72, "duration": 478, "velocity": 65}, {"time": 228479, "pitch": 74, "duration": 477, "velocity": 70}, {"time": 228956, "pitch": 71, "duration": 1923, "velocity": 70}, {"time": 230879, "pitch": 69, "duration": 1923, "velocity": 70}, {"time": 233280, "pitch": 72, "duration": 99, "velocity": 100}, {"time": 233280, "pitch": 84, "duration": 99, "velocity": 100}, {"time": 233399, "pitch": 67, "duration": 100, "velocity": 94}, {"time": 233399, "pitch": 79, "duration": 100, "velocity": 94}, {"time": 233519, "pitch": 64, "duration": 99, "velocity": 89}, {"time": 233519, "pitch": 76, "duration": 99, "velocity": 89}, {"time": 233638, "pitch": 67, "duration": 100, "velocity": 92}, {"time": 233638, "pitch": 79, "duration": 100, "velocity": 92}, {"time": 233757, "pitch": 76, "duration": 928, "velocity": 100}, {"time": 233757, "pitch": 88, "duration": 928, "velocity": 100}, {"time": 235203, "pitch": 71, "duration": 99, "velocity": 100}, {"time": 235203, "pitch": 83, "duration": 99, "velocity": 100}, {"time": 235322, "pitch": 67, "duration": 100, "velocity": 94}, {"time": 235322, "pitch": 79, "duration": 100, "velocity": 94}, {"time": 235442, "pitch": 62, "duration": 99, "velocity": 89}, {"time": 235442, "pitch": 74, "duration": 99, "velocity": 89}, {"time": 235561, "pitch": 67, "duration": 100, "velocity": 92}, {"time": 235561, "pitch": 79, "duration": 100, "velocity": 92}, {"time": 235681, "pitch": 74, "duration": 915, "velocity": 100}, {"time": 235681, "pitch": 86, "duration": 915, "velocity": 100}, {"time": 237126, "pitch": 72, "duration": 100, "velocity": 100}, {"time": 237126, "pitch": 84, "duration": 100, "velocity": 100}, {"time": 237245, "pitch": 67, "duration": 100, "velocity": 94}, {"time": 237245, "pitch": 79, "duration": 100, "velocity": 94}, {"time": 237365, "pitch": 64, "duration": 99, "velocity": 89}, {"time": 237365, "pitch": 76, "duration": 99, "velocity": 89}, {"time": 237484, "pitch": 67, "duration": 100, "velocity": 92}, {"time": 237484, "pitch": 79, "duration": 100, "velocity": 92}, {"time": 237604, "pitch": 76, "duration": 915, "velocity": 100}, {"time": 237604, "pitch": 88, "duration": 915, "velocity": 100}, {"time": 239036, "pitch": 71, "duration": 100, "velocity": 100}, {"time": 239036, "pitch": 83, "duration": 100, "velocity": 100}, {"time": 239156, "pitch": 67, "duration": 99, "velocity": 94}, {"time": 239156, "pitch": 79, "duration": 99, "velocity": 94}, {"time": 239275, "pitch": 62, "duration": 99, "velocity": 89}, {"time": 239275, "pitch": 74, "duration": 99, "velocity": 89}, {"time": 239394, "pitch": 67, "duration": 100, "velocity": 92}, {"time": 239394, "pitch": 79, "duration": 100, "velocity": 92}, {"time": 239514, "pitch": 74, "duration": 928, "velocity": 100}, {"time": 239514, "pitch": 86, "duration": 928, "velocity": 100}, {"time": 240482, "pitch": 57, "duration": 119, "velocity": 104}, {"time": 240721, "pitch": 59, "duration": 119, "velocity": 101}, {"time": 240959, "pitch": 60, "duration": 120, "velocity": 103}, {"time": 241198, "pitch": 62, "duration": 119, "velocity": 106}, {"time": 241437, "pitch": 64, "duration": 119, "velocity": 99}, {"time": 241676, "pitch": 66, "duration": 119, "velocity": 104}, {"time": 241914, "pitch": 67, "duration": 123, "velocity": 107}, {"time": 242160, "pitch": 69, "duration": 122, "velocity": 109}, {"time": 242405, "pitch": 71, "duration": 119, "velocity": 102}, {"time": 242644, "pitch": 72, "duration": 119, "velocity": 98}, {"time": 242882, "pitch": 74, "duration": 120, "velocity": 103}, {"time": 243121, "pitch": 76, "duration": 120, "velocity": 106}, {"time": 243360, "pitch": 78, "duration": 119, "velocity": 107}, {"time": 243599, "pitch": 79, "duration": 119, "velocity": 102}, {"time": 243838, "pitch": 81, "duration": 119, "velocity": 104}, {"time": 244076, "pitch": 83, "duration": 120, "velocity": 109}, {"time": 244315, "pitch": 84, "duration": 491, "velocity": 105}, {"time": 244806, "pitch": 83, "duration": 477, "velocity": 102}, {"time": 245283, "pitch": 81, "duration": 478, "velocity": 105}, {"time": 245761, "pitch": 79, "duration": 477, "velocity": 102}, {"time": 246238, "pitch": 77, "duration": 968, "velocity": 101}, {"time": 247206, "pitch": 62, "duration": 448, "velocity": 95}, {"time": 247684, "pitch": 67, "duration": 59, "velocity": 101}, {"time": 247743, "pitch": 66, "duration": 60, "velocity": 98}, {"time": 247803, "pitch": 64, "duration": 60, "velocity": 100}, {"time": 247863, "pitch": 62, "duration": 59, "velocity": 97}, {"time": 247922, "pitch": 60, "duration": 60, "velocity": 99}, {"time": 247982, "pitch": 59, "duration": 60, "velocity": 97}, {"time": 248042, "pitch": 57, "duration": 60, "velocity": 98}, {"time": 248102, "pitch": 55, "duration": 59, "velocity": 94}, {"time": 248161, "pitch": 53, "duration": 60, "velocity": 98}, {"time": 248221, "pitch": 52, "duration": 60, "velocity": 96}, {"time": 248281, "pitch": 50, "duration": 59, "velocity": 97}, {"time": 248340, "pitch": 48, "duration": 60, "velocity": 95}, {"time": 248400, "pitch": 47, "duration": 60, "velocity": 96}, {"time": 248460, "pitch": 45, "duration": 59, "velocity": 94}, {"time": 248519, "pitch": 43, "duration": 60, "velocity": 95}, {"time": 248579, "pitch": 42, "duration": 60, "velocity": 93}], "annotations": [{"time": 293, "annotation": {"number": 7, "value": 100}, "group": "control_change"}, {"time": 314, "annotation": {"number": 11, "value": 100}, "group": "control_change"}, {"time": 335, "annotation": {"number": 10, "value": 64}, "group": "control_change"}, {"time": 356, "annotation": {"number": 91, "value": 40}, "group": "control_change"}, {"time": 377, "annotation": {"number": 93, "value": 0}, "group": "control_change"}, {"time": 397, "annotation": {"number": 101, "value": 0}, "group": "control_change"}, {"time": 418, "annotation": {"number": 100, "value": 0}, "group": "control_change"}, {"time": 439, "annotation": {"number": 6, "value": 12}, "group": "control_change"}, {"time": 460, "annotation": {"number": 101, "value": 127}, "group": "control_change"}, {"time": 483, "annotation": {"number": 100, "value": 127}, "group": "control_change"}, {"time": 52316, "annotation": {"number": 11, "value": 100}, "group": "control_change"}, {"time": 52316, "annotation": {"number": 1, "value": 0}, "group": "control_change"}, {"time": 52356, "annotation": {"number": 1, "value": 3}, "group": "control_change"}, {"time": 52356, "annotation": {"number": 11, "value": 99}, "group": "control_change"}, {"time": 52396, "annotation": {"number": 1, "value": 7}, "group": "control_change"}, {"time": 52396, "annotation": {"number": 11, "value": 98}, "group": "control_change"}, {"time": 52435, "annotation": {"number": 1, "value": 11}, "group": "control_change"}, {"time": 52435, "annotation": {"number": 11, "value": 97}, "group": "control_change"}, {"time": 52475, "annotation": {"number": 1, "value": 14}, "group": "control_change"}, {"time": 52475, "annotation": {"number": 11, "value": 96}, "group": "control_change"}, {"time": 52515, "annotation": {"number": 1, "value": 18}, "group": "control_change"}, {"time": 52515, "annotation": {"number": 11, "value": 95}, "group": "control_change"}, {"time": 52555, "annotation": {"number": 1, "value": 22}, "group": "control_change"}, {"time": 52555, "annotation": {"number": 11, "value": 94}, "group": "control_change"}, {"time": 52595, "annotation": {"number": 1, "value": 26}, "group": "control_change"}, {"time": 52595, "annotation": {"number": 11, "value": 93}, "group": "control_change"}, {"time": 52634, "annotation": {"number": 1, "value": 29}, "group": "control_change"}, {"time": 52634, "annotation": {"number": 11, "value": 92}, "group": "control_change"}, {"time": 52674, "annotation": {"number": 11, "value": 91}, "group": "control_change"}, {"time": 52714, "annotation": {"number": 11, "value": 90}, "group": "control_change"}, {"time": 52754, "annotation": {"number": 11, "value": 89}, "group": "control_change"}, {"time": 52794, "annotation": {"number": 11, "value": 88}, "group": "control_change"}, {"time": 52834, "annotation": {"number": 11, "value": 87}, "group": "control_change"}, {"time": 52875, "annotation": {"number": 11, "value": 86}, "group": "control_change"}, {"time": 52916, "annotation": {"number": 11, "value": 85}, "group": "control_change"}, {"time": 52957, "annotation": {"number": 11, "value": 84}, "group": "control_change"}, {"time": 52998, "annotation": {"number": 11, "value": 83}, "group": "control_change"}, {"time": 53039, "annotation": {"number": 11, "value": 82}, "group": "control_change"}, {"time": 53080, "annotation": {"number": 11, "value": 81}, "group": "control_change"}, {"time": 53121, "annotation": {"number": 11, "value": 80}, "group": "control_change"}, {"time": 53162, "annotation": {"number": 11, "value": 79}, "group": "control_change"}, {"time": 53202, "annotation": {"number": 11, "value": 78}, "group": "control_change"}, {"time": 53243, "annotation": {"number": 11, "value": 77}, "group": "control_change"}, {"time": 53274, "annotation": {"number": 1, "value": 0}, "group": "control_change"}, {"time": 53274, "annotation": {"number": 11, "value": 76}, "group": "control_change"}, {"time": 53284, "annotation": {"number": 11, "value": 84}, "group": "control_change"}, {"time": 53314, "annotation": {"number": 11, "value": 85}, "group": "control_change"}, {"time": 53344, "annotation": {"number": 11, "value": 86}, "group": "control_change"}, {"time": 53374, "annotation": {"number": 11, "value": 87}, "group": "control_change"}, {"time": 53403, "annotation": {"number": 11, "value": 88}, "group": "control_change"}, {"time": 53433, "annotation": {"number": 11, "value": 89}, "group": "control_change"}, {"time": 53463, "annotation": {"number": 11, "value": 90}, "group": "control_change"}, {"time": 53493, "annotation": {"number": 11, "value": 91}, "group": "control_change"}, {"time": 53523, "annotation": {"number": 11, "value": 92}, "group": "control_change"}, {"time": 53553, "annotation": {"number": 11, "value": 93}, "group": "control_change"}, {"time": 53583, "annotation": {"number": 11, "value": 94}, "group": "control_change"}, {"time": 53612, "annotation": {"number": 11, "value": 95}, "group": "control_change"}, {"time": 53642, "annotation": {"number": 11, "value": 96}, "group": "control_change"}, {"time": 53672, "annotation": {"number": 11, "value": 97}, "group": "control_change"}, {"time": 53702, "annotation": {"number": 11, "value": 98}, "group": "control_change"}, {"time": 53732, "annotation": {"number": 11, "value": 99}, "group": "control_change"}, {"time": 53752, "annotation": {"number": 11, "value": 100}, "group": "control_change"}, {"time": 54717, "annotation": {"number": 11, "value": 100}, "group": "control_change"}, {"time": 54747, "annotation": {"number": 11, "value": 99}, "group": "control_change"}, {"time": 54776, "annotation": {"number": 11, "value": 98}, "group": "control_change"}, {"time": 54806, "annotation": {"number": 11, "value": 97}, "group": "control_change"}, {"time": 54836, "annotation": {"number": 11, "value": 96}, "group": "control_change"}, {"time": 54866, "annotation": {"number": 11, "value": 95}, "group": "control_change"}, {"time": 54896, "annotation": {"number": 11, "value": 94}, "group": "control_change"}, {"time": 54926, "annotation": {"number": 11, "value": 93}, "group": "control_change"}, {"time": 54955, "annotation": {"number": 11, "value": 92}, "group": "control_change"}, {"time": 54985, "annotation": {"number": 11, "value": 91}, "group": "control_change"}, {"time": 55015, "annotation": {"number": 11, "value": 90}, "group": "control_change"}, {"time": 55045, "annotation": {"number": 11, "value": 89}, "group": "control_change"}, {"time": 55075, "annotation": {"number": 11, "value": 88}, "group": "control_change"}, {"time": 55105, "annotation": {"number": 11, "value": 87}, "group": "control_change"}, {"time": 55135, "annotation": {"number": 11, "value": 86}, "group": "control_change"}, {"time": 55164, "annotation": {"number": 11, "value": 85}, "group": "control_change"}, {"time": 55184, "annotation": {"number": 11, "value": 84}, "group": "control_change"}, {"time": 55194, "annotation": {"number": 11, "value": 84}, "group": "control_change"}, {"time": 55225, "annotation": {"number": 11, "value": 85}, "group": "control_change"}, {"time": 55255, "annotation": {"number": 11, "value": 86}, "group": "control_change"}, {"time": 55286, "annotation": {"number": 11, "value": 87}, "group": "control_change"}, {"time": 55317, "annotation": {"number": 11, "value": 88}, "group": "control_change"}, {"time": 55347, "annotation": {"number": 11, "value": 89}, "group": "control_change"}, {"time": 55378, "annotation": {"number": 11, "value": 90}, "group": "control_change"}, {"time": 55409, "annotation": {"number": 11, "value": 91}, "group": "control_change"}, {"time": 55439, "annotation": {"number": 11, "value": 92}, "group": "control_change"}, {"time": 55470, "annotation": {"number": 11, "value": 93}, "group": "control_change"}, {"time": 55501, "annotation": {"number": 11, "value": 94}, "group": "control_change"}, {"time": 55532, "annotation": {"number": 11, "value": 95}, "group": "control_change"}, {"time": 55562, "annotation": {"number": 11, "value": 96}, "group": "control_change"}, {"time": 55593, "annotation": {"number": 11, "value": 97}, "group": "control_change"}, {"time": 55624, "annotation": {"number": 11, "value": 98}, "group": "control_change"}, {"time": 55654, "annotation": {"number": 11, "value": 99}, "group": "control_change"}, {"time": 55675, "annotation": {"number": 11, "value": 100}, "group": "control_change"}, {"time": 56640, "annotation": {"number": 11, "value": 100}, "group": "control_change"}, {"time": 56670, "annotation": {"number": 11, "value": 99}, "group": "control_change"}, {"time": 56700, "annotation": {"number": 11, "value": 98}, "group": "control_change"}, {"time": 56729, "annotation": {"number": 11, "value": 97}, "group": "control_change"}, {"time": 56759, "annotation": {"number": 11, "value": 96}, "group": "control_change"}, {"time": 56789, "annotation": {"number": 11, "value": 95}, "group": "control_change"}, {"time": 56819, "annotation": {"number": 11, "value": 94}, "group": "control_change"}, {"time": 56849, "annotation": {"number": 11, "value": 93}, "group": "control_change"}, {"time": 56879, "annotation": {"number": 11, "value": 92}, "group": "control_change"}, {"time": 56908, "annotation": {"number": 11, "value": 91}, "group": "control_change"}, {"time": 56938, "annotation": {"number": 11, "value": 90}, "group": "control_change"}, {"time": 56968, "annotation": {"number": 11, "value": 89}, "group": "control_change"}, {"time": 56998, "annotation": {"number": 11, "value": 88}, "group": "control_change"}, {"time": 57028, "annotation": {"number": 11, "value": 87}, "group": "control_change"}, {"time": 57058, "annotation": {"number": 11, "value": 86}, "group": "control_change"}, {"time": 57088, "annotation": {"number": 11, "value": 85}, "group": "control_change"}, {"time": 57107, "annotation": {"number": 11, "value": 84}, "group": "control_change"}, {"time": 57117, "annotation": {"number": 11, "value": 84}, "group": "control_change"}, {"time": 57127, "annotation": {"number": 11, "value": 86}, "group": "control_change"}, {"time": 57137, "annotation": {"number": 11, "value": 88}, "group": "control_change"}, {"time": 57147, "annotation": {"number": 11, "value": 90}, "group": "control_change"}, {"time": 57157, "annotation": {"number": 11, "value": 93}, "group": "control_change"}, {"time": 57167, "annotation": {"number": 11, "value": 95}, "group": "control_change"}, {"time": 57177, "annotation": {"number": 11, "value": 97}, "group": "control_change"}, {"time": 57187, "annotation": {"number": 11, "value": 100}, "group": "control_change"}, {"time": 139681, "annotation": {"number": 11, "value": 100}, "group": "control_change"}, {"time": 139681, "annotation": {"number": 1, "value": 0}, "group": "control_change"}, {"time": 139721, "annotation": {"number": 1, "value": 3}, "group": "control_change"}, {"time": 139721, "annotation": {"number": 11, "value": 99}, "group": "control_change"}, {"time": 139761, "annotation": {"number": 1, "value": 7}, "group": "control_change"}, {"time": 139761, "annotation": {"number": 11, "value": 98}, "group": "control_change"}, {"time": 139800, "annotation": {"number": 1, "value": 11}, "group": "control_change"}, {"time": 139800, "annotation": {"number": 11, "value": 97}, "group": "control_change"}, {"time": 139840, "annotation": {"number": 1, "value": 14}, "group": "control_change"}, {"time": 139840, "annotation": {"number": 11, "value": 96}, "group": "control_change"}, {"time": 139880, "annotation": {"number": 1, "value": 18}, "group": "control_change"}, {"time": 139880, "annotation": {"number": 11, "value": 95}, "group": "control_change"}, {"time": 139920, "annotation": {"number": 1, "value": 22}, "group": "control_change"}, {"time": 139920, "annotation": {"number": 11, "value": 94}, "group": "control_change"}, {"time": 139960, "annotation": {"number": 1, "value": 26}, "group": "control_change"}, {"time": 139960, "annotation": {"number": 11, "value": 93}, "group": "control_change"}, {"time": 139999, "annotation": {"number": 1, "value": 29}, "group": "control_change"}, {"time": 139999, "annotation": {"number": 11, "value": 92}, "group": "control_change"}, {"time": 140039, "annotation": {"number": 11, "value": 91}, "group": "control_change"}, {"time": 140079, "annotation": {"number": 11, "value": 90}, "group": "control_change"}, {"time": 140119, "annotation": {"number": 11, "value": 89}, "group": "control_change"}, {"time": 140159, "annotation": {"number": 11, "value": 88}, "group": "control_change"}, {"time": 140198, "annotation": {"number": 11, "value": 87}, "group": "control_change"}, {"time": 140238, "annotation": {"number": 11, "value": 86}, "group": "control_change"}, {"time": 140278, "annotation": {"number": 11, "value": 85}, "group": "control_change"}, {"time": 140318, "annotation": {"number": 11, "value": 84}, "group": "control_change"}, {"time": 140358, "annotation": {"number": 11, "value": 83}, "group": "control_change"}, {"time": 140397, "annotation": {"number": 11, "value": 82}, "group": "control_change"}, {"time": 140437, "annotation": {"number": 11, "value": 81}, "group": "control_change"}, {"time": 140477, "annotation": {"number": 11, "value": 80}, "group": "control_change"}, {"time": 140517, "annotation": {"number": 11, "value": 79}, "group": "control_change"}, {"time": 140557, "annotation": {"number": 11, "value": 78}, "group": "control_change"}, {"time": 140596, "annotation": {"number": 11, "value": 77}, "group": "control_change"}, {"time": 140626, "annotation": {"number": 1, "value": 0}, "group": "control_change"}, {"time": 140626, "annotation": {"number": 11, "value": 76}, "group": "control_change"}, {"time": 140636, "annotation": {"number": 11, "value": 84}, "group": "control_change"}, {"time": 140666, "annotation": {"number": 11, "value": 85}, "group": "control_change"}, {"time": 140696, "annotation": {"number": 11, "value": 86}, "group": "control_change"}, {"time": 140726, "annotation": {"number": 11, "value": 87}, "group": "control_change"}, {"time": 140756, "annotation": {"number": 11, "value": 88}, "group": "control_change"}, {"time": 140785, "annotation": {"number": 11, "value": 89}, "group": "control_change"}, {"time": 140815, "annotation": {"number": 11, "value": 90}, "group": "control_change"}, {"time": 140845, "annotation": {"number": 11, "value": 91}, "group": "control_change"}, {"time": 140875, "annotation": {"number": 11, "value": 92}, "group": "control_change"}, {"time": 140905, "annotation": {"number": 11, "value": 93}, "group": "control_change"}, {"time": 140935, "annotation": {"number": 11, "value": 94}, "group": "control_change"}, {"time": 140964, "annotation": {"number": 11, "value": 95}, "group": "control_change"}, {"time": 140994, "annotation": {"number": 11, "value": 96}, "group": "control_change"}, {"time": 141024, "annotation": {"number": 11, "value": 97}, "group": "control_change"}, {"time": 141054, "annotation": {"number": 11, "value": 98}, "group": "control_change"}, {"time": 141084, "annotation": {"number": 11, "value": 99}, "group": "control_change"}, {"time": 141104, "annotation": {"number": 11, "value": 100}, "group": "control_change"}, {"time": 142082, "annotation": {"number": 11, "value": 100}, "group": "control_change"}, {"time": 142112, "annotation": {"number": 11, "value": 99}, "group": "control_change"}, {"time": 142141, "annotation": {"number": 11, "value": 98}, "group": "control_change"}, {"time": 142171, "annotation": {"number": 11, "value": 97}, "group": "control_change"}, {"time": 142201, "annotation": {"number": 11, "value": 96}, "group": "control_change"}, {"time": 142231, "annotation": {"number": 11, "value": 95}, "group": "control_change"}, {"time": 142261, "annotation": {"number": 11, "value": 94}, "group": "control_change"}, {"time": 142291, "annotation": {"number": 11, "value": 93}, "group": "control_change"}, {"time": 142320, "annotation": {"number": 11, "value": 92}, "group": "control_change"}, {"time": 142350, "annotation": {"number": 11, "value": 91}, "group": "control_change"}, {"time": 142380, "annotation": {"number": 11, "value": 90}, "group": "control_change"}, {"time": 142410, "annotation": {"number": 11, "value": 89}, "group": "control_change"}, {"time": 142440, "annotation": {"number": 11, "value": 88}, "group": "control_change"}, {"time": 142470, "annotation": {"number": 11, "value": 87}, "group": "control_change"}, {"time": 142500, "annotation": {"number": 11, "value": 86}, "group": "control_change"}, {"time": 142529, "annotation": {"number": 11, "value": 85}, "group": "control_change"}, {"time": 142549, "annotation": {"number": 11, "value": 84}, "group": "control_change"}, {"time": 142559, "annotation": {"number": 11, "value": 84}, "group": "control_change"}, {"time": 142589, "annotation": {"number": 11, "value": 85}, "group": "control_change"}, {"time": 142619, "annotation": {"number": 11, "value": 86}, "group": "control_change"}, {"time": 142649, "annotation": {"number": 11, "value": 87}, "group": "control_change"}, {"time": 142679, "annotation": {"number": 11, "value": 88}, "group": "control_change"}, {"time": 142708, "annotation": {"number": 11, "value": 89}, "group": "control_change"}, {"time": 142738, "annotation": {"number": 11, "value": 90}, "group": "control_change"}, {"time": 142768, "annotation": {"number": 11, "value": 91}, "group": "control_change"}, {"time": 142798, "annotation": {"number": 11, "value": 92}, "group": "control_change"}, {"time": 142828, "annotation": {"number": 11, "value": 93}, "group": "control_change"}, {"time": 142858, "annotation": {"number": 11, "value": 94}, "group": "control_change"}, {"time": 142888, "annotation": {"number": 11, "value": 95}, "group": "control_change"}, {"time": 142917, "annotation": {"number": 11, "value": 96}, "group": "control_change"}, {"time": 142947, "annotation": {"number": 11, "value": 97}, "group": "control_change"}, {"time": 142977, "annotation": {"number": 11, "value": 98}, "group": "control_change"}, {"time": 143007, "annotation": {"number": 11, "value": 99}, "group": "control_change"}, {"time": 143027, "annotation": {"number": 11, "value": 100}, "group": "control_change"}, {"time": 144005, "annotation": {"number": 11, "value": 100}, "group": "control_change"}, {"time": 144035, "annotation": {"number": 11, "value": 99}, "group": "control_change"}, {"time": 144064, "annotation": {"number": 11, "value": 98}, "group": "control_change"}, {"time": 144094, "annotation": {"number": 11, "value": 97}, "group": "control_change"}, {"time": 144124, "annotation": {"number": 11, "value": 96}, "group": "control_change"}, {"time": 144154, "annotation": {"number": 11, "value": 95}, "group": "control_change"}, {"time": 144184, "annotation": {"number": 11, "value": 94}, "group": "control_change"}, {"time": 144214, "annotation": {"number": 11, "value": 93}, "group": "control_change"}, {"time": 144244, "annotation": {"number": 11, "value": 92}, "group": "control_change"}, {"time": 144273, "annotation": {"number": 11, "value": 91}, "group": "control_change"}, {"time": 144303, "annotation": {"number": 11, "value": 90}, "group": "control_change"}, {"time": 144333, "annotation": {"number": 11, "value": 89}, "group": "control_change"}, {"time": 144363, "annotation": {"number": 11, "value": 88}, "group": "control_change"}, {"time": 144393, "annotation": {"number": 11, "value": 87}, "group": "control_change"}, {"time": 144423, "annotation": {"number": 11, "value": 86}, "group": "control_change"}, {"time": 144452, "annotation": {"number": 11, "value": 85}, "group": "control_change"}, {"time": 144472, "annotation": {"number": 11, "value": 84}, "group": "control_change"}, {"time": 144482, "annotation": {"number": 11, "value": 84}, "group": "control_change"}, {"time": 144492, "annotation": {"number": 11, "value": 86}, "group": "control_change"}, {"time": 144502, "annotation": {"number": 11, "value": 88}, "group": "control_change"}, {"time": 144512, "annotation": {"number": 11, "value": 90}, "group": "control_change"}, {"time": 144522, "annotation": {"number": 11, "value": 93}, "group": "control_change"}, {"time": 144532, "annotation": {"number": 11, "value": 95}, "group": "control_change"}, {"time": 144542, "annotation": {"number": 11, "value": 97}, "group": "control_change"}, {"time": 144552, "annotation": {"number": 11, "value": 100}, "group": "control_change"}, {"time": 204963, "annotation": {"number": 11, "value": 100}, "group": "control_change"}, {"time": 204963, "annotation": {"number": 1, "value": 0}, "group": "control_change"}, {"time": 205003, "annotation": {"number": 1, "value": 3}, "group": "control_change"}, {"time": 205003, "annotation": {"number": 11, "value": 99}, "group": "control_change"}, {"time": 205042, "annotation": {"number": 1, "value": 7}, "group": "control_change"}, {"time": 205042, "annotation": {"number": 11, "value": 98}, "group": "control_change"}, {"time": 205082, "annotation": {"number": 1, "value": 11}, "group": "control_change"}, {"time": 205082, "annotation": {"number": 11, "value": 97}, "group": "control_change"}, {"time": 205122, "annotation": {"number": 1, "value": 14}, "group": "control_change"}, {"time": 205122, "annotation": {"number": 11, "value": 96}, "group": "control_change"}, {"time": 205162, "annotation": {"number": 1, "value": 18}, "group": "control_change"}, {"time": 205162, "annotation": {"number": 11, "value": 95}, "group": "control_change"}, {"time": 205202, "annotation": {"number": 1, "value": 22}, "group": "control_change"}, {"time": 205202, "annotation": {"number": 11, "value": 94}, "group": "control_change"}, {"time": 205241, "annotation": {"number": 1, "value": 26}, "group": "control_change"}, {"time": 205241, "annotation": {"number": 11, "value": 93}, "group": "control_change"}, {"time": 205281, "annotation": {"number": 1, "value": 29}, "group": "control_change"}, {"time": 205281, "annotation": {"number": 11, "value": 92}, "group": "control_change"}, {"time": 205321, "annotation": {"number": 11, "value": 91}, "group": "control_change"}, {"time": 205361, "annotation": {"number": 11, "value": 90}, "group": "control_change"}, {"time": 205401, "annotation": {"number": 11, "value": 89}, "group": "control_change"}, {"time": 205440, "annotation": {"number": 11, "value": 88}, "group": "control_change"}, {"time": 205480, "annotation": {"number": 11, "value": 87}, "group": "control_change"}, {"time": 205520, "annotation": {"number": 11, "value": 86}, "group": "control_change"}, {"time": 205560, "annotation": {"number": 11, "value": 85}, "group": "control_change"}, {"time": 205599, "annotation": {"number": 11, "value": 84}, "group": "control_change"}, {"time": 205639, "annotation": {"number": 11, "value": 83}, "group": "control_change"}, {"time": 205679, "annotation": {"number": 11, "value": 82}, "group": "control_change"}, {"time": 205719, "annotation": {"number": 11, "value": 81}, "group": "control_change"}, {"time": 205759, "annotation": {"number": 11, "value": 80}, "group": "control_change"}, {"time": 205798, "annotation": {"number": 11, "value": 79}, "group": "control_change"}, {"time": 205838, "annotation": {"number": 11, "value": 78}, "group": "control_change"}, {"time": 205878, "annotation": {"number": 11, "value": 77}, "group": "control_change"}, {"time": 205908, "annotation": {"number": 1, "value": 0}, "group": "control_change"}, {"time": 205908, "annotation": {"number": 11, "value": 76}, "group": "control_change"}, {"time": 205918, "annotation": {"number": 11, "value": 84}, "group": "control_change"}, {"time": 205948, "annotation": {"number": 11, "value": 85}, "group": "control_change"}, {"time": 205978, "annotation": {"number": 11, "value": 86}, "group": "control_change"}, {"time": 206007, "annotation": {"number": 11, "value": 87}, "group": "control_change"}, {"time": 206037, "annotation": {"number": 11, "value": 88}, "group": "control_change"}, {"time": 206067, "annotation": {"number": 11, "value": 89}, "group": "control_change"}, {"time": 206097, "annotation": {"number": 11, "value": 90}, "group": "control_change"}, {"time": 206127, "annotation": {"number": 11, "value": 91}, "group": "control_change"}, {"time": 206157, "annotation": {"number": 11, "value": 92}, "group": "control_change"}, {"time": 206186, "annotation": {"number": 11, "value": 93}, "group": "control_change"}, {"time": 206216, "annotation": {"number": 11, "value": 94}, "group": "control_change"}, {"time": 206246, "annotation": {"number": 11, "value": 95}, "group": "control_change"}, {"time": 206276, "annotation": {"number": 11, "value": 96}, "group": "control_change"}, {"time": 206306, "annotation": {"number": 11, "value": 97}, "group": "control_change"}, {"time": 206336, "annotation": {"number": 11, "value": 98}, "group": "control_change"}, {"time": 206366, "annotation": {"number": 11, "value": 99}, "group": "control_change"}, {"time": 206385, "annotation": {"number": 11, "value": 100}, "group": "control_change"}, {"time": 207363, "annotation": {"number": 11, "value": 100}, "group": "control_change"}, {"time": 207393, "annotation": {"number": 11, "value": 99}, "group": "control_change"}, {"time": 207423, "annotation": {"number": 11, "value": 98}, "group": "control_change"}, {"time": 207453, "annotation": {"number": 11, "value": 97}, "group": "control_change"}, {"time": 207483, "annotation": {"number": 11, "value": 96}, "group": "control_change"}, {"time": 207513, "annotation": {"number": 11, "value": 95}, "group": "control_change"}, {"time": 207542, "annotation": {"number": 11, "value": 94}, "group": "control_change"}, {"time": 207572, "annotation": {"number": 11, "value": 93}, "group": "control_change"}, {"time": 207602, "annotation": {"number": 11, "value": 92}, "group": "control_change"}, {"time": 207632, "annotation": {"number": 11, "value": 91}, "group": "control_change"}, {"time": 207662, "annotation": {"number": 11, "value": 90}, "group": "control_change"}, {"time": 207692, "annotation": {"number": 11, "value": 89}, "group": "control_change"}, {"time": 207722, "annotation": {"number": 11, "value": 88}, "group": "control_change"}, {"time": 207751, "annotation": {"number": 11, "value": 87}, "group": "control_change"}, {"time": 207781, "annotation": {"number": 11, "value": 86}, "group": "control_change"}, {"time": 207811, "annotation": {"number": 11, "value": 85}, "group": "control_change"}, {"time": 207831, "annotation": {"number": 11, "value": 84}, "group": "control_change"}, {"time": 207841, "annotation": {"number": 11, "value": 84}, "group": "control_change"}, {"time": 207871, "annotation": {"number": 11, "value": 85}, "group": "control_change"}, {"time": 207901, "annotation": {"number": 11, "value": 86}, "group": "control_change"}, {"time": 207930, "annotation": {"number": 11, "value": 87}, "group": "control_change"}, {"time": 207960, "annotation": {"number": 11, "value": 88}, "group": "control_change"}, {"time": 207990, "annotation": {"number": 11, "value": 89}, "group": "control_change"}, {"time": 208020, "annotation": {"number": 11, "value": 90}, "group": "control_change"}, {"time": 208050, "annotation": {"number": 11, "value": 91}, "group": "control_change"}, {"time": 208080, "annotation": {"number": 11, "value": 92}, "group": "control_change"}, {"time": 208110, "annotation": {"number": 11, "value": 93}, "group": "control_change"}, {"time": 208139, "annotation": {"number": 11, "value": 94}, "group": "control_change"}, {"time": 208169, "annotation": {"number": 11, "value": 95}, "group": "control_change"}, {"time": 208199, "annotation": {"number": 11, "value": 96}, "group": "control_change"}, {"time": 208229, "annotation": {"number": 11, "value": 97}, "group": "control_change"}, {"time": 208259, "annotation": {"number": 11, "value": 98}, "group": "control_change"}, {"time": 208289, "annotation": {"number": 11, "value": 99}, "group": "control_change"}, {"time": 208309, "annotation": {"number": 11, "value": 100}, "group": "control_change"}, {"time": 209274, "annotation": {"number": 11, "value": 100}, "group": "control_change"}, {"time": 209304, "annotation": {"number": 11, "value": 99}, "group": "control_change"}, {"time": 209335, "annotation": {"number": 11, "value": 98}, "group": "control_change"}, {"time": 209365, "annotation": {"number": 11, "value": 97}, "group": "control_change"}, {"time": 209396, "annotation": {"number": 11, "value": 96}, "group": "control_change"}, {"time": 209427, "annotation": {"number": 11, "value": 95}, "group": "control_change"}, {"time": 209457, "annotation": {"number": 11, "value": 94}, "group": "control_change"}, {"time": 209488, "annotation": {"number": 11, "value": 93}, "group": "control_change"}, {"time": 209519, "annotation": {"number": 11, "value": 92}, "group": "control_change"}, {"time": 209549, "annotation": {"number": 11, "value": 91}, "group": "control_change"}, {"time": 209580, "annotation": {"number": 11, "value": 90}, "group": "control_change"}, {"time": 209611, "annotation": {"number": 11, "value": 89}, "group": "control_change"}, {"time": 209641, "annotation": {"number": 11, "value": 88}, "group": "control_change"}, {"time": 209672, "annotation": {"number": 11, "value": 87}, "group": "control_change"}, {"time": 209703, "annotation": {"number": 11, "value": 86}, "group": "control_change"}, {"time": 209733, "annotation": {"number": 11, "value": 85}, "group": "control_change"}, {"time": 209754, "annotation": {"number": 11, "value": 84}, "group": "control_change"}, {"time": 209764, "annotation": {"number": 11, "value": 84}, "group": "control_change"}, {"time": 209774, "annotation": {"number": 11, "value": 86}, "group": "control_change"}, {"time": 209784, "annotation": {"number": 11, "value": 88}, "group": "control_change"}, {"time": 209794, "annotation": {"number": 11, "value": 90}, "group": "control_change"}, {"time": 209804, "annotation": {"number": 11, "value": 93}, "group": "control_change"}, {"time": 209814, "annotation": {"number": 11, "value": 95}, "group": "control_change"}, {"time": 209824, "annotation": {"number": 11, "value": 97}, "group": "control_change"}, {"time": 209834, "annotation": {"number": 11, "value": 100}, "group": "control_change"}]}, {"program": 0, "is_drum": false, "name": "ST 2", "annotations": [{"time": 230, "annotation": {"number": 0, "value": 0}, "group": "control_change"}, {"time": 251, "annotation": {"number": 32, "value": 0}, "group": "control_change"}]}, {"program": 48, "is_drum": false, "name": "ST 2", "notes": [{"time": 61441, "pitch": 71, "duration": 448, "velocity": 90}, {"time": 61919, "pitch": 71, "duration": 447, "velocity": 83}, {"time": 62396, "pitch": 71, "duration": 448, "velocity": 94}, {"time": 62874, "pitch": 69, "duration": 460, "velocity": 86}, {"time": 63364, "pitch": 71, "duration": 448, "velocity": 91}, {"time": 63842, "pitch": 69, "duration": 447, "velocity": 83}, {"time": 64319, "pitch": 71, "duration": 448, "velocity": 92}, {"time": 64797, "pitch": 67, "duration": 1435, "velocity": 83}, {"time": 66242, "pitch": 71, "duration": 458, "velocity": 90}, {"time": 66720, "pitch": 65, "duration": 1903, "velocity": 81}, {"time": 69121, "pitch": 71, "duration": 447, "velocity": 90}, {"time": 69598, "pitch": 71, "duration": 448, "velocity": 83}, {"time": 70076, "pitch": 71, "duration": 460, "velocity": 94}, {"time": 70566, "pitch": 69, "duration": 448, "velocity": 86}, {"time": 71044, "pitch": 71, "duration": 447, "velocity": 91}, {"time": 71521, "pitch": 69, "duration": 448, "velocity": 83}, {"time": 71999, "pitch": 71, "duration": 447, "velocity": 92}, {"time": 72476, "pitch": 67, "duration": 1436, "velocity": 83}, {"time": 73922, "pitch": 71, "duration": 457, "velocity": 90}, {"time": 74399, "pitch": 65, "duration": 945, "velocity": 81}, {"time": 75354, "pitch": 50, "duration": 123, "velocity": 111}, {"time": 75354, "pitch": 62, "duration": 123, "velocity": 101}, {"time": 75600, "pitch": 52, "duration": 122, "velocity": 116}, {"time": 75600, "pitch": 64, "duration": 122, "velocity": 106}, {"time": 75845, "pitch": 53, "duration": 119, "velocity": 113}, {"time": 75845, "pitch": 65, "duration": 119, "velocity": 103}, {"time": 76084, "pitch": 55, "duration": 119, "velocity": 116}, {"time": 76084, "pitch": 67, "duration": 119, "velocity": 106}, {"time": 84002, "pitch": 45, "duration": 119, "velocity": 104}, {"time": 84241, "pitch": 47, "duration": 119, "velocity": 101}, {"time": 84479, "pitch": 48, "duration": 120, "velocity": 103}, {"time": 84718, "pitch": 50, "duration": 120, "velocity": 106}, {"time": 84957, "pitch": 52, "duration": 119, "velocity": 99}, {"time": 85196, "pitch": 54, "duration": 119, "velocity": 104}, {"time": 85434, "pitch": 55, "duration": 123, "velocity": 107}, {"time": 85680, "pitch": 57, "duration": 122, "velocity": 109}, {"time": 85925, "pitch": 59, "duration": 119, "velocity": 102}, {"time": 86164, "pitch": 60, "duration": 119, "velocity": 98}, {"time": 86403, "pitch": 62, "duration": 119, "velocity": 103}, {"time": 86641, "pitch": 64, "duration": 120, "velocity": 106}, {"time": 86880, "pitch": 66, "duration": 119, "velocity": 107}, {"time": 87119, "pitch": 67, "duration": 119, "velocity": 102}, {"time": 87358, "pitch": 69, "duration": 119, "velocity": 104}, {"time": 87596, "pitch": 71, "duration": 120, "velocity": 109}, {"time": 87835, "pitch": 69, "duration": 491, "velocity": 105}, {"time": 88326, "pitch": 67, "duration": 477, "velocity": 102}, {"time": 88803, "pitch": 65, "duration": 478, "velocity": 105}, {"time": 89281, "pitch": 72, "duration": 477, "velocity": 102}, {"time": 89758, "pitch": 69, "duration": 928, "velocity": 101}, {"time": 90726, "pitch": 71, "duration": 448, "velocity": 96}, {"time": 148806, "pitch": 71, "duration": 448, "velocity": 90}, {"time": 149284, "pitch": 71, "duration": 447, "velocity": 83}, {"time": 149761, "pitch": 71, "duration": 448, "velocity": 94}, {"time": 150239, "pitch": 69, "duration": 447, "velocity": 86}, {"time": 150716, "pitch": 71, "duration": 448, "velocity": 91}, {"time": 151194, "pitch": 69, "duration": 460, "velocity": 83}, {"time": 151684, "pitch": 71, "duration": 448, "velocity": 92}, {"time": 152162, "pitch": 67, "duration": 1422, "velocity": 83}, {"time": 153594, "pitch": 71, "duration": 471, "velocity": 90}, {"time": 154085, "pitch": 65, "duration": 1890, "velocity": 81}, {"time": 156486, "pitch": 71, "duration": 447, "velocity": 90}, {"time": 156963, "pitch": 71, "duration": 448, "velocity": 83}, {"time": 157441, "pitch": 71, "duration": 447, "velocity": 94}, {"time": 157918, "pitch": 69, "duration": 448, "velocity": 86}, {"time": 158396, "pitch": 71, "duration": 460, "velocity": 91}, {"time": 158886, "pitch": 69, "duration": 448, "velocity": 83}, {"time": 159364, "pitch": 71, "duration": 447, "velocity": 92}, {"time": 159841, "pitch": 67, "duration": 1423, "velocity": 83}, {"time": 161274, "pitch": 71, "duration": 470, "velocity": 90}, {"time": 161764, "pitch": 65, "duration": 945, "velocity": 81}, {"time": 162719, "pitch": 50, "duration": 120, "velocity": 111}, {"time": 162719, "pitch": 62, "duration": 120, "velocity": 101}, {"time": 162958, "pitch": 52, "duration": 120, "velocity": 116}, {"time": 162958, "pitch": 64, "duration": 120, "velocity": 106}, {"time": 163197, "pitch": 53, "duration": 119, "velocity": 113}, {"time": 163197, "pitch": 65, "duration": 119, "velocity": 103}, {"time": 163436, "pitch": 55, "duration": 119, "velocity": 116}, {"time": 163436, "pitch": 67, "duration": 119, "velocity": 106}, {"time": 171354, "pitch": 45, "duration": 122, "velocity": 104}, {"time": 171599, "pitch": 47, "duration": 123, "velocity": 101}, {"time": 171844, "pitch": 48, "duration": 120, "velocity": 103}, {"time": 172083, "pitch": 50, "duration": 120, "velocity": 106}, {"time": 172322, "pitch": 52, "duration": 119, "velocity": 99}, {"time": 172561, "pitch": 54, "duration": 119, "velocity": 104}, {"time": 172799, "pitch": 55, "duration": 120, "velocity": 107}, {"time": 173038, "pitch": 57, "duration": 120, "velocity": 109}, {"time": 173277, "pitch": 59, "duration": 119, "velocity": 102}, {"time": 173516, "pitch": 60, "duration": 119, "velocity": 98}, {"time": 173755, "pitch": 62, "duration": 122, "velocity": 103}, {"time": 174000, "pitch": 64, "duration": 122, "velocity": 106}, {"time": 174245, "pitch": 66, "duration": 119, "velocity": 107}, {"time": 174484, "pitch": 67, "duration": 119, "velocity": 102}, {"time": 174723, "pitch": 69, "duration": 119, "velocity": 104}, {"time": 174961, "pitch": 71, "duration": 120, "velocity": 109}, {"time": 175200, "pitch": 69, "duration": 478, "velocity": 105}, {"time": 175678, "pitch": 67, "duration": 477, "velocity": 102}, {"time": 176155, "pitch": 65, "duration": 491, "velocity": 105}, {"time": 176646, "pitch": 72, "duration": 477, "velocity": 102}, {"time": 177123, "pitch": 69, "duration": 915, "velocity": 101}, {"time": 178078, "pitch": 71, "duration": 448, "velocity": 96}, {"time": 179046, "pitch": 64, "duration": 90, "velocity": 93}, {"time": 179285, "pitch": 64, "duration": 90, "velocity": 87}, {"time": 179524, "pitch": 64, "duration": 89, "velocity": 91}, {"time": 179763, "pitch": 64, "duration": 89, "velocity": 87}, {"time": 180001, "pitch": 64, "duration": 90, "velocity": 90}, {"time": 180240, "pitch": 64, "duration": 90, "velocity": 86}, {"time": 180479, "pitch": 64, "duration": 89, "velocity": 91}, {"time": 180718, "pitch": 64, "duration": 89, "velocity": 87}, {"time": 180956, "pitch": 63, "duration": 90, "velocity": 93}, {"time": 181195, "pitch": 63, "duration": 90, "velocity": 87}, {"time": 181434, "pitch": 63, "duration": 92, "velocity": 91}, {"time": 181679, "pitch": 63, "duration": 92, "velocity": 87}, {"time": 181924, "pitch": 63, "duration": 90, "velocity": 90}, {"time": 182163, "pitch": 63, "duration": 90, "velocity": 86}, {"time": 182402, "pitch": 63, "duration": 90, "velocity": 91}, {"time": 182641, "pitch": 63, "duration": 89, "velocity": 87}, {"time": 182880, "pitch": 62, "duration": 89, "velocity": 93}, {"time": 183118, "pitch": 62, "duration": 90, "velocity": 87}, {"time": 183357, "pitch": 62, "duration": 90, "velocity": 91}, {"time": 183596, "pitch": 62, "duration": 89, "velocity": 87}, {"time": 183835, "pitch": 62, "duration": 91, "velocity": 90}, {"time": 184080, "pitch": 62, "duration": 92, "velocity": 86}, {"time": 184325, "pitch": 62, "duration": 90, "velocity": 91}, {"time": 184564, "pitch": 62, "duration": 89, "velocity": 87}, {"time": 184803, "pitch": 60, "duration": 89, "velocity": 93}, {"time": 185041, "pitch": 60, "duration": 90, "velocity": 87}, {"time": 185280, "pitch": 60, "duration": 90, "velocity": 91}, {"time": 185519, "pitch": 60, "duration": 89, "velocity": 87}, {"time": 185758, "pitch": 61, "duration": 89, "velocity": 90}, {"time": 185996, "pitch": 61, "duration": 90, "velocity": 86}, {"time": 186235, "pitch": 62, "duration": 92, "velocity": 91}, {"time": 186480, "pitch": 62, "duration": 93, "velocity": 87}, {"time": 186726, "pitch": 63, "duration": 477, "velocity": 88}, {"time": 187203, "pitch": 58, "duration": 478, "velocity": 83}, {"time": 187681, "pitch": 70, "duration": 477, "velocity": 89}, {"time": 188158, "pitch": 68, "duration": 478, "velocity": 86}, {"time": 188636, "pitch": 67, "duration": 490, "velocity": 85}, {"time": 189126, "pitch": 63, "duration": 478, "velocity": 79}, {"time": 189604, "pitch": 58, "duration": 477, "velocity": 76}, {"time": 190081, "pitch": 63, "duration": 478, "velocity": 85}, {"time": 190559, "pitch": 62, "duration": 477, "velocity": 88}, {"time": 191036, "pitch": 57, "duration": 478, "velocity": 83}, {"time": 191514, "pitch": 69, "duration": 491, "velocity": 89}, {"time": 192005, "pitch": 67, "duration": 477, "velocity": 86}, {"time": 192482, "pitch": 66, "duration": 478, "velocity": 84}, {"time": 192960, "pitch": 62, "duration": 477, "velocity": 80}, {"time": 193437, "pitch": 57, "duration": 478, "velocity": 85}, {"time": 193915, "pitch": 69, "duration": 2380, "velocity": 90}, {"time": 217921, "pitch": 71, "duration": 448, "velocity": 90}, {"time": 218399, "pitch": 71, "duration": 447, "velocity": 83}, {"time": 218876, "pitch": 71, "duration": 448, "velocity": 94}, {"time": 219354, "pitch": 69, "duration": 460, "velocity": 86}, {"time": 219844, "pitch": 71, "duration": 448, "velocity": 91}, {"time": 220322, "pitch": 69, "duration": 447, "velocity": 83}, {"time": 220799, "pitch": 71, "duration": 448, "velocity": 92}, {"time": 221277, "pitch": 67, "duration": 1435, "velocity": 83}, {"time": 222722, "pitch": 71, "duration": 458, "velocity": 90}, {"time": 223200, "pitch": 65, "duration": 1903, "velocity": 81}, {"time": 225600, "pitch": 71, "duration": 448, "velocity": 90}, {"time": 226078, "pitch": 71, "duration": 448, "velocity": 83}, {"time": 226556, "pitch": 71, "duration": 460, "velocity": 94}, {"time": 227046, "pitch": 69, "duration": 448, "velocity": 86}, {"time": 227524, "pitch": 71, "duration": 447, "velocity": 91}, {"time": 228001, "pitch": 69, "duration": 448, "velocity": 83}, {"time": 228479, "pitch": 71, "duration": 447, "velocity": 92}, {"time": 228956, "pitch": 67, "duration": 1436, "velocity": 83}, {"time": 230402, "pitch": 71, "duration": 457, "velocity": 90}, {"time": 230879, "pitch": 65, "duration": 945, "velocity": 81}, {"time": 231834, "pitch": 50, "duration": 123, "velocity": 111}, {"time": 231834, "pitch": 62, "duration": 123, "velocity": 101}, {"time": 232080, "pitch": 52, "duration": 122, "velocity": 116}, {"time": 232080, "pitch": 64, "duration": 122, "velocity": 106}, {"time": 232325, "pitch": 53, "duration": 119, "velocity": 113}, {"time": 232325, "pitch": 65, "duration": 119, "velocity": 103}, {"time": 232564, "pitch": 55, "duration": 119, "velocity": 116}, {"time": 232564, "pitch": 67, "duration": 119, "velocity": 106}, {"time": 240482, "pitch": 45, "duration": 119, "velocity": 104}, {"time": 240721, "pitch": 47, "duration": 119, "velocity": 101}, {"time": 240959, "pitch": 48, "duration": 120, "velocity": 103}, {"time": 241198, "pitch": 50, "duration": 119, "velocity": 106}, {"time": 241437, "pitch": 52, "duration": 119, "velocity": 99}, {"time": 241676, "pitch": 54, "duration": 119, "velocity": 104}, {"time": 241914, "pitch": 55, "duration": 123, "velocity": 107}, {"time": 242160, "pitch": 57, "duration": 122, "velocity": 109}, {"time": 242405, "pitch": 59, "duration": 119, "velocity": 102}, {"time": 242644, "pitch": 60, "duration": 119, "velocity": 98}, {"time": 242882, "pitch": 62, "duration": 120, "velocity": 103}, {"time": 243121, "pitch": 64, "duration": 120, "velocity": 106}, {"time": 243360, "pitch": 66, "duration": 119, "velocity": 107}, {"time": 243599, "pitch": 67, "duration": 119, "velocity": 102}, {"time": 243838, "pitch": 69, "duration": 119, "velocity": 104}, {"time": 244076, "pitch": 71, "duration": 120, "velocity": 109}, {"time": 244315, "pitch": 69, "duration": 491, "velocity": 105}, {"time": 244806, "pitch": 67, "duration": 477, "velocity": 102}, {"time": 245283, "pitch": 65, "duration": 478, "velocity": 105}, {"time": 245761, "pitch": 72, "duration": 477, "velocity": 102}, {"time": 246238, "pitch": 69, "duration": 927, "velocity": 101}, {"time": 247206, "pitch": 71, "duration": 448, "velocity": 96}], "annotations": [{"time": 293, "annotation": {"number": 7, "value": 100}, "group": "control_change"}, {"time": 314, "annotation": {"number": 11, "value": 100}, "group": "control_change"}, {"time": 335, "annotation": {"number": 10, "value": 64}, "group": "control_change"}, {"time": 356, "annotation": {"number": 91, "value": 10}, "group": "control_change"}, {"time": 377, "annotation": {"number": 93, "value": 0}, "group": "control_change"}, {"time": 397, "annotation": {"number": 101, "value": 0}, "group": "control_change"}, {"time": 418, "annotation": {"number": 100, "value": 0}, "group": "control_change"}, {"time": 439, "annotation": {"number": 6, "value": 12}, "group": "control_change"}, {"time": 460, "annotation": {"number": 101, "value": 127}, "group": "control_change"}, {"time": 483, "annotation": {"number": 100, "value": 127}, "group": "control_change"}, {"time": 186726, "annotation": {"number": 11, "value": 96}, "group": "control_change"}, {"time": 186756, "annotation": {"number": 11, "value": 106}, "group": "control_change"}, {"time": 186785, "annotation": {"number": 11, "value": 112}, "group": "control_change"}, {"time": 186815, "annotation": {"number": 11, "value": 117}, "group": "control_change"}, {"time": 186845, "annotation": {"number": 11, "value": 120}, "group": "control_change"}, {"time": 186875, "annotation": {"number": 11, "value": 122}, "group": "control_change"}, {"time": 186905, "annotation": {"number": 11, "value": 124}, "group": "control_change"}, {"time": 186935, "annotation": {"number": 11, "value": 125}, "group": "control_change"}, {"time": 186964, "annotation": {"number": 11, "value": 126}, "group": "control_change"}, {"time": 187024, "annotation": {"number": 11, "value": 127}, "group": "control_change"}, {"time": 194405, "annotation": {"number": 11, "value": 127}, "group": "control_change"}, {"time": 194793, "annotation": {"number": 11, "value": 126}, "group": "control_change"}, {"time": 195032, "annotation": {"number": 11, "value": 125}, "group": "control_change"}, {"time": 195151, "annotation": {"number": 11, "value": 124}, "group": "control_change"}, {"time": 195241, "annotation": {"number": 11, "value": 123}, "group": "control_change"}, {"time": 195330, "annotation": {"number": 11, "value": 122}, "group": "control_change"}, {"time": 195390, "annotation": {"number": 11, "value": 121}, "group": "control_change"}, {"time": 195450, "annotation": {"number": 11, "value": 120}, "group": "control_change"}, {"time": 195480, "annotation": {"number": 11, "value": 119}, "group": "control_change"}, {"time": 195539, "annotation": {"number": 11, "value": 118}, "group": "control_change"}, {"time": 195569, "annotation": {"number": 11, "value": 117}, "group": "control_change"}, {"time": 195599, "annotation": {"number": 11, "value": 116}, "group": "control_change"}, {"time": 195629, "annotation": {"number": 11, "value": 115}, "group": "control_change"}, {"time": 195659, "annotation": {"number": 11, "value": 113}, "group": "control_change"}, {"time": 195689, "annotation": {"number": 11, "value": 112}, "group": "control_change"}, {"time": 195718, "annotation": {"number": 11, "value": 111}, "group": "control_change"}, {"time": 195748, "annotation": {"number": 11, "value": 109}, "group": "control_change"}, {"time": 195778, "annotation": {"number": 11, "value": 107}, "group": "control_change"}, {"time": 195808, "annotation": {"number": 11, "value": 105}, "group": "control_change"}, {"time": 195838, "annotation": {"number": 11, "value": 103}, "group": "control_change"}, {"time": 195868, "annotation": {"number": 11, "value": 101}, "group": "control_change"}, {"time": 195897, "annotation": {"number": 11, "value": 98}, "group": "control_change"}, {"time": 195927, "annotation": {"number": 11, "value": 96}, "group": "control_change"}, {"time": 195957, "annotation": {"number": 11, "value": 92}, "group": "control_change"}, {"time": 195987, "annotation": {"number": 11, "value": 89}, "group": "control_change"}, {"time": 196017, "annotation": {"number": 11, "value": 86}, "group": "control_change"}, {"time": 196047, "annotation": {"number": 11, "value": 81}, "group": "control_change"}, {"time": 196077, "annotation": {"number": 11, "value": 77}, "group": "control_change"}, {"time": 196106, "annotation": {"number": 11, "value": 72}, "group": "control_change"}, {"time": 196136, "annotation": {"number": 11, "value": 67}, "group": "control_change"}, {"time": 196166, "annotation": {"number": 11, "value": 62}, "group": "control_change"}, {"time": 196196, "annotation": {"number": 11, "value": 56}, "group": "control_change"}, {"time": 196226, "annotation": {"number": 11, "value": 50}, "group": "control_change"}, {"time": 196256, "annotation": {"number": 11, "value": 40}, "group": "control_change"}, {"time": 217901, "annotation": {"number": 11, "value": 127}, "group": "control_change"}]}, {"program": 0, "is_drum": false, "name": "M.TRUMPET", "annotations": [{"time": 230, "annotation": {"number": 0, "value": 0}, "group": "control_change"}, {"time": 251, "annotation": {"number": 32, "value": 0}, "group": "control_change"}]}, {"program": 59, "is_drum": false, "name": "M.TRUMPET", "notes": [{"time": 59996, "pitch": 78, "duration": 91, "velocity": 117}, {"time": 60118, "pitch": 74, "duration": 92, "velocity": 113}, {"time": 60241, "pitch": 69, "duration": 92, "velocity": 110}, {"time": 60363, "pitch": 74, "duration": 82, "velocity": 112}, {"time": 60486, "pitch": 81, "duration": 448, "velocity": 119}, {"time": 147360, "pitch": 78, "duration": 90, "velocity": 117}, {"time": 147480, "pitch": 74, "duration": 89, "velocity": 113}, {"time": 147599, "pitch": 69, "duration": 90, "velocity": 110}, {"time": 147719, "pitch": 74, "duration": 79, "velocity": 112}, {"time": 147838, "pitch": 81, "duration": 448, "velocity": 119}, {"time": 216475, "pitch": 78, "duration": 92, "velocity": 117}, {"time": 216598, "pitch": 74, "duration": 92, "velocity": 113}, {"time": 216721, "pitch": 69, "duration": 92, "velocity": 110}, {"time": 216843, "pitch": 74, "duration": 82, "velocity": 112}, {"time": 216966, "pitch": 81, "duration": 448, "velocity": 119}], "annotations": [{"time": 293, "annotation": {"number": 7, "value": 115}, "group": "control_change"}, {"time": 314, "annotation": {"number": 11, "value": 127}, "group": "control_change"}, {"time": 335, "annotation": {"number": 10, "value": 94}, "group": "control_change"}, {"time": 356, "annotation": {"number": 91, "value": 10}, "group": "control_change"}, {"time": 377, "annotation": {"number": 93, "value": 0}, "group": "control_change"}, {"time": 397, "annotation": {"number": 101, "value": 0}, "group": "control_change"}, {"time": 418, "annotation": {"number": 100, "value": 0}, "group": "control_change"}, {"time": 439, "annotation": {"number": 6, "value": 12}, "group": "control_change"}, {"time": 460, "annotation": {"number": 101, "value": 127}, "group": "control_change"}, {"time": 483, "annotation": {"number": 100, "value": 127}, "group": "control_change"}]}, {"program": 0, "is_drum": true, "name": "DRUMS", "notes": [{"time": 483, "pitch": 35, "duration": 10, "velocity": 93}, {"time": 483, "pitch": 42, "duration": 10, "velocity": 87}, {"time": 602, "pitch": 35, "duration": 10, "velocity": 83}, {"time": 602, "pitch": 42, "duration": 10, "velocity": 57}, {"time": 722, "pitch": 35, "duration": 10, "velocity": 103}, {"time": 722, "pitch": 42, "duration": 10, "velocity": 94}, {"time": 841, "pitch": 35, "duration": 10, "velocity": 99}, {"time": 841, "pitch": 42, "duration": 10, "velocity": 67}, {"time": 961, "pitch": 54, "duration": 10, "velocity": 119}, {"time": 1199, "pitch": 54, "duration": 10, "velocity": 99}, {"time": 1438, "pitch": 38, "duration": 10, "velocity": 120}, {"time": 1677, "pitch": 35, "duration": 10, "velocity": 120}, {"time": 1916, "pitch": 39, "duration": 10, "velocity": 120}, {"time": 2161, "pitch": 39, "duration": 10, "velocity": 120}, {"time": 2406, "pitch": 35, "duration": 10, "velocity": 93}, {"time": 2406, "pitch": 42, "duration": 10, "velocity": 87}, {"time": 2526, "pitch": 35, "duration": 10, "velocity": 83}, {"time": 2526, "pitch": 42, "duration": 10, "velocity": 57}, {"time": 2645, "pitch": 35, "duration": 10, "velocity": 103}, {"time": 2645, "pitch": 42, "duration": 10, "velocity": 94}, {"time": 2764, "pitch": 35, "duration": 10, "velocity": 99}, {"time": 2764, "pitch": 42, "duration": 10, "velocity": 67}, {"time": 2884, "pitch": 54, "duration": 10, "velocity": 119}, {"time": 3123, "pitch": 54, "duration": 9, "velocity": 99}, {"time": 3361, "pitch": 38, "duration": 10, "velocity": 120}, {"time": 3600, "pitch": 35, "duration": 10, "velocity": 120}, {"time": 3600, "pitch": 38, "duration": 10, "velocity": 101}, {"time": 3719, "pitch": 38, "duration": 10, "velocity": 50}, {"time": 3839, "pitch": 38, "duration": 10, "velocity": 96}, {"time": 3839, "pitch": 39, "duration": 10, "velocity": 120}, {"time": 3958, "pitch": 38, "duration": 10, "velocity": 45}, {"time": 4078, "pitch": 38, "duration": 10, "velocity": 100}, {"time": 4078, "pitch": 39, "duration": 10, "velocity": 120}, {"time": 4197, "pitch": 38, "duration": 10, "velocity": 78}, {"time": 4316, "pitch": 36, "duration": 10, "velocity": 100}, {"time": 4316, "pitch": 57, "duration": 10, "velocity": 87}, {"time": 4555, "pitch": 36, "duration": 10, "velocity": 87}, {"time": 4555, "pitch": 42, "duration": 10, "velocity": 57}, {"time": 4794, "pitch": 38, "duration": 10, "velocity": 100}, {"time": 4794, "pitch": 42, "duration": 10, "velocity": 80}, {"time": 5039, "pitch": 36, "duration": 10, "velocity": 79}, {"time": 5039, "pitch": 42, "duration": 10, "velocity": 54}, {"time": 5284, "pitch": 38, "duration": 10, "velocity": 100}, {"time": 5284, "pitch": 42, "duration": 10, "velocity": 84}, {"time": 5523, "pitch": 42, "duration": 10, "velocity": 57}, {"time": 5762, "pitch": 36, "duration": 10, "velocity": 100}, {"time": 5762, "pitch": 42, "duration": 10, "velocity": 80}, {"time": 6001, "pitch": 36, "duration": 10, "velocity": 90}, {"time": 6001, "pitch": 42, "duration": 10, "velocity": 54}, {"time": 6239, "pitch": 38, "duration": 10, "velocity": 100}, {"time": 6239, "pitch": 42, "duration": 10, "velocity": 80}, {"time": 6478, "pitch": 36, "duration": 10, "velocity": 79}, {"time": 6478, "pitch": 42, "duration": 10, "velocity": 54}, {"time": 6717, "pitch": 38, "duration": 10, "velocity": 100}, {"time": 6717, "pitch": 42, "duration": 10, "velocity": 84}, {"time": 6956, "pitch": 42, "duration": 10, "velocity": 57}, {"time": 7195, "pitch": 36, "duration": 10, "velocity": 100}, {"time": 7195, "pitch": 42, "duration": 10, "velocity": 80}, {"time": 7440, "pitch": 36, "duration": 10, "velocity": 90}, {"time": 7440, "pitch": 42, "duration": 10, "velocity": 54}, {"time": 7685, "pitch": 38, "duration": 10, "velocity": 100}, {"time": 7685, "pitch": 42, "duration": 10, "velocity": 80}, {"time": 7924, "pitch": 36, "duration": 10, "velocity": 79}, {"time": 7924, "pitch": 42, "duration": 10, "velocity": 54}, {"time": 8163, "pitch": 38, "duration": 9, "velocity": 100}, {"time": 8163, "pitch": 42, "duration": 9, "velocity": 84}, {"time": 8401, "pitch": 42, "duration": 10, "velocity": 57}, {"time": 8640, "pitch": 36, "duration": 10, "velocity": 100}, {"time": 8640, "pitch": 42, "duration": 10, "velocity": 80}, {"time": 8879, "pitch": 36, "duration": 10, "velocity": 90}, {"time": 8879, "pitch": 42, "duration": 10, "velocity": 54}, {"time": 9118, "pitch": 38, "duration": 10, "velocity": 100}, {"time": 9118, "pitch": 42, "duration": 10, "velocity": 80}, {"time": 9356, "pitch": 36, "duration": 10, "velocity": 79}, {"time": 9356, "pitch": 42, "duration": 10, "velocity": 54}, {"time": 9595, "pitch": 38, "duration": 10, "velocity": 100}, {"time": 9595, "pitch": 42, "duration": 10, "velocity": 84}, {"time": 9840, "pitch": 36, "duration": 11, "velocity": 81}, {"time": 9840, "pitch": 42, "duration": 11, "velocity": 57}, {"time": 10086, "pitch": 36, "duration": 10, "velocity": 100}, {"time": 10086, "pitch": 57, "duration": 10, "velocity": 87}, {"time": 10324, "pitch": 36, "duration": 10, "velocity": 87}, {"time": 10324, "pitch": 42, "duration": 10, "velocity": 57}, {"time": 10563, "pitch": 38, "duration": 10, "velocity": 100}, {"time": 10563, "pitch": 42, "duration": 10, "velocity": 80}, {"time": 10802, "pitch": 36, "duration": 10, "velocity": 79}, {"time": 10802, "pitch": 42, "duration": 10, "velocity": 54}, {"time": 11041, "pitch": 38, "duration": 10, "velocity": 100}, {"time": 11041, "pitch": 42, "duration": 10, "velocity": 84}, {"time": 11279, "pitch": 42, "duration": 10, "velocity": 57}, {"time": 11518, "pitch": 36, "duration": 10, "velocity": 100}, {"time": 11518, "pitch": 42, "duration": 10, "velocity": 80}, {"time": 11757, "pitch": 36, "duration": 10, "velocity": 90}, {"time": 11757, "pitch": 42, "duration": 10, "velocity": 54}, {"time": 11996, "pitch": 38, "duration": 10, "velocity": 100}, {"time": 11996, "pitch": 42, "duration": 10, "velocity": 80}, {"time": 12241, "pitch": 36, "duration": 10, "velocity": 79}, {"time": 12241, "pitch": 42, "duration": 10, "velocity": 54}, {"time": 12486, "pitch": 38, "duration": 10, "velocity": 100}, {"time": 12486, "pitch": 42, "duration": 10, "velocity": 84}, {"time": 12725, "pitch": 42, "duration": 10, "velocity": 57}, {"time": 12964, "pitch": 36, "duration": 10, "velocity": 100}, {"time": 12964, "pitch": 42, "duration": 10, "velocity": 80}, {"time": 13203, "pitch": 36, "duration": 10, "velocity": 90}, {"time": 13203, "pitch": 42, "duration": 10, "velocity": 54}, {"time": 13441, "pitch": 38, "duration": 10, "velocity": 100}, {"time": 13441, "pitch": 42, "duration": 10, "velocity": 80}, {"time": 13680, "pitch": 36, "duration": 10, "velocity": 79}, {"time": 13680, "pitch": 42, "duration": 10, "velocity": 54}, {"time": 13919, "pitch": 38, "duration": 10, "velocity": 100}, {"time": 13919, "pitch": 42, "duration": 10, "velocity": 84}, {"time": 14158, "pitch": 42, "duration": 10, "velocity": 57}, {"time": 14396, "pitch": 36, "duration": 10, "velocity": 100}, {"time": 14396, "pitch": 42, "duration": 10, "velocity": 80}, {"time": 14635, "pitch": 36, "duration": 10, "velocity": 90}, {"time": 14635, "pitch": 42, "duration": 10, "velocity": 54}, {"time": 14874, "pitch": 38, "duration": 10, "velocity": 100}, {"time": 14874, "pitch": 42, "duration": 10, "velocity": 80}, {"time": 15119, "pitch": 36, "duration": 10, "velocity": 79}, {"time": 15119, "pitch": 42, "duration": 10, "velocity": 54}, {"time": 15364, "pitch": 38, "duration": 10, "velocity": 100}, {"time": 15364, "pitch": 42, "duration": 10, "velocity": 84}, {"time": 15603, "pitch": 36, "duration": 10, "velocity": 81}, {"time": 15603, "pitch": 42, "duration": 10, "velocity": 57}, {"time": 15842, "pitch": 36, "duration": 10, "velocity": 100}, {"time": 15842, "pitch": 42, "duration": 10, "velocity": 80}, {"time": 16081, "pitch": 42, "duration": 10, "velocity": 56}, {"time": 16320, "pitch": 42, "duration": 9, "velocity": 77}, {"time": 16558, "pitch": 42, "duration": 10, "velocity": 54}, {"time": 16797, "pitch": 37, "duration": 10, "velocity": 100}, {"time": 16797, "pitch": 42, "duration": 10, "velocity": 80}, {"time": 16916, "pitch": 42, "duration": 10, "velocity": 60}, {"time": 17036, "pitch": 42, "duration": 10, "velocity": 40}, {"time": 17155, "pitch": 42, "duration": 10, "velocity": 30}, {"time": 17275, "pitch": 42, "duration": 10, "velocity": 60}, {"time": 17520, "pitch": 36, "duration": 10, "velocity": 69}, {"time": 17520, "pitch": 42, "duration": 10, "velocity": 80}, {"time": 17765, "pitch": 36, "duration": 10, "velocity": 90}, {"time": 17765, "pitch": 42, "duration": 10, "velocity": 60}, {"time": 18004, "pitch": 36, "duration": 10, "velocity": 100}, {"time": 18004, "pitch": 42, "duration": 10, "velocity": 80}, {"time": 18243, "pitch": 42, "duration": 10, "velocity": 60}, {"time": 18481, "pitch": 36, "duration": 10, "velocity": 90}, {"time": 18481, "pitch": 42, "duration": 10, "velocity": 80}, {"time": 18720, "pitch": 42, "duration": 10, "velocity": 60}, {"time": 18959, "pitch": 37, "duration": 10, "velocity": 100}, {"time": 18959, "pitch": 42, "duration": 10, "velocity": 80}, {"time": 19198, "pitch": 42, "duration": 10, "velocity": 60}, {"time": 19436, "pitch": 36, "duration": 10, "velocity": 90}, {"time": 19436, "pitch": 42, "duration": 10, "velocity": 60}, {"time": 19675, "pitch": 36, "duration": 10, "velocity": 100}, {"time": 19675, "pitch": 42, "duration": 10, "velocity": 80}, {"time": 19920, "pitch": 42, "duration": 11, "velocity": 56}, {"time": 20166, "pitch": 42, "duration": 10, "velocity": 77}, {"time": 20404, "pitch": 42, "duration": 10, "velocity": 54}, {"time": 20643, "pitch": 37, "duration": 10, "velocity": 100}, {"time": 20643, "pitch": 42, "duration": 10, "velocity": 80}, {"time": 20763, "pitch": 42, "duration": 10, "velocity": 60}, {"time": 20882, "pitch": 42, "duration": 10, "velocity": 40}, {"time": 21001, "pitch": 42, "duration": 10, "velocity": 30}, {"time": 21121, "pitch": 42, "duration": 10, "velocity": 60}, {"time": 21360, "pitch": 36, "duration": 10, "velocity": 69}, {"time": 21360, "pitch": 42, "duration": 10, "velocity": 80}, {"time": 21598, "pitch": 36, "duration": 10, "velocity": 90}, {"time": 21598, "pitch": 42, "duration": 10, "velocity": 60}, {"time": 21837, "pitch": 36, "duration": 10, "velocity": 100}, {"time": 21837, "pitch": 42, "duration": 10, "velocity": 80}, {"time": 22076, "pitch": 42, "duration": 10, "velocity": 60}, {"time": 22321, "pitch": 36, "duration": 10, "velocity": 90}, {"time": 22321, "pitch": 42, "duration": 10, "velocity": 80}, {"time": 22566, "pitch": 42, "duration": 10, "velocity": 60}, {"time": 22805, "pitch": 37, "duration": 10, "velocity": 100}, {"time": 22805, "pitch": 42, "duration": 10, "velocity": 80}, {"time": 23044, "pitch": 42, "duration": 10, "velocity": 60}, {"time": 23283, "pitch": 36, "duration": 10, "velocity": 90}, {"time": 23283, "pitch": 42, "duration": 10, "velocity": 60}, {"time": 23521, "pitch": 36, "duration": 10, "velocity": 100}, {"time": 23521, "pitch": 42, "duration": 10, "velocity": 80}, {"time": 23641, "pitch": 42, "duration": 10, "velocity": 60}, {"time": 23760, "pitch": 46, "duration": 10, "velocity": 91}, {"time": 23880, "pitch": 42, "duration": 10, "velocity": 46}, {"time": 23999, "pitch": 42, "duration": 10, "velocity": 77}, {"time": 24238, "pitch": 42, "duration": 10, "velocity": 54}, {"time": 24476, "pitch": 37, "duration": 10, "velocity": 100}, {"time": 24476, "pitch": 42, "duration": 10, "velocity": 80}, {"time": 24596, "pitch": 42, "duration": 10, "velocity": 60}, {"time": 24715, "pitch": 42, "duration": 10, "velocity": 40}, {"time": 24835, "pitch": 42, "duration": 10, "velocity": 30}, {"time": 24954, "pitch": 42, "duration": 10, "velocity": 60}, {"time": 25199, "pitch": 36, "duration": 10, "velocity": 69}, {"time": 25199, "pitch": 42, "duration": 10, "velocity": 80}, {"time": 25445, "pitch": 36, "duration": 9, "velocity": 90}, {"time": 25445, "pitch": 42, "duration": 9, "velocity": 60}, {"time": 25683, "pitch": 36, "duration": 10, "velocity": 100}, {"time": 25683, "pitch": 46, "duration": 10, "velocity": 85}, {"time": 25922, "pitch": 37, "duration": 10, "velocity": 100}, {"time": 25922, "pitch": 42, "duration": 10, "velocity": 60}, {"time": 26161, "pitch": 36, "duration": 10, "velocity": 90}, {"time": 26161, "pitch": 42, "duration": 10, "velocity": 80}, {"time": 26400, "pitch": 46, "duration": 10, "velocity": 91}, {"time": 26638, "pitch": 37, "duration": 10, "velocity": 100}, {"time": 26638, "pitch": 42, "duration": 10, "velocity": 80}, {"time": 26877, "pitch": 42, "duration": 10, "velocity": 90}, {"time": 26997, "pitch": 42, "duration": 9, "velocity": 57}, {"time": 27116, "pitch": 36, "duration": 10, "velocity": 90}, {"time": 27116, "pitch": 37, "duration": 10, "velocity": 100}, {"time": 27116, "pitch": 46, "duration": 10, "velocity": 90}, {"time": 27355, "pitch": 36, "duration": 10, "velocity": 100}, {"time": 27355, "pitch": 55, "duration": 10, "velocity": 100}, {"time": 27600, "pitch": 42, "duration": 10, "velocity": 56}, {"time": 27845, "pitch": 42, "duration": 10, "velocity": 77}, {"time": 28084, "pitch": 42, "duration": 10, "velocity": 54}, {"time": 28323, "pitch": 37, "duration": 10, "velocity": 100}, {"time": 28323, "pitch": 42, "duration": 10, "velocity": 80}, {"time": 28442, "pitch": 42, "duration": 10, "velocity": 60}, {"time": 28561, "pitch": 42, "duration": 10, "velocity": 40}, {"time": 28681, "pitch": 42, "duration": 10, "velocity": 30}, {"time": 28800, "pitch": 42, "duration": 10, "velocity": 60}, {"time": 29039, "pitch": 36, "duration": 10, "velocity": 69}, {"time": 29039, "pitch": 42, "duration": 10, "velocity": 80}, {"time": 29278, "pitch": 36, "duration": 10, "velocity": 90}, {"time": 29278, "pitch": 42, "duration": 10, "velocity": 60}, {"time": 29517, "pitch": 37, "duration": 9, "velocity": 100}, {"time": 29517, "pitch": 42, "duration": 9, "velocity": 80}, {"time": 29755, "pitch": 42, "duration": 10, "velocity": 60}, {"time": 30001, "pitch": 36, "duration": 10, "velocity": 90}, {"time": 30001, "pitch": 42, "duration": 10, "velocity": 80}, {"time": 30246, "pitch": 36, "duration": 10, "velocity": 100}, {"time": 30246, "pitch": 49, "duration": 10, "velocity": 70}, {"time": 30485, "pitch": 42, "duration": 10, "velocity": 56}, {"time": 30723, "pitch": 42, "duration": 10, "velocity": 77}, {"time": 30962, "pitch": 42, "duration": 10, "velocity": 54}, {"time": 31201, "pitch": 37, "duration": 10, "velocity": 100}, {"time": 31201, "pitch": 42, "duration": 10, "velocity": 80}, {"time": 31320, "pitch": 42, "duration": 10, "velocity": 60}, {"time": 31440, "pitch": 42, "duration": 10, "velocity": 40}, {"time": 31559, "pitch": 42, "duration": 10, "velocity": 30}, {"time": 31678, "pitch": 42, "duration": 10, "velocity": 60}, {"time": 31917, "pitch": 36, "duration": 10, "velocity": 69}, {"time": 31917, "pitch": 42, "duration": 10, "velocity": 80}, {"time": 32156, "pitch": 36, "duration": 10, "velocity": 90}, {"time": 32156, "pitch": 42, "duration": 10, "velocity": 60}, {"time": 32401, "pitch": 36, "duration": 10, "velocity": 100}, {"time": 32401, "pitch": 42, "duration": 10, "velocity": 80}, {"time": 32646, "pitch": 42, "duration": 10, "velocity": 60}, {"time": 32885, "pitch": 36, "duration": 10, "velocity": 90}, {"time": 32885, "pitch": 42, "duration": 10, "velocity": 80}, {"time": 33124, "pitch": 42, "duration": 10, "velocity": 60}, {"time": 33363, "pitch": 37, "duration": 10, "velocity": 100}, {"time": 33363, "pitch": 42, "duration": 10, "velocity": 80}, {"time": 33601, "pitch": 42, "duration": 10, "velocity": 60}, {"time": 33840, "pitch": 36, "duration": 10, "velocity": 90}, {"time": 33840, "pitch": 42, "duration": 10, "velocity": 60}, {"time": 34079, "pitch": 36, "duration": 10, "velocity": 100}, {"time": 34079, "pitch": 42, "duration": 10, "velocity": 80}, {"time": 34198, "pitch": 42, "duration": 10, "velocity": 60}, {"time": 34318, "pitch": 46, "duration": 10, "velocity": 91}, {"time": 34437, "pitch": 42, "duration": 10, "velocity": 46}, {"time": 34557, "pitch": 42, "duration": 10, "velocity": 77}, {"time": 34795, "pitch": 42, "duration": 10, "velocity": 54}, {"time": 35034, "pitch": 37, "duration": 10, "velocity": 100}, {"time": 35034, "pitch": 42, "duration": 10, "velocity": 80}, {"time": 35157, "pitch": 42, "duration": 10, "velocity": 60}, {"time": 35279, "pitch": 42, "duration": 11, "velocity": 40}, {"time": 35402, "pitch": 42, "duration": 10, "velocity": 30}, {"time": 35525, "pitch": 42, "duration": 10, "velocity": 60}, {"time": 35763, "pitch": 36, "duration": 10, "velocity": 69}, {"time": 35763, "pitch": 42, "duration": 10, "velocity": 80}, {"time": 36002, "pitch": 36, "duration": 10, "velocity": 90}, {"time": 36002, "pitch": 42, "duration": 10, "velocity": 60}, {"time": 36241, "pitch": 36, "duration": 10, "velocity": 100}, {"time": 36241, "pitch": 46, "duration": 10, "velocity": 83}, {"time": 36480, "pitch": 37, "duration": 10, "velocity": 100}, {"time": 36480, "pitch": 42, "duration": 10, "velocity": 60}, {"time": 36718, "pitch": 36, "duration": 10, "velocity": 90}, {"time": 36718, "pitch": 42, "duration": 10, "velocity": 80}, {"time": 36957, "pitch": 46, "duration": 10, "velocity": 91}, {"time": 37196, "pitch": 37, "duration": 10, "velocity": 100}, {"time": 37196, "pitch": 42, "duration": 10, "velocity": 80}, {"time": 37435, "pitch": 42, "duration": 10, "velocity": 90}, {"time": 37557, "pitch": 42, "duration": 11, "velocity": 57}, {"time": 37680, "pitch": 36, "duration": 10, "velocity": 90}, {"time": 37680, "pitch": 46, "duration": 10, "velocity": 90}, {"time": 37925, "pitch": 36, "duration": 10, "velocity": 100}, {"time": 37925, "pitch": 42, "duration": 10, "velocity": 80}, {"time": 38164, "pitch": 42, "duration": 10, "velocity": 56}, {"time": 38403, "pitch": 42, "duration": 10, "velocity": 77}, {"time": 38642, "pitch": 42, "duration": 9, "velocity": 54}, {"time": 38880, "pitch": 37, "duration": 10, "velocity": 100}, {"time": 38880, "pitch": 42, "duration": 10, "velocity": 80}, {"time": 39000, "pitch": 42, "duration": 10, "velocity": 60}, {"time": 39119, "pitch": 42, "duration": 10, "velocity": 40}, {"time": 39238, "pitch": 42, "duration": 10, "velocity": 30}, {"time": 39358, "pitch": 42, "duration": 10, "velocity": 80}, {"time": 39477, "pitch": 42, "duration": 10, "velocity": 64}, {"time": 39597, "pitch": 36, "duration": 10, "velocity": 69}, {"time": 39597, "pitch": 46, "duration": 10, "velocity": 89}, {"time": 39835, "pitch": 36, "duration": 10, "velocity": 90}, {"time": 39835, "pitch": 42, "duration": 10, "velocity": 60}, {"time": 40081, "pitch": 36, "duration": 10, "velocity": 100}, {"time": 40081, "pitch": 46, "duration": 10, "velocity": 85}, {"time": 40326, "pitch": 42, "duration": 10, "velocity": 60}, {"time": 40565, "pitch": 36, "duration": 10, "velocity": 90}, {"time": 40565, "pitch": 46, "duration": 10, "velocity": 87}, {"time": 40803, "pitch": 42, "duration": 10, "velocity": 60}, {"time": 41042, "pitch": 36, "duration": 10, "velocity": 100}, {"time": 41042, "pitch": 42, "duration": 10, "velocity": 80}, {"time": 41281, "pitch": 38, "duration": 10, "velocity": 100}, {"time": 41281, "pitch": 42, "duration": 10, "velocity": 60}, {"time": 41520, "pitch": 36, "duration": 10, "velocity": 90}, {"time": 41520, "pitch": 42, "duration": 10, "velocity": 60}, {"time": 41758, "pitch": 36, "duration": 10, "velocity": 100}, {"time": 41758, "pitch": 37, "duration": 10, "velocity": 67}, {"time": 41758, "pitch": 55, "duration": 10, "velocity": 84}, {"time": 41878, "pitch": 37, "duration": 10, "velocity": 64}, {"time": 41997, "pitch": 37, "duration": 10, "velocity": 67}, {"time": 41997, "pitch": 42, "duration": 10, "velocity": 57}, {"time": 42117, "pitch": 37, "duration": 10, "velocity": 63}, {"time": 42236, "pitch": 37, "duration": 10, "velocity": 67}, {"time": 42236, "pitch": 38, "duration": 10, "velocity": 100}, {"time": 42236, "pitch": 42, "duration": 10, "velocity": 80}, {"time": 42355, "pitch": 37, "duration": 10, "velocity": 20}, {"time": 42475, "pitch": 36, "duration": 10, "velocity": 79}, {"time": 42475, "pitch": 37, "duration": 10, "velocity": 67}, {"time": 42475, "pitch": 42, "duration": 10, "velocity": 54}, {"time": 42594, "pitch": 37, "duration": 10, "velocity": 64}, {"time": 42714, "pitch": 36, "duration": 10, "velocity": 100}, {"time": 42714, "pitch": 37, "duration": 10, "velocity": 67}, {"time": 42714, "pitch": 42, "duration": 10, "velocity": 84}, {"time": 42836, "pitch": 37, "duration": 10, "velocity": 63}, {"time": 42959, "pitch": 36, "duration": 10, "velocity": 76}, {"time": 42959, "pitch": 37, "duration": 10, "velocity": 67}, {"time": 42959, "pitch": 42, "duration": 10, "velocity": 57}, {"time": 43081, "pitch": 37, "duration": 11, "velocity": 20}, {"time": 43204, "pitch": 37, "duration": 10, "velocity": 67}, {"time": 43204, "pitch": 38, "duration": 10, "velocity": 100}, {"time": 43204, "pitch": 42, "duration": 10, "velocity": 80}, {"time": 43323, "pitch": 37, "duration": 10, "velocity": 64}, {"time": 43443, "pitch": 36, "duration": 10, "velocity": 90}, {"time": 43443, "pitch": 37, "duration": 10, "velocity": 67}, {"time": 43443, "pitch": 42, "duration": 10, "velocity": 54}, {"time": 43562, "pitch": 37, "duration": 10, "velocity": 63}, {"time": 43682, "pitch": 37, "duration": 10, "velocity": 67}, {"time": 43682, "pitch": 42, "duration": 10, "velocity": 84}, {"time": 43801, "pitch": 37, "duration": 10, "velocity": 64}, {"time": 43920, "pitch": 36, "duration": 10, "velocity": 87}, {"time": 43920, "pitch": 37, "duration": 10, "velocity": 67}, {"time": 43920, "pitch": 42, "duration": 10, "velocity": 57}, {"time": 44040, "pitch": 37, "duration": 10, "velocity": 63}, {"time": 44159, "pitch": 37, "duration": 10, "velocity": 67}, {"time": 44159, "pitch": 38, "duration": 10, "velocity": 100}, {"time": 44159, "pitch": 42, "duration": 10, "velocity": 80}, {"time": 44278, "pitch": 37, "duration": 10, "velocity": 20}, {"time": 44398, "pitch": 36, "duration": 10, "velocity": 79}, {"time": 44398, "pitch": 37, "duration": 10, "velocity": 67}, {"time": 44398, "pitch": 42, "duration": 10, "velocity": 54}, {"time": 44517, "pitch": 37, "duration": 10, "velocity": 64}, {"time": 44637, "pitch": 36, "duration": 10, "velocity": 100}, {"time": 44637, "pitch": 37, "duration": 10, "velocity": 67}, {"time": 44637, "pitch": 42, "duration": 10, "velocity": 84}, {"time": 44756, "pitch": 37, "duration": 10, "velocity": 63}, {"time": 44875, "pitch": 36, "duration": 10, "velocity": 76}, {"time": 44875, "pitch": 37, "duration": 10, "velocity": 67}, {"time": 44875, "pitch": 42, "duration": 10, "velocity": 57}, {"time": 44995, "pitch": 37, "duration": 10, "velocity": 20}, {"time": 45114, "pitch": 37, "duration": 10, "velocity": 67}, {"time": 45114, "pitch": 38, "duration": 10, "velocity": 100}, {"time": 45114, "pitch": 42, "duration": 10, "velocity": 80}, {"time": 45237, "pitch": 37, "duration": 10, "velocity": 64}, {"time": 45359, "pitch": 36, "duration": 11, "velocity": 90}, {"time": 45359, "pitch": 37, "duration": 11, "velocity": 67}, {"time": 45359, "pitch": 42, "duration": 11, "velocity": 54}, {"time": 45482, "pitch": 37, "duration": 10, "velocity": 63}, {"time": 45605, "pitch": 36, "duration": 10, "velocity": 100}, {"time": 45605, "pitch": 37, "duration": 10, "velocity": 67}, {"time": 45605, "pitch": 42, "duration": 10, "velocity": 82}, {"time": 45724, "pitch": 37, "duration": 10, "velocity": 64}, {"time": 45843, "pitch": 37, "duration": 10, "velocity": 67}, {"time": 45843, "pitch": 42, "duration": 10, "velocity": 57}, {"time": 45963, "pitch": 37, "duration": 10, "velocity": 63}, {"time": 46082, "pitch": 37, "duration": 10, "velocity": 67}, {"time": 46082, "pitch": 38, "duration": 10, "velocity": 100}, {"time": 46082, "pitch": 42, "duration": 10, "velocity": 80}, {"time": 46202, "pitch": 37, "duration": 10, "velocity": 20}, {"time": 46321, "pitch": 36, "duration": 10, "velocity": 85}, {"time": 46321, "pitch": 37, "duration": 10, "velocity": 67}, {"time": 46321, "pitch": 42, "duration": 10, "velocity": 54}, {"time": 46440, "pitch": 37, "duration": 10, "velocity": 64}, {"time": 46560, "pitch": 37, "duration": 10, "velocity": 67}, {"time": 46560, "pitch": 42, "duration": 10, "velocity": 84}, {"time": 46679, "pitch": 37, "duration": 10, "velocity": 63}, {"time": 46799, "pitch": 36, "duration": 9, "velocity": 85}, {"time": 46799, "pitch": 37, "duration": 9, "velocity": 67}, {"time": 46799, "pitch": 42, "duration": 9, "velocity": 57}, {"time": 46918, "pitch": 37, "duration": 10, "velocity": 20}, {"time": 47037, "pitch": 37, "duration": 10, "velocity": 67}, {"time": 47037, "pitch": 38, "duration": 10, "velocity": 100}, {"time": 47037, "pitch": 42, "duration": 10, "velocity": 80}, {"time": 47157, "pitch": 37, "duration": 10, "velocity": 64}, {"time": 47276, "pitch": 36, "duration": 10, "velocity": 90}, {"time": 47276, "pitch": 37, "duration": 10, "velocity": 67}, {"time": 47276, "pitch": 42, "duration": 10, "velocity": 54}, {"time": 47395, "pitch": 37, "duration": 10, "velocity": 63}, {"time": 47515, "pitch": 37, "duration": 10, "velocity": 67}, {"time": 47515, "pitch": 42, "duration": 10, "velocity": 84}, {"time": 47637, "pitch": 37, "duration": 11, "velocity": 64}, {"time": 47760, "pitch": 36, "duration": 10, "velocity": 87}, {"time": 47760, "pitch": 37, "duration": 10, "velocity": 67}, {"time": 47760, "pitch": 42, "duration": 10, "velocity": 57}, {"time": 47883, "pitch": 37, "duration": 10, "velocity": 63}, {"time": 48005, "pitch": 37, "duration": 10, "velocity": 67}, {"time": 48005, "pitch": 38, "duration": 10, "velocity": 100}, {"time": 48005, "pitch": 42, "duration": 10, "velocity": 80}, {"time": 48125, "pitch": 37, "duration": 10, "velocity": 20}, {"time": 48244, "pitch": 36, "duration": 10, "velocity": 79}, {"time": 48244, "pitch": 37, "duration": 10, "velocity": 67}, {"time": 48244, "pitch": 42, "duration": 10, "velocity": 54}, {"time": 48363, "pitch": 37, "duration": 10, "velocity": 64}, {"time": 48363, "pitch": 38, "duration": 10, "velocity": 69}, {"time": 48483, "pitch": 36, "duration": 10, "velocity": 100}, {"time": 48483, "pitch": 37, "duration": 10, "velocity": 67}, {"time": 48483, "pitch": 42, "duration": 10, "velocity": 84}, {"time": 48602, "pitch": 37, "duration": 10, "velocity": 63}, {"time": 48722, "pitch": 36, "duration": 10, "velocity": 76}, {"time": 48722, "pitch": 37, "duration": 10, "velocity": 67}, {"time": 48722, "pitch": 42, "duration": 10, "velocity": 57}, {"time": 48841, "pitch": 37, "duration": 10, "velocity": 20}, {"time": 48960, "pitch": 37, "duration": 10, "velocity": 67}, {"time": 48960, "pitch": 38, "duration": 10, "velocity": 100}, {"time": 48960, "pitch": 42, "duration": 10, "velocity": 80}, {"time": 49080, "pitch": 37, "duration": 10, "velocity": 64}, {"time": 49080, "pitch": 38, "duration": 10, "velocity": 80}, {"time": 49199, "pitch": 36, "duration": 10, "velocity": 90}, {"time": 49199, "pitch": 37, "duration": 10, "velocity": 67}, {"time": 49199, "pitch": 42, "duration": 10, "velocity": 54}, {"time": 49319, "pitch": 37, "duration": 9, "velocity": 63}, {"time": 49438, "pitch": 36, "duration": 10, "velocity": 100}, {"time": 49438, "pitch": 49, "duration": 10, "velocity": 60}, {"time": 49677, "pitch": 36, "duration": 10, "velocity": 93}, {"time": 49677, "pitch": 42, "duration": 10, "velocity": 57}, {"time": 49677, "pitch": 70, "duration": 10, "velocity": 120}, {"time": 49915, "pitch": 38, "duration": 11, "velocity": 100}, {"time": 49915, "pitch": 42, "duration": 11, "velocity": 80}, {"time": 49915, "pitch": 70, "duration": 11, "velocity": 120}, {"time": 50161, "pitch": 42, "duration": 10, "velocity": 54}, {"time": 50406, "pitch": 36, "duration": 10, "velocity": 100}, {"time": 50406, "pitch": 42, "duration": 10, "velocity": 84}, {"time": 50406, "pitch": 70, "duration": 10, "velocity": 120}, {"time": 50645, "pitch": 36, "duration": 10, "velocity": 76}, {"time": 50645, "pitch": 42, "duration": 10, "velocity": 57}, {"time": 50645, "pitch": 70, "duration": 10, "velocity": 120}, {"time": 50883, "pitch": 38, "duration": 10, "velocity": 100}, {"time": 50883, "pitch": 42, "duration": 10, "velocity": 80}, {"time": 51122, "pitch": 42, "duration": 10, "velocity": 54}, {"time": 51122, "pitch": 70, "duration": 10, "velocity": 120}, {"time": 51361, "pitch": 36, "duration": 10, "velocity": 100}, {"time": 51361, "pitch": 42, "duration": 10, "velocity": 82}, {"time": 51600, "pitch": 36, "duration": 10, "velocity": 92}, {"time": 51600, "pitch": 42, "duration": 10, "velocity": 57}, {"time": 51600, "pitch": 70, "duration": 10, "velocity": 120}, {"time": 51839, "pitch": 38, "duration": 9, "velocity": 100}, {"time": 51839, "pitch": 42, "duration": 9, "velocity": 80}, {"time": 51839, "pitch": 70, "duration": 9, "velocity": 120}, {"time": 52077, "pitch": 42, "duration": 10, "velocity": 54}, {"time": 52316, "pitch": 36, "duration": 10, "velocity": 100}, {"time": 52316, "pitch": 42, "duration": 10, "velocity": 84}, {"time": 52316, "pitch": 70, "duration": 10, "velocity": 120}, {"time": 52555, "pitch": 36, "duration": 10, "velocity": 76}, {"time": 52555, "pitch": 42, "duration": 10, "velocity": 57}, {"time": 52555, "pitch": 70, "duration": 10, "velocity": 120}, {"time": 52794, "pitch": 38, "duration": 10, "velocity": 100}, {"time": 52794, "pitch": 42, "duration": 10, "velocity": 80}, {"time": 53039, "pitch": 36, "duration": 10, "velocity": 90}, {"time": 53039, "pitch": 42, "duration": 10, "velocity": 54}, {"time": 53039, "pitch": 70, "duration": 10, "velocity": 120}, {"time": 53284, "pitch": 36, "duration": 10, "velocity": 100}, {"time": 53284, "pitch": 42, "duration": 10, "velocity": 87}, {"time": 53523, "pitch": 36, "duration": 10, "velocity": 93}, {"time": 53523, "pitch": 42, "duration": 10, "velocity": 57}, {"time": 53523, "pitch": 70, "duration": 10, "velocity": 120}, {"time": 53762, "pitch": 38, "duration": 10, "velocity": 100}, {"time": 53762, "pitch": 42, "duration": 10, "velocity": 80}, {"time": 53762, "pitch": 70, "duration": 10, "velocity": 120}, {"time": 54000, "pitch": 42, "duration": 10, "velocity": 54}, {"time": 54239, "pitch": 36, "duration": 10, "velocity": 100}, {"time": 54239, "pitch": 42, "duration": 10, "velocity": 84}, {"time": 54239, "pitch": 70, "duration": 10, "velocity": 120}, {"time": 54478, "pitch": 36, "duration": 10, "velocity": 76}, {"time": 54478, "pitch": 42, "duration": 10, "velocity": 57}, {"time": 54478, "pitch": 70, "duration": 10, "velocity": 120}, {"time": 54717, "pitch": 38, "duration": 10, "velocity": 100}, {"time": 54717, "pitch": 42, "duration": 10, "velocity": 80}, {"time": 54955, "pitch": 42, "duration": 10, "velocity": 54}, {"time": 54955, "pitch": 70, "duration": 10, "velocity": 120}, {"time": 55194, "pitch": 36, "duration": 10, "velocity": 100}, {"time": 55194, "pitch": 42, "duration": 10, "velocity": 82}, {"time": 55439, "pitch": 36, "duration": 11, "velocity": 92}, {"time": 55439, "pitch": 42, "duration": 11, "velocity": 57}, {"time": 55439, "pitch": 70, "duration": 11, "velocity": 120}, {"time": 55685, "pitch": 38, "duration": 10, "velocity": 100}, {"time": 55685, "pitch": 42, "duration": 10, "velocity": 80}, {"time": 55685, "pitch": 70, "duration": 10, "velocity": 120}, {"time": 55924, "pitch": 42, "duration": 9, "velocity": 54}, {"time": 56162, "pitch": 36, "duration": 10, "velocity": 100}, {"time": 56162, "pitch": 42, "duration": 10, "velocity": 84}, {"time": 56162, "pitch": 70, "duration": 10, "velocity": 120}, {"time": 56401, "pitch": 36, "duration": 10, "velocity": 76}, {"time": 56401, "pitch": 42, "duration": 10, "velocity": 57}, {"time": 56401, "pitch": 70, "duration": 10, "velocity": 120}, {"time": 56640, "pitch": 38, "duration": 10, "velocity": 100}, {"time": 56640, "pitch": 46, "duration": 10, "velocity": 80}, {"time": 56879, "pitch": 36, "duration": 10, "velocity": 90}, {"time": 56879, "pitch": 70, "duration": 10, "velocity": 120}, {"time": 57117, "pitch": 36, "duration": 10, "velocity": 100}, {"time": 57117, "pitch": 42, "duration": 10, "velocity": 87}, {"time": 57356, "pitch": 42, "duration": 10, "velocity": 57}, {"time": 57595, "pitch": 38, "duration": 10, "velocity": 100}, {"time": 57595, "pitch": 42, "duration": 10, "velocity": 80}, {"time": 57840, "pitch": 36, "duration": 10, "velocity": 79}, {"time": 57840, "pitch": 42, "duration": 10, "velocity": 54}, {"time": 58085, "pitch": 36, "duration": 10, "velocity": 100}, {"time": 58085, "pitch": 42, "duration": 10, "velocity": 84}, {"time": 58324, "pitch": 36, "duration": 10, "velocity": 76}, {"time": 58324, "pitch": 42, "duration": 10, "velocity": 57}, {"time": 58563, "pitch": 38, "duration": 10, "velocity": 100}, {"time": 58563, "pitch": 42, "duration": 10, "velocity": 80}, {"time": 58802, "pitch": 36, "duration": 10, "velocity": 90}, {"time": 58802, "pitch": 42, "duration": 10, "velocity": 54}, {"time": 59040, "pitch": 38, "duration": 10, "velocity": 100}, {"time": 59040, "pitch": 42, "duration": 10, "velocity": 80}, {"time": 59279, "pitch": 36, "duration": 10, "velocity": 89}, {"time": 59279, "pitch": 42, "duration": 10, "velocity": 54}, {"time": 59518, "pitch": 36, "duration": 10, "velocity": 100}, {"time": 59518, "pitch": 42, "duration": 10, "velocity": 84}, {"time": 59757, "pitch": 36, "duration": 10, "velocity": 76}, {"time": 59757, "pitch": 42, "duration": 10, "velocity": 57}, {"time": 59996, "pitch": 38, "duration": 10, "velocity": 100}, {"time": 59996, "pitch": 42, "duration": 10, "velocity": 80}, {"time": 60241, "pitch": 38, "duration": 10, "velocity": 90}, {"time": 60241, "pitch": 42, "duration": 10, "velocity": 54}, {"time": 60486, "pitch": 38, "duration": 10, "velocity": 90}, {"time": 60486, "pitch": 42, "duration": 10, "velocity": 54}, {"time": 60725, "pitch": 38, "duration": 10, "velocity": 90}, {"time": 60725, "pitch": 42, "duration": 10, "velocity": 54}, {"time": 60964, "pitch": 36, "duration": 10, "velocity": 100}, {"time": 60964, "pitch": 40, "duration": 10, "velocity": 63}, {"time": 60964, "pitch": 57, "duration": 10, "velocity": 80}, {"time": 61202, "pitch": 40, "duration": 10, "velocity": 58}, {"time": 61202, "pitch": 42, "duration": 10, "velocity": 78}, {"time": 61322, "pitch": 40, "duration": 10, "velocity": 56}, {"time": 61322, "pitch": 42, "duration": 10, "velocity": 62}, {"time": 61441, "pitch": 36, "duration": 10, "velocity": 100}, {"time": 61441, "pitch": 40, "duration": 10, "velocity": 63}, {"time": 61441, "pitch": 42, "duration": 10, "velocity": 86}, {"time": 61680, "pitch": 40, "duration": 10, "velocity": 58}, {"time": 61680, "pitch": 42, "duration": 10, "velocity": 78}, {"time": 61799, "pitch": 40, "duration": 10, "velocity": 56}, {"time": 61799, "pitch": 42, "duration": 10, "velocity": 62}, {"time": 61919, "pitch": 36, "duration": 10, "velocity": 100}, {"time": 61919, "pitch": 40, "duration": 10, "velocity": 63}, {"time": 61919, "pitch": 42, "duration": 10, "velocity": 86}, {"time": 62157, "pitch": 40, "duration": 10, "velocity": 58}, {"time": 62157, "pitch": 42, "duration": 10, "velocity": 78}, {"time": 62277, "pitch": 40, "duration": 10, "velocity": 56}, {"time": 62277, "pitch": 42, "duration": 10, "velocity": 62}, {"time": 62396, "pitch": 36, "duration": 10, "velocity": 100}, {"time": 62396, "pitch": 40, "duration": 10, "velocity": 63}, {"time": 62396, "pitch": 42, "duration": 10, "velocity": 86}, {"time": 62635, "pitch": 40, "duration": 10, "velocity": 58}, {"time": 62635, "pitch": 42, "duration": 10, "velocity": 78}, {"time": 62754, "pitch": 40, "duration": 10, "velocity": 56}, {"time": 62754, "pitch": 42, "duration": 10, "velocity": 62}, {"time": 62874, "pitch": 36, "duration": 10, "velocity": 100}, {"time": 62874, "pitch": 40, "duration": 10, "velocity": 63}, {"time": 62874, "pitch": 42, "duration": 10, "velocity": 88}, {"time": 63119, "pitch": 40, "duration": 10, "velocity": 58}, {"time": 63119, "pitch": 42, "duration": 10, "velocity": 78}, {"time": 63242, "pitch": 40, "duration": 10, "velocity": 56}, {"time": 63242, "pitch": 42, "duration": 10, "velocity": 62}, {"time": 63364, "pitch": 36, "duration": 10, "velocity": 100}, {"time": 63364, "pitch": 40, "duration": 10, "velocity": 63}, {"time": 63364, "pitch": 42, "duration": 10, "velocity": 86}, {"time": 63603, "pitch": 40, "duration": 10, "velocity": 58}, {"time": 63603, "pitch": 42, "duration": 10, "velocity": 78}, {"time": 63722, "pitch": 40, "duration": 10, "velocity": 56}, {"time": 63722, "pitch": 42, "duration": 10, "velocity": 62}, {"time": 63842, "pitch": 36, "duration": 10, "velocity": 100}, {"time": 63842, "pitch": 40, "duration": 10, "velocity": 63}, {"time": 63842, "pitch": 42, "duration": 10, "velocity": 86}, {"time": 64080, "pitch": 40, "duration": 10, "velocity": 58}, {"time": 64080, "pitch": 42, "duration": 10, "velocity": 78}, {"time": 64200, "pitch": 40, "duration": 10, "velocity": 56}, {"time": 64200, "pitch": 42, "duration": 10, "velocity": 62}, {"time": 64319, "pitch": 36, "duration": 10, "velocity": 100}, {"time": 64319, "pitch": 40, "duration": 10, "velocity": 63}, {"time": 64319, "pitch": 42, "duration": 10, "velocity": 86}, {"time": 64558, "pitch": 40, "duration": 10, "velocity": 58}, {"time": 64558, "pitch": 42, "duration": 10, "velocity": 78}, {"time": 64677, "pitch": 40, "duration": 10, "velocity": 56}, {"time": 64677, "pitch": 42, "duration": 10, "velocity": 62}, {"time": 64797, "pitch": 36, "duration": 10, "velocity": 100}, {"time": 64797, "pitch": 40, "duration": 10, "velocity": 63}, {"time": 64797, "pitch": 42, "duration": 10, "velocity": 88}, {"time": 65036, "pitch": 40, "duration": 10, "velocity": 58}, {"time": 65036, "pitch": 42, "duration": 10, "velocity": 78}, {"time": 65155, "pitch": 40, "duration": 10, "velocity": 56}, {"time": 65155, "pitch": 42, "duration": 10, "velocity": 62}, {"time": 65274, "pitch": 36, "duration": 10, "velocity": 100}, {"time": 65274, "pitch": 40, "duration": 10, "velocity": 63}, {"time": 65274, "pitch": 42, "duration": 10, "velocity": 86}, {"time": 65520, "pitch": 40, "duration": 10, "velocity": 58}, {"time": 65520, "pitch": 42, "duration": 10, "velocity": 78}, {"time": 65642, "pitch": 40, "duration": 10, "velocity": 56}, {"time": 65642, "pitch": 42, "duration": 10, "velocity": 62}, {"time": 65765, "pitch": 36, "duration": 10, "velocity": 100}, {"time": 65765, "pitch": 40, "duration": 10, "velocity": 63}, {"time": 65765, "pitch": 42, "duration": 10, "velocity": 86}, {"time": 66004, "pitch": 40, "duration": 10, "velocity": 58}, {"time": 66004, "pitch": 42, "duration": 10, "velocity": 78}, {"time": 66123, "pitch": 40, "duration": 10, "velocity": 56}, {"time": 66123, "pitch": 42, "duration": 10, "velocity": 62}, {"time": 66242, "pitch": 36, "duration": 10, "velocity": 100}, {"time": 66242, "pitch": 40, "duration": 10, "velocity": 63}, {"time": 66242, "pitch": 42, "duration": 10, "velocity": 82}, {"time": 66481, "pitch": 40, "duration": 10, "velocity": 58}, {"time": 66481, "pitch": 42, "duration": 10, "velocity": 78}, {"time": 66601, "pitch": 40, "duration": 9, "velocity": 56}, {"time": 66601, "pitch": 42, "duration": 9, "velocity": 62}, {"time": 66720, "pitch": 36, "duration": 10, "velocity": 100}, {"time": 66720, "pitch": 40, "duration": 10, "velocity": 63}, {"time": 66720, "pitch": 42, "duration": 10, "velocity": 88}, {"time": 66959, "pitch": 40, "duration": 10, "velocity": 58}, {"time": 66959, "pitch": 42, "duration": 10, "velocity": 78}, {"time": 67078, "pitch": 40, "duration": 10, "velocity": 56}, {"time": 67078, "pitch": 42, "duration": 10, "velocity": 62}, {"time": 67197, "pitch": 36, "duration": 10, "velocity": 100}, {"time": 67197, "pitch": 40, "duration": 10, "velocity": 63}, {"time": 67197, "pitch": 42, "duration": 10, "velocity": 86}, {"time": 67436, "pitch": 40, "duration": 10, "velocity": 58}, {"time": 67436, "pitch": 42, "duration": 10, "velocity": 78}, {"time": 67556, "pitch": 40, "duration": 10, "velocity": 56}, {"time": 67556, "pitch": 42, "duration": 10, "velocity": 62}, {"time": 67675, "pitch": 36, "duration": 10, "velocity": 100}, {"time": 67675, "pitch": 40, "duration": 10, "velocity": 63}, {"time": 67675, "pitch": 42, "duration": 10, "velocity": 86}, {"time": 67920, "pitch": 40, "duration": 10, "velocity": 58}, {"time": 67920, "pitch": 42, "duration": 10, "velocity": 78}, {"time": 68043, "pitch": 40, "duration": 10, "velocity": 56}, {"time": 68043, "pitch": 42, "duration": 10, "velocity": 62}, {"time": 68165, "pitch": 36, "duration": 10, "velocity": 100}, {"time": 68165, "pitch": 38, "duration": 10, "velocity": 100}, {"time": 68165, "pitch": 40, "duration": 10, "velocity": 63}, {"time": 68165, "pitch": 42, "duration": 10, "velocity": 86}, {"time": 68404, "pitch": 40, "duration": 10, "velocity": 58}, {"time": 68404, "pitch": 42, "duration": 10, "velocity": 78}, {"time": 68524, "pitch": 40, "duration": 10, "velocity": 56}, {"time": 68524, "pitch": 42, "duration": 10, "velocity": 62}, {"time": 68643, "pitch": 36, "duration": 10, "velocity": 100}, {"time": 68643, "pitch": 40, "duration": 10, "velocity": 63}, {"time": 68643, "pitch": 49, "duration": 10, "velocity": 80}, {"time": 68882, "pitch": 40, "duration": 10, "velocity": 58}, {"time": 68882, "pitch": 42, "duration": 10, "velocity": 78}, {"time": 69001, "pitch": 40, "duration": 10, "velocity": 56}, {"time": 69001, "pitch": 42, "duration": 10, "velocity": 62}, {"time": 69121, "pitch": 36, "duration": 9, "velocity": 100}, {"time": 69121, "pitch": 40, "duration": 9, "velocity": 63}, {"time": 69121, "pitch": 42, "duration": 9, "velocity": 86}, {"time": 69359, "pitch": 40, "duration": 10, "velocity": 58}, {"time": 69359, "pitch": 42, "duration": 10, "velocity": 78}, {"time": 69479, "pitch": 40, "duration": 10, "velocity": 56}, {"time": 69479, "pitch": 42, "duration": 10, "velocity": 62}, {"time": 69598, "pitch": 36, "duration": 10, "velocity": 100}, {"time": 69598, "pitch": 40, "duration": 10, "velocity": 63}, {"time": 69598, "pitch": 42, "duration": 10, "velocity": 86}, {"time": 69837, "pitch": 40, "duration": 10, "velocity": 58}, {"time": 69837, "pitch": 42, "duration": 10, "velocity": 78}, {"time": 69956, "pitch": 40, "duration": 10, "velocity": 56}, {"time": 69956, "pitch": 42, "duration": 10, "velocity": 62}, {"time": 70076, "pitch": 36, "duration": 10, "velocity": 100}, {"time": 70076, "pitch": 40, "duration": 10, "velocity": 63}, {"time": 70076, "pitch": 42, "duration": 10, "velocity": 86}, {"time": 70321, "pitch": 40, "duration": 10, "velocity": 58}, {"time": 70321, "pitch": 42, "duration": 10, "velocity": 78}, {"time": 70444, "pitch": 40, "duration": 10, "velocity": 56}, {"time": 70444, "pitch": 42, "duration": 10, "velocity": 62}, {"time": 70566, "pitch": 36, "duration": 10, "velocity": 100}, {"time": 70566, "pitch": 40, "duration": 10, "velocity": 63}, {"time": 70566, "pitch": 42, "duration": 10, "velocity": 88}, {"time": 70805, "pitch": 40, "duration": 10, "velocity": 58}, {"time": 70805, "pitch": 42, "duration": 10, "velocity": 78}, {"time": 70924, "pitch": 40, "duration": 10, "velocity": 56}, {"time": 70924, "pitch": 42, "duration": 10, "velocity": 62}, {"time": 71044, "pitch": 36, "duration": 10, "velocity": 100}, {"time": 71044, "pitch": 40, "duration": 10, "velocity": 63}, {"time": 71044, "pitch": 42, "duration": 10, "velocity": 86}, {"time": 71282, "pitch": 40, "duration": 10, "velocity": 58}, {"time": 71282, "pitch": 42, "duration": 10, "velocity": 78}, {"time": 71402, "pitch": 40, "duration": 10, "velocity": 56}, {"time": 71402, "pitch": 42, "duration": 10, "velocity": 62}, {"time": 71521, "pitch": 36, "duration": 10, "velocity": 100}, {"time": 71521, "pitch": 40, "duration": 10, "velocity": 63}, {"time": 71521, "pitch": 42, "duration": 10, "velocity": 86}, {"time": 71760, "pitch": 40, "duration": 10, "velocity": 58}, {"time": 71760, "pitch": 42, "duration": 10, "velocity": 78}, {"time": 71879, "pitch": 40, "duration": 10, "velocity": 56}, {"time": 71879, "pitch": 42, "duration": 10, "velocity": 62}, {"time": 71999, "pitch": 36, "duration": 10, "velocity": 100}, {"time": 71999, "pitch": 40, "duration": 10, "velocity": 63}, {"time": 71999, "pitch": 42, "duration": 10, "velocity": 86}, {"time": 72237, "pitch": 40, "duration": 10, "velocity": 58}, {"time": 72237, "pitch": 42, "duration": 10, "velocity": 78}, {"time": 72357, "pitch": 40, "duration": 10, "velocity": 56}, {"time": 72357, "pitch": 42, "duration": 10, "velocity": 62}, {"time": 72476, "pitch": 36, "duration": 10, "velocity": 100}, {"time": 72476, "pitch": 40, "duration": 10, "velocity": 63}, {"time": 72476, "pitch": 42, "duration": 10, "velocity": 88}, {"time": 72715, "pitch": 40, "duration": 10, "velocity": 58}, {"time": 72715, "pitch": 42, "duration": 10, "velocity": 78}, {"time": 72834, "pitch": 40, "duration": 10, "velocity": 56}, {"time": 72834, "pitch": 42, "duration": 10, "velocity": 62}, {"time": 72954, "pitch": 36, "duration": 10, "velocity": 100}, {"time": 72954, "pitch": 40, "duration": 10, "velocity": 63}, {"time": 72954, "pitch": 42, "duration": 10, "velocity": 86}, {"time": 73199, "pitch": 40, "duration": 10, "velocity": 58}, {"time": 73199, "pitch": 42, "duration": 10, "velocity": 78}, {"time": 73322, "pitch": 40, "duration": 10, "velocity": 56}, {"time": 73322, "pitch": 42, "duration": 10, "velocity": 62}, {"time": 73444, "pitch": 36, "duration": 10, "velocity": 100}, {"time": 73444, "pitch": 40, "duration": 10, "velocity": 63}, {"time": 73444, "pitch": 42, "duration": 10, "velocity": 86}, {"time": 73683, "pitch": 40, "duration": 10, "velocity": 58}, {"time": 73683, "pitch": 42, "duration": 10, "velocity": 78}, {"time": 73802, "pitch": 40, "duration": 10, "velocity": 56}, {"time": 73802, "pitch": 42, "duration": 10, "velocity": 62}, {"time": 73922, "pitch": 36, "duration": 10, "velocity": 100}, {"time": 73922, "pitch": 40, "duration": 10, "velocity": 63}, {"time": 73922, "pitch": 42, "duration": 10, "velocity": 82}, {"time": 74161, "pitch": 40, "duration": 10, "velocity": 58}, {"time": 74161, "pitch": 42, "duration": 10, "velocity": 78}, {"time": 74280, "pitch": 40, "duration": 10, "velocity": 56}, {"time": 74280, "pitch": 42, "duration": 10, "velocity": 62}, {"time": 74399, "pitch": 36, "duration": 10, "velocity": 100}, {"time": 74399, "pitch": 40, "duration": 10, "velocity": 63}, {"time": 74399, "pitch": 42, "duration": 10, "velocity": 88}, {"time": 74638, "pitch": 40, "duration": 10, "velocity": 58}, {"time": 74638, "pitch": 42, "duration": 10, "velocity": 78}, {"time": 74757, "pitch": 40, "duration": 10, "velocity": 56}, {"time": 74757, "pitch": 42, "duration": 10, "velocity": 62}, {"time": 74877, "pitch": 36, "duration": 10, "velocity": 100}, {"time": 74877, "pitch": 40, "duration": 10, "velocity": 63}, {"time": 74877, "pitch": 42, "duration": 10, "velocity": 86}, {"time": 75116, "pitch": 40, "duration": 10, "velocity": 58}, {"time": 75116, "pitch": 42, "duration": 10, "velocity": 78}, {"time": 75235, "pitch": 40, "duration": 10, "velocity": 56}, {"time": 75235, "pitch": 42, "duration": 10, "velocity": 62}, {"time": 75354, "pitch": 36, "duration": 10, "velocity": 100}, {"time": 75354, "pitch": 40, "duration": 10, "velocity": 63}, {"time": 75354, "pitch": 42, "duration": 10, "velocity": 86}, {"time": 75600, "pitch": 40, "duration": 10, "velocity": 58}, {"time": 75600, "pitch": 42, "duration": 10, "velocity": 78}, {"time": 75722, "pitch": 40, "duration": 11, "velocity": 56}, {"time": 75722, "pitch": 42, "duration": 11, "velocity": 62}, {"time": 75845, "pitch": 36, "duration": 10, "velocity": 100}, {"time": 75845, "pitch": 38, "duration": 10, "velocity": 100}, {"time": 75845, "pitch": 40, "duration": 10, "velocity": 63}, {"time": 75845, "pitch": 46, "duration": 10, "velocity": 86}, {"time": 75964, "pitch": 38, "duration": 10, "velocity": 70}, {"time": 76084, "pitch": 38, "duration": 10, "velocity": 96}, {"time": 76084, "pitch": 40, "duration": 10, "velocity": 58}, {"time": 76203, "pitch": 38, "duration": 10, "velocity": 87}, {"time": 76203, "pitch": 40, "duration": 10, "velocity": 56}, {"time": 76322, "pitch": 36, "duration": 10, "velocity": 100}, {"time": 76322, "pitch": 57, "duration": 10, "velocity": 80}, {"time": 76561, "pitch": 42, "duration": 10, "velocity": 56}, {"time": 76800, "pitch": 38, "duration": 10, "velocity": 103}, {"time": 76800, "pitch": 42, "duration": 10, "velocity": 77}, {"time": 77039, "pitch": 42, "duration": 10, "velocity": 54}, {"time": 77277, "pitch": 36, "duration": 10, "velocity": 100}, {"time": 77277, "pitch": 42, "duration": 10, "velocity": 80}, {"time": 77516, "pitch": 42, "duration": 10, "velocity": 56}, {"time": 77755, "pitch": 42, "duration": 10, "velocity": 77}, {"time": 77755, "pitch": 45, "duration": 10, "velocity": 110}, {"time": 78000, "pitch": 42, "duration": 11, "velocity": 54}, {"time": 78246, "pitch": 36, "duration": 9, "velocity": 100}, {"time": 78246, "pitch": 42, "duration": 9, "velocity": 80}, {"time": 78484, "pitch": 42, "duration": 10, "velocity": 56}, {"time": 78723, "pitch": 38, "duration": 10, "velocity": 103}, {"time": 78723, "pitch": 42, "duration": 10, "velocity": 77}, {"time": 78962, "pitch": 42, "duration": 10, "velocity": 54}, {"time": 79201, "pitch": 36, "duration": 10, "velocity": 100}, {"time": 79201, "pitch": 42, "duration": 10, "velocity": 80}, {"time": 79439, "pitch": 36, "duration": 10, "velocity": 76}, {"time": 79439, "pitch": 42, "duration": 10, "velocity": 56}, {"time": 79439, "pitch": 47, "duration": 10, "velocity": 106}, {"time": 79678, "pitch": 42, "duration": 10, "velocity": 77}, {"time": 79678, "pitch": 45, "duration": 10, "velocity": 112}, {"time": 79917, "pitch": 36, "duration": 10, "velocity": 74}, {"time": 79917, "pitch": 57, "duration": 10, "velocity": 80}, {"time": 80156, "pitch": 36, "duration": 10, "velocity": 100}, {"time": 80156, "pitch": 49, "duration": 10, "velocity": 80}, {"time": 80401, "pitch": 42, "duration": 10, "velocity": 56}, {"time": 80646, "pitch": 38, "duration": 10, "velocity": 103}, {"time": 80646, "pitch": 42, "duration": 10, "velocity": 77}, {"time": 80885, "pitch": 42, "duration": 10, "velocity": 54}, {"time": 81124, "pitch": 36, "duration": 10, "velocity": 100}, {"time": 81124, "pitch": 42, "duration": 10, "velocity": 80}, {"time": 81362, "pitch": 42, "duration": 10, "velocity": 56}, {"time": 81601, "pitch": 42, "duration": 10, "velocity": 77}, {"time": 81601, "pitch": 45, "duration": 10, "velocity": 110}, {"time": 81840, "pitch": 42, "duration": 10, "velocity": 54}, {"time": 82079, "pitch": 36, "duration": 10, "velocity": 100}, {"time": 82079, "pitch": 42, "duration": 10, "velocity": 80}, {"time": 82318, "pitch": 42, "duration": 9, "velocity": 56}, {"time": 82556, "pitch": 38, "duration": 10, "velocity": 103}, {"time": 82556, "pitch": 42, "duration": 10, "velocity": 77}, {"time": 82795, "pitch": 42, "duration": 10, "velocity": 54}, {"time": 83034, "pitch": 36, "duration": 10, "velocity": 100}, {"time": 83034, "pitch": 42, "duration": 10, "velocity": 80}, {"time": 83279, "pitch": 38, "duration": 10, "velocity": 83}, {"time": 83279, "pitch": 42, "duration": 10, "velocity": 87}, {"time": 83402, "pitch": 38, "duration": 10, "velocity": 84}, {"time": 83524, "pitch": 38, "duration": 10, "velocity": 103}, {"time": 83524, "pitch": 42, "duration": 10, "velocity": 77}, {"time": 83763, "pitch": 36, "duration": 10, "velocity": 74}, {"time": 83763, "pitch": 42, "duration": 10, "velocity": 54}, {"time": 84002, "pitch": 36, "duration": 10, "velocity": 100}, {"time": 84002, "pitch": 57, "duration": 10, "velocity": 80}, {"time": 84241, "pitch": 42, "duration": 10, "velocity": 62}, {"time": 84479, "pitch": 42, "duration": 10, "velocity": 77}, {"time": 84718, "pitch": 36, "duration": 10, "velocity": 87}, {"time": 84718, "pitch": 42, "duration": 10, "velocity": 54}, {"time": 84957, "pitch": 38, "duration": 10, "velocity": 103}, {"time": 84957, "pitch": 42, "duration": 10, "velocity": 80}, {"time": 85196, "pitch": 42, "duration": 10, "velocity": 56}, {"time": 85434, "pitch": 42, "duration": 11, "velocity": 77}, {"time": 85680, "pitch": 36, "duration": 10, "velocity": 74}, {"time": 85680, "pitch": 38, "duration": 10, "velocity": 56}, {"time": 85680, "pitch": 42, "duration": 10, "velocity": 54}, {"time": 85802, "pitch": 38, "duration": 11, "velocity": 49}, {"time": 85925, "pitch": 36, "duration": 10, "velocity": 100}, {"time": 85925, "pitch": 42, "duration": 10, "velocity": 83}, {"time": 86164, "pitch": 38, "duration": 10, "velocity": 76}, {"time": 86164, "pitch": 42, "duration": 10, "velocity": 62}, {"time": 86403, "pitch": 42, "duration": 9, "velocity": 77}, {"time": 86641, "pitch": 36, "duration": 10, "velocity": 87}, {"time": 86641, "pitch": 42, "duration": 10, "velocity": 54}, {"time": 86880, "pitch": 38, "duration": 10, "velocity": 103}, {"time": 86880, "pitch": 42, "duration": 10, "velocity": 80}, {"time": 87119, "pitch": 36, "duration": 10, "velocity": 87}, {"time": 87119, "pitch": 42, "duration": 10, "velocity": 56}, {"time": 87358, "pitch": 38, "duration": 10, "velocity": 87}, {"time": 87358, "pitch": 42, "duration": 10, "velocity": 77}, {"time": 87596, "pitch": 36, "duration": 10, "velocity": 74}, {"time": 87596, "pitch": 42, "duration": 10, "velocity": 54}, {"time": 87835, "pitch": 36, "duration": 10, "velocity": 100}, {"time": 87835, "pitch": 49, "duration": 10, "velocity": 76}, {"time": 87835, "pitch": 57, "duration": 10, "velocity": 78}, {"time": 90481, "pitch": 36, "duration": 10, "velocity": 97}, {"time": 90604, "pitch": 36, "duration": 10, "velocity": 84}, {"time": 90726, "pitch": 38, "duration": 10, "velocity": 100}, {"time": 90726, "pitch": 46, "duration": 10, "velocity": 100}, {"time": 90965, "pitch": 36, "duration": 10, "velocity": 90}, {"time": 91204, "pitch": 38, "duration": 10, "velocity": 106}, {"time": 91204, "pitch": 46, "duration": 10, "velocity": 93}, {"time": 91443, "pitch": 36, "duration": 9, "velocity": 97}, {"time": 91681, "pitch": 36, "duration": 10, "velocity": 100}, {"time": 91681, "pitch": 57, "duration": 10, "velocity": 87}, {"time": 91920, "pitch": 36, "duration": 10, "velocity": 87}, {"time": 91920, "pitch": 42, "duration": 10, "velocity": 57}, {"time": 92159, "pitch": 38, "duration": 10, "velocity": 100}, {"time": 92159, "pitch": 42, "duration": 10, "velocity": 80}, {"time": 92398, "pitch": 36, "duration": 10, "velocity": 79}, {"time": 92398, "pitch": 42, "duration": 10, "velocity": 54}, {"time": 92636, "pitch": 38, "duration": 10, "velocity": 100}, {"time": 92636, "pitch": 42, "duration": 10, "velocity": 84}, {"time": 92875, "pitch": 42, "duration": 10, "velocity": 57}, {"time": 93114, "pitch": 36, "duration": 10, "velocity": 100}, {"time": 93114, "pitch": 42, "duration": 10, "velocity": 80}, {"time": 93359, "pitch": 36, "duration": 10, "velocity": 90}, {"time": 93359, "pitch": 42, "duration": 10, "velocity": 54}, {"time": 93604, "pitch": 38, "duration": 10, "velocity": 100}, {"time": 93604, "pitch": 42, "duration": 10, "velocity": 80}, {"time": 93843, "pitch": 36, "duration": 10, "velocity": 79}, {"time": 93843, "pitch": 42, "duration": 10, "velocity": 54}, {"time": 94082, "pitch": 38, "duration": 10, "velocity": 100}, {"time": 94082, "pitch": 42, "duration": 10, "velocity": 84}, {"time": 94321, "pitch": 42, "duration": 10, "velocity": 57}, {"time": 94559, "pitch": 36, "duration": 10, "velocity": 100}, {"time": 94559, "pitch": 42, "duration": 10, "velocity": 80}, {"time": 94798, "pitch": 36, "duration": 10, "velocity": 90}, {"time": 94798, "pitch": 42, "duration": 10, "velocity": 54}, {"time": 95037, "pitch": 38, "duration": 10, "velocity": 100}, {"time": 95037, "pitch": 42, "duration": 10, "velocity": 80}, {"time": 95276, "pitch": 36, "duration": 10, "velocity": 79}, {"time": 95276, "pitch": 42, "duration": 10, "velocity": 54}, {"time": 95515, "pitch": 38, "duration": 10, "velocity": 100}, {"time": 95515, "pitch": 42, "duration": 10, "velocity": 84}, {"time": 95760, "pitch": 42, "duration": 10, "velocity": 57}, {"time": 96005, "pitch": 36, "duration": 10, "velocity": 100}, {"time": 96005, "pitch": 42, "duration": 10, "velocity": 80}, {"time": 96244, "pitch": 36, "duration": 10, "velocity": 90}, {"time": 96244, "pitch": 42, "duration": 10, "velocity": 54}, {"time": 96483, "pitch": 38, "duration": 10, "velocity": 100}, {"time": 96483, "pitch": 42, "duration": 10, "velocity": 80}, {"time": 96721, "pitch": 36, "duration": 10, "velocity": 79}, {"time": 96721, "pitch": 42, "duration": 10, "velocity": 54}, {"time": 96960, "pitch": 38, "duration": 10, "velocity": 100}, {"time": 96960, "pitch": 42, "duration": 10, "velocity": 84}, {"time": 97199, "pitch": 36, "duration": 10, "velocity": 81}, {"time": 97199, "pitch": 42, "duration": 10, "velocity": 57}, {"time": 97438, "pitch": 36, "duration": 10, "velocity": 100}, {"time": 97438, "pitch": 57, "duration": 10, "velocity": 87}, {"time": 97676, "pitch": 36, "duration": 10, "velocity": 87}, {"time": 97676, "pitch": 42, "duration": 10, "velocity": 57}, {"time": 97915, "pitch": 38, "duration": 10, "velocity": 100}, {"time": 97915, "pitch": 42, "duration": 10, "velocity": 80}, {"time": 98160, "pitch": 36, "duration": 11, "velocity": 79}, {"time": 98160, "pitch": 42, "duration": 11, "velocity": 54}, {"time": 98406, "pitch": 38, "duration": 10, "velocity": 100}, {"time": 98406, "pitch": 42, "duration": 10, "velocity": 84}, {"time": 98644, "pitch": 42, "duration": 10, "velocity": 57}, {"time": 98883, "pitch": 36, "duration": 10, "velocity": 100}, {"time": 98883, "pitch": 42, "duration": 10, "velocity": 80}, {"time": 99122, "pitch": 36, "duration": 10, "velocity": 90}, {"time": 99122, "pitch": 42, "duration": 10, "velocity": 54}, {"time": 99361, "pitch": 38, "duration": 10, "velocity": 100}, {"time": 99361, "pitch": 42, "duration": 10, "velocity": 80}, {"time": 99600, "pitch": 36, "duration": 9, "velocity": 79}, {"time": 99600, "pitch": 42, "duration": 9, "velocity": 54}, {"time": 99838, "pitch": 38, "duration": 10, "velocity": 100}, {"time": 99838, "pitch": 42, "duration": 10, "velocity": 84}, {"time": 100077, "pitch": 42, "duration": 10, "velocity": 57}, {"time": 100316, "pitch": 36, "duration": 10, "velocity": 100}, {"time": 100316, "pitch": 42, "duration": 10, "velocity": 80}, {"time": 100561, "pitch": 36, "duration": 10, "velocity": 90}, {"time": 100561, "pitch": 42, "duration": 10, "velocity": 54}, {"time": 100806, "pitch": 38, "duration": 10, "velocity": 100}, {"time": 100806, "pitch": 42, "duration": 10, "velocity": 80}, {"time": 101045, "pitch": 36, "duration": 10, "velocity": 79}, {"time": 101045, "pitch": 42, "duration": 10, "velocity": 54}, {"time": 101284, "pitch": 38, "duration": 10, "velocity": 100}, {"time": 101284, "pitch": 42, "duration": 10, "velocity": 84}, {"time": 101523, "pitch": 42, "duration": 10, "velocity": 57}, {"time": 101761, "pitch": 36, "duration": 10, "velocity": 100}, {"time": 101761, "pitch": 42, "duration": 10, "velocity": 80}, {"time": 102000, "pitch": 36, "duration": 10, "velocity": 90}, {"time": 102000, "pitch": 42, "duration": 10, "velocity": 54}, {"time": 102239, "pitch": 38, "duration": 10, "velocity": 100}, {"time": 102239, "pitch": 42, "duration": 10, "velocity": 80}, {"time": 102478, "pitch": 36, "duration": 10, "velocity": 79}, {"time": 102478, "pitch": 42, "duration": 10, "velocity": 54}, {"time": 102716, "pitch": 38, "duration": 10, "velocity": 100}, {"time": 102716, "pitch": 42, "duration": 10, "velocity": 84}, {"time": 102955, "pitch": 36, "duration": 10, "velocity": 81}, {"time": 102955, "pitch": 42, "duration": 10, "velocity": 57}, {"time": 103194, "pitch": 36, "duration": 10, "velocity": 100}, {"time": 103194, "pitch": 42, "duration": 10, "velocity": 80}, {"time": 103439, "pitch": 42, "duration": 10, "velocity": 56}, {"time": 103684, "pitch": 42, "duration": 10, "velocity": 77}, {"time": 103923, "pitch": 42, "duration": 10, "velocity": 54}, {"time": 104162, "pitch": 37, "duration": 10, "velocity": 100}, {"time": 104162, "pitch": 42, "duration": 10, "velocity": 80}, {"time": 104281, "pitch": 42, "duration": 10, "velocity": 60}, {"time": 104401, "pitch": 42, "duration": 10, "velocity": 40}, {"time": 104520, "pitch": 42, "duration": 10, "velocity": 30}, {"time": 104640, "pitch": 42, "duration": 10, "velocity": 60}, {"time": 104878, "pitch": 36, "duration": 10, "velocity": 69}, {"time": 104878, "pitch": 42, "duration": 10, "velocity": 80}, {"time": 105117, "pitch": 36, "duration": 10, "velocity": 90}, {"time": 105117, "pitch": 42, "duration": 10, "velocity": 60}, {"time": 105356, "pitch": 36, "duration": 10, "velocity": 100}, {"time": 105356, "pitch": 42, "duration": 10, "velocity": 80}, {"time": 105595, "pitch": 42, "duration": 10, "velocity": 60}, {"time": 105840, "pitch": 36, "duration": 10, "velocity": 90}, {"time": 105840, "pitch": 42, "duration": 10, "velocity": 80}, {"time": 106085, "pitch": 42, "duration": 10, "velocity": 60}, {"time": 106324, "pitch": 37, "duration": 10, "velocity": 100}, {"time": 106324, "pitch": 42, "duration": 10, "velocity": 80}, {"time": 106563, "pitch": 42, "duration": 10, "velocity": 60}, {"time": 106801, "pitch": 36, "duration": 10, "velocity": 90}, {"time": 106801, "pitch": 42, "duration": 10, "velocity": 60}, {"time": 107040, "pitch": 36, "duration": 10, "velocity": 100}, {"time": 107040, "pitch": 42, "duration": 10, "velocity": 80}, {"time": 107279, "pitch": 42, "duration": 10, "velocity": 56}, {"time": 107518, "pitch": 42, "duration": 10, "velocity": 77}, {"time": 107756, "pitch": 42, "duration": 10, "velocity": 54}, {"time": 107995, "pitch": 37, "duration": 10, "velocity": 100}, {"time": 107995, "pitch": 42, "duration": 10, "velocity": 80}, {"time": 108118, "pitch": 42, "duration": 10, "velocity": 60}, {"time": 108241, "pitch": 42, "duration": 10, "velocity": 40}, {"time": 108363, "pitch": 42, "duration": 10, "velocity": 30}, {"time": 108486, "pitch": 42, "duration": 10, "velocity": 60}, {"time": 108725, "pitch": 36, "duration": 9, "velocity": 69}, {"time": 108725, "pitch": 42, "duration": 9, "velocity": 80}, {"time": 108963, "pitch": 36, "duration": 10, "velocity": 90}, {"time": 108963, "pitch": 42, "duration": 10, "velocity": 60}, {"time": 109202, "pitch": 36, "duration": 10, "velocity": 100}, {"time": 109202, "pitch": 42, "duration": 10, "velocity": 80}, {"time": 109441, "pitch": 42, "duration": 10, "velocity": 60}, {"time": 109680, "pitch": 36, "duration": 10, "velocity": 90}, {"time": 109680, "pitch": 42, "duration": 10, "velocity": 80}, {"time": 109918, "pitch": 42, "duration": 10, "velocity": 60}, {"time": 110157, "pitch": 37, "duration": 10, "velocity": 100}, {"time": 110157, "pitch": 42, "duration": 10, "velocity": 80}, {"time": 110396, "pitch": 42, "duration": 10, "velocity": 60}, {"time": 110641, "pitch": 36, "duration": 10, "velocity": 90}, {"time": 110641, "pitch": 42, "duration": 10, "velocity": 60}, {"time": 110886, "pitch": 36, "duration": 10, "velocity": 100}, {"time": 110886, "pitch": 42, "duration": 10, "velocity": 80}, {"time": 111006, "pitch": 42, "duration": 10, "velocity": 60}, {"time": 111125, "pitch": 46, "duration": 10, "velocity": 91}, {"time": 111245, "pitch": 42, "duration": 9, "velocity": 46}, {"time": 111364, "pitch": 42, "duration": 10, "velocity": 77}, {"time": 111603, "pitch": 42, "duration": 10, "velocity": 54}, {"time": 111841, "pitch": 37, "duration": 10, "velocity": 100}, {"time": 111841, "pitch": 42, "duration": 10, "velocity": 80}, {"time": 111961, "pitch": 42, "duration": 10, "velocity": 60}, {"time": 112080, "pitch": 42, "duration": 10, "velocity": 40}, {"time": 112200, "pitch": 42, "duration": 10, "velocity": 30}, {"time": 112319, "pitch": 42, "duration": 10, "velocity": 60}, {"time": 112558, "pitch": 36, "duration": 10, "velocity": 69}, {"time": 112558, "pitch": 42, "duration": 10, "velocity": 80}, {"time": 112797, "pitch": 36, "duration": 9, "velocity": 90}, {"time": 112797, "pitch": 42, "duration": 9, "velocity": 60}, {"time": 113035, "pitch": 36, "duration": 10, "velocity": 100}, {"time": 113035, "pitch": 46, "duration": 10, "velocity": 85}, {"time": 113274, "pitch": 37, "duration": 10, "velocity": 100}, {"time": 113274, "pitch": 42, "duration": 10, "velocity": 60}, {"time": 113519, "pitch": 36, "duration": 11, "velocity": 90}, {"time": 113519, "pitch": 42, "duration": 11, "velocity": 80}, {"time": 113765, "pitch": 46, "duration": 10, "velocity": 91}, {"time": 114003, "pitch": 37, "duration": 10, "velocity": 100}, {"time": 114003, "pitch": 42, "duration": 10, "velocity": 80}, {"time": 114242, "pitch": 42, "duration": 10, "velocity": 90}, {"time": 114361, "pitch": 42, "duration": 10, "velocity": 57}, {"time": 114481, "pitch": 36, "duration": 10, "velocity": 90}, {"time": 114481, "pitch": 37, "duration": 10, "velocity": 100}, {"time": 114481, "pitch": 46, "duration": 10, "velocity": 90}, {"time": 114720, "pitch": 36, "duration": 10, "velocity": 100}, {"time": 114720, "pitch": 55, "duration": 10, "velocity": 100}, {"time": 114958, "pitch": 42, "duration": 10, "velocity": 56}, {"time": 115197, "pitch": 42, "duration": 10, "velocity": 77}, {"time": 115436, "pitch": 42, "duration": 10, "velocity": 54}, {"time": 115675, "pitch": 37, "duration": 10, "velocity": 100}, {"time": 115675, "pitch": 42, "duration": 10, "velocity": 80}, {"time": 115797, "pitch": 42, "duration": 10, "velocity": 60}, {"time": 115920, "pitch": 42, "duration": 10, "velocity": 40}, {"time": 116043, "pitch": 42, "duration": 10, "velocity": 30}, {"time": 116165, "pitch": 42, "duration": 10, "velocity": 60}, {"time": 116404, "pitch": 36, "duration": 10, "velocity": 69}, {"time": 116404, "pitch": 42, "duration": 10, "velocity": 80}, {"time": 117598, "pitch": 36, "duration": 10, "velocity": 100}, {"time": 117598, "pitch": 49, "duration": 10, "velocity": 70}, {"time": 117837, "pitch": 42, "duration": 10, "velocity": 56}, {"time": 118075, "pitch": 42, "duration": 10, "velocity": 77}, {"time": 118321, "pitch": 42, "duration": 10, "velocity": 54}, {"time": 118566, "pitch": 37, "duration": 10, "velocity": 100}, {"time": 118566, "pitch": 42, "duration": 10, "velocity": 80}, {"time": 118685, "pitch": 42, "duration": 10, "velocity": 60}, {"time": 118805, "pitch": 42, "duration": 10, "velocity": 40}, {"time": 118924, "pitch": 42, "duration": 10, "velocity": 30}, {"time": 119043, "pitch": 42, "duration": 10, "velocity": 60}, {"time": 119282, "pitch": 36, "duration": 10, "velocity": 69}, {"time": 119282, "pitch": 42, "duration": 10, "velocity": 80}, {"time": 119521, "pitch": 36, "duration": 10, "velocity": 90}, {"time": 119521, "pitch": 42, "duration": 10, "velocity": 60}, {"time": 119760, "pitch": 36, "duration": 10, "velocity": 100}, {"time": 119760, "pitch": 42, "duration": 10, "velocity": 80}, {"time": 119998, "pitch": 42, "duration": 10, "velocity": 60}, {"time": 120237, "pitch": 36, "duration": 10, "velocity": 90}, {"time": 120237, "pitch": 42, "duration": 10, "velocity": 80}, {"time": 120476, "pitch": 42, "duration": 10, "velocity": 60}, {"time": 120721, "pitch": 37, "duration": 10, "velocity": 100}, {"time": 120721, "pitch": 42, "duration": 10, "velocity": 80}, {"time": 120966, "pitch": 42, "duration": 10, "velocity": 60}, {"time": 121205, "pitch": 36, "duration": 10, "velocity": 90}, {"time": 121205, "pitch": 42, "duration": 10, "velocity": 60}, {"time": 121444, "pitch": 36, "duration": 10, "velocity": 100}, {"time": 121444, "pitch": 42, "duration": 10, "velocity": 80}, {"time": 121563, "pitch": 42, "duration": 10, "velocity": 60}, {"time": 121683, "pitch": 46, "duration": 10, "velocity": 91}, {"time": 121802, "pitch": 42, "duration": 10, "velocity": 46}, {"time": 121922, "pitch": 42, "duration": 9, "velocity": 77}, {"time": 122160, "pitch": 42, "duration": 10, "velocity": 54}, {"time": 122399, "pitch": 37, "duration": 10, "velocity": 100}, {"time": 122399, "pitch": 42, "duration": 10, "velocity": 80}, {"time": 122518, "pitch": 42, "duration": 10, "velocity": 60}, {"time": 122638, "pitch": 42, "duration": 10, "velocity": 40}, {"time": 122757, "pitch": 42, "duration": 10, "velocity": 30}, {"time": 122877, "pitch": 42, "duration": 10, "velocity": 60}, {"time": 123115, "pitch": 36, "duration": 10, "velocity": 69}, {"time": 123115, "pitch": 42, "duration": 10, "velocity": 80}, {"time": 123354, "pitch": 36, "duration": 10, "velocity": 90}, {"time": 123354, "pitch": 42, "duration": 10, "velocity": 60}, {"time": 123599, "pitch": 36, "duration": 11, "velocity": 100}, {"time": 123599, "pitch": 46, "duration": 11, "velocity": 83}, {"time": 123845, "pitch": 37, "duration": 10, "velocity": 100}, {"time": 123845, "pitch": 42, "duration": 10, "velocity": 60}, {"time": 124083, "pitch": 36, "duration": 10, "velocity": 90}, {"time": 124083, "pitch": 42, "duration": 10, "velocity": 80}, {"time": 124322, "pitch": 46, "duration": 10, "velocity": 91}, {"time": 124561, "pitch": 37, "duration": 10, "velocity": 100}, {"time": 124561, "pitch": 42, "duration": 10, "velocity": 80}, {"time": 124800, "pitch": 42, "duration": 10, "velocity": 90}, {"time": 124919, "pitch": 42, "duration": 10, "velocity": 57}, {"time": 125038, "pitch": 36, "duration": 10, "velocity": 90}, {"time": 125038, "pitch": 46, "duration": 10, "velocity": 90}, {"time": 125277, "pitch": 36, "duration": 10, "velocity": 100}, {"time": 125277, "pitch": 42, "duration": 10, "velocity": 80}, {"time": 125516, "pitch": 42, "duration": 10, "velocity": 56}, {"time": 125755, "pitch": 42, "duration": 10, "velocity": 77}, {"time": 126000, "pitch": 42, "duration": 10, "velocity": 54}, {"time": 126245, "pitch": 37, "duration": 10, "velocity": 100}, {"time": 126245, "pitch": 42, "duration": 10, "velocity": 80}, {"time": 126365, "pitch": 42, "duration": 10, "velocity": 60}, {"time": 126484, "pitch": 42, "duration": 10, "velocity": 40}, {"time": 126603, "pitch": 42, "duration": 10, "velocity": 30}, {"time": 126723, "pitch": 42, "duration": 10, "velocity": 80}, {"time": 126842, "pitch": 42, "duration": 10, "velocity": 64}, {"time": 126962, "pitch": 36, "duration": 10, "velocity": 69}, {"time": 126962, "pitch": 46, "duration": 10, "velocity": 89}, {"time": 127200, "pitch": 36, "duration": 10, "velocity": 90}, {"time": 127200, "pitch": 42, "duration": 10, "velocity": 60}, {"time": 127439, "pitch": 36, "duration": 10, "velocity": 100}, {"time": 127439, "pitch": 46, "duration": 10, "velocity": 85}, {"time": 127678, "pitch": 42, "duration": 10, "velocity": 60}, {"time": 127917, "pitch": 36, "duration": 10, "velocity": 90}, {"time": 127917, "pitch": 46, "duration": 10, "velocity": 87}, {"time": 128155, "pitch": 42, "duration": 11, "velocity": 60}, {"time": 128401, "pitch": 36, "duration": 10, "velocity": 100}, {"time": 128401, "pitch": 42, "duration": 10, "velocity": 80}, {"time": 128646, "pitch": 38, "duration": 10, "velocity": 100}, {"time": 128646, "pitch": 42, "duration": 10, "velocity": 60}, {"time": 128885, "pitch": 36, "duration": 10, "velocity": 90}, {"time": 128885, "pitch": 42, "duration": 10, "velocity": 60}, {"time": 129123, "pitch": 36, "duration": 10, "velocity": 100}, {"time": 129123, "pitch": 37, "duration": 10, "velocity": 67}, {"time": 129123, "pitch": 55, "duration": 10, "velocity": 84}, {"time": 129243, "pitch": 37, "duration": 10, "velocity": 64}, {"time": 129362, "pitch": 37, "duration": 10, "velocity": 67}, {"time": 129362, "pitch": 42, "duration": 10, "velocity": 57}, {"time": 129482, "pitch": 37, "duration": 10, "velocity": 63}, {"time": 129601, "pitch": 37, "duration": 10, "velocity": 67}, {"time": 129601, "pitch": 38, "duration": 10, "velocity": 100}, {"time": 129601, "pitch": 42, "duration": 10, "velocity": 80}, {"time": 129720, "pitch": 37, "duration": 10, "velocity": 20}, {"time": 129840, "pitch": 36, "duration": 10, "velocity": 79}, {"time": 129840, "pitch": 37, "duration": 10, "velocity": 67}, {"time": 129840, "pitch": 42, "duration": 10, "velocity": 54}, {"time": 129959, "pitch": 37, "duration": 10, "velocity": 64}, {"time": 130079, "pitch": 36, "duration": 9, "velocity": 100}, {"time": 130079, "pitch": 37, "duration": 9, "velocity": 67}, {"time": 130079, "pitch": 42, "duration": 9, "velocity": 84}, {"time": 130198, "pitch": 37, "duration": 10, "velocity": 63}, {"time": 130317, "pitch": 36, "duration": 10, "velocity": 76}, {"time": 130317, "pitch": 37, "duration": 10, "velocity": 67}, {"time": 130317, "pitch": 42, "duration": 10, "velocity": 57}, {"time": 130437, "pitch": 37, "duration": 10, "velocity": 20}, {"time": 130556, "pitch": 37, "duration": 10, "velocity": 67}, {"time": 130556, "pitch": 38, "duration": 10, "velocity": 100}, {"time": 130556, "pitch": 42, "duration": 10, "velocity": 80}, {"time": 130675, "pitch": 37, "duration": 10, "velocity": 64}, {"time": 130795, "pitch": 36, "duration": 10, "velocity": 90}, {"time": 130795, "pitch": 37, "duration": 10, "velocity": 67}, {"time": 130795, "pitch": 42, "duration": 10, "velocity": 54}, {"time": 130914, "pitch": 37, "duration": 10, "velocity": 63}, {"time": 131034, "pitch": 37, "duration": 10, "velocity": 67}, {"time": 131034, "pitch": 42, "duration": 10, "velocity": 84}, {"time": 131156, "pitch": 37, "duration": 10, "velocity": 64}, {"time": 131279, "pitch": 36, "duration": 10, "velocity": 87}, {"time": 131279, "pitch": 37, "duration": 10, "velocity": 67}, {"time": 131279, "pitch": 42, "duration": 10, "velocity": 57}, {"time": 131401, "pitch": 37, "duration": 11, "velocity": 63}, {"time": 131524, "pitch": 37, "duration": 10, "velocity": 67}, {"time": 131524, "pitch": 38, "duration": 10, "velocity": 100}, {"time": 131524, "pitch": 42, "duration": 10, "velocity": 80}, {"time": 131643, "pitch": 37, "duration": 10, "velocity": 20}, {"time": 131763, "pitch": 36, "duration": 10, "velocity": 79}, {"time": 131763, "pitch": 37, "duration": 10, "velocity": 67}, {"time": 131763, "pitch": 42, "duration": 10, "velocity": 54}, {"time": 131882, "pitch": 37, "duration": 10, "velocity": 64}, {"time": 132002, "pitch": 36, "duration": 10, "velocity": 100}, {"time": 132002, "pitch": 37, "duration": 10, "velocity": 67}, {"time": 132002, "pitch": 42, "duration": 10, "velocity": 84}, {"time": 132121, "pitch": 37, "duration": 10, "velocity": 63}, {"time": 132240, "pitch": 36, "duration": 10, "velocity": 76}, {"time": 132240, "pitch": 37, "duration": 10, "velocity": 67}, {"time": 132240, "pitch": 42, "duration": 10, "velocity": 57}, {"time": 132360, "pitch": 37, "duration": 10, "velocity": 20}, {"time": 132479, "pitch": 37, "duration": 10, "velocity": 67}, {"time": 132479, "pitch": 38, "duration": 10, "velocity": 100}, {"time": 132479, "pitch": 42, "duration": 10, "velocity": 80}, {"time": 132599, "pitch": 37, "duration": 9, "velocity": 64}, {"time": 132718, "pitch": 36, "duration": 10, "velocity": 90}, {"time": 132718, "pitch": 37, "duration": 10, "velocity": 67}, {"time": 132718, "pitch": 42, "duration": 10, "velocity": 54}, {"time": 132837, "pitch": 37, "duration": 10, "velocity": 63}, {"time": 132957, "pitch": 36, "duration": 10, "velocity": 100}, {"time": 132957, "pitch": 37, "duration": 10, "velocity": 67}, {"time": 132957, "pitch": 42, "duration": 10, "velocity": 82}, {"time": 133076, "pitch": 37, "duration": 10, "velocity": 64}, {"time": 133195, "pitch": 37, "duration": 10, "velocity": 67}, {"time": 133195, "pitch": 42, "duration": 10, "velocity": 57}, {"time": 133315, "pitch": 37, "duration": 10, "velocity": 63}, {"time": 133434, "pitch": 37, "duration": 10, "velocity": 67}, {"time": 133434, "pitch": 38, "duration": 10, "velocity": 100}, {"time": 133434, "pitch": 42, "duration": 10, "velocity": 80}, {"time": 133557, "pitch": 37, "duration": 10, "velocity": 20}, {"time": 133679, "pitch": 36, "duration": 11, "velocity": 85}, {"time": 133679, "pitch": 37, "duration": 11, "velocity": 67}, {"time": 133679, "pitch": 42, "duration": 11, "velocity": 54}, {"time": 133802, "pitch": 37, "duration": 10, "velocity": 64}, {"time": 133925, "pitch": 37, "duration": 10, "velocity": 67}, {"time": 133925, "pitch": 42, "duration": 10, "velocity": 84}, {"time": 134044, "pitch": 37, "duration": 10, "velocity": 63}, {"time": 134163, "pitch": 36, "duration": 10, "velocity": 85}, {"time": 134163, "pitch": 37, "duration": 10, "velocity": 67}, {"time": 134163, "pitch": 42, "duration": 10, "velocity": 57}, {"time": 134283, "pitch": 37, "duration": 10, "velocity": 20}, {"time": 134402, "pitch": 37, "duration": 10, "velocity": 67}, {"time": 134402, "pitch": 38, "duration": 10, "velocity": 100}, {"time": 134402, "pitch": 42, "duration": 10, "velocity": 80}, {"time": 134522, "pitch": 37, "duration": 10, "velocity": 64}, {"time": 134641, "pitch": 36, "duration": 10, "velocity": 90}, {"time": 134641, "pitch": 37, "duration": 10, "velocity": 67}, {"time": 134641, "pitch": 42, "duration": 10, "velocity": 54}, {"time": 134760, "pitch": 37, "duration": 10, "velocity": 63}, {"time": 134880, "pitch": 37, "duration": 10, "velocity": 67}, {"time": 134880, "pitch": 42, "duration": 10, "velocity": 84}, {"time": 134999, "pitch": 37, "duration": 10, "velocity": 64}, {"time": 135119, "pitch": 36, "duration": 9, "velocity": 87}, {"time": 135119, "pitch": 37, "duration": 9, "velocity": 67}, {"time": 135119, "pitch": 42, "duration": 9, "velocity": 57}, {"time": 135238, "pitch": 37, "duration": 10, "velocity": 63}, {"time": 135357, "pitch": 37, "duration": 10, "velocity": 67}, {"time": 135357, "pitch": 38, "duration": 10, "velocity": 100}, {"time": 135357, "pitch": 42, "duration": 10, "velocity": 80}, {"time": 135477, "pitch": 37, "duration": 10, "velocity": 20}, {"time": 135596, "pitch": 36, "duration": 10, "velocity": 79}, {"time": 135596, "pitch": 37, "duration": 10, "velocity": 67}, {"time": 135596, "pitch": 42, "duration": 10, "velocity": 54}, {"time": 135715, "pitch": 37, "duration": 10, "velocity": 64}, {"time": 135715, "pitch": 38, "duration": 10, "velocity": 69}, {"time": 135835, "pitch": 36, "duration": 10, "velocity": 100}, {"time": 135835, "pitch": 37, "duration": 10, "velocity": 67}, {"time": 135835, "pitch": 42, "duration": 10, "velocity": 84}, {"time": 135957, "pitch": 37, "duration": 11, "velocity": 63}, {"time": 136080, "pitch": 36, "duration": 10, "velocity": 76}, {"time": 136080, "pitch": 37, "duration": 10, "velocity": 67}, {"time": 136080, "pitch": 42, "duration": 10, "velocity": 57}, {"time": 136203, "pitch": 37, "duration": 10, "velocity": 20}, {"time": 136325, "pitch": 37, "duration": 10, "velocity": 67}, {"time": 136325, "pitch": 38, "duration": 10, "velocity": 100}, {"time": 136325, "pitch": 42, "duration": 10, "velocity": 80}, {"time": 136445, "pitch": 37, "duration": 10, "velocity": 64}, {"time": 136445, "pitch": 38, "duration": 10, "velocity": 80}, {"time": 136564, "pitch": 36, "duration": 10, "velocity": 90}, {"time": 136564, "pitch": 37, "duration": 10, "velocity": 67}, {"time": 136564, "pitch": 42, "duration": 10, "velocity": 54}, {"time": 136684, "pitch": 37, "duration": 9, "velocity": 63}, {"time": 136803, "pitch": 36, "duration": 10, "velocity": 100}, {"time": 136803, "pitch": 49, "duration": 10, "velocity": 60}, {"time": 137042, "pitch": 36, "duration": 10, "velocity": 93}, {"time": 137042, "pitch": 42, "duration": 10, "velocity": 57}, {"time": 137042, "pitch": 70, "duration": 10, "velocity": 120}, {"time": 137280, "pitch": 38, "duration": 10, "velocity": 100}, {"time": 137280, "pitch": 42, "duration": 10, "velocity": 80}, {"time": 137280, "pitch": 70, "duration": 10, "velocity": 120}, {"time": 137519, "pitch": 42, "duration": 10, "velocity": 54}, {"time": 137758, "pitch": 36, "duration": 10, "velocity": 100}, {"time": 137758, "pitch": 42, "duration": 10, "velocity": 84}, {"time": 137758, "pitch": 70, "duration": 10, "velocity": 120}, {"time": 137997, "pitch": 36, "duration": 10, "velocity": 76}, {"time": 137997, "pitch": 42, "duration": 10, "velocity": 57}, {"time": 137997, "pitch": 70, "duration": 10, "velocity": 120}, {"time": 138235, "pitch": 38, "duration": 11, "velocity": 100}, {"time": 138235, "pitch": 42, "duration": 11, "velocity": 80}, {"time": 138481, "pitch": 42, "duration": 10, "velocity": 54}, {"time": 138481, "pitch": 70, "duration": 10, "velocity": 120}, {"time": 138726, "pitch": 36, "duration": 10, "velocity": 100}, {"time": 138726, "pitch": 42, "duration": 10, "velocity": 82}, {"time": 138965, "pitch": 36, "duration": 10, "velocity": 92}, {"time": 138965, "pitch": 42, "duration": 10, "velocity": 57}, {"time": 138965, "pitch": 70, "duration": 10, "velocity": 120}, {"time": 139204, "pitch": 38, "duration": 9, "velocity": 100}, {"time": 139204, "pitch": 42, "duration": 9, "velocity": 80}, {"time": 139204, "pitch": 70, "duration": 9, "velocity": 120}, {"time": 139442, "pitch": 42, "duration": 10, "velocity": 54}, {"time": 139681, "pitch": 36, "duration": 10, "velocity": 100}, {"time": 139681, "pitch": 42, "duration": 10, "velocity": 84}, {"time": 139681, "pitch": 70, "duration": 10, "velocity": 120}, {"time": 139920, "pitch": 36, "duration": 10, "velocity": 76}, {"time": 139920, "pitch": 42, "duration": 10, "velocity": 57}, {"time": 139920, "pitch": 70, "duration": 10, "velocity": 120}, {"time": 140159, "pitch": 38, "duration": 10, "velocity": 100}, {"time": 140159, "pitch": 42, "duration": 10, "velocity": 80}, {"time": 140397, "pitch": 36, "duration": 10, "velocity": 90}, {"time": 140397, "pitch": 42, "duration": 10, "velocity": 54}, {"time": 140397, "pitch": 70, "duration": 10, "velocity": 120}, {"time": 140636, "pitch": 36, "duration": 10, "velocity": 100}, {"time": 140636, "pitch": 42, "duration": 10, "velocity": 87}, {"time": 140875, "pitch": 36, "duration": 10, "velocity": 93}, {"time": 140875, "pitch": 42, "duration": 10, "velocity": 57}, {"time": 140875, "pitch": 70, "duration": 10, "velocity": 120}, {"time": 141114, "pitch": 38, "duration": 10, "velocity": 100}, {"time": 141114, "pitch": 42, "duration": 10, "velocity": 80}, {"time": 141114, "pitch": 70, "duration": 10, "velocity": 120}, {"time": 141359, "pitch": 42, "duration": 10, "velocity": 54}, {"time": 141604, "pitch": 36, "duration": 10, "velocity": 100}, {"time": 141604, "pitch": 42, "duration": 10, "velocity": 84}, {"time": 141604, "pitch": 70, "duration": 10, "velocity": 120}, {"time": 141843, "pitch": 36, "duration": 10, "velocity": 76}, {"time": 141843, "pitch": 42, "duration": 10, "velocity": 57}, {"time": 141843, "pitch": 70, "duration": 10, "velocity": 120}, {"time": 142082, "pitch": 38, "duration": 10, "velocity": 100}, {"time": 142082, "pitch": 42, "duration": 10, "velocity": 80}, {"time": 142320, "pitch": 42, "duration": 10, "velocity": 54}, {"time": 142320, "pitch": 70, "duration": 10, "velocity": 120}, {"time": 142559, "pitch": 36, "duration": 10, "velocity": 100}, {"time": 142559, "pitch": 42, "duration": 10, "velocity": 82}, {"time": 142798, "pitch": 36, "duration": 10, "velocity": 92}, {"time": 142798, "pitch": 42, "duration": 10, "velocity": 57}, {"time": 142798, "pitch": 70, "duration": 10, "velocity": 120}, {"time": 143037, "pitch": 38, "duration": 10, "velocity": 100}, {"time": 143037, "pitch": 42, "duration": 10, "velocity": 80}, {"time": 143037, "pitch": 70, "duration": 10, "velocity": 120}, {"time": 143276, "pitch": 42, "duration": 9, "velocity": 54}, {"time": 143514, "pitch": 36, "duration": 10, "velocity": 100}, {"time": 143514, "pitch": 42, "duration": 10, "velocity": 84}, {"time": 143514, "pitch": 70, "duration": 10, "velocity": 120}, {"time": 143760, "pitch": 36, "duration": 10, "velocity": 76}, {"time": 143760, "pitch": 42, "duration": 10, "velocity": 57}, {"time": 143760, "pitch": 70, "duration": 10, "velocity": 120}, {"time": 144005, "pitch": 38, "duration": 10, "velocity": 100}, {"time": 144005, "pitch": 46, "duration": 10, "velocity": 80}, {"time": 144244, "pitch": 36, "duration": 10, "velocity": 90}, {"time": 144244, "pitch": 70, "duration": 10, "velocity": 120}, {"time": 144482, "pitch": 36, "duration": 10, "velocity": 100}, {"time": 144482, "pitch": 42, "duration": 10, "velocity": 87}, {"time": 144721, "pitch": 42, "duration": 10, "velocity": 57}, {"time": 144960, "pitch": 38, "duration": 10, "velocity": 100}, {"time": 144960, "pitch": 42, "duration": 10, "velocity": 80}, {"time": 145199, "pitch": 42, "duration": 10, "velocity": 54}, {"time": 145437, "pitch": 36, "duration": 10, "velocity": 100}, {"time": 145437, "pitch": 42, "duration": 10, "velocity": 84}, {"time": 145676, "pitch": 36, "duration": 10, "velocity": 76}, {"time": 145676, "pitch": 42, "duration": 10, "velocity": 57}, {"time": 145915, "pitch": 38, "duration": 10, "velocity": 100}, {"time": 145915, "pitch": 42, "duration": 10, "velocity": 80}, {"time": 146160, "pitch": 36, "duration": 10, "velocity": 90}, {"time": 146160, "pitch": 42, "duration": 10, "velocity": 54}, {"time": 146405, "pitch": 38, "duration": 10, "velocity": 100}, {"time": 146405, "pitch": 42, "duration": 10, "velocity": 80}, {"time": 146644, "pitch": 36, "duration": 10, "velocity": 89}, {"time": 146644, "pitch": 42, "duration": 10, "velocity": 54}, {"time": 146883, "pitch": 36, "duration": 10, "velocity": 100}, {"time": 146883, "pitch": 42, "duration": 10, "velocity": 84}, {"time": 147122, "pitch": 36, "duration": 10, "velocity": 76}, {"time": 147122, "pitch": 42, "duration": 10, "velocity": 57}, {"time": 147360, "pitch": 38, "duration": 10, "velocity": 100}, {"time": 147360, "pitch": 42, "duration": 10, "velocity": 80}, {"time": 147599, "pitch": 38, "duration": 10, "velocity": 90}, {"time": 147599, "pitch": 42, "duration": 10, "velocity": 54}, {"time": 147838, "pitch": 38, "duration": 10, "velocity": 90}, {"time": 147838, "pitch": 42, "duration": 10, "velocity": 54}, {"time": 148077, "pitch": 38, "duration": 10, "velocity": 90}, {"time": 148077, "pitch": 42, "duration": 10, "velocity": 54}, {"time": 148316, "pitch": 36, "duration": 10, "velocity": 100}, {"time": 148316, "pitch": 40, "duration": 10, "velocity": 63}, {"time": 148316, "pitch": 57, "duration": 10, "velocity": 80}, {"time": 148561, "pitch": 40, "duration": 10, "velocity": 58}, {"time": 148561, "pitch": 42, "duration": 10, "velocity": 78}, {"time": 148684, "pitch": 40, "duration": 10, "velocity": 56}, {"time": 148684, "pitch": 42, "duration": 10, "velocity": 62}, {"time": 148806, "pitch": 36, "duration": 10, "velocity": 100}, {"time": 148806, "pitch": 40, "duration": 10, "velocity": 63}, {"time": 148806, "pitch": 42, "duration": 10, "velocity": 86}, {"time": 149045, "pitch": 40, "duration": 10, "velocity": 58}, {"time": 149045, "pitch": 42, "duration": 10, "velocity": 78}, {"time": 149164, "pitch": 40, "duration": 10, "velocity": 56}, {"time": 149164, "pitch": 42, "duration": 10, "velocity": 62}, {"time": 149284, "pitch": 36, "duration": 10, "velocity": 100}, {"time": 149284, "pitch": 40, "duration": 10, "velocity": 63}, {"time": 149284, "pitch": 42, "duration": 10, "velocity": 86}, {"time": 149522, "pitch": 40, "duration": 10, "velocity": 58}, {"time": 149522, "pitch": 42, "duration": 10, "velocity": 78}, {"time": 149642, "pitch": 40, "duration": 10, "velocity": 56}, {"time": 149642, "pitch": 42, "duration": 10, "velocity": 62}, {"time": 149761, "pitch": 36, "duration": 10, "velocity": 100}, {"time": 149761, "pitch": 40, "duration": 10, "velocity": 63}, {"time": 149761, "pitch": 42, "duration": 10, "velocity": 86}, {"time": 150000, "pitch": 40, "duration": 10, "velocity": 58}, {"time": 150000, "pitch": 42, "duration": 10, "velocity": 78}, {"time": 150119, "pitch": 40, "duration": 10, "velocity": 56}, {"time": 150119, "pitch": 42, "duration": 10, "velocity": 62}, {"time": 150239, "pitch": 36, "duration": 10, "velocity": 100}, {"time": 150239, "pitch": 40, "duration": 10, "velocity": 63}, {"time": 150239, "pitch": 42, "duration": 10, "velocity": 88}, {"time": 150477, "pitch": 40, "duration": 10, "velocity": 58}, {"time": 150477, "pitch": 42, "duration": 10, "velocity": 78}, {"time": 150597, "pitch": 40, "duration": 10, "velocity": 56}, {"time": 150597, "pitch": 42, "duration": 10, "velocity": 62}, {"time": 150716, "pitch": 36, "duration": 10, "velocity": 100}, {"time": 150716, "pitch": 40, "duration": 10, "velocity": 63}, {"time": 150716, "pitch": 42, "duration": 10, "velocity": 86}, {"time": 150955, "pitch": 40, "duration": 10, "velocity": 58}, {"time": 150955, "pitch": 42, "duration": 10, "velocity": 78}, {"time": 151074, "pitch": 40, "duration": 10, "velocity": 56}, {"time": 151074, "pitch": 42, "duration": 10, "velocity": 62}, {"time": 151194, "pitch": 36, "duration": 10, "velocity": 100}, {"time": 151194, "pitch": 40, "duration": 10, "velocity": 63}, {"time": 151194, "pitch": 42, "duration": 10, "velocity": 86}, {"time": 151439, "pitch": 40, "duration": 10, "velocity": 58}, {"time": 151439, "pitch": 42, "duration": 10, "velocity": 78}, {"time": 151562, "pitch": 40, "duration": 10, "velocity": 56}, {"time": 151562, "pitch": 42, "duration": 10, "velocity": 62}, {"time": 151684, "pitch": 36, "duration": 10, "velocity": 100}, {"time": 151684, "pitch": 40, "duration": 10, "velocity": 63}, {"time": 151684, "pitch": 42, "duration": 10, "velocity": 86}, {"time": 151923, "pitch": 40, "duration": 10, "velocity": 58}, {"time": 151923, "pitch": 42, "duration": 10, "velocity": 78}, {"time": 152042, "pitch": 40, "duration": 10, "velocity": 56}, {"time": 152042, "pitch": 42, "duration": 10, "velocity": 62}, {"time": 152162, "pitch": 36, "duration": 10, "velocity": 100}, {"time": 152162, "pitch": 40, "duration": 10, "velocity": 63}, {"time": 152162, "pitch": 42, "duration": 10, "velocity": 88}, {"time": 152401, "pitch": 40, "duration": 9, "velocity": 58}, {"time": 152401, "pitch": 42, "duration": 9, "velocity": 78}, {"time": 152520, "pitch": 40, "duration": 10, "velocity": 56}, {"time": 152520, "pitch": 42, "duration": 10, "velocity": 62}, {"time": 152639, "pitch": 36, "duration": 10, "velocity": 100}, {"time": 152639, "pitch": 40, "duration": 10, "velocity": 63}, {"time": 152639, "pitch": 42, "duration": 10, "velocity": 86}, {"time": 152878, "pitch": 40, "duration": 10, "velocity": 58}, {"time": 152878, "pitch": 42, "duration": 10, "velocity": 78}, {"time": 152997, "pitch": 40, "duration": 10, "velocity": 56}, {"time": 152997, "pitch": 42, "duration": 10, "velocity": 62}, {"time": 153117, "pitch": 36, "duration": 10, "velocity": 100}, {"time": 153117, "pitch": 40, "duration": 10, "velocity": 63}, {"time": 153117, "pitch": 42, "duration": 10, "velocity": 86}, {"time": 153356, "pitch": 40, "duration": 10, "velocity": 58}, {"time": 153356, "pitch": 42, "duration": 10, "velocity": 78}, {"time": 153475, "pitch": 40, "duration": 10, "velocity": 56}, {"time": 153475, "pitch": 42, "duration": 10, "velocity": 62}, {"time": 153594, "pitch": 36, "duration": 10, "velocity": 100}, {"time": 153594, "pitch": 40, "duration": 10, "velocity": 63}, {"time": 153594, "pitch": 42, "duration": 10, "velocity": 82}, {"time": 153840, "pitch": 40, "duration": 10, "velocity": 58}, {"time": 153840, "pitch": 42, "duration": 10, "velocity": 78}, {"time": 153962, "pitch": 40, "duration": 11, "velocity": 56}, {"time": 153962, "pitch": 42, "duration": 11, "velocity": 62}, {"time": 154085, "pitch": 36, "duration": 10, "velocity": 100}, {"time": 154085, "pitch": 40, "duration": 10, "velocity": 63}, {"time": 154085, "pitch": 42, "duration": 10, "velocity": 88}, {"time": 154324, "pitch": 40, "duration": 10, "velocity": 58}, {"time": 154324, "pitch": 42, "duration": 10, "velocity": 78}, {"time": 154443, "pitch": 40, "duration": 10, "velocity": 56}, {"time": 154443, "pitch": 42, "duration": 10, "velocity": 62}, {"time": 154562, "pitch": 36, "duration": 10, "velocity": 100}, {"time": 154562, "pitch": 40, "duration": 10, "velocity": 63}, {"time": 154562, "pitch": 42, "duration": 10, "velocity": 86}, {"time": 154801, "pitch": 40, "duration": 10, "velocity": 58}, {"time": 154801, "pitch": 42, "duration": 10, "velocity": 78}, {"time": 154921, "pitch": 40, "duration": 9, "velocity": 56}, {"time": 154921, "pitch": 42, "duration": 9, "velocity": 62}, {"time": 155040, "pitch": 36, "duration": 10, "velocity": 100}, {"time": 155040, "pitch": 40, "duration": 10, "velocity": 63}, {"time": 155040, "pitch": 42, "duration": 10, "velocity": 86}, {"time": 155279, "pitch": 40, "duration": 10, "velocity": 58}, {"time": 155279, "pitch": 42, "duration": 10, "velocity": 78}, {"time": 155398, "pitch": 40, "duration": 10, "velocity": 56}, {"time": 155398, "pitch": 42, "duration": 10, "velocity": 62}, {"time": 155517, "pitch": 36, "duration": 10, "velocity": 100}, {"time": 155517, "pitch": 38, "duration": 10, "velocity": 100}, {"time": 155517, "pitch": 40, "duration": 10, "velocity": 63}, {"time": 155517, "pitch": 42, "duration": 10, "velocity": 86}, {"time": 155756, "pitch": 40, "duration": 10, "velocity": 58}, {"time": 155756, "pitch": 42, "duration": 10, "velocity": 78}, {"time": 155876, "pitch": 40, "duration": 10, "velocity": 56}, {"time": 155876, "pitch": 42, "duration": 10, "velocity": 62}, {"time": 155995, "pitch": 36, "duration": 10, "velocity": 100}, {"time": 155995, "pitch": 40, "duration": 10, "velocity": 63}, {"time": 155995, "pitch": 49, "duration": 10, "velocity": 80}, {"time": 156240, "pitch": 40, "duration": 10, "velocity": 58}, {"time": 156240, "pitch": 42, "duration": 10, "velocity": 78}, {"time": 156363, "pitch": 40, "duration": 10, "velocity": 56}, {"time": 156363, "pitch": 42, "duration": 10, "velocity": 62}, {"time": 156486, "pitch": 36, "duration": 9, "velocity": 100}, {"time": 156486, "pitch": 40, "duration": 9, "velocity": 63}, {"time": 156486, "pitch": 42, "duration": 9, "velocity": 86}, {"time": 156724, "pitch": 40, "duration": 10, "velocity": 58}, {"time": 156724, "pitch": 42, "duration": 10, "velocity": 78}, {"time": 156844, "pitch": 40, "duration": 10, "velocity": 56}, {"time": 156844, "pitch": 42, "duration": 10, "velocity": 62}, {"time": 156963, "pitch": 36, "duration": 10, "velocity": 100}, {"time": 156963, "pitch": 40, "duration": 10, "velocity": 63}, {"time": 156963, "pitch": 42, "duration": 10, "velocity": 86}, {"time": 157202, "pitch": 40, "duration": 10, "velocity": 58}, {"time": 157202, "pitch": 42, "duration": 10, "velocity": 78}, {"time": 157321, "pitch": 40, "duration": 10, "velocity": 56}, {"time": 157321, "pitch": 42, "duration": 10, "velocity": 62}, {"time": 157441, "pitch": 36, "duration": 10, "velocity": 100}, {"time": 157441, "pitch": 40, "duration": 10, "velocity": 63}, {"time": 157441, "pitch": 42, "duration": 10, "velocity": 86}, {"time": 157679, "pitch": 40, "duration": 10, "velocity": 58}, {"time": 157679, "pitch": 42, "duration": 10, "velocity": 78}, {"time": 157799, "pitch": 40, "duration": 10, "velocity": 56}, {"time": 157799, "pitch": 42, "duration": 10, "velocity": 62}, {"time": 157918, "pitch": 36, "duration": 10, "velocity": 100}, {"time": 157918, "pitch": 40, "duration": 10, "velocity": 63}, {"time": 157918, "pitch": 42, "duration": 10, "velocity": 88}, {"time": 158157, "pitch": 40, "duration": 10, "velocity": 58}, {"time": 158157, "pitch": 42, "duration": 10, "velocity": 78}, {"time": 158276, "pitch": 40, "duration": 10, "velocity": 56}, {"time": 158276, "pitch": 42, "duration": 10, "velocity": 62}, {"time": 158396, "pitch": 36, "duration": 10, "velocity": 100}, {"time": 158396, "pitch": 40, "duration": 10, "velocity": 63}, {"time": 158396, "pitch": 42, "duration": 10, "velocity": 86}, {"time": 158641, "pitch": 40, "duration": 10, "velocity": 58}, {"time": 158641, "pitch": 42, "duration": 10, "velocity": 78}, {"time": 158764, "pitch": 40, "duration": 10, "velocity": 56}, {"time": 158764, "pitch": 42, "duration": 10, "velocity": 62}, {"time": 158886, "pitch": 36, "duration": 10, "velocity": 100}, {"time": 158886, "pitch": 40, "duration": 10, "velocity": 63}, {"time": 158886, "pitch": 42, "duration": 10, "velocity": 86}, {"time": 159125, "pitch": 40, "duration": 10, "velocity": 58}, {"time": 159125, "pitch": 42, "duration": 10, "velocity": 78}, {"time": 159244, "pitch": 40, "duration": 10, "velocity": 56}, {"time": 159244, "pitch": 42, "duration": 10, "velocity": 62}, {"time": 159364, "pitch": 36, "duration": 10, "velocity": 100}, {"time": 159364, "pitch": 40, "duration": 10, "velocity": 63}, {"time": 159364, "pitch": 42, "duration": 10, "velocity": 86}, {"time": 159602, "pitch": 40, "duration": 10, "velocity": 58}, {"time": 159602, "pitch": 42, "duration": 10, "velocity": 78}, {"time": 159722, "pitch": 40, "duration": 10, "velocity": 56}, {"time": 159722, "pitch": 42, "duration": 10, "velocity": 62}, {"time": 159841, "pitch": 36, "duration": 10, "velocity": 100}, {"time": 159841, "pitch": 40, "duration": 10, "velocity": 63}, {"time": 159841, "pitch": 42, "duration": 10, "velocity": 88}, {"time": 160080, "pitch": 40, "duration": 10, "velocity": 58}, {"time": 160080, "pitch": 42, "duration": 10, "velocity": 78}, {"time": 160199, "pitch": 40, "duration": 10, "velocity": 56}, {"time": 160199, "pitch": 42, "duration": 10, "velocity": 62}, {"time": 160319, "pitch": 36, "duration": 10, "velocity": 100}, {"time": 160319, "pitch": 40, "duration": 10, "velocity": 63}, {"time": 160319, "pitch": 42, "duration": 10, "velocity": 86}, {"time": 160558, "pitch": 40, "duration": 9, "velocity": 58}, {"time": 160558, "pitch": 42, "duration": 9, "velocity": 78}, {"time": 160677, "pitch": 40, "duration": 10, "velocity": 56}, {"time": 160677, "pitch": 42, "duration": 10, "velocity": 62}, {"time": 160796, "pitch": 36, "duration": 10, "velocity": 100}, {"time": 160796, "pitch": 40, "duration": 10, "velocity": 63}, {"time": 160796, "pitch": 42, "duration": 10, "velocity": 86}, {"time": 161035, "pitch": 40, "duration": 10, "velocity": 58}, {"time": 161035, "pitch": 42, "duration": 10, "velocity": 78}, {"time": 161154, "pitch": 40, "duration": 10, "velocity": 56}, {"time": 161154, "pitch": 42, "duration": 10, "velocity": 62}, {"time": 161274, "pitch": 36, "duration": 10, "velocity": 100}, {"time": 161274, "pitch": 40, "duration": 10, "velocity": 63}, {"time": 161274, "pitch": 42, "duration": 10, "velocity": 82}, {"time": 161519, "pitch": 40, "duration": 10, "velocity": 58}, {"time": 161519, "pitch": 42, "duration": 10, "velocity": 78}, {"time": 161642, "pitch": 40, "duration": 10, "velocity": 56}, {"time": 161642, "pitch": 42, "duration": 10, "velocity": 62}, {"time": 161764, "pitch": 36, "duration": 10, "velocity": 100}, {"time": 161764, "pitch": 40, "duration": 10, "velocity": 63}, {"time": 161764, "pitch": 42, "duration": 10, "velocity": 88}, {"time": 162003, "pitch": 40, "duration": 10, "velocity": 58}, {"time": 162003, "pitch": 42, "duration": 10, "velocity": 78}, {"time": 162122, "pitch": 40, "duration": 10, "velocity": 56}, {"time": 162122, "pitch": 42, "duration": 10, "velocity": 62}, {"time": 162242, "pitch": 36, "duration": 10, "velocity": 100}, {"time": 162242, "pitch": 40, "duration": 10, "velocity": 63}, {"time": 162242, "pitch": 42, "duration": 10, "velocity": 86}, {"time": 162481, "pitch": 40, "duration": 10, "velocity": 58}, {"time": 162481, "pitch": 42, "duration": 10, "velocity": 78}, {"time": 162600, "pitch": 40, "duration": 10, "velocity": 56}, {"time": 162600, "pitch": 42, "duration": 10, "velocity": 62}, {"time": 162719, "pitch": 36, "duration": 10, "velocity": 100}, {"time": 162719, "pitch": 40, "duration": 10, "velocity": 63}, {"time": 162719, "pitch": 42, "duration": 10, "velocity": 86}, {"time": 162958, "pitch": 40, "duration": 10, "velocity": 58}, {"time": 162958, "pitch": 42, "duration": 10, "velocity": 78}, {"time": 163078, "pitch": 40, "duration": 9, "velocity": 56}, {"time": 163078, "pitch": 42, "duration": 9, "velocity": 62}, {"time": 163197, "pitch": 36, "duration": 10, "velocity": 100}, {"time": 163197, "pitch": 38, "duration": 10, "velocity": 100}, {"time": 163197, "pitch": 40, "duration": 10, "velocity": 63}, {"time": 163197, "pitch": 46, "duration": 10, "velocity": 86}, {"time": 163316, "pitch": 38, "duration": 10, "velocity": 70}, {"time": 163436, "pitch": 38, "duration": 10, "velocity": 96}, {"time": 163436, "pitch": 40, "duration": 10, "velocity": 58}, {"time": 163555, "pitch": 38, "duration": 10, "velocity": 87}, {"time": 163555, "pitch": 40, "duration": 10, "velocity": 56}, {"time": 163674, "pitch": 36, "duration": 11, "velocity": 100}, {"time": 163674, "pitch": 57, "duration": 11, "velocity": 80}, {"time": 163920, "pitch": 42, "duration": 10, "velocity": 56}, {"time": 164165, "pitch": 38, "duration": 10, "velocity": 103}, {"time": 164165, "pitch": 42, "duration": 10, "velocity": 77}, {"time": 164404, "pitch": 42, "duration": 10, "velocity": 54}, {"time": 164642, "pitch": 36, "duration": 10, "velocity": 100}, {"time": 164642, "pitch": 42, "duration": 10, "velocity": 80}, {"time": 164881, "pitch": 42, "duration": 10, "velocity": 56}, {"time": 165120, "pitch": 42, "duration": 10, "velocity": 77}, {"time": 165120, "pitch": 45, "duration": 10, "velocity": 110}, {"time": 165359, "pitch": 42, "duration": 10, "velocity": 54}, {"time": 165598, "pitch": 36, "duration": 9, "velocity": 100}, {"time": 165598, "pitch": 42, "duration": 9, "velocity": 80}, {"time": 165836, "pitch": 42, "duration": 10, "velocity": 56}, {"time": 166075, "pitch": 38, "duration": 10, "velocity": 103}, {"time": 166075, "pitch": 42, "duration": 10, "velocity": 77}, {"time": 166320, "pitch": 42, "duration": 11, "velocity": 54}, {"time": 166566, "pitch": 36, "duration": 10, "velocity": 100}, {"time": 166566, "pitch": 42, "duration": 10, "velocity": 80}, {"time": 166804, "pitch": 36, "duration": 10, "velocity": 76}, {"time": 166804, "pitch": 42, "duration": 10, "velocity": 56}, {"time": 166804, "pitch": 47, "duration": 10, "velocity": 106}, {"time": 167043, "pitch": 42, "duration": 10, "velocity": 77}, {"time": 167043, "pitch": 45, "duration": 10, "velocity": 112}, {"time": 167282, "pitch": 36, "duration": 10, "velocity": 74}, {"time": 167282, "pitch": 57, "duration": 10, "velocity": 80}, {"time": 167521, "pitch": 36, "duration": 10, "velocity": 100}, {"time": 167521, "pitch": 49, "duration": 10, "velocity": 80}, {"time": 167759, "pitch": 42, "duration": 10, "velocity": 56}, {"time": 167998, "pitch": 38, "duration": 10, "velocity": 103}, {"time": 167998, "pitch": 42, "duration": 10, "velocity": 77}, {"time": 168237, "pitch": 42, "duration": 10, "velocity": 54}, {"time": 168476, "pitch": 36, "duration": 10, "velocity": 100}, {"time": 168476, "pitch": 42, "duration": 10, "velocity": 80}, {"time": 168721, "pitch": 42, "duration": 10, "velocity": 56}, {"time": 168966, "pitch": 42, "duration": 10, "velocity": 77}, {"time": 168966, "pitch": 45, "duration": 10, "velocity": 110}, {"time": 169205, "pitch": 42, "duration": 10, "velocity": 54}, {"time": 169444, "pitch": 36, "duration": 10, "velocity": 100}, {"time": 169444, "pitch": 42, "duration": 10, "velocity": 80}, {"time": 169683, "pitch": 42, "duration": 9, "velocity": 56}, {"time": 169921, "pitch": 38, "duration": 10, "velocity": 103}, {"time": 169921, "pitch": 42, "duration": 10, "velocity": 77}, {"time": 170160, "pitch": 42, "duration": 10, "velocity": 54}, {"time": 170399, "pitch": 36, "duration": 10, "velocity": 100}, {"time": 170399, "pitch": 42, "duration": 10, "velocity": 80}, {"time": 170638, "pitch": 38, "duration": 10, "velocity": 83}, {"time": 170638, "pitch": 42, "duration": 10, "velocity": 87}, {"time": 170757, "pitch": 38, "duration": 10, "velocity": 84}, {"time": 170876, "pitch": 38, "duration": 10, "velocity": 103}, {"time": 170876, "pitch": 42, "duration": 10, "velocity": 77}, {"time": 171115, "pitch": 36, "duration": 10, "velocity": 74}, {"time": 171115, "pitch": 42, "duration": 10, "velocity": 54}, {"time": 171354, "pitch": 36, "duration": 10, "velocity": 100}, {"time": 171354, "pitch": 57, "duration": 10, "velocity": 80}, {"time": 171599, "pitch": 42, "duration": 10, "velocity": 62}, {"time": 171844, "pitch": 42, "duration": 10, "velocity": 77}, {"time": 172083, "pitch": 36, "duration": 10, "velocity": 87}, {"time": 172083, "pitch": 42, "duration": 10, "velocity": 54}, {"time": 172322, "pitch": 38, "duration": 10, "velocity": 103}, {"time": 172322, "pitch": 42, "duration": 10, "velocity": 80}, {"time": 172561, "pitch": 42, "duration": 10, "velocity": 56}, {"time": 172799, "pitch": 42, "duration": 10, "velocity": 77}, {"time": 173038, "pitch": 36, "duration": 10, "velocity": 74}, {"time": 173038, "pitch": 38, "duration": 10, "velocity": 56}, {"time": 173038, "pitch": 42, "duration": 10, "velocity": 54}, {"time": 173158, "pitch": 38, "duration": 10, "velocity": 49}, {"time": 173277, "pitch": 36, "duration": 10, "velocity": 100}, {"time": 173277, "pitch": 42, "duration": 10, "velocity": 83}, {"time": 173516, "pitch": 38, "duration": 10, "velocity": 76}, {"time": 173516, "pitch": 42, "duration": 10, "velocity": 62}, {"time": 173755, "pitch": 42, "duration": 10, "velocity": 77}, {"time": 174000, "pitch": 36, "duration": 10, "velocity": 87}, {"time": 174000, "pitch": 42, "duration": 10, "velocity": 54}, {"time": 174245, "pitch": 38, "duration": 10, "velocity": 103}, {"time": 174245, "pitch": 42, "duration": 10, "velocity": 80}, {"time": 174484, "pitch": 36, "duration": 10, "velocity": 87}, {"time": 174484, "pitch": 42, "duration": 10, "velocity": 56}, {"time": 174723, "pitch": 38, "duration": 9, "velocity": 87}, {"time": 174723, "pitch": 42, "duration": 9, "velocity": 77}, {"time": 174961, "pitch": 36, "duration": 10, "velocity": 74}, {"time": 174961, "pitch": 42, "duration": 10, "velocity": 54}, {"time": 174961, "pitch": 45, "duration": 10, "velocity": 94}, {"time": 175200, "pitch": 36, "duration": 10, "velocity": 100}, {"time": 175200, "pitch": 49, "duration": 10, "velocity": 76}, {"time": 175200, "pitch": 57, "duration": 10, "velocity": 78}, {"time": 175916, "pitch": 51, "duration": 10, "velocity": 90}, {"time": 176036, "pitch": 51, "duration": 10, "velocity": 80}, {"time": 176155, "pitch": 36, "duration": 10, "velocity": 90}, {"time": 176155, "pitch": 57, "duration": 10, "velocity": 80}, {"time": 176884, "pitch": 51, "duration": 10, "velocity": 90}, {"time": 177004, "pitch": 51, "duration": 10, "velocity": 80}, {"time": 177123, "pitch": 36, "duration": 10, "velocity": 90}, {"time": 177123, "pitch": 49, "duration": 10, "velocity": 80}, {"time": 177243, "pitch": 45, "duration": 10, "velocity": 80}, {"time": 177362, "pitch": 47, "duration": 10, "velocity": 48}, {"time": 177481, "pitch": 45, "duration": 10, "velocity": 42}, {"time": 177601, "pitch": 47, "duration": 10, "velocity": 48}, {"time": 177720, "pitch": 45, "duration": 10, "velocity": 38}, {"time": 177839, "pitch": 36, "duration": 10, "velocity": 97}, {"time": 177959, "pitch": 36, "duration": 10, "velocity": 84}, {"time": 178078, "pitch": 38, "duration": 10, "velocity": 100}, {"time": 178078, "pitch": 46, "duration": 10, "velocity": 100}, {"time": 178317, "pitch": 36, "duration": 10, "velocity": 90}, {"time": 178556, "pitch": 38, "duration": 10, "velocity": 106}, {"time": 178556, "pitch": 46, "duration": 10, "velocity": 93}, {"time": 178801, "pitch": 36, "duration": 10, "velocity": 97}, {"time": 179046, "pitch": 36, "duration": 10, "velocity": 100}, {"time": 179046, "pitch": 57, "duration": 10, "velocity": 80}, {"time": 179285, "pitch": 36, "duration": 10, "velocity": 91}, {"time": 179285, "pitch": 42, "duration": 10, "velocity": 62}, {"time": 179524, "pitch": 38, "duration": 10, "velocity": 103}, {"time": 179524, "pitch": 42, "duration": 10, "velocity": 77}, {"time": 179763, "pitch": 36, "duration": 10, "velocity": 87}, {"time": 179763, "pitch": 42, "duration": 10, "velocity": 54}, {"time": 180001, "pitch": 42, "duration": 10, "velocity": 80}, {"time": 180240, "pitch": 36, "duration": 10, "velocity": 97}, {"time": 180240, "pitch": 42, "duration": 10, "velocity": 56}, {"time": 180479, "pitch": 42, "duration": 10, "velocity": 77}, {"time": 180718, "pitch": 36, "duration": 10, "velocity": 74}, {"time": 180718, "pitch": 38, "duration": 10, "velocity": 104}, {"time": 180718, "pitch": 42, "duration": 10, "velocity": 54}, {"time": 180956, "pitch": 36, "duration": 10, "velocity": 100}, {"time": 180956, "pitch": 42, "duration": 10, "velocity": 80}, {"time": 181195, "pitch": 38, "duration": 10, "velocity": 82}, {"time": 181195, "pitch": 42, "duration": 10, "velocity": 62}, {"time": 181434, "pitch": 38, "duration": 10, "velocity": 103}, {"time": 181434, "pitch": 42, "duration": 10, "velocity": 77}, {"time": 181679, "pitch": 36, "duration": 10, "velocity": 87}, {"time": 181679, "pitch": 42, "duration": 10, "velocity": 54}, {"time": 181924, "pitch": 42, "duration": 10, "velocity": 80}, {"time": 182163, "pitch": 36, "duration": 10, "velocity": 97}, {"time": 182163, "pitch": 42, "duration": 10, "velocity": 56}, {"time": 182402, "pitch": 38, "duration": 10, "velocity": 103}, {"time": 182402, "pitch": 42, "duration": 10, "velocity": 77}, {"time": 182641, "pitch": 36, "duration": 10, "velocity": 74}, {"time": 182641, "pitch": 42, "duration": 10, "velocity": 54}, {"time": 182880, "pitch": 36, "duration": 9, "velocity": 100}, {"time": 182880, "pitch": 57, "duration": 9, "velocity": 80}, {"time": 183118, "pitch": 36, "duration": 10, "velocity": 90}, {"time": 183118, "pitch": 42, "duration": 10, "velocity": 62}, {"time": 183357, "pitch": 38, "duration": 10, "velocity": 103}, {"time": 183357, "pitch": 42, "duration": 10, "velocity": 77}, {"time": 183596, "pitch": 36, "duration": 10, "velocity": 87}, {"time": 183596, "pitch": 42, "duration": 10, "velocity": 54}, {"time": 183835, "pitch": 42, "duration": 10, "velocity": 80}, {"time": 184080, "pitch": 36, "duration": 10, "velocity": 97}, {"time": 184080, "pitch": 49, "duration": 10, "velocity": 97}, {"time": 184325, "pitch": 42, "duration": 10, "velocity": 77}, {"time": 184564, "pitch": 36, "duration": 10, "velocity": 74}, {"time": 184564, "pitch": 38, "duration": 10, "velocity": 104}, {"time": 184564, "pitch": 42, "duration": 10, "velocity": 54}, {"time": 184803, "pitch": 36, "duration": 10, "velocity": 100}, {"time": 184803, "pitch": 42, "duration": 10, "velocity": 80}, {"time": 185041, "pitch": 38, "duration": 10, "velocity": 82}, {"time": 185041, "pitch": 42, "duration": 10, "velocity": 62}, {"time": 185280, "pitch": 38, "duration": 10, "velocity": 103}, {"time": 185280, "pitch": 42, "duration": 10, "velocity": 77}, {"time": 185519, "pitch": 36, "duration": 10, "velocity": 87}, {"time": 185519, "pitch": 42, "duration": 10, "velocity": 54}, {"time": 185758, "pitch": 42, "duration": 10, "velocity": 80}, {"time": 185996, "pitch": 36, "duration": 10, "velocity": 97}, {"time": 185996, "pitch": 42, "duration": 10, "velocity": 56}, {"time": 186235, "pitch": 38, "duration": 10, "velocity": 103}, {"time": 186235, "pitch": 42, "duration": 10, "velocity": 77}, {"time": 186358, "pitch": 38, "duration": 10, "velocity": 87}, {"time": 186480, "pitch": 36, "duration": 11, "velocity": 74}, {"time": 186480, "pitch": 38, "duration": 11, "velocity": 92}, {"time": 186480, "pitch": 42, "duration": 11, "velocity": 54}, {"time": 186603, "pitch": 38, "duration": 10, "velocity": 87}, {"time": 186726, "pitch": 36, "duration": 10, "velocity": 100}, {"time": 186726, "pitch": 57, "duration": 10, "velocity": 80}, {"time": 186964, "pitch": 36, "duration": 10, "velocity": 88}, {"time": 186964, "pitch": 42, "duration": 10, "velocity": 62}, {"time": 187203, "pitch": 38, "duration": 10, "velocity": 103}, {"time": 187203, "pitch": 42, "duration": 10, "velocity": 77}, {"time": 187442, "pitch": 36, "duration": 10, "velocity": 67}, {"time": 187442, "pitch": 42, "duration": 10, "velocity": 54}, {"time": 187561, "pitch": 38, "duration": 10, "velocity": 74}, {"time": 187681, "pitch": 36, "duration": 10, "velocity": 100}, {"time": 187681, "pitch": 42, "duration": 10, "velocity": 80}, {"time": 187920, "pitch": 36, "duration": 10, "velocity": 97}, {"time": 187920, "pitch": 42, "duration": 10, "velocity": 56}, {"time": 188158, "pitch": 38, "duration": 10, "velocity": 103}, {"time": 188158, "pitch": 42, "duration": 10, "velocity": 77}, {"time": 188397, "pitch": 36, "duration": 10, "velocity": 74}, {"time": 188397, "pitch": 42, "duration": 10, "velocity": 63}, {"time": 188516, "pitch": 38, "duration": 10, "velocity": 73}, {"time": 188636, "pitch": 36, "duration": 10, "velocity": 100}, {"time": 188636, "pitch": 42, "duration": 10, "velocity": 90}, {"time": 188881, "pitch": 36, "duration": 10, "velocity": 85}, {"time": 188881, "pitch": 42, "duration": 10, "velocity": 62}, {"time": 189126, "pitch": 38, "duration": 10, "velocity": 103}, {"time": 189126, "pitch": 42, "duration": 10, "velocity": 77}, {"time": 189365, "pitch": 36, "duration": 10, "velocity": 78}, {"time": 189365, "pitch": 42, "duration": 10, "velocity": 54}, {"time": 189485, "pitch": 38, "duration": 9, "velocity": 54}, {"time": 189604, "pitch": 36, "duration": 10, "velocity": 96}, {"time": 189604, "pitch": 42, "duration": 10, "velocity": 80}, {"time": 189843, "pitch": 36, "duration": 10, "velocity": 97}, {"time": 189843, "pitch": 42, "duration": 10, "velocity": 56}, {"time": 190081, "pitch": 38, "duration": 10, "velocity": 103}, {"time": 190081, "pitch": 46, "duration": 10, "velocity": 87}, {"time": 190201, "pitch": 38, "duration": 10, "velocity": 77}, {"time": 190320, "pitch": 36, "duration": 10, "velocity": 74}, {"time": 190559, "pitch": 36, "duration": 10, "velocity": 100}, {"time": 190559, "pitch": 49, "duration": 10, "velocity": 80}, {"time": 190798, "pitch": 36, "duration": 10, "velocity": 88}, {"time": 190798, "pitch": 42, "duration": 10, "velocity": 62}, {"time": 191036, "pitch": 38, "duration": 10, "velocity": 103}, {"time": 191036, "pitch": 42, "duration": 10, "velocity": 77}, {"time": 191275, "pitch": 36, "duration": 10, "velocity": 67}, {"time": 191275, "pitch": 42, "duration": 10, "velocity": 54}, {"time": 191395, "pitch": 38, "duration": 10, "velocity": 74}, {"time": 191514, "pitch": 36, "duration": 10, "velocity": 100}, {"time": 191514, "pitch": 42, "duration": 10, "velocity": 80}, {"time": 191759, "pitch": 36, "duration": 10, "velocity": 97}, {"time": 191759, "pitch": 42, "duration": 10, "velocity": 56}, {"time": 192005, "pitch": 38, "duration": 9, "velocity": 103}, {"time": 192005, "pitch": 42, "duration": 9, "velocity": 77}, {"time": 192243, "pitch": 36, "duration": 10, "velocity": 74}, {"time": 192243, "pitch": 42, "duration": 10, "velocity": 63}, {"time": 192482, "pitch": 38, "duration": 10, "velocity": 104}, {"time": 192482, "pitch": 57, "duration": 10, "velocity": 90}, {"time": 192721, "pitch": 36, "duration": 10, "velocity": 85}, {"time": 192721, "pitch": 42, "duration": 10, "velocity": 62}, {"time": 192960, "pitch": 38, "duration": 10, "velocity": 103}, {"time": 192960, "pitch": 46, "duration": 10, "velocity": 97}, {"time": 193198, "pitch": 36, "duration": 10, "velocity": 78}, {"time": 193198, "pitch": 42, "duration": 10, "velocity": 54}, {"time": 193318, "pitch": 38, "duration": 10, "velocity": 74}, {"time": 193437, "pitch": 36, "duration": 10, "velocity": 96}, {"time": 193437, "pitch": 42, "duration": 10, "velocity": 80}, {"time": 193676, "pitch": 36, "duration": 10, "velocity": 97}, {"time": 193676, "pitch": 42, "duration": 10, "velocity": 56}, {"time": 193915, "pitch": 38, "duration": 10, "velocity": 103}, {"time": 193915, "pitch": 46, "duration": 10, "velocity": 77}, {"time": 194037, "pitch": 38, "duration": 10, "velocity": 89}, {"time": 194160, "pitch": 36, "duration": 10, "velocity": 74}, {"time": 194160, "pitch": 38, "duration": 10, "velocity": 99}, {"time": 194283, "pitch": 38, "duration": 10, "velocity": 82}, {"time": 194405, "pitch": 36, "duration": 10, "velocity": 100}, {"time": 194405, "pitch": 37, "duration": 10, "velocity": 67}, {"time": 194405, "pitch": 55, "duration": 10, "velocity": 84}, {"time": 194525, "pitch": 37, "duration": 9, "velocity": 64}, {"time": 194644, "pitch": 37, "duration": 10, "velocity": 67}, {"time": 194644, "pitch": 42, "duration": 10, "velocity": 57}, {"time": 194763, "pitch": 37, "duration": 10, "velocity": 63}, {"time": 194883, "pitch": 37, "duration": 10, "velocity": 67}, {"time": 194883, "pitch": 38, "duration": 10, "velocity": 100}, {"time": 194883, "pitch": 42, "duration": 10, "velocity": 80}, {"time": 195002, "pitch": 37, "duration": 10, "velocity": 20}, {"time": 195121, "pitch": 36, "duration": 10, "velocity": 79}, {"time": 195121, "pitch": 37, "duration": 10, "velocity": 67}, {"time": 195121, "pitch": 42, "duration": 10, "velocity": 54}, {"time": 195241, "pitch": 37, "duration": 10, "velocity": 64}, {"time": 195360, "pitch": 36, "duration": 10, "velocity": 100}, {"time": 195360, "pitch": 37, "duration": 10, "velocity": 67}, {"time": 195360, "pitch": 42, "duration": 10, "velocity": 84}, {"time": 195480, "pitch": 37, "duration": 10, "velocity": 63}, {"time": 195599, "pitch": 36, "duration": 10, "velocity": 76}, {"time": 195599, "pitch": 37, "duration": 10, "velocity": 67}, {"time": 195599, "pitch": 42, "duration": 10, "velocity": 57}, {"time": 195718, "pitch": 37, "duration": 10, "velocity": 20}, {"time": 195838, "pitch": 37, "duration": 10, "velocity": 67}, {"time": 195838, "pitch": 38, "duration": 10, "velocity": 100}, {"time": 195838, "pitch": 42, "duration": 10, "velocity": 80}, {"time": 195957, "pitch": 37, "duration": 10, "velocity": 64}, {"time": 196077, "pitch": 36, "duration": 9, "velocity": 90}, {"time": 196077, "pitch": 37, "duration": 9, "velocity": 67}, {"time": 196077, "pitch": 42, "duration": 9, "velocity": 54}, {"time": 196196, "pitch": 37, "duration": 10, "velocity": 63}, {"time": 196315, "pitch": 37, "duration": 10, "velocity": 67}, {"time": 196315, "pitch": 42, "duration": 10, "velocity": 84}, {"time": 196438, "pitch": 37, "duration": 10, "velocity": 64}, {"time": 196561, "pitch": 36, "duration": 10, "velocity": 87}, {"time": 196561, "pitch": 37, "duration": 10, "velocity": 67}, {"time": 196561, "pitch": 42, "duration": 10, "velocity": 57}, {"time": 196683, "pitch": 37, "duration": 10, "velocity": 63}, {"time": 196806, "pitch": 37, "duration": 10, "velocity": 67}, {"time": 196806, "pitch": 38, "duration": 10, "velocity": 100}, {"time": 196806, "pitch": 42, "duration": 10, "velocity": 80}, {"time": 196925, "pitch": 37, "duration": 10, "velocity": 20}, {"time": 197045, "pitch": 36, "duration": 10, "velocity": 79}, {"time": 197045, "pitch": 37, "duration": 10, "velocity": 67}, {"time": 197045, "pitch": 42, "duration": 10, "velocity": 54}, {"time": 197164, "pitch": 37, "duration": 10, "velocity": 64}, {"time": 197283, "pitch": 36, "duration": 10, "velocity": 100}, {"time": 197283, "pitch": 37, "duration": 10, "velocity": 67}, {"time": 197283, "pitch": 42, "duration": 10, "velocity": 84}, {"time": 197403, "pitch": 37, "duration": 10, "velocity": 63}, {"time": 197522, "pitch": 36, "duration": 10, "velocity": 76}, {"time": 197522, "pitch": 37, "duration": 10, "velocity": 67}, {"time": 197522, "pitch": 42, "duration": 10, "velocity": 57}, {"time": 197641, "pitch": 37, "duration": 10, "velocity": 20}, {"time": 197761, "pitch": 37, "duration": 10, "velocity": 67}, {"time": 197761, "pitch": 38, "duration": 10, "velocity": 100}, {"time": 197761, "pitch": 42, "duration": 10, "velocity": 80}, {"time": 197880, "pitch": 37, "duration": 10, "velocity": 64}, {"time": 198000, "pitch": 36, "duration": 10, "velocity": 90}, {"time": 198000, "pitch": 37, "duration": 10, "velocity": 67}, {"time": 198000, "pitch": 42, "duration": 10, "velocity": 54}, {"time": 198119, "pitch": 37, "duration": 10, "velocity": 63}, {"time": 198238, "pitch": 36, "duration": 10, "velocity": 100}, {"time": 198238, "pitch": 37, "duration": 10, "velocity": 67}, {"time": 198238, "pitch": 42, "duration": 10, "velocity": 82}, {"time": 198358, "pitch": 37, "duration": 10, "velocity": 64}, {"time": 198477, "pitch": 37, "duration": 10, "velocity": 67}, {"time": 198477, "pitch": 42, "duration": 10, "velocity": 57}, {"time": 198597, "pitch": 37, "duration": 9, "velocity": 63}, {"time": 198716, "pitch": 37, "duration": 10, "velocity": 67}, {"time": 198716, "pitch": 38, "duration": 10, "velocity": 100}, {"time": 198716, "pitch": 42, "duration": 10, "velocity": 80}, {"time": 198839, "pitch": 37, "duration": 10, "velocity": 20}, {"time": 198961, "pitch": 36, "duration": 10, "velocity": 85}, {"time": 198961, "pitch": 37, "duration": 10, "velocity": 67}, {"time": 198961, "pitch": 42, "duration": 10, "velocity": 54}, {"time": 199084, "pitch": 37, "duration": 10, "velocity": 64}, {"time": 199206, "pitch": 37, "duration": 10, "velocity": 67}, {"time": 199206, "pitch": 42, "duration": 10, "velocity": 84}, {"time": 199326, "pitch": 37, "duration": 10, "velocity": 63}, {"time": 199445, "pitch": 36, "duration": 10, "velocity": 85}, {"time": 199445, "pitch": 37, "duration": 10, "velocity": 67}, {"time": 199445, "pitch": 42, "duration": 10, "velocity": 57}, {"time": 199565, "pitch": 37, "duration": 10, "velocity": 20}, {"time": 199684, "pitch": 37, "duration": 10, "velocity": 67}, {"time": 199684, "pitch": 38, "duration": 10, "velocity": 100}, {"time": 199684, "pitch": 42, "duration": 10, "velocity": 80}, {"time": 199803, "pitch": 37, "duration": 10, "velocity": 64}, {"time": 199923, "pitch": 36, "duration": 10, "velocity": 90}, {"time": 199923, "pitch": 37, "duration": 10, "velocity": 67}, {"time": 199923, "pitch": 42, "duration": 10, "velocity": 54}, {"time": 200042, "pitch": 37, "duration": 10, "velocity": 63}, {"time": 200162, "pitch": 37, "duration": 9, "velocity": 67}, {"time": 200162, "pitch": 42, "duration": 9, "velocity": 84}, {"time": 200281, "pitch": 37, "duration": 10, "velocity": 64}, {"time": 200400, "pitch": 36, "duration": 10, "velocity": 87}, {"time": 200400, "pitch": 37, "duration": 10, "velocity": 67}, {"time": 200400, "pitch": 42, "duration": 10, "velocity": 57}, {"time": 200520, "pitch": 37, "duration": 10, "velocity": 63}, {"time": 200639, "pitch": 37, "duration": 10, "velocity": 67}, {"time": 200639, "pitch": 38, "duration": 10, "velocity": 100}, {"time": 200639, "pitch": 42, "duration": 10, "velocity": 80}, {"time": 200758, "pitch": 37, "duration": 10, "velocity": 20}, {"time": 200878, "pitch": 36, "duration": 10, "velocity": 79}, {"time": 200878, "pitch": 37, "duration": 10, "velocity": 67}, {"time": 200878, "pitch": 42, "duration": 10, "velocity": 54}, {"time": 200997, "pitch": 37, "duration": 10, "velocity": 64}, {"time": 200997, "pitch": 38, "duration": 10, "velocity": 69}, {"time": 201117, "pitch": 36, "duration": 10, "velocity": 100}, {"time": 201117, "pitch": 37, "duration": 10, "velocity": 67}, {"time": 201117, "pitch": 42, "duration": 10, "velocity": 84}, {"time": 201236, "pitch": 37, "duration": 10, "velocity": 63}, {"time": 201355, "pitch": 36, "duration": 10, "velocity": 76}, {"time": 201355, "pitch": 37, "duration": 10, "velocity": 67}, {"time": 201355, "pitch": 42, "duration": 10, "velocity": 57}, {"time": 201475, "pitch": 37, "duration": 10, "velocity": 20}, {"time": 201594, "pitch": 37, "duration": 10, "velocity": 67}, {"time": 201594, "pitch": 38, "duration": 10, "velocity": 100}, {"time": 201594, "pitch": 42, "duration": 10, "velocity": 80}, {"time": 201717, "pitch": 37, "duration": 10, "velocity": 64}, {"time": 201717, "pitch": 38, "duration": 10, "velocity": 80}, {"time": 201839, "pitch": 36, "duration": 11, "velocity": 90}, {"time": 201839, "pitch": 37, "duration": 11, "velocity": 67}, {"time": 201839, "pitch": 42, "duration": 11, "velocity": 54}, {"time": 201962, "pitch": 37, "duration": 10, "velocity": 63}, {"time": 202085, "pitch": 36, "duration": 10, "velocity": 100}, {"time": 202085, "pitch": 49, "duration": 10, "velocity": 60}, {"time": 202323, "pitch": 36, "duration": 10, "velocity": 93}, {"time": 202323, "pitch": 42, "duration": 10, "velocity": 57}, {"time": 202323, "pitch": 70, "duration": 10, "velocity": 120}, {"time": 202562, "pitch": 38, "duration": 10, "velocity": 100}, {"time": 202562, "pitch": 42, "duration": 10, "velocity": 80}, {"time": 202562, "pitch": 70, "duration": 10, "velocity": 120}, {"time": 202801, "pitch": 42, "duration": 10, "velocity": 54}, {"time": 203040, "pitch": 36, "duration": 10, "velocity": 100}, {"time": 203040, "pitch": 42, "duration": 10, "velocity": 84}, {"time": 203040, "pitch": 70, "duration": 10, "velocity": 120}, {"time": 203278, "pitch": 36, "duration": 10, "velocity": 76}, {"time": 203278, "pitch": 42, "duration": 10, "velocity": 57}, {"time": 203278, "pitch": 70, "duration": 10, "velocity": 120}, {"time": 203517, "pitch": 38, "duration": 10, "velocity": 100}, {"time": 203517, "pitch": 42, "duration": 10, "velocity": 80}, {"time": 203756, "pitch": 42, "duration": 10, "velocity": 54}, {"time": 203756, "pitch": 70, "duration": 10, "velocity": 120}, {"time": 203995, "pitch": 36, "duration": 10, "velocity": 100}, {"time": 203995, "pitch": 42, "duration": 10, "velocity": 82}, {"time": 204240, "pitch": 36, "duration": 10, "velocity": 92}, {"time": 204240, "pitch": 42, "duration": 10, "velocity": 57}, {"time": 204240, "pitch": 70, "duration": 10, "velocity": 120}, {"time": 204485, "pitch": 38, "duration": 10, "velocity": 100}, {"time": 204485, "pitch": 42, "duration": 10, "velocity": 80}, {"time": 204485, "pitch": 70, "duration": 10, "velocity": 120}, {"time": 204724, "pitch": 42, "duration": 10, "velocity": 54}, {"time": 204963, "pitch": 36, "duration": 10, "velocity": 100}, {"time": 204963, "pitch": 42, "duration": 10, "velocity": 84}, {"time": 204963, "pitch": 70, "duration": 10, "velocity": 120}, {"time": 205202, "pitch": 36, "duration": 9, "velocity": 76}, {"time": 205202, "pitch": 42, "duration": 9, "velocity": 57}, {"time": 205202, "pitch": 70, "duration": 9, "velocity": 120}, {"time": 205440, "pitch": 38, "duration": 10, "velocity": 100}, {"time": 205440, "pitch": 42, "duration": 10, "velocity": 80}, {"time": 205679, "pitch": 36, "duration": 10, "velocity": 90}, {"time": 205679, "pitch": 42, "duration": 10, "velocity": 54}, {"time": 205679, "pitch": 70, "duration": 10, "velocity": 120}, {"time": 205918, "pitch": 36, "duration": 10, "velocity": 100}, {"time": 205918, "pitch": 42, "duration": 10, "velocity": 87}, {"time": 206157, "pitch": 36, "duration": 10, "velocity": 93}, {"time": 206157, "pitch": 42, "duration": 10, "velocity": 57}, {"time": 206157, "pitch": 70, "duration": 10, "velocity": 120}, {"time": 206395, "pitch": 38, "duration": 10, "velocity": 100}, {"time": 206395, "pitch": 42, "duration": 10, "velocity": 80}, {"time": 206395, "pitch": 70, "duration": 10, "velocity": 120}, {"time": 206641, "pitch": 42, "duration": 10, "velocity": 54}, {"time": 206886, "pitch": 36, "duration": 10, "velocity": 100}, {"time": 206886, "pitch": 42, "duration": 10, "velocity": 84}, {"time": 206886, "pitch": 70, "duration": 10, "velocity": 120}, {"time": 207125, "pitch": 36, "duration": 10, "velocity": 76}, {"time": 207125, "pitch": 42, "duration": 10, "velocity": 57}, {"time": 207125, "pitch": 70, "duration": 10, "velocity": 120}, {"time": 207363, "pitch": 38, "duration": 10, "velocity": 100}, {"time": 207363, "pitch": 42, "duration": 10, "velocity": 80}, {"time": 207602, "pitch": 42, "duration": 10, "velocity": 54}, {"time": 207602, "pitch": 70, "duration": 10, "velocity": 120}, {"time": 207841, "pitch": 36, "duration": 10, "velocity": 100}, {"time": 207841, "pitch": 42, "duration": 10, "velocity": 82}, {"time": 208080, "pitch": 36, "duration": 10, "velocity": 92}, {"time": 208080, "pitch": 42, "duration": 10, "velocity": 57}, {"time": 208080, "pitch": 70, "duration": 10, "velocity": 120}, {"time": 208318, "pitch": 38, "duration": 10, "velocity": 100}, {"time": 208318, "pitch": 42, "duration": 10, "velocity": 80}, {"time": 208318, "pitch": 70, "duration": 10, "velocity": 120}, {"time": 208557, "pitch": 42, "duration": 10, "velocity": 54}, {"time": 208796, "pitch": 36, "duration": 10, "velocity": 100}, {"time": 208796, "pitch": 42, "duration": 10, "velocity": 84}, {"time": 208796, "pitch": 70, "duration": 10, "velocity": 120}, {"time": 209035, "pitch": 36, "duration": 10, "velocity": 76}, {"time": 209035, "pitch": 42, "duration": 10, "velocity": 57}, {"time": 209035, "pitch": 70, "duration": 10, "velocity": 120}, {"time": 209274, "pitch": 38, "duration": 10, "velocity": 100}, {"time": 209274, "pitch": 46, "duration": 10, "velocity": 80}, {"time": 209519, "pitch": 36, "duration": 10, "velocity": 90}, {"time": 209519, "pitch": 70, "duration": 10, "velocity": 120}, {"time": 209764, "pitch": 36, "duration": 10, "velocity": 100}, {"time": 209764, "pitch": 42, "duration": 10, "velocity": 87}, {"time": 210003, "pitch": 42, "duration": 10, "velocity": 57}, {"time": 210242, "pitch": 38, "duration": 10, "velocity": 100}, {"time": 210242, "pitch": 42, "duration": 10, "velocity": 80}, {"time": 210480, "pitch": 42, "duration": 10, "velocity": 54}, {"time": 210719, "pitch": 36, "duration": 10, "velocity": 100}, {"time": 210719, "pitch": 42, "duration": 10, "velocity": 84}, {"time": 210958, "pitch": 36, "duration": 10, "velocity": 76}, {"time": 210958, "pitch": 42, "duration": 10, "velocity": 57}, {"time": 211197, "pitch": 38, "duration": 10, "velocity": 100}, {"time": 211197, "pitch": 42, "duration": 10, "velocity": 80}, {"time": 211435, "pitch": 36, "duration": 10, "velocity": 90}, {"time": 211435, "pitch": 42, "duration": 10, "velocity": 54}, {"time": 211674, "pitch": 38, "duration": 10, "velocity": 104}, {"time": 211674, "pitch": 42, "duration": 10, "velocity": 87}, {"time": 211919, "pitch": 36, "duration": 11, "velocity": 57}, {"time": 211919, "pitch": 42, "duration": 11, "velocity": 57}, {"time": 212165, "pitch": 36, "duration": 10, "velocity": 90}, {"time": 212165, "pitch": 42, "duration": 10, "velocity": 80}, {"time": 212403, "pitch": 36, "duration": 10, "velocity": 79}, {"time": 212403, "pitch": 42, "duration": 10, "velocity": 54}, {"time": 212642, "pitch": 38, "duration": 10, "velocity": 106}, {"time": 212642, "pitch": 42, "duration": 10, "velocity": 84}, {"time": 212881, "pitch": 36, "duration": 10, "velocity": 76}, {"time": 212881, "pitch": 42, "duration": 10, "velocity": 57}, {"time": 213120, "pitch": 38, "duration": 10, "velocity": 100}, {"time": 213120, "pitch": 42, "duration": 10, "velocity": 80}, {"time": 213359, "pitch": 36, "duration": 9, "velocity": 90}, {"time": 213359, "pitch": 42, "duration": 9, "velocity": 54}, {"time": 213597, "pitch": 36, "duration": 10, "velocity": 100}, {"time": 213597, "pitch": 42, "duration": 10, "velocity": 87}, {"time": 213836, "pitch": 42, "duration": 10, "velocity": 57}, {"time": 214075, "pitch": 38, "duration": 10, "velocity": 100}, {"time": 214075, "pitch": 42, "duration": 10, "velocity": 80}, {"time": 214320, "pitch": 42, "duration": 10, "velocity": 54}, {"time": 214565, "pitch": 36, "duration": 10, "velocity": 100}, {"time": 214565, "pitch": 42, "duration": 10, "velocity": 84}, {"time": 214804, "pitch": 36, "duration": 10, "velocity": 76}, {"time": 214804, "pitch": 42, "duration": 10, "velocity": 57}, {"time": 215043, "pitch": 38, "duration": 10, "velocity": 100}, {"time": 215043, "pitch": 42, "duration": 10, "velocity": 80}, {"time": 215282, "pitch": 36, "duration": 10, "velocity": 90}, {"time": 215282, "pitch": 42, "duration": 10, "velocity": 54}, {"time": 215520, "pitch": 38, "duration": 10, "velocity": 100}, {"time": 215520, "pitch": 42, "duration": 10, "velocity": 80}, {"time": 215759, "pitch": 36, "duration": 10, "velocity": 89}, {"time": 215759, "pitch": 42, "duration": 10, "velocity": 54}, {"time": 215998, "pitch": 36, "duration": 10, "velocity": 100}, {"time": 215998, "pitch": 42, "duration": 10, "velocity": 84}, {"time": 216237, "pitch": 42, "duration": 10, "velocity": 57}, {"time": 216475, "pitch": 38, "duration": 11, "velocity": 100}, {"time": 216475, "pitch": 42, "duration": 11, "velocity": 80}, {"time": 216721, "pitch": 38, "duration": 10, "velocity": 90}, {"time": 216721, "pitch": 42, "duration": 10, "velocity": 54}, {"time": 216966, "pitch": 38, "duration": 10, "velocity": 90}, {"time": 216966, "pitch": 42, "duration": 10, "velocity": 54}, {"time": 217205, "pitch": 38, "duration": 10, "velocity": 90}, {"time": 217205, "pitch": 42, "duration": 10, "velocity": 54}, {"time": 217443, "pitch": 36, "duration": 10, "velocity": 100}, {"time": 217443, "pitch": 40, "duration": 10, "velocity": 63}, {"time": 217443, "pitch": 57, "duration": 10, "velocity": 80}, {"time": 217682, "pitch": 40, "duration": 10, "velocity": 58}, {"time": 217682, "pitch": 42, "duration": 10, "velocity": 78}, {"time": 217802, "pitch": 40, "duration": 10, "velocity": 56}, {"time": 217802, "pitch": 42, "duration": 10, "velocity": 62}, {"time": 217921, "pitch": 36, "duration": 10, "velocity": 100}, {"time": 217921, "pitch": 40, "duration": 10, "velocity": 63}, {"time": 217921, "pitch": 42, "duration": 10, "velocity": 86}, {"time": 218160, "pitch": 40, "duration": 10, "velocity": 58}, {"time": 218160, "pitch": 42, "duration": 10, "velocity": 78}, {"time": 218279, "pitch": 40, "duration": 10, "velocity": 56}, {"time": 218279, "pitch": 42, "duration": 10, "velocity": 62}, {"time": 218399, "pitch": 36, "duration": 10, "velocity": 100}, {"time": 218399, "pitch": 40, "duration": 10, "velocity": 63}, {"time": 218399, "pitch": 42, "duration": 10, "velocity": 86}, {"time": 218637, "pitch": 40, "duration": 10, "velocity": 58}, {"time": 218637, "pitch": 42, "duration": 10, "velocity": 78}, {"time": 218757, "pitch": 40, "duration": 10, "velocity": 56}, {"time": 218757, "pitch": 42, "duration": 10, "velocity": 62}, {"time": 218876, "pitch": 36, "duration": 10, "velocity": 100}, {"time": 218876, "pitch": 40, "duration": 10, "velocity": 63}, {"time": 218876, "pitch": 42, "duration": 10, "velocity": 86}, {"time": 219115, "pitch": 40, "duration": 10, "velocity": 58}, {"time": 219115, "pitch": 42, "duration": 10, "velocity": 78}, {"time": 219234, "pitch": 40, "duration": 10, "velocity": 56}, {"time": 219234, "pitch": 42, "duration": 10, "velocity": 62}, {"time": 219354, "pitch": 36, "duration": 10, "velocity": 100}, {"time": 219354, "pitch": 40, "duration": 10, "velocity": 63}, {"time": 219354, "pitch": 42, "duration": 10, "velocity": 88}, {"time": 219599, "pitch": 40, "duration": 10, "velocity": 58}, {"time": 219599, "pitch": 42, "duration": 10, "velocity": 78}, {"time": 219722, "pitch": 40, "duration": 10, "velocity": 56}, {"time": 219722, "pitch": 42, "duration": 10, "velocity": 62}, {"time": 219844, "pitch": 36, "duration": 10, "velocity": 100}, {"time": 219844, "pitch": 40, "duration": 10, "velocity": 63}, {"time": 219844, "pitch": 42, "duration": 10, "velocity": 86}, {"time": 220083, "pitch": 40, "duration": 10, "velocity": 58}, {"time": 220083, "pitch": 42, "duration": 10, "velocity": 78}, {"time": 220202, "pitch": 40, "duration": 10, "velocity": 56}, {"time": 220202, "pitch": 42, "duration": 10, "velocity": 62}, {"time": 220322, "pitch": 36, "duration": 10, "velocity": 100}, {"time": 220322, "pitch": 40, "duration": 10, "velocity": 63}, {"time": 220322, "pitch": 42, "duration": 10, "velocity": 86}, {"time": 220560, "pitch": 40, "duration": 10, "velocity": 58}, {"time": 220560, "pitch": 42, "duration": 10, "velocity": 78}, {"time": 220680, "pitch": 40, "duration": 10, "velocity": 56}, {"time": 220680, "pitch": 42, "duration": 10, "velocity": 62}, {"time": 220799, "pitch": 36, "duration": 10, "velocity": 100}, {"time": 220799, "pitch": 40, "duration": 10, "velocity": 63}, {"time": 220799, "pitch": 42, "duration": 10, "velocity": 86}, {"time": 221038, "pitch": 40, "duration": 10, "velocity": 58}, {"time": 221038, "pitch": 42, "duration": 10, "velocity": 78}, {"time": 221157, "pitch": 40, "duration": 10, "velocity": 56}, {"time": 221157, "pitch": 42, "duration": 10, "velocity": 62}, {"time": 221277, "pitch": 36, "duration": 10, "velocity": 100}, {"time": 221277, "pitch": 40, "duration": 10, "velocity": 63}, {"time": 221277, "pitch": 42, "duration": 10, "velocity": 88}, {"time": 221515, "pitch": 40, "duration": 10, "velocity": 58}, {"time": 221515, "pitch": 42, "duration": 10, "velocity": 78}, {"time": 221635, "pitch": 40, "duration": 10, "velocity": 56}, {"time": 221635, "pitch": 42, "duration": 10, "velocity": 62}, {"time": 221754, "pitch": 36, "duration": 10, "velocity": 100}, {"time": 221754, "pitch": 40, "duration": 10, "velocity": 63}, {"time": 221754, "pitch": 42, "duration": 10, "velocity": 86}, {"time": 221999, "pitch": 40, "duration": 11, "velocity": 58}, {"time": 221999, "pitch": 42, "duration": 11, "velocity": 78}, {"time": 222122, "pitch": 40, "duration": 10, "velocity": 56}, {"time": 222122, "pitch": 42, "duration": 10, "velocity": 62}, {"time": 222245, "pitch": 36, "duration": 10, "velocity": 100}, {"time": 222245, "pitch": 40, "duration": 10, "velocity": 63}, {"time": 222245, "pitch": 42, "duration": 10, "velocity": 86}, {"time": 222484, "pitch": 40, "duration": 9, "velocity": 58}, {"time": 222484, "pitch": 42, "duration": 9, "velocity": 78}, {"time": 222603, "pitch": 40, "duration": 10, "velocity": 56}, {"time": 222603, "pitch": 42, "duration": 10, "velocity": 62}, {"time": 222722, "pitch": 36, "duration": 10, "velocity": 100}, {"time": 222722, "pitch": 40, "duration": 10, "velocity": 63}, {"time": 222722, "pitch": 42, "duration": 10, "velocity": 82}, {"time": 222961, "pitch": 40, "duration": 10, "velocity": 58}, {"time": 222961, "pitch": 42, "duration": 10, "velocity": 78}, {"time": 223080, "pitch": 40, "duration": 10, "velocity": 56}, {"time": 223080, "pitch": 42, "duration": 10, "velocity": 62}, {"time": 223200, "pitch": 36, "duration": 10, "velocity": 100}, {"time": 223200, "pitch": 40, "duration": 10, "velocity": 63}, {"time": 223200, "pitch": 42, "duration": 10, "velocity": 88}, {"time": 223439, "pitch": 40, "duration": 10, "velocity": 58}, {"time": 223439, "pitch": 42, "duration": 10, "velocity": 78}, {"time": 223558, "pitch": 40, "duration": 10, "velocity": 56}, {"time": 223558, "pitch": 42, "duration": 10, "velocity": 62}, {"time": 223677, "pitch": 36, "duration": 10, "velocity": 100}, {"time": 223677, "pitch": 40, "duration": 10, "velocity": 63}, {"time": 223677, "pitch": 42, "duration": 10, "velocity": 86}, {"time": 223916, "pitch": 40, "duration": 10, "velocity": 58}, {"time": 223916, "pitch": 42, "duration": 10, "velocity": 78}, {"time": 224036, "pitch": 40, "duration": 9, "velocity": 56}, {"time": 224036, "pitch": 42, "duration": 9, "velocity": 62}, {"time": 224155, "pitch": 36, "duration": 10, "velocity": 100}, {"time": 224155, "pitch": 40, "duration": 10, "velocity": 63}, {"time": 224155, "pitch": 42, "duration": 10, "velocity": 86}, {"time": 224400, "pitch": 40, "duration": 10, "velocity": 58}, {"time": 224400, "pitch": 42, "duration": 10, "velocity": 78}, {"time": 224523, "pitch": 40, "duration": 10, "velocity": 56}, {"time": 224523, "pitch": 42, "duration": 10, "velocity": 62}, {"time": 224645, "pitch": 36, "duration": 10, "velocity": 100}, {"time": 224645, "pitch": 38, "duration": 10, "velocity": 100}, {"time": 224645, "pitch": 40, "duration": 10, "velocity": 63}, {"time": 224645, "pitch": 42, "duration": 10, "velocity": 86}, {"time": 224884, "pitch": 40, "duration": 10, "velocity": 58}, {"time": 224884, "pitch": 42, "duration": 10, "velocity": 78}, {"time": 225004, "pitch": 40, "duration": 9, "velocity": 56}, {"time": 225004, "pitch": 42, "duration": 9, "velocity": 62}, {"time": 225123, "pitch": 36, "duration": 10, "velocity": 100}, {"time": 225123, "pitch": 40, "duration": 10, "velocity": 63}, {"time": 225123, "pitch": 49, "duration": 10, "velocity": 80}, {"time": 225362, "pitch": 40, "duration": 10, "velocity": 58}, {"time": 225362, "pitch": 42, "duration": 10, "velocity": 78}, {"time": 225481, "pitch": 40, "duration": 10, "velocity": 56}, {"time": 225481, "pitch": 42, "duration": 10, "velocity": 62}, {"time": 225600, "pitch": 36, "duration": 10, "velocity": 100}, {"time": 225600, "pitch": 40, "duration": 10, "velocity": 63}, {"time": 225600, "pitch": 42, "duration": 10, "velocity": 86}, {"time": 225839, "pitch": 40, "duration": 10, "velocity": 58}, {"time": 225839, "pitch": 42, "duration": 10, "velocity": 78}, {"time": 225959, "pitch": 40, "duration": 10, "velocity": 56}, {"time": 225959, "pitch": 42, "duration": 10, "velocity": 62}, {"time": 226078, "pitch": 36, "duration": 10, "velocity": 100}, {"time": 226078, "pitch": 40, "duration": 10, "velocity": 63}, {"time": 226078, "pitch": 42, "duration": 10, "velocity": 86}, {"time": 226317, "pitch": 40, "duration": 10, "velocity": 58}, {"time": 226317, "pitch": 42, "duration": 10, "velocity": 78}, {"time": 226436, "pitch": 40, "duration": 10, "velocity": 56}, {"time": 226436, "pitch": 42, "duration": 10, "velocity": 62}, {"time": 226556, "pitch": 36, "duration": 10, "velocity": 100}, {"time": 226556, "pitch": 40, "duration": 10, "velocity": 63}, {"time": 226556, "pitch": 42, "duration": 10, "velocity": 86}, {"time": 226801, "pitch": 40, "duration": 10, "velocity": 58}, {"time": 226801, "pitch": 42, "duration": 10, "velocity": 78}, {"time": 226923, "pitch": 40, "duration": 11, "velocity": 56}, {"time": 226923, "pitch": 42, "duration": 11, "velocity": 62}, {"time": 227046, "pitch": 36, "duration": 10, "velocity": 100}, {"time": 227046, "pitch": 40, "duration": 10, "velocity": 63}, {"time": 227046, "pitch": 42, "duration": 10, "velocity": 88}, {"time": 227285, "pitch": 40, "duration": 10, "velocity": 58}, {"time": 227285, "pitch": 42, "duration": 10, "velocity": 78}, {"time": 227404, "pitch": 40, "duration": 10, "velocity": 56}, {"time": 227404, "pitch": 42, "duration": 10, "velocity": 62}, {"time": 227524, "pitch": 36, "duration": 10, "velocity": 100}, {"time": 227524, "pitch": 40, "duration": 10, "velocity": 63}, {"time": 227524, "pitch": 42, "duration": 10, "velocity": 86}, {"time": 227762, "pitch": 40, "duration": 10, "velocity": 58}, {"time": 227762, "pitch": 42, "duration": 10, "velocity": 78}, {"time": 227882, "pitch": 40, "duration": 10, "velocity": 56}, {"time": 227882, "pitch": 42, "duration": 10, "velocity": 62}, {"time": 228001, "pitch": 36, "duration": 10, "velocity": 100}, {"time": 228001, "pitch": 40, "duration": 10, "velocity": 63}, {"time": 228001, "pitch": 42, "duration": 10, "velocity": 86}, {"time": 228240, "pitch": 40, "duration": 10, "velocity": 58}, {"time": 228240, "pitch": 42, "duration": 10, "velocity": 78}, {"time": 228359, "pitch": 40, "duration": 10, "velocity": 56}, {"time": 228359, "pitch": 42, "duration": 10, "velocity": 62}, {"time": 228479, "pitch": 36, "duration": 10, "velocity": 100}, {"time": 228479, "pitch": 40, "duration": 10, "velocity": 63}, {"time": 228479, "pitch": 42, "duration": 10, "velocity": 86}, {"time": 228717, "pitch": 40, "duration": 10, "velocity": 58}, {"time": 228717, "pitch": 42, "duration": 10, "velocity": 78}, {"time": 228837, "pitch": 40, "duration": 10, "velocity": 56}, {"time": 228837, "pitch": 42, "duration": 10, "velocity": 62}, {"time": 228956, "pitch": 36, "duration": 10, "velocity": 100}, {"time": 228956, "pitch": 40, "duration": 10, "velocity": 63}, {"time": 228956, "pitch": 42, "duration": 10, "velocity": 88}, {"time": 229195, "pitch": 40, "duration": 10, "velocity": 58}, {"time": 229195, "pitch": 42, "duration": 10, "velocity": 78}, {"time": 229314, "pitch": 40, "duration": 10, "velocity": 56}, {"time": 229314, "pitch": 42, "duration": 10, "velocity": 62}, {"time": 229434, "pitch": 36, "duration": 10, "velocity": 100}, {"time": 229434, "pitch": 40, "duration": 10, "velocity": 63}, {"time": 229434, "pitch": 42, "duration": 10, "velocity": 86}, {"time": 229679, "pitch": 40, "duration": 10, "velocity": 58}, {"time": 229679, "pitch": 42, "duration": 10, "velocity": 78}, {"time": 229802, "pitch": 40, "duration": 10, "velocity": 56}, {"time": 229802, "pitch": 42, "duration": 10, "velocity": 62}, {"time": 229924, "pitch": 36, "duration": 10, "velocity": 100}, {"time": 229924, "pitch": 40, "duration": 10, "velocity": 63}, {"time": 229924, "pitch": 42, "duration": 10, "velocity": 86}, {"time": 230163, "pitch": 40, "duration": 10, "velocity": 58}, {"time": 230163, "pitch": 42, "duration": 10, "velocity": 78}, {"time": 230282, "pitch": 40, "duration": 10, "velocity": 56}, {"time": 230282, "pitch": 42, "duration": 10, "velocity": 62}, {"time": 230402, "pitch": 36, "duration": 10, "velocity": 100}, {"time": 230402, "pitch": 40, "duration": 10, "velocity": 63}, {"time": 230402, "pitch": 42, "duration": 10, "velocity": 82}, {"time": 230640, "pitch": 40, "duration": 10, "velocity": 58}, {"time": 230640, "pitch": 42, "duration": 10, "velocity": 78}, {"time": 230760, "pitch": 40, "duration": 10, "velocity": 56}, {"time": 230760, "pitch": 42, "duration": 10, "velocity": 62}, {"time": 230879, "pitch": 36, "duration": 10, "velocity": 100}, {"time": 230879, "pitch": 40, "duration": 10, "velocity": 63}, {"time": 230879, "pitch": 42, "duration": 10, "velocity": 88}, {"time": 231118, "pitch": 38, "duration": 10, "velocity": 88}, {"time": 231118, "pitch": 40, "duration": 10, "velocity": 58}, {"time": 231118, "pitch": 42, "duration": 10, "velocity": 78}, {"time": 231237, "pitch": 38, "duration": 10, "velocity": 82}, {"time": 231237, "pitch": 40, "duration": 10, "velocity": 56}, {"time": 231237, "pitch": 42, "duration": 10, "velocity": 62}, {"time": 231357, "pitch": 36, "duration": 10, "velocity": 100}, {"time": 231357, "pitch": 40, "duration": 10, "velocity": 63}, {"time": 231357, "pitch": 42, "duration": 10, "velocity": 86}, {"time": 231596, "pitch": 40, "duration": 10, "velocity": 58}, {"time": 231596, "pitch": 42, "duration": 10, "velocity": 78}, {"time": 231715, "pitch": 38, "duration": 10, "velocity": 72}, {"time": 231715, "pitch": 40, "duration": 10, "velocity": 56}, {"time": 231715, "pitch": 42, "duration": 10, "velocity": 62}, {"time": 231834, "pitch": 36, "duration": 10, "velocity": 100}, {"time": 231834, "pitch": 40, "duration": 10, "velocity": 63}, {"time": 231834, "pitch": 42, "duration": 10, "velocity": 86}, {"time": 232080, "pitch": 40, "duration": 10, "velocity": 58}, {"time": 232080, "pitch": 42, "duration": 10, "velocity": 78}, {"time": 232202, "pitch": 40, "duration": 10, "velocity": 56}, {"time": 232202, "pitch": 42, "duration": 10, "velocity": 62}, {"time": 232325, "pitch": 36, "duration": 10, "velocity": 100}, {"time": 232325, "pitch": 38, "duration": 10, "velocity": 100}, {"time": 232325, "pitch": 40, "duration": 10, "velocity": 63}, {"time": 232325, "pitch": 46, "duration": 10, "velocity": 86}, {"time": 232444, "pitch": 38, "duration": 10, "velocity": 70}, {"time": 232564, "pitch": 38, "duration": 10, "velocity": 96}, {"time": 232564, "pitch": 40, "duration": 10, "velocity": 58}, {"time": 232683, "pitch": 38, "duration": 10, "velocity": 87}, {"time": 232683, "pitch": 40, "duration": 10, "velocity": 56}, {"time": 232802, "pitch": 36, "duration": 10, "velocity": 100}, {"time": 232802, "pitch": 57, "duration": 10, "velocity": 80}, {"time": 233041, "pitch": 42, "duration": 10, "velocity": 56}, {"time": 233280, "pitch": 38, "duration": 10, "velocity": 103}, {"time": 233280, "pitch": 42, "duration": 10, "velocity": 77}, {"time": 233519, "pitch": 42, "duration": 10, "velocity": 54}, {"time": 233757, "pitch": 36, "duration": 10, "velocity": 100}, {"time": 233757, "pitch": 42, "duration": 10, "velocity": 80}, {"time": 233996, "pitch": 42, "duration": 10, "velocity": 56}, {"time": 234235, "pitch": 42, "duration": 10, "velocity": 77}, {"time": 234235, "pitch": 45, "duration": 10, "velocity": 110}, {"time": 234480, "pitch": 42, "duration": 10, "velocity": 54}, {"time": 234725, "pitch": 36, "duration": 10, "velocity": 100}, {"time": 234725, "pitch": 42, "duration": 10, "velocity": 80}, {"time": 234964, "pitch": 42, "duration": 10, "velocity": 56}, {"time": 235203, "pitch": 38, "duration": 10, "velocity": 103}, {"time": 235203, "pitch": 42, "duration": 10, "velocity": 77}, {"time": 235442, "pitch": 42, "duration": 10, "velocity": 54}, {"time": 235681, "pitch": 36, "duration": 9, "velocity": 100}, {"time": 235681, "pitch": 42, "duration": 9, "velocity": 80}, {"time": 235919, "pitch": 36, "duration": 10, "velocity": 76}, {"time": 235919, "pitch": 42, "duration": 10, "velocity": 56}, {"time": 235919, "pitch": 47, "duration": 10, "velocity": 106}, {"time": 236158, "pitch": 42, "duration": 10, "velocity": 77}, {"time": 236158, "pitch": 45, "duration": 10, "velocity": 112}, {"time": 236397, "pitch": 36, "duration": 10, "velocity": 74}, {"time": 236397, "pitch": 57, "duration": 10, "velocity": 80}, {"time": 236636, "pitch": 36, "duration": 10, "velocity": 100}, {"time": 236636, "pitch": 49, "duration": 10, "velocity": 80}, {"time": 236881, "pitch": 42, "duration": 10, "velocity": 56}, {"time": 237126, "pitch": 38, "duration": 10, "velocity": 103}, {"time": 237126, "pitch": 42, "duration": 10, "velocity": 77}, {"time": 237365, "pitch": 42, "duration": 10, "velocity": 54}, {"time": 237604, "pitch": 36, "duration": 10, "velocity": 100}, {"time": 237604, "pitch": 42, "duration": 10, "velocity": 80}, {"time": 237842, "pitch": 42, "duration": 10, "velocity": 56}, {"time": 238081, "pitch": 42, "duration": 10, "velocity": 77}, {"time": 238081, "pitch": 45, "duration": 10, "velocity": 110}, {"time": 238320, "pitch": 42, "duration": 10, "velocity": 54}, {"time": 238559, "pitch": 36, "duration": 10, "velocity": 100}, {"time": 238559, "pitch": 42, "duration": 10, "velocity": 80}, {"time": 238797, "pitch": 42, "duration": 10, "velocity": 56}, {"time": 239036, "pitch": 38, "duration": 10, "velocity": 103}, {"time": 239036, "pitch": 42, "duration": 10, "velocity": 77}, {"time": 239275, "pitch": 42, "duration": 10, "velocity": 54}, {"time": 239514, "pitch": 36, "duration": 10, "velocity": 100}, {"time": 239514, "pitch": 42, "duration": 10, "velocity": 80}, {"time": 239759, "pitch": 38, "duration": 10, "velocity": 83}, {"time": 239759, "pitch": 42, "duration": 10, "velocity": 87}, {"time": 239882, "pitch": 38, "duration": 10, "velocity": 84}, {"time": 240004, "pitch": 42, "duration": 10, "velocity": 77}, {"time": 240004, "pitch": 47, "duration": 10, "velocity": 102}, {"time": 240243, "pitch": 36, "duration": 10, "velocity": 74}, {"time": 240243, "pitch": 42, "duration": 10, "velocity": 54}, {"time": 240243, "pitch": 45, "duration": 10, "velocity": 94}, {"time": 240482, "pitch": 36, "duration": 10, "velocity": 100}, {"time": 240482, "pitch": 57, "duration": 10, "velocity": 80}, {"time": 240721, "pitch": 42, "duration": 10, "velocity": 62}, {"time": 240959, "pitch": 42, "duration": 10, "velocity": 77}, {"time": 241198, "pitch": 36, "duration": 10, "velocity": 87}, {"time": 241198, "pitch": 42, "duration": 10, "velocity": 54}, {"time": 241437, "pitch": 38, "duration": 10, "velocity": 103}, {"time": 241437, "pitch": 42, "duration": 10, "velocity": 80}, {"time": 241676, "pitch": 42, "duration": 10, "velocity": 56}, {"time": 241914, "pitch": 42, "duration": 10, "velocity": 77}, {"time": 242160, "pitch": 36, "duration": 10, "velocity": 74}, {"time": 242160, "pitch": 38, "duration": 10, "velocity": 56}, {"time": 242160, "pitch": 42, "duration": 10, "velocity": 54}, {"time": 242282, "pitch": 38, "duration": 11, "velocity": 49}, {"time": 242405, "pitch": 36, "duration": 10, "velocity": 100}, {"time": 242405, "pitch": 42, "duration": 10, "velocity": 83}, {"time": 242644, "pitch": 38, "duration": 10, "velocity": 76}, {"time": 242644, "pitch": 42, "duration": 10, "velocity": 62}, {"time": 242882, "pitch": 42, "duration": 10, "velocity": 77}, {"time": 243121, "pitch": 36, "duration": 10, "velocity": 87}, {"time": 243121, "pitch": 42, "duration": 10, "velocity": 54}, {"time": 243360, "pitch": 38, "duration": 10, "velocity": 103}, {"time": 243360, "pitch": 42, "duration": 10, "velocity": 80}, {"time": 243599, "pitch": 36, "duration": 10, "velocity": 87}, {"time": 243599, "pitch": 42, "duration": 10, "velocity": 56}, {"time": 243838, "pitch": 38, "duration": 9, "velocity": 90}, {"time": 243838, "pitch": 46, "duration": 9, "velocity": 77}, {"time": 243957, "pitch": 38, "duration": 10, "velocity": 83}, {"time": 244076, "pitch": 36, "duration": 10, "velocity": 74}, {"time": 244076, "pitch": 47, "duration": 10, "velocity": 84}, {"time": 244196, "pitch": 45, "duration": 10, "velocity": 74}, {"time": 244315, "pitch": 36, "duration": 10, "velocity": 100}, {"time": 244315, "pitch": 57, "duration": 10, "velocity": 88}, {"time": 244652, "pitch": 36, "duration": 11, "velocity": 100}, {"time": 244652, "pitch": 57, "duration": 11, "velocity": 88}, {"time": 244985, "pitch": 36, "duration": 10, "velocity": 100}, {"time": 244985, "pitch": 49, "duration": 10, "velocity": 90}, {"time": 245283, "pitch": 36, "duration": 10, "velocity": 100}, {"time": 245283, "pitch": 57, "duration": 10, "velocity": 88}, {"time": 245611, "pitch": 36, "duration": 10, "velocity": 100}, {"time": 245611, "pitch": 57, "duration": 10, "velocity": 88}, {"time": 245940, "pitch": 36, "duration": 10, "velocity": 100}, {"time": 245940, "pitch": 49, "duration": 10, "velocity": 90}, {"time": 246238, "pitch": 36, "duration": 10, "velocity": 95}, {"time": 246238, "pitch": 49, "duration": 10, "velocity": 75}, {"time": 246238, "pitch": 57, "duration": 10, "velocity": 70}, {"time": 246961, "pitch": 36, "duration": 10, "velocity": 97}, {"time": 247084, "pitch": 36, "duration": 10, "velocity": 84}, {"time": 247206, "pitch": 38, "duration": 10, "velocity": 100}, {"time": 247206, "pitch": 46, "duration": 10, "velocity": 100}, {"time": 247445, "pitch": 36, "duration": 10, "velocity": 90}, {"time": 247684, "pitch": 38, "duration": 10, "velocity": 106}, {"time": 247684, "pitch": 46, "duration": 10, "velocity": 93}, {"time": 247922, "pitch": 36, "duration": 10, "velocity": 97}, {"time": 248161, "pitch": 36, "duration": 10, "velocity": 100}, {"time": 248161, "pitch": 57, "duration": 10, "velocity": 87}, {"time": 248400, "pitch": 36, "duration": 10, "velocity": 87}, {"time": 248400, "pitch": 42, "duration": 10, "velocity": 57}, {"time": 248639, "pitch": 38, "duration": 10, "velocity": 100}, {"time": 248639, "pitch": 42, "duration": 10, "velocity": 80}, {"time": 248878, "pitch": 36, "duration": 9, "velocity": 79}, {"time": 248878, "pitch": 42, "duration": 9, "velocity": 54}, {"time": 249116, "pitch": 38, "duration": 10, "velocity": 100}, {"time": 249116, "pitch": 42, "duration": 10, "velocity": 84}, {"time": 249355, "pitch": 42, "duration": 10, "velocity": 57}, {"time": 249594, "pitch": 36, "duration": 10, "velocity": 100}, {"time": 249594, "pitch": 42, "duration": 10, "velocity": 80}, {"time": 249839, "pitch": 36, "duration": 10, "velocity": 90}, {"time": 249839, "pitch": 42, "duration": 10, "velocity": 54}, {"time": 250084, "pitch": 38, "duration": 10, "velocity": 100}, {"time": 250084, "pitch": 42, "duration": 10, "velocity": 80}, {"time": 250323, "pitch": 36, "duration": 10, "velocity": 79}, {"time": 250323, "pitch": 42, "duration": 10, "velocity": 54}, {"time": 250562, "pitch": 38, "duration": 10, "velocity": 100}, {"time": 250562, "pitch": 42, "duration": 10, "velocity": 84}, {"time": 250801, "pitch": 42, "duration": 10, "velocity": 57}, {"time": 251039, "pitch": 36, "duration": 10, "velocity": 100}, {"time": 251039, "pitch": 42, "duration": 10, "velocity": 80}, {"time": 251278, "pitch": 36, "duration": 10, "velocity": 90}, {"time": 251278, "pitch": 42, "duration": 10, "velocity": 54}, {"time": 251517, "pitch": 38, "duration": 10, "velocity": 100}, {"time": 251517, "pitch": 42, "duration": 10, "velocity": 80}, {"time": 251756, "pitch": 36, "duration": 10, "velocity": 79}, {"time": 251756, "pitch": 42, "duration": 10, "velocity": 54}, {"time": 251994, "pitch": 38, "duration": 11, "velocity": 100}, {"time": 251994, "pitch": 42, "duration": 11, "velocity": 84}, {"time": 252240, "pitch": 42, "duration": 10, "velocity": 57}, {"time": 252485, "pitch": 36, "duration": 10, "velocity": 100}, {"time": 252485, "pitch": 42, "duration": 10, "velocity": 80}, {"time": 252724, "pitch": 36, "duration": 10, "velocity": 90}, {"time": 252724, "pitch": 42, "duration": 10, "velocity": 54}, {"time": 252963, "pitch": 38, "duration": 9, "velocity": 100}, {"time": 252963, "pitch": 42, "duration": 9, "velocity": 80}, {"time": 253201, "pitch": 36, "duration": 10, "velocity": 79}, {"time": 253201, "pitch": 42, "duration": 10, "velocity": 54}, {"time": 253440, "pitch": 38, "duration": 10, "velocity": 100}, {"time": 253440, "pitch": 42, "duration": 10, "velocity": 84}, {"time": 253679, "pitch": 36, "duration": 10, "velocity": 81}, {"time": 253679, "pitch": 42, "duration": 10, "velocity": 57}, {"time": 253918, "pitch": 36, "duration": 10, "velocity": 100}, {"time": 253918, "pitch": 57, "duration": 10, "velocity": 87}, {"time": 254156, "pitch": 36, "duration": 10, "velocity": 87}, {"time": 254156, "pitch": 42, "duration": 10, "velocity": 57}, {"time": 254395, "pitch": 38, "duration": 10, "velocity": 100}, {"time": 254395, "pitch": 42, "duration": 10, "velocity": 80}, {"time": 254640, "pitch": 36, "duration": 11, "velocity": 79}, {"time": 254640, "pitch": 42, "duration": 11, "velocity": 54}, {"time": 254886, "pitch": 38, "duration": 10, "velocity": 100}, {"time": 254886, "pitch": 42, "duration": 10, "velocity": 84}, {"time": 255124, "pitch": 42, "duration": 10, "velocity": 57}, {"time": 255363, "pitch": 36, "duration": 10, "velocity": 100}, {"time": 255363, "pitch": 42, "duration": 10, "velocity": 80}, {"time": 255602, "pitch": 36, "duration": 10, "velocity": 90}, {"time": 255602, "pitch": 42, "duration": 10, "velocity": 54}, {"time": 255841, "pitch": 38, "duration": 10, "velocity": 100}, {"time": 255841, "pitch": 42, "duration": 10, "velocity": 80}, {"time": 256079, "pitch": 36, "duration": 10, "velocity": 79}, {"time": 256079, "pitch": 42, "duration": 10, "velocity": 54}, {"time": 256318, "pitch": 38, "duration": 10, "velocity": 100}, {"time": 256318, "pitch": 42, "duration": 10, "velocity": 84}, {"time": 256557, "pitch": 42, "duration": 10, "velocity": 57}, {"time": 256796, "pitch": 36, "duration": 10, "velocity": 100}, {"time": 256796, "pitch": 42, "duration": 10, "velocity": 80}, {"time": 257041, "pitch": 36, "duration": 10, "velocity": 90}, {"time": 257041, "pitch": 42, "duration": 10, "velocity": 54}, {"time": 257286, "pitch": 38, "duration": 10, "velocity": 100}, {"time": 257286, "pitch": 42, "duration": 10, "velocity": 80}, {"time": 257525, "pitch": 36, "duration": 10, "velocity": 79}, {"time": 257525, "pitch": 42, "duration": 10, "velocity": 54}, {"time": 257764, "pitch": 38, "duration": 10, "velocity": 100}, {"time": 257764, "pitch": 42, "duration": 10, "velocity": 84}, {"time": 258003, "pitch": 42, "duration": 10, "velocity": 57}, {"time": 258241, "pitch": 36, "duration": 10, "velocity": 100}, {"time": 258241, "pitch": 42, "duration": 10, "velocity": 80}, {"time": 258480, "pitch": 36, "duration": 10, "velocity": 90}, {"time": 258480, "pitch": 42, "duration": 10, "velocity": 54}, {"time": 258719, "pitch": 38, "duration": 10, "velocity": 100}, {"time": 258719, "pitch": 42, "duration": 10, "velocity": 80}, {"time": 258958, "pitch": 36, "duration": 10, "velocity": 79}, {"time": 258958, "pitch": 42, "duration": 10, "velocity": 54}, {"time": 259196, "pitch": 38, "duration": 10, "velocity": 100}, {"time": 259196, "pitch": 42, "duration": 10, "velocity": 84}, {"time": 259435, "pitch": 36, "duration": 10, "velocity": 81}, {"time": 259435, "pitch": 42, "duration": 10, "velocity": 57}], "annotations": [{"time": 230, "annotation": {"number": 0, "value": 0}, "group": "control_change"}, {"time": 251, "annotation": {"number": 32, "value": 0}, "group": "control_change"}, {"time": 293, "annotation": {"number": 7, "value": 110}, "group": "control_change"}, {"time": 314, "annotation": {"number": 11, "value": 110}, "group": "control_change"}, {"time": 335, "annotation": {"number": 91, "value": 30}, "group": "control_change"}, {"time": 356, "annotation": {"number": 93, "value": 10}, "group": "control_change"}, {"time": 377, "annotation": {"number": 101, "value": 127}, "group": "control_change"}, {"time": 397, "annotation": {"number": 100, "value": 127}, "group": "control_change"}]}, {"program": 0, "is_drum": false, "name": "E.G-L", "annotations": [{"time": 230, "annotation": {"number": 0, "value": 0}, "group": "control_change"}, {"time": 251, "annotation": {"number": 32, "value": 0}, "group": "control_change"}]}, {"program": 30, "is_drum": false, "name": "E.G-L", "notes": [{"time": 4316, "pitch": 43, "duration": 448, "velocity": 69}, {"time": 4794, "pitch": 59, "duration": 245, "velocity": 75}, {"time": 4794, "pitch": 62, "duration": 245, "velocity": 69}, {"time": 4794, "pitch": 67, "duration": 245, "velocity": 65}, {"time": 5284, "pitch": 59, "duration": 239, "velocity": 75}, {"time": 5284, "pitch": 62, "duration": 239, "velocity": 69}, {"time": 5284, "pitch": 67, "duration": 239, "velocity": 65}, {"time": 5762, "pitch": 41, "duration": 448, "velocity": 69}, {"time": 6239, "pitch": 57, "duration": 239, "velocity": 75}, {"time": 6239, "pitch": 60, "duration": 239, "velocity": 69}, {"time": 6239, "pitch": 65, "duration": 239, "velocity": 65}, {"time": 6717, "pitch": 57, "duration": 239, "velocity": 75}, {"time": 6717, "pitch": 60, "duration": 239, "velocity": 69}, {"time": 6717, "pitch": 65, "duration": 239, "velocity": 65}, {"time": 7195, "pitch": 40, "duration": 459, "velocity": 69}, {"time": 7685, "pitch": 59, "duration": 239, "velocity": 73}, {"time": 7685, "pitch": 62, "duration": 239, "velocity": 71}, {"time": 7685, "pitch": 64, "duration": 239, "velocity": 71}, {"time": 7685, "pitch": 68, "duration": 239, "velocity": 63}, {"time": 8163, "pitch": 59, "duration": 238, "velocity": 73}, {"time": 8163, "pitch": 62, "duration": 238, "velocity": 71}, {"time": 8163, "pitch": 64, "duration": 238, "velocity": 71}, {"time": 8163, "pitch": 68, "duration": 238, "velocity": 63}, {"time": 8640, "pitch": 39, "duration": 448, "velocity": 73}, {"time": 9118, "pitch": 55, "duration": 238, "velocity": 75}, {"time": 9118, "pitch": 58, "duration": 238, "velocity": 70}, {"time": 9118, "pitch": 63, "duration": 238, "velocity": 65}, {"time": 9595, "pitch": 43, "duration": 245, "velocity": 55}, {"time": 9595, "pitch": 59, "duration": 245, "velocity": 75}, {"time": 9595, "pitch": 62, "duration": 245, "velocity": 70}, {"time": 9595, "pitch": 67, "duration": 245, "velocity": 65}, {"time": 10086, "pitch": 43, "duration": 447, "velocity": 69}, {"time": 10563, "pitch": 59, "duration": 239, "velocity": 75}, {"time": 10563, "pitch": 62, "duration": 239, "velocity": 69}, {"time": 10563, "pitch": 67, "duration": 239, "velocity": 65}, {"time": 11041, "pitch": 59, "duration": 238, "velocity": 75}, {"time": 11041, "pitch": 62, "duration": 238, "velocity": 69}, {"time": 11041, "pitch": 67, "duration": 238, "velocity": 65}, {"time": 11518, "pitch": 41, "duration": 448, "velocity": 69}, {"time": 11996, "pitch": 57, "duration": 245, "velocity": 75}, {"time": 11996, "pitch": 60, "duration": 245, "velocity": 69}, {"time": 11996, "pitch": 65, "duration": 245, "velocity": 65}, {"time": 12486, "pitch": 57, "duration": 239, "velocity": 75}, {"time": 12486, "pitch": 60, "duration": 239, "velocity": 69}, {"time": 12486, "pitch": 65, "duration": 239, "velocity": 65}, {"time": 12964, "pitch": 40, "duration": 448, "velocity": 69}, {"time": 13441, "pitch": 59, "duration": 239, "velocity": 75}, {"time": 13441, "pitch": 62, "duration": 239, "velocity": 75}, {"time": 13441, "pitch": 64, "duration": 239, "velocity": 75}, {"time": 13441, "pitch": 67, "duration": 239, "velocity": 75}, {"time": 13441, "pitch": 68, "duration": 239, "velocity": 75}, {"time": 13919, "pitch": 59, "duration": 239, "velocity": 73}, {"time": 13919, "pitch": 62, "duration": 239, "velocity": 71}, {"time": 13919, "pitch": 64, "duration": 239, "velocity": 71}, {"time": 13919, "pitch": 65, "duration": 239, "velocity": 69}, {"time": 13919, "pitch": 68, "duration": 239, "velocity": 63}, {"time": 14396, "pitch": 39, "duration": 448, "velocity": 73}, {"time": 14874, "pitch": 55, "duration": 245, "velocity": 75}, {"time": 14874, "pitch": 58, "duration": 245, "velocity": 70}, {"time": 14874, "pitch": 63, "duration": 245, "velocity": 65}, {"time": 15364, "pitch": 43, "duration": 239, "velocity": 55}, {"time": 15364, "pitch": 59, "duration": 239, "velocity": 75}, {"time": 15364, "pitch": 62, "duration": 239, "velocity": 70}, {"time": 15364, "pitch": 67, "duration": 239, "velocity": 65}, {"time": 15842, "pitch": 43, "duration": 239, "velocity": 75}, {"time": 16081, "pitch": 53, "duration": 239, "velocity": 75}, {"time": 16081, "pitch": 59, "duration": 239, "velocity": 55}, {"time": 16558, "pitch": 43, "duration": 239, "velocity": 75}, {"time": 16797, "pitch": 53, "duration": 239, "velocity": 75}, {"time": 16797, "pitch": 59, "duration": 239, "velocity": 55}, {"time": 17275, "pitch": 43, "duration": 245, "velocity": 75}, {"time": 17520, "pitch": 53, "duration": 245, "velocity": 75}, {"time": 17520, "pitch": 59, "duration": 245, "velocity": 55}, {"time": 18004, "pitch": 43, "duration": 239, "velocity": 75}, {"time": 18243, "pitch": 53, "duration": 238, "velocity": 75}, {"time": 18243, "pitch": 59, "duration": 238, "velocity": 55}, {"time": 18481, "pitch": 43, "duration": 239, "velocity": 65}, {"time": 18720, "pitch": 60, "duration": 239, "velocity": 70}, {"time": 18959, "pitch": 59, "duration": 239, "velocity": 45}, {"time": 19198, "pitch": 58, "duration": 238, "velocity": 69}, {"time": 19436, "pitch": 59, "duration": 239, "velocity": 70}, {"time": 19675, "pitch": 43, "duration": 245, "velocity": 75}, {"time": 19920, "pitch": 53, "duration": 246, "velocity": 75}, {"time": 19920, "pitch": 59, "duration": 246, "velocity": 55}, {"time": 20404, "pitch": 43, "duration": 239, "velocity": 75}, {"time": 20643, "pitch": 53, "duration": 239, "velocity": 75}, {"time": 20643, "pitch": 59, "duration": 239, "velocity": 55}, {"time": 21121, "pitch": 43, "duration": 239, "velocity": 75}, {"time": 21360, "pitch": 53, "duration": 238, "velocity": 75}, {"time": 21360, "pitch": 59, "duration": 238, "velocity": 55}, {"time": 21837, "pitch": 43, "duration": 239, "velocity": 75}, {"time": 22076, "pitch": 53, "duration": 245, "velocity": 75}, {"time": 22076, "pitch": 59, "duration": 245, "velocity": 55}, {"time": 22321, "pitch": 43, "duration": 245, "velocity": 65}, {"time": 22566, "pitch": 60, "duration": 239, "velocity": 70}, {"time": 22805, "pitch": 59, "duration": 239, "velocity": 45}, {"time": 23044, "pitch": 58, "duration": 239, "velocity": 69}, {"time": 23283, "pitch": 59, "duration": 238, "velocity": 70}, {"time": 23521, "pitch": 41, "duration": 239, "velocity": 75}, {"time": 23760, "pitch": 53, "duration": 239, "velocity": 75}, {"time": 23760, "pitch": 57, "duration": 239, "velocity": 55}, {"time": 24238, "pitch": 41, "duration": 238, "velocity": 75}, {"time": 24476, "pitch": 58, "duration": 239, "velocity": 70}, {"time": 24715, "pitch": 57, "duration": 239, "velocity": 45}, {"time": 24954, "pitch": 56, "duration": 245, "velocity": 69}, {"time": 25199, "pitch": 57, "duration": 246, "velocity": 70}, {"time": 25445, "pitch": 43, "duration": 238, "velocity": 75}, {"time": 25683, "pitch": 53, "duration": 239, "velocity": 75}, {"time": 25683, "pitch": 59, "duration": 239, "velocity": 55}, {"time": 26161, "pitch": 53, "duration": 239, "velocity": 55}, {"time": 26161, "pitch": 60, "duration": 239, "velocity": 75}, {"time": 26638, "pitch": 58, "duration": 239, "velocity": 64}, {"time": 26877, "pitch": 59, "duration": 239, "velocity": 72}, {"time": 27116, "pitch": 55, "duration": 239, "velocity": 55}, {"time": 27355, "pitch": 43, "duration": 245, "velocity": 75}, {"time": 27600, "pitch": 53, "duration": 245, "velocity": 75}, {"time": 27600, "pitch": 59, "duration": 245, "velocity": 55}, {"time": 28084, "pitch": 43, "duration": 239, "velocity": 75}, {"time": 28323, "pitch": 53, "duration": 238, "velocity": 75}, {"time": 28323, "pitch": 59, "duration": 238, "velocity": 55}, {"time": 28800, "pitch": 43, "duration": 239, "velocity": 75}, {"time": 29039, "pitch": 53, "duration": 239, "velocity": 75}, {"time": 29039, "pitch": 59, "duration": 239, "velocity": 55}, {"time": 29517, "pitch": 43, "duration": 238, "velocity": 75}, {"time": 29755, "pitch": 53, "duration": 246, "velocity": 75}, {"time": 29755, "pitch": 59, "duration": 246, "velocity": 55}, {"time": 30246, "pitch": 43, "duration": 239, "velocity": 75}, {"time": 30485, "pitch": 53, "duration": 238, "velocity": 75}, {"time": 30485, "pitch": 59, "duration": 238, "velocity": 55}, {"time": 30962, "pitch": 43, "duration": 239, "velocity": 75}, {"time": 31201, "pitch": 53, "duration": 239, "velocity": 75}, {"time": 31201, "pitch": 59, "duration": 239, "velocity": 55}, {"time": 31678, "pitch": 43, "duration": 239, "velocity": 75}, {"time": 31917, "pitch": 53, "duration": 239, "velocity": 75}, {"time": 31917, "pitch": 59, "duration": 239, "velocity": 55}, {"time": 32401, "pitch": 43, "duration": 245, "velocity": 75}, {"time": 32646, "pitch": 53, "duration": 239, "velocity": 75}, {"time": 32646, "pitch": 59, "duration": 239, "velocity": 55}, {"time": 32885, "pitch": 43, "duration": 239, "velocity": 65}, {"time": 33124, "pitch": 60, "duration": 239, "velocity": 70}, {"time": 33363, "pitch": 59, "duration": 238, "velocity": 45}, {"time": 33601, "pitch": 58, "duration": 239, "velocity": 69}, {"time": 33840, "pitch": 59, "duration": 239, "velocity": 70}, {"time": 34318, "pitch": 43, "duration": 239, "velocity": 75}, {"time": 34557, "pitch": 53, "duration": 238, "velocity": 75}, {"time": 34557, "pitch": 59, "duration": 238, "velocity": 55}, {"time": 34795, "pitch": 43, "duration": 239, "velocity": 65}, {"time": 35034, "pitch": 60, "duration": 245, "velocity": 70}, {"time": 35279, "pitch": 59, "duration": 246, "velocity": 45}, {"time": 35525, "pitch": 58, "duration": 238, "velocity": 69}, {"time": 35763, "pitch": 59, "duration": 239, "velocity": 70}, {"time": 36002, "pitch": 41, "duration": 239, "velocity": 75}, {"time": 36241, "pitch": 53, "duration": 239, "velocity": 75}, {"time": 36241, "pitch": 57, "duration": 239, "velocity": 55}, {"time": 36718, "pitch": 41, "duration": 239, "velocity": 75}, {"time": 36957, "pitch": 58, "duration": 239, "velocity": 70}, {"time": 37196, "pitch": 57, "duration": 239, "velocity": 45}, {"time": 37435, "pitch": 56, "duration": 245, "velocity": 69}, {"time": 37680, "pitch": 57, "duration": 245, "velocity": 70}, {"time": 37925, "pitch": 43, "duration": 239, "velocity": 75}, {"time": 38164, "pitch": 53, "duration": 239, "velocity": 75}, {"time": 38164, "pitch": 59, "duration": 239, "velocity": 55}, {"time": 38642, "pitch": 43, "duration": 238, "velocity": 60}, {"time": 38880, "pitch": 53, "duration": 239, "velocity": 55}, {"time": 38880, "pitch": 60, "duration": 239, "velocity": 75}, {"time": 39119, "pitch": 59, "duration": 239, "velocity": 69}, {"time": 39358, "pitch": 55, "duration": 239, "velocity": 64}, {"time": 39597, "pitch": 53, "duration": 238, "velocity": 54}, {"time": 39597, "pitch": 60, "duration": 238, "velocity": 74}, {"time": 40081, "pitch": 53, "duration": 245, "velocity": 55}, {"time": 40081, "pitch": 60, "duration": 464, "velocity": 75}, {"time": 40565, "pitch": 55, "duration": 238, "velocity": 75}, {"time": 40803, "pitch": 53, "duration": 239, "velocity": 55}, {"time": 40803, "pitch": 60, "duration": 458, "velocity": 75}, {"time": 41281, "pitch": 55, "duration": 239, "velocity": 64}, {"time": 41520, "pitch": 56, "duration": 477, "velocity": 74}, {"time": 41997, "pitch": 59, "duration": 239, "velocity": 67}, {"time": 41997, "pitch": 64, "duration": 239, "velocity": 77}, {"time": 42475, "pitch": 56, "duration": 239, "velocity": 74}, {"time": 42714, "pitch": 59, "duration": 245, "velocity": 67}, {"time": 42714, "pitch": 64, "duration": 245, "velocity": 77}, {"time": 42959, "pitch": 56, "duration": 245, "velocity": 57}, {"time": 43204, "pitch": 59, "duration": 239, "velocity": 69}, {"time": 43443, "pitch": 57, "duration": 477, "velocity": 72}, {"time": 43920, "pitch": 60, "duration": 239, "velocity": 67}, {"time": 43920, "pitch": 65, "duration": 239, "velocity": 77}, {"time": 44398, "pitch": 60, "duration": 239, "velocity": 54}, {"time": 44637, "pitch": 60, "duration": 477, "velocity": 67}, {"time": 44637, "pitch": 65, "duration": 477, "velocity": 77}, {"time": 45359, "pitch": 56, "duration": 484, "velocity": 74}, {"time": 45843, "pitch": 59, "duration": 239, "velocity": 67}, {"time": 45843, "pitch": 64, "duration": 239, "velocity": 77}, {"time": 46321, "pitch": 56, "duration": 239, "velocity": 74}, {"time": 46560, "pitch": 59, "duration": 239, "velocity": 67}, {"time": 46560, "pitch": 64, "duration": 239, "velocity": 77}, {"time": 46799, "pitch": 56, "duration": 238, "velocity": 57}, {"time": 47037, "pitch": 59, "duration": 239, "velocity": 69}, {"time": 47276, "pitch": 57, "duration": 484, "velocity": 72}, {"time": 47760, "pitch": 60, "duration": 245, "velocity": 67}, {"time": 47760, "pitch": 65, "duration": 245, "velocity": 77}, {"time": 48244, "pitch": 60, "duration": 239, "velocity": 54}, {"time": 48483, "pitch": 60, "duration": 477, "velocity": 67}, {"time": 48483, "pitch": 65, "duration": 477, "velocity": 77}, {"time": 49438, "pitch": 69, "duration": 886, "velocity": 79}, {"time": 49915, "pitch": 64, "duration": 949, "velocity": 70}, {"time": 50406, "pitch": 69, "duration": 875, "velocity": 79}, {"time": 50883, "pitch": 64, "duration": 468, "velocity": 70}, {"time": 51361, "pitch": 68, "duration": 875, "velocity": 79}, {"time": 51839, "pitch": 64, "duration": 935, "velocity": 70}, {"time": 52316, "pitch": 68, "duration": 886, "velocity": 79}, {"time": 52794, "pitch": 64, "duration": 480, "velocity": 70}, {"time": 53284, "pitch": 67, "duration": 876, "velocity": 79}, {"time": 53762, "pitch": 63, "duration": 935, "velocity": 70}, {"time": 54239, "pitch": 67, "duration": 876, "velocity": 79}, {"time": 54717, "pitch": 63, "duration": 467, "velocity": 70}, {"time": 55194, "pitch": 67, "duration": 889, "velocity": 79}, {"time": 55685, "pitch": 62, "duration": 935, "velocity": 70}, {"time": 56162, "pitch": 67, "duration": 876, "velocity": 79}, {"time": 56640, "pitch": 62, "duration": 467, "velocity": 70}, {"time": 57117, "pitch": 62, "duration": 219, "velocity": 60}, {"time": 57117, "pitch": 66, "duration": 219, "velocity": 70}, {"time": 57117, "pitch": 69, "duration": 219, "velocity": 80}, {"time": 57595, "pitch": 62, "duration": 225, "velocity": 60}, {"time": 57595, "pitch": 66, "duration": 225, "velocity": 70}, {"time": 57595, "pitch": 69, "duration": 225, "velocity": 80}, {"time": 58085, "pitch": 50, "duration": 448, "velocity": 70}, {"time": 58563, "pitch": 62, "duration": 219, "velocity": 60}, {"time": 58563, "pitch": 66, "duration": 219, "velocity": 70}, {"time": 58563, "pitch": 69, "duration": 219, "velocity": 80}, {"time": 59040, "pitch": 62, "duration": 219, "velocity": 60}, {"time": 59040, "pitch": 66, "duration": 219, "velocity": 70}, {"time": 59040, "pitch": 69, "duration": 219, "velocity": 80}, {"time": 59518, "pitch": 50, "duration": 448, "velocity": 70}, {"time": 59996, "pitch": 62, "duration": 224, "velocity": 60}, {"time": 59996, "pitch": 66, "duration": 224, "velocity": 70}, {"time": 59996, "pitch": 69, "duration": 224, "velocity": 80}, {"time": 60486, "pitch": 62, "duration": 219, "velocity": 60}, {"time": 60486, "pitch": 66, "duration": 219, "velocity": 70}, {"time": 60486, "pitch": 69, "duration": 219, "velocity": 80}, {"time": 60964, "pitch": 43, "duration": 1910, "velocity": 70}, {"time": 62874, "pitch": 43, "duration": 1923, "velocity": 70}, {"time": 64797, "pitch": 43, "duration": 1923, "velocity": 70}, {"time": 66720, "pitch": 43, "duration": 1923, "velocity": 70}, {"time": 68643, "pitch": 43, "duration": 1923, "velocity": 70}, {"time": 70566, "pitch": 43, "duration": 1910, "velocity": 70}, {"time": 72476, "pitch": 43, "duration": 1923, "velocity": 70}, {"time": 74399, "pitch": 43, "duration": 1923, "velocity": 70}, {"time": 76322, "pitch": 72, "duration": 219, "velocity": 65}, {"time": 76322, "pitch": 76, "duration": 219, "velocity": 70}, {"time": 76322, "pitch": 79, "duration": 219, "velocity": 55}, {"time": 76800, "pitch": 72, "duration": 219, "velocity": 65}, {"time": 76800, "pitch": 76, "duration": 219, "velocity": 70}, {"time": 76800, "pitch": 79, "duration": 219, "velocity": 55}, {"time": 77277, "pitch": 72, "duration": 219, "velocity": 65}, {"time": 77277, "pitch": 76, "duration": 219, "velocity": 70}, {"time": 77277, "pitch": 79, "duration": 219, "velocity": 55}, {"time": 77755, "pitch": 72, "duration": 225, "velocity": 65}, {"time": 77755, "pitch": 76, "duration": 225, "velocity": 70}, {"time": 77755, "pitch": 79, "duration": 225, "velocity": 55}, {"time": 78246, "pitch": 71, "duration": 218, "velocity": 65}, {"time": 78246, "pitch": 74, "duration": 218, "velocity": 70}, {"time": 78246, "pitch": 79, "duration": 218, "velocity": 55}, {"time": 78723, "pitch": 71, "duration": 219, "velocity": 65}, {"time": 78723, "pitch": 74, "duration": 219, "velocity": 70}, {"time": 78723, "pitch": 79, "duration": 219, "velocity": 55}, {"time": 79201, "pitch": 71, "duration": 218, "velocity": 65}, {"time": 79201, "pitch": 74, "duration": 218, "velocity": 70}, {"time": 79201, "pitch": 79, "duration": 218, "velocity": 55}, {"time": 79678, "pitch": 71, "duration": 219, "velocity": 65}, {"time": 79678, "pitch": 74, "duration": 219, "velocity": 70}, {"time": 79678, "pitch": 79, "duration": 219, "velocity": 55}, {"time": 80156, "pitch": 72, "duration": 224, "velocity": 65}, {"time": 80156, "pitch": 76, "duration": 224, "velocity": 70}, {"time": 80156, "pitch": 79, "duration": 224, "velocity": 55}, {"time": 80646, "pitch": 72, "duration": 219, "velocity": 65}, {"time": 80646, "pitch": 76, "duration": 219, "velocity": 70}, {"time": 80646, "pitch": 79, "duration": 219, "velocity": 55}, {"time": 81124, "pitch": 72, "duration": 219, "velocity": 65}, {"time": 81124, "pitch": 76, "duration": 219, "velocity": 70}, {"time": 81124, "pitch": 79, "duration": 219, "velocity": 55}, {"time": 81601, "pitch": 72, "duration": 219, "velocity": 65}, {"time": 81601, "pitch": 76, "duration": 219, "velocity": 70}, {"time": 81601, "pitch": 79, "duration": 219, "velocity": 55}, {"time": 82079, "pitch": 71, "duration": 219, "velocity": 65}, {"time": 82079, "pitch": 74, "duration": 219, "velocity": 70}, {"time": 82079, "pitch": 79, "duration": 219, "velocity": 55}, {"time": 82556, "pitch": 71, "duration": 219, "velocity": 65}, {"time": 82556, "pitch": 74, "duration": 219, "velocity": 70}, {"time": 82556, "pitch": 79, "duration": 219, "velocity": 55}, {"time": 83034, "pitch": 71, "duration": 225, "velocity": 65}, {"time": 83034, "pitch": 74, "duration": 225, "velocity": 70}, {"time": 83034, "pitch": 79, "duration": 225, "velocity": 55}, {"time": 83524, "pitch": 71, "duration": 219, "velocity": 65}, {"time": 83524, "pitch": 74, "duration": 219, "velocity": 70}, {"time": 83524, "pitch": 79, "duration": 219, "velocity": 55}, {"time": 84002, "pitch": 60, "duration": 875, "velocity": 68}, {"time": 84479, "pitch": 72, "duration": 936, "velocity": 76}, {"time": 84957, "pitch": 59, "duration": 886, "velocity": 69}, {"time": 85434, "pitch": 72, "duration": 481, "velocity": 76}, {"time": 85925, "pitch": 57, "duration": 875, "velocity": 68}, {"time": 86403, "pitch": 72, "duration": 935, "velocity": 76}, {"time": 86880, "pitch": 55, "duration": 876, "velocity": 69}, {"time": 87358, "pitch": 72, "duration": 467, "velocity": 76}, {"time": 87835, "pitch": 53, "duration": 2891, "velocity": 72}, {"time": 87835, "pitch": 57, "duration": 2891, "velocity": 70}, {"time": 87835, "pitch": 60, "duration": 2891, "velocity": 76}, {"time": 90726, "pitch": 55, "duration": 279, "velocity": 72}, {"time": 90726, "pitch": 59, "duration": 279, "velocity": 70}, {"time": 90726, "pitch": 62, "duration": 289, "velocity": 76}, {"time": 91204, "pitch": 55, "duration": 288, "velocity": 72}, {"time": 91204, "pitch": 59, "duration": 288, "velocity": 70}, {"time": 91204, "pitch": 62, "duration": 288, "velocity": 76}, {"time": 91681, "pitch": 43, "duration": 448, "velocity": 69}, {"time": 92159, "pitch": 59, "duration": 239, "velocity": 75}, {"time": 92159, "pitch": 62, "duration": 239, "velocity": 69}, {"time": 92159, "pitch": 67, "duration": 239, "velocity": 65}, {"time": 92636, "pitch": 59, "duration": 239, "velocity": 75}, {"time": 92636, "pitch": 62, "duration": 239, "velocity": 69}, {"time": 92636, "pitch": 67, "duration": 239, "velocity": 65}, {"time": 93114, "pitch": 41, "duration": 460, "velocity": 69}, {"time": 93604, "pitch": 57, "duration": 239, "velocity": 75}, {"time": 93604, "pitch": 60, "duration": 239, "velocity": 69}, {"time": 93604, "pitch": 65, "duration": 239, "velocity": 65}, {"time": 94082, "pitch": 57, "duration": 239, "velocity": 75}, {"time": 94082, "pitch": 60, "duration": 239, "velocity": 69}, {"time": 94082, "pitch": 65, "duration": 239, "velocity": 65}, {"time": 94559, "pitch": 40, "duration": 448, "velocity": 69}, {"time": 95037, "pitch": 59, "duration": 239, "velocity": 73}, {"time": 95037, "pitch": 62, "duration": 239, "velocity": 71}, {"time": 95037, "pitch": 64, "duration": 239, "velocity": 71}, {"time": 95037, "pitch": 68, "duration": 239, "velocity": 63}, {"time": 95515, "pitch": 59, "duration": 245, "velocity": 73}, {"time": 95515, "pitch": 62, "duration": 245, "velocity": 71}, {"time": 95515, "pitch": 64, "duration": 245, "velocity": 71}, {"time": 95515, "pitch": 68, "duration": 245, "velocity": 63}, {"time": 96005, "pitch": 39, "duration": 448, "velocity": 73}, {"time": 96483, "pitch": 55, "duration": 238, "velocity": 75}, {"time": 96483, "pitch": 58, "duration": 238, "velocity": 70}, {"time": 96483, "pitch": 63, "duration": 238, "velocity": 65}, {"time": 96960, "pitch": 43, "duration": 239, "velocity": 55}, {"time": 96960, "pitch": 59, "duration": 239, "velocity": 75}, {"time": 96960, "pitch": 62, "duration": 239, "velocity": 70}, {"time": 96960, "pitch": 67, "duration": 239, "velocity": 65}, {"time": 97438, "pitch": 43, "duration": 447, "velocity": 69}, {"time": 97915, "pitch": 59, "duration": 245, "velocity": 75}, {"time": 97915, "pitch": 62, "duration": 245, "velocity": 69}, {"time": 97915, "pitch": 67, "duration": 245, "velocity": 65}, {"time": 98406, "pitch": 59, "duration": 238, "velocity": 75}, {"time": 98406, "pitch": 62, "duration": 238, "velocity": 69}, {"time": 98406, "pitch": 67, "duration": 238, "velocity": 65}, {"time": 98883, "pitch": 41, "duration": 448, "velocity": 69}, {"time": 99361, "pitch": 57, "duration": 239, "velocity": 75}, {"time": 99361, "pitch": 60, "duration": 239, "velocity": 69}, {"time": 99361, "pitch": 65, "duration": 239, "velocity": 65}, {"time": 99838, "pitch": 57, "duration": 239, "velocity": 75}, {"time": 99838, "pitch": 60, "duration": 239, "velocity": 69}, {"time": 99838, "pitch": 65, "duration": 239, "velocity": 65}, {"time": 100316, "pitch": 40, "duration": 460, "velocity": 69}, {"time": 100806, "pitch": 59, "duration": 239, "velocity": 75}, {"time": 100806, "pitch": 62, "duration": 239, "velocity": 75}, {"time": 100806, "pitch": 64, "duration": 239, "velocity": 75}, {"time": 100806, "pitch": 67, "duration": 239, "velocity": 75}, {"time": 100806, "pitch": 68, "duration": 239, "velocity": 75}, {"time": 101284, "pitch": 59, "duration": 239, "velocity": 73}, {"time": 101284, "pitch": 62, "duration": 239, "velocity": 71}, {"time": 101284, "pitch": 64, "duration": 239, "velocity": 71}, {"time": 101284, "pitch": 65, "duration": 239, "velocity": 69}, {"time": 101284, "pitch": 68, "duration": 239, "velocity": 63}, {"time": 101761, "pitch": 39, "duration": 448, "velocity": 73}, {"time": 102239, "pitch": 55, "duration": 239, "velocity": 75}, {"time": 102239, "pitch": 58, "duration": 239, "velocity": 70}, {"time": 102239, "pitch": 63, "duration": 239, "velocity": 65}, {"time": 102716, "pitch": 43, "duration": 239, "velocity": 55}, {"time": 102716, "pitch": 59, "duration": 239, "velocity": 75}, {"time": 102716, "pitch": 62, "duration": 239, "velocity": 70}, {"time": 102716, "pitch": 67, "duration": 239, "velocity": 65}, {"time": 103194, "pitch": 43, "duration": 245, "velocity": 75}, {"time": 103439, "pitch": 53, "duration": 245, "velocity": 75}, {"time": 103439, "pitch": 59, "duration": 245, "velocity": 55}, {"time": 103923, "pitch": 43, "duration": 239, "velocity": 75}, {"time": 104162, "pitch": 53, "duration": 239, "velocity": 75}, {"time": 104162, "pitch": 59, "duration": 239, "velocity": 55}, {"time": 104640, "pitch": 43, "duration": 238, "velocity": 75}, {"time": 104878, "pitch": 53, "duration": 239, "velocity": 75}, {"time": 104878, "pitch": 59, "duration": 239, "velocity": 55}, {"time": 105356, "pitch": 43, "duration": 239, "velocity": 75}, {"time": 105595, "pitch": 53, "duration": 245, "velocity": 75}, {"time": 105595, "pitch": 59, "duration": 245, "velocity": 55}, {"time": 105840, "pitch": 43, "duration": 245, "velocity": 65}, {"time": 106085, "pitch": 60, "duration": 239, "velocity": 70}, {"time": 106324, "pitch": 59, "duration": 239, "velocity": 45}, {"time": 106563, "pitch": 58, "duration": 238, "velocity": 69}, {"time": 106801, "pitch": 59, "duration": 239, "velocity": 70}, {"time": 107040, "pitch": 43, "duration": 239, "velocity": 75}, {"time": 107279, "pitch": 53, "duration": 239, "velocity": 75}, {"time": 107279, "pitch": 59, "duration": 239, "velocity": 55}, {"time": 107756, "pitch": 43, "duration": 239, "velocity": 75}, {"time": 107995, "pitch": 53, "duration": 246, "velocity": 75}, {"time": 107995, "pitch": 59, "duration": 246, "velocity": 55}, {"time": 108486, "pitch": 43, "duration": 239, "velocity": 75}, {"time": 108725, "pitch": 53, "duration": 238, "velocity": 75}, {"time": 108725, "pitch": 59, "duration": 238, "velocity": 55}, {"time": 109202, "pitch": 43, "duration": 239, "velocity": 75}, {"time": 109441, "pitch": 53, "duration": 239, "velocity": 75}, {"time": 109441, "pitch": 59, "duration": 239, "velocity": 55}, {"time": 109680, "pitch": 43, "duration": 238, "velocity": 65}, {"time": 109918, "pitch": 60, "duration": 239, "velocity": 70}, {"time": 110157, "pitch": 59, "duration": 239, "velocity": 45}, {"time": 110396, "pitch": 58, "duration": 245, "velocity": 69}, {"time": 110641, "pitch": 59, "duration": 245, "velocity": 70}, {"time": 110886, "pitch": 41, "duration": 239, "velocity": 75}, {"time": 111125, "pitch": 53, "duration": 239, "velocity": 75}, {"time": 111125, "pitch": 57, "duration": 239, "velocity": 55}, {"time": 111603, "pitch": 41, "duration": 238, "velocity": 75}, {"time": 111841, "pitch": 58, "duration": 239, "velocity": 70}, {"time": 112080, "pitch": 57, "duration": 239, "velocity": 45}, {"time": 112319, "pitch": 56, "duration": 239, "velocity": 69}, {"time": 112558, "pitch": 57, "duration": 239, "velocity": 70}, {"time": 112797, "pitch": 43, "duration": 238, "velocity": 75}, {"time": 113035, "pitch": 53, "duration": 239, "velocity": 75}, {"time": 113035, "pitch": 59, "duration": 239, "velocity": 55}, {"time": 113519, "pitch": 53, "duration": 246, "velocity": 55}, {"time": 113519, "pitch": 60, "duration": 246, "velocity": 75}, {"time": 114003, "pitch": 58, "duration": 239, "velocity": 64}, {"time": 114242, "pitch": 59, "duration": 239, "velocity": 72}, {"time": 114481, "pitch": 55, "duration": 239, "velocity": 55}, {"time": 114720, "pitch": 43, "duration": 238, "velocity": 75}, {"time": 114958, "pitch": 53, "duration": 239, "velocity": 75}, {"time": 114958, "pitch": 59, "duration": 239, "velocity": 55}, {"time": 115436, "pitch": 43, "duration": 239, "velocity": 75}, {"time": 115675, "pitch": 53, "duration": 245, "velocity": 75}, {"time": 115675, "pitch": 59, "duration": 245, "velocity": 55}, {"time": 116165, "pitch": 43, "duration": 239, "velocity": 75}, {"time": 116404, "pitch": 53, "duration": 239, "velocity": 75}, {"time": 116404, "pitch": 59, "duration": 239, "velocity": 55}, {"time": 117598, "pitch": 43, "duration": 239, "velocity": 75}, {"time": 117837, "pitch": 53, "duration": 238, "velocity": 75}, {"time": 117837, "pitch": 59, "duration": 238, "velocity": 55}, {"time": 118321, "pitch": 43, "duration": 245, "velocity": 75}, {"time": 118566, "pitch": 53, "duration": 239, "velocity": 75}, {"time": 118566, "pitch": 59, "duration": 239, "velocity": 55}, {"time": 119043, "pitch": 43, "duration": 239, "velocity": 75}, {"time": 119282, "pitch": 53, "duration": 239, "velocity": 75}, {"time": 119282, "pitch": 59, "duration": 239, "velocity": 55}, {"time": 119760, "pitch": 43, "duration": 238, "velocity": 75}, {"time": 119998, "pitch": 53, "duration": 239, "velocity": 75}, {"time": 119998, "pitch": 59, "duration": 239, "velocity": 55}, {"time": 120237, "pitch": 43, "duration": 239, "velocity": 65}, {"time": 120476, "pitch": 60, "duration": 245, "velocity": 70}, {"time": 120721, "pitch": 59, "duration": 245, "velocity": 45}, {"time": 120966, "pitch": 58, "duration": 239, "velocity": 69}, {"time": 121205, "pitch": 59, "duration": 239, "velocity": 70}, {"time": 121683, "pitch": 43, "duration": 239, "velocity": 75}, {"time": 121922, "pitch": 53, "duration": 238, "velocity": 75}, {"time": 121922, "pitch": 59, "duration": 238, "velocity": 55}, {"time": 122160, "pitch": 43, "duration": 239, "velocity": 65}, {"time": 122399, "pitch": 60, "duration": 239, "velocity": 70}, {"time": 122638, "pitch": 59, "duration": 239, "velocity": 45}, {"time": 122877, "pitch": 58, "duration": 238, "velocity": 69}, {"time": 123115, "pitch": 59, "duration": 239, "velocity": 70}, {"time": 123354, "pitch": 41, "duration": 245, "velocity": 75}, {"time": 123599, "pitch": 53, "duration": 246, "velocity": 75}, {"time": 123599, "pitch": 57, "duration": 246, "velocity": 55}, {"time": 124083, "pitch": 41, "duration": 239, "velocity": 75}, {"time": 124322, "pitch": 58, "duration": 239, "velocity": 70}, {"time": 124561, "pitch": 57, "duration": 239, "velocity": 45}, {"time": 124800, "pitch": 56, "duration": 238, "velocity": 69}, {"time": 125038, "pitch": 57, "duration": 239, "velocity": 70}, {"time": 125277, "pitch": 43, "duration": 239, "velocity": 75}, {"time": 125516, "pitch": 53, "duration": 239, "velocity": 75}, {"time": 125516, "pitch": 59, "duration": 239, "velocity": 55}, {"time": 126000, "pitch": 43, "duration": 245, "velocity": 60}, {"time": 126245, "pitch": 53, "duration": 239, "velocity": 55}, {"time": 126245, "pitch": 60, "duration": 239, "velocity": 75}, {"time": 126484, "pitch": 59, "duration": 239, "velocity": 69}, {"time": 126723, "pitch": 55, "duration": 239, "velocity": 64}, {"time": 126962, "pitch": 53, "duration": 238, "velocity": 54}, {"time": 126962, "pitch": 60, "duration": 238, "velocity": 74}, {"time": 127439, "pitch": 53, "duration": 239, "velocity": 55}, {"time": 127439, "pitch": 60, "duration": 458, "velocity": 75}, {"time": 127917, "pitch": 55, "duration": 238, "velocity": 75}, {"time": 128155, "pitch": 53, "duration": 246, "velocity": 55}, {"time": 128155, "pitch": 60, "duration": 471, "velocity": 75}, {"time": 128646, "pitch": 55, "duration": 239, "velocity": 64}, {"time": 128885, "pitch": 56, "duration": 477, "velocity": 74}, {"time": 129362, "pitch": 59, "duration": 239, "velocity": 67}, {"time": 129362, "pitch": 64, "duration": 239, "velocity": 77}, {"time": 129840, "pitch": 56, "duration": 239, "velocity": 74}, {"time": 130079, "pitch": 59, "duration": 238, "velocity": 67}, {"time": 130079, "pitch": 64, "duration": 238, "velocity": 77}, {"time": 130317, "pitch": 56, "duration": 239, "velocity": 57}, {"time": 130556, "pitch": 59, "duration": 239, "velocity": 69}, {"time": 130795, "pitch": 57, "duration": 484, "velocity": 72}, {"time": 131279, "pitch": 60, "duration": 245, "velocity": 67}, {"time": 131279, "pitch": 65, "duration": 245, "velocity": 77}, {"time": 131763, "pitch": 60, "duration": 239, "velocity": 54}, {"time": 132002, "pitch": 60, "duration": 477, "velocity": 67}, {"time": 132002, "pitch": 65, "duration": 477, "velocity": 77}, {"time": 132718, "pitch": 56, "duration": 477, "velocity": 74}, {"time": 133195, "pitch": 59, "duration": 239, "velocity": 67}, {"time": 133195, "pitch": 64, "duration": 239, "velocity": 77}, {"time": 133679, "pitch": 56, "duration": 246, "velocity": 74}, {"time": 133925, "pitch": 59, "duration": 238, "velocity": 67}, {"time": 133925, "pitch": 64, "duration": 238, "velocity": 77}, {"time": 134163, "pitch": 56, "duration": 239, "velocity": 57}, {"time": 134402, "pitch": 59, "duration": 239, "velocity": 69}, {"time": 134641, "pitch": 57, "duration": 478, "velocity": 72}, {"time": 135119, "pitch": 60, "duration": 238, "velocity": 67}, {"time": 135119, "pitch": 65, "duration": 238, "velocity": 77}, {"time": 135596, "pitch": 60, "duration": 239, "velocity": 54}, {"time": 135835, "pitch": 60, "duration": 490, "velocity": 67}, {"time": 135835, "pitch": 65, "duration": 490, "velocity": 77}, {"time": 136803, "pitch": 69, "duration": 875, "velocity": 79}, {"time": 137280, "pitch": 64, "duration": 936, "velocity": 70}, {"time": 137758, "pitch": 69, "duration": 886, "velocity": 79}, {"time": 138235, "pitch": 64, "duration": 481, "velocity": 70}, {"time": 138726, "pitch": 68, "duration": 875, "velocity": 79}, {"time": 139204, "pitch": 64, "duration": 935, "velocity": 70}, {"time": 139681, "pitch": 68, "duration": 876, "velocity": 79}, {"time": 140159, "pitch": 64, "duration": 467, "velocity": 70}, {"time": 140636, "pitch": 67, "duration": 886, "velocity": 79}, {"time": 141114, "pitch": 63, "duration": 948, "velocity": 70}, {"time": 141604, "pitch": 67, "duration": 876, "velocity": 79}, {"time": 142082, "pitch": 63, "duration": 467, "velocity": 70}, {"time": 142559, "pitch": 67, "duration": 876, "velocity": 79}, {"time": 143037, "pitch": 62, "duration": 947, "velocity": 70}, {"time": 143514, "pitch": 67, "duration": 889, "velocity": 79}, {"time": 144005, "pitch": 62, "duration": 467, "velocity": 70}, {"time": 144482, "pitch": 62, "duration": 219, "velocity": 60}, {"time": 144482, "pitch": 66, "duration": 219, "velocity": 70}, {"time": 144482, "pitch": 69, "duration": 219, "velocity": 80}, {"time": 144960, "pitch": 62, "duration": 219, "velocity": 60}, {"time": 144960, "pitch": 66, "duration": 219, "velocity": 70}, {"time": 144960, "pitch": 69, "duration": 219, "velocity": 80}, {"time": 145437, "pitch": 50, "duration": 448, "velocity": 70}, {"time": 145915, "pitch": 62, "duration": 225, "velocity": 60}, {"time": 145915, "pitch": 66, "duration": 225, "velocity": 70}, {"time": 145915, "pitch": 69, "duration": 225, "velocity": 80}, {"time": 146405, "pitch": 62, "duration": 219, "velocity": 60}, {"time": 146405, "pitch": 66, "duration": 219, "velocity": 70}, {"time": 146405, "pitch": 69, "duration": 219, "velocity": 80}, {"time": 146883, "pitch": 50, "duration": 448, "velocity": 70}, {"time": 147360, "pitch": 62, "duration": 219, "velocity": 60}, {"time": 147360, "pitch": 66, "duration": 219, "velocity": 70}, {"time": 147360, "pitch": 69, "duration": 219, "velocity": 80}, {"time": 147838, "pitch": 62, "duration": 219, "velocity": 60}, {"time": 147838, "pitch": 66, "duration": 219, "velocity": 70}, {"time": 147838, "pitch": 69, "duration": 219, "velocity": 80}, {"time": 148316, "pitch": 43, "duration": 1923, "velocity": 70}, {"time": 150239, "pitch": 43, "duration": 1923, "velocity": 70}, {"time": 152162, "pitch": 43, "duration": 1923, "velocity": 70}, {"time": 154085, "pitch": 43, "duration": 1910, "velocity": 70}, {"time": 155995, "pitch": 43, "duration": 1923, "velocity": 70}, {"time": 157918, "pitch": 43, "duration": 1923, "velocity": 70}, {"time": 159841, "pitch": 43, "duration": 1923, "velocity": 70}, {"time": 161764, "pitch": 43, "duration": 1910, "velocity": 70}, {"time": 163674, "pitch": 72, "duration": 225, "velocity": 65}, {"time": 163674, "pitch": 76, "duration": 225, "velocity": 70}, {"time": 163674, "pitch": 79, "duration": 225, "velocity": 55}, {"time": 164165, "pitch": 72, "duration": 219, "velocity": 65}, {"time": 164165, "pitch": 76, "duration": 219, "velocity": 70}, {"time": 164165, "pitch": 79, "duration": 219, "velocity": 55}, {"time": 164642, "pitch": 72, "duration": 219, "velocity": 65}, {"time": 164642, "pitch": 76, "duration": 219, "velocity": 70}, {"time": 164642, "pitch": 79, "duration": 219, "velocity": 55}, {"time": 165120, "pitch": 72, "duration": 219, "velocity": 65}, {"time": 165120, "pitch": 76, "duration": 219, "velocity": 70}, {"time": 165120, "pitch": 79, "duration": 219, "velocity": 55}, {"time": 165598, "pitch": 71, "duration": 218, "velocity": 65}, {"time": 165598, "pitch": 74, "duration": 218, "velocity": 70}, {"time": 165598, "pitch": 79, "duration": 218, "velocity": 55}, {"time": 166075, "pitch": 71, "duration": 225, "velocity": 65}, {"time": 166075, "pitch": 74, "duration": 225, "velocity": 70}, {"time": 166075, "pitch": 79, "duration": 225, "velocity": 55}, {"time": 166566, "pitch": 71, "duration": 218, "velocity": 65}, {"time": 166566, "pitch": 74, "duration": 218, "velocity": 70}, {"time": 166566, "pitch": 79, "duration": 218, "velocity": 55}, {"time": 167043, "pitch": 71, "duration": 219, "velocity": 65}, {"time": 167043, "pitch": 74, "duration": 219, "velocity": 70}, {"time": 167043, "pitch": 79, "duration": 219, "velocity": 55}, {"time": 167521, "pitch": 72, "duration": 219, "velocity": 65}, {"time": 167521, "pitch": 76, "duration": 219, "velocity": 70}, {"time": 167521, "pitch": 79, "duration": 219, "velocity": 55}, {"time": 167998, "pitch": 72, "duration": 219, "velocity": 65}, {"time": 167998, "pitch": 76, "duration": 219, "velocity": 70}, {"time": 167998, "pitch": 79, "duration": 219, "velocity": 55}, {"time": 168476, "pitch": 72, "duration": 225, "velocity": 65}, {"time": 168476, "pitch": 76, "duration": 225, "velocity": 70}, {"time": 168476, "pitch": 79, "duration": 225, "velocity": 55}, {"time": 168966, "pitch": 72, "duration": 219, "velocity": 65}, {"time": 168966, "pitch": 76, "duration": 219, "velocity": 70}, {"time": 168966, "pitch": 79, "duration": 219, "velocity": 55}, {"time": 169444, "pitch": 71, "duration": 219, "velocity": 65}, {"time": 169444, "pitch": 74, "duration": 219, "velocity": 70}, {"time": 169444, "pitch": 79, "duration": 219, "velocity": 55}, {"time": 169921, "pitch": 71, "duration": 219, "velocity": 65}, {"time": 169921, "pitch": 74, "duration": 219, "velocity": 70}, {"time": 169921, "pitch": 79, "duration": 219, "velocity": 55}, {"time": 170399, "pitch": 71, "duration": 219, "velocity": 65}, {"time": 170399, "pitch": 74, "duration": 219, "velocity": 70}, {"time": 170399, "pitch": 79, "duration": 219, "velocity": 55}, {"time": 170876, "pitch": 71, "duration": 219, "velocity": 65}, {"time": 170876, "pitch": 74, "duration": 219, "velocity": 70}, {"time": 170876, "pitch": 79, "duration": 219, "velocity": 55}, {"time": 171354, "pitch": 60, "duration": 888, "velocity": 68}, {"time": 171844, "pitch": 72, "duration": 936, "velocity": 76}, {"time": 172322, "pitch": 59, "duration": 875, "velocity": 69}, {"time": 172799, "pitch": 72, "duration": 468, "velocity": 76}, {"time": 173277, "pitch": 57, "duration": 886, "velocity": 68}, {"time": 173755, "pitch": 72, "duration": 948, "velocity": 76}, {"time": 174245, "pitch": 55, "duration": 875, "velocity": 69}, {"time": 174723, "pitch": 72, "duration": 467, "velocity": 76}, {"time": 175200, "pitch": 53, "duration": 2878, "velocity": 72}, {"time": 175200, "pitch": 57, "duration": 2878, "velocity": 70}, {"time": 175200, "pitch": 60, "duration": 2878, "velocity": 76}, {"time": 178078, "pitch": 55, "duration": 279, "velocity": 72}, {"time": 178078, "pitch": 59, "duration": 279, "velocity": 70}, {"time": 178078, "pitch": 62, "duration": 289, "velocity": 76}, {"time": 178556, "pitch": 55, "duration": 296, "velocity": 72}, {"time": 178556, "pitch": 59, "duration": 296, "velocity": 70}, {"time": 178556, "pitch": 62, "duration": 296, "velocity": 76}, {"time": 179046, "pitch": 40, "duration": 1910, "velocity": 74}, {"time": 180956, "pitch": 39, "duration": 1924, "velocity": 73}, {"time": 182880, "pitch": 43, "duration": 1923, "velocity": 76}, {"time": 184803, "pitch": 48, "duration": 955, "velocity": 74}, {"time": 185758, "pitch": 49, "duration": 968, "velocity": 76}, {"time": 186726, "pitch": 51, "duration": 238, "velocity": 69}, {"time": 186726, "pitch": 58, "duration": 238, "velocity": 62}, {"time": 186964, "pitch": 51, "duration": 239, "velocity": 66}, {"time": 186964, "pitch": 58, "duration": 239, "velocity": 59}, {"time": 187203, "pitch": 51, "duration": 239, "velocity": 69}, {"time": 187203, "pitch": 58, "duration": 239, "velocity": 62}, {"time": 187442, "pitch": 51, "duration": 239, "velocity": 62}, {"time": 187442, "pitch": 58, "duration": 239, "velocity": 56}, {"time": 187681, "pitch": 51, "duration": 239, "velocity": 69}, {"time": 187681, "pitch": 58, "duration": 239, "velocity": 62}, {"time": 187920, "pitch": 51, "duration": 238, "velocity": 66}, {"time": 187920, "pitch": 58, "duration": 238, "velocity": 59}, {"time": 188158, "pitch": 51, "duration": 239, "velocity": 69}, {"time": 188158, "pitch": 58, "duration": 239, "velocity": 62}, {"time": 188397, "pitch": 51, "duration": 239, "velocity": 62}, {"time": 188397, "pitch": 58, "duration": 239, "velocity": 56}, {"time": 188636, "pitch": 51, "duration": 245, "velocity": 69}, {"time": 188636, "pitch": 58, "duration": 245, "velocity": 62}, {"time": 188881, "pitch": 51, "duration": 245, "velocity": 66}, {"time": 188881, "pitch": 58, "duration": 245, "velocity": 59}, {"time": 189126, "pitch": 51, "duration": 239, "velocity": 69}, {"time": 189126, "pitch": 58, "duration": 239, "velocity": 62}, {"time": 189365, "pitch": 51, "duration": 239, "velocity": 62}, {"time": 189365, "pitch": 58, "duration": 239, "velocity": 56}, {"time": 189604, "pitch": 51, "duration": 239, "velocity": 69}, {"time": 189604, "pitch": 58, "duration": 239, "velocity": 62}, {"time": 189843, "pitch": 51, "duration": 238, "velocity": 66}, {"time": 189843, "pitch": 58, "duration": 238, "velocity": 59}, {"time": 190081, "pitch": 51, "duration": 239, "velocity": 69}, {"time": 190081, "pitch": 58, "duration": 239, "velocity": 62}, {"time": 190320, "pitch": 51, "duration": 239, "velocity": 62}, {"time": 190320, "pitch": 58, "duration": 239, "velocity": 56}, {"time": 190559, "pitch": 50, "duration": 239, "velocity": 69}, {"time": 190559, "pitch": 57, "duration": 239, "velocity": 62}, {"time": 190798, "pitch": 50, "duration": 238, "velocity": 66}, {"time": 190798, "pitch": 57, "duration": 238, "velocity": 59}, {"time": 191036, "pitch": 50, "duration": 239, "velocity": 69}, {"time": 191036, "pitch": 57, "duration": 239, "velocity": 62}, {"time": 191275, "pitch": 50, "duration": 239, "velocity": 62}, {"time": 191275, "pitch": 57, "duration": 239, "velocity": 56}, {"time": 191514, "pitch": 50, "duration": 245, "velocity": 69}, {"time": 191514, "pitch": 57, "duration": 245, "velocity": 62}, {"time": 191759, "pitch": 50, "duration": 246, "velocity": 66}, {"time": 191759, "pitch": 57, "duration": 246, "velocity": 59}, {"time": 192005, "pitch": 50, "duration": 238, "velocity": 69}, {"time": 192005, "pitch": 57, "duration": 238, "velocity": 62}, {"time": 192243, "pitch": 50, "duration": 239, "velocity": 62}, {"time": 192243, "pitch": 57, "duration": 239, "velocity": 56}, {"time": 192482, "pitch": 50, "duration": 239, "velocity": 69}, {"time": 192482, "pitch": 57, "duration": 239, "velocity": 62}, {"time": 192721, "pitch": 50, "duration": 239, "velocity": 66}, {"time": 192721, "pitch": 57, "duration": 239, "velocity": 59}, {"time": 192960, "pitch": 50, "duration": 238, "velocity": 69}, {"time": 192960, "pitch": 57, "duration": 238, "velocity": 62}, {"time": 193198, "pitch": 50, "duration": 239, "velocity": 62}, {"time": 193198, "pitch": 57, "duration": 239, "velocity": 56}, {"time": 193437, "pitch": 50, "duration": 239, "velocity": 69}, {"time": 193437, "pitch": 57, "duration": 239, "velocity": 62}, {"time": 193676, "pitch": 50, "duration": 239, "velocity": 66}, {"time": 193676, "pitch": 57, "duration": 239, "velocity": 59}, {"time": 193915, "pitch": 50, "duration": 245, "velocity": 69}, {"time": 193915, "pitch": 57, "duration": 245, "velocity": 62}, {"time": 194160, "pitch": 56, "duration": 484, "velocity": 74}, {"time": 194644, "pitch": 59, "duration": 239, "velocity": 67}, {"time": 194644, "pitch": 64, "duration": 239, "velocity": 77}, {"time": 195121, "pitch": 56, "duration": 239, "velocity": 74}, {"time": 195360, "pitch": 59, "duration": 239, "velocity": 67}, {"time": 195360, "pitch": 64, "duration": 239, "velocity": 77}, {"time": 195599, "pitch": 56, "duration": 239, "velocity": 57}, {"time": 195838, "pitch": 59, "duration": 239, "velocity": 69}, {"time": 196077, "pitch": 57, "duration": 484, "velocity": 72}, {"time": 196561, "pitch": 60, "duration": 245, "velocity": 67}, {"time": 196561, "pitch": 65, "duration": 245, "velocity": 77}, {"time": 197045, "pitch": 60, "duration": 238, "velocity": 54}, {"time": 197283, "pitch": 60, "duration": 478, "velocity": 67}, {"time": 197283, "pitch": 65, "duration": 478, "velocity": 77}, {"time": 198000, "pitch": 56, "duration": 477, "velocity": 74}, {"time": 198477, "pitch": 59, "duration": 239, "velocity": 67}, {"time": 198477, "pitch": 64, "duration": 239, "velocity": 77}, {"time": 198961, "pitch": 56, "duration": 245, "velocity": 74}, {"time": 199206, "pitch": 59, "duration": 239, "velocity": 67}, {"time": 199206, "pitch": 64, "duration": 239, "velocity": 77}, {"time": 199445, "pitch": 56, "duration": 239, "velocity": 57}, {"time": 199684, "pitch": 59, "duration": 239, "velocity": 69}, {"time": 199923, "pitch": 57, "duration": 477, "velocity": 72}, {"time": 200400, "pitch": 60, "duration": 239, "velocity": 67}, {"time": 200400, "pitch": 65, "duration": 239, "velocity": 77}, {"time": 200878, "pitch": 60, "duration": 239, "velocity": 54}, {"time": 201117, "pitch": 60, "duration": 477, "velocity": 67}, {"time": 201117, "pitch": 65, "duration": 477, "velocity": 77}, {"time": 202085, "pitch": 69, "duration": 875, "velocity": 79}, {"time": 202562, "pitch": 64, "duration": 935, "velocity": 70}, {"time": 203040, "pitch": 69, "duration": 875, "velocity": 79}, {"time": 203517, "pitch": 64, "duration": 468, "velocity": 70}, {"time": 203995, "pitch": 68, "duration": 888, "velocity": 79}, {"time": 204485, "pitch": 64, "duration": 935, "velocity": 70}, {"time": 204963, "pitch": 68, "duration": 875, "velocity": 79}, {"time": 205440, "pitch": 64, "duration": 468, "velocity": 70}, {"time": 205918, "pitch": 67, "duration": 886, "velocity": 79}, {"time": 206395, "pitch": 63, "duration": 949, "velocity": 70}, {"time": 206886, "pitch": 67, "duration": 875, "velocity": 79}, {"time": 207363, "pitch": 63, "duration": 468, "velocity": 70}, {"time": 207841, "pitch": 67, "duration": 875, "velocity": 79}, {"time": 208318, "pitch": 62, "duration": 936, "velocity": 70}, {"time": 208796, "pitch": 67, "duration": 886, "velocity": 79}, {"time": 209274, "pitch": 62, "duration": 480, "velocity": 70}, {"time": 209764, "pitch": 62, "duration": 219, "velocity": 60}, {"time": 209764, "pitch": 66, "duration": 219, "velocity": 70}, {"time": 209764, "pitch": 69, "duration": 219, "velocity": 80}, {"time": 210242, "pitch": 62, "duration": 218, "velocity": 60}, {"time": 210242, "pitch": 66, "duration": 218, "velocity": 70}, {"time": 210242, "pitch": 69, "duration": 218, "velocity": 80}, {"time": 210719, "pitch": 50, "duration": 448, "velocity": 70}, {"time": 211197, "pitch": 62, "duration": 219, "velocity": 60}, {"time": 211197, "pitch": 66, "duration": 219, "velocity": 70}, {"time": 211197, "pitch": 69, "duration": 219, "velocity": 80}, {"time": 211674, "pitch": 62, "duration": 225, "velocity": 60}, {"time": 211674, "pitch": 66, "duration": 225, "velocity": 70}, {"time": 211674, "pitch": 69, "duration": 225, "velocity": 80}, {"time": 212165, "pitch": 50, "duration": 447, "velocity": 70}, {"time": 212642, "pitch": 62, "duration": 219, "velocity": 60}, {"time": 212642, "pitch": 66, "duration": 219, "velocity": 70}, {"time": 212642, "pitch": 69, "duration": 219, "velocity": 80}, {"time": 213120, "pitch": 62, "duration": 219, "velocity": 60}, {"time": 213120, "pitch": 66, "duration": 219, "velocity": 70}, {"time": 213120, "pitch": 69, "duration": 219, "velocity": 80}, {"time": 213597, "pitch": 62, "duration": 219, "velocity": 60}, {"time": 213597, "pitch": 66, "duration": 219, "velocity": 70}, {"time": 213597, "pitch": 69, "duration": 219, "velocity": 80}, {"time": 214075, "pitch": 62, "duration": 225, "velocity": 60}, {"time": 214075, "pitch": 66, "duration": 225, "velocity": 70}, {"time": 214075, "pitch": 69, "duration": 225, "velocity": 80}, {"time": 214565, "pitch": 50, "duration": 448, "velocity": 70}, {"time": 215043, "pitch": 62, "duration": 219, "velocity": 60}, {"time": 215043, "pitch": 66, "duration": 219, "velocity": 70}, {"time": 215043, "pitch": 69, "duration": 219, "velocity": 80}, {"time": 215520, "pitch": 62, "duration": 219, "velocity": 60}, {"time": 215520, "pitch": 66, "duration": 219, "velocity": 70}, {"time": 215520, "pitch": 69, "duration": 219, "velocity": 80}, {"time": 215998, "pitch": 50, "duration": 448, "velocity": 70}, {"time": 216475, "pitch": 62, "duration": 225, "velocity": 60}, {"time": 216475, "pitch": 66, "duration": 225, "velocity": 70}, {"time": 216475, "pitch": 69, "duration": 225, "velocity": 80}, {"time": 216966, "pitch": 62, "duration": 219, "velocity": 60}, {"time": 216966, "pitch": 66, "duration": 219, "velocity": 70}, {"time": 216966, "pitch": 69, "duration": 219, "velocity": 80}, {"time": 217443, "pitch": 43, "duration": 1911, "velocity": 70}, {"time": 219354, "pitch": 43, "duration": 1923, "velocity": 70}, {"time": 221277, "pitch": 43, "duration": 1923, "velocity": 70}, {"time": 223200, "pitch": 43, "duration": 1923, "velocity": 70}, {"time": 225123, "pitch": 43, "duration": 1923, "velocity": 70}, {"time": 227046, "pitch": 43, "duration": 1910, "velocity": 70}, {"time": 228956, "pitch": 43, "duration": 1923, "velocity": 70}, {"time": 230879, "pitch": 43, "duration": 1923, "velocity": 70}, {"time": 232802, "pitch": 72, "duration": 219, "velocity": 65}, {"time": 232802, "pitch": 76, "duration": 219, "velocity": 70}, {"time": 232802, "pitch": 79, "duration": 219, "velocity": 55}, {"time": 233280, "pitch": 72, "duration": 219, "velocity": 65}, {"time": 233280, "pitch": 76, "duration": 219, "velocity": 70}, {"time": 233280, "pitch": 79, "duration": 219, "velocity": 55}, {"time": 233757, "pitch": 72, "duration": 219, "velocity": 65}, {"time": 233757, "pitch": 76, "duration": 219, "velocity": 70}, {"time": 233757, "pitch": 79, "duration": 219, "velocity": 55}, {"time": 234235, "pitch": 72, "duration": 225, "velocity": 65}, {"time": 234235, "pitch": 76, "duration": 225, "velocity": 70}, {"time": 234235, "pitch": 79, "duration": 225, "velocity": 55}, {"time": 234725, "pitch": 71, "duration": 219, "velocity": 65}, {"time": 234725, "pitch": 74, "duration": 219, "velocity": 70}, {"time": 234725, "pitch": 79, "duration": 219, "velocity": 55}, {"time": 235203, "pitch": 71, "duration": 219, "velocity": 65}, {"time": 235203, "pitch": 74, "duration": 219, "velocity": 70}, {"time": 235203, "pitch": 79, "duration": 219, "velocity": 55}, {"time": 235681, "pitch": 71, "duration": 218, "velocity": 65}, {"time": 235681, "pitch": 74, "duration": 218, "velocity": 70}, {"time": 235681, "pitch": 79, "duration": 218, "velocity": 55}, {"time": 236158, "pitch": 71, "duration": 219, "velocity": 65}, {"time": 236158, "pitch": 74, "duration": 219, "velocity": 70}, {"time": 236158, "pitch": 79, "duration": 219, "velocity": 55}, {"time": 236636, "pitch": 72, "duration": 224, "velocity": 65}, {"time": 236636, "pitch": 76, "duration": 224, "velocity": 70}, {"time": 236636, "pitch": 79, "duration": 224, "velocity": 55}, {"time": 237126, "pitch": 72, "duration": 219, "velocity": 65}, {"time": 237126, "pitch": 76, "duration": 219, "velocity": 70}, {"time": 237126, "pitch": 79, "duration": 219, "velocity": 55}, {"time": 237604, "pitch": 72, "duration": 219, "velocity": 65}, {"time": 237604, "pitch": 76, "duration": 219, "velocity": 70}, {"time": 237604, "pitch": 79, "duration": 219, "velocity": 55}, {"time": 238081, "pitch": 72, "duration": 219, "velocity": 65}, {"time": 238081, "pitch": 76, "duration": 219, "velocity": 70}, {"time": 238081, "pitch": 79, "duration": 219, "velocity": 55}, {"time": 238559, "pitch": 71, "duration": 219, "velocity": 65}, {"time": 238559, "pitch": 74, "duration": 219, "velocity": 70}, {"time": 238559, "pitch": 79, "duration": 219, "velocity": 55}, {"time": 239036, "pitch": 71, "duration": 219, "velocity": 65}, {"time": 239036, "pitch": 74, "duration": 219, "velocity": 70}, {"time": 239036, "pitch": 79, "duration": 219, "velocity": 55}, {"time": 239514, "pitch": 71, "duration": 225, "velocity": 65}, {"time": 239514, "pitch": 74, "duration": 225, "velocity": 70}, {"time": 239514, "pitch": 79, "duration": 225, "velocity": 55}, {"time": 240004, "pitch": 71, "duration": 219, "velocity": 65}, {"time": 240004, "pitch": 74, "duration": 219, "velocity": 70}, {"time": 240004, "pitch": 79, "duration": 219, "velocity": 55}, {"time": 240482, "pitch": 60, "duration": 875, "velocity": 68}, {"time": 240959, "pitch": 72, "duration": 936, "velocity": 76}, {"time": 241437, "pitch": 59, "duration": 886, "velocity": 69}, {"time": 241914, "pitch": 72, "duration": 481, "velocity": 76}, {"time": 242405, "pitch": 57, "duration": 875, "velocity": 68}, {"time": 242882, "pitch": 72, "duration": 936, "velocity": 76}, {"time": 243360, "pitch": 55, "duration": 875, "velocity": 69}, {"time": 243838, "pitch": 72, "duration": 467, "velocity": 76}, {"time": 244315, "pitch": 53, "duration": 327, "velocity": 72}, {"time": 244315, "pitch": 57, "duration": 327, "velocity": 70}, {"time": 244315, "pitch": 60, "duration": 327, "velocity": 76}, {"time": 244642, "pitch": 53, "duration": 323, "velocity": 69}, {"time": 244642, "pitch": 57, "duration": 323, "velocity": 67}, {"time": 244642, "pitch": 60, "duration": 323, "velocity": 74}, {"time": 244965, "pitch": 53, "duration": 318, "velocity": 67}, {"time": 244965, "pitch": 57, "duration": 318, "velocity": 64}, {"time": 244965, "pitch": 60, "duration": 318, "velocity": 71}, {"time": 245283, "pitch": 53, "duration": 318, "velocity": 72}, {"time": 245283, "pitch": 57, "duration": 318, "velocity": 70}, {"time": 245283, "pitch": 60, "duration": 318, "velocity": 76}, {"time": 245601, "pitch": 53, "duration": 319, "velocity": 69}, {"time": 245601, "pitch": 57, "duration": 319, "velocity": 67}, {"time": 245601, "pitch": 60, "duration": 319, "velocity": 74}, {"time": 245920, "pitch": 53, "duration": 318, "velocity": 67}, {"time": 245920, "pitch": 57, "duration": 318, "velocity": 64}, {"time": 245920, "pitch": 60, "duration": 318, "velocity": 71}, {"time": 246238, "pitch": 53, "duration": 318, "velocity": 72}, {"time": 246238, "pitch": 57, "duration": 318, "velocity": 70}, {"time": 246238, "pitch": 60, "duration": 318, "velocity": 76}, {"time": 246556, "pitch": 53, "duration": 323, "velocity": 69}, {"time": 246556, "pitch": 57, "duration": 323, "velocity": 67}, {"time": 246556, "pitch": 60, "duration": 323, "velocity": 74}, {"time": 246879, "pitch": 53, "duration": 327, "velocity": 67}, {"time": 246879, "pitch": 57, "duration": 327, "velocity": 64}, {"time": 246879, "pitch": 60, "duration": 327, "velocity": 71}, {"time": 247206, "pitch": 55, "duration": 279, "velocity": 72}, {"time": 247206, "pitch": 59, "duration": 279, "velocity": 70}, {"time": 247206, "pitch": 62, "duration": 289, "velocity": 76}, {"time": 247684, "pitch": 55, "duration": 288, "velocity": 72}, {"time": 247684, "pitch": 59, "duration": 288, "velocity": 70}, {"time": 247684, "pitch": 62, "duration": 288, "velocity": 76}, {"time": 248161, "pitch": 43, "duration": 448, "velocity": 69}, {"time": 248639, "pitch": 59, "duration": 239, "velocity": 75}, {"time": 248639, "pitch": 62, "duration": 239, "velocity": 69}, {"time": 248639, "pitch": 67, "duration": 239, "velocity": 65}, {"time": 249116, "pitch": 59, "duration": 239, "velocity": 75}, {"time": 249116, "pitch": 62, "duration": 239, "velocity": 69}, {"time": 249116, "pitch": 67, "duration": 239, "velocity": 65}, {"time": 249594, "pitch": 41, "duration": 460, "velocity": 69}, {"time": 250084, "pitch": 57, "duration": 239, "velocity": 75}, {"time": 250084, "pitch": 60, "duration": 239, "velocity": 69}, {"time": 250084, "pitch": 65, "duration": 239, "velocity": 65}, {"time": 250562, "pitch": 57, "duration": 239, "velocity": 75}, {"time": 250562, "pitch": 60, "duration": 239, "velocity": 69}, {"time": 250562, "pitch": 65, "duration": 239, "velocity": 65}, {"time": 251039, "pitch": 40, "duration": 448, "velocity": 69}, {"time": 251517, "pitch": 59, "duration": 239, "velocity": 73}, {"time": 251517, "pitch": 62, "duration": 239, "velocity": 71}, {"time": 251517, "pitch": 64, "duration": 239, "velocity": 71}, {"time": 251517, "pitch": 68, "duration": 239, "velocity": 63}, {"time": 251994, "pitch": 59, "duration": 246, "velocity": 73}, {"time": 251994, "pitch": 62, "duration": 246, "velocity": 71}, {"time": 251994, "pitch": 64, "duration": 246, "velocity": 71}, {"time": 251994, "pitch": 68, "duration": 246, "velocity": 63}, {"time": 252485, "pitch": 39, "duration": 448, "velocity": 73}, {"time": 252963, "pitch": 55, "duration": 238, "velocity": 75}, {"time": 252963, "pitch": 58, "duration": 238, "velocity": 70}, {"time": 252963, "pitch": 63, "duration": 238, "velocity": 65}, {"time": 253440, "pitch": 43, "duration": 239, "velocity": 55}, {"time": 253440, "pitch": 59, "duration": 239, "velocity": 75}, {"time": 253440, "pitch": 62, "duration": 239, "velocity": 70}, {"time": 253440, "pitch": 67, "duration": 239, "velocity": 65}, {"time": 253918, "pitch": 43, "duration": 447, "velocity": 69}, {"time": 254395, "pitch": 59, "duration": 245, "velocity": 75}, {"time": 254395, "pitch": 62, "duration": 245, "velocity": 69}, {"time": 254395, "pitch": 67, "duration": 245, "velocity": 65}, {"time": 254886, "pitch": 59, "duration": 238, "velocity": 75}, {"time": 254886, "pitch": 62, "duration": 238, "velocity": 69}, {"time": 254886, "pitch": 67, "duration": 238, "velocity": 65}, {"time": 255363, "pitch": 41, "duration": 448, "velocity": 69}, {"time": 255841, "pitch": 57, "duration": 238, "velocity": 75}, {"time": 255841, "pitch": 60, "duration": 238, "velocity": 69}, {"time": 255841, "pitch": 65, "duration": 238, "velocity": 65}, {"time": 256318, "pitch": 57, "duration": 239, "velocity": 75}, {"time": 256318, "pitch": 60, "duration": 239, "velocity": 69}, {"time": 256318, "pitch": 65, "duration": 239, "velocity": 65}, {"time": 256796, "pitch": 40, "duration": 460, "velocity": 69}, {"time": 257286, "pitch": 59, "duration": 239, "velocity": 75}, {"time": 257286, "pitch": 62, "duration": 239, "velocity": 75}, {"time": 257286, "pitch": 64, "duration": 239, "velocity": 75}, {"time": 257286, "pitch": 67, "duration": 239, "velocity": 75}, {"time": 257286, "pitch": 68, "duration": 239, "velocity": 75}, {"time": 257764, "pitch": 59, "duration": 239, "velocity": 73}, {"time": 257764, "pitch": 62, "duration": 239, "velocity": 71}, {"time": 257764, "pitch": 64, "duration": 239, "velocity": 71}, {"time": 257764, "pitch": 65, "duration": 239, "velocity": 69}, {"time": 257764, "pitch": 68, "duration": 239, "velocity": 63}, {"time": 258241, "pitch": 39, "duration": 448, "velocity": 73}, {"time": 258719, "pitch": 55, "duration": 239, "velocity": 75}, {"time": 258719, "pitch": 58, "duration": 239, "velocity": 70}, {"time": 258719, "pitch": 63, "duration": 239, "velocity": 65}, {"time": 259196, "pitch": 52, "duration": 239, "velocity": 55}, {"time": 259196, "pitch": 55, "duration": 239, "velocity": 75}, {"time": 259196, "pitch": 58, "duration": 239, "velocity": 70}, {"time": 259196, "pitch": 61, "duration": 239, "velocity": 65}], "annotations": [{"time": 293, "annotation": {"number": 7, "value": 107}, "group": "control_change"}, {"time": 314, "annotation": {"number": 11, "value": 107}, "group": "control_change"}, {"time": 335, "annotation": {"number": 10, "value": 34}, "group": "control_change"}, {"time": 356, "annotation": {"number": 91, "value": 20}, "group": "control_change"}, {"time": 377, "annotation": {"number": 93, "value": 20}, "group": "control_change"}, {"time": 397, "annotation": {"number": 101, "value": 0}, "group": "control_change"}, {"time": 418, "annotation": {"number": 100, "value": 0}, "group": "control_change"}, {"time": 439, "annotation": {"number": 6, "value": 12}, "group": "control_change"}, {"time": 460, "annotation": {"number": 101, "value": 127}, "group": "control_change"}, {"time": 483, "annotation": {"number": 100, "value": 127}, "group": "control_change"}]}, {"program": 0, "is_drum": false, "name": "E.G-R", "annotations": [{"time": 230, "annotation": {"number": 0, "value": 0}, "group": "control_change"}, {"time": 251, "annotation": {"number": 32, "value": 0}, "group": "control_change"}]}, {"program": 30, "is_drum": false, "name": "E.G-R", "notes": [{"time": 4316, "pitch": 50, "duration": 179, "velocity": 101}, {"time": 4316, "pitch": 55, "duration": 179, "velocity": 95}, {"time": 4555, "pitch": 50, "duration": 119, "velocity": 101}, {"time": 4555, "pitch": 55, "duration": 119, "velocity": 89}, {"time": 4794, "pitch": 71, "duration": 245, "velocity": 110}, {"time": 4794, "pitch": 74, "duration": 245, "velocity": 104}, {"time": 4794, "pitch": 79, "duration": 245, "velocity": 100}, {"time": 5284, "pitch": 71, "duration": 239, "velocity": 110}, {"time": 5284, "pitch": 74, "duration": 239, "velocity": 104}, {"time": 5284, "pitch": 79, "duration": 239, "velocity": 100}, {"time": 5762, "pitch": 45, "duration": 139, "velocity": 101}, {"time": 5762, "pitch": 48, "duration": 139, "velocity": 92}, {"time": 6001, "pitch": 45, "duration": 109, "velocity": 100}, {"time": 6001, "pitch": 48, "duration": 109, "velocity": 89}, {"time": 6239, "pitch": 69, "duration": 239, "velocity": 110}, {"time": 6239, "pitch": 72, "duration": 239, "velocity": 104}, {"time": 6239, "pitch": 77, "duration": 239, "velocity": 100}, {"time": 6717, "pitch": 69, "duration": 239, "velocity": 110}, {"time": 6717, "pitch": 72, "duration": 239, "velocity": 104}, {"time": 6717, "pitch": 77, "duration": 239, "velocity": 100}, {"time": 7195, "pitch": 40, "duration": 143, "velocity": 90}, {"time": 7195, "pitch": 44, "duration": 143, "velocity": 101}, {"time": 7440, "pitch": 40, "duration": 112, "velocity": 86}, {"time": 7440, "pitch": 44, "duration": 112, "velocity": 99}, {"time": 7685, "pitch": 71, "duration": 239, "velocity": 108}, {"time": 7685, "pitch": 74, "duration": 239, "velocity": 106}, {"time": 7685, "pitch": 76, "duration": 239, "velocity": 106}, {"time": 7685, "pitch": 80, "duration": 239, "velocity": 98}, {"time": 8163, "pitch": 71, "duration": 238, "velocity": 108}, {"time": 8163, "pitch": 74, "duration": 238, "velocity": 106}, {"time": 8163, "pitch": 76, "duration": 238, "velocity": 106}, {"time": 8163, "pitch": 80, "duration": 238, "velocity": 98}, {"time": 8640, "pitch": 43, "duration": 139, "velocity": 103}, {"time": 8640, "pitch": 46, "duration": 139, "velocity": 93}, {"time": 8879, "pitch": 43, "duration": 99, "velocity": 100}, {"time": 8879, "pitch": 46, "duration": 89, "velocity": 90}, {"time": 9118, "pitch": 67, "duration": 238, "velocity": 110}, {"time": 9118, "pitch": 70, "duration": 238, "velocity": 105}, {"time": 9118, "pitch": 75, "duration": 238, "velocity": 100}, {"time": 9595, "pitch": 55, "duration": 245, "velocity": 90}, {"time": 9595, "pitch": 71, "duration": 245, "velocity": 110}, {"time": 9595, "pitch": 74, "duration": 245, "velocity": 105}, {"time": 9595, "pitch": 79, "duration": 245, "velocity": 100}, {"time": 10086, "pitch": 50, "duration": 179, "velocity": 101}, {"time": 10086, "pitch": 55, "duration": 179, "velocity": 95}, {"time": 10324, "pitch": 50, "duration": 120, "velocity": 101}, {"time": 10324, "pitch": 55, "duration": 120, "velocity": 89}, {"time": 10563, "pitch": 71, "duration": 239, "velocity": 110}, {"time": 10563, "pitch": 74, "duration": 239, "velocity": 104}, {"time": 10563, "pitch": 79, "duration": 239, "velocity": 100}, {"time": 11041, "pitch": 71, "duration": 238, "velocity": 110}, {"time": 11041, "pitch": 74, "duration": 238, "velocity": 104}, {"time": 11041, "pitch": 79, "duration": 238, "velocity": 100}, {"time": 11518, "pitch": 45, "duration": 140, "velocity": 101}, {"time": 11518, "pitch": 48, "duration": 140, "velocity": 92}, {"time": 11757, "pitch": 45, "duration": 109, "velocity": 100}, {"time": 11757, "pitch": 48, "duration": 109, "velocity": 89}, {"time": 11996, "pitch": 69, "duration": 245, "velocity": 110}, {"time": 11996, "pitch": 72, "duration": 245, "velocity": 104}, {"time": 11996, "pitch": 77, "duration": 245, "velocity": 100}, {"time": 12486, "pitch": 69, "duration": 239, "velocity": 110}, {"time": 12486, "pitch": 72, "duration": 239, "velocity": 104}, {"time": 12486, "pitch": 77, "duration": 239, "velocity": 100}, {"time": 12964, "pitch": 40, "duration": 139, "velocity": 90}, {"time": 12964, "pitch": 44, "duration": 139, "velocity": 101}, {"time": 13203, "pitch": 40, "duration": 109, "velocity": 86}, {"time": 13203, "pitch": 44, "duration": 109, "velocity": 99}, {"time": 13441, "pitch": 71, "duration": 239, "velocity": 108}, {"time": 13441, "pitch": 74, "duration": 239, "velocity": 106}, {"time": 13441, "pitch": 76, "duration": 239, "velocity": 106}, {"time": 13441, "pitch": 80, "duration": 239, "velocity": 98}, {"time": 13919, "pitch": 71, "duration": 239, "velocity": 108}, {"time": 13919, "pitch": 74, "duration": 239, "velocity": 106}, {"time": 13919, "pitch": 76, "duration": 239, "velocity": 106}, {"time": 13919, "pitch": 80, "duration": 239, "velocity": 98}, {"time": 14396, "pitch": 43, "duration": 140, "velocity": 103}, {"time": 14396, "pitch": 46, "duration": 140, "velocity": 93}, {"time": 14635, "pitch": 43, "duration": 100, "velocity": 100}, {"time": 14635, "pitch": 46, "duration": 90, "velocity": 90}, {"time": 14874, "pitch": 67, "duration": 245, "velocity": 110}, {"time": 14874, "pitch": 70, "duration": 245, "velocity": 105}, {"time": 14874, "pitch": 75, "duration": 245, "velocity": 100}, {"time": 15364, "pitch": 55, "duration": 239, "velocity": 90}, {"time": 15364, "pitch": 71, "duration": 239, "velocity": 110}, {"time": 15364, "pitch": 74, "duration": 239, "velocity": 105}, {"time": 15364, "pitch": 79, "duration": 239, "velocity": 100}, {"time": 41758, "pitch": 41, "duration": 239, "velocity": 116}, {"time": 41758, "pitch": 48, "duration": 239, "velocity": 110}, {"time": 41997, "pitch": 41, "duration": 219, "velocity": 114}, {"time": 41997, "pitch": 48, "duration": 219, "velocity": 108}, {"time": 42714, "pitch": 41, "duration": 490, "velocity": 117}, {"time": 42714, "pitch": 48, "duration": 490, "velocity": 113}, {"time": 43682, "pitch": 43, "duration": 238, "velocity": 116}, {"time": 43682, "pitch": 50, "duration": 238, "velocity": 110}, {"time": 43920, "pitch": 43, "duration": 219, "velocity": 114}, {"time": 43920, "pitch": 50, "duration": 219, "velocity": 108}, {"time": 44637, "pitch": 43, "duration": 477, "velocity": 117}, {"time": 44637, "pitch": 50, "duration": 477, "velocity": 113}, {"time": 45605, "pitch": 41, "duration": 238, "velocity": 116}, {"time": 45605, "pitch": 48, "duration": 238, "velocity": 110}, {"time": 45843, "pitch": 41, "duration": 219, "velocity": 114}, {"time": 45843, "pitch": 48, "duration": 219, "velocity": 108}, {"time": 46560, "pitch": 41, "duration": 477, "velocity": 117}, {"time": 46560, "pitch": 48, "duration": 477, "velocity": 113}, {"time": 47515, "pitch": 43, "duration": 245, "velocity": 116}, {"time": 47515, "pitch": 50, "duration": 245, "velocity": 110}, {"time": 47760, "pitch": 43, "duration": 225, "velocity": 114}, {"time": 47760, "pitch": 50, "duration": 225, "velocity": 108}, {"time": 48483, "pitch": 43, "duration": 477, "velocity": 117}, {"time": 48483, "pitch": 50, "duration": 477, "velocity": 113}, {"time": 49438, "pitch": 45, "duration": 1923, "velocity": 113}, {"time": 49438, "pitch": 52, "duration": 1923, "velocity": 108}, {"time": 51361, "pitch": 40, "duration": 1923, "velocity": 113}, {"time": 51361, "pitch": 47, "duration": 1923, "velocity": 108}, {"time": 53284, "pitch": 48, "duration": 1910, "velocity": 113}, {"time": 53284, "pitch": 55, "duration": 1910, "velocity": 108}, {"time": 55194, "pitch": 43, "duration": 1923, "velocity": 113}, {"time": 55194, "pitch": 50, "duration": 1923, "velocity": 108}, {"time": 57117, "pitch": 50, "duration": 239, "velocity": 116}, {"time": 57117, "pitch": 57, "duration": 239, "velocity": 110}, {"time": 57595, "pitch": 50, "duration": 225, "velocity": 114}, {"time": 57595, "pitch": 57, "duration": 225, "velocity": 108}, {"time": 58085, "pitch": 38, "duration": 478, "velocity": 100}, {"time": 58563, "pitch": 50, "duration": 239, "velocity": 116}, {"time": 58563, "pitch": 57, "duration": 239, "velocity": 110}, {"time": 59040, "pitch": 50, "duration": 219, "velocity": 114}, {"time": 59040, "pitch": 57, "duration": 219, "velocity": 108}, {"time": 59518, "pitch": 38, "duration": 478, "velocity": 100}, {"time": 59996, "pitch": 50, "duration": 245, "velocity": 116}, {"time": 59996, "pitch": 57, "duration": 245, "velocity": 110}, {"time": 60486, "pitch": 50, "duration": 478, "velocity": 114}, {"time": 60486, "pitch": 57, "duration": 478, "velocity": 108}, {"time": 60964, "pitch": 50, "duration": 238, "velocity": 101}, {"time": 61202, "pitch": 50, "duration": 239, "velocity": 96}, {"time": 61441, "pitch": 52, "duration": 239, "velocity": 100}, {"time": 61680, "pitch": 50, "duration": 239, "velocity": 96}, {"time": 61919, "pitch": 53, "duration": 238, "velocity": 101}, {"time": 62157, "pitch": 53, "duration": 239, "velocity": 99}, {"time": 62396, "pitch": 52, "duration": 239, "velocity": 97}, {"time": 62635, "pitch": 50, "duration": 239, "velocity": 92}, {"time": 62874, "pitch": 50, "duration": 245, "velocity": 101}, {"time": 63119, "pitch": 50, "duration": 245, "velocity": 96}, {"time": 63364, "pitch": 52, "duration": 239, "velocity": 100}, {"time": 63603, "pitch": 50, "duration": 239, "velocity": 96}, {"time": 63842, "pitch": 53, "duration": 238, "velocity": 101}, {"time": 64080, "pitch": 53, "duration": 239, "velocity": 99}, {"time": 64319, "pitch": 52, "duration": 239, "velocity": 97}, {"time": 64558, "pitch": 50, "duration": 239, "velocity": 92}, {"time": 64797, "pitch": 50, "duration": 239, "velocity": 101}, {"time": 65036, "pitch": 50, "duration": 238, "velocity": 96}, {"time": 65274, "pitch": 52, "duration": 246, "velocity": 100}, {"time": 65520, "pitch": 50, "duration": 245, "velocity": 96}, {"time": 65765, "pitch": 53, "duration": 239, "velocity": 101}, {"time": 66004, "pitch": 53, "duration": 238, "velocity": 99}, {"time": 66242, "pitch": 52, "duration": 239, "velocity": 97}, {"time": 66481, "pitch": 50, "duration": 239, "velocity": 92}, {"time": 66720, "pitch": 50, "duration": 239, "velocity": 101}, {"time": 66959, "pitch": 50, "duration": 238, "velocity": 96}, {"time": 67197, "pitch": 52, "duration": 239, "velocity": 100}, {"time": 67436, "pitch": 50, "duration": 239, "velocity": 96}, {"time": 67675, "pitch": 53, "duration": 245, "velocity": 101}, {"time": 67920, "pitch": 53, "duration": 245, "velocity": 99}, {"time": 68165, "pitch": 52, "duration": 239, "velocity": 97}, {"time": 68404, "pitch": 50, "duration": 239, "velocity": 92}, {"time": 68643, "pitch": 50, "duration": 239, "velocity": 101}, {"time": 68882, "pitch": 50, "duration": 239, "velocity": 96}, {"time": 69121, "pitch": 52, "duration": 238, "velocity": 100}, {"time": 69359, "pitch": 50, "duration": 239, "velocity": 96}, {"time": 69598, "pitch": 53, "duration": 239, "velocity": 101}, {"time": 69837, "pitch": 53, "duration": 239, "velocity": 99}, {"time": 70076, "pitch": 52, "duration": 245, "velocity": 97}, {"time": 70321, "pitch": 50, "duration": 245, "velocity": 92}, {"time": 70566, "pitch": 50, "duration": 239, "velocity": 101}, {"time": 70805, "pitch": 50, "duration": 239, "velocity": 96}, {"time": 71044, "pitch": 52, "duration": 238, "velocity": 100}, {"time": 71282, "pitch": 50, "duration": 239, "velocity": 96}, {"time": 71521, "pitch": 53, "duration": 239, "velocity": 101}, {"time": 71760, "pitch": 53, "duration": 239, "velocity": 99}, {"time": 71999, "pitch": 52, "duration": 238, "velocity": 97}, {"time": 72237, "pitch": 50, "duration": 239, "velocity": 92}, {"time": 72476, "pitch": 50, "duration": 239, "velocity": 101}, {"time": 72715, "pitch": 50, "duration": 239, "velocity": 96}, {"time": 72954, "pitch": 52, "duration": 245, "velocity": 100}, {"time": 73199, "pitch": 50, "duration": 245, "velocity": 96}, {"time": 73444, "pitch": 53, "duration": 239, "velocity": 101}, {"time": 73683, "pitch": 53, "duration": 239, "velocity": 99}, {"time": 73922, "pitch": 52, "duration": 239, "velocity": 97}, {"time": 74161, "pitch": 50, "duration": 238, "velocity": 92}, {"time": 74399, "pitch": 50, "duration": 239, "velocity": 101}, {"time": 74638, "pitch": 50, "duration": 239, "velocity": 96}, {"time": 74877, "pitch": 52, "duration": 239, "velocity": 100}, {"time": 75116, "pitch": 50, "duration": 238, "velocity": 96}, {"time": 75354, "pitch": 50, "duration": 246, "velocity": 101}, {"time": 75600, "pitch": 52, "duration": 245, "velocity": 99}, {"time": 75845, "pitch": 53, "duration": 239, "velocity": 97}, {"time": 76084, "pitch": 55, "duration": 238, "velocity": 92}, {"time": 76322, "pitch": 48, "duration": 219, "velocity": 115}, {"time": 76322, "pitch": 55, "duration": 219, "velocity": 100}, {"time": 76800, "pitch": 48, "duration": 219, "velocity": 115}, {"time": 76800, "pitch": 55, "duration": 219, "velocity": 100}, {"time": 77277, "pitch": 48, "duration": 219, "velocity": 115}, {"time": 77277, "pitch": 55, "duration": 219, "velocity": 100}, {"time": 77755, "pitch": 48, "duration": 225, "velocity": 115}, {"time": 77755, "pitch": 55, "duration": 225, "velocity": 100}, {"time": 78246, "pitch": 43, "duration": 218, "velocity": 115}, {"time": 78246, "pitch": 50, "duration": 218, "velocity": 100}, {"time": 78723, "pitch": 43, "duration": 219, "velocity": 115}, {"time": 78723, "pitch": 50, "duration": 219, "velocity": 100}, {"time": 79201, "pitch": 43, "duration": 218, "velocity": 115}, {"time": 79201, "pitch": 50, "duration": 218, "velocity": 100}, {"time": 79678, "pitch": 43, "duration": 219, "velocity": 115}, {"time": 79678, "pitch": 50, "duration": 219, "velocity": 100}, {"time": 80156, "pitch": 48, "duration": 224, "velocity": 115}, {"time": 80156, "pitch": 55, "duration": 224, "velocity": 100}, {"time": 80646, "pitch": 48, "duration": 219, "velocity": 115}, {"time": 80646, "pitch": 55, "duration": 219, "velocity": 100}, {"time": 81124, "pitch": 48, "duration": 219, "velocity": 115}, {"time": 81124, "pitch": 55, "duration": 219, "velocity": 100}, {"time": 81601, "pitch": 48, "duration": 219, "velocity": 115}, {"time": 81601, "pitch": 55, "duration": 219, "velocity": 100}, {"time": 82079, "pitch": 43, "duration": 219, "velocity": 115}, {"time": 82079, "pitch": 50, "duration": 219, "velocity": 100}, {"time": 82556, "pitch": 43, "duration": 219, "velocity": 115}, {"time": 82556, "pitch": 50, "duration": 219, "velocity": 100}, {"time": 83034, "pitch": 43, "duration": 225, "velocity": 115}, {"time": 83034, "pitch": 50, "duration": 225, "velocity": 100}, {"time": 83524, "pitch": 43, "duration": 219, "velocity": 115}, {"time": 83524, "pitch": 50, "duration": 219, "velocity": 100}, {"time": 84002, "pitch": 48, "duration": 955, "velocity": 102}, {"time": 84957, "pitch": 47, "duration": 968, "velocity": 100}, {"time": 85925, "pitch": 45, "duration": 955, "velocity": 103}, {"time": 86880, "pitch": 43, "duration": 955, "velocity": 100}, {"time": 87835, "pitch": 41, "duration": 2891, "velocity": 105}, {"time": 87835, "pitch": 48, "duration": 2891, "velocity": 98}, {"time": 90726, "pitch": 43, "duration": 239, "velocity": 105}, {"time": 90726, "pitch": 50, "duration": 239, "velocity": 98}, {"time": 91204, "pitch": 43, "duration": 239, "velocity": 105}, {"time": 91204, "pitch": 50, "duration": 239, "velocity": 98}, {"time": 91681, "pitch": 50, "duration": 179, "velocity": 101}, {"time": 91681, "pitch": 55, "duration": 179, "velocity": 95}, {"time": 91920, "pitch": 50, "duration": 119, "velocity": 101}, {"time": 91920, "pitch": 55, "duration": 119, "velocity": 89}, {"time": 92159, "pitch": 71, "duration": 239, "velocity": 110}, {"time": 92159, "pitch": 74, "duration": 239, "velocity": 104}, {"time": 92159, "pitch": 79, "duration": 239, "velocity": 100}, {"time": 92636, "pitch": 71, "duration": 239, "velocity": 110}, {"time": 92636, "pitch": 74, "duration": 239, "velocity": 104}, {"time": 92636, "pitch": 79, "duration": 239, "velocity": 100}, {"time": 93114, "pitch": 45, "duration": 143, "velocity": 101}, {"time": 93114, "pitch": 48, "duration": 143, "velocity": 92}, {"time": 93359, "pitch": 45, "duration": 113, "velocity": 100}, {"time": 93359, "pitch": 48, "duration": 113, "velocity": 89}, {"time": 93604, "pitch": 69, "duration": 239, "velocity": 110}, {"time": 93604, "pitch": 72, "duration": 239, "velocity": 104}, {"time": 93604, "pitch": 77, "duration": 239, "velocity": 100}, {"time": 94082, "pitch": 69, "duration": 239, "velocity": 110}, {"time": 94082, "pitch": 72, "duration": 239, "velocity": 104}, {"time": 94082, "pitch": 77, "duration": 239, "velocity": 100}, {"time": 94559, "pitch": 40, "duration": 140, "velocity": 90}, {"time": 94559, "pitch": 44, "duration": 140, "velocity": 101}, {"time": 94798, "pitch": 40, "duration": 110, "velocity": 86}, {"time": 94798, "pitch": 44, "duration": 110, "velocity": 99}, {"time": 95037, "pitch": 71, "duration": 239, "velocity": 108}, {"time": 95037, "pitch": 74, "duration": 239, "velocity": 106}, {"time": 95037, "pitch": 76, "duration": 239, "velocity": 106}, {"time": 95037, "pitch": 80, "duration": 239, "velocity": 98}, {"time": 95515, "pitch": 71, "duration": 245, "velocity": 108}, {"time": 95515, "pitch": 74, "duration": 245, "velocity": 106}, {"time": 95515, "pitch": 76, "duration": 245, "velocity": 106}, {"time": 95515, "pitch": 80, "duration": 245, "velocity": 98}, {"time": 96005, "pitch": 43, "duration": 139, "velocity": 103}, {"time": 96005, "pitch": 46, "duration": 139, "velocity": 93}, {"time": 96244, "pitch": 43, "duration": 99, "velocity": 100}, {"time": 96244, "pitch": 46, "duration": 89, "velocity": 90}, {"time": 96483, "pitch": 67, "duration": 238, "velocity": 110}, {"time": 96483, "pitch": 70, "duration": 238, "velocity": 105}, {"time": 96483, "pitch": 75, "duration": 238, "velocity": 100}, {"time": 96960, "pitch": 55, "duration": 239, "velocity": 90}, {"time": 96960, "pitch": 71, "duration": 239, "velocity": 110}, {"time": 96960, "pitch": 74, "duration": 239, "velocity": 105}, {"time": 96960, "pitch": 79, "duration": 239, "velocity": 100}, {"time": 97438, "pitch": 50, "duration": 179, "velocity": 101}, {"time": 97438, "pitch": 55, "duration": 179, "velocity": 95}, {"time": 97676, "pitch": 50, "duration": 120, "velocity": 101}, {"time": 97676, "pitch": 55, "duration": 120, "velocity": 89}, {"time": 97915, "pitch": 71, "duration": 245, "velocity": 110}, {"time": 97915, "pitch": 74, "duration": 245, "velocity": 104}, {"time": 97915, "pitch": 79, "duration": 245, "velocity": 100}, {"time": 98406, "pitch": 71, "duration": 238, "velocity": 110}, {"time": 98406, "pitch": 74, "duration": 238, "velocity": 104}, {"time": 98406, "pitch": 79, "duration": 238, "velocity": 100}, {"time": 98883, "pitch": 45, "duration": 140, "velocity": 101}, {"time": 98883, "pitch": 48, "duration": 140, "velocity": 92}, {"time": 99122, "pitch": 45, "duration": 109, "velocity": 100}, {"time": 99122, "pitch": 48, "duration": 109, "velocity": 89}, {"time": 99361, "pitch": 69, "duration": 239, "velocity": 110}, {"time": 99361, "pitch": 72, "duration": 239, "velocity": 104}, {"time": 99361, "pitch": 77, "duration": 239, "velocity": 100}, {"time": 99838, "pitch": 69, "duration": 239, "velocity": 110}, {"time": 99838, "pitch": 72, "duration": 239, "velocity": 104}, {"time": 99838, "pitch": 77, "duration": 239, "velocity": 100}, {"time": 100316, "pitch": 40, "duration": 143, "velocity": 90}, {"time": 100316, "pitch": 44, "duration": 143, "velocity": 101}, {"time": 100561, "pitch": 40, "duration": 113, "velocity": 86}, {"time": 100561, "pitch": 44, "duration": 113, "velocity": 99}, {"time": 100806, "pitch": 71, "duration": 239, "velocity": 108}, {"time": 100806, "pitch": 74, "duration": 239, "velocity": 106}, {"time": 100806, "pitch": 76, "duration": 239, "velocity": 106}, {"time": 100806, "pitch": 80, "duration": 239, "velocity": 98}, {"time": 101284, "pitch": 71, "duration": 239, "velocity": 108}, {"time": 101284, "pitch": 74, "duration": 239, "velocity": 106}, {"time": 101284, "pitch": 76, "duration": 239, "velocity": 106}, {"time": 101284, "pitch": 80, "duration": 239, "velocity": 98}, {"time": 101761, "pitch": 43, "duration": 140, "velocity": 103}, {"time": 101761, "pitch": 46, "duration": 140, "velocity": 93}, {"time": 102000, "pitch": 43, "duration": 100, "velocity": 100}, {"time": 102000, "pitch": 46, "duration": 90, "velocity": 90}, {"time": 102239, "pitch": 67, "duration": 239, "velocity": 110}, {"time": 102239, "pitch": 70, "duration": 239, "velocity": 105}, {"time": 102239, "pitch": 75, "duration": 239, "velocity": 100}, {"time": 102716, "pitch": 55, "duration": 239, "velocity": 90}, {"time": 102716, "pitch": 71, "duration": 239, "velocity": 110}, {"time": 102716, "pitch": 74, "duration": 239, "velocity": 105}, {"time": 102716, "pitch": 79, "duration": 239, "velocity": 100}, {"time": 129123, "pitch": 41, "duration": 239, "velocity": 116}, {"time": 129123, "pitch": 48, "duration": 239, "velocity": 110}, {"time": 129362, "pitch": 41, "duration": 219, "velocity": 114}, {"time": 129362, "pitch": 48, "duration": 219, "velocity": 108}, {"time": 130079, "pitch": 41, "duration": 477, "velocity": 117}, {"time": 130079, "pitch": 48, "duration": 477, "velocity": 113}, {"time": 131034, "pitch": 43, "duration": 245, "velocity": 116}, {"time": 131034, "pitch": 50, "duration": 245, "velocity": 110}, {"time": 131279, "pitch": 43, "duration": 225, "velocity": 114}, {"time": 131279, "pitch": 50, "duration": 225, "velocity": 108}, {"time": 132002, "pitch": 43, "duration": 477, "velocity": 117}, {"time": 132002, "pitch": 50, "duration": 477, "velocity": 113}, {"time": 132957, "pitch": 41, "duration": 238, "velocity": 116}, {"time": 132957, "pitch": 48, "duration": 238, "velocity": 110}, {"time": 133195, "pitch": 41, "duration": 219, "velocity": 114}, {"time": 133195, "pitch": 48, "duration": 219, "velocity": 108}, {"time": 133925, "pitch": 41, "duration": 477, "velocity": 117}, {"time": 133925, "pitch": 48, "duration": 477, "velocity": 113}, {"time": 134880, "pitch": 43, "duration": 239, "velocity": 116}, {"time": 134880, "pitch": 50, "duration": 239, "velocity": 110}, {"time": 135119, "pitch": 43, "duration": 218, "velocity": 114}, {"time": 135119, "pitch": 50, "duration": 218, "velocity": 108}, {"time": 135835, "pitch": 43, "duration": 490, "velocity": 117}, {"time": 135835, "pitch": 50, "duration": 490, "velocity": 113}, {"time": 136803, "pitch": 45, "duration": 1923, "velocity": 113}, {"time": 136803, "pitch": 52, "duration": 1923, "velocity": 108}, {"time": 138726, "pitch": 40, "duration": 1910, "velocity": 113}, {"time": 138726, "pitch": 47, "duration": 1910, "velocity": 108}, {"time": 140636, "pitch": 48, "duration": 1923, "velocity": 113}, {"time": 140636, "pitch": 55, "duration": 1923, "velocity": 108}, {"time": 142559, "pitch": 43, "duration": 1923, "velocity": 113}, {"time": 142559, "pitch": 50, "duration": 1923, "velocity": 108}, {"time": 144482, "pitch": 50, "duration": 239, "velocity": 116}, {"time": 144482, "pitch": 57, "duration": 239, "velocity": 110}, {"time": 144960, "pitch": 50, "duration": 219, "velocity": 114}, {"time": 144960, "pitch": 57, "duration": 219, "velocity": 108}, {"time": 145437, "pitch": 38, "duration": 478, "velocity": 100}, {"time": 145915, "pitch": 50, "duration": 245, "velocity": 116}, {"time": 145915, "pitch": 57, "duration": 245, "velocity": 110}, {"time": 146405, "pitch": 50, "duration": 219, "velocity": 114}, {"time": 146405, "pitch": 57, "duration": 219, "velocity": 108}, {"time": 146883, "pitch": 38, "duration": 477, "velocity": 100}, {"time": 147360, "pitch": 50, "duration": 239, "velocity": 116}, {"time": 147360, "pitch": 57, "duration": 239, "velocity": 110}, {"time": 147838, "pitch": 50, "duration": 478, "velocity": 114}, {"time": 147838, "pitch": 57, "duration": 478, "velocity": 108}, {"time": 148316, "pitch": 50, "duration": 245, "velocity": 101}, {"time": 148561, "pitch": 50, "duration": 245, "velocity": 96}, {"time": 148806, "pitch": 52, "duration": 239, "velocity": 100}, {"time": 149045, "pitch": 50, "duration": 239, "velocity": 96}, {"time": 149284, "pitch": 53, "duration": 238, "velocity": 101}, {"time": 149522, "pitch": 53, "duration": 239, "velocity": 99}, {"time": 149761, "pitch": 52, "duration": 239, "velocity": 97}, {"time": 150000, "pitch": 50, "duration": 239, "velocity": 92}, {"time": 150239, "pitch": 50, "duration": 238, "velocity": 101}, {"time": 150477, "pitch": 50, "duration": 239, "velocity": 96}, {"time": 150716, "pitch": 52, "duration": 239, "velocity": 100}, {"time": 150955, "pitch": 50, "duration": 239, "velocity": 96}, {"time": 151194, "pitch": 53, "duration": 245, "velocity": 101}, {"time": 151439, "pitch": 53, "duration": 245, "velocity": 99}, {"time": 151684, "pitch": 52, "duration": 239, "velocity": 97}, {"time": 151923, "pitch": 50, "duration": 239, "velocity": 92}, {"time": 152162, "pitch": 50, "duration": 239, "velocity": 101}, {"time": 152401, "pitch": 50, "duration": 238, "velocity": 96}, {"time": 152639, "pitch": 52, "duration": 239, "velocity": 100}, {"time": 152878, "pitch": 50, "duration": 239, "velocity": 96}, {"time": 153117, "pitch": 53, "duration": 239, "velocity": 101}, {"time": 153356, "pitch": 53, "duration": 238, "velocity": 99}, {"time": 153594, "pitch": 52, "duration": 246, "velocity": 97}, {"time": 153840, "pitch": 50, "duration": 245, "velocity": 92}, {"time": 154085, "pitch": 50, "duration": 239, "velocity": 101}, {"time": 154324, "pitch": 50, "duration": 238, "velocity": 96}, {"time": 154562, "pitch": 52, "duration": 239, "velocity": 100}, {"time": 154801, "pitch": 50, "duration": 239, "velocity": 96}, {"time": 155040, "pitch": 53, "duration": 239, "velocity": 101}, {"time": 155279, "pitch": 53, "duration": 238, "velocity": 99}, {"time": 155517, "pitch": 52, "duration": 239, "velocity": 97}, {"time": 155756, "pitch": 50, "duration": 239, "velocity": 92}, {"time": 155995, "pitch": 50, "duration": 245, "velocity": 101}, {"time": 156240, "pitch": 50, "duration": 246, "velocity": 96}, {"time": 156486, "pitch": 52, "duration": 238, "velocity": 100}, {"time": 156724, "pitch": 50, "duration": 239, "velocity": 96}, {"time": 156963, "pitch": 53, "duration": 239, "velocity": 101}, {"time": 157202, "pitch": 53, "duration": 239, "velocity": 99}, {"time": 157441, "pitch": 52, "duration": 238, "velocity": 97}, {"time": 157679, "pitch": 50, "duration": 239, "velocity": 92}, {"time": 157918, "pitch": 50, "duration": 239, "velocity": 101}, {"time": 158157, "pitch": 50, "duration": 239, "velocity": 96}, {"time": 158396, "pitch": 52, "duration": 245, "velocity": 100}, {"time": 158641, "pitch": 50, "duration": 245, "velocity": 96}, {"time": 158886, "pitch": 53, "duration": 239, "velocity": 101}, {"time": 159125, "pitch": 53, "duration": 239, "velocity": 99}, {"time": 159364, "pitch": 52, "duration": 238, "velocity": 97}, {"time": 159602, "pitch": 50, "duration": 239, "velocity": 92}, {"time": 159841, "pitch": 50, "duration": 239, "velocity": 101}, {"time": 160080, "pitch": 50, "duration": 239, "velocity": 96}, {"time": 160319, "pitch": 52, "duration": 239, "velocity": 100}, {"time": 160558, "pitch": 50, "duration": 238, "velocity": 96}, {"time": 160796, "pitch": 53, "duration": 239, "velocity": 101}, {"time": 161035, "pitch": 53, "duration": 239, "velocity": 99}, {"time": 161274, "pitch": 52, "duration": 245, "velocity": 97}, {"time": 161519, "pitch": 50, "duration": 245, "velocity": 92}, {"time": 161764, "pitch": 50, "duration": 239, "velocity": 101}, {"time": 162003, "pitch": 50, "duration": 239, "velocity": 96}, {"time": 162242, "pitch": 52, "duration": 239, "velocity": 100}, {"time": 162481, "pitch": 50, "duration": 238, "velocity": 96}, {"time": 162719, "pitch": 50, "duration": 239, "velocity": 101}, {"time": 162958, "pitch": 52, "duration": 239, "velocity": 99}, {"time": 163197, "pitch": 53, "duration": 239, "velocity": 97}, {"time": 163436, "pitch": 55, "duration": 238, "velocity": 92}, {"time": 163674, "pitch": 48, "duration": 225, "velocity": 115}, {"time": 163674, "pitch": 55, "duration": 225, "velocity": 100}, {"time": 164165, "pitch": 48, "duration": 219, "velocity": 115}, {"time": 164165, "pitch": 55, "duration": 219, "velocity": 100}, {"time": 164642, "pitch": 48, "duration": 219, "velocity": 115}, {"time": 164642, "pitch": 55, "duration": 219, "velocity": 100}, {"time": 165120, "pitch": 48, "duration": 219, "velocity": 115}, {"time": 165120, "pitch": 55, "duration": 219, "velocity": 100}, {"time": 165598, "pitch": 43, "duration": 218, "velocity": 115}, {"time": 165598, "pitch": 50, "duration": 218, "velocity": 100}, {"time": 166075, "pitch": 43, "duration": 225, "velocity": 115}, {"time": 166075, "pitch": 50, "duration": 225, "velocity": 100}, {"time": 166566, "pitch": 43, "duration": 218, "velocity": 115}, {"time": 166566, "pitch": 50, "duration": 218, "velocity": 100}, {"time": 167043, "pitch": 43, "duration": 219, "velocity": 115}, {"time": 167043, "pitch": 50, "duration": 219, "velocity": 100}, {"time": 167521, "pitch": 48, "duration": 219, "velocity": 115}, {"time": 167521, "pitch": 55, "duration": 219, "velocity": 100}, {"time": 167998, "pitch": 48, "duration": 219, "velocity": 115}, {"time": 167998, "pitch": 55, "duration": 219, "velocity": 100}, {"time": 168476, "pitch": 48, "duration": 225, "velocity": 115}, {"time": 168476, "pitch": 55, "duration": 225, "velocity": 100}, {"time": 168966, "pitch": 48, "duration": 219, "velocity": 115}, {"time": 168966, "pitch": 55, "duration": 219, "velocity": 100}, {"time": 169444, "pitch": 43, "duration": 219, "velocity": 115}, {"time": 169444, "pitch": 50, "duration": 219, "velocity": 100}, {"time": 169921, "pitch": 43, "duration": 219, "velocity": 115}, {"time": 169921, "pitch": 50, "duration": 219, "velocity": 100}, {"time": 170399, "pitch": 43, "duration": 219, "velocity": 115}, {"time": 170399, "pitch": 50, "duration": 219, "velocity": 100}, {"time": 170876, "pitch": 43, "duration": 219, "velocity": 115}, {"time": 170876, "pitch": 50, "duration": 219, "velocity": 100}, {"time": 171354, "pitch": 48, "duration": 968, "velocity": 102}, {"time": 172322, "pitch": 47, "duration": 955, "velocity": 100}, {"time": 173277, "pitch": 45, "duration": 968, "velocity": 103}, {"time": 174245, "pitch": 43, "duration": 955, "velocity": 100}, {"time": 175200, "pitch": 41, "duration": 2878, "velocity": 105}, {"time": 175200, "pitch": 48, "duration": 2878, "velocity": 98}, {"time": 178078, "pitch": 43, "duration": 239, "velocity": 105}, {"time": 178078, "pitch": 50, "duration": 239, "velocity": 98}, {"time": 178556, "pitch": 43, "duration": 245, "velocity": 105}, {"time": 178556, "pitch": 50, "duration": 245, "velocity": 98}, {"time": 179046, "pitch": 52, "duration": 1910, "velocity": 74}, {"time": 180956, "pitch": 51, "duration": 1924, "velocity": 73}, {"time": 182880, "pitch": 55, "duration": 1923, "velocity": 76}, {"time": 184803, "pitch": 60, "duration": 955, "velocity": 74}, {"time": 185758, "pitch": 61, "duration": 968, "velocity": 76}, {"time": 186726, "pitch": 51, "duration": 1910, "velocity": 69}, {"time": 186726, "pitch": 58, "duration": 1910, "velocity": 62}, {"time": 188636, "pitch": 51, "duration": 1923, "velocity": 69}, {"time": 188636, "pitch": 58, "duration": 1923, "velocity": 62}, {"time": 190559, "pitch": 50, "duration": 1923, "velocity": 69}, {"time": 190559, "pitch": 57, "duration": 1923, "velocity": 62}, {"time": 192482, "pitch": 50, "duration": 1923, "velocity": 69}, {"time": 192482, "pitch": 57, "duration": 1923, "velocity": 62}, {"time": 194405, "pitch": 41, "duration": 239, "velocity": 116}, {"time": 194405, "pitch": 48, "duration": 239, "velocity": 110}, {"time": 194644, "pitch": 41, "duration": 219, "velocity": 114}, {"time": 194644, "pitch": 48, "duration": 219, "velocity": 108}, {"time": 195360, "pitch": 41, "duration": 478, "velocity": 117}, {"time": 195360, "pitch": 48, "duration": 478, "velocity": 113}, {"time": 196315, "pitch": 43, "duration": 246, "velocity": 116}, {"time": 196315, "pitch": 50, "duration": 246, "velocity": 110}, {"time": 196561, "pitch": 43, "duration": 225, "velocity": 114}, {"time": 196561, "pitch": 50, "duration": 225, "velocity": 108}, {"time": 197283, "pitch": 43, "duration": 478, "velocity": 117}, {"time": 197283, "pitch": 50, "duration": 478, "velocity": 113}, {"time": 198238, "pitch": 41, "duration": 239, "velocity": 116}, {"time": 198238, "pitch": 48, "duration": 239, "velocity": 110}, {"time": 198477, "pitch": 41, "duration": 219, "velocity": 114}, {"time": 198477, "pitch": 48, "duration": 219, "velocity": 108}, {"time": 199206, "pitch": 41, "duration": 478, "velocity": 117}, {"time": 199206, "pitch": 48, "duration": 478, "velocity": 113}, {"time": 200162, "pitch": 43, "duration": 238, "velocity": 116}, {"time": 200162, "pitch": 50, "duration": 238, "velocity": 110}, {"time": 200400, "pitch": 43, "duration": 219, "velocity": 114}, {"time": 200400, "pitch": 50, "duration": 219, "velocity": 108}, {"time": 201117, "pitch": 43, "duration": 477, "velocity": 117}, {"time": 201117, "pitch": 50, "duration": 477, "velocity": 113}, {"time": 202085, "pitch": 45, "duration": 1910, "velocity": 113}, {"time": 202085, "pitch": 52, "duration": 1910, "velocity": 108}, {"time": 203995, "pitch": 40, "duration": 1923, "velocity": 113}, {"time": 203995, "pitch": 47, "duration": 1923, "velocity": 108}, {"time": 205918, "pitch": 48, "duration": 1923, "velocity": 113}, {"time": 205918, "pitch": 55, "duration": 1923, "velocity": 108}, {"time": 207841, "pitch": 43, "duration": 1923, "velocity": 113}, {"time": 207841, "pitch": 50, "duration": 1923, "velocity": 108}, {"time": 209764, "pitch": 50, "duration": 239, "velocity": 116}, {"time": 209764, "pitch": 57, "duration": 239, "velocity": 110}, {"time": 210242, "pitch": 50, "duration": 218, "velocity": 114}, {"time": 210242, "pitch": 57, "duration": 218, "velocity": 108}, {"time": 210719, "pitch": 38, "duration": 478, "velocity": 100}, {"time": 211197, "pitch": 50, "duration": 238, "velocity": 116}, {"time": 211197, "pitch": 57, "duration": 238, "velocity": 110}, {"time": 211674, "pitch": 50, "duration": 225, "velocity": 114}, {"time": 211674, "pitch": 57, "duration": 225, "velocity": 108}, {"time": 212165, "pitch": 38, "duration": 477, "velocity": 100}, {"time": 212642, "pitch": 50, "duration": 239, "velocity": 116}, {"time": 212642, "pitch": 57, "duration": 239, "velocity": 110}, {"time": 213120, "pitch": 50, "duration": 477, "velocity": 114}, {"time": 213120, "pitch": 57, "duration": 477, "velocity": 108}, {"time": 213597, "pitch": 50, "duration": 239, "velocity": 116}, {"time": 213597, "pitch": 57, "duration": 239, "velocity": 110}, {"time": 214075, "pitch": 50, "duration": 225, "velocity": 114}, {"time": 214075, "pitch": 57, "duration": 225, "velocity": 108}, {"time": 214565, "pitch": 38, "duration": 478, "velocity": 100}, {"time": 215043, "pitch": 50, "duration": 239, "velocity": 116}, {"time": 215043, "pitch": 57, "duration": 239, "velocity": 110}, {"time": 215520, "pitch": 50, "duration": 219, "velocity": 114}, {"time": 215520, "pitch": 57, "duration": 219, "velocity": 108}, {"time": 215998, "pitch": 38, "duration": 477, "velocity": 100}, {"time": 216475, "pitch": 50, "duration": 246, "velocity": 116}, {"time": 216475, "pitch": 57, "duration": 246, "velocity": 110}, {"time": 216966, "pitch": 50, "duration": 477, "velocity": 114}, {"time": 216966, "pitch": 57, "duration": 477, "velocity": 108}, {"time": 217443, "pitch": 50, "duration": 239, "velocity": 101}, {"time": 217682, "pitch": 50, "duration": 239, "velocity": 96}, {"time": 217921, "pitch": 52, "duration": 239, "velocity": 100}, {"time": 218160, "pitch": 50, "duration": 239, "velocity": 96}, {"time": 218399, "pitch": 53, "duration": 238, "velocity": 101}, {"time": 218637, "pitch": 53, "duration": 239, "velocity": 99}, {"time": 218876, "pitch": 52, "duration": 239, "velocity": 97}, {"time": 219115, "pitch": 50, "duration": 239, "velocity": 92}, {"time": 219354, "pitch": 50, "duration": 245, "velocity": 101}, {"time": 219599, "pitch": 50, "duration": 245, "velocity": 96}, {"time": 219844, "pitch": 52, "duration": 239, "velocity": 100}, {"time": 220083, "pitch": 50, "duration": 239, "velocity": 96}, {"time": 220322, "pitch": 53, "duration": 238, "velocity": 101}, {"time": 220560, "pitch": 53, "duration": 239, "velocity": 99}, {"time": 220799, "pitch": 52, "duration": 239, "velocity": 97}, {"time": 221038, "pitch": 50, "duration": 239, "velocity": 92}, {"time": 221277, "pitch": 50, "duration": 238, "velocity": 101}, {"time": 221515, "pitch": 50, "duration": 239, "velocity": 96}, {"time": 221754, "pitch": 52, "duration": 245, "velocity": 100}, {"time": 221999, "pitch": 50, "duration": 246, "velocity": 96}, {"time": 222245, "pitch": 53, "duration": 239, "velocity": 101}, {"time": 222484, "pitch": 53, "duration": 238, "velocity": 99}, {"time": 222722, "pitch": 52, "duration": 239, "velocity": 97}, {"time": 222961, "pitch": 50, "duration": 239, "velocity": 92}, {"time": 223200, "pitch": 50, "duration": 239, "velocity": 101}, {"time": 223439, "pitch": 50, "duration": 238, "velocity": 96}, {"time": 223677, "pitch": 52, "duration": 239, "velocity": 100}, {"time": 223916, "pitch": 50, "duration": 239, "velocity": 96}, {"time": 224155, "pitch": 53, "duration": 245, "velocity": 101}, {"time": 224400, "pitch": 53, "duration": 245, "velocity": 99}, {"time": 224645, "pitch": 52, "duration": 239, "velocity": 97}, {"time": 224884, "pitch": 50, "duration": 239, "velocity": 92}, {"time": 225123, "pitch": 50, "duration": 239, "velocity": 101}, {"time": 225362, "pitch": 50, "duration": 238, "velocity": 96}, {"time": 225600, "pitch": 52, "duration": 239, "velocity": 100}, {"time": 225839, "pitch": 50, "duration": 239, "velocity": 96}, {"time": 226078, "pitch": 53, "duration": 239, "velocity": 101}, {"time": 226317, "pitch": 53, "duration": 239, "velocity": 99}, {"time": 226556, "pitch": 52, "duration": 245, "velocity": 97}, {"time": 226801, "pitch": 50, "duration": 245, "velocity": 92}, {"time": 227046, "pitch": 50, "duration": 239, "velocity": 101}, {"time": 227285, "pitch": 50, "duration": 239, "velocity": 96}, {"time": 227524, "pitch": 52, "duration": 238, "velocity": 100}, {"time": 227762, "pitch": 50, "duration": 239, "velocity": 96}, {"time": 228001, "pitch": 53, "duration": 239, "velocity": 101}, {"time": 228240, "pitch": 53, "duration": 239, "velocity": 99}, {"time": 228479, "pitch": 52, "duration": 238, "velocity": 97}, {"time": 228717, "pitch": 50, "duration": 239, "velocity": 92}, {"time": 228956, "pitch": 50, "duration": 239, "velocity": 101}, {"time": 229195, "pitch": 50, "duration": 239, "velocity": 96}, {"time": 229434, "pitch": 52, "duration": 245, "velocity": 100}, {"time": 229679, "pitch": 50, "duration": 245, "velocity": 96}, {"time": 229924, "pitch": 53, "duration": 239, "velocity": 101}, {"time": 230163, "pitch": 53, "duration": 239, "velocity": 99}, {"time": 230402, "pitch": 52, "duration": 238, "velocity": 97}, {"time": 230640, "pitch": 50, "duration": 239, "velocity": 92}, {"time": 230879, "pitch": 50, "duration": 239, "velocity": 101}, {"time": 231118, "pitch": 50, "duration": 239, "velocity": 96}, {"time": 231357, "pitch": 52, "duration": 239, "velocity": 100}, {"time": 231596, "pitch": 50, "duration": 238, "velocity": 96}, {"time": 231834, "pitch": 50, "duration": 246, "velocity": 101}, {"time": 232080, "pitch": 52, "duration": 245, "velocity": 99}, {"time": 232325, "pitch": 53, "duration": 239, "velocity": 97}, {"time": 232564, "pitch": 55, "duration": 238, "velocity": 92}, {"time": 232802, "pitch": 48, "duration": 219, "velocity": 115}, {"time": 232802, "pitch": 55, "duration": 219, "velocity": 100}, {"time": 233280, "pitch": 48, "duration": 219, "velocity": 115}, {"time": 233280, "pitch": 55, "duration": 219, "velocity": 100}, {"time": 233757, "pitch": 48, "duration": 219, "velocity": 115}, {"time": 233757, "pitch": 55, "duration": 219, "velocity": 100}, {"time": 234235, "pitch": 48, "duration": 225, "velocity": 115}, {"time": 234235, "pitch": 55, "duration": 225, "velocity": 100}, {"time": 234725, "pitch": 43, "duration": 219, "velocity": 115}, {"time": 234725, "pitch": 50, "duration": 219, "velocity": 100}, {"time": 235203, "pitch": 43, "duration": 219, "velocity": 115}, {"time": 235203, "pitch": 50, "duration": 219, "velocity": 100}, {"time": 235681, "pitch": 43, "duration": 218, "velocity": 115}, {"time": 235681, "pitch": 50, "duration": 218, "velocity": 100}, {"time": 236158, "pitch": 43, "duration": 219, "velocity": 115}, {"time": 236158, "pitch": 50, "duration": 219, "velocity": 100}, {"time": 236636, "pitch": 48, "duration": 224, "velocity": 115}, {"time": 236636, "pitch": 55, "duration": 224, "velocity": 100}, {"time": 237126, "pitch": 48, "duration": 219, "velocity": 115}, {"time": 237126, "pitch": 55, "duration": 219, "velocity": 100}, {"time": 237604, "pitch": 48, "duration": 219, "velocity": 115}, {"time": 237604, "pitch": 55, "duration": 219, "velocity": 100}, {"time": 238081, "pitch": 48, "duration": 219, "velocity": 115}, {"time": 238081, "pitch": 55, "duration": 219, "velocity": 100}, {"time": 238559, "pitch": 43, "duration": 219, "velocity": 115}, {"time": 238559, "pitch": 50, "duration": 219, "velocity": 100}, {"time": 239036, "pitch": 43, "duration": 219, "velocity": 115}, {"time": 239036, "pitch": 50, "duration": 219, "velocity": 100}, {"time": 239514, "pitch": 43, "duration": 225, "velocity": 115}, {"time": 239514, "pitch": 50, "duration": 225, "velocity": 100}, {"time": 240004, "pitch": 43, "duration": 219, "velocity": 115}, {"time": 240004, "pitch": 50, "duration": 219, "velocity": 100}, {"time": 240482, "pitch": 48, "duration": 955, "velocity": 102}, {"time": 241437, "pitch": 47, "duration": 968, "velocity": 100}, {"time": 242405, "pitch": 45, "duration": 955, "velocity": 103}, {"time": 243360, "pitch": 43, "duration": 955, "velocity": 100}, {"time": 244315, "pitch": 41, "duration": 2891, "velocity": 105}, {"time": 244315, "pitch": 48, "duration": 2891, "velocity": 98}, {"time": 247206, "pitch": 43, "duration": 239, "velocity": 105}, {"time": 247206, "pitch": 50, "duration": 239, "velocity": 98}, {"time": 247684, "pitch": 43, "duration": 238, "velocity": 105}, {"time": 247684, "pitch": 50, "duration": 238, "velocity": 98}, {"time": 248161, "pitch": 50, "duration": 179, "velocity": 101}, {"time": 248161, "pitch": 55, "duration": 179, "velocity": 95}, {"time": 248400, "pitch": 50, "duration": 119, "velocity": 101}, {"time": 248400, "pitch": 55, "duration": 119, "velocity": 89}, {"time": 248639, "pitch": 71, "duration": 239, "velocity": 110}, {"time": 248639, "pitch": 74, "duration": 239, "velocity": 104}, {"time": 248639, "pitch": 79, "duration": 239, "velocity": 100}, {"time": 249116, "pitch": 71, "duration": 239, "velocity": 110}, {"time": 249116, "pitch": 74, "duration": 239, "velocity": 104}, {"time": 249116, "pitch": 79, "duration": 239, "velocity": 100}, {"time": 249594, "pitch": 45, "duration": 143, "velocity": 101}, {"time": 249594, "pitch": 48, "duration": 143, "velocity": 92}, {"time": 249839, "pitch": 45, "duration": 113, "velocity": 100}, {"time": 249839, "pitch": 48, "duration": 113, "velocity": 89}, {"time": 250084, "pitch": 69, "duration": 239, "velocity": 110}, {"time": 250084, "pitch": 72, "duration": 239, "velocity": 104}, {"time": 250084, "pitch": 77, "duration": 239, "velocity": 100}, {"time": 250562, "pitch": 69, "duration": 239, "velocity": 110}, {"time": 250562, "pitch": 72, "duration": 239, "velocity": 104}, {"time": 250562, "pitch": 77, "duration": 239, "velocity": 100}, {"time": 251039, "pitch": 40, "duration": 140, "velocity": 90}, {"time": 251039, "pitch": 44, "duration": 140, "velocity": 101}, {"time": 251278, "pitch": 40, "duration": 110, "velocity": 86}, {"time": 251278, "pitch": 44, "duration": 110, "velocity": 99}, {"time": 251517, "pitch": 71, "duration": 239, "velocity": 108}, {"time": 251517, "pitch": 74, "duration": 239, "velocity": 106}, {"time": 251517, "pitch": 76, "duration": 239, "velocity": 106}, {"time": 251517, "pitch": 80, "duration": 239, "velocity": 98}, {"time": 251994, "pitch": 71, "duration": 246, "velocity": 108}, {"time": 251994, "pitch": 74, "duration": 246, "velocity": 106}, {"time": 251994, "pitch": 76, "duration": 246, "velocity": 106}, {"time": 251994, "pitch": 80, "duration": 246, "velocity": 98}, {"time": 252485, "pitch": 43, "duration": 139, "velocity": 103}, {"time": 252485, "pitch": 46, "duration": 139, "velocity": 93}, {"time": 252724, "pitch": 43, "duration": 99, "velocity": 100}, {"time": 252724, "pitch": 46, "duration": 89, "velocity": 90}, {"time": 252963, "pitch": 67, "duration": 238, "velocity": 110}, {"time": 252963, "pitch": 70, "duration": 238, "velocity": 105}, {"time": 252963, "pitch": 75, "duration": 238, "velocity": 100}, {"time": 253440, "pitch": 55, "duration": 239, "velocity": 90}, {"time": 253440, "pitch": 71, "duration": 239, "velocity": 110}, {"time": 253440, "pitch": 74, "duration": 239, "velocity": 105}, {"time": 253440, "pitch": 79, "duration": 239, "velocity": 100}, {"time": 253918, "pitch": 50, "duration": 179, "velocity": 101}, {"time": 253918, "pitch": 55, "duration": 179, "velocity": 95}, {"time": 254156, "pitch": 50, "duration": 120, "velocity": 101}, {"time": 254156, "pitch": 55, "duration": 120, "velocity": 89}, {"time": 254395, "pitch": 71, "duration": 245, "velocity": 110}, {"time": 254395, "pitch": 74, "duration": 245, "velocity": 104}, {"time": 254395, "pitch": 79, "duration": 245, "velocity": 100}, {"time": 254886, "pitch": 71, "duration": 238, "velocity": 110}, {"time": 254886, "pitch": 74, "duration": 238, "velocity": 104}, {"time": 254886, "pitch": 79, "duration": 238, "velocity": 100}, {"time": 255363, "pitch": 45, "duration": 139, "velocity": 101}, {"time": 255363, "pitch": 48, "duration": 139, "velocity": 92}, {"time": 255602, "pitch": 45, "duration": 109, "velocity": 100}, {"time": 255602, "pitch": 48, "duration": 109, "velocity": 89}, {"time": 255841, "pitch": 69, "duration": 238, "velocity": 110}, {"time": 255841, "pitch": 72, "duration": 238, "velocity": 104}, {"time": 255841, "pitch": 77, "duration": 238, "velocity": 100}, {"time": 256318, "pitch": 69, "duration": 239, "velocity": 110}, {"time": 256318, "pitch": 72, "duration": 239, "velocity": 104}, {"time": 256318, "pitch": 77, "duration": 239, "velocity": 100}, {"time": 256796, "pitch": 40, "duration": 143, "velocity": 90}, {"time": 256796, "pitch": 44, "duration": 143, "velocity": 101}, {"time": 257041, "pitch": 40, "duration": 113, "velocity": 86}, {"time": 257041, "pitch": 44, "duration": 113, "velocity": 99}, {"time": 257286, "pitch": 71, "duration": 239, "velocity": 108}, {"time": 257286, "pitch": 74, "duration": 239, "velocity": 106}, {"time": 257286, "pitch": 76, "duration": 239, "velocity": 106}, {"time": 257286, "pitch": 80, "duration": 239, "velocity": 98}, {"time": 257764, "pitch": 71, "duration": 239, "velocity": 108}, {"time": 257764, "pitch": 74, "duration": 239, "velocity": 106}, {"time": 257764, "pitch": 76, "duration": 239, "velocity": 106}, {"time": 257764, "pitch": 77, "duration": 239, "velocity": 104}, {"time": 257764, "pitch": 80, "duration": 239, "velocity": 98}, {"time": 258241, "pitch": 39, "duration": 448, "velocity": 108}, {"time": 258719, "pitch": 67, "duration": 239, "velocity": 110}, {"time": 258719, "pitch": 70, "duration": 239, "velocity": 105}, {"time": 258719, "pitch": 75, "duration": 239, "velocity": 100}, {"time": 259196, "pitch": 64, "duration": 239, "velocity": 110}, {"time": 259196, "pitch": 67, "duration": 239, "velocity": 110}, {"time": 259196, "pitch": 70, "duration": 239, "velocity": 110}, {"time": 259196, "pitch": 73, "duration": 239, "velocity": 110}], "annotations": [{"time": 293, "annotation": {"number": 7, "value": 67}, "group": "control_change"}, {"time": 314, "annotation": {"number": 11, "value": 97}, "group": "control_change"}, {"time": 335, "annotation": {"number": 10, "value": 104}, "group": "control_change"}, {"time": 356, "annotation": {"number": 91, "value": 20}, "group": "control_change"}, {"time": 377, "annotation": {"number": 93, "value": 20}, "group": "control_change"}, {"time": 397, "annotation": {"number": 101, "value": 0}, "group": "control_change"}, {"time": 418, "annotation": {"number": 100, "value": 0}, "group": "control_change"}, {"time": 439, "annotation": {"number": 6, "value": 12}, "group": "control_change"}, {"time": 460, "annotation": {"number": 101, "value": 127}, "group": "control_change"}, {"time": 483, "annotation": {"number": 100, "value": 127}, "group": "control_change"}]}, {"program": 0, "is_drum": false, "name": "VIORA", "annotations": [{"time": 230, "annotation": {"number": 0, "value": 0}, "group": "control_change"}, {"time": 251, "annotation": {"number": 32, "value": 0}, "group": "control_change"}]}, {"program": 41, "is_drum": false, "name": "VIORA", "notes": [{"time": 60964, "pitch": 43, "duration": 89, "velocity": 93}, {"time": 61083, "pitch": 43, "duration": 89, "velocity": 89}, {"time": 61202, "pitch": 43, "duration": 90, "velocity": 93}, {"time": 61322, "pitch": 43, "duration": 89, "velocity": 88}, {"time": 61441, "pitch": 43, "duration": 90, "velocity": 93}, {"time": 61560, "pitch": 43, "duration": 90, "velocity": 89}, {"time": 61680, "pitch": 43, "duration": 89, "velocity": 93}, {"time": 61799, "pitch": 43, "duration": 90, "velocity": 88}, {"time": 61919, "pitch": 43, "duration": 89, "velocity": 93}, {"time": 62038, "pitch": 43, "duration": 90, "velocity": 89}, {"time": 62157, "pitch": 43, "duration": 90, "velocity": 93}, {"time": 62277, "pitch": 43, "duration": 89, "velocity": 88}, {"time": 62396, "pitch": 43, "duration": 90, "velocity": 93}, {"time": 62516, "pitch": 43, "duration": 89, "velocity": 89}, {"time": 62635, "pitch": 43, "duration": 89, "velocity": 93}, {"time": 62754, "pitch": 43, "duration": 90, "velocity": 88}, {"time": 62874, "pitch": 43, "duration": 92, "velocity": 93}, {"time": 62996, "pitch": 43, "duration": 92, "velocity": 89}, {"time": 63119, "pitch": 43, "duration": 92, "velocity": 93}, {"time": 63242, "pitch": 43, "duration": 92, "velocity": 88}, {"time": 63364, "pitch": 43, "duration": 90, "velocity": 93}, {"time": 63484, "pitch": 43, "duration": 89, "velocity": 89}, {"time": 63603, "pitch": 43, "duration": 89, "velocity": 93}, {"time": 63722, "pitch": 43, "duration": 90, "velocity": 88}, {"time": 63842, "pitch": 43, "duration": 89, "velocity": 93}, {"time": 63961, "pitch": 43, "duration": 90, "velocity": 89}, {"time": 64080, "pitch": 43, "duration": 90, "velocity": 93}, {"time": 64200, "pitch": 43, "duration": 89, "velocity": 88}, {"time": 64319, "pitch": 43, "duration": 90, "velocity": 93}, {"time": 64439, "pitch": 43, "duration": 89, "velocity": 89}, {"time": 64558, "pitch": 43, "duration": 90, "velocity": 93}, {"time": 64677, "pitch": 43, "duration": 90, "velocity": 88}, {"time": 64797, "pitch": 43, "duration": 89, "velocity": 93}, {"time": 64916, "pitch": 43, "duration": 90, "velocity": 89}, {"time": 65036, "pitch": 43, "duration": 89, "velocity": 93}, {"time": 65155, "pitch": 43, "duration": 89, "velocity": 88}, {"time": 65274, "pitch": 43, "duration": 92, "velocity": 93}, {"time": 65397, "pitch": 43, "duration": 92, "velocity": 89}, {"time": 65520, "pitch": 43, "duration": 92, "velocity": 93}, {"time": 65642, "pitch": 43, "duration": 92, "velocity": 88}, {"time": 65765, "pitch": 43, "duration": 89, "velocity": 93}, {"time": 65884, "pitch": 43, "duration": 90, "velocity": 89}, {"time": 66004, "pitch": 43, "duration": 89, "velocity": 93}, {"time": 66123, "pitch": 43, "duration": 90, "velocity": 88}, {"time": 66242, "pitch": 43, "duration": 90, "velocity": 93}, {"time": 66362, "pitch": 43, "duration": 89, "velocity": 89}, {"time": 66481, "pitch": 43, "duration": 90, "velocity": 93}, {"time": 66601, "pitch": 43, "duration": 89, "velocity": 88}, {"time": 66720, "pitch": 43, "duration": 89, "velocity": 93}, {"time": 66839, "pitch": 43, "duration": 90, "velocity": 89}, {"time": 66959, "pitch": 43, "duration": 89, "velocity": 93}, {"time": 67078, "pitch": 43, "duration": 90, "velocity": 88}, {"time": 67197, "pitch": 43, "duration": 90, "velocity": 93}, {"time": 67317, "pitch": 43, "duration": 89, "velocity": 89}, {"time": 67436, "pitch": 43, "duration": 90, "velocity": 93}, {"time": 67556, "pitch": 43, "duration": 89, "velocity": 88}, {"time": 67675, "pitch": 43, "duration": 92, "velocity": 93}, {"time": 67798, "pitch": 43, "duration": 92, "velocity": 89}, {"time": 67920, "pitch": 43, "duration": 92, "velocity": 93}, {"time": 68043, "pitch": 43, "duration": 92, "velocity": 88}, {"time": 68165, "pitch": 43, "duration": 90, "velocity": 93}, {"time": 68285, "pitch": 43, "duration": 89, "velocity": 89}, {"time": 68404, "pitch": 43, "duration": 90, "velocity": 93}, {"time": 68524, "pitch": 43, "duration": 89, "velocity": 88}, {"time": 68643, "pitch": 43, "duration": 90, "velocity": 93}, {"time": 68762, "pitch": 43, "duration": 90, "velocity": 89}, {"time": 68882, "pitch": 43, "duration": 89, "velocity": 93}, {"time": 69001, "pitch": 43, "duration": 90, "velocity": 88}, {"time": 69121, "pitch": 43, "duration": 89, "velocity": 93}, {"time": 69240, "pitch": 43, "duration": 89, "velocity": 89}, {"time": 69359, "pitch": 43, "duration": 90, "velocity": 93}, {"time": 69479, "pitch": 43, "duration": 89, "velocity": 88}, {"time": 69598, "pitch": 43, "duration": 90, "velocity": 93}, {"time": 69717, "pitch": 43, "duration": 90, "velocity": 89}, {"time": 69837, "pitch": 43, "duration": 89, "velocity": 93}, {"time": 69956, "pitch": 43, "duration": 90, "velocity": 88}, {"time": 70076, "pitch": 43, "duration": 91, "velocity": 93}, {"time": 70198, "pitch": 43, "duration": 92, "velocity": 89}, {"time": 70321, "pitch": 43, "duration": 92, "velocity": 93}, {"time": 70444, "pitch": 43, "duration": 92, "velocity": 88}, {"time": 70566, "pitch": 43, "duration": 90, "velocity": 93}, {"time": 70685, "pitch": 43, "duration": 90, "velocity": 89}, {"time": 70805, "pitch": 43, "duration": 89, "velocity": 93}, {"time": 70924, "pitch": 43, "duration": 90, "velocity": 88}, {"time": 71044, "pitch": 43, "duration": 89, "velocity": 93}, {"time": 71163, "pitch": 43, "duration": 90, "velocity": 89}, {"time": 71282, "pitch": 43, "duration": 90, "velocity": 93}, {"time": 71402, "pitch": 43, "duration": 89, "velocity": 88}, {"time": 71521, "pitch": 43, "duration": 90, "velocity": 93}, {"time": 71641, "pitch": 43, "duration": 89, "velocity": 89}, {"time": 71760, "pitch": 43, "duration": 89, "velocity": 93}, {"time": 71879, "pitch": 43, "duration": 90, "velocity": 88}, {"time": 71999, "pitch": 43, "duration": 89, "velocity": 93}, {"time": 72118, "pitch": 43, "duration": 90, "velocity": 89}, {"time": 72237, "pitch": 43, "duration": 90, "velocity": 93}, {"time": 72357, "pitch": 43, "duration": 89, "velocity": 88}, {"time": 72476, "pitch": 43, "duration": 90, "velocity": 93}, {"time": 72596, "pitch": 43, "duration": 89, "velocity": 89}, {"time": 72715, "pitch": 43, "duration": 90, "velocity": 93}, {"time": 72834, "pitch": 43, "duration": 90, "velocity": 88}, {"time": 72954, "pitch": 43, "duration": 92, "velocity": 93}, {"time": 73076, "pitch": 43, "duration": 92, "velocity": 89}, {"time": 73199, "pitch": 43, "duration": 92, "velocity": 93}, {"time": 73322, "pitch": 43, "duration": 92, "velocity": 88}, {"time": 73444, "pitch": 43, "duration": 90, "velocity": 93}, {"time": 73564, "pitch": 43, "duration": 89, "velocity": 89}, {"time": 73683, "pitch": 43, "duration": 90, "velocity": 93}, {"time": 73802, "pitch": 43, "duration": 90, "velocity": 88}, {"time": 73922, "pitch": 43, "duration": 89, "velocity": 93}, {"time": 74041, "pitch": 43, "duration": 90, "velocity": 89}, {"time": 74161, "pitch": 43, "duration": 89, "velocity": 93}, {"time": 74280, "pitch": 43, "duration": 89, "velocity": 88}, {"time": 74399, "pitch": 43, "duration": 90, "velocity": 93}, {"time": 74519, "pitch": 43, "duration": 89, "velocity": 89}, {"time": 74638, "pitch": 43, "duration": 90, "velocity": 93}, {"time": 74757, "pitch": 43, "duration": 90, "velocity": 88}, {"time": 74877, "pitch": 43, "duration": 89, "velocity": 93}, {"time": 74996, "pitch": 43, "duration": 90, "velocity": 89}, {"time": 75116, "pitch": 43, "duration": 89, "velocity": 93}, {"time": 75235, "pitch": 43, "duration": 90, "velocity": 88}, {"time": 75354, "pitch": 50, "duration": 123, "velocity": 93}, {"time": 75600, "pitch": 52, "duration": 122, "velocity": 89}, {"time": 75845, "pitch": 53, "duration": 119, "velocity": 93}, {"time": 76084, "pitch": 55, "duration": 119, "velocity": 88}, {"time": 148316, "pitch": 43, "duration": 91, "velocity": 93}, {"time": 148438, "pitch": 43, "duration": 92, "velocity": 89}, {"time": 148561, "pitch": 43, "duration": 92, "velocity": 93}, {"time": 148684, "pitch": 43, "duration": 92, "velocity": 88}, {"time": 148806, "pitch": 43, "duration": 90, "velocity": 93}, {"time": 148925, "pitch": 43, "duration": 90, "velocity": 89}, {"time": 149045, "pitch": 43, "duration": 89, "velocity": 93}, {"time": 149164, "pitch": 43, "duration": 90, "velocity": 88}, {"time": 149284, "pitch": 43, "duration": 89, "velocity": 93}, {"time": 149403, "pitch": 43, "duration": 90, "velocity": 89}, {"time": 149522, "pitch": 43, "duration": 90, "velocity": 93}, {"time": 149642, "pitch": 43, "duration": 89, "velocity": 88}, {"time": 149761, "pitch": 43, "duration": 90, "velocity": 93}, {"time": 149881, "pitch": 43, "duration": 89, "velocity": 89}, {"time": 150000, "pitch": 43, "duration": 89, "velocity": 93}, {"time": 150119, "pitch": 43, "duration": 90, "velocity": 88}, {"time": 150239, "pitch": 43, "duration": 89, "velocity": 93}, {"time": 150358, "pitch": 43, "duration": 90, "velocity": 89}, {"time": 150477, "pitch": 43, "duration": 90, "velocity": 93}, {"time": 150597, "pitch": 43, "duration": 89, "velocity": 88}, {"time": 150716, "pitch": 43, "duration": 90, "velocity": 93}, {"time": 150836, "pitch": 43, "duration": 89, "velocity": 89}, {"time": 150955, "pitch": 43, "duration": 89, "velocity": 93}, {"time": 151074, "pitch": 43, "duration": 90, "velocity": 88}, {"time": 151194, "pitch": 43, "duration": 92, "velocity": 93}, {"time": 151316, "pitch": 43, "duration": 92, "velocity": 89}, {"time": 151439, "pitch": 43, "duration": 92, "velocity": 93}, {"time": 151562, "pitch": 43, "duration": 92, "velocity": 88}, {"time": 151684, "pitch": 43, "duration": 90, "velocity": 93}, {"time": 151804, "pitch": 43, "duration": 89, "velocity": 89}, {"time": 151923, "pitch": 43, "duration": 90, "velocity": 93}, {"time": 152042, "pitch": 43, "duration": 90, "velocity": 88}, {"time": 152162, "pitch": 43, "duration": 89, "velocity": 93}, {"time": 152281, "pitch": 43, "duration": 90, "velocity": 89}, {"time": 152401, "pitch": 43, "duration": 89, "velocity": 93}, {"time": 152520, "pitch": 43, "duration": 89, "velocity": 88}, {"time": 152639, "pitch": 43, "duration": 90, "velocity": 93}, {"time": 152759, "pitch": 43, "duration": 89, "velocity": 89}, {"time": 152878, "pitch": 43, "duration": 90, "velocity": 93}, {"time": 152997, "pitch": 43, "duration": 90, "velocity": 88}, {"time": 153117, "pitch": 43, "duration": 89, "velocity": 93}, {"time": 153236, "pitch": 43, "duration": 90, "velocity": 89}, {"time": 153356, "pitch": 43, "duration": 89, "velocity": 93}, {"time": 153475, "pitch": 43, "duration": 90, "velocity": 88}, {"time": 153594, "pitch": 43, "duration": 92, "velocity": 93}, {"time": 153717, "pitch": 43, "duration": 92, "velocity": 89}, {"time": 153840, "pitch": 43, "duration": 92, "velocity": 93}, {"time": 153962, "pitch": 43, "duration": 92, "velocity": 88}, {"time": 154085, "pitch": 43, "duration": 89, "velocity": 93}, {"time": 154204, "pitch": 43, "duration": 90, "velocity": 89}, {"time": 154324, "pitch": 43, "duration": 89, "velocity": 93}, {"time": 154443, "pitch": 43, "duration": 90, "velocity": 88}, {"time": 154562, "pitch": 43, "duration": 90, "velocity": 93}, {"time": 154682, "pitch": 43, "duration": 89, "velocity": 89}, {"time": 154801, "pitch": 43, "duration": 90, "velocity": 93}, {"time": 154921, "pitch": 43, "duration": 89, "velocity": 88}, {"time": 155040, "pitch": 43, "duration": 89, "velocity": 93}, {"time": 155159, "pitch": 43, "duration": 90, "velocity": 89}, {"time": 155279, "pitch": 43, "duration": 89, "velocity": 93}, {"time": 155398, "pitch": 43, "duration": 90, "velocity": 88}, {"time": 155517, "pitch": 43, "duration": 90, "velocity": 93}, {"time": 155637, "pitch": 43, "duration": 89, "velocity": 89}, {"time": 155756, "pitch": 43, "duration": 90, "velocity": 93}, {"time": 155876, "pitch": 43, "duration": 89, "velocity": 88}, {"time": 155995, "pitch": 43, "duration": 92, "velocity": 93}, {"time": 156118, "pitch": 43, "duration": 92, "velocity": 89}, {"time": 156240, "pitch": 43, "duration": 92, "velocity": 93}, {"time": 156363, "pitch": 43, "duration": 92, "velocity": 88}, {"time": 156486, "pitch": 43, "duration": 89, "velocity": 93}, {"time": 156605, "pitch": 43, "duration": 89, "velocity": 89}, {"time": 156724, "pitch": 43, "duration": 90, "velocity": 93}, {"time": 156844, "pitch": 43, "duration": 89, "velocity": 88}, {"time": 156963, "pitch": 43, "duration": 90, "velocity": 93}, {"time": 157082, "pitch": 43, "duration": 90, "velocity": 89}, {"time": 157202, "pitch": 43, "duration": 89, "velocity": 93}, {"time": 157321, "pitch": 43, "duration": 90, "velocity": 88}, {"time": 157441, "pitch": 43, "duration": 89, "velocity": 93}, {"time": 157560, "pitch": 43, "duration": 89, "velocity": 89}, {"time": 157679, "pitch": 43, "duration": 90, "velocity": 93}, {"time": 157799, "pitch": 43, "duration": 89, "velocity": 88}, {"time": 157918, "pitch": 43, "duration": 90, "velocity": 93}, {"time": 158037, "pitch": 43, "duration": 90, "velocity": 89}, {"time": 158157, "pitch": 43, "duration": 89, "velocity": 93}, {"time": 158276, "pitch": 43, "duration": 90, "velocity": 88}, {"time": 158396, "pitch": 43, "duration": 92, "velocity": 93}, {"time": 158518, "pitch": 43, "duration": 92, "velocity": 89}, {"time": 158641, "pitch": 43, "duration": 92, "velocity": 93}, {"time": 158764, "pitch": 43, "duration": 92, "velocity": 88}, {"time": 158886, "pitch": 43, "duration": 90, "velocity": 93}, {"time": 159006, "pitch": 43, "duration": 89, "velocity": 89}, {"time": 159125, "pitch": 43, "duration": 89, "velocity": 93}, {"time": 159244, "pitch": 43, "duration": 90, "velocity": 88}, {"time": 159364, "pitch": 43, "duration": 89, "velocity": 93}, {"time": 159483, "pitch": 43, "duration": 90, "velocity": 89}, {"time": 159602, "pitch": 43, "duration": 90, "velocity": 93}, {"time": 159722, "pitch": 43, "duration": 89, "velocity": 88}, {"time": 159841, "pitch": 43, "duration": 90, "velocity": 93}, {"time": 159961, "pitch": 43, "duration": 89, "velocity": 89}, {"time": 160080, "pitch": 43, "duration": 90, "velocity": 93}, {"time": 160199, "pitch": 43, "duration": 90, "velocity": 88}, {"time": 160319, "pitch": 43, "duration": 89, "velocity": 93}, {"time": 160438, "pitch": 43, "duration": 90, "velocity": 89}, {"time": 160558, "pitch": 43, "duration": 89, "velocity": 93}, {"time": 160677, "pitch": 43, "duration": 89, "velocity": 88}, {"time": 160796, "pitch": 43, "duration": 90, "velocity": 93}, {"time": 160916, "pitch": 43, "duration": 89, "velocity": 89}, {"time": 161035, "pitch": 43, "duration": 90, "velocity": 93}, {"time": 161154, "pitch": 43, "duration": 90, "velocity": 88}, {"time": 161274, "pitch": 43, "duration": 92, "velocity": 93}, {"time": 161396, "pitch": 43, "duration": 92, "velocity": 89}, {"time": 161519, "pitch": 43, "duration": 92, "velocity": 93}, {"time": 161642, "pitch": 43, "duration": 92, "velocity": 88}, {"time": 161764, "pitch": 43, "duration": 90, "velocity": 93}, {"time": 161884, "pitch": 43, "duration": 89, "velocity": 89}, {"time": 162003, "pitch": 43, "duration": 90, "velocity": 93}, {"time": 162122, "pitch": 43, "duration": 90, "velocity": 88}, {"time": 162242, "pitch": 43, "duration": 89, "velocity": 93}, {"time": 162361, "pitch": 43, "duration": 90, "velocity": 89}, {"time": 162481, "pitch": 43, "duration": 89, "velocity": 93}, {"time": 162600, "pitch": 43, "duration": 90, "velocity": 88}, {"time": 162719, "pitch": 50, "duration": 120, "velocity": 93}, {"time": 162958, "pitch": 52, "duration": 120, "velocity": 89}, {"time": 163197, "pitch": 53, "duration": 119, "velocity": 93}, {"time": 163436, "pitch": 55, "duration": 119, "velocity": 88}, {"time": 217443, "pitch": 43, "duration": 90, "velocity": 93}, {"time": 217563, "pitch": 43, "duration": 89, "velocity": 89}, {"time": 217682, "pitch": 43, "duration": 90, "velocity": 93}, {"time": 217802, "pitch": 43, "duration": 89, "velocity": 88}, {"time": 217921, "pitch": 43, "duration": 90, "velocity": 93}, {"time": 218040, "pitch": 43, "duration": 90, "velocity": 89}, {"time": 218160, "pitch": 43, "duration": 89, "velocity": 93}, {"time": 218279, "pitch": 43, "duration": 90, "velocity": 88}, {"time": 218399, "pitch": 43, "duration": 89, "velocity": 93}, {"time": 218518, "pitch": 43, "duration": 89, "velocity": 89}, {"time": 218637, "pitch": 43, "duration": 90, "velocity": 93}, {"time": 218757, "pitch": 43, "duration": 89, "velocity": 88}, {"time": 218876, "pitch": 43, "duration": 90, "velocity": 93}, {"time": 218995, "pitch": 43, "duration": 90, "velocity": 89}, {"time": 219115, "pitch": 43, "duration": 89, "velocity": 93}, {"time": 219234, "pitch": 43, "duration": 90, "velocity": 88}, {"time": 219354, "pitch": 43, "duration": 91, "velocity": 93}, {"time": 219476, "pitch": 43, "duration": 92, "velocity": 89}, {"time": 219599, "pitch": 43, "duration": 92, "velocity": 93}, {"time": 219722, "pitch": 43, "duration": 92, "velocity": 88}, {"time": 219844, "pitch": 43, "duration": 90, "velocity": 93}, {"time": 219964, "pitch": 43, "duration": 89, "velocity": 89}, {"time": 220083, "pitch": 43, "duration": 89, "velocity": 93}, {"time": 220202, "pitch": 43, "duration": 90, "velocity": 88}, {"time": 220322, "pitch": 43, "duration": 89, "velocity": 93}, {"time": 220441, "pitch": 43, "duration": 90, "velocity": 89}, {"time": 220560, "pitch": 43, "duration": 90, "velocity": 93}, {"time": 220680, "pitch": 43, "duration": 89, "velocity": 88}, {"time": 220799, "pitch": 43, "duration": 90, "velocity": 93}, {"time": 220919, "pitch": 43, "duration": 89, "velocity": 89}, {"time": 221038, "pitch": 43, "duration": 89, "velocity": 93}, {"time": 221157, "pitch": 43, "duration": 90, "velocity": 88}, {"time": 221277, "pitch": 43, "duration": 89, "velocity": 93}, {"time": 221396, "pitch": 43, "duration": 90, "velocity": 89}, {"time": 221515, "pitch": 43, "duration": 90, "velocity": 93}, {"time": 221635, "pitch": 43, "duration": 89, "velocity": 88}, {"time": 221754, "pitch": 43, "duration": 92, "velocity": 93}, {"time": 221877, "pitch": 43, "duration": 92, "velocity": 89}, {"time": 221999, "pitch": 43, "duration": 93, "velocity": 93}, {"time": 222122, "pitch": 43, "duration": 92, "velocity": 88}, {"time": 222245, "pitch": 43, "duration": 89, "velocity": 93}, {"time": 222364, "pitch": 43, "duration": 90, "velocity": 89}, {"time": 222484, "pitch": 43, "duration": 89, "velocity": 93}, {"time": 222603, "pitch": 43, "duration": 89, "velocity": 88}, {"time": 222722, "pitch": 43, "duration": 90, "velocity": 93}, {"time": 222842, "pitch": 43, "duration": 89, "velocity": 89}, {"time": 222961, "pitch": 43, "duration": 90, "velocity": 93}, {"time": 223080, "pitch": 43, "duration": 90, "velocity": 88}, {"time": 223200, "pitch": 43, "duration": 89, "velocity": 93}, {"time": 223319, "pitch": 43, "duration": 90, "velocity": 89}, {"time": 223439, "pitch": 43, "duration": 89, "velocity": 93}, {"time": 223558, "pitch": 43, "duration": 90, "velocity": 88}, {"time": 223677, "pitch": 43, "duration": 90, "velocity": 93}, {"time": 223797, "pitch": 43, "duration": 89, "velocity": 89}, {"time": 223916, "pitch": 43, "duration": 90, "velocity": 93}, {"time": 224036, "pitch": 43, "duration": 89, "velocity": 88}, {"time": 224155, "pitch": 43, "duration": 92, "velocity": 93}, {"time": 224277, "pitch": 43, "duration": 92, "velocity": 89}, {"time": 224400, "pitch": 43, "duration": 92, "velocity": 93}, {"time": 224523, "pitch": 43, "duration": 92, "velocity": 88}, {"time": 224645, "pitch": 43, "duration": 90, "velocity": 93}, {"time": 224765, "pitch": 43, "duration": 89, "velocity": 89}, {"time": 224884, "pitch": 43, "duration": 90, "velocity": 93}, {"time": 225004, "pitch": 43, "duration": 89, "velocity": 88}, {"time": 225123, "pitch": 43, "duration": 89, "velocity": 93}, {"time": 225242, "pitch": 43, "duration": 90, "velocity": 89}, {"time": 225362, "pitch": 43, "duration": 89, "velocity": 93}, {"time": 225481, "pitch": 43, "duration": 90, "velocity": 88}, {"time": 225600, "pitch": 43, "duration": 90, "velocity": 93}, {"time": 225720, "pitch": 43, "duration": 89, "velocity": 89}, {"time": 225839, "pitch": 43, "duration": 90, "velocity": 93}, {"time": 225959, "pitch": 43, "duration": 89, "velocity": 88}, {"time": 226078, "pitch": 43, "duration": 90, "velocity": 93}, {"time": 226197, "pitch": 43, "duration": 90, "velocity": 89}, {"time": 226317, "pitch": 43, "duration": 89, "velocity": 93}, {"time": 226436, "pitch": 43, "duration": 90, "velocity": 88}, {"time": 226556, "pitch": 43, "duration": 91, "velocity": 93}, {"time": 226678, "pitch": 43, "duration": 92, "velocity": 89}, {"time": 226801, "pitch": 43, "duration": 92, "velocity": 93}, {"time": 226923, "pitch": 43, "duration": 93, "velocity": 88}, {"time": 227046, "pitch": 43, "duration": 90, "velocity": 93}, {"time": 227165, "pitch": 43, "duration": 90, "velocity": 89}, {"time": 227285, "pitch": 43, "duration": 89, "velocity": 93}, {"time": 227404, "pitch": 43, "duration": 90, "velocity": 88}, {"time": 227524, "pitch": 43, "duration": 89, "velocity": 93}, {"time": 227643, "pitch": 43, "duration": 89, "velocity": 89}, {"time": 227762, "pitch": 43, "duration": 90, "velocity": 93}, {"time": 227882, "pitch": 43, "duration": 89, "velocity": 88}, {"time": 228001, "pitch": 43, "duration": 90, "velocity": 93}, {"time": 228120, "pitch": 43, "duration": 90, "velocity": 89}, {"time": 228240, "pitch": 43, "duration": 89, "velocity": 93}, {"time": 228359, "pitch": 43, "duration": 90, "velocity": 88}, {"time": 228479, "pitch": 43, "duration": 89, "velocity": 93}, {"time": 228598, "pitch": 43, "duration": 90, "velocity": 89}, {"time": 228717, "pitch": 43, "duration": 90, "velocity": 93}, {"time": 228837, "pitch": 43, "duration": 89, "velocity": 88}, {"time": 228956, "pitch": 43, "duration": 90, "velocity": 93}, {"time": 229076, "pitch": 43, "duration": 89, "velocity": 89}, {"time": 229195, "pitch": 43, "duration": 89, "velocity": 93}, {"time": 229314, "pitch": 43, "duration": 90, "velocity": 88}, {"time": 229434, "pitch": 43, "duration": 92, "velocity": 93}, {"time": 229556, "pitch": 43, "duration": 92, "velocity": 89}, {"time": 229679, "pitch": 43, "duration": 92, "velocity": 93}, {"time": 229802, "pitch": 43, "duration": 92, "velocity": 88}, {"time": 229924, "pitch": 43, "duration": 90, "velocity": 93}, {"time": 230044, "pitch": 43, "duration": 89, "velocity": 89}, {"time": 230163, "pitch": 43, "duration": 90, "velocity": 93}, {"time": 230282, "pitch": 43, "duration": 90, "velocity": 88}, {"time": 230402, "pitch": 43, "duration": 89, "velocity": 93}, {"time": 230521, "pitch": 43, "duration": 90, "velocity": 89}, {"time": 230640, "pitch": 43, "duration": 90, "velocity": 93}, {"time": 230760, "pitch": 43, "duration": 89, "velocity": 88}, {"time": 230879, "pitch": 43, "duration": 90, "velocity": 93}, {"time": 230999, "pitch": 43, "duration": 89, "velocity": 89}, {"time": 231118, "pitch": 43, "duration": 90, "velocity": 93}, {"time": 231237, "pitch": 43, "duration": 90, "velocity": 88}, {"time": 231357, "pitch": 43, "duration": 89, "velocity": 93}, {"time": 231476, "pitch": 43, "duration": 90, "velocity": 89}, {"time": 231596, "pitch": 43, "duration": 89, "velocity": 93}, {"time": 231715, "pitch": 43, "duration": 89, "velocity": 88}, {"time": 231834, "pitch": 50, "duration": 123, "velocity": 93}, {"time": 232080, "pitch": 52, "duration": 122, "velocity": 89}, {"time": 232325, "pitch": 53, "duration": 119, "velocity": 93}, {"time": 232564, "pitch": 55, "duration": 119, "velocity": 88}], "annotations": [{"time": 293, "annotation": {"number": 7, "value": 115}, "group": "control_change"}, {"time": 314, "annotation": {"number": 11, "value": 115}, "group": "control_change"}, {"time": 335, "annotation": {"number": 10, "value": 64}, "group": "control_change"}, {"time": 356, "annotation": {"number": 91, "value": 20}, "group": "control_change"}, {"time": 377, "annotation": {"number": 93, "value": 0}, "group": "control_change"}, {"time": 397, "annotation": {"number": 101, "value": 0}, "group": "control_change"}, {"time": 418, "annotation": {"number": 100, "value": 0}, "group": "control_change"}, {"time": 439, "annotation": {"number": 6, "value": 12}, "group": "control_change"}, {"time": 460, "annotation": {"number": 101, "value": 127}, "group": "control_change"}, {"time": 483, "annotation": {"number": 100, "value": 127}, "group": "control_change"}]}, {"program": 0, "is_drum": false, "name": "BELL", "annotations": [{"time": 230, "annotation": {"number": 0, "value": 0}, "group": "control_change"}, {"time": 251, "annotation": {"number": 32, "value": 0}, "group": "control_change"}]}, {"program": 98, "is_drum": false, "name": "BELL", "notes": [{"time": 483, "pitch": 96, "duration": 448, "velocity": 120}, {"time": 961, "pitch": 86, "duration": 447, "velocity": 120}, {"time": 1438, "pitch": 84, "duration": 448, "velocity": 120}, {"time": 1916, "pitch": 96, "duration": 460, "velocity": 120}, {"time": 2406, "pitch": 86, "duration": 448, "velocity": 120}, {"time": 2884, "pitch": 84, "duration": 447, "velocity": 120}, {"time": 3361, "pitch": 96, "duration": 448, "velocity": 120}, {"time": 3839, "pitch": 84, "duration": 447, "velocity": 120}, {"time": 57117, "pitch": 98, "duration": 448, "velocity": 125}, {"time": 57595, "pitch": 97, "duration": 460, "velocity": 120}, {"time": 58085, "pitch": 96, "duration": 448, "velocity": 125}, {"time": 58563, "pitch": 95, "duration": 448, "velocity": 120}, {"time": 59040, "pitch": 94, "duration": 448, "velocity": 125}, {"time": 59518, "pitch": 93, "duration": 448, "velocity": 120}, {"time": 59996, "pitch": 92, "duration": 460, "velocity": 125}, {"time": 60486, "pitch": 91, "duration": 448, "velocity": 120}, {"time": 76322, "pitch": 100, "duration": 448, "velocity": 120}, {"time": 76800, "pitch": 96, "duration": 448, "velocity": 120}, {"time": 77277, "pitch": 91, "duration": 448, "velocity": 120}, {"time": 77755, "pitch": 100, "duration": 460, "velocity": 120}, {"time": 78246, "pitch": 98, "duration": 447, "velocity": 120}, {"time": 78723, "pitch": 95, "duration": 448, "velocity": 120}, {"time": 79201, "pitch": 91, "duration": 447, "velocity": 120}, {"time": 79678, "pitch": 98, "duration": 448, "velocity": 120}, {"time": 80156, "pitch": 100, "duration": 460, "velocity": 120}, {"time": 80646, "pitch": 96, "duration": 448, "velocity": 120}, {"time": 81124, "pitch": 91, "duration": 447, "velocity": 120}, {"time": 81601, "pitch": 100, "duration": 448, "velocity": 120}, {"time": 82079, "pitch": 98, "duration": 447, "velocity": 120}, {"time": 82556, "pitch": 95, "duration": 448, "velocity": 120}, {"time": 83034, "pitch": 91, "duration": 460, "velocity": 120}, {"time": 83524, "pitch": 98, "duration": 448, "velocity": 120}, {"time": 144482, "pitch": 98, "duration": 448, "velocity": 125}, {"time": 144960, "pitch": 97, "duration": 448, "velocity": 120}, {"time": 145437, "pitch": 96, "duration": 448, "velocity": 125}, {"time": 145915, "pitch": 95, "duration": 460, "velocity": 120}, {"time": 146405, "pitch": 94, "duration": 448, "velocity": 125}, {"time": 146883, "pitch": 93, "duration": 448, "velocity": 120}, {"time": 147360, "pitch": 92, "duration": 448, "velocity": 125}, {"time": 147838, "pitch": 91, "duration": 448, "velocity": 120}, {"time": 163674, "pitch": 100, "duration": 460, "velocity": 120}, {"time": 164165, "pitch": 96, "duration": 448, "velocity": 120}, {"time": 164642, "pitch": 91, "duration": 448, "velocity": 120}, {"time": 165120, "pitch": 100, "duration": 448, "velocity": 120}, {"time": 165598, "pitch": 98, "duration": 447, "velocity": 120}, {"time": 166075, "pitch": 95, "duration": 460, "velocity": 120}, {"time": 166566, "pitch": 91, "duration": 447, "velocity": 120}, {"time": 167043, "pitch": 98, "duration": 448, "velocity": 120}, {"time": 167521, "pitch": 100, "duration": 447, "velocity": 120}, {"time": 167998, "pitch": 96, "duration": 448, "velocity": 120}, {"time": 168476, "pitch": 91, "duration": 460, "velocity": 120}, {"time": 168966, "pitch": 100, "duration": 448, "velocity": 120}, {"time": 169444, "pitch": 98, "duration": 447, "velocity": 120}, {"time": 169921, "pitch": 95, "duration": 448, "velocity": 120}, {"time": 170399, "pitch": 91, "duration": 447, "velocity": 120}, {"time": 170876, "pitch": 98, "duration": 448, "velocity": 120}, {"time": 209764, "pitch": 98, "duration": 448, "velocity": 125}, {"time": 210242, "pitch": 97, "duration": 447, "velocity": 120}, {"time": 210719, "pitch": 96, "duration": 448, "velocity": 125}, {"time": 211197, "pitch": 95, "duration": 447, "velocity": 120}, {"time": 211674, "pitch": 94, "duration": 460, "velocity": 125}, {"time": 212165, "pitch": 93, "duration": 447, "velocity": 120}, {"time": 212642, "pitch": 92, "duration": 448, "velocity": 125}, {"time": 213120, "pitch": 91, "duration": 447, "velocity": 120}, {"time": 213597, "pitch": 90, "duration": 448, "velocity": 125}, {"time": 214075, "pitch": 89, "duration": 460, "velocity": 120}, {"time": 214565, "pitch": 88, "duration": 448, "velocity": 125}, {"time": 215043, "pitch": 87, "duration": 448, "velocity": 120}, {"time": 215520, "pitch": 86, "duration": 448, "velocity": 125}, {"time": 215998, "pitch": 85, "duration": 448, "velocity": 120}, {"time": 216475, "pitch": 84, "duration": 460, "velocity": 125}, {"time": 216966, "pitch": 83, "duration": 448, "velocity": 120}, {"time": 232802, "pitch": 100, "duration": 448, "velocity": 120}, {"time": 233280, "pitch": 96, "duration": 448, "velocity": 120}, {"time": 233757, "pitch": 91, "duration": 448, "velocity": 120}, {"time": 234235, "pitch": 100, "duration": 460, "velocity": 120}, {"time": 234725, "pitch": 98, "duration": 448, "velocity": 120}, {"time": 235203, "pitch": 95, "duration": 448, "velocity": 120}, {"time": 235681, "pitch": 91, "duration": 447, "velocity": 120}, {"time": 236158, "pitch": 98, "duration": 448, "velocity": 120}, {"time": 236636, "pitch": 100, "duration": 460, "velocity": 120}, {"time": 237126, "pitch": 96, "duration": 448, "velocity": 120}, {"time": 237604, "pitch": 91, "duration": 447, "velocity": 120}, {"time": 238081, "pitch": 100, "duration": 448, "velocity": 120}, {"time": 238559, "pitch": 98, "duration": 447, "velocity": 120}, {"time": 239036, "pitch": 95, "duration": 448, "velocity": 120}, {"time": 239514, "pitch": 91, "duration": 460, "velocity": 120}, {"time": 240004, "pitch": 98, "duration": 448, "velocity": 120}, {"time": 248161, "pitch": 95, "duration": 448, "velocity": 106}, {"time": 248639, "pitch": 95, "duration": 447, "velocity": 88}, {"time": 249116, "pitch": 95, "duration": 448, "velocity": 79}, {"time": 249594, "pitch": 93, "duration": 460, "velocity": 106}, {"time": 250084, "pitch": 93, "duration": 448, "velocity": 88}, {"time": 250562, "pitch": 93, "duration": 448, "velocity": 79}, {"time": 251039, "pitch": 91, "duration": 448, "velocity": 106}, {"time": 251517, "pitch": 92, "duration": 448, "velocity": 88}, {"time": 251994, "pitch": 91, "duration": 460, "velocity": 79}, {"time": 252485, "pitch": 90, "duration": 448, "velocity": 107}, {"time": 252963, "pitch": 89, "duration": 447, "velocity": 98}, {"time": 253440, "pitch": 88, "duration": 448, "velocity": 102}, {"time": 253918, "pitch": 87, "duration": 447, "velocity": 97}, {"time": 254395, "pitch": 92, "duration": 460, "velocity": 102}, {"time": 254886, "pitch": 97, "duration": 447, "velocity": 97}, {"time": 255363, "pitch": 101, "duration": 448, "velocity": 101}, {"time": 255841, "pitch": 98, "duration": 447, "velocity": 96}, {"time": 256318, "pitch": 90, "duration": 448, "velocity": 108}, {"time": 256796, "pitch": 94, "duration": 460, "velocity": 95}, {"time": 257286, "pitch": 80, "duration": 448, "velocity": 100}, {"time": 257764, "pitch": 85, "duration": 219, "velocity": 107}, {"time": 258003, "pitch": 89, "duration": 218, "velocity": 104}, {"time": 258241, "pitch": 88, "duration": 219, "velocity": 100}, {"time": 258480, "pitch": 87, "duration": 219, "velocity": 104}, {"time": 258719, "pitch": 86, "duration": 219, "velocity": 100}, {"time": 258958, "pitch": 85, "duration": 218, "velocity": 106}, {"time": 259196, "pitch": 84, "duration": 219, "velocity": 104}, {"time": 259435, "pitch": 83, "duration": 219, "velocity": 97}], "annotations": [{"time": 293, "annotation": {"number": 7, "value": 60}, "group": "control_change"}, {"time": 314, "annotation": {"number": 11, "value": 100}, "group": "control_change"}, {"time": 335, "annotation": {"number": 10, "value": 64}, "group": "control_change"}, {"time": 356, "annotation": {"number": 91, "value": 40}, "group": "control_change"}, {"time": 377, "annotation": {"number": 93, "value": 0}, "group": "control_change"}, {"time": 397, "annotation": {"number": 101, "value": 0}, "group": "control_change"}, {"time": 418, "annotation": {"number": 100, "value": 0}, "group": "control_change"}, {"time": 439, "annotation": {"number": 6, "value": 12}, "group": "control_change"}, {"time": 460, "annotation": {"number": 101, "value": 127}, "group": "control_change"}, {"time": 483, "annotation": {"number": 100, "value": 127}, "group": "control_change"}]}, {"program": 0, "is_drum": false, "name": "SYNTH.", "annotations": [{"time": 230, "annotation": {"number": 0, "value": 0}, "group": "control_change"}, {"time": 251, "annotation": {"number": 32, "value": 0}, "group": "control_change"}]}, {"program": 91, "is_drum": false, "name": "SYNTH.", "notes": [{"time": 41758, "pitch": 96, "duration": 239, "velocity": 107}, {"time": 42475, "pitch": 93, "duration": 239, "velocity": 102}, {"time": 43204, "pitch": 89, "duration": 239, "velocity": 97}, {"time": 43920, "pitch": 86, "duration": 239, "velocity": 97}, {"time": 44637, "pitch": 83, "duration": 238, "velocity": 94}, {"time": 45114, "pitch": 79, "duration": 245, "velocity": 88}, {"time": 45605, "pitch": 96, "duration": 238, "velocity": 107}, {"time": 46321, "pitch": 93, "duration": 239, "velocity": 102}, {"time": 47037, "pitch": 89, "duration": 239, "velocity": 97}, {"time": 47760, "pitch": 98, "duration": 245, "velocity": 99}, {"time": 48483, "pitch": 95, "duration": 239, "velocity": 95}, {"time": 48960, "pitch": 91, "duration": 239, "velocity": 90}, {"time": 129123, "pitch": 96, "duration": 239, "velocity": 107}, {"time": 129840, "pitch": 93, "duration": 239, "velocity": 102}, {"time": 130556, "pitch": 89, "duration": 239, "velocity": 97}, {"time": 131279, "pitch": 86, "duration": 245, "velocity": 97}, {"time": 132002, "pitch": 83, "duration": 238, "velocity": 94}, {"time": 132479, "pitch": 79, "duration": 239, "velocity": 88}, {"time": 132957, "pitch": 96, "duration": 238, "velocity": 107}, {"time": 133679, "pitch": 93, "duration": 246, "velocity": 102}, {"time": 134402, "pitch": 89, "duration": 239, "velocity": 97}, {"time": 135119, "pitch": 98, "duration": 238, "velocity": 99}, {"time": 135835, "pitch": 95, "duration": 245, "velocity": 95}, {"time": 136325, "pitch": 91, "duration": 239, "velocity": 90}, {"time": 194405, "pitch": 96, "duration": 239, "velocity": 107}, {"time": 195121, "pitch": 93, "duration": 239, "velocity": 102}, {"time": 195838, "pitch": 89, "duration": 239, "velocity": 97}, {"time": 196561, "pitch": 86, "duration": 245, "velocity": 97}, {"time": 197283, "pitch": 83, "duration": 239, "velocity": 94}, {"time": 197761, "pitch": 79, "duration": 239, "velocity": 88}, {"time": 198238, "pitch": 96, "duration": 239, "velocity": 107}, {"time": 198961, "pitch": 93, "duration": 245, "velocity": 102}, {"time": 199684, "pitch": 89, "duration": 239, "velocity": 97}, {"time": 200400, "pitch": 98, "duration": 239, "velocity": 99}, {"time": 201117, "pitch": 95, "duration": 238, "velocity": 95}, {"time": 201594, "pitch": 91, "duration": 245, "velocity": 90}], "annotations": [{"time": 293, "annotation": {"number": 7, "value": 100}, "group": "control_change"}, {"time": 314, "annotation": {"number": 11, "value": 100}, "group": "control_change"}, {"time": 335, "annotation": {"number": 10, "value": 94}, "group": "control_change"}, {"time": 356, "annotation": {"number": 91, "value": 20}, "group": "control_change"}, {"time": 377, "annotation": {"number": 93, "value": 0}, "group": "control_change"}, {"time": 397, "annotation": {"number": 101, "value": 0}, "group": "control_change"}, {"time": 418, "annotation": {"number": 100, "value": 0}, "group": "control_change"}, {"time": 439, "annotation": {"number": 6, "value": 12}, "group": "control_change"}, {"time": 460, "annotation": {"number": 101, "value": 127}, "group": "control_change"}, {"time": 483, "annotation": {"number": 100, "value": 127}, "group": "control_change"}]}, {"program": 0, "is_drum": false, "name": "TOM", "annotations": [{"time": 230, "annotation": {"number": 0, "value": 0}, "group": "control_change"}, {"time": 251, "annotation": {"number": 32, "value": 0}, "group": "control_change"}]}, {"program": 117, "is_drum": false, "name": "TOM", "notes": [{"time": 15842, "pitch": 74, "duration": 10, "velocity": 115}, {"time": 16081, "pitch": 71, "duration": 10, "velocity": 115}, {"time": 16320, "pitch": 69, "duration": 9, "velocity": 115}, {"time": 16558, "pitch": 67, "duration": 10, "velocity": 115}, {"time": 17275, "pitch": 74, "duration": 10, "velocity": 115}, {"time": 17520, "pitch": 71, "duration": 10, "velocity": 115}, {"time": 17765, "pitch": 69, "duration": 10, "velocity": 115}, {"time": 18004, "pitch": 67, "duration": 10, "velocity": 115}, {"time": 18720, "pitch": 74, "duration": 10, "velocity": 115}, {"time": 18959, "pitch": 71, "duration": 10, "velocity": 115}, {"time": 19198, "pitch": 69, "duration": 10, "velocity": 115}, {"time": 19436, "pitch": 67, "duration": 10, "velocity": 115}, {"time": 20166, "pitch": 74, "duration": 10, "velocity": 115}, {"time": 20404, "pitch": 71, "duration": 10, "velocity": 115}, {"time": 20643, "pitch": 69, "duration": 10, "velocity": 115}, {"time": 20882, "pitch": 67, "duration": 10, "velocity": 115}, {"time": 21598, "pitch": 74, "duration": 10, "velocity": 115}, {"time": 21837, "pitch": 71, "duration": 10, "velocity": 115}, {"time": 22076, "pitch": 69, "duration": 10, "velocity": 115}, {"time": 22321, "pitch": 67, "duration": 10, "velocity": 115}, {"time": 23044, "pitch": 74, "duration": 10, "velocity": 115}, {"time": 23283, "pitch": 71, "duration": 10, "velocity": 115}, {"time": 23521, "pitch": 69, "duration": 10, "velocity": 115}, {"time": 23760, "pitch": 67, "duration": 10, "velocity": 115}, {"time": 24476, "pitch": 74, "duration": 10, "velocity": 115}, {"time": 24715, "pitch": 71, "duration": 10, "velocity": 115}, {"time": 24954, "pitch": 69, "duration": 10, "velocity": 115}, {"time": 25199, "pitch": 67, "duration": 10, "velocity": 115}, {"time": 25922, "pitch": 74, "duration": 10, "velocity": 115}, {"time": 26161, "pitch": 71, "duration": 10, "velocity": 115}, {"time": 26400, "pitch": 69, "duration": 10, "velocity": 115}, {"time": 26638, "pitch": 67, "duration": 10, "velocity": 115}, {"time": 27355, "pitch": 74, "duration": 10, "velocity": 115}, {"time": 27600, "pitch": 71, "duration": 10, "velocity": 115}, {"time": 27845, "pitch": 69, "duration": 10, "velocity": 115}, {"time": 28084, "pitch": 67, "duration": 10, "velocity": 115}, {"time": 28800, "pitch": 74, "duration": 10, "velocity": 115}, {"time": 29039, "pitch": 71, "duration": 10, "velocity": 115}, {"time": 29278, "pitch": 69, "duration": 10, "velocity": 115}, {"time": 29517, "pitch": 67, "duration": 9, "velocity": 115}, {"time": 30246, "pitch": 74, "duration": 10, "velocity": 115}, {"time": 30485, "pitch": 71, "duration": 10, "velocity": 115}, {"time": 30723, "pitch": 69, "duration": 10, "velocity": 115}, {"time": 30962, "pitch": 67, "duration": 10, "velocity": 115}, {"time": 31678, "pitch": 74, "duration": 10, "velocity": 115}, {"time": 31917, "pitch": 71, "duration": 10, "velocity": 115}, {"time": 32156, "pitch": 69, "duration": 10, "velocity": 115}, {"time": 32401, "pitch": 67, "duration": 10, "velocity": 115}, {"time": 33124, "pitch": 74, "duration": 10, "velocity": 115}, {"time": 33363, "pitch": 71, "duration": 10, "velocity": 115}, {"time": 33601, "pitch": 69, "duration": 10, "velocity": 115}, {"time": 33840, "pitch": 67, "duration": 10, "velocity": 115}, {"time": 34557, "pitch": 74, "duration": 10, "velocity": 115}, {"time": 34795, "pitch": 71, "duration": 10, "velocity": 115}, {"time": 35034, "pitch": 69, "duration": 10, "velocity": 115}, {"time": 35279, "pitch": 67, "duration": 11, "velocity": 115}, {"time": 36002, "pitch": 74, "duration": 10, "velocity": 115}, {"time": 36241, "pitch": 71, "duration": 10, "velocity": 115}, {"time": 36480, "pitch": 69, "duration": 10, "velocity": 115}, {"time": 36718, "pitch": 67, "duration": 10, "velocity": 115}, {"time": 37435, "pitch": 74, "duration": 10, "velocity": 115}, {"time": 37680, "pitch": 71, "duration": 10, "velocity": 115}, {"time": 37925, "pitch": 69, "duration": 10, "velocity": 115}, {"time": 38164, "pitch": 67, "duration": 10, "velocity": 115}, {"time": 38880, "pitch": 74, "duration": 10, "velocity": 115}, {"time": 39119, "pitch": 71, "duration": 10, "velocity": 115}, {"time": 39358, "pitch": 69, "duration": 10, "velocity": 115}, {"time": 39597, "pitch": 67, "duration": 10, "velocity": 115}, {"time": 40326, "pitch": 74, "duration": 10, "velocity": 115}, {"time": 40565, "pitch": 71, "duration": 10, "velocity": 115}, {"time": 40803, "pitch": 69, "duration": 10, "velocity": 115}, {"time": 41042, "pitch": 67, "duration": 10, "velocity": 115}, {"time": 103194, "pitch": 74, "duration": 10, "velocity": 115}, {"time": 103439, "pitch": 71, "duration": 10, "velocity": 115}, {"time": 103684, "pitch": 69, "duration": 10, "velocity": 115}, {"time": 103923, "pitch": 67, "duration": 10, "velocity": 115}, {"time": 104640, "pitch": 74, "duration": 10, "velocity": 115}, {"time": 104878, "pitch": 71, "duration": 10, "velocity": 115}, {"time": 105117, "pitch": 69, "duration": 10, "velocity": 115}, {"time": 105356, "pitch": 67, "duration": 10, "velocity": 115}, {"time": 106085, "pitch": 74, "duration": 10, "velocity": 115}, {"time": 106324, "pitch": 71, "duration": 10, "velocity": 115}, {"time": 106563, "pitch": 69, "duration": 10, "velocity": 115}, {"time": 106801, "pitch": 67, "duration": 10, "velocity": 115}, {"time": 107518, "pitch": 74, "duration": 10, "velocity": 115}, {"time": 107756, "pitch": 71, "duration": 10, "velocity": 115}, {"time": 107995, "pitch": 69, "duration": 10, "velocity": 115}, {"time": 108241, "pitch": 67, "duration": 10, "velocity": 115}, {"time": 108963, "pitch": 74, "duration": 10, "velocity": 115}, {"time": 109202, "pitch": 71, "duration": 10, "velocity": 115}, {"time": 109441, "pitch": 69, "duration": 10, "velocity": 115}, {"time": 109680, "pitch": 67, "duration": 10, "velocity": 115}, {"time": 110396, "pitch": 74, "duration": 10, "velocity": 115}, {"time": 110641, "pitch": 71, "duration": 10, "velocity": 115}, {"time": 110886, "pitch": 69, "duration": 10, "velocity": 115}, {"time": 111125, "pitch": 67, "duration": 10, "velocity": 115}, {"time": 111841, "pitch": 74, "duration": 10, "velocity": 115}, {"time": 112080, "pitch": 71, "duration": 10, "velocity": 115}, {"time": 112319, "pitch": 69, "duration": 10, "velocity": 115}, {"time": 112558, "pitch": 67, "duration": 10, "velocity": 115}, {"time": 113274, "pitch": 74, "duration": 10, "velocity": 115}, {"time": 113519, "pitch": 71, "duration": 11, "velocity": 115}, {"time": 113765, "pitch": 69, "duration": 10, "velocity": 115}, {"time": 114003, "pitch": 67, "duration": 10, "velocity": 115}, {"time": 114720, "pitch": 74, "duration": 10, "velocity": 115}, {"time": 114958, "pitch": 71, "duration": 10, "velocity": 115}, {"time": 115197, "pitch": 69, "duration": 10, "velocity": 115}, {"time": 115436, "pitch": 67, "duration": 10, "velocity": 115}, {"time": 116165, "pitch": 74, "duration": 10, "velocity": 115}, {"time": 116404, "pitch": 71, "duration": 10, "velocity": 115}, {"time": 117598, "pitch": 74, "duration": 10, "velocity": 115}, {"time": 117837, "pitch": 71, "duration": 10, "velocity": 115}, {"time": 118075, "pitch": 69, "duration": 10, "velocity": 115}, {"time": 118321, "pitch": 67, "duration": 10, "velocity": 115}, {"time": 119043, "pitch": 74, "duration": 10, "velocity": 115}, {"time": 119282, "pitch": 71, "duration": 10, "velocity": 115}, {"time": 119521, "pitch": 69, "duration": 10, "velocity": 115}, {"time": 119760, "pitch": 67, "duration": 10, "velocity": 115}, {"time": 120476, "pitch": 74, "duration": 10, "velocity": 115}, {"time": 120721, "pitch": 71, "duration": 10, "velocity": 115}, {"time": 120966, "pitch": 69, "duration": 10, "velocity": 115}, {"time": 121205, "pitch": 67, "duration": 10, "velocity": 115}, {"time": 121922, "pitch": 74, "duration": 9, "velocity": 115}, {"time": 122160, "pitch": 71, "duration": 10, "velocity": 115}, {"time": 122399, "pitch": 69, "duration": 10, "velocity": 115}, {"time": 122638, "pitch": 67, "duration": 10, "velocity": 115}, {"time": 123354, "pitch": 74, "duration": 10, "velocity": 115}, {"time": 123599, "pitch": 71, "duration": 11, "velocity": 115}, {"time": 123845, "pitch": 69, "duration": 10, "velocity": 115}, {"time": 124083, "pitch": 67, "duration": 10, "velocity": 115}, {"time": 124800, "pitch": 74, "duration": 10, "velocity": 115}, {"time": 125038, "pitch": 71, "duration": 10, "velocity": 115}, {"time": 125277, "pitch": 69, "duration": 10, "velocity": 115}, {"time": 125516, "pitch": 67, "duration": 10, "velocity": 115}, {"time": 126245, "pitch": 74, "duration": 10, "velocity": 115}, {"time": 126484, "pitch": 71, "duration": 10, "velocity": 115}, {"time": 126723, "pitch": 69, "duration": 10, "velocity": 115}, {"time": 126962, "pitch": 67, "duration": 10, "velocity": 115}, {"time": 127678, "pitch": 74, "duration": 10, "velocity": 115}, {"time": 127917, "pitch": 71, "duration": 10, "velocity": 115}, {"time": 128155, "pitch": 69, "duration": 11, "velocity": 115}, {"time": 128401, "pitch": 67, "duration": 10, "velocity": 115}], "annotations": [{"time": 293, "annotation": {"number": 7, "value": 87}, "group": "control_change"}, {"time": 314, "annotation": {"number": 11, "value": 107}, "group": "control_change"}, {"time": 335, "annotation": {"number": 10, "value": 64}, "group": "control_change"}, {"time": 356, "annotation": {"number": 91, "value": 20}, "group": "control_change"}, {"time": 377, "annotation": {"number": 93, "value": 40}, "group": "control_change"}, {"time": 397, "annotation": {"number": 101, "value": 0}, "group": "control_change"}, {"time": 418, "annotation": {"number": 100, "value": 0}, "group": "control_change"}, {"time": 439, "annotation": {"number": 6, "value": 12}, "group": "control_change"}, {"time": 460, "annotation": {"number": 101, "value": 127}, "group": "control_change"}, {"time": 483, "annotation": {"number": 100, "value": 127}, "group": "control_change"}]}]}