{"metadata": {"schema_version": "0.1", "title": "RWC-MDB-P-2001 No. 2: Magic in your eyes / Hiromi Yoshii", "copyright": "RWC Music Database. Copyright (C) 2001 Real World Computing Partnership (contact: Masataka GOTO <m.goto@aist.go.jp>)", "source_filename": "RM-P002.SMF_SYNC.MID", "source_format": "midi"}, "resolution": 480, "tempos": [{"time": 0, "qpm": 58.8235294117647}, {"time": 480, "qpm": 100.0}], "key_signatures": [{"time": 0, "root": 0, "mode": "major"}], "time_signatures": [{"time": 0, "numerator": 1, "denominator": 4}, {"time": 480, "numerator": 4, "denominator": 4}], "tracks": [{"program": 0, "is_drum": false, "name": "E.PIANO", "annotations": [{"time": 240, "annotation": {"number": 0, "value": 0}, "group": "control_change"}, {"time": 240, "annotation": {"number": 32, "value": 0}, "group": "control_change"}]}, {"program": 5, "is_drum": false, "name": "E.PIANO", "notes": [{"time": 480, "pitch": 56, "duration": 1910, "velocity": 112}, {"time": 480, "pitch": 60, "duration": 1910, "velocity": 118}, {"time": 480, "pitch": 63, "duration": 1910, "velocity": 125}, {"time": 480, "pitch": 67, "duration": 1910, "velocity": 126}, {"time": 2400, "pitch": 55, "duration": 1910, "velocity": 95}, {"time": 2400, "pitch": 58, "duration": 1910, "velocity": 104}, {"time": 2400, "pitch": 62, "duration": 1910, "velocity": 107}, {"time": 2400, "pitch": 65, "duration": 1910, "velocity": 122}, {"time": 4320, "pitch": 56, "duration": 1910, "velocity": 112}, {"time": 4320, "pitch": 60, "duration": 1910, "velocity": 118}, {"time": 4320, "pitch": 63, "duration": 1910, "velocity": 125}, {"time": 6240, "pitch": 58, "duration": 930, "velocity": 98}, {"time": 6240, "pitch": 61, "duration": 930, "velocity": 107}, {"time": 6240, "pitch": 65, "duration": 930, "velocity": 108}, {"time": 6240, "pitch": 68, "duration": 930, "velocity": 121}, {"time": 6240, "pitch": 80, "duration": 240, "velocity": 93}, {"time": 6720, "pitch": 79, "duration": 240, "velocity": 99}, {"time": 7200, "pitch": 58, "duration": 930, "velocity": 95}, {"time": 7200, "pitch": 61, "duration": 930, "velocity": 102}, {"time": 7200, "pitch": 63, "duration": 930, "velocity": 107}, {"time": 7200, "pitch": 67, "duration": 930, "velocity": 116}, {"time": 7200, "pitch": 77, "duration": 240, "velocity": 93}, {"time": 7680, "pitch": 79, "duration": 240, "velocity": 97}, {"time": 8160, "pitch": 56, "duration": 1910, "velocity": 112}, {"time": 8160, "pitch": 60, "duration": 1910, "velocity": 118}, {"time": 8160, "pitch": 63, "duration": 1910, "velocity": 125}, {"time": 8160, "pitch": 67, "duration": 1910, "velocity": 126}, {"time": 10080, "pitch": 55, "duration": 1910, "velocity": 100}, {"time": 10080, "pitch": 58, "duration": 1910, "velocity": 104}, {"time": 10080, "pitch": 62, "duration": 1910, "velocity": 107}, {"time": 10080, "pitch": 65, "duration": 1910, "velocity": 124}, {"time": 12000, "pitch": 56, "duration": 1910, "velocity": 98}, {"time": 12000, "pitch": 60, "duration": 1910, "velocity": 116}, {"time": 12000, "pitch": 63, "duration": 1910, "velocity": 123}, {"time": 13920, "pitch": 58, "duration": 930, "velocity": 98}, {"time": 13920, "pitch": 61, "duration": 930, "velocity": 107}, {"time": 13920, "pitch": 65, "duration": 930, "velocity": 108}, {"time": 13920, "pitch": 68, "duration": 930, "velocity": 121}, {"time": 13920, "pitch": 80, "duration": 240, "velocity": 93}, {"time": 14400, "pitch": 79, "duration": 240, "velocity": 99}, {"time": 14880, "pitch": 58, "duration": 930, "velocity": 95}, {"time": 14880, "pitch": 61, "duration": 930, "velocity": 102}, {"time": 14880, "pitch": 63, "duration": 930, "velocity": 107}, {"time": 14880, "pitch": 67, "duration": 930, "velocity": 116}, {"time": 14880, "pitch": 77, "duration": 240, "velocity": 93}, {"time": 15360, "pitch": 79, "duration": 240, "velocity": 97}, {"time": 15840, "pitch": 56, "duration": 1910, "velocity": 112}, {"time": 15840, "pitch": 60, "duration": 1910, "velocity": 118}, {"time": 15840, "pitch": 63, "duration": 1910, "velocity": 125}, {"time": 15840, "pitch": 67, "duration": 1910, "velocity": 126}, {"time": 17760, "pitch": 55, "duration": 1910, "velocity": 100}, {"time": 17760, "pitch": 58, "duration": 1910, "velocity": 106}, {"time": 17760, "pitch": 62, "duration": 1910, "velocity": 108}, {"time": 17760, "pitch": 65, "duration": 1910, "velocity": 123}, {"time": 19680, "pitch": 56, "duration": 1910, "velocity": 99}, {"time": 19680, "pitch": 60, "duration": 1910, "velocity": 114}, {"time": 19680, "pitch": 63, "duration": 1910, "velocity": 124}, {"time": 21610, "pitch": 48, "duration": 80, "velocity": 111}, {"time": 21610, "pitch": 60, "duration": 80, "velocity": 111}, {"time": 21840, "pitch": 48, "duration": 80, "velocity": 114}, {"time": 21840, "pitch": 60, "duration": 80, "velocity": 114}, {"time": 23520, "pitch": 51, "duration": 1440, "velocity": 101}, {"time": 23520, "pitch": 58, "duration": 1440, "velocity": 110}, {"time": 23520, "pitch": 63, "duration": 1910, "velocity": 107}, {"time": 23520, "pitch": 67, "duration": 1910, "velocity": 115}, {"time": 24960, "pitch": 51, "duration": 470, "velocity": 102}, {"time": 24960, "pitch": 58, "duration": 470, "velocity": 105}, {"time": 25440, "pitch": 56, "duration": 950, "velocity": 97}, {"time": 25440, "pitch": 60, "duration": 950, "velocity": 106}, {"time": 25440, "pitch": 63, "duration": 950, "velocity": 109}, {"time": 25440, "pitch": 67, "duration": 950, "velocity": 118}, {"time": 26400, "pitch": 51, "duration": 960, "velocity": 101}, {"time": 26400, "pitch": 58, "duration": 960, "velocity": 110}, {"time": 26400, "pitch": 63, "duration": 950, "velocity": 107}, {"time": 26400, "pitch": 67, "duration": 950, "velocity": 115}, {"time": 27360, "pitch": 56, "duration": 950, "velocity": 97}, {"time": 27360, "pitch": 60, "duration": 950, "velocity": 105}, {"time": 27360, "pitch": 63, "duration": 950, "velocity": 116}, {"time": 27360, "pitch": 67, "duration": 950, "velocity": 118}, {"time": 28320, "pitch": 51, "duration": 960, "velocity": 101}, {"time": 28320, "pitch": 58, "duration": 960, "velocity": 110}, {"time": 28320, "pitch": 63, "duration": 950, "velocity": 107}, {"time": 28320, "pitch": 67, "duration": 950, "velocity": 115}, {"time": 29280, "pitch": 58, "duration": 930, "velocity": 102}, {"time": 29280, "pitch": 61, "duration": 930, "velocity": 103}, {"time": 29280, "pitch": 65, "duration": 930, "velocity": 108}, {"time": 29280, "pitch": 68, "duration": 930, "velocity": 118}, {"time": 30240, "pitch": 51, "duration": 960, "velocity": 101}, {"time": 30240, "pitch": 58, "duration": 960, "velocity": 110}, {"time": 30240, "pitch": 61, "duration": 950, "velocity": 107}, {"time": 30240, "pitch": 67, "duration": 950, "velocity": 115}, {"time": 31200, "pitch": 56, "duration": 1910, "velocity": 112}, {"time": 31200, "pitch": 60, "duration": 1910, "velocity": 118}, {"time": 31200, "pitch": 63, "duration": 1910, "velocity": 125}, {"time": 31200, "pitch": 67, "duration": 1910, "velocity": 126}, {"time": 33120, "pitch": 55, "duration": 1910, "velocity": 112}, {"time": 33120, "pitch": 58, "duration": 1910, "velocity": 116}, {"time": 33120, "pitch": 62, "duration": 1910, "velocity": 119}, {"time": 33120, "pitch": 65, "duration": 1910, "velocity": 125}, {"time": 35040, "pitch": 56, "duration": 1910, "velocity": 112}, {"time": 35040, "pitch": 60, "duration": 1910, "velocity": 114}, {"time": 35040, "pitch": 63, "duration": 1910, "velocity": 117}, {"time": 35040, "pitch": 67, "duration": 1910, "velocity": 127}, {"time": 36960, "pitch": 58, "duration": 930, "velocity": 109}, {"time": 36960, "pitch": 61, "duration": 930, "velocity": 117}, {"time": 36960, "pitch": 65, "duration": 930, "velocity": 119}, {"time": 36960, "pitch": 68, "duration": 930, "velocity": 126}, {"time": 37920, "pitch": 58, "duration": 930, "velocity": 108}, {"time": 37920, "pitch": 61, "duration": 930, "velocity": 121}, {"time": 37920, "pitch": 63, "duration": 930, "velocity": 119}, {"time": 37920, "pitch": 67, "duration": 930, "velocity": 127}, {"time": 38880, "pitch": 56, "duration": 1910, "velocity": 108}, {"time": 38880, "pitch": 60, "duration": 1910, "velocity": 120}, {"time": 38880, "pitch": 63, "duration": 1910, "velocity": 126}, {"time": 38880, "pitch": 67, "duration": 1910, "velocity": 127}, {"time": 40800, "pitch": 55, "duration": 1910, "velocity": 107}, {"time": 40800, "pitch": 58, "duration": 1910, "velocity": 117}, {"time": 40800, "pitch": 62, "duration": 1910, "velocity": 119}, {"time": 40800, "pitch": 65, "duration": 1910, "velocity": 125}, {"time": 42720, "pitch": 53, "duration": 930, "velocity": 104}, {"time": 42720, "pitch": 56, "duration": 930, "velocity": 105}, {"time": 42720, "pitch": 60, "duration": 930, "velocity": 118}, {"time": 42720, "pitch": 63, "duration": 930, "velocity": 123}, {"time": 43680, "pitch": 55, "duration": 930, "velocity": 95}, {"time": 43680, "pitch": 58, "duration": 930, "velocity": 107}, {"time": 43680, "pitch": 60, "duration": 930, "velocity": 115}, {"time": 43680, "pitch": 63, "duration": 930, "velocity": 120}, {"time": 46560, "pitch": 51, "duration": 1440, "velocity": 101}, {"time": 46560, "pitch": 58, "duration": 1440, "velocity": 110}, {"time": 46560, "pitch": 63, "duration": 1910, "velocity": 107}, {"time": 46560, "pitch": 67, "duration": 1910, "velocity": 115}, {"time": 48000, "pitch": 51, "duration": 470, "velocity": 102}, {"time": 48000, "pitch": 58, "duration": 470, "velocity": 105}, {"time": 48480, "pitch": 56, "duration": 950, "velocity": 97}, {"time": 48480, "pitch": 60, "duration": 950, "velocity": 106}, {"time": 48480, "pitch": 63, "duration": 950, "velocity": 109}, {"time": 48480, "pitch": 67, "duration": 950, "velocity": 118}, {"time": 49440, "pitch": 51, "duration": 960, "velocity": 101}, {"time": 49440, "pitch": 58, "duration": 960, "velocity": 110}, {"time": 49440, "pitch": 63, "duration": 950, "velocity": 107}, {"time": 49440, "pitch": 67, "duration": 950, "velocity": 115}, {"time": 50400, "pitch": 56, "duration": 950, "velocity": 97}, {"time": 50400, "pitch": 60, "duration": 950, "velocity": 105}, {"time": 50400, "pitch": 63, "duration": 950, "velocity": 116}, {"time": 50400, "pitch": 67, "duration": 950, "velocity": 118}, {"time": 51360, "pitch": 51, "duration": 960, "velocity": 101}, {"time": 51360, "pitch": 58, "duration": 960, "velocity": 110}, {"time": 51360, "pitch": 63, "duration": 950, "velocity": 107}, {"time": 51360, "pitch": 67, "duration": 950, "velocity": 115}, {"time": 52320, "pitch": 58, "duration": 930, "velocity": 102}, {"time": 52320, "pitch": 61, "duration": 930, "velocity": 103}, {"time": 52320, "pitch": 65, "duration": 930, "velocity": 108}, {"time": 52320, "pitch": 68, "duration": 930, "velocity": 118}, {"time": 53280, "pitch": 51, "duration": 960, "velocity": 101}, {"time": 53280, "pitch": 58, "duration": 960, "velocity": 110}, {"time": 53280, "pitch": 61, "duration": 950, "velocity": 107}, {"time": 53280, "pitch": 67, "duration": 950, "velocity": 115}, {"time": 54240, "pitch": 56, "duration": 1440, "velocity": 101}, {"time": 54240, "pitch": 60, "duration": 1440, "velocity": 107}, {"time": 54240, "pitch": 63, "duration": 1910, "velocity": 110}, {"time": 54240, "pitch": 67, "duration": 1910, "velocity": 124}, {"time": 55680, "pitch": 56, "duration": 470, "velocity": 102}, {"time": 55680, "pitch": 60, "duration": 470, "velocity": 110}, {"time": 56160, "pitch": 55, "duration": 1910, "velocity": 101}, {"time": 56160, "pitch": 58, "duration": 1910, "velocity": 109}, {"time": 56160, "pitch": 62, "duration": 1910, "velocity": 110}, {"time": 56160, "pitch": 65, "duration": 1910, "velocity": 122}, {"time": 57600, "pitch": 67, "duration": 470, "velocity": 96}, {"time": 58080, "pitch": 56, "duration": 1440, "velocity": 101}, {"time": 58080, "pitch": 60, "duration": 1440, "velocity": 107}, {"time": 58080, "pitch": 63, "duration": 1910, "velocity": 110}, {"time": 58080, "pitch": 67, "duration": 1910, "velocity": 124}, {"time": 59520, "pitch": 56, "duration": 470, "velocity": 102}, {"time": 59520, "pitch": 60, "duration": 470, "velocity": 110}, {"time": 60000, "pitch": 55, "duration": 1910, "velocity": 101}, {"time": 60000, "pitch": 58, "duration": 1910, "velocity": 109}, {"time": 60000, "pitch": 62, "duration": 1910, "velocity": 110}, {"time": 60000, "pitch": 65, "duration": 1910, "velocity": 122}, {"time": 61440, "pitch": 67, "duration": 470, "velocity": 96}, {"time": 61920, "pitch": 51, "duration": 1440, "velocity": 101}, {"time": 61920, "pitch": 58, "duration": 1440, "velocity": 110}, {"time": 61920, "pitch": 62, "duration": 1910, "velocity": 107}, {"time": 61920, "pitch": 67, "duration": 1910, "velocity": 115}, {"time": 63360, "pitch": 51, "duration": 470, "velocity": 102}, {"time": 63360, "pitch": 58, "duration": 470, "velocity": 105}, {"time": 63840, "pitch": 56, "duration": 950, "velocity": 97}, {"time": 63840, "pitch": 60, "duration": 950, "velocity": 106}, {"time": 63840, "pitch": 63, "duration": 950, "velocity": 109}, {"time": 63840, "pitch": 67, "duration": 950, "velocity": 118}, {"time": 64800, "pitch": 51, "duration": 960, "velocity": 101}, {"time": 64800, "pitch": 58, "duration": 960, "velocity": 110}, {"time": 64800, "pitch": 62, "duration": 950, "velocity": 107}, {"time": 64800, "pitch": 67, "duration": 950, "velocity": 115}, {"time": 65760, "pitch": 56, "duration": 950, "velocity": 97}, {"time": 65760, "pitch": 60, "duration": 950, "velocity": 105}, {"time": 65760, "pitch": 63, "duration": 950, "velocity": 116}, {"time": 65760, "pitch": 67, "duration": 950, "velocity": 118}, {"time": 66720, "pitch": 51, "duration": 960, "velocity": 101}, {"time": 66720, "pitch": 58, "duration": 960, "velocity": 110}, {"time": 66720, "pitch": 62, "duration": 950, "velocity": 107}, {"time": 66720, "pitch": 67, "duration": 950, "velocity": 115}, {"time": 67680, "pitch": 58, "duration": 930, "velocity": 102}, {"time": 67680, "pitch": 61, "duration": 930, "velocity": 103}, {"time": 67680, "pitch": 65, "duration": 930, "velocity": 108}, {"time": 67680, "pitch": 68, "duration": 930, "velocity": 118}, {"time": 68640, "pitch": 51, "duration": 960, "velocity": 101}, {"time": 68640, "pitch": 58, "duration": 960, "velocity": 110}, {"time": 68640, "pitch": 61, "duration": 950, "velocity": 107}, {"time": 68640, "pitch": 67, "duration": 950, "velocity": 115}, {"time": 69600, "pitch": 53, "duration": 930, "velocity": 99}, {"time": 69600, "pitch": 56, "duration": 930, "velocity": 103}, {"time": 69600, "pitch": 60, "duration": 930, "velocity": 117}, {"time": 70560, "pitch": 55, "duration": 930, "velocity": 103}, {"time": 70560, "pitch": 58, "duration": 930, "velocity": 109}, {"time": 70560, "pitch": 62, "duration": 930, "velocity": 118}, {"time": 71520, "pitch": 56, "duration": 930, "velocity": 102}, {"time": 71520, "pitch": 60, "duration": 930, "velocity": 110}, {"time": 71520, "pitch": 63, "duration": 930, "velocity": 124}, {"time": 72480, "pitch": 58, "duration": 930, "velocity": 100}, {"time": 72480, "pitch": 62, "duration": 930, "velocity": 108}, {"time": 72480, "pitch": 65, "duration": 930, "velocity": 123}, {"time": 73450, "pitch": 48, "duration": 80, "velocity": 111}, {"time": 73450, "pitch": 60, "duration": 80, "velocity": 111}, {"time": 73680, "pitch": 48, "duration": 80, "velocity": 114}, {"time": 73680, "pitch": 60, "duration": 80, "velocity": 114}, {"time": 73930, "pitch": 48, "duration": 80, "velocity": 111}, {"time": 73930, "pitch": 60, "duration": 80, "velocity": 111}, {"time": 75360, "pitch": 56, "duration": 1910, "velocity": 112}, {"time": 75360, "pitch": 60, "duration": 1910, "velocity": 118}, {"time": 75360, "pitch": 63, "duration": 1910, "velocity": 125}, {"time": 75360, "pitch": 67, "duration": 1910, "velocity": 126}, {"time": 77280, "pitch": 55, "duration": 1910, "velocity": 112}, {"time": 77280, "pitch": 58, "duration": 1910, "velocity": 116}, {"time": 77280, "pitch": 62, "duration": 1910, "velocity": 119}, {"time": 77280, "pitch": 65, "duration": 1910, "velocity": 125}, {"time": 79200, "pitch": 56, "duration": 1910, "velocity": 112}, {"time": 79200, "pitch": 60, "duration": 1910, "velocity": 114}, {"time": 79200, "pitch": 63, "duration": 1910, "velocity": 117}, {"time": 79200, "pitch": 67, "duration": 1910, "velocity": 127}, {"time": 81120, "pitch": 58, "duration": 930, "velocity": 109}, {"time": 81120, "pitch": 61, "duration": 930, "velocity": 117}, {"time": 81120, "pitch": 65, "duration": 930, "velocity": 119}, {"time": 81120, "pitch": 68, "duration": 930, "velocity": 126}, {"time": 82080, "pitch": 58, "duration": 930, "velocity": 108}, {"time": 82080, "pitch": 61, "duration": 930, "velocity": 121}, {"time": 82080, "pitch": 63, "duration": 930, "velocity": 119}, {"time": 82080, "pitch": 67, "duration": 930, "velocity": 127}, {"time": 83040, "pitch": 56, "duration": 1910, "velocity": 108}, {"time": 83040, "pitch": 60, "duration": 1910, "velocity": 120}, {"time": 83040, "pitch": 63, "duration": 1910, "velocity": 126}, {"time": 83040, "pitch": 67, "duration": 1910, "velocity": 127}, {"time": 84960, "pitch": 55, "duration": 1910, "velocity": 107}, {"time": 84960, "pitch": 58, "duration": 1910, "velocity": 117}, {"time": 84960, "pitch": 62, "duration": 1910, "velocity": 119}, {"time": 84960, "pitch": 65, "duration": 1910, "velocity": 125}, {"time": 86880, "pitch": 53, "duration": 930, "velocity": 104}, {"time": 86880, "pitch": 56, "duration": 930, "velocity": 105}, {"time": 86880, "pitch": 60, "duration": 930, "velocity": 118}, {"time": 86880, "pitch": 63, "duration": 930, "velocity": 123}, {"time": 87840, "pitch": 55, "duration": 930, "velocity": 95}, {"time": 87840, "pitch": 58, "duration": 930, "velocity": 107}, {"time": 87840, "pitch": 60, "duration": 930, "velocity": 115}, {"time": 87840, "pitch": 63, "duration": 930, "velocity": 120}, {"time": 89290, "pitch": 48, "duration": 80, "velocity": 111}, {"time": 89290, "pitch": 60, "duration": 80, "velocity": 111}, {"time": 90720, "pitch": 56, "duration": 1910, "velocity": 112}, {"time": 90720, "pitch": 60, "duration": 1910, "velocity": 118}, {"time": 90720, "pitch": 63, "duration": 1910, "velocity": 125}, {"time": 90720, "pitch": 67, "duration": 1910, "velocity": 126}, {"time": 92640, "pitch": 55, "duration": 1910, "velocity": 95}, {"time": 92640, "pitch": 58, "duration": 1910, "velocity": 104}, {"time": 92640, "pitch": 62, "duration": 1910, "velocity": 107}, {"time": 92640, "pitch": 65, "duration": 1910, "velocity": 122}, {"time": 94560, "pitch": 56, "duration": 1910, "velocity": 112}, {"time": 94560, "pitch": 60, "duration": 1910, "velocity": 118}, {"time": 94560, "pitch": 63, "duration": 1910, "velocity": 125}, {"time": 96480, "pitch": 58, "duration": 930, "velocity": 98}, {"time": 96480, "pitch": 61, "duration": 930, "velocity": 107}, {"time": 96480, "pitch": 65, "duration": 930, "velocity": 108}, {"time": 96480, "pitch": 68, "duration": 930, "velocity": 121}, {"time": 96480, "pitch": 80, "duration": 240, "velocity": 93}, {"time": 96960, "pitch": 79, "duration": 240, "velocity": 99}, {"time": 97440, "pitch": 58, "duration": 930, "velocity": 95}, {"time": 97440, "pitch": 61, "duration": 930, "velocity": 102}, {"time": 97440, "pitch": 63, "duration": 930, "velocity": 107}, {"time": 97440, "pitch": 67, "duration": 930, "velocity": 116}, {"time": 97440, "pitch": 77, "duration": 240, "velocity": 93}, {"time": 97920, "pitch": 79, "duration": 240, "velocity": 97}, {"time": 98400, "pitch": 56, "duration": 1910, "velocity": 112}, {"time": 98400, "pitch": 60, "duration": 1910, "velocity": 118}, {"time": 98400, "pitch": 63, "duration": 1910, "velocity": 125}, {"time": 98400, "pitch": 67, "duration": 1910, "velocity": 126}, {"time": 100320, "pitch": 55, "duration": 1910, "velocity": 100}, {"time": 100320, "pitch": 58, "duration": 1910, "velocity": 106}, {"time": 100320, "pitch": 62, "duration": 1910, "velocity": 108}, {"time": 100320, "pitch": 65, "duration": 1910, "velocity": 123}, {"time": 102240, "pitch": 56, "duration": 1910, "velocity": 99}, {"time": 102240, "pitch": 60, "duration": 1910, "velocity": 114}, {"time": 102240, "pitch": 63, "duration": 1910, "velocity": 124}, {"time": 106080, "pitch": 51, "duration": 1440, "velocity": 101}, {"time": 106080, "pitch": 58, "duration": 1440, "velocity": 110}, {"time": 106080, "pitch": 63, "duration": 1910, "velocity": 107}, {"time": 106080, "pitch": 67, "duration": 1910, "velocity": 115}, {"time": 107520, "pitch": 51, "duration": 470, "velocity": 102}, {"time": 107520, "pitch": 58, "duration": 470, "velocity": 105}, {"time": 108000, "pitch": 56, "duration": 950, "velocity": 97}, {"time": 108000, "pitch": 60, "duration": 950, "velocity": 106}, {"time": 108000, "pitch": 63, "duration": 950, "velocity": 109}, {"time": 108000, "pitch": 67, "duration": 950, "velocity": 118}, {"time": 108960, "pitch": 51, "duration": 960, "velocity": 101}, {"time": 108960, "pitch": 58, "duration": 960, "velocity": 110}, {"time": 108960, "pitch": 63, "duration": 950, "velocity": 107}, {"time": 108960, "pitch": 67, "duration": 950, "velocity": 115}, {"time": 109920, "pitch": 56, "duration": 950, "velocity": 97}, {"time": 109920, "pitch": 60, "duration": 950, "velocity": 105}, {"time": 109920, "pitch": 63, "duration": 950, "velocity": 116}, {"time": 109920, "pitch": 67, "duration": 950, "velocity": 118}, {"time": 110880, "pitch": 51, "duration": 960, "velocity": 101}, {"time": 110880, "pitch": 58, "duration": 960, "velocity": 110}, {"time": 110880, "pitch": 63, "duration": 950, "velocity": 107}, {"time": 110880, "pitch": 67, "duration": 950, "velocity": 115}, {"time": 111840, "pitch": 58, "duration": 930, "velocity": 102}, {"time": 111840, "pitch": 61, "duration": 930, "velocity": 103}, {"time": 111840, "pitch": 65, "duration": 930, "velocity": 108}, {"time": 111840, "pitch": 68, "duration": 930, "velocity": 118}, {"time": 112800, "pitch": 51, "duration": 960, "velocity": 101}, {"time": 112800, "pitch": 58, "duration": 960, "velocity": 110}, {"time": 112800, "pitch": 61, "duration": 950, "velocity": 107}, {"time": 112800, "pitch": 67, "duration": 950, "velocity": 115}, {"time": 113760, "pitch": 56, "duration": 1910, "velocity": 112}, {"time": 113760, "pitch": 60, "duration": 1910, "velocity": 118}, {"time": 113760, "pitch": 63, "duration": 1910, "velocity": 125}, {"time": 113760, "pitch": 67, "duration": 1910, "velocity": 126}, {"time": 115680, "pitch": 55, "duration": 1910, "velocity": 112}, {"time": 115680, "pitch": 58, "duration": 1910, "velocity": 116}, {"time": 115680, "pitch": 62, "duration": 1910, "velocity": 119}, {"time": 115680, "pitch": 65, "duration": 1910, "velocity": 125}, {"time": 117600, "pitch": 56, "duration": 1910, "velocity": 112}, {"time": 117600, "pitch": 60, "duration": 1910, "velocity": 114}, {"time": 117600, "pitch": 63, "duration": 1910, "velocity": 117}, {"time": 117600, "pitch": 67, "duration": 1910, "velocity": 127}, {"time": 119520, "pitch": 58, "duration": 930, "velocity": 109}, {"time": 119520, "pitch": 61, "duration": 930, "velocity": 117}, {"time": 119520, "pitch": 65, "duration": 930, "velocity": 119}, {"time": 119520, "pitch": 68, "duration": 930, "velocity": 126}, {"time": 120480, "pitch": 58, "duration": 930, "velocity": 108}, {"time": 120480, "pitch": 61, "duration": 930, "velocity": 121}, {"time": 120480, "pitch": 63, "duration": 930, "velocity": 119}, {"time": 120480, "pitch": 67, "duration": 930, "velocity": 127}, {"time": 121440, "pitch": 56, "duration": 1910, "velocity": 108}, {"time": 121440, "pitch": 60, "duration": 1910, "velocity": 120}, {"time": 121440, "pitch": 63, "duration": 1910, "velocity": 126}, {"time": 121440, "pitch": 67, "duration": 1910, "velocity": 127}, {"time": 123360, "pitch": 55, "duration": 1910, "velocity": 107}, {"time": 123360, "pitch": 58, "duration": 1910, "velocity": 117}, {"time": 123360, "pitch": 62, "duration": 1910, "velocity": 119}, {"time": 123360, "pitch": 65, "duration": 1910, "velocity": 125}, {"time": 125280, "pitch": 53, "duration": 930, "velocity": 104}, {"time": 125280, "pitch": 56, "duration": 930, "velocity": 105}, {"time": 125280, "pitch": 60, "duration": 930, "velocity": 118}, {"time": 125280, "pitch": 63, "duration": 930, "velocity": 123}, {"time": 126240, "pitch": 55, "duration": 930, "velocity": 95}, {"time": 126240, "pitch": 58, "duration": 930, "velocity": 107}, {"time": 126240, "pitch": 60, "duration": 930, "velocity": 115}, {"time": 126240, "pitch": 63, "duration": 930, "velocity": 120}, {"time": 129120, "pitch": 51, "duration": 1440, "velocity": 101}, {"time": 129120, "pitch": 58, "duration": 1440, "velocity": 110}, {"time": 129120, "pitch": 63, "duration": 1910, "velocity": 107}, {"time": 129120, "pitch": 67, "duration": 1910, "velocity": 115}, {"time": 130560, "pitch": 51, "duration": 470, "velocity": 102}, {"time": 130560, "pitch": 58, "duration": 470, "velocity": 105}, {"time": 131040, "pitch": 56, "duration": 950, "velocity": 97}, {"time": 131040, "pitch": 60, "duration": 950, "velocity": 106}, {"time": 131040, "pitch": 63, "duration": 950, "velocity": 109}, {"time": 131040, "pitch": 67, "duration": 950, "velocity": 118}, {"time": 132000, "pitch": 51, "duration": 960, "velocity": 101}, {"time": 132000, "pitch": 58, "duration": 960, "velocity": 110}, {"time": 132000, "pitch": 63, "duration": 950, "velocity": 107}, {"time": 132000, "pitch": 67, "duration": 950, "velocity": 115}, {"time": 132960, "pitch": 56, "duration": 950, "velocity": 97}, {"time": 132960, "pitch": 60, "duration": 950, "velocity": 105}, {"time": 132960, "pitch": 63, "duration": 950, "velocity": 116}, {"time": 132960, "pitch": 67, "duration": 950, "velocity": 118}, {"time": 133920, "pitch": 51, "duration": 960, "velocity": 101}, {"time": 133920, "pitch": 58, "duration": 960, "velocity": 110}, {"time": 133920, "pitch": 63, "duration": 950, "velocity": 107}, {"time": 133920, "pitch": 67, "duration": 950, "velocity": 115}, {"time": 134880, "pitch": 58, "duration": 930, "velocity": 102}, {"time": 134880, "pitch": 61, "duration": 930, "velocity": 103}, {"time": 134880, "pitch": 65, "duration": 930, "velocity": 108}, {"time": 134880, "pitch": 68, "duration": 930, "velocity": 118}, {"time": 135840, "pitch": 51, "duration": 960, "velocity": 101}, {"time": 135840, "pitch": 58, "duration": 960, "velocity": 110}, {"time": 135840, "pitch": 61, "duration": 950, "velocity": 107}, {"time": 135840, "pitch": 67, "duration": 950, "velocity": 115}, {"time": 136800, "pitch": 56, "duration": 1440, "velocity": 101}, {"time": 136800, "pitch": 60, "duration": 1440, "velocity": 107}, {"time": 136800, "pitch": 63, "duration": 1910, "velocity": 110}, {"time": 136800, "pitch": 67, "duration": 1910, "velocity": 124}, {"time": 138240, "pitch": 56, "duration": 470, "velocity": 102}, {"time": 138240, "pitch": 60, "duration": 470, "velocity": 110}, {"time": 138720, "pitch": 55, "duration": 1910, "velocity": 101}, {"time": 138720, "pitch": 58, "duration": 1910, "velocity": 109}, {"time": 138720, "pitch": 62, "duration": 1910, "velocity": 110}, {"time": 138720, "pitch": 65, "duration": 1910, "velocity": 122}, {"time": 140160, "pitch": 67, "duration": 470, "velocity": 96}, {"time": 140640, "pitch": 56, "duration": 1440, "velocity": 101}, {"time": 140640, "pitch": 60, "duration": 1440, "velocity": 107}, {"time": 140640, "pitch": 63, "duration": 1910, "velocity": 110}, {"time": 140640, "pitch": 67, "duration": 1910, "velocity": 124}, {"time": 142080, "pitch": 56, "duration": 470, "velocity": 102}, {"time": 142080, "pitch": 60, "duration": 470, "velocity": 110}, {"time": 142560, "pitch": 55, "duration": 1910, "velocity": 101}, {"time": 142560, "pitch": 58, "duration": 1910, "velocity": 109}, {"time": 142560, "pitch": 62, "duration": 1910, "velocity": 110}, {"time": 142560, "pitch": 65, "duration": 1910, "velocity": 122}, {"time": 144000, "pitch": 67, "duration": 470, "velocity": 96}, {"time": 144480, "pitch": 51, "duration": 1440, "velocity": 101}, {"time": 144480, "pitch": 58, "duration": 1440, "velocity": 110}, {"time": 144480, "pitch": 62, "duration": 1910, "velocity": 107}, {"time": 144480, "pitch": 67, "duration": 1910, "velocity": 115}, {"time": 145920, "pitch": 51, "duration": 470, "velocity": 102}, {"time": 145920, "pitch": 58, "duration": 470, "velocity": 105}, {"time": 146400, "pitch": 56, "duration": 950, "velocity": 97}, {"time": 146400, "pitch": 60, "duration": 950, "velocity": 106}, {"time": 146400, "pitch": 63, "duration": 950, "velocity": 109}, {"time": 146400, "pitch": 67, "duration": 950, "velocity": 118}, {"time": 147360, "pitch": 51, "duration": 960, "velocity": 101}, {"time": 147360, "pitch": 58, "duration": 960, "velocity": 110}, {"time": 147360, "pitch": 62, "duration": 950, "velocity": 107}, {"time": 147360, "pitch": 67, "duration": 950, "velocity": 115}, {"time": 148320, "pitch": 56, "duration": 950, "velocity": 97}, {"time": 148320, "pitch": 60, "duration": 950, "velocity": 105}, {"time": 148320, "pitch": 63, "duration": 950, "velocity": 116}, {"time": 148320, "pitch": 67, "duration": 950, "velocity": 118}, {"time": 149280, "pitch": 51, "duration": 960, "velocity": 101}, {"time": 149280, "pitch": 58, "duration": 960, "velocity": 110}, {"time": 149280, "pitch": 62, "duration": 950, "velocity": 107}, {"time": 149280, "pitch": 67, "duration": 950, "velocity": 115}, {"time": 150240, "pitch": 58, "duration": 930, "velocity": 102}, {"time": 150240, "pitch": 61, "duration": 930, "velocity": 103}, {"time": 150240, "pitch": 65, "duration": 930, "velocity": 108}, {"time": 150240, "pitch": 68, "duration": 930, "velocity": 118}, {"time": 151200, "pitch": 51, "duration": 960, "velocity": 101}, {"time": 151200, "pitch": 58, "duration": 960, "velocity": 110}, {"time": 151200, "pitch": 61, "duration": 950, "velocity": 107}, {"time": 151200, "pitch": 67, "duration": 950, "velocity": 115}, {"time": 152160, "pitch": 53, "duration": 930, "velocity": 99}, {"time": 152160, "pitch": 56, "duration": 930, "velocity": 103}, {"time": 152160, "pitch": 60, "duration": 930, "velocity": 117}, {"time": 153120, "pitch": 55, "duration": 930, "velocity": 103}, {"time": 153120, "pitch": 58, "duration": 930, "velocity": 109}, {"time": 153120, "pitch": 62, "duration": 930, "velocity": 118}, {"time": 154080, "pitch": 56, "duration": 930, "velocity": 102}, {"time": 154080, "pitch": 60, "duration": 930, "velocity": 110}, {"time": 154080, "pitch": 63, "duration": 930, "velocity": 124}, {"time": 155040, "pitch": 58, "duration": 930, "velocity": 100}, {"time": 155040, "pitch": 62, "duration": 930, "velocity": 108}, {"time": 155040, "pitch": 65, "duration": 930, "velocity": 123}, {"time": 157920, "pitch": 56, "duration": 1910, "velocity": 112}, {"time": 157920, "pitch": 60, "duration": 1910, "velocity": 118}, {"time": 157920, "pitch": 63, "duration": 1910, "velocity": 125}, {"time": 157920, "pitch": 67, "duration": 1910, "velocity": 126}, {"time": 159840, "pitch": 55, "duration": 1910, "velocity": 100}, {"time": 159840, "pitch": 58, "duration": 1910, "velocity": 104}, {"time": 159840, "pitch": 62, "duration": 1910, "velocity": 107}, {"time": 159840, "pitch": 65, "duration": 1910, "velocity": 124}, {"time": 161760, "pitch": 56, "duration": 1910, "velocity": 98}, {"time": 161760, "pitch": 60, "duration": 1910, "velocity": 116}, {"time": 161760, "pitch": 63, "duration": 1910, "velocity": 123}, {"time": 163680, "pitch": 58, "duration": 930, "velocity": 98}, {"time": 163680, "pitch": 61, "duration": 930, "velocity": 107}, {"time": 163680, "pitch": 65, "duration": 930, "velocity": 108}, {"time": 163680, "pitch": 68, "duration": 930, "velocity": 121}, {"time": 163680, "pitch": 80, "duration": 240, "velocity": 93}, {"time": 164160, "pitch": 79, "duration": 240, "velocity": 99}, {"time": 164640, "pitch": 58, "duration": 930, "velocity": 95}, {"time": 164640, "pitch": 61, "duration": 930, "velocity": 102}, {"time": 164640, "pitch": 63, "duration": 930, "velocity": 107}, {"time": 164640, "pitch": 67, "duration": 930, "velocity": 116}, {"time": 164640, "pitch": 77, "duration": 240, "velocity": 93}, {"time": 165120, "pitch": 79, "duration": 240, "velocity": 97}, {"time": 165600, "pitch": 56, "duration": 1910, "velocity": 112}, {"time": 165600, "pitch": 60, "duration": 1910, "velocity": 118}, {"time": 165600, "pitch": 63, "duration": 1910, "velocity": 125}, {"time": 165600, "pitch": 67, "duration": 1910, "velocity": 126}, {"time": 167520, "pitch": 55, "duration": 1910, "velocity": 100}, {"time": 167520, "pitch": 58, "duration": 1910, "velocity": 106}, {"time": 167520, "pitch": 62, "duration": 1910, "velocity": 108}, {"time": 167520, "pitch": 65, "duration": 1910, "velocity": 123}, {"time": 169440, "pitch": 56, "duration": 1910, "velocity": 99}, {"time": 169440, "pitch": 60, "duration": 1910, "velocity": 114}, {"time": 169440, "pitch": 63, "duration": 1910, "velocity": 124}, {"time": 171370, "pitch": 48, "duration": 80, "velocity": 111}, {"time": 171370, "pitch": 60, "duration": 80, "velocity": 111}, {"time": 171600, "pitch": 48, "duration": 80, "velocity": 114}, {"time": 171600, "pitch": 60, "duration": 80, "velocity": 114}], "annotations": [{"time": 258, "annotation": {"number": 7, "value": 120}, "group": "control_change"}, {"time": 277, "annotation": {"number": 11, "value": 120}, "group": "control_change"}, {"time": 295, "annotation": {"number": 10, "value": 44}, "group": "control_change"}, {"time": 314, "annotation": {"number": 91, "value": 50}, "group": "control_change"}, {"time": 332, "annotation": {"number": 93, "value": 50}, "group": "control_change"}, {"time": 351, "annotation": {"number": 94, "value": 0}, "group": "control_change"}, {"time": 369, "annotation": {"number": 101, "value": 0}, "group": "control_change"}, {"time": 388, "annotation": {"number": 100, "value": 0}, "group": "control_change"}, {"time": 406, "annotation": {"number": 6, "value": 12}, "group": "control_change"}, {"time": 425, "annotation": {"number": 101, "value": 127}, "group": "control_change"}, {"time": 443, "annotation": {"number": 100, "value": 127}, "group": "control_change"}]}, {"program": 0, "is_drum": false, "name": "BASS ", "annotations": [{"time": 240, "annotation": {"number": 0, "value": 0}, "group": "control_change"}, {"time": 240, "annotation": {"number": 32, "value": 0}, "group": "control_change"}]}, {"program": 39, "is_drum": false, "name": "BASS ", "notes": [{"time": 15120, "pitch": 27, "duration": 710, "velocity": 127}, {"time": 15840, "pitch": 32, "duration": 170, "velocity": 124}, {"time": 16720, "pitch": 32, "duration": 60, "velocity": 105}, {"time": 16960, "pitch": 32, "duration": 60, "velocity": 100}, {"time": 17040, "pitch": 31, "duration": 240, "velocity": 127}, {"time": 17280, "pitch": 32, "duration": 240, "velocity": 126}, {"time": 17520, "pitch": 34, "duration": 240, "velocity": 125}, {"time": 17760, "pitch": 36, "duration": 110, "velocity": 121}, {"time": 18640, "pitch": 36, "duration": 60, "velocity": 103}, {"time": 18880, "pitch": 36, "duration": 60, "velocity": 98}, {"time": 18960, "pitch": 31, "duration": 240, "velocity": 125}, {"time": 19200, "pitch": 34, "duration": 240, "velocity": 121}, {"time": 19440, "pitch": 36, "duration": 240, "velocity": 127}, {"time": 19680, "pitch": 32, "duration": 170, "velocity": 123}, {"time": 20560, "pitch": 32, "duration": 60, "velocity": 101}, {"time": 20800, "pitch": 32, "duration": 60, "velocity": 105}, {"time": 20880, "pitch": 31, "duration": 240, "velocity": 127}, {"time": 21120, "pitch": 32, "duration": 240, "velocity": 125}, {"time": 21360, "pitch": 34, "duration": 240, "velocity": 122}, {"time": 21600, "pitch": 36, "duration": 130, "velocity": 114}, {"time": 21840, "pitch": 36, "duration": 160, "velocity": 127}, {"time": 23520, "pitch": 27, "duration": 170, "velocity": 127}, {"time": 24400, "pitch": 27, "duration": 60, "velocity": 102}, {"time": 24640, "pitch": 27, "duration": 60, "velocity": 96}, {"time": 24720, "pitch": 31, "duration": 240, "velocity": 122}, {"time": 24960, "pitch": 32, "duration": 240, "velocity": 122}, {"time": 25200, "pitch": 34, "duration": 240, "velocity": 127}, {"time": 25440, "pitch": 32, "duration": 170, "velocity": 122}, {"time": 26320, "pitch": 32, "duration": 60, "velocity": 104}, {"time": 26560, "pitch": 27, "duration": 60, "velocity": 96}, {"time": 26640, "pitch": 31, "duration": 240, "velocity": 122}, {"time": 26880, "pitch": 32, "duration": 240, "velocity": 122}, {"time": 27120, "pitch": 34, "duration": 240, "velocity": 127}, {"time": 27360, "pitch": 32, "duration": 170, "velocity": 122}, {"time": 28240, "pitch": 32, "duration": 60, "velocity": 104}, {"time": 28480, "pitch": 32, "duration": 60, "velocity": 100}, {"time": 28560, "pitch": 31, "duration": 240, "velocity": 124}, {"time": 28800, "pitch": 32, "duration": 240, "velocity": 127}, {"time": 29040, "pitch": 36, "duration": 160, "velocity": 124}, {"time": 29200, "pitch": 31, "duration": 60, "velocity": 87}, {"time": 29280, "pitch": 34, "duration": 110, "velocity": 121}, {"time": 29680, "pitch": 34, "duration": 60, "velocity": 99}, {"time": 29760, "pitch": 36, "duration": 480, "velocity": 126}, {"time": 30240, "pitch": 27, "duration": 110, "velocity": 123}, {"time": 30640, "pitch": 27, "duration": 60, "velocity": 127}, {"time": 30880, "pitch": 27, "duration": 60, "velocity": 126}, {"time": 30960, "pitch": 34, "duration": 240, "velocity": 127}, {"time": 31200, "pitch": 32, "duration": 170, "velocity": 124}, {"time": 32080, "pitch": 32, "duration": 60, "velocity": 98}, {"time": 32320, "pitch": 32, "duration": 60, "velocity": 100}, {"time": 32400, "pitch": 31, "duration": 240, "velocity": 123}, {"time": 32640, "pitch": 32, "duration": 240, "velocity": 126}, {"time": 32880, "pitch": 34, "duration": 240, "velocity": 122}, {"time": 33120, "pitch": 24, "duration": 170, "velocity": 127}, {"time": 34000, "pitch": 36, "duration": 60, "velocity": 97}, {"time": 34240, "pitch": 36, "duration": 60, "velocity": 100}, {"time": 34320, "pitch": 31, "duration": 240, "velocity": 127}, {"time": 34560, "pitch": 34, "duration": 240, "velocity": 122}, {"time": 34800, "pitch": 36, "duration": 240, "velocity": 126}, {"time": 35040, "pitch": 32, "duration": 170, "velocity": 124}, {"time": 35920, "pitch": 32, "duration": 60, "velocity": 104}, {"time": 36160, "pitch": 32, "duration": 60, "velocity": 104}, {"time": 36240, "pitch": 31, "duration": 240, "velocity": 127}, {"time": 36480, "pitch": 32, "duration": 240, "velocity": 126}, {"time": 36720, "pitch": 36, "duration": 160, "velocity": 123}, {"time": 36880, "pitch": 31, "duration": 60, "velocity": 88}, {"time": 36960, "pitch": 34, "duration": 110, "velocity": 127}, {"time": 37360, "pitch": 34, "duration": 60, "velocity": 96}, {"time": 37440, "pitch": 36, "duration": 480, "velocity": 123}, {"time": 37920, "pitch": 27, "duration": 110, "velocity": 127}, {"time": 38320, "pitch": 27, "duration": 60, "velocity": 121}, {"time": 38560, "pitch": 27, "duration": 60, "velocity": 120}, {"time": 38640, "pitch": 34, "duration": 240, "velocity": 122}, {"time": 38880, "pitch": 32, "duration": 170, "velocity": 124}, {"time": 39760, "pitch": 32, "duration": 60, "velocity": 102}, {"time": 40000, "pitch": 32, "duration": 60, "velocity": 104}, {"time": 40080, "pitch": 31, "duration": 240, "velocity": 122}, {"time": 40320, "pitch": 32, "duration": 240, "velocity": 121}, {"time": 40560, "pitch": 34, "duration": 160, "velocity": 120}, {"time": 40720, "pitch": 34, "duration": 60, "velocity": 85}, {"time": 40800, "pitch": 36, "duration": 170, "velocity": 127}, {"time": 41680, "pitch": 36, "duration": 60, "velocity": 103}, {"time": 41920, "pitch": 36, "duration": 60, "velocity": 96}, {"time": 42000, "pitch": 31, "duration": 240, "velocity": 121}, {"time": 42240, "pitch": 34, "duration": 240, "velocity": 127}, {"time": 42480, "pitch": 36, "duration": 240, "velocity": 121}, {"time": 42720, "pitch": 29, "duration": 170, "velocity": 127}, {"time": 43600, "pitch": 29, "duration": 60, "velocity": 120}, {"time": 43680, "pitch": 31, "duration": 160, "velocity": 113}, {"time": 43840, "pitch": 29, "duration": 60, "velocity": 99}, {"time": 43920, "pitch": 31, "duration": 160, "velocity": 127}, {"time": 44400, "pitch": 31, "duration": 240, "velocity": 122}, {"time": 44640, "pitch": 36, "duration": 110, "velocity": 124}, {"time": 44880, "pitch": 36, "duration": 110, "velocity": 126}, {"time": 45120, "pitch": 36, "duration": 150, "velocity": 126}, {"time": 45360, "pitch": 36, "duration": 150, "velocity": 126}, {"time": 46560, "pitch": 27, "duration": 170, "velocity": 127}, {"time": 47440, "pitch": 27, "duration": 60, "velocity": 102}, {"time": 47680, "pitch": 27, "duration": 60, "velocity": 96}, {"time": 47760, "pitch": 31, "duration": 240, "velocity": 122}, {"time": 48000, "pitch": 32, "duration": 240, "velocity": 122}, {"time": 48240, "pitch": 34, "duration": 240, "velocity": 127}, {"time": 48480, "pitch": 32, "duration": 170, "velocity": 122}, {"time": 49360, "pitch": 32, "duration": 60, "velocity": 104}, {"time": 49600, "pitch": 27, "duration": 60, "velocity": 96}, {"time": 49680, "pitch": 31, "duration": 240, "velocity": 122}, {"time": 49920, "pitch": 32, "duration": 240, "velocity": 122}, {"time": 50160, "pitch": 34, "duration": 240, "velocity": 127}, {"time": 50400, "pitch": 32, "duration": 170, "velocity": 122}, {"time": 51280, "pitch": 32, "duration": 60, "velocity": 104}, {"time": 51520, "pitch": 32, "duration": 60, "velocity": 100}, {"time": 51600, "pitch": 31, "duration": 240, "velocity": 124}, {"time": 51840, "pitch": 32, "duration": 240, "velocity": 127}, {"time": 52080, "pitch": 36, "duration": 160, "velocity": 124}, {"time": 52240, "pitch": 31, "duration": 60, "velocity": 87}, {"time": 52320, "pitch": 34, "duration": 110, "velocity": 121}, {"time": 52720, "pitch": 34, "duration": 60, "velocity": 99}, {"time": 52800, "pitch": 36, "duration": 480, "velocity": 126}, {"time": 53280, "pitch": 27, "duration": 110, "velocity": 123}, {"time": 53680, "pitch": 27, "duration": 60, "velocity": 127}, {"time": 53920, "pitch": 27, "duration": 60, "velocity": 126}, {"time": 54000, "pitch": 34, "duration": 240, "velocity": 127}, {"time": 54240, "pitch": 32, "duration": 170, "velocity": 124}, {"time": 55120, "pitch": 32, "duration": 60, "velocity": 100}, {"time": 55360, "pitch": 32, "duration": 60, "velocity": 102}, {"time": 55440, "pitch": 31, "duration": 240, "velocity": 125}, {"time": 55680, "pitch": 32, "duration": 240, "velocity": 124}, {"time": 55920, "pitch": 34, "duration": 240, "velocity": 127}, {"time": 56160, "pitch": 24, "duration": 170, "velocity": 125}, {"time": 57040, "pitch": 36, "duration": 60, "velocity": 100}, {"time": 57280, "pitch": 36, "duration": 60, "velocity": 97}, {"time": 57360, "pitch": 31, "duration": 240, "velocity": 127}, {"time": 57600, "pitch": 34, "duration": 240, "velocity": 127}, {"time": 57840, "pitch": 36, "duration": 240, "velocity": 121}, {"time": 58080, "pitch": 32, "duration": 170, "velocity": 124}, {"time": 58960, "pitch": 32, "duration": 60, "velocity": 100}, {"time": 59200, "pitch": 32, "duration": 60, "velocity": 102}, {"time": 59280, "pitch": 31, "duration": 240, "velocity": 125}, {"time": 59520, "pitch": 32, "duration": 240, "velocity": 124}, {"time": 59760, "pitch": 34, "duration": 240, "velocity": 127}, {"time": 60000, "pitch": 24, "duration": 170, "velocity": 125}, {"time": 60880, "pitch": 36, "duration": 60, "velocity": 100}, {"time": 61120, "pitch": 36, "duration": 60, "velocity": 97}, {"time": 61200, "pitch": 31, "duration": 240, "velocity": 127}, {"time": 61440, "pitch": 34, "duration": 240, "velocity": 127}, {"time": 61680, "pitch": 36, "duration": 240, "velocity": 121}, {"time": 61920, "pitch": 27, "duration": 170, "velocity": 127}, {"time": 62800, "pitch": 27, "duration": 60, "velocity": 102}, {"time": 63040, "pitch": 27, "duration": 60, "velocity": 96}, {"time": 63120, "pitch": 31, "duration": 240, "velocity": 122}, {"time": 63360, "pitch": 32, "duration": 240, "velocity": 122}, {"time": 63600, "pitch": 34, "duration": 240, "velocity": 127}, {"time": 63840, "pitch": 32, "duration": 170, "velocity": 122}, {"time": 64720, "pitch": 32, "duration": 60, "velocity": 104}, {"time": 64960, "pitch": 27, "duration": 60, "velocity": 96}, {"time": 65040, "pitch": 31, "duration": 240, "velocity": 122}, {"time": 65280, "pitch": 32, "duration": 240, "velocity": 122}, {"time": 65520, "pitch": 34, "duration": 240, "velocity": 127}, {"time": 65760, "pitch": 32, "duration": 170, "velocity": 122}, {"time": 66640, "pitch": 32, "duration": 60, "velocity": 104}, {"time": 66880, "pitch": 32, "duration": 60, "velocity": 100}, {"time": 66960, "pitch": 31, "duration": 240, "velocity": 124}, {"time": 67200, "pitch": 32, "duration": 240, "velocity": 127}, {"time": 67440, "pitch": 36, "duration": 160, "velocity": 124}, {"time": 67600, "pitch": 31, "duration": 60, "velocity": 87}, {"time": 67680, "pitch": 34, "duration": 110, "velocity": 121}, {"time": 68080, "pitch": 34, "duration": 60, "velocity": 99}, {"time": 68160, "pitch": 36, "duration": 480, "velocity": 126}, {"time": 68640, "pitch": 27, "duration": 110, "velocity": 123}, {"time": 69040, "pitch": 27, "duration": 60, "velocity": 127}, {"time": 69280, "pitch": 27, "duration": 60, "velocity": 126}, {"time": 69360, "pitch": 34, "duration": 240, "velocity": 127}, {"time": 69600, "pitch": 29, "duration": 170, "velocity": 127}, {"time": 70480, "pitch": 29, "duration": 60, "velocity": 123}, {"time": 70560, "pitch": 31, "duration": 160, "velocity": 108}, {"time": 70720, "pitch": 29, "duration": 60, "velocity": 104}, {"time": 70800, "pitch": 31, "duration": 160, "velocity": 123}, {"time": 71280, "pitch": 31, "duration": 240, "velocity": 121}, {"time": 71520, "pitch": 32, "duration": 110, "velocity": 124}, {"time": 71760, "pitch": 32, "duration": 200, "velocity": 120}, {"time": 72000, "pitch": 31, "duration": 160, "velocity": 123}, {"time": 72240, "pitch": 29, "duration": 200, "velocity": 122}, {"time": 72480, "pitch": 34, "duration": 150, "velocity": 123}, {"time": 72960, "pitch": 46, "duration": 460, "velocity": 127}, {"time": 73440, "pitch": 36, "duration": 130, "velocity": 114}, {"time": 73680, "pitch": 36, "duration": 160, "velocity": 127}, {"time": 73920, "pitch": 36, "duration": 130, "velocity": 114}, {"time": 75360, "pitch": 32, "duration": 170, "velocity": 124}, {"time": 76240, "pitch": 32, "duration": 60, "velocity": 98}, {"time": 76480, "pitch": 32, "duration": 60, "velocity": 100}, {"time": 76560, "pitch": 31, "duration": 240, "velocity": 123}, {"time": 76800, "pitch": 32, "duration": 240, "velocity": 126}, {"time": 77040, "pitch": 34, "duration": 240, "velocity": 122}, {"time": 77280, "pitch": 24, "duration": 170, "velocity": 127}, {"time": 78160, "pitch": 36, "duration": 60, "velocity": 97}, {"time": 78400, "pitch": 36, "duration": 60, "velocity": 100}, {"time": 78480, "pitch": 31, "duration": 240, "velocity": 127}, {"time": 78720, "pitch": 34, "duration": 240, "velocity": 122}, {"time": 78960, "pitch": 36, "duration": 240, "velocity": 126}, {"time": 79200, "pitch": 32, "duration": 170, "velocity": 124}, {"time": 80080, "pitch": 32, "duration": 60, "velocity": 104}, {"time": 80320, "pitch": 32, "duration": 60, "velocity": 104}, {"time": 80400, "pitch": 31, "duration": 240, "velocity": 127}, {"time": 80640, "pitch": 32, "duration": 240, "velocity": 126}, {"time": 80880, "pitch": 36, "duration": 160, "velocity": 123}, {"time": 81040, "pitch": 31, "duration": 60, "velocity": 88}, {"time": 81120, "pitch": 34, "duration": 110, "velocity": 127}, {"time": 81520, "pitch": 34, "duration": 60, "velocity": 96}, {"time": 81600, "pitch": 36, "duration": 480, "velocity": 123}, {"time": 82080, "pitch": 27, "duration": 110, "velocity": 127}, {"time": 82480, "pitch": 27, "duration": 60, "velocity": 121}, {"time": 82720, "pitch": 27, "duration": 60, "velocity": 120}, {"time": 82800, "pitch": 34, "duration": 240, "velocity": 122}, {"time": 83040, "pitch": 32, "duration": 170, "velocity": 124}, {"time": 83920, "pitch": 32, "duration": 60, "velocity": 102}, {"time": 84160, "pitch": 32, "duration": 60, "velocity": 104}, {"time": 84240, "pitch": 31, "duration": 240, "velocity": 122}, {"time": 84480, "pitch": 32, "duration": 240, "velocity": 121}, {"time": 84720, "pitch": 34, "duration": 160, "velocity": 120}, {"time": 84880, "pitch": 34, "duration": 60, "velocity": 85}, {"time": 84960, "pitch": 36, "duration": 170, "velocity": 127}, {"time": 85840, "pitch": 36, "duration": 60, "velocity": 103}, {"time": 86080, "pitch": 36, "duration": 60, "velocity": 96}, {"time": 86160, "pitch": 31, "duration": 240, "velocity": 121}, {"time": 86400, "pitch": 34, "duration": 240, "velocity": 127}, {"time": 86640, "pitch": 36, "duration": 240, "velocity": 121}, {"time": 86880, "pitch": 29, "duration": 170, "velocity": 127}, {"time": 87760, "pitch": 29, "duration": 60, "velocity": 120}, {"time": 87840, "pitch": 31, "duration": 160, "velocity": 113}, {"time": 88000, "pitch": 29, "duration": 60, "velocity": 99}, {"time": 88080, "pitch": 31, "duration": 160, "velocity": 127}, {"time": 88560, "pitch": 31, "duration": 240, "velocity": 122}, {"time": 88800, "pitch": 36, "duration": 130, "velocity": 114}, {"time": 89040, "pitch": 36, "duration": 160, "velocity": 127}, {"time": 89280, "pitch": 36, "duration": 130, "velocity": 114}, {"time": 98400, "pitch": 32, "duration": 170, "velocity": 124}, {"time": 99280, "pitch": 32, "duration": 60, "velocity": 105}, {"time": 99520, "pitch": 32, "duration": 60, "velocity": 100}, {"time": 99600, "pitch": 31, "duration": 240, "velocity": 127}, {"time": 99840, "pitch": 32, "duration": 240, "velocity": 126}, {"time": 100080, "pitch": 34, "duration": 240, "velocity": 125}, {"time": 100320, "pitch": 36, "duration": 110, "velocity": 121}, {"time": 101200, "pitch": 36, "duration": 60, "velocity": 103}, {"time": 101440, "pitch": 36, "duration": 60, "velocity": 98}, {"time": 101520, "pitch": 31, "duration": 240, "velocity": 125}, {"time": 101760, "pitch": 34, "duration": 240, "velocity": 121}, {"time": 102000, "pitch": 36, "duration": 240, "velocity": 127}, {"time": 102240, "pitch": 32, "duration": 170, "velocity": 123}, {"time": 103120, "pitch": 32, "duration": 60, "velocity": 101}, {"time": 103360, "pitch": 32, "duration": 60, "velocity": 105}, {"time": 103440, "pitch": 31, "duration": 240, "velocity": 127}, {"time": 103680, "pitch": 32, "duration": 240, "velocity": 125}, {"time": 103920, "pitch": 34, "duration": 240, "velocity": 122}, {"time": 104160, "pitch": 36, "duration": 110, "velocity": 124}, {"time": 104400, "pitch": 36, "duration": 110, "velocity": 126}, {"time": 104640, "pitch": 36, "duration": 150, "velocity": 126}, {"time": 106080, "pitch": 27, "duration": 170, "velocity": 127}, {"time": 106960, "pitch": 27, "duration": 60, "velocity": 102}, {"time": 107200, "pitch": 27, "duration": 60, "velocity": 96}, {"time": 107280, "pitch": 31, "duration": 240, "velocity": 122}, {"time": 107520, "pitch": 32, "duration": 240, "velocity": 122}, {"time": 107760, "pitch": 34, "duration": 240, "velocity": 127}, {"time": 108000, "pitch": 32, "duration": 170, "velocity": 122}, {"time": 108880, "pitch": 32, "duration": 60, "velocity": 104}, {"time": 109120, "pitch": 27, "duration": 60, "velocity": 96}, {"time": 109200, "pitch": 31, "duration": 240, "velocity": 122}, {"time": 109440, "pitch": 32, "duration": 240, "velocity": 122}, {"time": 109680, "pitch": 34, "duration": 240, "velocity": 127}, {"time": 109920, "pitch": 32, "duration": 170, "velocity": 122}, {"time": 110800, "pitch": 32, "duration": 60, "velocity": 104}, {"time": 111040, "pitch": 32, "duration": 60, "velocity": 100}, {"time": 111120, "pitch": 31, "duration": 240, "velocity": 124}, {"time": 111360, "pitch": 32, "duration": 240, "velocity": 127}, {"time": 111600, "pitch": 36, "duration": 160, "velocity": 124}, {"time": 111760, "pitch": 31, "duration": 60, "velocity": 87}, {"time": 111840, "pitch": 34, "duration": 110, "velocity": 121}, {"time": 112240, "pitch": 34, "duration": 60, "velocity": 99}, {"time": 112320, "pitch": 36, "duration": 480, "velocity": 126}, {"time": 112800, "pitch": 27, "duration": 110, "velocity": 123}, {"time": 113200, "pitch": 27, "duration": 60, "velocity": 127}, {"time": 113440, "pitch": 27, "duration": 60, "velocity": 126}, {"time": 113520, "pitch": 34, "duration": 240, "velocity": 127}, {"time": 113760, "pitch": 32, "duration": 170, "velocity": 124}, {"time": 114640, "pitch": 32, "duration": 60, "velocity": 98}, {"time": 114880, "pitch": 32, "duration": 60, "velocity": 100}, {"time": 114960, "pitch": 31, "duration": 240, "velocity": 123}, {"time": 115200, "pitch": 32, "duration": 240, "velocity": 126}, {"time": 115440, "pitch": 34, "duration": 240, "velocity": 122}, {"time": 115680, "pitch": 24, "duration": 170, "velocity": 127}, {"time": 116560, "pitch": 36, "duration": 60, "velocity": 97}, {"time": 116800, "pitch": 36, "duration": 60, "velocity": 100}, {"time": 116880, "pitch": 31, "duration": 240, "velocity": 127}, {"time": 117120, "pitch": 34, "duration": 240, "velocity": 122}, {"time": 117360, "pitch": 36, "duration": 240, "velocity": 126}, {"time": 117600, "pitch": 32, "duration": 170, "velocity": 124}, {"time": 118480, "pitch": 32, "duration": 60, "velocity": 104}, {"time": 118720, "pitch": 32, "duration": 60, "velocity": 104}, {"time": 118800, "pitch": 31, "duration": 240, "velocity": 127}, {"time": 119040, "pitch": 32, "duration": 240, "velocity": 126}, {"time": 119280, "pitch": 36, "duration": 160, "velocity": 123}, {"time": 119440, "pitch": 31, "duration": 60, "velocity": 88}, {"time": 119520, "pitch": 34, "duration": 110, "velocity": 127}, {"time": 119920, "pitch": 34, "duration": 60, "velocity": 96}, {"time": 120000, "pitch": 36, "duration": 480, "velocity": 123}, {"time": 120480, "pitch": 27, "duration": 110, "velocity": 127}, {"time": 120880, "pitch": 27, "duration": 60, "velocity": 121}, {"time": 121120, "pitch": 27, "duration": 60, "velocity": 120}, {"time": 121200, "pitch": 34, "duration": 240, "velocity": 122}, {"time": 121440, "pitch": 32, "duration": 170, "velocity": 124}, {"time": 122320, "pitch": 32, "duration": 60, "velocity": 102}, {"time": 122560, "pitch": 32, "duration": 60, "velocity": 104}, {"time": 122640, "pitch": 31, "duration": 240, "velocity": 122}, {"time": 122880, "pitch": 32, "duration": 240, "velocity": 121}, {"time": 123120, "pitch": 34, "duration": 160, "velocity": 120}, {"time": 123280, "pitch": 34, "duration": 60, "velocity": 85}, {"time": 123360, "pitch": 36, "duration": 170, "velocity": 127}, {"time": 124240, "pitch": 36, "duration": 60, "velocity": 103}, {"time": 124480, "pitch": 36, "duration": 60, "velocity": 96}, {"time": 124560, "pitch": 31, "duration": 240, "velocity": 121}, {"time": 124800, "pitch": 34, "duration": 240, "velocity": 127}, {"time": 125040, "pitch": 36, "duration": 240, "velocity": 121}, {"time": 125280, "pitch": 29, "duration": 170, "velocity": 127}, {"time": 126160, "pitch": 29, "duration": 60, "velocity": 120}, {"time": 126240, "pitch": 31, "duration": 160, "velocity": 113}, {"time": 126400, "pitch": 29, "duration": 60, "velocity": 99}, {"time": 126480, "pitch": 31, "duration": 160, "velocity": 127}, {"time": 126960, "pitch": 31, "duration": 240, "velocity": 122}, {"time": 127200, "pitch": 36, "duration": 110, "velocity": 124}, {"time": 127440, "pitch": 36, "duration": 110, "velocity": 126}, {"time": 127680, "pitch": 36, "duration": 150, "velocity": 126}, {"time": 127920, "pitch": 36, "duration": 150, "velocity": 126}, {"time": 129120, "pitch": 27, "duration": 170, "velocity": 127}, {"time": 130000, "pitch": 27, "duration": 60, "velocity": 102}, {"time": 130240, "pitch": 27, "duration": 60, "velocity": 96}, {"time": 130320, "pitch": 31, "duration": 240, "velocity": 122}, {"time": 130560, "pitch": 32, "duration": 240, "velocity": 122}, {"time": 130800, "pitch": 34, "duration": 240, "velocity": 127}, {"time": 131040, "pitch": 32, "duration": 170, "velocity": 122}, {"time": 131920, "pitch": 32, "duration": 60, "velocity": 104}, {"time": 132160, "pitch": 27, "duration": 60, "velocity": 96}, {"time": 132240, "pitch": 31, "duration": 240, "velocity": 122}, {"time": 132480, "pitch": 32, "duration": 240, "velocity": 122}, {"time": 132720, "pitch": 34, "duration": 240, "velocity": 127}, {"time": 132960, "pitch": 32, "duration": 170, "velocity": 122}, {"time": 133840, "pitch": 32, "duration": 60, "velocity": 104}, {"time": 134080, "pitch": 32, "duration": 60, "velocity": 100}, {"time": 134160, "pitch": 31, "duration": 240, "velocity": 124}, {"time": 134400, "pitch": 32, "duration": 240, "velocity": 127}, {"time": 134640, "pitch": 36, "duration": 160, "velocity": 124}, {"time": 134800, "pitch": 31, "duration": 60, "velocity": 87}, {"time": 134880, "pitch": 34, "duration": 110, "velocity": 121}, {"time": 135280, "pitch": 34, "duration": 60, "velocity": 99}, {"time": 135360, "pitch": 36, "duration": 480, "velocity": 126}, {"time": 135840, "pitch": 27, "duration": 110, "velocity": 123}, {"time": 136240, "pitch": 27, "duration": 60, "velocity": 127}, {"time": 136480, "pitch": 27, "duration": 60, "velocity": 126}, {"time": 136560, "pitch": 34, "duration": 240, "velocity": 127}, {"time": 136800, "pitch": 32, "duration": 170, "velocity": 124}, {"time": 137680, "pitch": 32, "duration": 60, "velocity": 100}, {"time": 137920, "pitch": 32, "duration": 60, "velocity": 102}, {"time": 138000, "pitch": 31, "duration": 240, "velocity": 125}, {"time": 138240, "pitch": 32, "duration": 240, "velocity": 124}, {"time": 138480, "pitch": 34, "duration": 240, "velocity": 127}, {"time": 138720, "pitch": 24, "duration": 170, "velocity": 125}, {"time": 139600, "pitch": 36, "duration": 60, "velocity": 100}, {"time": 139840, "pitch": 36, "duration": 60, "velocity": 97}, {"time": 139920, "pitch": 31, "duration": 240, "velocity": 127}, {"time": 140160, "pitch": 34, "duration": 240, "velocity": 127}, {"time": 140400, "pitch": 36, "duration": 240, "velocity": 121}, {"time": 140640, "pitch": 32, "duration": 170, "velocity": 124}, {"time": 141520, "pitch": 32, "duration": 60, "velocity": 100}, {"time": 141760, "pitch": 32, "duration": 60, "velocity": 102}, {"time": 141840, "pitch": 31, "duration": 240, "velocity": 125}, {"time": 142080, "pitch": 32, "duration": 240, "velocity": 124}, {"time": 142320, "pitch": 34, "duration": 240, "velocity": 127}, {"time": 142560, "pitch": 24, "duration": 170, "velocity": 125}, {"time": 143440, "pitch": 36, "duration": 60, "velocity": 100}, {"time": 143680, "pitch": 36, "duration": 60, "velocity": 97}, {"time": 143760, "pitch": 31, "duration": 240, "velocity": 127}, {"time": 144000, "pitch": 34, "duration": 240, "velocity": 127}, {"time": 144240, "pitch": 36, "duration": 240, "velocity": 121}, {"time": 144480, "pitch": 27, "duration": 170, "velocity": 127}, {"time": 145360, "pitch": 27, "duration": 60, "velocity": 102}, {"time": 145600, "pitch": 27, "duration": 60, "velocity": 96}, {"time": 145680, "pitch": 31, "duration": 240, "velocity": 122}, {"time": 145920, "pitch": 32, "duration": 240, "velocity": 122}, {"time": 146160, "pitch": 34, "duration": 240, "velocity": 127}, {"time": 146400, "pitch": 32, "duration": 170, "velocity": 122}, {"time": 147280, "pitch": 32, "duration": 60, "velocity": 104}, {"time": 147520, "pitch": 27, "duration": 60, "velocity": 96}, {"time": 147600, "pitch": 31, "duration": 240, "velocity": 122}, {"time": 147840, "pitch": 32, "duration": 240, "velocity": 122}, {"time": 148080, "pitch": 34, "duration": 240, "velocity": 127}, {"time": 148320, "pitch": 32, "duration": 170, "velocity": 122}, {"time": 149200, "pitch": 32, "duration": 60, "velocity": 104}, {"time": 149440, "pitch": 32, "duration": 60, "velocity": 100}, {"time": 149520, "pitch": 31, "duration": 240, "velocity": 124}, {"time": 149760, "pitch": 32, "duration": 240, "velocity": 127}, {"time": 150000, "pitch": 36, "duration": 160, "velocity": 124}, {"time": 150160, "pitch": 31, "duration": 60, "velocity": 87}, {"time": 150240, "pitch": 34, "duration": 110, "velocity": 121}, {"time": 150640, "pitch": 34, "duration": 60, "velocity": 99}, {"time": 150720, "pitch": 36, "duration": 480, "velocity": 126}, {"time": 151200, "pitch": 27, "duration": 110, "velocity": 123}, {"time": 151600, "pitch": 27, "duration": 60, "velocity": 127}, {"time": 151840, "pitch": 27, "duration": 60, "velocity": 126}, {"time": 151920, "pitch": 34, "duration": 240, "velocity": 127}, {"time": 152160, "pitch": 29, "duration": 170, "velocity": 127}, {"time": 153040, "pitch": 29, "duration": 60, "velocity": 123}, {"time": 153120, "pitch": 31, "duration": 160, "velocity": 108}, {"time": 153280, "pitch": 29, "duration": 60, "velocity": 104}, {"time": 153360, "pitch": 31, "duration": 160, "velocity": 123}, {"time": 153840, "pitch": 31, "duration": 240, "velocity": 121}, {"time": 154080, "pitch": 32, "duration": 110, "velocity": 124}, {"time": 154320, "pitch": 32, "duration": 200, "velocity": 120}, {"time": 154560, "pitch": 31, "duration": 160, "velocity": 123}, {"time": 154800, "pitch": 29, "duration": 200, "velocity": 122}, {"time": 155040, "pitch": 34, "duration": 150, "velocity": 123}, {"time": 155520, "pitch": 46, "duration": 460, "velocity": 127}, {"time": 156000, "pitch": 36, "duration": 110, "velocity": 124}, {"time": 156240, "pitch": 36, "duration": 110, "velocity": 126}, {"time": 156480, "pitch": 36, "duration": 150, "velocity": 126}, {"time": 164880, "pitch": 27, "duration": 710, "velocity": 127}, {"time": 165600, "pitch": 32, "duration": 170, "velocity": 124}, {"time": 166480, "pitch": 32, "duration": 60, "velocity": 105}, {"time": 166720, "pitch": 32, "duration": 60, "velocity": 100}, {"time": 166800, "pitch": 31, "duration": 240, "velocity": 127}, {"time": 167040, "pitch": 32, "duration": 240, "velocity": 126}, {"time": 167280, "pitch": 34, "duration": 240, "velocity": 125}, {"time": 167520, "pitch": 36, "duration": 110, "velocity": 121}, {"time": 168400, "pitch": 36, "duration": 60, "velocity": 103}, {"time": 168640, "pitch": 36, "duration": 60, "velocity": 98}, {"time": 168720, "pitch": 31, "duration": 240, "velocity": 125}, {"time": 168960, "pitch": 34, "duration": 240, "velocity": 121}, {"time": 169200, "pitch": 36, "duration": 240, "velocity": 127}, {"time": 169440, "pitch": 32, "duration": 170, "velocity": 123}, {"time": 170320, "pitch": 32, "duration": 60, "velocity": 101}, {"time": 170560, "pitch": 32, "duration": 60, "velocity": 105}, {"time": 170640, "pitch": 31, "duration": 240, "velocity": 127}, {"time": 170880, "pitch": 32, "duration": 240, "velocity": 125}, {"time": 171120, "pitch": 34, "duration": 240, "velocity": 122}, {"time": 171360, "pitch": 36, "duration": 130, "velocity": 114}, {"time": 171600, "pitch": 36, "duration": 160, "velocity": 127}, {"time": 173280, "pitch": 36, "duration": 110, "velocity": 124}, {"time": 173520, "pitch": 36, "duration": 110, "velocity": 126}, {"time": 173760, "pitch": 36, "duration": 150, "velocity": 126}], "annotations": [{"time": 258, "annotation": {"number": 7, "value": 127}, "group": "control_change"}, {"time": 277, "annotation": {"number": 11, "value": 127}, "group": "control_change"}, {"time": 295, "annotation": {"number": 10, "value": 64}, "group": "control_change"}, {"time": 314, "annotation": {"number": 91, "value": 5}, "group": "control_change"}, {"time": 332, "annotation": {"number": 93, "value": 0}, "group": "control_change"}, {"time": 351, "annotation": {"number": 94, "value": 0}, "group": "control_change"}, {"time": 369, "annotation": {"number": 101, "value": 0}, "group": "control_change"}, {"time": 388, "annotation": {"number": 100, "value": 0}, "group": "control_change"}, {"time": 406, "annotation": {"number": 6, "value": 12}, "group": "control_change"}, {"time": 425, "annotation": {"number": 101, "value": 127}, "group": "control_change"}, {"time": 443, "annotation": {"number": 100, "value": 127}, "group": "control_change"}]}, {"program": 0, "is_drum": false, "name": "BASS 2", "annotations": [{"time": 240, "annotation": {"number": 0, "value": 0}, "group": "control_change"}, {"time": 240, "annotation": {"number": 32, "value": 2}, "group": "control_change"}]}, {"program": 36, "is_drum": false, "name": "BASS 2", "notes": [{"time": 15840, "pitch": 32, "duration": 130, "velocity": 104}, {"time": 16720, "pitch": 32, "duration": 60, "velocity": 124}, {"time": 16960, "pitch": 32, "duration": 60, "velocity": 127}, {"time": 17040, "pitch": 31, "duration": 240, "velocity": 117}, {"time": 17280, "pitch": 32, "duration": 240, "velocity": 109}, {"time": 17520, "pitch": 34, "duration": 240, "velocity": 96}, {"time": 17760, "pitch": 36, "duration": 110, "velocity": 77}, {"time": 18640, "pitch": 36, "duration": 60, "velocity": 115}, {"time": 18880, "pitch": 36, "duration": 60, "velocity": 127}, {"time": 18960, "pitch": 31, "duration": 240, "velocity": 115}, {"time": 19200, "pitch": 34, "duration": 240, "velocity": 109}, {"time": 19440, "pitch": 36, "duration": 240, "velocity": 97}, {"time": 19680, "pitch": 32, "duration": 130, "velocity": 107}, {"time": 20560, "pitch": 32, "duration": 60, "velocity": 117}, {"time": 20800, "pitch": 32, "duration": 60, "velocity": 127}, {"time": 20880, "pitch": 31, "duration": 240, "velocity": 113}, {"time": 21120, "pitch": 32, "duration": 240, "velocity": 110}, {"time": 21360, "pitch": 34, "duration": 240, "velocity": 94}, {"time": 21600, "pitch": 36, "duration": 130, "velocity": 101}, {"time": 21840, "pitch": 36, "duration": 130, "velocity": 124}, {"time": 23520, "pitch": 27, "duration": 130, "velocity": 100}, {"time": 24400, "pitch": 27, "duration": 60, "velocity": 115}, {"time": 24640, "pitch": 27, "duration": 60, "velocity": 127}, {"time": 24720, "pitch": 31, "duration": 240, "velocity": 116}, {"time": 24960, "pitch": 32, "duration": 240, "velocity": 109}, {"time": 25200, "pitch": 34, "duration": 240, "velocity": 89}, {"time": 25440, "pitch": 32, "duration": 130, "velocity": 109}, {"time": 26320, "pitch": 32, "duration": 60, "velocity": 123}, {"time": 26560, "pitch": 27, "duration": 60, "velocity": 127}, {"time": 26640, "pitch": 31, "duration": 240, "velocity": 116}, {"time": 26880, "pitch": 32, "duration": 240, "velocity": 109}, {"time": 27120, "pitch": 34, "duration": 240, "velocity": 89}, {"time": 27360, "pitch": 32, "duration": 130, "velocity": 109}, {"time": 28240, "pitch": 32, "duration": 60, "velocity": 123}, {"time": 28480, "pitch": 32, "duration": 60, "velocity": 127}, {"time": 28560, "pitch": 31, "duration": 240, "velocity": 113}, {"time": 28800, "pitch": 32, "duration": 240, "velocity": 119}, {"time": 29040, "pitch": 36, "duration": 160, "velocity": 92}, {"time": 29200, "pitch": 31, "duration": 60, "velocity": 78}, {"time": 29280, "pitch": 34, "duration": 110, "velocity": 121}, {"time": 29680, "pitch": 34, "duration": 60, "velocity": 127}, {"time": 29760, "pitch": 36, "duration": 480, "velocity": 117}, {"time": 30240, "pitch": 15, "duration": 110, "velocity": 127}, {"time": 30640, "pitch": 15, "duration": 60, "velocity": 127}, {"time": 30880, "pitch": 27, "duration": 60, "velocity": 117}, {"time": 30960, "pitch": 34, "duration": 240, "velocity": 96}, {"time": 31200, "pitch": 32, "duration": 130, "velocity": 106}, {"time": 32080, "pitch": 32, "duration": 60, "velocity": 123}, {"time": 32320, "pitch": 32, "duration": 60, "velocity": 127}, {"time": 32400, "pitch": 31, "duration": 240, "velocity": 113}, {"time": 32640, "pitch": 32, "duration": 240, "velocity": 100}, {"time": 32880, "pitch": 34, "duration": 240, "velocity": 93}, {"time": 33120, "pitch": 36, "duration": 170, "velocity": 111}, {"time": 34000, "pitch": 36, "duration": 60, "velocity": 124}, {"time": 34240, "pitch": 36, "duration": 60, "velocity": 127}, {"time": 34320, "pitch": 31, "duration": 240, "velocity": 110}, {"time": 34560, "pitch": 34, "duration": 240, "velocity": 104}, {"time": 34800, "pitch": 36, "duration": 240, "velocity": 96}, {"time": 35040, "pitch": 32, "duration": 130, "velocity": 101}, {"time": 35920, "pitch": 32, "duration": 60, "velocity": 124}, {"time": 36160, "pitch": 32, "duration": 60, "velocity": 127}, {"time": 36240, "pitch": 31, "duration": 240, "velocity": 118}, {"time": 36480, "pitch": 32, "duration": 240, "velocity": 115}, {"time": 36720, "pitch": 36, "duration": 160, "velocity": 97}, {"time": 36880, "pitch": 31, "duration": 60, "velocity": 73}, {"time": 36960, "pitch": 34, "duration": 110, "velocity": 121}, {"time": 37360, "pitch": 34, "duration": 60, "velocity": 127}, {"time": 37440, "pitch": 36, "duration": 480, "velocity": 110}, {"time": 37920, "pitch": 15, "duration": 110, "velocity": 127}, {"time": 38320, "pitch": 15, "duration": 60, "velocity": 127}, {"time": 38560, "pitch": 27, "duration": 60, "velocity": 117}, {"time": 38640, "pitch": 34, "duration": 240, "velocity": 98}, {"time": 38880, "pitch": 32, "duration": 130, "velocity": 100}, {"time": 39760, "pitch": 32, "duration": 60, "velocity": 123}, {"time": 40000, "pitch": 32, "duration": 60, "velocity": 127}, {"time": 40080, "pitch": 31, "duration": 240, "velocity": 110}, {"time": 40320, "pitch": 32, "duration": 240, "velocity": 103}, {"time": 40560, "pitch": 34, "duration": 160, "velocity": 92}, {"time": 40720, "pitch": 34, "duration": 60, "velocity": 91}, {"time": 40800, "pitch": 36, "duration": 170, "velocity": 114}, {"time": 41680, "pitch": 36, "duration": 60, "velocity": 116}, {"time": 41920, "pitch": 36, "duration": 60, "velocity": 127}, {"time": 42000, "pitch": 31, "duration": 240, "velocity": 118}, {"time": 42240, "pitch": 34, "duration": 240, "velocity": 104}, {"time": 42480, "pitch": 36, "duration": 240, "velocity": 98}, {"time": 42720, "pitch": 29, "duration": 170, "velocity": 113}, {"time": 43600, "pitch": 41, "duration": 60, "velocity": 127}, {"time": 43680, "pitch": 31, "duration": 160, "velocity": 95}, {"time": 43840, "pitch": 29, "duration": 60, "velocity": 91}, {"time": 43920, "pitch": 31, "duration": 160, "velocity": 115}, {"time": 44400, "pitch": 31, "duration": 240, "velocity": 117}, {"time": 44640, "pitch": 36, "duration": 110, "velocity": 118}, {"time": 44880, "pitch": 36, "duration": 110, "velocity": 117}, {"time": 45120, "pitch": 36, "duration": 150, "velocity": 116}, {"time": 46560, "pitch": 27, "duration": 130, "velocity": 100}, {"time": 47440, "pitch": 27, "duration": 60, "velocity": 115}, {"time": 47680, "pitch": 27, "duration": 60, "velocity": 127}, {"time": 47760, "pitch": 31, "duration": 240, "velocity": 116}, {"time": 48000, "pitch": 32, "duration": 240, "velocity": 109}, {"time": 48240, "pitch": 34, "duration": 240, "velocity": 89}, {"time": 48480, "pitch": 32, "duration": 130, "velocity": 109}, {"time": 49360, "pitch": 32, "duration": 60, "velocity": 123}, {"time": 49600, "pitch": 27, "duration": 60, "velocity": 127}, {"time": 49680, "pitch": 31, "duration": 240, "velocity": 116}, {"time": 49920, "pitch": 32, "duration": 240, "velocity": 109}, {"time": 50160, "pitch": 34, "duration": 240, "velocity": 89}, {"time": 50400, "pitch": 32, "duration": 130, "velocity": 109}, {"time": 51280, "pitch": 32, "duration": 60, "velocity": 123}, {"time": 51520, "pitch": 32, "duration": 60, "velocity": 127}, {"time": 51600, "pitch": 31, "duration": 240, "velocity": 113}, {"time": 51840, "pitch": 32, "duration": 240, "velocity": 119}, {"time": 52080, "pitch": 36, "duration": 160, "velocity": 92}, {"time": 52240, "pitch": 31, "duration": 60, "velocity": 78}, {"time": 52320, "pitch": 34, "duration": 110, "velocity": 121}, {"time": 52720, "pitch": 34, "duration": 60, "velocity": 127}, {"time": 52800, "pitch": 36, "duration": 480, "velocity": 117}, {"time": 53280, "pitch": 15, "duration": 110, "velocity": 127}, {"time": 53680, "pitch": 15, "duration": 60, "velocity": 127}, {"time": 53920, "pitch": 27, "duration": 60, "velocity": 117}, {"time": 54000, "pitch": 34, "duration": 240, "velocity": 96}, {"time": 54240, "pitch": 32, "duration": 130, "velocity": 106}, {"time": 55120, "pitch": 32, "duration": 60, "velocity": 116}, {"time": 55360, "pitch": 32, "duration": 60, "velocity": 127}, {"time": 55440, "pitch": 31, "duration": 240, "velocity": 110}, {"time": 55680, "pitch": 32, "duration": 240, "velocity": 101}, {"time": 55920, "pitch": 34, "duration": 240, "velocity": 93}, {"time": 56160, "pitch": 36, "duration": 170, "velocity": 76}, {"time": 57040, "pitch": 36, "duration": 60, "velocity": 120}, {"time": 57280, "pitch": 36, "duration": 60, "velocity": 127}, {"time": 57360, "pitch": 31, "duration": 240, "velocity": 111}, {"time": 57600, "pitch": 34, "duration": 240, "velocity": 108}, {"time": 57840, "pitch": 36, "duration": 240, "velocity": 89}, {"time": 58080, "pitch": 32, "duration": 130, "velocity": 106}, {"time": 58960, "pitch": 32, "duration": 60, "velocity": 116}, {"time": 59200, "pitch": 32, "duration": 60, "velocity": 127}, {"time": 59280, "pitch": 31, "duration": 240, "velocity": 110}, {"time": 59520, "pitch": 32, "duration": 240, "velocity": 101}, {"time": 59760, "pitch": 34, "duration": 240, "velocity": 93}, {"time": 60000, "pitch": 36, "duration": 170, "velocity": 76}, {"time": 60880, "pitch": 36, "duration": 60, "velocity": 120}, {"time": 61120, "pitch": 36, "duration": 60, "velocity": 127}, {"time": 61200, "pitch": 31, "duration": 240, "velocity": 111}, {"time": 61440, "pitch": 34, "duration": 240, "velocity": 108}, {"time": 61680, "pitch": 36, "duration": 240, "velocity": 89}, {"time": 61920, "pitch": 27, "duration": 130, "velocity": 100}, {"time": 62800, "pitch": 27, "duration": 60, "velocity": 115}, {"time": 63040, "pitch": 27, "duration": 60, "velocity": 127}, {"time": 63120, "pitch": 31, "duration": 240, "velocity": 116}, {"time": 63360, "pitch": 32, "duration": 240, "velocity": 109}, {"time": 63600, "pitch": 34, "duration": 240, "velocity": 89}, {"time": 63840, "pitch": 32, "duration": 130, "velocity": 109}, {"time": 64720, "pitch": 32, "duration": 60, "velocity": 123}, {"time": 64960, "pitch": 27, "duration": 60, "velocity": 127}, {"time": 65040, "pitch": 31, "duration": 240, "velocity": 116}, {"time": 65280, "pitch": 32, "duration": 240, "velocity": 109}, {"time": 65520, "pitch": 34, "duration": 240, "velocity": 89}, {"time": 65760, "pitch": 32, "duration": 130, "velocity": 109}, {"time": 66640, "pitch": 32, "duration": 60, "velocity": 123}, {"time": 66880, "pitch": 32, "duration": 60, "velocity": 127}, {"time": 66960, "pitch": 31, "duration": 240, "velocity": 113}, {"time": 67200, "pitch": 32, "duration": 240, "velocity": 119}, {"time": 67440, "pitch": 36, "duration": 160, "velocity": 92}, {"time": 67600, "pitch": 31, "duration": 60, "velocity": 78}, {"time": 67680, "pitch": 34, "duration": 110, "velocity": 121}, {"time": 68080, "pitch": 34, "duration": 60, "velocity": 127}, {"time": 68160, "pitch": 36, "duration": 480, "velocity": 117}, {"time": 68640, "pitch": 15, "duration": 110, "velocity": 127}, {"time": 69040, "pitch": 15, "duration": 60, "velocity": 127}, {"time": 69280, "pitch": 27, "duration": 60, "velocity": 117}, {"time": 69360, "pitch": 34, "duration": 240, "velocity": 96}, {"time": 69600, "pitch": 29, "duration": 170, "velocity": 113}, {"time": 70480, "pitch": 41, "duration": 60, "velocity": 127}, {"time": 70560, "pitch": 31, "duration": 160, "velocity": 104}, {"time": 70720, "pitch": 29, "duration": 60, "velocity": 95}, {"time": 70800, "pitch": 31, "duration": 160, "velocity": 116}, {"time": 71280, "pitch": 31, "duration": 240, "velocity": 113}, {"time": 71520, "pitch": 32, "duration": 110, "velocity": 110}, {"time": 71760, "pitch": 32, "duration": 200, "velocity": 111}, {"time": 72000, "pitch": 31, "duration": 160, "velocity": 118}, {"time": 72240, "pitch": 29, "duration": 200, "velocity": 111}, {"time": 72480, "pitch": 34, "duration": 150, "velocity": 117}, {"time": 73440, "pitch": 36, "duration": 130, "velocity": 101}, {"time": 73680, "pitch": 36, "duration": 130, "velocity": 124}, {"time": 73920, "pitch": 36, "duration": 130, "velocity": 101}, {"time": 75360, "pitch": 32, "duration": 130, "velocity": 106}, {"time": 76240, "pitch": 32, "duration": 60, "velocity": 123}, {"time": 76480, "pitch": 32, "duration": 60, "velocity": 127}, {"time": 76560, "pitch": 31, "duration": 240, "velocity": 113}, {"time": 76800, "pitch": 32, "duration": 240, "velocity": 100}, {"time": 77040, "pitch": 34, "duration": 240, "velocity": 93}, {"time": 77280, "pitch": 36, "duration": 170, "velocity": 111}, {"time": 78160, "pitch": 36, "duration": 60, "velocity": 124}, {"time": 78400, "pitch": 36, "duration": 60, "velocity": 127}, {"time": 78480, "pitch": 31, "duration": 240, "velocity": 110}, {"time": 78720, "pitch": 34, "duration": 240, "velocity": 104}, {"time": 78960, "pitch": 36, "duration": 240, "velocity": 96}, {"time": 79200, "pitch": 32, "duration": 130, "velocity": 101}, {"time": 80080, "pitch": 32, "duration": 60, "velocity": 124}, {"time": 80320, "pitch": 32, "duration": 60, "velocity": 127}, {"time": 80400, "pitch": 31, "duration": 240, "velocity": 118}, {"time": 80640, "pitch": 32, "duration": 240, "velocity": 115}, {"time": 80880, "pitch": 36, "duration": 160, "velocity": 97}, {"time": 81040, "pitch": 31, "duration": 60, "velocity": 73}, {"time": 81120, "pitch": 34, "duration": 110, "velocity": 121}, {"time": 81520, "pitch": 34, "duration": 60, "velocity": 127}, {"time": 81600, "pitch": 36, "duration": 480, "velocity": 110}, {"time": 82080, "pitch": 15, "duration": 110, "velocity": 127}, {"time": 82480, "pitch": 15, "duration": 60, "velocity": 127}, {"time": 82720, "pitch": 27, "duration": 60, "velocity": 117}, {"time": 82800, "pitch": 34, "duration": 240, "velocity": 98}, {"time": 83040, "pitch": 32, "duration": 130, "velocity": 100}, {"time": 83920, "pitch": 32, "duration": 60, "velocity": 123}, {"time": 84160, "pitch": 32, "duration": 60, "velocity": 127}, {"time": 84240, "pitch": 31, "duration": 240, "velocity": 110}, {"time": 84480, "pitch": 32, "duration": 240, "velocity": 103}, {"time": 84720, "pitch": 34, "duration": 160, "velocity": 92}, {"time": 84880, "pitch": 34, "duration": 60, "velocity": 91}, {"time": 84960, "pitch": 36, "duration": 170, "velocity": 114}, {"time": 85840, "pitch": 36, "duration": 60, "velocity": 116}, {"time": 86080, "pitch": 36, "duration": 60, "velocity": 127}, {"time": 86160, "pitch": 31, "duration": 240, "velocity": 118}, {"time": 86400, "pitch": 34, "duration": 240, "velocity": 104}, {"time": 86640, "pitch": 36, "duration": 240, "velocity": 98}, {"time": 86880, "pitch": 29, "duration": 170, "velocity": 113}, {"time": 87760, "pitch": 41, "duration": 60, "velocity": 127}, {"time": 87840, "pitch": 31, "duration": 160, "velocity": 95}, {"time": 88000, "pitch": 29, "duration": 60, "velocity": 91}, {"time": 88080, "pitch": 31, "duration": 160, "velocity": 115}, {"time": 88560, "pitch": 31, "duration": 240, "velocity": 117}, {"time": 88800, "pitch": 36, "duration": 130, "velocity": 101}, {"time": 89040, "pitch": 36, "duration": 130, "velocity": 124}, {"time": 89280, "pitch": 36, "duration": 130, "velocity": 101}, {"time": 98400, "pitch": 32, "duration": 130, "velocity": 104}, {"time": 99280, "pitch": 32, "duration": 60, "velocity": 124}, {"time": 99520, "pitch": 32, "duration": 60, "velocity": 127}, {"time": 99600, "pitch": 31, "duration": 240, "velocity": 117}, {"time": 99840, "pitch": 32, "duration": 240, "velocity": 109}, {"time": 100080, "pitch": 34, "duration": 240, "velocity": 96}, {"time": 100320, "pitch": 36, "duration": 110, "velocity": 77}, {"time": 101200, "pitch": 36, "duration": 60, "velocity": 115}, {"time": 101440, "pitch": 36, "duration": 60, "velocity": 127}, {"time": 101520, "pitch": 31, "duration": 240, "velocity": 115}, {"time": 101760, "pitch": 34, "duration": 240, "velocity": 109}, {"time": 102000, "pitch": 36, "duration": 240, "velocity": 97}, {"time": 102240, "pitch": 32, "duration": 130, "velocity": 107}, {"time": 103120, "pitch": 32, "duration": 60, "velocity": 117}, {"time": 103360, "pitch": 32, "duration": 60, "velocity": 127}, {"time": 103440, "pitch": 31, "duration": 240, "velocity": 113}, {"time": 103680, "pitch": 32, "duration": 240, "velocity": 110}, {"time": 103920, "pitch": 34, "duration": 240, "velocity": 94}, {"time": 104160, "pitch": 36, "duration": 110, "velocity": 118}, {"time": 104400, "pitch": 36, "duration": 110, "velocity": 117}, {"time": 104640, "pitch": 36, "duration": 150, "velocity": 116}, {"time": 106080, "pitch": 27, "duration": 130, "velocity": 100}, {"time": 106960, "pitch": 27, "duration": 60, "velocity": 115}, {"time": 107200, "pitch": 27, "duration": 60, "velocity": 127}, {"time": 107280, "pitch": 31, "duration": 240, "velocity": 116}, {"time": 107520, "pitch": 32, "duration": 240, "velocity": 109}, {"time": 107760, "pitch": 34, "duration": 240, "velocity": 89}, {"time": 108000, "pitch": 32, "duration": 130, "velocity": 109}, {"time": 108880, "pitch": 32, "duration": 60, "velocity": 123}, {"time": 109120, "pitch": 27, "duration": 60, "velocity": 127}, {"time": 109200, "pitch": 31, "duration": 240, "velocity": 116}, {"time": 109440, "pitch": 32, "duration": 240, "velocity": 109}, {"time": 109680, "pitch": 34, "duration": 240, "velocity": 89}, {"time": 109920, "pitch": 32, "duration": 130, "velocity": 109}, {"time": 110800, "pitch": 32, "duration": 60, "velocity": 123}, {"time": 111040, "pitch": 32, "duration": 60, "velocity": 127}, {"time": 111120, "pitch": 31, "duration": 240, "velocity": 113}, {"time": 111360, "pitch": 32, "duration": 240, "velocity": 119}, {"time": 111600, "pitch": 36, "duration": 160, "velocity": 92}, {"time": 111760, "pitch": 31, "duration": 60, "velocity": 78}, {"time": 111840, "pitch": 34, "duration": 110, "velocity": 121}, {"time": 112240, "pitch": 34, "duration": 60, "velocity": 127}, {"time": 112320, "pitch": 36, "duration": 480, "velocity": 117}, {"time": 112800, "pitch": 15, "duration": 110, "velocity": 127}, {"time": 113200, "pitch": 15, "duration": 60, "velocity": 127}, {"time": 113440, "pitch": 27, "duration": 60, "velocity": 117}, {"time": 113520, "pitch": 34, "duration": 240, "velocity": 96}, {"time": 113760, "pitch": 32, "duration": 130, "velocity": 106}, {"time": 114640, "pitch": 32, "duration": 60, "velocity": 123}, {"time": 114880, "pitch": 32, "duration": 60, "velocity": 127}, {"time": 114960, "pitch": 31, "duration": 240, "velocity": 113}, {"time": 115200, "pitch": 32, "duration": 240, "velocity": 100}, {"time": 115440, "pitch": 34, "duration": 240, "velocity": 93}, {"time": 115680, "pitch": 36, "duration": 170, "velocity": 111}, {"time": 116560, "pitch": 36, "duration": 60, "velocity": 124}, {"time": 116800, "pitch": 36, "duration": 60, "velocity": 127}, {"time": 116880, "pitch": 31, "duration": 240, "velocity": 110}, {"time": 117120, "pitch": 34, "duration": 240, "velocity": 104}, {"time": 117360, "pitch": 36, "duration": 240, "velocity": 96}, {"time": 117600, "pitch": 32, "duration": 130, "velocity": 101}, {"time": 118480, "pitch": 32, "duration": 60, "velocity": 124}, {"time": 118720, "pitch": 32, "duration": 60, "velocity": 127}, {"time": 118800, "pitch": 31, "duration": 240, "velocity": 118}, {"time": 119040, "pitch": 32, "duration": 240, "velocity": 115}, {"time": 119280, "pitch": 36, "duration": 160, "velocity": 97}, {"time": 119440, "pitch": 31, "duration": 60, "velocity": 73}, {"time": 119520, "pitch": 34, "duration": 110, "velocity": 121}, {"time": 119920, "pitch": 34, "duration": 60, "velocity": 127}, {"time": 120000, "pitch": 36, "duration": 480, "velocity": 110}, {"time": 120480, "pitch": 15, "duration": 110, "velocity": 127}, {"time": 120880, "pitch": 15, "duration": 60, "velocity": 127}, {"time": 121120, "pitch": 27, "duration": 60, "velocity": 117}, {"time": 121200, "pitch": 34, "duration": 240, "velocity": 98}, {"time": 121440, "pitch": 32, "duration": 130, "velocity": 100}, {"time": 122320, "pitch": 32, "duration": 60, "velocity": 123}, {"time": 122560, "pitch": 32, "duration": 60, "velocity": 127}, {"time": 122640, "pitch": 31, "duration": 240, "velocity": 110}, {"time": 122880, "pitch": 32, "duration": 240, "velocity": 103}, {"time": 123120, "pitch": 34, "duration": 160, "velocity": 92}, {"time": 123280, "pitch": 34, "duration": 60, "velocity": 91}, {"time": 123360, "pitch": 36, "duration": 170, "velocity": 114}, {"time": 124240, "pitch": 36, "duration": 60, "velocity": 116}, {"time": 124480, "pitch": 36, "duration": 60, "velocity": 127}, {"time": 124560, "pitch": 31, "duration": 240, "velocity": 118}, {"time": 124800, "pitch": 34, "duration": 240, "velocity": 104}, {"time": 125040, "pitch": 36, "duration": 240, "velocity": 98}, {"time": 125280, "pitch": 29, "duration": 170, "velocity": 113}, {"time": 126160, "pitch": 41, "duration": 60, "velocity": 127}, {"time": 126240, "pitch": 31, "duration": 160, "velocity": 95}, {"time": 126400, "pitch": 29, "duration": 60, "velocity": 91}, {"time": 126480, "pitch": 31, "duration": 160, "velocity": 115}, {"time": 126960, "pitch": 31, "duration": 240, "velocity": 117}, {"time": 127200, "pitch": 36, "duration": 110, "velocity": 118}, {"time": 127440, "pitch": 36, "duration": 110, "velocity": 117}, {"time": 127680, "pitch": 36, "duration": 150, "velocity": 116}, {"time": 129120, "pitch": 27, "duration": 130, "velocity": 100}, {"time": 130000, "pitch": 27, "duration": 60, "velocity": 115}, {"time": 130240, "pitch": 27, "duration": 60, "velocity": 127}, {"time": 130320, "pitch": 31, "duration": 240, "velocity": 116}, {"time": 130560, "pitch": 32, "duration": 240, "velocity": 109}, {"time": 130800, "pitch": 34, "duration": 240, "velocity": 89}, {"time": 131040, "pitch": 32, "duration": 130, "velocity": 109}, {"time": 131920, "pitch": 32, "duration": 60, "velocity": 123}, {"time": 132160, "pitch": 27, "duration": 60, "velocity": 127}, {"time": 132240, "pitch": 31, "duration": 240, "velocity": 116}, {"time": 132480, "pitch": 32, "duration": 240, "velocity": 109}, {"time": 132720, "pitch": 34, "duration": 240, "velocity": 89}, {"time": 132960, "pitch": 32, "duration": 130, "velocity": 109}, {"time": 133840, "pitch": 32, "duration": 60, "velocity": 123}, {"time": 134080, "pitch": 32, "duration": 60, "velocity": 127}, {"time": 134160, "pitch": 31, "duration": 240, "velocity": 113}, {"time": 134400, "pitch": 32, "duration": 240, "velocity": 119}, {"time": 134640, "pitch": 36, "duration": 160, "velocity": 92}, {"time": 134800, "pitch": 31, "duration": 60, "velocity": 78}, {"time": 134880, "pitch": 34, "duration": 110, "velocity": 121}, {"time": 135280, "pitch": 34, "duration": 60, "velocity": 127}, {"time": 135360, "pitch": 36, "duration": 480, "velocity": 117}, {"time": 135840, "pitch": 15, "duration": 110, "velocity": 127}, {"time": 136240, "pitch": 15, "duration": 60, "velocity": 127}, {"time": 136480, "pitch": 27, "duration": 60, "velocity": 117}, {"time": 136560, "pitch": 34, "duration": 240, "velocity": 96}, {"time": 136800, "pitch": 32, "duration": 130, "velocity": 106}, {"time": 137680, "pitch": 32, "duration": 60, "velocity": 116}, {"time": 137920, "pitch": 32, "duration": 60, "velocity": 127}, {"time": 138000, "pitch": 31, "duration": 240, "velocity": 110}, {"time": 138240, "pitch": 32, "duration": 240, "velocity": 101}, {"time": 138480, "pitch": 34, "duration": 240, "velocity": 93}, {"time": 138720, "pitch": 36, "duration": 170, "velocity": 76}, {"time": 139600, "pitch": 36, "duration": 60, "velocity": 120}, {"time": 139840, "pitch": 36, "duration": 60, "velocity": 127}, {"time": 139920, "pitch": 31, "duration": 240, "velocity": 111}, {"time": 140160, "pitch": 34, "duration": 240, "velocity": 108}, {"time": 140400, "pitch": 36, "duration": 240, "velocity": 89}, {"time": 140640, "pitch": 32, "duration": 130, "velocity": 106}, {"time": 141520, "pitch": 32, "duration": 60, "velocity": 116}, {"time": 141760, "pitch": 32, "duration": 60, "velocity": 127}, {"time": 141840, "pitch": 31, "duration": 240, "velocity": 110}, {"time": 142080, "pitch": 32, "duration": 240, "velocity": 101}, {"time": 142320, "pitch": 34, "duration": 240, "velocity": 93}, {"time": 142560, "pitch": 36, "duration": 170, "velocity": 76}, {"time": 143440, "pitch": 36, "duration": 60, "velocity": 120}, {"time": 143680, "pitch": 36, "duration": 60, "velocity": 127}, {"time": 143760, "pitch": 31, "duration": 240, "velocity": 111}, {"time": 144000, "pitch": 34, "duration": 240, "velocity": 108}, {"time": 144240, "pitch": 36, "duration": 240, "velocity": 89}, {"time": 144480, "pitch": 27, "duration": 130, "velocity": 100}, {"time": 145360, "pitch": 27, "duration": 60, "velocity": 115}, {"time": 145600, "pitch": 27, "duration": 60, "velocity": 127}, {"time": 145680, "pitch": 31, "duration": 240, "velocity": 116}, {"time": 145920, "pitch": 32, "duration": 240, "velocity": 109}, {"time": 146160, "pitch": 34, "duration": 240, "velocity": 89}, {"time": 146400, "pitch": 32, "duration": 130, "velocity": 109}, {"time": 147280, "pitch": 32, "duration": 60, "velocity": 123}, {"time": 147520, "pitch": 27, "duration": 60, "velocity": 127}, {"time": 147600, "pitch": 31, "duration": 240, "velocity": 116}, {"time": 147840, "pitch": 32, "duration": 240, "velocity": 109}, {"time": 148080, "pitch": 34, "duration": 240, "velocity": 89}, {"time": 148320, "pitch": 32, "duration": 130, "velocity": 109}, {"time": 149200, "pitch": 32, "duration": 60, "velocity": 123}, {"time": 149440, "pitch": 32, "duration": 60, "velocity": 127}, {"time": 149520, "pitch": 31, "duration": 240, "velocity": 113}, {"time": 149760, "pitch": 32, "duration": 240, "velocity": 119}, {"time": 150000, "pitch": 36, "duration": 160, "velocity": 92}, {"time": 150160, "pitch": 31, "duration": 60, "velocity": 78}, {"time": 150240, "pitch": 34, "duration": 110, "velocity": 121}, {"time": 150640, "pitch": 34, "duration": 60, "velocity": 127}, {"time": 150720, "pitch": 36, "duration": 480, "velocity": 117}, {"time": 151200, "pitch": 15, "duration": 110, "velocity": 127}, {"time": 151600, "pitch": 15, "duration": 60, "velocity": 127}, {"time": 151840, "pitch": 27, "duration": 60, "velocity": 117}, {"time": 151920, "pitch": 34, "duration": 240, "velocity": 96}, {"time": 152160, "pitch": 29, "duration": 170, "velocity": 113}, {"time": 153040, "pitch": 41, "duration": 60, "velocity": 127}, {"time": 153120, "pitch": 31, "duration": 160, "velocity": 104}, {"time": 153280, "pitch": 29, "duration": 60, "velocity": 95}, {"time": 153360, "pitch": 31, "duration": 160, "velocity": 116}, {"time": 153840, "pitch": 31, "duration": 240, "velocity": 113}, {"time": 154080, "pitch": 32, "duration": 110, "velocity": 110}, {"time": 154320, "pitch": 32, "duration": 200, "velocity": 111}, {"time": 154560, "pitch": 31, "duration": 160, "velocity": 118}, {"time": 154800, "pitch": 29, "duration": 200, "velocity": 111}, {"time": 155040, "pitch": 34, "duration": 150, "velocity": 117}, {"time": 156000, "pitch": 36, "duration": 110, "velocity": 118}, {"time": 156240, "pitch": 36, "duration": 110, "velocity": 117}, {"time": 156480, "pitch": 36, "duration": 150, "velocity": 116}, {"time": 165600, "pitch": 32, "duration": 130, "velocity": 104}, {"time": 166480, "pitch": 32, "duration": 60, "velocity": 124}, {"time": 166720, "pitch": 32, "duration": 60, "velocity": 127}, {"time": 166800, "pitch": 31, "duration": 240, "velocity": 117}, {"time": 167040, "pitch": 32, "duration": 240, "velocity": 109}, {"time": 167280, "pitch": 34, "duration": 240, "velocity": 96}, {"time": 167520, "pitch": 36, "duration": 110, "velocity": 77}, {"time": 168400, "pitch": 36, "duration": 60, "velocity": 115}, {"time": 168640, "pitch": 36, "duration": 60, "velocity": 127}, {"time": 168720, "pitch": 31, "duration": 240, "velocity": 115}, {"time": 168960, "pitch": 34, "duration": 240, "velocity": 109}, {"time": 169200, "pitch": 36, "duration": 240, "velocity": 97}, {"time": 169440, "pitch": 32, "duration": 130, "velocity": 107}, {"time": 170320, "pitch": 32, "duration": 60, "velocity": 117}, {"time": 170560, "pitch": 32, "duration": 60, "velocity": 127}, {"time": 170640, "pitch": 31, "duration": 240, "velocity": 113}, {"time": 170880, "pitch": 32, "duration": 240, "velocity": 110}, {"time": 171120, "pitch": 34, "duration": 240, "velocity": 94}, {"time": 171360, "pitch": 36, "duration": 130, "velocity": 101}, {"time": 171600, "pitch": 36, "duration": 130, "velocity": 124}, {"time": 173280, "pitch": 36, "duration": 110, "velocity": 118}, {"time": 173520, "pitch": 36, "duration": 110, "velocity": 117}, {"time": 173760, "pitch": 36, "duration": 150, "velocity": 116}], "annotations": [{"time": 258, "annotation": {"number": 7, "value": 100}, "group": "control_change"}, {"time": 277, "annotation": {"number": 11, "value": 100}, "group": "control_change"}, {"time": 295, "annotation": {"number": 10, "value": 64}, "group": "control_change"}, {"time": 314, "annotation": {"number": 91, "value": 30}, "group": "control_change"}, {"time": 332, "annotation": {"number": 93, "value": 0}, "group": "control_change"}, {"time": 351, "annotation": {"number": 94, "value": 0}, "group": "control_change"}, {"time": 369, "annotation": {"number": 101, "value": 0}, "group": "control_change"}, {"time": 388, "annotation": {"number": 100, "value": 0}, "group": "control_change"}, {"time": 406, "annotation": {"number": 6, "value": 12}, "group": "control_change"}, {"time": 425, "annotation": {"number": 101, "value": 127}, "group": "control_change"}, {"time": 443, "annotation": {"number": 100, "value": 127}, "group": "control_change"}]}, {"program": 0, "is_drum": false, "name": "MELODY ", "annotations": [{"time": 240, "annotation": {"number": 0, "value": 0}, "group": "control_change"}, {"time": 240, "annotation": {"number": 32, "value": 2}, "group": "control_change"}]}, {"program": 73, "is_drum": false, "name": "MELODY ", "notes": [{"time": 8160, "pitch": 63, "duration": 240, "velocity": 114}, {"time": 8640, "pitch": 60, "duration": 240, "velocity": 114}, {"time": 9120, "pitch": 63, "duration": 240, "velocity": 114}, {"time": 9600, "pitch": 65, "duration": 240, "velocity": 114}, {"time": 10080, "pitch": 62, "duration": 240, "velocity": 114}, {"time": 10560, "pitch": 62, "duration": 480, "velocity": 114}, {"time": 11520, "pitch": 55, "duration": 240, "velocity": 114}, {"time": 11760, "pitch": 62, "duration": 240, "velocity": 114}, {"time": 12000, "pitch": 60, "duration": 1347, "velocity": 114}, {"time": 15840, "pitch": 63, "duration": 240, "velocity": 114}, {"time": 16320, "pitch": 60, "duration": 240, "velocity": 114}, {"time": 16800, "pitch": 63, "duration": 240, "velocity": 114}, {"time": 17280, "pitch": 65, "duration": 240, "velocity": 114}, {"time": 17760, "pitch": 62, "duration": 240, "velocity": 114}, {"time": 18240, "pitch": 62, "duration": 480, "velocity": 114}, {"time": 19200, "pitch": 55, "duration": 240, "velocity": 114}, {"time": 19440, "pitch": 62, "duration": 240, "velocity": 114}, {"time": 19680, "pitch": 60, "duration": 1347, "velocity": 115}, {"time": 23760, "pitch": 63, "duration": 147, "velocity": 127}, {"time": 24000, "pitch": 63, "duration": 221, "velocity": 115}, {"time": 24240, "pitch": 63, "duration": 197, "velocity": 115}, {"time": 24480, "pitch": 63, "duration": 182, "velocity": 115}, {"time": 24720, "pitch": 60, "duration": 221, "velocity": 115}, {"time": 24960, "pitch": 63, "duration": 221, "velocity": 115}, {"time": 25200, "pitch": 65, "duration": 207, "velocity": 127}, {"time": 25440, "pitch": 67, "duration": 161, "velocity": 115}, {"time": 25680, "pitch": 67, "duration": 147, "velocity": 127}, {"time": 25920, "pitch": 65, "duration": 323, "velocity": 115}, {"time": 26400, "pitch": 63, "duration": 221, "velocity": 115}, {"time": 26640, "pitch": 65, "duration": 207, "velocity": 127}, {"time": 27600, "pitch": 67, "duration": 193, "velocity": 122}, {"time": 27840, "pitch": 63, "duration": 193, "velocity": 122}, {"time": 28080, "pitch": 63, "duration": 115, "velocity": 123}, {"time": 28320, "pitch": 63, "duration": 221, "velocity": 115}, {"time": 28560, "pitch": 65, "duration": 207, "velocity": 127}, {"time": 29040, "pitch": 63, "duration": 207, "velocity": 127}, {"time": 29280, "pitch": 68, "duration": 221, "velocity": 115}, {"time": 29520, "pitch": 68, "duration": 221, "velocity": 115}, {"time": 29760, "pitch": 67, "duration": 207, "velocity": 127}, {"time": 30000, "pitch": 67, "duration": 221, "velocity": 115}, {"time": 30240, "pitch": 65, "duration": 101, "velocity": 115}, {"time": 30360, "pitch": 63, "duration": 207, "velocity": 127}, {"time": 30600, "pitch": 63, "duration": 327, "velocity": 127}, {"time": 31200, "pitch": 67, "duration": 161, "velocity": 115}, {"time": 31440, "pitch": 67, "duration": 147, "velocity": 127}, {"time": 31680, "pitch": 65, "duration": 161, "velocity": 115}, {"time": 31920, "pitch": 65, "duration": 147, "velocity": 127}, {"time": 32160, "pitch": 63, "duration": 221, "velocity": 115}, {"time": 32400, "pitch": 65, "duration": 207, "velocity": 127}, {"time": 33120, "pitch": 65, "duration": 161, "velocity": 115}, {"time": 33360, "pitch": 65, "duration": 147, "velocity": 127}, {"time": 33600, "pitch": 63, "duration": 161, "velocity": 115}, {"time": 33840, "pitch": 63, "duration": 147, "velocity": 127}, {"time": 34080, "pitch": 62, "duration": 113, "velocity": 115}, {"time": 34200, "pitch": 62, "duration": 113, "velocity": 115}, {"time": 34320, "pitch": 63, "duration": 207, "velocity": 127}, {"time": 35520, "pitch": 72, "duration": 221, "velocity": 115}, {"time": 36000, "pitch": 67, "duration": 221, "velocity": 115}, {"time": 36240, "pitch": 72, "duration": 207, "velocity": 127}, {"time": 36720, "pitch": 67, "duration": 207, "velocity": 127}, {"time": 36960, "pitch": 68, "duration": 161, "velocity": 115}, {"time": 37200, "pitch": 68, "duration": 147, "velocity": 127}, {"time": 37440, "pitch": 67, "duration": 221, "velocity": 115}, {"time": 37920, "pitch": 65, "duration": 120, "velocity": 115}, {"time": 38040, "pitch": 63, "duration": 80, "velocity": 127}, {"time": 38160, "pitch": 63, "duration": 207, "velocity": 127}, {"time": 38640, "pitch": 63, "duration": 221, "velocity": 115}, {"time": 38880, "pitch": 67, "duration": 161, "velocity": 115}, {"time": 39120, "pitch": 67, "duration": 147, "velocity": 127}, {"time": 39360, "pitch": 65, "duration": 161, "velocity": 115}, {"time": 39600, "pitch": 65, "duration": 147, "velocity": 127}, {"time": 39840, "pitch": 63, "duration": 221, "velocity": 115}, {"time": 40080, "pitch": 65, "duration": 207, "velocity": 127}, {"time": 40560, "pitch": 63, "duration": 207, "velocity": 127}, {"time": 40800, "pitch": 65, "duration": 161, "velocity": 115}, {"time": 41040, "pitch": 65, "duration": 147, "velocity": 127}, {"time": 41280, "pitch": 63, "duration": 221, "velocity": 115}, {"time": 41520, "pitch": 63, "duration": 221, "velocity": 115}, {"time": 41760, "pitch": 62, "duration": 101, "velocity": 115}, {"time": 41880, "pitch": 62, "duration": 101, "velocity": 115}, {"time": 42000, "pitch": 63, "duration": 207, "velocity": 127}, {"time": 42960, "pitch": 63, "duration": 221, "velocity": 115}, {"time": 43200, "pitch": 60, "duration": 221, "velocity": 115}, {"time": 43440, "pitch": 63, "duration": 221, "velocity": 115}, {"time": 43680, "pitch": 63, "duration": 221, "velocity": 115}, {"time": 43920, "pitch": 63, "duration": 221, "velocity": 115}, {"time": 44160, "pitch": 60, "duration": 221, "velocity": 115}, {"time": 44400, "pitch": 63, "duration": 221, "velocity": 115}, {"time": 44640, "pitch": 63, "duration": 161, "velocity": 115}, {"time": 44880, "pitch": 65, "duration": 147, "velocity": 127}, {"time": 45120, "pitch": 67, "duration": 221, "velocity": 115}, {"time": 45360, "pitch": 65, "duration": 221, "velocity": 115}, {"time": 46800, "pitch": 63, "duration": 147, "velocity": 127}, {"time": 47040, "pitch": 63, "duration": 221, "velocity": 115}, {"time": 47280, "pitch": 63, "duration": 161, "velocity": 115}, {"time": 47520, "pitch": 63, "duration": 221, "velocity": 115}, {"time": 47760, "pitch": 60, "duration": 221, "velocity": 115}, {"time": 48000, "pitch": 63, "duration": 221, "velocity": 115}, {"time": 48240, "pitch": 65, "duration": 207, "velocity": 127}, {"time": 48480, "pitch": 67, "duration": 161, "velocity": 115}, {"time": 48720, "pitch": 67, "duration": 147, "velocity": 127}, {"time": 48960, "pitch": 65, "duration": 161, "velocity": 115}, {"time": 49200, "pitch": 65, "duration": 147, "velocity": 127}, {"time": 49440, "pitch": 63, "duration": 221, "velocity": 115}, {"time": 49680, "pitch": 65, "duration": 207, "velocity": 127}, {"time": 50400, "pitch": 67, "duration": 193, "velocity": 122}, {"time": 50640, "pitch": 67, "duration": 193, "velocity": 122}, {"time": 50880, "pitch": 65, "duration": 193, "velocity": 122}, {"time": 51120, "pitch": 65, "duration": 115, "velocity": 123}, {"time": 51360, "pitch": 63, "duration": 101, "velocity": 115}, {"time": 51480, "pitch": 63, "duration": 101, "velocity": 115}, {"time": 51600, "pitch": 65, "duration": 207, "velocity": 127}, {"time": 52080, "pitch": 63, "duration": 221, "velocity": 115}, {"time": 52320, "pitch": 68, "duration": 221, "velocity": 115}, {"time": 52560, "pitch": 68, "duration": 221, "velocity": 115}, {"time": 52800, "pitch": 67, "duration": 327, "velocity": 127}, {"time": 53280, "pitch": 65, "duration": 101, "velocity": 115}, {"time": 53400, "pitch": 63, "duration": 207, "velocity": 127}, {"time": 53640, "pitch": 63, "duration": 327, "velocity": 127}, {"time": 54240, "pitch": 67, "duration": 161, "velocity": 115}, {"time": 54480, "pitch": 67, "duration": 147, "velocity": 127}, {"time": 54720, "pitch": 65, "duration": 101, "velocity": 115}, {"time": 54840, "pitch": 65, "duration": 101, "velocity": 115}, {"time": 54960, "pitch": 65, "duration": 221, "velocity": 115}, {"time": 55200, "pitch": 63, "duration": 221, "velocity": 115}, {"time": 55440, "pitch": 65, "duration": 207, "velocity": 127}, {"time": 55920, "pitch": 63, "duration": 207, "velocity": 127}, {"time": 56160, "pitch": 65, "duration": 161, "velocity": 115}, {"time": 56400, "pitch": 65, "duration": 147, "velocity": 127}, {"time": 56640, "pitch": 63, "duration": 101, "velocity": 115}, {"time": 56760, "pitch": 63, "duration": 101, "velocity": 115}, {"time": 56880, "pitch": 63, "duration": 221, "velocity": 115}, {"time": 57120, "pitch": 62, "duration": 221, "velocity": 115}, {"time": 57360, "pitch": 63, "duration": 207, "velocity": 127}, {"time": 58560, "pitch": 72, "duration": 221, "velocity": 115}, {"time": 59040, "pitch": 67, "duration": 221, "velocity": 115}, {"time": 59280, "pitch": 72, "duration": 207, "velocity": 127}, {"time": 59760, "pitch": 67, "duration": 207, "velocity": 127}, {"time": 60000, "pitch": 70, "duration": 161, "velocity": 115}, {"time": 60240, "pitch": 70, "duration": 147, "velocity": 127}, {"time": 60480, "pitch": 70, "duration": 221, "velocity": 115}, {"time": 60720, "pitch": 70, "duration": 221, "velocity": 115}, {"time": 60960, "pitch": 67, "duration": 221, "velocity": 115}, {"time": 61200, "pitch": 65, "duration": 207, "velocity": 127}, {"time": 61920, "pitch": 70, "duration": 119, "velocity": 115}, {"time": 62040, "pitch": 70, "duration": 119, "velocity": 115}, {"time": 62160, "pitch": 70, "duration": 119, "velocity": 115}, {"time": 62280, "pitch": 67, "duration": 119, "velocity": 115}, {"time": 62640, "pitch": 67, "duration": 120, "velocity": 118}, {"time": 62760, "pitch": 68, "duration": 91, "velocity": 126}, {"time": 62880, "pitch": 70, "duration": 119, "velocity": 115}, {"time": 63000, "pitch": 70, "duration": 191, "velocity": 115}, {"time": 63240, "pitch": 67, "duration": 119, "velocity": 115}, {"time": 63480, "pitch": 67, "duration": 120, "velocity": 118}, {"time": 63600, "pitch": 67, "duration": 120, "velocity": 118}, {"time": 63720, "pitch": 68, "duration": 91, "velocity": 126}, {"time": 63840, "pitch": 70, "duration": 205, "velocity": 126}, {"time": 64080, "pitch": 70, "duration": 205, "velocity": 126}, {"time": 64320, "pitch": 70, "duration": 205, "velocity": 126}, {"time": 64560, "pitch": 70, "duration": 205, "velocity": 126}, {"time": 64800, "pitch": 70, "duration": 239, "velocity": 115}, {"time": 65040, "pitch": 70, "duration": 239, "velocity": 115}, {"time": 65520, "pitch": 67, "duration": 120, "velocity": 118}, {"time": 65640, "pitch": 68, "duration": 91, "velocity": 126}, {"time": 65760, "pitch": 70, "duration": 1426, "velocity": 126}, {"time": 67680, "pitch": 70, "duration": 138, "velocity": 124}, {"time": 67800, "pitch": 68, "duration": 738, "velocity": 124}, {"time": 68640, "pitch": 68, "duration": 138, "velocity": 124}, {"time": 68760, "pitch": 67, "duration": 200, "velocity": 124}, {"time": 69000, "pitch": 67, "duration": 258, "velocity": 124}, {"time": 69600, "pitch": 68, "duration": 800, "velocity": 127}, {"time": 70560, "pitch": 67, "duration": 452, "velocity": 126}, {"time": 71040, "pitch": 67, "duration": 299, "velocity": 126}, {"time": 71400, "pitch": 67, "duration": 96, "velocity": 126}, {"time": 71520, "pitch": 63, "duration": 130, "velocity": 127}, {"time": 71760, "pitch": 65, "duration": 120, "velocity": 127}, {"time": 72000, "pitch": 67, "duration": 120, "velocity": 127}, {"time": 72240, "pitch": 68, "duration": 110, "velocity": 122}, {"time": 72480, "pitch": 70, "duration": 280, "velocity": 124}, {"time": 98400, "pitch": 63, "duration": 240, "velocity": 114}, {"time": 98880, "pitch": 60, "duration": 240, "velocity": 114}, {"time": 99360, "pitch": 63, "duration": 240, "velocity": 114}, {"time": 99840, "pitch": 65, "duration": 240, "velocity": 114}, {"time": 100320, "pitch": 62, "duration": 240, "velocity": 114}, {"time": 100800, "pitch": 62, "duration": 480, "velocity": 114}, {"time": 101760, "pitch": 55, "duration": 240, "velocity": 114}, {"time": 102000, "pitch": 62, "duration": 240, "velocity": 114}, {"time": 102240, "pitch": 60, "duration": 1347, "velocity": 118}, {"time": 106320, "pitch": 63, "duration": 267, "velocity": 127}, {"time": 106800, "pitch": 63, "duration": 197, "velocity": 115}, {"time": 107040, "pitch": 63, "duration": 182, "velocity": 115}, {"time": 107280, "pitch": 60, "duration": 221, "velocity": 115}, {"time": 107520, "pitch": 63, "duration": 221, "velocity": 115}, {"time": 108000, "pitch": 67, "duration": 161, "velocity": 115}, {"time": 108240, "pitch": 67, "duration": 147, "velocity": 127}, {"time": 108480, "pitch": 65, "duration": 161, "velocity": 115}, {"time": 108720, "pitch": 65, "duration": 147, "velocity": 127}, {"time": 108960, "pitch": 63, "duration": 221, "velocity": 115}, {"time": 109200, "pitch": 65, "duration": 207, "velocity": 127}, {"time": 110160, "pitch": 67, "duration": 193, "velocity": 122}, {"time": 110400, "pitch": 63, "duration": 193, "velocity": 122}, {"time": 110640, "pitch": 63, "duration": 115, "velocity": 123}, {"time": 110880, "pitch": 63, "duration": 221, "velocity": 115}, {"time": 111120, "pitch": 65, "duration": 207, "velocity": 127}, {"time": 111600, "pitch": 63, "duration": 207, "velocity": 127}, {"time": 111840, "pitch": 68, "duration": 221, "velocity": 115}, {"time": 112080, "pitch": 68, "duration": 221, "velocity": 115}, {"time": 112320, "pitch": 67, "duration": 327, "velocity": 127}, {"time": 112800, "pitch": 65, "duration": 101, "velocity": 115}, {"time": 112920, "pitch": 63, "duration": 207, "velocity": 127}, {"time": 113160, "pitch": 63, "duration": 327, "velocity": 127}, {"time": 113760, "pitch": 67, "duration": 161, "velocity": 115}, {"time": 114000, "pitch": 67, "duration": 147, "velocity": 127}, {"time": 114240, "pitch": 65, "duration": 161, "velocity": 115}, {"time": 114480, "pitch": 65, "duration": 147, "velocity": 127}, {"time": 114720, "pitch": 63, "duration": 221, "velocity": 115}, {"time": 114960, "pitch": 65, "duration": 207, "velocity": 127}, {"time": 115440, "pitch": 63, "duration": 221, "velocity": 115}, {"time": 115680, "pitch": 65, "duration": 161, "velocity": 115}, {"time": 115920, "pitch": 65, "duration": 147, "velocity": 127}, {"time": 116160, "pitch": 63, "duration": 161, "velocity": 115}, {"time": 116400, "pitch": 63, "duration": 147, "velocity": 127}, {"time": 116640, "pitch": 62, "duration": 113, "velocity": 115}, {"time": 116760, "pitch": 62, "duration": 113, "velocity": 115}, {"time": 116880, "pitch": 63, "duration": 207, "velocity": 127}, {"time": 118080, "pitch": 72, "duration": 221, "velocity": 115}, {"time": 118560, "pitch": 67, "duration": 221, "velocity": 115}, {"time": 118800, "pitch": 72, "duration": 207, "velocity": 127}, {"time": 119280, "pitch": 67, "duration": 207, "velocity": 127}, {"time": 119520, "pitch": 68, "duration": 401, "velocity": 115}, {"time": 120000, "pitch": 67, "duration": 341, "velocity": 115}, {"time": 120480, "pitch": 65, "duration": 221, "velocity": 115}, {"time": 120720, "pitch": 63, "duration": 207, "velocity": 127}, {"time": 121440, "pitch": 67, "duration": 161, "velocity": 115}, {"time": 121680, "pitch": 67, "duration": 147, "velocity": 127}, {"time": 121920, "pitch": 65, "duration": 161, "velocity": 115}, {"time": 122160, "pitch": 65, "duration": 147, "velocity": 127}, {"time": 122400, "pitch": 63, "duration": 221, "velocity": 115}, {"time": 122640, "pitch": 65, "duration": 207, "velocity": 127}, {"time": 123120, "pitch": 63, "duration": 207, "velocity": 127}, {"time": 123360, "pitch": 65, "duration": 161, "velocity": 115}, {"time": 123600, "pitch": 65, "duration": 147, "velocity": 127}, {"time": 123840, "pitch": 63, "duration": 221, "velocity": 115}, {"time": 124080, "pitch": 63, "duration": 221, "velocity": 115}, {"time": 124320, "pitch": 62, "duration": 101, "velocity": 115}, {"time": 124440, "pitch": 62, "duration": 101, "velocity": 115}, {"time": 124560, "pitch": 63, "duration": 207, "velocity": 127}, {"time": 125520, "pitch": 63, "duration": 221, "velocity": 115}, {"time": 125760, "pitch": 60, "duration": 221, "velocity": 115}, {"time": 126000, "pitch": 63, "duration": 221, "velocity": 115}, {"time": 126240, "pitch": 63, "duration": 221, "velocity": 115}, {"time": 126480, "pitch": 63, "duration": 221, "velocity": 115}, {"time": 126720, "pitch": 60, "duration": 221, "velocity": 115}, {"time": 126960, "pitch": 63, "duration": 221, "velocity": 115}, {"time": 127200, "pitch": 63, "duration": 161, "velocity": 115}, {"time": 127440, "pitch": 65, "duration": 147, "velocity": 127}, {"time": 127680, "pitch": 67, "duration": 221, "velocity": 115}, {"time": 127920, "pitch": 65, "duration": 221, "velocity": 115}, {"time": 129360, "pitch": 63, "duration": 147, "velocity": 127}, {"time": 129600, "pitch": 63, "duration": 221, "velocity": 115}, {"time": 129840, "pitch": 63, "duration": 161, "velocity": 115}, {"time": 130080, "pitch": 63, "duration": 221, "velocity": 115}, {"time": 130320, "pitch": 60, "duration": 221, "velocity": 115}, {"time": 130560, "pitch": 63, "duration": 221, "velocity": 115}, {"time": 131040, "pitch": 67, "duration": 161, "velocity": 115}, {"time": 131280, "pitch": 67, "duration": 147, "velocity": 127}, {"time": 131520, "pitch": 65, "duration": 161, "velocity": 115}, {"time": 131760, "pitch": 65, "duration": 147, "velocity": 127}, {"time": 132000, "pitch": 63, "duration": 101, "velocity": 115}, {"time": 132120, "pitch": 63, "duration": 101, "velocity": 115}, {"time": 132240, "pitch": 65, "duration": 207, "velocity": 127}, {"time": 132960, "pitch": 67, "duration": 193, "velocity": 122}, {"time": 133200, "pitch": 67, "duration": 193, "velocity": 122}, {"time": 133440, "pitch": 65, "duration": 101, "velocity": 115}, {"time": 133560, "pitch": 65, "duration": 101, "velocity": 115}, {"time": 133680, "pitch": 65, "duration": 203, "velocity": 123}, {"time": 133920, "pitch": 63, "duration": 299, "velocity": 115}, {"time": 134160, "pitch": 65, "duration": 207, "velocity": 127}, {"time": 134640, "pitch": 63, "duration": 221, "velocity": 115}, {"time": 134880, "pitch": 68, "duration": 221, "velocity": 115}, {"time": 135120, "pitch": 68, "duration": 221, "velocity": 115}, {"time": 135360, "pitch": 67, "duration": 327, "velocity": 127}, {"time": 135840, "pitch": 65, "duration": 101, "velocity": 115}, {"time": 135960, "pitch": 63, "duration": 207, "velocity": 127}, {"time": 136200, "pitch": 63, "duration": 327, "velocity": 127}, {"time": 136800, "pitch": 67, "duration": 161, "velocity": 115}, {"time": 137040, "pitch": 67, "duration": 147, "velocity": 127}, {"time": 137280, "pitch": 65, "duration": 101, "velocity": 115}, {"time": 137400, "pitch": 65, "duration": 101, "velocity": 115}, {"time": 137520, "pitch": 65, "duration": 221, "velocity": 115}, {"time": 137760, "pitch": 63, "duration": 101, "velocity": 115}, {"time": 137880, "pitch": 63, "duration": 101, "velocity": 115}, {"time": 138000, "pitch": 65, "duration": 207, "velocity": 127}, {"time": 138480, "pitch": 63, "duration": 207, "velocity": 127}, {"time": 138720, "pitch": 65, "duration": 161, "velocity": 115}, {"time": 138960, "pitch": 65, "duration": 147, "velocity": 127}, {"time": 139200, "pitch": 63, "duration": 221, "velocity": 115}, {"time": 139440, "pitch": 63, "duration": 221, "velocity": 115}, {"time": 139680, "pitch": 62, "duration": 101, "velocity": 115}, {"time": 139800, "pitch": 62, "duration": 101, "velocity": 115}, {"time": 139920, "pitch": 63, "duration": 207, "velocity": 127}, {"time": 141120, "pitch": 72, "duration": 221, "velocity": 115}, {"time": 141600, "pitch": 67, "duration": 221, "velocity": 115}, {"time": 141840, "pitch": 72, "duration": 207, "velocity": 127}, {"time": 142320, "pitch": 67, "duration": 207, "velocity": 127}, {"time": 142560, "pitch": 70, "duration": 161, "velocity": 115}, {"time": 142800, "pitch": 70, "duration": 147, "velocity": 127}, {"time": 143040, "pitch": 70, "duration": 221, "velocity": 115}, {"time": 143280, "pitch": 70, "duration": 221, "velocity": 115}, {"time": 143520, "pitch": 67, "duration": 221, "velocity": 115}, {"time": 143760, "pitch": 65, "duration": 207, "velocity": 127}, {"time": 144480, "pitch": 70, "duration": 119, "velocity": 115}, {"time": 144600, "pitch": 70, "duration": 119, "velocity": 115}, {"time": 144720, "pitch": 70, "duration": 119, "velocity": 115}, {"time": 144840, "pitch": 67, "duration": 119, "velocity": 115}, {"time": 145200, "pitch": 67, "duration": 120, "velocity": 118}, {"time": 145320, "pitch": 68, "duration": 91, "velocity": 126}, {"time": 145440, "pitch": 70, "duration": 119, "velocity": 115}, {"time": 145560, "pitch": 70, "duration": 191, "velocity": 115}, {"time": 145800, "pitch": 67, "duration": 119, "velocity": 115}, {"time": 146040, "pitch": 67, "duration": 120, "velocity": 118}, {"time": 146160, "pitch": 67, "duration": 120, "velocity": 118}, {"time": 146280, "pitch": 68, "duration": 91, "velocity": 126}, {"time": 146400, "pitch": 70, "duration": 205, "velocity": 126}, {"time": 146640, "pitch": 70, "duration": 205, "velocity": 126}, {"time": 146880, "pitch": 70, "duration": 205, "velocity": 126}, {"time": 147120, "pitch": 70, "duration": 205, "velocity": 126}, {"time": 147360, "pitch": 70, "duration": 239, "velocity": 115}, {"time": 147600, "pitch": 70, "duration": 239, "velocity": 115}, {"time": 148080, "pitch": 67, "duration": 120, "velocity": 118}, {"time": 148200, "pitch": 68, "duration": 91, "velocity": 126}, {"time": 148320, "pitch": 70, "duration": 1426, "velocity": 126}, {"time": 150240, "pitch": 70, "duration": 138, "velocity": 124}, {"time": 150360, "pitch": 68, "duration": 738, "velocity": 124}, {"time": 151200, "pitch": 68, "duration": 138, "velocity": 124}, {"time": 151320, "pitch": 67, "duration": 200, "velocity": 124}, {"time": 151560, "pitch": 67, "duration": 258, "velocity": 124}, {"time": 152160, "pitch": 68, "duration": 800, "velocity": 127}, {"time": 153120, "pitch": 67, "duration": 452, "velocity": 126}, {"time": 153600, "pitch": 67, "duration": 299, "velocity": 126}, {"time": 153960, "pitch": 67, "duration": 96, "velocity": 126}, {"time": 154080, "pitch": 63, "duration": 130, "velocity": 127}, {"time": 154320, "pitch": 65, "duration": 120, "velocity": 127}, {"time": 154560, "pitch": 67, "duration": 120, "velocity": 127}, {"time": 154800, "pitch": 68, "duration": 110, "velocity": 122}, {"time": 155040, "pitch": 70, "duration": 280, "velocity": 124}, {"time": 157920, "pitch": 63, "duration": 240, "velocity": 114}, {"time": 158400, "pitch": 60, "duration": 240, "velocity": 114}, {"time": 158880, "pitch": 63, "duration": 240, "velocity": 114}, {"time": 159360, "pitch": 65, "duration": 240, "velocity": 114}, {"time": 159840, "pitch": 62, "duration": 240, "velocity": 114}, {"time": 160320, "pitch": 62, "duration": 480, "velocity": 114}, {"time": 161280, "pitch": 55, "duration": 240, "velocity": 114}, {"time": 161520, "pitch": 62, "duration": 240, "velocity": 114}, {"time": 161760, "pitch": 60, "duration": 1347, "velocity": 118}, {"time": 165600, "pitch": 63, "duration": 240, "velocity": 114}, {"time": 166080, "pitch": 60, "duration": 240, "velocity": 114}, {"time": 166560, "pitch": 63, "duration": 240, "velocity": 114}, {"time": 167040, "pitch": 65, "duration": 240, "velocity": 114}, {"time": 167520, "pitch": 62, "duration": 240, "velocity": 114}, {"time": 168000, "pitch": 62, "duration": 480, "velocity": 114}, {"time": 168960, "pitch": 55, "duration": 240, "velocity": 114}, {"time": 169200, "pitch": 62, "duration": 240, "velocity": 114}, {"time": 169440, "pitch": 60, "duration": 1347, "velocity": 119}], "annotations": [{"time": 258, "annotation": {"number": 7, "value": 127}, "group": "control_change"}, {"time": 277, "annotation": {"number": 11, "value": 127}, "group": "control_change"}, {"time": 295, "annotation": {"number": 10, "value": 64}, "group": "control_change"}, {"time": 314, "annotation": {"number": 91, "value": 80}, "group": "control_change"}, {"time": 332, "annotation": {"number": 93, "value": 0}, "group": "control_change"}, {"time": 351, "annotation": {"number": 94, "value": 0}, "group": "control_change"}, {"time": 369, "annotation": {"number": 101, "value": 0}, "group": "control_change"}, {"time": 388, "annotation": {"number": 100, "value": 0}, "group": "control_change"}, {"time": 406, "annotation": {"number": 6, "value": 12}, "group": "control_change"}, {"time": 425, "annotation": {"number": 101, "value": 127}, "group": "control_change"}, {"time": 443, "annotation": {"number": 100, "value": 127}, "group": "control_change"}]}, {"program": 0, "is_drum": false, "name": "LO FI", "annotations": [{"time": 240, "annotation": {"number": 0, "value": 0}, "group": "control_change"}, {"time": 240, "annotation": {"number": 32, "value": 0}, "group": "control_change"}]}, {"program": 55, "is_drum": false, "name": "LO FI", "notes": [{"time": 9600, "pitch": 91, "duration": 180, "velocity": 109}, {"time": 9760, "pitch": 96, "duration": 120, "velocity": 110}, {"time": 9840, "pitch": 91, "duration": 60, "velocity": 108}, {"time": 12480, "pitch": 82, "duration": 230, "velocity": 95}, {"time": 12480, "pitch": 87, "duration": 240, "velocity": 101}, {"time": 12720, "pitch": 86, "duration": 70, "velocity": 95}, {"time": 12720, "pitch": 91, "duration": 60, "velocity": 103}, {"time": 12960, "pitch": 91, "duration": 280, "velocity": 101}, {"time": 12960, "pitch": 96, "duration": 230, "velocity": 102}, {"time": 13200, "pitch": 89, "duration": 50, "velocity": 102}, {"time": 13200, "pitch": 94, "duration": 40, "velocity": 104}, {"time": 13920, "pitch": 89, "duration": 210, "velocity": 102}, {"time": 13920, "pitch": 94, "duration": 230, "velocity": 108}, {"time": 14160, "pitch": 91, "duration": 70, "velocity": 104}, {"time": 14160, "pitch": 96, "duration": 60, "velocity": 110}, {"time": 14880, "pitch": 92, "duration": 240, "velocity": 108}, {"time": 15120, "pitch": 89, "duration": 30, "velocity": 103}, {"time": 15120, "pitch": 94, "duration": 50, "velocity": 109}, {"time": 17280, "pitch": 89, "duration": 480, "velocity": 73}, {"time": 17280, "pitch": 91, "duration": 180, "velocity": 108}, {"time": 17440, "pitch": 96, "duration": 120, "velocity": 110}, {"time": 17520, "pitch": 91, "duration": 60, "velocity": 110}, {"time": 20160, "pitch": 82, "duration": 230, "velocity": 97}, {"time": 20160, "pitch": 87, "duration": 240, "velocity": 99}, {"time": 20400, "pitch": 86, "duration": 70, "velocity": 96}, {"time": 20400, "pitch": 91, "duration": 60, "velocity": 103}, {"time": 20640, "pitch": 91, "duration": 280, "velocity": 101}, {"time": 20640, "pitch": 96, "duration": 230, "velocity": 101}, {"time": 20880, "pitch": 89, "duration": 50, "velocity": 98}, {"time": 20880, "pitch": 94, "duration": 40, "velocity": 102}, {"time": 21600, "pitch": 72, "duration": 80, "velocity": 101}, {"time": 21600, "pitch": 84, "duration": 80, "velocity": 101}, {"time": 21840, "pitch": 72, "duration": 80, "velocity": 104}, {"time": 21840, "pitch": 84, "duration": 80, "velocity": 104}, {"time": 32640, "pitch": 91, "duration": 180, "velocity": 110}, {"time": 32800, "pitch": 96, "duration": 120, "velocity": 110}, {"time": 32880, "pitch": 91, "duration": 60, "velocity": 110}, {"time": 35520, "pitch": 82, "duration": 230, "velocity": 97}, {"time": 35520, "pitch": 87, "duration": 240, "velocity": 101}, {"time": 35760, "pitch": 86, "duration": 70, "velocity": 98}, {"time": 35760, "pitch": 91, "duration": 60, "velocity": 102}, {"time": 36000, "pitch": 91, "duration": 280, "velocity": 101}, {"time": 36000, "pitch": 96, "duration": 230, "velocity": 104}, {"time": 36240, "pitch": 89, "duration": 50, "velocity": 98}, {"time": 36240, "pitch": 94, "duration": 40, "velocity": 104}, {"time": 36960, "pitch": 89, "duration": 210, "velocity": 104}, {"time": 36960, "pitch": 94, "duration": 230, "velocity": 107}, {"time": 37200, "pitch": 91, "duration": 70, "velocity": 105}, {"time": 37200, "pitch": 96, "duration": 60, "velocity": 110}, {"time": 37920, "pitch": 87, "duration": 240, "velocity": 100}, {"time": 37920, "pitch": 92, "duration": 240, "velocity": 108}, {"time": 38160, "pitch": 89, "duration": 30, "velocity": 102}, {"time": 38160, "pitch": 94, "duration": 50, "velocity": 108}, {"time": 40320, "pitch": 91, "duration": 180, "velocity": 107}, {"time": 40480, "pitch": 96, "duration": 120, "velocity": 110}, {"time": 40560, "pitch": 91, "duration": 60, "velocity": 108}, {"time": 41760, "pitch": 94, "duration": 960, "velocity": 103}, {"time": 42720, "pitch": 87, "duration": 420, "velocity": 105}, {"time": 43120, "pitch": 86, "duration": 380, "velocity": 100}, {"time": 43520, "pitch": 87, "duration": 1150, "velocity": 107}, {"time": 44640, "pitch": 75, "duration": 161, "velocity": 112}, {"time": 44880, "pitch": 77, "duration": 147, "velocity": 112}, {"time": 45120, "pitch": 79, "duration": 221, "velocity": 113}, {"time": 45360, "pitch": 77, "duration": 221, "velocity": 114}, {"time": 73440, "pitch": 72, "duration": 80, "velocity": 101}, {"time": 73440, "pitch": 84, "duration": 80, "velocity": 101}, {"time": 73680, "pitch": 72, "duration": 80, "velocity": 104}, {"time": 73680, "pitch": 84, "duration": 80, "velocity": 104}, {"time": 73920, "pitch": 72, "duration": 80, "velocity": 101}, {"time": 73920, "pitch": 84, "duration": 80, "velocity": 101}, {"time": 76800, "pitch": 91, "duration": 180, "velocity": 110}, {"time": 76960, "pitch": 96, "duration": 120, "velocity": 110}, {"time": 77040, "pitch": 91, "duration": 60, "velocity": 110}, {"time": 79680, "pitch": 82, "duration": 230, "velocity": 97}, {"time": 79680, "pitch": 87, "duration": 240, "velocity": 101}, {"time": 79920, "pitch": 86, "duration": 70, "velocity": 98}, {"time": 79920, "pitch": 91, "duration": 60, "velocity": 102}, {"time": 80160, "pitch": 91, "duration": 280, "velocity": 101}, {"time": 80160, "pitch": 96, "duration": 230, "velocity": 104}, {"time": 80400, "pitch": 89, "duration": 50, "velocity": 98}, {"time": 80400, "pitch": 94, "duration": 40, "velocity": 104}, {"time": 81120, "pitch": 89, "duration": 210, "velocity": 104}, {"time": 81120, "pitch": 94, "duration": 230, "velocity": 107}, {"time": 81360, "pitch": 91, "duration": 70, "velocity": 105}, {"time": 81360, "pitch": 96, "duration": 60, "velocity": 110}, {"time": 82080, "pitch": 87, "duration": 240, "velocity": 100}, {"time": 82080, "pitch": 92, "duration": 240, "velocity": 108}, {"time": 82320, "pitch": 89, "duration": 30, "velocity": 102}, {"time": 82320, "pitch": 94, "duration": 50, "velocity": 108}, {"time": 84480, "pitch": 91, "duration": 180, "velocity": 107}, {"time": 84640, "pitch": 96, "duration": 120, "velocity": 110}, {"time": 84720, "pitch": 91, "duration": 60, "velocity": 108}, {"time": 85920, "pitch": 94, "duration": 960, "velocity": 103}, {"time": 86880, "pitch": 87, "duration": 420, "velocity": 105}, {"time": 87280, "pitch": 86, "duration": 380, "velocity": 100}, {"time": 87680, "pitch": 87, "duration": 1150, "velocity": 107}, {"time": 89280, "pitch": 72, "duration": 80, "velocity": 101}, {"time": 89280, "pitch": 84, "duration": 80, "velocity": 101}, {"time": 99840, "pitch": 91, "duration": 180, "velocity": 109}, {"time": 100000, "pitch": 96, "duration": 120, "velocity": 110}, {"time": 100080, "pitch": 91, "duration": 60, "velocity": 108}, {"time": 102720, "pitch": 82, "duration": 230, "velocity": 95}, {"time": 102720, "pitch": 87, "duration": 240, "velocity": 101}, {"time": 102960, "pitch": 86, "duration": 70, "velocity": 95}, {"time": 102960, "pitch": 91, "duration": 60, "velocity": 103}, {"time": 103200, "pitch": 91, "duration": 280, "velocity": 101}, {"time": 103200, "pitch": 96, "duration": 230, "velocity": 102}, {"time": 103440, "pitch": 89, "duration": 50, "velocity": 102}, {"time": 103440, "pitch": 94, "duration": 40, "velocity": 104}, {"time": 115200, "pitch": 91, "duration": 180, "velocity": 110}, {"time": 115360, "pitch": 96, "duration": 120, "velocity": 110}, {"time": 115440, "pitch": 91, "duration": 60, "velocity": 110}, {"time": 118080, "pitch": 82, "duration": 230, "velocity": 97}, {"time": 118080, "pitch": 87, "duration": 240, "velocity": 101}, {"time": 118320, "pitch": 86, "duration": 70, "velocity": 98}, {"time": 118320, "pitch": 91, "duration": 60, "velocity": 102}, {"time": 118560, "pitch": 91, "duration": 280, "velocity": 101}, {"time": 118560, "pitch": 96, "duration": 230, "velocity": 104}, {"time": 118800, "pitch": 89, "duration": 50, "velocity": 98}, {"time": 118800, "pitch": 94, "duration": 40, "velocity": 104}, {"time": 119520, "pitch": 89, "duration": 210, "velocity": 104}, {"time": 119520, "pitch": 94, "duration": 230, "velocity": 107}, {"time": 119760, "pitch": 91, "duration": 70, "velocity": 105}, {"time": 119760, "pitch": 96, "duration": 60, "velocity": 110}, {"time": 120480, "pitch": 87, "duration": 240, "velocity": 100}, {"time": 120480, "pitch": 92, "duration": 240, "velocity": 108}, {"time": 120720, "pitch": 89, "duration": 30, "velocity": 102}, {"time": 120720, "pitch": 94, "duration": 50, "velocity": 108}, {"time": 122880, "pitch": 91, "duration": 180, "velocity": 107}, {"time": 123040, "pitch": 96, "duration": 120, "velocity": 110}, {"time": 123120, "pitch": 91, "duration": 60, "velocity": 108}, {"time": 124320, "pitch": 94, "duration": 960, "velocity": 103}, {"time": 125280, "pitch": 87, "duration": 420, "velocity": 105}, {"time": 125680, "pitch": 86, "duration": 380, "velocity": 100}, {"time": 126080, "pitch": 87, "duration": 1150, "velocity": 107}, {"time": 127200, "pitch": 75, "duration": 161, "velocity": 112}, {"time": 127440, "pitch": 77, "duration": 147, "velocity": 112}, {"time": 127680, "pitch": 79, "duration": 221, "velocity": 113}, {"time": 127920, "pitch": 77, "duration": 221, "velocity": 114}, {"time": 159360, "pitch": 91, "duration": 180, "velocity": 109}, {"time": 159520, "pitch": 96, "duration": 120, "velocity": 110}, {"time": 159600, "pitch": 91, "duration": 60, "velocity": 108}, {"time": 162240, "pitch": 82, "duration": 230, "velocity": 95}, {"time": 162240, "pitch": 87, "duration": 240, "velocity": 101}, {"time": 162480, "pitch": 86, "duration": 70, "velocity": 95}, {"time": 162480, "pitch": 91, "duration": 60, "velocity": 103}, {"time": 162720, "pitch": 91, "duration": 280, "velocity": 101}, {"time": 162720, "pitch": 96, "duration": 230, "velocity": 102}, {"time": 162960, "pitch": 89, "duration": 50, "velocity": 102}, {"time": 162960, "pitch": 94, "duration": 40, "velocity": 104}, {"time": 163680, "pitch": 89, "duration": 210, "velocity": 102}, {"time": 163680, "pitch": 94, "duration": 230, "velocity": 108}, {"time": 163920, "pitch": 91, "duration": 70, "velocity": 104}, {"time": 163920, "pitch": 96, "duration": 60, "velocity": 110}, {"time": 164640, "pitch": 92, "duration": 240, "velocity": 108}, {"time": 164880, "pitch": 89, "duration": 30, "velocity": 103}, {"time": 164880, "pitch": 94, "duration": 50, "velocity": 109}, {"time": 171360, "pitch": 72, "duration": 80, "velocity": 101}, {"time": 171360, "pitch": 84, "duration": 80, "velocity": 101}, {"time": 171600, "pitch": 72, "duration": 80, "velocity": 104}, {"time": 171600, "pitch": 84, "duration": 80, "velocity": 104}], "annotations": [{"time": 258, "annotation": {"number": 7, "value": 120}, "group": "control_change"}, {"time": 277, "annotation": {"number": 11, "value": 120}, "group": "control_change"}, {"time": 295, "annotation": {"number": 10, "value": 74}, "group": "control_change"}, {"time": 314, "annotation": {"number": 91, "value": 30}, "group": "control_change"}, {"time": 332, "annotation": {"number": 93, "value": 0}, "group": "control_change"}, {"time": 351, "annotation": {"number": 94, "value": 0}, "group": "control_change"}, {"time": 369, "annotation": {"number": 101, "value": 0}, "group": "control_change"}, {"time": 388, "annotation": {"number": 100, "value": 0}, "group": "control_change"}, {"time": 406, "annotation": {"number": 6, "value": 12}, "group": "control_change"}, {"time": 425, "annotation": {"number": 101, "value": 127}, "group": "control_change"}, {"time": 443, "annotation": {"number": 100, "value": 127}, "group": "control_change"}]}, {"program": 0, "is_drum": false, "name": "MUTE GT 1", "annotations": [{"time": 240, "annotation": {"number": 0, "value": 0}, "group": "control_change"}, {"time": 240, "annotation": {"number": 32, "value": 0}, "group": "control_change"}]}, {"program": 28, "is_drum": false, "name": "MUTE GT 1", "notes": [{"time": 15840, "pitch": 58, "duration": 160, "velocity": 109}, {"time": 16000, "pitch": 58, "duration": 80, "velocity": 99}, {"time": 16080, "pitch": 58, "duration": 160, "velocity": 110}, {"time": 16240, "pitch": 58, "duration": 80, "velocity": 102}, {"time": 16480, "pitch": 58, "duration": 80, "velocity": 95}, {"time": 16560, "pitch": 58, "duration": 160, "velocity": 111}, {"time": 16720, "pitch": 58, "duration": 70, "velocity": 96}, {"time": 16960, "pitch": 58, "duration": 80, "velocity": 119}, {"time": 17040, "pitch": 60, "duration": 130, "velocity": 105}, {"time": 17200, "pitch": 58, "duration": 50, "velocity": 92}, {"time": 17280, "pitch": 63, "duration": 160, "velocity": 127}, {"time": 17440, "pitch": 63, "duration": 60, "velocity": 127}, {"time": 17520, "pitch": 65, "duration": 140, "velocity": 103}, {"time": 17680, "pitch": 63, "duration": 60, "velocity": 97}, {"time": 17920, "pitch": 58, "duration": 80, "velocity": 96}, {"time": 18000, "pitch": 58, "duration": 160, "velocity": 119}, {"time": 18160, "pitch": 58, "duration": 80, "velocity": 100}, {"time": 18400, "pitch": 58, "duration": 80, "velocity": 97}, {"time": 18480, "pitch": 58, "duration": 160, "velocity": 110}, {"time": 18640, "pitch": 58, "duration": 70, "velocity": 99}, {"time": 18880, "pitch": 58, "duration": 80, "velocity": 110}, {"time": 18960, "pitch": 60, "duration": 130, "velocity": 106}, {"time": 19200, "pitch": 63, "duration": 210, "velocity": 113}, {"time": 19440, "pitch": 60, "duration": 140, "velocity": 94}, {"time": 19600, "pitch": 58, "duration": 60, "velocity": 123}, {"time": 19680, "pitch": 58, "duration": 160, "velocity": 109}, {"time": 19840, "pitch": 58, "duration": 80, "velocity": 99}, {"time": 19920, "pitch": 58, "duration": 160, "velocity": 110}, {"time": 20080, "pitch": 58, "duration": 80, "velocity": 102}, {"time": 20320, "pitch": 58, "duration": 80, "velocity": 95}, {"time": 20400, "pitch": 58, "duration": 160, "velocity": 111}, {"time": 20560, "pitch": 58, "duration": 70, "velocity": 96}, {"time": 20800, "pitch": 58, "duration": 80, "velocity": 119}, {"time": 20880, "pitch": 60, "duration": 130, "velocity": 105}, {"time": 21040, "pitch": 58, "duration": 50, "velocity": 92}, {"time": 21120, "pitch": 63, "duration": 160, "velocity": 127}, {"time": 21280, "pitch": 63, "duration": 60, "velocity": 127}, {"time": 21360, "pitch": 65, "duration": 140, "velocity": 103}, {"time": 21520, "pitch": 63, "duration": 60, "velocity": 97}, {"time": 23680, "pitch": 58, "duration": 80, "velocity": 75}, {"time": 23760, "pitch": 58, "duration": 160, "velocity": 102}, {"time": 23920, "pitch": 58, "duration": 80, "velocity": 89}, {"time": 24160, "pitch": 58, "duration": 80, "velocity": 75}, {"time": 24240, "pitch": 58, "duration": 160, "velocity": 102}, {"time": 24400, "pitch": 58, "duration": 70, "velocity": 75}, {"time": 24640, "pitch": 58, "duration": 80, "velocity": 96}, {"time": 24720, "pitch": 55, "duration": 160, "velocity": 89}, {"time": 24880, "pitch": 58, "duration": 70, "velocity": 79}, {"time": 24960, "pitch": 55, "duration": 210, "velocity": 103}, {"time": 25200, "pitch": 60, "duration": 140, "velocity": 87}, {"time": 25360, "pitch": 58, "duration": 60, "velocity": 112}, {"time": 25600, "pitch": 58, "duration": 80, "velocity": 75}, {"time": 25680, "pitch": 58, "duration": 160, "velocity": 102}, {"time": 25840, "pitch": 58, "duration": 80, "velocity": 89}, {"time": 26080, "pitch": 58, "duration": 80, "velocity": 75}, {"time": 26160, "pitch": 58, "duration": 160, "velocity": 102}, {"time": 26320, "pitch": 58, "duration": 70, "velocity": 75}, {"time": 26560, "pitch": 58, "duration": 80, "velocity": 96}, {"time": 26640, "pitch": 55, "duration": 160, "velocity": 89}, {"time": 26800, "pitch": 58, "duration": 70, "velocity": 79}, {"time": 26880, "pitch": 55, "duration": 210, "velocity": 103}, {"time": 27120, "pitch": 60, "duration": 140, "velocity": 87}, {"time": 27280, "pitch": 58, "duration": 60, "velocity": 112}, {"time": 27520, "pitch": 60, "duration": 80, "velocity": 83}, {"time": 27600, "pitch": 60, "duration": 160, "velocity": 103}, {"time": 27760, "pitch": 60, "duration": 80, "velocity": 92}, {"time": 28000, "pitch": 60, "duration": 80, "velocity": 75}, {"time": 28080, "pitch": 60, "duration": 160, "velocity": 101}, {"time": 28240, "pitch": 60, "duration": 70, "velocity": 80}, {"time": 28480, "pitch": 58, "duration": 80, "velocity": 103}, {"time": 28560, "pitch": 60, "duration": 130, "velocity": 93}, {"time": 28800, "pitch": 63, "duration": 160, "velocity": 89}, {"time": 28960, "pitch": 63, "duration": 60, "velocity": 67}, {"time": 29040, "pitch": 65, "duration": 140, "velocity": 92}, {"time": 29200, "pitch": 63, "duration": 60, "velocity": 82}, {"time": 29440, "pitch": 58, "duration": 80, "velocity": 75}, {"time": 29520, "pitch": 58, "duration": 160, "velocity": 102}, {"time": 29680, "pitch": 58, "duration": 80, "velocity": 89}, {"time": 29920, "pitch": 58, "duration": 80, "velocity": 75}, {"time": 30000, "pitch": 58, "duration": 160, "velocity": 102}, {"time": 30160, "pitch": 58, "duration": 70, "velocity": 75}, {"time": 30400, "pitch": 58, "duration": 80, "velocity": 96}, {"time": 30480, "pitch": 55, "duration": 160, "velocity": 89}, {"time": 30640, "pitch": 58, "duration": 70, "velocity": 79}, {"time": 30720, "pitch": 55, "duration": 210, "velocity": 103}, {"time": 30960, "pitch": 60, "duration": 140, "velocity": 87}, {"time": 31120, "pitch": 58, "duration": 60, "velocity": 112}, {"time": 31440, "pitch": 58, "duration": 160, "velocity": 119}, {"time": 31600, "pitch": 58, "duration": 80, "velocity": 108}, {"time": 31840, "pitch": 58, "duration": 80, "velocity": 96}, {"time": 31920, "pitch": 58, "duration": 160, "velocity": 116}, {"time": 32080, "pitch": 58, "duration": 70, "velocity": 94}, {"time": 32320, "pitch": 58, "duration": 80, "velocity": 94}, {"time": 32400, "pitch": 58, "duration": 160, "velocity": 112}, {"time": 32560, "pitch": 58, "duration": 80, "velocity": 102}, {"time": 32800, "pitch": 58, "duration": 80, "velocity": 99}, {"time": 32880, "pitch": 58, "duration": 160, "velocity": 117}, {"time": 33040, "pitch": 58, "duration": 70, "velocity": 94}, {"time": 33120, "pitch": 58, "duration": 160, "velocity": 109}, {"time": 33280, "pitch": 58, "duration": 80, "velocity": 99}, {"time": 33360, "pitch": 58, "duration": 160, "velocity": 110}, {"time": 33520, "pitch": 58, "duration": 80, "velocity": 102}, {"time": 33760, "pitch": 58, "duration": 80, "velocity": 95}, {"time": 33840, "pitch": 58, "duration": 160, "velocity": 111}, {"time": 34000, "pitch": 58, "duration": 70, "velocity": 96}, {"time": 34240, "pitch": 58, "duration": 80, "velocity": 119}, {"time": 34320, "pitch": 60, "duration": 130, "velocity": 105}, {"time": 34480, "pitch": 58, "duration": 50, "velocity": 92}, {"time": 34560, "pitch": 63, "duration": 160, "velocity": 127}, {"time": 34720, "pitch": 63, "duration": 60, "velocity": 127}, {"time": 34800, "pitch": 65, "duration": 140, "velocity": 103}, {"time": 34960, "pitch": 63, "duration": 60, "velocity": 97}, {"time": 35200, "pitch": 58, "duration": 80, "velocity": 96}, {"time": 35280, "pitch": 58, "duration": 160, "velocity": 119}, {"time": 35440, "pitch": 58, "duration": 80, "velocity": 100}, {"time": 35680, "pitch": 58, "duration": 80, "velocity": 97}, {"time": 35760, "pitch": 58, "duration": 160, "velocity": 110}, {"time": 35920, "pitch": 58, "duration": 70, "velocity": 99}, {"time": 36160, "pitch": 58, "duration": 80, "velocity": 110}, {"time": 36240, "pitch": 60, "duration": 130, "velocity": 106}, {"time": 36480, "pitch": 63, "duration": 210, "velocity": 113}, {"time": 36720, "pitch": 60, "duration": 140, "velocity": 94}, {"time": 36880, "pitch": 58, "duration": 60, "velocity": 123}, {"time": 37120, "pitch": 58, "duration": 80, "velocity": 98}, {"time": 37200, "pitch": 58, "duration": 160, "velocity": 113}, {"time": 37360, "pitch": 58, "duration": 80, "velocity": 100}, {"time": 37600, "pitch": 58, "duration": 80, "velocity": 96}, {"time": 37680, "pitch": 58, "duration": 160, "velocity": 115}, {"time": 37840, "pitch": 58, "duration": 70, "velocity": 95}, {"time": 38080, "pitch": 58, "duration": 80, "velocity": 114}, {"time": 38160, "pitch": 60, "duration": 130, "velocity": 100}, {"time": 38320, "pitch": 58, "duration": 50, "velocity": 98}, {"time": 38400, "pitch": 63, "duration": 160, "velocity": 104}, {"time": 38560, "pitch": 63, "duration": 60, "velocity": 84}, {"time": 38640, "pitch": 65, "duration": 140, "velocity": 109}, {"time": 38800, "pitch": 63, "duration": 60, "velocity": 98}, {"time": 39040, "pitch": 58, "duration": 80, "velocity": 91}, {"time": 39120, "pitch": 58, "duration": 160, "velocity": 110}, {"time": 39280, "pitch": 58, "duration": 80, "velocity": 101}, {"time": 39520, "pitch": 58, "duration": 80, "velocity": 99}, {"time": 39600, "pitch": 58, "duration": 160, "velocity": 119}, {"time": 39760, "pitch": 58, "duration": 70, "velocity": 96}, {"time": 40000, "pitch": 58, "duration": 80, "velocity": 112}, {"time": 40080, "pitch": 60, "duration": 130, "velocity": 108}, {"time": 40240, "pitch": 58, "duration": 50, "velocity": 99}, {"time": 40320, "pitch": 63, "duration": 210, "velocity": 115}, {"time": 40560, "pitch": 60, "duration": 140, "velocity": 96}, {"time": 40720, "pitch": 58, "duration": 60, "velocity": 123}, {"time": 40960, "pitch": 58, "duration": 80, "velocity": 97}, {"time": 41040, "pitch": 58, "duration": 160, "velocity": 111}, {"time": 41200, "pitch": 58, "duration": 80, "velocity": 104}, {"time": 41440, "pitch": 58, "duration": 80, "velocity": 91}, {"time": 41520, "pitch": 58, "duration": 160, "velocity": 112}, {"time": 41680, "pitch": 58, "duration": 70, "velocity": 96}, {"time": 41920, "pitch": 58, "duration": 80, "velocity": 112}, {"time": 42000, "pitch": 60, "duration": 130, "velocity": 102}, {"time": 42160, "pitch": 58, "duration": 50, "velocity": 94}, {"time": 42240, "pitch": 63, "duration": 160, "velocity": 127}, {"time": 42400, "pitch": 63, "duration": 60, "velocity": 127}, {"time": 42480, "pitch": 65, "duration": 140, "velocity": 102}, {"time": 42640, "pitch": 63, "duration": 60, "velocity": 97}, {"time": 42880, "pitch": 58, "duration": 80, "velocity": 99}, {"time": 42960, "pitch": 58, "duration": 160, "velocity": 117}, {"time": 43120, "pitch": 58, "duration": 80, "velocity": 106}, {"time": 43360, "pitch": 58, "duration": 80, "velocity": 96}, {"time": 43440, "pitch": 58, "duration": 160, "velocity": 112}, {"time": 43600, "pitch": 58, "duration": 70, "velocity": 92}, {"time": 43840, "pitch": 58, "duration": 80, "velocity": 112}, {"time": 43920, "pitch": 60, "duration": 160, "velocity": 103}, {"time": 44080, "pitch": 60, "duration": 70, "velocity": 97}, {"time": 44160, "pitch": 63, "duration": 210, "velocity": 111}, {"time": 44400, "pitch": 60, "duration": 140, "velocity": 95}, {"time": 44560, "pitch": 58, "duration": 60, "velocity": 125}, {"time": 44640, "pitch": 63, "duration": 161, "velocity": 115}, {"time": 44880, "pitch": 65, "duration": 147, "velocity": 108}, {"time": 45120, "pitch": 67, "duration": 221, "velocity": 109}, {"time": 45360, "pitch": 65, "duration": 221, "velocity": 110}, {"time": 46720, "pitch": 58, "duration": 80, "velocity": 75}, {"time": 46800, "pitch": 58, "duration": 160, "velocity": 102}, {"time": 46960, "pitch": 58, "duration": 80, "velocity": 89}, {"time": 47200, "pitch": 58, "duration": 80, "velocity": 75}, {"time": 47280, "pitch": 58, "duration": 160, "velocity": 102}, {"time": 47440, "pitch": 58, "duration": 70, "velocity": 75}, {"time": 47680, "pitch": 58, "duration": 80, "velocity": 96}, {"time": 47760, "pitch": 55, "duration": 160, "velocity": 89}, {"time": 47920, "pitch": 58, "duration": 70, "velocity": 79}, {"time": 48000, "pitch": 55, "duration": 210, "velocity": 103}, {"time": 48240, "pitch": 60, "duration": 140, "velocity": 87}, {"time": 48400, "pitch": 58, "duration": 60, "velocity": 112}, {"time": 48640, "pitch": 58, "duration": 80, "velocity": 75}, {"time": 48720, "pitch": 58, "duration": 160, "velocity": 102}, {"time": 48880, "pitch": 58, "duration": 80, "velocity": 89}, {"time": 49120, "pitch": 58, "duration": 80, "velocity": 75}, {"time": 49200, "pitch": 58, "duration": 160, "velocity": 102}, {"time": 49360, "pitch": 58, "duration": 70, "velocity": 75}, {"time": 49600, "pitch": 58, "duration": 80, "velocity": 96}, {"time": 49680, "pitch": 55, "duration": 160, "velocity": 89}, {"time": 49840, "pitch": 58, "duration": 70, "velocity": 79}, {"time": 49920, "pitch": 55, "duration": 210, "velocity": 103}, {"time": 50160, "pitch": 60, "duration": 140, "velocity": 87}, {"time": 50320, "pitch": 58, "duration": 60, "velocity": 112}, {"time": 50560, "pitch": 60, "duration": 80, "velocity": 83}, {"time": 50640, "pitch": 60, "duration": 160, "velocity": 103}, {"time": 50800, "pitch": 60, "duration": 80, "velocity": 92}, {"time": 51040, "pitch": 60, "duration": 80, "velocity": 75}, {"time": 51120, "pitch": 60, "duration": 160, "velocity": 101}, {"time": 51280, "pitch": 60, "duration": 70, "velocity": 80}, {"time": 51520, "pitch": 58, "duration": 80, "velocity": 103}, {"time": 51600, "pitch": 60, "duration": 130, "velocity": 93}, {"time": 51840, "pitch": 63, "duration": 160, "velocity": 89}, {"time": 52000, "pitch": 63, "duration": 60, "velocity": 67}, {"time": 52080, "pitch": 65, "duration": 140, "velocity": 92}, {"time": 52240, "pitch": 63, "duration": 60, "velocity": 82}, {"time": 52480, "pitch": 58, "duration": 80, "velocity": 75}, {"time": 52560, "pitch": 58, "duration": 160, "velocity": 102}, {"time": 52720, "pitch": 58, "duration": 80, "velocity": 89}, {"time": 52960, "pitch": 58, "duration": 80, "velocity": 75}, {"time": 53040, "pitch": 58, "duration": 160, "velocity": 102}, {"time": 53200, "pitch": 58, "duration": 70, "velocity": 75}, {"time": 53440, "pitch": 58, "duration": 80, "velocity": 96}, {"time": 53520, "pitch": 55, "duration": 160, "velocity": 89}, {"time": 53680, "pitch": 58, "duration": 70, "velocity": 79}, {"time": 53760, "pitch": 55, "duration": 210, "velocity": 103}, {"time": 54000, "pitch": 60, "duration": 140, "velocity": 87}, {"time": 54160, "pitch": 58, "duration": 60, "velocity": 112}, {"time": 54400, "pitch": 60, "duration": 80, "velocity": 83}, {"time": 54480, "pitch": 60, "duration": 160, "velocity": 103}, {"time": 54640, "pitch": 60, "duration": 80, "velocity": 92}, {"time": 54880, "pitch": 60, "duration": 80, "velocity": 75}, {"time": 54960, "pitch": 60, "duration": 160, "velocity": 101}, {"time": 55120, "pitch": 60, "duration": 70, "velocity": 80}, {"time": 55360, "pitch": 58, "duration": 80, "velocity": 103}, {"time": 55440, "pitch": 60, "duration": 130, "velocity": 93}, {"time": 55680, "pitch": 63, "duration": 160, "velocity": 89}, {"time": 55840, "pitch": 63, "duration": 60, "velocity": 67}, {"time": 55920, "pitch": 65, "duration": 140, "velocity": 92}, {"time": 56080, "pitch": 63, "duration": 60, "velocity": 82}, {"time": 56320, "pitch": 58, "duration": 80, "velocity": 75}, {"time": 56400, "pitch": 58, "duration": 160, "velocity": 102}, {"time": 56560, "pitch": 58, "duration": 80, "velocity": 89}, {"time": 56800, "pitch": 58, "duration": 80, "velocity": 75}, {"time": 56880, "pitch": 58, "duration": 160, "velocity": 102}, {"time": 57040, "pitch": 58, "duration": 70, "velocity": 75}, {"time": 57280, "pitch": 58, "duration": 80, "velocity": 96}, {"time": 57360, "pitch": 55, "duration": 160, "velocity": 89}, {"time": 57520, "pitch": 58, "duration": 70, "velocity": 79}, {"time": 57600, "pitch": 55, "duration": 210, "velocity": 103}, {"time": 57840, "pitch": 60, "duration": 140, "velocity": 87}, {"time": 58000, "pitch": 58, "duration": 60, "velocity": 112}, {"time": 58240, "pitch": 60, "duration": 80, "velocity": 83}, {"time": 58320, "pitch": 60, "duration": 160, "velocity": 103}, {"time": 58480, "pitch": 60, "duration": 80, "velocity": 92}, {"time": 58720, "pitch": 60, "duration": 80, "velocity": 75}, {"time": 58800, "pitch": 60, "duration": 160, "velocity": 101}, {"time": 58960, "pitch": 60, "duration": 70, "velocity": 80}, {"time": 59200, "pitch": 58, "duration": 80, "velocity": 103}, {"time": 59280, "pitch": 60, "duration": 130, "velocity": 93}, {"time": 59520, "pitch": 63, "duration": 160, "velocity": 89}, {"time": 59680, "pitch": 63, "duration": 60, "velocity": 67}, {"time": 59760, "pitch": 65, "duration": 140, "velocity": 92}, {"time": 59920, "pitch": 63, "duration": 60, "velocity": 82}, {"time": 60160, "pitch": 58, "duration": 80, "velocity": 75}, {"time": 60240, "pitch": 58, "duration": 160, "velocity": 102}, {"time": 60400, "pitch": 58, "duration": 80, "velocity": 89}, {"time": 60640, "pitch": 58, "duration": 80, "velocity": 75}, {"time": 60720, "pitch": 58, "duration": 160, "velocity": 102}, {"time": 60880, "pitch": 58, "duration": 70, "velocity": 75}, {"time": 61120, "pitch": 58, "duration": 80, "velocity": 96}, {"time": 61200, "pitch": 55, "duration": 160, "velocity": 89}, {"time": 61360, "pitch": 58, "duration": 70, "velocity": 79}, {"time": 61440, "pitch": 55, "duration": 210, "velocity": 103}, {"time": 61680, "pitch": 60, "duration": 140, "velocity": 87}, {"time": 61840, "pitch": 58, "duration": 60, "velocity": 112}, {"time": 62080, "pitch": 58, "duration": 80, "velocity": 75}, {"time": 62160, "pitch": 58, "duration": 160, "velocity": 102}, {"time": 62320, "pitch": 58, "duration": 80, "velocity": 89}, {"time": 62560, "pitch": 58, "duration": 80, "velocity": 75}, {"time": 62640, "pitch": 58, "duration": 160, "velocity": 102}, {"time": 62800, "pitch": 58, "duration": 70, "velocity": 75}, {"time": 63040, "pitch": 58, "duration": 80, "velocity": 96}, {"time": 63120, "pitch": 55, "duration": 160, "velocity": 89}, {"time": 63280, "pitch": 58, "duration": 70, "velocity": 79}, {"time": 63360, "pitch": 55, "duration": 210, "velocity": 103}, {"time": 63600, "pitch": 60, "duration": 140, "velocity": 87}, {"time": 63760, "pitch": 58, "duration": 60, "velocity": 112}, {"time": 64000, "pitch": 60, "duration": 80, "velocity": 83}, {"time": 64080, "pitch": 60, "duration": 160, "velocity": 103}, {"time": 64240, "pitch": 60, "duration": 80, "velocity": 92}, {"time": 64480, "pitch": 60, "duration": 80, "velocity": 75}, {"time": 64560, "pitch": 60, "duration": 160, "velocity": 101}, {"time": 64720, "pitch": 60, "duration": 70, "velocity": 80}, {"time": 64960, "pitch": 58, "duration": 80, "velocity": 103}, {"time": 65040, "pitch": 60, "duration": 130, "velocity": 93}, {"time": 65280, "pitch": 63, "duration": 160, "velocity": 89}, {"time": 65440, "pitch": 63, "duration": 60, "velocity": 67}, {"time": 65520, "pitch": 65, "duration": 140, "velocity": 92}, {"time": 65680, "pitch": 63, "duration": 60, "velocity": 82}, {"time": 65920, "pitch": 60, "duration": 80, "velocity": 83}, {"time": 66000, "pitch": 60, "duration": 160, "velocity": 103}, {"time": 66160, "pitch": 60, "duration": 80, "velocity": 92}, {"time": 66400, "pitch": 60, "duration": 80, "velocity": 75}, {"time": 66480, "pitch": 60, "duration": 160, "velocity": 101}, {"time": 66640, "pitch": 60, "duration": 70, "velocity": 80}, {"time": 66880, "pitch": 58, "duration": 80, "velocity": 103}, {"time": 66960, "pitch": 60, "duration": 130, "velocity": 93}, {"time": 67200, "pitch": 63, "duration": 160, "velocity": 89}, {"time": 67360, "pitch": 63, "duration": 60, "velocity": 67}, {"time": 67440, "pitch": 65, "duration": 140, "velocity": 92}, {"time": 67600, "pitch": 63, "duration": 60, "velocity": 82}, {"time": 67840, "pitch": 58, "duration": 80, "velocity": 70}, {"time": 67920, "pitch": 58, "duration": 160, "velocity": 97}, {"time": 68080, "pitch": 58, "duration": 80, "velocity": 84}, {"time": 68320, "pitch": 58, "duration": 80, "velocity": 70}, {"time": 68400, "pitch": 58, "duration": 160, "velocity": 97}, {"time": 68560, "pitch": 58, "duration": 70, "velocity": 70}, {"time": 68800, "pitch": 58, "duration": 80, "velocity": 91}, {"time": 68880, "pitch": 55, "duration": 160, "velocity": 84}, {"time": 69040, "pitch": 58, "duration": 70, "velocity": 74}, {"time": 69120, "pitch": 55, "duration": 210, "velocity": 98}, {"time": 69360, "pitch": 60, "duration": 140, "velocity": 82}, {"time": 69520, "pitch": 58, "duration": 60, "velocity": 107}, {"time": 69760, "pitch": 58, "duration": 80, "velocity": 90}, {"time": 69840, "pitch": 58, "duration": 160, "velocity": 117}, {"time": 70000, "pitch": 58, "duration": 80, "velocity": 104}, {"time": 70240, "pitch": 58, "duration": 80, "velocity": 90}, {"time": 70320, "pitch": 58, "duration": 160, "velocity": 117}, {"time": 70480, "pitch": 58, "duration": 70, "velocity": 90}, {"time": 70720, "pitch": 58, "duration": 80, "velocity": 111}, {"time": 70800, "pitch": 60, "duration": 160, "velocity": 104}, {"time": 70960, "pitch": 60, "duration": 70, "velocity": 94}, {"time": 71040, "pitch": 63, "duration": 210, "velocity": 118}, {"time": 71280, "pitch": 60, "duration": 140, "velocity": 102}, {"time": 71440, "pitch": 58, "duration": 60, "velocity": 127}, {"time": 71680, "pitch": 58, "duration": 80, "velocity": 98}, {"time": 71760, "pitch": 58, "duration": 160, "velocity": 118}, {"time": 71920, "pitch": 58, "duration": 80, "velocity": 107}, {"time": 72160, "pitch": 58, "duration": 80, "velocity": 90}, {"time": 72240, "pitch": 58, "duration": 160, "velocity": 116}, {"time": 72400, "pitch": 58, "duration": 70, "velocity": 95}, {"time": 72640, "pitch": 58, "duration": 80, "velocity": 118}, {"time": 72720, "pitch": 60, "duration": 130, "velocity": 108}, {"time": 72960, "pitch": 63, "duration": 160, "velocity": 104}, {"time": 73120, "pitch": 63, "duration": 60, "velocity": 82}, {"time": 73200, "pitch": 65, "duration": 140, "velocity": 107}, {"time": 73360, "pitch": 63, "duration": 60, "velocity": 97}, {"time": 75600, "pitch": 58, "duration": 160, "velocity": 119}, {"time": 75760, "pitch": 58, "duration": 80, "velocity": 108}, {"time": 76000, "pitch": 58, "duration": 80, "velocity": 96}, {"time": 76080, "pitch": 58, "duration": 160, "velocity": 116}, {"time": 76240, "pitch": 58, "duration": 70, "velocity": 94}, {"time": 76480, "pitch": 58, "duration": 80, "velocity": 94}, {"time": 76560, "pitch": 58, "duration": 160, "velocity": 112}, {"time": 76720, "pitch": 58, "duration": 80, "velocity": 102}, {"time": 76960, "pitch": 58, "duration": 80, "velocity": 99}, {"time": 77040, "pitch": 58, "duration": 160, "velocity": 117}, {"time": 77200, "pitch": 58, "duration": 70, "velocity": 94}, {"time": 77280, "pitch": 58, "duration": 160, "velocity": 109}, {"time": 77440, "pitch": 58, "duration": 80, "velocity": 99}, {"time": 77520, "pitch": 58, "duration": 160, "velocity": 110}, {"time": 77680, "pitch": 58, "duration": 80, "velocity": 102}, {"time": 77920, "pitch": 58, "duration": 80, "velocity": 95}, {"time": 78000, "pitch": 58, "duration": 160, "velocity": 111}, {"time": 78160, "pitch": 58, "duration": 70, "velocity": 96}, {"time": 78400, "pitch": 58, "duration": 80, "velocity": 119}, {"time": 78480, "pitch": 60, "duration": 130, "velocity": 105}, {"time": 78640, "pitch": 58, "duration": 50, "velocity": 92}, {"time": 78720, "pitch": 63, "duration": 160, "velocity": 127}, {"time": 78880, "pitch": 63, "duration": 60, "velocity": 127}, {"time": 78960, "pitch": 65, "duration": 140, "velocity": 103}, {"time": 79120, "pitch": 63, "duration": 60, "velocity": 97}, {"time": 79360, "pitch": 58, "duration": 80, "velocity": 96}, {"time": 79440, "pitch": 58, "duration": 160, "velocity": 119}, {"time": 79600, "pitch": 58, "duration": 80, "velocity": 100}, {"time": 79840, "pitch": 58, "duration": 80, "velocity": 97}, {"time": 79920, "pitch": 58, "duration": 160, "velocity": 110}, {"time": 80080, "pitch": 58, "duration": 70, "velocity": 99}, {"time": 80320, "pitch": 58, "duration": 80, "velocity": 110}, {"time": 80400, "pitch": 60, "duration": 130, "velocity": 106}, {"time": 80640, "pitch": 63, "duration": 210, "velocity": 113}, {"time": 80880, "pitch": 60, "duration": 140, "velocity": 94}, {"time": 81040, "pitch": 58, "duration": 60, "velocity": 123}, {"time": 81280, "pitch": 58, "duration": 80, "velocity": 98}, {"time": 81360, "pitch": 58, "duration": 160, "velocity": 113}, {"time": 81520, "pitch": 58, "duration": 80, "velocity": 100}, {"time": 81760, "pitch": 58, "duration": 80, "velocity": 96}, {"time": 81840, "pitch": 58, "duration": 160, "velocity": 115}, {"time": 82000, "pitch": 58, "duration": 70, "velocity": 95}, {"time": 82240, "pitch": 58, "duration": 80, "velocity": 114}, {"time": 82320, "pitch": 60, "duration": 130, "velocity": 100}, {"time": 82480, "pitch": 58, "duration": 50, "velocity": 98}, {"time": 82560, "pitch": 63, "duration": 160, "velocity": 104}, {"time": 82720, "pitch": 63, "duration": 60, "velocity": 84}, {"time": 82800, "pitch": 65, "duration": 140, "velocity": 109}, {"time": 82960, "pitch": 63, "duration": 60, "velocity": 98}, {"time": 83200, "pitch": 58, "duration": 80, "velocity": 91}, {"time": 83280, "pitch": 58, "duration": 160, "velocity": 110}, {"time": 83440, "pitch": 58, "duration": 80, "velocity": 101}, {"time": 83680, "pitch": 58, "duration": 80, "velocity": 99}, {"time": 83760, "pitch": 58, "duration": 160, "velocity": 119}, {"time": 83920, "pitch": 58, "duration": 70, "velocity": 96}, {"time": 84160, "pitch": 58, "duration": 80, "velocity": 112}, {"time": 84240, "pitch": 60, "duration": 130, "velocity": 108}, {"time": 84400, "pitch": 58, "duration": 50, "velocity": 99}, {"time": 84480, "pitch": 63, "duration": 210, "velocity": 115}, {"time": 84720, "pitch": 60, "duration": 140, "velocity": 96}, {"time": 84880, "pitch": 58, "duration": 60, "velocity": 123}, {"time": 85120, "pitch": 58, "duration": 80, "velocity": 97}, {"time": 85200, "pitch": 58, "duration": 160, "velocity": 111}, {"time": 85360, "pitch": 58, "duration": 80, "velocity": 104}, {"time": 85600, "pitch": 58, "duration": 80, "velocity": 91}, {"time": 85680, "pitch": 58, "duration": 160, "velocity": 112}, {"time": 85840, "pitch": 58, "duration": 70, "velocity": 96}, {"time": 86080, "pitch": 58, "duration": 80, "velocity": 112}, {"time": 86160, "pitch": 60, "duration": 130, "velocity": 102}, {"time": 86320, "pitch": 58, "duration": 50, "velocity": 94}, {"time": 86400, "pitch": 63, "duration": 160, "velocity": 127}, {"time": 86560, "pitch": 63, "duration": 60, "velocity": 127}, {"time": 86640, "pitch": 65, "duration": 140, "velocity": 102}, {"time": 86800, "pitch": 63, "duration": 60, "velocity": 97}, {"time": 87040, "pitch": 58, "duration": 80, "velocity": 99}, {"time": 87120, "pitch": 58, "duration": 160, "velocity": 117}, {"time": 87280, "pitch": 58, "duration": 80, "velocity": 106}, {"time": 87520, "pitch": 58, "duration": 80, "velocity": 96}, {"time": 87600, "pitch": 58, "duration": 160, "velocity": 112}, {"time": 87760, "pitch": 58, "duration": 70, "velocity": 92}, {"time": 88000, "pitch": 58, "duration": 80, "velocity": 112}, {"time": 88080, "pitch": 60, "duration": 160, "velocity": 103}, {"time": 88240, "pitch": 60, "duration": 70, "velocity": 97}, {"time": 88320, "pitch": 63, "duration": 210, "velocity": 111}, {"time": 88560, "pitch": 60, "duration": 140, "velocity": 95}, {"time": 88720, "pitch": 58, "duration": 60, "velocity": 125}, {"time": 98400, "pitch": 58, "duration": 160, "velocity": 109}, {"time": 98560, "pitch": 58, "duration": 80, "velocity": 99}, {"time": 98640, "pitch": 58, "duration": 160, "velocity": 110}, {"time": 98800, "pitch": 58, "duration": 80, "velocity": 102}, {"time": 99040, "pitch": 58, "duration": 80, "velocity": 95}, {"time": 99120, "pitch": 58, "duration": 160, "velocity": 111}, {"time": 99280, "pitch": 58, "duration": 70, "velocity": 96}, {"time": 99520, "pitch": 58, "duration": 80, "velocity": 119}, {"time": 99600, "pitch": 60, "duration": 130, "velocity": 105}, {"time": 99760, "pitch": 58, "duration": 50, "velocity": 92}, {"time": 99840, "pitch": 63, "duration": 160, "velocity": 127}, {"time": 100000, "pitch": 63, "duration": 60, "velocity": 127}, {"time": 100080, "pitch": 65, "duration": 140, "velocity": 103}, {"time": 100240, "pitch": 63, "duration": 60, "velocity": 97}, {"time": 100480, "pitch": 58, "duration": 80, "velocity": 96}, {"time": 100560, "pitch": 58, "duration": 160, "velocity": 119}, {"time": 100720, "pitch": 58, "duration": 80, "velocity": 100}, {"time": 100960, "pitch": 58, "duration": 80, "velocity": 97}, {"time": 101040, "pitch": 58, "duration": 160, "velocity": 110}, {"time": 101200, "pitch": 58, "duration": 70, "velocity": 99}, {"time": 101440, "pitch": 58, "duration": 80, "velocity": 110}, {"time": 101520, "pitch": 60, "duration": 130, "velocity": 106}, {"time": 101760, "pitch": 63, "duration": 210, "velocity": 113}, {"time": 102000, "pitch": 60, "duration": 140, "velocity": 94}, {"time": 102160, "pitch": 58, "duration": 60, "velocity": 123}, {"time": 102240, "pitch": 58, "duration": 160, "velocity": 109}, {"time": 102400, "pitch": 58, "duration": 80, "velocity": 99}, {"time": 102480, "pitch": 58, "duration": 160, "velocity": 110}, {"time": 102640, "pitch": 58, "duration": 80, "velocity": 102}, {"time": 102880, "pitch": 58, "duration": 80, "velocity": 95}, {"time": 102960, "pitch": 58, "duration": 160, "velocity": 111}, {"time": 103120, "pitch": 58, "duration": 70, "velocity": 96}, {"time": 103360, "pitch": 58, "duration": 80, "velocity": 119}, {"time": 103440, "pitch": 60, "duration": 130, "velocity": 105}, {"time": 103600, "pitch": 58, "duration": 50, "velocity": 92}, {"time": 103680, "pitch": 63, "duration": 160, "velocity": 127}, {"time": 103840, "pitch": 63, "duration": 60, "velocity": 127}, {"time": 103920, "pitch": 65, "duration": 140, "velocity": 103}, {"time": 104080, "pitch": 63, "duration": 60, "velocity": 97}, {"time": 106240, "pitch": 58, "duration": 80, "velocity": 75}, {"time": 106320, "pitch": 58, "duration": 160, "velocity": 102}, {"time": 106480, "pitch": 58, "duration": 80, "velocity": 89}, {"time": 106720, "pitch": 58, "duration": 80, "velocity": 75}, {"time": 106800, "pitch": 58, "duration": 160, "velocity": 102}, {"time": 106960, "pitch": 58, "duration": 70, "velocity": 75}, {"time": 107200, "pitch": 58, "duration": 80, "velocity": 96}, {"time": 107280, "pitch": 55, "duration": 160, "velocity": 89}, {"time": 107440, "pitch": 58, "duration": 70, "velocity": 79}, {"time": 107520, "pitch": 55, "duration": 210, "velocity": 103}, {"time": 107760, "pitch": 60, "duration": 140, "velocity": 87}, {"time": 107920, "pitch": 58, "duration": 60, "velocity": 112}, {"time": 108160, "pitch": 58, "duration": 80, "velocity": 75}, {"time": 108240, "pitch": 58, "duration": 160, "velocity": 102}, {"time": 108400, "pitch": 58, "duration": 80, "velocity": 89}, {"time": 108640, "pitch": 58, "duration": 80, "velocity": 75}, {"time": 108720, "pitch": 58, "duration": 160, "velocity": 102}, {"time": 108880, "pitch": 58, "duration": 70, "velocity": 75}, {"time": 109120, "pitch": 58, "duration": 80, "velocity": 96}, {"time": 109200, "pitch": 55, "duration": 160, "velocity": 89}, {"time": 109360, "pitch": 58, "duration": 70, "velocity": 79}, {"time": 109440, "pitch": 55, "duration": 210, "velocity": 103}, {"time": 109680, "pitch": 60, "duration": 140, "velocity": 87}, {"time": 109840, "pitch": 58, "duration": 60, "velocity": 112}, {"time": 110080, "pitch": 60, "duration": 80, "velocity": 83}, {"time": 110160, "pitch": 60, "duration": 160, "velocity": 103}, {"time": 110320, "pitch": 60, "duration": 80, "velocity": 92}, {"time": 110560, "pitch": 60, "duration": 80, "velocity": 75}, {"time": 110640, "pitch": 60, "duration": 160, "velocity": 101}, {"time": 110800, "pitch": 60, "duration": 70, "velocity": 80}, {"time": 111040, "pitch": 58, "duration": 80, "velocity": 103}, {"time": 111120, "pitch": 60, "duration": 130, "velocity": 93}, {"time": 111360, "pitch": 63, "duration": 160, "velocity": 89}, {"time": 111520, "pitch": 63, "duration": 60, "velocity": 67}, {"time": 111600, "pitch": 65, "duration": 140, "velocity": 92}, {"time": 111760, "pitch": 63, "duration": 60, "velocity": 82}, {"time": 112000, "pitch": 58, "duration": 80, "velocity": 75}, {"time": 112080, "pitch": 58, "duration": 160, "velocity": 102}, {"time": 112240, "pitch": 58, "duration": 80, "velocity": 89}, {"time": 112480, "pitch": 58, "duration": 80, "velocity": 75}, {"time": 112560, "pitch": 58, "duration": 160, "velocity": 102}, {"time": 112720, "pitch": 58, "duration": 70, "velocity": 75}, {"time": 112960, "pitch": 58, "duration": 80, "velocity": 96}, {"time": 113040, "pitch": 55, "duration": 160, "velocity": 89}, {"time": 113200, "pitch": 58, "duration": 70, "velocity": 79}, {"time": 113280, "pitch": 55, "duration": 210, "velocity": 103}, {"time": 113520, "pitch": 60, "duration": 140, "velocity": 87}, {"time": 113680, "pitch": 58, "duration": 60, "velocity": 112}, {"time": 114000, "pitch": 58, "duration": 160, "velocity": 119}, {"time": 114160, "pitch": 58, "duration": 80, "velocity": 108}, {"time": 114400, "pitch": 58, "duration": 80, "velocity": 96}, {"time": 114480, "pitch": 58, "duration": 160, "velocity": 116}, {"time": 114640, "pitch": 58, "duration": 70, "velocity": 94}, {"time": 114880, "pitch": 58, "duration": 80, "velocity": 94}, {"time": 114960, "pitch": 58, "duration": 160, "velocity": 112}, {"time": 115120, "pitch": 58, "duration": 80, "velocity": 102}, {"time": 115360, "pitch": 58, "duration": 80, "velocity": 99}, {"time": 115440, "pitch": 58, "duration": 160, "velocity": 117}, {"time": 115600, "pitch": 58, "duration": 70, "velocity": 94}, {"time": 115680, "pitch": 58, "duration": 160, "velocity": 109}, {"time": 115840, "pitch": 58, "duration": 80, "velocity": 99}, {"time": 115920, "pitch": 58, "duration": 160, "velocity": 110}, {"time": 116080, "pitch": 58, "duration": 80, "velocity": 102}, {"time": 116320, "pitch": 58, "duration": 80, "velocity": 95}, {"time": 116400, "pitch": 58, "duration": 160, "velocity": 111}, {"time": 116560, "pitch": 58, "duration": 70, "velocity": 96}, {"time": 116800, "pitch": 58, "duration": 80, "velocity": 119}, {"time": 116880, "pitch": 60, "duration": 130, "velocity": 105}, {"time": 117040, "pitch": 58, "duration": 50, "velocity": 92}, {"time": 117120, "pitch": 63, "duration": 160, "velocity": 127}, {"time": 117280, "pitch": 63, "duration": 60, "velocity": 127}, {"time": 117360, "pitch": 65, "duration": 140, "velocity": 103}, {"time": 117520, "pitch": 63, "duration": 60, "velocity": 97}, {"time": 117760, "pitch": 58, "duration": 80, "velocity": 96}, {"time": 117840, "pitch": 58, "duration": 160, "velocity": 119}, {"time": 118000, "pitch": 58, "duration": 80, "velocity": 100}, {"time": 118240, "pitch": 58, "duration": 80, "velocity": 97}, {"time": 118320, "pitch": 58, "duration": 160, "velocity": 110}, {"time": 118480, "pitch": 58, "duration": 70, "velocity": 99}, {"time": 118720, "pitch": 58, "duration": 80, "velocity": 110}, {"time": 118800, "pitch": 60, "duration": 130, "velocity": 106}, {"time": 119040, "pitch": 63, "duration": 210, "velocity": 113}, {"time": 119280, "pitch": 60, "duration": 140, "velocity": 94}, {"time": 119440, "pitch": 58, "duration": 60, "velocity": 123}, {"time": 119680, "pitch": 58, "duration": 80, "velocity": 98}, {"time": 119760, "pitch": 58, "duration": 160, "velocity": 113}, {"time": 119920, "pitch": 58, "duration": 80, "velocity": 100}, {"time": 120160, "pitch": 58, "duration": 80, "velocity": 96}, {"time": 120240, "pitch": 58, "duration": 160, "velocity": 115}, {"time": 120400, "pitch": 58, "duration": 70, "velocity": 95}, {"time": 120640, "pitch": 58, "duration": 80, "velocity": 114}, {"time": 120720, "pitch": 60, "duration": 130, "velocity": 100}, {"time": 120880, "pitch": 58, "duration": 50, "velocity": 98}, {"time": 120960, "pitch": 63, "duration": 160, "velocity": 104}, {"time": 121120, "pitch": 63, "duration": 60, "velocity": 84}, {"time": 121200, "pitch": 65, "duration": 140, "velocity": 109}, {"time": 121360, "pitch": 63, "duration": 60, "velocity": 98}, {"time": 121600, "pitch": 58, "duration": 80, "velocity": 91}, {"time": 121680, "pitch": 58, "duration": 160, "velocity": 110}, {"time": 121840, "pitch": 58, "duration": 80, "velocity": 101}, {"time": 122080, "pitch": 58, "duration": 80, "velocity": 99}, {"time": 122160, "pitch": 58, "duration": 160, "velocity": 119}, {"time": 122320, "pitch": 58, "duration": 70, "velocity": 96}, {"time": 122560, "pitch": 58, "duration": 80, "velocity": 112}, {"time": 122640, "pitch": 60, "duration": 130, "velocity": 108}, {"time": 122800, "pitch": 58, "duration": 50, "velocity": 99}, {"time": 122880, "pitch": 63, "duration": 210, "velocity": 115}, {"time": 123120, "pitch": 60, "duration": 140, "velocity": 96}, {"time": 123280, "pitch": 58, "duration": 60, "velocity": 123}, {"time": 123520, "pitch": 58, "duration": 80, "velocity": 97}, {"time": 123600, "pitch": 58, "duration": 160, "velocity": 111}, {"time": 123760, "pitch": 58, "duration": 80, "velocity": 104}, {"time": 124000, "pitch": 58, "duration": 80, "velocity": 91}, {"time": 124080, "pitch": 58, "duration": 160, "velocity": 112}, {"time": 124240, "pitch": 58, "duration": 70, "velocity": 96}, {"time": 124480, "pitch": 58, "duration": 80, "velocity": 112}, {"time": 124560, "pitch": 60, "duration": 130, "velocity": 102}, {"time": 124720, "pitch": 58, "duration": 50, "velocity": 94}, {"time": 124800, "pitch": 63, "duration": 160, "velocity": 127}, {"time": 124960, "pitch": 63, "duration": 60, "velocity": 127}, {"time": 125040, "pitch": 65, "duration": 140, "velocity": 102}, {"time": 125200, "pitch": 63, "duration": 60, "velocity": 97}, {"time": 125440, "pitch": 58, "duration": 80, "velocity": 99}, {"time": 125520, "pitch": 58, "duration": 160, "velocity": 117}, {"time": 125680, "pitch": 58, "duration": 80, "velocity": 106}, {"time": 125920, "pitch": 58, "duration": 80, "velocity": 96}, {"time": 126000, "pitch": 58, "duration": 160, "velocity": 112}, {"time": 126160, "pitch": 58, "duration": 70, "velocity": 92}, {"time": 126400, "pitch": 58, "duration": 80, "velocity": 112}, {"time": 126480, "pitch": 60, "duration": 160, "velocity": 103}, {"time": 126640, "pitch": 60, "duration": 70, "velocity": 97}, {"time": 126720, "pitch": 63, "duration": 210, "velocity": 111}, {"time": 126960, "pitch": 60, "duration": 140, "velocity": 95}, {"time": 127120, "pitch": 58, "duration": 60, "velocity": 125}, {"time": 127200, "pitch": 63, "duration": 161, "velocity": 115}, {"time": 127440, "pitch": 65, "duration": 147, "velocity": 108}, {"time": 127680, "pitch": 67, "duration": 221, "velocity": 109}, {"time": 127920, "pitch": 65, "duration": 221, "velocity": 110}, {"time": 129280, "pitch": 58, "duration": 80, "velocity": 75}, {"time": 129360, "pitch": 58, "duration": 160, "velocity": 102}, {"time": 129520, "pitch": 58, "duration": 80, "velocity": 89}, {"time": 129760, "pitch": 58, "duration": 80, "velocity": 75}, {"time": 129840, "pitch": 58, "duration": 160, "velocity": 102}, {"time": 130000, "pitch": 58, "duration": 70, "velocity": 75}, {"time": 130240, "pitch": 58, "duration": 80, "velocity": 96}, {"time": 130320, "pitch": 55, "duration": 160, "velocity": 89}, {"time": 130480, "pitch": 58, "duration": 70, "velocity": 79}, {"time": 130560, "pitch": 55, "duration": 210, "velocity": 103}, {"time": 130800, "pitch": 60, "duration": 140, "velocity": 87}, {"time": 130960, "pitch": 58, "duration": 60, "velocity": 112}, {"time": 131200, "pitch": 58, "duration": 80, "velocity": 75}, {"time": 131280, "pitch": 58, "duration": 160, "velocity": 102}, {"time": 131440, "pitch": 58, "duration": 80, "velocity": 89}, {"time": 131680, "pitch": 58, "duration": 80, "velocity": 75}, {"time": 131760, "pitch": 58, "duration": 160, "velocity": 102}, {"time": 131920, "pitch": 58, "duration": 70, "velocity": 75}, {"time": 132160, "pitch": 58, "duration": 80, "velocity": 96}, {"time": 132240, "pitch": 55, "duration": 160, "velocity": 89}, {"time": 132400, "pitch": 58, "duration": 70, "velocity": 79}, {"time": 132480, "pitch": 55, "duration": 210, "velocity": 103}, {"time": 132720, "pitch": 60, "duration": 140, "velocity": 87}, {"time": 132880, "pitch": 58, "duration": 60, "velocity": 112}, {"time": 133120, "pitch": 60, "duration": 80, "velocity": 83}, {"time": 133200, "pitch": 60, "duration": 160, "velocity": 103}, {"time": 133360, "pitch": 60, "duration": 80, "velocity": 92}, {"time": 133600, "pitch": 60, "duration": 80, "velocity": 75}, {"time": 133680, "pitch": 60, "duration": 160, "velocity": 101}, {"time": 133840, "pitch": 60, "duration": 70, "velocity": 80}, {"time": 134080, "pitch": 58, "duration": 80, "velocity": 103}, {"time": 134160, "pitch": 60, "duration": 130, "velocity": 93}, {"time": 134400, "pitch": 63, "duration": 160, "velocity": 89}, {"time": 134560, "pitch": 63, "duration": 60, "velocity": 67}, {"time": 134640, "pitch": 65, "duration": 140, "velocity": 92}, {"time": 134800, "pitch": 63, "duration": 60, "velocity": 82}, {"time": 135040, "pitch": 58, "duration": 80, "velocity": 75}, {"time": 135120, "pitch": 58, "duration": 160, "velocity": 102}, {"time": 135280, "pitch": 58, "duration": 80, "velocity": 89}, {"time": 135520, "pitch": 58, "duration": 80, "velocity": 75}, {"time": 135600, "pitch": 58, "duration": 160, "velocity": 102}, {"time": 135760, "pitch": 58, "duration": 70, "velocity": 75}, {"time": 136000, "pitch": 58, "duration": 80, "velocity": 96}, {"time": 136080, "pitch": 55, "duration": 160, "velocity": 89}, {"time": 136240, "pitch": 58, "duration": 70, "velocity": 79}, {"time": 136320, "pitch": 55, "duration": 210, "velocity": 103}, {"time": 136560, "pitch": 60, "duration": 140, "velocity": 87}, {"time": 136720, "pitch": 58, "duration": 60, "velocity": 112}, {"time": 136960, "pitch": 60, "duration": 80, "velocity": 83}, {"time": 137040, "pitch": 60, "duration": 160, "velocity": 103}, {"time": 137200, "pitch": 60, "duration": 80, "velocity": 92}, {"time": 137440, "pitch": 60, "duration": 80, "velocity": 75}, {"time": 137520, "pitch": 60, "duration": 160, "velocity": 101}, {"time": 137680, "pitch": 60, "duration": 70, "velocity": 80}, {"time": 137920, "pitch": 58, "duration": 80, "velocity": 103}, {"time": 138000, "pitch": 60, "duration": 130, "velocity": 93}, {"time": 138240, "pitch": 63, "duration": 160, "velocity": 89}, {"time": 138400, "pitch": 63, "duration": 60, "velocity": 67}, {"time": 138480, "pitch": 65, "duration": 140, "velocity": 92}, {"time": 138640, "pitch": 63, "duration": 60, "velocity": 82}, {"time": 138880, "pitch": 58, "duration": 80, "velocity": 75}, {"time": 138960, "pitch": 58, "duration": 160, "velocity": 102}, {"time": 139120, "pitch": 58, "duration": 80, "velocity": 89}, {"time": 139360, "pitch": 58, "duration": 80, "velocity": 75}, {"time": 139440, "pitch": 58, "duration": 160, "velocity": 102}, {"time": 139600, "pitch": 58, "duration": 70, "velocity": 75}, {"time": 139840, "pitch": 58, "duration": 80, "velocity": 96}, {"time": 139920, "pitch": 55, "duration": 160, "velocity": 89}, {"time": 140080, "pitch": 58, "duration": 70, "velocity": 79}, {"time": 140160, "pitch": 55, "duration": 210, "velocity": 103}, {"time": 140400, "pitch": 60, "duration": 140, "velocity": 87}, {"time": 140560, "pitch": 58, "duration": 60, "velocity": 112}, {"time": 140800, "pitch": 60, "duration": 80, "velocity": 83}, {"time": 140880, "pitch": 60, "duration": 160, "velocity": 103}, {"time": 141040, "pitch": 60, "duration": 80, "velocity": 92}, {"time": 141280, "pitch": 60, "duration": 80, "velocity": 75}, {"time": 141360, "pitch": 60, "duration": 160, "velocity": 101}, {"time": 141520, "pitch": 60, "duration": 70, "velocity": 80}, {"time": 141760, "pitch": 58, "duration": 80, "velocity": 103}, {"time": 141840, "pitch": 60, "duration": 130, "velocity": 93}, {"time": 142080, "pitch": 63, "duration": 160, "velocity": 89}, {"time": 142240, "pitch": 63, "duration": 60, "velocity": 67}, {"time": 142320, "pitch": 65, "duration": 140, "velocity": 92}, {"time": 142480, "pitch": 63, "duration": 60, "velocity": 82}, {"time": 142720, "pitch": 58, "duration": 80, "velocity": 75}, {"time": 142800, "pitch": 58, "duration": 160, "velocity": 102}, {"time": 142960, "pitch": 58, "duration": 80, "velocity": 89}, {"time": 143200, "pitch": 58, "duration": 80, "velocity": 75}, {"time": 143280, "pitch": 58, "duration": 160, "velocity": 102}, {"time": 143440, "pitch": 58, "duration": 70, "velocity": 75}, {"time": 143680, "pitch": 58, "duration": 80, "velocity": 96}, {"time": 143760, "pitch": 55, "duration": 160, "velocity": 89}, {"time": 143920, "pitch": 58, "duration": 70, "velocity": 79}, {"time": 144000, "pitch": 55, "duration": 210, "velocity": 103}, {"time": 144240, "pitch": 60, "duration": 140, "velocity": 87}, {"time": 144400, "pitch": 58, "duration": 60, "velocity": 112}, {"time": 144640, "pitch": 58, "duration": 80, "velocity": 75}, {"time": 144720, "pitch": 58, "duration": 160, "velocity": 102}, {"time": 144880, "pitch": 58, "duration": 80, "velocity": 89}, {"time": 145120, "pitch": 58, "duration": 80, "velocity": 75}, {"time": 145200, "pitch": 58, "duration": 160, "velocity": 102}, {"time": 145360, "pitch": 58, "duration": 70, "velocity": 75}, {"time": 145600, "pitch": 58, "duration": 80, "velocity": 96}, {"time": 145680, "pitch": 55, "duration": 160, "velocity": 89}, {"time": 145840, "pitch": 58, "duration": 70, "velocity": 79}, {"time": 145920, "pitch": 55, "duration": 210, "velocity": 103}, {"time": 146160, "pitch": 60, "duration": 140, "velocity": 87}, {"time": 146320, "pitch": 58, "duration": 60, "velocity": 112}, {"time": 146560, "pitch": 60, "duration": 80, "velocity": 83}, {"time": 146640, "pitch": 60, "duration": 160, "velocity": 103}, {"time": 146800, "pitch": 60, "duration": 80, "velocity": 92}, {"time": 147040, "pitch": 60, "duration": 80, "velocity": 75}, {"time": 147120, "pitch": 60, "duration": 160, "velocity": 101}, {"time": 147280, "pitch": 60, "duration": 70, "velocity": 80}, {"time": 147520, "pitch": 58, "duration": 80, "velocity": 103}, {"time": 147600, "pitch": 60, "duration": 130, "velocity": 93}, {"time": 147840, "pitch": 63, "duration": 160, "velocity": 89}, {"time": 148000, "pitch": 63, "duration": 60, "velocity": 67}, {"time": 148080, "pitch": 65, "duration": 140, "velocity": 92}, {"time": 148240, "pitch": 63, "duration": 60, "velocity": 82}, {"time": 148480, "pitch": 60, "duration": 80, "velocity": 83}, {"time": 148560, "pitch": 60, "duration": 160, "velocity": 103}, {"time": 148720, "pitch": 60, "duration": 80, "velocity": 92}, {"time": 148960, "pitch": 60, "duration": 80, "velocity": 75}, {"time": 149040, "pitch": 60, "duration": 160, "velocity": 101}, {"time": 149200, "pitch": 60, "duration": 70, "velocity": 80}, {"time": 149440, "pitch": 58, "duration": 80, "velocity": 103}, {"time": 149520, "pitch": 60, "duration": 130, "velocity": 93}, {"time": 149760, "pitch": 63, "duration": 160, "velocity": 89}, {"time": 149920, "pitch": 63, "duration": 60, "velocity": 67}, {"time": 150000, "pitch": 65, "duration": 140, "velocity": 92}, {"time": 150160, "pitch": 63, "duration": 60, "velocity": 82}, {"time": 150400, "pitch": 58, "duration": 80, "velocity": 70}, {"time": 150480, "pitch": 58, "duration": 160, "velocity": 97}, {"time": 150640, "pitch": 58, "duration": 80, "velocity": 84}, {"time": 150880, "pitch": 58, "duration": 80, "velocity": 70}, {"time": 150960, "pitch": 58, "duration": 160, "velocity": 97}, {"time": 151120, "pitch": 58, "duration": 70, "velocity": 70}, {"time": 151360, "pitch": 58, "duration": 80, "velocity": 91}, {"time": 151440, "pitch": 55, "duration": 160, "velocity": 84}, {"time": 151600, "pitch": 58, "duration": 70, "velocity": 74}, {"time": 151680, "pitch": 55, "duration": 210, "velocity": 98}, {"time": 151920, "pitch": 60, "duration": 140, "velocity": 82}, {"time": 152080, "pitch": 58, "duration": 60, "velocity": 107}, {"time": 152320, "pitch": 58, "duration": 80, "velocity": 90}, {"time": 152400, "pitch": 58, "duration": 160, "velocity": 117}, {"time": 152560, "pitch": 58, "duration": 80, "velocity": 104}, {"time": 152800, "pitch": 58, "duration": 80, "velocity": 90}, {"time": 152880, "pitch": 58, "duration": 160, "velocity": 117}, {"time": 153040, "pitch": 58, "duration": 70, "velocity": 90}, {"time": 153280, "pitch": 58, "duration": 80, "velocity": 111}, {"time": 153360, "pitch": 60, "duration": 160, "velocity": 104}, {"time": 153520, "pitch": 60, "duration": 70, "velocity": 94}, {"time": 153600, "pitch": 63, "duration": 210, "velocity": 118}, {"time": 153840, "pitch": 60, "duration": 140, "velocity": 102}, {"time": 154000, "pitch": 58, "duration": 60, "velocity": 127}, {"time": 154240, "pitch": 58, "duration": 80, "velocity": 98}, {"time": 154320, "pitch": 58, "duration": 160, "velocity": 118}, {"time": 154480, "pitch": 58, "duration": 80, "velocity": 107}, {"time": 154720, "pitch": 58, "duration": 80, "velocity": 90}, {"time": 154800, "pitch": 58, "duration": 160, "velocity": 116}, {"time": 154960, "pitch": 58, "duration": 70, "velocity": 95}, {"time": 155200, "pitch": 58, "duration": 80, "velocity": 118}, {"time": 155280, "pitch": 60, "duration": 130, "velocity": 108}, {"time": 155520, "pitch": 63, "duration": 160, "velocity": 104}, {"time": 155680, "pitch": 63, "duration": 60, "velocity": 82}, {"time": 155760, "pitch": 65, "duration": 140, "velocity": 107}, {"time": 155920, "pitch": 63, "duration": 60, "velocity": 97}, {"time": 165600, "pitch": 58, "duration": 160, "velocity": 109}, {"time": 165760, "pitch": 58, "duration": 80, "velocity": 99}, {"time": 165840, "pitch": 58, "duration": 160, "velocity": 110}, {"time": 166000, "pitch": 58, "duration": 80, "velocity": 102}, {"time": 166240, "pitch": 58, "duration": 80, "velocity": 95}, {"time": 166320, "pitch": 58, "duration": 160, "velocity": 111}, {"time": 166480, "pitch": 58, "duration": 70, "velocity": 96}, {"time": 166720, "pitch": 58, "duration": 80, "velocity": 119}, {"time": 166800, "pitch": 60, "duration": 130, "velocity": 105}, {"time": 166960, "pitch": 58, "duration": 50, "velocity": 92}, {"time": 167040, "pitch": 63, "duration": 160, "velocity": 127}, {"time": 167200, "pitch": 63, "duration": 60, "velocity": 127}, {"time": 167280, "pitch": 65, "duration": 140, "velocity": 103}, {"time": 167440, "pitch": 63, "duration": 60, "velocity": 97}, {"time": 167680, "pitch": 58, "duration": 80, "velocity": 96}, {"time": 167760, "pitch": 58, "duration": 160, "velocity": 119}, {"time": 167920, "pitch": 58, "duration": 80, "velocity": 100}, {"time": 168160, "pitch": 58, "duration": 80, "velocity": 97}, {"time": 168240, "pitch": 58, "duration": 160, "velocity": 110}, {"time": 168400, "pitch": 58, "duration": 70, "velocity": 99}, {"time": 168640, "pitch": 58, "duration": 80, "velocity": 110}, {"time": 168720, "pitch": 60, "duration": 130, "velocity": 106}, {"time": 168960, "pitch": 63, "duration": 210, "velocity": 113}, {"time": 169200, "pitch": 60, "duration": 140, "velocity": 94}, {"time": 169360, "pitch": 58, "duration": 60, "velocity": 123}, {"time": 169440, "pitch": 58, "duration": 160, "velocity": 109}, {"time": 169600, "pitch": 58, "duration": 80, "velocity": 99}, {"time": 169680, "pitch": 58, "duration": 160, "velocity": 110}, {"time": 169840, "pitch": 58, "duration": 80, "velocity": 102}, {"time": 170080, "pitch": 58, "duration": 80, "velocity": 95}, {"time": 170160, "pitch": 58, "duration": 160, "velocity": 111}, {"time": 170320, "pitch": 58, "duration": 70, "velocity": 96}, {"time": 170560, "pitch": 58, "duration": 80, "velocity": 119}, {"time": 170640, "pitch": 60, "duration": 130, "velocity": 105}, {"time": 170800, "pitch": 58, "duration": 50, "velocity": 92}, {"time": 170880, "pitch": 63, "duration": 160, "velocity": 127}, {"time": 171040, "pitch": 63, "duration": 60, "velocity": 127}, {"time": 171120, "pitch": 65, "duration": 140, "velocity": 103}, {"time": 171280, "pitch": 63, "duration": 60, "velocity": 97}], "annotations": [{"time": 258, "annotation": {"number": 7, "value": 120}, "group": "control_change"}, {"time": 277, "annotation": {"number": 11, "value": 120}, "group": "control_change"}, {"time": 295, "annotation": {"number": 10, "value": 24}, "group": "control_change"}, {"time": 314, "annotation": {"number": 91, "value": 30}, "group": "control_change"}, {"time": 332, "annotation": {"number": 93, "value": 0}, "group": "control_change"}, {"time": 351, "annotation": {"number": 94, "value": 0}, "group": "control_change"}, {"time": 369, "annotation": {"number": 101, "value": 0}, "group": "control_change"}, {"time": 388, "annotation": {"number": 100, "value": 0}, "group": "control_change"}, {"time": 406, "annotation": {"number": 6, "value": 12}, "group": "control_change"}, {"time": 425, "annotation": {"number": 101, "value": 127}, "group": "control_change"}, {"time": 443, "annotation": {"number": 100, "value": 127}, "group": "control_change"}, {"time": 2510, "annotation": {"number": 1, "value": 0}, "group": "control_change"}]}, {"program": 0, "is_drum": false, "name": "HIT", "annotations": [{"time": 240, "annotation": {"number": 0, "value": 0}, "group": "control_change"}, {"time": 240, "annotation": {"number": 32, "value": 0}, "group": "control_change"}]}, {"program": 55, "is_drum": false, "name": "HIT", "notes": [{"time": 8160, "pitch": 60, "duration": 260, "velocity": 115}, {"time": 15840, "pitch": 60, "duration": 10, "velocity": 114}, {"time": 15840, "pitch": 60, "duration": 10, "velocity": 117}, {"time": 21600, "pitch": 72, "duration": 110, "velocity": 127}, {"time": 21840, "pitch": 72, "duration": 110, "velocity": 127}, {"time": 73440, "pitch": 72, "duration": 110, "velocity": 127}, {"time": 73680, "pitch": 72, "duration": 110, "velocity": 127}, {"time": 73920, "pitch": 72, "duration": 110, "velocity": 127}, {"time": 88800, "pitch": 72, "duration": 110, "velocity": 127}, {"time": 88800, "pitch": 84, "duration": 110, "velocity": 127}, {"time": 89040, "pitch": 72, "duration": 120, "velocity": 127}, {"time": 89040, "pitch": 84, "duration": 120, "velocity": 127}, {"time": 89280, "pitch": 72, "duration": 110, "velocity": 127}, {"time": 89280, "pitch": 84, "duration": 110, "velocity": 127}, {"time": 90720, "pitch": 60, "duration": 1890, "velocity": 96}, {"time": 98400, "pitch": 60, "duration": 250, "velocity": 115}, {"time": 98400, "pitch": 60, "duration": 250, "velocity": 117}, {"time": 104160, "pitch": 60, "duration": 110, "velocity": 125}, {"time": 104160, "pitch": 72, "duration": 110, "velocity": 127}, {"time": 104400, "pitch": 60, "duration": 110, "velocity": 124}, {"time": 104400, "pitch": 72, "duration": 110, "velocity": 127}, {"time": 104640, "pitch": 60, "duration": 110, "velocity": 127}, {"time": 104640, "pitch": 72, "duration": 110, "velocity": 127}, {"time": 156000, "pitch": 60, "duration": 110, "velocity": 125}, {"time": 156000, "pitch": 72, "duration": 110, "velocity": 127}, {"time": 156240, "pitch": 60, "duration": 110, "velocity": 124}, {"time": 156240, "pitch": 72, "duration": 110, "velocity": 127}, {"time": 156480, "pitch": 60, "duration": 110, "velocity": 127}, {"time": 156480, "pitch": 72, "duration": 110, "velocity": 127}, {"time": 157920, "pitch": 60, "duration": 260, "velocity": 115}, {"time": 165600, "pitch": 60, "duration": 250, "velocity": 117}, {"time": 171360, "pitch": 72, "duration": 110, "velocity": 127}, {"time": 171600, "pitch": 72, "duration": 110, "velocity": 127}, {"time": 173280, "pitch": 60, "duration": 110, "velocity": 115}, {"time": 173280, "pitch": 72, "duration": 110, "velocity": 126}, {"time": 173520, "pitch": 60, "duration": 110, "velocity": 114}, {"time": 173520, "pitch": 72, "duration": 110, "velocity": 121}, {"time": 173760, "pitch": 60, "duration": 110, "velocity": 117}, {"time": 173760, "pitch": 72, "duration": 110, "velocity": 121}], "annotations": [{"time": 258, "annotation": {"number": 7, "value": 120}, "group": "control_change"}, {"time": 277, "annotation": {"number": 11, "value": 120}, "group": "control_change"}, {"time": 295, "annotation": {"number": 10, "value": 64}, "group": "control_change"}, {"time": 314, "annotation": {"number": 91, "value": 30}, "group": "control_change"}, {"time": 332, "annotation": {"number": 93, "value": 0}, "group": "control_change"}, {"time": 351, "annotation": {"number": 94, "value": 0}, "group": "control_change"}, {"time": 369, "annotation": {"number": 101, "value": 0}, "group": "control_change"}, {"time": 388, "annotation": {"number": 100, "value": 0}, "group": "control_change"}, {"time": 406, "annotation": {"number": 6, "value": 12}, "group": "control_change"}, {"time": 425, "annotation": {"number": 101, "value": 127}, "group": "control_change"}, {"time": 443, "annotation": {"number": 100, "value": 127}, "group": "control_change"}, {"time": 740, "annotation": {"number": 11, "value": 50}, "group": "control_change"}, {"time": 780, "annotation": {"number": 11, "value": 49}, "group": "control_change"}, {"time": 820, "annotation": {"number": 11, "value": 47}, "group": "control_change"}, {"time": 860, "annotation": {"number": 11, "value": 45}, "group": "control_change"}, {"time": 900, "annotation": {"number": 11, "value": 43}, "group": "control_change"}, {"time": 940, "annotation": {"number": 11, "value": 42}, "group": "control_change"}, {"time": 980, "annotation": {"number": 11, "value": 41}, "group": "control_change"}, {"time": 1020, "annotation": {"number": 11, "value": 39}, "group": "control_change"}, {"time": 1060, "annotation": {"number": 11, "value": 37}, "group": "control_change"}, {"time": 1100, "annotation": {"number": 11, "value": 36}, "group": "control_change"}, {"time": 1140, "annotation": {"number": 11, "value": 34}, "group": "control_change"}, {"time": 1180, "annotation": {"number": 11, "value": 33}, "group": "control_change"}, {"time": 1220, "annotation": {"number": 11, "value": 31}, "group": "control_change"}, {"time": 1260, "annotation": {"number": 11, "value": 30}, "group": "control_change"}, {"time": 1300, "annotation": {"number": 11, "value": 29}, "group": "control_change"}, {"time": 1340, "annotation": {"number": 11, "value": 27}, "group": "control_change"}, {"time": 1380, "annotation": {"number": 11, "value": 25}, "group": "control_change"}, {"time": 1420, "annotation": {"number": 11, "value": 24}, "group": "control_change"}, {"time": 1460, "annotation": {"number": 11, "value": 22}, "group": "control_change"}, {"time": 1500, "annotation": {"number": 11, "value": 20}, "group": "control_change"}, {"time": 1540, "annotation": {"number": 11, "value": 19}, "group": "control_change"}, {"time": 1580, "annotation": {"number": 11, "value": 17}, "group": "control_change"}, {"time": 1620, "annotation": {"number": 11, "value": 16}, "group": "control_change"}, {"time": 1660, "annotation": {"number": 11, "value": 15}, "group": "control_change"}, {"time": 1700, "annotation": {"number": 11, "value": 14}, "group": "control_change"}, {"time": 1740, "annotation": {"number": 11, "value": 13}, "group": "control_change"}, {"time": 1780, "annotation": {"number": 11, "value": 12}, "group": "control_change"}, {"time": 1820, "annotation": {"number": 11, "value": 10}, "group": "control_change"}, {"time": 1860, "annotation": {"number": 11, "value": 8}, "group": "control_change"}, {"time": 1900, "annotation": {"number": 11, "value": 7}, "group": "control_change"}, {"time": 1940, "annotation": {"number": 11, "value": 5}, "group": "control_change"}, {"time": 1980, "annotation": {"number": 11, "value": 4}, "group": "control_change"}, {"time": 2020, "annotation": {"number": 11, "value": 2}, "group": "control_change"}, {"time": 2060, "annotation": {"number": 11, "value": 1}, "group": "control_change"}, {"time": 2100, "annotation": {"number": 11, "value": 0}, "group": "control_change"}, {"time": 2140, "annotation": {"number": 11, "value": 0}, "group": "control_change"}, {"time": 2180, "annotation": {"number": 11, "value": 0}, "group": "control_change"}, {"time": 2220, "annotation": {"number": 11, "value": 0}, "group": "control_change"}, {"time": 2260, "annotation": {"number": 11, "value": 0}, "group": "control_change"}, {"time": 2300, "annotation": {"number": 11, "value": 0}, "group": "control_change"}, {"time": 2340, "annotation": {"number": 11, "value": 0}, "group": "control_change"}, {"time": 2380, "annotation": {"number": 11, "value": 0}, "group": "control_change"}, {"time": 2510, "annotation": {"number": 1, "value": 0}, "group": "control_change"}, {"time": 8060, "annotation": {"number": 11, "value": 110}, "group": "control_change"}, {"time": 90980, "annotation": {"number": 11, "value": 50}, "group": "control_change"}, {"time": 91020, "annotation": {"number": 11, "value": 49}, "group": "control_change"}, {"time": 91060, "annotation": {"number": 11, "value": 47}, "group": "control_change"}, {"time": 91100, "annotation": {"number": 11, "value": 45}, "group": "control_change"}, {"time": 91140, "annotation": {"number": 11, "value": 43}, "group": "control_change"}, {"time": 91180, "annotation": {"number": 11, "value": 42}, "group": "control_change"}, {"time": 91220, "annotation": {"number": 11, "value": 41}, "group": "control_change"}, {"time": 91260, "annotation": {"number": 11, "value": 39}, "group": "control_change"}, {"time": 91300, "annotation": {"number": 11, "value": 37}, "group": "control_change"}, {"time": 91340, "annotation": {"number": 11, "value": 36}, "group": "control_change"}, {"time": 91380, "annotation": {"number": 11, "value": 34}, "group": "control_change"}, {"time": 91420, "annotation": {"number": 11, "value": 33}, "group": "control_change"}, {"time": 91460, "annotation": {"number": 11, "value": 31}, "group": "control_change"}, {"time": 91500, "annotation": {"number": 11, "value": 30}, "group": "control_change"}, {"time": 91540, "annotation": {"number": 11, "value": 29}, "group": "control_change"}, {"time": 91580, "annotation": {"number": 11, "value": 27}, "group": "control_change"}, {"time": 91620, "annotation": {"number": 11, "value": 25}, "group": "control_change"}, {"time": 91660, "annotation": {"number": 11, "value": 24}, "group": "control_change"}, {"time": 91700, "annotation": {"number": 11, "value": 22}, "group": "control_change"}, {"time": 91740, "annotation": {"number": 11, "value": 20}, "group": "control_change"}, {"time": 91780, "annotation": {"number": 11, "value": 19}, "group": "control_change"}, {"time": 91820, "annotation": {"number": 11, "value": 17}, "group": "control_change"}, {"time": 91860, "annotation": {"number": 11, "value": 16}, "group": "control_change"}, {"time": 91900, "annotation": {"number": 11, "value": 15}, "group": "control_change"}, {"time": 91940, "annotation": {"number": 11, "value": 14}, "group": "control_change"}, {"time": 91980, "annotation": {"number": 11, "value": 13}, "group": "control_change"}, {"time": 92020, "annotation": {"number": 11, "value": 12}, "group": "control_change"}, {"time": 92060, "annotation": {"number": 11, "value": 10}, "group": "control_change"}, {"time": 92100, "annotation": {"number": 11, "value": 8}, "group": "control_change"}, {"time": 92140, "annotation": {"number": 11, "value": 7}, "group": "control_change"}, {"time": 92180, "annotation": {"number": 11, "value": 5}, "group": "control_change"}, {"time": 92220, "annotation": {"number": 11, "value": 4}, "group": "control_change"}, {"time": 92260, "annotation": {"number": 11, "value": 2}, "group": "control_change"}, {"time": 92300, "annotation": {"number": 11, "value": 1}, "group": "control_change"}, {"time": 92340, "annotation": {"number": 11, "value": 0}, "group": "control_change"}, {"time": 92380, "annotation": {"number": 11, "value": 0}, "group": "control_change"}, {"time": 92420, "annotation": {"number": 11, "value": 0}, "group": "control_change"}, {"time": 92460, "annotation": {"number": 11, "value": 0}, "group": "control_change"}, {"time": 92500, "annotation": {"number": 11, "value": 0}, "group": "control_change"}, {"time": 92540, "annotation": {"number": 11, "value": 0}, "group": "control_change"}, {"time": 92580, "annotation": {"number": 11, "value": 0}, "group": "control_change"}, {"time": 92620, "annotation": {"number": 11, "value": 0}, "group": "control_change"}, {"time": 92750, "annotation": {"number": 1, "value": 0}, "group": "control_change"}, {"time": 98300, "annotation": {"number": 11, "value": 110}, "group": "control_change"}]}, {"program": 0, "is_drum": false, "name": "SYNTH SOLO", "annotations": [{"time": 240, "annotation": {"number": 0, "value": 0}, "group": "control_change"}, {"time": 240, "annotation": {"number": 32, "value": 0}, "group": "control_change"}]}, {"program": 81, "is_drum": false, "name": "SYNTH SOLO", "notes": [{"time": 75370, "pitch": 91, "duration": 1130, "velocity": 101}, {"time": 76780, "pitch": 87, "duration": 614, "velocity": 104}, {"time": 77260, "pitch": 89, "duration": 1020, "velocity": 111}, {"time": 78490, "pitch": 91, "duration": 170, "velocity": 108}, {"time": 78710, "pitch": 87, "duration": 170, "velocity": 107}, {"time": 78890, "pitch": 84, "duration": 200, "velocity": 106}, {"time": 79110, "pitch": 87, "duration": 690, "velocity": 105}, {"time": 80540, "pitch": 89, "duration": 250, "velocity": 118}, {"time": 80790, "pitch": 88, "duration": 90, "velocity": 116}, {"time": 80880, "pitch": 87, "duration": 160, "velocity": 115}, {"time": 81040, "pitch": 84, "duration": 70, "velocity": 114}, {"time": 81120, "pitch": 85, "duration": 140, "velocity": 113}, {"time": 81280, "pitch": 87, "duration": 100, "velocity": 112}, {"time": 81380, "pitch": 82, "duration": 140, "velocity": 111}, {"time": 81510, "pitch": 83, "duration": 100, "velocity": 110}, {"time": 81600, "pitch": 84, "duration": 170, "velocity": 109}, {"time": 81840, "pitch": 82, "duration": 140, "velocity": 112}, {"time": 81980, "pitch": 77, "duration": 130, "velocity": 110}, {"time": 82220, "pitch": 78, "duration": 100, "velocity": 107}, {"time": 82320, "pitch": 77, "duration": 150, "velocity": 106}, {"time": 82460, "pitch": 76, "duration": 100, "velocity": 104}, {"time": 82560, "pitch": 75, "duration": 150, "velocity": 103}, {"time": 82720, "pitch": 89, "duration": 210, "velocity": 109}, {"time": 82930, "pitch": 88, "duration": 110, "velocity": 108}, {"time": 83030, "pitch": 87, "duration": 170, "velocity": 107}, {"time": 83270, "pitch": 87, "duration": 160, "velocity": 105}, {"time": 83430, "pitch": 84, "duration": 510, "velocity": 104}, {"time": 84470, "pitch": 84, "duration": 170, "velocity": 119}, {"time": 84630, "pitch": 87, "duration": 100, "velocity": 118}, {"time": 84720, "pitch": 84, "duration": 150, "velocity": 118}, {"time": 84880, "pitch": 85, "duration": 70, "velocity": 117}, {"time": 84970, "pitch": 86, "duration": 160, "velocity": 117}, {"time": 85150, "pitch": 82, "duration": 310, "velocity": 109}, {"time": 85460, "pitch": 77, "duration": 100, "velocity": 114}, {"time": 85690, "pitch": 77, "duration": 120, "velocity": 113}, {"time": 86320, "pitch": 79, "duration": 340, "velocity": 108}, {"time": 86650, "pitch": 82, "duration": 80, "velocity": 109}, {"time": 86890, "pitch": 91, "duration": 440, "velocity": 106}, {"time": 87350, "pitch": 89, "duration": 150, "velocity": 113}, {"time": 87510, "pitch": 88, "duration": 70, "velocity": 109}, {"time": 87600, "pitch": 87, "duration": 130, "velocity": 108}, {"time": 87760, "pitch": 84, "duration": 70, "velocity": 105}, {"time": 87840, "pitch": 86, "duration": 160, "velocity": 103}, {"time": 87990, "pitch": 84, "duration": 120, "velocity": 100}, {"time": 88110, "pitch": 82, "duration": 40, "velocity": 98}, {"time": 88150, "pitch": 84, "duration": 70, "velocity": 97}, {"time": 88220, "pitch": 82, "duration": 60, "velocity": 96}, {"time": 88270, "pitch": 79, "duration": 70, "velocity": 95}, {"time": 88330, "pitch": 80, "duration": 100, "velocity": 94}, {"time": 88480, "pitch": 80, "duration": 80, "velocity": 91}, {"time": 88560, "pitch": 82, "duration": 120, "velocity": 104}, {"time": 88730, "pitch": 91, "duration": 1030, "velocity": 101}], "annotations": [{"time": 258, "annotation": {"number": 7, "value": 120}, "group": "control_change"}, {"time": 277, "annotation": {"number": 11, "value": 120}, "group": "control_change"}, {"time": 295, "annotation": {"number": 10, "value": 64}, "group": "control_change"}, {"time": 314, "annotation": {"number": 91, "value": 50}, "group": "control_change"}, {"time": 332, "annotation": {"number": 93, "value": 50}, "group": "control_change"}, {"time": 351, "annotation": {"number": 94, "value": 30}, "group": "control_change"}, {"time": 369, "annotation": {"number": 101, "value": 0}, "group": "control_change"}, {"time": 388, "annotation": {"number": 100, "value": 0}, "group": "control_change"}, {"time": 406, "annotation": {"number": 6, "value": 2}, "group": "control_change"}, {"time": 425, "annotation": {"number": 101, "value": 127}, "group": "control_change"}, {"time": 443, "annotation": {"number": 100, "value": 127}, "group": "control_change"}, {"time": 76170, "annotation": {"number": 1, "value": 12}, "group": "control_change"}, {"time": 76430, "annotation": {"number": 1, "value": 21}, "group": "control_change"}, {"time": 76440, "annotation": {"number": 1, "value": 30}, "group": "control_change"}, {"time": 76750, "annotation": {"number": 1, "value": 0}, "group": "control_change"}, {"time": 77850, "annotation": {"number": 1, "value": 22}, "group": "control_change"}, {"time": 78030, "annotation": {"number": 1, "value": 0}, "group": "control_change"}, {"time": 78420, "annotation": {"number": 11, "value": 127}, "group": "control_change"}, {"time": 79110, "annotation": {"number": 11, "value": 117}, "group": "control_change"}, {"time": 79250, "annotation": {"number": 11, "value": 112}, "group": "control_change"}, {"time": 79280, "annotation": {"number": 11, "value": 109}, "group": "control_change"}, {"time": 79300, "annotation": {"number": 1, "value": 19}, "group": "control_change"}, {"time": 79310, "annotation": {"number": 11, "value": 106}, "group": "control_change"}, {"time": 79340, "annotation": {"number": 11, "value": 102}, "group": "control_change"}, {"time": 79370, "annotation": {"number": 11, "value": 99}, "group": "control_change"}, {"time": 79400, "annotation": {"number": 11, "value": 96}, "group": "control_change"}, {"time": 79490, "annotation": {"number": 11, "value": 92}, "group": "control_change"}, {"time": 79520, "annotation": {"number": 11, "value": 90}, "group": "control_change"}, {"time": 79530, "annotation": {"number": 1, "value": 28}, "group": "control_change"}, {"time": 79550, "annotation": {"number": 11, "value": 86}, "group": "control_change"}, {"time": 80060, "annotation": {"number": 11, "value": 83}, "group": "control_change"}, {"time": 80090, "annotation": {"number": 11, "value": 80}, "group": "control_change"}, {"time": 80120, "annotation": {"number": 11, "value": 76}, "group": "control_change"}, {"time": 80150, "annotation": {"number": 11, "value": 73}, "group": "control_change"}, {"time": 80180, "annotation": {"number": 11, "value": 70}, "group": "control_change"}, {"time": 80210, "annotation": {"number": 11, "value": 67}, "group": "control_change"}, {"time": 80240, "annotation": {"number": 11, "value": 64}, "group": "control_change"}, {"time": 80270, "annotation": {"number": 11, "value": 60}, "group": "control_change"}, {"time": 80300, "annotation": {"number": 11, "value": 57}, "group": "control_change"}, {"time": 80330, "annotation": {"number": 11, "value": 54}, "group": "control_change"}, {"time": 80370, "annotation": {"number": 1, "value": 0}, "group": "control_change"}, {"time": 80500, "annotation": {"number": 11, "value": 127}, "group": "control_change"}, {"time": 80630, "annotation": {"number": 1, "value": 13}, "group": "control_change"}, {"time": 80740, "annotation": {"number": 1, "value": 21}, "group": "control_change"}, {"time": 80790, "annotation": {"number": 1, "value": 0}, "group": "control_change"}, {"time": 83470, "annotation": {"number": 11, "value": 112}, "group": "control_change"}, {"time": 83480, "annotation": {"number": 11, "value": 110}, "group": "control_change"}, {"time": 83490, "annotation": {"number": 11, "value": 109}, "group": "control_change"}, {"time": 83500, "annotation": {"number": 11, "value": 108}, "group": "control_change"}, {"time": 83510, "annotation": {"number": 11, "value": 106}, "group": "control_change"}, {"time": 83520, "annotation": {"number": 11, "value": 105}, "group": "control_change"}, {"time": 83540, "annotation": {"number": 11, "value": 102}, "group": "control_change"}, {"time": 83550, "annotation": {"number": 11, "value": 100}, "group": "control_change"}, {"time": 83560, "annotation": {"number": 11, "value": 98}, "group": "control_change"}, {"time": 83580, "annotation": {"number": 11, "value": 97}, "group": "control_change"}, {"time": 83590, "annotation": {"number": 11, "value": 96}, "group": "control_change"}, {"time": 83600, "annotation": {"number": 11, "value": 95}, "group": "control_change"}, {"time": 83610, "annotation": {"number": 11, "value": 94}, "group": "control_change"}, {"time": 83630, "annotation": {"number": 11, "value": 93}, "group": "control_change"}, {"time": 83640, "annotation": {"number": 11, "value": 91}, "group": "control_change"}, {"time": 83670, "annotation": {"number": 11, "value": 90}, "group": "control_change"}, {"time": 83690, "annotation": {"number": 11, "value": 89}, "group": "control_change"}, {"time": 83710, "annotation": {"number": 11, "value": 88}, "group": "control_change"}, {"time": 83740, "annotation": {"number": 11, "value": 87}, "group": "control_change"}, {"time": 83760, "annotation": {"number": 11, "value": 86}, "group": "control_change"}, {"time": 83790, "annotation": {"number": 11, "value": 85}, "group": "control_change"}, {"time": 83810, "annotation": {"number": 11, "value": 84}, "group": "control_change"}, {"time": 83850, "annotation": {"number": 11, "value": 80}, "group": "control_change"}, {"time": 83860, "annotation": {"number": 11, "value": 78}, "group": "control_change"}, {"time": 83870, "annotation": {"number": 11, "value": 76}, "group": "control_change"}, {"time": 83880, "annotation": {"number": 11, "value": 75}, "group": "control_change"}, {"time": 83890, "annotation": {"number": 11, "value": 73}, "group": "control_change"}, {"time": 83900, "annotation": {"number": 11, "value": 72}, "group": "control_change"}, {"time": 83910, "annotation": {"number": 11, "value": 68}, "group": "control_change"}, {"time": 83920, "annotation": {"number": 11, "value": 66}, "group": "control_change"}, {"time": 83930, "annotation": {"number": 11, "value": 61}, "group": "control_change"}, {"time": 83940, "annotation": {"number": 11, "value": 58}, "group": "control_change"}, {"time": 83950, "annotation": {"number": 11, "value": 53}, "group": "control_change"}, {"time": 83960, "annotation": {"number": 11, "value": 47}, "group": "control_change"}, {"time": 84400, "annotation": {"number": 11, "value": 127}, "group": "control_change"}, {"time": 85260, "annotation": {"number": 1, "value": 16}, "group": "control_change"}, {"time": 85290, "annotation": {"number": 11, "value": 127}, "group": "control_change"}, {"time": 85300, "annotation": {"number": 11, "value": 124}, "group": "control_change"}, {"time": 85310, "annotation": {"number": 11, "value": 120}, "group": "control_change"}, {"time": 85320, "annotation": {"number": 11, "value": 116}, "group": "control_change"}, {"time": 85330, "annotation": {"number": 11, "value": 114}, "group": "control_change"}, {"time": 85340, "annotation": {"number": 11, "value": 112}, "group": "control_change"}, {"time": 85350, "annotation": {"number": 11, "value": 110}, "group": "control_change"}, {"time": 85360, "annotation": {"number": 11, "value": 108}, "group": "control_change"}, {"time": 85370, "annotation": {"number": 11, "value": 106}, "group": "control_change"}, {"time": 85380, "annotation": {"number": 11, "value": 105}, "group": "control_change"}, {"time": 85380, "annotation": {"number": 1, "value": 25}, "group": "control_change"}, {"time": 85390, "annotation": {"number": 11, "value": 103}, "group": "control_change"}, {"time": 85400, "annotation": {"number": 11, "value": 102}, "group": "control_change"}, {"time": 85420, "annotation": {"number": 11, "value": 100}, "group": "control_change"}, {"time": 85430, "annotation": {"number": 11, "value": 99}, "group": "control_change"}, {"time": 85440, "annotation": {"number": 11, "value": 98}, "group": "control_change"}, {"time": 85440, "annotation": {"number": 1, "value": 0}, "group": "control_change"}, {"time": 85450, "annotation": {"number": 11, "value": 97}, "group": "control_change"}, {"time": 85460, "annotation": {"number": 11, "value": 127}, "group": "control_change"}, {"time": 86430, "annotation": {"number": 1, "value": 14}, "group": "control_change"}, {"time": 86550, "annotation": {"number": 1, "value": 30}, "group": "control_change"}, {"time": 86680, "annotation": {"number": 1, "value": 0}, "group": "control_change"}, {"time": 86980, "annotation": {"number": 1, "value": 20}, "group": "control_change"}, {"time": 87090, "annotation": {"number": 1, "value": 37}, "group": "control_change"}, {"time": 87340, "annotation": {"number": 1, "value": 0}, "group": "control_change"}]}, {"program": 0, "is_drum": true, "name": "DRUMS ", "annotations": [{"time": 203, "annotation": {"number": 0, "value": 0}, "group": "control_change"}, {"time": 222, "annotation": {"number": 32, "value": 0}, "group": "control_change"}]}, {"program": 25, "is_drum": true, "name": "DRUMS ", "notes": [{"time": 960, "pitch": 61, "duration": 10, "velocity": 24}, {"time": 1920, "pitch": 62, "duration": 10, "velocity": 32}, {"time": 2880, "pitch": 62, "duration": 10, "velocity": 35}, {"time": 3840, "pitch": 62, "duration": 10, "velocity": 42}, {"time": 4800, "pitch": 62, "duration": 10, "velocity": 58}, {"time": 5760, "pitch": 62, "duration": 10, "velocity": 55}, {"time": 6720, "pitch": 62, "duration": 10, "velocity": 57}, {"time": 7680, "pitch": 38, "duration": 10, "velocity": 127}, {"time": 7680, "pitch": 40, "duration": 10, "velocity": 105}, {"time": 7680, "pitch": 62, "duration": 10, "velocity": 58}, {"time": 8160, "pitch": 36, "duration": 10, "velocity": 126}, {"time": 8400, "pitch": 29, "duration": 10, "velocity": 118}, {"time": 8640, "pitch": 38, "duration": 10, "velocity": 127}, {"time": 8880, "pitch": 29, "duration": 10, "velocity": 123}, {"time": 9120, "pitch": 36, "duration": 10, "velocity": 126}, {"time": 9360, "pitch": 36, "duration": 10, "velocity": 114}, {"time": 9600, "pitch": 38, "duration": 10, "velocity": 127}, {"time": 9830, "pitch": 29, "duration": 10, "velocity": 124}, {"time": 10000, "pitch": 36, "duration": 10, "velocity": 81}, {"time": 10080, "pitch": 36, "duration": 10, "velocity": 127}, {"time": 10560, "pitch": 38, "duration": 10, "velocity": 127}, {"time": 11040, "pitch": 36, "duration": 10, "velocity": 124}, {"time": 11280, "pitch": 36, "duration": 10, "velocity": 116}, {"time": 11520, "pitch": 38, "duration": 10, "velocity": 127}, {"time": 12000, "pitch": 36, "duration": 10, "velocity": 127}, {"time": 12480, "pitch": 38, "duration": 10, "velocity": 127}, {"time": 12960, "pitch": 36, "duration": 10, "velocity": 125}, {"time": 13200, "pitch": 36, "duration": 10, "velocity": 117}, {"time": 13440, "pitch": 38, "duration": 10, "velocity": 127}, {"time": 13670, "pitch": 29, "duration": 10, "velocity": 121}, {"time": 13840, "pitch": 36, "duration": 10, "velocity": 82}, {"time": 13920, "pitch": 36, "duration": 10, "velocity": 121}, {"time": 14400, "pitch": 38, "duration": 10, "velocity": 127}, {"time": 14630, "pitch": 29, "duration": 10, "velocity": 117}, {"time": 14880, "pitch": 36, "duration": 10, "velocity": 117}, {"time": 15120, "pitch": 36, "duration": 10, "velocity": 111}, {"time": 15280, "pitch": 38, "duration": 10, "velocity": 127}, {"time": 15360, "pitch": 38, "duration": 10, "velocity": 127}, {"time": 15840, "pitch": 36, "duration": 10, "velocity": 127}, {"time": 15840, "pitch": 55, "duration": 10, "velocity": 111}, {"time": 16080, "pitch": 29, "duration": 10, "velocity": 115}, {"time": 16320, "pitch": 38, "duration": 10, "velocity": 127}, {"time": 16560, "pitch": 29, "duration": 10, "velocity": 121}, {"time": 16800, "pitch": 36, "duration": 10, "velocity": 127}, {"time": 17040, "pitch": 36, "duration": 10, "velocity": 127}, {"time": 17280, "pitch": 38, "duration": 10, "velocity": 127}, {"time": 17510, "pitch": 29, "duration": 10, "velocity": 121}, {"time": 17680, "pitch": 36, "duration": 10, "velocity": 87}, {"time": 17760, "pitch": 36, "duration": 10, "velocity": 127}, {"time": 18240, "pitch": 38, "duration": 10, "velocity": 127}, {"time": 18720, "pitch": 36, "duration": 10, "velocity": 127}, {"time": 18960, "pitch": 36, "duration": 10, "velocity": 127}, {"time": 19200, "pitch": 38, "duration": 10, "velocity": 127}, {"time": 19680, "pitch": 36, "duration": 10, "velocity": 127}, {"time": 19920, "pitch": 29, "duration": 10, "velocity": 117}, {"time": 20160, "pitch": 38, "duration": 10, "velocity": 127}, {"time": 20400, "pitch": 29, "duration": 10, "velocity": 122}, {"time": 20640, "pitch": 36, "duration": 10, "velocity": 127}, {"time": 20880, "pitch": 36, "duration": 10, "velocity": 127}, {"time": 21120, "pitch": 38, "duration": 10, "velocity": 127}, {"time": 21350, "pitch": 29, "duration": 10, "velocity": 120}, {"time": 21520, "pitch": 36, "duration": 10, "velocity": 90}, {"time": 21600, "pitch": 36, "duration": 10, "velocity": 127}, {"time": 21600, "pitch": 38, "duration": 10, "velocity": 127}, {"time": 21840, "pitch": 38, "duration": 10, "velocity": 127}, {"time": 22080, "pitch": 38, "duration": 10, "velocity": 127}, {"time": 22320, "pitch": 38, "duration": 10, "velocity": 127}, {"time": 22480, "pitch": 36, "duration": 10, "velocity": 85}, {"time": 22560, "pitch": 36, "duration": 10, "velocity": 127}, {"time": 22560, "pitch": 38, "duration": 10, "velocity": 127}, {"time": 22720, "pitch": 38, "duration": 10, "velocity": 127}, {"time": 22960, "pitch": 36, "duration": 10, "velocity": 127}, {"time": 23040, "pitch": 38, "duration": 10, "velocity": 127}, {"time": 23200, "pitch": 38, "duration": 10, "velocity": 127}, {"time": 23520, "pitch": 36, "duration": 10, "velocity": 127}, {"time": 23520, "pitch": 57, "duration": 10, "velocity": 115}, {"time": 24000, "pitch": 38, "duration": 10, "velocity": 127}, {"time": 24480, "pitch": 36, "duration": 10, "velocity": 127}, {"time": 24720, "pitch": 36, "duration": 10, "velocity": 127}, {"time": 24960, "pitch": 38, "duration": 10, "velocity": 127}, {"time": 25360, "pitch": 36, "duration": 10, "velocity": 88}, {"time": 25440, "pitch": 36, "duration": 10, "velocity": 127}, {"time": 25920, "pitch": 38, "duration": 10, "velocity": 127}, {"time": 26400, "pitch": 36, "duration": 10, "velocity": 127}, {"time": 26640, "pitch": 36, "duration": 10, "velocity": 127}, {"time": 26880, "pitch": 38, "duration": 10, "velocity": 127}, {"time": 27360, "pitch": 36, "duration": 10, "velocity": 127}, {"time": 27840, "pitch": 38, "duration": 10, "velocity": 127}, {"time": 28080, "pitch": 29, "duration": 10, "velocity": 117}, {"time": 28320, "pitch": 36, "duration": 10, "velocity": 127}, {"time": 28560, "pitch": 36, "duration": 10, "velocity": 127}, {"time": 28800, "pitch": 38, "duration": 10, "velocity": 127}, {"time": 29200, "pitch": 36, "duration": 10, "velocity": 90}, {"time": 29280, "pitch": 36, "duration": 10, "velocity": 127}, {"time": 29680, "pitch": 36, "duration": 10, "velocity": 103}, {"time": 29760, "pitch": 38, "duration": 10, "velocity": 127}, {"time": 30240, "pitch": 36, "duration": 10, "velocity": 127}, {"time": 30480, "pitch": 36, "duration": 10, "velocity": 127}, {"time": 30640, "pitch": 38, "duration": 10, "velocity": 127}, {"time": 30720, "pitch": 38, "duration": 10, "velocity": 127}, {"time": 31200, "pitch": 36, "duration": 10, "velocity": 127}, {"time": 31200, "pitch": 55, "duration": 10, "velocity": 127}, {"time": 31440, "pitch": 29, "duration": 10, "velocity": 121}, {"time": 31680, "pitch": 38, "duration": 10, "velocity": 127}, {"time": 31920, "pitch": 29, "duration": 10, "velocity": 121}, {"time": 32160, "pitch": 36, "duration": 10, "velocity": 127}, {"time": 32400, "pitch": 36, "duration": 10, "velocity": 127}, {"time": 32640, "pitch": 38, "duration": 10, "velocity": 127}, {"time": 32870, "pitch": 29, "duration": 10, "velocity": 119}, {"time": 33040, "pitch": 36, "duration": 10, "velocity": 87}, {"time": 33120, "pitch": 36, "duration": 10, "velocity": 127}, {"time": 33600, "pitch": 38, "duration": 10, "velocity": 127}, {"time": 34000, "pitch": 36, "duration": 10, "velocity": 86}, {"time": 34080, "pitch": 36, "duration": 10, "velocity": 127}, {"time": 34320, "pitch": 36, "duration": 10, "velocity": 127}, {"time": 34560, "pitch": 38, "duration": 10, "velocity": 127}, {"time": 35040, "pitch": 36, "duration": 10, "velocity": 127}, {"time": 35280, "pitch": 29, "duration": 10, "velocity": 124}, {"time": 35520, "pitch": 38, "duration": 10, "velocity": 127}, {"time": 35760, "pitch": 29, "duration": 10, "velocity": 122}, {"time": 36000, "pitch": 36, "duration": 10, "velocity": 127}, {"time": 36240, "pitch": 36, "duration": 10, "velocity": 127}, {"time": 36480, "pitch": 38, "duration": 10, "velocity": 127}, {"time": 36710, "pitch": 29, "duration": 10, "velocity": 117}, {"time": 36880, "pitch": 36, "duration": 10, "velocity": 83}, {"time": 36960, "pitch": 36, "duration": 10, "velocity": 127}, {"time": 37360, "pitch": 36, "duration": 10, "velocity": 108}, {"time": 37440, "pitch": 38, "duration": 10, "velocity": 127}, {"time": 37840, "pitch": 36, "duration": 10, "velocity": 84}, {"time": 37920, "pitch": 36, "duration": 10, "velocity": 127}, {"time": 38160, "pitch": 36, "duration": 10, "velocity": 126}, {"time": 38320, "pitch": 38, "duration": 10, "velocity": 127}, {"time": 38400, "pitch": 38, "duration": 10, "velocity": 127}, {"time": 38880, "pitch": 36, "duration": 10, "velocity": 127}, {"time": 39120, "pitch": 29, "duration": 10, "velocity": 118}, {"time": 39360, "pitch": 38, "duration": 10, "velocity": 127}, {"time": 39600, "pitch": 29, "duration": 10, "velocity": 123}, {"time": 39840, "pitch": 36, "duration": 10, "velocity": 127}, {"time": 40080, "pitch": 36, "duration": 10, "velocity": 127}, {"time": 40320, "pitch": 38, "duration": 10, "velocity": 127}, {"time": 40550, "pitch": 29, "duration": 10, "velocity": 118}, {"time": 40720, "pitch": 36, "duration": 10, "velocity": 92}, {"time": 40800, "pitch": 36, "duration": 10, "velocity": 127}, {"time": 41280, "pitch": 38, "duration": 10, "velocity": 127}, {"time": 41680, "pitch": 36, "duration": 10, "velocity": 85}, {"time": 41760, "pitch": 36, "duration": 10, "velocity": 127}, {"time": 42000, "pitch": 36, "duration": 10, "velocity": 127}, {"time": 42240, "pitch": 38, "duration": 10, "velocity": 127}, {"time": 42480, "pitch": 36, "duration": 10, "velocity": 90}, {"time": 42720, "pitch": 36, "duration": 10, "velocity": 127}, {"time": 42960, "pitch": 29, "duration": 10, "velocity": 124}, {"time": 43200, "pitch": 38, "duration": 10, "velocity": 127}, {"time": 43440, "pitch": 29, "duration": 10, "velocity": 121}, {"time": 43680, "pitch": 36, "duration": 10, "velocity": 127}, {"time": 43920, "pitch": 36, "duration": 10, "velocity": 127}, {"time": 44160, "pitch": 38, "duration": 10, "velocity": 127}, {"time": 44390, "pitch": 29, "duration": 10, "velocity": 122}, {"time": 44560, "pitch": 36, "duration": 10, "velocity": 90}, {"time": 44640, "pitch": 36, "duration": 10, "velocity": 127}, {"time": 44640, "pitch": 38, "duration": 10, "velocity": 127}, {"time": 44880, "pitch": 36, "duration": 10, "velocity": 127}, {"time": 44880, "pitch": 38, "duration": 10, "velocity": 127}, {"time": 45120, "pitch": 36, "duration": 10, "velocity": 127}, {"time": 45120, "pitch": 38, "duration": 10, "velocity": 127}, {"time": 45360, "pitch": 36, "duration": 10, "velocity": 127}, {"time": 45360, "pitch": 38, "duration": 10, "velocity": 127}, {"time": 45630, "pitch": 38, "duration": 10, "velocity": 21}, {"time": 45740, "pitch": 38, "duration": 10, "velocity": 38}, {"time": 45780, "pitch": 38, "duration": 10, "velocity": 111}, {"time": 45820, "pitch": 38, "duration": 10, "velocity": 127}, {"time": 45820, "pitch": 40, "duration": 10, "velocity": 80}, {"time": 46060, "pitch": 38, "duration": 10, "velocity": 127}, {"time": 46060, "pitch": 40, "duration": 10, "velocity": 95}, {"time": 46220, "pitch": 38, "duration": 10, "velocity": 127}, {"time": 46220, "pitch": 40, "duration": 10, "velocity": 112}, {"time": 46560, "pitch": 36, "duration": 10, "velocity": 127}, {"time": 46560, "pitch": 57, "duration": 10, "velocity": 115}, {"time": 47040, "pitch": 38, "duration": 10, "velocity": 127}, {"time": 47520, "pitch": 36, "duration": 10, "velocity": 127}, {"time": 47760, "pitch": 36, "duration": 10, "velocity": 127}, {"time": 48000, "pitch": 38, "duration": 10, "velocity": 127}, {"time": 48400, "pitch": 36, "duration": 10, "velocity": 88}, {"time": 48480, "pitch": 36, "duration": 10, "velocity": 127}, {"time": 48960, "pitch": 38, "duration": 10, "velocity": 127}, {"time": 49440, "pitch": 36, "duration": 10, "velocity": 127}, {"time": 49680, "pitch": 36, "duration": 10, "velocity": 127}, {"time": 49920, "pitch": 38, "duration": 10, "velocity": 127}, {"time": 50400, "pitch": 36, "duration": 10, "velocity": 127}, {"time": 50880, "pitch": 38, "duration": 10, "velocity": 127}, {"time": 51120, "pitch": 29, "duration": 10, "velocity": 117}, {"time": 51360, "pitch": 36, "duration": 10, "velocity": 127}, {"time": 51600, "pitch": 36, "duration": 10, "velocity": 127}, {"time": 51840, "pitch": 38, "duration": 10, "velocity": 127}, {"time": 52240, "pitch": 36, "duration": 10, "velocity": 90}, {"time": 52320, "pitch": 36, "duration": 10, "velocity": 127}, {"time": 52720, "pitch": 36, "duration": 10, "velocity": 103}, {"time": 52800, "pitch": 38, "duration": 10, "velocity": 127}, {"time": 53280, "pitch": 36, "duration": 10, "velocity": 127}, {"time": 53520, "pitch": 36, "duration": 10, "velocity": 127}, {"time": 53680, "pitch": 38, "duration": 10, "velocity": 127}, {"time": 53760, "pitch": 38, "duration": 10, "velocity": 127}, {"time": 54240, "pitch": 36, "duration": 10, "velocity": 127}, {"time": 54720, "pitch": 38, "duration": 10, "velocity": 127}, {"time": 54960, "pitch": 29, "duration": 10, "velocity": 122}, {"time": 55200, "pitch": 36, "duration": 10, "velocity": 127}, {"time": 55440, "pitch": 36, "duration": 10, "velocity": 127}, {"time": 55680, "pitch": 38, "duration": 10, "velocity": 127}, {"time": 56080, "pitch": 36, "duration": 10, "velocity": 91}, {"time": 56160, "pitch": 36, "duration": 10, "velocity": 127}, {"time": 56640, "pitch": 38, "duration": 10, "velocity": 127}, {"time": 57120, "pitch": 36, "duration": 10, "velocity": 127}, {"time": 57360, "pitch": 36, "duration": 10, "velocity": 127}, {"time": 57600, "pitch": 38, "duration": 10, "velocity": 127}, {"time": 58080, "pitch": 36, "duration": 10, "velocity": 127}, {"time": 58560, "pitch": 38, "duration": 10, "velocity": 127}, {"time": 58800, "pitch": 29, "duration": 10, "velocity": 117}, {"time": 59040, "pitch": 36, "duration": 10, "velocity": 127}, {"time": 59280, "pitch": 36, "duration": 10, "velocity": 127}, {"time": 59520, "pitch": 38, "duration": 10, "velocity": 127}, {"time": 59920, "pitch": 36, "duration": 10, "velocity": 84}, {"time": 60000, "pitch": 36, "duration": 10, "velocity": 127}, {"time": 60400, "pitch": 36, "duration": 10, "velocity": 108}, {"time": 60480, "pitch": 38, "duration": 10, "velocity": 127}, {"time": 60960, "pitch": 36, "duration": 10, "velocity": 127}, {"time": 61200, "pitch": 36, "duration": 10, "velocity": 127}, {"time": 61360, "pitch": 38, "duration": 10, "velocity": 127}, {"time": 61440, "pitch": 38, "duration": 10, "velocity": 127}, {"time": 61920, "pitch": 36, "duration": 10, "velocity": 127}, {"time": 61920, "pitch": 57, "duration": 10, "velocity": 115}, {"time": 62400, "pitch": 38, "duration": 10, "velocity": 127}, {"time": 62880, "pitch": 36, "duration": 10, "velocity": 127}, {"time": 63120, "pitch": 36, "duration": 10, "velocity": 127}, {"time": 63360, "pitch": 38, "duration": 10, "velocity": 127}, {"time": 63760, "pitch": 36, "duration": 10, "velocity": 88}, {"time": 63840, "pitch": 36, "duration": 10, "velocity": 127}, {"time": 64320, "pitch": 38, "duration": 10, "velocity": 127}, {"time": 64800, "pitch": 36, "duration": 10, "velocity": 127}, {"time": 65040, "pitch": 36, "duration": 10, "velocity": 127}, {"time": 65280, "pitch": 38, "duration": 10, "velocity": 127}, {"time": 65760, "pitch": 36, "duration": 10, "velocity": 127}, {"time": 66240, "pitch": 38, "duration": 10, "velocity": 127}, {"time": 66480, "pitch": 29, "duration": 10, "velocity": 117}, {"time": 66720, "pitch": 36, "duration": 10, "velocity": 127}, {"time": 66960, "pitch": 36, "duration": 10, "velocity": 127}, {"time": 67200, "pitch": 38, "duration": 10, "velocity": 127}, {"time": 67600, "pitch": 36, "duration": 10, "velocity": 90}, {"time": 67680, "pitch": 36, "duration": 10, "velocity": 127}, {"time": 68080, "pitch": 36, "duration": 10, "velocity": 103}, {"time": 68160, "pitch": 38, "duration": 10, "velocity": 127}, {"time": 68640, "pitch": 36, "duration": 10, "velocity": 127}, {"time": 68880, "pitch": 36, "duration": 10, "velocity": 127}, {"time": 69040, "pitch": 38, "duration": 10, "velocity": 127}, {"time": 69120, "pitch": 38, "duration": 10, "velocity": 127}, {"time": 69600, "pitch": 36, "duration": 10, "velocity": 127}, {"time": 69840, "pitch": 29, "duration": 10, "velocity": 117}, {"time": 70080, "pitch": 38, "duration": 10, "velocity": 127}, {"time": 70320, "pitch": 29, "duration": 10, "velocity": 116}, {"time": 70480, "pitch": 36, "duration": 10, "velocity": 91}, {"time": 70560, "pitch": 36, "duration": 10, "velocity": 127}, {"time": 70800, "pitch": 36, "duration": 10, "velocity": 127}, {"time": 71040, "pitch": 38, "duration": 10, "velocity": 127}, {"time": 71270, "pitch": 29, "duration": 10, "velocity": 123}, {"time": 71440, "pitch": 36, "duration": 10, "velocity": 86}, {"time": 71520, "pitch": 36, "duration": 10, "velocity": 127}, {"time": 71760, "pitch": 36, "duration": 10, "velocity": 118}, {"time": 71920, "pitch": 38, "duration": 10, "velocity": 127}, {"time": 72000, "pitch": 38, "duration": 10, "velocity": 127}, {"time": 72400, "pitch": 36, "duration": 10, "velocity": 90}, {"time": 72480, "pitch": 36, "duration": 10, "velocity": 127}, {"time": 72720, "pitch": 36, "duration": 10, "velocity": 127}, {"time": 72880, "pitch": 38, "duration": 10, "velocity": 127}, {"time": 72960, "pitch": 38, "duration": 10, "velocity": 127}, {"time": 72960, "pitch": 49, "duration": 10, "velocity": 102}, {"time": 73200, "pitch": 38, "duration": 10, "velocity": 127}, {"time": 73440, "pitch": 36, "duration": 10, "velocity": 127}, {"time": 73440, "pitch": 38, "duration": 10, "velocity": 127}, {"time": 73680, "pitch": 38, "duration": 10, "velocity": 127}, {"time": 73920, "pitch": 38, "duration": 10, "velocity": 127}, {"time": 74160, "pitch": 38, "duration": 10, "velocity": 127}, {"time": 74320, "pitch": 36, "duration": 10, "velocity": 88}, {"time": 74400, "pitch": 36, "duration": 10, "velocity": 127}, {"time": 74400, "pitch": 38, "duration": 10, "velocity": 127}, {"time": 74560, "pitch": 38, "duration": 10, "velocity": 127}, {"time": 74800, "pitch": 36, "duration": 10, "velocity": 127}, {"time": 74880, "pitch": 38, "duration": 10, "velocity": 127}, {"time": 75360, "pitch": 36, "duration": 10, "velocity": 127}, {"time": 75360, "pitch": 55, "duration": 10, "velocity": 127}, {"time": 75600, "pitch": 29, "duration": 10, "velocity": 121}, {"time": 75840, "pitch": 38, "duration": 10, "velocity": 127}, {"time": 76080, "pitch": 29, "duration": 10, "velocity": 121}, {"time": 76320, "pitch": 36, "duration": 10, "velocity": 127}, {"time": 76560, "pitch": 36, "duration": 10, "velocity": 127}, {"time": 76800, "pitch": 38, "duration": 10, "velocity": 127}, {"time": 77030, "pitch": 29, "duration": 10, "velocity": 119}, {"time": 77200, "pitch": 36, "duration": 10, "velocity": 87}, {"time": 77280, "pitch": 36, "duration": 10, "velocity": 127}, {"time": 77760, "pitch": 38, "duration": 10, "velocity": 127}, {"time": 78160, "pitch": 36, "duration": 10, "velocity": 86}, {"time": 78240, "pitch": 36, "duration": 10, "velocity": 127}, {"time": 78480, "pitch": 36, "duration": 10, "velocity": 127}, {"time": 78720, "pitch": 38, "duration": 10, "velocity": 127}, {"time": 79200, "pitch": 36, "duration": 10, "velocity": 127}, {"time": 79440, "pitch": 29, "duration": 10, "velocity": 124}, {"time": 79680, "pitch": 38, "duration": 10, "velocity": 127}, {"time": 79920, "pitch": 29, "duration": 10, "velocity": 122}, {"time": 80160, "pitch": 36, "duration": 10, "velocity": 127}, {"time": 80400, "pitch": 36, "duration": 10, "velocity": 127}, {"time": 80640, "pitch": 38, "duration": 10, "velocity": 127}, {"time": 80870, "pitch": 29, "duration": 10, "velocity": 117}, {"time": 81040, "pitch": 36, "duration": 10, "velocity": 83}, {"time": 81120, "pitch": 36, "duration": 10, "velocity": 127}, {"time": 81520, "pitch": 36, "duration": 10, "velocity": 108}, {"time": 81600, "pitch": 38, "duration": 10, "velocity": 127}, {"time": 82000, "pitch": 36, "duration": 10, "velocity": 84}, {"time": 82080, "pitch": 36, "duration": 10, "velocity": 127}, {"time": 82320, "pitch": 36, "duration": 10, "velocity": 126}, {"time": 82480, "pitch": 38, "duration": 10, "velocity": 127}, {"time": 82560, "pitch": 38, "duration": 10, "velocity": 127}, {"time": 83040, "pitch": 36, "duration": 10, "velocity": 127}, {"time": 83280, "pitch": 29, "duration": 10, "velocity": 118}, {"time": 83520, "pitch": 38, "duration": 10, "velocity": 127}, {"time": 83760, "pitch": 29, "duration": 10, "velocity": 123}, {"time": 84000, "pitch": 36, "duration": 10, "velocity": 127}, {"time": 84240, "pitch": 36, "duration": 10, "velocity": 127}, {"time": 84480, "pitch": 38, "duration": 10, "velocity": 127}, {"time": 84710, "pitch": 29, "duration": 10, "velocity": 118}, {"time": 84880, "pitch": 36, "duration": 10, "velocity": 92}, {"time": 84960, "pitch": 36, "duration": 10, "velocity": 127}, {"time": 85440, "pitch": 38, "duration": 10, "velocity": 127}, {"time": 85840, "pitch": 36, "duration": 10, "velocity": 85}, {"time": 85920, "pitch": 36, "duration": 10, "velocity": 127}, {"time": 86160, "pitch": 36, "duration": 10, "velocity": 127}, {"time": 86400, "pitch": 38, "duration": 10, "velocity": 127}, {"time": 86640, "pitch": 36, "duration": 10, "velocity": 90}, {"time": 86880, "pitch": 36, "duration": 10, "velocity": 127}, {"time": 87120, "pitch": 29, "duration": 10, "velocity": 124}, {"time": 87360, "pitch": 38, "duration": 10, "velocity": 127}, {"time": 87600, "pitch": 29, "duration": 10, "velocity": 121}, {"time": 87840, "pitch": 36, "duration": 10, "velocity": 127}, {"time": 88080, "pitch": 36, "duration": 10, "velocity": 127}, {"time": 88320, "pitch": 38, "duration": 10, "velocity": 127}, {"time": 88550, "pitch": 29, "duration": 10, "velocity": 122}, {"time": 88720, "pitch": 36, "duration": 10, "velocity": 90}, {"time": 88800, "pitch": 36, "duration": 10, "velocity": 127}, {"time": 88800, "pitch": 38, "duration": 10, "velocity": 127}, {"time": 89040, "pitch": 38, "duration": 10, "velocity": 127}, {"time": 89280, "pitch": 38, "duration": 10, "velocity": 127}, {"time": 89520, "pitch": 38, "duration": 10, "velocity": 127}, {"time": 89680, "pitch": 36, "duration": 10, "velocity": 85}, {"time": 89760, "pitch": 36, "duration": 10, "velocity": 127}, {"time": 89760, "pitch": 38, "duration": 10, "velocity": 127}, {"time": 89920, "pitch": 38, "duration": 10, "velocity": 127}, {"time": 90160, "pitch": 36, "duration": 10, "velocity": 127}, {"time": 90240, "pitch": 38, "duration": 10, "velocity": 127}, {"time": 90400, "pitch": 38, "duration": 10, "velocity": 127}, {"time": 91200, "pitch": 61, "duration": 10, "velocity": 24}, {"time": 92160, "pitch": 62, "duration": 10, "velocity": 32}, {"time": 93120, "pitch": 62, "duration": 10, "velocity": 35}, {"time": 94080, "pitch": 62, "duration": 10, "velocity": 42}, {"time": 95040, "pitch": 62, "duration": 10, "velocity": 58}, {"time": 96000, "pitch": 62, "duration": 10, "velocity": 55}, {"time": 96960, "pitch": 62, "duration": 10, "velocity": 57}, {"time": 97920, "pitch": 38, "duration": 10, "velocity": 127}, {"time": 97920, "pitch": 40, "duration": 10, "velocity": 105}, {"time": 97920, "pitch": 62, "duration": 10, "velocity": 58}, {"time": 98400, "pitch": 36, "duration": 10, "velocity": 127}, {"time": 98400, "pitch": 55, "duration": 10, "velocity": 111}, {"time": 98640, "pitch": 29, "duration": 10, "velocity": 115}, {"time": 98880, "pitch": 38, "duration": 10, "velocity": 127}, {"time": 99120, "pitch": 29, "duration": 10, "velocity": 121}, {"time": 99360, "pitch": 36, "duration": 10, "velocity": 127}, {"time": 99600, "pitch": 36, "duration": 10, "velocity": 127}, {"time": 99840, "pitch": 38, "duration": 10, "velocity": 127}, {"time": 100070, "pitch": 29, "duration": 10, "velocity": 121}, {"time": 100240, "pitch": 36, "duration": 10, "velocity": 87}, {"time": 100320, "pitch": 36, "duration": 10, "velocity": 127}, {"time": 100800, "pitch": 38, "duration": 10, "velocity": 127}, {"time": 101280, "pitch": 36, "duration": 10, "velocity": 127}, {"time": 101520, "pitch": 36, "duration": 10, "velocity": 127}, {"time": 101760, "pitch": 38, "duration": 10, "velocity": 127}, {"time": 102240, "pitch": 36, "duration": 10, "velocity": 127}, {"time": 102480, "pitch": 29, "duration": 10, "velocity": 117}, {"time": 102720, "pitch": 38, "duration": 10, "velocity": 127}, {"time": 102960, "pitch": 29, "duration": 10, "velocity": 122}, {"time": 103200, "pitch": 36, "duration": 10, "velocity": 127}, {"time": 103440, "pitch": 36, "duration": 10, "velocity": 127}, {"time": 103680, "pitch": 38, "duration": 10, "velocity": 127}, {"time": 103910, "pitch": 29, "duration": 10, "velocity": 120}, {"time": 104080, "pitch": 36, "duration": 10, "velocity": 90}, {"time": 104160, "pitch": 36, "duration": 10, "velocity": 127}, {"time": 104400, "pitch": 36, "duration": 10, "velocity": 127}, {"time": 104640, "pitch": 36, "duration": 10, "velocity": 127}, {"time": 105150, "pitch": 38, "duration": 10, "velocity": 21}, {"time": 105260, "pitch": 38, "duration": 10, "velocity": 38}, {"time": 105300, "pitch": 38, "duration": 10, "velocity": 111}, {"time": 105340, "pitch": 38, "duration": 10, "velocity": 127}, {"time": 105340, "pitch": 40, "duration": 10, "velocity": 80}, {"time": 105580, "pitch": 38, "duration": 10, "velocity": 127}, {"time": 105580, "pitch": 40, "duration": 10, "velocity": 95}, {"time": 105740, "pitch": 38, "duration": 10, "velocity": 127}, {"time": 105740, "pitch": 40, "duration": 10, "velocity": 112}, {"time": 106080, "pitch": 36, "duration": 10, "velocity": 127}, {"time": 106080, "pitch": 57, "duration": 10, "velocity": 115}, {"time": 106560, "pitch": 38, "duration": 10, "velocity": 127}, {"time": 107040, "pitch": 36, "duration": 10, "velocity": 127}, {"time": 107280, "pitch": 36, "duration": 10, "velocity": 127}, {"time": 107520, "pitch": 38, "duration": 10, "velocity": 127}, {"time": 107920, "pitch": 36, "duration": 10, "velocity": 88}, {"time": 108000, "pitch": 36, "duration": 10, "velocity": 127}, {"time": 108480, "pitch": 38, "duration": 10, "velocity": 127}, {"time": 108960, "pitch": 36, "duration": 10, "velocity": 127}, {"time": 109200, "pitch": 36, "duration": 10, "velocity": 127}, {"time": 109440, "pitch": 38, "duration": 10, "velocity": 127}, {"time": 109920, "pitch": 36, "duration": 10, "velocity": 127}, {"time": 110400, "pitch": 38, "duration": 10, "velocity": 127}, {"time": 110640, "pitch": 29, "duration": 10, "velocity": 117}, {"time": 110880, "pitch": 36, "duration": 10, "velocity": 127}, {"time": 111120, "pitch": 36, "duration": 10, "velocity": 127}, {"time": 111360, "pitch": 38, "duration": 10, "velocity": 127}, {"time": 111760, "pitch": 36, "duration": 10, "velocity": 90}, {"time": 111840, "pitch": 36, "duration": 10, "velocity": 127}, {"time": 112240, "pitch": 36, "duration": 10, "velocity": 103}, {"time": 112320, "pitch": 38, "duration": 10, "velocity": 127}, {"time": 112800, "pitch": 36, "duration": 10, "velocity": 127}, {"time": 113040, "pitch": 36, "duration": 10, "velocity": 127}, {"time": 113200, "pitch": 38, "duration": 10, "velocity": 127}, {"time": 113280, "pitch": 38, "duration": 10, "velocity": 127}, {"time": 113760, "pitch": 36, "duration": 10, "velocity": 127}, {"time": 113760, "pitch": 55, "duration": 10, "velocity": 127}, {"time": 114000, "pitch": 29, "duration": 10, "velocity": 121}, {"time": 114240, "pitch": 38, "duration": 10, "velocity": 127}, {"time": 114480, "pitch": 29, "duration": 10, "velocity": 121}, {"time": 114720, "pitch": 36, "duration": 10, "velocity": 127}, {"time": 114960, "pitch": 36, "duration": 10, "velocity": 127}, {"time": 115200, "pitch": 38, "duration": 10, "velocity": 127}, {"time": 115430, "pitch": 29, "duration": 10, "velocity": 119}, {"time": 115600, "pitch": 36, "duration": 10, "velocity": 87}, {"time": 115680, "pitch": 36, "duration": 10, "velocity": 127}, {"time": 116160, "pitch": 38, "duration": 10, "velocity": 127}, {"time": 116560, "pitch": 36, "duration": 10, "velocity": 86}, {"time": 116640, "pitch": 36, "duration": 10, "velocity": 127}, {"time": 116880, "pitch": 36, "duration": 10, "velocity": 127}, {"time": 117120, "pitch": 38, "duration": 10, "velocity": 127}, {"time": 117600, "pitch": 36, "duration": 10, "velocity": 127}, {"time": 117840, "pitch": 29, "duration": 10, "velocity": 124}, {"time": 118080, "pitch": 38, "duration": 10, "velocity": 127}, {"time": 118320, "pitch": 29, "duration": 10, "velocity": 122}, {"time": 118560, "pitch": 36, "duration": 10, "velocity": 127}, {"time": 118800, "pitch": 36, "duration": 10, "velocity": 127}, {"time": 119040, "pitch": 38, "duration": 10, "velocity": 127}, {"time": 119270, "pitch": 29, "duration": 10, "velocity": 117}, {"time": 119440, "pitch": 36, "duration": 10, "velocity": 83}, {"time": 119520, "pitch": 36, "duration": 10, "velocity": 127}, {"time": 119920, "pitch": 36, "duration": 10, "velocity": 108}, {"time": 120000, "pitch": 38, "duration": 10, "velocity": 127}, {"time": 120400, "pitch": 36, "duration": 10, "velocity": 84}, {"time": 120480, "pitch": 36, "duration": 10, "velocity": 127}, {"time": 120720, "pitch": 36, "duration": 10, "velocity": 126}, {"time": 120880, "pitch": 38, "duration": 10, "velocity": 127}, {"time": 120960, "pitch": 38, "duration": 10, "velocity": 127}, {"time": 121440, "pitch": 36, "duration": 10, "velocity": 127}, {"time": 121680, "pitch": 29, "duration": 10, "velocity": 118}, {"time": 121920, "pitch": 38, "duration": 10, "velocity": 127}, {"time": 122160, "pitch": 29, "duration": 10, "velocity": 123}, {"time": 122400, "pitch": 36, "duration": 10, "velocity": 127}, {"time": 122640, "pitch": 36, "duration": 10, "velocity": 127}, {"time": 122880, "pitch": 38, "duration": 10, "velocity": 127}, {"time": 123110, "pitch": 29, "duration": 10, "velocity": 118}, {"time": 123280, "pitch": 36, "duration": 10, "velocity": 92}, {"time": 123360, "pitch": 36, "duration": 10, "velocity": 127}, {"time": 123840, "pitch": 38, "duration": 10, "velocity": 127}, {"time": 124240, "pitch": 36, "duration": 10, "velocity": 85}, {"time": 124320, "pitch": 36, "duration": 10, "velocity": 127}, {"time": 124560, "pitch": 36, "duration": 10, "velocity": 127}, {"time": 124800, "pitch": 38, "duration": 10, "velocity": 127}, {"time": 125040, "pitch": 36, "duration": 10, "velocity": 90}, {"time": 125280, "pitch": 36, "duration": 10, "velocity": 127}, {"time": 125520, "pitch": 29, "duration": 10, "velocity": 124}, {"time": 125760, "pitch": 38, "duration": 10, "velocity": 127}, {"time": 126000, "pitch": 29, "duration": 10, "velocity": 121}, {"time": 126240, "pitch": 36, "duration": 10, "velocity": 127}, {"time": 126480, "pitch": 36, "duration": 10, "velocity": 127}, {"time": 126720, "pitch": 38, "duration": 10, "velocity": 127}, {"time": 126950, "pitch": 29, "duration": 10, "velocity": 122}, {"time": 127120, "pitch": 36, "duration": 10, "velocity": 90}, {"time": 127200, "pitch": 36, "duration": 10, "velocity": 127}, {"time": 127200, "pitch": 38, "duration": 10, "velocity": 127}, {"time": 127440, "pitch": 36, "duration": 10, "velocity": 127}, {"time": 127440, "pitch": 38, "duration": 10, "velocity": 127}, {"time": 127680, "pitch": 36, "duration": 10, "velocity": 127}, {"time": 127680, "pitch": 38, "duration": 10, "velocity": 127}, {"time": 127920, "pitch": 36, "duration": 10, "velocity": 127}, {"time": 127920, "pitch": 38, "duration": 10, "velocity": 127}, {"time": 128190, "pitch": 38, "duration": 10, "velocity": 21}, {"time": 128300, "pitch": 38, "duration": 10, "velocity": 38}, {"time": 128340, "pitch": 38, "duration": 10, "velocity": 111}, {"time": 128380, "pitch": 38, "duration": 10, "velocity": 127}, {"time": 128380, "pitch": 40, "duration": 10, "velocity": 80}, {"time": 128620, "pitch": 38, "duration": 10, "velocity": 127}, {"time": 128620, "pitch": 40, "duration": 10, "velocity": 95}, {"time": 128780, "pitch": 38, "duration": 10, "velocity": 127}, {"time": 128780, "pitch": 40, "duration": 10, "velocity": 112}, {"time": 129120, "pitch": 36, "duration": 10, "velocity": 127}, {"time": 129120, "pitch": 57, "duration": 10, "velocity": 115}, {"time": 129600, "pitch": 38, "duration": 10, "velocity": 127}, {"time": 130080, "pitch": 36, "duration": 10, "velocity": 127}, {"time": 130320, "pitch": 36, "duration": 10, "velocity": 127}, {"time": 130560, "pitch": 38, "duration": 10, "velocity": 127}, {"time": 130960, "pitch": 36, "duration": 10, "velocity": 88}, {"time": 131040, "pitch": 36, "duration": 10, "velocity": 127}, {"time": 131520, "pitch": 38, "duration": 10, "velocity": 127}, {"time": 132000, "pitch": 36, "duration": 10, "velocity": 127}, {"time": 132240, "pitch": 36, "duration": 10, "velocity": 127}, {"time": 132480, "pitch": 38, "duration": 10, "velocity": 127}, {"time": 132960, "pitch": 36, "duration": 10, "velocity": 127}, {"time": 133440, "pitch": 38, "duration": 10, "velocity": 127}, {"time": 133680, "pitch": 29, "duration": 10, "velocity": 117}, {"time": 133920, "pitch": 36, "duration": 10, "velocity": 127}, {"time": 134160, "pitch": 36, "duration": 10, "velocity": 127}, {"time": 134400, "pitch": 38, "duration": 10, "velocity": 127}, {"time": 134800, "pitch": 36, "duration": 10, "velocity": 90}, {"time": 134880, "pitch": 36, "duration": 10, "velocity": 127}, {"time": 135280, "pitch": 36, "duration": 10, "velocity": 103}, {"time": 135360, "pitch": 38, "duration": 10, "velocity": 127}, {"time": 135840, "pitch": 36, "duration": 10, "velocity": 127}, {"time": 136080, "pitch": 36, "duration": 10, "velocity": 127}, {"time": 136240, "pitch": 38, "duration": 10, "velocity": 127}, {"time": 136320, "pitch": 38, "duration": 10, "velocity": 127}, {"time": 136800, "pitch": 36, "duration": 10, "velocity": 127}, {"time": 137280, "pitch": 38, "duration": 10, "velocity": 127}, {"time": 137520, "pitch": 29, "duration": 10, "velocity": 122}, {"time": 137760, "pitch": 36, "duration": 10, "velocity": 127}, {"time": 138000, "pitch": 36, "duration": 10, "velocity": 127}, {"time": 138240, "pitch": 38, "duration": 10, "velocity": 127}, {"time": 138640, "pitch": 36, "duration": 10, "velocity": 91}, {"time": 138720, "pitch": 36, "duration": 10, "velocity": 127}, {"time": 139200, "pitch": 38, "duration": 10, "velocity": 127}, {"time": 139680, "pitch": 36, "duration": 10, "velocity": 127}, {"time": 139920, "pitch": 36, "duration": 10, "velocity": 127}, {"time": 140160, "pitch": 38, "duration": 10, "velocity": 127}, {"time": 140640, "pitch": 36, "duration": 10, "velocity": 127}, {"time": 141120, "pitch": 38, "duration": 10, "velocity": 127}, {"time": 141360, "pitch": 29, "duration": 10, "velocity": 117}, {"time": 141600, "pitch": 36, "duration": 10, "velocity": 127}, {"time": 141840, "pitch": 36, "duration": 10, "velocity": 127}, {"time": 142080, "pitch": 38, "duration": 10, "velocity": 127}, {"time": 142480, "pitch": 36, "duration": 10, "velocity": 84}, {"time": 142560, "pitch": 36, "duration": 10, "velocity": 127}, {"time": 142960, "pitch": 36, "duration": 10, "velocity": 108}, {"time": 143040, "pitch": 38, "duration": 10, "velocity": 127}, {"time": 143520, "pitch": 36, "duration": 10, "velocity": 127}, {"time": 143760, "pitch": 36, "duration": 10, "velocity": 127}, {"time": 143920, "pitch": 38, "duration": 10, "velocity": 127}, {"time": 144000, "pitch": 38, "duration": 10, "velocity": 127}, {"time": 144480, "pitch": 36, "duration": 10, "velocity": 127}, {"time": 144480, "pitch": 57, "duration": 10, "velocity": 115}, {"time": 144960, "pitch": 38, "duration": 10, "velocity": 127}, {"time": 145440, "pitch": 36, "duration": 10, "velocity": 127}, {"time": 145680, "pitch": 36, "duration": 10, "velocity": 127}, {"time": 145920, "pitch": 38, "duration": 10, "velocity": 127}, {"time": 146320, "pitch": 36, "duration": 10, "velocity": 88}, {"time": 146400, "pitch": 36, "duration": 10, "velocity": 127}, {"time": 146880, "pitch": 38, "duration": 10, "velocity": 127}, {"time": 147360, "pitch": 36, "duration": 10, "velocity": 127}, {"time": 147600, "pitch": 36, "duration": 10, "velocity": 127}, {"time": 147840, "pitch": 38, "duration": 10, "velocity": 127}, {"time": 148320, "pitch": 36, "duration": 10, "velocity": 127}, {"time": 148800, "pitch": 38, "duration": 10, "velocity": 127}, {"time": 149040, "pitch": 29, "duration": 10, "velocity": 117}, {"time": 149280, "pitch": 36, "duration": 10, "velocity": 127}, {"time": 149520, "pitch": 36, "duration": 10, "velocity": 127}, {"time": 149760, "pitch": 38, "duration": 10, "velocity": 127}, {"time": 150160, "pitch": 36, "duration": 10, "velocity": 90}, {"time": 150240, "pitch": 36, "duration": 10, "velocity": 127}, {"time": 150640, "pitch": 36, "duration": 10, "velocity": 103}, {"time": 150720, "pitch": 38, "duration": 10, "velocity": 127}, {"time": 151200, "pitch": 36, "duration": 10, "velocity": 127}, {"time": 151440, "pitch": 36, "duration": 10, "velocity": 127}, {"time": 151600, "pitch": 38, "duration": 10, "velocity": 127}, {"time": 151680, "pitch": 38, "duration": 10, "velocity": 127}, {"time": 152160, "pitch": 36, "duration": 10, "velocity": 127}, {"time": 152400, "pitch": 29, "duration": 10, "velocity": 117}, {"time": 152640, "pitch": 38, "duration": 10, "velocity": 127}, {"time": 152880, "pitch": 29, "duration": 10, "velocity": 116}, {"time": 153040, "pitch": 36, "duration": 10, "velocity": 91}, {"time": 153120, "pitch": 36, "duration": 10, "velocity": 127}, {"time": 153360, "pitch": 36, "duration": 10, "velocity": 127}, {"time": 153600, "pitch": 38, "duration": 10, "velocity": 127}, {"time": 153830, "pitch": 29, "duration": 10, "velocity": 123}, {"time": 154000, "pitch": 36, "duration": 10, "velocity": 86}, {"time": 154080, "pitch": 36, "duration": 10, "velocity": 127}, {"time": 154320, "pitch": 36, "duration": 10, "velocity": 118}, {"time": 154480, "pitch": 38, "duration": 10, "velocity": 127}, {"time": 154560, "pitch": 38, "duration": 10, "velocity": 127}, {"time": 154960, "pitch": 36, "duration": 10, "velocity": 90}, {"time": 155040, "pitch": 36, "duration": 10, "velocity": 127}, {"time": 155280, "pitch": 36, "duration": 10, "velocity": 127}, {"time": 155440, "pitch": 38, "duration": 10, "velocity": 127}, {"time": 155520, "pitch": 38, "duration": 10, "velocity": 127}, {"time": 155520, "pitch": 49, "duration": 10, "velocity": 102}, {"time": 155760, "pitch": 38, "duration": 10, "velocity": 127}, {"time": 156000, "pitch": 36, "duration": 10, "velocity": 127}, {"time": 156240, "pitch": 36, "duration": 10, "velocity": 127}, {"time": 156480, "pitch": 36, "duration": 10, "velocity": 127}, {"time": 156990, "pitch": 38, "duration": 10, "velocity": 21}, {"time": 157100, "pitch": 38, "duration": 10, "velocity": 38}, {"time": 157140, "pitch": 38, "duration": 10, "velocity": 111}, {"time": 157180, "pitch": 38, "duration": 10, "velocity": 127}, {"time": 157180, "pitch": 40, "duration": 10, "velocity": 80}, {"time": 157420, "pitch": 38, "duration": 10, "velocity": 127}, {"time": 157420, "pitch": 40, "duration": 10, "velocity": 95}, {"time": 157580, "pitch": 38, "duration": 10, "velocity": 127}, {"time": 157580, "pitch": 40, "duration": 10, "velocity": 112}, {"time": 157920, "pitch": 36, "duration": 10, "velocity": 126}, {"time": 158160, "pitch": 29, "duration": 10, "velocity": 118}, {"time": 158400, "pitch": 38, "duration": 10, "velocity": 127}, {"time": 158640, "pitch": 29, "duration": 10, "velocity": 123}, {"time": 158880, "pitch": 36, "duration": 10, "velocity": 126}, {"time": 159120, "pitch": 36, "duration": 10, "velocity": 114}, {"time": 159360, "pitch": 38, "duration": 10, "velocity": 127}, {"time": 159590, "pitch": 29, "duration": 10, "velocity": 124}, {"time": 159760, "pitch": 36, "duration": 10, "velocity": 81}, {"time": 159840, "pitch": 36, "duration": 10, "velocity": 127}, {"time": 160320, "pitch": 38, "duration": 10, "velocity": 127}, {"time": 160800, "pitch": 36, "duration": 10, "velocity": 124}, {"time": 161040, "pitch": 36, "duration": 10, "velocity": 116}, {"time": 161280, "pitch": 38, "duration": 10, "velocity": 127}, {"time": 161760, "pitch": 36, "duration": 10, "velocity": 127}, {"time": 162240, "pitch": 38, "duration": 10, "velocity": 127}, {"time": 162720, "pitch": 36, "duration": 10, "velocity": 125}, {"time": 162960, "pitch": 36, "duration": 10, "velocity": 117}, {"time": 163200, "pitch": 38, "duration": 10, "velocity": 127}, {"time": 163430, "pitch": 29, "duration": 10, "velocity": 121}, {"time": 163600, "pitch": 36, "duration": 10, "velocity": 82}, {"time": 163680, "pitch": 36, "duration": 10, "velocity": 121}, {"time": 164160, "pitch": 38, "duration": 10, "velocity": 127}, {"time": 164390, "pitch": 29, "duration": 10, "velocity": 117}, {"time": 164640, "pitch": 36, "duration": 10, "velocity": 117}, {"time": 164880, "pitch": 36, "duration": 10, "velocity": 111}, {"time": 165040, "pitch": 38, "duration": 10, "velocity": 127}, {"time": 165120, "pitch": 38, "duration": 10, "velocity": 127}, {"time": 165600, "pitch": 36, "duration": 10, "velocity": 127}, {"time": 165600, "pitch": 55, "duration": 10, "velocity": 111}, {"time": 165840, "pitch": 29, "duration": 10, "velocity": 115}, {"time": 166080, "pitch": 38, "duration": 10, "velocity": 127}, {"time": 166320, "pitch": 29, "duration": 10, "velocity": 121}, {"time": 166560, "pitch": 36, "duration": 10, "velocity": 127}, {"time": 166800, "pitch": 36, "duration": 10, "velocity": 127}, {"time": 167040, "pitch": 38, "duration": 10, "velocity": 127}, {"time": 167270, "pitch": 29, "duration": 10, "velocity": 121}, {"time": 167440, "pitch": 36, "duration": 10, "velocity": 87}, {"time": 167520, "pitch": 36, "duration": 10, "velocity": 127}, {"time": 168000, "pitch": 38, "duration": 10, "velocity": 127}, {"time": 168480, "pitch": 36, "duration": 10, "velocity": 127}, {"time": 168720, "pitch": 36, "duration": 10, "velocity": 127}, {"time": 168960, "pitch": 38, "duration": 10, "velocity": 127}, {"time": 169440, "pitch": 36, "duration": 10, "velocity": 127}, {"time": 169680, "pitch": 29, "duration": 10, "velocity": 117}, {"time": 169920, "pitch": 38, "duration": 10, "velocity": 127}, {"time": 170160, "pitch": 29, "duration": 10, "velocity": 122}, {"time": 170400, "pitch": 36, "duration": 10, "velocity": 127}, {"time": 170640, "pitch": 36, "duration": 10, "velocity": 127}, {"time": 170880, "pitch": 38, "duration": 10, "velocity": 127}, {"time": 171110, "pitch": 29, "duration": 10, "velocity": 120}, {"time": 171280, "pitch": 36, "duration": 10, "velocity": 90}, {"time": 171360, "pitch": 36, "duration": 10, "velocity": 127}, {"time": 171360, "pitch": 38, "duration": 10, "velocity": 127}, {"time": 171600, "pitch": 38, "duration": 10, "velocity": 127}, {"time": 171840, "pitch": 38, "duration": 10, "velocity": 127}, {"time": 172080, "pitch": 38, "duration": 10, "velocity": 127}, {"time": 172240, "pitch": 36, "duration": 10, "velocity": 85}, {"time": 172320, "pitch": 36, "duration": 10, "velocity": 127}, {"time": 172320, "pitch": 38, "duration": 10, "velocity": 127}, {"time": 172480, "pitch": 38, "duration": 10, "velocity": 127}, {"time": 172720, "pitch": 36, "duration": 10, "velocity": 127}, {"time": 172800, "pitch": 38, "duration": 10, "velocity": 127}, {"time": 172960, "pitch": 38, "duration": 10, "velocity": 127}, {"time": 173280, "pitch": 36, "duration": 10, "velocity": 127}, {"time": 173280, "pitch": 38, "duration": 10, "velocity": 127}, {"time": 173520, "pitch": 36, "duration": 10, "velocity": 127}, {"time": 173520, "pitch": 38, "duration": 10, "velocity": 127}, {"time": 173760, "pitch": 36, "duration": 10, "velocity": 127}, {"time": 173760, "pitch": 38, "duration": 10, "velocity": 127}], "annotations": [{"time": 258, "annotation": {"number": 7, "value": 127}, "group": "control_change"}, {"time": 277, "annotation": {"number": 11, "value": 127}, "group": "control_change"}, {"time": 295, "annotation": {"number": 91, "value": 50}, "group": "control_change"}, {"time": 462, "annotation": {"number": 101, "value": 127}, "group": "control_change"}, {"time": 480, "annotation": {"number": 100, "value": 127}, "group": "control_change"}]}, {"program": 0, "is_drum": false, "name": "SUBDRUMS    ", "annotations": [{"time": 240, "annotation": {"number": 0, "value": 0}, "group": "control_change"}, {"time": 240, "annotation": {"number": 32, "value": 0}, "group": "control_change"}]}, {"program": 26, "is_drum": false, "name": "SUBDRUMS    ", "notes": [{"time": 480, "pitch": 27, "duration": 10, "velocity": 72}, {"time": 480, "pitch": 42, "duration": 10, "velocity": 98}, {"time": 730, "pitch": 85, "duration": 10, "velocity": 77}, {"time": 1210, "pitch": 42, "duration": 10, "velocity": 36}, {"time": 1370, "pitch": 46, "duration": 10, "velocity": 81}, {"time": 1440, "pitch": 27, "duration": 10, "velocity": 85}, {"time": 1480, "pitch": 42, "duration": 10, "velocity": 21}, {"time": 1690, "pitch": 85, "duration": 10, "velocity": 75}, {"time": 1700, "pitch": 42, "duration": 10, "velocity": 43}, {"time": 2160, "pitch": 42, "duration": 10, "velocity": 51}, {"time": 2240, "pitch": 42, "duration": 10, "velocity": 51}, {"time": 2320, "pitch": 42, "duration": 10, "velocity": 68}, {"time": 2400, "pitch": 27, "duration": 10, "velocity": 98}, {"time": 2400, "pitch": 42, "duration": 10, "velocity": 96}, {"time": 2650, "pitch": 85, "duration": 10, "velocity": 79}, {"time": 3130, "pitch": 42, "duration": 10, "velocity": 37}, {"time": 3130, "pitch": 85, "duration": 10, "velocity": 80}, {"time": 3290, "pitch": 46, "duration": 10, "velocity": 87}, {"time": 3360, "pitch": 27, "duration": 10, "velocity": 113}, {"time": 3400, "pitch": 42, "duration": 10, "velocity": 21}, {"time": 3610, "pitch": 85, "duration": 10, "velocity": 84}, {"time": 3620, "pitch": 42, "duration": 10, "velocity": 37}, {"time": 4080, "pitch": 42, "duration": 10, "velocity": 58}, {"time": 4090, "pitch": 85, "duration": 10, "velocity": 79}, {"time": 4160, "pitch": 42, "duration": 10, "velocity": 49}, {"time": 4240, "pitch": 42, "duration": 10, "velocity": 69}, {"time": 4320, "pitch": 27, "duration": 10, "velocity": 116}, {"time": 4320, "pitch": 42, "duration": 10, "velocity": 91}, {"time": 4570, "pitch": 85, "duration": 10, "velocity": 84}, {"time": 5050, "pitch": 42, "duration": 10, "velocity": 32}, {"time": 5210, "pitch": 46, "duration": 10, "velocity": 81}, {"time": 5280, "pitch": 27, "duration": 10, "velocity": 118}, {"time": 5320, "pitch": 42, "duration": 10, "velocity": 21}, {"time": 5530, "pitch": 85, "duration": 10, "velocity": 76}, {"time": 5540, "pitch": 42, "duration": 10, "velocity": 37}, {"time": 6000, "pitch": 42, "duration": 10, "velocity": 52}, {"time": 6080, "pitch": 42, "duration": 10, "velocity": 49}, {"time": 6160, "pitch": 42, "duration": 10, "velocity": 69}, {"time": 6240, "pitch": 27, "duration": 10, "velocity": 113}, {"time": 6240, "pitch": 42, "duration": 10, "velocity": 90}, {"time": 6490, "pitch": 85, "duration": 10, "velocity": 77}, {"time": 6960, "pitch": 42, "duration": 10, "velocity": 58}, {"time": 6970, "pitch": 85, "duration": 10, "velocity": 78}, {"time": 7040, "pitch": 42, "duration": 10, "velocity": 53}, {"time": 7120, "pitch": 42, "duration": 10, "velocity": 67}, {"time": 7200, "pitch": 27, "duration": 10, "velocity": 114}, {"time": 7200, "pitch": 42, "duration": 10, "velocity": 90}, {"time": 7450, "pitch": 85, "duration": 10, "velocity": 82}, {"time": 7920, "pitch": 42, "duration": 10, "velocity": 52}, {"time": 7930, "pitch": 85, "duration": 10, "velocity": 80}, {"time": 8000, "pitch": 42, "duration": 10, "velocity": 46}, {"time": 8080, "pitch": 42, "duration": 10, "velocity": 74}, {"time": 8160, "pitch": 27, "duration": 10, "velocity": 112}, {"time": 8160, "pitch": 33, "duration": 10, "velocity": 107}, {"time": 8160, "pitch": 42, "duration": 10, "velocity": 96}, {"time": 8160, "pitch": 57, "duration": 10, "velocity": 120}, {"time": 8170, "pitch": 54, "duration": 10, "velocity": 84}, {"time": 8320, "pitch": 31, "duration": 10, "velocity": 80}, {"time": 8400, "pitch": 33, "duration": 10, "velocity": 99}, {"time": 8410, "pitch": 54, "duration": 10, "velocity": 74}, {"time": 8410, "pitch": 85, "duration": 10, "velocity": 78}, {"time": 8890, "pitch": 42, "duration": 10, "velocity": 33}, {"time": 8890, "pitch": 54, "duration": 10, "velocity": 53}, {"time": 9050, "pitch": 46, "duration": 10, "velocity": 86}, {"time": 9050, "pitch": 54, "duration": 10, "velocity": 100}, {"time": 9120, "pitch": 27, "duration": 10, "velocity": 112}, {"time": 9120, "pitch": 33, "duration": 10, "velocity": 106}, {"time": 9130, "pitch": 54, "duration": 10, "velocity": 87}, {"time": 9160, "pitch": 42, "duration": 10, "velocity": 21}, {"time": 9280, "pitch": 31, "duration": 10, "velocity": 82}, {"time": 9360, "pitch": 33, "duration": 10, "velocity": 97}, {"time": 9370, "pitch": 42, "duration": 10, "velocity": 79}, {"time": 9370, "pitch": 54, "duration": 10, "velocity": 76}, {"time": 9370, "pitch": 85, "duration": 10, "velocity": 77}, {"time": 9600, "pitch": 54, "duration": 10, "velocity": 52}, {"time": 9680, "pitch": 54, "duration": 10, "velocity": 45}, {"time": 9760, "pitch": 54, "duration": 10, "velocity": 60}, {"time": 9840, "pitch": 42, "duration": 10, "velocity": 56}, {"time": 9840, "pitch": 54, "duration": 10, "velocity": 87}, {"time": 9920, "pitch": 42, "duration": 10, "velocity": 53}, {"time": 10000, "pitch": 42, "duration": 10, "velocity": 72}, {"time": 10010, "pitch": 54, "duration": 10, "velocity": 86}, {"time": 10080, "pitch": 27, "duration": 10, "velocity": 121}, {"time": 10080, "pitch": 33, "duration": 10, "velocity": 102}, {"time": 10080, "pitch": 42, "duration": 10, "velocity": 99}, {"time": 10090, "pitch": 54, "duration": 10, "velocity": 89}, {"time": 10240, "pitch": 31, "duration": 10, "velocity": 78}, {"time": 10250, "pitch": 54, "duration": 10, "velocity": 84}, {"time": 10320, "pitch": 33, "duration": 10, "velocity": 96}, {"time": 10330, "pitch": 54, "duration": 10, "velocity": 79}, {"time": 10330, "pitch": 85, "duration": 10, "velocity": 79}, {"time": 10810, "pitch": 42, "duration": 10, "velocity": 34}, {"time": 10810, "pitch": 85, "duration": 10, "velocity": 84}, {"time": 10970, "pitch": 46, "duration": 10, "velocity": 85}, {"time": 10970, "pitch": 54, "duration": 10, "velocity": 83}, {"time": 11040, "pitch": 27, "duration": 10, "velocity": 113}, {"time": 11040, "pitch": 33, "duration": 10, "velocity": 109}, {"time": 11050, "pitch": 54, "duration": 10, "velocity": 83}, {"time": 11080, "pitch": 42, "duration": 10, "velocity": 21}, {"time": 11200, "pitch": 31, "duration": 10, "velocity": 84}, {"time": 11280, "pitch": 33, "duration": 10, "velocity": 103}, {"time": 11290, "pitch": 42, "duration": 10, "velocity": 74}, {"time": 11290, "pitch": 54, "duration": 10, "velocity": 72}, {"time": 11290, "pitch": 85, "duration": 10, "velocity": 82}, {"time": 11520, "pitch": 54, "duration": 10, "velocity": 46}, {"time": 11600, "pitch": 54, "duration": 10, "velocity": 46}, {"time": 11680, "pitch": 54, "duration": 10, "velocity": 67}, {"time": 11760, "pitch": 42, "duration": 10, "velocity": 52}, {"time": 11760, "pitch": 54, "duration": 10, "velocity": 85}, {"time": 11770, "pitch": 85, "duration": 10, "velocity": 75}, {"time": 11840, "pitch": 42, "duration": 10, "velocity": 48}, {"time": 11920, "pitch": 42, "duration": 10, "velocity": 71}, {"time": 12000, "pitch": 27, "duration": 10, "velocity": 117}, {"time": 12000, "pitch": 33, "duration": 10, "velocity": 107}, {"time": 12000, "pitch": 42, "duration": 10, "velocity": 93}, {"time": 12010, "pitch": 54, "duration": 10, "velocity": 74}, {"time": 12090, "pitch": 54, "duration": 10, "velocity": 36}, {"time": 12160, "pitch": 31, "duration": 10, "velocity": 79}, {"time": 12170, "pitch": 54, "duration": 10, "velocity": 83}, {"time": 12240, "pitch": 33, "duration": 10, "velocity": 103}, {"time": 12250, "pitch": 54, "duration": 10, "velocity": 76}, {"time": 12250, "pitch": 85, "duration": 10, "velocity": 79}, {"time": 12730, "pitch": 42, "duration": 10, "velocity": 38}, {"time": 12890, "pitch": 46, "duration": 10, "velocity": 87}, {"time": 12890, "pitch": 54, "duration": 10, "velocity": 82}, {"time": 12960, "pitch": 27, "duration": 10, "velocity": 116}, {"time": 12960, "pitch": 33, "duration": 10, "velocity": 107}, {"time": 12970, "pitch": 54, "duration": 10, "velocity": 91}, {"time": 13000, "pitch": 42, "duration": 10, "velocity": 21}, {"time": 13120, "pitch": 31, "duration": 10, "velocity": 76}, {"time": 13200, "pitch": 33, "duration": 10, "velocity": 97}, {"time": 13210, "pitch": 42, "duration": 10, "velocity": 70}, {"time": 13210, "pitch": 54, "duration": 10, "velocity": 79}, {"time": 13210, "pitch": 85, "duration": 10, "velocity": 77}, {"time": 13440, "pitch": 54, "duration": 10, "velocity": 54}, {"time": 13520, "pitch": 54, "duration": 10, "velocity": 46}, {"time": 13600, "pitch": 54, "duration": 10, "velocity": 61}, {"time": 13680, "pitch": 42, "duration": 10, "velocity": 52}, {"time": 13680, "pitch": 54, "duration": 10, "velocity": 89}, {"time": 13760, "pitch": 42, "duration": 10, "velocity": 51}, {"time": 13840, "pitch": 42, "duration": 10, "velocity": 73}, {"time": 13920, "pitch": 27, "duration": 10, "velocity": 120}, {"time": 13920, "pitch": 33, "duration": 10, "velocity": 107}, {"time": 13920, "pitch": 42, "duration": 10, "velocity": 93}, {"time": 13930, "pitch": 54, "duration": 10, "velocity": 78}, {"time": 14010, "pitch": 54, "duration": 10, "velocity": 29}, {"time": 14080, "pitch": 31, "duration": 10, "velocity": 76}, {"time": 14090, "pitch": 54, "duration": 10, "velocity": 79}, {"time": 14160, "pitch": 33, "duration": 10, "velocity": 96}, {"time": 14170, "pitch": 54, "duration": 10, "velocity": 79}, {"time": 14170, "pitch": 85, "duration": 10, "velocity": 81}, {"time": 14650, "pitch": 42, "duration": 10, "velocity": 33}, {"time": 14650, "pitch": 85, "duration": 10, "velocity": 80}, {"time": 14810, "pitch": 46, "duration": 10, "velocity": 85}, {"time": 14810, "pitch": 54, "duration": 10, "velocity": 89}, {"time": 14880, "pitch": 27, "duration": 10, "velocity": 118}, {"time": 14880, "pitch": 33, "duration": 10, "velocity": 101}, {"time": 14890, "pitch": 54, "duration": 10, "velocity": 87}, {"time": 14920, "pitch": 42, "duration": 10, "velocity": 21}, {"time": 15040, "pitch": 31, "duration": 10, "velocity": 82}, {"time": 15120, "pitch": 33, "duration": 10, "velocity": 103}, {"time": 15130, "pitch": 42, "duration": 10, "velocity": 72}, {"time": 15130, "pitch": 54, "duration": 10, "velocity": 71}, {"time": 15130, "pitch": 85, "duration": 10, "velocity": 84}, {"time": 15360, "pitch": 54, "duration": 10, "velocity": 47}, {"time": 15440, "pitch": 54, "duration": 10, "velocity": 41}, {"time": 15520, "pitch": 54, "duration": 10, "velocity": 62}, {"time": 15600, "pitch": 42, "duration": 10, "velocity": 58}, {"time": 15600, "pitch": 54, "duration": 10, "velocity": 87}, {"time": 15610, "pitch": 85, "duration": 10, "velocity": 80}, {"time": 15680, "pitch": 42, "duration": 10, "velocity": 47}, {"time": 15760, "pitch": 42, "duration": 10, "velocity": 71}, {"time": 15840, "pitch": 27, "duration": 10, "velocity": 116}, {"time": 15840, "pitch": 33, "duration": 10, "velocity": 107}, {"time": 15840, "pitch": 42, "duration": 10, "velocity": 91}, {"time": 15850, "pitch": 54, "duration": 10, "velocity": 78}, {"time": 15930, "pitch": 54, "duration": 10, "velocity": 32}, {"time": 16000, "pitch": 31, "duration": 10, "velocity": 85}, {"time": 16010, "pitch": 54, "duration": 10, "velocity": 85}, {"time": 16080, "pitch": 33, "duration": 10, "velocity": 102}, {"time": 16090, "pitch": 54, "duration": 10, "velocity": 78}, {"time": 16090, "pitch": 85, "duration": 10, "velocity": 75}, {"time": 16570, "pitch": 42, "duration": 10, "velocity": 38}, {"time": 16720, "pitch": 38, "duration": 10, "velocity": 84}, {"time": 16730, "pitch": 46, "duration": 10, "velocity": 86}, {"time": 16730, "pitch": 54, "duration": 10, "velocity": 82}, {"time": 16800, "pitch": 27, "duration": 10, "velocity": 114}, {"time": 16800, "pitch": 33, "duration": 10, "velocity": 103}, {"time": 16800, "pitch": 56, "duration": 10, "velocity": 127}, {"time": 16810, "pitch": 54, "duration": 10, "velocity": 87}, {"time": 16840, "pitch": 42, "duration": 10, "velocity": 21}, {"time": 16960, "pitch": 31, "duration": 10, "velocity": 76}, {"time": 16960, "pitch": 38, "duration": 10, "velocity": 42}, {"time": 17040, "pitch": 33, "duration": 10, "velocity": 94}, {"time": 17040, "pitch": 38, "duration": 10, "velocity": 78}, {"time": 17050, "pitch": 42, "duration": 10, "velocity": 77}, {"time": 17050, "pitch": 54, "duration": 10, "velocity": 79}, {"time": 17050, "pitch": 85, "duration": 10, "velocity": 84}, {"time": 17200, "pitch": 56, "duration": 10, "velocity": 125}, {"time": 17280, "pitch": 54, "duration": 10, "velocity": 53}, {"time": 17360, "pitch": 54, "duration": 10, "velocity": 44}, {"time": 17440, "pitch": 54, "duration": 10, "velocity": 58}, {"time": 17520, "pitch": 42, "duration": 10, "velocity": 57}, {"time": 17520, "pitch": 54, "duration": 10, "velocity": 91}, {"time": 17540, "pitch": 56, "duration": 10, "velocity": 126}, {"time": 17600, "pitch": 42, "duration": 10, "velocity": 51}, {"time": 17680, "pitch": 42, "duration": 10, "velocity": 69}, {"time": 17760, "pitch": 27, "duration": 10, "velocity": 121}, {"time": 17760, "pitch": 33, "duration": 10, "velocity": 109}, {"time": 17760, "pitch": 42, "duration": 10, "velocity": 98}, {"time": 17770, "pitch": 54, "duration": 10, "velocity": 75}, {"time": 17850, "pitch": 54, "duration": 10, "velocity": 38}, {"time": 17920, "pitch": 31, "duration": 10, "velocity": 83}, {"time": 17930, "pitch": 54, "duration": 10, "velocity": 88}, {"time": 18000, "pitch": 33, "duration": 10, "velocity": 95}, {"time": 18010, "pitch": 54, "duration": 10, "velocity": 79}, {"time": 18010, "pitch": 85, "duration": 10, "velocity": 81}, {"time": 18490, "pitch": 42, "duration": 10, "velocity": 37}, {"time": 18490, "pitch": 85, "duration": 10, "velocity": 82}, {"time": 18640, "pitch": 38, "duration": 10, "velocity": 86}, {"time": 18650, "pitch": 46, "duration": 10, "velocity": 81}, {"time": 18650, "pitch": 54, "duration": 10, "velocity": 81}, {"time": 18720, "pitch": 27, "duration": 10, "velocity": 120}, {"time": 18720, "pitch": 33, "duration": 10, "velocity": 103}, {"time": 18730, "pitch": 54, "duration": 10, "velocity": 84}, {"time": 18760, "pitch": 42, "duration": 10, "velocity": 21}, {"time": 18880, "pitch": 31, "duration": 10, "velocity": 79}, {"time": 18880, "pitch": 38, "duration": 10, "velocity": 44}, {"time": 18960, "pitch": 33, "duration": 10, "velocity": 101}, {"time": 18960, "pitch": 38, "duration": 10, "velocity": 72}, {"time": 18970, "pitch": 42, "duration": 10, "velocity": 77}, {"time": 18970, "pitch": 54, "duration": 10, "velocity": 79}, {"time": 18970, "pitch": 85, "duration": 10, "velocity": 81}, {"time": 19200, "pitch": 54, "duration": 10, "velocity": 54}, {"time": 19280, "pitch": 54, "duration": 10, "velocity": 50}, {"time": 19360, "pitch": 54, "duration": 10, "velocity": 60}, {"time": 19440, "pitch": 42, "duration": 10, "velocity": 55}, {"time": 19440, "pitch": 54, "duration": 10, "velocity": 83}, {"time": 19450, "pitch": 85, "duration": 10, "velocity": 83}, {"time": 19520, "pitch": 42, "duration": 10, "velocity": 54}, {"time": 19600, "pitch": 42, "duration": 10, "velocity": 73}, {"time": 19680, "pitch": 27, "duration": 10, "velocity": 120}, {"time": 19680, "pitch": 33, "duration": 10, "velocity": 100}, {"time": 19680, "pitch": 42, "duration": 10, "velocity": 95}, {"time": 19690, "pitch": 54, "duration": 10, "velocity": 77}, {"time": 19770, "pitch": 54, "duration": 10, "velocity": 37}, {"time": 19840, "pitch": 31, "duration": 10, "velocity": 83}, {"time": 19850, "pitch": 54, "duration": 10, "velocity": 82}, {"time": 19920, "pitch": 33, "duration": 10, "velocity": 100}, {"time": 19930, "pitch": 54, "duration": 10, "velocity": 83}, {"time": 19930, "pitch": 85, "duration": 10, "velocity": 79}, {"time": 20410, "pitch": 42, "duration": 10, "velocity": 39}, {"time": 20560, "pitch": 38, "duration": 10, "velocity": 83}, {"time": 20570, "pitch": 46, "duration": 10, "velocity": 79}, {"time": 20570, "pitch": 54, "duration": 10, "velocity": 86}, {"time": 20640, "pitch": 27, "duration": 10, "velocity": 121}, {"time": 20640, "pitch": 33, "duration": 10, "velocity": 105}, {"time": 20640, "pitch": 56, "duration": 10, "velocity": 120}, {"time": 20650, "pitch": 54, "duration": 10, "velocity": 89}, {"time": 20680, "pitch": 42, "duration": 10, "velocity": 21}, {"time": 20800, "pitch": 31, "duration": 10, "velocity": 77}, {"time": 20800, "pitch": 38, "duration": 10, "velocity": 46}, {"time": 20880, "pitch": 33, "duration": 10, "velocity": 94}, {"time": 20880, "pitch": 38, "duration": 10, "velocity": 77}, {"time": 20890, "pitch": 42, "duration": 10, "velocity": 71}, {"time": 20890, "pitch": 54, "duration": 10, "velocity": 80}, {"time": 20890, "pitch": 85, "duration": 10, "velocity": 76}, {"time": 21040, "pitch": 56, "duration": 10, "velocity": 125}, {"time": 21120, "pitch": 54, "duration": 10, "velocity": 49}, {"time": 21200, "pitch": 54, "duration": 10, "velocity": 44}, {"time": 21280, "pitch": 54, "duration": 10, "velocity": 63}, {"time": 21360, "pitch": 42, "duration": 10, "velocity": 58}, {"time": 21360, "pitch": 54, "duration": 10, "velocity": 89}, {"time": 21380, "pitch": 56, "duration": 10, "velocity": 123}, {"time": 21440, "pitch": 42, "duration": 10, "velocity": 54}, {"time": 21520, "pitch": 42, "duration": 10, "velocity": 68}, {"time": 21600, "pitch": 27, "duration": 10, "velocity": 112}, {"time": 21600, "pitch": 33, "duration": 10, "velocity": 107}, {"time": 21600, "pitch": 42, "duration": 10, "velocity": 99}, {"time": 21610, "pitch": 54, "duration": 10, "velocity": 73}, {"time": 21690, "pitch": 54, "duration": 10, "velocity": 31}, {"time": 21760, "pitch": 31, "duration": 10, "velocity": 85}, {"time": 21770, "pitch": 54, "duration": 10, "velocity": 82}, {"time": 21840, "pitch": 33, "duration": 10, "velocity": 99}, {"time": 21850, "pitch": 54, "duration": 10, "velocity": 81}, {"time": 22800, "pitch": 33, "duration": 10, "velocity": 102}, {"time": 22800, "pitch": 38, "duration": 10, "velocity": 71}, {"time": 22810, "pitch": 54, "duration": 10, "velocity": 71}, {"time": 23040, "pitch": 54, "duration": 10, "velocity": 46}, {"time": 23120, "pitch": 54, "duration": 10, "velocity": 41}, {"time": 23200, "pitch": 54, "duration": 10, "velocity": 65}, {"time": 23280, "pitch": 42, "duration": 10, "velocity": 59}, {"time": 23280, "pitch": 54, "duration": 10, "velocity": 88}, {"time": 23360, "pitch": 42, "duration": 10, "velocity": 52}, {"time": 23440, "pitch": 42, "duration": 10, "velocity": 73}, {"time": 23520, "pitch": 27, "duration": 10, "velocity": 115}, {"time": 23520, "pitch": 33, "duration": 10, "velocity": 102}, {"time": 23520, "pitch": 42, "duration": 10, "velocity": 91}, {"time": 23530, "pitch": 54, "duration": 10, "velocity": 77}, {"time": 23610, "pitch": 54, "duration": 10, "velocity": 36}, {"time": 23680, "pitch": 31, "duration": 10, "velocity": 83}, {"time": 23690, "pitch": 54, "duration": 10, "velocity": 85}, {"time": 23760, "pitch": 33, "duration": 10, "velocity": 100}, {"time": 23770, "pitch": 42, "duration": 10, "velocity": 72}, {"time": 23770, "pitch": 54, "duration": 10, "velocity": 81}, {"time": 23770, "pitch": 85, "duration": 10, "velocity": 80}, {"time": 24250, "pitch": 42, "duration": 10, "velocity": 32}, {"time": 24410, "pitch": 46, "duration": 10, "velocity": 79}, {"time": 24410, "pitch": 54, "duration": 10, "velocity": 87}, {"time": 24480, "pitch": 27, "duration": 10, "velocity": 120}, {"time": 24480, "pitch": 33, "duration": 10, "velocity": 108}, {"time": 24490, "pitch": 54, "duration": 10, "velocity": 90}, {"time": 24520, "pitch": 42, "duration": 10, "velocity": 21}, {"time": 24640, "pitch": 31, "duration": 10, "velocity": 76}, {"time": 24720, "pitch": 33, "duration": 10, "velocity": 102}, {"time": 24730, "pitch": 54, "duration": 10, "velocity": 78}, {"time": 24730, "pitch": 85, "duration": 10, "velocity": 77}, {"time": 24960, "pitch": 54, "duration": 10, "velocity": 54}, {"time": 25040, "pitch": 54, "duration": 10, "velocity": 50}, {"time": 25120, "pitch": 54, "duration": 10, "velocity": 60}, {"time": 25200, "pitch": 42, "duration": 10, "velocity": 57}, {"time": 25200, "pitch": 54, "duration": 10, "velocity": 86}, {"time": 25280, "pitch": 42, "duration": 10, "velocity": 48}, {"time": 25360, "pitch": 42, "duration": 10, "velocity": 69}, {"time": 25440, "pitch": 27, "duration": 10, "velocity": 120}, {"time": 25440, "pitch": 33, "duration": 10, "velocity": 104}, {"time": 25440, "pitch": 42, "duration": 10, "velocity": 93}, {"time": 25450, "pitch": 54, "duration": 10, "velocity": 77}, {"time": 25530, "pitch": 54, "duration": 10, "velocity": 35}, {"time": 25600, "pitch": 31, "duration": 10, "velocity": 85}, {"time": 25610, "pitch": 54, "duration": 10, "velocity": 84}, {"time": 25680, "pitch": 33, "duration": 10, "velocity": 95}, {"time": 25690, "pitch": 42, "duration": 10, "velocity": 71}, {"time": 25690, "pitch": 54, "duration": 10, "velocity": 80}, {"time": 25690, "pitch": 85, "duration": 10, "velocity": 76}, {"time": 26170, "pitch": 42, "duration": 10, "velocity": 39}, {"time": 26170, "pitch": 85, "duration": 10, "velocity": 82}, {"time": 26330, "pitch": 46, "duration": 10, "velocity": 84}, {"time": 26330, "pitch": 54, "duration": 10, "velocity": 87}, {"time": 26400, "pitch": 27, "duration": 10, "velocity": 116}, {"time": 26400, "pitch": 33, "duration": 10, "velocity": 106}, {"time": 26410, "pitch": 54, "duration": 10, "velocity": 84}, {"time": 26440, "pitch": 42, "duration": 10, "velocity": 21}, {"time": 26560, "pitch": 31, "duration": 10, "velocity": 76}, {"time": 26640, "pitch": 33, "duration": 10, "velocity": 98}, {"time": 26650, "pitch": 54, "duration": 10, "velocity": 74}, {"time": 26650, "pitch": 85, "duration": 10, "velocity": 84}, {"time": 26880, "pitch": 54, "duration": 10, "velocity": 52}, {"time": 26960, "pitch": 54, "duration": 10, "velocity": 44}, {"time": 27040, "pitch": 54, "duration": 10, "velocity": 65}, {"time": 27120, "pitch": 42, "duration": 10, "velocity": 57}, {"time": 27120, "pitch": 54, "duration": 10, "velocity": 89}, {"time": 27130, "pitch": 85, "duration": 10, "velocity": 83}, {"time": 27200, "pitch": 42, "duration": 10, "velocity": 48}, {"time": 27280, "pitch": 42, "duration": 10, "velocity": 67}, {"time": 27360, "pitch": 27, "duration": 10, "velocity": 115}, {"time": 27360, "pitch": 33, "duration": 10, "velocity": 109}, {"time": 27360, "pitch": 42, "duration": 10, "velocity": 93}, {"time": 27370, "pitch": 54, "duration": 10, "velocity": 75}, {"time": 27450, "pitch": 54, "duration": 10, "velocity": 37}, {"time": 27520, "pitch": 31, "duration": 10, "velocity": 83}, {"time": 27530, "pitch": 54, "duration": 10, "velocity": 82}, {"time": 27600, "pitch": 33, "duration": 10, "velocity": 101}, {"time": 27610, "pitch": 42, "duration": 10, "velocity": 76}, {"time": 27610, "pitch": 54, "duration": 10, "velocity": 81}, {"time": 27610, "pitch": 85, "duration": 10, "velocity": 80}, {"time": 28090, "pitch": 42, "duration": 10, "velocity": 39}, {"time": 28250, "pitch": 46, "duration": 10, "velocity": 80}, {"time": 28250, "pitch": 54, "duration": 10, "velocity": 86}, {"time": 28320, "pitch": 27, "duration": 10, "velocity": 113}, {"time": 28320, "pitch": 33, "duration": 10, "velocity": 101}, {"time": 28330, "pitch": 54, "duration": 10, "velocity": 83}, {"time": 28360, "pitch": 42, "duration": 10, "velocity": 21}, {"time": 28480, "pitch": 31, "duration": 10, "velocity": 85}, {"time": 28560, "pitch": 33, "duration": 10, "velocity": 95}, {"time": 28570, "pitch": 54, "duration": 10, "velocity": 79}, {"time": 28570, "pitch": 85, "duration": 10, "velocity": 78}, {"time": 28800, "pitch": 54, "duration": 10, "velocity": 51}, {"time": 28880, "pitch": 54, "duration": 10, "velocity": 50}, {"time": 28960, "pitch": 54, "duration": 10, "velocity": 58}, {"time": 29040, "pitch": 42, "duration": 10, "velocity": 57}, {"time": 29040, "pitch": 54, "duration": 10, "velocity": 83}, {"time": 29120, "pitch": 42, "duration": 10, "velocity": 51}, {"time": 29200, "pitch": 42, "duration": 10, "velocity": 66}, {"time": 29280, "pitch": 27, "duration": 10, "velocity": 114}, {"time": 29280, "pitch": 33, "duration": 10, "velocity": 106}, {"time": 29280, "pitch": 42, "duration": 10, "velocity": 98}, {"time": 29290, "pitch": 54, "duration": 10, "velocity": 72}, {"time": 29370, "pitch": 54, "duration": 10, "velocity": 38}, {"time": 29440, "pitch": 31, "duration": 10, "velocity": 80}, {"time": 29450, "pitch": 54, "duration": 10, "velocity": 83}, {"time": 29520, "pitch": 33, "duration": 10, "velocity": 94}, {"time": 29530, "pitch": 42, "duration": 10, "velocity": 78}, {"time": 29530, "pitch": 54, "duration": 10, "velocity": 81}, {"time": 29530, "pitch": 85, "duration": 10, "velocity": 82}, {"time": 30000, "pitch": 42, "duration": 10, "velocity": 60}, {"time": 30010, "pitch": 85, "duration": 10, "velocity": 75}, {"time": 30080, "pitch": 42, "duration": 10, "velocity": 53}, {"time": 30160, "pitch": 42, "duration": 10, "velocity": 67}, {"time": 30170, "pitch": 54, "duration": 10, "velocity": 87}, {"time": 30240, "pitch": 27, "duration": 10, "velocity": 114}, {"time": 30240, "pitch": 33, "duration": 10, "velocity": 107}, {"time": 30240, "pitch": 42, "duration": 10, "velocity": 99}, {"time": 30250, "pitch": 54, "duration": 10, "velocity": 89}, {"time": 30400, "pitch": 31, "duration": 10, "velocity": 79}, {"time": 30480, "pitch": 33, "duration": 10, "velocity": 100}, {"time": 30490, "pitch": 54, "duration": 10, "velocity": 78}, {"time": 30490, "pitch": 85, "duration": 10, "velocity": 82}, {"time": 30720, "pitch": 54, "duration": 10, "velocity": 52}, {"time": 30800, "pitch": 54, "duration": 10, "velocity": 43}, {"time": 30880, "pitch": 54, "duration": 10, "velocity": 66}, {"time": 30960, "pitch": 42, "duration": 10, "velocity": 53}, {"time": 30960, "pitch": 54, "duration": 10, "velocity": 88}, {"time": 30970, "pitch": 85, "duration": 10, "velocity": 78}, {"time": 31040, "pitch": 42, "duration": 10, "velocity": 51}, {"time": 31120, "pitch": 42, "duration": 10, "velocity": 73}, {"time": 31200, "pitch": 27, "duration": 10, "velocity": 117}, {"time": 31200, "pitch": 33, "duration": 10, "velocity": 108}, {"time": 31200, "pitch": 42, "duration": 10, "velocity": 97}, {"time": 31210, "pitch": 54, "duration": 10, "velocity": 76}, {"time": 31290, "pitch": 54, "duration": 10, "velocity": 36}, {"time": 31360, "pitch": 31, "duration": 10, "velocity": 77}, {"time": 31370, "pitch": 54, "duration": 10, "velocity": 87}, {"time": 31440, "pitch": 33, "duration": 10, "velocity": 99}, {"time": 31450, "pitch": 42, "duration": 10, "velocity": 70}, {"time": 31450, "pitch": 54, "duration": 10, "velocity": 76}, {"time": 31450, "pitch": 85, "duration": 10, "velocity": 82}, {"time": 31930, "pitch": 42, "duration": 10, "velocity": 41}, {"time": 32090, "pitch": 46, "duration": 10, "velocity": 81}, {"time": 32090, "pitch": 54, "duration": 10, "velocity": 83}, {"time": 32160, "pitch": 27, "duration": 10, "velocity": 120}, {"time": 32160, "pitch": 33, "duration": 10, "velocity": 100}, {"time": 32160, "pitch": 56, "duration": 10, "velocity": 123}, {"time": 32170, "pitch": 54, "duration": 10, "velocity": 91}, {"time": 32200, "pitch": 42, "duration": 10, "velocity": 21}, {"time": 32320, "pitch": 31, "duration": 10, "velocity": 78}, {"time": 32400, "pitch": 33, "duration": 10, "velocity": 97}, {"time": 32410, "pitch": 54, "duration": 10, "velocity": 78}, {"time": 32410, "pitch": 85, "duration": 10, "velocity": 82}, {"time": 32560, "pitch": 56, "duration": 10, "velocity": 125}, {"time": 32640, "pitch": 54, "duration": 10, "velocity": 48}, {"time": 32720, "pitch": 54, "duration": 10, "velocity": 46}, {"time": 32800, "pitch": 54, "duration": 10, "velocity": 63}, {"time": 32880, "pitch": 42, "duration": 10, "velocity": 55}, {"time": 32880, "pitch": 54, "duration": 10, "velocity": 92}, {"time": 32900, "pitch": 56, "duration": 10, "velocity": 125}, {"time": 32960, "pitch": 42, "duration": 10, "velocity": 48}, {"time": 33040, "pitch": 42, "duration": 10, "velocity": 72}, {"time": 33120, "pitch": 27, "duration": 10, "velocity": 113}, {"time": 33120, "pitch": 33, "duration": 10, "velocity": 101}, {"time": 33120, "pitch": 42, "duration": 10, "velocity": 95}, {"time": 33130, "pitch": 54, "duration": 10, "velocity": 72}, {"time": 33210, "pitch": 54, "duration": 10, "velocity": 35}, {"time": 33280, "pitch": 31, "duration": 10, "velocity": 76}, {"time": 33290, "pitch": 54, "duration": 10, "velocity": 83}, {"time": 33360, "pitch": 33, "duration": 10, "velocity": 94}, {"time": 33370, "pitch": 42, "duration": 10, "velocity": 72}, {"time": 33370, "pitch": 54, "duration": 10, "velocity": 77}, {"time": 33370, "pitch": 85, "duration": 10, "velocity": 80}, {"time": 33850, "pitch": 42, "duration": 10, "velocity": 40}, {"time": 33850, "pitch": 85, "duration": 10, "velocity": 81}, {"time": 34010, "pitch": 46, "duration": 10, "velocity": 85}, {"time": 34010, "pitch": 54, "duration": 10, "velocity": 83}, {"time": 34080, "pitch": 27, "duration": 10, "velocity": 117}, {"time": 34080, "pitch": 33, "duration": 10, "velocity": 109}, {"time": 34090, "pitch": 54, "duration": 10, "velocity": 85}, {"time": 34120, "pitch": 42, "duration": 10, "velocity": 21}, {"time": 34240, "pitch": 31, "duration": 10, "velocity": 80}, {"time": 34320, "pitch": 33, "duration": 10, "velocity": 103}, {"time": 34330, "pitch": 54, "duration": 10, "velocity": 72}, {"time": 34330, "pitch": 85, "duration": 10, "velocity": 79}, {"time": 34560, "pitch": 54, "duration": 10, "velocity": 50}, {"time": 34640, "pitch": 54, "duration": 10, "velocity": 44}, {"time": 34720, "pitch": 54, "duration": 10, "velocity": 64}, {"time": 34800, "pitch": 42, "duration": 10, "velocity": 53}, {"time": 34800, "pitch": 54, "duration": 10, "velocity": 87}, {"time": 34810, "pitch": 85, "duration": 10, "velocity": 84}, {"time": 34880, "pitch": 42, "duration": 10, "velocity": 46}, {"time": 34960, "pitch": 42, "duration": 10, "velocity": 68}, {"time": 35040, "pitch": 27, "duration": 10, "velocity": 116}, {"time": 35040, "pitch": 33, "duration": 10, "velocity": 108}, {"time": 35040, "pitch": 42, "duration": 10, "velocity": 90}, {"time": 35050, "pitch": 54, "duration": 10, "velocity": 79}, {"time": 35130, "pitch": 54, "duration": 10, "velocity": 31}, {"time": 35200, "pitch": 31, "duration": 10, "velocity": 81}, {"time": 35210, "pitch": 54, "duration": 10, "velocity": 82}, {"time": 35280, "pitch": 33, "duration": 10, "velocity": 98}, {"time": 35290, "pitch": 42, "duration": 10, "velocity": 75}, {"time": 35290, "pitch": 54, "duration": 10, "velocity": 76}, {"time": 35290, "pitch": 85, "duration": 10, "velocity": 75}, {"time": 35770, "pitch": 42, "duration": 10, "velocity": 39}, {"time": 35930, "pitch": 46, "duration": 10, "velocity": 80}, {"time": 35930, "pitch": 54, "duration": 10, "velocity": 88}, {"time": 36000, "pitch": 27, "duration": 10, "velocity": 117}, {"time": 36000, "pitch": 33, "duration": 10, "velocity": 101}, {"time": 36000, "pitch": 56, "duration": 10, "velocity": 123}, {"time": 36010, "pitch": 54, "duration": 10, "velocity": 86}, {"time": 36040, "pitch": 42, "duration": 10, "velocity": 21}, {"time": 36160, "pitch": 31, "duration": 10, "velocity": 85}, {"time": 36240, "pitch": 33, "duration": 10, "velocity": 95}, {"time": 36250, "pitch": 54, "duration": 10, "velocity": 72}, {"time": 36250, "pitch": 85, "duration": 10, "velocity": 83}, {"time": 36400, "pitch": 56, "duration": 10, "velocity": 127}, {"time": 36480, "pitch": 54, "duration": 10, "velocity": 47}, {"time": 36560, "pitch": 54, "duration": 10, "velocity": 49}, {"time": 36640, "pitch": 54, "duration": 10, "velocity": 62}, {"time": 36720, "pitch": 42, "duration": 10, "velocity": 61}, {"time": 36720, "pitch": 54, "duration": 10, "velocity": 91}, {"time": 36740, "pitch": 56, "duration": 10, "velocity": 127}, {"time": 36800, "pitch": 42, "duration": 10, "velocity": 46}, {"time": 36880, "pitch": 42, "duration": 10, "velocity": 70}, {"time": 36960, "pitch": 27, "duration": 10, "velocity": 115}, {"time": 36960, "pitch": 33, "duration": 10, "velocity": 105}, {"time": 36960, "pitch": 42, "duration": 10, "velocity": 99}, {"time": 36970, "pitch": 54, "duration": 10, "velocity": 80}, {"time": 37050, "pitch": 54, "duration": 10, "velocity": 35}, {"time": 37120, "pitch": 31, "duration": 10, "velocity": 77}, {"time": 37130, "pitch": 54, "duration": 10, "velocity": 84}, {"time": 37200, "pitch": 33, "duration": 10, "velocity": 100}, {"time": 37210, "pitch": 42, "duration": 10, "velocity": 75}, {"time": 37210, "pitch": 54, "duration": 10, "velocity": 84}, {"time": 37210, "pitch": 85, "duration": 10, "velocity": 84}, {"time": 37680, "pitch": 42, "duration": 10, "velocity": 58}, {"time": 37690, "pitch": 85, "duration": 10, "velocity": 81}, {"time": 37760, "pitch": 42, "duration": 10, "velocity": 52}, {"time": 37840, "pitch": 42, "duration": 10, "velocity": 67}, {"time": 37850, "pitch": 54, "duration": 10, "velocity": 86}, {"time": 37920, "pitch": 27, "duration": 10, "velocity": 113}, {"time": 37920, "pitch": 33, "duration": 10, "velocity": 108}, {"time": 37920, "pitch": 42, "duration": 10, "velocity": 92}, {"time": 37930, "pitch": 54, "duration": 10, "velocity": 85}, {"time": 38080, "pitch": 31, "duration": 10, "velocity": 82}, {"time": 38160, "pitch": 33, "duration": 10, "velocity": 99}, {"time": 38170, "pitch": 54, "duration": 10, "velocity": 74}, {"time": 38170, "pitch": 85, "duration": 10, "velocity": 76}, {"time": 38400, "pitch": 54, "duration": 10, "velocity": 46}, {"time": 38480, "pitch": 54, "duration": 10, "velocity": 49}, {"time": 38560, "pitch": 54, "duration": 10, "velocity": 62}, {"time": 38640, "pitch": 42, "duration": 10, "velocity": 57}, {"time": 38640, "pitch": 54, "duration": 10, "velocity": 91}, {"time": 38650, "pitch": 85, "duration": 10, "velocity": 75}, {"time": 38720, "pitch": 42, "duration": 10, "velocity": 52}, {"time": 38800, "pitch": 42, "duration": 10, "velocity": 74}, {"time": 38880, "pitch": 27, "duration": 10, "velocity": 113}, {"time": 38880, "pitch": 33, "duration": 10, "velocity": 105}, {"time": 38880, "pitch": 42, "duration": 10, "velocity": 95}, {"time": 38890, "pitch": 54, "duration": 10, "velocity": 78}, {"time": 38970, "pitch": 54, "duration": 10, "velocity": 37}, {"time": 39040, "pitch": 31, "duration": 10, "velocity": 84}, {"time": 39050, "pitch": 54, "duration": 10, "velocity": 88}, {"time": 39120, "pitch": 33, "duration": 10, "velocity": 101}, {"time": 39130, "pitch": 42, "duration": 10, "velocity": 78}, {"time": 39130, "pitch": 54, "duration": 10, "velocity": 79}, {"time": 39130, "pitch": 85, "duration": 10, "velocity": 77}, {"time": 39610, "pitch": 42, "duration": 10, "velocity": 33}, {"time": 39770, "pitch": 46, "duration": 10, "velocity": 86}, {"time": 39770, "pitch": 54, "duration": 10, "velocity": 81}, {"time": 39840, "pitch": 27, "duration": 10, "velocity": 121}, {"time": 39840, "pitch": 33, "duration": 10, "velocity": 108}, {"time": 39840, "pitch": 56, "duration": 10, "velocity": 123}, {"time": 39850, "pitch": 54, "duration": 10, "velocity": 87}, {"time": 39880, "pitch": 42, "duration": 10, "velocity": 21}, {"time": 40000, "pitch": 31, "duration": 10, "velocity": 76}, {"time": 40080, "pitch": 33, "duration": 10, "velocity": 96}, {"time": 40090, "pitch": 54, "duration": 10, "velocity": 79}, {"time": 40090, "pitch": 85, "duration": 10, "velocity": 80}, {"time": 40240, "pitch": 56, "duration": 10, "velocity": 122}, {"time": 40320, "pitch": 54, "duration": 10, "velocity": 51}, {"time": 40400, "pitch": 54, "duration": 10, "velocity": 41}, {"time": 40480, "pitch": 54, "duration": 10, "velocity": 61}, {"time": 40560, "pitch": 42, "duration": 10, "velocity": 57}, {"time": 40560, "pitch": 54, "duration": 10, "velocity": 91}, {"time": 40580, "pitch": 56, "duration": 10, "velocity": 122}, {"time": 40640, "pitch": 42, "duration": 10, "velocity": 54}, {"time": 40720, "pitch": 42, "duration": 10, "velocity": 69}, {"time": 40800, "pitch": 27, "duration": 10, "velocity": 120}, {"time": 40800, "pitch": 33, "duration": 10, "velocity": 107}, {"time": 40800, "pitch": 42, "duration": 10, "velocity": 95}, {"time": 40810, "pitch": 54, "duration": 10, "velocity": 75}, {"time": 40890, "pitch": 54, "duration": 10, "velocity": 30}, {"time": 40960, "pitch": 31, "duration": 10, "velocity": 80}, {"time": 40970, "pitch": 54, "duration": 10, "velocity": 80}, {"time": 41040, "pitch": 33, "duration": 10, "velocity": 98}, {"time": 41050, "pitch": 42, "duration": 10, "velocity": 77}, {"time": 41050, "pitch": 54, "duration": 10, "velocity": 76}, {"time": 41050, "pitch": 85, "duration": 10, "velocity": 76}, {"time": 41530, "pitch": 42, "duration": 10, "velocity": 40}, {"time": 41530, "pitch": 85, "duration": 10, "velocity": 80}, {"time": 41690, "pitch": 46, "duration": 10, "velocity": 83}, {"time": 41690, "pitch": 54, "duration": 10, "velocity": 90}, {"time": 41760, "pitch": 27, "duration": 10, "velocity": 112}, {"time": 41760, "pitch": 33, "duration": 10, "velocity": 109}, {"time": 41770, "pitch": 54, "duration": 10, "velocity": 83}, {"time": 41800, "pitch": 42, "duration": 10, "velocity": 21}, {"time": 41920, "pitch": 31, "duration": 10, "velocity": 80}, {"time": 42000, "pitch": 33, "duration": 10, "velocity": 96}, {"time": 42010, "pitch": 54, "duration": 10, "velocity": 80}, {"time": 42010, "pitch": 85, "duration": 10, "velocity": 81}, {"time": 42240, "pitch": 54, "duration": 10, "velocity": 46}, {"time": 42320, "pitch": 54, "duration": 10, "velocity": 41}, {"time": 42400, "pitch": 54, "duration": 10, "velocity": 61}, {"time": 42480, "pitch": 42, "duration": 10, "velocity": 55}, {"time": 42480, "pitch": 54, "duration": 10, "velocity": 90}, {"time": 42490, "pitch": 85, "duration": 10, "velocity": 81}, {"time": 42560, "pitch": 42, "duration": 10, "velocity": 50}, {"time": 42640, "pitch": 42, "duration": 10, "velocity": 73}, {"time": 42720, "pitch": 27, "duration": 10, "velocity": 117}, {"time": 42720, "pitch": 33, "duration": 10, "velocity": 102}, {"time": 42720, "pitch": 42, "duration": 10, "velocity": 99}, {"time": 42730, "pitch": 54, "duration": 10, "velocity": 75}, {"time": 42810, "pitch": 54, "duration": 10, "velocity": 32}, {"time": 42880, "pitch": 31, "duration": 10, "velocity": 76}, {"time": 42890, "pitch": 54, "duration": 10, "velocity": 84}, {"time": 42960, "pitch": 33, "duration": 10, "velocity": 98}, {"time": 42970, "pitch": 42, "duration": 10, "velocity": 77}, {"time": 42970, "pitch": 54, "duration": 10, "velocity": 79}, {"time": 42970, "pitch": 85, "duration": 10, "velocity": 76}, {"time": 43450, "pitch": 42, "duration": 10, "velocity": 37}, {"time": 43610, "pitch": 46, "duration": 10, "velocity": 79}, {"time": 43610, "pitch": 54, "duration": 10, "velocity": 89}, {"time": 43680, "pitch": 27, "duration": 10, "velocity": 117}, {"time": 43680, "pitch": 33, "duration": 10, "velocity": 103}, {"time": 43680, "pitch": 56, "duration": 10, "velocity": 126}, {"time": 43690, "pitch": 54, "duration": 10, "velocity": 83}, {"time": 43720, "pitch": 42, "duration": 10, "velocity": 21}, {"time": 43840, "pitch": 31, "duration": 10, "velocity": 82}, {"time": 43920, "pitch": 33, "duration": 10, "velocity": 98}, {"time": 43930, "pitch": 54, "duration": 10, "velocity": 73}, {"time": 43930, "pitch": 85, "duration": 10, "velocity": 81}, {"time": 44080, "pitch": 56, "duration": 10, "velocity": 121}, {"time": 44160, "pitch": 54, "duration": 10, "velocity": 46}, {"time": 44240, "pitch": 54, "duration": 10, "velocity": 42}, {"time": 44320, "pitch": 54, "duration": 10, "velocity": 58}, {"time": 44400, "pitch": 42, "duration": 10, "velocity": 59}, {"time": 44400, "pitch": 54, "duration": 10, "velocity": 83}, {"time": 44420, "pitch": 56, "duration": 10, "velocity": 127}, {"time": 44480, "pitch": 42, "duration": 10, "velocity": 47}, {"time": 44560, "pitch": 42, "duration": 10, "velocity": 73}, {"time": 44640, "pitch": 42, "duration": 10, "velocity": 96}, {"time": 46320, "pitch": 42, "duration": 10, "velocity": 75}, {"time": 46400, "pitch": 42, "duration": 10, "velocity": 67}, {"time": 46480, "pitch": 42, "duration": 10, "velocity": 73}, {"time": 46560, "pitch": 27, "duration": 10, "velocity": 115}, {"time": 46560, "pitch": 33, "duration": 10, "velocity": 102}, {"time": 46560, "pitch": 42, "duration": 10, "velocity": 91}, {"time": 46570, "pitch": 54, "duration": 10, "velocity": 77}, {"time": 46650, "pitch": 54, "duration": 10, "velocity": 36}, {"time": 46720, "pitch": 31, "duration": 10, "velocity": 83}, {"time": 46730, "pitch": 54, "duration": 10, "velocity": 85}, {"time": 46800, "pitch": 33, "duration": 10, "velocity": 100}, {"time": 46810, "pitch": 42, "duration": 10, "velocity": 72}, {"time": 46810, "pitch": 54, "duration": 10, "velocity": 81}, {"time": 46810, "pitch": 85, "duration": 10, "velocity": 80}, {"time": 47290, "pitch": 42, "duration": 10, "velocity": 32}, {"time": 47450, "pitch": 46, "duration": 10, "velocity": 79}, {"time": 47450, "pitch": 54, "duration": 10, "velocity": 87}, {"time": 47520, "pitch": 27, "duration": 10, "velocity": 120}, {"time": 47520, "pitch": 33, "duration": 10, "velocity": 108}, {"time": 47530, "pitch": 54, "duration": 10, "velocity": 90}, {"time": 47560, "pitch": 42, "duration": 10, "velocity": 21}, {"time": 47680, "pitch": 31, "duration": 10, "velocity": 76}, {"time": 47760, "pitch": 33, "duration": 10, "velocity": 102}, {"time": 47770, "pitch": 54, "duration": 10, "velocity": 78}, {"time": 47770, "pitch": 85, "duration": 10, "velocity": 77}, {"time": 48000, "pitch": 54, "duration": 10, "velocity": 54}, {"time": 48080, "pitch": 54, "duration": 10, "velocity": 50}, {"time": 48160, "pitch": 54, "duration": 10, "velocity": 60}, {"time": 48240, "pitch": 42, "duration": 10, "velocity": 57}, {"time": 48240, "pitch": 54, "duration": 10, "velocity": 86}, {"time": 48320, "pitch": 42, "duration": 10, "velocity": 48}, {"time": 48400, "pitch": 42, "duration": 10, "velocity": 69}, {"time": 48480, "pitch": 27, "duration": 10, "velocity": 120}, {"time": 48480, "pitch": 33, "duration": 10, "velocity": 104}, {"time": 48480, "pitch": 42, "duration": 10, "velocity": 93}, {"time": 48490, "pitch": 54, "duration": 10, "velocity": 77}, {"time": 48570, "pitch": 54, "duration": 10, "velocity": 35}, {"time": 48640, "pitch": 31, "duration": 10, "velocity": 85}, {"time": 48650, "pitch": 54, "duration": 10, "velocity": 84}, {"time": 48720, "pitch": 33, "duration": 10, "velocity": 95}, {"time": 48730, "pitch": 42, "duration": 10, "velocity": 71}, {"time": 48730, "pitch": 54, "duration": 10, "velocity": 80}, {"time": 48730, "pitch": 85, "duration": 10, "velocity": 76}, {"time": 49210, "pitch": 42, "duration": 10, "velocity": 39}, {"time": 49210, "pitch": 85, "duration": 10, "velocity": 82}, {"time": 49370, "pitch": 46, "duration": 10, "velocity": 84}, {"time": 49370, "pitch": 54, "duration": 10, "velocity": 87}, {"time": 49440, "pitch": 27, "duration": 10, "velocity": 116}, {"time": 49440, "pitch": 33, "duration": 10, "velocity": 106}, {"time": 49450, "pitch": 54, "duration": 10, "velocity": 84}, {"time": 49480, "pitch": 42, "duration": 10, "velocity": 21}, {"time": 49600, "pitch": 31, "duration": 10, "velocity": 76}, {"time": 49680, "pitch": 33, "duration": 10, "velocity": 98}, {"time": 49690, "pitch": 54, "duration": 10, "velocity": 74}, {"time": 49690, "pitch": 85, "duration": 10, "velocity": 84}, {"time": 49920, "pitch": 54, "duration": 10, "velocity": 52}, {"time": 50000, "pitch": 54, "duration": 10, "velocity": 44}, {"time": 50080, "pitch": 54, "duration": 10, "velocity": 65}, {"time": 50160, "pitch": 42, "duration": 10, "velocity": 57}, {"time": 50160, "pitch": 54, "duration": 10, "velocity": 89}, {"time": 50170, "pitch": 85, "duration": 10, "velocity": 83}, {"time": 50240, "pitch": 42, "duration": 10, "velocity": 48}, {"time": 50320, "pitch": 42, "duration": 10, "velocity": 67}, {"time": 50400, "pitch": 27, "duration": 10, "velocity": 115}, {"time": 50400, "pitch": 33, "duration": 10, "velocity": 109}, {"time": 50400, "pitch": 42, "duration": 10, "velocity": 93}, {"time": 50410, "pitch": 54, "duration": 10, "velocity": 75}, {"time": 50490, "pitch": 54, "duration": 10, "velocity": 37}, {"time": 50560, "pitch": 31, "duration": 10, "velocity": 83}, {"time": 50570, "pitch": 54, "duration": 10, "velocity": 82}, {"time": 50640, "pitch": 33, "duration": 10, "velocity": 101}, {"time": 50650, "pitch": 42, "duration": 10, "velocity": 76}, {"time": 50650, "pitch": 54, "duration": 10, "velocity": 81}, {"time": 50650, "pitch": 85, "duration": 10, "velocity": 80}, {"time": 51130, "pitch": 42, "duration": 10, "velocity": 39}, {"time": 51290, "pitch": 46, "duration": 10, "velocity": 80}, {"time": 51290, "pitch": 54, "duration": 10, "velocity": 86}, {"time": 51360, "pitch": 27, "duration": 10, "velocity": 113}, {"time": 51360, "pitch": 33, "duration": 10, "velocity": 101}, {"time": 51370, "pitch": 54, "duration": 10, "velocity": 83}, {"time": 51400, "pitch": 42, "duration": 10, "velocity": 21}, {"time": 51520, "pitch": 31, "duration": 10, "velocity": 85}, {"time": 51600, "pitch": 33, "duration": 10, "velocity": 95}, {"time": 51610, "pitch": 54, "duration": 10, "velocity": 79}, {"time": 51610, "pitch": 85, "duration": 10, "velocity": 78}, {"time": 51840, "pitch": 54, "duration": 10, "velocity": 51}, {"time": 51920, "pitch": 54, "duration": 10, "velocity": 50}, {"time": 52000, "pitch": 54, "duration": 10, "velocity": 58}, {"time": 52080, "pitch": 42, "duration": 10, "velocity": 57}, {"time": 52080, "pitch": 54, "duration": 10, "velocity": 83}, {"time": 52160, "pitch": 42, "duration": 10, "velocity": 51}, {"time": 52240, "pitch": 42, "duration": 10, "velocity": 66}, {"time": 52320, "pitch": 27, "duration": 10, "velocity": 114}, {"time": 52320, "pitch": 33, "duration": 10, "velocity": 106}, {"time": 52320, "pitch": 42, "duration": 10, "velocity": 98}, {"time": 52330, "pitch": 54, "duration": 10, "velocity": 72}, {"time": 52410, "pitch": 54, "duration": 10, "velocity": 38}, {"time": 52480, "pitch": 31, "duration": 10, "velocity": 80}, {"time": 52490, "pitch": 54, "duration": 10, "velocity": 83}, {"time": 52560, "pitch": 33, "duration": 10, "velocity": 94}, {"time": 52570, "pitch": 42, "duration": 10, "velocity": 78}, {"time": 52570, "pitch": 54, "duration": 10, "velocity": 81}, {"time": 52570, "pitch": 85, "duration": 10, "velocity": 82}, {"time": 53040, "pitch": 42, "duration": 10, "velocity": 60}, {"time": 53050, "pitch": 85, "duration": 10, "velocity": 75}, {"time": 53120, "pitch": 42, "duration": 10, "velocity": 53}, {"time": 53200, "pitch": 42, "duration": 10, "velocity": 67}, {"time": 53210, "pitch": 54, "duration": 10, "velocity": 87}, {"time": 53280, "pitch": 27, "duration": 10, "velocity": 114}, {"time": 53280, "pitch": 33, "duration": 10, "velocity": 107}, {"time": 53280, "pitch": 42, "duration": 10, "velocity": 99}, {"time": 53290, "pitch": 54, "duration": 10, "velocity": 89}, {"time": 53440, "pitch": 31, "duration": 10, "velocity": 79}, {"time": 53520, "pitch": 33, "duration": 10, "velocity": 100}, {"time": 53530, "pitch": 54, "duration": 10, "velocity": 78}, {"time": 53530, "pitch": 85, "duration": 10, "velocity": 82}, {"time": 53760, "pitch": 54, "duration": 10, "velocity": 52}, {"time": 53840, "pitch": 54, "duration": 10, "velocity": 43}, {"time": 53920, "pitch": 54, "duration": 10, "velocity": 66}, {"time": 54000, "pitch": 42, "duration": 10, "velocity": 53}, {"time": 54000, "pitch": 54, "duration": 10, "velocity": 88}, {"time": 54010, "pitch": 85, "duration": 10, "velocity": 78}, {"time": 54080, "pitch": 42, "duration": 10, "velocity": 51}, {"time": 54160, "pitch": 42, "duration": 10, "velocity": 73}, {"time": 54240, "pitch": 27, "duration": 10, "velocity": 119}, {"time": 54240, "pitch": 33, "duration": 10, "velocity": 107}, {"time": 54240, "pitch": 42, "duration": 10, "velocity": 92}, {"time": 54250, "pitch": 54, "duration": 10, "velocity": 73}, {"time": 54330, "pitch": 54, "duration": 10, "velocity": 31}, {"time": 54400, "pitch": 31, "duration": 10, "velocity": 76}, {"time": 54410, "pitch": 54, "duration": 10, "velocity": 82}, {"time": 54480, "pitch": 33, "duration": 10, "velocity": 96}, {"time": 54490, "pitch": 42, "duration": 10, "velocity": 71}, {"time": 54490, "pitch": 54, "duration": 10, "velocity": 80}, {"time": 54490, "pitch": 85, "duration": 10, "velocity": 82}, {"time": 54970, "pitch": 42, "duration": 10, "velocity": 38}, {"time": 55130, "pitch": 46, "duration": 10, "velocity": 81}, {"time": 55130, "pitch": 54, "duration": 10, "velocity": 84}, {"time": 55200, "pitch": 27, "duration": 10, "velocity": 119}, {"time": 55200, "pitch": 33, "duration": 10, "velocity": 100}, {"time": 55210, "pitch": 54, "duration": 10, "velocity": 88}, {"time": 55240, "pitch": 42, "duration": 10, "velocity": 21}, {"time": 55360, "pitch": 31, "duration": 10, "velocity": 81}, {"time": 55440, "pitch": 33, "duration": 10, "velocity": 96}, {"time": 55450, "pitch": 54, "duration": 10, "velocity": 72}, {"time": 55450, "pitch": 85, "duration": 10, "velocity": 79}, {"time": 55680, "pitch": 54, "duration": 10, "velocity": 47}, {"time": 55760, "pitch": 54, "duration": 10, "velocity": 42}, {"time": 55840, "pitch": 54, "duration": 10, "velocity": 61}, {"time": 55920, "pitch": 42, "duration": 10, "velocity": 56}, {"time": 55920, "pitch": 54, "duration": 10, "velocity": 87}, {"time": 56000, "pitch": 42, "duration": 10, "velocity": 52}, {"time": 56080, "pitch": 42, "duration": 10, "velocity": 75}, {"time": 56160, "pitch": 27, "duration": 10, "velocity": 116}, {"time": 56160, "pitch": 33, "duration": 10, "velocity": 102}, {"time": 56160, "pitch": 42, "duration": 10, "velocity": 99}, {"time": 56170, "pitch": 54, "duration": 10, "velocity": 74}, {"time": 56250, "pitch": 54, "duration": 10, "velocity": 37}, {"time": 56320, "pitch": 31, "duration": 10, "velocity": 76}, {"time": 56330, "pitch": 54, "duration": 10, "velocity": 87}, {"time": 56400, "pitch": 33, "duration": 10, "velocity": 101}, {"time": 56410, "pitch": 42, "duration": 10, "velocity": 75}, {"time": 56410, "pitch": 54, "duration": 10, "velocity": 75}, {"time": 56410, "pitch": 85, "duration": 10, "velocity": 80}, {"time": 56890, "pitch": 42, "duration": 10, "velocity": 38}, {"time": 56890, "pitch": 85, "duration": 10, "velocity": 75}, {"time": 57050, "pitch": 46, "duration": 10, "velocity": 79}, {"time": 57050, "pitch": 54, "duration": 10, "velocity": 90}, {"time": 57120, "pitch": 27, "duration": 10, "velocity": 120}, {"time": 57120, "pitch": 33, "duration": 10, "velocity": 102}, {"time": 57130, "pitch": 54, "duration": 10, "velocity": 89}, {"time": 57160, "pitch": 42, "duration": 10, "velocity": 21}, {"time": 57280, "pitch": 31, "duration": 10, "velocity": 82}, {"time": 57360, "pitch": 33, "duration": 10, "velocity": 101}, {"time": 57370, "pitch": 54, "duration": 10, "velocity": 77}, {"time": 57370, "pitch": 85, "duration": 10, "velocity": 83}, {"time": 57600, "pitch": 54, "duration": 10, "velocity": 47}, {"time": 57680, "pitch": 54, "duration": 10, "velocity": 48}, {"time": 57760, "pitch": 54, "duration": 10, "velocity": 64}, {"time": 57840, "pitch": 42, "duration": 10, "velocity": 61}, {"time": 57840, "pitch": 54, "duration": 10, "velocity": 91}, {"time": 57850, "pitch": 85, "duration": 10, "velocity": 83}, {"time": 57920, "pitch": 42, "duration": 10, "velocity": 52}, {"time": 58000, "pitch": 42, "duration": 10, "velocity": 72}, {"time": 58080, "pitch": 27, "duration": 10, "velocity": 114}, {"time": 58080, "pitch": 33, "duration": 10, "velocity": 104}, {"time": 58080, "pitch": 42, "duration": 10, "velocity": 99}, {"time": 58090, "pitch": 54, "duration": 10, "velocity": 77}, {"time": 58170, "pitch": 54, "duration": 10, "velocity": 30}, {"time": 58240, "pitch": 31, "duration": 10, "velocity": 79}, {"time": 58250, "pitch": 54, "duration": 10, "velocity": 82}, {"time": 58320, "pitch": 33, "duration": 10, "velocity": 94}, {"time": 58330, "pitch": 42, "duration": 10, "velocity": 72}, {"time": 58330, "pitch": 54, "duration": 10, "velocity": 75}, {"time": 58330, "pitch": 85, "duration": 10, "velocity": 80}, {"time": 58810, "pitch": 42, "duration": 10, "velocity": 34}, {"time": 58970, "pitch": 46, "duration": 10, "velocity": 79}, {"time": 58970, "pitch": 54, "duration": 10, "velocity": 85}, {"time": 59040, "pitch": 27, "duration": 10, "velocity": 115}, {"time": 59040, "pitch": 33, "duration": 10, "velocity": 102}, {"time": 59050, "pitch": 54, "duration": 10, "velocity": 85}, {"time": 59080, "pitch": 42, "duration": 10, "velocity": 21}, {"time": 59200, "pitch": 31, "duration": 10, "velocity": 78}, {"time": 59280, "pitch": 33, "duration": 10, "velocity": 99}, {"time": 59290, "pitch": 54, "duration": 10, "velocity": 75}, {"time": 59290, "pitch": 85, "duration": 10, "velocity": 83}, {"time": 59520, "pitch": 54, "duration": 10, "velocity": 51}, {"time": 59600, "pitch": 54, "duration": 10, "velocity": 42}, {"time": 59680, "pitch": 54, "duration": 10, "velocity": 58}, {"time": 59760, "pitch": 42, "duration": 10, "velocity": 55}, {"time": 59760, "pitch": 54, "duration": 10, "velocity": 84}, {"time": 59840, "pitch": 42, "duration": 10, "velocity": 54}, {"time": 59920, "pitch": 42, "duration": 10, "velocity": 71}, {"time": 60000, "pitch": 27, "duration": 10, "velocity": 115}, {"time": 60000, "pitch": 33, "duration": 10, "velocity": 103}, {"time": 60000, "pitch": 42, "duration": 10, "velocity": 95}, {"time": 60010, "pitch": 54, "duration": 10, "velocity": 72}, {"time": 60090, "pitch": 54, "duration": 10, "velocity": 37}, {"time": 60160, "pitch": 31, "duration": 10, "velocity": 79}, {"time": 60170, "pitch": 54, "duration": 10, "velocity": 79}, {"time": 60240, "pitch": 33, "duration": 10, "velocity": 97}, {"time": 60250, "pitch": 42, "duration": 10, "velocity": 75}, {"time": 60250, "pitch": 54, "duration": 10, "velocity": 79}, {"time": 60250, "pitch": 85, "duration": 10, "velocity": 75}, {"time": 60720, "pitch": 42, "duration": 10, "velocity": 58}, {"time": 60730, "pitch": 85, "duration": 10, "velocity": 82}, {"time": 60800, "pitch": 42, "duration": 10, "velocity": 55}, {"time": 60880, "pitch": 42, "duration": 10, "velocity": 70}, {"time": 60890, "pitch": 54, "duration": 10, "velocity": 88}, {"time": 60960, "pitch": 27, "duration": 10, "velocity": 113}, {"time": 60960, "pitch": 33, "duration": 10, "velocity": 107}, {"time": 60960, "pitch": 42, "duration": 10, "velocity": 97}, {"time": 60970, "pitch": 54, "duration": 10, "velocity": 89}, {"time": 61120, "pitch": 31, "duration": 10, "velocity": 79}, {"time": 61200, "pitch": 33, "duration": 10, "velocity": 101}, {"time": 61210, "pitch": 54, "duration": 10, "velocity": 80}, {"time": 61210, "pitch": 85, "duration": 10, "velocity": 76}, {"time": 61440, "pitch": 54, "duration": 10, "velocity": 47}, {"time": 61520, "pitch": 54, "duration": 10, "velocity": 46}, {"time": 61600, "pitch": 54, "duration": 10, "velocity": 64}, {"time": 61680, "pitch": 42, "duration": 10, "velocity": 54}, {"time": 61680, "pitch": 54, "duration": 10, "velocity": 92}, {"time": 61690, "pitch": 85, "duration": 10, "velocity": 78}, {"time": 61760, "pitch": 42, "duration": 10, "velocity": 47}, {"time": 61840, "pitch": 42, "duration": 10, "velocity": 71}, {"time": 61920, "pitch": 27, "duration": 10, "velocity": 115}, {"time": 61920, "pitch": 33, "duration": 10, "velocity": 102}, {"time": 61920, "pitch": 42, "duration": 10, "velocity": 91}, {"time": 61930, "pitch": 54, "duration": 10, "velocity": 77}, {"time": 62010, "pitch": 54, "duration": 10, "velocity": 36}, {"time": 62080, "pitch": 31, "duration": 10, "velocity": 83}, {"time": 62090, "pitch": 54, "duration": 10, "velocity": 85}, {"time": 62160, "pitch": 33, "duration": 10, "velocity": 100}, {"time": 62170, "pitch": 42, "duration": 10, "velocity": 72}, {"time": 62170, "pitch": 54, "duration": 10, "velocity": 81}, {"time": 62170, "pitch": 85, "duration": 10, "velocity": 80}, {"time": 62650, "pitch": 42, "duration": 10, "velocity": 32}, {"time": 62810, "pitch": 46, "duration": 10, "velocity": 79}, {"time": 62810, "pitch": 54, "duration": 10, "velocity": 87}, {"time": 62880, "pitch": 27, "duration": 10, "velocity": 120}, {"time": 62880, "pitch": 33, "duration": 10, "velocity": 108}, {"time": 62890, "pitch": 54, "duration": 10, "velocity": 90}, {"time": 62920, "pitch": 42, "duration": 10, "velocity": 21}, {"time": 63040, "pitch": 31, "duration": 10, "velocity": 76}, {"time": 63120, "pitch": 33, "duration": 10, "velocity": 102}, {"time": 63130, "pitch": 54, "duration": 10, "velocity": 78}, {"time": 63130, "pitch": 85, "duration": 10, "velocity": 77}, {"time": 63360, "pitch": 54, "duration": 10, "velocity": 54}, {"time": 63440, "pitch": 54, "duration": 10, "velocity": 50}, {"time": 63520, "pitch": 54, "duration": 10, "velocity": 60}, {"time": 63600, "pitch": 42, "duration": 10, "velocity": 57}, {"time": 63600, "pitch": 54, "duration": 10, "velocity": 86}, {"time": 63680, "pitch": 42, "duration": 10, "velocity": 48}, {"time": 63760, "pitch": 42, "duration": 10, "velocity": 69}, {"time": 63840, "pitch": 27, "duration": 10, "velocity": 120}, {"time": 63840, "pitch": 33, "duration": 10, "velocity": 104}, {"time": 63840, "pitch": 42, "duration": 10, "velocity": 93}, {"time": 63850, "pitch": 54, "duration": 10, "velocity": 77}, {"time": 63930, "pitch": 54, "duration": 10, "velocity": 35}, {"time": 64000, "pitch": 31, "duration": 10, "velocity": 85}, {"time": 64010, "pitch": 54, "duration": 10, "velocity": 84}, {"time": 64080, "pitch": 33, "duration": 10, "velocity": 95}, {"time": 64090, "pitch": 42, "duration": 10, "velocity": 71}, {"time": 64090, "pitch": 54, "duration": 10, "velocity": 80}, {"time": 64090, "pitch": 85, "duration": 10, "velocity": 76}, {"time": 64570, "pitch": 42, "duration": 10, "velocity": 39}, {"time": 64570, "pitch": 85, "duration": 10, "velocity": 82}, {"time": 64730, "pitch": 46, "duration": 10, "velocity": 84}, {"time": 64730, "pitch": 54, "duration": 10, "velocity": 87}, {"time": 64800, "pitch": 27, "duration": 10, "velocity": 116}, {"time": 64800, "pitch": 33, "duration": 10, "velocity": 106}, {"time": 64810, "pitch": 54, "duration": 10, "velocity": 84}, {"time": 64840, "pitch": 42, "duration": 10, "velocity": 21}, {"time": 64960, "pitch": 31, "duration": 10, "velocity": 76}, {"time": 65040, "pitch": 33, "duration": 10, "velocity": 98}, {"time": 65050, "pitch": 54, "duration": 10, "velocity": 74}, {"time": 65050, "pitch": 85, "duration": 10, "velocity": 84}, {"time": 65280, "pitch": 54, "duration": 10, "velocity": 52}, {"time": 65360, "pitch": 54, "duration": 10, "velocity": 44}, {"time": 65440, "pitch": 54, "duration": 10, "velocity": 65}, {"time": 65520, "pitch": 42, "duration": 10, "velocity": 57}, {"time": 65520, "pitch": 54, "duration": 10, "velocity": 89}, {"time": 65530, "pitch": 85, "duration": 10, "velocity": 83}, {"time": 65600, "pitch": 42, "duration": 10, "velocity": 48}, {"time": 65680, "pitch": 42, "duration": 10, "velocity": 67}, {"time": 65760, "pitch": 27, "duration": 10, "velocity": 115}, {"time": 65760, "pitch": 33, "duration": 10, "velocity": 109}, {"time": 65760, "pitch": 42, "duration": 10, "velocity": 93}, {"time": 65770, "pitch": 54, "duration": 10, "velocity": 75}, {"time": 65850, "pitch": 54, "duration": 10, "velocity": 37}, {"time": 65920, "pitch": 31, "duration": 10, "velocity": 83}, {"time": 65930, "pitch": 54, "duration": 10, "velocity": 82}, {"time": 66000, "pitch": 33, "duration": 10, "velocity": 101}, {"time": 66010, "pitch": 42, "duration": 10, "velocity": 76}, {"time": 66010, "pitch": 54, "duration": 10, "velocity": 81}, {"time": 66010, "pitch": 85, "duration": 10, "velocity": 80}, {"time": 66490, "pitch": 42, "duration": 10, "velocity": 39}, {"time": 66650, "pitch": 46, "duration": 10, "velocity": 80}, {"time": 66650, "pitch": 54, "duration": 10, "velocity": 86}, {"time": 66720, "pitch": 27, "duration": 10, "velocity": 113}, {"time": 66720, "pitch": 33, "duration": 10, "velocity": 101}, {"time": 66730, "pitch": 54, "duration": 10, "velocity": 83}, {"time": 66760, "pitch": 42, "duration": 10, "velocity": 21}, {"time": 66880, "pitch": 31, "duration": 10, "velocity": 85}, {"time": 66960, "pitch": 33, "duration": 10, "velocity": 95}, {"time": 66970, "pitch": 54, "duration": 10, "velocity": 79}, {"time": 66970, "pitch": 85, "duration": 10, "velocity": 78}, {"time": 67200, "pitch": 54, "duration": 10, "velocity": 51}, {"time": 67280, "pitch": 54, "duration": 10, "velocity": 50}, {"time": 67360, "pitch": 54, "duration": 10, "velocity": 58}, {"time": 67440, "pitch": 42, "duration": 10, "velocity": 57}, {"time": 67440, "pitch": 54, "duration": 10, "velocity": 83}, {"time": 67520, "pitch": 42, "duration": 10, "velocity": 51}, {"time": 67600, "pitch": 42, "duration": 10, "velocity": 66}, {"time": 67680, "pitch": 27, "duration": 10, "velocity": 114}, {"time": 67680, "pitch": 33, "duration": 10, "velocity": 106}, {"time": 67680, "pitch": 42, "duration": 10, "velocity": 98}, {"time": 67690, "pitch": 54, "duration": 10, "velocity": 72}, {"time": 67770, "pitch": 54, "duration": 10, "velocity": 38}, {"time": 67840, "pitch": 31, "duration": 10, "velocity": 80}, {"time": 67850, "pitch": 54, "duration": 10, "velocity": 83}, {"time": 67920, "pitch": 33, "duration": 10, "velocity": 94}, {"time": 67930, "pitch": 42, "duration": 10, "velocity": 78}, {"time": 67930, "pitch": 54, "duration": 10, "velocity": 81}, {"time": 67930, "pitch": 85, "duration": 10, "velocity": 82}, {"time": 68400, "pitch": 42, "duration": 10, "velocity": 60}, {"time": 68410, "pitch": 85, "duration": 10, "velocity": 75}, {"time": 68480, "pitch": 42, "duration": 10, "velocity": 53}, {"time": 68560, "pitch": 42, "duration": 10, "velocity": 67}, {"time": 68570, "pitch": 54, "duration": 10, "velocity": 87}, {"time": 68640, "pitch": 27, "duration": 10, "velocity": 114}, {"time": 68640, "pitch": 33, "duration": 10, "velocity": 107}, {"time": 68640, "pitch": 42, "duration": 10, "velocity": 99}, {"time": 68650, "pitch": 54, "duration": 10, "velocity": 89}, {"time": 68800, "pitch": 31, "duration": 10, "velocity": 79}, {"time": 68880, "pitch": 33, "duration": 10, "velocity": 100}, {"time": 68890, "pitch": 54, "duration": 10, "velocity": 78}, {"time": 68890, "pitch": 85, "duration": 10, "velocity": 82}, {"time": 69120, "pitch": 54, "duration": 10, "velocity": 52}, {"time": 69200, "pitch": 54, "duration": 10, "velocity": 43}, {"time": 69280, "pitch": 54, "duration": 10, "velocity": 66}, {"time": 69360, "pitch": 42, "duration": 10, "velocity": 53}, {"time": 69360, "pitch": 54, "duration": 10, "velocity": 88}, {"time": 69370, "pitch": 85, "duration": 10, "velocity": 78}, {"time": 69440, "pitch": 42, "duration": 10, "velocity": 51}, {"time": 69520, "pitch": 42, "duration": 10, "velocity": 73}, {"time": 69600, "pitch": 27, "duration": 10, "velocity": 116}, {"time": 69600, "pitch": 33, "duration": 10, "velocity": 100}, {"time": 69600, "pitch": 42, "duration": 10, "velocity": 99}, {"time": 69610, "pitch": 54, "duration": 10, "velocity": 79}, {"time": 69690, "pitch": 54, "duration": 10, "velocity": 35}, {"time": 69760, "pitch": 31, "duration": 10, "velocity": 78}, {"time": 69770, "pitch": 54, "duration": 10, "velocity": 79}, {"time": 69840, "pitch": 33, "duration": 10, "velocity": 98}, {"time": 69850, "pitch": 42, "duration": 10, "velocity": 75}, {"time": 69850, "pitch": 54, "duration": 10, "velocity": 82}, {"time": 69850, "pitch": 85, "duration": 10, "velocity": 80}, {"time": 70330, "pitch": 42, "duration": 10, "velocity": 35}, {"time": 70490, "pitch": 46, "duration": 10, "velocity": 79}, {"time": 70490, "pitch": 54, "duration": 10, "velocity": 87}, {"time": 70560, "pitch": 27, "duration": 10, "velocity": 115}, {"time": 70560, "pitch": 33, "duration": 10, "velocity": 107}, {"time": 70570, "pitch": 54, "duration": 10, "velocity": 84}, {"time": 70600, "pitch": 42, "duration": 10, "velocity": 21}, {"time": 70720, "pitch": 31, "duration": 10, "velocity": 78}, {"time": 70800, "pitch": 33, "duration": 10, "velocity": 94}, {"time": 70810, "pitch": 54, "duration": 10, "velocity": 75}, {"time": 70810, "pitch": 85, "duration": 10, "velocity": 79}, {"time": 71040, "pitch": 54, "duration": 10, "velocity": 55}, {"time": 71120, "pitch": 54, "duration": 10, "velocity": 50}, {"time": 71200, "pitch": 54, "duration": 10, "velocity": 63}, {"time": 71280, "pitch": 42, "duration": 10, "velocity": 56}, {"time": 71280, "pitch": 54, "duration": 10, "velocity": 84}, {"time": 71360, "pitch": 42, "duration": 10, "velocity": 54}, {"time": 71440, "pitch": 42, "duration": 10, "velocity": 70}, {"time": 71520, "pitch": 27, "duration": 10, "velocity": 119}, {"time": 71520, "pitch": 33, "duration": 10, "velocity": 100}, {"time": 71520, "pitch": 42, "duration": 10, "velocity": 93}, {"time": 71530, "pitch": 54, "duration": 10, "velocity": 76}, {"time": 71610, "pitch": 54, "duration": 10, "velocity": 34}, {"time": 71680, "pitch": 31, "duration": 10, "velocity": 85}, {"time": 71690, "pitch": 54, "duration": 10, "velocity": 83}, {"time": 71760, "pitch": 33, "duration": 10, "velocity": 97}, {"time": 71770, "pitch": 42, "duration": 10, "velocity": 77}, {"time": 71770, "pitch": 54, "duration": 10, "velocity": 79}, {"time": 71770, "pitch": 85, "duration": 10, "velocity": 75}, {"time": 72240, "pitch": 42, "duration": 10, "velocity": 52}, {"time": 72250, "pitch": 85, "duration": 10, "velocity": 84}, {"time": 72320, "pitch": 42, "duration": 10, "velocity": 52}, {"time": 72400, "pitch": 42, "duration": 10, "velocity": 66}, {"time": 72410, "pitch": 54, "duration": 10, "velocity": 88}, {"time": 72480, "pitch": 27, "duration": 10, "velocity": 112}, {"time": 72480, "pitch": 33, "duration": 10, "velocity": 100}, {"time": 72480, "pitch": 42, "duration": 10, "velocity": 90}, {"time": 72490, "pitch": 54, "duration": 10, "velocity": 86}, {"time": 72640, "pitch": 31, "duration": 10, "velocity": 85}, {"time": 72640, "pitch": 42, "duration": 10, "velocity": 108}, {"time": 72720, "pitch": 33, "duration": 10, "velocity": 96}, {"time": 72720, "pitch": 42, "duration": 10, "velocity": 90}, {"time": 72730, "pitch": 54, "duration": 10, "velocity": 77}, {"time": 72730, "pitch": 85, "duration": 10, "velocity": 78}, {"time": 72880, "pitch": 42, "duration": 10, "velocity": 108}, {"time": 72960, "pitch": 42, "duration": 10, "velocity": 96}, {"time": 72960, "pitch": 54, "duration": 10, "velocity": 49}, {"time": 73040, "pitch": 54, "duration": 10, "velocity": 41}, {"time": 73120, "pitch": 54, "duration": 10, "velocity": 67}, {"time": 73200, "pitch": 42, "duration": 10, "velocity": 60}, {"time": 73200, "pitch": 54, "duration": 10, "velocity": 83}, {"time": 73210, "pitch": 85, "duration": 10, "velocity": 78}, {"time": 73280, "pitch": 42, "duration": 10, "velocity": 55}, {"time": 73360, "pitch": 42, "duration": 10, "velocity": 69}, {"time": 73440, "pitch": 27, "duration": 10, "velocity": 112}, {"time": 73440, "pitch": 33, "duration": 10, "velocity": 107}, {"time": 73440, "pitch": 42, "duration": 10, "velocity": 99}, {"time": 73450, "pitch": 54, "duration": 10, "velocity": 73}, {"time": 73530, "pitch": 54, "duration": 10, "velocity": 31}, {"time": 73600, "pitch": 31, "duration": 10, "velocity": 85}, {"time": 73610, "pitch": 54, "duration": 10, "velocity": 82}, {"time": 73680, "pitch": 33, "duration": 10, "velocity": 99}, {"time": 73690, "pitch": 54, "duration": 10, "velocity": 81}, {"time": 73920, "pitch": 27, "duration": 10, "velocity": 112}, {"time": 73920, "pitch": 33, "duration": 10, "velocity": 107}, {"time": 73920, "pitch": 42, "duration": 10, "velocity": 99}, {"time": 73930, "pitch": 54, "duration": 10, "velocity": 73}, {"time": 74010, "pitch": 54, "duration": 10, "velocity": 31}, {"time": 74080, "pitch": 31, "duration": 10, "velocity": 85}, {"time": 74090, "pitch": 54, "duration": 10, "velocity": 82}, {"time": 74640, "pitch": 33, "duration": 10, "velocity": 102}, {"time": 74640, "pitch": 38, "duration": 10, "velocity": 71}, {"time": 74650, "pitch": 54, "duration": 10, "velocity": 71}, {"time": 74880, "pitch": 54, "duration": 10, "velocity": 46}, {"time": 74960, "pitch": 54, "duration": 10, "velocity": 41}, {"time": 75040, "pitch": 54, "duration": 10, "velocity": 65}, {"time": 75120, "pitch": 42, "duration": 10, "velocity": 59}, {"time": 75120, "pitch": 54, "duration": 10, "velocity": 88}, {"time": 75200, "pitch": 42, "duration": 10, "velocity": 52}, {"time": 75280, "pitch": 42, "duration": 10, "velocity": 73}, {"time": 75360, "pitch": 27, "duration": 10, "velocity": 117}, {"time": 75360, "pitch": 33, "duration": 10, "velocity": 108}, {"time": 75360, "pitch": 42, "duration": 10, "velocity": 97}, {"time": 75370, "pitch": 54, "duration": 10, "velocity": 76}, {"time": 75450, "pitch": 54, "duration": 10, "velocity": 36}, {"time": 75520, "pitch": 31, "duration": 10, "velocity": 77}, {"time": 75530, "pitch": 54, "duration": 10, "velocity": 87}, {"time": 75600, "pitch": 33, "duration": 10, "velocity": 99}, {"time": 75610, "pitch": 42, "duration": 10, "velocity": 70}, {"time": 75610, "pitch": 54, "duration": 10, "velocity": 76}, {"time": 75610, "pitch": 85, "duration": 10, "velocity": 82}, {"time": 76090, "pitch": 42, "duration": 10, "velocity": 41}, {"time": 76250, "pitch": 46, "duration": 10, "velocity": 81}, {"time": 76250, "pitch": 54, "duration": 10, "velocity": 83}, {"time": 76320, "pitch": 27, "duration": 10, "velocity": 120}, {"time": 76320, "pitch": 33, "duration": 10, "velocity": 100}, {"time": 76320, "pitch": 56, "duration": 10, "velocity": 123}, {"time": 76330, "pitch": 54, "duration": 10, "velocity": 91}, {"time": 76360, "pitch": 42, "duration": 10, "velocity": 21}, {"time": 76480, "pitch": 31, "duration": 10, "velocity": 78}, {"time": 76560, "pitch": 33, "duration": 10, "velocity": 97}, {"time": 76570, "pitch": 54, "duration": 10, "velocity": 78}, {"time": 76570, "pitch": 85, "duration": 10, "velocity": 82}, {"time": 76720, "pitch": 56, "duration": 10, "velocity": 125}, {"time": 76800, "pitch": 54, "duration": 10, "velocity": 48}, {"time": 76880, "pitch": 54, "duration": 10, "velocity": 46}, {"time": 76960, "pitch": 54, "duration": 10, "velocity": 63}, {"time": 77040, "pitch": 42, "duration": 10, "velocity": 55}, {"time": 77040, "pitch": 54, "duration": 10, "velocity": 92}, {"time": 77060, "pitch": 56, "duration": 10, "velocity": 125}, {"time": 77120, "pitch": 42, "duration": 10, "velocity": 48}, {"time": 77200, "pitch": 42, "duration": 10, "velocity": 72}, {"time": 77280, "pitch": 27, "duration": 10, "velocity": 113}, {"time": 77280, "pitch": 33, "duration": 10, "velocity": 101}, {"time": 77280, "pitch": 42, "duration": 10, "velocity": 95}, {"time": 77290, "pitch": 54, "duration": 10, "velocity": 72}, {"time": 77370, "pitch": 54, "duration": 10, "velocity": 35}, {"time": 77440, "pitch": 31, "duration": 10, "velocity": 76}, {"time": 77450, "pitch": 54, "duration": 10, "velocity": 83}, {"time": 77520, "pitch": 33, "duration": 10, "velocity": 94}, {"time": 77530, "pitch": 42, "duration": 10, "velocity": 72}, {"time": 77530, "pitch": 54, "duration": 10, "velocity": 77}, {"time": 77530, "pitch": 85, "duration": 10, "velocity": 80}, {"time": 78010, "pitch": 42, "duration": 10, "velocity": 40}, {"time": 78010, "pitch": 85, "duration": 10, "velocity": 81}, {"time": 78170, "pitch": 46, "duration": 10, "velocity": 85}, {"time": 78170, "pitch": 54, "duration": 10, "velocity": 83}, {"time": 78240, "pitch": 27, "duration": 10, "velocity": 117}, {"time": 78240, "pitch": 33, "duration": 10, "velocity": 109}, {"time": 78250, "pitch": 54, "duration": 10, "velocity": 85}, {"time": 78280, "pitch": 42, "duration": 10, "velocity": 21}, {"time": 78400, "pitch": 31, "duration": 10, "velocity": 80}, {"time": 78480, "pitch": 33, "duration": 10, "velocity": 103}, {"time": 78490, "pitch": 54, "duration": 10, "velocity": 72}, {"time": 78490, "pitch": 85, "duration": 10, "velocity": 79}, {"time": 78720, "pitch": 54, "duration": 10, "velocity": 50}, {"time": 78800, "pitch": 54, "duration": 10, "velocity": 44}, {"time": 78880, "pitch": 54, "duration": 10, "velocity": 64}, {"time": 78960, "pitch": 42, "duration": 10, "velocity": 53}, {"time": 78960, "pitch": 54, "duration": 10, "velocity": 87}, {"time": 78970, "pitch": 85, "duration": 10, "velocity": 84}, {"time": 79040, "pitch": 42, "duration": 10, "velocity": 46}, {"time": 79120, "pitch": 42, "duration": 10, "velocity": 68}, {"time": 79200, "pitch": 27, "duration": 10, "velocity": 116}, {"time": 79200, "pitch": 33, "duration": 10, "velocity": 108}, {"time": 79200, "pitch": 42, "duration": 10, "velocity": 90}, {"time": 79210, "pitch": 54, "duration": 10, "velocity": 79}, {"time": 79290, "pitch": 54, "duration": 10, "velocity": 31}, {"time": 79360, "pitch": 31, "duration": 10, "velocity": 81}, {"time": 79370, "pitch": 54, "duration": 10, "velocity": 82}, {"time": 79440, "pitch": 33, "duration": 10, "velocity": 98}, {"time": 79450, "pitch": 42, "duration": 10, "velocity": 75}, {"time": 79450, "pitch": 54, "duration": 10, "velocity": 76}, {"time": 79450, "pitch": 85, "duration": 10, "velocity": 75}, {"time": 79930, "pitch": 42, "duration": 10, "velocity": 39}, {"time": 80090, "pitch": 46, "duration": 10, "velocity": 80}, {"time": 80090, "pitch": 54, "duration": 10, "velocity": 88}, {"time": 80160, "pitch": 27, "duration": 10, "velocity": 117}, {"time": 80160, "pitch": 33, "duration": 10, "velocity": 101}, {"time": 80160, "pitch": 56, "duration": 10, "velocity": 123}, {"time": 80170, "pitch": 54, "duration": 10, "velocity": 86}, {"time": 80200, "pitch": 42, "duration": 10, "velocity": 21}, {"time": 80320, "pitch": 31, "duration": 10, "velocity": 85}, {"time": 80400, "pitch": 33, "duration": 10, "velocity": 95}, {"time": 80410, "pitch": 54, "duration": 10, "velocity": 72}, {"time": 80410, "pitch": 85, "duration": 10, "velocity": 83}, {"time": 80560, "pitch": 56, "duration": 10, "velocity": 127}, {"time": 80640, "pitch": 54, "duration": 10, "velocity": 47}, {"time": 80720, "pitch": 54, "duration": 10, "velocity": 49}, {"time": 80800, "pitch": 54, "duration": 10, "velocity": 62}, {"time": 80880, "pitch": 42, "duration": 10, "velocity": 61}, {"time": 80880, "pitch": 54, "duration": 10, "velocity": 91}, {"time": 80900, "pitch": 56, "duration": 10, "velocity": 127}, {"time": 80960, "pitch": 42, "duration": 10, "velocity": 46}, {"time": 81040, "pitch": 42, "duration": 10, "velocity": 70}, {"time": 81120, "pitch": 27, "duration": 10, "velocity": 115}, {"time": 81120, "pitch": 33, "duration": 10, "velocity": 105}, {"time": 81120, "pitch": 42, "duration": 10, "velocity": 99}, {"time": 81130, "pitch": 54, "duration": 10, "velocity": 80}, {"time": 81210, "pitch": 54, "duration": 10, "velocity": 35}, {"time": 81280, "pitch": 31, "duration": 10, "velocity": 77}, {"time": 81290, "pitch": 54, "duration": 10, "velocity": 84}, {"time": 81360, "pitch": 33, "duration": 10, "velocity": 100}, {"time": 81370, "pitch": 42, "duration": 10, "velocity": 75}, {"time": 81370, "pitch": 54, "duration": 10, "velocity": 84}, {"time": 81370, "pitch": 85, "duration": 10, "velocity": 84}, {"time": 81840, "pitch": 42, "duration": 10, "velocity": 58}, {"time": 81850, "pitch": 85, "duration": 10, "velocity": 81}, {"time": 81920, "pitch": 42, "duration": 10, "velocity": 52}, {"time": 82000, "pitch": 42, "duration": 10, "velocity": 67}, {"time": 82010, "pitch": 54, "duration": 10, "velocity": 86}, {"time": 82080, "pitch": 27, "duration": 10, "velocity": 113}, {"time": 82080, "pitch": 33, "duration": 10, "velocity": 108}, {"time": 82080, "pitch": 42, "duration": 10, "velocity": 92}, {"time": 82090, "pitch": 54, "duration": 10, "velocity": 85}, {"time": 82240, "pitch": 31, "duration": 10, "velocity": 82}, {"time": 82320, "pitch": 33, "duration": 10, "velocity": 99}, {"time": 82330, "pitch": 54, "duration": 10, "velocity": 74}, {"time": 82330, "pitch": 85, "duration": 10, "velocity": 76}, {"time": 82560, "pitch": 54, "duration": 10, "velocity": 46}, {"time": 82640, "pitch": 54, "duration": 10, "velocity": 49}, {"time": 82720, "pitch": 54, "duration": 10, "velocity": 62}, {"time": 82800, "pitch": 42, "duration": 10, "velocity": 57}, {"time": 82800, "pitch": 54, "duration": 10, "velocity": 91}, {"time": 82810, "pitch": 85, "duration": 10, "velocity": 75}, {"time": 82880, "pitch": 42, "duration": 10, "velocity": 52}, {"time": 82960, "pitch": 42, "duration": 10, "velocity": 74}, {"time": 83040, "pitch": 27, "duration": 10, "velocity": 113}, {"time": 83040, "pitch": 33, "duration": 10, "velocity": 105}, {"time": 83040, "pitch": 42, "duration": 10, "velocity": 95}, {"time": 83050, "pitch": 54, "duration": 10, "velocity": 78}, {"time": 83130, "pitch": 54, "duration": 10, "velocity": 37}, {"time": 83200, "pitch": 31, "duration": 10, "velocity": 84}, {"time": 83210, "pitch": 54, "duration": 10, "velocity": 88}, {"time": 83280, "pitch": 33, "duration": 10, "velocity": 101}, {"time": 83290, "pitch": 42, "duration": 10, "velocity": 78}, {"time": 83290, "pitch": 54, "duration": 10, "velocity": 79}, {"time": 83290, "pitch": 85, "duration": 10, "velocity": 77}, {"time": 83770, "pitch": 42, "duration": 10, "velocity": 33}, {"time": 83930, "pitch": 46, "duration": 10, "velocity": 86}, {"time": 83930, "pitch": 54, "duration": 10, "velocity": 81}, {"time": 84000, "pitch": 27, "duration": 10, "velocity": 121}, {"time": 84000, "pitch": 33, "duration": 10, "velocity": 108}, {"time": 84000, "pitch": 56, "duration": 10, "velocity": 123}, {"time": 84010, "pitch": 54, "duration": 10, "velocity": 87}, {"time": 84040, "pitch": 42, "duration": 10, "velocity": 21}, {"time": 84160, "pitch": 31, "duration": 10, "velocity": 76}, {"time": 84240, "pitch": 33, "duration": 10, "velocity": 96}, {"time": 84250, "pitch": 54, "duration": 10, "velocity": 79}, {"time": 84250, "pitch": 85, "duration": 10, "velocity": 80}, {"time": 84400, "pitch": 56, "duration": 10, "velocity": 122}, {"time": 84480, "pitch": 54, "duration": 10, "velocity": 51}, {"time": 84560, "pitch": 54, "duration": 10, "velocity": 41}, {"time": 84640, "pitch": 54, "duration": 10, "velocity": 61}, {"time": 84720, "pitch": 42, "duration": 10, "velocity": 57}, {"time": 84720, "pitch": 54, "duration": 10, "velocity": 91}, {"time": 84740, "pitch": 56, "duration": 10, "velocity": 122}, {"time": 84800, "pitch": 42, "duration": 10, "velocity": 54}, {"time": 84880, "pitch": 42, "duration": 10, "velocity": 69}, {"time": 84960, "pitch": 27, "duration": 10, "velocity": 120}, {"time": 84960, "pitch": 33, "duration": 10, "velocity": 107}, {"time": 84960, "pitch": 42, "duration": 10, "velocity": 95}, {"time": 84970, "pitch": 54, "duration": 10, "velocity": 75}, {"time": 85050, "pitch": 54, "duration": 10, "velocity": 30}, {"time": 85120, "pitch": 31, "duration": 10, "velocity": 80}, {"time": 85130, "pitch": 54, "duration": 10, "velocity": 80}, {"time": 85200, "pitch": 33, "duration": 10, "velocity": 98}, {"time": 85210, "pitch": 42, "duration": 10, "velocity": 77}, {"time": 85210, "pitch": 54, "duration": 10, "velocity": 76}, {"time": 85210, "pitch": 85, "duration": 10, "velocity": 76}, {"time": 85690, "pitch": 42, "duration": 10, "velocity": 40}, {"time": 85690, "pitch": 85, "duration": 10, "velocity": 80}, {"time": 85850, "pitch": 46, "duration": 10, "velocity": 83}, {"time": 85850, "pitch": 54, "duration": 10, "velocity": 90}, {"time": 85920, "pitch": 27, "duration": 10, "velocity": 112}, {"time": 85920, "pitch": 33, "duration": 10, "velocity": 109}, {"time": 85930, "pitch": 54, "duration": 10, "velocity": 83}, {"time": 85960, "pitch": 42, "duration": 10, "velocity": 21}, {"time": 86080, "pitch": 31, "duration": 10, "velocity": 80}, {"time": 86160, "pitch": 33, "duration": 10, "velocity": 96}, {"time": 86170, "pitch": 54, "duration": 10, "velocity": 80}, {"time": 86170, "pitch": 85, "duration": 10, "velocity": 81}, {"time": 86400, "pitch": 54, "duration": 10, "velocity": 46}, {"time": 86480, "pitch": 54, "duration": 10, "velocity": 41}, {"time": 86560, "pitch": 54, "duration": 10, "velocity": 61}, {"time": 86640, "pitch": 42, "duration": 10, "velocity": 55}, {"time": 86640, "pitch": 54, "duration": 10, "velocity": 90}, {"time": 86650, "pitch": 85, "duration": 10, "velocity": 81}, {"time": 86720, "pitch": 42, "duration": 10, "velocity": 50}, {"time": 86800, "pitch": 42, "duration": 10, "velocity": 73}, {"time": 86880, "pitch": 27, "duration": 10, "velocity": 117}, {"time": 86880, "pitch": 33, "duration": 10, "velocity": 102}, {"time": 86880, "pitch": 42, "duration": 10, "velocity": 99}, {"time": 86890, "pitch": 54, "duration": 10, "velocity": 75}, {"time": 86970, "pitch": 54, "duration": 10, "velocity": 32}, {"time": 87040, "pitch": 31, "duration": 10, "velocity": 76}, {"time": 87050, "pitch": 54, "duration": 10, "velocity": 84}, {"time": 87120, "pitch": 33, "duration": 10, "velocity": 98}, {"time": 87130, "pitch": 42, "duration": 10, "velocity": 77}, {"time": 87130, "pitch": 54, "duration": 10, "velocity": 79}, {"time": 87130, "pitch": 85, "duration": 10, "velocity": 76}, {"time": 87610, "pitch": 42, "duration": 10, "velocity": 37}, {"time": 87770, "pitch": 46, "duration": 10, "velocity": 79}, {"time": 87770, "pitch": 54, "duration": 10, "velocity": 89}, {"time": 87840, "pitch": 27, "duration": 10, "velocity": 117}, {"time": 87840, "pitch": 33, "duration": 10, "velocity": 103}, {"time": 87840, "pitch": 56, "duration": 10, "velocity": 126}, {"time": 87850, "pitch": 54, "duration": 10, "velocity": 83}, {"time": 87880, "pitch": 42, "duration": 10, "velocity": 21}, {"time": 88000, "pitch": 31, "duration": 10, "velocity": 82}, {"time": 88080, "pitch": 33, "duration": 10, "velocity": 98}, {"time": 88090, "pitch": 54, "duration": 10, "velocity": 73}, {"time": 88090, "pitch": 85, "duration": 10, "velocity": 81}, {"time": 88240, "pitch": 56, "duration": 10, "velocity": 121}, {"time": 88320, "pitch": 54, "duration": 10, "velocity": 46}, {"time": 88400, "pitch": 54, "duration": 10, "velocity": 42}, {"time": 88480, "pitch": 54, "duration": 10, "velocity": 58}, {"time": 88560, "pitch": 42, "duration": 10, "velocity": 59}, {"time": 88560, "pitch": 54, "duration": 10, "velocity": 83}, {"time": 88580, "pitch": 56, "duration": 10, "velocity": 127}, {"time": 88640, "pitch": 42, "duration": 10, "velocity": 47}, {"time": 88720, "pitch": 42, "duration": 10, "velocity": 73}, {"time": 88800, "pitch": 27, "duration": 10, "velocity": 112}, {"time": 88800, "pitch": 33, "duration": 10, "velocity": 107}, {"time": 88800, "pitch": 42, "duration": 10, "velocity": 99}, {"time": 88810, "pitch": 54, "duration": 10, "velocity": 73}, {"time": 88890, "pitch": 54, "duration": 10, "velocity": 31}, {"time": 88960, "pitch": 31, "duration": 10, "velocity": 85}, {"time": 88970, "pitch": 54, "duration": 10, "velocity": 82}, {"time": 89040, "pitch": 33, "duration": 10, "velocity": 99}, {"time": 89050, "pitch": 54, "duration": 10, "velocity": 81}, {"time": 89280, "pitch": 27, "duration": 10, "velocity": 112}, {"time": 89280, "pitch": 33, "duration": 10, "velocity": 107}, {"time": 89280, "pitch": 42, "duration": 10, "velocity": 99}, {"time": 89290, "pitch": 54, "duration": 10, "velocity": 73}, {"time": 89370, "pitch": 54, "duration": 10, "velocity": 31}, {"time": 89440, "pitch": 31, "duration": 10, "velocity": 85}, {"time": 89450, "pitch": 54, "duration": 10, "velocity": 82}, {"time": 90720, "pitch": 27, "duration": 10, "velocity": 72}, {"time": 90720, "pitch": 42, "duration": 10, "velocity": 98}, {"time": 90970, "pitch": 85, "duration": 10, "velocity": 77}, {"time": 91450, "pitch": 42, "duration": 10, "velocity": 36}, {"time": 91610, "pitch": 46, "duration": 10, "velocity": 81}, {"time": 91680, "pitch": 27, "duration": 10, "velocity": 85}, {"time": 91720, "pitch": 42, "duration": 10, "velocity": 21}, {"time": 91930, "pitch": 85, "duration": 10, "velocity": 75}, {"time": 91940, "pitch": 42, "duration": 10, "velocity": 43}, {"time": 92400, "pitch": 42, "duration": 10, "velocity": 51}, {"time": 92480, "pitch": 42, "duration": 10, "velocity": 51}, {"time": 92560, "pitch": 42, "duration": 10, "velocity": 68}, {"time": 92640, "pitch": 27, "duration": 10, "velocity": 98}, {"time": 92640, "pitch": 42, "duration": 10, "velocity": 96}, {"time": 92890, "pitch": 85, "duration": 10, "velocity": 79}, {"time": 93370, "pitch": 42, "duration": 10, "velocity": 37}, {"time": 93370, "pitch": 85, "duration": 10, "velocity": 80}, {"time": 93530, "pitch": 46, "duration": 10, "velocity": 87}, {"time": 93600, "pitch": 27, "duration": 10, "velocity": 113}, {"time": 93640, "pitch": 42, "duration": 10, "velocity": 21}, {"time": 93850, "pitch": 85, "duration": 10, "velocity": 84}, {"time": 93860, "pitch": 42, "duration": 10, "velocity": 37}, {"time": 94320, "pitch": 42, "duration": 10, "velocity": 58}, {"time": 94330, "pitch": 85, "duration": 10, "velocity": 79}, {"time": 94400, "pitch": 42, "duration": 10, "velocity": 49}, {"time": 94480, "pitch": 42, "duration": 10, "velocity": 69}, {"time": 94560, "pitch": 27, "duration": 10, "velocity": 116}, {"time": 94560, "pitch": 42, "duration": 10, "velocity": 91}, {"time": 94810, "pitch": 85, "duration": 10, "velocity": 84}, {"time": 95290, "pitch": 42, "duration": 10, "velocity": 32}, {"time": 95450, "pitch": 46, "duration": 10, "velocity": 81}, {"time": 95520, "pitch": 27, "duration": 10, "velocity": 118}, {"time": 95560, "pitch": 42, "duration": 10, "velocity": 21}, {"time": 95770, "pitch": 85, "duration": 10, "velocity": 76}, {"time": 95780, "pitch": 42, "duration": 10, "velocity": 37}, {"time": 96240, "pitch": 42, "duration": 10, "velocity": 52}, {"time": 96320, "pitch": 42, "duration": 10, "velocity": 49}, {"time": 96400, "pitch": 42, "duration": 10, "velocity": 69}, {"time": 96480, "pitch": 27, "duration": 10, "velocity": 113}, {"time": 96480, "pitch": 42, "duration": 10, "velocity": 90}, {"time": 96730, "pitch": 85, "duration": 10, "velocity": 77}, {"time": 97200, "pitch": 42, "duration": 10, "velocity": 58}, {"time": 97210, "pitch": 85, "duration": 10, "velocity": 78}, {"time": 97280, "pitch": 42, "duration": 10, "velocity": 53}, {"time": 97360, "pitch": 42, "duration": 10, "velocity": 67}, {"time": 97440, "pitch": 27, "duration": 10, "velocity": 114}, {"time": 97440, "pitch": 42, "duration": 10, "velocity": 90}, {"time": 97690, "pitch": 85, "duration": 10, "velocity": 82}, {"time": 98160, "pitch": 42, "duration": 10, "velocity": 52}, {"time": 98170, "pitch": 85, "duration": 10, "velocity": 80}, {"time": 98240, "pitch": 42, "duration": 10, "velocity": 46}, {"time": 98320, "pitch": 42, "duration": 10, "velocity": 74}, {"time": 98400, "pitch": 27, "duration": 10, "velocity": 116}, {"time": 98400, "pitch": 33, "duration": 10, "velocity": 107}, {"time": 98400, "pitch": 42, "duration": 10, "velocity": 91}, {"time": 98410, "pitch": 54, "duration": 10, "velocity": 78}, {"time": 98490, "pitch": 54, "duration": 10, "velocity": 32}, {"time": 98560, "pitch": 31, "duration": 10, "velocity": 85}, {"time": 98570, "pitch": 54, "duration": 10, "velocity": 85}, {"time": 98640, "pitch": 33, "duration": 10, "velocity": 102}, {"time": 98650, "pitch": 54, "duration": 10, "velocity": 78}, {"time": 98650, "pitch": 85, "duration": 10, "velocity": 75}, {"time": 99130, "pitch": 42, "duration": 10, "velocity": 38}, {"time": 99280, "pitch": 38, "duration": 10, "velocity": 84}, {"time": 99290, "pitch": 46, "duration": 10, "velocity": 86}, {"time": 99290, "pitch": 54, "duration": 10, "velocity": 82}, {"time": 99360, "pitch": 27, "duration": 10, "velocity": 114}, {"time": 99360, "pitch": 33, "duration": 10, "velocity": 103}, {"time": 99360, "pitch": 56, "duration": 10, "velocity": 127}, {"time": 99370, "pitch": 54, "duration": 10, "velocity": 87}, {"time": 99400, "pitch": 42, "duration": 10, "velocity": 21}, {"time": 99520, "pitch": 31, "duration": 10, "velocity": 76}, {"time": 99520, "pitch": 38, "duration": 10, "velocity": 42}, {"time": 99600, "pitch": 33, "duration": 10, "velocity": 94}, {"time": 99600, "pitch": 38, "duration": 10, "velocity": 78}, {"time": 99610, "pitch": 42, "duration": 10, "velocity": 77}, {"time": 99610, "pitch": 54, "duration": 10, "velocity": 79}, {"time": 99610, "pitch": 85, "duration": 10, "velocity": 84}, {"time": 99760, "pitch": 56, "duration": 10, "velocity": 125}, {"time": 99840, "pitch": 54, "duration": 10, "velocity": 53}, {"time": 99920, "pitch": 54, "duration": 10, "velocity": 44}, {"time": 100000, "pitch": 54, "duration": 10, "velocity": 58}, {"time": 100080, "pitch": 42, "duration": 10, "velocity": 57}, {"time": 100080, "pitch": 54, "duration": 10, "velocity": 91}, {"time": 100100, "pitch": 56, "duration": 10, "velocity": 126}, {"time": 100160, "pitch": 42, "duration": 10, "velocity": 51}, {"time": 100240, "pitch": 42, "duration": 10, "velocity": 69}, {"time": 100320, "pitch": 27, "duration": 10, "velocity": 121}, {"time": 100320, "pitch": 33, "duration": 10, "velocity": 109}, {"time": 100320, "pitch": 42, "duration": 10, "velocity": 98}, {"time": 100330, "pitch": 54, "duration": 10, "velocity": 75}, {"time": 100410, "pitch": 54, "duration": 10, "velocity": 38}, {"time": 100480, "pitch": 31, "duration": 10, "velocity": 83}, {"time": 100490, "pitch": 54, "duration": 10, "velocity": 88}, {"time": 100560, "pitch": 33, "duration": 10, "velocity": 95}, {"time": 100570, "pitch": 54, "duration": 10, "velocity": 79}, {"time": 100570, "pitch": 85, "duration": 10, "velocity": 81}, {"time": 101050, "pitch": 42, "duration": 10, "velocity": 37}, {"time": 101050, "pitch": 85, "duration": 10, "velocity": 82}, {"time": 101200, "pitch": 38, "duration": 10, "velocity": 86}, {"time": 101210, "pitch": 46, "duration": 10, "velocity": 81}, {"time": 101210, "pitch": 54, "duration": 10, "velocity": 81}, {"time": 101280, "pitch": 27, "duration": 10, "velocity": 120}, {"time": 101280, "pitch": 33, "duration": 10, "velocity": 103}, {"time": 101290, "pitch": 54, "duration": 10, "velocity": 84}, {"time": 101320, "pitch": 42, "duration": 10, "velocity": 21}, {"time": 101440, "pitch": 31, "duration": 10, "velocity": 79}, {"time": 101440, "pitch": 38, "duration": 10, "velocity": 44}, {"time": 101520, "pitch": 33, "duration": 10, "velocity": 101}, {"time": 101520, "pitch": 38, "duration": 10, "velocity": 72}, {"time": 101530, "pitch": 42, "duration": 10, "velocity": 77}, {"time": 101530, "pitch": 54, "duration": 10, "velocity": 79}, {"time": 101530, "pitch": 85, "duration": 10, "velocity": 81}, {"time": 101760, "pitch": 54, "duration": 10, "velocity": 54}, {"time": 101840, "pitch": 54, "duration": 10, "velocity": 50}, {"time": 101920, "pitch": 54, "duration": 10, "velocity": 60}, {"time": 102000, "pitch": 42, "duration": 10, "velocity": 55}, {"time": 102000, "pitch": 54, "duration": 10, "velocity": 83}, {"time": 102010, "pitch": 85, "duration": 10, "velocity": 83}, {"time": 102080, "pitch": 42, "duration": 10, "velocity": 54}, {"time": 102160, "pitch": 42, "duration": 10, "velocity": 73}, {"time": 102240, "pitch": 27, "duration": 10, "velocity": 120}, {"time": 102240, "pitch": 33, "duration": 10, "velocity": 100}, {"time": 102240, "pitch": 42, "duration": 10, "velocity": 95}, {"time": 102250, "pitch": 54, "duration": 10, "velocity": 77}, {"time": 102330, "pitch": 54, "duration": 10, "velocity": 37}, {"time": 102400, "pitch": 31, "duration": 10, "velocity": 83}, {"time": 102410, "pitch": 54, "duration": 10, "velocity": 82}, {"time": 102480, "pitch": 33, "duration": 10, "velocity": 100}, {"time": 102490, "pitch": 54, "duration": 10, "velocity": 83}, {"time": 102490, "pitch": 85, "duration": 10, "velocity": 79}, {"time": 102970, "pitch": 42, "duration": 10, "velocity": 39}, {"time": 103120, "pitch": 38, "duration": 10, "velocity": 83}, {"time": 103130, "pitch": 46, "duration": 10, "velocity": 79}, {"time": 103130, "pitch": 54, "duration": 10, "velocity": 86}, {"time": 103200, "pitch": 27, "duration": 10, "velocity": 121}, {"time": 103200, "pitch": 33, "duration": 10, "velocity": 105}, {"time": 103200, "pitch": 56, "duration": 10, "velocity": 120}, {"time": 103210, "pitch": 54, "duration": 10, "velocity": 89}, {"time": 103240, "pitch": 42, "duration": 10, "velocity": 21}, {"time": 103360, "pitch": 31, "duration": 10, "velocity": 77}, {"time": 103360, "pitch": 38, "duration": 10, "velocity": 46}, {"time": 103440, "pitch": 33, "duration": 10, "velocity": 94}, {"time": 103440, "pitch": 38, "duration": 10, "velocity": 77}, {"time": 103450, "pitch": 42, "duration": 10, "velocity": 71}, {"time": 103450, "pitch": 54, "duration": 10, "velocity": 80}, {"time": 103450, "pitch": 85, "duration": 10, "velocity": 76}, {"time": 103600, "pitch": 56, "duration": 10, "velocity": 125}, {"time": 103680, "pitch": 54, "duration": 10, "velocity": 49}, {"time": 103760, "pitch": 54, "duration": 10, "velocity": 44}, {"time": 103840, "pitch": 54, "duration": 10, "velocity": 63}, {"time": 103920, "pitch": 42, "duration": 10, "velocity": 58}, {"time": 103920, "pitch": 54, "duration": 10, "velocity": 89}, {"time": 103940, "pitch": 56, "duration": 10, "velocity": 123}, {"time": 104000, "pitch": 42, "duration": 10, "velocity": 54}, {"time": 104080, "pitch": 42, "duration": 10, "velocity": 68}, {"time": 104160, "pitch": 42, "duration": 10, "velocity": 96}, {"time": 105840, "pitch": 42, "duration": 10, "velocity": 75}, {"time": 105920, "pitch": 42, "duration": 10, "velocity": 67}, {"time": 106000, "pitch": 42, "duration": 10, "velocity": 73}, {"time": 106080, "pitch": 27, "duration": 10, "velocity": 115}, {"time": 106080, "pitch": 33, "duration": 10, "velocity": 102}, {"time": 106080, "pitch": 42, "duration": 10, "velocity": 91}, {"time": 106090, "pitch": 54, "duration": 10, "velocity": 77}, {"time": 106170, "pitch": 54, "duration": 10, "velocity": 36}, {"time": 106240, "pitch": 31, "duration": 10, "velocity": 83}, {"time": 106250, "pitch": 54, "duration": 10, "velocity": 85}, {"time": 106320, "pitch": 33, "duration": 10, "velocity": 100}, {"time": 106330, "pitch": 42, "duration": 10, "velocity": 72}, {"time": 106330, "pitch": 54, "duration": 10, "velocity": 81}, {"time": 106330, "pitch": 85, "duration": 10, "velocity": 80}, {"time": 106810, "pitch": 42, "duration": 10, "velocity": 32}, {"time": 106970, "pitch": 46, "duration": 10, "velocity": 79}, {"time": 106970, "pitch": 54, "duration": 10, "velocity": 87}, {"time": 107040, "pitch": 27, "duration": 10, "velocity": 120}, {"time": 107040, "pitch": 33, "duration": 10, "velocity": 108}, {"time": 107050, "pitch": 54, "duration": 10, "velocity": 90}, {"time": 107080, "pitch": 42, "duration": 10, "velocity": 21}, {"time": 107200, "pitch": 31, "duration": 10, "velocity": 76}, {"time": 107280, "pitch": 33, "duration": 10, "velocity": 102}, {"time": 107290, "pitch": 54, "duration": 10, "velocity": 78}, {"time": 107290, "pitch": 85, "duration": 10, "velocity": 77}, {"time": 107520, "pitch": 54, "duration": 10, "velocity": 54}, {"time": 107600, "pitch": 54, "duration": 10, "velocity": 50}, {"time": 107680, "pitch": 54, "duration": 10, "velocity": 60}, {"time": 107760, "pitch": 42, "duration": 10, "velocity": 57}, {"time": 107760, "pitch": 54, "duration": 10, "velocity": 86}, {"time": 107840, "pitch": 42, "duration": 10, "velocity": 48}, {"time": 107920, "pitch": 42, "duration": 10, "velocity": 69}, {"time": 108000, "pitch": 27, "duration": 10, "velocity": 120}, {"time": 108000, "pitch": 33, "duration": 10, "velocity": 104}, {"time": 108000, "pitch": 42, "duration": 10, "velocity": 93}, {"time": 108010, "pitch": 54, "duration": 10, "velocity": 77}, {"time": 108090, "pitch": 54, "duration": 10, "velocity": 35}, {"time": 108160, "pitch": 31, "duration": 10, "velocity": 85}, {"time": 108170, "pitch": 54, "duration": 10, "velocity": 84}, {"time": 108240, "pitch": 33, "duration": 10, "velocity": 95}, {"time": 108250, "pitch": 42, "duration": 10, "velocity": 71}, {"time": 108250, "pitch": 54, "duration": 10, "velocity": 80}, {"time": 108250, "pitch": 85, "duration": 10, "velocity": 76}, {"time": 108730, "pitch": 42, "duration": 10, "velocity": 39}, {"time": 108730, "pitch": 85, "duration": 10, "velocity": 82}, {"time": 108890, "pitch": 46, "duration": 10, "velocity": 84}, {"time": 108890, "pitch": 54, "duration": 10, "velocity": 87}, {"time": 108960, "pitch": 27, "duration": 10, "velocity": 116}, {"time": 108960, "pitch": 33, "duration": 10, "velocity": 106}, {"time": 108970, "pitch": 54, "duration": 10, "velocity": 84}, {"time": 109000, "pitch": 42, "duration": 10, "velocity": 21}, {"time": 109120, "pitch": 31, "duration": 10, "velocity": 76}, {"time": 109200, "pitch": 33, "duration": 10, "velocity": 98}, {"time": 109210, "pitch": 54, "duration": 10, "velocity": 74}, {"time": 109210, "pitch": 85, "duration": 10, "velocity": 84}, {"time": 109440, "pitch": 54, "duration": 10, "velocity": 52}, {"time": 109520, "pitch": 54, "duration": 10, "velocity": 44}, {"time": 109600, "pitch": 54, "duration": 10, "velocity": 65}, {"time": 109680, "pitch": 42, "duration": 10, "velocity": 57}, {"time": 109680, "pitch": 54, "duration": 10, "velocity": 89}, {"time": 109690, "pitch": 85, "duration": 10, "velocity": 83}, {"time": 109760, "pitch": 42, "duration": 10, "velocity": 48}, {"time": 109840, "pitch": 42, "duration": 10, "velocity": 67}, {"time": 109920, "pitch": 27, "duration": 10, "velocity": 115}, {"time": 109920, "pitch": 33, "duration": 10, "velocity": 109}, {"time": 109920, "pitch": 42, "duration": 10, "velocity": 93}, {"time": 109930, "pitch": 54, "duration": 10, "velocity": 75}, {"time": 110010, "pitch": 54, "duration": 10, "velocity": 37}, {"time": 110080, "pitch": 31, "duration": 10, "velocity": 83}, {"time": 110090, "pitch": 54, "duration": 10, "velocity": 82}, {"time": 110160, "pitch": 33, "duration": 10, "velocity": 101}, {"time": 110170, "pitch": 42, "duration": 10, "velocity": 76}, {"time": 110170, "pitch": 54, "duration": 10, "velocity": 81}, {"time": 110170, "pitch": 85, "duration": 10, "velocity": 80}, {"time": 110650, "pitch": 42, "duration": 10, "velocity": 39}, {"time": 110810, "pitch": 46, "duration": 10, "velocity": 80}, {"time": 110810, "pitch": 54, "duration": 10, "velocity": 86}, {"time": 110880, "pitch": 27, "duration": 10, "velocity": 113}, {"time": 110880, "pitch": 33, "duration": 10, "velocity": 101}, {"time": 110890, "pitch": 54, "duration": 10, "velocity": 83}, {"time": 110920, "pitch": 42, "duration": 10, "velocity": 21}, {"time": 111040, "pitch": 31, "duration": 10, "velocity": 85}, {"time": 111120, "pitch": 33, "duration": 10, "velocity": 95}, {"time": 111130, "pitch": 54, "duration": 10, "velocity": 79}, {"time": 111130, "pitch": 85, "duration": 10, "velocity": 78}, {"time": 111360, "pitch": 54, "duration": 10, "velocity": 51}, {"time": 111440, "pitch": 54, "duration": 10, "velocity": 50}, {"time": 111520, "pitch": 54, "duration": 10, "velocity": 58}, {"time": 111600, "pitch": 42, "duration": 10, "velocity": 57}, {"time": 111600, "pitch": 54, "duration": 10, "velocity": 83}, {"time": 111680, "pitch": 42, "duration": 10, "velocity": 51}, {"time": 111760, "pitch": 42, "duration": 10, "velocity": 66}, {"time": 111840, "pitch": 27, "duration": 10, "velocity": 114}, {"time": 111840, "pitch": 33, "duration": 10, "velocity": 106}, {"time": 111840, "pitch": 42, "duration": 10, "velocity": 98}, {"time": 111850, "pitch": 54, "duration": 10, "velocity": 72}, {"time": 111930, "pitch": 54, "duration": 10, "velocity": 38}, {"time": 112000, "pitch": 31, "duration": 10, "velocity": 80}, {"time": 112010, "pitch": 54, "duration": 10, "velocity": 83}, {"time": 112080, "pitch": 33, "duration": 10, "velocity": 94}, {"time": 112090, "pitch": 42, "duration": 10, "velocity": 78}, {"time": 112090, "pitch": 54, "duration": 10, "velocity": 81}, {"time": 112090, "pitch": 85, "duration": 10, "velocity": 82}, {"time": 112560, "pitch": 42, "duration": 10, "velocity": 60}, {"time": 112570, "pitch": 85, "duration": 10, "velocity": 75}, {"time": 112640, "pitch": 42, "duration": 10, "velocity": 53}, {"time": 112720, "pitch": 42, "duration": 10, "velocity": 67}, {"time": 112730, "pitch": 54, "duration": 10, "velocity": 87}, {"time": 112800, "pitch": 27, "duration": 10, "velocity": 114}, {"time": 112800, "pitch": 33, "duration": 10, "velocity": 107}, {"time": 112800, "pitch": 42, "duration": 10, "velocity": 99}, {"time": 112810, "pitch": 54, "duration": 10, "velocity": 89}, {"time": 112960, "pitch": 31, "duration": 10, "velocity": 79}, {"time": 113040, "pitch": 33, "duration": 10, "velocity": 100}, {"time": 113050, "pitch": 54, "duration": 10, "velocity": 78}, {"time": 113050, "pitch": 85, "duration": 10, "velocity": 82}, {"time": 113280, "pitch": 54, "duration": 10, "velocity": 52}, {"time": 113360, "pitch": 54, "duration": 10, "velocity": 43}, {"time": 113440, "pitch": 54, "duration": 10, "velocity": 66}, {"time": 113520, "pitch": 42, "duration": 10, "velocity": 53}, {"time": 113520, "pitch": 54, "duration": 10, "velocity": 88}, {"time": 113530, "pitch": 85, "duration": 10, "velocity": 78}, {"time": 113600, "pitch": 42, "duration": 10, "velocity": 51}, {"time": 113680, "pitch": 42, "duration": 10, "velocity": 73}, {"time": 113760, "pitch": 27, "duration": 10, "velocity": 117}, {"time": 113760, "pitch": 33, "duration": 10, "velocity": 108}, {"time": 113760, "pitch": 42, "duration": 10, "velocity": 97}, {"time": 113770, "pitch": 54, "duration": 10, "velocity": 76}, {"time": 113850, "pitch": 54, "duration": 10, "velocity": 36}, {"time": 113920, "pitch": 31, "duration": 10, "velocity": 77}, {"time": 113930, "pitch": 54, "duration": 10, "velocity": 87}, {"time": 114000, "pitch": 33, "duration": 10, "velocity": 99}, {"time": 114010, "pitch": 42, "duration": 10, "velocity": 70}, {"time": 114010, "pitch": 54, "duration": 10, "velocity": 76}, {"time": 114010, "pitch": 85, "duration": 10, "velocity": 82}, {"time": 114490, "pitch": 42, "duration": 10, "velocity": 41}, {"time": 114650, "pitch": 46, "duration": 10, "velocity": 81}, {"time": 114650, "pitch": 54, "duration": 10, "velocity": 83}, {"time": 114720, "pitch": 27, "duration": 10, "velocity": 120}, {"time": 114720, "pitch": 33, "duration": 10, "velocity": 100}, {"time": 114720, "pitch": 56, "duration": 10, "velocity": 123}, {"time": 114730, "pitch": 54, "duration": 10, "velocity": 91}, {"time": 114760, "pitch": 42, "duration": 10, "velocity": 21}, {"time": 114880, "pitch": 31, "duration": 10, "velocity": 78}, {"time": 114960, "pitch": 33, "duration": 10, "velocity": 97}, {"time": 114970, "pitch": 54, "duration": 10, "velocity": 78}, {"time": 114970, "pitch": 85, "duration": 10, "velocity": 82}, {"time": 115120, "pitch": 56, "duration": 10, "velocity": 125}, {"time": 115200, "pitch": 54, "duration": 10, "velocity": 48}, {"time": 115280, "pitch": 54, "duration": 10, "velocity": 46}, {"time": 115360, "pitch": 54, "duration": 10, "velocity": 63}, {"time": 115440, "pitch": 42, "duration": 10, "velocity": 55}, {"time": 115440, "pitch": 54, "duration": 10, "velocity": 92}, {"time": 115460, "pitch": 56, "duration": 10, "velocity": 125}, {"time": 115520, "pitch": 42, "duration": 10, "velocity": 48}, {"time": 115600, "pitch": 42, "duration": 10, "velocity": 72}, {"time": 115680, "pitch": 27, "duration": 10, "velocity": 113}, {"time": 115680, "pitch": 33, "duration": 10, "velocity": 101}, {"time": 115680, "pitch": 42, "duration": 10, "velocity": 95}, {"time": 115690, "pitch": 54, "duration": 10, "velocity": 72}, {"time": 115770, "pitch": 54, "duration": 10, "velocity": 35}, {"time": 115840, "pitch": 31, "duration": 10, "velocity": 76}, {"time": 115850, "pitch": 54, "duration": 10, "velocity": 83}, {"time": 115920, "pitch": 33, "duration": 10, "velocity": 94}, {"time": 115930, "pitch": 42, "duration": 10, "velocity": 72}, {"time": 115930, "pitch": 54, "duration": 10, "velocity": 77}, {"time": 115930, "pitch": 85, "duration": 10, "velocity": 80}, {"time": 116410, "pitch": 42, "duration": 10, "velocity": 40}, {"time": 116410, "pitch": 85, "duration": 10, "velocity": 81}, {"time": 116570, "pitch": 46, "duration": 10, "velocity": 85}, {"time": 116570, "pitch": 54, "duration": 10, "velocity": 83}, {"time": 116640, "pitch": 27, "duration": 10, "velocity": 117}, {"time": 116640, "pitch": 33, "duration": 10, "velocity": 109}, {"time": 116650, "pitch": 54, "duration": 10, "velocity": 85}, {"time": 116680, "pitch": 42, "duration": 10, "velocity": 21}, {"time": 116800, "pitch": 31, "duration": 10, "velocity": 80}, {"time": 116880, "pitch": 33, "duration": 10, "velocity": 103}, {"time": 116890, "pitch": 54, "duration": 10, "velocity": 72}, {"time": 116890, "pitch": 85, "duration": 10, "velocity": 79}, {"time": 117120, "pitch": 54, "duration": 10, "velocity": 50}, {"time": 117200, "pitch": 54, "duration": 10, "velocity": 44}, {"time": 117280, "pitch": 54, "duration": 10, "velocity": 64}, {"time": 117360, "pitch": 42, "duration": 10, "velocity": 53}, {"time": 117360, "pitch": 54, "duration": 10, "velocity": 87}, {"time": 117370, "pitch": 85, "duration": 10, "velocity": 84}, {"time": 117440, "pitch": 42, "duration": 10, "velocity": 46}, {"time": 117520, "pitch": 42, "duration": 10, "velocity": 68}, {"time": 117600, "pitch": 27, "duration": 10, "velocity": 116}, {"time": 117600, "pitch": 33, "duration": 10, "velocity": 108}, {"time": 117600, "pitch": 42, "duration": 10, "velocity": 90}, {"time": 117610, "pitch": 54, "duration": 10, "velocity": 79}, {"time": 117690, "pitch": 54, "duration": 10, "velocity": 31}, {"time": 117760, "pitch": 31, "duration": 10, "velocity": 81}, {"time": 117770, "pitch": 54, "duration": 10, "velocity": 82}, {"time": 117840, "pitch": 33, "duration": 10, "velocity": 98}, {"time": 117850, "pitch": 42, "duration": 10, "velocity": 75}, {"time": 117850, "pitch": 54, "duration": 10, "velocity": 76}, {"time": 117850, "pitch": 85, "duration": 10, "velocity": 75}, {"time": 118330, "pitch": 42, "duration": 10, "velocity": 39}, {"time": 118490, "pitch": 46, "duration": 10, "velocity": 80}, {"time": 118490, "pitch": 54, "duration": 10, "velocity": 88}, {"time": 118560, "pitch": 27, "duration": 10, "velocity": 117}, {"time": 118560, "pitch": 33, "duration": 10, "velocity": 101}, {"time": 118560, "pitch": 56, "duration": 10, "velocity": 123}, {"time": 118570, "pitch": 54, "duration": 10, "velocity": 86}, {"time": 118600, "pitch": 42, "duration": 10, "velocity": 21}, {"time": 118720, "pitch": 31, "duration": 10, "velocity": 85}, {"time": 118800, "pitch": 33, "duration": 10, "velocity": 95}, {"time": 118810, "pitch": 54, "duration": 10, "velocity": 72}, {"time": 118810, "pitch": 85, "duration": 10, "velocity": 83}, {"time": 118960, "pitch": 56, "duration": 10, "velocity": 127}, {"time": 119040, "pitch": 54, "duration": 10, "velocity": 47}, {"time": 119120, "pitch": 54, "duration": 10, "velocity": 49}, {"time": 119200, "pitch": 54, "duration": 10, "velocity": 62}, {"time": 119280, "pitch": 42, "duration": 10, "velocity": 61}, {"time": 119280, "pitch": 54, "duration": 10, "velocity": 91}, {"time": 119300, "pitch": 56, "duration": 10, "velocity": 127}, {"time": 119360, "pitch": 42, "duration": 10, "velocity": 46}, {"time": 119440, "pitch": 42, "duration": 10, "velocity": 70}, {"time": 119520, "pitch": 27, "duration": 10, "velocity": 115}, {"time": 119520, "pitch": 33, "duration": 10, "velocity": 105}, {"time": 119520, "pitch": 42, "duration": 10, "velocity": 99}, {"time": 119530, "pitch": 54, "duration": 10, "velocity": 80}, {"time": 119610, "pitch": 54, "duration": 10, "velocity": 35}, {"time": 119680, "pitch": 31, "duration": 10, "velocity": 77}, {"time": 119690, "pitch": 54, "duration": 10, "velocity": 84}, {"time": 119760, "pitch": 33, "duration": 10, "velocity": 100}, {"time": 119770, "pitch": 42, "duration": 10, "velocity": 75}, {"time": 119770, "pitch": 54, "duration": 10, "velocity": 84}, {"time": 119770, "pitch": 85, "duration": 10, "velocity": 84}, {"time": 120240, "pitch": 42, "duration": 10, "velocity": 58}, {"time": 120250, "pitch": 85, "duration": 10, "velocity": 81}, {"time": 120320, "pitch": 42, "duration": 10, "velocity": 52}, {"time": 120400, "pitch": 42, "duration": 10, "velocity": 67}, {"time": 120410, "pitch": 54, "duration": 10, "velocity": 86}, {"time": 120480, "pitch": 27, "duration": 10, "velocity": 113}, {"time": 120480, "pitch": 33, "duration": 10, "velocity": 108}, {"time": 120480, "pitch": 42, "duration": 10, "velocity": 92}, {"time": 120490, "pitch": 54, "duration": 10, "velocity": 85}, {"time": 120640, "pitch": 31, "duration": 10, "velocity": 82}, {"time": 120720, "pitch": 33, "duration": 10, "velocity": 99}, {"time": 120730, "pitch": 54, "duration": 10, "velocity": 74}, {"time": 120730, "pitch": 85, "duration": 10, "velocity": 76}, {"time": 120960, "pitch": 54, "duration": 10, "velocity": 46}, {"time": 121040, "pitch": 54, "duration": 10, "velocity": 49}, {"time": 121120, "pitch": 54, "duration": 10, "velocity": 62}, {"time": 121200, "pitch": 42, "duration": 10, "velocity": 57}, {"time": 121200, "pitch": 54, "duration": 10, "velocity": 91}, {"time": 121210, "pitch": 85, "duration": 10, "velocity": 75}, {"time": 121280, "pitch": 42, "duration": 10, "velocity": 52}, {"time": 121360, "pitch": 42, "duration": 10, "velocity": 74}, {"time": 121440, "pitch": 27, "duration": 10, "velocity": 113}, {"time": 121440, "pitch": 33, "duration": 10, "velocity": 105}, {"time": 121440, "pitch": 42, "duration": 10, "velocity": 95}, {"time": 121450, "pitch": 54, "duration": 10, "velocity": 78}, {"time": 121530, "pitch": 54, "duration": 10, "velocity": 37}, {"time": 121600, "pitch": 31, "duration": 10, "velocity": 84}, {"time": 121610, "pitch": 54, "duration": 10, "velocity": 88}, {"time": 121680, "pitch": 33, "duration": 10, "velocity": 101}, {"time": 121690, "pitch": 42, "duration": 10, "velocity": 78}, {"time": 121690, "pitch": 54, "duration": 10, "velocity": 79}, {"time": 121690, "pitch": 85, "duration": 10, "velocity": 77}, {"time": 122170, "pitch": 42, "duration": 10, "velocity": 33}, {"time": 122330, "pitch": 46, "duration": 10, "velocity": 86}, {"time": 122330, "pitch": 54, "duration": 10, "velocity": 81}, {"time": 122400, "pitch": 27, "duration": 10, "velocity": 121}, {"time": 122400, "pitch": 33, "duration": 10, "velocity": 108}, {"time": 122400, "pitch": 56, "duration": 10, "velocity": 123}, {"time": 122410, "pitch": 54, "duration": 10, "velocity": 87}, {"time": 122440, "pitch": 42, "duration": 10, "velocity": 21}, {"time": 122560, "pitch": 31, "duration": 10, "velocity": 76}, {"time": 122640, "pitch": 33, "duration": 10, "velocity": 96}, {"time": 122650, "pitch": 54, "duration": 10, "velocity": 79}, {"time": 122650, "pitch": 85, "duration": 10, "velocity": 80}, {"time": 122800, "pitch": 56, "duration": 10, "velocity": 122}, {"time": 122880, "pitch": 54, "duration": 10, "velocity": 51}, {"time": 122960, "pitch": 54, "duration": 10, "velocity": 41}, {"time": 123040, "pitch": 54, "duration": 10, "velocity": 61}, {"time": 123120, "pitch": 42, "duration": 10, "velocity": 57}, {"time": 123120, "pitch": 54, "duration": 10, "velocity": 91}, {"time": 123140, "pitch": 56, "duration": 10, "velocity": 122}, {"time": 123200, "pitch": 42, "duration": 10, "velocity": 54}, {"time": 123280, "pitch": 42, "duration": 10, "velocity": 69}, {"time": 123360, "pitch": 27, "duration": 10, "velocity": 120}, {"time": 123360, "pitch": 33, "duration": 10, "velocity": 107}, {"time": 123360, "pitch": 42, "duration": 10, "velocity": 95}, {"time": 123370, "pitch": 54, "duration": 10, "velocity": 75}, {"time": 123450, "pitch": 54, "duration": 10, "velocity": 30}, {"time": 123520, "pitch": 31, "duration": 10, "velocity": 80}, {"time": 123530, "pitch": 54, "duration": 10, "velocity": 80}, {"time": 123600, "pitch": 33, "duration": 10, "velocity": 98}, {"time": 123610, "pitch": 42, "duration": 10, "velocity": 77}, {"time": 123610, "pitch": 54, "duration": 10, "velocity": 76}, {"time": 123610, "pitch": 85, "duration": 10, "velocity": 76}, {"time": 124090, "pitch": 42, "duration": 10, "velocity": 40}, {"time": 124090, "pitch": 85, "duration": 10, "velocity": 80}, {"time": 124250, "pitch": 46, "duration": 10, "velocity": 83}, {"time": 124250, "pitch": 54, "duration": 10, "velocity": 90}, {"time": 124320, "pitch": 27, "duration": 10, "velocity": 112}, {"time": 124320, "pitch": 33, "duration": 10, "velocity": 109}, {"time": 124330, "pitch": 54, "duration": 10, "velocity": 83}, {"time": 124360, "pitch": 42, "duration": 10, "velocity": 21}, {"time": 124480, "pitch": 31, "duration": 10, "velocity": 80}, {"time": 124560, "pitch": 33, "duration": 10, "velocity": 96}, {"time": 124570, "pitch": 54, "duration": 10, "velocity": 80}, {"time": 124570, "pitch": 85, "duration": 10, "velocity": 81}, {"time": 124800, "pitch": 54, "duration": 10, "velocity": 46}, {"time": 124880, "pitch": 54, "duration": 10, "velocity": 41}, {"time": 124960, "pitch": 54, "duration": 10, "velocity": 61}, {"time": 125040, "pitch": 42, "duration": 10, "velocity": 55}, {"time": 125040, "pitch": 54, "duration": 10, "velocity": 90}, {"time": 125050, "pitch": 85, "duration": 10, "velocity": 81}, {"time": 125120, "pitch": 42, "duration": 10, "velocity": 50}, {"time": 125200, "pitch": 42, "duration": 10, "velocity": 73}, {"time": 125280, "pitch": 27, "duration": 10, "velocity": 117}, {"time": 125280, "pitch": 33, "duration": 10, "velocity": 102}, {"time": 125280, "pitch": 42, "duration": 10, "velocity": 99}, {"time": 125290, "pitch": 54, "duration": 10, "velocity": 75}, {"time": 125370, "pitch": 54, "duration": 10, "velocity": 32}, {"time": 125440, "pitch": 31, "duration": 10, "velocity": 76}, {"time": 125450, "pitch": 54, "duration": 10, "velocity": 84}, {"time": 125520, "pitch": 33, "duration": 10, "velocity": 98}, {"time": 125530, "pitch": 42, "duration": 10, "velocity": 77}, {"time": 125530, "pitch": 54, "duration": 10, "velocity": 79}, {"time": 125530, "pitch": 85, "duration": 10, "velocity": 76}, {"time": 126010, "pitch": 42, "duration": 10, "velocity": 37}, {"time": 126170, "pitch": 46, "duration": 10, "velocity": 79}, {"time": 126170, "pitch": 54, "duration": 10, "velocity": 89}, {"time": 126240, "pitch": 27, "duration": 10, "velocity": 117}, {"time": 126240, "pitch": 33, "duration": 10, "velocity": 103}, {"time": 126240, "pitch": 56, "duration": 10, "velocity": 126}, {"time": 126250, "pitch": 54, "duration": 10, "velocity": 83}, {"time": 126280, "pitch": 42, "duration": 10, "velocity": 21}, {"time": 126400, "pitch": 31, "duration": 10, "velocity": 82}, {"time": 126480, "pitch": 33, "duration": 10, "velocity": 98}, {"time": 126490, "pitch": 54, "duration": 10, "velocity": 73}, {"time": 126490, "pitch": 85, "duration": 10, "velocity": 81}, {"time": 126640, "pitch": 56, "duration": 10, "velocity": 121}, {"time": 126720, "pitch": 54, "duration": 10, "velocity": 46}, {"time": 126800, "pitch": 54, "duration": 10, "velocity": 42}, {"time": 126880, "pitch": 54, "duration": 10, "velocity": 58}, {"time": 126960, "pitch": 42, "duration": 10, "velocity": 59}, {"time": 126960, "pitch": 54, "duration": 10, "velocity": 83}, {"time": 126980, "pitch": 56, "duration": 10, "velocity": 127}, {"time": 127040, "pitch": 42, "duration": 10, "velocity": 47}, {"time": 127120, "pitch": 42, "duration": 10, "velocity": 73}, {"time": 127200, "pitch": 42, "duration": 10, "velocity": 96}, {"time": 128880, "pitch": 42, "duration": 10, "velocity": 75}, {"time": 128960, "pitch": 42, "duration": 10, "velocity": 67}, {"time": 129040, "pitch": 42, "duration": 10, "velocity": 73}, {"time": 129120, "pitch": 27, "duration": 10, "velocity": 115}, {"time": 129120, "pitch": 33, "duration": 10, "velocity": 102}, {"time": 129120, "pitch": 42, "duration": 10, "velocity": 91}, {"time": 129130, "pitch": 54, "duration": 10, "velocity": 77}, {"time": 129210, "pitch": 54, "duration": 10, "velocity": 36}, {"time": 129280, "pitch": 31, "duration": 10, "velocity": 83}, {"time": 129290, "pitch": 54, "duration": 10, "velocity": 85}, {"time": 129360, "pitch": 33, "duration": 10, "velocity": 100}, {"time": 129370, "pitch": 42, "duration": 10, "velocity": 72}, {"time": 129370, "pitch": 54, "duration": 10, "velocity": 81}, {"time": 129370, "pitch": 85, "duration": 10, "velocity": 80}, {"time": 129850, "pitch": 42, "duration": 10, "velocity": 32}, {"time": 130010, "pitch": 46, "duration": 10, "velocity": 79}, {"time": 130010, "pitch": 54, "duration": 10, "velocity": 87}, {"time": 130080, "pitch": 27, "duration": 10, "velocity": 120}, {"time": 130080, "pitch": 33, "duration": 10, "velocity": 108}, {"time": 130090, "pitch": 54, "duration": 10, "velocity": 90}, {"time": 130120, "pitch": 42, "duration": 10, "velocity": 21}, {"time": 130240, "pitch": 31, "duration": 10, "velocity": 76}, {"time": 130320, "pitch": 33, "duration": 10, "velocity": 102}, {"time": 130330, "pitch": 54, "duration": 10, "velocity": 78}, {"time": 130330, "pitch": 85, "duration": 10, "velocity": 77}, {"time": 130560, "pitch": 54, "duration": 10, "velocity": 54}, {"time": 130640, "pitch": 54, "duration": 10, "velocity": 50}, {"time": 130720, "pitch": 54, "duration": 10, "velocity": 60}, {"time": 130800, "pitch": 42, "duration": 10, "velocity": 57}, {"time": 130800, "pitch": 54, "duration": 10, "velocity": 86}, {"time": 130880, "pitch": 42, "duration": 10, "velocity": 48}, {"time": 130960, "pitch": 42, "duration": 10, "velocity": 69}, {"time": 131040, "pitch": 27, "duration": 10, "velocity": 120}, {"time": 131040, "pitch": 33, "duration": 10, "velocity": 104}, {"time": 131040, "pitch": 42, "duration": 10, "velocity": 93}, {"time": 131050, "pitch": 54, "duration": 10, "velocity": 77}, {"time": 131130, "pitch": 54, "duration": 10, "velocity": 35}, {"time": 131200, "pitch": 31, "duration": 10, "velocity": 85}, {"time": 131210, "pitch": 54, "duration": 10, "velocity": 84}, {"time": 131280, "pitch": 33, "duration": 10, "velocity": 95}, {"time": 131290, "pitch": 42, "duration": 10, "velocity": 71}, {"time": 131290, "pitch": 54, "duration": 10, "velocity": 80}, {"time": 131290, "pitch": 85, "duration": 10, "velocity": 76}, {"time": 131770, "pitch": 42, "duration": 10, "velocity": 39}, {"time": 131770, "pitch": 85, "duration": 10, "velocity": 82}, {"time": 131930, "pitch": 46, "duration": 10, "velocity": 84}, {"time": 131930, "pitch": 54, "duration": 10, "velocity": 87}, {"time": 132000, "pitch": 27, "duration": 10, "velocity": 116}, {"time": 132000, "pitch": 33, "duration": 10, "velocity": 106}, {"time": 132010, "pitch": 54, "duration": 10, "velocity": 84}, {"time": 132040, "pitch": 42, "duration": 10, "velocity": 21}, {"time": 132160, "pitch": 31, "duration": 10, "velocity": 76}, {"time": 132240, "pitch": 33, "duration": 10, "velocity": 98}, {"time": 132250, "pitch": 54, "duration": 10, "velocity": 74}, {"time": 132250, "pitch": 85, "duration": 10, "velocity": 84}, {"time": 132480, "pitch": 54, "duration": 10, "velocity": 52}, {"time": 132560, "pitch": 54, "duration": 10, "velocity": 44}, {"time": 132640, "pitch": 54, "duration": 10, "velocity": 65}, {"time": 132720, "pitch": 42, "duration": 10, "velocity": 57}, {"time": 132720, "pitch": 54, "duration": 10, "velocity": 89}, {"time": 132730, "pitch": 85, "duration": 10, "velocity": 83}, {"time": 132800, "pitch": 42, "duration": 10, "velocity": 48}, {"time": 132880, "pitch": 42, "duration": 10, "velocity": 67}, {"time": 132960, "pitch": 27, "duration": 10, "velocity": 115}, {"time": 132960, "pitch": 33, "duration": 10, "velocity": 109}, {"time": 132960, "pitch": 42, "duration": 10, "velocity": 93}, {"time": 132970, "pitch": 54, "duration": 10, "velocity": 75}, {"time": 133050, "pitch": 54, "duration": 10, "velocity": 37}, {"time": 133120, "pitch": 31, "duration": 10, "velocity": 83}, {"time": 133130, "pitch": 54, "duration": 10, "velocity": 82}, {"time": 133200, "pitch": 33, "duration": 10, "velocity": 101}, {"time": 133210, "pitch": 42, "duration": 10, "velocity": 76}, {"time": 133210, "pitch": 54, "duration": 10, "velocity": 81}, {"time": 133210, "pitch": 85, "duration": 10, "velocity": 80}, {"time": 133690, "pitch": 42, "duration": 10, "velocity": 39}, {"time": 133850, "pitch": 46, "duration": 10, "velocity": 80}, {"time": 133850, "pitch": 54, "duration": 10, "velocity": 86}, {"time": 133920, "pitch": 27, "duration": 10, "velocity": 113}, {"time": 133920, "pitch": 33, "duration": 10, "velocity": 101}, {"time": 133930, "pitch": 54, "duration": 10, "velocity": 83}, {"time": 133960, "pitch": 42, "duration": 10, "velocity": 21}, {"time": 134080, "pitch": 31, "duration": 10, "velocity": 85}, {"time": 134160, "pitch": 33, "duration": 10, "velocity": 95}, {"time": 134170, "pitch": 54, "duration": 10, "velocity": 79}, {"time": 134170, "pitch": 85, "duration": 10, "velocity": 78}, {"time": 134400, "pitch": 54, "duration": 10, "velocity": 51}, {"time": 134480, "pitch": 54, "duration": 10, "velocity": 50}, {"time": 134560, "pitch": 54, "duration": 10, "velocity": 58}, {"time": 134640, "pitch": 42, "duration": 10, "velocity": 57}, {"time": 134640, "pitch": 54, "duration": 10, "velocity": 83}, {"time": 134720, "pitch": 42, "duration": 10, "velocity": 51}, {"time": 134800, "pitch": 42, "duration": 10, "velocity": 66}, {"time": 134880, "pitch": 27, "duration": 10, "velocity": 114}, {"time": 134880, "pitch": 33, "duration": 10, "velocity": 106}, {"time": 134880, "pitch": 42, "duration": 10, "velocity": 98}, {"time": 134890, "pitch": 54, "duration": 10, "velocity": 72}, {"time": 134970, "pitch": 54, "duration": 10, "velocity": 38}, {"time": 135040, "pitch": 31, "duration": 10, "velocity": 80}, {"time": 135050, "pitch": 54, "duration": 10, "velocity": 83}, {"time": 135120, "pitch": 33, "duration": 10, "velocity": 94}, {"time": 135130, "pitch": 42, "duration": 10, "velocity": 78}, {"time": 135130, "pitch": 54, "duration": 10, "velocity": 81}, {"time": 135130, "pitch": 85, "duration": 10, "velocity": 82}, {"time": 135600, "pitch": 42, "duration": 10, "velocity": 60}, {"time": 135610, "pitch": 85, "duration": 10, "velocity": 75}, {"time": 135680, "pitch": 42, "duration": 10, "velocity": 53}, {"time": 135760, "pitch": 42, "duration": 10, "velocity": 67}, {"time": 135770, "pitch": 54, "duration": 10, "velocity": 87}, {"time": 135840, "pitch": 27, "duration": 10, "velocity": 114}, {"time": 135840, "pitch": 33, "duration": 10, "velocity": 107}, {"time": 135840, "pitch": 42, "duration": 10, "velocity": 99}, {"time": 135850, "pitch": 54, "duration": 10, "velocity": 89}, {"time": 136000, "pitch": 31, "duration": 10, "velocity": 79}, {"time": 136080, "pitch": 33, "duration": 10, "velocity": 100}, {"time": 136090, "pitch": 54, "duration": 10, "velocity": 78}, {"time": 136090, "pitch": 85, "duration": 10, "velocity": 82}, {"time": 136320, "pitch": 54, "duration": 10, "velocity": 52}, {"time": 136400, "pitch": 54, "duration": 10, "velocity": 43}, {"time": 136480, "pitch": 54, "duration": 10, "velocity": 66}, {"time": 136560, "pitch": 42, "duration": 10, "velocity": 53}, {"time": 136560, "pitch": 54, "duration": 10, "velocity": 88}, {"time": 136570, "pitch": 85, "duration": 10, "velocity": 78}, {"time": 136640, "pitch": 42, "duration": 10, "velocity": 51}, {"time": 136720, "pitch": 42, "duration": 10, "velocity": 73}, {"time": 136800, "pitch": 27, "duration": 10, "velocity": 119}, {"time": 136800, "pitch": 33, "duration": 10, "velocity": 107}, {"time": 136800, "pitch": 42, "duration": 10, "velocity": 92}, {"time": 136810, "pitch": 54, "duration": 10, "velocity": 73}, {"time": 136890, "pitch": 54, "duration": 10, "velocity": 31}, {"time": 136960, "pitch": 31, "duration": 10, "velocity": 76}, {"time": 136970, "pitch": 54, "duration": 10, "velocity": 82}, {"time": 137040, "pitch": 33, "duration": 10, "velocity": 96}, {"time": 137050, "pitch": 42, "duration": 10, "velocity": 71}, {"time": 137050, "pitch": 54, "duration": 10, "velocity": 80}, {"time": 137050, "pitch": 85, "duration": 10, "velocity": 82}, {"time": 137530, "pitch": 42, "duration": 10, "velocity": 38}, {"time": 137690, "pitch": 46, "duration": 10, "velocity": 81}, {"time": 137690, "pitch": 54, "duration": 10, "velocity": 84}, {"time": 137760, "pitch": 27, "duration": 10, "velocity": 119}, {"time": 137760, "pitch": 33, "duration": 10, "velocity": 100}, {"time": 137770, "pitch": 54, "duration": 10, "velocity": 88}, {"time": 137800, "pitch": 42, "duration": 10, "velocity": 21}, {"time": 137920, "pitch": 31, "duration": 10, "velocity": 81}, {"time": 138000, "pitch": 33, "duration": 10, "velocity": 96}, {"time": 138010, "pitch": 54, "duration": 10, "velocity": 72}, {"time": 138010, "pitch": 85, "duration": 10, "velocity": 79}, {"time": 138240, "pitch": 54, "duration": 10, "velocity": 47}, {"time": 138320, "pitch": 54, "duration": 10, "velocity": 42}, {"time": 138400, "pitch": 54, "duration": 10, "velocity": 61}, {"time": 138480, "pitch": 42, "duration": 10, "velocity": 56}, {"time": 138480, "pitch": 54, "duration": 10, "velocity": 87}, {"time": 138560, "pitch": 42, "duration": 10, "velocity": 52}, {"time": 138640, "pitch": 42, "duration": 10, "velocity": 75}, {"time": 138720, "pitch": 27, "duration": 10, "velocity": 116}, {"time": 138720, "pitch": 33, "duration": 10, "velocity": 102}, {"time": 138720, "pitch": 42, "duration": 10, "velocity": 99}, {"time": 138730, "pitch": 54, "duration": 10, "velocity": 74}, {"time": 138810, "pitch": 54, "duration": 10, "velocity": 37}, {"time": 138880, "pitch": 31, "duration": 10, "velocity": 76}, {"time": 138890, "pitch": 54, "duration": 10, "velocity": 87}, {"time": 138960, "pitch": 33, "duration": 10, "velocity": 101}, {"time": 138970, "pitch": 42, "duration": 10, "velocity": 75}, {"time": 138970, "pitch": 54, "duration": 10, "velocity": 75}, {"time": 138970, "pitch": 85, "duration": 10, "velocity": 80}, {"time": 139450, "pitch": 42, "duration": 10, "velocity": 38}, {"time": 139450, "pitch": 85, "duration": 10, "velocity": 75}, {"time": 139610, "pitch": 46, "duration": 10, "velocity": 79}, {"time": 139610, "pitch": 54, "duration": 10, "velocity": 90}, {"time": 139680, "pitch": 27, "duration": 10, "velocity": 120}, {"time": 139680, "pitch": 33, "duration": 10, "velocity": 102}, {"time": 139690, "pitch": 54, "duration": 10, "velocity": 89}, {"time": 139720, "pitch": 42, "duration": 10, "velocity": 21}, {"time": 139840, "pitch": 31, "duration": 10, "velocity": 82}, {"time": 139920, "pitch": 33, "duration": 10, "velocity": 101}, {"time": 139930, "pitch": 54, "duration": 10, "velocity": 77}, {"time": 139930, "pitch": 85, "duration": 10, "velocity": 83}, {"time": 140160, "pitch": 54, "duration": 10, "velocity": 47}, {"time": 140240, "pitch": 54, "duration": 10, "velocity": 48}, {"time": 140320, "pitch": 54, "duration": 10, "velocity": 64}, {"time": 140400, "pitch": 42, "duration": 10, "velocity": 61}, {"time": 140400, "pitch": 54, "duration": 10, "velocity": 91}, {"time": 140410, "pitch": 85, "duration": 10, "velocity": 83}, {"time": 140480, "pitch": 42, "duration": 10, "velocity": 52}, {"time": 140560, "pitch": 42, "duration": 10, "velocity": 72}, {"time": 140640, "pitch": 27, "duration": 10, "velocity": 114}, {"time": 140640, "pitch": 33, "duration": 10, "velocity": 104}, {"time": 140640, "pitch": 42, "duration": 10, "velocity": 99}, {"time": 140650, "pitch": 54, "duration": 10, "velocity": 77}, {"time": 140730, "pitch": 54, "duration": 10, "velocity": 30}, {"time": 140800, "pitch": 31, "duration": 10, "velocity": 79}, {"time": 140810, "pitch": 54, "duration": 10, "velocity": 82}, {"time": 140880, "pitch": 33, "duration": 10, "velocity": 94}, {"time": 140890, "pitch": 42, "duration": 10, "velocity": 72}, {"time": 140890, "pitch": 54, "duration": 10, "velocity": 75}, {"time": 140890, "pitch": 85, "duration": 10, "velocity": 80}, {"time": 141370, "pitch": 42, "duration": 10, "velocity": 34}, {"time": 141530, "pitch": 46, "duration": 10, "velocity": 79}, {"time": 141530, "pitch": 54, "duration": 10, "velocity": 85}, {"time": 141600, "pitch": 27, "duration": 10, "velocity": 115}, {"time": 141600, "pitch": 33, "duration": 10, "velocity": 102}, {"time": 141610, "pitch": 54, "duration": 10, "velocity": 85}, {"time": 141640, "pitch": 42, "duration": 10, "velocity": 21}, {"time": 141760, "pitch": 31, "duration": 10, "velocity": 78}, {"time": 141840, "pitch": 33, "duration": 10, "velocity": 99}, {"time": 141850, "pitch": 54, "duration": 10, "velocity": 75}, {"time": 141850, "pitch": 85, "duration": 10, "velocity": 83}, {"time": 142080, "pitch": 54, "duration": 10, "velocity": 51}, {"time": 142160, "pitch": 54, "duration": 10, "velocity": 42}, {"time": 142240, "pitch": 54, "duration": 10, "velocity": 58}, {"time": 142320, "pitch": 42, "duration": 10, "velocity": 55}, {"time": 142320, "pitch": 54, "duration": 10, "velocity": 84}, {"time": 142400, "pitch": 42, "duration": 10, "velocity": 54}, {"time": 142480, "pitch": 42, "duration": 10, "velocity": 71}, {"time": 142560, "pitch": 27, "duration": 10, "velocity": 115}, {"time": 142560, "pitch": 33, "duration": 10, "velocity": 103}, {"time": 142560, "pitch": 42, "duration": 10, "velocity": 95}, {"time": 142570, "pitch": 54, "duration": 10, "velocity": 72}, {"time": 142650, "pitch": 54, "duration": 10, "velocity": 37}, {"time": 142720, "pitch": 31, "duration": 10, "velocity": 79}, {"time": 142730, "pitch": 54, "duration": 10, "velocity": 79}, {"time": 142800, "pitch": 33, "duration": 10, "velocity": 97}, {"time": 142810, "pitch": 42, "duration": 10, "velocity": 75}, {"time": 142810, "pitch": 54, "duration": 10, "velocity": 79}, {"time": 142810, "pitch": 85, "duration": 10, "velocity": 75}, {"time": 143280, "pitch": 42, "duration": 10, "velocity": 58}, {"time": 143290, "pitch": 85, "duration": 10, "velocity": 82}, {"time": 143360, "pitch": 42, "duration": 10, "velocity": 55}, {"time": 143440, "pitch": 42, "duration": 10, "velocity": 70}, {"time": 143450, "pitch": 54, "duration": 10, "velocity": 88}, {"time": 143520, "pitch": 27, "duration": 10, "velocity": 113}, {"time": 143520, "pitch": 33, "duration": 10, "velocity": 107}, {"time": 143520, "pitch": 42, "duration": 10, "velocity": 97}, {"time": 143530, "pitch": 54, "duration": 10, "velocity": 89}, {"time": 143680, "pitch": 31, "duration": 10, "velocity": 79}, {"time": 143760, "pitch": 33, "duration": 10, "velocity": 101}, {"time": 143770, "pitch": 54, "duration": 10, "velocity": 80}, {"time": 143770, "pitch": 85, "duration": 10, "velocity": 76}, {"time": 144000, "pitch": 54, "duration": 10, "velocity": 47}, {"time": 144080, "pitch": 54, "duration": 10, "velocity": 46}, {"time": 144160, "pitch": 54, "duration": 10, "velocity": 64}, {"time": 144240, "pitch": 42, "duration": 10, "velocity": 54}, {"time": 144240, "pitch": 54, "duration": 10, "velocity": 92}, {"time": 144250, "pitch": 85, "duration": 10, "velocity": 78}, {"time": 144320, "pitch": 42, "duration": 10, "velocity": 47}, {"time": 144400, "pitch": 42, "duration": 10, "velocity": 71}, {"time": 144480, "pitch": 27, "duration": 10, "velocity": 115}, {"time": 144480, "pitch": 33, "duration": 10, "velocity": 102}, {"time": 144480, "pitch": 42, "duration": 10, "velocity": 91}, {"time": 144490, "pitch": 54, "duration": 10, "velocity": 77}, {"time": 144570, "pitch": 54, "duration": 10, "velocity": 36}, {"time": 144640, "pitch": 31, "duration": 10, "velocity": 83}, {"time": 144650, "pitch": 54, "duration": 10, "velocity": 85}, {"time": 144720, "pitch": 33, "duration": 10, "velocity": 100}, {"time": 144730, "pitch": 42, "duration": 10, "velocity": 72}, {"time": 144730, "pitch": 54, "duration": 10, "velocity": 81}, {"time": 144730, "pitch": 85, "duration": 10, "velocity": 80}, {"time": 145210, "pitch": 42, "duration": 10, "velocity": 32}, {"time": 145370, "pitch": 46, "duration": 10, "velocity": 79}, {"time": 145370, "pitch": 54, "duration": 10, "velocity": 87}, {"time": 145440, "pitch": 27, "duration": 10, "velocity": 120}, {"time": 145440, "pitch": 33, "duration": 10, "velocity": 108}, {"time": 145450, "pitch": 54, "duration": 10, "velocity": 90}, {"time": 145480, "pitch": 42, "duration": 10, "velocity": 21}, {"time": 145600, "pitch": 31, "duration": 10, "velocity": 76}, {"time": 145680, "pitch": 33, "duration": 10, "velocity": 102}, {"time": 145690, "pitch": 54, "duration": 10, "velocity": 78}, {"time": 145690, "pitch": 85, "duration": 10, "velocity": 77}, {"time": 145920, "pitch": 54, "duration": 10, "velocity": 54}, {"time": 146000, "pitch": 54, "duration": 10, "velocity": 50}, {"time": 146080, "pitch": 54, "duration": 10, "velocity": 60}, {"time": 146160, "pitch": 42, "duration": 10, "velocity": 57}, {"time": 146160, "pitch": 54, "duration": 10, "velocity": 86}, {"time": 146240, "pitch": 42, "duration": 10, "velocity": 48}, {"time": 146320, "pitch": 42, "duration": 10, "velocity": 69}, {"time": 146400, "pitch": 27, "duration": 10, "velocity": 120}, {"time": 146400, "pitch": 33, "duration": 10, "velocity": 104}, {"time": 146400, "pitch": 42, "duration": 10, "velocity": 93}, {"time": 146410, "pitch": 54, "duration": 10, "velocity": 77}, {"time": 146490, "pitch": 54, "duration": 10, "velocity": 35}, {"time": 146560, "pitch": 31, "duration": 10, "velocity": 85}, {"time": 146570, "pitch": 54, "duration": 10, "velocity": 84}, {"time": 146640, "pitch": 33, "duration": 10, "velocity": 95}, {"time": 146650, "pitch": 42, "duration": 10, "velocity": 71}, {"time": 146650, "pitch": 54, "duration": 10, "velocity": 80}, {"time": 146650, "pitch": 85, "duration": 10, "velocity": 76}, {"time": 147130, "pitch": 42, "duration": 10, "velocity": 39}, {"time": 147130, "pitch": 85, "duration": 10, "velocity": 82}, {"time": 147290, "pitch": 46, "duration": 10, "velocity": 84}, {"time": 147290, "pitch": 54, "duration": 10, "velocity": 87}, {"time": 147360, "pitch": 27, "duration": 10, "velocity": 116}, {"time": 147360, "pitch": 33, "duration": 10, "velocity": 106}, {"time": 147370, "pitch": 54, "duration": 10, "velocity": 84}, {"time": 147400, "pitch": 42, "duration": 10, "velocity": 21}, {"time": 147520, "pitch": 31, "duration": 10, "velocity": 76}, {"time": 147600, "pitch": 33, "duration": 10, "velocity": 98}, {"time": 147610, "pitch": 54, "duration": 10, "velocity": 74}, {"time": 147610, "pitch": 85, "duration": 10, "velocity": 84}, {"time": 147840, "pitch": 54, "duration": 10, "velocity": 52}, {"time": 147920, "pitch": 54, "duration": 10, "velocity": 44}, {"time": 148000, "pitch": 54, "duration": 10, "velocity": 65}, {"time": 148080, "pitch": 42, "duration": 10, "velocity": 57}, {"time": 148080, "pitch": 54, "duration": 10, "velocity": 89}, {"time": 148090, "pitch": 85, "duration": 10, "velocity": 83}, {"time": 148160, "pitch": 42, "duration": 10, "velocity": 48}, {"time": 148240, "pitch": 42, "duration": 10, "velocity": 67}, {"time": 148320, "pitch": 27, "duration": 10, "velocity": 115}, {"time": 148320, "pitch": 33, "duration": 10, "velocity": 109}, {"time": 148320, "pitch": 42, "duration": 10, "velocity": 93}, {"time": 148330, "pitch": 54, "duration": 10, "velocity": 75}, {"time": 148410, "pitch": 54, "duration": 10, "velocity": 37}, {"time": 148480, "pitch": 31, "duration": 10, "velocity": 83}, {"time": 148490, "pitch": 54, "duration": 10, "velocity": 82}, {"time": 148560, "pitch": 33, "duration": 10, "velocity": 101}, {"time": 148570, "pitch": 42, "duration": 10, "velocity": 76}, {"time": 148570, "pitch": 54, "duration": 10, "velocity": 81}, {"time": 148570, "pitch": 85, "duration": 10, "velocity": 80}, {"time": 149050, "pitch": 42, "duration": 10, "velocity": 39}, {"time": 149210, "pitch": 46, "duration": 10, "velocity": 80}, {"time": 149210, "pitch": 54, "duration": 10, "velocity": 86}, {"time": 149280, "pitch": 27, "duration": 10, "velocity": 113}, {"time": 149280, "pitch": 33, "duration": 10, "velocity": 101}, {"time": 149290, "pitch": 54, "duration": 10, "velocity": 83}, {"time": 149320, "pitch": 42, "duration": 10, "velocity": 21}, {"time": 149440, "pitch": 31, "duration": 10, "velocity": 85}, {"time": 149520, "pitch": 33, "duration": 10, "velocity": 95}, {"time": 149530, "pitch": 54, "duration": 10, "velocity": 79}, {"time": 149530, "pitch": 85, "duration": 10, "velocity": 78}, {"time": 149760, "pitch": 54, "duration": 10, "velocity": 51}, {"time": 149840, "pitch": 54, "duration": 10, "velocity": 50}, {"time": 149920, "pitch": 54, "duration": 10, "velocity": 58}, {"time": 150000, "pitch": 42, "duration": 10, "velocity": 57}, {"time": 150000, "pitch": 54, "duration": 10, "velocity": 83}, {"time": 150080, "pitch": 42, "duration": 10, "velocity": 51}, {"time": 150160, "pitch": 42, "duration": 10, "velocity": 66}, {"time": 150240, "pitch": 27, "duration": 10, "velocity": 114}, {"time": 150240, "pitch": 33, "duration": 10, "velocity": 106}, {"time": 150240, "pitch": 42, "duration": 10, "velocity": 98}, {"time": 150250, "pitch": 54, "duration": 10, "velocity": 72}, {"time": 150330, "pitch": 54, "duration": 10, "velocity": 38}, {"time": 150400, "pitch": 31, "duration": 10, "velocity": 80}, {"time": 150410, "pitch": 54, "duration": 10, "velocity": 83}, {"time": 150480, "pitch": 33, "duration": 10, "velocity": 94}, {"time": 150490, "pitch": 42, "duration": 10, "velocity": 78}, {"time": 150490, "pitch": 54, "duration": 10, "velocity": 81}, {"time": 150490, "pitch": 85, "duration": 10, "velocity": 82}, {"time": 150960, "pitch": 42, "duration": 10, "velocity": 60}, {"time": 150970, "pitch": 85, "duration": 10, "velocity": 75}, {"time": 151040, "pitch": 42, "duration": 10, "velocity": 53}, {"time": 151120, "pitch": 42, "duration": 10, "velocity": 67}, {"time": 151130, "pitch": 54, "duration": 10, "velocity": 87}, {"time": 151200, "pitch": 27, "duration": 10, "velocity": 114}, {"time": 151200, "pitch": 33, "duration": 10, "velocity": 107}, {"time": 151200, "pitch": 42, "duration": 10, "velocity": 99}, {"time": 151210, "pitch": 54, "duration": 10, "velocity": 89}, {"time": 151360, "pitch": 31, "duration": 10, "velocity": 79}, {"time": 151440, "pitch": 33, "duration": 10, "velocity": 100}, {"time": 151450, "pitch": 54, "duration": 10, "velocity": 78}, {"time": 151450, "pitch": 85, "duration": 10, "velocity": 82}, {"time": 151680, "pitch": 54, "duration": 10, "velocity": 52}, {"time": 151760, "pitch": 54, "duration": 10, "velocity": 43}, {"time": 151840, "pitch": 54, "duration": 10, "velocity": 66}, {"time": 151920, "pitch": 42, "duration": 10, "velocity": 53}, {"time": 151920, "pitch": 54, "duration": 10, "velocity": 88}, {"time": 151930, "pitch": 85, "duration": 10, "velocity": 78}, {"time": 152000, "pitch": 42, "duration": 10, "velocity": 51}, {"time": 152080, "pitch": 42, "duration": 10, "velocity": 73}, {"time": 152160, "pitch": 27, "duration": 10, "velocity": 116}, {"time": 152160, "pitch": 33, "duration": 10, "velocity": 100}, {"time": 152160, "pitch": 42, "duration": 10, "velocity": 99}, {"time": 152170, "pitch": 54, "duration": 10, "velocity": 79}, {"time": 152250, "pitch": 54, "duration": 10, "velocity": 35}, {"time": 152320, "pitch": 31, "duration": 10, "velocity": 78}, {"time": 152330, "pitch": 54, "duration": 10, "velocity": 79}, {"time": 152400, "pitch": 33, "duration": 10, "velocity": 98}, {"time": 152410, "pitch": 42, "duration": 10, "velocity": 75}, {"time": 152410, "pitch": 54, "duration": 10, "velocity": 82}, {"time": 152410, "pitch": 85, "duration": 10, "velocity": 80}, {"time": 152890, "pitch": 42, "duration": 10, "velocity": 35}, {"time": 153050, "pitch": 46, "duration": 10, "velocity": 79}, {"time": 153050, "pitch": 54, "duration": 10, "velocity": 87}, {"time": 153120, "pitch": 27, "duration": 10, "velocity": 115}, {"time": 153120, "pitch": 33, "duration": 10, "velocity": 107}, {"time": 153130, "pitch": 54, "duration": 10, "velocity": 84}, {"time": 153160, "pitch": 42, "duration": 10, "velocity": 21}, {"time": 153280, "pitch": 31, "duration": 10, "velocity": 78}, {"time": 153360, "pitch": 33, "duration": 10, "velocity": 94}, {"time": 153370, "pitch": 54, "duration": 10, "velocity": 75}, {"time": 153370, "pitch": 85, "duration": 10, "velocity": 79}, {"time": 153600, "pitch": 54, "duration": 10, "velocity": 55}, {"time": 153680, "pitch": 54, "duration": 10, "velocity": 50}, {"time": 153760, "pitch": 54, "duration": 10, "velocity": 63}, {"time": 153840, "pitch": 42, "duration": 10, "velocity": 56}, {"time": 153840, "pitch": 54, "duration": 10, "velocity": 84}, {"time": 153920, "pitch": 42, "duration": 10, "velocity": 54}, {"time": 154000, "pitch": 42, "duration": 10, "velocity": 70}, {"time": 154080, "pitch": 27, "duration": 10, "velocity": 119}, {"time": 154080, "pitch": 33, "duration": 10, "velocity": 100}, {"time": 154080, "pitch": 42, "duration": 10, "velocity": 93}, {"time": 154090, "pitch": 54, "duration": 10, "velocity": 76}, {"time": 154170, "pitch": 54, "duration": 10, "velocity": 34}, {"time": 154240, "pitch": 31, "duration": 10, "velocity": 85}, {"time": 154250, "pitch": 54, "duration": 10, "velocity": 83}, {"time": 154320, "pitch": 33, "duration": 10, "velocity": 97}, {"time": 154330, "pitch": 42, "duration": 10, "velocity": 77}, {"time": 154330, "pitch": 54, "duration": 10, "velocity": 79}, {"time": 154330, "pitch": 85, "duration": 10, "velocity": 75}, {"time": 154800, "pitch": 42, "duration": 10, "velocity": 52}, {"time": 154810, "pitch": 85, "duration": 10, "velocity": 84}, {"time": 154880, "pitch": 42, "duration": 10, "velocity": 52}, {"time": 154960, "pitch": 42, "duration": 10, "velocity": 66}, {"time": 154970, "pitch": 54, "duration": 10, "velocity": 88}, {"time": 155040, "pitch": 27, "duration": 10, "velocity": 112}, {"time": 155040, "pitch": 33, "duration": 10, "velocity": 100}, {"time": 155040, "pitch": 42, "duration": 10, "velocity": 90}, {"time": 155050, "pitch": 54, "duration": 10, "velocity": 86}, {"time": 155200, "pitch": 31, "duration": 10, "velocity": 85}, {"time": 155200, "pitch": 42, "duration": 10, "velocity": 108}, {"time": 155280, "pitch": 33, "duration": 10, "velocity": 96}, {"time": 155280, "pitch": 42, "duration": 10, "velocity": 90}, {"time": 155290, "pitch": 54, "duration": 10, "velocity": 77}, {"time": 155290, "pitch": 85, "duration": 10, "velocity": 78}, {"time": 155440, "pitch": 42, "duration": 10, "velocity": 108}, {"time": 155520, "pitch": 42, "duration": 10, "velocity": 96}, {"time": 155520, "pitch": 54, "duration": 10, "velocity": 49}, {"time": 155600, "pitch": 54, "duration": 10, "velocity": 41}, {"time": 155680, "pitch": 54, "duration": 10, "velocity": 67}, {"time": 155760, "pitch": 42, "duration": 10, "velocity": 60}, {"time": 155760, "pitch": 54, "duration": 10, "velocity": 83}, {"time": 155770, "pitch": 85, "duration": 10, "velocity": 78}, {"time": 155840, "pitch": 42, "duration": 10, "velocity": 55}, {"time": 155920, "pitch": 42, "duration": 10, "velocity": 69}, {"time": 156000, "pitch": 42, "duration": 10, "velocity": 96}, {"time": 157680, "pitch": 42, "duration": 10, "velocity": 75}, {"time": 157760, "pitch": 42, "duration": 10, "velocity": 67}, {"time": 157840, "pitch": 42, "duration": 10, "velocity": 73}, {"time": 157920, "pitch": 27, "duration": 10, "velocity": 112}, {"time": 157920, "pitch": 33, "duration": 10, "velocity": 107}, {"time": 157920, "pitch": 42, "duration": 10, "velocity": 96}, {"time": 157920, "pitch": 57, "duration": 10, "velocity": 120}, {"time": 157930, "pitch": 54, "duration": 10, "velocity": 84}, {"time": 158080, "pitch": 31, "duration": 10, "velocity": 80}, {"time": 158160, "pitch": 33, "duration": 10, "velocity": 99}, {"time": 158170, "pitch": 54, "duration": 10, "velocity": 74}, {"time": 158170, "pitch": 85, "duration": 10, "velocity": 78}, {"time": 158650, "pitch": 42, "duration": 10, "velocity": 33}, {"time": 158650, "pitch": 54, "duration": 10, "velocity": 53}, {"time": 158810, "pitch": 46, "duration": 10, "velocity": 86}, {"time": 158810, "pitch": 54, "duration": 10, "velocity": 100}, {"time": 158880, "pitch": 27, "duration": 10, "velocity": 112}, {"time": 158880, "pitch": 33, "duration": 10, "velocity": 106}, {"time": 158890, "pitch": 54, "duration": 10, "velocity": 87}, {"time": 158920, "pitch": 42, "duration": 10, "velocity": 21}, {"time": 159040, "pitch": 31, "duration": 10, "velocity": 82}, {"time": 159120, "pitch": 33, "duration": 10, "velocity": 97}, {"time": 159130, "pitch": 42, "duration": 10, "velocity": 79}, {"time": 159130, "pitch": 54, "duration": 10, "velocity": 76}, {"time": 159130, "pitch": 85, "duration": 10, "velocity": 77}, {"time": 159360, "pitch": 54, "duration": 10, "velocity": 52}, {"time": 159440, "pitch": 54, "duration": 10, "velocity": 45}, {"time": 159520, "pitch": 54, "duration": 10, "velocity": 60}, {"time": 159600, "pitch": 42, "duration": 10, "velocity": 56}, {"time": 159600, "pitch": 54, "duration": 10, "velocity": 87}, {"time": 159680, "pitch": 42, "duration": 10, "velocity": 53}, {"time": 159760, "pitch": 42, "duration": 10, "velocity": 72}, {"time": 159770, "pitch": 54, "duration": 10, "velocity": 86}, {"time": 159840, "pitch": 27, "duration": 10, "velocity": 121}, {"time": 159840, "pitch": 33, "duration": 10, "velocity": 102}, {"time": 159840, "pitch": 42, "duration": 10, "velocity": 99}, {"time": 159850, "pitch": 54, "duration": 10, "velocity": 89}, {"time": 160000, "pitch": 31, "duration": 10, "velocity": 78}, {"time": 160010, "pitch": 54, "duration": 10, "velocity": 84}, {"time": 160080, "pitch": 33, "duration": 10, "velocity": 96}, {"time": 160090, "pitch": 54, "duration": 10, "velocity": 79}, {"time": 160090, "pitch": 85, "duration": 10, "velocity": 79}, {"time": 160570, "pitch": 42, "duration": 10, "velocity": 34}, {"time": 160570, "pitch": 85, "duration": 10, "velocity": 84}, {"time": 160730, "pitch": 46, "duration": 10, "velocity": 85}, {"time": 160730, "pitch": 54, "duration": 10, "velocity": 83}, {"time": 160800, "pitch": 27, "duration": 10, "velocity": 113}, {"time": 160800, "pitch": 33, "duration": 10, "velocity": 109}, {"time": 160810, "pitch": 54, "duration": 10, "velocity": 83}, {"time": 160840, "pitch": 42, "duration": 10, "velocity": 21}, {"time": 160960, "pitch": 31, "duration": 10, "velocity": 84}, {"time": 161040, "pitch": 33, "duration": 10, "velocity": 103}, {"time": 161050, "pitch": 42, "duration": 10, "velocity": 74}, {"time": 161050, "pitch": 54, "duration": 10, "velocity": 72}, {"time": 161050, "pitch": 85, "duration": 10, "velocity": 82}, {"time": 161280, "pitch": 54, "duration": 10, "velocity": 46}, {"time": 161360, "pitch": 54, "duration": 10, "velocity": 46}, {"time": 161440, "pitch": 54, "duration": 10, "velocity": 67}, {"time": 161520, "pitch": 42, "duration": 10, "velocity": 52}, {"time": 161520, "pitch": 54, "duration": 10, "velocity": 85}, {"time": 161530, "pitch": 85, "duration": 10, "velocity": 75}, {"time": 161600, "pitch": 42, "duration": 10, "velocity": 48}, {"time": 161680, "pitch": 42, "duration": 10, "velocity": 71}, {"time": 161760, "pitch": 27, "duration": 10, "velocity": 117}, {"time": 161760, "pitch": 33, "duration": 10, "velocity": 107}, {"time": 161760, "pitch": 42, "duration": 10, "velocity": 93}, {"time": 161770, "pitch": 54, "duration": 10, "velocity": 74}, {"time": 161850, "pitch": 54, "duration": 10, "velocity": 36}, {"time": 161920, "pitch": 31, "duration": 10, "velocity": 79}, {"time": 161930, "pitch": 54, "duration": 10, "velocity": 83}, {"time": 162000, "pitch": 33, "duration": 10, "velocity": 103}, {"time": 162010, "pitch": 54, "duration": 10, "velocity": 76}, {"time": 162010, "pitch": 85, "duration": 10, "velocity": 79}, {"time": 162490, "pitch": 42, "duration": 10, "velocity": 38}, {"time": 162650, "pitch": 46, "duration": 10, "velocity": 87}, {"time": 162650, "pitch": 54, "duration": 10, "velocity": 82}, {"time": 162720, "pitch": 27, "duration": 10, "velocity": 116}, {"time": 162720, "pitch": 33, "duration": 10, "velocity": 107}, {"time": 162730, "pitch": 54, "duration": 10, "velocity": 91}, {"time": 162760, "pitch": 42, "duration": 10, "velocity": 21}, {"time": 162880, "pitch": 31, "duration": 10, "velocity": 76}, {"time": 162960, "pitch": 33, "duration": 10, "velocity": 97}, {"time": 162970, "pitch": 42, "duration": 10, "velocity": 70}, {"time": 162970, "pitch": 54, "duration": 10, "velocity": 79}, {"time": 162970, "pitch": 85, "duration": 10, "velocity": 77}, {"time": 163200, "pitch": 54, "duration": 10, "velocity": 54}, {"time": 163280, "pitch": 54, "duration": 10, "velocity": 46}, {"time": 163360, "pitch": 54, "duration": 10, "velocity": 61}, {"time": 163440, "pitch": 42, "duration": 10, "velocity": 52}, {"time": 163440, "pitch": 54, "duration": 10, "velocity": 89}, {"time": 163520, "pitch": 42, "duration": 10, "velocity": 51}, {"time": 163600, "pitch": 42, "duration": 10, "velocity": 73}, {"time": 163680, "pitch": 27, "duration": 10, "velocity": 120}, {"time": 163680, "pitch": 33, "duration": 10, "velocity": 107}, {"time": 163680, "pitch": 42, "duration": 10, "velocity": 93}, {"time": 163690, "pitch": 54, "duration": 10, "velocity": 78}, {"time": 163770, "pitch": 54, "duration": 10, "velocity": 29}, {"time": 163840, "pitch": 31, "duration": 10, "velocity": 76}, {"time": 163850, "pitch": 54, "duration": 10, "velocity": 79}, {"time": 163920, "pitch": 33, "duration": 10, "velocity": 96}, {"time": 163930, "pitch": 54, "duration": 10, "velocity": 79}, {"time": 163930, "pitch": 85, "duration": 10, "velocity": 81}, {"time": 164410, "pitch": 42, "duration": 10, "velocity": 33}, {"time": 164410, "pitch": 85, "duration": 10, "velocity": 80}, {"time": 164570, "pitch": 46, "duration": 10, "velocity": 85}, {"time": 164570, "pitch": 54, "duration": 10, "velocity": 89}, {"time": 164640, "pitch": 27, "duration": 10, "velocity": 118}, {"time": 164640, "pitch": 33, "duration": 10, "velocity": 101}, {"time": 164650, "pitch": 54, "duration": 10, "velocity": 87}, {"time": 164680, "pitch": 42, "duration": 10, "velocity": 21}, {"time": 164800, "pitch": 31, "duration": 10, "velocity": 82}, {"time": 164880, "pitch": 33, "duration": 10, "velocity": 103}, {"time": 164890, "pitch": 42, "duration": 10, "velocity": 72}, {"time": 164890, "pitch": 54, "duration": 10, "velocity": 71}, {"time": 164890, "pitch": 85, "duration": 10, "velocity": 84}, {"time": 165120, "pitch": 54, "duration": 10, "velocity": 47}, {"time": 165200, "pitch": 54, "duration": 10, "velocity": 41}, {"time": 165280, "pitch": 54, "duration": 10, "velocity": 62}, {"time": 165360, "pitch": 42, "duration": 10, "velocity": 58}, {"time": 165360, "pitch": 54, "duration": 10, "velocity": 87}, {"time": 165370, "pitch": 85, "duration": 10, "velocity": 80}, {"time": 165440, "pitch": 42, "duration": 10, "velocity": 47}, {"time": 165520, "pitch": 42, "duration": 10, "velocity": 71}, {"time": 165600, "pitch": 27, "duration": 10, "velocity": 116}, {"time": 165600, "pitch": 33, "duration": 10, "velocity": 107}, {"time": 165600, "pitch": 42, "duration": 10, "velocity": 91}, {"time": 165610, "pitch": 54, "duration": 10, "velocity": 78}, {"time": 165690, "pitch": 54, "duration": 10, "velocity": 32}, {"time": 165760, "pitch": 31, "duration": 10, "velocity": 85}, {"time": 165770, "pitch": 54, "duration": 10, "velocity": 85}, {"time": 165840, "pitch": 33, "duration": 10, "velocity": 102}, {"time": 165850, "pitch": 54, "duration": 10, "velocity": 78}, {"time": 165850, "pitch": 85, "duration": 10, "velocity": 75}, {"time": 166330, "pitch": 42, "duration": 10, "velocity": 38}, {"time": 166480, "pitch": 38, "duration": 10, "velocity": 84}, {"time": 166490, "pitch": 46, "duration": 10, "velocity": 86}, {"time": 166490, "pitch": 54, "duration": 10, "velocity": 82}, {"time": 166560, "pitch": 27, "duration": 10, "velocity": 114}, {"time": 166560, "pitch": 33, "duration": 10, "velocity": 103}, {"time": 166560, "pitch": 56, "duration": 10, "velocity": 127}, {"time": 166570, "pitch": 54, "duration": 10, "velocity": 87}, {"time": 166600, "pitch": 42, "duration": 10, "velocity": 21}, {"time": 166720, "pitch": 31, "duration": 10, "velocity": 76}, {"time": 166720, "pitch": 38, "duration": 10, "velocity": 42}, {"time": 166800, "pitch": 33, "duration": 10, "velocity": 94}, {"time": 166800, "pitch": 38, "duration": 10, "velocity": 78}, {"time": 166810, "pitch": 42, "duration": 10, "velocity": 77}, {"time": 166810, "pitch": 54, "duration": 10, "velocity": 79}, {"time": 166810, "pitch": 85, "duration": 10, "velocity": 84}, {"time": 166960, "pitch": 56, "duration": 10, "velocity": 125}, {"time": 167040, "pitch": 54, "duration": 10, "velocity": 53}, {"time": 167120, "pitch": 54, "duration": 10, "velocity": 44}, {"time": 167200, "pitch": 54, "duration": 10, "velocity": 58}, {"time": 167280, "pitch": 42, "duration": 10, "velocity": 57}, {"time": 167280, "pitch": 54, "duration": 10, "velocity": 91}, {"time": 167300, "pitch": 56, "duration": 10, "velocity": 126}, {"time": 167360, "pitch": 42, "duration": 10, "velocity": 51}, {"time": 167440, "pitch": 42, "duration": 10, "velocity": 69}, {"time": 167520, "pitch": 27, "duration": 10, "velocity": 121}, {"time": 167520, "pitch": 33, "duration": 10, "velocity": 109}, {"time": 167520, "pitch": 42, "duration": 10, "velocity": 98}, {"time": 167530, "pitch": 54, "duration": 10, "velocity": 75}, {"time": 167610, "pitch": 54, "duration": 10, "velocity": 38}, {"time": 167680, "pitch": 31, "duration": 10, "velocity": 83}, {"time": 167690, "pitch": 54, "duration": 10, "velocity": 88}, {"time": 167760, "pitch": 33, "duration": 10, "velocity": 95}, {"time": 167770, "pitch": 54, "duration": 10, "velocity": 79}, {"time": 167770, "pitch": 85, "duration": 10, "velocity": 81}, {"time": 168250, "pitch": 42, "duration": 10, "velocity": 37}, {"time": 168250, "pitch": 85, "duration": 10, "velocity": 82}, {"time": 168400, "pitch": 38, "duration": 10, "velocity": 86}, {"time": 168410, "pitch": 46, "duration": 10, "velocity": 81}, {"time": 168410, "pitch": 54, "duration": 10, "velocity": 81}, {"time": 168480, "pitch": 27, "duration": 10, "velocity": 120}, {"time": 168480, "pitch": 33, "duration": 10, "velocity": 103}, {"time": 168490, "pitch": 54, "duration": 10, "velocity": 84}, {"time": 168520, "pitch": 42, "duration": 10, "velocity": 21}, {"time": 168640, "pitch": 31, "duration": 10, "velocity": 79}, {"time": 168640, "pitch": 38, "duration": 10, "velocity": 44}, {"time": 168720, "pitch": 33, "duration": 10, "velocity": 101}, {"time": 168720, "pitch": 38, "duration": 10, "velocity": 72}, {"time": 168730, "pitch": 42, "duration": 10, "velocity": 77}, {"time": 168730, "pitch": 54, "duration": 10, "velocity": 79}, {"time": 168730, "pitch": 85, "duration": 10, "velocity": 81}, {"time": 168960, "pitch": 54, "duration": 10, "velocity": 54}, {"time": 169040, "pitch": 54, "duration": 10, "velocity": 50}, {"time": 169120, "pitch": 54, "duration": 10, "velocity": 60}, {"time": 169200, "pitch": 42, "duration": 10, "velocity": 55}, {"time": 169200, "pitch": 54, "duration": 10, "velocity": 83}, {"time": 169210, "pitch": 85, "duration": 10, "velocity": 83}, {"time": 169280, "pitch": 42, "duration": 10, "velocity": 54}, {"time": 169360, "pitch": 42, "duration": 10, "velocity": 73}, {"time": 169440, "pitch": 27, "duration": 10, "velocity": 120}, {"time": 169440, "pitch": 33, "duration": 10, "velocity": 100}, {"time": 169440, "pitch": 42, "duration": 10, "velocity": 95}, {"time": 169450, "pitch": 54, "duration": 10, "velocity": 77}, {"time": 169530, "pitch": 54, "duration": 10, "velocity": 37}, {"time": 169600, "pitch": 31, "duration": 10, "velocity": 83}, {"time": 169610, "pitch": 54, "duration": 10, "velocity": 82}, {"time": 169680, "pitch": 33, "duration": 10, "velocity": 100}, {"time": 169690, "pitch": 54, "duration": 10, "velocity": 83}, {"time": 169690, "pitch": 85, "duration": 10, "velocity": 79}, {"time": 170170, "pitch": 42, "duration": 10, "velocity": 39}, {"time": 170320, "pitch": 38, "duration": 10, "velocity": 83}, {"time": 170330, "pitch": 46, "duration": 10, "velocity": 79}, {"time": 170330, "pitch": 54, "duration": 10, "velocity": 86}, {"time": 170400, "pitch": 27, "duration": 10, "velocity": 121}, {"time": 170400, "pitch": 33, "duration": 10, "velocity": 105}, {"time": 170400, "pitch": 56, "duration": 10, "velocity": 120}, {"time": 170410, "pitch": 54, "duration": 10, "velocity": 89}, {"time": 170440, "pitch": 42, "duration": 10, "velocity": 21}, {"time": 170560, "pitch": 31, "duration": 10, "velocity": 77}, {"time": 170560, "pitch": 38, "duration": 10, "velocity": 46}, {"time": 170640, "pitch": 33, "duration": 10, "velocity": 94}, {"time": 170640, "pitch": 38, "duration": 10, "velocity": 77}, {"time": 170650, "pitch": 42, "duration": 10, "velocity": 71}, {"time": 170650, "pitch": 54, "duration": 10, "velocity": 80}, {"time": 170650, "pitch": 85, "duration": 10, "velocity": 76}, {"time": 170800, "pitch": 56, "duration": 10, "velocity": 125}, {"time": 170880, "pitch": 54, "duration": 10, "velocity": 49}, {"time": 170960, "pitch": 54, "duration": 10, "velocity": 44}, {"time": 171040, "pitch": 54, "duration": 10, "velocity": 63}, {"time": 171120, "pitch": 42, "duration": 10, "velocity": 58}, {"time": 171120, "pitch": 54, "duration": 10, "velocity": 89}, {"time": 171140, "pitch": 56, "duration": 10, "velocity": 123}, {"time": 171200, "pitch": 42, "duration": 10, "velocity": 54}, {"time": 171280, "pitch": 42, "duration": 10, "velocity": 68}, {"time": 171360, "pitch": 27, "duration": 10, "velocity": 112}, {"time": 171360, "pitch": 33, "duration": 10, "velocity": 107}, {"time": 171360, "pitch": 42, "duration": 10, "velocity": 99}, {"time": 171370, "pitch": 54, "duration": 10, "velocity": 73}, {"time": 171450, "pitch": 54, "duration": 10, "velocity": 31}, {"time": 171520, "pitch": 31, "duration": 10, "velocity": 85}, {"time": 171530, "pitch": 54, "duration": 10, "velocity": 82}, {"time": 171600, "pitch": 33, "duration": 10, "velocity": 99}, {"time": 171610, "pitch": 54, "duration": 10, "velocity": 81}, {"time": 172560, "pitch": 33, "duration": 10, "velocity": 102}, {"time": 172560, "pitch": 38, "duration": 10, "velocity": 71}, {"time": 172570, "pitch": 54, "duration": 10, "velocity": 71}, {"time": 172800, "pitch": 54, "duration": 10, "velocity": 46}, {"time": 172880, "pitch": 54, "duration": 10, "velocity": 41}, {"time": 172960, "pitch": 54, "duration": 10, "velocity": 65}, {"time": 173040, "pitch": 42, "duration": 10, "velocity": 59}, {"time": 173040, "pitch": 54, "duration": 10, "velocity": 88}, {"time": 173120, "pitch": 42, "duration": 10, "velocity": 52}, {"time": 173200, "pitch": 42, "duration": 10, "velocity": 73}, {"time": 173280, "pitch": 42, "duration": 10, "velocity": 96}], "annotations": [{"time": 258, "annotation": {"number": 7, "value": 110}, "group": "control_change"}, {"time": 277, "annotation": {"number": 11, "value": 110}, "group": "control_change"}, {"time": 295, "annotation": {"number": 10, "value": 64}, "group": "control_change"}, {"time": 314, "annotation": {"number": 91, "value": 30}, "group": "control_change"}, {"time": 332, "annotation": {"number": 93, "value": 0}, "group": "control_change"}, {"time": 351, "annotation": {"number": 94, "value": 0}, "group": "control_change"}, {"time": 369, "annotation": {"number": 101, "value": 0}, "group": "control_change"}, {"time": 388, "annotation": {"number": 100, "value": 0}, "group": "control_change"}, {"time": 406, "annotation": {"number": 6, "value": 12}, "group": "control_change"}, {"time": 425, "annotation": {"number": 101, "value": 127}, "group": "control_change"}, {"time": 443, "annotation": {"number": 100, "value": 127}, "group": "control_change"}]}, {"program": 0, "is_drum": false, "name": "GLOCKEN", "annotations": [{"time": 240, "annotation": {"number": 0, "value": 0}, "group": "control_change"}, {"time": 240, "annotation": {"number": 32, "value": 0}, "group": "control_change"}]}, {"program": 98, "is_drum": false, "name": "GLOCKEN", "notes": [{"time": 480, "pitch": 87, "duration": 240, "velocity": 104}, {"time": 960, "pitch": 84, "duration": 240, "velocity": 104}, {"time": 1440, "pitch": 87, "duration": 240, "velocity": 104}, {"time": 1920, "pitch": 89, "duration": 240, "velocity": 104}, {"time": 2400, "pitch": 86, "duration": 240, "velocity": 104}, {"time": 2880, "pitch": 86, "duration": 480, "velocity": 104}, {"time": 3840, "pitch": 79, "duration": 240, "velocity": 104}, {"time": 4080, "pitch": 86, "duration": 240, "velocity": 104}, {"time": 4320, "pitch": 84, "duration": 1347, "velocity": 127}, {"time": 6240, "pitch": 92, "duration": 240, "velocity": 93}, {"time": 6720, "pitch": 91, "duration": 240, "velocity": 99}, {"time": 7200, "pitch": 89, "duration": 240, "velocity": 93}, {"time": 7680, "pitch": 91, "duration": 240, "velocity": 97}, {"time": 8160, "pitch": 87, "duration": 240, "velocity": 104}, {"time": 8640, "pitch": 84, "duration": 240, "velocity": 104}, {"time": 9120, "pitch": 87, "duration": 240, "velocity": 104}, {"time": 9600, "pitch": 89, "duration": 240, "velocity": 104}, {"time": 10080, "pitch": 86, "duration": 240, "velocity": 104}, {"time": 10560, "pitch": 86, "duration": 480, "velocity": 104}, {"time": 11520, "pitch": 79, "duration": 240, "velocity": 104}, {"time": 11760, "pitch": 86, "duration": 240, "velocity": 104}, {"time": 12000, "pitch": 84, "duration": 1347, "velocity": 127}, {"time": 13920, "pitch": 92, "duration": 240, "velocity": 93}, {"time": 14400, "pitch": 91, "duration": 240, "velocity": 99}, {"time": 14880, "pitch": 89, "duration": 240, "velocity": 93}, {"time": 15360, "pitch": 91, "duration": 240, "velocity": 97}, {"time": 15840, "pitch": 87, "duration": 240, "velocity": 104}, {"time": 16320, "pitch": 84, "duration": 240, "velocity": 104}, {"time": 16800, "pitch": 87, "duration": 240, "velocity": 104}, {"time": 17280, "pitch": 89, "duration": 240, "velocity": 104}, {"time": 17760, "pitch": 86, "duration": 240, "velocity": 104}, {"time": 18240, "pitch": 86, "duration": 480, "velocity": 104}, {"time": 19200, "pitch": 79, "duration": 240, "velocity": 104}, {"time": 19440, "pitch": 86, "duration": 240, "velocity": 104}, {"time": 19680, "pitch": 84, "duration": 1347, "velocity": 127}, {"time": 69600, "pitch": 72, "duration": 280, "velocity": 119}, {"time": 70080, "pitch": 74, "duration": 280, "velocity": 113}, {"time": 70560, "pitch": 75, "duration": 280, "velocity": 116}, {"time": 71040, "pitch": 77, "duration": 280, "velocity": 116}, {"time": 71520, "pitch": 75, "duration": 130, "velocity": 127}, {"time": 71760, "pitch": 77, "duration": 120, "velocity": 127}, {"time": 72000, "pitch": 79, "duration": 120, "velocity": 127}, {"time": 72240, "pitch": 80, "duration": 110, "velocity": 122}, {"time": 72480, "pitch": 82, "duration": 250, "velocity": 120}, {"time": 90720, "pitch": 87, "duration": 240, "velocity": 104}, {"time": 91200, "pitch": 84, "duration": 240, "velocity": 104}, {"time": 91680, "pitch": 87, "duration": 240, "velocity": 104}, {"time": 92160, "pitch": 89, "duration": 240, "velocity": 104}, {"time": 92640, "pitch": 86, "duration": 240, "velocity": 104}, {"time": 93120, "pitch": 86, "duration": 480, "velocity": 104}, {"time": 94080, "pitch": 79, "duration": 240, "velocity": 104}, {"time": 94320, "pitch": 86, "duration": 240, "velocity": 104}, {"time": 94560, "pitch": 84, "duration": 1347, "velocity": 127}, {"time": 96480, "pitch": 92, "duration": 240, "velocity": 93}, {"time": 96960, "pitch": 91, "duration": 240, "velocity": 99}, {"time": 97440, "pitch": 89, "duration": 240, "velocity": 93}, {"time": 97920, "pitch": 91, "duration": 240, "velocity": 97}, {"time": 98400, "pitch": 87, "duration": 240, "velocity": 104}, {"time": 98880, "pitch": 84, "duration": 240, "velocity": 104}, {"time": 99360, "pitch": 87, "duration": 240, "velocity": 104}, {"time": 99840, "pitch": 89, "duration": 240, "velocity": 104}, {"time": 100320, "pitch": 86, "duration": 240, "velocity": 104}, {"time": 100800, "pitch": 86, "duration": 480, "velocity": 104}, {"time": 101760, "pitch": 79, "duration": 240, "velocity": 104}, {"time": 102000, "pitch": 86, "duration": 240, "velocity": 104}, {"time": 102240, "pitch": 84, "duration": 1347, "velocity": 127}, {"time": 152160, "pitch": 72, "duration": 280, "velocity": 119}, {"time": 152640, "pitch": 74, "duration": 280, "velocity": 113}, {"time": 153120, "pitch": 75, "duration": 280, "velocity": 116}, {"time": 153600, "pitch": 77, "duration": 280, "velocity": 116}, {"time": 154080, "pitch": 75, "duration": 130, "velocity": 127}, {"time": 154320, "pitch": 77, "duration": 120, "velocity": 127}, {"time": 154560, "pitch": 79, "duration": 120, "velocity": 127}, {"time": 154800, "pitch": 80, "duration": 110, "velocity": 122}, {"time": 155040, "pitch": 82, "duration": 250, "velocity": 120}, {"time": 157920, "pitch": 87, "duration": 240, "velocity": 104}, {"time": 158400, "pitch": 84, "duration": 240, "velocity": 104}, {"time": 158880, "pitch": 87, "duration": 240, "velocity": 104}, {"time": 159360, "pitch": 89, "duration": 240, "velocity": 104}, {"time": 159840, "pitch": 86, "duration": 240, "velocity": 104}, {"time": 160320, "pitch": 86, "duration": 480, "velocity": 104}, {"time": 161280, "pitch": 79, "duration": 240, "velocity": 104}, {"time": 161520, "pitch": 86, "duration": 240, "velocity": 104}, {"time": 161760, "pitch": 84, "duration": 1347, "velocity": 127}, {"time": 163680, "pitch": 92, "duration": 240, "velocity": 93}, {"time": 164160, "pitch": 91, "duration": 240, "velocity": 99}, {"time": 164640, "pitch": 89, "duration": 240, "velocity": 93}, {"time": 165120, "pitch": 91, "duration": 240, "velocity": 97}, {"time": 165600, "pitch": 87, "duration": 240, "velocity": 104}, {"time": 166080, "pitch": 84, "duration": 240, "velocity": 104}, {"time": 166560, "pitch": 87, "duration": 240, "velocity": 104}, {"time": 167040, "pitch": 89, "duration": 240, "velocity": 104}, {"time": 167520, "pitch": 86, "duration": 240, "velocity": 104}, {"time": 168000, "pitch": 86, "duration": 480, "velocity": 104}, {"time": 168960, "pitch": 79, "duration": 240, "velocity": 104}, {"time": 169200, "pitch": 86, "duration": 240, "velocity": 104}, {"time": 169440, "pitch": 84, "duration": 1347, "velocity": 127}], "annotations": [{"time": 258, "annotation": {"number": 7, "value": 100}, "group": "control_change"}, {"time": 277, "annotation": {"number": 11, "value": 100}, "group": "control_change"}, {"time": 295, "annotation": {"number": 10, "value": 4}, "group": "control_change"}, {"time": 314, "annotation": {"number": 91, "value": 50}, "group": "control_change"}, {"time": 332, "annotation": {"number": 93, "value": 20}, "group": "control_change"}, {"time": 351, "annotation": {"number": 94, "value": 0}, "group": "control_change"}, {"time": 369, "annotation": {"number": 101, "value": 0}, "group": "control_change"}, {"time": 388, "annotation": {"number": 100, "value": 0}, "group": "control_change"}, {"time": 406, "annotation": {"number": 6, "value": 12}, "group": "control_change"}, {"time": 425, "annotation": {"number": 101, "value": 127}, "group": "control_change"}, {"time": 443, "annotation": {"number": 100, "value": 127}, "group": "control_change"}]}, {"program": 0, "is_drum": false, "name": "MUTE GT 2", "annotations": [{"time": 240, "annotation": {"number": 0, "value": 0}, "group": "control_change"}, {"time": 240, "annotation": {"number": 32, "value": 0}, "group": "control_change"}]}, {"program": 28, "is_drum": false, "name": "MUTE GT 2", "notes": [{"time": 19930, "pitch": 72, "duration": 120, "velocity": 123}, {"time": 20090, "pitch": 67, "duration": 70, "velocity": 98}, {"time": 20170, "pitch": 65, "duration": 140, "velocity": 112}, {"time": 20410, "pitch": 67, "duration": 90, "velocity": 111}, {"time": 20650, "pitch": 72, "duration": 150, "velocity": 118}, {"time": 20810, "pitch": 67, "duration": 70, "velocity": 95}, {"time": 20890, "pitch": 65, "duration": 150, "velocity": 101}, {"time": 24730, "pitch": 72, "duration": 120, "velocity": 124}, {"time": 24890, "pitch": 67, "duration": 70, "velocity": 95}, {"time": 24970, "pitch": 65, "duration": 140, "velocity": 113}, {"time": 25210, "pitch": 67, "duration": 90, "velocity": 109}, {"time": 25450, "pitch": 72, "duration": 150, "velocity": 111}, {"time": 25610, "pitch": 67, "duration": 70, "velocity": 92}, {"time": 25690, "pitch": 65, "duration": 150, "velocity": 108}, {"time": 28570, "pitch": 72, "duration": 120, "velocity": 124}, {"time": 28730, "pitch": 67, "duration": 70, "velocity": 95}, {"time": 28810, "pitch": 65, "duration": 140, "velocity": 113}, {"time": 29050, "pitch": 67, "duration": 90, "velocity": 109}, {"time": 29290, "pitch": 72, "duration": 150, "velocity": 111}, {"time": 29450, "pitch": 67, "duration": 70, "velocity": 92}, {"time": 29530, "pitch": 65, "duration": 150, "velocity": 108}, {"time": 47770, "pitch": 72, "duration": 120, "velocity": 124}, {"time": 47930, "pitch": 67, "duration": 70, "velocity": 95}, {"time": 48010, "pitch": 65, "duration": 140, "velocity": 113}, {"time": 48250, "pitch": 67, "duration": 90, "velocity": 109}, {"time": 48490, "pitch": 72, "duration": 150, "velocity": 111}, {"time": 48650, "pitch": 67, "duration": 70, "velocity": 92}, {"time": 48730, "pitch": 65, "duration": 150, "velocity": 108}, {"time": 51610, "pitch": 72, "duration": 120, "velocity": 124}, {"time": 51770, "pitch": 67, "duration": 70, "velocity": 95}, {"time": 51850, "pitch": 65, "duration": 140, "velocity": 113}, {"time": 52090, "pitch": 67, "duration": 90, "velocity": 109}, {"time": 52330, "pitch": 72, "duration": 150, "velocity": 111}, {"time": 52490, "pitch": 67, "duration": 70, "velocity": 92}, {"time": 52570, "pitch": 65, "duration": 150, "velocity": 108}, {"time": 55450, "pitch": 72, "duration": 120, "velocity": 124}, {"time": 55610, "pitch": 67, "duration": 70, "velocity": 95}, {"time": 55690, "pitch": 65, "duration": 140, "velocity": 113}, {"time": 55930, "pitch": 67, "duration": 90, "velocity": 109}, {"time": 56170, "pitch": 72, "duration": 150, "velocity": 111}, {"time": 56330, "pitch": 67, "duration": 70, "velocity": 92}, {"time": 56410, "pitch": 65, "duration": 150, "velocity": 108}, {"time": 59290, "pitch": 72, "duration": 120, "velocity": 124}, {"time": 59450, "pitch": 67, "duration": 70, "velocity": 95}, {"time": 59530, "pitch": 65, "duration": 140, "velocity": 113}, {"time": 59770, "pitch": 67, "duration": 90, "velocity": 109}, {"time": 60010, "pitch": 72, "duration": 150, "velocity": 111}, {"time": 60170, "pitch": 67, "duration": 70, "velocity": 92}, {"time": 60250, "pitch": 65, "duration": 150, "velocity": 108}, {"time": 63130, "pitch": 72, "duration": 120, "velocity": 124}, {"time": 63290, "pitch": 67, "duration": 70, "velocity": 95}, {"time": 63370, "pitch": 65, "duration": 140, "velocity": 113}, {"time": 63610, "pitch": 67, "duration": 90, "velocity": 109}, {"time": 63850, "pitch": 72, "duration": 150, "velocity": 111}, {"time": 64010, "pitch": 67, "duration": 70, "velocity": 92}, {"time": 64090, "pitch": 65, "duration": 150, "velocity": 108}, {"time": 66970, "pitch": 72, "duration": 120, "velocity": 124}, {"time": 67130, "pitch": 67, "duration": 70, "velocity": 95}, {"time": 67210, "pitch": 65, "duration": 140, "velocity": 113}, {"time": 67450, "pitch": 67, "duration": 90, "velocity": 109}, {"time": 67690, "pitch": 72, "duration": 150, "velocity": 111}, {"time": 67850, "pitch": 67, "duration": 70, "velocity": 92}, {"time": 67930, "pitch": 65, "duration": 150, "velocity": 108}, {"time": 72720, "pitch": 94, "duration": 80, "velocity": 101}, {"time": 72800, "pitch": 89, "duration": 80, "velocity": 102}, {"time": 72880, "pitch": 87, "duration": 80, "velocity": 100}, {"time": 72960, "pitch": 82, "duration": 80, "velocity": 98}, {"time": 73040, "pitch": 77, "duration": 80, "velocity": 91}, {"time": 73120, "pitch": 75, "duration": 80, "velocity": 85}, {"time": 73200, "pitch": 70, "duration": 80, "velocity": 84}, {"time": 73280, "pitch": 65, "duration": 80, "velocity": 83}, {"time": 73360, "pitch": 63, "duration": 80, "velocity": 76}, {"time": 102490, "pitch": 72, "duration": 120, "velocity": 123}, {"time": 102650, "pitch": 67, "duration": 70, "velocity": 98}, {"time": 102730, "pitch": 65, "duration": 140, "velocity": 112}, {"time": 102970, "pitch": 67, "duration": 90, "velocity": 111}, {"time": 103210, "pitch": 72, "duration": 150, "velocity": 118}, {"time": 103370, "pitch": 67, "duration": 70, "velocity": 95}, {"time": 103450, "pitch": 65, "duration": 150, "velocity": 101}, {"time": 107290, "pitch": 72, "duration": 120, "velocity": 124}, {"time": 107450, "pitch": 67, "duration": 70, "velocity": 95}, {"time": 107530, "pitch": 65, "duration": 140, "velocity": 113}, {"time": 107770, "pitch": 67, "duration": 90, "velocity": 109}, {"time": 108010, "pitch": 72, "duration": 150, "velocity": 111}, {"time": 108170, "pitch": 67, "duration": 70, "velocity": 92}, {"time": 108250, "pitch": 65, "duration": 150, "velocity": 108}, {"time": 111130, "pitch": 72, "duration": 120, "velocity": 124}, {"time": 111290, "pitch": 67, "duration": 70, "velocity": 95}, {"time": 111370, "pitch": 65, "duration": 140, "velocity": 113}, {"time": 111610, "pitch": 67, "duration": 90, "velocity": 109}, {"time": 111850, "pitch": 72, "duration": 150, "velocity": 111}, {"time": 112010, "pitch": 67, "duration": 70, "velocity": 92}, {"time": 112090, "pitch": 65, "duration": 150, "velocity": 108}, {"time": 130330, "pitch": 72, "duration": 120, "velocity": 124}, {"time": 130490, "pitch": 67, "duration": 70, "velocity": 95}, {"time": 130570, "pitch": 65, "duration": 140, "velocity": 113}, {"time": 130810, "pitch": 67, "duration": 90, "velocity": 109}, {"time": 131050, "pitch": 72, "duration": 150, "velocity": 111}, {"time": 131210, "pitch": 67, "duration": 70, "velocity": 92}, {"time": 131290, "pitch": 65, "duration": 150, "velocity": 108}, {"time": 134170, "pitch": 72, "duration": 120, "velocity": 124}, {"time": 134330, "pitch": 67, "duration": 70, "velocity": 95}, {"time": 134410, "pitch": 65, "duration": 140, "velocity": 113}, {"time": 134650, "pitch": 67, "duration": 90, "velocity": 109}, {"time": 134890, "pitch": 72, "duration": 150, "velocity": 111}, {"time": 135050, "pitch": 67, "duration": 70, "velocity": 92}, {"time": 135130, "pitch": 65, "duration": 150, "velocity": 108}, {"time": 138010, "pitch": 72, "duration": 120, "velocity": 124}, {"time": 138170, "pitch": 67, "duration": 70, "velocity": 95}, {"time": 138250, "pitch": 65, "duration": 140, "velocity": 113}, {"time": 138490, "pitch": 67, "duration": 90, "velocity": 109}, {"time": 138730, "pitch": 72, "duration": 150, "velocity": 111}, {"time": 138890, "pitch": 67, "duration": 70, "velocity": 92}, {"time": 138970, "pitch": 65, "duration": 150, "velocity": 108}, {"time": 141850, "pitch": 72, "duration": 120, "velocity": 124}, {"time": 142010, "pitch": 67, "duration": 70, "velocity": 95}, {"time": 142090, "pitch": 65, "duration": 140, "velocity": 113}, {"time": 142330, "pitch": 67, "duration": 90, "velocity": 109}, {"time": 142570, "pitch": 72, "duration": 150, "velocity": 111}, {"time": 142730, "pitch": 67, "duration": 70, "velocity": 92}, {"time": 142810, "pitch": 65, "duration": 150, "velocity": 108}, {"time": 145690, "pitch": 72, "duration": 120, "velocity": 124}, {"time": 145850, "pitch": 67, "duration": 70, "velocity": 95}, {"time": 145930, "pitch": 65, "duration": 140, "velocity": 113}, {"time": 146170, "pitch": 67, "duration": 90, "velocity": 109}, {"time": 146410, "pitch": 72, "duration": 150, "velocity": 111}, {"time": 146570, "pitch": 67, "duration": 70, "velocity": 92}, {"time": 146650, "pitch": 65, "duration": 150, "velocity": 108}, {"time": 149530, "pitch": 72, "duration": 120, "velocity": 124}, {"time": 149690, "pitch": 67, "duration": 70, "velocity": 95}, {"time": 149770, "pitch": 65, "duration": 140, "velocity": 113}, {"time": 150010, "pitch": 67, "duration": 90, "velocity": 109}, {"time": 150250, "pitch": 72, "duration": 150, "velocity": 111}, {"time": 150410, "pitch": 67, "duration": 70, "velocity": 92}, {"time": 150490, "pitch": 65, "duration": 150, "velocity": 108}, {"time": 155280, "pitch": 94, "duration": 80, "velocity": 101}, {"time": 155360, "pitch": 89, "duration": 80, "velocity": 102}, {"time": 155440, "pitch": 87, "duration": 80, "velocity": 100}, {"time": 155520, "pitch": 82, "duration": 80, "velocity": 98}, {"time": 155600, "pitch": 77, "duration": 80, "velocity": 91}, {"time": 155680, "pitch": 75, "duration": 80, "velocity": 85}, {"time": 155760, "pitch": 70, "duration": 80, "velocity": 84}, {"time": 155840, "pitch": 65, "duration": 80, "velocity": 83}, {"time": 155920, "pitch": 63, "duration": 80, "velocity": 76}, {"time": 169690, "pitch": 72, "duration": 120, "velocity": 123}, {"time": 169850, "pitch": 67, "duration": 70, "velocity": 98}, {"time": 169930, "pitch": 65, "duration": 140, "velocity": 112}, {"time": 170170, "pitch": 67, "duration": 90, "velocity": 111}, {"time": 170410, "pitch": 72, "duration": 150, "velocity": 118}, {"time": 170570, "pitch": 67, "duration": 70, "velocity": 95}, {"time": 170650, "pitch": 65, "duration": 150, "velocity": 101}], "annotations": [{"time": 258, "annotation": {"number": 7, "value": 110}, "group": "control_change"}, {"time": 277, "annotation": {"number": 11, "value": 110}, "group": "control_change"}, {"time": 295, "annotation": {"number": 10, "value": 114}, "group": "control_change"}, {"time": 314, "annotation": {"number": 91, "value": 50}, "group": "control_change"}, {"time": 332, "annotation": {"number": 93, "value": 20}, "group": "control_change"}, {"time": 351, "annotation": {"number": 94, "value": 0}, "group": "control_change"}, {"time": 369, "annotation": {"number": 101, "value": 0}, "group": "control_change"}, {"time": 388, "annotation": {"number": 100, "value": 0}, "group": "control_change"}, {"time": 406, "annotation": {"number": 6, "value": 12}, "group": "control_change"}, {"time": 425, "annotation": {"number": 101, "value": 127}, "group": "control_change"}, {"time": 443, "annotation": {"number": 100, "value": 127}, "group": "control_change"}]}, {"program": 0, "is_drum": false, "name": "BRASS 1", "annotations": [{"time": 240, "annotation": {"number": 0, "value": 0}, "group": "control_change"}, {"time": 240, "annotation": {"number": 32, "value": 0}, "group": "control_change"}]}, {"program": 61, "is_drum": false, "name": "BRASS 1", "notes": [{"time": 69600, "pitch": 75, "duration": 880, "velocity": 127}, {"time": 69600, "pitch": 80, "duration": 800, "velocity": 127}, {"time": 70560, "pitch": 75, "duration": 932, "velocity": 126}, {"time": 70560, "pitch": 79, "duration": 932, "velocity": 126}, {"time": 71520, "pitch": 75, "duration": 130, "velocity": 127}, {"time": 71760, "pitch": 75, "duration": 110, "velocity": 125}, {"time": 71760, "pitch": 77, "duration": 120, "velocity": 127}, {"time": 72000, "pitch": 75, "duration": 116, "velocity": 125}, {"time": 72000, "pitch": 79, "duration": 120, "velocity": 127}, {"time": 72240, "pitch": 75, "duration": 130, "velocity": 125}, {"time": 72240, "pitch": 80, "duration": 110, "velocity": 122}, {"time": 72480, "pitch": 75, "duration": 280, "velocity": 124}, {"time": 72480, "pitch": 82, "duration": 280, "velocity": 124}, {"time": 152160, "pitch": 75, "duration": 880, "velocity": 127}, {"time": 152160, "pitch": 80, "duration": 800, "velocity": 127}, {"time": 153120, "pitch": 75, "duration": 932, "velocity": 126}, {"time": 153120, "pitch": 79, "duration": 932, "velocity": 126}, {"time": 154080, "pitch": 75, "duration": 130, "velocity": 127}, {"time": 154320, "pitch": 75, "duration": 110, "velocity": 125}, {"time": 154320, "pitch": 77, "duration": 120, "velocity": 127}, {"time": 154560, "pitch": 75, "duration": 116, "velocity": 125}, {"time": 154560, "pitch": 79, "duration": 120, "velocity": 127}, {"time": 154800, "pitch": 75, "duration": 130, "velocity": 125}, {"time": 154800, "pitch": 80, "duration": 110, "velocity": 122}, {"time": 155040, "pitch": 75, "duration": 280, "velocity": 124}, {"time": 155040, "pitch": 82, "duration": 280, "velocity": 124}], "annotations": [{"time": 258, "annotation": {"number": 7, "value": 110}, "group": "control_change"}, {"time": 277, "annotation": {"number": 11, "value": 110}, "group": "control_change"}, {"time": 295, "annotation": {"number": 10, "value": 4}, "group": "control_change"}, {"time": 314, "annotation": {"number": 91, "value": 30}, "group": "control_change"}, {"time": 332, "annotation": {"number": 93, "value": 0}, "group": "control_change"}, {"time": 351, "annotation": {"number": 94, "value": 0}, "group": "control_change"}, {"time": 369, "annotation": {"number": 101, "value": 0}, "group": "control_change"}, {"time": 388, "annotation": {"number": 100, "value": 0}, "group": "control_change"}, {"time": 406, "annotation": {"number": 6, "value": 12}, "group": "control_change"}, {"time": 425, "annotation": {"number": 101, "value": 127}, "group": "control_change"}, {"time": 443, "annotation": {"number": 100, "value": 127}, "group": "control_change"}]}, {"program": 0, "is_drum": false, "name": "KIRA", "annotations": [{"time": 240, "annotation": {"number": 0, "value": 0}, "group": "control_change"}, {"time": 240, "annotation": {"number": 32, "value": 0}, "group": "control_change"}]}, {"program": 98, "is_drum": false, "name": "KIRA", "notes": [{"time": 480, "pitch": 87, "duration": 240, "velocity": 114}, {"time": 960, "pitch": 84, "duration": 240, "velocity": 114}, {"time": 1440, "pitch": 87, "duration": 240, "velocity": 114}, {"time": 1920, "pitch": 89, "duration": 240, "velocity": 114}, {"time": 2400, "pitch": 86, "duration": 240, "velocity": 114}, {"time": 2880, "pitch": 86, "duration": 480, "velocity": 114}, {"time": 3840, "pitch": 79, "duration": 240, "velocity": 114}, {"time": 4080, "pitch": 86, "duration": 240, "velocity": 114}, {"time": 4320, "pitch": 84, "duration": 1347, "velocity": 127}, {"time": 6240, "pitch": 92, "duration": 240, "velocity": 93}, {"time": 6720, "pitch": 91, "duration": 240, "velocity": 99}, {"time": 7200, "pitch": 89, "duration": 240, "velocity": 93}, {"time": 7680, "pitch": 91, "duration": 240, "velocity": 97}, {"time": 8160, "pitch": 87, "duration": 240, "velocity": 114}, {"time": 8640, "pitch": 84, "duration": 240, "velocity": 114}, {"time": 9120, "pitch": 87, "duration": 240, "velocity": 114}, {"time": 9600, "pitch": 89, "duration": 240, "velocity": 114}, {"time": 10080, "pitch": 86, "duration": 240, "velocity": 114}, {"time": 10560, "pitch": 86, "duration": 480, "velocity": 114}, {"time": 11520, "pitch": 79, "duration": 240, "velocity": 114}, {"time": 11760, "pitch": 86, "duration": 240, "velocity": 114}, {"time": 12000, "pitch": 84, "duration": 1347, "velocity": 127}, {"time": 13920, "pitch": 92, "duration": 240, "velocity": 93}, {"time": 14400, "pitch": 91, "duration": 240, "velocity": 99}, {"time": 14880, "pitch": 89, "duration": 240, "velocity": 93}, {"time": 15360, "pitch": 91, "duration": 240, "velocity": 97}, {"time": 15840, "pitch": 87, "duration": 240, "velocity": 114}, {"time": 16320, "pitch": 84, "duration": 240, "velocity": 114}, {"time": 16800, "pitch": 87, "duration": 240, "velocity": 114}, {"time": 17280, "pitch": 89, "duration": 240, "velocity": 114}, {"time": 17760, "pitch": 86, "duration": 240, "velocity": 114}, {"time": 18240, "pitch": 86, "duration": 480, "velocity": 114}, {"time": 19200, "pitch": 79, "duration": 240, "velocity": 114}, {"time": 19440, "pitch": 86, "duration": 240, "velocity": 114}, {"time": 19680, "pitch": 84, "duration": 1347, "velocity": 127}, {"time": 90720, "pitch": 87, "duration": 240, "velocity": 114}, {"time": 91200, "pitch": 84, "duration": 240, "velocity": 114}, {"time": 91680, "pitch": 87, "duration": 240, "velocity": 114}, {"time": 92160, "pitch": 89, "duration": 240, "velocity": 114}, {"time": 92640, "pitch": 86, "duration": 240, "velocity": 114}, {"time": 93120, "pitch": 86, "duration": 480, "velocity": 114}, {"time": 94080, "pitch": 79, "duration": 240, "velocity": 114}, {"time": 94320, "pitch": 86, "duration": 240, "velocity": 114}, {"time": 94560, "pitch": 84, "duration": 1347, "velocity": 127}, {"time": 96480, "pitch": 92, "duration": 240, "velocity": 93}, {"time": 96960, "pitch": 91, "duration": 240, "velocity": 99}, {"time": 97440, "pitch": 89, "duration": 240, "velocity": 93}, {"time": 97920, "pitch": 91, "duration": 240, "velocity": 97}, {"time": 98400, "pitch": 87, "duration": 240, "velocity": 114}, {"time": 98880, "pitch": 84, "duration": 240, "velocity": 114}, {"time": 99360, "pitch": 87, "duration": 240, "velocity": 114}, {"time": 99840, "pitch": 89, "duration": 240, "velocity": 114}, {"time": 100320, "pitch": 86, "duration": 240, "velocity": 114}, {"time": 100800, "pitch": 86, "duration": 480, "velocity": 114}, {"time": 101760, "pitch": 79, "duration": 240, "velocity": 114}, {"time": 102000, "pitch": 86, "duration": 240, "velocity": 114}, {"time": 102240, "pitch": 84, "duration": 1347, "velocity": 127}, {"time": 157920, "pitch": 87, "duration": 240, "velocity": 114}, {"time": 158400, "pitch": 84, "duration": 240, "velocity": 114}, {"time": 158880, "pitch": 87, "duration": 240, "velocity": 114}, {"time": 159360, "pitch": 89, "duration": 240, "velocity": 114}, {"time": 159840, "pitch": 86, "duration": 240, "velocity": 114}, {"time": 160320, "pitch": 86, "duration": 480, "velocity": 114}, {"time": 161280, "pitch": 79, "duration": 240, "velocity": 114}, {"time": 161520, "pitch": 86, "duration": 240, "velocity": 114}, {"time": 161760, "pitch": 84, "duration": 1347, "velocity": 127}, {"time": 163680, "pitch": 92, "duration": 240, "velocity": 93}, {"time": 164160, "pitch": 91, "duration": 240, "velocity": 99}, {"time": 164640, "pitch": 89, "duration": 240, "velocity": 93}, {"time": 165120, "pitch": 91, "duration": 240, "velocity": 97}, {"time": 165600, "pitch": 87, "duration": 240, "velocity": 114}, {"time": 166080, "pitch": 84, "duration": 240, "velocity": 114}, {"time": 166560, "pitch": 87, "duration": 240, "velocity": 114}, {"time": 167040, "pitch": 89, "duration": 240, "velocity": 114}, {"time": 167520, "pitch": 86, "duration": 240, "velocity": 114}, {"time": 168000, "pitch": 86, "duration": 480, "velocity": 114}, {"time": 168960, "pitch": 79, "duration": 240, "velocity": 114}, {"time": 169200, "pitch": 86, "duration": 240, "velocity": 114}, {"time": 169440, "pitch": 84, "duration": 1347, "velocity": 127}], "annotations": [{"time": 258, "annotation": {"number": 7, "value": 100}, "group": "control_change"}, {"time": 277, "annotation": {"number": 11, "value": 100}, "group": "control_change"}, {"time": 295, "annotation": {"number": 10, "value": 104}, "group": "control_change"}, {"time": 314, "annotation": {"number": 91, "value": 80}, "group": "control_change"}, {"time": 332, "annotation": {"number": 93, "value": 0}, "group": "control_change"}, {"time": 351, "annotation": {"number": 94, "value": 0}, "group": "control_change"}, {"time": 369, "annotation": {"number": 101, "value": 0}, "group": "control_change"}, {"time": 388, "annotation": {"number": 100, "value": 0}, "group": "control_change"}, {"time": 406, "annotation": {"number": 6, "value": 12}, "group": "control_change"}, {"time": 425, "annotation": {"number": 101, "value": 127}, "group": "control_change"}, {"time": 443, "annotation": {"number": 100, "value": 127}, "group": "control_change"}]}, {"program": 0, "is_drum": false, "name": "CHORUS", "annotations": [{"time": 240, "annotation": {"number": 0, "value": 0}, "group": "control_change"}, {"time": 240, "annotation": {"number": 32, "value": 2}, "group": "control_change"}]}, {"program": 52, "is_drum": false, "name": "CHORUS", "notes": [{"time": 8160, "pitch": 63, "duration": 240, "velocity": 114}, {"time": 8160, "pitch": 75, "duration": 240, "velocity": 114}, {"time": 8640, "pitch": 60, "duration": 240, "velocity": 114}, {"time": 8640, "pitch": 72, "duration": 240, "velocity": 114}, {"time": 9120, "pitch": 63, "duration": 240, "velocity": 114}, {"time": 9120, "pitch": 75, "duration": 240, "velocity": 114}, {"time": 9600, "pitch": 65, "duration": 240, "velocity": 114}, {"time": 9600, "pitch": 77, "duration": 240, "velocity": 114}, {"time": 10080, "pitch": 62, "duration": 240, "velocity": 114}, {"time": 10080, "pitch": 74, "duration": 240, "velocity": 114}, {"time": 10560, "pitch": 62, "duration": 480, "velocity": 114}, {"time": 10560, "pitch": 74, "duration": 480, "velocity": 114}, {"time": 11520, "pitch": 55, "duration": 240, "velocity": 114}, {"time": 11520, "pitch": 67, "duration": 240, "velocity": 114}, {"time": 11760, "pitch": 62, "duration": 240, "velocity": 114}, {"time": 11760, "pitch": 74, "duration": 240, "velocity": 114}, {"time": 12000, "pitch": 60, "duration": 1347, "velocity": 114}, {"time": 12000, "pitch": 72, "duration": 1347, "velocity": 114}, {"time": 13920, "pitch": 61, "duration": 480, "velocity": 110}, {"time": 13920, "pitch": 65, "duration": 480, "velocity": 110}, {"time": 13920, "pitch": 68, "duration": 480, "velocity": 110}, {"time": 14400, "pitch": 61, "duration": 480, "velocity": 110}, {"time": 14400, "pitch": 63, "duration": 480, "velocity": 110}, {"time": 14400, "pitch": 67, "duration": 480, "velocity": 110}, {"time": 14880, "pitch": 58, "duration": 480, "velocity": 110}, {"time": 14880, "pitch": 61, "duration": 480, "velocity": 110}, {"time": 14880, "pitch": 65, "duration": 480, "velocity": 110}, {"time": 15360, "pitch": 58, "duration": 480, "velocity": 110}, {"time": 15360, "pitch": 61, "duration": 480, "velocity": 110}, {"time": 15360, "pitch": 67, "duration": 480, "velocity": 110}, {"time": 15840, "pitch": 63, "duration": 240, "velocity": 114}, {"time": 15840, "pitch": 75, "duration": 240, "velocity": 114}, {"time": 16320, "pitch": 60, "duration": 240, "velocity": 114}, {"time": 16320, "pitch": 72, "duration": 240, "velocity": 114}, {"time": 16800, "pitch": 63, "duration": 240, "velocity": 114}, {"time": 16800, "pitch": 75, "duration": 240, "velocity": 114}, {"time": 17280, "pitch": 65, "duration": 240, "velocity": 114}, {"time": 17280, "pitch": 77, "duration": 240, "velocity": 114}, {"time": 17760, "pitch": 62, "duration": 240, "velocity": 114}, {"time": 17760, "pitch": 74, "duration": 240, "velocity": 114}, {"time": 18240, "pitch": 62, "duration": 480, "velocity": 114}, {"time": 18240, "pitch": 74, "duration": 480, "velocity": 114}, {"time": 19200, "pitch": 55, "duration": 240, "velocity": 114}, {"time": 19200, "pitch": 67, "duration": 240, "velocity": 114}, {"time": 19440, "pitch": 62, "duration": 240, "velocity": 114}, {"time": 19440, "pitch": 74, "duration": 240, "velocity": 114}, {"time": 19680, "pitch": 60, "duration": 1347, "velocity": 114}, {"time": 19680, "pitch": 72, "duration": 1347, "velocity": 114}, {"time": 98400, "pitch": 63, "duration": 240, "velocity": 114}, {"time": 98400, "pitch": 75, "duration": 240, "velocity": 114}, {"time": 98880, "pitch": 60, "duration": 240, "velocity": 114}, {"time": 98880, "pitch": 72, "duration": 240, "velocity": 114}, {"time": 99360, "pitch": 63, "duration": 240, "velocity": 114}, {"time": 99360, "pitch": 75, "duration": 240, "velocity": 114}, {"time": 99840, "pitch": 65, "duration": 240, "velocity": 114}, {"time": 99840, "pitch": 77, "duration": 240, "velocity": 114}, {"time": 100320, "pitch": 62, "duration": 240, "velocity": 114}, {"time": 100320, "pitch": 74, "duration": 240, "velocity": 114}, {"time": 100800, "pitch": 62, "duration": 480, "velocity": 114}, {"time": 100800, "pitch": 74, "duration": 480, "velocity": 114}, {"time": 101760, "pitch": 55, "duration": 240, "velocity": 114}, {"time": 101760, "pitch": 67, "duration": 240, "velocity": 114}, {"time": 102000, "pitch": 62, "duration": 240, "velocity": 114}, {"time": 102000, "pitch": 74, "duration": 240, "velocity": 114}, {"time": 102240, "pitch": 60, "duration": 1347, "velocity": 114}, {"time": 102240, "pitch": 72, "duration": 1347, "velocity": 114}, {"time": 157920, "pitch": 63, "duration": 240, "velocity": 114}, {"time": 157920, "pitch": 75, "duration": 240, "velocity": 114}, {"time": 158400, "pitch": 60, "duration": 240, "velocity": 114}, {"time": 158400, "pitch": 72, "duration": 240, "velocity": 114}, {"time": 158880, "pitch": 63, "duration": 240, "velocity": 114}, {"time": 158880, "pitch": 75, "duration": 240, "velocity": 114}, {"time": 159360, "pitch": 65, "duration": 240, "velocity": 114}, {"time": 159360, "pitch": 77, "duration": 240, "velocity": 114}, {"time": 159840, "pitch": 62, "duration": 240, "velocity": 114}, {"time": 159840, "pitch": 74, "duration": 240, "velocity": 114}, {"time": 160320, "pitch": 62, "duration": 480, "velocity": 114}, {"time": 160320, "pitch": 74, "duration": 480, "velocity": 114}, {"time": 161280, "pitch": 55, "duration": 240, "velocity": 114}, {"time": 161280, "pitch": 67, "duration": 240, "velocity": 114}, {"time": 161520, "pitch": 62, "duration": 240, "velocity": 114}, {"time": 161520, "pitch": 74, "duration": 240, "velocity": 114}, {"time": 161760, "pitch": 60, "duration": 1347, "velocity": 114}, {"time": 161760, "pitch": 72, "duration": 1347, "velocity": 114}, {"time": 163680, "pitch": 61, "duration": 480, "velocity": 110}, {"time": 163680, "pitch": 65, "duration": 480, "velocity": 110}, {"time": 163680, "pitch": 68, "duration": 480, "velocity": 110}, {"time": 164160, "pitch": 61, "duration": 480, "velocity": 110}, {"time": 164160, "pitch": 63, "duration": 480, "velocity": 110}, {"time": 164160, "pitch": 67, "duration": 480, "velocity": 110}, {"time": 164640, "pitch": 58, "duration": 480, "velocity": 110}, {"time": 164640, "pitch": 61, "duration": 480, "velocity": 110}, {"time": 164640, "pitch": 65, "duration": 480, "velocity": 110}, {"time": 165120, "pitch": 58, "duration": 480, "velocity": 110}, {"time": 165120, "pitch": 61, "duration": 480, "velocity": 110}, {"time": 165120, "pitch": 67, "duration": 480, "velocity": 110}, {"time": 165600, "pitch": 63, "duration": 240, "velocity": 114}, {"time": 165600, "pitch": 75, "duration": 240, "velocity": 114}, {"time": 166080, "pitch": 60, "duration": 240, "velocity": 114}, {"time": 166080, "pitch": 72, "duration": 240, "velocity": 114}, {"time": 166560, "pitch": 63, "duration": 240, "velocity": 114}, {"time": 166560, "pitch": 75, "duration": 240, "velocity": 114}, {"time": 167040, "pitch": 65, "duration": 240, "velocity": 114}, {"time": 167040, "pitch": 77, "duration": 240, "velocity": 114}, {"time": 167520, "pitch": 62, "duration": 240, "velocity": 114}, {"time": 167520, "pitch": 74, "duration": 240, "velocity": 114}, {"time": 168000, "pitch": 62, "duration": 480, "velocity": 114}, {"time": 168000, "pitch": 74, "duration": 480, "velocity": 114}, {"time": 168960, "pitch": 55, "duration": 240, "velocity": 114}, {"time": 168960, "pitch": 67, "duration": 240, "velocity": 114}, {"time": 169200, "pitch": 62, "duration": 240, "velocity": 114}, {"time": 169200, "pitch": 74, "duration": 240, "velocity": 114}, {"time": 169440, "pitch": 60, "duration": 1347, "velocity": 114}, {"time": 169440, "pitch": 72, "duration": 1347, "velocity": 114}], "annotations": [{"time": 258, "annotation": {"number": 7, "value": 127}, "group": "control_change"}, {"time": 277, "annotation": {"number": 11, "value": 127}, "group": "control_change"}, {"time": 295, "annotation": {"number": 10, "value": 64}, "group": "control_change"}, {"time": 314, "annotation": {"number": 91, "value": 80}, "group": "control_change"}, {"time": 332, "annotation": {"number": 93, "value": 0}, "group": "control_change"}, {"time": 351, "annotation": {"number": 94, "value": 0}, "group": "control_change"}, {"time": 369, "annotation": {"number": 101, "value": 0}, "group": "control_change"}, {"time": 388, "annotation": {"number": 100, "value": 0}, "group": "control_change"}, {"time": 406, "annotation": {"number": 6, "value": 12}, "group": "control_change"}, {"time": 425, "annotation": {"number": 101, "value": 127}, "group": "control_change"}, {"time": 443, "annotation": {"number": 100, "value": 127}, "group": "control_change"}]}]}