{"metadata": {"schema_version": "0.1", "title": "RWC-MDB-P-2001 No. 21: Feeling In My Heart / Rin", "copyright": "RWC Music Database. Copyright (C) 2001 Real World Computing Partnership (contact: Masataka GOTO <m.goto@aist.go.jp>)", "source_filename": "RM-P021.SMF_SYNC.MID", "source_format": "midi"}, "resolution": 480, "tempos": [{"time": 0, "qpm": 58.8235294117647}, {"time": 480, "qpm": 98.36065573770492}, {"time": 1440, "qpm": 96.7741935483871}, {"time": 1920, "qpm": 98.36065573770492}, {"time": 3840, "qpm": 96.7741935483871}, {"time": 4320, "qpm": 98.36065573770492}, {"time": 5760, "qpm": 96.7741935483871}, {"time": 6240, "qpm": 98.36065573770492}, {"time": 7200, "qpm": 96.7741935483871}, {"time": 7680, "qpm": 98.36065573770492}, {"time": 10080, "qpm": 96.7741935483871}, {"time": 10560, "qpm": 98.36065573770492}, {"time": 12000, "qpm": 96.7741935483871}, {"time": 12480, "qpm": 98.36065573770492}, {"time": 14400, "qpm": 96.7741935483871}, {"time": 14880, "qpm": 98.36065573770492}, {"time": 16320, "qpm": 96.7741935483871}, {"time": 16800, "qpm": 98.36065573770492}, {"time": 18720, "qpm": 96.7741935483871}, {"time": 19200, "qpm": 98.36065573770492}, {"time": 20640, "qpm": 96.7741935483871}, {"time": 21120, "qpm": 98.36065573770492}, {"time": 22560, "qpm": 96.7741935483871}, {"time": 23040, "qpm": 98.36065573770492}, {"time": 24960, "qpm": 96.7741935483871}, {"time": 25440, "qpm": 98.36065573770492}, {"time": 26880, "qpm": 96.7741935483871}, {"time": 27360, "qpm": 98.36065573770492}, {"time": 28800, "qpm": 96.7741935483871}, {"time": 29280, "qpm": 98.36065573770492}, {"time": 31680, "qpm": 96.7741935483871}, {"time": 32160, "qpm": 98.36065573770492}, {"time": 33600, "qpm": 96.7741935483871}, {"time": 34080, "qpm": 98.36065573770492}, {"time": 35520, "qpm": 96.7741935483871}, {"time": 36000, "qpm": 98.36065573770492}, {"time": 37920, "qpm": 96.7741935483871}, {"time": 38400, "qpm": 98.36065573770492}, {"time": 39840, "qpm": 96.7741935483871}, {"time": 40320, "qpm": 98.36065573770492}, {"time": 41760, "qpm": 96.7741935483871}, {"time": 42240, "qpm": 98.36065573770492}, {"time": 44160, "qpm": 96.7741935483871}, {"time": 44640, "qpm": 98.36065573770492}, {"time": 46080, "qpm": 96.7741935483871}, {"time": 46560, "qpm": 98.36065573770492}, {"time": 48000, "qpm": 96.7741935483871}, {"time": 48480, "qpm": 98.36065573770492}, {"time": 50400, "qpm": 96.7741935483871}, {"time": 50880, "qpm": 98.36065573770492}, {"time": 51360, "qpm": 96.7741935483871}, {"time": 51840, "qpm": 98.36065573770492}, {"time": 52320, "qpm": 100.0}, {"time": 52800, "qpm": 96.7741935483871}, {"time": 53280, "qpm": 98.36065573770492}, {"time": 54720, "qpm": 96.7741935483871}, {"time": 55200, "qpm": 98.36065573770492}, {"time": 55680, "qpm": 96.7741935483871}, {"time": 56160, "qpm": 100.0}, {"time": 56640, "qpm": 98.36065573770492}, {"time": 57120, "qpm": 96.7741935483871}, {"time": 57600, "qpm": 98.36065573770492}, {"time": 59040, "qpm": 96.7741935483871}, {"time": 59520, "qpm": 98.36065573770492}, {"time": 61440, "qpm": 96.7741935483871}, {"time": 61920, "qpm": 98.36065573770492}, {"time": 62400, "qpm": 96.7741935483871}, {"time": 62880, "qpm": 100.0}, {"time": 63360, "qpm": 96.7741935483871}, {"time": 63840, "qpm": 98.36065573770492}, {"time": 64320, "qpm": 96.7741935483871}, {"time": 64800, "qpm": 100.0}, {"time": 65280, "qpm": 98.36065573770492}, {"time": 65760, "qpm": 96.7741935483871}, {"time": 66240, "qpm": 98.36065573770492}, {"time": 67200, "qpm": 96.7741935483871}, {"time": 67680, "qpm": 98.36065573770492}, {"time": 69120, "qpm": 96.7741935483871}, {"time": 69600, "qpm": 98.36065573770492}, {"time": 70080, "qpm": 100.0}, {"time": 70560, "qpm": 96.7741935483871}, {"time": 71040, "qpm": 98.36065573770492}, {"time": 72000, "qpm": 96.7741935483871}, {"time": 72480, "qpm": 98.36065573770492}, {"time": 74400, "qpm": 96.7741935483871}, {"time": 74880, "qpm": 98.36065573770492}, {"time": 76320, "qpm": 96.7741935483871}, {"time": 76800, "qpm": 98.36065573770492}, {"time": 78720, "qpm": 96.7741935483871}, {"time": 79200, "qpm": 98.36065573770492}, {"time": 80640, "qpm": 96.7741935483871}, {"time": 81120, "qpm": 98.36065573770492}, {"time": 82560, "qpm": 96.7741935483871}, {"time": 83040, "qpm": 98.36065573770492}, {"time": 84960, "qpm": 96.7741935483871}, {"time": 85440, "qpm": 98.36065573770492}, {"time": 87360, "qpm": 96.7741935483871}, {"time": 87840, "qpm": 98.36065573770492}, {"time": 89280, "qpm": 96.7741935483871}, {"time": 89760, "qpm": 98.36065573770492}, {"time": 91200, "qpm": 96.7741935483871}, {"time": 91680, "qpm": 98.36065573770492}, {"time": 93600, "qpm": 96.7741935483871}, {"time": 94080, "qpm": 98.36065573770492}, {"time": 95520, "qpm": 96.7741935483871}, {"time": 96000, "qpm": 98.36065573770492}, {"time": 97920, "qpm": 96.7741935483871}, {"time": 98400, "qpm": 98.36065573770492}, {"time": 99840, "qpm": 96.7741935483871}, {"time": 100320, "qpm": 98.36065573770492}, {"time": 102240, "qpm": 96.7741935483871}, {"time": 102720, "qpm": 98.36065573770492}, {"time": 104160, "qpm": 96.7741935483871}, {"time": 104640, "qpm": 98.36065573770492}, {"time": 106560, "qpm": 96.7741935483871}, {"time": 107040, "qpm": 98.36065573770492}, {"time": 108480, "qpm": 96.7741935483871}, {"time": 108960, "qpm": 98.36065573770492}, {"time": 110880, "qpm": 96.7741935483871}, {"time": 111360, "qpm": 98.36065573770492}, {"time": 112320, "qpm": 96.7741935483871}, {"time": 112800, "qpm": 98.36065573770492}, {"time": 113280, "qpm": 96.7741935483871}, {"time": 113760, "qpm": 100.0}, {"time": 114240, "qpm": 96.7741935483871}, {"time": 114720, "qpm": 98.36065573770492}, {"time": 116160, "qpm": 96.7741935483871}, {"time": 116640, "qpm": 98.36065573770492}, {"time": 119520, "qpm": 96.7741935483871}, {"time": 120480, "qpm": 100.0}, {"time": 120960, "qpm": 96.7741935483871}, {"time": 121440, "qpm": 98.36065573770492}, {"time": 123360, "qpm": 96.7741935483871}, {"time": 123840, "qpm": 98.36065573770492}, {"time": 125760, "qpm": 96.7741935483871}, {"time": 126240, "qpm": 98.36065573770492}, {"time": 127680, "qpm": 96.7741935483871}, {"time": 128160, "qpm": 98.36065573770492}, {"time": 128640, "qpm": 96.7741935483871}, {"time": 129120, "qpm": 100.0}, {"time": 129600, "qpm": 96.7741935483871}, {"time": 130080, "qpm": 98.36065573770492}, {"time": 131520, "qpm": 96.7741935483871}, {"time": 132000, "qpm": 98.36065573770492}, {"time": 133440, "qpm": 96.7741935483871}, {"time": 133920, "qpm": 100.0}, {"time": 134400, "qpm": 96.7741935483871}, {"time": 134880, "qpm": 98.36065573770492}, {"time": 136320, "qpm": 96.7741935483871}, {"time": 136800, "qpm": 98.36065573770492}, {"time": 138720, "qpm": 96.7741935483871}, {"time": 139200, "qpm": 98.36065573770492}, {"time": 140640, "qpm": 96.7741935483871}, {"time": 141120, "qpm": 98.36065573770492}, {"time": 142560, "qpm": 96.7741935483871}, {"time": 143040, "qpm": 98.36065573770492}, {"time": 145440, "qpm": 96.7741935483871}, {"time": 145920, "qpm": 98.36065573770492}, {"time": 147360, "qpm": 96.7741935483871}, {"time": 147840, "qpm": 98.36065573770492}, {"time": 149280, "qpm": 96.7741935483871}, {"time": 149760, "qpm": 98.36065573770492}, {"time": 151200, "qpm": 96.7741935483871}, {"time": 151680, "qpm": 98.36065573770492}, {"time": 153600, "qpm": 96.7741935483871}, {"time": 154080, "qpm": 98.36065573770492}, {"time": 155520, "qpm": 96.7741935483871}, {"time": 156000, "qpm": 98.36065573770492}, {"time": 157920, "qpm": 96.7741935483871}, {"time": 158400, "qpm": 98.36065573770492}, {"time": 159840, "qpm": 96.7741935483871}, {"time": 160320, "qpm": 98.36065573770492}, {"time": 161280, "qpm": 96.7741935483871}, {"time": 161760, "qpm": 98.36065573770492}, {"time": 164160, "qpm": 96.7741935483871}, {"time": 164640, "qpm": 98.36065573770492}, {"time": 166080, "qpm": 96.7741935483871}, {"time": 166560, "qpm": 98.36065573770492}, {"time": 168000, "qpm": 96.7741935483871}, {"time": 168480, "qpm": 98.36065573770492}, {"time": 168960, "qpm": 96.7741935483871}, {"time": 169440, "qpm": 100.0}, {"time": 169920, "qpm": 98.36065573770492}, {"time": 170400, "qpm": 96.7741935483871}, {"time": 170880, "qpm": 98.36065573770492}, {"time": 172800, "qpm": 96.7741935483871}, {"time": 173280, "qpm": 98.36065573770492}, {"time": 174720, "qpm": 96.7741935483871}, {"time": 175200, "qpm": 98.36065573770492}, {"time": 176640, "qpm": 96.7741935483871}, {"time": 177120, "qpm": 98.36065573770492}, {"time": 179040, "qpm": 96.7741935483871}, {"time": 179520, "qpm": 98.36065573770492}, {"time": 180480, "qpm": 96.7741935483871}, {"time": 180960, "qpm": 100.0}, {"time": 181440, "qpm": 96.7741935483871}, {"time": 181920, "qpm": 98.36065573770492}, {"time": 182400, "qpm": 96.7741935483871}, {"time": 182880, "qpm": 100.0}, {"time": 183360, "qpm": 98.36065573770492}, {"time": 183840, "qpm": 96.7741935483871}, {"time": 184320, "qpm": 98.36065573770492}, {"time": 185760, "qpm": 96.7741935483871}, {"time": 186240, "qpm": 98.36065573770492}, {"time": 187680, "qpm": 96.7741935483871}, {"time": 188160, "qpm": 98.36065573770492}, {"time": 190080, "qpm": 96.7741935483871}, {"time": 190560, "qpm": 98.36065573770492}, {"time": 192480, "qpm": 96.7741935483871}, {"time": 192960, "qpm": 98.36065573770492}, {"time": 194400, "qpm": 96.7741935483871}, {"time": 194880, "qpm": 98.36065573770492}, {"time": 195840, "qpm": 96.7741935483871}, {"time": 196320, "qpm": 100.0}, {"time": 196800, "qpm": 96.7741935483871}, {"time": 197280, "qpm": 98.36065573770492}, {"time": 198720, "qpm": 96.7741935483871}, {"time": 199200, "qpm": 98.36065573770492}, {"time": 200640, "qpm": 96.7741935483871}, {"time": 201120, "qpm": 98.36065573770492}, {"time": 203040, "qpm": 96.7741935483871}, {"time": 203520, "qpm": 98.36065573770492}], "key_signatures": [{"time": 0, "root": 4, "mode": "major"}], "time_signatures": [{"time": 0, "numerator": 1, "denominator": 4}, {"time": 480, "numerator": 4, "denominator": 4}], "tracks": [{"program": 0, "is_drum": false, "name": "DIST GT", "annotations": [{"time": 208, "annotation": {"number": 0, "value": 0}, "group": "control_change"}, {"time": 229, "annotation": {"number": 32, "value": 2}, "group": "control_change"}]}, {"program": 30, "is_drum": false, "name": "DIST GT", "notes": [{"time": 13680, "pitch": 35, "duration": 173, "velocity": 127}, {"time": 13680, "pitch": 47, "duration": 195, "velocity": 127}, {"time": 13921, "pitch": 35, "duration": 149, "velocity": 127}, {"time": 13921, "pitch": 47, "duration": 155, "velocity": 127}, {"time": 14162, "pitch": 35, "duration": 321, "velocity": 127}, {"time": 14162, "pitch": 47, "duration": 325, "velocity": 127}, {"time": 41038, "pitch": 52, "duration": 8, "velocity": 127}, {"time": 41278, "pitch": 52, "duration": 197, "velocity": 127}, {"time": 41519, "pitch": 52, "duration": 235, "velocity": 127}, {"time": 41760, "pitch": 52, "duration": 85, "velocity": 127}, {"time": 42001, "pitch": 52, "duration": 161, "velocity": 127}, {"time": 42242, "pitch": 52, "duration": 224, "velocity": 127}, {"time": 42483, "pitch": 52, "duration": 167, "velocity": 127}, {"time": 42724, "pitch": 47, "duration": 234, "velocity": 127}, {"time": 42961, "pitch": 47, "duration": 82, "velocity": 127}, {"time": 43198, "pitch": 47, "duration": 165, "velocity": 127}, {"time": 43438, "pitch": 47, "duration": 230, "velocity": 127}, {"time": 43679, "pitch": 47, "duration": 84, "velocity": 127}, {"time": 43920, "pitch": 47, "duration": 163, "velocity": 127}, {"time": 44402, "pitch": 47, "duration": 8, "velocity": 127}, {"time": 44643, "pitch": 45, "duration": 232, "velocity": 127}, {"time": 44880, "pitch": 45, "duration": 73, "velocity": 127}, {"time": 45117, "pitch": 45, "duration": 155, "velocity": 127}, {"time": 45358, "pitch": 45, "duration": 239, "velocity": 127}, {"time": 45598, "pitch": 45, "duration": 64, "velocity": 127}, {"time": 45839, "pitch": 45, "duration": 166, "velocity": 127}, {"time": 46080, "pitch": 45, "duration": 232, "velocity": 127}, {"time": 46321, "pitch": 45, "duration": 159, "velocity": 127}, {"time": 46803, "pitch": 42, "duration": 16, "velocity": 127}, {"time": 47044, "pitch": 42, "duration": 79, "velocity": 127}, {"time": 47281, "pitch": 42, "duration": 156, "velocity": 127}, {"time": 47758, "pitch": 47, "duration": 5, "velocity": 127}, {"time": 47999, "pitch": 47, "duration": 93, "velocity": 127}, {"time": 48240, "pitch": 47, "duration": 157, "velocity": 127}, {"time": 48481, "pitch": 44, "duration": 232, "velocity": 127}, {"time": 48722, "pitch": 44, "duration": 80, "velocity": 127}, {"time": 48963, "pitch": 44, "duration": 153, "velocity": 127}, {"time": 49200, "pitch": 44, "duration": 211, "velocity": 127}, {"time": 49437, "pitch": 44, "duration": 70, "velocity": 127}, {"time": 49678, "pitch": 44, "duration": 128, "velocity": 127}, {"time": 49918, "pitch": 44, "duration": 234, "velocity": 127}, {"time": 50159, "pitch": 44, "duration": 134, "velocity": 127}, {"time": 50400, "pitch": 45, "duration": 231, "velocity": 127}, {"time": 50641, "pitch": 45, "duration": 83, "velocity": 127}, {"time": 50882, "pitch": 45, "duration": 166, "velocity": 127}, {"time": 51123, "pitch": 45, "duration": 262, "velocity": 127}, {"time": 51364, "pitch": 47, "duration": 197, "velocity": 127}, {"time": 51601, "pitch": 47, "duration": 243, "velocity": 127}, {"time": 51838, "pitch": 48, "duration": 167, "velocity": 127}, {"time": 52078, "pitch": 48, "duration": 234, "velocity": 127}, {"time": 52319, "pitch": 49, "duration": 79, "velocity": 127}, {"time": 52560, "pitch": 49, "duration": 164, "velocity": 127}, {"time": 52801, "pitch": 49, "duration": 235, "velocity": 127}, {"time": 53042, "pitch": 49, "duration": 134, "velocity": 127}, {"time": 53520, "pitch": 49, "duration": 18, "velocity": 127}, {"time": 53757, "pitch": 47, "duration": 123, "velocity": 127}, {"time": 53998, "pitch": 42, "duration": 220, "velocity": 127}, {"time": 54238, "pitch": 42, "duration": 77, "velocity": 127}, {"time": 54479, "pitch": 42, "duration": 147, "velocity": 127}, {"time": 54720, "pitch": 42, "duration": 227, "velocity": 127}, {"time": 54961, "pitch": 42, "duration": 193, "velocity": 127}, {"time": 55202, "pitch": 47, "duration": 235, "velocity": 127}, {"time": 55443, "pitch": 47, "duration": 70, "velocity": 127}, {"time": 55684, "pitch": 47, "duration": 185, "velocity": 127}, {"time": 55921, "pitch": 47, "duration": 227, "velocity": 127}, {"time": 56398, "pitch": 52, "duration": 8, "velocity": 127}, {"time": 56639, "pitch": 52, "duration": 197, "velocity": 127}, {"time": 56880, "pitch": 52, "duration": 235, "velocity": 127}, {"time": 57121, "pitch": 52, "duration": 85, "velocity": 127}, {"time": 57362, "pitch": 52, "duration": 161, "velocity": 127}, {"time": 57603, "pitch": 52, "duration": 220, "velocity": 127}, {"time": 57840, "pitch": 52, "duration": 165, "velocity": 127}, {"time": 58077, "pitch": 47, "duration": 238, "velocity": 127}, {"time": 58318, "pitch": 47, "duration": 83, "velocity": 127}, {"time": 58558, "pitch": 47, "duration": 166, "velocity": 127}, {"time": 58799, "pitch": 47, "duration": 230, "velocity": 127}, {"time": 59040, "pitch": 47, "duration": 83, "velocity": 127}, {"time": 59281, "pitch": 47, "duration": 163, "velocity": 127}, {"time": 59763, "pitch": 47, "duration": 8, "velocity": 127}, {"time": 60004, "pitch": 45, "duration": 232, "velocity": 127}, {"time": 60241, "pitch": 45, "duration": 73, "velocity": 127}, {"time": 60478, "pitch": 45, "duration": 155, "velocity": 127}, {"time": 60718, "pitch": 45, "duration": 240, "velocity": 127}, {"time": 60959, "pitch": 45, "duration": 64, "velocity": 127}, {"time": 61200, "pitch": 45, "duration": 166, "velocity": 127}, {"time": 61441, "pitch": 45, "duration": 232, "velocity": 127}, {"time": 61682, "pitch": 45, "duration": 159, "velocity": 127}, {"time": 62160, "pitch": 42, "duration": 16, "velocity": 127}, {"time": 62397, "pitch": 42, "duration": 80, "velocity": 127}, {"time": 62638, "pitch": 42, "duration": 158, "velocity": 127}, {"time": 63119, "pitch": 47, "duration": 5, "velocity": 127}, {"time": 63360, "pitch": 47, "duration": 93, "velocity": 127}, {"time": 63601, "pitch": 47, "duration": 157, "velocity": 127}, {"time": 63842, "pitch": 44, "duration": 232, "velocity": 127}, {"time": 64083, "pitch": 44, "duration": 80, "velocity": 127}, {"time": 64324, "pitch": 44, "duration": 153, "velocity": 127}, {"time": 64561, "pitch": 44, "duration": 211, "velocity": 127}, {"time": 64798, "pitch": 44, "duration": 70, "velocity": 127}, {"time": 65038, "pitch": 44, "duration": 129, "velocity": 127}, {"time": 65279, "pitch": 44, "duration": 234, "velocity": 127}, {"time": 65520, "pitch": 44, "duration": 134, "velocity": 127}, {"time": 65761, "pitch": 45, "duration": 231, "velocity": 127}, {"time": 66002, "pitch": 45, "duration": 83, "velocity": 127}, {"time": 66243, "pitch": 45, "duration": 163, "velocity": 127}, {"time": 66480, "pitch": 45, "duration": 259, "velocity": 127}, {"time": 66717, "pitch": 47, "duration": 200, "velocity": 127}, {"time": 67198, "pitch": 47, "duration": 6, "velocity": 127}, {"time": 67439, "pitch": 47, "duration": 234, "velocity": 127}, {"time": 67680, "pitch": 42, "duration": 76, "velocity": 127}, {"time": 67921, "pitch": 42, "duration": 147, "velocity": 127}, {"time": 68162, "pitch": 42, "duration": 227, "velocity": 127}, {"time": 68403, "pitch": 42, "duration": 193, "velocity": 127}, {"time": 68644, "pitch": 47, "duration": 231, "velocity": 127}, {"time": 68881, "pitch": 47, "duration": 69, "velocity": 127}, {"time": 69118, "pitch": 47, "duration": 188, "velocity": 127}, {"time": 69358, "pitch": 47, "duration": 231, "velocity": 127}, {"time": 69599, "pitch": 52, "duration": 109, "velocity": 127}, {"time": 69840, "pitch": 52, "duration": 99, "velocity": 127}, {"time": 70081, "pitch": 52, "duration": 105, "velocity": 127}, {"time": 70322, "pitch": 52, "duration": 43, "velocity": 127}, {"time": 70442, "pitch": 52, "duration": 93, "velocity": 127}, {"time": 70681, "pitch": 52, "duration": 57, "velocity": 127}, {"time": 70918, "pitch": 52, "duration": 58, "velocity": 127}, {"time": 71157, "pitch": 52, "duration": 42, "velocity": 127}, {"time": 71278, "pitch": 52, "duration": 55, "velocity": 127}, {"time": 71518, "pitch": 52, "duration": 85, "velocity": 127}, {"time": 71759, "pitch": 52, "duration": 80, "velocity": 127}, {"time": 72000, "pitch": 52, "duration": 101, "velocity": 127}, {"time": 72241, "pitch": 52, "duration": 37, "velocity": 127}, {"time": 72362, "pitch": 52, "duration": 74, "velocity": 127}, {"time": 72602, "pitch": 52, "duration": 51, "velocity": 127}, {"time": 72843, "pitch": 52, "duration": 48, "velocity": 127}, {"time": 73082, "pitch": 52, "duration": 60, "velocity": 127}, {"time": 73319, "pitch": 51, "duration": 63, "velocity": 127}, {"time": 73438, "pitch": 49, "duration": 133, "velocity": 127}, {"time": 73678, "pitch": 49, "duration": 90, "velocity": 127}, {"time": 73919, "pitch": 49, "duration": 110, "velocity": 127}, {"time": 74160, "pitch": 49, "duration": 43, "velocity": 127}, {"time": 74281, "pitch": 49, "duration": 85, "velocity": 127}, {"time": 74522, "pitch": 49, "duration": 53, "velocity": 127}, {"time": 74762, "pitch": 49, "duration": 53, "velocity": 127}, {"time": 75001, "pitch": 49, "duration": 62, "velocity": 127}, {"time": 75357, "pitch": 45, "duration": 61, "velocity": 127}, {"time": 75598, "pitch": 45, "duration": 66, "velocity": 127}, {"time": 75838, "pitch": 45, "duration": 96, "velocity": 127}, {"time": 76079, "pitch": 45, "duration": 49, "velocity": 127}, {"time": 76200, "pitch": 47, "duration": 96, "velocity": 127}, {"time": 76441, "pitch": 47, "duration": 102, "velocity": 127}, {"time": 76682, "pitch": 47, "duration": 72, "velocity": 127}, {"time": 76922, "pitch": 47, "duration": 74, "velocity": 127}, {"time": 78962, "pitch": 35, "duration": 173, "velocity": 127}, {"time": 78962, "pitch": 47, "duration": 195, "velocity": 127}, {"time": 79203, "pitch": 35, "duration": 147, "velocity": 127}, {"time": 79203, "pitch": 47, "duration": 153, "velocity": 127}, {"time": 79440, "pitch": 35, "duration": 318, "velocity": 127}, {"time": 79440, "pitch": 47, "duration": 322, "velocity": 127}, {"time": 106319, "pitch": 52, "duration": 8, "velocity": 127}, {"time": 106560, "pitch": 52, "duration": 197, "velocity": 127}, {"time": 106801, "pitch": 52, "duration": 235, "velocity": 127}, {"time": 107042, "pitch": 52, "duration": 85, "velocity": 127}, {"time": 107283, "pitch": 52, "duration": 161, "velocity": 127}, {"time": 107524, "pitch": 52, "duration": 220, "velocity": 127}, {"time": 107761, "pitch": 52, "duration": 165, "velocity": 127}, {"time": 107998, "pitch": 47, "duration": 238, "velocity": 127}, {"time": 108239, "pitch": 47, "duration": 83, "velocity": 127}, {"time": 108479, "pitch": 47, "duration": 166, "velocity": 127}, {"time": 108720, "pitch": 47, "duration": 230, "velocity": 127}, {"time": 108961, "pitch": 47, "duration": 83, "velocity": 127}, {"time": 109202, "pitch": 47, "duration": 163, "velocity": 127}, {"time": 109680, "pitch": 47, "duration": 8, "velocity": 127}, {"time": 109917, "pitch": 45, "duration": 236, "velocity": 127}, {"time": 110158, "pitch": 45, "duration": 74, "velocity": 127}, {"time": 110399, "pitch": 45, "duration": 155, "velocity": 127}, {"time": 110639, "pitch": 45, "duration": 240, "velocity": 127}, {"time": 110880, "pitch": 45, "duration": 64, "velocity": 127}, {"time": 111121, "pitch": 45, "duration": 166, "velocity": 127}, {"time": 111362, "pitch": 45, "duration": 232, "velocity": 127}, {"time": 111603, "pitch": 45, "duration": 159, "velocity": 127}, {"time": 112081, "pitch": 42, "duration": 16, "velocity": 127}, {"time": 112318, "pitch": 42, "duration": 80, "velocity": 127}, {"time": 112559, "pitch": 42, "duration": 158, "velocity": 127}, {"time": 113040, "pitch": 47, "duration": 5, "velocity": 127}, {"time": 113281, "pitch": 47, "duration": 93, "velocity": 127}, {"time": 113522, "pitch": 47, "duration": 157, "velocity": 127}, {"time": 113763, "pitch": 44, "duration": 228, "velocity": 127}, {"time": 114000, "pitch": 44, "duration": 79, "velocity": 127}, {"time": 114237, "pitch": 44, "duration": 155, "velocity": 127}, {"time": 114478, "pitch": 44, "duration": 214, "velocity": 127}, {"time": 114719, "pitch": 44, "duration": 70, "velocity": 127}, {"time": 114959, "pitch": 44, "duration": 129, "velocity": 127}, {"time": 115200, "pitch": 44, "duration": 234, "velocity": 127}, {"time": 115441, "pitch": 44, "duration": 134, "velocity": 127}, {"time": 115682, "pitch": 45, "duration": 231, "velocity": 127}, {"time": 115923, "pitch": 45, "duration": 83, "velocity": 127}, {"time": 116164, "pitch": 45, "duration": 163, "velocity": 127}, {"time": 116401, "pitch": 45, "duration": 259, "velocity": 127}, {"time": 116638, "pitch": 47, "duration": 200, "velocity": 127}, {"time": 116879, "pitch": 47, "duration": 246, "velocity": 127}, {"time": 117119, "pitch": 48, "duration": 168, "velocity": 127}, {"time": 117360, "pitch": 48, "duration": 234, "velocity": 127}, {"time": 117601, "pitch": 49, "duration": 79, "velocity": 127}, {"time": 117842, "pitch": 49, "duration": 164, "velocity": 127}, {"time": 118083, "pitch": 49, "duration": 231, "velocity": 127}, {"time": 118320, "pitch": 49, "duration": 132, "velocity": 127}, {"time": 118798, "pitch": 49, "duration": 18, "velocity": 127}, {"time": 119039, "pitch": 47, "duration": 123, "velocity": 127}, {"time": 119279, "pitch": 42, "duration": 221, "velocity": 127}, {"time": 119520, "pitch": 42, "duration": 77, "velocity": 127}, {"time": 119761, "pitch": 42, "duration": 147, "velocity": 127}, {"time": 120002, "pitch": 42, "duration": 227, "velocity": 127}, {"time": 120243, "pitch": 42, "duration": 193, "velocity": 127}, {"time": 120484, "pitch": 47, "duration": 231, "velocity": 127}, {"time": 120721, "pitch": 47, "duration": 69, "velocity": 127}, {"time": 120958, "pitch": 47, "duration": 188, "velocity": 127}, {"time": 121199, "pitch": 47, "duration": 230, "velocity": 127}, {"time": 121680, "pitch": 52, "duration": 8, "velocity": 127}, {"time": 121921, "pitch": 52, "duration": 197, "velocity": 127}, {"time": 122162, "pitch": 52, "duration": 235, "velocity": 127}, {"time": 122403, "pitch": 52, "duration": 84, "velocity": 127}, {"time": 122640, "pitch": 52, "duration": 158, "velocity": 127}, {"time": 122877, "pitch": 52, "duration": 224, "velocity": 127}, {"time": 123118, "pitch": 52, "duration": 167, "velocity": 127}, {"time": 123359, "pitch": 47, "duration": 237, "velocity": 127}, {"time": 123599, "pitch": 47, "duration": 84, "velocity": 127}, {"time": 123840, "pitch": 47, "duration": 166, "velocity": 127}, {"time": 124081, "pitch": 47, "duration": 230, "velocity": 127}, {"time": 124322, "pitch": 47, "duration": 83, "velocity": 127}, {"time": 124563, "pitch": 47, "duration": 163, "velocity": 127}, {"time": 125041, "pitch": 47, "duration": 8, "velocity": 127}, {"time": 125278, "pitch": 45, "duration": 236, "velocity": 127}, {"time": 125519, "pitch": 45, "duration": 74, "velocity": 127}, {"time": 125759, "pitch": 45, "duration": 156, "velocity": 127}, {"time": 126000, "pitch": 45, "duration": 240, "velocity": 127}, {"time": 126241, "pitch": 45, "duration": 63, "velocity": 127}, {"time": 126482, "pitch": 45, "duration": 166, "velocity": 127}, {"time": 126723, "pitch": 45, "duration": 228, "velocity": 127}, {"time": 126960, "pitch": 45, "duration": 156, "velocity": 127}, {"time": 127438, "pitch": 42, "duration": 16, "velocity": 127}, {"time": 127679, "pitch": 42, "duration": 80, "velocity": 127}, {"time": 127920, "pitch": 42, "duration": 158, "velocity": 127}, {"time": 128401, "pitch": 47, "duration": 5, "velocity": 127}, {"time": 128642, "pitch": 47, "duration": 92, "velocity": 127}, {"time": 128883, "pitch": 47, "duration": 157, "velocity": 127}, {"time": 129124, "pitch": 44, "duration": 228, "velocity": 127}, {"time": 129361, "pitch": 44, "duration": 79, "velocity": 127}, {"time": 129598, "pitch": 44, "duration": 155, "velocity": 127}, {"time": 129839, "pitch": 44, "duration": 214, "velocity": 127}, {"time": 130080, "pitch": 44, "duration": 70, "velocity": 127}, {"time": 130320, "pitch": 44, "duration": 129, "velocity": 127}, {"time": 130561, "pitch": 44, "duration": 234, "velocity": 127}, {"time": 130802, "pitch": 44, "duration": 134, "velocity": 127}, {"time": 131043, "pitch": 45, "duration": 227, "velocity": 127}, {"time": 131280, "pitch": 45, "duration": 82, "velocity": 127}, {"time": 131517, "pitch": 45, "duration": 165, "velocity": 127}, {"time": 131758, "pitch": 45, "duration": 263, "velocity": 127}, {"time": 131999, "pitch": 47, "duration": 200, "velocity": 127}, {"time": 132480, "pitch": 47, "duration": 6, "velocity": 127}, {"time": 132721, "pitch": 47, "duration": 234, "velocity": 127}, {"time": 132962, "pitch": 42, "duration": 76, "velocity": 127}, {"time": 133203, "pitch": 42, "duration": 147, "velocity": 127}, {"time": 133444, "pitch": 42, "duration": 223, "velocity": 127}, {"time": 133681, "pitch": 42, "duration": 189, "velocity": 127}, {"time": 133918, "pitch": 47, "duration": 235, "velocity": 127}, {"time": 134159, "pitch": 47, "duration": 70, "velocity": 127}, {"time": 134400, "pitch": 47, "duration": 188, "velocity": 127}, {"time": 134640, "pitch": 47, "duration": 231, "velocity": 127}, {"time": 135363, "pitch": 73, "duration": 118, "velocity": 127}, {"time": 135481, "pitch": 75, "duration": 119, "velocity": 127}, {"time": 135600, "pitch": 76, "duration": 118, "velocity": 127}, {"time": 135718, "pitch": 75, "duration": 239, "velocity": 127}, {"time": 135957, "pitch": 71, "duration": 241, "velocity": 127}, {"time": 136198, "pitch": 71, "duration": 241, "velocity": 127}, {"time": 136439, "pitch": 75, "duration": 361, "velocity": 127}, {"time": 136800, "pitch": 75, "duration": 362, "velocity": 127}, {"time": 137162, "pitch": 76, "duration": 361, "velocity": 127}, {"time": 137523, "pitch": 73, "duration": 1678, "velocity": 127}, {"time": 139201, "pitch": 73, "duration": 121, "velocity": 127}, {"time": 139322, "pitch": 75, "duration": 120, "velocity": 127}, {"time": 139442, "pitch": 76, "duration": 121, "velocity": 127}, {"time": 139563, "pitch": 75, "duration": 238, "velocity": 127}, {"time": 139801, "pitch": 71, "duration": 237, "velocity": 127}, {"time": 140038, "pitch": 71, "duration": 239, "velocity": 127}, {"time": 140277, "pitch": 68, "duration": 362, "velocity": 127}, {"time": 140639, "pitch": 66, "duration": 361, "velocity": 127}, {"time": 141000, "pitch": 68, "duration": 1449, "velocity": 127}, {"time": 143040, "pitch": 73, "duration": 120, "velocity": 127}, {"time": 143160, "pitch": 75, "duration": 120, "velocity": 127}, {"time": 143280, "pitch": 76, "duration": 121, "velocity": 127}, {"time": 143401, "pitch": 75, "duration": 241, "velocity": 127}, {"time": 143642, "pitch": 71, "duration": 241, "velocity": 127}, {"time": 143883, "pitch": 71, "duration": 238, "velocity": 127}, {"time": 144121, "pitch": 75, "duration": 356, "velocity": 127}, {"time": 144477, "pitch": 75, "duration": 361, "velocity": 127}, {"time": 144838, "pitch": 76, "duration": 362, "velocity": 127}, {"time": 145200, "pitch": 73, "duration": 1678, "velocity": 127}, {"time": 146878, "pitch": 73, "duration": 120, "velocity": 127}, {"time": 146998, "pitch": 75, "duration": 121, "velocity": 127}, {"time": 147119, "pitch": 76, "duration": 120, "velocity": 127}, {"time": 147239, "pitch": 78, "duration": 241, "velocity": 127}, {"time": 147480, "pitch": 83, "duration": 241, "velocity": 127}, {"time": 147721, "pitch": 78, "duration": 241, "velocity": 127}, {"time": 147962, "pitch": 75, "duration": 241, "velocity": 127}, {"time": 148203, "pitch": 73, "duration": 1984, "velocity": 127}, {"time": 154321, "pitch": 52, "duration": 8, "velocity": 127}, {"time": 154562, "pitch": 52, "duration": 194, "velocity": 127}, {"time": 154799, "pitch": 52, "duration": 231, "velocity": 127}, {"time": 155036, "pitch": 52, "duration": 85, "velocity": 127}, {"time": 155277, "pitch": 52, "duration": 161, "velocity": 127}, {"time": 155518, "pitch": 52, "duration": 224, "velocity": 127}, {"time": 155759, "pitch": 52, "duration": 167, "velocity": 127}, {"time": 156000, "pitch": 47, "duration": 237, "velocity": 127}, {"time": 156240, "pitch": 47, "duration": 84, "velocity": 127}, {"time": 156481, "pitch": 47, "duration": 166, "velocity": 127}, {"time": 156722, "pitch": 47, "duration": 230, "velocity": 127}, {"time": 156963, "pitch": 47, "duration": 82, "velocity": 127}, {"time": 157200, "pitch": 47, "duration": 160, "velocity": 127}, {"time": 157678, "pitch": 47, "duration": 8, "velocity": 127}, {"time": 157919, "pitch": 45, "duration": 236, "velocity": 127}, {"time": 158160, "pitch": 45, "duration": 74, "velocity": 127}, {"time": 158400, "pitch": 45, "duration": 156, "velocity": 127}, {"time": 158641, "pitch": 45, "duration": 240, "velocity": 127}, {"time": 158882, "pitch": 45, "duration": 62, "velocity": 127}, {"time": 159119, "pitch": 45, "duration": 163, "velocity": 127}, {"time": 159356, "pitch": 45, "duration": 232, "velocity": 127}, {"time": 159597, "pitch": 45, "duration": 159, "velocity": 127}, {"time": 160079, "pitch": 42, "duration": 16, "velocity": 127}, {"time": 160320, "pitch": 42, "duration": 80, "velocity": 127}, {"time": 160560, "pitch": 42, "duration": 159, "velocity": 127}, {"time": 161042, "pitch": 47, "duration": 5, "velocity": 127}, {"time": 161283, "pitch": 47, "duration": 91, "velocity": 127}, {"time": 161520, "pitch": 47, "duration": 154, "velocity": 127}, {"time": 161757, "pitch": 44, "duration": 232, "velocity": 127}, {"time": 161998, "pitch": 44, "duration": 80, "velocity": 127}, {"time": 162239, "pitch": 44, "duration": 155, "velocity": 127}, {"time": 162480, "pitch": 44, "duration": 214, "velocity": 127}, {"time": 162720, "pitch": 44, "duration": 71, "velocity": 127}, {"time": 162961, "pitch": 44, "duration": 129, "velocity": 127}, {"time": 163202, "pitch": 44, "duration": 230, "velocity": 127}, {"time": 163439, "pitch": 44, "duration": 132, "velocity": 127}, {"time": 163676, "pitch": 45, "duration": 231, "velocity": 127}, {"time": 163917, "pitch": 45, "duration": 83, "velocity": 127}, {"time": 164158, "pitch": 45, "duration": 165, "velocity": 127}, {"time": 164399, "pitch": 45, "duration": 263, "velocity": 127}, {"time": 164640, "pitch": 47, "duration": 200, "velocity": 127}, {"time": 164880, "pitch": 47, "duration": 247, "velocity": 127}, {"time": 165121, "pitch": 48, "duration": 168, "velocity": 127}, {"time": 165362, "pitch": 48, "duration": 234, "velocity": 127}, {"time": 165603, "pitch": 49, "duration": 77, "velocity": 127}, {"time": 165840, "pitch": 49, "duration": 161, "velocity": 127}, {"time": 166077, "pitch": 49, "duration": 235, "velocity": 127}, {"time": 166318, "pitch": 49, "duration": 134, "velocity": 127}, {"time": 166800, "pitch": 49, "duration": 18, "velocity": 127}, {"time": 167040, "pitch": 47, "duration": 124, "velocity": 127}, {"time": 167281, "pitch": 42, "duration": 221, "velocity": 127}, {"time": 167522, "pitch": 42, "duration": 75, "velocity": 127}, {"time": 167759, "pitch": 42, "duration": 144, "velocity": 127}, {"time": 167996, "pitch": 42, "duration": 227, "velocity": 127}, {"time": 168237, "pitch": 42, "duration": 193, "velocity": 127}, {"time": 168478, "pitch": 47, "duration": 235, "velocity": 127}, {"time": 168719, "pitch": 47, "duration": 70, "velocity": 127}, {"time": 168960, "pitch": 47, "duration": 188, "velocity": 127}, {"time": 169200, "pitch": 47, "duration": 231, "velocity": 127}, {"time": 169682, "pitch": 52, "duration": 8, "velocity": 127}, {"time": 169923, "pitch": 52, "duration": 194, "velocity": 127}, {"time": 170160, "pitch": 52, "duration": 231, "velocity": 127}, {"time": 170397, "pitch": 52, "duration": 85, "velocity": 127}, {"time": 170638, "pitch": 52, "duration": 160, "velocity": 127}, {"time": 170879, "pitch": 52, "duration": 224, "velocity": 127}, {"time": 171120, "pitch": 52, "duration": 167, "velocity": 127}, {"time": 171361, "pitch": 47, "duration": 237, "velocity": 127}, {"time": 171601, "pitch": 47, "duration": 84, "velocity": 127}, {"time": 171842, "pitch": 47, "duration": 163, "velocity": 127}, {"time": 172079, "pitch": 47, "duration": 226, "velocity": 127}, {"time": 172316, "pitch": 47, "duration": 83, "velocity": 127}, {"time": 172557, "pitch": 47, "duration": 163, "velocity": 127}, {"time": 173039, "pitch": 47, "duration": 8, "velocity": 127}, {"time": 173280, "pitch": 45, "duration": 235, "velocity": 127}, {"time": 173521, "pitch": 45, "duration": 74, "velocity": 127}, {"time": 173761, "pitch": 45, "duration": 156, "velocity": 127}, {"time": 174002, "pitch": 45, "duration": 240, "velocity": 127}, {"time": 174243, "pitch": 45, "duration": 62, "velocity": 127}, {"time": 174480, "pitch": 45, "duration": 163, "velocity": 127}, {"time": 174717, "pitch": 45, "duration": 232, "velocity": 127}, {"time": 174958, "pitch": 45, "duration": 158, "velocity": 127}, {"time": 175440, "pitch": 42, "duration": 16, "velocity": 127}, {"time": 175681, "pitch": 42, "duration": 80, "velocity": 127}, {"time": 175921, "pitch": 42, "duration": 159, "velocity": 127}, {"time": 176399, "pitch": 47, "duration": 5, "velocity": 127}, {"time": 176636, "pitch": 47, "duration": 92, "velocity": 127}, {"time": 176877, "pitch": 47, "duration": 157, "velocity": 127}, {"time": 177118, "pitch": 44, "duration": 232, "velocity": 127}, {"time": 177359, "pitch": 44, "duration": 80, "velocity": 127}, {"time": 177600, "pitch": 44, "duration": 155, "velocity": 127}, {"time": 177841, "pitch": 44, "duration": 214, "velocity": 127}, {"time": 178081, "pitch": 44, "duration": 71, "velocity": 127}, {"time": 178322, "pitch": 44, "duration": 129, "velocity": 127}, {"time": 178563, "pitch": 44, "duration": 230, "velocity": 127}, {"time": 178800, "pitch": 44, "duration": 131, "velocity": 127}, {"time": 179037, "pitch": 45, "duration": 231, "velocity": 127}, {"time": 179278, "pitch": 45, "duration": 83, "velocity": 127}, {"time": 179519, "pitch": 45, "duration": 165, "velocity": 127}, {"time": 179760, "pitch": 45, "duration": 263, "velocity": 127}, {"time": 180001, "pitch": 47, "duration": 200, "velocity": 127}, {"time": 180482, "pitch": 47, "duration": 6, "velocity": 127}, {"time": 180719, "pitch": 47, "duration": 230, "velocity": 127}, {"time": 180956, "pitch": 42, "duration": 76, "velocity": 127}, {"time": 181197, "pitch": 42, "duration": 147, "velocity": 127}, {"time": 181438, "pitch": 42, "duration": 227, "velocity": 127}, {"time": 181679, "pitch": 42, "duration": 192, "velocity": 127}, {"time": 181920, "pitch": 47, "duration": 235, "velocity": 127}, {"time": 182161, "pitch": 47, "duration": 70, "velocity": 127}, {"time": 182401, "pitch": 47, "duration": 189, "velocity": 127}, {"time": 182642, "pitch": 47, "duration": 231, "velocity": 127}, {"time": 183120, "pitch": 52, "duration": 8, "velocity": 127}, {"time": 183357, "pitch": 52, "duration": 197, "velocity": 127}, {"time": 183598, "pitch": 52, "duration": 235, "velocity": 127}, {"time": 183839, "pitch": 52, "duration": 85, "velocity": 127}, {"time": 184080, "pitch": 52, "duration": 160, "velocity": 127}, {"time": 184321, "pitch": 52, "duration": 223, "velocity": 127}, {"time": 184561, "pitch": 52, "duration": 168, "velocity": 127}, {"time": 201841, "pitch": 35, "duration": 173, "velocity": 127}, {"time": 201841, "pitch": 47, "duration": 195, "velocity": 127}, {"time": 202082, "pitch": 35, "duration": 147, "velocity": 127}, {"time": 202082, "pitch": 47, "duration": 153, "velocity": 127}, {"time": 202319, "pitch": 35, "duration": 319, "velocity": 127}, {"time": 202319, "pitch": 47, "duration": 323, "velocity": 127}], "annotations": [{"time": 271, "annotation": {"number": 7, "value": 52}, "group": "control_change"}, {"time": 292, "annotation": {"number": 11, "value": 120}, "group": "control_change"}, {"time": 313, "annotation": {"number": 10, "value": 4}, "group": "control_change"}, {"time": 334, "annotation": {"number": 91, "value": 50}, "group": "control_change"}, {"time": 354, "annotation": {"number": 93, "value": 20}, "group": "control_change"}, {"time": 375, "annotation": {"number": 94, "value": 0}, "group": "control_change"}, {"time": 396, "annotation": {"number": 101, "value": 0}, "group": "control_change"}, {"time": 417, "annotation": {"number": 100, "value": 0}, "group": "control_change"}, {"time": 438, "annotation": {"number": 6, "value": 12}, "group": "control_change"}, {"time": 459, "annotation": {"number": 101, "value": 127}, "group": "control_change"}, {"time": 479, "annotation": {"number": 100, "value": 127}, "group": "control_change"}]}, {"program": 0, "is_drum": false, "name": "BASS", "annotations": [{"time": 208, "annotation": {"number": 0, "value": 0}, "group": "control_change"}, {"time": 229, "annotation": {"number": 32, "value": 2}, "group": "control_change"}]}, {"program": 39, "is_drum": false, "name": "BASS", "notes": [{"time": 479, "pitch": 33, "duration": 1593, "velocity": 127}, {"time": 2157, "pitch": 32, "duration": 1809, "velocity": 127}, {"time": 4080, "pitch": 30, "duration": 3004, "velocity": 127}, {"time": 7200, "pitch": 30, "duration": 419, "velocity": 127}, {"time": 7682, "pitch": 32, "duration": 479, "velocity": 127}, {"time": 8163, "pitch": 33, "duration": 1605, "velocity": 127}, {"time": 9842, "pitch": 32, "duration": 1787, "velocity": 127}, {"time": 11761, "pitch": 30, "duration": 1719, "velocity": 127}, {"time": 13680, "pitch": 35, "duration": 161, "velocity": 127}, {"time": 13921, "pitch": 35, "duration": 151, "velocity": 127}, {"time": 14162, "pitch": 35, "duration": 152, "velocity": 127}, {"time": 15840, "pitch": 28, "duration": 168, "velocity": 127}, {"time": 16081, "pitch": 28, "duration": 191, "velocity": 127}, {"time": 16322, "pitch": 40, "duration": 229, "velocity": 127}, {"time": 16563, "pitch": 28, "duration": 82, "velocity": 127}, {"time": 16683, "pitch": 40, "duration": 123, "velocity": 127}, {"time": 16803, "pitch": 28, "duration": 167, "velocity": 127}, {"time": 17040, "pitch": 28, "duration": 229, "velocity": 127}, {"time": 17277, "pitch": 40, "duration": 235, "velocity": 127}, {"time": 17518, "pitch": 28, "duration": 125, "velocity": 127}, {"time": 17639, "pitch": 40, "duration": 145, "velocity": 127}, {"time": 17759, "pitch": 35, "duration": 202, "velocity": 127}, {"time": 18000, "pitch": 35, "duration": 193, "velocity": 127}, {"time": 18241, "pitch": 35, "duration": 215, "velocity": 127}, {"time": 18482, "pitch": 30, "duration": 112, "velocity": 127}, {"time": 18602, "pitch": 32, "duration": 90, "velocity": 127}, {"time": 18723, "pitch": 35, "duration": 233, "velocity": 127}, {"time": 18960, "pitch": 30, "duration": 114, "velocity": 127}, {"time": 19078, "pitch": 32, "duration": 51, "velocity": 127}, {"time": 19197, "pitch": 35, "duration": 117, "velocity": 127}, {"time": 19317, "pitch": 30, "duration": 120, "velocity": 127}, {"time": 19437, "pitch": 32, "duration": 116, "velocity": 127}, {"time": 19567, "pitch": 35, "duration": 117, "velocity": 127}, {"time": 19678, "pitch": 30, "duration": 171, "velocity": 127}, {"time": 19919, "pitch": 30, "duration": 224, "velocity": 127}, {"time": 20160, "pitch": 42, "duration": 235, "velocity": 127}, {"time": 20401, "pitch": 30, "duration": 90, "velocity": 127}, {"time": 20521, "pitch": 42, "duration": 148, "velocity": 127}, {"time": 20642, "pitch": 30, "duration": 174, "velocity": 127}, {"time": 20883, "pitch": 30, "duration": 227, "velocity": 127}, {"time": 21124, "pitch": 42, "duration": 211, "velocity": 127}, {"time": 21360, "pitch": 30, "duration": 113, "velocity": 127}, {"time": 21479, "pitch": 42, "duration": 139, "velocity": 127}, {"time": 21597, "pitch": 35, "duration": 202, "velocity": 127}, {"time": 21838, "pitch": 35, "duration": 193, "velocity": 127}, {"time": 22079, "pitch": 35, "duration": 215, "velocity": 127}, {"time": 22320, "pitch": 30, "duration": 112, "velocity": 127}, {"time": 22441, "pitch": 32, "duration": 89, "velocity": 127}, {"time": 22561, "pitch": 31, "duration": 170, "velocity": 127}, {"time": 22802, "pitch": 31, "duration": 232, "velocity": 127}, {"time": 23043, "pitch": 35, "duration": 231, "velocity": 127}, {"time": 23398, "pitch": 35, "duration": 4, "velocity": 127}, {"time": 23517, "pitch": 28, "duration": 167, "velocity": 127}, {"time": 23757, "pitch": 28, "duration": 191, "velocity": 127}, {"time": 23998, "pitch": 40, "duration": 229, "velocity": 127}, {"time": 24239, "pitch": 28, "duration": 82, "velocity": 127}, {"time": 24360, "pitch": 40, "duration": 123, "velocity": 127}, {"time": 24480, "pitch": 28, "duration": 170, "velocity": 127}, {"time": 24721, "pitch": 28, "duration": 232, "velocity": 127}, {"time": 24962, "pitch": 40, "duration": 235, "velocity": 127}, {"time": 25203, "pitch": 28, "duration": 124, "velocity": 127}, {"time": 25323, "pitch": 40, "duration": 145, "velocity": 127}, {"time": 25444, "pitch": 35, "duration": 198, "velocity": 127}, {"time": 25681, "pitch": 35, "duration": 189, "velocity": 127}, {"time": 25917, "pitch": 35, "duration": 215, "velocity": 127}, {"time": 26158, "pitch": 30, "duration": 113, "velocity": 127}, {"time": 26279, "pitch": 32, "duration": 89, "velocity": 127}, {"time": 26399, "pitch": 35, "duration": 237, "velocity": 127}, {"time": 26640, "pitch": 30, "duration": 117, "velocity": 127}, {"time": 26761, "pitch": 32, "duration": 52, "velocity": 127}, {"time": 26881, "pitch": 35, "duration": 117, "velocity": 127}, {"time": 27001, "pitch": 30, "duration": 121, "velocity": 127}, {"time": 27122, "pitch": 32, "duration": 115, "velocity": 127}, {"time": 27251, "pitch": 35, "duration": 118, "velocity": 127}, {"time": 27363, "pitch": 30, "duration": 168, "velocity": 127}, {"time": 27600, "pitch": 30, "duration": 220, "velocity": 127}, {"time": 27837, "pitch": 42, "duration": 234, "velocity": 127}, {"time": 28077, "pitch": 30, "duration": 91, "velocity": 127}, {"time": 28198, "pitch": 42, "duration": 147, "velocity": 127}, {"time": 28318, "pitch": 30, "duration": 175, "velocity": 127}, {"time": 28559, "pitch": 30, "duration": 227, "velocity": 127}, {"time": 28800, "pitch": 42, "duration": 215, "velocity": 127}, {"time": 29041, "pitch": 30, "duration": 114, "velocity": 127}, {"time": 29161, "pitch": 42, "duration": 141, "velocity": 127}, {"time": 29282, "pitch": 35, "duration": 202, "velocity": 127}, {"time": 29523, "pitch": 35, "duration": 192, "velocity": 127}, {"time": 29764, "pitch": 35, "duration": 211, "velocity": 127}, {"time": 30001, "pitch": 30, "duration": 110, "velocity": 127}, {"time": 30119, "pitch": 32, "duration": 88, "velocity": 127}, {"time": 30238, "pitch": 31, "duration": 169, "velocity": 127}, {"time": 30478, "pitch": 31, "duration": 232, "velocity": 127}, {"time": 30719, "pitch": 35, "duration": 235, "velocity": 127}, {"time": 31081, "pitch": 35, "duration": 4, "velocity": 127}, {"time": 31201, "pitch": 33, "duration": 212, "velocity": 127}, {"time": 31201, "pitch": 35, "duration": 6, "velocity": 127}, {"time": 31442, "pitch": 45, "duration": 73, "velocity": 127}, {"time": 31562, "pitch": 33, "duration": 57, "velocity": 127}, {"time": 31683, "pitch": 33, "duration": 217, "velocity": 127}, {"time": 31920, "pitch": 45, "duration": 91, "velocity": 127}, {"time": 32038, "pitch": 33, "duration": 72, "velocity": 127}, {"time": 32157, "pitch": 33, "duration": 208, "velocity": 127}, {"time": 32397, "pitch": 45, "duration": 90, "velocity": 127}, {"time": 32518, "pitch": 33, "duration": 72, "velocity": 127}, {"time": 32638, "pitch": 33, "duration": 186, "velocity": 127}, {"time": 32879, "pitch": 45, "duration": 128, "velocity": 127}, {"time": 33000, "pitch": 33, "duration": 100, "velocity": 127}, {"time": 33120, "pitch": 35, "duration": 199, "velocity": 127}, {"time": 33361, "pitch": 47, "duration": 92, "velocity": 127}, {"time": 33481, "pitch": 35, "duration": 70, "velocity": 127}, {"time": 33602, "pitch": 35, "duration": 219, "velocity": 127}, {"time": 33843, "pitch": 47, "duration": 145, "velocity": 127}, {"time": 33963, "pitch": 35, "duration": 79, "velocity": 127}, {"time": 34084, "pitch": 36, "duration": 199, "velocity": 127}, {"time": 34321, "pitch": 48, "duration": 104, "velocity": 127}, {"time": 34439, "pitch": 36, "duration": 72, "velocity": 127}, {"time": 34558, "pitch": 36, "duration": 232, "velocity": 127}, {"time": 34798, "pitch": 48, "duration": 127, "velocity": 127}, {"time": 34919, "pitch": 36, "duration": 104, "velocity": 127}, {"time": 35039, "pitch": 37, "duration": 236, "velocity": 127}, {"time": 35280, "pitch": 49, "duration": 106, "velocity": 127}, {"time": 35401, "pitch": 37, "duration": 79, "velocity": 127}, {"time": 35521, "pitch": 37, "duration": 226, "velocity": 127}, {"time": 35762, "pitch": 49, "duration": 148, "velocity": 127}, {"time": 35882, "pitch": 37, "duration": 112, "velocity": 127}, {"time": 36003, "pitch": 35, "duration": 152, "velocity": 127}, {"time": 36240, "pitch": 35, "duration": 208, "velocity": 127}, {"time": 36477, "pitch": 47, "duration": 223, "velocity": 127}, {"time": 36717, "pitch": 35, "duration": 109, "velocity": 127}, {"time": 36838, "pitch": 47, "duration": 140, "velocity": 127}, {"time": 36958, "pitch": 33, "duration": 214, "velocity": 127}, {"time": 37199, "pitch": 45, "duration": 88, "velocity": 127}, {"time": 37320, "pitch": 33, "duration": 63, "velocity": 127}, {"time": 37440, "pitch": 33, "duration": 210, "velocity": 127}, {"time": 37681, "pitch": 45, "duration": 120, "velocity": 127}, {"time": 37801, "pitch": 33, "duration": 61, "velocity": 127}, {"time": 37922, "pitch": 33, "duration": 210, "velocity": 127}, {"time": 38163, "pitch": 45, "duration": 99, "velocity": 127}, {"time": 38283, "pitch": 33, "duration": 68, "velocity": 127}, {"time": 38404, "pitch": 33, "duration": 143, "velocity": 127}, {"time": 38641, "pitch": 35, "duration": 391, "velocity": 127}, {"time": 39118, "pitch": 35, "duration": 168, "velocity": 127}, {"time": 39359, "pitch": 35, "duration": 252, "velocity": 127}, {"time": 40797, "pitch": 40, "duration": 188, "velocity": 127}, {"time": 41038, "pitch": 40, "duration": 160, "velocity": 127}, {"time": 41278, "pitch": 40, "duration": 179, "velocity": 127}, {"time": 41519, "pitch": 40, "duration": 164, "velocity": 127}, {"time": 41760, "pitch": 40, "duration": 174, "velocity": 127}, {"time": 42001, "pitch": 40, "duration": 163, "velocity": 127}, {"time": 42242, "pitch": 40, "duration": 204, "velocity": 127}, {"time": 42483, "pitch": 35, "duration": 394, "velocity": 127}, {"time": 42961, "pitch": 35, "duration": 129, "velocity": 127}, {"time": 43198, "pitch": 35, "duration": 164, "velocity": 127}, {"time": 43438, "pitch": 35, "duration": 169, "velocity": 127}, {"time": 43679, "pitch": 35, "duration": 182, "velocity": 127}, {"time": 43920, "pitch": 37, "duration": 195, "velocity": 127}, {"time": 44161, "pitch": 39, "duration": 197, "velocity": 127}, {"time": 44402, "pitch": 33, "duration": 423, "velocity": 127}, {"time": 44880, "pitch": 33, "duration": 160, "velocity": 127}, {"time": 45117, "pitch": 33, "duration": 178, "velocity": 127}, {"time": 45358, "pitch": 33, "duration": 120, "velocity": 127}, {"time": 45478, "pitch": 35, "duration": 89, "velocity": 127}, {"time": 45598, "pitch": 37, "duration": 210, "velocity": 127}, {"time": 45839, "pitch": 35, "duration": 238, "velocity": 127}, {"time": 46080, "pitch": 33, "duration": 161, "velocity": 127}, {"time": 46321, "pitch": 30, "duration": 224, "velocity": 127}, {"time": 46562, "pitch": 30, "duration": 158, "velocity": 127}, {"time": 46803, "pitch": 30, "duration": 122, "velocity": 127}, {"time": 47044, "pitch": 30, "duration": 119, "velocity": 127}, {"time": 47281, "pitch": 30, "duration": 188, "velocity": 127}, {"time": 47518, "pitch": 35, "duration": 128, "velocity": 127}, {"time": 47758, "pitch": 35, "duration": 120, "velocity": 127}, {"time": 47999, "pitch": 35, "duration": 156, "velocity": 127}, {"time": 48240, "pitch": 35, "duration": 168, "velocity": 127}, {"time": 48481, "pitch": 32, "duration": 128, "velocity": 127}, {"time": 48722, "pitch": 32, "duration": 119, "velocity": 127}, {"time": 48963, "pitch": 32, "duration": 153, "velocity": 127}, {"time": 49200, "pitch": 32, "duration": 165, "velocity": 127}, {"time": 49437, "pitch": 32, "duration": 187, "velocity": 127}, {"time": 49678, "pitch": 32, "duration": 153, "velocity": 127}, {"time": 49918, "pitch": 39, "duration": 194, "velocity": 127}, {"time": 50159, "pitch": 32, "duration": 132, "velocity": 127}, {"time": 50400, "pitch": 33, "duration": 195, "velocity": 127}, {"time": 50641, "pitch": 33, "duration": 153, "velocity": 127}, {"time": 50882, "pitch": 33, "duration": 175, "velocity": 127}, {"time": 51123, "pitch": 33, "duration": 141, "velocity": 127}, {"time": 51364, "pitch": 35, "duration": 191, "velocity": 127}, {"time": 51601, "pitch": 35, "duration": 154, "velocity": 127}, {"time": 51838, "pitch": 36, "duration": 152, "velocity": 127}, {"time": 52078, "pitch": 36, "duration": 153, "velocity": 127}, {"time": 52319, "pitch": 37, "duration": 139, "velocity": 127}, {"time": 52560, "pitch": 37, "duration": 155, "velocity": 127}, {"time": 52801, "pitch": 37, "duration": 213, "velocity": 127}, {"time": 53042, "pitch": 39, "duration": 180, "velocity": 127}, {"time": 53283, "pitch": 40, "duration": 221, "velocity": 127}, {"time": 53520, "pitch": 39, "duration": 226, "velocity": 127}, {"time": 53757, "pitch": 37, "duration": 188, "velocity": 127}, {"time": 53998, "pitch": 30, "duration": 191, "velocity": 127}, {"time": 54238, "pitch": 30, "duration": 64, "velocity": 127}, {"time": 54359, "pitch": 30, "duration": 64, "velocity": 127}, {"time": 54479, "pitch": 30, "duration": 171, "velocity": 127}, {"time": 54720, "pitch": 42, "duration": 103, "velocity": 127}, {"time": 54841, "pitch": 37, "duration": 130, "velocity": 127}, {"time": 54961, "pitch": 39, "duration": 99, "velocity": 127}, {"time": 55081, "pitch": 42, "duration": 109, "velocity": 127}, {"time": 55202, "pitch": 35, "duration": 173, "velocity": 127}, {"time": 55443, "pitch": 35, "duration": 164, "velocity": 127}, {"time": 55684, "pitch": 35, "duration": 149, "velocity": 127}, {"time": 55921, "pitch": 35, "duration": 178, "velocity": 127}, {"time": 56158, "pitch": 40, "duration": 188, "velocity": 127}, {"time": 56398, "pitch": 40, "duration": 161, "velocity": 127}, {"time": 56639, "pitch": 40, "duration": 179, "velocity": 127}, {"time": 56880, "pitch": 40, "duration": 164, "velocity": 127}, {"time": 57121, "pitch": 40, "duration": 174, "velocity": 127}, {"time": 57362, "pitch": 40, "duration": 163, "velocity": 127}, {"time": 57603, "pitch": 40, "duration": 200, "velocity": 127}, {"time": 57840, "pitch": 35, "duration": 392, "velocity": 127}, {"time": 58318, "pitch": 35, "duration": 131, "velocity": 127}, {"time": 58558, "pitch": 35, "duration": 165, "velocity": 127}, {"time": 58799, "pitch": 35, "duration": 169, "velocity": 127}, {"time": 59040, "pitch": 35, "duration": 182, "velocity": 127}, {"time": 59281, "pitch": 37, "duration": 195, "velocity": 127}, {"time": 59522, "pitch": 39, "duration": 197, "velocity": 127}, {"time": 59763, "pitch": 33, "duration": 423, "velocity": 127}, {"time": 60241, "pitch": 33, "duration": 160, "velocity": 127}, {"time": 60478, "pitch": 33, "duration": 178, "velocity": 127}, {"time": 60718, "pitch": 33, "duration": 121, "velocity": 127}, {"time": 60839, "pitch": 35, "duration": 89, "velocity": 127}, {"time": 60959, "pitch": 37, "duration": 210, "velocity": 127}, {"time": 61200, "pitch": 35, "duration": 238, "velocity": 127}, {"time": 61441, "pitch": 33, "duration": 161, "velocity": 127}, {"time": 61682, "pitch": 30, "duration": 224, "velocity": 127}, {"time": 61923, "pitch": 30, "duration": 156, "velocity": 127}, {"time": 62160, "pitch": 30, "duration": 120, "velocity": 127}, {"time": 62397, "pitch": 30, "duration": 121, "velocity": 127}, {"time": 62638, "pitch": 30, "duration": 191, "velocity": 127}, {"time": 62878, "pitch": 35, "duration": 129, "velocity": 127}, {"time": 63119, "pitch": 35, "duration": 120, "velocity": 127}, {"time": 63360, "pitch": 35, "duration": 156, "velocity": 127}, {"time": 63601, "pitch": 35, "duration": 168, "velocity": 127}, {"time": 63842, "pitch": 32, "duration": 128, "velocity": 127}, {"time": 64083, "pitch": 32, "duration": 119, "velocity": 127}, {"time": 64324, "pitch": 32, "duration": 153, "velocity": 127}, {"time": 64561, "pitch": 32, "duration": 165, "velocity": 127}, {"time": 64798, "pitch": 32, "duration": 187, "velocity": 127}, {"time": 65038, "pitch": 32, "duration": 154, "velocity": 127}, {"time": 65279, "pitch": 39, "duration": 194, "velocity": 127}, {"time": 65520, "pitch": 32, "duration": 132, "velocity": 127}, {"time": 65761, "pitch": 33, "duration": 195, "velocity": 127}, {"time": 66002, "pitch": 33, "duration": 152, "velocity": 127}, {"time": 66243, "pitch": 33, "duration": 172, "velocity": 127}, {"time": 66480, "pitch": 33, "duration": 139, "velocity": 127}, {"time": 66717, "pitch": 35, "duration": 194, "velocity": 127}, {"time": 66958, "pitch": 35, "duration": 156, "velocity": 127}, {"time": 67198, "pitch": 35, "duration": 195, "velocity": 127}, {"time": 67439, "pitch": 35, "duration": 157, "velocity": 127}, {"time": 67680, "pitch": 30, "duration": 173, "velocity": 127}, {"time": 67921, "pitch": 30, "duration": 165, "velocity": 127}, {"time": 68162, "pitch": 30, "duration": 152, "velocity": 127}, {"time": 68403, "pitch": 30, "duration": 181, "velocity": 127}, {"time": 68644, "pitch": 35, "duration": 169, "velocity": 127}, {"time": 68881, "pitch": 35, "duration": 162, "velocity": 127}, {"time": 69118, "pitch": 35, "duration": 151, "velocity": 127}, {"time": 69358, "pitch": 35, "duration": 182, "velocity": 127}, {"time": 69599, "pitch": 28, "duration": 129, "velocity": 127}, {"time": 69840, "pitch": 28, "duration": 119, "velocity": 127}, {"time": 70081, "pitch": 28, "duration": 126, "velocity": 127}, {"time": 70322, "pitch": 28, "duration": 63, "velocity": 127}, {"time": 70442, "pitch": 28, "duration": 113, "velocity": 127}, {"time": 70681, "pitch": 28, "duration": 76, "velocity": 127}, {"time": 70918, "pitch": 28, "duration": 77, "velocity": 127}, {"time": 71037, "pitch": 40, "duration": 81, "velocity": 127}, {"time": 71157, "pitch": 28, "duration": 62, "velocity": 127}, {"time": 71278, "pitch": 28, "duration": 75, "velocity": 127}, {"time": 71398, "pitch": 40, "duration": 84, "velocity": 127}, {"time": 71518, "pitch": 28, "duration": 105, "velocity": 127}, {"time": 71759, "pitch": 28, "duration": 100, "velocity": 127}, {"time": 72000, "pitch": 28, "duration": 121, "velocity": 127}, {"time": 72241, "pitch": 28, "duration": 57, "velocity": 127}, {"time": 72362, "pitch": 28, "duration": 94, "velocity": 127}, {"time": 72602, "pitch": 28, "duration": 71, "velocity": 127}, {"time": 72723, "pitch": 40, "duration": 78, "velocity": 127}, {"time": 72843, "pitch": 28, "duration": 69, "velocity": 127}, {"time": 72964, "pitch": 40, "duration": 82, "velocity": 127}, {"time": 73082, "pitch": 28, "duration": 80, "velocity": 127}, {"time": 73201, "pitch": 40, "duration": 93, "velocity": 127}, {"time": 73319, "pitch": 27, "duration": 83, "velocity": 127}, {"time": 73438, "pitch": 37, "duration": 153, "velocity": 127}, {"time": 73678, "pitch": 37, "duration": 110, "velocity": 127}, {"time": 73919, "pitch": 37, "duration": 130, "velocity": 127}, {"time": 74160, "pitch": 37, "duration": 63, "velocity": 127}, {"time": 74281, "pitch": 37, "duration": 105, "velocity": 127}, {"time": 74522, "pitch": 37, "duration": 73, "velocity": 127}, {"time": 74762, "pitch": 37, "duration": 73, "velocity": 127}, {"time": 74883, "pitch": 25, "duration": 115, "velocity": 127}, {"time": 75001, "pitch": 37, "duration": 81, "velocity": 127}, {"time": 75120, "pitch": 25, "duration": 117, "velocity": 127}, {"time": 75238, "pitch": 25, "duration": 120, "velocity": 127}, {"time": 75357, "pitch": 33, "duration": 81, "velocity": 127}, {"time": 75598, "pitch": 33, "duration": 86, "velocity": 127}, {"time": 75838, "pitch": 33, "duration": 116, "velocity": 127}, {"time": 75959, "pitch": 33, "duration": 94, "velocity": 127}, {"time": 76079, "pitch": 33, "duration": 69, "velocity": 127}, {"time": 76200, "pitch": 35, "duration": 116, "velocity": 127}, {"time": 76441, "pitch": 35, "duration": 122, "velocity": 127}, {"time": 76682, "pitch": 35, "duration": 92, "velocity": 127}, {"time": 76802, "pitch": 35, "duration": 102, "velocity": 127}, {"time": 76922, "pitch": 35, "duration": 94, "velocity": 127}, {"time": 77043, "pitch": 35, "duration": 87, "velocity": 127}, {"time": 77163, "pitch": 35, "duration": 112, "velocity": 127}, {"time": 78962, "pitch": 35, "duration": 161, "velocity": 127}, {"time": 79203, "pitch": 35, "duration": 149, "velocity": 127}, {"time": 79440, "pitch": 35, "duration": 150, "velocity": 127}, {"time": 81122, "pitch": 28, "duration": 168, "velocity": 127}, {"time": 81363, "pitch": 28, "duration": 191, "velocity": 127}, {"time": 81604, "pitch": 40, "duration": 225, "velocity": 127}, {"time": 81841, "pitch": 28, "duration": 81, "velocity": 127}, {"time": 81959, "pitch": 40, "duration": 122, "velocity": 127}, {"time": 82078, "pitch": 28, "duration": 169, "velocity": 127}, {"time": 82318, "pitch": 28, "duration": 232, "velocity": 127}, {"time": 82559, "pitch": 40, "duration": 235, "velocity": 127}, {"time": 82800, "pitch": 28, "duration": 125, "velocity": 127}, {"time": 82921, "pitch": 40, "duration": 145, "velocity": 127}, {"time": 83041, "pitch": 35, "duration": 202, "velocity": 127}, {"time": 83282, "pitch": 35, "duration": 193, "velocity": 127}, {"time": 83523, "pitch": 35, "duration": 211, "velocity": 127}, {"time": 83760, "pitch": 30, "duration": 110, "velocity": 127}, {"time": 83878, "pitch": 32, "duration": 88, "velocity": 127}, {"time": 83997, "pitch": 35, "duration": 237, "velocity": 127}, {"time": 84238, "pitch": 30, "duration": 116, "velocity": 127}, {"time": 84358, "pitch": 32, "duration": 52, "velocity": 127}, {"time": 84479, "pitch": 35, "duration": 117, "velocity": 127}, {"time": 84599, "pitch": 30, "duration": 120, "velocity": 127}, {"time": 84719, "pitch": 32, "duration": 116, "velocity": 127}, {"time": 84849, "pitch": 35, "duration": 117, "velocity": 127}, {"time": 84960, "pitch": 30, "duration": 171, "velocity": 127}, {"time": 85201, "pitch": 30, "duration": 224, "velocity": 127}, {"time": 85442, "pitch": 42, "duration": 235, "velocity": 127}, {"time": 85683, "pitch": 30, "duration": 90, "velocity": 127}, {"time": 85803, "pitch": 42, "duration": 147, "velocity": 127}, {"time": 85924, "pitch": 30, "duration": 172, "velocity": 127}, {"time": 86161, "pitch": 30, "duration": 223, "velocity": 127}, {"time": 86398, "pitch": 42, "duration": 214, "velocity": 127}, {"time": 86639, "pitch": 30, "duration": 114, "velocity": 127}, {"time": 86759, "pitch": 42, "duration": 140, "velocity": 127}, {"time": 86879, "pitch": 35, "duration": 202, "velocity": 127}, {"time": 87120, "pitch": 35, "duration": 193, "velocity": 127}, {"time": 87361, "pitch": 35, "duration": 215, "velocity": 127}, {"time": 87602, "pitch": 30, "duration": 112, "velocity": 127}, {"time": 87722, "pitch": 32, "duration": 90, "velocity": 127}, {"time": 87843, "pitch": 31, "duration": 167, "velocity": 127}, {"time": 88080, "pitch": 31, "duration": 228, "velocity": 127}, {"time": 88317, "pitch": 35, "duration": 235, "velocity": 127}, {"time": 88678, "pitch": 35, "duration": 4, "velocity": 127}, {"time": 88799, "pitch": 28, "duration": 167, "velocity": 127}, {"time": 89039, "pitch": 28, "duration": 191, "velocity": 127}, {"time": 89280, "pitch": 40, "duration": 229, "velocity": 127}, {"time": 89521, "pitch": 28, "duration": 82, "velocity": 127}, {"time": 89642, "pitch": 40, "duration": 123, "velocity": 127}, {"time": 89762, "pitch": 28, "duration": 170, "velocity": 127}, {"time": 90003, "pitch": 28, "duration": 232, "velocity": 127}, {"time": 90244, "pitch": 40, "duration": 231, "velocity": 127}, {"time": 90481, "pitch": 28, "duration": 122, "velocity": 127}, {"time": 90599, "pitch": 40, "duration": 144, "velocity": 127}, {"time": 90718, "pitch": 35, "duration": 201, "velocity": 127}, {"time": 90959, "pitch": 35, "duration": 192, "velocity": 127}, {"time": 91199, "pitch": 35, "duration": 215, "velocity": 127}, {"time": 91440, "pitch": 30, "duration": 113, "velocity": 127}, {"time": 91561, "pitch": 32, "duration": 89, "velocity": 127}, {"time": 91681, "pitch": 35, "duration": 237, "velocity": 127}, {"time": 91922, "pitch": 30, "duration": 116, "velocity": 127}, {"time": 92042, "pitch": 32, "duration": 53, "velocity": 127}, {"time": 92163, "pitch": 35, "duration": 115, "velocity": 127}, {"time": 92281, "pitch": 30, "duration": 119, "velocity": 127}, {"time": 92400, "pitch": 32, "duration": 113, "velocity": 127}, {"time": 92527, "pitch": 35, "duration": 116, "velocity": 127}, {"time": 92637, "pitch": 30, "duration": 170, "velocity": 127}, {"time": 92878, "pitch": 30, "duration": 223, "velocity": 127}, {"time": 93119, "pitch": 42, "duration": 234, "velocity": 127}, {"time": 93359, "pitch": 30, "duration": 91, "velocity": 127}, {"time": 93480, "pitch": 42, "duration": 147, "velocity": 127}, {"time": 93600, "pitch": 30, "duration": 175, "velocity": 127}, {"time": 93841, "pitch": 30, "duration": 227, "velocity": 127}, {"time": 94082, "pitch": 42, "duration": 215, "velocity": 127}, {"time": 94323, "pitch": 30, "duration": 114, "velocity": 127}, {"time": 94443, "pitch": 42, "duration": 140, "velocity": 127}, {"time": 94564, "pitch": 35, "duration": 198, "velocity": 127}, {"time": 94801, "pitch": 35, "duration": 189, "velocity": 127}, {"time": 95038, "pitch": 35, "duration": 214, "velocity": 127}, {"time": 95279, "pitch": 30, "duration": 112, "velocity": 127}, {"time": 95399, "pitch": 32, "duration": 89, "velocity": 127}, {"time": 95519, "pitch": 31, "duration": 170, "velocity": 127}, {"time": 95760, "pitch": 31, "duration": 232, "velocity": 127}, {"time": 96001, "pitch": 35, "duration": 235, "velocity": 127}, {"time": 96362, "pitch": 35, "duration": 4, "velocity": 127}, {"time": 96483, "pitch": 33, "duration": 208, "velocity": 127}, {"time": 96483, "pitch": 35, "duration": 6, "velocity": 127}, {"time": 96720, "pitch": 45, "duration": 72, "velocity": 127}, {"time": 96838, "pitch": 33, "duration": 57, "velocity": 127}, {"time": 96957, "pitch": 33, "duration": 221, "velocity": 127}, {"time": 97198, "pitch": 45, "duration": 92, "velocity": 127}, {"time": 97318, "pitch": 33, "duration": 73, "velocity": 127}, {"time": 97439, "pitch": 33, "duration": 208, "velocity": 127}, {"time": 97679, "pitch": 45, "duration": 90, "velocity": 127}, {"time": 97800, "pitch": 33, "duration": 72, "velocity": 127}, {"time": 97920, "pitch": 33, "duration": 186, "velocity": 127}, {"time": 98161, "pitch": 45, "duration": 128, "velocity": 127}, {"time": 98282, "pitch": 33, "duration": 100, "velocity": 127}, {"time": 98402, "pitch": 35, "duration": 199, "velocity": 127}, {"time": 98643, "pitch": 47, "duration": 92, "velocity": 127}, {"time": 98763, "pitch": 35, "duration": 70, "velocity": 127}, {"time": 98884, "pitch": 35, "duration": 215, "velocity": 127}, {"time": 99121, "pitch": 47, "duration": 143, "velocity": 127}, {"time": 99239, "pitch": 35, "duration": 78, "velocity": 127}, {"time": 99358, "pitch": 36, "duration": 202, "velocity": 127}, {"time": 99599, "pitch": 48, "duration": 106, "velocity": 127}, {"time": 99719, "pitch": 36, "duration": 73, "velocity": 127}, {"time": 99839, "pitch": 36, "duration": 233, "velocity": 127}, {"time": 100080, "pitch": 48, "duration": 127, "velocity": 127}, {"time": 100201, "pitch": 36, "duration": 104, "velocity": 127}, {"time": 100321, "pitch": 37, "duration": 236, "velocity": 127}, {"time": 100562, "pitch": 49, "duration": 106, "velocity": 127}, {"time": 100682, "pitch": 37, "duration": 80, "velocity": 127}, {"time": 100803, "pitch": 37, "duration": 222, "velocity": 127}, {"time": 101040, "pitch": 49, "duration": 146, "velocity": 127}, {"time": 101158, "pitch": 37, "duration": 110, "velocity": 127}, {"time": 101277, "pitch": 35, "duration": 154, "velocity": 127}, {"time": 101518, "pitch": 35, "duration": 211, "velocity": 127}, {"time": 101759, "pitch": 47, "duration": 223, "velocity": 127}, {"time": 101999, "pitch": 35, "duration": 109, "velocity": 127}, {"time": 102120, "pitch": 47, "duration": 140, "velocity": 127}, {"time": 102240, "pitch": 33, "duration": 214, "velocity": 127}, {"time": 102481, "pitch": 45, "duration": 87, "velocity": 127}, {"time": 102602, "pitch": 33, "duration": 63, "velocity": 127}, {"time": 102722, "pitch": 33, "duration": 210, "velocity": 127}, {"time": 102963, "pitch": 45, "duration": 120, "velocity": 127}, {"time": 103083, "pitch": 33, "duration": 61, "velocity": 127}, {"time": 103204, "pitch": 33, "duration": 206, "velocity": 127}, {"time": 103441, "pitch": 45, "duration": 97, "velocity": 127}, {"time": 103559, "pitch": 33, "duration": 67, "velocity": 127}, {"time": 103678, "pitch": 33, "duration": 145, "velocity": 127}, {"time": 103919, "pitch": 35, "duration": 395, "velocity": 127}, {"time": 104400, "pitch": 35, "duration": 168, "velocity": 127}, {"time": 104641, "pitch": 35, "duration": 252, "velocity": 127}, {"time": 106079, "pitch": 40, "duration": 188, "velocity": 127}, {"time": 106319, "pitch": 40, "duration": 161, "velocity": 127}, {"time": 106560, "pitch": 40, "duration": 179, "velocity": 127}, {"time": 106801, "pitch": 40, "duration": 164, "velocity": 127}, {"time": 107042, "pitch": 40, "duration": 174, "velocity": 127}, {"time": 107283, "pitch": 40, "duration": 163, "velocity": 127}, {"time": 107524, "pitch": 40, "duration": 200, "velocity": 127}, {"time": 107761, "pitch": 35, "duration": 392, "velocity": 127}, {"time": 108239, "pitch": 35, "duration": 131, "velocity": 127}, {"time": 108479, "pitch": 35, "duration": 165, "velocity": 127}, {"time": 108720, "pitch": 35, "duration": 169, "velocity": 127}, {"time": 108961, "pitch": 35, "duration": 182, "velocity": 127}, {"time": 109202, "pitch": 37, "duration": 195, "velocity": 127}, {"time": 109443, "pitch": 39, "duration": 193, "velocity": 127}, {"time": 109680, "pitch": 33, "duration": 423, "velocity": 127}, {"time": 110158, "pitch": 33, "duration": 162, "velocity": 127}, {"time": 110399, "pitch": 33, "duration": 178, "velocity": 127}, {"time": 110639, "pitch": 33, "duration": 121, "velocity": 127}, {"time": 110760, "pitch": 35, "duration": 89, "velocity": 127}, {"time": 110880, "pitch": 37, "duration": 210, "velocity": 127}, {"time": 111121, "pitch": 35, "duration": 238, "velocity": 127}, {"time": 111362, "pitch": 33, "duration": 161, "velocity": 127}, {"time": 111603, "pitch": 30, "duration": 224, "velocity": 127}, {"time": 111844, "pitch": 30, "duration": 156, "velocity": 127}, {"time": 112081, "pitch": 30, "duration": 120, "velocity": 127}, {"time": 112318, "pitch": 30, "duration": 121, "velocity": 127}, {"time": 112559, "pitch": 30, "duration": 191, "velocity": 127}, {"time": 112799, "pitch": 35, "duration": 129, "velocity": 127}, {"time": 113040, "pitch": 35, "duration": 120, "velocity": 127}, {"time": 113281, "pitch": 35, "duration": 156, "velocity": 127}, {"time": 113522, "pitch": 35, "duration": 168, "velocity": 127}, {"time": 113763, "pitch": 32, "duration": 126, "velocity": 127}, {"time": 114000, "pitch": 32, "duration": 117, "velocity": 127}, {"time": 114237, "pitch": 32, "duration": 155, "velocity": 127}, {"time": 114478, "pitch": 32, "duration": 167, "velocity": 127}, {"time": 114719, "pitch": 32, "duration": 187, "velocity": 127}, {"time": 114959, "pitch": 32, "duration": 154, "velocity": 127}, {"time": 115200, "pitch": 39, "duration": 194, "velocity": 127}, {"time": 115441, "pitch": 32, "duration": 132, "velocity": 127}, {"time": 115682, "pitch": 33, "duration": 195, "velocity": 127}, {"time": 115923, "pitch": 33, "duration": 153, "velocity": 127}, {"time": 116164, "pitch": 33, "duration": 172, "velocity": 127}, {"time": 116401, "pitch": 33, "duration": 139, "velocity": 127}, {"time": 116638, "pitch": 35, "duration": 194, "velocity": 127}, {"time": 116879, "pitch": 35, "duration": 156, "velocity": 127}, {"time": 117119, "pitch": 36, "duration": 153, "velocity": 127}, {"time": 117360, "pitch": 36, "duration": 153, "velocity": 127}, {"time": 117601, "pitch": 37, "duration": 139, "velocity": 127}, {"time": 117842, "pitch": 37, "duration": 155, "velocity": 127}, {"time": 118083, "pitch": 37, "duration": 209, "velocity": 127}, {"time": 118320, "pitch": 39, "duration": 177, "velocity": 127}, {"time": 118557, "pitch": 40, "duration": 225, "velocity": 127}, {"time": 118798, "pitch": 39, "duration": 230, "velocity": 127}, {"time": 119039, "pitch": 37, "duration": 188, "velocity": 127}, {"time": 119279, "pitch": 30, "duration": 192, "velocity": 127}, {"time": 119520, "pitch": 30, "duration": 64, "velocity": 127}, {"time": 119641, "pitch": 30, "duration": 64, "velocity": 127}, {"time": 119761, "pitch": 30, "duration": 171, "velocity": 127}, {"time": 120002, "pitch": 42, "duration": 102, "velocity": 127}, {"time": 120123, "pitch": 37, "duration": 130, "velocity": 127}, {"time": 120243, "pitch": 39, "duration": 99, "velocity": 127}, {"time": 120363, "pitch": 42, "duration": 109, "velocity": 127}, {"time": 120484, "pitch": 35, "duration": 170, "velocity": 127}, {"time": 120721, "pitch": 35, "duration": 162, "velocity": 127}, {"time": 120958, "pitch": 35, "duration": 151, "velocity": 127}, {"time": 121199, "pitch": 35, "duration": 181, "velocity": 127}, {"time": 121439, "pitch": 40, "duration": 189, "velocity": 127}, {"time": 121680, "pitch": 40, "duration": 161, "velocity": 127}, {"time": 121921, "pitch": 40, "duration": 179, "velocity": 127}, {"time": 122162, "pitch": 40, "duration": 164, "velocity": 127}, {"time": 122403, "pitch": 40, "duration": 171, "velocity": 127}, {"time": 122640, "pitch": 40, "duration": 160, "velocity": 127}, {"time": 122877, "pitch": 40, "duration": 204, "velocity": 127}, {"time": 123118, "pitch": 35, "duration": 396, "velocity": 127}, {"time": 123599, "pitch": 35, "duration": 132, "velocity": 127}, {"time": 123840, "pitch": 35, "duration": 165, "velocity": 127}, {"time": 124081, "pitch": 35, "duration": 169, "velocity": 127}, {"time": 124322, "pitch": 35, "duration": 182, "velocity": 127}, {"time": 124563, "pitch": 37, "duration": 195, "velocity": 127}, {"time": 124804, "pitch": 39, "duration": 193, "velocity": 127}, {"time": 125041, "pitch": 33, "duration": 422, "velocity": 127}, {"time": 125519, "pitch": 33, "duration": 162, "velocity": 127}, {"time": 125759, "pitch": 33, "duration": 179, "velocity": 127}, {"time": 126000, "pitch": 33, "duration": 121, "velocity": 127}, {"time": 126121, "pitch": 35, "duration": 89, "velocity": 127}, {"time": 126241, "pitch": 37, "duration": 210, "velocity": 127}, {"time": 126482, "pitch": 35, "duration": 238, "velocity": 127}, {"time": 126723, "pitch": 33, "duration": 158, "velocity": 127}, {"time": 126960, "pitch": 30, "duration": 220, "velocity": 127}, {"time": 127197, "pitch": 30, "duration": 158, "velocity": 127}, {"time": 127438, "pitch": 30, "duration": 122, "velocity": 127}, {"time": 127679, "pitch": 30, "duration": 121, "velocity": 127}, {"time": 127920, "pitch": 30, "duration": 191, "velocity": 127}, {"time": 128160, "pitch": 35, "duration": 129, "velocity": 127}, {"time": 128401, "pitch": 35, "duration": 120, "velocity": 127}, {"time": 128642, "pitch": 35, "duration": 156, "velocity": 127}, {"time": 128883, "pitch": 35, "duration": 168, "velocity": 127}, {"time": 129124, "pitch": 32, "duration": 126, "velocity": 127}, {"time": 129361, "pitch": 32, "duration": 117, "velocity": 127}, {"time": 129598, "pitch": 32, "duration": 155, "velocity": 127}, {"time": 129839, "pitch": 32, "duration": 167, "velocity": 127}, {"time": 130080, "pitch": 32, "duration": 187, "velocity": 127}, {"time": 130320, "pitch": 32, "duration": 154, "velocity": 127}, {"time": 130561, "pitch": 39, "duration": 194, "velocity": 127}, {"time": 130802, "pitch": 32, "duration": 132, "velocity": 127}, {"time": 131043, "pitch": 33, "duration": 192, "velocity": 127}, {"time": 131280, "pitch": 33, "duration": 150, "velocity": 127}, {"time": 131517, "pitch": 33, "duration": 175, "velocity": 127}, {"time": 131758, "pitch": 33, "duration": 141, "velocity": 127}, {"time": 131999, "pitch": 35, "duration": 194, "velocity": 127}, {"time": 132240, "pitch": 35, "duration": 156, "velocity": 127}, {"time": 132480, "pitch": 35, "duration": 195, "velocity": 127}, {"time": 132721, "pitch": 35, "duration": 157, "velocity": 127}, {"time": 132962, "pitch": 30, "duration": 173, "velocity": 127}, {"time": 133203, "pitch": 30, "duration": 165, "velocity": 127}, {"time": 133444, "pitch": 30, "duration": 149, "velocity": 127}, {"time": 133681, "pitch": 30, "duration": 179, "velocity": 127}, {"time": 133918, "pitch": 35, "duration": 172, "velocity": 127}, {"time": 134159, "pitch": 35, "duration": 164, "velocity": 127}, {"time": 134400, "pitch": 35, "duration": 151, "velocity": 127}, {"time": 134640, "pitch": 35, "duration": 182, "velocity": 127}, {"time": 134881, "pitch": 33, "duration": 173, "velocity": 127}, {"time": 135122, "pitch": 33, "duration": 114, "velocity": 127}, {"time": 135363, "pitch": 33, "duration": 205, "velocity": 127}, {"time": 135600, "pitch": 45, "duration": 126, "velocity": 127}, {"time": 135718, "pitch": 35, "duration": 119, "velocity": 127}, {"time": 135957, "pitch": 35, "duration": 89, "velocity": 127}, {"time": 136198, "pitch": 35, "duration": 192, "velocity": 127}, {"time": 136439, "pitch": 47, "duration": 93, "velocity": 127}, {"time": 136560, "pitch": 35, "duration": 89, "velocity": 127}, {"time": 136680, "pitch": 47, "duration": 128, "velocity": 127}, {"time": 136800, "pitch": 37, "duration": 123, "velocity": 127}, {"time": 137041, "pitch": 37, "duration": 189, "velocity": 127}, {"time": 137282, "pitch": 49, "duration": 190, "velocity": 127}, {"time": 137523, "pitch": 37, "duration": 105, "velocity": 127}, {"time": 137643, "pitch": 44, "duration": 215, "velocity": 127}, {"time": 137882, "pitch": 37, "duration": 102, "velocity": 127}, {"time": 138001, "pitch": 47, "duration": 209, "velocity": 127}, {"time": 138238, "pitch": 37, "duration": 114, "velocity": 127}, {"time": 138358, "pitch": 42, "duration": 110, "velocity": 127}, {"time": 138479, "pitch": 44, "duration": 78, "velocity": 127}, {"time": 138599, "pitch": 47, "duration": 138, "velocity": 127}, {"time": 138720, "pitch": 33, "duration": 130, "velocity": 127}, {"time": 138960, "pitch": 33, "duration": 165, "velocity": 127}, {"time": 139201, "pitch": 45, "duration": 100, "velocity": 127}, {"time": 139322, "pitch": 33, "duration": 100, "velocity": 127}, {"time": 139442, "pitch": 45, "duration": 125, "velocity": 127}, {"time": 139563, "pitch": 35, "duration": 155, "velocity": 127}, {"time": 139801, "pitch": 35, "duration": 109, "velocity": 127}, {"time": 140038, "pitch": 35, "duration": 188, "velocity": 127}, {"time": 140277, "pitch": 47, "duration": 102, "velocity": 127}, {"time": 140398, "pitch": 35, "duration": 132, "velocity": 127}, {"time": 140518, "pitch": 47, "duration": 139, "velocity": 127}, {"time": 140639, "pitch": 40, "duration": 119, "velocity": 127}, {"time": 140880, "pitch": 40, "duration": 182, "velocity": 127}, {"time": 141120, "pitch": 52, "duration": 102, "velocity": 127}, {"time": 141241, "pitch": 28, "duration": 90, "velocity": 127}, {"time": 141241, "pitch": 40, "duration": 90, "velocity": 127}, {"time": 141361, "pitch": 35, "duration": 84, "velocity": 127}, {"time": 141361, "pitch": 47, "duration": 84, "velocity": 127}, {"time": 141482, "pitch": 37, "duration": 83, "velocity": 127}, {"time": 141482, "pitch": 49, "duration": 83, "velocity": 127}, {"time": 141602, "pitch": 28, "duration": 103, "velocity": 127}, {"time": 141602, "pitch": 40, "duration": 103, "velocity": 127}, {"time": 141723, "pitch": 40, "duration": 104, "velocity": 127}, {"time": 141723, "pitch": 52, "duration": 104, "velocity": 127}, {"time": 141843, "pitch": 28, "duration": 95, "velocity": 127}, {"time": 141843, "pitch": 40, "duration": 95, "velocity": 127}, {"time": 141963, "pitch": 35, "duration": 84, "velocity": 127}, {"time": 141963, "pitch": 47, "duration": 84, "velocity": 127}, {"time": 142084, "pitch": 28, "duration": 126, "velocity": 127}, {"time": 142084, "pitch": 40, "duration": 126, "velocity": 127}, {"time": 142202, "pitch": 37, "duration": 78, "velocity": 127}, {"time": 142202, "pitch": 49, "duration": 78, "velocity": 127}, {"time": 142321, "pitch": 40, "duration": 99, "velocity": 127}, {"time": 142321, "pitch": 52, "duration": 99, "velocity": 127}, {"time": 142439, "pitch": 35, "duration": 109, "velocity": 127}, {"time": 142439, "pitch": 47, "duration": 109, "velocity": 127}, {"time": 142558, "pitch": 33, "duration": 142, "velocity": 127}, {"time": 142799, "pitch": 33, "duration": 159, "velocity": 127}, {"time": 143040, "pitch": 45, "duration": 92, "velocity": 127}, {"time": 143160, "pitch": 33, "duration": 122, "velocity": 127}, {"time": 143280, "pitch": 45, "duration": 113, "velocity": 127}, {"time": 143401, "pitch": 35, "duration": 125, "velocity": 127}, {"time": 143642, "pitch": 35, "duration": 109, "velocity": 127}, {"time": 143883, "pitch": 35, "duration": 130, "velocity": 127}, {"time": 144121, "pitch": 47, "duration": 109, "velocity": 127}, {"time": 144240, "pitch": 35, "duration": 116, "velocity": 127}, {"time": 144358, "pitch": 47, "duration": 110, "velocity": 127}, {"time": 144477, "pitch": 37, "duration": 125, "velocity": 127}, {"time": 144718, "pitch": 37, "duration": 190, "velocity": 127}, {"time": 144959, "pitch": 49, "duration": 104, "velocity": 127}, {"time": 145079, "pitch": 44, "duration": 92, "velocity": 127}, {"time": 145200, "pitch": 47, "duration": 87, "velocity": 127}, {"time": 145320, "pitch": 49, "duration": 241, "velocity": 127}, {"time": 145561, "pitch": 30, "duration": 83, "velocity": 127}, {"time": 145561, "pitch": 42, "duration": 83, "velocity": 127}, {"time": 145681, "pitch": 32, "duration": 90, "velocity": 127}, {"time": 145681, "pitch": 44, "duration": 90, "velocity": 127}, {"time": 145802, "pitch": 35, "duration": 88, "velocity": 127}, {"time": 145802, "pitch": 47, "duration": 88, "velocity": 127}, {"time": 145922, "pitch": 37, "duration": 136, "velocity": 127}, {"time": 145922, "pitch": 49, "duration": 136, "velocity": 127}, {"time": 146043, "pitch": 35, "duration": 95, "velocity": 127}, {"time": 146043, "pitch": 47, "duration": 95, "velocity": 127}, {"time": 146163, "pitch": 32, "duration": 122, "velocity": 127}, {"time": 146163, "pitch": 44, "duration": 122, "velocity": 127}, {"time": 146283, "pitch": 30, "duration": 86, "velocity": 127}, {"time": 146283, "pitch": 42, "duration": 86, "velocity": 127}, {"time": 146404, "pitch": 33, "duration": 143, "velocity": 127}, {"time": 146641, "pitch": 33, "duration": 174, "velocity": 127}, {"time": 146878, "pitch": 45, "duration": 109, "velocity": 127}, {"time": 146998, "pitch": 33, "duration": 121, "velocity": 127}, {"time": 147119, "pitch": 45, "duration": 121, "velocity": 127}, {"time": 147239, "pitch": 35, "duration": 128, "velocity": 127}, {"time": 147480, "pitch": 35, "duration": 109, "velocity": 127}, {"time": 147721, "pitch": 35, "duration": 192, "velocity": 127}, {"time": 147962, "pitch": 47, "duration": 98, "velocity": 127}, {"time": 148082, "pitch": 35, "duration": 114, "velocity": 127}, {"time": 148203, "pitch": 47, "duration": 130, "velocity": 127}, {"time": 148323, "pitch": 37, "duration": 166, "velocity": 127}, {"time": 148560, "pitch": 37, "duration": 194, "velocity": 127}, {"time": 148797, "pitch": 49, "duration": 100, "velocity": 127}, {"time": 148917, "pitch": 37, "duration": 198, "velocity": 127}, {"time": 149158, "pitch": 37, "duration": 157, "velocity": 127}, {"time": 149399, "pitch": 37, "duration": 103, "velocity": 127}, {"time": 149520, "pitch": 49, "duration": 92, "velocity": 127}, {"time": 149640, "pitch": 37, "duration": 66, "velocity": 127}, {"time": 149760, "pitch": 37, "duration": 226, "velocity": 127}, {"time": 150001, "pitch": 37, "duration": 175, "velocity": 127}, {"time": 150001, "pitch": 49, "duration": 196, "velocity": 127}, {"time": 150242, "pitch": 30, "duration": 210, "velocity": 127}, {"time": 150242, "pitch": 44, "duration": 47, "velocity": 127}, {"time": 150479, "pitch": 42, "duration": 86, "velocity": 127}, {"time": 150598, "pitch": 30, "duration": 62, "velocity": 127}, {"time": 150716, "pitch": 30, "duration": 210, "velocity": 127}, {"time": 150957, "pitch": 42, "duration": 120, "velocity": 127}, {"time": 151077, "pitch": 30, "duration": 61, "velocity": 127}, {"time": 151198, "pitch": 30, "duration": 210, "velocity": 127}, {"time": 151439, "pitch": 42, "duration": 99, "velocity": 127}, {"time": 151559, "pitch": 30, "duration": 68, "velocity": 127}, {"time": 151680, "pitch": 30, "duration": 145, "velocity": 127}, {"time": 151920, "pitch": 35, "duration": 261, "velocity": 127}, {"time": 152402, "pitch": 35, "duration": 168, "velocity": 127}, {"time": 152643, "pitch": 35, "duration": 248, "velocity": 127}, {"time": 154080, "pitch": 40, "duration": 189, "velocity": 127}, {"time": 154321, "pitch": 40, "duration": 161, "velocity": 127}, {"time": 154562, "pitch": 40, "duration": 176, "velocity": 127}, {"time": 154799, "pitch": 40, "duration": 161, "velocity": 127}, {"time": 155036, "pitch": 40, "duration": 174, "velocity": 127}, {"time": 155277, "pitch": 40, "duration": 163, "velocity": 127}, {"time": 155518, "pitch": 40, "duration": 204, "velocity": 127}, {"time": 155759, "pitch": 35, "duration": 396, "velocity": 127}, {"time": 156240, "pitch": 35, "duration": 132, "velocity": 127}, {"time": 156481, "pitch": 35, "duration": 165, "velocity": 127}, {"time": 156722, "pitch": 35, "duration": 169, "velocity": 127}, {"time": 156963, "pitch": 35, "duration": 179, "velocity": 127}, {"time": 157200, "pitch": 37, "duration": 192, "velocity": 127}, {"time": 157437, "pitch": 39, "duration": 197, "velocity": 127}, {"time": 157678, "pitch": 33, "duration": 426, "velocity": 127}, {"time": 158160, "pitch": 33, "duration": 162, "velocity": 127}, {"time": 158400, "pitch": 33, "duration": 179, "velocity": 127}, {"time": 158641, "pitch": 33, "duration": 121, "velocity": 127}, {"time": 158762, "pitch": 35, "duration": 89, "velocity": 127}, {"time": 158882, "pitch": 37, "duration": 207, "velocity": 127}, {"time": 159119, "pitch": 35, "duration": 234, "velocity": 127}, {"time": 159356, "pitch": 33, "duration": 161, "velocity": 127}, {"time": 159597, "pitch": 30, "duration": 224, "velocity": 127}, {"time": 159838, "pitch": 30, "duration": 158, "velocity": 127}, {"time": 160079, "pitch": 30, "duration": 122, "velocity": 127}, {"time": 160320, "pitch": 30, "duration": 121, "velocity": 127}, {"time": 160560, "pitch": 30, "duration": 192, "velocity": 127}, {"time": 160801, "pitch": 35, "duration": 129, "velocity": 127}, {"time": 161042, "pitch": 35, "duration": 120, "velocity": 127}, {"time": 161283, "pitch": 35, "duration": 153, "velocity": 127}, {"time": 161520, "pitch": 35, "duration": 165, "velocity": 127}, {"time": 161757, "pitch": 32, "duration": 128, "velocity": 127}, {"time": 161998, "pitch": 32, "duration": 119, "velocity": 127}, {"time": 162239, "pitch": 32, "duration": 155, "velocity": 127}, {"time": 162480, "pitch": 32, "duration": 167, "velocity": 127}, {"time": 162720, "pitch": 32, "duration": 188, "velocity": 127}, {"time": 162961, "pitch": 32, "duration": 154, "velocity": 127}, {"time": 163202, "pitch": 39, "duration": 191, "velocity": 127}, {"time": 163439, "pitch": 32, "duration": 130, "velocity": 127}, {"time": 163676, "pitch": 33, "duration": 195, "velocity": 127}, {"time": 163917, "pitch": 33, "duration": 153, "velocity": 127}, {"time": 164158, "pitch": 33, "duration": 174, "velocity": 127}, {"time": 164399, "pitch": 33, "duration": 141, "velocity": 127}, {"time": 164640, "pitch": 35, "duration": 194, "velocity": 127}, {"time": 164880, "pitch": 35, "duration": 157, "velocity": 127}, {"time": 165121, "pitch": 36, "duration": 153, "velocity": 127}, {"time": 165362, "pitch": 36, "duration": 153, "velocity": 127}, {"time": 165603, "pitch": 37, "duration": 136, "velocity": 127}, {"time": 165840, "pitch": 37, "duration": 152, "velocity": 127}, {"time": 166077, "pitch": 37, "duration": 213, "velocity": 127}, {"time": 166318, "pitch": 39, "duration": 180, "velocity": 127}, {"time": 166559, "pitch": 40, "duration": 225, "velocity": 127}, {"time": 166800, "pitch": 39, "duration": 229, "velocity": 127}, {"time": 167040, "pitch": 37, "duration": 189, "velocity": 127}, {"time": 167281, "pitch": 30, "duration": 192, "velocity": 127}, {"time": 167522, "pitch": 30, "duration": 62, "velocity": 127}, {"time": 167641, "pitch": 30, "duration": 63, "velocity": 127}, {"time": 167759, "pitch": 30, "duration": 168, "velocity": 127}, {"time": 167996, "pitch": 42, "duration": 102, "velocity": 127}, {"time": 168117, "pitch": 37, "duration": 130, "velocity": 127}, {"time": 168237, "pitch": 39, "duration": 99, "velocity": 127}, {"time": 168357, "pitch": 42, "duration": 109, "velocity": 127}, {"time": 168478, "pitch": 35, "duration": 172, "velocity": 127}, {"time": 168719, "pitch": 35, "duration": 164, "velocity": 127}, {"time": 168960, "pitch": 35, "duration": 151, "velocity": 127}, {"time": 169200, "pitch": 35, "duration": 182, "velocity": 127}, {"time": 169441, "pitch": 40, "duration": 189, "velocity": 127}, {"time": 169682, "pitch": 40, "duration": 161, "velocity": 127}, {"time": 169923, "pitch": 40, "duration": 176, "velocity": 127}, {"time": 170160, "pitch": 40, "duration": 161, "velocity": 127}, {"time": 170397, "pitch": 40, "duration": 174, "velocity": 127}, {"time": 170638, "pitch": 40, "duration": 162, "velocity": 127}, {"time": 170879, "pitch": 40, "duration": 203, "velocity": 127}, {"time": 171120, "pitch": 35, "duration": 396, "velocity": 127}, {"time": 171601, "pitch": 35, "duration": 132, "velocity": 127}, {"time": 171842, "pitch": 35, "duration": 162, "velocity": 127}, {"time": 172079, "pitch": 35, "duration": 166, "velocity": 127}, {"time": 172316, "pitch": 35, "duration": 182, "velocity": 127}, {"time": 172557, "pitch": 37, "duration": 195, "velocity": 127}, {"time": 172798, "pitch": 39, "duration": 197, "velocity": 127}, {"time": 173039, "pitch": 33, "duration": 426, "velocity": 127}, {"time": 173521, "pitch": 33, "duration": 162, "velocity": 127}, {"time": 173761, "pitch": 33, "duration": 179, "velocity": 127}, {"time": 174002, "pitch": 33, "duration": 121, "velocity": 127}, {"time": 174123, "pitch": 35, "duration": 89, "velocity": 127}, {"time": 174243, "pitch": 37, "duration": 206, "velocity": 127}, {"time": 174480, "pitch": 35, "duration": 234, "velocity": 127}, {"time": 174717, "pitch": 33, "duration": 161, "velocity": 127}, {"time": 174958, "pitch": 30, "duration": 224, "velocity": 127}, {"time": 175199, "pitch": 30, "duration": 158, "velocity": 127}, {"time": 175440, "pitch": 30, "duration": 122, "velocity": 127}, {"time": 175681, "pitch": 30, "duration": 121, "velocity": 127}, {"time": 175921, "pitch": 30, "duration": 192, "velocity": 127}, {"time": 176162, "pitch": 35, "duration": 127, "velocity": 127}, {"time": 176399, "pitch": 35, "duration": 118, "velocity": 127}, {"time": 176636, "pitch": 35, "duration": 156, "velocity": 127}, {"time": 176877, "pitch": 35, "duration": 168, "velocity": 127}, {"time": 177118, "pitch": 32, "duration": 128, "velocity": 127}, {"time": 177359, "pitch": 32, "duration": 119, "velocity": 127}, {"time": 177600, "pitch": 32, "duration": 155, "velocity": 127}, {"time": 177841, "pitch": 32, "duration": 167, "velocity": 127}, {"time": 178081, "pitch": 32, "duration": 188, "velocity": 127}, {"time": 178322, "pitch": 32, "duration": 154, "velocity": 127}, {"time": 178563, "pitch": 39, "duration": 191, "velocity": 127}, {"time": 178800, "pitch": 32, "duration": 129, "velocity": 127}, {"time": 179037, "pitch": 33, "duration": 195, "velocity": 127}, {"time": 179278, "pitch": 33, "duration": 152, "velocity": 127}, {"time": 179519, "pitch": 33, "duration": 174, "velocity": 127}, {"time": 179760, "pitch": 33, "duration": 141, "velocity": 127}, {"time": 180001, "pitch": 35, "duration": 194, "velocity": 127}, {"time": 180241, "pitch": 35, "duration": 157, "velocity": 127}, {"time": 180482, "pitch": 35, "duration": 192, "velocity": 127}, {"time": 180719, "pitch": 35, "duration": 154, "velocity": 127}, {"time": 180956, "pitch": 30, "duration": 173, "velocity": 127}, {"time": 181197, "pitch": 30, "duration": 165, "velocity": 127}, {"time": 181438, "pitch": 30, "duration": 151, "velocity": 127}, {"time": 181679, "pitch": 30, "duration": 181, "velocity": 127}, {"time": 181920, "pitch": 35, "duration": 172, "velocity": 127}, {"time": 182161, "pitch": 35, "duration": 164, "velocity": 127}, {"time": 182401, "pitch": 35, "duration": 152, "velocity": 127}, {"time": 182642, "pitch": 35, "duration": 182, "velocity": 127}, {"time": 182883, "pitch": 40, "duration": 186, "velocity": 127}, {"time": 183120, "pitch": 40, "duration": 158, "velocity": 127}, {"time": 183357, "pitch": 40, "duration": 179, "velocity": 127}, {"time": 183598, "pitch": 40, "duration": 164, "velocity": 127}, {"time": 183839, "pitch": 40, "duration": 173, "velocity": 127}, {"time": 184080, "pitch": 40, "duration": 162, "velocity": 127}, {"time": 184321, "pitch": 40, "duration": 203, "velocity": 127}, {"time": 184561, "pitch": 35, "duration": 156, "velocity": 127}, {"time": 184802, "pitch": 30, "duration": 211, "velocity": 127}, {"time": 185039, "pitch": 42, "duration": 86, "velocity": 127}, {"time": 185158, "pitch": 30, "duration": 62, "velocity": 127}, {"time": 185276, "pitch": 30, "duration": 210, "velocity": 127}, {"time": 185517, "pitch": 42, "duration": 120, "velocity": 127}, {"time": 185637, "pitch": 30, "duration": 61, "velocity": 127}, {"time": 185758, "pitch": 30, "duration": 210, "velocity": 127}, {"time": 185999, "pitch": 42, "duration": 99, "velocity": 127}, {"time": 186119, "pitch": 30, "duration": 68, "velocity": 127}, {"time": 186240, "pitch": 30, "duration": 145, "velocity": 127}, {"time": 186481, "pitch": 35, "duration": 395, "velocity": 127}, {"time": 186962, "pitch": 35, "duration": 168, "velocity": 127}, {"time": 187203, "pitch": 35, "duration": 248, "velocity": 127}, {"time": 188641, "pitch": 33, "duration": 1593, "velocity": 127}, {"time": 190319, "pitch": 32, "duration": 1803, "velocity": 127}, {"time": 192238, "pitch": 30, "duration": 3007, "velocity": 127}, {"time": 195361, "pitch": 30, "duration": 419, "velocity": 127}, {"time": 195843, "pitch": 32, "duration": 472, "velocity": 127}, {"time": 196317, "pitch": 33, "duration": 1609, "velocity": 127}, {"time": 197999, "pitch": 32, "duration": 1792, "velocity": 127}, {"time": 199922, "pitch": 30, "duration": 1720, "velocity": 127}, {"time": 201841, "pitch": 35, "duration": 161, "velocity": 127}, {"time": 202082, "pitch": 35, "duration": 149, "velocity": 127}, {"time": 202319, "pitch": 35, "duration": 150, "velocity": 127}, {"time": 204001, "pitch": 28, "duration": 1908, "velocity": 127}], "annotations": [{"time": 271, "annotation": {"number": 7, "value": 100}, "group": "control_change"}, {"time": 292, "annotation": {"number": 11, "value": 110}, "group": "control_change"}, {"time": 313, "annotation": {"number": 10, "value": 64}, "group": "control_change"}, {"time": 334, "annotation": {"number": 91, "value": 5}, "group": "control_change"}, {"time": 354, "annotation": {"number": 93, "value": 0}, "group": "control_change"}, {"time": 375, "annotation": {"number": 94, "value": 0}, "group": "control_change"}, {"time": 396, "annotation": {"number": 101, "value": 0}, "group": "control_change"}, {"time": 417, "annotation": {"number": 100, "value": 0}, "group": "control_change"}, {"time": 438, "annotation": {"number": 6, "value": 12}, "group": "control_change"}, {"time": 459, "annotation": {"number": 101, "value": 127}, "group": "control_change"}, {"time": 479, "annotation": {"number": 100, "value": 127}, "group": "control_change"}]}, {"program": 0, "is_drum": false, "name": "E.PIANO", "annotations": [{"time": 208, "annotation": {"number": 0, "value": 2}, "group": "control_change"}, {"time": 229, "annotation": {"number": 32, "value": 2}, "group": "control_change"}]}, {"program": 87, "is_drum": false, "name": "E.PIANO", "notes": [{"time": 479, "pitch": 83, "duration": 75, "velocity": 93}, {"time": 600, "pitch": 88, "duration": 75, "velocity": 93}, {"time": 720, "pitch": 90, "duration": 75, "velocity": 93}, {"time": 840, "pitch": 83, "duration": 76, "velocity": 93}, {"time": 961, "pitch": 95, "duration": 75, "velocity": 93}, {"time": 1081, "pitch": 83, "duration": 76, "velocity": 93}, {"time": 1202, "pitch": 88, "duration": 75, "velocity": 93}, {"time": 1322, "pitch": 90, "duration": 75, "velocity": 93}, {"time": 1443, "pitch": 83, "duration": 74, "velocity": 93}, {"time": 1561, "pitch": 88, "duration": 74, "velocity": 93}, {"time": 1680, "pitch": 90, "duration": 74, "velocity": 93}, {"time": 1798, "pitch": 83, "duration": 74, "velocity": 93}, {"time": 1917, "pitch": 95, "duration": 75, "velocity": 93}, {"time": 2037, "pitch": 83, "duration": 75, "velocity": 93}, {"time": 2157, "pitch": 88, "duration": 76, "velocity": 93}, {"time": 2278, "pitch": 90, "duration": 75, "velocity": 93}, {"time": 2398, "pitch": 83, "duration": 76, "velocity": 93}, {"time": 2519, "pitch": 88, "duration": 75, "velocity": 93}, {"time": 2639, "pitch": 90, "duration": 75, "velocity": 93}, {"time": 2760, "pitch": 83, "duration": 75, "velocity": 93}, {"time": 2880, "pitch": 95, "duration": 75, "velocity": 93}, {"time": 3000, "pitch": 83, "duration": 76, "velocity": 93}, {"time": 3121, "pitch": 88, "duration": 75, "velocity": 93}, {"time": 3241, "pitch": 90, "duration": 76, "velocity": 93}, {"time": 3362, "pitch": 83, "duration": 75, "velocity": 93}, {"time": 3482, "pitch": 88, "duration": 75, "velocity": 93}, {"time": 3603, "pitch": 90, "duration": 75, "velocity": 93}, {"time": 3723, "pitch": 83, "duration": 75, "velocity": 93}, {"time": 3843, "pitch": 95, "duration": 75, "velocity": 93}, {"time": 3962, "pitch": 83, "duration": 74, "velocity": 93}, {"time": 4080, "pitch": 88, "duration": 75, "velocity": 93}, {"time": 4199, "pitch": 90, "duration": 74, "velocity": 93}, {"time": 4317, "pitch": 83, "duration": 76, "velocity": 93}, {"time": 4438, "pitch": 88, "duration": 75, "velocity": 93}, {"time": 4558, "pitch": 90, "duration": 76, "velocity": 93}, {"time": 4679, "pitch": 83, "duration": 75, "velocity": 93}, {"time": 4799, "pitch": 95, "duration": 75, "velocity": 93}, {"time": 4920, "pitch": 83, "duration": 75, "velocity": 93}, {"time": 5040, "pitch": 88, "duration": 75, "velocity": 93}, {"time": 5160, "pitch": 90, "duration": 76, "velocity": 93}, {"time": 5281, "pitch": 83, "duration": 75, "velocity": 93}, {"time": 5401, "pitch": 88, "duration": 76, "velocity": 93}, {"time": 5522, "pitch": 90, "duration": 75, "velocity": 93}, {"time": 5642, "pitch": 83, "duration": 75, "velocity": 93}, {"time": 5763, "pitch": 95, "duration": 74, "velocity": 93}, {"time": 5881, "pitch": 83, "duration": 74, "velocity": 93}, {"time": 6000, "pitch": 88, "duration": 74, "velocity": 93}, {"time": 6118, "pitch": 90, "duration": 74, "velocity": 93}, {"time": 6237, "pitch": 83, "duration": 75, "velocity": 93}, {"time": 6357, "pitch": 88, "duration": 75, "velocity": 93}, {"time": 6477, "pitch": 90, "duration": 76, "velocity": 93}, {"time": 6598, "pitch": 83, "duration": 75, "velocity": 93}, {"time": 6718, "pitch": 95, "duration": 76, "velocity": 93}, {"time": 6839, "pitch": 83, "duration": 75, "velocity": 93}, {"time": 6959, "pitch": 88, "duration": 75, "velocity": 93}, {"time": 7080, "pitch": 90, "duration": 75, "velocity": 93}, {"time": 7200, "pitch": 42, "duration": 399, "velocity": 111}, {"time": 7200, "pitch": 57, "duration": 298, "velocity": 118}, {"time": 7200, "pitch": 61, "duration": 336, "velocity": 110}, {"time": 7200, "pitch": 64, "duration": 349, "velocity": 120}, {"time": 7200, "pitch": 83, "duration": 75, "velocity": 93}, {"time": 7320, "pitch": 88, "duration": 76, "velocity": 93}, {"time": 7441, "pitch": 90, "duration": 75, "velocity": 93}, {"time": 7561, "pitch": 83, "duration": 76, "velocity": 93}, {"time": 7682, "pitch": 44, "duration": 449, "velocity": 120}, {"time": 7682, "pitch": 59, "duration": 290, "velocity": 120}, {"time": 7682, "pitch": 63, "duration": 345, "velocity": 120}, {"time": 7682, "pitch": 66, "duration": 372, "velocity": 120}, {"time": 7682, "pitch": 95, "duration": 75, "velocity": 93}, {"time": 7802, "pitch": 83, "duration": 75, "velocity": 93}, {"time": 7923, "pitch": 88, "duration": 75, "velocity": 93}, {"time": 8043, "pitch": 90, "duration": 75, "velocity": 93}, {"time": 8163, "pitch": 45, "duration": 882, "velocity": 120}, {"time": 8163, "pitch": 61, "duration": 541, "velocity": 111}, {"time": 8163, "pitch": 64, "duration": 638, "velocity": 120}, {"time": 8163, "pitch": 68, "duration": 653, "velocity": 120}, {"time": 8163, "pitch": 83, "duration": 75, "velocity": 93}, {"time": 8282, "pitch": 88, "duration": 74, "velocity": 93}, {"time": 8400, "pitch": 90, "duration": 75, "velocity": 93}, {"time": 8519, "pitch": 83, "duration": 74, "velocity": 93}, {"time": 8637, "pitch": 95, "duration": 76, "velocity": 93}, {"time": 8758, "pitch": 83, "duration": 75, "velocity": 93}, {"time": 8878, "pitch": 61, "duration": 155, "velocity": 104}, {"time": 8878, "pitch": 88, "duration": 76, "velocity": 93}, {"time": 8999, "pitch": 64, "duration": 76, "velocity": 120}, {"time": 8999, "pitch": 90, "duration": 75, "velocity": 93}, {"time": 9119, "pitch": 45, "duration": 281, "velocity": 114}, {"time": 9119, "pitch": 61, "duration": 269, "velocity": 100}, {"time": 9119, "pitch": 64, "duration": 277, "velocity": 95}, {"time": 9119, "pitch": 66, "duration": 259, "velocity": 120}, {"time": 9119, "pitch": 83, "duration": 75, "velocity": 93}, {"time": 9240, "pitch": 88, "duration": 75, "velocity": 93}, {"time": 9360, "pitch": 90, "duration": 75, "velocity": 93}, {"time": 9480, "pitch": 45, "duration": 57, "velocity": 114}, {"time": 9480, "pitch": 61, "duration": 69, "velocity": 97}, {"time": 9480, "pitch": 64, "duration": 50, "velocity": 120}, {"time": 9480, "pitch": 68, "duration": 31, "velocity": 120}, {"time": 9480, "pitch": 83, "duration": 76, "velocity": 93}, {"time": 9601, "pitch": 95, "duration": 75, "velocity": 93}, {"time": 9721, "pitch": 83, "duration": 76, "velocity": 93}, {"time": 9842, "pitch": 44, "duration": 1110, "velocity": 120}, {"time": 9842, "pitch": 59, "duration": 799, "velocity": 120}, {"time": 9842, "pitch": 63, "duration": 879, "velocity": 120}, {"time": 9842, "pitch": 66, "duration": 794, "velocity": 120}, {"time": 9842, "pitch": 88, "duration": 75, "velocity": 93}, {"time": 9962, "pitch": 90, "duration": 75, "velocity": 93}, {"time": 10083, "pitch": 83, "duration": 74, "velocity": 93}, {"time": 10201, "pitch": 88, "duration": 74, "velocity": 93}, {"time": 10320, "pitch": 90, "duration": 74, "velocity": 93}, {"time": 10438, "pitch": 83, "duration": 74, "velocity": 93}, {"time": 10557, "pitch": 95, "duration": 75, "velocity": 93}, {"time": 10677, "pitch": 83, "duration": 75, "velocity": 93}, {"time": 10797, "pitch": 59, "duration": 162, "velocity": 120}, {"time": 10797, "pitch": 88, "duration": 76, "velocity": 93}, {"time": 10918, "pitch": 63, "duration": 83, "velocity": 120}, {"time": 10918, "pitch": 90, "duration": 75, "velocity": 93}, {"time": 11038, "pitch": 44, "duration": 276, "velocity": 120}, {"time": 11038, "pitch": 59, "duration": 275, "velocity": 117}, {"time": 11038, "pitch": 64, "duration": 259, "velocity": 120}, {"time": 11038, "pitch": 83, "duration": 76, "velocity": 93}, {"time": 11159, "pitch": 88, "duration": 75, "velocity": 93}, {"time": 11279, "pitch": 90, "duration": 75, "velocity": 93}, {"time": 11400, "pitch": 44, "duration": 73, "velocity": 120}, {"time": 11400, "pitch": 59, "duration": 59, "velocity": 92}, {"time": 11400, "pitch": 66, "duration": 47, "velocity": 110}, {"time": 11400, "pitch": 83, "duration": 75, "velocity": 93}, {"time": 11520, "pitch": 95, "duration": 75, "velocity": 93}, {"time": 11640, "pitch": 83, "duration": 76, "velocity": 93}, {"time": 11761, "pitch": 42, "duration": 1844, "velocity": 120}, {"time": 11761, "pitch": 57, "duration": 1752, "velocity": 120}, {"time": 11761, "pitch": 61, "duration": 1817, "velocity": 120}, {"time": 11761, "pitch": 64, "duration": 1803, "velocity": 120}, {"time": 11761, "pitch": 88, "duration": 75, "velocity": 93}, {"time": 11881, "pitch": 90, "duration": 76, "velocity": 93}, {"time": 12002, "pitch": 83, "duration": 75, "velocity": 93}, {"time": 12122, "pitch": 88, "duration": 75, "velocity": 93}, {"time": 12243, "pitch": 90, "duration": 75, "velocity": 93}, {"time": 12363, "pitch": 83, "duration": 75, "velocity": 93}, {"time": 12483, "pitch": 95, "duration": 75, "velocity": 93}, {"time": 12602, "pitch": 83, "duration": 74, "velocity": 93}, {"time": 12720, "pitch": 88, "duration": 75, "velocity": 93}, {"time": 12839, "pitch": 90, "duration": 74, "velocity": 93}, {"time": 12957, "pitch": 83, "duration": 76, "velocity": 93}, {"time": 13078, "pitch": 88, "duration": 75, "velocity": 93}, {"time": 13198, "pitch": 90, "duration": 76, "velocity": 93}, {"time": 13319, "pitch": 83, "duration": 75, "velocity": 93}, {"time": 13439, "pitch": 95, "duration": 75, "velocity": 93}, {"time": 13560, "pitch": 83, "duration": 75, "velocity": 93}, {"time": 13680, "pitch": 47, "duration": 153, "velocity": 120}, {"time": 13680, "pitch": 57, "duration": 153, "velocity": 120}, {"time": 13680, "pitch": 61, "duration": 179, "velocity": 119}, {"time": 13680, "pitch": 64, "duration": 163, "velocity": 120}, {"time": 13680, "pitch": 81, "duration": 189, "velocity": 93}, {"time": 13680, "pitch": 85, "duration": 210, "velocity": 93}, {"time": 13680, "pitch": 88, "duration": 193, "velocity": 93}, {"time": 13921, "pitch": 47, "duration": 156, "velocity": 120}, {"time": 13921, "pitch": 57, "duration": 138, "velocity": 109}, {"time": 13921, "pitch": 61, "duration": 154, "velocity": 108}, {"time": 13921, "pitch": 64, "duration": 134, "velocity": 120}, {"time": 14162, "pitch": 47, "duration": 152, "velocity": 120}, {"time": 14162, "pitch": 57, "duration": 123, "velocity": 120}, {"time": 14162, "pitch": 61, "duration": 158, "velocity": 120}, {"time": 14162, "pitch": 64, "duration": 152, "velocity": 120}, {"time": 15840, "pitch": 52, "duration": 1538, "velocity": 120}, {"time": 15840, "pitch": 59, "duration": 571, "velocity": 120}, {"time": 15840, "pitch": 64, "duration": 668, "velocity": 120}, {"time": 15840, "pitch": 68, "duration": 669, "velocity": 120}, {"time": 16563, "pitch": 59, "duration": 157, "velocity": 120}, {"time": 16683, "pitch": 64, "duration": 73, "velocity": 120}, {"time": 16803, "pitch": 59, "duration": 171, "velocity": 120}, {"time": 16803, "pitch": 64, "duration": 198, "velocity": 61}, {"time": 16803, "pitch": 66, "duration": 155, "velocity": 120}, {"time": 17040, "pitch": 64, "duration": 252, "velocity": 115}, {"time": 17040, "pitch": 68, "duration": 180, "velocity": 120}, {"time": 17277, "pitch": 59, "duration": 175, "velocity": 120}, {"time": 17759, "pitch": 47, "duration": 393, "velocity": 120}, {"time": 17759, "pitch": 59, "duration": 415, "velocity": 120}, {"time": 17759, "pitch": 63, "duration": 496, "velocity": 120}, {"time": 17759, "pitch": 66, "duration": 458, "velocity": 120}, {"time": 18482, "pitch": 59, "duration": 82, "velocity": 120}, {"time": 18602, "pitch": 61, "duration": 81, "velocity": 120}, {"time": 18723, "pitch": 59, "duration": 254, "velocity": 120}, {"time": 18723, "pitch": 61, "duration": 284, "velocity": 120}, {"time": 18723, "pitch": 63, "duration": 264, "velocity": 120}, {"time": 19078, "pitch": 59, "duration": 275, "velocity": 120}, {"time": 19078, "pitch": 61, "duration": 261, "velocity": 120}, {"time": 19078, "pitch": 66, "duration": 262, "velocity": 120}, {"time": 19678, "pitch": 42, "duration": 1822, "velocity": 120}, {"time": 19678, "pitch": 57, "duration": 566, "velocity": 120}, {"time": 19678, "pitch": 61, "duration": 630, "velocity": 120}, {"time": 19678, "pitch": 64, "duration": 637, "velocity": 120}, {"time": 20401, "pitch": 57, "duration": 141, "velocity": 120}, {"time": 20521, "pitch": 61, "duration": 88, "velocity": 120}, {"time": 20642, "pitch": 57, "duration": 628, "velocity": 120}, {"time": 20642, "pitch": 61, "duration": 595, "velocity": 120}, {"time": 20642, "pitch": 64, "duration": 288, "velocity": 120}, {"time": 21003, "pitch": 69, "duration": 236, "velocity": 120}, {"time": 21578, "pitch": 47, "duration": 906, "velocity": 100}, {"time": 21597, "pitch": 59, "duration": 567, "velocity": 120}, {"time": 21597, "pitch": 63, "duration": 630, "velocity": 120}, {"time": 21597, "pitch": 66, "duration": 637, "velocity": 120}, {"time": 22541, "pitch": 46, "duration": 424, "velocity": 100}, {"time": 22561, "pitch": 58, "duration": 259, "velocity": 120}, {"time": 22561, "pitch": 64, "duration": 289, "velocity": 120}, {"time": 22561, "pitch": 67, "duration": 269, "velocity": 120}, {"time": 22922, "pitch": 59, "duration": 275, "velocity": 120}, {"time": 22922, "pitch": 63, "duration": 261, "velocity": 120}, {"time": 22922, "pitch": 66, "duration": 262, "velocity": 120}, {"time": 23023, "pitch": 47, "duration": 418, "velocity": 100}, {"time": 23280, "pitch": 59, "duration": 80, "velocity": 120}, {"time": 23280, "pitch": 63, "duration": 118, "velocity": 120}, {"time": 23280, "pitch": 66, "duration": 121, "velocity": 120}, {"time": 23517, "pitch": 52, "duration": 1545, "velocity": 120}, {"time": 23517, "pitch": 59, "duration": 571, "velocity": 120}, {"time": 23517, "pitch": 64, "duration": 668, "velocity": 120}, {"time": 23517, "pitch": 68, "duration": 669, "velocity": 120}, {"time": 24239, "pitch": 59, "duration": 158, "velocity": 120}, {"time": 24360, "pitch": 64, "duration": 73, "velocity": 120}, {"time": 24480, "pitch": 59, "duration": 174, "velocity": 120}, {"time": 24480, "pitch": 64, "duration": 201, "velocity": 61}, {"time": 24480, "pitch": 66, "duration": 157, "velocity": 120}, {"time": 24721, "pitch": 64, "duration": 256, "velocity": 115}, {"time": 24721, "pitch": 68, "duration": 183, "velocity": 120}, {"time": 24962, "pitch": 59, "duration": 174, "velocity": 120}, {"time": 25444, "pitch": 47, "duration": 386, "velocity": 120}, {"time": 25444, "pitch": 59, "duration": 407, "velocity": 120}, {"time": 25444, "pitch": 63, "duration": 488, "velocity": 120}, {"time": 25444, "pitch": 66, "duration": 450, "velocity": 120}, {"time": 26158, "pitch": 59, "duration": 83, "velocity": 120}, {"time": 26279, "pitch": 61, "duration": 80, "velocity": 120}, {"time": 26399, "pitch": 59, "duration": 259, "velocity": 120}, {"time": 26399, "pitch": 61, "duration": 289, "velocity": 120}, {"time": 26399, "pitch": 63, "duration": 269, "velocity": 120}, {"time": 26761, "pitch": 59, "duration": 277, "velocity": 120}, {"time": 26761, "pitch": 61, "duration": 262, "velocity": 120}, {"time": 26761, "pitch": 66, "duration": 263, "velocity": 120}, {"time": 27363, "pitch": 42, "duration": 1819, "velocity": 120}, {"time": 27363, "pitch": 57, "duration": 558, "velocity": 120}, {"time": 27363, "pitch": 61, "duration": 621, "velocity": 120}, {"time": 27363, "pitch": 64, "duration": 628, "velocity": 120}, {"time": 28077, "pitch": 57, "duration": 142, "velocity": 120}, {"time": 28198, "pitch": 61, "duration": 87, "velocity": 120}, {"time": 28318, "pitch": 57, "duration": 631, "velocity": 120}, {"time": 28318, "pitch": 61, "duration": 598, "velocity": 120}, {"time": 28318, "pitch": 64, "duration": 288, "velocity": 120}, {"time": 28680, "pitch": 69, "duration": 238, "velocity": 120}, {"time": 29262, "pitch": 47, "duration": 899, "velocity": 100}, {"time": 29282, "pitch": 59, "duration": 564, "velocity": 120}, {"time": 29282, "pitch": 63, "duration": 627, "velocity": 120}, {"time": 29282, "pitch": 66, "duration": 634, "velocity": 120}, {"time": 30218, "pitch": 46, "duration": 424, "velocity": 100}, {"time": 30238, "pitch": 58, "duration": 258, "velocity": 120}, {"time": 30238, "pitch": 64, "duration": 289, "velocity": 120}, {"time": 30238, "pitch": 67, "duration": 268, "velocity": 120}, {"time": 30599, "pitch": 59, "duration": 277, "velocity": 120}, {"time": 30599, "pitch": 63, "duration": 263, "velocity": 120}, {"time": 30599, "pitch": 66, "duration": 264, "velocity": 120}, {"time": 30699, "pitch": 47, "duration": 425, "velocity": 100}, {"time": 30960, "pitch": 59, "duration": 81, "velocity": 120}, {"time": 30960, "pitch": 63, "duration": 121, "velocity": 120}, {"time": 30960, "pitch": 66, "duration": 124, "velocity": 120}, {"time": 31201, "pitch": 45, "duration": 1446, "velocity": 120}, {"time": 31201, "pitch": 61, "duration": 569, "velocity": 120}, {"time": 31201, "pitch": 64, "duration": 665, "velocity": 120}, {"time": 31201, "pitch": 68, "duration": 663, "velocity": 120}, {"time": 31920, "pitch": 61, "duration": 142, "velocity": 120}, {"time": 32038, "pitch": 64, "duration": 76, "velocity": 120}, {"time": 32157, "pitch": 61, "duration": 279, "velocity": 120}, {"time": 32157, "pitch": 64, "duration": 218, "velocity": 120}, {"time": 32157, "pitch": 66, "duration": 217, "velocity": 120}, {"time": 32518, "pitch": 61, "duration": 110, "velocity": 120}, {"time": 32518, "pitch": 64, "duration": 135, "velocity": 120}, {"time": 32518, "pitch": 68, "duration": 114, "velocity": 120}, {"time": 32759, "pitch": 47, "duration": 57, "velocity": 120}, {"time": 32879, "pitch": 47, "duration": 868, "velocity": 120}, {"time": 32879, "pitch": 59, "duration": 390, "velocity": 120}, {"time": 32879, "pitch": 63, "duration": 405, "velocity": 120}, {"time": 32879, "pitch": 66, "duration": 389, "velocity": 120}, {"time": 33361, "pitch": 59, "duration": 84, "velocity": 120}, {"time": 33361, "pitch": 63, "duration": 134, "velocity": 120}, {"time": 33361, "pitch": 66, "duration": 101, "velocity": 120}, {"time": 33602, "pitch": 59, "duration": 169, "velocity": 120}, {"time": 33602, "pitch": 63, "duration": 157, "velocity": 120}, {"time": 33602, "pitch": 66, "duration": 143, "velocity": 120}, {"time": 34084, "pitch": 48, "duration": 246, "velocity": 120}, {"time": 34084, "pitch": 60, "duration": 244, "velocity": 120}, {"time": 34084, "pitch": 63, "duration": 268, "velocity": 120}, {"time": 34084, "pitch": 68, "duration": 250, "velocity": 120}, {"time": 34439, "pitch": 48, "duration": 151, "velocity": 120}, {"time": 34439, "pitch": 60, "duration": 108, "velocity": 120}, {"time": 34439, "pitch": 63, "duration": 108, "velocity": 120}, {"time": 34439, "pitch": 68, "duration": 138, "velocity": 120}, {"time": 34798, "pitch": 49, "duration": 348, "velocity": 120}, {"time": 34798, "pitch": 59, "duration": 345, "velocity": 120}, {"time": 34798, "pitch": 64, "duration": 368, "velocity": 120}, {"time": 34798, "pitch": 68, "duration": 349, "velocity": 120}, {"time": 35280, "pitch": 49, "duration": 124, "velocity": 120}, {"time": 35280, "pitch": 59, "duration": 110, "velocity": 120}, {"time": 35280, "pitch": 64, "duration": 150, "velocity": 120}, {"time": 35280, "pitch": 68, "duration": 119, "velocity": 120}, {"time": 35521, "pitch": 49, "duration": 151, "velocity": 120}, {"time": 35521, "pitch": 59, "duration": 124, "velocity": 120}, {"time": 35521, "pitch": 64, "duration": 173, "velocity": 120}, {"time": 35521, "pitch": 68, "duration": 145, "velocity": 120}, {"time": 35762, "pitch": 47, "duration": 146, "velocity": 120}, {"time": 35762, "pitch": 59, "duration": 121, "velocity": 120}, {"time": 35762, "pitch": 63, "duration": 156, "velocity": 120}, {"time": 35762, "pitch": 66, "duration": 133, "velocity": 120}, {"time": 36003, "pitch": 47, "duration": 139, "velocity": 120}, {"time": 36003, "pitch": 59, "duration": 124, "velocity": 120}, {"time": 36003, "pitch": 63, "duration": 162, "velocity": 120}, {"time": 36003, "pitch": 66, "duration": 130, "velocity": 120}, {"time": 36240, "pitch": 47, "duration": 156, "velocity": 120}, {"time": 36240, "pitch": 59, "duration": 129, "velocity": 120}, {"time": 36240, "pitch": 63, "duration": 175, "velocity": 120}, {"time": 36240, "pitch": 66, "duration": 147, "velocity": 120}, {"time": 36477, "pitch": 49, "duration": 250, "velocity": 120}, {"time": 36477, "pitch": 59, "duration": 214, "velocity": 120}, {"time": 36477, "pitch": 63, "duration": 235, "velocity": 120}, {"time": 36477, "pitch": 68, "duration": 258, "velocity": 120}, {"time": 36717, "pitch": 45, "duration": 241, "velocity": 120}, {"time": 36717, "pitch": 57, "duration": 241, "velocity": 120}, {"time": 36717, "pitch": 61, "duration": 241, "velocity": 120}, {"time": 36717, "pitch": 64, "duration": 241, "velocity": 120}, {"time": 36958, "pitch": 42, "duration": 87, "velocity": 120}, {"time": 36958, "pitch": 57, "duration": 84, "velocity": 120}, {"time": 36958, "pitch": 61, "duration": 111, "velocity": 120}, {"time": 36958, "pitch": 64, "duration": 92, "velocity": 120}, {"time": 37199, "pitch": 42, "duration": 134, "velocity": 120}, {"time": 37199, "pitch": 57, "duration": 125, "velocity": 120}, {"time": 37199, "pitch": 61, "duration": 161, "velocity": 120}, {"time": 37199, "pitch": 64, "duration": 135, "velocity": 120}, {"time": 37440, "pitch": 42, "duration": 135, "velocity": 120}, {"time": 37440, "pitch": 57, "duration": 117, "velocity": 120}, {"time": 37440, "pitch": 61, "duration": 156, "velocity": 120}, {"time": 37440, "pitch": 64, "duration": 135, "velocity": 120}, {"time": 37681, "pitch": 42, "duration": 121, "velocity": 120}, {"time": 37681, "pitch": 57, "duration": 99, "velocity": 120}, {"time": 37681, "pitch": 61, "duration": 142, "velocity": 120}, {"time": 37681, "pitch": 64, "duration": 105, "velocity": 120}, {"time": 37922, "pitch": 42, "duration": 435, "velocity": 120}, {"time": 37922, "pitch": 57, "duration": 91, "velocity": 120}, {"time": 37922, "pitch": 61, "duration": 186, "velocity": 120}, {"time": 37922, "pitch": 64, "duration": 184, "velocity": 120}, {"time": 38163, "pitch": 57, "duration": 160, "velocity": 120}, {"time": 38283, "pitch": 61, "duration": 77, "velocity": 120}, {"time": 38404, "pitch": 42, "duration": 169, "velocity": 120}, {"time": 38404, "pitch": 57, "duration": 181, "velocity": 120}, {"time": 38404, "pitch": 61, "duration": 218, "velocity": 120}, {"time": 38404, "pitch": 64, "duration": 203, "velocity": 120}, {"time": 38641, "pitch": 47, "duration": 360, "velocity": 120}, {"time": 38641, "pitch": 59, "duration": 342, "velocity": 120}, {"time": 38641, "pitch": 64, "duration": 361, "velocity": 120}, {"time": 38641, "pitch": 68, "duration": 333, "velocity": 120}, {"time": 39118, "pitch": 47, "duration": 156, "velocity": 120}, {"time": 39118, "pitch": 59, "duration": 148, "velocity": 120}, {"time": 39118, "pitch": 63, "duration": 171, "velocity": 120}, {"time": 39118, "pitch": 66, "duration": 150, "velocity": 120}, {"time": 39359, "pitch": 47, "duration": 323, "velocity": 120}, {"time": 39359, "pitch": 59, "duration": 289, "velocity": 120}, {"time": 39359, "pitch": 63, "duration": 298, "velocity": 120}, {"time": 39359, "pitch": 66, "duration": 309, "velocity": 120}, {"time": 40797, "pitch": 52, "duration": 1545, "velocity": 120}, {"time": 40797, "pitch": 59, "duration": 571, "velocity": 120}, {"time": 40797, "pitch": 64, "duration": 668, "velocity": 120}, {"time": 40797, "pitch": 68, "duration": 669, "velocity": 120}, {"time": 41519, "pitch": 59, "duration": 158, "velocity": 120}, {"time": 41640, "pitch": 64, "duration": 73, "velocity": 120}, {"time": 41760, "pitch": 59, "duration": 174, "velocity": 120}, {"time": 41760, "pitch": 64, "duration": 201, "velocity": 61}, {"time": 41760, "pitch": 66, "duration": 157, "velocity": 120}, {"time": 42001, "pitch": 64, "duration": 256, "velocity": 115}, {"time": 42001, "pitch": 68, "duration": 183, "velocity": 120}, {"time": 42242, "pitch": 59, "duration": 175, "velocity": 120}, {"time": 42483, "pitch": 47, "duration": 390, "velocity": 120}, {"time": 42483, "pitch": 59, "duration": 768, "velocity": 120}, {"time": 42483, "pitch": 63, "duration": 849, "velocity": 120}, {"time": 42483, "pitch": 66, "duration": 811, "velocity": 120}, {"time": 42961, "pitch": 47, "duration": 92, "velocity": 120}, {"time": 43198, "pitch": 47, "duration": 1080, "velocity": 120}, {"time": 43438, "pitch": 59, "duration": 136, "velocity": 120}, {"time": 43559, "pitch": 61, "duration": 78, "velocity": 120}, {"time": 43679, "pitch": 59, "duration": 151, "velocity": 120}, {"time": 43679, "pitch": 61, "duration": 178, "velocity": 75}, {"time": 43679, "pitch": 63, "duration": 201, "velocity": 120}, {"time": 43920, "pitch": 61, "duration": 148, "velocity": 102}, {"time": 43920, "pitch": 63, "duration": 320, "velocity": 66}, {"time": 43920, "pitch": 66, "duration": 239, "velocity": 120}, {"time": 44161, "pitch": 59, "duration": 133, "velocity": 120}, {"time": 44402, "pitch": 45, "duration": 372, "velocity": 120}, {"time": 44402, "pitch": 57, "duration": 804, "velocity": 120}, {"time": 44402, "pitch": 59, "duration": 868, "velocity": 120}, {"time": 44402, "pitch": 61, "duration": 899, "velocity": 120}, {"time": 44402, "pitch": 64, "duration": 863, "velocity": 120}, {"time": 44880, "pitch": 45, "duration": 97, "velocity": 120}, {"time": 45117, "pitch": 45, "duration": 1085, "velocity": 120}, {"time": 45358, "pitch": 57, "duration": 86, "velocity": 120}, {"time": 45478, "pitch": 59, "duration": 274, "velocity": 120}, {"time": 45598, "pitch": 57, "duration": 163, "velocity": 106}, {"time": 45598, "pitch": 61, "duration": 181, "velocity": 120}, {"time": 45839, "pitch": 57, "duration": 29, "velocity": 42}, {"time": 45839, "pitch": 64, "duration": 302, "velocity": 120}, {"time": 46080, "pitch": 57, "duration": 144, "velocity": 120}, {"time": 46321, "pitch": 42, "duration": 341, "velocity": 120}, {"time": 46321, "pitch": 57, "duration": 340, "velocity": 119}, {"time": 46321, "pitch": 61, "duration": 376, "velocity": 120}, {"time": 46321, "pitch": 64, "duration": 342, "velocity": 120}, {"time": 46803, "pitch": 42, "duration": 93, "velocity": 120}, {"time": 46803, "pitch": 57, "duration": 79, "velocity": 118}, {"time": 46803, "pitch": 61, "duration": 114, "velocity": 120}, {"time": 46803, "pitch": 64, "duration": 94, "velocity": 120}, {"time": 47044, "pitch": 42, "duration": 96, "velocity": 120}, {"time": 47044, "pitch": 57, "duration": 89, "velocity": 120}, {"time": 47044, "pitch": 61, "duration": 125, "velocity": 109}, {"time": 47044, "pitch": 64, "duration": 98, "velocity": 120}, {"time": 47281, "pitch": 42, "duration": 172, "velocity": 120}, {"time": 47281, "pitch": 57, "duration": 134, "velocity": 120}, {"time": 47281, "pitch": 61, "duration": 158, "velocity": 120}, {"time": 47281, "pitch": 64, "duration": 158, "velocity": 120}, {"time": 47518, "pitch": 47, "duration": 117, "velocity": 120}, {"time": 47518, "pitch": 59, "duration": 108, "velocity": 120}, {"time": 47518, "pitch": 63, "duration": 127, "velocity": 120}, {"time": 47518, "pitch": 66, "duration": 96, "velocity": 120}, {"time": 47758, "pitch": 47, "duration": 91, "velocity": 120}, {"time": 47758, "pitch": 59, "duration": 84, "velocity": 120}, {"time": 47758, "pitch": 63, "duration": 108, "velocity": 120}, {"time": 47758, "pitch": 66, "duration": 88, "velocity": 120}, {"time": 47999, "pitch": 47, "duration": 74, "velocity": 120}, {"time": 47999, "pitch": 59, "duration": 80, "velocity": 120}, {"time": 47999, "pitch": 63, "duration": 121, "velocity": 120}, {"time": 47999, "pitch": 66, "duration": 104, "velocity": 119}, {"time": 48240, "pitch": 47, "duration": 175, "velocity": 120}, {"time": 48240, "pitch": 59, "duration": 126, "velocity": 120}, {"time": 48240, "pitch": 63, "duration": 161, "velocity": 120}, {"time": 48240, "pitch": 66, "duration": 145, "velocity": 120}, {"time": 48481, "pitch": 44, "duration": 1579, "velocity": 120}, {"time": 48481, "pitch": 59, "duration": 565, "velocity": 120}, {"time": 48481, "pitch": 63, "duration": 627, "velocity": 120}, {"time": 48481, "pitch": 66, "duration": 634, "velocity": 120}, {"time": 49200, "pitch": 59, "duration": 139, "velocity": 120}, {"time": 49318, "pitch": 63, "duration": 86, "velocity": 120}, {"time": 49437, "pitch": 59, "duration": 630, "velocity": 120}, {"time": 49437, "pitch": 63, "duration": 597, "velocity": 120}, {"time": 49437, "pitch": 66, "duration": 288, "velocity": 120}, {"time": 49798, "pitch": 71, "duration": 238, "velocity": 120}, {"time": 50159, "pitch": 45, "duration": 370, "velocity": 120}, {"time": 50159, "pitch": 57, "duration": 367, "velocity": 120}, {"time": 50159, "pitch": 61, "duration": 401, "velocity": 120}, {"time": 50159, "pitch": 64, "duration": 379, "velocity": 120}, {"time": 50641, "pitch": 45, "duration": 87, "velocity": 120}, {"time": 50641, "pitch": 57, "duration": 70, "velocity": 120}, {"time": 50641, "pitch": 61, "duration": 111, "velocity": 120}, {"time": 50641, "pitch": 64, "duration": 80, "velocity": 120}, {"time": 50882, "pitch": 45, "duration": 109, "velocity": 120}, {"time": 50882, "pitch": 57, "duration": 109, "velocity": 120}, {"time": 50882, "pitch": 61, "duration": 188, "velocity": 120}, {"time": 50882, "pitch": 64, "duration": 188, "velocity": 120}, {"time": 51364, "pitch": 47, "duration": 363, "velocity": 120}, {"time": 51364, "pitch": 59, "duration": 360, "velocity": 120}, {"time": 51364, "pitch": 63, "duration": 394, "velocity": 120}, {"time": 51364, "pitch": 66, "duration": 372, "velocity": 120}, {"time": 51838, "pitch": 48, "duration": 225, "velocity": 120}, {"time": 51838, "pitch": 60, "duration": 157, "velocity": 120}, {"time": 51838, "pitch": 63, "duration": 243, "velocity": 120}, {"time": 51838, "pitch": 66, "duration": 203, "velocity": 120}, {"time": 52319, "pitch": 49, "duration": 148, "velocity": 120}, {"time": 52319, "pitch": 59, "duration": 116, "velocity": 120}, {"time": 52319, "pitch": 64, "duration": 165, "velocity": 120}, {"time": 52319, "pitch": 68, "duration": 147, "velocity": 120}, {"time": 52560, "pitch": 49, "duration": 115, "velocity": 120}, {"time": 52560, "pitch": 59, "duration": 112, "velocity": 120}, {"time": 52560, "pitch": 64, "duration": 145, "velocity": 109}, {"time": 52560, "pitch": 68, "duration": 120, "velocity": 120}, {"time": 52801, "pitch": 49, "duration": 119, "velocity": 120}, {"time": 52801, "pitch": 59, "duration": 96, "velocity": 120}, {"time": 52801, "pitch": 64, "duration": 137, "velocity": 120}, {"time": 52801, "pitch": 68, "duration": 124, "velocity": 120}, {"time": 53042, "pitch": 49, "duration": 152, "velocity": 120}, {"time": 53042, "pitch": 59, "duration": 115, "velocity": 120}, {"time": 53042, "pitch": 63, "duration": 143, "velocity": 120}, {"time": 53042, "pitch": 66, "duration": 128, "velocity": 120}, {"time": 53283, "pitch": 49, "duration": 159, "velocity": 120}, {"time": 53283, "pitch": 59, "duration": 145, "velocity": 120}, {"time": 53283, "pitch": 64, "duration": 169, "velocity": 120}, {"time": 53283, "pitch": 68, "duration": 157, "velocity": 120}, {"time": 53520, "pitch": 49, "duration": 149, "velocity": 120}, {"time": 53520, "pitch": 59, "duration": 124, "velocity": 120}, {"time": 53520, "pitch": 64, "duration": 155, "velocity": 120}, {"time": 53520, "pitch": 68, "duration": 144, "velocity": 120}, {"time": 53757, "pitch": 49, "duration": 152, "velocity": 120}, {"time": 53757, "pitch": 59, "duration": 105, "velocity": 120}, {"time": 53757, "pitch": 64, "duration": 155, "velocity": 120}, {"time": 53757, "pitch": 68, "duration": 146, "velocity": 120}, {"time": 53998, "pitch": 42, "duration": 376, "velocity": 120}, {"time": 53998, "pitch": 57, "duration": 349, "velocity": 120}, {"time": 53998, "pitch": 61, "duration": 355, "velocity": 120}, {"time": 53998, "pitch": 64, "duration": 345, "velocity": 120}, {"time": 54479, "pitch": 42, "duration": 84, "velocity": 120}, {"time": 54479, "pitch": 57, "duration": 64, "velocity": 120}, {"time": 54479, "pitch": 61, "duration": 104, "velocity": 120}, {"time": 54479, "pitch": 64, "duration": 75, "velocity": 120}, {"time": 54720, "pitch": 42, "duration": 108, "velocity": 120}, {"time": 54720, "pitch": 57, "duration": 78, "velocity": 120}, {"time": 54720, "pitch": 61, "duration": 113, "velocity": 120}, {"time": 54720, "pitch": 64, "duration": 85, "velocity": 120}, {"time": 54961, "pitch": 42, "duration": 153, "velocity": 120}, {"time": 54961, "pitch": 57, "duration": 114, "velocity": 120}, {"time": 54961, "pitch": 61, "duration": 149, "velocity": 120}, {"time": 54961, "pitch": 64, "duration": 152, "velocity": 120}, {"time": 55202, "pitch": 47, "duration": 92, "velocity": 120}, {"time": 55202, "pitch": 59, "duration": 87, "velocity": 120}, {"time": 55202, "pitch": 63, "duration": 109, "velocity": 120}, {"time": 55202, "pitch": 66, "duration": 89, "velocity": 120}, {"time": 55443, "pitch": 47, "duration": 80, "velocity": 120}, {"time": 55443, "pitch": 59, "duration": 78, "velocity": 120}, {"time": 55443, "pitch": 63, "duration": 115, "velocity": 120}, {"time": 55443, "pitch": 66, "duration": 83, "velocity": 120}, {"time": 55684, "pitch": 47, "duration": 100, "velocity": 120}, {"time": 55684, "pitch": 59, "duration": 84, "velocity": 120}, {"time": 55684, "pitch": 63, "duration": 119, "velocity": 120}, {"time": 55684, "pitch": 66, "duration": 101, "velocity": 120}, {"time": 55921, "pitch": 47, "duration": 110, "velocity": 120}, {"time": 55921, "pitch": 59, "duration": 80, "velocity": 120}, {"time": 55921, "pitch": 63, "duration": 118, "velocity": 120}, {"time": 55921, "pitch": 66, "duration": 121, "velocity": 120}, {"time": 56158, "pitch": 52, "duration": 1543, "velocity": 120}, {"time": 56158, "pitch": 59, "duration": 571, "velocity": 120}, {"time": 56158, "pitch": 64, "duration": 668, "velocity": 120}, {"time": 56158, "pitch": 68, "duration": 669, "velocity": 120}, {"time": 56880, "pitch": 59, "duration": 158, "velocity": 120}, {"time": 57001, "pitch": 64, "duration": 73, "velocity": 120}, {"time": 57121, "pitch": 59, "duration": 174, "velocity": 120}, {"time": 57121, "pitch": 64, "duration": 201, "velocity": 61}, {"time": 57121, "pitch": 66, "duration": 157, "velocity": 120}, {"time": 57362, "pitch": 64, "duration": 256, "velocity": 115}, {"time": 57362, "pitch": 68, "duration": 183, "velocity": 120}, {"time": 57603, "pitch": 59, "duration": 172, "velocity": 120}, {"time": 57840, "pitch": 47, "duration": 388, "velocity": 120}, {"time": 57840, "pitch": 59, "duration": 772, "velocity": 120}, {"time": 57840, "pitch": 63, "duration": 853, "velocity": 120}, {"time": 57840, "pitch": 66, "duration": 815, "velocity": 120}, {"time": 58318, "pitch": 47, "duration": 94, "velocity": 120}, {"time": 58558, "pitch": 47, "duration": 1081, "velocity": 120}, {"time": 58799, "pitch": 59, "duration": 136, "velocity": 120}, {"time": 58920, "pitch": 61, "duration": 78, "velocity": 120}, {"time": 59040, "pitch": 59, "duration": 151, "velocity": 120}, {"time": 59040, "pitch": 61, "duration": 178, "velocity": 75}, {"time": 59040, "pitch": 63, "duration": 201, "velocity": 120}, {"time": 59281, "pitch": 61, "duration": 148, "velocity": 102}, {"time": 59281, "pitch": 63, "duration": 320, "velocity": 66}, {"time": 59281, "pitch": 66, "duration": 239, "velocity": 120}, {"time": 59522, "pitch": 59, "duration": 133, "velocity": 120}, {"time": 59763, "pitch": 45, "duration": 372, "velocity": 120}, {"time": 59763, "pitch": 57, "duration": 804, "velocity": 120}, {"time": 59763, "pitch": 59, "duration": 868, "velocity": 120}, {"time": 59763, "pitch": 61, "duration": 899, "velocity": 120}, {"time": 59763, "pitch": 64, "duration": 863, "velocity": 120}, {"time": 60241, "pitch": 45, "duration": 97, "velocity": 120}, {"time": 60478, "pitch": 45, "duration": 1084, "velocity": 120}, {"time": 60718, "pitch": 57, "duration": 87, "velocity": 120}, {"time": 60839, "pitch": 59, "duration": 274, "velocity": 120}, {"time": 60959, "pitch": 57, "duration": 163, "velocity": 106}, {"time": 60959, "pitch": 61, "duration": 181, "velocity": 120}, {"time": 61200, "pitch": 57, "duration": 29, "velocity": 42}, {"time": 61200, "pitch": 64, "duration": 302, "velocity": 120}, {"time": 61441, "pitch": 57, "duration": 144, "velocity": 120}, {"time": 61682, "pitch": 42, "duration": 340, "velocity": 120}, {"time": 61682, "pitch": 57, "duration": 339, "velocity": 119}, {"time": 61682, "pitch": 61, "duration": 374, "velocity": 120}, {"time": 61682, "pitch": 64, "duration": 340, "velocity": 120}, {"time": 62160, "pitch": 42, "duration": 92, "velocity": 120}, {"time": 62160, "pitch": 57, "duration": 78, "velocity": 118}, {"time": 62160, "pitch": 61, "duration": 112, "velocity": 120}, {"time": 62160, "pitch": 64, "duration": 93, "velocity": 120}, {"time": 62397, "pitch": 42, "duration": 98, "velocity": 120}, {"time": 62397, "pitch": 57, "duration": 91, "velocity": 120}, {"time": 62397, "pitch": 61, "duration": 127, "velocity": 109}, {"time": 62397, "pitch": 64, "duration": 100, "velocity": 120}, {"time": 62638, "pitch": 42, "duration": 175, "velocity": 120}, {"time": 62638, "pitch": 57, "duration": 136, "velocity": 120}, {"time": 62638, "pitch": 61, "duration": 160, "velocity": 120}, {"time": 62638, "pitch": 64, "duration": 160, "velocity": 120}, {"time": 62878, "pitch": 47, "duration": 118, "velocity": 120}, {"time": 62878, "pitch": 59, "duration": 109, "velocity": 120}, {"time": 62878, "pitch": 63, "duration": 128, "velocity": 120}, {"time": 62878, "pitch": 66, "duration": 97, "velocity": 120}, {"time": 63119, "pitch": 47, "duration": 91, "velocity": 120}, {"time": 63119, "pitch": 59, "duration": 84, "velocity": 120}, {"time": 63119, "pitch": 63, "duration": 108, "velocity": 120}, {"time": 63119, "pitch": 66, "duration": 88, "velocity": 120}, {"time": 63360, "pitch": 47, "duration": 73, "velocity": 120}, {"time": 63360, "pitch": 59, "duration": 79, "velocity": 120}, {"time": 63360, "pitch": 63, "duration": 121, "velocity": 120}, {"time": 63360, "pitch": 66, "duration": 104, "velocity": 119}, {"time": 63601, "pitch": 47, "duration": 175, "velocity": 120}, {"time": 63601, "pitch": 59, "duration": 126, "velocity": 120}, {"time": 63601, "pitch": 63, "duration": 161, "velocity": 120}, {"time": 63601, "pitch": 66, "duration": 145, "velocity": 120}, {"time": 63842, "pitch": 44, "duration": 1579, "velocity": 120}, {"time": 63842, "pitch": 59, "duration": 565, "velocity": 120}, {"time": 63842, "pitch": 63, "duration": 627, "velocity": 120}, {"time": 63842, "pitch": 66, "duration": 634, "velocity": 120}, {"time": 64561, "pitch": 59, "duration": 139, "velocity": 120}, {"time": 64679, "pitch": 63, "duration": 86, "velocity": 120}, {"time": 64798, "pitch": 59, "duration": 630, "velocity": 120}, {"time": 64798, "pitch": 63, "duration": 597, "velocity": 120}, {"time": 64798, "pitch": 66, "duration": 288, "velocity": 120}, {"time": 65159, "pitch": 71, "duration": 238, "velocity": 120}, {"time": 65520, "pitch": 45, "duration": 370, "velocity": 120}, {"time": 65520, "pitch": 57, "duration": 367, "velocity": 120}, {"time": 65520, "pitch": 61, "duration": 401, "velocity": 120}, {"time": 65520, "pitch": 64, "duration": 379, "velocity": 120}, {"time": 66002, "pitch": 45, "duration": 87, "velocity": 120}, {"time": 66002, "pitch": 57, "duration": 70, "velocity": 120}, {"time": 66002, "pitch": 61, "duration": 111, "velocity": 120}, {"time": 66002, "pitch": 64, "duration": 80, "velocity": 120}, {"time": 66243, "pitch": 45, "duration": 107, "velocity": 120}, {"time": 66243, "pitch": 57, "duration": 107, "velocity": 120}, {"time": 66243, "pitch": 61, "duration": 184, "velocity": 120}, {"time": 66243, "pitch": 64, "duration": 184, "velocity": 120}, {"time": 66717, "pitch": 47, "duration": 369, "velocity": 120}, {"time": 66717, "pitch": 59, "duration": 366, "velocity": 120}, {"time": 66717, "pitch": 63, "duration": 400, "velocity": 120}, {"time": 66717, "pitch": 66, "duration": 378, "velocity": 120}, {"time": 67198, "pitch": 47, "duration": 226, "velocity": 120}, {"time": 67198, "pitch": 59, "duration": 158, "velocity": 120}, {"time": 67198, "pitch": 63, "duration": 244, "velocity": 120}, {"time": 67198, "pitch": 66, "duration": 204, "velocity": 120}, {"time": 67680, "pitch": 42, "duration": 108, "velocity": 120}, {"time": 67680, "pitch": 57, "duration": 78, "velocity": 120}, {"time": 67680, "pitch": 61, "duration": 113, "velocity": 120}, {"time": 67680, "pitch": 64, "duration": 86, "velocity": 120}, {"time": 67921, "pitch": 42, "duration": 83, "velocity": 120}, {"time": 67921, "pitch": 57, "duration": 63, "velocity": 120}, {"time": 67921, "pitch": 61, "duration": 103, "velocity": 120}, {"time": 67921, "pitch": 64, "duration": 74, "velocity": 120}, {"time": 68162, "pitch": 42, "duration": 107, "velocity": 120}, {"time": 68162, "pitch": 57, "duration": 78, "velocity": 120}, {"time": 68162, "pitch": 61, "duration": 112, "velocity": 120}, {"time": 68162, "pitch": 64, "duration": 85, "velocity": 120}, {"time": 68403, "pitch": 42, "duration": 152, "velocity": 120}, {"time": 68403, "pitch": 57, "duration": 114, "velocity": 120}, {"time": 68403, "pitch": 61, "duration": 148, "velocity": 120}, {"time": 68403, "pitch": 64, "duration": 151, "velocity": 120}, {"time": 68644, "pitch": 47, "duration": 90, "velocity": 120}, {"time": 68644, "pitch": 59, "duration": 86, "velocity": 120}, {"time": 68644, "pitch": 63, "duration": 107, "velocity": 120}, {"time": 68644, "pitch": 66, "duration": 88, "velocity": 120}, {"time": 68881, "pitch": 47, "duration": 79, "velocity": 120}, {"time": 68881, "pitch": 59, "duration": 77, "velocity": 120}, {"time": 68881, "pitch": 63, "duration": 113, "velocity": 120}, {"time": 68881, "pitch": 66, "duration": 82, "velocity": 120}, {"time": 69118, "pitch": 47, "duration": 102, "velocity": 120}, {"time": 69118, "pitch": 59, "duration": 85, "velocity": 120}, {"time": 69118, "pitch": 63, "duration": 121, "velocity": 120}, {"time": 69118, "pitch": 66, "duration": 103, "velocity": 120}, {"time": 69358, "pitch": 47, "duration": 113, "velocity": 120}, {"time": 69358, "pitch": 59, "duration": 82, "velocity": 120}, {"time": 69358, "pitch": 63, "duration": 121, "velocity": 120}, {"time": 69358, "pitch": 66, "duration": 124, "velocity": 120}, {"time": 69599, "pitch": 52, "duration": 401, "velocity": 120}, {"time": 69599, "pitch": 59, "duration": 375, "velocity": 108}, {"time": 69599, "pitch": 64, "duration": 380, "velocity": 109}, {"time": 69599, "pitch": 68, "duration": 368, "velocity": 120}, {"time": 70081, "pitch": 52, "duration": 271, "velocity": 107}, {"time": 70081, "pitch": 59, "duration": 263, "velocity": 92}, {"time": 70081, "pitch": 63, "duration": 268, "velocity": 120}, {"time": 70081, "pitch": 66, "duration": 250, "velocity": 117}, {"time": 70442, "pitch": 52, "duration": 105, "velocity": 101}, {"time": 70442, "pitch": 59, "duration": 93, "velocity": 76}, {"time": 70442, "pitch": 61, "duration": 133, "velocity": 81}, {"time": 70442, "pitch": 64, "duration": 107, "velocity": 95}, {"time": 70681, "pitch": 52, "duration": 107, "velocity": 116}, {"time": 70681, "pitch": 59, "duration": 90, "velocity": 89}, {"time": 70681, "pitch": 61, "duration": 126, "velocity": 60}, {"time": 70681, "pitch": 64, "duration": 106, "velocity": 107}, {"time": 70918, "pitch": 52, "duration": 54, "velocity": 120}, {"time": 70918, "pitch": 59, "duration": 27, "velocity": 92}, {"time": 70918, "pitch": 63, "duration": 34, "velocity": 120}, {"time": 70918, "pitch": 66, "duration": 26, "velocity": 79}, {"time": 71037, "pitch": 52, "duration": 403, "velocity": 120}, {"time": 71037, "pitch": 59, "duration": 362, "velocity": 105}, {"time": 71037, "pitch": 63, "duration": 378, "velocity": 120}, {"time": 71037, "pitch": 66, "duration": 380, "velocity": 102}, {"time": 71518, "pitch": 52, "duration": 378, "velocity": 114}, {"time": 71518, "pitch": 59, "duration": 392, "velocity": 101}, {"time": 71518, "pitch": 64, "duration": 397, "velocity": 110}, {"time": 71518, "pitch": 68, "duration": 384, "velocity": 120}, {"time": 72000, "pitch": 52, "duration": 277, "velocity": 120}, {"time": 72000, "pitch": 59, "duration": 270, "velocity": 83}, {"time": 72000, "pitch": 63, "duration": 276, "velocity": 116}, {"time": 72000, "pitch": 66, "duration": 252, "velocity": 103}, {"time": 72362, "pitch": 52, "duration": 124, "velocity": 104}, {"time": 72362, "pitch": 59, "duration": 94, "velocity": 83}, {"time": 72362, "pitch": 61, "duration": 117, "velocity": 79}, {"time": 72362, "pitch": 64, "duration": 57, "velocity": 106}, {"time": 72602, "pitch": 52, "duration": 117, "velocity": 105}, {"time": 72602, "pitch": 59, "duration": 98, "velocity": 105}, {"time": 72602, "pitch": 61, "duration": 112, "velocity": 80}, {"time": 72602, "pitch": 64, "duration": 115, "velocity": 110}, {"time": 72843, "pitch": 52, "duration": 48, "velocity": 117}, {"time": 72843, "pitch": 59, "duration": 25, "velocity": 71}, {"time": 72843, "pitch": 63, "duration": 28, "velocity": 111}, {"time": 72843, "pitch": 66, "duration": 25, "velocity": 103}, {"time": 72964, "pitch": 52, "duration": 155, "velocity": 116}, {"time": 72964, "pitch": 59, "duration": 361, "velocity": 100}, {"time": 72964, "pitch": 63, "duration": 389, "velocity": 114}, {"time": 72964, "pitch": 66, "duration": 379, "velocity": 106}, {"time": 73201, "pitch": 51, "duration": 127, "velocity": 120}, {"time": 73438, "pitch": 49, "duration": 382, "velocity": 102}, {"time": 73438, "pitch": 59, "duration": 354, "velocity": 97}, {"time": 73438, "pitch": 64, "duration": 364, "velocity": 120}, {"time": 73438, "pitch": 68, "duration": 352, "velocity": 120}, {"time": 73919, "pitch": 49, "duration": 283, "velocity": 120}, {"time": 73919, "pitch": 59, "duration": 251, "velocity": 93}, {"time": 73919, "pitch": 63, "duration": 250, "velocity": 120}, {"time": 73919, "pitch": 66, "duration": 235, "velocity": 106}, {"time": 74281, "pitch": 49, "duration": 112, "velocity": 116}, {"time": 74281, "pitch": 59, "duration": 94, "velocity": 120}, {"time": 74281, "pitch": 61, "duration": 126, "velocity": 81}, {"time": 74281, "pitch": 64, "duration": 105, "velocity": 99}, {"time": 74522, "pitch": 49, "duration": 132, "velocity": 113}, {"time": 74522, "pitch": 59, "duration": 106, "velocity": 112}, {"time": 74522, "pitch": 61, "duration": 117, "velocity": 80}, {"time": 74522, "pitch": 64, "duration": 116, "velocity": 103}, {"time": 74762, "pitch": 49, "duration": 54, "velocity": 116}, {"time": 74762, "pitch": 59, "duration": 27, "velocity": 92}, {"time": 74762, "pitch": 63, "duration": 27, "velocity": 118}, {"time": 74762, "pitch": 66, "duration": 27, "velocity": 93}, {"time": 74883, "pitch": 49, "duration": 141, "velocity": 120}, {"time": 74883, "pitch": 59, "duration": 367, "velocity": 86}, {"time": 74883, "pitch": 63, "duration": 375, "velocity": 120}, {"time": 74883, "pitch": 66, "duration": 366, "velocity": 114}, {"time": 75120, "pitch": 47, "duration": 140, "velocity": 119}, {"time": 75357, "pitch": 45, "duration": 358, "velocity": 120}, {"time": 75357, "pitch": 59, "duration": 359, "velocity": 86}, {"time": 75357, "pitch": 64, "duration": 360, "velocity": 111}, {"time": 75357, "pitch": 68, "duration": 342, "velocity": 104}, {"time": 75838, "pitch": 45, "duration": 240, "velocity": 120}, {"time": 75838, "pitch": 59, "duration": 247, "velocity": 99}, {"time": 75838, "pitch": 63, "duration": 244, "velocity": 107}, {"time": 75838, "pitch": 66, "duration": 230, "velocity": 97}, {"time": 76200, "pitch": 47, "duration": 128, "velocity": 120}, {"time": 76200, "pitch": 59, "duration": 99, "velocity": 112}, {"time": 76200, "pitch": 61, "duration": 134, "velocity": 80}, {"time": 76200, "pitch": 64, "duration": 110, "velocity": 102}, {"time": 76441, "pitch": 47, "duration": 113, "velocity": 120}, {"time": 76441, "pitch": 59, "duration": 97, "velocity": 97}, {"time": 76441, "pitch": 61, "duration": 115, "velocity": 65}, {"time": 76441, "pitch": 64, "duration": 103, "velocity": 105}, {"time": 76682, "pitch": 47, "duration": 59, "velocity": 120}, {"time": 76682, "pitch": 59, "duration": 45, "velocity": 86}, {"time": 76682, "pitch": 63, "duration": 26, "velocity": 118}, {"time": 76682, "pitch": 66, "duration": 27, "velocity": 94}, {"time": 76802, "pitch": 47, "duration": 334, "velocity": 120}, {"time": 76802, "pitch": 59, "duration": 275, "velocity": 95}, {"time": 76802, "pitch": 63, "duration": 295, "velocity": 112}, {"time": 76802, "pitch": 66, "duration": 299, "velocity": 99}, {"time": 77284, "pitch": 83, "duration": 74, "velocity": 93}, {"time": 77402, "pitch": 88, "duration": 74, "velocity": 93}, {"time": 77521, "pitch": 90, "duration": 74, "velocity": 93}, {"time": 77639, "pitch": 83, "duration": 74, "velocity": 93}, {"time": 77758, "pitch": 95, "duration": 75, "velocity": 93}, {"time": 77878, "pitch": 83, "duration": 75, "velocity": 93}, {"time": 77998, "pitch": 88, "duration": 76, "velocity": 93}, {"time": 78119, "pitch": 90, "duration": 75, "velocity": 93}, {"time": 78239, "pitch": 83, "duration": 76, "velocity": 93}, {"time": 78360, "pitch": 88, "duration": 75, "velocity": 93}, {"time": 78480, "pitch": 90, "duration": 76, "velocity": 93}, {"time": 78601, "pitch": 83, "duration": 75, "velocity": 93}, {"time": 78721, "pitch": 95, "duration": 75, "velocity": 93}, {"time": 78842, "pitch": 83, "duration": 75, "velocity": 93}, {"time": 78962, "pitch": 47, "duration": 153, "velocity": 120}, {"time": 78962, "pitch": 57, "duration": 153, "velocity": 120}, {"time": 78962, "pitch": 61, "duration": 179, "velocity": 119}, {"time": 78962, "pitch": 64, "duration": 163, "velocity": 120}, {"time": 78962, "pitch": 81, "duration": 189, "velocity": 93}, {"time": 78962, "pitch": 85, "duration": 210, "velocity": 93}, {"time": 78962, "pitch": 88, "duration": 193, "velocity": 93}, {"time": 79203, "pitch": 47, "duration": 154, "velocity": 120}, {"time": 79203, "pitch": 57, "duration": 136, "velocity": 109}, {"time": 79203, "pitch": 61, "duration": 152, "velocity": 108}, {"time": 79203, "pitch": 64, "duration": 132, "velocity": 120}, {"time": 79440, "pitch": 47, "duration": 150, "velocity": 120}, {"time": 79440, "pitch": 57, "duration": 121, "velocity": 120}, {"time": 79440, "pitch": 61, "duration": 156, "velocity": 120}, {"time": 79440, "pitch": 64, "duration": 150, "velocity": 120}, {"time": 81122, "pitch": 52, "duration": 1538, "velocity": 120}, {"time": 81122, "pitch": 59, "duration": 570, "velocity": 120}, {"time": 81122, "pitch": 64, "duration": 665, "velocity": 120}, {"time": 81122, "pitch": 68, "duration": 666, "velocity": 120}, {"time": 81841, "pitch": 59, "duration": 155, "velocity": 120}, {"time": 81959, "pitch": 64, "duration": 72, "velocity": 120}, {"time": 82078, "pitch": 59, "duration": 173, "velocity": 120}, {"time": 82078, "pitch": 64, "duration": 200, "velocity": 61}, {"time": 82078, "pitch": 66, "duration": 156, "velocity": 120}, {"time": 82318, "pitch": 64, "duration": 256, "velocity": 115}, {"time": 82318, "pitch": 68, "duration": 183, "velocity": 120}, {"time": 82559, "pitch": 59, "duration": 175, "velocity": 120}, {"time": 83041, "pitch": 47, "duration": 393, "velocity": 120}, {"time": 83041, "pitch": 59, "duration": 415, "velocity": 120}, {"time": 83041, "pitch": 63, "duration": 496, "velocity": 120}, {"time": 83041, "pitch": 66, "duration": 458, "velocity": 120}, {"time": 83760, "pitch": 59, "duration": 81, "velocity": 120}, {"time": 83878, "pitch": 61, "duration": 79, "velocity": 120}, {"time": 83997, "pitch": 59, "duration": 259, "velocity": 120}, {"time": 83997, "pitch": 61, "duration": 289, "velocity": 120}, {"time": 83997, "pitch": 63, "duration": 269, "velocity": 120}, {"time": 84358, "pitch": 59, "duration": 277, "velocity": 120}, {"time": 84358, "pitch": 61, "duration": 263, "velocity": 120}, {"time": 84358, "pitch": 66, "duration": 264, "velocity": 120}, {"time": 84960, "pitch": 42, "duration": 1820, "velocity": 120}, {"time": 84960, "pitch": 57, "duration": 566, "velocity": 120}, {"time": 84960, "pitch": 61, "duration": 630, "velocity": 120}, {"time": 84960, "pitch": 64, "duration": 637, "velocity": 120}, {"time": 85683, "pitch": 57, "duration": 141, "velocity": 120}, {"time": 85803, "pitch": 61, "duration": 88, "velocity": 120}, {"time": 85924, "pitch": 57, "duration": 622, "velocity": 120}, {"time": 85924, "pitch": 61, "duration": 589, "velocity": 120}, {"time": 85924, "pitch": 64, "duration": 283, "velocity": 120}, {"time": 86279, "pitch": 69, "duration": 236, "velocity": 120}, {"time": 86859, "pitch": 47, "duration": 907, "velocity": 100}, {"time": 86879, "pitch": 59, "duration": 566, "velocity": 120}, {"time": 86879, "pitch": 63, "duration": 630, "velocity": 120}, {"time": 86879, "pitch": 66, "duration": 637, "velocity": 120}, {"time": 87823, "pitch": 46, "duration": 418, "velocity": 100}, {"time": 87843, "pitch": 58, "duration": 255, "velocity": 120}, {"time": 87843, "pitch": 64, "duration": 284, "velocity": 120}, {"time": 87843, "pitch": 67, "duration": 264, "velocity": 120}, {"time": 88198, "pitch": 59, "duration": 275, "velocity": 120}, {"time": 88198, "pitch": 63, "duration": 261, "velocity": 120}, {"time": 88198, "pitch": 66, "duration": 262, "velocity": 120}, {"time": 88297, "pitch": 47, "duration": 424, "velocity": 100}, {"time": 88558, "pitch": 59, "duration": 81, "velocity": 120}, {"time": 88558, "pitch": 63, "duration": 120, "velocity": 120}, {"time": 88558, "pitch": 66, "duration": 123, "velocity": 120}, {"time": 88799, "pitch": 52, "duration": 1543, "velocity": 120}, {"time": 88799, "pitch": 59, "duration": 571, "velocity": 120}, {"time": 88799, "pitch": 64, "duration": 668, "velocity": 120}, {"time": 88799, "pitch": 68, "duration": 669, "velocity": 120}, {"time": 89521, "pitch": 59, "duration": 158, "velocity": 120}, {"time": 89642, "pitch": 64, "duration": 73, "velocity": 120}, {"time": 89762, "pitch": 59, "duration": 174, "velocity": 120}, {"time": 89762, "pitch": 64, "duration": 201, "velocity": 61}, {"time": 89762, "pitch": 66, "duration": 157, "velocity": 120}, {"time": 90003, "pitch": 64, "duration": 256, "velocity": 115}, {"time": 90003, "pitch": 68, "duration": 183, "velocity": 120}, {"time": 90244, "pitch": 59, "duration": 172, "velocity": 120}, {"time": 90718, "pitch": 47, "duration": 392, "velocity": 120}, {"time": 90718, "pitch": 59, "duration": 414, "velocity": 120}, {"time": 90718, "pitch": 63, "duration": 495, "velocity": 120}, {"time": 90718, "pitch": 66, "duration": 457, "velocity": 120}, {"time": 91440, "pitch": 59, "duration": 83, "velocity": 120}, {"time": 91561, "pitch": 61, "duration": 80, "velocity": 120}, {"time": 91681, "pitch": 59, "duration": 259, "velocity": 120}, {"time": 91681, "pitch": 61, "duration": 289, "velocity": 120}, {"time": 91681, "pitch": 63, "duration": 269, "velocity": 120}, {"time": 92042, "pitch": 59, "duration": 275, "velocity": 120}, {"time": 92042, "pitch": 61, "duration": 261, "velocity": 120}, {"time": 92042, "pitch": 66, "duration": 262, "velocity": 120}, {"time": 92637, "pitch": 42, "duration": 1827, "velocity": 120}, {"time": 92637, "pitch": 57, "duration": 566, "velocity": 120}, {"time": 92637, "pitch": 61, "duration": 629, "velocity": 120}, {"time": 92637, "pitch": 64, "duration": 636, "velocity": 120}, {"time": 93359, "pitch": 57, "duration": 142, "velocity": 120}, {"time": 93480, "pitch": 61, "duration": 87, "velocity": 120}, {"time": 93600, "pitch": 57, "duration": 631, "velocity": 120}, {"time": 93600, "pitch": 61, "duration": 597, "velocity": 120}, {"time": 93600, "pitch": 64, "duration": 288, "velocity": 120}, {"time": 93962, "pitch": 69, "duration": 237, "velocity": 120}, {"time": 94544, "pitch": 47, "duration": 898, "velocity": 100}, {"time": 94564, "pitch": 59, "duration": 558, "velocity": 120}, {"time": 94564, "pitch": 63, "duration": 621, "velocity": 120}, {"time": 94564, "pitch": 66, "duration": 628, "velocity": 120}, {"time": 95499, "pitch": 46, "duration": 425, "velocity": 100}, {"time": 95519, "pitch": 58, "duration": 259, "velocity": 120}, {"time": 95519, "pitch": 64, "duration": 289, "velocity": 120}, {"time": 95519, "pitch": 67, "duration": 269, "velocity": 120}, {"time": 95881, "pitch": 59, "duration": 277, "velocity": 120}, {"time": 95881, "pitch": 63, "duration": 263, "velocity": 120}, {"time": 95881, "pitch": 66, "duration": 264, "velocity": 120}, {"time": 95981, "pitch": 47, "duration": 425, "velocity": 100}, {"time": 96242, "pitch": 59, "duration": 81, "velocity": 120}, {"time": 96242, "pitch": 63, "duration": 120, "velocity": 120}, {"time": 96242, "pitch": 66, "duration": 123, "velocity": 120}, {"time": 96483, "pitch": 45, "duration": 1446, "velocity": 120}, {"time": 96483, "pitch": 61, "duration": 562, "velocity": 120}, {"time": 96483, "pitch": 64, "duration": 660, "velocity": 120}, {"time": 96483, "pitch": 68, "duration": 658, "velocity": 120}, {"time": 97198, "pitch": 61, "duration": 144, "velocity": 120}, {"time": 97318, "pitch": 64, "duration": 77, "velocity": 120}, {"time": 97439, "pitch": 61, "duration": 279, "velocity": 120}, {"time": 97439, "pitch": 64, "duration": 218, "velocity": 120}, {"time": 97439, "pitch": 66, "duration": 217, "velocity": 120}, {"time": 97800, "pitch": 61, "duration": 110, "velocity": 120}, {"time": 97800, "pitch": 64, "duration": 135, "velocity": 120}, {"time": 97800, "pitch": 68, "duration": 114, "velocity": 120}, {"time": 98041, "pitch": 47, "duration": 57, "velocity": 120}, {"time": 98161, "pitch": 47, "duration": 866, "velocity": 120}, {"time": 98161, "pitch": 59, "duration": 390, "velocity": 120}, {"time": 98161, "pitch": 63, "duration": 405, "velocity": 120}, {"time": 98161, "pitch": 66, "duration": 389, "velocity": 120}, {"time": 98643, "pitch": 59, "duration": 84, "velocity": 120}, {"time": 98643, "pitch": 63, "duration": 134, "velocity": 120}, {"time": 98643, "pitch": 66, "duration": 101, "velocity": 120}, {"time": 98884, "pitch": 59, "duration": 167, "velocity": 120}, {"time": 98884, "pitch": 63, "duration": 155, "velocity": 120}, {"time": 98884, "pitch": 66, "duration": 141, "velocity": 120}, {"time": 99358, "pitch": 48, "duration": 251, "velocity": 120}, {"time": 99358, "pitch": 60, "duration": 249, "velocity": 120}, {"time": 99358, "pitch": 63, "duration": 273, "velocity": 120}, {"time": 99358, "pitch": 68, "duration": 255, "velocity": 120}, {"time": 99719, "pitch": 48, "duration": 153, "velocity": 120}, {"time": 99719, "pitch": 60, "duration": 109, "velocity": 120}, {"time": 99719, "pitch": 63, "duration": 109, "velocity": 120}, {"time": 99719, "pitch": 68, "duration": 139, "velocity": 120}, {"time": 100080, "pitch": 49, "duration": 348, "velocity": 120}, {"time": 100080, "pitch": 59, "duration": 345, "velocity": 120}, {"time": 100080, "pitch": 64, "duration": 368, "velocity": 120}, {"time": 100080, "pitch": 68, "duration": 349, "velocity": 120}, {"time": 100562, "pitch": 49, "duration": 123, "velocity": 120}, {"time": 100562, "pitch": 59, "duration": 109, "velocity": 120}, {"time": 100562, "pitch": 64, "duration": 150, "velocity": 120}, {"time": 100562, "pitch": 68, "duration": 118, "velocity": 120}, {"time": 100803, "pitch": 49, "duration": 148, "velocity": 120}, {"time": 100803, "pitch": 59, "duration": 122, "velocity": 120}, {"time": 100803, "pitch": 64, "duration": 170, "velocity": 120}, {"time": 100803, "pitch": 68, "duration": 142, "velocity": 120}, {"time": 101040, "pitch": 47, "duration": 144, "velocity": 120}, {"time": 101040, "pitch": 59, "duration": 119, "velocity": 120}, {"time": 101040, "pitch": 63, "duration": 154, "velocity": 120}, {"time": 101040, "pitch": 66, "duration": 131, "velocity": 120}, {"time": 101277, "pitch": 47, "duration": 141, "velocity": 120}, {"time": 101277, "pitch": 59, "duration": 126, "velocity": 120}, {"time": 101277, "pitch": 63, "duration": 164, "velocity": 120}, {"time": 101277, "pitch": 66, "duration": 132, "velocity": 120}, {"time": 101518, "pitch": 47, "duration": 158, "velocity": 120}, {"time": 101518, "pitch": 59, "duration": 131, "velocity": 120}, {"time": 101518, "pitch": 63, "duration": 178, "velocity": 120}, {"time": 101518, "pitch": 66, "duration": 149, "velocity": 120}, {"time": 101759, "pitch": 49, "duration": 249, "velocity": 120}, {"time": 101759, "pitch": 59, "duration": 214, "velocity": 120}, {"time": 101759, "pitch": 63, "duration": 235, "velocity": 120}, {"time": 101759, "pitch": 68, "duration": 257, "velocity": 120}, {"time": 101999, "pitch": 45, "duration": 241, "velocity": 120}, {"time": 101999, "pitch": 57, "duration": 241, "velocity": 120}, {"time": 101999, "pitch": 61, "duration": 241, "velocity": 120}, {"time": 101999, "pitch": 64, "duration": 241, "velocity": 120}, {"time": 102240, "pitch": 42, "duration": 87, "velocity": 120}, {"time": 102240, "pitch": 57, "duration": 84, "velocity": 120}, {"time": 102240, "pitch": 61, "duration": 111, "velocity": 120}, {"time": 102240, "pitch": 64, "duration": 92, "velocity": 120}, {"time": 102481, "pitch": 42, "duration": 134, "velocity": 120}, {"time": 102481, "pitch": 57, "duration": 125, "velocity": 120}, {"time": 102481, "pitch": 61, "duration": 161, "velocity": 120}, {"time": 102481, "pitch": 64, "duration": 135, "velocity": 120}, {"time": 102722, "pitch": 42, "duration": 135, "velocity": 120}, {"time": 102722, "pitch": 57, "duration": 116, "velocity": 120}, {"time": 102722, "pitch": 61, "duration": 156, "velocity": 120}, {"time": 102722, "pitch": 64, "duration": 135, "velocity": 120}, {"time": 102963, "pitch": 42, "duration": 121, "velocity": 120}, {"time": 102963, "pitch": 57, "duration": 99, "velocity": 120}, {"time": 102963, "pitch": 61, "duration": 141, "velocity": 120}, {"time": 102963, "pitch": 64, "duration": 105, "velocity": 120}, {"time": 103204, "pitch": 42, "duration": 428, "velocity": 120}, {"time": 103204, "pitch": 57, "duration": 90, "velocity": 120}, {"time": 103204, "pitch": 61, "duration": 182, "velocity": 120}, {"time": 103204, "pitch": 64, "duration": 180, "velocity": 120}, {"time": 103441, "pitch": 57, "duration": 158, "velocity": 120}, {"time": 103559, "pitch": 61, "duration": 76, "velocity": 120}, {"time": 103678, "pitch": 42, "duration": 172, "velocity": 120}, {"time": 103678, "pitch": 57, "duration": 184, "velocity": 120}, {"time": 103678, "pitch": 61, "duration": 221, "velocity": 120}, {"time": 103678, "pitch": 64, "duration": 206, "velocity": 120}, {"time": 103919, "pitch": 47, "duration": 364, "velocity": 120}, {"time": 103919, "pitch": 59, "duration": 346, "velocity": 120}, {"time": 103919, "pitch": 64, "duration": 365, "velocity": 120}, {"time": 103919, "pitch": 68, "duration": 337, "velocity": 120}, {"time": 104400, "pitch": 47, "duration": 156, "velocity": 120}, {"time": 104400, "pitch": 59, "duration": 148, "velocity": 120}, {"time": 104400, "pitch": 63, "duration": 171, "velocity": 120}, {"time": 104400, "pitch": 66, "duration": 150, "velocity": 120}, {"time": 104641, "pitch": 47, "duration": 323, "velocity": 120}, {"time": 104641, "pitch": 59, "duration": 289, "velocity": 120}, {"time": 104641, "pitch": 63, "duration": 298, "velocity": 120}, {"time": 104641, "pitch": 66, "duration": 309, "velocity": 120}, {"time": 106079, "pitch": 52, "duration": 1543, "velocity": 120}, {"time": 106079, "pitch": 59, "duration": 571, "velocity": 120}, {"time": 106079, "pitch": 64, "duration": 668, "velocity": 120}, {"time": 106079, "pitch": 68, "duration": 669, "velocity": 120}, {"time": 106801, "pitch": 59, "duration": 158, "velocity": 120}, {"time": 106922, "pitch": 64, "duration": 73, "velocity": 120}, {"time": 107042, "pitch": 59, "duration": 174, "velocity": 120}, {"time": 107042, "pitch": 64, "duration": 201, "velocity": 61}, {"time": 107042, "pitch": 66, "duration": 157, "velocity": 120}, {"time": 107283, "pitch": 64, "duration": 256, "velocity": 115}, {"time": 107283, "pitch": 68, "duration": 183, "velocity": 120}, {"time": 107524, "pitch": 59, "duration": 172, "velocity": 120}, {"time": 107761, "pitch": 47, "duration": 388, "velocity": 120}, {"time": 107761, "pitch": 59, "duration": 772, "velocity": 120}, {"time": 107761, "pitch": 63, "duration": 853, "velocity": 120}, {"time": 107761, "pitch": 66, "duration": 815, "velocity": 120}, {"time": 108239, "pitch": 47, "duration": 94, "velocity": 120}, {"time": 108479, "pitch": 47, "duration": 1079, "velocity": 120}, {"time": 108720, "pitch": 59, "duration": 136, "velocity": 120}, {"time": 108841, "pitch": 61, "duration": 78, "velocity": 120}, {"time": 108961, "pitch": 59, "duration": 151, "velocity": 120}, {"time": 108961, "pitch": 61, "duration": 178, "velocity": 75}, {"time": 108961, "pitch": 63, "duration": 201, "velocity": 120}, {"time": 109202, "pitch": 61, "duration": 148, "velocity": 102}, {"time": 109202, "pitch": 63, "duration": 319, "velocity": 66}, {"time": 109202, "pitch": 66, "duration": 239, "velocity": 120}, {"time": 109443, "pitch": 59, "duration": 131, "velocity": 120}, {"time": 109680, "pitch": 45, "duration": 370, "velocity": 120}, {"time": 109680, "pitch": 57, "duration": 808, "velocity": 120}, {"time": 109680, "pitch": 59, "duration": 872, "velocity": 120}, {"time": 109680, "pitch": 61, "duration": 903, "velocity": 120}, {"time": 109680, "pitch": 64, "duration": 867, "velocity": 120}, {"time": 110158, "pitch": 45, "duration": 99, "velocity": 120}, {"time": 110399, "pitch": 45, "duration": 1085, "velocity": 120}, {"time": 110639, "pitch": 57, "duration": 87, "velocity": 120}, {"time": 110760, "pitch": 59, "duration": 274, "velocity": 120}, {"time": 110880, "pitch": 57, "duration": 163, "velocity": 106}, {"time": 110880, "pitch": 61, "duration": 181, "velocity": 120}, {"time": 111121, "pitch": 57, "duration": 29, "velocity": 42}, {"time": 111121, "pitch": 64, "duration": 302, "velocity": 120}, {"time": 111362, "pitch": 57, "duration": 144, "velocity": 120}, {"time": 111603, "pitch": 42, "duration": 340, "velocity": 120}, {"time": 111603, "pitch": 57, "duration": 339, "velocity": 119}, {"time": 111603, "pitch": 61, "duration": 374, "velocity": 120}, {"time": 111603, "pitch": 64, "duration": 340, "velocity": 120}, {"time": 112081, "pitch": 42, "duration": 92, "velocity": 120}, {"time": 112081, "pitch": 57, "duration": 78, "velocity": 118}, {"time": 112081, "pitch": 61, "duration": 112, "velocity": 120}, {"time": 112081, "pitch": 64, "duration": 93, "velocity": 120}, {"time": 112318, "pitch": 42, "duration": 98, "velocity": 120}, {"time": 112318, "pitch": 57, "duration": 91, "velocity": 120}, {"time": 112318, "pitch": 61, "duration": 127, "velocity": 109}, {"time": 112318, "pitch": 64, "duration": 100, "velocity": 120}, {"time": 112559, "pitch": 42, "duration": 175, "velocity": 120}, {"time": 112559, "pitch": 57, "duration": 136, "velocity": 120}, {"time": 112559, "pitch": 61, "duration": 160, "velocity": 120}, {"time": 112559, "pitch": 64, "duration": 160, "velocity": 120}, {"time": 112799, "pitch": 47, "duration": 118, "velocity": 120}, {"time": 112799, "pitch": 59, "duration": 109, "velocity": 120}, {"time": 112799, "pitch": 63, "duration": 128, "velocity": 120}, {"time": 112799, "pitch": 66, "duration": 97, "velocity": 120}, {"time": 113040, "pitch": 47, "duration": 91, "velocity": 120}, {"time": 113040, "pitch": 59, "duration": 84, "velocity": 120}, {"time": 113040, "pitch": 63, "duration": 108, "velocity": 120}, {"time": 113040, "pitch": 66, "duration": 88, "velocity": 120}, {"time": 113281, "pitch": 47, "duration": 73, "velocity": 120}, {"time": 113281, "pitch": 59, "duration": 79, "velocity": 120}, {"time": 113281, "pitch": 63, "duration": 121, "velocity": 120}, {"time": 113281, "pitch": 66, "duration": 104, "velocity": 119}, {"time": 113522, "pitch": 47, "duration": 175, "velocity": 120}, {"time": 113522, "pitch": 59, "duration": 126, "velocity": 120}, {"time": 113522, "pitch": 63, "duration": 161, "velocity": 120}, {"time": 113522, "pitch": 66, "duration": 145, "velocity": 120}, {"time": 113763, "pitch": 44, "duration": 1579, "velocity": 120}, {"time": 113763, "pitch": 59, "duration": 558, "velocity": 120}, {"time": 113763, "pitch": 63, "duration": 621, "velocity": 120}, {"time": 113763, "pitch": 66, "duration": 628, "velocity": 120}, {"time": 114478, "pitch": 59, "duration": 141, "velocity": 120}, {"time": 114598, "pitch": 63, "duration": 87, "velocity": 120}, {"time": 114719, "pitch": 59, "duration": 630, "velocity": 120}, {"time": 114719, "pitch": 63, "duration": 597, "velocity": 120}, {"time": 114719, "pitch": 66, "duration": 288, "velocity": 120}, {"time": 115080, "pitch": 71, "duration": 238, "velocity": 120}, {"time": 115441, "pitch": 45, "duration": 370, "velocity": 120}, {"time": 115441, "pitch": 57, "duration": 367, "velocity": 120}, {"time": 115441, "pitch": 61, "duration": 401, "velocity": 120}, {"time": 115441, "pitch": 64, "duration": 379, "velocity": 120}, {"time": 115923, "pitch": 45, "duration": 87, "velocity": 120}, {"time": 115923, "pitch": 57, "duration": 70, "velocity": 120}, {"time": 115923, "pitch": 61, "duration": 111, "velocity": 120}, {"time": 115923, "pitch": 64, "duration": 80, "velocity": 120}, {"time": 116164, "pitch": 45, "duration": 107, "velocity": 120}, {"time": 116164, "pitch": 57, "duration": 107, "velocity": 120}, {"time": 116164, "pitch": 61, "duration": 184, "velocity": 120}, {"time": 116164, "pitch": 64, "duration": 184, "velocity": 120}, {"time": 116638, "pitch": 47, "duration": 369, "velocity": 120}, {"time": 116638, "pitch": 59, "duration": 366, "velocity": 120}, {"time": 116638, "pitch": 63, "duration": 400, "velocity": 120}, {"time": 116638, "pitch": 66, "duration": 378, "velocity": 120}, {"time": 117119, "pitch": 48, "duration": 226, "velocity": 120}, {"time": 117119, "pitch": 60, "duration": 158, "velocity": 120}, {"time": 117119, "pitch": 63, "duration": 244, "velocity": 120}, {"time": 117119, "pitch": 66, "duration": 204, "velocity": 120}, {"time": 117601, "pitch": 49, "duration": 148, "velocity": 120}, {"time": 117601, "pitch": 59, "duration": 116, "velocity": 120}, {"time": 117601, "pitch": 64, "duration": 165, "velocity": 120}, {"time": 117601, "pitch": 68, "duration": 147, "velocity": 120}, {"time": 117842, "pitch": 49, "duration": 115, "velocity": 120}, {"time": 117842, "pitch": 59, "duration": 112, "velocity": 120}, {"time": 117842, "pitch": 64, "duration": 145, "velocity": 109}, {"time": 117842, "pitch": 68, "duration": 120, "velocity": 120}, {"time": 118083, "pitch": 49, "duration": 117, "velocity": 120}, {"time": 118083, "pitch": 59, "duration": 95, "velocity": 120}, {"time": 118083, "pitch": 64, "duration": 134, "velocity": 120}, {"time": 118083, "pitch": 68, "duration": 122, "velocity": 120}, {"time": 118320, "pitch": 49, "duration": 150, "velocity": 120}, {"time": 118320, "pitch": 59, "duration": 113, "velocity": 120}, {"time": 118320, "pitch": 63, "duration": 141, "velocity": 120}, {"time": 118320, "pitch": 66, "duration": 126, "velocity": 120}, {"time": 118557, "pitch": 49, "duration": 161, "velocity": 120}, {"time": 118557, "pitch": 59, "duration": 147, "velocity": 120}, {"time": 118557, "pitch": 64, "duration": 171, "velocity": 120}, {"time": 118557, "pitch": 68, "duration": 159, "velocity": 120}, {"time": 118798, "pitch": 49, "duration": 151, "velocity": 120}, {"time": 118798, "pitch": 59, "duration": 126, "velocity": 120}, {"time": 118798, "pitch": 64, "duration": 157, "velocity": 120}, {"time": 118798, "pitch": 68, "duration": 146, "velocity": 120}, {"time": 119039, "pitch": 49, "duration": 152, "velocity": 120}, {"time": 119039, "pitch": 59, "duration": 105, "velocity": 120}, {"time": 119039, "pitch": 64, "duration": 155, "velocity": 120}, {"time": 119039, "pitch": 68, "duration": 146, "velocity": 120}, {"time": 119279, "pitch": 42, "duration": 377, "velocity": 120}, {"time": 119279, "pitch": 57, "duration": 350, "velocity": 120}, {"time": 119279, "pitch": 61, "duration": 356, "velocity": 120}, {"time": 119279, "pitch": 64, "duration": 346, "velocity": 120}, {"time": 119761, "pitch": 42, "duration": 84, "velocity": 120}, {"time": 119761, "pitch": 57, "duration": 63, "velocity": 120}, {"time": 119761, "pitch": 61, "duration": 104, "velocity": 120}, {"time": 119761, "pitch": 64, "duration": 74, "velocity": 120}, {"time": 120002, "pitch": 42, "duration": 107, "velocity": 120}, {"time": 120002, "pitch": 57, "duration": 78, "velocity": 120}, {"time": 120002, "pitch": 61, "duration": 113, "velocity": 120}, {"time": 120002, "pitch": 64, "duration": 85, "velocity": 120}, {"time": 120243, "pitch": 42, "duration": 153, "velocity": 120}, {"time": 120243, "pitch": 57, "duration": 114, "velocity": 120}, {"time": 120243, "pitch": 61, "duration": 149, "velocity": 120}, {"time": 120243, "pitch": 64, "duration": 152, "velocity": 120}, {"time": 120484, "pitch": 47, "duration": 91, "velocity": 120}, {"time": 120484, "pitch": 59, "duration": 86, "velocity": 120}, {"time": 120484, "pitch": 63, "duration": 107, "velocity": 120}, {"time": 120484, "pitch": 66, "duration": 88, "velocity": 120}, {"time": 120721, "pitch": 47, "duration": 79, "velocity": 120}, {"time": 120721, "pitch": 59, "duration": 77, "velocity": 120}, {"time": 120721, "pitch": 63, "duration": 113, "velocity": 120}, {"time": 120721, "pitch": 66, "duration": 82, "velocity": 120}, {"time": 120958, "pitch": 47, "duration": 102, "velocity": 120}, {"time": 120958, "pitch": 59, "duration": 85, "velocity": 120}, {"time": 120958, "pitch": 63, "duration": 121, "velocity": 120}, {"time": 120958, "pitch": 66, "duration": 103, "velocity": 120}, {"time": 121199, "pitch": 47, "duration": 112, "velocity": 120}, {"time": 121199, "pitch": 59, "duration": 81, "velocity": 120}, {"time": 121199, "pitch": 63, "duration": 120, "velocity": 120}, {"time": 121199, "pitch": 66, "duration": 123, "velocity": 120}, {"time": 121439, "pitch": 52, "duration": 1538, "velocity": 120}, {"time": 121439, "pitch": 59, "duration": 572, "velocity": 120}, {"time": 121439, "pitch": 64, "duration": 669, "velocity": 120}, {"time": 121439, "pitch": 68, "duration": 670, "velocity": 120}, {"time": 122162, "pitch": 59, "duration": 158, "velocity": 120}, {"time": 122283, "pitch": 64, "duration": 73, "velocity": 120}, {"time": 122403, "pitch": 59, "duration": 171, "velocity": 120}, {"time": 122403, "pitch": 64, "duration": 197, "velocity": 61}, {"time": 122403, "pitch": 66, "duration": 154, "velocity": 120}, {"time": 122640, "pitch": 64, "duration": 252, "velocity": 115}, {"time": 122640, "pitch": 68, "duration": 180, "velocity": 120}, {"time": 122877, "pitch": 59, "duration": 174, "velocity": 120}, {"time": 123118, "pitch": 47, "duration": 392, "velocity": 120}, {"time": 123118, "pitch": 59, "duration": 776, "velocity": 120}, {"time": 123118, "pitch": 63, "duration": 857, "velocity": 120}, {"time": 123118, "pitch": 66, "duration": 819, "velocity": 120}, {"time": 123599, "pitch": 47, "duration": 95, "velocity": 120}, {"time": 123840, "pitch": 47, "duration": 1079, "velocity": 120}, {"time": 124081, "pitch": 59, "duration": 136, "velocity": 120}, {"time": 124202, "pitch": 61, "duration": 78, "velocity": 120}, {"time": 124322, "pitch": 59, "duration": 151, "velocity": 120}, {"time": 124322, "pitch": 61, "duration": 178, "velocity": 75}, {"time": 124322, "pitch": 63, "duration": 201, "velocity": 120}, {"time": 124563, "pitch": 61, "duration": 148, "velocity": 102}, {"time": 124563, "pitch": 63, "duration": 319, "velocity": 66}, {"time": 124563, "pitch": 66, "duration": 239, "velocity": 120}, {"time": 124804, "pitch": 59, "duration": 131, "velocity": 120}, {"time": 125041, "pitch": 45, "duration": 370, "velocity": 120}, {"time": 125041, "pitch": 57, "duration": 808, "velocity": 120}, {"time": 125041, "pitch": 59, "duration": 872, "velocity": 120}, {"time": 125041, "pitch": 61, "duration": 903, "velocity": 120}, {"time": 125041, "pitch": 64, "duration": 867, "velocity": 120}, {"time": 125519, "pitch": 45, "duration": 99, "velocity": 120}, {"time": 125759, "pitch": 45, "duration": 1083, "velocity": 120}, {"time": 126000, "pitch": 57, "duration": 87, "velocity": 120}, {"time": 126121, "pitch": 59, "duration": 274, "velocity": 120}, {"time": 126241, "pitch": 57, "duration": 163, "velocity": 106}, {"time": 126241, "pitch": 61, "duration": 181, "velocity": 120}, {"time": 126482, "pitch": 57, "duration": 29, "velocity": 42}, {"time": 126482, "pitch": 64, "duration": 301, "velocity": 120}, {"time": 126723, "pitch": 57, "duration": 141, "velocity": 120}, {"time": 126960, "pitch": 42, "duration": 337, "velocity": 120}, {"time": 126960, "pitch": 57, "duration": 336, "velocity": 119}, {"time": 126960, "pitch": 61, "duration": 372, "velocity": 120}, {"time": 126960, "pitch": 64, "duration": 338, "velocity": 120}, {"time": 127438, "pitch": 42, "duration": 93, "velocity": 120}, {"time": 127438, "pitch": 57, "duration": 79, "velocity": 118}, {"time": 127438, "pitch": 61, "duration": 114, "velocity": 120}, {"time": 127438, "pitch": 64, "duration": 94, "velocity": 120}, {"time": 127679, "pitch": 42, "duration": 98, "velocity": 120}, {"time": 127679, "pitch": 57, "duration": 91, "velocity": 120}, {"time": 127679, "pitch": 61, "duration": 127, "velocity": 109}, {"time": 127679, "pitch": 64, "duration": 100, "velocity": 120}, {"time": 127920, "pitch": 42, "duration": 175, "velocity": 120}, {"time": 127920, "pitch": 57, "duration": 136, "velocity": 120}, {"time": 127920, "pitch": 61, "duration": 160, "velocity": 120}, {"time": 127920, "pitch": 64, "duration": 160, "velocity": 120}, {"time": 128160, "pitch": 47, "duration": 118, "velocity": 120}, {"time": 128160, "pitch": 59, "duration": 109, "velocity": 120}, {"time": 128160, "pitch": 63, "duration": 128, "velocity": 120}, {"time": 128160, "pitch": 66, "duration": 97, "velocity": 120}, {"time": 128401, "pitch": 47, "duration": 91, "velocity": 120}, {"time": 128401, "pitch": 59, "duration": 84, "velocity": 120}, {"time": 128401, "pitch": 63, "duration": 108, "velocity": 120}, {"time": 128401, "pitch": 66, "duration": 88, "velocity": 120}, {"time": 128642, "pitch": 47, "duration": 73, "velocity": 120}, {"time": 128642, "pitch": 59, "duration": 79, "velocity": 120}, {"time": 128642, "pitch": 63, "duration": 121, "velocity": 120}, {"time": 128642, "pitch": 66, "duration": 104, "velocity": 119}, {"time": 128883, "pitch": 47, "duration": 175, "velocity": 120}, {"time": 128883, "pitch": 59, "duration": 125, "velocity": 120}, {"time": 128883, "pitch": 63, "duration": 161, "velocity": 120}, {"time": 128883, "pitch": 66, "duration": 145, "velocity": 120}, {"time": 129124, "pitch": 44, "duration": 1579, "velocity": 120}, {"time": 129124, "pitch": 59, "duration": 558, "velocity": 120}, {"time": 129124, "pitch": 63, "duration": 621, "velocity": 120}, {"time": 129124, "pitch": 66, "duration": 628, "velocity": 120}, {"time": 129839, "pitch": 59, "duration": 141, "velocity": 120}, {"time": 129959, "pitch": 63, "duration": 87, "velocity": 120}, {"time": 130080, "pitch": 59, "duration": 630, "velocity": 120}, {"time": 130080, "pitch": 63, "duration": 597, "velocity": 120}, {"time": 130080, "pitch": 66, "duration": 288, "velocity": 120}, {"time": 130441, "pitch": 71, "duration": 238, "velocity": 120}, {"time": 130802, "pitch": 45, "duration": 367, "velocity": 120}, {"time": 130802, "pitch": 57, "duration": 364, "velocity": 120}, {"time": 130802, "pitch": 61, "duration": 398, "velocity": 120}, {"time": 130802, "pitch": 64, "duration": 376, "velocity": 120}, {"time": 131280, "pitch": 45, "duration": 86, "velocity": 120}, {"time": 131280, "pitch": 57, "duration": 69, "velocity": 120}, {"time": 131280, "pitch": 61, "duration": 110, "velocity": 120}, {"time": 131280, "pitch": 64, "duration": 79, "velocity": 120}, {"time": 131517, "pitch": 45, "duration": 109, "velocity": 120}, {"time": 131517, "pitch": 57, "duration": 109, "velocity": 120}, {"time": 131517, "pitch": 61, "duration": 188, "velocity": 120}, {"time": 131517, "pitch": 64, "duration": 188, "velocity": 120}, {"time": 131999, "pitch": 47, "duration": 369, "velocity": 120}, {"time": 131999, "pitch": 59, "duration": 366, "velocity": 120}, {"time": 131999, "pitch": 63, "duration": 400, "velocity": 120}, {"time": 131999, "pitch": 66, "duration": 378, "velocity": 120}, {"time": 132480, "pitch": 47, "duration": 226, "velocity": 120}, {"time": 132480, "pitch": 59, "duration": 158, "velocity": 120}, {"time": 132480, "pitch": 63, "duration": 244, "velocity": 120}, {"time": 132480, "pitch": 66, "duration": 204, "velocity": 120}, {"time": 132962, "pitch": 42, "duration": 108, "velocity": 120}, {"time": 132962, "pitch": 57, "duration": 78, "velocity": 120}, {"time": 132962, "pitch": 61, "duration": 113, "velocity": 120}, {"time": 132962, "pitch": 64, "duration": 85, "velocity": 120}, {"time": 133203, "pitch": 42, "duration": 83, "velocity": 120}, {"time": 133203, "pitch": 57, "duration": 63, "velocity": 120}, {"time": 133203, "pitch": 61, "duration": 103, "velocity": 120}, {"time": 133203, "pitch": 64, "duration": 74, "velocity": 120}, {"time": 133444, "pitch": 42, "duration": 105, "velocity": 120}, {"time": 133444, "pitch": 57, "duration": 77, "velocity": 120}, {"time": 133444, "pitch": 61, "duration": 110, "velocity": 120}, {"time": 133444, "pitch": 64, "duration": 84, "velocity": 120}, {"time": 133681, "pitch": 42, "duration": 150, "velocity": 120}, {"time": 133681, "pitch": 57, "duration": 112, "velocity": 120}, {"time": 133681, "pitch": 61, "duration": 146, "velocity": 120}, {"time": 133681, "pitch": 64, "duration": 149, "velocity": 120}, {"time": 133918, "pitch": 47, "duration": 92, "velocity": 120}, {"time": 133918, "pitch": 59, "duration": 87, "velocity": 120}, {"time": 133918, "pitch": 63, "duration": 109, "velocity": 120}, {"time": 133918, "pitch": 66, "duration": 89, "velocity": 120}, {"time": 134159, "pitch": 47, "duration": 80, "velocity": 120}, {"time": 134159, "pitch": 59, "duration": 78, "velocity": 120}, {"time": 134159, "pitch": 63, "duration": 115, "velocity": 120}, {"time": 134159, "pitch": 66, "duration": 83, "velocity": 120}, {"time": 134400, "pitch": 47, "duration": 102, "velocity": 120}, {"time": 134400, "pitch": 59, "duration": 85, "velocity": 120}, {"time": 134400, "pitch": 63, "duration": 121, "velocity": 120}, {"time": 134400, "pitch": 66, "duration": 103, "velocity": 120}, {"time": 134640, "pitch": 47, "duration": 113, "velocity": 120}, {"time": 134640, "pitch": 59, "duration": 82, "velocity": 120}, {"time": 134640, "pitch": 63, "duration": 121, "velocity": 120}, {"time": 134640, "pitch": 66, "duration": 124, "velocity": 120}, {"time": 134881, "pitch": 45, "duration": 160, "velocity": 120}, {"time": 134881, "pitch": 61, "duration": 132, "velocity": 120}, {"time": 134881, "pitch": 64, "duration": 161, "velocity": 120}, {"time": 134881, "pitch": 68, "duration": 138, "velocity": 120}, {"time": 135122, "pitch": 45, "duration": 127, "velocity": 120}, {"time": 135122, "pitch": 61, "duration": 126, "velocity": 120}, {"time": 135122, "pitch": 64, "duration": 167, "velocity": 120}, {"time": 135122, "pitch": 68, "duration": 134, "velocity": 120}, {"time": 135363, "pitch": 45, "duration": 280, "velocity": 120}, {"time": 135363, "pitch": 61, "duration": 271, "velocity": 120}, {"time": 135363, "pitch": 64, "duration": 277, "velocity": 120}, {"time": 135363, "pitch": 68, "duration": 271, "velocity": 120}, {"time": 135718, "pitch": 47, "duration": 109, "velocity": 120}, {"time": 135718, "pitch": 59, "duration": 80, "velocity": 120}, {"time": 135718, "pitch": 63, "duration": 118, "velocity": 120}, {"time": 135718, "pitch": 66, "duration": 92, "velocity": 120}, {"time": 135957, "pitch": 47, "duration": 100, "velocity": 120}, {"time": 135957, "pitch": 59, "duration": 91, "velocity": 120}, {"time": 135957, "pitch": 63, "duration": 118, "velocity": 120}, {"time": 135957, "pitch": 66, "duration": 106, "velocity": 120}, {"time": 136198, "pitch": 47, "duration": 148, "velocity": 120}, {"time": 136198, "pitch": 59, "duration": 143, "velocity": 120}, {"time": 136198, "pitch": 63, "duration": 167, "velocity": 120}, {"time": 136198, "pitch": 66, "duration": 159, "velocity": 120}, {"time": 136439, "pitch": 47, "duration": 138, "velocity": 120}, {"time": 136439, "pitch": 59, "duration": 125, "velocity": 120}, {"time": 136439, "pitch": 63, "duration": 161, "velocity": 120}, {"time": 136439, "pitch": 66, "duration": 141, "velocity": 120}, {"time": 136680, "pitch": 47, "duration": 62, "velocity": 120}, {"time": 136680, "pitch": 59, "duration": 25, "velocity": 120}, {"time": 136680, "pitch": 63, "duration": 45, "velocity": 120}, {"time": 136680, "pitch": 66, "duration": 26, "velocity": 120}, {"time": 136800, "pitch": 49, "duration": 276, "velocity": 120}, {"time": 136800, "pitch": 59, "duration": 266, "velocity": 120}, {"time": 136800, "pitch": 63, "duration": 288, "velocity": 120}, {"time": 136800, "pitch": 66, "duration": 284, "velocity": 120}, {"time": 137162, "pitch": 49, "duration": 267, "velocity": 120}, {"time": 137162, "pitch": 59, "duration": 263, "velocity": 120}, {"time": 137162, "pitch": 64, "duration": 261, "velocity": 120}, {"time": 137162, "pitch": 68, "duration": 254, "velocity": 120}, {"time": 137523, "pitch": 49, "duration": 117, "velocity": 120}, {"time": 137523, "pitch": 59, "duration": 254, "velocity": 120}, {"time": 137523, "pitch": 63, "duration": 268, "velocity": 120}, {"time": 137523, "pitch": 66, "duration": 256, "velocity": 120}, {"time": 137764, "pitch": 49, "duration": 78, "velocity": 120}, {"time": 137882, "pitch": 59, "duration": 167, "velocity": 120}, {"time": 137882, "pitch": 64, "duration": 210, "velocity": 120}, {"time": 137882, "pitch": 68, "duration": 187, "velocity": 120}, {"time": 138001, "pitch": 49, "duration": 125, "velocity": 120}, {"time": 138238, "pitch": 49, "duration": 159, "velocity": 120}, {"time": 138238, "pitch": 59, "duration": 144, "velocity": 120}, {"time": 138238, "pitch": 63, "duration": 161, "velocity": 120}, {"time": 138238, "pitch": 66, "duration": 155, "velocity": 120}, {"time": 138479, "pitch": 49, "duration": 146, "velocity": 120}, {"time": 138479, "pitch": 59, "duration": 147, "velocity": 120}, {"time": 138479, "pitch": 64, "duration": 171, "velocity": 120}, {"time": 138479, "pitch": 68, "duration": 154, "velocity": 120}, {"time": 138720, "pitch": 45, "duration": 143, "velocity": 120}, {"time": 138720, "pitch": 61, "duration": 118, "velocity": 120}, {"time": 138720, "pitch": 64, "duration": 153, "velocity": 120}, {"time": 138720, "pitch": 68, "duration": 136, "velocity": 120}, {"time": 138960, "pitch": 45, "duration": 135, "velocity": 120}, {"time": 138960, "pitch": 61, "duration": 97, "velocity": 120}, {"time": 138960, "pitch": 64, "duration": 138, "velocity": 120}, {"time": 138960, "pitch": 68, "duration": 118, "velocity": 120}, {"time": 139201, "pitch": 45, "duration": 110, "velocity": 120}, {"time": 139201, "pitch": 61, "duration": 271, "velocity": 120}, {"time": 139201, "pitch": 64, "duration": 277, "velocity": 120}, {"time": 139201, "pitch": 68, "duration": 270, "velocity": 120}, {"time": 139442, "pitch": 45, "duration": 82, "velocity": 120}, {"time": 139563, "pitch": 59, "duration": 70, "velocity": 120}, {"time": 139563, "pitch": 63, "duration": 95, "velocity": 120}, {"time": 139563, "pitch": 66, "duration": 72, "velocity": 120}, {"time": 139683, "pitch": 47, "duration": 61, "velocity": 120}, {"time": 139801, "pitch": 59, "duration": 231, "velocity": 120}, {"time": 139801, "pitch": 63, "duration": 264, "velocity": 120}, {"time": 139801, "pitch": 66, "duration": 254, "velocity": 120}, {"time": 139920, "pitch": 47, "duration": 143, "velocity": 120}, {"time": 140157, "pitch": 47, "duration": 111, "velocity": 120}, {"time": 140157, "pitch": 59, "duration": 145, "velocity": 120}, {"time": 140157, "pitch": 63, "duration": 178, "velocity": 120}, {"time": 140157, "pitch": 66, "duration": 160, "velocity": 120}, {"time": 140398, "pitch": 47, "duration": 126, "velocity": 120}, {"time": 140398, "pitch": 59, "duration": 96, "velocity": 120}, {"time": 140398, "pitch": 63, "duration": 149, "velocity": 120}, {"time": 140398, "pitch": 66, "duration": 123, "velocity": 120}, {"time": 140639, "pitch": 52, "duration": 109, "velocity": 120}, {"time": 140639, "pitch": 59, "duration": 243, "velocity": 120}, {"time": 140639, "pitch": 63, "duration": 255, "velocity": 120}, {"time": 140639, "pitch": 66, "duration": 250, "velocity": 120}, {"time": 140880, "pitch": 52, "duration": 81, "velocity": 120}, {"time": 141000, "pitch": 59, "duration": 133, "velocity": 120}, {"time": 141000, "pitch": 64, "duration": 154, "velocity": 120}, {"time": 141000, "pitch": 68, "duration": 133, "velocity": 120}, {"time": 141120, "pitch": 52, "duration": 97, "velocity": 120}, {"time": 141361, "pitch": 52, "duration": 128, "velocity": 120}, {"time": 141361, "pitch": 59, "duration": 218, "velocity": 120}, {"time": 141361, "pitch": 63, "duration": 238, "velocity": 120}, {"time": 141361, "pitch": 66, "duration": 230, "velocity": 120}, {"time": 141602, "pitch": 52, "duration": 71, "velocity": 120}, {"time": 141723, "pitch": 59, "duration": 236, "velocity": 120}, {"time": 141723, "pitch": 64, "duration": 244, "velocity": 120}, {"time": 141723, "pitch": 68, "duration": 224, "velocity": 120}, {"time": 141843, "pitch": 52, "duration": 128, "velocity": 120}, {"time": 142084, "pitch": 52, "duration": 129, "velocity": 120}, {"time": 142084, "pitch": 59, "duration": 138, "velocity": 120}, {"time": 142084, "pitch": 63, "duration": 159, "velocity": 120}, {"time": 142084, "pitch": 66, "duration": 146, "velocity": 120}, {"time": 142321, "pitch": 52, "duration": 96, "velocity": 120}, {"time": 142321, "pitch": 59, "duration": 123, "velocity": 120}, {"time": 142321, "pitch": 64, "duration": 154, "velocity": 120}, {"time": 142321, "pitch": 68, "duration": 143, "velocity": 120}, {"time": 142558, "pitch": 45, "duration": 150, "velocity": 120}, {"time": 142558, "pitch": 61, "duration": 119, "velocity": 120}, {"time": 142558, "pitch": 64, "duration": 154, "velocity": 120}, {"time": 142558, "pitch": 68, "duration": 124, "velocity": 120}, {"time": 142799, "pitch": 45, "duration": 87, "velocity": 120}, {"time": 142799, "pitch": 61, "duration": 85, "velocity": 120}, {"time": 142799, "pitch": 64, "duration": 121, "velocity": 120}, {"time": 142799, "pitch": 68, "duration": 88, "velocity": 120}, {"time": 143040, "pitch": 45, "duration": 77, "velocity": 120}, {"time": 143040, "pitch": 61, "duration": 254, "velocity": 120}, {"time": 143040, "pitch": 64, "duration": 254, "velocity": 120}, {"time": 143040, "pitch": 68, "duration": 260, "velocity": 120}, {"time": 143280, "pitch": 45, "duration": 71, "velocity": 120}, {"time": 143401, "pitch": 59, "duration": 56, "velocity": 120}, {"time": 143401, "pitch": 63, "duration": 88, "velocity": 120}, {"time": 143401, "pitch": 66, "duration": 72, "velocity": 120}, {"time": 143521, "pitch": 47, "duration": 58, "velocity": 120}, {"time": 143642, "pitch": 59, "duration": 115, "velocity": 120}, {"time": 143642, "pitch": 63, "duration": 131, "velocity": 120}, {"time": 143642, "pitch": 66, "duration": 112, "velocity": 120}, {"time": 143762, "pitch": 47, "duration": 135, "velocity": 120}, {"time": 143883, "pitch": 59, "duration": 117, "velocity": 120}, {"time": 143883, "pitch": 63, "duration": 137, "velocity": 120}, {"time": 143883, "pitch": 66, "duration": 123, "velocity": 120}, {"time": 144003, "pitch": 47, "duration": 69, "velocity": 120}, {"time": 144121, "pitch": 59, "duration": 209, "velocity": 120}, {"time": 144121, "pitch": 63, "duration": 237, "velocity": 120}, {"time": 144121, "pitch": 66, "duration": 217, "velocity": 120}, {"time": 144240, "pitch": 47, "duration": 94, "velocity": 120}, {"time": 144477, "pitch": 49, "duration": 91, "velocity": 120}, {"time": 144477, "pitch": 59, "duration": 250, "velocity": 120}, {"time": 144477, "pitch": 63, "duration": 268, "velocity": 120}, {"time": 144477, "pitch": 66, "duration": 265, "velocity": 120}, {"time": 144718, "pitch": 49, "duration": 70, "velocity": 120}, {"time": 144838, "pitch": 59, "duration": 194, "velocity": 120}, {"time": 144838, "pitch": 64, "duration": 201, "velocity": 120}, {"time": 144838, "pitch": 68, "duration": 191, "velocity": 120}, {"time": 144959, "pitch": 49, "duration": 135, "velocity": 120}, {"time": 145200, "pitch": 49, "duration": 72, "velocity": 120}, {"time": 145200, "pitch": 59, "duration": 235, "velocity": 120}, {"time": 145200, "pitch": 63, "duration": 246, "velocity": 120}, {"time": 145200, "pitch": 66, "duration": 238, "velocity": 120}, {"time": 145440, "pitch": 49, "duration": 55, "velocity": 120}, {"time": 145561, "pitch": 59, "duration": 197, "velocity": 120}, {"time": 145561, "pitch": 64, "duration": 209, "velocity": 120}, {"time": 145561, "pitch": 68, "duration": 206, "velocity": 120}, {"time": 145681, "pitch": 49, "duration": 70, "velocity": 120}, {"time": 145922, "pitch": 49, "duration": 113, "velocity": 120}, {"time": 145922, "pitch": 59, "duration": 136, "velocity": 120}, {"time": 145922, "pitch": 63, "duration": 163, "velocity": 120}, {"time": 145922, "pitch": 66, "duration": 142, "velocity": 120}, {"time": 146163, "pitch": 49, "duration": 101, "velocity": 120}, {"time": 146163, "pitch": 59, "duration": 118, "velocity": 120}, {"time": 146163, "pitch": 64, "duration": 122, "velocity": 120}, {"time": 146163, "pitch": 68, "duration": 105, "velocity": 120}, {"time": 146404, "pitch": 45, "duration": 117, "velocity": 120}, {"time": 146404, "pitch": 57, "duration": 137, "velocity": 120}, {"time": 146404, "pitch": 61, "duration": 154, "velocity": 120}, {"time": 146404, "pitch": 64, "duration": 123, "velocity": 120}, {"time": 146641, "pitch": 45, "duration": 108, "velocity": 120}, {"time": 146641, "pitch": 57, "duration": 109, "velocity": 120}, {"time": 146641, "pitch": 61, "duration": 138, "velocity": 120}, {"time": 146641, "pitch": 64, "duration": 114, "velocity": 120}, {"time": 146878, "pitch": 45, "duration": 84, "velocity": 120}, {"time": 146878, "pitch": 57, "duration": 225, "velocity": 120}, {"time": 146878, "pitch": 61, "duration": 255, "velocity": 120}, {"time": 146878, "pitch": 64, "duration": 236, "velocity": 120}, {"time": 147119, "pitch": 45, "duration": 67, "velocity": 120}, {"time": 147239, "pitch": 59, "duration": 94, "velocity": 120}, {"time": 147239, "pitch": 63, "duration": 123, "velocity": 120}, {"time": 147239, "pitch": 66, "duration": 101, "velocity": 120}, {"time": 147360, "pitch": 47, "duration": 56, "velocity": 120}, {"time": 147480, "pitch": 59, "duration": 234, "velocity": 120}, {"time": 147480, "pitch": 63, "duration": 260, "velocity": 120}, {"time": 147480, "pitch": 66, "duration": 248, "velocity": 120}, {"time": 147600, "pitch": 47, "duration": 98, "velocity": 120}, {"time": 147841, "pitch": 47, "duration": 106, "velocity": 120}, {"time": 147841, "pitch": 59, "duration": 110, "velocity": 120}, {"time": 147841, "pitch": 63, "duration": 147, "velocity": 120}, {"time": 147841, "pitch": 66, "duration": 123, "velocity": 120}, {"time": 148082, "pitch": 47, "duration": 113, "velocity": 120}, {"time": 148082, "pitch": 59, "duration": 80, "velocity": 120}, {"time": 148082, "pitch": 63, "duration": 128, "velocity": 120}, {"time": 148082, "pitch": 66, "duration": 116, "velocity": 120}, {"time": 148323, "pitch": 49, "duration": 80, "velocity": 120}, {"time": 148323, "pitch": 59, "duration": 218, "velocity": 120}, {"time": 148323, "pitch": 63, "duration": 234, "velocity": 120}, {"time": 148323, "pitch": 66, "duration": 225, "velocity": 120}, {"time": 148560, "pitch": 49, "duration": 57, "velocity": 120}, {"time": 148678, "pitch": 59, "duration": 158, "velocity": 120}, {"time": 148678, "pitch": 64, "duration": 189, "velocity": 120}, {"time": 148678, "pitch": 68, "duration": 162, "velocity": 120}, {"time": 148797, "pitch": 49, "duration": 72, "velocity": 120}, {"time": 149038, "pitch": 49, "duration": 70, "velocity": 120}, {"time": 149038, "pitch": 59, "duration": 238, "velocity": 120}, {"time": 149038, "pitch": 63, "duration": 253, "velocity": 120}, {"time": 149038, "pitch": 66, "duration": 214, "velocity": 120}, {"time": 149279, "pitch": 49, "duration": 67, "velocity": 120}, {"time": 149399, "pitch": 59, "duration": 242, "velocity": 120}, {"time": 149399, "pitch": 64, "duration": 243, "velocity": 120}, {"time": 149399, "pitch": 68, "duration": 235, "velocity": 120}, {"time": 149520, "pitch": 49, "duration": 116, "velocity": 120}, {"time": 149760, "pitch": 49, "duration": 153, "velocity": 120}, {"time": 149760, "pitch": 59, "duration": 159, "velocity": 120}, {"time": 149760, "pitch": 63, "duration": 176, "velocity": 120}, {"time": 149760, "pitch": 66, "duration": 164, "velocity": 120}, {"time": 150001, "pitch": 49, "duration": 141, "velocity": 120}, {"time": 150001, "pitch": 59, "duration": 117, "velocity": 120}, {"time": 150001, "pitch": 64, "duration": 152, "velocity": 120}, {"time": 150001, "pitch": 68, "duration": 131, "velocity": 120}, {"time": 150242, "pitch": 42, "duration": 85, "velocity": 120}, {"time": 150242, "pitch": 57, "duration": 82, "velocity": 120}, {"time": 150242, "pitch": 61, "duration": 109, "velocity": 120}, {"time": 150242, "pitch": 64, "duration": 90, "velocity": 120}, {"time": 150479, "pitch": 42, "duration": 131, "velocity": 120}, {"time": 150479, "pitch": 57, "duration": 123, "velocity": 120}, {"time": 150479, "pitch": 61, "duration": 158, "velocity": 120}, {"time": 150479, "pitch": 64, "duration": 132, "velocity": 120}, {"time": 150716, "pitch": 42, "duration": 135, "velocity": 120}, {"time": 150716, "pitch": 57, "duration": 116, "velocity": 120}, {"time": 150716, "pitch": 61, "duration": 156, "velocity": 120}, {"time": 150716, "pitch": 64, "duration": 135, "velocity": 120}, {"time": 150957, "pitch": 42, "duration": 121, "velocity": 120}, {"time": 150957, "pitch": 57, "duration": 99, "velocity": 120}, {"time": 150957, "pitch": 61, "duration": 141, "velocity": 120}, {"time": 150957, "pitch": 64, "duration": 105, "velocity": 120}, {"time": 151198, "pitch": 42, "duration": 435, "velocity": 120}, {"time": 151198, "pitch": 57, "duration": 91, "velocity": 120}, {"time": 151198, "pitch": 61, "duration": 185, "velocity": 120}, {"time": 151198, "pitch": 64, "duration": 183, "velocity": 120}, {"time": 151439, "pitch": 57, "duration": 160, "velocity": 120}, {"time": 151559, "pitch": 61, "duration": 77, "velocity": 120}, {"time": 151680, "pitch": 42, "duration": 172, "velocity": 120}, {"time": 151680, "pitch": 57, "duration": 184, "velocity": 120}, {"time": 151680, "pitch": 61, "duration": 221, "velocity": 120}, {"time": 151680, "pitch": 64, "duration": 206, "velocity": 120}, {"time": 151920, "pitch": 47, "duration": 241, "velocity": 120}, {"time": 151920, "pitch": 59, "duration": 241, "velocity": 120}, {"time": 151920, "pitch": 64, "duration": 241, "velocity": 120}, {"time": 151920, "pitch": 68, "duration": 241, "velocity": 120}, {"time": 152161, "pitch": 47, "duration": 124, "velocity": 120}, {"time": 152402, "pitch": 47, "duration": 156, "velocity": 120}, {"time": 152402, "pitch": 59, "duration": 148, "velocity": 120}, {"time": 152402, "pitch": 63, "duration": 171, "velocity": 120}, {"time": 152402, "pitch": 66, "duration": 150, "velocity": 120}, {"time": 152643, "pitch": 47, "duration": 318, "velocity": 120}, {"time": 152643, "pitch": 59, "duration": 284, "velocity": 120}, {"time": 152643, "pitch": 63, "duration": 293, "velocity": 120}, {"time": 152643, "pitch": 66, "duration": 304, "velocity": 120}, {"time": 154080, "pitch": 52, "duration": 1538, "velocity": 120}, {"time": 154080, "pitch": 59, "duration": 570, "velocity": 120}, {"time": 154080, "pitch": 64, "duration": 666, "velocity": 120}, {"time": 154080, "pitch": 68, "duration": 667, "velocity": 120}, {"time": 154799, "pitch": 59, "duration": 155, "velocity": 120}, {"time": 154918, "pitch": 64, "duration": 72, "velocity": 120}, {"time": 155036, "pitch": 59, "duration": 174, "velocity": 120}, {"time": 155036, "pitch": 64, "duration": 201, "velocity": 61}, {"time": 155036, "pitch": 66, "duration": 157, "velocity": 120}, {"time": 155277, "pitch": 64, "duration": 256, "velocity": 115}, {"time": 155277, "pitch": 68, "duration": 183, "velocity": 120}, {"time": 155518, "pitch": 59, "duration": 174, "velocity": 120}, {"time": 155759, "pitch": 47, "duration": 392, "velocity": 120}, {"time": 155759, "pitch": 59, "duration": 776, "velocity": 120}, {"time": 155759, "pitch": 63, "duration": 857, "velocity": 120}, {"time": 155759, "pitch": 66, "duration": 819, "velocity": 120}, {"time": 156240, "pitch": 47, "duration": 95, "velocity": 120}, {"time": 156481, "pitch": 47, "duration": 1073, "velocity": 120}, {"time": 156722, "pitch": 59, "duration": 136, "velocity": 120}, {"time": 156843, "pitch": 61, "duration": 78, "velocity": 120}, {"time": 156963, "pitch": 59, "duration": 148, "velocity": 120}, {"time": 156963, "pitch": 61, "duration": 175, "velocity": 75}, {"time": 156963, "pitch": 63, "duration": 198, "velocity": 120}, {"time": 157200, "pitch": 61, "duration": 145, "velocity": 102}, {"time": 157200, "pitch": 63, "duration": 316, "velocity": 66}, {"time": 157200, "pitch": 66, "duration": 235, "velocity": 120}, {"time": 157437, "pitch": 59, "duration": 133, "velocity": 120}, {"time": 157678, "pitch": 45, "duration": 374, "velocity": 120}, {"time": 157678, "pitch": 57, "duration": 812, "velocity": 120}, {"time": 157678, "pitch": 59, "duration": 876, "velocity": 120}, {"time": 157678, "pitch": 61, "duration": 907, "velocity": 120}, {"time": 157678, "pitch": 64, "duration": 871, "velocity": 120}, {"time": 158160, "pitch": 45, "duration": 99, "velocity": 120}, {"time": 158400, "pitch": 45, "duration": 1078, "velocity": 120}, {"time": 158641, "pitch": 57, "duration": 87, "velocity": 120}, {"time": 158762, "pitch": 59, "duration": 271, "velocity": 120}, {"time": 158882, "pitch": 57, "duration": 160, "velocity": 106}, {"time": 158882, "pitch": 61, "duration": 178, "velocity": 120}, {"time": 159119, "pitch": 57, "duration": 29, "velocity": 42}, {"time": 159119, "pitch": 64, "duration": 298, "velocity": 120}, {"time": 159356, "pitch": 57, "duration": 144, "velocity": 120}, {"time": 159597, "pitch": 42, "duration": 341, "velocity": 120}, {"time": 159597, "pitch": 57, "duration": 340, "velocity": 119}, {"time": 159597, "pitch": 61, "duration": 376, "velocity": 120}, {"time": 159597, "pitch": 64, "duration": 342, "velocity": 120}, {"time": 160079, "pitch": 42, "duration": 93, "velocity": 120}, {"time": 160079, "pitch": 57, "duration": 79, "velocity": 118}, {"time": 160079, "pitch": 61, "duration": 114, "velocity": 120}, {"time": 160079, "pitch": 64, "duration": 94, "velocity": 120}, {"time": 160320, "pitch": 42, "duration": 98, "velocity": 120}, {"time": 160320, "pitch": 57, "duration": 91, "velocity": 120}, {"time": 160320, "pitch": 61, "duration": 127, "velocity": 109}, {"time": 160320, "pitch": 64, "duration": 100, "velocity": 120}, {"time": 160560, "pitch": 42, "duration": 176, "velocity": 120}, {"time": 160560, "pitch": 57, "duration": 137, "velocity": 120}, {"time": 160560, "pitch": 61, "duration": 161, "velocity": 120}, {"time": 160560, "pitch": 64, "duration": 161, "velocity": 120}, {"time": 160801, "pitch": 47, "duration": 118, "velocity": 120}, {"time": 160801, "pitch": 59, "duration": 109, "velocity": 120}, {"time": 160801, "pitch": 63, "duration": 128, "velocity": 120}, {"time": 160801, "pitch": 66, "duration": 97, "velocity": 120}, {"time": 161042, "pitch": 47, "duration": 91, "velocity": 120}, {"time": 161042, "pitch": 59, "duration": 84, "velocity": 120}, {"time": 161042, "pitch": 63, "duration": 108, "velocity": 120}, {"time": 161042, "pitch": 66, "duration": 88, "velocity": 120}, {"time": 161283, "pitch": 47, "duration": 72, "velocity": 120}, {"time": 161283, "pitch": 59, "duration": 78, "velocity": 120}, {"time": 161283, "pitch": 63, "duration": 119, "velocity": 120}, {"time": 161283, "pitch": 66, "duration": 102, "velocity": 119}, {"time": 161520, "pitch": 47, "duration": 172, "velocity": 120}, {"time": 161520, "pitch": 59, "duration": 123, "velocity": 120}, {"time": 161520, "pitch": 63, "duration": 158, "velocity": 120}, {"time": 161520, "pitch": 66, "duration": 142, "velocity": 120}, {"time": 161757, "pitch": 44, "duration": 1584, "velocity": 120}, {"time": 161757, "pitch": 59, "duration": 566, "velocity": 120}, {"time": 161757, "pitch": 63, "duration": 629, "velocity": 120}, {"time": 161757, "pitch": 66, "duration": 636, "velocity": 120}, {"time": 162480, "pitch": 59, "duration": 141, "velocity": 120}, {"time": 162600, "pitch": 63, "duration": 87, "velocity": 120}, {"time": 162720, "pitch": 59, "duration": 628, "velocity": 120}, {"time": 162720, "pitch": 63, "duration": 596, "velocity": 120}, {"time": 162720, "pitch": 66, "duration": 289, "velocity": 120}, {"time": 163082, "pitch": 71, "duration": 236, "velocity": 120}, {"time": 163439, "pitch": 45, "duration": 366, "velocity": 120}, {"time": 163439, "pitch": 57, "duration": 363, "velocity": 120}, {"time": 163439, "pitch": 61, "duration": 397, "velocity": 120}, {"time": 163439, "pitch": 64, "duration": 375, "velocity": 120}, {"time": 163917, "pitch": 45, "duration": 87, "velocity": 120}, {"time": 163917, "pitch": 57, "duration": 70, "velocity": 120}, {"time": 163917, "pitch": 61, "duration": 111, "velocity": 120}, {"time": 163917, "pitch": 64, "duration": 80, "velocity": 120}, {"time": 164158, "pitch": 45, "duration": 109, "velocity": 120}, {"time": 164158, "pitch": 57, "duration": 109, "velocity": 120}, {"time": 164158, "pitch": 61, "duration": 188, "velocity": 120}, {"time": 164158, "pitch": 64, "duration": 188, "velocity": 120}, {"time": 164640, "pitch": 47, "duration": 369, "velocity": 120}, {"time": 164640, "pitch": 59, "duration": 366, "velocity": 120}, {"time": 164640, "pitch": 63, "duration": 400, "velocity": 120}, {"time": 164640, "pitch": 66, "duration": 378, "velocity": 120}, {"time": 165121, "pitch": 48, "duration": 226, "velocity": 120}, {"time": 165121, "pitch": 60, "duration": 158, "velocity": 120}, {"time": 165121, "pitch": 63, "duration": 244, "velocity": 120}, {"time": 165121, "pitch": 66, "duration": 204, "velocity": 120}, {"time": 165603, "pitch": 49, "duration": 145, "velocity": 120}, {"time": 165603, "pitch": 59, "duration": 114, "velocity": 120}, {"time": 165603, "pitch": 64, "duration": 162, "velocity": 120}, {"time": 165603, "pitch": 68, "duration": 144, "velocity": 120}, {"time": 165840, "pitch": 49, "duration": 113, "velocity": 120}, {"time": 165840, "pitch": 59, "duration": 110, "velocity": 120}, {"time": 165840, "pitch": 64, "duration": 142, "velocity": 109}, {"time": 165840, "pitch": 68, "duration": 118, "velocity": 120}, {"time": 166077, "pitch": 49, "duration": 119, "velocity": 120}, {"time": 166077, "pitch": 59, "duration": 96, "velocity": 120}, {"time": 166077, "pitch": 64, "duration": 136, "velocity": 120}, {"time": 166077, "pitch": 68, "duration": 124, "velocity": 120}, {"time": 166318, "pitch": 49, "duration": 152, "velocity": 120}, {"time": 166318, "pitch": 59, "duration": 115, "velocity": 120}, {"time": 166318, "pitch": 63, "duration": 143, "velocity": 120}, {"time": 166318, "pitch": 66, "duration": 128, "velocity": 120}, {"time": 166559, "pitch": 49, "duration": 161, "velocity": 120}, {"time": 166559, "pitch": 59, "duration": 147, "velocity": 120}, {"time": 166559, "pitch": 64, "duration": 171, "velocity": 120}, {"time": 166559, "pitch": 68, "duration": 159, "velocity": 120}, {"time": 166800, "pitch": 49, "duration": 151, "velocity": 120}, {"time": 166800, "pitch": 59, "duration": 126, "velocity": 120}, {"time": 166800, "pitch": 64, "duration": 157, "velocity": 120}, {"time": 166800, "pitch": 68, "duration": 146, "velocity": 120}, {"time": 167040, "pitch": 49, "duration": 153, "velocity": 120}, {"time": 167040, "pitch": 59, "duration": 106, "velocity": 120}, {"time": 167040, "pitch": 64, "duration": 156, "velocity": 120}, {"time": 167040, "pitch": 68, "duration": 147, "velocity": 120}, {"time": 167281, "pitch": 42, "duration": 375, "velocity": 120}, {"time": 167281, "pitch": 57, "duration": 348, "velocity": 120}, {"time": 167281, "pitch": 61, "duration": 354, "velocity": 120}, {"time": 167281, "pitch": 64, "duration": 344, "velocity": 120}, {"time": 167759, "pitch": 42, "duration": 82, "velocity": 120}, {"time": 167759, "pitch": 57, "duration": 62, "velocity": 120}, {"time": 167759, "pitch": 61, "duration": 102, "velocity": 120}, {"time": 167759, "pitch": 64, "duration": 73, "velocity": 120}, {"time": 167996, "pitch": 42, "duration": 108, "velocity": 120}, {"time": 167996, "pitch": 57, "duration": 78, "velocity": 120}, {"time": 167996, "pitch": 61, "duration": 113, "velocity": 120}, {"time": 167996, "pitch": 64, "duration": 85, "velocity": 120}, {"time": 168237, "pitch": 42, "duration": 153, "velocity": 120}, {"time": 168237, "pitch": 57, "duration": 114, "velocity": 120}, {"time": 168237, "pitch": 61, "duration": 149, "velocity": 120}, {"time": 168237, "pitch": 64, "duration": 152, "velocity": 120}, {"time": 168478, "pitch": 47, "duration": 92, "velocity": 120}, {"time": 168478, "pitch": 59, "duration": 87, "velocity": 120}, {"time": 168478, "pitch": 63, "duration": 109, "velocity": 120}, {"time": 168478, "pitch": 66, "duration": 89, "velocity": 120}, {"time": 168719, "pitch": 47, "duration": 80, "velocity": 120}, {"time": 168719, "pitch": 59, "duration": 78, "velocity": 120}, {"time": 168719, "pitch": 63, "duration": 115, "velocity": 120}, {"time": 168719, "pitch": 66, "duration": 83, "velocity": 120}, {"time": 168960, "pitch": 47, "duration": 102, "velocity": 120}, {"time": 168960, "pitch": 59, "duration": 85, "velocity": 120}, {"time": 168960, "pitch": 63, "duration": 121, "velocity": 120}, {"time": 168960, "pitch": 66, "duration": 103, "velocity": 120}, {"time": 169200, "pitch": 47, "duration": 113, "velocity": 120}, {"time": 169200, "pitch": 59, "duration": 82, "velocity": 120}, {"time": 169200, "pitch": 63, "duration": 121, "velocity": 120}, {"time": 169200, "pitch": 66, "duration": 124, "velocity": 120}, {"time": 169441, "pitch": 52, "duration": 1538, "velocity": 120}, {"time": 169441, "pitch": 59, "duration": 570, "velocity": 120}, {"time": 169441, "pitch": 64, "duration": 666, "velocity": 120}, {"time": 169441, "pitch": 68, "duration": 667, "velocity": 120}, {"time": 170160, "pitch": 59, "duration": 155, "velocity": 120}, {"time": 170279, "pitch": 64, "duration": 72, "velocity": 120}, {"time": 170397, "pitch": 59, "duration": 174, "velocity": 120}, {"time": 170397, "pitch": 64, "duration": 201, "velocity": 61}, {"time": 170397, "pitch": 66, "duration": 157, "velocity": 120}, {"time": 170638, "pitch": 64, "duration": 256, "velocity": 115}, {"time": 170638, "pitch": 68, "duration": 183, "velocity": 120}, {"time": 170879, "pitch": 59, "duration": 174, "velocity": 120}, {"time": 171120, "pitch": 47, "duration": 392, "velocity": 120}, {"time": 171120, "pitch": 59, "duration": 775, "velocity": 120}, {"time": 171120, "pitch": 63, "duration": 855, "velocity": 120}, {"time": 171120, "pitch": 66, "duration": 817, "velocity": 120}, {"time": 171601, "pitch": 47, "duration": 95, "velocity": 120}, {"time": 171842, "pitch": 47, "duration": 1073, "velocity": 120}, {"time": 172079, "pitch": 59, "duration": 134, "velocity": 120}, {"time": 172198, "pitch": 61, "duration": 77, "velocity": 120}, {"time": 172316, "pitch": 59, "duration": 151, "velocity": 120}, {"time": 172316, "pitch": 61, "duration": 178, "velocity": 75}, {"time": 172316, "pitch": 63, "duration": 201, "velocity": 120}, {"time": 172557, "pitch": 61, "duration": 148, "velocity": 102}, {"time": 172557, "pitch": 63, "duration": 320, "velocity": 66}, {"time": 172557, "pitch": 66, "duration": 239, "velocity": 120}, {"time": 172798, "pitch": 59, "duration": 133, "velocity": 120}, {"time": 173039, "pitch": 45, "duration": 374, "velocity": 120}, {"time": 173039, "pitch": 57, "duration": 812, "velocity": 120}, {"time": 173039, "pitch": 59, "duration": 876, "velocity": 120}, {"time": 173039, "pitch": 61, "duration": 907, "velocity": 120}, {"time": 173039, "pitch": 64, "duration": 871, "velocity": 120}, {"time": 173521, "pitch": 45, "duration": 99, "velocity": 120}, {"time": 173761, "pitch": 45, "duration": 1077, "velocity": 120}, {"time": 174002, "pitch": 57, "duration": 87, "velocity": 120}, {"time": 174123, "pitch": 59, "duration": 271, "velocity": 120}, {"time": 174243, "pitch": 57, "duration": 160, "velocity": 106}, {"time": 174243, "pitch": 61, "duration": 178, "velocity": 120}, {"time": 174480, "pitch": 57, "duration": 29, "velocity": 42}, {"time": 174480, "pitch": 64, "duration": 298, "velocity": 120}, {"time": 174717, "pitch": 57, "duration": 144, "velocity": 120}, {"time": 174958, "pitch": 42, "duration": 341, "velocity": 120}, {"time": 174958, "pitch": 57, "duration": 340, "velocity": 119}, {"time": 174958, "pitch": 61, "duration": 376, "velocity": 120}, {"time": 174958, "pitch": 64, "duration": 342, "velocity": 120}, {"time": 175440, "pitch": 42, "duration": 93, "velocity": 120}, {"time": 175440, "pitch": 57, "duration": 79, "velocity": 118}, {"time": 175440, "pitch": 61, "duration": 114, "velocity": 120}, {"time": 175440, "pitch": 64, "duration": 94, "velocity": 120}, {"time": 175681, "pitch": 42, "duration": 98, "velocity": 120}, {"time": 175681, "pitch": 57, "duration": 91, "velocity": 120}, {"time": 175681, "pitch": 61, "duration": 127, "velocity": 109}, {"time": 175681, "pitch": 64, "duration": 100, "velocity": 120}, {"time": 175921, "pitch": 42, "duration": 176, "velocity": 120}, {"time": 175921, "pitch": 57, "duration": 137, "velocity": 120}, {"time": 175921, "pitch": 61, "duration": 161, "velocity": 120}, {"time": 175921, "pitch": 64, "duration": 161, "velocity": 120}, {"time": 176162, "pitch": 47, "duration": 116, "velocity": 120}, {"time": 176162, "pitch": 59, "duration": 107, "velocity": 120}, {"time": 176162, "pitch": 63, "duration": 126, "velocity": 120}, {"time": 176162, "pitch": 66, "duration": 95, "velocity": 120}, {"time": 176399, "pitch": 47, "duration": 89, "velocity": 120}, {"time": 176399, "pitch": 59, "duration": 82, "velocity": 120}, {"time": 176399, "pitch": 63, "duration": 106, "velocity": 120}, {"time": 176399, "pitch": 66, "duration": 86, "velocity": 120}, {"time": 176636, "pitch": 47, "duration": 73, "velocity": 120}, {"time": 176636, "pitch": 59, "duration": 79, "velocity": 120}, {"time": 176636, "pitch": 63, "duration": 121, "velocity": 120}, {"time": 176636, "pitch": 66, "duration": 104, "velocity": 119}, {"time": 176877, "pitch": 47, "duration": 175, "velocity": 120}, {"time": 176877, "pitch": 59, "duration": 125, "velocity": 120}, {"time": 176877, "pitch": 63, "duration": 161, "velocity": 120}, {"time": 176877, "pitch": 66, "duration": 145, "velocity": 120}, {"time": 177118, "pitch": 44, "duration": 1584, "velocity": 120}, {"time": 177118, "pitch": 59, "duration": 566, "velocity": 120}, {"time": 177118, "pitch": 63, "duration": 629, "velocity": 120}, {"time": 177118, "pitch": 66, "duration": 636, "velocity": 120}, {"time": 177841, "pitch": 59, "duration": 141, "velocity": 120}, {"time": 177961, "pitch": 63, "duration": 87, "velocity": 120}, {"time": 178081, "pitch": 59, "duration": 628, "velocity": 120}, {"time": 178081, "pitch": 63, "duration": 596, "velocity": 120}, {"time": 178081, "pitch": 66, "duration": 288, "velocity": 120}, {"time": 178443, "pitch": 71, "duration": 236, "velocity": 120}, {"time": 178800, "pitch": 45, "duration": 365, "velocity": 120}, {"time": 178800, "pitch": 57, "duration": 362, "velocity": 120}, {"time": 178800, "pitch": 61, "duration": 397, "velocity": 120}, {"time": 178800, "pitch": 64, "duration": 375, "velocity": 120}, {"time": 179278, "pitch": 45, "duration": 87, "velocity": 120}, {"time": 179278, "pitch": 57, "duration": 70, "velocity": 120}, {"time": 179278, "pitch": 61, "duration": 111, "velocity": 120}, {"time": 179278, "pitch": 64, "duration": 80, "velocity": 120}, {"time": 179519, "pitch": 45, "duration": 109, "velocity": 120}, {"time": 179519, "pitch": 57, "duration": 109, "velocity": 120}, {"time": 179519, "pitch": 61, "duration": 187, "velocity": 120}, {"time": 179519, "pitch": 64, "duration": 187, "velocity": 120}, {"time": 180001, "pitch": 47, "duration": 369, "velocity": 120}, {"time": 180001, "pitch": 59, "duration": 366, "velocity": 120}, {"time": 180001, "pitch": 63, "duration": 400, "velocity": 120}, {"time": 180001, "pitch": 66, "duration": 378, "velocity": 120}, {"time": 180482, "pitch": 47, "duration": 222, "velocity": 120}, {"time": 180482, "pitch": 59, "duration": 155, "velocity": 120}, {"time": 180482, "pitch": 63, "duration": 240, "velocity": 120}, {"time": 180482, "pitch": 66, "duration": 201, "velocity": 120}, {"time": 180956, "pitch": 42, "duration": 108, "velocity": 120}, {"time": 180956, "pitch": 57, "duration": 78, "velocity": 120}, {"time": 180956, "pitch": 61, "duration": 113, "velocity": 120}, {"time": 180956, "pitch": 64, "duration": 85, "velocity": 120}, {"time": 181197, "pitch": 42, "duration": 83, "velocity": 120}, {"time": 181197, "pitch": 57, "duration": 63, "velocity": 120}, {"time": 181197, "pitch": 61, "duration": 103, "velocity": 120}, {"time": 181197, "pitch": 64, "duration": 74, "velocity": 120}, {"time": 181438, "pitch": 42, "duration": 107, "velocity": 120}, {"time": 181438, "pitch": 57, "duration": 78, "velocity": 120}, {"time": 181438, "pitch": 61, "duration": 112, "velocity": 120}, {"time": 181438, "pitch": 64, "duration": 85, "velocity": 120}, {"time": 181679, "pitch": 42, "duration": 152, "velocity": 120}, {"time": 181679, "pitch": 57, "duration": 114, "velocity": 120}, {"time": 181679, "pitch": 61, "duration": 148, "velocity": 120}, {"time": 181679, "pitch": 64, "duration": 151, "velocity": 120}, {"time": 181920, "pitch": 47, "duration": 92, "velocity": 120}, {"time": 181920, "pitch": 59, "duration": 87, "velocity": 120}, {"time": 181920, "pitch": 63, "duration": 109, "velocity": 120}, {"time": 181920, "pitch": 66, "duration": 89, "velocity": 120}, {"time": 182161, "pitch": 47, "duration": 80, "velocity": 120}, {"time": 182161, "pitch": 59, "duration": 78, "velocity": 120}, {"time": 182161, "pitch": 63, "duration": 115, "velocity": 120}, {"time": 182161, "pitch": 66, "duration": 83, "velocity": 120}, {"time": 182401, "pitch": 47, "duration": 103, "velocity": 120}, {"time": 182401, "pitch": 59, "duration": 86, "velocity": 120}, {"time": 182401, "pitch": 63, "duration": 122, "velocity": 120}, {"time": 182401, "pitch": 66, "duration": 104, "velocity": 120}, {"time": 182642, "pitch": 47, "duration": 113, "velocity": 120}, {"time": 182642, "pitch": 59, "duration": 82, "velocity": 120}, {"time": 182642, "pitch": 63, "duration": 121, "velocity": 120}, {"time": 182642, "pitch": 66, "duration": 124, "velocity": 120}, {"time": 182883, "pitch": 52, "duration": 1538, "velocity": 120}, {"time": 182883, "pitch": 59, "duration": 563, "velocity": 120}, {"time": 182883, "pitch": 64, "duration": 661, "velocity": 120}, {"time": 182883, "pitch": 68, "duration": 662, "velocity": 120}, {"time": 183598, "pitch": 59, "duration": 157, "velocity": 120}, {"time": 183718, "pitch": 64, "duration": 74, "velocity": 120}, {"time": 183839, "pitch": 59, "duration": 173, "velocity": 120}, {"time": 183839, "pitch": 64, "duration": 201, "velocity": 61}, {"time": 183839, "pitch": 66, "duration": 156, "velocity": 120}, {"time": 184080, "pitch": 64, "duration": 256, "velocity": 115}, {"time": 184080, "pitch": 68, "duration": 182, "velocity": 120}, {"time": 184321, "pitch": 59, "duration": 174, "velocity": 120}, {"time": 184802, "pitch": 42, "duration": 85, "velocity": 120}, {"time": 184802, "pitch": 57, "duration": 82, "velocity": 120}, {"time": 184802, "pitch": 61, "duration": 109, "velocity": 120}, {"time": 184802, "pitch": 64, "duration": 90, "velocity": 120}, {"time": 185039, "pitch": 42, "duration": 132, "velocity": 120}, {"time": 185039, "pitch": 57, "duration": 123, "velocity": 120}, {"time": 185039, "pitch": 61, "duration": 158, "velocity": 120}, {"time": 185039, "pitch": 64, "duration": 133, "velocity": 120}, {"time": 185276, "pitch": 42, "duration": 135, "velocity": 120}, {"time": 185276, "pitch": 57, "duration": 117, "velocity": 120}, {"time": 185276, "pitch": 61, "duration": 156, "velocity": 120}, {"time": 185276, "pitch": 64, "duration": 135, "velocity": 120}, {"time": 185517, "pitch": 42, "duration": 121, "velocity": 120}, {"time": 185517, "pitch": 57, "duration": 99, "velocity": 120}, {"time": 185517, "pitch": 61, "duration": 142, "velocity": 120}, {"time": 185517, "pitch": 64, "duration": 105, "velocity": 120}, {"time": 185758, "pitch": 42, "duration": 436, "velocity": 120}, {"time": 185758, "pitch": 57, "duration": 91, "velocity": 120}, {"time": 185758, "pitch": 61, "duration": 186, "velocity": 120}, {"time": 185758, "pitch": 64, "duration": 184, "velocity": 120}, {"time": 185999, "pitch": 57, "duration": 160, "velocity": 120}, {"time": 186119, "pitch": 61, "duration": 78, "velocity": 120}, {"time": 186240, "pitch": 42, "duration": 172, "velocity": 120}, {"time": 186240, "pitch": 57, "duration": 184, "velocity": 120}, {"time": 186240, "pitch": 61, "duration": 221, "velocity": 120}, {"time": 186240, "pitch": 64, "duration": 206, "velocity": 120}, {"time": 186481, "pitch": 47, "duration": 364, "velocity": 120}, {"time": 186481, "pitch": 59, "duration": 346, "velocity": 120}, {"time": 186481, "pitch": 64, "duration": 365, "velocity": 120}, {"time": 186481, "pitch": 68, "duration": 337, "velocity": 120}, {"time": 186962, "pitch": 47, "duration": 156, "velocity": 120}, {"time": 186962, "pitch": 59, "duration": 148, "velocity": 120}, {"time": 186962, "pitch": 63, "duration": 171, "velocity": 120}, {"time": 186962, "pitch": 66, "duration": 150, "velocity": 120}, {"time": 187203, "pitch": 47, "duration": 318, "velocity": 120}, {"time": 187203, "pitch": 59, "duration": 285, "velocity": 120}, {"time": 187203, "pitch": 63, "duration": 293, "velocity": 120}, {"time": 187203, "pitch": 66, "duration": 304, "velocity": 120}, {"time": 188641, "pitch": 83, "duration": 75, "velocity": 93}, {"time": 188761, "pitch": 88, "duration": 75, "velocity": 93}, {"time": 188881, "pitch": 90, "duration": 76, "velocity": 93}, {"time": 189002, "pitch": 83, "duration": 75, "velocity": 93}, {"time": 189122, "pitch": 95, "duration": 74, "velocity": 93}, {"time": 189241, "pitch": 83, "duration": 74, "velocity": 93}, {"time": 189359, "pitch": 88, "duration": 74, "velocity": 93}, {"time": 189478, "pitch": 90, "duration": 74, "velocity": 93}, {"time": 189596, "pitch": 83, "duration": 75, "velocity": 93}, {"time": 189717, "pitch": 88, "duration": 75, "velocity": 93}, {"time": 189837, "pitch": 90, "duration": 75, "velocity": 93}, {"time": 189957, "pitch": 83, "duration": 76, "velocity": 93}, {"time": 190078, "pitch": 95, "duration": 75, "velocity": 93}, {"time": 190198, "pitch": 83, "duration": 76, "velocity": 93}, {"time": 190319, "pitch": 88, "duration": 75, "velocity": 93}, {"time": 190439, "pitch": 90, "duration": 76, "velocity": 93}, {"time": 190560, "pitch": 83, "duration": 75, "velocity": 93}, {"time": 190680, "pitch": 88, "duration": 75, "velocity": 93}, {"time": 190801, "pitch": 90, "duration": 75, "velocity": 93}, {"time": 190921, "pitch": 83, "duration": 75, "velocity": 93}, {"time": 191041, "pitch": 95, "duration": 76, "velocity": 93}, {"time": 191162, "pitch": 83, "duration": 75, "velocity": 93}, {"time": 191282, "pitch": 88, "duration": 76, "velocity": 93}, {"time": 191403, "pitch": 90, "duration": 75, "velocity": 93}, {"time": 191523, "pitch": 83, "duration": 74, "velocity": 93}, {"time": 191642, "pitch": 88, "duration": 74, "velocity": 93}, {"time": 191760, "pitch": 90, "duration": 74, "velocity": 93}, {"time": 191879, "pitch": 83, "duration": 74, "velocity": 93}, {"time": 191997, "pitch": 95, "duration": 75, "velocity": 93}, {"time": 192118, "pitch": 83, "duration": 75, "velocity": 93}, {"time": 192238, "pitch": 88, "duration": 75, "velocity": 93}, {"time": 192358, "pitch": 90, "duration": 76, "velocity": 93}, {"time": 192479, "pitch": 83, "duration": 75, "velocity": 93}, {"time": 192599, "pitch": 88, "duration": 76, "velocity": 93}, {"time": 192720, "pitch": 90, "duration": 75, "velocity": 93}, {"time": 192840, "pitch": 83, "duration": 75, "velocity": 93}, {"time": 192961, "pitch": 95, "duration": 75, "velocity": 93}, {"time": 193081, "pitch": 83, "duration": 75, "velocity": 93}, {"time": 193201, "pitch": 88, "duration": 76, "velocity": 93}, {"time": 193322, "pitch": 90, "duration": 75, "velocity": 93}, {"time": 193442, "pitch": 83, "duration": 74, "velocity": 93}, {"time": 193561, "pitch": 88, "duration": 74, "velocity": 93}, {"time": 193679, "pitch": 90, "duration": 74, "velocity": 93}, {"time": 193798, "pitch": 83, "duration": 74, "velocity": 93}, {"time": 193916, "pitch": 95, "duration": 75, "velocity": 93}, {"time": 194037, "pitch": 83, "duration": 75, "velocity": 93}, {"time": 194157, "pitch": 88, "duration": 75, "velocity": 93}, {"time": 194278, "pitch": 90, "duration": 75, "velocity": 93}, {"time": 194398, "pitch": 83, "duration": 75, "velocity": 93}, {"time": 194518, "pitch": 88, "duration": 76, "velocity": 93}, {"time": 194639, "pitch": 90, "duration": 75, "velocity": 93}, {"time": 194759, "pitch": 83, "duration": 76, "velocity": 93}, {"time": 194880, "pitch": 95, "duration": 75, "velocity": 93}, {"time": 195000, "pitch": 83, "duration": 75, "velocity": 93}, {"time": 195121, "pitch": 88, "duration": 75, "velocity": 93}, {"time": 195241, "pitch": 90, "duration": 75, "velocity": 93}, {"time": 195361, "pitch": 42, "duration": 400, "velocity": 111}, {"time": 195361, "pitch": 57, "duration": 299, "velocity": 118}, {"time": 195361, "pitch": 61, "duration": 337, "velocity": 110}, {"time": 195361, "pitch": 64, "duration": 350, "velocity": 120}, {"time": 195361, "pitch": 83, "duration": 76, "velocity": 93}, {"time": 195482, "pitch": 88, "duration": 75, "velocity": 93}, {"time": 195602, "pitch": 90, "duration": 76, "velocity": 93}, {"time": 195723, "pitch": 83, "duration": 75, "velocity": 93}, {"time": 195843, "pitch": 44, "duration": 443, "velocity": 120}, {"time": 195843, "pitch": 59, "duration": 286, "velocity": 120}, {"time": 195843, "pitch": 63, "duration": 340, "velocity": 120}, {"time": 195843, "pitch": 66, "duration": 366, "velocity": 120}, {"time": 195843, "pitch": 95, "duration": 74, "velocity": 93}, {"time": 195962, "pitch": 83, "duration": 74, "velocity": 93}, {"time": 196080, "pitch": 88, "duration": 74, "velocity": 93}, {"time": 196199, "pitch": 90, "duration": 74, "velocity": 93}, {"time": 196317, "pitch": 45, "duration": 889, "velocity": 120}, {"time": 196317, "pitch": 61, "duration": 548, "velocity": 111}, {"time": 196317, "pitch": 64, "duration": 645, "velocity": 120}, {"time": 196317, "pitch": 68, "duration": 660, "velocity": 120}, {"time": 196317, "pitch": 83, "duration": 75, "velocity": 93}, {"time": 196438, "pitch": 88, "duration": 75, "velocity": 93}, {"time": 196558, "pitch": 90, "duration": 75, "velocity": 93}, {"time": 196678, "pitch": 83, "duration": 76, "velocity": 93}, {"time": 196799, "pitch": 95, "duration": 75, "velocity": 93}, {"time": 196919, "pitch": 83, "duration": 76, "velocity": 93}, {"time": 197040, "pitch": 61, "duration": 154, "velocity": 104}, {"time": 197040, "pitch": 88, "duration": 75, "velocity": 93}, {"time": 197160, "pitch": 64, "duration": 76, "velocity": 120}, {"time": 197160, "pitch": 90, "duration": 75, "velocity": 93}, {"time": 197281, "pitch": 45, "duration": 281, "velocity": 114}, {"time": 197281, "pitch": 61, "duration": 269, "velocity": 100}, {"time": 197281, "pitch": 64, "duration": 277, "velocity": 95}, {"time": 197281, "pitch": 66, "duration": 259, "velocity": 120}, {"time": 197281, "pitch": 83, "duration": 75, "velocity": 93}, {"time": 197401, "pitch": 88, "duration": 75, "velocity": 93}, {"time": 197521, "pitch": 90, "duration": 76, "velocity": 93}, {"time": 197642, "pitch": 45, "duration": 56, "velocity": 114}, {"time": 197642, "pitch": 61, "duration": 68, "velocity": 97}, {"time": 197642, "pitch": 64, "duration": 49, "velocity": 120}, {"time": 197642, "pitch": 68, "duration": 30, "velocity": 120}, {"time": 197642, "pitch": 83, "duration": 75, "velocity": 93}, {"time": 197762, "pitch": 95, "duration": 74, "velocity": 93}, {"time": 197881, "pitch": 83, "duration": 74, "velocity": 93}, {"time": 197999, "pitch": 44, "duration": 1114, "velocity": 120}, {"time": 197999, "pitch": 59, "duration": 803, "velocity": 120}, {"time": 197999, "pitch": 63, "duration": 884, "velocity": 120}, {"time": 197999, "pitch": 66, "duration": 798, "velocity": 120}, {"time": 197999, "pitch": 88, "duration": 74, "velocity": 93}, {"time": 198118, "pitch": 90, "duration": 74, "velocity": 93}, {"time": 198236, "pitch": 83, "duration": 75, "velocity": 93}, {"time": 198357, "pitch": 88, "duration": 75, "velocity": 93}, {"time": 198477, "pitch": 90, "duration": 75, "velocity": 93}, {"time": 198598, "pitch": 83, "duration": 75, "velocity": 93}, {"time": 198718, "pitch": 95, "duration": 75, "velocity": 93}, {"time": 198838, "pitch": 83, "duration": 76, "velocity": 93}, {"time": 198959, "pitch": 59, "duration": 161, "velocity": 120}, {"time": 198959, "pitch": 88, "duration": 75, "velocity": 93}, {"time": 199079, "pitch": 63, "duration": 84, "velocity": 120}, {"time": 199079, "pitch": 90, "duration": 76, "velocity": 93}, {"time": 199200, "pitch": 44, "duration": 276, "velocity": 120}, {"time": 199200, "pitch": 59, "duration": 275, "velocity": 117}, {"time": 199200, "pitch": 64, "duration": 259, "velocity": 120}, {"time": 199200, "pitch": 83, "duration": 75, "velocity": 93}, {"time": 199320, "pitch": 88, "duration": 75, "velocity": 93}, {"time": 199441, "pitch": 90, "duration": 75, "velocity": 93}, {"time": 199561, "pitch": 44, "duration": 73, "velocity": 120}, {"time": 199561, "pitch": 59, "duration": 59, "velocity": 92}, {"time": 199561, "pitch": 66, "duration": 47, "velocity": 110}, {"time": 199561, "pitch": 83, "duration": 75, "velocity": 93}, {"time": 199681, "pitch": 95, "duration": 76, "velocity": 93}, {"time": 199802, "pitch": 83, "duration": 75, "velocity": 93}, {"time": 199922, "pitch": 42, "duration": 1844, "velocity": 120}, {"time": 199922, "pitch": 57, "duration": 1753, "velocity": 120}, {"time": 199922, "pitch": 61, "duration": 1817, "velocity": 120}, {"time": 199922, "pitch": 64, "duration": 1803, "velocity": 120}, {"time": 199922, "pitch": 88, "duration": 76, "velocity": 93}, {"time": 200043, "pitch": 90, "duration": 75, "velocity": 93}, {"time": 200163, "pitch": 83, "duration": 74, "velocity": 93}, {"time": 200282, "pitch": 88, "duration": 74, "velocity": 93}, {"time": 200400, "pitch": 90, "duration": 74, "velocity": 93}, {"time": 200519, "pitch": 83, "duration": 74, "velocity": 93}, {"time": 200637, "pitch": 95, "duration": 75, "velocity": 93}, {"time": 200758, "pitch": 83, "duration": 75, "velocity": 93}, {"time": 200878, "pitch": 88, "duration": 75, "velocity": 93}, {"time": 200998, "pitch": 90, "duration": 76, "velocity": 93}, {"time": 201119, "pitch": 83, "duration": 75, "velocity": 93}, {"time": 201239, "pitch": 88, "duration": 76, "velocity": 93}, {"time": 201360, "pitch": 90, "duration": 75, "velocity": 93}, {"time": 201480, "pitch": 83, "duration": 75, "velocity": 93}, {"time": 201601, "pitch": 95, "duration": 75, "velocity": 93}, {"time": 201721, "pitch": 83, "duration": 75, "velocity": 93}, {"time": 201841, "pitch": 47, "duration": 153, "velocity": 120}, {"time": 201841, "pitch": 57, "duration": 153, "velocity": 120}, {"time": 201841, "pitch": 61, "duration": 179, "velocity": 119}, {"time": 201841, "pitch": 64, "duration": 163, "velocity": 120}, {"time": 201841, "pitch": 81, "duration": 189, "velocity": 93}, {"time": 201841, "pitch": 85, "duration": 210, "velocity": 93}, {"time": 201841, "pitch": 88, "duration": 193, "velocity": 93}, {"time": 202082, "pitch": 47, "duration": 154, "velocity": 120}, {"time": 202082, "pitch": 57, "duration": 137, "velocity": 109}, {"time": 202082, "pitch": 61, "duration": 152, "velocity": 108}, {"time": 202082, "pitch": 64, "duration": 133, "velocity": 120}, {"time": 202319, "pitch": 47, "duration": 150, "velocity": 120}, {"time": 202319, "pitch": 57, "duration": 122, "velocity": 120}, {"time": 202319, "pitch": 61, "duration": 156, "velocity": 120}, {"time": 202319, "pitch": 64, "duration": 150, "velocity": 120}, {"time": 204001, "pitch": 52, "duration": 1863, "velocity": 120}, {"time": 204001, "pitch": 59, "duration": 1870, "velocity": 120}, {"time": 204001, "pitch": 64, "duration": 1872, "velocity": 120}, {"time": 204001, "pitch": 66, "duration": 1883, "velocity": 119}, {"time": 204001, "pitch": 68, "duration": 1893, "velocity": 120}], "annotations": [{"time": 271, "annotation": {"number": 7, "value": 70}, "group": "control_change"}, {"time": 292, "annotation": {"number": 11, "value": 100}, "group": "control_change"}, {"time": 313, "annotation": {"number": 10, "value": 94}, "group": "control_change"}, {"time": 334, "annotation": {"number": 91, "value": 50}, "group": "control_change"}, {"time": 354, "annotation": {"number": 93, "value": 30}, "group": "control_change"}, {"time": 375, "annotation": {"number": 94, "value": 0}, "group": "control_change"}, {"time": 396, "annotation": {"number": 101, "value": 0}, "group": "control_change"}, {"time": 417, "annotation": {"number": 100, "value": 0}, "group": "control_change"}, {"time": 438, "annotation": {"number": 6, "value": 12}, "group": "control_change"}, {"time": 459, "annotation": {"number": 101, "value": 127}, "group": "control_change"}, {"time": 479, "annotation": {"number": 100, "value": 127}, "group": "control_change"}]}, {"program": 0, "is_drum": false, "name": "MELODY", "annotations": [{"time": 208, "annotation": {"number": 0, "value": 0}, "group": "control_change"}, {"time": 229, "annotation": {"number": 32, "value": 2}, "group": "control_change"}]}, {"program": 73, "is_drum": false, "name": "MELODY", "notes": [{"time": 15840, "pitch": 80, "duration": 195, "velocity": 115}, {"time": 16081, "pitch": 80, "duration": 208, "velocity": 127}, {"time": 16563, "pitch": 76, "duration": 221, "velocity": 115}, {"time": 16803, "pitch": 78, "duration": 219, "velocity": 115}, {"time": 17040, "pitch": 80, "duration": 108, "velocity": 127}, {"time": 17159, "pitch": 80, "duration": 108, "velocity": 127}, {"time": 17759, "pitch": 78, "duration": 195, "velocity": 115}, {"time": 18000, "pitch": 78, "duration": 214, "velocity": 127}, {"time": 18482, "pitch": 75, "duration": 222, "velocity": 115}, {"time": 18723, "pitch": 76, "duration": 218, "velocity": 115}, {"time": 18960, "pitch": 78, "duration": 204, "velocity": 127}, {"time": 19919, "pitch": 73, "duration": 194, "velocity": 122}, {"time": 20160, "pitch": 76, "duration": 194, "velocity": 122}, {"time": 20401, "pitch": 73, "duration": 204, "velocity": 123}, {"time": 20642, "pitch": 76, "duration": 222, "velocity": 115}, {"time": 20883, "pitch": 76, "duration": 207, "velocity": 127}, {"time": 21360, "pitch": 76, "duration": 205, "velocity": 127}, {"time": 21597, "pitch": 80, "duration": 222, "velocity": 115}, {"time": 21838, "pitch": 80, "duration": 222, "velocity": 115}, {"time": 22079, "pitch": 80, "duration": 208, "velocity": 127}, {"time": 22320, "pitch": 81, "duration": 222, "velocity": 115}, {"time": 22561, "pitch": 80, "duration": 101, "velocity": 115}, {"time": 22681, "pitch": 78, "duration": 208, "velocity": 127}, {"time": 22922, "pitch": 78, "duration": 325, "velocity": 127}, {"time": 23517, "pitch": 80, "duration": 161, "velocity": 115}, {"time": 23757, "pitch": 80, "duration": 162, "velocity": 115}, {"time": 23998, "pitch": 80, "duration": 162, "velocity": 115}, {"time": 24239, "pitch": 76, "duration": 222, "velocity": 115}, {"time": 24480, "pitch": 78, "duration": 98, "velocity": 127}, {"time": 24601, "pitch": 78, "duration": 98, "velocity": 127}, {"time": 24721, "pitch": 78, "duration": 98, "velocity": 127}, {"time": 24841, "pitch": 80, "duration": 99, "velocity": 127}, {"time": 25203, "pitch": 76, "duration": 229, "velocity": 127}, {"time": 25444, "pitch": 78, "duration": 158, "velocity": 115}, {"time": 25681, "pitch": 78, "duration": 145, "velocity": 127}, {"time": 25917, "pitch": 78, "duration": 148, "velocity": 127}, {"time": 26158, "pitch": 75, "duration": 222, "velocity": 115}, {"time": 26399, "pitch": 76, "duration": 222, "velocity": 115}, {"time": 26640, "pitch": 78, "duration": 87, "velocity": 127}, {"time": 26761, "pitch": 78, "duration": 87, "velocity": 127}, {"time": 27600, "pitch": 73, "duration": 190, "velocity": 122}, {"time": 27837, "pitch": 76, "duration": 193, "velocity": 122}, {"time": 28077, "pitch": 73, "duration": 116, "velocity": 123}, {"time": 28318, "pitch": 76, "duration": 222, "velocity": 115}, {"time": 28559, "pitch": 76, "duration": 208, "velocity": 127}, {"time": 29041, "pitch": 76, "duration": 208, "velocity": 127}, {"time": 29282, "pitch": 80, "duration": 222, "velocity": 115}, {"time": 29523, "pitch": 80, "duration": 222, "velocity": 115}, {"time": 29764, "pitch": 80, "duration": 204, "velocity": 127}, {"time": 30001, "pitch": 81, "duration": 218, "velocity": 115}, {"time": 30238, "pitch": 80, "duration": 101, "velocity": 115}, {"time": 30358, "pitch": 78, "duration": 208, "velocity": 127}, {"time": 30599, "pitch": 78, "duration": 328, "velocity": 127}, {"time": 31201, "pitch": 85, "duration": 206, "velocity": 126}, {"time": 31442, "pitch": 85, "duration": 206, "velocity": 126}, {"time": 31683, "pitch": 80, "duration": 202, "velocity": 126}, {"time": 31920, "pitch": 80, "duration": 202, "velocity": 126}, {"time": 32157, "pitch": 83, "duration": 119, "velocity": 115}, {"time": 32277, "pitch": 83, "duration": 119, "velocity": 115}, {"time": 32518, "pitch": 80, "duration": 159, "velocity": 117}, {"time": 32879, "pitch": 80, "duration": 206, "velocity": 126}, {"time": 33120, "pitch": 83, "duration": 206, "velocity": 126}, {"time": 33361, "pitch": 83, "duration": 206, "velocity": 126}, {"time": 33602, "pitch": 83, "duration": 206, "velocity": 126}, {"time": 33843, "pitch": 83, "duration": 205, "velocity": 126}, {"time": 34084, "pitch": 84, "duration": 236, "velocity": 115}, {"time": 34798, "pitch": 80, "duration": 121, "velocity": 118}, {"time": 34919, "pitch": 84, "duration": 91, "velocity": 126}, {"time": 35039, "pitch": 85, "duration": 709, "velocity": 126}, {"time": 36003, "pitch": 85, "duration": 93, "velocity": 126}, {"time": 36121, "pitch": 83, "duration": 93, "velocity": 126}, {"time": 36240, "pitch": 83, "duration": 636, "velocity": 126}, {"time": 36958, "pitch": 83, "duration": 95, "velocity": 126}, {"time": 37079, "pitch": 81, "duration": 94, "velocity": 126}, {"time": 37199, "pitch": 81, "duration": 641, "velocity": 126}, {"time": 37922, "pitch": 85, "duration": 85, "velocity": 126}, {"time": 38042, "pitch": 85, "duration": 86, "velocity": 126}, {"time": 38163, "pitch": 85, "duration": 205, "velocity": 126}, {"time": 38404, "pitch": 85, "duration": 202, "velocity": 126}, {"time": 38641, "pitch": 83, "duration": 804, "velocity": 126}, {"time": 40797, "pitch": 80, "duration": 446, "velocity": 126}, {"time": 41278, "pitch": 80, "duration": 206, "velocity": 126}, {"time": 41519, "pitch": 81, "duration": 86, "velocity": 126}, {"time": 41640, "pitch": 80, "duration": 326, "velocity": 126}, {"time": 42483, "pitch": 80, "duration": 205, "velocity": 126}, {"time": 42724, "pitch": 78, "duration": 202, "velocity": 126}, {"time": 42961, "pitch": 78, "duration": 202, "velocity": 126}, {"time": 43198, "pitch": 83, "duration": 205, "velocity": 126}, {"time": 43438, "pitch": 78, "duration": 327, "velocity": 126}, {"time": 44402, "pitch": 78, "duration": 206, "velocity": 126}, {"time": 44643, "pitch": 80, "duration": 439, "velocity": 126}, {"time": 45117, "pitch": 76, "duration": 205, "velocity": 126}, {"time": 45358, "pitch": 78, "duration": 85, "velocity": 126}, {"time": 45478, "pitch": 80, "duration": 326, "velocity": 126}, {"time": 46562, "pitch": 80, "duration": 85, "velocity": 126}, {"time": 46682, "pitch": 80, "duration": 86, "velocity": 126}, {"time": 46803, "pitch": 80, "duration": 85, "velocity": 126}, {"time": 46923, "pitch": 80, "duration": 86, "velocity": 126}, {"time": 47044, "pitch": 80, "duration": 202, "velocity": 126}, {"time": 47281, "pitch": 81, "duration": 84, "velocity": 126}, {"time": 47399, "pitch": 80, "duration": 204, "velocity": 126}, {"time": 47638, "pitch": 78, "duration": 85, "velocity": 126}, {"time": 47758, "pitch": 78, "duration": 206, "velocity": 126}, {"time": 47999, "pitch": 80, "duration": 86, "velocity": 126}, {"time": 48120, "pitch": 78, "duration": 85, "velocity": 126}, {"time": 48240, "pitch": 76, "duration": 85, "velocity": 126}, {"time": 48361, "pitch": 75, "duration": 85, "velocity": 126}, {"time": 48481, "pitch": 76, "duration": 206, "velocity": 126}, {"time": 48722, "pitch": 83, "duration": 680, "velocity": 126}, {"time": 49918, "pitch": 80, "duration": 86, "velocity": 126}, {"time": 50039, "pitch": 78, "duration": 85, "velocity": 126}, {"time": 50159, "pitch": 76, "duration": 86, "velocity": 126}, {"time": 50280, "pitch": 75, "duration": 85, "velocity": 126}, {"time": 50400, "pitch": 76, "duration": 206, "velocity": 126}, {"time": 50641, "pitch": 83, "duration": 688, "velocity": 126}, {"time": 51838, "pitch": 83, "duration": 173, "velocity": 126}, {"time": 52078, "pitch": 84, "duration": 206, "velocity": 126}, {"time": 52319, "pitch": 85, "duration": 326, "velocity": 126}, {"time": 52801, "pitch": 80, "duration": 206, "velocity": 126}, {"time": 53042, "pitch": 80, "duration": 206, "velocity": 126}, {"time": 53283, "pitch": 83, "duration": 202, "velocity": 126}, {"time": 53520, "pitch": 83, "duration": 202, "velocity": 126}, {"time": 53757, "pitch": 85, "duration": 205, "velocity": 126}, {"time": 53998, "pitch": 83, "duration": 928, "velocity": 126}, {"time": 56158, "pitch": 80, "duration": 446, "velocity": 126}, {"time": 56639, "pitch": 80, "duration": 206, "velocity": 126}, {"time": 56880, "pitch": 81, "duration": 85, "velocity": 126}, {"time": 57001, "pitch": 80, "duration": 326, "velocity": 126}, {"time": 57840, "pitch": 80, "duration": 202, "velocity": 126}, {"time": 58077, "pitch": 78, "duration": 205, "velocity": 126}, {"time": 58318, "pitch": 78, "duration": 205, "velocity": 126}, {"time": 58558, "pitch": 83, "duration": 206, "velocity": 126}, {"time": 58799, "pitch": 78, "duration": 326, "velocity": 126}, {"time": 59763, "pitch": 78, "duration": 206, "velocity": 126}, {"time": 60004, "pitch": 80, "duration": 439, "velocity": 126}, {"time": 60478, "pitch": 76, "duration": 205, "velocity": 126}, {"time": 60718, "pitch": 78, "duration": 86, "velocity": 126}, {"time": 60839, "pitch": 80, "duration": 326, "velocity": 126}, {"time": 61682, "pitch": 76, "duration": 85, "velocity": 126}, {"time": 61802, "pitch": 76, "duration": 86, "velocity": 126}, {"time": 61923, "pitch": 80, "duration": 84, "velocity": 126}, {"time": 62041, "pitch": 80, "duration": 84, "velocity": 126}, {"time": 62160, "pitch": 80, "duration": 84, "velocity": 126}, {"time": 62278, "pitch": 80, "duration": 84, "velocity": 126}, {"time": 62397, "pitch": 80, "duration": 205, "velocity": 126}, {"time": 62638, "pitch": 81, "duration": 85, "velocity": 126}, {"time": 62758, "pitch": 80, "duration": 206, "velocity": 126}, {"time": 62999, "pitch": 78, "duration": 206, "velocity": 126}, {"time": 63360, "pitch": 80, "duration": 85, "velocity": 126}, {"time": 63481, "pitch": 78, "duration": 85, "velocity": 126}, {"time": 63601, "pitch": 76, "duration": 85, "velocity": 126}, {"time": 63722, "pitch": 75, "duration": 85, "velocity": 126}, {"time": 63842, "pitch": 76, "duration": 206, "velocity": 126}, {"time": 64083, "pitch": 83, "duration": 680, "velocity": 126}, {"time": 65279, "pitch": 80, "duration": 86, "velocity": 126}, {"time": 65400, "pitch": 78, "duration": 85, "velocity": 126}, {"time": 65520, "pitch": 76, "duration": 86, "velocity": 126}, {"time": 65641, "pitch": 75, "duration": 85, "velocity": 126}, {"time": 65761, "pitch": 76, "duration": 206, "velocity": 126}, {"time": 66002, "pitch": 83, "duration": 680, "velocity": 126}, {"time": 67198, "pitch": 83, "duration": 206, "velocity": 126}, {"time": 67439, "pitch": 84, "duration": 206, "velocity": 126}, {"time": 67680, "pitch": 85, "duration": 206, "velocity": 126}, {"time": 67921, "pitch": 85, "duration": 206, "velocity": 126}, {"time": 68162, "pitch": 80, "duration": 206, "velocity": 126}, {"time": 68403, "pitch": 80, "duration": 206, "velocity": 126}, {"time": 68644, "pitch": 83, "duration": 202, "velocity": 126}, {"time": 68881, "pitch": 83, "duration": 202, "velocity": 126}, {"time": 69118, "pitch": 80, "duration": 205, "velocity": 126}, {"time": 69358, "pitch": 76, "duration": 929, "velocity": 126}, {"time": 81122, "pitch": 80, "duration": 195, "velocity": 115}, {"time": 81363, "pitch": 80, "duration": 208, "velocity": 127}, {"time": 81841, "pitch": 76, "duration": 218, "velocity": 115}, {"time": 82078, "pitch": 78, "duration": 221, "velocity": 115}, {"time": 82318, "pitch": 80, "duration": 110, "velocity": 127}, {"time": 82439, "pitch": 80, "duration": 109, "velocity": 127}, {"time": 83041, "pitch": 78, "duration": 195, "velocity": 115}, {"time": 83282, "pitch": 78, "duration": 214, "velocity": 127}, {"time": 83523, "pitch": 78, "duration": 218, "velocity": 115}, {"time": 83760, "pitch": 75, "duration": 218, "velocity": 115}, {"time": 83997, "pitch": 76, "duration": 222, "velocity": 115}, {"time": 84238, "pitch": 78, "duration": 119, "velocity": 127}, {"time": 84358, "pitch": 78, "duration": 119, "velocity": 127}, {"time": 85201, "pitch": 73, "duration": 194, "velocity": 122}, {"time": 85442, "pitch": 76, "duration": 194, "velocity": 122}, {"time": 85683, "pitch": 73, "duration": 204, "velocity": 123}, {"time": 85924, "pitch": 76, "duration": 218, "velocity": 115}, {"time": 86161, "pitch": 76, "duration": 204, "velocity": 127}, {"time": 86398, "pitch": 76, "duration": 207, "velocity": 127}, {"time": 86639, "pitch": 73, "duration": 207, "velocity": 127}, {"time": 86879, "pitch": 80, "duration": 222, "velocity": 115}, {"time": 87120, "pitch": 80, "duration": 222, "velocity": 115}, {"time": 87361, "pitch": 80, "duration": 208, "velocity": 127}, {"time": 87602, "pitch": 81, "duration": 222, "velocity": 115}, {"time": 87843, "pitch": 80, "duration": 100, "velocity": 115}, {"time": 87961, "pitch": 78, "duration": 205, "velocity": 127}, {"time": 88198, "pitch": 78, "duration": 327, "velocity": 127}, {"time": 88799, "pitch": 80, "duration": 161, "velocity": 115}, {"time": 89039, "pitch": 80, "duration": 162, "velocity": 115}, {"time": 89280, "pitch": 80, "duration": 162, "velocity": 115}, {"time": 89521, "pitch": 76, "duration": 222, "velocity": 115}, {"time": 89762, "pitch": 78, "duration": 98, "velocity": 127}, {"time": 89882, "pitch": 78, "duration": 99, "velocity": 127}, {"time": 90003, "pitch": 78, "duration": 98, "velocity": 127}, {"time": 90123, "pitch": 80, "duration": 99, "velocity": 127}, {"time": 90718, "pitch": 78, "duration": 161, "velocity": 115}, {"time": 90959, "pitch": 78, "duration": 276, "velocity": 127}, {"time": 91440, "pitch": 75, "duration": 222, "velocity": 115}, {"time": 91681, "pitch": 76, "duration": 222, "velocity": 115}, {"time": 91922, "pitch": 78, "duration": 87, "velocity": 127}, {"time": 92042, "pitch": 78, "duration": 88, "velocity": 127}, {"time": 92878, "pitch": 73, "duration": 193, "velocity": 122}, {"time": 93119, "pitch": 76, "duration": 193, "velocity": 122}, {"time": 93359, "pitch": 73, "duration": 116, "velocity": 123}, {"time": 93600, "pitch": 76, "duration": 222, "velocity": 115}, {"time": 93841, "pitch": 76, "duration": 208, "velocity": 127}, {"time": 94082, "pitch": 76, "duration": 208, "velocity": 127}, {"time": 94323, "pitch": 73, "duration": 208, "velocity": 127}, {"time": 94564, "pitch": 80, "duration": 218, "velocity": 115}, {"time": 94801, "pitch": 80, "duration": 218, "velocity": 115}, {"time": 95038, "pitch": 80, "duration": 207, "velocity": 127}, {"time": 95279, "pitch": 81, "duration": 221, "velocity": 115}, {"time": 95519, "pitch": 80, "duration": 102, "velocity": 115}, {"time": 95640, "pitch": 78, "duration": 208, "velocity": 127}, {"time": 95881, "pitch": 78, "duration": 328, "velocity": 127}, {"time": 96483, "pitch": 85, "duration": 202, "velocity": 126}, {"time": 96720, "pitch": 85, "duration": 202, "velocity": 126}, {"time": 96957, "pitch": 80, "duration": 206, "velocity": 126}, {"time": 97198, "pitch": 80, "duration": 205, "velocity": 126}, {"time": 97439, "pitch": 83, "duration": 119, "velocity": 115}, {"time": 97559, "pitch": 83, "duration": 119, "velocity": 115}, {"time": 97800, "pitch": 80, "duration": 159, "velocity": 117}, {"time": 98402, "pitch": 83, "duration": 206, "velocity": 126}, {"time": 98643, "pitch": 83, "duration": 206, "velocity": 126}, {"time": 98884, "pitch": 83, "duration": 202, "velocity": 126}, {"time": 99121, "pitch": 83, "duration": 202, "velocity": 126}, {"time": 99358, "pitch": 84, "duration": 240, "velocity": 115}, {"time": 99599, "pitch": 84, "duration": 239, "velocity": 115}, {"time": 100080, "pitch": 80, "duration": 121, "velocity": 118}, {"time": 100201, "pitch": 84, "duration": 91, "velocity": 126}, {"time": 100321, "pitch": 85, "duration": 107, "velocity": 126}, {"time": 100442, "pitch": 85, "duration": 466, "velocity": 126}, {"time": 101277, "pitch": 85, "duration": 94, "velocity": 126}, {"time": 101397, "pitch": 83, "duration": 95, "velocity": 126}, {"time": 101518, "pitch": 83, "duration": 640, "velocity": 126}, {"time": 102240, "pitch": 83, "duration": 95, "velocity": 126}, {"time": 102361, "pitch": 81, "duration": 94, "velocity": 126}, {"time": 102481, "pitch": 81, "duration": 641, "velocity": 126}, {"time": 103204, "pitch": 85, "duration": 84, "velocity": 126}, {"time": 103322, "pitch": 85, "duration": 84, "velocity": 126}, {"time": 103441, "pitch": 85, "duration": 202, "velocity": 126}, {"time": 103678, "pitch": 85, "duration": 205, "velocity": 126}, {"time": 103919, "pitch": 83, "duration": 807, "velocity": 126}, {"time": 105838, "pitch": 76, "duration": 205, "velocity": 126}, {"time": 106079, "pitch": 80, "duration": 446, "velocity": 126}, {"time": 106560, "pitch": 80, "duration": 206, "velocity": 126}, {"time": 106801, "pitch": 81, "duration": 85, "velocity": 126}, {"time": 106922, "pitch": 80, "duration": 326, "velocity": 126}, {"time": 107761, "pitch": 80, "duration": 202, "velocity": 126}, {"time": 107998, "pitch": 78, "duration": 205, "velocity": 126}, {"time": 108239, "pitch": 78, "duration": 205, "velocity": 126}, {"time": 108479, "pitch": 83, "duration": 206, "velocity": 126}, {"time": 108720, "pitch": 78, "duration": 327, "velocity": 126}, {"time": 109680, "pitch": 78, "duration": 202, "velocity": 126}, {"time": 109917, "pitch": 80, "duration": 446, "velocity": 126}, {"time": 110399, "pitch": 76, "duration": 205, "velocity": 126}, {"time": 110639, "pitch": 78, "duration": 86, "velocity": 126}, {"time": 110760, "pitch": 80, "duration": 326, "velocity": 126}, {"time": 111603, "pitch": 76, "duration": 85, "velocity": 126}, {"time": 111723, "pitch": 76, "duration": 86, "velocity": 126}, {"time": 111844, "pitch": 80, "duration": 84, "velocity": 126}, {"time": 111962, "pitch": 80, "duration": 84, "velocity": 126}, {"time": 112081, "pitch": 80, "duration": 84, "velocity": 126}, {"time": 112199, "pitch": 80, "duration": 84, "velocity": 126}, {"time": 112318, "pitch": 80, "duration": 205, "velocity": 126}, {"time": 112559, "pitch": 81, "duration": 109, "velocity": 126}, {"time": 112679, "pitch": 80, "duration": 109, "velocity": 126}, {"time": 112799, "pitch": 80, "duration": 110, "velocity": 126}, {"time": 112920, "pitch": 78, "duration": 272, "velocity": 126}, {"time": 113281, "pitch": 80, "duration": 86, "velocity": 126}, {"time": 113402, "pitch": 78, "duration": 85, "velocity": 126}, {"time": 113522, "pitch": 76, "duration": 85, "velocity": 126}, {"time": 113643, "pitch": 75, "duration": 85, "velocity": 126}, {"time": 113763, "pitch": 76, "duration": 202, "velocity": 126}, {"time": 114000, "pitch": 83, "duration": 683, "velocity": 126}, {"time": 115200, "pitch": 80, "duration": 86, "velocity": 126}, {"time": 115321, "pitch": 78, "duration": 85, "velocity": 126}, {"time": 115441, "pitch": 76, "duration": 86, "velocity": 126}, {"time": 115562, "pitch": 75, "duration": 85, "velocity": 126}, {"time": 115682, "pitch": 76, "duration": 206, "velocity": 126}, {"time": 115923, "pitch": 83, "duration": 680, "velocity": 126}, {"time": 117119, "pitch": 83, "duration": 86, "velocity": 126}, {"time": 117240, "pitch": 83, "duration": 85, "velocity": 126}, {"time": 117360, "pitch": 84, "duration": 206, "velocity": 126}, {"time": 117601, "pitch": 85, "duration": 326, "velocity": 126}, {"time": 118083, "pitch": 80, "duration": 202, "velocity": 126}, {"time": 118320, "pitch": 80, "duration": 202, "velocity": 126}, {"time": 118557, "pitch": 83, "duration": 206, "velocity": 126}, {"time": 118798, "pitch": 85, "duration": 326, "velocity": 126}, {"time": 119279, "pitch": 83, "duration": 929, "velocity": 126}, {"time": 121439, "pitch": 80, "duration": 447, "velocity": 126}, {"time": 121921, "pitch": 80, "duration": 206, "velocity": 126}, {"time": 122162, "pitch": 81, "duration": 85, "velocity": 126}, {"time": 122283, "pitch": 80, "duration": 322, "velocity": 126}, {"time": 123118, "pitch": 80, "duration": 205, "velocity": 126}, {"time": 123359, "pitch": 78, "duration": 205, "velocity": 126}, {"time": 123599, "pitch": 78, "duration": 206, "velocity": 126}, {"time": 123840, "pitch": 83, "duration": 206, "velocity": 126}, {"time": 124081, "pitch": 78, "duration": 326, "velocity": 126}, {"time": 125041, "pitch": 78, "duration": 202, "velocity": 126}, {"time": 125278, "pitch": 80, "duration": 446, "velocity": 126}, {"time": 125759, "pitch": 76, "duration": 206, "velocity": 126}, {"time": 126000, "pitch": 78, "duration": 86, "velocity": 126}, {"time": 126121, "pitch": 80, "duration": 326, "velocity": 126}, {"time": 126960, "pitch": 76, "duration": 202, "velocity": 126}, {"time": 127197, "pitch": 80, "duration": 165, "velocity": 126}, {"time": 127438, "pitch": 80, "duration": 165, "velocity": 126}, {"time": 127679, "pitch": 80, "duration": 205, "velocity": 126}, {"time": 127920, "pitch": 81, "duration": 85, "velocity": 126}, {"time": 128040, "pitch": 80, "duration": 206, "velocity": 126}, {"time": 128281, "pitch": 78, "duration": 85, "velocity": 126}, {"time": 128401, "pitch": 78, "duration": 206, "velocity": 126}, {"time": 128642, "pitch": 80, "duration": 85, "velocity": 126}, {"time": 128763, "pitch": 78, "duration": 85, "velocity": 126}, {"time": 128883, "pitch": 76, "duration": 85, "velocity": 126}, {"time": 129003, "pitch": 75, "duration": 86, "velocity": 126}, {"time": 129124, "pitch": 76, "duration": 202, "velocity": 126}, {"time": 129361, "pitch": 83, "duration": 683, "velocity": 126}, {"time": 130561, "pitch": 80, "duration": 86, "velocity": 126}, {"time": 130682, "pitch": 78, "duration": 85, "velocity": 126}, {"time": 130802, "pitch": 76, "duration": 85, "velocity": 126}, {"time": 130923, "pitch": 75, "duration": 85, "velocity": 126}, {"time": 131043, "pitch": 76, "duration": 202, "velocity": 126}, {"time": 131280, "pitch": 83, "duration": 684, "velocity": 126}, {"time": 132480, "pitch": 83, "duration": 206, "velocity": 126}, {"time": 132721, "pitch": 84, "duration": 206, "velocity": 126}, {"time": 132962, "pitch": 85, "duration": 206, "velocity": 126}, {"time": 133203, "pitch": 85, "duration": 206, "velocity": 126}, {"time": 133444, "pitch": 80, "duration": 202, "velocity": 126}, {"time": 133681, "pitch": 80, "duration": 202, "velocity": 126}, {"time": 133918, "pitch": 83, "duration": 206, "velocity": 126}, {"time": 134159, "pitch": 83, "duration": 205, "velocity": 126}, {"time": 134400, "pitch": 80, "duration": 205, "velocity": 126}, {"time": 134640, "pitch": 76, "duration": 925, "velocity": 126}, {"time": 154080, "pitch": 80, "duration": 447, "velocity": 126}, {"time": 154562, "pitch": 80, "duration": 203, "velocity": 126}, {"time": 154799, "pitch": 81, "duration": 84, "velocity": 126}, {"time": 154918, "pitch": 80, "duration": 324, "velocity": 126}, {"time": 155759, "pitch": 80, "duration": 205, "velocity": 126}, {"time": 156000, "pitch": 78, "duration": 205, "velocity": 126}, {"time": 156240, "pitch": 78, "duration": 206, "velocity": 126}, {"time": 156481, "pitch": 83, "duration": 206, "velocity": 126}, {"time": 156722, "pitch": 78, "duration": 325, "velocity": 126}, {"time": 157678, "pitch": 78, "duration": 206, "velocity": 126}, {"time": 157919, "pitch": 80, "duration": 446, "velocity": 126}, {"time": 158400, "pitch": 76, "duration": 206, "velocity": 126}, {"time": 158641, "pitch": 78, "duration": 86, "velocity": 126}, {"time": 158762, "pitch": 80, "duration": 323, "velocity": 126}, {"time": 159838, "pitch": 80, "duration": 85, "velocity": 126}, {"time": 159958, "pitch": 80, "duration": 86, "velocity": 126}, {"time": 160079, "pitch": 80, "duration": 85, "velocity": 126}, {"time": 160199, "pitch": 80, "duration": 85, "velocity": 126}, {"time": 160320, "pitch": 80, "duration": 205, "velocity": 126}, {"time": 160560, "pitch": 81, "duration": 86, "velocity": 126}, {"time": 160681, "pitch": 80, "duration": 206, "velocity": 126}, {"time": 160922, "pitch": 78, "duration": 85, "velocity": 126}, {"time": 161042, "pitch": 78, "duration": 206, "velocity": 126}, {"time": 161283, "pitch": 80, "duration": 84, "velocity": 126}, {"time": 161402, "pitch": 78, "duration": 83, "velocity": 126}, {"time": 161520, "pitch": 76, "duration": 84, "velocity": 126}, {"time": 161639, "pitch": 75, "duration": 83, "velocity": 126}, {"time": 161757, "pitch": 76, "duration": 206, "velocity": 126}, {"time": 161998, "pitch": 83, "duration": 687, "velocity": 126}, {"time": 163202, "pitch": 80, "duration": 84, "velocity": 126}, {"time": 163321, "pitch": 78, "duration": 84, "velocity": 126}, {"time": 163439, "pitch": 76, "duration": 84, "velocity": 126}, {"time": 163558, "pitch": 75, "duration": 84, "velocity": 126}, {"time": 163676, "pitch": 76, "duration": 206, "velocity": 126}, {"time": 163917, "pitch": 83, "duration": 687, "velocity": 126}, {"time": 165121, "pitch": 83, "duration": 174, "velocity": 126}, {"time": 165362, "pitch": 84, "duration": 206, "velocity": 126}, {"time": 165603, "pitch": 85, "duration": 321, "velocity": 126}, {"time": 166077, "pitch": 80, "duration": 206, "velocity": 126}, {"time": 166318, "pitch": 80, "duration": 206, "velocity": 126}, {"time": 166559, "pitch": 83, "duration": 205, "velocity": 126}, {"time": 166800, "pitch": 83, "duration": 205, "velocity": 126}, {"time": 167040, "pitch": 85, "duration": 206, "velocity": 126}, {"time": 167281, "pitch": 83, "duration": 921, "velocity": 126}, {"time": 169441, "pitch": 80, "duration": 447, "velocity": 126}, {"time": 169923, "pitch": 80, "duration": 203, "velocity": 126}, {"time": 170160, "pitch": 81, "duration": 84, "velocity": 126}, {"time": 170279, "pitch": 80, "duration": 324, "velocity": 126}, {"time": 171120, "pitch": 80, "duration": 205, "velocity": 126}, {"time": 171361, "pitch": 78, "duration": 205, "velocity": 126}, {"time": 171601, "pitch": 78, "duration": 206, "velocity": 126}, {"time": 171842, "pitch": 83, "duration": 203, "velocity": 126}, {"time": 172079, "pitch": 78, "duration": 322, "velocity": 126}, {"time": 173039, "pitch": 78, "duration": 206, "velocity": 126}, {"time": 173280, "pitch": 80, "duration": 446, "velocity": 126}, {"time": 173761, "pitch": 76, "duration": 206, "velocity": 126}, {"time": 174002, "pitch": 78, "duration": 86, "velocity": 126}, {"time": 174123, "pitch": 80, "duration": 323, "velocity": 126}, {"time": 174958, "pitch": 76, "duration": 85, "velocity": 126}, {"time": 175078, "pitch": 76, "duration": 86, "velocity": 126}, {"time": 175199, "pitch": 80, "duration": 85, "velocity": 126}, {"time": 175319, "pitch": 80, "duration": 86, "velocity": 126}, {"time": 175440, "pitch": 80, "duration": 85, "velocity": 126}, {"time": 175560, "pitch": 80, "duration": 85, "velocity": 126}, {"time": 175681, "pitch": 80, "duration": 205, "velocity": 126}, {"time": 175921, "pitch": 81, "duration": 86, "velocity": 126}, {"time": 176042, "pitch": 80, "duration": 204, "velocity": 126}, {"time": 176281, "pitch": 78, "duration": 202, "velocity": 126}, {"time": 176636, "pitch": 80, "duration": 85, "velocity": 126}, {"time": 176757, "pitch": 78, "duration": 85, "velocity": 126}, {"time": 176877, "pitch": 76, "duration": 85, "velocity": 126}, {"time": 176997, "pitch": 75, "duration": 86, "velocity": 126}, {"time": 177118, "pitch": 76, "duration": 206, "velocity": 126}, {"time": 177359, "pitch": 83, "duration": 687, "velocity": 126}, {"time": 178563, "pitch": 80, "duration": 84, "velocity": 126}, {"time": 178682, "pitch": 78, "duration": 84, "velocity": 126}, {"time": 178800, "pitch": 76, "duration": 84, "velocity": 126}, {"time": 178919, "pitch": 75, "duration": 84, "velocity": 126}, {"time": 179037, "pitch": 76, "duration": 206, "velocity": 126}, {"time": 179278, "pitch": 83, "duration": 687, "velocity": 126}, {"time": 180482, "pitch": 83, "duration": 203, "velocity": 126}, {"time": 180719, "pitch": 84, "duration": 203, "velocity": 126}, {"time": 180956, "pitch": 85, "duration": 206, "velocity": 126}, {"time": 181197, "pitch": 85, "duration": 206, "velocity": 126}, {"time": 181438, "pitch": 80, "duration": 206, "velocity": 126}, {"time": 181679, "pitch": 80, "duration": 206, "velocity": 126}, {"time": 181920, "pitch": 83, "duration": 205, "velocity": 126}, {"time": 182161, "pitch": 83, "duration": 205, "velocity": 126}, {"time": 182401, "pitch": 80, "duration": 206, "velocity": 126}, {"time": 182642, "pitch": 76, "duration": 921, "velocity": 126}], "annotations": [{"time": 271, "annotation": {"number": 7, "value": 100}, "group": "control_change"}, {"time": 292, "annotation": {"number": 11, "value": 120}, "group": "control_change"}, {"time": 313, "annotation": {"number": 10, "value": 64}, "group": "control_change"}, {"time": 334, "annotation": {"number": 91, "value": 80}, "group": "control_change"}, {"time": 354, "annotation": {"number": 93, "value": 0}, "group": "control_change"}, {"time": 375, "annotation": {"number": 94, "value": 0}, "group": "control_change"}, {"time": 396, "annotation": {"number": 101, "value": 0}, "group": "control_change"}, {"time": 417, "annotation": {"number": 100, "value": 0}, "group": "control_change"}, {"time": 438, "annotation": {"number": 6, "value": 12}, "group": "control_change"}, {"time": 459, "annotation": {"number": 101, "value": 127}, "group": "control_change"}, {"time": 479, "annotation": {"number": 100, "value": 127}, "group": "control_change"}]}, {"program": 0, "is_drum": false, "name": "DIST(M)GT", "annotations": [{"time": 208, "annotation": {"number": 0, "value": 0}, "group": "control_change"}, {"time": 229, "annotation": {"number": 32, "value": 2}, "group": "control_change"}]}, {"program": 30, "is_drum": false, "name": "DIST(M)GT", "notes": [{"time": 13680, "pitch": 35, "duration": 173, "velocity": 127}, {"time": 13680, "pitch": 47, "duration": 195, "velocity": 127}, {"time": 13680, "pitch": 81, "duration": 189, "velocity": 100}, {"time": 13680, "pitch": 85, "duration": 210, "velocity": 100}, {"time": 13680, "pitch": 88, "duration": 193, "velocity": 100}, {"time": 13921, "pitch": 35, "duration": 149, "velocity": 127}, {"time": 13921, "pitch": 47, "duration": 155, "velocity": 127}, {"time": 13921, "pitch": 81, "duration": 189, "velocity": 100}, {"time": 13921, "pitch": 85, "duration": 210, "velocity": 100}, {"time": 13921, "pitch": 88, "duration": 193, "velocity": 100}, {"time": 14162, "pitch": 35, "duration": 321, "velocity": 127}, {"time": 14162, "pitch": 47, "duration": 325, "velocity": 127}, {"time": 14162, "pitch": 81, "duration": 188, "velocity": 100}, {"time": 14162, "pitch": 85, "duration": 210, "velocity": 100}, {"time": 14162, "pitch": 88, "duration": 192, "velocity": 100}, {"time": 41038, "pitch": 52, "duration": 8, "velocity": 127}, {"time": 41278, "pitch": 52, "duration": 197, "velocity": 127}, {"time": 41519, "pitch": 52, "duration": 235, "velocity": 127}, {"time": 41760, "pitch": 52, "duration": 85, "velocity": 127}, {"time": 42001, "pitch": 52, "duration": 161, "velocity": 127}, {"time": 42242, "pitch": 52, "duration": 224, "velocity": 127}, {"time": 42483, "pitch": 52, "duration": 167, "velocity": 127}, {"time": 42724, "pitch": 47, "duration": 234, "velocity": 127}, {"time": 42961, "pitch": 47, "duration": 82, "velocity": 127}, {"time": 43198, "pitch": 47, "duration": 165, "velocity": 127}, {"time": 43438, "pitch": 47, "duration": 230, "velocity": 127}, {"time": 43679, "pitch": 47, "duration": 84, "velocity": 127}, {"time": 43920, "pitch": 47, "duration": 163, "velocity": 127}, {"time": 44402, "pitch": 47, "duration": 8, "velocity": 127}, {"time": 44643, "pitch": 45, "duration": 232, "velocity": 127}, {"time": 44880, "pitch": 45, "duration": 73, "velocity": 127}, {"time": 45117, "pitch": 45, "duration": 155, "velocity": 127}, {"time": 45358, "pitch": 45, "duration": 239, "velocity": 127}, {"time": 45598, "pitch": 45, "duration": 64, "velocity": 127}, {"time": 45839, "pitch": 45, "duration": 166, "velocity": 127}, {"time": 46080, "pitch": 45, "duration": 232, "velocity": 127}, {"time": 46321, "pitch": 45, "duration": 159, "velocity": 127}, {"time": 46803, "pitch": 42, "duration": 16, "velocity": 127}, {"time": 47044, "pitch": 42, "duration": 79, "velocity": 127}, {"time": 47281, "pitch": 42, "duration": 156, "velocity": 127}, {"time": 47758, "pitch": 47, "duration": 5, "velocity": 127}, {"time": 47999, "pitch": 47, "duration": 93, "velocity": 127}, {"time": 48240, "pitch": 47, "duration": 157, "velocity": 127}, {"time": 48481, "pitch": 44, "duration": 232, "velocity": 127}, {"time": 48722, "pitch": 44, "duration": 80, "velocity": 127}, {"time": 48963, "pitch": 44, "duration": 153, "velocity": 127}, {"time": 49200, "pitch": 44, "duration": 211, "velocity": 127}, {"time": 49437, "pitch": 44, "duration": 70, "velocity": 127}, {"time": 49678, "pitch": 44, "duration": 128, "velocity": 127}, {"time": 49918, "pitch": 44, "duration": 234, "velocity": 127}, {"time": 50159, "pitch": 44, "duration": 134, "velocity": 127}, {"time": 50400, "pitch": 45, "duration": 231, "velocity": 127}, {"time": 50641, "pitch": 45, "duration": 83, "velocity": 127}, {"time": 50882, "pitch": 45, "duration": 166, "velocity": 127}, {"time": 51123, "pitch": 45, "duration": 262, "velocity": 127}, {"time": 51364, "pitch": 47, "duration": 197, "velocity": 127}, {"time": 51601, "pitch": 47, "duration": 243, "velocity": 127}, {"time": 51838, "pitch": 48, "duration": 167, "velocity": 127}, {"time": 52078, "pitch": 48, "duration": 234, "velocity": 127}, {"time": 52319, "pitch": 49, "duration": 79, "velocity": 127}, {"time": 52560, "pitch": 49, "duration": 164, "velocity": 127}, {"time": 52801, "pitch": 49, "duration": 235, "velocity": 127}, {"time": 53042, "pitch": 49, "duration": 134, "velocity": 127}, {"time": 53520, "pitch": 49, "duration": 18, "velocity": 127}, {"time": 53757, "pitch": 47, "duration": 123, "velocity": 127}, {"time": 53998, "pitch": 42, "duration": 220, "velocity": 127}, {"time": 54238, "pitch": 42, "duration": 77, "velocity": 127}, {"time": 54479, "pitch": 42, "duration": 147, "velocity": 127}, {"time": 54720, "pitch": 42, "duration": 227, "velocity": 127}, {"time": 54961, "pitch": 42, "duration": 193, "velocity": 127}, {"time": 55202, "pitch": 47, "duration": 235, "velocity": 127}, {"time": 55443, "pitch": 47, "duration": 70, "velocity": 127}, {"time": 55684, "pitch": 47, "duration": 185, "velocity": 127}, {"time": 55921, "pitch": 47, "duration": 227, "velocity": 127}, {"time": 56398, "pitch": 52, "duration": 8, "velocity": 127}, {"time": 56639, "pitch": 52, "duration": 197, "velocity": 127}, {"time": 56880, "pitch": 52, "duration": 235, "velocity": 127}, {"time": 57121, "pitch": 52, "duration": 85, "velocity": 127}, {"time": 57362, "pitch": 52, "duration": 161, "velocity": 127}, {"time": 57603, "pitch": 52, "duration": 220, "velocity": 127}, {"time": 57840, "pitch": 52, "duration": 165, "velocity": 127}, {"time": 58077, "pitch": 47, "duration": 238, "velocity": 127}, {"time": 58318, "pitch": 47, "duration": 83, "velocity": 127}, {"time": 58558, "pitch": 47, "duration": 166, "velocity": 127}, {"time": 58799, "pitch": 47, "duration": 230, "velocity": 127}, {"time": 59040, "pitch": 47, "duration": 83, "velocity": 127}, {"time": 59281, "pitch": 47, "duration": 163, "velocity": 127}, {"time": 59763, "pitch": 47, "duration": 8, "velocity": 127}, {"time": 60004, "pitch": 45, "duration": 232, "velocity": 127}, {"time": 60241, "pitch": 45, "duration": 73, "velocity": 127}, {"time": 60478, "pitch": 45, "duration": 155, "velocity": 127}, {"time": 60718, "pitch": 45, "duration": 240, "velocity": 127}, {"time": 60959, "pitch": 45, "duration": 64, "velocity": 127}, {"time": 61200, "pitch": 45, "duration": 166, "velocity": 127}, {"time": 61441, "pitch": 45, "duration": 232, "velocity": 127}, {"time": 61682, "pitch": 45, "duration": 159, "velocity": 127}, {"time": 62160, "pitch": 42, "duration": 16, "velocity": 127}, {"time": 62397, "pitch": 42, "duration": 80, "velocity": 127}, {"time": 62638, "pitch": 42, "duration": 158, "velocity": 127}, {"time": 63119, "pitch": 47, "duration": 5, "velocity": 127}, {"time": 63360, "pitch": 47, "duration": 93, "velocity": 127}, {"time": 63601, "pitch": 47, "duration": 157, "velocity": 127}, {"time": 63842, "pitch": 44, "duration": 232, "velocity": 127}, {"time": 64083, "pitch": 44, "duration": 80, "velocity": 127}, {"time": 64324, "pitch": 44, "duration": 153, "velocity": 127}, {"time": 64561, "pitch": 44, "duration": 211, "velocity": 127}, {"time": 64798, "pitch": 44, "duration": 70, "velocity": 127}, {"time": 65038, "pitch": 44, "duration": 129, "velocity": 127}, {"time": 65279, "pitch": 44, "duration": 234, "velocity": 127}, {"time": 65520, "pitch": 44, "duration": 134, "velocity": 127}, {"time": 65761, "pitch": 45, "duration": 231, "velocity": 127}, {"time": 66002, "pitch": 45, "duration": 83, "velocity": 127}, {"time": 66243, "pitch": 45, "duration": 163, "velocity": 127}, {"time": 66480, "pitch": 45, "duration": 259, "velocity": 127}, {"time": 66717, "pitch": 47, "duration": 200, "velocity": 127}, {"time": 67198, "pitch": 47, "duration": 6, "velocity": 127}, {"time": 67439, "pitch": 47, "duration": 234, "velocity": 127}, {"time": 67680, "pitch": 42, "duration": 76, "velocity": 127}, {"time": 67921, "pitch": 42, "duration": 147, "velocity": 127}, {"time": 68162, "pitch": 42, "duration": 227, "velocity": 127}, {"time": 68403, "pitch": 42, "duration": 193, "velocity": 127}, {"time": 68644, "pitch": 47, "duration": 231, "velocity": 127}, {"time": 68881, "pitch": 47, "duration": 69, "velocity": 127}, {"time": 69118, "pitch": 47, "duration": 188, "velocity": 127}, {"time": 69358, "pitch": 47, "duration": 231, "velocity": 127}, {"time": 69599, "pitch": 52, "duration": 109, "velocity": 127}, {"time": 69840, "pitch": 52, "duration": 99, "velocity": 127}, {"time": 70081, "pitch": 52, "duration": 105, "velocity": 127}, {"time": 70322, "pitch": 52, "duration": 43, "velocity": 127}, {"time": 70442, "pitch": 52, "duration": 93, "velocity": 127}, {"time": 70681, "pitch": 52, "duration": 57, "velocity": 127}, {"time": 70918, "pitch": 52, "duration": 58, "velocity": 127}, {"time": 71157, "pitch": 52, "duration": 42, "velocity": 127}, {"time": 71278, "pitch": 52, "duration": 55, "velocity": 127}, {"time": 71518, "pitch": 52, "duration": 85, "velocity": 127}, {"time": 71759, "pitch": 52, "duration": 80, "velocity": 127}, {"time": 72000, "pitch": 52, "duration": 101, "velocity": 127}, {"time": 72241, "pitch": 52, "duration": 37, "velocity": 127}, {"time": 72362, "pitch": 52, "duration": 74, "velocity": 127}, {"time": 72602, "pitch": 52, "duration": 51, "velocity": 127}, {"time": 72843, "pitch": 52, "duration": 48, "velocity": 127}, {"time": 73082, "pitch": 52, "duration": 60, "velocity": 127}, {"time": 73319, "pitch": 51, "duration": 63, "velocity": 127}, {"time": 73438, "pitch": 49, "duration": 133, "velocity": 127}, {"time": 73678, "pitch": 49, "duration": 90, "velocity": 127}, {"time": 73919, "pitch": 49, "duration": 110, "velocity": 127}, {"time": 74160, "pitch": 49, "duration": 43, "velocity": 127}, {"time": 74281, "pitch": 49, "duration": 85, "velocity": 127}, {"time": 74522, "pitch": 49, "duration": 53, "velocity": 127}, {"time": 74762, "pitch": 49, "duration": 53, "velocity": 127}, {"time": 75001, "pitch": 49, "duration": 62, "velocity": 127}, {"time": 75357, "pitch": 45, "duration": 61, "velocity": 127}, {"time": 75598, "pitch": 45, "duration": 66, "velocity": 127}, {"time": 75838, "pitch": 45, "duration": 96, "velocity": 127}, {"time": 76079, "pitch": 45, "duration": 49, "velocity": 127}, {"time": 76200, "pitch": 47, "duration": 96, "velocity": 127}, {"time": 76441, "pitch": 47, "duration": 102, "velocity": 127}, {"time": 76682, "pitch": 47, "duration": 72, "velocity": 127}, {"time": 76922, "pitch": 47, "duration": 74, "velocity": 127}, {"time": 78962, "pitch": 35, "duration": 173, "velocity": 127}, {"time": 78962, "pitch": 47, "duration": 195, "velocity": 127}, {"time": 79203, "pitch": 35, "duration": 147, "velocity": 127}, {"time": 79203, "pitch": 47, "duration": 153, "velocity": 127}, {"time": 79440, "pitch": 35, "duration": 318, "velocity": 127}, {"time": 79440, "pitch": 47, "duration": 322, "velocity": 127}, {"time": 106319, "pitch": 52, "duration": 8, "velocity": 127}, {"time": 106560, "pitch": 52, "duration": 197, "velocity": 127}, {"time": 106801, "pitch": 52, "duration": 235, "velocity": 127}, {"time": 107042, "pitch": 52, "duration": 85, "velocity": 127}, {"time": 107283, "pitch": 52, "duration": 161, "velocity": 127}, {"time": 107524, "pitch": 52, "duration": 220, "velocity": 127}, {"time": 107761, "pitch": 52, "duration": 165, "velocity": 127}, {"time": 107998, "pitch": 47, "duration": 238, "velocity": 127}, {"time": 108239, "pitch": 47, "duration": 83, "velocity": 127}, {"time": 108479, "pitch": 47, "duration": 166, "velocity": 127}, {"time": 108720, "pitch": 47, "duration": 230, "velocity": 127}, {"time": 108961, "pitch": 47, "duration": 83, "velocity": 127}, {"time": 109202, "pitch": 47, "duration": 163, "velocity": 127}, {"time": 109680, "pitch": 47, "duration": 8, "velocity": 127}, {"time": 109917, "pitch": 45, "duration": 236, "velocity": 127}, {"time": 110158, "pitch": 45, "duration": 74, "velocity": 127}, {"time": 110399, "pitch": 45, "duration": 155, "velocity": 127}, {"time": 110639, "pitch": 45, "duration": 240, "velocity": 127}, {"time": 110880, "pitch": 45, "duration": 64, "velocity": 127}, {"time": 111121, "pitch": 45, "duration": 166, "velocity": 127}, {"time": 111362, "pitch": 45, "duration": 232, "velocity": 127}, {"time": 111603, "pitch": 45, "duration": 159, "velocity": 127}, {"time": 112081, "pitch": 42, "duration": 16, "velocity": 127}, {"time": 112318, "pitch": 42, "duration": 80, "velocity": 127}, {"time": 112559, "pitch": 42, "duration": 158, "velocity": 127}, {"time": 113040, "pitch": 47, "duration": 5, "velocity": 127}, {"time": 113281, "pitch": 47, "duration": 93, "velocity": 127}, {"time": 113522, "pitch": 47, "duration": 157, "velocity": 127}, {"time": 113763, "pitch": 44, "duration": 228, "velocity": 127}, {"time": 114000, "pitch": 44, "duration": 79, "velocity": 127}, {"time": 114237, "pitch": 44, "duration": 155, "velocity": 127}, {"time": 114478, "pitch": 44, "duration": 214, "velocity": 127}, {"time": 114719, "pitch": 44, "duration": 70, "velocity": 127}, {"time": 114959, "pitch": 44, "duration": 129, "velocity": 127}, {"time": 115200, "pitch": 44, "duration": 234, "velocity": 127}, {"time": 115441, "pitch": 44, "duration": 134, "velocity": 127}, {"time": 115682, "pitch": 45, "duration": 231, "velocity": 127}, {"time": 115923, "pitch": 45, "duration": 83, "velocity": 127}, {"time": 116164, "pitch": 45, "duration": 163, "velocity": 127}, {"time": 116401, "pitch": 45, "duration": 259, "velocity": 127}, {"time": 116638, "pitch": 47, "duration": 200, "velocity": 127}, {"time": 116879, "pitch": 47, "duration": 246, "velocity": 127}, {"time": 117119, "pitch": 48, "duration": 168, "velocity": 127}, {"time": 117360, "pitch": 48, "duration": 234, "velocity": 127}, {"time": 117601, "pitch": 49, "duration": 79, "velocity": 127}, {"time": 117842, "pitch": 49, "duration": 164, "velocity": 127}, {"time": 118083, "pitch": 49, "duration": 231, "velocity": 127}, {"time": 118320, "pitch": 49, "duration": 132, "velocity": 127}, {"time": 118798, "pitch": 49, "duration": 18, "velocity": 127}, {"time": 119039, "pitch": 47, "duration": 123, "velocity": 127}, {"time": 119279, "pitch": 42, "duration": 221, "velocity": 127}, {"time": 119520, "pitch": 42, "duration": 77, "velocity": 127}, {"time": 119761, "pitch": 42, "duration": 147, "velocity": 127}, {"time": 120002, "pitch": 42, "duration": 227, "velocity": 127}, {"time": 120243, "pitch": 42, "duration": 193, "velocity": 127}, {"time": 120484, "pitch": 47, "duration": 231, "velocity": 127}, {"time": 120721, "pitch": 47, "duration": 69, "velocity": 127}, {"time": 120958, "pitch": 47, "duration": 188, "velocity": 127}, {"time": 121199, "pitch": 47, "duration": 230, "velocity": 127}, {"time": 121680, "pitch": 52, "duration": 8, "velocity": 127}, {"time": 121921, "pitch": 52, "duration": 197, "velocity": 127}, {"time": 122162, "pitch": 52, "duration": 235, "velocity": 127}, {"time": 122403, "pitch": 52, "duration": 84, "velocity": 127}, {"time": 122640, "pitch": 52, "duration": 158, "velocity": 127}, {"time": 122877, "pitch": 52, "duration": 224, "velocity": 127}, {"time": 123118, "pitch": 52, "duration": 167, "velocity": 127}, {"time": 123359, "pitch": 47, "duration": 237, "velocity": 127}, {"time": 123599, "pitch": 47, "duration": 84, "velocity": 127}, {"time": 123840, "pitch": 47, "duration": 166, "velocity": 127}, {"time": 124081, "pitch": 47, "duration": 230, "velocity": 127}, {"time": 124322, "pitch": 47, "duration": 83, "velocity": 127}, {"time": 124563, "pitch": 47, "duration": 163, "velocity": 127}, {"time": 125041, "pitch": 47, "duration": 8, "velocity": 127}, {"time": 125278, "pitch": 45, "duration": 236, "velocity": 127}, {"time": 125519, "pitch": 45, "duration": 74, "velocity": 127}, {"time": 125759, "pitch": 45, "duration": 156, "velocity": 127}, {"time": 126000, "pitch": 45, "duration": 240, "velocity": 127}, {"time": 126241, "pitch": 45, "duration": 63, "velocity": 127}, {"time": 126482, "pitch": 45, "duration": 166, "velocity": 127}, {"time": 126723, "pitch": 45, "duration": 228, "velocity": 127}, {"time": 126960, "pitch": 45, "duration": 156, "velocity": 127}, {"time": 127438, "pitch": 42, "duration": 16, "velocity": 127}, {"time": 127679, "pitch": 42, "duration": 80, "velocity": 127}, {"time": 127920, "pitch": 42, "duration": 158, "velocity": 127}, {"time": 128401, "pitch": 47, "duration": 5, "velocity": 127}, {"time": 128642, "pitch": 47, "duration": 92, "velocity": 127}, {"time": 128883, "pitch": 47, "duration": 157, "velocity": 127}, {"time": 129124, "pitch": 44, "duration": 228, "velocity": 127}, {"time": 129361, "pitch": 44, "duration": 79, "velocity": 127}, {"time": 129598, "pitch": 44, "duration": 155, "velocity": 127}, {"time": 129839, "pitch": 44, "duration": 214, "velocity": 127}, {"time": 130080, "pitch": 44, "duration": 70, "velocity": 127}, {"time": 130320, "pitch": 44, "duration": 129, "velocity": 127}, {"time": 130561, "pitch": 44, "duration": 234, "velocity": 127}, {"time": 130802, "pitch": 44, "duration": 134, "velocity": 127}, {"time": 131043, "pitch": 45, "duration": 227, "velocity": 127}, {"time": 131280, "pitch": 45, "duration": 82, "velocity": 127}, {"time": 131517, "pitch": 45, "duration": 165, "velocity": 127}, {"time": 131758, "pitch": 45, "duration": 263, "velocity": 127}, {"time": 131999, "pitch": 47, "duration": 200, "velocity": 127}, {"time": 132480, "pitch": 47, "duration": 6, "velocity": 127}, {"time": 132721, "pitch": 47, "duration": 234, "velocity": 127}, {"time": 132962, "pitch": 42, "duration": 76, "velocity": 127}, {"time": 133203, "pitch": 42, "duration": 147, "velocity": 127}, {"time": 133444, "pitch": 42, "duration": 223, "velocity": 127}, {"time": 133681, "pitch": 42, "duration": 189, "velocity": 127}, {"time": 133918, "pitch": 47, "duration": 235, "velocity": 127}, {"time": 134159, "pitch": 47, "duration": 70, "velocity": 127}, {"time": 134400, "pitch": 47, "duration": 188, "velocity": 127}, {"time": 134640, "pitch": 47, "duration": 231, "velocity": 127}, {"time": 134881, "pitch": 45, "duration": 153, "velocity": 127}, {"time": 135122, "pitch": 45, "duration": 93, "velocity": 127}, {"time": 135363, "pitch": 45, "duration": 186, "velocity": 127}, {"time": 135363, "pitch": 73, "duration": 118, "velocity": 107}, {"time": 135481, "pitch": 75, "duration": 119, "velocity": 107}, {"time": 135600, "pitch": 76, "duration": 118, "velocity": 107}, {"time": 135718, "pitch": 47, "duration": 99, "velocity": 127}, {"time": 135718, "pitch": 75, "duration": 239, "velocity": 107}, {"time": 135957, "pitch": 47, "duration": 69, "velocity": 127}, {"time": 135957, "pitch": 71, "duration": 241, "velocity": 107}, {"time": 136198, "pitch": 47, "duration": 172, "velocity": 127}, {"time": 136198, "pitch": 71, "duration": 241, "velocity": 107}, {"time": 136439, "pitch": 75, "duration": 361, "velocity": 107}, {"time": 136560, "pitch": 47, "duration": 69, "velocity": 127}, {"time": 136800, "pitch": 49, "duration": 103, "velocity": 127}, {"time": 136800, "pitch": 75, "duration": 362, "velocity": 107}, {"time": 137041, "pitch": 49, "duration": 169, "velocity": 127}, {"time": 137162, "pitch": 76, "duration": 361, "velocity": 107}, {"time": 137523, "pitch": 49, "duration": 85, "velocity": 127}, {"time": 137523, "pitch": 73, "duration": 1678, "velocity": 107}, {"time": 137882, "pitch": 49, "duration": 82, "velocity": 127}, {"time": 138238, "pitch": 49, "duration": 94, "velocity": 127}, {"time": 138720, "pitch": 45, "duration": 110, "velocity": 127}, {"time": 138960, "pitch": 45, "duration": 145, "velocity": 127}, {"time": 139201, "pitch": 73, "duration": 121, "velocity": 107}, {"time": 139322, "pitch": 45, "duration": 80, "velocity": 127}, {"time": 139322, "pitch": 75, "duration": 120, "velocity": 107}, {"time": 139442, "pitch": 76, "duration": 121, "velocity": 107}, {"time": 139563, "pitch": 47, "duration": 135, "velocity": 127}, {"time": 139563, "pitch": 75, "duration": 238, "velocity": 107}, {"time": 139801, "pitch": 47, "duration": 89, "velocity": 127}, {"time": 139801, "pitch": 71, "duration": 237, "velocity": 107}, {"time": 140038, "pitch": 47, "duration": 168, "velocity": 127}, {"time": 140038, "pitch": 71, "duration": 239, "velocity": 107}, {"time": 140277, "pitch": 68, "duration": 362, "velocity": 107}, {"time": 140398, "pitch": 47, "duration": 112, "velocity": 127}, {"time": 140639, "pitch": 52, "duration": 99, "velocity": 127}, {"time": 140639, "pitch": 66, "duration": 361, "velocity": 107}, {"time": 140880, "pitch": 52, "duration": 162, "velocity": 127}, {"time": 141000, "pitch": 68, "duration": 1449, "velocity": 107}, {"time": 141241, "pitch": 40, "duration": 70, "velocity": 127}, {"time": 141241, "pitch": 52, "duration": 70, "velocity": 127}, {"time": 141602, "pitch": 40, "duration": 82, "velocity": 127}, {"time": 141602, "pitch": 52, "duration": 82, "velocity": 127}, {"time": 141723, "pitch": 52, "duration": 84, "velocity": 127}, {"time": 141843, "pitch": 40, "duration": 75, "velocity": 127}, {"time": 141843, "pitch": 52, "duration": 75, "velocity": 127}, {"time": 142084, "pitch": 40, "duration": 106, "velocity": 127}, {"time": 142084, "pitch": 52, "duration": 106, "velocity": 127}, {"time": 142321, "pitch": 52, "duration": 79, "velocity": 127}, {"time": 142558, "pitch": 45, "duration": 122, "velocity": 127}, {"time": 142799, "pitch": 45, "duration": 139, "velocity": 127}, {"time": 143040, "pitch": 73, "duration": 120, "velocity": 107}, {"time": 143160, "pitch": 45, "duration": 102, "velocity": 127}, {"time": 143160, "pitch": 75, "duration": 120, "velocity": 107}, {"time": 143280, "pitch": 76, "duration": 121, "velocity": 107}, {"time": 143401, "pitch": 47, "duration": 105, "velocity": 127}, {"time": 143401, "pitch": 75, "duration": 241, "velocity": 107}, {"time": 143642, "pitch": 47, "duration": 89, "velocity": 127}, {"time": 143642, "pitch": 71, "duration": 241, "velocity": 107}, {"time": 143883, "pitch": 47, "duration": 110, "velocity": 127}, {"time": 143883, "pitch": 71, "duration": 238, "velocity": 107}, {"time": 144121, "pitch": 75, "duration": 356, "velocity": 107}, {"time": 144240, "pitch": 47, "duration": 96, "velocity": 127}, {"time": 144477, "pitch": 49, "duration": 105, "velocity": 127}, {"time": 144477, "pitch": 75, "duration": 361, "velocity": 107}, {"time": 144718, "pitch": 49, "duration": 170, "velocity": 127}, {"time": 144838, "pitch": 76, "duration": 362, "velocity": 107}, {"time": 145200, "pitch": 73, "duration": 1678, "velocity": 107}, {"time": 145561, "pitch": 42, "duration": 63, "velocity": 127}, {"time": 145681, "pitch": 44, "duration": 70, "velocity": 127}, {"time": 145802, "pitch": 47, "duration": 68, "velocity": 127}, {"time": 145922, "pitch": 49, "duration": 116, "velocity": 127}, {"time": 146043, "pitch": 47, "duration": 75, "velocity": 127}, {"time": 146163, "pitch": 44, "duration": 102, "velocity": 127}, {"time": 146283, "pitch": 42, "duration": 66, "velocity": 127}, {"time": 146404, "pitch": 45, "duration": 123, "velocity": 127}, {"time": 146641, "pitch": 45, "duration": 154, "velocity": 127}, {"time": 146878, "pitch": 73, "duration": 120, "velocity": 107}, {"time": 146998, "pitch": 45, "duration": 101, "velocity": 127}, {"time": 146998, "pitch": 75, "duration": 121, "velocity": 107}, {"time": 147119, "pitch": 76, "duration": 120, "velocity": 107}, {"time": 147239, "pitch": 47, "duration": 108, "velocity": 127}, {"time": 147239, "pitch": 78, "duration": 241, "velocity": 107}, {"time": 147480, "pitch": 47, "duration": 89, "velocity": 127}, {"time": 147480, "pitch": 83, "duration": 241, "velocity": 127}, {"time": 147721, "pitch": 47, "duration": 171, "velocity": 127}, {"time": 147721, "pitch": 78, "duration": 241, "velocity": 107}, {"time": 147962, "pitch": 75, "duration": 241, "velocity": 107}, {"time": 148082, "pitch": 47, "duration": 94, "velocity": 127}, {"time": 148203, "pitch": 73, "duration": 1984, "velocity": 107}, {"time": 148323, "pitch": 49, "duration": 146, "velocity": 127}, {"time": 148560, "pitch": 49, "duration": 174, "velocity": 127}, {"time": 148917, "pitch": 49, "duration": 178, "velocity": 127}, {"time": 149158, "pitch": 49, "duration": 137, "velocity": 127}, {"time": 149399, "pitch": 49, "duration": 82, "velocity": 127}, {"time": 149640, "pitch": 49, "duration": 46, "velocity": 127}, {"time": 149760, "pitch": 49, "duration": 206, "velocity": 127}, {"time": 150001, "pitch": 49, "duration": 155, "velocity": 127}, {"time": 150242, "pitch": 71, "duration": 74, "velocity": 102}, {"time": 150361, "pitch": 76, "duration": 74, "velocity": 102}, {"time": 150479, "pitch": 78, "duration": 74, "velocity": 102}, {"time": 150598, "pitch": 71, "duration": 74, "velocity": 102}, {"time": 150716, "pitch": 83, "duration": 75, "velocity": 102}, {"time": 150837, "pitch": 71, "duration": 75, "velocity": 102}, {"time": 150957, "pitch": 76, "duration": 75, "velocity": 102}, {"time": 151077, "pitch": 78, "duration": 76, "velocity": 102}, {"time": 151198, "pitch": 71, "duration": 75, "velocity": 102}, {"time": 151318, "pitch": 76, "duration": 76, "velocity": 102}, {"time": 151439, "pitch": 78, "duration": 75, "velocity": 102}, {"time": 151559, "pitch": 71, "duration": 75, "velocity": 102}, {"time": 151680, "pitch": 83, "duration": 75, "velocity": 102}, {"time": 151920, "pitch": 71, "duration": 241, "velocity": 107}, {"time": 151920, "pitch": 76, "duration": 241, "velocity": 107}, {"time": 151920, "pitch": 80, "duration": 241, "velocity": 107}, {"time": 152402, "pitch": 71, "duration": 139, "velocity": 107}, {"time": 152402, "pitch": 75, "duration": 146, "velocity": 107}, {"time": 152402, "pitch": 78, "duration": 143, "velocity": 107}, {"time": 152643, "pitch": 71, "duration": 398, "velocity": 107}, {"time": 152643, "pitch": 75, "duration": 390, "velocity": 107}, {"time": 152643, "pitch": 78, "duration": 417, "velocity": 107}, {"time": 154321, "pitch": 52, "duration": 8, "velocity": 127}, {"time": 154562, "pitch": 52, "duration": 194, "velocity": 127}, {"time": 154799, "pitch": 52, "duration": 231, "velocity": 127}, {"time": 155036, "pitch": 52, "duration": 85, "velocity": 127}, {"time": 155277, "pitch": 52, "duration": 161, "velocity": 127}, {"time": 155518, "pitch": 52, "duration": 224, "velocity": 127}, {"time": 155759, "pitch": 52, "duration": 167, "velocity": 127}, {"time": 156000, "pitch": 47, "duration": 237, "velocity": 127}, {"time": 156240, "pitch": 47, "duration": 84, "velocity": 127}, {"time": 156481, "pitch": 47, "duration": 166, "velocity": 127}, {"time": 156722, "pitch": 47, "duration": 230, "velocity": 127}, {"time": 156963, "pitch": 47, "duration": 82, "velocity": 127}, {"time": 157200, "pitch": 47, "duration": 160, "velocity": 127}, {"time": 157678, "pitch": 47, "duration": 8, "velocity": 127}, {"time": 157919, "pitch": 45, "duration": 236, "velocity": 127}, {"time": 158160, "pitch": 45, "duration": 74, "velocity": 127}, {"time": 158400, "pitch": 45, "duration": 156, "velocity": 127}, {"time": 158641, "pitch": 45, "duration": 240, "velocity": 127}, {"time": 158882, "pitch": 45, "duration": 62, "velocity": 127}, {"time": 159119, "pitch": 45, "duration": 163, "velocity": 127}, {"time": 159356, "pitch": 45, "duration": 232, "velocity": 127}, {"time": 159597, "pitch": 45, "duration": 159, "velocity": 127}, {"time": 160079, "pitch": 42, "duration": 16, "velocity": 127}, {"time": 160320, "pitch": 42, "duration": 80, "velocity": 127}, {"time": 160560, "pitch": 42, "duration": 159, "velocity": 127}, {"time": 161042, "pitch": 47, "duration": 5, "velocity": 127}, {"time": 161283, "pitch": 47, "duration": 91, "velocity": 127}, {"time": 161520, "pitch": 47, "duration": 154, "velocity": 127}, {"time": 161757, "pitch": 44, "duration": 232, "velocity": 127}, {"time": 161998, "pitch": 44, "duration": 80, "velocity": 127}, {"time": 162239, "pitch": 44, "duration": 155, "velocity": 127}, {"time": 162480, "pitch": 44, "duration": 214, "velocity": 127}, {"time": 162720, "pitch": 44, "duration": 71, "velocity": 127}, {"time": 162961, "pitch": 44, "duration": 129, "velocity": 127}, {"time": 163202, "pitch": 44, "duration": 230, "velocity": 127}, {"time": 163439, "pitch": 44, "duration": 132, "velocity": 127}, {"time": 163676, "pitch": 45, "duration": 231, "velocity": 127}, {"time": 163917, "pitch": 45, "duration": 83, "velocity": 127}, {"time": 164158, "pitch": 45, "duration": 165, "velocity": 127}, {"time": 164399, "pitch": 45, "duration": 263, "velocity": 127}, {"time": 164640, "pitch": 47, "duration": 200, "velocity": 127}, {"time": 164880, "pitch": 47, "duration": 247, "velocity": 127}, {"time": 165121, "pitch": 48, "duration": 168, "velocity": 127}, {"time": 165362, "pitch": 48, "duration": 234, "velocity": 127}, {"time": 165603, "pitch": 49, "duration": 77, "velocity": 127}, {"time": 165840, "pitch": 49, "duration": 161, "velocity": 127}, {"time": 166077, "pitch": 49, "duration": 235, "velocity": 127}, {"time": 166318, "pitch": 49, "duration": 134, "velocity": 127}, {"time": 166800, "pitch": 49, "duration": 18, "velocity": 127}, {"time": 167040, "pitch": 47, "duration": 124, "velocity": 127}, {"time": 167281, "pitch": 42, "duration": 221, "velocity": 127}, {"time": 167522, "pitch": 42, "duration": 75, "velocity": 127}, {"time": 167759, "pitch": 42, "duration": 144, "velocity": 127}, {"time": 167996, "pitch": 42, "duration": 227, "velocity": 127}, {"time": 168237, "pitch": 42, "duration": 193, "velocity": 127}, {"time": 168478, "pitch": 47, "duration": 235, "velocity": 127}, {"time": 168719, "pitch": 47, "duration": 70, "velocity": 127}, {"time": 168960, "pitch": 47, "duration": 188, "velocity": 127}, {"time": 169200, "pitch": 47, "duration": 231, "velocity": 127}, {"time": 169682, "pitch": 52, "duration": 8, "velocity": 127}, {"time": 169923, "pitch": 52, "duration": 194, "velocity": 127}, {"time": 170160, "pitch": 52, "duration": 231, "velocity": 127}, {"time": 170397, "pitch": 52, "duration": 85, "velocity": 127}, {"time": 170638, "pitch": 52, "duration": 160, "velocity": 127}, {"time": 170879, "pitch": 52, "duration": 224, "velocity": 127}, {"time": 171120, "pitch": 52, "duration": 167, "velocity": 127}, {"time": 171361, "pitch": 47, "duration": 237, "velocity": 127}, {"time": 171601, "pitch": 47, "duration": 84, "velocity": 127}, {"time": 171842, "pitch": 47, "duration": 163, "velocity": 127}, {"time": 172079, "pitch": 47, "duration": 226, "velocity": 127}, {"time": 172316, "pitch": 47, "duration": 83, "velocity": 127}, {"time": 172557, "pitch": 47, "duration": 163, "velocity": 127}, {"time": 173039, "pitch": 47, "duration": 8, "velocity": 127}, {"time": 173280, "pitch": 45, "duration": 235, "velocity": 127}, {"time": 173521, "pitch": 45, "duration": 74, "velocity": 127}, {"time": 173761, "pitch": 45, "duration": 156, "velocity": 127}, {"time": 174002, "pitch": 45, "duration": 240, "velocity": 127}, {"time": 174243, "pitch": 45, "duration": 62, "velocity": 127}, {"time": 174480, "pitch": 45, "duration": 163, "velocity": 127}, {"time": 174717, "pitch": 45, "duration": 232, "velocity": 127}, {"time": 174958, "pitch": 45, "duration": 158, "velocity": 127}, {"time": 175440, "pitch": 42, "duration": 16, "velocity": 127}, {"time": 175681, "pitch": 42, "duration": 80, "velocity": 127}, {"time": 175921, "pitch": 42, "duration": 159, "velocity": 127}, {"time": 176399, "pitch": 47, "duration": 5, "velocity": 127}, {"time": 176636, "pitch": 47, "duration": 92, "velocity": 127}, {"time": 176877, "pitch": 47, "duration": 157, "velocity": 127}, {"time": 177118, "pitch": 44, "duration": 232, "velocity": 127}, {"time": 177359, "pitch": 44, "duration": 80, "velocity": 127}, {"time": 177600, "pitch": 44, "duration": 155, "velocity": 127}, {"time": 177841, "pitch": 44, "duration": 214, "velocity": 127}, {"time": 178081, "pitch": 44, "duration": 71, "velocity": 127}, {"time": 178322, "pitch": 44, "duration": 129, "velocity": 127}, {"time": 178563, "pitch": 44, "duration": 230, "velocity": 127}, {"time": 178800, "pitch": 44, "duration": 131, "velocity": 127}, {"time": 179037, "pitch": 45, "duration": 231, "velocity": 127}, {"time": 179278, "pitch": 45, "duration": 83, "velocity": 127}, {"time": 179519, "pitch": 45, "duration": 165, "velocity": 127}, {"time": 179760, "pitch": 45, "duration": 263, "velocity": 127}, {"time": 180001, "pitch": 47, "duration": 200, "velocity": 127}, {"time": 180482, "pitch": 47, "duration": 6, "velocity": 127}, {"time": 180719, "pitch": 47, "duration": 230, "velocity": 127}, {"time": 180956, "pitch": 42, "duration": 76, "velocity": 127}, {"time": 181197, "pitch": 42, "duration": 147, "velocity": 127}, {"time": 181438, "pitch": 42, "duration": 227, "velocity": 127}, {"time": 181679, "pitch": 42, "duration": 192, "velocity": 127}, {"time": 181920, "pitch": 47, "duration": 235, "velocity": 127}, {"time": 182161, "pitch": 47, "duration": 70, "velocity": 127}, {"time": 182401, "pitch": 47, "duration": 189, "velocity": 127}, {"time": 182642, "pitch": 47, "duration": 231, "velocity": 127}, {"time": 183120, "pitch": 52, "duration": 8, "velocity": 127}, {"time": 183357, "pitch": 52, "duration": 197, "velocity": 127}, {"time": 183598, "pitch": 52, "duration": 235, "velocity": 127}, {"time": 183839, "pitch": 52, "duration": 85, "velocity": 127}, {"time": 184080, "pitch": 52, "duration": 160, "velocity": 127}, {"time": 184321, "pitch": 52, "duration": 223, "velocity": 127}, {"time": 184561, "pitch": 52, "duration": 168, "velocity": 127}, {"time": 201841, "pitch": 35, "duration": 173, "velocity": 127}, {"time": 201841, "pitch": 47, "duration": 195, "velocity": 127}, {"time": 201841, "pitch": 81, "duration": 189, "velocity": 100}, {"time": 201841, "pitch": 85, "duration": 210, "velocity": 100}, {"time": 201841, "pitch": 88, "duration": 193, "velocity": 100}, {"time": 202082, "pitch": 35, "duration": 147, "velocity": 127}, {"time": 202082, "pitch": 47, "duration": 153, "velocity": 127}, {"time": 202082, "pitch": 81, "duration": 186, "velocity": 100}, {"time": 202082, "pitch": 85, "duration": 207, "velocity": 100}, {"time": 202082, "pitch": 88, "duration": 190, "velocity": 100}, {"time": 202319, "pitch": 35, "duration": 319, "velocity": 127}, {"time": 202319, "pitch": 47, "duration": 323, "velocity": 127}, {"time": 202319, "pitch": 81, "duration": 186, "velocity": 100}, {"time": 202319, "pitch": 85, "duration": 207, "velocity": 100}, {"time": 202319, "pitch": 88, "duration": 190, "velocity": 100}], "annotations": [{"time": 271, "annotation": {"number": 7, "value": 100}, "group": "control_change"}, {"time": 292, "annotation": {"number": 11, "value": 110}, "group": "control_change"}, {"time": 313, "annotation": {"number": 10, "value": 124}, "group": "control_change"}, {"time": 334, "annotation": {"number": 91, "value": 50}, "group": "control_change"}, {"time": 354, "annotation": {"number": 93, "value": 0}, "group": "control_change"}, {"time": 375, "annotation": {"number": 94, "value": 0}, "group": "control_change"}, {"time": 396, "annotation": {"number": 101, "value": 0}, "group": "control_change"}, {"time": 417, "annotation": {"number": 100, "value": 0}, "group": "control_change"}, {"time": 438, "annotation": {"number": 6, "value": 12}, "group": "control_change"}, {"time": 459, "annotation": {"number": 101, "value": 127}, "group": "control_change"}, {"time": 479, "annotation": {"number": 100, "value": 127}, "group": "control_change"}]}, {"program": 0, "is_drum": false, "name": "FANTASIA 1", "annotations": [{"time": 208, "annotation": {"number": 0, "value": 0}, "group": "control_change"}, {"time": 229, "annotation": {"number": 32, "value": 2}, "group": "control_change"}]}, {"program": 88, "is_drum": false, "name": "FANTASIA 1", "notes": [{"time": 4558, "pitch": 100, "duration": 73, "velocity": 122}, {"time": 4799, "pitch": 102, "duration": 71, "velocity": 122}, {"time": 5040, "pitch": 104, "duration": 68, "velocity": 122}, {"time": 6477, "pitch": 104, "duration": 76, "velocity": 122}, {"time": 6718, "pitch": 102, "duration": 91, "velocity": 122}, {"time": 6959, "pitch": 100, "duration": 74, "velocity": 122}, {"time": 7200, "pitch": 100, "duration": 82, "velocity": 122}, {"time": 7682, "pitch": 102, "duration": 81, "velocity": 122}, {"time": 10320, "pitch": 100, "duration": 68, "velocity": 122}, {"time": 10557, "pitch": 102, "duration": 75, "velocity": 122}, {"time": 10797, "pitch": 104, "duration": 68, "velocity": 122}, {"time": 12243, "pitch": 104, "duration": 76, "velocity": 122}, {"time": 12483, "pitch": 102, "duration": 81, "velocity": 122}, {"time": 12720, "pitch": 100, "duration": 80, "velocity": 122}, {"time": 12957, "pitch": 99, "duration": 360, "velocity": 122}, {"time": 13439, "pitch": 100, "duration": 124, "velocity": 122}, {"time": 22561, "pitch": 88, "duration": 120, "velocity": 92}, {"time": 22561, "pitch": 100, "duration": 120, "velocity": 92}, {"time": 22922, "pitch": 87, "duration": 121, "velocity": 92}, {"time": 22922, "pitch": 99, "duration": 121, "velocity": 92}, {"time": 23280, "pitch": 95, "duration": 118, "velocity": 92}, {"time": 23280, "pitch": 107, "duration": 118, "velocity": 92}, {"time": 23517, "pitch": 92, "duration": 298, "velocity": 92}, {"time": 30238, "pitch": 88, "duration": 120, "velocity": 92}, {"time": 30238, "pitch": 100, "duration": 120, "velocity": 92}, {"time": 30599, "pitch": 87, "duration": 120, "velocity": 92}, {"time": 30599, "pitch": 99, "duration": 120, "velocity": 92}, {"time": 30960, "pitch": 95, "duration": 121, "velocity": 92}, {"time": 30960, "pitch": 107, "duration": 121, "velocity": 92}, {"time": 31201, "pitch": 92, "duration": 298, "velocity": 102}, {"time": 39600, "pitch": 99, "duration": 98, "velocity": 102}, {"time": 39721, "pitch": 97, "duration": 87, "velocity": 102}, {"time": 39841, "pitch": 95, "duration": 94, "velocity": 102}, {"time": 39961, "pitch": 90, "duration": 73, "velocity": 102}, {"time": 40082, "pitch": 87, "duration": 68, "velocity": 102}, {"time": 40202, "pitch": 85, "duration": 73, "velocity": 102}, {"time": 40323, "pitch": 83, "duration": 41, "velocity": 102}, {"time": 40441, "pitch": 78, "duration": 64, "velocity": 102}, {"time": 40560, "pitch": 75, "duration": 83, "velocity": 102}, {"time": 42001, "pitch": 88, "duration": 120, "velocity": 102}, {"time": 42001, "pitch": 100, "duration": 120, "velocity": 102}, {"time": 42242, "pitch": 87, "duration": 120, "velocity": 102}, {"time": 42242, "pitch": 99, "duration": 120, "velocity": 102}, {"time": 42489, "pitch": 100, "duration": 120, "velocity": 102}, {"time": 42492, "pitch": 88, "duration": 120, "velocity": 102}, {"time": 43920, "pitch": 88, "duration": 121, "velocity": 102}, {"time": 43920, "pitch": 100, "duration": 121, "velocity": 102}, {"time": 44161, "pitch": 87, "duration": 120, "velocity": 102}, {"time": 44161, "pitch": 99, "duration": 120, "velocity": 102}, {"time": 44408, "pitch": 100, "duration": 120, "velocity": 102}, {"time": 44411, "pitch": 88, "duration": 120, "velocity": 102}, {"time": 46803, "pitch": 88, "duration": 120, "velocity": 102}, {"time": 46803, "pitch": 100, "duration": 120, "velocity": 102}, {"time": 47044, "pitch": 87, "duration": 118, "velocity": 102}, {"time": 47044, "pitch": 99, "duration": 118, "velocity": 102}, {"time": 47286, "pitch": 100, "duration": 119, "velocity": 102}, {"time": 47289, "pitch": 88, "duration": 119, "velocity": 102}, {"time": 47518, "pitch": 88, "duration": 120, "velocity": 102}, {"time": 47518, "pitch": 100, "duration": 120, "velocity": 102}, {"time": 47638, "pitch": 87, "duration": 120, "velocity": 102}, {"time": 47638, "pitch": 99, "duration": 120, "velocity": 102}, {"time": 47758, "pitch": 83, "duration": 121, "velocity": 102}, {"time": 47758, "pitch": 95, "duration": 121, "velocity": 102}, {"time": 47879, "pitch": 85, "duration": 120, "velocity": 102}, {"time": 47879, "pitch": 97, "duration": 120, "velocity": 102}, {"time": 47999, "pitch": 80, "duration": 121, "velocity": 102}, {"time": 47999, "pitch": 92, "duration": 121, "velocity": 102}, {"time": 48120, "pitch": 78, "duration": 120, "velocity": 102}, {"time": 48120, "pitch": 90, "duration": 120, "velocity": 102}, {"time": 48240, "pitch": 76, "duration": 121, "velocity": 102}, {"time": 48240, "pitch": 88, "duration": 121, "velocity": 102}, {"time": 48361, "pitch": 75, "duration": 120, "velocity": 102}, {"time": 48361, "pitch": 87, "duration": 120, "velocity": 102}, {"time": 48963, "pitch": 80, "duration": 84, "velocity": 126}, {"time": 48963, "pitch": 92, "duration": 84, "velocity": 126}, {"time": 49081, "pitch": 78, "duration": 84, "velocity": 126}, {"time": 49081, "pitch": 90, "duration": 84, "velocity": 126}, {"time": 49200, "pitch": 76, "duration": 84, "velocity": 126}, {"time": 49200, "pitch": 88, "duration": 84, "velocity": 126}, {"time": 49318, "pitch": 75, "duration": 84, "velocity": 126}, {"time": 49318, "pitch": 87, "duration": 84, "velocity": 126}, {"time": 49437, "pitch": 76, "duration": 205, "velocity": 126}, {"time": 49437, "pitch": 88, "duration": 205, "velocity": 126}, {"time": 49678, "pitch": 83, "duration": 687, "velocity": 126}, {"time": 49678, "pitch": 95, "duration": 687, "velocity": 126}, {"time": 50882, "pitch": 80, "duration": 85, "velocity": 126}, {"time": 50882, "pitch": 92, "duration": 85, "velocity": 126}, {"time": 51002, "pitch": 78, "duration": 86, "velocity": 126}, {"time": 51002, "pitch": 90, "duration": 86, "velocity": 126}, {"time": 51123, "pitch": 76, "duration": 85, "velocity": 126}, {"time": 51123, "pitch": 88, "duration": 85, "velocity": 126}, {"time": 51243, "pitch": 75, "duration": 86, "velocity": 126}, {"time": 51243, "pitch": 87, "duration": 86, "velocity": 126}, {"time": 51364, "pitch": 76, "duration": 202, "velocity": 126}, {"time": 51364, "pitch": 88, "duration": 202, "velocity": 126}, {"time": 51601, "pitch": 83, "duration": 683, "velocity": 126}, {"time": 51601, "pitch": 95, "duration": 683, "velocity": 126}, {"time": 55202, "pitch": 88, "duration": 120, "velocity": 102}, {"time": 55202, "pitch": 100, "duration": 120, "velocity": 102}, {"time": 55322, "pitch": 87, "duration": 121, "velocity": 102}, {"time": 55322, "pitch": 99, "duration": 121, "velocity": 102}, {"time": 55443, "pitch": 83, "duration": 120, "velocity": 102}, {"time": 55443, "pitch": 95, "duration": 120, "velocity": 102}, {"time": 55563, "pitch": 85, "duration": 121, "velocity": 102}, {"time": 55563, "pitch": 97, "duration": 121, "velocity": 102}, {"time": 55684, "pitch": 80, "duration": 118, "velocity": 102}, {"time": 55684, "pitch": 92, "duration": 118, "velocity": 102}, {"time": 55802, "pitch": 78, "duration": 119, "velocity": 102}, {"time": 55802, "pitch": 90, "duration": 119, "velocity": 102}, {"time": 55921, "pitch": 76, "duration": 118, "velocity": 102}, {"time": 55921, "pitch": 88, "duration": 118, "velocity": 102}, {"time": 56039, "pitch": 75, "duration": 119, "velocity": 102}, {"time": 56039, "pitch": 87, "duration": 119, "velocity": 102}, {"time": 57362, "pitch": 88, "duration": 120, "velocity": 102}, {"time": 57362, "pitch": 100, "duration": 120, "velocity": 102}, {"time": 57603, "pitch": 87, "duration": 118, "velocity": 102}, {"time": 57603, "pitch": 99, "duration": 118, "velocity": 102}, {"time": 57846, "pitch": 100, "duration": 118, "velocity": 102}, {"time": 57849, "pitch": 88, "duration": 118, "velocity": 102}, {"time": 59281, "pitch": 88, "duration": 120, "velocity": 102}, {"time": 59281, "pitch": 100, "duration": 120, "velocity": 102}, {"time": 59522, "pitch": 87, "duration": 120, "velocity": 102}, {"time": 59522, "pitch": 99, "duration": 120, "velocity": 102}, {"time": 59769, "pitch": 100, "duration": 120, "velocity": 102}, {"time": 59772, "pitch": 88, "duration": 120, "velocity": 102}, {"time": 62160, "pitch": 88, "duration": 118, "velocity": 102}, {"time": 62160, "pitch": 100, "duration": 118, "velocity": 102}, {"time": 62397, "pitch": 87, "duration": 120, "velocity": 102}, {"time": 62397, "pitch": 99, "duration": 120, "velocity": 102}, {"time": 62644, "pitch": 100, "duration": 120, "velocity": 102}, {"time": 62647, "pitch": 88, "duration": 120, "velocity": 102}, {"time": 62878, "pitch": 88, "duration": 121, "velocity": 102}, {"time": 62878, "pitch": 100, "duration": 121, "velocity": 102}, {"time": 62999, "pitch": 87, "duration": 120, "velocity": 102}, {"time": 62999, "pitch": 99, "duration": 120, "velocity": 102}, {"time": 63119, "pitch": 83, "duration": 121, "velocity": 102}, {"time": 63119, "pitch": 95, "duration": 121, "velocity": 102}, {"time": 63240, "pitch": 85, "duration": 120, "velocity": 102}, {"time": 63240, "pitch": 97, "duration": 120, "velocity": 102}, {"time": 63360, "pitch": 80, "duration": 121, "velocity": 102}, {"time": 63360, "pitch": 92, "duration": 121, "velocity": 102}, {"time": 63481, "pitch": 78, "duration": 120, "velocity": 102}, {"time": 63481, "pitch": 90, "duration": 120, "velocity": 102}, {"time": 63601, "pitch": 76, "duration": 121, "velocity": 102}, {"time": 63601, "pitch": 88, "duration": 121, "velocity": 102}, {"time": 63722, "pitch": 75, "duration": 120, "velocity": 102}, {"time": 63722, "pitch": 87, "duration": 120, "velocity": 102}, {"time": 64324, "pitch": 80, "duration": 84, "velocity": 126}, {"time": 64324, "pitch": 92, "duration": 84, "velocity": 126}, {"time": 64442, "pitch": 78, "duration": 84, "velocity": 126}, {"time": 64442, "pitch": 90, "duration": 84, "velocity": 126}, {"time": 64561, "pitch": 76, "duration": 84, "velocity": 126}, {"time": 64561, "pitch": 88, "duration": 84, "velocity": 126}, {"time": 64679, "pitch": 75, "duration": 84, "velocity": 126}, {"time": 64679, "pitch": 87, "duration": 84, "velocity": 126}, {"time": 64798, "pitch": 76, "duration": 205, "velocity": 126}, {"time": 64798, "pitch": 88, "duration": 205, "velocity": 126}, {"time": 65038, "pitch": 83, "duration": 688, "velocity": 126}, {"time": 65038, "pitch": 95, "duration": 688, "velocity": 126}, {"time": 66243, "pitch": 80, "duration": 84, "velocity": 126}, {"time": 66243, "pitch": 92, "duration": 84, "velocity": 126}, {"time": 66361, "pitch": 78, "duration": 84, "velocity": 126}, {"time": 66361, "pitch": 90, "duration": 84, "velocity": 126}, {"time": 66480, "pitch": 76, "duration": 84, "velocity": 126}, {"time": 66480, "pitch": 88, "duration": 84, "velocity": 126}, {"time": 66598, "pitch": 75, "duration": 84, "velocity": 126}, {"time": 66598, "pitch": 87, "duration": 84, "velocity": 126}, {"time": 66717, "pitch": 76, "duration": 205, "velocity": 126}, {"time": 66717, "pitch": 88, "duration": 205, "velocity": 126}, {"time": 66958, "pitch": 83, "duration": 687, "velocity": 126}, {"time": 66958, "pitch": 95, "duration": 687, "velocity": 126}, {"time": 69599, "pitch": 88, "duration": 380, "velocity": 96}, {"time": 69599, "pitch": 92, "duration": 368, "velocity": 107}, {"time": 70081, "pitch": 87, "duration": 268, "velocity": 107}, {"time": 70081, "pitch": 90, "duration": 250, "velocity": 104}, {"time": 70442, "pitch": 85, "duration": 133, "velocity": 68}, {"time": 70442, "pitch": 88, "duration": 107, "velocity": 82}, {"time": 70681, "pitch": 85, "duration": 126, "velocity": 47}, {"time": 70681, "pitch": 88, "duration": 106, "velocity": 94}, {"time": 70918, "pitch": 87, "duration": 34, "velocity": 107}, {"time": 70918, "pitch": 90, "duration": 26, "velocity": 66}, {"time": 71037, "pitch": 87, "duration": 378, "velocity": 107}, {"time": 71037, "pitch": 90, "duration": 380, "velocity": 89}, {"time": 71518, "pitch": 88, "duration": 397, "velocity": 97}, {"time": 71518, "pitch": 92, "duration": 384, "velocity": 107}, {"time": 72000, "pitch": 87, "duration": 276, "velocity": 103}, {"time": 72000, "pitch": 90, "duration": 252, "velocity": 90}, {"time": 72362, "pitch": 85, "duration": 117, "velocity": 66}, {"time": 72362, "pitch": 88, "duration": 57, "velocity": 93}, {"time": 72602, "pitch": 85, "duration": 112, "velocity": 67}, {"time": 72602, "pitch": 88, "duration": 115, "velocity": 97}, {"time": 72843, "pitch": 87, "duration": 28, "velocity": 98}, {"time": 72843, "pitch": 90, "duration": 25, "velocity": 90}, {"time": 72964, "pitch": 87, "duration": 389, "velocity": 101}, {"time": 72964, "pitch": 90, "duration": 379, "velocity": 93}, {"time": 73438, "pitch": 88, "duration": 364, "velocity": 107}, {"time": 73438, "pitch": 92, "duration": 352, "velocity": 107}, {"time": 73919, "pitch": 87, "duration": 250, "velocity": 107}, {"time": 73919, "pitch": 90, "duration": 235, "velocity": 93}, {"time": 74281, "pitch": 85, "duration": 126, "velocity": 68}, {"time": 74281, "pitch": 88, "duration": 105, "velocity": 86}, {"time": 74522, "pitch": 85, "duration": 117, "velocity": 67}, {"time": 74522, "pitch": 88, "duration": 116, "velocity": 90}, {"time": 74762, "pitch": 87, "duration": 27, "velocity": 105}, {"time": 74762, "pitch": 90, "duration": 27, "velocity": 80}, {"time": 74883, "pitch": 87, "duration": 375, "velocity": 107}, {"time": 74883, "pitch": 90, "duration": 366, "velocity": 101}, {"time": 75357, "pitch": 88, "duration": 360, "velocity": 98}, {"time": 75357, "pitch": 92, "duration": 342, "velocity": 91}, {"time": 75838, "pitch": 87, "duration": 244, "velocity": 94}, {"time": 75838, "pitch": 90, "duration": 230, "velocity": 84}, {"time": 76200, "pitch": 85, "duration": 134, "velocity": 67}, {"time": 76200, "pitch": 88, "duration": 110, "velocity": 89}, {"time": 76441, "pitch": 85, "duration": 115, "velocity": 52}, {"time": 76441, "pitch": 88, "duration": 103, "velocity": 92}, {"time": 76682, "pitch": 87, "duration": 26, "velocity": 105}, {"time": 76682, "pitch": 90, "duration": 27, "velocity": 81}, {"time": 76802, "pitch": 87, "duration": 295, "velocity": 99}, {"time": 76802, "pitch": 90, "duration": 299, "velocity": 86}, {"time": 77521, "pitch": 104, "duration": 75, "velocity": 122}, {"time": 77758, "pitch": 102, "duration": 82, "velocity": 122}, {"time": 77998, "pitch": 100, "duration": 82, "velocity": 122}, {"time": 78239, "pitch": 99, "duration": 360, "velocity": 122}, {"time": 78721, "pitch": 100, "duration": 124, "velocity": 122}, {"time": 87843, "pitch": 88, "duration": 118, "velocity": 92}, {"time": 87843, "pitch": 100, "duration": 118, "velocity": 92}, {"time": 88198, "pitch": 87, "duration": 119, "velocity": 92}, {"time": 88198, "pitch": 99, "duration": 119, "velocity": 92}, {"time": 88558, "pitch": 95, "duration": 120, "velocity": 92}, {"time": 88558, "pitch": 107, "duration": 120, "velocity": 92}, {"time": 88799, "pitch": 92, "duration": 298, "velocity": 92}, {"time": 95519, "pitch": 88, "duration": 121, "velocity": 92}, {"time": 95519, "pitch": 100, "duration": 121, "velocity": 92}, {"time": 95881, "pitch": 87, "duration": 120, "velocity": 92}, {"time": 95881, "pitch": 99, "duration": 120, "velocity": 92}, {"time": 96242, "pitch": 95, "duration": 120, "velocity": 92}, {"time": 96242, "pitch": 107, "duration": 120, "velocity": 92}, {"time": 96483, "pitch": 92, "duration": 293, "velocity": 102}, {"time": 104882, "pitch": 99, "duration": 98, "velocity": 102}, {"time": 105002, "pitch": 97, "duration": 88, "velocity": 102}, {"time": 105123, "pitch": 95, "duration": 93, "velocity": 102}, {"time": 105241, "pitch": 90, "duration": 71, "velocity": 102}, {"time": 105360, "pitch": 87, "duration": 67, "velocity": 102}, {"time": 105478, "pitch": 85, "duration": 71, "velocity": 102}, {"time": 105597, "pitch": 83, "duration": 42, "velocity": 102}, {"time": 105717, "pitch": 78, "duration": 65, "velocity": 102}, {"time": 105838, "pitch": 75, "duration": 84, "velocity": 102}, {"time": 107283, "pitch": 88, "duration": 120, "velocity": 102}, {"time": 107283, "pitch": 100, "duration": 120, "velocity": 102}, {"time": 107524, "pitch": 87, "duration": 118, "velocity": 102}, {"time": 107524, "pitch": 99, "duration": 118, "velocity": 102}, {"time": 107767, "pitch": 100, "duration": 118, "velocity": 102}, {"time": 107770, "pitch": 88, "duration": 118, "velocity": 102}, {"time": 109202, "pitch": 88, "duration": 121, "velocity": 102}, {"time": 109202, "pitch": 100, "duration": 121, "velocity": 102}, {"time": 109443, "pitch": 87, "duration": 118, "velocity": 102}, {"time": 109443, "pitch": 99, "duration": 118, "velocity": 102}, {"time": 109686, "pitch": 100, "duration": 118, "velocity": 102}, {"time": 109689, "pitch": 88, "duration": 118, "velocity": 102}, {"time": 112081, "pitch": 88, "duration": 118, "velocity": 102}, {"time": 112081, "pitch": 100, "duration": 118, "velocity": 102}, {"time": 112318, "pitch": 87, "duration": 120, "velocity": 102}, {"time": 112318, "pitch": 99, "duration": 120, "velocity": 102}, {"time": 112565, "pitch": 100, "duration": 120, "velocity": 102}, {"time": 112568, "pitch": 88, "duration": 120, "velocity": 102}, {"time": 112799, "pitch": 88, "duration": 121, "velocity": 102}, {"time": 112799, "pitch": 100, "duration": 121, "velocity": 102}, {"time": 112920, "pitch": 87, "duration": 120, "velocity": 102}, {"time": 112920, "pitch": 99, "duration": 120, "velocity": 102}, {"time": 113040, "pitch": 83, "duration": 121, "velocity": 102}, {"time": 113040, "pitch": 95, "duration": 121, "velocity": 102}, {"time": 113161, "pitch": 85, "duration": 120, "velocity": 102}, {"time": 113161, "pitch": 97, "duration": 120, "velocity": 102}, {"time": 113281, "pitch": 80, "duration": 121, "velocity": 102}, {"time": 113281, "pitch": 92, "duration": 121, "velocity": 102}, {"time": 113402, "pitch": 78, "duration": 120, "velocity": 102}, {"time": 113402, "pitch": 90, "duration": 120, "velocity": 102}, {"time": 113522, "pitch": 76, "duration": 121, "velocity": 102}, {"time": 113522, "pitch": 88, "duration": 121, "velocity": 102}, {"time": 113643, "pitch": 75, "duration": 120, "velocity": 102}, {"time": 113643, "pitch": 87, "duration": 120, "velocity": 102}, {"time": 114237, "pitch": 80, "duration": 85, "velocity": 126}, {"time": 114237, "pitch": 92, "duration": 85, "velocity": 126}, {"time": 114357, "pitch": 78, "duration": 86, "velocity": 126}, {"time": 114357, "pitch": 90, "duration": 86, "velocity": 126}, {"time": 114478, "pitch": 76, "duration": 85, "velocity": 126}, {"time": 114478, "pitch": 88, "duration": 85, "velocity": 126}, {"time": 114598, "pitch": 75, "duration": 85, "velocity": 126}, {"time": 114598, "pitch": 87, "duration": 85, "velocity": 126}, {"time": 114719, "pitch": 76, "duration": 205, "velocity": 126}, {"time": 114719, "pitch": 88, "duration": 205, "velocity": 126}, {"time": 114959, "pitch": 83, "duration": 688, "velocity": 126}, {"time": 114959, "pitch": 95, "duration": 688, "velocity": 126}, {"time": 116164, "pitch": 80, "duration": 84, "velocity": 126}, {"time": 116164, "pitch": 92, "duration": 84, "velocity": 126}, {"time": 116282, "pitch": 78, "duration": 84, "velocity": 126}, {"time": 116282, "pitch": 90, "duration": 84, "velocity": 126}, {"time": 116401, "pitch": 76, "duration": 84, "velocity": 126}, {"time": 116401, "pitch": 88, "duration": 84, "velocity": 126}, {"time": 116519, "pitch": 75, "duration": 84, "velocity": 126}, {"time": 116519, "pitch": 87, "duration": 84, "velocity": 126}, {"time": 116638, "pitch": 76, "duration": 205, "velocity": 126}, {"time": 116638, "pitch": 88, "duration": 205, "velocity": 126}, {"time": 116879, "pitch": 83, "duration": 687, "velocity": 126}, {"time": 116879, "pitch": 95, "duration": 687, "velocity": 126}, {"time": 120484, "pitch": 88, "duration": 118, "velocity": 102}, {"time": 120484, "pitch": 100, "duration": 118, "velocity": 102}, {"time": 120602, "pitch": 87, "duration": 119, "velocity": 102}, {"time": 120602, "pitch": 99, "duration": 119, "velocity": 102}, {"time": 120721, "pitch": 83, "duration": 118, "velocity": 102}, {"time": 120721, "pitch": 95, "duration": 118, "velocity": 102}, {"time": 120839, "pitch": 85, "duration": 119, "velocity": 102}, {"time": 120839, "pitch": 97, "duration": 119, "velocity": 102}, {"time": 120958, "pitch": 80, "duration": 120, "velocity": 102}, {"time": 120958, "pitch": 92, "duration": 120, "velocity": 102}, {"time": 121078, "pitch": 78, "duration": 121, "velocity": 102}, {"time": 121078, "pitch": 90, "duration": 121, "velocity": 102}, {"time": 121199, "pitch": 76, "duration": 120, "velocity": 102}, {"time": 121199, "pitch": 88, "duration": 120, "velocity": 102}, {"time": 121319, "pitch": 75, "duration": 120, "velocity": 102}, {"time": 121319, "pitch": 87, "duration": 120, "velocity": 102}, {"time": 122640, "pitch": 88, "duration": 118, "velocity": 102}, {"time": 122640, "pitch": 100, "duration": 118, "velocity": 102}, {"time": 122877, "pitch": 87, "duration": 120, "velocity": 102}, {"time": 122877, "pitch": 99, "duration": 120, "velocity": 102}, {"time": 123124, "pitch": 100, "duration": 120, "velocity": 102}, {"time": 123127, "pitch": 88, "duration": 120, "velocity": 102}, {"time": 124563, "pitch": 88, "duration": 120, "velocity": 102}, {"time": 124563, "pitch": 100, "duration": 120, "velocity": 102}, {"time": 124804, "pitch": 87, "duration": 118, "velocity": 102}, {"time": 124804, "pitch": 99, "duration": 118, "velocity": 102}, {"time": 125047, "pitch": 100, "duration": 118, "velocity": 102}, {"time": 125050, "pitch": 88, "duration": 118, "velocity": 102}, {"time": 127438, "pitch": 88, "duration": 120, "velocity": 102}, {"time": 127438, "pitch": 100, "duration": 120, "velocity": 102}, {"time": 127679, "pitch": 87, "duration": 120, "velocity": 102}, {"time": 127679, "pitch": 99, "duration": 120, "velocity": 102}, {"time": 127926, "pitch": 100, "duration": 120, "velocity": 102}, {"time": 127929, "pitch": 88, "duration": 120, "velocity": 102}, {"time": 128160, "pitch": 88, "duration": 121, "velocity": 102}, {"time": 128160, "pitch": 100, "duration": 121, "velocity": 102}, {"time": 128281, "pitch": 87, "duration": 120, "velocity": 102}, {"time": 128281, "pitch": 99, "duration": 120, "velocity": 102}, {"time": 128401, "pitch": 83, "duration": 121, "velocity": 102}, {"time": 128401, "pitch": 95, "duration": 121, "velocity": 102}, {"time": 128522, "pitch": 85, "duration": 120, "velocity": 102}, {"time": 128522, "pitch": 97, "duration": 120, "velocity": 102}, {"time": 128642, "pitch": 80, "duration": 121, "velocity": 102}, {"time": 128642, "pitch": 92, "duration": 121, "velocity": 102}, {"time": 128763, "pitch": 78, "duration": 120, "velocity": 102}, {"time": 128763, "pitch": 90, "duration": 120, "velocity": 102}, {"time": 128883, "pitch": 76, "duration": 120, "velocity": 102}, {"time": 128883, "pitch": 88, "duration": 120, "velocity": 102}, {"time": 129003, "pitch": 75, "duration": 121, "velocity": 102}, {"time": 129003, "pitch": 87, "duration": 121, "velocity": 102}, {"time": 129598, "pitch": 80, "duration": 85, "velocity": 126}, {"time": 129598, "pitch": 92, "duration": 85, "velocity": 126}, {"time": 129718, "pitch": 78, "duration": 86, "velocity": 126}, {"time": 129718, "pitch": 90, "duration": 86, "velocity": 126}, {"time": 129839, "pitch": 76, "duration": 85, "velocity": 126}, {"time": 129839, "pitch": 88, "duration": 85, "velocity": 126}, {"time": 129959, "pitch": 75, "duration": 85, "velocity": 126}, {"time": 129959, "pitch": 87, "duration": 85, "velocity": 126}, {"time": 130080, "pitch": 76, "duration": 205, "velocity": 126}, {"time": 130080, "pitch": 88, "duration": 205, "velocity": 126}, {"time": 130320, "pitch": 83, "duration": 688, "velocity": 126}, {"time": 130320, "pitch": 95, "duration": 688, "velocity": 126}, {"time": 131517, "pitch": 80, "duration": 85, "velocity": 126}, {"time": 131517, "pitch": 92, "duration": 85, "velocity": 126}, {"time": 131637, "pitch": 78, "duration": 86, "velocity": 126}, {"time": 131637, "pitch": 90, "duration": 86, "velocity": 126}, {"time": 131758, "pitch": 76, "duration": 85, "velocity": 126}, {"time": 131758, "pitch": 88, "duration": 85, "velocity": 126}, {"time": 131878, "pitch": 75, "duration": 86, "velocity": 126}, {"time": 131878, "pitch": 87, "duration": 86, "velocity": 126}, {"time": 131999, "pitch": 76, "duration": 205, "velocity": 126}, {"time": 131999, "pitch": 88, "duration": 205, "velocity": 126}, {"time": 132240, "pitch": 83, "duration": 687, "velocity": 126}, {"time": 132240, "pitch": 95, "duration": 687, "velocity": 126}, {"time": 135363, "pitch": 97, "duration": 60, "velocity": 112}, {"time": 135481, "pitch": 99, "duration": 62, "velocity": 112}, {"time": 135600, "pitch": 100, "duration": 59, "velocity": 112}, {"time": 135718, "pitch": 99, "duration": 106, "velocity": 112}, {"time": 135957, "pitch": 95, "duration": 66, "velocity": 112}, {"time": 136198, "pitch": 95, "duration": 74, "velocity": 112}, {"time": 136439, "pitch": 99, "duration": 70, "velocity": 112}, {"time": 136800, "pitch": 99, "duration": 87, "velocity": 112}, {"time": 137162, "pitch": 100, "duration": 86, "velocity": 112}, {"time": 137523, "pitch": 97, "duration": 68, "velocity": 112}, {"time": 139201, "pitch": 97, "duration": 54, "velocity": 112}, {"time": 139322, "pitch": 99, "duration": 56, "velocity": 112}, {"time": 139442, "pitch": 100, "duration": 65, "velocity": 112}, {"time": 139563, "pitch": 99, "duration": 92, "velocity": 112}, {"time": 139801, "pitch": 95, "duration": 55, "velocity": 112}, {"time": 140038, "pitch": 95, "duration": 60, "velocity": 112}, {"time": 140277, "pitch": 92, "duration": 73, "velocity": 112}, {"time": 140639, "pitch": 90, "duration": 218, "velocity": 112}, {"time": 141000, "pitch": 92, "duration": 130, "velocity": 112}, {"time": 143040, "pitch": 97, "duration": 53, "velocity": 112}, {"time": 143160, "pitch": 99, "duration": 65, "velocity": 112}, {"time": 143280, "pitch": 100, "duration": 57, "velocity": 112}, {"time": 143401, "pitch": 99, "duration": 95, "velocity": 112}, {"time": 143642, "pitch": 95, "duration": 62, "velocity": 112}, {"time": 143883, "pitch": 95, "duration": 74, "velocity": 112}, {"time": 144121, "pitch": 99, "duration": 48, "velocity": 112}, {"time": 144477, "pitch": 99, "duration": 82, "velocity": 112}, {"time": 144838, "pitch": 100, "duration": 62, "velocity": 112}, {"time": 145200, "pitch": 97, "duration": 73, "velocity": 112}, {"time": 146878, "pitch": 97, "duration": 59, "velocity": 112}, {"time": 146998, "pitch": 99, "duration": 65, "velocity": 112}, {"time": 147119, "pitch": 100, "duration": 66, "velocity": 112}, {"time": 147239, "pitch": 102, "duration": 71, "velocity": 112}, {"time": 147480, "pitch": 107, "duration": 54, "velocity": 112}, {"time": 147721, "pitch": 102, "duration": 76, "velocity": 112}, {"time": 147962, "pitch": 99, "duration": 81, "velocity": 112}, {"time": 148203, "pitch": 97, "duration": 65, "velocity": 112}, {"time": 150242, "pitch": 83, "duration": 74, "velocity": 122}, {"time": 150361, "pitch": 88, "duration": 74, "velocity": 122}, {"time": 150479, "pitch": 90, "duration": 74, "velocity": 122}, {"time": 150598, "pitch": 83, "duration": 74, "velocity": 122}, {"time": 150716, "pitch": 95, "duration": 75, "velocity": 122}, {"time": 150837, "pitch": 83, "duration": 75, "velocity": 122}, {"time": 150957, "pitch": 88, "duration": 75, "velocity": 122}, {"time": 151077, "pitch": 90, "duration": 76, "velocity": 122}, {"time": 151198, "pitch": 83, "duration": 75, "velocity": 122}, {"time": 151318, "pitch": 88, "duration": 76, "velocity": 122}, {"time": 151439, "pitch": 90, "duration": 75, "velocity": 122}, {"time": 151559, "pitch": 83, "duration": 75, "velocity": 122}, {"time": 151680, "pitch": 95, "duration": 75, "velocity": 122}, {"time": 152880, "pitch": 87, "duration": 97, "velocity": 122}, {"time": 152999, "pitch": 85, "duration": 85, "velocity": 122}, {"time": 153117, "pitch": 83, "duration": 94, "velocity": 122}, {"time": 153237, "pitch": 78, "duration": 73, "velocity": 122}, {"time": 153358, "pitch": 75, "duration": 68, "velocity": 122}, {"time": 153478, "pitch": 73, "duration": 73, "velocity": 122}, {"time": 153599, "pitch": 71, "duration": 42, "velocity": 122}, {"time": 153719, "pitch": 66, "duration": 65, "velocity": 122}, {"time": 153840, "pitch": 63, "duration": 84, "velocity": 122}, {"time": 155277, "pitch": 88, "duration": 120, "velocity": 122}, {"time": 155277, "pitch": 100, "duration": 120, "velocity": 122}, {"time": 155518, "pitch": 87, "duration": 120, "velocity": 122}, {"time": 155518, "pitch": 99, "duration": 120, "velocity": 122}, {"time": 155765, "pitch": 100, "duration": 120, "velocity": 122}, {"time": 155768, "pitch": 88, "duration": 120, "velocity": 122}, {"time": 157200, "pitch": 88, "duration": 119, "velocity": 102}, {"time": 157200, "pitch": 100, "duration": 119, "velocity": 102}, {"time": 157437, "pitch": 87, "duration": 120, "velocity": 102}, {"time": 157437, "pitch": 99, "duration": 120, "velocity": 102}, {"time": 157684, "pitch": 100, "duration": 120, "velocity": 102}, {"time": 157687, "pitch": 88, "duration": 120, "velocity": 102}, {"time": 160079, "pitch": 88, "duration": 120, "velocity": 102}, {"time": 160079, "pitch": 100, "duration": 120, "velocity": 102}, {"time": 160320, "pitch": 87, "duration": 120, "velocity": 102}, {"time": 160320, "pitch": 99, "duration": 120, "velocity": 102}, {"time": 160566, "pitch": 100, "duration": 121, "velocity": 102}, {"time": 160570, "pitch": 88, "duration": 120, "velocity": 102}, {"time": 160801, "pitch": 88, "duration": 121, "velocity": 102}, {"time": 160801, "pitch": 100, "duration": 121, "velocity": 102}, {"time": 160922, "pitch": 87, "duration": 120, "velocity": 102}, {"time": 160922, "pitch": 99, "duration": 120, "velocity": 102}, {"time": 161042, "pitch": 83, "duration": 121, "velocity": 102}, {"time": 161042, "pitch": 95, "duration": 121, "velocity": 102}, {"time": 161163, "pitch": 85, "duration": 120, "velocity": 102}, {"time": 161163, "pitch": 97, "duration": 120, "velocity": 102}, {"time": 161283, "pitch": 80, "duration": 119, "velocity": 102}, {"time": 161283, "pitch": 92, "duration": 119, "velocity": 102}, {"time": 161402, "pitch": 78, "duration": 118, "velocity": 102}, {"time": 161402, "pitch": 90, "duration": 118, "velocity": 102}, {"time": 161520, "pitch": 76, "duration": 119, "velocity": 102}, {"time": 161520, "pitch": 88, "duration": 119, "velocity": 102}, {"time": 161639, "pitch": 75, "duration": 118, "velocity": 102}, {"time": 161639, "pitch": 87, "duration": 118, "velocity": 102}, {"time": 162239, "pitch": 80, "duration": 85, "velocity": 126}, {"time": 162239, "pitch": 92, "duration": 85, "velocity": 126}, {"time": 162359, "pitch": 78, "duration": 85, "velocity": 126}, {"time": 162359, "pitch": 90, "duration": 85, "velocity": 126}, {"time": 162480, "pitch": 76, "duration": 85, "velocity": 126}, {"time": 162480, "pitch": 88, "duration": 85, "velocity": 126}, {"time": 162600, "pitch": 75, "duration": 85, "velocity": 126}, {"time": 162600, "pitch": 87, "duration": 85, "velocity": 126}, {"time": 162720, "pitch": 76, "duration": 206, "velocity": 126}, {"time": 162720, "pitch": 88, "duration": 206, "velocity": 126}, {"time": 162961, "pitch": 83, "duration": 681, "velocity": 126}, {"time": 162961, "pitch": 95, "duration": 681, "velocity": 126}, {"time": 164158, "pitch": 80, "duration": 85, "velocity": 126}, {"time": 164158, "pitch": 92, "duration": 85, "velocity": 126}, {"time": 164278, "pitch": 78, "duration": 86, "velocity": 126}, {"time": 164278, "pitch": 90, "duration": 86, "velocity": 126}, {"time": 164399, "pitch": 76, "duration": 85, "velocity": 126}, {"time": 164399, "pitch": 88, "duration": 85, "velocity": 126}, {"time": 164519, "pitch": 75, "duration": 85, "velocity": 126}, {"time": 164519, "pitch": 87, "duration": 85, "velocity": 126}, {"time": 164640, "pitch": 76, "duration": 205, "velocity": 126}, {"time": 164640, "pitch": 88, "duration": 205, "velocity": 126}, {"time": 164880, "pitch": 83, "duration": 688, "velocity": 126}, {"time": 164880, "pitch": 95, "duration": 688, "velocity": 126}, {"time": 168478, "pitch": 88, "duration": 120, "velocity": 102}, {"time": 168478, "pitch": 100, "duration": 120, "velocity": 102}, {"time": 168598, "pitch": 87, "duration": 121, "velocity": 102}, {"time": 168598, "pitch": 99, "duration": 121, "velocity": 102}, {"time": 168719, "pitch": 83, "duration": 120, "velocity": 102}, {"time": 168719, "pitch": 95, "duration": 120, "velocity": 102}, {"time": 168839, "pitch": 85, "duration": 121, "velocity": 102}, {"time": 168839, "pitch": 97, "duration": 121, "velocity": 102}, {"time": 168960, "pitch": 80, "duration": 120, "velocity": 102}, {"time": 168960, "pitch": 92, "duration": 120, "velocity": 102}, {"time": 169080, "pitch": 78, "duration": 120, "velocity": 102}, {"time": 169080, "pitch": 90, "duration": 120, "velocity": 102}, {"time": 169200, "pitch": 76, "duration": 121, "velocity": 102}, {"time": 169200, "pitch": 88, "duration": 121, "velocity": 102}, {"time": 169321, "pitch": 75, "duration": 120, "velocity": 102}, {"time": 169321, "pitch": 87, "duration": 120, "velocity": 102}, {"time": 170638, "pitch": 88, "duration": 120, "velocity": 102}, {"time": 170638, "pitch": 100, "duration": 120, "velocity": 102}, {"time": 170879, "pitch": 87, "duration": 120, "velocity": 102}, {"time": 170879, "pitch": 99, "duration": 120, "velocity": 102}, {"time": 171126, "pitch": 100, "duration": 120, "velocity": 102}, {"time": 171129, "pitch": 88, "duration": 120, "velocity": 102}, {"time": 172557, "pitch": 88, "duration": 120, "velocity": 102}, {"time": 172557, "pitch": 100, "duration": 120, "velocity": 102}, {"time": 172798, "pitch": 87, "duration": 120, "velocity": 102}, {"time": 172798, "pitch": 99, "duration": 120, "velocity": 102}, {"time": 173045, "pitch": 100, "duration": 120, "velocity": 102}, {"time": 173048, "pitch": 88, "duration": 120, "velocity": 102}, {"time": 175440, "pitch": 88, "duration": 120, "velocity": 102}, {"time": 175440, "pitch": 100, "duration": 120, "velocity": 102}, {"time": 175681, "pitch": 87, "duration": 120, "velocity": 102}, {"time": 175681, "pitch": 99, "duration": 120, "velocity": 102}, {"time": 175927, "pitch": 100, "duration": 121, "velocity": 102}, {"time": 175930, "pitch": 88, "duration": 121, "velocity": 102}, {"time": 176162, "pitch": 88, "duration": 119, "velocity": 102}, {"time": 176162, "pitch": 100, "duration": 119, "velocity": 102}, {"time": 176281, "pitch": 87, "duration": 118, "velocity": 102}, {"time": 176281, "pitch": 99, "duration": 118, "velocity": 102}, {"time": 176399, "pitch": 83, "duration": 119, "velocity": 102}, {"time": 176399, "pitch": 95, "duration": 119, "velocity": 102}, {"time": 176518, "pitch": 85, "duration": 118, "velocity": 102}, {"time": 176518, "pitch": 97, "duration": 118, "velocity": 102}, {"time": 176636, "pitch": 80, "duration": 121, "velocity": 102}, {"time": 176636, "pitch": 92, "duration": 121, "velocity": 102}, {"time": 176757, "pitch": 78, "duration": 120, "velocity": 102}, {"time": 176757, "pitch": 90, "duration": 120, "velocity": 102}, {"time": 176877, "pitch": 76, "duration": 120, "velocity": 102}, {"time": 176877, "pitch": 88, "duration": 120, "velocity": 102}, {"time": 176997, "pitch": 75, "duration": 121, "velocity": 102}, {"time": 176997, "pitch": 87, "duration": 121, "velocity": 102}, {"time": 177600, "pitch": 80, "duration": 85, "velocity": 126}, {"time": 177600, "pitch": 92, "duration": 85, "velocity": 126}, {"time": 177720, "pitch": 78, "duration": 85, "velocity": 126}, {"time": 177720, "pitch": 90, "duration": 85, "velocity": 126}, {"time": 177841, "pitch": 76, "duration": 85, "velocity": 126}, {"time": 177841, "pitch": 88, "duration": 85, "velocity": 126}, {"time": 177961, "pitch": 75, "duration": 85, "velocity": 126}, {"time": 177961, "pitch": 87, "duration": 85, "velocity": 126}, {"time": 178081, "pitch": 76, "duration": 206, "velocity": 126}, {"time": 178081, "pitch": 88, "duration": 206, "velocity": 126}, {"time": 178322, "pitch": 83, "duration": 681, "velocity": 126}, {"time": 178322, "pitch": 95, "duration": 681, "velocity": 126}, {"time": 179519, "pitch": 80, "duration": 85, "velocity": 126}, {"time": 179519, "pitch": 92, "duration": 85, "velocity": 126}, {"time": 179639, "pitch": 78, "duration": 86, "velocity": 126}, {"time": 179639, "pitch": 90, "duration": 86, "velocity": 126}, {"time": 179760, "pitch": 76, "duration": 85, "velocity": 126}, {"time": 179760, "pitch": 88, "duration": 85, "velocity": 126}, {"time": 179880, "pitch": 75, "duration": 85, "velocity": 126}, {"time": 179880, "pitch": 87, "duration": 85, "velocity": 126}, {"time": 180001, "pitch": 76, "duration": 205, "velocity": 126}, {"time": 180001, "pitch": 88, "duration": 205, "velocity": 126}, {"time": 180241, "pitch": 83, "duration": 681, "velocity": 126}, {"time": 180241, "pitch": 95, "duration": 681, "velocity": 126}, {"time": 182883, "pitch": 83, "duration": 74, "velocity": 97}, {"time": 183002, "pitch": 88, "duration": 74, "velocity": 97}, {"time": 183120, "pitch": 90, "duration": 74, "velocity": 97}, {"time": 183239, "pitch": 83, "duration": 74, "velocity": 97}, {"time": 183477, "pitch": 83, "duration": 76, "velocity": 97}, {"time": 183598, "pitch": 88, "duration": 75, "velocity": 97}, {"time": 183718, "pitch": 90, "duration": 76, "velocity": 97}, {"time": 183839, "pitch": 83, "duration": 75, "velocity": 97}, {"time": 183959, "pitch": 88, "duration": 76, "velocity": 97}, {"time": 184080, "pitch": 90, "duration": 75, "velocity": 97}, {"time": 184200, "pitch": 83, "duration": 75, "velocity": 97}, {"time": 184441, "pitch": 83, "duration": 75, "velocity": 97}, {"time": 184561, "pitch": 88, "duration": 76, "velocity": 97}, {"time": 184682, "pitch": 90, "duration": 75, "velocity": 97}, {"time": 184802, "pitch": 83, "duration": 74, "velocity": 97}, {"time": 184921, "pitch": 88, "duration": 74, "velocity": 97}, {"time": 185039, "pitch": 90, "duration": 74, "velocity": 97}, {"time": 185158, "pitch": 83, "duration": 74, "velocity": 97}, {"time": 185397, "pitch": 83, "duration": 75, "velocity": 97}, {"time": 185517, "pitch": 88, "duration": 75, "velocity": 97}, {"time": 185637, "pitch": 90, "duration": 76, "velocity": 97}, {"time": 185758, "pitch": 83, "duration": 75, "velocity": 97}, {"time": 185878, "pitch": 88, "duration": 76, "velocity": 97}, {"time": 185999, "pitch": 90, "duration": 75, "velocity": 97}, {"time": 186119, "pitch": 83, "duration": 76, "velocity": 97}, {"time": 187440, "pitch": 99, "duration": 97, "velocity": 102}, {"time": 187559, "pitch": 97, "duration": 86, "velocity": 102}, {"time": 187677, "pitch": 95, "duration": 94, "velocity": 102}, {"time": 187797, "pitch": 90, "duration": 73, "velocity": 102}, {"time": 187918, "pitch": 87, "duration": 68, "velocity": 102}, {"time": 188038, "pitch": 85, "duration": 73, "velocity": 102}, {"time": 188159, "pitch": 83, "duration": 42, "velocity": 102}, {"time": 188279, "pitch": 78, "duration": 65, "velocity": 102}, {"time": 188400, "pitch": 75, "duration": 84, "velocity": 102}, {"time": 192720, "pitch": 100, "duration": 72, "velocity": 122}, {"time": 192961, "pitch": 102, "duration": 71, "velocity": 122}, {"time": 193201, "pitch": 104, "duration": 69, "velocity": 122}, {"time": 194639, "pitch": 104, "duration": 75, "velocity": 122}, {"time": 194880, "pitch": 102, "duration": 90, "velocity": 122}, {"time": 195121, "pitch": 100, "duration": 74, "velocity": 122}, {"time": 195361, "pitch": 100, "duration": 83, "velocity": 122}, {"time": 195843, "pitch": 102, "duration": 80, "velocity": 122}, {"time": 198477, "pitch": 88, "duration": 69, "velocity": 122}, {"time": 198718, "pitch": 90, "duration": 75, "velocity": 122}, {"time": 198959, "pitch": 92, "duration": 67, "velocity": 122}, {"time": 200400, "pitch": 92, "duration": 75, "velocity": 122}, {"time": 200637, "pitch": 90, "duration": 82, "velocity": 122}, {"time": 200878, "pitch": 88, "duration": 81, "velocity": 122}, {"time": 201119, "pitch": 87, "duration": 359, "velocity": 122}, {"time": 201601, "pitch": 88, "duration": 123, "velocity": 122}], "annotations": [{"time": 271, "annotation": {"number": 7, "value": 85}, "group": "control_change"}, {"time": 292, "annotation": {"number": 11, "value": 120}, "group": "control_change"}, {"time": 313, "annotation": {"number": 10, "value": 24}, "group": "control_change"}, {"time": 334, "annotation": {"number": 91, "value": 50}, "group": "control_change"}, {"time": 354, "annotation": {"number": 93, "value": 20}, "group": "control_change"}, {"time": 375, "annotation": {"number": 94, "value": 0}, "group": "control_change"}, {"time": 396, "annotation": {"number": 101, "value": 0}, "group": "control_change"}, {"time": 417, "annotation": {"number": 100, "value": 0}, "group": "control_change"}, {"time": 438, "annotation": {"number": 6, "value": 12}, "group": "control_change"}, {"time": 459, "annotation": {"number": 101, "value": 127}, "group": "control_change"}, {"time": 479, "annotation": {"number": 100, "value": 127}, "group": "control_change"}]}, {"program": 0, "is_drum": false, "name": "FANTASIA 2", "annotations": [{"time": 208, "annotation": {"number": 0, "value": 0}, "group": "control_change"}, {"time": 229, "annotation": {"number": 32, "value": 2}, "group": "control_change"}]}, {"program": 88, "is_drum": false, "name": "FANTASIA 2", "notes": [{"time": 4799, "pitch": 88, "duration": 72, "velocity": 87}, {"time": 5040, "pitch": 90, "duration": 71, "velocity": 87}, {"time": 5281, "pitch": 92, "duration": 68, "velocity": 87}, {"time": 6718, "pitch": 92, "duration": 76, "velocity": 87}, {"time": 6959, "pitch": 90, "duration": 90, "velocity": 87}, {"time": 7200, "pitch": 88, "duration": 74, "velocity": 87}, {"time": 7441, "pitch": 88, "duration": 82, "velocity": 87}, {"time": 7923, "pitch": 90, "duration": 81, "velocity": 87}, {"time": 10557, "pitch": 88, "duration": 69, "velocity": 87}, {"time": 10797, "pitch": 90, "duration": 76, "velocity": 87}, {"time": 11038, "pitch": 92, "duration": 68, "velocity": 87}, {"time": 12483, "pitch": 92, "duration": 76, "velocity": 87}, {"time": 12720, "pitch": 90, "duration": 81, "velocity": 87}, {"time": 12957, "pitch": 88, "duration": 82, "velocity": 87}, {"time": 13198, "pitch": 87, "duration": 360, "velocity": 87}, {"time": 13680, "pitch": 88, "duration": 123, "velocity": 87}, {"time": 39841, "pitch": 87, "duration": 98, "velocity": 87}, {"time": 39961, "pitch": 85, "duration": 88, "velocity": 87}, {"time": 40082, "pitch": 83, "duration": 94, "velocity": 87}, {"time": 40202, "pitch": 78, "duration": 73, "velocity": 87}, {"time": 40323, "pitch": 75, "duration": 67, "velocity": 87}, {"time": 40441, "pitch": 73, "duration": 71, "velocity": 87}, {"time": 40560, "pitch": 71, "duration": 41, "velocity": 87}, {"time": 40678, "pitch": 66, "duration": 64, "velocity": 87}, {"time": 40797, "pitch": 63, "duration": 84, "velocity": 87}, {"time": 77758, "pitch": 92, "duration": 76, "velocity": 87}, {"time": 77998, "pitch": 90, "duration": 83, "velocity": 87}, {"time": 78239, "pitch": 88, "duration": 82, "velocity": 87}, {"time": 78480, "pitch": 87, "duration": 360, "velocity": 87}, {"time": 78962, "pitch": 88, "duration": 123, "velocity": 87}, {"time": 105123, "pitch": 87, "duration": 97, "velocity": 87}, {"time": 105241, "pitch": 85, "duration": 86, "velocity": 87}, {"time": 105360, "pitch": 83, "duration": 93, "velocity": 87}, {"time": 105478, "pitch": 78, "duration": 71, "velocity": 87}, {"time": 105597, "pitch": 75, "duration": 68, "velocity": 87}, {"time": 105717, "pitch": 73, "duration": 73, "velocity": 87}, {"time": 105838, "pitch": 71, "duration": 42, "velocity": 87}, {"time": 105958, "pitch": 66, "duration": 65, "velocity": 87}, {"time": 106079, "pitch": 63, "duration": 84, "velocity": 87}, {"time": 153117, "pitch": 87, "duration": 98, "velocity": 87}, {"time": 153237, "pitch": 85, "duration": 88, "velocity": 87}, {"time": 153358, "pitch": 83, "duration": 94, "velocity": 87}, {"time": 153478, "pitch": 78, "duration": 73, "velocity": 87}, {"time": 153599, "pitch": 75, "duration": 68, "velocity": 87}, {"time": 153719, "pitch": 73, "duration": 72, "velocity": 87}, {"time": 153840, "pitch": 71, "duration": 42, "velocity": 87}, {"time": 153960, "pitch": 66, "duration": 65, "velocity": 87}, {"time": 154080, "pitch": 63, "duration": 85, "velocity": 87}, {"time": 187677, "pitch": 87, "duration": 98, "velocity": 87}, {"time": 187797, "pitch": 85, "duration": 88, "velocity": 87}, {"time": 187918, "pitch": 83, "duration": 94, "velocity": 87}, {"time": 188038, "pitch": 78, "duration": 73, "velocity": 87}, {"time": 188159, "pitch": 75, "duration": 68, "velocity": 87}, {"time": 188279, "pitch": 73, "duration": 73, "velocity": 87}, {"time": 188400, "pitch": 71, "duration": 42, "velocity": 87}, {"time": 188520, "pitch": 66, "duration": 65, "velocity": 87}, {"time": 192961, "pitch": 88, "duration": 72, "velocity": 87}, {"time": 193201, "pitch": 90, "duration": 72, "velocity": 87}, {"time": 193442, "pitch": 92, "duration": 67, "velocity": 87}, {"time": 194880, "pitch": 92, "duration": 75, "velocity": 87}, {"time": 195121, "pitch": 90, "duration": 90, "velocity": 87}, {"time": 195361, "pitch": 88, "duration": 75, "velocity": 87}, {"time": 195602, "pitch": 88, "duration": 83, "velocity": 87}, {"time": 196080, "pitch": 90, "duration": 80, "velocity": 87}, {"time": 198718, "pitch": 88, "duration": 69, "velocity": 87}, {"time": 198959, "pitch": 90, "duration": 75, "velocity": 87}, {"time": 199200, "pitch": 92, "duration": 67, "velocity": 87}, {"time": 200637, "pitch": 92, "duration": 76, "velocity": 87}, {"time": 200878, "pitch": 90, "duration": 82, "velocity": 87}, {"time": 201119, "pitch": 88, "duration": 81, "velocity": 87}, {"time": 201360, "pitch": 87, "duration": 359, "velocity": 87}, {"time": 201841, "pitch": 88, "duration": 124, "velocity": 87}], "annotations": [{"time": 271, "annotation": {"number": 7, "value": 85}, "group": "control_change"}, {"time": 292, "annotation": {"number": 11, "value": 120}, "group": "control_change"}, {"time": 313, "annotation": {"number": 10, "value": 114}, "group": "control_change"}, {"time": 334, "annotation": {"number": 91, "value": 50}, "group": "control_change"}, {"time": 354, "annotation": {"number": 93, "value": 30}, "group": "control_change"}, {"time": 375, "annotation": {"number": 94, "value": 0}, "group": "control_change"}, {"time": 396, "annotation": {"number": 101, "value": 0}, "group": "control_change"}, {"time": 417, "annotation": {"number": 100, "value": 0}, "group": "control_change"}, {"time": 438, "annotation": {"number": 6, "value": 12}, "group": "control_change"}, {"time": 459, "annotation": {"number": 101, "value": 127}, "group": "control_change"}, {"time": 479, "annotation": {"number": 100, "value": 127}, "group": "control_change"}]}, {"program": 0, "is_drum": false, "name": "PAD", "annotations": [{"time": 208, "annotation": {"number": 0, "value": 0}, "group": "control_change"}, {"time": 229, "annotation": {"number": 32, "value": 2}, "group": "control_change"}]}, {"program": 94, "is_drum": false, "name": "PAD", "notes": [{"time": 479, "pitch": 57, "duration": 1639, "velocity": 115}, {"time": 479, "pitch": 61, "duration": 1626, "velocity": 115}, {"time": 479, "pitch": 64, "duration": 1621, "velocity": 115}, {"time": 479, "pitch": 68, "duration": 1618, "velocity": 115}, {"time": 2157, "pitch": 56, "duration": 1861, "velocity": 115}, {"time": 2157, "pitch": 59, "duration": 1843, "velocity": 115}, {"time": 2157, "pitch": 63, "duration": 1842, "velocity": 115}, {"time": 2157, "pitch": 66, "duration": 1844, "velocity": 115}, {"time": 4080, "pitch": 54, "duration": 3557, "velocity": 115}, {"time": 4080, "pitch": 57, "duration": 3514, "velocity": 115}, {"time": 4080, "pitch": 61, "duration": 3534, "velocity": 115}, {"time": 4080, "pitch": 64, "duration": 3529, "velocity": 115}, {"time": 7682, "pitch": 56, "duration": 400, "velocity": 115}, {"time": 7682, "pitch": 59, "duration": 364, "velocity": 115}, {"time": 7682, "pitch": 63, "duration": 379, "velocity": 115}, {"time": 7682, "pitch": 66, "duration": 379, "velocity": 115}, {"time": 8163, "pitch": 57, "duration": 1611, "velocity": 115}, {"time": 8163, "pitch": 61, "duration": 1608, "velocity": 115}, {"time": 8163, "pitch": 64, "duration": 1607, "velocity": 115}, {"time": 8163, "pitch": 68, "duration": 1600, "velocity": 115}, {"time": 9842, "pitch": 56, "duration": 1873, "velocity": 115}, {"time": 9842, "pitch": 59, "duration": 1850, "velocity": 115}, {"time": 9842, "pitch": 63, "duration": 1850, "velocity": 115}, {"time": 9842, "pitch": 66, "duration": 1848, "velocity": 115}, {"time": 11761, "pitch": 54, "duration": 1819, "velocity": 115}, {"time": 11761, "pitch": 57, "duration": 1800, "velocity": 115}, {"time": 11761, "pitch": 61, "duration": 1811, "velocity": 115}, {"time": 11761, "pitch": 64, "duration": 1812, "velocity": 115}, {"time": 13680, "pitch": 47, "duration": 165, "velocity": 115}, {"time": 13680, "pitch": 57, "duration": 161, "velocity": 115}, {"time": 13680, "pitch": 61, "duration": 183, "velocity": 115}, {"time": 13680, "pitch": 64, "duration": 173, "velocity": 115}, {"time": 13921, "pitch": 47, "duration": 131, "velocity": 115}, {"time": 13921, "pitch": 57, "duration": 124, "velocity": 115}, {"time": 13921, "pitch": 61, "duration": 161, "velocity": 115}, {"time": 13921, "pitch": 64, "duration": 142, "velocity": 115}, {"time": 14162, "pitch": 47, "duration": 210, "velocity": 115}, {"time": 14162, "pitch": 57, "duration": 173, "velocity": 115}, {"time": 14162, "pitch": 61, "duration": 189, "velocity": 115}, {"time": 14162, "pitch": 64, "duration": 189, "velocity": 115}, {"time": 40797, "pitch": 52, "duration": 1686, "velocity": 127}, {"time": 40797, "pitch": 59, "duration": 1686, "velocity": 127}, {"time": 40797, "pitch": 64, "duration": 1686, "velocity": 127}, {"time": 40797, "pitch": 68, "duration": 1686, "velocity": 127}, {"time": 42483, "pitch": 47, "duration": 1919, "velocity": 127}, {"time": 42483, "pitch": 59, "duration": 1919, "velocity": 127}, {"time": 42483, "pitch": 63, "duration": 1919, "velocity": 127}, {"time": 42483, "pitch": 66, "duration": 1919, "velocity": 127}, {"time": 44402, "pitch": 45, "duration": 1919, "velocity": 127}, {"time": 44402, "pitch": 57, "duration": 1919, "velocity": 127}, {"time": 44402, "pitch": 59, "duration": 1919, "velocity": 127}, {"time": 44402, "pitch": 61, "duration": 1919, "velocity": 127}, {"time": 44402, "pitch": 64, "duration": 1919, "velocity": 127}, {"time": 46321, "pitch": 42, "duration": 1197, "velocity": 127}, {"time": 46321, "pitch": 57, "duration": 1197, "velocity": 127}, {"time": 46321, "pitch": 61, "duration": 1197, "velocity": 127}, {"time": 46321, "pitch": 64, "duration": 1197, "velocity": 127}, {"time": 47518, "pitch": 47, "duration": 963, "velocity": 127}, {"time": 47518, "pitch": 59, "duration": 963, "velocity": 127}, {"time": 47518, "pitch": 63, "duration": 963, "velocity": 127}, {"time": 47518, "pitch": 66, "duration": 963, "velocity": 127}, {"time": 48481, "pitch": 44, "duration": 956, "velocity": 127}, {"time": 48481, "pitch": 59, "duration": 956, "velocity": 127}, {"time": 48481, "pitch": 63, "duration": 956, "velocity": 127}, {"time": 48481, "pitch": 66, "duration": 956, "velocity": 127}, {"time": 49437, "pitch": 59, "duration": 722, "velocity": 127}, {"time": 49437, "pitch": 63, "duration": 722, "velocity": 127}, {"time": 49437, "pitch": 66, "duration": 722, "velocity": 127}, {"time": 50159, "pitch": 45, "duration": 1205, "velocity": 127}, {"time": 50159, "pitch": 57, "duration": 1205, "velocity": 127}, {"time": 50159, "pitch": 61, "duration": 1205, "velocity": 127}, {"time": 50159, "pitch": 64, "duration": 1205, "velocity": 127}, {"time": 51364, "pitch": 47, "duration": 474, "velocity": 127}, {"time": 51364, "pitch": 59, "duration": 474, "velocity": 127}, {"time": 51364, "pitch": 63, "duration": 474, "velocity": 127}, {"time": 51364, "pitch": 66, "duration": 474, "velocity": 127}, {"time": 51838, "pitch": 48, "duration": 481, "velocity": 127}, {"time": 51838, "pitch": 60, "duration": 481, "velocity": 127}, {"time": 51838, "pitch": 63, "duration": 481, "velocity": 127}, {"time": 51838, "pitch": 66, "duration": 481, "velocity": 127}, {"time": 52319, "pitch": 49, "duration": 723, "velocity": 127}, {"time": 52319, "pitch": 59, "duration": 723, "velocity": 127}, {"time": 52319, "pitch": 64, "duration": 723, "velocity": 127}, {"time": 52319, "pitch": 68, "duration": 723, "velocity": 127}, {"time": 53042, "pitch": 49, "duration": 241, "velocity": 127}, {"time": 53042, "pitch": 59, "duration": 241, "velocity": 127}, {"time": 53042, "pitch": 63, "duration": 241, "velocity": 127}, {"time": 53042, "pitch": 66, "duration": 241, "velocity": 127}, {"time": 53283, "pitch": 49, "duration": 715, "velocity": 127}, {"time": 53283, "pitch": 59, "duration": 715, "velocity": 127}, {"time": 53283, "pitch": 64, "duration": 715, "velocity": 127}, {"time": 53283, "pitch": 68, "duration": 715, "velocity": 127}, {"time": 53998, "pitch": 42, "duration": 1204, "velocity": 127}, {"time": 53998, "pitch": 57, "duration": 1204, "velocity": 127}, {"time": 53998, "pitch": 61, "duration": 1204, "velocity": 127}, {"time": 53998, "pitch": 64, "duration": 1204, "velocity": 127}, {"time": 55202, "pitch": 47, "duration": 956, "velocity": 127}, {"time": 55202, "pitch": 59, "duration": 956, "velocity": 127}, {"time": 55202, "pitch": 63, "duration": 956, "velocity": 127}, {"time": 55202, "pitch": 66, "duration": 956, "velocity": 127}, {"time": 56158, "pitch": 52, "duration": 1682, "velocity": 127}, {"time": 56158, "pitch": 59, "duration": 1682, "velocity": 127}, {"time": 56158, "pitch": 64, "duration": 1682, "velocity": 127}, {"time": 56158, "pitch": 68, "duration": 1682, "velocity": 127}, {"time": 57840, "pitch": 47, "duration": 1923, "velocity": 127}, {"time": 57840, "pitch": 59, "duration": 1923, "velocity": 127}, {"time": 57840, "pitch": 63, "duration": 1923, "velocity": 127}, {"time": 57840, "pitch": 66, "duration": 1923, "velocity": 127}, {"time": 59763, "pitch": 45, "duration": 1919, "velocity": 127}, {"time": 59763, "pitch": 57, "duration": 1919, "velocity": 127}, {"time": 59763, "pitch": 59, "duration": 1919, "velocity": 127}, {"time": 59763, "pitch": 61, "duration": 1919, "velocity": 127}, {"time": 59763, "pitch": 64, "duration": 1919, "velocity": 127}, {"time": 61682, "pitch": 42, "duration": 1196, "velocity": 127}, {"time": 61682, "pitch": 57, "duration": 1196, "velocity": 127}, {"time": 61682, "pitch": 61, "duration": 1196, "velocity": 127}, {"time": 61682, "pitch": 64, "duration": 1196, "velocity": 127}, {"time": 62878, "pitch": 47, "duration": 964, "velocity": 127}, {"time": 62878, "pitch": 59, "duration": 964, "velocity": 127}, {"time": 62878, "pitch": 63, "duration": 964, "velocity": 127}, {"time": 62878, "pitch": 66, "duration": 964, "velocity": 127}, {"time": 63842, "pitch": 44, "duration": 956, "velocity": 127}, {"time": 63842, "pitch": 59, "duration": 956, "velocity": 127}, {"time": 63842, "pitch": 63, "duration": 956, "velocity": 127}, {"time": 63842, "pitch": 66, "duration": 956, "velocity": 127}, {"time": 64798, "pitch": 59, "duration": 722, "velocity": 127}, {"time": 64798, "pitch": 63, "duration": 722, "velocity": 127}, {"time": 64798, "pitch": 66, "duration": 722, "velocity": 127}, {"time": 65520, "pitch": 45, "duration": 1197, "velocity": 127}, {"time": 65520, "pitch": 57, "duration": 1197, "velocity": 127}, {"time": 65520, "pitch": 61, "duration": 1197, "velocity": 127}, {"time": 65520, "pitch": 64, "duration": 1197, "velocity": 127}, {"time": 66717, "pitch": 47, "duration": 963, "velocity": 127}, {"time": 66717, "pitch": 59, "duration": 963, "velocity": 127}, {"time": 66717, "pitch": 63, "duration": 963, "velocity": 127}, {"time": 66717, "pitch": 66, "duration": 963, "velocity": 127}, {"time": 67680, "pitch": 42, "duration": 964, "velocity": 127}, {"time": 67680, "pitch": 57, "duration": 964, "velocity": 127}, {"time": 67680, "pitch": 61, "duration": 964, "velocity": 127}, {"time": 67680, "pitch": 64, "duration": 964, "velocity": 127}, {"time": 68644, "pitch": 47, "duration": 955, "velocity": 127}, {"time": 68644, "pitch": 59, "duration": 955, "velocity": 127}, {"time": 68644, "pitch": 63, "duration": 955, "velocity": 127}, {"time": 68644, "pitch": 66, "duration": 955, "velocity": 127}, {"time": 104882, "pitch": 87, "duration": 98, "velocity": 127}, {"time": 105002, "pitch": 85, "duration": 88, "velocity": 127}, {"time": 105123, "pitch": 83, "duration": 93, "velocity": 127}, {"time": 105241, "pitch": 78, "duration": 71, "velocity": 127}, {"time": 105360, "pitch": 75, "duration": 67, "velocity": 127}, {"time": 105478, "pitch": 73, "duration": 71, "velocity": 127}, {"time": 105597, "pitch": 71, "duration": 42, "velocity": 127}, {"time": 105717, "pitch": 66, "duration": 65, "velocity": 127}, {"time": 105838, "pitch": 63, "duration": 84, "velocity": 127}, {"time": 106079, "pitch": 52, "duration": 1682, "velocity": 127}, {"time": 106079, "pitch": 59, "duration": 1682, "velocity": 127}, {"time": 106079, "pitch": 64, "duration": 1682, "velocity": 127}, {"time": 106079, "pitch": 68, "duration": 1682, "velocity": 127}, {"time": 107761, "pitch": 47, "duration": 1919, "velocity": 127}, {"time": 107761, "pitch": 59, "duration": 1919, "velocity": 127}, {"time": 107761, "pitch": 63, "duration": 1919, "velocity": 127}, {"time": 107761, "pitch": 66, "duration": 1919, "velocity": 127}, {"time": 109680, "pitch": 45, "duration": 1923, "velocity": 127}, {"time": 109680, "pitch": 57, "duration": 1923, "velocity": 127}, {"time": 109680, "pitch": 59, "duration": 1923, "velocity": 127}, {"time": 109680, "pitch": 61, "duration": 1923, "velocity": 127}, {"time": 109680, "pitch": 64, "duration": 1923, "velocity": 127}, {"time": 111603, "pitch": 42, "duration": 1196, "velocity": 127}, {"time": 111603, "pitch": 57, "duration": 1196, "velocity": 127}, {"time": 111603, "pitch": 61, "duration": 1196, "velocity": 127}, {"time": 111603, "pitch": 64, "duration": 1196, "velocity": 127}, {"time": 112799, "pitch": 47, "duration": 964, "velocity": 127}, {"time": 112799, "pitch": 59, "duration": 964, "velocity": 127}, {"time": 112799, "pitch": 63, "duration": 964, "velocity": 127}, {"time": 112799, "pitch": 66, "duration": 964, "velocity": 127}, {"time": 113763, "pitch": 44, "duration": 956, "velocity": 127}, {"time": 113763, "pitch": 59, "duration": 956, "velocity": 127}, {"time": 113763, "pitch": 63, "duration": 956, "velocity": 127}, {"time": 113763, "pitch": 66, "duration": 956, "velocity": 127}, {"time": 114719, "pitch": 59, "duration": 722, "velocity": 127}, {"time": 114719, "pitch": 63, "duration": 722, "velocity": 127}, {"time": 114719, "pitch": 66, "duration": 722, "velocity": 127}, {"time": 115441, "pitch": 45, "duration": 1197, "velocity": 127}, {"time": 115441, "pitch": 57, "duration": 1197, "velocity": 127}, {"time": 115441, "pitch": 61, "duration": 1197, "velocity": 127}, {"time": 115441, "pitch": 64, "duration": 1197, "velocity": 127}, {"time": 116638, "pitch": 47, "duration": 481, "velocity": 127}, {"time": 116638, "pitch": 59, "duration": 481, "velocity": 127}, {"time": 116638, "pitch": 63, "duration": 481, "velocity": 127}, {"time": 116638, "pitch": 66, "duration": 481, "velocity": 127}, {"time": 117119, "pitch": 48, "duration": 482, "velocity": 127}, {"time": 117119, "pitch": 60, "duration": 482, "velocity": 127}, {"time": 117119, "pitch": 63, "duration": 482, "velocity": 127}, {"time": 117119, "pitch": 66, "duration": 482, "velocity": 127}, {"time": 117601, "pitch": 49, "duration": 719, "velocity": 127}, {"time": 117601, "pitch": 59, "duration": 719, "velocity": 127}, {"time": 117601, "pitch": 64, "duration": 719, "velocity": 127}, {"time": 117601, "pitch": 68, "duration": 719, "velocity": 127}, {"time": 118320, "pitch": 49, "duration": 237, "velocity": 127}, {"time": 118320, "pitch": 59, "duration": 237, "velocity": 127}, {"time": 118320, "pitch": 63, "duration": 237, "velocity": 127}, {"time": 118320, "pitch": 66, "duration": 237, "velocity": 127}, {"time": 118557, "pitch": 49, "duration": 722, "velocity": 127}, {"time": 118557, "pitch": 59, "duration": 722, "velocity": 127}, {"time": 118557, "pitch": 64, "duration": 722, "velocity": 127}, {"time": 118557, "pitch": 68, "duration": 722, "velocity": 127}, {"time": 119279, "pitch": 42, "duration": 1205, "velocity": 127}, {"time": 119279, "pitch": 57, "duration": 1205, "velocity": 127}, {"time": 119279, "pitch": 61, "duration": 1205, "velocity": 127}, {"time": 119279, "pitch": 64, "duration": 1205, "velocity": 127}, {"time": 120484, "pitch": 47, "duration": 955, "velocity": 127}, {"time": 120484, "pitch": 59, "duration": 955, "velocity": 127}, {"time": 120484, "pitch": 63, "duration": 955, "velocity": 127}, {"time": 120484, "pitch": 66, "duration": 955, "velocity": 127}, {"time": 121439, "pitch": 52, "duration": 1679, "velocity": 127}, {"time": 121439, "pitch": 59, "duration": 1679, "velocity": 127}, {"time": 121439, "pitch": 64, "duration": 1679, "velocity": 127}, {"time": 121439, "pitch": 68, "duration": 1679, "velocity": 127}, {"time": 123118, "pitch": 47, "duration": 1923, "velocity": 127}, {"time": 123118, "pitch": 59, "duration": 1923, "velocity": 127}, {"time": 123118, "pitch": 63, "duration": 1923, "velocity": 127}, {"time": 123118, "pitch": 66, "duration": 1923, "velocity": 127}, {"time": 125041, "pitch": 45, "duration": 1919, "velocity": 127}, {"time": 125041, "pitch": 57, "duration": 1919, "velocity": 127}, {"time": 125041, "pitch": 59, "duration": 1919, "velocity": 127}, {"time": 125041, "pitch": 61, "duration": 1919, "velocity": 127}, {"time": 125041, "pitch": 64, "duration": 1919, "velocity": 127}, {"time": 126960, "pitch": 42, "duration": 1200, "velocity": 127}, {"time": 126960, "pitch": 57, "duration": 1200, "velocity": 127}, {"time": 126960, "pitch": 61, "duration": 1200, "velocity": 127}, {"time": 126960, "pitch": 64, "duration": 1200, "velocity": 127}, {"time": 128160, "pitch": 47, "duration": 964, "velocity": 127}, {"time": 128160, "pitch": 59, "duration": 964, "velocity": 127}, {"time": 128160, "pitch": 63, "duration": 964, "velocity": 127}, {"time": 128160, "pitch": 66, "duration": 964, "velocity": 127}, {"time": 129124, "pitch": 44, "duration": 956, "velocity": 127}, {"time": 129124, "pitch": 59, "duration": 956, "velocity": 127}, {"time": 129124, "pitch": 63, "duration": 956, "velocity": 127}, {"time": 129124, "pitch": 66, "duration": 956, "velocity": 127}, {"time": 130080, "pitch": 59, "duration": 722, "velocity": 127}, {"time": 130080, "pitch": 63, "duration": 722, "velocity": 127}, {"time": 130080, "pitch": 66, "duration": 722, "velocity": 127}, {"time": 130802, "pitch": 45, "duration": 1197, "velocity": 127}, {"time": 130802, "pitch": 57, "duration": 1197, "velocity": 127}, {"time": 130802, "pitch": 61, "duration": 1197, "velocity": 127}, {"time": 130802, "pitch": 64, "duration": 1197, "velocity": 127}, {"time": 131999, "pitch": 47, "duration": 963, "velocity": 127}, {"time": 131999, "pitch": 59, "duration": 963, "velocity": 127}, {"time": 131999, "pitch": 63, "duration": 963, "velocity": 127}, {"time": 131999, "pitch": 66, "duration": 963, "velocity": 127}, {"time": 132962, "pitch": 42, "duration": 956, "velocity": 127}, {"time": 132962, "pitch": 57, "duration": 956, "velocity": 127}, {"time": 132962, "pitch": 61, "duration": 956, "velocity": 127}, {"time": 132962, "pitch": 64, "duration": 956, "velocity": 127}, {"time": 133918, "pitch": 47, "duration": 963, "velocity": 127}, {"time": 133918, "pitch": 59, "duration": 963, "velocity": 127}, {"time": 133918, "pitch": 63, "duration": 963, "velocity": 127}, {"time": 133918, "pitch": 66, "duration": 963, "velocity": 127}, {"time": 135363, "pitch": 85, "duration": 60, "velocity": 127}, {"time": 135481, "pitch": 87, "duration": 62, "velocity": 127}, {"time": 135600, "pitch": 88, "duration": 59, "velocity": 127}, {"time": 135718, "pitch": 87, "duration": 106, "velocity": 127}, {"time": 135957, "pitch": 83, "duration": 66, "velocity": 127}, {"time": 136198, "pitch": 83, "duration": 74, "velocity": 127}, {"time": 136439, "pitch": 87, "duration": 70, "velocity": 127}, {"time": 136800, "pitch": 87, "duration": 87, "velocity": 127}, {"time": 137162, "pitch": 88, "duration": 86, "velocity": 127}, {"time": 137523, "pitch": 85, "duration": 68, "velocity": 127}, {"time": 139201, "pitch": 85, "duration": 54, "velocity": 127}, {"time": 139322, "pitch": 87, "duration": 56, "velocity": 127}, {"time": 139442, "pitch": 88, "duration": 65, "velocity": 127}, {"time": 139563, "pitch": 87, "duration": 92, "velocity": 127}, {"time": 139801, "pitch": 83, "duration": 55, "velocity": 127}, {"time": 140038, "pitch": 83, "duration": 60, "velocity": 127}, {"time": 140277, "pitch": 80, "duration": 73, "velocity": 127}, {"time": 140639, "pitch": 78, "duration": 218, "velocity": 127}, {"time": 141000, "pitch": 80, "duration": 130, "velocity": 127}, {"time": 143040, "pitch": 85, "duration": 53, "velocity": 127}, {"time": 143160, "pitch": 87, "duration": 65, "velocity": 127}, {"time": 143280, "pitch": 88, "duration": 57, "velocity": 127}, {"time": 143401, "pitch": 87, "duration": 95, "velocity": 127}, {"time": 143642, "pitch": 83, "duration": 62, "velocity": 127}, {"time": 143883, "pitch": 83, "duration": 74, "velocity": 127}, {"time": 144121, "pitch": 87, "duration": 48, "velocity": 127}, {"time": 144477, "pitch": 87, "duration": 82, "velocity": 127}, {"time": 144838, "pitch": 88, "duration": 62, "velocity": 127}, {"time": 145200, "pitch": 85, "duration": 73, "velocity": 127}, {"time": 146878, "pitch": 85, "duration": 59, "velocity": 127}, {"time": 146998, "pitch": 87, "duration": 65, "velocity": 127}, {"time": 147119, "pitch": 88, "duration": 66, "velocity": 127}, {"time": 147239, "pitch": 90, "duration": 71, "velocity": 127}, {"time": 147480, "pitch": 95, "duration": 54, "velocity": 127}, {"time": 147721, "pitch": 90, "duration": 76, "velocity": 127}, {"time": 147962, "pitch": 87, "duration": 81, "velocity": 127}, {"time": 148203, "pitch": 85, "duration": 65, "velocity": 127}, {"time": 150242, "pitch": 83, "duration": 74, "velocity": 127}, {"time": 150361, "pitch": 88, "duration": 74, "velocity": 127}, {"time": 150479, "pitch": 90, "duration": 74, "velocity": 127}, {"time": 150598, "pitch": 83, "duration": 74, "velocity": 127}, {"time": 150716, "pitch": 95, "duration": 75, "velocity": 127}, {"time": 150837, "pitch": 83, "duration": 75, "velocity": 127}, {"time": 150957, "pitch": 88, "duration": 75, "velocity": 127}, {"time": 151077, "pitch": 90, "duration": 76, "velocity": 127}, {"time": 151198, "pitch": 83, "duration": 75, "velocity": 127}, {"time": 151318, "pitch": 88, "duration": 76, "velocity": 127}, {"time": 151439, "pitch": 90, "duration": 75, "velocity": 127}, {"time": 151559, "pitch": 83, "duration": 75, "velocity": 127}, {"time": 151680, "pitch": 95, "duration": 75, "velocity": 127}, {"time": 152880, "pitch": 87, "duration": 97, "velocity": 127}, {"time": 152999, "pitch": 85, "duration": 85, "velocity": 127}, {"time": 153117, "pitch": 83, "duration": 94, "velocity": 127}, {"time": 153237, "pitch": 78, "duration": 73, "velocity": 127}, {"time": 153358, "pitch": 75, "duration": 68, "velocity": 127}, {"time": 153478, "pitch": 73, "duration": 73, "velocity": 127}, {"time": 153599, "pitch": 71, "duration": 42, "velocity": 127}, {"time": 153719, "pitch": 66, "duration": 65, "velocity": 127}, {"time": 153840, "pitch": 63, "duration": 84, "velocity": 127}, {"time": 154080, "pitch": 52, "duration": 1679, "velocity": 127}, {"time": 154080, "pitch": 59, "duration": 1679, "velocity": 127}, {"time": 154080, "pitch": 64, "duration": 1679, "velocity": 127}, {"time": 154080, "pitch": 68, "duration": 1679, "velocity": 127}, {"time": 155759, "pitch": 47, "duration": 1919, "velocity": 127}, {"time": 155759, "pitch": 59, "duration": 1919, "velocity": 127}, {"time": 155759, "pitch": 63, "duration": 1919, "velocity": 127}, {"time": 155759, "pitch": 66, "duration": 1919, "velocity": 127}, {"time": 157678, "pitch": 45, "duration": 1919, "velocity": 127}, {"time": 157678, "pitch": 57, "duration": 1919, "velocity": 127}, {"time": 157678, "pitch": 59, "duration": 1919, "velocity": 127}, {"time": 157678, "pitch": 61, "duration": 1919, "velocity": 127}, {"time": 157678, "pitch": 64, "duration": 1919, "velocity": 127}, {"time": 159597, "pitch": 42, "duration": 1204, "velocity": 127}, {"time": 159597, "pitch": 57, "duration": 1204, "velocity": 127}, {"time": 159597, "pitch": 61, "duration": 1204, "velocity": 127}, {"time": 159597, "pitch": 64, "duration": 1204, "velocity": 127}, {"time": 160801, "pitch": 47, "duration": 956, "velocity": 127}, {"time": 160801, "pitch": 59, "duration": 956, "velocity": 127}, {"time": 160801, "pitch": 63, "duration": 956, "velocity": 127}, {"time": 160801, "pitch": 66, "duration": 956, "velocity": 127}, {"time": 161757, "pitch": 44, "duration": 963, "velocity": 127}, {"time": 161757, "pitch": 59, "duration": 963, "velocity": 127}, {"time": 161757, "pitch": 63, "duration": 963, "velocity": 127}, {"time": 161757, "pitch": 66, "duration": 963, "velocity": 127}, {"time": 162720, "pitch": 59, "duration": 719, "velocity": 127}, {"time": 162720, "pitch": 63, "duration": 719, "velocity": 127}, {"time": 162720, "pitch": 66, "duration": 719, "velocity": 127}, {"time": 163439, "pitch": 45, "duration": 1201, "velocity": 127}, {"time": 163439, "pitch": 57, "duration": 1201, "velocity": 127}, {"time": 163439, "pitch": 61, "duration": 1201, "velocity": 127}, {"time": 163439, "pitch": 64, "duration": 1201, "velocity": 127}, {"time": 164640, "pitch": 47, "duration": 481, "velocity": 127}, {"time": 164640, "pitch": 59, "duration": 481, "velocity": 127}, {"time": 164640, "pitch": 63, "duration": 481, "velocity": 127}, {"time": 164640, "pitch": 66, "duration": 481, "velocity": 127}, {"time": 165121, "pitch": 48, "duration": 482, "velocity": 127}, {"time": 165121, "pitch": 60, "duration": 482, "velocity": 127}, {"time": 165121, "pitch": 63, "duration": 482, "velocity": 127}, {"time": 165121, "pitch": 66, "duration": 482, "velocity": 127}, {"time": 165603, "pitch": 49, "duration": 715, "velocity": 127}, {"time": 165603, "pitch": 59, "duration": 715, "velocity": 127}, {"time": 165603, "pitch": 64, "duration": 715, "velocity": 127}, {"time": 165603, "pitch": 68, "duration": 715, "velocity": 127}, {"time": 166318, "pitch": 49, "duration": 241, "velocity": 127}, {"time": 166318, "pitch": 59, "duration": 241, "velocity": 127}, {"time": 166318, "pitch": 63, "duration": 241, "velocity": 127}, {"time": 166318, "pitch": 66, "duration": 241, "velocity": 127}, {"time": 166559, "pitch": 49, "duration": 722, "velocity": 127}, {"time": 166559, "pitch": 59, "duration": 722, "velocity": 127}, {"time": 166559, "pitch": 64, "duration": 722, "velocity": 127}, {"time": 166559, "pitch": 68, "duration": 722, "velocity": 127}, {"time": 167281, "pitch": 42, "duration": 1197, "velocity": 127}, {"time": 167281, "pitch": 57, "duration": 1197, "velocity": 127}, {"time": 167281, "pitch": 61, "duration": 1197, "velocity": 127}, {"time": 167281, "pitch": 64, "duration": 1197, "velocity": 127}, {"time": 168478, "pitch": 47, "duration": 963, "velocity": 127}, {"time": 168478, "pitch": 59, "duration": 963, "velocity": 127}, {"time": 168478, "pitch": 63, "duration": 963, "velocity": 127}, {"time": 168478, "pitch": 66, "duration": 963, "velocity": 127}, {"time": 169441, "pitch": 52, "duration": 1679, "velocity": 127}, {"time": 169441, "pitch": 59, "duration": 1679, "velocity": 127}, {"time": 169441, "pitch": 64, "duration": 1679, "velocity": 127}, {"time": 169441, "pitch": 68, "duration": 1679, "velocity": 127}, {"time": 171120, "pitch": 47, "duration": 1919, "velocity": 127}, {"time": 171120, "pitch": 59, "duration": 1919, "velocity": 127}, {"time": 171120, "pitch": 63, "duration": 1919, "velocity": 127}, {"time": 171120, "pitch": 66, "duration": 1919, "velocity": 127}, {"time": 173039, "pitch": 45, "duration": 1919, "velocity": 127}, {"time": 173039, "pitch": 57, "duration": 1919, "velocity": 127}, {"time": 173039, "pitch": 59, "duration": 1919, "velocity": 127}, {"time": 173039, "pitch": 61, "duration": 1919, "velocity": 127}, {"time": 173039, "pitch": 64, "duration": 1919, "velocity": 127}, {"time": 174958, "pitch": 42, "duration": 1204, "velocity": 127}, {"time": 174958, "pitch": 57, "duration": 1204, "velocity": 127}, {"time": 174958, "pitch": 61, "duration": 1204, "velocity": 127}, {"time": 174958, "pitch": 64, "duration": 1204, "velocity": 127}, {"time": 176162, "pitch": 47, "duration": 956, "velocity": 127}, {"time": 176162, "pitch": 59, "duration": 956, "velocity": 127}, {"time": 176162, "pitch": 63, "duration": 956, "velocity": 127}, {"time": 176162, "pitch": 66, "duration": 956, "velocity": 127}, {"time": 177118, "pitch": 44, "duration": 963, "velocity": 127}, {"time": 177118, "pitch": 59, "duration": 963, "velocity": 127}, {"time": 177118, "pitch": 63, "duration": 963, "velocity": 127}, {"time": 177118, "pitch": 66, "duration": 963, "velocity": 127}, {"time": 178081, "pitch": 59, "duration": 719, "velocity": 127}, {"time": 178081, "pitch": 63, "duration": 719, "velocity": 127}, {"time": 178081, "pitch": 66, "duration": 719, "velocity": 127}, {"time": 178800, "pitch": 45, "duration": 1201, "velocity": 127}, {"time": 178800, "pitch": 57, "duration": 1201, "velocity": 127}, {"time": 178800, "pitch": 61, "duration": 1201, "velocity": 127}, {"time": 178800, "pitch": 64, "duration": 1201, "velocity": 127}, {"time": 180001, "pitch": 47, "duration": 955, "velocity": 127}, {"time": 180001, "pitch": 59, "duration": 955, "velocity": 127}, {"time": 180001, "pitch": 63, "duration": 955, "velocity": 127}, {"time": 180001, "pitch": 66, "duration": 955, "velocity": 127}, {"time": 180956, "pitch": 42, "duration": 964, "velocity": 127}, {"time": 180956, "pitch": 57, "duration": 964, "velocity": 127}, {"time": 180956, "pitch": 61, "duration": 964, "velocity": 127}, {"time": 180956, "pitch": 64, "duration": 964, "velocity": 127}, {"time": 181920, "pitch": 47, "duration": 963, "velocity": 127}, {"time": 181920, "pitch": 59, "duration": 963, "velocity": 127}, {"time": 181920, "pitch": 63, "duration": 963, "velocity": 127}, {"time": 181920, "pitch": 66, "duration": 963, "velocity": 127}, {"time": 182883, "pitch": 52, "duration": 1841, "velocity": 127}, {"time": 182883, "pitch": 59, "duration": 1879, "velocity": 127}, {"time": 182883, "pitch": 64, "duration": 1841, "velocity": 127}, {"time": 182883, "pitch": 68, "duration": 1868, "velocity": 127}, {"time": 184772, "pitch": 42, "duration": 1630, "velocity": 127}, {"time": 184802, "pitch": 57, "duration": 1609, "velocity": 127}, {"time": 184802, "pitch": 61, "duration": 1636, "velocity": 127}, {"time": 184802, "pitch": 64, "duration": 1647, "velocity": 127}, {"time": 186481, "pitch": 47, "duration": 366, "velocity": 127}, {"time": 186481, "pitch": 59, "duration": 366, "velocity": 127}, {"time": 186481, "pitch": 64, "duration": 372, "velocity": 127}, {"time": 186481, "pitch": 68, "duration": 364, "velocity": 127}, {"time": 186962, "pitch": 47, "duration": 139, "velocity": 127}, {"time": 186962, "pitch": 59, "duration": 139, "velocity": 127}, {"time": 186962, "pitch": 63, "duration": 146, "velocity": 127}, {"time": 186962, "pitch": 66, "duration": 143, "velocity": 127}, {"time": 187203, "pitch": 47, "duration": 398, "velocity": 127}, {"time": 187203, "pitch": 59, "duration": 398, "velocity": 127}, {"time": 187203, "pitch": 63, "duration": 390, "velocity": 127}, {"time": 187203, "pitch": 66, "duration": 417, "velocity": 127}, {"time": 187440, "pitch": 87, "duration": 97, "velocity": 127}, {"time": 187559, "pitch": 85, "duration": 86, "velocity": 127}, {"time": 187677, "pitch": 83, "duration": 94, "velocity": 127}, {"time": 187797, "pitch": 78, "duration": 73, "velocity": 127}, {"time": 187918, "pitch": 75, "duration": 68, "velocity": 127}, {"time": 188038, "pitch": 73, "duration": 73, "velocity": 127}, {"time": 188159, "pitch": 71, "duration": 42, "velocity": 127}, {"time": 188279, "pitch": 66, "duration": 65, "velocity": 127}, {"time": 188400, "pitch": 63, "duration": 84, "velocity": 127}, {"time": 188641, "pitch": 57, "duration": 1639, "velocity": 115}, {"time": 188641, "pitch": 61, "duration": 1626, "velocity": 115}, {"time": 188641, "pitch": 64, "duration": 1621, "velocity": 115}, {"time": 188641, "pitch": 68, "duration": 1618, "velocity": 115}, {"time": 190319, "pitch": 56, "duration": 1856, "velocity": 115}, {"time": 190319, "pitch": 59, "duration": 1838, "velocity": 115}, {"time": 190319, "pitch": 63, "duration": 1837, "velocity": 115}, {"time": 190319, "pitch": 66, "duration": 1839, "velocity": 115}, {"time": 192238, "pitch": 54, "duration": 3560, "velocity": 115}, {"time": 192238, "pitch": 57, "duration": 3518, "velocity": 115}, {"time": 192238, "pitch": 61, "duration": 3537, "velocity": 115}, {"time": 192238, "pitch": 64, "duration": 3532, "velocity": 115}, {"time": 195843, "pitch": 56, "duration": 394, "velocity": 115}, {"time": 195843, "pitch": 59, "duration": 359, "velocity": 115}, {"time": 195843, "pitch": 63, "duration": 373, "velocity": 115}, {"time": 195843, "pitch": 66, "duration": 373, "velocity": 115}, {"time": 196317, "pitch": 57, "duration": 1615, "velocity": 115}, {"time": 196317, "pitch": 61, "duration": 1612, "velocity": 115}, {"time": 196317, "pitch": 64, "duration": 1611, "velocity": 115}, {"time": 196317, "pitch": 68, "duration": 1605, "velocity": 115}, {"time": 197999, "pitch": 56, "duration": 1877, "velocity": 115}, {"time": 197999, "pitch": 59, "duration": 1854, "velocity": 115}, {"time": 197999, "pitch": 63, "duration": 1854, "velocity": 115}, {"time": 197999, "pitch": 66, "duration": 1852, "velocity": 115}, {"time": 199922, "pitch": 54, "duration": 1819, "velocity": 115}, {"time": 199922, "pitch": 57, "duration": 1800, "velocity": 115}, {"time": 199922, "pitch": 61, "duration": 1811, "velocity": 115}, {"time": 199922, "pitch": 64, "duration": 1812, "velocity": 115}, {"time": 201841, "pitch": 47, "duration": 165, "velocity": 115}, {"time": 201841, "pitch": 57, "duration": 161, "velocity": 115}, {"time": 201841, "pitch": 61, "duration": 183, "velocity": 115}, {"time": 201841, "pitch": 64, "duration": 173, "velocity": 115}, {"time": 202082, "pitch": 47, "duration": 130, "velocity": 115}, {"time": 202082, "pitch": 57, "duration": 123, "velocity": 115}, {"time": 202082, "pitch": 61, "duration": 158, "velocity": 115}, {"time": 202082, "pitch": 64, "duration": 141, "velocity": 115}, {"time": 202319, "pitch": 47, "duration": 207, "velocity": 115}, {"time": 202319, "pitch": 57, "duration": 171, "velocity": 115}, {"time": 202319, "pitch": 61, "duration": 187, "velocity": 115}, {"time": 202319, "pitch": 64, "duration": 187, "velocity": 115}, {"time": 204001, "pitch": 59, "duration": 1795, "velocity": 115}, {"time": 204001, "pitch": 64, "duration": 1809, "velocity": 115}, {"time": 204001, "pitch": 68, "duration": 1819, "velocity": 115}], "annotations": [{"time": 271, "annotation": {"number": 7, "value": 72}, "group": "control_change"}, {"time": 292, "annotation": {"number": 11, "value": 120}, "group": "control_change"}, {"time": 313, "annotation": {"number": 10, "value": 84}, "group": "control_change"}, {"time": 334, "annotation": {"number": 91, "value": 30}, "group": "control_change"}, {"time": 354, "annotation": {"number": 93, "value": 0}, "group": "control_change"}, {"time": 375, "annotation": {"number": 94, "value": 0}, "group": "control_change"}, {"time": 396, "annotation": {"number": 101, "value": 0}, "group": "control_change"}, {"time": 417, "annotation": {"number": 100, "value": 0}, "group": "control_change"}, {"time": 438, "annotation": {"number": 6, "value": 12}, "group": "control_change"}, {"time": 459, "annotation": {"number": 101, "value": 127}, "group": "control_change"}, {"time": 479, "annotation": {"number": 100, "value": 127}, "group": "control_change"}]}, {"program": 0, "is_drum": true, "name": "DRUMS", "annotations": [{"time": 208, "annotation": {"number": 0, "value": 0}, "group": "control_change"}, {"time": 229, "annotation": {"number": 32, "value": 0}, "group": "control_change"}]}, {"program": 16, "is_drum": true, "name": "DRUMS", "notes": [{"time": 7200, "pitch": 36, "duration": 10, "velocity": 115}, {"time": 7441, "pitch": 29, "duration": 10, "velocity": 110}, {"time": 7441, "pitch": 39, "duration": 10, "velocity": 127}, {"time": 7682, "pitch": 36, "duration": 10, "velocity": 115}, {"time": 7923, "pitch": 29, "duration": 10, "velocity": 127}, {"time": 7923, "pitch": 39, "duration": 10, "velocity": 127}, {"time": 8043, "pitch": 29, "duration": 10, "velocity": 127}, {"time": 8043, "pitch": 39, "duration": 10, "velocity": 127}, {"time": 8163, "pitch": 36, "duration": 10, "velocity": 115}, {"time": 8163, "pitch": 42, "duration": 10, "velocity": 113}, {"time": 8163, "pitch": 54, "duration": 10, "velocity": 127}, {"time": 8282, "pitch": 42, "duration": 10, "velocity": 113}, {"time": 8282, "pitch": 54, "duration": 10, "velocity": 57}, {"time": 8400, "pitch": 46, "duration": 10, "velocity": 117}, {"time": 8400, "pitch": 54, "duration": 10, "velocity": 50}, {"time": 8519, "pitch": 54, "duration": 10, "velocity": 53}, {"time": 8637, "pitch": 36, "duration": 10, "velocity": 115}, {"time": 8637, "pitch": 42, "duration": 10, "velocity": 117}, {"time": 8637, "pitch": 54, "duration": 10, "velocity": 127}, {"time": 8758, "pitch": 54, "duration": 10, "velocity": 36}, {"time": 8878, "pitch": 42, "duration": 10, "velocity": 77}, {"time": 8878, "pitch": 54, "duration": 10, "velocity": 33}, {"time": 8999, "pitch": 42, "duration": 10, "velocity": 91}, {"time": 8999, "pitch": 54, "duration": 10, "velocity": 53}, {"time": 9119, "pitch": 36, "duration": 10, "velocity": 115}, {"time": 9119, "pitch": 42, "duration": 10, "velocity": 104}, {"time": 9119, "pitch": 54, "duration": 10, "velocity": 127}, {"time": 9240, "pitch": 42, "duration": 10, "velocity": 108}, {"time": 9240, "pitch": 54, "duration": 10, "velocity": 36}, {"time": 9360, "pitch": 54, "duration": 10, "velocity": 36}, {"time": 9480, "pitch": 42, "duration": 11, "velocity": 87}, {"time": 9480, "pitch": 54, "duration": 11, "velocity": 36}, {"time": 9601, "pitch": 36, "duration": 10, "velocity": 115}, {"time": 9601, "pitch": 42, "duration": 10, "velocity": 117}, {"time": 9601, "pitch": 54, "duration": 10, "velocity": 127}, {"time": 9721, "pitch": 54, "duration": 10, "velocity": 66}, {"time": 9842, "pitch": 42, "duration": 10, "velocity": 89}, {"time": 9842, "pitch": 54, "duration": 10, "velocity": 50}, {"time": 9962, "pitch": 42, "duration": 10, "velocity": 117}, {"time": 9962, "pitch": 54, "duration": 10, "velocity": 38}, {"time": 10083, "pitch": 36, "duration": 9, "velocity": 115}, {"time": 10083, "pitch": 42, "duration": 9, "velocity": 93}, {"time": 10083, "pitch": 54, "duration": 9, "velocity": 127}, {"time": 10201, "pitch": 42, "duration": 10, "velocity": 117}, {"time": 10201, "pitch": 54, "duration": 10, "velocity": 57}, {"time": 10320, "pitch": 46, "duration": 9, "velocity": 109}, {"time": 10320, "pitch": 54, "duration": 9, "velocity": 50}, {"time": 10438, "pitch": 54, "duration": 10, "velocity": 53}, {"time": 10557, "pitch": 36, "duration": 10, "velocity": 115}, {"time": 10557, "pitch": 42, "duration": 10, "velocity": 117}, {"time": 10557, "pitch": 54, "duration": 10, "velocity": 127}, {"time": 10677, "pitch": 54, "duration": 10, "velocity": 36}, {"time": 10797, "pitch": 42, "duration": 10, "velocity": 85}, {"time": 10797, "pitch": 54, "duration": 10, "velocity": 33}, {"time": 10918, "pitch": 42, "duration": 10, "velocity": 108}, {"time": 10918, "pitch": 54, "duration": 10, "velocity": 53}, {"time": 11038, "pitch": 36, "duration": 10, "velocity": 115}, {"time": 11038, "pitch": 42, "duration": 10, "velocity": 111}, {"time": 11038, "pitch": 54, "duration": 10, "velocity": 127}, {"time": 11159, "pitch": 42, "duration": 10, "velocity": 97}, {"time": 11159, "pitch": 54, "duration": 10, "velocity": 36}, {"time": 11279, "pitch": 42, "duration": 10, "velocity": 89}, {"time": 11279, "pitch": 54, "duration": 10, "velocity": 36}, {"time": 11400, "pitch": 54, "duration": 10, "velocity": 36}, {"time": 11520, "pitch": 36, "duration": 10, "velocity": 115}, {"time": 11520, "pitch": 42, "duration": 10, "velocity": 117}, {"time": 11520, "pitch": 54, "duration": 10, "velocity": 127}, {"time": 11640, "pitch": 54, "duration": 11, "velocity": 66}, {"time": 11761, "pitch": 42, "duration": 10, "velocity": 99}, {"time": 11761, "pitch": 54, "duration": 10, "velocity": 50}, {"time": 11881, "pitch": 42, "duration": 10, "velocity": 114}, {"time": 11881, "pitch": 54, "duration": 10, "velocity": 38}, {"time": 12002, "pitch": 36, "duration": 10, "velocity": 115}, {"time": 12002, "pitch": 42, "duration": 10, "velocity": 108}, {"time": 12002, "pitch": 54, "duration": 10, "velocity": 127}, {"time": 12122, "pitch": 54, "duration": 10, "velocity": 57}, {"time": 12243, "pitch": 46, "duration": 10, "velocity": 103}, {"time": 12243, "pitch": 54, "duration": 10, "velocity": 50}, {"time": 12363, "pitch": 54, "duration": 10, "velocity": 53}, {"time": 12483, "pitch": 36, "duration": 10, "velocity": 115}, {"time": 12483, "pitch": 42, "duration": 10, "velocity": 105}, {"time": 12483, "pitch": 54, "duration": 10, "velocity": 127}, {"time": 12602, "pitch": 54, "duration": 10, "velocity": 36}, {"time": 12720, "pitch": 46, "duration": 10, "velocity": 112}, {"time": 12720, "pitch": 54, "duration": 10, "velocity": 33}, {"time": 12839, "pitch": 54, "duration": 10, "velocity": 53}, {"time": 12957, "pitch": 36, "duration": 10, "velocity": 115}, {"time": 12957, "pitch": 42, "duration": 10, "velocity": 114}, {"time": 12957, "pitch": 54, "duration": 10, "velocity": 127}, {"time": 13078, "pitch": 54, "duration": 10, "velocity": 36}, {"time": 13198, "pitch": 38, "duration": 10, "velocity": 49}, {"time": 13198, "pitch": 42, "duration": 10, "velocity": 94}, {"time": 13198, "pitch": 54, "duration": 10, "velocity": 36}, {"time": 13256, "pitch": 38, "duration": 10, "velocity": 59}, {"time": 13319, "pitch": 38, "duration": 10, "velocity": 77}, {"time": 13319, "pitch": 42, "duration": 10, "velocity": 117}, {"time": 13319, "pitch": 54, "duration": 10, "velocity": 36}, {"time": 13376, "pitch": 38, "duration": 10, "velocity": 98}, {"time": 13439, "pitch": 36, "duration": 10, "velocity": 115}, {"time": 13439, "pitch": 42, "duration": 10, "velocity": 117}, {"time": 13439, "pitch": 54, "duration": 10, "velocity": 127}, {"time": 13442, "pitch": 38, "duration": 10, "velocity": 127}, {"time": 13560, "pitch": 54, "duration": 10, "velocity": 66}, {"time": 13680, "pitch": 38, "duration": 10, "velocity": 127}, {"time": 13680, "pitch": 42, "duration": 10, "velocity": 110}, {"time": 13680, "pitch": 43, "duration": 10, "velocity": 127}, {"time": 13680, "pitch": 54, "duration": 10, "velocity": 50}, {"time": 13680, "pitch": 55, "duration": 10, "velocity": 127}, {"time": 13800, "pitch": 54, "duration": 11, "velocity": 38}, {"time": 13921, "pitch": 38, "duration": 10, "velocity": 127}, {"time": 13921, "pitch": 43, "duration": 10, "velocity": 127}, {"time": 13921, "pitch": 54, "duration": 10, "velocity": 127}, {"time": 13921, "pitch": 55, "duration": 10, "velocity": 127}, {"time": 14041, "pitch": 54, "duration": 10, "velocity": 57}, {"time": 14162, "pitch": 38, "duration": 10, "velocity": 127}, {"time": 14162, "pitch": 43, "duration": 10, "velocity": 127}, {"time": 14162, "pitch": 54, "duration": 10, "velocity": 50}, {"time": 14162, "pitch": 55, "duration": 10, "velocity": 127}, {"time": 14282, "pitch": 54, "duration": 10, "velocity": 53}, {"time": 14403, "pitch": 46, "duration": 10, "velocity": 117}, {"time": 14403, "pitch": 53, "duration": 10, "velocity": 127}, {"time": 14403, "pitch": 54, "duration": 10, "velocity": 127}, {"time": 14403, "pitch": 58, "duration": 10, "velocity": 127}, {"time": 14521, "pitch": 54, "duration": 10, "velocity": 36}, {"time": 14640, "pitch": 54, "duration": 9, "velocity": 33}, {"time": 14758, "pitch": 54, "duration": 10, "velocity": 53}, {"time": 14877, "pitch": 46, "duration": 10, "velocity": 117}, {"time": 14877, "pitch": 50, "duration": 10, "velocity": 100}, {"time": 14877, "pitch": 53, "duration": 10, "velocity": 127}, {"time": 14877, "pitch": 54, "duration": 10, "velocity": 127}, {"time": 14898, "pitch": 50, "duration": 10, "velocity": 127}, {"time": 14997, "pitch": 54, "duration": 10, "velocity": 36}, {"time": 15117, "pitch": 38, "duration": 10, "velocity": 47}, {"time": 15117, "pitch": 54, "duration": 10, "velocity": 36}, {"time": 15169, "pitch": 38, "duration": 10, "velocity": 57}, {"time": 15238, "pitch": 54, "duration": 10, "velocity": 36}, {"time": 15241, "pitch": 38, "duration": 10, "velocity": 80}, {"time": 15292, "pitch": 38, "duration": 10, "velocity": 102}, {"time": 15358, "pitch": 38, "duration": 10, "velocity": 127}, {"time": 15358, "pitch": 44, "duration": 10, "velocity": 127}, {"time": 15358, "pitch": 53, "duration": 10, "velocity": 127}, {"time": 15358, "pitch": 54, "duration": 10, "velocity": 127}, {"time": 15479, "pitch": 38, "duration": 10, "velocity": 127}, {"time": 15479, "pitch": 54, "duration": 10, "velocity": 66}, {"time": 15599, "pitch": 43, "duration": 10, "velocity": 100}, {"time": 15599, "pitch": 54, "duration": 10, "velocity": 50}, {"time": 15620, "pitch": 43, "duration": 10, "velocity": 127}, {"time": 15720, "pitch": 54, "duration": 10, "velocity": 38}, {"time": 15840, "pitch": 36, "duration": 10, "velocity": 115}, {"time": 15840, "pitch": 42, "duration": 10, "velocity": 97}, {"time": 15840, "pitch": 57, "duration": 10, "velocity": 127}, {"time": 15960, "pitch": 42, "duration": 11, "velocity": 80}, {"time": 16081, "pitch": 46, "duration": 10, "velocity": 117}, {"time": 16322, "pitch": 38, "duration": 10, "velocity": 127}, {"time": 16322, "pitch": 42, "duration": 10, "velocity": 117}, {"time": 16563, "pitch": 36, "duration": 10, "velocity": 115}, {"time": 16563, "pitch": 42, "duration": 10, "velocity": 105}, {"time": 16683, "pitch": 42, "duration": 10, "velocity": 117}, {"time": 16803, "pitch": 36, "duration": 10, "velocity": 115}, {"time": 16803, "pitch": 42, "duration": 10, "velocity": 117}, {"time": 17040, "pitch": 42, "duration": 10, "velocity": 117}, {"time": 17159, "pitch": 42, "duration": 10, "velocity": 97}, {"time": 17277, "pitch": 38, "duration": 10, "velocity": 127}, {"time": 17277, "pitch": 42, "duration": 10, "velocity": 117}, {"time": 17518, "pitch": 42, "duration": 10, "velocity": 117}, {"time": 17639, "pitch": 42, "duration": 10, "velocity": 104}, {"time": 17759, "pitch": 36, "duration": 10, "velocity": 115}, {"time": 17759, "pitch": 42, "duration": 10, "velocity": 117}, {"time": 17880, "pitch": 42, "duration": 10, "velocity": 117}, {"time": 18000, "pitch": 46, "duration": 10, "velocity": 117}, {"time": 18241, "pitch": 38, "duration": 10, "velocity": 127}, {"time": 18241, "pitch": 42, "duration": 10, "velocity": 117}, {"time": 18482, "pitch": 42, "duration": 10, "velocity": 109}, {"time": 18602, "pitch": 42, "duration": 10, "velocity": 117}, {"time": 18723, "pitch": 36, "duration": 10, "velocity": 115}, {"time": 18723, "pitch": 42, "duration": 10, "velocity": 112}, {"time": 18841, "pitch": 38, "duration": 10, "velocity": 127}, {"time": 18841, "pitch": 42, "duration": 10, "velocity": 117}, {"time": 18960, "pitch": 36, "duration": 10, "velocity": 115}, {"time": 18960, "pitch": 46, "duration": 10, "velocity": 115}, {"time": 19197, "pitch": 38, "duration": 10, "velocity": 127}, {"time": 19197, "pitch": 42, "duration": 10, "velocity": 116}, {"time": 19437, "pitch": 36, "duration": 10, "velocity": 115}, {"time": 19437, "pitch": 46, "duration": 10, "velocity": 117}, {"time": 19678, "pitch": 36, "duration": 10, "velocity": 115}, {"time": 19678, "pitch": 42, "duration": 10, "velocity": 111}, {"time": 19799, "pitch": 42, "duration": 10, "velocity": 111}, {"time": 19919, "pitch": 42, "duration": 10, "velocity": 117}, {"time": 20160, "pitch": 38, "duration": 10, "velocity": 127}, {"time": 20160, "pitch": 42, "duration": 10, "velocity": 117}, {"time": 20401, "pitch": 42, "duration": 10, "velocity": 100}, {"time": 20521, "pitch": 42, "duration": 10, "velocity": 117}, {"time": 20642, "pitch": 36, "duration": 10, "velocity": 115}, {"time": 20642, "pitch": 42, "duration": 10, "velocity": 110}, {"time": 20762, "pitch": 42, "duration": 10, "velocity": 105}, {"time": 20883, "pitch": 46, "duration": 10, "velocity": 117}, {"time": 21124, "pitch": 38, "duration": 9, "velocity": 127}, {"time": 21124, "pitch": 42, "duration": 9, "velocity": 117}, {"time": 21360, "pitch": 42, "duration": 10, "velocity": 106}, {"time": 21479, "pitch": 42, "duration": 10, "velocity": 117}, {"time": 21597, "pitch": 36, "duration": 10, "velocity": 115}, {"time": 21597, "pitch": 42, "duration": 10, "velocity": 107}, {"time": 21838, "pitch": 42, "duration": 10, "velocity": 105}, {"time": 21959, "pitch": 42, "duration": 10, "velocity": 117}, {"time": 22079, "pitch": 38, "duration": 10, "velocity": 127}, {"time": 22079, "pitch": 42, "duration": 10, "velocity": 111}, {"time": 22320, "pitch": 42, "duration": 10, "velocity": 117}, {"time": 22441, "pitch": 42, "duration": 10, "velocity": 117}, {"time": 22561, "pitch": 36, "duration": 10, "velocity": 115}, {"time": 22561, "pitch": 42, "duration": 10, "velocity": 97}, {"time": 22681, "pitch": 38, "duration": 10, "velocity": 127}, {"time": 22681, "pitch": 42, "duration": 10, "velocity": 79}, {"time": 22802, "pitch": 36, "duration": 10, "velocity": 115}, {"time": 22802, "pitch": 46, "duration": 10, "velocity": 117}, {"time": 23043, "pitch": 38, "duration": 10, "velocity": 127}, {"time": 23043, "pitch": 42, "duration": 10, "velocity": 102}, {"time": 23161, "pitch": 38, "duration": 10, "velocity": 127}, {"time": 23280, "pitch": 36, "duration": 10, "velocity": 115}, {"time": 23280, "pitch": 46, "duration": 10, "velocity": 117}, {"time": 23398, "pitch": 38, "duration": 10, "velocity": 127}, {"time": 23517, "pitch": 36, "duration": 10, "velocity": 115}, {"time": 23517, "pitch": 42, "duration": 10, "velocity": 117}, {"time": 23517, "pitch": 49, "duration": 10, "velocity": 127}, {"time": 23637, "pitch": 42, "duration": 10, "velocity": 117}, {"time": 23757, "pitch": 42, "duration": 10, "velocity": 102}, {"time": 23998, "pitch": 38, "duration": 10, "velocity": 127}, {"time": 23998, "pitch": 42, "duration": 10, "velocity": 117}, {"time": 24239, "pitch": 42, "duration": 10, "velocity": 93}, {"time": 24360, "pitch": 42, "duration": 10, "velocity": 112}, {"time": 24480, "pitch": 36, "duration": 10, "velocity": 115}, {"time": 24480, "pitch": 42, "duration": 10, "velocity": 104}, {"time": 24721, "pitch": 42, "duration": 10, "velocity": 108}, {"time": 24841, "pitch": 42, "duration": 10, "velocity": 117}, {"time": 24962, "pitch": 38, "duration": 10, "velocity": 127}, {"time": 24962, "pitch": 42, "duration": 10, "velocity": 117}, {"time": 25203, "pitch": 36, "duration": 10, "velocity": 115}, {"time": 25203, "pitch": 42, "duration": 10, "velocity": 113}, {"time": 25323, "pitch": 42, "duration": 10, "velocity": 117}, {"time": 25444, "pitch": 36, "duration": 9, "velocity": 115}, {"time": 25444, "pitch": 42, "duration": 9, "velocity": 116}, {"time": 25562, "pitch": 42, "duration": 10, "velocity": 117}, {"time": 25681, "pitch": 46, "duration": 9, "velocity": 116}, {"time": 25917, "pitch": 38, "duration": 10, "velocity": 127}, {"time": 25917, "pitch": 42, "duration": 10, "velocity": 108}, {"time": 26158, "pitch": 46, "duration": 10, "velocity": 114}, {"time": 26399, "pitch": 36, "duration": 10, "velocity": 115}, {"time": 26399, "pitch": 42, "duration": 10, "velocity": 114}, {"time": 26520, "pitch": 42, "duration": 10, "velocity": 79}, {"time": 26640, "pitch": 46, "duration": 10, "velocity": 90}, {"time": 26881, "pitch": 38, "duration": 10, "velocity": 127}, {"time": 26881, "pitch": 42, "duration": 10, "velocity": 115}, {"time": 27122, "pitch": 36, "duration": 10, "velocity": 115}, {"time": 27122, "pitch": 46, "duration": 10, "velocity": 114}, {"time": 27242, "pitch": 38, "duration": 10, "velocity": 127}, {"time": 27363, "pitch": 36, "duration": 10, "velocity": 115}, {"time": 27363, "pitch": 42, "duration": 10, "velocity": 109}, {"time": 27481, "pitch": 42, "duration": 10, "velocity": 117}, {"time": 27600, "pitch": 42, "duration": 10, "velocity": 103}, {"time": 27837, "pitch": 38, "duration": 10, "velocity": 127}, {"time": 27837, "pitch": 42, "duration": 10, "velocity": 93}, {"time": 28077, "pitch": 42, "duration": 10, "velocity": 108}, {"time": 28198, "pitch": 42, "duration": 10, "velocity": 103}, {"time": 28318, "pitch": 36, "duration": 10, "velocity": 115}, {"time": 28318, "pitch": 42, "duration": 10, "velocity": 117}, {"time": 28439, "pitch": 42, "duration": 10, "velocity": 117}, {"time": 28559, "pitch": 36, "duration": 10, "velocity": 115}, {"time": 28559, "pitch": 46, "duration": 10, "velocity": 91}, {"time": 28800, "pitch": 38, "duration": 10, "velocity": 127}, {"time": 28800, "pitch": 42, "duration": 10, "velocity": 111}, {"time": 29041, "pitch": 36, "duration": 10, "velocity": 115}, {"time": 29041, "pitch": 46, "duration": 10, "velocity": 104}, {"time": 29161, "pitch": 38, "duration": 10, "velocity": 127}, {"time": 29282, "pitch": 36, "duration": 10, "velocity": 115}, {"time": 29282, "pitch": 42, "duration": 10, "velocity": 98}, {"time": 29402, "pitch": 42, "duration": 10, "velocity": 117}, {"time": 29523, "pitch": 42, "duration": 10, "velocity": 97}, {"time": 29764, "pitch": 38, "duration": 9, "velocity": 127}, {"time": 29764, "pitch": 42, "duration": 9, "velocity": 106}, {"time": 30001, "pitch": 36, "duration": 9, "velocity": 115}, {"time": 30001, "pitch": 46, "duration": 9, "velocity": 115}, {"time": 30238, "pitch": 36, "duration": 10, "velocity": 115}, {"time": 30238, "pitch": 42, "duration": 10, "velocity": 113}, {"time": 30358, "pitch": 38, "duration": 10, "velocity": 127}, {"time": 30358, "pitch": 42, "duration": 10, "velocity": 94}, {"time": 30478, "pitch": 36, "duration": 10, "velocity": 115}, {"time": 30478, "pitch": 42, "duration": 10, "velocity": 106}, {"time": 30719, "pitch": 38, "duration": 10, "velocity": 127}, {"time": 30719, "pitch": 42, "duration": 10, "velocity": 117}, {"time": 30960, "pitch": 38, "duration": 10, "velocity": 127}, {"time": 30960, "pitch": 43, "duration": 10, "velocity": 127}, {"time": 30960, "pitch": 46, "duration": 10, "velocity": 90}, {"time": 30960, "pitch": 57, "duration": 10, "velocity": 127}, {"time": 31201, "pitch": 36, "duration": 10, "velocity": 115}, {"time": 31201, "pitch": 42, "duration": 10, "velocity": 117}, {"time": 31201, "pitch": 49, "duration": 10, "velocity": 127}, {"time": 31321, "pitch": 42, "duration": 10, "velocity": 117}, {"time": 31442, "pitch": 42, "duration": 10, "velocity": 102}, {"time": 31683, "pitch": 38, "duration": 10, "velocity": 127}, {"time": 31683, "pitch": 42, "duration": 10, "velocity": 117}, {"time": 31920, "pitch": 42, "duration": 10, "velocity": 93}, {"time": 32038, "pitch": 42, "duration": 10, "velocity": 112}, {"time": 32157, "pitch": 36, "duration": 10, "velocity": 115}, {"time": 32157, "pitch": 42, "duration": 10, "velocity": 104}, {"time": 32397, "pitch": 42, "duration": 11, "velocity": 108}, {"time": 32518, "pitch": 42, "duration": 10, "velocity": 117}, {"time": 32638, "pitch": 38, "duration": 10, "velocity": 127}, {"time": 32638, "pitch": 42, "duration": 10, "velocity": 117}, {"time": 32879, "pitch": 36, "duration": 10, "velocity": 115}, {"time": 32879, "pitch": 42, "duration": 10, "velocity": 113}, {"time": 33000, "pitch": 42, "duration": 10, "velocity": 117}, {"time": 33120, "pitch": 36, "duration": 10, "velocity": 115}, {"time": 33120, "pitch": 42, "duration": 10, "velocity": 116}, {"time": 33241, "pitch": 42, "duration": 10, "velocity": 117}, {"time": 33361, "pitch": 46, "duration": 10, "velocity": 116}, {"time": 33602, "pitch": 38, "duration": 10, "velocity": 127}, {"time": 33602, "pitch": 42, "duration": 10, "velocity": 108}, {"time": 33843, "pitch": 46, "duration": 10, "velocity": 114}, {"time": 34084, "pitch": 36, "duration": 9, "velocity": 115}, {"time": 34084, "pitch": 42, "duration": 9, "velocity": 114}, {"time": 34202, "pitch": 42, "duration": 10, "velocity": 79}, {"time": 34321, "pitch": 46, "duration": 9, "velocity": 90}, {"time": 34558, "pitch": 38, "duration": 10, "velocity": 127}, {"time": 34558, "pitch": 42, "duration": 10, "velocity": 115}, {"time": 34798, "pitch": 36, "duration": 10, "velocity": 115}, {"time": 34798, "pitch": 46, "duration": 10, "velocity": 114}, {"time": 34919, "pitch": 38, "duration": 10, "velocity": 127}, {"time": 35039, "pitch": 36, "duration": 10, "velocity": 115}, {"time": 35039, "pitch": 42, "duration": 10, "velocity": 109}, {"time": 35160, "pitch": 42, "duration": 10, "velocity": 117}, {"time": 35280, "pitch": 42, "duration": 10, "velocity": 103}, {"time": 35521, "pitch": 38, "duration": 10, "velocity": 127}, {"time": 35521, "pitch": 42, "duration": 10, "velocity": 93}, {"time": 35762, "pitch": 42, "duration": 10, "velocity": 108}, {"time": 35882, "pitch": 42, "duration": 10, "velocity": 103}, {"time": 36003, "pitch": 36, "duration": 10, "velocity": 115}, {"time": 36003, "pitch": 42, "duration": 10, "velocity": 117}, {"time": 36121, "pitch": 42, "duration": 10, "velocity": 117}, {"time": 36240, "pitch": 36, "duration": 10, "velocity": 115}, {"time": 36240, "pitch": 46, "duration": 10, "velocity": 91}, {"time": 36477, "pitch": 38, "duration": 10, "velocity": 127}, {"time": 36477, "pitch": 42, "duration": 10, "velocity": 111}, {"time": 36717, "pitch": 36, "duration": 11, "velocity": 115}, {"time": 36717, "pitch": 46, "duration": 11, "velocity": 104}, {"time": 36838, "pitch": 38, "duration": 10, "velocity": 127}, {"time": 36958, "pitch": 36, "duration": 10, "velocity": 115}, {"time": 36958, "pitch": 42, "duration": 10, "velocity": 77}, {"time": 37199, "pitch": 36, "duration": 10, "velocity": 115}, {"time": 37199, "pitch": 46, "duration": 10, "velocity": 104}, {"time": 37440, "pitch": 38, "duration": 10, "velocity": 127}, {"time": 37440, "pitch": 42, "duration": 10, "velocity": 93}, {"time": 37681, "pitch": 36, "duration": 10, "velocity": 115}, {"time": 37681, "pitch": 46, "duration": 10, "velocity": 102}, {"time": 37801, "pitch": 38, "duration": 10, "velocity": 127}, {"time": 37922, "pitch": 36, "duration": 10, "velocity": 115}, {"time": 37922, "pitch": 42, "duration": 10, "velocity": 100}, {"time": 38042, "pitch": 38, "duration": 10, "velocity": 127}, {"time": 38163, "pitch": 36, "duration": 10, "velocity": 115}, {"time": 38163, "pitch": 46, "duration": 10, "velocity": 114}, {"time": 38404, "pitch": 38, "duration": 9, "velocity": 127}, {"time": 38404, "pitch": 42, "duration": 9, "velocity": 112}, {"time": 38641, "pitch": 38, "duration": 9, "velocity": 127}, {"time": 38641, "pitch": 42, "duration": 9, "velocity": 117}, {"time": 38641, "pitch": 43, "duration": 9, "velocity": 127}, {"time": 38641, "pitch": 49, "duration": 9, "velocity": 127}, {"time": 38998, "pitch": 60, "duration": 10, "velocity": 127}, {"time": 39118, "pitch": 38, "duration": 10, "velocity": 127}, {"time": 39118, "pitch": 42, "duration": 10, "velocity": 117}, {"time": 39118, "pitch": 43, "duration": 10, "velocity": 127}, {"time": 39118, "pitch": 57, "duration": 10, "velocity": 127}, {"time": 39118, "pitch": 64, "duration": 10, "velocity": 127}, {"time": 39359, "pitch": 38, "duration": 10, "velocity": 127}, {"time": 39359, "pitch": 42, "duration": 10, "velocity": 117}, {"time": 39359, "pitch": 43, "duration": 10, "velocity": 127}, {"time": 39359, "pitch": 57, "duration": 10, "velocity": 127}, {"time": 39359, "pitch": 60, "duration": 10, "velocity": 127}, {"time": 39841, "pitch": 48, "duration": 10, "velocity": 127}, {"time": 39849, "pitch": 50, "duration": 10, "velocity": 100}, {"time": 40082, "pitch": 38, "duration": 10, "velocity": 48}, {"time": 40138, "pitch": 38, "duration": 10, "velocity": 59}, {"time": 40206, "pitch": 38, "duration": 10, "velocity": 84}, {"time": 40263, "pitch": 38, "duration": 10, "velocity": 113}, {"time": 40323, "pitch": 38, "duration": 10, "velocity": 127}, {"time": 40441, "pitch": 38, "duration": 10, "velocity": 127}, {"time": 40560, "pitch": 43, "duration": 10, "velocity": 127}, {"time": 40568, "pitch": 45, "duration": 9, "velocity": 100}, {"time": 40797, "pitch": 36, "duration": 10, "velocity": 115}, {"time": 40797, "pitch": 42, "duration": 10, "velocity": 69}, {"time": 40797, "pitch": 49, "duration": 10, "velocity": 127}, {"time": 40797, "pitch": 57, "duration": 10, "velocity": 127}, {"time": 40797, "pitch": 60, "duration": 10, "velocity": 127}, {"time": 40797, "pitch": 70, "duration": 10, "velocity": 127}, {"time": 40917, "pitch": 42, "duration": 10, "velocity": 65}, {"time": 40917, "pitch": 70, "duration": 10, "velocity": 45}, {"time": 41038, "pitch": 46, "duration": 10, "velocity": 98}, {"time": 41038, "pitch": 64, "duration": 10, "velocity": 127}, {"time": 41038, "pitch": 70, "duration": 10, "velocity": 41}, {"time": 41158, "pitch": 70, "duration": 10, "velocity": 43}, {"time": 41278, "pitch": 38, "duration": 10, "velocity": 127}, {"time": 41278, "pitch": 42, "duration": 10, "velocity": 97}, {"time": 41278, "pitch": 61, "duration": 10, "velocity": 127}, {"time": 41278, "pitch": 70, "duration": 10, "velocity": 127}, {"time": 41399, "pitch": 70, "duration": 10, "velocity": 70}, {"time": 41519, "pitch": 42, "duration": 10, "velocity": 56}, {"time": 41519, "pitch": 62, "duration": 10, "velocity": 127}, {"time": 41519, "pitch": 70, "duration": 10, "velocity": 45}, {"time": 41640, "pitch": 42, "duration": 10, "velocity": 80}, {"time": 41640, "pitch": 62, "duration": 10, "velocity": 127}, {"time": 41640, "pitch": 70, "duration": 10, "velocity": 46}, {"time": 41760, "pitch": 36, "duration": 10, "velocity": 115}, {"time": 41760, "pitch": 42, "duration": 10, "velocity": 66}, {"time": 41760, "pitch": 60, "duration": 10, "velocity": 127}, {"time": 41760, "pitch": 70, "duration": 10, "velocity": 127}, {"time": 41881, "pitch": 70, "duration": 10, "velocity": 53}, {"time": 42001, "pitch": 36, "duration": 10, "velocity": 115}, {"time": 42001, "pitch": 42, "duration": 10, "velocity": 101}, {"time": 42001, "pitch": 64, "duration": 10, "velocity": 127}, {"time": 42001, "pitch": 70, "duration": 10, "velocity": 43}, {"time": 42121, "pitch": 70, "duration": 10, "velocity": 58}, {"time": 42242, "pitch": 38, "duration": 10, "velocity": 127}, {"time": 42242, "pitch": 42, "duration": 10, "velocity": 79}, {"time": 42242, "pitch": 54, "duration": 10, "velocity": 127}, {"time": 42242, "pitch": 61, "duration": 10, "velocity": 127}, {"time": 42242, "pitch": 70, "duration": 10, "velocity": 127}, {"time": 42362, "pitch": 70, "duration": 10, "velocity": 57}, {"time": 42483, "pitch": 36, "duration": 10, "velocity": 115}, {"time": 42483, "pitch": 42, "duration": 10, "velocity": 83}, {"time": 42483, "pitch": 62, "duration": 10, "velocity": 127}, {"time": 42483, "pitch": 70, "duration": 10, "velocity": 58}, {"time": 42603, "pitch": 62, "duration": 10, "velocity": 127}, {"time": 42603, "pitch": 70, "duration": 10, "velocity": 83}, {"time": 42724, "pitch": 42, "duration": 9, "velocity": 82}, {"time": 42724, "pitch": 60, "duration": 9, "velocity": 127}, {"time": 42724, "pitch": 70, "duration": 9, "velocity": 127}, {"time": 42842, "pitch": 42, "duration": 10, "velocity": 97}, {"time": 42842, "pitch": 70, "duration": 10, "velocity": 45}, {"time": 42961, "pitch": 36, "duration": 9, "velocity": 115}, {"time": 42961, "pitch": 46, "duration": 9, "velocity": 90}, {"time": 42961, "pitch": 64, "duration": 9, "velocity": 127}, {"time": 42961, "pitch": 70, "duration": 9, "velocity": 41}, {"time": 43079, "pitch": 70, "duration": 10, "velocity": 43}, {"time": 43198, "pitch": 38, "duration": 10, "velocity": 127}, {"time": 43198, "pitch": 42, "duration": 10, "velocity": 87}, {"time": 43198, "pitch": 61, "duration": 10, "velocity": 127}, {"time": 43198, "pitch": 70, "duration": 10, "velocity": 127}, {"time": 43318, "pitch": 70, "duration": 10, "velocity": 70}, {"time": 43438, "pitch": 42, "duration": 10, "velocity": 60}, {"time": 43438, "pitch": 62, "duration": 10, "velocity": 127}, {"time": 43438, "pitch": 70, "duration": 10, "velocity": 45}, {"time": 43559, "pitch": 42, "duration": 10, "velocity": 105}, {"time": 43559, "pitch": 62, "duration": 10, "velocity": 127}, {"time": 43559, "pitch": 70, "duration": 10, "velocity": 46}, {"time": 43679, "pitch": 36, "duration": 10, "velocity": 115}, {"time": 43679, "pitch": 42, "duration": 10, "velocity": 78}, {"time": 43679, "pitch": 60, "duration": 10, "velocity": 127}, {"time": 43679, "pitch": 70, "duration": 10, "velocity": 127}, {"time": 43800, "pitch": 70, "duration": 10, "velocity": 53}, {"time": 43920, "pitch": 36, "duration": 10, "velocity": 115}, {"time": 43920, "pitch": 42, "duration": 10, "velocity": 87}, {"time": 43920, "pitch": 64, "duration": 10, "velocity": 127}, {"time": 43920, "pitch": 70, "duration": 10, "velocity": 43}, {"time": 44041, "pitch": 64, "duration": 10, "velocity": 127}, {"time": 44041, "pitch": 70, "duration": 10, "velocity": 58}, {"time": 44161, "pitch": 38, "duration": 10, "velocity": 127}, {"time": 44161, "pitch": 42, "duration": 10, "velocity": 98}, {"time": 44161, "pitch": 54, "duration": 10, "velocity": 127}, {"time": 44161, "pitch": 63, "duration": 10, "velocity": 127}, {"time": 44161, "pitch": 70, "duration": 10, "velocity": 127}, {"time": 44281, "pitch": 70, "duration": 10, "velocity": 57}, {"time": 44402, "pitch": 36, "duration": 10, "velocity": 115}, {"time": 44402, "pitch": 46, "duration": 10, "velocity": 88}, {"time": 44402, "pitch": 54, "duration": 10, "velocity": 127}, {"time": 44402, "pitch": 62, "duration": 10, "velocity": 127}, {"time": 44402, "pitch": 70, "duration": 10, "velocity": 58}, {"time": 44522, "pitch": 62, "duration": 10, "velocity": 127}, {"time": 44522, "pitch": 70, "duration": 10, "velocity": 83}, {"time": 44643, "pitch": 42, "duration": 10, "velocity": 85}, {"time": 44643, "pitch": 60, "duration": 10, "velocity": 127}, {"time": 44643, "pitch": 70, "duration": 10, "velocity": 127}, {"time": 44761, "pitch": 70, "duration": 10, "velocity": 45}, {"time": 44880, "pitch": 36, "duration": 10, "velocity": 115}, {"time": 44880, "pitch": 42, "duration": 10, "velocity": 81}, {"time": 44880, "pitch": 64, "duration": 10, "velocity": 127}, {"time": 44880, "pitch": 70, "duration": 10, "velocity": 41}, {"time": 44998, "pitch": 64, "duration": 10, "velocity": 127}, {"time": 44998, "pitch": 70, "duration": 10, "velocity": 43}, {"time": 45117, "pitch": 38, "duration": 10, "velocity": 127}, {"time": 45117, "pitch": 42, "duration": 10, "velocity": 95}, {"time": 45117, "pitch": 61, "duration": 10, "velocity": 127}, {"time": 45117, "pitch": 70, "duration": 10, "velocity": 127}, {"time": 45237, "pitch": 70, "duration": 10, "velocity": 70}, {"time": 45358, "pitch": 46, "duration": 10, "velocity": 98}, {"time": 45358, "pitch": 62, "duration": 10, "velocity": 127}, {"time": 45358, "pitch": 70, "duration": 10, "velocity": 45}, {"time": 45478, "pitch": 62, "duration": 10, "velocity": 127}, {"time": 45478, "pitch": 70, "duration": 10, "velocity": 46}, {"time": 45598, "pitch": 36, "duration": 10, "velocity": 115}, {"time": 45598, "pitch": 42, "duration": 10, "velocity": 74}, {"time": 45598, "pitch": 60, "duration": 10, "velocity": 127}, {"time": 45598, "pitch": 70, "duration": 10, "velocity": 127}, {"time": 45719, "pitch": 70, "duration": 10, "velocity": 53}, {"time": 45839, "pitch": 42, "duration": 10, "velocity": 92}, {"time": 45839, "pitch": 64, "duration": 10, "velocity": 127}, {"time": 45839, "pitch": 70, "duration": 10, "velocity": 43}, {"time": 45960, "pitch": 64, "duration": 10, "velocity": 127}, {"time": 45960, "pitch": 70, "duration": 10, "velocity": 58}, {"time": 46080, "pitch": 38, "duration": 10, "velocity": 127}, {"time": 46080, "pitch": 42, "duration": 10, "velocity": 95}, {"time": 46080, "pitch": 54, "duration": 10, "velocity": 127}, {"time": 46080, "pitch": 61, "duration": 10, "velocity": 127}, {"time": 46080, "pitch": 70, "duration": 10, "velocity": 127}, {"time": 46201, "pitch": 70, "duration": 10, "velocity": 57}, {"time": 46321, "pitch": 36, "duration": 10, "velocity": 115}, {"time": 46321, "pitch": 42, "duration": 10, "velocity": 80}, {"time": 46321, "pitch": 62, "duration": 10, "velocity": 127}, {"time": 46321, "pitch": 70, "duration": 10, "velocity": 58}, {"time": 46441, "pitch": 42, "duration": 10, "velocity": 95}, {"time": 46441, "pitch": 62, "duration": 10, "velocity": 127}, {"time": 46441, "pitch": 70, "duration": 10, "velocity": 83}, {"time": 46562, "pitch": 36, "duration": 10, "velocity": 115}, {"time": 46562, "pitch": 42, "duration": 10, "velocity": 68}, {"time": 46562, "pitch": 60, "duration": 10, "velocity": 127}, {"time": 46562, "pitch": 70, "duration": 10, "velocity": 127}, {"time": 46682, "pitch": 70, "duration": 10, "velocity": 45}, {"time": 46803, "pitch": 42, "duration": 10, "velocity": 100}, {"time": 46803, "pitch": 64, "duration": 10, "velocity": 127}, {"time": 46803, "pitch": 70, "duration": 10, "velocity": 41}, {"time": 46923, "pitch": 70, "duration": 10, "velocity": 43}, {"time": 47044, "pitch": 38, "duration": 9, "velocity": 127}, {"time": 47044, "pitch": 42, "duration": 9, "velocity": 95}, {"time": 47044, "pitch": 63, "duration": 9, "velocity": 127}, {"time": 47044, "pitch": 70, "duration": 9, "velocity": 127}, {"time": 47162, "pitch": 70, "duration": 10, "velocity": 70}, {"time": 47281, "pitch": 36, "duration": 9, "velocity": 115}, {"time": 47281, "pitch": 42, "duration": 9, "velocity": 86}, {"time": 47281, "pitch": 64, "duration": 9, "velocity": 127}, {"time": 47281, "pitch": 70, "duration": 9, "velocity": 45}, {"time": 47399, "pitch": 42, "duration": 10, "velocity": 105}, {"time": 47399, "pitch": 64, "duration": 10, "velocity": 127}, {"time": 47399, "pitch": 70, "duration": 10, "velocity": 46}, {"time": 47518, "pitch": 42, "duration": 10, "velocity": 83}, {"time": 47518, "pitch": 60, "duration": 10, "velocity": 127}, {"time": 47518, "pitch": 70, "duration": 10, "velocity": 127}, {"time": 47638, "pitch": 62, "duration": 10, "velocity": 127}, {"time": 47638, "pitch": 70, "duration": 10, "velocity": 53}, {"time": 47758, "pitch": 36, "duration": 10, "velocity": 115}, {"time": 47758, "pitch": 46, "duration": 10, "velocity": 98}, {"time": 47758, "pitch": 70, "duration": 10, "velocity": 43}, {"time": 47879, "pitch": 62, "duration": 10, "velocity": 127}, {"time": 47879, "pitch": 70, "duration": 10, "velocity": 58}, {"time": 47999, "pitch": 38, "duration": 10, "velocity": 127}, {"time": 47999, "pitch": 42, "duration": 10, "velocity": 96}, {"time": 47999, "pitch": 54, "duration": 10, "velocity": 127}, {"time": 47999, "pitch": 61, "duration": 10, "velocity": 127}, {"time": 47999, "pitch": 70, "duration": 10, "velocity": 127}, {"time": 48120, "pitch": 70, "duration": 10, "velocity": 57}, {"time": 48240, "pitch": 36, "duration": 10, "velocity": 115}, {"time": 48240, "pitch": 42, "duration": 10, "velocity": 83}, {"time": 48240, "pitch": 54, "duration": 10, "velocity": 127}, {"time": 48240, "pitch": 64, "duration": 10, "velocity": 127}, {"time": 48240, "pitch": 70, "duration": 10, "velocity": 58}, {"time": 48361, "pitch": 42, "duration": 10, "velocity": 82}, {"time": 48361, "pitch": 64, "duration": 10, "velocity": 127}, {"time": 48361, "pitch": 70, "duration": 10, "velocity": 83}, {"time": 48481, "pitch": 36, "duration": 10, "velocity": 115}, {"time": 48481, "pitch": 42, "duration": 10, "velocity": 78}, {"time": 48481, "pitch": 60, "duration": 10, "velocity": 127}, {"time": 48481, "pitch": 70, "duration": 10, "velocity": 127}, {"time": 48601, "pitch": 70, "duration": 10, "velocity": 45}, {"time": 48722, "pitch": 42, "duration": 10, "velocity": 87}, {"time": 48722, "pitch": 62, "duration": 10, "velocity": 127}, {"time": 48722, "pitch": 70, "duration": 10, "velocity": 41}, {"time": 48842, "pitch": 62, "duration": 10, "velocity": 127}, {"time": 48842, "pitch": 70, "duration": 10, "velocity": 43}, {"time": 48963, "pitch": 38, "duration": 10, "velocity": 127}, {"time": 48963, "pitch": 42, "duration": 10, "velocity": 88}, {"time": 48963, "pitch": 61, "duration": 10, "velocity": 127}, {"time": 48963, "pitch": 70, "duration": 10, "velocity": 127}, {"time": 49081, "pitch": 70, "duration": 10, "velocity": 70}, {"time": 49200, "pitch": 42, "duration": 10, "velocity": 69}, {"time": 49200, "pitch": 64, "duration": 10, "velocity": 127}, {"time": 49200, "pitch": 70, "duration": 10, "velocity": 45}, {"time": 49318, "pitch": 42, "duration": 10, "velocity": 87}, {"time": 49318, "pitch": 64, "duration": 10, "velocity": 127}, {"time": 49318, "pitch": 70, "duration": 10, "velocity": 46}, {"time": 49437, "pitch": 36, "duration": 10, "velocity": 115}, {"time": 49437, "pitch": 42, "duration": 10, "velocity": 73}, {"time": 49437, "pitch": 60, "duration": 10, "velocity": 127}, {"time": 49437, "pitch": 70, "duration": 10, "velocity": 127}, {"time": 49557, "pitch": 42, "duration": 10, "velocity": 100}, {"time": 49557, "pitch": 70, "duration": 10, "velocity": 53}, {"time": 49678, "pitch": 36, "duration": 10, "velocity": 115}, {"time": 49678, "pitch": 46, "duration": 10, "velocity": 95}, {"time": 49678, "pitch": 62, "duration": 10, "velocity": 127}, {"time": 49678, "pitch": 70, "duration": 10, "velocity": 43}, {"time": 49798, "pitch": 62, "duration": 10, "velocity": 127}, {"time": 49798, "pitch": 70, "duration": 10, "velocity": 58}, {"time": 49918, "pitch": 38, "duration": 10, "velocity": 127}, {"time": 49918, "pitch": 42, "duration": 10, "velocity": 95}, {"time": 49918, "pitch": 54, "duration": 10, "velocity": 127}, {"time": 49918, "pitch": 61, "duration": 10, "velocity": 127}, {"time": 49918, "pitch": 70, "duration": 10, "velocity": 127}, {"time": 50039, "pitch": 70, "duration": 10, "velocity": 57}, {"time": 50159, "pitch": 36, "duration": 10, "velocity": 115}, {"time": 50159, "pitch": 42, "duration": 10, "velocity": 78}, {"time": 50159, "pitch": 64, "duration": 10, "velocity": 127}, {"time": 50159, "pitch": 70, "duration": 10, "velocity": 58}, {"time": 50280, "pitch": 64, "duration": 10, "velocity": 127}, {"time": 50280, "pitch": 70, "duration": 10, "velocity": 83}, {"time": 50400, "pitch": 42, "duration": 10, "velocity": 78}, {"time": 50400, "pitch": 60, "duration": 10, "velocity": 127}, {"time": 50400, "pitch": 70, "duration": 10, "velocity": 127}, {"time": 50521, "pitch": 70, "duration": 10, "velocity": 45}, {"time": 50641, "pitch": 36, "duration": 10, "velocity": 115}, {"time": 50641, "pitch": 42, "duration": 10, "velocity": 64}, {"time": 50641, "pitch": 62, "duration": 10, "velocity": 127}, {"time": 50641, "pitch": 70, "duration": 10, "velocity": 41}, {"time": 50761, "pitch": 62, "duration": 11, "velocity": 127}, {"time": 50761, "pitch": 70, "duration": 11, "velocity": 43}, {"time": 50882, "pitch": 38, "duration": 10, "velocity": 127}, {"time": 50882, "pitch": 42, "duration": 10, "velocity": 87}, {"time": 50882, "pitch": 61, "duration": 10, "velocity": 127}, {"time": 50882, "pitch": 70, "duration": 10, "velocity": 127}, {"time": 51002, "pitch": 70, "duration": 10, "velocity": 70}, {"time": 51123, "pitch": 42, "duration": 10, "velocity": 77}, {"time": 51123, "pitch": 64, "duration": 10, "velocity": 127}, {"time": 51123, "pitch": 70, "duration": 10, "velocity": 45}, {"time": 51243, "pitch": 42, "duration": 10, "velocity": 74}, {"time": 51243, "pitch": 64, "duration": 10, "velocity": 127}, {"time": 51243, "pitch": 70, "duration": 10, "velocity": 46}, {"time": 51364, "pitch": 36, "duration": 9, "velocity": 115}, {"time": 51364, "pitch": 42, "duration": 9, "velocity": 81}, {"time": 51364, "pitch": 60, "duration": 9, "velocity": 127}, {"time": 51364, "pitch": 70, "duration": 9, "velocity": 127}, {"time": 51482, "pitch": 42, "duration": 10, "velocity": 115}, {"time": 51482, "pitch": 70, "duration": 10, "velocity": 53}, {"time": 51601, "pitch": 36, "duration": 9, "velocity": 115}, {"time": 51601, "pitch": 46, "duration": 9, "velocity": 95}, {"time": 51601, "pitch": 62, "duration": 9, "velocity": 127}, {"time": 51601, "pitch": 70, "duration": 9, "velocity": 43}, {"time": 51719, "pitch": 62, "duration": 10, "velocity": 127}, {"time": 51719, "pitch": 70, "duration": 10, "velocity": 58}, {"time": 51838, "pitch": 38, "duration": 10, "velocity": 127}, {"time": 51838, "pitch": 42, "duration": 10, "velocity": 91}, {"time": 51838, "pitch": 54, "duration": 10, "velocity": 127}, {"time": 51838, "pitch": 63, "duration": 10, "velocity": 127}, {"time": 51838, "pitch": 70, "duration": 10, "velocity": 127}, {"time": 51958, "pitch": 70, "duration": 10, "velocity": 57}, {"time": 52078, "pitch": 36, "duration": 10, "velocity": 115}, {"time": 52078, "pitch": 42, "duration": 10, "velocity": 69}, {"time": 52078, "pitch": 54, "duration": 10, "velocity": 127}, {"time": 52078, "pitch": 64, "duration": 10, "velocity": 127}, {"time": 52078, "pitch": 70, "duration": 10, "velocity": 58}, {"time": 52199, "pitch": 42, "duration": 10, "velocity": 93}, {"time": 52199, "pitch": 64, "duration": 10, "velocity": 127}, {"time": 52199, "pitch": 70, "duration": 10, "velocity": 83}, {"time": 52319, "pitch": 42, "duration": 10, "velocity": 54}, {"time": 52319, "pitch": 60, "duration": 10, "velocity": 127}, {"time": 52319, "pitch": 70, "duration": 10, "velocity": 127}, {"time": 52440, "pitch": 70, "duration": 10, "velocity": 45}, {"time": 52560, "pitch": 36, "duration": 10, "velocity": 115}, {"time": 52560, "pitch": 42, "duration": 10, "velocity": 78}, {"time": 52560, "pitch": 62, "duration": 10, "velocity": 127}, {"time": 52560, "pitch": 70, "duration": 10, "velocity": 41}, {"time": 52681, "pitch": 62, "duration": 10, "velocity": 127}, {"time": 52681, "pitch": 70, "duration": 10, "velocity": 43}, {"time": 52801, "pitch": 38, "duration": 10, "velocity": 127}, {"time": 52801, "pitch": 42, "duration": 10, "velocity": 91}, {"time": 52801, "pitch": 61, "duration": 10, "velocity": 127}, {"time": 52801, "pitch": 70, "duration": 10, "velocity": 127}, {"time": 52921, "pitch": 70, "duration": 11, "velocity": 70}, {"time": 53042, "pitch": 42, "duration": 10, "velocity": 59}, {"time": 53042, "pitch": 64, "duration": 10, "velocity": 127}, {"time": 53042, "pitch": 70, "duration": 10, "velocity": 45}, {"time": 53162, "pitch": 42, "duration": 10, "velocity": 95}, {"time": 53162, "pitch": 64, "duration": 10, "velocity": 127}, {"time": 53162, "pitch": 70, "duration": 10, "velocity": 46}, {"time": 53283, "pitch": 36, "duration": 10, "velocity": 115}, {"time": 53283, "pitch": 42, "duration": 10, "velocity": 85}, {"time": 53283, "pitch": 60, "duration": 10, "velocity": 127}, {"time": 53283, "pitch": 70, "duration": 10, "velocity": 127}, {"time": 53401, "pitch": 70, "duration": 10, "velocity": 53}, {"time": 53520, "pitch": 42, "duration": 10, "velocity": 73}, {"time": 53520, "pitch": 62, "duration": 10, "velocity": 127}, {"time": 53520, "pitch": 70, "duration": 10, "velocity": 43}, {"time": 53638, "pitch": 42, "duration": 10, "velocity": 104}, {"time": 53638, "pitch": 62, "duration": 10, "velocity": 127}, {"time": 53638, "pitch": 70, "duration": 10, "velocity": 58}, {"time": 53757, "pitch": 38, "duration": 10, "velocity": 127}, {"time": 53757, "pitch": 42, "duration": 10, "velocity": 80}, {"time": 53757, "pitch": 54, "duration": 10, "velocity": 127}, {"time": 53757, "pitch": 63, "duration": 10, "velocity": 127}, {"time": 53757, "pitch": 70, "duration": 10, "velocity": 127}, {"time": 53877, "pitch": 63, "duration": 10, "velocity": 127}, {"time": 53877, "pitch": 70, "duration": 10, "velocity": 57}, {"time": 53998, "pitch": 36, "duration": 10, "velocity": 115}, {"time": 53998, "pitch": 46, "duration": 10, "velocity": 75}, {"time": 53998, "pitch": 64, "duration": 10, "velocity": 127}, {"time": 53998, "pitch": 70, "duration": 10, "velocity": 58}, {"time": 54118, "pitch": 64, "duration": 10, "velocity": 127}, {"time": 54118, "pitch": 70, "duration": 10, "velocity": 83}, {"time": 54238, "pitch": 36, "duration": 10, "velocity": 115}, {"time": 54238, "pitch": 42, "duration": 10, "velocity": 78}, {"time": 54238, "pitch": 60, "duration": 10, "velocity": 127}, {"time": 54238, "pitch": 70, "duration": 10, "velocity": 127}, {"time": 54359, "pitch": 70, "duration": 10, "velocity": 45}, {"time": 54479, "pitch": 46, "duration": 10, "velocity": 91}, {"time": 54479, "pitch": 62, "duration": 10, "velocity": 127}, {"time": 54479, "pitch": 70, "duration": 10, "velocity": 41}, {"time": 54600, "pitch": 62, "duration": 10, "velocity": 127}, {"time": 54600, "pitch": 70, "duration": 10, "velocity": 43}, {"time": 54720, "pitch": 38, "duration": 10, "velocity": 127}, {"time": 54720, "pitch": 42, "duration": 10, "velocity": 104}, {"time": 54720, "pitch": 61, "duration": 10, "velocity": 127}, {"time": 54720, "pitch": 70, "duration": 10, "velocity": 127}, {"time": 54841, "pitch": 70, "duration": 10, "velocity": 70}, {"time": 54961, "pitch": 36, "duration": 10, "velocity": 115}, {"time": 54961, "pitch": 46, "duration": 10, "velocity": 95}, {"time": 54961, "pitch": 64, "duration": 10, "velocity": 127}, {"time": 54961, "pitch": 70, "duration": 10, "velocity": 45}, {"time": 55081, "pitch": 64, "duration": 11, "velocity": 127}, {"time": 55081, "pitch": 70, "duration": 11, "velocity": 46}, {"time": 55202, "pitch": 42, "duration": 10, "velocity": 75}, {"time": 55202, "pitch": 47, "duration": 10, "velocity": 100}, {"time": 55202, "pitch": 60, "duration": 10, "velocity": 127}, {"time": 55202, "pitch": 70, "duration": 10, "velocity": 127}, {"time": 55223, "pitch": 47, "duration": 10, "velocity": 127}, {"time": 55322, "pitch": 70, "duration": 10, "velocity": 53}, {"time": 55443, "pitch": 38, "duration": 10, "velocity": 62}, {"time": 55443, "pitch": 42, "duration": 10, "velocity": 94}, {"time": 55443, "pitch": 62, "duration": 10, "velocity": 127}, {"time": 55443, "pitch": 70, "duration": 10, "velocity": 43}, {"time": 55503, "pitch": 38, "duration": 10, "velocity": 73}, {"time": 55554, "pitch": 38, "duration": 10, "velocity": 86}, {"time": 55563, "pitch": 62, "duration": 10, "velocity": 127}, {"time": 55563, "pitch": 70, "duration": 10, "velocity": 58}, {"time": 55614, "pitch": 38, "duration": 10, "velocity": 107}, {"time": 55684, "pitch": 38, "duration": 9, "velocity": 127}, {"time": 55684, "pitch": 42, "duration": 9, "velocity": 69}, {"time": 55684, "pitch": 54, "duration": 9, "velocity": 127}, {"time": 55684, "pitch": 63, "duration": 9, "velocity": 127}, {"time": 55684, "pitch": 70, "duration": 9, "velocity": 127}, {"time": 55802, "pitch": 38, "duration": 10, "velocity": 127}, {"time": 55802, "pitch": 63, "duration": 10, "velocity": 127}, {"time": 55802, "pitch": 70, "duration": 10, "velocity": 57}, {"time": 55921, "pitch": 42, "duration": 9, "velocity": 91}, {"time": 55921, "pitch": 43, "duration": 9, "velocity": 100}, {"time": 55921, "pitch": 54, "duration": 9, "velocity": 127}, {"time": 55921, "pitch": 64, "duration": 9, "velocity": 127}, {"time": 55921, "pitch": 70, "duration": 9, "velocity": 58}, {"time": 55947, "pitch": 43, "duration": 10, "velocity": 127}, {"time": 56039, "pitch": 64, "duration": 10, "velocity": 127}, {"time": 56039, "pitch": 70, "duration": 10, "velocity": 83}, {"time": 56158, "pitch": 36, "duration": 10, "velocity": 115}, {"time": 56158, "pitch": 42, "duration": 10, "velocity": 69}, {"time": 56158, "pitch": 49, "duration": 10, "velocity": 127}, {"time": 56158, "pitch": 57, "duration": 10, "velocity": 127}, {"time": 56158, "pitch": 60, "duration": 10, "velocity": 127}, {"time": 56158, "pitch": 70, "duration": 10, "velocity": 127}, {"time": 56278, "pitch": 42, "duration": 10, "velocity": 65}, {"time": 56278, "pitch": 70, "duration": 10, "velocity": 45}, {"time": 56398, "pitch": 46, "duration": 10, "velocity": 98}, {"time": 56398, "pitch": 64, "duration": 10, "velocity": 127}, {"time": 56398, "pitch": 70, "duration": 10, "velocity": 41}, {"time": 56519, "pitch": 70, "duration": 10, "velocity": 43}, {"time": 56639, "pitch": 38, "duration": 10, "velocity": 127}, {"time": 56639, "pitch": 42, "duration": 10, "velocity": 97}, {"time": 56639, "pitch": 61, "duration": 10, "velocity": 127}, {"time": 56639, "pitch": 70, "duration": 10, "velocity": 127}, {"time": 56760, "pitch": 70, "duration": 10, "velocity": 70}, {"time": 56880, "pitch": 42, "duration": 10, "velocity": 56}, {"time": 56880, "pitch": 62, "duration": 10, "velocity": 127}, {"time": 56880, "pitch": 70, "duration": 10, "velocity": 45}, {"time": 57001, "pitch": 42, "duration": 10, "velocity": 80}, {"time": 57001, "pitch": 62, "duration": 10, "velocity": 127}, {"time": 57001, "pitch": 70, "duration": 10, "velocity": 46}, {"time": 57121, "pitch": 36, "duration": 10, "velocity": 115}, {"time": 57121, "pitch": 42, "duration": 10, "velocity": 66}, {"time": 57121, "pitch": 60, "duration": 10, "velocity": 127}, {"time": 57121, "pitch": 70, "duration": 10, "velocity": 127}, {"time": 57241, "pitch": 70, "duration": 11, "velocity": 53}, {"time": 57362, "pitch": 36, "duration": 10, "velocity": 115}, {"time": 57362, "pitch": 42, "duration": 10, "velocity": 101}, {"time": 57362, "pitch": 64, "duration": 10, "velocity": 127}, {"time": 57362, "pitch": 70, "duration": 10, "velocity": 43}, {"time": 57482, "pitch": 70, "duration": 10, "velocity": 58}, {"time": 57603, "pitch": 38, "duration": 10, "velocity": 127}, {"time": 57603, "pitch": 42, "duration": 10, "velocity": 79}, {"time": 57603, "pitch": 54, "duration": 10, "velocity": 127}, {"time": 57603, "pitch": 61, "duration": 10, "velocity": 127}, {"time": 57603, "pitch": 70, "duration": 10, "velocity": 127}, {"time": 57721, "pitch": 70, "duration": 10, "velocity": 57}, {"time": 57840, "pitch": 36, "duration": 10, "velocity": 115}, {"time": 57840, "pitch": 42, "duration": 10, "velocity": 83}, {"time": 57840, "pitch": 62, "duration": 10, "velocity": 127}, {"time": 57840, "pitch": 70, "duration": 10, "velocity": 58}, {"time": 57958, "pitch": 62, "duration": 10, "velocity": 127}, {"time": 57958, "pitch": 70, "duration": 10, "velocity": 83}, {"time": 58077, "pitch": 42, "duration": 10, "velocity": 82}, {"time": 58077, "pitch": 60, "duration": 10, "velocity": 127}, {"time": 58077, "pitch": 70, "duration": 10, "velocity": 127}, {"time": 58197, "pitch": 42, "duration": 10, "velocity": 97}, {"time": 58197, "pitch": 70, "duration": 10, "velocity": 45}, {"time": 58318, "pitch": 36, "duration": 10, "velocity": 115}, {"time": 58318, "pitch": 46, "duration": 10, "velocity": 90}, {"time": 58318, "pitch": 64, "duration": 10, "velocity": 127}, {"time": 58318, "pitch": 70, "duration": 10, "velocity": 41}, {"time": 58438, "pitch": 70, "duration": 10, "velocity": 43}, {"time": 58558, "pitch": 38, "duration": 10, "velocity": 127}, {"time": 58558, "pitch": 42, "duration": 10, "velocity": 87}, {"time": 58558, "pitch": 61, "duration": 10, "velocity": 127}, {"time": 58558, "pitch": 70, "duration": 10, "velocity": 127}, {"time": 58679, "pitch": 70, "duration": 10, "velocity": 70}, {"time": 58799, "pitch": 42, "duration": 10, "velocity": 60}, {"time": 58799, "pitch": 62, "duration": 10, "velocity": 127}, {"time": 58799, "pitch": 70, "duration": 10, "velocity": 45}, {"time": 58920, "pitch": 42, "duration": 10, "velocity": 105}, {"time": 58920, "pitch": 62, "duration": 10, "velocity": 127}, {"time": 58920, "pitch": 70, "duration": 10, "velocity": 46}, {"time": 59040, "pitch": 36, "duration": 10, "velocity": 115}, {"time": 59040, "pitch": 42, "duration": 10, "velocity": 78}, {"time": 59040, "pitch": 60, "duration": 10, "velocity": 127}, {"time": 59040, "pitch": 70, "duration": 10, "velocity": 127}, {"time": 59161, "pitch": 70, "duration": 10, "velocity": 53}, {"time": 59281, "pitch": 36, "duration": 10, "velocity": 115}, {"time": 59281, "pitch": 42, "duration": 10, "velocity": 87}, {"time": 59281, "pitch": 64, "duration": 10, "velocity": 127}, {"time": 59281, "pitch": 70, "duration": 10, "velocity": 43}, {"time": 59401, "pitch": 64, "duration": 11, "velocity": 127}, {"time": 59401, "pitch": 70, "duration": 11, "velocity": 58}, {"time": 59522, "pitch": 38, "duration": 10, "velocity": 127}, {"time": 59522, "pitch": 42, "duration": 10, "velocity": 98}, {"time": 59522, "pitch": 54, "duration": 10, "velocity": 127}, {"time": 59522, "pitch": 63, "duration": 10, "velocity": 127}, {"time": 59522, "pitch": 70, "duration": 10, "velocity": 127}, {"time": 59642, "pitch": 70, "duration": 10, "velocity": 57}, {"time": 59763, "pitch": 36, "duration": 10, "velocity": 115}, {"time": 59763, "pitch": 46, "duration": 10, "velocity": 88}, {"time": 59763, "pitch": 54, "duration": 10, "velocity": 127}, {"time": 59763, "pitch": 62, "duration": 10, "velocity": 127}, {"time": 59763, "pitch": 70, "duration": 10, "velocity": 58}, {"time": 59883, "pitch": 62, "duration": 10, "velocity": 127}, {"time": 59883, "pitch": 70, "duration": 10, "velocity": 83}, {"time": 60004, "pitch": 42, "duration": 9, "velocity": 85}, {"time": 60004, "pitch": 60, "duration": 9, "velocity": 127}, {"time": 60004, "pitch": 70, "duration": 9, "velocity": 127}, {"time": 60122, "pitch": 70, "duration": 10, "velocity": 45}, {"time": 60241, "pitch": 36, "duration": 9, "velocity": 115}, {"time": 60241, "pitch": 42, "duration": 9, "velocity": 81}, {"time": 60241, "pitch": 64, "duration": 9, "velocity": 127}, {"time": 60241, "pitch": 70, "duration": 9, "velocity": 41}, {"time": 60359, "pitch": 64, "duration": 10, "velocity": 127}, {"time": 60359, "pitch": 70, "duration": 10, "velocity": 43}, {"time": 60478, "pitch": 38, "duration": 10, "velocity": 127}, {"time": 60478, "pitch": 42, "duration": 10, "velocity": 95}, {"time": 60478, "pitch": 61, "duration": 10, "velocity": 127}, {"time": 60478, "pitch": 70, "duration": 10, "velocity": 127}, {"time": 60598, "pitch": 70, "duration": 10, "velocity": 70}, {"time": 60718, "pitch": 46, "duration": 10, "velocity": 98}, {"time": 60718, "pitch": 62, "duration": 10, "velocity": 127}, {"time": 60718, "pitch": 70, "duration": 10, "velocity": 45}, {"time": 60839, "pitch": 62, "duration": 10, "velocity": 127}, {"time": 60839, "pitch": 70, "duration": 10, "velocity": 46}, {"time": 60959, "pitch": 36, "duration": 10, "velocity": 115}, {"time": 60959, "pitch": 42, "duration": 10, "velocity": 74}, {"time": 60959, "pitch": 60, "duration": 10, "velocity": 127}, {"time": 60959, "pitch": 70, "duration": 10, "velocity": 127}, {"time": 61080, "pitch": 70, "duration": 10, "velocity": 53}, {"time": 61200, "pitch": 42, "duration": 10, "velocity": 92}, {"time": 61200, "pitch": 64, "duration": 10, "velocity": 127}, {"time": 61200, "pitch": 70, "duration": 10, "velocity": 43}, {"time": 61321, "pitch": 64, "duration": 10, "velocity": 127}, {"time": 61321, "pitch": 70, "duration": 10, "velocity": 58}, {"time": 61441, "pitch": 38, "duration": 10, "velocity": 127}, {"time": 61441, "pitch": 42, "duration": 10, "velocity": 95}, {"time": 61441, "pitch": 54, "duration": 10, "velocity": 127}, {"time": 61441, "pitch": 61, "duration": 10, "velocity": 127}, {"time": 61441, "pitch": 70, "duration": 10, "velocity": 127}, {"time": 61561, "pitch": 70, "duration": 11, "velocity": 57}, {"time": 61682, "pitch": 36, "duration": 10, "velocity": 115}, {"time": 61682, "pitch": 42, "duration": 10, "velocity": 80}, {"time": 61682, "pitch": 62, "duration": 10, "velocity": 127}, {"time": 61682, "pitch": 70, "duration": 10, "velocity": 58}, {"time": 61802, "pitch": 42, "duration": 10, "velocity": 95}, {"time": 61802, "pitch": 62, "duration": 10, "velocity": 127}, {"time": 61802, "pitch": 70, "duration": 10, "velocity": 83}, {"time": 61923, "pitch": 36, "duration": 10, "velocity": 115}, {"time": 61923, "pitch": 42, "duration": 10, "velocity": 68}, {"time": 61923, "pitch": 60, "duration": 10, "velocity": 127}, {"time": 61923, "pitch": 70, "duration": 10, "velocity": 127}, {"time": 62041, "pitch": 70, "duration": 10, "velocity": 45}, {"time": 62160, "pitch": 42, "duration": 10, "velocity": 100}, {"time": 62160, "pitch": 64, "duration": 10, "velocity": 127}, {"time": 62160, "pitch": 70, "duration": 10, "velocity": 41}, {"time": 62278, "pitch": 70, "duration": 10, "velocity": 43}, {"time": 62397, "pitch": 38, "duration": 10, "velocity": 127}, {"time": 62397, "pitch": 42, "duration": 10, "velocity": 95}, {"time": 62397, "pitch": 63, "duration": 10, "velocity": 127}, {"time": 62397, "pitch": 70, "duration": 10, "velocity": 127}, {"time": 62517, "pitch": 70, "duration": 10, "velocity": 70}, {"time": 62638, "pitch": 36, "duration": 10, "velocity": 115}, {"time": 62638, "pitch": 42, "duration": 10, "velocity": 86}, {"time": 62638, "pitch": 64, "duration": 10, "velocity": 127}, {"time": 62638, "pitch": 70, "duration": 10, "velocity": 45}, {"time": 62758, "pitch": 42, "duration": 10, "velocity": 105}, {"time": 62758, "pitch": 64, "duration": 10, "velocity": 127}, {"time": 62758, "pitch": 70, "duration": 10, "velocity": 46}, {"time": 62878, "pitch": 42, "duration": 10, "velocity": 83}, {"time": 62878, "pitch": 60, "duration": 10, "velocity": 127}, {"time": 62878, "pitch": 70, "duration": 10, "velocity": 127}, {"time": 62999, "pitch": 62, "duration": 10, "velocity": 127}, {"time": 62999, "pitch": 70, "duration": 10, "velocity": 53}, {"time": 63119, "pitch": 36, "duration": 10, "velocity": 115}, {"time": 63119, "pitch": 46, "duration": 10, "velocity": 98}, {"time": 63119, "pitch": 70, "duration": 10, "velocity": 43}, {"time": 63240, "pitch": 62, "duration": 10, "velocity": 127}, {"time": 63240, "pitch": 70, "duration": 10, "velocity": 58}, {"time": 63360, "pitch": 38, "duration": 10, "velocity": 127}, {"time": 63360, "pitch": 42, "duration": 10, "velocity": 96}, {"time": 63360, "pitch": 54, "duration": 10, "velocity": 127}, {"time": 63360, "pitch": 61, "duration": 10, "velocity": 127}, {"time": 63360, "pitch": 70, "duration": 10, "velocity": 127}, {"time": 63481, "pitch": 70, "duration": 10, "velocity": 57}, {"time": 63601, "pitch": 36, "duration": 10, "velocity": 115}, {"time": 63601, "pitch": 42, "duration": 10, "velocity": 83}, {"time": 63601, "pitch": 54, "duration": 10, "velocity": 127}, {"time": 63601, "pitch": 64, "duration": 10, "velocity": 127}, {"time": 63601, "pitch": 70, "duration": 10, "velocity": 58}, {"time": 63722, "pitch": 42, "duration": 10, "velocity": 82}, {"time": 63722, "pitch": 64, "duration": 10, "velocity": 127}, {"time": 63722, "pitch": 70, "duration": 10, "velocity": 83}, {"time": 63842, "pitch": 36, "duration": 10, "velocity": 115}, {"time": 63842, "pitch": 42, "duration": 10, "velocity": 78}, {"time": 63842, "pitch": 60, "duration": 10, "velocity": 127}, {"time": 63842, "pitch": 70, "duration": 10, "velocity": 127}, {"time": 63962, "pitch": 70, "duration": 10, "velocity": 45}, {"time": 64083, "pitch": 42, "duration": 10, "velocity": 87}, {"time": 64083, "pitch": 62, "duration": 10, "velocity": 127}, {"time": 64083, "pitch": 70, "duration": 10, "velocity": 41}, {"time": 64203, "pitch": 62, "duration": 10, "velocity": 127}, {"time": 64203, "pitch": 70, "duration": 10, "velocity": 43}, {"time": 64324, "pitch": 38, "duration": 10, "velocity": 127}, {"time": 64324, "pitch": 42, "duration": 10, "velocity": 88}, {"time": 64324, "pitch": 61, "duration": 10, "velocity": 127}, {"time": 64324, "pitch": 70, "duration": 10, "velocity": 127}, {"time": 64442, "pitch": 70, "duration": 10, "velocity": 70}, {"time": 64561, "pitch": 42, "duration": 9, "velocity": 69}, {"time": 64561, "pitch": 64, "duration": 9, "velocity": 127}, {"time": 64561, "pitch": 70, "duration": 9, "velocity": 45}, {"time": 64679, "pitch": 42, "duration": 10, "velocity": 87}, {"time": 64679, "pitch": 64, "duration": 10, "velocity": 127}, {"time": 64679, "pitch": 70, "duration": 10, "velocity": 46}, {"time": 64798, "pitch": 36, "duration": 10, "velocity": 115}, {"time": 64798, "pitch": 42, "duration": 10, "velocity": 73}, {"time": 64798, "pitch": 60, "duration": 10, "velocity": 127}, {"time": 64798, "pitch": 70, "duration": 10, "velocity": 127}, {"time": 64918, "pitch": 42, "duration": 10, "velocity": 100}, {"time": 64918, "pitch": 70, "duration": 10, "velocity": 53}, {"time": 65038, "pitch": 36, "duration": 10, "velocity": 115}, {"time": 65038, "pitch": 46, "duration": 10, "velocity": 95}, {"time": 65038, "pitch": 62, "duration": 10, "velocity": 127}, {"time": 65038, "pitch": 70, "duration": 10, "velocity": 43}, {"time": 65159, "pitch": 62, "duration": 10, "velocity": 127}, {"time": 65159, "pitch": 70, "duration": 10, "velocity": 58}, {"time": 65279, "pitch": 38, "duration": 10, "velocity": 127}, {"time": 65279, "pitch": 42, "duration": 10, "velocity": 95}, {"time": 65279, "pitch": 54, "duration": 10, "velocity": 127}, {"time": 65279, "pitch": 61, "duration": 10, "velocity": 127}, {"time": 65279, "pitch": 70, "duration": 10, "velocity": 127}, {"time": 65400, "pitch": 70, "duration": 10, "velocity": 57}, {"time": 65520, "pitch": 36, "duration": 10, "velocity": 115}, {"time": 65520, "pitch": 42, "duration": 10, "velocity": 78}, {"time": 65520, "pitch": 64, "duration": 10, "velocity": 127}, {"time": 65520, "pitch": 70, "duration": 10, "velocity": 58}, {"time": 65641, "pitch": 64, "duration": 10, "velocity": 127}, {"time": 65641, "pitch": 70, "duration": 10, "velocity": 83}, {"time": 65761, "pitch": 42, "duration": 10, "velocity": 78}, {"time": 65761, "pitch": 60, "duration": 10, "velocity": 127}, {"time": 65761, "pitch": 70, "duration": 10, "velocity": 127}, {"time": 65882, "pitch": 70, "duration": 10, "velocity": 45}, {"time": 66002, "pitch": 36, "duration": 10, "velocity": 115}, {"time": 66002, "pitch": 42, "duration": 10, "velocity": 64}, {"time": 66002, "pitch": 62, "duration": 10, "velocity": 127}, {"time": 66002, "pitch": 70, "duration": 10, "velocity": 41}, {"time": 66122, "pitch": 62, "duration": 10, "velocity": 127}, {"time": 66122, "pitch": 70, "duration": 10, "velocity": 43}, {"time": 66243, "pitch": 38, "duration": 10, "velocity": 127}, {"time": 66243, "pitch": 42, "duration": 10, "velocity": 87}, {"time": 66243, "pitch": 61, "duration": 10, "velocity": 127}, {"time": 66243, "pitch": 70, "duration": 10, "velocity": 127}, {"time": 66361, "pitch": 70, "duration": 10, "velocity": 70}, {"time": 66480, "pitch": 42, "duration": 10, "velocity": 77}, {"time": 66480, "pitch": 64, "duration": 10, "velocity": 127}, {"time": 66480, "pitch": 70, "duration": 10, "velocity": 45}, {"time": 66598, "pitch": 42, "duration": 10, "velocity": 74}, {"time": 66598, "pitch": 64, "duration": 10, "velocity": 127}, {"time": 66598, "pitch": 70, "duration": 10, "velocity": 46}, {"time": 66717, "pitch": 36, "duration": 10, "velocity": 115}, {"time": 66717, "pitch": 42, "duration": 10, "velocity": 81}, {"time": 66717, "pitch": 60, "duration": 10, "velocity": 127}, {"time": 66717, "pitch": 70, "duration": 10, "velocity": 127}, {"time": 66837, "pitch": 42, "duration": 10, "velocity": 115}, {"time": 66837, "pitch": 70, "duration": 10, "velocity": 53}, {"time": 66958, "pitch": 36, "duration": 10, "velocity": 115}, {"time": 66958, "pitch": 46, "duration": 10, "velocity": 95}, {"time": 66958, "pitch": 62, "duration": 10, "velocity": 127}, {"time": 66958, "pitch": 70, "duration": 10, "velocity": 43}, {"time": 67078, "pitch": 62, "duration": 10, "velocity": 127}, {"time": 67078, "pitch": 70, "duration": 10, "velocity": 58}, {"time": 67198, "pitch": 38, "duration": 10, "velocity": 127}, {"time": 67198, "pitch": 42, "duration": 10, "velocity": 91}, {"time": 67198, "pitch": 54, "duration": 10, "velocity": 127}, {"time": 67198, "pitch": 63, "duration": 10, "velocity": 127}, {"time": 67198, "pitch": 70, "duration": 10, "velocity": 127}, {"time": 67319, "pitch": 70, "duration": 10, "velocity": 57}, {"time": 67439, "pitch": 36, "duration": 10, "velocity": 115}, {"time": 67439, "pitch": 42, "duration": 10, "velocity": 69}, {"time": 67439, "pitch": 54, "duration": 10, "velocity": 127}, {"time": 67439, "pitch": 64, "duration": 10, "velocity": 127}, {"time": 67439, "pitch": 70, "duration": 10, "velocity": 58}, {"time": 67560, "pitch": 42, "duration": 10, "velocity": 93}, {"time": 67560, "pitch": 64, "duration": 10, "velocity": 127}, {"time": 67560, "pitch": 70, "duration": 10, "velocity": 83}, {"time": 67680, "pitch": 42, "duration": 10, "velocity": 54}, {"time": 67680, "pitch": 60, "duration": 10, "velocity": 127}, {"time": 67680, "pitch": 70, "duration": 10, "velocity": 127}, {"time": 67801, "pitch": 70, "duration": 10, "velocity": 45}, {"time": 67921, "pitch": 36, "duration": 10, "velocity": 115}, {"time": 67921, "pitch": 42, "duration": 10, "velocity": 78}, {"time": 67921, "pitch": 62, "duration": 10, "velocity": 127}, {"time": 67921, "pitch": 70, "duration": 10, "velocity": 41}, {"time": 68042, "pitch": 62, "duration": 10, "velocity": 127}, {"time": 68042, "pitch": 70, "duration": 10, "velocity": 43}, {"time": 68162, "pitch": 38, "duration": 10, "velocity": 127}, {"time": 68162, "pitch": 42, "duration": 10, "velocity": 91}, {"time": 68162, "pitch": 61, "duration": 10, "velocity": 127}, {"time": 68162, "pitch": 70, "duration": 10, "velocity": 127}, {"time": 68282, "pitch": 70, "duration": 10, "velocity": 70}, {"time": 68403, "pitch": 42, "duration": 10, "velocity": 59}, {"time": 68403, "pitch": 64, "duration": 10, "velocity": 127}, {"time": 68403, "pitch": 70, "duration": 10, "velocity": 45}, {"time": 68523, "pitch": 42, "duration": 10, "velocity": 95}, {"time": 68523, "pitch": 64, "duration": 10, "velocity": 127}, {"time": 68523, "pitch": 70, "duration": 10, "velocity": 46}, {"time": 68644, "pitch": 36, "duration": 10, "velocity": 115}, {"time": 68644, "pitch": 42, "duration": 10, "velocity": 85}, {"time": 68644, "pitch": 60, "duration": 10, "velocity": 127}, {"time": 68644, "pitch": 70, "duration": 10, "velocity": 127}, {"time": 68762, "pitch": 70, "duration": 10, "velocity": 53}, {"time": 68881, "pitch": 42, "duration": 10, "velocity": 73}, {"time": 68881, "pitch": 62, "duration": 10, "velocity": 127}, {"time": 68881, "pitch": 70, "duration": 10, "velocity": 43}, {"time": 68999, "pitch": 42, "duration": 10, "velocity": 104}, {"time": 68999, "pitch": 62, "duration": 10, "velocity": 127}, {"time": 68999, "pitch": 70, "duration": 10, "velocity": 58}, {"time": 69118, "pitch": 38, "duration": 10, "velocity": 127}, {"time": 69118, "pitch": 42, "duration": 10, "velocity": 80}, {"time": 69118, "pitch": 54, "duration": 10, "velocity": 127}, {"time": 69118, "pitch": 63, "duration": 10, "velocity": 127}, {"time": 69118, "pitch": 70, "duration": 10, "velocity": 127}, {"time": 69238, "pitch": 63, "duration": 10, "velocity": 127}, {"time": 69238, "pitch": 70, "duration": 10, "velocity": 57}, {"time": 69358, "pitch": 36, "duration": 10, "velocity": 115}, {"time": 69358, "pitch": 46, "duration": 10, "velocity": 75}, {"time": 69358, "pitch": 64, "duration": 10, "velocity": 127}, {"time": 69358, "pitch": 70, "duration": 10, "velocity": 58}, {"time": 69479, "pitch": 64, "duration": 10, "velocity": 127}, {"time": 69479, "pitch": 70, "duration": 10, "velocity": 83}, {"time": 69599, "pitch": 36, "duration": 10, "velocity": 115}, {"time": 69599, "pitch": 42, "duration": 10, "velocity": 117}, {"time": 69599, "pitch": 54, "duration": 10, "velocity": 127}, {"time": 69720, "pitch": 42, "duration": 10, "velocity": 117}, {"time": 69720, "pitch": 54, "duration": 10, "velocity": 57}, {"time": 69840, "pitch": 46, "duration": 10, "velocity": 117}, {"time": 69840, "pitch": 54, "duration": 10, "velocity": 50}, {"time": 69961, "pitch": 54, "duration": 10, "velocity": 53}, {"time": 70081, "pitch": 38, "duration": 10, "velocity": 127}, {"time": 70081, "pitch": 42, "duration": 10, "velocity": 117}, {"time": 70081, "pitch": 54, "duration": 10, "velocity": 127}, {"time": 70202, "pitch": 54, "duration": 10, "velocity": 36}, {"time": 70322, "pitch": 39, "duration": 10, "velocity": 127}, {"time": 70322, "pitch": 46, "duration": 10, "velocity": 117}, {"time": 70322, "pitch": 54, "duration": 10, "velocity": 33}, {"time": 70442, "pitch": 36, "duration": 10, "velocity": 115}, {"time": 70442, "pitch": 54, "duration": 10, "velocity": 53}, {"time": 70563, "pitch": 42, "duration": 10, "velocity": 117}, {"time": 70563, "pitch": 54, "duration": 10, "velocity": 127}, {"time": 70681, "pitch": 36, "duration": 10, "velocity": 115}, {"time": 70681, "pitch": 54, "duration": 10, "velocity": 36}, {"time": 70800, "pitch": 39, "duration": 10, "velocity": 127}, {"time": 70800, "pitch": 46, "duration": 10, "velocity": 117}, {"time": 70800, "pitch": 54, "duration": 10, "velocity": 36}, {"time": 70918, "pitch": 36, "duration": 10, "velocity": 115}, {"time": 70918, "pitch": 54, "duration": 10, "velocity": 36}, {"time": 71037, "pitch": 38, "duration": 10, "velocity": 127}, {"time": 71037, "pitch": 42, "duration": 10, "velocity": 117}, {"time": 71037, "pitch": 54, "duration": 10, "velocity": 127}, {"time": 71157, "pitch": 54, "duration": 10, "velocity": 66}, {"time": 71278, "pitch": 36, "duration": 10, "velocity": 115}, {"time": 71278, "pitch": 39, "duration": 10, "velocity": 127}, {"time": 71278, "pitch": 46, "duration": 10, "velocity": 117}, {"time": 71278, "pitch": 54, "duration": 10, "velocity": 50}, {"time": 71398, "pitch": 39, "duration": 10, "velocity": 127}, {"time": 71398, "pitch": 54, "duration": 10, "velocity": 38}, {"time": 71518, "pitch": 36, "duration": 11, "velocity": 115}, {"time": 71518, "pitch": 42, "duration": 11, "velocity": 117}, {"time": 71518, "pitch": 54, "duration": 11, "velocity": 127}, {"time": 71639, "pitch": 42, "duration": 10, "velocity": 117}, {"time": 71639, "pitch": 54, "duration": 10, "velocity": 57}, {"time": 71759, "pitch": 46, "duration": 10, "velocity": 117}, {"time": 71759, "pitch": 54, "duration": 10, "velocity": 50}, {"time": 71880, "pitch": 54, "duration": 10, "velocity": 53}, {"time": 72000, "pitch": 38, "duration": 10, "velocity": 127}, {"time": 72000, "pitch": 42, "duration": 10, "velocity": 117}, {"time": 72000, "pitch": 54, "duration": 10, "velocity": 127}, {"time": 72121, "pitch": 54, "duration": 10, "velocity": 36}, {"time": 72241, "pitch": 39, "duration": 10, "velocity": 127}, {"time": 72241, "pitch": 46, "duration": 10, "velocity": 117}, {"time": 72241, "pitch": 54, "duration": 10, "velocity": 33}, {"time": 72362, "pitch": 36, "duration": 10, "velocity": 115}, {"time": 72362, "pitch": 54, "duration": 10, "velocity": 53}, {"time": 72482, "pitch": 42, "duration": 10, "velocity": 117}, {"time": 72482, "pitch": 54, "duration": 10, "velocity": 127}, {"time": 72602, "pitch": 36, "duration": 10, "velocity": 115}, {"time": 72602, "pitch": 54, "duration": 10, "velocity": 36}, {"time": 72723, "pitch": 39, "duration": 10, "velocity": 127}, {"time": 72723, "pitch": 46, "duration": 10, "velocity": 117}, {"time": 72723, "pitch": 54, "duration": 10, "velocity": 36}, {"time": 72843, "pitch": 36, "duration": 10, "velocity": 115}, {"time": 72843, "pitch": 54, "duration": 10, "velocity": 36}, {"time": 72964, "pitch": 38, "duration": 10, "velocity": 127}, {"time": 72964, "pitch": 42, "duration": 10, "velocity": 117}, {"time": 72964, "pitch": 54, "duration": 10, "velocity": 127}, {"time": 73082, "pitch": 36, "duration": 10, "velocity": 115}, {"time": 73082, "pitch": 54, "duration": 10, "velocity": 66}, {"time": 73201, "pitch": 39, "duration": 10, "velocity": 127}, {"time": 73201, "pitch": 46, "duration": 10, "velocity": 117}, {"time": 73201, "pitch": 54, "duration": 10, "velocity": 50}, {"time": 73319, "pitch": 36, "duration": 10, "velocity": 115}, {"time": 73319, "pitch": 39, "duration": 10, "velocity": 127}, {"time": 73319, "pitch": 54, "duration": 10, "velocity": 38}, {"time": 73438, "pitch": 36, "duration": 10, "velocity": 115}, {"time": 73438, "pitch": 42, "duration": 10, "velocity": 117}, {"time": 73438, "pitch": 54, "duration": 10, "velocity": 127}, {"time": 73558, "pitch": 42, "duration": 10, "velocity": 117}, {"time": 73558, "pitch": 54, "duration": 10, "velocity": 57}, {"time": 73678, "pitch": 46, "duration": 11, "velocity": 117}, {"time": 73678, "pitch": 54, "duration": 11, "velocity": 50}, {"time": 73799, "pitch": 54, "duration": 10, "velocity": 53}, {"time": 73919, "pitch": 38, "duration": 10, "velocity": 127}, {"time": 73919, "pitch": 42, "duration": 10, "velocity": 117}, {"time": 73919, "pitch": 54, "duration": 10, "velocity": 127}, {"time": 74040, "pitch": 54, "duration": 10, "velocity": 36}, {"time": 74160, "pitch": 39, "duration": 10, "velocity": 127}, {"time": 74160, "pitch": 46, "duration": 10, "velocity": 117}, {"time": 74160, "pitch": 54, "duration": 10, "velocity": 33}, {"time": 74281, "pitch": 36, "duration": 10, "velocity": 115}, {"time": 74281, "pitch": 54, "duration": 10, "velocity": 53}, {"time": 74401, "pitch": 42, "duration": 10, "velocity": 117}, {"time": 74401, "pitch": 54, "duration": 10, "velocity": 127}, {"time": 74522, "pitch": 36, "duration": 10, "velocity": 115}, {"time": 74522, "pitch": 54, "duration": 10, "velocity": 36}, {"time": 74642, "pitch": 39, "duration": 10, "velocity": 127}, {"time": 74642, "pitch": 46, "duration": 10, "velocity": 117}, {"time": 74642, "pitch": 54, "duration": 10, "velocity": 36}, {"time": 74762, "pitch": 36, "duration": 10, "velocity": 115}, {"time": 74762, "pitch": 54, "duration": 10, "velocity": 36}, {"time": 74883, "pitch": 38, "duration": 10, "velocity": 127}, {"time": 74883, "pitch": 42, "duration": 10, "velocity": 117}, {"time": 74883, "pitch": 54, "duration": 10, "velocity": 127}, {"time": 75001, "pitch": 54, "duration": 10, "velocity": 66}, {"time": 75120, "pitch": 36, "duration": 10, "velocity": 115}, {"time": 75120, "pitch": 39, "duration": 10, "velocity": 127}, {"time": 75120, "pitch": 46, "duration": 10, "velocity": 117}, {"time": 75120, "pitch": 54, "duration": 10, "velocity": 50}, {"time": 75238, "pitch": 39, "duration": 10, "velocity": 127}, {"time": 75238, "pitch": 54, "duration": 10, "velocity": 38}, {"time": 75357, "pitch": 36, "duration": 10, "velocity": 115}, {"time": 75357, "pitch": 42, "duration": 10, "velocity": 117}, {"time": 75357, "pitch": 54, "duration": 10, "velocity": 127}, {"time": 75477, "pitch": 42, "duration": 10, "velocity": 117}, {"time": 75477, "pitch": 54, "duration": 10, "velocity": 57}, {"time": 75598, "pitch": 46, "duration": 10, "velocity": 117}, {"time": 75598, "pitch": 54, "duration": 10, "velocity": 50}, {"time": 75718, "pitch": 54, "duration": 10, "velocity": 53}, {"time": 75838, "pitch": 38, "duration": 11, "velocity": 127}, {"time": 75838, "pitch": 42, "duration": 11, "velocity": 117}, {"time": 75838, "pitch": 54, "duration": 11, "velocity": 127}, {"time": 75959, "pitch": 54, "duration": 10, "velocity": 36}, {"time": 76079, "pitch": 39, "duration": 10, "velocity": 127}, {"time": 76079, "pitch": 46, "duration": 10, "velocity": 117}, {"time": 76079, "pitch": 54, "duration": 10, "velocity": 33}, {"time": 76200, "pitch": 36, "duration": 10, "velocity": 115}, {"time": 76200, "pitch": 54, "duration": 10, "velocity": 53}, {"time": 76320, "pitch": 42, "duration": 10, "velocity": 117}, {"time": 76320, "pitch": 54, "duration": 10, "velocity": 127}, {"time": 76441, "pitch": 36, "duration": 10, "velocity": 115}, {"time": 76441, "pitch": 54, "duration": 10, "velocity": 36}, {"time": 76561, "pitch": 39, "duration": 10, "velocity": 127}, {"time": 76561, "pitch": 46, "duration": 10, "velocity": 117}, {"time": 76561, "pitch": 54, "duration": 10, "velocity": 36}, {"time": 76564, "pitch": 38, "duration": 10, "velocity": 44}, {"time": 76624, "pitch": 38, "duration": 10, "velocity": 54}, {"time": 76682, "pitch": 36, "duration": 10, "velocity": 115}, {"time": 76682, "pitch": 54, "duration": 10, "velocity": 36}, {"time": 76685, "pitch": 38, "duration": 10, "velocity": 72}, {"time": 76745, "pitch": 38, "duration": 10, "velocity": 99}, {"time": 76802, "pitch": 38, "duration": 10, "velocity": 127}, {"time": 76802, "pitch": 42, "duration": 10, "velocity": 117}, {"time": 76802, "pitch": 54, "duration": 10, "velocity": 127}, {"time": 76922, "pitch": 54, "duration": 10, "velocity": 66}, {"time": 77043, "pitch": 38, "duration": 10, "velocity": 127}, {"time": 77043, "pitch": 39, "duration": 10, "velocity": 127}, {"time": 77043, "pitch": 46, "duration": 10, "velocity": 117}, {"time": 77043, "pitch": 54, "duration": 10, "velocity": 50}, {"time": 77163, "pitch": 38, "duration": 10, "velocity": 127}, {"time": 77163, "pitch": 39, "duration": 10, "velocity": 127}, {"time": 77163, "pitch": 54, "duration": 10, "velocity": 38}, {"time": 77284, "pitch": 36, "duration": 10, "velocity": 115}, {"time": 77284, "pitch": 42, "duration": 10, "velocity": 108}, {"time": 77284, "pitch": 54, "duration": 10, "velocity": 127}, {"time": 77402, "pitch": 54, "duration": 10, "velocity": 57}, {"time": 77521, "pitch": 46, "duration": 10, "velocity": 103}, {"time": 77521, "pitch": 54, "duration": 10, "velocity": 50}, {"time": 77639, "pitch": 54, "duration": 10, "velocity": 53}, {"time": 77758, "pitch": 36, "duration": 10, "velocity": 115}, {"time": 77758, "pitch": 42, "duration": 10, "velocity": 105}, {"time": 77758, "pitch": 54, "duration": 10, "velocity": 127}, {"time": 77878, "pitch": 54, "duration": 10, "velocity": 36}, {"time": 77998, "pitch": 46, "duration": 11, "velocity": 112}, {"time": 77998, "pitch": 54, "duration": 11, "velocity": 33}, {"time": 78119, "pitch": 54, "duration": 10, "velocity": 53}, {"time": 78239, "pitch": 36, "duration": 10, "velocity": 115}, {"time": 78239, "pitch": 42, "duration": 10, "velocity": 114}, {"time": 78239, "pitch": 54, "duration": 10, "velocity": 127}, {"time": 78360, "pitch": 54, "duration": 10, "velocity": 36}, {"time": 78480, "pitch": 38, "duration": 10, "velocity": 49}, {"time": 78480, "pitch": 42, "duration": 10, "velocity": 94}, {"time": 78480, "pitch": 54, "duration": 10, "velocity": 36}, {"time": 78537, "pitch": 38, "duration": 10, "velocity": 59}, {"time": 78601, "pitch": 38, "duration": 10, "velocity": 77}, {"time": 78601, "pitch": 42, "duration": 10, "velocity": 117}, {"time": 78601, "pitch": 54, "duration": 10, "velocity": 36}, {"time": 78658, "pitch": 38, "duration": 10, "velocity": 98}, {"time": 78721, "pitch": 36, "duration": 10, "velocity": 115}, {"time": 78721, "pitch": 42, "duration": 10, "velocity": 117}, {"time": 78721, "pitch": 54, "duration": 10, "velocity": 127}, {"time": 78724, "pitch": 38, "duration": 10, "velocity": 127}, {"time": 78842, "pitch": 54, "duration": 10, "velocity": 66}, {"time": 78962, "pitch": 38, "duration": 10, "velocity": 127}, {"time": 78962, "pitch": 42, "duration": 10, "velocity": 110}, {"time": 78962, "pitch": 43, "duration": 10, "velocity": 127}, {"time": 78962, "pitch": 54, "duration": 10, "velocity": 50}, {"time": 78962, "pitch": 55, "duration": 10, "velocity": 127}, {"time": 79082, "pitch": 54, "duration": 10, "velocity": 38}, {"time": 79203, "pitch": 38, "duration": 10, "velocity": 127}, {"time": 79203, "pitch": 43, "duration": 10, "velocity": 127}, {"time": 79203, "pitch": 54, "duration": 10, "velocity": 127}, {"time": 79203, "pitch": 55, "duration": 10, "velocity": 127}, {"time": 79321, "pitch": 54, "duration": 10, "velocity": 57}, {"time": 79440, "pitch": 38, "duration": 10, "velocity": 127}, {"time": 79440, "pitch": 43, "duration": 10, "velocity": 127}, {"time": 79440, "pitch": 54, "duration": 10, "velocity": 50}, {"time": 79440, "pitch": 55, "duration": 10, "velocity": 127}, {"time": 79558, "pitch": 54, "duration": 10, "velocity": 53}, {"time": 79677, "pitch": 46, "duration": 10, "velocity": 117}, {"time": 79677, "pitch": 53, "duration": 10, "velocity": 127}, {"time": 79677, "pitch": 54, "duration": 10, "velocity": 127}, {"time": 79677, "pitch": 58, "duration": 10, "velocity": 127}, {"time": 79797, "pitch": 54, "duration": 10, "velocity": 36}, {"time": 79918, "pitch": 54, "duration": 10, "velocity": 33}, {"time": 80038, "pitch": 54, "duration": 10, "velocity": 53}, {"time": 80158, "pitch": 46, "duration": 11, "velocity": 117}, {"time": 80158, "pitch": 50, "duration": 11, "velocity": 100}, {"time": 80158, "pitch": 53, "duration": 11, "velocity": 127}, {"time": 80158, "pitch": 54, "duration": 11, "velocity": 127}, {"time": 80180, "pitch": 50, "duration": 10, "velocity": 127}, {"time": 80279, "pitch": 54, "duration": 10, "velocity": 36}, {"time": 80399, "pitch": 38, "duration": 10, "velocity": 47}, {"time": 80399, "pitch": 54, "duration": 10, "velocity": 36}, {"time": 80451, "pitch": 38, "duration": 10, "velocity": 57}, {"time": 80520, "pitch": 54, "duration": 10, "velocity": 36}, {"time": 80523, "pitch": 38, "duration": 10, "velocity": 80}, {"time": 80574, "pitch": 38, "duration": 10, "velocity": 102}, {"time": 80640, "pitch": 38, "duration": 10, "velocity": 127}, {"time": 80640, "pitch": 44, "duration": 10, "velocity": 127}, {"time": 80640, "pitch": 53, "duration": 10, "velocity": 127}, {"time": 80640, "pitch": 54, "duration": 10, "velocity": 127}, {"time": 80761, "pitch": 38, "duration": 10, "velocity": 127}, {"time": 80761, "pitch": 54, "duration": 10, "velocity": 66}, {"time": 80881, "pitch": 43, "duration": 10, "velocity": 100}, {"time": 80881, "pitch": 54, "duration": 10, "velocity": 50}, {"time": 80902, "pitch": 43, "duration": 10, "velocity": 127}, {"time": 81002, "pitch": 54, "duration": 10, "velocity": 38}, {"time": 81122, "pitch": 36, "duration": 10, "velocity": 115}, {"time": 81122, "pitch": 42, "duration": 10, "velocity": 97}, {"time": 81122, "pitch": 57, "duration": 10, "velocity": 127}, {"time": 81242, "pitch": 42, "duration": 10, "velocity": 80}, {"time": 81363, "pitch": 46, "duration": 10, "velocity": 117}, {"time": 81604, "pitch": 38, "duration": 10, "velocity": 127}, {"time": 81604, "pitch": 42, "duration": 10, "velocity": 117}, {"time": 81841, "pitch": 36, "duration": 10, "velocity": 115}, {"time": 81841, "pitch": 42, "duration": 10, "velocity": 105}, {"time": 81959, "pitch": 42, "duration": 10, "velocity": 117}, {"time": 82078, "pitch": 36, "duration": 10, "velocity": 115}, {"time": 82078, "pitch": 42, "duration": 10, "velocity": 117}, {"time": 82318, "pitch": 42, "duration": 11, "velocity": 117}, {"time": 82439, "pitch": 42, "duration": 10, "velocity": 97}, {"time": 82559, "pitch": 38, "duration": 10, "velocity": 127}, {"time": 82559, "pitch": 42, "duration": 10, "velocity": 117}, {"time": 82800, "pitch": 42, "duration": 10, "velocity": 117}, {"time": 82921, "pitch": 42, "duration": 10, "velocity": 104}, {"time": 83041, "pitch": 36, "duration": 10, "velocity": 115}, {"time": 83041, "pitch": 42, "duration": 10, "velocity": 117}, {"time": 83162, "pitch": 42, "duration": 10, "velocity": 117}, {"time": 83282, "pitch": 46, "duration": 10, "velocity": 117}, {"time": 83523, "pitch": 38, "duration": 10, "velocity": 127}, {"time": 83523, "pitch": 42, "duration": 10, "velocity": 117}, {"time": 83760, "pitch": 42, "duration": 10, "velocity": 109}, {"time": 83878, "pitch": 42, "duration": 10, "velocity": 117}, {"time": 83997, "pitch": 36, "duration": 10, "velocity": 115}, {"time": 83997, "pitch": 42, "duration": 10, "velocity": 112}, {"time": 84117, "pitch": 38, "duration": 10, "velocity": 127}, {"time": 84117, "pitch": 42, "duration": 10, "velocity": 117}, {"time": 84238, "pitch": 36, "duration": 10, "velocity": 115}, {"time": 84238, "pitch": 46, "duration": 10, "velocity": 115}, {"time": 84479, "pitch": 38, "duration": 10, "velocity": 127}, {"time": 84479, "pitch": 42, "duration": 10, "velocity": 116}, {"time": 84719, "pitch": 36, "duration": 10, "velocity": 115}, {"time": 84719, "pitch": 46, "duration": 10, "velocity": 117}, {"time": 84960, "pitch": 36, "duration": 10, "velocity": 115}, {"time": 84960, "pitch": 42, "duration": 10, "velocity": 111}, {"time": 85081, "pitch": 42, "duration": 10, "velocity": 111}, {"time": 85201, "pitch": 42, "duration": 10, "velocity": 117}, {"time": 85442, "pitch": 38, "duration": 10, "velocity": 127}, {"time": 85442, "pitch": 42, "duration": 10, "velocity": 117}, {"time": 85683, "pitch": 42, "duration": 10, "velocity": 100}, {"time": 85803, "pitch": 42, "duration": 10, "velocity": 117}, {"time": 85924, "pitch": 36, "duration": 10, "velocity": 115}, {"time": 85924, "pitch": 42, "duration": 10, "velocity": 110}, {"time": 86042, "pitch": 42, "duration": 10, "velocity": 105}, {"time": 86161, "pitch": 46, "duration": 10, "velocity": 117}, {"time": 86398, "pitch": 38, "duration": 10, "velocity": 127}, {"time": 86398, "pitch": 42, "duration": 10, "velocity": 117}, {"time": 86639, "pitch": 42, "duration": 10, "velocity": 106}, {"time": 86759, "pitch": 42, "duration": 10, "velocity": 117}, {"time": 86879, "pitch": 36, "duration": 10, "velocity": 115}, {"time": 86879, "pitch": 42, "duration": 10, "velocity": 107}, {"time": 87120, "pitch": 42, "duration": 10, "velocity": 105}, {"time": 87241, "pitch": 42, "duration": 10, "velocity": 117}, {"time": 87361, "pitch": 38, "duration": 10, "velocity": 127}, {"time": 87361, "pitch": 42, "duration": 10, "velocity": 111}, {"time": 87602, "pitch": 42, "duration": 10, "velocity": 117}, {"time": 87722, "pitch": 42, "duration": 10, "velocity": 117}, {"time": 87843, "pitch": 36, "duration": 10, "velocity": 115}, {"time": 87843, "pitch": 42, "duration": 10, "velocity": 97}, {"time": 87961, "pitch": 38, "duration": 10, "velocity": 127}, {"time": 87961, "pitch": 42, "duration": 10, "velocity": 79}, {"time": 88080, "pitch": 36, "duration": 10, "velocity": 115}, {"time": 88080, "pitch": 46, "duration": 10, "velocity": 117}, {"time": 88317, "pitch": 38, "duration": 10, "velocity": 127}, {"time": 88317, "pitch": 42, "duration": 10, "velocity": 102}, {"time": 88437, "pitch": 38, "duration": 10, "velocity": 127}, {"time": 88558, "pitch": 36, "duration": 10, "velocity": 115}, {"time": 88558, "pitch": 46, "duration": 10, "velocity": 117}, {"time": 88678, "pitch": 38, "duration": 10, "velocity": 127}, {"time": 88799, "pitch": 36, "duration": 10, "velocity": 115}, {"time": 88799, "pitch": 42, "duration": 10, "velocity": 117}, {"time": 88799, "pitch": 49, "duration": 10, "velocity": 127}, {"time": 88919, "pitch": 42, "duration": 10, "velocity": 117}, {"time": 89039, "pitch": 42, "duration": 10, "velocity": 102}, {"time": 89280, "pitch": 38, "duration": 10, "velocity": 127}, {"time": 89280, "pitch": 42, "duration": 10, "velocity": 117}, {"time": 89521, "pitch": 42, "duration": 10, "velocity": 93}, {"time": 89642, "pitch": 42, "duration": 10, "velocity": 112}, {"time": 89762, "pitch": 36, "duration": 10, "velocity": 115}, {"time": 89762, "pitch": 42, "duration": 10, "velocity": 104}, {"time": 90003, "pitch": 42, "duration": 10, "velocity": 108}, {"time": 90123, "pitch": 42, "duration": 10, "velocity": 117}, {"time": 90244, "pitch": 38, "duration": 10, "velocity": 127}, {"time": 90244, "pitch": 42, "duration": 10, "velocity": 117}, {"time": 90481, "pitch": 36, "duration": 10, "velocity": 115}, {"time": 90481, "pitch": 42, "duration": 10, "velocity": 113}, {"time": 90599, "pitch": 42, "duration": 10, "velocity": 117}, {"time": 90718, "pitch": 36, "duration": 10, "velocity": 115}, {"time": 90718, "pitch": 42, "duration": 10, "velocity": 116}, {"time": 90838, "pitch": 42, "duration": 10, "velocity": 117}, {"time": 90959, "pitch": 46, "duration": 10, "velocity": 116}, {"time": 91199, "pitch": 38, "duration": 10, "velocity": 127}, {"time": 91199, "pitch": 42, "duration": 10, "velocity": 108}, {"time": 91440, "pitch": 46, "duration": 10, "velocity": 114}, {"time": 91681, "pitch": 36, "duration": 10, "velocity": 115}, {"time": 91681, "pitch": 42, "duration": 10, "velocity": 114}, {"time": 91802, "pitch": 42, "duration": 10, "velocity": 79}, {"time": 91922, "pitch": 46, "duration": 10, "velocity": 90}, {"time": 92163, "pitch": 38, "duration": 10, "velocity": 127}, {"time": 92163, "pitch": 42, "duration": 10, "velocity": 115}, {"time": 92400, "pitch": 36, "duration": 10, "velocity": 115}, {"time": 92400, "pitch": 46, "duration": 10, "velocity": 114}, {"time": 92518, "pitch": 38, "duration": 10, "velocity": 127}, {"time": 92637, "pitch": 36, "duration": 10, "velocity": 115}, {"time": 92637, "pitch": 42, "duration": 10, "velocity": 109}, {"time": 92757, "pitch": 42, "duration": 10, "velocity": 117}, {"time": 92878, "pitch": 42, "duration": 10, "velocity": 103}, {"time": 93119, "pitch": 38, "duration": 10, "velocity": 127}, {"time": 93119, "pitch": 42, "duration": 10, "velocity": 93}, {"time": 93359, "pitch": 42, "duration": 10, "velocity": 108}, {"time": 93480, "pitch": 42, "duration": 10, "velocity": 103}, {"time": 93600, "pitch": 36, "duration": 10, "velocity": 115}, {"time": 93600, "pitch": 42, "duration": 10, "velocity": 117}, {"time": 93721, "pitch": 42, "duration": 10, "velocity": 117}, {"time": 93841, "pitch": 36, "duration": 10, "velocity": 115}, {"time": 93841, "pitch": 46, "duration": 10, "velocity": 91}, {"time": 94082, "pitch": 38, "duration": 10, "velocity": 127}, {"time": 94082, "pitch": 42, "duration": 10, "velocity": 111}, {"time": 94323, "pitch": 36, "duration": 10, "velocity": 115}, {"time": 94323, "pitch": 46, "duration": 10, "velocity": 104}, {"time": 94443, "pitch": 38, "duration": 10, "velocity": 127}, {"time": 94564, "pitch": 36, "duration": 10, "velocity": 115}, {"time": 94564, "pitch": 42, "duration": 10, "velocity": 98}, {"time": 94682, "pitch": 42, "duration": 10, "velocity": 117}, {"time": 94801, "pitch": 42, "duration": 10, "velocity": 97}, {"time": 95038, "pitch": 38, "duration": 10, "velocity": 127}, {"time": 95038, "pitch": 42, "duration": 10, "velocity": 106}, {"time": 95279, "pitch": 36, "duration": 10, "velocity": 115}, {"time": 95279, "pitch": 46, "duration": 10, "velocity": 115}, {"time": 95519, "pitch": 36, "duration": 10, "velocity": 115}, {"time": 95519, "pitch": 42, "duration": 10, "velocity": 113}, {"time": 95640, "pitch": 38, "duration": 10, "velocity": 127}, {"time": 95640, "pitch": 42, "duration": 10, "velocity": 94}, {"time": 95760, "pitch": 36, "duration": 10, "velocity": 115}, {"time": 95760, "pitch": 42, "duration": 10, "velocity": 106}, {"time": 96001, "pitch": 38, "duration": 10, "velocity": 127}, {"time": 96001, "pitch": 42, "duration": 10, "velocity": 117}, {"time": 96242, "pitch": 38, "duration": 10, "velocity": 127}, {"time": 96242, "pitch": 43, "duration": 10, "velocity": 127}, {"time": 96242, "pitch": 46, "duration": 10, "velocity": 90}, {"time": 96242, "pitch": 57, "duration": 10, "velocity": 127}, {"time": 96483, "pitch": 36, "duration": 10, "velocity": 115}, {"time": 96483, "pitch": 42, "duration": 10, "velocity": 117}, {"time": 96483, "pitch": 49, "duration": 10, "velocity": 127}, {"time": 96601, "pitch": 42, "duration": 10, "velocity": 117}, {"time": 96720, "pitch": 42, "duration": 10, "velocity": 102}, {"time": 96957, "pitch": 38, "duration": 10, "velocity": 127}, {"time": 96957, "pitch": 42, "duration": 10, "velocity": 117}, {"time": 97198, "pitch": 42, "duration": 10, "velocity": 93}, {"time": 97318, "pitch": 42, "duration": 10, "velocity": 112}, {"time": 97439, "pitch": 36, "duration": 10, "velocity": 115}, {"time": 97439, "pitch": 42, "duration": 10, "velocity": 104}, {"time": 97679, "pitch": 42, "duration": 10, "velocity": 108}, {"time": 97800, "pitch": 42, "duration": 10, "velocity": 117}, {"time": 97920, "pitch": 38, "duration": 10, "velocity": 127}, {"time": 97920, "pitch": 42, "duration": 10, "velocity": 117}, {"time": 98161, "pitch": 36, "duration": 10, "velocity": 115}, {"time": 98161, "pitch": 42, "duration": 10, "velocity": 113}, {"time": 98282, "pitch": 42, "duration": 10, "velocity": 117}, {"time": 98402, "pitch": 36, "duration": 10, "velocity": 115}, {"time": 98402, "pitch": 42, "duration": 10, "velocity": 116}, {"time": 98522, "pitch": 42, "duration": 11, "velocity": 117}, {"time": 98643, "pitch": 46, "duration": 10, "velocity": 116}, {"time": 98884, "pitch": 38, "duration": 10, "velocity": 127}, {"time": 98884, "pitch": 42, "duration": 10, "velocity": 108}, {"time": 99121, "pitch": 46, "duration": 10, "velocity": 114}, {"time": 99358, "pitch": 36, "duration": 10, "velocity": 115}, {"time": 99358, "pitch": 42, "duration": 10, "velocity": 114}, {"time": 99478, "pitch": 42, "duration": 10, "velocity": 79}, {"time": 99599, "pitch": 46, "duration": 10, "velocity": 90}, {"time": 99839, "pitch": 38, "duration": 10, "velocity": 127}, {"time": 99839, "pitch": 42, "duration": 10, "velocity": 115}, {"time": 100080, "pitch": 36, "duration": 10, "velocity": 115}, {"time": 100080, "pitch": 46, "duration": 10, "velocity": 114}, {"time": 100201, "pitch": 38, "duration": 10, "velocity": 127}, {"time": 100321, "pitch": 36, "duration": 10, "velocity": 115}, {"time": 100321, "pitch": 42, "duration": 10, "velocity": 109}, {"time": 100442, "pitch": 42, "duration": 10, "velocity": 117}, {"time": 100562, "pitch": 42, "duration": 10, "velocity": 103}, {"time": 100803, "pitch": 38, "duration": 10, "velocity": 127}, {"time": 100803, "pitch": 42, "duration": 10, "velocity": 93}, {"time": 101040, "pitch": 42, "duration": 10, "velocity": 108}, {"time": 101158, "pitch": 42, "duration": 10, "velocity": 103}, {"time": 101277, "pitch": 36, "duration": 10, "velocity": 115}, {"time": 101277, "pitch": 42, "duration": 10, "velocity": 117}, {"time": 101397, "pitch": 42, "duration": 10, "velocity": 117}, {"time": 101518, "pitch": 36, "duration": 10, "velocity": 115}, {"time": 101518, "pitch": 46, "duration": 10, "velocity": 91}, {"time": 101759, "pitch": 38, "duration": 10, "velocity": 127}, {"time": 101759, "pitch": 42, "duration": 10, "velocity": 111}, {"time": 101999, "pitch": 36, "duration": 10, "velocity": 115}, {"time": 101999, "pitch": 46, "duration": 10, "velocity": 104}, {"time": 102120, "pitch": 38, "duration": 10, "velocity": 127}, {"time": 102240, "pitch": 36, "duration": 10, "velocity": 115}, {"time": 102240, "pitch": 42, "duration": 10, "velocity": 77}, {"time": 102481, "pitch": 36, "duration": 10, "velocity": 115}, {"time": 102481, "pitch": 46, "duration": 10, "velocity": 104}, {"time": 102722, "pitch": 38, "duration": 10, "velocity": 127}, {"time": 102722, "pitch": 42, "duration": 10, "velocity": 93}, {"time": 102963, "pitch": 36, "duration": 10, "velocity": 115}, {"time": 102963, "pitch": 46, "duration": 10, "velocity": 102}, {"time": 103083, "pitch": 38, "duration": 10, "velocity": 127}, {"time": 103204, "pitch": 36, "duration": 10, "velocity": 115}, {"time": 103204, "pitch": 42, "duration": 10, "velocity": 100}, {"time": 103322, "pitch": 38, "duration": 10, "velocity": 127}, {"time": 103441, "pitch": 36, "duration": 10, "velocity": 115}, {"time": 103441, "pitch": 46, "duration": 10, "velocity": 114}, {"time": 103678, "pitch": 38, "duration": 10, "velocity": 127}, {"time": 103678, "pitch": 42, "duration": 10, "velocity": 112}, {"time": 103919, "pitch": 38, "duration": 10, "velocity": 127}, {"time": 103919, "pitch": 42, "duration": 10, "velocity": 117}, {"time": 103919, "pitch": 43, "duration": 10, "velocity": 127}, {"time": 103919, "pitch": 49, "duration": 10, "velocity": 127}, {"time": 104280, "pitch": 60, "duration": 10, "velocity": 127}, {"time": 104400, "pitch": 38, "duration": 10, "velocity": 127}, {"time": 104400, "pitch": 42, "duration": 10, "velocity": 117}, {"time": 104400, "pitch": 43, "duration": 10, "velocity": 127}, {"time": 104400, "pitch": 57, "duration": 10, "velocity": 127}, {"time": 104400, "pitch": 64, "duration": 10, "velocity": 127}, {"time": 104641, "pitch": 38, "duration": 10, "velocity": 127}, {"time": 104641, "pitch": 42, "duration": 10, "velocity": 117}, {"time": 104641, "pitch": 43, "duration": 10, "velocity": 127}, {"time": 104641, "pitch": 57, "duration": 10, "velocity": 127}, {"time": 104641, "pitch": 60, "duration": 10, "velocity": 127}, {"time": 105123, "pitch": 48, "duration": 10, "velocity": 127}, {"time": 105131, "pitch": 50, "duration": 10, "velocity": 100}, {"time": 105360, "pitch": 38, "duration": 10, "velocity": 48}, {"time": 105415, "pitch": 38, "duration": 10, "velocity": 59}, {"time": 105482, "pitch": 38, "duration": 10, "velocity": 84}, {"time": 105538, "pitch": 38, "duration": 9, "velocity": 113}, {"time": 105597, "pitch": 38, "duration": 10, "velocity": 127}, {"time": 105717, "pitch": 38, "duration": 10, "velocity": 127}, {"time": 105838, "pitch": 43, "duration": 10, "velocity": 127}, {"time": 105846, "pitch": 45, "duration": 10, "velocity": 100}, {"time": 106079, "pitch": 36, "duration": 10, "velocity": 115}, {"time": 106079, "pitch": 42, "duration": 10, "velocity": 69}, {"time": 106079, "pitch": 49, "duration": 10, "velocity": 127}, {"time": 106079, "pitch": 57, "duration": 10, "velocity": 127}, {"time": 106079, "pitch": 60, "duration": 10, "velocity": 127}, {"time": 106079, "pitch": 70, "duration": 10, "velocity": 127}, {"time": 106199, "pitch": 42, "duration": 10, "velocity": 65}, {"time": 106199, "pitch": 70, "duration": 10, "velocity": 45}, {"time": 106319, "pitch": 46, "duration": 10, "velocity": 98}, {"time": 106319, "pitch": 64, "duration": 10, "velocity": 127}, {"time": 106319, "pitch": 70, "duration": 10, "velocity": 41}, {"time": 106440, "pitch": 70, "duration": 10, "velocity": 43}, {"time": 106560, "pitch": 38, "duration": 10, "velocity": 127}, {"time": 106560, "pitch": 42, "duration": 10, "velocity": 97}, {"time": 106560, "pitch": 61, "duration": 10, "velocity": 127}, {"time": 106560, "pitch": 70, "duration": 10, "velocity": 127}, {"time": 106681, "pitch": 70, "duration": 10, "velocity": 70}, {"time": 106801, "pitch": 42, "duration": 10, "velocity": 56}, {"time": 106801, "pitch": 62, "duration": 10, "velocity": 127}, {"time": 106801, "pitch": 70, "duration": 10, "velocity": 45}, {"time": 106922, "pitch": 42, "duration": 10, "velocity": 80}, {"time": 106922, "pitch": 62, "duration": 10, "velocity": 127}, {"time": 106922, "pitch": 70, "duration": 10, "velocity": 46}, {"time": 107042, "pitch": 36, "duration": 10, "velocity": 115}, {"time": 107042, "pitch": 42, "duration": 10, "velocity": 66}, {"time": 107042, "pitch": 60, "duration": 10, "velocity": 127}, {"time": 107042, "pitch": 70, "duration": 10, "velocity": 127}, {"time": 107163, "pitch": 70, "duration": 10, "velocity": 53}, {"time": 107283, "pitch": 36, "duration": 10, "velocity": 115}, {"time": 107283, "pitch": 42, "duration": 10, "velocity": 101}, {"time": 107283, "pitch": 64, "duration": 10, "velocity": 127}, {"time": 107283, "pitch": 70, "duration": 10, "velocity": 43}, {"time": 107403, "pitch": 70, "duration": 10, "velocity": 58}, {"time": 107524, "pitch": 38, "duration": 10, "velocity": 127}, {"time": 107524, "pitch": 42, "duration": 10, "velocity": 79}, {"time": 107524, "pitch": 54, "duration": 10, "velocity": 127}, {"time": 107524, "pitch": 61, "duration": 10, "velocity": 127}, {"time": 107524, "pitch": 70, "duration": 10, "velocity": 127}, {"time": 107642, "pitch": 70, "duration": 10, "velocity": 57}, {"time": 107761, "pitch": 36, "duration": 10, "velocity": 115}, {"time": 107761, "pitch": 42, "duration": 10, "velocity": 83}, {"time": 107761, "pitch": 62, "duration": 10, "velocity": 127}, {"time": 107761, "pitch": 70, "duration": 10, "velocity": 58}, {"time": 107879, "pitch": 62, "duration": 10, "velocity": 127}, {"time": 107879, "pitch": 70, "duration": 10, "velocity": 83}, {"time": 107998, "pitch": 42, "duration": 10, "velocity": 82}, {"time": 107998, "pitch": 60, "duration": 10, "velocity": 127}, {"time": 107998, "pitch": 70, "duration": 10, "velocity": 127}, {"time": 108118, "pitch": 42, "duration": 10, "velocity": 97}, {"time": 108118, "pitch": 70, "duration": 10, "velocity": 45}, {"time": 108239, "pitch": 36, "duration": 10, "velocity": 115}, {"time": 108239, "pitch": 46, "duration": 10, "velocity": 90}, {"time": 108239, "pitch": 64, "duration": 10, "velocity": 127}, {"time": 108239, "pitch": 70, "duration": 10, "velocity": 41}, {"time": 108359, "pitch": 70, "duration": 10, "velocity": 43}, {"time": 108479, "pitch": 38, "duration": 10, "velocity": 127}, {"time": 108479, "pitch": 42, "duration": 10, "velocity": 87}, {"time": 108479, "pitch": 61, "duration": 10, "velocity": 127}, {"time": 108479, "pitch": 70, "duration": 10, "velocity": 127}, {"time": 108600, "pitch": 70, "duration": 10, "velocity": 70}, {"time": 108720, "pitch": 42, "duration": 10, "velocity": 60}, {"time": 108720, "pitch": 62, "duration": 10, "velocity": 127}, {"time": 108720, "pitch": 70, "duration": 10, "velocity": 45}, {"time": 108841, "pitch": 42, "duration": 10, "velocity": 105}, {"time": 108841, "pitch": 62, "duration": 10, "velocity": 127}, {"time": 108841, "pitch": 70, "duration": 10, "velocity": 46}, {"time": 108961, "pitch": 36, "duration": 10, "velocity": 115}, {"time": 108961, "pitch": 42, "duration": 10, "velocity": 78}, {"time": 108961, "pitch": 60, "duration": 10, "velocity": 127}, {"time": 108961, "pitch": 70, "duration": 10, "velocity": 127}, {"time": 109082, "pitch": 70, "duration": 10, "velocity": 53}, {"time": 109202, "pitch": 36, "duration": 10, "velocity": 115}, {"time": 109202, "pitch": 42, "duration": 10, "velocity": 87}, {"time": 109202, "pitch": 64, "duration": 10, "velocity": 127}, {"time": 109202, "pitch": 70, "duration": 10, "velocity": 43}, {"time": 109323, "pitch": 64, "duration": 10, "velocity": 127}, {"time": 109323, "pitch": 70, "duration": 10, "velocity": 58}, {"time": 109443, "pitch": 38, "duration": 10, "velocity": 127}, {"time": 109443, "pitch": 42, "duration": 10, "velocity": 98}, {"time": 109443, "pitch": 54, "duration": 10, "velocity": 127}, {"time": 109443, "pitch": 63, "duration": 10, "velocity": 127}, {"time": 109443, "pitch": 70, "duration": 10, "velocity": 127}, {"time": 109561, "pitch": 70, "duration": 10, "velocity": 57}, {"time": 109680, "pitch": 36, "duration": 10, "velocity": 115}, {"time": 109680, "pitch": 46, "duration": 10, "velocity": 88}, {"time": 109680, "pitch": 54, "duration": 10, "velocity": 127}, {"time": 109680, "pitch": 62, "duration": 10, "velocity": 127}, {"time": 109680, "pitch": 70, "duration": 10, "velocity": 58}, {"time": 109798, "pitch": 62, "duration": 10, "velocity": 127}, {"time": 109798, "pitch": 70, "duration": 10, "velocity": 83}, {"time": 109917, "pitch": 42, "duration": 10, "velocity": 85}, {"time": 109917, "pitch": 60, "duration": 10, "velocity": 127}, {"time": 109917, "pitch": 70, "duration": 10, "velocity": 127}, {"time": 110037, "pitch": 70, "duration": 10, "velocity": 45}, {"time": 110158, "pitch": 36, "duration": 10, "velocity": 115}, {"time": 110158, "pitch": 42, "duration": 10, "velocity": 81}, {"time": 110158, "pitch": 64, "duration": 10, "velocity": 127}, {"time": 110158, "pitch": 70, "duration": 10, "velocity": 41}, {"time": 110278, "pitch": 64, "duration": 10, "velocity": 127}, {"time": 110278, "pitch": 70, "duration": 10, "velocity": 43}, {"time": 110399, "pitch": 38, "duration": 10, "velocity": 127}, {"time": 110399, "pitch": 42, "duration": 10, "velocity": 95}, {"time": 110399, "pitch": 61, "duration": 10, "velocity": 127}, {"time": 110399, "pitch": 70, "duration": 10, "velocity": 127}, {"time": 110519, "pitch": 70, "duration": 10, "velocity": 70}, {"time": 110639, "pitch": 46, "duration": 10, "velocity": 98}, {"time": 110639, "pitch": 62, "duration": 10, "velocity": 127}, {"time": 110639, "pitch": 70, "duration": 10, "velocity": 45}, {"time": 110760, "pitch": 62, "duration": 10, "velocity": 127}, {"time": 110760, "pitch": 70, "duration": 10, "velocity": 46}, {"time": 110880, "pitch": 36, "duration": 10, "velocity": 115}, {"time": 110880, "pitch": 42, "duration": 10, "velocity": 74}, {"time": 110880, "pitch": 60, "duration": 10, "velocity": 127}, {"time": 110880, "pitch": 70, "duration": 10, "velocity": 127}, {"time": 111001, "pitch": 70, "duration": 10, "velocity": 53}, {"time": 111121, "pitch": 42, "duration": 10, "velocity": 92}, {"time": 111121, "pitch": 64, "duration": 10, "velocity": 127}, {"time": 111121, "pitch": 70, "duration": 10, "velocity": 43}, {"time": 111242, "pitch": 64, "duration": 10, "velocity": 127}, {"time": 111242, "pitch": 70, "duration": 10, "velocity": 58}, {"time": 111362, "pitch": 38, "duration": 10, "velocity": 127}, {"time": 111362, "pitch": 42, "duration": 10, "velocity": 95}, {"time": 111362, "pitch": 54, "duration": 10, "velocity": 127}, {"time": 111362, "pitch": 61, "duration": 10, "velocity": 127}, {"time": 111362, "pitch": 70, "duration": 10, "velocity": 127}, {"time": 111483, "pitch": 70, "duration": 10, "velocity": 57}, {"time": 111603, "pitch": 36, "duration": 10, "velocity": 115}, {"time": 111603, "pitch": 42, "duration": 10, "velocity": 80}, {"time": 111603, "pitch": 62, "duration": 10, "velocity": 127}, {"time": 111603, "pitch": 70, "duration": 10, "velocity": 58}, {"time": 111723, "pitch": 42, "duration": 10, "velocity": 95}, {"time": 111723, "pitch": 62, "duration": 10, "velocity": 127}, {"time": 111723, "pitch": 70, "duration": 10, "velocity": 83}, {"time": 111844, "pitch": 36, "duration": 10, "velocity": 115}, {"time": 111844, "pitch": 42, "duration": 10, "velocity": 68}, {"time": 111844, "pitch": 60, "duration": 10, "velocity": 127}, {"time": 111844, "pitch": 70, "duration": 10, "velocity": 127}, {"time": 111962, "pitch": 70, "duration": 10, "velocity": 45}, {"time": 112081, "pitch": 42, "duration": 10, "velocity": 100}, {"time": 112081, "pitch": 64, "duration": 10, "velocity": 127}, {"time": 112081, "pitch": 70, "duration": 10, "velocity": 41}, {"time": 112199, "pitch": 70, "duration": 10, "velocity": 43}, {"time": 112318, "pitch": 38, "duration": 10, "velocity": 127}, {"time": 112318, "pitch": 42, "duration": 10, "velocity": 95}, {"time": 112318, "pitch": 63, "duration": 10, "velocity": 127}, {"time": 112318, "pitch": 70, "duration": 10, "velocity": 127}, {"time": 112438, "pitch": 70, "duration": 10, "velocity": 70}, {"time": 112559, "pitch": 36, "duration": 10, "velocity": 115}, {"time": 112559, "pitch": 42, "duration": 10, "velocity": 86}, {"time": 112559, "pitch": 64, "duration": 10, "velocity": 127}, {"time": 112559, "pitch": 70, "duration": 10, "velocity": 45}, {"time": 112679, "pitch": 42, "duration": 10, "velocity": 105}, {"time": 112679, "pitch": 64, "duration": 10, "velocity": 127}, {"time": 112679, "pitch": 70, "duration": 10, "velocity": 46}, {"time": 112799, "pitch": 42, "duration": 10, "velocity": 83}, {"time": 112799, "pitch": 60, "duration": 10, "velocity": 127}, {"time": 112799, "pitch": 70, "duration": 10, "velocity": 127}, {"time": 112920, "pitch": 62, "duration": 10, "velocity": 127}, {"time": 112920, "pitch": 70, "duration": 10, "velocity": 53}, {"time": 113040, "pitch": 36, "duration": 10, "velocity": 115}, {"time": 113040, "pitch": 46, "duration": 10, "velocity": 98}, {"time": 113040, "pitch": 70, "duration": 10, "velocity": 43}, {"time": 113161, "pitch": 62, "duration": 10, "velocity": 127}, {"time": 113161, "pitch": 70, "duration": 10, "velocity": 58}, {"time": 113281, "pitch": 38, "duration": 10, "velocity": 127}, {"time": 113281, "pitch": 42, "duration": 10, "velocity": 96}, {"time": 113281, "pitch": 54, "duration": 10, "velocity": 127}, {"time": 113281, "pitch": 61, "duration": 10, "velocity": 127}, {"time": 113281, "pitch": 70, "duration": 10, "velocity": 127}, {"time": 113402, "pitch": 70, "duration": 10, "velocity": 57}, {"time": 113522, "pitch": 36, "duration": 10, "velocity": 115}, {"time": 113522, "pitch": 42, "duration": 10, "velocity": 83}, {"time": 113522, "pitch": 54, "duration": 10, "velocity": 127}, {"time": 113522, "pitch": 64, "duration": 10, "velocity": 127}, {"time": 113522, "pitch": 70, "duration": 10, "velocity": 58}, {"time": 113643, "pitch": 42, "duration": 10, "velocity": 82}, {"time": 113643, "pitch": 64, "duration": 10, "velocity": 127}, {"time": 113643, "pitch": 70, "duration": 10, "velocity": 83}, {"time": 113763, "pitch": 36, "duration": 10, "velocity": 115}, {"time": 113763, "pitch": 42, "duration": 10, "velocity": 78}, {"time": 113763, "pitch": 60, "duration": 10, "velocity": 127}, {"time": 113763, "pitch": 70, "duration": 10, "velocity": 127}, {"time": 113881, "pitch": 70, "duration": 10, "velocity": 45}, {"time": 114000, "pitch": 42, "duration": 10, "velocity": 87}, {"time": 114000, "pitch": 62, "duration": 10, "velocity": 127}, {"time": 114000, "pitch": 70, "duration": 10, "velocity": 41}, {"time": 114118, "pitch": 62, "duration": 10, "velocity": 127}, {"time": 114118, "pitch": 70, "duration": 10, "velocity": 43}, {"time": 114237, "pitch": 38, "duration": 10, "velocity": 127}, {"time": 114237, "pitch": 42, "duration": 10, "velocity": 88}, {"time": 114237, "pitch": 61, "duration": 10, "velocity": 127}, {"time": 114237, "pitch": 70, "duration": 10, "velocity": 127}, {"time": 114357, "pitch": 70, "duration": 10, "velocity": 70}, {"time": 114478, "pitch": 42, "duration": 10, "velocity": 69}, {"time": 114478, "pitch": 64, "duration": 10, "velocity": 127}, {"time": 114478, "pitch": 70, "duration": 10, "velocity": 45}, {"time": 114598, "pitch": 42, "duration": 10, "velocity": 87}, {"time": 114598, "pitch": 64, "duration": 10, "velocity": 127}, {"time": 114598, "pitch": 70, "duration": 10, "velocity": 46}, {"time": 114719, "pitch": 36, "duration": 10, "velocity": 115}, {"time": 114719, "pitch": 42, "duration": 10, "velocity": 73}, {"time": 114719, "pitch": 60, "duration": 10, "velocity": 127}, {"time": 114719, "pitch": 70, "duration": 10, "velocity": 127}, {"time": 114839, "pitch": 42, "duration": 10, "velocity": 100}, {"time": 114839, "pitch": 70, "duration": 10, "velocity": 53}, {"time": 114959, "pitch": 36, "duration": 11, "velocity": 115}, {"time": 114959, "pitch": 46, "duration": 11, "velocity": 95}, {"time": 114959, "pitch": 62, "duration": 11, "velocity": 127}, {"time": 114959, "pitch": 70, "duration": 11, "velocity": 43}, {"time": 115080, "pitch": 62, "duration": 10, "velocity": 127}, {"time": 115080, "pitch": 70, "duration": 10, "velocity": 58}, {"time": 115200, "pitch": 38, "duration": 10, "velocity": 127}, {"time": 115200, "pitch": 42, "duration": 10, "velocity": 95}, {"time": 115200, "pitch": 54, "duration": 10, "velocity": 127}, {"time": 115200, "pitch": 61, "duration": 10, "velocity": 127}, {"time": 115200, "pitch": 70, "duration": 10, "velocity": 127}, {"time": 115321, "pitch": 70, "duration": 10, "velocity": 57}, {"time": 115441, "pitch": 36, "duration": 10, "velocity": 115}, {"time": 115441, "pitch": 42, "duration": 10, "velocity": 78}, {"time": 115441, "pitch": 64, "duration": 10, "velocity": 127}, {"time": 115441, "pitch": 70, "duration": 10, "velocity": 58}, {"time": 115562, "pitch": 64, "duration": 10, "velocity": 127}, {"time": 115562, "pitch": 70, "duration": 10, "velocity": 83}, {"time": 115682, "pitch": 42, "duration": 10, "velocity": 78}, {"time": 115682, "pitch": 60, "duration": 10, "velocity": 127}, {"time": 115682, "pitch": 70, "duration": 10, "velocity": 127}, {"time": 115803, "pitch": 70, "duration": 10, "velocity": 45}, {"time": 115923, "pitch": 36, "duration": 10, "velocity": 115}, {"time": 115923, "pitch": 42, "duration": 10, "velocity": 64}, {"time": 115923, "pitch": 62, "duration": 10, "velocity": 127}, {"time": 115923, "pitch": 70, "duration": 10, "velocity": 41}, {"time": 116043, "pitch": 62, "duration": 10, "velocity": 127}, {"time": 116043, "pitch": 70, "duration": 10, "velocity": 43}, {"time": 116164, "pitch": 38, "duration": 10, "velocity": 127}, {"time": 116164, "pitch": 42, "duration": 10, "velocity": 87}, {"time": 116164, "pitch": 61, "duration": 10, "velocity": 127}, {"time": 116164, "pitch": 70, "duration": 10, "velocity": 127}, {"time": 116282, "pitch": 70, "duration": 10, "velocity": 70}, {"time": 116401, "pitch": 42, "duration": 10, "velocity": 77}, {"time": 116401, "pitch": 64, "duration": 10, "velocity": 127}, {"time": 116401, "pitch": 70, "duration": 10, "velocity": 45}, {"time": 116519, "pitch": 42, "duration": 10, "velocity": 74}, {"time": 116519, "pitch": 64, "duration": 10, "velocity": 127}, {"time": 116519, "pitch": 70, "duration": 10, "velocity": 46}, {"time": 116638, "pitch": 36, "duration": 10, "velocity": 115}, {"time": 116638, "pitch": 42, "duration": 10, "velocity": 81}, {"time": 116638, "pitch": 60, "duration": 10, "velocity": 127}, {"time": 116638, "pitch": 70, "duration": 10, "velocity": 127}, {"time": 116758, "pitch": 42, "duration": 10, "velocity": 115}, {"time": 116758, "pitch": 70, "duration": 10, "velocity": 53}, {"time": 116879, "pitch": 36, "duration": 10, "velocity": 115}, {"time": 116879, "pitch": 46, "duration": 10, "velocity": 95}, {"time": 116879, "pitch": 62, "duration": 10, "velocity": 127}, {"time": 116879, "pitch": 70, "duration": 10, "velocity": 43}, {"time": 116999, "pitch": 62, "duration": 10, "velocity": 127}, {"time": 116999, "pitch": 70, "duration": 10, "velocity": 58}, {"time": 117119, "pitch": 38, "duration": 11, "velocity": 127}, {"time": 117119, "pitch": 42, "duration": 11, "velocity": 91}, {"time": 117119, "pitch": 54, "duration": 11, "velocity": 127}, {"time": 117119, "pitch": 63, "duration": 11, "velocity": 127}, {"time": 117119, "pitch": 70, "duration": 11, "velocity": 127}, {"time": 117240, "pitch": 70, "duration": 10, "velocity": 57}, {"time": 117360, "pitch": 36, "duration": 10, "velocity": 115}, {"time": 117360, "pitch": 42, "duration": 10, "velocity": 69}, {"time": 117360, "pitch": 54, "duration": 10, "velocity": 127}, {"time": 117360, "pitch": 64, "duration": 10, "velocity": 127}, {"time": 117360, "pitch": 70, "duration": 10, "velocity": 58}, {"time": 117481, "pitch": 42, "duration": 10, "velocity": 93}, {"time": 117481, "pitch": 64, "duration": 10, "velocity": 127}, {"time": 117481, "pitch": 70, "duration": 10, "velocity": 83}, {"time": 117601, "pitch": 42, "duration": 10, "velocity": 54}, {"time": 117601, "pitch": 60, "duration": 10, "velocity": 127}, {"time": 117601, "pitch": 70, "duration": 10, "velocity": 127}, {"time": 117722, "pitch": 70, "duration": 10, "velocity": 45}, {"time": 117842, "pitch": 36, "duration": 10, "velocity": 115}, {"time": 117842, "pitch": 42, "duration": 10, "velocity": 78}, {"time": 117842, "pitch": 62, "duration": 10, "velocity": 127}, {"time": 117842, "pitch": 70, "duration": 10, "velocity": 41}, {"time": 117963, "pitch": 62, "duration": 10, "velocity": 127}, {"time": 117963, "pitch": 70, "duration": 10, "velocity": 43}, {"time": 118083, "pitch": 38, "duration": 10, "velocity": 127}, {"time": 118083, "pitch": 42, "duration": 10, "velocity": 91}, {"time": 118083, "pitch": 61, "duration": 10, "velocity": 127}, {"time": 118083, "pitch": 70, "duration": 10, "velocity": 127}, {"time": 118201, "pitch": 70, "duration": 10, "velocity": 70}, {"time": 118320, "pitch": 42, "duration": 10, "velocity": 59}, {"time": 118320, "pitch": 64, "duration": 10, "velocity": 127}, {"time": 118320, "pitch": 70, "duration": 10, "velocity": 45}, {"time": 118438, "pitch": 42, "duration": 10, "velocity": 95}, {"time": 118438, "pitch": 64, "duration": 10, "velocity": 127}, {"time": 118438, "pitch": 70, "duration": 10, "velocity": 46}, {"time": 118557, "pitch": 36, "duration": 10, "velocity": 115}, {"time": 118557, "pitch": 42, "duration": 10, "velocity": 85}, {"time": 118557, "pitch": 60, "duration": 10, "velocity": 127}, {"time": 118557, "pitch": 70, "duration": 10, "velocity": 127}, {"time": 118677, "pitch": 70, "duration": 10, "velocity": 53}, {"time": 118798, "pitch": 42, "duration": 10, "velocity": 73}, {"time": 118798, "pitch": 62, "duration": 10, "velocity": 127}, {"time": 118798, "pitch": 70, "duration": 10, "velocity": 43}, {"time": 118918, "pitch": 42, "duration": 10, "velocity": 104}, {"time": 118918, "pitch": 62, "duration": 10, "velocity": 127}, {"time": 118918, "pitch": 70, "duration": 10, "velocity": 58}, {"time": 119039, "pitch": 38, "duration": 10, "velocity": 127}, {"time": 119039, "pitch": 42, "duration": 10, "velocity": 80}, {"time": 119039, "pitch": 54, "duration": 10, "velocity": 127}, {"time": 119039, "pitch": 63, "duration": 10, "velocity": 127}, {"time": 119039, "pitch": 70, "duration": 10, "velocity": 127}, {"time": 119159, "pitch": 63, "duration": 10, "velocity": 127}, {"time": 119159, "pitch": 70, "duration": 10, "velocity": 57}, {"time": 119279, "pitch": 36, "duration": 11, "velocity": 115}, {"time": 119279, "pitch": 46, "duration": 11, "velocity": 75}, {"time": 119279, "pitch": 64, "duration": 11, "velocity": 127}, {"time": 119279, "pitch": 70, "duration": 11, "velocity": 58}, {"time": 119400, "pitch": 64, "duration": 10, "velocity": 127}, {"time": 119400, "pitch": 70, "duration": 10, "velocity": 83}, {"time": 119520, "pitch": 36, "duration": 10, "velocity": 115}, {"time": 119520, "pitch": 42, "duration": 10, "velocity": 78}, {"time": 119520, "pitch": 60, "duration": 10, "velocity": 127}, {"time": 119520, "pitch": 70, "duration": 10, "velocity": 127}, {"time": 119641, "pitch": 70, "duration": 10, "velocity": 45}, {"time": 119761, "pitch": 46, "duration": 10, "velocity": 91}, {"time": 119761, "pitch": 62, "duration": 10, "velocity": 127}, {"time": 119761, "pitch": 70, "duration": 10, "velocity": 41}, {"time": 119882, "pitch": 62, "duration": 10, "velocity": 127}, {"time": 119882, "pitch": 70, "duration": 10, "velocity": 43}, {"time": 120002, "pitch": 38, "duration": 10, "velocity": 127}, {"time": 120002, "pitch": 42, "duration": 10, "velocity": 104}, {"time": 120002, "pitch": 61, "duration": 10, "velocity": 127}, {"time": 120002, "pitch": 70, "duration": 10, "velocity": 127}, {"time": 120123, "pitch": 70, "duration": 10, "velocity": 70}, {"time": 120243, "pitch": 36, "duration": 10, "velocity": 115}, {"time": 120243, "pitch": 46, "duration": 10, "velocity": 95}, {"time": 120243, "pitch": 64, "duration": 10, "velocity": 127}, {"time": 120243, "pitch": 70, "duration": 10, "velocity": 45}, {"time": 120363, "pitch": 64, "duration": 10, "velocity": 127}, {"time": 120363, "pitch": 70, "duration": 10, "velocity": 46}, {"time": 120484, "pitch": 42, "duration": 10, "velocity": 75}, {"time": 120484, "pitch": 47, "duration": 10, "velocity": 100}, {"time": 120484, "pitch": 60, "duration": 10, "velocity": 127}, {"time": 120484, "pitch": 70, "duration": 10, "velocity": 127}, {"time": 120505, "pitch": 47, "duration": 9, "velocity": 127}, {"time": 120602, "pitch": 70, "duration": 10, "velocity": 53}, {"time": 120721, "pitch": 38, "duration": 10, "velocity": 62}, {"time": 120721, "pitch": 42, "duration": 10, "velocity": 94}, {"time": 120721, "pitch": 62, "duration": 10, "velocity": 127}, {"time": 120721, "pitch": 70, "duration": 10, "velocity": 43}, {"time": 120780, "pitch": 38, "duration": 10, "velocity": 73}, {"time": 120830, "pitch": 38, "duration": 10, "velocity": 86}, {"time": 120839, "pitch": 62, "duration": 10, "velocity": 127}, {"time": 120839, "pitch": 70, "duration": 10, "velocity": 58}, {"time": 120890, "pitch": 38, "duration": 10, "velocity": 107}, {"time": 120958, "pitch": 38, "duration": 10, "velocity": 127}, {"time": 120958, "pitch": 42, "duration": 10, "velocity": 69}, {"time": 120958, "pitch": 54, "duration": 10, "velocity": 127}, {"time": 120958, "pitch": 63, "duration": 10, "velocity": 127}, {"time": 120958, "pitch": 70, "duration": 10, "velocity": 127}, {"time": 121078, "pitch": 38, "duration": 10, "velocity": 127}, {"time": 121078, "pitch": 63, "duration": 10, "velocity": 127}, {"time": 121078, "pitch": 70, "duration": 10, "velocity": 57}, {"time": 121199, "pitch": 42, "duration": 10, "velocity": 91}, {"time": 121199, "pitch": 43, "duration": 10, "velocity": 100}, {"time": 121199, "pitch": 54, "duration": 10, "velocity": 127}, {"time": 121199, "pitch": 64, "duration": 10, "velocity": 127}, {"time": 121199, "pitch": 70, "duration": 10, "velocity": 58}, {"time": 121226, "pitch": 43, "duration": 10, "velocity": 127}, {"time": 121319, "pitch": 64, "duration": 10, "velocity": 127}, {"time": 121319, "pitch": 70, "duration": 10, "velocity": 83}, {"time": 121439, "pitch": 36, "duration": 11, "velocity": 115}, {"time": 121439, "pitch": 42, "duration": 11, "velocity": 69}, {"time": 121439, "pitch": 49, "duration": 11, "velocity": 127}, {"time": 121439, "pitch": 57, "duration": 11, "velocity": 127}, {"time": 121439, "pitch": 60, "duration": 11, "velocity": 127}, {"time": 121439, "pitch": 70, "duration": 11, "velocity": 127}, {"time": 121560, "pitch": 42, "duration": 10, "velocity": 65}, {"time": 121560, "pitch": 70, "duration": 10, "velocity": 45}, {"time": 121680, "pitch": 46, "duration": 10, "velocity": 98}, {"time": 121680, "pitch": 64, "duration": 10, "velocity": 127}, {"time": 121680, "pitch": 70, "duration": 10, "velocity": 41}, {"time": 121801, "pitch": 70, "duration": 10, "velocity": 43}, {"time": 121921, "pitch": 38, "duration": 10, "velocity": 127}, {"time": 121921, "pitch": 42, "duration": 10, "velocity": 97}, {"time": 121921, "pitch": 61, "duration": 10, "velocity": 127}, {"time": 121921, "pitch": 70, "duration": 10, "velocity": 127}, {"time": 122042, "pitch": 70, "duration": 10, "velocity": 70}, {"time": 122162, "pitch": 42, "duration": 10, "velocity": 56}, {"time": 122162, "pitch": 62, "duration": 10, "velocity": 127}, {"time": 122162, "pitch": 70, "duration": 10, "velocity": 45}, {"time": 122283, "pitch": 42, "duration": 10, "velocity": 80}, {"time": 122283, "pitch": 62, "duration": 10, "velocity": 127}, {"time": 122283, "pitch": 70, "duration": 10, "velocity": 46}, {"time": 122403, "pitch": 36, "duration": 10, "velocity": 115}, {"time": 122403, "pitch": 42, "duration": 10, "velocity": 66}, {"time": 122403, "pitch": 60, "duration": 10, "velocity": 127}, {"time": 122403, "pitch": 70, "duration": 10, "velocity": 127}, {"time": 122521, "pitch": 70, "duration": 10, "velocity": 53}, {"time": 122640, "pitch": 36, "duration": 10, "velocity": 115}, {"time": 122640, "pitch": 42, "duration": 10, "velocity": 101}, {"time": 122640, "pitch": 64, "duration": 10, "velocity": 127}, {"time": 122640, "pitch": 70, "duration": 10, "velocity": 43}, {"time": 122758, "pitch": 70, "duration": 10, "velocity": 58}, {"time": 122877, "pitch": 38, "duration": 10, "velocity": 127}, {"time": 122877, "pitch": 42, "duration": 10, "velocity": 79}, {"time": 122877, "pitch": 54, "duration": 10, "velocity": 127}, {"time": 122877, "pitch": 61, "duration": 10, "velocity": 127}, {"time": 122877, "pitch": 70, "duration": 10, "velocity": 127}, {"time": 122997, "pitch": 70, "duration": 10, "velocity": 57}, {"time": 123118, "pitch": 36, "duration": 10, "velocity": 115}, {"time": 123118, "pitch": 42, "duration": 10, "velocity": 83}, {"time": 123118, "pitch": 62, "duration": 10, "velocity": 127}, {"time": 123118, "pitch": 70, "duration": 10, "velocity": 58}, {"time": 123238, "pitch": 62, "duration": 10, "velocity": 127}, {"time": 123238, "pitch": 70, "duration": 10, "velocity": 83}, {"time": 123359, "pitch": 42, "duration": 10, "velocity": 82}, {"time": 123359, "pitch": 60, "duration": 10, "velocity": 127}, {"time": 123359, "pitch": 70, "duration": 10, "velocity": 127}, {"time": 123479, "pitch": 42, "duration": 10, "velocity": 97}, {"time": 123479, "pitch": 70, "duration": 10, "velocity": 45}, {"time": 123599, "pitch": 36, "duration": 11, "velocity": 115}, {"time": 123599, "pitch": 46, "duration": 11, "velocity": 90}, {"time": 123599, "pitch": 64, "duration": 11, "velocity": 127}, {"time": 123599, "pitch": 70, "duration": 11, "velocity": 41}, {"time": 123720, "pitch": 70, "duration": 10, "velocity": 43}, {"time": 123840, "pitch": 38, "duration": 10, "velocity": 127}, {"time": 123840, "pitch": 42, "duration": 10, "velocity": 87}, {"time": 123840, "pitch": 61, "duration": 10, "velocity": 127}, {"time": 123840, "pitch": 70, "duration": 10, "velocity": 127}, {"time": 123961, "pitch": 70, "duration": 10, "velocity": 70}, {"time": 124081, "pitch": 42, "duration": 10, "velocity": 60}, {"time": 124081, "pitch": 62, "duration": 10, "velocity": 127}, {"time": 124081, "pitch": 70, "duration": 10, "velocity": 45}, {"time": 124202, "pitch": 42, "duration": 10, "velocity": 105}, {"time": 124202, "pitch": 62, "duration": 10, "velocity": 127}, {"time": 124202, "pitch": 70, "duration": 10, "velocity": 46}, {"time": 124322, "pitch": 36, "duration": 10, "velocity": 115}, {"time": 124322, "pitch": 42, "duration": 10, "velocity": 78}, {"time": 124322, "pitch": 60, "duration": 10, "velocity": 127}, {"time": 124322, "pitch": 70, "duration": 10, "velocity": 127}, {"time": 124443, "pitch": 70, "duration": 10, "velocity": 53}, {"time": 124563, "pitch": 36, "duration": 10, "velocity": 115}, {"time": 124563, "pitch": 42, "duration": 10, "velocity": 87}, {"time": 124563, "pitch": 64, "duration": 10, "velocity": 127}, {"time": 124563, "pitch": 70, "duration": 10, "velocity": 43}, {"time": 124683, "pitch": 64, "duration": 10, "velocity": 127}, {"time": 124683, "pitch": 70, "duration": 10, "velocity": 58}, {"time": 124804, "pitch": 38, "duration": 10, "velocity": 127}, {"time": 124804, "pitch": 42, "duration": 10, "velocity": 98}, {"time": 124804, "pitch": 54, "duration": 10, "velocity": 127}, {"time": 124804, "pitch": 63, "duration": 10, "velocity": 127}, {"time": 124804, "pitch": 70, "duration": 10, "velocity": 127}, {"time": 124922, "pitch": 70, "duration": 10, "velocity": 57}, {"time": 125041, "pitch": 36, "duration": 10, "velocity": 115}, {"time": 125041, "pitch": 46, "duration": 10, "velocity": 88}, {"time": 125041, "pitch": 54, "duration": 10, "velocity": 127}, {"time": 125041, "pitch": 62, "duration": 10, "velocity": 127}, {"time": 125041, "pitch": 70, "duration": 10, "velocity": 58}, {"time": 125159, "pitch": 62, "duration": 10, "velocity": 127}, {"time": 125159, "pitch": 70, "duration": 10, "velocity": 83}, {"time": 125278, "pitch": 42, "duration": 10, "velocity": 85}, {"time": 125278, "pitch": 60, "duration": 10, "velocity": 127}, {"time": 125278, "pitch": 70, "duration": 10, "velocity": 127}, {"time": 125398, "pitch": 70, "duration": 10, "velocity": 45}, {"time": 125519, "pitch": 36, "duration": 10, "velocity": 115}, {"time": 125519, "pitch": 42, "duration": 10, "velocity": 81}, {"time": 125519, "pitch": 64, "duration": 10, "velocity": 127}, {"time": 125519, "pitch": 70, "duration": 10, "velocity": 41}, {"time": 125639, "pitch": 64, "duration": 10, "velocity": 127}, {"time": 125639, "pitch": 70, "duration": 10, "velocity": 43}, {"time": 125759, "pitch": 38, "duration": 11, "velocity": 127}, {"time": 125759, "pitch": 42, "duration": 11, "velocity": 95}, {"time": 125759, "pitch": 61, "duration": 11, "velocity": 127}, {"time": 125759, "pitch": 70, "duration": 11, "velocity": 127}, {"time": 125880, "pitch": 70, "duration": 10, "velocity": 70}, {"time": 126000, "pitch": 46, "duration": 10, "velocity": 98}, {"time": 126000, "pitch": 62, "duration": 10, "velocity": 127}, {"time": 126000, "pitch": 70, "duration": 10, "velocity": 45}, {"time": 126121, "pitch": 62, "duration": 10, "velocity": 127}, {"time": 126121, "pitch": 70, "duration": 10, "velocity": 46}, {"time": 126241, "pitch": 36, "duration": 10, "velocity": 115}, {"time": 126241, "pitch": 42, "duration": 10, "velocity": 74}, {"time": 126241, "pitch": 60, "duration": 10, "velocity": 127}, {"time": 126241, "pitch": 70, "duration": 10, "velocity": 127}, {"time": 126362, "pitch": 70, "duration": 10, "velocity": 53}, {"time": 126482, "pitch": 42, "duration": 10, "velocity": 92}, {"time": 126482, "pitch": 64, "duration": 10, "velocity": 127}, {"time": 126482, "pitch": 70, "duration": 10, "velocity": 43}, {"time": 126603, "pitch": 64, "duration": 10, "velocity": 127}, {"time": 126603, "pitch": 70, "duration": 10, "velocity": 58}, {"time": 126723, "pitch": 38, "duration": 10, "velocity": 127}, {"time": 126723, "pitch": 42, "duration": 10, "velocity": 95}, {"time": 126723, "pitch": 54, "duration": 10, "velocity": 127}, {"time": 126723, "pitch": 61, "duration": 10, "velocity": 127}, {"time": 126723, "pitch": 70, "duration": 10, "velocity": 127}, {"time": 126841, "pitch": 70, "duration": 10, "velocity": 57}, {"time": 126960, "pitch": 36, "duration": 10, "velocity": 115}, {"time": 126960, "pitch": 42, "duration": 10, "velocity": 80}, {"time": 126960, "pitch": 62, "duration": 10, "velocity": 127}, {"time": 126960, "pitch": 70, "duration": 10, "velocity": 58}, {"time": 127078, "pitch": 42, "duration": 10, "velocity": 95}, {"time": 127078, "pitch": 62, "duration": 10, "velocity": 127}, {"time": 127078, "pitch": 70, "duration": 10, "velocity": 83}, {"time": 127197, "pitch": 36, "duration": 10, "velocity": 115}, {"time": 127197, "pitch": 42, "duration": 10, "velocity": 68}, {"time": 127197, "pitch": 60, "duration": 10, "velocity": 127}, {"time": 127197, "pitch": 70, "duration": 10, "velocity": 127}, {"time": 127317, "pitch": 70, "duration": 10, "velocity": 45}, {"time": 127438, "pitch": 42, "duration": 10, "velocity": 100}, {"time": 127438, "pitch": 64, "duration": 10, "velocity": 127}, {"time": 127438, "pitch": 70, "duration": 10, "velocity": 41}, {"time": 127558, "pitch": 70, "duration": 10, "velocity": 43}, {"time": 127679, "pitch": 38, "duration": 10, "velocity": 127}, {"time": 127679, "pitch": 42, "duration": 10, "velocity": 95}, {"time": 127679, "pitch": 63, "duration": 10, "velocity": 127}, {"time": 127679, "pitch": 70, "duration": 10, "velocity": 127}, {"time": 127799, "pitch": 70, "duration": 10, "velocity": 70}, {"time": 127920, "pitch": 36, "duration": 10, "velocity": 115}, {"time": 127920, "pitch": 42, "duration": 10, "velocity": 86}, {"time": 127920, "pitch": 64, "duration": 10, "velocity": 127}, {"time": 127920, "pitch": 70, "duration": 10, "velocity": 45}, {"time": 128040, "pitch": 42, "duration": 10, "velocity": 105}, {"time": 128040, "pitch": 64, "duration": 10, "velocity": 127}, {"time": 128040, "pitch": 70, "duration": 10, "velocity": 46}, {"time": 128160, "pitch": 42, "duration": 10, "velocity": 83}, {"time": 128160, "pitch": 60, "duration": 10, "velocity": 127}, {"time": 128160, "pitch": 70, "duration": 10, "velocity": 127}, {"time": 128281, "pitch": 62, "duration": 10, "velocity": 127}, {"time": 128281, "pitch": 70, "duration": 10, "velocity": 53}, {"time": 128401, "pitch": 36, "duration": 10, "velocity": 115}, {"time": 128401, "pitch": 46, "duration": 10, "velocity": 98}, {"time": 128401, "pitch": 70, "duration": 10, "velocity": 43}, {"time": 128522, "pitch": 62, "duration": 10, "velocity": 127}, {"time": 128522, "pitch": 70, "duration": 10, "velocity": 58}, {"time": 128642, "pitch": 38, "duration": 10, "velocity": 127}, {"time": 128642, "pitch": 42, "duration": 10, "velocity": 96}, {"time": 128642, "pitch": 54, "duration": 10, "velocity": 127}, {"time": 128642, "pitch": 61, "duration": 10, "velocity": 127}, {"time": 128642, "pitch": 70, "duration": 10, "velocity": 127}, {"time": 128763, "pitch": 70, "duration": 10, "velocity": 57}, {"time": 128883, "pitch": 36, "duration": 10, "velocity": 115}, {"time": 128883, "pitch": 42, "duration": 10, "velocity": 83}, {"time": 128883, "pitch": 54, "duration": 10, "velocity": 127}, {"time": 128883, "pitch": 64, "duration": 10, "velocity": 127}, {"time": 128883, "pitch": 70, "duration": 10, "velocity": 58}, {"time": 129003, "pitch": 42, "duration": 10, "velocity": 82}, {"time": 129003, "pitch": 64, "duration": 10, "velocity": 127}, {"time": 129003, "pitch": 70, "duration": 10, "velocity": 83}, {"time": 129124, "pitch": 36, "duration": 10, "velocity": 115}, {"time": 129124, "pitch": 42, "duration": 10, "velocity": 78}, {"time": 129124, "pitch": 60, "duration": 10, "velocity": 127}, {"time": 129124, "pitch": 70, "duration": 10, "velocity": 127}, {"time": 129242, "pitch": 70, "duration": 10, "velocity": 45}, {"time": 129361, "pitch": 42, "duration": 10, "velocity": 87}, {"time": 129361, "pitch": 62, "duration": 10, "velocity": 127}, {"time": 129361, "pitch": 70, "duration": 10, "velocity": 41}, {"time": 129479, "pitch": 62, "duration": 10, "velocity": 127}, {"time": 129479, "pitch": 70, "duration": 10, "velocity": 43}, {"time": 129598, "pitch": 38, "duration": 10, "velocity": 127}, {"time": 129598, "pitch": 42, "duration": 10, "velocity": 88}, {"time": 129598, "pitch": 61, "duration": 10, "velocity": 127}, {"time": 129598, "pitch": 70, "duration": 10, "velocity": 127}, {"time": 129718, "pitch": 70, "duration": 10, "velocity": 70}, {"time": 129839, "pitch": 42, "duration": 10, "velocity": 69}, {"time": 129839, "pitch": 64, "duration": 10, "velocity": 127}, {"time": 129839, "pitch": 70, "duration": 10, "velocity": 45}, {"time": 129959, "pitch": 42, "duration": 10, "velocity": 87}, {"time": 129959, "pitch": 64, "duration": 10, "velocity": 127}, {"time": 129959, "pitch": 70, "duration": 10, "velocity": 46}, {"time": 130080, "pitch": 36, "duration": 10, "velocity": 115}, {"time": 130080, "pitch": 42, "duration": 10, "velocity": 73}, {"time": 130080, "pitch": 60, "duration": 10, "velocity": 127}, {"time": 130080, "pitch": 70, "duration": 10, "velocity": 127}, {"time": 130200, "pitch": 42, "duration": 10, "velocity": 100}, {"time": 130200, "pitch": 70, "duration": 10, "velocity": 53}, {"time": 130320, "pitch": 36, "duration": 10, "velocity": 115}, {"time": 130320, "pitch": 46, "duration": 10, "velocity": 95}, {"time": 130320, "pitch": 62, "duration": 10, "velocity": 127}, {"time": 130320, "pitch": 70, "duration": 10, "velocity": 43}, {"time": 130441, "pitch": 62, "duration": 10, "velocity": 127}, {"time": 130441, "pitch": 70, "duration": 10, "velocity": 58}, {"time": 130561, "pitch": 38, "duration": 10, "velocity": 127}, {"time": 130561, "pitch": 42, "duration": 10, "velocity": 95}, {"time": 130561, "pitch": 54, "duration": 10, "velocity": 127}, {"time": 130561, "pitch": 61, "duration": 10, "velocity": 127}, {"time": 130561, "pitch": 70, "duration": 10, "velocity": 127}, {"time": 130682, "pitch": 70, "duration": 10, "velocity": 57}, {"time": 130802, "pitch": 36, "duration": 10, "velocity": 115}, {"time": 130802, "pitch": 42, "duration": 10, "velocity": 78}, {"time": 130802, "pitch": 64, "duration": 10, "velocity": 127}, {"time": 130802, "pitch": 70, "duration": 10, "velocity": 58}, {"time": 130923, "pitch": 64, "duration": 10, "velocity": 127}, {"time": 130923, "pitch": 70, "duration": 10, "velocity": 83}, {"time": 131043, "pitch": 42, "duration": 10, "velocity": 78}, {"time": 131043, "pitch": 60, "duration": 10, "velocity": 127}, {"time": 131043, "pitch": 70, "duration": 10, "velocity": 127}, {"time": 131161, "pitch": 70, "duration": 10, "velocity": 45}, {"time": 131280, "pitch": 36, "duration": 10, "velocity": 115}, {"time": 131280, "pitch": 42, "duration": 10, "velocity": 64}, {"time": 131280, "pitch": 62, "duration": 10, "velocity": 127}, {"time": 131280, "pitch": 70, "duration": 10, "velocity": 41}, {"time": 131398, "pitch": 62, "duration": 10, "velocity": 127}, {"time": 131398, "pitch": 70, "duration": 10, "velocity": 43}, {"time": 131517, "pitch": 38, "duration": 10, "velocity": 127}, {"time": 131517, "pitch": 42, "duration": 10, "velocity": 87}, {"time": 131517, "pitch": 61, "duration": 10, "velocity": 127}, {"time": 131517, "pitch": 70, "duration": 10, "velocity": 127}, {"time": 131637, "pitch": 70, "duration": 10, "velocity": 70}, {"time": 131758, "pitch": 42, "duration": 10, "velocity": 77}, {"time": 131758, "pitch": 64, "duration": 10, "velocity": 127}, {"time": 131758, "pitch": 70, "duration": 10, "velocity": 45}, {"time": 131878, "pitch": 42, "duration": 10, "velocity": 74}, {"time": 131878, "pitch": 64, "duration": 10, "velocity": 127}, {"time": 131878, "pitch": 70, "duration": 10, "velocity": 46}, {"time": 131999, "pitch": 36, "duration": 10, "velocity": 115}, {"time": 131999, "pitch": 42, "duration": 10, "velocity": 81}, {"time": 131999, "pitch": 60, "duration": 10, "velocity": 127}, {"time": 131999, "pitch": 70, "duration": 10, "velocity": 127}, {"time": 132119, "pitch": 42, "duration": 10, "velocity": 115}, {"time": 132119, "pitch": 70, "duration": 10, "velocity": 53}, {"time": 132240, "pitch": 36, "duration": 10, "velocity": 115}, {"time": 132240, "pitch": 46, "duration": 10, "velocity": 95}, {"time": 132240, "pitch": 62, "duration": 10, "velocity": 127}, {"time": 132240, "pitch": 70, "duration": 10, "velocity": 43}, {"time": 132360, "pitch": 62, "duration": 10, "velocity": 127}, {"time": 132360, "pitch": 70, "duration": 10, "velocity": 58}, {"time": 132480, "pitch": 38, "duration": 10, "velocity": 127}, {"time": 132480, "pitch": 42, "duration": 10, "velocity": 91}, {"time": 132480, "pitch": 54, "duration": 10, "velocity": 127}, {"time": 132480, "pitch": 63, "duration": 10, "velocity": 127}, {"time": 132480, "pitch": 70, "duration": 10, "velocity": 127}, {"time": 132601, "pitch": 70, "duration": 10, "velocity": 57}, {"time": 132721, "pitch": 36, "duration": 10, "velocity": 115}, {"time": 132721, "pitch": 42, "duration": 10, "velocity": 69}, {"time": 132721, "pitch": 54, "duration": 10, "velocity": 127}, {"time": 132721, "pitch": 64, "duration": 10, "velocity": 127}, {"time": 132721, "pitch": 70, "duration": 10, "velocity": 58}, {"time": 132842, "pitch": 42, "duration": 10, "velocity": 93}, {"time": 132842, "pitch": 64, "duration": 10, "velocity": 127}, {"time": 132842, "pitch": 70, "duration": 10, "velocity": 83}, {"time": 132962, "pitch": 42, "duration": 10, "velocity": 54}, {"time": 132962, "pitch": 60, "duration": 10, "velocity": 127}, {"time": 132962, "pitch": 70, "duration": 10, "velocity": 127}, {"time": 133083, "pitch": 70, "duration": 10, "velocity": 45}, {"time": 133203, "pitch": 36, "duration": 10, "velocity": 115}, {"time": 133203, "pitch": 42, "duration": 10, "velocity": 78}, {"time": 133203, "pitch": 62, "duration": 10, "velocity": 127}, {"time": 133203, "pitch": 70, "duration": 10, "velocity": 41}, {"time": 133323, "pitch": 62, "duration": 10, "velocity": 127}, {"time": 133323, "pitch": 70, "duration": 10, "velocity": 43}, {"time": 133444, "pitch": 38, "duration": 10, "velocity": 127}, {"time": 133444, "pitch": 42, "duration": 10, "velocity": 91}, {"time": 133444, "pitch": 61, "duration": 10, "velocity": 127}, {"time": 133444, "pitch": 70, "duration": 10, "velocity": 127}, {"time": 133562, "pitch": 70, "duration": 10, "velocity": 70}, {"time": 133681, "pitch": 42, "duration": 10, "velocity": 59}, {"time": 133681, "pitch": 64, "duration": 10, "velocity": 127}, {"time": 133681, "pitch": 70, "duration": 10, "velocity": 45}, {"time": 133799, "pitch": 42, "duration": 10, "velocity": 95}, {"time": 133799, "pitch": 64, "duration": 10, "velocity": 127}, {"time": 133799, "pitch": 70, "duration": 10, "velocity": 46}, {"time": 133918, "pitch": 36, "duration": 10, "velocity": 115}, {"time": 133918, "pitch": 42, "duration": 10, "velocity": 85}, {"time": 133918, "pitch": 60, "duration": 10, "velocity": 127}, {"time": 133918, "pitch": 70, "duration": 10, "velocity": 127}, {"time": 134038, "pitch": 70, "duration": 10, "velocity": 53}, {"time": 134159, "pitch": 42, "duration": 10, "velocity": 73}, {"time": 134159, "pitch": 62, "duration": 10, "velocity": 127}, {"time": 134159, "pitch": 70, "duration": 10, "velocity": 43}, {"time": 134279, "pitch": 42, "duration": 10, "velocity": 104}, {"time": 134279, "pitch": 62, "duration": 10, "velocity": 127}, {"time": 134279, "pitch": 70, "duration": 10, "velocity": 58}, {"time": 134400, "pitch": 38, "duration": 10, "velocity": 127}, {"time": 134400, "pitch": 42, "duration": 10, "velocity": 80}, {"time": 134400, "pitch": 54, "duration": 10, "velocity": 127}, {"time": 134400, "pitch": 63, "duration": 10, "velocity": 127}, {"time": 134400, "pitch": 70, "duration": 10, "velocity": 127}, {"time": 134520, "pitch": 63, "duration": 10, "velocity": 127}, {"time": 134520, "pitch": 70, "duration": 10, "velocity": 57}, {"time": 134640, "pitch": 36, "duration": 10, "velocity": 115}, {"time": 134640, "pitch": 46, "duration": 10, "velocity": 75}, {"time": 134640, "pitch": 64, "duration": 10, "velocity": 127}, {"time": 134640, "pitch": 70, "duration": 10, "velocity": 58}, {"time": 134761, "pitch": 64, "duration": 10, "velocity": 127}, {"time": 134761, "pitch": 70, "duration": 10, "velocity": 83}, {"time": 134881, "pitch": 36, "duration": 10, "velocity": 115}, {"time": 134881, "pitch": 42, "duration": 10, "velocity": 117}, {"time": 134881, "pitch": 49, "duration": 10, "velocity": 127}, {"time": 134881, "pitch": 57, "duration": 10, "velocity": 127}, {"time": 134881, "pitch": 60, "duration": 10, "velocity": 127}, {"time": 134881, "pitch": 80, "duration": 10, "velocity": 127}, {"time": 135002, "pitch": 42, "duration": 10, "velocity": 92}, {"time": 135122, "pitch": 46, "duration": 10, "velocity": 117}, {"time": 135122, "pitch": 64, "duration": 10, "velocity": 127}, {"time": 135122, "pitch": 81, "duration": 10, "velocity": 127}, {"time": 135363, "pitch": 36, "duration": 10, "velocity": 115}, {"time": 135363, "pitch": 42, "duration": 10, "velocity": 117}, {"time": 135363, "pitch": 61, "duration": 10, "velocity": 127}, {"time": 135363, "pitch": 80, "duration": 10, "velocity": 127}, {"time": 135481, "pitch": 80, "duration": 10, "velocity": 127}, {"time": 135600, "pitch": 42, "duration": 10, "velocity": 74}, {"time": 135600, "pitch": 62, "duration": 10, "velocity": 127}, {"time": 135600, "pitch": 81, "duration": 10, "velocity": 127}, {"time": 135718, "pitch": 42, "duration": 10, "velocity": 74}, {"time": 135718, "pitch": 62, "duration": 10, "velocity": 127}, {"time": 135837, "pitch": 36, "duration": 10, "velocity": 115}, {"time": 135837, "pitch": 42, "duration": 10, "velocity": 74}, {"time": 135837, "pitch": 60, "duration": 10, "velocity": 127}, {"time": 135837, "pitch": 80, "duration": 10, "velocity": 127}, {"time": 135957, "pitch": 42, "duration": 10, "velocity": 117}, {"time": 136078, "pitch": 46, "duration": 10, "velocity": 117}, {"time": 136078, "pitch": 64, "duration": 10, "velocity": 127}, {"time": 136078, "pitch": 81, "duration": 10, "velocity": 127}, {"time": 136319, "pitch": 36, "duration": 10, "velocity": 115}, {"time": 136319, "pitch": 42, "duration": 10, "velocity": 117}, {"time": 136319, "pitch": 61, "duration": 10, "velocity": 127}, {"time": 136319, "pitch": 80, "duration": 10, "velocity": 127}, {"time": 136560, "pitch": 38, "duration": 10, "velocity": 127}, {"time": 136560, "pitch": 42, "duration": 10, "velocity": 106}, {"time": 136560, "pitch": 43, "duration": 10, "velocity": 100}, {"time": 136560, "pitch": 62, "duration": 10, "velocity": 127}, {"time": 136560, "pitch": 81, "duration": 10, "velocity": 127}, {"time": 136578, "pitch": 43, "duration": 10, "velocity": 127}, {"time": 136680, "pitch": 42, "duration": 10, "velocity": 112}, {"time": 136680, "pitch": 62, "duration": 10, "velocity": 127}, {"time": 136800, "pitch": 36, "duration": 10, "velocity": 115}, {"time": 136800, "pitch": 42, "duration": 10, "velocity": 117}, {"time": 136800, "pitch": 60, "duration": 10, "velocity": 127}, {"time": 136800, "pitch": 80, "duration": 10, "velocity": 127}, {"time": 136921, "pitch": 42, "duration": 10, "velocity": 117}, {"time": 137041, "pitch": 46, "duration": 10, "velocity": 117}, {"time": 137041, "pitch": 64, "duration": 10, "velocity": 127}, {"time": 137041, "pitch": 81, "duration": 10, "velocity": 127}, {"time": 137282, "pitch": 36, "duration": 10, "velocity": 115}, {"time": 137282, "pitch": 38, "duration": 10, "velocity": 51}, {"time": 137282, "pitch": 42, "duration": 10, "velocity": 117}, {"time": 137282, "pitch": 61, "duration": 10, "velocity": 127}, {"time": 137282, "pitch": 80, "duration": 10, "velocity": 127}, {"time": 137350, "pitch": 38, "duration": 10, "velocity": 57}, {"time": 137403, "pitch": 38, "duration": 10, "velocity": 64}, {"time": 137403, "pitch": 80, "duration": 10, "velocity": 127}, {"time": 137471, "pitch": 38, "duration": 10, "velocity": 77}, {"time": 137523, "pitch": 42, "duration": 10, "velocity": 115}, {"time": 137523, "pitch": 62, "duration": 10, "velocity": 127}, {"time": 137523, "pitch": 81, "duration": 10, "velocity": 127}, {"time": 137527, "pitch": 38, "duration": 10, "velocity": 127}, {"time": 137643, "pitch": 42, "duration": 11, "velocity": 117}, {"time": 137643, "pitch": 62, "duration": 11, "velocity": 127}, {"time": 137764, "pitch": 36, "duration": 10, "velocity": 115}, {"time": 137764, "pitch": 42, "duration": 10, "velocity": 115}, {"time": 137764, "pitch": 60, "duration": 10, "velocity": 127}, {"time": 137764, "pitch": 80, "duration": 10, "velocity": 127}, {"time": 137882, "pitch": 42, "duration": 10, "velocity": 116}, {"time": 137882, "pitch": 50, "duration": 10, "velocity": 100}, {"time": 137910, "pitch": 50, "duration": 10, "velocity": 127}, {"time": 138001, "pitch": 46, "duration": 10, "velocity": 117}, {"time": 138001, "pitch": 64, "duration": 10, "velocity": 127}, {"time": 138001, "pitch": 81, "duration": 10, "velocity": 127}, {"time": 138119, "pitch": 64, "duration": 10, "velocity": 127}, {"time": 138238, "pitch": 36, "duration": 10, "velocity": 115}, {"time": 138238, "pitch": 42, "duration": 10, "velocity": 117}, {"time": 138238, "pitch": 47, "duration": 10, "velocity": 100}, {"time": 138238, "pitch": 63, "duration": 10, "velocity": 127}, {"time": 138238, "pitch": 80, "duration": 10, "velocity": 127}, {"time": 138266, "pitch": 47, "duration": 10, "velocity": 127}, {"time": 138479, "pitch": 38, "duration": 10, "velocity": 127}, {"time": 138479, "pitch": 43, "duration": 10, "velocity": 100}, {"time": 138479, "pitch": 46, "duration": 10, "velocity": 117}, {"time": 138479, "pitch": 62, "duration": 10, "velocity": 127}, {"time": 138479, "pitch": 81, "duration": 10, "velocity": 127}, {"time": 138507, "pitch": 43, "duration": 10, "velocity": 127}, {"time": 138599, "pitch": 62, "duration": 10, "velocity": 127}, {"time": 138720, "pitch": 36, "duration": 10, "velocity": 115}, {"time": 138720, "pitch": 42, "duration": 10, "velocity": 112}, {"time": 138720, "pitch": 55, "duration": 10, "velocity": 127}, {"time": 138720, "pitch": 60, "duration": 10, "velocity": 127}, {"time": 138720, "pitch": 80, "duration": 10, "velocity": 127}, {"time": 138840, "pitch": 42, "duration": 10, "velocity": 117}, {"time": 138960, "pitch": 46, "duration": 10, "velocity": 117}, {"time": 138960, "pitch": 64, "duration": 10, "velocity": 127}, {"time": 138960, "pitch": 81, "duration": 10, "velocity": 127}, {"time": 139081, "pitch": 64, "duration": 10, "velocity": 127}, {"time": 139201, "pitch": 36, "duration": 10, "velocity": 115}, {"time": 139201, "pitch": 42, "duration": 10, "velocity": 117}, {"time": 139201, "pitch": 61, "duration": 10, "velocity": 127}, {"time": 139201, "pitch": 80, "duration": 10, "velocity": 127}, {"time": 139322, "pitch": 80, "duration": 10, "velocity": 127}, {"time": 139442, "pitch": 42, "duration": 10, "velocity": 109}, {"time": 139442, "pitch": 62, "duration": 10, "velocity": 127}, {"time": 139442, "pitch": 81, "duration": 10, "velocity": 127}, {"time": 139563, "pitch": 42, "duration": 10, "velocity": 97}, {"time": 139563, "pitch": 62, "duration": 10, "velocity": 127}, {"time": 139683, "pitch": 36, "duration": 10, "velocity": 115}, {"time": 139683, "pitch": 42, "duration": 10, "velocity": 112}, {"time": 139683, "pitch": 60, "duration": 10, "velocity": 127}, {"time": 139683, "pitch": 80, "duration": 10, "velocity": 127}, {"time": 139801, "pitch": 42, "duration": 10, "velocity": 117}, {"time": 139920, "pitch": 46, "duration": 10, "velocity": 113}, {"time": 139920, "pitch": 64, "duration": 10, "velocity": 127}, {"time": 139920, "pitch": 81, "duration": 10, "velocity": 127}, {"time": 140038, "pitch": 64, "duration": 10, "velocity": 127}, {"time": 140157, "pitch": 36, "duration": 10, "velocity": 115}, {"time": 140157, "pitch": 42, "duration": 10, "velocity": 117}, {"time": 140157, "pitch": 61, "duration": 10, "velocity": 127}, {"time": 140157, "pitch": 80, "duration": 10, "velocity": 127}, {"time": 140398, "pitch": 38, "duration": 10, "velocity": 127}, {"time": 140398, "pitch": 42, "duration": 10, "velocity": 114}, {"time": 140398, "pitch": 43, "duration": 10, "velocity": 127}, {"time": 140398, "pitch": 62, "duration": 10, "velocity": 127}, {"time": 140398, "pitch": 81, "duration": 10, "velocity": 127}, {"time": 140422, "pitch": 43, "duration": 10, "velocity": 127}, {"time": 140518, "pitch": 42, "duration": 10, "velocity": 103}, {"time": 140518, "pitch": 62, "duration": 10, "velocity": 127}, {"time": 140639, "pitch": 36, "duration": 10, "velocity": 115}, {"time": 140639, "pitch": 42, "duration": 10, "velocity": 117}, {"time": 140639, "pitch": 60, "duration": 10, "velocity": 127}, {"time": 140639, "pitch": 80, "duration": 10, "velocity": 127}, {"time": 140759, "pitch": 42, "duration": 10, "velocity": 117}, {"time": 140880, "pitch": 46, "duration": 10, "velocity": 117}, {"time": 140880, "pitch": 64, "duration": 10, "velocity": 127}, {"time": 140880, "pitch": 81, "duration": 10, "velocity": 127}, {"time": 141120, "pitch": 36, "duration": 10, "velocity": 115}, {"time": 141120, "pitch": 42, "duration": 10, "velocity": 117}, {"time": 141120, "pitch": 63, "duration": 10, "velocity": 127}, {"time": 141120, "pitch": 80, "duration": 10, "velocity": 127}, {"time": 141241, "pitch": 80, "duration": 10, "velocity": 127}, {"time": 141361, "pitch": 38, "duration": 10, "velocity": 127}, {"time": 141361, "pitch": 42, "duration": 10, "velocity": 109}, {"time": 141361, "pitch": 45, "duration": 10, "velocity": 100}, {"time": 141361, "pitch": 64, "duration": 10, "velocity": 127}, {"time": 141361, "pitch": 81, "duration": 10, "velocity": 127}, {"time": 141381, "pitch": 45, "duration": 10, "velocity": 127}, {"time": 141482, "pitch": 42, "duration": 10, "velocity": 117}, {"time": 141482, "pitch": 64, "duration": 10, "velocity": 127}, {"time": 141602, "pitch": 36, "duration": 10, "velocity": 115}, {"time": 141602, "pitch": 42, "duration": 10, "velocity": 109}, {"time": 141602, "pitch": 60, "duration": 10, "velocity": 127}, {"time": 141602, "pitch": 80, "duration": 10, "velocity": 127}, {"time": 141723, "pitch": 38, "duration": 10, "velocity": 127}, {"time": 141723, "pitch": 42, "duration": 10, "velocity": 117}, {"time": 141723, "pitch": 45, "duration": 10, "velocity": 100}, {"time": 141723, "pitch": 62, "duration": 10, "velocity": 127}, {"time": 141755, "pitch": 45, "duration": 10, "velocity": 127}, {"time": 141843, "pitch": 46, "duration": 10, "velocity": 117}, {"time": 141843, "pitch": 81, "duration": 10, "velocity": 127}, {"time": 141963, "pitch": 62, "duration": 11, "velocity": 127}, {"time": 142084, "pitch": 36, "duration": 10, "velocity": 115}, {"time": 142084, "pitch": 38, "duration": 10, "velocity": 127}, {"time": 142084, "pitch": 42, "duration": 10, "velocity": 117}, {"time": 142084, "pitch": 45, "duration": 10, "velocity": 100}, {"time": 142084, "pitch": 61, "duration": 10, "velocity": 127}, {"time": 142084, "pitch": 80, "duration": 10, "velocity": 127}, {"time": 142119, "pitch": 45, "duration": 10, "velocity": 127}, {"time": 142321, "pitch": 38, "duration": 10, "velocity": 127}, {"time": 142321, "pitch": 45, "duration": 10, "velocity": 100}, {"time": 142321, "pitch": 46, "duration": 10, "velocity": 117}, {"time": 142321, "pitch": 64, "duration": 10, "velocity": 127}, {"time": 142321, "pitch": 81, "duration": 10, "velocity": 127}, {"time": 142345, "pitch": 45, "duration": 9, "velocity": 127}, {"time": 142439, "pitch": 64, "duration": 10, "velocity": 127}, {"time": 142558, "pitch": 36, "duration": 10, "velocity": 115}, {"time": 142558, "pitch": 42, "duration": 10, "velocity": 117}, {"time": 142558, "pitch": 49, "duration": 10, "velocity": 127}, {"time": 142558, "pitch": 60, "duration": 10, "velocity": 127}, {"time": 142558, "pitch": 80, "duration": 10, "velocity": 127}, {"time": 142678, "pitch": 42, "duration": 10, "velocity": 92}, {"time": 142799, "pitch": 46, "duration": 10, "velocity": 117}, {"time": 142799, "pitch": 62, "duration": 10, "velocity": 127}, {"time": 142799, "pitch": 81, "duration": 10, "velocity": 127}, {"time": 142919, "pitch": 62, "duration": 10, "velocity": 127}, {"time": 143040, "pitch": 36, "duration": 10, "velocity": 115}, {"time": 143040, "pitch": 42, "duration": 10, "velocity": 117}, {"time": 143040, "pitch": 61, "duration": 10, "velocity": 127}, {"time": 143040, "pitch": 80, "duration": 10, "velocity": 127}, {"time": 143160, "pitch": 80, "duration": 10, "velocity": 127}, {"time": 143280, "pitch": 42, "duration": 10, "velocity": 74}, {"time": 143280, "pitch": 64, "duration": 10, "velocity": 127}, {"time": 143280, "pitch": 81, "duration": 10, "velocity": 127}, {"time": 143401, "pitch": 42, "duration": 10, "velocity": 74}, {"time": 143401, "pitch": 64, "duration": 10, "velocity": 127}, {"time": 143521, "pitch": 36, "duration": 10, "velocity": 115}, {"time": 143521, "pitch": 42, "duration": 10, "velocity": 74}, {"time": 143521, "pitch": 60, "duration": 10, "velocity": 127}, {"time": 143521, "pitch": 80, "duration": 10, "velocity": 127}, {"time": 143642, "pitch": 42, "duration": 10, "velocity": 117}, {"time": 143762, "pitch": 46, "duration": 10, "velocity": 117}, {"time": 143762, "pitch": 62, "duration": 10, "velocity": 127}, {"time": 143762, "pitch": 81, "duration": 10, "velocity": 127}, {"time": 143883, "pitch": 62, "duration": 10, "velocity": 127}, {"time": 144003, "pitch": 36, "duration": 10, "velocity": 115}, {"time": 144003, "pitch": 42, "duration": 10, "velocity": 117}, {"time": 144003, "pitch": 61, "duration": 10, "velocity": 127}, {"time": 144003, "pitch": 80, "duration": 10, "velocity": 127}, {"time": 144240, "pitch": 38, "duration": 10, "velocity": 127}, {"time": 144240, "pitch": 42, "duration": 10, "velocity": 106}, {"time": 144240, "pitch": 43, "duration": 10, "velocity": 100}, {"time": 144240, "pitch": 64, "duration": 10, "velocity": 127}, {"time": 144240, "pitch": 81, "duration": 10, "velocity": 127}, {"time": 144258, "pitch": 43, "duration": 10, "velocity": 127}, {"time": 144358, "pitch": 42, "duration": 10, "velocity": 112}, {"time": 144358, "pitch": 64, "duration": 10, "velocity": 127}, {"time": 144477, "pitch": 36, "duration": 10, "velocity": 115}, {"time": 144477, "pitch": 42, "duration": 10, "velocity": 117}, {"time": 144477, "pitch": 60, "duration": 10, "velocity": 127}, {"time": 144477, "pitch": 80, "duration": 10, "velocity": 127}, {"time": 144597, "pitch": 42, "duration": 10, "velocity": 117}, {"time": 144718, "pitch": 46, "duration": 10, "velocity": 117}, {"time": 144718, "pitch": 62, "duration": 10, "velocity": 127}, {"time": 144718, "pitch": 81, "duration": 10, "velocity": 127}, {"time": 144838, "pitch": 62, "duration": 10, "velocity": 127}, {"time": 144959, "pitch": 36, "duration": 10, "velocity": 115}, {"time": 144959, "pitch": 38, "duration": 10, "velocity": 51}, {"time": 144959, "pitch": 42, "duration": 10, "velocity": 117}, {"time": 144959, "pitch": 61, "duration": 10, "velocity": 127}, {"time": 144959, "pitch": 80, "duration": 10, "velocity": 127}, {"time": 145027, "pitch": 38, "duration": 10, "velocity": 57}, {"time": 145079, "pitch": 38, "duration": 10, "velocity": 64}, {"time": 145079, "pitch": 80, "duration": 10, "velocity": 127}, {"time": 145147, "pitch": 38, "duration": 10, "velocity": 77}, {"time": 145200, "pitch": 42, "duration": 10, "velocity": 115}, {"time": 145200, "pitch": 64, "duration": 10, "velocity": 127}, {"time": 145200, "pitch": 81, "duration": 10, "velocity": 127}, {"time": 145204, "pitch": 38, "duration": 10, "velocity": 127}, {"time": 145320, "pitch": 42, "duration": 10, "velocity": 117}, {"time": 145320, "pitch": 64, "duration": 10, "velocity": 127}, {"time": 145440, "pitch": 36, "duration": 10, "velocity": 115}, {"time": 145440, "pitch": 42, "duration": 10, "velocity": 115}, {"time": 145440, "pitch": 60, "duration": 10, "velocity": 127}, {"time": 145440, "pitch": 80, "duration": 10, "velocity": 127}, {"time": 145561, "pitch": 42, "duration": 10, "velocity": 116}, {"time": 145561, "pitch": 50, "duration": 10, "velocity": 100}, {"time": 145589, "pitch": 50, "duration": 10, "velocity": 127}, {"time": 145681, "pitch": 46, "duration": 10, "velocity": 117}, {"time": 145681, "pitch": 62, "duration": 10, "velocity": 127}, {"time": 145681, "pitch": 81, "duration": 10, "velocity": 127}, {"time": 145802, "pitch": 62, "duration": 10, "velocity": 127}, {"time": 145922, "pitch": 36, "duration": 10, "velocity": 115}, {"time": 145922, "pitch": 42, "duration": 10, "velocity": 117}, {"time": 145922, "pitch": 47, "duration": 10, "velocity": 100}, {"time": 145922, "pitch": 63, "duration": 10, "velocity": 127}, {"time": 145922, "pitch": 80, "duration": 10, "velocity": 127}, {"time": 145950, "pitch": 47, "duration": 10, "velocity": 127}, {"time": 146163, "pitch": 38, "duration": 10, "velocity": 127}, {"time": 146163, "pitch": 43, "duration": 10, "velocity": 100}, {"time": 146163, "pitch": 46, "duration": 10, "velocity": 117}, {"time": 146163, "pitch": 64, "duration": 10, "velocity": 127}, {"time": 146163, "pitch": 81, "duration": 10, "velocity": 127}, {"time": 146191, "pitch": 43, "duration": 10, "velocity": 127}, {"time": 146283, "pitch": 53, "duration": 11, "velocity": 127}, {"time": 146283, "pitch": 55, "duration": 11, "velocity": 127}, {"time": 146283, "pitch": 64, "duration": 11, "velocity": 127}, {"time": 146404, "pitch": 36, "duration": 10, "velocity": 115}, {"time": 146404, "pitch": 42, "duration": 10, "velocity": 112}, {"time": 146404, "pitch": 57, "duration": 10, "velocity": 127}, {"time": 146404, "pitch": 60, "duration": 10, "velocity": 127}, {"time": 146404, "pitch": 80, "duration": 10, "velocity": 127}, {"time": 146522, "pitch": 42, "duration": 10, "velocity": 117}, {"time": 146641, "pitch": 46, "duration": 10, "velocity": 117}, {"time": 146641, "pitch": 62, "duration": 10, "velocity": 127}, {"time": 146641, "pitch": 81, "duration": 10, "velocity": 127}, {"time": 146759, "pitch": 62, "duration": 10, "velocity": 127}, {"time": 146878, "pitch": 36, "duration": 10, "velocity": 115}, {"time": 146878, "pitch": 42, "duration": 10, "velocity": 117}, {"time": 146878, "pitch": 61, "duration": 10, "velocity": 127}, {"time": 146878, "pitch": 80, "duration": 10, "velocity": 127}, {"time": 146998, "pitch": 80, "duration": 10, "velocity": 127}, {"time": 147119, "pitch": 42, "duration": 10, "velocity": 109}, {"time": 147119, "pitch": 64, "duration": 10, "velocity": 127}, {"time": 147119, "pitch": 81, "duration": 10, "velocity": 127}, {"time": 147239, "pitch": 42, "duration": 10, "velocity": 97}, {"time": 147239, "pitch": 64, "duration": 10, "velocity": 127}, {"time": 147360, "pitch": 36, "duration": 10, "velocity": 115}, {"time": 147360, "pitch": 42, "duration": 10, "velocity": 112}, {"time": 147360, "pitch": 60, "duration": 10, "velocity": 127}, {"time": 147360, "pitch": 80, "duration": 10, "velocity": 127}, {"time": 147480, "pitch": 42, "duration": 10, "velocity": 117}, {"time": 147600, "pitch": 46, "duration": 10, "velocity": 113}, {"time": 147600, "pitch": 62, "duration": 10, "velocity": 127}, {"time": 147600, "pitch": 81, "duration": 10, "velocity": 127}, {"time": 147721, "pitch": 62, "duration": 10, "velocity": 127}, {"time": 147841, "pitch": 36, "duration": 10, "velocity": 115}, {"time": 147841, "pitch": 42, "duration": 10, "velocity": 117}, {"time": 147841, "pitch": 63, "duration": 10, "velocity": 127}, {"time": 147841, "pitch": 80, "duration": 10, "velocity": 127}, {"time": 147962, "pitch": 63, "duration": 10, "velocity": 127}, {"time": 148082, "pitch": 38, "duration": 10, "velocity": 127}, {"time": 148082, "pitch": 42, "duration": 10, "velocity": 114}, {"time": 148082, "pitch": 43, "duration": 10, "velocity": 127}, {"time": 148082, "pitch": 64, "duration": 10, "velocity": 127}, {"time": 148082, "pitch": 81, "duration": 10, "velocity": 127}, {"time": 148106, "pitch": 43, "duration": 10, "velocity": 127}, {"time": 148203, "pitch": 42, "duration": 10, "velocity": 103}, {"time": 148203, "pitch": 64, "duration": 10, "velocity": 127}, {"time": 148323, "pitch": 36, "duration": 10, "velocity": 115}, {"time": 148323, "pitch": 42, "duration": 10, "velocity": 117}, {"time": 148323, "pitch": 60, "duration": 10, "velocity": 127}, {"time": 148323, "pitch": 80, "duration": 10, "velocity": 127}, {"time": 148442, "pitch": 42, "duration": 9, "velocity": 117}, {"time": 148560, "pitch": 46, "duration": 10, "velocity": 117}, {"time": 148560, "pitch": 62, "duration": 10, "velocity": 127}, {"time": 148560, "pitch": 81, "duration": 10, "velocity": 127}, {"time": 148678, "pitch": 62, "duration": 10, "velocity": 127}, {"time": 148797, "pitch": 36, "duration": 10, "velocity": 115}, {"time": 148797, "pitch": 42, "duration": 10, "velocity": 117}, {"time": 148797, "pitch": 61, "duration": 10, "velocity": 127}, {"time": 148797, "pitch": 80, "duration": 10, "velocity": 127}, {"time": 148917, "pitch": 80, "duration": 10, "velocity": 127}, {"time": 149038, "pitch": 38, "duration": 10, "velocity": 127}, {"time": 149038, "pitch": 42, "duration": 10, "velocity": 109}, {"time": 149038, "pitch": 45, "duration": 10, "velocity": 100}, {"time": 149038, "pitch": 64, "duration": 10, "velocity": 127}, {"time": 149038, "pitch": 81, "duration": 10, "velocity": 127}, {"time": 149058, "pitch": 45, "duration": 10, "velocity": 127}, {"time": 149158, "pitch": 42, "duration": 10, "velocity": 117}, {"time": 149158, "pitch": 64, "duration": 10, "velocity": 127}, {"time": 149279, "pitch": 36, "duration": 10, "velocity": 115}, {"time": 149279, "pitch": 42, "duration": 10, "velocity": 109}, {"time": 149279, "pitch": 60, "duration": 10, "velocity": 127}, {"time": 149279, "pitch": 80, "duration": 10, "velocity": 127}, {"time": 149399, "pitch": 38, "duration": 10, "velocity": 127}, {"time": 149399, "pitch": 42, "duration": 10, "velocity": 117}, {"time": 149399, "pitch": 45, "duration": 10, "velocity": 100}, {"time": 149399, "pitch": 55, "duration": 10, "velocity": 127}, {"time": 149431, "pitch": 45, "duration": 10, "velocity": 127}, {"time": 149520, "pitch": 46, "duration": 10, "velocity": 117}, {"time": 149520, "pitch": 62, "duration": 10, "velocity": 127}, {"time": 149520, "pitch": 81, "duration": 10, "velocity": 127}, {"time": 149640, "pitch": 62, "duration": 10, "velocity": 127}, {"time": 149760, "pitch": 36, "duration": 10, "velocity": 115}, {"time": 149760, "pitch": 38, "duration": 10, "velocity": 127}, {"time": 149760, "pitch": 42, "duration": 10, "velocity": 117}, {"time": 149760, "pitch": 45, "duration": 10, "velocity": 100}, {"time": 149760, "pitch": 55, "duration": 10, "velocity": 127}, {"time": 149760, "pitch": 63, "duration": 10, "velocity": 127}, {"time": 149760, "pitch": 80, "duration": 10, "velocity": 127}, {"time": 149797, "pitch": 45, "duration": 10, "velocity": 127}, {"time": 149881, "pitch": 63, "duration": 10, "velocity": 127}, {"time": 149881, "pitch": 80, "duration": 10, "velocity": 127}, {"time": 150001, "pitch": 38, "duration": 10, "velocity": 127}, {"time": 150001, "pitch": 45, "duration": 10, "velocity": 100}, {"time": 150001, "pitch": 46, "duration": 10, "velocity": 117}, {"time": 150001, "pitch": 55, "duration": 10, "velocity": 127}, {"time": 150001, "pitch": 57, "duration": 10, "velocity": 127}, {"time": 150001, "pitch": 64, "duration": 10, "velocity": 127}, {"time": 150001, "pitch": 81, "duration": 10, "velocity": 127}, {"time": 150025, "pitch": 45, "duration": 10, "velocity": 127}, {"time": 150122, "pitch": 64, "duration": 10, "velocity": 127}, {"time": 150242, "pitch": 36, "duration": 10, "velocity": 115}, {"time": 150242, "pitch": 42, "duration": 10, "velocity": 77}, {"time": 150242, "pitch": 60, "duration": 10, "velocity": 127}, {"time": 150479, "pitch": 36, "duration": 10, "velocity": 115}, {"time": 150479, "pitch": 46, "duration": 10, "velocity": 104}, {"time": 150479, "pitch": 62, "duration": 10, "velocity": 127}, {"time": 150598, "pitch": 62, "duration": 10, "velocity": 127}, {"time": 150716, "pitch": 38, "duration": 10, "velocity": 127}, {"time": 150716, "pitch": 42, "duration": 10, "velocity": 93}, {"time": 150716, "pitch": 61, "duration": 10, "velocity": 127}, {"time": 150957, "pitch": 36, "duration": 10, "velocity": 115}, {"time": 150957, "pitch": 46, "duration": 10, "velocity": 102}, {"time": 150957, "pitch": 64, "duration": 10, "velocity": 127}, {"time": 151077, "pitch": 38, "duration": 10, "velocity": 127}, {"time": 151077, "pitch": 64, "duration": 10, "velocity": 127}, {"time": 151198, "pitch": 36, "duration": 10, "velocity": 115}, {"time": 151198, "pitch": 42, "duration": 10, "velocity": 100}, {"time": 151198, "pitch": 60, "duration": 10, "velocity": 127}, {"time": 151318, "pitch": 38, "duration": 10, "velocity": 127}, {"time": 151439, "pitch": 36, "duration": 10, "velocity": 115}, {"time": 151439, "pitch": 46, "duration": 10, "velocity": 114}, {"time": 151439, "pitch": 62, "duration": 10, "velocity": 127}, {"time": 151559, "pitch": 62, "duration": 10, "velocity": 127}, {"time": 151680, "pitch": 38, "duration": 10, "velocity": 127}, {"time": 151680, "pitch": 42, "duration": 10, "velocity": 112}, {"time": 151680, "pitch": 63, "duration": 10, "velocity": 127}, {"time": 151920, "pitch": 38, "duration": 10, "velocity": 127}, {"time": 151920, "pitch": 42, "duration": 10, "velocity": 117}, {"time": 151920, "pitch": 43, "duration": 10, "velocity": 127}, {"time": 151920, "pitch": 49, "duration": 10, "velocity": 127}, {"time": 151920, "pitch": 64, "duration": 10, "velocity": 127}, {"time": 152282, "pitch": 60, "duration": 10, "velocity": 127}, {"time": 152402, "pitch": 38, "duration": 10, "velocity": 127}, {"time": 152402, "pitch": 42, "duration": 10, "velocity": 117}, {"time": 152402, "pitch": 43, "duration": 10, "velocity": 127}, {"time": 152402, "pitch": 57, "duration": 10, "velocity": 127}, {"time": 152402, "pitch": 64, "duration": 10, "velocity": 127}, {"time": 152643, "pitch": 38, "duration": 10, "velocity": 127}, {"time": 152643, "pitch": 42, "duration": 10, "velocity": 117}, {"time": 152643, "pitch": 43, "duration": 10, "velocity": 127}, {"time": 152643, "pitch": 57, "duration": 10, "velocity": 127}, {"time": 152643, "pitch": 60, "duration": 10, "velocity": 127}, {"time": 153117, "pitch": 48, "duration": 10, "velocity": 127}, {"time": 153125, "pitch": 50, "duration": 10, "velocity": 100}, {"time": 153358, "pitch": 38, "duration": 10, "velocity": 48}, {"time": 153414, "pitch": 38, "duration": 10, "velocity": 59}, {"time": 153482, "pitch": 38, "duration": 10, "velocity": 84}, {"time": 153538, "pitch": 38, "duration": 11, "velocity": 113}, {"time": 153599, "pitch": 38, "duration": 10, "velocity": 127}, {"time": 153719, "pitch": 38, "duration": 10, "velocity": 127}, {"time": 153840, "pitch": 43, "duration": 10, "velocity": 127}, {"time": 153848, "pitch": 45, "duration": 10, "velocity": 100}, {"time": 154080, "pitch": 36, "duration": 10, "velocity": 115}, {"time": 154080, "pitch": 42, "duration": 10, "velocity": 69}, {"time": 154080, "pitch": 49, "duration": 10, "velocity": 127}, {"time": 154080, "pitch": 57, "duration": 10, "velocity": 127}, {"time": 154080, "pitch": 60, "duration": 10, "velocity": 127}, {"time": 154080, "pitch": 70, "duration": 10, "velocity": 127}, {"time": 154201, "pitch": 42, "duration": 10, "velocity": 65}, {"time": 154201, "pitch": 70, "duration": 10, "velocity": 45}, {"time": 154321, "pitch": 46, "duration": 10, "velocity": 98}, {"time": 154321, "pitch": 64, "duration": 10, "velocity": 127}, {"time": 154321, "pitch": 70, "duration": 10, "velocity": 41}, {"time": 154442, "pitch": 70, "duration": 10, "velocity": 43}, {"time": 154562, "pitch": 38, "duration": 10, "velocity": 127}, {"time": 154562, "pitch": 42, "duration": 10, "velocity": 97}, {"time": 154562, "pitch": 61, "duration": 10, "velocity": 127}, {"time": 154562, "pitch": 70, "duration": 10, "velocity": 127}, {"time": 154681, "pitch": 70, "duration": 10, "velocity": 70}, {"time": 154799, "pitch": 42, "duration": 10, "velocity": 56}, {"time": 154799, "pitch": 62, "duration": 10, "velocity": 127}, {"time": 154799, "pitch": 70, "duration": 10, "velocity": 45}, {"time": 154918, "pitch": 42, "duration": 10, "velocity": 80}, {"time": 154918, "pitch": 62, "duration": 10, "velocity": 127}, {"time": 154918, "pitch": 70, "duration": 10, "velocity": 46}, {"time": 155036, "pitch": 36, "duration": 10, "velocity": 115}, {"time": 155036, "pitch": 42, "duration": 10, "velocity": 66}, {"time": 155036, "pitch": 60, "duration": 10, "velocity": 127}, {"time": 155036, "pitch": 70, "duration": 10, "velocity": 127}, {"time": 155157, "pitch": 70, "duration": 10, "velocity": 53}, {"time": 155277, "pitch": 36, "duration": 10, "velocity": 115}, {"time": 155277, "pitch": 42, "duration": 10, "velocity": 101}, {"time": 155277, "pitch": 64, "duration": 10, "velocity": 127}, {"time": 155277, "pitch": 70, "duration": 10, "velocity": 43}, {"time": 155397, "pitch": 70, "duration": 10, "velocity": 58}, {"time": 155518, "pitch": 38, "duration": 10, "velocity": 127}, {"time": 155518, "pitch": 42, "duration": 10, "velocity": 79}, {"time": 155518, "pitch": 54, "duration": 10, "velocity": 127}, {"time": 155518, "pitch": 61, "duration": 10, "velocity": 127}, {"time": 155518, "pitch": 70, "duration": 10, "velocity": 127}, {"time": 155638, "pitch": 70, "duration": 10, "velocity": 57}, {"time": 155759, "pitch": 36, "duration": 10, "velocity": 115}, {"time": 155759, "pitch": 42, "duration": 10, "velocity": 83}, {"time": 155759, "pitch": 62, "duration": 10, "velocity": 127}, {"time": 155759, "pitch": 70, "duration": 10, "velocity": 58}, {"time": 155879, "pitch": 62, "duration": 10, "velocity": 127}, {"time": 155879, "pitch": 70, "duration": 10, "velocity": 83}, {"time": 156000, "pitch": 42, "duration": 10, "velocity": 82}, {"time": 156000, "pitch": 60, "duration": 10, "velocity": 127}, {"time": 156000, "pitch": 70, "duration": 10, "velocity": 127}, {"time": 156120, "pitch": 42, "duration": 10, "velocity": 97}, {"time": 156120, "pitch": 70, "duration": 10, "velocity": 45}, {"time": 156240, "pitch": 36, "duration": 10, "velocity": 115}, {"time": 156240, "pitch": 46, "duration": 10, "velocity": 90}, {"time": 156240, "pitch": 64, "duration": 10, "velocity": 127}, {"time": 156240, "pitch": 70, "duration": 10, "velocity": 41}, {"time": 156361, "pitch": 70, "duration": 10, "velocity": 43}, {"time": 156481, "pitch": 38, "duration": 10, "velocity": 127}, {"time": 156481, "pitch": 42, "duration": 10, "velocity": 87}, {"time": 156481, "pitch": 61, "duration": 10, "velocity": 127}, {"time": 156481, "pitch": 70, "duration": 10, "velocity": 127}, {"time": 156602, "pitch": 70, "duration": 10, "velocity": 70}, {"time": 156722, "pitch": 42, "duration": 10, "velocity": 60}, {"time": 156722, "pitch": 62, "duration": 10, "velocity": 127}, {"time": 156722, "pitch": 70, "duration": 10, "velocity": 45}, {"time": 156843, "pitch": 42, "duration": 10, "velocity": 105}, {"time": 156843, "pitch": 62, "duration": 10, "velocity": 127}, {"time": 156843, "pitch": 70, "duration": 10, "velocity": 46}, {"time": 156963, "pitch": 36, "duration": 10, "velocity": 115}, {"time": 156963, "pitch": 42, "duration": 10, "velocity": 78}, {"time": 156963, "pitch": 60, "duration": 10, "velocity": 127}, {"time": 156963, "pitch": 70, "duration": 10, "velocity": 127}, {"time": 157082, "pitch": 70, "duration": 9, "velocity": 53}, {"time": 157200, "pitch": 36, "duration": 10, "velocity": 115}, {"time": 157200, "pitch": 42, "duration": 10, "velocity": 87}, {"time": 157200, "pitch": 64, "duration": 10, "velocity": 127}, {"time": 157200, "pitch": 70, "duration": 10, "velocity": 43}, {"time": 157319, "pitch": 64, "duration": 9, "velocity": 127}, {"time": 157319, "pitch": 70, "duration": 9, "velocity": 58}, {"time": 157437, "pitch": 38, "duration": 10, "velocity": 127}, {"time": 157437, "pitch": 42, "duration": 10, "velocity": 98}, {"time": 157437, "pitch": 54, "duration": 10, "velocity": 127}, {"time": 157437, "pitch": 63, "duration": 10, "velocity": 127}, {"time": 157437, "pitch": 70, "duration": 10, "velocity": 127}, {"time": 157557, "pitch": 70, "duration": 10, "velocity": 57}, {"time": 157678, "pitch": 36, "duration": 10, "velocity": 115}, {"time": 157678, "pitch": 46, "duration": 10, "velocity": 88}, {"time": 157678, "pitch": 54, "duration": 10, "velocity": 127}, {"time": 157678, "pitch": 62, "duration": 10, "velocity": 127}, {"time": 157678, "pitch": 70, "duration": 10, "velocity": 58}, {"time": 157798, "pitch": 62, "duration": 10, "velocity": 127}, {"time": 157798, "pitch": 70, "duration": 10, "velocity": 83}, {"time": 157919, "pitch": 42, "duration": 10, "velocity": 85}, {"time": 157919, "pitch": 60, "duration": 10, "velocity": 127}, {"time": 157919, "pitch": 70, "duration": 10, "velocity": 127}, {"time": 158039, "pitch": 70, "duration": 10, "velocity": 45}, {"time": 158160, "pitch": 36, "duration": 10, "velocity": 115}, {"time": 158160, "pitch": 42, "duration": 10, "velocity": 81}, {"time": 158160, "pitch": 64, "duration": 10, "velocity": 127}, {"time": 158160, "pitch": 70, "duration": 10, "velocity": 41}, {"time": 158280, "pitch": 64, "duration": 10, "velocity": 127}, {"time": 158280, "pitch": 70, "duration": 10, "velocity": 43}, {"time": 158400, "pitch": 38, "duration": 11, "velocity": 127}, {"time": 158400, "pitch": 42, "duration": 11, "velocity": 95}, {"time": 158400, "pitch": 61, "duration": 11, "velocity": 127}, {"time": 158400, "pitch": 70, "duration": 11, "velocity": 127}, {"time": 158521, "pitch": 70, "duration": 10, "velocity": 70}, {"time": 158641, "pitch": 46, "duration": 10, "velocity": 98}, {"time": 158641, "pitch": 62, "duration": 10, "velocity": 127}, {"time": 158641, "pitch": 70, "duration": 10, "velocity": 45}, {"time": 158762, "pitch": 62, "duration": 10, "velocity": 127}, {"time": 158762, "pitch": 70, "duration": 10, "velocity": 46}, {"time": 158882, "pitch": 36, "duration": 10, "velocity": 115}, {"time": 158882, "pitch": 42, "duration": 10, "velocity": 74}, {"time": 158882, "pitch": 60, "duration": 10, "velocity": 127}, {"time": 158882, "pitch": 70, "duration": 10, "velocity": 127}, {"time": 159001, "pitch": 70, "duration": 10, "velocity": 53}, {"time": 159119, "pitch": 42, "duration": 10, "velocity": 92}, {"time": 159119, "pitch": 64, "duration": 10, "velocity": 127}, {"time": 159119, "pitch": 70, "duration": 10, "velocity": 43}, {"time": 159238, "pitch": 64, "duration": 10, "velocity": 127}, {"time": 159238, "pitch": 70, "duration": 10, "velocity": 58}, {"time": 159356, "pitch": 38, "duration": 10, "velocity": 127}, {"time": 159356, "pitch": 42, "duration": 10, "velocity": 95}, {"time": 159356, "pitch": 54, "duration": 10, "velocity": 127}, {"time": 159356, "pitch": 61, "duration": 10, "velocity": 127}, {"time": 159356, "pitch": 70, "duration": 10, "velocity": 127}, {"time": 159477, "pitch": 70, "duration": 10, "velocity": 57}, {"time": 159597, "pitch": 36, "duration": 10, "velocity": 115}, {"time": 159597, "pitch": 42, "duration": 10, "velocity": 80}, {"time": 159597, "pitch": 62, "duration": 10, "velocity": 127}, {"time": 159597, "pitch": 70, "duration": 10, "velocity": 58}, {"time": 159717, "pitch": 42, "duration": 10, "velocity": 95}, {"time": 159717, "pitch": 62, "duration": 10, "velocity": 127}, {"time": 159717, "pitch": 70, "duration": 10, "velocity": 83}, {"time": 159838, "pitch": 36, "duration": 10, "velocity": 115}, {"time": 159838, "pitch": 42, "duration": 10, "velocity": 68}, {"time": 159838, "pitch": 60, "duration": 10, "velocity": 127}, {"time": 159838, "pitch": 70, "duration": 10, "velocity": 127}, {"time": 159958, "pitch": 70, "duration": 10, "velocity": 45}, {"time": 160079, "pitch": 42, "duration": 10, "velocity": 100}, {"time": 160079, "pitch": 64, "duration": 10, "velocity": 127}, {"time": 160079, "pitch": 70, "duration": 10, "velocity": 41}, {"time": 160199, "pitch": 70, "duration": 10, "velocity": 43}, {"time": 160320, "pitch": 38, "duration": 10, "velocity": 127}, {"time": 160320, "pitch": 42, "duration": 10, "velocity": 95}, {"time": 160320, "pitch": 63, "duration": 10, "velocity": 127}, {"time": 160320, "pitch": 70, "duration": 10, "velocity": 127}, {"time": 160440, "pitch": 70, "duration": 10, "velocity": 70}, {"time": 160560, "pitch": 36, "duration": 11, "velocity": 115}, {"time": 160560, "pitch": 42, "duration": 11, "velocity": 86}, {"time": 160560, "pitch": 64, "duration": 11, "velocity": 127}, {"time": 160560, "pitch": 70, "duration": 11, "velocity": 45}, {"time": 160681, "pitch": 42, "duration": 10, "velocity": 105}, {"time": 160681, "pitch": 64, "duration": 10, "velocity": 127}, {"time": 160681, "pitch": 70, "duration": 10, "velocity": 46}, {"time": 160801, "pitch": 42, "duration": 10, "velocity": 83}, {"time": 160801, "pitch": 60, "duration": 10, "velocity": 127}, {"time": 160801, "pitch": 70, "duration": 10, "velocity": 127}, {"time": 160922, "pitch": 62, "duration": 10, "velocity": 127}, {"time": 160922, "pitch": 70, "duration": 10, "velocity": 53}, {"time": 161042, "pitch": 36, "duration": 10, "velocity": 115}, {"time": 161042, "pitch": 46, "duration": 10, "velocity": 98}, {"time": 161042, "pitch": 70, "duration": 10, "velocity": 43}, {"time": 161163, "pitch": 62, "duration": 10, "velocity": 127}, {"time": 161163, "pitch": 70, "duration": 10, "velocity": 58}, {"time": 161283, "pitch": 38, "duration": 10, "velocity": 127}, {"time": 161283, "pitch": 42, "duration": 10, "velocity": 96}, {"time": 161283, "pitch": 54, "duration": 10, "velocity": 127}, {"time": 161283, "pitch": 61, "duration": 10, "velocity": 127}, {"time": 161283, "pitch": 70, "duration": 10, "velocity": 127}, {"time": 161402, "pitch": 70, "duration": 9, "velocity": 57}, {"time": 161520, "pitch": 36, "duration": 10, "velocity": 115}, {"time": 161520, "pitch": 42, "duration": 10, "velocity": 83}, {"time": 161520, "pitch": 54, "duration": 10, "velocity": 127}, {"time": 161520, "pitch": 64, "duration": 10, "velocity": 127}, {"time": 161520, "pitch": 70, "duration": 10, "velocity": 58}, {"time": 161639, "pitch": 42, "duration": 9, "velocity": 82}, {"time": 161639, "pitch": 64, "duration": 9, "velocity": 127}, {"time": 161639, "pitch": 70, "duration": 9, "velocity": 83}, {"time": 161757, "pitch": 36, "duration": 10, "velocity": 115}, {"time": 161757, "pitch": 42, "duration": 10, "velocity": 78}, {"time": 161757, "pitch": 60, "duration": 10, "velocity": 127}, {"time": 161757, "pitch": 70, "duration": 10, "velocity": 127}, {"time": 161877, "pitch": 70, "duration": 10, "velocity": 45}, {"time": 161998, "pitch": 42, "duration": 10, "velocity": 87}, {"time": 161998, "pitch": 62, "duration": 10, "velocity": 127}, {"time": 161998, "pitch": 70, "duration": 10, "velocity": 41}, {"time": 162118, "pitch": 62, "duration": 10, "velocity": 127}, {"time": 162118, "pitch": 70, "duration": 10, "velocity": 43}, {"time": 162239, "pitch": 38, "duration": 10, "velocity": 127}, {"time": 162239, "pitch": 42, "duration": 10, "velocity": 88}, {"time": 162239, "pitch": 61, "duration": 10, "velocity": 127}, {"time": 162239, "pitch": 70, "duration": 10, "velocity": 127}, {"time": 162359, "pitch": 70, "duration": 10, "velocity": 70}, {"time": 162480, "pitch": 42, "duration": 10, "velocity": 69}, {"time": 162480, "pitch": 64, "duration": 10, "velocity": 127}, {"time": 162480, "pitch": 70, "duration": 10, "velocity": 45}, {"time": 162600, "pitch": 42, "duration": 10, "velocity": 87}, {"time": 162600, "pitch": 64, "duration": 10, "velocity": 127}, {"time": 162600, "pitch": 70, "duration": 10, "velocity": 46}, {"time": 162720, "pitch": 36, "duration": 11, "velocity": 115}, {"time": 162720, "pitch": 42, "duration": 11, "velocity": 73}, {"time": 162720, "pitch": 60, "duration": 11, "velocity": 127}, {"time": 162720, "pitch": 70, "duration": 11, "velocity": 127}, {"time": 162841, "pitch": 42, "duration": 10, "velocity": 100}, {"time": 162841, "pitch": 70, "duration": 10, "velocity": 53}, {"time": 162961, "pitch": 36, "duration": 10, "velocity": 115}, {"time": 162961, "pitch": 46, "duration": 10, "velocity": 95}, {"time": 162961, "pitch": 62, "duration": 10, "velocity": 127}, {"time": 162961, "pitch": 70, "duration": 10, "velocity": 43}, {"time": 163082, "pitch": 62, "duration": 10, "velocity": 127}, {"time": 163082, "pitch": 70, "duration": 10, "velocity": 58}, {"time": 163202, "pitch": 38, "duration": 10, "velocity": 127}, {"time": 163202, "pitch": 42, "duration": 10, "velocity": 95}, {"time": 163202, "pitch": 54, "duration": 10, "velocity": 127}, {"time": 163202, "pitch": 61, "duration": 10, "velocity": 127}, {"time": 163202, "pitch": 70, "duration": 10, "velocity": 127}, {"time": 163321, "pitch": 70, "duration": 10, "velocity": 57}, {"time": 163439, "pitch": 36, "duration": 10, "velocity": 115}, {"time": 163439, "pitch": 42, "duration": 10, "velocity": 78}, {"time": 163439, "pitch": 64, "duration": 10, "velocity": 127}, {"time": 163439, "pitch": 70, "duration": 10, "velocity": 58}, {"time": 163558, "pitch": 64, "duration": 10, "velocity": 127}, {"time": 163558, "pitch": 70, "duration": 10, "velocity": 83}, {"time": 163676, "pitch": 42, "duration": 10, "velocity": 78}, {"time": 163676, "pitch": 60, "duration": 10, "velocity": 127}, {"time": 163676, "pitch": 70, "duration": 10, "velocity": 127}, {"time": 163797, "pitch": 70, "duration": 10, "velocity": 45}, {"time": 163917, "pitch": 36, "duration": 10, "velocity": 115}, {"time": 163917, "pitch": 42, "duration": 10, "velocity": 64}, {"time": 163917, "pitch": 62, "duration": 10, "velocity": 127}, {"time": 163917, "pitch": 70, "duration": 10, "velocity": 41}, {"time": 164037, "pitch": 62, "duration": 10, "velocity": 127}, {"time": 164037, "pitch": 70, "duration": 10, "velocity": 43}, {"time": 164158, "pitch": 38, "duration": 10, "velocity": 127}, {"time": 164158, "pitch": 42, "duration": 10, "velocity": 87}, {"time": 164158, "pitch": 61, "duration": 10, "velocity": 127}, {"time": 164158, "pitch": 70, "duration": 10, "velocity": 127}, {"time": 164278, "pitch": 70, "duration": 10, "velocity": 70}, {"time": 164399, "pitch": 42, "duration": 10, "velocity": 77}, {"time": 164399, "pitch": 64, "duration": 10, "velocity": 127}, {"time": 164399, "pitch": 70, "duration": 10, "velocity": 45}, {"time": 164519, "pitch": 42, "duration": 10, "velocity": 74}, {"time": 164519, "pitch": 64, "duration": 10, "velocity": 127}, {"time": 164519, "pitch": 70, "duration": 10, "velocity": 46}, {"time": 164640, "pitch": 36, "duration": 10, "velocity": 115}, {"time": 164640, "pitch": 42, "duration": 10, "velocity": 81}, {"time": 164640, "pitch": 60, "duration": 10, "velocity": 127}, {"time": 164640, "pitch": 70, "duration": 10, "velocity": 127}, {"time": 164760, "pitch": 42, "duration": 10, "velocity": 115}, {"time": 164760, "pitch": 70, "duration": 10, "velocity": 53}, {"time": 164880, "pitch": 36, "duration": 11, "velocity": 115}, {"time": 164880, "pitch": 46, "duration": 11, "velocity": 95}, {"time": 164880, "pitch": 62, "duration": 11, "velocity": 127}, {"time": 164880, "pitch": 70, "duration": 11, "velocity": 43}, {"time": 165001, "pitch": 62, "duration": 10, "velocity": 127}, {"time": 165001, "pitch": 70, "duration": 10, "velocity": 58}, {"time": 165121, "pitch": 38, "duration": 10, "velocity": 127}, {"time": 165121, "pitch": 42, "duration": 10, "velocity": 91}, {"time": 165121, "pitch": 54, "duration": 10, "velocity": 127}, {"time": 165121, "pitch": 63, "duration": 10, "velocity": 127}, {"time": 165121, "pitch": 70, "duration": 10, "velocity": 127}, {"time": 165242, "pitch": 70, "duration": 10, "velocity": 57}, {"time": 165362, "pitch": 36, "duration": 10, "velocity": 115}, {"time": 165362, "pitch": 42, "duration": 10, "velocity": 69}, {"time": 165362, "pitch": 54, "duration": 10, "velocity": 127}, {"time": 165362, "pitch": 64, "duration": 10, "velocity": 127}, {"time": 165362, "pitch": 70, "duration": 10, "velocity": 58}, {"time": 165483, "pitch": 42, "duration": 10, "velocity": 93}, {"time": 165483, "pitch": 64, "duration": 10, "velocity": 127}, {"time": 165483, "pitch": 70, "duration": 10, "velocity": 83}, {"time": 165603, "pitch": 42, "duration": 10, "velocity": 54}, {"time": 165603, "pitch": 60, "duration": 10, "velocity": 127}, {"time": 165603, "pitch": 70, "duration": 10, "velocity": 127}, {"time": 165722, "pitch": 70, "duration": 9, "velocity": 45}, {"time": 165840, "pitch": 36, "duration": 10, "velocity": 115}, {"time": 165840, "pitch": 42, "duration": 10, "velocity": 78}, {"time": 165840, "pitch": 62, "duration": 10, "velocity": 127}, {"time": 165840, "pitch": 70, "duration": 10, "velocity": 41}, {"time": 165959, "pitch": 62, "duration": 9, "velocity": 127}, {"time": 165959, "pitch": 70, "duration": 9, "velocity": 43}, {"time": 166077, "pitch": 38, "duration": 10, "velocity": 127}, {"time": 166077, "pitch": 42, "duration": 10, "velocity": 91}, {"time": 166077, "pitch": 61, "duration": 10, "velocity": 127}, {"time": 166077, "pitch": 70, "duration": 10, "velocity": 127}, {"time": 166197, "pitch": 70, "duration": 10, "velocity": 70}, {"time": 166318, "pitch": 42, "duration": 10, "velocity": 59}, {"time": 166318, "pitch": 64, "duration": 10, "velocity": 127}, {"time": 166318, "pitch": 70, "duration": 10, "velocity": 45}, {"time": 166438, "pitch": 42, "duration": 10, "velocity": 95}, {"time": 166438, "pitch": 64, "duration": 10, "velocity": 127}, {"time": 166438, "pitch": 70, "duration": 10, "velocity": 46}, {"time": 166559, "pitch": 36, "duration": 10, "velocity": 115}, {"time": 166559, "pitch": 42, "duration": 10, "velocity": 85}, {"time": 166559, "pitch": 60, "duration": 10, "velocity": 127}, {"time": 166559, "pitch": 70, "duration": 10, "velocity": 127}, {"time": 166679, "pitch": 70, "duration": 10, "velocity": 53}, {"time": 166800, "pitch": 42, "duration": 10, "velocity": 73}, {"time": 166800, "pitch": 62, "duration": 10, "velocity": 127}, {"time": 166800, "pitch": 70, "duration": 10, "velocity": 43}, {"time": 166920, "pitch": 42, "duration": 10, "velocity": 104}, {"time": 166920, "pitch": 62, "duration": 10, "velocity": 127}, {"time": 166920, "pitch": 70, "duration": 10, "velocity": 58}, {"time": 167040, "pitch": 38, "duration": 11, "velocity": 127}, {"time": 167040, "pitch": 42, "duration": 11, "velocity": 80}, {"time": 167040, "pitch": 54, "duration": 11, "velocity": 127}, {"time": 167040, "pitch": 63, "duration": 11, "velocity": 127}, {"time": 167040, "pitch": 70, "duration": 11, "velocity": 127}, {"time": 167161, "pitch": 63, "duration": 10, "velocity": 127}, {"time": 167161, "pitch": 70, "duration": 10, "velocity": 57}, {"time": 167281, "pitch": 36, "duration": 10, "velocity": 115}, {"time": 167281, "pitch": 46, "duration": 10, "velocity": 75}, {"time": 167281, "pitch": 64, "duration": 10, "velocity": 127}, {"time": 167281, "pitch": 70, "duration": 10, "velocity": 58}, {"time": 167402, "pitch": 64, "duration": 10, "velocity": 127}, {"time": 167402, "pitch": 70, "duration": 10, "velocity": 83}, {"time": 167522, "pitch": 36, "duration": 10, "velocity": 115}, {"time": 167522, "pitch": 42, "duration": 10, "velocity": 78}, {"time": 167522, "pitch": 60, "duration": 10, "velocity": 127}, {"time": 167522, "pitch": 70, "duration": 10, "velocity": 127}, {"time": 167641, "pitch": 70, "duration": 10, "velocity": 45}, {"time": 167759, "pitch": 46, "duration": 10, "velocity": 91}, {"time": 167759, "pitch": 62, "duration": 10, "velocity": 127}, {"time": 167759, "pitch": 70, "duration": 10, "velocity": 41}, {"time": 167878, "pitch": 62, "duration": 10, "velocity": 127}, {"time": 167878, "pitch": 70, "duration": 10, "velocity": 43}, {"time": 167996, "pitch": 38, "duration": 10, "velocity": 127}, {"time": 167996, "pitch": 42, "duration": 10, "velocity": 104}, {"time": 167996, "pitch": 61, "duration": 10, "velocity": 127}, {"time": 167996, "pitch": 70, "duration": 10, "velocity": 127}, {"time": 168117, "pitch": 70, "duration": 10, "velocity": 70}, {"time": 168237, "pitch": 36, "duration": 10, "velocity": 115}, {"time": 168237, "pitch": 46, "duration": 10, "velocity": 95}, {"time": 168237, "pitch": 64, "duration": 10, "velocity": 127}, {"time": 168237, "pitch": 70, "duration": 10, "velocity": 45}, {"time": 168357, "pitch": 64, "duration": 10, "velocity": 127}, {"time": 168357, "pitch": 70, "duration": 10, "velocity": 46}, {"time": 168478, "pitch": 42, "duration": 10, "velocity": 75}, {"time": 168478, "pitch": 47, "duration": 10, "velocity": 100}, {"time": 168478, "pitch": 60, "duration": 10, "velocity": 127}, {"time": 168478, "pitch": 70, "duration": 10, "velocity": 127}, {"time": 168499, "pitch": 47, "duration": 10, "velocity": 127}, {"time": 168598, "pitch": 70, "duration": 10, "velocity": 53}, {"time": 168719, "pitch": 38, "duration": 10, "velocity": 62}, {"time": 168719, "pitch": 42, "duration": 10, "velocity": 94}, {"time": 168719, "pitch": 62, "duration": 10, "velocity": 127}, {"time": 168719, "pitch": 70, "duration": 10, "velocity": 43}, {"time": 168779, "pitch": 38, "duration": 10, "velocity": 73}, {"time": 168830, "pitch": 38, "duration": 10, "velocity": 86}, {"time": 168839, "pitch": 62, "duration": 10, "velocity": 127}, {"time": 168839, "pitch": 70, "duration": 10, "velocity": 58}, {"time": 168890, "pitch": 38, "duration": 10, "velocity": 107}, {"time": 168960, "pitch": 38, "duration": 10, "velocity": 127}, {"time": 168960, "pitch": 42, "duration": 10, "velocity": 69}, {"time": 168960, "pitch": 54, "duration": 10, "velocity": 127}, {"time": 168960, "pitch": 63, "duration": 10, "velocity": 127}, {"time": 168960, "pitch": 70, "duration": 10, "velocity": 127}, {"time": 169080, "pitch": 38, "duration": 10, "velocity": 127}, {"time": 169080, "pitch": 63, "duration": 10, "velocity": 127}, {"time": 169080, "pitch": 70, "duration": 10, "velocity": 57}, {"time": 169200, "pitch": 42, "duration": 11, "velocity": 91}, {"time": 169200, "pitch": 43, "duration": 11, "velocity": 100}, {"time": 169200, "pitch": 54, "duration": 11, "velocity": 127}, {"time": 169200, "pitch": 64, "duration": 11, "velocity": 127}, {"time": 169200, "pitch": 70, "duration": 11, "velocity": 58}, {"time": 169228, "pitch": 43, "duration": 10, "velocity": 127}, {"time": 169321, "pitch": 64, "duration": 10, "velocity": 127}, {"time": 169321, "pitch": 70, "duration": 10, "velocity": 83}, {"time": 169441, "pitch": 36, "duration": 10, "velocity": 115}, {"time": 169441, "pitch": 42, "duration": 10, "velocity": 69}, {"time": 169441, "pitch": 49, "duration": 10, "velocity": 127}, {"time": 169441, "pitch": 57, "duration": 10, "velocity": 127}, {"time": 169441, "pitch": 60, "duration": 10, "velocity": 127}, {"time": 169441, "pitch": 70, "duration": 10, "velocity": 127}, {"time": 169562, "pitch": 42, "duration": 10, "velocity": 65}, {"time": 169562, "pitch": 70, "duration": 10, "velocity": 45}, {"time": 169682, "pitch": 46, "duration": 10, "velocity": 98}, {"time": 169682, "pitch": 64, "duration": 10, "velocity": 127}, {"time": 169682, "pitch": 70, "duration": 10, "velocity": 41}, {"time": 169803, "pitch": 70, "duration": 10, "velocity": 43}, {"time": 169923, "pitch": 38, "duration": 10, "velocity": 127}, {"time": 169923, "pitch": 42, "duration": 10, "velocity": 97}, {"time": 169923, "pitch": 61, "duration": 10, "velocity": 127}, {"time": 169923, "pitch": 70, "duration": 10, "velocity": 127}, {"time": 170042, "pitch": 70, "duration": 9, "velocity": 70}, {"time": 170160, "pitch": 42, "duration": 10, "velocity": 56}, {"time": 170160, "pitch": 62, "duration": 10, "velocity": 127}, {"time": 170160, "pitch": 70, "duration": 10, "velocity": 45}, {"time": 170279, "pitch": 42, "duration": 9, "velocity": 80}, {"time": 170279, "pitch": 62, "duration": 9, "velocity": 127}, {"time": 170279, "pitch": 70, "duration": 9, "velocity": 46}, {"time": 170397, "pitch": 36, "duration": 10, "velocity": 115}, {"time": 170397, "pitch": 42, "duration": 10, "velocity": 66}, {"time": 170397, "pitch": 60, "duration": 10, "velocity": 127}, {"time": 170397, "pitch": 70, "duration": 10, "velocity": 127}, {"time": 170517, "pitch": 70, "duration": 10, "velocity": 53}, {"time": 170638, "pitch": 36, "duration": 10, "velocity": 115}, {"time": 170638, "pitch": 42, "duration": 10, "velocity": 101}, {"time": 170638, "pitch": 64, "duration": 10, "velocity": 127}, {"time": 170638, "pitch": 70, "duration": 10, "velocity": 43}, {"time": 170758, "pitch": 70, "duration": 10, "velocity": 58}, {"time": 170879, "pitch": 38, "duration": 10, "velocity": 127}, {"time": 170879, "pitch": 42, "duration": 10, "velocity": 79}, {"time": 170879, "pitch": 54, "duration": 10, "velocity": 127}, {"time": 170879, "pitch": 61, "duration": 10, "velocity": 127}, {"time": 170879, "pitch": 70, "duration": 10, "velocity": 127}, {"time": 170999, "pitch": 70, "duration": 10, "velocity": 57}, {"time": 171120, "pitch": 36, "duration": 10, "velocity": 115}, {"time": 171120, "pitch": 42, "duration": 10, "velocity": 83}, {"time": 171120, "pitch": 62, "duration": 10, "velocity": 127}, {"time": 171120, "pitch": 70, "duration": 10, "velocity": 58}, {"time": 171240, "pitch": 62, "duration": 10, "velocity": 127}, {"time": 171240, "pitch": 70, "duration": 10, "velocity": 83}, {"time": 171361, "pitch": 42, "duration": 10, "velocity": 82}, {"time": 171361, "pitch": 60, "duration": 10, "velocity": 127}, {"time": 171361, "pitch": 70, "duration": 10, "velocity": 127}, {"time": 171481, "pitch": 42, "duration": 10, "velocity": 97}, {"time": 171481, "pitch": 70, "duration": 10, "velocity": 45}, {"time": 171601, "pitch": 36, "duration": 10, "velocity": 115}, {"time": 171601, "pitch": 46, "duration": 10, "velocity": 90}, {"time": 171601, "pitch": 64, "duration": 10, "velocity": 127}, {"time": 171601, "pitch": 70, "duration": 10, "velocity": 41}, {"time": 171722, "pitch": 70, "duration": 10, "velocity": 43}, {"time": 171842, "pitch": 38, "duration": 10, "velocity": 127}, {"time": 171842, "pitch": 42, "duration": 10, "velocity": 87}, {"time": 171842, "pitch": 61, "duration": 10, "velocity": 127}, {"time": 171842, "pitch": 70, "duration": 10, "velocity": 127}, {"time": 171961, "pitch": 70, "duration": 10, "velocity": 70}, {"time": 172079, "pitch": 42, "duration": 10, "velocity": 60}, {"time": 172079, "pitch": 62, "duration": 10, "velocity": 127}, {"time": 172079, "pitch": 70, "duration": 10, "velocity": 45}, {"time": 172198, "pitch": 42, "duration": 10, "velocity": 105}, {"time": 172198, "pitch": 62, "duration": 10, "velocity": 127}, {"time": 172198, "pitch": 70, "duration": 10, "velocity": 46}, {"time": 172316, "pitch": 36, "duration": 10, "velocity": 115}, {"time": 172316, "pitch": 42, "duration": 10, "velocity": 78}, {"time": 172316, "pitch": 60, "duration": 10, "velocity": 127}, {"time": 172316, "pitch": 70, "duration": 10, "velocity": 127}, {"time": 172437, "pitch": 70, "duration": 10, "velocity": 53}, {"time": 172557, "pitch": 36, "duration": 10, "velocity": 115}, {"time": 172557, "pitch": 42, "duration": 10, "velocity": 87}, {"time": 172557, "pitch": 64, "duration": 10, "velocity": 127}, {"time": 172557, "pitch": 70, "duration": 10, "velocity": 43}, {"time": 172677, "pitch": 64, "duration": 10, "velocity": 127}, {"time": 172677, "pitch": 70, "duration": 10, "velocity": 58}, {"time": 172798, "pitch": 38, "duration": 10, "velocity": 127}, {"time": 172798, "pitch": 42, "duration": 10, "velocity": 98}, {"time": 172798, "pitch": 54, "duration": 10, "velocity": 127}, {"time": 172798, "pitch": 63, "duration": 10, "velocity": 127}, {"time": 172798, "pitch": 70, "duration": 10, "velocity": 127}, {"time": 172918, "pitch": 70, "duration": 10, "velocity": 57}, {"time": 173039, "pitch": 36, "duration": 10, "velocity": 115}, {"time": 173039, "pitch": 46, "duration": 10, "velocity": 88}, {"time": 173039, "pitch": 54, "duration": 10, "velocity": 127}, {"time": 173039, "pitch": 62, "duration": 10, "velocity": 127}, {"time": 173039, "pitch": 70, "duration": 10, "velocity": 58}, {"time": 173159, "pitch": 62, "duration": 10, "velocity": 127}, {"time": 173159, "pitch": 70, "duration": 10, "velocity": 83}, {"time": 173280, "pitch": 42, "duration": 10, "velocity": 85}, {"time": 173280, "pitch": 60, "duration": 10, "velocity": 127}, {"time": 173280, "pitch": 70, "duration": 10, "velocity": 127}, {"time": 173400, "pitch": 70, "duration": 10, "velocity": 45}, {"time": 173521, "pitch": 36, "duration": 10, "velocity": 115}, {"time": 173521, "pitch": 42, "duration": 10, "velocity": 81}, {"time": 173521, "pitch": 64, "duration": 10, "velocity": 127}, {"time": 173521, "pitch": 70, "duration": 10, "velocity": 41}, {"time": 173641, "pitch": 64, "duration": 10, "velocity": 127}, {"time": 173641, "pitch": 70, "duration": 10, "velocity": 43}, {"time": 173761, "pitch": 38, "duration": 10, "velocity": 127}, {"time": 173761, "pitch": 42, "duration": 10, "velocity": 95}, {"time": 173761, "pitch": 61, "duration": 10, "velocity": 127}, {"time": 173761, "pitch": 70, "duration": 10, "velocity": 127}, {"time": 173882, "pitch": 70, "duration": 10, "velocity": 70}, {"time": 174002, "pitch": 46, "duration": 10, "velocity": 98}, {"time": 174002, "pitch": 62, "duration": 10, "velocity": 127}, {"time": 174002, "pitch": 70, "duration": 10, "velocity": 45}, {"time": 174123, "pitch": 62, "duration": 10, "velocity": 127}, {"time": 174123, "pitch": 70, "duration": 10, "velocity": 46}, {"time": 174243, "pitch": 36, "duration": 10, "velocity": 115}, {"time": 174243, "pitch": 42, "duration": 10, "velocity": 74}, {"time": 174243, "pitch": 60, "duration": 10, "velocity": 127}, {"time": 174243, "pitch": 70, "duration": 10, "velocity": 127}, {"time": 174362, "pitch": 70, "duration": 9, "velocity": 53}, {"time": 174480, "pitch": 42, "duration": 10, "velocity": 92}, {"time": 174480, "pitch": 64, "duration": 10, "velocity": 127}, {"time": 174480, "pitch": 70, "duration": 10, "velocity": 43}, {"time": 174599, "pitch": 64, "duration": 9, "velocity": 127}, {"time": 174599, "pitch": 70, "duration": 9, "velocity": 58}, {"time": 174717, "pitch": 38, "duration": 10, "velocity": 127}, {"time": 174717, "pitch": 42, "duration": 10, "velocity": 95}, {"time": 174717, "pitch": 54, "duration": 10, "velocity": 127}, {"time": 174717, "pitch": 61, "duration": 10, "velocity": 127}, {"time": 174717, "pitch": 70, "duration": 10, "velocity": 127}, {"time": 174837, "pitch": 70, "duration": 10, "velocity": 57}, {"time": 174958, "pitch": 36, "duration": 10, "velocity": 115}, {"time": 174958, "pitch": 42, "duration": 10, "velocity": 80}, {"time": 174958, "pitch": 62, "duration": 10, "velocity": 127}, {"time": 174958, "pitch": 70, "duration": 10, "velocity": 58}, {"time": 175078, "pitch": 42, "duration": 10, "velocity": 95}, {"time": 175078, "pitch": 62, "duration": 10, "velocity": 127}, {"time": 175078, "pitch": 70, "duration": 10, "velocity": 83}, {"time": 175199, "pitch": 36, "duration": 10, "velocity": 115}, {"time": 175199, "pitch": 42, "duration": 10, "velocity": 68}, {"time": 175199, "pitch": 60, "duration": 10, "velocity": 127}, {"time": 175199, "pitch": 70, "duration": 10, "velocity": 127}, {"time": 175319, "pitch": 70, "duration": 10, "velocity": 45}, {"time": 175440, "pitch": 42, "duration": 10, "velocity": 100}, {"time": 175440, "pitch": 64, "duration": 10, "velocity": 127}, {"time": 175440, "pitch": 70, "duration": 10, "velocity": 41}, {"time": 175560, "pitch": 70, "duration": 10, "velocity": 43}, {"time": 175681, "pitch": 38, "duration": 10, "velocity": 127}, {"time": 175681, "pitch": 42, "duration": 10, "velocity": 95}, {"time": 175681, "pitch": 63, "duration": 10, "velocity": 127}, {"time": 175681, "pitch": 70, "duration": 10, "velocity": 127}, {"time": 175801, "pitch": 70, "duration": 10, "velocity": 70}, {"time": 175921, "pitch": 36, "duration": 10, "velocity": 115}, {"time": 175921, "pitch": 42, "duration": 10, "velocity": 86}, {"time": 175921, "pitch": 64, "duration": 10, "velocity": 127}, {"time": 175921, "pitch": 70, "duration": 10, "velocity": 45}, {"time": 176042, "pitch": 42, "duration": 10, "velocity": 105}, {"time": 176042, "pitch": 64, "duration": 10, "velocity": 127}, {"time": 176042, "pitch": 70, "duration": 10, "velocity": 46}, {"time": 176162, "pitch": 42, "duration": 10, "velocity": 83}, {"time": 176162, "pitch": 60, "duration": 10, "velocity": 127}, {"time": 176162, "pitch": 70, "duration": 10, "velocity": 127}, {"time": 176281, "pitch": 62, "duration": 10, "velocity": 127}, {"time": 176281, "pitch": 70, "duration": 10, "velocity": 53}, {"time": 176399, "pitch": 36, "duration": 10, "velocity": 115}, {"time": 176399, "pitch": 46, "duration": 10, "velocity": 98}, {"time": 176399, "pitch": 70, "duration": 10, "velocity": 43}, {"time": 176518, "pitch": 62, "duration": 10, "velocity": 127}, {"time": 176518, "pitch": 70, "duration": 10, "velocity": 58}, {"time": 176636, "pitch": 38, "duration": 10, "velocity": 127}, {"time": 176636, "pitch": 42, "duration": 10, "velocity": 96}, {"time": 176636, "pitch": 54, "duration": 10, "velocity": 127}, {"time": 176636, "pitch": 61, "duration": 10, "velocity": 127}, {"time": 176636, "pitch": 70, "duration": 10, "velocity": 127}, {"time": 176757, "pitch": 70, "duration": 10, "velocity": 57}, {"time": 176877, "pitch": 36, "duration": 10, "velocity": 115}, {"time": 176877, "pitch": 42, "duration": 10, "velocity": 83}, {"time": 176877, "pitch": 54, "duration": 10, "velocity": 127}, {"time": 176877, "pitch": 64, "duration": 10, "velocity": 127}, {"time": 176877, "pitch": 70, "duration": 10, "velocity": 58}, {"time": 176997, "pitch": 42, "duration": 10, "velocity": 82}, {"time": 176997, "pitch": 64, "duration": 10, "velocity": 127}, {"time": 176997, "pitch": 70, "duration": 10, "velocity": 83}, {"time": 177118, "pitch": 36, "duration": 10, "velocity": 115}, {"time": 177118, "pitch": 42, "duration": 10, "velocity": 78}, {"time": 177118, "pitch": 60, "duration": 10, "velocity": 127}, {"time": 177118, "pitch": 70, "duration": 10, "velocity": 127}, {"time": 177238, "pitch": 70, "duration": 10, "velocity": 45}, {"time": 177359, "pitch": 42, "duration": 10, "velocity": 87}, {"time": 177359, "pitch": 62, "duration": 10, "velocity": 127}, {"time": 177359, "pitch": 70, "duration": 10, "velocity": 41}, {"time": 177479, "pitch": 62, "duration": 10, "velocity": 127}, {"time": 177479, "pitch": 70, "duration": 10, "velocity": 43}, {"time": 177600, "pitch": 38, "duration": 10, "velocity": 127}, {"time": 177600, "pitch": 42, "duration": 10, "velocity": 88}, {"time": 177600, "pitch": 61, "duration": 10, "velocity": 127}, {"time": 177600, "pitch": 70, "duration": 10, "velocity": 127}, {"time": 177720, "pitch": 70, "duration": 10, "velocity": 70}, {"time": 177841, "pitch": 42, "duration": 10, "velocity": 69}, {"time": 177841, "pitch": 64, "duration": 10, "velocity": 127}, {"time": 177841, "pitch": 70, "duration": 10, "velocity": 45}, {"time": 177961, "pitch": 42, "duration": 10, "velocity": 87}, {"time": 177961, "pitch": 64, "duration": 10, "velocity": 127}, {"time": 177961, "pitch": 70, "duration": 10, "velocity": 46}, {"time": 178081, "pitch": 36, "duration": 10, "velocity": 115}, {"time": 178081, "pitch": 42, "duration": 10, "velocity": 73}, {"time": 178081, "pitch": 60, "duration": 10, "velocity": 127}, {"time": 178081, "pitch": 70, "duration": 10, "velocity": 127}, {"time": 178202, "pitch": 42, "duration": 10, "velocity": 100}, {"time": 178202, "pitch": 70, "duration": 10, "velocity": 53}, {"time": 178322, "pitch": 36, "duration": 10, "velocity": 115}, {"time": 178322, "pitch": 46, "duration": 10, "velocity": 95}, {"time": 178322, "pitch": 62, "duration": 10, "velocity": 127}, {"time": 178322, "pitch": 70, "duration": 10, "velocity": 43}, {"time": 178443, "pitch": 62, "duration": 10, "velocity": 127}, {"time": 178443, "pitch": 70, "duration": 10, "velocity": 58}, {"time": 178563, "pitch": 38, "duration": 10, "velocity": 127}, {"time": 178563, "pitch": 42, "duration": 10, "velocity": 95}, {"time": 178563, "pitch": 54, "duration": 10, "velocity": 127}, {"time": 178563, "pitch": 61, "duration": 10, "velocity": 127}, {"time": 178563, "pitch": 70, "duration": 10, "velocity": 127}, {"time": 178682, "pitch": 70, "duration": 9, "velocity": 57}, {"time": 178800, "pitch": 36, "duration": 10, "velocity": 115}, {"time": 178800, "pitch": 42, "duration": 10, "velocity": 78}, {"time": 178800, "pitch": 64, "duration": 10, "velocity": 127}, {"time": 178800, "pitch": 70, "duration": 10, "velocity": 58}, {"time": 178919, "pitch": 64, "duration": 9, "velocity": 127}, {"time": 178919, "pitch": 70, "duration": 9, "velocity": 83}, {"time": 179037, "pitch": 42, "duration": 10, "velocity": 78}, {"time": 179037, "pitch": 60, "duration": 10, "velocity": 127}, {"time": 179037, "pitch": 70, "duration": 10, "velocity": 127}, {"time": 179157, "pitch": 70, "duration": 11, "velocity": 45}, {"time": 179278, "pitch": 36, "duration": 10, "velocity": 115}, {"time": 179278, "pitch": 42, "duration": 10, "velocity": 64}, {"time": 179278, "pitch": 62, "duration": 10, "velocity": 127}, {"time": 179278, "pitch": 70, "duration": 10, "velocity": 41}, {"time": 179398, "pitch": 62, "duration": 10, "velocity": 127}, {"time": 179398, "pitch": 70, "duration": 10, "velocity": 43}, {"time": 179519, "pitch": 38, "duration": 10, "velocity": 127}, {"time": 179519, "pitch": 42, "duration": 10, "velocity": 87}, {"time": 179519, "pitch": 61, "duration": 10, "velocity": 127}, {"time": 179519, "pitch": 70, "duration": 10, "velocity": 127}, {"time": 179639, "pitch": 70, "duration": 10, "velocity": 70}, {"time": 179760, "pitch": 42, "duration": 10, "velocity": 77}, {"time": 179760, "pitch": 64, "duration": 10, "velocity": 127}, {"time": 179760, "pitch": 70, "duration": 10, "velocity": 45}, {"time": 179880, "pitch": 42, "duration": 10, "velocity": 74}, {"time": 179880, "pitch": 64, "duration": 10, "velocity": 127}, {"time": 179880, "pitch": 70, "duration": 10, "velocity": 46}, {"time": 180001, "pitch": 36, "duration": 10, "velocity": 115}, {"time": 180001, "pitch": 42, "duration": 10, "velocity": 81}, {"time": 180001, "pitch": 60, "duration": 10, "velocity": 127}, {"time": 180001, "pitch": 70, "duration": 10, "velocity": 127}, {"time": 180121, "pitch": 42, "duration": 10, "velocity": 115}, {"time": 180121, "pitch": 70, "duration": 10, "velocity": 53}, {"time": 180241, "pitch": 36, "duration": 10, "velocity": 115}, {"time": 180241, "pitch": 46, "duration": 10, "velocity": 95}, {"time": 180241, "pitch": 62, "duration": 10, "velocity": 127}, {"time": 180241, "pitch": 70, "duration": 10, "velocity": 43}, {"time": 180362, "pitch": 62, "duration": 10, "velocity": 127}, {"time": 180362, "pitch": 70, "duration": 10, "velocity": 58}, {"time": 180482, "pitch": 38, "duration": 10, "velocity": 127}, {"time": 180482, "pitch": 42, "duration": 10, "velocity": 91}, {"time": 180482, "pitch": 54, "duration": 10, "velocity": 127}, {"time": 180482, "pitch": 63, "duration": 10, "velocity": 127}, {"time": 180482, "pitch": 70, "duration": 10, "velocity": 127}, {"time": 180601, "pitch": 70, "duration": 10, "velocity": 57}, {"time": 180719, "pitch": 36, "duration": 10, "velocity": 115}, {"time": 180719, "pitch": 42, "duration": 10, "velocity": 69}, {"time": 180719, "pitch": 54, "duration": 10, "velocity": 127}, {"time": 180719, "pitch": 64, "duration": 10, "velocity": 127}, {"time": 180719, "pitch": 70, "duration": 10, "velocity": 58}, {"time": 180838, "pitch": 42, "duration": 10, "velocity": 93}, {"time": 180838, "pitch": 64, "duration": 10, "velocity": 127}, {"time": 180838, "pitch": 70, "duration": 10, "velocity": 83}, {"time": 180956, "pitch": 42, "duration": 10, "velocity": 54}, {"time": 180956, "pitch": 60, "duration": 10, "velocity": 127}, {"time": 180956, "pitch": 70, "duration": 10, "velocity": 127}, {"time": 181077, "pitch": 70, "duration": 10, "velocity": 45}, {"time": 181197, "pitch": 36, "duration": 10, "velocity": 115}, {"time": 181197, "pitch": 42, "duration": 10, "velocity": 78}, {"time": 181197, "pitch": 62, "duration": 10, "velocity": 127}, {"time": 181197, "pitch": 70, "duration": 10, "velocity": 41}, {"time": 181317, "pitch": 62, "duration": 11, "velocity": 127}, {"time": 181317, "pitch": 70, "duration": 11, "velocity": 43}, {"time": 181438, "pitch": 38, "duration": 10, "velocity": 127}, {"time": 181438, "pitch": 42, "duration": 10, "velocity": 91}, {"time": 181438, "pitch": 61, "duration": 10, "velocity": 127}, {"time": 181438, "pitch": 70, "duration": 10, "velocity": 127}, {"time": 181558, "pitch": 70, "duration": 10, "velocity": 70}, {"time": 181679, "pitch": 42, "duration": 10, "velocity": 59}, {"time": 181679, "pitch": 64, "duration": 10, "velocity": 127}, {"time": 181679, "pitch": 70, "duration": 10, "velocity": 45}, {"time": 181799, "pitch": 42, "duration": 10, "velocity": 95}, {"time": 181799, "pitch": 64, "duration": 10, "velocity": 127}, {"time": 181799, "pitch": 70, "duration": 10, "velocity": 46}, {"time": 181920, "pitch": 36, "duration": 10, "velocity": 115}, {"time": 181920, "pitch": 42, "duration": 10, "velocity": 85}, {"time": 181920, "pitch": 60, "duration": 10, "velocity": 127}, {"time": 181920, "pitch": 70, "duration": 10, "velocity": 127}, {"time": 182040, "pitch": 70, "duration": 10, "velocity": 53}, {"time": 182161, "pitch": 42, "duration": 10, "velocity": 73}, {"time": 182161, "pitch": 62, "duration": 10, "velocity": 127}, {"time": 182161, "pitch": 70, "duration": 10, "velocity": 43}, {"time": 182281, "pitch": 42, "duration": 10, "velocity": 104}, {"time": 182281, "pitch": 62, "duration": 10, "velocity": 127}, {"time": 182281, "pitch": 70, "duration": 10, "velocity": 58}, {"time": 182401, "pitch": 38, "duration": 10, "velocity": 127}, {"time": 182401, "pitch": 42, "duration": 10, "velocity": 80}, {"time": 182401, "pitch": 54, "duration": 10, "velocity": 127}, {"time": 182401, "pitch": 63, "duration": 10, "velocity": 127}, {"time": 182401, "pitch": 70, "duration": 10, "velocity": 127}, {"time": 182522, "pitch": 63, "duration": 10, "velocity": 127}, {"time": 182522, "pitch": 70, "duration": 10, "velocity": 57}, {"time": 182642, "pitch": 36, "duration": 10, "velocity": 115}, {"time": 182642, "pitch": 46, "duration": 10, "velocity": 75}, {"time": 182642, "pitch": 64, "duration": 10, "velocity": 127}, {"time": 182642, "pitch": 70, "duration": 10, "velocity": 58}, {"time": 182763, "pitch": 64, "duration": 10, "velocity": 127}, {"time": 182763, "pitch": 70, "duration": 10, "velocity": 83}, {"time": 182883, "pitch": 36, "duration": 10, "velocity": 115}, {"time": 182883, "pitch": 42, "duration": 10, "velocity": 78}, {"time": 182883, "pitch": 60, "duration": 10, "velocity": 127}, {"time": 182883, "pitch": 70, "duration": 10, "velocity": 127}, {"time": 183002, "pitch": 70, "duration": 9, "velocity": 45}, {"time": 183120, "pitch": 46, "duration": 10, "velocity": 91}, {"time": 183120, "pitch": 62, "duration": 10, "velocity": 127}, {"time": 183120, "pitch": 70, "duration": 10, "velocity": 41}, {"time": 183239, "pitch": 62, "duration": 9, "velocity": 127}, {"time": 183239, "pitch": 70, "duration": 9, "velocity": 43}, {"time": 183357, "pitch": 38, "duration": 10, "velocity": 127}, {"time": 183357, "pitch": 42, "duration": 10, "velocity": 104}, {"time": 183357, "pitch": 61, "duration": 10, "velocity": 127}, {"time": 183357, "pitch": 70, "duration": 10, "velocity": 127}, {"time": 183477, "pitch": 70, "duration": 11, "velocity": 70}, {"time": 183598, "pitch": 36, "duration": 10, "velocity": 115}, {"time": 183598, "pitch": 46, "duration": 10, "velocity": 95}, {"time": 183598, "pitch": 64, "duration": 10, "velocity": 127}, {"time": 183598, "pitch": 70, "duration": 10, "velocity": 45}, {"time": 183718, "pitch": 64, "duration": 10, "velocity": 127}, {"time": 183718, "pitch": 70, "duration": 10, "velocity": 46}, {"time": 183839, "pitch": 42, "duration": 10, "velocity": 75}, {"time": 183839, "pitch": 47, "duration": 10, "velocity": 100}, {"time": 183839, "pitch": 60, "duration": 10, "velocity": 127}, {"time": 183839, "pitch": 70, "duration": 10, "velocity": 127}, {"time": 183860, "pitch": 47, "duration": 10, "velocity": 127}, {"time": 183959, "pitch": 70, "duration": 10, "velocity": 53}, {"time": 184080, "pitch": 38, "duration": 10, "velocity": 62}, {"time": 184080, "pitch": 42, "duration": 10, "velocity": 94}, {"time": 184080, "pitch": 62, "duration": 10, "velocity": 127}, {"time": 184080, "pitch": 70, "duration": 10, "velocity": 43}, {"time": 184140, "pitch": 38, "duration": 10, "velocity": 73}, {"time": 184191, "pitch": 38, "duration": 10, "velocity": 86}, {"time": 184200, "pitch": 62, "duration": 10, "velocity": 127}, {"time": 184200, "pitch": 70, "duration": 10, "velocity": 58}, {"time": 184251, "pitch": 38, "duration": 10, "velocity": 107}, {"time": 184321, "pitch": 38, "duration": 10, "velocity": 127}, {"time": 184321, "pitch": 42, "duration": 10, "velocity": 69}, {"time": 184321, "pitch": 54, "duration": 10, "velocity": 127}, {"time": 184321, "pitch": 63, "duration": 10, "velocity": 127}, {"time": 184321, "pitch": 70, "duration": 10, "velocity": 127}, {"time": 184441, "pitch": 38, "duration": 10, "velocity": 127}, {"time": 184441, "pitch": 70, "duration": 10, "velocity": 57}, {"time": 184561, "pitch": 42, "duration": 10, "velocity": 91}, {"time": 184561, "pitch": 43, "duration": 10, "velocity": 100}, {"time": 184561, "pitch": 54, "duration": 10, "velocity": 127}, {"time": 184561, "pitch": 64, "duration": 10, "velocity": 127}, {"time": 184561, "pitch": 70, "duration": 10, "velocity": 58}, {"time": 184589, "pitch": 43, "duration": 10, "velocity": 127}, {"time": 184682, "pitch": 64, "duration": 10, "velocity": 127}, {"time": 184682, "pitch": 70, "duration": 10, "velocity": 83}, {"time": 184802, "pitch": 36, "duration": 10, "velocity": 115}, {"time": 184802, "pitch": 42, "duration": 10, "velocity": 77}, {"time": 184802, "pitch": 60, "duration": 10, "velocity": 127}, {"time": 184802, "pitch": 70, "duration": 10, "velocity": 127}, {"time": 184921, "pitch": 70, "duration": 10, "velocity": 45}, {"time": 185039, "pitch": 36, "duration": 10, "velocity": 115}, {"time": 185039, "pitch": 46, "duration": 10, "velocity": 104}, {"time": 185039, "pitch": 62, "duration": 10, "velocity": 127}, {"time": 185039, "pitch": 70, "duration": 10, "velocity": 41}, {"time": 185158, "pitch": 62, "duration": 10, "velocity": 127}, {"time": 185158, "pitch": 70, "duration": 10, "velocity": 43}, {"time": 185276, "pitch": 38, "duration": 10, "velocity": 127}, {"time": 185276, "pitch": 42, "duration": 10, "velocity": 93}, {"time": 185276, "pitch": 61, "duration": 10, "velocity": 127}, {"time": 185276, "pitch": 70, "duration": 10, "velocity": 127}, {"time": 185397, "pitch": 70, "duration": 10, "velocity": 70}, {"time": 185517, "pitch": 36, "duration": 10, "velocity": 115}, {"time": 185517, "pitch": 46, "duration": 10, "velocity": 102}, {"time": 185517, "pitch": 64, "duration": 10, "velocity": 127}, {"time": 185517, "pitch": 70, "duration": 10, "velocity": 45}, {"time": 185637, "pitch": 38, "duration": 11, "velocity": 127}, {"time": 185637, "pitch": 64, "duration": 11, "velocity": 127}, {"time": 185637, "pitch": 70, "duration": 11, "velocity": 46}, {"time": 185758, "pitch": 36, "duration": 10, "velocity": 115}, {"time": 185758, "pitch": 42, "duration": 10, "velocity": 100}, {"time": 185758, "pitch": 60, "duration": 10, "velocity": 127}, {"time": 185758, "pitch": 70, "duration": 10, "velocity": 127}, {"time": 185878, "pitch": 38, "duration": 10, "velocity": 127}, {"time": 185878, "pitch": 70, "duration": 10, "velocity": 53}, {"time": 185999, "pitch": 36, "duration": 10, "velocity": 115}, {"time": 185999, "pitch": 46, "duration": 10, "velocity": 114}, {"time": 185999, "pitch": 62, "duration": 10, "velocity": 127}, {"time": 185999, "pitch": 70, "duration": 10, "velocity": 43}, {"time": 186119, "pitch": 62, "duration": 10, "velocity": 127}, {"time": 186119, "pitch": 70, "duration": 10, "velocity": 58}, {"time": 186240, "pitch": 38, "duration": 10, "velocity": 127}, {"time": 186240, "pitch": 42, "duration": 10, "velocity": 112}, {"time": 186240, "pitch": 63, "duration": 10, "velocity": 127}, {"time": 186240, "pitch": 70, "duration": 10, "velocity": 127}, {"time": 186360, "pitch": 70, "duration": 10, "velocity": 57}, {"time": 186481, "pitch": 38, "duration": 10, "velocity": 127}, {"time": 186481, "pitch": 42, "duration": 10, "velocity": 117}, {"time": 186481, "pitch": 43, "duration": 10, "velocity": 127}, {"time": 186481, "pitch": 49, "duration": 10, "velocity": 127}, {"time": 186481, "pitch": 64, "duration": 10, "velocity": 127}, {"time": 186481, "pitch": 70, "duration": 10, "velocity": 58}, {"time": 186601, "pitch": 70, "duration": 10, "velocity": 83}, {"time": 186842, "pitch": 60, "duration": 10, "velocity": 127}, {"time": 186962, "pitch": 38, "duration": 10, "velocity": 127}, {"time": 186962, "pitch": 42, "duration": 10, "velocity": 117}, {"time": 186962, "pitch": 43, "duration": 10, "velocity": 127}, {"time": 186962, "pitch": 57, "duration": 10, "velocity": 127}, {"time": 186962, "pitch": 64, "duration": 10, "velocity": 127}, {"time": 187203, "pitch": 38, "duration": 10, "velocity": 127}, {"time": 187203, "pitch": 42, "duration": 10, "velocity": 117}, {"time": 187203, "pitch": 43, "duration": 10, "velocity": 127}, {"time": 187203, "pitch": 57, "duration": 10, "velocity": 127}, {"time": 187203, "pitch": 60, "duration": 10, "velocity": 127}, {"time": 187677, "pitch": 48, "duration": 10, "velocity": 127}, {"time": 187685, "pitch": 50, "duration": 10, "velocity": 100}, {"time": 187918, "pitch": 38, "duration": 10, "velocity": 48}, {"time": 187974, "pitch": 38, "duration": 10, "velocity": 59}, {"time": 188042, "pitch": 38, "duration": 10, "velocity": 84}, {"time": 188099, "pitch": 38, "duration": 10, "velocity": 113}, {"time": 188159, "pitch": 38, "duration": 10, "velocity": 127}, {"time": 188279, "pitch": 38, "duration": 10, "velocity": 127}, {"time": 188400, "pitch": 43, "duration": 10, "velocity": 127}, {"time": 188408, "pitch": 45, "duration": 10, "velocity": 100}, {"time": 188641, "pitch": 36, "duration": 10, "velocity": 115}, {"time": 189122, "pitch": 36, "duration": 10, "velocity": 115}, {"time": 189596, "pitch": 36, "duration": 10, "velocity": 115}, {"time": 190078, "pitch": 36, "duration": 10, "velocity": 115}, {"time": 190560, "pitch": 36, "duration": 10, "velocity": 115}, {"time": 191041, "pitch": 36, "duration": 10, "velocity": 115}, {"time": 191523, "pitch": 36, "duration": 10, "velocity": 115}, {"time": 191997, "pitch": 36, "duration": 10, "velocity": 115}, {"time": 192479, "pitch": 36, "duration": 10, "velocity": 115}, {"time": 192961, "pitch": 36, "duration": 10, "velocity": 115}, {"time": 193442, "pitch": 36, "duration": 10, "velocity": 115}, {"time": 193916, "pitch": 36, "duration": 10, "velocity": 115}, {"time": 194398, "pitch": 36, "duration": 10, "velocity": 115}, {"time": 194880, "pitch": 36, "duration": 10, "velocity": 115}, {"time": 195361, "pitch": 36, "duration": 10, "velocity": 115}, {"time": 195602, "pitch": 29, "duration": 10, "velocity": 110}, {"time": 195602, "pitch": 39, "duration": 10, "velocity": 127}, {"time": 195843, "pitch": 36, "duration": 10, "velocity": 115}, {"time": 196080, "pitch": 29, "duration": 10, "velocity": 127}, {"time": 196080, "pitch": 39, "duration": 10, "velocity": 127}, {"time": 196199, "pitch": 29, "duration": 10, "velocity": 127}, {"time": 196199, "pitch": 39, "duration": 10, "velocity": 127}, {"time": 196317, "pitch": 36, "duration": 10, "velocity": 115}, {"time": 196317, "pitch": 42, "duration": 10, "velocity": 113}, {"time": 196317, "pitch": 54, "duration": 10, "velocity": 127}, {"time": 196438, "pitch": 42, "duration": 10, "velocity": 113}, {"time": 196438, "pitch": 54, "duration": 10, "velocity": 57}, {"time": 196558, "pitch": 46, "duration": 10, "velocity": 117}, {"time": 196558, "pitch": 54, "duration": 10, "velocity": 50}, {"time": 196678, "pitch": 54, "duration": 10, "velocity": 53}, {"time": 196799, "pitch": 36, "duration": 10, "velocity": 115}, {"time": 196799, "pitch": 42, "duration": 10, "velocity": 117}, {"time": 196799, "pitch": 54, "duration": 10, "velocity": 127}, {"time": 196919, "pitch": 54, "duration": 10, "velocity": 36}, {"time": 197040, "pitch": 42, "duration": 10, "velocity": 77}, {"time": 197040, "pitch": 54, "duration": 10, "velocity": 33}, {"time": 197160, "pitch": 42, "duration": 10, "velocity": 91}, {"time": 197160, "pitch": 54, "duration": 10, "velocity": 53}, {"time": 197281, "pitch": 36, "duration": 10, "velocity": 115}, {"time": 197281, "pitch": 42, "duration": 10, "velocity": 104}, {"time": 197281, "pitch": 54, "duration": 10, "velocity": 127}, {"time": 197401, "pitch": 42, "duration": 10, "velocity": 108}, {"time": 197401, "pitch": 54, "duration": 10, "velocity": 36}, {"time": 197521, "pitch": 54, "duration": 10, "velocity": 36}, {"time": 197642, "pitch": 42, "duration": 10, "velocity": 87}, {"time": 197642, "pitch": 54, "duration": 10, "velocity": 36}, {"time": 197762, "pitch": 36, "duration": 10, "velocity": 115}, {"time": 197762, "pitch": 42, "duration": 10, "velocity": 117}, {"time": 197762, "pitch": 54, "duration": 10, "velocity": 127}, {"time": 197881, "pitch": 54, "duration": 10, "velocity": 66}, {"time": 197999, "pitch": 42, "duration": 10, "velocity": 89}, {"time": 197999, "pitch": 54, "duration": 10, "velocity": 50}, {"time": 198118, "pitch": 42, "duration": 10, "velocity": 117}, {"time": 198118, "pitch": 54, "duration": 10, "velocity": 38}, {"time": 198236, "pitch": 36, "duration": 10, "velocity": 115}, {"time": 198236, "pitch": 42, "duration": 10, "velocity": 93}, {"time": 198236, "pitch": 54, "duration": 10, "velocity": 127}, {"time": 198357, "pitch": 42, "duration": 10, "velocity": 117}, {"time": 198357, "pitch": 54, "duration": 10, "velocity": 57}, {"time": 198477, "pitch": 46, "duration": 10, "velocity": 109}, {"time": 198477, "pitch": 54, "duration": 10, "velocity": 50}, {"time": 198598, "pitch": 54, "duration": 10, "velocity": 53}, {"time": 198718, "pitch": 36, "duration": 10, "velocity": 115}, {"time": 198718, "pitch": 42, "duration": 10, "velocity": 117}, {"time": 198718, "pitch": 54, "duration": 10, "velocity": 127}, {"time": 198838, "pitch": 54, "duration": 10, "velocity": 36}, {"time": 198959, "pitch": 42, "duration": 10, "velocity": 85}, {"time": 198959, "pitch": 54, "duration": 10, "velocity": 33}, {"time": 199079, "pitch": 42, "duration": 10, "velocity": 108}, {"time": 199079, "pitch": 54, "duration": 10, "velocity": 53}, {"time": 199200, "pitch": 36, "duration": 10, "velocity": 115}, {"time": 199200, "pitch": 42, "duration": 10, "velocity": 111}, {"time": 199200, "pitch": 54, "duration": 10, "velocity": 127}, {"time": 199320, "pitch": 42, "duration": 10, "velocity": 97}, {"time": 199320, "pitch": 54, "duration": 10, "velocity": 36}, {"time": 199441, "pitch": 42, "duration": 10, "velocity": 89}, {"time": 199441, "pitch": 54, "duration": 10, "velocity": 36}, {"time": 199561, "pitch": 54, "duration": 10, "velocity": 36}, {"time": 199681, "pitch": 36, "duration": 10, "velocity": 115}, {"time": 199681, "pitch": 42, "duration": 10, "velocity": 117}, {"time": 199681, "pitch": 54, "duration": 10, "velocity": 127}, {"time": 199802, "pitch": 54, "duration": 10, "velocity": 66}, {"time": 199922, "pitch": 42, "duration": 10, "velocity": 99}, {"time": 199922, "pitch": 54, "duration": 10, "velocity": 50}, {"time": 200043, "pitch": 42, "duration": 10, "velocity": 114}, {"time": 200043, "pitch": 54, "duration": 10, "velocity": 38}, {"time": 200163, "pitch": 36, "duration": 10, "velocity": 115}, {"time": 200163, "pitch": 42, "duration": 10, "velocity": 108}, {"time": 200163, "pitch": 54, "duration": 10, "velocity": 127}, {"time": 200282, "pitch": 54, "duration": 10, "velocity": 57}, {"time": 200400, "pitch": 46, "duration": 10, "velocity": 103}, {"time": 200400, "pitch": 54, "duration": 10, "velocity": 50}, {"time": 200519, "pitch": 54, "duration": 10, "velocity": 53}, {"time": 200637, "pitch": 36, "duration": 10, "velocity": 115}, {"time": 200637, "pitch": 42, "duration": 10, "velocity": 105}, {"time": 200637, "pitch": 54, "duration": 10, "velocity": 127}, {"time": 200758, "pitch": 54, "duration": 10, "velocity": 36}, {"time": 200878, "pitch": 46, "duration": 10, "velocity": 112}, {"time": 200878, "pitch": 54, "duration": 10, "velocity": 33}, {"time": 200998, "pitch": 54, "duration": 10, "velocity": 53}, {"time": 201119, "pitch": 36, "duration": 10, "velocity": 115}, {"time": 201119, "pitch": 42, "duration": 10, "velocity": 114}, {"time": 201119, "pitch": 54, "duration": 10, "velocity": 127}, {"time": 201239, "pitch": 54, "duration": 10, "velocity": 36}, {"time": 201360, "pitch": 38, "duration": 10, "velocity": 49}, {"time": 201360, "pitch": 42, "duration": 10, "velocity": 94}, {"time": 201360, "pitch": 54, "duration": 10, "velocity": 36}, {"time": 201417, "pitch": 38, "duration": 10, "velocity": 59}, {"time": 201480, "pitch": 38, "duration": 10, "velocity": 77}, {"time": 201480, "pitch": 42, "duration": 10, "velocity": 117}, {"time": 201480, "pitch": 54, "duration": 10, "velocity": 36}, {"time": 201537, "pitch": 38, "duration": 10, "velocity": 98}, {"time": 201601, "pitch": 36, "duration": 10, "velocity": 115}, {"time": 201601, "pitch": 42, "duration": 10, "velocity": 117}, {"time": 201601, "pitch": 54, "duration": 10, "velocity": 127}, {"time": 201604, "pitch": 38, "duration": 10, "velocity": 127}, {"time": 201721, "pitch": 54, "duration": 10, "velocity": 66}, {"time": 201841, "pitch": 38, "duration": 11, "velocity": 127}, {"time": 201841, "pitch": 42, "duration": 11, "velocity": 110}, {"time": 201841, "pitch": 43, "duration": 11, "velocity": 127}, {"time": 201841, "pitch": 54, "duration": 11, "velocity": 50}, {"time": 201841, "pitch": 55, "duration": 11, "velocity": 127}, {"time": 201962, "pitch": 54, "duration": 10, "velocity": 38}, {"time": 202082, "pitch": 38, "duration": 10, "velocity": 127}, {"time": 202082, "pitch": 43, "duration": 10, "velocity": 127}, {"time": 202082, "pitch": 54, "duration": 10, "velocity": 127}, {"time": 202082, "pitch": 55, "duration": 10, "velocity": 127}, {"time": 202201, "pitch": 54, "duration": 10, "velocity": 57}, {"time": 202319, "pitch": 38, "duration": 10, "velocity": 127}, {"time": 202319, "pitch": 43, "duration": 10, "velocity": 127}, {"time": 202319, "pitch": 54, "duration": 10, "velocity": 50}, {"time": 202319, "pitch": 55, "duration": 10, "velocity": 127}, {"time": 202438, "pitch": 54, "duration": 10, "velocity": 53}, {"time": 202556, "pitch": 46, "duration": 10, "velocity": 117}, {"time": 202556, "pitch": 53, "duration": 10, "velocity": 127}, {"time": 202556, "pitch": 54, "duration": 10, "velocity": 127}, {"time": 202556, "pitch": 58, "duration": 10, "velocity": 127}, {"time": 202677, "pitch": 54, "duration": 10, "velocity": 36}, {"time": 202797, "pitch": 54, "duration": 10, "velocity": 33}, {"time": 202918, "pitch": 54, "duration": 10, "velocity": 53}, {"time": 203038, "pitch": 46, "duration": 10, "velocity": 117}, {"time": 203038, "pitch": 50, "duration": 10, "velocity": 100}, {"time": 203038, "pitch": 53, "duration": 10, "velocity": 127}, {"time": 203038, "pitch": 54, "duration": 10, "velocity": 127}, {"time": 203059, "pitch": 50, "duration": 10, "velocity": 127}, {"time": 203158, "pitch": 54, "duration": 10, "velocity": 36}, {"time": 203279, "pitch": 38, "duration": 10, "velocity": 47}, {"time": 203279, "pitch": 54, "duration": 10, "velocity": 36}, {"time": 203330, "pitch": 38, "duration": 10, "velocity": 57}, {"time": 203399, "pitch": 54, "duration": 10, "velocity": 36}, {"time": 203402, "pitch": 38, "duration": 10, "velocity": 80}, {"time": 203453, "pitch": 38, "duration": 11, "velocity": 102}, {"time": 203520, "pitch": 38, "duration": 10, "velocity": 127}, {"time": 203520, "pitch": 44, "duration": 10, "velocity": 127}, {"time": 203520, "pitch": 53, "duration": 10, "velocity": 127}, {"time": 203520, "pitch": 54, "duration": 10, "velocity": 127}, {"time": 203640, "pitch": 38, "duration": 10, "velocity": 127}, {"time": 203640, "pitch": 54, "duration": 10, "velocity": 66}, {"time": 203761, "pitch": 43, "duration": 10, "velocity": 100}, {"time": 203761, "pitch": 54, "duration": 10, "velocity": 50}, {"time": 203782, "pitch": 43, "duration": 10, "velocity": 127}, {"time": 203881, "pitch": 54, "duration": 10, "velocity": 38}, {"time": 204001, "pitch": 36, "duration": 10, "velocity": 115}, {"time": 204001, "pitch": 49, "duration": 10, "velocity": 127}, {"time": 204001, "pitch": 57, "duration": 10, "velocity": 127}], "annotations": [{"time": 271, "annotation": {"number": 7, "value": 100}, "group": "control_change"}, {"time": 292, "annotation": {"number": 11, "value": 120}, "group": "control_change"}, {"time": 313, "annotation": {"number": 91, "value": 30}, "group": "control_change"}, {"time": 334, "annotation": {"number": 101, "value": 127}, "group": "control_change"}, {"time": 354, "annotation": {"number": 100, "value": 127}, "group": "control_change"}]}, {"program": 0, "is_drum": false, "name": "ORGAN", "annotations": [{"time": 208, "annotation": {"number": 0, "value": 0}, "group": "control_change"}, {"time": 229, "annotation": {"number": 32, "value": 0}, "group": "control_change"}]}, {"program": 18, "is_drum": false, "name": "ORGAN", "notes": [{"time": 479, "pitch": 83, "duration": 75, "velocity": 127}, {"time": 600, "pitch": 88, "duration": 75, "velocity": 127}, {"time": 720, "pitch": 90, "duration": 75, "velocity": 127}, {"time": 840, "pitch": 83, "duration": 76, "velocity": 127}, {"time": 961, "pitch": 95, "duration": 75, "velocity": 127}, {"time": 1081, "pitch": 83, "duration": 76, "velocity": 127}, {"time": 1202, "pitch": 88, "duration": 75, "velocity": 127}, {"time": 1322, "pitch": 90, "duration": 75, "velocity": 127}, {"time": 1443, "pitch": 83, "duration": 74, "velocity": 127}, {"time": 1561, "pitch": 88, "duration": 74, "velocity": 127}, {"time": 1680, "pitch": 90, "duration": 74, "velocity": 127}, {"time": 1798, "pitch": 83, "duration": 74, "velocity": 127}, {"time": 1917, "pitch": 95, "duration": 75, "velocity": 127}, {"time": 2037, "pitch": 83, "duration": 75, "velocity": 127}, {"time": 2157, "pitch": 88, "duration": 76, "velocity": 127}, {"time": 2278, "pitch": 90, "duration": 75, "velocity": 127}, {"time": 2398, "pitch": 83, "duration": 76, "velocity": 127}, {"time": 2519, "pitch": 88, "duration": 75, "velocity": 127}, {"time": 2639, "pitch": 90, "duration": 75, "velocity": 127}, {"time": 2760, "pitch": 83, "duration": 75, "velocity": 127}, {"time": 2880, "pitch": 95, "duration": 75, "velocity": 127}, {"time": 3000, "pitch": 83, "duration": 76, "velocity": 127}, {"time": 3121, "pitch": 88, "duration": 75, "velocity": 127}, {"time": 3241, "pitch": 90, "duration": 76, "velocity": 127}, {"time": 3362, "pitch": 83, "duration": 75, "velocity": 127}, {"time": 3482, "pitch": 88, "duration": 75, "velocity": 127}, {"time": 3603, "pitch": 90, "duration": 75, "velocity": 127}, {"time": 3723, "pitch": 83, "duration": 75, "velocity": 127}, {"time": 3843, "pitch": 95, "duration": 75, "velocity": 127}, {"time": 3962, "pitch": 83, "duration": 74, "velocity": 127}, {"time": 4080, "pitch": 88, "duration": 75, "velocity": 127}, {"time": 4199, "pitch": 90, "duration": 74, "velocity": 127}, {"time": 4317, "pitch": 83, "duration": 76, "velocity": 127}, {"time": 4438, "pitch": 88, "duration": 75, "velocity": 127}, {"time": 4558, "pitch": 90, "duration": 76, "velocity": 127}, {"time": 4679, "pitch": 83, "duration": 75, "velocity": 127}, {"time": 4799, "pitch": 95, "duration": 75, "velocity": 127}, {"time": 4920, "pitch": 83, "duration": 75, "velocity": 127}, {"time": 5040, "pitch": 88, "duration": 75, "velocity": 127}, {"time": 5160, "pitch": 90, "duration": 76, "velocity": 127}, {"time": 5281, "pitch": 83, "duration": 75, "velocity": 127}, {"time": 5401, "pitch": 88, "duration": 76, "velocity": 127}, {"time": 5522, "pitch": 90, "duration": 75, "velocity": 127}, {"time": 5642, "pitch": 83, "duration": 75, "velocity": 127}, {"time": 5763, "pitch": 95, "duration": 74, "velocity": 127}, {"time": 5881, "pitch": 83, "duration": 74, "velocity": 127}, {"time": 6000, "pitch": 88, "duration": 74, "velocity": 127}, {"time": 6118, "pitch": 90, "duration": 74, "velocity": 127}, {"time": 6237, "pitch": 83, "duration": 75, "velocity": 127}, {"time": 6357, "pitch": 88, "duration": 75, "velocity": 127}, {"time": 6477, "pitch": 90, "duration": 76, "velocity": 127}, {"time": 6598, "pitch": 83, "duration": 75, "velocity": 127}, {"time": 6718, "pitch": 95, "duration": 76, "velocity": 127}, {"time": 6839, "pitch": 83, "duration": 75, "velocity": 127}, {"time": 6959, "pitch": 88, "duration": 75, "velocity": 127}, {"time": 7080, "pitch": 90, "duration": 75, "velocity": 127}, {"time": 7200, "pitch": 83, "duration": 75, "velocity": 127}, {"time": 7320, "pitch": 88, "duration": 76, "velocity": 127}, {"time": 7441, "pitch": 90, "duration": 75, "velocity": 127}, {"time": 7561, "pitch": 83, "duration": 76, "velocity": 127}, {"time": 7682, "pitch": 95, "duration": 75, "velocity": 127}, {"time": 7802, "pitch": 83, "duration": 75, "velocity": 127}, {"time": 7923, "pitch": 88, "duration": 75, "velocity": 127}, {"time": 8043, "pitch": 90, "duration": 75, "velocity": 127}, {"time": 8163, "pitch": 83, "duration": 75, "velocity": 127}, {"time": 8282, "pitch": 88, "duration": 74, "velocity": 127}, {"time": 8400, "pitch": 90, "duration": 75, "velocity": 127}, {"time": 8519, "pitch": 83, "duration": 74, "velocity": 127}, {"time": 8637, "pitch": 95, "duration": 76, "velocity": 127}, {"time": 8758, "pitch": 83, "duration": 75, "velocity": 127}, {"time": 8878, "pitch": 88, "duration": 76, "velocity": 127}, {"time": 8999, "pitch": 90, "duration": 75, "velocity": 127}, {"time": 9119, "pitch": 83, "duration": 75, "velocity": 127}, {"time": 9240, "pitch": 88, "duration": 75, "velocity": 127}, {"time": 9360, "pitch": 90, "duration": 75, "velocity": 127}, {"time": 9480, "pitch": 83, "duration": 76, "velocity": 127}, {"time": 9601, "pitch": 95, "duration": 75, "velocity": 127}, {"time": 9721, "pitch": 83, "duration": 76, "velocity": 127}, {"time": 9842, "pitch": 88, "duration": 75, "velocity": 127}, {"time": 9962, "pitch": 90, "duration": 75, "velocity": 127}, {"time": 10083, "pitch": 83, "duration": 74, "velocity": 127}, {"time": 10201, "pitch": 88, "duration": 74, "velocity": 127}, {"time": 10320, "pitch": 90, "duration": 74, "velocity": 127}, {"time": 10438, "pitch": 83, "duration": 74, "velocity": 127}, {"time": 10557, "pitch": 95, "duration": 75, "velocity": 127}, {"time": 10677, "pitch": 83, "duration": 75, "velocity": 127}, {"time": 10797, "pitch": 88, "duration": 76, "velocity": 127}, {"time": 10918, "pitch": 90, "duration": 75, "velocity": 127}, {"time": 11038, "pitch": 83, "duration": 76, "velocity": 127}, {"time": 11159, "pitch": 88, "duration": 75, "velocity": 127}, {"time": 11279, "pitch": 90, "duration": 75, "velocity": 127}, {"time": 11400, "pitch": 83, "duration": 75, "velocity": 127}, {"time": 11520, "pitch": 95, "duration": 75, "velocity": 127}, {"time": 11640, "pitch": 83, "duration": 76, "velocity": 127}, {"time": 11761, "pitch": 88, "duration": 75, "velocity": 127}, {"time": 11881, "pitch": 90, "duration": 76, "velocity": 127}, {"time": 12002, "pitch": 83, "duration": 75, "velocity": 127}, {"time": 12122, "pitch": 88, "duration": 75, "velocity": 127}, {"time": 12243, "pitch": 90, "duration": 75, "velocity": 127}, {"time": 12363, "pitch": 83, "duration": 75, "velocity": 127}, {"time": 12483, "pitch": 95, "duration": 75, "velocity": 127}, {"time": 12602, "pitch": 83, "duration": 74, "velocity": 127}, {"time": 12720, "pitch": 88, "duration": 75, "velocity": 127}, {"time": 12839, "pitch": 90, "duration": 74, "velocity": 127}, {"time": 12957, "pitch": 83, "duration": 76, "velocity": 127}, {"time": 13078, "pitch": 88, "duration": 75, "velocity": 127}, {"time": 13198, "pitch": 90, "duration": 76, "velocity": 127}, {"time": 13319, "pitch": 83, "duration": 75, "velocity": 127}, {"time": 13439, "pitch": 95, "duration": 75, "velocity": 127}, {"time": 13560, "pitch": 83, "duration": 75, "velocity": 127}, {"time": 13680, "pitch": 59, "duration": 188, "velocity": 127}, {"time": 13680, "pitch": 81, "duration": 189, "velocity": 127}, {"time": 13680, "pitch": 85, "duration": 210, "velocity": 127}, {"time": 13680, "pitch": 88, "duration": 193, "velocity": 127}, {"time": 13921, "pitch": 59, "duration": 151, "velocity": 127}, {"time": 13921, "pitch": 81, "duration": 121, "velocity": 127}, {"time": 13921, "pitch": 85, "duration": 156, "velocity": 127}, {"time": 13921, "pitch": 88, "duration": 139, "velocity": 127}, {"time": 14162, "pitch": 59, "duration": 225, "velocity": 127}, {"time": 14162, "pitch": 81, "duration": 224, "velocity": 127}, {"time": 14162, "pitch": 85, "duration": 226, "velocity": 127}, {"time": 14162, "pitch": 88, "duration": 216, "velocity": 127}, {"time": 15096, "pitch": 47, "duration": 34, "velocity": 62}, {"time": 15107, "pitch": 49, "duration": 42, "velocity": 63}, {"time": 15116, "pitch": 51, "duration": 48, "velocity": 64}, {"time": 15139, "pitch": 52, "duration": 35, "velocity": 68}, {"time": 15153, "pitch": 54, "duration": 37, "velocity": 70}, {"time": 15162, "pitch": 56, "duration": 43, "velocity": 72}, {"time": 15178, "pitch": 57, "duration": 40, "velocity": 75}, {"time": 15196, "pitch": 59, "duration": 32, "velocity": 79}, {"time": 15208, "pitch": 61, "duration": 34, "velocity": 82}, {"time": 15221, "pitch": 63, "duration": 36, "velocity": 85}, {"time": 15230, "pitch": 64, "duration": 35, "velocity": 87}, {"time": 15241, "pitch": 66, "duration": 39, "velocity": 90}, {"time": 15253, "pitch": 68, "duration": 41, "velocity": 94}, {"time": 15272, "pitch": 69, "duration": 38, "velocity": 99}, {"time": 15285, "pitch": 71, "duration": 33, "velocity": 103}, {"time": 15295, "pitch": 73, "duration": 38, "velocity": 107}, {"time": 15308, "pitch": 75, "duration": 32, "velocity": 111}, {"time": 15320, "pitch": 76, "duration": 34, "velocity": 116}, {"time": 15330, "pitch": 78, "duration": 36, "velocity": 119}, {"time": 15343, "pitch": 80, "duration": 34, "velocity": 124}, {"time": 15351, "pitch": 81, "duration": 34, "velocity": 127}, {"time": 15363, "pitch": 83, "duration": 35, "velocity": 127}, {"time": 15372, "pitch": 85, "duration": 45, "velocity": 127}, {"time": 15381, "pitch": 87, "duration": 46, "velocity": 127}, {"time": 15392, "pitch": 88, "duration": 50, "velocity": 127}, {"time": 15402, "pitch": 90, "duration": 102, "velocity": 127}, {"time": 15410, "pitch": 92, "duration": 85, "velocity": 127}, {"time": 15425, "pitch": 93, "duration": 57, "velocity": 127}, {"time": 15440, "pitch": 95, "duration": 28, "velocity": 127}, {"time": 15486, "pitch": 88, "duration": 30, "velocity": 60}, {"time": 15511, "pitch": 87, "duration": 28, "velocity": 127}, {"time": 15522, "pitch": 85, "duration": 28, "velocity": 109}, {"time": 15528, "pitch": 83, "duration": 29, "velocity": 109}, {"time": 15533, "pitch": 81, "duration": 30, "velocity": 109}, {"time": 15553, "pitch": 80, "duration": 25, "velocity": 108}, {"time": 15559, "pitch": 78, "duration": 27, "velocity": 108}, {"time": 15571, "pitch": 76, "duration": 28, "velocity": 106}, {"time": 15585, "pitch": 75, "duration": 28, "velocity": 105}, {"time": 15594, "pitch": 73, "duration": 29, "velocity": 103}, {"time": 15605, "pitch": 71, "duration": 29, "velocity": 102}, {"time": 15616, "pitch": 69, "duration": 28, "velocity": 100}, {"time": 15626, "pitch": 68, "duration": 25, "velocity": 98}, {"time": 15630, "pitch": 66, "duration": 29, "velocity": 97}, {"time": 15642, "pitch": 64, "duration": 28, "velocity": 94}, {"time": 15661, "pitch": 63, "duration": 29, "velocity": 89}, {"time": 15673, "pitch": 61, "duration": 29, "velocity": 86}, {"time": 15684, "pitch": 59, "duration": 30, "velocity": 82}, {"time": 15694, "pitch": 57, "duration": 29, "velocity": 79}, {"time": 15709, "pitch": 56, "duration": 28, "velocity": 74}, {"time": 15723, "pitch": 54, "duration": 29, "velocity": 69}, {"time": 15740, "pitch": 52, "duration": 28, "velocity": 62}, {"time": 15764, "pitch": 51, "duration": 28, "velocity": 51}, {"time": 15788, "pitch": 49, "duration": 28, "velocity": 39}, {"time": 15809, "pitch": 47, "duration": 28, "velocity": 28}, {"time": 15840, "pitch": 68, "duration": 1852, "velocity": 107}, {"time": 15840, "pitch": 71, "duration": 1865, "velocity": 107}, {"time": 15840, "pitch": 76, "duration": 1857, "velocity": 107}, {"time": 17762, "pitch": 71, "duration": 1855, "velocity": 107}, {"time": 17762, "pitch": 75, "duration": 1871, "velocity": 107}, {"time": 17762, "pitch": 78, "duration": 1861, "velocity": 107}, {"time": 19688, "pitch": 66, "duration": 1780, "velocity": 107}, {"time": 19688, "pitch": 69, "duration": 1738, "velocity": 107}, {"time": 19688, "pitch": 73, "duration": 1758, "velocity": 107}, {"time": 19688, "pitch": 76, "duration": 1743, "velocity": 107}, {"time": 21578, "pitch": 59, "duration": 906, "velocity": 107}, {"time": 21578, "pitch": 69, "duration": 878, "velocity": 107}, {"time": 21578, "pitch": 75, "duration": 935, "velocity": 107}, {"time": 21578, "pitch": 78, "duration": 900, "velocity": 107}, {"time": 22541, "pitch": 58, "duration": 424, "velocity": 107}, {"time": 22541, "pitch": 67, "duration": 396, "velocity": 107}, {"time": 22541, "pitch": 70, "duration": 454, "velocity": 107}, {"time": 22541, "pitch": 76, "duration": 418, "velocity": 107}, {"time": 23023, "pitch": 59, "duration": 418, "velocity": 107}, {"time": 23023, "pitch": 69, "duration": 390, "velocity": 107}, {"time": 23023, "pitch": 75, "duration": 446, "velocity": 107}, {"time": 23023, "pitch": 78, "duration": 412, "velocity": 107}, {"time": 23517, "pitch": 68, "duration": 1859, "velocity": 107}, {"time": 23517, "pitch": 71, "duration": 1872, "velocity": 107}, {"time": 23517, "pitch": 76, "duration": 1864, "velocity": 107}, {"time": 25446, "pitch": 71, "duration": 1855, "velocity": 107}, {"time": 25446, "pitch": 75, "duration": 1872, "velocity": 107}, {"time": 25446, "pitch": 78, "duration": 1862, "velocity": 107}, {"time": 27373, "pitch": 66, "duration": 1777, "velocity": 107}, {"time": 27373, "pitch": 69, "duration": 1734, "velocity": 107}, {"time": 27373, "pitch": 73, "duration": 1755, "velocity": 107}, {"time": 27373, "pitch": 76, "duration": 1739, "velocity": 107}, {"time": 29262, "pitch": 59, "duration": 899, "velocity": 107}, {"time": 29262, "pitch": 69, "duration": 872, "velocity": 107}, {"time": 29262, "pitch": 75, "duration": 928, "velocity": 107}, {"time": 29262, "pitch": 78, "duration": 894, "velocity": 107}, {"time": 30218, "pitch": 58, "duration": 424, "velocity": 107}, {"time": 30218, "pitch": 67, "duration": 396, "velocity": 107}, {"time": 30218, "pitch": 70, "duration": 453, "velocity": 107}, {"time": 30218, "pitch": 76, "duration": 418, "velocity": 107}, {"time": 30699, "pitch": 59, "duration": 425, "velocity": 107}, {"time": 30699, "pitch": 69, "duration": 397, "velocity": 107}, {"time": 30699, "pitch": 75, "duration": 454, "velocity": 107}, {"time": 30699, "pitch": 78, "duration": 419, "velocity": 107}, {"time": 31201, "pitch": 69, "duration": 1597, "velocity": 107}, {"time": 31201, "pitch": 73, "duration": 1620, "velocity": 107}, {"time": 31201, "pitch": 76, "duration": 1610, "velocity": 107}, {"time": 32879, "pitch": 71, "duration": 1013, "velocity": 107}, {"time": 32879, "pitch": 75, "duration": 1074, "velocity": 107}, {"time": 32879, "pitch": 78, "duration": 1031, "velocity": 107}, {"time": 34084, "pitch": 72, "duration": 550, "velocity": 107}, {"time": 34084, "pitch": 75, "duration": 576, "velocity": 107}, {"time": 34084, "pitch": 80, "duration": 593, "velocity": 107}, {"time": 34798, "pitch": 73, "duration": 1114, "velocity": 107}, {"time": 34798, "pitch": 76, "duration": 1131, "velocity": 107}, {"time": 34798, "pitch": 80, "duration": 1123, "velocity": 107}, {"time": 36003, "pitch": 71, "duration": 603, "velocity": 107}, {"time": 36003, "pitch": 75, "duration": 615, "velocity": 107}, {"time": 36003, "pitch": 78, "duration": 608, "velocity": 107}, {"time": 36717, "pitch": 69, "duration": 241, "velocity": 107}, {"time": 36717, "pitch": 73, "duration": 241, "velocity": 107}, {"time": 36717, "pitch": 76, "duration": 241, "velocity": 107}, {"time": 36958, "pitch": 69, "duration": 1469, "velocity": 107}, {"time": 36958, "pitch": 73, "duration": 1496, "velocity": 107}, {"time": 36958, "pitch": 76, "duration": 1507, "velocity": 107}, {"time": 38641, "pitch": 71, "duration": 362, "velocity": 107}, {"time": 38641, "pitch": 76, "duration": 368, "velocity": 107}, {"time": 38641, "pitch": 80, "duration": 360, "velocity": 107}, {"time": 39118, "pitch": 71, "duration": 139, "velocity": 107}, {"time": 39118, "pitch": 75, "duration": 146, "velocity": 107}, {"time": 39118, "pitch": 78, "duration": 143, "velocity": 107}, {"time": 39359, "pitch": 71, "duration": 405, "velocity": 107}, {"time": 39359, "pitch": 75, "duration": 397, "velocity": 107}, {"time": 39359, "pitch": 78, "duration": 424, "velocity": 107}, {"time": 40797, "pitch": 64, "duration": 1686, "velocity": 107}, {"time": 40797, "pitch": 71, "duration": 1686, "velocity": 107}, {"time": 40797, "pitch": 76, "duration": 1686, "velocity": 107}, {"time": 40797, "pitch": 80, "duration": 1686, "velocity": 107}, {"time": 42483, "pitch": 59, "duration": 1919, "velocity": 107}, {"time": 42483, "pitch": 71, "duration": 1919, "velocity": 107}, {"time": 42483, "pitch": 75, "duration": 1919, "velocity": 107}, {"time": 42483, "pitch": 78, "duration": 1919, "velocity": 107}, {"time": 44402, "pitch": 57, "duration": 1919, "velocity": 107}, {"time": 44402, "pitch": 69, "duration": 1919, "velocity": 107}, {"time": 44402, "pitch": 71, "duration": 1919, "velocity": 107}, {"time": 44402, "pitch": 73, "duration": 1919, "velocity": 107}, {"time": 44402, "pitch": 76, "duration": 1919, "velocity": 107}, {"time": 46321, "pitch": 54, "duration": 1197, "velocity": 107}, {"time": 46321, "pitch": 69, "duration": 1197, "velocity": 106}, {"time": 46321, "pitch": 73, "duration": 1197, "velocity": 107}, {"time": 46321, "pitch": 76, "duration": 1197, "velocity": 107}, {"time": 47518, "pitch": 59, "duration": 963, "velocity": 107}, {"time": 47518, "pitch": 71, "duration": 963, "velocity": 107}, {"time": 47518, "pitch": 75, "duration": 963, "velocity": 107}, {"time": 47518, "pitch": 78, "duration": 963, "velocity": 107}, {"time": 48481, "pitch": 56, "duration": 956, "velocity": 107}, {"time": 48481, "pitch": 71, "duration": 956, "velocity": 107}, {"time": 48481, "pitch": 75, "duration": 956, "velocity": 107}, {"time": 48481, "pitch": 78, "duration": 956, "velocity": 107}, {"time": 49437, "pitch": 71, "duration": 722, "velocity": 107}, {"time": 49437, "pitch": 75, "duration": 722, "velocity": 107}, {"time": 49437, "pitch": 78, "duration": 722, "velocity": 107}, {"time": 50159, "pitch": 57, "duration": 1205, "velocity": 107}, {"time": 50159, "pitch": 69, "duration": 1205, "velocity": 107}, {"time": 50159, "pitch": 73, "duration": 1205, "velocity": 107}, {"time": 50159, "pitch": 76, "duration": 1205, "velocity": 107}, {"time": 51364, "pitch": 59, "duration": 474, "velocity": 107}, {"time": 51364, "pitch": 71, "duration": 474, "velocity": 107}, {"time": 51364, "pitch": 75, "duration": 474, "velocity": 107}, {"time": 51364, "pitch": 78, "duration": 474, "velocity": 107}, {"time": 51838, "pitch": 60, "duration": 481, "velocity": 107}, {"time": 51838, "pitch": 72, "duration": 481, "velocity": 107}, {"time": 51838, "pitch": 75, "duration": 481, "velocity": 107}, {"time": 51838, "pitch": 78, "duration": 481, "velocity": 107}, {"time": 52319, "pitch": 61, "duration": 723, "velocity": 107}, {"time": 52319, "pitch": 71, "duration": 723, "velocity": 107}, {"time": 52319, "pitch": 76, "duration": 723, "velocity": 107}, {"time": 52319, "pitch": 80, "duration": 723, "velocity": 107}, {"time": 53042, "pitch": 61, "duration": 241, "velocity": 107}, {"time": 53042, "pitch": 71, "duration": 241, "velocity": 107}, {"time": 53042, "pitch": 75, "duration": 241, "velocity": 107}, {"time": 53042, "pitch": 78, "duration": 241, "velocity": 107}, {"time": 53283, "pitch": 61, "duration": 715, "velocity": 107}, {"time": 53283, "pitch": 71, "duration": 715, "velocity": 107}, {"time": 53283, "pitch": 76, "duration": 715, "velocity": 107}, {"time": 53283, "pitch": 80, "duration": 715, "velocity": 107}, {"time": 53998, "pitch": 54, "duration": 1204, "velocity": 107}, {"time": 53998, "pitch": 69, "duration": 1204, "velocity": 107}, {"time": 53998, "pitch": 73, "duration": 1204, "velocity": 107}, {"time": 53998, "pitch": 76, "duration": 1204, "velocity": 107}, {"time": 55202, "pitch": 59, "duration": 956, "velocity": 107}, {"time": 55202, "pitch": 71, "duration": 956, "velocity": 107}, {"time": 55202, "pitch": 75, "duration": 956, "velocity": 107}, {"time": 55202, "pitch": 78, "duration": 956, "velocity": 107}, {"time": 56158, "pitch": 64, "duration": 1682, "velocity": 107}, {"time": 56158, "pitch": 71, "duration": 1682, "velocity": 107}, {"time": 56158, "pitch": 76, "duration": 1682, "velocity": 107}, {"time": 56158, "pitch": 80, "duration": 1682, "velocity": 107}, {"time": 57840, "pitch": 59, "duration": 1923, "velocity": 107}, {"time": 57840, "pitch": 71, "duration": 1923, "velocity": 107}, {"time": 57840, "pitch": 75, "duration": 1923, "velocity": 107}, {"time": 57840, "pitch": 78, "duration": 1923, "velocity": 107}, {"time": 59763, "pitch": 57, "duration": 1919, "velocity": 107}, {"time": 59763, "pitch": 69, "duration": 1919, "velocity": 107}, {"time": 59763, "pitch": 71, "duration": 1919, "velocity": 107}, {"time": 59763, "pitch": 73, "duration": 1919, "velocity": 107}, {"time": 59763, "pitch": 76, "duration": 1919, "velocity": 107}, {"time": 61682, "pitch": 54, "duration": 1196, "velocity": 107}, {"time": 61682, "pitch": 69, "duration": 1196, "velocity": 106}, {"time": 61682, "pitch": 73, "duration": 1196, "velocity": 107}, {"time": 61682, "pitch": 76, "duration": 1196, "velocity": 107}, {"time": 62878, "pitch": 59, "duration": 964, "velocity": 107}, {"time": 62878, "pitch": 71, "duration": 964, "velocity": 107}, {"time": 62878, "pitch": 75, "duration": 964, "velocity": 107}, {"time": 62878, "pitch": 78, "duration": 964, "velocity": 107}, {"time": 63842, "pitch": 56, "duration": 956, "velocity": 107}, {"time": 63842, "pitch": 71, "duration": 956, "velocity": 107}, {"time": 63842, "pitch": 75, "duration": 956, "velocity": 107}, {"time": 63842, "pitch": 78, "duration": 956, "velocity": 107}, {"time": 64798, "pitch": 71, "duration": 722, "velocity": 107}, {"time": 64798, "pitch": 75, "duration": 722, "velocity": 107}, {"time": 64798, "pitch": 78, "duration": 722, "velocity": 107}, {"time": 65520, "pitch": 57, "duration": 1197, "velocity": 107}, {"time": 65520, "pitch": 69, "duration": 1197, "velocity": 107}, {"time": 65520, "pitch": 73, "duration": 1197, "velocity": 107}, {"time": 65520, "pitch": 76, "duration": 1197, "velocity": 107}, {"time": 66717, "pitch": 59, "duration": 963, "velocity": 107}, {"time": 66717, "pitch": 71, "duration": 963, "velocity": 107}, {"time": 66717, "pitch": 75, "duration": 963, "velocity": 107}, {"time": 66717, "pitch": 78, "duration": 963, "velocity": 107}, {"time": 67680, "pitch": 54, "duration": 964, "velocity": 107}, {"time": 67680, "pitch": 69, "duration": 964, "velocity": 107}, {"time": 67680, "pitch": 73, "duration": 964, "velocity": 107}, {"time": 67680, "pitch": 76, "duration": 964, "velocity": 107}, {"time": 68644, "pitch": 59, "duration": 955, "velocity": 107}, {"time": 68644, "pitch": 71, "duration": 955, "velocity": 107}, {"time": 68644, "pitch": 75, "duration": 955, "velocity": 107}, {"time": 68644, "pitch": 78, "duration": 955, "velocity": 107}, {"time": 69599, "pitch": 64, "duration": 401, "velocity": 107}, {"time": 69599, "pitch": 71, "duration": 375, "velocity": 95}, {"time": 69599, "pitch": 76, "duration": 380, "velocity": 96}, {"time": 69599, "pitch": 80, "duration": 368, "velocity": 107}, {"time": 70081, "pitch": 64, "duration": 271, "velocity": 94}, {"time": 70081, "pitch": 71, "duration": 263, "velocity": 79}, {"time": 70081, "pitch": 75, "duration": 268, "velocity": 107}, {"time": 70081, "pitch": 78, "duration": 250, "velocity": 104}, {"time": 70442, "pitch": 64, "duration": 105, "velocity": 88}, {"time": 70442, "pitch": 71, "duration": 93, "velocity": 63}, {"time": 70442, "pitch": 73, "duration": 133, "velocity": 68}, {"time": 70442, "pitch": 76, "duration": 107, "velocity": 82}, {"time": 70681, "pitch": 64, "duration": 107, "velocity": 103}, {"time": 70681, "pitch": 71, "duration": 90, "velocity": 76}, {"time": 70681, "pitch": 73, "duration": 126, "velocity": 47}, {"time": 70681, "pitch": 76, "duration": 106, "velocity": 94}, {"time": 70918, "pitch": 64, "duration": 54, "velocity": 107}, {"time": 70918, "pitch": 71, "duration": 27, "velocity": 79}, {"time": 70918, "pitch": 75, "duration": 34, "velocity": 107}, {"time": 70918, "pitch": 78, "duration": 26, "velocity": 66}, {"time": 71037, "pitch": 64, "duration": 403, "velocity": 107}, {"time": 71037, "pitch": 71, "duration": 362, "velocity": 92}, {"time": 71037, "pitch": 75, "duration": 378, "velocity": 107}, {"time": 71037, "pitch": 78, "duration": 380, "velocity": 89}, {"time": 71518, "pitch": 64, "duration": 378, "velocity": 101}, {"time": 71518, "pitch": 71, "duration": 392, "velocity": 88}, {"time": 71518, "pitch": 76, "duration": 397, "velocity": 97}, {"time": 71518, "pitch": 80, "duration": 384, "velocity": 107}, {"time": 72000, "pitch": 64, "duration": 277, "velocity": 107}, {"time": 72000, "pitch": 71, "duration": 270, "velocity": 70}, {"time": 72000, "pitch": 75, "duration": 276, "velocity": 103}, {"time": 72000, "pitch": 78, "duration": 252, "velocity": 90}, {"time": 72362, "pitch": 64, "duration": 124, "velocity": 91}, {"time": 72362, "pitch": 71, "duration": 94, "velocity": 70}, {"time": 72362, "pitch": 73, "duration": 117, "velocity": 66}, {"time": 72362, "pitch": 76, "duration": 57, "velocity": 93}, {"time": 72602, "pitch": 64, "duration": 117, "velocity": 92}, {"time": 72602, "pitch": 71, "duration": 98, "velocity": 92}, {"time": 72602, "pitch": 73, "duration": 112, "velocity": 67}, {"time": 72602, "pitch": 76, "duration": 115, "velocity": 97}, {"time": 72843, "pitch": 64, "duration": 48, "velocity": 104}, {"time": 72843, "pitch": 71, "duration": 25, "velocity": 58}, {"time": 72843, "pitch": 75, "duration": 28, "velocity": 98}, {"time": 72843, "pitch": 78, "duration": 25, "velocity": 90}, {"time": 72964, "pitch": 64, "duration": 155, "velocity": 103}, {"time": 72964, "pitch": 71, "duration": 361, "velocity": 87}, {"time": 72964, "pitch": 75, "duration": 389, "velocity": 101}, {"time": 72964, "pitch": 78, "duration": 379, "velocity": 93}, {"time": 73201, "pitch": 63, "duration": 127, "velocity": 107}, {"time": 73438, "pitch": 61, "duration": 382, "velocity": 89}, {"time": 73438, "pitch": 71, "duration": 354, "velocity": 84}, {"time": 73438, "pitch": 76, "duration": 364, "velocity": 107}, {"time": 73438, "pitch": 80, "duration": 352, "velocity": 107}, {"time": 73919, "pitch": 61, "duration": 283, "velocity": 107}, {"time": 73919, "pitch": 71, "duration": 251, "velocity": 80}, {"time": 73919, "pitch": 75, "duration": 250, "velocity": 107}, {"time": 73919, "pitch": 78, "duration": 235, "velocity": 93}, {"time": 74281, "pitch": 61, "duration": 112, "velocity": 103}, {"time": 74281, "pitch": 71, "duration": 94, "velocity": 107}, {"time": 74281, "pitch": 73, "duration": 126, "velocity": 68}, {"time": 74281, "pitch": 76, "duration": 105, "velocity": 86}, {"time": 74522, "pitch": 61, "duration": 132, "velocity": 100}, {"time": 74522, "pitch": 71, "duration": 106, "velocity": 99}, {"time": 74522, "pitch": 73, "duration": 117, "velocity": 67}, {"time": 74522, "pitch": 76, "duration": 116, "velocity": 90}, {"time": 74762, "pitch": 61, "duration": 54, "velocity": 103}, {"time": 74762, "pitch": 71, "duration": 27, "velocity": 79}, {"time": 74762, "pitch": 75, "duration": 27, "velocity": 105}, {"time": 74762, "pitch": 78, "duration": 27, "velocity": 80}, {"time": 74883, "pitch": 61, "duration": 141, "velocity": 107}, {"time": 74883, "pitch": 71, "duration": 367, "velocity": 73}, {"time": 74883, "pitch": 75, "duration": 375, "velocity": 107}, {"time": 74883, "pitch": 78, "duration": 366, "velocity": 101}, {"time": 75120, "pitch": 59, "duration": 140, "velocity": 106}, {"time": 75357, "pitch": 57, "duration": 358, "velocity": 107}, {"time": 75357, "pitch": 71, "duration": 359, "velocity": 73}, {"time": 75357, "pitch": 76, "duration": 360, "velocity": 98}, {"time": 75357, "pitch": 80, "duration": 342, "velocity": 91}, {"time": 75838, "pitch": 57, "duration": 240, "velocity": 107}, {"time": 75838, "pitch": 71, "duration": 247, "velocity": 86}, {"time": 75838, "pitch": 75, "duration": 244, "velocity": 94}, {"time": 75838, "pitch": 78, "duration": 230, "velocity": 84}, {"time": 76200, "pitch": 59, "duration": 128, "velocity": 107}, {"time": 76200, "pitch": 71, "duration": 99, "velocity": 99}, {"time": 76200, "pitch": 73, "duration": 134, "velocity": 67}, {"time": 76200, "pitch": 76, "duration": 110, "velocity": 89}, {"time": 76441, "pitch": 59, "duration": 113, "velocity": 107}, {"time": 76441, "pitch": 71, "duration": 97, "velocity": 84}, {"time": 76441, "pitch": 73, "duration": 115, "velocity": 52}, {"time": 76441, "pitch": 76, "duration": 103, "velocity": 92}, {"time": 76682, "pitch": 59, "duration": 59, "velocity": 107}, {"time": 76682, "pitch": 71, "duration": 45, "velocity": 73}, {"time": 76682, "pitch": 75, "duration": 26, "velocity": 105}, {"time": 76682, "pitch": 78, "duration": 27, "velocity": 81}, {"time": 76802, "pitch": 59, "duration": 334, "velocity": 107}, {"time": 76802, "pitch": 71, "duration": 275, "velocity": 82}, {"time": 76802, "pitch": 75, "duration": 295, "velocity": 99}, {"time": 76802, "pitch": 78, "duration": 299, "velocity": 86}, {"time": 77284, "pitch": 83, "duration": 74, "velocity": 127}, {"time": 77402, "pitch": 88, "duration": 74, "velocity": 127}, {"time": 77521, "pitch": 90, "duration": 74, "velocity": 127}, {"time": 77639, "pitch": 83, "duration": 74, "velocity": 127}, {"time": 77758, "pitch": 95, "duration": 75, "velocity": 127}, {"time": 77878, "pitch": 83, "duration": 75, "velocity": 127}, {"time": 77998, "pitch": 88, "duration": 76, "velocity": 127}, {"time": 78119, "pitch": 90, "duration": 75, "velocity": 127}, {"time": 78239, "pitch": 83, "duration": 76, "velocity": 127}, {"time": 78360, "pitch": 88, "duration": 75, "velocity": 127}, {"time": 78480, "pitch": 90, "duration": 76, "velocity": 127}, {"time": 78601, "pitch": 83, "duration": 75, "velocity": 127}, {"time": 78721, "pitch": 95, "duration": 75, "velocity": 127}, {"time": 78842, "pitch": 83, "duration": 75, "velocity": 127}, {"time": 78962, "pitch": 59, "duration": 188, "velocity": 127}, {"time": 78962, "pitch": 81, "duration": 189, "velocity": 127}, {"time": 78962, "pitch": 85, "duration": 210, "velocity": 127}, {"time": 78962, "pitch": 88, "duration": 193, "velocity": 127}, {"time": 79203, "pitch": 59, "duration": 149, "velocity": 127}, {"time": 79203, "pitch": 81, "duration": 119, "velocity": 127}, {"time": 79203, "pitch": 85, "duration": 154, "velocity": 127}, {"time": 79203, "pitch": 88, "duration": 137, "velocity": 127}, {"time": 79440, "pitch": 59, "duration": 221, "velocity": 127}, {"time": 79440, "pitch": 81, "duration": 220, "velocity": 127}, {"time": 79440, "pitch": 85, "duration": 222, "velocity": 127}, {"time": 79440, "pitch": 88, "duration": 212, "velocity": 127}, {"time": 80378, "pitch": 47, "duration": 34, "velocity": 62}, {"time": 80389, "pitch": 49, "duration": 41, "velocity": 63}, {"time": 80398, "pitch": 51, "duration": 48, "velocity": 64}, {"time": 80420, "pitch": 52, "duration": 36, "velocity": 68}, {"time": 80434, "pitch": 54, "duration": 38, "velocity": 70}, {"time": 80444, "pitch": 56, "duration": 43, "velocity": 72}, {"time": 80460, "pitch": 57, "duration": 40, "velocity": 75}, {"time": 80478, "pitch": 59, "duration": 32, "velocity": 79}, {"time": 80490, "pitch": 61, "duration": 34, "velocity": 82}, {"time": 80503, "pitch": 63, "duration": 36, "velocity": 85}, {"time": 80512, "pitch": 64, "duration": 35, "velocity": 87}, {"time": 80523, "pitch": 66, "duration": 39, "velocity": 90}, {"time": 80535, "pitch": 68, "duration": 41, "velocity": 94}, {"time": 80554, "pitch": 69, "duration": 38, "velocity": 99}, {"time": 80567, "pitch": 71, "duration": 33, "velocity": 103}, {"time": 80577, "pitch": 73, "duration": 38, "velocity": 107}, {"time": 80590, "pitch": 75, "duration": 32, "velocity": 111}, {"time": 80602, "pitch": 76, "duration": 34, "velocity": 116}, {"time": 80612, "pitch": 78, "duration": 36, "velocity": 119}, {"time": 80625, "pitch": 80, "duration": 34, "velocity": 124}, {"time": 80633, "pitch": 81, "duration": 34, "velocity": 127}, {"time": 80645, "pitch": 83, "duration": 35, "velocity": 127}, {"time": 80654, "pitch": 85, "duration": 44, "velocity": 127}, {"time": 80663, "pitch": 87, "duration": 45, "velocity": 127}, {"time": 80674, "pitch": 88, "duration": 50, "velocity": 127}, {"time": 80684, "pitch": 90, "duration": 102, "velocity": 127}, {"time": 80692, "pitch": 92, "duration": 85, "velocity": 127}, {"time": 80706, "pitch": 93, "duration": 58, "velocity": 127}, {"time": 80722, "pitch": 95, "duration": 28, "velocity": 127}, {"time": 80768, "pitch": 88, "duration": 30, "velocity": 60}, {"time": 80793, "pitch": 87, "duration": 28, "velocity": 127}, {"time": 80804, "pitch": 85, "duration": 28, "velocity": 109}, {"time": 80810, "pitch": 83, "duration": 29, "velocity": 109}, {"time": 80815, "pitch": 81, "duration": 30, "velocity": 109}, {"time": 80835, "pitch": 80, "duration": 25, "velocity": 108}, {"time": 80841, "pitch": 78, "duration": 27, "velocity": 108}, {"time": 80853, "pitch": 76, "duration": 28, "velocity": 106}, {"time": 80867, "pitch": 75, "duration": 28, "velocity": 105}, {"time": 80876, "pitch": 73, "duration": 29, "velocity": 103}, {"time": 80887, "pitch": 71, "duration": 29, "velocity": 102}, {"time": 80898, "pitch": 69, "duration": 28, "velocity": 100}, {"time": 80908, "pitch": 68, "duration": 25, "velocity": 98}, {"time": 80912, "pitch": 66, "duration": 29, "velocity": 97}, {"time": 80924, "pitch": 64, "duration": 28, "velocity": 94}, {"time": 80943, "pitch": 63, "duration": 28, "velocity": 89}, {"time": 80955, "pitch": 61, "duration": 28, "velocity": 86}, {"time": 80966, "pitch": 59, "duration": 30, "velocity": 82}, {"time": 80975, "pitch": 57, "duration": 30, "velocity": 79}, {"time": 80991, "pitch": 56, "duration": 28, "velocity": 74}, {"time": 81005, "pitch": 54, "duration": 29, "velocity": 69}, {"time": 81022, "pitch": 52, "duration": 28, "velocity": 62}, {"time": 81046, "pitch": 51, "duration": 28, "velocity": 51}, {"time": 81070, "pitch": 49, "duration": 28, "velocity": 39}, {"time": 81091, "pitch": 47, "duration": 28, "velocity": 28}, {"time": 81122, "pitch": 68, "duration": 1852, "velocity": 107}, {"time": 81122, "pitch": 71, "duration": 1865, "velocity": 107}, {"time": 81122, "pitch": 76, "duration": 1857, "velocity": 107}, {"time": 83044, "pitch": 71, "duration": 1855, "velocity": 107}, {"time": 83044, "pitch": 75, "duration": 1871, "velocity": 107}, {"time": 83044, "pitch": 78, "duration": 1861, "velocity": 107}, {"time": 84970, "pitch": 66, "duration": 1778, "velocity": 107}, {"time": 84970, "pitch": 69, "duration": 1735, "velocity": 107}, {"time": 84970, "pitch": 73, "duration": 1756, "velocity": 107}, {"time": 84970, "pitch": 76, "duration": 1740, "velocity": 107}, {"time": 86859, "pitch": 59, "duration": 907, "velocity": 107}, {"time": 86859, "pitch": 69, "duration": 879, "velocity": 107}, {"time": 86859, "pitch": 75, "duration": 936, "velocity": 107}, {"time": 86859, "pitch": 78, "duration": 901, "velocity": 107}, {"time": 87823, "pitch": 58, "duration": 418, "velocity": 107}, {"time": 87823, "pitch": 67, "duration": 390, "velocity": 107}, {"time": 87823, "pitch": 70, "duration": 446, "velocity": 107}, {"time": 87823, "pitch": 76, "duration": 412, "velocity": 107}, {"time": 88297, "pitch": 59, "duration": 424, "velocity": 107}, {"time": 88297, "pitch": 69, "duration": 396, "velocity": 107}, {"time": 88297, "pitch": 75, "duration": 453, "velocity": 107}, {"time": 88297, "pitch": 78, "duration": 418, "velocity": 107}, {"time": 88799, "pitch": 68, "duration": 1853, "velocity": 107}, {"time": 88799, "pitch": 71, "duration": 1865, "velocity": 107}, {"time": 88799, "pitch": 76, "duration": 1857, "velocity": 107}, {"time": 90721, "pitch": 71, "duration": 1856, "velocity": 107}, {"time": 90721, "pitch": 75, "duration": 1871, "velocity": 107}, {"time": 90721, "pitch": 78, "duration": 1862, "velocity": 107}, {"time": 92647, "pitch": 66, "duration": 1785, "velocity": 107}, {"time": 92647, "pitch": 69, "duration": 1742, "velocity": 107}, {"time": 92647, "pitch": 73, "duration": 1763, "velocity": 107}, {"time": 92647, "pitch": 76, "duration": 1747, "velocity": 107}, {"time": 94544, "pitch": 59, "duration": 898, "velocity": 107}, {"time": 94544, "pitch": 69, "duration": 870, "velocity": 107}, {"time": 94544, "pitch": 75, "duration": 927, "velocity": 107}, {"time": 94544, "pitch": 78, "duration": 892, "velocity": 107}, {"time": 95499, "pitch": 58, "duration": 425, "velocity": 107}, {"time": 95499, "pitch": 67, "duration": 397, "velocity": 107}, {"time": 95499, "pitch": 70, "duration": 454, "velocity": 107}, {"time": 95499, "pitch": 76, "duration": 419, "velocity": 107}, {"time": 95981, "pitch": 59, "duration": 425, "velocity": 107}, {"time": 95981, "pitch": 69, "duration": 397, "velocity": 107}, {"time": 95981, "pitch": 75, "duration": 454, "velocity": 107}, {"time": 95981, "pitch": 78, "duration": 419, "velocity": 107}, {"time": 96483, "pitch": 69, "duration": 1597, "velocity": 107}, {"time": 96483, "pitch": 73, "duration": 1620, "velocity": 107}, {"time": 96483, "pitch": 76, "duration": 1610, "velocity": 107}, {"time": 98161, "pitch": 71, "duration": 1008, "velocity": 107}, {"time": 98161, "pitch": 75, "duration": 1068, "velocity": 107}, {"time": 98161, "pitch": 78, "duration": 1026, "velocity": 107}, {"time": 99358, "pitch": 72, "duration": 558, "velocity": 107}, {"time": 99358, "pitch": 75, "duration": 584, "velocity": 107}, {"time": 99358, "pitch": 80, "duration": 601, "velocity": 107}, {"time": 100080, "pitch": 73, "duration": 1108, "velocity": 107}, {"time": 100080, "pitch": 76, "duration": 1125, "velocity": 107}, {"time": 100080, "pitch": 80, "duration": 1117, "velocity": 107}, {"time": 101277, "pitch": 71, "duration": 611, "velocity": 107}, {"time": 101277, "pitch": 75, "duration": 623, "velocity": 107}, {"time": 101277, "pitch": 78, "duration": 616, "velocity": 107}, {"time": 101999, "pitch": 69, "duration": 241, "velocity": 107}, {"time": 101999, "pitch": 73, "duration": 241, "velocity": 107}, {"time": 101999, "pitch": 76, "duration": 241, "velocity": 107}, {"time": 102240, "pitch": 69, "duration": 1462, "velocity": 107}, {"time": 102240, "pitch": 73, "duration": 1489, "velocity": 107}, {"time": 102240, "pitch": 76, "duration": 1500, "velocity": 107}, {"time": 103919, "pitch": 71, "duration": 366, "velocity": 107}, {"time": 103919, "pitch": 76, "duration": 372, "velocity": 107}, {"time": 103919, "pitch": 80, "duration": 364, "velocity": 107}, {"time": 104400, "pitch": 71, "duration": 139, "velocity": 107}, {"time": 104400, "pitch": 75, "duration": 146, "velocity": 107}, {"time": 104400, "pitch": 78, "duration": 143, "velocity": 107}, {"time": 104641, "pitch": 71, "duration": 405, "velocity": 107}, {"time": 104641, "pitch": 75, "duration": 397, "velocity": 107}, {"time": 104641, "pitch": 78, "duration": 424, "velocity": 107}, {"time": 106079, "pitch": 64, "duration": 1682, "velocity": 107}, {"time": 106079, "pitch": 71, "duration": 1682, "velocity": 107}, {"time": 106079, "pitch": 76, "duration": 1682, "velocity": 107}, {"time": 106079, "pitch": 80, "duration": 1682, "velocity": 107}, {"time": 107761, "pitch": 59, "duration": 1919, "velocity": 107}, {"time": 107761, "pitch": 71, "duration": 1919, "velocity": 107}, {"time": 107761, "pitch": 75, "duration": 1919, "velocity": 107}, {"time": 107761, "pitch": 78, "duration": 1919, "velocity": 107}, {"time": 109680, "pitch": 57, "duration": 1923, "velocity": 107}, {"time": 109680, "pitch": 69, "duration": 1923, "velocity": 107}, {"time": 109680, "pitch": 71, "duration": 1923, "velocity": 107}, {"time": 109680, "pitch": 73, "duration": 1923, "velocity": 107}, {"time": 109680, "pitch": 76, "duration": 1923, "velocity": 107}, {"time": 111603, "pitch": 54, "duration": 1196, "velocity": 107}, {"time": 111603, "pitch": 69, "duration": 1196, "velocity": 106}, {"time": 111603, "pitch": 73, "duration": 1196, "velocity": 107}, {"time": 111603, "pitch": 76, "duration": 1196, "velocity": 107}, {"time": 112799, "pitch": 59, "duration": 964, "velocity": 107}, {"time": 112799, "pitch": 71, "duration": 964, "velocity": 107}, {"time": 112799, "pitch": 75, "duration": 964, "velocity": 107}, {"time": 112799, "pitch": 78, "duration": 964, "velocity": 107}, {"time": 113763, "pitch": 56, "duration": 956, "velocity": 107}, {"time": 113763, "pitch": 71, "duration": 956, "velocity": 107}, {"time": 113763, "pitch": 75, "duration": 956, "velocity": 107}, {"time": 113763, "pitch": 78, "duration": 956, "velocity": 107}, {"time": 114719, "pitch": 71, "duration": 722, "velocity": 107}, {"time": 114719, "pitch": 75, "duration": 722, "velocity": 107}, {"time": 114719, "pitch": 78, "duration": 722, "velocity": 107}, {"time": 115441, "pitch": 57, "duration": 1197, "velocity": 107}, {"time": 115441, "pitch": 69, "duration": 1197, "velocity": 107}, {"time": 115441, "pitch": 73, "duration": 1197, "velocity": 107}, {"time": 115441, "pitch": 76, "duration": 1197, "velocity": 107}, {"time": 116638, "pitch": 59, "duration": 481, "velocity": 107}, {"time": 116638, "pitch": 71, "duration": 481, "velocity": 107}, {"time": 116638, "pitch": 75, "duration": 481, "velocity": 107}, {"time": 116638, "pitch": 78, "duration": 481, "velocity": 107}, {"time": 117119, "pitch": 60, "duration": 482, "velocity": 107}, {"time": 117119, "pitch": 72, "duration": 482, "velocity": 107}, {"time": 117119, "pitch": 75, "duration": 482, "velocity": 107}, {"time": 117119, "pitch": 78, "duration": 482, "velocity": 107}, {"time": 117601, "pitch": 61, "duration": 719, "velocity": 107}, {"time": 117601, "pitch": 71, "duration": 719, "velocity": 107}, {"time": 117601, "pitch": 76, "duration": 719, "velocity": 107}, {"time": 117601, "pitch": 80, "duration": 719, "velocity": 107}, {"time": 118320, "pitch": 61, "duration": 237, "velocity": 107}, {"time": 118320, "pitch": 71, "duration": 237, "velocity": 107}, {"time": 118320, "pitch": 75, "duration": 237, "velocity": 107}, {"time": 118320, "pitch": 78, "duration": 237, "velocity": 107}, {"time": 118557, "pitch": 61, "duration": 722, "velocity": 107}, {"time": 118557, "pitch": 71, "duration": 722, "velocity": 107}, {"time": 118557, "pitch": 76, "duration": 722, "velocity": 107}, {"time": 118557, "pitch": 80, "duration": 722, "velocity": 107}, {"time": 119279, "pitch": 54, "duration": 1205, "velocity": 107}, {"time": 119279, "pitch": 69, "duration": 1205, "velocity": 107}, {"time": 119279, "pitch": 73, "duration": 1205, "velocity": 107}, {"time": 119279, "pitch": 76, "duration": 1205, "velocity": 107}, {"time": 120484, "pitch": 59, "duration": 955, "velocity": 107}, {"time": 120484, "pitch": 71, "duration": 955, "velocity": 107}, {"time": 120484, "pitch": 75, "duration": 955, "velocity": 107}, {"time": 120484, "pitch": 78, "duration": 955, "velocity": 107}, {"time": 121439, "pitch": 64, "duration": 1679, "velocity": 107}, {"time": 121439, "pitch": 71, "duration": 1679, "velocity": 107}, {"time": 121439, "pitch": 76, "duration": 1679, "velocity": 107}, {"time": 121439, "pitch": 80, "duration": 1679, "velocity": 107}, {"time": 123118, "pitch": 59, "duration": 1923, "velocity": 107}, {"time": 123118, "pitch": 71, "duration": 1923, "velocity": 107}, {"time": 123118, "pitch": 75, "duration": 1923, "velocity": 107}, {"time": 123118, "pitch": 78, "duration": 1923, "velocity": 107}, {"time": 125041, "pitch": 57, "duration": 1919, "velocity": 107}, {"time": 125041, "pitch": 69, "duration": 1919, "velocity": 107}, {"time": 125041, "pitch": 71, "duration": 1919, "velocity": 107}, {"time": 125041, "pitch": 73, "duration": 1919, "velocity": 107}, {"time": 125041, "pitch": 76, "duration": 1919, "velocity": 107}, {"time": 126960, "pitch": 54, "duration": 1200, "velocity": 107}, {"time": 126960, "pitch": 69, "duration": 1200, "velocity": 106}, {"time": 126960, "pitch": 73, "duration": 1200, "velocity": 107}, {"time": 126960, "pitch": 76, "duration": 1200, "velocity": 107}, {"time": 128160, "pitch": 59, "duration": 964, "velocity": 107}, {"time": 128160, "pitch": 71, "duration": 964, "velocity": 107}, {"time": 128160, "pitch": 75, "duration": 964, "velocity": 107}, {"time": 128160, "pitch": 78, "duration": 964, "velocity": 107}, {"time": 129124, "pitch": 56, "duration": 956, "velocity": 107}, {"time": 129124, "pitch": 71, "duration": 956, "velocity": 107}, {"time": 129124, "pitch": 75, "duration": 956, "velocity": 107}, {"time": 129124, "pitch": 78, "duration": 956, "velocity": 107}, {"time": 130080, "pitch": 71, "duration": 722, "velocity": 107}, {"time": 130080, "pitch": 75, "duration": 722, "velocity": 107}, {"time": 130080, "pitch": 78, "duration": 722, "velocity": 107}, {"time": 130802, "pitch": 57, "duration": 1197, "velocity": 107}, {"time": 130802, "pitch": 69, "duration": 1197, "velocity": 107}, {"time": 130802, "pitch": 73, "duration": 1197, "velocity": 107}, {"time": 130802, "pitch": 76, "duration": 1197, "velocity": 107}, {"time": 131999, "pitch": 59, "duration": 963, "velocity": 107}, {"time": 131999, "pitch": 71, "duration": 963, "velocity": 107}, {"time": 131999, "pitch": 75, "duration": 963, "velocity": 107}, {"time": 131999, "pitch": 78, "duration": 963, "velocity": 107}, {"time": 132962, "pitch": 54, "duration": 956, "velocity": 107}, {"time": 132962, "pitch": 69, "duration": 956, "velocity": 107}, {"time": 132962, "pitch": 73, "duration": 956, "velocity": 107}, {"time": 132962, "pitch": 76, "duration": 956, "velocity": 107}, {"time": 133918, "pitch": 59, "duration": 963, "velocity": 107}, {"time": 133918, "pitch": 71, "duration": 963, "velocity": 107}, {"time": 133918, "pitch": 75, "duration": 963, "velocity": 107}, {"time": 133918, "pitch": 78, "duration": 963, "velocity": 107}, {"time": 134881, "pitch": 57, "duration": 884, "velocity": 107}, {"time": 134881, "pitch": 73, "duration": 865, "velocity": 107}, {"time": 134881, "pitch": 76, "duration": 871, "velocity": 107}, {"time": 134881, "pitch": 80, "duration": 864, "velocity": 107}, {"time": 135837, "pitch": 59, "duration": 864, "velocity": 107}, {"time": 135837, "pitch": 71, "duration": 854, "velocity": 107}, {"time": 135837, "pitch": 75, "duration": 875, "velocity": 107}, {"time": 135837, "pitch": 78, "duration": 864, "velocity": 107}, {"time": 136800, "pitch": 61, "duration": 276, "velocity": 107}, {"time": 136800, "pitch": 71, "duration": 257, "velocity": 107}, {"time": 136800, "pitch": 75, "duration": 274, "velocity": 107}, {"time": 136800, "pitch": 78, "duration": 272, "velocity": 107}, {"time": 137162, "pitch": 61, "duration": 259, "velocity": 107}, {"time": 137162, "pitch": 71, "duration": 204, "velocity": 107}, {"time": 137162, "pitch": 76, "duration": 250, "velocity": 107}, {"time": 137162, "pitch": 80, "duration": 239, "velocity": 107}, {"time": 137523, "pitch": 61, "duration": 625, "velocity": 107}, {"time": 137523, "pitch": 71, "duration": 618, "velocity": 107}, {"time": 137523, "pitch": 76, "duration": 609, "velocity": 107}, {"time": 137523, "pitch": 80, "duration": 596, "velocity": 107}, {"time": 138238, "pitch": 59, "duration": 422, "velocity": 107}, {"time": 138238, "pitch": 71, "duration": 376, "velocity": 107}, {"time": 138238, "pitch": 75, "duration": 388, "velocity": 107}, {"time": 138238, "pitch": 78, "duration": 393, "velocity": 107}, {"time": 138720, "pitch": 57, "duration": 904, "velocity": 107}, {"time": 138720, "pitch": 73, "duration": 896, "velocity": 107}, {"time": 138720, "pitch": 76, "duration": 900, "velocity": 107}, {"time": 138720, "pitch": 80, "duration": 885, "velocity": 107}, {"time": 139683, "pitch": 59, "duration": 866, "velocity": 107}, {"time": 139683, "pitch": 71, "duration": 899, "velocity": 107}, {"time": 139683, "pitch": 75, "duration": 908, "velocity": 107}, {"time": 139683, "pitch": 78, "duration": 890, "velocity": 107}, {"time": 140639, "pitch": 64, "duration": 286, "velocity": 107}, {"time": 140639, "pitch": 71, "duration": 273, "velocity": 107}, {"time": 140639, "pitch": 75, "duration": 280, "velocity": 107}, {"time": 140639, "pitch": 78, "duration": 278, "velocity": 107}, {"time": 141000, "pitch": 64, "duration": 245, "velocity": 107}, {"time": 141000, "pitch": 71, "duration": 252, "velocity": 107}, {"time": 141000, "pitch": 76, "duration": 250, "velocity": 107}, {"time": 141000, "pitch": 80, "duration": 235, "velocity": 107}, {"time": 141361, "pitch": 64, "duration": 286, "velocity": 107}, {"time": 141361, "pitch": 71, "duration": 276, "velocity": 107}, {"time": 141361, "pitch": 75, "duration": 285, "velocity": 107}, {"time": 141361, "pitch": 78, "duration": 281, "velocity": 107}, {"time": 141723, "pitch": 64, "duration": 255, "velocity": 107}, {"time": 141723, "pitch": 71, "duration": 257, "velocity": 107}, {"time": 141723, "pitch": 76, "duration": 252, "velocity": 107}, {"time": 141723, "pitch": 80, "duration": 236, "velocity": 107}, {"time": 142084, "pitch": 64, "duration": 155, "velocity": 107}, {"time": 142084, "pitch": 71, "duration": 162, "velocity": 107}, {"time": 142084, "pitch": 75, "duration": 167, "velocity": 107}, {"time": 142084, "pitch": 78, "duration": 146, "velocity": 107}, {"time": 142321, "pitch": 64, "duration": 106, "velocity": 107}, {"time": 142321, "pitch": 71, "duration": 117, "velocity": 107}, {"time": 142321, "pitch": 76, "duration": 153, "velocity": 107}, {"time": 142321, "pitch": 80, "duration": 135, "velocity": 107}, {"time": 142558, "pitch": 57, "duration": 847, "velocity": 107}, {"time": 142558, "pitch": 73, "duration": 842, "velocity": 107}, {"time": 142558, "pitch": 76, "duration": 862, "velocity": 107}, {"time": 142558, "pitch": 80, "duration": 844, "velocity": 107}, {"time": 143521, "pitch": 59, "duration": 843, "velocity": 107}, {"time": 143521, "pitch": 71, "duration": 847, "velocity": 107}, {"time": 143521, "pitch": 75, "duration": 866, "velocity": 107}, {"time": 143521, "pitch": 78, "duration": 849, "velocity": 107}, {"time": 144477, "pitch": 61, "duration": 287, "velocity": 107}, {"time": 144477, "pitch": 71, "duration": 285, "velocity": 107}, {"time": 144477, "pitch": 75, "duration": 301, "velocity": 107}, {"time": 144477, "pitch": 78, "duration": 292, "velocity": 107}, {"time": 144838, "pitch": 61, "duration": 299, "velocity": 107}, {"time": 144838, "pitch": 71, "duration": 297, "velocity": 107}, {"time": 144838, "pitch": 76, "duration": 312, "velocity": 107}, {"time": 144838, "pitch": 80, "duration": 295, "velocity": 107}, {"time": 145200, "pitch": 61, "duration": 620, "velocity": 107}, {"time": 145200, "pitch": 71, "duration": 630, "velocity": 107}, {"time": 145200, "pitch": 76, "duration": 620, "velocity": 107}, {"time": 145200, "pitch": 80, "duration": 608, "velocity": 107}, {"time": 145922, "pitch": 59, "duration": 411, "velocity": 107}, {"time": 145922, "pitch": 71, "duration": 398, "velocity": 107}, {"time": 145922, "pitch": 75, "duration": 401, "velocity": 107}, {"time": 145922, "pitch": 78, "duration": 385, "velocity": 107}, {"time": 146404, "pitch": 57, "duration": 920, "velocity": 107}, {"time": 146404, "pitch": 69, "duration": 868, "velocity": 107}, {"time": 146404, "pitch": 73, "duration": 889, "velocity": 107}, {"time": 146404, "pitch": 76, "duration": 891, "velocity": 107}, {"time": 147360, "pitch": 59, "duration": 916, "velocity": 107}, {"time": 147360, "pitch": 71, "duration": 871, "velocity": 107}, {"time": 147360, "pitch": 75, "duration": 904, "velocity": 107}, {"time": 147360, "pitch": 78, "duration": 870, "velocity": 107}, {"time": 148323, "pitch": 61, "duration": 1807, "velocity": 107}, {"time": 148323, "pitch": 71, "duration": 1765, "velocity": 107}, {"time": 148323, "pitch": 76, "duration": 1764, "velocity": 107}, {"time": 148323, "pitch": 80, "duration": 1763, "velocity": 107}, {"time": 150242, "pitch": 69, "duration": 1462, "velocity": 107}, {"time": 150242, "pitch": 73, "duration": 1489, "velocity": 107}, {"time": 150242, "pitch": 76, "duration": 1500, "velocity": 107}, {"time": 150242, "pitch": 83, "duration": 74, "velocity": 107}, {"time": 150361, "pitch": 88, "duration": 74, "velocity": 107}, {"time": 150479, "pitch": 90, "duration": 74, "velocity": 107}, {"time": 150598, "pitch": 83, "duration": 74, "velocity": 107}, {"time": 150716, "pitch": 95, "duration": 75, "velocity": 107}, {"time": 150837, "pitch": 83, "duration": 75, "velocity": 107}, {"time": 150957, "pitch": 88, "duration": 75, "velocity": 107}, {"time": 151077, "pitch": 90, "duration": 76, "velocity": 107}, {"time": 151198, "pitch": 83, "duration": 75, "velocity": 107}, {"time": 151318, "pitch": 88, "duration": 76, "velocity": 107}, {"time": 151439, "pitch": 90, "duration": 75, "velocity": 107}, {"time": 151559, "pitch": 83, "duration": 75, "velocity": 107}, {"time": 151680, "pitch": 95, "duration": 75, "velocity": 107}, {"time": 151920, "pitch": 71, "duration": 241, "velocity": 107}, {"time": 151920, "pitch": 76, "duration": 241, "velocity": 107}, {"time": 151920, "pitch": 80, "duration": 241, "velocity": 107}, {"time": 152402, "pitch": 71, "duration": 139, "velocity": 107}, {"time": 152402, "pitch": 75, "duration": 146, "velocity": 107}, {"time": 152402, "pitch": 78, "duration": 143, "velocity": 107}, {"time": 152643, "pitch": 71, "duration": 398, "velocity": 107}, {"time": 152643, "pitch": 75, "duration": 390, "velocity": 107}, {"time": 152643, "pitch": 78, "duration": 417, "velocity": 107}, {"time": 154080, "pitch": 64, "duration": 1679, "velocity": 107}, {"time": 154080, "pitch": 71, "duration": 1679, "velocity": 107}, {"time": 154080, "pitch": 76, "duration": 1679, "velocity": 107}, {"time": 154080, "pitch": 80, "duration": 1679, "velocity": 107}, {"time": 155759, "pitch": 59, "duration": 1919, "velocity": 107}, {"time": 155759, "pitch": 71, "duration": 1919, "velocity": 107}, {"time": 155759, "pitch": 75, "duration": 1919, "velocity": 107}, {"time": 155759, "pitch": 78, "duration": 1919, "velocity": 107}, {"time": 157678, "pitch": 57, "duration": 1919, "velocity": 107}, {"time": 157678, "pitch": 69, "duration": 1919, "velocity": 107}, {"time": 157678, "pitch": 71, "duration": 1919, "velocity": 107}, {"time": 157678, "pitch": 73, "duration": 1919, "velocity": 107}, {"time": 157678, "pitch": 76, "duration": 1919, "velocity": 107}, {"time": 159597, "pitch": 54, "duration": 1204, "velocity": 107}, {"time": 159597, "pitch": 69, "duration": 1204, "velocity": 106}, {"time": 159597, "pitch": 73, "duration": 1204, "velocity": 107}, {"time": 159597, "pitch": 76, "duration": 1204, "velocity": 107}, {"time": 160801, "pitch": 59, "duration": 956, "velocity": 107}, {"time": 160801, "pitch": 71, "duration": 956, "velocity": 107}, {"time": 160801, "pitch": 75, "duration": 956, "velocity": 107}, {"time": 160801, "pitch": 78, "duration": 956, "velocity": 107}, {"time": 161757, "pitch": 56, "duration": 963, "velocity": 107}, {"time": 161757, "pitch": 71, "duration": 963, "velocity": 107}, {"time": 161757, "pitch": 75, "duration": 963, "velocity": 107}, {"time": 161757, "pitch": 78, "duration": 963, "velocity": 107}, {"time": 162720, "pitch": 71, "duration": 719, "velocity": 107}, {"time": 162720, "pitch": 75, "duration": 719, "velocity": 107}, {"time": 162720, "pitch": 78, "duration": 719, "velocity": 107}, {"time": 163439, "pitch": 57, "duration": 1201, "velocity": 107}, {"time": 163439, "pitch": 69, "duration": 1201, "velocity": 107}, {"time": 163439, "pitch": 73, "duration": 1201, "velocity": 107}, {"time": 163439, "pitch": 76, "duration": 1201, "velocity": 107}, {"time": 164640, "pitch": 59, "duration": 481, "velocity": 107}, {"time": 164640, "pitch": 71, "duration": 481, "velocity": 107}, {"time": 164640, "pitch": 75, "duration": 481, "velocity": 107}, {"time": 164640, "pitch": 78, "duration": 481, "velocity": 107}, {"time": 165121, "pitch": 60, "duration": 482, "velocity": 107}, {"time": 165121, "pitch": 72, "duration": 482, "velocity": 107}, {"time": 165121, "pitch": 75, "duration": 482, "velocity": 107}, {"time": 165121, "pitch": 78, "duration": 482, "velocity": 107}, {"time": 165603, "pitch": 61, "duration": 715, "velocity": 107}, {"time": 165603, "pitch": 71, "duration": 715, "velocity": 107}, {"time": 165603, "pitch": 76, "duration": 715, "velocity": 107}, {"time": 165603, "pitch": 80, "duration": 715, "velocity": 107}, {"time": 166318, "pitch": 61, "duration": 241, "velocity": 107}, {"time": 166318, "pitch": 71, "duration": 241, "velocity": 107}, {"time": 166318, "pitch": 75, "duration": 241, "velocity": 107}, {"time": 166318, "pitch": 78, "duration": 241, "velocity": 107}, {"time": 166559, "pitch": 61, "duration": 722, "velocity": 107}, {"time": 166559, "pitch": 71, "duration": 722, "velocity": 107}, {"time": 166559, "pitch": 76, "duration": 722, "velocity": 107}, {"time": 166559, "pitch": 80, "duration": 722, "velocity": 107}, {"time": 167281, "pitch": 54, "duration": 1197, "velocity": 107}, {"time": 167281, "pitch": 69, "duration": 1197, "velocity": 107}, {"time": 167281, "pitch": 73, "duration": 1197, "velocity": 107}, {"time": 167281, "pitch": 76, "duration": 1197, "velocity": 107}, {"time": 168478, "pitch": 59, "duration": 963, "velocity": 107}, {"time": 168478, "pitch": 71, "duration": 963, "velocity": 107}, {"time": 168478, "pitch": 75, "duration": 963, "velocity": 107}, {"time": 168478, "pitch": 78, "duration": 963, "velocity": 107}, {"time": 169441, "pitch": 64, "duration": 1679, "velocity": 107}, {"time": 169441, "pitch": 71, "duration": 1679, "velocity": 107}, {"time": 169441, "pitch": 76, "duration": 1679, "velocity": 107}, {"time": 169441, "pitch": 80, "duration": 1679, "velocity": 107}, {"time": 171120, "pitch": 59, "duration": 1919, "velocity": 107}, {"time": 171120, "pitch": 71, "duration": 1919, "velocity": 107}, {"time": 171120, "pitch": 75, "duration": 1919, "velocity": 107}, {"time": 171120, "pitch": 78, "duration": 1919, "velocity": 107}, {"time": 173039, "pitch": 57, "duration": 1919, "velocity": 107}, {"time": 173039, "pitch": 69, "duration": 1919, "velocity": 107}, {"time": 173039, "pitch": 71, "duration": 1919, "velocity": 107}, {"time": 173039, "pitch": 73, "duration": 1919, "velocity": 107}, {"time": 173039, "pitch": 76, "duration": 1919, "velocity": 107}, {"time": 174958, "pitch": 54, "duration": 1204, "velocity": 107}, {"time": 174958, "pitch": 69, "duration": 1204, "velocity": 106}, {"time": 174958, "pitch": 73, "duration": 1204, "velocity": 107}, {"time": 174958, "pitch": 76, "duration": 1204, "velocity": 107}, {"time": 176162, "pitch": 59, "duration": 956, "velocity": 107}, {"time": 176162, "pitch": 71, "duration": 956, "velocity": 107}, {"time": 176162, "pitch": 75, "duration": 956, "velocity": 107}, {"time": 176162, "pitch": 78, "duration": 956, "velocity": 107}, {"time": 177118, "pitch": 56, "duration": 963, "velocity": 107}, {"time": 177118, "pitch": 71, "duration": 963, "velocity": 107}, {"time": 177118, "pitch": 75, "duration": 963, "velocity": 107}, {"time": 177118, "pitch": 78, "duration": 963, "velocity": 107}, {"time": 178081, "pitch": 71, "duration": 719, "velocity": 107}, {"time": 178081, "pitch": 75, "duration": 719, "velocity": 107}, {"time": 178081, "pitch": 78, "duration": 719, "velocity": 107}, {"time": 178800, "pitch": 57, "duration": 1201, "velocity": 107}, {"time": 178800, "pitch": 69, "duration": 1201, "velocity": 107}, {"time": 178800, "pitch": 73, "duration": 1201, "velocity": 107}, {"time": 178800, "pitch": 76, "duration": 1201, "velocity": 107}, {"time": 180001, "pitch": 59, "duration": 955, "velocity": 107}, {"time": 180001, "pitch": 71, "duration": 955, "velocity": 107}, {"time": 180001, "pitch": 75, "duration": 955, "velocity": 107}, {"time": 180001, "pitch": 78, "duration": 955, "velocity": 107}, {"time": 180956, "pitch": 54, "duration": 964, "velocity": 107}, {"time": 180956, "pitch": 69, "duration": 964, "velocity": 107}, {"time": 180956, "pitch": 73, "duration": 964, "velocity": 107}, {"time": 180956, "pitch": 76, "duration": 964, "velocity": 107}, {"time": 181920, "pitch": 59, "duration": 963, "velocity": 107}, {"time": 181920, "pitch": 71, "duration": 963, "velocity": 107}, {"time": 181920, "pitch": 75, "duration": 963, "velocity": 107}, {"time": 181920, "pitch": 78, "duration": 963, "velocity": 107}, {"time": 182883, "pitch": 52, "duration": 1841, "velocity": 107}, {"time": 182883, "pitch": 68, "duration": 1868, "velocity": 107}, {"time": 182883, "pitch": 71, "duration": 1879, "velocity": 107}, {"time": 182883, "pitch": 76, "duration": 1841, "velocity": 107}, {"time": 182883, "pitch": 83, "duration": 74, "velocity": 107}, {"time": 183002, "pitch": 88, "duration": 74, "velocity": 107}, {"time": 183120, "pitch": 90, "duration": 74, "velocity": 107}, {"time": 183239, "pitch": 83, "duration": 74, "velocity": 107}, {"time": 183357, "pitch": 95, "duration": 75, "velocity": 107}, {"time": 183477, "pitch": 83, "duration": 76, "velocity": 107}, {"time": 183598, "pitch": 88, "duration": 75, "velocity": 107}, {"time": 183718, "pitch": 90, "duration": 76, "velocity": 107}, {"time": 183839, "pitch": 83, "duration": 75, "velocity": 107}, {"time": 183959, "pitch": 88, "duration": 76, "velocity": 107}, {"time": 184080, "pitch": 90, "duration": 75, "velocity": 107}, {"time": 184200, "pitch": 83, "duration": 75, "velocity": 107}, {"time": 184321, "pitch": 95, "duration": 75, "velocity": 107}, {"time": 184441, "pitch": 83, "duration": 75, "velocity": 107}, {"time": 184561, "pitch": 88, "duration": 76, "velocity": 107}, {"time": 184682, "pitch": 90, "duration": 75, "velocity": 107}, {"time": 184772, "pitch": 54, "duration": 1630, "velocity": 127}, {"time": 184802, "pitch": 69, "duration": 1462, "velocity": 107}, {"time": 184802, "pitch": 73, "duration": 1489, "velocity": 107}, {"time": 184802, "pitch": 76, "duration": 1500, "velocity": 107}, {"time": 184802, "pitch": 83, "duration": 74, "velocity": 107}, {"time": 184921, "pitch": 88, "duration": 74, "velocity": 107}, {"time": 185039, "pitch": 90, "duration": 74, "velocity": 107}, {"time": 185158, "pitch": 83, "duration": 74, "velocity": 107}, {"time": 185276, "pitch": 95, "duration": 75, "velocity": 107}, {"time": 185397, "pitch": 83, "duration": 75, "velocity": 107}, {"time": 185517, "pitch": 88, "duration": 75, "velocity": 107}, {"time": 185637, "pitch": 90, "duration": 76, "velocity": 107}, {"time": 185758, "pitch": 83, "duration": 75, "velocity": 107}, {"time": 185878, "pitch": 88, "duration": 76, "velocity": 107}, {"time": 185999, "pitch": 90, "duration": 75, "velocity": 107}, {"time": 186119, "pitch": 83, "duration": 76, "velocity": 107}, {"time": 186240, "pitch": 95, "duration": 75, "velocity": 107}, {"time": 186481, "pitch": 59, "duration": 366, "velocity": 107}, {"time": 186481, "pitch": 71, "duration": 366, "velocity": 107}, {"time": 186481, "pitch": 76, "duration": 372, "velocity": 107}, {"time": 186481, "pitch": 80, "duration": 364, "velocity": 107}, {"time": 186962, "pitch": 59, "duration": 139, "velocity": 107}, {"time": 186962, "pitch": 71, "duration": 139, "velocity": 107}, {"time": 186962, "pitch": 75, "duration": 146, "velocity": 107}, {"time": 186962, "pitch": 78, "duration": 143, "velocity": 107}, {"time": 187203, "pitch": 59, "duration": 398, "velocity": 107}, {"time": 187203, "pitch": 71, "duration": 398, "velocity": 107}, {"time": 187203, "pitch": 75, "duration": 390, "velocity": 107}, {"time": 187203, "pitch": 78, "duration": 417, "velocity": 107}, {"time": 188641, "pitch": 83, "duration": 75, "velocity": 127}, {"time": 188761, "pitch": 88, "duration": 75, "velocity": 127}, {"time": 188881, "pitch": 90, "duration": 76, "velocity": 127}, {"time": 189002, "pitch": 83, "duration": 75, "velocity": 127}, {"time": 189122, "pitch": 95, "duration": 74, "velocity": 127}, {"time": 189241, "pitch": 83, "duration": 74, "velocity": 127}, {"time": 189359, "pitch": 88, "duration": 74, "velocity": 127}, {"time": 189478, "pitch": 90, "duration": 74, "velocity": 127}, {"time": 189596, "pitch": 83, "duration": 75, "velocity": 127}, {"time": 189717, "pitch": 88, "duration": 75, "velocity": 127}, {"time": 189837, "pitch": 90, "duration": 75, "velocity": 127}, {"time": 189957, "pitch": 83, "duration": 76, "velocity": 127}, {"time": 190078, "pitch": 95, "duration": 75, "velocity": 127}, {"time": 190198, "pitch": 83, "duration": 76, "velocity": 127}, {"time": 190319, "pitch": 88, "duration": 75, "velocity": 127}, {"time": 190439, "pitch": 90, "duration": 76, "velocity": 127}, {"time": 190560, "pitch": 83, "duration": 75, "velocity": 127}, {"time": 190680, "pitch": 88, "duration": 75, "velocity": 127}, {"time": 190801, "pitch": 90, "duration": 75, "velocity": 127}, {"time": 190921, "pitch": 83, "duration": 75, "velocity": 127}, {"time": 191041, "pitch": 95, "duration": 76, "velocity": 127}, {"time": 191162, "pitch": 83, "duration": 75, "velocity": 127}, {"time": 191282, "pitch": 88, "duration": 76, "velocity": 127}, {"time": 191403, "pitch": 90, "duration": 75, "velocity": 127}, {"time": 191523, "pitch": 83, "duration": 74, "velocity": 127}, {"time": 191642, "pitch": 88, "duration": 74, "velocity": 127}, {"time": 191760, "pitch": 90, "duration": 74, "velocity": 127}, {"time": 191879, "pitch": 83, "duration": 74, "velocity": 127}, {"time": 191997, "pitch": 95, "duration": 75, "velocity": 127}, {"time": 192118, "pitch": 83, "duration": 75, "velocity": 127}, {"time": 192238, "pitch": 88, "duration": 75, "velocity": 127}, {"time": 192358, "pitch": 90, "duration": 76, "velocity": 127}, {"time": 192479, "pitch": 83, "duration": 75, "velocity": 127}, {"time": 192599, "pitch": 88, "duration": 76, "velocity": 127}, {"time": 192720, "pitch": 90, "duration": 75, "velocity": 127}, {"time": 192840, "pitch": 83, "duration": 75, "velocity": 127}, {"time": 192961, "pitch": 95, "duration": 75, "velocity": 127}, {"time": 193081, "pitch": 83, "duration": 75, "velocity": 127}, {"time": 193201, "pitch": 88, "duration": 76, "velocity": 127}, {"time": 193322, "pitch": 90, "duration": 75, "velocity": 127}, {"time": 193442, "pitch": 83, "duration": 74, "velocity": 127}, {"time": 193561, "pitch": 88, "duration": 74, "velocity": 127}, {"time": 193679, "pitch": 90, "duration": 74, "velocity": 127}, {"time": 193798, "pitch": 83, "duration": 74, "velocity": 127}, {"time": 193916, "pitch": 95, "duration": 75, "velocity": 127}, {"time": 194037, "pitch": 83, "duration": 75, "velocity": 127}, {"time": 194157, "pitch": 88, "duration": 75, "velocity": 127}, {"time": 194278, "pitch": 90, "duration": 75, "velocity": 127}, {"time": 194398, "pitch": 83, "duration": 75, "velocity": 127}, {"time": 194518, "pitch": 88, "duration": 76, "velocity": 127}, {"time": 194639, "pitch": 90, "duration": 75, "velocity": 127}, {"time": 194759, "pitch": 83, "duration": 76, "velocity": 127}, {"time": 194880, "pitch": 95, "duration": 75, "velocity": 127}, {"time": 195000, "pitch": 83, "duration": 75, "velocity": 127}, {"time": 195121, "pitch": 88, "duration": 75, "velocity": 127}, {"time": 195241, "pitch": 90, "duration": 75, "velocity": 127}, {"time": 195361, "pitch": 83, "duration": 76, "velocity": 127}, {"time": 195482, "pitch": 88, "duration": 75, "velocity": 127}, {"time": 195602, "pitch": 90, "duration": 76, "velocity": 127}, {"time": 195723, "pitch": 83, "duration": 75, "velocity": 127}, {"time": 195843, "pitch": 95, "duration": 74, "velocity": 127}, {"time": 195962, "pitch": 83, "duration": 74, "velocity": 127}, {"time": 196080, "pitch": 88, "duration": 74, "velocity": 127}, {"time": 196199, "pitch": 90, "duration": 74, "velocity": 127}, {"time": 196317, "pitch": 83, "duration": 75, "velocity": 107}, {"time": 196438, "pitch": 88, "duration": 75, "velocity": 107}, {"time": 196558, "pitch": 90, "duration": 75, "velocity": 107}, {"time": 196678, "pitch": 83, "duration": 76, "velocity": 107}, {"time": 196799, "pitch": 95, "duration": 75, "velocity": 107}, {"time": 196919, "pitch": 83, "duration": 76, "velocity": 107}, {"time": 197040, "pitch": 88, "duration": 75, "velocity": 107}, {"time": 197160, "pitch": 90, "duration": 75, "velocity": 107}, {"time": 197281, "pitch": 83, "duration": 75, "velocity": 107}, {"time": 197401, "pitch": 88, "duration": 75, "velocity": 107}, {"time": 197521, "pitch": 90, "duration": 76, "velocity": 107}, {"time": 197642, "pitch": 83, "duration": 75, "velocity": 107}, {"time": 197762, "pitch": 95, "duration": 74, "velocity": 107}, {"time": 197881, "pitch": 83, "duration": 74, "velocity": 107}, {"time": 197999, "pitch": 88, "duration": 74, "velocity": 107}, {"time": 198118, "pitch": 90, "duration": 74, "velocity": 107}, {"time": 198236, "pitch": 83, "duration": 75, "velocity": 107}, {"time": 198357, "pitch": 88, "duration": 75, "velocity": 107}, {"time": 198477, "pitch": 90, "duration": 75, "velocity": 107}, {"time": 198598, "pitch": 83, "duration": 75, "velocity": 107}, {"time": 198718, "pitch": 95, "duration": 75, "velocity": 107}, {"time": 198838, "pitch": 83, "duration": 76, "velocity": 107}, {"time": 198959, "pitch": 88, "duration": 75, "velocity": 107}, {"time": 199079, "pitch": 90, "duration": 76, "velocity": 107}, {"time": 199200, "pitch": 83, "duration": 75, "velocity": 107}, {"time": 199320, "pitch": 88, "duration": 75, "velocity": 107}, {"time": 199441, "pitch": 90, "duration": 75, "velocity": 107}, {"time": 199561, "pitch": 83, "duration": 75, "velocity": 107}, {"time": 199681, "pitch": 95, "duration": 76, "velocity": 107}, {"time": 199802, "pitch": 83, "duration": 75, "velocity": 107}, {"time": 199922, "pitch": 88, "duration": 76, "velocity": 107}, {"time": 200043, "pitch": 90, "duration": 75, "velocity": 107}, {"time": 200163, "pitch": 83, "duration": 74, "velocity": 107}, {"time": 200282, "pitch": 88, "duration": 74, "velocity": 107}, {"time": 200400, "pitch": 90, "duration": 74, "velocity": 107}, {"time": 200519, "pitch": 83, "duration": 74, "velocity": 107}, {"time": 200637, "pitch": 95, "duration": 75, "velocity": 107}, {"time": 200758, "pitch": 83, "duration": 75, "velocity": 107}, {"time": 200878, "pitch": 88, "duration": 75, "velocity": 107}, {"time": 200998, "pitch": 90, "duration": 76, "velocity": 107}, {"time": 201119, "pitch": 83, "duration": 75, "velocity": 107}, {"time": 201239, "pitch": 88, "duration": 76, "velocity": 107}, {"time": 201360, "pitch": 90, "duration": 75, "velocity": 107}, {"time": 201480, "pitch": 83, "duration": 75, "velocity": 107}, {"time": 201601, "pitch": 95, "duration": 75, "velocity": 107}, {"time": 201721, "pitch": 83, "duration": 75, "velocity": 107}, {"time": 201841, "pitch": 59, "duration": 188, "velocity": 107}, {"time": 201841, "pitch": 81, "duration": 189, "velocity": 107}, {"time": 201841, "pitch": 85, "duration": 210, "velocity": 107}, {"time": 201841, "pitch": 88, "duration": 193, "velocity": 107}, {"time": 202082, "pitch": 59, "duration": 149, "velocity": 127}, {"time": 202082, "pitch": 81, "duration": 120, "velocity": 127}, {"time": 202082, "pitch": 85, "duration": 154, "velocity": 127}, {"time": 202082, "pitch": 88, "duration": 138, "velocity": 127}, {"time": 202319, "pitch": 59, "duration": 221, "velocity": 127}, {"time": 202319, "pitch": 81, "duration": 220, "velocity": 127}, {"time": 202319, "pitch": 85, "duration": 222, "velocity": 127}, {"time": 202319, "pitch": 88, "duration": 213, "velocity": 127}, {"time": 203258, "pitch": 47, "duration": 34, "velocity": 62}, {"time": 203269, "pitch": 49, "duration": 41, "velocity": 63}, {"time": 203278, "pitch": 51, "duration": 47, "velocity": 64}, {"time": 203300, "pitch": 52, "duration": 35, "velocity": 68}, {"time": 203314, "pitch": 54, "duration": 37, "velocity": 70}, {"time": 203323, "pitch": 56, "duration": 43, "velocity": 72}, {"time": 203339, "pitch": 57, "duration": 40, "velocity": 75}, {"time": 203357, "pitch": 59, "duration": 32, "velocity": 79}, {"time": 203369, "pitch": 61, "duration": 34, "velocity": 82}, {"time": 203382, "pitch": 63, "duration": 36, "velocity": 85}, {"time": 203391, "pitch": 64, "duration": 35, "velocity": 87}, {"time": 203402, "pitch": 66, "duration": 39, "velocity": 90}, {"time": 203414, "pitch": 68, "duration": 41, "velocity": 94}, {"time": 203433, "pitch": 69, "duration": 39, "velocity": 99}, {"time": 203446, "pitch": 71, "duration": 34, "velocity": 103}, {"time": 203456, "pitch": 73, "duration": 39, "velocity": 107}, {"time": 203470, "pitch": 75, "duration": 32, "velocity": 111}, {"time": 203482, "pitch": 76, "duration": 34, "velocity": 116}, {"time": 203492, "pitch": 78, "duration": 36, "velocity": 119}, {"time": 203505, "pitch": 80, "duration": 34, "velocity": 124}, {"time": 203513, "pitch": 81, "duration": 34, "velocity": 127}, {"time": 203525, "pitch": 83, "duration": 35, "velocity": 127}, {"time": 203534, "pitch": 85, "duration": 44, "velocity": 127}, {"time": 203543, "pitch": 87, "duration": 45, "velocity": 127}, {"time": 203554, "pitch": 88, "duration": 49, "velocity": 127}, {"time": 203564, "pitch": 90, "duration": 101, "velocity": 127}, {"time": 203572, "pitch": 92, "duration": 84, "velocity": 127}, {"time": 203586, "pitch": 93, "duration": 57, "velocity": 127}, {"time": 203601, "pitch": 95, "duration": 28, "velocity": 127}, {"time": 203647, "pitch": 88, "duration": 30, "velocity": 60}, {"time": 203672, "pitch": 87, "duration": 28, "velocity": 127}, {"time": 203683, "pitch": 85, "duration": 28, "velocity": 109}, {"time": 203689, "pitch": 83, "duration": 29, "velocity": 109}, {"time": 203694, "pitch": 81, "duration": 30, "velocity": 109}, {"time": 203714, "pitch": 80, "duration": 26, "velocity": 108}, {"time": 203720, "pitch": 78, "duration": 28, "velocity": 108}, {"time": 203732, "pitch": 76, "duration": 29, "velocity": 106}, {"time": 203747, "pitch": 75, "duration": 28, "velocity": 105}, {"time": 203756, "pitch": 73, "duration": 29, "velocity": 103}, {"time": 203767, "pitch": 71, "duration": 29, "velocity": 102}, {"time": 203778, "pitch": 69, "duration": 28, "velocity": 100}, {"time": 203788, "pitch": 68, "duration": 25, "velocity": 98}, {"time": 203792, "pitch": 66, "duration": 29, "velocity": 97}, {"time": 203804, "pitch": 64, "duration": 28, "velocity": 94}, {"time": 203823, "pitch": 63, "duration": 28, "velocity": 89}, {"time": 203835, "pitch": 61, "duration": 28, "velocity": 86}, {"time": 203846, "pitch": 59, "duration": 29, "velocity": 82}, {"time": 203855, "pitch": 57, "duration": 29, "velocity": 79}, {"time": 203870, "pitch": 56, "duration": 28, "velocity": 74}, {"time": 203884, "pitch": 54, "duration": 29, "velocity": 69}, {"time": 203901, "pitch": 52, "duration": 28, "velocity": 62}, {"time": 203925, "pitch": 51, "duration": 28, "velocity": 51}, {"time": 203949, "pitch": 49, "duration": 28, "velocity": 39}, {"time": 203970, "pitch": 47, "duration": 28, "velocity": 28}, {"time": 204001, "pitch": 71, "duration": 1877, "velocity": 127}, {"time": 204001, "pitch": 76, "duration": 1904, "velocity": 127}, {"time": 204001, "pitch": 80, "duration": 1901, "velocity": 127}], "annotations": [{"time": 271, "annotation": {"number": 7, "value": 70}, "group": "control_change"}, {"time": 292, "annotation": {"number": 11, "value": 120}, "group": "control_change"}, {"time": 313, "annotation": {"number": 10, "value": 24}, "group": "control_change"}, {"time": 334, "annotation": {"number": 91, "value": 30}, "group": "control_change"}, {"time": 354, "annotation": {"number": 93, "value": 0}, "group": "control_change"}, {"time": 375, "annotation": {"number": 94, "value": 0}, "group": "control_change"}, {"time": 396, "annotation": {"number": 101, "value": 0}, "group": "control_change"}, {"time": 417, "annotation": {"number": 100, "value": 0}, "group": "control_change"}, {"time": 438, "annotation": {"number": 6, "value": 12}, "group": "control_change"}, {"time": 459, "annotation": {"number": 101, "value": 127}, "group": "control_change"}, {"time": 479, "annotation": {"number": 100, "value": 127}, "group": "control_change"}]}, {"program": 0, "is_drum": false, "name": "PICKSCRAPE", "annotations": [{"time": 208, "annotation": {"number": 0, "value": 6}, "group": "control_change"}, {"time": 229, "annotation": {"number": 32, "value": 2}, "group": "control_change"}]}, {"program": 120, "is_drum": false, "name": "PICKSCRAPE", "notes": [{"time": 15358, "pitch": 53, "duration": 452, "velocity": 126}, {"time": 40323, "pitch": 57, "duration": 444, "velocity": 126}, {"time": 80640, "pitch": 53, "duration": 452, "velocity": 126}, {"time": 105597, "pitch": 57, "duration": 451, "velocity": 126}, {"time": 153599, "pitch": 57, "duration": 451, "velocity": 126}, {"time": 203520, "pitch": 53, "duration": 451, "velocity": 126}], "annotations": [{"time": 271, "annotation": {"number": 7, "value": 87}, "group": "control_change"}, {"time": 292, "annotation": {"number": 11, "value": 120}, "group": "control_change"}, {"time": 313, "annotation": {"number": 10, "value": 104}, "group": "control_change"}, {"time": 334, "annotation": {"number": 91, "value": 50}, "group": "control_change"}, {"time": 354, "annotation": {"number": 93, "value": 50}, "group": "control_change"}, {"time": 375, "annotation": {"number": 94, "value": 0}, "group": "control_change"}, {"time": 396, "annotation": {"number": 101, "value": 0}, "group": "control_change"}, {"time": 417, "annotation": {"number": 100, "value": 0}, "group": "control_change"}, {"time": 438, "annotation": {"number": 6, "value": 12}, "group": "control_change"}, {"time": 459, "annotation": {"number": 101, "value": 127}, "group": "control_change"}, {"time": 479, "annotation": {"number": 100, "value": 127}, "group": "control_change"}]}, {"program": 0, "is_drum": false, "name": "ATOMOS 1", "annotations": [{"time": 208, "annotation": {"number": 0, "value": 0}, "group": "control_change"}, {"time": 229, "annotation": {"number": 32, "value": 2}, "group": "control_change"}]}, {"program": 99, "is_drum": false, "name": "ATOMOS 1", "notes": [{"time": 13680, "pitch": 81, "duration": 189, "velocity": 100}, {"time": 13680, "pitch": 85, "duration": 210, "velocity": 100}, {"time": 13680, "pitch": 88, "duration": 193, "velocity": 100}, {"time": 13921, "pitch": 81, "duration": 189, "velocity": 100}, {"time": 13921, "pitch": 85, "duration": 210, "velocity": 100}, {"time": 13921, "pitch": 88, "duration": 193, "velocity": 100}, {"time": 14162, "pitch": 81, "duration": 188, "velocity": 100}, {"time": 14162, "pitch": 85, "duration": 210, "velocity": 100}, {"time": 14162, "pitch": 88, "duration": 192, "velocity": 100}, {"time": 69599, "pitch": 83, "duration": 58, "velocity": 107}, {"time": 69720, "pitch": 88, "duration": 28, "velocity": 107}, {"time": 69840, "pitch": 90, "duration": 37, "velocity": 107}, {"time": 69961, "pitch": 83, "duration": 37, "velocity": 107}, {"time": 70081, "pitch": 95, "duration": 46, "velocity": 107}, {"time": 70202, "pitch": 83, "duration": 44, "velocity": 107}, {"time": 70322, "pitch": 88, "duration": 29, "velocity": 107}, {"time": 70442, "pitch": 90, "duration": 35, "velocity": 107}, {"time": 70563, "pitch": 83, "duration": 62, "velocity": 107}, {"time": 70681, "pitch": 88, "duration": 36, "velocity": 107}, {"time": 70800, "pitch": 90, "duration": 25, "velocity": 107}, {"time": 70918, "pitch": 83, "duration": 42, "velocity": 107}, {"time": 71037, "pitch": 95, "duration": 58, "velocity": 107}, {"time": 71157, "pitch": 83, "duration": 40, "velocity": 107}, {"time": 71278, "pitch": 88, "duration": 35, "velocity": 107}, {"time": 71398, "pitch": 90, "duration": 32, "velocity": 107}, {"time": 71518, "pitch": 83, "duration": 58, "velocity": 107}, {"time": 71639, "pitch": 88, "duration": 28, "velocity": 107}, {"time": 71759, "pitch": 90, "duration": 37, "velocity": 107}, {"time": 71880, "pitch": 83, "duration": 37, "velocity": 107}, {"time": 72000, "pitch": 95, "duration": 46, "velocity": 107}, {"time": 72121, "pitch": 83, "duration": 44, "velocity": 107}, {"time": 72241, "pitch": 88, "duration": 29, "velocity": 107}, {"time": 72362, "pitch": 90, "duration": 34, "velocity": 107}, {"time": 72482, "pitch": 83, "duration": 63, "velocity": 107}, {"time": 72602, "pitch": 88, "duration": 37, "velocity": 107}, {"time": 72723, "pitch": 90, "duration": 26, "velocity": 107}, {"time": 72843, "pitch": 83, "duration": 42, "velocity": 107}, {"time": 72964, "pitch": 95, "duration": 57, "velocity": 107}, {"time": 73082, "pitch": 83, "duration": 40, "velocity": 107}, {"time": 73201, "pitch": 88, "duration": 34, "velocity": 107}, {"time": 73319, "pitch": 90, "duration": 32, "velocity": 107}, {"time": 73438, "pitch": 83, "duration": 57, "velocity": 107}, {"time": 73558, "pitch": 88, "duration": 28, "velocity": 107}, {"time": 73678, "pitch": 90, "duration": 38, "velocity": 107}, {"time": 73799, "pitch": 83, "duration": 37, "velocity": 107}, {"time": 73919, "pitch": 95, "duration": 47, "velocity": 107}, {"time": 74040, "pitch": 83, "duration": 44, "velocity": 107}, {"time": 74160, "pitch": 88, "duration": 29, "velocity": 107}, {"time": 74281, "pitch": 90, "duration": 34, "velocity": 107}, {"time": 74401, "pitch": 83, "duration": 63, "velocity": 107}, {"time": 74522, "pitch": 88, "duration": 36, "velocity": 107}, {"time": 74642, "pitch": 90, "duration": 26, "velocity": 107}, {"time": 74762, "pitch": 83, "duration": 43, "velocity": 107}, {"time": 74883, "pitch": 95, "duration": 57, "velocity": 107}, {"time": 75001, "pitch": 83, "duration": 40, "velocity": 107}, {"time": 75120, "pitch": 88, "duration": 34, "velocity": 107}, {"time": 75238, "pitch": 90, "duration": 32, "velocity": 107}, {"time": 75357, "pitch": 83, "duration": 57, "velocity": 107}, {"time": 75477, "pitch": 88, "duration": 28, "velocity": 107}, {"time": 75598, "pitch": 90, "duration": 37, "velocity": 107}, {"time": 75718, "pitch": 83, "duration": 37, "velocity": 107}, {"time": 75838, "pitch": 95, "duration": 47, "velocity": 107}, {"time": 75959, "pitch": 83, "duration": 44, "velocity": 107}, {"time": 76079, "pitch": 88, "duration": 29, "velocity": 107}, {"time": 76200, "pitch": 90, "duration": 34, "velocity": 107}, {"time": 76320, "pitch": 83, "duration": 63, "velocity": 107}, {"time": 76441, "pitch": 88, "duration": 36, "velocity": 107}, {"time": 76561, "pitch": 90, "duration": 26, "velocity": 107}, {"time": 76682, "pitch": 83, "duration": 42, "velocity": 107}, {"time": 76802, "pitch": 95, "duration": 58, "velocity": 107}, {"time": 76922, "pitch": 83, "duration": 41, "velocity": 107}, {"time": 77043, "pitch": 88, "duration": 35, "velocity": 107}, {"time": 77163, "pitch": 90, "duration": 32, "velocity": 107}, {"time": 78962, "pitch": 81, "duration": 189, "velocity": 100}, {"time": 78962, "pitch": 85, "duration": 210, "velocity": 100}, {"time": 78962, "pitch": 88, "duration": 193, "velocity": 100}, {"time": 79203, "pitch": 81, "duration": 185, "velocity": 100}, {"time": 79203, "pitch": 85, "duration": 206, "velocity": 100}, {"time": 79203, "pitch": 88, "duration": 189, "velocity": 100}, {"time": 79440, "pitch": 81, "duration": 185, "velocity": 100}, {"time": 79440, "pitch": 85, "duration": 206, "velocity": 100}, {"time": 79440, "pitch": 88, "duration": 189, "velocity": 100}, {"time": 150242, "pitch": 83, "duration": 74, "velocity": 117}, {"time": 150361, "pitch": 88, "duration": 74, "velocity": 117}, {"time": 150479, "pitch": 90, "duration": 74, "velocity": 117}, {"time": 150598, "pitch": 83, "duration": 74, "velocity": 117}, {"time": 150716, "pitch": 95, "duration": 75, "velocity": 117}, {"time": 150837, "pitch": 83, "duration": 75, "velocity": 117}, {"time": 150957, "pitch": 88, "duration": 75, "velocity": 117}, {"time": 151077, "pitch": 90, "duration": 76, "velocity": 117}, {"time": 151198, "pitch": 83, "duration": 75, "velocity": 117}, {"time": 151318, "pitch": 88, "duration": 76, "velocity": 117}, {"time": 151439, "pitch": 90, "duration": 75, "velocity": 117}, {"time": 151559, "pitch": 83, "duration": 75, "velocity": 117}, {"time": 151680, "pitch": 95, "duration": 75, "velocity": 117}, {"time": 151920, "pitch": 71, "duration": 241, "velocity": 107}, {"time": 151920, "pitch": 76, "duration": 241, "velocity": 107}, {"time": 151920, "pitch": 80, "duration": 241, "velocity": 107}, {"time": 152402, "pitch": 71, "duration": 139, "velocity": 107}, {"time": 152402, "pitch": 75, "duration": 146, "velocity": 107}, {"time": 152402, "pitch": 78, "duration": 143, "velocity": 107}, {"time": 152643, "pitch": 71, "duration": 398, "velocity": 107}, {"time": 152643, "pitch": 75, "duration": 390, "velocity": 107}, {"time": 152643, "pitch": 78, "duration": 417, "velocity": 107}, {"time": 152880, "pitch": 87, "duration": 97, "velocity": 117}, {"time": 152999, "pitch": 85, "duration": 85, "velocity": 117}, {"time": 153117, "pitch": 83, "duration": 94, "velocity": 117}, {"time": 153237, "pitch": 78, "duration": 73, "velocity": 117}, {"time": 153358, "pitch": 75, "duration": 68, "velocity": 117}, {"time": 153478, "pitch": 73, "duration": 73, "velocity": 117}, {"time": 153599, "pitch": 71, "duration": 42, "velocity": 117}, {"time": 153719, "pitch": 66, "duration": 65, "velocity": 117}, {"time": 153840, "pitch": 63, "duration": 84, "velocity": 117}, {"time": 182883, "pitch": 83, "duration": 74, "velocity": 97}, {"time": 183002, "pitch": 88, "duration": 74, "velocity": 97}, {"time": 183120, "pitch": 90, "duration": 74, "velocity": 97}, {"time": 183239, "pitch": 83, "duration": 74, "velocity": 97}, {"time": 183477, "pitch": 83, "duration": 76, "velocity": 97}, {"time": 183598, "pitch": 88, "duration": 75, "velocity": 97}, {"time": 183718, "pitch": 90, "duration": 76, "velocity": 97}, {"time": 183839, "pitch": 83, "duration": 75, "velocity": 97}, {"time": 183959, "pitch": 88, "duration": 76, "velocity": 97}, {"time": 184080, "pitch": 90, "duration": 75, "velocity": 97}, {"time": 184200, "pitch": 83, "duration": 75, "velocity": 97}, {"time": 184441, "pitch": 83, "duration": 75, "velocity": 97}, {"time": 184561, "pitch": 88, "duration": 76, "velocity": 97}, {"time": 184682, "pitch": 90, "duration": 75, "velocity": 97}, {"time": 184802, "pitch": 83, "duration": 74, "velocity": 97}, {"time": 184921, "pitch": 88, "duration": 74, "velocity": 97}, {"time": 185039, "pitch": 90, "duration": 74, "velocity": 97}, {"time": 185158, "pitch": 83, "duration": 74, "velocity": 97}, {"time": 185397, "pitch": 83, "duration": 75, "velocity": 97}, {"time": 185517, "pitch": 88, "duration": 75, "velocity": 97}, {"time": 185637, "pitch": 90, "duration": 76, "velocity": 97}, {"time": 185758, "pitch": 83, "duration": 75, "velocity": 97}, {"time": 185878, "pitch": 88, "duration": 76, "velocity": 97}, {"time": 185999, "pitch": 90, "duration": 75, "velocity": 97}, {"time": 186119, "pitch": 83, "duration": 76, "velocity": 97}, {"time": 201841, "pitch": 81, "duration": 189, "velocity": 100}, {"time": 201841, "pitch": 85, "duration": 210, "velocity": 100}, {"time": 201841, "pitch": 88, "duration": 193, "velocity": 100}, {"time": 202082, "pitch": 81, "duration": 186, "velocity": 100}, {"time": 202082, "pitch": 85, "duration": 207, "velocity": 100}, {"time": 202082, "pitch": 88, "duration": 190, "velocity": 100}, {"time": 202319, "pitch": 81, "duration": 186, "velocity": 100}, {"time": 202319, "pitch": 85, "duration": 207, "velocity": 100}, {"time": 202319, "pitch": 88, "duration": 190, "velocity": 100}], "annotations": [{"time": 271, "annotation": {"number": 7, "value": 100}, "group": "control_change"}, {"time": 292, "annotation": {"number": 11, "value": 120}, "group": "control_change"}, {"time": 313, "annotation": {"number": 10, "value": 24}, "group": "control_change"}, {"time": 334, "annotation": {"number": 91, "value": 50}, "group": "control_change"}, {"time": 354, "annotation": {"number": 93, "value": 0}, "group": "control_change"}, {"time": 375, "annotation": {"number": 94, "value": 0}, "group": "control_change"}, {"time": 396, "annotation": {"number": 101, "value": 0}, "group": "control_change"}, {"time": 417, "annotation": {"number": 100, "value": 0}, "group": "control_change"}, {"time": 438, "annotation": {"number": 6, "value": 12}, "group": "control_change"}, {"time": 459, "annotation": {"number": 101, "value": 127}, "group": "control_change"}, {"time": 479, "annotation": {"number": 100, "value": 127}, "group": "control_change"}]}, {"program": 0, "is_drum": false, "name": "ATOMOS 2", "annotations": [{"time": 208, "annotation": {"number": 0, "value": 0}, "group": "control_change"}, {"time": 229, "annotation": {"number": 32, "value": 2}, "group": "control_change"}]}, {"program": 99, "is_drum": false, "name": "ATOMOS 2", "notes": [{"time": 22561, "pitch": 88, "duration": 120, "velocity": 92}, {"time": 22561, "pitch": 100, "duration": 120, "velocity": 92}, {"time": 22922, "pitch": 87, "duration": 121, "velocity": 92}, {"time": 22922, "pitch": 99, "duration": 121, "velocity": 92}, {"time": 23280, "pitch": 95, "duration": 118, "velocity": 92}, {"time": 23280, "pitch": 107, "duration": 118, "velocity": 92}, {"time": 23517, "pitch": 92, "duration": 298, "velocity": 92}, {"time": 30238, "pitch": 88, "duration": 120, "velocity": 92}, {"time": 30238, "pitch": 100, "duration": 120, "velocity": 92}, {"time": 30599, "pitch": 87, "duration": 120, "velocity": 92}, {"time": 30599, "pitch": 99, "duration": 120, "velocity": 92}, {"time": 30960, "pitch": 95, "duration": 121, "velocity": 92}, {"time": 30960, "pitch": 107, "duration": 121, "velocity": 92}, {"time": 31201, "pitch": 92, "duration": 298, "velocity": 102}, {"time": 39600, "pitch": 87, "duration": 98, "velocity": 97}, {"time": 39721, "pitch": 85, "duration": 87, "velocity": 97}, {"time": 39841, "pitch": 83, "duration": 94, "velocity": 97}, {"time": 39961, "pitch": 78, "duration": 73, "velocity": 97}, {"time": 40082, "pitch": 75, "duration": 68, "velocity": 97}, {"time": 40202, "pitch": 73, "duration": 73, "velocity": 97}, {"time": 40323, "pitch": 71, "duration": 41, "velocity": 97}, {"time": 40441, "pitch": 66, "duration": 64, "velocity": 97}, {"time": 40560, "pitch": 63, "duration": 83, "velocity": 97}, {"time": 42001, "pitch": 76, "duration": 120, "velocity": 97}, {"time": 42001, "pitch": 88, "duration": 120, "velocity": 97}, {"time": 42242, "pitch": 75, "duration": 120, "velocity": 97}, {"time": 42242, "pitch": 87, "duration": 120, "velocity": 97}, {"time": 42489, "pitch": 88, "duration": 120, "velocity": 97}, {"time": 42492, "pitch": 76, "duration": 120, "velocity": 97}, {"time": 43920, "pitch": 76, "duration": 121, "velocity": 97}, {"time": 43920, "pitch": 88, "duration": 121, "velocity": 97}, {"time": 44161, "pitch": 75, "duration": 120, "velocity": 97}, {"time": 44161, "pitch": 87, "duration": 120, "velocity": 97}, {"time": 44408, "pitch": 88, "duration": 120, "velocity": 97}, {"time": 44411, "pitch": 76, "duration": 120, "velocity": 97}, {"time": 46803, "pitch": 76, "duration": 120, "velocity": 97}, {"time": 46803, "pitch": 88, "duration": 120, "velocity": 97}, {"time": 47044, "pitch": 75, "duration": 118, "velocity": 97}, {"time": 47044, "pitch": 87, "duration": 118, "velocity": 97}, {"time": 47286, "pitch": 88, "duration": 119, "velocity": 97}, {"time": 47289, "pitch": 76, "duration": 119, "velocity": 97}, {"time": 47518, "pitch": 76, "duration": 120, "velocity": 97}, {"time": 47518, "pitch": 88, "duration": 120, "velocity": 97}, {"time": 47638, "pitch": 75, "duration": 120, "velocity": 97}, {"time": 47638, "pitch": 87, "duration": 120, "velocity": 97}, {"time": 47758, "pitch": 71, "duration": 121, "velocity": 97}, {"time": 47758, "pitch": 83, "duration": 121, "velocity": 97}, {"time": 47879, "pitch": 73, "duration": 120, "velocity": 97}, {"time": 47879, "pitch": 85, "duration": 120, "velocity": 97}, {"time": 47999, "pitch": 68, "duration": 121, "velocity": 97}, {"time": 47999, "pitch": 80, "duration": 121, "velocity": 97}, {"time": 48120, "pitch": 66, "duration": 120, "velocity": 97}, {"time": 48120, "pitch": 78, "duration": 120, "velocity": 97}, {"time": 48240, "pitch": 64, "duration": 121, "velocity": 97}, {"time": 48240, "pitch": 76, "duration": 121, "velocity": 97}, {"time": 48361, "pitch": 63, "duration": 120, "velocity": 97}, {"time": 48361, "pitch": 75, "duration": 120, "velocity": 97}, {"time": 49437, "pitch": 75, "duration": 120, "velocity": 97}, {"time": 49437, "pitch": 87, "duration": 120, "velocity": 97}, {"time": 49798, "pitch": 78, "duration": 120, "velocity": 97}, {"time": 49798, "pitch": 90, "duration": 120, "velocity": 97}, {"time": 50159, "pitch": 83, "duration": 121, "velocity": 97}, {"time": 50159, "pitch": 95, "duration": 121, "velocity": 97}, {"time": 51482, "pitch": 76, "duration": 119, "velocity": 97}, {"time": 51482, "pitch": 88, "duration": 119, "velocity": 97}, {"time": 51601, "pitch": 75, "duration": 118, "velocity": 97}, {"time": 51601, "pitch": 87, "duration": 118, "velocity": 97}, {"time": 51838, "pitch": 71, "duration": 120, "velocity": 97}, {"time": 51838, "pitch": 83, "duration": 120, "velocity": 97}, {"time": 52078, "pitch": 73, "duration": 121, "velocity": 97}, {"time": 52078, "pitch": 85, "duration": 121, "velocity": 97}, {"time": 55202, "pitch": 76, "duration": 120, "velocity": 97}, {"time": 55202, "pitch": 88, "duration": 120, "velocity": 97}, {"time": 55322, "pitch": 75, "duration": 121, "velocity": 97}, {"time": 55322, "pitch": 87, "duration": 121, "velocity": 97}, {"time": 55443, "pitch": 71, "duration": 120, "velocity": 97}, {"time": 55443, "pitch": 83, "duration": 120, "velocity": 97}, {"time": 55563, "pitch": 73, "duration": 121, "velocity": 97}, {"time": 55563, "pitch": 85, "duration": 121, "velocity": 97}, {"time": 55684, "pitch": 68, "duration": 118, "velocity": 97}, {"time": 55684, "pitch": 80, "duration": 118, "velocity": 97}, {"time": 55802, "pitch": 66, "duration": 119, "velocity": 97}, {"time": 55802, "pitch": 78, "duration": 119, "velocity": 97}, {"time": 55921, "pitch": 64, "duration": 118, "velocity": 97}, {"time": 55921, "pitch": 76, "duration": 118, "velocity": 97}, {"time": 56039, "pitch": 63, "duration": 119, "velocity": 97}, {"time": 56039, "pitch": 75, "duration": 119, "velocity": 97}, {"time": 57362, "pitch": 76, "duration": 120, "velocity": 97}, {"time": 57362, "pitch": 88, "duration": 120, "velocity": 97}, {"time": 57603, "pitch": 75, "duration": 118, "velocity": 97}, {"time": 57603, "pitch": 87, "duration": 118, "velocity": 97}, {"time": 57846, "pitch": 88, "duration": 118, "velocity": 97}, {"time": 57849, "pitch": 76, "duration": 118, "velocity": 97}, {"time": 59281, "pitch": 76, "duration": 120, "velocity": 97}, {"time": 59281, "pitch": 88, "duration": 120, "velocity": 97}, {"time": 59522, "pitch": 75, "duration": 120, "velocity": 97}, {"time": 59522, "pitch": 87, "duration": 120, "velocity": 97}, {"time": 59769, "pitch": 88, "duration": 120, "velocity": 97}, {"time": 59772, "pitch": 76, "duration": 120, "velocity": 97}, {"time": 62160, "pitch": 76, "duration": 118, "velocity": 97}, {"time": 62160, "pitch": 88, "duration": 118, "velocity": 97}, {"time": 62397, "pitch": 75, "duration": 120, "velocity": 97}, {"time": 62397, "pitch": 87, "duration": 120, "velocity": 97}, {"time": 62644, "pitch": 88, "duration": 120, "velocity": 97}, {"time": 62647, "pitch": 76, "duration": 120, "velocity": 97}, {"time": 62878, "pitch": 76, "duration": 121, "velocity": 97}, {"time": 62878, "pitch": 88, "duration": 121, "velocity": 97}, {"time": 62999, "pitch": 75, "duration": 120, "velocity": 97}, {"time": 62999, "pitch": 87, "duration": 120, "velocity": 97}, {"time": 63119, "pitch": 71, "duration": 121, "velocity": 97}, {"time": 63119, "pitch": 83, "duration": 121, "velocity": 97}, {"time": 63240, "pitch": 73, "duration": 120, "velocity": 97}, {"time": 63240, "pitch": 85, "duration": 120, "velocity": 97}, {"time": 63360, "pitch": 68, "duration": 121, "velocity": 97}, {"time": 63360, "pitch": 80, "duration": 121, "velocity": 97}, {"time": 63481, "pitch": 66, "duration": 120, "velocity": 97}, {"time": 63481, "pitch": 78, "duration": 120, "velocity": 97}, {"time": 63601, "pitch": 64, "duration": 121, "velocity": 97}, {"time": 63601, "pitch": 76, "duration": 121, "velocity": 97}, {"time": 63722, "pitch": 63, "duration": 120, "velocity": 97}, {"time": 63722, "pitch": 75, "duration": 120, "velocity": 97}, {"time": 64798, "pitch": 75, "duration": 120, "velocity": 97}, {"time": 64798, "pitch": 87, "duration": 120, "velocity": 97}, {"time": 65159, "pitch": 78, "duration": 120, "velocity": 97}, {"time": 65159, "pitch": 90, "duration": 120, "velocity": 97}, {"time": 65520, "pitch": 83, "duration": 121, "velocity": 97}, {"time": 65520, "pitch": 95, "duration": 121, "velocity": 97}, {"time": 66837, "pitch": 76, "duration": 121, "velocity": 97}, {"time": 66837, "pitch": 88, "duration": 121, "velocity": 97}, {"time": 66958, "pitch": 75, "duration": 120, "velocity": 97}, {"time": 66958, "pitch": 87, "duration": 120, "velocity": 97}, {"time": 67198, "pitch": 71, "duration": 121, "velocity": 97}, {"time": 67198, "pitch": 83, "duration": 121, "velocity": 97}, {"time": 67439, "pitch": 68, "duration": 121, "velocity": 97}, {"time": 67439, "pitch": 80, "duration": 121, "velocity": 97}, {"time": 69726, "pitch": 83, "duration": 57, "velocity": 88}, {"time": 69846, "pitch": 88, "duration": 28, "velocity": 88}, {"time": 69967, "pitch": 90, "duration": 37, "velocity": 88}, {"time": 70087, "pitch": 83, "duration": 37, "velocity": 88}, {"time": 70208, "pitch": 95, "duration": 46, "velocity": 88}, {"time": 70328, "pitch": 83, "duration": 44, "velocity": 88}, {"time": 70448, "pitch": 88, "duration": 30, "velocity": 88}, {"time": 70569, "pitch": 90, "duration": 33, "velocity": 88}, {"time": 70687, "pitch": 83, "duration": 62, "velocity": 88}, {"time": 70806, "pitch": 88, "duration": 35, "velocity": 88}, {"time": 70924, "pitch": 90, "duration": 26, "velocity": 88}, {"time": 71043, "pitch": 83, "duration": 42, "velocity": 88}, {"time": 71163, "pitch": 95, "duration": 58, "velocity": 88}, {"time": 71284, "pitch": 83, "duration": 40, "velocity": 88}, {"time": 71404, "pitch": 88, "duration": 35, "velocity": 88}, {"time": 71524, "pitch": 90, "duration": 33, "velocity": 88}, {"time": 71645, "pitch": 83, "duration": 57, "velocity": 88}, {"time": 71765, "pitch": 88, "duration": 28, "velocity": 88}, {"time": 71886, "pitch": 90, "duration": 37, "velocity": 88}, {"time": 72006, "pitch": 83, "duration": 37, "velocity": 88}, {"time": 72127, "pitch": 95, "duration": 46, "velocity": 88}, {"time": 72247, "pitch": 83, "duration": 44, "velocity": 88}, {"time": 72368, "pitch": 88, "duration": 29, "velocity": 88}, {"time": 72488, "pitch": 90, "duration": 34, "velocity": 88}, {"time": 72608, "pitch": 83, "duration": 64, "velocity": 88}, {"time": 72729, "pitch": 88, "duration": 36, "velocity": 88}, {"time": 72849, "pitch": 90, "duration": 26, "velocity": 88}, {"time": 72970, "pitch": 83, "duration": 41, "velocity": 88}, {"time": 73088, "pitch": 95, "duration": 57, "velocity": 88}, {"time": 73207, "pitch": 83, "duration": 39, "velocity": 88}, {"time": 73325, "pitch": 88, "duration": 35, "velocity": 88}, {"time": 73444, "pitch": 90, "duration": 32, "velocity": 88}, {"time": 73564, "pitch": 83, "duration": 57, "velocity": 88}, {"time": 73684, "pitch": 88, "duration": 29, "velocity": 88}, {"time": 73805, "pitch": 90, "duration": 37, "velocity": 88}, {"time": 73925, "pitch": 83, "duration": 38, "velocity": 88}, {"time": 74046, "pitch": 95, "duration": 46, "velocity": 88}, {"time": 74166, "pitch": 83, "duration": 44, "velocity": 88}, {"time": 74287, "pitch": 88, "duration": 29, "velocity": 88}, {"time": 74407, "pitch": 90, "duration": 34, "velocity": 88}, {"time": 74528, "pitch": 83, "duration": 63, "velocity": 88}, {"time": 74648, "pitch": 88, "duration": 36, "velocity": 88}, {"time": 74768, "pitch": 90, "duration": 27, "velocity": 88}, {"time": 74889, "pitch": 83, "duration": 41, "velocity": 88}, {"time": 75007, "pitch": 95, "duration": 57, "velocity": 88}, {"time": 75126, "pitch": 83, "duration": 39, "velocity": 88}, {"time": 75244, "pitch": 88, "duration": 35, "velocity": 88}, {"time": 75363, "pitch": 90, "duration": 32, "velocity": 88}, {"time": 75483, "pitch": 83, "duration": 57, "velocity": 88}, {"time": 75604, "pitch": 88, "duration": 28, "velocity": 88}, {"time": 75724, "pitch": 90, "duration": 37, "velocity": 88}, {"time": 75844, "pitch": 83, "duration": 38, "velocity": 88}, {"time": 75965, "pitch": 95, "duration": 46, "velocity": 88}, {"time": 76085, "pitch": 83, "duration": 45, "velocity": 88}, {"time": 76206, "pitch": 88, "duration": 29, "velocity": 88}, {"time": 76326, "pitch": 90, "duration": 34, "velocity": 88}, {"time": 76447, "pitch": 83, "duration": 63, "velocity": 88}, {"time": 76567, "pitch": 88, "duration": 36, "velocity": 88}, {"time": 76688, "pitch": 90, "duration": 26, "velocity": 88}, {"time": 76808, "pitch": 83, "duration": 42, "velocity": 88}, {"time": 76928, "pitch": 95, "duration": 59, "velocity": 88}, {"time": 77049, "pitch": 83, "duration": 40, "velocity": 88}, {"time": 77169, "pitch": 88, "duration": 35, "velocity": 88}, {"time": 77290, "pitch": 90, "duration": 31, "velocity": 68}, {"time": 77521, "pitch": 92, "duration": 75, "velocity": 97}, {"time": 77758, "pitch": 90, "duration": 82, "velocity": 97}, {"time": 77998, "pitch": 88, "duration": 82, "velocity": 97}, {"time": 78239, "pitch": 87, "duration": 360, "velocity": 97}, {"time": 78721, "pitch": 88, "duration": 124, "velocity": 97}, {"time": 87843, "pitch": 88, "duration": 118, "velocity": 92}, {"time": 87843, "pitch": 100, "duration": 118, "velocity": 92}, {"time": 88198, "pitch": 87, "duration": 119, "velocity": 92}, {"time": 88198, "pitch": 99, "duration": 119, "velocity": 92}, {"time": 88558, "pitch": 95, "duration": 120, "velocity": 92}, {"time": 88558, "pitch": 107, "duration": 120, "velocity": 92}, {"time": 88799, "pitch": 92, "duration": 298, "velocity": 92}, {"time": 95519, "pitch": 88, "duration": 121, "velocity": 92}, {"time": 95519, "pitch": 100, "duration": 121, "velocity": 92}, {"time": 95881, "pitch": 87, "duration": 120, "velocity": 92}, {"time": 95881, "pitch": 99, "duration": 120, "velocity": 92}, {"time": 96242, "pitch": 95, "duration": 120, "velocity": 92}, {"time": 96242, "pitch": 107, "duration": 120, "velocity": 92}, {"time": 96483, "pitch": 92, "duration": 293, "velocity": 102}, {"time": 104882, "pitch": 87, "duration": 98, "velocity": 97}, {"time": 105002, "pitch": 85, "duration": 88, "velocity": 97}, {"time": 105123, "pitch": 83, "duration": 93, "velocity": 97}, {"time": 105241, "pitch": 78, "duration": 71, "velocity": 97}, {"time": 105360, "pitch": 75, "duration": 67, "velocity": 97}, {"time": 105478, "pitch": 73, "duration": 71, "velocity": 97}, {"time": 105597, "pitch": 71, "duration": 42, "velocity": 97}, {"time": 105717, "pitch": 66, "duration": 65, "velocity": 97}, {"time": 105838, "pitch": 63, "duration": 84, "velocity": 97}, {"time": 107283, "pitch": 76, "duration": 120, "velocity": 97}, {"time": 107283, "pitch": 88, "duration": 120, "velocity": 97}, {"time": 107524, "pitch": 75, "duration": 118, "velocity": 97}, {"time": 107524, "pitch": 87, "duration": 118, "velocity": 97}, {"time": 107767, "pitch": 88, "duration": 118, "velocity": 97}, {"time": 107770, "pitch": 76, "duration": 118, "velocity": 97}, {"time": 109202, "pitch": 76, "duration": 121, "velocity": 97}, {"time": 109202, "pitch": 88, "duration": 121, "velocity": 97}, {"time": 109443, "pitch": 75, "duration": 118, "velocity": 97}, {"time": 109443, "pitch": 87, "duration": 118, "velocity": 97}, {"time": 109686, "pitch": 88, "duration": 118, "velocity": 97}, {"time": 109689, "pitch": 76, "duration": 118, "velocity": 97}, {"time": 112081, "pitch": 76, "duration": 118, "velocity": 97}, {"time": 112081, "pitch": 88, "duration": 118, "velocity": 97}, {"time": 112318, "pitch": 75, "duration": 120, "velocity": 97}, {"time": 112318, "pitch": 87, "duration": 120, "velocity": 97}, {"time": 112565, "pitch": 88, "duration": 120, "velocity": 97}, {"time": 112568, "pitch": 76, "duration": 120, "velocity": 97}, {"time": 112799, "pitch": 76, "duration": 121, "velocity": 97}, {"time": 112799, "pitch": 88, "duration": 121, "velocity": 97}, {"time": 112920, "pitch": 75, "duration": 120, "velocity": 97}, {"time": 112920, "pitch": 87, "duration": 120, "velocity": 97}, {"time": 113040, "pitch": 71, "duration": 121, "velocity": 97}, {"time": 113040, "pitch": 83, "duration": 121, "velocity": 97}, {"time": 113161, "pitch": 73, "duration": 120, "velocity": 97}, {"time": 113161, "pitch": 85, "duration": 120, "velocity": 97}, {"time": 113281, "pitch": 68, "duration": 121, "velocity": 97}, {"time": 113281, "pitch": 80, "duration": 121, "velocity": 97}, {"time": 113402, "pitch": 66, "duration": 120, "velocity": 97}, {"time": 113402, "pitch": 78, "duration": 120, "velocity": 97}, {"time": 113522, "pitch": 64, "duration": 121, "velocity": 97}, {"time": 113522, "pitch": 76, "duration": 121, "velocity": 97}, {"time": 113643, "pitch": 63, "duration": 120, "velocity": 97}, {"time": 113643, "pitch": 75, "duration": 120, "velocity": 97}, {"time": 114719, "pitch": 75, "duration": 120, "velocity": 97}, {"time": 114719, "pitch": 87, "duration": 120, "velocity": 97}, {"time": 115080, "pitch": 78, "duration": 120, "velocity": 97}, {"time": 115080, "pitch": 90, "duration": 120, "velocity": 97}, {"time": 115441, "pitch": 83, "duration": 121, "velocity": 97}, {"time": 115441, "pitch": 95, "duration": 121, "velocity": 97}, {"time": 116758, "pitch": 76, "duration": 121, "velocity": 97}, {"time": 116758, "pitch": 88, "duration": 121, "velocity": 97}, {"time": 116879, "pitch": 75, "duration": 120, "velocity": 97}, {"time": 116879, "pitch": 87, "duration": 120, "velocity": 97}, {"time": 117119, "pitch": 71, "duration": 121, "velocity": 97}, {"time": 117119, "pitch": 83, "duration": 121, "velocity": 97}, {"time": 117360, "pitch": 73, "duration": 121, "velocity": 97}, {"time": 117360, "pitch": 85, "duration": 121, "velocity": 97}, {"time": 120484, "pitch": 76, "duration": 118, "velocity": 97}, {"time": 120484, "pitch": 88, "duration": 118, "velocity": 97}, {"time": 120602, "pitch": 75, "duration": 119, "velocity": 97}, {"time": 120602, "pitch": 87, "duration": 119, "velocity": 97}, {"time": 120721, "pitch": 71, "duration": 118, "velocity": 97}, {"time": 120721, "pitch": 83, "duration": 118, "velocity": 97}, {"time": 120839, "pitch": 73, "duration": 119, "velocity": 97}, {"time": 120839, "pitch": 85, "duration": 119, "velocity": 97}, {"time": 120958, "pitch": 68, "duration": 120, "velocity": 97}, {"time": 120958, "pitch": 80, "duration": 120, "velocity": 97}, {"time": 121078, "pitch": 66, "duration": 121, "velocity": 97}, {"time": 121078, "pitch": 78, "duration": 121, "velocity": 97}, {"time": 121199, "pitch": 64, "duration": 120, "velocity": 97}, {"time": 121199, "pitch": 76, "duration": 120, "velocity": 97}, {"time": 121319, "pitch": 63, "duration": 120, "velocity": 97}, {"time": 121319, "pitch": 75, "duration": 120, "velocity": 97}, {"time": 122640, "pitch": 76, "duration": 118, "velocity": 97}, {"time": 122640, "pitch": 88, "duration": 118, "velocity": 97}, {"time": 122877, "pitch": 75, "duration": 120, "velocity": 97}, {"time": 122877, "pitch": 87, "duration": 120, "velocity": 97}, {"time": 123124, "pitch": 88, "duration": 120, "velocity": 97}, {"time": 123127, "pitch": 76, "duration": 120, "velocity": 97}, {"time": 124563, "pitch": 76, "duration": 120, "velocity": 97}, {"time": 124563, "pitch": 88, "duration": 120, "velocity": 97}, {"time": 124804, "pitch": 75, "duration": 118, "velocity": 97}, {"time": 124804, "pitch": 87, "duration": 118, "velocity": 97}, {"time": 125047, "pitch": 88, "duration": 118, "velocity": 97}, {"time": 125050, "pitch": 76, "duration": 118, "velocity": 97}, {"time": 127438, "pitch": 76, "duration": 120, "velocity": 97}, {"time": 127438, "pitch": 88, "duration": 120, "velocity": 97}, {"time": 127679, "pitch": 75, "duration": 120, "velocity": 97}, {"time": 127679, "pitch": 87, "duration": 120, "velocity": 97}, {"time": 127926, "pitch": 88, "duration": 120, "velocity": 97}, {"time": 127929, "pitch": 76, "duration": 120, "velocity": 97}, {"time": 128160, "pitch": 76, "duration": 121, "velocity": 97}, {"time": 128160, "pitch": 88, "duration": 121, "velocity": 97}, {"time": 128281, "pitch": 75, "duration": 120, "velocity": 97}, {"time": 128281, "pitch": 87, "duration": 120, "velocity": 97}, {"time": 128401, "pitch": 71, "duration": 121, "velocity": 97}, {"time": 128401, "pitch": 83, "duration": 121, "velocity": 97}, {"time": 128522, "pitch": 73, "duration": 120, "velocity": 97}, {"time": 128522, "pitch": 85, "duration": 120, "velocity": 97}, {"time": 128642, "pitch": 68, "duration": 121, "velocity": 97}, {"time": 128642, "pitch": 80, "duration": 121, "velocity": 97}, {"time": 128763, "pitch": 66, "duration": 120, "velocity": 97}, {"time": 128763, "pitch": 78, "duration": 120, "velocity": 97}, {"time": 128883, "pitch": 64, "duration": 120, "velocity": 97}, {"time": 128883, "pitch": 76, "duration": 120, "velocity": 97}, {"time": 129003, "pitch": 63, "duration": 121, "velocity": 97}, {"time": 129003, "pitch": 75, "duration": 121, "velocity": 97}, {"time": 130080, "pitch": 75, "duration": 120, "velocity": 97}, {"time": 130080, "pitch": 87, "duration": 120, "velocity": 97}, {"time": 130441, "pitch": 78, "duration": 120, "velocity": 97}, {"time": 130441, "pitch": 90, "duration": 120, "velocity": 97}, {"time": 130802, "pitch": 83, "duration": 121, "velocity": 97}, {"time": 130802, "pitch": 95, "duration": 121, "velocity": 97}, {"time": 132119, "pitch": 76, "duration": 121, "velocity": 97}, {"time": 132119, "pitch": 88, "duration": 121, "velocity": 97}, {"time": 132240, "pitch": 75, "duration": 120, "velocity": 97}, {"time": 132240, "pitch": 87, "duration": 120, "velocity": 97}, {"time": 132480, "pitch": 71, "duration": 121, "velocity": 97}, {"time": 132480, "pitch": 83, "duration": 121, "velocity": 97}, {"time": 132721, "pitch": 68, "duration": 121, "velocity": 97}, {"time": 132721, "pitch": 80, "duration": 121, "velocity": 97}, {"time": 135363, "pitch": 73, "duration": 118, "velocity": 97}, {"time": 135481, "pitch": 75, "duration": 119, "velocity": 97}, {"time": 135600, "pitch": 76, "duration": 118, "velocity": 97}, {"time": 135718, "pitch": 75, "duration": 239, "velocity": 97}, {"time": 135957, "pitch": 71, "duration": 241, "velocity": 97}, {"time": 136198, "pitch": 71, "duration": 241, "velocity": 97}, {"time": 136439, "pitch": 75, "duration": 361, "velocity": 97}, {"time": 136800, "pitch": 75, "duration": 362, "velocity": 97}, {"time": 137162, "pitch": 76, "duration": 361, "velocity": 97}, {"time": 137523, "pitch": 73, "duration": 1678, "velocity": 97}, {"time": 139201, "pitch": 73, "duration": 121, "velocity": 97}, {"time": 139322, "pitch": 75, "duration": 120, "velocity": 97}, {"time": 139442, "pitch": 76, "duration": 121, "velocity": 97}, {"time": 139563, "pitch": 75, "duration": 238, "velocity": 97}, {"time": 139801, "pitch": 71, "duration": 237, "velocity": 97}, {"time": 140038, "pitch": 71, "duration": 239, "velocity": 97}, {"time": 140277, "pitch": 68, "duration": 362, "velocity": 97}, {"time": 140639, "pitch": 66, "duration": 361, "velocity": 97}, {"time": 141000, "pitch": 68, "duration": 1449, "velocity": 97}, {"time": 143040, "pitch": 73, "duration": 120, "velocity": 97}, {"time": 143160, "pitch": 75, "duration": 120, "velocity": 97}, {"time": 143280, "pitch": 76, "duration": 121, "velocity": 97}, {"time": 143401, "pitch": 75, "duration": 241, "velocity": 97}, {"time": 143642, "pitch": 71, "duration": 241, "velocity": 97}, {"time": 143883, "pitch": 71, "duration": 238, "velocity": 97}, {"time": 144121, "pitch": 75, "duration": 356, "velocity": 97}, {"time": 144477, "pitch": 75, "duration": 361, "velocity": 97}, {"time": 144838, "pitch": 76, "duration": 362, "velocity": 97}, {"time": 145200, "pitch": 73, "duration": 1678, "velocity": 97}, {"time": 146878, "pitch": 73, "duration": 120, "velocity": 97}, {"time": 146998, "pitch": 75, "duration": 121, "velocity": 97}, {"time": 147119, "pitch": 76, "duration": 120, "velocity": 97}, {"time": 147239, "pitch": 78, "duration": 241, "velocity": 97}, {"time": 147480, "pitch": 83, "duration": 241, "velocity": 97}, {"time": 147721, "pitch": 78, "duration": 241, "velocity": 97}, {"time": 147962, "pitch": 75, "duration": 241, "velocity": 97}, {"time": 148203, "pitch": 73, "duration": 1984, "velocity": 97}, {"time": 155277, "pitch": 76, "duration": 120, "velocity": 97}, {"time": 155277, "pitch": 88, "duration": 120, "velocity": 97}, {"time": 155518, "pitch": 75, "duration": 120, "velocity": 97}, {"time": 155518, "pitch": 87, "duration": 120, "velocity": 97}, {"time": 155765, "pitch": 88, "duration": 120, "velocity": 97}, {"time": 155768, "pitch": 76, "duration": 120, "velocity": 97}, {"time": 157200, "pitch": 76, "duration": 119, "velocity": 97}, {"time": 157200, "pitch": 88, "duration": 119, "velocity": 97}, {"time": 157437, "pitch": 75, "duration": 120, "velocity": 97}, {"time": 157437, "pitch": 87, "duration": 120, "velocity": 97}, {"time": 157684, "pitch": 88, "duration": 120, "velocity": 97}, {"time": 157687, "pitch": 76, "duration": 120, "velocity": 97}, {"time": 160079, "pitch": 76, "duration": 120, "velocity": 97}, {"time": 160079, "pitch": 88, "duration": 120, "velocity": 97}, {"time": 160320, "pitch": 75, "duration": 120, "velocity": 97}, {"time": 160320, "pitch": 87, "duration": 120, "velocity": 97}, {"time": 160566, "pitch": 88, "duration": 121, "velocity": 97}, {"time": 160570, "pitch": 76, "duration": 120, "velocity": 97}, {"time": 160801, "pitch": 76, "duration": 121, "velocity": 97}, {"time": 160801, "pitch": 88, "duration": 121, "velocity": 97}, {"time": 160922, "pitch": 75, "duration": 120, "velocity": 97}, {"time": 160922, "pitch": 87, "duration": 120, "velocity": 97}, {"time": 161042, "pitch": 71, "duration": 121, "velocity": 97}, {"time": 161042, "pitch": 83, "duration": 121, "velocity": 97}, {"time": 161163, "pitch": 73, "duration": 120, "velocity": 97}, {"time": 161163, "pitch": 85, "duration": 120, "velocity": 97}, {"time": 161283, "pitch": 68, "duration": 119, "velocity": 97}, {"time": 161283, "pitch": 80, "duration": 119, "velocity": 97}, {"time": 161402, "pitch": 66, "duration": 118, "velocity": 97}, {"time": 161402, "pitch": 78, "duration": 118, "velocity": 97}, {"time": 161520, "pitch": 64, "duration": 119, "velocity": 97}, {"time": 161520, "pitch": 76, "duration": 119, "velocity": 97}, {"time": 161639, "pitch": 63, "duration": 118, "velocity": 97}, {"time": 161639, "pitch": 75, "duration": 118, "velocity": 97}, {"time": 162720, "pitch": 75, "duration": 121, "velocity": 97}, {"time": 162720, "pitch": 87, "duration": 121, "velocity": 97}, {"time": 163082, "pitch": 78, "duration": 120, "velocity": 97}, {"time": 163082, "pitch": 90, "duration": 120, "velocity": 97}, {"time": 163439, "pitch": 83, "duration": 119, "velocity": 97}, {"time": 163439, "pitch": 95, "duration": 119, "velocity": 97}, {"time": 164760, "pitch": 76, "duration": 120, "velocity": 97}, {"time": 164760, "pitch": 88, "duration": 120, "velocity": 97}, {"time": 164880, "pitch": 75, "duration": 121, "velocity": 97}, {"time": 164880, "pitch": 87, "duration": 121, "velocity": 97}, {"time": 165121, "pitch": 71, "duration": 121, "velocity": 97}, {"time": 165121, "pitch": 83, "duration": 121, "velocity": 97}, {"time": 165362, "pitch": 73, "duration": 121, "velocity": 97}, {"time": 165362, "pitch": 85, "duration": 121, "velocity": 97}, {"time": 168478, "pitch": 76, "duration": 120, "velocity": 97}, {"time": 168478, "pitch": 88, "duration": 120, "velocity": 97}, {"time": 168598, "pitch": 75, "duration": 121, "velocity": 97}, {"time": 168598, "pitch": 87, "duration": 121, "velocity": 97}, {"time": 168719, "pitch": 71, "duration": 120, "velocity": 97}, {"time": 168719, "pitch": 83, "duration": 120, "velocity": 97}, {"time": 168839, "pitch": 73, "duration": 121, "velocity": 97}, {"time": 168839, "pitch": 85, "duration": 121, "velocity": 97}, {"time": 168960, "pitch": 68, "duration": 120, "velocity": 97}, {"time": 168960, "pitch": 80, "duration": 120, "velocity": 97}, {"time": 169080, "pitch": 66, "duration": 120, "velocity": 97}, {"time": 169080, "pitch": 78, "duration": 120, "velocity": 97}, {"time": 169200, "pitch": 64, "duration": 121, "velocity": 97}, {"time": 169200, "pitch": 76, "duration": 121, "velocity": 97}, {"time": 169321, "pitch": 63, "duration": 120, "velocity": 97}, {"time": 169321, "pitch": 75, "duration": 120, "velocity": 97}, {"time": 170638, "pitch": 76, "duration": 120, "velocity": 97}, {"time": 170638, "pitch": 88, "duration": 120, "velocity": 97}, {"time": 170879, "pitch": 75, "duration": 120, "velocity": 97}, {"time": 170879, "pitch": 87, "duration": 120, "velocity": 97}, {"time": 171126, "pitch": 88, "duration": 120, "velocity": 97}, {"time": 171129, "pitch": 76, "duration": 120, "velocity": 97}, {"time": 172557, "pitch": 76, "duration": 120, "velocity": 97}, {"time": 172557, "pitch": 88, "duration": 120, "velocity": 97}, {"time": 172798, "pitch": 75, "duration": 120, "velocity": 97}, {"time": 172798, "pitch": 87, "duration": 120, "velocity": 97}, {"time": 173045, "pitch": 88, "duration": 120, "velocity": 97}, {"time": 173048, "pitch": 76, "duration": 120, "velocity": 97}, {"time": 175440, "pitch": 76, "duration": 120, "velocity": 97}, {"time": 175440, "pitch": 88, "duration": 120, "velocity": 97}, {"time": 175681, "pitch": 75, "duration": 120, "velocity": 97}, {"time": 175681, "pitch": 87, "duration": 120, "velocity": 97}, {"time": 175927, "pitch": 88, "duration": 121, "velocity": 97}, {"time": 175930, "pitch": 76, "duration": 121, "velocity": 97}, {"time": 176162, "pitch": 76, "duration": 119, "velocity": 97}, {"time": 176162, "pitch": 88, "duration": 119, "velocity": 97}, {"time": 176281, "pitch": 75, "duration": 118, "velocity": 97}, {"time": 176281, "pitch": 87, "duration": 118, "velocity": 97}, {"time": 176399, "pitch": 71, "duration": 119, "velocity": 97}, {"time": 176399, "pitch": 83, "duration": 119, "velocity": 97}, {"time": 176518, "pitch": 73, "duration": 118, "velocity": 97}, {"time": 176518, "pitch": 85, "duration": 118, "velocity": 97}, {"time": 176636, "pitch": 68, "duration": 121, "velocity": 97}, {"time": 176636, "pitch": 80, "duration": 121, "velocity": 97}, {"time": 176757, "pitch": 66, "duration": 120, "velocity": 97}, {"time": 176757, "pitch": 78, "duration": 120, "velocity": 97}, {"time": 176877, "pitch": 64, "duration": 120, "velocity": 97}, {"time": 176877, "pitch": 76, "duration": 120, "velocity": 97}, {"time": 176997, "pitch": 63, "duration": 121, "velocity": 97}, {"time": 176997, "pitch": 75, "duration": 121, "velocity": 97}, {"time": 178081, "pitch": 75, "duration": 121, "velocity": 97}, {"time": 178081, "pitch": 87, "duration": 121, "velocity": 97}, {"time": 178443, "pitch": 78, "duration": 120, "velocity": 97}, {"time": 178443, "pitch": 90, "duration": 120, "velocity": 97}, {"time": 178800, "pitch": 83, "duration": 119, "velocity": 97}, {"time": 178800, "pitch": 95, "duration": 119, "velocity": 97}, {"time": 180121, "pitch": 76, "duration": 120, "velocity": 97}, {"time": 180121, "pitch": 88, "duration": 120, "velocity": 97}, {"time": 180241, "pitch": 75, "duration": 121, "velocity": 97}, {"time": 180241, "pitch": 87, "duration": 121, "velocity": 97}, {"time": 180482, "pitch": 71, "duration": 119, "velocity": 97}, {"time": 180482, "pitch": 83, "duration": 119, "velocity": 97}, {"time": 180719, "pitch": 68, "duration": 119, "velocity": 97}, {"time": 180719, "pitch": 80, "duration": 119, "velocity": 97}, {"time": 187440, "pitch": 87, "duration": 97, "velocity": 97}, {"time": 187559, "pitch": 85, "duration": 86, "velocity": 97}, {"time": 187677, "pitch": 83, "duration": 94, "velocity": 97}, {"time": 187797, "pitch": 78, "duration": 73, "velocity": 97}, {"time": 187918, "pitch": 75, "duration": 68, "velocity": 97}, {"time": 188038, "pitch": 73, "duration": 73, "velocity": 97}, {"time": 188159, "pitch": 71, "duration": 42, "velocity": 97}, {"time": 188279, "pitch": 66, "duration": 65, "velocity": 97}, {"time": 188400, "pitch": 63, "duration": 84, "velocity": 97}], "annotations": [{"time": 271, "annotation": {"number": 7, "value": 100}, "group": "control_change"}, {"time": 292, "annotation": {"number": 11, "value": 120}, "group": "control_change"}, {"time": 313, "annotation": {"number": 10, "value": 74}, "group": "control_change"}, {"time": 334, "annotation": {"number": 91, "value": 50}, "group": "control_change"}, {"time": 354, "annotation": {"number": 93, "value": 0}, "group": "control_change"}, {"time": 375, "annotation": {"number": 94, "value": 0}, "group": "control_change"}, {"time": 396, "annotation": {"number": 101, "value": 0}, "group": "control_change"}, {"time": 417, "annotation": {"number": 100, "value": 0}, "group": "control_change"}, {"time": 438, "annotation": {"number": 6, "value": 12}, "group": "control_change"}, {"time": 459, "annotation": {"number": 101, "value": 127}, "group": "control_change"}, {"time": 479, "annotation": {"number": 100, "value": 127}, "group": "control_change"}]}, {"program": 0, "is_drum": false, "name": "CHORUS", "annotations": [{"time": 208, "annotation": {"number": 0, "value": 0}, "group": "control_change"}, {"time": 229, "annotation": {"number": 32, "value": 2}, "group": "control_change"}]}, {"program": 52, "is_drum": false, "name": "CHORUS", "notes": [{"time": 7682, "pitch": 68, "duration": 400, "velocity": 115}, {"time": 7682, "pitch": 71, "duration": 364, "velocity": 115}, {"time": 7682, "pitch": 75, "duration": 379, "velocity": 115}, {"time": 7682, "pitch": 78, "duration": 379, "velocity": 115}, {"time": 8163, "pitch": 69, "duration": 1611, "velocity": 115}, {"time": 8163, "pitch": 73, "duration": 1608, "velocity": 115}, {"time": 8163, "pitch": 76, "duration": 1607, "velocity": 115}, {"time": 8163, "pitch": 80, "duration": 1600, "velocity": 115}, {"time": 9842, "pitch": 68, "duration": 1873, "velocity": 115}, {"time": 9842, "pitch": 71, "duration": 1850, "velocity": 115}, {"time": 9842, "pitch": 75, "duration": 1850, "velocity": 115}, {"time": 9842, "pitch": 78, "duration": 1848, "velocity": 115}, {"time": 11761, "pitch": 66, "duration": 1819, "velocity": 115}, {"time": 11761, "pitch": 69, "duration": 1800, "velocity": 115}, {"time": 11761, "pitch": 73, "duration": 1811, "velocity": 115}, {"time": 11761, "pitch": 76, "duration": 1812, "velocity": 115}, {"time": 13680, "pitch": 59, "duration": 165, "velocity": 115}, {"time": 13680, "pitch": 69, "duration": 161, "velocity": 115}, {"time": 13680, "pitch": 73, "duration": 183, "velocity": 115}, {"time": 13680, "pitch": 76, "duration": 173, "velocity": 115}, {"time": 13921, "pitch": 59, "duration": 131, "velocity": 115}, {"time": 13921, "pitch": 69, "duration": 124, "velocity": 115}, {"time": 13921, "pitch": 73, "duration": 161, "velocity": 115}, {"time": 13921, "pitch": 76, "duration": 142, "velocity": 115}, {"time": 14162, "pitch": 59, "duration": 210, "velocity": 115}, {"time": 14162, "pitch": 69, "duration": 173, "velocity": 115}, {"time": 14162, "pitch": 73, "duration": 189, "velocity": 115}, {"time": 14162, "pitch": 76, "duration": 189, "velocity": 115}, {"time": 134881, "pitch": 57, "duration": 939, "velocity": 127}, {"time": 134881, "pitch": 73, "duration": 909, "velocity": 127}, {"time": 134881, "pitch": 76, "duration": 908, "velocity": 127}, {"time": 134881, "pitch": 80, "duration": 947, "velocity": 127}, {"time": 135837, "pitch": 59, "duration": 965, "velocity": 127}, {"time": 135837, "pitch": 71, "duration": 937, "velocity": 127}, {"time": 135837, "pitch": 75, "duration": 942, "velocity": 127}, {"time": 135837, "pitch": 78, "duration": 945, "velocity": 127}, {"time": 136800, "pitch": 61, "duration": 1877, "velocity": 127}, {"time": 136800, "pitch": 71, "duration": 1851, "velocity": 127}, {"time": 136800, "pitch": 76, "duration": 1870, "velocity": 127}, {"time": 136800, "pitch": 80, "duration": 1857, "velocity": 127}, {"time": 138720, "pitch": 57, "duration": 942, "velocity": 127}, {"time": 138720, "pitch": 73, "duration": 918, "velocity": 127}, {"time": 138720, "pitch": 76, "duration": 925, "velocity": 127}, {"time": 138720, "pitch": 80, "duration": 914, "velocity": 127}, {"time": 139683, "pitch": 59, "duration": 958, "velocity": 127}, {"time": 139683, "pitch": 71, "duration": 909, "velocity": 127}, {"time": 139683, "pitch": 75, "duration": 908, "velocity": 127}, {"time": 139683, "pitch": 78, "duration": 908, "velocity": 127}, {"time": 140639, "pitch": 64, "duration": 1895, "velocity": 127}, {"time": 140639, "pitch": 71, "duration": 1861, "velocity": 127}, {"time": 140639, "pitch": 76, "duration": 1871, "velocity": 127}, {"time": 140639, "pitch": 80, "duration": 1864, "velocity": 127}, {"time": 142558, "pitch": 57, "duration": 958, "velocity": 127}, {"time": 142558, "pitch": 73, "duration": 928, "velocity": 127}, {"time": 142558, "pitch": 76, "duration": 935, "velocity": 127}, {"time": 142558, "pitch": 80, "duration": 929, "velocity": 127}, {"time": 143521, "pitch": 59, "duration": 899, "velocity": 127}, {"time": 143521, "pitch": 71, "duration": 859, "velocity": 127}, {"time": 143521, "pitch": 75, "duration": 860, "velocity": 127}, {"time": 143521, "pitch": 78, "duration": 867, "velocity": 127}, {"time": 144477, "pitch": 61, "duration": 1918, "velocity": 127}, {"time": 144477, "pitch": 71, "duration": 1875, "velocity": 127}, {"time": 144477, "pitch": 76, "duration": 1868, "velocity": 127}, {"time": 144477, "pitch": 80, "duration": 1853, "velocity": 127}, {"time": 146404, "pitch": 57, "duration": 916, "velocity": 127}, {"time": 146404, "pitch": 69, "duration": 900, "velocity": 127}, {"time": 146404, "pitch": 73, "duration": 872, "velocity": 127}, {"time": 146404, "pitch": 76, "duration": 899, "velocity": 127}, {"time": 147360, "pitch": 59, "duration": 951, "velocity": 127}, {"time": 147360, "pitch": 71, "duration": 941, "velocity": 127}, {"time": 147360, "pitch": 75, "duration": 935, "velocity": 127}, {"time": 147360, "pitch": 78, "duration": 936, "velocity": 127}, {"time": 148323, "pitch": 61, "duration": 1914, "velocity": 127}, {"time": 148323, "pitch": 71, "duration": 1894, "velocity": 127}, {"time": 148323, "pitch": 76, "duration": 1903, "velocity": 127}, {"time": 148323, "pitch": 80, "duration": 1896, "velocity": 127}, {"time": 188279, "pitch": 78, "duration": 65, "velocity": 127}, {"time": 188400, "pitch": 75, "duration": 84, "velocity": 127}, {"time": 188641, "pitch": 69, "duration": 1639, "velocity": 115}, {"time": 188641, "pitch": 73, "duration": 1626, "velocity": 115}, {"time": 188641, "pitch": 76, "duration": 1621, "velocity": 115}, {"time": 188641, "pitch": 80, "duration": 1618, "velocity": 115}, {"time": 190319, "pitch": 68, "duration": 1856, "velocity": 115}, {"time": 190319, "pitch": 71, "duration": 1838, "velocity": 115}, {"time": 190319, "pitch": 75, "duration": 1837, "velocity": 115}, {"time": 190319, "pitch": 78, "duration": 1839, "velocity": 115}, {"time": 192238, "pitch": 66, "duration": 3560, "velocity": 115}, {"time": 192238, "pitch": 69, "duration": 3518, "velocity": 115}, {"time": 192238, "pitch": 73, "duration": 3537, "velocity": 115}, {"time": 192238, "pitch": 76, "duration": 3532, "velocity": 115}, {"time": 195843, "pitch": 68, "duration": 394, "velocity": 115}, {"time": 195843, "pitch": 71, "duration": 359, "velocity": 115}, {"time": 195843, "pitch": 75, "duration": 373, "velocity": 115}, {"time": 195843, "pitch": 78, "duration": 373, "velocity": 115}, {"time": 196317, "pitch": 69, "duration": 1615, "velocity": 115}, {"time": 196317, "pitch": 73, "duration": 1612, "velocity": 115}, {"time": 196317, "pitch": 76, "duration": 1611, "velocity": 115}, {"time": 196317, "pitch": 80, "duration": 1605, "velocity": 115}, {"time": 197999, "pitch": 68, "duration": 1877, "velocity": 115}, {"time": 197999, "pitch": 71, "duration": 1854, "velocity": 115}, {"time": 197999, "pitch": 75, "duration": 1854, "velocity": 115}, {"time": 197999, "pitch": 78, "duration": 1852, "velocity": 115}, {"time": 199922, "pitch": 66, "duration": 1819, "velocity": 115}, {"time": 199922, "pitch": 69, "duration": 1800, "velocity": 115}, {"time": 199922, "pitch": 73, "duration": 1811, "velocity": 115}, {"time": 199922, "pitch": 76, "duration": 1812, "velocity": 115}, {"time": 201841, "pitch": 59, "duration": 165, "velocity": 115}, {"time": 201841, "pitch": 69, "duration": 161, "velocity": 115}, {"time": 201841, "pitch": 73, "duration": 183, "velocity": 115}, {"time": 201841, "pitch": 76, "duration": 173, "velocity": 115}, {"time": 202082, "pitch": 59, "duration": 130, "velocity": 115}, {"time": 202082, "pitch": 69, "duration": 123, "velocity": 115}, {"time": 202082, "pitch": 73, "duration": 158, "velocity": 115}, {"time": 202082, "pitch": 76, "duration": 141, "velocity": 115}, {"time": 202319, "pitch": 59, "duration": 207, "velocity": 115}, {"time": 202319, "pitch": 69, "duration": 171, "velocity": 115}, {"time": 202319, "pitch": 73, "duration": 187, "velocity": 115}, {"time": 202319, "pitch": 76, "duration": 187, "velocity": 115}, {"time": 204001, "pitch": 71, "duration": 1795, "velocity": 115}, {"time": 204001, "pitch": 76, "duration": 1809, "velocity": 115}, {"time": 204001, "pitch": 80, "duration": 1819, "velocity": 115}], "annotations": [{"time": 271, "annotation": {"number": 7, "value": 72}, "group": "control_change"}, {"time": 292, "annotation": {"number": 11, "value": 120}, "group": "control_change"}, {"time": 313, "annotation": {"number": 10, "value": 14}, "group": "control_change"}, {"time": 334, "annotation": {"number": 91, "value": 50}, "group": "control_change"}, {"time": 354, "annotation": {"number": 93, "value": 50}, "group": "control_change"}, {"time": 375, "annotation": {"number": 94, "value": 0}, "group": "control_change"}, {"time": 396, "annotation": {"number": 101, "value": 0}, "group": "control_change"}, {"time": 417, "annotation": {"number": 100, "value": 0}, "group": "control_change"}, {"time": 438, "annotation": {"number": 6, "value": 12}, "group": "control_change"}, {"time": 459, "annotation": {"number": 101, "value": 127}, "group": "control_change"}, {"time": 479, "annotation": {"number": 100, "value": 127}, "group": "control_change"}]}, {"program": 0, "is_drum": false, "name": "BRIGHTNESS", "annotations": [{"time": 208, "annotation": {"number": 0, "value": 0}, "group": "control_change"}, {"time": 229, "annotation": {"number": 32, "value": 2}, "group": "control_change"}]}, {"program": 100, "is_drum": false, "name": "BRIGHTNESS", "notes": [{"time": 4558, "pitch": 88, "duration": 73, "velocity": 102}, {"time": 4799, "pitch": 90, "duration": 71, "velocity": 102}, {"time": 5040, "pitch": 92, "duration": 68, "velocity": 102}, {"time": 6477, "pitch": 92, "duration": 76, "velocity": 102}, {"time": 6718, "pitch": 90, "duration": 91, "velocity": 102}, {"time": 6959, "pitch": 88, "duration": 74, "velocity": 102}, {"time": 7200, "pitch": 88, "duration": 82, "velocity": 102}, {"time": 7682, "pitch": 90, "duration": 81, "velocity": 102}, {"time": 10320, "pitch": 88, "duration": 68, "velocity": 102}, {"time": 10557, "pitch": 90, "duration": 75, "velocity": 102}, {"time": 10797, "pitch": 92, "duration": 68, "velocity": 102}, {"time": 12243, "pitch": 92, "duration": 76, "velocity": 102}, {"time": 12483, "pitch": 90, "duration": 81, "velocity": 102}, {"time": 12720, "pitch": 88, "duration": 80, "velocity": 102}, {"time": 12957, "pitch": 87, "duration": 360, "velocity": 102}, {"time": 13439, "pitch": 88, "duration": 124, "velocity": 102}, {"time": 39600, "pitch": 87, "duration": 98, "velocity": 102}, {"time": 39721, "pitch": 85, "duration": 87, "velocity": 102}, {"time": 39841, "pitch": 83, "duration": 94, "velocity": 102}, {"time": 39961, "pitch": 78, "duration": 73, "velocity": 102}, {"time": 40082, "pitch": 75, "duration": 68, "velocity": 102}, {"time": 40202, "pitch": 73, "duration": 73, "velocity": 102}, {"time": 40323, "pitch": 71, "duration": 41, "velocity": 102}, {"time": 40441, "pitch": 66, "duration": 64, "velocity": 102}, {"time": 40560, "pitch": 63, "duration": 83, "velocity": 102}, {"time": 69599, "pitch": 76, "duration": 380, "velocity": 76}, {"time": 69599, "pitch": 80, "duration": 368, "velocity": 87}, {"time": 70081, "pitch": 75, "duration": 268, "velocity": 87}, {"time": 70081, "pitch": 78, "duration": 250, "velocity": 84}, {"time": 70442, "pitch": 73, "duration": 133, "velocity": 48}, {"time": 70442, "pitch": 76, "duration": 107, "velocity": 62}, {"time": 70681, "pitch": 73, "duration": 126, "velocity": 27}, {"time": 70681, "pitch": 76, "duration": 106, "velocity": 74}, {"time": 70918, "pitch": 75, "duration": 34, "velocity": 87}, {"time": 70918, "pitch": 78, "duration": 26, "velocity": 46}, {"time": 71037, "pitch": 75, "duration": 378, "velocity": 87}, {"time": 71037, "pitch": 78, "duration": 380, "velocity": 69}, {"time": 71518, "pitch": 76, "duration": 397, "velocity": 77}, {"time": 71518, "pitch": 80, "duration": 384, "velocity": 87}, {"time": 72000, "pitch": 75, "duration": 276, "velocity": 83}, {"time": 72000, "pitch": 78, "duration": 252, "velocity": 70}, {"time": 72362, "pitch": 73, "duration": 117, "velocity": 46}, {"time": 72362, "pitch": 76, "duration": 57, "velocity": 73}, {"time": 72602, "pitch": 73, "duration": 112, "velocity": 47}, {"time": 72602, "pitch": 76, "duration": 115, "velocity": 77}, {"time": 72843, "pitch": 75, "duration": 28, "velocity": 78}, {"time": 72843, "pitch": 78, "duration": 25, "velocity": 70}, {"time": 72964, "pitch": 75, "duration": 389, "velocity": 81}, {"time": 72964, "pitch": 78, "duration": 379, "velocity": 73}, {"time": 73438, "pitch": 76, "duration": 364, "velocity": 87}, {"time": 73438, "pitch": 80, "duration": 352, "velocity": 87}, {"time": 73919, "pitch": 75, "duration": 250, "velocity": 87}, {"time": 73919, "pitch": 78, "duration": 235, "velocity": 73}, {"time": 74281, "pitch": 73, "duration": 126, "velocity": 48}, {"time": 74281, "pitch": 76, "duration": 105, "velocity": 66}, {"time": 74522, "pitch": 73, "duration": 117, "velocity": 47}, {"time": 74522, "pitch": 76, "duration": 116, "velocity": 70}, {"time": 74762, "pitch": 75, "duration": 27, "velocity": 85}, {"time": 74762, "pitch": 78, "duration": 27, "velocity": 60}, {"time": 74883, "pitch": 75, "duration": 375, "velocity": 87}, {"time": 74883, "pitch": 78, "duration": 366, "velocity": 81}, {"time": 75357, "pitch": 76, "duration": 360, "velocity": 78}, {"time": 75357, "pitch": 80, "duration": 342, "velocity": 71}, {"time": 75838, "pitch": 75, "duration": 244, "velocity": 74}, {"time": 75838, "pitch": 78, "duration": 230, "velocity": 64}, {"time": 76200, "pitch": 73, "duration": 134, "velocity": 47}, {"time": 76200, "pitch": 76, "duration": 110, "velocity": 69}, {"time": 76441, "pitch": 73, "duration": 115, "velocity": 32}, {"time": 76441, "pitch": 76, "duration": 103, "velocity": 72}, {"time": 76682, "pitch": 75, "duration": 26, "velocity": 85}, {"time": 76682, "pitch": 78, "duration": 27, "velocity": 61}, {"time": 76802, "pitch": 75, "duration": 295, "velocity": 79}, {"time": 76802, "pitch": 78, "duration": 299, "velocity": 66}, {"time": 104882, "pitch": 87, "duration": 98, "velocity": 102}, {"time": 105002, "pitch": 85, "duration": 88, "velocity": 102}, {"time": 105123, "pitch": 83, "duration": 93, "velocity": 102}, {"time": 105241, "pitch": 78, "duration": 71, "velocity": 102}, {"time": 105360, "pitch": 75, "duration": 67, "velocity": 102}, {"time": 105478, "pitch": 73, "duration": 71, "velocity": 102}, {"time": 105597, "pitch": 71, "duration": 42, "velocity": 102}, {"time": 105717, "pitch": 66, "duration": 65, "velocity": 102}, {"time": 105838, "pitch": 63, "duration": 84, "velocity": 102}, {"time": 135363, "pitch": 73, "duration": 60, "velocity": 97}, {"time": 135481, "pitch": 75, "duration": 62, "velocity": 97}, {"time": 135600, "pitch": 76, "duration": 59, "velocity": 97}, {"time": 135718, "pitch": 75, "duration": 106, "velocity": 97}, {"time": 135957, "pitch": 71, "duration": 66, "velocity": 97}, {"time": 136198, "pitch": 71, "duration": 74, "velocity": 97}, {"time": 136439, "pitch": 75, "duration": 70, "velocity": 97}, {"time": 136800, "pitch": 75, "duration": 87, "velocity": 97}, {"time": 137162, "pitch": 76, "duration": 86, "velocity": 97}, {"time": 137523, "pitch": 73, "duration": 68, "velocity": 97}, {"time": 139201, "pitch": 73, "duration": 54, "velocity": 97}, {"time": 139322, "pitch": 75, "duration": 56, "velocity": 97}, {"time": 139442, "pitch": 76, "duration": 65, "velocity": 97}, {"time": 139563, "pitch": 75, "duration": 92, "velocity": 97}, {"time": 139801, "pitch": 71, "duration": 55, "velocity": 97}, {"time": 140038, "pitch": 71, "duration": 60, "velocity": 97}, {"time": 140277, "pitch": 68, "duration": 73, "velocity": 97}, {"time": 140639, "pitch": 66, "duration": 218, "velocity": 97}, {"time": 141000, "pitch": 68, "duration": 130, "velocity": 97}, {"time": 143040, "pitch": 73, "duration": 53, "velocity": 97}, {"time": 143160, "pitch": 75, "duration": 65, "velocity": 97}, {"time": 143280, "pitch": 76, "duration": 57, "velocity": 97}, {"time": 143401, "pitch": 75, "duration": 95, "velocity": 97}, {"time": 143642, "pitch": 71, "duration": 62, "velocity": 97}, {"time": 143883, "pitch": 71, "duration": 74, "velocity": 97}, {"time": 144121, "pitch": 75, "duration": 48, "velocity": 97}, {"time": 144477, "pitch": 75, "duration": 82, "velocity": 97}, {"time": 144838, "pitch": 76, "duration": 62, "velocity": 97}, {"time": 145200, "pitch": 73, "duration": 73, "velocity": 97}, {"time": 146878, "pitch": 73, "duration": 59, "velocity": 97}, {"time": 146998, "pitch": 75, "duration": 65, "velocity": 97}, {"time": 147119, "pitch": 76, "duration": 66, "velocity": 97}, {"time": 147239, "pitch": 78, "duration": 71, "velocity": 97}, {"time": 147480, "pitch": 83, "duration": 54, "velocity": 97}, {"time": 147721, "pitch": 78, "duration": 76, "velocity": 97}, {"time": 147962, "pitch": 75, "duration": 81, "velocity": 97}, {"time": 148203, "pitch": 73, "duration": 65, "velocity": 97}, {"time": 151920, "pitch": 71, "duration": 241, "velocity": 87}, {"time": 151920, "pitch": 76, "duration": 241, "velocity": 87}, {"time": 151920, "pitch": 80, "duration": 241, "velocity": 87}, {"time": 152402, "pitch": 71, "duration": 139, "velocity": 87}, {"time": 152402, "pitch": 75, "duration": 146, "velocity": 87}, {"time": 152402, "pitch": 78, "duration": 143, "velocity": 87}, {"time": 152643, "pitch": 71, "duration": 398, "velocity": 87}, {"time": 152643, "pitch": 75, "duration": 390, "velocity": 87}, {"time": 152643, "pitch": 78, "duration": 417, "velocity": 87}, {"time": 152880, "pitch": 87, "duration": 97, "velocity": 102}, {"time": 152999, "pitch": 85, "duration": 85, "velocity": 102}, {"time": 153117, "pitch": 83, "duration": 94, "velocity": 102}, {"time": 153237, "pitch": 78, "duration": 73, "velocity": 102}, {"time": 153358, "pitch": 75, "duration": 68, "velocity": 102}, {"time": 153478, "pitch": 73, "duration": 73, "velocity": 102}, {"time": 153599, "pitch": 71, "duration": 42, "velocity": 102}, {"time": 153719, "pitch": 66, "duration": 65, "velocity": 102}, {"time": 153840, "pitch": 63, "duration": 84, "velocity": 102}, {"time": 182883, "pitch": 83, "duration": 74, "velocity": 67}, {"time": 183002, "pitch": 88, "duration": 74, "velocity": 67}, {"time": 183120, "pitch": 90, "duration": 74, "velocity": 67}, {"time": 183239, "pitch": 83, "duration": 74, "velocity": 67}, {"time": 183357, "pitch": 95, "duration": 75, "velocity": 67}, {"time": 183477, "pitch": 83, "duration": 76, "velocity": 67}, {"time": 183598, "pitch": 88, "duration": 75, "velocity": 67}, {"time": 183718, "pitch": 90, "duration": 76, "velocity": 67}, {"time": 183839, "pitch": 83, "duration": 75, "velocity": 67}, {"time": 183959, "pitch": 88, "duration": 76, "velocity": 67}, {"time": 184080, "pitch": 90, "duration": 75, "velocity": 67}, {"time": 184200, "pitch": 83, "duration": 75, "velocity": 67}, {"time": 184321, "pitch": 95, "duration": 75, "velocity": 67}, {"time": 184441, "pitch": 83, "duration": 75, "velocity": 67}, {"time": 184561, "pitch": 88, "duration": 76, "velocity": 67}, {"time": 184682, "pitch": 90, "duration": 75, "velocity": 67}, {"time": 184802, "pitch": 83, "duration": 74, "velocity": 67}, {"time": 184921, "pitch": 88, "duration": 74, "velocity": 67}, {"time": 185039, "pitch": 90, "duration": 74, "velocity": 67}, {"time": 185158, "pitch": 83, "duration": 74, "velocity": 67}, {"time": 185276, "pitch": 95, "duration": 75, "velocity": 67}, {"time": 185397, "pitch": 83, "duration": 75, "velocity": 67}, {"time": 185517, "pitch": 88, "duration": 75, "velocity": 67}, {"time": 185637, "pitch": 90, "duration": 76, "velocity": 67}, {"time": 185758, "pitch": 83, "duration": 75, "velocity": 67}, {"time": 185878, "pitch": 88, "duration": 76, "velocity": 67}, {"time": 185999, "pitch": 90, "duration": 75, "velocity": 67}, {"time": 186119, "pitch": 83, "duration": 76, "velocity": 67}, {"time": 186240, "pitch": 95, "duration": 75, "velocity": 67}, {"time": 186481, "pitch": 71, "duration": 240, "velocity": 107}, {"time": 186481, "pitch": 76, "duration": 240, "velocity": 107}, {"time": 186481, "pitch": 80, "duration": 240, "velocity": 107}, {"time": 186962, "pitch": 71, "duration": 139, "velocity": 107}, {"time": 186962, "pitch": 75, "duration": 146, "velocity": 107}, {"time": 186962, "pitch": 78, "duration": 143, "velocity": 107}, {"time": 187203, "pitch": 71, "duration": 398, "velocity": 107}, {"time": 187203, "pitch": 75, "duration": 390, "velocity": 107}, {"time": 187203, "pitch": 78, "duration": 417, "velocity": 107}, {"time": 187440, "pitch": 87, "duration": 97, "velocity": 102}, {"time": 187559, "pitch": 85, "duration": 86, "velocity": 102}, {"time": 187677, "pitch": 83, "duration": 94, "velocity": 102}, {"time": 187797, "pitch": 78, "duration": 73, "velocity": 102}, {"time": 187918, "pitch": 75, "duration": 68, "velocity": 102}, {"time": 188038, "pitch": 73, "duration": 73, "velocity": 102}, {"time": 188159, "pitch": 71, "duration": 42, "velocity": 102}, {"time": 188279, "pitch": 66, "duration": 65, "velocity": 102}, {"time": 188400, "pitch": 63, "duration": 84, "velocity": 102}, {"time": 192720, "pitch": 88, "duration": 72, "velocity": 102}, {"time": 192961, "pitch": 90, "duration": 71, "velocity": 102}, {"time": 193201, "pitch": 92, "duration": 69, "velocity": 102}, {"time": 194639, "pitch": 92, "duration": 75, "velocity": 102}, {"time": 194880, "pitch": 90, "duration": 90, "velocity": 102}, {"time": 195121, "pitch": 88, "duration": 74, "velocity": 102}, {"time": 195361, "pitch": 88, "duration": 83, "velocity": 102}, {"time": 195843, "pitch": 90, "duration": 80, "velocity": 102}, {"time": 198477, "pitch": 88, "duration": 69, "velocity": 102}, {"time": 198718, "pitch": 90, "duration": 75, "velocity": 102}, {"time": 198959, "pitch": 92, "duration": 67, "velocity": 102}, {"time": 200400, "pitch": 92, "duration": 75, "velocity": 102}, {"time": 200637, "pitch": 90, "duration": 82, "velocity": 102}, {"time": 200878, "pitch": 88, "duration": 81, "velocity": 102}, {"time": 201119, "pitch": 87, "duration": 359, "velocity": 102}, {"time": 201601, "pitch": 88, "duration": 123, "velocity": 102}], "annotations": [{"time": 271, "annotation": {"number": 7, "value": 80}, "group": "control_change"}, {"time": 292, "annotation": {"number": 11, "value": 120}, "group": "control_change"}, {"time": 313, "annotation": {"number": 10, "value": 54}, "group": "control_change"}, {"time": 334, "annotation": {"number": 91, "value": 50}, "group": "control_change"}, {"time": 354, "annotation": {"number": 93, "value": 0}, "group": "control_change"}, {"time": 375, "annotation": {"number": 94, "value": 0}, "group": "control_change"}, {"time": 396, "annotation": {"number": 101, "value": 0}, "group": "control_change"}, {"time": 417, "annotation": {"number": 100, "value": 0}, "group": "control_change"}, {"time": 438, "annotation": {"number": 6, "value": 12}, "group": "control_change"}, {"time": 459, "annotation": {"number": 101, "value": 127}, "group": "control_change"}, {"time": 479, "annotation": {"number": 100, "value": 127}, "group": "control_change"}]}]}