{"metadata": {"schema_version": "0.1", "title": "RWC-MDB-P-2001 No. 25: tell me / Tomomi Ogata", "copyright": "RWC Music Database. Copyright (C) 2001 Real World Computing Partnership (contact: Masataka GOTO <m.goto@aist.go.jp>)", "source_filename": "RM-P025.SMF_SYNC.MID", "source_format": "midi"}, "resolution": 480, "tempos": [{"time": 0, "qpm": 58.8235294117647}, {"time": 480, "qpm": 103.44827586206897}, {"time": 1440, "qpm": 101.69491525423729}, {"time": 1920, "qpm": 103.44827586206897}, {"time": 2880, "qpm": 101.69491525423729}, {"time": 3360, "qpm": 103.44827586206897}, {"time": 4800, "qpm": 101.69491525423729}, {"time": 5280, "qpm": 103.44827586206897}, {"time": 6720, "qpm": 101.69491525423729}, {"time": 7200, "qpm": 103.44827586206897}, {"time": 8640, "qpm": 101.69491525423729}, {"time": 9120, "qpm": 103.44827586206897}, {"time": 10560, "qpm": 101.69491525423729}, {"time": 11040, "qpm": 103.44827586206897}, {"time": 12480, "qpm": 101.69491525423729}, {"time": 12960, "qpm": 103.44827586206897}, {"time": 14400, "qpm": 101.69491525423729}, {"time": 14880, "qpm": 103.44827586206897}, {"time": 16320, "qpm": 101.69491525423729}, {"time": 16800, "qpm": 103.44827586206897}, {"time": 18240, "qpm": 101.69491525423729}, {"time": 18720, "qpm": 103.44827586206897}, {"time": 20160, "qpm": 101.69491525423729}, {"time": 20640, "qpm": 103.44827586206897}, {"time": 22080, "qpm": 101.69491525423729}, {"time": 22560, "qpm": 103.44827586206897}, {"time": 24000, "qpm": 101.69491525423729}, {"time": 24480, "qpm": 103.44827586206897}, {"time": 25920, "qpm": 101.69491525423729}, {"time": 26400, "qpm": 103.44827586206897}, {"time": 27840, "qpm": 101.69491525423729}, {"time": 28320, "qpm": 103.44827586206897}, {"time": 29760, "qpm": 101.69491525423729}, {"time": 30240, "qpm": 103.44827586206897}, {"time": 31680, "qpm": 101.69491525423729}, {"time": 32160, "qpm": 103.44827586206897}, {"time": 33600, "qpm": 101.69491525423729}, {"time": 34080, "qpm": 103.44827586206897}, {"time": 35520, "qpm": 101.69491525423729}, {"time": 36000, "qpm": 103.44827586206897}, {"time": 37440, "qpm": 101.69491525423729}, {"time": 37920, "qpm": 103.44827586206897}, {"time": 39360, "qpm": 101.69491525423729}, {"time": 39840, "qpm": 103.44827586206897}, {"time": 41280, "qpm": 101.69491525423729}, {"time": 41760, "qpm": 103.44827586206897}, {"time": 43200, "qpm": 101.69491525423729}, {"time": 43680, "qpm": 103.44827586206897}, {"time": 45120, "qpm": 101.69491525423729}, {"time": 45600, "qpm": 103.44827586206897}, {"time": 47040, "qpm": 101.69491525423729}, {"time": 47520, "qpm": 103.44827586206897}, {"time": 48960, "qpm": 101.69491525423729}, {"time": 49440, "qpm": 103.44827586206897}, {"time": 50880, "qpm": 101.69491525423729}, {"time": 51360, "qpm": 103.44827586206897}, {"time": 52320, "qpm": 101.69491525423729}, {"time": 52800, "qpm": 103.44827586206897}, {"time": 54240, "qpm": 101.69491525423729}, {"time": 54720, "qpm": 103.44827586206897}, {"time": 56160, "qpm": 101.69491525423729}, {"time": 56640, "qpm": 103.44827586206897}, {"time": 58080, "qpm": 101.69491525423729}, {"time": 58560, "qpm": 103.44827586206897}, {"time": 60000, "qpm": 101.69491525423729}, {"time": 60480, "qpm": 103.44827586206897}, {"time": 61920, "qpm": 101.69491525423729}, {"time": 62400, "qpm": 103.44827586206897}, {"time": 63840, "qpm": 101.69491525423729}, {"time": 64320, "qpm": 103.44827586206897}, {"time": 65760, "qpm": 101.69491525423729}, {"time": 66240, "qpm": 103.44827586206897}, {"time": 67680, "qpm": 101.69491525423729}, {"time": 68160, "qpm": 103.44827586206897}, {"time": 69600, "qpm": 101.69491525423729}, {"time": 70080, "qpm": 103.44827586206897}, {"time": 71520, "qpm": 101.69491525423729}, {"time": 72000, "qpm": 103.44827586206897}, {"time": 73440, "qpm": 101.69491525423729}, {"time": 73920, "qpm": 103.44827586206897}, {"time": 75360, "qpm": 101.69491525423729}, {"time": 75840, "qpm": 103.44827586206897}, {"time": 77280, "qpm": 101.69491525423729}, {"time": 77760, "qpm": 103.44827586206897}, {"time": 79200, "qpm": 101.69491525423729}, {"time": 79680, "qpm": 103.44827586206897}, {"time": 81120, "qpm": 101.69491525423729}, {"time": 81600, "qpm": 103.44827586206897}, {"time": 83040, "qpm": 101.69491525423729}, {"time": 83520, "qpm": 103.44827586206897}, {"time": 84960, "qpm": 101.69491525423729}, {"time": 85440, "qpm": 103.44827586206897}, {"time": 86880, "qpm": 101.69491525423729}, {"time": 87360, "qpm": 103.44827586206897}, {"time": 88800, "qpm": 101.69491525423729}, {"time": 89280, "qpm": 103.44827586206897}, {"time": 90720, "qpm": 101.69491525423729}, {"time": 91200, "qpm": 103.44827586206897}, {"time": 92640, "qpm": 101.69491525423729}, {"time": 93120, "qpm": 103.44827586206897}, {"time": 94560, "qpm": 101.69491525423729}, {"time": 95040, "qpm": 103.44827586206897}, {"time": 96480, "qpm": 101.69491525423729}, {"time": 96960, "qpm": 103.44827586206897}, {"time": 98400, "qpm": 101.69491525423729}, {"time": 98880, "qpm": 103.44827586206897}, {"time": 100320, "qpm": 101.69491525423729}, {"time": 100800, "qpm": 103.44827586206897}, {"time": 102240, "qpm": 101.69491525423729}, {"time": 102720, "qpm": 103.44827586206897}, {"time": 104160, "qpm": 101.69491525423729}, {"time": 104640, "qpm": 103.44827586206897}, {"time": 106080, "qpm": 101.69491525423729}, {"time": 106560, "qpm": 103.44827586206897}, {"time": 108000, "qpm": 101.69491525423729}, {"time": 108480, "qpm": 103.44827586206897}, {"time": 109920, "qpm": 101.69491525423729}, {"time": 110400, "qpm": 103.44827586206897}, {"time": 111840, "qpm": 101.69491525423729}, {"time": 112320, "qpm": 103.44827586206897}, {"time": 113760, "qpm": 101.69491525423729}, {"time": 114240, "qpm": 103.44827586206897}, {"time": 115200, "qpm": 101.69491525423729}, {"time": 115680, "qpm": 103.44827586206897}, {"time": 117120, "qpm": 101.69491525423729}, {"time": 117600, "qpm": 103.44827586206897}, {"time": 119040, "qpm": 101.69491525423729}, {"time": 119520, "qpm": 103.44827586206897}, {"time": 120960, "qpm": 101.69491525423729}, {"time": 121440, "qpm": 103.44827586206897}, {"time": 122880, "qpm": 101.69491525423729}, {"time": 123360, "qpm": 103.44827586206897}, {"time": 124800, "qpm": 101.69491525423729}, {"time": 125280, "qpm": 103.44827586206897}, {"time": 126720, "qpm": 101.69491525423729}, {"time": 127200, "qpm": 103.44827586206897}, {"time": 128640, "qpm": 101.69491525423729}, {"time": 129120, "qpm": 103.44827586206897}, {"time": 130560, "qpm": 101.69491525423729}, {"time": 131040, "qpm": 103.44827586206897}, {"time": 132480, "qpm": 101.69491525423729}, {"time": 132960, "qpm": 103.44827586206897}, {"time": 134400, "qpm": 101.69491525423729}, {"time": 134880, "qpm": 103.44827586206897}, {"time": 136320, "qpm": 101.69491525423729}, {"time": 136800, "qpm": 103.44827586206897}, {"time": 138240, "qpm": 101.69491525423729}, {"time": 138720, "qpm": 103.44827586206897}, {"time": 140160, "qpm": 101.69491525423729}, {"time": 140640, "qpm": 103.44827586206897}, {"time": 142080, "qpm": 101.69491525423729}, {"time": 142560, "qpm": 103.44827586206897}, {"time": 144000, "qpm": 101.69491525423729}, {"time": 144480, "qpm": 103.44827586206897}, {"time": 145920, "qpm": 101.69491525423729}, {"time": 146400, "qpm": 103.44827586206897}, {"time": 147840, "qpm": 101.69491525423729}, {"time": 148320, "qpm": 103.44827586206897}, {"time": 149760, "qpm": 101.69491525423729}, {"time": 150240, "qpm": 103.44827586206897}, {"time": 151200, "qpm": 101.69491525423729}, {"time": 151680, "qpm": 103.44827586206897}, {"time": 153120, "qpm": 101.69491525423729}, {"time": 153600, "qpm": 103.44827586206897}, {"time": 155040, "qpm": 101.69491525423729}, {"time": 155520, "qpm": 103.44827586206897}, {"time": 156960, "qpm": 101.69491525423729}, {"time": 157440, "qpm": 103.44827586206897}, {"time": 158880, "qpm": 101.69491525423729}, {"time": 159360, "qpm": 103.44827586206897}, {"time": 160800, "qpm": 101.69491525423729}, {"time": 161280, "qpm": 103.44827586206897}, {"time": 162720, "qpm": 101.69491525423729}, {"time": 163200, "qpm": 103.44827586206897}, {"time": 164640, "qpm": 101.69491525423729}, {"time": 165120, "qpm": 103.44827586206897}, {"time": 166560, "qpm": 101.69491525423729}, {"time": 167040, "qpm": 103.44827586206897}, {"time": 168480, "qpm": 101.69491525423729}, {"time": 168960, "qpm": 103.44827586206897}, {"time": 170400, "qpm": 101.69491525423729}, {"time": 170880, "qpm": 103.44827586206897}, {"time": 172320, "qpm": 101.69491525423729}, {"time": 172800, "qpm": 103.44827586206897}, {"time": 174240, "qpm": 101.69491525423729}, {"time": 174720, "qpm": 103.44827586206897}, {"time": 176160, "qpm": 101.69491525423729}, {"time": 176640, "qpm": 103.44827586206897}, {"time": 178080, "qpm": 101.69491525423729}, {"time": 178560, "qpm": 103.44827586206897}, {"time": 180000, "qpm": 101.69491525423729}, {"time": 180480, "qpm": 103.44827586206897}, {"time": 181920, "qpm": 101.69491525423729}, {"time": 182400, "qpm": 103.44827586206897}, {"time": 183840, "qpm": 101.69491525423729}, {"time": 184320, "qpm": 103.44827586206897}, {"time": 185760, "qpm": 101.69491525423729}, {"time": 186240, "qpm": 103.44827586206897}, {"time": 187680, "qpm": 101.69491525423729}, {"time": 188160, "qpm": 103.44827586206897}, {"time": 189600, "qpm": 101.69491525423729}, {"time": 190080, "qpm": 103.44827586206897}, {"time": 191520, "qpm": 101.69491525423729}, {"time": 192000, "qpm": 103.44827586206897}, {"time": 193440, "qpm": 101.69491525423729}, {"time": 193920, "qpm": 103.44827586206897}, {"time": 195360, "qpm": 101.69491525423729}, {"time": 195840, "qpm": 103.44827586206897}, {"time": 197280, "qpm": 101.69491525423729}, {"time": 197760, "qpm": 103.44827586206897}, {"time": 199200, "qpm": 101.69491525423729}, {"time": 199680, "qpm": 103.44827586206897}, {"time": 200640, "qpm": 101.69491525423729}, {"time": 201120, "qpm": 103.44827586206897}, {"time": 202560, "qpm": 101.69491525423729}, {"time": 203040, "qpm": 103.44827586206897}, {"time": 204480, "qpm": 101.69491525423729}, {"time": 204960, "qpm": 103.44827586206897}, {"time": 206400, "qpm": 101.69491525423729}, {"time": 206880, "qpm": 103.44827586206897}, {"time": 208320, "qpm": 101.69491525423729}], "key_signatures": [{"time": 0, "root": 4, "mode": "minor"}], "time_signatures": [{"time": 0, "numerator": 1, "denominator": 4}, {"time": 480, "numerator": 4, "denominator": 4}], "tracks": [{"program": 0, "is_drum": false, "name": "E.PIANO", "annotations": [{"time": 230, "annotation": {"number": 0, "value": 0}, "group": "control_change"}, {"time": 250, "annotation": {"number": 32, "value": 0}, "group": "control_change"}]}, {"program": 4, "is_drum": false, "name": "E.PIANO", "notes": [{"time": 480, "pitch": 48, "duration": 926, "velocity": 89}, {"time": 480, "pitch": 59, "duration": 926, "velocity": 91}, {"time": 490, "pitch": 62, "duration": 926, "velocity": 92}, {"time": 500, "pitch": 64, "duration": 926, "velocity": 94}, {"time": 500, "pitch": 67, "duration": 916, "velocity": 95}, {"time": 1436, "pitch": 47, "duration": 934, "velocity": 78}, {"time": 1436, "pitch": 57, "duration": 934, "velocity": 82}, {"time": 1446, "pitch": 63, "duration": 934, "velocity": 88}, {"time": 1446, "pitch": 67, "duration": 934, "velocity": 91}, {"time": 2400, "pitch": 52, "duration": 927, "velocity": 72}, {"time": 2400, "pitch": 59, "duration": 927, "velocity": 77}, {"time": 2410, "pitch": 62, "duration": 926, "velocity": 80}, {"time": 2410, "pitch": 66, "duration": 926, "velocity": 80}, {"time": 2410, "pitch": 67, "duration": 926, "velocity": 87}, {"time": 3356, "pitch": 45, "duration": 934, "velocity": 76}, {"time": 3356, "pitch": 59, "duration": 934, "velocity": 81}, {"time": 3366, "pitch": 61, "duration": 934, "velocity": 84}, {"time": 3366, "pitch": 64, "duration": 934, "velocity": 86}, {"time": 3366, "pitch": 67, "duration": 934, "velocity": 89}, {"time": 4320, "pitch": 45, "duration": 927, "velocity": 72}, {"time": 4320, "pitch": 59, "duration": 927, "velocity": 75}, {"time": 4330, "pitch": 60, "duration": 926, "velocity": 81}, {"time": 4330, "pitch": 64, "duration": 926, "velocity": 82}, {"time": 4340, "pitch": 67, "duration": 926, "velocity": 85}, {"time": 5276, "pitch": 50, "duration": 934, "velocity": 69}, {"time": 5276, "pitch": 57, "duration": 934, "velocity": 75}, {"time": 5286, "pitch": 60, "duration": 934, "velocity": 77}, {"time": 5286, "pitch": 64, "duration": 934, "velocity": 81}, {"time": 5296, "pitch": 66, "duration": 934, "velocity": 88}, {"time": 6240, "pitch": 43, "duration": 927, "velocity": 76}, {"time": 6250, "pitch": 57, "duration": 927, "velocity": 80}, {"time": 6250, "pitch": 59, "duration": 927, "velocity": 82}, {"time": 6260, "pitch": 62, "duration": 926, "velocity": 83}, {"time": 6260, "pitch": 66, "duration": 926, "velocity": 86}, {"time": 7196, "pitch": 47, "duration": 934, "velocity": 68}, {"time": 7196, "pitch": 57, "duration": 934, "velocity": 73}, {"time": 7206, "pitch": 61, "duration": 934, "velocity": 75}, {"time": 7206, "pitch": 63, "duration": 934, "velocity": 79}, {"time": 7216, "pitch": 67, "duration": 934, "velocity": 85}, {"time": 8160, "pitch": 48, "duration": 927, "velocity": 74}, {"time": 8160, "pitch": 59, "duration": 927, "velocity": 77}, {"time": 8180, "pitch": 62, "duration": 926, "velocity": 81}, {"time": 8180, "pitch": 64, "duration": 926, "velocity": 83}, {"time": 8191, "pitch": 67, "duration": 925, "velocity": 85}, {"time": 9116, "pitch": 47, "duration": 934, "velocity": 78}, {"time": 9126, "pitch": 57, "duration": 934, "velocity": 82}, {"time": 9126, "pitch": 63, "duration": 934, "velocity": 83}, {"time": 9136, "pitch": 67, "duration": 934, "velocity": 87}, {"time": 10080, "pitch": 52, "duration": 927, "velocity": 70}, {"time": 10080, "pitch": 59, "duration": 927, "velocity": 74}, {"time": 10091, "pitch": 62, "duration": 926, "velocity": 77}, {"time": 10101, "pitch": 66, "duration": 926, "velocity": 81}, {"time": 10101, "pitch": 67, "duration": 926, "velocity": 84}, {"time": 11036, "pitch": 45, "duration": 934, "velocity": 73}, {"time": 11036, "pitch": 59, "duration": 934, "velocity": 75}, {"time": 11046, "pitch": 61, "duration": 934, "velocity": 80}, {"time": 11056, "pitch": 64, "duration": 935, "velocity": 81}, {"time": 11056, "pitch": 67, "duration": 935, "velocity": 85}, {"time": 12001, "pitch": 45, "duration": 1910, "velocity": 77}, {"time": 12001, "pitch": 59, "duration": 1879, "velocity": 80}, {"time": 12011, "pitch": 60, "duration": 1880, "velocity": 83}, {"time": 12011, "pitch": 64, "duration": 1869, "velocity": 86}, {"time": 12021, "pitch": 67, "duration": 1900, "velocity": 91}, {"time": 13921, "pitch": 50, "duration": 1407, "velocity": 80}, {"time": 13921, "pitch": 60, "duration": 1418, "velocity": 85}, {"time": 13921, "pitch": 67, "duration": 10, "velocity": 91}, {"time": 13931, "pitch": 64, "duration": 1408, "velocity": 91}, {"time": 13951, "pitch": 67, "duration": 1388, "velocity": 97}, {"time": 15359, "pitch": 47, "duration": 452, "velocity": 80}, {"time": 15359, "pitch": 57, "duration": 462, "velocity": 85}, {"time": 15369, "pitch": 63, "duration": 452, "velocity": 91}, {"time": 15389, "pitch": 67, "duration": 432, "velocity": 97}, {"time": 46080, "pitch": 47, "duration": 472, "velocity": 107}, {"time": 46080, "pitch": 61, "duration": 442, "velocity": 107}, {"time": 46080, "pitch": 63, "duration": 462, "velocity": 110}, {"time": 46080, "pitch": 66, "duration": 452, "velocity": 103}, {"time": 46562, "pitch": 48, "duration": 1890, "velocity": 91}, {"time": 46562, "pitch": 59, "duration": 1890, "velocity": 91}, {"time": 46562, "pitch": 64, "duration": 1890, "velocity": 98}, {"time": 46562, "pitch": 67, "duration": 1890, "velocity": 95}, {"time": 48482, "pitch": 53, "duration": 1890, "velocity": 89}, {"time": 48482, "pitch": 60, "duration": 1890, "velocity": 93}, {"time": 48482, "pitch": 63, "duration": 1890, "velocity": 103}, {"time": 48482, "pitch": 67, "duration": 1890, "velocity": 72}, {"time": 50402, "pitch": 47, "duration": 1890, "velocity": 90}, {"time": 50402, "pitch": 57, "duration": 1890, "velocity": 98}, {"time": 50402, "pitch": 62, "duration": 1890, "velocity": 98}, {"time": 50402, "pitch": 66, "duration": 1890, "velocity": 86}, {"time": 52322, "pitch": 52, "duration": 926, "velocity": 103}, {"time": 52322, "pitch": 59, "duration": 1850, "velocity": 91}, {"time": 52322, "pitch": 62, "duration": 1880, "velocity": 95}, {"time": 52322, "pitch": 67, "duration": 1790, "velocity": 82}, {"time": 53278, "pitch": 50, "duration": 934, "velocity": 103}, {"time": 54242, "pitch": 45, "duration": 1890, "velocity": 101}, {"time": 54242, "pitch": 60, "duration": 1890, "velocity": 97}, {"time": 54242, "pitch": 64, "duration": 1890, "velocity": 101}, {"time": 54242, "pitch": 67, "duration": 1890, "velocity": 86}, {"time": 56162, "pitch": 47, "duration": 1890, "velocity": 104}, {"time": 56162, "pitch": 57, "duration": 1890, "velocity": 70}, {"time": 56162, "pitch": 62, "duration": 1890, "velocity": 97}, {"time": 56162, "pitch": 66, "duration": 1890, "velocity": 78}, {"time": 58082, "pitch": 48, "duration": 1890, "velocity": 105}, {"time": 58082, "pitch": 58, "duration": 1890, "velocity": 81}, {"time": 58082, "pitch": 63, "duration": 1890, "velocity": 93}, {"time": 58082, "pitch": 67, "duration": 1890, "velocity": 81}, {"time": 60002, "pitch": 50, "duration": 455, "velocity": 72}, {"time": 60002, "pitch": 60, "duration": 455, "velocity": 107}, {"time": 60002, "pitch": 64, "duration": 455, "velocity": 103}, {"time": 60002, "pitch": 67, "duration": 435, "velocity": 103}, {"time": 60476, "pitch": 49, "duration": 462, "velocity": 72}, {"time": 60476, "pitch": 59, "duration": 462, "velocity": 107}, {"time": 60476, "pitch": 63, "duration": 462, "velocity": 103}, {"time": 60476, "pitch": 66, "duration": 442, "velocity": 103}, {"time": 60958, "pitch": 48, "duration": 462, "velocity": 72}, {"time": 60958, "pitch": 58, "duration": 462, "velocity": 107}, {"time": 60958, "pitch": 62, "duration": 462, "velocity": 103}, {"time": 60958, "pitch": 65, "duration": 442, "velocity": 103}, {"time": 61441, "pitch": 47, "duration": 462, "velocity": 72}, {"time": 61441, "pitch": 57, "duration": 462, "velocity": 107}, {"time": 61441, "pitch": 63, "duration": 462, "velocity": 103}, {"time": 61441, "pitch": 67, "duration": 441, "velocity": 103}, {"time": 61923, "pitch": 48, "duration": 925, "velocity": 89}, {"time": 61923, "pitch": 59, "duration": 925, "velocity": 91}, {"time": 61923, "pitch": 62, "duration": 925, "velocity": 93}, {"time": 61923, "pitch": 64, "duration": 925, "velocity": 93}, {"time": 61923, "pitch": 67, "duration": 925, "velocity": 91}, {"time": 62879, "pitch": 47, "duration": 934, "velocity": 80}, {"time": 62879, "pitch": 57, "duration": 934, "velocity": 86}, {"time": 62879, "pitch": 63, "duration": 934, "velocity": 85}, {"time": 62879, "pitch": 67, "duration": 934, "velocity": 90}, {"time": 63843, "pitch": 52, "duration": 925, "velocity": 93}, {"time": 63843, "pitch": 59, "duration": 925, "velocity": 89}, {"time": 63843, "pitch": 62, "duration": 925, "velocity": 76}, {"time": 63843, "pitch": 66, "duration": 925, "velocity": 76}, {"time": 63843, "pitch": 67, "duration": 925, "velocity": 95}, {"time": 64799, "pitch": 45, "duration": 934, "velocity": 89}, {"time": 64799, "pitch": 59, "duration": 934, "velocity": 98}, {"time": 64799, "pitch": 61, "duration": 934, "velocity": 91}, {"time": 64799, "pitch": 64, "duration": 934, "velocity": 85}, {"time": 64799, "pitch": 67, "duration": 934, "velocity": 85}, {"time": 65763, "pitch": 45, "duration": 926, "velocity": 81}, {"time": 65763, "pitch": 59, "duration": 926, "velocity": 84}, {"time": 65763, "pitch": 60, "duration": 926, "velocity": 84}, {"time": 65763, "pitch": 64, "duration": 926, "velocity": 89}, {"time": 65763, "pitch": 67, "duration": 926, "velocity": 89}, {"time": 66719, "pitch": 50, "duration": 934, "velocity": 89}, {"time": 66719, "pitch": 57, "duration": 934, "velocity": 82}, {"time": 66719, "pitch": 60, "duration": 934, "velocity": 76}, {"time": 66719, "pitch": 64, "duration": 934, "velocity": 91}, {"time": 66719, "pitch": 66, "duration": 934, "velocity": 82}, {"time": 67683, "pitch": 43, "duration": 926, "velocity": 91}, {"time": 67683, "pitch": 57, "duration": 926, "velocity": 95}, {"time": 67683, "pitch": 59, "duration": 926, "velocity": 95}, {"time": 67683, "pitch": 62, "duration": 926, "velocity": 82}, {"time": 67683, "pitch": 66, "duration": 926, "velocity": 81}, {"time": 68639, "pitch": 47, "duration": 934, "velocity": 89}, {"time": 68639, "pitch": 57, "duration": 934, "velocity": 89}, {"time": 68639, "pitch": 61, "duration": 934, "velocity": 76}, {"time": 68639, "pitch": 63, "duration": 934, "velocity": 84}, {"time": 68639, "pitch": 67, "duration": 934, "velocity": 89}, {"time": 69603, "pitch": 48, "duration": 926, "velocity": 89}, {"time": 69603, "pitch": 59, "duration": 926, "velocity": 91}, {"time": 69603, "pitch": 62, "duration": 926, "velocity": 93}, {"time": 69603, "pitch": 64, "duration": 926, "velocity": 93}, {"time": 69603, "pitch": 67, "duration": 926, "velocity": 91}, {"time": 70559, "pitch": 47, "duration": 934, "velocity": 80}, {"time": 70559, "pitch": 57, "duration": 934, "velocity": 86}, {"time": 70559, "pitch": 63, "duration": 934, "velocity": 85}, {"time": 70559, "pitch": 67, "duration": 934, "velocity": 90}, {"time": 71523, "pitch": 52, "duration": 926, "velocity": 93}, {"time": 71523, "pitch": 59, "duration": 926, "velocity": 89}, {"time": 71523, "pitch": 62, "duration": 926, "velocity": 76}, {"time": 71523, "pitch": 66, "duration": 926, "velocity": 76}, {"time": 71523, "pitch": 67, "duration": 926, "velocity": 95}, {"time": 72479, "pitch": 45, "duration": 934, "velocity": 89}, {"time": 72479, "pitch": 59, "duration": 934, "velocity": 98}, {"time": 72479, "pitch": 61, "duration": 934, "velocity": 91}, {"time": 72479, "pitch": 64, "duration": 934, "velocity": 85}, {"time": 72479, "pitch": 67, "duration": 934, "velocity": 85}, {"time": 73443, "pitch": 45, "duration": 1910, "velocity": 81}, {"time": 73443, "pitch": 59, "duration": 1880, "velocity": 84}, {"time": 73443, "pitch": 60, "duration": 1880, "velocity": 84}, {"time": 73443, "pitch": 64, "duration": 1870, "velocity": 89}, {"time": 73443, "pitch": 67, "duration": 1890, "velocity": 89}, {"time": 75363, "pitch": 38, "duration": 49, "velocity": 105}, {"time": 75363, "pitch": 50, "duration": 40, "velocity": 101}, {"time": 75363, "pitch": 60, "duration": 49, "velocity": 101}, {"time": 75363, "pitch": 64, "duration": 49, "velocity": 101}, {"time": 75363, "pitch": 67, "duration": 40, "velocity": 101}, {"time": 75837, "pitch": 50, "duration": 1416, "velocity": 110}, {"time": 75837, "pitch": 60, "duration": 1386, "velocity": 100}, {"time": 75837, "pitch": 64, "duration": 1396, "velocity": 100}, {"time": 75837, "pitch": 67, "duration": 1356, "velocity": 93}, {"time": 99842, "pitch": 47, "duration": 464, "velocity": 107}, {"time": 99842, "pitch": 61, "duration": 435, "velocity": 107}, {"time": 99842, "pitch": 63, "duration": 454, "velocity": 110}, {"time": 99842, "pitch": 66, "duration": 444, "velocity": 103}, {"time": 100316, "pitch": 48, "duration": 1890, "velocity": 91}, {"time": 100316, "pitch": 59, "duration": 1890, "velocity": 91}, {"time": 100316, "pitch": 64, "duration": 1890, "velocity": 98}, {"time": 100316, "pitch": 67, "duration": 1890, "velocity": 95}, {"time": 102236, "pitch": 53, "duration": 1891, "velocity": 89}, {"time": 102236, "pitch": 60, "duration": 1891, "velocity": 93}, {"time": 102236, "pitch": 63, "duration": 1891, "velocity": 103}, {"time": 102236, "pitch": 67, "duration": 1891, "velocity": 72}, {"time": 104156, "pitch": 47, "duration": 1891, "velocity": 90}, {"time": 104156, "pitch": 57, "duration": 1891, "velocity": 98}, {"time": 104156, "pitch": 62, "duration": 1891, "velocity": 98}, {"time": 104156, "pitch": 66, "duration": 1891, "velocity": 86}, {"time": 106076, "pitch": 52, "duration": 934, "velocity": 103}, {"time": 106076, "pitch": 59, "duration": 1851, "velocity": 91}, {"time": 106076, "pitch": 62, "duration": 1881, "velocity": 95}, {"time": 106076, "pitch": 67, "duration": 1792, "velocity": 82}, {"time": 107040, "pitch": 50, "duration": 927, "velocity": 103}, {"time": 107996, "pitch": 45, "duration": 1891, "velocity": 101}, {"time": 107996, "pitch": 60, "duration": 1891, "velocity": 97}, {"time": 107996, "pitch": 64, "duration": 1891, "velocity": 101}, {"time": 107996, "pitch": 67, "duration": 1891, "velocity": 86}, {"time": 109916, "pitch": 47, "duration": 1891, "velocity": 104}, {"time": 109916, "pitch": 57, "duration": 1891, "velocity": 70}, {"time": 109916, "pitch": 62, "duration": 1891, "velocity": 97}, {"time": 109916, "pitch": 66, "duration": 1891, "velocity": 78}, {"time": 111836, "pitch": 48, "duration": 1891, "velocity": 105}, {"time": 111836, "pitch": 58, "duration": 1891, "velocity": 81}, {"time": 111836, "pitch": 63, "duration": 1891, "velocity": 93}, {"time": 111836, "pitch": 67, "duration": 1891, "velocity": 81}, {"time": 113757, "pitch": 50, "duration": 461, "velocity": 72}, {"time": 113757, "pitch": 60, "duration": 461, "velocity": 107}, {"time": 113757, "pitch": 64, "duration": 461, "velocity": 103}, {"time": 113757, "pitch": 67, "duration": 441, "velocity": 103}, {"time": 114239, "pitch": 49, "duration": 462, "velocity": 72}, {"time": 114239, "pitch": 59, "duration": 462, "velocity": 107}, {"time": 114239, "pitch": 63, "duration": 462, "velocity": 103}, {"time": 114239, "pitch": 66, "duration": 441, "velocity": 103}, {"time": 114721, "pitch": 48, "duration": 462, "velocity": 72}, {"time": 114721, "pitch": 58, "duration": 462, "velocity": 107}, {"time": 114721, "pitch": 62, "duration": 462, "velocity": 103}, {"time": 114721, "pitch": 65, "duration": 442, "velocity": 103}, {"time": 115203, "pitch": 47, "duration": 454, "velocity": 72}, {"time": 115203, "pitch": 57, "duration": 454, "velocity": 107}, {"time": 115203, "pitch": 63, "duration": 454, "velocity": 103}, {"time": 115203, "pitch": 67, "duration": 434, "velocity": 103}, {"time": 115677, "pitch": 48, "duration": 934, "velocity": 89}, {"time": 115677, "pitch": 59, "duration": 934, "velocity": 91}, {"time": 115677, "pitch": 62, "duration": 934, "velocity": 93}, {"time": 115677, "pitch": 64, "duration": 934, "velocity": 93}, {"time": 115677, "pitch": 67, "duration": 934, "velocity": 91}, {"time": 116641, "pitch": 47, "duration": 926, "velocity": 80}, {"time": 116641, "pitch": 57, "duration": 926, "velocity": 86}, {"time": 116641, "pitch": 63, "duration": 926, "velocity": 85}, {"time": 116641, "pitch": 67, "duration": 926, "velocity": 90}, {"time": 117597, "pitch": 52, "duration": 934, "velocity": 93}, {"time": 117597, "pitch": 59, "duration": 934, "velocity": 89}, {"time": 117597, "pitch": 62, "duration": 934, "velocity": 76}, {"time": 117597, "pitch": 66, "duration": 934, "velocity": 76}, {"time": 117597, "pitch": 67, "duration": 934, "velocity": 95}, {"time": 118561, "pitch": 45, "duration": 926, "velocity": 89}, {"time": 118561, "pitch": 59, "duration": 926, "velocity": 98}, {"time": 118561, "pitch": 61, "duration": 926, "velocity": 91}, {"time": 118561, "pitch": 64, "duration": 926, "velocity": 85}, {"time": 118561, "pitch": 67, "duration": 926, "velocity": 85}, {"time": 119517, "pitch": 45, "duration": 934, "velocity": 81}, {"time": 119517, "pitch": 59, "duration": 934, "velocity": 84}, {"time": 119517, "pitch": 60, "duration": 934, "velocity": 84}, {"time": 119517, "pitch": 64, "duration": 934, "velocity": 89}, {"time": 119517, "pitch": 67, "duration": 934, "velocity": 89}, {"time": 120481, "pitch": 50, "duration": 926, "velocity": 89}, {"time": 120481, "pitch": 57, "duration": 926, "velocity": 82}, {"time": 120481, "pitch": 60, "duration": 926, "velocity": 76}, {"time": 120481, "pitch": 64, "duration": 926, "velocity": 91}, {"time": 120481, "pitch": 66, "duration": 926, "velocity": 82}, {"time": 121437, "pitch": 43, "duration": 934, "velocity": 91}, {"time": 121437, "pitch": 57, "duration": 934, "velocity": 95}, {"time": 121437, "pitch": 59, "duration": 934, "velocity": 95}, {"time": 121437, "pitch": 62, "duration": 934, "velocity": 82}, {"time": 121437, "pitch": 66, "duration": 934, "velocity": 81}, {"time": 122401, "pitch": 47, "duration": 926, "velocity": 89}, {"time": 122401, "pitch": 57, "duration": 926, "velocity": 89}, {"time": 122401, "pitch": 61, "duration": 926, "velocity": 76}, {"time": 122401, "pitch": 63, "duration": 926, "velocity": 84}, {"time": 122401, "pitch": 67, "duration": 926, "velocity": 89}, {"time": 123357, "pitch": 48, "duration": 934, "velocity": 89}, {"time": 123357, "pitch": 59, "duration": 934, "velocity": 91}, {"time": 123357, "pitch": 62, "duration": 934, "velocity": 93}, {"time": 123357, "pitch": 64, "duration": 934, "velocity": 93}, {"time": 123357, "pitch": 67, "duration": 934, "velocity": 91}, {"time": 124321, "pitch": 47, "duration": 926, "velocity": 80}, {"time": 124321, "pitch": 57, "duration": 926, "velocity": 86}, {"time": 124321, "pitch": 63, "duration": 926, "velocity": 85}, {"time": 124321, "pitch": 67, "duration": 926, "velocity": 90}, {"time": 125277, "pitch": 52, "duration": 934, "velocity": 93}, {"time": 125277, "pitch": 59, "duration": 934, "velocity": 89}, {"time": 125277, "pitch": 62, "duration": 934, "velocity": 76}, {"time": 125277, "pitch": 66, "duration": 934, "velocity": 76}, {"time": 125277, "pitch": 67, "duration": 934, "velocity": 95}, {"time": 126241, "pitch": 45, "duration": 926, "velocity": 89}, {"time": 126241, "pitch": 59, "duration": 926, "velocity": 98}, {"time": 126241, "pitch": 61, "duration": 926, "velocity": 91}, {"time": 126241, "pitch": 64, "duration": 926, "velocity": 85}, {"time": 126241, "pitch": 67, "duration": 926, "velocity": 85}, {"time": 127197, "pitch": 45, "duration": 1910, "velocity": 81}, {"time": 127197, "pitch": 59, "duration": 1881, "velocity": 84}, {"time": 127197, "pitch": 60, "duration": 1881, "velocity": 84}, {"time": 127197, "pitch": 64, "duration": 1871, "velocity": 89}, {"time": 127197, "pitch": 67, "duration": 1891, "velocity": 89}, {"time": 129117, "pitch": 38, "duration": 50, "velocity": 105}, {"time": 129117, "pitch": 50, "duration": 40, "velocity": 101}, {"time": 129117, "pitch": 60, "duration": 50, "velocity": 101}, {"time": 129117, "pitch": 64, "duration": 50, "velocity": 101}, {"time": 129117, "pitch": 67, "duration": 40, "velocity": 101}, {"time": 129599, "pitch": 50, "duration": 1409, "velocity": 110}, {"time": 129599, "pitch": 60, "duration": 1379, "velocity": 100}, {"time": 129599, "pitch": 64, "duration": 1389, "velocity": 100}, {"time": 129599, "pitch": 67, "duration": 1349, "velocity": 93}, {"time": 145924, "pitch": 47, "duration": 464, "velocity": 107}, {"time": 145924, "pitch": 61, "duration": 434, "velocity": 107}, {"time": 145924, "pitch": 63, "duration": 454, "velocity": 110}, {"time": 145924, "pitch": 66, "duration": 444, "velocity": 103}, {"time": 146398, "pitch": 48, "duration": 1890, "velocity": 91}, {"time": 146398, "pitch": 59, "duration": 1890, "velocity": 91}, {"time": 146398, "pitch": 64, "duration": 1890, "velocity": 98}, {"time": 146398, "pitch": 67, "duration": 1890, "velocity": 95}, {"time": 148318, "pitch": 53, "duration": 1890, "velocity": 89}, {"time": 148318, "pitch": 60, "duration": 1890, "velocity": 93}, {"time": 148318, "pitch": 63, "duration": 1890, "velocity": 103}, {"time": 148318, "pitch": 67, "duration": 1890, "velocity": 72}, {"time": 150238, "pitch": 47, "duration": 1890, "velocity": 90}, {"time": 150238, "pitch": 57, "duration": 1890, "velocity": 98}, {"time": 150238, "pitch": 62, "duration": 1890, "velocity": 98}, {"time": 150238, "pitch": 66, "duration": 1890, "velocity": 86}, {"time": 152158, "pitch": 52, "duration": 934, "velocity": 103}, {"time": 152158, "pitch": 59, "duration": 1850, "velocity": 91}, {"time": 152158, "pitch": 62, "duration": 1880, "velocity": 95}, {"time": 152158, "pitch": 67, "duration": 1790, "velocity": 82}, {"time": 153122, "pitch": 50, "duration": 926, "velocity": 103}, {"time": 154078, "pitch": 45, "duration": 1890, "velocity": 101}, {"time": 154078, "pitch": 60, "duration": 1890, "velocity": 97}, {"time": 154078, "pitch": 64, "duration": 1890, "velocity": 101}, {"time": 154078, "pitch": 67, "duration": 1890, "velocity": 86}, {"time": 155998, "pitch": 47, "duration": 1890, "velocity": 104}, {"time": 155998, "pitch": 57, "duration": 1890, "velocity": 70}, {"time": 155998, "pitch": 62, "duration": 1890, "velocity": 97}, {"time": 155998, "pitch": 66, "duration": 1890, "velocity": 78}, {"time": 157918, "pitch": 48, "duration": 1890, "velocity": 105}, {"time": 157918, "pitch": 58, "duration": 1890, "velocity": 81}, {"time": 157918, "pitch": 63, "duration": 1890, "velocity": 93}, {"time": 157918, "pitch": 67, "duration": 1890, "velocity": 81}, {"time": 159838, "pitch": 50, "duration": 462, "velocity": 72}, {"time": 159838, "pitch": 60, "duration": 462, "velocity": 107}, {"time": 159838, "pitch": 64, "duration": 462, "velocity": 103}, {"time": 159838, "pitch": 67, "duration": 442, "velocity": 103}, {"time": 160320, "pitch": 49, "duration": 462, "velocity": 72}, {"time": 160320, "pitch": 59, "duration": 462, "velocity": 107}, {"time": 160320, "pitch": 63, "duration": 462, "velocity": 103}, {"time": 160320, "pitch": 66, "duration": 442, "velocity": 103}, {"time": 160803, "pitch": 48, "duration": 454, "velocity": 72}, {"time": 160803, "pitch": 58, "duration": 454, "velocity": 107}, {"time": 160803, "pitch": 62, "duration": 454, "velocity": 103}, {"time": 160803, "pitch": 65, "duration": 434, "velocity": 103}, {"time": 161276, "pitch": 47, "duration": 462, "velocity": 72}, {"time": 161276, "pitch": 57, "duration": 462, "velocity": 107}, {"time": 161276, "pitch": 63, "duration": 462, "velocity": 103}, {"time": 161276, "pitch": 67, "duration": 442, "velocity": 103}, {"time": 161758, "pitch": 48, "duration": 935, "velocity": 89}, {"time": 161758, "pitch": 59, "duration": 935, "velocity": 91}, {"time": 161758, "pitch": 62, "duration": 935, "velocity": 93}, {"time": 161758, "pitch": 64, "duration": 935, "velocity": 93}, {"time": 161758, "pitch": 67, "duration": 935, "velocity": 91}, {"time": 162723, "pitch": 47, "duration": 925, "velocity": 80}, {"time": 162723, "pitch": 57, "duration": 925, "velocity": 86}, {"time": 162723, "pitch": 63, "duration": 925, "velocity": 85}, {"time": 162723, "pitch": 67, "duration": 925, "velocity": 90}, {"time": 163679, "pitch": 52, "duration": 934, "velocity": 93}, {"time": 163679, "pitch": 59, "duration": 934, "velocity": 89}, {"time": 163679, "pitch": 62, "duration": 934, "velocity": 76}, {"time": 163679, "pitch": 66, "duration": 934, "velocity": 76}, {"time": 163679, "pitch": 67, "duration": 934, "velocity": 95}, {"time": 164643, "pitch": 45, "duration": 926, "velocity": 89}, {"time": 164643, "pitch": 59, "duration": 926, "velocity": 98}, {"time": 164643, "pitch": 61, "duration": 926, "velocity": 91}, {"time": 164643, "pitch": 64, "duration": 926, "velocity": 85}, {"time": 164643, "pitch": 67, "duration": 926, "velocity": 85}, {"time": 165599, "pitch": 45, "duration": 934, "velocity": 81}, {"time": 165599, "pitch": 59, "duration": 934, "velocity": 84}, {"time": 165599, "pitch": 60, "duration": 934, "velocity": 84}, {"time": 165599, "pitch": 64, "duration": 934, "velocity": 89}, {"time": 165599, "pitch": 67, "duration": 934, "velocity": 89}, {"time": 166563, "pitch": 50, "duration": 926, "velocity": 89}, {"time": 166563, "pitch": 57, "duration": 926, "velocity": 82}, {"time": 166563, "pitch": 60, "duration": 926, "velocity": 76}, {"time": 166563, "pitch": 64, "duration": 926, "velocity": 91}, {"time": 166563, "pitch": 66, "duration": 926, "velocity": 82}, {"time": 167519, "pitch": 43, "duration": 934, "velocity": 91}, {"time": 167519, "pitch": 57, "duration": 934, "velocity": 95}, {"time": 167519, "pitch": 59, "duration": 934, "velocity": 95}, {"time": 167519, "pitch": 62, "duration": 934, "velocity": 82}, {"time": 167519, "pitch": 66, "duration": 934, "velocity": 81}, {"time": 168483, "pitch": 47, "duration": 926, "velocity": 89}, {"time": 168483, "pitch": 57, "duration": 926, "velocity": 89}, {"time": 168483, "pitch": 61, "duration": 926, "velocity": 76}, {"time": 168483, "pitch": 63, "duration": 926, "velocity": 84}, {"time": 168483, "pitch": 67, "duration": 926, "velocity": 89}, {"time": 169439, "pitch": 48, "duration": 934, "velocity": 89}, {"time": 169439, "pitch": 59, "duration": 934, "velocity": 91}, {"time": 169439, "pitch": 62, "duration": 934, "velocity": 93}, {"time": 169439, "pitch": 64, "duration": 934, "velocity": 93}, {"time": 169439, "pitch": 67, "duration": 934, "velocity": 91}, {"time": 170403, "pitch": 47, "duration": 926, "velocity": 80}, {"time": 170403, "pitch": 57, "duration": 926, "velocity": 86}, {"time": 170403, "pitch": 63, "duration": 926, "velocity": 85}, {"time": 170403, "pitch": 67, "duration": 926, "velocity": 90}, {"time": 171359, "pitch": 52, "duration": 934, "velocity": 93}, {"time": 171359, "pitch": 59, "duration": 934, "velocity": 89}, {"time": 171359, "pitch": 62, "duration": 934, "velocity": 76}, {"time": 171359, "pitch": 66, "duration": 934, "velocity": 76}, {"time": 171359, "pitch": 67, "duration": 934, "velocity": 95}, {"time": 172323, "pitch": 45, "duration": 926, "velocity": 89}, {"time": 172323, "pitch": 59, "duration": 926, "velocity": 98}, {"time": 172323, "pitch": 61, "duration": 926, "velocity": 91}, {"time": 172323, "pitch": 64, "duration": 926, "velocity": 85}, {"time": 172323, "pitch": 67, "duration": 926, "velocity": 85}, {"time": 173279, "pitch": 45, "duration": 1910, "velocity": 81}, {"time": 173279, "pitch": 59, "duration": 1880, "velocity": 84}, {"time": 173279, "pitch": 60, "duration": 1880, "velocity": 84}, {"time": 173279, "pitch": 64, "duration": 1870, "velocity": 89}, {"time": 173279, "pitch": 67, "duration": 1890, "velocity": 89}, {"time": 175199, "pitch": 50, "duration": 874, "velocity": 91}, {"time": 175199, "pitch": 55, "duration": 834, "velocity": 110}, {"time": 175199, "pitch": 60, "duration": 824, "velocity": 103}, {"time": 175199, "pitch": 64, "duration": 834, "velocity": 93}, {"time": 176163, "pitch": 47, "duration": 926, "velocity": 93}, {"time": 176163, "pitch": 57, "duration": 395, "velocity": 82}, {"time": 176163, "pitch": 63, "duration": 395, "velocity": 95}, {"time": 176163, "pitch": 67, "duration": 405, "velocity": 93}, {"time": 176637, "pitch": 57, "duration": 442, "velocity": 118}, {"time": 176637, "pitch": 63, "duration": 432, "velocity": 107}, {"time": 176637, "pitch": 67, "duration": 422, "velocity": 112}, {"time": 177119, "pitch": 48, "duration": 934, "velocity": 89}, {"time": 177119, "pitch": 59, "duration": 934, "velocity": 91}, {"time": 177119, "pitch": 62, "duration": 934, "velocity": 93}, {"time": 177119, "pitch": 64, "duration": 934, "velocity": 93}, {"time": 177119, "pitch": 67, "duration": 934, "velocity": 91}, {"time": 178083, "pitch": 47, "duration": 926, "velocity": 80}, {"time": 178083, "pitch": 57, "duration": 926, "velocity": 86}, {"time": 178083, "pitch": 63, "duration": 926, "velocity": 85}, {"time": 178083, "pitch": 67, "duration": 926, "velocity": 90}, {"time": 179039, "pitch": 52, "duration": 934, "velocity": 93}, {"time": 179039, "pitch": 59, "duration": 934, "velocity": 89}, {"time": 179039, "pitch": 62, "duration": 934, "velocity": 76}, {"time": 179039, "pitch": 66, "duration": 934, "velocity": 76}, {"time": 179039, "pitch": 67, "duration": 934, "velocity": 95}, {"time": 180003, "pitch": 45, "duration": 926, "velocity": 89}, {"time": 180003, "pitch": 59, "duration": 926, "velocity": 98}, {"time": 180003, "pitch": 61, "duration": 926, "velocity": 91}, {"time": 180003, "pitch": 64, "duration": 926, "velocity": 85}, {"time": 180003, "pitch": 67, "duration": 926, "velocity": 85}, {"time": 180959, "pitch": 45, "duration": 934, "velocity": 81}, {"time": 180959, "pitch": 59, "duration": 934, "velocity": 84}, {"time": 180959, "pitch": 60, "duration": 934, "velocity": 84}, {"time": 180959, "pitch": 64, "duration": 934, "velocity": 89}, {"time": 180959, "pitch": 67, "duration": 934, "velocity": 89}, {"time": 181923, "pitch": 50, "duration": 926, "velocity": 89}, {"time": 181923, "pitch": 57, "duration": 926, "velocity": 82}, {"time": 181923, "pitch": 60, "duration": 926, "velocity": 76}, {"time": 181923, "pitch": 64, "duration": 926, "velocity": 91}, {"time": 181923, "pitch": 66, "duration": 926, "velocity": 82}, {"time": 182879, "pitch": 43, "duration": 934, "velocity": 91}, {"time": 182879, "pitch": 57, "duration": 934, "velocity": 95}, {"time": 182879, "pitch": 59, "duration": 934, "velocity": 95}, {"time": 182879, "pitch": 62, "duration": 934, "velocity": 82}, {"time": 182879, "pitch": 66, "duration": 934, "velocity": 81}, {"time": 183843, "pitch": 47, "duration": 926, "velocity": 89}, {"time": 183843, "pitch": 57, "duration": 926, "velocity": 89}, {"time": 183843, "pitch": 61, "duration": 926, "velocity": 76}, {"time": 183843, "pitch": 63, "duration": 926, "velocity": 84}, {"time": 183843, "pitch": 67, "duration": 926, "velocity": 89}, {"time": 184799, "pitch": 48, "duration": 934, "velocity": 89}, {"time": 184799, "pitch": 59, "duration": 934, "velocity": 91}, {"time": 184799, "pitch": 62, "duration": 934, "velocity": 93}, {"time": 184799, "pitch": 64, "duration": 934, "velocity": 93}, {"time": 184799, "pitch": 67, "duration": 934, "velocity": 91}, {"time": 185764, "pitch": 47, "duration": 925, "velocity": 80}, {"time": 185764, "pitch": 57, "duration": 925, "velocity": 86}, {"time": 185764, "pitch": 63, "duration": 925, "velocity": 85}, {"time": 185764, "pitch": 67, "duration": 925, "velocity": 90}, {"time": 186720, "pitch": 52, "duration": 934, "velocity": 93}, {"time": 186720, "pitch": 59, "duration": 934, "velocity": 89}, {"time": 186720, "pitch": 62, "duration": 934, "velocity": 76}, {"time": 186720, "pitch": 66, "duration": 934, "velocity": 76}, {"time": 186720, "pitch": 67, "duration": 934, "velocity": 95}, {"time": 187684, "pitch": 45, "duration": 925, "velocity": 89}, {"time": 187684, "pitch": 59, "duration": 925, "velocity": 98}, {"time": 187684, "pitch": 61, "duration": 925, "velocity": 91}, {"time": 187684, "pitch": 64, "duration": 925, "velocity": 85}, {"time": 187684, "pitch": 67, "duration": 925, "velocity": 85}, {"time": 188640, "pitch": 45, "duration": 1910, "velocity": 81}, {"time": 188640, "pitch": 59, "duration": 1879, "velocity": 84}, {"time": 188640, "pitch": 60, "duration": 1879, "velocity": 84}, {"time": 188640, "pitch": 64, "duration": 1869, "velocity": 89}, {"time": 188640, "pitch": 67, "duration": 1890, "velocity": 89}, {"time": 190560, "pitch": 38, "duration": 50, "velocity": 105}, {"time": 190560, "pitch": 50, "duration": 40, "velocity": 101}, {"time": 190560, "pitch": 60, "duration": 50, "velocity": 101}, {"time": 190560, "pitch": 64, "duration": 50, "velocity": 101}, {"time": 190560, "pitch": 67, "duration": 40, "velocity": 101}, {"time": 191042, "pitch": 50, "duration": 1408, "velocity": 110}, {"time": 191042, "pitch": 60, "duration": 1377, "velocity": 100}, {"time": 191042, "pitch": 64, "duration": 1388, "velocity": 100}, {"time": 191042, "pitch": 67, "duration": 1347, "velocity": 93}], "annotations": [{"time": 292, "annotation": {"number": 7, "value": 120}, "group": "control_change"}, {"time": 313, "annotation": {"number": 11, "value": 100}, "group": "control_change"}, {"time": 334, "annotation": {"number": 10, "value": 59}, "group": "control_change"}, {"time": 355, "annotation": {"number": 91, "value": 40}, "group": "control_change"}, {"time": 376, "annotation": {"number": 93, "value": 60}, "group": "control_change"}, {"time": 397, "annotation": {"number": 101, "value": 0}, "group": "control_change"}, {"time": 417, "annotation": {"number": 100, "value": 0}, "group": "control_change"}, {"time": 438, "annotation": {"number": 6, "value": 12}, "group": "control_change"}, {"time": 459, "annotation": {"number": 101, "value": 127}, "group": "control_change"}, {"time": 480, "annotation": {"number": 100, "value": 127}, "group": "control_change"}]}, {"program": 0, "is_drum": false, "name": "BASS", "annotations": [{"time": 230, "annotation": {"number": 0, "value": 0}, "group": "control_change"}, {"time": 250, "annotation": {"number": 32, "value": 0}, "group": "control_change"}]}, {"program": 39, "is_drum": false, "name": "BASS", "notes": [{"time": 15841, "pitch": 40, "duration": 180, "velocity": 90}, {"time": 16082, "pitch": 43, "duration": 150, "velocity": 90}, {"time": 16323, "pitch": 45, "duration": 237, "velocity": 92}, {"time": 16560, "pitch": 43, "duration": 138, "velocity": 73}, {"time": 16698, "pitch": 40, "duration": 99, "velocity": 67}, {"time": 16797, "pitch": 45, "duration": 231, "velocity": 73}, {"time": 17038, "pitch": 47, "duration": 241, "velocity": 83}, {"time": 17761, "pitch": 40, "duration": 181, "velocity": 90}, {"time": 18002, "pitch": 43, "duration": 150, "velocity": 86}, {"time": 18243, "pitch": 45, "duration": 237, "velocity": 92}, {"time": 18480, "pitch": 43, "duration": 148, "velocity": 83}, {"time": 18618, "pitch": 42, "duration": 109, "velocity": 78}, {"time": 19681, "pitch": 40, "duration": 181, "velocity": 90}, {"time": 19922, "pitch": 43, "duration": 151, "velocity": 86}, {"time": 20163, "pitch": 45, "duration": 237, "velocity": 92}, {"time": 20400, "pitch": 43, "duration": 148, "velocity": 74}, {"time": 20538, "pitch": 40, "duration": 99, "velocity": 69}, {"time": 20637, "pitch": 45, "duration": 231, "velocity": 73}, {"time": 20878, "pitch": 47, "duration": 241, "velocity": 83}, {"time": 21601, "pitch": 40, "duration": 181, "velocity": 90}, {"time": 21842, "pitch": 43, "duration": 151, "velocity": 85}, {"time": 22083, "pitch": 45, "duration": 237, "velocity": 92}, {"time": 22320, "pitch": 43, "duration": 148, "velocity": 83}, {"time": 22458, "pitch": 42, "duration": 99, "velocity": 78}, {"time": 23521, "pitch": 40, "duration": 181, "velocity": 90}, {"time": 23762, "pitch": 43, "duration": 151, "velocity": 85}, {"time": 24003, "pitch": 45, "duration": 237, "velocity": 92}, {"time": 24240, "pitch": 43, "duration": 138, "velocity": 75}, {"time": 24378, "pitch": 40, "duration": 99, "velocity": 69}, {"time": 24477, "pitch": 45, "duration": 241, "velocity": 73}, {"time": 24718, "pitch": 47, "duration": 241, "velocity": 83}, {"time": 25441, "pitch": 40, "duration": 181, "velocity": 90}, {"time": 25682, "pitch": 43, "duration": 151, "velocity": 85}, {"time": 25923, "pitch": 45, "duration": 237, "velocity": 92}, {"time": 26160, "pitch": 43, "duration": 148, "velocity": 83}, {"time": 26298, "pitch": 42, "duration": 99, "velocity": 78}, {"time": 27361, "pitch": 40, "duration": 181, "velocity": 90}, {"time": 27602, "pitch": 43, "duration": 151, "velocity": 85}, {"time": 27843, "pitch": 45, "duration": 237, "velocity": 92}, {"time": 28080, "pitch": 43, "duration": 138, "velocity": 69}, {"time": 28218, "pitch": 40, "duration": 99, "velocity": 64}, {"time": 28317, "pitch": 45, "duration": 241, "velocity": 73}, {"time": 28558, "pitch": 47, "duration": 241, "velocity": 83}, {"time": 29281, "pitch": 40, "duration": 181, "velocity": 90}, {"time": 29522, "pitch": 43, "duration": 151, "velocity": 85}, {"time": 29763, "pitch": 45, "duration": 237, "velocity": 92}, {"time": 30000, "pitch": 43, "duration": 148, "velocity": 83}, {"time": 30138, "pitch": 42, "duration": 99, "velocity": 78}, {"time": 31201, "pitch": 40, "duration": 181, "velocity": 90}, {"time": 31442, "pitch": 43, "duration": 151, "velocity": 85}, {"time": 31683, "pitch": 45, "duration": 237, "velocity": 92}, {"time": 31920, "pitch": 43, "duration": 139, "velocity": 77}, {"time": 32059, "pitch": 40, "duration": 98, "velocity": 69}, {"time": 32157, "pitch": 45, "duration": 231, "velocity": 72}, {"time": 32398, "pitch": 47, "duration": 241, "velocity": 83}, {"time": 33121, "pitch": 40, "duration": 181, "velocity": 90}, {"time": 33362, "pitch": 43, "duration": 151, "velocity": 85}, {"time": 33603, "pitch": 45, "duration": 237, "velocity": 92}, {"time": 33840, "pitch": 43, "duration": 149, "velocity": 83}, {"time": 33979, "pitch": 42, "duration": 98, "velocity": 78}, {"time": 35042, "pitch": 40, "duration": 180, "velocity": 90}, {"time": 35283, "pitch": 43, "duration": 150, "velocity": 85}, {"time": 35524, "pitch": 45, "duration": 236, "velocity": 92}, {"time": 35760, "pitch": 43, "duration": 139, "velocity": 74}, {"time": 35899, "pitch": 40, "duration": 98, "velocity": 66}, {"time": 35997, "pitch": 45, "duration": 231, "velocity": 73}, {"time": 36238, "pitch": 47, "duration": 242, "velocity": 83}, {"time": 36962, "pitch": 40, "duration": 180, "velocity": 90}, {"time": 37203, "pitch": 43, "duration": 150, "velocity": 85}, {"time": 37444, "pitch": 45, "duration": 237, "velocity": 92}, {"time": 37681, "pitch": 43, "duration": 148, "velocity": 83}, {"time": 37819, "pitch": 42, "duration": 99, "velocity": 78}, {"time": 38882, "pitch": 40, "duration": 180, "velocity": 90}, {"time": 39123, "pitch": 43, "duration": 150, "velocity": 90}, {"time": 39364, "pitch": 45, "duration": 237, "velocity": 92}, {"time": 39601, "pitch": 43, "duration": 138, "velocity": 77}, {"time": 39739, "pitch": 40, "duration": 99, "velocity": 69}, {"time": 39838, "pitch": 45, "duration": 231, "velocity": 73}, {"time": 40079, "pitch": 47, "duration": 241, "velocity": 83}, {"time": 40802, "pitch": 40, "duration": 181, "velocity": 90}, {"time": 41043, "pitch": 43, "duration": 150, "velocity": 86}, {"time": 41284, "pitch": 45, "duration": 237, "velocity": 92}, {"time": 41521, "pitch": 43, "duration": 148, "velocity": 83}, {"time": 41659, "pitch": 42, "duration": 99, "velocity": 78}, {"time": 42722, "pitch": 40, "duration": 181, "velocity": 90}, {"time": 42963, "pitch": 43, "duration": 151, "velocity": 85}, {"time": 43204, "pitch": 45, "duration": 237, "velocity": 92}, {"time": 43441, "pitch": 43, "duration": 138, "velocity": 75}, {"time": 43579, "pitch": 40, "duration": 99, "velocity": 69}, {"time": 43678, "pitch": 45, "duration": 241, "velocity": 73}, {"time": 43919, "pitch": 47, "duration": 241, "velocity": 83}, {"time": 44642, "pitch": 40, "duration": 181, "velocity": 90}, {"time": 44883, "pitch": 43, "duration": 151, "velocity": 85}, {"time": 45124, "pitch": 45, "duration": 237, "velocity": 92}, {"time": 45361, "pitch": 43, "duration": 148, "velocity": 83}, {"time": 45499, "pitch": 42, "duration": 79, "velocity": 78}, {"time": 46080, "pitch": 48, "duration": 60, "velocity": 92}, {"time": 46160, "pitch": 43, "duration": 61, "velocity": 87}, {"time": 46241, "pitch": 40, "duration": 60, "velocity": 92}, {"time": 46321, "pitch": 43, "duration": 60, "velocity": 92}, {"time": 46401, "pitch": 40, "duration": 61, "velocity": 89}, {"time": 46482, "pitch": 35, "duration": 60, "velocity": 82}, {"time": 46562, "pitch": 36, "duration": 181, "velocity": 90}, {"time": 46803, "pitch": 43, "duration": 151, "velocity": 85}, {"time": 47044, "pitch": 48, "duration": 118, "velocity": 92}, {"time": 47182, "pitch": 43, "duration": 89, "velocity": 83}, {"time": 47281, "pitch": 40, "duration": 118, "velocity": 92}, {"time": 47419, "pitch": 35, "duration": 79, "velocity": 83}, {"time": 48482, "pitch": 41, "duration": 178, "velocity": 90}, {"time": 48719, "pitch": 43, "duration": 148, "velocity": 85}, {"time": 48956, "pitch": 48, "duration": 120, "velocity": 92}, {"time": 49096, "pitch": 43, "duration": 91, "velocity": 83}, {"time": 49197, "pitch": 39, "duration": 120, "velocity": 92}, {"time": 49338, "pitch": 41, "duration": 80, "velocity": 83}, {"time": 50402, "pitch": 35, "duration": 178, "velocity": 90}, {"time": 50639, "pitch": 42, "duration": 148, "velocity": 85}, {"time": 50876, "pitch": 47, "duration": 120, "velocity": 92}, {"time": 51017, "pitch": 42, "duration": 90, "velocity": 83}, {"time": 51117, "pitch": 38, "duration": 121, "velocity": 92}, {"time": 51258, "pitch": 35, "duration": 80, "velocity": 83}, {"time": 52322, "pitch": 40, "duration": 178, "velocity": 90}, {"time": 52559, "pitch": 43, "duration": 148, "velocity": 85}, {"time": 52796, "pitch": 50, "duration": 121, "velocity": 92}, {"time": 52937, "pitch": 43, "duration": 90, "velocity": 83}, {"time": 53037, "pitch": 40, "duration": 121, "velocity": 92}, {"time": 53178, "pitch": 43, "duration": 80, "velocity": 83}, {"time": 53278, "pitch": 40, "duration": 241, "velocity": 90}, {"time": 53519, "pitch": 52, "duration": 91, "velocity": 85}, {"time": 53760, "pitch": 38, "duration": 241, "velocity": 90}, {"time": 54001, "pitch": 50, "duration": 91, "velocity": 85}, {"time": 54242, "pitch": 33, "duration": 178, "velocity": 90}, {"time": 54479, "pitch": 40, "duration": 148, "velocity": 85}, {"time": 54716, "pitch": 45, "duration": 121, "velocity": 92}, {"time": 54857, "pitch": 43, "duration": 90, "velocity": 83}, {"time": 54957, "pitch": 40, "duration": 121, "velocity": 92}, {"time": 55098, "pitch": 33, "duration": 80, "velocity": 83}, {"time": 56162, "pitch": 35, "duration": 178, "velocity": 90}, {"time": 56399, "pitch": 42, "duration": 148, "velocity": 85}, {"time": 56636, "pitch": 47, "duration": 121, "velocity": 92}, {"time": 56777, "pitch": 42, "duration": 90, "velocity": 83}, {"time": 56877, "pitch": 38, "duration": 121, "velocity": 92}, {"time": 57018, "pitch": 35, "duration": 80, "velocity": 83}, {"time": 58082, "pitch": 36, "duration": 178, "velocity": 90}, {"time": 58319, "pitch": 43, "duration": 148, "velocity": 85}, {"time": 58556, "pitch": 48, "duration": 121, "velocity": 92}, {"time": 58697, "pitch": 43, "duration": 90, "velocity": 83}, {"time": 58797, "pitch": 39, "duration": 121, "velocity": 92}, {"time": 58938, "pitch": 36, "duration": 80, "velocity": 83}, {"time": 59279, "pitch": 36, "duration": 31, "velocity": 66}, {"time": 59299, "pitch": 37, "duration": 31, "velocity": 61}, {"time": 59320, "pitch": 38, "duration": 30, "velocity": 69}, {"time": 59340, "pitch": 39, "duration": 30, "velocity": 44}, {"time": 59360, "pitch": 40, "duration": 30, "velocity": 61}, {"time": 59380, "pitch": 41, "duration": 30, "velocity": 48}, {"time": 59400, "pitch": 42, "duration": 30, "velocity": 44}, {"time": 59420, "pitch": 43, "duration": 30, "velocity": 52}, {"time": 59440, "pitch": 44, "duration": 30, "velocity": 52}, {"time": 59460, "pitch": 45, "duration": 30, "velocity": 78}, {"time": 59480, "pitch": 46, "duration": 30, "velocity": 61}, {"time": 59500, "pitch": 47, "duration": 30, "velocity": 73}, {"time": 59520, "pitch": 72, "duration": 31, "velocity": 73}, {"time": 59541, "pitch": 71, "duration": 30, "velocity": 78}, {"time": 59561, "pitch": 70, "duration": 30, "velocity": 64}, {"time": 59581, "pitch": 69, "duration": 30, "velocity": 69}, {"time": 59601, "pitch": 68, "duration": 30, "velocity": 69}, {"time": 59621, "pitch": 67, "duration": 30, "velocity": 69}, {"time": 59641, "pitch": 66, "duration": 30, "velocity": 56}, {"time": 59661, "pitch": 65, "duration": 30, "velocity": 56}, {"time": 59681, "pitch": 64, "duration": 30, "velocity": 73}, {"time": 59701, "pitch": 63, "duration": 30, "velocity": 64}, {"time": 59721, "pitch": 62, "duration": 30, "velocity": 64}, {"time": 59741, "pitch": 61, "duration": 31, "velocity": 56}, {"time": 59761, "pitch": 60, "duration": 31, "velocity": 66}, {"time": 59782, "pitch": 59, "duration": 30, "velocity": 64}, {"time": 59802, "pitch": 58, "duration": 30, "velocity": 56}, {"time": 59822, "pitch": 57, "duration": 30, "velocity": 75}, {"time": 59842, "pitch": 56, "duration": 30, "velocity": 69}, {"time": 59862, "pitch": 55, "duration": 30, "velocity": 69}, {"time": 59882, "pitch": 54, "duration": 30, "velocity": 48}, {"time": 59902, "pitch": 53, "duration": 30, "velocity": 64}, {"time": 59922, "pitch": 52, "duration": 30, "velocity": 69}, {"time": 59942, "pitch": 51, "duration": 30, "velocity": 61}, {"time": 59962, "pitch": 50, "duration": 30, "velocity": 56}, {"time": 59982, "pitch": 49, "duration": 20, "velocity": 44}, {"time": 60002, "pitch": 38, "duration": 237, "velocity": 92}, {"time": 60239, "pitch": 50, "duration": 89, "velocity": 87}, {"time": 60476, "pitch": 37, "duration": 241, "velocity": 78}, {"time": 60717, "pitch": 49, "duration": 91, "velocity": 92}, {"time": 60958, "pitch": 36, "duration": 241, "velocity": 85}, {"time": 61199, "pitch": 48, "duration": 91, "velocity": 92}, {"time": 61441, "pitch": 35, "duration": 241, "velocity": 90}, {"time": 61682, "pitch": 50, "duration": 90, "velocity": 92}, {"time": 61923, "pitch": 36, "duration": 237, "velocity": 92}, {"time": 62160, "pitch": 48, "duration": 98, "velocity": 87}, {"time": 62396, "pitch": 36, "duration": 392, "velocity": 92}, {"time": 62778, "pitch": 48, "duration": 60, "velocity": 92}, {"time": 62879, "pitch": 35, "duration": 241, "velocity": 92}, {"time": 63120, "pitch": 47, "duration": 100, "velocity": 87}, {"time": 63361, "pitch": 38, "duration": 241, "velocity": 92}, {"time": 63602, "pitch": 50, "duration": 100, "velocity": 87}, {"time": 63843, "pitch": 28, "duration": 237, "velocity": 92}, {"time": 64080, "pitch": 40, "duration": 98, "velocity": 87}, {"time": 64317, "pitch": 35, "duration": 251, "velocity": 92}, {"time": 64558, "pitch": 34, "duration": 241, "velocity": 87}, {"time": 64799, "pitch": 33, "duration": 241, "velocity": 92}, {"time": 65040, "pitch": 45, "duration": 100, "velocity": 87}, {"time": 65281, "pitch": 33, "duration": 241, "velocity": 92}, {"time": 65522, "pitch": 45, "duration": 100, "velocity": 87}, {"time": 65763, "pitch": 33, "duration": 237, "velocity": 92}, {"time": 66000, "pitch": 45, "duration": 98, "velocity": 87}, {"time": 66237, "pitch": 33, "duration": 391, "velocity": 92}, {"time": 66618, "pitch": 45, "duration": 61, "velocity": 92}, {"time": 66719, "pitch": 38, "duration": 241, "velocity": 92}, {"time": 66960, "pitch": 50, "duration": 100, "velocity": 87}, {"time": 67201, "pitch": 40, "duration": 241, "velocity": 92}, {"time": 67442, "pitch": 50, "duration": 100, "velocity": 87}, {"time": 67683, "pitch": 31, "duration": 237, "velocity": 92}, {"time": 67920, "pitch": 43, "duration": 99, "velocity": 87}, {"time": 68157, "pitch": 31, "duration": 391, "velocity": 92}, {"time": 68538, "pitch": 43, "duration": 61, "velocity": 92}, {"time": 68639, "pitch": 35, "duration": 241, "velocity": 92}, {"time": 68880, "pitch": 47, "duration": 100, "velocity": 87}, {"time": 69121, "pitch": 38, "duration": 241, "velocity": 92}, {"time": 69362, "pitch": 50, "duration": 100, "velocity": 87}, {"time": 69603, "pitch": 36, "duration": 237, "velocity": 92}, {"time": 69840, "pitch": 48, "duration": 99, "velocity": 87}, {"time": 70077, "pitch": 36, "duration": 391, "velocity": 92}, {"time": 70458, "pitch": 48, "duration": 61, "velocity": 87}, {"time": 70559, "pitch": 35, "duration": 241, "velocity": 92}, {"time": 70800, "pitch": 47, "duration": 100, "velocity": 87}, {"time": 71041, "pitch": 38, "duration": 241, "velocity": 92}, {"time": 71282, "pitch": 50, "duration": 100, "velocity": 87}, {"time": 71523, "pitch": 28, "duration": 237, "velocity": 92}, {"time": 71760, "pitch": 40, "duration": 99, "velocity": 87}, {"time": 71997, "pitch": 35, "duration": 251, "velocity": 92}, {"time": 72238, "pitch": 34, "duration": 241, "velocity": 87}, {"time": 72479, "pitch": 33, "duration": 241, "velocity": 92}, {"time": 72720, "pitch": 45, "duration": 100, "velocity": 87}, {"time": 72961, "pitch": 33, "duration": 241, "velocity": 92}, {"time": 73202, "pitch": 45, "duration": 100, "velocity": 87}, {"time": 73443, "pitch": 33, "duration": 237, "velocity": 92}, {"time": 73680, "pitch": 45, "duration": 99, "velocity": 87}, {"time": 73917, "pitch": 35, "duration": 241, "velocity": 92}, {"time": 74158, "pitch": 47, "duration": 100, "velocity": 87}, {"time": 74399, "pitch": 36, "duration": 241, "velocity": 92}, {"time": 74640, "pitch": 48, "duration": 100, "velocity": 87}, {"time": 74881, "pitch": 37, "duration": 241, "velocity": 92}, {"time": 75122, "pitch": 49, "duration": 101, "velocity": 87}, {"time": 75363, "pitch": 38, "duration": 20, "velocity": 69}, {"time": 75837, "pitch": 35, "duration": 30, "velocity": 33}, {"time": 75857, "pitch": 36, "duration": 30, "velocity": 39}, {"time": 75877, "pitch": 37, "duration": 30, "velocity": 32}, {"time": 75897, "pitch": 38, "duration": 30, "velocity": 40}, {"time": 75917, "pitch": 39, "duration": 30, "velocity": 30}, {"time": 75937, "pitch": 40, "duration": 31, "velocity": 52}, {"time": 75958, "pitch": 41, "duration": 30, "velocity": 44}, {"time": 75978, "pitch": 42, "duration": 30, "velocity": 40}, {"time": 75998, "pitch": 43, "duration": 30, "velocity": 48}, {"time": 76018, "pitch": 44, "duration": 30, "velocity": 39}, {"time": 76038, "pitch": 45, "duration": 30, "velocity": 48}, {"time": 76058, "pitch": 46, "duration": 30, "velocity": 36}, {"time": 76078, "pitch": 47, "duration": 30, "velocity": 52}, {"time": 76098, "pitch": 48, "duration": 30, "velocity": 46}, {"time": 76118, "pitch": 49, "duration": 30, "velocity": 56}, {"time": 76138, "pitch": 50, "duration": 30, "velocity": 54}, {"time": 76158, "pitch": 51, "duration": 31, "velocity": 33}, {"time": 76178, "pitch": 52, "duration": 31, "velocity": 48}, {"time": 76199, "pitch": 53, "duration": 30, "velocity": 40}, {"time": 76219, "pitch": 54, "duration": 30, "velocity": 69}, {"time": 76239, "pitch": 55, "duration": 30, "velocity": 21}, {"time": 76259, "pitch": 56, "duration": 30, "velocity": 54}, {"time": 76279, "pitch": 57, "duration": 30, "velocity": 56}, {"time": 76299, "pitch": 58, "duration": 30, "velocity": 14}, {"time": 76319, "pitch": 59, "duration": 30, "velocity": 39}, {"time": 76339, "pitch": 60, "duration": 30, "velocity": 48}, {"time": 76359, "pitch": 61, "duration": 30, "velocity": 46}, {"time": 76379, "pitch": 62, "duration": 30, "velocity": 43}, {"time": 76399, "pitch": 63, "duration": 31, "velocity": 31}, {"time": 76420, "pitch": 64, "duration": 30, "velocity": 56}, {"time": 76440, "pitch": 65, "duration": 30, "velocity": 52}, {"time": 76460, "pitch": 66, "duration": 30, "velocity": 56}, {"time": 76480, "pitch": 67, "duration": 30, "velocity": 35}, {"time": 76500, "pitch": 68, "duration": 30, "velocity": 40}, {"time": 76520, "pitch": 69, "duration": 30, "velocity": 52}, {"time": 76540, "pitch": 70, "duration": 30, "velocity": 40}, {"time": 76560, "pitch": 71, "duration": 30, "velocity": 52}, {"time": 76580, "pitch": 72, "duration": 30, "velocity": 33}, {"time": 76600, "pitch": 73, "duration": 30, "velocity": 52}, {"time": 76620, "pitch": 74, "duration": 31, "velocity": 36}, {"time": 76640, "pitch": 75, "duration": 31, "velocity": 32}, {"time": 76661, "pitch": 76, "duration": 30, "velocity": 48}, {"time": 76681, "pitch": 77, "duration": 30, "velocity": 33}, {"time": 76701, "pitch": 78, "duration": 30, "velocity": 48}, {"time": 76721, "pitch": 79, "duration": 30, "velocity": 25}, {"time": 76741, "pitch": 80, "duration": 30, "velocity": 36}, {"time": 76761, "pitch": 81, "duration": 30, "velocity": 56}, {"time": 76781, "pitch": 82, "duration": 30, "velocity": 44}, {"time": 76801, "pitch": 53, "duration": 60, "velocity": 92}, {"time": 76871, "pitch": 50, "duration": 61, "velocity": 87}, {"time": 76962, "pitch": 47, "duration": 60, "velocity": 92}, {"time": 77042, "pitch": 50, "duration": 60, "velocity": 87}, {"time": 77123, "pitch": 47, "duration": 60, "velocity": 92}, {"time": 77203, "pitch": 43, "duration": 60, "velocity": 87}, {"time": 77283, "pitch": 40, "duration": 178, "velocity": 90}, {"time": 77520, "pitch": 43, "duration": 148, "velocity": 85}, {"time": 77757, "pitch": 45, "duration": 241, "velocity": 92}, {"time": 77998, "pitch": 43, "duration": 141, "velocity": 74}, {"time": 78139, "pitch": 40, "duration": 100, "velocity": 64}, {"time": 78239, "pitch": 45, "duration": 241, "velocity": 73}, {"time": 78480, "pitch": 47, "duration": 241, "velocity": 83}, {"time": 79203, "pitch": 40, "duration": 178, "velocity": 90}, {"time": 79440, "pitch": 43, "duration": 148, "velocity": 85}, {"time": 79677, "pitch": 45, "duration": 241, "velocity": 92}, {"time": 79918, "pitch": 43, "duration": 151, "velocity": 83}, {"time": 80059, "pitch": 42, "duration": 100, "velocity": 78}, {"time": 81123, "pitch": 40, "duration": 178, "velocity": 90}, {"time": 81360, "pitch": 43, "duration": 148, "velocity": 85}, {"time": 81597, "pitch": 45, "duration": 241, "velocity": 92}, {"time": 81838, "pitch": 43, "duration": 141, "velocity": 75}, {"time": 81979, "pitch": 40, "duration": 100, "velocity": 69}, {"time": 82079, "pitch": 45, "duration": 241, "velocity": 73}, {"time": 82320, "pitch": 47, "duration": 241, "velocity": 83}, {"time": 83043, "pitch": 40, "duration": 178, "velocity": 90}, {"time": 83280, "pitch": 43, "duration": 148, "velocity": 85}, {"time": 83517, "pitch": 45, "duration": 241, "velocity": 92}, {"time": 83758, "pitch": 43, "duration": 151, "velocity": 83}, {"time": 83899, "pitch": 42, "duration": 100, "velocity": 78}, {"time": 84964, "pitch": 40, "duration": 177, "velocity": 90}, {"time": 85200, "pitch": 43, "duration": 149, "velocity": 85}, {"time": 85437, "pitch": 45, "duration": 241, "velocity": 92}, {"time": 85678, "pitch": 43, "duration": 141, "velocity": 74}, {"time": 85819, "pitch": 40, "duration": 100, "velocity": 64}, {"time": 85919, "pitch": 45, "duration": 242, "velocity": 73}, {"time": 86161, "pitch": 47, "duration": 241, "velocity": 83}, {"time": 86884, "pitch": 40, "duration": 177, "velocity": 90}, {"time": 87121, "pitch": 43, "duration": 148, "velocity": 85}, {"time": 87358, "pitch": 45, "duration": 241, "velocity": 92}, {"time": 87599, "pitch": 43, "duration": 150, "velocity": 83}, {"time": 87739, "pitch": 42, "duration": 101, "velocity": 78}, {"time": 88804, "pitch": 40, "duration": 177, "velocity": 90}, {"time": 89041, "pitch": 43, "duration": 148, "velocity": 85}, {"time": 89278, "pitch": 45, "duration": 241, "velocity": 92}, {"time": 89519, "pitch": 43, "duration": 140, "velocity": 75}, {"time": 89659, "pitch": 40, "duration": 101, "velocity": 69}, {"time": 89760, "pitch": 45, "duration": 241, "velocity": 74}, {"time": 90001, "pitch": 47, "duration": 241, "velocity": 83}, {"time": 90724, "pitch": 40, "duration": 177, "velocity": 90}, {"time": 90961, "pitch": 43, "duration": 148, "velocity": 85}, {"time": 91198, "pitch": 45, "duration": 241, "velocity": 92}, {"time": 91439, "pitch": 43, "duration": 150, "velocity": 83}, {"time": 91579, "pitch": 42, "duration": 101, "velocity": 78}, {"time": 92644, "pitch": 40, "duration": 178, "velocity": 90}, {"time": 92881, "pitch": 43, "duration": 148, "velocity": 85}, {"time": 93118, "pitch": 45, "duration": 241, "velocity": 92}, {"time": 93359, "pitch": 43, "duration": 140, "velocity": 75}, {"time": 93499, "pitch": 40, "duration": 101, "velocity": 69}, {"time": 93600, "pitch": 45, "duration": 241, "velocity": 73}, {"time": 93841, "pitch": 47, "duration": 241, "velocity": 83}, {"time": 94564, "pitch": 40, "duration": 178, "velocity": 90}, {"time": 94801, "pitch": 43, "duration": 148, "velocity": 85}, {"time": 95038, "pitch": 45, "duration": 241, "velocity": 92}, {"time": 95279, "pitch": 43, "duration": 150, "velocity": 83}, {"time": 95419, "pitch": 42, "duration": 101, "velocity": 78}, {"time": 96484, "pitch": 40, "duration": 178, "velocity": 90}, {"time": 96721, "pitch": 43, "duration": 148, "velocity": 85}, {"time": 96958, "pitch": 45, "duration": 241, "velocity": 92}, {"time": 97199, "pitch": 43, "duration": 141, "velocity": 74}, {"time": 97340, "pitch": 40, "duration": 100, "velocity": 69}, {"time": 97440, "pitch": 45, "duration": 241, "velocity": 73}, {"time": 97681, "pitch": 47, "duration": 241, "velocity": 83}, {"time": 98404, "pitch": 40, "duration": 178, "velocity": 90}, {"time": 98641, "pitch": 43, "duration": 148, "velocity": 85}, {"time": 98878, "pitch": 45, "duration": 241, "velocity": 92}, {"time": 99119, "pitch": 43, "duration": 151, "velocity": 83}, {"time": 99260, "pitch": 42, "duration": 80, "velocity": 78}, {"time": 99842, "pitch": 48, "duration": 59, "velocity": 92}, {"time": 99921, "pitch": 43, "duration": 59, "velocity": 90}, {"time": 100000, "pitch": 40, "duration": 59, "velocity": 87}, {"time": 100079, "pitch": 43, "duration": 59, "velocity": 92}, {"time": 100158, "pitch": 40, "duration": 59, "velocity": 89}, {"time": 100237, "pitch": 35, "duration": 59, "velocity": 86}, {"time": 100316, "pitch": 36, "duration": 181, "velocity": 90}, {"time": 100557, "pitch": 43, "duration": 151, "velocity": 85}, {"time": 100798, "pitch": 48, "duration": 121, "velocity": 92}, {"time": 100939, "pitch": 43, "duration": 90, "velocity": 83}, {"time": 101039, "pitch": 40, "duration": 121, "velocity": 92}, {"time": 101180, "pitch": 35, "duration": 80, "velocity": 83}, {"time": 102236, "pitch": 41, "duration": 181, "velocity": 90}, {"time": 102477, "pitch": 43, "duration": 151, "velocity": 85}, {"time": 102718, "pitch": 48, "duration": 121, "velocity": 92}, {"time": 102859, "pitch": 43, "duration": 90, "velocity": 83}, {"time": 102959, "pitch": 39, "duration": 121, "velocity": 92}, {"time": 103100, "pitch": 41, "duration": 80, "velocity": 83}, {"time": 104156, "pitch": 35, "duration": 181, "velocity": 90}, {"time": 104397, "pitch": 42, "duration": 151, "velocity": 85}, {"time": 104638, "pitch": 47, "duration": 121, "velocity": 92}, {"time": 104779, "pitch": 42, "duration": 90, "velocity": 83}, {"time": 104879, "pitch": 38, "duration": 121, "velocity": 92}, {"time": 105020, "pitch": 35, "duration": 80, "velocity": 83}, {"time": 106076, "pitch": 40, "duration": 181, "velocity": 90}, {"time": 106317, "pitch": 43, "duration": 151, "velocity": 85}, {"time": 106558, "pitch": 50, "duration": 121, "velocity": 92}, {"time": 106699, "pitch": 43, "duration": 90, "velocity": 83}, {"time": 106799, "pitch": 40, "duration": 121, "velocity": 92}, {"time": 106940, "pitch": 43, "duration": 80, "velocity": 83}, {"time": 107040, "pitch": 40, "duration": 241, "velocity": 90}, {"time": 107281, "pitch": 52, "duration": 91, "velocity": 85}, {"time": 107522, "pitch": 38, "duration": 237, "velocity": 90}, {"time": 107759, "pitch": 50, "duration": 89, "velocity": 85}, {"time": 107996, "pitch": 33, "duration": 181, "velocity": 90}, {"time": 108237, "pitch": 40, "duration": 151, "velocity": 90}, {"time": 108478, "pitch": 45, "duration": 121, "velocity": 92}, {"time": 108619, "pitch": 43, "duration": 90, "velocity": 83}, {"time": 108719, "pitch": 40, "duration": 121, "velocity": 92}, {"time": 108860, "pitch": 33, "duration": 80, "velocity": 83}, {"time": 109916, "pitch": 35, "duration": 181, "velocity": 90}, {"time": 110157, "pitch": 42, "duration": 151, "velocity": 90}, {"time": 110398, "pitch": 47, "duration": 121, "velocity": 92}, {"time": 110539, "pitch": 42, "duration": 90, "velocity": 83}, {"time": 110639, "pitch": 38, "duration": 121, "velocity": 92}, {"time": 110780, "pitch": 35, "duration": 80, "velocity": 83}, {"time": 111836, "pitch": 36, "duration": 181, "velocity": 90}, {"time": 112077, "pitch": 43, "duration": 151, "velocity": 90}, {"time": 112319, "pitch": 48, "duration": 120, "velocity": 92}, {"time": 112459, "pitch": 43, "duration": 91, "velocity": 83}, {"time": 112560, "pitch": 39, "duration": 120, "velocity": 92}, {"time": 112700, "pitch": 36, "duration": 81, "velocity": 83}, {"time": 113042, "pitch": 36, "duration": 30, "velocity": 66}, {"time": 113062, "pitch": 37, "duration": 30, "velocity": 61}, {"time": 113082, "pitch": 38, "duration": 30, "velocity": 69}, {"time": 113102, "pitch": 39, "duration": 30, "velocity": 44}, {"time": 113122, "pitch": 40, "duration": 30, "velocity": 61}, {"time": 113142, "pitch": 41, "duration": 30, "velocity": 48}, {"time": 113162, "pitch": 42, "duration": 30, "velocity": 44}, {"time": 113182, "pitch": 43, "duration": 30, "velocity": 52}, {"time": 113202, "pitch": 44, "duration": 30, "velocity": 52}, {"time": 113222, "pitch": 45, "duration": 31, "velocity": 78}, {"time": 113243, "pitch": 46, "duration": 30, "velocity": 61}, {"time": 113263, "pitch": 47, "duration": 30, "velocity": 73}, {"time": 113283, "pitch": 72, "duration": 29, "velocity": 73}, {"time": 113302, "pitch": 71, "duration": 30, "velocity": 78}, {"time": 113322, "pitch": 70, "duration": 30, "velocity": 64}, {"time": 113342, "pitch": 69, "duration": 29, "velocity": 69}, {"time": 113362, "pitch": 68, "duration": 29, "velocity": 69}, {"time": 113381, "pitch": 67, "duration": 30, "velocity": 69}, {"time": 113401, "pitch": 66, "duration": 30, "velocity": 56}, {"time": 113421, "pitch": 65, "duration": 29, "velocity": 56}, {"time": 113441, "pitch": 64, "duration": 29, "velocity": 73}, {"time": 113460, "pitch": 63, "duration": 30, "velocity": 64}, {"time": 113480, "pitch": 62, "duration": 30, "velocity": 64}, {"time": 113500, "pitch": 61, "duration": 29, "velocity": 56}, {"time": 113520, "pitch": 60, "duration": 29, "velocity": 66}, {"time": 113539, "pitch": 59, "duration": 30, "velocity": 64}, {"time": 113559, "pitch": 58, "duration": 30, "velocity": 56}, {"time": 113579, "pitch": 57, "duration": 29, "velocity": 75}, {"time": 113599, "pitch": 56, "duration": 29, "velocity": 69}, {"time": 113618, "pitch": 55, "duration": 30, "velocity": 69}, {"time": 113638, "pitch": 54, "duration": 30, "velocity": 48}, {"time": 113658, "pitch": 53, "duration": 29, "velocity": 64}, {"time": 113678, "pitch": 52, "duration": 29, "velocity": 69}, {"time": 113697, "pitch": 51, "duration": 30, "velocity": 61}, {"time": 113717, "pitch": 50, "duration": 30, "velocity": 56}, {"time": 113737, "pitch": 49, "duration": 20, "velocity": 44}, {"time": 113757, "pitch": 38, "duration": 241, "velocity": 92}, {"time": 113998, "pitch": 50, "duration": 90, "velocity": 87}, {"time": 114239, "pitch": 37, "duration": 241, "velocity": 78}, {"time": 114480, "pitch": 49, "duration": 90, "velocity": 92}, {"time": 114721, "pitch": 36, "duration": 241, "velocity": 85}, {"time": 114962, "pitch": 48, "duration": 90, "velocity": 92}, {"time": 115203, "pitch": 35, "duration": 237, "velocity": 90}, {"time": 115440, "pitch": 50, "duration": 89, "velocity": 92}, {"time": 115677, "pitch": 36, "duration": 241, "velocity": 92}, {"time": 115918, "pitch": 48, "duration": 100, "velocity": 87}, {"time": 116159, "pitch": 36, "duration": 391, "velocity": 92}, {"time": 116540, "pitch": 48, "duration": 61, "velocity": 87}, {"time": 116641, "pitch": 35, "duration": 241, "velocity": 92}, {"time": 116882, "pitch": 47, "duration": 100, "velocity": 87}, {"time": 117123, "pitch": 38, "duration": 237, "velocity": 92}, {"time": 117360, "pitch": 50, "duration": 98, "velocity": 87}, {"time": 117597, "pitch": 28, "duration": 241, "velocity": 92}, {"time": 117838, "pitch": 40, "duration": 100, "velocity": 87}, {"time": 118079, "pitch": 35, "duration": 251, "velocity": 92}, {"time": 118320, "pitch": 34, "duration": 241, "velocity": 87}, {"time": 118561, "pitch": 33, "duration": 241, "velocity": 92}, {"time": 118802, "pitch": 45, "duration": 100, "velocity": 87}, {"time": 119043, "pitch": 33, "duration": 237, "velocity": 92}, {"time": 119280, "pitch": 45, "duration": 99, "velocity": 87}, {"time": 119517, "pitch": 33, "duration": 241, "velocity": 92}, {"time": 119758, "pitch": 45, "duration": 100, "velocity": 87}, {"time": 119999, "pitch": 33, "duration": 392, "velocity": 92}, {"time": 120380, "pitch": 45, "duration": 61, "velocity": 87}, {"time": 120481, "pitch": 38, "duration": 241, "velocity": 92}, {"time": 120722, "pitch": 50, "duration": 100, "velocity": 87}, {"time": 120963, "pitch": 40, "duration": 237, "velocity": 92}, {"time": 121200, "pitch": 50, "duration": 99, "velocity": 87}, {"time": 121437, "pitch": 31, "duration": 241, "velocity": 92}, {"time": 121678, "pitch": 43, "duration": 100, "velocity": 87}, {"time": 121919, "pitch": 31, "duration": 392, "velocity": 92}, {"time": 122301, "pitch": 43, "duration": 60, "velocity": 87}, {"time": 122401, "pitch": 35, "duration": 241, "velocity": 92}, {"time": 122642, "pitch": 47, "duration": 100, "velocity": 87}, {"time": 122883, "pitch": 38, "duration": 237, "velocity": 92}, {"time": 123120, "pitch": 50, "duration": 99, "velocity": 87}, {"time": 123357, "pitch": 36, "duration": 241, "velocity": 92}, {"time": 123598, "pitch": 48, "duration": 100, "velocity": 87}, {"time": 123839, "pitch": 36, "duration": 392, "velocity": 92}, {"time": 124221, "pitch": 48, "duration": 60, "velocity": 87}, {"time": 124321, "pitch": 35, "duration": 241, "velocity": 92}, {"time": 124562, "pitch": 47, "duration": 101, "velocity": 87}, {"time": 124803, "pitch": 38, "duration": 237, "velocity": 92}, {"time": 125040, "pitch": 50, "duration": 99, "velocity": 87}, {"time": 125277, "pitch": 28, "duration": 241, "velocity": 92}, {"time": 125518, "pitch": 40, "duration": 100, "velocity": 87}, {"time": 125759, "pitch": 35, "duration": 251, "velocity": 92}, {"time": 126000, "pitch": 34, "duration": 241, "velocity": 87}, {"time": 126241, "pitch": 33, "duration": 241, "velocity": 92}, {"time": 126482, "pitch": 45, "duration": 101, "velocity": 87}, {"time": 126723, "pitch": 33, "duration": 237, "velocity": 92}, {"time": 126960, "pitch": 45, "duration": 99, "velocity": 87}, {"time": 127197, "pitch": 33, "duration": 241, "velocity": 92}, {"time": 127438, "pitch": 45, "duration": 101, "velocity": 87}, {"time": 127679, "pitch": 35, "duration": 241, "velocity": 92}, {"time": 127920, "pitch": 47, "duration": 101, "velocity": 87}, {"time": 128161, "pitch": 36, "duration": 241, "velocity": 92}, {"time": 128402, "pitch": 48, "duration": 101, "velocity": 87}, {"time": 128643, "pitch": 37, "duration": 237, "velocity": 92}, {"time": 128880, "pitch": 49, "duration": 99, "velocity": 87}, {"time": 129117, "pitch": 38, "duration": 20, "velocity": 69}, {"time": 129599, "pitch": 35, "duration": 30, "velocity": 33}, {"time": 129619, "pitch": 36, "duration": 30, "velocity": 39}, {"time": 129639, "pitch": 37, "duration": 31, "velocity": 32}, {"time": 129659, "pitch": 38, "duration": 31, "velocity": 40}, {"time": 129680, "pitch": 39, "duration": 30, "velocity": 30}, {"time": 129700, "pitch": 40, "duration": 30, "velocity": 52}, {"time": 129720, "pitch": 41, "duration": 30, "velocity": 44}, {"time": 129740, "pitch": 42, "duration": 30, "velocity": 40}, {"time": 129760, "pitch": 43, "duration": 30, "velocity": 48}, {"time": 129780, "pitch": 44, "duration": 30, "velocity": 39}, {"time": 129800, "pitch": 45, "duration": 30, "velocity": 48}, {"time": 129820, "pitch": 46, "duration": 30, "velocity": 36}, {"time": 129840, "pitch": 47, "duration": 30, "velocity": 52}, {"time": 129860, "pitch": 48, "duration": 30, "velocity": 46}, {"time": 129880, "pitch": 49, "duration": 31, "velocity": 56}, {"time": 129901, "pitch": 50, "duration": 30, "velocity": 54}, {"time": 129921, "pitch": 51, "duration": 30, "velocity": 33}, {"time": 129941, "pitch": 52, "duration": 30, "velocity": 48}, {"time": 129961, "pitch": 53, "duration": 30, "velocity": 40}, {"time": 129981, "pitch": 54, "duration": 30, "velocity": 69}, {"time": 130001, "pitch": 55, "duration": 30, "velocity": 21}, {"time": 130021, "pitch": 56, "duration": 30, "velocity": 54}, {"time": 130041, "pitch": 57, "duration": 30, "velocity": 56}, {"time": 130061, "pitch": 58, "duration": 30, "velocity": 14}, {"time": 130081, "pitch": 59, "duration": 30, "velocity": 39}, {"time": 130101, "pitch": 60, "duration": 31, "velocity": 48}, {"time": 130121, "pitch": 61, "duration": 31, "velocity": 46}, {"time": 130142, "pitch": 62, "duration": 30, "velocity": 43}, {"time": 130162, "pitch": 63, "duration": 30, "velocity": 31}, {"time": 130182, "pitch": 64, "duration": 30, "velocity": 56}, {"time": 130202, "pitch": 65, "duration": 30, "velocity": 52}, {"time": 130222, "pitch": 66, "duration": 30, "velocity": 56}, {"time": 130242, "pitch": 67, "duration": 30, "velocity": 35}, {"time": 130262, "pitch": 68, "duration": 30, "velocity": 40}, {"time": 130282, "pitch": 69, "duration": 30, "velocity": 52}, {"time": 130302, "pitch": 70, "duration": 30, "velocity": 40}, {"time": 130322, "pitch": 71, "duration": 30, "velocity": 52}, {"time": 130342, "pitch": 72, "duration": 31, "velocity": 33}, {"time": 130363, "pitch": 73, "duration": 30, "velocity": 52}, {"time": 130383, "pitch": 74, "duration": 30, "velocity": 36}, {"time": 130403, "pitch": 75, "duration": 30, "velocity": 32}, {"time": 130423, "pitch": 76, "duration": 30, "velocity": 48}, {"time": 130443, "pitch": 77, "duration": 30, "velocity": 33}, {"time": 130463, "pitch": 78, "duration": 30, "velocity": 48}, {"time": 130483, "pitch": 79, "duration": 30, "velocity": 25}, {"time": 130503, "pitch": 80, "duration": 30, "velocity": 36}, {"time": 130523, "pitch": 81, "duration": 30, "velocity": 56}, {"time": 130543, "pitch": 82, "duration": 30, "velocity": 44}, {"time": 130563, "pitch": 38, "duration": 148, "velocity": 92}, {"time": 130702, "pitch": 50, "duration": 59, "velocity": 87}, {"time": 130800, "pitch": 39, "duration": 168, "velocity": 92}, {"time": 130958, "pitch": 51, "duration": 60, "velocity": 87}, {"time": 131037, "pitch": 40, "duration": 201, "velocity": 92}, {"time": 131760, "pitch": 40, "duration": 221, "velocity": 92}, {"time": 132957, "pitch": 40, "duration": 211, "velocity": 92}, {"time": 133680, "pitch": 40, "duration": 161, "velocity": 92}, {"time": 134403, "pitch": 40, "duration": 139, "velocity": 92}, {"time": 134542, "pitch": 52, "duration": 49, "velocity": 85}, {"time": 134640, "pitch": 42, "duration": 139, "velocity": 92}, {"time": 134779, "pitch": 54, "duration": 39, "velocity": 87}, {"time": 134877, "pitch": 40, "duration": 201, "velocity": 92}, {"time": 135600, "pitch": 40, "duration": 221, "velocity": 92}, {"time": 136797, "pitch": 40, "duration": 211, "velocity": 92}, {"time": 137521, "pitch": 40, "duration": 160, "velocity": 92}, {"time": 138244, "pitch": 40, "duration": 138, "velocity": 92}, {"time": 138382, "pitch": 52, "duration": 49, "velocity": 85}, {"time": 138481, "pitch": 42, "duration": 138, "velocity": 92}, {"time": 138619, "pitch": 54, "duration": 39, "velocity": 87}, {"time": 138718, "pitch": 40, "duration": 200, "velocity": 92}, {"time": 139441, "pitch": 40, "duration": 221, "velocity": 92}, {"time": 140638, "pitch": 40, "duration": 211, "velocity": 92}, {"time": 141361, "pitch": 40, "duration": 160, "velocity": 92}, {"time": 142084, "pitch": 40, "duration": 138, "velocity": 92}, {"time": 142222, "pitch": 52, "duration": 49, "velocity": 85}, {"time": 142321, "pitch": 42, "duration": 138, "velocity": 92}, {"time": 142459, "pitch": 54, "duration": 39, "velocity": 87}, {"time": 142558, "pitch": 40, "duration": 201, "velocity": 92}, {"time": 143281, "pitch": 40, "duration": 221, "velocity": 92}, {"time": 144478, "pitch": 40, "duration": 211, "velocity": 92}, {"time": 145201, "pitch": 40, "duration": 161, "velocity": 92}, {"time": 145924, "pitch": 40, "duration": 138, "velocity": 92}, {"time": 146062, "pitch": 52, "duration": 50, "velocity": 85}, {"time": 146161, "pitch": 42, "duration": 138, "velocity": 92}, {"time": 146299, "pitch": 54, "duration": 40, "velocity": 87}, {"time": 159119, "pitch": 36, "duration": 30, "velocity": 66}, {"time": 159139, "pitch": 37, "duration": 30, "velocity": 61}, {"time": 159159, "pitch": 38, "duration": 30, "velocity": 69}, {"time": 159179, "pitch": 39, "duration": 29, "velocity": 44}, {"time": 159198, "pitch": 40, "duration": 30, "velocity": 61}, {"time": 159218, "pitch": 41, "duration": 30, "velocity": 48}, {"time": 159238, "pitch": 42, "duration": 30, "velocity": 44}, {"time": 159258, "pitch": 43, "duration": 29, "velocity": 52}, {"time": 159277, "pitch": 44, "duration": 30, "velocity": 52}, {"time": 159297, "pitch": 45, "duration": 30, "velocity": 78}, {"time": 159317, "pitch": 46, "duration": 29, "velocity": 61}, {"time": 159337, "pitch": 47, "duration": 29, "velocity": 73}, {"time": 159356, "pitch": 72, "duration": 30, "velocity": 73}, {"time": 159376, "pitch": 71, "duration": 31, "velocity": 78}, {"time": 159396, "pitch": 70, "duration": 31, "velocity": 64}, {"time": 159417, "pitch": 69, "duration": 30, "velocity": 69}, {"time": 159437, "pitch": 68, "duration": 30, "velocity": 69}, {"time": 159457, "pitch": 67, "duration": 30, "velocity": 69}, {"time": 159477, "pitch": 66, "duration": 30, "velocity": 56}, {"time": 159497, "pitch": 65, "duration": 30, "velocity": 56}, {"time": 159517, "pitch": 64, "duration": 30, "velocity": 73}, {"time": 159537, "pitch": 63, "duration": 30, "velocity": 64}, {"time": 159557, "pitch": 62, "duration": 30, "velocity": 64}, {"time": 159577, "pitch": 61, "duration": 30, "velocity": 56}, {"time": 159597, "pitch": 60, "duration": 30, "velocity": 66}, {"time": 159617, "pitch": 59, "duration": 31, "velocity": 64}, {"time": 159638, "pitch": 58, "duration": 30, "velocity": 56}, {"time": 159658, "pitch": 57, "duration": 30, "velocity": 75}, {"time": 159678, "pitch": 56, "duration": 30, "velocity": 69}, {"time": 159698, "pitch": 55, "duration": 30, "velocity": 69}, {"time": 159718, "pitch": 54, "duration": 30, "velocity": 48}, {"time": 159738, "pitch": 53, "duration": 30, "velocity": 64}, {"time": 159758, "pitch": 52, "duration": 30, "velocity": 69}, {"time": 159778, "pitch": 51, "duration": 30, "velocity": 61}, {"time": 159798, "pitch": 50, "duration": 30, "velocity": 56}, {"time": 159818, "pitch": 49, "duration": 20, "velocity": 44}, {"time": 159838, "pitch": 38, "duration": 241, "velocity": 92}, {"time": 160079, "pitch": 50, "duration": 91, "velocity": 87}, {"time": 160320, "pitch": 37, "duration": 242, "velocity": 78}, {"time": 160562, "pitch": 49, "duration": 90, "velocity": 92}, {"time": 160803, "pitch": 36, "duration": 236, "velocity": 85}, {"time": 161039, "pitch": 48, "duration": 89, "velocity": 92}, {"time": 161276, "pitch": 35, "duration": 241, "velocity": 90}, {"time": 161517, "pitch": 50, "duration": 91, "velocity": 92}, {"time": 161758, "pitch": 36, "duration": 242, "velocity": 92}, {"time": 162000, "pitch": 48, "duration": 100, "velocity": 87}, {"time": 162241, "pitch": 36, "duration": 391, "velocity": 92}, {"time": 162622, "pitch": 48, "duration": 60, "velocity": 87}, {"time": 162723, "pitch": 35, "duration": 237, "velocity": 92}, {"time": 162960, "pitch": 47, "duration": 98, "velocity": 87}, {"time": 163197, "pitch": 38, "duration": 241, "velocity": 92}, {"time": 163438, "pitch": 50, "duration": 100, "velocity": 87}, {"time": 163679, "pitch": 28, "duration": 241, "velocity": 92}, {"time": 163920, "pitch": 40, "duration": 100, "velocity": 87}, {"time": 164161, "pitch": 35, "duration": 251, "velocity": 92}, {"time": 164402, "pitch": 34, "duration": 241, "velocity": 87}, {"time": 164643, "pitch": 33, "duration": 237, "velocity": 92}, {"time": 164880, "pitch": 45, "duration": 98, "velocity": 87}, {"time": 165117, "pitch": 33, "duration": 241, "velocity": 92}, {"time": 165358, "pitch": 45, "duration": 100, "velocity": 87}, {"time": 165599, "pitch": 33, "duration": 241, "velocity": 92}, {"time": 165840, "pitch": 45, "duration": 100, "velocity": 87}, {"time": 166081, "pitch": 33, "duration": 391, "velocity": 92}, {"time": 166462, "pitch": 45, "duration": 61, "velocity": 87}, {"time": 166563, "pitch": 38, "duration": 237, "velocity": 92}, {"time": 166800, "pitch": 50, "duration": 98, "velocity": 87}, {"time": 167037, "pitch": 40, "duration": 241, "velocity": 92}, {"time": 167278, "pitch": 50, "duration": 100, "velocity": 87}, {"time": 167519, "pitch": 31, "duration": 241, "velocity": 92}, {"time": 167760, "pitch": 43, "duration": 100, "velocity": 87}, {"time": 168001, "pitch": 31, "duration": 392, "velocity": 92}, {"time": 168382, "pitch": 43, "duration": 61, "velocity": 87}, {"time": 168483, "pitch": 35, "duration": 237, "velocity": 92}, {"time": 168720, "pitch": 47, "duration": 99, "velocity": 87}, {"time": 168957, "pitch": 38, "duration": 241, "velocity": 92}, {"time": 169198, "pitch": 50, "duration": 100, "velocity": 87}, {"time": 169439, "pitch": 36, "duration": 241, "velocity": 92}, {"time": 169680, "pitch": 48, "duration": 100, "velocity": 87}, {"time": 169921, "pitch": 36, "duration": 392, "velocity": 92}, {"time": 170303, "pitch": 48, "duration": 60, "velocity": 87}, {"time": 170403, "pitch": 35, "duration": 237, "velocity": 92}, {"time": 170640, "pitch": 47, "duration": 99, "velocity": 87}, {"time": 170877, "pitch": 38, "duration": 241, "velocity": 92}, {"time": 171118, "pitch": 50, "duration": 100, "velocity": 87}, {"time": 171359, "pitch": 28, "duration": 241, "velocity": 92}, {"time": 171600, "pitch": 40, "duration": 100, "velocity": 87}, {"time": 171841, "pitch": 35, "duration": 251, "velocity": 92}, {"time": 172082, "pitch": 34, "duration": 241, "velocity": 87}, {"time": 172323, "pitch": 33, "duration": 237, "velocity": 92}, {"time": 172560, "pitch": 45, "duration": 99, "velocity": 87}, {"time": 172797, "pitch": 33, "duration": 241, "velocity": 92}, {"time": 173038, "pitch": 45, "duration": 100, "velocity": 87}, {"time": 173279, "pitch": 33, "duration": 241, "velocity": 92}, {"time": 173520, "pitch": 45, "duration": 100, "velocity": 87}, {"time": 173761, "pitch": 35, "duration": 241, "velocity": 92}, {"time": 174002, "pitch": 47, "duration": 101, "velocity": 87}, {"time": 174243, "pitch": 36, "duration": 237, "velocity": 92}, {"time": 174480, "pitch": 48, "duration": 99, "velocity": 87}, {"time": 174717, "pitch": 37, "duration": 241, "velocity": 92}, {"time": 174958, "pitch": 49, "duration": 100, "velocity": 87}, {"time": 175199, "pitch": 38, "duration": 241, "velocity": 92}, {"time": 175440, "pitch": 50, "duration": 101, "velocity": 87}, {"time": 175681, "pitch": 38, "duration": 241, "velocity": 92}, {"time": 175922, "pitch": 50, "duration": 101, "velocity": 87}, {"time": 176163, "pitch": 47, "duration": 237, "velocity": 92}, {"time": 176400, "pitch": 55, "duration": 99, "velocity": 87}, {"time": 176637, "pitch": 47, "duration": 241, "velocity": 92}, {"time": 176878, "pitch": 55, "duration": 101, "velocity": 87}, {"time": 177119, "pitch": 36, "duration": 241, "velocity": 92}, {"time": 177360, "pitch": 48, "duration": 101, "velocity": 87}, {"time": 177601, "pitch": 36, "duration": 392, "velocity": 92}, {"time": 177983, "pitch": 48, "duration": 60, "velocity": 87}, {"time": 178083, "pitch": 35, "duration": 237, "velocity": 92}, {"time": 178320, "pitch": 47, "duration": 99, "velocity": 87}, {"time": 178557, "pitch": 38, "duration": 241, "velocity": 92}, {"time": 178798, "pitch": 50, "duration": 101, "velocity": 87}, {"time": 179039, "pitch": 28, "duration": 241, "velocity": 92}, {"time": 179280, "pitch": 40, "duration": 101, "velocity": 87}, {"time": 179521, "pitch": 35, "duration": 251, "velocity": 92}, {"time": 179762, "pitch": 34, "duration": 241, "velocity": 87}, {"time": 180003, "pitch": 33, "duration": 237, "velocity": 92}, {"time": 180240, "pitch": 45, "duration": 99, "velocity": 87}, {"time": 180477, "pitch": 33, "duration": 241, "velocity": 92}, {"time": 180718, "pitch": 45, "duration": 101, "velocity": 87}, {"time": 180959, "pitch": 33, "duration": 241, "velocity": 92}, {"time": 181200, "pitch": 45, "duration": 101, "velocity": 87}, {"time": 181441, "pitch": 33, "duration": 392, "velocity": 92}, {"time": 181823, "pitch": 45, "duration": 60, "velocity": 87}, {"time": 181923, "pitch": 38, "duration": 237, "velocity": 92}, {"time": 182160, "pitch": 50, "duration": 99, "velocity": 87}, {"time": 182397, "pitch": 40, "duration": 241, "velocity": 92}, {"time": 182638, "pitch": 50, "duration": 101, "velocity": 87}, {"time": 182879, "pitch": 31, "duration": 241, "velocity": 92}, {"time": 183120, "pitch": 43, "duration": 101, "velocity": 87}, {"time": 183361, "pitch": 31, "duration": 392, "velocity": 92}, {"time": 183743, "pitch": 43, "duration": 60, "velocity": 87}, {"time": 183843, "pitch": 35, "duration": 237, "velocity": 92}, {"time": 184080, "pitch": 47, "duration": 99, "velocity": 87}, {"time": 184317, "pitch": 38, "duration": 241, "velocity": 92}, {"time": 184558, "pitch": 50, "duration": 101, "velocity": 87}, {"time": 184799, "pitch": 36, "duration": 241, "velocity": 92}, {"time": 185040, "pitch": 48, "duration": 101, "velocity": 87}, {"time": 185282, "pitch": 36, "duration": 391, "velocity": 92}, {"time": 185663, "pitch": 48, "duration": 60, "velocity": 87}, {"time": 185764, "pitch": 35, "duration": 237, "velocity": 92}, {"time": 186001, "pitch": 47, "duration": 98, "velocity": 87}, {"time": 186237, "pitch": 38, "duration": 241, "velocity": 92}, {"time": 186478, "pitch": 50, "duration": 101, "velocity": 87}, {"time": 186720, "pitch": 28, "duration": 241, "velocity": 92}, {"time": 186961, "pitch": 40, "duration": 100, "velocity": 87}, {"time": 187202, "pitch": 35, "duration": 251, "velocity": 92}, {"time": 187443, "pitch": 34, "duration": 241, "velocity": 87}, {"time": 187684, "pitch": 33, "duration": 237, "velocity": 92}, {"time": 187921, "pitch": 45, "duration": 98, "velocity": 87}, {"time": 188158, "pitch": 33, "duration": 241, "velocity": 92}, {"time": 188399, "pitch": 45, "duration": 100, "velocity": 87}, {"time": 188640, "pitch": 33, "duration": 241, "velocity": 92}, {"time": 188881, "pitch": 45, "duration": 100, "velocity": 87}, {"time": 189122, "pitch": 35, "duration": 241, "velocity": 92}, {"time": 189363, "pitch": 47, "duration": 100, "velocity": 87}, {"time": 189604, "pitch": 36, "duration": 237, "velocity": 92}, {"time": 189841, "pitch": 48, "duration": 98, "velocity": 87}, {"time": 190078, "pitch": 37, "duration": 241, "velocity": 92}, {"time": 190319, "pitch": 49, "duration": 100, "velocity": 87}, {"time": 190560, "pitch": 38, "duration": 20, "velocity": 69}, {"time": 191042, "pitch": 35, "duration": 30, "velocity": 33}, {"time": 191062, "pitch": 36, "duration": 30, "velocity": 39}, {"time": 191082, "pitch": 37, "duration": 30, "velocity": 32}, {"time": 191102, "pitch": 38, "duration": 30, "velocity": 40}, {"time": 191122, "pitch": 39, "duration": 30, "velocity": 30}, {"time": 191142, "pitch": 40, "duration": 30, "velocity": 52}, {"time": 191162, "pitch": 41, "duration": 30, "velocity": 44}, {"time": 191182, "pitch": 42, "duration": 30, "velocity": 40}, {"time": 191202, "pitch": 43, "duration": 31, "velocity": 48}, {"time": 191223, "pitch": 44, "duration": 30, "velocity": 39}, {"time": 191243, "pitch": 45, "duration": 30, "velocity": 48}, {"time": 191263, "pitch": 46, "duration": 30, "velocity": 36}, {"time": 191283, "pitch": 47, "duration": 30, "velocity": 52}, {"time": 191303, "pitch": 48, "duration": 30, "velocity": 46}, {"time": 191323, "pitch": 49, "duration": 30, "velocity": 56}, {"time": 191343, "pitch": 50, "duration": 30, "velocity": 54}, {"time": 191363, "pitch": 51, "duration": 30, "velocity": 33}, {"time": 191383, "pitch": 52, "duration": 30, "velocity": 48}, {"time": 191403, "pitch": 53, "duration": 30, "velocity": 40}, {"time": 191423, "pitch": 54, "duration": 31, "velocity": 69}, {"time": 191443, "pitch": 55, "duration": 31, "velocity": 21}, {"time": 191464, "pitch": 56, "duration": 30, "velocity": 54}, {"time": 191484, "pitch": 57, "duration": 30, "velocity": 56}, {"time": 191504, "pitch": 58, "duration": 30, "velocity": 14}, {"time": 191524, "pitch": 59, "duration": 29, "velocity": 39}, {"time": 191544, "pitch": 60, "duration": 29, "velocity": 48}, {"time": 191563, "pitch": 61, "duration": 30, "velocity": 46}, {"time": 191583, "pitch": 62, "duration": 30, "velocity": 43}, {"time": 191603, "pitch": 63, "duration": 29, "velocity": 31}, {"time": 191623, "pitch": 64, "duration": 29, "velocity": 56}, {"time": 191642, "pitch": 65, "duration": 30, "velocity": 52}, {"time": 191662, "pitch": 66, "duration": 30, "velocity": 56}, {"time": 191682, "pitch": 67, "duration": 29, "velocity": 35}, {"time": 191702, "pitch": 68, "duration": 29, "velocity": 40}, {"time": 191721, "pitch": 69, "duration": 30, "velocity": 52}, {"time": 191741, "pitch": 70, "duration": 30, "velocity": 40}, {"time": 191761, "pitch": 71, "duration": 29, "velocity": 52}, {"time": 191780, "pitch": 72, "duration": 30, "velocity": 33}, {"time": 191800, "pitch": 73, "duration": 30, "velocity": 52}, {"time": 191820, "pitch": 74, "duration": 30, "velocity": 36}, {"time": 191840, "pitch": 75, "duration": 29, "velocity": 32}, {"time": 191859, "pitch": 76, "duration": 30, "velocity": 48}, {"time": 191879, "pitch": 77, "duration": 30, "velocity": 33}, {"time": 191899, "pitch": 78, "duration": 30, "velocity": 48}, {"time": 191919, "pitch": 79, "duration": 29, "velocity": 25}, {"time": 191938, "pitch": 80, "duration": 30, "velocity": 36}, {"time": 191958, "pitch": 81, "duration": 30, "velocity": 56}, {"time": 191978, "pitch": 82, "duration": 30, "velocity": 44}, {"time": 191998, "pitch": 53, "duration": 60, "velocity": 92}, {"time": 192068, "pitch": 50, "duration": 60, "velocity": 87}, {"time": 192158, "pitch": 47, "duration": 61, "velocity": 92}, {"time": 192239, "pitch": 50, "duration": 60, "velocity": 87}, {"time": 192319, "pitch": 47, "duration": 60, "velocity": 92}, {"time": 192399, "pitch": 43, "duration": 61, "velocity": 90}, {"time": 192480, "pitch": 40, "duration": 181, "velocity": 90}, {"time": 192721, "pitch": 43, "duration": 150, "velocity": 85}, {"time": 192962, "pitch": 45, "duration": 241, "velocity": 92}, {"time": 193203, "pitch": 43, "duration": 140, "velocity": 75}, {"time": 193343, "pitch": 40, "duration": 101, "velocity": 69}, {"time": 193444, "pitch": 45, "duration": 237, "velocity": 73}, {"time": 193681, "pitch": 47, "duration": 237, "velocity": 83}, {"time": 194400, "pitch": 40, "duration": 181, "velocity": 90}, {"time": 194641, "pitch": 43, "duration": 151, "velocity": 85}, {"time": 194882, "pitch": 45, "duration": 241, "velocity": 92}, {"time": 195123, "pitch": 43, "duration": 151, "velocity": 83}, {"time": 195264, "pitch": 42, "duration": 100, "velocity": 78}, {"time": 196320, "pitch": 40, "duration": 181, "velocity": 90}, {"time": 196561, "pitch": 43, "duration": 151, "velocity": 87}, {"time": 196802, "pitch": 45, "duration": 241, "velocity": 92}, {"time": 197043, "pitch": 43, "duration": 141, "velocity": 78}, {"time": 197184, "pitch": 40, "duration": 100, "velocity": 69}, {"time": 197284, "pitch": 45, "duration": 237, "velocity": 73}, {"time": 197521, "pitch": 47, "duration": 237, "velocity": 83}, {"time": 198240, "pitch": 40, "duration": 181, "velocity": 90}, {"time": 198481, "pitch": 43, "duration": 151, "velocity": 85}, {"time": 198722, "pitch": 45, "duration": 237, "velocity": 92}, {"time": 198959, "pitch": 43, "duration": 148, "velocity": 84}, {"time": 199097, "pitch": 42, "duration": 99, "velocity": 78}, {"time": 200160, "pitch": 40, "duration": 181, "velocity": 90}, {"time": 200401, "pitch": 43, "duration": 151, "velocity": 90}, {"time": 200642, "pitch": 45, "duration": 237, "velocity": 92}, {"time": 200879, "pitch": 43, "duration": 138, "velocity": 75}, {"time": 201017, "pitch": 40, "duration": 99, "velocity": 65}, {"time": 201116, "pitch": 45, "duration": 241, "velocity": 73}, {"time": 201357, "pitch": 47, "duration": 241, "velocity": 83}, {"time": 202080, "pitch": 40, "duration": 181, "velocity": 90}, {"time": 202321, "pitch": 43, "duration": 151, "velocity": 85}, {"time": 202562, "pitch": 45, "duration": 237, "velocity": 92}, {"time": 202799, "pitch": 43, "duration": 148, "velocity": 83}, {"time": 202937, "pitch": 42, "duration": 99, "velocity": 78}, {"time": 204000, "pitch": 40, "duration": 181, "velocity": 90}, {"time": 204241, "pitch": 43, "duration": 151, "velocity": 85}, {"time": 204482, "pitch": 45, "duration": 237, "velocity": 92}, {"time": 204719, "pitch": 43, "duration": 138, "velocity": 74}, {"time": 204857, "pitch": 40, "duration": 99, "velocity": 67}, {"time": 204956, "pitch": 45, "duration": 241, "velocity": 73}, {"time": 205197, "pitch": 47, "duration": 241, "velocity": 83}, {"time": 205920, "pitch": 40, "duration": 181, "velocity": 90}, {"time": 206161, "pitch": 43, "duration": 151, "velocity": 85}, {"time": 206402, "pitch": 45, "duration": 237, "velocity": 92}, {"time": 206639, "pitch": 43, "duration": 148, "velocity": 83}, {"time": 206778, "pitch": 42, "duration": 98, "velocity": 78}], "annotations": [{"time": 292, "annotation": {"number": 7, "value": 105}, "group": "control_change"}, {"time": 313, "annotation": {"number": 11, "value": 120}, "group": "control_change"}, {"time": 334, "annotation": {"number": 10, "value": 66}, "group": "control_change"}, {"time": 355, "annotation": {"number": 91, "value": 0}, "group": "control_change"}, {"time": 376, "annotation": {"number": 93, "value": 0}, "group": "control_change"}, {"time": 397, "annotation": {"number": 101, "value": 0}, "group": "control_change"}, {"time": 417, "annotation": {"number": 100, "value": 0}, "group": "control_change"}, {"time": 438, "annotation": {"number": 6, "value": 12}, "group": "control_change"}, {"time": 459, "annotation": {"number": 101, "value": 127}, "group": "control_change"}, {"time": 480, "annotation": {"number": 100, "value": 127}, "group": "control_change"}]}, {"program": 0, "is_drum": false, "name": "STRINGS", "annotations": [{"time": 230, "annotation": {"number": 0, "value": 8}, "group": "control_change"}, {"time": 250, "annotation": {"number": 32, "value": 0}, "group": "control_change"}]}, {"program": 48, "is_drum": false, "name": "STRINGS", "notes": [{"time": 61923, "pitch": 86, "duration": 3368, "velocity": 100}, {"time": 65281, "pitch": 88, "duration": 482, "velocity": 88}, {"time": 65763, "pitch": 86, "duration": 3820, "velocity": 100}, {"time": 69603, "pitch": 86, "duration": 3368, "velocity": 100}, {"time": 72961, "pitch": 88, "duration": 482, "velocity": 90}, {"time": 73443, "pitch": 86, "duration": 3820, "velocity": 100}, {"time": 115677, "pitch": 86, "duration": 3376, "velocity": 100}, {"time": 119043, "pitch": 88, "duration": 474, "velocity": 88}, {"time": 119517, "pitch": 86, "duration": 3820, "velocity": 100}, {"time": 123357, "pitch": 86, "duration": 3376, "velocity": 100}, {"time": 126723, "pitch": 88, "duration": 474, "velocity": 90}, {"time": 127197, "pitch": 86, "duration": 3821, "velocity": 100}, {"time": 161758, "pitch": 86, "duration": 3369, "velocity": 100}, {"time": 165117, "pitch": 88, "duration": 482, "velocity": 88}, {"time": 165599, "pitch": 86, "duration": 3820, "velocity": 100}, {"time": 169439, "pitch": 86, "duration": 3368, "velocity": 100}, {"time": 172797, "pitch": 88, "duration": 482, "velocity": 90}, {"time": 173279, "pitch": 86, "duration": 3820, "velocity": 100}, {"time": 177119, "pitch": 86, "duration": 3368, "velocity": 100}, {"time": 180477, "pitch": 88, "duration": 482, "velocity": 88}, {"time": 180959, "pitch": 86, "duration": 3820, "velocity": 100}, {"time": 184799, "pitch": 86, "duration": 3369, "velocity": 100}, {"time": 188158, "pitch": 88, "duration": 482, "velocity": 90}, {"time": 188640, "pitch": 86, "duration": 3820, "velocity": 100}], "annotations": [{"time": 292, "annotation": {"number": 7, "value": 80}, "group": "control_change"}, {"time": 313, "annotation": {"number": 11, "value": 100}, "group": "control_change"}, {"time": 334, "annotation": {"number": 10, "value": 67}, "group": "control_change"}, {"time": 355, "annotation": {"number": 91, "value": 80}, "group": "control_change"}, {"time": 376, "annotation": {"number": 93, "value": 0}, "group": "control_change"}, {"time": 397, "annotation": {"number": 101, "value": 0}, "group": "control_change"}, {"time": 417, "annotation": {"number": 100, "value": 0}, "group": "control_change"}, {"time": 438, "annotation": {"number": 6, "value": 12}, "group": "control_change"}, {"time": 459, "annotation": {"number": 101, "value": 127}, "group": "control_change"}, {"time": 480, "annotation": {"number": 100, "value": 127}, "group": "control_change"}]}, {"program": 0, "is_drum": false, "name": "MELODY", "annotations": [{"time": 230, "annotation": {"number": 0, "value": 0}, "group": "control_change"}, {"time": 250, "annotation": {"number": 32, "value": 0}, "group": "control_change"}]}, {"program": 73, "is_drum": false, "name": "MELODY", "notes": [{"time": 962, "pitch": 83, "duration": 227, "velocity": 114}, {"time": 1199, "pitch": 81, "duration": 217, "velocity": 104}, {"time": 1677, "pitch": 81, "duration": 151, "velocity": 114}, {"time": 1918, "pitch": 83, "duration": 151, "velocity": 108}, {"time": 2159, "pitch": 81, "duration": 422, "velocity": 114}, {"time": 2641, "pitch": 79, "duration": 201, "velocity": 104}, {"time": 2882, "pitch": 83, "duration": 554, "velocity": 114}, {"time": 3597, "pitch": 76, "duration": 221, "velocity": 104}, {"time": 3838, "pitch": 79, "duration": 151, "velocity": 109}, {"time": 4079, "pitch": 86, "duration": 392, "velocity": 114}, {"time": 4561, "pitch": 86, "duration": 151, "velocity": 114}, {"time": 4802, "pitch": 84, "duration": 148, "velocity": 109}, {"time": 5039, "pitch": 84, "duration": 148, "velocity": 104}, {"time": 5276, "pitch": 83, "duration": 231, "velocity": 109}, {"time": 5517, "pitch": 81, "duration": 151, "velocity": 114}, {"time": 5758, "pitch": 79, "duration": 151, "velocity": 109}, {"time": 5999, "pitch": 81, "duration": 472, "velocity": 114}, {"time": 6481, "pitch": 83, "duration": 151, "velocity": 104}, {"time": 6722, "pitch": 83, "duration": 1087, "velocity": 114}, {"time": 8642, "pitch": 83, "duration": 228, "velocity": 114}, {"time": 8879, "pitch": 81, "duration": 227, "velocity": 109}, {"time": 9357, "pitch": 81, "duration": 151, "velocity": 114}, {"time": 9598, "pitch": 83, "duration": 151, "velocity": 109}, {"time": 9839, "pitch": 81, "duration": 432, "velocity": 114}, {"time": 10322, "pitch": 79, "duration": 180, "velocity": 109}, {"time": 10563, "pitch": 83, "duration": 634, "velocity": 114}, {"time": 11277, "pitch": 76, "duration": 241, "velocity": 109}, {"time": 11518, "pitch": 78, "duration": 151, "velocity": 104}, {"time": 11760, "pitch": 79, "duration": 1237, "velocity": 109}, {"time": 13198, "pitch": 79, "duration": 220, "velocity": 114}, {"time": 13439, "pitch": 81, "duration": 150, "velocity": 109}, {"time": 13680, "pitch": 84, "duration": 391, "velocity": 114}, {"time": 14162, "pitch": 84, "duration": 150, "velocity": 109}, {"time": 14403, "pitch": 83, "duration": 148, "velocity": 114}, {"time": 14640, "pitch": 83, "duration": 148, "velocity": 109}, {"time": 14877, "pitch": 79, "duration": 150, "velocity": 104}, {"time": 15118, "pitch": 79, "duration": 150, "velocity": 109}, {"time": 15359, "pitch": 81, "duration": 472, "velocity": 114}, {"time": 15841, "pitch": 78, "duration": 221, "velocity": 114}, {"time": 16082, "pitch": 76, "duration": 150, "velocity": 109}, {"time": 31442, "pitch": 74, "duration": 151, "velocity": 93}, {"time": 31683, "pitch": 74, "duration": 198, "velocity": 103}, {"time": 31920, "pitch": 71, "duration": 148, "velocity": 76}, {"time": 32059, "pitch": 74, "duration": 148, "velocity": 98}, {"time": 32398, "pitch": 74, "duration": 151, "velocity": 93}, {"time": 32639, "pitch": 74, "duration": 241, "velocity": 103}, {"time": 32880, "pitch": 76, "duration": 151, "velocity": 89}, {"time": 33121, "pitch": 79, "duration": 362, "velocity": 89}, {"time": 33603, "pitch": 74, "duration": 237, "velocity": 89}, {"time": 33840, "pitch": 73, "duration": 237, "velocity": 95}, {"time": 35283, "pitch": 74, "duration": 150, "velocity": 100}, {"time": 35524, "pitch": 74, "duration": 227, "velocity": 93}, {"time": 35760, "pitch": 71, "duration": 149, "velocity": 81}, {"time": 35899, "pitch": 74, "duration": 149, "velocity": 107}, {"time": 36238, "pitch": 74, "duration": 151, "velocity": 107}, {"time": 36480, "pitch": 74, "duration": 241, "velocity": 89}, {"time": 36721, "pitch": 76, "duration": 150, "velocity": 82}, {"time": 36962, "pitch": 79, "duration": 241, "velocity": 93}, {"time": 37343, "pitch": 83, "duration": 150, "velocity": 98}, {"time": 39123, "pitch": 74, "duration": 150, "velocity": 103}, {"time": 39364, "pitch": 74, "duration": 227, "velocity": 93}, {"time": 39601, "pitch": 71, "duration": 148, "velocity": 89}, {"time": 39739, "pitch": 74, "duration": 149, "velocity": 86}, {"time": 40079, "pitch": 74, "duration": 150, "velocity": 95}, {"time": 40320, "pitch": 74, "duration": 231, "velocity": 103}, {"time": 40561, "pitch": 76, "duration": 150, "velocity": 76}, {"time": 40802, "pitch": 79, "duration": 351, "velocity": 89}, {"time": 41183, "pitch": 73, "duration": 180, "velocity": 84}, {"time": 42240, "pitch": 76, "duration": 150, "velocity": 114}, {"time": 42481, "pitch": 78, "duration": 150, "velocity": 98}, {"time": 42722, "pitch": 79, "duration": 472, "velocity": 107}, {"time": 43204, "pitch": 76, "duration": 148, "velocity": 100}, {"time": 43441, "pitch": 83, "duration": 257, "velocity": 107}, {"time": 44160, "pitch": 76, "duration": 191, "velocity": 102}, {"time": 44401, "pitch": 78, "duration": 171, "velocity": 97}, {"time": 44642, "pitch": 79, "duration": 171, "velocity": 102}, {"time": 44883, "pitch": 81, "duration": 161, "velocity": 97}, {"time": 45124, "pitch": 83, "duration": 188, "velocity": 110}, {"time": 45361, "pitch": 79, "duration": 608, "velocity": 105}, {"time": 47281, "pitch": 83, "duration": 217, "velocity": 114}, {"time": 47518, "pitch": 81, "duration": 231, "velocity": 105}, {"time": 47759, "pitch": 79, "duration": 231, "velocity": 100}, {"time": 48000, "pitch": 76, "duration": 241, "velocity": 97}, {"time": 48241, "pitch": 79, "duration": 231, "velocity": 105}, {"time": 48482, "pitch": 81, "duration": 346, "velocity": 107}, {"time": 48956, "pitch": 79, "duration": 241, "velocity": 100}, {"time": 49197, "pitch": 83, "duration": 261, "velocity": 107}, {"time": 51117, "pitch": 83, "duration": 221, "velocity": 100}, {"time": 51358, "pitch": 81, "duration": 211, "velocity": 97}, {"time": 51599, "pitch": 79, "duration": 231, "velocity": 100}, {"time": 51840, "pitch": 76, "duration": 171, "velocity": 97}, {"time": 52081, "pitch": 79, "duration": 151, "velocity": 100}, {"time": 52322, "pitch": 81, "duration": 474, "velocity": 100}, {"time": 52796, "pitch": 83, "duration": 201, "velocity": 89}, {"time": 53037, "pitch": 79, "duration": 733, "velocity": 100}, {"time": 54001, "pitch": 71, "duration": 211, "velocity": 112}, {"time": 54242, "pitch": 72, "duration": 336, "velocity": 112}, {"time": 54716, "pitch": 72, "duration": 221, "velocity": 114}, {"time": 54957, "pitch": 83, "duration": 412, "velocity": 100}, {"time": 55439, "pitch": 83, "duration": 241, "velocity": 110}, {"time": 55680, "pitch": 81, "duration": 241, "velocity": 106}, {"time": 55921, "pitch": 79, "duration": 241, "velocity": 110}, {"time": 56162, "pitch": 81, "duration": 247, "velocity": 91}, {"time": 56399, "pitch": 79, "duration": 227, "velocity": 85}, {"time": 56636, "pitch": 81, "duration": 211, "velocity": 93}, {"time": 56877, "pitch": 83, "duration": 995, "velocity": 91}, {"time": 58082, "pitch": 79, "duration": 376, "velocity": 107}, {"time": 58556, "pitch": 81, "duration": 312, "velocity": 110}, {"time": 59038, "pitch": 82, "duration": 231, "velocity": 91}, {"time": 59279, "pitch": 81, "duration": 241, "velocity": 107}, {"time": 59520, "pitch": 79, "duration": 221, "velocity": 84}, {"time": 59761, "pitch": 83, "duration": 786, "velocity": 103}, {"time": 62396, "pitch": 83, "duration": 231, "velocity": 114}, {"time": 62637, "pitch": 81, "duration": 221, "velocity": 112}, {"time": 63120, "pitch": 81, "duration": 150, "velocity": 114}, {"time": 63361, "pitch": 83, "duration": 150, "velocity": 108}, {"time": 63602, "pitch": 81, "duration": 418, "velocity": 114}, {"time": 64080, "pitch": 79, "duration": 197, "velocity": 106}, {"time": 64317, "pitch": 83, "duration": 562, "velocity": 112}, {"time": 65040, "pitch": 76, "duration": 221, "velocity": 112}, {"time": 65281, "pitch": 79, "duration": 150, "velocity": 106}, {"time": 65522, "pitch": 86, "duration": 389, "velocity": 114}, {"time": 66000, "pitch": 86, "duration": 148, "velocity": 120}, {"time": 66237, "pitch": 84, "duration": 150, "velocity": 110}, {"time": 66478, "pitch": 84, "duration": 150, "velocity": 120}, {"time": 66719, "pitch": 83, "duration": 231, "velocity": 110}, {"time": 66960, "pitch": 81, "duration": 150, "velocity": 120}, {"time": 67201, "pitch": 79, "duration": 150, "velocity": 110}, {"time": 67442, "pitch": 81, "duration": 468, "velocity": 120}, {"time": 67920, "pitch": 83, "duration": 1121, "velocity": 115}, {"time": 70077, "pitch": 83, "duration": 231, "velocity": 114}, {"time": 70318, "pitch": 81, "duration": 221, "velocity": 112}, {"time": 70800, "pitch": 81, "duration": 151, "velocity": 114}, {"time": 71041, "pitch": 83, "duration": 151, "velocity": 112}, {"time": 71282, "pitch": 81, "duration": 419, "velocity": 114}, {"time": 71760, "pitch": 79, "duration": 148, "velocity": 107}, {"time": 71997, "pitch": 83, "duration": 643, "velocity": 107}, {"time": 72720, "pitch": 76, "duration": 241, "velocity": 112}, {"time": 72961, "pitch": 78, "duration": 121, "velocity": 100}, {"time": 73202, "pitch": 79, "duration": 1237, "velocity": 98}, {"time": 74640, "pitch": 79, "duration": 221, "velocity": 120}, {"time": 74881, "pitch": 81, "duration": 151, "velocity": 115}, {"time": 75122, "pitch": 84, "duration": 389, "velocity": 120}, {"time": 75600, "pitch": 84, "duration": 148, "velocity": 114}, {"time": 75837, "pitch": 83, "duration": 151, "velocity": 112}, {"time": 76078, "pitch": 83, "duration": 151, "velocity": 114}, {"time": 76319, "pitch": 79, "duration": 151, "velocity": 112}, {"time": 76560, "pitch": 79, "duration": 151, "velocity": 114}, {"time": 76801, "pitch": 81, "duration": 472, "velocity": 112}, {"time": 77283, "pitch": 78, "duration": 217, "velocity": 112}, {"time": 77520, "pitch": 76, "duration": 148, "velocity": 114}, {"time": 85200, "pitch": 74, "duration": 149, "velocity": 93}, {"time": 85437, "pitch": 74, "duration": 201, "velocity": 103}, {"time": 85678, "pitch": 71, "duration": 151, "velocity": 76}, {"time": 85819, "pitch": 74, "duration": 151, "velocity": 98}, {"time": 86161, "pitch": 74, "duration": 150, "velocity": 93}, {"time": 86402, "pitch": 74, "duration": 241, "velocity": 103}, {"time": 86643, "pitch": 76, "duration": 150, "velocity": 89}, {"time": 86884, "pitch": 79, "duration": 355, "velocity": 89}, {"time": 87358, "pitch": 74, "duration": 241, "velocity": 89}, {"time": 87599, "pitch": 73, "duration": 241, "velocity": 95}, {"time": 89041, "pitch": 74, "duration": 148, "velocity": 100}, {"time": 89278, "pitch": 74, "duration": 231, "velocity": 93}, {"time": 89519, "pitch": 71, "duration": 150, "velocity": 81}, {"time": 89659, "pitch": 74, "duration": 151, "velocity": 107}, {"time": 90001, "pitch": 74, "duration": 150, "velocity": 107}, {"time": 90242, "pitch": 74, "duration": 241, "velocity": 89}, {"time": 90483, "pitch": 76, "duration": 150, "velocity": 82}, {"time": 90724, "pitch": 79, "duration": 237, "velocity": 93}, {"time": 91099, "pitch": 83, "duration": 149, "velocity": 98}, {"time": 92881, "pitch": 74, "duration": 148, "velocity": 103}, {"time": 93118, "pitch": 74, "duration": 231, "velocity": 93}, {"time": 93359, "pitch": 71, "duration": 150, "velocity": 89}, {"time": 93499, "pitch": 74, "duration": 151, "velocity": 86}, {"time": 93841, "pitch": 74, "duration": 150, "velocity": 95}, {"time": 94082, "pitch": 74, "duration": 231, "velocity": 103}, {"time": 94323, "pitch": 76, "duration": 151, "velocity": 76}, {"time": 94564, "pitch": 79, "duration": 345, "velocity": 89}, {"time": 94939, "pitch": 73, "duration": 179, "velocity": 84}, {"time": 96002, "pitch": 76, "duration": 151, "velocity": 114}, {"time": 96243, "pitch": 78, "duration": 151, "velocity": 98}, {"time": 96484, "pitch": 79, "duration": 464, "velocity": 107}, {"time": 96958, "pitch": 76, "duration": 151, "velocity": 100}, {"time": 97199, "pitch": 83, "duration": 261, "velocity": 107}, {"time": 97922, "pitch": 76, "duration": 191, "velocity": 102}, {"time": 98163, "pitch": 78, "duration": 171, "velocity": 102}, {"time": 98404, "pitch": 79, "duration": 168, "velocity": 102}, {"time": 98641, "pitch": 81, "duration": 158, "velocity": 102}, {"time": 98878, "pitch": 83, "duration": 191, "velocity": 110}, {"time": 99119, "pitch": 79, "duration": 512, "velocity": 105}, {"time": 101039, "pitch": 83, "duration": 221, "velocity": 114}, {"time": 101280, "pitch": 81, "duration": 231, "velocity": 105}, {"time": 101521, "pitch": 79, "duration": 231, "velocity": 100}, {"time": 101762, "pitch": 76, "duration": 237, "velocity": 96}, {"time": 101999, "pitch": 79, "duration": 227, "velocity": 105}, {"time": 102236, "pitch": 81, "duration": 352, "velocity": 107}, {"time": 102718, "pitch": 79, "duration": 241, "velocity": 100}, {"time": 102959, "pitch": 83, "duration": 261, "velocity": 107}, {"time": 104879, "pitch": 83, "duration": 221, "velocity": 100}, {"time": 105120, "pitch": 81, "duration": 211, "velocity": 95}, {"time": 105361, "pitch": 79, "duration": 231, "velocity": 100}, {"time": 105602, "pitch": 76, "duration": 168, "velocity": 102}, {"time": 105839, "pitch": 79, "duration": 148, "velocity": 100}, {"time": 106076, "pitch": 81, "duration": 482, "velocity": 100}, {"time": 106558, "pitch": 83, "duration": 201, "velocity": 89}, {"time": 106799, "pitch": 79, "duration": 733, "velocity": 100}, {"time": 107759, "pitch": 71, "duration": 208, "velocity": 112}, {"time": 107996, "pitch": 72, "duration": 342, "velocity": 112}, {"time": 108478, "pitch": 72, "duration": 221, "velocity": 114}, {"time": 108719, "pitch": 83, "duration": 412, "velocity": 100}, {"time": 109201, "pitch": 83, "duration": 241, "velocity": 110}, {"time": 109442, "pitch": 81, "duration": 237, "velocity": 106}, {"time": 109679, "pitch": 79, "duration": 237, "velocity": 110}, {"time": 109916, "pitch": 81, "duration": 251, "velocity": 91}, {"time": 110157, "pitch": 79, "duration": 231, "velocity": 89}, {"time": 110398, "pitch": 81, "duration": 211, "velocity": 93}, {"time": 110639, "pitch": 83, "duration": 990, "velocity": 91}, {"time": 111836, "pitch": 79, "duration": 382, "velocity": 107}, {"time": 112319, "pitch": 81, "duration": 311, "velocity": 110}, {"time": 112801, "pitch": 82, "duration": 231, "velocity": 91}, {"time": 113042, "pitch": 81, "duration": 241, "velocity": 107}, {"time": 113283, "pitch": 79, "duration": 217, "velocity": 84}, {"time": 113520, "pitch": 83, "duration": 789, "velocity": 103}, {"time": 116159, "pitch": 83, "duration": 231, "velocity": 114}, {"time": 116400, "pitch": 81, "duration": 221, "velocity": 112}, {"time": 116882, "pitch": 81, "duration": 150, "velocity": 114}, {"time": 117123, "pitch": 83, "duration": 148, "velocity": 108}, {"time": 117360, "pitch": 81, "duration": 417, "velocity": 114}, {"time": 117838, "pitch": 79, "duration": 201, "velocity": 107}, {"time": 118079, "pitch": 83, "duration": 562, "velocity": 113}, {"time": 118802, "pitch": 76, "duration": 221, "velocity": 114}, {"time": 119043, "pitch": 79, "duration": 148, "velocity": 108}, {"time": 119280, "pitch": 86, "duration": 387, "velocity": 114}, {"time": 119758, "pitch": 86, "duration": 150, "velocity": 119}, {"time": 119999, "pitch": 84, "duration": 150, "velocity": 113}, {"time": 120240, "pitch": 84, "duration": 151, "velocity": 119}, {"time": 120481, "pitch": 83, "duration": 231, "velocity": 120}, {"time": 120722, "pitch": 81, "duration": 151, "velocity": 114}, {"time": 120963, "pitch": 79, "duration": 148, "velocity": 120}, {"time": 121200, "pitch": 81, "duration": 468, "velocity": 120}, {"time": 121678, "pitch": 83, "duration": 1125, "velocity": 115}, {"time": 123839, "pitch": 83, "duration": 231, "velocity": 114}, {"time": 124080, "pitch": 81, "duration": 221, "velocity": 117}, {"time": 124562, "pitch": 81, "duration": 151, "velocity": 113}, {"time": 124803, "pitch": 83, "duration": 148, "velocity": 108}, {"time": 125040, "pitch": 81, "duration": 418, "velocity": 114}, {"time": 125518, "pitch": 79, "duration": 151, "velocity": 107}, {"time": 125759, "pitch": 83, "duration": 643, "velocity": 107}, {"time": 126482, "pitch": 76, "duration": 241, "velocity": 112}, {"time": 126723, "pitch": 78, "duration": 119, "velocity": 100}, {"time": 126960, "pitch": 79, "duration": 1241, "velocity": 98}, {"time": 128402, "pitch": 79, "duration": 221, "velocity": 120}, {"time": 128643, "pitch": 81, "duration": 148, "velocity": 115}, {"time": 128880, "pitch": 84, "duration": 388, "velocity": 120}, {"time": 129358, "pitch": 84, "duration": 151, "velocity": 114}, {"time": 129599, "pitch": 83, "duration": 151, "velocity": 109}, {"time": 129840, "pitch": 83, "duration": 151, "velocity": 114}, {"time": 130081, "pitch": 79, "duration": 151, "velocity": 107}, {"time": 130322, "pitch": 79, "duration": 151, "velocity": 112}, {"time": 130563, "pitch": 81, "duration": 464, "velocity": 114}, {"time": 131037, "pitch": 78, "duration": 221, "velocity": 114}, {"time": 131278, "pitch": 76, "duration": 151, "velocity": 109}, {"time": 147121, "pitch": 83, "duration": 221, "velocity": 114}, {"time": 147362, "pitch": 81, "duration": 231, "velocity": 105}, {"time": 147603, "pitch": 79, "duration": 231, "velocity": 100}, {"time": 147844, "pitch": 76, "duration": 237, "velocity": 95}, {"time": 148081, "pitch": 79, "duration": 227, "velocity": 105}, {"time": 148318, "pitch": 81, "duration": 351, "velocity": 107}, {"time": 148800, "pitch": 79, "duration": 241, "velocity": 100}, {"time": 149041, "pitch": 83, "duration": 261, "velocity": 107}, {"time": 150961, "pitch": 83, "duration": 221, "velocity": 100}, {"time": 151202, "pitch": 81, "duration": 207, "velocity": 95}, {"time": 151439, "pitch": 79, "duration": 227, "velocity": 100}, {"time": 151676, "pitch": 76, "duration": 171, "velocity": 95}, {"time": 151917, "pitch": 79, "duration": 151, "velocity": 100}, {"time": 152158, "pitch": 81, "duration": 482, "velocity": 100}, {"time": 152640, "pitch": 83, "duration": 201, "velocity": 89}, {"time": 152881, "pitch": 79, "duration": 725, "velocity": 100}, {"time": 153837, "pitch": 71, "duration": 211, "velocity": 112}, {"time": 154078, "pitch": 72, "duration": 342, "velocity": 112}, {"time": 154560, "pitch": 72, "duration": 221, "velocity": 114}, {"time": 154801, "pitch": 83, "duration": 409, "velocity": 100}, {"time": 155279, "pitch": 83, "duration": 237, "velocity": 110}, {"time": 155516, "pitch": 81, "duration": 241, "velocity": 106}, {"time": 155757, "pitch": 79, "duration": 241, "velocity": 110}, {"time": 155998, "pitch": 81, "duration": 251, "velocity": 91}, {"time": 156239, "pitch": 79, "duration": 231, "velocity": 89}, {"time": 156480, "pitch": 81, "duration": 211, "velocity": 93}, {"time": 156721, "pitch": 83, "duration": 986, "velocity": 91}, {"time": 157918, "pitch": 79, "duration": 382, "velocity": 107}, {"time": 158400, "pitch": 81, "duration": 312, "velocity": 110}, {"time": 158882, "pitch": 82, "duration": 228, "velocity": 91}, {"time": 159119, "pitch": 81, "duration": 237, "velocity": 107}, {"time": 159356, "pitch": 79, "duration": 221, "velocity": 84}, {"time": 159597, "pitch": 83, "duration": 794, "velocity": 103}, {"time": 162241, "pitch": 83, "duration": 231, "velocity": 114}, {"time": 162482, "pitch": 81, "duration": 221, "velocity": 109}, {"time": 162960, "pitch": 81, "duration": 148, "velocity": 114}, {"time": 163197, "pitch": 83, "duration": 150, "velocity": 108}, {"time": 163438, "pitch": 81, "duration": 421, "velocity": 114}, {"time": 163920, "pitch": 79, "duration": 200, "velocity": 108}, {"time": 164161, "pitch": 83, "duration": 561, "velocity": 113}, {"time": 164880, "pitch": 76, "duration": 217, "velocity": 112}, {"time": 165117, "pitch": 79, "duration": 150, "velocity": 103}, {"time": 165358, "pitch": 86, "duration": 391, "velocity": 114}, {"time": 165840, "pitch": 86, "duration": 150, "velocity": 119}, {"time": 166081, "pitch": 84, "duration": 150, "velocity": 116}, {"time": 166322, "pitch": 84, "duration": 150, "velocity": 113}, {"time": 166563, "pitch": 83, "duration": 227, "velocity": 120}, {"time": 166800, "pitch": 81, "duration": 148, "velocity": 115}, {"time": 167037, "pitch": 79, "duration": 150, "velocity": 119}, {"time": 167278, "pitch": 81, "duration": 472, "velocity": 120}, {"time": 167760, "pitch": 83, "duration": 1118, "velocity": 115}, {"time": 169921, "pitch": 83, "duration": 231, "velocity": 114}, {"time": 170162, "pitch": 81, "duration": 221, "velocity": 107}, {"time": 170640, "pitch": 81, "duration": 148, "velocity": 114}, {"time": 170877, "pitch": 83, "duration": 150, "velocity": 108}, {"time": 171118, "pitch": 81, "duration": 422, "velocity": 114}, {"time": 171600, "pitch": 79, "duration": 151, "velocity": 102}, {"time": 171841, "pitch": 83, "duration": 640, "velocity": 107}, {"time": 172560, "pitch": 76, "duration": 237, "velocity": 112}, {"time": 172797, "pitch": 78, "duration": 120, "velocity": 100}, {"time": 173038, "pitch": 79, "duration": 1245, "velocity": 98}, {"time": 174480, "pitch": 79, "duration": 217, "velocity": 120}, {"time": 174717, "pitch": 81, "duration": 151, "velocity": 110}, {"time": 174958, "pitch": 84, "duration": 392, "velocity": 120}, {"time": 175440, "pitch": 84, "duration": 151, "velocity": 109}, {"time": 175681, "pitch": 83, "duration": 151, "velocity": 114}, {"time": 175922, "pitch": 83, "duration": 151, "velocity": 108}, {"time": 176163, "pitch": 79, "duration": 148, "velocity": 114}, {"time": 176400, "pitch": 79, "duration": 148, "velocity": 108}, {"time": 176637, "pitch": 81, "duration": 472, "velocity": 114}, {"time": 177601, "pitch": 83, "duration": 231, "velocity": 114}, {"time": 177842, "pitch": 81, "duration": 221, "velocity": 108}, {"time": 178320, "pitch": 81, "duration": 148, "velocity": 114}, {"time": 178557, "pitch": 83, "duration": 151, "velocity": 108}, {"time": 178798, "pitch": 81, "duration": 422, "velocity": 114}, {"time": 179280, "pitch": 79, "duration": 201, "velocity": 108}, {"time": 179521, "pitch": 83, "duration": 561, "velocity": 114}, {"time": 180240, "pitch": 76, "duration": 217, "velocity": 113}, {"time": 180477, "pitch": 79, "duration": 151, "velocity": 104}, {"time": 180718, "pitch": 86, "duration": 392, "velocity": 114}, {"time": 181200, "pitch": 86, "duration": 151, "velocity": 120}, {"time": 181441, "pitch": 84, "duration": 151, "velocity": 117}, {"time": 181682, "pitch": 84, "duration": 151, "velocity": 114}, {"time": 181923, "pitch": 83, "duration": 227, "velocity": 120}, {"time": 182160, "pitch": 81, "duration": 148, "velocity": 112}, {"time": 182397, "pitch": 79, "duration": 151, "velocity": 116}, {"time": 182638, "pitch": 81, "duration": 472, "velocity": 120}, {"time": 183120, "pitch": 83, "duration": 1118, "velocity": 115}, {"time": 185282, "pitch": 83, "duration": 231, "velocity": 114}, {"time": 185523, "pitch": 81, "duration": 221, "velocity": 109}, {"time": 186001, "pitch": 81, "duration": 148, "velocity": 104}, {"time": 186237, "pitch": 83, "duration": 151, "velocity": 114}, {"time": 186478, "pitch": 81, "duration": 422, "velocity": 114}, {"time": 186961, "pitch": 79, "duration": 150, "velocity": 107}, {"time": 187202, "pitch": 83, "duration": 640, "velocity": 102}, {"time": 187921, "pitch": 76, "duration": 237, "velocity": 112}, {"time": 188158, "pitch": 78, "duration": 120, "velocity": 100}, {"time": 188399, "pitch": 79, "duration": 1244, "velocity": 98}, {"time": 189841, "pitch": 79, "duration": 217, "velocity": 120}, {"time": 190078, "pitch": 81, "duration": 150, "velocity": 115}, {"time": 190319, "pitch": 84, "duration": 391, "velocity": 120}, {"time": 190801, "pitch": 84, "duration": 150, "velocity": 112}, {"time": 191042, "pitch": 83, "duration": 150, "velocity": 114}, {"time": 191283, "pitch": 83, "duration": 150, "velocity": 107}, {"time": 191524, "pitch": 79, "duration": 148, "velocity": 114}, {"time": 191761, "pitch": 79, "duration": 148, "velocity": 108}, {"time": 191998, "pitch": 81, "duration": 472, "velocity": 114}, {"time": 192480, "pitch": 78, "duration": 221, "velocity": 114}, {"time": 192721, "pitch": 76, "duration": 150, "velocity": 109}], "annotations": [{"time": 292, "annotation": {"number": 7, "value": 60}, "group": "control_change"}, {"time": 313, "annotation": {"number": 11, "value": 100}, "group": "control_change"}, {"time": 334, "annotation": {"number": 10, "value": 64}, "group": "control_change"}, {"time": 355, "annotation": {"number": 91, "value": 40}, "group": "control_change"}, {"time": 376, "annotation": {"number": 93, "value": 0}, "group": "control_change"}, {"time": 397, "annotation": {"number": 101, "value": 0}, "group": "control_change"}, {"time": 417, "annotation": {"number": 100, "value": 0}, "group": "control_change"}, {"time": 438, "annotation": {"number": 6, "value": 12}, "group": "control_change"}, {"time": 459, "annotation": {"number": 101, "value": 127}, "group": "control_change"}, {"time": 480, "annotation": {"number": 100, "value": 127}, "group": "control_change"}, {"time": 6999, "annotation": {"number": 11, "value": 99}, "group": "control_change"}, {"time": 7157, "annotation": {"number": 11, "value": 98}, "group": "control_change"}, {"time": 7196, "annotation": {"number": 11, "value": 97}, "group": "control_change"}, {"time": 7277, "annotation": {"number": 11, "value": 96}, "group": "control_change"}, {"time": 7317, "annotation": {"number": 11, "value": 95}, "group": "control_change"}, {"time": 7357, "annotation": {"number": 11, "value": 93}, "group": "control_change"}, {"time": 7397, "annotation": {"number": 11, "value": 91}, "group": "control_change"}, {"time": 7437, "annotation": {"number": 11, "value": 90}, "group": "control_change"}, {"time": 7477, "annotation": {"number": 11, "value": 87}, "group": "control_change"}, {"time": 7518, "annotation": {"number": 11, "value": 84}, "group": "control_change"}, {"time": 7558, "annotation": {"number": 11, "value": 80}, "group": "control_change"}, {"time": 7598, "annotation": {"number": 11, "value": 75}, "group": "control_change"}, {"time": 7638, "annotation": {"number": 11, "value": 69}, "group": "control_change"}, {"time": 7678, "annotation": {"number": 11, "value": 62}, "group": "control_change"}, {"time": 7718, "annotation": {"number": 11, "value": 53}, "group": "control_change"}, {"time": 7759, "annotation": {"number": 11, "value": 43}, "group": "control_change"}, {"time": 7799, "annotation": {"number": 11, "value": 28}, "group": "control_change"}, {"time": 8632, "annotation": {"number": 11, "value": 100}, "group": "control_change"}, {"time": 12282, "annotation": {"number": 11, "value": 99}, "group": "control_change"}, {"time": 12362, "annotation": {"number": 11, "value": 98}, "group": "control_change"}, {"time": 12442, "annotation": {"number": 11, "value": 97}, "group": "control_change"}, {"time": 12483, "annotation": {"number": 11, "value": 96}, "group": "control_change"}, {"time": 12522, "annotation": {"number": 11, "value": 95}, "group": "control_change"}, {"time": 12562, "annotation": {"number": 11, "value": 93}, "group": "control_change"}, {"time": 12601, "annotation": {"number": 11, "value": 91}, "group": "control_change"}, {"time": 12641, "annotation": {"number": 11, "value": 89}, "group": "control_change"}, {"time": 12680, "annotation": {"number": 11, "value": 85}, "group": "control_change"}, {"time": 12720, "annotation": {"number": 11, "value": 81}, "group": "control_change"}, {"time": 12759, "annotation": {"number": 11, "value": 77}, "group": "control_change"}, {"time": 12799, "annotation": {"number": 11, "value": 70}, "group": "control_change"}, {"time": 12838, "annotation": {"number": 11, "value": 63}, "group": "control_change"}, {"time": 12878, "annotation": {"number": 11, "value": 53}, "group": "control_change"}, {"time": 12917, "annotation": {"number": 11, "value": 41}, "group": "control_change"}, {"time": 12957, "annotation": {"number": 11, "value": 26}, "group": "control_change"}, {"time": 12997, "annotation": {"number": 11, "value": 20}, "group": "control_change"}, {"time": 13187, "annotation": {"number": 11, "value": 100}, "group": "control_change"}, {"time": 45519, "annotation": {"number": 11, "value": 99}, "group": "control_change"}, {"time": 45598, "annotation": {"number": 11, "value": 98}, "group": "control_change"}, {"time": 45638, "annotation": {"number": 11, "value": 97}, "group": "control_change"}, {"time": 45678, "annotation": {"number": 11, "value": 95}, "group": "control_change"}, {"time": 45718, "annotation": {"number": 11, "value": 93}, "group": "control_change"}, {"time": 45759, "annotation": {"number": 11, "value": 90}, "group": "control_change"}, {"time": 45799, "annotation": {"number": 11, "value": 84}, "group": "control_change"}, {"time": 45839, "annotation": {"number": 11, "value": 77}, "group": "control_change"}, {"time": 45879, "annotation": {"number": 11, "value": 67}, "group": "control_change"}, {"time": 45919, "annotation": {"number": 11, "value": 52}, "group": "control_change"}, {"time": 45959, "annotation": {"number": 11, "value": 28}, "group": "control_change"}, {"time": 47271, "annotation": {"number": 11, "value": 100}, "group": "control_change"}, {"time": 53238, "annotation": {"number": 11, "value": 99}, "group": "control_change"}, {"time": 53318, "annotation": {"number": 11, "value": 98}, "group": "control_change"}, {"time": 53358, "annotation": {"number": 11, "value": 97}, "group": "control_change"}, {"time": 53399, "annotation": {"number": 11, "value": 96}, "group": "control_change"}, {"time": 53439, "annotation": {"number": 11, "value": 95}, "group": "control_change"}, {"time": 53479, "annotation": {"number": 11, "value": 93}, "group": "control_change"}, {"time": 53519, "annotation": {"number": 11, "value": 90}, "group": "control_change"}, {"time": 53559, "annotation": {"number": 11, "value": 86}, "group": "control_change"}, {"time": 53600, "annotation": {"number": 11, "value": 81}, "group": "control_change"}, {"time": 53640, "annotation": {"number": 11, "value": 74}, "group": "control_change"}, {"time": 53680, "annotation": {"number": 11, "value": 64}, "group": "control_change"}, {"time": 53720, "annotation": {"number": 11, "value": 50}, "group": "control_change"}, {"time": 53760, "annotation": {"number": 11, "value": 36}, "group": "control_change"}, {"time": 53991, "annotation": {"number": 11, "value": 100}, "group": "control_change"}, {"time": 57158, "annotation": {"number": 11, "value": 99}, "group": "control_change"}, {"time": 57279, "annotation": {"number": 11, "value": 98}, "group": "control_change"}, {"time": 57319, "annotation": {"number": 11, "value": 97}, "group": "control_change"}, {"time": 57359, "annotation": {"number": 11, "value": 96}, "group": "control_change"}, {"time": 57400, "annotation": {"number": 11, "value": 95}, "group": "control_change"}, {"time": 57440, "annotation": {"number": 11, "value": 94}, "group": "control_change"}, {"time": 57480, "annotation": {"number": 11, "value": 92}, "group": "control_change"}, {"time": 57520, "annotation": {"number": 11, "value": 90}, "group": "control_change"}, {"time": 57560, "annotation": {"number": 11, "value": 87}, "group": "control_change"}, {"time": 57600, "annotation": {"number": 11, "value": 83}, "group": "control_change"}, {"time": 57641, "annotation": {"number": 11, "value": 79}, "group": "control_change"}, {"time": 57681, "annotation": {"number": 11, "value": 73}, "group": "control_change"}, {"time": 57721, "annotation": {"number": 11, "value": 67}, "group": "control_change"}, {"time": 57761, "annotation": {"number": 11, "value": 58}, "group": "control_change"}, {"time": 57801, "annotation": {"number": 11, "value": 47}, "group": "control_change"}, {"time": 57841, "annotation": {"number": 11, "value": 33}, "group": "control_change"}, {"time": 57882, "annotation": {"number": 11, "value": 28}, "group": "control_change"}, {"time": 58072, "annotation": {"number": 11, "value": 100}, "group": "control_change"}, {"time": 60160, "annotation": {"number": 11, "value": 99}, "group": "control_change"}, {"time": 60239, "annotation": {"number": 11, "value": 98}, "group": "control_change"}, {"time": 60279, "annotation": {"number": 11, "value": 96}, "group": "control_change"}, {"time": 60318, "annotation": {"number": 11, "value": 94}, "group": "control_change"}, {"time": 60358, "annotation": {"number": 11, "value": 91}, "group": "control_change"}, {"time": 60397, "annotation": {"number": 11, "value": 86}, "group": "control_change"}, {"time": 60437, "annotation": {"number": 11, "value": 80}, "group": "control_change"}, {"time": 60476, "annotation": {"number": 11, "value": 69}, "group": "control_change"}, {"time": 60517, "annotation": {"number": 11, "value": 53}, "group": "control_change"}, {"time": 60557, "annotation": {"number": 11, "value": 36}, "group": "control_change"}, {"time": 62387, "annotation": {"number": 11, "value": 100}, "group": "control_change"}, {"time": 68197, "annotation": {"number": 11, "value": 99}, "group": "control_change"}, {"time": 68358, "annotation": {"number": 11, "value": 98}, "group": "control_change"}, {"time": 68438, "annotation": {"number": 11, "value": 97}, "group": "control_change"}, {"time": 68478, "annotation": {"number": 11, "value": 96}, "group": "control_change"}, {"time": 68518, "annotation": {"number": 11, "value": 95}, "group": "control_change"}, {"time": 68558, "annotation": {"number": 11, "value": 94}, "group": "control_change"}, {"time": 68599, "annotation": {"number": 11, "value": 92}, "group": "control_change"}, {"time": 68639, "annotation": {"number": 11, "value": 90}, "group": "control_change"}, {"time": 68679, "annotation": {"number": 11, "value": 88}, "group": "control_change"}, {"time": 68719, "annotation": {"number": 11, "value": 86}, "group": "control_change"}, {"time": 68759, "annotation": {"number": 11, "value": 82}, "group": "control_change"}, {"time": 68799, "annotation": {"number": 11, "value": 78}, "group": "control_change"}, {"time": 68840, "annotation": {"number": 11, "value": 73}, "group": "control_change"}, {"time": 68880, "annotation": {"number": 11, "value": 67}, "group": "control_change"}, {"time": 68920, "annotation": {"number": 11, "value": 60}, "group": "control_change"}, {"time": 68960, "annotation": {"number": 11, "value": 51}, "group": "control_change"}, {"time": 69000, "annotation": {"number": 11, "value": 39}, "group": "control_change"}, {"time": 69041, "annotation": {"number": 11, "value": 28}, "group": "control_change"}, {"time": 70067, "annotation": {"number": 11, "value": 100}, "group": "control_change"}, {"time": 73719, "annotation": {"number": 11, "value": 99}, "group": "control_change"}, {"time": 73838, "annotation": {"number": 11, "value": 98}, "group": "control_change"}, {"time": 73877, "annotation": {"number": 11, "value": 97}, "group": "control_change"}, {"time": 73917, "annotation": {"number": 11, "value": 96}, "group": "control_change"}, {"time": 73957, "annotation": {"number": 11, "value": 95}, "group": "control_change"}, {"time": 73997, "annotation": {"number": 11, "value": 94}, "group": "control_change"}, {"time": 74037, "annotation": {"number": 11, "value": 92}, "group": "control_change"}, {"time": 74078, "annotation": {"number": 11, "value": 90}, "group": "control_change"}, {"time": 74118, "annotation": {"number": 11, "value": 87}, "group": "control_change"}, {"time": 74158, "annotation": {"number": 11, "value": 83}, "group": "control_change"}, {"time": 74198, "annotation": {"number": 11, "value": 79}, "group": "control_change"}, {"time": 74238, "annotation": {"number": 11, "value": 73}, "group": "control_change"}, {"time": 74278, "annotation": {"number": 11, "value": 67}, "group": "control_change"}, {"time": 74319, "annotation": {"number": 11, "value": 58}, "group": "control_change"}, {"time": 74359, "annotation": {"number": 11, "value": 47}, "group": "control_change"}, {"time": 74399, "annotation": {"number": 11, "value": 33}, "group": "control_change"}, {"time": 74439, "annotation": {"number": 11, "value": 28}, "group": "control_change"}, {"time": 74630, "annotation": {"number": 11, "value": 100}, "group": "control_change"}, {"time": 99280, "annotation": {"number": 11, "value": 99}, "group": "control_change"}, {"time": 99360, "annotation": {"number": 11, "value": 98}, "group": "control_change"}, {"time": 99400, "annotation": {"number": 11, "value": 96}, "group": "control_change"}, {"time": 99440, "annotation": {"number": 11, "value": 93}, "group": "control_change"}, {"time": 99481, "annotation": {"number": 11, "value": 90}, "group": "control_change"}, {"time": 99521, "annotation": {"number": 11, "value": 84}, "group": "control_change"}, {"time": 99561, "annotation": {"number": 11, "value": 75}, "group": "control_change"}, {"time": 99601, "annotation": {"number": 11, "value": 61}, "group": "control_change"}, {"time": 99641, "annotation": {"number": 11, "value": 44}, "group": "control_change"}, {"time": 101029, "annotation": {"number": 11, "value": 100}, "group": "control_change"}, {"time": 107040, "annotation": {"number": 11, "value": 99}, "group": "control_change"}, {"time": 107121, "annotation": {"number": 11, "value": 98}, "group": "control_change"}, {"time": 107161, "annotation": {"number": 11, "value": 97}, "group": "control_change"}, {"time": 107201, "annotation": {"number": 11, "value": 96}, "group": "control_change"}, {"time": 107241, "annotation": {"number": 11, "value": 94}, "group": "control_change"}, {"time": 107281, "annotation": {"number": 11, "value": 91}, "group": "control_change"}, {"time": 107322, "annotation": {"number": 11, "value": 88}, "group": "control_change"}, {"time": 107362, "annotation": {"number": 11, "value": 84}, "group": "control_change"}, {"time": 107402, "annotation": {"number": 11, "value": 77}, "group": "control_change"}, {"time": 107442, "annotation": {"number": 11, "value": 69}, "group": "control_change"}, {"time": 107482, "annotation": {"number": 11, "value": 57}, "group": "control_change"}, {"time": 107522, "annotation": {"number": 11, "value": 44}, "group": "control_change"}, {"time": 107749, "annotation": {"number": 11, "value": 100}, "group": "control_change"}, {"time": 110921, "annotation": {"number": 11, "value": 99}, "group": "control_change"}, {"time": 111041, "annotation": {"number": 11, "value": 98}, "group": "control_change"}, {"time": 111122, "annotation": {"number": 11, "value": 97}, "group": "control_change"}, {"time": 111162, "annotation": {"number": 11, "value": 96}, "group": "control_change"}, {"time": 111202, "annotation": {"number": 11, "value": 95}, "group": "control_change"}, {"time": 111242, "annotation": {"number": 11, "value": 93}, "group": "control_change"}, {"time": 111282, "annotation": {"number": 11, "value": 92}, "group": "control_change"}, {"time": 111322, "annotation": {"number": 11, "value": 89}, "group": "control_change"}, {"time": 111363, "annotation": {"number": 11, "value": 86}, "group": "control_change"}, {"time": 111402, "annotation": {"number": 11, "value": 83}, "group": "control_change"}, {"time": 111442, "annotation": {"number": 11, "value": 79}, "group": "control_change"}, {"time": 111481, "annotation": {"number": 11, "value": 73}, "group": "control_change"}, {"time": 111521, "annotation": {"number": 11, "value": 66}, "group": "control_change"}, {"time": 111560, "annotation": {"number": 11, "value": 58}, "group": "control_change"}, {"time": 111600, "annotation": {"number": 11, "value": 47}, "group": "control_change"}, {"time": 111639, "annotation": {"number": 11, "value": 36}, "group": "control_change"}, {"time": 111827, "annotation": {"number": 11, "value": 100}, "group": "control_change"}, {"time": 113917, "annotation": {"number": 11, "value": 99}, "group": "control_change"}, {"time": 113998, "annotation": {"number": 11, "value": 97}, "group": "control_change"}, {"time": 114038, "annotation": {"number": 11, "value": 96}, "group": "control_change"}, {"time": 114078, "annotation": {"number": 11, "value": 94}, "group": "control_change"}, {"time": 114118, "annotation": {"number": 11, "value": 90}, "group": "control_change"}, {"time": 114158, "annotation": {"number": 11, "value": 85}, "group": "control_change"}, {"time": 114198, "annotation": {"number": 11, "value": 77}, "group": "control_change"}, {"time": 114239, "annotation": {"number": 11, "value": 65}, "group": "control_change"}, {"time": 114279, "annotation": {"number": 11, "value": 47}, "group": "control_change"}, {"time": 114319, "annotation": {"number": 11, "value": 28}, "group": "control_change"}, {"time": 116149, "annotation": {"number": 11, "value": 100}, "group": "control_change"}, {"time": 121959, "annotation": {"number": 11, "value": 99}, "group": "control_change"}, {"time": 122080, "annotation": {"number": 11, "value": 98}, "group": "control_change"}, {"time": 122160, "annotation": {"number": 11, "value": 97}, "group": "control_change"}, {"time": 122200, "annotation": {"number": 11, "value": 96}, "group": "control_change"}, {"time": 122240, "annotation": {"number": 11, "value": 95}, "group": "control_change"}, {"time": 122321, "annotation": {"number": 11, "value": 93}, "group": "control_change"}, {"time": 122361, "annotation": {"number": 11, "value": 91}, "group": "control_change"}, {"time": 122401, "annotation": {"number": 11, "value": 89}, "group": "control_change"}, {"time": 122441, "annotation": {"number": 11, "value": 87}, "group": "control_change"}, {"time": 122481, "annotation": {"number": 11, "value": 84}, "group": "control_change"}, {"time": 122522, "annotation": {"number": 11, "value": 80}, "group": "control_change"}, {"time": 122562, "annotation": {"number": 11, "value": 76}, "group": "control_change"}, {"time": 122602, "annotation": {"number": 11, "value": 70}, "group": "control_change"}, {"time": 122642, "annotation": {"number": 11, "value": 63}, "group": "control_change"}, {"time": 122682, "annotation": {"number": 11, "value": 55}, "group": "control_change"}, {"time": 122722, "annotation": {"number": 11, "value": 45}, "group": "control_change"}, {"time": 122763, "annotation": {"number": 11, "value": 32}, "group": "control_change"}, {"time": 122803, "annotation": {"number": 11, "value": 20}, "group": "control_change"}, {"time": 123829, "annotation": {"number": 11, "value": 100}, "group": "control_change"}, {"time": 127478, "annotation": {"number": 11, "value": 99}, "group": "control_change"}, {"time": 127599, "annotation": {"number": 11, "value": 98}, "group": "control_change"}, {"time": 127639, "annotation": {"number": 11, "value": 97}, "group": "control_change"}, {"time": 127719, "annotation": {"number": 11, "value": 95}, "group": "control_change"}, {"time": 127759, "annotation": {"number": 11, "value": 94}, "group": "control_change"}, {"time": 127800, "annotation": {"number": 11, "value": 93}, "group": "control_change"}, {"time": 127840, "annotation": {"number": 11, "value": 91}, "group": "control_change"}, {"time": 127880, "annotation": {"number": 11, "value": 88}, "group": "control_change"}, {"time": 127920, "annotation": {"number": 11, "value": 85}, "group": "control_change"}, {"time": 127960, "annotation": {"number": 11, "value": 81}, "group": "control_change"}, {"time": 128001, "annotation": {"number": 11, "value": 76}, "group": "control_change"}, {"time": 128041, "annotation": {"number": 11, "value": 70}, "group": "control_change"}, {"time": 128081, "annotation": {"number": 11, "value": 62}, "group": "control_change"}, {"time": 128121, "annotation": {"number": 11, "value": 53}, "group": "control_change"}, {"time": 128161, "annotation": {"number": 11, "value": 40}, "group": "control_change"}, {"time": 128201, "annotation": {"number": 11, "value": 28}, "group": "control_change"}, {"time": 128392, "annotation": {"number": 11, "value": 100}, "group": "control_change"}, {"time": 153122, "annotation": {"number": 11, "value": 99}, "group": "control_change"}, {"time": 153201, "annotation": {"number": 11, "value": 98}, "group": "control_change"}, {"time": 153241, "annotation": {"number": 11, "value": 97}, "group": "control_change"}, {"time": 153280, "annotation": {"number": 11, "value": 96}, "group": "control_change"}, {"time": 153320, "annotation": {"number": 11, "value": 94}, "group": "control_change"}, {"time": 153359, "annotation": {"number": 11, "value": 91}, "group": "control_change"}, {"time": 153399, "annotation": {"number": 11, "value": 88}, "group": "control_change"}, {"time": 153438, "annotation": {"number": 11, "value": 84}, "group": "control_change"}, {"time": 153478, "annotation": {"number": 11, "value": 77}, "group": "control_change"}, {"time": 153517, "annotation": {"number": 11, "value": 69}, "group": "control_change"}, {"time": 153557, "annotation": {"number": 11, "value": 57}, "group": "control_change"}, {"time": 153596, "annotation": {"number": 11, "value": 44}, "group": "control_change"}, {"time": 153827, "annotation": {"number": 11, "value": 100}, "group": "control_change"}, {"time": 157002, "annotation": {"number": 11, "value": 99}, "group": "control_change"}, {"time": 157120, "annotation": {"number": 11, "value": 98}, "group": "control_change"}, {"time": 157199, "annotation": {"number": 11, "value": 97}, "group": "control_change"}, {"time": 157239, "annotation": {"number": 11, "value": 96}, "group": "control_change"}, {"time": 157278, "annotation": {"number": 11, "value": 95}, "group": "control_change"}, {"time": 157318, "annotation": {"number": 11, "value": 94}, "group": "control_change"}, {"time": 157357, "annotation": {"number": 11, "value": 92}, "group": "control_change"}, {"time": 157397, "annotation": {"number": 11, "value": 90}, "group": "control_change"}, {"time": 157436, "annotation": {"number": 11, "value": 87}, "group": "control_change"}, {"time": 157476, "annotation": {"number": 11, "value": 84}, "group": "control_change"}, {"time": 157517, "annotation": {"number": 11, "value": 80}, "group": "control_change"}, {"time": 157557, "annotation": {"number": 11, "value": 74}, "group": "control_change"}, {"time": 157597, "annotation": {"number": 11, "value": 68}, "group": "control_change"}, {"time": 157637, "annotation": {"number": 11, "value": 60}, "group": "control_change"}, {"time": 157677, "annotation": {"number": 11, "value": 50}, "group": "control_change"}, {"time": 157717, "annotation": {"number": 11, "value": 36}, "group": "control_change"}, {"time": 157908, "annotation": {"number": 11, "value": 100}, "group": "control_change"}, {"time": 159999, "annotation": {"number": 11, "value": 99}, "group": "control_change"}, {"time": 160039, "annotation": {"number": 11, "value": 98}, "group": "control_change"}, {"time": 160079, "annotation": {"number": 11, "value": 97}, "group": "control_change"}, {"time": 160120, "annotation": {"number": 11, "value": 95}, "group": "control_change"}, {"time": 160160, "annotation": {"number": 11, "value": 93}, "group": "control_change"}, {"time": 160200, "annotation": {"number": 11, "value": 89}, "group": "control_change"}, {"time": 160240, "annotation": {"number": 11, "value": 83}, "group": "control_change"}, {"time": 160280, "annotation": {"number": 11, "value": 75}, "group": "control_change"}, {"time": 160320, "annotation": {"number": 11, "value": 61}, "group": "control_change"}, {"time": 160361, "annotation": {"number": 11, "value": 41}, "group": "control_change"}, {"time": 160401, "annotation": {"number": 11, "value": 20}, "group": "control_change"}, {"time": 162231, "annotation": {"number": 11, "value": 100}, "group": "control_change"}, {"time": 168041, "annotation": {"number": 11, "value": 99}, "group": "control_change"}, {"time": 168202, "annotation": {"number": 11, "value": 98}, "group": "control_change"}, {"time": 168282, "annotation": {"number": 11, "value": 97}, "group": "control_change"}, {"time": 168322, "annotation": {"number": 11, "value": 96}, "group": "control_change"}, {"time": 168362, "annotation": {"number": 11, "value": 95}, "group": "control_change"}, {"time": 168403, "annotation": {"number": 11, "value": 94}, "group": "control_change"}, {"time": 168443, "annotation": {"number": 11, "value": 92}, "group": "control_change"}, {"time": 168483, "annotation": {"number": 11, "value": 90}, "group": "control_change"}, {"time": 168522, "annotation": {"number": 11, "value": 88}, "group": "control_change"}, {"time": 168562, "annotation": {"number": 11, "value": 86}, "group": "control_change"}, {"time": 168601, "annotation": {"number": 11, "value": 82}, "group": "control_change"}, {"time": 168641, "annotation": {"number": 11, "value": 78}, "group": "control_change"}, {"time": 168680, "annotation": {"number": 11, "value": 73}, "group": "control_change"}, {"time": 168720, "annotation": {"number": 11, "value": 67}, "group": "control_change"}, {"time": 168759, "annotation": {"number": 11, "value": 60}, "group": "control_change"}, {"time": 168799, "annotation": {"number": 11, "value": 51}, "group": "control_change"}, {"time": 168838, "annotation": {"number": 11, "value": 39}, "group": "control_change"}, {"time": 168878, "annotation": {"number": 11, "value": 28}, "group": "control_change"}, {"time": 169911, "annotation": {"number": 11, "value": 100}, "group": "control_change"}, {"time": 173560, "annotation": {"number": 11, "value": 99}, "group": "control_change"}, {"time": 173681, "annotation": {"number": 11, "value": 98}, "group": "control_change"}, {"time": 173761, "annotation": {"number": 11, "value": 97}, "group": "control_change"}, {"time": 173801, "annotation": {"number": 11, "value": 96}, "group": "control_change"}, {"time": 173841, "annotation": {"number": 11, "value": 95}, "group": "control_change"}, {"time": 173882, "annotation": {"number": 11, "value": 93}, "group": "control_change"}, {"time": 173922, "annotation": {"number": 11, "value": 92}, "group": "control_change"}, {"time": 173962, "annotation": {"number": 11, "value": 89}, "group": "control_change"}, {"time": 174002, "annotation": {"number": 11, "value": 86}, "group": "control_change"}, {"time": 174042, "annotation": {"number": 11, "value": 83}, "group": "control_change"}, {"time": 174082, "annotation": {"number": 11, "value": 79}, "group": "control_change"}, {"time": 174123, "annotation": {"number": 11, "value": 73}, "group": "control_change"}, {"time": 174163, "annotation": {"number": 11, "value": 66}, "group": "control_change"}, {"time": 174203, "annotation": {"number": 11, "value": 58}, "group": "control_change"}, {"time": 174243, "annotation": {"number": 11, "value": 47}, "group": "control_change"}, {"time": 174283, "annotation": {"number": 11, "value": 36}, "group": "control_change"}, {"time": 174470, "annotation": {"number": 11, "value": 100}, "group": "control_change"}, {"time": 183402, "annotation": {"number": 11, "value": 99}, "group": "control_change"}, {"time": 183522, "annotation": {"number": 11, "value": 98}, "group": "control_change"}, {"time": 183602, "annotation": {"number": 11, "value": 97}, "group": "control_change"}, {"time": 183643, "annotation": {"number": 11, "value": 96}, "group": "control_change"}, {"time": 183683, "annotation": {"number": 11, "value": 95}, "group": "control_change"}, {"time": 183763, "annotation": {"number": 11, "value": 93}, "group": "control_change"}, {"time": 183803, "annotation": {"number": 11, "value": 91}, "group": "control_change"}, {"time": 183843, "annotation": {"number": 11, "value": 89}, "group": "control_change"}, {"time": 183883, "annotation": {"number": 11, "value": 87}, "group": "control_change"}, {"time": 183922, "annotation": {"number": 11, "value": 84}, "group": "control_change"}, {"time": 183962, "annotation": {"number": 11, "value": 80}, "group": "control_change"}, {"time": 184001, "annotation": {"number": 11, "value": 76}, "group": "control_change"}, {"time": 184041, "annotation": {"number": 11, "value": 70}, "group": "control_change"}, {"time": 184080, "annotation": {"number": 11, "value": 63}, "group": "control_change"}, {"time": 184120, "annotation": {"number": 11, "value": 55}, "group": "control_change"}, {"time": 184159, "annotation": {"number": 11, "value": 45}, "group": "control_change"}, {"time": 184199, "annotation": {"number": 11, "value": 32}, "group": "control_change"}, {"time": 184238, "annotation": {"number": 11, "value": 20}, "group": "control_change"}, {"time": 185271, "annotation": {"number": 11, "value": 100}, "group": "control_change"}, {"time": 188921, "annotation": {"number": 11, "value": 99}, "group": "control_change"}, {"time": 189041, "annotation": {"number": 11, "value": 98}, "group": "control_change"}, {"time": 189122, "annotation": {"number": 11, "value": 97}, "group": "control_change"}, {"time": 189162, "annotation": {"number": 11, "value": 96}, "group": "control_change"}, {"time": 189202, "annotation": {"number": 11, "value": 95}, "group": "control_change"}, {"time": 189242, "annotation": {"number": 11, "value": 94}, "group": "control_change"}, {"time": 189282, "annotation": {"number": 11, "value": 92}, "group": "control_change"}, {"time": 189323, "annotation": {"number": 11, "value": 90}, "group": "control_change"}, {"time": 189363, "annotation": {"number": 11, "value": 87}, "group": "control_change"}, {"time": 189403, "annotation": {"number": 11, "value": 84}, "group": "control_change"}, {"time": 189443, "annotation": {"number": 11, "value": 80}, "group": "control_change"}, {"time": 189483, "annotation": {"number": 11, "value": 74}, "group": "control_change"}, {"time": 189523, "annotation": {"number": 11, "value": 68}, "group": "control_change"}, {"time": 189564, "annotation": {"number": 11, "value": 60}, "group": "control_change"}, {"time": 189604, "annotation": {"number": 11, "value": 50}, "group": "control_change"}, {"time": 189643, "annotation": {"number": 11, "value": 36}, "group": "control_change"}, {"time": 189831, "annotation": {"number": 11, "value": 100}, "group": "control_change"}]}, {"program": 0, "is_drum": false, "name": "CHORUS", "annotations": [{"time": 230, "annotation": {"number": 0, "value": 0}, "group": "control_change"}, {"time": 250, "annotation": {"number": 32, "value": 0}, "group": "control_change"}]}, {"program": 54, "is_drum": false, "name": "CHORUS", "notes": [{"time": 62396, "pitch": 67, "duration": 221, "velocity": 118}, {"time": 62637, "pitch": 66, "duration": 242, "velocity": 112}, {"time": 63120, "pitch": 66, "duration": 70, "velocity": 105}, {"time": 63361, "pitch": 67, "duration": 70, "velocity": 114}, {"time": 63602, "pitch": 66, "duration": 418, "velocity": 105}, {"time": 64080, "pitch": 64, "duration": 187, "velocity": 110}, {"time": 64317, "pitch": 67, "duration": 502, "velocity": 110}, {"time": 65040, "pitch": 61, "duration": 231, "velocity": 112}, {"time": 65281, "pitch": 64, "duration": 80, "velocity": 110}, {"time": 65522, "pitch": 71, "duration": 330, "velocity": 96}, {"time": 66000, "pitch": 71, "duration": 69, "velocity": 103}, {"time": 66237, "pitch": 69, "duration": 90, "velocity": 107}, {"time": 66478, "pitch": 69, "duration": 70, "velocity": 112}, {"time": 66719, "pitch": 67, "duration": 231, "velocity": 105}, {"time": 66960, "pitch": 66, "duration": 80, "velocity": 100}, {"time": 67201, "pitch": 64, "duration": 90, "velocity": 100}, {"time": 67442, "pitch": 66, "duration": 468, "velocity": 112}, {"time": 67920, "pitch": 67, "duration": 1161, "velocity": 107}, {"time": 70077, "pitch": 67, "duration": 221, "velocity": 118}, {"time": 70318, "pitch": 66, "duration": 241, "velocity": 112}, {"time": 70800, "pitch": 66, "duration": 70, "velocity": 105}, {"time": 71041, "pitch": 67, "duration": 70, "velocity": 114}, {"time": 71282, "pitch": 66, "duration": 419, "velocity": 105}, {"time": 71760, "pitch": 64, "duration": 188, "velocity": 110}, {"time": 71997, "pitch": 67, "duration": 502, "velocity": 110}, {"time": 72720, "pitch": 61, "duration": 231, "velocity": 112}, {"time": 72961, "pitch": 62, "duration": 90, "velocity": 100}, {"time": 73202, "pitch": 64, "duration": 1237, "velocity": 98}, {"time": 74640, "pitch": 64, "duration": 221, "velocity": 104}, {"time": 74881, "pitch": 66, "duration": 80, "velocity": 105}, {"time": 75122, "pitch": 67, "duration": 360, "velocity": 105}, {"time": 75600, "pitch": 67, "duration": 128, "velocity": 106}, {"time": 75837, "pitch": 66, "duration": 110, "velocity": 107}, {"time": 76078, "pitch": 66, "duration": 111, "velocity": 107}, {"time": 76319, "pitch": 64, "duration": 111, "velocity": 108}, {"time": 76560, "pitch": 64, "duration": 111, "velocity": 108}, {"time": 76801, "pitch": 66, "duration": 472, "velocity": 108}, {"time": 116159, "pitch": 67, "duration": 221, "velocity": 118}, {"time": 116400, "pitch": 66, "duration": 241, "velocity": 112}, {"time": 116882, "pitch": 66, "duration": 70, "velocity": 105}, {"time": 117123, "pitch": 67, "duration": 69, "velocity": 114}, {"time": 117360, "pitch": 66, "duration": 417, "velocity": 105}, {"time": 117838, "pitch": 64, "duration": 191, "velocity": 110}, {"time": 118079, "pitch": 67, "duration": 502, "velocity": 110}, {"time": 118802, "pitch": 61, "duration": 231, "velocity": 112}, {"time": 119043, "pitch": 64, "duration": 79, "velocity": 110}, {"time": 119280, "pitch": 71, "duration": 327, "velocity": 96}, {"time": 119758, "pitch": 71, "duration": 70, "velocity": 103}, {"time": 119999, "pitch": 69, "duration": 90, "velocity": 107}, {"time": 120240, "pitch": 69, "duration": 70, "velocity": 112}, {"time": 120481, "pitch": 67, "duration": 231, "velocity": 105}, {"time": 120722, "pitch": 66, "duration": 80, "velocity": 100}, {"time": 120963, "pitch": 64, "duration": 89, "velocity": 100}, {"time": 121200, "pitch": 66, "duration": 468, "velocity": 112}, {"time": 121678, "pitch": 67, "duration": 1165, "velocity": 107}, {"time": 123839, "pitch": 67, "duration": 221, "velocity": 118}, {"time": 124080, "pitch": 66, "duration": 241, "velocity": 112}, {"time": 124562, "pitch": 66, "duration": 70, "velocity": 105}, {"time": 124803, "pitch": 67, "duration": 69, "velocity": 114}, {"time": 125040, "pitch": 66, "duration": 418, "velocity": 105}, {"time": 125518, "pitch": 64, "duration": 191, "velocity": 110}, {"time": 125759, "pitch": 67, "duration": 502, "velocity": 110}, {"time": 126482, "pitch": 61, "duration": 231, "velocity": 112}, {"time": 126723, "pitch": 62, "duration": 89, "velocity": 100}, {"time": 126960, "pitch": 64, "duration": 1241, "velocity": 98}, {"time": 128402, "pitch": 64, "duration": 221, "velocity": 104}, {"time": 128643, "pitch": 66, "duration": 79, "velocity": 105}, {"time": 128880, "pitch": 67, "duration": 358, "velocity": 105}, {"time": 129358, "pitch": 67, "duration": 131, "velocity": 106}, {"time": 129599, "pitch": 66, "duration": 111, "velocity": 107}, {"time": 129840, "pitch": 66, "duration": 111, "velocity": 107}, {"time": 130081, "pitch": 64, "duration": 111, "velocity": 108}, {"time": 130322, "pitch": 64, "duration": 111, "velocity": 108}, {"time": 130563, "pitch": 66, "duration": 464, "velocity": 108}, {"time": 162241, "pitch": 67, "duration": 221, "velocity": 118}, {"time": 162482, "pitch": 66, "duration": 241, "velocity": 112}, {"time": 162960, "pitch": 66, "duration": 69, "velocity": 105}, {"time": 163197, "pitch": 67, "duration": 70, "velocity": 114}, {"time": 163438, "pitch": 66, "duration": 421, "velocity": 105}, {"time": 163920, "pitch": 64, "duration": 190, "velocity": 110}, {"time": 164161, "pitch": 67, "duration": 501, "velocity": 110}, {"time": 164880, "pitch": 61, "duration": 227, "velocity": 112}, {"time": 165117, "pitch": 64, "duration": 80, "velocity": 110}, {"time": 165358, "pitch": 71, "duration": 331, "velocity": 96}, {"time": 165840, "pitch": 71, "duration": 70, "velocity": 103}, {"time": 166081, "pitch": 69, "duration": 90, "velocity": 107}, {"time": 166322, "pitch": 69, "duration": 70, "velocity": 112}, {"time": 166563, "pitch": 67, "duration": 227, "velocity": 105}, {"time": 166800, "pitch": 66, "duration": 79, "velocity": 100}, {"time": 167037, "pitch": 64, "duration": 90, "velocity": 100}, {"time": 167278, "pitch": 66, "duration": 472, "velocity": 112}, {"time": 167760, "pitch": 67, "duration": 1157, "velocity": 107}, {"time": 169921, "pitch": 67, "duration": 221, "velocity": 118}, {"time": 170162, "pitch": 66, "duration": 241, "velocity": 112}, {"time": 170640, "pitch": 66, "duration": 69, "velocity": 105}, {"time": 170877, "pitch": 67, "duration": 70, "velocity": 114}, {"time": 171118, "pitch": 66, "duration": 422, "velocity": 105}, {"time": 171600, "pitch": 64, "duration": 191, "velocity": 110}, {"time": 171841, "pitch": 67, "duration": 502, "velocity": 110}, {"time": 172560, "pitch": 61, "duration": 227, "velocity": 112}, {"time": 172797, "pitch": 62, "duration": 90, "velocity": 100}, {"time": 173038, "pitch": 64, "duration": 1245, "velocity": 98}, {"time": 174480, "pitch": 64, "duration": 217, "velocity": 104}, {"time": 174717, "pitch": 66, "duration": 80, "velocity": 105}, {"time": 174958, "pitch": 67, "duration": 362, "velocity": 105}, {"time": 175440, "pitch": 67, "duration": 131, "velocity": 106}, {"time": 175681, "pitch": 66, "duration": 111, "velocity": 107}, {"time": 175922, "pitch": 66, "duration": 111, "velocity": 107}, {"time": 176163, "pitch": 64, "duration": 109, "velocity": 108}, {"time": 176400, "pitch": 64, "duration": 109, "velocity": 108}, {"time": 176637, "pitch": 66, "duration": 472, "velocity": 108}, {"time": 177601, "pitch": 67, "duration": 221, "velocity": 118}, {"time": 177842, "pitch": 66, "duration": 241, "velocity": 112}, {"time": 178320, "pitch": 66, "duration": 69, "velocity": 105}, {"time": 178557, "pitch": 67, "duration": 70, "velocity": 114}, {"time": 178798, "pitch": 66, "duration": 422, "velocity": 105}, {"time": 179280, "pitch": 64, "duration": 191, "velocity": 110}, {"time": 179521, "pitch": 67, "duration": 502, "velocity": 110}, {"time": 180240, "pitch": 61, "duration": 227, "velocity": 112}, {"time": 180477, "pitch": 64, "duration": 81, "velocity": 110}, {"time": 180718, "pitch": 71, "duration": 332, "velocity": 96}, {"time": 181200, "pitch": 71, "duration": 71, "velocity": 103}, {"time": 181441, "pitch": 69, "duration": 91, "velocity": 107}, {"time": 181682, "pitch": 69, "duration": 71, "velocity": 112}, {"time": 181923, "pitch": 67, "duration": 227, "velocity": 105}, {"time": 182160, "pitch": 66, "duration": 79, "velocity": 100}, {"time": 182397, "pitch": 64, "duration": 91, "velocity": 100}, {"time": 182638, "pitch": 66, "duration": 472, "velocity": 112}, {"time": 183120, "pitch": 67, "duration": 1158, "velocity": 107}, {"time": 185282, "pitch": 67, "duration": 220, "velocity": 118}, {"time": 185523, "pitch": 66, "duration": 241, "velocity": 112}, {"time": 186001, "pitch": 66, "duration": 69, "velocity": 105}, {"time": 186237, "pitch": 67, "duration": 71, "velocity": 114}, {"time": 186478, "pitch": 66, "duration": 422, "velocity": 105}, {"time": 186961, "pitch": 64, "duration": 190, "velocity": 110}, {"time": 187202, "pitch": 67, "duration": 501, "velocity": 110}, {"time": 187921, "pitch": 61, "duration": 227, "velocity": 112}, {"time": 188158, "pitch": 62, "duration": 90, "velocity": 100}, {"time": 188399, "pitch": 64, "duration": 1244, "velocity": 98}, {"time": 189841, "pitch": 64, "duration": 217, "velocity": 104}, {"time": 190078, "pitch": 66, "duration": 80, "velocity": 105}, {"time": 190319, "pitch": 67, "duration": 361, "velocity": 105}, {"time": 190801, "pitch": 67, "duration": 130, "velocity": 106}, {"time": 191042, "pitch": 66, "duration": 110, "velocity": 107}, {"time": 191283, "pitch": 66, "duration": 110, "velocity": 107}, {"time": 191524, "pitch": 64, "duration": 108, "velocity": 108}, {"time": 191761, "pitch": 64, "duration": 108, "velocity": 108}, {"time": 191998, "pitch": 66, "duration": 472, "velocity": 108}], "annotations": [{"time": 292, "annotation": {"number": 7, "value": 100}, "group": "control_change"}, {"time": 313, "annotation": {"number": 11, "value": 100}, "group": "control_change"}, {"time": 334, "annotation": {"number": 10, "value": 68}, "group": "control_change"}, {"time": 355, "annotation": {"number": 91, "value": 40}, "group": "control_change"}, {"time": 376, "annotation": {"number": 93, "value": 40}, "group": "control_change"}, {"time": 397, "annotation": {"number": 101, "value": 0}, "group": "control_change"}, {"time": 417, "annotation": {"number": 100, "value": 0}, "group": "control_change"}, {"time": 438, "annotation": {"number": 6, "value": 12}, "group": "control_change"}, {"time": 459, "annotation": {"number": 101, "value": 127}, "group": "control_change"}, {"time": 480, "annotation": {"number": 100, "value": 127}, "group": "control_change"}, {"time": 68237, "annotation": {"number": 11, "value": 99}, "group": "control_change"}, {"time": 68358, "annotation": {"number": 11, "value": 98}, "group": "control_change"}, {"time": 68398, "annotation": {"number": 11, "value": 97}, "group": "control_change"}, {"time": 68478, "annotation": {"number": 11, "value": 96}, "group": "control_change"}, {"time": 68518, "annotation": {"number": 11, "value": 95}, "group": "control_change"}, {"time": 68558, "annotation": {"number": 11, "value": 94}, "group": "control_change"}, {"time": 68599, "annotation": {"number": 11, "value": 92}, "group": "control_change"}, {"time": 68639, "annotation": {"number": 11, "value": 90}, "group": "control_change"}, {"time": 68679, "annotation": {"number": 11, "value": 88}, "group": "control_change"}, {"time": 68719, "annotation": {"number": 11, "value": 85}, "group": "control_change"}, {"time": 68759, "annotation": {"number": 11, "value": 82}, "group": "control_change"}, {"time": 68799, "annotation": {"number": 11, "value": 78}, "group": "control_change"}, {"time": 68840, "annotation": {"number": 11, "value": 74}, "group": "control_change"}, {"time": 68880, "annotation": {"number": 11, "value": 68}, "group": "control_change"}, {"time": 68920, "annotation": {"number": 11, "value": 60}, "group": "control_change"}, {"time": 68960, "annotation": {"number": 11, "value": 52}, "group": "control_change"}, {"time": 69000, "annotation": {"number": 11, "value": 41}, "group": "control_change"}, {"time": 69041, "annotation": {"number": 11, "value": 29}, "group": "control_change"}, {"time": 69081, "annotation": {"number": 11, "value": 20}, "group": "control_change"}, {"time": 70067, "annotation": {"number": 11, "value": 100}, "group": "control_change"}, {"time": 73719, "annotation": {"number": 11, "value": 99}, "group": "control_change"}, {"time": 73838, "annotation": {"number": 11, "value": 98}, "group": "control_change"}, {"time": 73917, "annotation": {"number": 11, "value": 97}, "group": "control_change"}, {"time": 73957, "annotation": {"number": 11, "value": 96}, "group": "control_change"}, {"time": 73997, "annotation": {"number": 11, "value": 95}, "group": "control_change"}, {"time": 74037, "annotation": {"number": 11, "value": 93}, "group": "control_change"}, {"time": 74078, "annotation": {"number": 11, "value": 91}, "group": "control_change"}, {"time": 74118, "annotation": {"number": 11, "value": 89}, "group": "control_change"}, {"time": 74158, "annotation": {"number": 11, "value": 86}, "group": "control_change"}, {"time": 74198, "annotation": {"number": 11, "value": 82}, "group": "control_change"}, {"time": 74238, "annotation": {"number": 11, "value": 78}, "group": "control_change"}, {"time": 74278, "annotation": {"number": 11, "value": 72}, "group": "control_change"}, {"time": 74319, "annotation": {"number": 11, "value": 65}, "group": "control_change"}, {"time": 74359, "annotation": {"number": 11, "value": 55}, "group": "control_change"}, {"time": 74399, "annotation": {"number": 11, "value": 44}, "group": "control_change"}, {"time": 74439, "annotation": {"number": 11, "value": 36}, "group": "control_change"}, {"time": 74630, "annotation": {"number": 11, "value": 100}, "group": "control_change"}, {"time": 121999, "annotation": {"number": 11, "value": 99}, "group": "control_change"}, {"time": 122120, "annotation": {"number": 11, "value": 98}, "group": "control_change"}, {"time": 122200, "annotation": {"number": 11, "value": 97}, "group": "control_change"}, {"time": 122280, "annotation": {"number": 11, "value": 96}, "group": "control_change"}, {"time": 122321, "annotation": {"number": 11, "value": 95}, "group": "control_change"}, {"time": 122361, "annotation": {"number": 11, "value": 93}, "group": "control_change"}, {"time": 122401, "annotation": {"number": 11, "value": 92}, "group": "control_change"}, {"time": 122441, "annotation": {"number": 11, "value": 90}, "group": "control_change"}, {"time": 122481, "annotation": {"number": 11, "value": 88}, "group": "control_change"}, {"time": 122522, "annotation": {"number": 11, "value": 85}, "group": "control_change"}, {"time": 122562, "annotation": {"number": 11, "value": 82}, "group": "control_change"}, {"time": 122602, "annotation": {"number": 11, "value": 78}, "group": "control_change"}, {"time": 122642, "annotation": {"number": 11, "value": 73}, "group": "control_change"}, {"time": 122682, "annotation": {"number": 11, "value": 68}, "group": "control_change"}, {"time": 122722, "annotation": {"number": 11, "value": 61}, "group": "control_change"}, {"time": 122763, "annotation": {"number": 11, "value": 52}, "group": "control_change"}, {"time": 122803, "annotation": {"number": 11, "value": 41}, "group": "control_change"}, {"time": 122843, "annotation": {"number": 11, "value": 28}, "group": "control_change"}, {"time": 123829, "annotation": {"number": 11, "value": 100}, "group": "control_change"}, {"time": 127478, "annotation": {"number": 11, "value": 99}, "group": "control_change"}, {"time": 127599, "annotation": {"number": 11, "value": 98}, "group": "control_change"}, {"time": 127679, "annotation": {"number": 11, "value": 97}, "group": "control_change"}, {"time": 127719, "annotation": {"number": 11, "value": 96}, "group": "control_change"}, {"time": 127759, "annotation": {"number": 11, "value": 95}, "group": "control_change"}, {"time": 127800, "annotation": {"number": 11, "value": 94}, "group": "control_change"}, {"time": 127840, "annotation": {"number": 11, "value": 92}, "group": "control_change"}, {"time": 127880, "annotation": {"number": 11, "value": 90}, "group": "control_change"}, {"time": 127920, "annotation": {"number": 11, "value": 87}, "group": "control_change"}, {"time": 127960, "annotation": {"number": 11, "value": 84}, "group": "control_change"}, {"time": 128001, "annotation": {"number": 11, "value": 80}, "group": "control_change"}, {"time": 128041, "annotation": {"number": 11, "value": 74}, "group": "control_change"}, {"time": 128081, "annotation": {"number": 11, "value": 68}, "group": "control_change"}, {"time": 128121, "annotation": {"number": 11, "value": 60}, "group": "control_change"}, {"time": 128161, "annotation": {"number": 11, "value": 50}, "group": "control_change"}, {"time": 128201, "annotation": {"number": 11, "value": 36}, "group": "control_change"}, {"time": 128392, "annotation": {"number": 11, "value": 100}, "group": "control_change"}, {"time": 168081, "annotation": {"number": 11, "value": 99}, "group": "control_change"}, {"time": 168202, "annotation": {"number": 11, "value": 98}, "group": "control_change"}, {"time": 168282, "annotation": {"number": 11, "value": 97}, "group": "control_change"}, {"time": 168362, "annotation": {"number": 11, "value": 96}, "group": "control_change"}, {"time": 168403, "annotation": {"number": 11, "value": 95}, "group": "control_change"}, {"time": 168443, "annotation": {"number": 11, "value": 93}, "group": "control_change"}, {"time": 168483, "annotation": {"number": 11, "value": 92}, "group": "control_change"}, {"time": 168522, "annotation": {"number": 11, "value": 90}, "group": "control_change"}, {"time": 168562, "annotation": {"number": 11, "value": 88}, "group": "control_change"}, {"time": 168601, "annotation": {"number": 11, "value": 85}, "group": "control_change"}, {"time": 168641, "annotation": {"number": 11, "value": 82}, "group": "control_change"}, {"time": 168680, "annotation": {"number": 11, "value": 78}, "group": "control_change"}, {"time": 168720, "annotation": {"number": 11, "value": 73}, "group": "control_change"}, {"time": 168759, "annotation": {"number": 11, "value": 68}, "group": "control_change"}, {"time": 168799, "annotation": {"number": 11, "value": 61}, "group": "control_change"}, {"time": 168838, "annotation": {"number": 11, "value": 52}, "group": "control_change"}, {"time": 168878, "annotation": {"number": 11, "value": 41}, "group": "control_change"}, {"time": 168917, "annotation": {"number": 11, "value": 28}, "group": "control_change"}, {"time": 169911, "annotation": {"number": 11, "value": 100}, "group": "control_change"}, {"time": 173560, "annotation": {"number": 11, "value": 99}, "group": "control_change"}, {"time": 173681, "annotation": {"number": 11, "value": 98}, "group": "control_change"}, {"time": 173721, "annotation": {"number": 11, "value": 97}, "group": "control_change"}, {"time": 173801, "annotation": {"number": 11, "value": 95}, "group": "control_change"}, {"time": 173841, "annotation": {"number": 11, "value": 94}, "group": "control_change"}, {"time": 173882, "annotation": {"number": 11, "value": 92}, "group": "control_change"}, {"time": 173922, "annotation": {"number": 11, "value": 90}, "group": "control_change"}, {"time": 173962, "annotation": {"number": 11, "value": 88}, "group": "control_change"}, {"time": 174002, "annotation": {"number": 11, "value": 84}, "group": "control_change"}, {"time": 174042, "annotation": {"number": 11, "value": 80}, "group": "control_change"}, {"time": 174082, "annotation": {"number": 11, "value": 75}, "group": "control_change"}, {"time": 174123, "annotation": {"number": 11, "value": 68}, "group": "control_change"}, {"time": 174163, "annotation": {"number": 11, "value": 61}, "group": "control_change"}, {"time": 174203, "annotation": {"number": 11, "value": 50}, "group": "control_change"}, {"time": 174243, "annotation": {"number": 11, "value": 37}, "group": "control_change"}, {"time": 174283, "annotation": {"number": 11, "value": 28}, "group": "control_change"}, {"time": 174470, "annotation": {"number": 11, "value": 100}, "group": "control_change"}, {"time": 183442, "annotation": {"number": 11, "value": 99}, "group": "control_change"}, {"time": 183562, "annotation": {"number": 11, "value": 98}, "group": "control_change"}, {"time": 183643, "annotation": {"number": 11, "value": 97}, "group": "control_change"}, {"time": 183683, "annotation": {"number": 11, "value": 96}, "group": "control_change"}, {"time": 183723, "annotation": {"number": 11, "value": 95}, "group": "control_change"}, {"time": 183763, "annotation": {"number": 11, "value": 94}, "group": "control_change"}, {"time": 183803, "annotation": {"number": 11, "value": 93}, "group": "control_change"}, {"time": 183843, "annotation": {"number": 11, "value": 91}, "group": "control_change"}, {"time": 183883, "annotation": {"number": 11, "value": 89}, "group": "control_change"}, {"time": 183922, "annotation": {"number": 11, "value": 86}, "group": "control_change"}, {"time": 183962, "annotation": {"number": 11, "value": 84}, "group": "control_change"}, {"time": 184001, "annotation": {"number": 11, "value": 80}, "group": "control_change"}, {"time": 184041, "annotation": {"number": 11, "value": 75}, "group": "control_change"}, {"time": 184080, "annotation": {"number": 11, "value": 70}, "group": "control_change"}, {"time": 184120, "annotation": {"number": 11, "value": 64}, "group": "control_change"}, {"time": 184159, "annotation": {"number": 11, "value": 56}, "group": "control_change"}, {"time": 184199, "annotation": {"number": 11, "value": 46}, "group": "control_change"}, {"time": 184238, "annotation": {"number": 11, "value": 35}, "group": "control_change"}, {"time": 184278, "annotation": {"number": 11, "value": 20}, "group": "control_change"}, {"time": 185271, "annotation": {"number": 11, "value": 100}, "group": "control_change"}, {"time": 188921, "annotation": {"number": 11, "value": 99}, "group": "control_change"}, {"time": 189041, "annotation": {"number": 11, "value": 98}, "group": "control_change"}, {"time": 189082, "annotation": {"number": 11, "value": 97}, "group": "control_change"}, {"time": 189162, "annotation": {"number": 11, "value": 95}, "group": "control_change"}, {"time": 189202, "annotation": {"number": 11, "value": 94}, "group": "control_change"}, {"time": 189242, "annotation": {"number": 11, "value": 93}, "group": "control_change"}, {"time": 189282, "annotation": {"number": 11, "value": 91}, "group": "control_change"}, {"time": 189323, "annotation": {"number": 11, "value": 88}, "group": "control_change"}, {"time": 189363, "annotation": {"number": 11, "value": 85}, "group": "control_change"}, {"time": 189403, "annotation": {"number": 11, "value": 81}, "group": "control_change"}, {"time": 189443, "annotation": {"number": 11, "value": 76}, "group": "control_change"}, {"time": 189483, "annotation": {"number": 11, "value": 70}, "group": "control_change"}, {"time": 189523, "annotation": {"number": 11, "value": 62}, "group": "control_change"}, {"time": 189564, "annotation": {"number": 11, "value": 53}, "group": "control_change"}, {"time": 189604, "annotation": {"number": 11, "value": 40}, "group": "control_change"}, {"time": 189643, "annotation": {"number": 11, "value": 28}, "group": "control_change"}, {"time": 189831, "annotation": {"number": 11, "value": 100}, "group": "control_change"}]}, {"program": 0, "is_drum": false, "name": "CLAVI", "annotations": [{"time": 230, "annotation": {"number": 0, "value": 0}, "group": "control_change"}, {"time": 250, "annotation": {"number": 32, "value": 0}, "group": "control_change"}]}, {"program": 7, "is_drum": false, "name": "CLAVI", "notes": [{"time": 61923, "pitch": 71, "duration": 59, "velocity": 47}, {"time": 61923, "pitch": 76, "duration": 59, "velocity": 52}, {"time": 61923, "pitch": 79, "duration": 59, "velocity": 42}, {"time": 62160, "pitch": 71, "duration": 59, "velocity": 101}, {"time": 62160, "pitch": 76, "duration": 59, "velocity": 106}, {"time": 62160, "pitch": 79, "duration": 59, "velocity": 111}, {"time": 62396, "pitch": 71, "duration": 61, "velocity": 48}, {"time": 62396, "pitch": 76, "duration": 61, "velocity": 53}, {"time": 62396, "pitch": 79, "duration": 61, "velocity": 58}, {"time": 62637, "pitch": 71, "duration": 61, "velocity": 103}, {"time": 62637, "pitch": 76, "duration": 61, "velocity": 108}, {"time": 62637, "pitch": 79, "duration": 61, "velocity": 98}, {"time": 62879, "pitch": 69, "duration": 60, "velocity": 49}, {"time": 62879, "pitch": 75, "duration": 60, "velocity": 54}, {"time": 62879, "pitch": 79, "duration": 60, "velocity": 44}, {"time": 63120, "pitch": 69, "duration": 60, "velocity": 96}, {"time": 63120, "pitch": 75, "duration": 60, "velocity": 106}, {"time": 63120, "pitch": 79, "duration": 60, "velocity": 101}, {"time": 63361, "pitch": 69, "duration": 60, "velocity": 44}, {"time": 63361, "pitch": 75, "duration": 60, "velocity": 54}, {"time": 63361, "pitch": 79, "duration": 60, "velocity": 49}, {"time": 63602, "pitch": 69, "duration": 60, "velocity": 100}, {"time": 63602, "pitch": 75, "duration": 60, "velocity": 110}, {"time": 63602, "pitch": 79, "duration": 60, "velocity": 105}, {"time": 63843, "pitch": 71, "duration": 59, "velocity": 47}, {"time": 63843, "pitch": 76, "duration": 59, "velocity": 52}, {"time": 63843, "pitch": 79, "duration": 59, "velocity": 42}, {"time": 64080, "pitch": 71, "duration": 59, "velocity": 101}, {"time": 64080, "pitch": 76, "duration": 59, "velocity": 106}, {"time": 64080, "pitch": 79, "duration": 59, "velocity": 111}, {"time": 64317, "pitch": 71, "duration": 60, "velocity": 48}, {"time": 64317, "pitch": 76, "duration": 60, "velocity": 53}, {"time": 64317, "pitch": 79, "duration": 60, "velocity": 58}, {"time": 64558, "pitch": 71, "duration": 60, "velocity": 101}, {"time": 64558, "pitch": 76, "duration": 60, "velocity": 106}, {"time": 64558, "pitch": 79, "duration": 60, "velocity": 96}, {"time": 64799, "pitch": 69, "duration": 60, "velocity": 49}, {"time": 64799, "pitch": 76, "duration": 60, "velocity": 54}, {"time": 64799, "pitch": 79, "duration": 60, "velocity": 44}, {"time": 65040, "pitch": 69, "duration": 60, "velocity": 104}, {"time": 65040, "pitch": 76, "duration": 60, "velocity": 114}, {"time": 65040, "pitch": 79, "duration": 60, "velocity": 109}, {"time": 65281, "pitch": 69, "duration": 60, "velocity": 44}, {"time": 65281, "pitch": 76, "duration": 60, "velocity": 54}, {"time": 65281, "pitch": 79, "duration": 60, "velocity": 49}, {"time": 65522, "pitch": 69, "duration": 60, "velocity": 102}, {"time": 65522, "pitch": 76, "duration": 60, "velocity": 112}, {"time": 65522, "pitch": 79, "duration": 60, "velocity": 107}, {"time": 65763, "pitch": 72, "duration": 59, "velocity": 47}, {"time": 65763, "pitch": 76, "duration": 59, "velocity": 52}, {"time": 65763, "pitch": 79, "duration": 59, "velocity": 42}, {"time": 66000, "pitch": 72, "duration": 59, "velocity": 101}, {"time": 66000, "pitch": 76, "duration": 59, "velocity": 106}, {"time": 66000, "pitch": 79, "duration": 59, "velocity": 111}, {"time": 66237, "pitch": 72, "duration": 60, "velocity": 48}, {"time": 66237, "pitch": 76, "duration": 60, "velocity": 53}, {"time": 66237, "pitch": 79, "duration": 60, "velocity": 58}, {"time": 66478, "pitch": 72, "duration": 60, "velocity": 103}, {"time": 66478, "pitch": 76, "duration": 60, "velocity": 108}, {"time": 66478, "pitch": 79, "duration": 60, "velocity": 98}, {"time": 66719, "pitch": 72, "duration": 60, "velocity": 49}, {"time": 66719, "pitch": 76, "duration": 60, "velocity": 54}, {"time": 66719, "pitch": 78, "duration": 60, "velocity": 44}, {"time": 66960, "pitch": 72, "duration": 60, "velocity": 95}, {"time": 66960, "pitch": 76, "duration": 60, "velocity": 105}, {"time": 66960, "pitch": 78, "duration": 60, "velocity": 100}, {"time": 67201, "pitch": 72, "duration": 60, "velocity": 44}, {"time": 67201, "pitch": 76, "duration": 60, "velocity": 54}, {"time": 67201, "pitch": 78, "duration": 60, "velocity": 49}, {"time": 67442, "pitch": 72, "duration": 60, "velocity": 100}, {"time": 67442, "pitch": 76, "duration": 60, "velocity": 110}, {"time": 67442, "pitch": 78, "duration": 60, "velocity": 105}, {"time": 67683, "pitch": 71, "duration": 59, "velocity": 47}, {"time": 67683, "pitch": 74, "duration": 59, "velocity": 52}, {"time": 67683, "pitch": 78, "duration": 59, "velocity": 42}, {"time": 67920, "pitch": 71, "duration": 59, "velocity": 101}, {"time": 67920, "pitch": 74, "duration": 59, "velocity": 106}, {"time": 67920, "pitch": 78, "duration": 59, "velocity": 111}, {"time": 68157, "pitch": 71, "duration": 60, "velocity": 48}, {"time": 68157, "pitch": 74, "duration": 60, "velocity": 53}, {"time": 68157, "pitch": 78, "duration": 60, "velocity": 58}, {"time": 68398, "pitch": 71, "duration": 60, "velocity": 103}, {"time": 68398, "pitch": 74, "duration": 60, "velocity": 108}, {"time": 68398, "pitch": 78, "duration": 60, "velocity": 98}, {"time": 68639, "pitch": 71, "duration": 60, "velocity": 49}, {"time": 68639, "pitch": 77, "duration": 60, "velocity": 54}, {"time": 68639, "pitch": 79, "duration": 60, "velocity": 44}, {"time": 68880, "pitch": 71, "duration": 60, "velocity": 95}, {"time": 68880, "pitch": 77, "duration": 60, "velocity": 105}, {"time": 68880, "pitch": 79, "duration": 60, "velocity": 100}, {"time": 69121, "pitch": 71, "duration": 60, "velocity": 44}, {"time": 69121, "pitch": 77, "duration": 60, "velocity": 54}, {"time": 69121, "pitch": 79, "duration": 60, "velocity": 49}, {"time": 69362, "pitch": 71, "duration": 60, "velocity": 120}, {"time": 69362, "pitch": 77, "duration": 60, "velocity": 110}, {"time": 69362, "pitch": 79, "duration": 60, "velocity": 118}, {"time": 69603, "pitch": 71, "duration": 59, "velocity": 47}, {"time": 69603, "pitch": 76, "duration": 59, "velocity": 52}, {"time": 69603, "pitch": 79, "duration": 59, "velocity": 42}, {"time": 69840, "pitch": 71, "duration": 59, "velocity": 101}, {"time": 69840, "pitch": 76, "duration": 59, "velocity": 106}, {"time": 69840, "pitch": 79, "duration": 59, "velocity": 111}, {"time": 70077, "pitch": 71, "duration": 60, "velocity": 48}, {"time": 70077, "pitch": 76, "duration": 60, "velocity": 53}, {"time": 70077, "pitch": 79, "duration": 60, "velocity": 58}, {"time": 70318, "pitch": 71, "duration": 60, "velocity": 103}, {"time": 70318, "pitch": 76, "duration": 60, "velocity": 108}, {"time": 70318, "pitch": 79, "duration": 60, "velocity": 98}, {"time": 70559, "pitch": 69, "duration": 60, "velocity": 49}, {"time": 70559, "pitch": 75, "duration": 60, "velocity": 54}, {"time": 70559, "pitch": 79, "duration": 60, "velocity": 44}, {"time": 70800, "pitch": 69, "duration": 60, "velocity": 96}, {"time": 70800, "pitch": 75, "duration": 60, "velocity": 106}, {"time": 70800, "pitch": 79, "duration": 60, "velocity": 101}, {"time": 71041, "pitch": 69, "duration": 60, "velocity": 44}, {"time": 71041, "pitch": 75, "duration": 60, "velocity": 54}, {"time": 71041, "pitch": 79, "duration": 60, "velocity": 49}, {"time": 71282, "pitch": 69, "duration": 60, "velocity": 100}, {"time": 71282, "pitch": 75, "duration": 60, "velocity": 110}, {"time": 71282, "pitch": 79, "duration": 60, "velocity": 105}, {"time": 71523, "pitch": 71, "duration": 59, "velocity": 47}, {"time": 71523, "pitch": 76, "duration": 59, "velocity": 52}, {"time": 71523, "pitch": 79, "duration": 59, "velocity": 42}, {"time": 71760, "pitch": 71, "duration": 59, "velocity": 101}, {"time": 71760, "pitch": 76, "duration": 59, "velocity": 106}, {"time": 71760, "pitch": 79, "duration": 59, "velocity": 111}, {"time": 71997, "pitch": 71, "duration": 60, "velocity": 48}, {"time": 71997, "pitch": 76, "duration": 60, "velocity": 53}, {"time": 71997, "pitch": 79, "duration": 60, "velocity": 58}, {"time": 72238, "pitch": 71, "duration": 60, "velocity": 101}, {"time": 72238, "pitch": 76, "duration": 60, "velocity": 106}, {"time": 72238, "pitch": 79, "duration": 60, "velocity": 96}, {"time": 72479, "pitch": 69, "duration": 60, "velocity": 49}, {"time": 72479, "pitch": 76, "duration": 60, "velocity": 54}, {"time": 72479, "pitch": 79, "duration": 60, "velocity": 44}, {"time": 72720, "pitch": 69, "duration": 60, "velocity": 104}, {"time": 72720, "pitch": 76, "duration": 60, "velocity": 114}, {"time": 72720, "pitch": 79, "duration": 60, "velocity": 109}, {"time": 72961, "pitch": 69, "duration": 60, "velocity": 44}, {"time": 72961, "pitch": 76, "duration": 60, "velocity": 54}, {"time": 72961, "pitch": 79, "duration": 60, "velocity": 49}, {"time": 73202, "pitch": 69, "duration": 60, "velocity": 102}, {"time": 73202, "pitch": 76, "duration": 60, "velocity": 112}, {"time": 73202, "pitch": 79, "duration": 60, "velocity": 107}, {"time": 73443, "pitch": 72, "duration": 59, "velocity": 47}, {"time": 73443, "pitch": 76, "duration": 59, "velocity": 52}, {"time": 73443, "pitch": 79, "duration": 59, "velocity": 42}, {"time": 73680, "pitch": 72, "duration": 59, "velocity": 101}, {"time": 73680, "pitch": 76, "duration": 59, "velocity": 106}, {"time": 73680, "pitch": 79, "duration": 59, "velocity": 111}, {"time": 73917, "pitch": 72, "duration": 60, "velocity": 48}, {"time": 73917, "pitch": 76, "duration": 60, "velocity": 53}, {"time": 73917, "pitch": 79, "duration": 60, "velocity": 58}, {"time": 74158, "pitch": 72, "duration": 60, "velocity": 101}, {"time": 74158, "pitch": 76, "duration": 60, "velocity": 106}, {"time": 74158, "pitch": 79, "duration": 60, "velocity": 96}, {"time": 74399, "pitch": 72, "duration": 60, "velocity": 49}, {"time": 74399, "pitch": 76, "duration": 60, "velocity": 54}, {"time": 74399, "pitch": 79, "duration": 60, "velocity": 44}, {"time": 74640, "pitch": 72, "duration": 60, "velocity": 104}, {"time": 74640, "pitch": 76, "duration": 60, "velocity": 114}, {"time": 74640, "pitch": 79, "duration": 60, "velocity": 109}, {"time": 74881, "pitch": 72, "duration": 60, "velocity": 44}, {"time": 74881, "pitch": 76, "duration": 60, "velocity": 54}, {"time": 74881, "pitch": 79, "duration": 60, "velocity": 49}, {"time": 75122, "pitch": 72, "duration": 60, "velocity": 102}, {"time": 75122, "pitch": 76, "duration": 60, "velocity": 112}, {"time": 75122, "pitch": 79, "duration": 60, "velocity": 107}, {"time": 115677, "pitch": 71, "duration": 60, "velocity": 47}, {"time": 115677, "pitch": 76, "duration": 60, "velocity": 52}, {"time": 115677, "pitch": 79, "duration": 60, "velocity": 42}, {"time": 115918, "pitch": 71, "duration": 60, "velocity": 101}, {"time": 115918, "pitch": 76, "duration": 60, "velocity": 106}, {"time": 115918, "pitch": 79, "duration": 60, "velocity": 111}, {"time": 116159, "pitch": 71, "duration": 60, "velocity": 48}, {"time": 116159, "pitch": 76, "duration": 60, "velocity": 53}, {"time": 116159, "pitch": 79, "duration": 60, "velocity": 58}, {"time": 116400, "pitch": 71, "duration": 60, "velocity": 103}, {"time": 116400, "pitch": 76, "duration": 60, "velocity": 108}, {"time": 116400, "pitch": 79, "duration": 60, "velocity": 98}, {"time": 116641, "pitch": 69, "duration": 60, "velocity": 49}, {"time": 116641, "pitch": 75, "duration": 60, "velocity": 54}, {"time": 116641, "pitch": 79, "duration": 60, "velocity": 44}, {"time": 116882, "pitch": 69, "duration": 60, "velocity": 96}, {"time": 116882, "pitch": 75, "duration": 60, "velocity": 106}, {"time": 116882, "pitch": 79, "duration": 60, "velocity": 101}, {"time": 117123, "pitch": 69, "duration": 59, "velocity": 44}, {"time": 117123, "pitch": 75, "duration": 59, "velocity": 54}, {"time": 117123, "pitch": 79, "duration": 59, "velocity": 49}, {"time": 117360, "pitch": 69, "duration": 59, "velocity": 100}, {"time": 117360, "pitch": 75, "duration": 59, "velocity": 110}, {"time": 117360, "pitch": 79, "duration": 59, "velocity": 105}, {"time": 117597, "pitch": 71, "duration": 60, "velocity": 47}, {"time": 117597, "pitch": 76, "duration": 60, "velocity": 52}, {"time": 117597, "pitch": 79, "duration": 60, "velocity": 42}, {"time": 117838, "pitch": 71, "duration": 60, "velocity": 101}, {"time": 117838, "pitch": 76, "duration": 60, "velocity": 106}, {"time": 117838, "pitch": 79, "duration": 60, "velocity": 111}, {"time": 118079, "pitch": 71, "duration": 60, "velocity": 48}, {"time": 118079, "pitch": 76, "duration": 60, "velocity": 53}, {"time": 118079, "pitch": 79, "duration": 60, "velocity": 58}, {"time": 118320, "pitch": 71, "duration": 60, "velocity": 101}, {"time": 118320, "pitch": 76, "duration": 60, "velocity": 106}, {"time": 118320, "pitch": 79, "duration": 60, "velocity": 96}, {"time": 118561, "pitch": 69, "duration": 60, "velocity": 49}, {"time": 118561, "pitch": 76, "duration": 60, "velocity": 54}, {"time": 118561, "pitch": 79, "duration": 60, "velocity": 44}, {"time": 118802, "pitch": 69, "duration": 60, "velocity": 104}, {"time": 118802, "pitch": 76, "duration": 60, "velocity": 114}, {"time": 118802, "pitch": 79, "duration": 60, "velocity": 109}, {"time": 119043, "pitch": 69, "duration": 59, "velocity": 44}, {"time": 119043, "pitch": 76, "duration": 59, "velocity": 54}, {"time": 119043, "pitch": 79, "duration": 59, "velocity": 49}, {"time": 119280, "pitch": 69, "duration": 59, "velocity": 102}, {"time": 119280, "pitch": 76, "duration": 59, "velocity": 112}, {"time": 119280, "pitch": 79, "duration": 59, "velocity": 107}, {"time": 119517, "pitch": 72, "duration": 60, "velocity": 47}, {"time": 119517, "pitch": 76, "duration": 60, "velocity": 52}, {"time": 119517, "pitch": 79, "duration": 60, "velocity": 42}, {"time": 119758, "pitch": 72, "duration": 60, "velocity": 101}, {"time": 119758, "pitch": 76, "duration": 60, "velocity": 106}, {"time": 119758, "pitch": 79, "duration": 60, "velocity": 111}, {"time": 119999, "pitch": 72, "duration": 60, "velocity": 48}, {"time": 119999, "pitch": 76, "duration": 60, "velocity": 53}, {"time": 119999, "pitch": 79, "duration": 60, "velocity": 58}, {"time": 120240, "pitch": 72, "duration": 60, "velocity": 103}, {"time": 120240, "pitch": 76, "duration": 60, "velocity": 108}, {"time": 120240, "pitch": 79, "duration": 60, "velocity": 98}, {"time": 120481, "pitch": 72, "duration": 60, "velocity": 49}, {"time": 120481, "pitch": 76, "duration": 60, "velocity": 54}, {"time": 120481, "pitch": 78, "duration": 60, "velocity": 44}, {"time": 120722, "pitch": 72, "duration": 60, "velocity": 95}, {"time": 120722, "pitch": 76, "duration": 60, "velocity": 105}, {"time": 120722, "pitch": 78, "duration": 60, "velocity": 100}, {"time": 120963, "pitch": 72, "duration": 59, "velocity": 44}, {"time": 120963, "pitch": 76, "duration": 59, "velocity": 54}, {"time": 120963, "pitch": 78, "duration": 59, "velocity": 49}, {"time": 121200, "pitch": 72, "duration": 59, "velocity": 100}, {"time": 121200, "pitch": 76, "duration": 59, "velocity": 110}, {"time": 121200, "pitch": 78, "duration": 59, "velocity": 105}, {"time": 121437, "pitch": 71, "duration": 60, "velocity": 47}, {"time": 121437, "pitch": 74, "duration": 60, "velocity": 52}, {"time": 121437, "pitch": 78, "duration": 60, "velocity": 42}, {"time": 121678, "pitch": 71, "duration": 60, "velocity": 101}, {"time": 121678, "pitch": 74, "duration": 60, "velocity": 106}, {"time": 121678, "pitch": 78, "duration": 60, "velocity": 111}, {"time": 121919, "pitch": 71, "duration": 60, "velocity": 48}, {"time": 121919, "pitch": 74, "duration": 60, "velocity": 53}, {"time": 121919, "pitch": 78, "duration": 60, "velocity": 58}, {"time": 122160, "pitch": 71, "duration": 60, "velocity": 103}, {"time": 122160, "pitch": 74, "duration": 60, "velocity": 108}, {"time": 122160, "pitch": 78, "duration": 60, "velocity": 98}, {"time": 122401, "pitch": 71, "duration": 60, "velocity": 49}, {"time": 122401, "pitch": 77, "duration": 60, "velocity": 54}, {"time": 122401, "pitch": 79, "duration": 60, "velocity": 44}, {"time": 122642, "pitch": 71, "duration": 60, "velocity": 95}, {"time": 122642, "pitch": 77, "duration": 60, "velocity": 105}, {"time": 122642, "pitch": 79, "duration": 60, "velocity": 100}, {"time": 122883, "pitch": 71, "duration": 59, "velocity": 44}, {"time": 122883, "pitch": 77, "duration": 59, "velocity": 54}, {"time": 122883, "pitch": 79, "duration": 59, "velocity": 49}, {"time": 123120, "pitch": 71, "duration": 59, "velocity": 120}, {"time": 123120, "pitch": 77, "duration": 59, "velocity": 110}, {"time": 123120, "pitch": 79, "duration": 59, "velocity": 118}, {"time": 123357, "pitch": 71, "duration": 60, "velocity": 47}, {"time": 123357, "pitch": 76, "duration": 60, "velocity": 52}, {"time": 123357, "pitch": 79, "duration": 60, "velocity": 42}, {"time": 123598, "pitch": 71, "duration": 60, "velocity": 101}, {"time": 123598, "pitch": 76, "duration": 60, "velocity": 106}, {"time": 123598, "pitch": 79, "duration": 60, "velocity": 111}, {"time": 123839, "pitch": 71, "duration": 60, "velocity": 48}, {"time": 123839, "pitch": 76, "duration": 60, "velocity": 53}, {"time": 123839, "pitch": 79, "duration": 60, "velocity": 58}, {"time": 124080, "pitch": 71, "duration": 60, "velocity": 103}, {"time": 124080, "pitch": 76, "duration": 60, "velocity": 108}, {"time": 124080, "pitch": 79, "duration": 60, "velocity": 98}, {"time": 124321, "pitch": 69, "duration": 60, "velocity": 49}, {"time": 124321, "pitch": 75, "duration": 60, "velocity": 54}, {"time": 124321, "pitch": 79, "duration": 60, "velocity": 44}, {"time": 124562, "pitch": 69, "duration": 60, "velocity": 96}, {"time": 124562, "pitch": 75, "duration": 60, "velocity": 106}, {"time": 124562, "pitch": 79, "duration": 60, "velocity": 101}, {"time": 124803, "pitch": 69, "duration": 59, "velocity": 44}, {"time": 124803, "pitch": 75, "duration": 59, "velocity": 54}, {"time": 124803, "pitch": 79, "duration": 59, "velocity": 49}, {"time": 125040, "pitch": 69, "duration": 59, "velocity": 100}, {"time": 125040, "pitch": 75, "duration": 59, "velocity": 110}, {"time": 125040, "pitch": 79, "duration": 59, "velocity": 105}, {"time": 125277, "pitch": 71, "duration": 60, "velocity": 47}, {"time": 125277, "pitch": 76, "duration": 60, "velocity": 52}, {"time": 125277, "pitch": 79, "duration": 60, "velocity": 42}, {"time": 125518, "pitch": 71, "duration": 60, "velocity": 101}, {"time": 125518, "pitch": 76, "duration": 60, "velocity": 106}, {"time": 125518, "pitch": 79, "duration": 60, "velocity": 111}, {"time": 125759, "pitch": 71, "duration": 60, "velocity": 48}, {"time": 125759, "pitch": 76, "duration": 60, "velocity": 53}, {"time": 125759, "pitch": 79, "duration": 60, "velocity": 58}, {"time": 126000, "pitch": 71, "duration": 60, "velocity": 101}, {"time": 126000, "pitch": 76, "duration": 60, "velocity": 106}, {"time": 126000, "pitch": 79, "duration": 60, "velocity": 96}, {"time": 126241, "pitch": 69, "duration": 60, "velocity": 49}, {"time": 126241, "pitch": 76, "duration": 60, "velocity": 54}, {"time": 126241, "pitch": 79, "duration": 60, "velocity": 44}, {"time": 126482, "pitch": 69, "duration": 60, "velocity": 104}, {"time": 126482, "pitch": 76, "duration": 60, "velocity": 114}, {"time": 126482, "pitch": 79, "duration": 60, "velocity": 109}, {"time": 126723, "pitch": 69, "duration": 59, "velocity": 44}, {"time": 126723, "pitch": 76, "duration": 59, "velocity": 54}, {"time": 126723, "pitch": 79, "duration": 59, "velocity": 49}, {"time": 126960, "pitch": 69, "duration": 59, "velocity": 102}, {"time": 126960, "pitch": 76, "duration": 59, "velocity": 112}, {"time": 126960, "pitch": 79, "duration": 59, "velocity": 107}, {"time": 127197, "pitch": 72, "duration": 60, "velocity": 47}, {"time": 127197, "pitch": 76, "duration": 60, "velocity": 52}, {"time": 127197, "pitch": 79, "duration": 60, "velocity": 42}, {"time": 127438, "pitch": 72, "duration": 60, "velocity": 101}, {"time": 127438, "pitch": 76, "duration": 60, "velocity": 106}, {"time": 127438, "pitch": 79, "duration": 60, "velocity": 111}, {"time": 127679, "pitch": 72, "duration": 60, "velocity": 48}, {"time": 127679, "pitch": 76, "duration": 60, "velocity": 53}, {"time": 127679, "pitch": 79, "duration": 60, "velocity": 58}, {"time": 127920, "pitch": 72, "duration": 60, "velocity": 101}, {"time": 127920, "pitch": 76, "duration": 60, "velocity": 106}, {"time": 127920, "pitch": 79, "duration": 60, "velocity": 96}, {"time": 128161, "pitch": 72, "duration": 60, "velocity": 49}, {"time": 128161, "pitch": 76, "duration": 60, "velocity": 54}, {"time": 128161, "pitch": 79, "duration": 60, "velocity": 44}, {"time": 128402, "pitch": 72, "duration": 61, "velocity": 104}, {"time": 128402, "pitch": 76, "duration": 61, "velocity": 114}, {"time": 128402, "pitch": 79, "duration": 61, "velocity": 109}, {"time": 128643, "pitch": 72, "duration": 59, "velocity": 44}, {"time": 128643, "pitch": 76, "duration": 59, "velocity": 54}, {"time": 128643, "pitch": 79, "duration": 59, "velocity": 49}, {"time": 128880, "pitch": 72, "duration": 59, "velocity": 102}, {"time": 128880, "pitch": 76, "duration": 59, "velocity": 112}, {"time": 128880, "pitch": 79, "duration": 59, "velocity": 107}, {"time": 161758, "pitch": 71, "duration": 61, "velocity": 47}, {"time": 161758, "pitch": 76, "duration": 61, "velocity": 52}, {"time": 161758, "pitch": 79, "duration": 61, "velocity": 42}, {"time": 162000, "pitch": 71, "duration": 60, "velocity": 101}, {"time": 162000, "pitch": 76, "duration": 60, "velocity": 106}, {"time": 162000, "pitch": 79, "duration": 60, "velocity": 111}, {"time": 162241, "pitch": 71, "duration": 60, "velocity": 48}, {"time": 162241, "pitch": 76, "duration": 60, "velocity": 53}, {"time": 162241, "pitch": 79, "duration": 60, "velocity": 58}, {"time": 162482, "pitch": 71, "duration": 60, "velocity": 103}, {"time": 162482, "pitch": 76, "duration": 60, "velocity": 108}, {"time": 162482, "pitch": 79, "duration": 60, "velocity": 98}, {"time": 162723, "pitch": 69, "duration": 59, "velocity": 49}, {"time": 162723, "pitch": 75, "duration": 59, "velocity": 54}, {"time": 162723, "pitch": 79, "duration": 59, "velocity": 44}, {"time": 162960, "pitch": 69, "duration": 59, "velocity": 96}, {"time": 162960, "pitch": 75, "duration": 59, "velocity": 106}, {"time": 162960, "pitch": 79, "duration": 59, "velocity": 101}, {"time": 163197, "pitch": 69, "duration": 60, "velocity": 44}, {"time": 163197, "pitch": 75, "duration": 60, "velocity": 54}, {"time": 163197, "pitch": 79, "duration": 60, "velocity": 49}, {"time": 163438, "pitch": 69, "duration": 60, "velocity": 100}, {"time": 163438, "pitch": 75, "duration": 60, "velocity": 110}, {"time": 163438, "pitch": 79, "duration": 60, "velocity": 105}, {"time": 163679, "pitch": 71, "duration": 60, "velocity": 47}, {"time": 163679, "pitch": 76, "duration": 60, "velocity": 52}, {"time": 163679, "pitch": 79, "duration": 60, "velocity": 42}, {"time": 163920, "pitch": 71, "duration": 60, "velocity": 101}, {"time": 163920, "pitch": 76, "duration": 60, "velocity": 106}, {"time": 163920, "pitch": 79, "duration": 60, "velocity": 111}, {"time": 164161, "pitch": 71, "duration": 60, "velocity": 48}, {"time": 164161, "pitch": 76, "duration": 60, "velocity": 53}, {"time": 164161, "pitch": 79, "duration": 60, "velocity": 58}, {"time": 164402, "pitch": 71, "duration": 60, "velocity": 101}, {"time": 164402, "pitch": 76, "duration": 60, "velocity": 106}, {"time": 164402, "pitch": 79, "duration": 60, "velocity": 96}, {"time": 164643, "pitch": 69, "duration": 59, "velocity": 49}, {"time": 164643, "pitch": 76, "duration": 59, "velocity": 54}, {"time": 164643, "pitch": 79, "duration": 59, "velocity": 44}, {"time": 164880, "pitch": 69, "duration": 59, "velocity": 104}, {"time": 164880, "pitch": 76, "duration": 59, "velocity": 114}, {"time": 164880, "pitch": 79, "duration": 59, "velocity": 109}, {"time": 165117, "pitch": 69, "duration": 60, "velocity": 44}, {"time": 165117, "pitch": 76, "duration": 60, "velocity": 54}, {"time": 165117, "pitch": 79, "duration": 60, "velocity": 49}, {"time": 165358, "pitch": 69, "duration": 60, "velocity": 102}, {"time": 165358, "pitch": 76, "duration": 60, "velocity": 112}, {"time": 165358, "pitch": 79, "duration": 60, "velocity": 107}, {"time": 165599, "pitch": 72, "duration": 60, "velocity": 47}, {"time": 165599, "pitch": 76, "duration": 60, "velocity": 52}, {"time": 165599, "pitch": 79, "duration": 60, "velocity": 42}, {"time": 165840, "pitch": 72, "duration": 60, "velocity": 101}, {"time": 165840, "pitch": 76, "duration": 60, "velocity": 106}, {"time": 165840, "pitch": 79, "duration": 60, "velocity": 111}, {"time": 166081, "pitch": 72, "duration": 60, "velocity": 48}, {"time": 166081, "pitch": 76, "duration": 60, "velocity": 53}, {"time": 166081, "pitch": 79, "duration": 60, "velocity": 58}, {"time": 166322, "pitch": 72, "duration": 60, "velocity": 103}, {"time": 166322, "pitch": 76, "duration": 60, "velocity": 108}, {"time": 166322, "pitch": 79, "duration": 60, "velocity": 98}, {"time": 166563, "pitch": 72, "duration": 59, "velocity": 49}, {"time": 166563, "pitch": 76, "duration": 59, "velocity": 54}, {"time": 166563, "pitch": 78, "duration": 59, "velocity": 44}, {"time": 166800, "pitch": 72, "duration": 59, "velocity": 95}, {"time": 166800, "pitch": 76, "duration": 59, "velocity": 105}, {"time": 166800, "pitch": 78, "duration": 59, "velocity": 100}, {"time": 167037, "pitch": 72, "duration": 60, "velocity": 44}, {"time": 167037, "pitch": 76, "duration": 60, "velocity": 54}, {"time": 167037, "pitch": 78, "duration": 60, "velocity": 49}, {"time": 167278, "pitch": 72, "duration": 60, "velocity": 100}, {"time": 167278, "pitch": 76, "duration": 60, "velocity": 110}, {"time": 167278, "pitch": 78, "duration": 60, "velocity": 105}, {"time": 167519, "pitch": 71, "duration": 60, "velocity": 47}, {"time": 167519, "pitch": 74, "duration": 60, "velocity": 52}, {"time": 167519, "pitch": 78, "duration": 60, "velocity": 42}, {"time": 167760, "pitch": 71, "duration": 60, "velocity": 101}, {"time": 167760, "pitch": 74, "duration": 60, "velocity": 106}, {"time": 167760, "pitch": 78, "duration": 60, "velocity": 111}, {"time": 168001, "pitch": 71, "duration": 60, "velocity": 48}, {"time": 168001, "pitch": 74, "duration": 60, "velocity": 53}, {"time": 168001, "pitch": 78, "duration": 60, "velocity": 58}, {"time": 168242, "pitch": 71, "duration": 60, "velocity": 103}, {"time": 168242, "pitch": 74, "duration": 60, "velocity": 108}, {"time": 168242, "pitch": 78, "duration": 60, "velocity": 98}, {"time": 168483, "pitch": 71, "duration": 59, "velocity": 49}, {"time": 168483, "pitch": 77, "duration": 59, "velocity": 54}, {"time": 168483, "pitch": 79, "duration": 59, "velocity": 44}, {"time": 168720, "pitch": 71, "duration": 59, "velocity": 95}, {"time": 168720, "pitch": 77, "duration": 59, "velocity": 105}, {"time": 168720, "pitch": 79, "duration": 59, "velocity": 100}, {"time": 168957, "pitch": 71, "duration": 60, "velocity": 44}, {"time": 168957, "pitch": 77, "duration": 60, "velocity": 54}, {"time": 168957, "pitch": 79, "duration": 60, "velocity": 49}, {"time": 169198, "pitch": 71, "duration": 60, "velocity": 120}, {"time": 169198, "pitch": 77, "duration": 60, "velocity": 110}, {"time": 169198, "pitch": 79, "duration": 60, "velocity": 118}, {"time": 169439, "pitch": 71, "duration": 60, "velocity": 47}, {"time": 169439, "pitch": 76, "duration": 60, "velocity": 52}, {"time": 169439, "pitch": 79, "duration": 60, "velocity": 42}, {"time": 169680, "pitch": 71, "duration": 60, "velocity": 101}, {"time": 169680, "pitch": 76, "duration": 60, "velocity": 106}, {"time": 169680, "pitch": 79, "duration": 60, "velocity": 111}, {"time": 169921, "pitch": 71, "duration": 60, "velocity": 48}, {"time": 169921, "pitch": 76, "duration": 60, "velocity": 53}, {"time": 169921, "pitch": 79, "duration": 60, "velocity": 58}, {"time": 170162, "pitch": 71, "duration": 60, "velocity": 103}, {"time": 170162, "pitch": 76, "duration": 60, "velocity": 108}, {"time": 170162, "pitch": 79, "duration": 60, "velocity": 98}, {"time": 170403, "pitch": 69, "duration": 59, "velocity": 49}, {"time": 170403, "pitch": 75, "duration": 59, "velocity": 54}, {"time": 170403, "pitch": 79, "duration": 59, "velocity": 44}, {"time": 170640, "pitch": 69, "duration": 59, "velocity": 96}, {"time": 170640, "pitch": 75, "duration": 59, "velocity": 106}, {"time": 170640, "pitch": 79, "duration": 59, "velocity": 101}, {"time": 170877, "pitch": 69, "duration": 60, "velocity": 44}, {"time": 170877, "pitch": 75, "duration": 60, "velocity": 54}, {"time": 170877, "pitch": 79, "duration": 60, "velocity": 49}, {"time": 171118, "pitch": 69, "duration": 60, "velocity": 100}, {"time": 171118, "pitch": 75, "duration": 60, "velocity": 110}, {"time": 171118, "pitch": 79, "duration": 60, "velocity": 105}, {"time": 171359, "pitch": 71, "duration": 60, "velocity": 47}, {"time": 171359, "pitch": 76, "duration": 60, "velocity": 52}, {"time": 171359, "pitch": 79, "duration": 60, "velocity": 42}, {"time": 171600, "pitch": 71, "duration": 60, "velocity": 101}, {"time": 171600, "pitch": 76, "duration": 60, "velocity": 106}, {"time": 171600, "pitch": 79, "duration": 60, "velocity": 111}, {"time": 171841, "pitch": 71, "duration": 60, "velocity": 48}, {"time": 171841, "pitch": 76, "duration": 60, "velocity": 53}, {"time": 171841, "pitch": 79, "duration": 60, "velocity": 58}, {"time": 172082, "pitch": 71, "duration": 60, "velocity": 101}, {"time": 172082, "pitch": 76, "duration": 60, "velocity": 106}, {"time": 172082, "pitch": 79, "duration": 60, "velocity": 96}, {"time": 172323, "pitch": 69, "duration": 59, "velocity": 49}, {"time": 172323, "pitch": 76, "duration": 59, "velocity": 54}, {"time": 172323, "pitch": 79, "duration": 59, "velocity": 44}, {"time": 172560, "pitch": 69, "duration": 59, "velocity": 104}, {"time": 172560, "pitch": 76, "duration": 59, "velocity": 114}, {"time": 172560, "pitch": 79, "duration": 59, "velocity": 109}, {"time": 172797, "pitch": 69, "duration": 60, "velocity": 44}, {"time": 172797, "pitch": 76, "duration": 60, "velocity": 54}, {"time": 172797, "pitch": 79, "duration": 60, "velocity": 49}, {"time": 173038, "pitch": 69, "duration": 60, "velocity": 102}, {"time": 173038, "pitch": 76, "duration": 60, "velocity": 112}, {"time": 173038, "pitch": 79, "duration": 60, "velocity": 107}, {"time": 173279, "pitch": 72, "duration": 60, "velocity": 47}, {"time": 173279, "pitch": 76, "duration": 60, "velocity": 52}, {"time": 173279, "pitch": 79, "duration": 60, "velocity": 42}, {"time": 173520, "pitch": 72, "duration": 60, "velocity": 101}, {"time": 173520, "pitch": 76, "duration": 60, "velocity": 106}, {"time": 173520, "pitch": 79, "duration": 60, "velocity": 111}, {"time": 173761, "pitch": 72, "duration": 60, "velocity": 48}, {"time": 173761, "pitch": 76, "duration": 60, "velocity": 53}, {"time": 173761, "pitch": 79, "duration": 60, "velocity": 58}, {"time": 174002, "pitch": 72, "duration": 60, "velocity": 101}, {"time": 174002, "pitch": 76, "duration": 60, "velocity": 106}, {"time": 174002, "pitch": 79, "duration": 60, "velocity": 96}, {"time": 174243, "pitch": 72, "duration": 59, "velocity": 49}, {"time": 174243, "pitch": 76, "duration": 59, "velocity": 54}, {"time": 174243, "pitch": 79, "duration": 59, "velocity": 44}, {"time": 174480, "pitch": 72, "duration": 59, "velocity": 104}, {"time": 174480, "pitch": 76, "duration": 59, "velocity": 114}, {"time": 174480, "pitch": 79, "duration": 59, "velocity": 109}, {"time": 174717, "pitch": 72, "duration": 60, "velocity": 44}, {"time": 174717, "pitch": 76, "duration": 60, "velocity": 54}, {"time": 174717, "pitch": 79, "duration": 60, "velocity": 49}, {"time": 174958, "pitch": 72, "duration": 60, "velocity": 102}, {"time": 174958, "pitch": 76, "duration": 60, "velocity": 112}, {"time": 174958, "pitch": 79, "duration": 60, "velocity": 107}, {"time": 175199, "pitch": 72, "duration": 60, "velocity": 47}, {"time": 175199, "pitch": 76, "duration": 60, "velocity": 52}, {"time": 175199, "pitch": 79, "duration": 60, "velocity": 42}, {"time": 175440, "pitch": 72, "duration": 60, "velocity": 101}, {"time": 175440, "pitch": 76, "duration": 60, "velocity": 106}, {"time": 175440, "pitch": 79, "duration": 60, "velocity": 111}, {"time": 175681, "pitch": 72, "duration": 60, "velocity": 48}, {"time": 175681, "pitch": 76, "duration": 60, "velocity": 53}, {"time": 175681, "pitch": 79, "duration": 60, "velocity": 58}, {"time": 175922, "pitch": 72, "duration": 60, "velocity": 101}, {"time": 175922, "pitch": 76, "duration": 60, "velocity": 106}, {"time": 175922, "pitch": 79, "duration": 60, "velocity": 96}, {"time": 176163, "pitch": 71, "duration": 59, "velocity": 49}, {"time": 176163, "pitch": 75, "duration": 59, "velocity": 54}, {"time": 176163, "pitch": 79, "duration": 59, "velocity": 44}, {"time": 176400, "pitch": 71, "duration": 59, "velocity": 104}, {"time": 176400, "pitch": 75, "duration": 59, "velocity": 114}, {"time": 176400, "pitch": 79, "duration": 59, "velocity": 109}, {"time": 176637, "pitch": 71, "duration": 60, "velocity": 44}, {"time": 176637, "pitch": 75, "duration": 60, "velocity": 54}, {"time": 176637, "pitch": 79, "duration": 60, "velocity": 49}, {"time": 176878, "pitch": 71, "duration": 60, "velocity": 102}, {"time": 176878, "pitch": 75, "duration": 60, "velocity": 112}, {"time": 176878, "pitch": 79, "duration": 60, "velocity": 107}, {"time": 177119, "pitch": 71, "duration": 60, "velocity": 47}, {"time": 177119, "pitch": 76, "duration": 60, "velocity": 52}, {"time": 177119, "pitch": 79, "duration": 60, "velocity": 42}, {"time": 177360, "pitch": 71, "duration": 60, "velocity": 101}, {"time": 177360, "pitch": 76, "duration": 60, "velocity": 106}, {"time": 177360, "pitch": 79, "duration": 60, "velocity": 111}, {"time": 177601, "pitch": 71, "duration": 60, "velocity": 48}, {"time": 177601, "pitch": 76, "duration": 60, "velocity": 53}, {"time": 177601, "pitch": 79, "duration": 60, "velocity": 58}, {"time": 177842, "pitch": 71, "duration": 61, "velocity": 103}, {"time": 177842, "pitch": 76, "duration": 61, "velocity": 108}, {"time": 177842, "pitch": 79, "duration": 61, "velocity": 98}, {"time": 178083, "pitch": 69, "duration": 59, "velocity": 49}, {"time": 178083, "pitch": 75, "duration": 59, "velocity": 54}, {"time": 178083, "pitch": 79, "duration": 59, "velocity": 44}, {"time": 178320, "pitch": 69, "duration": 59, "velocity": 96}, {"time": 178320, "pitch": 75, "duration": 59, "velocity": 106}, {"time": 178320, "pitch": 79, "duration": 59, "velocity": 101}, {"time": 178557, "pitch": 69, "duration": 60, "velocity": 44}, {"time": 178557, "pitch": 75, "duration": 60, "velocity": 54}, {"time": 178557, "pitch": 79, "duration": 60, "velocity": 49}, {"time": 178798, "pitch": 69, "duration": 60, "velocity": 100}, {"time": 178798, "pitch": 75, "duration": 60, "velocity": 110}, {"time": 178798, "pitch": 79, "duration": 60, "velocity": 105}, {"time": 179039, "pitch": 71, "duration": 60, "velocity": 47}, {"time": 179039, "pitch": 76, "duration": 60, "velocity": 52}, {"time": 179039, "pitch": 79, "duration": 60, "velocity": 42}, {"time": 179280, "pitch": 71, "duration": 60, "velocity": 101}, {"time": 179280, "pitch": 76, "duration": 60, "velocity": 106}, {"time": 179280, "pitch": 79, "duration": 60, "velocity": 111}, {"time": 179521, "pitch": 71, "duration": 61, "velocity": 48}, {"time": 179521, "pitch": 76, "duration": 61, "velocity": 53}, {"time": 179521, "pitch": 79, "duration": 61, "velocity": 58}, {"time": 179762, "pitch": 71, "duration": 61, "velocity": 101}, {"time": 179762, "pitch": 76, "duration": 61, "velocity": 106}, {"time": 179762, "pitch": 79, "duration": 61, "velocity": 96}, {"time": 180003, "pitch": 69, "duration": 60, "velocity": 49}, {"time": 180003, "pitch": 76, "duration": 60, "velocity": 54}, {"time": 180003, "pitch": 79, "duration": 60, "velocity": 44}, {"time": 180240, "pitch": 69, "duration": 60, "velocity": 104}, {"time": 180240, "pitch": 76, "duration": 60, "velocity": 114}, {"time": 180240, "pitch": 79, "duration": 60, "velocity": 109}, {"time": 180477, "pitch": 69, "duration": 60, "velocity": 44}, {"time": 180477, "pitch": 76, "duration": 60, "velocity": 54}, {"time": 180477, "pitch": 79, "duration": 60, "velocity": 49}, {"time": 180718, "pitch": 69, "duration": 60, "velocity": 102}, {"time": 180718, "pitch": 76, "duration": 60, "velocity": 112}, {"time": 180718, "pitch": 79, "duration": 60, "velocity": 107}, {"time": 180959, "pitch": 72, "duration": 61, "velocity": 47}, {"time": 180959, "pitch": 76, "duration": 61, "velocity": 52}, {"time": 180959, "pitch": 79, "duration": 61, "velocity": 42}, {"time": 181200, "pitch": 72, "duration": 61, "velocity": 101}, {"time": 181200, "pitch": 76, "duration": 61, "velocity": 106}, {"time": 181200, "pitch": 79, "duration": 61, "velocity": 111}, {"time": 181441, "pitch": 72, "duration": 61, "velocity": 48}, {"time": 181441, "pitch": 76, "duration": 61, "velocity": 53}, {"time": 181441, "pitch": 79, "duration": 61, "velocity": 58}, {"time": 181682, "pitch": 72, "duration": 61, "velocity": 103}, {"time": 181682, "pitch": 76, "duration": 61, "velocity": 108}, {"time": 181682, "pitch": 79, "duration": 61, "velocity": 98}, {"time": 181923, "pitch": 72, "duration": 60, "velocity": 49}, {"time": 181923, "pitch": 76, "duration": 60, "velocity": 54}, {"time": 181923, "pitch": 78, "duration": 60, "velocity": 44}, {"time": 182160, "pitch": 72, "duration": 60, "velocity": 95}, {"time": 182160, "pitch": 76, "duration": 60, "velocity": 105}, {"time": 182160, "pitch": 78, "duration": 60, "velocity": 100}, {"time": 182397, "pitch": 72, "duration": 61, "velocity": 44}, {"time": 182397, "pitch": 76, "duration": 61, "velocity": 54}, {"time": 182397, "pitch": 78, "duration": 61, "velocity": 49}, {"time": 182638, "pitch": 72, "duration": 61, "velocity": 100}, {"time": 182638, "pitch": 76, "duration": 61, "velocity": 110}, {"time": 182638, "pitch": 78, "duration": 61, "velocity": 105}, {"time": 182879, "pitch": 71, "duration": 61, "velocity": 47}, {"time": 182879, "pitch": 74, "duration": 61, "velocity": 52}, {"time": 182879, "pitch": 78, "duration": 61, "velocity": 42}, {"time": 183120, "pitch": 71, "duration": 61, "velocity": 101}, {"time": 183120, "pitch": 74, "duration": 61, "velocity": 106}, {"time": 183120, "pitch": 78, "duration": 61, "velocity": 111}, {"time": 183361, "pitch": 71, "duration": 61, "velocity": 48}, {"time": 183361, "pitch": 74, "duration": 61, "velocity": 53}, {"time": 183361, "pitch": 78, "duration": 61, "velocity": 58}, {"time": 183602, "pitch": 71, "duration": 61, "velocity": 103}, {"time": 183602, "pitch": 74, "duration": 61, "velocity": 108}, {"time": 183602, "pitch": 78, "duration": 61, "velocity": 98}, {"time": 183843, "pitch": 71, "duration": 60, "velocity": 49}, {"time": 183843, "pitch": 77, "duration": 60, "velocity": 54}, {"time": 183843, "pitch": 79, "duration": 60, "velocity": 44}, {"time": 184080, "pitch": 71, "duration": 60, "velocity": 95}, {"time": 184080, "pitch": 77, "duration": 60, "velocity": 105}, {"time": 184080, "pitch": 79, "duration": 60, "velocity": 100}, {"time": 184317, "pitch": 71, "duration": 61, "velocity": 44}, {"time": 184317, "pitch": 77, "duration": 61, "velocity": 54}, {"time": 184317, "pitch": 79, "duration": 61, "velocity": 49}, {"time": 184558, "pitch": 71, "duration": 61, "velocity": 120}, {"time": 184558, "pitch": 77, "duration": 61, "velocity": 110}, {"time": 184558, "pitch": 79, "duration": 61, "velocity": 118}, {"time": 184799, "pitch": 71, "duration": 61, "velocity": 47}, {"time": 184799, "pitch": 76, "duration": 61, "velocity": 52}, {"time": 184799, "pitch": 79, "duration": 61, "velocity": 42}, {"time": 185040, "pitch": 71, "duration": 61, "velocity": 101}, {"time": 185040, "pitch": 76, "duration": 61, "velocity": 106}, {"time": 185040, "pitch": 79, "duration": 61, "velocity": 111}, {"time": 185282, "pitch": 71, "duration": 60, "velocity": 48}, {"time": 185282, "pitch": 76, "duration": 60, "velocity": 53}, {"time": 185282, "pitch": 79, "duration": 60, "velocity": 58}, {"time": 185523, "pitch": 71, "duration": 60, "velocity": 103}, {"time": 185523, "pitch": 76, "duration": 60, "velocity": 108}, {"time": 185523, "pitch": 79, "duration": 60, "velocity": 98}, {"time": 185764, "pitch": 69, "duration": 59, "velocity": 49}, {"time": 185764, "pitch": 75, "duration": 59, "velocity": 54}, {"time": 185764, "pitch": 79, "duration": 59, "velocity": 44}, {"time": 186001, "pitch": 69, "duration": 59, "velocity": 96}, {"time": 186001, "pitch": 75, "duration": 59, "velocity": 106}, {"time": 186001, "pitch": 79, "duration": 59, "velocity": 101}, {"time": 186237, "pitch": 69, "duration": 61, "velocity": 44}, {"time": 186237, "pitch": 75, "duration": 61, "velocity": 54}, {"time": 186237, "pitch": 79, "duration": 61, "velocity": 49}, {"time": 186478, "pitch": 69, "duration": 61, "velocity": 100}, {"time": 186478, "pitch": 75, "duration": 61, "velocity": 110}, {"time": 186478, "pitch": 79, "duration": 61, "velocity": 105}, {"time": 186720, "pitch": 71, "duration": 60, "velocity": 47}, {"time": 186720, "pitch": 76, "duration": 60, "velocity": 52}, {"time": 186720, "pitch": 79, "duration": 60, "velocity": 42}, {"time": 186961, "pitch": 71, "duration": 60, "velocity": 101}, {"time": 186961, "pitch": 76, "duration": 60, "velocity": 106}, {"time": 186961, "pitch": 79, "duration": 60, "velocity": 111}, {"time": 187202, "pitch": 71, "duration": 60, "velocity": 48}, {"time": 187202, "pitch": 76, "duration": 60, "velocity": 53}, {"time": 187202, "pitch": 79, "duration": 60, "velocity": 58}, {"time": 187443, "pitch": 71, "duration": 60, "velocity": 101}, {"time": 187443, "pitch": 76, "duration": 60, "velocity": 106}, {"time": 187443, "pitch": 79, "duration": 60, "velocity": 96}, {"time": 187684, "pitch": 69, "duration": 59, "velocity": 49}, {"time": 187684, "pitch": 76, "duration": 59, "velocity": 54}, {"time": 187684, "pitch": 79, "duration": 59, "velocity": 44}, {"time": 187921, "pitch": 69, "duration": 59, "velocity": 104}, {"time": 187921, "pitch": 76, "duration": 59, "velocity": 114}, {"time": 187921, "pitch": 79, "duration": 59, "velocity": 109}, {"time": 188158, "pitch": 69, "duration": 60, "velocity": 44}, {"time": 188158, "pitch": 76, "duration": 60, "velocity": 54}, {"time": 188158, "pitch": 79, "duration": 60, "velocity": 49}, {"time": 188399, "pitch": 69, "duration": 60, "velocity": 102}, {"time": 188399, "pitch": 76, "duration": 60, "velocity": 112}, {"time": 188399, "pitch": 79, "duration": 60, "velocity": 107}, {"time": 188640, "pitch": 72, "duration": 60, "velocity": 47}, {"time": 188640, "pitch": 76, "duration": 60, "velocity": 52}, {"time": 188640, "pitch": 79, "duration": 60, "velocity": 42}, {"time": 188881, "pitch": 72, "duration": 60, "velocity": 101}, {"time": 188881, "pitch": 76, "duration": 60, "velocity": 106}, {"time": 188881, "pitch": 79, "duration": 60, "velocity": 111}, {"time": 189122, "pitch": 72, "duration": 60, "velocity": 48}, {"time": 189122, "pitch": 76, "duration": 60, "velocity": 53}, {"time": 189122, "pitch": 79, "duration": 60, "velocity": 58}, {"time": 189363, "pitch": 72, "duration": 60, "velocity": 101}, {"time": 189363, "pitch": 76, "duration": 60, "velocity": 106}, {"time": 189363, "pitch": 79, "duration": 60, "velocity": 96}, {"time": 189604, "pitch": 72, "duration": 59, "velocity": 49}, {"time": 189604, "pitch": 76, "duration": 59, "velocity": 54}, {"time": 189604, "pitch": 79, "duration": 59, "velocity": 44}, {"time": 189841, "pitch": 72, "duration": 59, "velocity": 104}, {"time": 189841, "pitch": 76, "duration": 59, "velocity": 114}, {"time": 189841, "pitch": 79, "duration": 59, "velocity": 109}, {"time": 190078, "pitch": 72, "duration": 60, "velocity": 44}, {"time": 190078, "pitch": 76, "duration": 60, "velocity": 54}, {"time": 190078, "pitch": 79, "duration": 60, "velocity": 49}, {"time": 190319, "pitch": 72, "duration": 60, "velocity": 102}, {"time": 190319, "pitch": 76, "duration": 60, "velocity": 112}, {"time": 190319, "pitch": 79, "duration": 60, "velocity": 107}], "annotations": [{"time": 292, "annotation": {"number": 7, "value": 75}, "group": "control_change"}, {"time": 313, "annotation": {"number": 11, "value": 100}, "group": "control_change"}, {"time": 334, "annotation": {"number": 10, "value": 65}, "group": "control_change"}, {"time": 355, "annotation": {"number": 91, "value": 40}, "group": "control_change"}, {"time": 376, "annotation": {"number": 93, "value": 0}, "group": "control_change"}, {"time": 397, "annotation": {"number": 101, "value": 0}, "group": "control_change"}, {"time": 417, "annotation": {"number": 100, "value": 0}, "group": "control_change"}, {"time": 438, "annotation": {"number": 6, "value": 12}, "group": "control_change"}, {"time": 459, "annotation": {"number": 101, "value": 127}, "group": "control_change"}, {"time": 480, "annotation": {"number": 100, "value": 127}, "group": "control_change"}]}, {"program": 0, "is_drum": false, "name": "ORGAN", "annotations": [{"time": 230, "annotation": {"number": 0, "value": 8}, "group": "control_change"}, {"time": 250, "annotation": {"number": 32, "value": 0}, "group": "control_change"}]}, {"program": 17, "is_drum": false, "name": "ORGAN", "notes": [{"time": 16082, "pitch": 62, "duration": 60, "velocity": 105}, {"time": 16082, "pitch": 66, "duration": 60, "velocity": 100}, {"time": 16082, "pitch": 67, "duration": 60, "velocity": 110}, {"time": 16461, "pitch": 62, "duration": 59, "velocity": 105}, {"time": 16461, "pitch": 66, "duration": 59, "velocity": 100}, {"time": 16461, "pitch": 67, "duration": 59, "velocity": 110}, {"time": 16797, "pitch": 62, "duration": 60, "velocity": 110}, {"time": 16797, "pitch": 66, "duration": 60, "velocity": 100}, {"time": 16797, "pitch": 67, "duration": 60, "velocity": 105}, {"time": 17178, "pitch": 62, "duration": 61, "velocity": 105}, {"time": 17178, "pitch": 66, "duration": 61, "velocity": 100}, {"time": 17178, "pitch": 67, "duration": 61, "velocity": 110}, {"time": 17520, "pitch": 62, "duration": 60, "velocity": 105}, {"time": 17520, "pitch": 66, "duration": 60, "velocity": 100}, {"time": 17520, "pitch": 67, "duration": 60, "velocity": 110}, {"time": 18002, "pitch": 61, "duration": 60, "velocity": 100}, {"time": 18002, "pitch": 66, "duration": 60, "velocity": 105}, {"time": 18002, "pitch": 67, "duration": 60, "velocity": 110}, {"time": 18381, "pitch": 61, "duration": 59, "velocity": 105}, {"time": 18381, "pitch": 66, "duration": 59, "velocity": 100}, {"time": 18381, "pitch": 67, "duration": 59, "velocity": 110}, {"time": 18717, "pitch": 61, "duration": 60, "velocity": 105}, {"time": 18717, "pitch": 66, "duration": 60, "velocity": 100}, {"time": 18717, "pitch": 67, "duration": 60, "velocity": 110}, {"time": 19098, "pitch": 61, "duration": 61, "velocity": 105}, {"time": 19098, "pitch": 66, "duration": 61, "velocity": 100}, {"time": 19098, "pitch": 67, "duration": 61, "velocity": 110}, {"time": 19440, "pitch": 61, "duration": 60, "velocity": 105}, {"time": 19440, "pitch": 66, "duration": 60, "velocity": 100}, {"time": 19440, "pitch": 67, "duration": 60, "velocity": 110}, {"time": 19922, "pitch": 62, "duration": 60, "velocity": 105}, {"time": 19922, "pitch": 66, "duration": 60, "velocity": 100}, {"time": 19922, "pitch": 67, "duration": 60, "velocity": 110}, {"time": 20301, "pitch": 62, "duration": 59, "velocity": 105}, {"time": 20301, "pitch": 66, "duration": 59, "velocity": 100}, {"time": 20301, "pitch": 67, "duration": 59, "velocity": 110}, {"time": 20637, "pitch": 62, "duration": 60, "velocity": 110}, {"time": 20637, "pitch": 66, "duration": 60, "velocity": 100}, {"time": 20637, "pitch": 67, "duration": 60, "velocity": 105}, {"time": 21018, "pitch": 62, "duration": 61, "velocity": 105}, {"time": 21018, "pitch": 66, "duration": 61, "velocity": 100}, {"time": 21018, "pitch": 67, "duration": 61, "velocity": 110}, {"time": 21360, "pitch": 62, "duration": 60, "velocity": 105}, {"time": 21360, "pitch": 66, "duration": 60, "velocity": 100}, {"time": 21360, "pitch": 67, "duration": 60, "velocity": 110}, {"time": 21842, "pitch": 61, "duration": 60, "velocity": 100}, {"time": 21842, "pitch": 66, "duration": 60, "velocity": 105}, {"time": 21842, "pitch": 67, "duration": 60, "velocity": 110}, {"time": 22221, "pitch": 61, "duration": 59, "velocity": 105}, {"time": 22221, "pitch": 66, "duration": 59, "velocity": 100}, {"time": 22221, "pitch": 67, "duration": 59, "velocity": 110}, {"time": 22557, "pitch": 61, "duration": 60, "velocity": 105}, {"time": 22557, "pitch": 66, "duration": 60, "velocity": 100}, {"time": 22557, "pitch": 67, "duration": 60, "velocity": 110}, {"time": 22939, "pitch": 61, "duration": 60, "velocity": 105}, {"time": 22939, "pitch": 66, "duration": 60, "velocity": 100}, {"time": 22939, "pitch": 67, "duration": 60, "velocity": 110}, {"time": 23280, "pitch": 61, "duration": 60, "velocity": 105}, {"time": 23280, "pitch": 66, "duration": 60, "velocity": 100}, {"time": 23280, "pitch": 67, "duration": 60, "velocity": 110}, {"time": 23762, "pitch": 62, "duration": 60, "velocity": 105}, {"time": 23762, "pitch": 66, "duration": 60, "velocity": 100}, {"time": 23762, "pitch": 67, "duration": 60, "velocity": 110}, {"time": 24141, "pitch": 62, "duration": 60, "velocity": 105}, {"time": 24141, "pitch": 66, "duration": 60, "velocity": 100}, {"time": 24141, "pitch": 67, "duration": 60, "velocity": 110}, {"time": 24477, "pitch": 62, "duration": 60, "velocity": 110}, {"time": 24477, "pitch": 66, "duration": 60, "velocity": 100}, {"time": 24477, "pitch": 67, "duration": 60, "velocity": 105}, {"time": 24859, "pitch": 62, "duration": 60, "velocity": 105}, {"time": 24859, "pitch": 66, "duration": 60, "velocity": 100}, {"time": 24859, "pitch": 67, "duration": 60, "velocity": 110}, {"time": 25200, "pitch": 62, "duration": 60, "velocity": 105}, {"time": 25200, "pitch": 66, "duration": 60, "velocity": 100}, {"time": 25200, "pitch": 67, "duration": 60, "velocity": 110}, {"time": 25682, "pitch": 61, "duration": 60, "velocity": 100}, {"time": 25682, "pitch": 66, "duration": 60, "velocity": 105}, {"time": 25682, "pitch": 67, "duration": 60, "velocity": 110}, {"time": 26061, "pitch": 61, "duration": 60, "velocity": 105}, {"time": 26061, "pitch": 66, "duration": 60, "velocity": 100}, {"time": 26061, "pitch": 67, "duration": 60, "velocity": 110}, {"time": 26397, "pitch": 61, "duration": 60, "velocity": 105}, {"time": 26397, "pitch": 66, "duration": 60, "velocity": 100}, {"time": 26397, "pitch": 67, "duration": 60, "velocity": 110}, {"time": 26779, "pitch": 61, "duration": 60, "velocity": 105}, {"time": 26779, "pitch": 66, "duration": 60, "velocity": 100}, {"time": 26779, "pitch": 67, "duration": 60, "velocity": 110}, {"time": 27120, "pitch": 61, "duration": 60, "velocity": 105}, {"time": 27120, "pitch": 66, "duration": 60, "velocity": 100}, {"time": 27120, "pitch": 67, "duration": 60, "velocity": 110}, {"time": 27602, "pitch": 62, "duration": 60, "velocity": 105}, {"time": 27602, "pitch": 66, "duration": 60, "velocity": 100}, {"time": 27602, "pitch": 67, "duration": 60, "velocity": 110}, {"time": 27981, "pitch": 62, "duration": 60, "velocity": 105}, {"time": 27981, "pitch": 66, "duration": 60, "velocity": 100}, {"time": 27981, "pitch": 67, "duration": 60, "velocity": 110}, {"time": 28317, "pitch": 62, "duration": 60, "velocity": 110}, {"time": 28317, "pitch": 66, "duration": 60, "velocity": 100}, {"time": 28317, "pitch": 67, "duration": 60, "velocity": 105}, {"time": 28699, "pitch": 62, "duration": 60, "velocity": 105}, {"time": 28699, "pitch": 66, "duration": 60, "velocity": 100}, {"time": 28699, "pitch": 67, "duration": 60, "velocity": 110}, {"time": 29040, "pitch": 62, "duration": 60, "velocity": 105}, {"time": 29040, "pitch": 66, "duration": 60, "velocity": 100}, {"time": 29040, "pitch": 67, "duration": 60, "velocity": 110}, {"time": 29522, "pitch": 61, "duration": 61, "velocity": 100}, {"time": 29522, "pitch": 66, "duration": 61, "velocity": 105}, {"time": 29522, "pitch": 67, "duration": 61, "velocity": 110}, {"time": 29902, "pitch": 61, "duration": 59, "velocity": 105}, {"time": 29902, "pitch": 66, "duration": 59, "velocity": 100}, {"time": 29902, "pitch": 67, "duration": 59, "velocity": 110}, {"time": 30237, "pitch": 61, "duration": 60, "velocity": 105}, {"time": 30237, "pitch": 66, "duration": 60, "velocity": 100}, {"time": 30237, "pitch": 67, "duration": 60, "velocity": 110}, {"time": 30619, "pitch": 61, "duration": 60, "velocity": 105}, {"time": 30619, "pitch": 66, "duration": 60, "velocity": 100}, {"time": 30619, "pitch": 67, "duration": 60, "velocity": 110}, {"time": 30960, "pitch": 61, "duration": 61, "velocity": 105}, {"time": 30960, "pitch": 66, "duration": 61, "velocity": 100}, {"time": 30960, "pitch": 67, "duration": 61, "velocity": 110}, {"time": 31442, "pitch": 62, "duration": 61, "velocity": 105}, {"time": 31442, "pitch": 66, "duration": 61, "velocity": 100}, {"time": 31442, "pitch": 67, "duration": 61, "velocity": 110}, {"time": 31822, "pitch": 62, "duration": 59, "velocity": 105}, {"time": 31822, "pitch": 66, "duration": 59, "velocity": 100}, {"time": 31822, "pitch": 67, "duration": 59, "velocity": 110}, {"time": 32157, "pitch": 62, "duration": 61, "velocity": 110}, {"time": 32157, "pitch": 66, "duration": 61, "velocity": 100}, {"time": 32157, "pitch": 67, "duration": 61, "velocity": 105}, {"time": 32539, "pitch": 62, "duration": 60, "velocity": 105}, {"time": 32539, "pitch": 66, "duration": 60, "velocity": 100}, {"time": 32539, "pitch": 67, "duration": 60, "velocity": 110}, {"time": 32880, "pitch": 62, "duration": 61, "velocity": 105}, {"time": 32880, "pitch": 66, "duration": 61, "velocity": 100}, {"time": 32880, "pitch": 67, "duration": 61, "velocity": 110}, {"time": 33362, "pitch": 61, "duration": 61, "velocity": 100}, {"time": 33362, "pitch": 66, "duration": 61, "velocity": 105}, {"time": 33362, "pitch": 67, "duration": 61, "velocity": 110}, {"time": 33742, "pitch": 61, "duration": 59, "velocity": 105}, {"time": 33742, "pitch": 66, "duration": 59, "velocity": 100}, {"time": 33742, "pitch": 67, "duration": 59, "velocity": 110}, {"time": 34077, "pitch": 61, "duration": 61, "velocity": 105}, {"time": 34077, "pitch": 66, "duration": 61, "velocity": 100}, {"time": 34077, "pitch": 67, "duration": 61, "velocity": 110}, {"time": 34459, "pitch": 61, "duration": 60, "velocity": 105}, {"time": 34459, "pitch": 66, "duration": 60, "velocity": 100}, {"time": 34459, "pitch": 67, "duration": 60, "velocity": 110}, {"time": 34800, "pitch": 61, "duration": 61, "velocity": 105}, {"time": 34800, "pitch": 66, "duration": 61, "velocity": 100}, {"time": 34800, "pitch": 67, "duration": 61, "velocity": 110}, {"time": 35283, "pitch": 62, "duration": 60, "velocity": 105}, {"time": 35283, "pitch": 66, "duration": 60, "velocity": 100}, {"time": 35283, "pitch": 67, "duration": 60, "velocity": 110}, {"time": 35662, "pitch": 62, "duration": 59, "velocity": 105}, {"time": 35662, "pitch": 66, "duration": 59, "velocity": 100}, {"time": 35662, "pitch": 67, "duration": 59, "velocity": 110}, {"time": 35997, "pitch": 62, "duration": 61, "velocity": 110}, {"time": 35997, "pitch": 66, "duration": 61, "velocity": 100}, {"time": 35997, "pitch": 67, "duration": 61, "velocity": 105}, {"time": 36379, "pitch": 62, "duration": 60, "velocity": 105}, {"time": 36379, "pitch": 66, "duration": 60, "velocity": 100}, {"time": 36379, "pitch": 67, "duration": 60, "velocity": 110}, {"time": 36721, "pitch": 62, "duration": 60, "velocity": 105}, {"time": 36721, "pitch": 66, "duration": 60, "velocity": 100}, {"time": 36721, "pitch": 67, "duration": 60, "velocity": 110}, {"time": 37203, "pitch": 61, "duration": 60, "velocity": 100}, {"time": 37203, "pitch": 66, "duration": 60, "velocity": 105}, {"time": 37203, "pitch": 67, "duration": 60, "velocity": 110}, {"time": 37582, "pitch": 61, "duration": 59, "velocity": 105}, {"time": 37582, "pitch": 66, "duration": 59, "velocity": 100}, {"time": 37582, "pitch": 67, "duration": 59, "velocity": 110}, {"time": 37918, "pitch": 61, "duration": 60, "velocity": 105}, {"time": 37918, "pitch": 66, "duration": 60, "velocity": 100}, {"time": 37918, "pitch": 67, "duration": 60, "velocity": 110}, {"time": 38299, "pitch": 61, "duration": 60, "velocity": 105}, {"time": 38299, "pitch": 66, "duration": 60, "velocity": 100}, {"time": 38299, "pitch": 67, "duration": 60, "velocity": 110}, {"time": 38641, "pitch": 61, "duration": 60, "velocity": 105}, {"time": 38641, "pitch": 66, "duration": 60, "velocity": 100}, {"time": 38641, "pitch": 67, "duration": 60, "velocity": 110}, {"time": 39123, "pitch": 62, "duration": 60, "velocity": 105}, {"time": 39123, "pitch": 66, "duration": 60, "velocity": 100}, {"time": 39123, "pitch": 67, "duration": 60, "velocity": 110}, {"time": 39502, "pitch": 62, "duration": 59, "velocity": 105}, {"time": 39502, "pitch": 66, "duration": 59, "velocity": 100}, {"time": 39502, "pitch": 67, "duration": 59, "velocity": 110}, {"time": 39838, "pitch": 62, "duration": 60, "velocity": 110}, {"time": 39838, "pitch": 66, "duration": 60, "velocity": 100}, {"time": 39838, "pitch": 67, "duration": 60, "velocity": 105}, {"time": 40219, "pitch": 62, "duration": 60, "velocity": 105}, {"time": 40219, "pitch": 66, "duration": 60, "velocity": 100}, {"time": 40219, "pitch": 67, "duration": 60, "velocity": 110}, {"time": 40561, "pitch": 62, "duration": 60, "velocity": 105}, {"time": 40561, "pitch": 66, "duration": 60, "velocity": 100}, {"time": 40561, "pitch": 67, "duration": 60, "velocity": 110}, {"time": 41043, "pitch": 61, "duration": 60, "velocity": 100}, {"time": 41043, "pitch": 66, "duration": 60, "velocity": 105}, {"time": 41043, "pitch": 67, "duration": 60, "velocity": 110}, {"time": 41422, "pitch": 61, "duration": 59, "velocity": 105}, {"time": 41422, "pitch": 66, "duration": 59, "velocity": 100}, {"time": 41422, "pitch": 67, "duration": 59, "velocity": 110}, {"time": 41758, "pitch": 61, "duration": 60, "velocity": 105}, {"time": 41758, "pitch": 66, "duration": 60, "velocity": 100}, {"time": 41758, "pitch": 67, "duration": 60, "velocity": 110}, {"time": 42139, "pitch": 61, "duration": 61, "velocity": 105}, {"time": 42139, "pitch": 66, "duration": 61, "velocity": 100}, {"time": 42139, "pitch": 67, "duration": 61, "velocity": 110}, {"time": 42481, "pitch": 61, "duration": 60, "velocity": 105}, {"time": 42481, "pitch": 66, "duration": 60, "velocity": 100}, {"time": 42481, "pitch": 67, "duration": 60, "velocity": 110}, {"time": 42963, "pitch": 62, "duration": 60, "velocity": 105}, {"time": 42963, "pitch": 66, "duration": 60, "velocity": 100}, {"time": 42963, "pitch": 67, "duration": 60, "velocity": 110}, {"time": 43342, "pitch": 62, "duration": 59, "velocity": 105}, {"time": 43342, "pitch": 66, "duration": 59, "velocity": 100}, {"time": 43342, "pitch": 67, "duration": 59, "velocity": 110}, {"time": 43678, "pitch": 62, "duration": 60, "velocity": 110}, {"time": 43678, "pitch": 66, "duration": 60, "velocity": 100}, {"time": 43678, "pitch": 67, "duration": 60, "velocity": 105}, {"time": 44059, "pitch": 62, "duration": 61, "velocity": 105}, {"time": 44059, "pitch": 66, "duration": 61, "velocity": 100}, {"time": 44059, "pitch": 67, "duration": 61, "velocity": 110}, {"time": 44401, "pitch": 62, "duration": 60, "velocity": 105}, {"time": 44401, "pitch": 66, "duration": 60, "velocity": 100}, {"time": 44401, "pitch": 67, "duration": 60, "velocity": 110}, {"time": 44883, "pitch": 61, "duration": 60, "velocity": 100}, {"time": 44883, "pitch": 66, "duration": 60, "velocity": 105}, {"time": 44883, "pitch": 67, "duration": 60, "velocity": 110}, {"time": 45262, "pitch": 61, "duration": 59, "velocity": 105}, {"time": 45262, "pitch": 66, "duration": 59, "velocity": 100}, {"time": 45262, "pitch": 67, "duration": 59, "velocity": 110}, {"time": 45598, "pitch": 61, "duration": 60, "velocity": 105}, {"time": 45598, "pitch": 66, "duration": 60, "velocity": 100}, {"time": 45598, "pitch": 67, "duration": 60, "velocity": 110}, {"time": 45979, "pitch": 61, "duration": 61, "velocity": 105}, {"time": 45979, "pitch": 66, "duration": 61, "velocity": 100}, {"time": 45979, "pitch": 67, "duration": 61, "velocity": 110}, {"time": 46321, "pitch": 61, "duration": 60, "velocity": 105}, {"time": 46321, "pitch": 66, "duration": 60, "velocity": 100}, {"time": 46321, "pitch": 67, "duration": 60, "velocity": 110}, {"time": 46803, "pitch": 59, "duration": 60, "velocity": 100}, {"time": 46803, "pitch": 64, "duration": 60, "velocity": 105}, {"time": 46803, "pitch": 67, "duration": 60, "velocity": 110}, {"time": 47182, "pitch": 59, "duration": 59, "velocity": 105}, {"time": 47182, "pitch": 64, "duration": 59, "velocity": 100}, {"time": 47182, "pitch": 67, "duration": 59, "velocity": 110}, {"time": 47518, "pitch": 59, "duration": 60, "velocity": 105}, {"time": 47518, "pitch": 64, "duration": 60, "velocity": 100}, {"time": 47518, "pitch": 67, "duration": 60, "velocity": 110}, {"time": 47900, "pitch": 59, "duration": 60, "velocity": 105}, {"time": 47900, "pitch": 64, "duration": 60, "velocity": 100}, {"time": 47900, "pitch": 67, "duration": 60, "velocity": 110}, {"time": 48241, "pitch": 59, "duration": 60, "velocity": 105}, {"time": 48241, "pitch": 64, "duration": 60, "velocity": 100}, {"time": 48241, "pitch": 67, "duration": 60, "velocity": 110}, {"time": 48719, "pitch": 60, "duration": 59, "velocity": 100}, {"time": 48719, "pitch": 63, "duration": 59, "velocity": 105}, {"time": 48719, "pitch": 67, "duration": 59, "velocity": 110}, {"time": 49096, "pitch": 60, "duration": 61, "velocity": 105}, {"time": 49096, "pitch": 63, "duration": 61, "velocity": 100}, {"time": 49096, "pitch": 67, "duration": 61, "velocity": 110}, {"time": 49438, "pitch": 60, "duration": 60, "velocity": 105}, {"time": 49438, "pitch": 63, "duration": 60, "velocity": 100}, {"time": 49438, "pitch": 67, "duration": 60, "velocity": 110}, {"time": 49820, "pitch": 60, "duration": 60, "velocity": 105}, {"time": 49820, "pitch": 63, "duration": 60, "velocity": 100}, {"time": 49820, "pitch": 67, "duration": 60, "velocity": 110}, {"time": 50161, "pitch": 60, "duration": 60, "velocity": 105}, {"time": 50161, "pitch": 63, "duration": 60, "velocity": 100}, {"time": 50161, "pitch": 67, "duration": 60, "velocity": 110}, {"time": 50639, "pitch": 59, "duration": 59, "velocity": 100}, {"time": 50639, "pitch": 62, "duration": 59, "velocity": 105}, {"time": 50639, "pitch": 66, "duration": 59, "velocity": 110}, {"time": 51017, "pitch": 59, "duration": 60, "velocity": 105}, {"time": 51017, "pitch": 62, "duration": 60, "velocity": 100}, {"time": 51017, "pitch": 66, "duration": 60, "velocity": 110}, {"time": 51358, "pitch": 59, "duration": 60, "velocity": 105}, {"time": 51358, "pitch": 62, "duration": 60, "velocity": 100}, {"time": 51358, "pitch": 66, "duration": 60, "velocity": 110}, {"time": 51740, "pitch": 59, "duration": 60, "velocity": 105}, {"time": 51740, "pitch": 62, "duration": 60, "velocity": 100}, {"time": 51740, "pitch": 66, "duration": 60, "velocity": 110}, {"time": 52081, "pitch": 59, "duration": 60, "velocity": 105}, {"time": 52081, "pitch": 62, "duration": 60, "velocity": 100}, {"time": 52081, "pitch": 66, "duration": 60, "velocity": 110}, {"time": 52559, "pitch": 62, "duration": 59, "velocity": 100}, {"time": 52559, "pitch": 64, "duration": 59, "velocity": 105}, {"time": 52559, "pitch": 67, "duration": 59, "velocity": 110}, {"time": 52937, "pitch": 59, "duration": 60, "velocity": 105}, {"time": 52937, "pitch": 62, "duration": 60, "velocity": 100}, {"time": 52937, "pitch": 67, "duration": 60, "velocity": 110}, {"time": 53278, "pitch": 59, "duration": 60, "velocity": 105}, {"time": 53278, "pitch": 62, "duration": 60, "velocity": 100}, {"time": 53278, "pitch": 67, "duration": 60, "velocity": 110}, {"time": 53660, "pitch": 59, "duration": 60, "velocity": 105}, {"time": 53660, "pitch": 62, "duration": 60, "velocity": 100}, {"time": 53660, "pitch": 67, "duration": 60, "velocity": 110}, {"time": 54001, "pitch": 59, "duration": 61, "velocity": 105}, {"time": 54001, "pitch": 62, "duration": 61, "velocity": 100}, {"time": 54001, "pitch": 67, "duration": 61, "velocity": 110}, {"time": 54479, "pitch": 60, "duration": 59, "velocity": 100}, {"time": 54479, "pitch": 64, "duration": 59, "velocity": 105}, {"time": 54479, "pitch": 67, "duration": 59, "velocity": 110}, {"time": 54857, "pitch": 60, "duration": 60, "velocity": 105}, {"time": 54857, "pitch": 64, "duration": 60, "velocity": 100}, {"time": 54857, "pitch": 67, "duration": 60, "velocity": 110}, {"time": 55198, "pitch": 60, "duration": 60, "velocity": 105}, {"time": 55198, "pitch": 64, "duration": 60, "velocity": 100}, {"time": 55198, "pitch": 67, "duration": 60, "velocity": 110}, {"time": 55580, "pitch": 60, "duration": 60, "velocity": 105}, {"time": 55580, "pitch": 64, "duration": 60, "velocity": 100}, {"time": 55580, "pitch": 67, "duration": 60, "velocity": 110}, {"time": 55921, "pitch": 60, "duration": 61, "velocity": 105}, {"time": 55921, "pitch": 64, "duration": 61, "velocity": 100}, {"time": 55921, "pitch": 67, "duration": 61, "velocity": 110}, {"time": 56399, "pitch": 59, "duration": 60, "velocity": 100}, {"time": 56399, "pitch": 62, "duration": 60, "velocity": 105}, {"time": 56399, "pitch": 66, "duration": 60, "velocity": 110}, {"time": 56777, "pitch": 59, "duration": 60, "velocity": 105}, {"time": 56777, "pitch": 62, "duration": 60, "velocity": 100}, {"time": 56777, "pitch": 66, "duration": 60, "velocity": 110}, {"time": 57118, "pitch": 59, "duration": 61, "velocity": 105}, {"time": 57118, "pitch": 62, "duration": 61, "velocity": 100}, {"time": 57118, "pitch": 66, "duration": 61, "velocity": 110}, {"time": 57500, "pitch": 59, "duration": 60, "velocity": 105}, {"time": 57500, "pitch": 62, "duration": 60, "velocity": 100}, {"time": 57500, "pitch": 66, "duration": 60, "velocity": 110}, {"time": 57841, "pitch": 59, "duration": 61, "velocity": 105}, {"time": 57841, "pitch": 62, "duration": 61, "velocity": 100}, {"time": 57841, "pitch": 66, "duration": 61, "velocity": 110}, {"time": 58319, "pitch": 58, "duration": 60, "velocity": 100}, {"time": 58319, "pitch": 63, "duration": 60, "velocity": 105}, {"time": 58319, "pitch": 67, "duration": 60, "velocity": 110}, {"time": 58697, "pitch": 58, "duration": 60, "velocity": 105}, {"time": 58697, "pitch": 63, "duration": 60, "velocity": 100}, {"time": 58697, "pitch": 67, "duration": 60, "velocity": 110}, {"time": 59038, "pitch": 58, "duration": 61, "velocity": 105}, {"time": 59038, "pitch": 63, "duration": 61, "velocity": 100}, {"time": 59038, "pitch": 67, "duration": 61, "velocity": 110}, {"time": 59420, "pitch": 58, "duration": 60, "velocity": 105}, {"time": 59420, "pitch": 63, "duration": 60, "velocity": 100}, {"time": 59420, "pitch": 67, "duration": 60, "velocity": 110}, {"time": 59761, "pitch": 58, "duration": 61, "velocity": 105}, {"time": 59761, "pitch": 63, "duration": 61, "velocity": 100}, {"time": 59761, "pitch": 67, "duration": 61, "velocity": 110}, {"time": 77520, "pitch": 62, "duration": 59, "velocity": 105}, {"time": 77520, "pitch": 66, "duration": 59, "velocity": 100}, {"time": 77520, "pitch": 67, "duration": 59, "velocity": 110}, {"time": 77898, "pitch": 62, "duration": 60, "velocity": 105}, {"time": 77898, "pitch": 66, "duration": 60, "velocity": 100}, {"time": 77898, "pitch": 67, "duration": 60, "velocity": 110}, {"time": 78239, "pitch": 62, "duration": 60, "velocity": 110}, {"time": 78239, "pitch": 66, "duration": 60, "velocity": 100}, {"time": 78239, "pitch": 67, "duration": 60, "velocity": 105}, {"time": 78621, "pitch": 62, "duration": 60, "velocity": 105}, {"time": 78621, "pitch": 66, "duration": 60, "velocity": 100}, {"time": 78621, "pitch": 67, "duration": 60, "velocity": 110}, {"time": 78962, "pitch": 62, "duration": 61, "velocity": 105}, {"time": 78962, "pitch": 66, "duration": 61, "velocity": 100}, {"time": 78962, "pitch": 67, "duration": 61, "velocity": 110}, {"time": 79440, "pitch": 61, "duration": 59, "velocity": 100}, {"time": 79440, "pitch": 66, "duration": 59, "velocity": 105}, {"time": 79440, "pitch": 67, "duration": 59, "velocity": 110}, {"time": 79818, "pitch": 61, "duration": 60, "velocity": 105}, {"time": 79818, "pitch": 66, "duration": 60, "velocity": 100}, {"time": 79818, "pitch": 67, "duration": 60, "velocity": 110}, {"time": 80159, "pitch": 61, "duration": 61, "velocity": 105}, {"time": 80159, "pitch": 66, "duration": 61, "velocity": 100}, {"time": 80159, "pitch": 67, "duration": 61, "velocity": 110}, {"time": 80541, "pitch": 61, "duration": 60, "velocity": 105}, {"time": 80541, "pitch": 66, "duration": 60, "velocity": 100}, {"time": 80541, "pitch": 67, "duration": 60, "velocity": 110}, {"time": 80882, "pitch": 61, "duration": 61, "velocity": 105}, {"time": 80882, "pitch": 66, "duration": 61, "velocity": 100}, {"time": 80882, "pitch": 67, "duration": 61, "velocity": 110}, {"time": 81360, "pitch": 62, "duration": 60, "velocity": 105}, {"time": 81360, "pitch": 66, "duration": 60, "velocity": 100}, {"time": 81360, "pitch": 67, "duration": 60, "velocity": 110}, {"time": 81738, "pitch": 62, "duration": 60, "velocity": 105}, {"time": 81738, "pitch": 66, "duration": 60, "velocity": 100}, {"time": 81738, "pitch": 67, "duration": 60, "velocity": 110}, {"time": 82079, "pitch": 62, "duration": 61, "velocity": 110}, {"time": 82079, "pitch": 66, "duration": 61, "velocity": 100}, {"time": 82079, "pitch": 67, "duration": 61, "velocity": 105}, {"time": 82461, "pitch": 62, "duration": 60, "velocity": 105}, {"time": 82461, "pitch": 66, "duration": 60, "velocity": 100}, {"time": 82461, "pitch": 67, "duration": 60, "velocity": 110}, {"time": 82802, "pitch": 62, "duration": 61, "velocity": 105}, {"time": 82802, "pitch": 66, "duration": 61, "velocity": 100}, {"time": 82802, "pitch": 67, "duration": 61, "velocity": 110}, {"time": 83280, "pitch": 61, "duration": 60, "velocity": 100}, {"time": 83280, "pitch": 66, "duration": 60, "velocity": 105}, {"time": 83280, "pitch": 67, "duration": 60, "velocity": 110}, {"time": 83658, "pitch": 61, "duration": 60, "velocity": 105}, {"time": 83658, "pitch": 66, "duration": 60, "velocity": 100}, {"time": 83658, "pitch": 67, "duration": 60, "velocity": 110}, {"time": 83999, "pitch": 61, "duration": 61, "velocity": 105}, {"time": 83999, "pitch": 66, "duration": 61, "velocity": 100}, {"time": 83999, "pitch": 67, "duration": 61, "velocity": 110}, {"time": 84381, "pitch": 61, "duration": 60, "velocity": 105}, {"time": 84381, "pitch": 66, "duration": 60, "velocity": 100}, {"time": 84381, "pitch": 67, "duration": 60, "velocity": 110}, {"time": 84723, "pitch": 61, "duration": 60, "velocity": 105}, {"time": 84723, "pitch": 66, "duration": 60, "velocity": 100}, {"time": 84723, "pitch": 67, "duration": 60, "velocity": 110}, {"time": 85200, "pitch": 62, "duration": 60, "velocity": 105}, {"time": 85200, "pitch": 66, "duration": 60, "velocity": 100}, {"time": 85200, "pitch": 67, "duration": 60, "velocity": 110}, {"time": 85578, "pitch": 62, "duration": 60, "velocity": 105}, {"time": 85578, "pitch": 66, "duration": 60, "velocity": 100}, {"time": 85578, "pitch": 67, "duration": 60, "velocity": 110}, {"time": 85919, "pitch": 62, "duration": 61, "velocity": 110}, {"time": 85919, "pitch": 66, "duration": 61, "velocity": 100}, {"time": 85919, "pitch": 67, "duration": 61, "velocity": 105}, {"time": 86301, "pitch": 62, "duration": 60, "velocity": 105}, {"time": 86301, "pitch": 66, "duration": 60, "velocity": 100}, {"time": 86301, "pitch": 67, "duration": 60, "velocity": 110}, {"time": 86643, "pitch": 62, "duration": 60, "velocity": 105}, {"time": 86643, "pitch": 66, "duration": 60, "velocity": 100}, {"time": 86643, "pitch": 67, "duration": 60, "velocity": 110}, {"time": 87121, "pitch": 61, "duration": 59, "velocity": 100}, {"time": 87121, "pitch": 66, "duration": 59, "velocity": 105}, {"time": 87121, "pitch": 67, "duration": 59, "velocity": 110}, {"time": 87498, "pitch": 61, "duration": 60, "velocity": 105}, {"time": 87498, "pitch": 66, "duration": 60, "velocity": 100}, {"time": 87498, "pitch": 67, "duration": 60, "velocity": 110}, {"time": 87840, "pitch": 61, "duration": 60, "velocity": 105}, {"time": 87840, "pitch": 66, "duration": 60, "velocity": 100}, {"time": 87840, "pitch": 67, "duration": 60, "velocity": 110}, {"time": 88221, "pitch": 61, "duration": 60, "velocity": 105}, {"time": 88221, "pitch": 66, "duration": 60, "velocity": 100}, {"time": 88221, "pitch": 67, "duration": 60, "velocity": 110}, {"time": 88563, "pitch": 61, "duration": 60, "velocity": 105}, {"time": 88563, "pitch": 66, "duration": 60, "velocity": 100}, {"time": 88563, "pitch": 67, "duration": 60, "velocity": 110}, {"time": 89041, "pitch": 62, "duration": 59, "velocity": 105}, {"time": 89041, "pitch": 66, "duration": 59, "velocity": 100}, {"time": 89041, "pitch": 67, "duration": 59, "velocity": 110}, {"time": 89418, "pitch": 62, "duration": 60, "velocity": 105}, {"time": 89418, "pitch": 66, "duration": 60, "velocity": 100}, {"time": 89418, "pitch": 67, "duration": 60, "velocity": 110}, {"time": 89760, "pitch": 62, "duration": 60, "velocity": 110}, {"time": 89760, "pitch": 66, "duration": 60, "velocity": 100}, {"time": 89760, "pitch": 67, "duration": 60, "velocity": 105}, {"time": 90141, "pitch": 62, "duration": 61, "velocity": 105}, {"time": 90141, "pitch": 66, "duration": 61, "velocity": 100}, {"time": 90141, "pitch": 67, "duration": 61, "velocity": 110}, {"time": 90483, "pitch": 62, "duration": 60, "velocity": 105}, {"time": 90483, "pitch": 66, "duration": 60, "velocity": 100}, {"time": 90483, "pitch": 67, "duration": 60, "velocity": 110}, {"time": 90961, "pitch": 61, "duration": 59, "velocity": 100}, {"time": 90961, "pitch": 66, "duration": 59, "velocity": 105}, {"time": 90961, "pitch": 67, "duration": 59, "velocity": 110}, {"time": 91338, "pitch": 61, "duration": 60, "velocity": 105}, {"time": 91338, "pitch": 66, "duration": 60, "velocity": 100}, {"time": 91338, "pitch": 67, "duration": 60, "velocity": 110}, {"time": 91680, "pitch": 61, "duration": 60, "velocity": 105}, {"time": 91680, "pitch": 66, "duration": 60, "velocity": 100}, {"time": 91680, "pitch": 67, "duration": 60, "velocity": 110}, {"time": 92061, "pitch": 61, "duration": 61, "velocity": 105}, {"time": 92061, "pitch": 66, "duration": 61, "velocity": 100}, {"time": 92061, "pitch": 67, "duration": 61, "velocity": 110}, {"time": 92403, "pitch": 61, "duration": 60, "velocity": 105}, {"time": 92403, "pitch": 66, "duration": 60, "velocity": 100}, {"time": 92403, "pitch": 67, "duration": 60, "velocity": 110}, {"time": 92881, "pitch": 62, "duration": 59, "velocity": 105}, {"time": 92881, "pitch": 66, "duration": 59, "velocity": 100}, {"time": 92881, "pitch": 67, "duration": 59, "velocity": 110}, {"time": 93258, "pitch": 62, "duration": 61, "velocity": 105}, {"time": 93258, "pitch": 66, "duration": 61, "velocity": 100}, {"time": 93258, "pitch": 67, "duration": 61, "velocity": 110}, {"time": 93600, "pitch": 62, "duration": 60, "velocity": 110}, {"time": 93600, "pitch": 66, "duration": 60, "velocity": 100}, {"time": 93600, "pitch": 67, "duration": 60, "velocity": 105}, {"time": 93981, "pitch": 62, "duration": 61, "velocity": 105}, {"time": 93981, "pitch": 66, "duration": 61, "velocity": 100}, {"time": 93981, "pitch": 67, "duration": 61, "velocity": 110}, {"time": 94323, "pitch": 62, "duration": 60, "velocity": 105}, {"time": 94323, "pitch": 66, "duration": 60, "velocity": 100}, {"time": 94323, "pitch": 67, "duration": 60, "velocity": 110}, {"time": 94801, "pitch": 61, "duration": 59, "velocity": 100}, {"time": 94801, "pitch": 66, "duration": 59, "velocity": 105}, {"time": 94801, "pitch": 67, "duration": 59, "velocity": 110}, {"time": 95178, "pitch": 61, "duration": 61, "velocity": 105}, {"time": 95178, "pitch": 66, "duration": 61, "velocity": 100}, {"time": 95178, "pitch": 67, "duration": 61, "velocity": 110}, {"time": 95520, "pitch": 61, "duration": 60, "velocity": 105}, {"time": 95520, "pitch": 66, "duration": 60, "velocity": 100}, {"time": 95520, "pitch": 67, "duration": 60, "velocity": 110}, {"time": 95902, "pitch": 61, "duration": 60, "velocity": 105}, {"time": 95902, "pitch": 66, "duration": 60, "velocity": 100}, {"time": 95902, "pitch": 67, "duration": 60, "velocity": 110}, {"time": 96243, "pitch": 61, "duration": 60, "velocity": 105}, {"time": 96243, "pitch": 66, "duration": 60, "velocity": 100}, {"time": 96243, "pitch": 67, "duration": 60, "velocity": 110}, {"time": 96721, "pitch": 62, "duration": 59, "velocity": 105}, {"time": 96721, "pitch": 66, "duration": 59, "velocity": 100}, {"time": 96721, "pitch": 67, "duration": 59, "velocity": 110}, {"time": 97098, "pitch": 62, "duration": 61, "velocity": 105}, {"time": 97098, "pitch": 66, "duration": 61, "velocity": 100}, {"time": 97098, "pitch": 67, "duration": 61, "velocity": 110}, {"time": 97440, "pitch": 62, "duration": 60, "velocity": 110}, {"time": 97440, "pitch": 66, "duration": 60, "velocity": 100}, {"time": 97440, "pitch": 67, "duration": 60, "velocity": 105}, {"time": 97822, "pitch": 62, "duration": 60, "velocity": 105}, {"time": 97822, "pitch": 66, "duration": 60, "velocity": 100}, {"time": 97822, "pitch": 67, "duration": 60, "velocity": 110}, {"time": 98163, "pitch": 62, "duration": 60, "velocity": 105}, {"time": 98163, "pitch": 66, "duration": 60, "velocity": 100}, {"time": 98163, "pitch": 67, "duration": 60, "velocity": 110}, {"time": 98641, "pitch": 61, "duration": 59, "velocity": 100}, {"time": 98641, "pitch": 66, "duration": 59, "velocity": 105}, {"time": 98641, "pitch": 67, "duration": 59, "velocity": 110}, {"time": 99019, "pitch": 61, "duration": 60, "velocity": 105}, {"time": 99019, "pitch": 66, "duration": 60, "velocity": 100}, {"time": 99019, "pitch": 67, "duration": 60, "velocity": 110}, {"time": 99360, "pitch": 61, "duration": 60, "velocity": 105}, {"time": 99360, "pitch": 66, "duration": 60, "velocity": 100}, {"time": 99360, "pitch": 67, "duration": 60, "velocity": 110}, {"time": 99742, "pitch": 61, "duration": 60, "velocity": 105}, {"time": 99742, "pitch": 66, "duration": 60, "velocity": 100}, {"time": 99742, "pitch": 67, "duration": 60, "velocity": 110}, {"time": 100079, "pitch": 61, "duration": 59, "velocity": 105}, {"time": 100079, "pitch": 66, "duration": 59, "velocity": 100}, {"time": 100079, "pitch": 67, "duration": 59, "velocity": 110}, {"time": 100557, "pitch": 59, "duration": 60, "velocity": 100}, {"time": 100557, "pitch": 64, "duration": 60, "velocity": 105}, {"time": 100557, "pitch": 67, "duration": 60, "velocity": 110}, {"time": 100939, "pitch": 59, "duration": 60, "velocity": 105}, {"time": 100939, "pitch": 64, "duration": 60, "velocity": 100}, {"time": 100939, "pitch": 67, "duration": 60, "velocity": 110}, {"time": 101280, "pitch": 59, "duration": 60, "velocity": 105}, {"time": 101280, "pitch": 64, "duration": 60, "velocity": 100}, {"time": 101280, "pitch": 67, "duration": 60, "velocity": 110}, {"time": 101662, "pitch": 59, "duration": 60, "velocity": 105}, {"time": 101662, "pitch": 64, "duration": 60, "velocity": 100}, {"time": 101662, "pitch": 67, "duration": 60, "velocity": 110}, {"time": 101999, "pitch": 59, "duration": 59, "velocity": 105}, {"time": 101999, "pitch": 64, "duration": 59, "velocity": 100}, {"time": 101999, "pitch": 67, "duration": 59, "velocity": 110}, {"time": 102477, "pitch": 60, "duration": 60, "velocity": 100}, {"time": 102477, "pitch": 63, "duration": 60, "velocity": 105}, {"time": 102477, "pitch": 67, "duration": 60, "velocity": 110}, {"time": 102859, "pitch": 60, "duration": 60, "velocity": 105}, {"time": 102859, "pitch": 63, "duration": 60, "velocity": 100}, {"time": 102859, "pitch": 67, "duration": 60, "velocity": 110}, {"time": 103200, "pitch": 60, "duration": 60, "velocity": 105}, {"time": 103200, "pitch": 63, "duration": 60, "velocity": 100}, {"time": 103200, "pitch": 67, "duration": 60, "velocity": 110}, {"time": 103582, "pitch": 60, "duration": 60, "velocity": 105}, {"time": 103582, "pitch": 63, "duration": 60, "velocity": 100}, {"time": 103582, "pitch": 67, "duration": 60, "velocity": 110}, {"time": 103919, "pitch": 60, "duration": 59, "velocity": 105}, {"time": 103919, "pitch": 63, "duration": 59, "velocity": 100}, {"time": 103919, "pitch": 67, "duration": 59, "velocity": 110}, {"time": 104397, "pitch": 59, "duration": 60, "velocity": 100}, {"time": 104397, "pitch": 62, "duration": 60, "velocity": 105}, {"time": 104397, "pitch": 66, "duration": 60, "velocity": 110}, {"time": 104779, "pitch": 59, "duration": 60, "velocity": 105}, {"time": 104779, "pitch": 62, "duration": 60, "velocity": 100}, {"time": 104779, "pitch": 66, "duration": 60, "velocity": 110}, {"time": 105120, "pitch": 59, "duration": 61, "velocity": 105}, {"time": 105120, "pitch": 62, "duration": 61, "velocity": 100}, {"time": 105120, "pitch": 66, "duration": 61, "velocity": 110}, {"time": 105502, "pitch": 59, "duration": 60, "velocity": 105}, {"time": 105502, "pitch": 62, "duration": 60, "velocity": 100}, {"time": 105502, "pitch": 66, "duration": 60, "velocity": 110}, {"time": 105839, "pitch": 59, "duration": 60, "velocity": 105}, {"time": 105839, "pitch": 62, "duration": 60, "velocity": 100}, {"time": 105839, "pitch": 66, "duration": 60, "velocity": 110}, {"time": 106317, "pitch": 62, "duration": 60, "velocity": 100}, {"time": 106317, "pitch": 64, "duration": 60, "velocity": 105}, {"time": 106317, "pitch": 67, "duration": 60, "velocity": 110}, {"time": 106699, "pitch": 59, "duration": 60, "velocity": 105}, {"time": 106699, "pitch": 62, "duration": 60, "velocity": 100}, {"time": 106699, "pitch": 67, "duration": 60, "velocity": 110}, {"time": 107040, "pitch": 59, "duration": 61, "velocity": 105}, {"time": 107040, "pitch": 62, "duration": 61, "velocity": 100}, {"time": 107040, "pitch": 67, "duration": 61, "velocity": 110}, {"time": 107422, "pitch": 59, "duration": 60, "velocity": 105}, {"time": 107422, "pitch": 62, "duration": 60, "velocity": 100}, {"time": 107422, "pitch": 67, "duration": 60, "velocity": 110}, {"time": 107759, "pitch": 59, "duration": 60, "velocity": 105}, {"time": 107759, "pitch": 62, "duration": 60, "velocity": 100}, {"time": 107759, "pitch": 67, "duration": 60, "velocity": 110}, {"time": 108237, "pitch": 60, "duration": 61, "velocity": 100}, {"time": 108237, "pitch": 64, "duration": 61, "velocity": 105}, {"time": 108237, "pitch": 67, "duration": 61, "velocity": 110}, {"time": 108619, "pitch": 60, "duration": 60, "velocity": 105}, {"time": 108619, "pitch": 64, "duration": 60, "velocity": 100}, {"time": 108619, "pitch": 67, "duration": 60, "velocity": 110}, {"time": 108960, "pitch": 60, "duration": 61, "velocity": 105}, {"time": 108960, "pitch": 64, "duration": 61, "velocity": 100}, {"time": 108960, "pitch": 67, "duration": 61, "velocity": 110}, {"time": 109342, "pitch": 60, "duration": 60, "velocity": 105}, {"time": 109342, "pitch": 64, "duration": 60, "velocity": 100}, {"time": 109342, "pitch": 67, "duration": 60, "velocity": 110}, {"time": 109679, "pitch": 60, "duration": 60, "velocity": 105}, {"time": 109679, "pitch": 64, "duration": 60, "velocity": 100}, {"time": 109679, "pitch": 67, "duration": 60, "velocity": 110}, {"time": 110157, "pitch": 59, "duration": 61, "velocity": 100}, {"time": 110157, "pitch": 62, "duration": 61, "velocity": 105}, {"time": 110157, "pitch": 66, "duration": 61, "velocity": 110}, {"time": 110539, "pitch": 59, "duration": 60, "velocity": 105}, {"time": 110539, "pitch": 62, "duration": 60, "velocity": 100}, {"time": 110539, "pitch": 66, "duration": 60, "velocity": 110}, {"time": 110881, "pitch": 59, "duration": 60, "velocity": 105}, {"time": 110881, "pitch": 62, "duration": 60, "velocity": 100}, {"time": 110881, "pitch": 66, "duration": 60, "velocity": 110}, {"time": 111262, "pitch": 59, "duration": 60, "velocity": 105}, {"time": 111262, "pitch": 62, "duration": 60, "velocity": 100}, {"time": 111262, "pitch": 66, "duration": 60, "velocity": 110}, {"time": 111600, "pitch": 59, "duration": 59, "velocity": 105}, {"time": 111600, "pitch": 62, "duration": 59, "velocity": 100}, {"time": 111600, "pitch": 66, "duration": 59, "velocity": 110}, {"time": 112077, "pitch": 58, "duration": 61, "velocity": 100}, {"time": 112077, "pitch": 63, "duration": 61, "velocity": 105}, {"time": 112077, "pitch": 67, "duration": 61, "velocity": 110}, {"time": 112459, "pitch": 58, "duration": 60, "velocity": 105}, {"time": 112459, "pitch": 63, "duration": 60, "velocity": 100}, {"time": 112459, "pitch": 67, "duration": 60, "velocity": 110}, {"time": 112801, "pitch": 58, "duration": 60, "velocity": 105}, {"time": 112801, "pitch": 63, "duration": 60, "velocity": 100}, {"time": 112801, "pitch": 67, "duration": 60, "velocity": 110}, {"time": 113182, "pitch": 58, "duration": 61, "velocity": 105}, {"time": 113182, "pitch": 63, "duration": 61, "velocity": 100}, {"time": 113182, "pitch": 67, "duration": 61, "velocity": 110}, {"time": 113520, "pitch": 58, "duration": 59, "velocity": 105}, {"time": 113520, "pitch": 63, "duration": 59, "velocity": 100}, {"time": 113520, "pitch": 67, "duration": 59, "velocity": 110}, {"time": 192721, "pitch": 62, "duration": 60, "velocity": 105}, {"time": 192721, "pitch": 66, "duration": 60, "velocity": 100}, {"time": 192721, "pitch": 67, "duration": 60, "velocity": 110}, {"time": 193102, "pitch": 62, "duration": 61, "velocity": 105}, {"time": 193102, "pitch": 66, "duration": 61, "velocity": 100}, {"time": 193102, "pitch": 67, "duration": 61, "velocity": 110}, {"time": 193444, "pitch": 62, "duration": 59, "velocity": 110}, {"time": 193444, "pitch": 66, "duration": 59, "velocity": 100}, {"time": 193444, "pitch": 67, "duration": 59, "velocity": 105}, {"time": 193819, "pitch": 62, "duration": 59, "velocity": 105}, {"time": 193819, "pitch": 66, "duration": 59, "velocity": 100}, {"time": 193819, "pitch": 67, "duration": 59, "velocity": 110}, {"time": 194159, "pitch": 62, "duration": 60, "velocity": 105}, {"time": 194159, "pitch": 66, "duration": 60, "velocity": 100}, {"time": 194159, "pitch": 67, "duration": 60, "velocity": 110}, {"time": 194641, "pitch": 61, "duration": 60, "velocity": 100}, {"time": 194641, "pitch": 66, "duration": 60, "velocity": 105}, {"time": 194641, "pitch": 67, "duration": 60, "velocity": 110}, {"time": 195023, "pitch": 61, "duration": 60, "velocity": 105}, {"time": 195023, "pitch": 66, "duration": 60, "velocity": 100}, {"time": 195023, "pitch": 67, "duration": 60, "velocity": 110}, {"time": 195364, "pitch": 61, "duration": 59, "velocity": 105}, {"time": 195364, "pitch": 66, "duration": 59, "velocity": 100}, {"time": 195364, "pitch": 67, "duration": 59, "velocity": 110}, {"time": 195739, "pitch": 61, "duration": 59, "velocity": 105}, {"time": 195739, "pitch": 66, "duration": 59, "velocity": 100}, {"time": 195739, "pitch": 67, "duration": 59, "velocity": 110}, {"time": 196079, "pitch": 61, "duration": 60, "velocity": 105}, {"time": 196079, "pitch": 66, "duration": 60, "velocity": 100}, {"time": 196079, "pitch": 67, "duration": 60, "velocity": 110}, {"time": 196561, "pitch": 62, "duration": 60, "velocity": 105}, {"time": 196561, "pitch": 66, "duration": 60, "velocity": 100}, {"time": 196561, "pitch": 67, "duration": 60, "velocity": 110}, {"time": 196943, "pitch": 62, "duration": 60, "velocity": 105}, {"time": 196943, "pitch": 66, "duration": 60, "velocity": 100}, {"time": 196943, "pitch": 67, "duration": 60, "velocity": 110}, {"time": 197284, "pitch": 62, "duration": 59, "velocity": 110}, {"time": 197284, "pitch": 66, "duration": 59, "velocity": 100}, {"time": 197284, "pitch": 67, "duration": 59, "velocity": 105}, {"time": 197659, "pitch": 62, "duration": 59, "velocity": 105}, {"time": 197659, "pitch": 66, "duration": 59, "velocity": 100}, {"time": 197659, "pitch": 67, "duration": 59, "velocity": 110}, {"time": 197999, "pitch": 62, "duration": 60, "velocity": 105}, {"time": 197999, "pitch": 66, "duration": 60, "velocity": 100}, {"time": 197999, "pitch": 67, "duration": 60, "velocity": 110}, {"time": 198481, "pitch": 61, "duration": 60, "velocity": 100}, {"time": 198481, "pitch": 66, "duration": 60, "velocity": 105}, {"time": 198481, "pitch": 67, "duration": 60, "velocity": 110}, {"time": 198860, "pitch": 61, "duration": 60, "velocity": 105}, {"time": 198860, "pitch": 66, "duration": 60, "velocity": 100}, {"time": 198860, "pitch": 67, "duration": 60, "velocity": 110}, {"time": 199196, "pitch": 61, "duration": 60, "velocity": 105}, {"time": 199196, "pitch": 66, "duration": 60, "velocity": 100}, {"time": 199196, "pitch": 67, "duration": 60, "velocity": 110}, {"time": 199578, "pitch": 61, "duration": 60, "velocity": 105}, {"time": 199578, "pitch": 66, "duration": 60, "velocity": 100}, {"time": 199578, "pitch": 67, "duration": 60, "velocity": 110}, {"time": 199919, "pitch": 61, "duration": 60, "velocity": 105}, {"time": 199919, "pitch": 66, "duration": 60, "velocity": 100}, {"time": 199919, "pitch": 67, "duration": 60, "velocity": 110}, {"time": 200401, "pitch": 62, "duration": 60, "velocity": 105}, {"time": 200401, "pitch": 66, "duration": 60, "velocity": 100}, {"time": 200401, "pitch": 67, "duration": 60, "velocity": 110}, {"time": 200780, "pitch": 62, "duration": 60, "velocity": 105}, {"time": 200780, "pitch": 66, "duration": 60, "velocity": 100}, {"time": 200780, "pitch": 67, "duration": 60, "velocity": 110}, {"time": 201116, "pitch": 62, "duration": 60, "velocity": 110}, {"time": 201116, "pitch": 66, "duration": 60, "velocity": 100}, {"time": 201116, "pitch": 67, "duration": 60, "velocity": 105}, {"time": 201498, "pitch": 62, "duration": 60, "velocity": 105}, {"time": 201498, "pitch": 66, "duration": 60, "velocity": 100}, {"time": 201498, "pitch": 67, "duration": 60, "velocity": 110}, {"time": 201839, "pitch": 62, "duration": 60, "velocity": 105}, {"time": 201839, "pitch": 66, "duration": 60, "velocity": 100}, {"time": 201839, "pitch": 67, "duration": 60, "velocity": 110}, {"time": 202321, "pitch": 61, "duration": 60, "velocity": 100}, {"time": 202321, "pitch": 66, "duration": 60, "velocity": 105}, {"time": 202321, "pitch": 67, "duration": 60, "velocity": 110}, {"time": 202700, "pitch": 61, "duration": 60, "velocity": 105}, {"time": 202700, "pitch": 66, "duration": 60, "velocity": 100}, {"time": 202700, "pitch": 67, "duration": 60, "velocity": 110}, {"time": 203036, "pitch": 61, "duration": 60, "velocity": 105}, {"time": 203036, "pitch": 66, "duration": 60, "velocity": 100}, {"time": 203036, "pitch": 67, "duration": 60, "velocity": 110}, {"time": 203418, "pitch": 61, "duration": 60, "velocity": 105}, {"time": 203418, "pitch": 66, "duration": 60, "velocity": 100}, {"time": 203418, "pitch": 67, "duration": 60, "velocity": 110}, {"time": 203759, "pitch": 61, "duration": 60, "velocity": 105}, {"time": 203759, "pitch": 66, "duration": 60, "velocity": 100}, {"time": 203759, "pitch": 67, "duration": 60, "velocity": 110}, {"time": 204241, "pitch": 62, "duration": 61, "velocity": 105}, {"time": 204241, "pitch": 66, "duration": 61, "velocity": 100}, {"time": 204241, "pitch": 67, "duration": 61, "velocity": 110}, {"time": 204621, "pitch": 62, "duration": 59, "velocity": 105}, {"time": 204621, "pitch": 66, "duration": 59, "velocity": 100}, {"time": 204621, "pitch": 67, "duration": 59, "velocity": 110}, {"time": 204956, "pitch": 62, "duration": 60, "velocity": 110}, {"time": 204956, "pitch": 66, "duration": 60, "velocity": 100}, {"time": 204956, "pitch": 67, "duration": 60, "velocity": 105}, {"time": 205338, "pitch": 62, "duration": 60, "velocity": 105}, {"time": 205338, "pitch": 66, "duration": 60, "velocity": 100}, {"time": 205338, "pitch": 67, "duration": 60, "velocity": 110}, {"time": 205679, "pitch": 62, "duration": 61, "velocity": 105}, {"time": 205679, "pitch": 66, "duration": 61, "velocity": 100}, {"time": 205679, "pitch": 67, "duration": 61, "velocity": 110}, {"time": 206161, "pitch": 61, "duration": 61, "velocity": 100}, {"time": 206161, "pitch": 66, "duration": 61, "velocity": 105}, {"time": 206161, "pitch": 67, "duration": 61, "velocity": 110}, {"time": 206541, "pitch": 61, "duration": 59, "velocity": 105}, {"time": 206541, "pitch": 66, "duration": 59, "velocity": 100}, {"time": 206541, "pitch": 67, "duration": 59, "velocity": 110}, {"time": 206876, "pitch": 61, "duration": 60, "velocity": 105}, {"time": 206876, "pitch": 66, "duration": 60, "velocity": 100}, {"time": 206876, "pitch": 67, "duration": 60, "velocity": 110}, {"time": 207258, "pitch": 61, "duration": 60, "velocity": 105}, {"time": 207258, "pitch": 66, "duration": 60, "velocity": 100}, {"time": 207258, "pitch": 67, "duration": 60, "velocity": 110}, {"time": 207599, "pitch": 61, "duration": 61, "velocity": 105}, {"time": 207599, "pitch": 66, "duration": 61, "velocity": 100}, {"time": 207599, "pitch": 67, "duration": 61, "velocity": 110}], "annotations": [{"time": 292, "annotation": {"number": 7, "value": 100}, "group": "control_change"}, {"time": 313, "annotation": {"number": 11, "value": 110}, "group": "control_change"}, {"time": 334, "annotation": {"number": 10, "value": 61}, "group": "control_change"}, {"time": 355, "annotation": {"number": 91, "value": 20}, "group": "control_change"}, {"time": 376, "annotation": {"number": 93, "value": 30}, "group": "control_change"}, {"time": 397, "annotation": {"number": 101, "value": 0}, "group": "control_change"}, {"time": 417, "annotation": {"number": 100, "value": 0}, "group": "control_change"}, {"time": 438, "annotation": {"number": 6, "value": 12}, "group": "control_change"}, {"time": 459, "annotation": {"number": 101, "value": 127}, "group": "control_change"}, {"time": 480, "annotation": {"number": 100, "value": 127}, "group": "control_change"}, {"time": 15841, "annotation": {"number": 10, "value": 60}, "group": "control_change"}, {"time": 16082, "annotation": {"number": 10, "value": 40}, "group": "control_change"}, {"time": 16323, "annotation": {"number": 10, "value": 20}, "group": "control_change"}, {"time": 16560, "annotation": {"number": 10, "value": 10}, "group": "control_change"}, {"time": 16797, "annotation": {"number": 10, "value": 5}, "group": "control_change"}, {"time": 17038, "annotation": {"number": 10, "value": 10}, "group": "control_change"}, {"time": 17279, "annotation": {"number": 10, "value": 20}, "group": "control_change"}, {"time": 17520, "annotation": {"number": 10, "value": 40}, "group": "control_change"}, {"time": 17761, "annotation": {"number": 10, "value": 60}, "group": "control_change"}, {"time": 18002, "annotation": {"number": 10, "value": 80}, "group": "control_change"}, {"time": 18243, "annotation": {"number": 10, "value": 100}, "group": "control_change"}, {"time": 18480, "annotation": {"number": 10, "value": 110}, "group": "control_change"}, {"time": 18717, "annotation": {"number": 10, "value": 115}, "group": "control_change"}, {"time": 18958, "annotation": {"number": 10, "value": 110}, "group": "control_change"}, {"time": 19199, "annotation": {"number": 10, "value": 100}, "group": "control_change"}, {"time": 19440, "annotation": {"number": 10, "value": 80}, "group": "control_change"}, {"time": 19681, "annotation": {"number": 10, "value": 60}, "group": "control_change"}, {"time": 19922, "annotation": {"number": 10, "value": 40}, "group": "control_change"}, {"time": 20163, "annotation": {"number": 10, "value": 20}, "group": "control_change"}, {"time": 20400, "annotation": {"number": 10, "value": 10}, "group": "control_change"}, {"time": 20637, "annotation": {"number": 10, "value": 5}, "group": "control_change"}, {"time": 20878, "annotation": {"number": 10, "value": 10}, "group": "control_change"}, {"time": 21119, "annotation": {"number": 10, "value": 20}, "group": "control_change"}, {"time": 21360, "annotation": {"number": 10, "value": 40}, "group": "control_change"}, {"time": 21601, "annotation": {"number": 10, "value": 60}, "group": "control_change"}, {"time": 21842, "annotation": {"number": 10, "value": 80}, "group": "control_change"}, {"time": 22083, "annotation": {"number": 10, "value": 100}, "group": "control_change"}, {"time": 22320, "annotation": {"number": 10, "value": 110}, "group": "control_change"}, {"time": 22557, "annotation": {"number": 10, "value": 115}, "group": "control_change"}, {"time": 22798, "annotation": {"number": 10, "value": 110}, "group": "control_change"}, {"time": 23039, "annotation": {"number": 10, "value": 100}, "group": "control_change"}, {"time": 23280, "annotation": {"number": 10, "value": 80}, "group": "control_change"}, {"time": 23521, "annotation": {"number": 10, "value": 60}, "group": "control_change"}, {"time": 23762, "annotation": {"number": 10, "value": 40}, "group": "control_change"}, {"time": 24003, "annotation": {"number": 10, "value": 20}, "group": "control_change"}, {"time": 24240, "annotation": {"number": 10, "value": 10}, "group": "control_change"}, {"time": 24477, "annotation": {"number": 10, "value": 5}, "group": "control_change"}, {"time": 24718, "annotation": {"number": 10, "value": 10}, "group": "control_change"}, {"time": 24959, "annotation": {"number": 10, "value": 20}, "group": "control_change"}, {"time": 25200, "annotation": {"number": 10, "value": 40}, "group": "control_change"}, {"time": 25441, "annotation": {"number": 10, "value": 60}, "group": "control_change"}, {"time": 25682, "annotation": {"number": 10, "value": 80}, "group": "control_change"}, {"time": 25923, "annotation": {"number": 10, "value": 100}, "group": "control_change"}, {"time": 26160, "annotation": {"number": 10, "value": 110}, "group": "control_change"}, {"time": 26397, "annotation": {"number": 10, "value": 115}, "group": "control_change"}, {"time": 26638, "annotation": {"number": 10, "value": 110}, "group": "control_change"}, {"time": 26879, "annotation": {"number": 10, "value": 100}, "group": "control_change"}, {"time": 27120, "annotation": {"number": 10, "value": 80}, "group": "control_change"}, {"time": 27361, "annotation": {"number": 10, "value": 60}, "group": "control_change"}, {"time": 27602, "annotation": {"number": 10, "value": 40}, "group": "control_change"}, {"time": 27843, "annotation": {"number": 10, "value": 20}, "group": "control_change"}, {"time": 28080, "annotation": {"number": 10, "value": 10}, "group": "control_change"}, {"time": 28317, "annotation": {"number": 10, "value": 5}, "group": "control_change"}, {"time": 28558, "annotation": {"number": 10, "value": 10}, "group": "control_change"}, {"time": 28799, "annotation": {"number": 10, "value": 20}, "group": "control_change"}, {"time": 29040, "annotation": {"number": 10, "value": 40}, "group": "control_change"}, {"time": 29281, "annotation": {"number": 10, "value": 60}, "group": "control_change"}, {"time": 29522, "annotation": {"number": 10, "value": 80}, "group": "control_change"}, {"time": 29763, "annotation": {"number": 10, "value": 100}, "group": "control_change"}, {"time": 30000, "annotation": {"number": 10, "value": 110}, "group": "control_change"}, {"time": 30237, "annotation": {"number": 10, "value": 115}, "group": "control_change"}, {"time": 30478, "annotation": {"number": 10, "value": 110}, "group": "control_change"}, {"time": 30719, "annotation": {"number": 10, "value": 100}, "group": "control_change"}, {"time": 30960, "annotation": {"number": 10, "value": 80}, "group": "control_change"}, {"time": 31201, "annotation": {"number": 10, "value": 60}, "group": "control_change"}, {"time": 31442, "annotation": {"number": 10, "value": 40}, "group": "control_change"}, {"time": 31683, "annotation": {"number": 10, "value": 20}, "group": "control_change"}, {"time": 31920, "annotation": {"number": 10, "value": 10}, "group": "control_change"}, {"time": 32157, "annotation": {"number": 10, "value": 5}, "group": "control_change"}, {"time": 32398, "annotation": {"number": 10, "value": 10}, "group": "control_change"}, {"time": 32639, "annotation": {"number": 10, "value": 20}, "group": "control_change"}, {"time": 32880, "annotation": {"number": 10, "value": 40}, "group": "control_change"}, {"time": 33121, "annotation": {"number": 10, "value": 60}, "group": "control_change"}, {"time": 33362, "annotation": {"number": 10, "value": 80}, "group": "control_change"}, {"time": 33603, "annotation": {"number": 10, "value": 100}, "group": "control_change"}, {"time": 33840, "annotation": {"number": 10, "value": 110}, "group": "control_change"}, {"time": 34077, "annotation": {"number": 10, "value": 115}, "group": "control_change"}, {"time": 34318, "annotation": {"number": 10, "value": 110}, "group": "control_change"}, {"time": 34559, "annotation": {"number": 10, "value": 100}, "group": "control_change"}, {"time": 34800, "annotation": {"number": 10, "value": 80}, "group": "control_change"}, {"time": 35042, "annotation": {"number": 10, "value": 60}, "group": "control_change"}, {"time": 35283, "annotation": {"number": 10, "value": 40}, "group": "control_change"}, {"time": 35524, "annotation": {"number": 10, "value": 20}, "group": "control_change"}, {"time": 35760, "annotation": {"number": 10, "value": 10}, "group": "control_change"}, {"time": 35997, "annotation": {"number": 10, "value": 5}, "group": "control_change"}, {"time": 36238, "annotation": {"number": 10, "value": 10}, "group": "control_change"}, {"time": 36480, "annotation": {"number": 10, "value": 20}, "group": "control_change"}, {"time": 36721, "annotation": {"number": 10, "value": 40}, "group": "control_change"}, {"time": 36962, "annotation": {"number": 10, "value": 60}, "group": "control_change"}, {"time": 37203, "annotation": {"number": 10, "value": 80}, "group": "control_change"}, {"time": 37444, "annotation": {"number": 10, "value": 100}, "group": "control_change"}, {"time": 37681, "annotation": {"number": 10, "value": 110}, "group": "control_change"}, {"time": 37918, "annotation": {"number": 10, "value": 115}, "group": "control_change"}, {"time": 38159, "annotation": {"number": 10, "value": 110}, "group": "control_change"}, {"time": 38400, "annotation": {"number": 10, "value": 100}, "group": "control_change"}, {"time": 38641, "annotation": {"number": 10, "value": 80}, "group": "control_change"}, {"time": 38882, "annotation": {"number": 10, "value": 60}, "group": "control_change"}, {"time": 39123, "annotation": {"number": 10, "value": 40}, "group": "control_change"}, {"time": 39364, "annotation": {"number": 10, "value": 20}, "group": "control_change"}, {"time": 39601, "annotation": {"number": 10, "value": 10}, "group": "control_change"}, {"time": 39838, "annotation": {"number": 10, "value": 5}, "group": "control_change"}, {"time": 40079, "annotation": {"number": 10, "value": 10}, "group": "control_change"}, {"time": 40320, "annotation": {"number": 10, "value": 20}, "group": "control_change"}, {"time": 40561, "annotation": {"number": 10, "value": 40}, "group": "control_change"}, {"time": 40802, "annotation": {"number": 10, "value": 60}, "group": "control_change"}, {"time": 41043, "annotation": {"number": 10, "value": 80}, "group": "control_change"}, {"time": 41284, "annotation": {"number": 10, "value": 100}, "group": "control_change"}, {"time": 41521, "annotation": {"number": 10, "value": 110}, "group": "control_change"}, {"time": 41758, "annotation": {"number": 10, "value": 115}, "group": "control_change"}, {"time": 41999, "annotation": {"number": 10, "value": 110}, "group": "control_change"}, {"time": 42240, "annotation": {"number": 10, "value": 100}, "group": "control_change"}, {"time": 42481, "annotation": {"number": 10, "value": 80}, "group": "control_change"}, {"time": 42722, "annotation": {"number": 10, "value": 60}, "group": "control_change"}, {"time": 42963, "annotation": {"number": 10, "value": 40}, "group": "control_change"}, {"time": 43204, "annotation": {"number": 10, "value": 20}, "group": "control_change"}, {"time": 43441, "annotation": {"number": 10, "value": 10}, "group": "control_change"}, {"time": 43678, "annotation": {"number": 10, "value": 5}, "group": "control_change"}, {"time": 43919, "annotation": {"number": 10, "value": 10}, "group": "control_change"}, {"time": 44160, "annotation": {"number": 10, "value": 20}, "group": "control_change"}, {"time": 44401, "annotation": {"number": 10, "value": 40}, "group": "control_change"}, {"time": 44642, "annotation": {"number": 10, "value": 60}, "group": "control_change"}, {"time": 44883, "annotation": {"number": 10, "value": 80}, "group": "control_change"}, {"time": 45124, "annotation": {"number": 10, "value": 100}, "group": "control_change"}, {"time": 45361, "annotation": {"number": 10, "value": 110}, "group": "control_change"}, {"time": 45598, "annotation": {"number": 10, "value": 115}, "group": "control_change"}, {"time": 45839, "annotation": {"number": 10, "value": 110}, "group": "control_change"}, {"time": 46080, "annotation": {"number": 10, "value": 100}, "group": "control_change"}, {"time": 46321, "annotation": {"number": 10, "value": 80}, "group": "control_change"}, {"time": 46562, "annotation": {"number": 10, "value": 60}, "group": "control_change"}, {"time": 46803, "annotation": {"number": 10, "value": 40}, "group": "control_change"}, {"time": 47044, "annotation": {"number": 10, "value": 20}, "group": "control_change"}, {"time": 47281, "annotation": {"number": 10, "value": 10}, "group": "control_change"}, {"time": 47518, "annotation": {"number": 10, "value": 5}, "group": "control_change"}, {"time": 47759, "annotation": {"number": 10, "value": 10}, "group": "control_change"}, {"time": 48000, "annotation": {"number": 10, "value": 20}, "group": "control_change"}, {"time": 48241, "annotation": {"number": 10, "value": 40}, "group": "control_change"}, {"time": 48482, "annotation": {"number": 10, "value": 60}, "group": "control_change"}, {"time": 48719, "annotation": {"number": 10, "value": 80}, "group": "control_change"}, {"time": 48956, "annotation": {"number": 10, "value": 100}, "group": "control_change"}, {"time": 49197, "annotation": {"number": 10, "value": 110}, "group": "control_change"}, {"time": 49438, "annotation": {"number": 10, "value": 115}, "group": "control_change"}, {"time": 49679, "annotation": {"number": 10, "value": 110}, "group": "control_change"}, {"time": 49920, "annotation": {"number": 10, "value": 100}, "group": "control_change"}, {"time": 50161, "annotation": {"number": 10, "value": 80}, "group": "control_change"}, {"time": 50402, "annotation": {"number": 10, "value": 60}, "group": "control_change"}, {"time": 50639, "annotation": {"number": 10, "value": 40}, "group": "control_change"}, {"time": 50876, "annotation": {"number": 10, "value": 20}, "group": "control_change"}, {"time": 51117, "annotation": {"number": 10, "value": 10}, "group": "control_change"}, {"time": 51358, "annotation": {"number": 10, "value": 5}, "group": "control_change"}, {"time": 51599, "annotation": {"number": 10, "value": 10}, "group": "control_change"}, {"time": 51840, "annotation": {"number": 10, "value": 20}, "group": "control_change"}, {"time": 52081, "annotation": {"number": 10, "value": 40}, "group": "control_change"}, {"time": 52322, "annotation": {"number": 10, "value": 60}, "group": "control_change"}, {"time": 52559, "annotation": {"number": 10, "value": 80}, "group": "control_change"}, {"time": 52796, "annotation": {"number": 10, "value": 100}, "group": "control_change"}, {"time": 53037, "annotation": {"number": 10, "value": 110}, "group": "control_change"}, {"time": 53278, "annotation": {"number": 10, "value": 115}, "group": "control_change"}, {"time": 53519, "annotation": {"number": 10, "value": 110}, "group": "control_change"}, {"time": 53760, "annotation": {"number": 10, "value": 100}, "group": "control_change"}, {"time": 54001, "annotation": {"number": 10, "value": 80}, "group": "control_change"}, {"time": 54242, "annotation": {"number": 10, "value": 60}, "group": "control_change"}, {"time": 54479, "annotation": {"number": 10, "value": 40}, "group": "control_change"}, {"time": 54716, "annotation": {"number": 10, "value": 20}, "group": "control_change"}, {"time": 54957, "annotation": {"number": 10, "value": 10}, "group": "control_change"}, {"time": 55198, "annotation": {"number": 10, "value": 5}, "group": "control_change"}, {"time": 55439, "annotation": {"number": 10, "value": 10}, "group": "control_change"}, {"time": 55680, "annotation": {"number": 10, "value": 20}, "group": "control_change"}, {"time": 55921, "annotation": {"number": 10, "value": 40}, "group": "control_change"}, {"time": 56162, "annotation": {"number": 10, "value": 60}, "group": "control_change"}, {"time": 56399, "annotation": {"number": 10, "value": 80}, "group": "control_change"}, {"time": 56636, "annotation": {"number": 10, "value": 100}, "group": "control_change"}, {"time": 56877, "annotation": {"number": 10, "value": 110}, "group": "control_change"}, {"time": 57118, "annotation": {"number": 10, "value": 115}, "group": "control_change"}, {"time": 57359, "annotation": {"number": 10, "value": 110}, "group": "control_change"}, {"time": 57600, "annotation": {"number": 10, "value": 100}, "group": "control_change"}, {"time": 57841, "annotation": {"number": 10, "value": 80}, "group": "control_change"}, {"time": 58082, "annotation": {"number": 10, "value": 60}, "group": "control_change"}, {"time": 58319, "annotation": {"number": 10, "value": 40}, "group": "control_change"}, {"time": 58556, "annotation": {"number": 10, "value": 20}, "group": "control_change"}, {"time": 58797, "annotation": {"number": 10, "value": 10}, "group": "control_change"}, {"time": 59038, "annotation": {"number": 10, "value": 5}, "group": "control_change"}, {"time": 59279, "annotation": {"number": 10, "value": 10}, "group": "control_change"}, {"time": 59520, "annotation": {"number": 10, "value": 20}, "group": "control_change"}, {"time": 59761, "annotation": {"number": 10, "value": 40}, "group": "control_change"}, {"time": 77283, "annotation": {"number": 10, "value": 60}, "group": "control_change"}, {"time": 77520, "annotation": {"number": 10, "value": 40}, "group": "control_change"}, {"time": 77757, "annotation": {"number": 10, "value": 20}, "group": "control_change"}, {"time": 77998, "annotation": {"number": 10, "value": 10}, "group": "control_change"}, {"time": 78239, "annotation": {"number": 10, "value": 5}, "group": "control_change"}, {"time": 78480, "annotation": {"number": 10, "value": 10}, "group": "control_change"}, {"time": 78721, "annotation": {"number": 10, "value": 20}, "group": "control_change"}, {"time": 78962, "annotation": {"number": 10, "value": 40}, "group": "control_change"}, {"time": 79203, "annotation": {"number": 10, "value": 60}, "group": "control_change"}, {"time": 79440, "annotation": {"number": 10, "value": 80}, "group": "control_change"}, {"time": 79677, "annotation": {"number": 10, "value": 100}, "group": "control_change"}, {"time": 79918, "annotation": {"number": 10, "value": 110}, "group": "control_change"}, {"time": 80159, "annotation": {"number": 10, "value": 115}, "group": "control_change"}, {"time": 80400, "annotation": {"number": 10, "value": 110}, "group": "control_change"}, {"time": 80641, "annotation": {"number": 10, "value": 100}, "group": "control_change"}, {"time": 80882, "annotation": {"number": 10, "value": 80}, "group": "control_change"}, {"time": 81123, "annotation": {"number": 10, "value": 60}, "group": "control_change"}, {"time": 81360, "annotation": {"number": 10, "value": 40}, "group": "control_change"}, {"time": 81597, "annotation": {"number": 10, "value": 20}, "group": "control_change"}, {"time": 81838, "annotation": {"number": 10, "value": 10}, "group": "control_change"}, {"time": 82079, "annotation": {"number": 10, "value": 5}, "group": "control_change"}, {"time": 82320, "annotation": {"number": 10, "value": 10}, "group": "control_change"}, {"time": 82561, "annotation": {"number": 10, "value": 20}, "group": "control_change"}, {"time": 82802, "annotation": {"number": 10, "value": 40}, "group": "control_change"}, {"time": 83043, "annotation": {"number": 10, "value": 60}, "group": "control_change"}, {"time": 83280, "annotation": {"number": 10, "value": 80}, "group": "control_change"}, {"time": 83517, "annotation": {"number": 10, "value": 100}, "group": "control_change"}, {"time": 83758, "annotation": {"number": 10, "value": 110}, "group": "control_change"}, {"time": 83999, "annotation": {"number": 10, "value": 115}, "group": "control_change"}, {"time": 84240, "annotation": {"number": 10, "value": 110}, "group": "control_change"}, {"time": 84481, "annotation": {"number": 10, "value": 100}, "group": "control_change"}, {"time": 84723, "annotation": {"number": 10, "value": 80}, "group": "control_change"}, {"time": 84964, "annotation": {"number": 10, "value": 60}, "group": "control_change"}, {"time": 85200, "annotation": {"number": 10, "value": 40}, "group": "control_change"}, {"time": 85437, "annotation": {"number": 10, "value": 20}, "group": "control_change"}, {"time": 85678, "annotation": {"number": 10, "value": 10}, "group": "control_change"}, {"time": 85919, "annotation": {"number": 10, "value": 5}, "group": "control_change"}, {"time": 86161, "annotation": {"number": 10, "value": 10}, "group": "control_change"}, {"time": 86402, "annotation": {"number": 10, "value": 20}, "group": "control_change"}, {"time": 86643, "annotation": {"number": 10, "value": 40}, "group": "control_change"}, {"time": 86884, "annotation": {"number": 10, "value": 60}, "group": "control_change"}, {"time": 87121, "annotation": {"number": 10, "value": 80}, "group": "control_change"}, {"time": 87358, "annotation": {"number": 10, "value": 100}, "group": "control_change"}, {"time": 87599, "annotation": {"number": 10, "value": 110}, "group": "control_change"}, {"time": 87840, "annotation": {"number": 10, "value": 115}, "group": "control_change"}, {"time": 88081, "annotation": {"number": 10, "value": 110}, "group": "control_change"}, {"time": 88322, "annotation": {"number": 10, "value": 100}, "group": "control_change"}, {"time": 88563, "annotation": {"number": 10, "value": 80}, "group": "control_change"}, {"time": 88804, "annotation": {"number": 10, "value": 60}, "group": "control_change"}, {"time": 89041, "annotation": {"number": 10, "value": 40}, "group": "control_change"}, {"time": 89278, "annotation": {"number": 10, "value": 20}, "group": "control_change"}, {"time": 89519, "annotation": {"number": 10, "value": 10}, "group": "control_change"}, {"time": 89760, "annotation": {"number": 10, "value": 5}, "group": "control_change"}, {"time": 90001, "annotation": {"number": 10, "value": 10}, "group": "control_change"}, {"time": 90242, "annotation": {"number": 10, "value": 20}, "group": "control_change"}, {"time": 90483, "annotation": {"number": 10, "value": 40}, "group": "control_change"}, {"time": 90724, "annotation": {"number": 10, "value": 60}, "group": "control_change"}, {"time": 90961, "annotation": {"number": 10, "value": 80}, "group": "control_change"}, {"time": 91198, "annotation": {"number": 10, "value": 100}, "group": "control_change"}, {"time": 91439, "annotation": {"number": 10, "value": 110}, "group": "control_change"}, {"time": 91680, "annotation": {"number": 10, "value": 115}, "group": "control_change"}, {"time": 91921, "annotation": {"number": 10, "value": 110}, "group": "control_change"}, {"time": 92162, "annotation": {"number": 10, "value": 100}, "group": "control_change"}, {"time": 92403, "annotation": {"number": 10, "value": 80}, "group": "control_change"}, {"time": 92644, "annotation": {"number": 10, "value": 60}, "group": "control_change"}, {"time": 92881, "annotation": {"number": 10, "value": 40}, "group": "control_change"}, {"time": 93118, "annotation": {"number": 10, "value": 20}, "group": "control_change"}, {"time": 93359, "annotation": {"number": 10, "value": 10}, "group": "control_change"}, {"time": 93600, "annotation": {"number": 10, "value": 5}, "group": "control_change"}, {"time": 93841, "annotation": {"number": 10, "value": 10}, "group": "control_change"}, {"time": 94082, "annotation": {"number": 10, "value": 20}, "group": "control_change"}, {"time": 94323, "annotation": {"number": 10, "value": 40}, "group": "control_change"}, {"time": 94564, "annotation": {"number": 10, "value": 60}, "group": "control_change"}, {"time": 94801, "annotation": {"number": 10, "value": 80}, "group": "control_change"}, {"time": 95038, "annotation": {"number": 10, "value": 100}, "group": "control_change"}, {"time": 95279, "annotation": {"number": 10, "value": 110}, "group": "control_change"}, {"time": 95520, "annotation": {"number": 10, "value": 115}, "group": "control_change"}, {"time": 95761, "annotation": {"number": 10, "value": 110}, "group": "control_change"}, {"time": 96002, "annotation": {"number": 10, "value": 100}, "group": "control_change"}, {"time": 96243, "annotation": {"number": 10, "value": 80}, "group": "control_change"}, {"time": 96484, "annotation": {"number": 10, "value": 60}, "group": "control_change"}, {"time": 96721, "annotation": {"number": 10, "value": 40}, "group": "control_change"}, {"time": 96958, "annotation": {"number": 10, "value": 20}, "group": "control_change"}, {"time": 97199, "annotation": {"number": 10, "value": 10}, "group": "control_change"}, {"time": 97440, "annotation": {"number": 10, "value": 5}, "group": "control_change"}, {"time": 97681, "annotation": {"number": 10, "value": 10}, "group": "control_change"}, {"time": 97922, "annotation": {"number": 10, "value": 20}, "group": "control_change"}, {"time": 98163, "annotation": {"number": 10, "value": 40}, "group": "control_change"}, {"time": 98404, "annotation": {"number": 10, "value": 60}, "group": "control_change"}, {"time": 98641, "annotation": {"number": 10, "value": 80}, "group": "control_change"}, {"time": 98878, "annotation": {"number": 10, "value": 100}, "group": "control_change"}, {"time": 99119, "annotation": {"number": 10, "value": 110}, "group": "control_change"}, {"time": 99360, "annotation": {"number": 10, "value": 115}, "group": "control_change"}, {"time": 99601, "annotation": {"number": 10, "value": 110}, "group": "control_change"}, {"time": 99842, "annotation": {"number": 10, "value": 100}, "group": "control_change"}, {"time": 100079, "annotation": {"number": 10, "value": 80}, "group": "control_change"}, {"time": 100316, "annotation": {"number": 10, "value": 60}, "group": "control_change"}, {"time": 100557, "annotation": {"number": 10, "value": 40}, "group": "control_change"}, {"time": 100798, "annotation": {"number": 10, "value": 20}, "group": "control_change"}, {"time": 101039, "annotation": {"number": 10, "value": 10}, "group": "control_change"}, {"time": 101280, "annotation": {"number": 10, "value": 5}, "group": "control_change"}, {"time": 101521, "annotation": {"number": 10, "value": 10}, "group": "control_change"}, {"time": 101762, "annotation": {"number": 10, "value": 20}, "group": "control_change"}, {"time": 101999, "annotation": {"number": 10, "value": 40}, "group": "control_change"}, {"time": 102236, "annotation": {"number": 10, "value": 60}, "group": "control_change"}, {"time": 102477, "annotation": {"number": 10, "value": 80}, "group": "control_change"}, {"time": 102718, "annotation": {"number": 10, "value": 100}, "group": "control_change"}, {"time": 102959, "annotation": {"number": 10, "value": 110}, "group": "control_change"}, {"time": 103200, "annotation": {"number": 10, "value": 115}, "group": "control_change"}, {"time": 103441, "annotation": {"number": 10, "value": 110}, "group": "control_change"}, {"time": 103682, "annotation": {"number": 10, "value": 100}, "group": "control_change"}, {"time": 103919, "annotation": {"number": 10, "value": 80}, "group": "control_change"}, {"time": 104156, "annotation": {"number": 10, "value": 60}, "group": "control_change"}, {"time": 104397, "annotation": {"number": 10, "value": 40}, "group": "control_change"}, {"time": 104638, "annotation": {"number": 10, "value": 20}, "group": "control_change"}, {"time": 104879, "annotation": {"number": 10, "value": 10}, "group": "control_change"}, {"time": 105120, "annotation": {"number": 10, "value": 5}, "group": "control_change"}, {"time": 105361, "annotation": {"number": 10, "value": 10}, "group": "control_change"}, {"time": 105602, "annotation": {"number": 10, "value": 20}, "group": "control_change"}, {"time": 105839, "annotation": {"number": 10, "value": 40}, "group": "control_change"}, {"time": 106076, "annotation": {"number": 10, "value": 60}, "group": "control_change"}, {"time": 106317, "annotation": {"number": 10, "value": 80}, "group": "control_change"}, {"time": 106558, "annotation": {"number": 10, "value": 100}, "group": "control_change"}, {"time": 106799, "annotation": {"number": 10, "value": 110}, "group": "control_change"}, {"time": 107040, "annotation": {"number": 10, "value": 115}, "group": "control_change"}, {"time": 107281, "annotation": {"number": 10, "value": 110}, "group": "control_change"}, {"time": 107522, "annotation": {"number": 10, "value": 100}, "group": "control_change"}, {"time": 107759, "annotation": {"number": 10, "value": 80}, "group": "control_change"}, {"time": 107996, "annotation": {"number": 10, "value": 60}, "group": "control_change"}, {"time": 108237, "annotation": {"number": 10, "value": 40}, "group": "control_change"}, {"time": 108478, "annotation": {"number": 10, "value": 20}, "group": "control_change"}, {"time": 108719, "annotation": {"number": 10, "value": 10}, "group": "control_change"}, {"time": 108960, "annotation": {"number": 10, "value": 5}, "group": "control_change"}, {"time": 109201, "annotation": {"number": 10, "value": 10}, "group": "control_change"}, {"time": 109442, "annotation": {"number": 10, "value": 20}, "group": "control_change"}, {"time": 109679, "annotation": {"number": 10, "value": 40}, "group": "control_change"}, {"time": 109916, "annotation": {"number": 10, "value": 60}, "group": "control_change"}, {"time": 110157, "annotation": {"number": 10, "value": 80}, "group": "control_change"}, {"time": 110398, "annotation": {"number": 10, "value": 100}, "group": "control_change"}, {"time": 110639, "annotation": {"number": 10, "value": 110}, "group": "control_change"}, {"time": 110881, "annotation": {"number": 10, "value": 115}, "group": "control_change"}, {"time": 111122, "annotation": {"number": 10, "value": 110}, "group": "control_change"}, {"time": 111363, "annotation": {"number": 10, "value": 100}, "group": "control_change"}, {"time": 111600, "annotation": {"number": 10, "value": 80}, "group": "control_change"}, {"time": 111836, "annotation": {"number": 10, "value": 60}, "group": "control_change"}, {"time": 112077, "annotation": {"number": 10, "value": 40}, "group": "control_change"}, {"time": 112319, "annotation": {"number": 10, "value": 20}, "group": "control_change"}, {"time": 112560, "annotation": {"number": 10, "value": 10}, "group": "control_change"}, {"time": 112801, "annotation": {"number": 10, "value": 5}, "group": "control_change"}, {"time": 113042, "annotation": {"number": 10, "value": 10}, "group": "control_change"}, {"time": 113283, "annotation": {"number": 10, "value": 20}, "group": "control_change"}, {"time": 113520, "annotation": {"number": 10, "value": 40}, "group": "control_change"}, {"time": 192480, "annotation": {"number": 10, "value": 60}, "group": "control_change"}, {"time": 192721, "annotation": {"number": 10, "value": 80}, "group": "control_change"}, {"time": 192962, "annotation": {"number": 10, "value": 100}, "group": "control_change"}, {"time": 193203, "annotation": {"number": 10, "value": 110}, "group": "control_change"}, {"time": 193444, "annotation": {"number": 10, "value": 115}, "group": "control_change"}, {"time": 193681, "annotation": {"number": 10, "value": 110}, "group": "control_change"}, {"time": 193918, "annotation": {"number": 10, "value": 100}, "group": "control_change"}, {"time": 194159, "annotation": {"number": 10, "value": 80}, "group": "control_change"}, {"time": 194400, "annotation": {"number": 10, "value": 60}, "group": "control_change"}, {"time": 194641, "annotation": {"number": 10, "value": 40}, "group": "control_change"}, {"time": 194882, "annotation": {"number": 10, "value": 20}, "group": "control_change"}, {"time": 195123, "annotation": {"number": 10, "value": 10}, "group": "control_change"}, {"time": 195364, "annotation": {"number": 10, "value": 5}, "group": "control_change"}, {"time": 195601, "annotation": {"number": 10, "value": 10}, "group": "control_change"}, {"time": 195838, "annotation": {"number": 10, "value": 20}, "group": "control_change"}, {"time": 196079, "annotation": {"number": 10, "value": 40}, "group": "control_change"}, {"time": 196320, "annotation": {"number": 10, "value": 60}, "group": "control_change"}, {"time": 196561, "annotation": {"number": 10, "value": 80}, "group": "control_change"}, {"time": 196802, "annotation": {"number": 10, "value": 100}, "group": "control_change"}, {"time": 197043, "annotation": {"number": 10, "value": 110}, "group": "control_change"}, {"time": 197284, "annotation": {"number": 10, "value": 115}, "group": "control_change"}, {"time": 197521, "annotation": {"number": 10, "value": 110}, "group": "control_change"}, {"time": 197758, "annotation": {"number": 10, "value": 100}, "group": "control_change"}, {"time": 197999, "annotation": {"number": 10, "value": 80}, "group": "control_change"}, {"time": 198240, "annotation": {"number": 10, "value": 60}, "group": "control_change"}, {"time": 198481, "annotation": {"number": 10, "value": 40}, "group": "control_change"}, {"time": 198722, "annotation": {"number": 10, "value": 20}, "group": "control_change"}, {"time": 198959, "annotation": {"number": 10, "value": 10}, "group": "control_change"}, {"time": 199196, "annotation": {"number": 10, "value": 5}, "group": "control_change"}, {"time": 199437, "annotation": {"number": 10, "value": 10}, "group": "control_change"}, {"time": 199678, "annotation": {"number": 10, "value": 20}, "group": "control_change"}, {"time": 199919, "annotation": {"number": 10, "value": 40}, "group": "control_change"}, {"time": 200160, "annotation": {"number": 10, "value": 60}, "group": "control_change"}, {"time": 200401, "annotation": {"number": 10, "value": 80}, "group": "control_change"}, {"time": 200642, "annotation": {"number": 10, "value": 100}, "group": "control_change"}, {"time": 200879, "annotation": {"number": 10, "value": 110}, "group": "control_change"}, {"time": 201116, "annotation": {"number": 10, "value": 115}, "group": "control_change"}, {"time": 201357, "annotation": {"number": 10, "value": 110}, "group": "control_change"}, {"time": 201598, "annotation": {"number": 10, "value": 100}, "group": "control_change"}, {"time": 201839, "annotation": {"number": 10, "value": 80}, "group": "control_change"}, {"time": 202080, "annotation": {"number": 10, "value": 60}, "group": "control_change"}, {"time": 202321, "annotation": {"number": 10, "value": 40}, "group": "control_change"}, {"time": 202562, "annotation": {"number": 10, "value": 20}, "group": "control_change"}, {"time": 202799, "annotation": {"number": 10, "value": 10}, "group": "control_change"}, {"time": 203036, "annotation": {"number": 10, "value": 5}, "group": "control_change"}, {"time": 203277, "annotation": {"number": 10, "value": 10}, "group": "control_change"}, {"time": 203518, "annotation": {"number": 10, "value": 20}, "group": "control_change"}, {"time": 203759, "annotation": {"number": 10, "value": 40}, "group": "control_change"}, {"time": 204000, "annotation": {"number": 10, "value": 60}, "group": "control_change"}, {"time": 204241, "annotation": {"number": 10, "value": 80}, "group": "control_change"}, {"time": 204482, "annotation": {"number": 10, "value": 100}, "group": "control_change"}, {"time": 204719, "annotation": {"number": 10, "value": 110}, "group": "control_change"}, {"time": 204956, "annotation": {"number": 10, "value": 115}, "group": "control_change"}, {"time": 205197, "annotation": {"number": 10, "value": 110}, "group": "control_change"}, {"time": 205438, "annotation": {"number": 10, "value": 100}, "group": "control_change"}, {"time": 205679, "annotation": {"number": 10, "value": 80}, "group": "control_change"}, {"time": 205920, "annotation": {"number": 10, "value": 60}, "group": "control_change"}, {"time": 206161, "annotation": {"number": 10, "value": 40}, "group": "control_change"}, {"time": 206402, "annotation": {"number": 10, "value": 20}, "group": "control_change"}, {"time": 206639, "annotation": {"number": 10, "value": 10}, "group": "control_change"}, {"time": 206876, "annotation": {"number": 10, "value": 5}, "group": "control_change"}, {"time": 207117, "annotation": {"number": 10, "value": 10}, "group": "control_change"}, {"time": 207358, "annotation": {"number": 10, "value": 20}, "group": "control_change"}, {"time": 207599, "annotation": {"number": 10, "value": 40}, "group": "control_change"}]}, {"program": 0, "is_drum": false, "name": "HIT", "annotations": [{"time": 230, "annotation": {"number": 0, "value": 0}, "group": "control_change"}, {"time": 250, "annotation": {"number": 32, "value": 0}, "group": "control_change"}]}, {"program": 55, "is_drum": false, "name": "HIT", "notes": [{"time": 60002, "pitch": 62, "duration": 50, "velocity": 110}, {"time": 60002, "pitch": 74, "duration": 326, "velocity": 120}, {"time": 60476, "pitch": 61, "duration": 51, "velocity": 105}, {"time": 60476, "pitch": 73, "duration": 332, "velocity": 114}, {"time": 60958, "pitch": 60, "duration": 51, "velocity": 110}, {"time": 60958, "pitch": 72, "duration": 362, "velocity": 120}, {"time": 61441, "pitch": 59, "duration": 50, "velocity": 110}, {"time": 61441, "pitch": 71, "duration": 301, "velocity": 120}, {"time": 61923, "pitch": 64, "duration": 49, "velocity": 94}, {"time": 61923, "pitch": 76, "duration": 544, "velocity": 107}, {"time": 69362, "pitch": 59, "duration": 40, "velocity": 70}, {"time": 69362, "pitch": 71, "duration": 141, "velocity": 90}, {"time": 69503, "pitch": 62, "duration": 40, "velocity": 70}, {"time": 69503, "pitch": 74, "duration": 90, "velocity": 95}, {"time": 69603, "pitch": 64, "duration": 49, "velocity": 94}, {"time": 69603, "pitch": 76, "duration": 544, "velocity": 107}, {"time": 75363, "pitch": 62, "duration": 69, "velocity": 87}, {"time": 75363, "pitch": 74, "duration": 198, "velocity": 70}, {"time": 113757, "pitch": 62, "duration": 50, "velocity": 110}, {"time": 113757, "pitch": 74, "duration": 331, "velocity": 120}, {"time": 114239, "pitch": 61, "duration": 50, "velocity": 105}, {"time": 114239, "pitch": 73, "duration": 331, "velocity": 114}, {"time": 114721, "pitch": 60, "duration": 50, "velocity": 110}, {"time": 114721, "pitch": 72, "duration": 361, "velocity": 120}, {"time": 115203, "pitch": 59, "duration": 49, "velocity": 110}, {"time": 115203, "pitch": 71, "duration": 296, "velocity": 120}, {"time": 115677, "pitch": 64, "duration": 50, "velocity": 94}, {"time": 115677, "pitch": 76, "duration": 552, "velocity": 107}, {"time": 123120, "pitch": 59, "duration": 39, "velocity": 70}, {"time": 123120, "pitch": 71, "duration": 138, "velocity": 90}, {"time": 123258, "pitch": 62, "duration": 40, "velocity": 70}, {"time": 123258, "pitch": 74, "duration": 89, "velocity": 95}, {"time": 123357, "pitch": 64, "duration": 50, "velocity": 94}, {"time": 123357, "pitch": 76, "duration": 552, "velocity": 107}, {"time": 129117, "pitch": 62, "duration": 70, "velocity": 87}, {"time": 129117, "pitch": 74, "duration": 201, "velocity": 70}, {"time": 159838, "pitch": 62, "duration": 51, "velocity": 110}, {"time": 159838, "pitch": 74, "duration": 332, "velocity": 120}, {"time": 160320, "pitch": 61, "duration": 51, "velocity": 105}, {"time": 160320, "pitch": 73, "duration": 332, "velocity": 114}, {"time": 160803, "pitch": 60, "duration": 49, "velocity": 110}, {"time": 160803, "pitch": 72, "duration": 355, "velocity": 120}, {"time": 161276, "pitch": 59, "duration": 51, "velocity": 110}, {"time": 161276, "pitch": 71, "duration": 302, "velocity": 120}, {"time": 161758, "pitch": 64, "duration": 51, "velocity": 94}, {"time": 161758, "pitch": 76, "duration": 553, "velocity": 107}, {"time": 169198, "pitch": 59, "duration": 40, "velocity": 70}, {"time": 169198, "pitch": 71, "duration": 140, "velocity": 90}, {"time": 169338, "pitch": 62, "duration": 41, "velocity": 70}, {"time": 169338, "pitch": 74, "duration": 91, "velocity": 95}, {"time": 169439, "pitch": 64, "duration": 50, "velocity": 94}, {"time": 169439, "pitch": 76, "duration": 552, "velocity": 107}, {"time": 176878, "pitch": 59, "duration": 40, "velocity": 70}, {"time": 176878, "pitch": 71, "duration": 141, "velocity": 90}, {"time": 177019, "pitch": 62, "duration": 40, "velocity": 70}, {"time": 177019, "pitch": 74, "duration": 90, "velocity": 95}, {"time": 177119, "pitch": 64, "duration": 50, "velocity": 94}, {"time": 177119, "pitch": 76, "duration": 553, "velocity": 107}, {"time": 184558, "pitch": 59, "duration": 41, "velocity": 70}, {"time": 184558, "pitch": 71, "duration": 141, "velocity": 90}, {"time": 184699, "pitch": 62, "duration": 40, "velocity": 70}, {"time": 184699, "pitch": 74, "duration": 90, "velocity": 95}, {"time": 184799, "pitch": 64, "duration": 51, "velocity": 94}, {"time": 184799, "pitch": 76, "duration": 553, "velocity": 107}, {"time": 190560, "pitch": 62, "duration": 70, "velocity": 87}, {"time": 190560, "pitch": 74, "duration": 201, "velocity": 70}], "annotations": [{"time": 292, "annotation": {"number": 7, "value": 80}, "group": "control_change"}, {"time": 313, "annotation": {"number": 11, "value": 100}, "group": "control_change"}, {"time": 334, "annotation": {"number": 10, "value": 62}, "group": "control_change"}, {"time": 355, "annotation": {"number": 91, "value": 40}, "group": "control_change"}, {"time": 376, "annotation": {"number": 93, "value": 0}, "group": "control_change"}, {"time": 397, "annotation": {"number": 101, "value": 0}, "group": "control_change"}, {"time": 417, "annotation": {"number": 100, "value": 0}, "group": "control_change"}, {"time": 438, "annotation": {"number": 6, "value": 12}, "group": "control_change"}, {"time": 459, "annotation": {"number": 101, "value": 127}, "group": "control_change"}, {"time": 480, "annotation": {"number": 100, "value": 127}, "group": "control_change"}]}, {"program": 0, "is_drum": false, "name": "VOICE", "annotations": [{"time": 230, "annotation": {"number": 0, "value": 0}, "group": "control_change"}, {"time": 250, "annotation": {"number": 32, "value": 0}, "group": "control_change"}]}, {"program": 85, "is_drum": false, "name": "VOICE", "notes": [{"time": 60958, "pitch": 74, "duration": 965, "velocity": 50}, {"time": 60958, "pitch": 78, "duration": 965, "velocity": 60}, {"time": 68639, "pitch": 74, "duration": 964, "velocity": 50}, {"time": 68639, "pitch": 78, "duration": 964, "velocity": 60}, {"time": 114721, "pitch": 74, "duration": 956, "velocity": 50}, {"time": 114721, "pitch": 78, "duration": 956, "velocity": 60}, {"time": 122401, "pitch": 74, "duration": 956, "velocity": 50}, {"time": 122401, "pitch": 78, "duration": 956, "velocity": 60}, {"time": 131037, "pitch": 64, "duration": 482, "velocity": 75}, {"time": 134877, "pitch": 64, "duration": 482, "velocity": 75}, {"time": 138718, "pitch": 64, "duration": 482, "velocity": 75}, {"time": 142558, "pitch": 64, "duration": 482, "velocity": 75}, {"time": 160803, "pitch": 74, "duration": 955, "velocity": 50}, {"time": 160803, "pitch": 78, "duration": 955, "velocity": 60}, {"time": 168483, "pitch": 74, "duration": 956, "velocity": 50}, {"time": 168483, "pitch": 78, "duration": 956, "velocity": 60}, {"time": 183843, "pitch": 74, "duration": 956, "velocity": 50}, {"time": 183843, "pitch": 78, "duration": 956, "velocity": 60}, {"time": 206876, "pitch": 74, "duration": 964, "velocity": 50}, {"time": 206876, "pitch": 78, "duration": 964, "velocity": 60}], "annotations": [{"time": 292, "annotation": {"number": 7, "value": 60}, "group": "control_change"}, {"time": 313, "annotation": {"number": 11, "value": 100}, "group": "control_change"}, {"time": 334, "annotation": {"number": 10, "value": 57}, "group": "control_change"}, {"time": 355, "annotation": {"number": 91, "value": 40}, "group": "control_change"}, {"time": 376, "annotation": {"number": 93, "value": 0}, "group": "control_change"}, {"time": 397, "annotation": {"number": 101, "value": 0}, "group": "control_change"}, {"time": 417, "annotation": {"number": 100, "value": 0}, "group": "control_change"}, {"time": 438, "annotation": {"number": 6, "value": 12}, "group": "control_change"}, {"time": 459, "annotation": {"number": 101, "value": 127}, "group": "control_change"}, {"time": 480, "annotation": {"number": 100, "value": 127}, "group": "control_change"}]}, {"program": 0, "is_drum": true, "name": "DRUMS 1", "annotations": [{"time": 230, "annotation": {"number": 0, "value": 0}, "group": "control_change"}, {"time": 250, "annotation": {"number": 32, "value": 0}, "group": "control_change"}]}, {"program": 25, "is_drum": true, "name": "DRUMS 1", "notes": [{"time": 2159, "pitch": 80, "duration": 10, "velocity": 76}, {"time": 2300, "pitch": 80, "duration": 10, "velocity": 90}, {"time": 4079, "pitch": 80, "duration": 10, "velocity": 86}, {"time": 4220, "pitch": 80, "duration": 10, "velocity": 100}, {"time": 5999, "pitch": 80, "duration": 10, "velocity": 86}, {"time": 6140, "pitch": 80, "duration": 10, "velocity": 100}, {"time": 7337, "pitch": 80, "duration": 10, "velocity": 30}, {"time": 7437, "pitch": 81, "duration": 10, "velocity": 87}, {"time": 7578, "pitch": 80, "duration": 10, "velocity": 87}, {"time": 7919, "pitch": 80, "duration": 10, "velocity": 86}, {"time": 8060, "pitch": 80, "duration": 10, "velocity": 100}, {"time": 9839, "pitch": 80, "duration": 10, "velocity": 86}, {"time": 9980, "pitch": 80, "duration": 10, "velocity": 100}, {"time": 11760, "pitch": 80, "duration": 10, "velocity": 86}, {"time": 11900, "pitch": 80, "duration": 10, "velocity": 100}, {"time": 13680, "pitch": 80, "duration": 10, "velocity": 86}, {"time": 13820, "pitch": 80, "duration": 10, "velocity": 100}, {"time": 15017, "pitch": 80, "duration": 10, "velocity": 30}, {"time": 15118, "pitch": 81, "duration": 10, "velocity": 87}, {"time": 15258, "pitch": 80, "duration": 10, "velocity": 87}, {"time": 15359, "pitch": 40, "duration": 20, "velocity": 110}, {"time": 15359, "pitch": 42, "duration": 10, "velocity": 84}, {"time": 15489, "pitch": 40, "duration": 10, "velocity": 125}, {"time": 15600, "pitch": 29, "duration": 40, "velocity": 60}, {"time": 15600, "pitch": 35, "duration": 30, "velocity": 124}, {"time": 15600, "pitch": 42, "duration": 20, "velocity": 89}, {"time": 15600, "pitch": 80, "duration": 10, "velocity": 86}, {"time": 15740, "pitch": 30, "duration": 30, "velocity": 60}, {"time": 15740, "pitch": 40, "duration": 20, "velocity": 60}, {"time": 15740, "pitch": 80, "duration": 10, "velocity": 100}, {"time": 15841, "pitch": 35, "duration": 20, "velocity": 120}, {"time": 15841, "pitch": 42, "duration": 10, "velocity": 89}, {"time": 16082, "pitch": 42, "duration": 10, "velocity": 66}, {"time": 16323, "pitch": 40, "duration": 20, "velocity": 120}, {"time": 16323, "pitch": 42, "duration": 10, "velocity": 89}, {"time": 16560, "pitch": 42, "duration": 10, "velocity": 84}, {"time": 16698, "pitch": 35, "duration": 10, "velocity": 110}, {"time": 16797, "pitch": 35, "duration": 20, "velocity": 118}, {"time": 16797, "pitch": 42, "duration": 10, "velocity": 89}, {"time": 17038, "pitch": 35, "duration": 20, "velocity": 124}, {"time": 17038, "pitch": 42, "duration": 10, "velocity": 76}, {"time": 17279, "pitch": 40, "duration": 20, "velocity": 125}, {"time": 17279, "pitch": 42, "duration": 10, "velocity": 84}, {"time": 17520, "pitch": 42, "duration": 20, "velocity": 89}, {"time": 17520, "pitch": 80, "duration": 10, "velocity": 86}, {"time": 17660, "pitch": 80, "duration": 10, "velocity": 100}, {"time": 17761, "pitch": 35, "duration": 20, "velocity": 114}, {"time": 17761, "pitch": 42, "duration": 10, "velocity": 91}, {"time": 18002, "pitch": 42, "duration": 10, "velocity": 76}, {"time": 18243, "pitch": 40, "duration": 20, "velocity": 120}, {"time": 18243, "pitch": 42, "duration": 10, "velocity": 91}, {"time": 18480, "pitch": 42, "duration": 10, "velocity": 93}, {"time": 18618, "pitch": 35, "duration": 10, "velocity": 114}, {"time": 18717, "pitch": 42, "duration": 10, "velocity": 89}, {"time": 18857, "pitch": 80, "duration": 10, "velocity": 30}, {"time": 18958, "pitch": 35, "duration": 30, "velocity": 118}, {"time": 18958, "pitch": 42, "duration": 20, "velocity": 89}, {"time": 18958, "pitch": 81, "duration": 10, "velocity": 87}, {"time": 19098, "pitch": 80, "duration": 10, "velocity": 87}, {"time": 19199, "pitch": 40, "duration": 20, "velocity": 122}, {"time": 19199, "pitch": 42, "duration": 10, "velocity": 91}, {"time": 19440, "pitch": 29, "duration": 20, "velocity": 60}, {"time": 19440, "pitch": 42, "duration": 10, "velocity": 93}, {"time": 19580, "pitch": 30, "duration": 10, "velocity": 60}, {"time": 19681, "pitch": 35, "duration": 20, "velocity": 120}, {"time": 19681, "pitch": 42, "duration": 10, "velocity": 89}, {"time": 19922, "pitch": 42, "duration": 10, "velocity": 66}, {"time": 20163, "pitch": 40, "duration": 20, "velocity": 120}, {"time": 20163, "pitch": 42, "duration": 10, "velocity": 89}, {"time": 20400, "pitch": 42, "duration": 10, "velocity": 84}, {"time": 20538, "pitch": 35, "duration": 10, "velocity": 110}, {"time": 20637, "pitch": 35, "duration": 20, "velocity": 118}, {"time": 20637, "pitch": 42, "duration": 10, "velocity": 89}, {"time": 20878, "pitch": 35, "duration": 20, "velocity": 124}, {"time": 20878, "pitch": 42, "duration": 10, "velocity": 76}, {"time": 21119, "pitch": 40, "duration": 20, "velocity": 125}, {"time": 21119, "pitch": 42, "duration": 10, "velocity": 84}, {"time": 21360, "pitch": 42, "duration": 20, "velocity": 89}, {"time": 21360, "pitch": 80, "duration": 10, "velocity": 86}, {"time": 21501, "pitch": 80, "duration": 10, "velocity": 100}, {"time": 21601, "pitch": 35, "duration": 20, "velocity": 114}, {"time": 21601, "pitch": 42, "duration": 10, "velocity": 91}, {"time": 21842, "pitch": 42, "duration": 10, "velocity": 76}, {"time": 22083, "pitch": 40, "duration": 20, "velocity": 120}, {"time": 22083, "pitch": 42, "duration": 10, "velocity": 91}, {"time": 22320, "pitch": 42, "duration": 10, "velocity": 93}, {"time": 22458, "pitch": 35, "duration": 10, "velocity": 114}, {"time": 22557, "pitch": 42, "duration": 10, "velocity": 89}, {"time": 22697, "pitch": 80, "duration": 11, "velocity": 30}, {"time": 22798, "pitch": 35, "duration": 30, "velocity": 118}, {"time": 22798, "pitch": 42, "duration": 20, "velocity": 89}, {"time": 22798, "pitch": 81, "duration": 10, "velocity": 87}, {"time": 22939, "pitch": 80, "duration": 10, "velocity": 87}, {"time": 23039, "pitch": 29, "duration": 30, "velocity": 60}, {"time": 23039, "pitch": 40, "duration": 20, "velocity": 122}, {"time": 23039, "pitch": 42, "duration": 10, "velocity": 91}, {"time": 23180, "pitch": 30, "duration": 10, "velocity": 60}, {"time": 23280, "pitch": 29, "duration": 20, "velocity": 60}, {"time": 23280, "pitch": 42, "duration": 10, "velocity": 93}, {"time": 23421, "pitch": 30, "duration": 10, "velocity": 60}, {"time": 23521, "pitch": 35, "duration": 20, "velocity": 120}, {"time": 23521, "pitch": 42, "duration": 10, "velocity": 89}, {"time": 23762, "pitch": 42, "duration": 10, "velocity": 66}, {"time": 24003, "pitch": 40, "duration": 20, "velocity": 120}, {"time": 24003, "pitch": 42, "duration": 10, "velocity": 89}, {"time": 24240, "pitch": 42, "duration": 10, "velocity": 84}, {"time": 24378, "pitch": 35, "duration": 10, "velocity": 110}, {"time": 24477, "pitch": 35, "duration": 20, "velocity": 118}, {"time": 24477, "pitch": 42, "duration": 10, "velocity": 89}, {"time": 24718, "pitch": 35, "duration": 20, "velocity": 124}, {"time": 24718, "pitch": 42, "duration": 10, "velocity": 76}, {"time": 24959, "pitch": 40, "duration": 20, "velocity": 125}, {"time": 24959, "pitch": 42, "duration": 10, "velocity": 84}, {"time": 25200, "pitch": 42, "duration": 20, "velocity": 89}, {"time": 25200, "pitch": 80, "duration": 10, "velocity": 86}, {"time": 25341, "pitch": 80, "duration": 10, "velocity": 100}, {"time": 25441, "pitch": 35, "duration": 20, "velocity": 114}, {"time": 25441, "pitch": 42, "duration": 10, "velocity": 91}, {"time": 25682, "pitch": 42, "duration": 10, "velocity": 76}, {"time": 25923, "pitch": 40, "duration": 20, "velocity": 120}, {"time": 25923, "pitch": 42, "duration": 10, "velocity": 91}, {"time": 26160, "pitch": 42, "duration": 10, "velocity": 93}, {"time": 26298, "pitch": 35, "duration": 10, "velocity": 114}, {"time": 26397, "pitch": 42, "duration": 10, "velocity": 89}, {"time": 26538, "pitch": 80, "duration": 10, "velocity": 30}, {"time": 26638, "pitch": 35, "duration": 30, "velocity": 118}, {"time": 26638, "pitch": 42, "duration": 20, "velocity": 89}, {"time": 26638, "pitch": 81, "duration": 10, "velocity": 87}, {"time": 26779, "pitch": 80, "duration": 10, "velocity": 87}, {"time": 26879, "pitch": 40, "duration": 20, "velocity": 122}, {"time": 26879, "pitch": 42, "duration": 10, "velocity": 91}, {"time": 27120, "pitch": 29, "duration": 20, "velocity": 60}, {"time": 27120, "pitch": 42, "duration": 10, "velocity": 93}, {"time": 27261, "pitch": 30, "duration": 10, "velocity": 60}, {"time": 27361, "pitch": 35, "duration": 20, "velocity": 120}, {"time": 27361, "pitch": 42, "duration": 10, "velocity": 89}, {"time": 27602, "pitch": 42, "duration": 10, "velocity": 66}, {"time": 27843, "pitch": 40, "duration": 20, "velocity": 120}, {"time": 27843, "pitch": 42, "duration": 10, "velocity": 89}, {"time": 28080, "pitch": 42, "duration": 10, "velocity": 84}, {"time": 28218, "pitch": 35, "duration": 10, "velocity": 110}, {"time": 28317, "pitch": 35, "duration": 20, "velocity": 118}, {"time": 28317, "pitch": 42, "duration": 10, "velocity": 89}, {"time": 28558, "pitch": 35, "duration": 20, "velocity": 124}, {"time": 28558, "pitch": 42, "duration": 10, "velocity": 76}, {"time": 28799, "pitch": 40, "duration": 20, "velocity": 125}, {"time": 28799, "pitch": 42, "duration": 10, "velocity": 84}, {"time": 29040, "pitch": 42, "duration": 20, "velocity": 89}, {"time": 29040, "pitch": 80, "duration": 10, "velocity": 86}, {"time": 29181, "pitch": 80, "duration": 10, "velocity": 100}, {"time": 29281, "pitch": 35, "duration": 20, "velocity": 114}, {"time": 29281, "pitch": 42, "duration": 10, "velocity": 91}, {"time": 29522, "pitch": 42, "duration": 10, "velocity": 76}, {"time": 29763, "pitch": 40, "duration": 20, "velocity": 120}, {"time": 29763, "pitch": 42, "duration": 10, "velocity": 91}, {"time": 30000, "pitch": 42, "duration": 10, "velocity": 93}, {"time": 30138, "pitch": 35, "duration": 10, "velocity": 114}, {"time": 30237, "pitch": 42, "duration": 10, "velocity": 89}, {"time": 30378, "pitch": 80, "duration": 10, "velocity": 30}, {"time": 30478, "pitch": 35, "duration": 30, "velocity": 118}, {"time": 30478, "pitch": 42, "duration": 20, "velocity": 89}, {"time": 30478, "pitch": 81, "duration": 10, "velocity": 87}, {"time": 30619, "pitch": 80, "duration": 10, "velocity": 87}, {"time": 30719, "pitch": 29, "duration": 30, "velocity": 60}, {"time": 30719, "pitch": 40, "duration": 20, "velocity": 122}, {"time": 30719, "pitch": 42, "duration": 10, "velocity": 91}, {"time": 30850, "pitch": 35, "duration": 10, "velocity": 118}, {"time": 30860, "pitch": 30, "duration": 10, "velocity": 60}, {"time": 30960, "pitch": 29, "duration": 20, "velocity": 60}, {"time": 30960, "pitch": 42, "duration": 10, "velocity": 93}, {"time": 31101, "pitch": 30, "duration": 20, "velocity": 60}, {"time": 31101, "pitch": 40, "duration": 10, "velocity": 122}, {"time": 31201, "pitch": 35, "duration": 30, "velocity": 120}, {"time": 31201, "pitch": 40, "duration": 20, "velocity": 122}, {"time": 31201, "pitch": 42, "duration": 10, "velocity": 89}, {"time": 31442, "pitch": 42, "duration": 10, "velocity": 66}, {"time": 31683, "pitch": 40, "duration": 20, "velocity": 120}, {"time": 31683, "pitch": 42, "duration": 10, "velocity": 89}, {"time": 31920, "pitch": 42, "duration": 10, "velocity": 84}, {"time": 32059, "pitch": 35, "duration": 9, "velocity": 110}, {"time": 32157, "pitch": 35, "duration": 20, "velocity": 118}, {"time": 32157, "pitch": 42, "duration": 10, "velocity": 89}, {"time": 32398, "pitch": 35, "duration": 20, "velocity": 124}, {"time": 32398, "pitch": 42, "duration": 10, "velocity": 76}, {"time": 32639, "pitch": 40, "duration": 20, "velocity": 125}, {"time": 32639, "pitch": 42, "duration": 10, "velocity": 84}, {"time": 32880, "pitch": 42, "duration": 20, "velocity": 89}, {"time": 32880, "pitch": 80, "duration": 10, "velocity": 86}, {"time": 33021, "pitch": 80, "duration": 10, "velocity": 100}, {"time": 33121, "pitch": 35, "duration": 21, "velocity": 114}, {"time": 33121, "pitch": 42, "duration": 10, "velocity": 91}, {"time": 33362, "pitch": 42, "duration": 11, "velocity": 76}, {"time": 33603, "pitch": 40, "duration": 20, "velocity": 120}, {"time": 33603, "pitch": 42, "duration": 10, "velocity": 91}, {"time": 33840, "pitch": 42, "duration": 10, "velocity": 93}, {"time": 33979, "pitch": 35, "duration": 10, "velocity": 114}, {"time": 34077, "pitch": 42, "duration": 10, "velocity": 89}, {"time": 34218, "pitch": 80, "duration": 10, "velocity": 30}, {"time": 34318, "pitch": 35, "duration": 31, "velocity": 118}, {"time": 34318, "pitch": 42, "duration": 20, "velocity": 89}, {"time": 34318, "pitch": 81, "duration": 10, "velocity": 87}, {"time": 34459, "pitch": 80, "duration": 10, "velocity": 87}, {"time": 34559, "pitch": 40, "duration": 21, "velocity": 122}, {"time": 34559, "pitch": 42, "duration": 10, "velocity": 91}, {"time": 34800, "pitch": 42, "duration": 11, "velocity": 93}, {"time": 35042, "pitch": 35, "duration": 20, "velocity": 120}, {"time": 35042, "pitch": 42, "duration": 10, "velocity": 89}, {"time": 35283, "pitch": 42, "duration": 10, "velocity": 66}, {"time": 35524, "pitch": 40, "duration": 19, "velocity": 120}, {"time": 35524, "pitch": 42, "duration": 9, "velocity": 89}, {"time": 35760, "pitch": 42, "duration": 10, "velocity": 84}, {"time": 35899, "pitch": 35, "duration": 10, "velocity": 110}, {"time": 35997, "pitch": 35, "duration": 20, "velocity": 118}, {"time": 35997, "pitch": 42, "duration": 10, "velocity": 89}, {"time": 36238, "pitch": 35, "duration": 21, "velocity": 124}, {"time": 36238, "pitch": 42, "duration": 10, "velocity": 76}, {"time": 36480, "pitch": 40, "duration": 20, "velocity": 125}, {"time": 36480, "pitch": 42, "duration": 10, "velocity": 84}, {"time": 36721, "pitch": 42, "duration": 20, "velocity": 89}, {"time": 36721, "pitch": 80, "duration": 10, "velocity": 86}, {"time": 36861, "pitch": 80, "duration": 10, "velocity": 100}, {"time": 36962, "pitch": 35, "duration": 20, "velocity": 114}, {"time": 36962, "pitch": 42, "duration": 10, "velocity": 91}, {"time": 37203, "pitch": 42, "duration": 10, "velocity": 76}, {"time": 37444, "pitch": 40, "duration": 19, "velocity": 120}, {"time": 37444, "pitch": 42, "duration": 9, "velocity": 91}, {"time": 37681, "pitch": 42, "duration": 9, "velocity": 93}, {"time": 37819, "pitch": 35, "duration": 10, "velocity": 114}, {"time": 37918, "pitch": 42, "duration": 10, "velocity": 89}, {"time": 38058, "pitch": 80, "duration": 10, "velocity": 30}, {"time": 38159, "pitch": 35, "duration": 30, "velocity": 118}, {"time": 38159, "pitch": 42, "duration": 20, "velocity": 89}, {"time": 38159, "pitch": 81, "duration": 10, "velocity": 87}, {"time": 38299, "pitch": 80, "duration": 10, "velocity": 87}, {"time": 38400, "pitch": 40, "duration": 20, "velocity": 122}, {"time": 38400, "pitch": 42, "duration": 10, "velocity": 91}, {"time": 38641, "pitch": 42, "duration": 10, "velocity": 93}, {"time": 38882, "pitch": 35, "duration": 20, "velocity": 120}, {"time": 38882, "pitch": 42, "duration": 10, "velocity": 89}, {"time": 39123, "pitch": 42, "duration": 10, "velocity": 66}, {"time": 39364, "pitch": 40, "duration": 19, "velocity": 120}, {"time": 39364, "pitch": 42, "duration": 10, "velocity": 89}, {"time": 39601, "pitch": 42, "duration": 10, "velocity": 84}, {"time": 39739, "pitch": 35, "duration": 10, "velocity": 110}, {"time": 39838, "pitch": 35, "duration": 20, "velocity": 118}, {"time": 39838, "pitch": 42, "duration": 10, "velocity": 89}, {"time": 40079, "pitch": 35, "duration": 20, "velocity": 124}, {"time": 40079, "pitch": 42, "duration": 10, "velocity": 76}, {"time": 40320, "pitch": 40, "duration": 20, "velocity": 125}, {"time": 40320, "pitch": 42, "duration": 10, "velocity": 84}, {"time": 40561, "pitch": 42, "duration": 20, "velocity": 89}, {"time": 40561, "pitch": 80, "duration": 10, "velocity": 86}, {"time": 40701, "pitch": 80, "duration": 10, "velocity": 100}, {"time": 40802, "pitch": 35, "duration": 20, "velocity": 114}, {"time": 40802, "pitch": 42, "duration": 10, "velocity": 91}, {"time": 41043, "pitch": 42, "duration": 10, "velocity": 76}, {"time": 41284, "pitch": 40, "duration": 20, "velocity": 120}, {"time": 41284, "pitch": 42, "duration": 10, "velocity": 91}, {"time": 41521, "pitch": 42, "duration": 10, "velocity": 93}, {"time": 41659, "pitch": 35, "duration": 10, "velocity": 114}, {"time": 41758, "pitch": 42, "duration": 10, "velocity": 89}, {"time": 41898, "pitch": 80, "duration": 10, "velocity": 30}, {"time": 41999, "pitch": 35, "duration": 30, "velocity": 118}, {"time": 41999, "pitch": 42, "duration": 20, "velocity": 89}, {"time": 41999, "pitch": 81, "duration": 10, "velocity": 87}, {"time": 42139, "pitch": 80, "duration": 10, "velocity": 87}, {"time": 42240, "pitch": 40, "duration": 20, "velocity": 122}, {"time": 42240, "pitch": 42, "duration": 10, "velocity": 91}, {"time": 42481, "pitch": 42, "duration": 10, "velocity": 93}, {"time": 42722, "pitch": 35, "duration": 20, "velocity": 120}, {"time": 42722, "pitch": 42, "duration": 10, "velocity": 89}, {"time": 42963, "pitch": 42, "duration": 10, "velocity": 66}, {"time": 43204, "pitch": 40, "duration": 20, "velocity": 120}, {"time": 43204, "pitch": 42, "duration": 10, "velocity": 89}, {"time": 43441, "pitch": 42, "duration": 10, "velocity": 84}, {"time": 43579, "pitch": 35, "duration": 10, "velocity": 110}, {"time": 43678, "pitch": 35, "duration": 20, "velocity": 118}, {"time": 43678, "pitch": 42, "duration": 10, "velocity": 89}, {"time": 43919, "pitch": 35, "duration": 20, "velocity": 124}, {"time": 43919, "pitch": 42, "duration": 10, "velocity": 76}, {"time": 44160, "pitch": 40, "duration": 20, "velocity": 125}, {"time": 44160, "pitch": 42, "duration": 10, "velocity": 84}, {"time": 44401, "pitch": 42, "duration": 20, "velocity": 89}, {"time": 44401, "pitch": 80, "duration": 10, "velocity": 86}, {"time": 44541, "pitch": 80, "duration": 11, "velocity": 100}, {"time": 44642, "pitch": 35, "duration": 20, "velocity": 114}, {"time": 44642, "pitch": 42, "duration": 10, "velocity": 91}, {"time": 44883, "pitch": 42, "duration": 10, "velocity": 76}, {"time": 45124, "pitch": 40, "duration": 20, "velocity": 120}, {"time": 45124, "pitch": 42, "duration": 10, "velocity": 91}, {"time": 45361, "pitch": 42, "duration": 10, "velocity": 93}, {"time": 45499, "pitch": 35, "duration": 10, "velocity": 114}, {"time": 45598, "pitch": 42, "duration": 10, "velocity": 89}, {"time": 45738, "pitch": 80, "duration": 10, "velocity": 30}, {"time": 45839, "pitch": 35, "duration": 30, "velocity": 118}, {"time": 45839, "pitch": 42, "duration": 20, "velocity": 89}, {"time": 45839, "pitch": 81, "duration": 10, "velocity": 87}, {"time": 45979, "pitch": 80, "duration": 11, "velocity": 87}, {"time": 46080, "pitch": 40, "duration": 20, "velocity": 122}, {"time": 46080, "pitch": 46, "duration": 10, "velocity": 91}, {"time": 46321, "pitch": 40, "duration": 20, "velocity": 106}, {"time": 46321, "pitch": 42, "duration": 10, "velocity": 93}, {"time": 46441, "pitch": 40, "duration": 11, "velocity": 122}, {"time": 46562, "pitch": 35, "duration": 20, "velocity": 114}, {"time": 46562, "pitch": 42, "duration": 10, "velocity": 91}, {"time": 46803, "pitch": 42, "duration": 10, "velocity": 76}, {"time": 47044, "pitch": 40, "duration": 20, "velocity": 120}, {"time": 47044, "pitch": 42, "duration": 10, "velocity": 91}, {"time": 47281, "pitch": 42, "duration": 10, "velocity": 93}, {"time": 47419, "pitch": 35, "duration": 10, "velocity": 114}, {"time": 47518, "pitch": 42, "duration": 10, "velocity": 89}, {"time": 47759, "pitch": 35, "duration": 20, "velocity": 118}, {"time": 47759, "pitch": 42, "duration": 10, "velocity": 89}, {"time": 48000, "pitch": 40, "duration": 20, "velocity": 122}, {"time": 48000, "pitch": 42, "duration": 10, "velocity": 91}, {"time": 48241, "pitch": 42, "duration": 10, "velocity": 93}, {"time": 48482, "pitch": 35, "duration": 20, "velocity": 114}, {"time": 48482, "pitch": 42, "duration": 10, "velocity": 91}, {"time": 48719, "pitch": 42, "duration": 10, "velocity": 76}, {"time": 48956, "pitch": 40, "duration": 20, "velocity": 120}, {"time": 48956, "pitch": 42, "duration": 10, "velocity": 91}, {"time": 49197, "pitch": 42, "duration": 10, "velocity": 93}, {"time": 49338, "pitch": 35, "duration": 10, "velocity": 114}, {"time": 49438, "pitch": 42, "duration": 10, "velocity": 89}, {"time": 49679, "pitch": 35, "duration": 20, "velocity": 118}, {"time": 49679, "pitch": 42, "duration": 10, "velocity": 89}, {"time": 49920, "pitch": 40, "duration": 20, "velocity": 122}, {"time": 49920, "pitch": 42, "duration": 10, "velocity": 91}, {"time": 50161, "pitch": 42, "duration": 10, "velocity": 93}, {"time": 50402, "pitch": 35, "duration": 20, "velocity": 114}, {"time": 50402, "pitch": 42, "duration": 10, "velocity": 91}, {"time": 50639, "pitch": 42, "duration": 10, "velocity": 76}, {"time": 50876, "pitch": 40, "duration": 20, "velocity": 120}, {"time": 50876, "pitch": 42, "duration": 10, "velocity": 91}, {"time": 51117, "pitch": 42, "duration": 10, "velocity": 93}, {"time": 51258, "pitch": 35, "duration": 10, "velocity": 114}, {"time": 51358, "pitch": 42, "duration": 10, "velocity": 89}, {"time": 51599, "pitch": 35, "duration": 20, "velocity": 118}, {"time": 51599, "pitch": 42, "duration": 10, "velocity": 89}, {"time": 51840, "pitch": 40, "duration": 20, "velocity": 122}, {"time": 51840, "pitch": 42, "duration": 10, "velocity": 91}, {"time": 52081, "pitch": 42, "duration": 10, "velocity": 93}, {"time": 52322, "pitch": 35, "duration": 20, "velocity": 114}, {"time": 52322, "pitch": 42, "duration": 10, "velocity": 91}, {"time": 52559, "pitch": 42, "duration": 10, "velocity": 76}, {"time": 52796, "pitch": 40, "duration": 20, "velocity": 120}, {"time": 52796, "pitch": 42, "duration": 10, "velocity": 91}, {"time": 53037, "pitch": 42, "duration": 10, "velocity": 93}, {"time": 53178, "pitch": 35, "duration": 10, "velocity": 114}, {"time": 53278, "pitch": 42, "duration": 10, "velocity": 89}, {"time": 53519, "pitch": 35, "duration": 20, "velocity": 118}, {"time": 53519, "pitch": 42, "duration": 10, "velocity": 89}, {"time": 53760, "pitch": 40, "duration": 20, "velocity": 122}, {"time": 53760, "pitch": 42, "duration": 10, "velocity": 91}, {"time": 54001, "pitch": 42, "duration": 10, "velocity": 93}, {"time": 54242, "pitch": 35, "duration": 20, "velocity": 114}, {"time": 54242, "pitch": 42, "duration": 10, "velocity": 91}, {"time": 54479, "pitch": 42, "duration": 10, "velocity": 76}, {"time": 54716, "pitch": 40, "duration": 20, "velocity": 120}, {"time": 54716, "pitch": 42, "duration": 10, "velocity": 91}, {"time": 54957, "pitch": 42, "duration": 10, "velocity": 93}, {"time": 55098, "pitch": 35, "duration": 10, "velocity": 114}, {"time": 55198, "pitch": 42, "duration": 10, "velocity": 89}, {"time": 55439, "pitch": 35, "duration": 20, "velocity": 118}, {"time": 55439, "pitch": 42, "duration": 10, "velocity": 89}, {"time": 55680, "pitch": 40, "duration": 20, "velocity": 122}, {"time": 55680, "pitch": 42, "duration": 10, "velocity": 91}, {"time": 55921, "pitch": 42, "duration": 10, "velocity": 93}, {"time": 56162, "pitch": 35, "duration": 20, "velocity": 114}, {"time": 56162, "pitch": 42, "duration": 10, "velocity": 91}, {"time": 56399, "pitch": 42, "duration": 10, "velocity": 76}, {"time": 56636, "pitch": 40, "duration": 20, "velocity": 120}, {"time": 56636, "pitch": 42, "duration": 10, "velocity": 91}, {"time": 56877, "pitch": 42, "duration": 10, "velocity": 93}, {"time": 57018, "pitch": 35, "duration": 10, "velocity": 114}, {"time": 57118, "pitch": 42, "duration": 10, "velocity": 89}, {"time": 57359, "pitch": 35, "duration": 20, "velocity": 118}, {"time": 57359, "pitch": 42, "duration": 10, "velocity": 89}, {"time": 57600, "pitch": 40, "duration": 20, "velocity": 122}, {"time": 57600, "pitch": 42, "duration": 10, "velocity": 91}, {"time": 57841, "pitch": 42, "duration": 10, "velocity": 93}, {"time": 58082, "pitch": 35, "duration": 20, "velocity": 114}, {"time": 58082, "pitch": 42, "duration": 10, "velocity": 91}, {"time": 58319, "pitch": 42, "duration": 10, "velocity": 76}, {"time": 58556, "pitch": 40, "duration": 20, "velocity": 120}, {"time": 58556, "pitch": 42, "duration": 10, "velocity": 91}, {"time": 58797, "pitch": 42, "duration": 10, "velocity": 93}, {"time": 58938, "pitch": 35, "duration": 10, "velocity": 114}, {"time": 59038, "pitch": 42, "duration": 10, "velocity": 89}, {"time": 59279, "pitch": 35, "duration": 31, "velocity": 118}, {"time": 59279, "pitch": 42, "duration": 20, "velocity": 89}, {"time": 59279, "pitch": 80, "duration": 10, "velocity": 98}, {"time": 59420, "pitch": 80, "duration": 10, "velocity": 98}, {"time": 59520, "pitch": 42, "duration": 10, "velocity": 91}, {"time": 59761, "pitch": 40, "duration": 31, "velocity": 122}, {"time": 59761, "pitch": 42, "duration": 21, "velocity": 93}, {"time": 59761, "pitch": 81, "duration": 11, "velocity": 98}, {"time": 59902, "pitch": 40, "duration": 20, "velocity": 122}, {"time": 59902, "pitch": 80, "duration": 10, "velocity": 98}, {"time": 60002, "pitch": 35, "duration": 20, "velocity": 114}, {"time": 60002, "pitch": 42, "duration": 10, "velocity": 91}, {"time": 60239, "pitch": 42, "duration": 10, "velocity": 76}, {"time": 60476, "pitch": 40, "duration": 20, "velocity": 120}, {"time": 60476, "pitch": 42, "duration": 10, "velocity": 91}, {"time": 60717, "pitch": 42, "duration": 10, "velocity": 93}, {"time": 60858, "pitch": 35, "duration": 10, "velocity": 114}, {"time": 60958, "pitch": 35, "duration": 21, "velocity": 114}, {"time": 60958, "pitch": 42, "duration": 10, "velocity": 89}, {"time": 61199, "pitch": 35, "duration": 21, "velocity": 118}, {"time": 61199, "pitch": 46, "duration": 11, "velocity": 89}, {"time": 61441, "pitch": 40, "duration": 20, "velocity": 122}, {"time": 61441, "pitch": 42, "duration": 10, "velocity": 91}, {"time": 61682, "pitch": 40, "duration": 20, "velocity": 122}, {"time": 61682, "pitch": 42, "duration": 10, "velocity": 93}, {"time": 61822, "pitch": 40, "duration": 10, "velocity": 122}, {"time": 61923, "pitch": 35, "duration": 19, "velocity": 114}, {"time": 61923, "pitch": 42, "duration": 9, "velocity": 91}, {"time": 62160, "pitch": 42, "duration": 9, "velocity": 76}, {"time": 62396, "pitch": 40, "duration": 21, "velocity": 120}, {"time": 62396, "pitch": 42, "duration": 10, "velocity": 91}, {"time": 62637, "pitch": 42, "duration": 11, "velocity": 93}, {"time": 62778, "pitch": 35, "duration": 10, "velocity": 114}, {"time": 62879, "pitch": 35, "duration": 20, "velocity": 118}, {"time": 62879, "pitch": 42, "duration": 10, "velocity": 89}, {"time": 63120, "pitch": 35, "duration": 20, "velocity": 118}, {"time": 63120, "pitch": 42, "duration": 10, "velocity": 89}, {"time": 63361, "pitch": 40, "duration": 20, "velocity": 122}, {"time": 63361, "pitch": 42, "duration": 10, "velocity": 91}, {"time": 63602, "pitch": 42, "duration": 20, "velocity": 93}, {"time": 63602, "pitch": 80, "duration": 10, "velocity": 86}, {"time": 63742, "pitch": 80, "duration": 10, "velocity": 100}, {"time": 63843, "pitch": 35, "duration": 19, "velocity": 114}, {"time": 63843, "pitch": 42, "duration": 10, "velocity": 91}, {"time": 64080, "pitch": 42, "duration": 9, "velocity": 76}, {"time": 64317, "pitch": 40, "duration": 20, "velocity": 120}, {"time": 64317, "pitch": 42, "duration": 10, "velocity": 91}, {"time": 64558, "pitch": 42, "duration": 10, "velocity": 93}, {"time": 64698, "pitch": 35, "duration": 10, "velocity": 114}, {"time": 64799, "pitch": 35, "duration": 20, "velocity": 118}, {"time": 64799, "pitch": 42, "duration": 10, "velocity": 89}, {"time": 64939, "pitch": 80, "duration": 10, "velocity": 22}, {"time": 65040, "pitch": 35, "duration": 30, "velocity": 118}, {"time": 65040, "pitch": 42, "duration": 20, "velocity": 89}, {"time": 65040, "pitch": 81, "duration": 10, "velocity": 102}, {"time": 65180, "pitch": 80, "duration": 10, "velocity": 64}, {"time": 65281, "pitch": 40, "duration": 20, "velocity": 122}, {"time": 65281, "pitch": 42, "duration": 10, "velocity": 91}, {"time": 65522, "pitch": 42, "duration": 20, "velocity": 93}, {"time": 65522, "pitch": 80, "duration": 10, "velocity": 86}, {"time": 65662, "pitch": 80, "duration": 10, "velocity": 100}, {"time": 65763, "pitch": 35, "duration": 19, "velocity": 114}, {"time": 65763, "pitch": 42, "duration": 10, "velocity": 91}, {"time": 66000, "pitch": 42, "duration": 10, "velocity": 76}, {"time": 66237, "pitch": 40, "duration": 20, "velocity": 120}, {"time": 66237, "pitch": 42, "duration": 10, "velocity": 91}, {"time": 66478, "pitch": 42, "duration": 10, "velocity": 93}, {"time": 66618, "pitch": 35, "duration": 10, "velocity": 114}, {"time": 66719, "pitch": 35, "duration": 20, "velocity": 118}, {"time": 66719, "pitch": 42, "duration": 10, "velocity": 89}, {"time": 66960, "pitch": 35, "duration": 20, "velocity": 118}, {"time": 66960, "pitch": 42, "duration": 10, "velocity": 89}, {"time": 67201, "pitch": 40, "duration": 20, "velocity": 122}, {"time": 67201, "pitch": 42, "duration": 10, "velocity": 91}, {"time": 67442, "pitch": 42, "duration": 20, "velocity": 93}, {"time": 67442, "pitch": 80, "duration": 10, "velocity": 86}, {"time": 67582, "pitch": 80, "duration": 10, "velocity": 100}, {"time": 67683, "pitch": 35, "duration": 20, "velocity": 114}, {"time": 67683, "pitch": 42, "duration": 10, "velocity": 91}, {"time": 67920, "pitch": 42, "duration": 10, "velocity": 76}, {"time": 68157, "pitch": 40, "duration": 20, "velocity": 120}, {"time": 68157, "pitch": 42, "duration": 10, "velocity": 91}, {"time": 68398, "pitch": 42, "duration": 10, "velocity": 93}, {"time": 68538, "pitch": 35, "duration": 10, "velocity": 114}, {"time": 68639, "pitch": 35, "duration": 20, "velocity": 118}, {"time": 68639, "pitch": 42, "duration": 10, "velocity": 89}, {"time": 68779, "pitch": 80, "duration": 10, "velocity": 30}, {"time": 68880, "pitch": 35, "duration": 30, "velocity": 118}, {"time": 68880, "pitch": 42, "duration": 20, "velocity": 89}, {"time": 68880, "pitch": 81, "duration": 10, "velocity": 87}, {"time": 69020, "pitch": 80, "duration": 10, "velocity": 87}, {"time": 69121, "pitch": 40, "duration": 20, "velocity": 122}, {"time": 69121, "pitch": 42, "duration": 10, "velocity": 91}, {"time": 69362, "pitch": 42, "duration": 20, "velocity": 93}, {"time": 69362, "pitch": 80, "duration": 10, "velocity": 86}, {"time": 69503, "pitch": 80, "duration": 10, "velocity": 100}, {"time": 69603, "pitch": 35, "duration": 20, "velocity": 114}, {"time": 69603, "pitch": 42, "duration": 10, "velocity": 91}, {"time": 69840, "pitch": 42, "duration": 10, "velocity": 76}, {"time": 70077, "pitch": 40, "duration": 20, "velocity": 120}, {"time": 70077, "pitch": 42, "duration": 10, "velocity": 91}, {"time": 70318, "pitch": 42, "duration": 10, "velocity": 93}, {"time": 70458, "pitch": 35, "duration": 10, "velocity": 114}, {"time": 70559, "pitch": 35, "duration": 20, "velocity": 118}, {"time": 70559, "pitch": 42, "duration": 10, "velocity": 89}, {"time": 70800, "pitch": 35, "duration": 20, "velocity": 118}, {"time": 70800, "pitch": 42, "duration": 10, "velocity": 89}, {"time": 71041, "pitch": 40, "duration": 20, "velocity": 122}, {"time": 71041, "pitch": 42, "duration": 10, "velocity": 91}, {"time": 71282, "pitch": 42, "duration": 20, "velocity": 93}, {"time": 71282, "pitch": 80, "duration": 10, "velocity": 86}, {"time": 71423, "pitch": 80, "duration": 10, "velocity": 100}, {"time": 71523, "pitch": 35, "duration": 20, "velocity": 114}, {"time": 71523, "pitch": 42, "duration": 10, "velocity": 91}, {"time": 71760, "pitch": 42, "duration": 10, "velocity": 76}, {"time": 71997, "pitch": 40, "duration": 20, "velocity": 120}, {"time": 71997, "pitch": 42, "duration": 10, "velocity": 91}, {"time": 72238, "pitch": 42, "duration": 10, "velocity": 93}, {"time": 72378, "pitch": 35, "duration": 11, "velocity": 114}, {"time": 72479, "pitch": 35, "duration": 20, "velocity": 118}, {"time": 72479, "pitch": 42, "duration": 10, "velocity": 89}, {"time": 72620, "pitch": 80, "duration": 10, "velocity": 22}, {"time": 72720, "pitch": 35, "duration": 30, "velocity": 118}, {"time": 72720, "pitch": 42, "duration": 20, "velocity": 89}, {"time": 72720, "pitch": 81, "duration": 10, "velocity": 102}, {"time": 72861, "pitch": 80, "duration": 10, "velocity": 64}, {"time": 72961, "pitch": 40, "duration": 20, "velocity": 122}, {"time": 72961, "pitch": 42, "duration": 10, "velocity": 91}, {"time": 73202, "pitch": 42, "duration": 20, "velocity": 93}, {"time": 73202, "pitch": 80, "duration": 10, "velocity": 86}, {"time": 73343, "pitch": 80, "duration": 10, "velocity": 100}, {"time": 73443, "pitch": 35, "duration": 20, "velocity": 114}, {"time": 73443, "pitch": 42, "duration": 10, "velocity": 91}, {"time": 73680, "pitch": 42, "duration": 10, "velocity": 76}, {"time": 73917, "pitch": 35, "duration": 30, "velocity": 114}, {"time": 73917, "pitch": 40, "duration": 20, "velocity": 120}, {"time": 73917, "pitch": 42, "duration": 10, "velocity": 91}, {"time": 74158, "pitch": 42, "duration": 10, "velocity": 93}, {"time": 74399, "pitch": 35, "duration": 20, "velocity": 118}, {"time": 74399, "pitch": 42, "duration": 10, "velocity": 89}, {"time": 74640, "pitch": 35, "duration": 20, "velocity": 118}, {"time": 74640, "pitch": 42, "duration": 10, "velocity": 89}, {"time": 74881, "pitch": 40, "duration": 20, "velocity": 122}, {"time": 74881, "pitch": 42, "duration": 10, "velocity": 91}, {"time": 75122, "pitch": 42, "duration": 20, "velocity": 93}, {"time": 75122, "pitch": 80, "duration": 10, "velocity": 86}, {"time": 75263, "pitch": 46, "duration": 20, "velocity": 93}, {"time": 75263, "pitch": 80, "duration": 10, "velocity": 100}, {"time": 75363, "pitch": 35, "duration": 20, "velocity": 114}, {"time": 75363, "pitch": 42, "duration": 10, "velocity": 91}, {"time": 75837, "pitch": 40, "duration": 20, "velocity": 120}, {"time": 75837, "pitch": 42, "duration": 10, "velocity": 91}, {"time": 76078, "pitch": 42, "duration": 10, "velocity": 93}, {"time": 76219, "pitch": 35, "duration": 10, "velocity": 114}, {"time": 76319, "pitch": 35, "duration": 20, "velocity": 118}, {"time": 76319, "pitch": 42, "duration": 10, "velocity": 89}, {"time": 76460, "pitch": 80, "duration": 10, "velocity": 30}, {"time": 76560, "pitch": 35, "duration": 30, "velocity": 118}, {"time": 76560, "pitch": 42, "duration": 20, "velocity": 89}, {"time": 76560, "pitch": 81, "duration": 10, "velocity": 87}, {"time": 76701, "pitch": 80, "duration": 10, "velocity": 87}, {"time": 76801, "pitch": 40, "duration": 20, "velocity": 122}, {"time": 76801, "pitch": 42, "duration": 10, "velocity": 91}, {"time": 77042, "pitch": 42, "duration": 20, "velocity": 93}, {"time": 77042, "pitch": 80, "duration": 10, "velocity": 86}, {"time": 77183, "pitch": 40, "duration": 20, "velocity": 122}, {"time": 77183, "pitch": 80, "duration": 10, "velocity": 100}, {"time": 77283, "pitch": 35, "duration": 20, "velocity": 120}, {"time": 77283, "pitch": 42, "duration": 10, "velocity": 89}, {"time": 77520, "pitch": 42, "duration": 10, "velocity": 66}, {"time": 77757, "pitch": 40, "duration": 20, "velocity": 120}, {"time": 77757, "pitch": 42, "duration": 10, "velocity": 89}, {"time": 77998, "pitch": 42, "duration": 10, "velocity": 84}, {"time": 78139, "pitch": 35, "duration": 10, "velocity": 110}, {"time": 78239, "pitch": 35, "duration": 20, "velocity": 118}, {"time": 78239, "pitch": 42, "duration": 10, "velocity": 89}, {"time": 78480, "pitch": 35, "duration": 20, "velocity": 124}, {"time": 78480, "pitch": 42, "duration": 10, "velocity": 76}, {"time": 78721, "pitch": 40, "duration": 20, "velocity": 125}, {"time": 78721, "pitch": 42, "duration": 10, "velocity": 84}, {"time": 78962, "pitch": 42, "duration": 20, "velocity": 89}, {"time": 78962, "pitch": 80, "duration": 10, "velocity": 86}, {"time": 79103, "pitch": 80, "duration": 10, "velocity": 100}, {"time": 79203, "pitch": 35, "duration": 20, "velocity": 114}, {"time": 79203, "pitch": 42, "duration": 10, "velocity": 91}, {"time": 79440, "pitch": 42, "duration": 10, "velocity": 76}, {"time": 79677, "pitch": 40, "duration": 20, "velocity": 120}, {"time": 79677, "pitch": 42, "duration": 10, "velocity": 91}, {"time": 79918, "pitch": 42, "duration": 10, "velocity": 93}, {"time": 80059, "pitch": 35, "duration": 10, "velocity": 114}, {"time": 80159, "pitch": 42, "duration": 10, "velocity": 89}, {"time": 80400, "pitch": 35, "duration": 20, "velocity": 118}, {"time": 80400, "pitch": 42, "duration": 10, "velocity": 89}, {"time": 80641, "pitch": 40, "duration": 20, "velocity": 122}, {"time": 80641, "pitch": 42, "duration": 10, "velocity": 91}, {"time": 80882, "pitch": 29, "duration": 20, "velocity": 60}, {"time": 80882, "pitch": 42, "duration": 10, "velocity": 93}, {"time": 81023, "pitch": 30, "duration": 10, "velocity": 60}, {"time": 81123, "pitch": 35, "duration": 20, "velocity": 120}, {"time": 81123, "pitch": 42, "duration": 10, "velocity": 89}, {"time": 81360, "pitch": 42, "duration": 10, "velocity": 66}, {"time": 81597, "pitch": 40, "duration": 20, "velocity": 120}, {"time": 81597, "pitch": 42, "duration": 10, "velocity": 89}, {"time": 81838, "pitch": 42, "duration": 10, "velocity": 84}, {"time": 81979, "pitch": 35, "duration": 10, "velocity": 110}, {"time": 82079, "pitch": 35, "duration": 20, "velocity": 118}, {"time": 82079, "pitch": 42, "duration": 10, "velocity": 89}, {"time": 82320, "pitch": 35, "duration": 20, "velocity": 124}, {"time": 82320, "pitch": 42, "duration": 10, "velocity": 76}, {"time": 82561, "pitch": 40, "duration": 20, "velocity": 125}, {"time": 82561, "pitch": 42, "duration": 10, "velocity": 84}, {"time": 82802, "pitch": 42, "duration": 21, "velocity": 89}, {"time": 82802, "pitch": 80, "duration": 10, "velocity": 86}, {"time": 82943, "pitch": 80, "duration": 10, "velocity": 100}, {"time": 83043, "pitch": 35, "duration": 20, "velocity": 114}, {"time": 83043, "pitch": 42, "duration": 10, "velocity": 91}, {"time": 83280, "pitch": 42, "duration": 10, "velocity": 76}, {"time": 83517, "pitch": 40, "duration": 20, "velocity": 120}, {"time": 83517, "pitch": 42, "duration": 10, "velocity": 91}, {"time": 83758, "pitch": 42, "duration": 10, "velocity": 93}, {"time": 83899, "pitch": 35, "duration": 20, "velocity": 114}, {"time": 83899, "pitch": 46, "duration": 10, "velocity": 93}, {"time": 83999, "pitch": 42, "duration": 10, "velocity": 20}, {"time": 84481, "pitch": 40, "duration": 21, "velocity": 110}, {"time": 84481, "pitch": 42, "duration": 11, "velocity": 84}, {"time": 84612, "pitch": 40, "duration": 10, "velocity": 125}, {"time": 84723, "pitch": 29, "duration": 40, "velocity": 60}, {"time": 84723, "pitch": 35, "duration": 30, "velocity": 124}, {"time": 84723, "pitch": 42, "duration": 20, "velocity": 89}, {"time": 84723, "pitch": 80, "duration": 10, "velocity": 86}, {"time": 84863, "pitch": 30, "duration": 40, "velocity": 60}, {"time": 84863, "pitch": 40, "duration": 20, "velocity": 90}, {"time": 84863, "pitch": 43, "duration": 10, "velocity": 122}, {"time": 84863, "pitch": 80, "duration": 30, "velocity": 100}, {"time": 84964, "pitch": 35, "duration": 19, "velocity": 120}, {"time": 84964, "pitch": 42, "duration": 9, "velocity": 89}, {"time": 85200, "pitch": 42, "duration": 10, "velocity": 66}, {"time": 85437, "pitch": 40, "duration": 20, "velocity": 120}, {"time": 85437, "pitch": 42, "duration": 10, "velocity": 89}, {"time": 85678, "pitch": 42, "duration": 10, "velocity": 84}, {"time": 85819, "pitch": 35, "duration": 10, "velocity": 110}, {"time": 85919, "pitch": 35, "duration": 21, "velocity": 118}, {"time": 85919, "pitch": 42, "duration": 11, "velocity": 89}, {"time": 86161, "pitch": 35, "duration": 20, "velocity": 124}, {"time": 86161, "pitch": 42, "duration": 10, "velocity": 76}, {"time": 86402, "pitch": 40, "duration": 20, "velocity": 125}, {"time": 86402, "pitch": 42, "duration": 10, "velocity": 84}, {"time": 86643, "pitch": 42, "duration": 20, "velocity": 89}, {"time": 86643, "pitch": 80, "duration": 10, "velocity": 86}, {"time": 86783, "pitch": 80, "duration": 10, "velocity": 100}, {"time": 86884, "pitch": 35, "duration": 19, "velocity": 114}, {"time": 86884, "pitch": 42, "duration": 9, "velocity": 91}, {"time": 87121, "pitch": 42, "duration": 9, "velocity": 76}, {"time": 87358, "pitch": 40, "duration": 20, "velocity": 120}, {"time": 87358, "pitch": 42, "duration": 10, "velocity": 91}, {"time": 87599, "pitch": 42, "duration": 10, "velocity": 93}, {"time": 87739, "pitch": 35, "duration": 10, "velocity": 114}, {"time": 87840, "pitch": 42, "duration": 10, "velocity": 89}, {"time": 87980, "pitch": 80, "duration": 10, "velocity": 30}, {"time": 88081, "pitch": 35, "duration": 30, "velocity": 118}, {"time": 88081, "pitch": 42, "duration": 20, "velocity": 89}, {"time": 88081, "pitch": 81, "duration": 10, "velocity": 87}, {"time": 88221, "pitch": 80, "duration": 10, "velocity": 87}, {"time": 88322, "pitch": 40, "duration": 20, "velocity": 122}, {"time": 88322, "pitch": 42, "duration": 10, "velocity": 91}, {"time": 88462, "pitch": 80, "duration": 10, "velocity": 30}, {"time": 88563, "pitch": 42, "duration": 20, "velocity": 93}, {"time": 88563, "pitch": 81, "duration": 10, "velocity": 87}, {"time": 88703, "pitch": 80, "duration": 10, "velocity": 87}, {"time": 88804, "pitch": 35, "duration": 19, "velocity": 120}, {"time": 88804, "pitch": 42, "duration": 10, "velocity": 89}, {"time": 89041, "pitch": 42, "duration": 10, "velocity": 66}, {"time": 89278, "pitch": 40, "duration": 20, "velocity": 120}, {"time": 89278, "pitch": 42, "duration": 10, "velocity": 89}, {"time": 89519, "pitch": 42, "duration": 10, "velocity": 84}, {"time": 89659, "pitch": 35, "duration": 10, "velocity": 110}, {"time": 89760, "pitch": 35, "duration": 20, "velocity": 118}, {"time": 89760, "pitch": 42, "duration": 10, "velocity": 89}, {"time": 90001, "pitch": 35, "duration": 20, "velocity": 124}, {"time": 90001, "pitch": 42, "duration": 10, "velocity": 76}, {"time": 90242, "pitch": 40, "duration": 20, "velocity": 125}, {"time": 90242, "pitch": 42, "duration": 10, "velocity": 84}, {"time": 90483, "pitch": 42, "duration": 20, "velocity": 89}, {"time": 90483, "pitch": 80, "duration": 10, "velocity": 86}, {"time": 90623, "pitch": 80, "duration": 10, "velocity": 100}, {"time": 90724, "pitch": 35, "duration": 19, "velocity": 114}, {"time": 90724, "pitch": 42, "duration": 10, "velocity": 91}, {"time": 90961, "pitch": 42, "duration": 10, "velocity": 76}, {"time": 91198, "pitch": 40, "duration": 20, "velocity": 120}, {"time": 91198, "pitch": 42, "duration": 10, "velocity": 91}, {"time": 91439, "pitch": 42, "duration": 10, "velocity": 93}, {"time": 91579, "pitch": 35, "duration": 10, "velocity": 114}, {"time": 91680, "pitch": 42, "duration": 10, "velocity": 89}, {"time": 91820, "pitch": 80, "duration": 10, "velocity": 30}, {"time": 91921, "pitch": 35, "duration": 30, "velocity": 118}, {"time": 91921, "pitch": 42, "duration": 20, "velocity": 89}, {"time": 91921, "pitch": 81, "duration": 10, "velocity": 87}, {"time": 92061, "pitch": 80, "duration": 10, "velocity": 87}, {"time": 92162, "pitch": 40, "duration": 20, "velocity": 122}, {"time": 92162, "pitch": 42, "duration": 10, "velocity": 91}, {"time": 92403, "pitch": 42, "duration": 10, "velocity": 93}, {"time": 92644, "pitch": 35, "duration": 20, "velocity": 120}, {"time": 92644, "pitch": 42, "duration": 10, "velocity": 89}, {"time": 92881, "pitch": 42, "duration": 10, "velocity": 66}, {"time": 93118, "pitch": 40, "duration": 20, "velocity": 120}, {"time": 93118, "pitch": 42, "duration": 10, "velocity": 89}, {"time": 93359, "pitch": 42, "duration": 10, "velocity": 84}, {"time": 93499, "pitch": 35, "duration": 10, "velocity": 110}, {"time": 93600, "pitch": 35, "duration": 20, "velocity": 118}, {"time": 93600, "pitch": 42, "duration": 10, "velocity": 89}, {"time": 93841, "pitch": 35, "duration": 20, "velocity": 124}, {"time": 93841, "pitch": 42, "duration": 10, "velocity": 76}, {"time": 94082, "pitch": 40, "duration": 20, "velocity": 125}, {"time": 94082, "pitch": 42, "duration": 10, "velocity": 84}, {"time": 94323, "pitch": 42, "duration": 20, "velocity": 89}, {"time": 94323, "pitch": 80, "duration": 10, "velocity": 86}, {"time": 94464, "pitch": 80, "duration": 10, "velocity": 100}, {"time": 94564, "pitch": 35, "duration": 20, "velocity": 114}, {"time": 94564, "pitch": 42, "duration": 10, "velocity": 91}, {"time": 94801, "pitch": 42, "duration": 10, "velocity": 76}, {"time": 95038, "pitch": 40, "duration": 20, "velocity": 120}, {"time": 95038, "pitch": 42, "duration": 10, "velocity": 91}, {"time": 95279, "pitch": 42, "duration": 10, "velocity": 93}, {"time": 95419, "pitch": 35, "duration": 10, "velocity": 114}, {"time": 95520, "pitch": 42, "duration": 10, "velocity": 89}, {"time": 95660, "pitch": 80, "duration": 11, "velocity": 30}, {"time": 95761, "pitch": 35, "duration": 30, "velocity": 118}, {"time": 95761, "pitch": 42, "duration": 20, "velocity": 89}, {"time": 95761, "pitch": 81, "duration": 10, "velocity": 87}, {"time": 95902, "pitch": 80, "duration": 10, "velocity": 87}, {"time": 96002, "pitch": 40, "duration": 20, "velocity": 122}, {"time": 96002, "pitch": 42, "duration": 10, "velocity": 91}, {"time": 96143, "pitch": 80, "duration": 10, "velocity": 30}, {"time": 96243, "pitch": 42, "duration": 20, "velocity": 93}, {"time": 96243, "pitch": 81, "duration": 10, "velocity": 87}, {"time": 96384, "pitch": 80, "duration": 10, "velocity": 87}, {"time": 96484, "pitch": 35, "duration": 20, "velocity": 120}, {"time": 96484, "pitch": 42, "duration": 10, "velocity": 89}, {"time": 96721, "pitch": 42, "duration": 10, "velocity": 66}, {"time": 96958, "pitch": 40, "duration": 20, "velocity": 120}, {"time": 96958, "pitch": 42, "duration": 10, "velocity": 89}, {"time": 97199, "pitch": 42, "duration": 10, "velocity": 84}, {"time": 97340, "pitch": 35, "duration": 10, "velocity": 110}, {"time": 97440, "pitch": 35, "duration": 20, "velocity": 118}, {"time": 97440, "pitch": 42, "duration": 10, "velocity": 89}, {"time": 97681, "pitch": 35, "duration": 20, "velocity": 124}, {"time": 97681, "pitch": 42, "duration": 10, "velocity": 76}, {"time": 97922, "pitch": 40, "duration": 20, "velocity": 125}, {"time": 97922, "pitch": 42, "duration": 10, "velocity": 84}, {"time": 98163, "pitch": 42, "duration": 20, "velocity": 89}, {"time": 98163, "pitch": 80, "duration": 10, "velocity": 86}, {"time": 98304, "pitch": 80, "duration": 10, "velocity": 100}, {"time": 98404, "pitch": 35, "duration": 20, "velocity": 114}, {"time": 98404, "pitch": 42, "duration": 10, "velocity": 91}, {"time": 98641, "pitch": 42, "duration": 10, "velocity": 76}, {"time": 98878, "pitch": 40, "duration": 20, "velocity": 120}, {"time": 98878, "pitch": 42, "duration": 10, "velocity": 91}, {"time": 99119, "pitch": 42, "duration": 10, "velocity": 93}, {"time": 99260, "pitch": 35, "duration": 10, "velocity": 114}, {"time": 99320, "pitch": 40, "duration": 10, "velocity": 59}, {"time": 99360, "pitch": 40, "duration": 20, "velocity": 122}, {"time": 99360, "pitch": 42, "duration": 10, "velocity": 89}, {"time": 99501, "pitch": 35, "duration": 20, "velocity": 114}, {"time": 99501, "pitch": 80, "duration": 10, "velocity": 30}, {"time": 99601, "pitch": 40, "duration": 30, "velocity": 125}, {"time": 99601, "pitch": 42, "duration": 20, "velocity": 89}, {"time": 99601, "pitch": 81, "duration": 10, "velocity": 87}, {"time": 99742, "pitch": 80, "duration": 10, "velocity": 87}, {"time": 99842, "pitch": 40, "duration": 20, "velocity": 122}, {"time": 99842, "pitch": 46, "duration": 10, "velocity": 91}, {"time": 99980, "pitch": 40, "duration": 20, "velocity": 122}, {"time": 99980, "pitch": 80, "duration": 10, "velocity": 30}, {"time": 100079, "pitch": 35, "duration": 30, "velocity": 114}, {"time": 100079, "pitch": 42, "duration": 20, "velocity": 93}, {"time": 100079, "pitch": 81, "duration": 10, "velocity": 87}, {"time": 100217, "pitch": 80, "duration": 10, "velocity": 87}, {"time": 100316, "pitch": 35, "duration": 20, "velocity": 114}, {"time": 100316, "pitch": 42, "duration": 10, "velocity": 91}, {"time": 100557, "pitch": 42, "duration": 10, "velocity": 76}, {"time": 100798, "pitch": 40, "duration": 20, "velocity": 120}, {"time": 100798, "pitch": 42, "duration": 10, "velocity": 91}, {"time": 101039, "pitch": 42, "duration": 10, "velocity": 93}, {"time": 101180, "pitch": 35, "duration": 10, "velocity": 114}, {"time": 101280, "pitch": 42, "duration": 10, "velocity": 89}, {"time": 101521, "pitch": 35, "duration": 20, "velocity": 118}, {"time": 101521, "pitch": 42, "duration": 10, "velocity": 89}, {"time": 101762, "pitch": 40, "duration": 20, "velocity": 122}, {"time": 101762, "pitch": 42, "duration": 10, "velocity": 91}, {"time": 101999, "pitch": 42, "duration": 10, "velocity": 93}, {"time": 102236, "pitch": 35, "duration": 20, "velocity": 114}, {"time": 102236, "pitch": 42, "duration": 10, "velocity": 91}, {"time": 102477, "pitch": 42, "duration": 10, "velocity": 76}, {"time": 102718, "pitch": 40, "duration": 20, "velocity": 120}, {"time": 102718, "pitch": 42, "duration": 10, "velocity": 91}, {"time": 102959, "pitch": 42, "duration": 10, "velocity": 93}, {"time": 103100, "pitch": 35, "duration": 10, "velocity": 114}, {"time": 103200, "pitch": 42, "duration": 10, "velocity": 89}, {"time": 103441, "pitch": 35, "duration": 20, "velocity": 118}, {"time": 103441, "pitch": 42, "duration": 10, "velocity": 89}, {"time": 103682, "pitch": 40, "duration": 20, "velocity": 122}, {"time": 103682, "pitch": 42, "duration": 10, "velocity": 91}, {"time": 103919, "pitch": 42, "duration": 10, "velocity": 93}, {"time": 104156, "pitch": 35, "duration": 20, "velocity": 114}, {"time": 104156, "pitch": 42, "duration": 10, "velocity": 91}, {"time": 104397, "pitch": 42, "duration": 10, "velocity": 76}, {"time": 104638, "pitch": 40, "duration": 20, "velocity": 120}, {"time": 104638, "pitch": 42, "duration": 10, "velocity": 91}, {"time": 104879, "pitch": 42, "duration": 10, "velocity": 93}, {"time": 105020, "pitch": 35, "duration": 10, "velocity": 114}, {"time": 105120, "pitch": 42, "duration": 10, "velocity": 89}, {"time": 105361, "pitch": 35, "duration": 20, "velocity": 118}, {"time": 105361, "pitch": 42, "duration": 10, "velocity": 89}, {"time": 105602, "pitch": 40, "duration": 20, "velocity": 122}, {"time": 105602, "pitch": 42, "duration": 10, "velocity": 91}, {"time": 105839, "pitch": 42, "duration": 10, "velocity": 93}, {"time": 106076, "pitch": 35, "duration": 20, "velocity": 114}, {"time": 106076, "pitch": 42, "duration": 10, "velocity": 91}, {"time": 106317, "pitch": 42, "duration": 10, "velocity": 76}, {"time": 106558, "pitch": 40, "duration": 20, "velocity": 120}, {"time": 106558, "pitch": 42, "duration": 10, "velocity": 91}, {"time": 106799, "pitch": 42, "duration": 10, "velocity": 93}, {"time": 106940, "pitch": 35, "duration": 10, "velocity": 114}, {"time": 107040, "pitch": 42, "duration": 10, "velocity": 89}, {"time": 107281, "pitch": 35, "duration": 20, "velocity": 118}, {"time": 107281, "pitch": 42, "duration": 10, "velocity": 89}, {"time": 107522, "pitch": 40, "duration": 20, "velocity": 122}, {"time": 107522, "pitch": 42, "duration": 10, "velocity": 91}, {"time": 107759, "pitch": 42, "duration": 10, "velocity": 93}, {"time": 107996, "pitch": 35, "duration": 20, "velocity": 114}, {"time": 107996, "pitch": 42, "duration": 10, "velocity": 91}, {"time": 108237, "pitch": 42, "duration": 10, "velocity": 76}, {"time": 108478, "pitch": 40, "duration": 20, "velocity": 120}, {"time": 108478, "pitch": 42, "duration": 10, "velocity": 91}, {"time": 108719, "pitch": 42, "duration": 10, "velocity": 93}, {"time": 108860, "pitch": 35, "duration": 10, "velocity": 114}, {"time": 108960, "pitch": 42, "duration": 10, "velocity": 89}, {"time": 109201, "pitch": 35, "duration": 21, "velocity": 118}, {"time": 109201, "pitch": 42, "duration": 11, "velocity": 89}, {"time": 109442, "pitch": 40, "duration": 20, "velocity": 122}, {"time": 109442, "pitch": 42, "duration": 10, "velocity": 91}, {"time": 109679, "pitch": 42, "duration": 10, "velocity": 93}, {"time": 109916, "pitch": 35, "duration": 20, "velocity": 114}, {"time": 109916, "pitch": 42, "duration": 10, "velocity": 91}, {"time": 110157, "pitch": 42, "duration": 10, "velocity": 76}, {"time": 110398, "pitch": 40, "duration": 21, "velocity": 120}, {"time": 110398, "pitch": 42, "duration": 10, "velocity": 91}, {"time": 110639, "pitch": 42, "duration": 11, "velocity": 93}, {"time": 110780, "pitch": 35, "duration": 10, "velocity": 114}, {"time": 110881, "pitch": 42, "duration": 10, "velocity": 89}, {"time": 111122, "pitch": 35, "duration": 20, "velocity": 118}, {"time": 111122, "pitch": 42, "duration": 10, "velocity": 89}, {"time": 111363, "pitch": 40, "duration": 19, "velocity": 122}, {"time": 111363, "pitch": 42, "duration": 9, "velocity": 91}, {"time": 111600, "pitch": 42, "duration": 9, "velocity": 93}, {"time": 111836, "pitch": 35, "duration": 20, "velocity": 114}, {"time": 111836, "pitch": 42, "duration": 10, "velocity": 91}, {"time": 112077, "pitch": 42, "duration": 10, "velocity": 76}, {"time": 112319, "pitch": 40, "duration": 20, "velocity": 120}, {"time": 112319, "pitch": 42, "duration": 10, "velocity": 91}, {"time": 112560, "pitch": 42, "duration": 10, "velocity": 93}, {"time": 112700, "pitch": 35, "duration": 10, "velocity": 114}, {"time": 112801, "pitch": 42, "duration": 10, "velocity": 89}, {"time": 113042, "pitch": 35, "duration": 30, "velocity": 118}, {"time": 113042, "pitch": 42, "duration": 20, "velocity": 89}, {"time": 113042, "pitch": 80, "duration": 10, "velocity": 98}, {"time": 113182, "pitch": 80, "duration": 10, "velocity": 98}, {"time": 113283, "pitch": 42, "duration": 10, "velocity": 91}, {"time": 113520, "pitch": 40, "duration": 29, "velocity": 122}, {"time": 113520, "pitch": 42, "duration": 19, "velocity": 93}, {"time": 113520, "pitch": 81, "duration": 9, "velocity": 98}, {"time": 113658, "pitch": 40, "duration": 20, "velocity": 122}, {"time": 113658, "pitch": 80, "duration": 10, "velocity": 98}, {"time": 113757, "pitch": 35, "duration": 20, "velocity": 114}, {"time": 113757, "pitch": 42, "duration": 10, "velocity": 91}, {"time": 113998, "pitch": 42, "duration": 10, "velocity": 76}, {"time": 114239, "pitch": 40, "duration": 20, "velocity": 120}, {"time": 114239, "pitch": 42, "duration": 10, "velocity": 91}, {"time": 114480, "pitch": 42, "duration": 10, "velocity": 93}, {"time": 114620, "pitch": 35, "duration": 10, "velocity": 114}, {"time": 114721, "pitch": 35, "duration": 20, "velocity": 114}, {"time": 114721, "pitch": 42, "duration": 10, "velocity": 89}, {"time": 114962, "pitch": 35, "duration": 20, "velocity": 118}, {"time": 114962, "pitch": 46, "duration": 10, "velocity": 89}, {"time": 115203, "pitch": 40, "duration": 19, "velocity": 122}, {"time": 115203, "pitch": 42, "duration": 10, "velocity": 91}, {"time": 115440, "pitch": 40, "duration": 19, "velocity": 122}, {"time": 115440, "pitch": 42, "duration": 10, "velocity": 93}, {"time": 115578, "pitch": 40, "duration": 10, "velocity": 122}, {"time": 115677, "pitch": 35, "duration": 20, "velocity": 114}, {"time": 115677, "pitch": 42, "duration": 10, "velocity": 91}, {"time": 115918, "pitch": 42, "duration": 10, "velocity": 76}, {"time": 116159, "pitch": 40, "duration": 20, "velocity": 120}, {"time": 116159, "pitch": 42, "duration": 10, "velocity": 91}, {"time": 116400, "pitch": 42, "duration": 10, "velocity": 93}, {"time": 116540, "pitch": 35, "duration": 10, "velocity": 114}, {"time": 116641, "pitch": 35, "duration": 20, "velocity": 118}, {"time": 116641, "pitch": 42, "duration": 10, "velocity": 89}, {"time": 116882, "pitch": 35, "duration": 20, "velocity": 118}, {"time": 116882, "pitch": 42, "duration": 10, "velocity": 89}, {"time": 117123, "pitch": 40, "duration": 20, "velocity": 122}, {"time": 117123, "pitch": 42, "duration": 10, "velocity": 91}, {"time": 117360, "pitch": 42, "duration": 19, "velocity": 93}, {"time": 117360, "pitch": 80, "duration": 10, "velocity": 86}, {"time": 117498, "pitch": 80, "duration": 10, "velocity": 100}, {"time": 117597, "pitch": 35, "duration": 20, "velocity": 114}, {"time": 117597, "pitch": 42, "duration": 10, "velocity": 91}, {"time": 117838, "pitch": 42, "duration": 10, "velocity": 76}, {"time": 118079, "pitch": 40, "duration": 20, "velocity": 120}, {"time": 118079, "pitch": 42, "duration": 10, "velocity": 91}, {"time": 118320, "pitch": 42, "duration": 10, "velocity": 93}, {"time": 118460, "pitch": 35, "duration": 10, "velocity": 114}, {"time": 118561, "pitch": 35, "duration": 20, "velocity": 118}, {"time": 118561, "pitch": 42, "duration": 10, "velocity": 89}, {"time": 118701, "pitch": 80, "duration": 10, "velocity": 22}, {"time": 118802, "pitch": 35, "duration": 30, "velocity": 118}, {"time": 118802, "pitch": 42, "duration": 20, "velocity": 89}, {"time": 118802, "pitch": 81, "duration": 10, "velocity": 102}, {"time": 118942, "pitch": 80, "duration": 11, "velocity": 64}, {"time": 119043, "pitch": 40, "duration": 20, "velocity": 122}, {"time": 119043, "pitch": 42, "duration": 10, "velocity": 91}, {"time": 119280, "pitch": 42, "duration": 20, "velocity": 93}, {"time": 119280, "pitch": 80, "duration": 10, "velocity": 86}, {"time": 119418, "pitch": 80, "duration": 10, "velocity": 100}, {"time": 119517, "pitch": 35, "duration": 20, "velocity": 114}, {"time": 119517, "pitch": 42, "duration": 10, "velocity": 91}, {"time": 119758, "pitch": 42, "duration": 10, "velocity": 76}, {"time": 119999, "pitch": 40, "duration": 20, "velocity": 120}, {"time": 119999, "pitch": 42, "duration": 10, "velocity": 91}, {"time": 120240, "pitch": 42, "duration": 10, "velocity": 93}, {"time": 120380, "pitch": 35, "duration": 11, "velocity": 114}, {"time": 120481, "pitch": 35, "duration": 20, "velocity": 118}, {"time": 120481, "pitch": 42, "duration": 10, "velocity": 89}, {"time": 120722, "pitch": 35, "duration": 20, "velocity": 118}, {"time": 120722, "pitch": 42, "duration": 10, "velocity": 89}, {"time": 120963, "pitch": 40, "duration": 20, "velocity": 122}, {"time": 120963, "pitch": 42, "duration": 10, "velocity": 91}, {"time": 121200, "pitch": 42, "duration": 20, "velocity": 93}, {"time": 121200, "pitch": 80, "duration": 10, "velocity": 86}, {"time": 121338, "pitch": 80, "duration": 10, "velocity": 100}, {"time": 121437, "pitch": 35, "duration": 20, "velocity": 114}, {"time": 121437, "pitch": 42, "duration": 10, "velocity": 91}, {"time": 121678, "pitch": 42, "duration": 10, "velocity": 76}, {"time": 121919, "pitch": 40, "duration": 20, "velocity": 120}, {"time": 121919, "pitch": 42, "duration": 10, "velocity": 91}, {"time": 122160, "pitch": 42, "duration": 10, "velocity": 93}, {"time": 122301, "pitch": 35, "duration": 10, "velocity": 114}, {"time": 122401, "pitch": 35, "duration": 20, "velocity": 118}, {"time": 122401, "pitch": 42, "duration": 10, "velocity": 89}, {"time": 122542, "pitch": 80, "duration": 10, "velocity": 30}, {"time": 122642, "pitch": 35, "duration": 30, "velocity": 118}, {"time": 122642, "pitch": 42, "duration": 20, "velocity": 89}, {"time": 122642, "pitch": 81, "duration": 10, "velocity": 87}, {"time": 122783, "pitch": 80, "duration": 10, "velocity": 87}, {"time": 122883, "pitch": 40, "duration": 20, "velocity": 122}, {"time": 122883, "pitch": 42, "duration": 10, "velocity": 91}, {"time": 123120, "pitch": 42, "duration": 20, "velocity": 93}, {"time": 123120, "pitch": 80, "duration": 10, "velocity": 86}, {"time": 123258, "pitch": 80, "duration": 10, "velocity": 100}, {"time": 123357, "pitch": 35, "duration": 20, "velocity": 114}, {"time": 123357, "pitch": 42, "duration": 10, "velocity": 91}, {"time": 123598, "pitch": 42, "duration": 10, "velocity": 76}, {"time": 123839, "pitch": 40, "duration": 20, "velocity": 120}, {"time": 123839, "pitch": 42, "duration": 10, "velocity": 91}, {"time": 124080, "pitch": 42, "duration": 10, "velocity": 93}, {"time": 124221, "pitch": 35, "duration": 10, "velocity": 114}, {"time": 124321, "pitch": 35, "duration": 20, "velocity": 118}, {"time": 124321, "pitch": 42, "duration": 10, "velocity": 89}, {"time": 124562, "pitch": 35, "duration": 20, "velocity": 118}, {"time": 124562, "pitch": 42, "duration": 10, "velocity": 89}, {"time": 124803, "pitch": 40, "duration": 20, "velocity": 122}, {"time": 124803, "pitch": 42, "duration": 10, "velocity": 91}, {"time": 125040, "pitch": 42, "duration": 20, "velocity": 93}, {"time": 125040, "pitch": 80, "duration": 10, "velocity": 86}, {"time": 125178, "pitch": 80, "duration": 10, "velocity": 100}, {"time": 125277, "pitch": 35, "duration": 20, "velocity": 114}, {"time": 125277, "pitch": 42, "duration": 10, "velocity": 91}, {"time": 125518, "pitch": 42, "duration": 10, "velocity": 76}, {"time": 125759, "pitch": 40, "duration": 20, "velocity": 120}, {"time": 125759, "pitch": 42, "duration": 10, "velocity": 91}, {"time": 126000, "pitch": 42, "duration": 10, "velocity": 93}, {"time": 126141, "pitch": 35, "duration": 10, "velocity": 114}, {"time": 126241, "pitch": 35, "duration": 20, "velocity": 118}, {"time": 126241, "pitch": 42, "duration": 10, "velocity": 89}, {"time": 126382, "pitch": 80, "duration": 10, "velocity": 22}, {"time": 126482, "pitch": 35, "duration": 30, "velocity": 118}, {"time": 126482, "pitch": 42, "duration": 20, "velocity": 89}, {"time": 126482, "pitch": 81, "duration": 10, "velocity": 102}, {"time": 126623, "pitch": 80, "duration": 10, "velocity": 64}, {"time": 126723, "pitch": 40, "duration": 20, "velocity": 122}, {"time": 126723, "pitch": 42, "duration": 10, "velocity": 91}, {"time": 126960, "pitch": 42, "duration": 20, "velocity": 93}, {"time": 126960, "pitch": 80, "duration": 10, "velocity": 86}, {"time": 127098, "pitch": 80, "duration": 10, "velocity": 100}, {"time": 127197, "pitch": 35, "duration": 20, "velocity": 114}, {"time": 127197, "pitch": 42, "duration": 10, "velocity": 91}, {"time": 127438, "pitch": 42, "duration": 10, "velocity": 76}, {"time": 127679, "pitch": 35, "duration": 30, "velocity": 114}, {"time": 127679, "pitch": 40, "duration": 20, "velocity": 120}, {"time": 127679, "pitch": 42, "duration": 10, "velocity": 91}, {"time": 127920, "pitch": 42, "duration": 10, "velocity": 93}, {"time": 128161, "pitch": 35, "duration": 20, "velocity": 118}, {"time": 128161, "pitch": 42, "duration": 10, "velocity": 89}, {"time": 128402, "pitch": 35, "duration": 20, "velocity": 118}, {"time": 128402, "pitch": 42, "duration": 10, "velocity": 89}, {"time": 128643, "pitch": 40, "duration": 20, "velocity": 122}, {"time": 128643, "pitch": 42, "duration": 10, "velocity": 91}, {"time": 128880, "pitch": 42, "duration": 20, "velocity": 93}, {"time": 128880, "pitch": 80, "duration": 10, "velocity": 86}, {"time": 129018, "pitch": 46, "duration": 20, "velocity": 93}, {"time": 129018, "pitch": 80, "duration": 10, "velocity": 100}, {"time": 129117, "pitch": 35, "duration": 20, "velocity": 114}, {"time": 129117, "pitch": 42, "duration": 10, "velocity": 91}, {"time": 129599, "pitch": 40, "duration": 20, "velocity": 120}, {"time": 129599, "pitch": 42, "duration": 10, "velocity": 91}, {"time": 129840, "pitch": 42, "duration": 10, "velocity": 93}, {"time": 129981, "pitch": 35, "duration": 10, "velocity": 114}, {"time": 130081, "pitch": 35, "duration": 20, "velocity": 118}, {"time": 130081, "pitch": 42, "duration": 10, "velocity": 89}, {"time": 130222, "pitch": 80, "duration": 10, "velocity": 30}, {"time": 130322, "pitch": 35, "duration": 30, "velocity": 118}, {"time": 130322, "pitch": 42, "duration": 20, "velocity": 89}, {"time": 130322, "pitch": 81, "duration": 10, "velocity": 87}, {"time": 130463, "pitch": 80, "duration": 10, "velocity": 87}, {"time": 130563, "pitch": 40, "duration": 20, "velocity": 122}, {"time": 130563, "pitch": 42, "duration": 10, "velocity": 91}, {"time": 130702, "pitch": 35, "duration": 9, "velocity": 118}, {"time": 130800, "pitch": 40, "duration": 30, "velocity": 122}, {"time": 130800, "pitch": 42, "duration": 20, "velocity": 93}, {"time": 130800, "pitch": 80, "duration": 10, "velocity": 86}, {"time": 130939, "pitch": 35, "duration": 19, "velocity": 118}, {"time": 130939, "pitch": 80, "duration": 9, "velocity": 100}, {"time": 131037, "pitch": 35, "duration": 30, "velocity": 114}, {"time": 131037, "pitch": 42, "duration": 20, "velocity": 91}, {"time": 131037, "pitch": 81, "duration": 10, "velocity": 87}, {"time": 131278, "pitch": 42, "duration": 20, "velocity": 76}, {"time": 131278, "pitch": 80, "duration": 10, "velocity": 111}, {"time": 131419, "pitch": 80, "duration": 10, "velocity": 41}, {"time": 131519, "pitch": 40, "duration": 30, "velocity": 120}, {"time": 131519, "pitch": 42, "duration": 20, "velocity": 91}, {"time": 131519, "pitch": 81, "duration": 10, "velocity": 87}, {"time": 131760, "pitch": 35, "duration": 30, "velocity": 114}, {"time": 131760, "pitch": 42, "duration": 20, "velocity": 93}, {"time": 131760, "pitch": 80, "duration": 10, "velocity": 111}, {"time": 131901, "pitch": 80, "duration": 10, "velocity": 41}, {"time": 132001, "pitch": 42, "duration": 20, "velocity": 89}, {"time": 132001, "pitch": 81, "duration": 10, "velocity": 87}, {"time": 132242, "pitch": 35, "duration": 31, "velocity": 118}, {"time": 132242, "pitch": 42, "duration": 21, "velocity": 89}, {"time": 132242, "pitch": 80, "duration": 10, "velocity": 111}, {"time": 132383, "pitch": 80, "duration": 10, "velocity": 41}, {"time": 132483, "pitch": 40, "duration": 30, "velocity": 122}, {"time": 132483, "pitch": 42, "duration": 20, "velocity": 91}, {"time": 132483, "pitch": 81, "duration": 10, "velocity": 87}, {"time": 132720, "pitch": 42, "duration": 20, "velocity": 93}, {"time": 132720, "pitch": 80, "duration": 10, "velocity": 111}, {"time": 132859, "pitch": 35, "duration": 19, "velocity": 114}, {"time": 132859, "pitch": 80, "duration": 9, "velocity": 41}, {"time": 132957, "pitch": 35, "duration": 30, "velocity": 114}, {"time": 132957, "pitch": 42, "duration": 20, "velocity": 91}, {"time": 132957, "pitch": 81, "duration": 10, "velocity": 87}, {"time": 133198, "pitch": 42, "duration": 20, "velocity": 76}, {"time": 133198, "pitch": 80, "duration": 10, "velocity": 111}, {"time": 133339, "pitch": 80, "duration": 10, "velocity": 41}, {"time": 133439, "pitch": 40, "duration": 31, "velocity": 120}, {"time": 133439, "pitch": 42, "duration": 20, "velocity": 91}, {"time": 133439, "pitch": 81, "duration": 10, "velocity": 87}, {"time": 133680, "pitch": 35, "duration": 31, "velocity": 114}, {"time": 133680, "pitch": 42, "duration": 21, "velocity": 93}, {"time": 133680, "pitch": 80, "duration": 10, "velocity": 111}, {"time": 133821, "pitch": 80, "duration": 10, "velocity": 41}, {"time": 133921, "pitch": 42, "duration": 21, "velocity": 89}, {"time": 133921, "pitch": 81, "duration": 11, "velocity": 87}, {"time": 134163, "pitch": 35, "duration": 30, "velocity": 118}, {"time": 134163, "pitch": 42, "duration": 20, "velocity": 89}, {"time": 134163, "pitch": 80, "duration": 10, "velocity": 111}, {"time": 134303, "pitch": 80, "duration": 10, "velocity": 41}, {"time": 134403, "pitch": 40, "duration": 30, "velocity": 122}, {"time": 134403, "pitch": 42, "duration": 20, "velocity": 91}, {"time": 134403, "pitch": 81, "duration": 10, "velocity": 87}, {"time": 134640, "pitch": 42, "duration": 20, "velocity": 93}, {"time": 134640, "pitch": 80, "duration": 10, "velocity": 111}, {"time": 134779, "pitch": 35, "duration": 19, "velocity": 114}, {"time": 134779, "pitch": 80, "duration": 10, "velocity": 41}, {"time": 134877, "pitch": 35, "duration": 30, "velocity": 114}, {"time": 134877, "pitch": 42, "duration": 20, "velocity": 91}, {"time": 134877, "pitch": 81, "duration": 10, "velocity": 87}, {"time": 135118, "pitch": 42, "duration": 20, "velocity": 76}, {"time": 135118, "pitch": 80, "duration": 10, "velocity": 111}, {"time": 135259, "pitch": 80, "duration": 10, "velocity": 41}, {"time": 135359, "pitch": 40, "duration": 31, "velocity": 120}, {"time": 135359, "pitch": 42, "duration": 21, "velocity": 91}, {"time": 135359, "pitch": 81, "duration": 10, "velocity": 87}, {"time": 135600, "pitch": 35, "duration": 31, "velocity": 114}, {"time": 135600, "pitch": 42, "duration": 21, "velocity": 93}, {"time": 135600, "pitch": 80, "duration": 11, "velocity": 111}, {"time": 135741, "pitch": 80, "duration": 10, "velocity": 41}, {"time": 135842, "pitch": 42, "duration": 20, "velocity": 89}, {"time": 135842, "pitch": 81, "duration": 10, "velocity": 87}, {"time": 136083, "pitch": 35, "duration": 30, "velocity": 118}, {"time": 136083, "pitch": 42, "duration": 20, "velocity": 89}, {"time": 136083, "pitch": 80, "duration": 10, "velocity": 111}, {"time": 136223, "pitch": 80, "duration": 10, "velocity": 41}, {"time": 136324, "pitch": 40, "duration": 29, "velocity": 122}, {"time": 136324, "pitch": 42, "duration": 19, "velocity": 91}, {"time": 136324, "pitch": 81, "duration": 9, "velocity": 87}, {"time": 136561, "pitch": 42, "duration": 19, "velocity": 93}, {"time": 136561, "pitch": 80, "duration": 9, "velocity": 111}, {"time": 136699, "pitch": 35, "duration": 20, "velocity": 114}, {"time": 136699, "pitch": 80, "duration": 10, "velocity": 41}, {"time": 136797, "pitch": 35, "duration": 31, "velocity": 114}, {"time": 136797, "pitch": 42, "duration": 21, "velocity": 91}, {"time": 136797, "pitch": 81, "duration": 10, "velocity": 87}, {"time": 137038, "pitch": 42, "duration": 21, "velocity": 76}, {"time": 137038, "pitch": 80, "duration": 11, "velocity": 111}, {"time": 137179, "pitch": 80, "duration": 10, "velocity": 41}, {"time": 137280, "pitch": 40, "duration": 30, "velocity": 120}, {"time": 137280, "pitch": 42, "duration": 20, "velocity": 91}, {"time": 137280, "pitch": 81, "duration": 10, "velocity": 87}, {"time": 137521, "pitch": 35, "duration": 30, "velocity": 114}, {"time": 137521, "pitch": 42, "duration": 20, "velocity": 93}, {"time": 137521, "pitch": 80, "duration": 10, "velocity": 111}, {"time": 137661, "pitch": 80, "duration": 10, "velocity": 41}, {"time": 137762, "pitch": 42, "duration": 20, "velocity": 89}, {"time": 137762, "pitch": 81, "duration": 10, "velocity": 87}, {"time": 138003, "pitch": 35, "duration": 30, "velocity": 118}, {"time": 138003, "pitch": 42, "duration": 20, "velocity": 89}, {"time": 138003, "pitch": 80, "duration": 10, "velocity": 111}, {"time": 138143, "pitch": 80, "duration": 10, "velocity": 41}, {"time": 138244, "pitch": 40, "duration": 29, "velocity": 122}, {"time": 138244, "pitch": 42, "duration": 19, "velocity": 91}, {"time": 138244, "pitch": 81, "duration": 10, "velocity": 87}, {"time": 138481, "pitch": 42, "duration": 19, "velocity": 93}, {"time": 138481, "pitch": 80, "duration": 9, "velocity": 111}, {"time": 138619, "pitch": 35, "duration": 20, "velocity": 114}, {"time": 138619, "pitch": 80, "duration": 10, "velocity": 41}, {"time": 138718, "pitch": 35, "duration": 30, "velocity": 114}, {"time": 138718, "pitch": 42, "duration": 20, "velocity": 91}, {"time": 138718, "pitch": 81, "duration": 10, "velocity": 87}, {"time": 138959, "pitch": 42, "duration": 20, "velocity": 76}, {"time": 138959, "pitch": 80, "duration": 10, "velocity": 111}, {"time": 139099, "pitch": 80, "duration": 10, "velocity": 41}, {"time": 139200, "pitch": 40, "duration": 30, "velocity": 120}, {"time": 139200, "pitch": 42, "duration": 20, "velocity": 91}, {"time": 139200, "pitch": 81, "duration": 10, "velocity": 87}, {"time": 139441, "pitch": 35, "duration": 30, "velocity": 114}, {"time": 139441, "pitch": 42, "duration": 20, "velocity": 93}, {"time": 139441, "pitch": 80, "duration": 10, "velocity": 111}, {"time": 139581, "pitch": 80, "duration": 10, "velocity": 41}, {"time": 139682, "pitch": 42, "duration": 20, "velocity": 89}, {"time": 139682, "pitch": 81, "duration": 10, "velocity": 87}, {"time": 139923, "pitch": 35, "duration": 30, "velocity": 118}, {"time": 139923, "pitch": 42, "duration": 20, "velocity": 89}, {"time": 139923, "pitch": 80, "duration": 10, "velocity": 111}, {"time": 140063, "pitch": 80, "duration": 10, "velocity": 41}, {"time": 140164, "pitch": 40, "duration": 29, "velocity": 122}, {"time": 140164, "pitch": 42, "duration": 19, "velocity": 91}, {"time": 140164, "pitch": 81, "duration": 10, "velocity": 87}, {"time": 140401, "pitch": 42, "duration": 19, "velocity": 93}, {"time": 140401, "pitch": 80, "duration": 10, "velocity": 111}, {"time": 140539, "pitch": 35, "duration": 20, "velocity": 114}, {"time": 140539, "pitch": 80, "duration": 10, "velocity": 41}, {"time": 140638, "pitch": 35, "duration": 30, "velocity": 114}, {"time": 140638, "pitch": 42, "duration": 20, "velocity": 91}, {"time": 140638, "pitch": 81, "duration": 10, "velocity": 87}, {"time": 140879, "pitch": 42, "duration": 20, "velocity": 76}, {"time": 140879, "pitch": 80, "duration": 10, "velocity": 111}, {"time": 141019, "pitch": 80, "duration": 10, "velocity": 41}, {"time": 141120, "pitch": 40, "duration": 30, "velocity": 120}, {"time": 141120, "pitch": 42, "duration": 20, "velocity": 91}, {"time": 141120, "pitch": 81, "duration": 10, "velocity": 87}, {"time": 141361, "pitch": 35, "duration": 30, "velocity": 114}, {"time": 141361, "pitch": 42, "duration": 20, "velocity": 93}, {"time": 141361, "pitch": 80, "duration": 10, "velocity": 111}, {"time": 141501, "pitch": 80, "duration": 10, "velocity": 41}, {"time": 141602, "pitch": 42, "duration": 20, "velocity": 89}, {"time": 141602, "pitch": 81, "duration": 10, "velocity": 87}, {"time": 141843, "pitch": 35, "duration": 30, "velocity": 118}, {"time": 141843, "pitch": 42, "duration": 20, "velocity": 89}, {"time": 141843, "pitch": 80, "duration": 10, "velocity": 111}, {"time": 141983, "pitch": 80, "duration": 10, "velocity": 41}, {"time": 142084, "pitch": 40, "duration": 29, "velocity": 122}, {"time": 142084, "pitch": 42, "duration": 20, "velocity": 91}, {"time": 142084, "pitch": 81, "duration": 10, "velocity": 87}, {"time": 142321, "pitch": 42, "duration": 20, "velocity": 93}, {"time": 142321, "pitch": 80, "duration": 10, "velocity": 111}, {"time": 142459, "pitch": 35, "duration": 20, "velocity": 114}, {"time": 142459, "pitch": 80, "duration": 10, "velocity": 41}, {"time": 142558, "pitch": 35, "duration": 30, "velocity": 114}, {"time": 142558, "pitch": 42, "duration": 20, "velocity": 91}, {"time": 142558, "pitch": 81, "duration": 10, "velocity": 87}, {"time": 142799, "pitch": 42, "duration": 20, "velocity": 76}, {"time": 142799, "pitch": 80, "duration": 10, "velocity": 111}, {"time": 142939, "pitch": 80, "duration": 10, "velocity": 41}, {"time": 143040, "pitch": 40, "duration": 30, "velocity": 120}, {"time": 143040, "pitch": 42, "duration": 20, "velocity": 91}, {"time": 143040, "pitch": 81, "duration": 10, "velocity": 87}, {"time": 143281, "pitch": 35, "duration": 30, "velocity": 114}, {"time": 143281, "pitch": 42, "duration": 20, "velocity": 93}, {"time": 143281, "pitch": 80, "duration": 10, "velocity": 111}, {"time": 143421, "pitch": 80, "duration": 10, "velocity": 41}, {"time": 143522, "pitch": 42, "duration": 20, "velocity": 89}, {"time": 143522, "pitch": 81, "duration": 10, "velocity": 87}, {"time": 143763, "pitch": 35, "duration": 30, "velocity": 118}, {"time": 143763, "pitch": 42, "duration": 20, "velocity": 89}, {"time": 143763, "pitch": 80, "duration": 10, "velocity": 111}, {"time": 143904, "pitch": 80, "duration": 10, "velocity": 41}, {"time": 144004, "pitch": 40, "duration": 30, "velocity": 122}, {"time": 144004, "pitch": 42, "duration": 20, "velocity": 91}, {"time": 144004, "pitch": 81, "duration": 10, "velocity": 87}, {"time": 144241, "pitch": 42, "duration": 20, "velocity": 93}, {"time": 144241, "pitch": 80, "duration": 10, "velocity": 111}, {"time": 144379, "pitch": 35, "duration": 20, "velocity": 114}, {"time": 144379, "pitch": 80, "duration": 10, "velocity": 41}, {"time": 144478, "pitch": 35, "duration": 30, "velocity": 114}, {"time": 144478, "pitch": 42, "duration": 20, "velocity": 91}, {"time": 144478, "pitch": 81, "duration": 10, "velocity": 87}, {"time": 144719, "pitch": 42, "duration": 20, "velocity": 76}, {"time": 144719, "pitch": 80, "duration": 10, "velocity": 111}, {"time": 144859, "pitch": 80, "duration": 10, "velocity": 41}, {"time": 144960, "pitch": 40, "duration": 30, "velocity": 120}, {"time": 144960, "pitch": 42, "duration": 20, "velocity": 91}, {"time": 144960, "pitch": 81, "duration": 10, "velocity": 87}, {"time": 145201, "pitch": 35, "duration": 30, "velocity": 114}, {"time": 145201, "pitch": 42, "duration": 20, "velocity": 93}, {"time": 145201, "pitch": 80, "duration": 10, "velocity": 111}, {"time": 145342, "pitch": 80, "duration": 10, "velocity": 41}, {"time": 145442, "pitch": 42, "duration": 20, "velocity": 89}, {"time": 145442, "pitch": 81, "duration": 10, "velocity": 87}, {"time": 145683, "pitch": 35, "duration": 30, "velocity": 118}, {"time": 145683, "pitch": 42, "duration": 20, "velocity": 89}, {"time": 145683, "pitch": 80, "duration": 10, "velocity": 111}, {"time": 145824, "pitch": 80, "duration": 10, "velocity": 41}, {"time": 145924, "pitch": 40, "duration": 30, "velocity": 122}, {"time": 145924, "pitch": 42, "duration": 20, "velocity": 91}, {"time": 145924, "pitch": 81, "duration": 10, "velocity": 87}, {"time": 146062, "pitch": 40, "duration": 10, "velocity": 122}, {"time": 146161, "pitch": 40, "duration": 30, "velocity": 122}, {"time": 146161, "pitch": 42, "duration": 20, "velocity": 93}, {"time": 146161, "pitch": 80, "duration": 10, "velocity": 111}, {"time": 146299, "pitch": 35, "duration": 30, "velocity": 114}, {"time": 146299, "pitch": 40, "duration": 20, "velocity": 122}, {"time": 146299, "pitch": 80, "duration": 10, "velocity": 41}, {"time": 159119, "pitch": 80, "duration": 10, "velocity": 98}, {"time": 159258, "pitch": 80, "duration": 10, "velocity": 98}, {"time": 159597, "pitch": 81, "duration": 10, "velocity": 98}, {"time": 159738, "pitch": 80, "duration": 10, "velocity": 98}, {"time": 159838, "pitch": 35, "duration": 20, "velocity": 114}, {"time": 159838, "pitch": 42, "duration": 10, "velocity": 91}, {"time": 160079, "pitch": 42, "duration": 10, "velocity": 76}, {"time": 160320, "pitch": 40, "duration": 21, "velocity": 120}, {"time": 160320, "pitch": 42, "duration": 11, "velocity": 91}, {"time": 160562, "pitch": 42, "duration": 10, "velocity": 93}, {"time": 160702, "pitch": 35, "duration": 10, "velocity": 114}, {"time": 160803, "pitch": 35, "duration": 19, "velocity": 114}, {"time": 160803, "pitch": 42, "duration": 9, "velocity": 89}, {"time": 161039, "pitch": 35, "duration": 20, "velocity": 118}, {"time": 161039, "pitch": 46, "duration": 10, "velocity": 89}, {"time": 161276, "pitch": 40, "duration": 20, "velocity": 122}, {"time": 161276, "pitch": 42, "duration": 10, "velocity": 91}, {"time": 161517, "pitch": 40, "duration": 21, "velocity": 122}, {"time": 161517, "pitch": 42, "duration": 10, "velocity": 93}, {"time": 161658, "pitch": 40, "duration": 10, "velocity": 122}, {"time": 161758, "pitch": 35, "duration": 21, "velocity": 114}, {"time": 161758, "pitch": 42, "duration": 11, "velocity": 91}, {"time": 162000, "pitch": 42, "duration": 10, "velocity": 76}, {"time": 162241, "pitch": 40, "duration": 20, "velocity": 120}, {"time": 162241, "pitch": 42, "duration": 10, "velocity": 91}, {"time": 162482, "pitch": 42, "duration": 10, "velocity": 93}, {"time": 162622, "pitch": 35, "duration": 10, "velocity": 114}, {"time": 162723, "pitch": 35, "duration": 19, "velocity": 118}, {"time": 162723, "pitch": 42, "duration": 9, "velocity": 89}, {"time": 162960, "pitch": 35, "duration": 19, "velocity": 118}, {"time": 162960, "pitch": 42, "duration": 9, "velocity": 89}, {"time": 163197, "pitch": 40, "duration": 20, "velocity": 122}, {"time": 163197, "pitch": 42, "duration": 10, "velocity": 91}, {"time": 163438, "pitch": 42, "duration": 20, "velocity": 93}, {"time": 163438, "pitch": 80, "duration": 10, "velocity": 86}, {"time": 163578, "pitch": 80, "duration": 10, "velocity": 100}, {"time": 163679, "pitch": 35, "duration": 20, "velocity": 114}, {"time": 163679, "pitch": 42, "duration": 10, "velocity": 91}, {"time": 163920, "pitch": 42, "duration": 10, "velocity": 76}, {"time": 164161, "pitch": 40, "duration": 20, "velocity": 120}, {"time": 164161, "pitch": 42, "duration": 10, "velocity": 91}, {"time": 164402, "pitch": 42, "duration": 10, "velocity": 93}, {"time": 164542, "pitch": 35, "duration": 10, "velocity": 114}, {"time": 164643, "pitch": 35, "duration": 19, "velocity": 118}, {"time": 164643, "pitch": 42, "duration": 10, "velocity": 89}, {"time": 164781, "pitch": 80, "duration": 10, "velocity": 22}, {"time": 164880, "pitch": 35, "duration": 29, "velocity": 118}, {"time": 164880, "pitch": 42, "duration": 19, "velocity": 89}, {"time": 164880, "pitch": 81, "duration": 10, "velocity": 102}, {"time": 165018, "pitch": 80, "duration": 10, "velocity": 64}, {"time": 165117, "pitch": 40, "duration": 20, "velocity": 122}, {"time": 165117, "pitch": 42, "duration": 10, "velocity": 91}, {"time": 165358, "pitch": 42, "duration": 20, "velocity": 93}, {"time": 165358, "pitch": 80, "duration": 10, "velocity": 86}, {"time": 165498, "pitch": 80, "duration": 10, "velocity": 100}, {"time": 165599, "pitch": 35, "duration": 20, "velocity": 114}, {"time": 165599, "pitch": 42, "duration": 10, "velocity": 91}, {"time": 165840, "pitch": 42, "duration": 10, "velocity": 76}, {"time": 166081, "pitch": 40, "duration": 20, "velocity": 120}, {"time": 166081, "pitch": 42, "duration": 10, "velocity": 91}, {"time": 166322, "pitch": 42, "duration": 10, "velocity": 93}, {"time": 166462, "pitch": 35, "duration": 10, "velocity": 114}, {"time": 166563, "pitch": 35, "duration": 20, "velocity": 118}, {"time": 166563, "pitch": 42, "duration": 10, "velocity": 89}, {"time": 166800, "pitch": 35, "duration": 19, "velocity": 118}, {"time": 166800, "pitch": 42, "duration": 10, "velocity": 89}, {"time": 167037, "pitch": 40, "duration": 20, "velocity": 122}, {"time": 167037, "pitch": 42, "duration": 10, "velocity": 91}, {"time": 167278, "pitch": 42, "duration": 20, "velocity": 93}, {"time": 167278, "pitch": 80, "duration": 10, "velocity": 86}, {"time": 167418, "pitch": 80, "duration": 10, "velocity": 100}, {"time": 167519, "pitch": 35, "duration": 20, "velocity": 114}, {"time": 167519, "pitch": 42, "duration": 10, "velocity": 91}, {"time": 167760, "pitch": 42, "duration": 10, "velocity": 76}, {"time": 168001, "pitch": 40, "duration": 20, "velocity": 120}, {"time": 168001, "pitch": 42, "duration": 10, "velocity": 91}, {"time": 168242, "pitch": 42, "duration": 10, "velocity": 93}, {"time": 168382, "pitch": 35, "duration": 11, "velocity": 114}, {"time": 168483, "pitch": 35, "duration": 20, "velocity": 118}, {"time": 168483, "pitch": 42, "duration": 10, "velocity": 89}, {"time": 168621, "pitch": 80, "duration": 10, "velocity": 30}, {"time": 168720, "pitch": 35, "duration": 29, "velocity": 118}, {"time": 168720, "pitch": 42, "duration": 20, "velocity": 89}, {"time": 168720, "pitch": 81, "duration": 10, "velocity": 87}, {"time": 168858, "pitch": 80, "duration": 10, "velocity": 87}, {"time": 168957, "pitch": 40, "duration": 20, "velocity": 122}, {"time": 168957, "pitch": 42, "duration": 10, "velocity": 91}, {"time": 169198, "pitch": 42, "duration": 20, "velocity": 93}, {"time": 169198, "pitch": 80, "duration": 10, "velocity": 86}, {"time": 169338, "pitch": 80, "duration": 10, "velocity": 100}, {"time": 169439, "pitch": 35, "duration": 20, "velocity": 114}, {"time": 169439, "pitch": 42, "duration": 10, "velocity": 91}, {"time": 169680, "pitch": 42, "duration": 10, "velocity": 76}, {"time": 169921, "pitch": 40, "duration": 20, "velocity": 120}, {"time": 169921, "pitch": 42, "duration": 10, "velocity": 91}, {"time": 170162, "pitch": 42, "duration": 10, "velocity": 93}, {"time": 170303, "pitch": 35, "duration": 10, "velocity": 114}, {"time": 170403, "pitch": 35, "duration": 20, "velocity": 118}, {"time": 170403, "pitch": 42, "duration": 10, "velocity": 89}, {"time": 170640, "pitch": 35, "duration": 20, "velocity": 118}, {"time": 170640, "pitch": 42, "duration": 10, "velocity": 89}, {"time": 170877, "pitch": 40, "duration": 20, "velocity": 122}, {"time": 170877, "pitch": 42, "duration": 10, "velocity": 91}, {"time": 171118, "pitch": 42, "duration": 20, "velocity": 93}, {"time": 171118, "pitch": 80, "duration": 10, "velocity": 86}, {"time": 171258, "pitch": 80, "duration": 10, "velocity": 100}, {"time": 171359, "pitch": 35, "duration": 20, "velocity": 114}, {"time": 171359, "pitch": 42, "duration": 10, "velocity": 91}, {"time": 171600, "pitch": 42, "duration": 10, "velocity": 76}, {"time": 171841, "pitch": 40, "duration": 20, "velocity": 120}, {"time": 171841, "pitch": 42, "duration": 10, "velocity": 91}, {"time": 172082, "pitch": 42, "duration": 10, "velocity": 93}, {"time": 172223, "pitch": 35, "duration": 10, "velocity": 114}, {"time": 172323, "pitch": 35, "duration": 20, "velocity": 118}, {"time": 172323, "pitch": 42, "duration": 10, "velocity": 89}, {"time": 172461, "pitch": 80, "duration": 10, "velocity": 22}, {"time": 172560, "pitch": 35, "duration": 30, "velocity": 118}, {"time": 172560, "pitch": 42, "duration": 20, "velocity": 89}, {"time": 172560, "pitch": 81, "duration": 10, "velocity": 102}, {"time": 172698, "pitch": 80, "duration": 10, "velocity": 64}, {"time": 172797, "pitch": 40, "duration": 20, "velocity": 122}, {"time": 172797, "pitch": 42, "duration": 10, "velocity": 91}, {"time": 173038, "pitch": 42, "duration": 20, "velocity": 93}, {"time": 173038, "pitch": 80, "duration": 10, "velocity": 86}, {"time": 173179, "pitch": 80, "duration": 10, "velocity": 100}, {"time": 173279, "pitch": 35, "duration": 20, "velocity": 114}, {"time": 173279, "pitch": 42, "duration": 10, "velocity": 91}, {"time": 173520, "pitch": 42, "duration": 10, "velocity": 76}, {"time": 173761, "pitch": 35, "duration": 30, "velocity": 114}, {"time": 173761, "pitch": 40, "duration": 20, "velocity": 120}, {"time": 173761, "pitch": 42, "duration": 10, "velocity": 91}, {"time": 174002, "pitch": 42, "duration": 10, "velocity": 93}, {"time": 174243, "pitch": 35, "duration": 20, "velocity": 118}, {"time": 174243, "pitch": 42, "duration": 10, "velocity": 89}, {"time": 174480, "pitch": 35, "duration": 20, "velocity": 118}, {"time": 174480, "pitch": 42, "duration": 10, "velocity": 89}, {"time": 174717, "pitch": 40, "duration": 20, "velocity": 122}, {"time": 174717, "pitch": 42, "duration": 10, "velocity": 91}, {"time": 174958, "pitch": 42, "duration": 20, "velocity": 93}, {"time": 174958, "pitch": 80, "duration": 10, "velocity": 86}, {"time": 175099, "pitch": 46, "duration": 20, "velocity": 93}, {"time": 175099, "pitch": 80, "duration": 10, "velocity": 100}, {"time": 175199, "pitch": 35, "duration": 20, "velocity": 114}, {"time": 175199, "pitch": 42, "duration": 10, "velocity": 91}, {"time": 175440, "pitch": 42, "duration": 10, "velocity": 76}, {"time": 175681, "pitch": 40, "duration": 20, "velocity": 120}, {"time": 175681, "pitch": 42, "duration": 10, "velocity": 91}, {"time": 175922, "pitch": 42, "duration": 10, "velocity": 93}, {"time": 176063, "pitch": 35, "duration": 10, "velocity": 114}, {"time": 176163, "pitch": 35, "duration": 20, "velocity": 118}, {"time": 176163, "pitch": 42, "duration": 10, "velocity": 89}, {"time": 176301, "pitch": 80, "duration": 10, "velocity": 30}, {"time": 176400, "pitch": 35, "duration": 30, "velocity": 118}, {"time": 176400, "pitch": 42, "duration": 20, "velocity": 89}, {"time": 176400, "pitch": 81, "duration": 10, "velocity": 87}, {"time": 176538, "pitch": 80, "duration": 10, "velocity": 87}, {"time": 176637, "pitch": 40, "duration": 20, "velocity": 122}, {"time": 176637, "pitch": 42, "duration": 10, "velocity": 91}, {"time": 176878, "pitch": 40, "duration": 30, "velocity": 122}, {"time": 176878, "pitch": 42, "duration": 20, "velocity": 93}, {"time": 176878, "pitch": 80, "duration": 10, "velocity": 86}, {"time": 177019, "pitch": 40, "duration": 20, "velocity": 92}, {"time": 177019, "pitch": 80, "duration": 10, "velocity": 100}, {"time": 177119, "pitch": 35, "duration": 30, "velocity": 114}, {"time": 177119, "pitch": 40, "duration": 20, "velocity": 102}, {"time": 177119, "pitch": 42, "duration": 10, "velocity": 91}, {"time": 177360, "pitch": 42, "duration": 10, "velocity": 76}, {"time": 177601, "pitch": 40, "duration": 20, "velocity": 120}, {"time": 177601, "pitch": 42, "duration": 10, "velocity": 91}, {"time": 177842, "pitch": 42, "duration": 10, "velocity": 93}, {"time": 177983, "pitch": 35, "duration": 10, "velocity": 114}, {"time": 178083, "pitch": 35, "duration": 20, "velocity": 118}, {"time": 178083, "pitch": 42, "duration": 10, "velocity": 89}, {"time": 178320, "pitch": 35, "duration": 20, "velocity": 118}, {"time": 178320, "pitch": 42, "duration": 10, "velocity": 89}, {"time": 178557, "pitch": 40, "duration": 20, "velocity": 122}, {"time": 178557, "pitch": 42, "duration": 10, "velocity": 91}, {"time": 178798, "pitch": 42, "duration": 20, "velocity": 93}, {"time": 178798, "pitch": 80, "duration": 10, "velocity": 86}, {"time": 178939, "pitch": 80, "duration": 10, "velocity": 100}, {"time": 179039, "pitch": 35, "duration": 20, "velocity": 114}, {"time": 179039, "pitch": 42, "duration": 10, "velocity": 91}, {"time": 179280, "pitch": 42, "duration": 10, "velocity": 76}, {"time": 179521, "pitch": 40, "duration": 20, "velocity": 120}, {"time": 179521, "pitch": 42, "duration": 10, "velocity": 91}, {"time": 179762, "pitch": 42, "duration": 10, "velocity": 93}, {"time": 179903, "pitch": 35, "duration": 10, "velocity": 114}, {"time": 180003, "pitch": 35, "duration": 20, "velocity": 118}, {"time": 180003, "pitch": 42, "duration": 10, "velocity": 89}, {"time": 180142, "pitch": 80, "duration": 9, "velocity": 22}, {"time": 180240, "pitch": 35, "duration": 30, "velocity": 118}, {"time": 180240, "pitch": 42, "duration": 20, "velocity": 89}, {"time": 180240, "pitch": 81, "duration": 10, "velocity": 102}, {"time": 180378, "pitch": 80, "duration": 10, "velocity": 64}, {"time": 180477, "pitch": 40, "duration": 20, "velocity": 122}, {"time": 180477, "pitch": 42, "duration": 10, "velocity": 91}, {"time": 180718, "pitch": 42, "duration": 20, "velocity": 93}, {"time": 180718, "pitch": 80, "duration": 10, "velocity": 86}, {"time": 180859, "pitch": 80, "duration": 10, "velocity": 100}, {"time": 180959, "pitch": 35, "duration": 20, "velocity": 114}, {"time": 180959, "pitch": 42, "duration": 10, "velocity": 91}, {"time": 181200, "pitch": 42, "duration": 10, "velocity": 76}, {"time": 181441, "pitch": 40, "duration": 20, "velocity": 120}, {"time": 181441, "pitch": 42, "duration": 10, "velocity": 91}, {"time": 181682, "pitch": 42, "duration": 10, "velocity": 93}, {"time": 181823, "pitch": 35, "duration": 10, "velocity": 114}, {"time": 181923, "pitch": 35, "duration": 20, "velocity": 118}, {"time": 181923, "pitch": 42, "duration": 10, "velocity": 89}, {"time": 182160, "pitch": 35, "duration": 20, "velocity": 118}, {"time": 182160, "pitch": 42, "duration": 10, "velocity": 89}, {"time": 182397, "pitch": 40, "duration": 20, "velocity": 122}, {"time": 182397, "pitch": 42, "duration": 10, "velocity": 91}, {"time": 182638, "pitch": 42, "duration": 20, "velocity": 93}, {"time": 182638, "pitch": 80, "duration": 10, "velocity": 86}, {"time": 182779, "pitch": 80, "duration": 10, "velocity": 100}, {"time": 182879, "pitch": 35, "duration": 20, "velocity": 114}, {"time": 182879, "pitch": 42, "duration": 10, "velocity": 91}, {"time": 183120, "pitch": 42, "duration": 10, "velocity": 76}, {"time": 183361, "pitch": 40, "duration": 21, "velocity": 120}, {"time": 183361, "pitch": 42, "duration": 10, "velocity": 91}, {"time": 183602, "pitch": 42, "duration": 11, "velocity": 93}, {"time": 183743, "pitch": 35, "duration": 10, "velocity": 114}, {"time": 183843, "pitch": 35, "duration": 20, "velocity": 118}, {"time": 183843, "pitch": 42, "duration": 10, "velocity": 89}, {"time": 183982, "pitch": 80, "duration": 10, "velocity": 30}, {"time": 184080, "pitch": 35, "duration": 30, "velocity": 118}, {"time": 184080, "pitch": 42, "duration": 20, "velocity": 89}, {"time": 184080, "pitch": 81, "duration": 10, "velocity": 87}, {"time": 184219, "pitch": 80, "duration": 10, "velocity": 87}, {"time": 184317, "pitch": 40, "duration": 20, "velocity": 122}, {"time": 184317, "pitch": 42, "duration": 10, "velocity": 91}, {"time": 184558, "pitch": 42, "duration": 20, "velocity": 93}, {"time": 184558, "pitch": 80, "duration": 10, "velocity": 86}, {"time": 184699, "pitch": 80, "duration": 10, "velocity": 100}, {"time": 184799, "pitch": 35, "duration": 21, "velocity": 114}, {"time": 184799, "pitch": 42, "duration": 10, "velocity": 91}, {"time": 185040, "pitch": 42, "duration": 11, "velocity": 76}, {"time": 185282, "pitch": 40, "duration": 20, "velocity": 120}, {"time": 185282, "pitch": 42, "duration": 10, "velocity": 91}, {"time": 185523, "pitch": 42, "duration": 10, "velocity": 93}, {"time": 185663, "pitch": 35, "duration": 10, "velocity": 114}, {"time": 185764, "pitch": 35, "duration": 19, "velocity": 118}, {"time": 185764, "pitch": 42, "duration": 9, "velocity": 89}, {"time": 186001, "pitch": 35, "duration": 19, "velocity": 118}, {"time": 186001, "pitch": 42, "duration": 9, "velocity": 89}, {"time": 186237, "pitch": 40, "duration": 21, "velocity": 122}, {"time": 186237, "pitch": 42, "duration": 10, "velocity": 91}, {"time": 186478, "pitch": 42, "duration": 21, "velocity": 93}, {"time": 186478, "pitch": 80, "duration": 11, "velocity": 86}, {"time": 186619, "pitch": 80, "duration": 10, "velocity": 100}, {"time": 186720, "pitch": 35, "duration": 20, "velocity": 114}, {"time": 186720, "pitch": 42, "duration": 10, "velocity": 91}, {"time": 186961, "pitch": 42, "duration": 10, "velocity": 76}, {"time": 187202, "pitch": 40, "duration": 20, "velocity": 120}, {"time": 187202, "pitch": 42, "duration": 10, "velocity": 91}, {"time": 187443, "pitch": 42, "duration": 10, "velocity": 93}, {"time": 187583, "pitch": 35, "duration": 10, "velocity": 114}, {"time": 187684, "pitch": 35, "duration": 19, "velocity": 118}, {"time": 187684, "pitch": 42, "duration": 9, "velocity": 89}, {"time": 187822, "pitch": 80, "duration": 10, "velocity": 22}, {"time": 187921, "pitch": 35, "duration": 29, "velocity": 118}, {"time": 187921, "pitch": 42, "duration": 19, "velocity": 89}, {"time": 187921, "pitch": 81, "duration": 9, "velocity": 102}, {"time": 188059, "pitch": 80, "duration": 10, "velocity": 64}, {"time": 188158, "pitch": 40, "duration": 20, "velocity": 122}, {"time": 188158, "pitch": 42, "duration": 10, "velocity": 91}, {"time": 188399, "pitch": 42, "duration": 20, "velocity": 93}, {"time": 188399, "pitch": 80, "duration": 10, "velocity": 86}, {"time": 188539, "pitch": 80, "duration": 10, "velocity": 100}, {"time": 188640, "pitch": 35, "duration": 20, "velocity": 114}, {"time": 188640, "pitch": 42, "duration": 10, "velocity": 91}, {"time": 188881, "pitch": 42, "duration": 10, "velocity": 76}, {"time": 189122, "pitch": 35, "duration": 30, "velocity": 114}, {"time": 189122, "pitch": 40, "duration": 20, "velocity": 120}, {"time": 189122, "pitch": 42, "duration": 10, "velocity": 91}, {"time": 189363, "pitch": 42, "duration": 10, "velocity": 93}, {"time": 189604, "pitch": 35, "duration": 19, "velocity": 118}, {"time": 189604, "pitch": 42, "duration": 10, "velocity": 89}, {"time": 189841, "pitch": 35, "duration": 19, "velocity": 118}, {"time": 189841, "pitch": 42, "duration": 10, "velocity": 89}, {"time": 190078, "pitch": 40, "duration": 20, "velocity": 122}, {"time": 190078, "pitch": 42, "duration": 10, "velocity": 91}, {"time": 190319, "pitch": 42, "duration": 20, "velocity": 93}, {"time": 190319, "pitch": 80, "duration": 10, "velocity": 86}, {"time": 190459, "pitch": 46, "duration": 20, "velocity": 93}, {"time": 190459, "pitch": 80, "duration": 10, "velocity": 100}, {"time": 190560, "pitch": 35, "duration": 20, "velocity": 114}, {"time": 190560, "pitch": 42, "duration": 10, "velocity": 91}, {"time": 191042, "pitch": 40, "duration": 20, "velocity": 120}, {"time": 191042, "pitch": 42, "duration": 10, "velocity": 91}, {"time": 191283, "pitch": 42, "duration": 10, "velocity": 93}, {"time": 191423, "pitch": 35, "duration": 10, "velocity": 114}, {"time": 191524, "pitch": 35, "duration": 20, "velocity": 118}, {"time": 191524, "pitch": 42, "duration": 10, "velocity": 89}, {"time": 191662, "pitch": 80, "duration": 10, "velocity": 30}, {"time": 191761, "pitch": 35, "duration": 29, "velocity": 118}, {"time": 191761, "pitch": 42, "duration": 19, "velocity": 89}, {"time": 191761, "pitch": 81, "duration": 10, "velocity": 87}, {"time": 191899, "pitch": 80, "duration": 10, "velocity": 87}, {"time": 191998, "pitch": 40, "duration": 20, "velocity": 122}, {"time": 191998, "pitch": 42, "duration": 10, "velocity": 91}, {"time": 192239, "pitch": 42, "duration": 20, "velocity": 93}, {"time": 192239, "pitch": 80, "duration": 10, "velocity": 86}, {"time": 192379, "pitch": 40, "duration": 20, "velocity": 122}, {"time": 192379, "pitch": 80, "duration": 10, "velocity": 100}, {"time": 192480, "pitch": 35, "duration": 20, "velocity": 120}, {"time": 192480, "pitch": 42, "duration": 10, "velocity": 89}, {"time": 192721, "pitch": 42, "duration": 10, "velocity": 66}, {"time": 192962, "pitch": 40, "duration": 20, "velocity": 120}, {"time": 192962, "pitch": 42, "duration": 10, "velocity": 89}, {"time": 193203, "pitch": 42, "duration": 10, "velocity": 84}, {"time": 193343, "pitch": 35, "duration": 11, "velocity": 110}, {"time": 193444, "pitch": 35, "duration": 20, "velocity": 118}, {"time": 193444, "pitch": 42, "duration": 10, "velocity": 89}, {"time": 193681, "pitch": 35, "duration": 20, "velocity": 124}, {"time": 193681, "pitch": 42, "duration": 10, "velocity": 76}, {"time": 193918, "pitch": 40, "duration": 20, "velocity": 125}, {"time": 193918, "pitch": 42, "duration": 10, "velocity": 84}, {"time": 194159, "pitch": 42, "duration": 20, "velocity": 89}, {"time": 194159, "pitch": 80, "duration": 10, "velocity": 86}, {"time": 194299, "pitch": 80, "duration": 10, "velocity": 100}, {"time": 194400, "pitch": 35, "duration": 20, "velocity": 114}, {"time": 194400, "pitch": 42, "duration": 10, "velocity": 91}, {"time": 194641, "pitch": 42, "duration": 10, "velocity": 76}, {"time": 194882, "pitch": 40, "duration": 20, "velocity": 120}, {"time": 194882, "pitch": 42, "duration": 10, "velocity": 91}, {"time": 195123, "pitch": 42, "duration": 10, "velocity": 93}, {"time": 195264, "pitch": 35, "duration": 10, "velocity": 114}, {"time": 195364, "pitch": 42, "duration": 10, "velocity": 89}, {"time": 195502, "pitch": 80, "duration": 10, "velocity": 30}, {"time": 195601, "pitch": 35, "duration": 30, "velocity": 118}, {"time": 195601, "pitch": 42, "duration": 20, "velocity": 89}, {"time": 195601, "pitch": 81, "duration": 10, "velocity": 87}, {"time": 195739, "pitch": 80, "duration": 10, "velocity": 87}, {"time": 195838, "pitch": 40, "duration": 20, "velocity": 122}, {"time": 195838, "pitch": 42, "duration": 10, "velocity": 91}, {"time": 196079, "pitch": 29, "duration": 20, "velocity": 60}, {"time": 196079, "pitch": 42, "duration": 10, "velocity": 93}, {"time": 196219, "pitch": 30, "duration": 11, "velocity": 60}, {"time": 196320, "pitch": 35, "duration": 20, "velocity": 120}, {"time": 196320, "pitch": 42, "duration": 10, "velocity": 89}, {"time": 196561, "pitch": 42, "duration": 10, "velocity": 66}, {"time": 196802, "pitch": 40, "duration": 20, "velocity": 120}, {"time": 196802, "pitch": 42, "duration": 10, "velocity": 89}, {"time": 197043, "pitch": 42, "duration": 10, "velocity": 84}, {"time": 197184, "pitch": 35, "duration": 10, "velocity": 110}, {"time": 197284, "pitch": 35, "duration": 20, "velocity": 118}, {"time": 197284, "pitch": 42, "duration": 10, "velocity": 89}, {"time": 197521, "pitch": 35, "duration": 20, "velocity": 124}, {"time": 197521, "pitch": 42, "duration": 10, "velocity": 76}, {"time": 197758, "pitch": 40, "duration": 20, "velocity": 125}, {"time": 197758, "pitch": 42, "duration": 10, "velocity": 84}, {"time": 197999, "pitch": 42, "duration": 20, "velocity": 89}, {"time": 197999, "pitch": 80, "duration": 10, "velocity": 86}, {"time": 198140, "pitch": 80, "duration": 10, "velocity": 100}, {"time": 198240, "pitch": 35, "duration": 20, "velocity": 114}, {"time": 198240, "pitch": 42, "duration": 10, "velocity": 91}, {"time": 198481, "pitch": 42, "duration": 10, "velocity": 76}, {"time": 198722, "pitch": 40, "duration": 20, "velocity": 120}, {"time": 198722, "pitch": 42, "duration": 10, "velocity": 91}, {"time": 198959, "pitch": 42, "duration": 10, "velocity": 93}, {"time": 199097, "pitch": 35, "duration": 10, "velocity": 114}, {"time": 199196, "pitch": 42, "duration": 10, "velocity": 89}, {"time": 199336, "pitch": 80, "duration": 11, "velocity": 30}, {"time": 199437, "pitch": 35, "duration": 30, "velocity": 118}, {"time": 199437, "pitch": 42, "duration": 20, "velocity": 89}, {"time": 199437, "pitch": 81, "duration": 10, "velocity": 87}, {"time": 199578, "pitch": 80, "duration": 10, "velocity": 87}, {"time": 199678, "pitch": 29, "duration": 30, "velocity": 60}, {"time": 199678, "pitch": 40, "duration": 20, "velocity": 122}, {"time": 199678, "pitch": 42, "duration": 10, "velocity": 91}, {"time": 199819, "pitch": 30, "duration": 10, "velocity": 60}, {"time": 199919, "pitch": 29, "duration": 20, "velocity": 60}, {"time": 199919, "pitch": 42, "duration": 10, "velocity": 93}, {"time": 200060, "pitch": 30, "duration": 10, "velocity": 60}, {"time": 200160, "pitch": 35, "duration": 20, "velocity": 120}, {"time": 200160, "pitch": 42, "duration": 10, "velocity": 89}, {"time": 200401, "pitch": 42, "duration": 10, "velocity": 66}, {"time": 200642, "pitch": 40, "duration": 20, "velocity": 120}, {"time": 200642, "pitch": 42, "duration": 10, "velocity": 89}, {"time": 200879, "pitch": 42, "duration": 10, "velocity": 84}, {"time": 201017, "pitch": 35, "duration": 10, "velocity": 110}, {"time": 201116, "pitch": 35, "duration": 20, "velocity": 118}, {"time": 201116, "pitch": 42, "duration": 10, "velocity": 89}, {"time": 201357, "pitch": 35, "duration": 20, "velocity": 124}, {"time": 201357, "pitch": 42, "duration": 10, "velocity": 76}, {"time": 201598, "pitch": 40, "duration": 20, "velocity": 125}, {"time": 201598, "pitch": 42, "duration": 10, "velocity": 84}, {"time": 201839, "pitch": 42, "duration": 20, "velocity": 89}, {"time": 201839, "pitch": 80, "duration": 10, "velocity": 86}, {"time": 201980, "pitch": 80, "duration": 10, "velocity": 100}, {"time": 202080, "pitch": 35, "duration": 20, "velocity": 114}, {"time": 202080, "pitch": 42, "duration": 10, "velocity": 91}, {"time": 202321, "pitch": 42, "duration": 10, "velocity": 76}, {"time": 202562, "pitch": 40, "duration": 20, "velocity": 120}, {"time": 202562, "pitch": 42, "duration": 10, "velocity": 91}, {"time": 202799, "pitch": 42, "duration": 10, "velocity": 93}, {"time": 202937, "pitch": 35, "duration": 10, "velocity": 114}, {"time": 203036, "pitch": 42, "duration": 10, "velocity": 89}, {"time": 203177, "pitch": 80, "duration": 10, "velocity": 30}, {"time": 203277, "pitch": 35, "duration": 30, "velocity": 118}, {"time": 203277, "pitch": 42, "duration": 20, "velocity": 89}, {"time": 203277, "pitch": 81, "duration": 10, "velocity": 87}, {"time": 203418, "pitch": 80, "duration": 10, "velocity": 87}, {"time": 203518, "pitch": 40, "duration": 20, "velocity": 122}, {"time": 203518, "pitch": 42, "duration": 10, "velocity": 91}, {"time": 203759, "pitch": 29, "duration": 20, "velocity": 60}, {"time": 203759, "pitch": 42, "duration": 10, "velocity": 93}, {"time": 203900, "pitch": 30, "duration": 10, "velocity": 60}, {"time": 204000, "pitch": 35, "duration": 20, "velocity": 120}, {"time": 204000, "pitch": 42, "duration": 10, "velocity": 89}, {"time": 204241, "pitch": 42, "duration": 10, "velocity": 66}, {"time": 204482, "pitch": 40, "duration": 20, "velocity": 120}, {"time": 204482, "pitch": 42, "duration": 10, "velocity": 89}, {"time": 204719, "pitch": 42, "duration": 10, "velocity": 84}, {"time": 204857, "pitch": 35, "duration": 10, "velocity": 110}, {"time": 204956, "pitch": 35, "duration": 20, "velocity": 118}, {"time": 204956, "pitch": 42, "duration": 10, "velocity": 89}, {"time": 205197, "pitch": 35, "duration": 20, "velocity": 124}, {"time": 205197, "pitch": 42, "duration": 10, "velocity": 76}, {"time": 205438, "pitch": 40, "duration": 20, "velocity": 125}, {"time": 205438, "pitch": 42, "duration": 10, "velocity": 84}, {"time": 205679, "pitch": 42, "duration": 20, "velocity": 89}, {"time": 205679, "pitch": 80, "duration": 10, "velocity": 86}, {"time": 205820, "pitch": 80, "duration": 10, "velocity": 100}, {"time": 205920, "pitch": 35, "duration": 20, "velocity": 114}, {"time": 205920, "pitch": 42, "duration": 10, "velocity": 91}, {"time": 206161, "pitch": 42, "duration": 10, "velocity": 76}, {"time": 206402, "pitch": 40, "duration": 20, "velocity": 120}, {"time": 206402, "pitch": 42, "duration": 10, "velocity": 91}, {"time": 206639, "pitch": 42, "duration": 10, "velocity": 93}, {"time": 206778, "pitch": 35, "duration": 9, "velocity": 114}, {"time": 206876, "pitch": 42, "duration": 10, "velocity": 89}, {"time": 207017, "pitch": 80, "duration": 10, "velocity": 30}, {"time": 207117, "pitch": 35, "duration": 30, "velocity": 118}, {"time": 207117, "pitch": 42, "duration": 20, "velocity": 89}, {"time": 207117, "pitch": 81, "duration": 10, "velocity": 87}, {"time": 207258, "pitch": 80, "duration": 10, "velocity": 87}, {"time": 207358, "pitch": 29, "duration": 30, "velocity": 60}, {"time": 207358, "pitch": 40, "duration": 20, "velocity": 122}, {"time": 207358, "pitch": 42, "duration": 10, "velocity": 91}, {"time": 207489, "pitch": 35, "duration": 10, "velocity": 118}, {"time": 207499, "pitch": 30, "duration": 10, "velocity": 60}, {"time": 207599, "pitch": 29, "duration": 20, "velocity": 60}, {"time": 207599, "pitch": 42, "duration": 10, "velocity": 93}, {"time": 207740, "pitch": 30, "duration": 20, "velocity": 60}, {"time": 207740, "pitch": 40, "duration": 10, "velocity": 122}], "annotations": [{"time": 292, "annotation": {"number": 7, "value": 120}, "group": "control_change"}, {"time": 313, "annotation": {"number": 11, "value": 110}, "group": "control_change"}, {"time": 334, "annotation": {"number": 91, "value": 20}, "group": "control_change"}, {"time": 355, "annotation": {"number": 101, "value": 127}, "group": "control_change"}, {"time": 376, "annotation": {"number": 100, "value": 127}, "group": "control_change"}]}, {"program": 0, "is_drum": false, "name": "DRUMS 2", "annotations": [{"time": 230, "annotation": {"number": 0, "value": 0}, "group": "control_change"}, {"time": 250, "annotation": {"number": 32, "value": 0}, "group": "control_change"}]}, {"program": 8, "is_drum": false, "name": "DRUMS 2", "notes": [{"time": 480, "pitch": 42, "duration": 10, "velocity": 21}, {"time": 721, "pitch": 42, "duration": 10, "velocity": 51}, {"time": 962, "pitch": 42, "duration": 10, "velocity": 21}, {"time": 1199, "pitch": 42, "duration": 10, "velocity": 51}, {"time": 1436, "pitch": 42, "duration": 10, "velocity": 21}, {"time": 1677, "pitch": 42, "duration": 10, "velocity": 51}, {"time": 1918, "pitch": 42, "duration": 10, "velocity": 21}, {"time": 2159, "pitch": 42, "duration": 10, "velocity": 51}, {"time": 2400, "pitch": 42, "duration": 10, "velocity": 21}, {"time": 2641, "pitch": 42, "duration": 10, "velocity": 51}, {"time": 2882, "pitch": 42, "duration": 10, "velocity": 21}, {"time": 3119, "pitch": 42, "duration": 10, "velocity": 51}, {"time": 3356, "pitch": 42, "duration": 10, "velocity": 21}, {"time": 3597, "pitch": 42, "duration": 10, "velocity": 51}, {"time": 3838, "pitch": 42, "duration": 10, "velocity": 21}, {"time": 4079, "pitch": 42, "duration": 10, "velocity": 51}, {"time": 4320, "pitch": 42, "duration": 10, "velocity": 21}, {"time": 4561, "pitch": 42, "duration": 10, "velocity": 51}, {"time": 4802, "pitch": 42, "duration": 10, "velocity": 21}, {"time": 5039, "pitch": 42, "duration": 10, "velocity": 51}, {"time": 5276, "pitch": 42, "duration": 10, "velocity": 21}, {"time": 5517, "pitch": 42, "duration": 10, "velocity": 51}, {"time": 5758, "pitch": 42, "duration": 10, "velocity": 21}, {"time": 5999, "pitch": 42, "duration": 10, "velocity": 51}, {"time": 6240, "pitch": 42, "duration": 10, "velocity": 21}, {"time": 6481, "pitch": 42, "duration": 10, "velocity": 51}, {"time": 6722, "pitch": 42, "duration": 10, "velocity": 21}, {"time": 6959, "pitch": 42, "duration": 10, "velocity": 51}, {"time": 7196, "pitch": 42, "duration": 10, "velocity": 21}, {"time": 7437, "pitch": 42, "duration": 10, "velocity": 51}, {"time": 7678, "pitch": 42, "duration": 10, "velocity": 21}, {"time": 7919, "pitch": 42, "duration": 10, "velocity": 51}, {"time": 8160, "pitch": 42, "duration": 10, "velocity": 21}, {"time": 8401, "pitch": 42, "duration": 10, "velocity": 51}, {"time": 8642, "pitch": 42, "duration": 10, "velocity": 21}, {"time": 8879, "pitch": 42, "duration": 10, "velocity": 51}, {"time": 9116, "pitch": 42, "duration": 10, "velocity": 21}, {"time": 9357, "pitch": 42, "duration": 10, "velocity": 51}, {"time": 9598, "pitch": 42, "duration": 10, "velocity": 21}, {"time": 9839, "pitch": 42, "duration": 10, "velocity": 51}, {"time": 10080, "pitch": 42, "duration": 11, "velocity": 21}, {"time": 10322, "pitch": 42, "duration": 10, "velocity": 51}, {"time": 10563, "pitch": 42, "duration": 9, "velocity": 21}, {"time": 10799, "pitch": 42, "duration": 10, "velocity": 51}, {"time": 11036, "pitch": 42, "duration": 10, "velocity": 21}, {"time": 11277, "pitch": 42, "duration": 10, "velocity": 51}, {"time": 11518, "pitch": 42, "duration": 11, "velocity": 21}, {"time": 11760, "pitch": 42, "duration": 10, "velocity": 51}, {"time": 12001, "pitch": 42, "duration": 10, "velocity": 21}, {"time": 12242, "pitch": 42, "duration": 10, "velocity": 51}, {"time": 12483, "pitch": 42, "duration": 9, "velocity": 21}, {"time": 12720, "pitch": 42, "duration": 9, "velocity": 51}, {"time": 12957, "pitch": 42, "duration": 10, "velocity": 21}, {"time": 13198, "pitch": 42, "duration": 10, "velocity": 51}, {"time": 13439, "pitch": 42, "duration": 10, "velocity": 21}, {"time": 13680, "pitch": 42, "duration": 10, "velocity": 51}, {"time": 13921, "pitch": 42, "duration": 10, "velocity": 21}, {"time": 14162, "pitch": 42, "duration": 10, "velocity": 51}, {"time": 14403, "pitch": 42, "duration": 10, "velocity": 21}, {"time": 14640, "pitch": 42, "duration": 10, "velocity": 51}, {"time": 14877, "pitch": 42, "duration": 10, "velocity": 21}, {"time": 15118, "pitch": 42, "duration": 10, "velocity": 51}, {"time": 15359, "pitch": 42, "duration": 10, "velocity": 21}, {"time": 15600, "pitch": 42, "duration": 10, "velocity": 51}, {"time": 15841, "pitch": 42, "duration": 20, "velocity": 79}, {"time": 15841, "pitch": 49, "duration": 10, "velocity": 97}, {"time": 15981, "pitch": 42, "duration": 10, "velocity": 36}, {"time": 16082, "pitch": 42, "duration": 10, "velocity": 74}, {"time": 16222, "pitch": 42, "duration": 10, "velocity": 55}, {"time": 16323, "pitch": 42, "duration": 10, "velocity": 89}, {"time": 16461, "pitch": 42, "duration": 10, "velocity": 62}, {"time": 16698, "pitch": 42, "duration": 10, "velocity": 56}, {"time": 16937, "pitch": 42, "duration": 10, "velocity": 77}, {"time": 17178, "pitch": 42, "duration": 10, "velocity": 56}, {"time": 17279, "pitch": 42, "duration": 10, "velocity": 88}, {"time": 17761, "pitch": 42, "duration": 10, "velocity": 79}, {"time": 17901, "pitch": 42, "duration": 10, "velocity": 36}, {"time": 18002, "pitch": 42, "duration": 10, "velocity": 74}, {"time": 18142, "pitch": 42, "duration": 10, "velocity": 55}, {"time": 18243, "pitch": 42, "duration": 10, "velocity": 89}, {"time": 18381, "pitch": 42, "duration": 10, "velocity": 62}, {"time": 18618, "pitch": 42, "duration": 10, "velocity": 56}, {"time": 18857, "pitch": 42, "duration": 10, "velocity": 77}, {"time": 19098, "pitch": 42, "duration": 10, "velocity": 56}, {"time": 19199, "pitch": 42, "duration": 10, "velocity": 88}, {"time": 19440, "pitch": 42, "duration": 10, "velocity": 88}, {"time": 19681, "pitch": 42, "duration": 10, "velocity": 79}, {"time": 19821, "pitch": 42, "duration": 11, "velocity": 36}, {"time": 19922, "pitch": 42, "duration": 10, "velocity": 74}, {"time": 20063, "pitch": 42, "duration": 10, "velocity": 55}, {"time": 20163, "pitch": 42, "duration": 10, "velocity": 89}, {"time": 20301, "pitch": 42, "duration": 10, "velocity": 62}, {"time": 20538, "pitch": 42, "duration": 10, "velocity": 56}, {"time": 20777, "pitch": 42, "duration": 10, "velocity": 77}, {"time": 21018, "pitch": 42, "duration": 10, "velocity": 56}, {"time": 21119, "pitch": 42, "duration": 10, "velocity": 88}, {"time": 21601, "pitch": 42, "duration": 10, "velocity": 79}, {"time": 21742, "pitch": 42, "duration": 10, "velocity": 36}, {"time": 21842, "pitch": 42, "duration": 10, "velocity": 74}, {"time": 21983, "pitch": 42, "duration": 10, "velocity": 55}, {"time": 22083, "pitch": 42, "duration": 10, "velocity": 89}, {"time": 22221, "pitch": 42, "duration": 10, "velocity": 62}, {"time": 22458, "pitch": 42, "duration": 10, "velocity": 56}, {"time": 22697, "pitch": 42, "duration": 11, "velocity": 77}, {"time": 22939, "pitch": 42, "duration": 10, "velocity": 56}, {"time": 23039, "pitch": 42, "duration": 10, "velocity": 88}, {"time": 23280, "pitch": 42, "duration": 10, "velocity": 88}, {"time": 23521, "pitch": 42, "duration": 10, "velocity": 79}, {"time": 23662, "pitch": 42, "duration": 10, "velocity": 36}, {"time": 23762, "pitch": 42, "duration": 10, "velocity": 74}, {"time": 23903, "pitch": 42, "duration": 10, "velocity": 55}, {"time": 24003, "pitch": 42, "duration": 10, "velocity": 89}, {"time": 24141, "pitch": 42, "duration": 10, "velocity": 62}, {"time": 24378, "pitch": 42, "duration": 10, "velocity": 56}, {"time": 24618, "pitch": 42, "duration": 10, "velocity": 77}, {"time": 24859, "pitch": 42, "duration": 10, "velocity": 56}, {"time": 24959, "pitch": 42, "duration": 10, "velocity": 88}, {"time": 25441, "pitch": 42, "duration": 10, "velocity": 79}, {"time": 25582, "pitch": 42, "duration": 10, "velocity": 36}, {"time": 25682, "pitch": 42, "duration": 10, "velocity": 74}, {"time": 25823, "pitch": 42, "duration": 10, "velocity": 55}, {"time": 25923, "pitch": 42, "duration": 10, "velocity": 89}, {"time": 26061, "pitch": 42, "duration": 10, "velocity": 62}, {"time": 26298, "pitch": 42, "duration": 10, "velocity": 56}, {"time": 26538, "pitch": 42, "duration": 10, "velocity": 77}, {"time": 26779, "pitch": 42, "duration": 10, "velocity": 56}, {"time": 26879, "pitch": 42, "duration": 10, "velocity": 88}, {"time": 27120, "pitch": 42, "duration": 10, "velocity": 88}, {"time": 27361, "pitch": 42, "duration": 10, "velocity": 79}, {"time": 27502, "pitch": 42, "duration": 10, "velocity": 36}, {"time": 27602, "pitch": 42, "duration": 10, "velocity": 74}, {"time": 27743, "pitch": 42, "duration": 10, "velocity": 55}, {"time": 27843, "pitch": 42, "duration": 10, "velocity": 89}, {"time": 27981, "pitch": 42, "duration": 10, "velocity": 62}, {"time": 28218, "pitch": 42, "duration": 10, "velocity": 56}, {"time": 28458, "pitch": 42, "duration": 10, "velocity": 77}, {"time": 28699, "pitch": 42, "duration": 10, "velocity": 56}, {"time": 28799, "pitch": 42, "duration": 10, "velocity": 88}, {"time": 29281, "pitch": 42, "duration": 10, "velocity": 79}, {"time": 29422, "pitch": 42, "duration": 10, "velocity": 36}, {"time": 29522, "pitch": 42, "duration": 10, "velocity": 74}, {"time": 29663, "pitch": 42, "duration": 10, "velocity": 55}, {"time": 29763, "pitch": 42, "duration": 10, "velocity": 89}, {"time": 29902, "pitch": 42, "duration": 9, "velocity": 62}, {"time": 30138, "pitch": 42, "duration": 10, "velocity": 56}, {"time": 30378, "pitch": 42, "duration": 10, "velocity": 77}, {"time": 30619, "pitch": 42, "duration": 10, "velocity": 56}, {"time": 30719, "pitch": 42, "duration": 10, "velocity": 88}, {"time": 30960, "pitch": 42, "duration": 10, "velocity": 88}, {"time": 31201, "pitch": 42, "duration": 10, "velocity": 79}, {"time": 31342, "pitch": 42, "duration": 10, "velocity": 36}, {"time": 31442, "pitch": 42, "duration": 10, "velocity": 74}, {"time": 31583, "pitch": 42, "duration": 10, "velocity": 55}, {"time": 31683, "pitch": 42, "duration": 10, "velocity": 89}, {"time": 31822, "pitch": 42, "duration": 9, "velocity": 62}, {"time": 32059, "pitch": 42, "duration": 9, "velocity": 56}, {"time": 32298, "pitch": 42, "duration": 10, "velocity": 77}, {"time": 32539, "pitch": 42, "duration": 10, "velocity": 56}, {"time": 32639, "pitch": 42, "duration": 10, "velocity": 88}, {"time": 32880, "pitch": 42, "duration": 10, "velocity": 88}, {"time": 33021, "pitch": 42, "duration": 10, "velocity": 88}, {"time": 33121, "pitch": 42, "duration": 10, "velocity": 79}, {"time": 33262, "pitch": 42, "duration": 10, "velocity": 36}, {"time": 33362, "pitch": 42, "duration": 11, "velocity": 74}, {"time": 33503, "pitch": 42, "duration": 10, "velocity": 55}, {"time": 33603, "pitch": 42, "duration": 10, "velocity": 89}, {"time": 33742, "pitch": 42, "duration": 10, "velocity": 62}, {"time": 33979, "pitch": 42, "duration": 10, "velocity": 56}, {"time": 34218, "pitch": 42, "duration": 10, "velocity": 77}, {"time": 34459, "pitch": 42, "duration": 10, "velocity": 56}, {"time": 34559, "pitch": 42, "duration": 10, "velocity": 88}, {"time": 34800, "pitch": 42, "duration": 11, "velocity": 88}, {"time": 34941, "pitch": 42, "duration": 10, "velocity": 88}, {"time": 35042, "pitch": 42, "duration": 10, "velocity": 79}, {"time": 35182, "pitch": 42, "duration": 10, "velocity": 36}, {"time": 35283, "pitch": 42, "duration": 10, "velocity": 74}, {"time": 35423, "pitch": 42, "duration": 10, "velocity": 55}, {"time": 35524, "pitch": 42, "duration": 9, "velocity": 89}, {"time": 35662, "pitch": 42, "duration": 10, "velocity": 62}, {"time": 35899, "pitch": 42, "duration": 10, "velocity": 56}, {"time": 36138, "pitch": 42, "duration": 10, "velocity": 77}, {"time": 36379, "pitch": 42, "duration": 10, "velocity": 56}, {"time": 36480, "pitch": 42, "duration": 10, "velocity": 88}, {"time": 36721, "pitch": 42, "duration": 10, "velocity": 88}, {"time": 36861, "pitch": 42, "duration": 10, "velocity": 88}, {"time": 36962, "pitch": 42, "duration": 10, "velocity": 79}, {"time": 37102, "pitch": 42, "duration": 10, "velocity": 36}, {"time": 37203, "pitch": 42, "duration": 10, "velocity": 74}, {"time": 37343, "pitch": 42, "duration": 10, "velocity": 55}, {"time": 37444, "pitch": 42, "duration": 9, "velocity": 89}, {"time": 37582, "pitch": 42, "duration": 10, "velocity": 62}, {"time": 37819, "pitch": 42, "duration": 10, "velocity": 56}, {"time": 38058, "pitch": 42, "duration": 10, "velocity": 77}, {"time": 38299, "pitch": 42, "duration": 10, "velocity": 56}, {"time": 38400, "pitch": 42, "duration": 10, "velocity": 88}, {"time": 38641, "pitch": 42, "duration": 10, "velocity": 88}, {"time": 38781, "pitch": 42, "duration": 10, "velocity": 88}, {"time": 38882, "pitch": 42, "duration": 10, "velocity": 79}, {"time": 39022, "pitch": 42, "duration": 10, "velocity": 36}, {"time": 39123, "pitch": 42, "duration": 10, "velocity": 74}, {"time": 39263, "pitch": 42, "duration": 10, "velocity": 55}, {"time": 39364, "pitch": 42, "duration": 10, "velocity": 89}, {"time": 39502, "pitch": 42, "duration": 10, "velocity": 62}, {"time": 39739, "pitch": 42, "duration": 10, "velocity": 56}, {"time": 39978, "pitch": 42, "duration": 10, "velocity": 77}, {"time": 40219, "pitch": 42, "duration": 10, "velocity": 56}, {"time": 40320, "pitch": 42, "duration": 10, "velocity": 88}, {"time": 40561, "pitch": 42, "duration": 10, "velocity": 88}, {"time": 40701, "pitch": 42, "duration": 10, "velocity": 88}, {"time": 40802, "pitch": 42, "duration": 10, "velocity": 79}, {"time": 40942, "pitch": 42, "duration": 10, "velocity": 36}, {"time": 41043, "pitch": 42, "duration": 10, "velocity": 74}, {"time": 41183, "pitch": 42, "duration": 10, "velocity": 55}, {"time": 41284, "pitch": 42, "duration": 10, "velocity": 89}, {"time": 41422, "pitch": 42, "duration": 10, "velocity": 62}, {"time": 41659, "pitch": 42, "duration": 10, "velocity": 56}, {"time": 41898, "pitch": 42, "duration": 10, "velocity": 77}, {"time": 42139, "pitch": 42, "duration": 10, "velocity": 56}, {"time": 42240, "pitch": 42, "duration": 10, "velocity": 88}, {"time": 42481, "pitch": 42, "duration": 10, "velocity": 88}, {"time": 42621, "pitch": 42, "duration": 10, "velocity": 88}, {"time": 42722, "pitch": 42, "duration": 10, "velocity": 79}, {"time": 42862, "pitch": 42, "duration": 10, "velocity": 36}, {"time": 42963, "pitch": 42, "duration": 10, "velocity": 74}, {"time": 43103, "pitch": 42, "duration": 11, "velocity": 55}, {"time": 43204, "pitch": 42, "duration": 10, "velocity": 89}, {"time": 43342, "pitch": 42, "duration": 10, "velocity": 62}, {"time": 43579, "pitch": 42, "duration": 10, "velocity": 56}, {"time": 43818, "pitch": 42, "duration": 10, "velocity": 77}, {"time": 44059, "pitch": 42, "duration": 10, "velocity": 56}, {"time": 44160, "pitch": 42, "duration": 10, "velocity": 88}, {"time": 44401, "pitch": 42, "duration": 10, "velocity": 88}, {"time": 44541, "pitch": 42, "duration": 11, "velocity": 88}, {"time": 44642, "pitch": 42, "duration": 10, "velocity": 79}, {"time": 44783, "pitch": 42, "duration": 10, "velocity": 36}, {"time": 44883, "pitch": 42, "duration": 10, "velocity": 74}, {"time": 45024, "pitch": 42, "duration": 10, "velocity": 55}, {"time": 45124, "pitch": 42, "duration": 10, "velocity": 89}, {"time": 45262, "pitch": 42, "duration": 10, "velocity": 62}, {"time": 45499, "pitch": 42, "duration": 10, "velocity": 56}, {"time": 45738, "pitch": 42, "duration": 10, "velocity": 77}, {"time": 45979, "pitch": 42, "duration": 11, "velocity": 56}, {"time": 46080, "pitch": 42, "duration": 10, "velocity": 88}, {"time": 46321, "pitch": 42, "duration": 10, "velocity": 88}, {"time": 46462, "pitch": 42, "duration": 10, "velocity": 88}, {"time": 46562, "pitch": 42, "duration": 20, "velocity": 79}, {"time": 46562, "pitch": 49, "duration": 10, "velocity": 97}, {"time": 46703, "pitch": 42, "duration": 10, "velocity": 36}, {"time": 46803, "pitch": 42, "duration": 10, "velocity": 74}, {"time": 46944, "pitch": 42, "duration": 10, "velocity": 55}, {"time": 47044, "pitch": 42, "duration": 10, "velocity": 89}, {"time": 47182, "pitch": 42, "duration": 10, "velocity": 62}, {"time": 47419, "pitch": 42, "duration": 10, "velocity": 56}, {"time": 47658, "pitch": 42, "duration": 11, "velocity": 77}, {"time": 47900, "pitch": 42, "duration": 10, "velocity": 56}, {"time": 48000, "pitch": 42, "duration": 10, "velocity": 88}, {"time": 48241, "pitch": 42, "duration": 10, "velocity": 88}, {"time": 48382, "pitch": 42, "duration": 10, "velocity": 88}, {"time": 48482, "pitch": 42, "duration": 10, "velocity": 79}, {"time": 48620, "pitch": 42, "duration": 10, "velocity": 36}, {"time": 48719, "pitch": 42, "duration": 10, "velocity": 74}, {"time": 48857, "pitch": 42, "duration": 10, "velocity": 55}, {"time": 48956, "pitch": 42, "duration": 10, "velocity": 89}, {"time": 49096, "pitch": 42, "duration": 11, "velocity": 62}, {"time": 49338, "pitch": 42, "duration": 10, "velocity": 56}, {"time": 49579, "pitch": 42, "duration": 10, "velocity": 77}, {"time": 49820, "pitch": 42, "duration": 10, "velocity": 56}, {"time": 49920, "pitch": 42, "duration": 10, "velocity": 88}, {"time": 50161, "pitch": 42, "duration": 10, "velocity": 88}, {"time": 50241, "pitch": 42, "duration": 10, "velocity": 65}, {"time": 50322, "pitch": 42, "duration": 10, "velocity": 76}, {"time": 50402, "pitch": 42, "duration": 10, "velocity": 79}, {"time": 50540, "pitch": 42, "duration": 10, "velocity": 36}, {"time": 50639, "pitch": 42, "duration": 10, "velocity": 74}, {"time": 50777, "pitch": 42, "duration": 10, "velocity": 55}, {"time": 50876, "pitch": 42, "duration": 10, "velocity": 89}, {"time": 51017, "pitch": 42, "duration": 10, "velocity": 62}, {"time": 51258, "pitch": 42, "duration": 10, "velocity": 56}, {"time": 51499, "pitch": 42, "duration": 10, "velocity": 77}, {"time": 51740, "pitch": 42, "duration": 10, "velocity": 56}, {"time": 51840, "pitch": 42, "duration": 10, "velocity": 88}, {"time": 52081, "pitch": 42, "duration": 10, "velocity": 88}, {"time": 52222, "pitch": 42, "duration": 10, "velocity": 88}, {"time": 52322, "pitch": 42, "duration": 10, "velocity": 79}, {"time": 52460, "pitch": 42, "duration": 10, "velocity": 36}, {"time": 52559, "pitch": 42, "duration": 10, "velocity": 74}, {"time": 52697, "pitch": 42, "duration": 10, "velocity": 55}, {"time": 52796, "pitch": 42, "duration": 10, "velocity": 89}, {"time": 52937, "pitch": 42, "duration": 10, "velocity": 62}, {"time": 53178, "pitch": 42, "duration": 10, "velocity": 56}, {"time": 53419, "pitch": 42, "duration": 10, "velocity": 77}, {"time": 53660, "pitch": 42, "duration": 10, "velocity": 56}, {"time": 53760, "pitch": 42, "duration": 10, "velocity": 88}, {"time": 54001, "pitch": 42, "duration": 10, "velocity": 88}, {"time": 54142, "pitch": 42, "duration": 10, "velocity": 88}, {"time": 54242, "pitch": 42, "duration": 20, "velocity": 79}, {"time": 54242, "pitch": 49, "duration": 10, "velocity": 97}, {"time": 54380, "pitch": 42, "duration": 10, "velocity": 36}, {"time": 54479, "pitch": 42, "duration": 10, "velocity": 74}, {"time": 54617, "pitch": 42, "duration": 10, "velocity": 55}, {"time": 54716, "pitch": 42, "duration": 10, "velocity": 89}, {"time": 54857, "pitch": 42, "duration": 10, "velocity": 62}, {"time": 55098, "pitch": 42, "duration": 10, "velocity": 56}, {"time": 55339, "pitch": 42, "duration": 10, "velocity": 77}, {"time": 55580, "pitch": 42, "duration": 10, "velocity": 56}, {"time": 55680, "pitch": 42, "duration": 10, "velocity": 88}, {"time": 55921, "pitch": 42, "duration": 10, "velocity": 88}, {"time": 56062, "pitch": 42, "duration": 10, "velocity": 88}, {"time": 56162, "pitch": 42, "duration": 10, "velocity": 79}, {"time": 56301, "pitch": 42, "duration": 9, "velocity": 36}, {"time": 56399, "pitch": 42, "duration": 10, "velocity": 74}, {"time": 56538, "pitch": 42, "duration": 9, "velocity": 55}, {"time": 56636, "pitch": 42, "duration": 10, "velocity": 89}, {"time": 56777, "pitch": 42, "duration": 10, "velocity": 62}, {"time": 57018, "pitch": 42, "duration": 10, "velocity": 56}, {"time": 57259, "pitch": 42, "duration": 10, "velocity": 77}, {"time": 57500, "pitch": 42, "duration": 10, "velocity": 56}, {"time": 57600, "pitch": 42, "duration": 10, "velocity": 88}, {"time": 57841, "pitch": 42, "duration": 10, "velocity": 88}, {"time": 57982, "pitch": 42, "duration": 10, "velocity": 88}, {"time": 58082, "pitch": 42, "duration": 10, "velocity": 79}, {"time": 58221, "pitch": 42, "duration": 10, "velocity": 36}, {"time": 58319, "pitch": 42, "duration": 10, "velocity": 74}, {"time": 58458, "pitch": 42, "duration": 9, "velocity": 55}, {"time": 58556, "pitch": 42, "duration": 10, "velocity": 89}, {"time": 58697, "pitch": 42, "duration": 10, "velocity": 62}, {"time": 58938, "pitch": 42, "duration": 10, "velocity": 56}, {"time": 59179, "pitch": 42, "duration": 10, "velocity": 77}, {"time": 59420, "pitch": 42, "duration": 10, "velocity": 56}, {"time": 59520, "pitch": 42, "duration": 10, "velocity": 88}, {"time": 59761, "pitch": 42, "duration": 11, "velocity": 88}, {"time": 59902, "pitch": 42, "duration": 10, "velocity": 88}, {"time": 60002, "pitch": 42, "duration": 10, "velocity": 79}, {"time": 60141, "pitch": 42, "duration": 10, "velocity": 36}, {"time": 60239, "pitch": 42, "duration": 10, "velocity": 74}, {"time": 60378, "pitch": 42, "duration": 10, "velocity": 55}, {"time": 60476, "pitch": 42, "duration": 10, "velocity": 89}, {"time": 60617, "pitch": 42, "duration": 10, "velocity": 62}, {"time": 60858, "pitch": 42, "duration": 10, "velocity": 56}, {"time": 61099, "pitch": 42, "duration": 10, "velocity": 77}, {"time": 61340, "pitch": 42, "duration": 10, "velocity": 56}, {"time": 61441, "pitch": 42, "duration": 10, "velocity": 88}, {"time": 61682, "pitch": 42, "duration": 10, "velocity": 88}, {"time": 61822, "pitch": 42, "duration": 10, "velocity": 88}, {"time": 61923, "pitch": 42, "duration": 19, "velocity": 57}, {"time": 61923, "pitch": 49, "duration": 9, "velocity": 97}, {"time": 62160, "pitch": 42, "duration": 9, "velocity": 88}, {"time": 62298, "pitch": 42, "duration": 10, "velocity": 52}, {"time": 62396, "pitch": 42, "duration": 10, "velocity": 57}, {"time": 62637, "pitch": 42, "duration": 11, "velocity": 88}, {"time": 62778, "pitch": 42, "duration": 10, "velocity": 52}, {"time": 62879, "pitch": 42, "duration": 10, "velocity": 57}, {"time": 63120, "pitch": 42, "duration": 10, "velocity": 88}, {"time": 63260, "pitch": 42, "duration": 10, "velocity": 52}, {"time": 63361, "pitch": 42, "duration": 10, "velocity": 57}, {"time": 63602, "pitch": 42, "duration": 10, "velocity": 88}, {"time": 63742, "pitch": 42, "duration": 10, "velocity": 52}, {"time": 63843, "pitch": 42, "duration": 10, "velocity": 57}, {"time": 64080, "pitch": 42, "duration": 9, "velocity": 88}, {"time": 64218, "pitch": 42, "duration": 10, "velocity": 52}, {"time": 64317, "pitch": 42, "duration": 10, "velocity": 57}, {"time": 64558, "pitch": 42, "duration": 10, "velocity": 88}, {"time": 64698, "pitch": 42, "duration": 10, "velocity": 52}, {"time": 64799, "pitch": 42, "duration": 10, "velocity": 57}, {"time": 65040, "pitch": 42, "duration": 10, "velocity": 88}, {"time": 65180, "pitch": 42, "duration": 10, "velocity": 52}, {"time": 65281, "pitch": 42, "duration": 10, "velocity": 57}, {"time": 65522, "pitch": 42, "duration": 10, "velocity": 88}, {"time": 65662, "pitch": 42, "duration": 10, "velocity": 52}, {"time": 65763, "pitch": 42, "duration": 10, "velocity": 57}, {"time": 66000, "pitch": 42, "duration": 10, "velocity": 88}, {"time": 66138, "pitch": 42, "duration": 10, "velocity": 52}, {"time": 66237, "pitch": 42, "duration": 10, "velocity": 57}, {"time": 66478, "pitch": 42, "duration": 10, "velocity": 88}, {"time": 66618, "pitch": 42, "duration": 10, "velocity": 52}, {"time": 66719, "pitch": 42, "duration": 10, "velocity": 57}, {"time": 66960, "pitch": 42, "duration": 10, "velocity": 88}, {"time": 67100, "pitch": 42, "duration": 10, "velocity": 52}, {"time": 67201, "pitch": 42, "duration": 10, "velocity": 57}, {"time": 67442, "pitch": 42, "duration": 10, "velocity": 88}, {"time": 67582, "pitch": 42, "duration": 10, "velocity": 52}, {"time": 67683, "pitch": 42, "duration": 10, "velocity": 57}, {"time": 67920, "pitch": 42, "duration": 10, "velocity": 88}, {"time": 68058, "pitch": 42, "duration": 10, "velocity": 52}, {"time": 68157, "pitch": 42, "duration": 10, "velocity": 57}, {"time": 68398, "pitch": 42, "duration": 10, "velocity": 88}, {"time": 68538, "pitch": 42, "duration": 10, "velocity": 52}, {"time": 68639, "pitch": 42, "duration": 10, "velocity": 57}, {"time": 68880, "pitch": 42, "duration": 10, "velocity": 88}, {"time": 69020, "pitch": 42, "duration": 10, "velocity": 52}, {"time": 69121, "pitch": 42, "duration": 10, "velocity": 57}, {"time": 69362, "pitch": 42, "duration": 10, "velocity": 88}, {"time": 69503, "pitch": 42, "duration": 10, "velocity": 52}, {"time": 69603, "pitch": 42, "duration": 20, "velocity": 57}, {"time": 69603, "pitch": 49, "duration": 10, "velocity": 97}, {"time": 69840, "pitch": 42, "duration": 10, "velocity": 88}, {"time": 69978, "pitch": 42, "duration": 10, "velocity": 52}, {"time": 70077, "pitch": 42, "duration": 10, "velocity": 57}, {"time": 70318, "pitch": 42, "duration": 10, "velocity": 88}, {"time": 70458, "pitch": 42, "duration": 10, "velocity": 52}, {"time": 70559, "pitch": 42, "duration": 10, "velocity": 57}, {"time": 70800, "pitch": 42, "duration": 10, "velocity": 88}, {"time": 70940, "pitch": 42, "duration": 11, "velocity": 52}, {"time": 71041, "pitch": 42, "duration": 10, "velocity": 57}, {"time": 71282, "pitch": 42, "duration": 10, "velocity": 88}, {"time": 71423, "pitch": 42, "duration": 10, "velocity": 52}, {"time": 71523, "pitch": 42, "duration": 10, "velocity": 57}, {"time": 71760, "pitch": 42, "duration": 10, "velocity": 88}, {"time": 71898, "pitch": 42, "duration": 10, "velocity": 52}, {"time": 71997, "pitch": 42, "duration": 10, "velocity": 57}, {"time": 72238, "pitch": 42, "duration": 10, "velocity": 88}, {"time": 72378, "pitch": 42, "duration": 11, "velocity": 52}, {"time": 72479, "pitch": 42, "duration": 10, "velocity": 57}, {"time": 72720, "pitch": 42, "duration": 10, "velocity": 88}, {"time": 72861, "pitch": 42, "duration": 10, "velocity": 52}, {"time": 72961, "pitch": 42, "duration": 10, "velocity": 57}, {"time": 73202, "pitch": 42, "duration": 10, "velocity": 88}, {"time": 73343, "pitch": 42, "duration": 10, "velocity": 52}, {"time": 73443, "pitch": 42, "duration": 10, "velocity": 57}, {"time": 73680, "pitch": 42, "duration": 10, "velocity": 88}, {"time": 73818, "pitch": 42, "duration": 10, "velocity": 52}, {"time": 73917, "pitch": 42, "duration": 10, "velocity": 57}, {"time": 74158, "pitch": 42, "duration": 10, "velocity": 88}, {"time": 74299, "pitch": 42, "duration": 10, "velocity": 52}, {"time": 74399, "pitch": 42, "duration": 10, "velocity": 57}, {"time": 74640, "pitch": 42, "duration": 10, "velocity": 88}, {"time": 74781, "pitch": 42, "duration": 10, "velocity": 52}, {"time": 74881, "pitch": 42, "duration": 10, "velocity": 57}, {"time": 75122, "pitch": 42, "duration": 10, "velocity": 88}, {"time": 75263, "pitch": 42, "duration": 10, "velocity": 52}, {"time": 75363, "pitch": 42, "duration": 10, "velocity": 79}, {"time": 75501, "pitch": 42, "duration": 10, "velocity": 36}, {"time": 75600, "pitch": 46, "duration": 10, "velocity": 92}, {"time": 75738, "pitch": 42, "duration": 10, "velocity": 55}, {"time": 75837, "pitch": 42, "duration": 20, "velocity": 89}, {"time": 75837, "pitch": 49, "duration": 10, "velocity": 97}, {"time": 76078, "pitch": 46, "duration": 10, "velocity": 90}, {"time": 76219, "pitch": 42, "duration": 10, "velocity": 56}, {"time": 76460, "pitch": 42, "duration": 10, "velocity": 77}, {"time": 76701, "pitch": 42, "duration": 10, "velocity": 56}, {"time": 76801, "pitch": 42, "duration": 10, "velocity": 88}, {"time": 77042, "pitch": 42, "duration": 10, "velocity": 88}, {"time": 77183, "pitch": 42, "duration": 10, "velocity": 88}, {"time": 77283, "pitch": 42, "duration": 10, "velocity": 79}, {"time": 77421, "pitch": 42, "duration": 10, "velocity": 36}, {"time": 77520, "pitch": 42, "duration": 10, "velocity": 74}, {"time": 77658, "pitch": 42, "duration": 10, "velocity": 55}, {"time": 77757, "pitch": 42, "duration": 10, "velocity": 89}, {"time": 77898, "pitch": 42, "duration": 10, "velocity": 62}, {"time": 78139, "pitch": 42, "duration": 10, "velocity": 56}, {"time": 78380, "pitch": 42, "duration": 10, "velocity": 77}, {"time": 78621, "pitch": 42, "duration": 10, "velocity": 56}, {"time": 78721, "pitch": 42, "duration": 10, "velocity": 88}, {"time": 79203, "pitch": 42, "duration": 10, "velocity": 79}, {"time": 79342, "pitch": 42, "duration": 9, "velocity": 36}, {"time": 79440, "pitch": 42, "duration": 10, "velocity": 74}, {"time": 79578, "pitch": 42, "duration": 10, "velocity": 55}, {"time": 79677, "pitch": 42, "duration": 10, "velocity": 89}, {"time": 79818, "pitch": 42, "duration": 10, "velocity": 62}, {"time": 80059, "pitch": 42, "duration": 10, "velocity": 56}, {"time": 80300, "pitch": 42, "duration": 10, "velocity": 77}, {"time": 80541, "pitch": 42, "duration": 10, "velocity": 56}, {"time": 80641, "pitch": 42, "duration": 10, "velocity": 88}, {"time": 80882, "pitch": 42, "duration": 10, "velocity": 88}, {"time": 81123, "pitch": 42, "duration": 10, "velocity": 79}, {"time": 81262, "pitch": 42, "duration": 9, "velocity": 36}, {"time": 81360, "pitch": 42, "duration": 10, "velocity": 74}, {"time": 81499, "pitch": 42, "duration": 9, "velocity": 55}, {"time": 81597, "pitch": 42, "duration": 10, "velocity": 89}, {"time": 81738, "pitch": 42, "duration": 10, "velocity": 62}, {"time": 81979, "pitch": 42, "duration": 10, "velocity": 56}, {"time": 82220, "pitch": 42, "duration": 10, "velocity": 77}, {"time": 82461, "pitch": 42, "duration": 10, "velocity": 56}, {"time": 82561, "pitch": 42, "duration": 10, "velocity": 88}, {"time": 83043, "pitch": 42, "duration": 10, "velocity": 79}, {"time": 83182, "pitch": 42, "duration": 10, "velocity": 36}, {"time": 83280, "pitch": 42, "duration": 10, "velocity": 74}, {"time": 83419, "pitch": 42, "duration": 9, "velocity": 55}, {"time": 83517, "pitch": 42, "duration": 10, "velocity": 89}, {"time": 83658, "pitch": 42, "duration": 10, "velocity": 62}, {"time": 83899, "pitch": 42, "duration": 10, "velocity": 56}, {"time": 84964, "pitch": 42, "duration": 9, "velocity": 79}, {"time": 85102, "pitch": 42, "duration": 10, "velocity": 36}, {"time": 85200, "pitch": 42, "duration": 10, "velocity": 74}, {"time": 85339, "pitch": 42, "duration": 10, "velocity": 55}, {"time": 85437, "pitch": 42, "duration": 10, "velocity": 89}, {"time": 85578, "pitch": 42, "duration": 10, "velocity": 62}, {"time": 85819, "pitch": 42, "duration": 10, "velocity": 56}, {"time": 86060, "pitch": 42, "duration": 10, "velocity": 77}, {"time": 86301, "pitch": 42, "duration": 10, "velocity": 56}, {"time": 86402, "pitch": 42, "duration": 10, "velocity": 88}, {"time": 86643, "pitch": 42, "duration": 10, "velocity": 88}, {"time": 86783, "pitch": 42, "duration": 10, "velocity": 88}, {"time": 86884, "pitch": 42, "duration": 9, "velocity": 79}, {"time": 87022, "pitch": 42, "duration": 10, "velocity": 36}, {"time": 87121, "pitch": 42, "duration": 9, "velocity": 74}, {"time": 87259, "pitch": 42, "duration": 10, "velocity": 55}, {"time": 87358, "pitch": 42, "duration": 10, "velocity": 89}, {"time": 87498, "pitch": 42, "duration": 10, "velocity": 62}, {"time": 87739, "pitch": 42, "duration": 10, "velocity": 56}, {"time": 87980, "pitch": 42, "duration": 10, "velocity": 77}, {"time": 88221, "pitch": 42, "duration": 10, "velocity": 56}, {"time": 88322, "pitch": 42, "duration": 10, "velocity": 88}, {"time": 88563, "pitch": 42, "duration": 10, "velocity": 88}, {"time": 88703, "pitch": 42, "duration": 10, "velocity": 88}, {"time": 88804, "pitch": 42, "duration": 10, "velocity": 79}, {"time": 88942, "pitch": 42, "duration": 10, "velocity": 36}, {"time": 89041, "pitch": 42, "duration": 10, "velocity": 74}, {"time": 89179, "pitch": 42, "duration": 10, "velocity": 55}, {"time": 89278, "pitch": 42, "duration": 10, "velocity": 89}, {"time": 89418, "pitch": 42, "duration": 10, "velocity": 62}, {"time": 89659, "pitch": 42, "duration": 10, "velocity": 56}, {"time": 89900, "pitch": 42, "duration": 10, "velocity": 77}, {"time": 90141, "pitch": 42, "duration": 10, "velocity": 56}, {"time": 90242, "pitch": 42, "duration": 10, "velocity": 88}, {"time": 90483, "pitch": 42, "duration": 10, "velocity": 88}, {"time": 90623, "pitch": 42, "duration": 10, "velocity": 88}, {"time": 90724, "pitch": 42, "duration": 10, "velocity": 79}, {"time": 90862, "pitch": 42, "duration": 10, "velocity": 36}, {"time": 90961, "pitch": 42, "duration": 10, "velocity": 74}, {"time": 91099, "pitch": 42, "duration": 10, "velocity": 55}, {"time": 91198, "pitch": 42, "duration": 10, "velocity": 89}, {"time": 91338, "pitch": 42, "duration": 10, "velocity": 62}, {"time": 91579, "pitch": 42, "duration": 10, "velocity": 56}, {"time": 91820, "pitch": 42, "duration": 10, "velocity": 77}, {"time": 92061, "pitch": 42, "duration": 10, "velocity": 56}, {"time": 92162, "pitch": 42, "duration": 10, "velocity": 88}, {"time": 92403, "pitch": 42, "duration": 10, "velocity": 88}, {"time": 92543, "pitch": 42, "duration": 11, "velocity": 88}, {"time": 92644, "pitch": 42, "duration": 10, "velocity": 79}, {"time": 92782, "pitch": 42, "duration": 10, "velocity": 36}, {"time": 92881, "pitch": 42, "duration": 10, "velocity": 74}, {"time": 93019, "pitch": 42, "duration": 10, "velocity": 55}, {"time": 93118, "pitch": 42, "duration": 10, "velocity": 89}, {"time": 93258, "pitch": 42, "duration": 10, "velocity": 62}, {"time": 93499, "pitch": 42, "duration": 10, "velocity": 56}, {"time": 93740, "pitch": 42, "duration": 10, "velocity": 77}, {"time": 93981, "pitch": 42, "duration": 10, "velocity": 56}, {"time": 94082, "pitch": 42, "duration": 10, "velocity": 88}, {"time": 94323, "pitch": 42, "duration": 10, "velocity": 88}, {"time": 94464, "pitch": 42, "duration": 10, "velocity": 88}, {"time": 94564, "pitch": 42, "duration": 10, "velocity": 79}, {"time": 94702, "pitch": 42, "duration": 10, "velocity": 36}, {"time": 94801, "pitch": 42, "duration": 10, "velocity": 74}, {"time": 94939, "pitch": 42, "duration": 10, "velocity": 55}, {"time": 95038, "pitch": 42, "duration": 10, "velocity": 89}, {"time": 95178, "pitch": 42, "duration": 10, "velocity": 62}, {"time": 95419, "pitch": 42, "duration": 10, "velocity": 56}, {"time": 95660, "pitch": 42, "duration": 11, "velocity": 77}, {"time": 95902, "pitch": 42, "duration": 10, "velocity": 56}, {"time": 96002, "pitch": 42, "duration": 10, "velocity": 88}, {"time": 96243, "pitch": 42, "duration": 10, "velocity": 88}, {"time": 96384, "pitch": 42, "duration": 10, "velocity": 88}, {"time": 96484, "pitch": 42, "duration": 10, "velocity": 79}, {"time": 96622, "pitch": 42, "duration": 10, "velocity": 36}, {"time": 96721, "pitch": 42, "duration": 10, "velocity": 74}, {"time": 96859, "pitch": 42, "duration": 10, "velocity": 55}, {"time": 96958, "pitch": 42, "duration": 10, "velocity": 89}, {"time": 97098, "pitch": 42, "duration": 11, "velocity": 62}, {"time": 97340, "pitch": 42, "duration": 10, "velocity": 56}, {"time": 97581, "pitch": 42, "duration": 10, "velocity": 77}, {"time": 97822, "pitch": 42, "duration": 10, "velocity": 56}, {"time": 97922, "pitch": 42, "duration": 10, "velocity": 88}, {"time": 98163, "pitch": 42, "duration": 10, "velocity": 88}, {"time": 98304, "pitch": 42, "duration": 10, "velocity": 88}, {"time": 98404, "pitch": 42, "duration": 10, "velocity": 79}, {"time": 98542, "pitch": 42, "duration": 10, "velocity": 36}, {"time": 98641, "pitch": 42, "duration": 10, "velocity": 74}, {"time": 98779, "pitch": 42, "duration": 10, "velocity": 55}, {"time": 98878, "pitch": 42, "duration": 10, "velocity": 89}, {"time": 99019, "pitch": 42, "duration": 10, "velocity": 62}, {"time": 99260, "pitch": 42, "duration": 10, "velocity": 56}, {"time": 99501, "pitch": 42, "duration": 10, "velocity": 77}, {"time": 99742, "pitch": 42, "duration": 10, "velocity": 56}, {"time": 99842, "pitch": 42, "duration": 10, "velocity": 88}, {"time": 100079, "pitch": 42, "duration": 10, "velocity": 88}, {"time": 100217, "pitch": 42, "duration": 10, "velocity": 88}, {"time": 100316, "pitch": 42, "duration": 20, "velocity": 79}, {"time": 100316, "pitch": 49, "duration": 10, "velocity": 97}, {"time": 100457, "pitch": 42, "duration": 10, "velocity": 36}, {"time": 100557, "pitch": 42, "duration": 10, "velocity": 74}, {"time": 100698, "pitch": 42, "duration": 10, "velocity": 55}, {"time": 100798, "pitch": 42, "duration": 10, "velocity": 89}, {"time": 100939, "pitch": 42, "duration": 10, "velocity": 62}, {"time": 101180, "pitch": 42, "duration": 10, "velocity": 56}, {"time": 101421, "pitch": 42, "duration": 10, "velocity": 77}, {"time": 101662, "pitch": 42, "duration": 10, "velocity": 56}, {"time": 101762, "pitch": 42, "duration": 10, "velocity": 88}, {"time": 101999, "pitch": 42, "duration": 10, "velocity": 88}, {"time": 102137, "pitch": 42, "duration": 10, "velocity": 88}, {"time": 102236, "pitch": 42, "duration": 10, "velocity": 79}, {"time": 102377, "pitch": 42, "duration": 10, "velocity": 36}, {"time": 102477, "pitch": 42, "duration": 10, "velocity": 74}, {"time": 102618, "pitch": 42, "duration": 10, "velocity": 55}, {"time": 102718, "pitch": 42, "duration": 10, "velocity": 89}, {"time": 102859, "pitch": 42, "duration": 10, "velocity": 62}, {"time": 103100, "pitch": 42, "duration": 10, "velocity": 56}, {"time": 103341, "pitch": 42, "duration": 10, "velocity": 77}, {"time": 103582, "pitch": 42, "duration": 10, "velocity": 56}, {"time": 103682, "pitch": 42, "duration": 10, "velocity": 88}, {"time": 103919, "pitch": 42, "duration": 10, "velocity": 88}, {"time": 103998, "pitch": 42, "duration": 10, "velocity": 65}, {"time": 104077, "pitch": 42, "duration": 10, "velocity": 76}, {"time": 104156, "pitch": 42, "duration": 10, "velocity": 79}, {"time": 104297, "pitch": 42, "duration": 10, "velocity": 36}, {"time": 104397, "pitch": 42, "duration": 10, "velocity": 74}, {"time": 104538, "pitch": 42, "duration": 10, "velocity": 55}, {"time": 104638, "pitch": 42, "duration": 10, "velocity": 89}, {"time": 104779, "pitch": 42, "duration": 10, "velocity": 62}, {"time": 105020, "pitch": 42, "duration": 10, "velocity": 56}, {"time": 105261, "pitch": 42, "duration": 10, "velocity": 77}, {"time": 105502, "pitch": 42, "duration": 10, "velocity": 56}, {"time": 105602, "pitch": 42, "duration": 10, "velocity": 88}, {"time": 105839, "pitch": 42, "duration": 10, "velocity": 88}, {"time": 105978, "pitch": 42, "duration": 9, "velocity": 88}, {"time": 106076, "pitch": 42, "duration": 10, "velocity": 79}, {"time": 106217, "pitch": 42, "duration": 10, "velocity": 36}, {"time": 106317, "pitch": 42, "duration": 10, "velocity": 74}, {"time": 106458, "pitch": 42, "duration": 10, "velocity": 55}, {"time": 106558, "pitch": 42, "duration": 10, "velocity": 89}, {"time": 106699, "pitch": 42, "duration": 10, "velocity": 62}, {"time": 106940, "pitch": 42, "duration": 10, "velocity": 56}, {"time": 107181, "pitch": 42, "duration": 10, "velocity": 77}, {"time": 107422, "pitch": 42, "duration": 10, "velocity": 56}, {"time": 107522, "pitch": 42, "duration": 10, "velocity": 88}, {"time": 107759, "pitch": 42, "duration": 10, "velocity": 88}, {"time": 107898, "pitch": 42, "duration": 9, "velocity": 88}, {"time": 107996, "pitch": 42, "duration": 20, "velocity": 79}, {"time": 107996, "pitch": 49, "duration": 10, "velocity": 97}, {"time": 108137, "pitch": 42, "duration": 10, "velocity": 36}, {"time": 108237, "pitch": 42, "duration": 10, "velocity": 74}, {"time": 108378, "pitch": 42, "duration": 10, "velocity": 55}, {"time": 108478, "pitch": 42, "duration": 10, "velocity": 89}, {"time": 108619, "pitch": 42, "duration": 10, "velocity": 62}, {"time": 108860, "pitch": 42, "duration": 10, "velocity": 56}, {"time": 109101, "pitch": 42, "duration": 10, "velocity": 77}, {"time": 109342, "pitch": 42, "duration": 10, "velocity": 56}, {"time": 109442, "pitch": 42, "duration": 10, "velocity": 88}, {"time": 109679, "pitch": 42, "duration": 10, "velocity": 88}, {"time": 109818, "pitch": 42, "duration": 10, "velocity": 88}, {"time": 109916, "pitch": 42, "duration": 10, "velocity": 79}, {"time": 110057, "pitch": 42, "duration": 10, "velocity": 36}, {"time": 110157, "pitch": 42, "duration": 10, "velocity": 74}, {"time": 110298, "pitch": 42, "duration": 10, "velocity": 55}, {"time": 110398, "pitch": 42, "duration": 10, "velocity": 89}, {"time": 110539, "pitch": 42, "duration": 10, "velocity": 62}, {"time": 110780, "pitch": 42, "duration": 10, "velocity": 56}, {"time": 111021, "pitch": 42, "duration": 10, "velocity": 77}, {"time": 111262, "pitch": 42, "duration": 10, "velocity": 56}, {"time": 111363, "pitch": 42, "duration": 9, "velocity": 88}, {"time": 111600, "pitch": 42, "duration": 9, "velocity": 88}, {"time": 111738, "pitch": 42, "duration": 10, "velocity": 88}, {"time": 111836, "pitch": 42, "duration": 10, "velocity": 79}, {"time": 111977, "pitch": 42, "duration": 10, "velocity": 36}, {"time": 112077, "pitch": 42, "duration": 10, "velocity": 74}, {"time": 112218, "pitch": 42, "duration": 10, "velocity": 55}, {"time": 112319, "pitch": 42, "duration": 10, "velocity": 89}, {"time": 112459, "pitch": 42, "duration": 10, "velocity": 62}, {"time": 112700, "pitch": 42, "duration": 10, "velocity": 56}, {"time": 112941, "pitch": 42, "duration": 10, "velocity": 77}, {"time": 113182, "pitch": 42, "duration": 10, "velocity": 56}, {"time": 113283, "pitch": 42, "duration": 10, "velocity": 88}, {"time": 113520, "pitch": 42, "duration": 9, "velocity": 88}, {"time": 113658, "pitch": 42, "duration": 10, "velocity": 88}, {"time": 113757, "pitch": 42, "duration": 10, "velocity": 79}, {"time": 113897, "pitch": 42, "duration": 10, "velocity": 36}, {"time": 113998, "pitch": 42, "duration": 10, "velocity": 74}, {"time": 114138, "pitch": 42, "duration": 10, "velocity": 55}, {"time": 114239, "pitch": 42, "duration": 10, "velocity": 89}, {"time": 114379, "pitch": 42, "duration": 10, "velocity": 62}, {"time": 114620, "pitch": 42, "duration": 10, "velocity": 56}, {"time": 114861, "pitch": 42, "duration": 10, "velocity": 77}, {"time": 115102, "pitch": 42, "duration": 10, "velocity": 56}, {"time": 115203, "pitch": 42, "duration": 10, "velocity": 88}, {"time": 115440, "pitch": 42, "duration": 10, "velocity": 88}, {"time": 115578, "pitch": 42, "duration": 10, "velocity": 88}, {"time": 115677, "pitch": 42, "duration": 20, "velocity": 57}, {"time": 115677, "pitch": 49, "duration": 10, "velocity": 97}, {"time": 115918, "pitch": 42, "duration": 10, "velocity": 88}, {"time": 116058, "pitch": 42, "duration": 10, "velocity": 52}, {"time": 116159, "pitch": 42, "duration": 10, "velocity": 57}, {"time": 116400, "pitch": 42, "duration": 10, "velocity": 88}, {"time": 116540, "pitch": 42, "duration": 10, "velocity": 52}, {"time": 116641, "pitch": 42, "duration": 10, "velocity": 57}, {"time": 116882, "pitch": 42, "duration": 10, "velocity": 88}, {"time": 117022, "pitch": 42, "duration": 10, "velocity": 52}, {"time": 117123, "pitch": 42, "duration": 10, "velocity": 57}, {"time": 117360, "pitch": 42, "duration": 10, "velocity": 88}, {"time": 117498, "pitch": 42, "duration": 10, "velocity": 52}, {"time": 117597, "pitch": 42, "duration": 10, "velocity": 57}, {"time": 117838, "pitch": 42, "duration": 10, "velocity": 88}, {"time": 117978, "pitch": 42, "duration": 10, "velocity": 52}, {"time": 118079, "pitch": 42, "duration": 10, "velocity": 57}, {"time": 118320, "pitch": 42, "duration": 10, "velocity": 88}, {"time": 118460, "pitch": 42, "duration": 10, "velocity": 52}, {"time": 118561, "pitch": 42, "duration": 10, "velocity": 57}, {"time": 118802, "pitch": 42, "duration": 10, "velocity": 88}, {"time": 118942, "pitch": 42, "duration": 11, "velocity": 52}, {"time": 119043, "pitch": 42, "duration": 10, "velocity": 57}, {"time": 119280, "pitch": 42, "duration": 10, "velocity": 88}, {"time": 119418, "pitch": 42, "duration": 10, "velocity": 52}, {"time": 119517, "pitch": 42, "duration": 10, "velocity": 57}, {"time": 119758, "pitch": 42, "duration": 10, "velocity": 88}, {"time": 119898, "pitch": 42, "duration": 10, "velocity": 52}, {"time": 119999, "pitch": 42, "duration": 10, "velocity": 57}, {"time": 120240, "pitch": 42, "duration": 10, "velocity": 88}, {"time": 120380, "pitch": 42, "duration": 11, "velocity": 52}, {"time": 120481, "pitch": 42, "duration": 10, "velocity": 57}, {"time": 120722, "pitch": 42, "duration": 10, "velocity": 88}, {"time": 120863, "pitch": 42, "duration": 10, "velocity": 52}, {"time": 120963, "pitch": 42, "duration": 10, "velocity": 57}, {"time": 121200, "pitch": 42, "duration": 10, "velocity": 88}, {"time": 121338, "pitch": 42, "duration": 10, "velocity": 52}, {"time": 121437, "pitch": 42, "duration": 10, "velocity": 57}, {"time": 121678, "pitch": 42, "duration": 10, "velocity": 88}, {"time": 121818, "pitch": 42, "duration": 11, "velocity": 52}, {"time": 121919, "pitch": 42, "duration": 10, "velocity": 57}, {"time": 122160, "pitch": 42, "duration": 10, "velocity": 88}, {"time": 122301, "pitch": 42, "duration": 10, "velocity": 52}, {"time": 122401, "pitch": 42, "duration": 10, "velocity": 57}, {"time": 122642, "pitch": 42, "duration": 10, "velocity": 88}, {"time": 122783, "pitch": 42, "duration": 10, "velocity": 52}, {"time": 122883, "pitch": 42, "duration": 10, "velocity": 57}, {"time": 123120, "pitch": 42, "duration": 10, "velocity": 88}, {"time": 123258, "pitch": 42, "duration": 10, "velocity": 52}, {"time": 123357, "pitch": 42, "duration": 20, "velocity": 57}, {"time": 123357, "pitch": 49, "duration": 10, "velocity": 97}, {"time": 123598, "pitch": 42, "duration": 10, "velocity": 88}, {"time": 123739, "pitch": 42, "duration": 10, "velocity": 52}, {"time": 123839, "pitch": 42, "duration": 10, "velocity": 57}, {"time": 124080, "pitch": 42, "duration": 10, "velocity": 88}, {"time": 124221, "pitch": 42, "duration": 10, "velocity": 52}, {"time": 124321, "pitch": 42, "duration": 10, "velocity": 57}, {"time": 124562, "pitch": 42, "duration": 10, "velocity": 88}, {"time": 124703, "pitch": 42, "duration": 10, "velocity": 52}, {"time": 124803, "pitch": 42, "duration": 10, "velocity": 57}, {"time": 125040, "pitch": 42, "duration": 10, "velocity": 88}, {"time": 125178, "pitch": 42, "duration": 10, "velocity": 52}, {"time": 125277, "pitch": 42, "duration": 10, "velocity": 57}, {"time": 125518, "pitch": 42, "duration": 10, "velocity": 88}, {"time": 125659, "pitch": 42, "duration": 10, "velocity": 52}, {"time": 125759, "pitch": 42, "duration": 10, "velocity": 57}, {"time": 126000, "pitch": 42, "duration": 10, "velocity": 88}, {"time": 126141, "pitch": 42, "duration": 10, "velocity": 52}, {"time": 126241, "pitch": 42, "duration": 10, "velocity": 57}, {"time": 126482, "pitch": 42, "duration": 10, "velocity": 88}, {"time": 126623, "pitch": 42, "duration": 10, "velocity": 52}, {"time": 126723, "pitch": 42, "duration": 10, "velocity": 57}, {"time": 126960, "pitch": 42, "duration": 10, "velocity": 88}, {"time": 127098, "pitch": 42, "duration": 10, "velocity": 52}, {"time": 127197, "pitch": 42, "duration": 10, "velocity": 57}, {"time": 127438, "pitch": 42, "duration": 10, "velocity": 88}, {"time": 127579, "pitch": 42, "duration": 10, "velocity": 52}, {"time": 127679, "pitch": 42, "duration": 10, "velocity": 57}, {"time": 127920, "pitch": 42, "duration": 10, "velocity": 88}, {"time": 128061, "pitch": 42, "duration": 10, "velocity": 52}, {"time": 128161, "pitch": 42, "duration": 10, "velocity": 57}, {"time": 128402, "pitch": 42, "duration": 10, "velocity": 88}, {"time": 128543, "pitch": 42, "duration": 10, "velocity": 52}, {"time": 128643, "pitch": 42, "duration": 10, "velocity": 57}, {"time": 128880, "pitch": 42, "duration": 10, "velocity": 88}, {"time": 129018, "pitch": 42, "duration": 10, "velocity": 52}, {"time": 129117, "pitch": 42, "duration": 10, "velocity": 79}, {"time": 129258, "pitch": 42, "duration": 10, "velocity": 36}, {"time": 129358, "pitch": 46, "duration": 10, "velocity": 92}, {"time": 129499, "pitch": 42, "duration": 10, "velocity": 55}, {"time": 129599, "pitch": 42, "duration": 20, "velocity": 89}, {"time": 129599, "pitch": 49, "duration": 10, "velocity": 97}, {"time": 129840, "pitch": 46, "duration": 10, "velocity": 90}, {"time": 129981, "pitch": 42, "duration": 10, "velocity": 56}, {"time": 130222, "pitch": 42, "duration": 10, "velocity": 77}, {"time": 130463, "pitch": 42, "duration": 10, "velocity": 56}, {"time": 130563, "pitch": 42, "duration": 10, "velocity": 88}, {"time": 130800, "pitch": 42, "duration": 10, "velocity": 88}, {"time": 130939, "pitch": 42, "duration": 9, "velocity": 88}, {"time": 131037, "pitch": 42, "duration": 10, "velocity": 79}, {"time": 131178, "pitch": 42, "duration": 10, "velocity": 36}, {"time": 131278, "pitch": 42, "duration": 10, "velocity": 74}, {"time": 131419, "pitch": 42, "duration": 10, "velocity": 55}, {"time": 131519, "pitch": 42, "duration": 10, "velocity": 89}, {"time": 131660, "pitch": 42, "duration": 10, "velocity": 62}, {"time": 131901, "pitch": 42, "duration": 10, "velocity": 56}, {"time": 132142, "pitch": 42, "duration": 10, "velocity": 77}, {"time": 132383, "pitch": 42, "duration": 10, "velocity": 56}, {"time": 132483, "pitch": 42, "duration": 10, "velocity": 88}, {"time": 132957, "pitch": 42, "duration": 10, "velocity": 79}, {"time": 133098, "pitch": 42, "duration": 10, "velocity": 36}, {"time": 133198, "pitch": 42, "duration": 10, "velocity": 74}, {"time": 133339, "pitch": 42, "duration": 10, "velocity": 55}, {"time": 133439, "pitch": 42, "duration": 10, "velocity": 89}, {"time": 133580, "pitch": 42, "duration": 10, "velocity": 62}, {"time": 133821, "pitch": 42, "duration": 10, "velocity": 56}, {"time": 134062, "pitch": 42, "duration": 10, "velocity": 77}, {"time": 134303, "pitch": 42, "duration": 10, "velocity": 56}, {"time": 134403, "pitch": 42, "duration": 10, "velocity": 88}, {"time": 134640, "pitch": 42, "duration": 10, "velocity": 88}, {"time": 134877, "pitch": 42, "duration": 10, "velocity": 79}, {"time": 135018, "pitch": 42, "duration": 10, "velocity": 36}, {"time": 135118, "pitch": 42, "duration": 10, "velocity": 74}, {"time": 135259, "pitch": 42, "duration": 10, "velocity": 55}, {"time": 135359, "pitch": 42, "duration": 10, "velocity": 89}, {"time": 135500, "pitch": 42, "duration": 10, "velocity": 62}, {"time": 135741, "pitch": 42, "duration": 10, "velocity": 56}, {"time": 135982, "pitch": 42, "duration": 10, "velocity": 77}, {"time": 136223, "pitch": 42, "duration": 10, "velocity": 56}, {"time": 136324, "pitch": 42, "duration": 9, "velocity": 88}, {"time": 136797, "pitch": 42, "duration": 10, "velocity": 79}, {"time": 136938, "pitch": 42, "duration": 10, "velocity": 36}, {"time": 137038, "pitch": 42, "duration": 11, "velocity": 74}, {"time": 137179, "pitch": 42, "duration": 10, "velocity": 55}, {"time": 137280, "pitch": 42, "duration": 10, "velocity": 89}, {"time": 137420, "pitch": 42, "duration": 10, "velocity": 62}, {"time": 137661, "pitch": 42, "duration": 10, "velocity": 56}, {"time": 137902, "pitch": 42, "duration": 10, "velocity": 77}, {"time": 138143, "pitch": 42, "duration": 10, "velocity": 56}, {"time": 138244, "pitch": 42, "duration": 10, "velocity": 88}, {"time": 138481, "pitch": 42, "duration": 9, "velocity": 88}, {"time": 138718, "pitch": 42, "duration": 10, "velocity": 79}, {"time": 138858, "pitch": 42, "duration": 10, "velocity": 36}, {"time": 138959, "pitch": 42, "duration": 10, "velocity": 74}, {"time": 139099, "pitch": 42, "duration": 10, "velocity": 55}, {"time": 139200, "pitch": 42, "duration": 10, "velocity": 89}, {"time": 139340, "pitch": 42, "duration": 10, "velocity": 62}, {"time": 139581, "pitch": 42, "duration": 10, "velocity": 56}, {"time": 139822, "pitch": 42, "duration": 10, "velocity": 77}, {"time": 140063, "pitch": 42, "duration": 10, "velocity": 56}, {"time": 140164, "pitch": 42, "duration": 10, "velocity": 88}, {"time": 140638, "pitch": 42, "duration": 10, "velocity": 79}, {"time": 140778, "pitch": 42, "duration": 10, "velocity": 36}, {"time": 140879, "pitch": 42, "duration": 10, "velocity": 74}, {"time": 141019, "pitch": 42, "duration": 10, "velocity": 55}, {"time": 141120, "pitch": 42, "duration": 10, "velocity": 89}, {"time": 141260, "pitch": 42, "duration": 10, "velocity": 62}, {"time": 141501, "pitch": 42, "duration": 10, "velocity": 56}, {"time": 141742, "pitch": 42, "duration": 10, "velocity": 77}, {"time": 141983, "pitch": 42, "duration": 10, "velocity": 56}, {"time": 142084, "pitch": 42, "duration": 10, "velocity": 88}, {"time": 142321, "pitch": 42, "duration": 10, "velocity": 88}, {"time": 142558, "pitch": 42, "duration": 10, "velocity": 79}, {"time": 142698, "pitch": 42, "duration": 10, "velocity": 36}, {"time": 142799, "pitch": 42, "duration": 10, "velocity": 74}, {"time": 142939, "pitch": 42, "duration": 10, "velocity": 55}, {"time": 143040, "pitch": 42, "duration": 10, "velocity": 89}, {"time": 143180, "pitch": 42, "duration": 10, "velocity": 62}, {"time": 143421, "pitch": 42, "duration": 10, "velocity": 56}, {"time": 143662, "pitch": 42, "duration": 11, "velocity": 77}, {"time": 143904, "pitch": 42, "duration": 10, "velocity": 56}, {"time": 144004, "pitch": 42, "duration": 10, "velocity": 88}, {"time": 144478, "pitch": 42, "duration": 10, "velocity": 79}, {"time": 144618, "pitch": 42, "duration": 10, "velocity": 36}, {"time": 144719, "pitch": 42, "duration": 10, "velocity": 74}, {"time": 144859, "pitch": 42, "duration": 10, "velocity": 55}, {"time": 144960, "pitch": 42, "duration": 10, "velocity": 89}, {"time": 145100, "pitch": 42, "duration": 11, "velocity": 62}, {"time": 145342, "pitch": 42, "duration": 10, "velocity": 56}, {"time": 145583, "pitch": 42, "duration": 10, "velocity": 77}, {"time": 145824, "pitch": 42, "duration": 10, "velocity": 56}, {"time": 145924, "pitch": 42, "duration": 10, "velocity": 88}, {"time": 146161, "pitch": 42, "duration": 10, "velocity": 88}, {"time": 146398, "pitch": 42, "duration": 10, "velocity": 7}, {"time": 146639, "pitch": 42, "duration": 10, "velocity": 79}, {"time": 146880, "pitch": 42, "duration": 10, "velocity": 7}, {"time": 147121, "pitch": 42, "duration": 10, "velocity": 72}, {"time": 147362, "pitch": 42, "duration": 10, "velocity": 7}, {"time": 147603, "pitch": 42, "duration": 10, "velocity": 77}, {"time": 147844, "pitch": 42, "duration": 10, "velocity": 7}, {"time": 148081, "pitch": 42, "duration": 10, "velocity": 77}, {"time": 148318, "pitch": 42, "duration": 10, "velocity": 7}, {"time": 148559, "pitch": 42, "duration": 10, "velocity": 79}, {"time": 148800, "pitch": 42, "duration": 10, "velocity": 7}, {"time": 149041, "pitch": 42, "duration": 10, "velocity": 72}, {"time": 149282, "pitch": 42, "duration": 10, "velocity": 7}, {"time": 149519, "pitch": 42, "duration": 10, "velocity": 77}, {"time": 149756, "pitch": 42, "duration": 10, "velocity": 7}, {"time": 149997, "pitch": 42, "duration": 10, "velocity": 77}, {"time": 150238, "pitch": 42, "duration": 10, "velocity": 7}, {"time": 150479, "pitch": 42, "duration": 10, "velocity": 79}, {"time": 150720, "pitch": 42, "duration": 10, "velocity": 7}, {"time": 150961, "pitch": 42, "duration": 10, "velocity": 72}, {"time": 151202, "pitch": 42, "duration": 10, "velocity": 7}, {"time": 151439, "pitch": 42, "duration": 10, "velocity": 77}, {"time": 151676, "pitch": 42, "duration": 10, "velocity": 7}, {"time": 151917, "pitch": 42, "duration": 10, "velocity": 77}, {"time": 152158, "pitch": 42, "duration": 10, "velocity": 7}, {"time": 152399, "pitch": 42, "duration": 10, "velocity": 79}, {"time": 152640, "pitch": 42, "duration": 10, "velocity": 7}, {"time": 152881, "pitch": 42, "duration": 10, "velocity": 72}, {"time": 153122, "pitch": 42, "duration": 10, "velocity": 7}, {"time": 153359, "pitch": 42, "duration": 10, "velocity": 77}, {"time": 153596, "pitch": 42, "duration": 10, "velocity": 7}, {"time": 153837, "pitch": 42, "duration": 10, "velocity": 77}, {"time": 154078, "pitch": 42, "duration": 10, "velocity": 7}, {"time": 154319, "pitch": 42, "duration": 10, "velocity": 79}, {"time": 154560, "pitch": 42, "duration": 10, "velocity": 7}, {"time": 154801, "pitch": 42, "duration": 10, "velocity": 72}, {"time": 155042, "pitch": 42, "duration": 10, "velocity": 7}, {"time": 155279, "pitch": 42, "duration": 10, "velocity": 77}, {"time": 155516, "pitch": 42, "duration": 10, "velocity": 7}, {"time": 155757, "pitch": 42, "duration": 10, "velocity": 77}, {"time": 155998, "pitch": 42, "duration": 10, "velocity": 7}, {"time": 156239, "pitch": 42, "duration": 10, "velocity": 79}, {"time": 156480, "pitch": 42, "duration": 10, "velocity": 7}, {"time": 156721, "pitch": 42, "duration": 10, "velocity": 72}, {"time": 156962, "pitch": 42, "duration": 10, "velocity": 7}, {"time": 157199, "pitch": 42, "duration": 10, "velocity": 77}, {"time": 157436, "pitch": 42, "duration": 10, "velocity": 7}, {"time": 157677, "pitch": 42, "duration": 10, "velocity": 77}, {"time": 157918, "pitch": 42, "duration": 10, "velocity": 7}, {"time": 158159, "pitch": 42, "duration": 10, "velocity": 79}, {"time": 158400, "pitch": 42, "duration": 10, "velocity": 7}, {"time": 158641, "pitch": 42, "duration": 10, "velocity": 72}, {"time": 158882, "pitch": 42, "duration": 10, "velocity": 7}, {"time": 159119, "pitch": 42, "duration": 10, "velocity": 77}, {"time": 159356, "pitch": 42, "duration": 10, "velocity": 7}, {"time": 159597, "pitch": 42, "duration": 10, "velocity": 77}, {"time": 159838, "pitch": 42, "duration": 10, "velocity": 79}, {"time": 159979, "pitch": 42, "duration": 10, "velocity": 36}, {"time": 160079, "pitch": 42, "duration": 10, "velocity": 74}, {"time": 160220, "pitch": 42, "duration": 10, "velocity": 55}, {"time": 160320, "pitch": 42, "duration": 11, "velocity": 89}, {"time": 160461, "pitch": 42, "duration": 10, "velocity": 62}, {"time": 160702, "pitch": 42, "duration": 10, "velocity": 56}, {"time": 160941, "pitch": 42, "duration": 10, "velocity": 77}, {"time": 161178, "pitch": 42, "duration": 10, "velocity": 56}, {"time": 161276, "pitch": 42, "duration": 10, "velocity": 88}, {"time": 161517, "pitch": 42, "duration": 10, "velocity": 88}, {"time": 161658, "pitch": 42, "duration": 10, "velocity": 88}, {"time": 161758, "pitch": 42, "duration": 21, "velocity": 57}, {"time": 161758, "pitch": 49, "duration": 11, "velocity": 97}, {"time": 162000, "pitch": 42, "duration": 10, "velocity": 88}, {"time": 162140, "pitch": 42, "duration": 10, "velocity": 52}, {"time": 162241, "pitch": 42, "duration": 10, "velocity": 57}, {"time": 162482, "pitch": 42, "duration": 10, "velocity": 88}, {"time": 162622, "pitch": 42, "duration": 10, "velocity": 52}, {"time": 162723, "pitch": 42, "duration": 9, "velocity": 57}, {"time": 162960, "pitch": 42, "duration": 9, "velocity": 88}, {"time": 163098, "pitch": 42, "duration": 10, "velocity": 52}, {"time": 163197, "pitch": 42, "duration": 10, "velocity": 57}, {"time": 163438, "pitch": 42, "duration": 10, "velocity": 88}, {"time": 163578, "pitch": 42, "duration": 10, "velocity": 52}, {"time": 163679, "pitch": 42, "duration": 10, "velocity": 57}, {"time": 163920, "pitch": 42, "duration": 10, "velocity": 88}, {"time": 164060, "pitch": 42, "duration": 10, "velocity": 52}, {"time": 164161, "pitch": 42, "duration": 10, "velocity": 57}, {"time": 164402, "pitch": 42, "duration": 10, "velocity": 88}, {"time": 164542, "pitch": 42, "duration": 10, "velocity": 52}, {"time": 164643, "pitch": 42, "duration": 10, "velocity": 57}, {"time": 164880, "pitch": 42, "duration": 10, "velocity": 88}, {"time": 165018, "pitch": 42, "duration": 10, "velocity": 52}, {"time": 165117, "pitch": 42, "duration": 10, "velocity": 57}, {"time": 165358, "pitch": 42, "duration": 10, "velocity": 88}, {"time": 165498, "pitch": 42, "duration": 10, "velocity": 52}, {"time": 165599, "pitch": 42, "duration": 10, "velocity": 57}, {"time": 165840, "pitch": 42, "duration": 10, "velocity": 88}, {"time": 165980, "pitch": 42, "duration": 10, "velocity": 52}, {"time": 166081, "pitch": 42, "duration": 10, "velocity": 57}, {"time": 166322, "pitch": 42, "duration": 10, "velocity": 88}, {"time": 166462, "pitch": 42, "duration": 10, "velocity": 52}, {"time": 166563, "pitch": 42, "duration": 10, "velocity": 57}, {"time": 166800, "pitch": 42, "duration": 10, "velocity": 88}, {"time": 166938, "pitch": 42, "duration": 10, "velocity": 52}, {"time": 167037, "pitch": 42, "duration": 10, "velocity": 57}, {"time": 167278, "pitch": 42, "duration": 10, "velocity": 88}, {"time": 167418, "pitch": 42, "duration": 10, "velocity": 52}, {"time": 167519, "pitch": 42, "duration": 10, "velocity": 57}, {"time": 167760, "pitch": 42, "duration": 10, "velocity": 88}, {"time": 167900, "pitch": 42, "duration": 10, "velocity": 52}, {"time": 168001, "pitch": 42, "duration": 10, "velocity": 57}, {"time": 168242, "pitch": 42, "duration": 10, "velocity": 88}, {"time": 168382, "pitch": 42, "duration": 11, "velocity": 52}, {"time": 168483, "pitch": 42, "duration": 10, "velocity": 57}, {"time": 168720, "pitch": 42, "duration": 10, "velocity": 88}, {"time": 168858, "pitch": 42, "duration": 10, "velocity": 52}, {"time": 168957, "pitch": 42, "duration": 10, "velocity": 57}, {"time": 169198, "pitch": 42, "duration": 10, "velocity": 88}, {"time": 169338, "pitch": 42, "duration": 10, "velocity": 52}, {"time": 169439, "pitch": 42, "duration": 20, "velocity": 57}, {"time": 169439, "pitch": 49, "duration": 10, "velocity": 97}, {"time": 169680, "pitch": 42, "duration": 10, "velocity": 88}, {"time": 169820, "pitch": 42, "duration": 10, "velocity": 52}, {"time": 169921, "pitch": 42, "duration": 10, "velocity": 57}, {"time": 170162, "pitch": 42, "duration": 10, "velocity": 88}, {"time": 170303, "pitch": 42, "duration": 10, "velocity": 52}, {"time": 170403, "pitch": 42, "duration": 10, "velocity": 57}, {"time": 170640, "pitch": 42, "duration": 10, "velocity": 88}, {"time": 170778, "pitch": 42, "duration": 10, "velocity": 52}, {"time": 170877, "pitch": 42, "duration": 10, "velocity": 57}, {"time": 171118, "pitch": 42, "duration": 10, "velocity": 88}, {"time": 171258, "pitch": 42, "duration": 10, "velocity": 52}, {"time": 171359, "pitch": 42, "duration": 10, "velocity": 57}, {"time": 171600, "pitch": 42, "duration": 10, "velocity": 88}, {"time": 171741, "pitch": 42, "duration": 10, "velocity": 52}, {"time": 171841, "pitch": 42, "duration": 10, "velocity": 57}, {"time": 172082, "pitch": 42, "duration": 10, "velocity": 88}, {"time": 172223, "pitch": 42, "duration": 10, "velocity": 52}, {"time": 172323, "pitch": 42, "duration": 10, "velocity": 57}, {"time": 172560, "pitch": 42, "duration": 10, "velocity": 88}, {"time": 172698, "pitch": 42, "duration": 10, "velocity": 52}, {"time": 172797, "pitch": 42, "duration": 10, "velocity": 57}, {"time": 173038, "pitch": 42, "duration": 10, "velocity": 88}, {"time": 173179, "pitch": 42, "duration": 10, "velocity": 52}, {"time": 173279, "pitch": 42, "duration": 10, "velocity": 57}, {"time": 173520, "pitch": 42, "duration": 10, "velocity": 88}, {"time": 173661, "pitch": 42, "duration": 10, "velocity": 52}, {"time": 173761, "pitch": 42, "duration": 10, "velocity": 57}, {"time": 174002, "pitch": 42, "duration": 10, "velocity": 88}, {"time": 174143, "pitch": 42, "duration": 10, "velocity": 52}, {"time": 174243, "pitch": 42, "duration": 10, "velocity": 57}, {"time": 174480, "pitch": 42, "duration": 10, "velocity": 88}, {"time": 174618, "pitch": 42, "duration": 10, "velocity": 52}, {"time": 174717, "pitch": 42, "duration": 10, "velocity": 57}, {"time": 174958, "pitch": 42, "duration": 10, "velocity": 88}, {"time": 175099, "pitch": 42, "duration": 10, "velocity": 52}, {"time": 175199, "pitch": 42, "duration": 10, "velocity": 79}, {"time": 175340, "pitch": 42, "duration": 10, "velocity": 36}, {"time": 175440, "pitch": 46, "duration": 10, "velocity": 92}, {"time": 175581, "pitch": 42, "duration": 10, "velocity": 55}, {"time": 175681, "pitch": 42, "duration": 10, "velocity": 89}, {"time": 175922, "pitch": 46, "duration": 10, "velocity": 90}, {"time": 176063, "pitch": 42, "duration": 10, "velocity": 56}, {"time": 176301, "pitch": 42, "duration": 10, "velocity": 77}, {"time": 176538, "pitch": 42, "duration": 10, "velocity": 56}, {"time": 176637, "pitch": 42, "duration": 10, "velocity": 88}, {"time": 176878, "pitch": 42, "duration": 10, "velocity": 88}, {"time": 177019, "pitch": 42, "duration": 10, "velocity": 88}, {"time": 177119, "pitch": 42, "duration": 20, "velocity": 57}, {"time": 177119, "pitch": 49, "duration": 10, "velocity": 97}, {"time": 177360, "pitch": 42, "duration": 10, "velocity": 88}, {"time": 177501, "pitch": 42, "duration": 10, "velocity": 52}, {"time": 177601, "pitch": 42, "duration": 10, "velocity": 57}, {"time": 177842, "pitch": 42, "duration": 10, "velocity": 88}, {"time": 177983, "pitch": 42, "duration": 10, "velocity": 52}, {"time": 178083, "pitch": 42, "duration": 10, "velocity": 57}, {"time": 178320, "pitch": 42, "duration": 10, "velocity": 88}, {"time": 178458, "pitch": 42, "duration": 10, "velocity": 52}, {"time": 178557, "pitch": 42, "duration": 10, "velocity": 57}, {"time": 178798, "pitch": 42, "duration": 10, "velocity": 88}, {"time": 178939, "pitch": 42, "duration": 10, "velocity": 52}, {"time": 179039, "pitch": 42, "duration": 10, "velocity": 57}, {"time": 179280, "pitch": 42, "duration": 10, "velocity": 88}, {"time": 179421, "pitch": 42, "duration": 10, "velocity": 52}, {"time": 179521, "pitch": 42, "duration": 10, "velocity": 57}, {"time": 179762, "pitch": 42, "duration": 10, "velocity": 88}, {"time": 179903, "pitch": 42, "duration": 10, "velocity": 52}, {"time": 180003, "pitch": 42, "duration": 10, "velocity": 57}, {"time": 180240, "pitch": 42, "duration": 10, "velocity": 88}, {"time": 180378, "pitch": 42, "duration": 10, "velocity": 52}, {"time": 180477, "pitch": 42, "duration": 10, "velocity": 57}, {"time": 180718, "pitch": 42, "duration": 10, "velocity": 88}, {"time": 180859, "pitch": 42, "duration": 10, "velocity": 52}, {"time": 180959, "pitch": 42, "duration": 10, "velocity": 57}, {"time": 181200, "pitch": 42, "duration": 10, "velocity": 88}, {"time": 181341, "pitch": 42, "duration": 10, "velocity": 52}, {"time": 181441, "pitch": 42, "duration": 10, "velocity": 57}, {"time": 181682, "pitch": 42, "duration": 10, "velocity": 88}, {"time": 181823, "pitch": 42, "duration": 10, "velocity": 52}, {"time": 181923, "pitch": 42, "duration": 10, "velocity": 57}, {"time": 182160, "pitch": 42, "duration": 10, "velocity": 88}, {"time": 182299, "pitch": 42, "duration": 9, "velocity": 52}, {"time": 182397, "pitch": 42, "duration": 10, "velocity": 57}, {"time": 182638, "pitch": 42, "duration": 10, "velocity": 88}, {"time": 182779, "pitch": 42, "duration": 10, "velocity": 52}, {"time": 182879, "pitch": 42, "duration": 10, "velocity": 57}, {"time": 183120, "pitch": 42, "duration": 10, "velocity": 88}, {"time": 183261, "pitch": 42, "duration": 10, "velocity": 52}, {"time": 183361, "pitch": 42, "duration": 10, "velocity": 57}, {"time": 183602, "pitch": 42, "duration": 11, "velocity": 88}, {"time": 183743, "pitch": 42, "duration": 10, "velocity": 52}, {"time": 183843, "pitch": 42, "duration": 10, "velocity": 57}, {"time": 184080, "pitch": 42, "duration": 10, "velocity": 88}, {"time": 184219, "pitch": 42, "duration": 10, "velocity": 52}, {"time": 184317, "pitch": 42, "duration": 10, "velocity": 57}, {"time": 184558, "pitch": 42, "duration": 10, "velocity": 88}, {"time": 184699, "pitch": 42, "duration": 10, "velocity": 52}, {"time": 184799, "pitch": 42, "duration": 21, "velocity": 57}, {"time": 184799, "pitch": 49, "duration": 10, "velocity": 97}, {"time": 185040, "pitch": 42, "duration": 11, "velocity": 88}, {"time": 185181, "pitch": 42, "duration": 10, "velocity": 52}, {"time": 185282, "pitch": 42, "duration": 10, "velocity": 57}, {"time": 185523, "pitch": 42, "duration": 10, "velocity": 88}, {"time": 185663, "pitch": 42, "duration": 10, "velocity": 52}, {"time": 185764, "pitch": 42, "duration": 9, "velocity": 57}, {"time": 186001, "pitch": 42, "duration": 9, "velocity": 88}, {"time": 186139, "pitch": 42, "duration": 10, "velocity": 52}, {"time": 186237, "pitch": 42, "duration": 10, "velocity": 57}, {"time": 186478, "pitch": 42, "duration": 11, "velocity": 88}, {"time": 186619, "pitch": 42, "duration": 10, "velocity": 52}, {"time": 186720, "pitch": 42, "duration": 10, "velocity": 57}, {"time": 186961, "pitch": 42, "duration": 10, "velocity": 88}, {"time": 187101, "pitch": 42, "duration": 10, "velocity": 52}, {"time": 187202, "pitch": 42, "duration": 10, "velocity": 57}, {"time": 187443, "pitch": 42, "duration": 10, "velocity": 88}, {"time": 187583, "pitch": 42, "duration": 10, "velocity": 52}, {"time": 187684, "pitch": 42, "duration": 9, "velocity": 57}, {"time": 187921, "pitch": 42, "duration": 9, "velocity": 88}, {"time": 188059, "pitch": 42, "duration": 10, "velocity": 52}, {"time": 188158, "pitch": 42, "duration": 10, "velocity": 57}, {"time": 188399, "pitch": 42, "duration": 10, "velocity": 88}, {"time": 188539, "pitch": 42, "duration": 10, "velocity": 52}, {"time": 188640, "pitch": 42, "duration": 10, "velocity": 57}, {"time": 188881, "pitch": 42, "duration": 10, "velocity": 88}, {"time": 189021, "pitch": 42, "duration": 10, "velocity": 52}, {"time": 189122, "pitch": 42, "duration": 10, "velocity": 57}, {"time": 189363, "pitch": 42, "duration": 10, "velocity": 88}, {"time": 189503, "pitch": 42, "duration": 10, "velocity": 52}, {"time": 189604, "pitch": 42, "duration": 10, "velocity": 57}, {"time": 189841, "pitch": 42, "duration": 10, "velocity": 88}, {"time": 189979, "pitch": 42, "duration": 10, "velocity": 52}, {"time": 190078, "pitch": 42, "duration": 10, "velocity": 57}, {"time": 190319, "pitch": 42, "duration": 10, "velocity": 88}, {"time": 190459, "pitch": 42, "duration": 10, "velocity": 52}, {"time": 190560, "pitch": 42, "duration": 10, "velocity": 79}, {"time": 190700, "pitch": 42, "duration": 10, "velocity": 36}, {"time": 190801, "pitch": 46, "duration": 10, "velocity": 92}, {"time": 190941, "pitch": 42, "duration": 10, "velocity": 55}, {"time": 191042, "pitch": 42, "duration": 20, "velocity": 89}, {"time": 191042, "pitch": 49, "duration": 10, "velocity": 97}, {"time": 191283, "pitch": 46, "duration": 10, "velocity": 90}, {"time": 191423, "pitch": 42, "duration": 10, "velocity": 56}, {"time": 191662, "pitch": 42, "duration": 10, "velocity": 77}, {"time": 191899, "pitch": 42, "duration": 10, "velocity": 56}, {"time": 191998, "pitch": 42, "duration": 10, "velocity": 88}, {"time": 192239, "pitch": 42, "duration": 10, "velocity": 88}, {"time": 192379, "pitch": 42, "duration": 10, "velocity": 88}, {"time": 192480, "pitch": 42, "duration": 20, "velocity": 79}, {"time": 192480, "pitch": 49, "duration": 10, "velocity": 97}, {"time": 192620, "pitch": 42, "duration": 10, "velocity": 36}, {"time": 192721, "pitch": 42, "duration": 10, "velocity": 74}, {"time": 192861, "pitch": 42, "duration": 10, "velocity": 55}, {"time": 192962, "pitch": 42, "duration": 10, "velocity": 89}, {"time": 193102, "pitch": 42, "duration": 10, "velocity": 62}, {"time": 193343, "pitch": 42, "duration": 11, "velocity": 56}, {"time": 193582, "pitch": 42, "duration": 10, "velocity": 77}, {"time": 193819, "pitch": 42, "duration": 10, "velocity": 56}, {"time": 193918, "pitch": 42, "duration": 10, "velocity": 88}, {"time": 194400, "pitch": 42, "duration": 10, "velocity": 79}, {"time": 194540, "pitch": 42, "duration": 10, "velocity": 36}, {"time": 194641, "pitch": 42, "duration": 10, "velocity": 74}, {"time": 194781, "pitch": 42, "duration": 11, "velocity": 55}, {"time": 194882, "pitch": 42, "duration": 10, "velocity": 89}, {"time": 195023, "pitch": 42, "duration": 10, "velocity": 62}, {"time": 195264, "pitch": 42, "duration": 10, "velocity": 56}, {"time": 195502, "pitch": 42, "duration": 10, "velocity": 77}, {"time": 195739, "pitch": 42, "duration": 10, "velocity": 56}, {"time": 195838, "pitch": 42, "duration": 10, "velocity": 88}, {"time": 196079, "pitch": 42, "duration": 10, "velocity": 88}, {"time": 196320, "pitch": 42, "duration": 10, "velocity": 79}, {"time": 196461, "pitch": 42, "duration": 10, "velocity": 36}, {"time": 196561, "pitch": 42, "duration": 10, "velocity": 74}, {"time": 196702, "pitch": 42, "duration": 10, "velocity": 55}, {"time": 196802, "pitch": 42, "duration": 10, "velocity": 89}, {"time": 196943, "pitch": 42, "duration": 10, "velocity": 62}, {"time": 197184, "pitch": 42, "duration": 10, "velocity": 56}, {"time": 197422, "pitch": 42, "duration": 10, "velocity": 77}, {"time": 197659, "pitch": 42, "duration": 10, "velocity": 56}, {"time": 197758, "pitch": 42, "duration": 10, "velocity": 88}, {"time": 198240, "pitch": 42, "duration": 10, "velocity": 79}, {"time": 198381, "pitch": 42, "duration": 10, "velocity": 36}, {"time": 198481, "pitch": 42, "duration": 10, "velocity": 74}, {"time": 198622, "pitch": 42, "duration": 10, "velocity": 55}, {"time": 198722, "pitch": 42, "duration": 10, "velocity": 89}, {"time": 198860, "pitch": 42, "duration": 10, "velocity": 62}, {"time": 199097, "pitch": 42, "duration": 10, "velocity": 56}, {"time": 199336, "pitch": 42, "duration": 11, "velocity": 77}, {"time": 199578, "pitch": 42, "duration": 10, "velocity": 56}, {"time": 199678, "pitch": 42, "duration": 10, "velocity": 88}, {"time": 199919, "pitch": 42, "duration": 10, "velocity": 88}, {"time": 200160, "pitch": 42, "duration": 10, "velocity": 79}, {"time": 200301, "pitch": 42, "duration": 10, "velocity": 36}, {"time": 200401, "pitch": 42, "duration": 10, "velocity": 74}, {"time": 200542, "pitch": 42, "duration": 10, "velocity": 55}, {"time": 200642, "pitch": 42, "duration": 10, "velocity": 89}, {"time": 200780, "pitch": 42, "duration": 10, "velocity": 62}, {"time": 201017, "pitch": 42, "duration": 10, "velocity": 56}, {"time": 201257, "pitch": 42, "duration": 10, "velocity": 77}, {"time": 201498, "pitch": 42, "duration": 10, "velocity": 56}, {"time": 201598, "pitch": 42, "duration": 10, "velocity": 88}, {"time": 202080, "pitch": 42, "duration": 10, "velocity": 79}, {"time": 202221, "pitch": 42, "duration": 10, "velocity": 36}, {"time": 202321, "pitch": 42, "duration": 10, "velocity": 74}, {"time": 202462, "pitch": 42, "duration": 10, "velocity": 55}, {"time": 202562, "pitch": 42, "duration": 10, "velocity": 89}, {"time": 202700, "pitch": 42, "duration": 10, "velocity": 62}, {"time": 202937, "pitch": 42, "duration": 10, "velocity": 56}, {"time": 203177, "pitch": 42, "duration": 10, "velocity": 77}, {"time": 203418, "pitch": 42, "duration": 10, "velocity": 56}, {"time": 203518, "pitch": 42, "duration": 10, "velocity": 88}, {"time": 203759, "pitch": 42, "duration": 10, "velocity": 88}, {"time": 204000, "pitch": 42, "duration": 10, "velocity": 79}, {"time": 204141, "pitch": 42, "duration": 10, "velocity": 36}, {"time": 204241, "pitch": 42, "duration": 10, "velocity": 74}, {"time": 204382, "pitch": 42, "duration": 10, "velocity": 55}, {"time": 204482, "pitch": 42, "duration": 10, "velocity": 89}, {"time": 204621, "pitch": 42, "duration": 9, "velocity": 62}, {"time": 204857, "pitch": 42, "duration": 10, "velocity": 56}, {"time": 205097, "pitch": 42, "duration": 10, "velocity": 77}, {"time": 205338, "pitch": 42, "duration": 10, "velocity": 56}, {"time": 205438, "pitch": 42, "duration": 10, "velocity": 88}, {"time": 205920, "pitch": 42, "duration": 10, "velocity": 79}, {"time": 206061, "pitch": 42, "duration": 10, "velocity": 36}, {"time": 206161, "pitch": 42, "duration": 10, "velocity": 74}, {"time": 206302, "pitch": 42, "duration": 10, "velocity": 55}, {"time": 206402, "pitch": 42, "duration": 10, "velocity": 89}, {"time": 206541, "pitch": 42, "duration": 9, "velocity": 62}, {"time": 206778, "pitch": 42, "duration": 9, "velocity": 56}, {"time": 207017, "pitch": 42, "duration": 10, "velocity": 77}, {"time": 207258, "pitch": 42, "duration": 10, "velocity": 56}, {"time": 207358, "pitch": 42, "duration": 10, "velocity": 88}, {"time": 207599, "pitch": 42, "duration": 10, "velocity": 88}], "annotations": [{"time": 292, "annotation": {"number": 7, "value": 120}, "group": "control_change"}, {"time": 313, "annotation": {"number": 11, "value": 120}, "group": "control_change"}, {"time": 334, "annotation": {"number": 91, "value": 20}, "group": "control_change"}, {"time": 355, "annotation": {"number": 101, "value": 127}, "group": "control_change"}, {"time": 376, "annotation": {"number": 100, "value": 127}, "group": "control_change"}]}, {"program": 0, "is_drum": false, "name": "E.GUITAR 1", "annotations": [{"time": 230, "annotation": {"number": 0, "value": 0}, "group": "control_change"}, {"time": 250, "annotation": {"number": 32, "value": 0}, "group": "control_change"}]}, {"program": 26, "is_drum": false, "name": "E.GUITAR 1", "notes": [{"time": 17188, "pitch": 66, "duration": 221, "velocity": 95}, {"time": 17198, "pitch": 70, "duration": 161, "velocity": 75}, {"time": 17429, "pitch": 64, "duration": 91, "velocity": 50}, {"time": 17520, "pitch": 61, "duration": 40, "velocity": 70}, {"time": 18958, "pitch": 47, "duration": 80, "velocity": 80}, {"time": 18968, "pitch": 59, "duration": 80, "velocity": 90}, {"time": 19199, "pitch": 49, "duration": 432, "velocity": 80}, {"time": 19209, "pitch": 61, "duration": 422, "velocity": 90}, {"time": 21028, "pitch": 66, "duration": 221, "velocity": 95}, {"time": 21039, "pitch": 70, "duration": 160, "velocity": 75}, {"time": 21270, "pitch": 64, "duration": 90, "velocity": 50}, {"time": 21360, "pitch": 61, "duration": 40, "velocity": 70}, {"time": 22798, "pitch": 47, "duration": 80, "velocity": 80}, {"time": 22808, "pitch": 59, "duration": 80, "velocity": 90}, {"time": 23039, "pitch": 49, "duration": 432, "velocity": 80}, {"time": 23049, "pitch": 61, "duration": 422, "velocity": 90}, {"time": 24869, "pitch": 66, "duration": 221, "velocity": 95}, {"time": 24879, "pitch": 70, "duration": 160, "velocity": 75}, {"time": 25110, "pitch": 64, "duration": 90, "velocity": 50}, {"time": 25200, "pitch": 61, "duration": 40, "velocity": 70}, {"time": 26638, "pitch": 47, "duration": 80, "velocity": 80}, {"time": 26648, "pitch": 59, "duration": 80, "velocity": 90}, {"time": 26879, "pitch": 49, "duration": 432, "velocity": 80}, {"time": 26889, "pitch": 61, "duration": 422, "velocity": 90}, {"time": 28709, "pitch": 66, "duration": 221, "velocity": 95}, {"time": 28719, "pitch": 70, "duration": 161, "velocity": 75}, {"time": 28950, "pitch": 64, "duration": 90, "velocity": 50}, {"time": 29040, "pitch": 61, "duration": 40, "velocity": 70}, {"time": 30478, "pitch": 47, "duration": 81, "velocity": 80}, {"time": 30488, "pitch": 59, "duration": 81, "velocity": 90}, {"time": 30719, "pitch": 49, "duration": 432, "velocity": 80}, {"time": 30729, "pitch": 61, "duration": 422, "velocity": 90}, {"time": 46080, "pitch": 57, "duration": 402, "velocity": 90}, {"time": 46090, "pitch": 69, "duration": 402, "velocity": 100}, {"time": 46562, "pitch": 55, "duration": 1910, "velocity": 90}, {"time": 46572, "pitch": 67, "duration": 1900, "velocity": 100}, {"time": 48482, "pitch": 52, "duration": 99, "velocity": 65}, {"time": 48492, "pitch": 64, "duration": 99, "velocity": 70}, {"time": 48719, "pitch": 55, "duration": 99, "velocity": 80}, {"time": 48729, "pitch": 67, "duration": 99, "velocity": 85}, {"time": 48956, "pitch": 57, "duration": 100, "velocity": 85}, {"time": 48966, "pitch": 69, "duration": 100, "velocity": 90}, {"time": 49197, "pitch": 52, "duration": 100, "velocity": 70}, {"time": 49207, "pitch": 64, "duration": 100, "velocity": 75}, {"time": 49438, "pitch": 55, "duration": 100, "velocity": 75}, {"time": 49448, "pitch": 67, "duration": 100, "velocity": 80}, {"time": 49679, "pitch": 57, "duration": 703, "velocity": 90}, {"time": 49689, "pitch": 69, "duration": 703, "velocity": 95}, {"time": 50402, "pitch": 50, "duration": 1910, "velocity": 90}, {"time": 50412, "pitch": 62, "duration": 1900, "velocity": 100}, {"time": 52262, "pitch": 67, "duration": 297, "velocity": 90}, {"time": 52292, "pitch": 71, "duration": 267, "velocity": 95}, {"time": 52322, "pitch": 78, "duration": 237, "velocity": 100}, {"time": 52559, "pitch": 76, "duration": 79, "velocity": 90}, {"time": 53037, "pitch": 67, "duration": 723, "velocity": 90}, {"time": 53047, "pitch": 71, "duration": 482, "velocity": 95}, {"time": 53519, "pitch": 74, "duration": 723, "velocity": 100}, {"time": 53760, "pitch": 71, "duration": 482, "velocity": 95}, {"time": 54001, "pitch": 67, "duration": 241, "velocity": 90}, {"time": 54242, "pitch": 60, "duration": 705, "velocity": 60}, {"time": 54242, "pitch": 64, "duration": 705, "velocity": 70}, {"time": 54252, "pitch": 69, "duration": 705, "velocity": 80}, {"time": 54957, "pitch": 71, "duration": 1065, "velocity": 95}, {"time": 55439, "pitch": 69, "duration": 623, "velocity": 90}, {"time": 55680, "pitch": 64, "duration": 442, "velocity": 95}, {"time": 55921, "pitch": 60, "duration": 241, "velocity": 90}, {"time": 56162, "pitch": 62, "duration": 705, "velocity": 60}, {"time": 56162, "pitch": 66, "duration": 705, "velocity": 70}, {"time": 56172, "pitch": 71, "duration": 705, "velocity": 80}, {"time": 56877, "pitch": 73, "duration": 1205, "velocity": 95}, {"time": 57359, "pitch": 71, "duration": 723, "velocity": 90}, {"time": 57600, "pitch": 66, "duration": 482, "velocity": 95}, {"time": 57841, "pitch": 62, "duration": 241, "velocity": 90}, {"time": 58022, "pitch": 63, "duration": 1980, "velocity": 60}, {"time": 58052, "pitch": 67, "duration": 1950, "velocity": 70}, {"time": 58082, "pitch": 72, "duration": 1920, "velocity": 80}, {"time": 60002, "pitch": 67, "duration": 257, "velocity": 90}, {"time": 60002, "pitch": 72, "duration": 257, "velocity": 95}, {"time": 60012, "pitch": 76, "duration": 257, "velocity": 100}, {"time": 60476, "pitch": 66, "duration": 261, "velocity": 85}, {"time": 60476, "pitch": 71, "duration": 261, "velocity": 90}, {"time": 60486, "pitch": 75, "duration": 262, "velocity": 95}, {"time": 60958, "pitch": 65, "duration": 262, "velocity": 90}, {"time": 60958, "pitch": 70, "duration": 262, "velocity": 95}, {"time": 60968, "pitch": 74, "duration": 262, "velocity": 100}, {"time": 61441, "pitch": 55, "duration": 261, "velocity": 100}, {"time": 61451, "pitch": 67, "duration": 261, "velocity": 105}, {"time": 63843, "pitch": 62, "duration": 89, "velocity": 90}, {"time": 63853, "pitch": 74, "duration": 88, "velocity": 95}, {"time": 64080, "pitch": 63, "duration": 88, "velocity": 85}, {"time": 64089, "pitch": 75, "duration": 89, "velocity": 90}, {"time": 64317, "pitch": 64, "duration": 90, "velocity": 80}, {"time": 64327, "pitch": 76, "duration": 90, "velocity": 85}, {"time": 64558, "pitch": 62, "duration": 90, "velocity": 85}, {"time": 64568, "pitch": 74, "duration": 90, "velocity": 90}, {"time": 64799, "pitch": 63, "duration": 90, "velocity": 80}, {"time": 64809, "pitch": 75, "duration": 90, "velocity": 85}, {"time": 65040, "pitch": 64, "duration": 502, "velocity": 85}, {"time": 65050, "pitch": 76, "duration": 502, "velocity": 90}, {"time": 67683, "pitch": 62, "duration": 89, "velocity": 90}, {"time": 67693, "pitch": 74, "duration": 89, "velocity": 95}, {"time": 67920, "pitch": 63, "duration": 89, "velocity": 85}, {"time": 67930, "pitch": 75, "duration": 89, "velocity": 90}, {"time": 68157, "pitch": 64, "duration": 90, "velocity": 80}, {"time": 68167, "pitch": 76, "duration": 90, "velocity": 85}, {"time": 68398, "pitch": 62, "duration": 90, "velocity": 85}, {"time": 68408, "pitch": 74, "duration": 90, "velocity": 90}, {"time": 68639, "pitch": 63, "duration": 90, "velocity": 80}, {"time": 68649, "pitch": 75, "duration": 90, "velocity": 85}, {"time": 68880, "pitch": 64, "duration": 502, "velocity": 85}, {"time": 68890, "pitch": 76, "duration": 502, "velocity": 90}, {"time": 71523, "pitch": 62, "duration": 89, "velocity": 90}, {"time": 71533, "pitch": 74, "duration": 89, "velocity": 95}, {"time": 71760, "pitch": 63, "duration": 89, "velocity": 85}, {"time": 71770, "pitch": 75, "duration": 89, "velocity": 90}, {"time": 71997, "pitch": 64, "duration": 90, "velocity": 80}, {"time": 72007, "pitch": 76, "duration": 90, "velocity": 85}, {"time": 72238, "pitch": 62, "duration": 90, "velocity": 85}, {"time": 72248, "pitch": 74, "duration": 90, "velocity": 90}, {"time": 72479, "pitch": 63, "duration": 90, "velocity": 80}, {"time": 72489, "pitch": 75, "duration": 90, "velocity": 85}, {"time": 72720, "pitch": 64, "duration": 502, "velocity": 85}, {"time": 72730, "pitch": 76, "duration": 502, "velocity": 90}, {"time": 75363, "pitch": 67, "duration": 79, "velocity": 85}, {"time": 75363, "pitch": 72, "duration": 79, "velocity": 90}, {"time": 75373, "pitch": 76, "duration": 79, "velocity": 95}, {"time": 75837, "pitch": 67, "duration": 482, "velocity": 70}, {"time": 75837, "pitch": 72, "duration": 482, "velocity": 75}, {"time": 75847, "pitch": 76, "duration": 482, "velocity": 80}, {"time": 78631, "pitch": 66, "duration": 221, "velocity": 95}, {"time": 78641, "pitch": 70, "duration": 161, "velocity": 75}, {"time": 78872, "pitch": 64, "duration": 90, "velocity": 50}, {"time": 78962, "pitch": 61, "duration": 40, "velocity": 70}, {"time": 80400, "pitch": 47, "duration": 81, "velocity": 80}, {"time": 80410, "pitch": 59, "duration": 81, "velocity": 90}, {"time": 80641, "pitch": 49, "duration": 432, "velocity": 80}, {"time": 80651, "pitch": 61, "duration": 422, "velocity": 90}, {"time": 82471, "pitch": 66, "duration": 221, "velocity": 95}, {"time": 82481, "pitch": 70, "duration": 161, "velocity": 75}, {"time": 82712, "pitch": 64, "duration": 90, "velocity": 50}, {"time": 82802, "pitch": 61, "duration": 41, "velocity": 70}, {"time": 84481, "pitch": 49, "duration": 382, "velocity": 95}, {"time": 84492, "pitch": 61, "duration": 381, "velocity": 100}, {"time": 99842, "pitch": 57, "duration": 395, "velocity": 90}, {"time": 99852, "pitch": 69, "duration": 395, "velocity": 100}, {"time": 100316, "pitch": 55, "duration": 1910, "velocity": 90}, {"time": 100326, "pitch": 67, "duration": 1900, "velocity": 100}, {"time": 102236, "pitch": 52, "duration": 100, "velocity": 65}, {"time": 102246, "pitch": 64, "duration": 100, "velocity": 70}, {"time": 102477, "pitch": 55, "duration": 100, "velocity": 80}, {"time": 102487, "pitch": 67, "duration": 101, "velocity": 85}, {"time": 102718, "pitch": 57, "duration": 101, "velocity": 85}, {"time": 102728, "pitch": 69, "duration": 101, "velocity": 90}, {"time": 102959, "pitch": 52, "duration": 101, "velocity": 70}, {"time": 102969, "pitch": 64, "duration": 101, "velocity": 75}, {"time": 103200, "pitch": 55, "duration": 101, "velocity": 75}, {"time": 103210, "pitch": 67, "duration": 101, "velocity": 80}, {"time": 103441, "pitch": 57, "duration": 695, "velocity": 90}, {"time": 103451, "pitch": 69, "duration": 695, "velocity": 95}, {"time": 104156, "pitch": 50, "duration": 1910, "velocity": 90}, {"time": 104166, "pitch": 62, "duration": 1900, "velocity": 100}, {"time": 106017, "pitch": 67, "duration": 300, "velocity": 90}, {"time": 106047, "pitch": 71, "duration": 270, "velocity": 95}, {"time": 106076, "pitch": 78, "duration": 241, "velocity": 100}, {"time": 106317, "pitch": 76, "duration": 81, "velocity": 90}, {"time": 106799, "pitch": 67, "duration": 723, "velocity": 90}, {"time": 106809, "pitch": 71, "duration": 482, "velocity": 95}, {"time": 107281, "pitch": 74, "duration": 715, "velocity": 100}, {"time": 107522, "pitch": 71, "duration": 474, "velocity": 95}, {"time": 107759, "pitch": 67, "duration": 237, "velocity": 90}, {"time": 107996, "pitch": 60, "duration": 713, "velocity": 60}, {"time": 107996, "pitch": 64, "duration": 713, "velocity": 70}, {"time": 108006, "pitch": 69, "duration": 713, "velocity": 80}, {"time": 108719, "pitch": 71, "duration": 1059, "velocity": 95}, {"time": 109201, "pitch": 69, "duration": 617, "velocity": 90}, {"time": 109442, "pitch": 64, "duration": 435, "velocity": 95}, {"time": 109679, "pitch": 60, "duration": 237, "velocity": 90}, {"time": 109916, "pitch": 62, "duration": 713, "velocity": 60}, {"time": 109916, "pitch": 66, "duration": 713, "velocity": 70}, {"time": 109926, "pitch": 71, "duration": 713, "velocity": 80}, {"time": 110639, "pitch": 73, "duration": 1197, "velocity": 95}, {"time": 111122, "pitch": 71, "duration": 714, "velocity": 90}, {"time": 111363, "pitch": 66, "duration": 473, "velocity": 95}, {"time": 111600, "pitch": 62, "duration": 236, "velocity": 90}, {"time": 111777, "pitch": 63, "duration": 1980, "velocity": 60}, {"time": 111807, "pitch": 67, "duration": 1950, "velocity": 70}, {"time": 111836, "pitch": 72, "duration": 1921, "velocity": 80}, {"time": 113757, "pitch": 67, "duration": 261, "velocity": 90}, {"time": 113757, "pitch": 72, "duration": 261, "velocity": 95}, {"time": 113767, "pitch": 76, "duration": 261, "velocity": 100}, {"time": 114239, "pitch": 66, "duration": 261, "velocity": 85}, {"time": 114239, "pitch": 71, "duration": 261, "velocity": 90}, {"time": 114249, "pitch": 75, "duration": 261, "velocity": 95}, {"time": 114721, "pitch": 65, "duration": 261, "velocity": 90}, {"time": 114721, "pitch": 70, "duration": 261, "velocity": 95}, {"time": 114731, "pitch": 74, "duration": 261, "velocity": 100}, {"time": 115203, "pitch": 55, "duration": 256, "velocity": 100}, {"time": 115213, "pitch": 67, "duration": 256, "velocity": 105}, {"time": 117597, "pitch": 62, "duration": 90, "velocity": 90}, {"time": 117607, "pitch": 74, "duration": 90, "velocity": 95}, {"time": 117838, "pitch": 63, "duration": 90, "velocity": 85}, {"time": 117848, "pitch": 75, "duration": 90, "velocity": 90}, {"time": 118079, "pitch": 64, "duration": 90, "velocity": 80}, {"time": 118089, "pitch": 76, "duration": 90, "velocity": 85}, {"time": 118320, "pitch": 62, "duration": 90, "velocity": 85}, {"time": 118330, "pitch": 74, "duration": 90, "velocity": 90}, {"time": 118561, "pitch": 63, "duration": 90, "velocity": 80}, {"time": 118571, "pitch": 75, "duration": 90, "velocity": 85}, {"time": 118802, "pitch": 64, "duration": 498, "velocity": 85}, {"time": 118812, "pitch": 76, "duration": 497, "velocity": 90}, {"time": 121437, "pitch": 62, "duration": 90, "velocity": 90}, {"time": 121447, "pitch": 74, "duration": 90, "velocity": 95}, {"time": 121678, "pitch": 63, "duration": 90, "velocity": 85}, {"time": 121688, "pitch": 75, "duration": 90, "velocity": 90}, {"time": 121919, "pitch": 64, "duration": 90, "velocity": 80}, {"time": 121929, "pitch": 76, "duration": 90, "velocity": 85}, {"time": 122160, "pitch": 62, "duration": 90, "velocity": 85}, {"time": 122170, "pitch": 74, "duration": 90, "velocity": 90}, {"time": 122401, "pitch": 63, "duration": 90, "velocity": 80}, {"time": 122411, "pitch": 75, "duration": 90, "velocity": 85}, {"time": 122642, "pitch": 64, "duration": 498, "velocity": 85}, {"time": 122652, "pitch": 76, "duration": 498, "velocity": 90}, {"time": 125277, "pitch": 62, "duration": 90, "velocity": 90}, {"time": 125287, "pitch": 74, "duration": 90, "velocity": 95}, {"time": 125518, "pitch": 63, "duration": 90, "velocity": 85}, {"time": 125528, "pitch": 75, "duration": 90, "velocity": 90}, {"time": 125759, "pitch": 64, "duration": 90, "velocity": 80}, {"time": 125769, "pitch": 76, "duration": 90, "velocity": 85}, {"time": 126000, "pitch": 62, "duration": 90, "velocity": 85}, {"time": 126010, "pitch": 74, "duration": 91, "velocity": 90}, {"time": 126241, "pitch": 63, "duration": 91, "velocity": 80}, {"time": 126251, "pitch": 75, "duration": 91, "velocity": 85}, {"time": 126482, "pitch": 64, "duration": 498, "velocity": 85}, {"time": 126492, "pitch": 76, "duration": 498, "velocity": 90}, {"time": 129117, "pitch": 67, "duration": 80, "velocity": 85}, {"time": 129117, "pitch": 72, "duration": 80, "velocity": 90}, {"time": 129127, "pitch": 76, "duration": 81, "velocity": 95}, {"time": 129599, "pitch": 67, "duration": 482, "velocity": 70}, {"time": 129599, "pitch": 72, "duration": 482, "velocity": 75}, {"time": 129609, "pitch": 76, "duration": 482, "velocity": 80}, {"time": 131278, "pitch": 54, "duration": 161, "velocity": 85}, {"time": 131439, "pitch": 52, "duration": 80, "velocity": 70}, {"time": 131519, "pitch": 54, "duration": 161, "velocity": 85}, {"time": 131680, "pitch": 52, "duration": 80, "velocity": 70}, {"time": 131921, "pitch": 54, "duration": 80, "velocity": 85}, {"time": 132162, "pitch": 52, "duration": 80, "velocity": 70}, {"time": 132403, "pitch": 54, "duration": 80, "velocity": 75}, {"time": 132641, "pitch": 55, "duration": 79, "velocity": 85}, {"time": 132878, "pitch": 54, "duration": 320, "velocity": 90}, {"time": 133198, "pitch": 52, "duration": 81, "velocity": 85}, {"time": 133439, "pitch": 47, "duration": 81, "velocity": 80}, {"time": 133680, "pitch": 52, "duration": 723, "velocity": 85}, {"time": 135118, "pitch": 54, "duration": 161, "velocity": 85}, {"time": 135279, "pitch": 52, "duration": 80, "velocity": 70}, {"time": 135359, "pitch": 54, "duration": 161, "velocity": 85}, {"time": 135520, "pitch": 52, "duration": 80, "velocity": 70}, {"time": 135761, "pitch": 54, "duration": 81, "velocity": 85}, {"time": 136002, "pitch": 52, "duration": 81, "velocity": 70}, {"time": 136243, "pitch": 54, "duration": 81, "velocity": 75}, {"time": 136482, "pitch": 55, "duration": 79, "velocity": 85}, {"time": 136719, "pitch": 54, "duration": 319, "velocity": 90}, {"time": 137038, "pitch": 52, "duration": 81, "velocity": 85}, {"time": 138959, "pitch": 54, "duration": 160, "velocity": 85}, {"time": 139119, "pitch": 52, "duration": 81, "velocity": 70}, {"time": 139200, "pitch": 54, "duration": 160, "velocity": 85}, {"time": 139360, "pitch": 52, "duration": 81, "velocity": 70}, {"time": 139601, "pitch": 54, "duration": 81, "velocity": 85}, {"time": 139842, "pitch": 52, "duration": 81, "velocity": 70}, {"time": 140083, "pitch": 54, "duration": 81, "velocity": 75}, {"time": 140322, "pitch": 55, "duration": 79, "velocity": 85}, {"time": 140559, "pitch": 54, "duration": 320, "velocity": 90}, {"time": 140879, "pitch": 52, "duration": 80, "velocity": 85}, {"time": 141120, "pitch": 47, "duration": 80, "velocity": 80}, {"time": 141361, "pitch": 52, "duration": 723, "velocity": 85}, {"time": 142799, "pitch": 54, "duration": 160, "velocity": 85}, {"time": 142959, "pitch": 52, "duration": 81, "velocity": 70}, {"time": 143040, "pitch": 54, "duration": 160, "velocity": 85}, {"time": 143200, "pitch": 52, "duration": 81, "velocity": 70}, {"time": 143442, "pitch": 54, "duration": 80, "velocity": 85}, {"time": 143683, "pitch": 52, "duration": 80, "velocity": 70}, {"time": 143924, "pitch": 54, "duration": 80, "velocity": 75}, {"time": 144162, "pitch": 55, "duration": 79, "velocity": 85}, {"time": 144399, "pitch": 54, "duration": 320, "velocity": 90}, {"time": 144719, "pitch": 52, "duration": 80, "velocity": 85}, {"time": 159838, "pitch": 67, "duration": 262, "velocity": 90}, {"time": 159838, "pitch": 72, "duration": 262, "velocity": 95}, {"time": 159848, "pitch": 76, "duration": 262, "velocity": 100}, {"time": 160320, "pitch": 66, "duration": 262, "velocity": 85}, {"time": 160320, "pitch": 71, "duration": 262, "velocity": 90}, {"time": 160331, "pitch": 75, "duration": 261, "velocity": 95}, {"time": 160803, "pitch": 65, "duration": 256, "velocity": 90}, {"time": 160803, "pitch": 70, "duration": 256, "velocity": 95}, {"time": 160812, "pitch": 74, "duration": 257, "velocity": 100}, {"time": 161276, "pitch": 55, "duration": 262, "velocity": 100}, {"time": 161286, "pitch": 67, "duration": 262, "velocity": 105}, {"time": 163679, "pitch": 62, "duration": 90, "velocity": 90}, {"time": 163689, "pitch": 74, "duration": 90, "velocity": 95}, {"time": 163920, "pitch": 63, "duration": 90, "velocity": 85}, {"time": 163930, "pitch": 75, "duration": 90, "velocity": 90}, {"time": 164161, "pitch": 64, "duration": 90, "velocity": 80}, {"time": 164171, "pitch": 76, "duration": 90, "velocity": 85}, {"time": 164402, "pitch": 62, "duration": 90, "velocity": 85}, {"time": 164412, "pitch": 74, "duration": 90, "velocity": 90}, {"time": 164643, "pitch": 63, "duration": 89, "velocity": 80}, {"time": 164653, "pitch": 75, "duration": 88, "velocity": 85}, {"time": 164880, "pitch": 64, "duration": 498, "velocity": 85}, {"time": 164890, "pitch": 76, "duration": 498, "velocity": 90}, {"time": 167519, "pitch": 62, "duration": 90, "velocity": 90}, {"time": 167529, "pitch": 74, "duration": 90, "velocity": 95}, {"time": 167760, "pitch": 63, "duration": 90, "velocity": 85}, {"time": 167770, "pitch": 75, "duration": 90, "velocity": 90}, {"time": 168001, "pitch": 64, "duration": 90, "velocity": 80}, {"time": 168011, "pitch": 76, "duration": 90, "velocity": 85}, {"time": 168242, "pitch": 62, "duration": 90, "velocity": 85}, {"time": 168252, "pitch": 74, "duration": 90, "velocity": 90}, {"time": 168483, "pitch": 63, "duration": 89, "velocity": 80}, {"time": 168493, "pitch": 75, "duration": 89, "velocity": 85}, {"time": 168720, "pitch": 64, "duration": 498, "velocity": 85}, {"time": 168730, "pitch": 76, "duration": 498, "velocity": 90}, {"time": 171359, "pitch": 62, "duration": 90, "velocity": 90}, {"time": 171369, "pitch": 74, "duration": 90, "velocity": 95}, {"time": 171600, "pitch": 63, "duration": 90, "velocity": 85}, {"time": 171610, "pitch": 75, "duration": 90, "velocity": 90}, {"time": 171841, "pitch": 64, "duration": 90, "velocity": 80}, {"time": 171851, "pitch": 76, "duration": 90, "velocity": 85}, {"time": 172082, "pitch": 62, "duration": 90, "velocity": 85}, {"time": 172092, "pitch": 74, "duration": 90, "velocity": 90}, {"time": 172323, "pitch": 63, "duration": 89, "velocity": 80}, {"time": 172333, "pitch": 75, "duration": 89, "velocity": 85}, {"time": 172560, "pitch": 64, "duration": 498, "velocity": 85}, {"time": 172570, "pitch": 76, "duration": 498, "velocity": 90}, {"time": 175199, "pitch": 67, "duration": 80, "velocity": 85}, {"time": 175199, "pitch": 72, "duration": 80, "velocity": 90}, {"time": 175209, "pitch": 76, "duration": 80, "velocity": 95}, {"time": 175681, "pitch": 67, "duration": 482, "velocity": 70}, {"time": 175681, "pitch": 72, "duration": 482, "velocity": 75}, {"time": 175691, "pitch": 76, "duration": 482, "velocity": 80}, {"time": 179039, "pitch": 62, "duration": 91, "velocity": 90}, {"time": 179049, "pitch": 74, "duration": 91, "velocity": 95}, {"time": 179280, "pitch": 63, "duration": 91, "velocity": 85}, {"time": 179290, "pitch": 75, "duration": 91, "velocity": 90}, {"time": 179521, "pitch": 64, "duration": 91, "velocity": 80}, {"time": 179531, "pitch": 76, "duration": 91, "velocity": 85}, {"time": 179762, "pitch": 62, "duration": 91, "velocity": 85}, {"time": 179772, "pitch": 74, "duration": 91, "velocity": 90}, {"time": 180003, "pitch": 63, "duration": 89, "velocity": 80}, {"time": 180013, "pitch": 75, "duration": 89, "velocity": 85}, {"time": 180240, "pitch": 64, "duration": 498, "velocity": 85}, {"time": 180250, "pitch": 76, "duration": 498, "velocity": 90}, {"time": 182879, "pitch": 62, "duration": 91, "velocity": 90}, {"time": 182889, "pitch": 74, "duration": 91, "velocity": 95}, {"time": 183120, "pitch": 63, "duration": 91, "velocity": 85}, {"time": 183130, "pitch": 75, "duration": 91, "velocity": 90}, {"time": 183361, "pitch": 64, "duration": 91, "velocity": 80}, {"time": 183371, "pitch": 76, "duration": 91, "velocity": 85}, {"time": 183602, "pitch": 62, "duration": 91, "velocity": 85}, {"time": 183613, "pitch": 74, "duration": 90, "velocity": 90}, {"time": 183843, "pitch": 63, "duration": 89, "velocity": 80}, {"time": 183853, "pitch": 75, "duration": 89, "velocity": 85}, {"time": 184080, "pitch": 64, "duration": 498, "velocity": 85}, {"time": 184090, "pitch": 76, "duration": 499, "velocity": 90}, {"time": 186720, "pitch": 62, "duration": 90, "velocity": 90}, {"time": 186730, "pitch": 74, "duration": 90, "velocity": 95}, {"time": 186961, "pitch": 63, "duration": 90, "velocity": 85}, {"time": 186971, "pitch": 75, "duration": 90, "velocity": 90}, {"time": 187202, "pitch": 64, "duration": 90, "velocity": 80}, {"time": 187212, "pitch": 76, "duration": 90, "velocity": 85}, {"time": 187443, "pitch": 62, "duration": 90, "velocity": 85}, {"time": 187453, "pitch": 74, "duration": 90, "velocity": 90}, {"time": 187684, "pitch": 63, "duration": 88, "velocity": 80}, {"time": 187693, "pitch": 75, "duration": 89, "velocity": 85}, {"time": 187921, "pitch": 64, "duration": 498, "velocity": 85}, {"time": 187930, "pitch": 76, "duration": 499, "velocity": 90}, {"time": 190560, "pitch": 67, "duration": 80, "velocity": 85}, {"time": 190560, "pitch": 72, "duration": 80, "velocity": 90}, {"time": 190570, "pitch": 76, "duration": 80, "velocity": 95}, {"time": 191042, "pitch": 67, "duration": 482, "velocity": 70}, {"time": 191042, "pitch": 72, "duration": 482, "velocity": 75}, {"time": 191052, "pitch": 76, "duration": 482, "velocity": 80}, {"time": 193829, "pitch": 66, "duration": 219, "velocity": 95}, {"time": 193839, "pitch": 70, "duration": 159, "velocity": 75}, {"time": 194068, "pitch": 64, "duration": 91, "velocity": 50}, {"time": 194159, "pitch": 61, "duration": 40, "velocity": 70}, {"time": 195601, "pitch": 47, "duration": 79, "velocity": 80}, {"time": 195611, "pitch": 59, "duration": 79, "velocity": 90}, {"time": 195838, "pitch": 49, "duration": 432, "velocity": 80}, {"time": 195848, "pitch": 61, "duration": 422, "velocity": 90}, {"time": 197669, "pitch": 66, "duration": 219, "velocity": 95}, {"time": 197679, "pitch": 70, "duration": 159, "velocity": 75}, {"time": 197909, "pitch": 64, "duration": 90, "velocity": 50}, {"time": 197999, "pitch": 61, "duration": 40, "velocity": 70}, {"time": 199437, "pitch": 47, "duration": 80, "velocity": 80}, {"time": 199447, "pitch": 59, "duration": 80, "velocity": 90}, {"time": 199678, "pitch": 49, "duration": 432, "velocity": 80}, {"time": 199688, "pitch": 61, "duration": 422, "velocity": 90}, {"time": 201508, "pitch": 66, "duration": 221, "velocity": 95}, {"time": 201518, "pitch": 70, "duration": 160, "velocity": 75}, {"time": 201749, "pitch": 64, "duration": 90, "velocity": 50}, {"time": 201839, "pitch": 61, "duration": 40, "velocity": 70}, {"time": 203277, "pitch": 47, "duration": 80, "velocity": 80}, {"time": 203287, "pitch": 59, "duration": 80, "velocity": 90}, {"time": 203518, "pitch": 49, "duration": 432, "velocity": 80}, {"time": 203528, "pitch": 61, "duration": 422, "velocity": 90}, {"time": 205348, "pitch": 66, "duration": 221, "velocity": 95}, {"time": 205358, "pitch": 70, "duration": 161, "velocity": 75}, {"time": 205589, "pitch": 64, "duration": 90, "velocity": 50}, {"time": 205679, "pitch": 61, "duration": 40, "velocity": 70}, {"time": 207117, "pitch": 47, "duration": 81, "velocity": 80}, {"time": 207127, "pitch": 59, "duration": 81, "velocity": 90}, {"time": 207358, "pitch": 49, "duration": 432, "velocity": 80}, {"time": 207368, "pitch": 61, "duration": 422, "velocity": 90}], "annotations": [{"time": 292, "annotation": {"number": 7, "value": 100}, "group": "control_change"}, {"time": 313, "annotation": {"number": 11, "value": 100}, "group": "control_change"}, {"time": 334, "annotation": {"number": 10, "value": 107}, "group": "control_change"}, {"time": 355, "annotation": {"number": 91, "value": 40}, "group": "control_change"}, {"time": 376, "annotation": {"number": 93, "value": 0}, "group": "control_change"}, {"time": 397, "annotation": {"number": 101, "value": 0}, "group": "control_change"}, {"time": 417, "annotation": {"number": 100, "value": 0}, "group": "control_change"}, {"time": 438, "annotation": {"number": 6, "value": 12}, "group": "control_change"}, {"time": 459, "annotation": {"number": 101, "value": 127}, "group": "control_change"}, {"time": 480, "annotation": {"number": 100, "value": 127}, "group": "control_change"}, {"time": 133741, "annotation": {"number": 1, "value": 16}, "group": "control_change"}, {"time": 133801, "annotation": {"number": 1, "value": 33}, "group": "control_change"}, {"time": 133861, "annotation": {"number": 1, "value": 48}, "group": "control_change"}, {"time": 134173, "annotation": {"number": 1, "value": 0}, "group": "control_change"}, {"time": 141421, "annotation": {"number": 1, "value": 16}, "group": "control_change"}, {"time": 141481, "annotation": {"number": 1, "value": 33}, "group": "control_change"}, {"time": 141542, "annotation": {"number": 1, "value": 48}, "group": "control_change"}, {"time": 141853, "annotation": {"number": 1, "value": 0}, "group": "control_change"}]}, {"program": 0, "is_drum": false, "name": "E.GUITAR 2", "annotations": [{"time": 230, "annotation": {"number": 0, "value": 0}, "group": "control_change"}, {"time": 250, "annotation": {"number": 32, "value": 0}, "group": "control_change"}]}, {"program": 26, "is_drum": false, "name": "E.GUITAR 2", "notes": [{"time": 16082, "pitch": 55, "duration": 50, "velocity": 90}, {"time": 16323, "pitch": 55, "duration": 10, "velocity": 60}, {"time": 16471, "pitch": 55, "duration": 49, "velocity": 80}, {"time": 16708, "pitch": 55, "duration": 10, "velocity": 40}, {"time": 16797, "pitch": 55, "duration": 50, "velocity": 90}, {"time": 17188, "pitch": 55, "duration": 51, "velocity": 80}, {"time": 17520, "pitch": 55, "duration": 150, "velocity": 70}, {"time": 17670, "pitch": 55, "duration": 20, "velocity": 80}, {"time": 18002, "pitch": 55, "duration": 50, "velocity": 90}, {"time": 18243, "pitch": 55, "duration": 10, "velocity": 60}, {"time": 18391, "pitch": 55, "duration": 49, "velocity": 80}, {"time": 18628, "pitch": 55, "duration": 10, "velocity": 40}, {"time": 18717, "pitch": 55, "duration": 50, "velocity": 90}, {"time": 19108, "pitch": 55, "duration": 51, "velocity": 80}, {"time": 19440, "pitch": 55, "duration": 150, "velocity": 70}, {"time": 19590, "pitch": 55, "duration": 21, "velocity": 80}, {"time": 19922, "pitch": 55, "duration": 50, "velocity": 90}, {"time": 20163, "pitch": 55, "duration": 10, "velocity": 60}, {"time": 20311, "pitch": 55, "duration": 49, "velocity": 80}, {"time": 20548, "pitch": 55, "duration": 10, "velocity": 40}, {"time": 20637, "pitch": 55, "duration": 50, "velocity": 90}, {"time": 21028, "pitch": 55, "duration": 51, "velocity": 80}, {"time": 21360, "pitch": 55, "duration": 151, "velocity": 70}, {"time": 21511, "pitch": 55, "duration": 20, "velocity": 80}, {"time": 21842, "pitch": 55, "duration": 50, "velocity": 90}, {"time": 22083, "pitch": 55, "duration": 10, "velocity": 60}, {"time": 22231, "pitch": 55, "duration": 49, "velocity": 80}, {"time": 22468, "pitch": 55, "duration": 10, "velocity": 40}, {"time": 22557, "pitch": 55, "duration": 50, "velocity": 90}, {"time": 22949, "pitch": 55, "duration": 50, "velocity": 80}, {"time": 23280, "pitch": 55, "duration": 151, "velocity": 70}, {"time": 23431, "pitch": 55, "duration": 20, "velocity": 80}, {"time": 23762, "pitch": 55, "duration": 50, "velocity": 90}, {"time": 24003, "pitch": 55, "duration": 10, "velocity": 60}, {"time": 24151, "pitch": 55, "duration": 50, "velocity": 80}, {"time": 24388, "pitch": 55, "duration": 10, "velocity": 40}, {"time": 24477, "pitch": 55, "duration": 50, "velocity": 90}, {"time": 24869, "pitch": 55, "duration": 50, "velocity": 80}, {"time": 25200, "pitch": 55, "duration": 151, "velocity": 70}, {"time": 25351, "pitch": 55, "duration": 20, "velocity": 80}, {"time": 25682, "pitch": 55, "duration": 50, "velocity": 90}, {"time": 25923, "pitch": 55, "duration": 10, "velocity": 60}, {"time": 26071, "pitch": 55, "duration": 50, "velocity": 80}, {"time": 26308, "pitch": 55, "duration": 10, "velocity": 40}, {"time": 26397, "pitch": 55, "duration": 50, "velocity": 90}, {"time": 26789, "pitch": 55, "duration": 50, "velocity": 80}, {"time": 27120, "pitch": 55, "duration": 151, "velocity": 70}, {"time": 27271, "pitch": 55, "duration": 20, "velocity": 80}, {"time": 27602, "pitch": 55, "duration": 50, "velocity": 90}, {"time": 27843, "pitch": 55, "duration": 10, "velocity": 60}, {"time": 27991, "pitch": 55, "duration": 50, "velocity": 80}, {"time": 28228, "pitch": 55, "duration": 10, "velocity": 40}, {"time": 28317, "pitch": 55, "duration": 50, "velocity": 90}, {"time": 28709, "pitch": 55, "duration": 50, "velocity": 80}, {"time": 29040, "pitch": 55, "duration": 151, "velocity": 70}, {"time": 29191, "pitch": 55, "duration": 20, "velocity": 80}, {"time": 29522, "pitch": 55, "duration": 51, "velocity": 90}, {"time": 29763, "pitch": 55, "duration": 10, "velocity": 60}, {"time": 29911, "pitch": 55, "duration": 50, "velocity": 80}, {"time": 30148, "pitch": 55, "duration": 10, "velocity": 40}, {"time": 30237, "pitch": 55, "duration": 50, "velocity": 90}, {"time": 30629, "pitch": 55, "duration": 50, "velocity": 80}, {"time": 30960, "pitch": 55, "duration": 151, "velocity": 70}, {"time": 31111, "pitch": 55, "duration": 20, "velocity": 80}, {"time": 31442, "pitch": 55, "duration": 51, "velocity": 90}, {"time": 31683, "pitch": 55, "duration": 10, "velocity": 60}, {"time": 31831, "pitch": 55, "duration": 50, "velocity": 80}, {"time": 32068, "pitch": 55, "duration": 10, "velocity": 40}, {"time": 32157, "pitch": 55, "duration": 50, "velocity": 90}, {"time": 32549, "pitch": 55, "duration": 50, "velocity": 80}, {"time": 32880, "pitch": 55, "duration": 151, "velocity": 70}, {"time": 33031, "pitch": 55, "duration": 20, "velocity": 80}, {"time": 33362, "pitch": 55, "duration": 51, "velocity": 90}, {"time": 33603, "pitch": 55, "duration": 10, "velocity": 60}, {"time": 33752, "pitch": 55, "duration": 49, "velocity": 80}, {"time": 33989, "pitch": 55, "duration": 9, "velocity": 40}, {"time": 34077, "pitch": 55, "duration": 51, "velocity": 90}, {"time": 34469, "pitch": 55, "duration": 50, "velocity": 80}, {"time": 34800, "pitch": 55, "duration": 151, "velocity": 70}, {"time": 34951, "pitch": 55, "duration": 20, "velocity": 80}, {"time": 35283, "pitch": 55, "duration": 50, "velocity": 90}, {"time": 35524, "pitch": 55, "duration": 9, "velocity": 60}, {"time": 35672, "pitch": 55, "duration": 49, "velocity": 80}, {"time": 35909, "pitch": 55, "duration": 9, "velocity": 40}, {"time": 35997, "pitch": 55, "duration": 51, "velocity": 90}, {"time": 36389, "pitch": 55, "duration": 50, "velocity": 80}, {"time": 36721, "pitch": 55, "duration": 150, "velocity": 70}, {"time": 36871, "pitch": 55, "duration": 20, "velocity": 80}, {"time": 37203, "pitch": 55, "duration": 50, "velocity": 90}, {"time": 37444, "pitch": 55, "duration": 9, "velocity": 60}, {"time": 37592, "pitch": 55, "duration": 49, "velocity": 80}, {"time": 37829, "pitch": 55, "duration": 10, "velocity": 40}, {"time": 37918, "pitch": 55, "duration": 50, "velocity": 90}, {"time": 38309, "pitch": 55, "duration": 50, "velocity": 80}, {"time": 38641, "pitch": 55, "duration": 150, "velocity": 70}, {"time": 38791, "pitch": 55, "duration": 20, "velocity": 80}, {"time": 39123, "pitch": 55, "duration": 50, "velocity": 90}, {"time": 39364, "pitch": 55, "duration": 10, "velocity": 60}, {"time": 39512, "pitch": 55, "duration": 49, "velocity": 80}, {"time": 39749, "pitch": 55, "duration": 10, "velocity": 40}, {"time": 39838, "pitch": 55, "duration": 50, "velocity": 90}, {"time": 40229, "pitch": 55, "duration": 50, "velocity": 80}, {"time": 40561, "pitch": 55, "duration": 150, "velocity": 70}, {"time": 40711, "pitch": 55, "duration": 20, "velocity": 80}, {"time": 41043, "pitch": 55, "duration": 50, "velocity": 90}, {"time": 41284, "pitch": 55, "duration": 10, "velocity": 60}, {"time": 41432, "pitch": 55, "duration": 49, "velocity": 80}, {"time": 41669, "pitch": 55, "duration": 10, "velocity": 40}, {"time": 41758, "pitch": 55, "duration": 50, "velocity": 90}, {"time": 42149, "pitch": 55, "duration": 51, "velocity": 80}, {"time": 42481, "pitch": 55, "duration": 150, "velocity": 70}, {"time": 42631, "pitch": 55, "duration": 21, "velocity": 80}, {"time": 42963, "pitch": 55, "duration": 50, "velocity": 90}, {"time": 43204, "pitch": 55, "duration": 10, "velocity": 60}, {"time": 43352, "pitch": 55, "duration": 49, "velocity": 80}, {"time": 43589, "pitch": 55, "duration": 10, "velocity": 40}, {"time": 43678, "pitch": 55, "duration": 50, "velocity": 90}, {"time": 44069, "pitch": 55, "duration": 51, "velocity": 80}, {"time": 44401, "pitch": 55, "duration": 151, "velocity": 70}, {"time": 44552, "pitch": 55, "duration": 20, "velocity": 80}, {"time": 44883, "pitch": 55, "duration": 50, "velocity": 90}, {"time": 45124, "pitch": 55, "duration": 10, "velocity": 60}, {"time": 45272, "pitch": 55, "duration": 49, "velocity": 80}, {"time": 45509, "pitch": 55, "duration": 10, "velocity": 40}, {"time": 45598, "pitch": 55, "duration": 50, "velocity": 90}, {"time": 45990, "pitch": 55, "duration": 50, "velocity": 80}, {"time": 46321, "pitch": 55, "duration": 151, "velocity": 70}, {"time": 46472, "pitch": 55, "duration": 20, "velocity": 80}, {"time": 46803, "pitch": 55, "duration": 50, "velocity": 90}, {"time": 47044, "pitch": 55, "duration": 10, "velocity": 60}, {"time": 47192, "pitch": 55, "duration": 49, "velocity": 80}, {"time": 47429, "pitch": 55, "duration": 10, "velocity": 40}, {"time": 47518, "pitch": 55, "duration": 50, "velocity": 90}, {"time": 47910, "pitch": 55, "duration": 50, "velocity": 80}, {"time": 48241, "pitch": 55, "duration": 151, "velocity": 70}, {"time": 48392, "pitch": 55, "duration": 20, "velocity": 80}, {"time": 48719, "pitch": 55, "duration": 49, "velocity": 90}, {"time": 48956, "pitch": 55, "duration": 10, "velocity": 60}, {"time": 49107, "pitch": 55, "duration": 50, "velocity": 80}, {"time": 49348, "pitch": 55, "duration": 10, "velocity": 40}, {"time": 49438, "pitch": 55, "duration": 50, "velocity": 90}, {"time": 49830, "pitch": 55, "duration": 50, "velocity": 80}, {"time": 50161, "pitch": 55, "duration": 151, "velocity": 70}, {"time": 50312, "pitch": 55, "duration": 20, "velocity": 80}, {"time": 50639, "pitch": 55, "duration": 49, "velocity": 90}, {"time": 50876, "pitch": 55, "duration": 10, "velocity": 60}, {"time": 51027, "pitch": 55, "duration": 50, "velocity": 80}, {"time": 51268, "pitch": 55, "duration": 10, "velocity": 40}, {"time": 51358, "pitch": 55, "duration": 50, "velocity": 90}, {"time": 51750, "pitch": 55, "duration": 50, "velocity": 80}, {"time": 52081, "pitch": 55, "duration": 151, "velocity": 70}, {"time": 52232, "pitch": 55, "duration": 20, "velocity": 80}, {"time": 52559, "pitch": 50, "duration": 79, "velocity": 95}, {"time": 52796, "pitch": 50, "duration": 10, "velocity": 60}, {"time": 52947, "pitch": 52, "duration": 80, "velocity": 95}, {"time": 53188, "pitch": 52, "duration": 90, "velocity": 70}, {"time": 53278, "pitch": 55, "duration": 80, "velocity": 95}, {"time": 53519, "pitch": 57, "duration": 81, "velocity": 90}, {"time": 53760, "pitch": 55, "duration": 50, "velocity": 85}, {"time": 53911, "pitch": 55, "duration": 10, "velocity": 70}, {"time": 54152, "pitch": 55, "duration": 50, "velocity": 80}, {"time": 54479, "pitch": 55, "duration": 50, "velocity": 90}, {"time": 54716, "pitch": 55, "duration": 10, "velocity": 60}, {"time": 54867, "pitch": 55, "duration": 50, "velocity": 80}, {"time": 55108, "pitch": 55, "duration": 10, "velocity": 40}, {"time": 55198, "pitch": 55, "duration": 50, "velocity": 90}, {"time": 55590, "pitch": 55, "duration": 50, "velocity": 80}, {"time": 55921, "pitch": 55, "duration": 151, "velocity": 70}, {"time": 56072, "pitch": 55, "duration": 20, "velocity": 80}, {"time": 56399, "pitch": 57, "duration": 50, "velocity": 90}, {"time": 56636, "pitch": 57, "duration": 10, "velocity": 60}, {"time": 56787, "pitch": 57, "duration": 50, "velocity": 80}, {"time": 57028, "pitch": 57, "duration": 10, "velocity": 40}, {"time": 57118, "pitch": 57, "duration": 51, "velocity": 90}, {"time": 57510, "pitch": 57, "duration": 50, "velocity": 80}, {"time": 57841, "pitch": 57, "duration": 151, "velocity": 70}, {"time": 57992, "pitch": 57, "duration": 20, "velocity": 80}, {"time": 58319, "pitch": 58, "duration": 50, "velocity": 90}, {"time": 58556, "pitch": 58, "duration": 10, "velocity": 60}, {"time": 58707, "pitch": 58, "duration": 50, "velocity": 80}, {"time": 58948, "pitch": 58, "duration": 10, "velocity": 40}, {"time": 59038, "pitch": 58, "duration": 51, "velocity": 90}, {"time": 59430, "pitch": 58, "duration": 50, "velocity": 80}, {"time": 59761, "pitch": 58, "duration": 151, "velocity": 70}, {"time": 59912, "pitch": 58, "duration": 20, "velocity": 80}, {"time": 60002, "pitch": 60, "duration": 237, "velocity": 80}, {"time": 60012, "pitch": 72, "duration": 237, "velocity": 90}, {"time": 60476, "pitch": 59, "duration": 241, "velocity": 80}, {"time": 60486, "pitch": 71, "duration": 241, "velocity": 90}, {"time": 60958, "pitch": 58, "duration": 241, "velocity": 80}, {"time": 60968, "pitch": 70, "duration": 242, "velocity": 90}, {"time": 61441, "pitch": 55, "duration": 241, "velocity": 80}, {"time": 61451, "pitch": 67, "duration": 241, "velocity": 90}, {"time": 63843, "pitch": 50, "duration": 89, "velocity": 80}, {"time": 63853, "pitch": 62, "duration": 88, "velocity": 85}, {"time": 64080, "pitch": 51, "duration": 88, "velocity": 75}, {"time": 64089, "pitch": 63, "duration": 89, "velocity": 80}, {"time": 64317, "pitch": 52, "duration": 90, "velocity": 70}, {"time": 64327, "pitch": 64, "duration": 90, "velocity": 75}, {"time": 64558, "pitch": 50, "duration": 90, "velocity": 75}, {"time": 64568, "pitch": 62, "duration": 90, "velocity": 80}, {"time": 64799, "pitch": 51, "duration": 90, "velocity": 70}, {"time": 64809, "pitch": 63, "duration": 90, "velocity": 75}, {"time": 65040, "pitch": 52, "duration": 502, "velocity": 75}, {"time": 65050, "pitch": 64, "duration": 502, "velocity": 80}, {"time": 67683, "pitch": 50, "duration": 89, "velocity": 80}, {"time": 67693, "pitch": 62, "duration": 89, "velocity": 85}, {"time": 67920, "pitch": 51, "duration": 89, "velocity": 75}, {"time": 67930, "pitch": 63, "duration": 89, "velocity": 80}, {"time": 68157, "pitch": 52, "duration": 90, "velocity": 70}, {"time": 68167, "pitch": 64, "duration": 90, "velocity": 75}, {"time": 68398, "pitch": 50, "duration": 90, "velocity": 75}, {"time": 68408, "pitch": 62, "duration": 90, "velocity": 80}, {"time": 68639, "pitch": 51, "duration": 90, "velocity": 70}, {"time": 68649, "pitch": 63, "duration": 90, "velocity": 75}, {"time": 68880, "pitch": 52, "duration": 502, "velocity": 75}, {"time": 68890, "pitch": 64, "duration": 502, "velocity": 80}, {"time": 71523, "pitch": 50, "duration": 89, "velocity": 80}, {"time": 71533, "pitch": 62, "duration": 89, "velocity": 85}, {"time": 71760, "pitch": 51, "duration": 89, "velocity": 75}, {"time": 71770, "pitch": 63, "duration": 89, "velocity": 80}, {"time": 71997, "pitch": 52, "duration": 90, "velocity": 70}, {"time": 72007, "pitch": 64, "duration": 90, "velocity": 75}, {"time": 72238, "pitch": 50, "duration": 90, "velocity": 75}, {"time": 72248, "pitch": 62, "duration": 90, "velocity": 80}, {"time": 72479, "pitch": 51, "duration": 90, "velocity": 70}, {"time": 72489, "pitch": 63, "duration": 90, "velocity": 75}, {"time": 72720, "pitch": 52, "duration": 502, "velocity": 75}, {"time": 72730, "pitch": 64, "duration": 502, "velocity": 80}, {"time": 75363, "pitch": 55, "duration": 119, "velocity": 80}, {"time": 75837, "pitch": 55, "duration": 502, "velocity": 90}, {"time": 76319, "pitch": 50, "duration": 80, "velocity": 90}, {"time": 76560, "pitch": 52, "duration": 80, "velocity": 85}, {"time": 76801, "pitch": 54, "duration": 81, "velocity": 90}, {"time": 77042, "pitch": 52, "duration": 81, "velocity": 85}, {"time": 85200, "pitch": 55, "duration": 50, "velocity": 90}, {"time": 85437, "pitch": 55, "duration": 10, "velocity": 60}, {"time": 85588, "pitch": 55, "duration": 50, "velocity": 80}, {"time": 85829, "pitch": 55, "duration": 10, "velocity": 40}, {"time": 85919, "pitch": 55, "duration": 51, "velocity": 90}, {"time": 86311, "pitch": 55, "duration": 50, "velocity": 80}, {"time": 86643, "pitch": 55, "duration": 150, "velocity": 70}, {"time": 86793, "pitch": 55, "duration": 20, "velocity": 80}, {"time": 87121, "pitch": 55, "duration": 49, "velocity": 90}, {"time": 87358, "pitch": 55, "duration": 10, "velocity": 60}, {"time": 87508, "pitch": 55, "duration": 50, "velocity": 80}, {"time": 87749, "pitch": 55, "duration": 10, "velocity": 40}, {"time": 87840, "pitch": 55, "duration": 50, "velocity": 90}, {"time": 88231, "pitch": 55, "duration": 50, "velocity": 80}, {"time": 88563, "pitch": 55, "duration": 150, "velocity": 70}, {"time": 88713, "pitch": 55, "duration": 20, "velocity": 80}, {"time": 89041, "pitch": 55, "duration": 49, "velocity": 90}, {"time": 89278, "pitch": 55, "duration": 10, "velocity": 60}, {"time": 89428, "pitch": 55, "duration": 50, "velocity": 80}, {"time": 89669, "pitch": 55, "duration": 10, "velocity": 40}, {"time": 89760, "pitch": 55, "duration": 50, "velocity": 90}, {"time": 90151, "pitch": 55, "duration": 51, "velocity": 80}, {"time": 90483, "pitch": 55, "duration": 150, "velocity": 70}, {"time": 90633, "pitch": 55, "duration": 21, "velocity": 80}, {"time": 90961, "pitch": 55, "duration": 49, "velocity": 90}, {"time": 91198, "pitch": 55, "duration": 10, "velocity": 60}, {"time": 91348, "pitch": 55, "duration": 50, "velocity": 80}, {"time": 91589, "pitch": 55, "duration": 10, "velocity": 40}, {"time": 91680, "pitch": 55, "duration": 50, "velocity": 90}, {"time": 92071, "pitch": 55, "duration": 51, "velocity": 80}, {"time": 92403, "pitch": 55, "duration": 151, "velocity": 70}, {"time": 92554, "pitch": 55, "duration": 20, "velocity": 80}, {"time": 92881, "pitch": 55, "duration": 49, "velocity": 90}, {"time": 93118, "pitch": 55, "duration": 10, "velocity": 60}, {"time": 93268, "pitch": 55, "duration": 51, "velocity": 80}, {"time": 93509, "pitch": 55, "duration": 10, "velocity": 40}, {"time": 93600, "pitch": 55, "duration": 50, "velocity": 90}, {"time": 93991, "pitch": 55, "duration": 51, "velocity": 80}, {"time": 94323, "pitch": 55, "duration": 151, "velocity": 70}, {"time": 94474, "pitch": 55, "duration": 20, "velocity": 80}, {"time": 94801, "pitch": 55, "duration": 49, "velocity": 90}, {"time": 95038, "pitch": 55, "duration": 10, "velocity": 60}, {"time": 95188, "pitch": 55, "duration": 51, "velocity": 80}, {"time": 95429, "pitch": 55, "duration": 11, "velocity": 40}, {"time": 95520, "pitch": 55, "duration": 50, "velocity": 90}, {"time": 95912, "pitch": 55, "duration": 50, "velocity": 80}, {"time": 96243, "pitch": 55, "duration": 151, "velocity": 70}, {"time": 96394, "pitch": 55, "duration": 20, "velocity": 80}, {"time": 96721, "pitch": 55, "duration": 49, "velocity": 90}, {"time": 96958, "pitch": 55, "duration": 10, "velocity": 60}, {"time": 97109, "pitch": 55, "duration": 50, "velocity": 80}, {"time": 97350, "pitch": 55, "duration": 10, "velocity": 40}, {"time": 97440, "pitch": 55, "duration": 50, "velocity": 90}, {"time": 97832, "pitch": 55, "duration": 50, "velocity": 80}, {"time": 98163, "pitch": 55, "duration": 151, "velocity": 70}, {"time": 98314, "pitch": 55, "duration": 20, "velocity": 80}, {"time": 98641, "pitch": 55, "duration": 49, "velocity": 90}, {"time": 98878, "pitch": 55, "duration": 10, "velocity": 60}, {"time": 99029, "pitch": 55, "duration": 50, "velocity": 80}, {"time": 99270, "pitch": 55, "duration": 10, "velocity": 40}, {"time": 99360, "pitch": 55, "duration": 50, "velocity": 90}, {"time": 99752, "pitch": 55, "duration": 50, "velocity": 80}, {"time": 100079, "pitch": 55, "duration": 148, "velocity": 70}, {"time": 100227, "pitch": 55, "duration": 20, "velocity": 80}, {"time": 100557, "pitch": 55, "duration": 50, "velocity": 90}, {"time": 100798, "pitch": 55, "duration": 10, "velocity": 60}, {"time": 100949, "pitch": 55, "duration": 50, "velocity": 80}, {"time": 101190, "pitch": 55, "duration": 10, "velocity": 40}, {"time": 101280, "pitch": 55, "duration": 50, "velocity": 90}, {"time": 101672, "pitch": 55, "duration": 50, "velocity": 80}, {"time": 101999, "pitch": 55, "duration": 148, "velocity": 70}, {"time": 102147, "pitch": 55, "duration": 20, "velocity": 80}, {"time": 102477, "pitch": 55, "duration": 50, "velocity": 90}, {"time": 102718, "pitch": 55, "duration": 10, "velocity": 60}, {"time": 102869, "pitch": 55, "duration": 50, "velocity": 80}, {"time": 103110, "pitch": 55, "duration": 10, "velocity": 40}, {"time": 103200, "pitch": 55, "duration": 50, "velocity": 90}, {"time": 103592, "pitch": 55, "duration": 50, "velocity": 80}, {"time": 103919, "pitch": 55, "duration": 148, "velocity": 70}, {"time": 104067, "pitch": 55, "duration": 20, "velocity": 80}, {"time": 104397, "pitch": 55, "duration": 50, "velocity": 90}, {"time": 104638, "pitch": 55, "duration": 10, "velocity": 60}, {"time": 104789, "pitch": 55, "duration": 50, "velocity": 80}, {"time": 105030, "pitch": 55, "duration": 10, "velocity": 40}, {"time": 105120, "pitch": 55, "duration": 50, "velocity": 90}, {"time": 105512, "pitch": 55, "duration": 50, "velocity": 80}, {"time": 105839, "pitch": 55, "duration": 148, "velocity": 70}, {"time": 105987, "pitch": 55, "duration": 20, "velocity": 80}, {"time": 106317, "pitch": 50, "duration": 81, "velocity": 95}, {"time": 106558, "pitch": 50, "duration": 10, "velocity": 60}, {"time": 106709, "pitch": 52, "duration": 80, "velocity": 95}, {"time": 106950, "pitch": 52, "duration": 90, "velocity": 70}, {"time": 107040, "pitch": 55, "duration": 81, "velocity": 95}, {"time": 107281, "pitch": 57, "duration": 81, "velocity": 90}, {"time": 107522, "pitch": 55, "duration": 50, "velocity": 85}, {"time": 107670, "pitch": 55, "duration": 10, "velocity": 70}, {"time": 107907, "pitch": 55, "duration": 50, "velocity": 80}, {"time": 108237, "pitch": 55, "duration": 51, "velocity": 90}, {"time": 108478, "pitch": 55, "duration": 10, "velocity": 60}, {"time": 108629, "pitch": 55, "duration": 50, "velocity": 80}, {"time": 108870, "pitch": 55, "duration": 10, "velocity": 40}, {"time": 108960, "pitch": 55, "duration": 51, "velocity": 90}, {"time": 109352, "pitch": 55, "duration": 50, "velocity": 80}, {"time": 109679, "pitch": 55, "duration": 149, "velocity": 70}, {"time": 109828, "pitch": 55, "duration": 19, "velocity": 80}, {"time": 110157, "pitch": 57, "duration": 51, "velocity": 90}, {"time": 110398, "pitch": 57, "duration": 10, "velocity": 60}, {"time": 110549, "pitch": 57, "duration": 50, "velocity": 80}, {"time": 110790, "pitch": 57, "duration": 10, "velocity": 40}, {"time": 110881, "pitch": 57, "duration": 50, "velocity": 90}, {"time": 111272, "pitch": 57, "duration": 50, "velocity": 80}, {"time": 111600, "pitch": 57, "duration": 148, "velocity": 70}, {"time": 111748, "pitch": 57, "duration": 19, "velocity": 80}, {"time": 112077, "pitch": 58, "duration": 51, "velocity": 90}, {"time": 112319, "pitch": 58, "duration": 10, "velocity": 60}, {"time": 112469, "pitch": 58, "duration": 50, "velocity": 80}, {"time": 112710, "pitch": 58, "duration": 10, "velocity": 40}, {"time": 112801, "pitch": 58, "duration": 50, "velocity": 90}, {"time": 113192, "pitch": 58, "duration": 51, "velocity": 80}, {"time": 113520, "pitch": 58, "duration": 148, "velocity": 70}, {"time": 113668, "pitch": 58, "duration": 19, "velocity": 80}, {"time": 113757, "pitch": 60, "duration": 241, "velocity": 80}, {"time": 113767, "pitch": 72, "duration": 241, "velocity": 90}, {"time": 114239, "pitch": 59, "duration": 241, "velocity": 80}, {"time": 114249, "pitch": 71, "duration": 241, "velocity": 90}, {"time": 114721, "pitch": 58, "duration": 241, "velocity": 80}, {"time": 114731, "pitch": 70, "duration": 241, "velocity": 90}, {"time": 115203, "pitch": 55, "duration": 237, "velocity": 80}, {"time": 115213, "pitch": 67, "duration": 237, "velocity": 90}, {"time": 117597, "pitch": 50, "duration": 90, "velocity": 80}, {"time": 117607, "pitch": 62, "duration": 90, "velocity": 85}, {"time": 117838, "pitch": 51, "duration": 90, "velocity": 75}, {"time": 117848, "pitch": 63, "duration": 90, "velocity": 80}, {"time": 118079, "pitch": 52, "duration": 90, "velocity": 70}, {"time": 118089, "pitch": 64, "duration": 90, "velocity": 75}, {"time": 118320, "pitch": 50, "duration": 90, "velocity": 75}, {"time": 118330, "pitch": 62, "duration": 90, "velocity": 80}, {"time": 118561, "pitch": 51, "duration": 90, "velocity": 70}, {"time": 118571, "pitch": 63, "duration": 90, "velocity": 75}, {"time": 118802, "pitch": 52, "duration": 498, "velocity": 75}, {"time": 118812, "pitch": 64, "duration": 497, "velocity": 80}, {"time": 121437, "pitch": 50, "duration": 90, "velocity": 80}, {"time": 121447, "pitch": 62, "duration": 90, "velocity": 85}, {"time": 121678, "pitch": 51, "duration": 90, "velocity": 75}, {"time": 121688, "pitch": 63, "duration": 90, "velocity": 80}, {"time": 121919, "pitch": 52, "duration": 90, "velocity": 70}, {"time": 121929, "pitch": 64, "duration": 90, "velocity": 75}, {"time": 122160, "pitch": 50, "duration": 90, "velocity": 75}, {"time": 122170, "pitch": 62, "duration": 90, "velocity": 80}, {"time": 122401, "pitch": 51, "duration": 90, "velocity": 70}, {"time": 122411, "pitch": 63, "duration": 90, "velocity": 75}, {"time": 122642, "pitch": 52, "duration": 498, "velocity": 75}, {"time": 122652, "pitch": 64, "duration": 498, "velocity": 80}, {"time": 125277, "pitch": 50, "duration": 90, "velocity": 80}, {"time": 125287, "pitch": 62, "duration": 90, "velocity": 85}, {"time": 125518, "pitch": 51, "duration": 90, "velocity": 75}, {"time": 125528, "pitch": 63, "duration": 90, "velocity": 80}, {"time": 125759, "pitch": 52, "duration": 90, "velocity": 70}, {"time": 125769, "pitch": 64, "duration": 90, "velocity": 75}, {"time": 126000, "pitch": 50, "duration": 90, "velocity": 75}, {"time": 126010, "pitch": 62, "duration": 91, "velocity": 80}, {"time": 126241, "pitch": 51, "duration": 91, "velocity": 70}, {"time": 126251, "pitch": 63, "duration": 91, "velocity": 75}, {"time": 126482, "pitch": 52, "duration": 498, "velocity": 75}, {"time": 126492, "pitch": 64, "duration": 498, "velocity": 80}, {"time": 129117, "pitch": 55, "duration": 121, "velocity": 80}, {"time": 129599, "pitch": 55, "duration": 502, "velocity": 90}, {"time": 130081, "pitch": 50, "duration": 81, "velocity": 90}, {"time": 130322, "pitch": 52, "duration": 81, "velocity": 85}, {"time": 130563, "pitch": 54, "duration": 79, "velocity": 90}, {"time": 130800, "pitch": 52, "duration": 79, "velocity": 85}, {"time": 131278, "pitch": 66, "duration": 161, "velocity": 90}, {"time": 131439, "pitch": 64, "duration": 80, "velocity": 75}, {"time": 131519, "pitch": 66, "duration": 161, "velocity": 90}, {"time": 131680, "pitch": 64, "duration": 80, "velocity": 75}, {"time": 131921, "pitch": 66, "duration": 80, "velocity": 90}, {"time": 132162, "pitch": 64, "duration": 80, "velocity": 75}, {"time": 132403, "pitch": 66, "duration": 80, "velocity": 80}, {"time": 132641, "pitch": 67, "duration": 79, "velocity": 90}, {"time": 132878, "pitch": 66, "duration": 320, "velocity": 95}, {"time": 133198, "pitch": 64, "duration": 81, "velocity": 90}, {"time": 133439, "pitch": 59, "duration": 81, "velocity": 85}, {"time": 133680, "pitch": 64, "duration": 723, "velocity": 90}, {"time": 135118, "pitch": 66, "duration": 161, "velocity": 90}, {"time": 135279, "pitch": 64, "duration": 80, "velocity": 75}, {"time": 135359, "pitch": 66, "duration": 161, "velocity": 90}, {"time": 135520, "pitch": 64, "duration": 80, "velocity": 75}, {"time": 135761, "pitch": 66, "duration": 81, "velocity": 90}, {"time": 136002, "pitch": 64, "duration": 81, "velocity": 75}, {"time": 136243, "pitch": 66, "duration": 81, "velocity": 80}, {"time": 136482, "pitch": 67, "duration": 79, "velocity": 90}, {"time": 136719, "pitch": 66, "duration": 319, "velocity": 95}, {"time": 137038, "pitch": 64, "duration": 81, "velocity": 90}, {"time": 138959, "pitch": 66, "duration": 160, "velocity": 90}, {"time": 139119, "pitch": 64, "duration": 81, "velocity": 75}, {"time": 139200, "pitch": 66, "duration": 160, "velocity": 90}, {"time": 139360, "pitch": 64, "duration": 81, "velocity": 75}, {"time": 139601, "pitch": 66, "duration": 81, "velocity": 90}, {"time": 139842, "pitch": 64, "duration": 81, "velocity": 75}, {"time": 140083, "pitch": 66, "duration": 81, "velocity": 80}, {"time": 140322, "pitch": 67, "duration": 79, "velocity": 90}, {"time": 140559, "pitch": 66, "duration": 320, "velocity": 95}, {"time": 140879, "pitch": 64, "duration": 80, "velocity": 90}, {"time": 141120, "pitch": 59, "duration": 80, "velocity": 85}, {"time": 141361, "pitch": 64, "duration": 723, "velocity": 90}, {"time": 142799, "pitch": 66, "duration": 160, "velocity": 90}, {"time": 142959, "pitch": 64, "duration": 81, "velocity": 75}, {"time": 143040, "pitch": 66, "duration": 160, "velocity": 90}, {"time": 143200, "pitch": 64, "duration": 81, "velocity": 75}, {"time": 143442, "pitch": 66, "duration": 80, "velocity": 90}, {"time": 143683, "pitch": 64, "duration": 80, "velocity": 75}, {"time": 143924, "pitch": 66, "duration": 80, "velocity": 80}, {"time": 144162, "pitch": 67, "duration": 79, "velocity": 90}, {"time": 144399, "pitch": 66, "duration": 320, "velocity": 95}, {"time": 144719, "pitch": 64, "duration": 80, "velocity": 90}, {"time": 159838, "pitch": 60, "duration": 241, "velocity": 80}, {"time": 159848, "pitch": 72, "duration": 241, "velocity": 90}, {"time": 160320, "pitch": 59, "duration": 242, "velocity": 80}, {"time": 160331, "pitch": 71, "duration": 241, "velocity": 90}, {"time": 160803, "pitch": 58, "duration": 236, "velocity": 80}, {"time": 160812, "pitch": 70, "duration": 237, "velocity": 90}, {"time": 161276, "pitch": 55, "duration": 241, "velocity": 80}, {"time": 161286, "pitch": 67, "duration": 241, "velocity": 90}, {"time": 163679, "pitch": 50, "duration": 90, "velocity": 80}, {"time": 163689, "pitch": 62, "duration": 90, "velocity": 85}, {"time": 163920, "pitch": 51, "duration": 90, "velocity": 75}, {"time": 163930, "pitch": 63, "duration": 90, "velocity": 80}, {"time": 164161, "pitch": 52, "duration": 90, "velocity": 70}, {"time": 164171, "pitch": 64, "duration": 90, "velocity": 75}, {"time": 164402, "pitch": 50, "duration": 90, "velocity": 75}, {"time": 164412, "pitch": 62, "duration": 90, "velocity": 80}, {"time": 164643, "pitch": 51, "duration": 89, "velocity": 70}, {"time": 164653, "pitch": 63, "duration": 88, "velocity": 75}, {"time": 164880, "pitch": 52, "duration": 498, "velocity": 75}, {"time": 164890, "pitch": 64, "duration": 498, "velocity": 80}, {"time": 167519, "pitch": 50, "duration": 90, "velocity": 80}, {"time": 167529, "pitch": 62, "duration": 90, "velocity": 85}, {"time": 167760, "pitch": 51, "duration": 90, "velocity": 75}, {"time": 167770, "pitch": 63, "duration": 90, "velocity": 80}, {"time": 168001, "pitch": 52, "duration": 90, "velocity": 70}, {"time": 168011, "pitch": 64, "duration": 90, "velocity": 75}, {"time": 168242, "pitch": 50, "duration": 90, "velocity": 75}, {"time": 168252, "pitch": 62, "duration": 90, "velocity": 80}, {"time": 168483, "pitch": 51, "duration": 89, "velocity": 70}, {"time": 168493, "pitch": 63, "duration": 89, "velocity": 75}, {"time": 168720, "pitch": 52, "duration": 498, "velocity": 75}, {"time": 168730, "pitch": 64, "duration": 498, "velocity": 80}, {"time": 171359, "pitch": 50, "duration": 90, "velocity": 80}, {"time": 171369, "pitch": 62, "duration": 90, "velocity": 85}, {"time": 171600, "pitch": 51, "duration": 90, "velocity": 75}, {"time": 171610, "pitch": 63, "duration": 90, "velocity": 80}, {"time": 171841, "pitch": 52, "duration": 90, "velocity": 70}, {"time": 171851, "pitch": 64, "duration": 90, "velocity": 75}, {"time": 172082, "pitch": 50, "duration": 90, "velocity": 75}, {"time": 172092, "pitch": 62, "duration": 90, "velocity": 80}, {"time": 172323, "pitch": 51, "duration": 89, "velocity": 70}, {"time": 172333, "pitch": 63, "duration": 89, "velocity": 75}, {"time": 172560, "pitch": 52, "duration": 498, "velocity": 75}, {"time": 172570, "pitch": 64, "duration": 498, "velocity": 80}, {"time": 175199, "pitch": 59, "duration": 80, "velocity": 90}, {"time": 175440, "pitch": 62, "duration": 80, "velocity": 80}, {"time": 175681, "pitch": 55, "duration": 362, "velocity": 85}, {"time": 176163, "pitch": 52, "duration": 79, "velocity": 90}, {"time": 176400, "pitch": 55, "duration": 79, "velocity": 85}, {"time": 176637, "pitch": 57, "duration": 80, "velocity": 95}, {"time": 176878, "pitch": 50, "duration": 241, "velocity": 85}, {"time": 179039, "pitch": 50, "duration": 91, "velocity": 80}, {"time": 179049, "pitch": 62, "duration": 91, "velocity": 85}, {"time": 179280, "pitch": 51, "duration": 91, "velocity": 75}, {"time": 179290, "pitch": 63, "duration": 91, "velocity": 80}, {"time": 179521, "pitch": 52, "duration": 91, "velocity": 70}, {"time": 179531, "pitch": 64, "duration": 91, "velocity": 75}, {"time": 179762, "pitch": 50, "duration": 91, "velocity": 75}, {"time": 179772, "pitch": 62, "duration": 91, "velocity": 80}, {"time": 180003, "pitch": 51, "duration": 89, "velocity": 70}, {"time": 180013, "pitch": 63, "duration": 89, "velocity": 75}, {"time": 180240, "pitch": 52, "duration": 498, "velocity": 75}, {"time": 180250, "pitch": 64, "duration": 498, "velocity": 80}, {"time": 182879, "pitch": 50, "duration": 91, "velocity": 80}, {"time": 182889, "pitch": 62, "duration": 91, "velocity": 85}, {"time": 183120, "pitch": 51, "duration": 91, "velocity": 75}, {"time": 183130, "pitch": 63, "duration": 91, "velocity": 80}, {"time": 183361, "pitch": 52, "duration": 91, "velocity": 70}, {"time": 183371, "pitch": 64, "duration": 91, "velocity": 75}, {"time": 183602, "pitch": 50, "duration": 91, "velocity": 75}, {"time": 183613, "pitch": 62, "duration": 90, "velocity": 80}, {"time": 183843, "pitch": 51, "duration": 89, "velocity": 70}, {"time": 183853, "pitch": 63, "duration": 89, "velocity": 75}, {"time": 184080, "pitch": 52, "duration": 498, "velocity": 75}, {"time": 184090, "pitch": 64, "duration": 499, "velocity": 80}, {"time": 186720, "pitch": 50, "duration": 90, "velocity": 80}, {"time": 186730, "pitch": 62, "duration": 90, "velocity": 85}, {"time": 186961, "pitch": 51, "duration": 90, "velocity": 75}, {"time": 186971, "pitch": 63, "duration": 90, "velocity": 80}, {"time": 187202, "pitch": 52, "duration": 90, "velocity": 70}, {"time": 187212, "pitch": 64, "duration": 90, "velocity": 75}, {"time": 187443, "pitch": 50, "duration": 90, "velocity": 75}, {"time": 187453, "pitch": 62, "duration": 90, "velocity": 80}, {"time": 187684, "pitch": 51, "duration": 88, "velocity": 70}, {"time": 187693, "pitch": 63, "duration": 89, "velocity": 75}, {"time": 187921, "pitch": 52, "duration": 498, "velocity": 75}, {"time": 187930, "pitch": 64, "duration": 499, "velocity": 80}, {"time": 190560, "pitch": 55, "duration": 120, "velocity": 80}, {"time": 191042, "pitch": 55, "duration": 502, "velocity": 90}, {"time": 191524, "pitch": 50, "duration": 79, "velocity": 90}, {"time": 191761, "pitch": 52, "duration": 79, "velocity": 85}, {"time": 191998, "pitch": 54, "duration": 80, "velocity": 90}, {"time": 192239, "pitch": 52, "duration": 80, "velocity": 85}, {"time": 192721, "pitch": 55, "duration": 50, "velocity": 90}, {"time": 192962, "pitch": 55, "duration": 10, "velocity": 60}, {"time": 193112, "pitch": 55, "duration": 51, "velocity": 80}, {"time": 193354, "pitch": 55, "duration": 10, "velocity": 40}, {"time": 193444, "pitch": 55, "duration": 49, "velocity": 90}, {"time": 193829, "pitch": 55, "duration": 49, "velocity": 80}, {"time": 194159, "pitch": 55, "duration": 150, "velocity": 70}, {"time": 194309, "pitch": 55, "duration": 21, "velocity": 80}, {"time": 194641, "pitch": 55, "duration": 50, "velocity": 90}, {"time": 194882, "pitch": 55, "duration": 10, "velocity": 60}, {"time": 195033, "pitch": 55, "duration": 50, "velocity": 80}, {"time": 195274, "pitch": 55, "duration": 10, "velocity": 40}, {"time": 195364, "pitch": 55, "duration": 49, "velocity": 90}, {"time": 195749, "pitch": 55, "duration": 49, "velocity": 80}, {"time": 196079, "pitch": 55, "duration": 151, "velocity": 70}, {"time": 196230, "pitch": 55, "duration": 20, "velocity": 80}, {"time": 196561, "pitch": 55, "duration": 50, "velocity": 90}, {"time": 196802, "pitch": 55, "duration": 10, "velocity": 60}, {"time": 196953, "pitch": 55, "duration": 50, "velocity": 80}, {"time": 197194, "pitch": 55, "duration": 10, "velocity": 40}, {"time": 197284, "pitch": 55, "duration": 49, "velocity": 90}, {"time": 197669, "pitch": 55, "duration": 49, "velocity": 80}, {"time": 197999, "pitch": 55, "duration": 151, "velocity": 70}, {"time": 198150, "pitch": 55, "duration": 20, "velocity": 80}, {"time": 198481, "pitch": 55, "duration": 50, "velocity": 90}, {"time": 198722, "pitch": 55, "duration": 10, "velocity": 60}, {"time": 198870, "pitch": 55, "duration": 50, "velocity": 80}, {"time": 199107, "pitch": 55, "duration": 10, "velocity": 40}, {"time": 199196, "pitch": 55, "duration": 50, "velocity": 90}, {"time": 199588, "pitch": 55, "duration": 50, "velocity": 80}, {"time": 199919, "pitch": 55, "duration": 151, "velocity": 70}, {"time": 200070, "pitch": 55, "duration": 20, "velocity": 80}, {"time": 200401, "pitch": 55, "duration": 50, "velocity": 90}, {"time": 200642, "pitch": 55, "duration": 10, "velocity": 60}, {"time": 200790, "pitch": 55, "duration": 50, "velocity": 80}, {"time": 201027, "pitch": 55, "duration": 10, "velocity": 40}, {"time": 201116, "pitch": 55, "duration": 50, "velocity": 90}, {"time": 201508, "pitch": 55, "duration": 50, "velocity": 80}, {"time": 201839, "pitch": 55, "duration": 151, "velocity": 70}, {"time": 201990, "pitch": 55, "duration": 20, "velocity": 80}, {"time": 202321, "pitch": 55, "duration": 50, "velocity": 90}, {"time": 202562, "pitch": 55, "duration": 10, "velocity": 60}, {"time": 202710, "pitch": 55, "duration": 50, "velocity": 80}, {"time": 202947, "pitch": 55, "duration": 10, "velocity": 40}, {"time": 203036, "pitch": 55, "duration": 50, "velocity": 90}, {"time": 203428, "pitch": 55, "duration": 50, "velocity": 80}, {"time": 203759, "pitch": 55, "duration": 151, "velocity": 70}, {"time": 203910, "pitch": 55, "duration": 20, "velocity": 80}, {"time": 204241, "pitch": 55, "duration": 50, "velocity": 90}, {"time": 204482, "pitch": 55, "duration": 10, "velocity": 60}, {"time": 204630, "pitch": 55, "duration": 50, "velocity": 80}, {"time": 204867, "pitch": 55, "duration": 10, "velocity": 40}, {"time": 204956, "pitch": 55, "duration": 50, "velocity": 90}, {"time": 205348, "pitch": 55, "duration": 50, "velocity": 80}, {"time": 205679, "pitch": 55, "duration": 151, "velocity": 70}, {"time": 205830, "pitch": 55, "duration": 20, "velocity": 80}, {"time": 206161, "pitch": 55, "duration": 51, "velocity": 90}, {"time": 206402, "pitch": 55, "duration": 10, "velocity": 60}, {"time": 206550, "pitch": 55, "duration": 50, "velocity": 80}, {"time": 206787, "pitch": 55, "duration": 10, "velocity": 40}, {"time": 206876, "pitch": 55, "duration": 50, "velocity": 90}, {"time": 207268, "pitch": 55, "duration": 50, "velocity": 80}, {"time": 207599, "pitch": 55, "duration": 151, "velocity": 70}, {"time": 207750, "pitch": 55, "duration": 20, "velocity": 80}], "annotations": [{"time": 292, "annotation": {"number": 7, "value": 100}, "group": "control_change"}, {"time": 313, "annotation": {"number": 11, "value": 100}, "group": "control_change"}, {"time": 334, "annotation": {"number": 10, "value": 13}, "group": "control_change"}, {"time": 355, "annotation": {"number": 91, "value": 40}, "group": "control_change"}, {"time": 376, "annotation": {"number": 93, "value": 0}, "group": "control_change"}, {"time": 397, "annotation": {"number": 101, "value": 0}, "group": "control_change"}, {"time": 417, "annotation": {"number": 100, "value": 0}, "group": "control_change"}, {"time": 438, "annotation": {"number": 6, "value": 12}, "group": "control_change"}, {"time": 459, "annotation": {"number": 101, "value": 127}, "group": "control_change"}, {"time": 480, "annotation": {"number": 100, "value": 127}, "group": "control_change"}, {"time": 133741, "annotation": {"number": 1, "value": 16}, "group": "control_change"}, {"time": 133801, "annotation": {"number": 1, "value": 33}, "group": "control_change"}, {"time": 133861, "annotation": {"number": 1, "value": 48}, "group": "control_change"}, {"time": 134173, "annotation": {"number": 1, "value": 0}, "group": "control_change"}, {"time": 141421, "annotation": {"number": 1, "value": 16}, "group": "control_change"}, {"time": 141481, "annotation": {"number": 1, "value": 33}, "group": "control_change"}, {"time": 141542, "annotation": {"number": 1, "value": 48}, "group": "control_change"}, {"time": 141853, "annotation": {"number": 1, "value": 0}, "group": "control_change"}]}, {"program": 0, "is_drum": false, "name": "E.GUITAR 3", "annotations": [{"time": 230, "annotation": {"number": 0, "value": 0}, "group": "control_change"}, {"time": 250, "annotation": {"number": 32, "value": 0}, "group": "control_change"}]}, {"program": 26, "is_drum": false, "name": "E.GUITAR 3", "notes": [{"time": 31442, "pitch": 62, "duration": 51, "velocity": 80}, {"time": 31683, "pitch": 62, "duration": 10, "velocity": 50}, {"time": 31831, "pitch": 62, "duration": 50, "velocity": 70}, {"time": 32068, "pitch": 62, "duration": 10, "velocity": 30}, {"time": 32157, "pitch": 62, "duration": 50, "velocity": 80}, {"time": 32549, "pitch": 62, "duration": 50, "velocity": 70}, {"time": 32880, "pitch": 62, "duration": 151, "velocity": 60}, {"time": 33031, "pitch": 62, "duration": 20, "velocity": 70}, {"time": 33362, "pitch": 61, "duration": 51, "velocity": 80}, {"time": 33603, "pitch": 61, "duration": 10, "velocity": 50}, {"time": 33752, "pitch": 61, "duration": 49, "velocity": 70}, {"time": 33989, "pitch": 61, "duration": 9, "velocity": 30}, {"time": 34077, "pitch": 61, "duration": 51, "velocity": 80}, {"time": 34469, "pitch": 61, "duration": 50, "velocity": 70}, {"time": 34800, "pitch": 61, "duration": 151, "velocity": 60}, {"time": 34951, "pitch": 61, "duration": 20, "velocity": 70}, {"time": 35283, "pitch": 62, "duration": 50, "velocity": 80}, {"time": 35524, "pitch": 62, "duration": 9, "velocity": 50}, {"time": 35672, "pitch": 62, "duration": 49, "velocity": 70}, {"time": 35909, "pitch": 62, "duration": 9, "velocity": 30}, {"time": 35997, "pitch": 62, "duration": 51, "velocity": 80}, {"time": 36389, "pitch": 62, "duration": 50, "velocity": 70}, {"time": 36721, "pitch": 62, "duration": 150, "velocity": 60}, {"time": 36871, "pitch": 62, "duration": 20, "velocity": 70}, {"time": 37203, "pitch": 61, "duration": 50, "velocity": 80}, {"time": 37444, "pitch": 61, "duration": 9, "velocity": 50}, {"time": 37592, "pitch": 61, "duration": 49, "velocity": 70}, {"time": 37829, "pitch": 61, "duration": 10, "velocity": 30}, {"time": 37918, "pitch": 61, "duration": 50, "velocity": 80}, {"time": 38309, "pitch": 61, "duration": 50, "velocity": 70}, {"time": 38641, "pitch": 61, "duration": 150, "velocity": 60}, {"time": 38791, "pitch": 61, "duration": 20, "velocity": 70}, {"time": 39123, "pitch": 62, "duration": 50, "velocity": 80}, {"time": 39364, "pitch": 62, "duration": 10, "velocity": 50}, {"time": 39512, "pitch": 62, "duration": 49, "velocity": 70}, {"time": 39749, "pitch": 62, "duration": 10, "velocity": 30}, {"time": 39838, "pitch": 62, "duration": 50, "velocity": 80}, {"time": 40229, "pitch": 62, "duration": 50, "velocity": 70}, {"time": 40561, "pitch": 62, "duration": 150, "velocity": 60}, {"time": 40711, "pitch": 62, "duration": 20, "velocity": 70}, {"time": 41043, "pitch": 61, "duration": 50, "velocity": 80}, {"time": 41284, "pitch": 61, "duration": 10, "velocity": 50}, {"time": 41432, "pitch": 61, "duration": 49, "velocity": 70}, {"time": 41669, "pitch": 61, "duration": 10, "velocity": 30}, {"time": 41758, "pitch": 61, "duration": 50, "velocity": 80}, {"time": 42149, "pitch": 61, "duration": 51, "velocity": 70}, {"time": 42481, "pitch": 61, "duration": 150, "velocity": 60}, {"time": 42631, "pitch": 61, "duration": 21, "velocity": 70}, {"time": 42963, "pitch": 62, "duration": 50, "velocity": 80}, {"time": 43204, "pitch": 62, "duration": 10, "velocity": 50}, {"time": 43352, "pitch": 62, "duration": 49, "velocity": 70}, {"time": 43589, "pitch": 62, "duration": 10, "velocity": 30}, {"time": 43678, "pitch": 62, "duration": 50, "velocity": 80}, {"time": 44069, "pitch": 62, "duration": 51, "velocity": 70}, {"time": 44401, "pitch": 62, "duration": 151, "velocity": 60}, {"time": 44552, "pitch": 62, "duration": 20, "velocity": 70}, {"time": 44883, "pitch": 61, "duration": 50, "velocity": 80}, {"time": 45124, "pitch": 61, "duration": 10, "velocity": 50}, {"time": 45272, "pitch": 61, "duration": 49, "velocity": 70}, {"time": 45509, "pitch": 61, "duration": 10, "velocity": 30}, {"time": 45598, "pitch": 61, "duration": 50, "velocity": 80}, {"time": 61923, "pitch": 62, "duration": 9, "velocity": 55}, {"time": 62071, "pitch": 62, "duration": 10, "velocity": 65}, {"time": 62160, "pitch": 62, "duration": 148, "velocity": 65}, {"time": 62308, "pitch": 62, "duration": 79, "velocity": 55}, {"time": 62396, "pitch": 62, "duration": 151, "velocity": 65}, {"time": 62547, "pitch": 62, "duration": 80, "velocity": 70}, {"time": 62637, "pitch": 62, "duration": 11, "velocity": 55}, {"time": 62788, "pitch": 62, "duration": 10, "velocity": 55}, {"time": 62879, "pitch": 62, "duration": 150, "velocity": 65}, {"time": 63029, "pitch": 62, "duration": 81, "velocity": 55}, {"time": 63120, "pitch": 62, "duration": 150, "velocity": 65}, {"time": 63270, "pitch": 62, "duration": 81, "velocity": 70}, {"time": 63361, "pitch": 62, "duration": 10, "velocity": 55}, {"time": 63511, "pitch": 62, "duration": 10, "velocity": 65}, {"time": 63602, "pitch": 62, "duration": 160, "velocity": 65}, {"time": 63752, "pitch": 64, "duration": 81, "velocity": 70}, {"time": 63843, "pitch": 62, "duration": 10, "velocity": 55}, {"time": 63991, "pitch": 62, "duration": 10, "velocity": 65}, {"time": 64080, "pitch": 62, "duration": 148, "velocity": 65}, {"time": 64228, "pitch": 62, "duration": 79, "velocity": 55}, {"time": 64317, "pitch": 62, "duration": 150, "velocity": 65}, {"time": 64467, "pitch": 62, "duration": 81, "velocity": 70}, {"time": 64558, "pitch": 62, "duration": 10, "velocity": 55}, {"time": 64708, "pitch": 62, "duration": 10, "velocity": 55}, {"time": 64799, "pitch": 62, "duration": 150, "velocity": 65}, {"time": 64949, "pitch": 62, "duration": 81, "velocity": 55}, {"time": 65040, "pitch": 62, "duration": 150, "velocity": 65}, {"time": 65190, "pitch": 62, "duration": 81, "velocity": 70}, {"time": 65281, "pitch": 62, "duration": 10, "velocity": 55}, {"time": 65431, "pitch": 62, "duration": 10, "velocity": 65}, {"time": 65522, "pitch": 62, "duration": 160, "velocity": 65}, {"time": 65672, "pitch": 64, "duration": 81, "velocity": 70}, {"time": 65763, "pitch": 62, "duration": 10, "velocity": 55}, {"time": 65911, "pitch": 62, "duration": 10, "velocity": 65}, {"time": 66000, "pitch": 62, "duration": 148, "velocity": 65}, {"time": 66148, "pitch": 62, "duration": 79, "velocity": 55}, {"time": 66237, "pitch": 62, "duration": 150, "velocity": 65}, {"time": 66387, "pitch": 62, "duration": 81, "velocity": 70}, {"time": 66478, "pitch": 62, "duration": 10, "velocity": 55}, {"time": 66628, "pitch": 62, "duration": 10, "velocity": 55}, {"time": 66719, "pitch": 62, "duration": 150, "velocity": 65}, {"time": 66869, "pitch": 62, "duration": 81, "velocity": 55}, {"time": 66960, "pitch": 62, "duration": 150, "velocity": 65}, {"time": 67110, "pitch": 62, "duration": 81, "velocity": 70}, {"time": 67201, "pitch": 62, "duration": 10, "velocity": 55}, {"time": 67351, "pitch": 62, "duration": 10, "velocity": 65}, {"time": 67442, "pitch": 62, "duration": 161, "velocity": 65}, {"time": 67592, "pitch": 64, "duration": 81, "velocity": 70}, {"time": 67683, "pitch": 62, "duration": 10, "velocity": 55}, {"time": 67831, "pitch": 62, "duration": 10, "velocity": 65}, {"time": 67920, "pitch": 62, "duration": 148, "velocity": 65}, {"time": 68068, "pitch": 62, "duration": 79, "velocity": 55}, {"time": 68157, "pitch": 62, "duration": 150, "velocity": 65}, {"time": 68307, "pitch": 62, "duration": 81, "velocity": 70}, {"time": 68398, "pitch": 62, "duration": 10, "velocity": 55}, {"time": 68548, "pitch": 62, "duration": 10, "velocity": 55}, {"time": 68639, "pitch": 62, "duration": 150, "velocity": 65}, {"time": 68789, "pitch": 62, "duration": 81, "velocity": 55}, {"time": 68880, "pitch": 62, "duration": 150, "velocity": 65}, {"time": 69030, "pitch": 62, "duration": 81, "velocity": 70}, {"time": 69121, "pitch": 62, "duration": 10, "velocity": 55}, {"time": 69272, "pitch": 62, "duration": 10, "velocity": 65}, {"time": 69362, "pitch": 62, "duration": 161, "velocity": 65}, {"time": 69513, "pitch": 64, "duration": 80, "velocity": 70}, {"time": 69603, "pitch": 62, "duration": 10, "velocity": 55}, {"time": 69751, "pitch": 62, "duration": 10, "velocity": 65}, {"time": 69840, "pitch": 62, "duration": 148, "velocity": 65}, {"time": 69988, "pitch": 62, "duration": 79, "velocity": 55}, {"time": 70077, "pitch": 62, "duration": 150, "velocity": 65}, {"time": 70227, "pitch": 62, "duration": 81, "velocity": 70}, {"time": 70318, "pitch": 62, "duration": 10, "velocity": 55}, {"time": 70468, "pitch": 62, "duration": 10, "velocity": 55}, {"time": 70559, "pitch": 62, "duration": 150, "velocity": 65}, {"time": 70709, "pitch": 62, "duration": 81, "velocity": 55}, {"time": 70800, "pitch": 62, "duration": 151, "velocity": 65}, {"time": 70951, "pitch": 62, "duration": 80, "velocity": 70}, {"time": 71041, "pitch": 62, "duration": 10, "velocity": 55}, {"time": 71192, "pitch": 62, "duration": 10, "velocity": 65}, {"time": 71282, "pitch": 62, "duration": 161, "velocity": 65}, {"time": 71433, "pitch": 64, "duration": 80, "velocity": 70}, {"time": 71523, "pitch": 62, "duration": 10, "velocity": 55}, {"time": 71671, "pitch": 62, "duration": 10, "velocity": 65}, {"time": 71760, "pitch": 62, "duration": 148, "velocity": 65}, {"time": 71908, "pitch": 62, "duration": 79, "velocity": 55}, {"time": 71997, "pitch": 62, "duration": 150, "velocity": 65}, {"time": 72147, "pitch": 62, "duration": 81, "velocity": 70}, {"time": 72238, "pitch": 62, "duration": 10, "velocity": 55}, {"time": 72389, "pitch": 62, "duration": 10, "velocity": 55}, {"time": 72479, "pitch": 62, "duration": 151, "velocity": 65}, {"time": 72630, "pitch": 62, "duration": 80, "velocity": 55}, {"time": 72720, "pitch": 62, "duration": 151, "velocity": 65}, {"time": 72871, "pitch": 62, "duration": 80, "velocity": 70}, {"time": 72961, "pitch": 62, "duration": 10, "velocity": 55}, {"time": 73112, "pitch": 62, "duration": 10, "velocity": 65}, {"time": 73202, "pitch": 62, "duration": 161, "velocity": 65}, {"time": 73353, "pitch": 64, "duration": 80, "velocity": 70}, {"time": 73443, "pitch": 62, "duration": 10, "velocity": 55}, {"time": 73591, "pitch": 62, "duration": 10, "velocity": 65}, {"time": 73680, "pitch": 62, "duration": 148, "velocity": 65}, {"time": 73828, "pitch": 62, "duration": 79, "velocity": 55}, {"time": 73917, "pitch": 62, "duration": 151, "velocity": 65}, {"time": 74068, "pitch": 62, "duration": 80, "velocity": 70}, {"time": 74158, "pitch": 62, "duration": 10, "velocity": 55}, {"time": 74309, "pitch": 62, "duration": 10, "velocity": 55}, {"time": 74399, "pitch": 62, "duration": 151, "velocity": 65}, {"time": 74550, "pitch": 62, "duration": 80, "velocity": 55}, {"time": 74640, "pitch": 62, "duration": 151, "velocity": 65}, {"time": 74791, "pitch": 62, "duration": 80, "velocity": 70}, {"time": 74881, "pitch": 62, "duration": 10, "velocity": 55}, {"time": 75032, "pitch": 62, "duration": 10, "velocity": 65}, {"time": 75122, "pitch": 62, "duration": 161, "velocity": 65}, {"time": 75273, "pitch": 64, "duration": 80, "velocity": 70}, {"time": 87121, "pitch": 61, "duration": 49, "velocity": 80}, {"time": 87358, "pitch": 61, "duration": 10, "velocity": 50}, {"time": 87508, "pitch": 61, "duration": 50, "velocity": 70}, {"time": 87749, "pitch": 61, "duration": 10, "velocity": 30}, {"time": 87840, "pitch": 61, "duration": 50, "velocity": 80}, {"time": 88231, "pitch": 61, "duration": 50, "velocity": 70}, {"time": 88563, "pitch": 61, "duration": 150, "velocity": 60}, {"time": 88713, "pitch": 61, "duration": 20, "velocity": 70}, {"time": 89041, "pitch": 62, "duration": 49, "velocity": 80}, {"time": 89278, "pitch": 62, "duration": 10, "velocity": 50}, {"time": 89428, "pitch": 62, "duration": 50, "velocity": 70}, {"time": 89669, "pitch": 62, "duration": 10, "velocity": 30}, {"time": 89760, "pitch": 62, "duration": 50, "velocity": 80}, {"time": 90151, "pitch": 62, "duration": 51, "velocity": 70}, {"time": 90483, "pitch": 62, "duration": 150, "velocity": 60}, {"time": 90633, "pitch": 62, "duration": 21, "velocity": 70}, {"time": 90961, "pitch": 61, "duration": 49, "velocity": 80}, {"time": 91198, "pitch": 61, "duration": 10, "velocity": 50}, {"time": 91348, "pitch": 61, "duration": 50, "velocity": 70}, {"time": 91589, "pitch": 61, "duration": 10, "velocity": 30}, {"time": 91680, "pitch": 61, "duration": 50, "velocity": 80}, {"time": 92071, "pitch": 61, "duration": 51, "velocity": 70}, {"time": 92403, "pitch": 61, "duration": 151, "velocity": 60}, {"time": 92554, "pitch": 61, "duration": 20, "velocity": 70}, {"time": 92881, "pitch": 62, "duration": 49, "velocity": 80}, {"time": 93118, "pitch": 62, "duration": 10, "velocity": 50}, {"time": 93268, "pitch": 62, "duration": 51, "velocity": 70}, {"time": 93509, "pitch": 62, "duration": 10, "velocity": 30}, {"time": 93600, "pitch": 62, "duration": 50, "velocity": 80}, {"time": 93991, "pitch": 62, "duration": 51, "velocity": 70}, {"time": 94323, "pitch": 62, "duration": 151, "velocity": 60}, {"time": 94474, "pitch": 62, "duration": 20, "velocity": 70}, {"time": 94801, "pitch": 61, "duration": 49, "velocity": 80}, {"time": 95038, "pitch": 61, "duration": 10, "velocity": 50}, {"time": 95188, "pitch": 61, "duration": 51, "velocity": 70}, {"time": 95429, "pitch": 61, "duration": 11, "velocity": 30}, {"time": 95520, "pitch": 61, "duration": 50, "velocity": 80}, {"time": 95912, "pitch": 61, "duration": 50, "velocity": 70}, {"time": 96243, "pitch": 61, "duration": 151, "velocity": 60}, {"time": 96394, "pitch": 61, "duration": 20, "velocity": 70}, {"time": 96721, "pitch": 62, "duration": 49, "velocity": 80}, {"time": 96958, "pitch": 62, "duration": 10, "velocity": 50}, {"time": 97109, "pitch": 62, "duration": 50, "velocity": 70}, {"time": 97350, "pitch": 62, "duration": 10, "velocity": 30}, {"time": 97440, "pitch": 62, "duration": 50, "velocity": 80}, {"time": 97832, "pitch": 62, "duration": 50, "velocity": 70}, {"time": 98163, "pitch": 62, "duration": 151, "velocity": 60}, {"time": 98314, "pitch": 62, "duration": 20, "velocity": 70}, {"time": 98641, "pitch": 61, "duration": 49, "velocity": 80}, {"time": 98878, "pitch": 61, "duration": 10, "velocity": 50}, {"time": 99029, "pitch": 61, "duration": 50, "velocity": 70}, {"time": 99270, "pitch": 61, "duration": 10, "velocity": 30}, {"time": 99360, "pitch": 61, "duration": 50, "velocity": 80}, {"time": 115677, "pitch": 62, "duration": 10, "velocity": 55}, {"time": 115827, "pitch": 62, "duration": 10, "velocity": 65}, {"time": 115918, "pitch": 62, "duration": 150, "velocity": 65}, {"time": 116068, "pitch": 62, "duration": 81, "velocity": 55}, {"time": 116159, "pitch": 62, "duration": 150, "velocity": 65}, {"time": 116309, "pitch": 62, "duration": 81, "velocity": 70}, {"time": 116400, "pitch": 62, "duration": 10, "velocity": 55}, {"time": 116550, "pitch": 62, "duration": 10, "velocity": 55}, {"time": 116641, "pitch": 62, "duration": 150, "velocity": 65}, {"time": 116791, "pitch": 62, "duration": 81, "velocity": 55}, {"time": 116882, "pitch": 62, "duration": 150, "velocity": 65}, {"time": 117032, "pitch": 62, "duration": 81, "velocity": 70}, {"time": 117123, "pitch": 62, "duration": 10, "velocity": 55}, {"time": 117271, "pitch": 62, "duration": 10, "velocity": 65}, {"time": 117360, "pitch": 62, "duration": 158, "velocity": 65}, {"time": 117508, "pitch": 64, "duration": 79, "velocity": 70}, {"time": 117597, "pitch": 62, "duration": 10, "velocity": 55}, {"time": 117747, "pitch": 62, "duration": 10, "velocity": 65}, {"time": 117838, "pitch": 62, "duration": 150, "velocity": 65}, {"time": 117988, "pitch": 62, "duration": 81, "velocity": 55}, {"time": 118079, "pitch": 62, "duration": 150, "velocity": 65}, {"time": 118229, "pitch": 62, "duration": 81, "velocity": 70}, {"time": 118320, "pitch": 62, "duration": 10, "velocity": 55}, {"time": 118470, "pitch": 62, "duration": 10, "velocity": 55}, {"time": 118561, "pitch": 62, "duration": 150, "velocity": 65}, {"time": 118711, "pitch": 62, "duration": 81, "velocity": 55}, {"time": 118802, "pitch": 62, "duration": 151, "velocity": 65}, {"time": 118953, "pitch": 62, "duration": 80, "velocity": 70}, {"time": 119043, "pitch": 62, "duration": 10, "velocity": 55}, {"time": 119191, "pitch": 62, "duration": 10, "velocity": 65}, {"time": 119280, "pitch": 62, "duration": 158, "velocity": 65}, {"time": 119428, "pitch": 64, "duration": 79, "velocity": 70}, {"time": 119517, "pitch": 62, "duration": 10, "velocity": 55}, {"time": 119667, "pitch": 62, "duration": 10, "velocity": 65}, {"time": 119758, "pitch": 62, "duration": 150, "velocity": 65}, {"time": 119908, "pitch": 62, "duration": 81, "velocity": 55}, {"time": 119999, "pitch": 62, "duration": 150, "velocity": 65}, {"time": 120149, "pitch": 62, "duration": 81, "velocity": 70}, {"time": 120240, "pitch": 62, "duration": 10, "velocity": 55}, {"time": 120391, "pitch": 62, "duration": 10, "velocity": 55}, {"time": 120481, "pitch": 62, "duration": 151, "velocity": 65}, {"time": 120632, "pitch": 62, "duration": 80, "velocity": 55}, {"time": 120722, "pitch": 62, "duration": 151, "velocity": 65}, {"time": 120873, "pitch": 62, "duration": 80, "velocity": 70}, {"time": 120963, "pitch": 62, "duration": 10, "velocity": 55}, {"time": 121111, "pitch": 62, "duration": 10, "velocity": 65}, {"time": 121200, "pitch": 62, "duration": 158, "velocity": 65}, {"time": 121348, "pitch": 64, "duration": 79, "velocity": 70}, {"time": 121437, "pitch": 62, "duration": 10, "velocity": 55}, {"time": 121587, "pitch": 62, "duration": 11, "velocity": 65}, {"time": 121678, "pitch": 62, "duration": 151, "velocity": 65}, {"time": 121829, "pitch": 62, "duration": 80, "velocity": 55}, {"time": 121919, "pitch": 62, "duration": 151, "velocity": 65}, {"time": 122070, "pitch": 62, "duration": 80, "velocity": 70}, {"time": 122160, "pitch": 62, "duration": 10, "velocity": 55}, {"time": 122311, "pitch": 62, "duration": 10, "velocity": 55}, {"time": 122401, "pitch": 62, "duration": 151, "velocity": 65}, {"time": 122552, "pitch": 62, "duration": 80, "velocity": 55}, {"time": 122642, "pitch": 62, "duration": 151, "velocity": 65}, {"time": 122793, "pitch": 62, "duration": 80, "velocity": 70}, {"time": 122883, "pitch": 62, "duration": 10, "velocity": 55}, {"time": 123031, "pitch": 62, "duration": 10, "velocity": 65}, {"time": 123120, "pitch": 62, "duration": 158, "velocity": 65}, {"time": 123268, "pitch": 64, "duration": 79, "velocity": 70}, {"time": 123357, "pitch": 62, "duration": 10, "velocity": 55}, {"time": 123508, "pitch": 62, "duration": 10, "velocity": 65}, {"time": 123598, "pitch": 62, "duration": 151, "velocity": 65}, {"time": 123749, "pitch": 62, "duration": 80, "velocity": 55}, {"time": 123839, "pitch": 62, "duration": 151, "velocity": 65}, {"time": 123990, "pitch": 62, "duration": 80, "velocity": 70}, {"time": 124080, "pitch": 62, "duration": 10, "velocity": 55}, {"time": 124231, "pitch": 62, "duration": 10, "velocity": 55}, {"time": 124321, "pitch": 62, "duration": 151, "velocity": 65}, {"time": 124472, "pitch": 62, "duration": 80, "velocity": 55}, {"time": 124562, "pitch": 62, "duration": 151, "velocity": 65}, {"time": 124713, "pitch": 62, "duration": 80, "velocity": 70}, {"time": 124803, "pitch": 62, "duration": 10, "velocity": 55}, {"time": 124951, "pitch": 62, "duration": 10, "velocity": 65}, {"time": 125040, "pitch": 62, "duration": 158, "velocity": 65}, {"time": 125188, "pitch": 64, "duration": 79, "velocity": 70}, {"time": 125277, "pitch": 62, "duration": 10, "velocity": 55}, {"time": 125428, "pitch": 62, "duration": 10, "velocity": 65}, {"time": 125518, "pitch": 62, "duration": 151, "velocity": 65}, {"time": 125669, "pitch": 62, "duration": 80, "velocity": 55}, {"time": 125759, "pitch": 62, "duration": 151, "velocity": 65}, {"time": 125910, "pitch": 62, "duration": 80, "velocity": 70}, {"time": 126000, "pitch": 62, "duration": 10, "velocity": 55}, {"time": 126151, "pitch": 62, "duration": 10, "velocity": 55}, {"time": 126241, "pitch": 62, "duration": 151, "velocity": 65}, {"time": 126392, "pitch": 62, "duration": 80, "velocity": 55}, {"time": 126482, "pitch": 62, "duration": 151, "velocity": 65}, {"time": 126633, "pitch": 62, "duration": 80, "velocity": 70}, {"time": 126723, "pitch": 62, "duration": 10, "velocity": 55}, {"time": 126871, "pitch": 62, "duration": 10, "velocity": 65}, {"time": 126960, "pitch": 62, "duration": 158, "velocity": 65}, {"time": 127108, "pitch": 64, "duration": 79, "velocity": 70}, {"time": 127197, "pitch": 62, "duration": 10, "velocity": 55}, {"time": 127348, "pitch": 62, "duration": 10, "velocity": 65}, {"time": 127438, "pitch": 62, "duration": 151, "velocity": 65}, {"time": 127589, "pitch": 62, "duration": 80, "velocity": 55}, {"time": 127679, "pitch": 62, "duration": 151, "velocity": 65}, {"time": 127830, "pitch": 62, "duration": 80, "velocity": 70}, {"time": 127920, "pitch": 62, "duration": 10, "velocity": 55}, {"time": 128071, "pitch": 62, "duration": 10, "velocity": 55}, {"time": 128161, "pitch": 62, "duration": 151, "velocity": 65}, {"time": 128312, "pitch": 62, "duration": 80, "velocity": 55}, {"time": 128402, "pitch": 62, "duration": 151, "velocity": 65}, {"time": 128553, "pitch": 62, "duration": 80, "velocity": 70}, {"time": 128643, "pitch": 62, "duration": 10, "velocity": 55}, {"time": 128791, "pitch": 62, "duration": 10, "velocity": 65}, {"time": 128880, "pitch": 62, "duration": 158, "velocity": 65}, {"time": 129028, "pitch": 64, "duration": 79, "velocity": 70}, {"time": 161758, "pitch": 62, "duration": 11, "velocity": 55}, {"time": 161909, "pitch": 62, "duration": 10, "velocity": 65}, {"time": 162000, "pitch": 62, "duration": 150, "velocity": 65}, {"time": 162150, "pitch": 62, "duration": 81, "velocity": 55}, {"time": 162241, "pitch": 62, "duration": 150, "velocity": 65}, {"time": 162391, "pitch": 62, "duration": 81, "velocity": 70}, {"time": 162482, "pitch": 62, "duration": 10, "velocity": 55}, {"time": 162632, "pitch": 62, "duration": 10, "velocity": 55}, {"time": 162723, "pitch": 62, "duration": 148, "velocity": 65}, {"time": 162871, "pitch": 62, "duration": 79, "velocity": 55}, {"time": 162960, "pitch": 62, "duration": 148, "velocity": 65}, {"time": 163108, "pitch": 62, "duration": 79, "velocity": 70}, {"time": 163197, "pitch": 62, "duration": 10, "velocity": 55}, {"time": 163347, "pitch": 62, "duration": 10, "velocity": 65}, {"time": 163438, "pitch": 62, "duration": 160, "velocity": 65}, {"time": 163588, "pitch": 64, "duration": 81, "velocity": 70}, {"time": 163679, "pitch": 62, "duration": 10, "velocity": 55}, {"time": 163829, "pitch": 62, "duration": 10, "velocity": 65}, {"time": 163920, "pitch": 62, "duration": 150, "velocity": 65}, {"time": 164070, "pitch": 62, "duration": 81, "velocity": 55}, {"time": 164161, "pitch": 62, "duration": 150, "velocity": 65}, {"time": 164311, "pitch": 62, "duration": 81, "velocity": 70}, {"time": 164402, "pitch": 62, "duration": 10, "velocity": 55}, {"time": 164552, "pitch": 62, "duration": 10, "velocity": 55}, {"time": 164643, "pitch": 62, "duration": 148, "velocity": 65}, {"time": 164791, "pitch": 62, "duration": 79, "velocity": 55}, {"time": 164880, "pitch": 62, "duration": 148, "velocity": 65}, {"time": 165028, "pitch": 62, "duration": 79, "velocity": 70}, {"time": 165117, "pitch": 62, "duration": 10, "velocity": 55}, {"time": 165267, "pitch": 62, "duration": 10, "velocity": 65}, {"time": 165358, "pitch": 62, "duration": 160, "velocity": 65}, {"time": 165508, "pitch": 64, "duration": 81, "velocity": 70}, {"time": 165599, "pitch": 62, "duration": 10, "velocity": 55}, {"time": 165749, "pitch": 62, "duration": 10, "velocity": 65}, {"time": 165840, "pitch": 62, "duration": 150, "velocity": 65}, {"time": 165990, "pitch": 62, "duration": 81, "velocity": 55}, {"time": 166081, "pitch": 62, "duration": 150, "velocity": 65}, {"time": 166231, "pitch": 62, "duration": 81, "velocity": 70}, {"time": 166322, "pitch": 62, "duration": 10, "velocity": 55}, {"time": 166472, "pitch": 62, "duration": 10, "velocity": 55}, {"time": 166563, "pitch": 62, "duration": 148, "velocity": 65}, {"time": 166711, "pitch": 62, "duration": 79, "velocity": 55}, {"time": 166800, "pitch": 62, "duration": 148, "velocity": 65}, {"time": 166948, "pitch": 62, "duration": 79, "velocity": 70}, {"time": 167037, "pitch": 62, "duration": 10, "velocity": 55}, {"time": 167187, "pitch": 62, "duration": 10, "velocity": 65}, {"time": 167278, "pitch": 62, "duration": 160, "velocity": 65}, {"time": 167428, "pitch": 64, "duration": 81, "velocity": 70}, {"time": 167519, "pitch": 62, "duration": 10, "velocity": 55}, {"time": 167669, "pitch": 62, "duration": 10, "velocity": 65}, {"time": 167760, "pitch": 62, "duration": 150, "velocity": 65}, {"time": 167910, "pitch": 62, "duration": 81, "velocity": 55}, {"time": 168001, "pitch": 62, "duration": 150, "velocity": 65}, {"time": 168151, "pitch": 62, "duration": 81, "velocity": 70}, {"time": 168242, "pitch": 62, "duration": 10, "velocity": 55}, {"time": 168393, "pitch": 62, "duration": 10, "velocity": 55}, {"time": 168483, "pitch": 62, "duration": 148, "velocity": 65}, {"time": 168631, "pitch": 62, "duration": 79, "velocity": 55}, {"time": 168720, "pitch": 62, "duration": 148, "velocity": 65}, {"time": 168868, "pitch": 62, "duration": 79, "velocity": 70}, {"time": 168957, "pitch": 62, "duration": 10, "velocity": 55}, {"time": 169107, "pitch": 62, "duration": 10, "velocity": 65}, {"time": 169198, "pitch": 62, "duration": 160, "velocity": 65}, {"time": 169348, "pitch": 64, "duration": 81, "velocity": 70}, {"time": 169439, "pitch": 62, "duration": 10, "velocity": 55}, {"time": 169589, "pitch": 62, "duration": 10, "velocity": 65}, {"time": 169680, "pitch": 62, "duration": 150, "velocity": 65}, {"time": 169830, "pitch": 62, "duration": 81, "velocity": 55}, {"time": 169921, "pitch": 62, "duration": 151, "velocity": 65}, {"time": 170072, "pitch": 62, "duration": 80, "velocity": 70}, {"time": 170162, "pitch": 62, "duration": 10, "velocity": 55}, {"time": 170313, "pitch": 62, "duration": 10, "velocity": 55}, {"time": 170403, "pitch": 62, "duration": 148, "velocity": 65}, {"time": 170551, "pitch": 62, "duration": 79, "velocity": 55}, {"time": 170640, "pitch": 62, "duration": 148, "velocity": 65}, {"time": 170788, "pitch": 62, "duration": 79, "velocity": 70}, {"time": 170877, "pitch": 62, "duration": 10, "velocity": 55}, {"time": 171027, "pitch": 62, "duration": 10, "velocity": 65}, {"time": 171118, "pitch": 62, "duration": 161, "velocity": 65}, {"time": 171268, "pitch": 64, "duration": 81, "velocity": 70}, {"time": 171359, "pitch": 62, "duration": 10, "velocity": 55}, {"time": 171510, "pitch": 62, "duration": 10, "velocity": 65}, {"time": 171600, "pitch": 62, "duration": 151, "velocity": 65}, {"time": 171751, "pitch": 62, "duration": 80, "velocity": 55}, {"time": 171841, "pitch": 62, "duration": 151, "velocity": 65}, {"time": 171992, "pitch": 62, "duration": 80, "velocity": 70}, {"time": 172082, "pitch": 62, "duration": 10, "velocity": 55}, {"time": 172233, "pitch": 62, "duration": 10, "velocity": 55}, {"time": 172323, "pitch": 62, "duration": 148, "velocity": 65}, {"time": 172471, "pitch": 62, "duration": 79, "velocity": 55}, {"time": 172560, "pitch": 62, "duration": 148, "velocity": 65}, {"time": 172708, "pitch": 62, "duration": 79, "velocity": 70}, {"time": 172797, "pitch": 62, "duration": 10, "velocity": 55}, {"time": 172948, "pitch": 62, "duration": 10, "velocity": 65}, {"time": 173038, "pitch": 62, "duration": 161, "velocity": 65}, {"time": 173189, "pitch": 64, "duration": 80, "velocity": 70}, {"time": 173279, "pitch": 62, "duration": 10, "velocity": 55}, {"time": 173430, "pitch": 62, "duration": 10, "velocity": 65}, {"time": 173520, "pitch": 62, "duration": 151, "velocity": 65}, {"time": 173671, "pitch": 62, "duration": 80, "velocity": 55}, {"time": 173761, "pitch": 62, "duration": 151, "velocity": 65}, {"time": 173912, "pitch": 62, "duration": 80, "velocity": 70}, {"time": 174002, "pitch": 62, "duration": 10, "velocity": 55}, {"time": 174153, "pitch": 62, "duration": 10, "velocity": 55}, {"time": 174243, "pitch": 62, "duration": 148, "velocity": 65}, {"time": 174391, "pitch": 62, "duration": 79, "velocity": 55}, {"time": 174480, "pitch": 62, "duration": 148, "velocity": 65}, {"time": 174628, "pitch": 62, "duration": 79, "velocity": 70}, {"time": 174717, "pitch": 62, "duration": 10, "velocity": 55}, {"time": 174868, "pitch": 62, "duration": 10, "velocity": 65}, {"time": 174958, "pitch": 62, "duration": 161, "velocity": 65}, {"time": 175109, "pitch": 64, "duration": 80, "velocity": 70}, {"time": 175199, "pitch": 62, "duration": 10, "velocity": 55}, {"time": 175350, "pitch": 62, "duration": 10, "velocity": 65}, {"time": 175440, "pitch": 62, "duration": 151, "velocity": 65}, {"time": 175591, "pitch": 62, "duration": 80, "velocity": 55}, {"time": 175681, "pitch": 62, "duration": 151, "velocity": 65}, {"time": 175832, "pitch": 62, "duration": 80, "velocity": 70}, {"time": 175922, "pitch": 62, "duration": 10, "velocity": 55}, {"time": 176073, "pitch": 62, "duration": 10, "velocity": 55}, {"time": 176163, "pitch": 62, "duration": 148, "velocity": 65}, {"time": 176311, "pitch": 62, "duration": 79, "velocity": 55}, {"time": 176400, "pitch": 62, "duration": 148, "velocity": 65}, {"time": 176548, "pitch": 62, "duration": 79, "velocity": 70}, {"time": 176637, "pitch": 62, "duration": 10, "velocity": 55}, {"time": 176788, "pitch": 62, "duration": 10, "velocity": 65}, {"time": 176878, "pitch": 62, "duration": 161, "velocity": 65}, {"time": 177029, "pitch": 64, "duration": 80, "velocity": 70}, {"time": 177119, "pitch": 62, "duration": 10, "velocity": 55}, {"time": 177270, "pitch": 62, "duration": 10, "velocity": 65}, {"time": 177360, "pitch": 62, "duration": 151, "velocity": 65}, {"time": 177511, "pitch": 62, "duration": 80, "velocity": 55}, {"time": 177601, "pitch": 62, "duration": 151, "velocity": 65}, {"time": 177752, "pitch": 62, "duration": 80, "velocity": 70}, {"time": 177842, "pitch": 62, "duration": 10, "velocity": 55}, {"time": 177993, "pitch": 62, "duration": 10, "velocity": 55}, {"time": 178083, "pitch": 62, "duration": 148, "velocity": 65}, {"time": 178231, "pitch": 62, "duration": 79, "velocity": 55}, {"time": 178320, "pitch": 62, "duration": 148, "velocity": 65}, {"time": 178468, "pitch": 62, "duration": 79, "velocity": 70}, {"time": 178557, "pitch": 62, "duration": 10, "velocity": 55}, {"time": 178708, "pitch": 62, "duration": 10, "velocity": 65}, {"time": 178798, "pitch": 62, "duration": 161, "velocity": 65}, {"time": 178949, "pitch": 64, "duration": 80, "velocity": 70}, {"time": 179039, "pitch": 62, "duration": 10, "velocity": 55}, {"time": 179190, "pitch": 62, "duration": 10, "velocity": 65}, {"time": 179280, "pitch": 62, "duration": 151, "velocity": 65}, {"time": 179431, "pitch": 62, "duration": 80, "velocity": 55}, {"time": 179521, "pitch": 62, "duration": 151, "velocity": 65}, {"time": 179672, "pitch": 62, "duration": 80, "velocity": 70}, {"time": 179762, "pitch": 62, "duration": 10, "velocity": 55}, {"time": 179913, "pitch": 62, "duration": 10, "velocity": 55}, {"time": 180003, "pitch": 62, "duration": 148, "velocity": 65}, {"time": 180151, "pitch": 62, "duration": 79, "velocity": 55}, {"time": 180240, "pitch": 62, "duration": 148, "velocity": 65}, {"time": 180388, "pitch": 62, "duration": 79, "velocity": 70}, {"time": 180477, "pitch": 62, "duration": 10, "velocity": 55}, {"time": 180628, "pitch": 62, "duration": 10, "velocity": 65}, {"time": 180718, "pitch": 62, "duration": 161, "velocity": 65}, {"time": 180869, "pitch": 64, "duration": 80, "velocity": 70}, {"time": 180959, "pitch": 62, "duration": 10, "velocity": 55}, {"time": 181110, "pitch": 62, "duration": 10, "velocity": 65}, {"time": 181200, "pitch": 62, "duration": 151, "velocity": 65}, {"time": 181351, "pitch": 62, "duration": 80, "velocity": 55}, {"time": 181441, "pitch": 62, "duration": 151, "velocity": 65}, {"time": 181592, "pitch": 62, "duration": 80, "velocity": 70}, {"time": 181682, "pitch": 62, "duration": 10, "velocity": 55}, {"time": 181833, "pitch": 62, "duration": 10, "velocity": 55}, {"time": 181923, "pitch": 62, "duration": 148, "velocity": 65}, {"time": 182071, "pitch": 62, "duration": 79, "velocity": 55}, {"time": 182160, "pitch": 62, "duration": 148, "velocity": 65}, {"time": 182308, "pitch": 62, "duration": 79, "velocity": 70}, {"time": 182397, "pitch": 62, "duration": 10, "velocity": 55}, {"time": 182548, "pitch": 62, "duration": 10, "velocity": 65}, {"time": 182638, "pitch": 62, "duration": 161, "velocity": 65}, {"time": 182789, "pitch": 64, "duration": 80, "velocity": 70}, {"time": 182879, "pitch": 62, "duration": 10, "velocity": 55}, {"time": 183030, "pitch": 62, "duration": 10, "velocity": 65}, {"time": 183120, "pitch": 62, "duration": 151, "velocity": 65}, {"time": 183271, "pitch": 62, "duration": 80, "velocity": 55}, {"time": 183361, "pitch": 62, "duration": 151, "velocity": 65}, {"time": 183512, "pitch": 62, "duration": 80, "velocity": 70}, {"time": 183602, "pitch": 62, "duration": 11, "velocity": 55}, {"time": 183753, "pitch": 62, "duration": 10, "velocity": 55}, {"time": 183843, "pitch": 62, "duration": 149, "velocity": 65}, {"time": 183992, "pitch": 62, "duration": 79, "velocity": 55}, {"time": 184080, "pitch": 62, "duration": 149, "velocity": 65}, {"time": 184229, "pitch": 62, "duration": 79, "velocity": 70}, {"time": 184317, "pitch": 62, "duration": 10, "velocity": 55}, {"time": 184468, "pitch": 62, "duration": 10, "velocity": 65}, {"time": 184558, "pitch": 62, "duration": 161, "velocity": 65}, {"time": 184709, "pitch": 64, "duration": 80, "velocity": 70}, {"time": 184799, "pitch": 62, "duration": 10, "velocity": 55}, {"time": 184950, "pitch": 62, "duration": 10, "velocity": 65}, {"time": 185040, "pitch": 62, "duration": 151, "velocity": 65}, {"time": 185191, "pitch": 62, "duration": 80, "velocity": 55}, {"time": 185282, "pitch": 62, "duration": 150, "velocity": 65}, {"time": 185432, "pitch": 62, "duration": 81, "velocity": 70}, {"time": 185523, "pitch": 62, "duration": 10, "velocity": 55}, {"time": 185673, "pitch": 62, "duration": 10, "velocity": 55}, {"time": 185764, "pitch": 62, "duration": 148, "velocity": 65}, {"time": 185912, "pitch": 62, "duration": 79, "velocity": 55}, {"time": 186001, "pitch": 62, "duration": 148, "velocity": 65}, {"time": 186149, "pitch": 62, "duration": 79, "velocity": 70}, {"time": 186237, "pitch": 62, "duration": 10, "velocity": 55}, {"time": 186388, "pitch": 62, "duration": 10, "velocity": 65}, {"time": 186478, "pitch": 62, "duration": 161, "velocity": 65}, {"time": 186629, "pitch": 64, "duration": 80, "velocity": 70}, {"time": 186720, "pitch": 62, "duration": 10, "velocity": 55}, {"time": 186870, "pitch": 62, "duration": 10, "velocity": 65}, {"time": 186961, "pitch": 62, "duration": 150, "velocity": 65}, {"time": 187111, "pitch": 62, "duration": 81, "velocity": 55}, {"time": 187202, "pitch": 62, "duration": 150, "velocity": 65}, {"time": 187352, "pitch": 62, "duration": 81, "velocity": 70}, {"time": 187443, "pitch": 62, "duration": 10, "velocity": 55}, {"time": 187593, "pitch": 62, "duration": 10, "velocity": 55}, {"time": 187684, "pitch": 62, "duration": 148, "velocity": 65}, {"time": 187832, "pitch": 62, "duration": 79, "velocity": 55}, {"time": 187921, "pitch": 62, "duration": 148, "velocity": 65}, {"time": 188069, "pitch": 62, "duration": 79, "velocity": 70}, {"time": 188158, "pitch": 62, "duration": 10, "velocity": 55}, {"time": 188308, "pitch": 62, "duration": 10, "velocity": 65}, {"time": 188399, "pitch": 62, "duration": 160, "velocity": 65}, {"time": 188549, "pitch": 64, "duration": 81, "velocity": 70}, {"time": 188640, "pitch": 62, "duration": 10, "velocity": 55}, {"time": 188790, "pitch": 62, "duration": 10, "velocity": 65}, {"time": 188881, "pitch": 62, "duration": 150, "velocity": 65}, {"time": 189031, "pitch": 62, "duration": 81, "velocity": 55}, {"time": 189122, "pitch": 62, "duration": 150, "velocity": 65}, {"time": 189272, "pitch": 62, "duration": 81, "velocity": 70}, {"time": 189363, "pitch": 62, "duration": 10, "velocity": 55}, {"time": 189513, "pitch": 62, "duration": 10, "velocity": 55}, {"time": 189604, "pitch": 62, "duration": 148, "velocity": 65}, {"time": 189752, "pitch": 62, "duration": 79, "velocity": 55}, {"time": 189841, "pitch": 62, "duration": 148, "velocity": 65}, {"time": 189989, "pitch": 62, "duration": 79, "velocity": 70}, {"time": 190078, "pitch": 62, "duration": 10, "velocity": 55}, {"time": 190228, "pitch": 62, "duration": 10, "velocity": 65}, {"time": 190319, "pitch": 62, "duration": 160, "velocity": 65}, {"time": 190469, "pitch": 64, "duration": 81, "velocity": 70}], "annotations": [{"time": 292, "annotation": {"number": 7, "value": 100}, "group": "control_change"}, {"time": 313, "annotation": {"number": 11, "value": 100}, "group": "control_change"}, {"time": 334, "annotation": {"number": 10, "value": 69}, "group": "control_change"}, {"time": 355, "annotation": {"number": 91, "value": 40}, "group": "control_change"}, {"time": 376, "annotation": {"number": 93, "value": 0}, "group": "control_change"}, {"time": 397, "annotation": {"number": 101, "value": 0}, "group": "control_change"}, {"time": 417, "annotation": {"number": 100, "value": 0}, "group": "control_change"}, {"time": 438, "annotation": {"number": 6, "value": 12}, "group": "control_change"}, {"time": 459, "annotation": {"number": 101, "value": 127}, "group": "control_change"}, {"time": 480, "annotation": {"number": 100, "value": 127}, "group": "control_change"}, {"time": 83013, "annotation": {"number": 0, "value": 0}, "group": "control_change"}, {"time": 83023, "annotation": {"number": 32, "value": 0}, "group": "control_change"}, {"time": 131881, "annotation": {"number": 0, "value": 16}, "group": "control_change"}, {"time": 131891, "annotation": {"number": 32, "value": 0}, "group": "control_change"}]}, {"program": 27, "is_drum": false, "name": "E.GUITAR 3", "notes": [{"time": 83909, "pitch": 73, "duration": 492, "velocity": 100}, {"time": 85200, "pitch": 62, "duration": 50, "velocity": 80}, {"time": 85437, "pitch": 62, "duration": 10, "velocity": 50}, {"time": 85588, "pitch": 62, "duration": 50, "velocity": 70}, {"time": 85829, "pitch": 62, "duration": 10, "velocity": 30}, {"time": 85919, "pitch": 62, "duration": 51, "velocity": 80}, {"time": 86311, "pitch": 62, "duration": 50, "velocity": 70}, {"time": 86643, "pitch": 62, "duration": 150, "velocity": 60}, {"time": 86793, "pitch": 62, "duration": 20, "velocity": 70}], "annotations": [{"time": 86854, "annotation": {"number": 0, "value": 0}, "group": "control_change"}, {"time": 86864, "annotation": {"number": 32, "value": 0}, "group": "control_change"}]}, {"program": 28, "is_drum": false, "name": "E.GUITAR 3", "notes": [{"time": 131911, "pitch": 64, "duration": 80, "velocity": 90}, {"time": 131911, "pitch": 68, "duration": 80, "velocity": 95}, {"time": 131921, "pitch": 74, "duration": 80, "velocity": 100}, {"time": 132242, "pitch": 64, "duration": 81, "velocity": 90}, {"time": 132242, "pitch": 68, "duration": 81, "velocity": 95}, {"time": 132252, "pitch": 74, "duration": 81, "velocity": 100}, {"time": 133831, "pitch": 64, "duration": 80, "velocity": 90}, {"time": 133831, "pitch": 68, "duration": 80, "velocity": 95}, {"time": 133841, "pitch": 74, "duration": 80, "velocity": 100}, {"time": 134163, "pitch": 64, "duration": 80, "velocity": 90}, {"time": 134163, "pitch": 68, "duration": 80, "velocity": 95}, {"time": 134173, "pitch": 74, "duration": 80, "velocity": 100}, {"time": 135751, "pitch": 64, "duration": 80, "velocity": 90}, {"time": 135751, "pitch": 68, "duration": 80, "velocity": 95}, {"time": 135761, "pitch": 74, "duration": 81, "velocity": 100}, {"time": 136083, "pitch": 64, "duration": 80, "velocity": 90}, {"time": 136083, "pitch": 68, "duration": 80, "velocity": 95}, {"time": 136093, "pitch": 74, "duration": 80, "velocity": 100}, {"time": 137671, "pitch": 64, "duration": 81, "velocity": 90}, {"time": 137671, "pitch": 68, "duration": 81, "velocity": 95}, {"time": 137681, "pitch": 74, "duration": 81, "velocity": 100}, {"time": 138003, "pitch": 64, "duration": 80, "velocity": 90}, {"time": 138003, "pitch": 68, "duration": 80, "velocity": 95}, {"time": 138013, "pitch": 74, "duration": 80, "velocity": 100}, {"time": 139591, "pitch": 64, "duration": 81, "velocity": 90}, {"time": 139591, "pitch": 68, "duration": 81, "velocity": 95}, {"time": 139601, "pitch": 74, "duration": 81, "velocity": 100}, {"time": 139923, "pitch": 64, "duration": 80, "velocity": 90}, {"time": 139923, "pitch": 68, "duration": 80, "velocity": 95}, {"time": 139933, "pitch": 74, "duration": 80, "velocity": 100}, {"time": 141511, "pitch": 64, "duration": 81, "velocity": 90}, {"time": 141511, "pitch": 68, "duration": 81, "velocity": 95}, {"time": 141521, "pitch": 74, "duration": 81, "velocity": 100}, {"time": 141843, "pitch": 64, "duration": 80, "velocity": 90}, {"time": 141843, "pitch": 68, "duration": 80, "velocity": 95}, {"time": 141853, "pitch": 74, "duration": 80, "velocity": 100}, {"time": 143431, "pitch": 64, "duration": 81, "velocity": 90}, {"time": 143431, "pitch": 68, "duration": 81, "velocity": 95}, {"time": 143442, "pitch": 74, "duration": 80, "velocity": 100}, {"time": 143763, "pitch": 64, "duration": 80, "velocity": 90}, {"time": 143763, "pitch": 68, "duration": 80, "velocity": 95}, {"time": 143773, "pitch": 74, "duration": 80, "velocity": 100}, {"time": 145352, "pitch": 64, "duration": 80, "velocity": 90}, {"time": 145352, "pitch": 68, "duration": 80, "velocity": 95}, {"time": 145362, "pitch": 74, "duration": 80, "velocity": 100}, {"time": 145683, "pitch": 64, "duration": 80, "velocity": 90}, {"time": 145683, "pitch": 68, "duration": 80, "velocity": 95}, {"time": 145693, "pitch": 74, "duration": 80, "velocity": 100}], "annotations": [{"time": 132212, "annotation": {"number": 0, "value": 8}, "group": "control_change"}, {"time": 132222, "annotation": {"number": 32, "value": 0}, "group": "control_change"}, {"time": 133801, "annotation": {"number": 0, "value": 16}, "group": "control_change"}, {"time": 133811, "annotation": {"number": 32, "value": 0}, "group": "control_change"}, {"time": 134132, "annotation": {"number": 0, "value": 8}, "group": "control_change"}, {"time": 134142, "annotation": {"number": 32, "value": 0}, "group": "control_change"}, {"time": 135721, "annotation": {"number": 0, "value": 16}, "group": "control_change"}, {"time": 135731, "annotation": {"number": 32, "value": 0}, "group": "control_change"}, {"time": 136052, "annotation": {"number": 0, "value": 8}, "group": "control_change"}, {"time": 136062, "annotation": {"number": 32, "value": 0}, "group": "control_change"}, {"time": 137641, "annotation": {"number": 0, "value": 16}, "group": "control_change"}, {"time": 137651, "annotation": {"number": 32, "value": 0}, "group": "control_change"}, {"time": 137973, "annotation": {"number": 0, "value": 8}, "group": "control_change"}, {"time": 137983, "annotation": {"number": 32, "value": 0}, "group": "control_change"}, {"time": 139561, "annotation": {"number": 0, "value": 16}, "group": "control_change"}, {"time": 139571, "annotation": {"number": 32, "value": 0}, "group": "control_change"}, {"time": 139893, "annotation": {"number": 0, "value": 8}, "group": "control_change"}, {"time": 139903, "annotation": {"number": 32, "value": 0}, "group": "control_change"}, {"time": 141481, "annotation": {"number": 0, "value": 16}, "group": "control_change"}, {"time": 141491, "annotation": {"number": 32, "value": 0}, "group": "control_change"}, {"time": 141813, "annotation": {"number": 0, "value": 8}, "group": "control_change"}, {"time": 141823, "annotation": {"number": 32, "value": 0}, "group": "control_change"}, {"time": 143401, "annotation": {"number": 0, "value": 16}, "group": "control_change"}, {"time": 143411, "annotation": {"number": 32, "value": 0}, "group": "control_change"}, {"time": 143733, "annotation": {"number": 0, "value": 8}, "group": "control_change"}, {"time": 143743, "annotation": {"number": 32, "value": 0}, "group": "control_change"}, {"time": 145321, "annotation": {"number": 0, "value": 16}, "group": "control_change"}, {"time": 145331, "annotation": {"number": 32, "value": 0}, "group": "control_change"}, {"time": 145653, "annotation": {"number": 0, "value": 8}, "group": "control_change"}, {"time": 145663, "annotation": {"number": 32, "value": 0}, "group": "control_change"}, {"time": 146368, "annotation": {"number": 0, "value": 0}, "group": "control_change"}, {"time": 146378, "annotation": {"number": 32, "value": 0}, "group": "control_change"}]}, {"program": 0, "is_drum": false, "name": "BELL", "annotations": [{"time": 230, "annotation": {"number": 0, "value": 0}, "group": "control_change"}, {"time": 250, "annotation": {"number": 32, "value": 0}, "group": "control_change"}]}, {"program": 98, "is_drum": false, "name": "BELL", "notes": [{"time": 44642, "pitch": 88, "duration": 50, "velocity": 98}, {"time": 45124, "pitch": 90, "duration": 49, "velocity": 89}, {"time": 45598, "pitch": 91, "duration": 60, "velocity": 95}, {"time": 46080, "pitch": 98, "duration": 50, "velocity": 91}, {"time": 46562, "pitch": 95, "duration": 50, "velocity": 105}, {"time": 48482, "pitch": 93, "duration": 79, "velocity": 103}, {"time": 49438, "pitch": 96, "duration": 90, "velocity": 98}, {"time": 49920, "pitch": 98, "duration": 70, "velocity": 93}, {"time": 50402, "pitch": 93, "duration": 69, "velocity": 112}, {"time": 52322, "pitch": 100, "duration": 79, "velocity": 105}, {"time": 52796, "pitch": 98, "duration": 70, "velocity": 93}, {"time": 53278, "pitch": 95, "duration": 70, "velocity": 98}, {"time": 53760, "pitch": 91, "duration": 71, "velocity": 105}, {"time": 54242, "pitch": 93, "duration": 79, "velocity": 105}, {"time": 56162, "pitch": 95, "duration": 79, "velocity": 103}, {"time": 57118, "pitch": 95, "duration": 91, "velocity": 100}, {"time": 57600, "pitch": 98, "duration": 81, "velocity": 91}, {"time": 58082, "pitch": 96, "duration": 79, "velocity": 107}, {"time": 60002, "pitch": 108, "duration": 30, "velocity": 84}, {"time": 60032, "pitch": 107, "duration": 30, "velocity": 64}, {"time": 60062, "pitch": 106, "duration": 29, "velocity": 70}, {"time": 60091, "pitch": 105, "duration": 30, "velocity": 64}, {"time": 60121, "pitch": 104, "duration": 30, "velocity": 68}, {"time": 60151, "pitch": 103, "duration": 29, "velocity": 63}, {"time": 60180, "pitch": 102, "duration": 30, "velocity": 68}, {"time": 60210, "pitch": 101, "duration": 29, "velocity": 74}, {"time": 60239, "pitch": 100, "duration": 30, "velocity": 53}, {"time": 60269, "pitch": 99, "duration": 30, "velocity": 89}, {"time": 60299, "pitch": 98, "duration": 29, "velocity": 68}, {"time": 60328, "pitch": 97, "duration": 30, "velocity": 81}, {"time": 60358, "pitch": 96, "duration": 30, "velocity": 81}, {"time": 60388, "pitch": 95, "duration": 29, "velocity": 68}, {"time": 60417, "pitch": 94, "duration": 30, "velocity": 81}, {"time": 60447, "pitch": 93, "duration": 29, "velocity": 84}, {"time": 60476, "pitch": 92, "duration": 30, "velocity": 76}, {"time": 60506, "pitch": 91, "duration": 31, "velocity": 84}, {"time": 60537, "pitch": 90, "duration": 30, "velocity": 70}, {"time": 60567, "pitch": 89, "duration": 30, "velocity": 82}, {"time": 60597, "pitch": 88, "duration": 30, "velocity": 81}, {"time": 60627, "pitch": 87, "duration": 30, "velocity": 74}, {"time": 60657, "pitch": 86, "duration": 30, "velocity": 89}, {"time": 60687, "pitch": 85, "duration": 30, "velocity": 76}, {"time": 60717, "pitch": 84, "duration": 31, "velocity": 89}, {"time": 60748, "pitch": 83, "duration": 30, "velocity": 81}, {"time": 60778, "pitch": 82, "duration": 30, "velocity": 68}, {"time": 60808, "pitch": 81, "duration": 30, "velocity": 82}, {"time": 60838, "pitch": 80, "duration": 30, "velocity": 74}, {"time": 60868, "pitch": 79, "duration": 30, "velocity": 81}, {"time": 60898, "pitch": 78, "duration": 30, "velocity": 68}, {"time": 60928, "pitch": 77, "duration": 30, "velocity": 72}, {"time": 60958, "pitch": 76, "duration": 31, "velocity": 89}, {"time": 60989, "pitch": 75, "duration": 30, "velocity": 76}, {"time": 61019, "pitch": 74, "duration": 30, "velocity": 74}, {"time": 61049, "pitch": 73, "duration": 30, "velocity": 72}, {"time": 61079, "pitch": 72, "duration": 30, "velocity": 72}, {"time": 61109, "pitch": 71, "duration": 30, "velocity": 76}, {"time": 61139, "pitch": 70, "duration": 30, "velocity": 60}, {"time": 61169, "pitch": 69, "duration": 30, "velocity": 81}, {"time": 61199, "pitch": 68, "duration": 31, "velocity": 56}, {"time": 61230, "pitch": 67, "duration": 30, "velocity": 68}, {"time": 61260, "pitch": 66, "duration": 30, "velocity": 51}, {"time": 61290, "pitch": 65, "duration": 30, "velocity": 81}, {"time": 61320, "pitch": 64, "duration": 30, "velocity": 81}, {"time": 61350, "pitch": 63, "duration": 30, "velocity": 52}, {"time": 61380, "pitch": 62, "duration": 30, "velocity": 72}, {"time": 61410, "pitch": 61, "duration": 31, "velocity": 60}, {"time": 61441, "pitch": 60, "duration": 30, "velocity": 78}, {"time": 61471, "pitch": 59, "duration": 30, "velocity": 60}, {"time": 61501, "pitch": 58, "duration": 30, "velocity": 51}, {"time": 61531, "pitch": 57, "duration": 30, "velocity": 64}, {"time": 61561, "pitch": 56, "duration": 30, "velocity": 45}, {"time": 61591, "pitch": 55, "duration": 30, "velocity": 39}, {"time": 61621, "pitch": 54, "duration": 30, "velocity": 41}, {"time": 61651, "pitch": 53, "duration": 31, "velocity": 40}, {"time": 61682, "pitch": 52, "duration": 30, "velocity": 45}, {"time": 61712, "pitch": 51, "duration": 30, "velocity": 45}, {"time": 61742, "pitch": 50, "duration": 30, "velocity": 52}, {"time": 61772, "pitch": 49, "duration": 30, "velocity": 41}, {"time": 61802, "pitch": 48, "duration": 30, "velocity": 64}, {"time": 67683, "pitch": 86, "duration": 69, "velocity": 112}, {"time": 68157, "pitch": 90, "duration": 70, "velocity": 105}, {"time": 68639, "pitch": 91, "duration": 60, "velocity": 112}, {"time": 69121, "pitch": 93, "duration": 100, "velocity": 112}, {"time": 69603, "pitch": 95, "duration": 69, "velocity": 103}, {"time": 75363, "pitch": 86, "duration": 30, "velocity": 114}, {"time": 75837, "pitch": 74, "duration": 70, "velocity": 120}, {"time": 98404, "pitch": 88, "duration": 49, "velocity": 98}, {"time": 98878, "pitch": 90, "duration": 50, "velocity": 89}, {"time": 99360, "pitch": 91, "duration": 60, "velocity": 95}, {"time": 99842, "pitch": 98, "duration": 49, "velocity": 91}, {"time": 100316, "pitch": 95, "duration": 50, "velocity": 105}, {"time": 102236, "pitch": 93, "duration": 80, "velocity": 103}, {"time": 103200, "pitch": 96, "duration": 91, "velocity": 98}, {"time": 103682, "pitch": 98, "duration": 69, "velocity": 93}, {"time": 104156, "pitch": 93, "duration": 70, "velocity": 112}, {"time": 106076, "pitch": 100, "duration": 81, "velocity": 105}, {"time": 106558, "pitch": 98, "duration": 71, "velocity": 93}, {"time": 107040, "pitch": 95, "duration": 71, "velocity": 98}, {"time": 107522, "pitch": 91, "duration": 70, "velocity": 105}, {"time": 107996, "pitch": 93, "duration": 81, "velocity": 105}, {"time": 109916, "pitch": 95, "duration": 81, "velocity": 103}, {"time": 110881, "pitch": 95, "duration": 90, "velocity": 100}, {"time": 111363, "pitch": 98, "duration": 79, "velocity": 91}, {"time": 111836, "pitch": 96, "duration": 81, "velocity": 107}, {"time": 113757, "pitch": 108, "duration": 30, "velocity": 84}, {"time": 113787, "pitch": 107, "duration": 30, "velocity": 64}, {"time": 113817, "pitch": 106, "duration": 30, "velocity": 70}, {"time": 113847, "pitch": 105, "duration": 30, "velocity": 64}, {"time": 113877, "pitch": 104, "duration": 30, "velocity": 68}, {"time": 113907, "pitch": 103, "duration": 30, "velocity": 63}, {"time": 113937, "pitch": 102, "duration": 30, "velocity": 68}, {"time": 113967, "pitch": 101, "duration": 31, "velocity": 74}, {"time": 113998, "pitch": 100, "duration": 30, "velocity": 53}, {"time": 114028, "pitch": 99, "duration": 30, "velocity": 89}, {"time": 114058, "pitch": 98, "duration": 30, "velocity": 68}, {"time": 114088, "pitch": 97, "duration": 30, "velocity": 81}, {"time": 114118, "pitch": 96, "duration": 30, "velocity": 81}, {"time": 114148, "pitch": 95, "duration": 30, "velocity": 68}, {"time": 114178, "pitch": 94, "duration": 30, "velocity": 81}, {"time": 114208, "pitch": 93, "duration": 31, "velocity": 84}, {"time": 114239, "pitch": 92, "duration": 30, "velocity": 76}, {"time": 114269, "pitch": 91, "duration": 30, "velocity": 84}, {"time": 114299, "pitch": 90, "duration": 30, "velocity": 70}, {"time": 114329, "pitch": 89, "duration": 30, "velocity": 82}, {"time": 114359, "pitch": 88, "duration": 30, "velocity": 81}, {"time": 114389, "pitch": 87, "duration": 30, "velocity": 74}, {"time": 114419, "pitch": 86, "duration": 30, "velocity": 89}, {"time": 114449, "pitch": 85, "duration": 31, "velocity": 76}, {"time": 114480, "pitch": 84, "duration": 30, "velocity": 89}, {"time": 114510, "pitch": 83, "duration": 30, "velocity": 81}, {"time": 114540, "pitch": 82, "duration": 30, "velocity": 68}, {"time": 114570, "pitch": 81, "duration": 30, "velocity": 82}, {"time": 114600, "pitch": 80, "duration": 30, "velocity": 74}, {"time": 114630, "pitch": 79, "duration": 30, "velocity": 81}, {"time": 114660, "pitch": 78, "duration": 31, "velocity": 68}, {"time": 114691, "pitch": 77, "duration": 30, "velocity": 72}, {"time": 114721, "pitch": 76, "duration": 30, "velocity": 89}, {"time": 114751, "pitch": 75, "duration": 30, "velocity": 76}, {"time": 114781, "pitch": 74, "duration": 30, "velocity": 74}, {"time": 114811, "pitch": 73, "duration": 30, "velocity": 72}, {"time": 114841, "pitch": 72, "duration": 30, "velocity": 72}, {"time": 114871, "pitch": 71, "duration": 30, "velocity": 76}, {"time": 114901, "pitch": 70, "duration": 31, "velocity": 60}, {"time": 114932, "pitch": 69, "duration": 30, "velocity": 81}, {"time": 114962, "pitch": 68, "duration": 30, "velocity": 56}, {"time": 114992, "pitch": 67, "duration": 30, "velocity": 68}, {"time": 115022, "pitch": 66, "duration": 30, "velocity": 51}, {"time": 115052, "pitch": 65, "duration": 30, "velocity": 81}, {"time": 115082, "pitch": 64, "duration": 30, "velocity": 81}, {"time": 115112, "pitch": 63, "duration": 30, "velocity": 52}, {"time": 115142, "pitch": 62, "duration": 31, "velocity": 72}, {"time": 115173, "pitch": 61, "duration": 30, "velocity": 60}, {"time": 115203, "pitch": 60, "duration": 29, "velocity": 78}, {"time": 115232, "pitch": 59, "duration": 30, "velocity": 60}, {"time": 115262, "pitch": 58, "duration": 30, "velocity": 51}, {"time": 115292, "pitch": 57, "duration": 29, "velocity": 64}, {"time": 115321, "pitch": 56, "duration": 30, "velocity": 45}, {"time": 115351, "pitch": 55, "duration": 29, "velocity": 39}, {"time": 115380, "pitch": 54, "duration": 30, "velocity": 41}, {"time": 115410, "pitch": 53, "duration": 30, "velocity": 40}, {"time": 115440, "pitch": 52, "duration": 29, "velocity": 45}, {"time": 115469, "pitch": 51, "duration": 30, "velocity": 45}, {"time": 115499, "pitch": 50, "duration": 30, "velocity": 52}, {"time": 115529, "pitch": 49, "duration": 29, "velocity": 41}, {"time": 115558, "pitch": 48, "duration": 30, "velocity": 64}, {"time": 121437, "pitch": 86, "duration": 70, "velocity": 112}, {"time": 121919, "pitch": 90, "duration": 70, "velocity": 105}, {"time": 122401, "pitch": 91, "duration": 60, "velocity": 112}, {"time": 122883, "pitch": 93, "duration": 99, "velocity": 112}, {"time": 123357, "pitch": 95, "duration": 70, "velocity": 103}, {"time": 129117, "pitch": 86, "duration": 30, "velocity": 114}, {"time": 129599, "pitch": 74, "duration": 71, "velocity": 120}, {"time": 144478, "pitch": 88, "duration": 50, "velocity": 98}, {"time": 144960, "pitch": 90, "duration": 50, "velocity": 89}, {"time": 145442, "pitch": 91, "duration": 60, "velocity": 95}, {"time": 145924, "pitch": 98, "duration": 49, "velocity": 91}, {"time": 146398, "pitch": 95, "duration": 50, "velocity": 105}, {"time": 148318, "pitch": 93, "duration": 80, "velocity": 103}, {"time": 149282, "pitch": 96, "duration": 89, "velocity": 98}, {"time": 149756, "pitch": 98, "duration": 70, "velocity": 93}, {"time": 150238, "pitch": 93, "duration": 70, "velocity": 112}, {"time": 152158, "pitch": 100, "duration": 80, "velocity": 105}, {"time": 152640, "pitch": 98, "duration": 70, "velocity": 93}, {"time": 153122, "pitch": 95, "duration": 69, "velocity": 98}, {"time": 153596, "pitch": 91, "duration": 70, "velocity": 105}, {"time": 154078, "pitch": 93, "duration": 81, "velocity": 105}, {"time": 155998, "pitch": 95, "duration": 81, "velocity": 103}, {"time": 156962, "pitch": 95, "duration": 89, "velocity": 100}, {"time": 157436, "pitch": 98, "duration": 81, "velocity": 91}, {"time": 157918, "pitch": 96, "duration": 81, "velocity": 107}, {"time": 159838, "pitch": 108, "duration": 31, "velocity": 84}, {"time": 159869, "pitch": 107, "duration": 30, "velocity": 64}, {"time": 159899, "pitch": 106, "duration": 30, "velocity": 70}, {"time": 159929, "pitch": 105, "duration": 30, "velocity": 64}, {"time": 159959, "pitch": 104, "duration": 30, "velocity": 68}, {"time": 159989, "pitch": 103, "duration": 30, "velocity": 63}, {"time": 160019, "pitch": 102, "duration": 30, "velocity": 68}, {"time": 160049, "pitch": 101, "duration": 30, "velocity": 74}, {"time": 160079, "pitch": 100, "duration": 31, "velocity": 53}, {"time": 160110, "pitch": 99, "duration": 30, "velocity": 89}, {"time": 160140, "pitch": 98, "duration": 30, "velocity": 68}, {"time": 160170, "pitch": 97, "duration": 30, "velocity": 81}, {"time": 160200, "pitch": 96, "duration": 30, "velocity": 81}, {"time": 160230, "pitch": 95, "duration": 30, "velocity": 68}, {"time": 160260, "pitch": 94, "duration": 30, "velocity": 81}, {"time": 160290, "pitch": 93, "duration": 30, "velocity": 84}, {"time": 160320, "pitch": 92, "duration": 31, "velocity": 76}, {"time": 160351, "pitch": 91, "duration": 30, "velocity": 84}, {"time": 160381, "pitch": 90, "duration": 30, "velocity": 70}, {"time": 160411, "pitch": 89, "duration": 30, "velocity": 82}, {"time": 160441, "pitch": 88, "duration": 30, "velocity": 81}, {"time": 160471, "pitch": 87, "duration": 30, "velocity": 74}, {"time": 160501, "pitch": 86, "duration": 30, "velocity": 89}, {"time": 160531, "pitch": 85, "duration": 31, "velocity": 76}, {"time": 160562, "pitch": 84, "duration": 30, "velocity": 89}, {"time": 160592, "pitch": 83, "duration": 30, "velocity": 81}, {"time": 160622, "pitch": 82, "duration": 30, "velocity": 68}, {"time": 160652, "pitch": 81, "duration": 30, "velocity": 82}, {"time": 160682, "pitch": 80, "duration": 30, "velocity": 74}, {"time": 160712, "pitch": 79, "duration": 30, "velocity": 81}, {"time": 160742, "pitch": 78, "duration": 30, "velocity": 68}, {"time": 160772, "pitch": 77, "duration": 31, "velocity": 72}, {"time": 160803, "pitch": 76, "duration": 29, "velocity": 89}, {"time": 160832, "pitch": 75, "duration": 30, "velocity": 76}, {"time": 160862, "pitch": 74, "duration": 29, "velocity": 74}, {"time": 160891, "pitch": 73, "duration": 30, "velocity": 72}, {"time": 160921, "pitch": 72, "duration": 30, "velocity": 72}, {"time": 160951, "pitch": 71, "duration": 29, "velocity": 76}, {"time": 160980, "pitch": 70, "duration": 30, "velocity": 60}, {"time": 161010, "pitch": 69, "duration": 29, "velocity": 81}, {"time": 161039, "pitch": 68, "duration": 30, "velocity": 56}, {"time": 161069, "pitch": 67, "duration": 30, "velocity": 68}, {"time": 161099, "pitch": 66, "duration": 29, "velocity": 51}, {"time": 161128, "pitch": 65, "duration": 30, "velocity": 81}, {"time": 161158, "pitch": 64, "duration": 30, "velocity": 81}, {"time": 161188, "pitch": 63, "duration": 29, "velocity": 52}, {"time": 161217, "pitch": 62, "duration": 30, "velocity": 72}, {"time": 161247, "pitch": 61, "duration": 29, "velocity": 60}, {"time": 161276, "pitch": 60, "duration": 31, "velocity": 78}, {"time": 161307, "pitch": 59, "duration": 30, "velocity": 60}, {"time": 161337, "pitch": 58, "duration": 30, "velocity": 51}, {"time": 161367, "pitch": 57, "duration": 30, "velocity": 64}, {"time": 161397, "pitch": 56, "duration": 30, "velocity": 45}, {"time": 161427, "pitch": 55, "duration": 30, "velocity": 39}, {"time": 161457, "pitch": 54, "duration": 30, "velocity": 41}, {"time": 161487, "pitch": 53, "duration": 30, "velocity": 40}, {"time": 161517, "pitch": 52, "duration": 31, "velocity": 45}, {"time": 161548, "pitch": 51, "duration": 30, "velocity": 45}, {"time": 161578, "pitch": 50, "duration": 30, "velocity": 52}, {"time": 161608, "pitch": 49, "duration": 30, "velocity": 41}, {"time": 161638, "pitch": 48, "duration": 30, "velocity": 64}, {"time": 167519, "pitch": 86, "duration": 70, "velocity": 112}, {"time": 168001, "pitch": 90, "duration": 70, "velocity": 105}, {"time": 168483, "pitch": 91, "duration": 59, "velocity": 112}, {"time": 168957, "pitch": 93, "duration": 100, "velocity": 112}, {"time": 169439, "pitch": 95, "duration": 70, "velocity": 103}, {"time": 175199, "pitch": 96, "duration": 30, "velocity": 114}, {"time": 175681, "pitch": 95, "duration": 60, "velocity": 106}, {"time": 176163, "pitch": 91, "duration": 59, "velocity": 106}, {"time": 176637, "pitch": 93, "duration": 60, "velocity": 106}, {"time": 182879, "pitch": 86, "duration": 71, "velocity": 112}, {"time": 183361, "pitch": 90, "duration": 71, "velocity": 105}, {"time": 183843, "pitch": 91, "duration": 60, "velocity": 112}, {"time": 184317, "pitch": 93, "duration": 101, "velocity": 112}, {"time": 184799, "pitch": 95, "duration": 71, "velocity": 103}, {"time": 190560, "pitch": 86, "duration": 30, "velocity": 114}, {"time": 191042, "pitch": 74, "duration": 70, "velocity": 120}], "annotations": [{"time": 292, "annotation": {"number": 7, "value": 70}, "group": "control_change"}, {"time": 313, "annotation": {"number": 11, "value": 100}, "group": "control_change"}, {"time": 334, "annotation": {"number": 10, "value": 45}, "group": "control_change"}, {"time": 355, "annotation": {"number": 91, "value": 40}, "group": "control_change"}, {"time": 376, "annotation": {"number": 93, "value": 0}, "group": "control_change"}, {"time": 397, "annotation": {"number": 101, "value": 0}, "group": "control_change"}, {"time": 417, "annotation": {"number": 100, "value": 0}, "group": "control_change"}, {"time": 438, "annotation": {"number": 6, "value": 12}, "group": "control_change"}, {"time": 459, "annotation": {"number": 101, "value": 127}, "group": "control_change"}, {"time": 480, "annotation": {"number": 100, "value": 127}, "group": "control_change"}, {"time": 60002, "annotation": {"number": 10, "value": 127}, "group": "control_change"}, {"time": 60012, "annotation": {"number": 10, "value": 126}, "group": "control_change"}, {"time": 60022, "annotation": {"number": 10, "value": 125}, "group": "control_change"}, {"time": 60032, "annotation": {"number": 10, "value": 123}, "group": "control_change"}, {"time": 60042, "annotation": {"number": 10, "value": 123}, "group": "control_change"}, {"time": 60062, "annotation": {"number": 10, "value": 122}, "group": "control_change"}, {"time": 60072, "annotation": {"number": 10, "value": 121}, "group": "control_change"}, {"time": 60081, "annotation": {"number": 10, "value": 120}, "group": "control_change"}, {"time": 60091, "annotation": {"number": 10, "value": 119}, "group": "control_change"}, {"time": 60111, "annotation": {"number": 10, "value": 118}, "group": "control_change"}, {"time": 60121, "annotation": {"number": 10, "value": 117}, "group": "control_change"}, {"time": 60131, "annotation": {"number": 10, "value": 116}, "group": "control_change"}, {"time": 60141, "annotation": {"number": 10, "value": 115}, "group": "control_change"}, {"time": 60151, "annotation": {"number": 10, "value": 114}, "group": "control_change"}, {"time": 60170, "annotation": {"number": 10, "value": 113}, "group": "control_change"}, {"time": 60180, "annotation": {"number": 10, "value": 112}, "group": "control_change"}, {"time": 60190, "annotation": {"number": 10, "value": 111}, "group": "control_change"}, {"time": 60200, "annotation": {"number": 10, "value": 110}, "group": "control_change"}, {"time": 60220, "annotation": {"number": 10, "value": 109}, "group": "control_change"}, {"time": 60230, "annotation": {"number": 10, "value": 108}, "group": "control_change"}, {"time": 60239, "annotation": {"number": 10, "value": 107}, "group": "control_change"}, {"time": 60249, "annotation": {"number": 10, "value": 106}, "group": "control_change"}, {"time": 60269, "annotation": {"number": 10, "value": 105}, "group": "control_change"}, {"time": 60279, "annotation": {"number": 10, "value": 104}, "group": "control_change"}, {"time": 60289, "annotation": {"number": 10, "value": 103}, "group": "control_change"}, {"time": 60299, "annotation": {"number": 10, "value": 102}, "group": "control_change"}, {"time": 60309, "annotation": {"number": 10, "value": 101}, "group": "control_change"}, {"time": 60328, "annotation": {"number": 10, "value": 100}, "group": "control_change"}, {"time": 60338, "annotation": {"number": 10, "value": 99}, "group": "control_change"}, {"time": 60348, "annotation": {"number": 10, "value": 98}, "group": "control_change"}, {"time": 60358, "annotation": {"number": 10, "value": 97}, "group": "control_change"}, {"time": 60378, "annotation": {"number": 10, "value": 96}, "group": "control_change"}, {"time": 60388, "annotation": {"number": 10, "value": 95}, "group": "control_change"}, {"time": 60397, "annotation": {"number": 10, "value": 94}, "group": "control_change"}, {"time": 60407, "annotation": {"number": 10, "value": 93}, "group": "control_change"}, {"time": 60427, "annotation": {"number": 10, "value": 92}, "group": "control_change"}, {"time": 60437, "annotation": {"number": 10, "value": 91}, "group": "control_change"}, {"time": 60447, "annotation": {"number": 10, "value": 90}, "group": "control_change"}, {"time": 60457, "annotation": {"number": 10, "value": 89}, "group": "control_change"}, {"time": 60467, "annotation": {"number": 10, "value": 88}, "group": "control_change"}, {"time": 60486, "annotation": {"number": 10, "value": 87}, "group": "control_change"}, {"time": 60496, "annotation": {"number": 10, "value": 86}, "group": "control_change"}, {"time": 60506, "annotation": {"number": 10, "value": 85}, "group": "control_change"}, {"time": 60517, "annotation": {"number": 10, "value": 84}, "group": "control_change"}, {"time": 60537, "annotation": {"number": 10, "value": 83}, "group": "control_change"}, {"time": 60547, "annotation": {"number": 10, "value": 82}, "group": "control_change"}, {"time": 60557, "annotation": {"number": 10, "value": 81}, "group": "control_change"}, {"time": 60567, "annotation": {"number": 10, "value": 80}, "group": "control_change"}, {"time": 60577, "annotation": {"number": 10, "value": 79}, "group": "control_change"}, {"time": 60597, "annotation": {"number": 10, "value": 78}, "group": "control_change"}, {"time": 60607, "annotation": {"number": 10, "value": 77}, "group": "control_change"}, {"time": 60617, "annotation": {"number": 10, "value": 76}, "group": "control_change"}, {"time": 60627, "annotation": {"number": 10, "value": 75}, "group": "control_change"}, {"time": 60647, "annotation": {"number": 10, "value": 74}, "group": "control_change"}, {"time": 60657, "annotation": {"number": 10, "value": 73}, "group": "control_change"}, {"time": 60667, "annotation": {"number": 10, "value": 72}, "group": "control_change"}, {"time": 60677, "annotation": {"number": 10, "value": 71}, "group": "control_change"}, {"time": 60697, "annotation": {"number": 10, "value": 70}, "group": "control_change"}, {"time": 60707, "annotation": {"number": 10, "value": 69}, "group": "control_change"}, {"time": 60717, "annotation": {"number": 10, "value": 68}, "group": "control_change"}, {"time": 60727, "annotation": {"number": 10, "value": 67}, "group": "control_change"}, {"time": 60737, "annotation": {"number": 10, "value": 66}, "group": "control_change"}, {"time": 60758, "annotation": {"number": 10, "value": 65}, "group": "control_change"}, {"time": 60768, "annotation": {"number": 10, "value": 64}, "group": "control_change"}, {"time": 60778, "annotation": {"number": 10, "value": 63}, "group": "control_change"}, {"time": 60788, "annotation": {"number": 10, "value": 62}, "group": "control_change"}, {"time": 60808, "annotation": {"number": 10, "value": 61}, "group": "control_change"}, {"time": 60818, "annotation": {"number": 10, "value": 60}, "group": "control_change"}, {"time": 60828, "annotation": {"number": 10, "value": 59}, "group": "control_change"}, {"time": 60838, "annotation": {"number": 10, "value": 58}, "group": "control_change"}, {"time": 60848, "annotation": {"number": 10, "value": 57}, "group": "control_change"}, {"time": 60868, "annotation": {"number": 10, "value": 56}, "group": "control_change"}, {"time": 60878, "annotation": {"number": 10, "value": 55}, "group": "control_change"}, {"time": 60888, "annotation": {"number": 10, "value": 54}, "group": "control_change"}, {"time": 60898, "annotation": {"number": 10, "value": 53}, "group": "control_change"}, {"time": 60918, "annotation": {"number": 10, "value": 52}, "group": "control_change"}, {"time": 60928, "annotation": {"number": 10, "value": 51}, "group": "control_change"}, {"time": 60938, "annotation": {"number": 10, "value": 50}, "group": "control_change"}, {"time": 60948, "annotation": {"number": 10, "value": 49}, "group": "control_change"}, {"time": 60968, "annotation": {"number": 10, "value": 48}, "group": "control_change"}, {"time": 60979, "annotation": {"number": 10, "value": 47}, "group": "control_change"}, {"time": 60989, "annotation": {"number": 10, "value": 46}, "group": "control_change"}, {"time": 60999, "annotation": {"number": 10, "value": 45}, "group": "control_change"}, {"time": 61009, "annotation": {"number": 10, "value": 44}, "group": "control_change"}, {"time": 61029, "annotation": {"number": 10, "value": 43}, "group": "control_change"}, {"time": 61039, "annotation": {"number": 10, "value": 42}, "group": "control_change"}, {"time": 61049, "annotation": {"number": 10, "value": 41}, "group": "control_change"}, {"time": 61059, "annotation": {"number": 10, "value": 40}, "group": "control_change"}, {"time": 61079, "annotation": {"number": 10, "value": 39}, "group": "control_change"}, {"time": 61089, "annotation": {"number": 10, "value": 38}, "group": "control_change"}, {"time": 61099, "annotation": {"number": 10, "value": 37}, "group": "control_change"}, {"time": 61109, "annotation": {"number": 10, "value": 36}, "group": "control_change"}, {"time": 61129, "annotation": {"number": 10, "value": 35}, "group": "control_change"}, {"time": 61139, "annotation": {"number": 10, "value": 34}, "group": "control_change"}, {"time": 61149, "annotation": {"number": 10, "value": 33}, "group": "control_change"}, {"time": 61159, "annotation": {"number": 10, "value": 32}, "group": "control_change"}, {"time": 61169, "annotation": {"number": 10, "value": 31}, "group": "control_change"}, {"time": 61189, "annotation": {"number": 10, "value": 30}, "group": "control_change"}, {"time": 61199, "annotation": {"number": 10, "value": 29}, "group": "control_change"}, {"time": 61210, "annotation": {"number": 10, "value": 28}, "group": "control_change"}, {"time": 61220, "annotation": {"number": 10, "value": 27}, "group": "control_change"}, {"time": 61240, "annotation": {"number": 10, "value": 26}, "group": "control_change"}, {"time": 61250, "annotation": {"number": 10, "value": 25}, "group": "control_change"}, {"time": 61260, "annotation": {"number": 10, "value": 24}, "group": "control_change"}, {"time": 61270, "annotation": {"number": 10, "value": 23}, "group": "control_change"}, {"time": 61280, "annotation": {"number": 10, "value": 22}, "group": "control_change"}, {"time": 61300, "annotation": {"number": 10, "value": 21}, "group": "control_change"}, {"time": 61310, "annotation": {"number": 10, "value": 20}, "group": "control_change"}, {"time": 61320, "annotation": {"number": 10, "value": 19}, "group": "control_change"}, {"time": 61330, "annotation": {"number": 10, "value": 18}, "group": "control_change"}, {"time": 61350, "annotation": {"number": 10, "value": 17}, "group": "control_change"}, {"time": 61360, "annotation": {"number": 10, "value": 16}, "group": "control_change"}, {"time": 61370, "annotation": {"number": 10, "value": 15}, "group": "control_change"}, {"time": 61380, "annotation": {"number": 10, "value": 14}, "group": "control_change"}, {"time": 61400, "annotation": {"number": 10, "value": 13}, "group": "control_change"}, {"time": 61410, "annotation": {"number": 10, "value": 12}, "group": "control_change"}, {"time": 61420, "annotation": {"number": 10, "value": 11}, "group": "control_change"}, {"time": 61430, "annotation": {"number": 10, "value": 10}, "group": "control_change"}, {"time": 61441, "annotation": {"number": 10, "value": 9}, "group": "control_change"}, {"time": 61461, "annotation": {"number": 10, "value": 8}, "group": "control_change"}, {"time": 61471, "annotation": {"number": 10, "value": 7}, "group": "control_change"}, {"time": 61481, "annotation": {"number": 10, "value": 6}, "group": "control_change"}, {"time": 61491, "annotation": {"number": 10, "value": 5}, "group": "control_change"}, {"time": 61511, "annotation": {"number": 10, "value": 4}, "group": "control_change"}, {"time": 61521, "annotation": {"number": 10, "value": 3}, "group": "control_change"}, {"time": 61531, "annotation": {"number": 10, "value": 2}, "group": "control_change"}, {"time": 61541, "annotation": {"number": 10, "value": 1}, "group": "control_change"}, {"time": 61561, "annotation": {"number": 10, "value": 0}, "group": "control_change"}, {"time": 66237, "annotation": {"number": 10, "value": 67}, "group": "control_change"}, {"time": 75363, "annotation": {"number": 10, "value": 64}, "group": "control_change"}, {"time": 113757, "annotation": {"number": 10, "value": 127}, "group": "control_change"}, {"time": 113767, "annotation": {"number": 10, "value": 126}, "group": "control_change"}, {"time": 113777, "annotation": {"number": 10, "value": 125}, "group": "control_change"}, {"time": 113787, "annotation": {"number": 10, "value": 123}, "group": "control_change"}, {"time": 113797, "annotation": {"number": 10, "value": 123}, "group": "control_change"}, {"time": 113817, "annotation": {"number": 10, "value": 122}, "group": "control_change"}, {"time": 113827, "annotation": {"number": 10, "value": 121}, "group": "control_change"}, {"time": 113837, "annotation": {"number": 10, "value": 120}, "group": "control_change"}, {"time": 113847, "annotation": {"number": 10, "value": 119}, "group": "control_change"}, {"time": 113867, "annotation": {"number": 10, "value": 118}, "group": "control_change"}, {"time": 113877, "annotation": {"number": 10, "value": 117}, "group": "control_change"}, {"time": 113887, "annotation": {"number": 10, "value": 116}, "group": "control_change"}, {"time": 113897, "annotation": {"number": 10, "value": 115}, "group": "control_change"}, {"time": 113907, "annotation": {"number": 10, "value": 114}, "group": "control_change"}, {"time": 113927, "annotation": {"number": 10, "value": 113}, "group": "control_change"}, {"time": 113937, "annotation": {"number": 10, "value": 112}, "group": "control_change"}, {"time": 113947, "annotation": {"number": 10, "value": 111}, "group": "control_change"}, {"time": 113957, "annotation": {"number": 10, "value": 110}, "group": "control_change"}, {"time": 113977, "annotation": {"number": 10, "value": 109}, "group": "control_change"}, {"time": 113987, "annotation": {"number": 10, "value": 108}, "group": "control_change"}, {"time": 113998, "annotation": {"number": 10, "value": 107}, "group": "control_change"}, {"time": 114008, "annotation": {"number": 10, "value": 106}, "group": "control_change"}, {"time": 114028, "annotation": {"number": 10, "value": 105}, "group": "control_change"}, {"time": 114038, "annotation": {"number": 10, "value": 104}, "group": "control_change"}, {"time": 114048, "annotation": {"number": 10, "value": 103}, "group": "control_change"}, {"time": 114058, "annotation": {"number": 10, "value": 102}, "group": "control_change"}, {"time": 114068, "annotation": {"number": 10, "value": 101}, "group": "control_change"}, {"time": 114088, "annotation": {"number": 10, "value": 100}, "group": "control_change"}, {"time": 114098, "annotation": {"number": 10, "value": 99}, "group": "control_change"}, {"time": 114108, "annotation": {"number": 10, "value": 98}, "group": "control_change"}, {"time": 114118, "annotation": {"number": 10, "value": 97}, "group": "control_change"}, {"time": 114138, "annotation": {"number": 10, "value": 96}, "group": "control_change"}, {"time": 114148, "annotation": {"number": 10, "value": 95}, "group": "control_change"}, {"time": 114158, "annotation": {"number": 10, "value": 94}, "group": "control_change"}, {"time": 114168, "annotation": {"number": 10, "value": 93}, "group": "control_change"}, {"time": 114188, "annotation": {"number": 10, "value": 92}, "group": "control_change"}, {"time": 114198, "annotation": {"number": 10, "value": 91}, "group": "control_change"}, {"time": 114208, "annotation": {"number": 10, "value": 90}, "group": "control_change"}, {"time": 114218, "annotation": {"number": 10, "value": 89}, "group": "control_change"}, {"time": 114229, "annotation": {"number": 10, "value": 88}, "group": "control_change"}, {"time": 114249, "annotation": {"number": 10, "value": 87}, "group": "control_change"}, {"time": 114259, "annotation": {"number": 10, "value": 86}, "group": "control_change"}, {"time": 114269, "annotation": {"number": 10, "value": 85}, "group": "control_change"}, {"time": 114279, "annotation": {"number": 10, "value": 84}, "group": "control_change"}, {"time": 114299, "annotation": {"number": 10, "value": 83}, "group": "control_change"}, {"time": 114309, "annotation": {"number": 10, "value": 82}, "group": "control_change"}, {"time": 114319, "annotation": {"number": 10, "value": 81}, "group": "control_change"}, {"time": 114329, "annotation": {"number": 10, "value": 80}, "group": "control_change"}, {"time": 114339, "annotation": {"number": 10, "value": 79}, "group": "control_change"}, {"time": 114359, "annotation": {"number": 10, "value": 78}, "group": "control_change"}, {"time": 114369, "annotation": {"number": 10, "value": 77}, "group": "control_change"}, {"time": 114379, "annotation": {"number": 10, "value": 76}, "group": "control_change"}, {"time": 114389, "annotation": {"number": 10, "value": 75}, "group": "control_change"}, {"time": 114409, "annotation": {"number": 10, "value": 74}, "group": "control_change"}, {"time": 114419, "annotation": {"number": 10, "value": 73}, "group": "control_change"}, {"time": 114429, "annotation": {"number": 10, "value": 72}, "group": "control_change"}, {"time": 114439, "annotation": {"number": 10, "value": 71}, "group": "control_change"}, {"time": 114460, "annotation": {"number": 10, "value": 70}, "group": "control_change"}, {"time": 114470, "annotation": {"number": 10, "value": 69}, "group": "control_change"}, {"time": 114480, "annotation": {"number": 10, "value": 68}, "group": "control_change"}, {"time": 114490, "annotation": {"number": 10, "value": 67}, "group": "control_change"}, {"time": 114500, "annotation": {"number": 10, "value": 66}, "group": "control_change"}, {"time": 114520, "annotation": {"number": 10, "value": 65}, "group": "control_change"}, {"time": 114530, "annotation": {"number": 10, "value": 64}, "group": "control_change"}, {"time": 114540, "annotation": {"number": 10, "value": 63}, "group": "control_change"}, {"time": 114550, "annotation": {"number": 10, "value": 62}, "group": "control_change"}, {"time": 114570, "annotation": {"number": 10, "value": 61}, "group": "control_change"}, {"time": 114580, "annotation": {"number": 10, "value": 60}, "group": "control_change"}, {"time": 114590, "annotation": {"number": 10, "value": 59}, "group": "control_change"}, {"time": 114600, "annotation": {"number": 10, "value": 58}, "group": "control_change"}, {"time": 114610, "annotation": {"number": 10, "value": 57}, "group": "control_change"}, {"time": 114630, "annotation": {"number": 10, "value": 56}, "group": "control_change"}, {"time": 114640, "annotation": {"number": 10, "value": 55}, "group": "control_change"}, {"time": 114650, "annotation": {"number": 10, "value": 54}, "group": "control_change"}, {"time": 114660, "annotation": {"number": 10, "value": 53}, "group": "control_change"}, {"time": 114680, "annotation": {"number": 10, "value": 52}, "group": "control_change"}, {"time": 114691, "annotation": {"number": 10, "value": 51}, "group": "control_change"}, {"time": 114701, "annotation": {"number": 10, "value": 50}, "group": "control_change"}, {"time": 114711, "annotation": {"number": 10, "value": 49}, "group": "control_change"}, {"time": 114731, "annotation": {"number": 10, "value": 48}, "group": "control_change"}, {"time": 114741, "annotation": {"number": 10, "value": 47}, "group": "control_change"}, {"time": 114751, "annotation": {"number": 10, "value": 46}, "group": "control_change"}, {"time": 114761, "annotation": {"number": 10, "value": 45}, "group": "control_change"}, {"time": 114771, "annotation": {"number": 10, "value": 44}, "group": "control_change"}, {"time": 114791, "annotation": {"number": 10, "value": 43}, "group": "control_change"}, {"time": 114801, "annotation": {"number": 10, "value": 42}, "group": "control_change"}, {"time": 114811, "annotation": {"number": 10, "value": 41}, "group": "control_change"}, {"time": 114821, "annotation": {"number": 10, "value": 40}, "group": "control_change"}, {"time": 114841, "annotation": {"number": 10, "value": 39}, "group": "control_change"}, {"time": 114851, "annotation": {"number": 10, "value": 38}, "group": "control_change"}, {"time": 114861, "annotation": {"number": 10, "value": 37}, "group": "control_change"}, {"time": 114871, "annotation": {"number": 10, "value": 36}, "group": "control_change"}, {"time": 114891, "annotation": {"number": 10, "value": 35}, "group": "control_change"}, {"time": 114901, "annotation": {"number": 10, "value": 34}, "group": "control_change"}, {"time": 114911, "annotation": {"number": 10, "value": 33}, "group": "control_change"}, {"time": 114922, "annotation": {"number": 10, "value": 32}, "group": "control_change"}, {"time": 114932, "annotation": {"number": 10, "value": 31}, "group": "control_change"}, {"time": 114952, "annotation": {"number": 10, "value": 30}, "group": "control_change"}, {"time": 114962, "annotation": {"number": 10, "value": 29}, "group": "control_change"}, {"time": 114972, "annotation": {"number": 10, "value": 28}, "group": "control_change"}, {"time": 114982, "annotation": {"number": 10, "value": 27}, "group": "control_change"}, {"time": 115002, "annotation": {"number": 10, "value": 26}, "group": "control_change"}, {"time": 115012, "annotation": {"number": 10, "value": 25}, "group": "control_change"}, {"time": 115022, "annotation": {"number": 10, "value": 24}, "group": "control_change"}, {"time": 115032, "annotation": {"number": 10, "value": 23}, "group": "control_change"}, {"time": 115042, "annotation": {"number": 10, "value": 22}, "group": "control_change"}, {"time": 115062, "annotation": {"number": 10, "value": 21}, "group": "control_change"}, {"time": 115072, "annotation": {"number": 10, "value": 20}, "group": "control_change"}, {"time": 115082, "annotation": {"number": 10, "value": 19}, "group": "control_change"}, {"time": 115092, "annotation": {"number": 10, "value": 18}, "group": "control_change"}, {"time": 115112, "annotation": {"number": 10, "value": 17}, "group": "control_change"}, {"time": 115122, "annotation": {"number": 10, "value": 16}, "group": "control_change"}, {"time": 115132, "annotation": {"number": 10, "value": 15}, "group": "control_change"}, {"time": 115142, "annotation": {"number": 10, "value": 14}, "group": "control_change"}, {"time": 115163, "annotation": {"number": 10, "value": 13}, "group": "control_change"}, {"time": 115173, "annotation": {"number": 10, "value": 12}, "group": "control_change"}, {"time": 115183, "annotation": {"number": 10, "value": 11}, "group": "control_change"}, {"time": 115193, "annotation": {"number": 10, "value": 10}, "group": "control_change"}, {"time": 115203, "annotation": {"number": 10, "value": 9}, "group": "control_change"}, {"time": 115222, "annotation": {"number": 10, "value": 8}, "group": "control_change"}, {"time": 115232, "annotation": {"number": 10, "value": 7}, "group": "control_change"}, {"time": 115242, "annotation": {"number": 10, "value": 6}, "group": "control_change"}, {"time": 115252, "annotation": {"number": 10, "value": 5}, "group": "control_change"}, {"time": 115272, "annotation": {"number": 10, "value": 4}, "group": "control_change"}, {"time": 115282, "annotation": {"number": 10, "value": 3}, "group": "control_change"}, {"time": 115292, "annotation": {"number": 10, "value": 2}, "group": "control_change"}, {"time": 115301, "annotation": {"number": 10, "value": 1}, "group": "control_change"}, {"time": 115321, "annotation": {"number": 10, "value": 0}, "group": "control_change"}, {"time": 119280, "annotation": {"number": 10, "value": 65}, "group": "control_change"}, {"time": 129117, "annotation": {"number": 10, "value": 64}, "group": "control_change"}, {"time": 159838, "annotation": {"number": 10, "value": 127}, "group": "control_change"}, {"time": 159848, "annotation": {"number": 10, "value": 126}, "group": "control_change"}, {"time": 159858, "annotation": {"number": 10, "value": 125}, "group": "control_change"}, {"time": 159869, "annotation": {"number": 10, "value": 123}, "group": "control_change"}, {"time": 159879, "annotation": {"number": 10, "value": 123}, "group": "control_change"}, {"time": 159899, "annotation": {"number": 10, "value": 122}, "group": "control_change"}, {"time": 159909, "annotation": {"number": 10, "value": 121}, "group": "control_change"}, {"time": 159919, "annotation": {"number": 10, "value": 120}, "group": "control_change"}, {"time": 159929, "annotation": {"number": 10, "value": 119}, "group": "control_change"}, {"time": 159949, "annotation": {"number": 10, "value": 118}, "group": "control_change"}, {"time": 159959, "annotation": {"number": 10, "value": 117}, "group": "control_change"}, {"time": 159969, "annotation": {"number": 10, "value": 116}, "group": "control_change"}, {"time": 159979, "annotation": {"number": 10, "value": 115}, "group": "control_change"}, {"time": 159989, "annotation": {"number": 10, "value": 114}, "group": "control_change"}, {"time": 160009, "annotation": {"number": 10, "value": 113}, "group": "control_change"}, {"time": 160019, "annotation": {"number": 10, "value": 112}, "group": "control_change"}, {"time": 160029, "annotation": {"number": 10, "value": 111}, "group": "control_change"}, {"time": 160039, "annotation": {"number": 10, "value": 110}, "group": "control_change"}, {"time": 160059, "annotation": {"number": 10, "value": 109}, "group": "control_change"}, {"time": 160069, "annotation": {"number": 10, "value": 108}, "group": "control_change"}, {"time": 160079, "annotation": {"number": 10, "value": 107}, "group": "control_change"}, {"time": 160089, "annotation": {"number": 10, "value": 106}, "group": "control_change"}, {"time": 160110, "annotation": {"number": 10, "value": 105}, "group": "control_change"}, {"time": 160120, "annotation": {"number": 10, "value": 104}, "group": "control_change"}, {"time": 160130, "annotation": {"number": 10, "value": 103}, "group": "control_change"}, {"time": 160140, "annotation": {"number": 10, "value": 102}, "group": "control_change"}, {"time": 160150, "annotation": {"number": 10, "value": 101}, "group": "control_change"}, {"time": 160170, "annotation": {"number": 10, "value": 100}, "group": "control_change"}, {"time": 160180, "annotation": {"number": 10, "value": 99}, "group": "control_change"}, {"time": 160190, "annotation": {"number": 10, "value": 98}, "group": "control_change"}, {"time": 160200, "annotation": {"number": 10, "value": 97}, "group": "control_change"}, {"time": 160220, "annotation": {"number": 10, "value": 96}, "group": "control_change"}, {"time": 160230, "annotation": {"number": 10, "value": 95}, "group": "control_change"}, {"time": 160240, "annotation": {"number": 10, "value": 94}, "group": "control_change"}, {"time": 160250, "annotation": {"number": 10, "value": 93}, "group": "control_change"}, {"time": 160270, "annotation": {"number": 10, "value": 92}, "group": "control_change"}, {"time": 160280, "annotation": {"number": 10, "value": 91}, "group": "control_change"}, {"time": 160290, "annotation": {"number": 10, "value": 90}, "group": "control_change"}, {"time": 160300, "annotation": {"number": 10, "value": 89}, "group": "control_change"}, {"time": 160310, "annotation": {"number": 10, "value": 88}, "group": "control_change"}, {"time": 160331, "annotation": {"number": 10, "value": 87}, "group": "control_change"}, {"time": 160341, "annotation": {"number": 10, "value": 86}, "group": "control_change"}, {"time": 160351, "annotation": {"number": 10, "value": 85}, "group": "control_change"}, {"time": 160361, "annotation": {"number": 10, "value": 84}, "group": "control_change"}, {"time": 160381, "annotation": {"number": 10, "value": 83}, "group": "control_change"}, {"time": 160391, "annotation": {"number": 10, "value": 82}, "group": "control_change"}, {"time": 160401, "annotation": {"number": 10, "value": 81}, "group": "control_change"}, {"time": 160411, "annotation": {"number": 10, "value": 80}, "group": "control_change"}, {"time": 160421, "annotation": {"number": 10, "value": 79}, "group": "control_change"}, {"time": 160441, "annotation": {"number": 10, "value": 78}, "group": "control_change"}, {"time": 160451, "annotation": {"number": 10, "value": 77}, "group": "control_change"}, {"time": 160461, "annotation": {"number": 10, "value": 76}, "group": "control_change"}, {"time": 160471, "annotation": {"number": 10, "value": 75}, "group": "control_change"}, {"time": 160491, "annotation": {"number": 10, "value": 74}, "group": "control_change"}, {"time": 160501, "annotation": {"number": 10, "value": 73}, "group": "control_change"}, {"time": 160511, "annotation": {"number": 10, "value": 72}, "group": "control_change"}, {"time": 160521, "annotation": {"number": 10, "value": 71}, "group": "control_change"}, {"time": 160541, "annotation": {"number": 10, "value": 70}, "group": "control_change"}, {"time": 160551, "annotation": {"number": 10, "value": 69}, "group": "control_change"}, {"time": 160562, "annotation": {"number": 10, "value": 68}, "group": "control_change"}, {"time": 160572, "annotation": {"number": 10, "value": 67}, "group": "control_change"}, {"time": 160582, "annotation": {"number": 10, "value": 66}, "group": "control_change"}, {"time": 160602, "annotation": {"number": 10, "value": 65}, "group": "control_change"}, {"time": 160612, "annotation": {"number": 10, "value": 64}, "group": "control_change"}, {"time": 160622, "annotation": {"number": 10, "value": 63}, "group": "control_change"}, {"time": 160632, "annotation": {"number": 10, "value": 62}, "group": "control_change"}, {"time": 160652, "annotation": {"number": 10, "value": 61}, "group": "control_change"}, {"time": 160662, "annotation": {"number": 10, "value": 60}, "group": "control_change"}, {"time": 160672, "annotation": {"number": 10, "value": 59}, "group": "control_change"}, {"time": 160682, "annotation": {"number": 10, "value": 58}, "group": "control_change"}, {"time": 160692, "annotation": {"number": 10, "value": 57}, "group": "control_change"}, {"time": 160712, "annotation": {"number": 10, "value": 56}, "group": "control_change"}, {"time": 160722, "annotation": {"number": 10, "value": 55}, "group": "control_change"}, {"time": 160732, "annotation": {"number": 10, "value": 54}, "group": "control_change"}, {"time": 160742, "annotation": {"number": 10, "value": 53}, "group": "control_change"}, {"time": 160762, "annotation": {"number": 10, "value": 52}, "group": "control_change"}, {"time": 160772, "annotation": {"number": 10, "value": 51}, "group": "control_change"}, {"time": 160782, "annotation": {"number": 10, "value": 50}, "group": "control_change"}, {"time": 160793, "annotation": {"number": 10, "value": 49}, "group": "control_change"}, {"time": 160812, "annotation": {"number": 10, "value": 48}, "group": "control_change"}, {"time": 160822, "annotation": {"number": 10, "value": 47}, "group": "control_change"}, {"time": 160832, "annotation": {"number": 10, "value": 46}, "group": "control_change"}, {"time": 160842, "annotation": {"number": 10, "value": 45}, "group": "control_change"}, {"time": 160852, "annotation": {"number": 10, "value": 44}, "group": "control_change"}, {"time": 160872, "annotation": {"number": 10, "value": 43}, "group": "control_change"}, {"time": 160882, "annotation": {"number": 10, "value": 42}, "group": "control_change"}, {"time": 160891, "annotation": {"number": 10, "value": 41}, "group": "control_change"}, {"time": 160901, "annotation": {"number": 10, "value": 40}, "group": "control_change"}, {"time": 160921, "annotation": {"number": 10, "value": 39}, "group": "control_change"}, {"time": 160931, "annotation": {"number": 10, "value": 38}, "group": "control_change"}, {"time": 160941, "annotation": {"number": 10, "value": 37}, "group": "control_change"}, {"time": 160951, "annotation": {"number": 10, "value": 36}, "group": "control_change"}, {"time": 160970, "annotation": {"number": 10, "value": 35}, "group": "control_change"}, {"time": 160980, "annotation": {"number": 10, "value": 34}, "group": "control_change"}, {"time": 160990, "annotation": {"number": 10, "value": 33}, "group": "control_change"}, {"time": 161000, "annotation": {"number": 10, "value": 32}, "group": "control_change"}, {"time": 161010, "annotation": {"number": 10, "value": 31}, "group": "control_change"}, {"time": 161030, "annotation": {"number": 10, "value": 30}, "group": "control_change"}, {"time": 161039, "annotation": {"number": 10, "value": 29}, "group": "control_change"}, {"time": 161049, "annotation": {"number": 10, "value": 28}, "group": "control_change"}, {"time": 161059, "annotation": {"number": 10, "value": 27}, "group": "control_change"}, {"time": 161079, "annotation": {"number": 10, "value": 26}, "group": "control_change"}, {"time": 161089, "annotation": {"number": 10, "value": 25}, "group": "control_change"}, {"time": 161099, "annotation": {"number": 10, "value": 24}, "group": "control_change"}, {"time": 161109, "annotation": {"number": 10, "value": 23}, "group": "control_change"}, {"time": 161118, "annotation": {"number": 10, "value": 22}, "group": "control_change"}, {"time": 161138, "annotation": {"number": 10, "value": 21}, "group": "control_change"}, {"time": 161148, "annotation": {"number": 10, "value": 20}, "group": "control_change"}, {"time": 161158, "annotation": {"number": 10, "value": 19}, "group": "control_change"}, {"time": 161168, "annotation": {"number": 10, "value": 18}, "group": "control_change"}, {"time": 161188, "annotation": {"number": 10, "value": 17}, "group": "control_change"}, {"time": 161197, "annotation": {"number": 10, "value": 16}, "group": "control_change"}, {"time": 161207, "annotation": {"number": 10, "value": 15}, "group": "control_change"}, {"time": 161217, "annotation": {"number": 10, "value": 14}, "group": "control_change"}, {"time": 161237, "annotation": {"number": 10, "value": 13}, "group": "control_change"}, {"time": 161247, "annotation": {"number": 10, "value": 12}, "group": "control_change"}, {"time": 161257, "annotation": {"number": 10, "value": 11}, "group": "control_change"}, {"time": 161267, "annotation": {"number": 10, "value": 10}, "group": "control_change"}, {"time": 161276, "annotation": {"number": 10, "value": 9}, "group": "control_change"}, {"time": 161296, "annotation": {"number": 10, "value": 8}, "group": "control_change"}, {"time": 161307, "annotation": {"number": 10, "value": 7}, "group": "control_change"}, {"time": 161317, "annotation": {"number": 10, "value": 6}, "group": "control_change"}, {"time": 161327, "annotation": {"number": 10, "value": 5}, "group": "control_change"}, {"time": 161347, "annotation": {"number": 10, "value": 4}, "group": "control_change"}, {"time": 161357, "annotation": {"number": 10, "value": 3}, "group": "control_change"}, {"time": 161367, "annotation": {"number": 10, "value": 2}, "group": "control_change"}, {"time": 161377, "annotation": {"number": 10, "value": 1}, "group": "control_change"}, {"time": 161397, "annotation": {"number": 10, "value": 0}, "group": "control_change"}, {"time": 165840, "annotation": {"number": 10, "value": 65}, "group": "control_change"}, {"time": 175199, "annotation": {"number": 10, "value": 64}, "group": "control_change"}, {"time": 190560, "annotation": {"number": 10, "value": 64}, "group": "control_change"}]}, {"program": 0, "is_drum": false, "name": "SE", "annotations": [{"time": 230, "annotation": {"number": 0, "value": 3}, "group": "control_change"}, {"time": 250, "annotation": {"number": 32, "value": 0}, "group": "control_change"}]}, {"program": 124, "is_drum": false, "name": "SE", "notes": [{"time": 480, "pitch": 44, "duration": 522, "velocity": 98}, {"time": 8160, "pitch": 44, "duration": 522, "velocity": 95}], "annotations": [{"time": 292, "annotation": {"number": 7, "value": 50}, "group": "control_change"}, {"time": 313, "annotation": {"number": 11, "value": 100}, "group": "control_change"}, {"time": 334, "annotation": {"number": 10, "value": 57}, "group": "control_change"}, {"time": 355, "annotation": {"number": 91, "value": 40}, "group": "control_change"}, {"time": 376, "annotation": {"number": 93, "value": 0}, "group": "control_change"}, {"time": 397, "annotation": {"number": 101, "value": 0}, "group": "control_change"}, {"time": 417, "annotation": {"number": 100, "value": 0}, "group": "control_change"}, {"time": 438, "annotation": {"number": 6, "value": 12}, "group": "control_change"}, {"time": 459, "annotation": {"number": 101, "value": 127}, "group": "control_change"}, {"time": 480, "annotation": {"number": 100, "value": 127}, "group": "control_change"}]}]}