{"metadata": {"schema_version": "0.1", "title": "RWC-MDB-P-2001 No. 14: Karehairo no Twilight / Rin", "copyright": "RWC Music Database. Copyright (C) 2001 Real World Computing Partnership (contact: Masataka GOTO <m.goto@aist.go.jp>)", "source_filename": "RM-P014.SMF_SYNC.MID", "source_format": "midi"}, "resolution": 480, "tempos": [{"time": 0, "qpm": 58.8235294117647}, {"time": 480, "qpm": 88.23529411764706}, {"time": 1440, "qpm": 86.95652173913044}, {"time": 1920, "qpm": 88.23529411764706}, {"time": 4320, "qpm": 86.95652173913044}, {"time": 4800, "qpm": 88.23529411764706}, {"time": 6720, "qpm": 86.95652173913044}, {"time": 7200, "qpm": 88.23529411764706}, {"time": 9120, "qpm": 86.95652173913044}, {"time": 9600, "qpm": 88.23529411764706}, {"time": 12000, "qpm": 86.95652173913044}, {"time": 12480, "qpm": 88.23529411764706}, {"time": 14400, "qpm": 86.95652173913044}, {"time": 14880, "qpm": 88.23529411764706}, {"time": 17280, "qpm": 86.95652173913044}, {"time": 17760, "qpm": 88.23529411764706}, {"time": 20160, "qpm": 86.95652173913044}, {"time": 20640, "qpm": 88.23529411764706}, {"time": 23040, "qpm": 86.95652173913044}, {"time": 23520, "qpm": 88.23529411764706}, {"time": 25440, "qpm": 86.95652173913044}, {"time": 25920, "qpm": 88.23529411764706}, {"time": 27840, "qpm": 86.95652173913044}, {"time": 28320, "qpm": 88.23529411764706}, {"time": 30240, "qpm": 86.95652173913044}, {"time": 30720, "qpm": 88.23529411764706}, {"time": 33120, "qpm": 86.95652173913044}, {"time": 33600, "qpm": 88.23529411764706}, {"time": 36000, "qpm": 86.95652173913044}, {"time": 36480, "qpm": 88.23529411764706}, {"time": 38400, "qpm": 86.95652173913044}, {"time": 38880, "qpm": 88.23529411764706}, {"time": 41280, "qpm": 86.95652173913044}, {"time": 41760, "qpm": 88.23529411764706}, {"time": 44160, "qpm": 86.95652173913044}, {"time": 44640, "qpm": 88.23529411764706}, {"time": 46560, "qpm": 86.95652173913044}, {"time": 47040, "qpm": 88.23529411764706}, {"time": 49440, "qpm": 86.95652173913044}, {"time": 49920, "qpm": 88.23529411764706}, {"time": 51840, "qpm": 86.95652173913044}, {"time": 52320, "qpm": 88.23529411764706}, {"time": 54720, "qpm": 86.95652173913044}, {"time": 55200, "qpm": 88.23529411764706}, {"time": 57120, "qpm": 86.95652173913044}, {"time": 57600, "qpm": 88.23529411764706}, {"time": 60000, "qpm": 86.95652173913044}, {"time": 60480, "qpm": 88.23529411764706}, {"time": 62880, "qpm": 86.95652173913044}, {"time": 63360, "qpm": 88.23529411764706}, {"time": 65280, "qpm": 86.95652173913044}, {"time": 65760, "qpm": 88.23529411764706}, {"time": 67680, "qpm": 86.95652173913044}, {"time": 68160, "qpm": 88.23529411764706}, {"time": 70560, "qpm": 86.95652173913044}, {"time": 71040, "qpm": 88.23529411764706}, {"time": 73440, "qpm": 86.95652173913044}, {"time": 73920, "qpm": 88.23529411764706}, {"time": 76320, "qpm": 86.95652173913044}, {"time": 76800, "qpm": 88.23529411764706}, {"time": 78240, "qpm": 86.95652173913044}, {"time": 78720, "qpm": 88.23529411764706}, {"time": 81120, "qpm": 86.95652173913044}, {"time": 81600, "qpm": 88.23529411764706}, {"time": 84000, "qpm": 86.95652173913044}, {"time": 84480, "qpm": 88.23529411764706}, {"time": 86400, "qpm": 86.95652173913044}, {"time": 86880, "qpm": 88.23529411764706}, {"time": 89280, "qpm": 86.95652173913044}, {"time": 89760, "qpm": 88.23529411764706}, {"time": 91680, "qpm": 86.95652173913044}, {"time": 92160, "qpm": 88.23529411764706}, {"time": 94560, "qpm": 86.95652173913044}, {"time": 95040, "qpm": 88.23529411764706}, {"time": 96960, "qpm": 86.95652173913044}, {"time": 97440, "qpm": 88.23529411764706}, {"time": 99360, "qpm": 86.95652173913044}, {"time": 99840, "qpm": 88.23529411764706}, {"time": 102240, "qpm": 86.95652173913044}, {"time": 102720, "qpm": 88.23529411764706}, {"time": 105120, "qpm": 86.95652173913044}, {"time": 105600, "qpm": 88.23529411764706}, {"time": 107520, "qpm": 86.95652173913044}, {"time": 108000, "qpm": 88.23529411764706}, {"time": 109920, "qpm": 86.95652173913044}, {"time": 110400, "qpm": 89.55223880597015}, {"time": 110880, "qpm": 86.95652173913044}, {"time": 111360, "qpm": 88.23529411764706}, {"time": 113280, "qpm": 86.95652173913044}, {"time": 113760, "qpm": 88.23529411764706}, {"time": 115680, "qpm": 86.95652173913044}, {"time": 116160, "qpm": 88.23529411764706}, {"time": 118560, "qpm": 86.95652173913044}, {"time": 119040, "qpm": 88.23529411764706}, {"time": 120960, "qpm": 86.95652173913044}, {"time": 121440, "qpm": 88.23529411764706}, {"time": 124320, "qpm": 86.95652173913044}, {"time": 124800, "qpm": 88.23529411764706}, {"time": 126240, "qpm": 86.95652173913044}, {"time": 126720, "qpm": 88.23529411764706}, {"time": 129120, "qpm": 86.95652173913044}, {"time": 129600, "qpm": 88.23529411764706}, {"time": 132000, "qpm": 86.95652173913044}, {"time": 132480, "qpm": 88.23529411764706}, {"time": 134400, "qpm": 86.95652173913044}, {"time": 134880, "qpm": 88.23529411764706}, {"time": 137280, "qpm": 86.95652173913044}, {"time": 137760, "qpm": 88.23529411764706}, {"time": 140160, "qpm": 86.95652173913044}, {"time": 140640, "qpm": 88.23529411764706}, {"time": 142080, "qpm": 86.95652173913044}, {"time": 142560, "qpm": 88.23529411764706}, {"time": 144960, "qpm": 86.95652173913044}, {"time": 145440, "qpm": 88.23529411764706}, {"time": 147840, "qpm": 86.95652173913044}, {"time": 148320, "qpm": 88.23529411764706}, {"time": 150720, "qpm": 86.95652173913044}, {"time": 151200, "qpm": 88.23529411764706}, {"time": 153120, "qpm": 86.95652173913044}, {"time": 153600, "qpm": 88.23529411764706}, {"time": 155520, "qpm": 86.95652173913044}, {"time": 156000, "qpm": 88.23529411764706}, {"time": 158400, "qpm": 86.95652173913044}, {"time": 158880, "qpm": 88.23529411764706}, {"time": 161280, "qpm": 86.95652173913044}, {"time": 161760, "qpm": 88.23529411764706}], "key_signatures": [{"time": 0, "root": 2, "mode": "major"}], "time_signatures": [{"time": 0, "numerator": 1, "denominator": 4}, {"time": 480, "numerator": 4, "denominator": 4}], "tracks": [{"program": 0, "is_drum": false, "name": "PIANO", "annotations": [{"time": 191, "annotation": {"number": 0, "value": 1}, "group": "control_change"}, {"time": 191, "annotation": {"number": 32, "value": 0}, "group": "control_change"}]}, {"program": 2, "is_drum": false, "name": "PIANO", "notes": [{"time": 479, "pitch": 50, "duration": 258, "velocity": 117}, {"time": 479, "pitch": 69, "duration": 97, "velocity": 117}, {"time": 479, "pitch": 74, "duration": 131, "velocity": 117}, {"time": 479, "pitch": 76, "duration": 114, "velocity": 117}, {"time": 719, "pitch": 69, "duration": 68, "velocity": 117}, {"time": 719, "pitch": 74, "duration": 110, "velocity": 117}, {"time": 719, "pitch": 76, "duration": 82, "velocity": 117}, {"time": 959, "pitch": 69, "duration": 188, "velocity": 117}, {"time": 959, "pitch": 74, "duration": 219, "velocity": 117}, {"time": 959, "pitch": 76, "duration": 192, "velocity": 117}, {"time": 1200, "pitch": 47, "duration": 122, "velocity": 117}, {"time": 1320, "pitch": 69, "duration": 81, "velocity": 117}, {"time": 1320, "pitch": 74, "duration": 108, "velocity": 117}, {"time": 1320, "pitch": 76, "duration": 81, "velocity": 117}, {"time": 1561, "pitch": 69, "duration": 94, "velocity": 117}, {"time": 1561, "pitch": 74, "duration": 146, "velocity": 117}, {"time": 1561, "pitch": 76, "duration": 115, "velocity": 117}, {"time": 1681, "pitch": 47, "duration": 190, "velocity": 117}, {"time": 1922, "pitch": 69, "duration": 252, "velocity": 117}, {"time": 1922, "pitch": 74, "duration": 277, "velocity": 117}, {"time": 1922, "pitch": 76, "duration": 241, "velocity": 117}, {"time": 2163, "pitch": 47, "duration": 74, "velocity": 117}, {"time": 2403, "pitch": 43, "duration": 193, "velocity": 117}, {"time": 2403, "pitch": 69, "duration": 60, "velocity": 117}, {"time": 2403, "pitch": 74, "duration": 96, "velocity": 117}, {"time": 2403, "pitch": 76, "duration": 57, "velocity": 117}, {"time": 2640, "pitch": 69, "duration": 62, "velocity": 117}, {"time": 2640, "pitch": 74, "duration": 77, "velocity": 117}, {"time": 2640, "pitch": 76, "duration": 78, "velocity": 117}, {"time": 2877, "pitch": 69, "duration": 194, "velocity": 117}, {"time": 2877, "pitch": 74, "duration": 208, "velocity": 117}, {"time": 2877, "pitch": 76, "duration": 190, "velocity": 117}, {"time": 3118, "pitch": 43, "duration": 95, "velocity": 117}, {"time": 3238, "pitch": 69, "duration": 108, "velocity": 117}, {"time": 3238, "pitch": 73, "duration": 122, "velocity": 117}, {"time": 3238, "pitch": 76, "duration": 113, "velocity": 117}, {"time": 3479, "pitch": 69, "duration": 106, "velocity": 117}, {"time": 3479, "pitch": 73, "duration": 128, "velocity": 117}, {"time": 3479, "pitch": 76, "duration": 121, "velocity": 117}, {"time": 3599, "pitch": 45, "duration": 178, "velocity": 117}, {"time": 3840, "pitch": 69, "duration": 254, "velocity": 117}, {"time": 3840, "pitch": 73, "duration": 267, "velocity": 117}, {"time": 3840, "pitch": 76, "duration": 267, "velocity": 117}, {"time": 4081, "pitch": 45, "duration": 128, "velocity": 117}, {"time": 4321, "pitch": 47, "duration": 229, "velocity": 117}, {"time": 4321, "pitch": 69, "duration": 104, "velocity": 117}, {"time": 4321, "pitch": 74, "duration": 126, "velocity": 117}, {"time": 4321, "pitch": 76, "duration": 114, "velocity": 117}, {"time": 4562, "pitch": 69, "duration": 73, "velocity": 117}, {"time": 4562, "pitch": 74, "duration": 113, "velocity": 117}, {"time": 4562, "pitch": 76, "duration": 77, "velocity": 117}, {"time": 4803, "pitch": 69, "duration": 170, "velocity": 117}, {"time": 4803, "pitch": 74, "duration": 207, "velocity": 117}, {"time": 4803, "pitch": 76, "duration": 175, "velocity": 117}, {"time": 5040, "pitch": 47, "duration": 107, "velocity": 117}, {"time": 5158, "pitch": 69, "duration": 94, "velocity": 117}, {"time": 5158, "pitch": 74, "duration": 118, "velocity": 117}, {"time": 5158, "pitch": 76, "duration": 79, "velocity": 117}, {"time": 5397, "pitch": 69, "duration": 114, "velocity": 117}, {"time": 5397, "pitch": 74, "duration": 127, "velocity": 117}, {"time": 5397, "pitch": 76, "duration": 110, "velocity": 117}, {"time": 5517, "pitch": 43, "duration": 182, "velocity": 117}, {"time": 5758, "pitch": 69, "duration": 161, "velocity": 117}, {"time": 5758, "pitch": 74, "duration": 203, "velocity": 117}, {"time": 5758, "pitch": 76, "duration": 216, "velocity": 117}, {"time": 5999, "pitch": 43, "duration": 161, "velocity": 117}, {"time": 6239, "pitch": 40, "duration": 265, "velocity": 117}, {"time": 6239, "pitch": 67, "duration": 243, "velocity": 117}, {"time": 6239, "pitch": 71, "duration": 282, "velocity": 117}, {"time": 6239, "pitch": 74, "duration": 270, "velocity": 117}, {"time": 6600, "pitch": 40, "duration": 256, "velocity": 117}, {"time": 6600, "pitch": 67, "duration": 231, "velocity": 117}, {"time": 6600, "pitch": 71, "duration": 265, "velocity": 117}, {"time": 6600, "pitch": 74, "duration": 265, "velocity": 117}, {"time": 6961, "pitch": 45, "duration": 161, "velocity": 117}, {"time": 6961, "pitch": 69, "duration": 153, "velocity": 117}, {"time": 6961, "pitch": 73, "duration": 161, "velocity": 117}, {"time": 6961, "pitch": 76, "duration": 148, "velocity": 117}, {"time": 8157, "pitch": 50, "duration": 259, "velocity": 117}, {"time": 8157, "pitch": 69, "duration": 101, "velocity": 117}, {"time": 8157, "pitch": 74, "duration": 101, "velocity": 117}, {"time": 8157, "pitch": 76, "duration": 101, "velocity": 117}, {"time": 8398, "pitch": 69, "duration": 100, "velocity": 117}, {"time": 8398, "pitch": 74, "duration": 100, "velocity": 117}, {"time": 8398, "pitch": 76, "duration": 100, "velocity": 117}, {"time": 8639, "pitch": 69, "duration": 170, "velocity": 117}, {"time": 8639, "pitch": 74, "duration": 170, "velocity": 117}, {"time": 8639, "pitch": 76, "duration": 170, "velocity": 117}, {"time": 8879, "pitch": 47, "duration": 123, "velocity": 117}, {"time": 9000, "pitch": 69, "duration": 100, "velocity": 117}, {"time": 9000, "pitch": 74, "duration": 100, "velocity": 117}, {"time": 9000, "pitch": 76, "duration": 100, "velocity": 117}, {"time": 9240, "pitch": 69, "duration": 101, "velocity": 117}, {"time": 9240, "pitch": 74, "duration": 101, "velocity": 117}, {"time": 9240, "pitch": 76, "duration": 101, "velocity": 117}, {"time": 9361, "pitch": 47, "duration": 189, "velocity": 117}, {"time": 9601, "pitch": 69, "duration": 171, "velocity": 117}, {"time": 9601, "pitch": 74, "duration": 171, "velocity": 117}, {"time": 9601, "pitch": 76, "duration": 171, "velocity": 117}, {"time": 9842, "pitch": 47, "duration": 74, "velocity": 117}, {"time": 10083, "pitch": 43, "duration": 192, "velocity": 117}, {"time": 10083, "pitch": 69, "duration": 98, "velocity": 117}, {"time": 10083, "pitch": 74, "duration": 98, "velocity": 117}, {"time": 10083, "pitch": 76, "duration": 98, "velocity": 117}, {"time": 10320, "pitch": 69, "duration": 98, "velocity": 117}, {"time": 10320, "pitch": 74, "duration": 98, "velocity": 117}, {"time": 10320, "pitch": 76, "duration": 98, "velocity": 117}, {"time": 10557, "pitch": 69, "duration": 170, "velocity": 117}, {"time": 10557, "pitch": 74, "duration": 170, "velocity": 117}, {"time": 10557, "pitch": 76, "duration": 170, "velocity": 117}, {"time": 10797, "pitch": 43, "duration": 96, "velocity": 117}, {"time": 10918, "pitch": 69, "duration": 100, "velocity": 117}, {"time": 10918, "pitch": 73, "duration": 100, "velocity": 117}, {"time": 10918, "pitch": 76, "duration": 100, "velocity": 117}, {"time": 11158, "pitch": 69, "duration": 101, "velocity": 117}, {"time": 11158, "pitch": 73, "duration": 101, "velocity": 117}, {"time": 11158, "pitch": 76, "duration": 101, "velocity": 117}, {"time": 11279, "pitch": 45, "duration": 177, "velocity": 117}, {"time": 11519, "pitch": 69, "duration": 171, "velocity": 117}, {"time": 11519, "pitch": 73, "duration": 171, "velocity": 117}, {"time": 11519, "pitch": 76, "duration": 171, "velocity": 117}, {"time": 11760, "pitch": 45, "duration": 128, "velocity": 117}, {"time": 12001, "pitch": 47, "duration": 228, "velocity": 117}, {"time": 12001, "pitch": 69, "duration": 100, "velocity": 117}, {"time": 12001, "pitch": 74, "duration": 100, "velocity": 117}, {"time": 12001, "pitch": 76, "duration": 100, "velocity": 117}, {"time": 12241, "pitch": 69, "duration": 101, "velocity": 117}, {"time": 12241, "pitch": 74, "duration": 101, "velocity": 117}, {"time": 12241, "pitch": 76, "duration": 101, "velocity": 117}, {"time": 12482, "pitch": 69, "duration": 170, "velocity": 117}, {"time": 12482, "pitch": 74, "duration": 170, "velocity": 117}, {"time": 12482, "pitch": 76, "duration": 170, "velocity": 117}, {"time": 12723, "pitch": 47, "duration": 109, "velocity": 117}, {"time": 12843, "pitch": 69, "duration": 100, "velocity": 117}, {"time": 12843, "pitch": 74, "duration": 100, "velocity": 117}, {"time": 12843, "pitch": 76, "duration": 100, "velocity": 117}, {"time": 13082, "pitch": 69, "duration": 99, "velocity": 117}, {"time": 13082, "pitch": 74, "duration": 99, "velocity": 117}, {"time": 13082, "pitch": 76, "duration": 99, "velocity": 117}, {"time": 13200, "pitch": 43, "duration": 179, "velocity": 117}, {"time": 13437, "pitch": 69, "duration": 171, "velocity": 117}, {"time": 13437, "pitch": 74, "duration": 171, "velocity": 117}, {"time": 13437, "pitch": 76, "duration": 171, "velocity": 117}, {"time": 13678, "pitch": 43, "duration": 162, "velocity": 117}, {"time": 13919, "pitch": 40, "duration": 170, "velocity": 117}, {"time": 13919, "pitch": 67, "duration": 170, "velocity": 117}, {"time": 13919, "pitch": 71, "duration": 170, "velocity": 117}, {"time": 13919, "pitch": 74, "duration": 170, "velocity": 117}, {"time": 14280, "pitch": 40, "duration": 170, "velocity": 117}, {"time": 14280, "pitch": 67, "duration": 170, "velocity": 117}, {"time": 14280, "pitch": 71, "duration": 170, "velocity": 117}, {"time": 14280, "pitch": 74, "duration": 170, "velocity": 117}, {"time": 14641, "pitch": 45, "duration": 160, "velocity": 117}, {"time": 14641, "pitch": 69, "duration": 160, "velocity": 117}, {"time": 14641, "pitch": 73, "duration": 160, "velocity": 117}, {"time": 14641, "pitch": 76, "duration": 160, "velocity": 117}, {"time": 15837, "pitch": 50, "duration": 888, "velocity": 117}, {"time": 15837, "pitch": 57, "duration": 872, "velocity": 117}, {"time": 15837, "pitch": 62, "duration": 846, "velocity": 117}, {"time": 15837, "pitch": 66, "duration": 838, "velocity": 117}, {"time": 16799, "pitch": 49, "duration": 897, "velocity": 117}, {"time": 16799, "pitch": 57, "duration": 840, "velocity": 117}, {"time": 16799, "pitch": 61, "duration": 852, "velocity": 117}, {"time": 16799, "pitch": 64, "duration": 856, "velocity": 117}, {"time": 17762, "pitch": 47, "duration": 906, "velocity": 117}, {"time": 17762, "pitch": 59, "duration": 851, "velocity": 117}, {"time": 17762, "pitch": 62, "duration": 858, "velocity": 117}, {"time": 17762, "pitch": 66, "duration": 831, "velocity": 117}, {"time": 18717, "pitch": 45, "duration": 859, "velocity": 117}, {"time": 18717, "pitch": 57, "duration": 825, "velocity": 117}, {"time": 18717, "pitch": 61, "duration": 838, "velocity": 117}, {"time": 18717, "pitch": 64, "duration": 819, "velocity": 117}, {"time": 19680, "pitch": 43, "duration": 859, "velocity": 117}, {"time": 19680, "pitch": 55, "duration": 768, "velocity": 117}, {"time": 19680, "pitch": 59, "duration": 824, "velocity": 117}, {"time": 19680, "pitch": 62, "duration": 857, "velocity": 117}, {"time": 20643, "pitch": 42, "duration": 850, "velocity": 117}, {"time": 20643, "pitch": 54, "duration": 763, "velocity": 117}, {"time": 20643, "pitch": 57, "duration": 833, "velocity": 117}, {"time": 20643, "pitch": 62, "duration": 853, "velocity": 117}, {"time": 21598, "pitch": 40, "duration": 874, "velocity": 117}, {"time": 21598, "pitch": 55, "duration": 766, "velocity": 117}, {"time": 21598, "pitch": 59, "duration": 818, "velocity": 117}, {"time": 21598, "pitch": 62, "duration": 836, "velocity": 117}, {"time": 22561, "pitch": 45, "duration": 788, "velocity": 117}, {"time": 22561, "pitch": 57, "duration": 867, "velocity": 117}, {"time": 22561, "pitch": 61, "duration": 843, "velocity": 117}, {"time": 22561, "pitch": 64, "duration": 396, "velocity": 117}, {"time": 22922, "pitch": 66, "duration": 399, "velocity": 117}, {"time": 23283, "pitch": 67, "duration": 154, "velocity": 117}, {"time": 23523, "pitch": 50, "duration": 882, "velocity": 117}, {"time": 23523, "pitch": 57, "duration": 865, "velocity": 117}, {"time": 23523, "pitch": 62, "duration": 839, "velocity": 117}, {"time": 23523, "pitch": 66, "duration": 831, "velocity": 117}, {"time": 24479, "pitch": 49, "duration": 896, "velocity": 117}, {"time": 24479, "pitch": 57, "duration": 839, "velocity": 117}, {"time": 24479, "pitch": 61, "duration": 851, "velocity": 117}, {"time": 24479, "pitch": 64, "duration": 855, "velocity": 117}, {"time": 25441, "pitch": 47, "duration": 906, "velocity": 117}, {"time": 25441, "pitch": 59, "duration": 851, "velocity": 117}, {"time": 25441, "pitch": 62, "duration": 858, "velocity": 117}, {"time": 25441, "pitch": 66, "duration": 831, "velocity": 117}, {"time": 26397, "pitch": 45, "duration": 858, "velocity": 117}, {"time": 26397, "pitch": 57, "duration": 824, "velocity": 117}, {"time": 26397, "pitch": 61, "duration": 837, "velocity": 117}, {"time": 26397, "pitch": 64, "duration": 818, "velocity": 117}, {"time": 27359, "pitch": 43, "duration": 860, "velocity": 117}, {"time": 27359, "pitch": 55, "duration": 768, "velocity": 117}, {"time": 27359, "pitch": 59, "duration": 825, "velocity": 117}, {"time": 27359, "pitch": 62, "duration": 858, "velocity": 117}, {"time": 28322, "pitch": 42, "duration": 852, "velocity": 117}, {"time": 28322, "pitch": 54, "duration": 766, "velocity": 117}, {"time": 28322, "pitch": 57, "duration": 835, "velocity": 117}, {"time": 28322, "pitch": 62, "duration": 855, "velocity": 117}, {"time": 29277, "pitch": 40, "duration": 875, "velocity": 117}, {"time": 29277, "pitch": 55, "duration": 766, "velocity": 117}, {"time": 29277, "pitch": 59, "duration": 819, "velocity": 117}, {"time": 29277, "pitch": 62, "duration": 837, "velocity": 117}, {"time": 30240, "pitch": 45, "duration": 788, "velocity": 117}, {"time": 30240, "pitch": 57, "duration": 867, "velocity": 117}, {"time": 30240, "pitch": 61, "duration": 843, "velocity": 117}, {"time": 30240, "pitch": 64, "duration": 396, "velocity": 117}, {"time": 30601, "pitch": 66, "duration": 399, "velocity": 117}, {"time": 30962, "pitch": 67, "duration": 154, "velocity": 117}, {"time": 31203, "pitch": 40, "duration": 177, "velocity": 117}, {"time": 31203, "pitch": 55, "duration": 177, "velocity": 117}, {"time": 31203, "pitch": 59, "duration": 177, "velocity": 117}, {"time": 31203, "pitch": 62, "duration": 177, "velocity": 117}, {"time": 31558, "pitch": 45, "duration": 179, "velocity": 117}, {"time": 31558, "pitch": 57, "duration": 179, "velocity": 117}, {"time": 31558, "pitch": 61, "duration": 179, "velocity": 117}, {"time": 31558, "pitch": 64, "duration": 179, "velocity": 117}, {"time": 31917, "pitch": 50, "duration": 181, "velocity": 117}, {"time": 31917, "pitch": 57, "duration": 181, "velocity": 117}, {"time": 31917, "pitch": 62, "duration": 181, "velocity": 117}, {"time": 31917, "pitch": 66, "duration": 181, "velocity": 117}, {"time": 33121, "pitch": 57, "duration": 260, "velocity": 117}, {"time": 33121, "pitch": 62, "duration": 274, "velocity": 117}, {"time": 33121, "pitch": 66, "duration": 267, "velocity": 117}, {"time": 33482, "pitch": 57, "duration": 206, "velocity": 117}, {"time": 33482, "pitch": 62, "duration": 255, "velocity": 117}, {"time": 33482, "pitch": 66, "duration": 242, "velocity": 117}, {"time": 33843, "pitch": 57, "duration": 240, "velocity": 117}, {"time": 33843, "pitch": 62, "duration": 264, "velocity": 117}, {"time": 33843, "pitch": 66, "duration": 247, "velocity": 117}, {"time": 34202, "pitch": 57, "duration": 212, "velocity": 117}, {"time": 34202, "pitch": 61, "duration": 255, "velocity": 117}, {"time": 34202, "pitch": 64, "duration": 219, "velocity": 117}, {"time": 34557, "pitch": 57, "duration": 109, "velocity": 117}, {"time": 34557, "pitch": 61, "duration": 137, "velocity": 117}, {"time": 34557, "pitch": 64, "duration": 146, "velocity": 117}, {"time": 34798, "pitch": 57, "duration": 113, "velocity": 117}, {"time": 34798, "pitch": 61, "duration": 151, "velocity": 117}, {"time": 34798, "pitch": 64, "duration": 149, "velocity": 117}, {"time": 35039, "pitch": 59, "duration": 246, "velocity": 117}, {"time": 35039, "pitch": 62, "duration": 276, "velocity": 117}, {"time": 35039, "pitch": 66, "duration": 268, "velocity": 117}, {"time": 35400, "pitch": 59, "duration": 210, "velocity": 117}, {"time": 35400, "pitch": 62, "duration": 244, "velocity": 117}, {"time": 35400, "pitch": 66, "duration": 240, "velocity": 117}, {"time": 35761, "pitch": 59, "duration": 216, "velocity": 117}, {"time": 35761, "pitch": 62, "duration": 235, "velocity": 117}, {"time": 35761, "pitch": 66, "duration": 246, "velocity": 117}, {"time": 36122, "pitch": 59, "duration": 188, "velocity": 117}, {"time": 36122, "pitch": 62, "duration": 223, "velocity": 117}, {"time": 36122, "pitch": 67, "duration": 231, "velocity": 117}, {"time": 36483, "pitch": 59, "duration": 102, "velocity": 117}, {"time": 36483, "pitch": 62, "duration": 118, "velocity": 117}, {"time": 36483, "pitch": 67, "duration": 161, "velocity": 117}, {"time": 36720, "pitch": 59, "duration": 114, "velocity": 117}, {"time": 36720, "pitch": 62, "duration": 66, "velocity": 117}, {"time": 36720, "pitch": 67, "duration": 134, "velocity": 117}, {"time": 36957, "pitch": 57, "duration": 258, "velocity": 117}, {"time": 36957, "pitch": 62, "duration": 277, "velocity": 117}, {"time": 36957, "pitch": 66, "duration": 288, "velocity": 117}, {"time": 37318, "pitch": 57, "duration": 225, "velocity": 117}, {"time": 37318, "pitch": 62, "duration": 251, "velocity": 117}, {"time": 37318, "pitch": 66, "duration": 233, "velocity": 117}, {"time": 37679, "pitch": 57, "duration": 242, "velocity": 117}, {"time": 37679, "pitch": 62, "duration": 255, "velocity": 117}, {"time": 37679, "pitch": 66, "duration": 260, "velocity": 117}, {"time": 38040, "pitch": 59, "duration": 189, "velocity": 117}, {"time": 38040, "pitch": 62, "duration": 220, "velocity": 117}, {"time": 38040, "pitch": 66, "duration": 210, "velocity": 117}, {"time": 38401, "pitch": 59, "duration": 128, "velocity": 117}, {"time": 38401, "pitch": 62, "duration": 159, "velocity": 117}, {"time": 38401, "pitch": 66, "duration": 139, "velocity": 117}, {"time": 38641, "pitch": 59, "duration": 92, "velocity": 117}, {"time": 38641, "pitch": 62, "duration": 145, "velocity": 117}, {"time": 38641, "pitch": 66, "duration": 119, "velocity": 117}, {"time": 38882, "pitch": 55, "duration": 200, "velocity": 117}, {"time": 38882, "pitch": 59, "duration": 250, "velocity": 117}, {"time": 38882, "pitch": 62, "duration": 274, "velocity": 117}, {"time": 38882, "pitch": 67, "duration": 249, "velocity": 117}, {"time": 39243, "pitch": 55, "duration": 246, "velocity": 117}, {"time": 39243, "pitch": 59, "duration": 239, "velocity": 117}, {"time": 39243, "pitch": 62, "duration": 257, "velocity": 117}, {"time": 39243, "pitch": 67, "duration": 240, "velocity": 117}, {"time": 39600, "pitch": 55, "duration": 228, "velocity": 117}, {"time": 39600, "pitch": 59, "duration": 219, "velocity": 117}, {"time": 39600, "pitch": 62, "duration": 238, "velocity": 117}, {"time": 39600, "pitch": 67, "duration": 230, "velocity": 117}, {"time": 39958, "pitch": 57, "duration": 198, "velocity": 117}, {"time": 39958, "pitch": 61, "duration": 210, "velocity": 117}, {"time": 39958, "pitch": 64, "duration": 212, "velocity": 117}, {"time": 39958, "pitch": 69, "duration": 209, "velocity": 117}, {"time": 40319, "pitch": 57, "duration": 154, "velocity": 117}, {"time": 40319, "pitch": 61, "duration": 154, "velocity": 117}, {"time": 40319, "pitch": 64, "duration": 140, "velocity": 117}, {"time": 40559, "pitch": 57, "duration": 133, "velocity": 117}, {"time": 40559, "pitch": 61, "duration": 156, "velocity": 117}, {"time": 40559, "pitch": 64, "duration": 129, "velocity": 117}, {"time": 40800, "pitch": 57, "duration": 261, "velocity": 117}, {"time": 40800, "pitch": 62, "duration": 275, "velocity": 117}, {"time": 40800, "pitch": 66, "duration": 268, "velocity": 117}, {"time": 41161, "pitch": 57, "duration": 207, "velocity": 117}, {"time": 41161, "pitch": 62, "duration": 256, "velocity": 117}, {"time": 41161, "pitch": 66, "duration": 243, "velocity": 117}, {"time": 41522, "pitch": 57, "duration": 241, "velocity": 117}, {"time": 41522, "pitch": 62, "duration": 264, "velocity": 117}, {"time": 41522, "pitch": 66, "duration": 247, "velocity": 117}, {"time": 41881, "pitch": 57, "duration": 213, "velocity": 117}, {"time": 41881, "pitch": 61, "duration": 255, "velocity": 117}, {"time": 41881, "pitch": 64, "duration": 219, "velocity": 117}, {"time": 42237, "pitch": 57, "duration": 108, "velocity": 117}, {"time": 42237, "pitch": 61, "duration": 136, "velocity": 117}, {"time": 42237, "pitch": 64, "duration": 145, "velocity": 117}, {"time": 42477, "pitch": 57, "duration": 114, "velocity": 117}, {"time": 42477, "pitch": 61, "duration": 152, "velocity": 117}, {"time": 42477, "pitch": 64, "duration": 150, "velocity": 117}, {"time": 42718, "pitch": 59, "duration": 247, "velocity": 117}, {"time": 42718, "pitch": 62, "duration": 277, "velocity": 117}, {"time": 42718, "pitch": 66, "duration": 269, "velocity": 117}, {"time": 43079, "pitch": 59, "duration": 211, "velocity": 117}, {"time": 43079, "pitch": 62, "duration": 245, "velocity": 117}, {"time": 43079, "pitch": 66, "duration": 241, "velocity": 117}, {"time": 43440, "pitch": 59, "duration": 217, "velocity": 117}, {"time": 43440, "pitch": 62, "duration": 236, "velocity": 117}, {"time": 43440, "pitch": 66, "duration": 247, "velocity": 117}, {"time": 43801, "pitch": 59, "duration": 188, "velocity": 117}, {"time": 43801, "pitch": 62, "duration": 224, "velocity": 117}, {"time": 43801, "pitch": 67, "duration": 232, "velocity": 117}, {"time": 44162, "pitch": 59, "duration": 104, "velocity": 117}, {"time": 44162, "pitch": 62, "duration": 120, "velocity": 117}, {"time": 44162, "pitch": 67, "duration": 163, "velocity": 117}, {"time": 44403, "pitch": 59, "duration": 116, "velocity": 117}, {"time": 44403, "pitch": 62, "duration": 67, "velocity": 117}, {"time": 44403, "pitch": 67, "duration": 136, "velocity": 117}, {"time": 44643, "pitch": 57, "duration": 255, "velocity": 117}, {"time": 44643, "pitch": 62, "duration": 273, "velocity": 117}, {"time": 44643, "pitch": 66, "duration": 284, "velocity": 117}, {"time": 44999, "pitch": 57, "duration": 224, "velocity": 117}, {"time": 44999, "pitch": 62, "duration": 250, "velocity": 117}, {"time": 44999, "pitch": 66, "duration": 232, "velocity": 117}, {"time": 45358, "pitch": 57, "duration": 243, "velocity": 117}, {"time": 45358, "pitch": 62, "duration": 256, "velocity": 117}, {"time": 45358, "pitch": 66, "duration": 261, "velocity": 117}, {"time": 45719, "pitch": 59, "duration": 190, "velocity": 117}, {"time": 45719, "pitch": 62, "duration": 221, "velocity": 117}, {"time": 45719, "pitch": 66, "duration": 211, "velocity": 117}, {"time": 46080, "pitch": 59, "duration": 128, "velocity": 117}, {"time": 46080, "pitch": 62, "duration": 159, "velocity": 117}, {"time": 46080, "pitch": 66, "duration": 139, "velocity": 117}, {"time": 46321, "pitch": 59, "duration": 91, "velocity": 117}, {"time": 46321, "pitch": 62, "duration": 144, "velocity": 117}, {"time": 46321, "pitch": 66, "duration": 118, "velocity": 117}, {"time": 46561, "pitch": 55, "duration": 201, "velocity": 117}, {"time": 46561, "pitch": 59, "duration": 250, "velocity": 117}, {"time": 46561, "pitch": 62, "duration": 274, "velocity": 117}, {"time": 46561, "pitch": 67, "duration": 249, "velocity": 117}, {"time": 46922, "pitch": 55, "duration": 246, "velocity": 117}, {"time": 46922, "pitch": 59, "duration": 239, "velocity": 117}, {"time": 46922, "pitch": 62, "duration": 257, "velocity": 117}, {"time": 46922, "pitch": 67, "duration": 240, "velocity": 117}, {"time": 47280, "pitch": 55, "duration": 227, "velocity": 117}, {"time": 47280, "pitch": 59, "duration": 218, "velocity": 117}, {"time": 47280, "pitch": 62, "duration": 237, "velocity": 117}, {"time": 47280, "pitch": 67, "duration": 229, "velocity": 117}, {"time": 47517, "pitch": 62, "duration": 1, "velocity": 117}, {"time": 47637, "pitch": 57, "duration": 199, "velocity": 117}, {"time": 47637, "pitch": 61, "duration": 211, "velocity": 117}, {"time": 47637, "pitch": 64, "duration": 213, "velocity": 117}, {"time": 47637, "pitch": 69, "duration": 210, "velocity": 117}, {"time": 47998, "pitch": 57, "duration": 154, "velocity": 117}, {"time": 47998, "pitch": 61, "duration": 154, "velocity": 117}, {"time": 47998, "pitch": 64, "duration": 140, "velocity": 117}, {"time": 48239, "pitch": 57, "duration": 132, "velocity": 117}, {"time": 48239, "pitch": 61, "duration": 155, "velocity": 117}, {"time": 48239, "pitch": 64, "duration": 128, "velocity": 117}, {"time": 48479, "pitch": 40, "duration": 266, "velocity": 117}, {"time": 48479, "pitch": 55, "duration": 239, "velocity": 117}, {"time": 48479, "pitch": 59, "duration": 259, "velocity": 117}, {"time": 48479, "pitch": 62, "duration": 272, "velocity": 117}, {"time": 48840, "pitch": 45, "duration": 206, "velocity": 117}, {"time": 48840, "pitch": 57, "duration": 205, "velocity": 117}, {"time": 48840, "pitch": 61, "duration": 236, "velocity": 117}, {"time": 48840, "pitch": 64, "duration": 224, "velocity": 117}, {"time": 49201, "pitch": 50, "duration": 209, "velocity": 117}, {"time": 49201, "pitch": 57, "duration": 185, "velocity": 117}, {"time": 49201, "pitch": 62, "duration": 218, "velocity": 117}, {"time": 49201, "pitch": 66, "duration": 203, "velocity": 117}, {"time": 50397, "pitch": 43, "duration": 211, "velocity": 117}, {"time": 50638, "pitch": 59, "duration": 30, "velocity": 117}, {"time": 50638, "pitch": 62, "duration": 31, "velocity": 117}, {"time": 50638, "pitch": 66, "duration": 30, "velocity": 117}, {"time": 50758, "pitch": 59, "duration": 89, "velocity": 117}, {"time": 50758, "pitch": 62, "duration": 110, "velocity": 117}, {"time": 50758, "pitch": 66, "duration": 104, "velocity": 117}, {"time": 50879, "pitch": 43, "duration": 227, "velocity": 117}, {"time": 51119, "pitch": 59, "duration": 35, "velocity": 117}, {"time": 51119, "pitch": 62, "duration": 31, "velocity": 117}, {"time": 51119, "pitch": 66, "duration": 29, "velocity": 117}, {"time": 51240, "pitch": 59, "duration": 85, "velocity": 117}, {"time": 51240, "pitch": 62, "duration": 97, "velocity": 117}, {"time": 51240, "pitch": 66, "duration": 100, "velocity": 117}, {"time": 51360, "pitch": 43, "duration": 133, "velocity": 117}, {"time": 51480, "pitch": 59, "duration": 95, "velocity": 117}, {"time": 51480, "pitch": 62, "duration": 92, "velocity": 117}, {"time": 51480, "pitch": 66, "duration": 107, "velocity": 117}, {"time": 51721, "pitch": 59, "duration": 143, "velocity": 117}, {"time": 51721, "pitch": 62, "duration": 202, "velocity": 117}, {"time": 51721, "pitch": 66, "duration": 175, "velocity": 117}, {"time": 51841, "pitch": 43, "duration": 257, "velocity": 117}, {"time": 52082, "pitch": 59, "duration": 244, "velocity": 117}, {"time": 52082, "pitch": 62, "duration": 218, "velocity": 117}, {"time": 52082, "pitch": 67, "duration": 243, "velocity": 117}, {"time": 52323, "pitch": 45, "duration": 219, "velocity": 117}, {"time": 52560, "pitch": 57, "duration": 33, "velocity": 117}, {"time": 52560, "pitch": 61, "duration": 30, "velocity": 117}, {"time": 52560, "pitch": 64, "duration": 29, "velocity": 117}, {"time": 52678, "pitch": 57, "duration": 81, "velocity": 117}, {"time": 52678, "pitch": 61, "duration": 114, "velocity": 117}, {"time": 52678, "pitch": 64, "duration": 104, "velocity": 117}, {"time": 52797, "pitch": 45, "duration": 203, "velocity": 117}, {"time": 53037, "pitch": 57, "duration": 32, "velocity": 117}, {"time": 53037, "pitch": 61, "duration": 30, "velocity": 117}, {"time": 53037, "pitch": 64, "duration": 30, "velocity": 117}, {"time": 53158, "pitch": 57, "duration": 95, "velocity": 117}, {"time": 53158, "pitch": 61, "duration": 113, "velocity": 117}, {"time": 53158, "pitch": 64, "duration": 108, "velocity": 117}, {"time": 53278, "pitch": 45, "duration": 112, "velocity": 117}, {"time": 53398, "pitch": 57, "duration": 94, "velocity": 117}, {"time": 53398, "pitch": 61, "duration": 123, "velocity": 117}, {"time": 53398, "pitch": 64, "duration": 111, "velocity": 117}, {"time": 53639, "pitch": 57, "duration": 243, "velocity": 117}, {"time": 53639, "pitch": 61, "duration": 254, "velocity": 117}, {"time": 53639, "pitch": 64, "duration": 156, "velocity": 117}, {"time": 53759, "pitch": 66, "duration": 136, "velocity": 117}, {"time": 54000, "pitch": 57, "duration": 245, "velocity": 117}, {"time": 54000, "pitch": 61, "duration": 235, "velocity": 117}, {"time": 54000, "pitch": 64, "duration": 241, "velocity": 117}, {"time": 54241, "pitch": 42, "duration": 168, "velocity": 117}, {"time": 54481, "pitch": 57, "duration": 31, "velocity": 117}, {"time": 54481, "pitch": 61, "duration": 30, "velocity": 117}, {"time": 54481, "pitch": 64, "duration": 30, "velocity": 117}, {"time": 54602, "pitch": 57, "duration": 110, "velocity": 117}, {"time": 54602, "pitch": 61, "duration": 146, "velocity": 117}, {"time": 54602, "pitch": 64, "duration": 127, "velocity": 117}, {"time": 54722, "pitch": 42, "duration": 148, "velocity": 117}, {"time": 54963, "pitch": 57, "duration": 30, "velocity": 117}, {"time": 54963, "pitch": 61, "duration": 30, "velocity": 117}, {"time": 54963, "pitch": 64, "duration": 31, "velocity": 117}, {"time": 55083, "pitch": 57, "duration": 102, "velocity": 117}, {"time": 55083, "pitch": 61, "duration": 128, "velocity": 117}, {"time": 55083, "pitch": 64, "duration": 124, "velocity": 117}, {"time": 55203, "pitch": 42, "duration": 115, "velocity": 117}, {"time": 55322, "pitch": 57, "duration": 88, "velocity": 117}, {"time": 55322, "pitch": 61, "duration": 104, "velocity": 117}, {"time": 55322, "pitch": 64, "duration": 106, "velocity": 117}, {"time": 55559, "pitch": 57, "duration": 299, "velocity": 117}, {"time": 55559, "pitch": 61, "duration": 335, "velocity": 117}, {"time": 55559, "pitch": 64, "duration": 96, "velocity": 117}, {"time": 55677, "pitch": 64, "duration": 55, "velocity": 117}, {"time": 55677, "pitch": 66, "duration": 178, "velocity": 117}, {"time": 55918, "pitch": 57, "duration": 164, "velocity": 117}, {"time": 55918, "pitch": 61, "duration": 209, "velocity": 117}, {"time": 55918, "pitch": 64, "duration": 233, "velocity": 117}, {"time": 56159, "pitch": 47, "duration": 241, "velocity": 117}, {"time": 56399, "pitch": 57, "duration": 28, "velocity": 117}, {"time": 56399, "pitch": 62, "duration": 33, "velocity": 117}, {"time": 56399, "pitch": 66, "duration": 46, "velocity": 117}, {"time": 56520, "pitch": 57, "duration": 101, "velocity": 117}, {"time": 56520, "pitch": 62, "duration": 115, "velocity": 117}, {"time": 56520, "pitch": 66, "duration": 103, "velocity": 117}, {"time": 56640, "pitch": 47, "duration": 220, "velocity": 117}, {"time": 56881, "pitch": 57, "duration": 48, "velocity": 117}, {"time": 56881, "pitch": 62, "duration": 38, "velocity": 117}, {"time": 56881, "pitch": 66, "duration": 31, "velocity": 117}, {"time": 57001, "pitch": 57, "duration": 87, "velocity": 117}, {"time": 57001, "pitch": 62, "duration": 120, "velocity": 117}, {"time": 57001, "pitch": 66, "duration": 116, "velocity": 117}, {"time": 57121, "pitch": 47, "duration": 150, "velocity": 117}, {"time": 57242, "pitch": 57, "duration": 116, "velocity": 117}, {"time": 57242, "pitch": 62, "duration": 123, "velocity": 117}, {"time": 57242, "pitch": 66, "duration": 116, "velocity": 117}, {"time": 57482, "pitch": 57, "duration": 40, "velocity": 117}, {"time": 57482, "pitch": 62, "duration": 40, "velocity": 117}, {"time": 57482, "pitch": 66, "duration": 39, "velocity": 117}, {"time": 57603, "pitch": 57, "duration": 151, "velocity": 117}, {"time": 57603, "pitch": 62, "duration": 184, "velocity": 100}, {"time": 57603, "pitch": 67, "duration": 142, "velocity": 117}, {"time": 57840, "pitch": 57, "duration": 148, "velocity": 117}, {"time": 57840, "pitch": 62, "duration": 185, "velocity": 117}, {"time": 57840, "pitch": 66, "duration": 175, "velocity": 117}, {"time": 58077, "pitch": 43, "duration": 210, "velocity": 117}, {"time": 58317, "pitch": 59, "duration": 30, "velocity": 117}, {"time": 58317, "pitch": 62, "duration": 31, "velocity": 117}, {"time": 58317, "pitch": 66, "duration": 30, "velocity": 117}, {"time": 58438, "pitch": 59, "duration": 88, "velocity": 117}, {"time": 58438, "pitch": 62, "duration": 109, "velocity": 117}, {"time": 58438, "pitch": 66, "duration": 103, "velocity": 117}, {"time": 58558, "pitch": 43, "duration": 228, "velocity": 117}, {"time": 58799, "pitch": 59, "duration": 35, "velocity": 117}, {"time": 58799, "pitch": 62, "duration": 31, "velocity": 117}, {"time": 58799, "pitch": 66, "duration": 29, "velocity": 117}, {"time": 58919, "pitch": 59, "duration": 85, "velocity": 117}, {"time": 58919, "pitch": 62, "duration": 97, "velocity": 117}, {"time": 58919, "pitch": 66, "duration": 100, "velocity": 117}, {"time": 59039, "pitch": 43, "duration": 134, "velocity": 117}, {"time": 59160, "pitch": 59, "duration": 94, "velocity": 117}, {"time": 59160, "pitch": 62, "duration": 91, "velocity": 117}, {"time": 59160, "pitch": 66, "duration": 106, "velocity": 117}, {"time": 59400, "pitch": 59, "duration": 144, "velocity": 117}, {"time": 59400, "pitch": 62, "duration": 203, "velocity": 117}, {"time": 59400, "pitch": 66, "duration": 176, "velocity": 117}, {"time": 59521, "pitch": 43, "duration": 256, "velocity": 117}, {"time": 59761, "pitch": 59, "duration": 245, "velocity": 117}, {"time": 59761, "pitch": 62, "duration": 219, "velocity": 117}, {"time": 59761, "pitch": 67, "duration": 244, "velocity": 117}, {"time": 60002, "pitch": 45, "duration": 223, "velocity": 117}, {"time": 60243, "pitch": 57, "duration": 34, "velocity": 117}, {"time": 60243, "pitch": 61, "duration": 31, "velocity": 117}, {"time": 60243, "pitch": 64, "duration": 30, "velocity": 117}, {"time": 60363, "pitch": 57, "duration": 82, "velocity": 117}, {"time": 60363, "pitch": 61, "duration": 115, "velocity": 117}, {"time": 60363, "pitch": 64, "duration": 105, "velocity": 117}, {"time": 60483, "pitch": 45, "duration": 201, "velocity": 117}, {"time": 60720, "pitch": 57, "duration": 31, "velocity": 117}, {"time": 60720, "pitch": 61, "duration": 30, "velocity": 117}, {"time": 60720, "pitch": 64, "duration": 30, "velocity": 117}, {"time": 60839, "pitch": 57, "duration": 94, "velocity": 117}, {"time": 60839, "pitch": 61, "duration": 112, "velocity": 117}, {"time": 60839, "pitch": 64, "duration": 107, "velocity": 117}, {"time": 60957, "pitch": 45, "duration": 113, "velocity": 117}, {"time": 61078, "pitch": 57, "duration": 93, "velocity": 117}, {"time": 61078, "pitch": 61, "duration": 122, "velocity": 117}, {"time": 61078, "pitch": 64, "duration": 110, "velocity": 117}, {"time": 61318, "pitch": 57, "duration": 243, "velocity": 117}, {"time": 61318, "pitch": 61, "duration": 254, "velocity": 117}, {"time": 61318, "pitch": 64, "duration": 157, "velocity": 117}, {"time": 61439, "pitch": 66, "duration": 135, "velocity": 117}, {"time": 61679, "pitch": 57, "duration": 229, "velocity": 117}, {"time": 61679, "pitch": 61, "duration": 235, "velocity": 117}, {"time": 61679, "pitch": 64, "duration": 225, "velocity": 117}, {"time": 61920, "pitch": 42, "duration": 168, "velocity": 117}, {"time": 62161, "pitch": 57, "duration": 31, "velocity": 117}, {"time": 62161, "pitch": 61, "duration": 30, "velocity": 117}, {"time": 62161, "pitch": 64, "duration": 30, "velocity": 117}, {"time": 62281, "pitch": 57, "duration": 110, "velocity": 117}, {"time": 62281, "pitch": 61, "duration": 146, "velocity": 117}, {"time": 62281, "pitch": 64, "duration": 127, "velocity": 117}, {"time": 62401, "pitch": 42, "duration": 149, "velocity": 117}, {"time": 62642, "pitch": 57, "duration": 30, "velocity": 117}, {"time": 62642, "pitch": 61, "duration": 30, "velocity": 117}, {"time": 62642, "pitch": 64, "duration": 31, "velocity": 117}, {"time": 62762, "pitch": 57, "duration": 103, "velocity": 117}, {"time": 62762, "pitch": 61, "duration": 128, "velocity": 117}, {"time": 62762, "pitch": 64, "duration": 124, "velocity": 117}, {"time": 62883, "pitch": 42, "duration": 114, "velocity": 117}, {"time": 63001, "pitch": 57, "duration": 88, "velocity": 117}, {"time": 63001, "pitch": 61, "duration": 105, "velocity": 117}, {"time": 63001, "pitch": 64, "duration": 107, "velocity": 117}, {"time": 63238, "pitch": 57, "duration": 299, "velocity": 117}, {"time": 63238, "pitch": 61, "duration": 335, "velocity": 117}, {"time": 63238, "pitch": 64, "duration": 96, "velocity": 117}, {"time": 63357, "pitch": 66, "duration": 177, "velocity": 117}, {"time": 63597, "pitch": 57, "duration": 165, "velocity": 117}, {"time": 63597, "pitch": 61, "duration": 209, "velocity": 117}, {"time": 63597, "pitch": 64, "duration": 233, "velocity": 117}, {"time": 63838, "pitch": 47, "duration": 242, "velocity": 117}, {"time": 64079, "pitch": 57, "duration": 28, "velocity": 117}, {"time": 64079, "pitch": 62, "duration": 33, "velocity": 117}, {"time": 64079, "pitch": 66, "duration": 46, "velocity": 117}, {"time": 64199, "pitch": 57, "duration": 101, "velocity": 117}, {"time": 64199, "pitch": 62, "duration": 115, "velocity": 117}, {"time": 64199, "pitch": 66, "duration": 103, "velocity": 117}, {"time": 64319, "pitch": 47, "duration": 220, "velocity": 117}, {"time": 64560, "pitch": 57, "duration": 48, "velocity": 117}, {"time": 64560, "pitch": 62, "duration": 38, "velocity": 117}, {"time": 64560, "pitch": 66, "duration": 31, "velocity": 117}, {"time": 64680, "pitch": 57, "duration": 88, "velocity": 117}, {"time": 64680, "pitch": 62, "duration": 121, "velocity": 117}, {"time": 64680, "pitch": 66, "duration": 117, "velocity": 117}, {"time": 64801, "pitch": 47, "duration": 149, "velocity": 117}, {"time": 64921, "pitch": 57, "duration": 116, "velocity": 117}, {"time": 64921, "pitch": 62, "duration": 123, "velocity": 117}, {"time": 64921, "pitch": 66, "duration": 116, "velocity": 117}, {"time": 65162, "pitch": 57, "duration": 40, "velocity": 117}, {"time": 65162, "pitch": 62, "duration": 40, "velocity": 117}, {"time": 65162, "pitch": 66, "duration": 39, "velocity": 117}, {"time": 65282, "pitch": 57, "duration": 153, "velocity": 117}, {"time": 65282, "pitch": 62, "duration": 187, "velocity": 100}, {"time": 65282, "pitch": 67, "duration": 144, "velocity": 117}, {"time": 65523, "pitch": 57, "duration": 150, "velocity": 117}, {"time": 65523, "pitch": 62, "duration": 188, "velocity": 117}, {"time": 65523, "pitch": 66, "duration": 177, "velocity": 117}, {"time": 65763, "pitch": 40, "duration": 168, "velocity": 117}, {"time": 65763, "pitch": 67, "duration": 168, "velocity": 117}, {"time": 65763, "pitch": 71, "duration": 168, "velocity": 117}, {"time": 65763, "pitch": 74, "duration": 168, "velocity": 117}, {"time": 66119, "pitch": 40, "duration": 169, "velocity": 117}, {"time": 66119, "pitch": 67, "duration": 169, "velocity": 117}, {"time": 66119, "pitch": 71, "duration": 169, "velocity": 117}, {"time": 66119, "pitch": 74, "duration": 169, "velocity": 117}, {"time": 66478, "pitch": 45, "duration": 160, "velocity": 117}, {"time": 66478, "pitch": 69, "duration": 160, "velocity": 117}, {"time": 66478, "pitch": 73, "duration": 160, "velocity": 117}, {"time": 66478, "pitch": 76, "duration": 160, "velocity": 117}, {"time": 67681, "pitch": 50, "duration": 883, "velocity": 117}, {"time": 67681, "pitch": 57, "duration": 867, "velocity": 117}, {"time": 67681, "pitch": 62, "duration": 841, "velocity": 117}, {"time": 67681, "pitch": 66, "duration": 833, "velocity": 117}, {"time": 68637, "pitch": 49, "duration": 896, "velocity": 117}, {"time": 68637, "pitch": 57, "duration": 839, "velocity": 117}, {"time": 68637, "pitch": 61, "duration": 851, "velocity": 117}, {"time": 68637, "pitch": 64, "duration": 855, "velocity": 117}, {"time": 69599, "pitch": 47, "duration": 913, "velocity": 117}, {"time": 69599, "pitch": 59, "duration": 857, "velocity": 117}, {"time": 69599, "pitch": 62, "duration": 864, "velocity": 117}, {"time": 69599, "pitch": 66, "duration": 837, "velocity": 117}, {"time": 70562, "pitch": 45, "duration": 853, "velocity": 117}, {"time": 70562, "pitch": 57, "duration": 819, "velocity": 117}, {"time": 70562, "pitch": 61, "duration": 832, "velocity": 117}, {"time": 70562, "pitch": 64, "duration": 813, "velocity": 117}, {"time": 71517, "pitch": 43, "duration": 860, "velocity": 117}, {"time": 71517, "pitch": 55, "duration": 768, "velocity": 117}, {"time": 71517, "pitch": 59, "duration": 825, "velocity": 117}, {"time": 71517, "pitch": 62, "duration": 858, "velocity": 117}, {"time": 72480, "pitch": 42, "duration": 857, "velocity": 117}, {"time": 72480, "pitch": 54, "duration": 770, "velocity": 117}, {"time": 72480, "pitch": 57, "duration": 840, "velocity": 117}, {"time": 72480, "pitch": 62, "duration": 860, "velocity": 117}, {"time": 73443, "pitch": 40, "duration": 867, "velocity": 117}, {"time": 73443, "pitch": 55, "duration": 759, "velocity": 117}, {"time": 73443, "pitch": 59, "duration": 811, "velocity": 117}, {"time": 73443, "pitch": 62, "duration": 829, "velocity": 117}, {"time": 74398, "pitch": 45, "duration": 788, "velocity": 117}, {"time": 74398, "pitch": 57, "duration": 867, "velocity": 117}, {"time": 74398, "pitch": 61, "duration": 843, "velocity": 117}, {"time": 74398, "pitch": 64, "duration": 396, "velocity": 117}, {"time": 74759, "pitch": 66, "duration": 399, "velocity": 117}, {"time": 75120, "pitch": 67, "duration": 154, "velocity": 117}, {"time": 75361, "pitch": 50, "duration": 888, "velocity": 117}, {"time": 75361, "pitch": 57, "duration": 872, "velocity": 117}, {"time": 75361, "pitch": 62, "duration": 846, "velocity": 117}, {"time": 75361, "pitch": 66, "duration": 838, "velocity": 117}, {"time": 76323, "pitch": 49, "duration": 890, "velocity": 117}, {"time": 76323, "pitch": 57, "duration": 832, "velocity": 117}, {"time": 76323, "pitch": 61, "duration": 844, "velocity": 117}, {"time": 76323, "pitch": 64, "duration": 848, "velocity": 117}, {"time": 77279, "pitch": 47, "duration": 912, "velocity": 117}, {"time": 77279, "pitch": 59, "duration": 856, "velocity": 117}, {"time": 77279, "pitch": 62, "duration": 863, "velocity": 117}, {"time": 77279, "pitch": 66, "duration": 836, "velocity": 117}, {"time": 78241, "pitch": 45, "duration": 853, "velocity": 117}, {"time": 78241, "pitch": 57, "duration": 819, "velocity": 117}, {"time": 78241, "pitch": 61, "duration": 832, "velocity": 117}, {"time": 78241, "pitch": 64, "duration": 814, "velocity": 117}, {"time": 79197, "pitch": 43, "duration": 859, "velocity": 117}, {"time": 79197, "pitch": 55, "duration": 768, "velocity": 117}, {"time": 79197, "pitch": 59, "duration": 824, "velocity": 117}, {"time": 79197, "pitch": 62, "duration": 857, "velocity": 117}, {"time": 80159, "pitch": 42, "duration": 858, "velocity": 117}, {"time": 80159, "pitch": 54, "duration": 770, "velocity": 117}, {"time": 80159, "pitch": 57, "duration": 841, "velocity": 117}, {"time": 80159, "pitch": 62, "duration": 861, "velocity": 117}, {"time": 81122, "pitch": 40, "duration": 868, "velocity": 117}, {"time": 81122, "pitch": 55, "duration": 762, "velocity": 117}, {"time": 81122, "pitch": 59, "duration": 813, "velocity": 117}, {"time": 81122, "pitch": 62, "duration": 831, "velocity": 117}, {"time": 82077, "pitch": 45, "duration": 789, "velocity": 117}, {"time": 82077, "pitch": 57, "duration": 868, "velocity": 117}, {"time": 82077, "pitch": 61, "duration": 844, "velocity": 117}, {"time": 82077, "pitch": 64, "duration": 396, "velocity": 117}, {"time": 82438, "pitch": 66, "duration": 399, "velocity": 117}, {"time": 82799, "pitch": 67, "duration": 155, "velocity": 117}, {"time": 83040, "pitch": 40, "duration": 180, "velocity": 117}, {"time": 83040, "pitch": 55, "duration": 180, "velocity": 117}, {"time": 83040, "pitch": 59, "duration": 180, "velocity": 117}, {"time": 83040, "pitch": 62, "duration": 180, "velocity": 117}, {"time": 83401, "pitch": 45, "duration": 180, "velocity": 117}, {"time": 83401, "pitch": 57, "duration": 180, "velocity": 117}, {"time": 83401, "pitch": 61, "duration": 180, "velocity": 117}, {"time": 83401, "pitch": 64, "duration": 180, "velocity": 117}, {"time": 83762, "pitch": 50, "duration": 180, "velocity": 117}, {"time": 83762, "pitch": 57, "duration": 180, "velocity": 117}, {"time": 83762, "pitch": 62, "duration": 180, "velocity": 117}, {"time": 83762, "pitch": 66, "duration": 180, "velocity": 117}, {"time": 84958, "pitch": 57, "duration": 261, "velocity": 117}, {"time": 84958, "pitch": 62, "duration": 275, "velocity": 117}, {"time": 84958, "pitch": 66, "duration": 268, "velocity": 117}, {"time": 85319, "pitch": 57, "duration": 207, "velocity": 117}, {"time": 85319, "pitch": 62, "duration": 256, "velocity": 117}, {"time": 85319, "pitch": 66, "duration": 243, "velocity": 117}, {"time": 85680, "pitch": 57, "duration": 241, "velocity": 117}, {"time": 85680, "pitch": 62, "duration": 265, "velocity": 117}, {"time": 85680, "pitch": 66, "duration": 248, "velocity": 117}, {"time": 86041, "pitch": 57, "duration": 216, "velocity": 117}, {"time": 86041, "pitch": 61, "duration": 259, "velocity": 117}, {"time": 86041, "pitch": 64, "duration": 223, "velocity": 117}, {"time": 86402, "pitch": 57, "duration": 108, "velocity": 117}, {"time": 86402, "pitch": 61, "duration": 136, "velocity": 117}, {"time": 86402, "pitch": 64, "duration": 145, "velocity": 117}, {"time": 86643, "pitch": 57, "duration": 113, "velocity": 117}, {"time": 86643, "pitch": 61, "duration": 151, "velocity": 117}, {"time": 86643, "pitch": 64, "duration": 149, "velocity": 117}, {"time": 86883, "pitch": 59, "duration": 243, "velocity": 117}, {"time": 86883, "pitch": 62, "duration": 273, "velocity": 117}, {"time": 86883, "pitch": 66, "duration": 265, "velocity": 117}, {"time": 87239, "pitch": 59, "duration": 209, "velocity": 117}, {"time": 87239, "pitch": 62, "duration": 243, "velocity": 117}, {"time": 87239, "pitch": 66, "duration": 239, "velocity": 117}, {"time": 87598, "pitch": 59, "duration": 217, "velocity": 117}, {"time": 87598, "pitch": 62, "duration": 236, "velocity": 117}, {"time": 87598, "pitch": 66, "duration": 247, "velocity": 117}, {"time": 87959, "pitch": 59, "duration": 189, "velocity": 117}, {"time": 87959, "pitch": 62, "duration": 224, "velocity": 117}, {"time": 87959, "pitch": 67, "duration": 232, "velocity": 117}, {"time": 88320, "pitch": 59, "duration": 104, "velocity": 117}, {"time": 88320, "pitch": 62, "duration": 120, "velocity": 117}, {"time": 88320, "pitch": 67, "duration": 163, "velocity": 117}, {"time": 88561, "pitch": 59, "duration": 116, "velocity": 117}, {"time": 88561, "pitch": 62, "duration": 67, "velocity": 117}, {"time": 88561, "pitch": 67, "duration": 136, "velocity": 117}, {"time": 88801, "pitch": 57, "duration": 259, "velocity": 117}, {"time": 88801, "pitch": 62, "duration": 277, "velocity": 117}, {"time": 88801, "pitch": 66, "duration": 288, "velocity": 117}, {"time": 89162, "pitch": 57, "duration": 224, "velocity": 117}, {"time": 89162, "pitch": 62, "duration": 250, "velocity": 117}, {"time": 89162, "pitch": 66, "duration": 232, "velocity": 117}, {"time": 89520, "pitch": 57, "duration": 239, "velocity": 117}, {"time": 89520, "pitch": 62, "duration": 252, "velocity": 117}, {"time": 89520, "pitch": 66, "duration": 257, "velocity": 117}, {"time": 89877, "pitch": 59, "duration": 190, "velocity": 117}, {"time": 89877, "pitch": 62, "duration": 221, "velocity": 117}, {"time": 89877, "pitch": 66, "duration": 211, "velocity": 117}, {"time": 90238, "pitch": 59, "duration": 128, "velocity": 117}, {"time": 90238, "pitch": 62, "duration": 159, "velocity": 117}, {"time": 90238, "pitch": 66, "duration": 139, "velocity": 117}, {"time": 90479, "pitch": 59, "duration": 91, "velocity": 117}, {"time": 90479, "pitch": 62, "duration": 144, "velocity": 117}, {"time": 90479, "pitch": 66, "duration": 118, "velocity": 117}, {"time": 90719, "pitch": 55, "duration": 201, "velocity": 117}, {"time": 90719, "pitch": 59, "duration": 250, "velocity": 117}, {"time": 90719, "pitch": 62, "duration": 274, "velocity": 117}, {"time": 90719, "pitch": 67, "duration": 249, "velocity": 117}, {"time": 91080, "pitch": 55, "duration": 248, "velocity": 117}, {"time": 91080, "pitch": 59, "duration": 241, "velocity": 117}, {"time": 91080, "pitch": 62, "duration": 259, "velocity": 117}, {"time": 91080, "pitch": 67, "duration": 242, "velocity": 117}, {"time": 91441, "pitch": 55, "duration": 231, "velocity": 117}, {"time": 91441, "pitch": 59, "duration": 222, "velocity": 117}, {"time": 91441, "pitch": 62, "duration": 242, "velocity": 117}, {"time": 91441, "pitch": 67, "duration": 233, "velocity": 117}, {"time": 91802, "pitch": 57, "duration": 199, "velocity": 117}, {"time": 91802, "pitch": 61, "duration": 211, "velocity": 117}, {"time": 91802, "pitch": 64, "duration": 213, "velocity": 117}, {"time": 91802, "pitch": 69, "duration": 210, "velocity": 117}, {"time": 92163, "pitch": 57, "duration": 152, "velocity": 117}, {"time": 92163, "pitch": 61, "duration": 152, "velocity": 117}, {"time": 92163, "pitch": 64, "duration": 138, "velocity": 117}, {"time": 92400, "pitch": 57, "duration": 131, "velocity": 117}, {"time": 92400, "pitch": 61, "duration": 153, "velocity": 117}, {"time": 92400, "pitch": 64, "duration": 127, "velocity": 117}, {"time": 92637, "pitch": 57, "duration": 261, "velocity": 117}, {"time": 92637, "pitch": 62, "duration": 275, "velocity": 117}, {"time": 92637, "pitch": 66, "duration": 268, "velocity": 117}, {"time": 92998, "pitch": 57, "duration": 207, "velocity": 117}, {"time": 92998, "pitch": 62, "duration": 256, "velocity": 117}, {"time": 92998, "pitch": 66, "duration": 243, "velocity": 117}, {"time": 93359, "pitch": 57, "duration": 241, "velocity": 117}, {"time": 93359, "pitch": 62, "duration": 265, "velocity": 117}, {"time": 93359, "pitch": 66, "duration": 248, "velocity": 117}, {"time": 93720, "pitch": 57, "duration": 216, "velocity": 117}, {"time": 93720, "pitch": 61, "duration": 259, "velocity": 117}, {"time": 93720, "pitch": 64, "duration": 223, "velocity": 117}, {"time": 94081, "pitch": 57, "duration": 109, "velocity": 117}, {"time": 94081, "pitch": 61, "duration": 137, "velocity": 117}, {"time": 94081, "pitch": 64, "duration": 146, "velocity": 117}, {"time": 94322, "pitch": 57, "duration": 113, "velocity": 117}, {"time": 94322, "pitch": 61, "duration": 151, "velocity": 117}, {"time": 94322, "pitch": 64, "duration": 149, "velocity": 117}, {"time": 94563, "pitch": 59, "duration": 243, "velocity": 117}, {"time": 94563, "pitch": 62, "duration": 272, "velocity": 117}, {"time": 94563, "pitch": 66, "duration": 264, "velocity": 117}, {"time": 94918, "pitch": 59, "duration": 209, "velocity": 117}, {"time": 94918, "pitch": 62, "duration": 243, "velocity": 117}, {"time": 94918, "pitch": 66, "duration": 239, "velocity": 117}, {"time": 95277, "pitch": 59, "duration": 217, "velocity": 117}, {"time": 95277, "pitch": 62, "duration": 236, "velocity": 117}, {"time": 95277, "pitch": 66, "duration": 247, "velocity": 117}, {"time": 95638, "pitch": 59, "duration": 189, "velocity": 117}, {"time": 95638, "pitch": 62, "duration": 224, "velocity": 117}, {"time": 95638, "pitch": 67, "duration": 232, "velocity": 117}, {"time": 95999, "pitch": 59, "duration": 105, "velocity": 117}, {"time": 95999, "pitch": 62, "duration": 121, "velocity": 117}, {"time": 95999, "pitch": 67, "duration": 164, "velocity": 117}, {"time": 96240, "pitch": 59, "duration": 116, "velocity": 117}, {"time": 96240, "pitch": 62, "duration": 67, "velocity": 117}, {"time": 96240, "pitch": 67, "duration": 136, "velocity": 117}, {"time": 96481, "pitch": 57, "duration": 258, "velocity": 117}, {"time": 96481, "pitch": 62, "duration": 276, "velocity": 117}, {"time": 96481, "pitch": 66, "duration": 287, "velocity": 117}, {"time": 96842, "pitch": 57, "duration": 225, "velocity": 117}, {"time": 96842, "pitch": 62, "duration": 251, "velocity": 117}, {"time": 96842, "pitch": 66, "duration": 233, "velocity": 117}, {"time": 97203, "pitch": 57, "duration": 242, "velocity": 117}, {"time": 97203, "pitch": 62, "duration": 255, "velocity": 117}, {"time": 97203, "pitch": 66, "duration": 260, "velocity": 117}, {"time": 97562, "pitch": 59, "duration": 186, "velocity": 117}, {"time": 97562, "pitch": 62, "duration": 217, "velocity": 117}, {"time": 97562, "pitch": 66, "duration": 207, "velocity": 117}, {"time": 97917, "pitch": 59, "duration": 129, "velocity": 117}, {"time": 97917, "pitch": 62, "duration": 160, "velocity": 117}, {"time": 97917, "pitch": 66, "duration": 140, "velocity": 117}, {"time": 98158, "pitch": 59, "duration": 91, "velocity": 117}, {"time": 98158, "pitch": 62, "duration": 144, "velocity": 117}, {"time": 98158, "pitch": 66, "duration": 118, "velocity": 117}, {"time": 98399, "pitch": 55, "duration": 200, "velocity": 117}, {"time": 98399, "pitch": 59, "duration": 249, "velocity": 117}, {"time": 98399, "pitch": 62, "duration": 273, "velocity": 117}, {"time": 98399, "pitch": 67, "duration": 248, "velocity": 117}, {"time": 98760, "pitch": 55, "duration": 247, "velocity": 117}, {"time": 98760, "pitch": 59, "duration": 240, "velocity": 117}, {"time": 98760, "pitch": 62, "duration": 258, "velocity": 117}, {"time": 98760, "pitch": 67, "duration": 241, "velocity": 117}, {"time": 99121, "pitch": 55, "duration": 230, "velocity": 117}, {"time": 99121, "pitch": 59, "duration": 221, "velocity": 117}, {"time": 99121, "pitch": 62, "duration": 240, "velocity": 117}, {"time": 99121, "pitch": 67, "duration": 232, "velocity": 117}, {"time": 99361, "pitch": 62, "duration": 1, "velocity": 117}, {"time": 99482, "pitch": 57, "duration": 198, "velocity": 117}, {"time": 99482, "pitch": 61, "duration": 210, "velocity": 117}, {"time": 99482, "pitch": 64, "duration": 212, "velocity": 117}, {"time": 99482, "pitch": 69, "duration": 209, "velocity": 117}, {"time": 99843, "pitch": 57, "duration": 152, "velocity": 117}, {"time": 99843, "pitch": 61, "duration": 152, "velocity": 117}, {"time": 99843, "pitch": 64, "duration": 138, "velocity": 117}, {"time": 100080, "pitch": 57, "duration": 130, "velocity": 117}, {"time": 100080, "pitch": 61, "duration": 153, "velocity": 117}, {"time": 100080, "pitch": 64, "duration": 126, "velocity": 117}, {"time": 100317, "pitch": 43, "duration": 3257, "velocity": 117}, {"time": 100317, "pitch": 59, "duration": 1114, "velocity": 115}, {"time": 100317, "pitch": 62, "duration": 1173, "velocity": 117}, {"time": 100317, "pitch": 66, "duration": 1182, "velocity": 117}, {"time": 101520, "pitch": 59, "duration": 2012, "velocity": 117}, {"time": 101761, "pitch": 62, "duration": 1804, "velocity": 112}, {"time": 102001, "pitch": 66, "duration": 1581, "velocity": 112}, {"time": 102242, "pitch": 71, "duration": 1191, "velocity": 109}, {"time": 103679, "pitch": 43, "duration": 407, "velocity": 117}, {"time": 103679, "pitch": 59, "duration": 383, "velocity": 98}, {"time": 103679, "pitch": 62, "duration": 404, "velocity": 117}, {"time": 103679, "pitch": 66, "duration": 298, "velocity": 117}, {"time": 103919, "pitch": 67, "duration": 153, "velocity": 103}, {"time": 104160, "pitch": 45, "duration": 3743, "velocity": 117}, {"time": 104160, "pitch": 57, "duration": 1038, "velocity": 115}, {"time": 104160, "pitch": 61, "duration": 1138, "velocity": 117}, {"time": 104160, "pitch": 64, "duration": 1140, "velocity": 117}, {"time": 105360, "pitch": 57, "duration": 2510, "velocity": 117}, {"time": 105597, "pitch": 61, "duration": 2311, "velocity": 117}, {"time": 105837, "pitch": 64, "duration": 2063, "velocity": 84}, {"time": 106078, "pitch": 69, "duration": 1671, "velocity": 116}, {"time": 108003, "pitch": 43, "duration": 1350, "velocity": 117}, {"time": 108003, "pitch": 55, "duration": 827, "velocity": 99}, {"time": 108003, "pitch": 59, "duration": 854, "velocity": 117}, {"time": 108003, "pitch": 62, "duration": 848, "velocity": 116}, {"time": 108003, "pitch": 66, "duration": 793, "velocity": 117}, {"time": 108959, "pitch": 55, "duration": 353, "velocity": 116}, {"time": 108959, "pitch": 59, "duration": 390, "velocity": 96}, {"time": 108959, "pitch": 67, "duration": 324, "velocity": 117}, {"time": 109440, "pitch": 43, "duration": 348, "velocity": 117}, {"time": 109440, "pitch": 55, "duration": 287, "velocity": 98}, {"time": 109440, "pitch": 59, "duration": 337, "velocity": 112}, {"time": 109440, "pitch": 66, "duration": 316, "velocity": 117}, {"time": 109921, "pitch": 42, "duration": 835, "velocity": 117}, {"time": 109921, "pitch": 57, "duration": 214, "velocity": 117}, {"time": 109921, "pitch": 61, "duration": 641, "velocity": 117}, {"time": 109921, "pitch": 64, "duration": 328, "velocity": 117}, {"time": 110282, "pitch": 57, "duration": 241, "velocity": 109}, {"time": 110282, "pitch": 66, "duration": 234, "velocity": 117}, {"time": 110403, "pitch": 64, "duration": 32, "velocity": 13}, {"time": 110640, "pitch": 57, "duration": 156, "velocity": 100}, {"time": 110640, "pitch": 61, "duration": 197, "velocity": 25}, {"time": 110640, "pitch": 67, "duration": 143, "velocity": 117}, {"time": 110877, "pitch": 42, "duration": 381, "velocity": 117}, {"time": 110877, "pitch": 57, "duration": 365, "velocity": 105}, {"time": 110877, "pitch": 61, "duration": 397, "velocity": 117}, {"time": 110877, "pitch": 66, "duration": 355, "velocity": 117}, {"time": 111358, "pitch": 42, "duration": 323, "velocity": 117}, {"time": 111358, "pitch": 57, "duration": 275, "velocity": 103}, {"time": 111358, "pitch": 61, "duration": 323, "velocity": 117}, {"time": 111358, "pitch": 64, "duration": 315, "velocity": 117}, {"time": 111839, "pitch": 40, "duration": 846, "velocity": 117}, {"time": 111839, "pitch": 55, "duration": 839, "velocity": 117}, {"time": 111839, "pitch": 59, "duration": 889, "velocity": 117}, {"time": 111839, "pitch": 62, "duration": 853, "velocity": 117}, {"time": 112802, "pitch": 40, "duration": 410, "velocity": 117}, {"time": 112802, "pitch": 55, "duration": 399, "velocity": 109}, {"time": 112802, "pitch": 59, "duration": 424, "velocity": 114}, {"time": 112802, "pitch": 64, "duration": 398, "velocity": 117}, {"time": 113283, "pitch": 40, "duration": 374, "velocity": 117}, {"time": 113283, "pitch": 55, "duration": 309, "velocity": 103}, {"time": 113283, "pitch": 59, "duration": 343, "velocity": 103}, {"time": 113283, "pitch": 62, "duration": 343, "velocity": 117}, {"time": 113757, "pitch": 45, "duration": 637, "velocity": 117}, {"time": 113757, "pitch": 55, "duration": 624, "velocity": 104}, {"time": 113757, "pitch": 59, "duration": 655, "velocity": 110}, {"time": 113757, "pitch": 62, "duration": 640, "velocity": 117}, {"time": 114479, "pitch": 45, "duration": 710, "velocity": 117}, {"time": 114479, "pitch": 57, "duration": 388, "velocity": 117}, {"time": 114479, "pitch": 61, "duration": 436, "velocity": 117}, {"time": 114479, "pitch": 64, "duration": 412, "velocity": 117}, {"time": 114961, "pitch": 57, "duration": 175, "velocity": 117}, {"time": 114961, "pitch": 61, "duration": 577, "velocity": 117}, {"time": 114961, "pitch": 66, "duration": 178, "velocity": 114}, {"time": 115201, "pitch": 45, "duration": 432, "velocity": 20}, {"time": 115201, "pitch": 57, "duration": 275, "velocity": 108}, {"time": 115201, "pitch": 64, "duration": 348, "velocity": 117}, {"time": 115682, "pitch": 45, "duration": 149, "velocity": 109}, {"time": 115682, "pitch": 57, "duration": 149, "velocity": 99}, {"time": 115682, "pitch": 62, "duration": 149, "velocity": 117}, {"time": 115682, "pitch": 64, "duration": 149, "velocity": 117}, {"time": 116038, "pitch": 45, "duration": 199, "velocity": 117}, {"time": 116038, "pitch": 57, "duration": 199, "velocity": 95}, {"time": 116038, "pitch": 62, "duration": 199, "velocity": 117}, {"time": 116038, "pitch": 64, "duration": 199, "velocity": 117}, {"time": 116397, "pitch": 45, "duration": 151, "velocity": 117}, {"time": 116397, "pitch": 57, "duration": 151, "velocity": 115}, {"time": 116397, "pitch": 62, "duration": 151, "velocity": 117}, {"time": 116397, "pitch": 64, "duration": 151, "velocity": 117}, {"time": 116758, "pitch": 45, "duration": 201, "velocity": 117}, {"time": 116758, "pitch": 57, "duration": 201, "velocity": 112}, {"time": 116758, "pitch": 62, "duration": 201, "velocity": 117}, {"time": 116758, "pitch": 64, "duration": 201, "velocity": 117}, {"time": 117119, "pitch": 45, "duration": 151, "velocity": 117}, {"time": 117119, "pitch": 57, "duration": 151, "velocity": 117}, {"time": 117119, "pitch": 62, "duration": 151, "velocity": 117}, {"time": 117119, "pitch": 64, "duration": 151, "velocity": 117}, {"time": 117360, "pitch": 45, "duration": 150, "velocity": 117}, {"time": 117360, "pitch": 57, "duration": 150, "velocity": 108}, {"time": 117360, "pitch": 62, "duration": 150, "velocity": 117}, {"time": 117360, "pitch": 64, "duration": 150, "velocity": 117}, {"time": 117601, "pitch": 45, "duration": 150, "velocity": 117}, {"time": 117601, "pitch": 57, "duration": 150, "velocity": 117}, {"time": 117601, "pitch": 61, "duration": 150, "velocity": 117}, {"time": 117601, "pitch": 64, "duration": 150, "velocity": 117}, {"time": 123362, "pitch": 57, "duration": 259, "velocity": 117}, {"time": 123362, "pitch": 62, "duration": 277, "velocity": 117}, {"time": 123362, "pitch": 66, "duration": 288, "velocity": 117}, {"time": 123723, "pitch": 57, "duration": 224, "velocity": 117}, {"time": 123723, "pitch": 62, "duration": 250, "velocity": 117}, {"time": 123723, "pitch": 66, "duration": 232, "velocity": 117}, {"time": 124080, "pitch": 57, "duration": 239, "velocity": 117}, {"time": 124080, "pitch": 62, "duration": 252, "velocity": 117}, {"time": 124080, "pitch": 66, "duration": 257, "velocity": 117}, {"time": 124438, "pitch": 59, "duration": 189, "velocity": 117}, {"time": 124438, "pitch": 62, "duration": 220, "velocity": 117}, {"time": 124438, "pitch": 66, "duration": 210, "velocity": 117}, {"time": 124799, "pitch": 59, "duration": 128, "velocity": 117}, {"time": 124799, "pitch": 62, "duration": 159, "velocity": 117}, {"time": 124799, "pitch": 66, "duration": 139, "velocity": 117}, {"time": 125039, "pitch": 59, "duration": 92, "velocity": 117}, {"time": 125039, "pitch": 62, "duration": 145, "velocity": 117}, {"time": 125039, "pitch": 66, "duration": 119, "velocity": 117}, {"time": 125280, "pitch": 55, "duration": 201, "velocity": 117}, {"time": 125280, "pitch": 59, "duration": 250, "velocity": 117}, {"time": 125280, "pitch": 62, "duration": 274, "velocity": 117}, {"time": 125280, "pitch": 67, "duration": 249, "velocity": 117}, {"time": 125641, "pitch": 55, "duration": 248, "velocity": 117}, {"time": 125641, "pitch": 59, "duration": 241, "velocity": 117}, {"time": 125641, "pitch": 62, "duration": 259, "velocity": 117}, {"time": 125641, "pitch": 67, "duration": 242, "velocity": 117}, {"time": 126002, "pitch": 55, "duration": 231, "velocity": 117}, {"time": 126002, "pitch": 59, "duration": 221, "velocity": 117}, {"time": 126002, "pitch": 62, "duration": 241, "velocity": 117}, {"time": 126002, "pitch": 67, "duration": 233, "velocity": 117}, {"time": 126361, "pitch": 57, "duration": 196, "velocity": 117}, {"time": 126361, "pitch": 61, "duration": 208, "velocity": 117}, {"time": 126361, "pitch": 64, "duration": 210, "velocity": 117}, {"time": 126361, "pitch": 69, "duration": 207, "velocity": 117}, {"time": 126717, "pitch": 57, "duration": 154, "velocity": 117}, {"time": 126717, "pitch": 61, "duration": 154, "velocity": 117}, {"time": 126717, "pitch": 64, "duration": 140, "velocity": 117}, {"time": 126957, "pitch": 57, "duration": 133, "velocity": 117}, {"time": 126957, "pitch": 61, "duration": 156, "velocity": 117}, {"time": 126957, "pitch": 64, "duration": 129, "velocity": 117}, {"time": 127198, "pitch": 57, "duration": 261, "velocity": 117}, {"time": 127198, "pitch": 62, "duration": 275, "velocity": 117}, {"time": 127198, "pitch": 66, "duration": 268, "velocity": 117}, {"time": 127559, "pitch": 57, "duration": 207, "velocity": 117}, {"time": 127559, "pitch": 62, "duration": 256, "velocity": 117}, {"time": 127559, "pitch": 66, "duration": 243, "velocity": 117}, {"time": 127920, "pitch": 57, "duration": 241, "velocity": 117}, {"time": 127920, "pitch": 62, "duration": 265, "velocity": 117}, {"time": 127920, "pitch": 66, "duration": 248, "velocity": 117}, {"time": 128281, "pitch": 57, "duration": 216, "velocity": 117}, {"time": 128281, "pitch": 61, "duration": 259, "velocity": 117}, {"time": 128281, "pitch": 64, "duration": 223, "velocity": 117}, {"time": 128642, "pitch": 57, "duration": 108, "velocity": 117}, {"time": 128642, "pitch": 61, "duration": 136, "velocity": 117}, {"time": 128642, "pitch": 64, "duration": 145, "velocity": 117}, {"time": 128883, "pitch": 57, "duration": 113, "velocity": 117}, {"time": 128883, "pitch": 61, "duration": 151, "velocity": 117}, {"time": 128883, "pitch": 64, "duration": 149, "velocity": 117}, {"time": 129123, "pitch": 59, "duration": 243, "velocity": 117}, {"time": 129123, "pitch": 62, "duration": 273, "velocity": 117}, {"time": 129123, "pitch": 66, "duration": 265, "velocity": 117}, {"time": 129479, "pitch": 59, "duration": 209, "velocity": 117}, {"time": 129479, "pitch": 62, "duration": 243, "velocity": 117}, {"time": 129479, "pitch": 66, "duration": 239, "velocity": 117}, {"time": 129838, "pitch": 59, "duration": 217, "velocity": 117}, {"time": 129838, "pitch": 62, "duration": 236, "velocity": 117}, {"time": 129838, "pitch": 66, "duration": 247, "velocity": 117}, {"time": 130199, "pitch": 59, "duration": 189, "velocity": 117}, {"time": 130199, "pitch": 62, "duration": 224, "velocity": 117}, {"time": 130199, "pitch": 67, "duration": 232, "velocity": 117}, {"time": 130560, "pitch": 59, "duration": 104, "velocity": 117}, {"time": 130560, "pitch": 62, "duration": 120, "velocity": 117}, {"time": 130560, "pitch": 67, "duration": 163, "velocity": 117}, {"time": 130801, "pitch": 59, "duration": 116, "velocity": 117}, {"time": 130801, "pitch": 62, "duration": 67, "velocity": 117}, {"time": 130801, "pitch": 67, "duration": 136, "velocity": 117}, {"time": 131041, "pitch": 57, "duration": 259, "velocity": 117}, {"time": 131041, "pitch": 62, "duration": 277, "velocity": 117}, {"time": 131041, "pitch": 66, "duration": 288, "velocity": 117}, {"time": 131402, "pitch": 57, "duration": 224, "velocity": 117}, {"time": 131402, "pitch": 62, "duration": 250, "velocity": 117}, {"time": 131402, "pitch": 66, "duration": 232, "velocity": 117}, {"time": 131760, "pitch": 57, "duration": 239, "velocity": 117}, {"time": 131760, "pitch": 62, "duration": 252, "velocity": 117}, {"time": 131760, "pitch": 66, "duration": 257, "velocity": 117}, {"time": 132117, "pitch": 59, "duration": 190, "velocity": 117}, {"time": 132117, "pitch": 62, "duration": 221, "velocity": 117}, {"time": 132117, "pitch": 66, "duration": 211, "velocity": 117}, {"time": 132478, "pitch": 59, "duration": 128, "velocity": 117}, {"time": 132478, "pitch": 62, "duration": 159, "velocity": 117}, {"time": 132478, "pitch": 66, "duration": 139, "velocity": 117}, {"time": 132719, "pitch": 59, "duration": 91, "velocity": 117}, {"time": 132719, "pitch": 62, "duration": 144, "velocity": 117}, {"time": 132719, "pitch": 66, "duration": 118, "velocity": 117}, {"time": 132959, "pitch": 55, "duration": 201, "velocity": 117}, {"time": 132959, "pitch": 59, "duration": 250, "velocity": 117}, {"time": 132959, "pitch": 62, "duration": 274, "velocity": 117}, {"time": 132959, "pitch": 67, "duration": 249, "velocity": 117}, {"time": 133320, "pitch": 55, "duration": 248, "velocity": 117}, {"time": 133320, "pitch": 59, "duration": 241, "velocity": 117}, {"time": 133320, "pitch": 62, "duration": 259, "velocity": 117}, {"time": 133320, "pitch": 67, "duration": 242, "velocity": 117}, {"time": 133681, "pitch": 55, "duration": 231, "velocity": 117}, {"time": 133681, "pitch": 59, "duration": 222, "velocity": 117}, {"time": 133681, "pitch": 62, "duration": 242, "velocity": 117}, {"time": 133681, "pitch": 67, "duration": 233, "velocity": 117}, {"time": 134042, "pitch": 57, "duration": 199, "velocity": 117}, {"time": 134042, "pitch": 61, "duration": 211, "velocity": 117}, {"time": 134042, "pitch": 64, "duration": 213, "velocity": 117}, {"time": 134042, "pitch": 69, "duration": 210, "velocity": 117}, {"time": 134403, "pitch": 57, "duration": 152, "velocity": 117}, {"time": 134403, "pitch": 61, "duration": 152, "velocity": 117}, {"time": 134403, "pitch": 64, "duration": 138, "velocity": 117}, {"time": 134640, "pitch": 57, "duration": 131, "velocity": 117}, {"time": 134640, "pitch": 61, "duration": 153, "velocity": 117}, {"time": 134640, "pitch": 64, "duration": 127, "velocity": 117}, {"time": 134877, "pitch": 57, "duration": 261, "velocity": 117}, {"time": 134877, "pitch": 62, "duration": 275, "velocity": 117}, {"time": 134877, "pitch": 66, "duration": 268, "velocity": 117}, {"time": 135238, "pitch": 57, "duration": 207, "velocity": 117}, {"time": 135238, "pitch": 62, "duration": 256, "velocity": 117}, {"time": 135238, "pitch": 66, "duration": 243, "velocity": 117}, {"time": 135599, "pitch": 57, "duration": 241, "velocity": 117}, {"time": 135599, "pitch": 62, "duration": 265, "velocity": 117}, {"time": 135599, "pitch": 66, "duration": 248, "velocity": 117}, {"time": 135960, "pitch": 57, "duration": 216, "velocity": 117}, {"time": 135960, "pitch": 61, "duration": 259, "velocity": 117}, {"time": 135960, "pitch": 64, "duration": 223, "velocity": 117}, {"time": 136321, "pitch": 57, "duration": 109, "velocity": 117}, {"time": 136321, "pitch": 61, "duration": 137, "velocity": 117}, {"time": 136321, "pitch": 64, "duration": 146, "velocity": 117}, {"time": 136562, "pitch": 57, "duration": 113, "velocity": 117}, {"time": 136562, "pitch": 61, "duration": 151, "velocity": 117}, {"time": 136562, "pitch": 64, "duration": 149, "velocity": 117}, {"time": 136802, "pitch": 59, "duration": 244, "velocity": 117}, {"time": 136802, "pitch": 62, "duration": 273, "velocity": 117}, {"time": 136802, "pitch": 66, "duration": 265, "velocity": 117}, {"time": 137158, "pitch": 59, "duration": 209, "velocity": 117}, {"time": 137158, "pitch": 62, "duration": 243, "velocity": 117}, {"time": 137158, "pitch": 66, "duration": 239, "velocity": 117}, {"time": 137517, "pitch": 59, "duration": 217, "velocity": 117}, {"time": 137517, "pitch": 62, "duration": 236, "velocity": 117}, {"time": 137517, "pitch": 66, "duration": 247, "velocity": 117}, {"time": 137878, "pitch": 59, "duration": 189, "velocity": 117}, {"time": 137878, "pitch": 62, "duration": 224, "velocity": 117}, {"time": 137878, "pitch": 67, "duration": 232, "velocity": 117}, {"time": 138239, "pitch": 59, "duration": 105, "velocity": 117}, {"time": 138239, "pitch": 62, "duration": 121, "velocity": 117}, {"time": 138239, "pitch": 67, "duration": 164, "velocity": 117}, {"time": 138480, "pitch": 59, "duration": 116, "velocity": 117}, {"time": 138480, "pitch": 62, "duration": 67, "velocity": 117}, {"time": 138480, "pitch": 67, "duration": 136, "velocity": 117}, {"time": 138721, "pitch": 57, "duration": 258, "velocity": 117}, {"time": 138721, "pitch": 62, "duration": 276, "velocity": 117}, {"time": 138721, "pitch": 66, "duration": 287, "velocity": 117}, {"time": 139082, "pitch": 57, "duration": 225, "velocity": 117}, {"time": 139082, "pitch": 62, "duration": 251, "velocity": 117}, {"time": 139082, "pitch": 66, "duration": 233, "velocity": 117}, {"time": 139443, "pitch": 57, "duration": 242, "velocity": 117}, {"time": 139443, "pitch": 62, "duration": 255, "velocity": 117}, {"time": 139443, "pitch": 66, "duration": 260, "velocity": 117}, {"time": 139802, "pitch": 59, "duration": 186, "velocity": 117}, {"time": 139802, "pitch": 62, "duration": 217, "velocity": 117}, {"time": 139802, "pitch": 66, "duration": 207, "velocity": 117}, {"time": 140157, "pitch": 59, "duration": 129, "velocity": 117}, {"time": 140157, "pitch": 62, "duration": 160, "velocity": 117}, {"time": 140157, "pitch": 66, "duration": 140, "velocity": 117}, {"time": 140398, "pitch": 59, "duration": 91, "velocity": 117}, {"time": 140398, "pitch": 62, "duration": 144, "velocity": 117}, {"time": 140398, "pitch": 66, "duration": 118, "velocity": 117}, {"time": 140639, "pitch": 55, "duration": 200, "velocity": 117}, {"time": 140639, "pitch": 59, "duration": 249, "velocity": 117}, {"time": 140639, "pitch": 62, "duration": 273, "velocity": 117}, {"time": 140639, "pitch": 67, "duration": 248, "velocity": 117}, {"time": 141000, "pitch": 55, "duration": 247, "velocity": 117}, {"time": 141000, "pitch": 59, "duration": 240, "velocity": 117}, {"time": 141000, "pitch": 62, "duration": 258, "velocity": 117}, {"time": 141000, "pitch": 67, "duration": 241, "velocity": 117}, {"time": 141361, "pitch": 55, "duration": 230, "velocity": 117}, {"time": 141361, "pitch": 59, "duration": 221, "velocity": 117}, {"time": 141361, "pitch": 62, "duration": 241, "velocity": 117}, {"time": 141361, "pitch": 67, "duration": 232, "velocity": 117}, {"time": 141722, "pitch": 57, "duration": 198, "velocity": 117}, {"time": 141722, "pitch": 61, "duration": 210, "velocity": 117}, {"time": 141722, "pitch": 64, "duration": 212, "velocity": 117}, {"time": 141722, "pitch": 69, "duration": 209, "velocity": 117}, {"time": 142082, "pitch": 57, "duration": 153, "velocity": 117}, {"time": 142082, "pitch": 61, "duration": 153, "velocity": 117}, {"time": 142082, "pitch": 64, "duration": 139, "velocity": 117}, {"time": 142320, "pitch": 57, "duration": 130, "velocity": 117}, {"time": 142320, "pitch": 61, "duration": 153, "velocity": 117}, {"time": 142320, "pitch": 64, "duration": 126, "velocity": 117}, {"time": 142557, "pitch": 57, "duration": 260, "velocity": 117}, {"time": 142557, "pitch": 62, "duration": 274, "velocity": 117}, {"time": 142557, "pitch": 66, "duration": 267, "velocity": 117}, {"time": 142918, "pitch": 57, "duration": 206, "velocity": 117}, {"time": 142918, "pitch": 62, "duration": 255, "velocity": 117}, {"time": 142918, "pitch": 66, "duration": 242, "velocity": 117}, {"time": 143279, "pitch": 57, "duration": 240, "velocity": 117}, {"time": 143279, "pitch": 62, "duration": 264, "velocity": 117}, {"time": 143279, "pitch": 66, "duration": 247, "velocity": 117}, {"time": 143640, "pitch": 57, "duration": 215, "velocity": 117}, {"time": 143640, "pitch": 61, "duration": 258, "velocity": 117}, {"time": 143640, "pitch": 64, "duration": 222, "velocity": 117}, {"time": 144001, "pitch": 57, "duration": 108, "velocity": 117}, {"time": 144001, "pitch": 61, "duration": 136, "velocity": 117}, {"time": 144001, "pitch": 64, "duration": 145, "velocity": 117}, {"time": 144241, "pitch": 57, "duration": 114, "velocity": 117}, {"time": 144241, "pitch": 61, "duration": 152, "velocity": 117}, {"time": 144241, "pitch": 64, "duration": 150, "velocity": 117}, {"time": 144482, "pitch": 59, "duration": 247, "velocity": 117}, {"time": 144482, "pitch": 62, "duration": 277, "velocity": 117}, {"time": 144482, "pitch": 66, "duration": 269, "velocity": 117}, {"time": 144843, "pitch": 59, "duration": 209, "velocity": 117}, {"time": 144843, "pitch": 62, "duration": 243, "velocity": 117}, {"time": 144843, "pitch": 66, "duration": 239, "velocity": 117}, {"time": 145200, "pitch": 59, "duration": 214, "velocity": 117}, {"time": 145200, "pitch": 62, "duration": 232, "velocity": 117}, {"time": 145200, "pitch": 66, "duration": 243, "velocity": 117}, {"time": 145558, "pitch": 59, "duration": 188, "velocity": 117}, {"time": 145558, "pitch": 62, "duration": 223, "velocity": 117}, {"time": 145558, "pitch": 67, "duration": 231, "velocity": 117}, {"time": 145919, "pitch": 59, "duration": 104, "velocity": 117}, {"time": 145919, "pitch": 62, "duration": 120, "velocity": 117}, {"time": 145919, "pitch": 67, "duration": 163, "velocity": 117}, {"time": 146159, "pitch": 59, "duration": 117, "velocity": 117}, {"time": 146159, "pitch": 62, "duration": 67, "velocity": 117}, {"time": 146159, "pitch": 67, "duration": 137, "velocity": 117}, {"time": 146400, "pitch": 57, "duration": 259, "velocity": 117}, {"time": 146400, "pitch": 62, "duration": 277, "velocity": 117}, {"time": 146400, "pitch": 66, "duration": 288, "velocity": 117}, {"time": 146761, "pitch": 57, "duration": 226, "velocity": 117}, {"time": 146761, "pitch": 62, "duration": 252, "velocity": 117}, {"time": 146761, "pitch": 66, "duration": 234, "velocity": 117}, {"time": 147122, "pitch": 57, "duration": 242, "velocity": 117}, {"time": 147122, "pitch": 62, "duration": 255, "velocity": 117}, {"time": 147122, "pitch": 66, "duration": 260, "velocity": 117}, {"time": 147481, "pitch": 59, "duration": 187, "velocity": 117}, {"time": 147481, "pitch": 62, "duration": 217, "velocity": 117}, {"time": 147481, "pitch": 66, "duration": 208, "velocity": 117}, {"time": 147837, "pitch": 59, "duration": 128, "velocity": 117}, {"time": 147837, "pitch": 62, "duration": 159, "velocity": 117}, {"time": 147837, "pitch": 66, "duration": 139, "velocity": 117}, {"time": 148077, "pitch": 59, "duration": 92, "velocity": 117}, {"time": 148077, "pitch": 62, "duration": 145, "velocity": 117}, {"time": 148077, "pitch": 66, "duration": 119, "velocity": 117}, {"time": 148318, "pitch": 55, "duration": 201, "velocity": 117}, {"time": 148318, "pitch": 59, "duration": 250, "velocity": 117}, {"time": 148318, "pitch": 62, "duration": 274, "velocity": 117}, {"time": 148318, "pitch": 67, "duration": 249, "velocity": 117}, {"time": 148679, "pitch": 55, "duration": 248, "velocity": 117}, {"time": 148679, "pitch": 59, "duration": 241, "velocity": 117}, {"time": 148679, "pitch": 62, "duration": 259, "velocity": 117}, {"time": 148679, "pitch": 67, "duration": 242, "velocity": 117}, {"time": 149040, "pitch": 55, "duration": 231, "velocity": 117}, {"time": 149040, "pitch": 59, "duration": 222, "velocity": 117}, {"time": 149040, "pitch": 62, "duration": 241, "velocity": 117}, {"time": 149040, "pitch": 67, "duration": 233, "velocity": 117}, {"time": 149281, "pitch": 62, "duration": 1, "velocity": 117}, {"time": 149401, "pitch": 57, "duration": 198, "velocity": 117}, {"time": 149401, "pitch": 61, "duration": 210, "velocity": 117}, {"time": 149401, "pitch": 64, "duration": 212, "velocity": 117}, {"time": 149401, "pitch": 69, "duration": 209, "velocity": 117}, {"time": 149762, "pitch": 57, "duration": 154, "velocity": 117}, {"time": 149762, "pitch": 61, "duration": 154, "velocity": 117}, {"time": 149762, "pitch": 64, "duration": 140, "velocity": 117}, {"time": 150003, "pitch": 57, "duration": 132, "velocity": 117}, {"time": 150003, "pitch": 61, "duration": 155, "velocity": 117}, {"time": 150003, "pitch": 64, "duration": 128, "velocity": 117}, {"time": 150243, "pitch": 50, "duration": 255, "velocity": 117}, {"time": 150243, "pitch": 69, "duration": 97, "velocity": 117}, {"time": 150243, "pitch": 74, "duration": 131, "velocity": 117}, {"time": 150243, "pitch": 76, "duration": 114, "velocity": 117}, {"time": 150480, "pitch": 69, "duration": 67, "velocity": 117}, {"time": 150480, "pitch": 74, "duration": 109, "velocity": 117}, {"time": 150480, "pitch": 76, "duration": 81, "velocity": 117}, {"time": 150717, "pitch": 69, "duration": 188, "velocity": 117}, {"time": 150717, "pitch": 74, "duration": 219, "velocity": 117}, {"time": 150717, "pitch": 76, "duration": 192, "velocity": 117}, {"time": 150958, "pitch": 47, "duration": 122, "velocity": 117}, {"time": 151078, "pitch": 69, "duration": 81, "velocity": 117}, {"time": 151078, "pitch": 74, "duration": 108, "velocity": 117}, {"time": 151078, "pitch": 76, "duration": 81, "velocity": 117}, {"time": 151319, "pitch": 69, "duration": 94, "velocity": 117}, {"time": 151319, "pitch": 74, "duration": 146, "velocity": 117}, {"time": 151319, "pitch": 76, "duration": 115, "velocity": 117}, {"time": 151439, "pitch": 47, "duration": 190, "velocity": 117}, {"time": 151680, "pitch": 69, "duration": 252, "velocity": 117}, {"time": 151680, "pitch": 74, "duration": 277, "velocity": 117}, {"time": 151680, "pitch": 76, "duration": 241, "velocity": 117}, {"time": 151921, "pitch": 47, "duration": 74, "velocity": 117}, {"time": 152161, "pitch": 43, "duration": 196, "velocity": 117}, {"time": 152161, "pitch": 69, "duration": 61, "velocity": 117}, {"time": 152161, "pitch": 74, "duration": 98, "velocity": 117}, {"time": 152161, "pitch": 76, "duration": 58, "velocity": 117}, {"time": 152402, "pitch": 69, "duration": 62, "velocity": 117}, {"time": 152402, "pitch": 74, "duration": 78, "velocity": 117}, {"time": 152402, "pitch": 76, "duration": 79, "velocity": 117}, {"time": 152642, "pitch": 69, "duration": 191, "velocity": 117}, {"time": 152642, "pitch": 74, "duration": 205, "velocity": 117}, {"time": 152642, "pitch": 76, "duration": 187, "velocity": 117}, {"time": 152880, "pitch": 43, "duration": 94, "velocity": 117}, {"time": 152998, "pitch": 69, "duration": 106, "velocity": 117}, {"time": 152998, "pitch": 73, "duration": 120, "velocity": 117}, {"time": 152998, "pitch": 76, "duration": 111, "velocity": 117}, {"time": 153237, "pitch": 69, "duration": 106, "velocity": 117}, {"time": 153237, "pitch": 73, "duration": 128, "velocity": 117}, {"time": 153237, "pitch": 76, "duration": 121, "velocity": 117}, {"time": 153357, "pitch": 45, "duration": 178, "velocity": 117}, {"time": 153598, "pitch": 69, "duration": 254, "velocity": 117}, {"time": 153598, "pitch": 73, "duration": 267, "velocity": 117}, {"time": 153598, "pitch": 76, "duration": 267, "velocity": 117}, {"time": 153839, "pitch": 45, "duration": 128, "velocity": 117}, {"time": 154079, "pitch": 47, "duration": 229, "velocity": 117}, {"time": 154079, "pitch": 69, "duration": 104, "velocity": 117}, {"time": 154079, "pitch": 74, "duration": 126, "velocity": 117}, {"time": 154079, "pitch": 76, "duration": 114, "velocity": 117}, {"time": 154320, "pitch": 69, "duration": 73, "velocity": 117}, {"time": 154320, "pitch": 74, "duration": 113, "velocity": 117}, {"time": 154320, "pitch": 76, "duration": 77, "velocity": 117}, {"time": 154561, "pitch": 69, "duration": 173, "velocity": 117}, {"time": 154561, "pitch": 74, "duration": 210, "velocity": 117}, {"time": 154561, "pitch": 76, "duration": 178, "velocity": 117}, {"time": 154801, "pitch": 47, "duration": 110, "velocity": 117}, {"time": 154922, "pitch": 69, "duration": 95, "velocity": 117}, {"time": 154922, "pitch": 74, "duration": 119, "velocity": 117}, {"time": 154922, "pitch": 76, "duration": 80, "velocity": 117}, {"time": 155162, "pitch": 69, "duration": 115, "velocity": 117}, {"time": 155162, "pitch": 74, "duration": 128, "velocity": 117}, {"time": 155162, "pitch": 76, "duration": 110, "velocity": 117}, {"time": 155283, "pitch": 43, "duration": 181, "velocity": 117}, {"time": 155523, "pitch": 69, "duration": 158, "velocity": 117}, {"time": 155523, "pitch": 74, "duration": 200, "velocity": 117}, {"time": 155523, "pitch": 76, "duration": 213, "velocity": 117}, {"time": 155760, "pitch": 43, "duration": 159, "velocity": 117}, {"time": 155997, "pitch": 40, "duration": 265, "velocity": 117}, {"time": 155997, "pitch": 67, "duration": 243, "velocity": 117}, {"time": 155997, "pitch": 71, "duration": 282, "velocity": 117}, {"time": 155997, "pitch": 74, "duration": 270, "velocity": 117}, {"time": 156358, "pitch": 40, "duration": 256, "velocity": 117}, {"time": 156358, "pitch": 67, "duration": 231, "velocity": 117}, {"time": 156358, "pitch": 71, "duration": 265, "velocity": 117}, {"time": 156358, "pitch": 74, "duration": 265, "velocity": 117}, {"time": 156719, "pitch": 45, "duration": 161, "velocity": 117}, {"time": 156719, "pitch": 69, "duration": 153, "velocity": 117}, {"time": 156719, "pitch": 73, "duration": 161, "velocity": 117}, {"time": 156719, "pitch": 76, "duration": 148, "velocity": 117}, {"time": 157922, "pitch": 55, "duration": 3709, "velocity": 117}, {"time": 157922, "pitch": 62, "duration": 1051, "velocity": 117}, {"time": 157922, "pitch": 67, "duration": 1143, "velocity": 117}, {"time": 157922, "pitch": 69, "duration": 1160, "velocity": 117}, {"time": 157922, "pitch": 71, "duration": 1130, "velocity": 117}, {"time": 159119, "pitch": 62, "duration": 2473, "velocity": 117}, {"time": 159359, "pitch": 67, "duration": 2272, "velocity": 117}, {"time": 159600, "pitch": 69, "duration": 2048, "velocity": 117}, {"time": 159841, "pitch": 74, "duration": 1763, "velocity": 117}, {"time": 161518, "pitch": 31, "duration": 114, "velocity": 117}, {"time": 161518, "pitch": 43, "duration": 114, "velocity": 117}, {"time": 161518, "pitch": 67, "duration": 113, "velocity": 117}, {"time": 161518, "pitch": 79, "duration": 114, "velocity": 117}, {"time": 161638, "pitch": 31, "duration": 115, "velocity": 117}, {"time": 161638, "pitch": 43, "duration": 115, "velocity": 117}, {"time": 161638, "pitch": 67, "duration": 115, "velocity": 117}, {"time": 161638, "pitch": 79, "duration": 115, "velocity": 117}], "annotations": [{"time": 211, "annotation": {"number": 7, "value": 100}, "group": "control_change"}, {"time": 230, "annotation": {"number": 11, "value": 110}, "group": "control_change"}, {"time": 249, "annotation": {"number": 10, "value": 94}, "group": "control_change"}, {"time": 268, "annotation": {"number": 91, "value": 60}, "group": "control_change"}, {"time": 287, "annotation": {"number": 93, "value": 40}, "group": "control_change"}, {"time": 306, "annotation": {"number": 94, "value": 0}, "group": "control_change"}, {"time": 326, "annotation": {"number": 101, "value": 0}, "group": "control_change"}, {"time": 345, "annotation": {"number": 100, "value": 0}, "group": "control_change"}, {"time": 364, "annotation": {"number": 6, "value": 12}, "group": "control_change"}, {"time": 383, "annotation": {"number": 101, "value": 127}, "group": "control_change"}, {"time": 402, "annotation": {"number": 100, "value": 127}, "group": "control_change"}]}, {"program": 0, "is_drum": false, "name": "BASS", "annotations": [{"time": 191, "annotation": {"number": 0, "value": 0}, "group": "control_change"}, {"time": 191, "annotation": {"number": 32, "value": 2}, "group": "control_change"}]}, {"program": 33, "is_drum": false, "name": "BASS", "notes": [{"time": 8157, "pitch": 38, "duration": 132, "velocity": 127}, {"time": 8398, "pitch": 38, "duration": 98, "velocity": 127}, {"time": 8639, "pitch": 38, "duration": 102, "velocity": 127}, {"time": 8879, "pitch": 38, "duration": 123, "velocity": 127}, {"time": 9120, "pitch": 35, "duration": 104, "velocity": 127}, {"time": 9361, "pitch": 35, "duration": 96, "velocity": 127}, {"time": 9601, "pitch": 35, "duration": 67, "velocity": 127}, {"time": 9842, "pitch": 35, "duration": 97, "velocity": 127}, {"time": 10083, "pitch": 31, "duration": 105, "velocity": 127}, {"time": 10320, "pitch": 31, "duration": 76, "velocity": 127}, {"time": 10557, "pitch": 31, "duration": 58, "velocity": 127}, {"time": 10797, "pitch": 31, "duration": 108, "velocity": 127}, {"time": 10918, "pitch": 33, "duration": 83, "velocity": 127}, {"time": 11158, "pitch": 33, "duration": 94, "velocity": 127}, {"time": 11399, "pitch": 33, "duration": 38, "velocity": 127}, {"time": 11519, "pitch": 33, "duration": 112, "velocity": 127}, {"time": 11760, "pitch": 33, "duration": 156, "velocity": 127}, {"time": 12001, "pitch": 35, "duration": 91, "velocity": 127}, {"time": 12241, "pitch": 35, "duration": 99, "velocity": 127}, {"time": 12482, "pitch": 35, "duration": 97, "velocity": 127}, {"time": 12723, "pitch": 35, "duration": 65, "velocity": 127}, {"time": 12843, "pitch": 31, "duration": 113, "velocity": 127}, {"time": 13082, "pitch": 31, "duration": 82, "velocity": 127}, {"time": 13319, "pitch": 31, "duration": 50, "velocity": 127}, {"time": 13437, "pitch": 31, "duration": 115, "velocity": 127}, {"time": 13678, "pitch": 31, "duration": 116, "velocity": 127}, {"time": 13919, "pitch": 28, "duration": 247, "velocity": 127}, {"time": 14280, "pitch": 28, "duration": 241, "velocity": 127}, {"time": 14641, "pitch": 33, "duration": 423, "velocity": 127}, {"time": 15837, "pitch": 38, "duration": 121, "velocity": 127}, {"time": 16077, "pitch": 38, "duration": 122, "velocity": 127}, {"time": 16318, "pitch": 38, "duration": 99, "velocity": 127}, {"time": 16559, "pitch": 38, "duration": 106, "velocity": 127}, {"time": 16679, "pitch": 37, "duration": 160, "velocity": 127}, {"time": 16920, "pitch": 37, "duration": 111, "velocity": 127}, {"time": 17160, "pitch": 37, "duration": 63, "velocity": 127}, {"time": 17281, "pitch": 37, "duration": 120, "velocity": 127}, {"time": 17521, "pitch": 37, "duration": 157, "velocity": 127}, {"time": 17762, "pitch": 35, "duration": 129, "velocity": 127}, {"time": 18003, "pitch": 35, "duration": 114, "velocity": 127}, {"time": 18243, "pitch": 35, "duration": 96, "velocity": 127}, {"time": 18480, "pitch": 35, "duration": 90, "velocity": 127}, {"time": 18599, "pitch": 33, "duration": 140, "velocity": 127}, {"time": 18838, "pitch": 33, "duration": 93, "velocity": 127}, {"time": 19078, "pitch": 33, "duration": 44, "velocity": 127}, {"time": 19199, "pitch": 33, "duration": 154, "velocity": 127}, {"time": 19439, "pitch": 33, "duration": 157, "velocity": 127}, {"time": 19680, "pitch": 31, "duration": 118, "velocity": 127}, {"time": 19921, "pitch": 31, "duration": 122, "velocity": 127}, {"time": 20161, "pitch": 31, "duration": 98, "velocity": 127}, {"time": 20402, "pitch": 31, "duration": 94, "velocity": 127}, {"time": 20522, "pitch": 30, "duration": 166, "velocity": 127}, {"time": 20761, "pitch": 30, "duration": 71, "velocity": 127}, {"time": 20998, "pitch": 30, "duration": 50, "velocity": 127}, {"time": 21117, "pitch": 30, "duration": 111, "velocity": 127}, {"time": 21357, "pitch": 30, "duration": 101, "velocity": 127}, {"time": 21598, "pitch": 28, "duration": 135, "velocity": 127}, {"time": 21839, "pitch": 28, "duration": 170, "velocity": 127}, {"time": 22079, "pitch": 40, "duration": 198, "velocity": 127}, {"time": 22320, "pitch": 28, "duration": 71, "velocity": 127}, {"time": 22440, "pitch": 40, "duration": 115, "velocity": 127}, {"time": 22561, "pitch": 33, "duration": 139, "velocity": 127}, {"time": 22801, "pitch": 45, "duration": 75, "velocity": 127}, {"time": 22922, "pitch": 33, "duration": 65, "velocity": 127}, {"time": 23042, "pitch": 33, "duration": 161, "velocity": 127}, {"time": 23283, "pitch": 45, "duration": 81, "velocity": 127}, {"time": 23403, "pitch": 33, "duration": 80, "velocity": 127}, {"time": 23523, "pitch": 38, "duration": 120, "velocity": 127}, {"time": 23760, "pitch": 38, "duration": 120, "velocity": 127}, {"time": 23997, "pitch": 38, "duration": 100, "velocity": 127}, {"time": 24238, "pitch": 38, "duration": 106, "velocity": 127}, {"time": 24358, "pitch": 37, "duration": 161, "velocity": 127}, {"time": 24599, "pitch": 37, "duration": 111, "velocity": 127}, {"time": 24840, "pitch": 37, "duration": 63, "velocity": 127}, {"time": 24960, "pitch": 37, "duration": 120, "velocity": 127}, {"time": 25201, "pitch": 37, "duration": 156, "velocity": 127}, {"time": 25441, "pitch": 35, "duration": 130, "velocity": 127}, {"time": 25682, "pitch": 35, "duration": 114, "velocity": 127}, {"time": 25923, "pitch": 35, "duration": 95, "velocity": 127}, {"time": 26160, "pitch": 35, "duration": 90, "velocity": 127}, {"time": 26278, "pitch": 33, "duration": 141, "velocity": 127}, {"time": 26517, "pitch": 33, "duration": 93, "velocity": 127}, {"time": 26758, "pitch": 33, "duration": 43, "velocity": 127}, {"time": 26878, "pitch": 33, "duration": 154, "velocity": 127}, {"time": 27119, "pitch": 33, "duration": 156, "velocity": 127}, {"time": 27359, "pitch": 31, "duration": 119, "velocity": 127}, {"time": 27600, "pitch": 31, "duration": 122, "velocity": 127}, {"time": 27841, "pitch": 31, "duration": 97, "velocity": 127}, {"time": 28081, "pitch": 31, "duration": 95, "velocity": 127}, {"time": 28202, "pitch": 30, "duration": 166, "velocity": 127}, {"time": 28442, "pitch": 30, "duration": 72, "velocity": 127}, {"time": 28683, "pitch": 30, "duration": 50, "velocity": 127}, {"time": 28803, "pitch": 30, "duration": 110, "velocity": 127}, {"time": 29040, "pitch": 30, "duration": 99, "velocity": 127}, {"time": 29277, "pitch": 28, "duration": 136, "velocity": 127}, {"time": 29518, "pitch": 28, "duration": 171, "velocity": 127}, {"time": 29759, "pitch": 40, "duration": 197, "velocity": 127}, {"time": 29999, "pitch": 28, "duration": 72, "velocity": 127}, {"time": 30120, "pitch": 40, "duration": 114, "velocity": 127}, {"time": 30240, "pitch": 33, "duration": 139, "velocity": 127}, {"time": 30481, "pitch": 45, "duration": 75, "velocity": 127}, {"time": 30601, "pitch": 33, "duration": 65, "velocity": 127}, {"time": 30721, "pitch": 33, "duration": 162, "velocity": 127}, {"time": 30962, "pitch": 45, "duration": 81, "velocity": 127}, {"time": 31082, "pitch": 33, "duration": 80, "velocity": 127}, {"time": 31203, "pitch": 28, "duration": 335, "velocity": 127}, {"time": 31558, "pitch": 33, "duration": 265, "velocity": 127}, {"time": 31917, "pitch": 38, "duration": 298, "velocity": 127}, {"time": 33121, "pitch": 38, "duration": 200, "velocity": 127}, {"time": 33361, "pitch": 50, "duration": 53, "velocity": 127}, {"time": 33482, "pitch": 38, "duration": 44, "velocity": 127}, {"time": 33602, "pitch": 38, "duration": 170, "velocity": 127}, {"time": 33843, "pitch": 50, "duration": 56, "velocity": 127}, {"time": 33963, "pitch": 38, "duration": 42, "velocity": 127}, {"time": 34083, "pitch": 37, "duration": 186, "velocity": 127}, {"time": 34320, "pitch": 49, "duration": 56, "velocity": 127}, {"time": 34439, "pitch": 37, "duration": 30, "velocity": 127}, {"time": 34557, "pitch": 37, "duration": 147, "velocity": 127}, {"time": 34798, "pitch": 49, "duration": 80, "velocity": 127}, {"time": 34918, "pitch": 37, "duration": 70, "velocity": 127}, {"time": 35039, "pitch": 35, "duration": 203, "velocity": 127}, {"time": 35279, "pitch": 47, "duration": 69, "velocity": 127}, {"time": 35400, "pitch": 35, "duration": 30, "velocity": 127}, {"time": 35520, "pitch": 35, "duration": 147, "velocity": 127}, {"time": 35761, "pitch": 47, "duration": 57, "velocity": 127}, {"time": 35881, "pitch": 35, "duration": 50, "velocity": 127}, {"time": 36001, "pitch": 31, "duration": 167, "velocity": 127}, {"time": 36242, "pitch": 43, "duration": 86, "velocity": 127}, {"time": 36362, "pitch": 31, "duration": 47, "velocity": 127}, {"time": 36483, "pitch": 31, "duration": 175, "velocity": 127}, {"time": 36720, "pitch": 43, "duration": 79, "velocity": 127}, {"time": 36838, "pitch": 31, "duration": 111, "velocity": 127}, {"time": 36957, "pitch": 38, "duration": 194, "velocity": 127}, {"time": 37197, "pitch": 50, "duration": 61, "velocity": 127}, {"time": 37318, "pitch": 38, "duration": 45, "velocity": 127}, {"time": 37438, "pitch": 38, "duration": 166, "velocity": 127}, {"time": 37679, "pitch": 50, "duration": 68, "velocity": 127}, {"time": 37799, "pitch": 38, "duration": 55, "velocity": 127}, {"time": 37919, "pitch": 35, "duration": 204, "velocity": 127}, {"time": 38160, "pitch": 47, "duration": 68, "velocity": 127}, {"time": 38280, "pitch": 35, "duration": 30, "velocity": 127}, {"time": 38401, "pitch": 35, "duration": 147, "velocity": 127}, {"time": 38641, "pitch": 47, "duration": 57, "velocity": 127}, {"time": 38762, "pitch": 35, "duration": 50, "velocity": 127}, {"time": 38882, "pitch": 40, "duration": 187, "velocity": 127}, {"time": 39123, "pitch": 52, "duration": 64, "velocity": 127}, {"time": 39243, "pitch": 40, "duration": 40, "velocity": 127}, {"time": 39363, "pitch": 40, "duration": 176, "velocity": 127}, {"time": 39600, "pitch": 52, "duration": 80, "velocity": 127}, {"time": 39719, "pitch": 40, "duration": 50, "velocity": 127}, {"time": 39837, "pitch": 33, "duration": 110, "velocity": 127}, {"time": 39958, "pitch": 45, "duration": 79, "velocity": 127}, {"time": 40078, "pitch": 40, "duration": 68, "velocity": 127}, {"time": 40198, "pitch": 43, "duration": 79, "velocity": 127}, {"time": 40319, "pitch": 45, "duration": 95, "velocity": 127}, {"time": 40439, "pitch": 38, "duration": 88, "velocity": 127}, {"time": 40559, "pitch": 40, "duration": 82, "velocity": 127}, {"time": 40680, "pitch": 43, "duration": 95, "velocity": 127}, {"time": 40800, "pitch": 38, "duration": 201, "velocity": 127}, {"time": 41041, "pitch": 50, "duration": 53, "velocity": 127}, {"time": 41161, "pitch": 38, "duration": 44, "velocity": 127}, {"time": 41281, "pitch": 38, "duration": 171, "velocity": 127}, {"time": 41522, "pitch": 50, "duration": 56, "velocity": 127}, {"time": 41642, "pitch": 38, "duration": 42, "velocity": 127}, {"time": 41763, "pitch": 37, "duration": 185, "velocity": 127}, {"time": 42000, "pitch": 49, "duration": 55, "velocity": 127}, {"time": 42118, "pitch": 37, "duration": 30, "velocity": 127}, {"time": 42237, "pitch": 37, "duration": 146, "velocity": 127}, {"time": 42477, "pitch": 49, "duration": 81, "velocity": 127}, {"time": 42598, "pitch": 37, "duration": 69, "velocity": 127}, {"time": 42718, "pitch": 35, "duration": 204, "velocity": 127}, {"time": 42959, "pitch": 47, "duration": 68, "velocity": 127}, {"time": 43079, "pitch": 35, "duration": 30, "velocity": 127}, {"time": 43199, "pitch": 35, "duration": 148, "velocity": 127}, {"time": 43440, "pitch": 47, "duration": 57, "velocity": 127}, {"time": 43560, "pitch": 35, "duration": 50, "velocity": 127}, {"time": 43681, "pitch": 31, "duration": 166, "velocity": 127}, {"time": 43921, "pitch": 43, "duration": 87, "velocity": 127}, {"time": 44042, "pitch": 31, "duration": 47, "velocity": 127}, {"time": 44162, "pitch": 31, "duration": 178, "velocity": 127}, {"time": 44403, "pitch": 43, "duration": 80, "velocity": 127}, {"time": 44523, "pitch": 31, "duration": 112, "velocity": 127}, {"time": 44643, "pitch": 38, "duration": 192, "velocity": 127}, {"time": 44880, "pitch": 50, "duration": 60, "velocity": 127}, {"time": 44999, "pitch": 38, "duration": 44, "velocity": 127}, {"time": 45117, "pitch": 38, "duration": 166, "velocity": 127}, {"time": 45358, "pitch": 50, "duration": 68, "velocity": 127}, {"time": 45478, "pitch": 38, "duration": 56, "velocity": 127}, {"time": 45599, "pitch": 35, "duration": 203, "velocity": 127}, {"time": 45839, "pitch": 47, "duration": 69, "velocity": 127}, {"time": 45960, "pitch": 35, "duration": 30, "velocity": 127}, {"time": 46080, "pitch": 35, "duration": 147, "velocity": 127}, {"time": 46321, "pitch": 47, "duration": 57, "velocity": 127}, {"time": 46441, "pitch": 35, "duration": 50, "velocity": 127}, {"time": 46561, "pitch": 40, "duration": 188, "velocity": 127}, {"time": 46802, "pitch": 52, "duration": 64, "velocity": 127}, {"time": 46922, "pitch": 40, "duration": 40, "velocity": 127}, {"time": 47043, "pitch": 40, "duration": 175, "velocity": 127}, {"time": 47280, "pitch": 52, "duration": 80, "velocity": 127}, {"time": 47398, "pitch": 40, "duration": 51, "velocity": 127}, {"time": 47517, "pitch": 33, "duration": 109, "velocity": 127}, {"time": 47637, "pitch": 45, "duration": 79, "velocity": 127}, {"time": 47757, "pitch": 40, "duration": 69, "velocity": 127}, {"time": 47878, "pitch": 43, "duration": 78, "velocity": 127}, {"time": 47998, "pitch": 45, "duration": 95, "velocity": 127}, {"time": 48118, "pitch": 38, "duration": 89, "velocity": 127}, {"time": 48239, "pitch": 40, "duration": 81, "velocity": 127}, {"time": 48359, "pitch": 43, "duration": 95, "velocity": 127}, {"time": 48479, "pitch": 28, "duration": 341, "velocity": 127}, {"time": 48840, "pitch": 33, "duration": 267, "velocity": 127}, {"time": 49201, "pitch": 38, "duration": 298, "velocity": 127}, {"time": 49683, "pitch": 38, "duration": 120, "velocity": 127}, {"time": 49683, "pitch": 50, "duration": 120, "velocity": 127}, {"time": 49803, "pitch": 40, "duration": 120, "velocity": 127}, {"time": 49803, "pitch": 52, "duration": 120, "velocity": 127}, {"time": 49923, "pitch": 38, "duration": 119, "velocity": 127}, {"time": 49923, "pitch": 50, "duration": 119, "velocity": 127}, {"time": 50042, "pitch": 37, "duration": 118, "velocity": 127}, {"time": 50042, "pitch": 49, "duration": 118, "velocity": 127}, {"time": 50160, "pitch": 35, "duration": 119, "velocity": 127}, {"time": 50160, "pitch": 47, "duration": 119, "velocity": 127}, {"time": 50279, "pitch": 33, "duration": 118, "velocity": 127}, {"time": 50279, "pitch": 45, "duration": 118, "velocity": 127}, {"time": 50397, "pitch": 31, "duration": 199, "velocity": 127}, {"time": 50638, "pitch": 43, "duration": 40, "velocity": 127}, {"time": 50758, "pitch": 31, "duration": 46, "velocity": 127}, {"time": 50879, "pitch": 31, "duration": 152, "velocity": 127}, {"time": 51119, "pitch": 43, "duration": 36, "velocity": 127}, {"time": 51240, "pitch": 31, "duration": 44, "velocity": 127}, {"time": 51360, "pitch": 31, "duration": 153, "velocity": 127}, {"time": 51601, "pitch": 43, "duration": 70, "velocity": 127}, {"time": 51721, "pitch": 31, "duration": 41, "velocity": 127}, {"time": 51841, "pitch": 43, "duration": 63, "velocity": 127}, {"time": 51962, "pitch": 38, "duration": 106, "velocity": 127}, {"time": 52082, "pitch": 40, "duration": 98, "velocity": 127}, {"time": 52202, "pitch": 43, "duration": 87, "velocity": 127}, {"time": 52323, "pitch": 33, "duration": 186, "velocity": 127}, {"time": 52560, "pitch": 45, "duration": 36, "velocity": 127}, {"time": 52678, "pitch": 45, "duration": 77, "velocity": 127}, {"time": 52797, "pitch": 33, "duration": 186, "velocity": 127}, {"time": 53037, "pitch": 45, "duration": 40, "velocity": 127}, {"time": 53158, "pitch": 45, "duration": 96, "velocity": 127}, {"time": 53278, "pitch": 33, "duration": 175, "velocity": 127}, {"time": 53519, "pitch": 45, "duration": 31, "velocity": 127}, {"time": 53639, "pitch": 45, "duration": 77, "velocity": 127}, {"time": 53759, "pitch": 33, "duration": 98, "velocity": 127}, {"time": 53880, "pitch": 40, "duration": 68, "velocity": 127}, {"time": 54000, "pitch": 42, "duration": 105, "velocity": 127}, {"time": 54120, "pitch": 45, "duration": 86, "velocity": 127}, {"time": 54241, "pitch": 30, "duration": 211, "velocity": 127}, {"time": 54481, "pitch": 42, "duration": 30, "velocity": 127}, {"time": 54602, "pitch": 42, "duration": 73, "velocity": 127}, {"time": 54722, "pitch": 30, "duration": 216, "velocity": 127}, {"time": 54963, "pitch": 42, "duration": 35, "velocity": 127}, {"time": 55083, "pitch": 42, "duration": 102, "velocity": 127}, {"time": 55203, "pitch": 30, "duration": 161, "velocity": 127}, {"time": 55440, "pitch": 37, "duration": 53, "velocity": 127}, {"time": 55559, "pitch": 40, "duration": 97, "velocity": 127}, {"time": 55677, "pitch": 30, "duration": 85, "velocity": 127}, {"time": 55798, "pitch": 42, "duration": 64, "velocity": 127}, {"time": 55918, "pitch": 37, "duration": 58, "velocity": 127}, {"time": 56038, "pitch": 40, "duration": 102, "velocity": 127}, {"time": 56159, "pitch": 35, "duration": 62, "velocity": 127}, {"time": 56279, "pitch": 35, "duration": 103, "velocity": 127}, {"time": 56399, "pitch": 47, "duration": 92, "velocity": 127}, {"time": 56520, "pitch": 35, "duration": 37, "velocity": 127}, {"time": 56640, "pitch": 35, "duration": 160, "velocity": 127}, {"time": 56881, "pitch": 47, "duration": 59, "velocity": 127}, {"time": 57001, "pitch": 35, "duration": 42, "velocity": 127}, {"time": 57121, "pitch": 35, "duration": 181, "velocity": 127}, {"time": 57362, "pitch": 47, "duration": 64, "velocity": 127}, {"time": 57482, "pitch": 35, "duration": 77, "velocity": 127}, {"time": 57603, "pitch": 50, "duration": 84, "velocity": 127}, {"time": 57603, "pitch": 52, "duration": 28, "velocity": 127}, {"time": 57721, "pitch": 49, "duration": 119, "velocity": 127}, {"time": 57840, "pitch": 47, "duration": 96, "velocity": 127}, {"time": 57958, "pitch": 45, "duration": 109, "velocity": 127}, {"time": 58077, "pitch": 31, "duration": 198, "velocity": 127}, {"time": 58317, "pitch": 43, "duration": 41, "velocity": 127}, {"time": 58438, "pitch": 31, "duration": 45, "velocity": 127}, {"time": 58558, "pitch": 31, "duration": 152, "velocity": 127}, {"time": 58799, "pitch": 43, "duration": 36, "velocity": 127}, {"time": 58919, "pitch": 31, "duration": 44, "velocity": 127}, {"time": 59039, "pitch": 31, "duration": 154, "velocity": 127}, {"time": 59280, "pitch": 43, "duration": 70, "velocity": 127}, {"time": 59400, "pitch": 31, "duration": 41, "velocity": 127}, {"time": 59521, "pitch": 43, "duration": 63, "velocity": 127}, {"time": 59641, "pitch": 38, "duration": 106, "velocity": 127}, {"time": 59761, "pitch": 40, "duration": 99, "velocity": 127}, {"time": 59882, "pitch": 43, "duration": 87, "velocity": 127}, {"time": 60002, "pitch": 33, "duration": 189, "velocity": 127}, {"time": 60243, "pitch": 45, "duration": 37, "velocity": 127}, {"time": 60363, "pitch": 45, "duration": 78, "velocity": 127}, {"time": 60483, "pitch": 33, "duration": 184, "velocity": 127}, {"time": 60720, "pitch": 45, "duration": 39, "velocity": 127}, {"time": 60839, "pitch": 45, "duration": 95, "velocity": 127}, {"time": 60957, "pitch": 33, "duration": 175, "velocity": 127}, {"time": 61198, "pitch": 45, "duration": 31, "velocity": 127}, {"time": 61318, "pitch": 45, "duration": 78, "velocity": 127}, {"time": 61439, "pitch": 33, "duration": 97, "velocity": 127}, {"time": 61559, "pitch": 40, "duration": 68, "velocity": 127}, {"time": 61679, "pitch": 42, "duration": 106, "velocity": 127}, {"time": 61800, "pitch": 45, "duration": 85, "velocity": 127}, {"time": 61920, "pitch": 30, "duration": 212, "velocity": 127}, {"time": 62161, "pitch": 42, "duration": 30, "velocity": 127}, {"time": 62281, "pitch": 42, "duration": 73, "velocity": 127}, {"time": 62401, "pitch": 30, "duration": 217, "velocity": 127}, {"time": 62642, "pitch": 42, "duration": 35, "velocity": 127}, {"time": 62762, "pitch": 42, "duration": 103, "velocity": 127}, {"time": 62883, "pitch": 30, "duration": 161, "velocity": 127}, {"time": 63120, "pitch": 37, "duration": 52, "velocity": 127}, {"time": 63238, "pitch": 40, "duration": 97, "velocity": 127}, {"time": 63357, "pitch": 30, "duration": 84, "velocity": 127}, {"time": 63477, "pitch": 42, "duration": 64, "velocity": 127}, {"time": 63597, "pitch": 37, "duration": 59, "velocity": 127}, {"time": 63718, "pitch": 40, "duration": 101, "velocity": 127}, {"time": 63838, "pitch": 35, "duration": 62, "velocity": 127}, {"time": 63958, "pitch": 35, "duration": 104, "velocity": 127}, {"time": 64079, "pitch": 47, "duration": 91, "velocity": 127}, {"time": 64199, "pitch": 35, "duration": 37, "velocity": 127}, {"time": 64319, "pitch": 35, "duration": 161, "velocity": 127}, {"time": 64560, "pitch": 47, "duration": 59, "velocity": 127}, {"time": 64680, "pitch": 35, "duration": 42, "velocity": 127}, {"time": 64801, "pitch": 35, "duration": 180, "velocity": 127}, {"time": 65041, "pitch": 47, "duration": 64, "velocity": 127}, {"time": 65162, "pitch": 35, "duration": 77, "velocity": 127}, {"time": 65282, "pitch": 50, "duration": 86, "velocity": 127}, {"time": 65402, "pitch": 49, "duration": 121, "velocity": 127}, {"time": 65523, "pitch": 47, "duration": 97, "velocity": 127}, {"time": 65643, "pitch": 45, "duration": 110, "velocity": 127}, {"time": 65763, "pitch": 28, "duration": 244, "velocity": 127}, {"time": 66119, "pitch": 28, "duration": 240, "velocity": 127}, {"time": 66478, "pitch": 33, "duration": 423, "velocity": 127}, {"time": 67681, "pitch": 38, "duration": 122, "velocity": 127}, {"time": 67922, "pitch": 38, "duration": 121, "velocity": 127}, {"time": 68163, "pitch": 38, "duration": 97, "velocity": 127}, {"time": 68400, "pitch": 38, "duration": 104, "velocity": 127}, {"time": 68518, "pitch": 37, "duration": 159, "velocity": 127}, {"time": 68757, "pitch": 37, "duration": 111, "velocity": 127}, {"time": 68998, "pitch": 37, "duration": 63, "velocity": 127}, {"time": 69118, "pitch": 37, "duration": 120, "velocity": 127}, {"time": 69359, "pitch": 37, "duration": 156, "velocity": 127}, {"time": 69599, "pitch": 35, "duration": 130, "velocity": 127}, {"time": 69840, "pitch": 35, "duration": 114, "velocity": 127}, {"time": 70081, "pitch": 35, "duration": 97, "velocity": 127}, {"time": 70321, "pitch": 35, "duration": 92, "velocity": 127}, {"time": 70442, "pitch": 33, "duration": 142, "velocity": 127}, {"time": 70682, "pitch": 33, "duration": 93, "velocity": 127}, {"time": 70923, "pitch": 33, "duration": 43, "velocity": 127}, {"time": 71043, "pitch": 33, "duration": 152, "velocity": 127}, {"time": 71280, "pitch": 33, "duration": 154, "velocity": 127}, {"time": 71517, "pitch": 31, "duration": 119, "velocity": 127}, {"time": 71758, "pitch": 31, "duration": 122, "velocity": 127}, {"time": 71999, "pitch": 31, "duration": 97, "velocity": 127}, {"time": 72239, "pitch": 31, "duration": 95, "velocity": 127}, {"time": 72360, "pitch": 30, "duration": 166, "velocity": 127}, {"time": 72600, "pitch": 30, "duration": 72, "velocity": 127}, {"time": 72841, "pitch": 30, "duration": 50, "velocity": 127}, {"time": 72961, "pitch": 30, "duration": 112, "velocity": 127}, {"time": 73202, "pitch": 30, "duration": 100, "velocity": 127}, {"time": 73443, "pitch": 28, "duration": 133, "velocity": 127}, {"time": 73680, "pitch": 28, "duration": 168, "velocity": 127}, {"time": 73917, "pitch": 40, "duration": 197, "velocity": 127}, {"time": 74157, "pitch": 28, "duration": 72, "velocity": 127}, {"time": 74278, "pitch": 40, "duration": 114, "velocity": 127}, {"time": 74398, "pitch": 33, "duration": 139, "velocity": 127}, {"time": 74639, "pitch": 45, "duration": 75, "velocity": 127}, {"time": 74759, "pitch": 33, "duration": 65, "velocity": 127}, {"time": 74879, "pitch": 33, "duration": 162, "velocity": 127}, {"time": 75120, "pitch": 45, "duration": 81, "velocity": 127}, {"time": 75240, "pitch": 33, "duration": 81, "velocity": 127}, {"time": 75361, "pitch": 38, "duration": 121, "velocity": 127}, {"time": 75601, "pitch": 38, "duration": 122, "velocity": 127}, {"time": 75842, "pitch": 38, "duration": 99, "velocity": 127}, {"time": 76083, "pitch": 38, "duration": 106, "velocity": 127}, {"time": 76203, "pitch": 37, "duration": 160, "velocity": 127}, {"time": 76442, "pitch": 37, "duration": 109, "velocity": 127}, {"time": 76679, "pitch": 37, "duration": 62, "velocity": 127}, {"time": 76797, "pitch": 37, "duration": 121, "velocity": 127}, {"time": 77038, "pitch": 37, "duration": 156, "velocity": 127}, {"time": 77279, "pitch": 35, "duration": 129, "velocity": 127}, {"time": 77519, "pitch": 35, "duration": 115, "velocity": 127}, {"time": 77760, "pitch": 35, "duration": 97, "velocity": 127}, {"time": 78001, "pitch": 35, "duration": 91, "velocity": 127}, {"time": 78121, "pitch": 33, "duration": 142, "velocity": 127}, {"time": 78362, "pitch": 33, "duration": 93, "velocity": 127}, {"time": 78602, "pitch": 33, "duration": 43, "velocity": 127}, {"time": 78723, "pitch": 33, "duration": 152, "velocity": 127}, {"time": 78960, "pitch": 33, "duration": 154, "velocity": 127}, {"time": 79197, "pitch": 31, "duration": 118, "velocity": 127}, {"time": 79437, "pitch": 31, "duration": 123, "velocity": 127}, {"time": 79678, "pitch": 31, "duration": 97, "velocity": 127}, {"time": 79919, "pitch": 31, "duration": 94, "velocity": 127}, {"time": 80039, "pitch": 30, "duration": 166, "velocity": 127}, {"time": 80280, "pitch": 30, "duration": 72, "velocity": 127}, {"time": 80520, "pitch": 30, "duration": 50, "velocity": 127}, {"time": 80641, "pitch": 30, "duration": 111, "velocity": 127}, {"time": 80881, "pitch": 30, "duration": 101, "velocity": 127}, {"time": 81122, "pitch": 28, "duration": 135, "velocity": 127}, {"time": 81363, "pitch": 28, "duration": 170, "velocity": 127}, {"time": 81603, "pitch": 40, "duration": 195, "velocity": 127}, {"time": 81840, "pitch": 28, "duration": 70, "velocity": 127}, {"time": 81959, "pitch": 40, "duration": 113, "velocity": 127}, {"time": 82077, "pitch": 33, "duration": 140, "velocity": 127}, {"time": 82318, "pitch": 45, "duration": 75, "velocity": 127}, {"time": 82438, "pitch": 33, "duration": 66, "velocity": 127}, {"time": 82559, "pitch": 33, "duration": 161, "velocity": 127}, {"time": 82799, "pitch": 45, "duration": 82, "velocity": 127}, {"time": 82920, "pitch": 33, "duration": 80, "velocity": 127}, {"time": 83040, "pitch": 28, "duration": 341, "velocity": 127}, {"time": 83401, "pitch": 33, "duration": 267, "velocity": 127}, {"time": 83762, "pitch": 38, "duration": 297, "velocity": 127}, {"time": 84958, "pitch": 38, "duration": 201, "velocity": 127}, {"time": 85199, "pitch": 50, "duration": 53, "velocity": 127}, {"time": 85319, "pitch": 38, "duration": 44, "velocity": 127}, {"time": 85439, "pitch": 38, "duration": 171, "velocity": 127}, {"time": 85680, "pitch": 50, "duration": 56, "velocity": 127}, {"time": 85800, "pitch": 38, "duration": 42, "velocity": 127}, {"time": 85921, "pitch": 37, "duration": 188, "velocity": 127}, {"time": 86161, "pitch": 49, "duration": 56, "velocity": 127}, {"time": 86282, "pitch": 37, "duration": 30, "velocity": 127}, {"time": 86402, "pitch": 37, "duration": 146, "velocity": 127}, {"time": 86643, "pitch": 49, "duration": 80, "velocity": 127}, {"time": 86763, "pitch": 37, "duration": 69, "velocity": 127}, {"time": 86883, "pitch": 35, "duration": 201, "velocity": 127}, {"time": 87120, "pitch": 47, "duration": 67, "velocity": 127}, {"time": 87239, "pitch": 35, "duration": 30, "velocity": 127}, {"time": 87357, "pitch": 35, "duration": 148, "velocity": 127}, {"time": 87598, "pitch": 47, "duration": 57, "velocity": 127}, {"time": 87718, "pitch": 35, "duration": 51, "velocity": 127}, {"time": 87839, "pitch": 31, "duration": 166, "velocity": 127}, {"time": 88079, "pitch": 43, "duration": 87, "velocity": 127}, {"time": 88200, "pitch": 31, "duration": 47, "velocity": 127}, {"time": 88320, "pitch": 31, "duration": 178, "velocity": 127}, {"time": 88561, "pitch": 43, "duration": 80, "velocity": 127}, {"time": 88681, "pitch": 31, "duration": 112, "velocity": 127}, {"time": 88801, "pitch": 38, "duration": 195, "velocity": 127}, {"time": 89042, "pitch": 50, "duration": 60, "velocity": 127}, {"time": 89162, "pitch": 38, "duration": 45, "velocity": 127}, {"time": 89283, "pitch": 38, "duration": 163, "velocity": 127}, {"time": 89520, "pitch": 50, "duration": 67, "velocity": 127}, {"time": 89638, "pitch": 38, "duration": 55, "velocity": 127}, {"time": 89757, "pitch": 35, "duration": 203, "velocity": 127}, {"time": 89997, "pitch": 47, "duration": 69, "velocity": 127}, {"time": 90118, "pitch": 35, "duration": 30, "velocity": 127}, {"time": 90238, "pitch": 35, "duration": 147, "velocity": 127}, {"time": 90479, "pitch": 47, "duration": 57, "velocity": 127}, {"time": 90599, "pitch": 35, "duration": 50, "velocity": 127}, {"time": 90719, "pitch": 40, "duration": 188, "velocity": 127}, {"time": 90960, "pitch": 52, "duration": 64, "velocity": 127}, {"time": 91080, "pitch": 40, "duration": 40, "velocity": 127}, {"time": 91201, "pitch": 40, "duration": 178, "velocity": 127}, {"time": 91441, "pitch": 52, "duration": 81, "velocity": 127}, {"time": 91562, "pitch": 40, "duration": 51, "velocity": 127}, {"time": 91682, "pitch": 33, "duration": 109, "velocity": 127}, {"time": 91802, "pitch": 45, "duration": 79, "velocity": 127}, {"time": 91923, "pitch": 40, "duration": 68, "velocity": 127}, {"time": 92043, "pitch": 43, "duration": 78, "velocity": 127}, {"time": 92163, "pitch": 45, "duration": 94, "velocity": 127}, {"time": 92282, "pitch": 38, "duration": 87, "velocity": 127}, {"time": 92400, "pitch": 40, "duration": 80, "velocity": 127}, {"time": 92519, "pitch": 43, "duration": 94, "velocity": 127}, {"time": 92637, "pitch": 38, "duration": 201, "velocity": 127}, {"time": 92878, "pitch": 50, "duration": 53, "velocity": 127}, {"time": 92998, "pitch": 38, "duration": 44, "velocity": 127}, {"time": 93119, "pitch": 38, "duration": 170, "velocity": 127}, {"time": 93359, "pitch": 50, "duration": 56, "velocity": 127}, {"time": 93480, "pitch": 38, "duration": 42, "velocity": 127}, {"time": 93600, "pitch": 37, "duration": 188, "velocity": 127}, {"time": 93841, "pitch": 49, "duration": 56, "velocity": 127}, {"time": 93961, "pitch": 37, "duration": 30, "velocity": 127}, {"time": 94081, "pitch": 37, "duration": 147, "velocity": 127}, {"time": 94322, "pitch": 49, "duration": 80, "velocity": 127}, {"time": 94442, "pitch": 37, "duration": 69, "velocity": 127}, {"time": 94563, "pitch": 35, "duration": 200, "velocity": 127}, {"time": 94800, "pitch": 47, "duration": 67, "velocity": 127}, {"time": 94918, "pitch": 35, "duration": 30, "velocity": 127}, {"time": 95037, "pitch": 35, "duration": 147, "velocity": 127}, {"time": 95277, "pitch": 47, "duration": 58, "velocity": 127}, {"time": 95398, "pitch": 35, "duration": 50, "velocity": 127}, {"time": 95518, "pitch": 31, "duration": 166, "velocity": 127}, {"time": 95759, "pitch": 43, "duration": 86, "velocity": 127}, {"time": 95879, "pitch": 31, "duration": 47, "velocity": 127}, {"time": 95999, "pitch": 31, "duration": 179, "velocity": 127}, {"time": 96240, "pitch": 43, "duration": 80, "velocity": 127}, {"time": 96360, "pitch": 31, "duration": 113, "velocity": 127}, {"time": 96481, "pitch": 38, "duration": 194, "velocity": 127}, {"time": 96721, "pitch": 50, "duration": 60, "velocity": 127}, {"time": 96842, "pitch": 38, "duration": 45, "velocity": 127}, {"time": 96962, "pitch": 38, "duration": 165, "velocity": 127}, {"time": 97203, "pitch": 50, "duration": 68, "velocity": 127}, {"time": 97323, "pitch": 38, "duration": 55, "velocity": 127}, {"time": 97443, "pitch": 35, "duration": 201, "velocity": 127}, {"time": 97680, "pitch": 47, "duration": 67, "velocity": 127}, {"time": 97799, "pitch": 35, "duration": 30, "velocity": 127}, {"time": 97917, "pitch": 35, "duration": 148, "velocity": 127}, {"time": 98158, "pitch": 47, "duration": 57, "velocity": 127}, {"time": 98278, "pitch": 35, "duration": 51, "velocity": 127}, {"time": 98399, "pitch": 40, "duration": 187, "velocity": 127}, {"time": 98639, "pitch": 52, "duration": 65, "velocity": 127}, {"time": 98760, "pitch": 40, "duration": 40, "velocity": 127}, {"time": 98880, "pitch": 40, "duration": 178, "velocity": 127}, {"time": 99121, "pitch": 52, "duration": 81, "velocity": 127}, {"time": 99241, "pitch": 40, "duration": 51, "velocity": 127}, {"time": 99361, "pitch": 33, "duration": 110, "velocity": 127}, {"time": 99482, "pitch": 45, "duration": 79, "velocity": 127}, {"time": 99602, "pitch": 40, "duration": 68, "velocity": 127}, {"time": 99722, "pitch": 43, "duration": 78, "velocity": 127}, {"time": 99843, "pitch": 45, "duration": 93, "velocity": 127}, {"time": 99961, "pitch": 38, "duration": 87, "velocity": 127}, {"time": 100080, "pitch": 40, "duration": 80, "velocity": 127}, {"time": 100198, "pitch": 43, "duration": 94, "velocity": 127}, {"time": 100317, "pitch": 31, "duration": 154, "velocity": 127}, {"time": 100678, "pitch": 31, "duration": 81, "velocity": 127}, {"time": 100798, "pitch": 43, "duration": 176, "velocity": 127}, {"time": 101039, "pitch": 31, "duration": 78, "velocity": 127}, {"time": 101279, "pitch": 31, "duration": 159, "velocity": 127}, {"time": 101640, "pitch": 31, "duration": 82, "velocity": 127}, {"time": 101761, "pitch": 43, "duration": 59, "velocity": 127}, {"time": 101881, "pitch": 38, "duration": 110, "velocity": 127}, {"time": 102001, "pitch": 40, "duration": 76, "velocity": 127}, {"time": 102122, "pitch": 43, "duration": 89, "velocity": 127}, {"time": 102242, "pitch": 31, "duration": 86, "velocity": 127}, {"time": 102362, "pitch": 31, "duration": 124, "velocity": 127}, {"time": 102603, "pitch": 31, "duration": 127, "velocity": 127}, {"time": 102723, "pitch": 43, "duration": 190, "velocity": 127}, {"time": 102960, "pitch": 31, "duration": 87, "velocity": 127}, {"time": 103197, "pitch": 31, "duration": 289, "velocity": 127}, {"time": 103679, "pitch": 43, "duration": 63, "velocity": 127}, {"time": 103799, "pitch": 38, "duration": 104, "velocity": 127}, {"time": 103919, "pitch": 40, "duration": 78, "velocity": 127}, {"time": 104040, "pitch": 43, "duration": 76, "velocity": 127}, {"time": 104160, "pitch": 33, "duration": 49, "velocity": 127}, {"time": 104280, "pitch": 33, "duration": 90, "velocity": 127}, {"time": 104521, "pitch": 33, "duration": 104, "velocity": 127}, {"time": 104641, "pitch": 45, "duration": 273, "velocity": 127}, {"time": 104882, "pitch": 33, "duration": 58, "velocity": 127}, {"time": 105123, "pitch": 33, "duration": 289, "velocity": 127}, {"time": 105597, "pitch": 45, "duration": 91, "velocity": 127}, {"time": 105717, "pitch": 40, "duration": 91, "velocity": 127}, {"time": 105837, "pitch": 43, "duration": 78, "velocity": 127}, {"time": 105958, "pitch": 45, "duration": 77, "velocity": 127}, {"time": 106078, "pitch": 33, "duration": 65, "velocity": 127}, {"time": 106198, "pitch": 33, "duration": 103, "velocity": 127}, {"time": 106439, "pitch": 33, "duration": 93, "velocity": 127}, {"time": 106559, "pitch": 45, "duration": 162, "velocity": 127}, {"time": 106800, "pitch": 33, "duration": 139, "velocity": 127}, {"time": 107041, "pitch": 45, "duration": 223, "velocity": 127}, {"time": 107281, "pitch": 33, "duration": 46, "velocity": 127}, {"time": 107402, "pitch": 33, "duration": 82, "velocity": 127}, {"time": 107522, "pitch": 45, "duration": 91, "velocity": 127}, {"time": 107642, "pitch": 40, "duration": 49, "velocity": 127}, {"time": 107763, "pitch": 43, "duration": 80, "velocity": 127}, {"time": 107883, "pitch": 45, "duration": 87, "velocity": 127}, {"time": 108003, "pitch": 31, "duration": 191, "velocity": 127}, {"time": 108359, "pitch": 31, "duration": 73, "velocity": 127}, {"time": 108477, "pitch": 43, "duration": 207, "velocity": 127}, {"time": 108718, "pitch": 31, "duration": 65, "velocity": 127}, {"time": 108959, "pitch": 31, "duration": 187, "velocity": 127}, {"time": 109199, "pitch": 43, "duration": 59, "velocity": 127}, {"time": 109320, "pitch": 31, "duration": 62, "velocity": 127}, {"time": 109440, "pitch": 43, "duration": 192, "velocity": 127}, {"time": 109681, "pitch": 31, "duration": 96, "velocity": 127}, {"time": 109921, "pitch": 30, "duration": 186, "velocity": 127}, {"time": 110162, "pitch": 42, "duration": 66, "velocity": 127}, {"time": 110282, "pitch": 30, "duration": 49, "velocity": 127}, {"time": 110403, "pitch": 30, "duration": 186, "velocity": 127}, {"time": 110640, "pitch": 42, "duration": 155, "velocity": 127}, {"time": 110877, "pitch": 30, "duration": 174, "velocity": 127}, {"time": 111117, "pitch": 42, "duration": 42, "velocity": 127}, {"time": 111238, "pitch": 30, "duration": 36, "velocity": 127}, {"time": 111358, "pitch": 42, "duration": 213, "velocity": 127}, {"time": 111599, "pitch": 30, "duration": 112, "velocity": 127}, {"time": 111839, "pitch": 28, "duration": 183, "velocity": 127}, {"time": 112080, "pitch": 40, "duration": 64, "velocity": 127}, {"time": 112200, "pitch": 28, "duration": 30, "velocity": 127}, {"time": 112321, "pitch": 28, "duration": 132, "velocity": 127}, {"time": 112561, "pitch": 40, "duration": 65, "velocity": 127}, {"time": 112682, "pitch": 28, "duration": 42, "velocity": 127}, {"time": 112802, "pitch": 28, "duration": 144, "velocity": 127}, {"time": 113043, "pitch": 40, "duration": 58, "velocity": 127}, {"time": 113163, "pitch": 28, "duration": 30, "velocity": 127}, {"time": 113283, "pitch": 28, "duration": 166, "velocity": 127}, {"time": 113520, "pitch": 40, "duration": 94, "velocity": 127}, {"time": 113757, "pitch": 33, "duration": 171, "velocity": 127}, {"time": 113998, "pitch": 45, "duration": 68, "velocity": 127}, {"time": 114118, "pitch": 33, "duration": 62, "velocity": 127}, {"time": 114239, "pitch": 33, "duration": 165, "velocity": 127}, {"time": 114479, "pitch": 45, "duration": 50, "velocity": 127}, {"time": 114600, "pitch": 33, "duration": 57, "velocity": 127}, {"time": 114720, "pitch": 33, "duration": 157, "velocity": 127}, {"time": 114961, "pitch": 45, "duration": 63, "velocity": 127}, {"time": 115081, "pitch": 33, "duration": 58, "velocity": 127}, {"time": 115201, "pitch": 33, "duration": 121, "velocity": 127}, {"time": 115322, "pitch": 35, "duration": 120, "velocity": 127}, {"time": 115442, "pitch": 37, "duration": 120, "velocity": 127}, {"time": 115562, "pitch": 40, "duration": 120, "velocity": 127}, {"time": 115682, "pitch": 33, "duration": 203, "velocity": 127}, {"time": 115920, "pitch": 45, "duration": 29, "velocity": 127}, {"time": 116038, "pitch": 45, "duration": 115, "velocity": 127}, {"time": 116157, "pitch": 33, "duration": 125, "velocity": 127}, {"time": 116277, "pitch": 40, "duration": 53, "velocity": 127}, {"time": 116397, "pitch": 43, "duration": 145, "velocity": 127}, {"time": 116518, "pitch": 45, "duration": 100, "velocity": 127}, {"time": 116638, "pitch": 33, "duration": 122, "velocity": 127}, {"time": 116758, "pitch": 38, "duration": 71, "velocity": 127}, {"time": 116879, "pitch": 40, "duration": 88, "velocity": 127}, {"time": 116999, "pitch": 43, "duration": 73, "velocity": 127}, {"time": 117119, "pitch": 33, "duration": 93, "velocity": 127}, {"time": 117240, "pitch": 38, "duration": 82, "velocity": 127}, {"time": 117360, "pitch": 40, "duration": 130, "velocity": 127}, {"time": 117480, "pitch": 43, "duration": 38, "velocity": 127}, {"time": 117601, "pitch": 33, "duration": 209, "velocity": 127}, {"time": 123362, "pitch": 38, "duration": 194, "velocity": 127}, {"time": 123603, "pitch": 50, "duration": 60, "velocity": 127}, {"time": 123723, "pitch": 38, "duration": 45, "velocity": 127}, {"time": 123843, "pitch": 38, "duration": 163, "velocity": 127}, {"time": 124080, "pitch": 50, "duration": 67, "velocity": 127}, {"time": 124199, "pitch": 38, "duration": 54, "velocity": 127}, {"time": 124317, "pitch": 35, "duration": 204, "velocity": 127}, {"time": 124558, "pitch": 47, "duration": 68, "velocity": 127}, {"time": 124678, "pitch": 35, "duration": 30, "velocity": 127}, {"time": 124799, "pitch": 35, "duration": 147, "velocity": 127}, {"time": 125039, "pitch": 47, "duration": 57, "velocity": 127}, {"time": 125160, "pitch": 35, "duration": 50, "velocity": 127}, {"time": 125280, "pitch": 40, "duration": 187, "velocity": 127}, {"time": 125521, "pitch": 52, "duration": 64, "velocity": 127}, {"time": 125641, "pitch": 40, "duration": 40, "velocity": 127}, {"time": 125761, "pitch": 40, "duration": 179, "velocity": 127}, {"time": 126002, "pitch": 52, "duration": 81, "velocity": 127}, {"time": 126122, "pitch": 40, "duration": 51, "velocity": 127}, {"time": 126242, "pitch": 33, "duration": 108, "velocity": 127}, {"time": 126361, "pitch": 45, "duration": 78, "velocity": 127}, {"time": 126480, "pitch": 40, "duration": 67, "velocity": 127}, {"time": 126598, "pitch": 43, "duration": 77, "velocity": 127}, {"time": 126717, "pitch": 45, "duration": 95, "velocity": 127}, {"time": 126837, "pitch": 38, "duration": 88, "velocity": 127}, {"time": 126957, "pitch": 40, "duration": 82, "velocity": 127}, {"time": 127078, "pitch": 43, "duration": 95, "velocity": 127}, {"time": 127198, "pitch": 38, "duration": 201, "velocity": 127}, {"time": 127439, "pitch": 50, "duration": 53, "velocity": 127}, {"time": 127559, "pitch": 38, "duration": 44, "velocity": 127}, {"time": 127679, "pitch": 38, "duration": 171, "velocity": 127}, {"time": 127920, "pitch": 50, "duration": 56, "velocity": 127}, {"time": 128040, "pitch": 38, "duration": 42, "velocity": 127}, {"time": 128161, "pitch": 37, "duration": 188, "velocity": 127}, {"time": 128401, "pitch": 49, "duration": 56, "velocity": 127}, {"time": 128522, "pitch": 37, "duration": 30, "velocity": 127}, {"time": 128642, "pitch": 37, "duration": 146, "velocity": 127}, {"time": 128883, "pitch": 49, "duration": 80, "velocity": 127}, {"time": 129003, "pitch": 37, "duration": 69, "velocity": 127}, {"time": 129123, "pitch": 35, "duration": 201, "velocity": 127}, {"time": 129360, "pitch": 47, "duration": 67, "velocity": 127}, {"time": 129479, "pitch": 35, "duration": 30, "velocity": 127}, {"time": 129597, "pitch": 35, "duration": 148, "velocity": 127}, {"time": 129838, "pitch": 47, "duration": 57, "velocity": 127}, {"time": 129958, "pitch": 35, "duration": 50, "velocity": 127}, {"time": 130079, "pitch": 31, "duration": 166, "velocity": 127}, {"time": 130319, "pitch": 43, "duration": 87, "velocity": 127}, {"time": 130440, "pitch": 31, "duration": 47, "velocity": 127}, {"time": 130560, "pitch": 31, "duration": 178, "velocity": 127}, {"time": 130801, "pitch": 43, "duration": 80, "velocity": 127}, {"time": 130921, "pitch": 31, "duration": 112, "velocity": 127}, {"time": 131041, "pitch": 38, "duration": 195, "velocity": 127}, {"time": 131282, "pitch": 50, "duration": 60, "velocity": 127}, {"time": 131402, "pitch": 38, "duration": 45, "velocity": 127}, {"time": 131522, "pitch": 38, "duration": 164, "velocity": 127}, {"time": 131760, "pitch": 50, "duration": 67, "velocity": 127}, {"time": 131878, "pitch": 38, "duration": 55, "velocity": 127}, {"time": 131997, "pitch": 35, "duration": 203, "velocity": 127}, {"time": 132237, "pitch": 47, "duration": 69, "velocity": 127}, {"time": 132358, "pitch": 35, "duration": 30, "velocity": 127}, {"time": 132478, "pitch": 35, "duration": 147, "velocity": 127}, {"time": 132719, "pitch": 47, "duration": 57, "velocity": 127}, {"time": 132839, "pitch": 35, "duration": 50, "velocity": 127}, {"time": 132959, "pitch": 40, "duration": 188, "velocity": 127}, {"time": 133200, "pitch": 52, "duration": 64, "velocity": 127}, {"time": 133320, "pitch": 40, "duration": 40, "velocity": 127}, {"time": 133441, "pitch": 40, "duration": 178, "velocity": 127}, {"time": 133681, "pitch": 52, "duration": 81, "velocity": 127}, {"time": 133802, "pitch": 40, "duration": 51, "velocity": 127}, {"time": 133922, "pitch": 33, "duration": 109, "velocity": 127}, {"time": 134042, "pitch": 45, "duration": 79, "velocity": 127}, {"time": 134163, "pitch": 40, "duration": 68, "velocity": 127}, {"time": 134283, "pitch": 43, "duration": 78, "velocity": 127}, {"time": 134403, "pitch": 45, "duration": 94, "velocity": 127}, {"time": 134522, "pitch": 38, "duration": 87, "velocity": 127}, {"time": 134640, "pitch": 40, "duration": 80, "velocity": 127}, {"time": 134759, "pitch": 43, "duration": 94, "velocity": 127}, {"time": 134877, "pitch": 38, "duration": 201, "velocity": 127}, {"time": 135118, "pitch": 50, "duration": 53, "velocity": 127}, {"time": 135238, "pitch": 38, "duration": 44, "velocity": 127}, {"time": 135359, "pitch": 38, "duration": 170, "velocity": 127}, {"time": 135599, "pitch": 50, "duration": 56, "velocity": 127}, {"time": 135720, "pitch": 38, "duration": 42, "velocity": 127}, {"time": 135840, "pitch": 37, "duration": 188, "velocity": 127}, {"time": 136081, "pitch": 49, "duration": 56, "velocity": 127}, {"time": 136201, "pitch": 37, "duration": 30, "velocity": 127}, {"time": 136321, "pitch": 37, "duration": 147, "velocity": 127}, {"time": 136562, "pitch": 49, "duration": 80, "velocity": 127}, {"time": 136682, "pitch": 37, "duration": 69, "velocity": 127}, {"time": 136802, "pitch": 35, "duration": 201, "velocity": 127}, {"time": 137040, "pitch": 47, "duration": 67, "velocity": 127}, {"time": 137158, "pitch": 35, "duration": 30, "velocity": 127}, {"time": 137277, "pitch": 35, "duration": 147, "velocity": 127}, {"time": 137517, "pitch": 47, "duration": 58, "velocity": 127}, {"time": 137638, "pitch": 35, "duration": 50, "velocity": 127}, {"time": 137758, "pitch": 31, "duration": 166, "velocity": 127}, {"time": 137999, "pitch": 43, "duration": 86, "velocity": 127}, {"time": 138119, "pitch": 31, "duration": 47, "velocity": 127}, {"time": 138239, "pitch": 31, "duration": 179, "velocity": 127}, {"time": 138480, "pitch": 43, "duration": 80, "velocity": 127}, {"time": 138600, "pitch": 31, "duration": 113, "velocity": 127}, {"time": 138721, "pitch": 38, "duration": 194, "velocity": 127}, {"time": 138961, "pitch": 50, "duration": 60, "velocity": 127}, {"time": 139082, "pitch": 38, "duration": 45, "velocity": 127}, {"time": 139202, "pitch": 38, "duration": 165, "velocity": 127}, {"time": 139443, "pitch": 50, "duration": 68, "velocity": 127}, {"time": 139563, "pitch": 38, "duration": 55, "velocity": 127}, {"time": 139683, "pitch": 35, "duration": 201, "velocity": 127}, {"time": 139920, "pitch": 47, "duration": 67, "velocity": 127}, {"time": 140039, "pitch": 35, "duration": 30, "velocity": 127}, {"time": 140157, "pitch": 35, "duration": 148, "velocity": 127}, {"time": 140398, "pitch": 47, "duration": 57, "velocity": 127}, {"time": 140518, "pitch": 35, "duration": 50, "velocity": 127}, {"time": 140639, "pitch": 40, "duration": 187, "velocity": 127}, {"time": 140879, "pitch": 52, "duration": 64, "velocity": 127}, {"time": 141000, "pitch": 40, "duration": 40, "velocity": 127}, {"time": 141120, "pitch": 40, "duration": 178, "velocity": 127}, {"time": 141361, "pitch": 52, "duration": 81, "velocity": 127}, {"time": 141481, "pitch": 40, "duration": 51, "velocity": 127}, {"time": 141601, "pitch": 33, "duration": 110, "velocity": 127}, {"time": 141722, "pitch": 45, "duration": 79, "velocity": 127}, {"time": 141842, "pitch": 40, "duration": 68, "velocity": 127}, {"time": 141962, "pitch": 43, "duration": 78, "velocity": 127}, {"time": 142082, "pitch": 45, "duration": 94, "velocity": 127}, {"time": 142201, "pitch": 38, "duration": 87, "velocity": 127}, {"time": 142320, "pitch": 40, "duration": 80, "velocity": 127}, {"time": 142438, "pitch": 43, "duration": 94, "velocity": 127}, {"time": 142557, "pitch": 38, "duration": 200, "velocity": 127}, {"time": 142797, "pitch": 50, "duration": 54, "velocity": 127}, {"time": 142918, "pitch": 38, "duration": 44, "velocity": 127}, {"time": 143038, "pitch": 38, "duration": 170, "velocity": 127}, {"time": 143279, "pitch": 50, "duration": 56, "velocity": 127}, {"time": 143399, "pitch": 38, "duration": 42, "velocity": 127}, {"time": 143519, "pitch": 37, "duration": 189, "velocity": 127}, {"time": 143760, "pitch": 49, "duration": 56, "velocity": 127}, {"time": 143880, "pitch": 37, "duration": 30, "velocity": 127}, {"time": 144001, "pitch": 37, "duration": 146, "velocity": 127}, {"time": 144241, "pitch": 49, "duration": 80, "velocity": 127}, {"time": 144362, "pitch": 37, "duration": 69, "velocity": 127}, {"time": 144482, "pitch": 35, "duration": 203, "velocity": 127}, {"time": 144723, "pitch": 47, "duration": 68, "velocity": 127}, {"time": 144843, "pitch": 35, "duration": 30, "velocity": 127}, {"time": 144963, "pitch": 35, "duration": 145, "velocity": 127}, {"time": 145200, "pitch": 47, "duration": 57, "velocity": 127}, {"time": 145319, "pitch": 35, "duration": 49, "velocity": 127}, {"time": 145437, "pitch": 31, "duration": 167, "velocity": 127}, {"time": 145678, "pitch": 43, "duration": 86, "velocity": 127}, {"time": 145798, "pitch": 31, "duration": 47, "velocity": 127}, {"time": 145919, "pitch": 31, "duration": 178, "velocity": 127}, {"time": 146159, "pitch": 43, "duration": 81, "velocity": 127}, {"time": 146280, "pitch": 31, "duration": 112, "velocity": 127}, {"time": 146400, "pitch": 38, "duration": 194, "velocity": 127}, {"time": 146641, "pitch": 50, "duration": 60, "velocity": 127}, {"time": 146761, "pitch": 38, "duration": 45, "velocity": 127}, {"time": 146881, "pitch": 38, "duration": 166, "velocity": 127}, {"time": 147122, "pitch": 50, "duration": 68, "velocity": 127}, {"time": 147242, "pitch": 38, "duration": 55, "velocity": 127}, {"time": 147362, "pitch": 35, "duration": 201, "velocity": 127}, {"time": 147600, "pitch": 47, "duration": 67, "velocity": 127}, {"time": 147718, "pitch": 35, "duration": 30, "velocity": 127}, {"time": 147837, "pitch": 35, "duration": 147, "velocity": 127}, {"time": 148077, "pitch": 47, "duration": 58, "velocity": 127}, {"time": 148198, "pitch": 35, "duration": 50, "velocity": 127}, {"time": 148318, "pitch": 40, "duration": 188, "velocity": 127}, {"time": 148559, "pitch": 52, "duration": 64, "velocity": 127}, {"time": 148679, "pitch": 40, "duration": 40, "velocity": 127}, {"time": 148799, "pitch": 40, "duration": 179, "velocity": 127}, {"time": 149040, "pitch": 52, "duration": 81, "velocity": 127}, {"time": 149160, "pitch": 40, "duration": 51, "velocity": 127}, {"time": 149281, "pitch": 33, "duration": 109, "velocity": 127}, {"time": 149401, "pitch": 45, "duration": 79, "velocity": 127}, {"time": 149521, "pitch": 40, "duration": 68, "velocity": 127}, {"time": 149642, "pitch": 43, "duration": 78, "velocity": 127}, {"time": 149762, "pitch": 45, "duration": 95, "velocity": 127}, {"time": 149882, "pitch": 38, "duration": 88, "velocity": 127}, {"time": 150003, "pitch": 40, "duration": 81, "velocity": 127}, {"time": 150123, "pitch": 43, "duration": 95, "velocity": 127}, {"time": 150243, "pitch": 38, "duration": 130, "velocity": 127}, {"time": 150480, "pitch": 38, "duration": 97, "velocity": 127}, {"time": 150717, "pitch": 38, "duration": 103, "velocity": 127}, {"time": 150958, "pitch": 38, "duration": 122, "velocity": 127}, {"time": 151199, "pitch": 35, "duration": 104, "velocity": 127}, {"time": 151439, "pitch": 35, "duration": 97, "velocity": 127}, {"time": 151680, "pitch": 35, "duration": 67, "velocity": 127}, {"time": 151921, "pitch": 35, "duration": 97, "velocity": 127}, {"time": 152161, "pitch": 31, "duration": 108, "velocity": 127}, {"time": 152402, "pitch": 31, "duration": 77, "velocity": 127}, {"time": 152642, "pitch": 31, "duration": 58, "velocity": 127}, {"time": 152880, "pitch": 31, "duration": 105, "velocity": 127}, {"time": 152998, "pitch": 33, "duration": 82, "velocity": 127}, {"time": 153237, "pitch": 33, "duration": 93, "velocity": 127}, {"time": 153478, "pitch": 33, "duration": 38, "velocity": 127}, {"time": 153598, "pitch": 33, "duration": 111, "velocity": 127}, {"time": 153839, "pitch": 33, "duration": 156, "velocity": 127}, {"time": 154079, "pitch": 35, "duration": 92, "velocity": 127}, {"time": 154320, "pitch": 35, "duration": 98, "velocity": 127}, {"time": 154561, "pitch": 35, "duration": 97, "velocity": 127}, {"time": 154801, "pitch": 35, "duration": 65, "velocity": 127}, {"time": 154922, "pitch": 31, "duration": 113, "velocity": 127}, {"time": 155162, "pitch": 31, "duration": 83, "velocity": 127}, {"time": 155403, "pitch": 31, "duration": 51, "velocity": 127}, {"time": 155523, "pitch": 31, "duration": 113, "velocity": 127}, {"time": 155760, "pitch": 31, "duration": 115, "velocity": 127}, {"time": 155997, "pitch": 28, "duration": 248, "velocity": 127}, {"time": 156358, "pitch": 28, "duration": 242, "velocity": 127}, {"time": 156719, "pitch": 33, "duration": 423, "velocity": 127}, {"time": 157922, "pitch": 31, "duration": 1643, "velocity": 127}, {"time": 159600, "pitch": 43, "duration": 255, "velocity": 127}, {"time": 159841, "pitch": 31, "duration": 1629, "velocity": 127}, {"time": 161518, "pitch": 31, "duration": 108, "velocity": 127}, {"time": 161638, "pitch": 31, "duration": 109, "velocity": 127}], "annotations": [{"time": 211, "annotation": {"number": 7, "value": 120}, "group": "control_change"}, {"time": 230, "annotation": {"number": 11, "value": 120}, "group": "control_change"}, {"time": 249, "annotation": {"number": 10, "value": 64}, "group": "control_change"}, {"time": 268, "annotation": {"number": 91, "value": 5}, "group": "control_change"}, {"time": 287, "annotation": {"number": 93, "value": 0}, "group": "control_change"}, {"time": 306, "annotation": {"number": 94, "value": 0}, "group": "control_change"}, {"time": 326, "annotation": {"number": 101, "value": 0}, "group": "control_change"}, {"time": 345, "annotation": {"number": 100, "value": 0}, "group": "control_change"}, {"time": 364, "annotation": {"number": 6, "value": 12}, "group": "control_change"}, {"time": 383, "annotation": {"number": 101, "value": 127}, "group": "control_change"}, {"time": 402, "annotation": {"number": 100, "value": 127}, "group": "control_change"}]}, {"program": 0, "is_drum": false, "name": "ORGAN", "annotations": [{"time": 191, "annotation": {"number": 0, "value": 0}, "group": "control_change"}, {"time": 191, "annotation": {"number": 32, "value": 2}, "group": "control_change"}]}, {"program": 18, "is_drum": false, "name": "ORGAN", "notes": [{"time": 13919, "pitch": 79, "duration": 170, "velocity": 117}, {"time": 13919, "pitch": 83, "duration": 170, "velocity": 117}, {"time": 13919, "pitch": 86, "duration": 170, "velocity": 117}, {"time": 14280, "pitch": 79, "duration": 170, "velocity": 117}, {"time": 14280, "pitch": 83, "duration": 170, "velocity": 117}, {"time": 14280, "pitch": 86, "duration": 170, "velocity": 117}, {"time": 14641, "pitch": 81, "duration": 160, "velocity": 117}, {"time": 14641, "pitch": 85, "duration": 160, "velocity": 117}, {"time": 14641, "pitch": 88, "duration": 160, "velocity": 117}, {"time": 31203, "pitch": 79, "duration": 177, "velocity": 117}, {"time": 31203, "pitch": 83, "duration": 177, "velocity": 117}, {"time": 31203, "pitch": 86, "duration": 177, "velocity": 117}, {"time": 31558, "pitch": 81, "duration": 179, "velocity": 117}, {"time": 31558, "pitch": 85, "duration": 179, "velocity": 117}, {"time": 31558, "pitch": 88, "duration": 179, "velocity": 117}, {"time": 31917, "pitch": 74, "duration": 181, "velocity": 117}, {"time": 31917, "pitch": 81, "duration": 181, "velocity": 117}, {"time": 31917, "pitch": 86, "duration": 181, "velocity": 117}, {"time": 31917, "pitch": 90, "duration": 181, "velocity": 117}, {"time": 50397, "pitch": 79, "duration": 254, "velocity": 117}, {"time": 50397, "pitch": 83, "duration": 239, "velocity": 117}, {"time": 50397, "pitch": 86, "duration": 262, "velocity": 117}, {"time": 50397, "pitch": 90, "duration": 262, "velocity": 117}, {"time": 50758, "pitch": 79, "duration": 211, "velocity": 117}, {"time": 50758, "pitch": 83, "duration": 192, "velocity": 117}, {"time": 50758, "pitch": 86, "duration": 210, "velocity": 117}, {"time": 50758, "pitch": 90, "duration": 185, "velocity": 117}, {"time": 51119, "pitch": 79, "duration": 131, "velocity": 117}, {"time": 51119, "pitch": 81, "duration": 126, "velocity": 117}, {"time": 51119, "pitch": 85, "duration": 171, "velocity": 117}, {"time": 51119, "pitch": 88, "duration": 167, "velocity": 117}, {"time": 51360, "pitch": 79, "duration": 154, "velocity": 117}, {"time": 51360, "pitch": 83, "duration": 129, "velocity": 117}, {"time": 51360, "pitch": 86, "duration": 176, "velocity": 117}, {"time": 51360, "pitch": 90, "duration": 140, "velocity": 117}, {"time": 52082, "pitch": 79, "duration": 115, "velocity": 117}, {"time": 52082, "pitch": 83, "duration": 142, "velocity": 117}, {"time": 52082, "pitch": 86, "duration": 163, "velocity": 117}, {"time": 52082, "pitch": 90, "duration": 136, "velocity": 117}, {"time": 52323, "pitch": 81, "duration": 189, "velocity": 117}, {"time": 52323, "pitch": 85, "duration": 241, "velocity": 117}, {"time": 52323, "pitch": 88, "duration": 222, "velocity": 117}, {"time": 52678, "pitch": 81, "duration": 204, "velocity": 117}, {"time": 52678, "pitch": 85, "duration": 270, "velocity": 117}, {"time": 52678, "pitch": 88, "duration": 242, "velocity": 117}, {"time": 53037, "pitch": 81, "duration": 150, "velocity": 117}, {"time": 53037, "pitch": 85, "duration": 176, "velocity": 117}, {"time": 53037, "pitch": 90, "duration": 168, "velocity": 117}, {"time": 53278, "pitch": 81, "duration": 161, "velocity": 117}, {"time": 53278, "pitch": 85, "duration": 186, "velocity": 117}, {"time": 53278, "pitch": 88, "duration": 171, "velocity": 117}, {"time": 54241, "pitch": 81, "duration": 237, "velocity": 117}, {"time": 54241, "pitch": 85, "duration": 282, "velocity": 117}, {"time": 54241, "pitch": 90, "duration": 259, "velocity": 117}, {"time": 54602, "pitch": 81, "duration": 247, "velocity": 117}, {"time": 54602, "pitch": 85, "duration": 295, "velocity": 117}, {"time": 54602, "pitch": 90, "duration": 247, "velocity": 117}, {"time": 54963, "pitch": 81, "duration": 126, "velocity": 117}, {"time": 54963, "pitch": 85, "duration": 189, "velocity": 117}, {"time": 54963, "pitch": 88, "duration": 169, "velocity": 117}, {"time": 55203, "pitch": 81, "duration": 311, "velocity": 117}, {"time": 55203, "pitch": 85, "duration": 309, "velocity": 117}, {"time": 55203, "pitch": 90, "duration": 310, "velocity": 117}, {"time": 56159, "pitch": 78, "duration": 233, "velocity": 117}, {"time": 56159, "pitch": 81, "duration": 242, "velocity": 117}, {"time": 56159, "pitch": 83, "duration": 278, "velocity": 117}, {"time": 56159, "pitch": 86, "duration": 237, "velocity": 117}, {"time": 56520, "pitch": 78, "duration": 264, "velocity": 117}, {"time": 56520, "pitch": 81, "duration": 291, "velocity": 117}, {"time": 56520, "pitch": 83, "duration": 301, "velocity": 117}, {"time": 56520, "pitch": 86, "duration": 237, "velocity": 117}, {"time": 56881, "pitch": 78, "duration": 141, "velocity": 117}, {"time": 56881, "pitch": 81, "duration": 168, "velocity": 117}, {"time": 56881, "pitch": 83, "duration": 182, "velocity": 117}, {"time": 56881, "pitch": 88, "duration": 130, "velocity": 117}, {"time": 57121, "pitch": 78, "duration": 257, "velocity": 117}, {"time": 57121, "pitch": 81, "duration": 258, "velocity": 117}, {"time": 57121, "pitch": 83, "duration": 269, "velocity": 117}, {"time": 57121, "pitch": 86, "duration": 263, "velocity": 117}, {"time": 58077, "pitch": 79, "duration": 253, "velocity": 117}, {"time": 58077, "pitch": 83, "duration": 238, "velocity": 117}, {"time": 58077, "pitch": 86, "duration": 261, "velocity": 117}, {"time": 58077, "pitch": 90, "duration": 261, "velocity": 117}, {"time": 58438, "pitch": 79, "duration": 210, "velocity": 117}, {"time": 58438, "pitch": 83, "duration": 191, "velocity": 117}, {"time": 58438, "pitch": 86, "duration": 209, "velocity": 117}, {"time": 58438, "pitch": 90, "duration": 184, "velocity": 117}, {"time": 58799, "pitch": 79, "duration": 130, "velocity": 117}, {"time": 58799, "pitch": 81, "duration": 125, "velocity": 117}, {"time": 58799, "pitch": 85, "duration": 170, "velocity": 117}, {"time": 58799, "pitch": 88, "duration": 166, "velocity": 117}, {"time": 59039, "pitch": 79, "duration": 155, "velocity": 117}, {"time": 59039, "pitch": 83, "duration": 130, "velocity": 117}, {"time": 59039, "pitch": 86, "duration": 177, "velocity": 117}, {"time": 59039, "pitch": 90, "duration": 141, "velocity": 117}, {"time": 59761, "pitch": 79, "duration": 116, "velocity": 117}, {"time": 59761, "pitch": 83, "duration": 143, "velocity": 117}, {"time": 59761, "pitch": 86, "duration": 164, "velocity": 117}, {"time": 59761, "pitch": 90, "duration": 137, "velocity": 117}, {"time": 60002, "pitch": 81, "duration": 192, "velocity": 117}, {"time": 60002, "pitch": 85, "duration": 245, "velocity": 117}, {"time": 60002, "pitch": 88, "duration": 226, "velocity": 117}, {"time": 60363, "pitch": 81, "duration": 204, "velocity": 117}, {"time": 60363, "pitch": 85, "duration": 269, "velocity": 117}, {"time": 60363, "pitch": 88, "duration": 242, "velocity": 117}, {"time": 60720, "pitch": 81, "duration": 148, "velocity": 117}, {"time": 60720, "pitch": 85, "duration": 173, "velocity": 117}, {"time": 60720, "pitch": 90, "duration": 165, "velocity": 117}, {"time": 60957, "pitch": 81, "duration": 162, "velocity": 117}, {"time": 60957, "pitch": 85, "duration": 186, "velocity": 117}, {"time": 60957, "pitch": 88, "duration": 171, "velocity": 117}, {"time": 61920, "pitch": 81, "duration": 238, "velocity": 117}, {"time": 61920, "pitch": 85, "duration": 283, "velocity": 117}, {"time": 61920, "pitch": 90, "duration": 260, "velocity": 117}, {"time": 62281, "pitch": 81, "duration": 248, "velocity": 117}, {"time": 62281, "pitch": 85, "duration": 296, "velocity": 117}, {"time": 62281, "pitch": 90, "duration": 248, "velocity": 117}, {"time": 62642, "pitch": 81, "duration": 126, "velocity": 117}, {"time": 62642, "pitch": 85, "duration": 189, "velocity": 117}, {"time": 62642, "pitch": 88, "duration": 169, "velocity": 117}, {"time": 62883, "pitch": 81, "duration": 311, "velocity": 117}, {"time": 62883, "pitch": 85, "duration": 309, "velocity": 117}, {"time": 62883, "pitch": 90, "duration": 310, "velocity": 117}, {"time": 63838, "pitch": 78, "duration": 234, "velocity": 117}, {"time": 63838, "pitch": 81, "duration": 243, "velocity": 117}, {"time": 63838, "pitch": 83, "duration": 279, "velocity": 117}, {"time": 63838, "pitch": 86, "duration": 238, "velocity": 117}, {"time": 64199, "pitch": 78, "duration": 265, "velocity": 117}, {"time": 64199, "pitch": 81, "duration": 292, "velocity": 117}, {"time": 64199, "pitch": 83, "duration": 302, "velocity": 117}, {"time": 64199, "pitch": 86, "duration": 238, "velocity": 117}, {"time": 64560, "pitch": 78, "duration": 141, "velocity": 117}, {"time": 64560, "pitch": 81, "duration": 168, "velocity": 117}, {"time": 64560, "pitch": 83, "duration": 182, "velocity": 117}, {"time": 64560, "pitch": 88, "duration": 130, "velocity": 117}, {"time": 64801, "pitch": 78, "duration": 256, "velocity": 117}, {"time": 64801, "pitch": 81, "duration": 257, "velocity": 117}, {"time": 64801, "pitch": 83, "duration": 268, "velocity": 117}, {"time": 64801, "pitch": 86, "duration": 262, "velocity": 117}, {"time": 65763, "pitch": 79, "duration": 168, "velocity": 117}, {"time": 65763, "pitch": 83, "duration": 168, "velocity": 117}, {"time": 65763, "pitch": 86, "duration": 168, "velocity": 117}, {"time": 66119, "pitch": 79, "duration": 169, "velocity": 117}, {"time": 66119, "pitch": 83, "duration": 169, "velocity": 117}, {"time": 66119, "pitch": 86, "duration": 169, "velocity": 117}, {"time": 66478, "pitch": 81, "duration": 160, "velocity": 117}, {"time": 66478, "pitch": 85, "duration": 160, "velocity": 117}, {"time": 66478, "pitch": 88, "duration": 160, "velocity": 117}, {"time": 83040, "pitch": 79, "duration": 180, "velocity": 117}, {"time": 83040, "pitch": 83, "duration": 180, "velocity": 117}, {"time": 83040, "pitch": 86, "duration": 180, "velocity": 117}, {"time": 83401, "pitch": 81, "duration": 180, "velocity": 117}, {"time": 83401, "pitch": 85, "duration": 180, "velocity": 117}, {"time": 83401, "pitch": 88, "duration": 180, "velocity": 117}, {"time": 83762, "pitch": 74, "duration": 180, "velocity": 117}, {"time": 83762, "pitch": 81, "duration": 180, "velocity": 117}, {"time": 83762, "pitch": 86, "duration": 180, "velocity": 117}, {"time": 83762, "pitch": 90, "duration": 180, "velocity": 117}, {"time": 100317, "pitch": 83, "duration": 222, "velocity": 117}, {"time": 100317, "pitch": 86, "duration": 240, "velocity": 117}, {"time": 100317, "pitch": 90, "duration": 233, "velocity": 117}, {"time": 100678, "pitch": 83, "duration": 66, "velocity": 117}, {"time": 100678, "pitch": 86, "duration": 84, "velocity": 117}, {"time": 100678, "pitch": 90, "duration": 88, "velocity": 117}, {"time": 101039, "pitch": 83, "duration": 52, "velocity": 117}, {"time": 101039, "pitch": 86, "duration": 71, "velocity": 117}, {"time": 101039, "pitch": 90, "duration": 72, "velocity": 117}, {"time": 101400, "pitch": 83, "duration": 48, "velocity": 117}, {"time": 101400, "pitch": 86, "duration": 60, "velocity": 117}, {"time": 101400, "pitch": 90, "duration": 70, "velocity": 117}, {"time": 101761, "pitch": 83, "duration": 43, "velocity": 117}, {"time": 101761, "pitch": 86, "duration": 37, "velocity": 117}, {"time": 101761, "pitch": 90, "duration": 77, "velocity": 117}, {"time": 102001, "pitch": 83, "duration": 38, "velocity": 117}, {"time": 102001, "pitch": 86, "duration": 70, "velocity": 117}, {"time": 102001, "pitch": 90, "duration": 74, "velocity": 117}, {"time": 102242, "pitch": 83, "duration": 244, "velocity": 117}, {"time": 102242, "pitch": 86, "duration": 268, "velocity": 117}, {"time": 102242, "pitch": 90, "duration": 263, "velocity": 117}, {"time": 102603, "pitch": 83, "duration": 247, "velocity": 117}, {"time": 102603, "pitch": 86, "duration": 268, "velocity": 117}, {"time": 102603, "pitch": 90, "duration": 251, "velocity": 117}, {"time": 102960, "pitch": 83, "duration": 58, "velocity": 117}, {"time": 102960, "pitch": 86, "duration": 76, "velocity": 117}, {"time": 102960, "pitch": 90, "duration": 83, "velocity": 117}, {"time": 103318, "pitch": 83, "duration": 35, "velocity": 117}, {"time": 103318, "pitch": 86, "duration": 63, "velocity": 117}, {"time": 103318, "pitch": 90, "duration": 86, "velocity": 117}, {"time": 103679, "pitch": 83, "duration": 164, "velocity": 117}, {"time": 103679, "pitch": 86, "duration": 185, "velocity": 117}, {"time": 103679, "pitch": 91, "duration": 155, "velocity": 117}, {"time": 103919, "pitch": 83, "duration": 91, "velocity": 117}, {"time": 103919, "pitch": 86, "duration": 99, "velocity": 117}, {"time": 103919, "pitch": 90, "duration": 114, "velocity": 117}, {"time": 104160, "pitch": 81, "duration": 255, "velocity": 117}, {"time": 104160, "pitch": 85, "duration": 267, "velocity": 117}, {"time": 104160, "pitch": 88, "duration": 259, "velocity": 117}, {"time": 104521, "pitch": 81, "duration": 173, "velocity": 117}, {"time": 104521, "pitch": 85, "duration": 214, "velocity": 117}, {"time": 104521, "pitch": 88, "duration": 206, "velocity": 117}, {"time": 104882, "pitch": 81, "duration": 75, "velocity": 117}, {"time": 104882, "pitch": 85, "duration": 93, "velocity": 117}, {"time": 104882, "pitch": 88, "duration": 95, "velocity": 117}, {"time": 105241, "pitch": 81, "duration": 114, "velocity": 117}, {"time": 105241, "pitch": 85, "duration": 110, "velocity": 117}, {"time": 105241, "pitch": 88, "duration": 109, "velocity": 117}, {"time": 105597, "pitch": 81, "duration": 147, "velocity": 117}, {"time": 105597, "pitch": 85, "duration": 154, "velocity": 117}, {"time": 105597, "pitch": 90, "duration": 178, "velocity": 117}, {"time": 105837, "pitch": 81, "duration": 90, "velocity": 117}, {"time": 105837, "pitch": 85, "duration": 103, "velocity": 117}, {"time": 105837, "pitch": 88, "duration": 102, "velocity": 117}, {"time": 106078, "pitch": 81, "duration": 236, "velocity": 117}, {"time": 106078, "pitch": 85, "duration": 255, "velocity": 117}, {"time": 106078, "pitch": 88, "duration": 253, "velocity": 117}, {"time": 106439, "pitch": 81, "duration": 181, "velocity": 117}, {"time": 106439, "pitch": 85, "duration": 220, "velocity": 117}, {"time": 106439, "pitch": 88, "duration": 210, "velocity": 117}, {"time": 106800, "pitch": 81, "duration": 106, "velocity": 117}, {"time": 106800, "pitch": 85, "duration": 136, "velocity": 117}, {"time": 106800, "pitch": 88, "duration": 123, "velocity": 117}, {"time": 107161, "pitch": 81, "duration": 106, "velocity": 117}, {"time": 107161, "pitch": 85, "duration": 109, "velocity": 117}, {"time": 107161, "pitch": 88, "duration": 140, "velocity": 117}, {"time": 107522, "pitch": 81, "duration": 118, "velocity": 117}, {"time": 107522, "pitch": 85, "duration": 141, "velocity": 117}, {"time": 107522, "pitch": 90, "duration": 147, "velocity": 117}, {"time": 107763, "pitch": 81, "duration": 134, "velocity": 117}, {"time": 107763, "pitch": 85, "duration": 133, "velocity": 117}, {"time": 107763, "pitch": 88, "duration": 122, "velocity": 117}, {"time": 108003, "pitch": 79, "duration": 233, "velocity": 117}, {"time": 108003, "pitch": 83, "duration": 250, "velocity": 117}, {"time": 108003, "pitch": 86, "duration": 246, "velocity": 117}, {"time": 108359, "pitch": 79, "duration": 175, "velocity": 117}, {"time": 108359, "pitch": 83, "duration": 210, "velocity": 117}, {"time": 108359, "pitch": 86, "duration": 181, "velocity": 117}, {"time": 108718, "pitch": 79, "duration": 79, "velocity": 117}, {"time": 108718, "pitch": 83, "duration": 114, "velocity": 117}, {"time": 108718, "pitch": 86, "duration": 108, "velocity": 117}, {"time": 109079, "pitch": 79, "duration": 78, "velocity": 117}, {"time": 109079, "pitch": 83, "duration": 114, "velocity": 117}, {"time": 109079, "pitch": 86, "duration": 120, "velocity": 117}, {"time": 109440, "pitch": 79, "duration": 96, "velocity": 117}, {"time": 109440, "pitch": 83, "duration": 135, "velocity": 117}, {"time": 109440, "pitch": 86, "duration": 127, "velocity": 117}, {"time": 109681, "pitch": 79, "duration": 125, "velocity": 117}, {"time": 109681, "pitch": 83, "duration": 144, "velocity": 117}, {"time": 109681, "pitch": 86, "duration": 123, "velocity": 117}, {"time": 109921, "pitch": 78, "duration": 201, "velocity": 117}, {"time": 109921, "pitch": 81, "duration": 235, "velocity": 117}, {"time": 109921, "pitch": 85, "duration": 228, "velocity": 117}, {"time": 110282, "pitch": 78, "duration": 182, "velocity": 117}, {"time": 110282, "pitch": 81, "duration": 207, "velocity": 117}, {"time": 110282, "pitch": 85, "duration": 199, "velocity": 117}, {"time": 110640, "pitch": 78, "duration": 119, "velocity": 117}, {"time": 110640, "pitch": 81, "duration": 141, "velocity": 117}, {"time": 110640, "pitch": 85, "duration": 137, "velocity": 117}, {"time": 110997, "pitch": 78, "duration": 105, "velocity": 117}, {"time": 110997, "pitch": 81, "duration": 137, "velocity": 117}, {"time": 110997, "pitch": 85, "duration": 138, "velocity": 117}, {"time": 111358, "pitch": 78, "duration": 101, "velocity": 117}, {"time": 111358, "pitch": 81, "duration": 136, "velocity": 117}, {"time": 111358, "pitch": 85, "duration": 131, "velocity": 117}, {"time": 111599, "pitch": 78, "duration": 104, "velocity": 117}, {"time": 111599, "pitch": 81, "duration": 128, "velocity": 117}, {"time": 111599, "pitch": 85, "duration": 118, "velocity": 117}, {"time": 111839, "pitch": 79, "duration": 218, "velocity": 117}, {"time": 111839, "pitch": 83, "duration": 240, "velocity": 117}, {"time": 111839, "pitch": 86, "duration": 218, "velocity": 117}, {"time": 112200, "pitch": 79, "duration": 190, "velocity": 117}, {"time": 112200, "pitch": 83, "duration": 211, "velocity": 117}, {"time": 112200, "pitch": 86, "duration": 200, "velocity": 117}, {"time": 112561, "pitch": 79, "duration": 110, "velocity": 117}, {"time": 112561, "pitch": 83, "duration": 122, "velocity": 117}, {"time": 112561, "pitch": 86, "duration": 121, "velocity": 117}, {"time": 112922, "pitch": 79, "duration": 84, "velocity": 117}, {"time": 112922, "pitch": 83, "duration": 116, "velocity": 117}, {"time": 112922, "pitch": 86, "duration": 119, "velocity": 117}, {"time": 113283, "pitch": 79, "duration": 101, "velocity": 117}, {"time": 113283, "pitch": 83, "duration": 137, "velocity": 117}, {"time": 113283, "pitch": 86, "duration": 140, "velocity": 117}, {"time": 113520, "pitch": 79, "duration": 88, "velocity": 117}, {"time": 113520, "pitch": 83, "duration": 122, "velocity": 117}, {"time": 113520, "pitch": 86, "duration": 131, "velocity": 117}, {"time": 113757, "pitch": 81, "duration": 214, "velocity": 117}, {"time": 113757, "pitch": 85, "duration": 247, "velocity": 117}, {"time": 113757, "pitch": 88, "duration": 251, "velocity": 117}, {"time": 114118, "pitch": 81, "duration": 106, "velocity": 117}, {"time": 114118, "pitch": 85, "duration": 139, "velocity": 117}, {"time": 114118, "pitch": 88, "duration": 173, "velocity": 117}, {"time": 114479, "pitch": 81, "duration": 339, "velocity": 117}, {"time": 114479, "pitch": 85, "duration": 376, "velocity": 117}, {"time": 114479, "pitch": 90, "duration": 342, "velocity": 117}, {"time": 114961, "pitch": 81, "duration": 74, "velocity": 117}, {"time": 114961, "pitch": 85, "duration": 129, "velocity": 117}, {"time": 114961, "pitch": 88, "duration": 129, "velocity": 117}, {"time": 115201, "pitch": 81, "duration": 79, "velocity": 117}, {"time": 115201, "pitch": 85, "duration": 123, "velocity": 117}, {"time": 115201, "pitch": 88, "duration": 104, "velocity": 117}, {"time": 115442, "pitch": 81, "duration": 100, "velocity": 117}, {"time": 115442, "pitch": 85, "duration": 131, "velocity": 117}, {"time": 115442, "pitch": 88, "duration": 119, "velocity": 117}, {"time": 115682, "pitch": 81, "duration": 105, "velocity": 117}, {"time": 115682, "pitch": 86, "duration": 190, "velocity": 117}, {"time": 115682, "pitch": 88, "duration": 242, "velocity": 117}, {"time": 116038, "pitch": 81, "duration": 138, "velocity": 117}, {"time": 116038, "pitch": 86, "duration": 184, "velocity": 117}, {"time": 116038, "pitch": 88, "duration": 165, "velocity": 117}, {"time": 116397, "pitch": 81, "duration": 88, "velocity": 117}, {"time": 116397, "pitch": 86, "duration": 99, "velocity": 117}, {"time": 116397, "pitch": 88, "duration": 91, "velocity": 117}, {"time": 116638, "pitch": 81, "duration": 230, "velocity": 117}, {"time": 116638, "pitch": 86, "duration": 243, "velocity": 117}, {"time": 116638, "pitch": 88, "duration": 240, "velocity": 117}, {"time": 116999, "pitch": 81, "duration": 201, "velocity": 117}, {"time": 116999, "pitch": 86, "duration": 230, "velocity": 117}, {"time": 116999, "pitch": 88, "duration": 207, "velocity": 117}, {"time": 117360, "pitch": 81, "duration": 106, "velocity": 117}, {"time": 117360, "pitch": 86, "duration": 115, "velocity": 117}, {"time": 117360, "pitch": 88, "duration": 138, "velocity": 117}, {"time": 117601, "pitch": 81, "duration": 185, "velocity": 117}, {"time": 117601, "pitch": 85, "duration": 171, "velocity": 117}, {"time": 117601, "pitch": 88, "duration": 157, "velocity": 117}, {"time": 155997, "pitch": 52, "duration": 265, "velocity": 117}, {"time": 155997, "pitch": 79, "duration": 243, "velocity": 117}, {"time": 155997, "pitch": 83, "duration": 282, "velocity": 117}, {"time": 155997, "pitch": 86, "duration": 270, "velocity": 117}, {"time": 156358, "pitch": 52, "duration": 256, "velocity": 117}, {"time": 156358, "pitch": 79, "duration": 231, "velocity": 117}, {"time": 156358, "pitch": 83, "duration": 265, "velocity": 117}, {"time": 156358, "pitch": 86, "duration": 265, "velocity": 117}, {"time": 156719, "pitch": 57, "duration": 161, "velocity": 117}, {"time": 156719, "pitch": 81, "duration": 153, "velocity": 117}, {"time": 156719, "pitch": 85, "duration": 161, "velocity": 117}, {"time": 156719, "pitch": 88, "duration": 148, "velocity": 117}, {"time": 157922, "pitch": 74, "duration": 3688, "velocity": 117}, {"time": 157922, "pitch": 79, "duration": 3671, "velocity": 117}, {"time": 157922, "pitch": 81, "duration": 3672, "velocity": 117}, {"time": 157922, "pitch": 83, "duration": 3669, "velocity": 117}], "annotations": [{"time": 211, "annotation": {"number": 7, "value": 110}, "group": "control_change"}, {"time": 230, "annotation": {"number": 11, "value": 110}, "group": "control_change"}, {"time": 249, "annotation": {"number": 10, "value": 44}, "group": "control_change"}, {"time": 268, "annotation": {"number": 91, "value": 40}, "group": "control_change"}, {"time": 287, "annotation": {"number": 93, "value": 0}, "group": "control_change"}, {"time": 306, "annotation": {"number": 94, "value": 0}, "group": "control_change"}, {"time": 326, "annotation": {"number": 101, "value": 0}, "group": "control_change"}, {"time": 345, "annotation": {"number": 100, "value": 0}, "group": "control_change"}, {"time": 364, "annotation": {"number": 6, "value": 12}, "group": "control_change"}, {"time": 383, "annotation": {"number": 101, "value": 127}, "group": "control_change"}, {"time": 402, "annotation": {"number": 100, "value": 127}, "group": "control_change"}]}, {"program": 0, "is_drum": false, "name": "MELODY ", "annotations": [{"time": 191, "annotation": {"number": 0, "value": 0}, "group": "control_change"}, {"time": 191, "annotation": {"number": 32, "value": 2}, "group": "control_change"}]}, {"program": 73, "is_drum": false, "name": "MELODY ", "notes": [{"time": 15837, "pitch": 66, "duration": 87, "velocity": 127}, {"time": 15957, "pitch": 65, "duration": 101, "velocity": 115}, {"time": 16077, "pitch": 66, "duration": 88, "velocity": 127}, {"time": 16198, "pitch": 65, "duration": 87, "velocity": 127}, {"time": 16318, "pitch": 66, "duration": 87, "velocity": 127}, {"time": 16438, "pitch": 66, "duration": 88, "velocity": 127}, {"time": 16559, "pitch": 62, "duration": 101, "velocity": 115}, {"time": 16679, "pitch": 62, "duration": 101, "velocity": 115}, {"time": 16799, "pitch": 64, "duration": 102, "velocity": 115}, {"time": 16920, "pitch": 64, "duration": 101, "velocity": 115}, {"time": 17040, "pitch": 64, "duration": 87, "velocity": 127}, {"time": 17160, "pitch": 69, "duration": 88, "velocity": 127}, {"time": 17762, "pitch": 62, "duration": 87, "velocity": 127}, {"time": 17882, "pitch": 61, "duration": 102, "velocity": 115}, {"time": 18003, "pitch": 62, "duration": 87, "velocity": 127}, {"time": 18123, "pitch": 61, "duration": 87, "velocity": 127}, {"time": 18243, "pitch": 62, "duration": 86, "velocity": 127}, {"time": 18362, "pitch": 62, "duration": 86, "velocity": 127}, {"time": 18480, "pitch": 59, "duration": 100, "velocity": 115}, {"time": 18717, "pitch": 61, "duration": 102, "velocity": 115}, {"time": 18838, "pitch": 61, "duration": 101, "velocity": 115}, {"time": 18958, "pitch": 61, "duration": 87, "velocity": 127}, {"time": 19078, "pitch": 66, "duration": 88, "velocity": 127}, {"time": 19680, "pitch": 59, "duration": 194, "velocity": 122}, {"time": 19921, "pitch": 61, "duration": 193, "velocity": 122}, {"time": 20161, "pitch": 62, "duration": 194, "velocity": 122}, {"time": 20402, "pitch": 59, "duration": 115, "velocity": 123}, {"time": 20643, "pitch": 62, "duration": 99, "velocity": 115}, {"time": 20761, "pitch": 62, "duration": 100, "velocity": 115}, {"time": 20880, "pitch": 66, "duration": 82, "velocity": 124}, {"time": 20998, "pitch": 62, "duration": 82, "velocity": 124}, {"time": 21598, "pitch": 66, "duration": 98, "velocity": 126}, {"time": 21718, "pitch": 66, "duration": 99, "velocity": 126}, {"time": 21839, "pitch": 66, "duration": 218, "velocity": 126}, {"time": 22079, "pitch": 66, "duration": 99, "velocity": 126}, {"time": 22200, "pitch": 66, "duration": 98, "velocity": 126}, {"time": 22320, "pitch": 66, "duration": 98, "velocity": 126}, {"time": 22440, "pitch": 67, "duration": 108, "velocity": 120}, {"time": 22561, "pitch": 66, "duration": 174, "velocity": 126}, {"time": 22801, "pitch": 64, "duration": 175, "velocity": 126}, {"time": 23042, "pitch": 62, "duration": 152, "velocity": 126}, {"time": 23283, "pitch": 64, "duration": 227, "velocity": 120}, {"time": 23523, "pitch": 66, "duration": 86, "velocity": 127}, {"time": 23642, "pitch": 65, "duration": 100, "velocity": 115}, {"time": 23760, "pitch": 66, "duration": 86, "velocity": 127}, {"time": 23879, "pitch": 65, "duration": 86, "velocity": 127}, {"time": 23997, "pitch": 66, "duration": 88, "velocity": 127}, {"time": 24118, "pitch": 66, "duration": 87, "velocity": 127}, {"time": 24238, "pitch": 62, "duration": 101, "velocity": 115}, {"time": 24479, "pitch": 64, "duration": 101, "velocity": 115}, {"time": 24599, "pitch": 64, "duration": 101, "velocity": 115}, {"time": 24719, "pitch": 64, "duration": 88, "velocity": 127}, {"time": 24840, "pitch": 69, "duration": 87, "velocity": 127}, {"time": 25441, "pitch": 62, "duration": 88, "velocity": 127}, {"time": 25562, "pitch": 61, "duration": 101, "velocity": 115}, {"time": 25682, "pitch": 62, "duration": 87, "velocity": 127}, {"time": 25802, "pitch": 61, "duration": 87, "velocity": 127}, {"time": 25923, "pitch": 62, "duration": 85, "velocity": 127}, {"time": 26041, "pitch": 62, "duration": 86, "velocity": 127}, {"time": 26160, "pitch": 59, "duration": 99, "velocity": 115}, {"time": 26397, "pitch": 61, "duration": 101, "velocity": 115}, {"time": 26517, "pitch": 61, "duration": 101, "velocity": 115}, {"time": 26637, "pitch": 61, "duration": 88, "velocity": 127}, {"time": 26758, "pitch": 66, "duration": 87, "velocity": 127}, {"time": 27359, "pitch": 59, "duration": 194, "velocity": 122}, {"time": 27600, "pitch": 61, "duration": 194, "velocity": 122}, {"time": 27841, "pitch": 62, "duration": 193, "velocity": 122}, {"time": 28081, "pitch": 59, "duration": 116, "velocity": 123}, {"time": 28202, "pitch": 62, "duration": 325, "velocity": 124}, {"time": 28563, "pitch": 66, "duration": 83, "velocity": 124}, {"time": 28683, "pitch": 62, "duration": 202, "velocity": 124}, {"time": 29277, "pitch": 67, "duration": 202, "velocity": 117}, {"time": 29518, "pitch": 66, "duration": 211, "velocity": 114}, {"time": 29759, "pitch": 64, "duration": 114, "velocity": 121}, {"time": 29879, "pitch": 62, "duration": 192, "velocity": 122}, {"time": 30120, "pitch": 64, "duration": 596, "velocity": 112}, {"time": 32639, "pitch": 57, "duration": 90, "velocity": 115}, {"time": 32760, "pitch": 57, "duration": 89, "velocity": 115}, {"time": 32880, "pitch": 62, "duration": 99, "velocity": 117}, {"time": 33000, "pitch": 69, "duration": 526, "velocity": 120}, {"time": 33722, "pitch": 66, "duration": 89, "velocity": 115}, {"time": 33843, "pitch": 66, "duration": 89, "velocity": 115}, {"time": 33963, "pitch": 67, "duration": 114, "velocity": 127}, {"time": 34083, "pitch": 69, "duration": 438, "velocity": 124}, {"time": 34798, "pitch": 66, "duration": 212, "velocity": 126}, {"time": 35039, "pitch": 71, "duration": 226, "velocity": 126}, {"time": 35279, "pitch": 69, "duration": 116, "velocity": 126}, {"time": 35400, "pitch": 66, "duration": 260, "velocity": 126}, {"time": 35761, "pitch": 69, "duration": 112, "velocity": 126}, {"time": 35881, "pitch": 62, "duration": 399, "velocity": 126}, {"time": 36601, "pitch": 69, "duration": 69, "velocity": 118}, {"time": 36720, "pitch": 69, "duration": 94, "velocity": 120}, {"time": 36838, "pitch": 69, "duration": 107, "velocity": 122}, {"time": 36957, "pitch": 62, "duration": 319, "velocity": 124}, {"time": 37558, "pitch": 69, "duration": 71, "velocity": 118}, {"time": 37679, "pitch": 69, "duration": 95, "velocity": 120}, {"time": 37799, "pitch": 69, "duration": 108, "velocity": 122}, {"time": 37919, "pitch": 62, "duration": 319, "velocity": 124}, {"time": 38641, "pitch": 62, "duration": 96, "velocity": 120}, {"time": 38762, "pitch": 62, "duration": 108, "velocity": 122}, {"time": 38882, "pitch": 67, "duration": 135, "velocity": 124}, {"time": 39123, "pitch": 66, "duration": 243, "velocity": 123}, {"time": 39363, "pitch": 64, "duration": 105, "velocity": 121}, {"time": 39482, "pitch": 62, "duration": 235, "velocity": 120}, {"time": 39719, "pitch": 64, "duration": 327, "velocity": 118}, {"time": 40319, "pitch": 57, "duration": 89, "velocity": 115}, {"time": 40439, "pitch": 57, "duration": 89, "velocity": 115}, {"time": 40559, "pitch": 62, "duration": 100, "velocity": 117}, {"time": 40680, "pitch": 69, "duration": 525, "velocity": 120}, {"time": 41402, "pitch": 66, "duration": 102, "velocity": 115}, {"time": 41522, "pitch": 67, "duration": 114, "velocity": 127}, {"time": 41642, "pitch": 69, "duration": 440, "velocity": 124}, {"time": 42477, "pitch": 66, "duration": 212, "velocity": 126}, {"time": 42718, "pitch": 71, "duration": 227, "velocity": 126}, {"time": 42959, "pitch": 69, "duration": 115, "velocity": 126}, {"time": 43079, "pitch": 66, "duration": 261, "velocity": 126}, {"time": 43440, "pitch": 69, "duration": 112, "velocity": 126}, {"time": 43560, "pitch": 62, "duration": 399, "velocity": 126}, {"time": 44282, "pitch": 69, "duration": 70, "velocity": 118}, {"time": 44403, "pitch": 69, "duration": 95, "velocity": 120}, {"time": 44523, "pitch": 69, "duration": 108, "velocity": 122}, {"time": 44643, "pitch": 62, "duration": 314, "velocity": 124}, {"time": 45238, "pitch": 69, "duration": 70, "velocity": 118}, {"time": 45358, "pitch": 69, "duration": 95, "velocity": 120}, {"time": 45478, "pitch": 69, "duration": 109, "velocity": 122}, {"time": 45599, "pitch": 62, "duration": 319, "velocity": 124}, {"time": 46321, "pitch": 62, "duration": 95, "velocity": 120}, {"time": 46441, "pitch": 62, "duration": 108, "velocity": 122}, {"time": 46561, "pitch": 67, "duration": 190, "velocity": 124}, {"time": 46802, "pitch": 66, "duration": 243, "velocity": 123}, {"time": 47043, "pitch": 64, "duration": 104, "velocity": 121}, {"time": 47161, "pitch": 62, "duration": 235, "velocity": 120}, {"time": 47398, "pitch": 66, "duration": 110, "velocity": 125}, {"time": 47517, "pitch": 64, "duration": 312, "velocity": 124}, {"time": 47998, "pitch": 62, "duration": 243, "velocity": 116}, {"time": 48239, "pitch": 61, "duration": 133, "velocity": 97}, {"time": 48359, "pitch": 62, "duration": 1565, "velocity": 126}, {"time": 67681, "pitch": 66, "duration": 87, "velocity": 127}, {"time": 67802, "pitch": 65, "duration": 101, "velocity": 115}, {"time": 67922, "pitch": 66, "duration": 87, "velocity": 127}, {"time": 68042, "pitch": 65, "duration": 87, "velocity": 127}, {"time": 68163, "pitch": 66, "duration": 204, "velocity": 127}, {"time": 68400, "pitch": 62, "duration": 218, "velocity": 115}, {"time": 68637, "pitch": 64, "duration": 101, "velocity": 115}, {"time": 68757, "pitch": 64, "duration": 101, "velocity": 115}, {"time": 68877, "pitch": 64, "duration": 88, "velocity": 127}, {"time": 68998, "pitch": 69, "duration": 87, "velocity": 127}, {"time": 69599, "pitch": 62, "duration": 88, "velocity": 127}, {"time": 69720, "pitch": 61, "duration": 101, "velocity": 115}, {"time": 69840, "pitch": 62, "duration": 87, "velocity": 127}, {"time": 69960, "pitch": 61, "duration": 88, "velocity": 127}, {"time": 70081, "pitch": 62, "duration": 207, "velocity": 127}, {"time": 70321, "pitch": 59, "duration": 102, "velocity": 115}, {"time": 70442, "pitch": 59, "duration": 101, "velocity": 115}, {"time": 70562, "pitch": 61, "duration": 101, "velocity": 115}, {"time": 70682, "pitch": 61, "duration": 222, "velocity": 115}, {"time": 70923, "pitch": 66, "duration": 87, "velocity": 127}, {"time": 71517, "pitch": 59, "duration": 194, "velocity": 122}, {"time": 71758, "pitch": 61, "duration": 194, "velocity": 122}, {"time": 71999, "pitch": 62, "duration": 193, "velocity": 122}, {"time": 72239, "pitch": 59, "duration": 116, "velocity": 123}, {"time": 72480, "pitch": 62, "duration": 101, "velocity": 115}, {"time": 72600, "pitch": 62, "duration": 102, "velocity": 115}, {"time": 72721, "pitch": 66, "duration": 116, "velocity": 124}, {"time": 72841, "pitch": 66, "duration": 116, "velocity": 124}, {"time": 72961, "pitch": 62, "duration": 222, "velocity": 115}, {"time": 73443, "pitch": 66, "duration": 96, "velocity": 126}, {"time": 73561, "pitch": 66, "duration": 97, "velocity": 126}, {"time": 73680, "pitch": 66, "duration": 215, "velocity": 126}, {"time": 73917, "pitch": 66, "duration": 98, "velocity": 126}, {"time": 74037, "pitch": 66, "duration": 98, "velocity": 126}, {"time": 74157, "pitch": 66, "duration": 99, "velocity": 126}, {"time": 74278, "pitch": 67, "duration": 107, "velocity": 120}, {"time": 74398, "pitch": 66, "duration": 175, "velocity": 126}, {"time": 74639, "pitch": 64, "duration": 174, "velocity": 126}, {"time": 74879, "pitch": 62, "duration": 153, "velocity": 126}, {"time": 75120, "pitch": 64, "duration": 228, "velocity": 120}, {"time": 75361, "pitch": 66, "duration": 87, "velocity": 127}, {"time": 75481, "pitch": 65, "duration": 101, "velocity": 115}, {"time": 75601, "pitch": 66, "duration": 208, "velocity": 127}, {"time": 75842, "pitch": 66, "duration": 87, "velocity": 127}, {"time": 75962, "pitch": 66, "duration": 87, "velocity": 127}, {"time": 76083, "pitch": 62, "duration": 101, "velocity": 115}, {"time": 76323, "pitch": 64, "duration": 100, "velocity": 115}, {"time": 76442, "pitch": 64, "duration": 100, "velocity": 115}, {"time": 76560, "pitch": 64, "duration": 100, "velocity": 115}, {"time": 76679, "pitch": 69, "duration": 86, "velocity": 127}, {"time": 77279, "pitch": 62, "duration": 87, "velocity": 127}, {"time": 77399, "pitch": 61, "duration": 101, "velocity": 115}, {"time": 77519, "pitch": 62, "duration": 88, "velocity": 127}, {"time": 77640, "pitch": 61, "duration": 87, "velocity": 127}, {"time": 77760, "pitch": 62, "duration": 87, "velocity": 127}, {"time": 77880, "pitch": 62, "duration": 88, "velocity": 127}, {"time": 78001, "pitch": 59, "duration": 101, "velocity": 115}, {"time": 78241, "pitch": 61, "duration": 102, "velocity": 115}, {"time": 78362, "pitch": 61, "duration": 101, "velocity": 115}, {"time": 78482, "pitch": 61, "duration": 87, "velocity": 127}, {"time": 78602, "pitch": 66, "duration": 87, "velocity": 127}, {"time": 79197, "pitch": 59, "duration": 193, "velocity": 122}, {"time": 79437, "pitch": 61, "duration": 194, "velocity": 122}, {"time": 79678, "pitch": 62, "duration": 194, "velocity": 122}, {"time": 79919, "pitch": 59, "duration": 115, "velocity": 123}, {"time": 80039, "pitch": 62, "duration": 326, "velocity": 124}, {"time": 80400, "pitch": 66, "duration": 83, "velocity": 124}, {"time": 80520, "pitch": 62, "duration": 204, "velocity": 124}, {"time": 81122, "pitch": 67, "duration": 201, "velocity": 117}, {"time": 81363, "pitch": 66, "duration": 210, "velocity": 114}, {"time": 81603, "pitch": 64, "duration": 113, "velocity": 121}, {"time": 81722, "pitch": 62, "duration": 188, "velocity": 122}, {"time": 81959, "pitch": 64, "duration": 595, "velocity": 112}, {"time": 84477, "pitch": 57, "duration": 89, "velocity": 115}, {"time": 84597, "pitch": 57, "duration": 89, "velocity": 115}, {"time": 84717, "pitch": 62, "duration": 100, "velocity": 117}, {"time": 84838, "pitch": 69, "duration": 525, "velocity": 120}, {"time": 85560, "pitch": 66, "duration": 89, "velocity": 115}, {"time": 85680, "pitch": 66, "duration": 89, "velocity": 115}, {"time": 85800, "pitch": 67, "duration": 115, "velocity": 127}, {"time": 85921, "pitch": 69, "duration": 444, "velocity": 124}, {"time": 86643, "pitch": 66, "duration": 101, "velocity": 126}, {"time": 86763, "pitch": 66, "duration": 101, "velocity": 126}, {"time": 86883, "pitch": 71, "duration": 223, "velocity": 126}, {"time": 87120, "pitch": 69, "duration": 114, "velocity": 126}, {"time": 87239, "pitch": 66, "duration": 259, "velocity": 126}, {"time": 87598, "pitch": 69, "duration": 112, "velocity": 126}, {"time": 87718, "pitch": 62, "duration": 399, "velocity": 126}, {"time": 88440, "pitch": 69, "duration": 70, "velocity": 118}, {"time": 88561, "pitch": 69, "duration": 95, "velocity": 120}, {"time": 88681, "pitch": 69, "duration": 108, "velocity": 122}, {"time": 88801, "pitch": 62, "duration": 319, "velocity": 124}, {"time": 89401, "pitch": 69, "duration": 69, "velocity": 118}, {"time": 89520, "pitch": 69, "duration": 94, "velocity": 120}, {"time": 89638, "pitch": 69, "duration": 107, "velocity": 122}, {"time": 89757, "pitch": 62, "duration": 319, "velocity": 124}, {"time": 90479, "pitch": 62, "duration": 95, "velocity": 120}, {"time": 90599, "pitch": 62, "duration": 108, "velocity": 122}, {"time": 90719, "pitch": 67, "duration": 136, "velocity": 124}, {"time": 90960, "pitch": 66, "duration": 244, "velocity": 123}, {"time": 91201, "pitch": 64, "duration": 106, "velocity": 121}, {"time": 91321, "pitch": 62, "duration": 239, "velocity": 120}, {"time": 91562, "pitch": 66, "duration": 88, "velocity": 118}, {"time": 91682, "pitch": 64, "duration": 227, "velocity": 121}, {"time": 92163, "pitch": 57, "duration": 88, "velocity": 115}, {"time": 92282, "pitch": 57, "duration": 88, "velocity": 115}, {"time": 92400, "pitch": 62, "duration": 98, "velocity": 117}, {"time": 92519, "pitch": 69, "duration": 523, "velocity": 120}, {"time": 93239, "pitch": 66, "duration": 102, "velocity": 115}, {"time": 93359, "pitch": 67, "duration": 115, "velocity": 127}, {"time": 93480, "pitch": 69, "duration": 444, "velocity": 124}, {"time": 94322, "pitch": 66, "duration": 211, "velocity": 126}, {"time": 94563, "pitch": 71, "duration": 223, "velocity": 126}, {"time": 94800, "pitch": 69, "duration": 179, "velocity": 126}, {"time": 95037, "pitch": 66, "duration": 96, "velocity": 126}, {"time": 95157, "pitch": 66, "duration": 96, "velocity": 126}, {"time": 95277, "pitch": 69, "duration": 113, "velocity": 126}, {"time": 95398, "pitch": 62, "duration": 399, "velocity": 126}, {"time": 96120, "pitch": 69, "duration": 70, "velocity": 118}, {"time": 96240, "pitch": 69, "duration": 95, "velocity": 120}, {"time": 96360, "pitch": 69, "duration": 109, "velocity": 122}, {"time": 96481, "pitch": 62, "duration": 318, "velocity": 124}, {"time": 97082, "pitch": 69, "duration": 70, "velocity": 118}, {"time": 97203, "pitch": 69, "duration": 95, "velocity": 120}, {"time": 97323, "pitch": 69, "duration": 108, "velocity": 122}, {"time": 97443, "pitch": 62, "duration": 314, "velocity": 124}, {"time": 98158, "pitch": 62, "duration": 95, "velocity": 120}, {"time": 98278, "pitch": 62, "duration": 109, "velocity": 122}, {"time": 98399, "pitch": 67, "duration": 189, "velocity": 124}, {"time": 98639, "pitch": 66, "duration": 244, "velocity": 123}, {"time": 98880, "pitch": 64, "duration": 106, "velocity": 121}, {"time": 99000, "pitch": 62, "duration": 239, "velocity": 120}, {"time": 99241, "pitch": 66, "duration": 111, "velocity": 125}, {"time": 99361, "pitch": 64, "duration": 312, "velocity": 124}, {"time": 99843, "pitch": 62, "duration": 239, "velocity": 116}, {"time": 100080, "pitch": 61, "duration": 131, "velocity": 97}, {"time": 100198, "pitch": 62, "duration": 1564, "velocity": 126}, {"time": 119037, "pitch": 57, "duration": 90, "velocity": 115}, {"time": 119158, "pitch": 57, "duration": 89, "velocity": 115}, {"time": 119278, "pitch": 62, "duration": 99, "velocity": 117}, {"time": 119398, "pitch": 69, "duration": 526, "velocity": 120}, {"time": 120120, "pitch": 66, "duration": 90, "velocity": 115}, {"time": 120241, "pitch": 66, "duration": 89, "velocity": 115}, {"time": 120361, "pitch": 67, "duration": 114, "velocity": 127}, {"time": 120481, "pitch": 69, "duration": 444, "velocity": 124}, {"time": 121200, "pitch": 66, "duration": 208, "velocity": 126}, {"time": 121437, "pitch": 71, "duration": 226, "velocity": 126}, {"time": 121677, "pitch": 69, "duration": 116, "velocity": 126}, {"time": 121798, "pitch": 66, "duration": 260, "velocity": 126}, {"time": 122159, "pitch": 69, "duration": 112, "velocity": 126}, {"time": 122279, "pitch": 62, "duration": 399, "velocity": 126}, {"time": 123001, "pitch": 69, "duration": 70, "velocity": 118}, {"time": 123121, "pitch": 69, "duration": 96, "velocity": 120}, {"time": 123242, "pitch": 69, "duration": 108, "velocity": 122}, {"time": 123362, "pitch": 62, "duration": 319, "velocity": 124}, {"time": 123962, "pitch": 69, "duration": 69, "velocity": 118}, {"time": 124080, "pitch": 69, "duration": 94, "velocity": 120}, {"time": 124199, "pitch": 69, "duration": 107, "velocity": 122}, {"time": 124317, "pitch": 62, "duration": 319, "velocity": 124}, {"time": 125039, "pitch": 62, "duration": 96, "velocity": 120}, {"time": 125160, "pitch": 62, "duration": 108, "velocity": 122}, {"time": 125280, "pitch": 67, "duration": 135, "velocity": 124}, {"time": 125521, "pitch": 66, "duration": 243, "velocity": 123}, {"time": 125761, "pitch": 64, "duration": 107, "velocity": 121}, {"time": 125882, "pitch": 62, "duration": 238, "velocity": 120}, {"time": 126122, "pitch": 64, "duration": 326, "velocity": 118}, {"time": 126717, "pitch": 57, "duration": 89, "velocity": 115}, {"time": 126837, "pitch": 57, "duration": 89, "velocity": 115}, {"time": 126957, "pitch": 62, "duration": 100, "velocity": 117}, {"time": 127078, "pitch": 69, "duration": 525, "velocity": 120}, {"time": 127800, "pitch": 66, "duration": 102, "velocity": 115}, {"time": 127920, "pitch": 67, "duration": 114, "velocity": 127}, {"time": 128040, "pitch": 69, "duration": 444, "velocity": 124}, {"time": 128883, "pitch": 66, "duration": 211, "velocity": 126}, {"time": 129123, "pitch": 71, "duration": 223, "velocity": 126}, {"time": 129360, "pitch": 69, "duration": 114, "velocity": 126}, {"time": 129479, "pitch": 66, "duration": 259, "velocity": 126}, {"time": 129838, "pitch": 69, "duration": 112, "velocity": 126}, {"time": 129958, "pitch": 62, "duration": 399, "velocity": 126}, {"time": 130680, "pitch": 69, "duration": 70, "velocity": 118}, {"time": 130801, "pitch": 69, "duration": 95, "velocity": 120}, {"time": 130921, "pitch": 69, "duration": 108, "velocity": 122}, {"time": 131041, "pitch": 62, "duration": 319, "velocity": 124}, {"time": 131641, "pitch": 69, "duration": 69, "velocity": 118}, {"time": 131760, "pitch": 69, "duration": 94, "velocity": 120}, {"time": 131878, "pitch": 69, "duration": 107, "velocity": 122}, {"time": 131997, "pitch": 62, "duration": 319, "velocity": 124}, {"time": 132719, "pitch": 62, "duration": 95, "velocity": 120}, {"time": 132839, "pitch": 62, "duration": 108, "velocity": 122}, {"time": 132959, "pitch": 67, "duration": 136, "velocity": 124}, {"time": 133080, "pitch": 66, "duration": 243, "velocity": 123}, {"time": 133320, "pitch": 64, "duration": 227, "velocity": 121}, {"time": 133681, "pitch": 62, "duration": 239, "velocity": 120}, {"time": 133922, "pitch": 66, "duration": 134, "velocity": 119}, {"time": 134042, "pitch": 64, "duration": 209, "velocity": 118}, {"time": 134403, "pitch": 57, "duration": 88, "velocity": 115}, {"time": 134522, "pitch": 57, "duration": 88, "velocity": 115}, {"time": 134640, "pitch": 62, "duration": 98, "velocity": 117}, {"time": 134759, "pitch": 69, "duration": 523, "velocity": 120}, {"time": 135479, "pitch": 66, "duration": 89, "velocity": 115}, {"time": 135599, "pitch": 66, "duration": 90, "velocity": 115}, {"time": 135720, "pitch": 67, "duration": 114, "velocity": 127}, {"time": 135840, "pitch": 69, "duration": 444, "velocity": 124}, {"time": 136562, "pitch": 66, "duration": 101, "velocity": 126}, {"time": 136682, "pitch": 66, "duration": 101, "velocity": 126}, {"time": 136802, "pitch": 71, "duration": 224, "velocity": 126}, {"time": 137040, "pitch": 69, "duration": 113, "velocity": 126}, {"time": 137158, "pitch": 66, "duration": 259, "velocity": 126}, {"time": 137517, "pitch": 69, "duration": 113, "velocity": 126}, {"time": 137638, "pitch": 62, "duration": 399, "velocity": 126}, {"time": 138360, "pitch": 69, "duration": 70, "velocity": 118}, {"time": 138480, "pitch": 69, "duration": 95, "velocity": 120}, {"time": 138600, "pitch": 69, "duration": 109, "velocity": 122}, {"time": 138721, "pitch": 62, "duration": 318, "velocity": 124}, {"time": 139322, "pitch": 69, "duration": 70, "velocity": 118}, {"time": 139443, "pitch": 69, "duration": 95, "velocity": 120}, {"time": 139563, "pitch": 69, "duration": 108, "velocity": 122}, {"time": 139683, "pitch": 62, "duration": 314, "velocity": 124}, {"time": 140398, "pitch": 62, "duration": 95, "velocity": 120}, {"time": 140518, "pitch": 62, "duration": 109, "velocity": 122}, {"time": 140639, "pitch": 67, "duration": 135, "velocity": 124}, {"time": 140879, "pitch": 66, "duration": 244, "velocity": 123}, {"time": 141120, "pitch": 64, "duration": 106, "velocity": 121}, {"time": 141240, "pitch": 62, "duration": 239, "velocity": 120}, {"time": 141481, "pitch": 66, "duration": 88, "velocity": 118}, {"time": 141601, "pitch": 64, "duration": 227, "velocity": 121}, {"time": 142082, "pitch": 57, "duration": 88, "velocity": 115}, {"time": 142201, "pitch": 57, "duration": 88, "velocity": 115}, {"time": 142320, "pitch": 62, "duration": 97, "velocity": 117}, {"time": 142438, "pitch": 69, "duration": 524, "velocity": 120}, {"time": 143158, "pitch": 66, "duration": 103, "velocity": 115}, {"time": 143279, "pitch": 67, "duration": 114, "velocity": 127}, {"time": 143399, "pitch": 69, "duration": 444, "velocity": 124}, {"time": 144241, "pitch": 66, "duration": 212, "velocity": 126}, {"time": 144482, "pitch": 71, "duration": 226, "velocity": 126}, {"time": 144723, "pitch": 69, "duration": 181, "velocity": 126}, {"time": 144963, "pitch": 66, "duration": 95, "velocity": 126}, {"time": 145082, "pitch": 66, "duration": 95, "velocity": 126}, {"time": 145200, "pitch": 69, "duration": 111, "velocity": 126}, {"time": 145319, "pitch": 62, "duration": 397, "velocity": 126}, {"time": 146039, "pitch": 69, "duration": 70, "velocity": 118}, {"time": 146159, "pitch": 69, "duration": 96, "velocity": 120}, {"time": 146280, "pitch": 69, "duration": 108, "velocity": 122}, {"time": 146400, "pitch": 62, "duration": 319, "velocity": 124}, {"time": 147002, "pitch": 69, "duration": 70, "velocity": 118}, {"time": 147122, "pitch": 69, "duration": 95, "velocity": 120}, {"time": 147242, "pitch": 69, "duration": 108, "velocity": 122}, {"time": 147362, "pitch": 62, "duration": 315, "velocity": 124}, {"time": 148077, "pitch": 62, "duration": 96, "velocity": 120}, {"time": 148198, "pitch": 62, "duration": 108, "velocity": 122}, {"time": 148318, "pitch": 67, "duration": 190, "velocity": 124}, {"time": 148559, "pitch": 66, "duration": 243, "velocity": 123}, {"time": 148799, "pitch": 64, "duration": 107, "velocity": 121}, {"time": 148920, "pitch": 62, "duration": 238, "velocity": 120}, {"time": 149160, "pitch": 66, "duration": 112, "velocity": 125}, {"time": 149281, "pitch": 64, "duration": 311, "velocity": 124}, {"time": 149762, "pitch": 62, "duration": 243, "velocity": 116}, {"time": 150003, "pitch": 61, "duration": 133, "velocity": 97}, {"time": 150123, "pitch": 62, "duration": 1558, "velocity": 126}], "annotations": [{"time": 211, "annotation": {"number": 7, "value": 100}, "group": "control_change"}, {"time": 230, "annotation": {"number": 11, "value": 120}, "group": "control_change"}, {"time": 249, "annotation": {"number": 10, "value": 64}, "group": "control_change"}, {"time": 268, "annotation": {"number": 91, "value": 50}, "group": "control_change"}, {"time": 287, "annotation": {"number": 93, "value": 0}, "group": "control_change"}, {"time": 306, "annotation": {"number": 94, "value": 0}, "group": "control_change"}, {"time": 326, "annotation": {"number": 101, "value": 0}, "group": "control_change"}, {"time": 345, "annotation": {"number": 100, "value": 0}, "group": "control_change"}, {"time": 364, "annotation": {"number": 6, "value": 12}, "group": "control_change"}, {"time": 383, "annotation": {"number": 101, "value": 127}, "group": "control_change"}, {"time": 402, "annotation": {"number": 100, "value": 127}, "group": "control_change"}]}, {"program": 0, "is_drum": false, "name": "STR PAD", "annotations": [{"time": 191, "annotation": {"number": 0, "value": 0}, "group": "control_change"}, {"time": 191, "annotation": {"number": 32, "value": 2}, "group": "control_change"}]}, {"program": 51, "is_drum": false, "name": "STR PAD", "notes": [{"time": 33121, "pitch": 57, "duration": 952, "velocity": 120}, {"time": 33121, "pitch": 62, "duration": 952, "velocity": 120}, {"time": 33121, "pitch": 66, "duration": 952, "velocity": 120}, {"time": 34083, "pitch": 57, "duration": 946, "velocity": 120}, {"time": 34083, "pitch": 61, "duration": 946, "velocity": 120}, {"time": 34083, "pitch": 64, "duration": 946, "velocity": 120}, {"time": 35039, "pitch": 59, "duration": 952, "velocity": 120}, {"time": 35039, "pitch": 62, "duration": 952, "velocity": 120}, {"time": 35039, "pitch": 66, "duration": 952, "velocity": 120}, {"time": 36001, "pitch": 59, "duration": 946, "velocity": 120}, {"time": 36001, "pitch": 62, "duration": 946, "velocity": 120}, {"time": 36001, "pitch": 67, "duration": 946, "velocity": 120}, {"time": 36957, "pitch": 57, "duration": 952, "velocity": 120}, {"time": 36957, "pitch": 62, "duration": 952, "velocity": 120}, {"time": 36957, "pitch": 66, "duration": 952, "velocity": 120}, {"time": 37919, "pitch": 59, "duration": 953, "velocity": 120}, {"time": 37919, "pitch": 62, "duration": 953, "velocity": 120}, {"time": 37919, "pitch": 66, "duration": 953, "velocity": 120}, {"time": 38882, "pitch": 59, "duration": 946, "velocity": 120}, {"time": 38882, "pitch": 64, "duration": 946, "velocity": 120}, {"time": 38882, "pitch": 67, "duration": 946, "velocity": 120}, {"time": 39837, "pitch": 61, "duration": 953, "velocity": 120}, {"time": 39837, "pitch": 64, "duration": 953, "velocity": 120}, {"time": 39837, "pitch": 69, "duration": 953, "velocity": 120}, {"time": 40800, "pitch": 57, "duration": 953, "velocity": 120}, {"time": 40800, "pitch": 62, "duration": 953, "velocity": 120}, {"time": 40800, "pitch": 66, "duration": 953, "velocity": 120}, {"time": 41763, "pitch": 57, "duration": 945, "velocity": 120}, {"time": 41763, "pitch": 61, "duration": 945, "velocity": 120}, {"time": 41763, "pitch": 64, "duration": 945, "velocity": 120}, {"time": 42718, "pitch": 59, "duration": 953, "velocity": 120}, {"time": 42718, "pitch": 62, "duration": 953, "velocity": 120}, {"time": 42718, "pitch": 66, "duration": 953, "velocity": 120}, {"time": 43681, "pitch": 59, "duration": 952, "velocity": 120}, {"time": 43681, "pitch": 62, "duration": 952, "velocity": 120}, {"time": 43681, "pitch": 67, "duration": 952, "velocity": 120}, {"time": 44643, "pitch": 57, "duration": 946, "velocity": 120}, {"time": 44643, "pitch": 62, "duration": 946, "velocity": 120}, {"time": 44643, "pitch": 66, "duration": 946, "velocity": 120}, {"time": 45599, "pitch": 59, "duration": 952, "velocity": 120}, {"time": 45599, "pitch": 62, "duration": 952, "velocity": 120}, {"time": 45599, "pitch": 66, "duration": 952, "velocity": 120}, {"time": 46561, "pitch": 59, "duration": 946, "velocity": 120}, {"time": 46561, "pitch": 64, "duration": 946, "velocity": 120}, {"time": 46561, "pitch": 67, "duration": 946, "velocity": 120}, {"time": 47517, "pitch": 61, "duration": 952, "velocity": 120}, {"time": 47517, "pitch": 64, "duration": 952, "velocity": 120}, {"time": 47517, "pitch": 69, "duration": 952, "velocity": 120}, {"time": 84958, "pitch": 57, "duration": 953, "velocity": 120}, {"time": 84958, "pitch": 62, "duration": 953, "velocity": 120}, {"time": 84958, "pitch": 66, "duration": 953, "velocity": 120}, {"time": 85921, "pitch": 57, "duration": 952, "velocity": 120}, {"time": 85921, "pitch": 61, "duration": 952, "velocity": 120}, {"time": 85921, "pitch": 64, "duration": 952, "velocity": 120}, {"time": 86883, "pitch": 59, "duration": 946, "velocity": 120}, {"time": 86883, "pitch": 62, "duration": 946, "velocity": 120}, {"time": 86883, "pitch": 66, "duration": 946, "velocity": 120}, {"time": 87839, "pitch": 59, "duration": 952, "velocity": 120}, {"time": 87839, "pitch": 62, "duration": 952, "velocity": 120}, {"time": 87839, "pitch": 67, "duration": 952, "velocity": 120}, {"time": 88801, "pitch": 57, "duration": 946, "velocity": 120}, {"time": 88801, "pitch": 62, "duration": 946, "velocity": 120}, {"time": 88801, "pitch": 66, "duration": 946, "velocity": 120}, {"time": 89757, "pitch": 59, "duration": 952, "velocity": 120}, {"time": 89757, "pitch": 62, "duration": 952, "velocity": 120}, {"time": 89757, "pitch": 66, "duration": 952, "velocity": 120}, {"time": 90719, "pitch": 59, "duration": 953, "velocity": 120}, {"time": 90719, "pitch": 64, "duration": 953, "velocity": 120}, {"time": 90719, "pitch": 67, "duration": 953, "velocity": 120}, {"time": 91682, "pitch": 61, "duration": 946, "velocity": 120}, {"time": 91682, "pitch": 64, "duration": 946, "velocity": 120}, {"time": 91682, "pitch": 69, "duration": 946, "velocity": 120}, {"time": 92637, "pitch": 57, "duration": 953, "velocity": 120}, {"time": 92637, "pitch": 62, "duration": 953, "velocity": 120}, {"time": 92637, "pitch": 66, "duration": 953, "velocity": 120}, {"time": 93600, "pitch": 57, "duration": 953, "velocity": 120}, {"time": 93600, "pitch": 61, "duration": 953, "velocity": 120}, {"time": 93600, "pitch": 64, "duration": 953, "velocity": 120}, {"time": 94563, "pitch": 59, "duration": 945, "velocity": 120}, {"time": 94563, "pitch": 62, "duration": 945, "velocity": 120}, {"time": 94563, "pitch": 66, "duration": 945, "velocity": 120}, {"time": 95518, "pitch": 59, "duration": 953, "velocity": 120}, {"time": 95518, "pitch": 62, "duration": 953, "velocity": 120}, {"time": 95518, "pitch": 67, "duration": 953, "velocity": 120}, {"time": 96481, "pitch": 57, "duration": 952, "velocity": 120}, {"time": 96481, "pitch": 62, "duration": 952, "velocity": 120}, {"time": 96481, "pitch": 66, "duration": 952, "velocity": 120}, {"time": 97443, "pitch": 59, "duration": 946, "velocity": 120}, {"time": 97443, "pitch": 62, "duration": 946, "velocity": 120}, {"time": 97443, "pitch": 66, "duration": 946, "velocity": 120}, {"time": 98399, "pitch": 59, "duration": 952, "velocity": 120}, {"time": 98399, "pitch": 64, "duration": 952, "velocity": 120}, {"time": 98399, "pitch": 67, "duration": 952, "velocity": 120}, {"time": 99361, "pitch": 61, "duration": 946, "velocity": 120}, {"time": 99361, "pitch": 64, "duration": 946, "velocity": 120}, {"time": 99361, "pitch": 69, "duration": 946, "velocity": 120}, {"time": 100317, "pitch": 59, "duration": 3833, "velocity": 120}, {"time": 100317, "pitch": 62, "duration": 3833, "velocity": 120}, {"time": 100317, "pitch": 66, "duration": 1915, "velocity": 120}, {"time": 102242, "pitch": 71, "duration": 946, "velocity": 120}, {"time": 103197, "pitch": 66, "duration": 953, "velocity": 120}, {"time": 104160, "pitch": 57, "duration": 3833, "velocity": 120}, {"time": 104160, "pitch": 61, "duration": 3833, "velocity": 120}, {"time": 104160, "pitch": 64, "duration": 1908, "velocity": 120}, {"time": 106078, "pitch": 69, "duration": 953, "velocity": 120}, {"time": 107041, "pitch": 64, "duration": 952, "velocity": 120}, {"time": 108003, "pitch": 55, "duration": 1908, "velocity": 120}, {"time": 108003, "pitch": 59, "duration": 1908, "velocity": 120}, {"time": 108003, "pitch": 62, "duration": 1908, "velocity": 120}, {"time": 109921, "pitch": 54, "duration": 1908, "velocity": 120}, {"time": 109921, "pitch": 57, "duration": 1908, "velocity": 120}, {"time": 109921, "pitch": 61, "duration": 1908, "velocity": 120}, {"time": 109921, "pitch": 64, "duration": 1908, "velocity": 120}, {"time": 111839, "pitch": 40, "duration": 1909, "velocity": 120}, {"time": 111839, "pitch": 55, "duration": 1909, "velocity": 120}, {"time": 111839, "pitch": 59, "duration": 1909, "velocity": 120}, {"time": 111839, "pitch": 62, "duration": 1909, "velocity": 120}, {"time": 113757, "pitch": 45, "duration": 622, "velocity": 120}, {"time": 113757, "pitch": 57, "duration": 622, "velocity": 120}, {"time": 113757, "pitch": 59, "duration": 622, "velocity": 120}, {"time": 113757, "pitch": 64, "duration": 622, "velocity": 120}, {"time": 114479, "pitch": 45, "duration": 1194, "velocity": 120}, {"time": 114479, "pitch": 57, "duration": 1194, "velocity": 120}, {"time": 114479, "pitch": 61, "duration": 1194, "velocity": 120}, {"time": 114479, "pitch": 64, "duration": 1194, "velocity": 120}, {"time": 115682, "pitch": 45, "duration": 1909, "velocity": 120}, {"time": 115682, "pitch": 57, "duration": 1909, "velocity": 120}, {"time": 115682, "pitch": 62, "duration": 1909, "velocity": 120}, {"time": 115682, "pitch": 64, "duration": 1909, "velocity": 120}, {"time": 117601, "pitch": 45, "duration": 200, "velocity": 120}, {"time": 117601, "pitch": 57, "duration": 200, "velocity": 120}, {"time": 117601, "pitch": 61, "duration": 200, "velocity": 120}, {"time": 117601, "pitch": 64, "duration": 200, "velocity": 120}, {"time": 119519, "pitch": 57, "duration": 952, "velocity": 120}, {"time": 119519, "pitch": 62, "duration": 952, "velocity": 120}, {"time": 119519, "pitch": 66, "duration": 952, "velocity": 120}, {"time": 120481, "pitch": 57, "duration": 946, "velocity": 120}, {"time": 120481, "pitch": 61, "duration": 946, "velocity": 120}, {"time": 120481, "pitch": 64, "duration": 946, "velocity": 120}, {"time": 121437, "pitch": 59, "duration": 952, "velocity": 120}, {"time": 121437, "pitch": 62, "duration": 952, "velocity": 120}, {"time": 121437, "pitch": 66, "duration": 952, "velocity": 120}, {"time": 122399, "pitch": 59, "duration": 953, "velocity": 120}, {"time": 122399, "pitch": 62, "duration": 953, "velocity": 120}, {"time": 122399, "pitch": 67, "duration": 953, "velocity": 120}, {"time": 123362, "pitch": 57, "duration": 946, "velocity": 120}, {"time": 123362, "pitch": 62, "duration": 946, "velocity": 120}, {"time": 123362, "pitch": 66, "duration": 946, "velocity": 120}, {"time": 124317, "pitch": 59, "duration": 953, "velocity": 120}, {"time": 124317, "pitch": 62, "duration": 953, "velocity": 120}, {"time": 124317, "pitch": 66, "duration": 953, "velocity": 120}, {"time": 125280, "pitch": 59, "duration": 953, "velocity": 120}, {"time": 125280, "pitch": 64, "duration": 953, "velocity": 120}, {"time": 125280, "pitch": 67, "duration": 953, "velocity": 120}, {"time": 126242, "pitch": 61, "duration": 946, "velocity": 120}, {"time": 126242, "pitch": 64, "duration": 946, "velocity": 120}, {"time": 126242, "pitch": 69, "duration": 946, "velocity": 120}, {"time": 127198, "pitch": 57, "duration": 953, "velocity": 120}, {"time": 127198, "pitch": 62, "duration": 953, "velocity": 120}, {"time": 127198, "pitch": 66, "duration": 953, "velocity": 120}, {"time": 128161, "pitch": 57, "duration": 952, "velocity": 120}, {"time": 128161, "pitch": 61, "duration": 952, "velocity": 120}, {"time": 128161, "pitch": 64, "duration": 952, "velocity": 120}, {"time": 129123, "pitch": 59, "duration": 946, "velocity": 120}, {"time": 129123, "pitch": 62, "duration": 946, "velocity": 120}, {"time": 129123, "pitch": 66, "duration": 946, "velocity": 120}, {"time": 130079, "pitch": 59, "duration": 952, "velocity": 120}, {"time": 130079, "pitch": 62, "duration": 952, "velocity": 120}, {"time": 130079, "pitch": 67, "duration": 952, "velocity": 120}, {"time": 131041, "pitch": 57, "duration": 946, "velocity": 120}, {"time": 131041, "pitch": 62, "duration": 946, "velocity": 120}, {"time": 131041, "pitch": 66, "duration": 946, "velocity": 120}, {"time": 131997, "pitch": 59, "duration": 952, "velocity": 120}, {"time": 131997, "pitch": 62, "duration": 952, "velocity": 120}, {"time": 131997, "pitch": 66, "duration": 952, "velocity": 120}, {"time": 132959, "pitch": 59, "duration": 953, "velocity": 120}, {"time": 132959, "pitch": 64, "duration": 953, "velocity": 120}, {"time": 132959, "pitch": 67, "duration": 953, "velocity": 120}, {"time": 133922, "pitch": 61, "duration": 946, "velocity": 120}, {"time": 133922, "pitch": 64, "duration": 946, "velocity": 120}, {"time": 133922, "pitch": 69, "duration": 946, "velocity": 120}, {"time": 134877, "pitch": 57, "duration": 953, "velocity": 120}, {"time": 134877, "pitch": 62, "duration": 953, "velocity": 120}, {"time": 134877, "pitch": 66, "duration": 953, "velocity": 120}, {"time": 135840, "pitch": 57, "duration": 953, "velocity": 120}, {"time": 135840, "pitch": 61, "duration": 953, "velocity": 120}, {"time": 135840, "pitch": 64, "duration": 953, "velocity": 120}, {"time": 136802, "pitch": 59, "duration": 946, "velocity": 120}, {"time": 136802, "pitch": 62, "duration": 946, "velocity": 120}, {"time": 136802, "pitch": 66, "duration": 946, "velocity": 120}, {"time": 137758, "pitch": 59, "duration": 953, "velocity": 120}, {"time": 137758, "pitch": 62, "duration": 953, "velocity": 120}, {"time": 137758, "pitch": 67, "duration": 953, "velocity": 120}, {"time": 138721, "pitch": 57, "duration": 952, "velocity": 120}, {"time": 138721, "pitch": 62, "duration": 952, "velocity": 120}, {"time": 138721, "pitch": 66, "duration": 952, "velocity": 120}, {"time": 139683, "pitch": 59, "duration": 946, "velocity": 120}, {"time": 139683, "pitch": 62, "duration": 946, "velocity": 120}, {"time": 139683, "pitch": 66, "duration": 946, "velocity": 120}, {"time": 140639, "pitch": 59, "duration": 952, "velocity": 120}, {"time": 140639, "pitch": 64, "duration": 952, "velocity": 120}, {"time": 140639, "pitch": 67, "duration": 952, "velocity": 120}, {"time": 141601, "pitch": 61, "duration": 946, "velocity": 120}, {"time": 141601, "pitch": 64, "duration": 946, "velocity": 120}, {"time": 141601, "pitch": 69, "duration": 946, "velocity": 120}, {"time": 142557, "pitch": 57, "duration": 952, "velocity": 120}, {"time": 142557, "pitch": 62, "duration": 952, "velocity": 120}, {"time": 142557, "pitch": 66, "duration": 952, "velocity": 120}, {"time": 143519, "pitch": 57, "duration": 953, "velocity": 120}, {"time": 143519, "pitch": 61, "duration": 953, "velocity": 120}, {"time": 143519, "pitch": 64, "duration": 953, "velocity": 120}, {"time": 144482, "pitch": 59, "duration": 946, "velocity": 120}, {"time": 144482, "pitch": 62, "duration": 946, "velocity": 120}, {"time": 144482, "pitch": 66, "duration": 946, "velocity": 120}, {"time": 145437, "pitch": 59, "duration": 953, "velocity": 120}, {"time": 145437, "pitch": 62, "duration": 953, "velocity": 120}, {"time": 145437, "pitch": 67, "duration": 953, "velocity": 120}, {"time": 146400, "pitch": 57, "duration": 952, "velocity": 120}, {"time": 146400, "pitch": 62, "duration": 952, "velocity": 120}, {"time": 146400, "pitch": 66, "duration": 952, "velocity": 120}, {"time": 147362, "pitch": 59, "duration": 946, "velocity": 120}, {"time": 147362, "pitch": 62, "duration": 946, "velocity": 120}, {"time": 147362, "pitch": 66, "duration": 946, "velocity": 120}, {"time": 148318, "pitch": 59, "duration": 953, "velocity": 120}, {"time": 148318, "pitch": 64, "duration": 953, "velocity": 120}, {"time": 148318, "pitch": 67, "duration": 953, "velocity": 120}, {"time": 149281, "pitch": 61, "duration": 952, "velocity": 120}, {"time": 149281, "pitch": 64, "duration": 952, "velocity": 120}, {"time": 149281, "pitch": 69, "duration": 952, "velocity": 120}, {"time": 157922, "pitch": 43, "duration": 3827, "velocity": 120}, {"time": 157922, "pitch": 62, "duration": 3827, "velocity": 120}, {"time": 157922, "pitch": 67, "duration": 3827, "velocity": 120}, {"time": 157922, "pitch": 71, "duration": 3827, "velocity": 120}, {"time": 159841, "pitch": 74, "duration": 1908, "velocity": 120}], "annotations": [{"time": 211, "annotation": {"number": 7, "value": 110}, "group": "control_change"}, {"time": 230, "annotation": {"number": 11, "value": 120}, "group": "control_change"}, {"time": 249, "annotation": {"number": 10, "value": 44}, "group": "control_change"}, {"time": 268, "annotation": {"number": 91, "value": 50}, "group": "control_change"}, {"time": 287, "annotation": {"number": 93, "value": 50}, "group": "control_change"}, {"time": 306, "annotation": {"number": 94, "value": 0}, "group": "control_change"}, {"time": 326, "annotation": {"number": 101, "value": 0}, "group": "control_change"}, {"time": 345, "annotation": {"number": 100, "value": 0}, "group": "control_change"}, {"time": 364, "annotation": {"number": 6, "value": 12}, "group": "control_change"}, {"time": 421, "annotation": {"number": 101, "value": 127}, "group": "control_change"}, {"time": 440, "annotation": {"number": 100, "value": 127}, "group": "control_change"}]}, {"program": 0, "is_drum": false, "name": "SLAP BASS ", "annotations": [{"time": 191, "annotation": {"number": 0, "value": 0}, "group": "control_change"}, {"time": 191, "annotation": {"number": 32, "value": 2}, "group": "control_change"}]}, {"program": 36, "is_drum": false, "name": "SLAP BASS ", "notes": [{"time": 479, "pitch": 38, "duration": 130, "velocity": 127}, {"time": 719, "pitch": 38, "duration": 98, "velocity": 127}, {"time": 959, "pitch": 38, "duration": 103, "velocity": 127}, {"time": 1200, "pitch": 38, "duration": 122, "velocity": 127}, {"time": 1441, "pitch": 35, "duration": 104, "velocity": 127}, {"time": 1681, "pitch": 35, "duration": 97, "velocity": 127}, {"time": 1922, "pitch": 35, "duration": 67, "velocity": 127}, {"time": 2163, "pitch": 35, "duration": 97, "velocity": 127}, {"time": 2403, "pitch": 31, "duration": 106, "velocity": 127}, {"time": 2640, "pitch": 31, "duration": 76, "velocity": 127}, {"time": 2877, "pitch": 31, "duration": 59, "velocity": 127}, {"time": 3118, "pitch": 31, "duration": 107, "velocity": 127}, {"time": 3238, "pitch": 33, "duration": 84, "velocity": 127}, {"time": 3479, "pitch": 33, "duration": 93, "velocity": 127}, {"time": 3720, "pitch": 33, "duration": 38, "velocity": 127}, {"time": 3840, "pitch": 33, "duration": 111, "velocity": 127}, {"time": 4081, "pitch": 33, "duration": 156, "velocity": 127}, {"time": 4321, "pitch": 35, "duration": 92, "velocity": 127}, {"time": 4562, "pitch": 35, "duration": 98, "velocity": 127}, {"time": 4803, "pitch": 35, "duration": 95, "velocity": 127}, {"time": 5040, "pitch": 35, "duration": 64, "velocity": 127}, {"time": 5158, "pitch": 31, "duration": 112, "velocity": 127}, {"time": 5397, "pitch": 31, "duration": 83, "velocity": 127}, {"time": 5638, "pitch": 31, "duration": 51, "velocity": 127}, {"time": 5758, "pitch": 31, "duration": 114, "velocity": 127}, {"time": 5999, "pitch": 31, "duration": 116, "velocity": 127}, {"time": 6239, "pitch": 28, "duration": 248, "velocity": 127}, {"time": 6600, "pitch": 28, "duration": 242, "velocity": 127}, {"time": 6961, "pitch": 33, "duration": 423, "velocity": 127}, {"time": 8157, "pitch": 38, "duration": 132, "velocity": 127}, {"time": 8398, "pitch": 38, "duration": 98, "velocity": 127}, {"time": 8639, "pitch": 38, "duration": 102, "velocity": 127}, {"time": 8879, "pitch": 38, "duration": 123, "velocity": 127}, {"time": 9120, "pitch": 35, "duration": 104, "velocity": 127}, {"time": 9361, "pitch": 35, "duration": 96, "velocity": 127}, {"time": 9601, "pitch": 35, "duration": 67, "velocity": 127}, {"time": 9842, "pitch": 35, "duration": 97, "velocity": 127}, {"time": 10083, "pitch": 31, "duration": 105, "velocity": 127}, {"time": 10320, "pitch": 31, "duration": 76, "velocity": 127}, {"time": 10557, "pitch": 31, "duration": 58, "velocity": 127}, {"time": 10797, "pitch": 31, "duration": 108, "velocity": 127}, {"time": 10918, "pitch": 33, "duration": 83, "velocity": 127}, {"time": 11158, "pitch": 33, "duration": 94, "velocity": 127}, {"time": 11399, "pitch": 33, "duration": 38, "velocity": 127}, {"time": 11519, "pitch": 33, "duration": 112, "velocity": 127}, {"time": 11760, "pitch": 33, "duration": 156, "velocity": 127}, {"time": 12001, "pitch": 35, "duration": 91, "velocity": 127}, {"time": 12241, "pitch": 35, "duration": 99, "velocity": 127}, {"time": 12482, "pitch": 35, "duration": 97, "velocity": 127}, {"time": 12723, "pitch": 35, "duration": 65, "velocity": 127}, {"time": 12843, "pitch": 31, "duration": 113, "velocity": 127}, {"time": 13082, "pitch": 31, "duration": 82, "velocity": 127}, {"time": 13319, "pitch": 31, "duration": 50, "velocity": 127}, {"time": 13437, "pitch": 31, "duration": 115, "velocity": 127}, {"time": 13678, "pitch": 31, "duration": 116, "velocity": 127}, {"time": 13919, "pitch": 28, "duration": 247, "velocity": 127}, {"time": 14280, "pitch": 28, "duration": 241, "velocity": 127}, {"time": 14641, "pitch": 33, "duration": 423, "velocity": 127}, {"time": 65763, "pitch": 28, "duration": 244, "velocity": 127}, {"time": 66119, "pitch": 28, "duration": 240, "velocity": 127}, {"time": 66478, "pitch": 33, "duration": 423, "velocity": 127}, {"time": 150243, "pitch": 38, "duration": 130, "velocity": 127}, {"time": 150480, "pitch": 38, "duration": 97, "velocity": 127}, {"time": 150717, "pitch": 38, "duration": 103, "velocity": 127}, {"time": 150958, "pitch": 38, "duration": 122, "velocity": 127}, {"time": 151199, "pitch": 35, "duration": 104, "velocity": 127}, {"time": 151439, "pitch": 35, "duration": 97, "velocity": 127}, {"time": 151680, "pitch": 35, "duration": 67, "velocity": 127}, {"time": 151921, "pitch": 35, "duration": 97, "velocity": 127}, {"time": 152161, "pitch": 31, "duration": 108, "velocity": 127}, {"time": 152402, "pitch": 31, "duration": 77, "velocity": 127}, {"time": 152642, "pitch": 31, "duration": 58, "velocity": 127}, {"time": 152880, "pitch": 31, "duration": 105, "velocity": 127}, {"time": 152998, "pitch": 33, "duration": 82, "velocity": 127}, {"time": 153237, "pitch": 33, "duration": 93, "velocity": 127}, {"time": 153478, "pitch": 33, "duration": 38, "velocity": 127}, {"time": 153598, "pitch": 33, "duration": 111, "velocity": 127}, {"time": 153839, "pitch": 33, "duration": 156, "velocity": 127}, {"time": 154079, "pitch": 35, "duration": 92, "velocity": 127}, {"time": 154320, "pitch": 35, "duration": 98, "velocity": 127}, {"time": 154561, "pitch": 35, "duration": 97, "velocity": 127}, {"time": 154801, "pitch": 35, "duration": 65, "velocity": 127}, {"time": 154922, "pitch": 31, "duration": 113, "velocity": 127}, {"time": 155162, "pitch": 31, "duration": 83, "velocity": 127}, {"time": 155403, "pitch": 31, "duration": 51, "velocity": 127}, {"time": 155523, "pitch": 31, "duration": 113, "velocity": 127}, {"time": 155760, "pitch": 31, "duration": 115, "velocity": 127}, {"time": 155997, "pitch": 28, "duration": 248, "velocity": 127}, {"time": 156358, "pitch": 28, "duration": 242, "velocity": 127}, {"time": 156719, "pitch": 33, "duration": 423, "velocity": 127}], "annotations": [{"time": 211, "annotation": {"number": 7, "value": 120}, "group": "control_change"}, {"time": 230, "annotation": {"number": 11, "value": 120}, "group": "control_change"}, {"time": 249, "annotation": {"number": 10, "value": 64}, "group": "control_change"}, {"time": 268, "annotation": {"number": 91, "value": 5}, "group": "control_change"}, {"time": 287, "annotation": {"number": 93, "value": 0}, "group": "control_change"}, {"time": 306, "annotation": {"number": 94, "value": 0}, "group": "control_change"}, {"time": 326, "annotation": {"number": 101, "value": 0}, "group": "control_change"}, {"time": 345, "annotation": {"number": 100, "value": 0}, "group": "control_change"}, {"time": 364, "annotation": {"number": 6, "value": 12}, "group": "control_change"}, {"time": 383, "annotation": {"number": 101, "value": 127}, "group": "control_change"}, {"time": 402, "annotation": {"number": 100, "value": 127}, "group": "control_change"}]}, {"program": 0, "is_drum": false, "name": "SYN 1", "annotations": [{"time": 191, "annotation": {"number": 0, "value": 0}, "group": "control_change"}, {"time": 191, "annotation": {"number": 32, "value": 2}, "group": "control_change"}]}, {"program": 84, "is_drum": false, "name": "SYN 1", "notes": [{"time": 13919, "pitch": 79, "duration": 170, "velocity": 103}, {"time": 13919, "pitch": 83, "duration": 170, "velocity": 103}, {"time": 13919, "pitch": 86, "duration": 170, "velocity": 103}, {"time": 14280, "pitch": 79, "duration": 170, "velocity": 105}, {"time": 14280, "pitch": 83, "duration": 170, "velocity": 105}, {"time": 14280, "pitch": 86, "duration": 170, "velocity": 105}, {"time": 14641, "pitch": 81, "duration": 160, "velocity": 107}, {"time": 14641, "pitch": 85, "duration": 160, "velocity": 107}, {"time": 14641, "pitch": 88, "duration": 160, "velocity": 107}, {"time": 50397, "pitch": 71, "duration": 122, "velocity": 127}, {"time": 50638, "pitch": 73, "duration": 122, "velocity": 127}, {"time": 50879, "pitch": 74, "duration": 97, "velocity": 127}, {"time": 51119, "pitch": 78, "duration": 349, "velocity": 127}, {"time": 51601, "pitch": 78, "duration": 391, "velocity": 127}, {"time": 52082, "pitch": 79, "duration": 102, "velocity": 127}, {"time": 52323, "pitch": 78, "duration": 185, "velocity": 127}, {"time": 52560, "pitch": 76, "duration": 125, "velocity": 127}, {"time": 52797, "pitch": 74, "duration": 70, "velocity": 127}, {"time": 53037, "pitch": 76, "duration": 1085, "velocity": 127}, {"time": 54241, "pitch": 69, "duration": 170, "velocity": 127}, {"time": 54481, "pitch": 71, "duration": 129, "velocity": 127}, {"time": 54722, "pitch": 73, "duration": 92, "velocity": 127}, {"time": 54929, "pitch": 74, "duration": 32, "velocity": 127}, {"time": 54963, "pitch": 76, "duration": 376, "velocity": 127}, {"time": 55440, "pitch": 76, "duration": 397, "velocity": 127}, {"time": 55918, "pitch": 78, "duration": 75, "velocity": 127}, {"time": 56159, "pitch": 76, "duration": 178, "velocity": 127}, {"time": 56399, "pitch": 74, "duration": 111, "velocity": 127}, {"time": 56640, "pitch": 73, "duration": 88, "velocity": 127}, {"time": 56881, "pitch": 74, "duration": 1119, "velocity": 127}, {"time": 58077, "pitch": 71, "duration": 222, "velocity": 127}, {"time": 58317, "pitch": 73, "duration": 118, "velocity": 127}, {"time": 58558, "pitch": 74, "duration": 79, "velocity": 127}, {"time": 58799, "pitch": 78, "duration": 348, "velocity": 127}, {"time": 59280, "pitch": 78, "duration": 369, "velocity": 127}, {"time": 59761, "pitch": 79, "duration": 81, "velocity": 127}, {"time": 60002, "pitch": 78, "duration": 202, "velocity": 127}, {"time": 60243, "pitch": 76, "duration": 93, "velocity": 127}, {"time": 60483, "pitch": 74, "duration": 70, "velocity": 127}, {"time": 60720, "pitch": 76, "duration": 687, "velocity": 127}, {"time": 61439, "pitch": 76, "duration": 76, "velocity": 127}, {"time": 61559, "pitch": 78, "duration": 45, "velocity": 127}, {"time": 61679, "pitch": 79, "duration": 163, "velocity": 127}, {"time": 61920, "pitch": 81, "duration": 609, "velocity": 127}, {"time": 62642, "pitch": 76, "duration": 616, "velocity": 127}, {"time": 63360, "pitch": 73, "duration": 86, "velocity": 127}, {"time": 63597, "pitch": 73, "duration": 405, "velocity": 127}, {"time": 64079, "pitch": 74, "duration": 117, "velocity": 127}, {"time": 64319, "pitch": 74, "duration": 931, "velocity": 127}, {"time": 65282, "pitch": 74, "duration": 201, "velocity": 127}, {"time": 65523, "pitch": 73, "duration": 88, "velocity": 127}, {"time": 65763, "pitch": 71, "duration": 168, "velocity": 127}, {"time": 65763, "pitch": 74, "duration": 168, "velocity": 127}, {"time": 66119, "pitch": 71, "duration": 169, "velocity": 127}, {"time": 66119, "pitch": 74, "duration": 169, "velocity": 127}, {"time": 66478, "pitch": 73, "duration": 160, "velocity": 127}, {"time": 66478, "pitch": 76, "duration": 160, "velocity": 127}, {"time": 155997, "pitch": 79, "duration": 171, "velocity": 103}, {"time": 155997, "pitch": 83, "duration": 171, "velocity": 103}, {"time": 155997, "pitch": 86, "duration": 171, "velocity": 103}, {"time": 156358, "pitch": 79, "duration": 171, "velocity": 105}, {"time": 156358, "pitch": 83, "duration": 171, "velocity": 105}, {"time": 156358, "pitch": 86, "duration": 171, "velocity": 105}, {"time": 156719, "pitch": 81, "duration": 161, "velocity": 107}, {"time": 156719, "pitch": 85, "duration": 161, "velocity": 107}, {"time": 156719, "pitch": 88, "duration": 161, "velocity": 107}, {"time": 161518, "pitch": 31, "duration": 114, "velocity": 127}, {"time": 161518, "pitch": 43, "duration": 114, "velocity": 127}, {"time": 161518, "pitch": 55, "duration": 114, "velocity": 127}, {"time": 161518, "pitch": 67, "duration": 114, "velocity": 127}, {"time": 161638, "pitch": 31, "duration": 115, "velocity": 127}, {"time": 161638, "pitch": 43, "duration": 115, "velocity": 127}, {"time": 161638, "pitch": 55, "duration": 115, "velocity": 127}, {"time": 161638, "pitch": 67, "duration": 115, "velocity": 127}], "annotations": [{"time": 211, "annotation": {"number": 7, "value": 100}, "group": "control_change"}, {"time": 230, "annotation": {"number": 11, "value": 120}, "group": "control_change"}, {"time": 249, "annotation": {"number": 10, "value": 24}, "group": "control_change"}, {"time": 268, "annotation": {"number": 91, "value": 50}, "group": "control_change"}, {"time": 287, "annotation": {"number": 93, "value": 0}, "group": "control_change"}, {"time": 306, "annotation": {"number": 94, "value": 0}, "group": "control_change"}, {"time": 326, "annotation": {"number": 101, "value": 0}, "group": "control_change"}, {"time": 345, "annotation": {"number": 100, "value": 0}, "group": "control_change"}, {"time": 364, "annotation": {"number": 6, "value": 12}, "group": "control_change"}, {"time": 383, "annotation": {"number": 101, "value": 127}, "group": "control_change"}, {"time": 402, "annotation": {"number": 100, "value": 127}, "group": "control_change"}, {"time": 56913, "annotation": {"number": 1, "value": 5}, "group": "control_change"}, {"time": 56937, "annotation": {"number": 1, "value": 13}, "group": "control_change"}, {"time": 56961, "annotation": {"number": 1, "value": 19}, "group": "control_change"}, {"time": 56986, "annotation": {"number": 1, "value": 23}, "group": "control_change"}, {"time": 57010, "annotation": {"number": 1, "value": 25}, "group": "control_change"}, {"time": 57035, "annotation": {"number": 1, "value": 27}, "group": "control_change"}, {"time": 57084, "annotation": {"number": 1, "value": 28}, "group": "control_change"}, {"time": 57158, "annotation": {"number": 1, "value": 30}, "group": "control_change"}, {"time": 57182, "annotation": {"number": 1, "value": 31}, "group": "control_change"}, {"time": 57207, "annotation": {"number": 1, "value": 32}, "group": "control_change"}, {"time": 57429, "annotation": {"number": 1, "value": 33}, "group": "control_change"}, {"time": 57478, "annotation": {"number": 1, "value": 35}, "group": "control_change"}, {"time": 57527, "annotation": {"number": 1, "value": 33}, "group": "control_change"}, {"time": 57552, "annotation": {"number": 1, "value": 32}, "group": "control_change"}, {"time": 57577, "annotation": {"number": 1, "value": 30}, "group": "control_change"}, {"time": 57602, "annotation": {"number": 1, "value": 28}, "group": "control_change"}, {"time": 57625, "annotation": {"number": 1, "value": 30}, "group": "control_change"}, {"time": 57650, "annotation": {"number": 1, "value": 32}, "group": "control_change"}, {"time": 57675, "annotation": {"number": 1, "value": 34}, "group": "control_change"}, {"time": 57698, "annotation": {"number": 1, "value": 38}, "group": "control_change"}, {"time": 57723, "annotation": {"number": 1, "value": 40}, "group": "control_change"}, {"time": 57771, "annotation": {"number": 1, "value": 39}, "group": "control_change"}, {"time": 57796, "annotation": {"number": 1, "value": 35}, "group": "control_change"}, {"time": 57821, "annotation": {"number": 1, "value": 31}, "group": "control_change"}, {"time": 57845, "annotation": {"number": 1, "value": 23}, "group": "control_change"}, {"time": 57869, "annotation": {"number": 1, "value": 11}, "group": "control_change"}, {"time": 57894, "annotation": {"number": 1, "value": 0}, "group": "control_change"}, {"time": 61950, "annotation": {"number": 1, "value": 6}, "group": "control_change"}, {"time": 61974, "annotation": {"number": 1, "value": 19}, "group": "control_change"}, {"time": 61999, "annotation": {"number": 1, "value": 28}, "group": "control_change"}, {"time": 62023, "annotation": {"number": 1, "value": 33}, "group": "control_change"}, {"time": 62047, "annotation": {"number": 1, "value": 36}, "group": "control_change"}, {"time": 62072, "annotation": {"number": 1, "value": 37}, "group": "control_change"}, {"time": 62221, "annotation": {"number": 1, "value": 39}, "group": "control_change"}, {"time": 62294, "annotation": {"number": 1, "value": 38}, "group": "control_change"}, {"time": 62344, "annotation": {"number": 1, "value": 37}, "group": "control_change"}, {"time": 62368, "annotation": {"number": 1, "value": 34}, "group": "control_change"}, {"time": 62393, "annotation": {"number": 1, "value": 32}, "group": "control_change"}, {"time": 62418, "annotation": {"number": 1, "value": 29}, "group": "control_change"}, {"time": 62442, "annotation": {"number": 1, "value": 26}, "group": "control_change"}, {"time": 62466, "annotation": {"number": 1, "value": 21}, "group": "control_change"}, {"time": 62492, "annotation": {"number": 1, "value": 15}, "group": "control_change"}, {"time": 62517, "annotation": {"number": 1, "value": 7}, "group": "control_change"}, {"time": 62542, "annotation": {"number": 1, "value": 0}, "group": "control_change"}]}, {"program": 0, "is_drum": false, "name": "SYN 2", "annotations": [{"time": 191, "annotation": {"number": 0, "value": 0}, "group": "control_change"}, {"time": 191, "annotation": {"number": 32, "value": 2}, "group": "control_change"}]}, {"program": 84, "is_drum": false, "name": "SYN 2", "notes": [{"time": 13919, "pitch": 79, "duration": 170, "velocity": 102}, {"time": 13919, "pitch": 83, "duration": 170, "velocity": 102}, {"time": 13919, "pitch": 86, "duration": 170, "velocity": 102}, {"time": 14280, "pitch": 79, "duration": 170, "velocity": 102}, {"time": 14280, "pitch": 83, "duration": 170, "velocity": 102}, {"time": 14280, "pitch": 86, "duration": 170, "velocity": 102}, {"time": 14641, "pitch": 81, "duration": 160, "velocity": 103}, {"time": 14641, "pitch": 85, "duration": 160, "velocity": 103}, {"time": 14641, "pitch": 88, "duration": 160, "velocity": 103}, {"time": 50563, "pitch": 71, "duration": 121, "velocity": 94}, {"time": 50804, "pitch": 73, "duration": 122, "velocity": 94}, {"time": 51044, "pitch": 74, "duration": 97, "velocity": 94}, {"time": 51285, "pitch": 78, "duration": 349, "velocity": 94}, {"time": 51766, "pitch": 78, "duration": 391, "velocity": 94}, {"time": 52247, "pitch": 79, "duration": 102, "velocity": 94}, {"time": 52486, "pitch": 78, "duration": 185, "velocity": 94}, {"time": 52723, "pitch": 76, "duration": 126, "velocity": 94}, {"time": 52962, "pitch": 74, "duration": 70, "velocity": 94}, {"time": 53203, "pitch": 76, "duration": 1085, "velocity": 94}, {"time": 54406, "pitch": 69, "duration": 171, "velocity": 94}, {"time": 54647, "pitch": 71, "duration": 128, "velocity": 94}, {"time": 54887, "pitch": 73, "duration": 93, "velocity": 94}, {"time": 55095, "pitch": 74, "duration": 31, "velocity": 94}, {"time": 55128, "pitch": 76, "duration": 374, "velocity": 94}, {"time": 55603, "pitch": 76, "duration": 399, "velocity": 94}, {"time": 56084, "pitch": 78, "duration": 75, "velocity": 94}, {"time": 56324, "pitch": 76, "duration": 179, "velocity": 94}, {"time": 56565, "pitch": 74, "duration": 110, "velocity": 94}, {"time": 56805, "pitch": 73, "duration": 89, "velocity": 94}, {"time": 57046, "pitch": 74, "duration": 1118, "velocity": 94}, {"time": 58242, "pitch": 71, "duration": 223, "velocity": 94}, {"time": 58483, "pitch": 73, "duration": 117, "velocity": 94}, {"time": 58723, "pitch": 74, "duration": 80, "velocity": 94}, {"time": 58964, "pitch": 78, "duration": 348, "velocity": 94}, {"time": 59445, "pitch": 78, "duration": 369, "velocity": 94}, {"time": 59927, "pitch": 79, "duration": 81, "velocity": 94}, {"time": 60167, "pitch": 78, "duration": 203, "velocity": 94}, {"time": 60408, "pitch": 76, "duration": 93, "velocity": 94}, {"time": 60646, "pitch": 74, "duration": 70, "velocity": 94}, {"time": 60883, "pitch": 76, "duration": 689, "velocity": 94}, {"time": 61604, "pitch": 76, "duration": 76, "velocity": 94}, {"time": 61724, "pitch": 78, "duration": 46, "velocity": 94}, {"time": 61845, "pitch": 79, "duration": 162, "velocity": 94}, {"time": 62085, "pitch": 81, "duration": 609, "velocity": 94}, {"time": 62807, "pitch": 76, "duration": 615, "velocity": 94}, {"time": 63525, "pitch": 73, "duration": 86, "velocity": 94}, {"time": 63763, "pitch": 73, "duration": 405, "velocity": 94}, {"time": 64244, "pitch": 74, "duration": 117, "velocity": 94}, {"time": 64485, "pitch": 74, "duration": 930, "velocity": 94}, {"time": 65447, "pitch": 74, "duration": 202, "velocity": 94}, {"time": 65688, "pitch": 73, "duration": 75, "velocity": 94}, {"time": 65763, "pitch": 67, "duration": 168, "velocity": 127}, {"time": 65763, "pitch": 71, "duration": 168, "velocity": 127}, {"time": 66119, "pitch": 67, "duration": 169, "velocity": 127}, {"time": 66119, "pitch": 71, "duration": 169, "velocity": 127}, {"time": 66478, "pitch": 69, "duration": 160, "velocity": 127}, {"time": 66478, "pitch": 73, "duration": 160, "velocity": 127}, {"time": 155997, "pitch": 79, "duration": 171, "velocity": 102}, {"time": 155997, "pitch": 83, "duration": 171, "velocity": 102}, {"time": 155997, "pitch": 86, "duration": 171, "velocity": 102}, {"time": 156358, "pitch": 79, "duration": 171, "velocity": 102}, {"time": 156358, "pitch": 83, "duration": 171, "velocity": 102}, {"time": 156358, "pitch": 86, "duration": 171, "velocity": 102}, {"time": 156719, "pitch": 81, "duration": 161, "velocity": 103}, {"time": 156719, "pitch": 85, "duration": 161, "velocity": 103}, {"time": 156719, "pitch": 88, "duration": 161, "velocity": 103}, {"time": 161518, "pitch": 31, "duration": 114, "velocity": 127}, {"time": 161518, "pitch": 43, "duration": 114, "velocity": 127}, {"time": 161518, "pitch": 67, "duration": 114, "velocity": 127}, {"time": 161518, "pitch": 79, "duration": 114, "velocity": 127}, {"time": 161638, "pitch": 31, "duration": 115, "velocity": 127}, {"time": 161638, "pitch": 43, "duration": 115, "velocity": 127}, {"time": 161638, "pitch": 67, "duration": 115, "velocity": 127}, {"time": 161638, "pitch": 79, "duration": 115, "velocity": 127}], "annotations": [{"time": 211, "annotation": {"number": 7, "value": 100}, "group": "control_change"}, {"time": 230, "annotation": {"number": 11, "value": 120}, "group": "control_change"}, {"time": 249, "annotation": {"number": 10, "value": 114}, "group": "control_change"}, {"time": 268, "annotation": {"number": 91, "value": 50}, "group": "control_change"}, {"time": 287, "annotation": {"number": 93, "value": 0}, "group": "control_change"}, {"time": 306, "annotation": {"number": 94, "value": 0}, "group": "control_change"}, {"time": 326, "annotation": {"number": 101, "value": 0}, "group": "control_change"}, {"time": 345, "annotation": {"number": 100, "value": 0}, "group": "control_change"}, {"time": 364, "annotation": {"number": 6, "value": 12}, "group": "control_change"}, {"time": 383, "annotation": {"number": 101, "value": 127}, "group": "control_change"}, {"time": 402, "annotation": {"number": 100, "value": 127}, "group": "control_change"}, {"time": 57078, "annotation": {"number": 1, "value": 5}, "group": "control_change"}, {"time": 57102, "annotation": {"number": 1, "value": 13}, "group": "control_change"}, {"time": 57126, "annotation": {"number": 1, "value": 19}, "group": "control_change"}, {"time": 57151, "annotation": {"number": 1, "value": 23}, "group": "control_change"}, {"time": 57175, "annotation": {"number": 1, "value": 25}, "group": "control_change"}, {"time": 57200, "annotation": {"number": 1, "value": 27}, "group": "control_change"}, {"time": 57250, "annotation": {"number": 1, "value": 28}, "group": "control_change"}, {"time": 57324, "annotation": {"number": 1, "value": 30}, "group": "control_change"}, {"time": 57348, "annotation": {"number": 1, "value": 31}, "group": "control_change"}, {"time": 57373, "annotation": {"number": 1, "value": 32}, "group": "control_change"}, {"time": 57595, "annotation": {"number": 1, "value": 33}, "group": "control_change"}, {"time": 57643, "annotation": {"number": 1, "value": 35}, "group": "control_change"}, {"time": 57691, "annotation": {"number": 1, "value": 33}, "group": "control_change"}, {"time": 57716, "annotation": {"number": 1, "value": 32}, "group": "control_change"}, {"time": 57741, "annotation": {"number": 1, "value": 30}, "group": "control_change"}, {"time": 57765, "annotation": {"number": 1, "value": 28}, "group": "control_change"}, {"time": 57788, "annotation": {"number": 1, "value": 30}, "group": "control_change"}, {"time": 57813, "annotation": {"number": 1, "value": 32}, "group": "control_change"}, {"time": 57838, "annotation": {"number": 1, "value": 34}, "group": "control_change"}, {"time": 57861, "annotation": {"number": 1, "value": 38}, "group": "control_change"}, {"time": 57886, "annotation": {"number": 1, "value": 40}, "group": "control_change"}, {"time": 57935, "annotation": {"number": 1, "value": 39}, "group": "control_change"}, {"time": 57959, "annotation": {"number": 1, "value": 35}, "group": "control_change"}, {"time": 57984, "annotation": {"number": 1, "value": 31}, "group": "control_change"}, {"time": 58008, "annotation": {"number": 1, "value": 23}, "group": "control_change"}, {"time": 58032, "annotation": {"number": 1, "value": 11}, "group": "control_change"}, {"time": 58057, "annotation": {"number": 1, "value": 0}, "group": "control_change"}, {"time": 62116, "annotation": {"number": 1, "value": 6}, "group": "control_change"}, {"time": 62140, "annotation": {"number": 1, "value": 19}, "group": "control_change"}, {"time": 62165, "annotation": {"number": 1, "value": 28}, "group": "control_change"}, {"time": 62189, "annotation": {"number": 1, "value": 33}, "group": "control_change"}, {"time": 62213, "annotation": {"number": 1, "value": 36}, "group": "control_change"}, {"time": 62238, "annotation": {"number": 1, "value": 37}, "group": "control_change"}, {"time": 62386, "annotation": {"number": 1, "value": 39}, "group": "control_change"}, {"time": 62459, "annotation": {"number": 1, "value": 38}, "group": "control_change"}, {"time": 62510, "annotation": {"number": 1, "value": 37}, "group": "control_change"}, {"time": 62534, "annotation": {"number": 1, "value": 34}, "group": "control_change"}, {"time": 62559, "annotation": {"number": 1, "value": 32}, "group": "control_change"}, {"time": 62584, "annotation": {"number": 1, "value": 29}, "group": "control_change"}, {"time": 62608, "annotation": {"number": 1, "value": 26}, "group": "control_change"}, {"time": 62632, "annotation": {"number": 1, "value": 21}, "group": "control_change"}, {"time": 62657, "annotation": {"number": 1, "value": 15}, "group": "control_change"}, {"time": 62682, "annotation": {"number": 1, "value": 7}, "group": "control_change"}, {"time": 62707, "annotation": {"number": 1, "value": 0}, "group": "control_change"}]}, {"program": 0, "is_drum": false, "name": "DIST GT 1", "annotations": [{"time": 191, "annotation": {"number": 0, "value": 0}, "group": "control_change"}, {"time": 191, "annotation": {"number": 32, "value": 2}, "group": "control_change"}]}, {"program": 30, "is_drum": false, "name": "DIST GT 1", "notes": [{"time": 100317, "pitch": 59, "duration": 609, "velocity": 127}, {"time": 100317, "pitch": 71, "duration": 609, "velocity": 127}, {"time": 101039, "pitch": 66, "duration": 105, "velocity": 127}, {"time": 101039, "pitch": 78, "duration": 105, "velocity": 127}, {"time": 101279, "pitch": 66, "duration": 2285, "velocity": 127}, {"time": 101279, "pitch": 78, "duration": 2285, "velocity": 127}, {"time": 103685, "pitch": 64, "duration": 191, "velocity": 127}, {"time": 103685, "pitch": 76, "duration": 191, "velocity": 127}, {"time": 103925, "pitch": 62, "duration": 182, "velocity": 127}, {"time": 103925, "pitch": 74, "duration": 182, "velocity": 127}, {"time": 104166, "pitch": 61, "duration": 708, "velocity": 127}, {"time": 104166, "pitch": 73, "duration": 708, "velocity": 127}, {"time": 104882, "pitch": 57, "duration": 82, "velocity": 127}, {"time": 104882, "pitch": 69, "duration": 82, "velocity": 127}, {"time": 105123, "pitch": 57, "duration": 2321, "velocity": 127}, {"time": 105123, "pitch": 69, "duration": 2321, "velocity": 127}, {"time": 107522, "pitch": 54, "duration": 198, "velocity": 127}, {"time": 107522, "pitch": 66, "duration": 198, "velocity": 127}, {"time": 107763, "pitch": 57, "duration": 150, "velocity": 127}, {"time": 107763, "pitch": 69, "duration": 150, "velocity": 127}, {"time": 108003, "pitch": 59, "duration": 1327, "velocity": 127}, {"time": 108003, "pitch": 71, "duration": 1327, "velocity": 127}, {"time": 109440, "pitch": 57, "duration": 158, "velocity": 127}, {"time": 109440, "pitch": 69, "duration": 158, "velocity": 127}, {"time": 109681, "pitch": 59, "duration": 175, "velocity": 127}, {"time": 109681, "pitch": 71, "duration": 175, "velocity": 127}, {"time": 109921, "pitch": 61, "duration": 1394, "velocity": 127}, {"time": 109921, "pitch": 73, "duration": 1394, "velocity": 127}, {"time": 111358, "pitch": 59, "duration": 149, "velocity": 127}, {"time": 111358, "pitch": 71, "duration": 149, "velocity": 127}, {"time": 111599, "pitch": 61, "duration": 198, "velocity": 127}, {"time": 111599, "pitch": 73, "duration": 198, "velocity": 127}, {"time": 111839, "pitch": 62, "duration": 664, "velocity": 127}, {"time": 111839, "pitch": 74, "duration": 664, "velocity": 127}, {"time": 112561, "pitch": 61, "duration": 642, "velocity": 127}, {"time": 112561, "pitch": 73, "duration": 642, "velocity": 127}, {"time": 113268, "pitch": 62, "duration": 463, "velocity": 127}, {"time": 113268, "pitch": 74, "duration": 463, "velocity": 127}, {"time": 113757, "pitch": 64, "duration": 1193, "velocity": 127}, {"time": 113757, "pitch": 76, "duration": 1193, "velocity": 127}, {"time": 114961, "pitch": 62, "duration": 202, "velocity": 127}, {"time": 114961, "pitch": 74, "duration": 202, "velocity": 127}, {"time": 115201, "pitch": 61, "duration": 137, "velocity": 127}, {"time": 115201, "pitch": 73, "duration": 137, "velocity": 127}, {"time": 115442, "pitch": 59, "duration": 130, "velocity": 127}, {"time": 115442, "pitch": 71, "duration": 130, "velocity": 127}, {"time": 115682, "pitch": 57, "duration": 2008, "velocity": 127}, {"time": 115682, "pitch": 69, "duration": 2008, "velocity": 127}, {"time": 117601, "pitch": 57, "duration": 89, "velocity": 127}, {"time": 117601, "pitch": 69, "duration": 89, "velocity": 127}, {"time": 161518, "pitch": 43, "duration": 108, "velocity": 127}, {"time": 161518, "pitch": 55, "duration": 108, "velocity": 127}, {"time": 161638, "pitch": 43, "duration": 109, "velocity": 127}, {"time": 161638, "pitch": 55, "duration": 109, "velocity": 127}], "annotations": [{"time": 211, "annotation": {"number": 7, "value": 90}, "group": "control_change"}, {"time": 230, "annotation": {"number": 11, "value": 110}, "group": "control_change"}, {"time": 249, "annotation": {"number": 10, "value": 24}, "group": "control_change"}, {"time": 268, "annotation": {"number": 91, "value": 50}, "group": "control_change"}, {"time": 287, "annotation": {"number": 93, "value": 30}, "group": "control_change"}, {"time": 306, "annotation": {"number": 94, "value": 0}, "group": "control_change"}, {"time": 326, "annotation": {"number": 101, "value": 0}, "group": "control_change"}, {"time": 345, "annotation": {"number": 100, "value": 0}, "group": "control_change"}, {"time": 364, "annotation": {"number": 6, "value": 12}, "group": "control_change"}, {"time": 383, "annotation": {"number": 101, "value": 127}, "group": "control_change"}, {"time": 402, "annotation": {"number": 100, "value": 127}, "group": "control_change"}, {"time": 114052, "annotation": {"number": 1, "value": 3}, "group": "control_change"}, {"time": 114076, "annotation": {"number": 1, "value": 8}, "group": "control_change"}, {"time": 114125, "annotation": {"number": 1, "value": 12}, "group": "control_change"}, {"time": 114150, "annotation": {"number": 1, "value": 15}, "group": "control_change"}, {"time": 114175, "annotation": {"number": 1, "value": 21}, "group": "control_change"}, {"time": 114200, "annotation": {"number": 1, "value": 29}, "group": "control_change"}, {"time": 114225, "annotation": {"number": 1, "value": 38}, "group": "control_change"}, {"time": 114249, "annotation": {"number": 1, "value": 48}, "group": "control_change"}, {"time": 114273, "annotation": {"number": 1, "value": 58}, "group": "control_change"}, {"time": 114298, "annotation": {"number": 1, "value": 69}, "group": "control_change"}, {"time": 114323, "annotation": {"number": 1, "value": 79}, "group": "control_change"}, {"time": 114347, "annotation": {"number": 1, "value": 88}, "group": "control_change"}, {"time": 114372, "annotation": {"number": 1, "value": 96}, "group": "control_change"}, {"time": 114397, "annotation": {"number": 1, "value": 103}, "group": "control_change"}, {"time": 114421, "annotation": {"number": 1, "value": 111}, "group": "control_change"}, {"time": 114446, "annotation": {"number": 1, "value": 117}, "group": "control_change"}, {"time": 114470, "annotation": {"number": 1, "value": 121}, "group": "control_change"}, {"time": 114717, "annotation": {"number": 1, "value": 119}, "group": "control_change"}, {"time": 114742, "annotation": {"number": 1, "value": 116}, "group": "control_change"}, {"time": 114766, "annotation": {"number": 1, "value": 111}, "group": "control_change"}, {"time": 114791, "annotation": {"number": 1, "value": 99}, "group": "control_change"}, {"time": 114816, "annotation": {"number": 1, "value": 88}, "group": "control_change"}, {"time": 114840, "annotation": {"number": 1, "value": 69}, "group": "control_change"}, {"time": 114865, "annotation": {"number": 1, "value": 44}, "group": "control_change"}, {"time": 114889, "annotation": {"number": 1, "value": 11}, "group": "control_change"}, {"time": 114914, "annotation": {"number": 1, "value": 0}, "group": "control_change"}, {"time": 116535, "annotation": {"number": 1, "value": 3}, "group": "control_change"}, {"time": 116558, "annotation": {"number": 1, "value": 10}, "group": "control_change"}, {"time": 116583, "annotation": {"number": 1, "value": 16}, "group": "control_change"}, {"time": 116608, "annotation": {"number": 1, "value": 23}, "group": "control_change"}, {"time": 116632, "annotation": {"number": 1, "value": 28}, "group": "control_change"}, {"time": 116657, "annotation": {"number": 1, "value": 30}, "group": "control_change"}, {"time": 116706, "annotation": {"number": 1, "value": 35}, "group": "control_change"}, {"time": 116780, "annotation": {"number": 1, "value": 38}, "group": "control_change"}, {"time": 116804, "annotation": {"number": 1, "value": 40}, "group": "control_change"}, {"time": 116830, "annotation": {"number": 1, "value": 43}, "group": "control_change"}, {"time": 116855, "annotation": {"number": 1, "value": 46}, "group": "control_change"}, {"time": 116879, "annotation": {"number": 1, "value": 51}, "group": "control_change"}, {"time": 116904, "annotation": {"number": 1, "value": 56}, "group": "control_change"}, {"time": 116928, "annotation": {"number": 1, "value": 61}, "group": "control_change"}, {"time": 116953, "annotation": {"number": 1, "value": 65}, "group": "control_change"}, {"time": 116978, "annotation": {"number": 1, "value": 67}, "group": "control_change"}, {"time": 117002, "annotation": {"number": 1, "value": 70}, "group": "control_change"}, {"time": 117051, "annotation": {"number": 1, "value": 72}, "group": "control_change"}, {"time": 117150, "annotation": {"number": 1, "value": 75}, "group": "control_change"}, {"time": 117200, "annotation": {"number": 1, "value": 79}, "group": "control_change"}, {"time": 117249, "annotation": {"number": 1, "value": 81}, "group": "control_change"}, {"time": 117323, "annotation": {"number": 1, "value": 84}, "group": "control_change"}, {"time": 117372, "annotation": {"number": 1, "value": 88}, "group": "control_change"}, {"time": 117425, "annotation": {"number": 1, "value": 92}, "group": "control_change"}, {"time": 117470, "annotation": {"number": 1, "value": 88}, "group": "control_change"}, {"time": 117495, "annotation": {"number": 1, "value": 78}, "group": "control_change"}, {"time": 117520, "annotation": {"number": 1, "value": 58}, "group": "control_change"}, {"time": 117596, "annotation": {"number": 1, "value": 0}, "group": "control_change"}]}, {"program": 0, "is_drum": true, "name": "DRUMS", "annotations": [{"time": 191, "annotation": {"number": 0, "value": 0}, "group": "control_change"}, {"time": 191, "annotation": {"number": 32, "value": 2}, "group": "control_change"}]}, {"program": 16, "is_drum": true, "name": "DRUMS", "notes": [{"time": 7443, "pitch": 38, "duration": 10, "velocity": 34}, {"time": 7497, "pitch": 38, "duration": 10, "velocity": 42}, {"time": 7569, "pitch": 38, "duration": 10, "velocity": 61}, {"time": 7623, "pitch": 38, "duration": 10, "velocity": 81}, {"time": 7683, "pitch": 38, "duration": 10, "velocity": 117}, {"time": 7802, "pitch": 38, "duration": 10, "velocity": 117}, {"time": 7920, "pitch": 41, "duration": 10, "velocity": 90}, {"time": 7938, "pitch": 41, "duration": 10, "velocity": 127}, {"time": 8157, "pitch": 36, "duration": 10, "velocity": 117}, {"time": 8157, "pitch": 42, "duration": 10, "velocity": 127}, {"time": 8157, "pitch": 64, "duration": 10, "velocity": 107}, {"time": 8278, "pitch": 42, "duration": 10, "velocity": 127}, {"time": 8278, "pitch": 64, "duration": 10, "velocity": 107}, {"time": 8398, "pitch": 46, "duration": 10, "velocity": 127}, {"time": 8398, "pitch": 60, "duration": 10, "velocity": 107}, {"time": 8639, "pitch": 36, "duration": 10, "velocity": 117}, {"time": 8639, "pitch": 42, "duration": 10, "velocity": 127}, {"time": 8639, "pitch": 62, "duration": 10, "velocity": 107}, {"time": 8759, "pitch": 62, "duration": 10, "velocity": 107}, {"time": 8879, "pitch": 46, "duration": 10, "velocity": 127}, {"time": 8879, "pitch": 61, "duration": 10, "velocity": 107}, {"time": 9000, "pitch": 64, "duration": 10, "velocity": 107}, {"time": 9120, "pitch": 36, "duration": 10, "velocity": 117}, {"time": 9120, "pitch": 42, "duration": 10, "velocity": 127}, {"time": 9240, "pitch": 64, "duration": 10, "velocity": 107}, {"time": 9361, "pitch": 46, "duration": 10, "velocity": 127}, {"time": 9361, "pitch": 60, "duration": 10, "velocity": 107}, {"time": 9601, "pitch": 36, "duration": 10, "velocity": 117}, {"time": 9601, "pitch": 42, "duration": 10, "velocity": 127}, {"time": 9601, "pitch": 62, "duration": 10, "velocity": 107}, {"time": 9722, "pitch": 62, "duration": 10, "velocity": 107}, {"time": 9842, "pitch": 39, "duration": 10, "velocity": 127}, {"time": 9842, "pitch": 46, "duration": 10, "velocity": 127}, {"time": 9842, "pitch": 61, "duration": 10, "velocity": 107}, {"time": 10083, "pitch": 36, "duration": 9, "velocity": 117}, {"time": 10083, "pitch": 42, "duration": 9, "velocity": 127}, {"time": 10083, "pitch": 64, "duration": 9, "velocity": 107}, {"time": 10201, "pitch": 42, "duration": 10, "velocity": 127}, {"time": 10201, "pitch": 64, "duration": 10, "velocity": 107}, {"time": 10320, "pitch": 46, "duration": 10, "velocity": 127}, {"time": 10320, "pitch": 60, "duration": 10, "velocity": 107}, {"time": 10557, "pitch": 36, "duration": 10, "velocity": 117}, {"time": 10557, "pitch": 42, "duration": 10, "velocity": 127}, {"time": 10557, "pitch": 62, "duration": 10, "velocity": 107}, {"time": 10797, "pitch": 46, "duration": 10, "velocity": 127}, {"time": 10797, "pitch": 61, "duration": 10, "velocity": 107}, {"time": 10918, "pitch": 64, "duration": 10, "velocity": 107}, {"time": 11038, "pitch": 36, "duration": 10, "velocity": 117}, {"time": 11038, "pitch": 42, "duration": 10, "velocity": 127}, {"time": 11158, "pitch": 64, "duration": 10, "velocity": 107}, {"time": 11279, "pitch": 46, "duration": 10, "velocity": 127}, {"time": 11279, "pitch": 60, "duration": 10, "velocity": 107}, {"time": 11519, "pitch": 36, "duration": 10, "velocity": 117}, {"time": 11519, "pitch": 42, "duration": 10, "velocity": 127}, {"time": 11519, "pitch": 62, "duration": 10, "velocity": 107}, {"time": 11640, "pitch": 62, "duration": 10, "velocity": 107}, {"time": 11760, "pitch": 39, "duration": 10, "velocity": 127}, {"time": 11760, "pitch": 46, "duration": 10, "velocity": 127}, {"time": 11760, "pitch": 63, "duration": 10, "velocity": 107}, {"time": 12001, "pitch": 36, "duration": 10, "velocity": 117}, {"time": 12001, "pitch": 42, "duration": 10, "velocity": 127}, {"time": 12001, "pitch": 64, "duration": 10, "velocity": 107}, {"time": 12121, "pitch": 42, "duration": 10, "velocity": 127}, {"time": 12121, "pitch": 64, "duration": 10, "velocity": 107}, {"time": 12241, "pitch": 46, "duration": 10, "velocity": 127}, {"time": 12241, "pitch": 60, "duration": 10, "velocity": 107}, {"time": 12482, "pitch": 36, "duration": 10, "velocity": 117}, {"time": 12482, "pitch": 42, "duration": 10, "velocity": 127}, {"time": 12482, "pitch": 62, "duration": 10, "velocity": 107}, {"time": 12602, "pitch": 62, "duration": 10, "velocity": 107}, {"time": 12723, "pitch": 46, "duration": 10, "velocity": 127}, {"time": 12723, "pitch": 61, "duration": 10, "velocity": 107}, {"time": 12843, "pitch": 64, "duration": 10, "velocity": 107}, {"time": 12963, "pitch": 36, "duration": 10, "velocity": 117}, {"time": 12963, "pitch": 42, "duration": 10, "velocity": 127}, {"time": 13082, "pitch": 64, "duration": 10, "velocity": 107}, {"time": 13200, "pitch": 46, "duration": 10, "velocity": 127}, {"time": 13200, "pitch": 60, "duration": 10, "velocity": 107}, {"time": 13437, "pitch": 36, "duration": 10, "velocity": 117}, {"time": 13437, "pitch": 42, "duration": 10, "velocity": 127}, {"time": 13437, "pitch": 62, "duration": 10, "velocity": 107}, {"time": 13558, "pitch": 62, "duration": 10, "velocity": 107}, {"time": 13678, "pitch": 39, "duration": 10, "velocity": 127}, {"time": 13678, "pitch": 46, "duration": 10, "velocity": 127}, {"time": 13678, "pitch": 63, "duration": 10, "velocity": 107}, {"time": 13919, "pitch": 38, "duration": 10, "velocity": 117}, {"time": 13919, "pitch": 42, "duration": 10, "velocity": 127}, {"time": 13919, "pitch": 44, "duration": 10, "velocity": 127}, {"time": 13919, "pitch": 50, "duration": 10, "velocity": 90}, {"time": 13919, "pitch": 64, "duration": 10, "velocity": 107}, {"time": 13943, "pitch": 50, "duration": 10, "velocity": 127}, {"time": 14159, "pitch": 60, "duration": 10, "velocity": 107}, {"time": 14274, "pitch": 45, "duration": 10, "velocity": 90}, {"time": 14280, "pitch": 38, "duration": 10, "velocity": 117}, {"time": 14280, "pitch": 44, "duration": 10, "velocity": 127}, {"time": 14280, "pitch": 62, "duration": 10, "velocity": 107}, {"time": 14301, "pitch": 45, "duration": 10, "velocity": 127}, {"time": 14520, "pitch": 62, "duration": 10, "velocity": 107}, {"time": 14641, "pitch": 38, "duration": 10, "velocity": 117}, {"time": 14641, "pitch": 43, "duration": 10, "velocity": 90}, {"time": 14641, "pitch": 44, "duration": 10, "velocity": 127}, {"time": 14641, "pitch": 61, "duration": 10, "velocity": 107}, {"time": 14668, "pitch": 43, "duration": 10, "velocity": 127}, {"time": 15122, "pitch": 38, "duration": 10, "velocity": 34}, {"time": 15176, "pitch": 38, "duration": 10, "velocity": 42}, {"time": 15248, "pitch": 38, "duration": 10, "velocity": 61}, {"time": 15302, "pitch": 38, "duration": 10, "velocity": 81}, {"time": 15363, "pitch": 38, "duration": 9, "velocity": 117}, {"time": 15481, "pitch": 38, "duration": 10, "velocity": 117}, {"time": 15600, "pitch": 41, "duration": 10, "velocity": 90}, {"time": 15617, "pitch": 41, "duration": 10, "velocity": 127}, {"time": 15837, "pitch": 36, "duration": 10, "velocity": 117}, {"time": 15837, "pitch": 42, "duration": 10, "velocity": 113}, {"time": 15837, "pitch": 57, "duration": 10, "velocity": 127}, {"time": 15837, "pitch": 64, "duration": 10, "velocity": 107}, {"time": 15957, "pitch": 42, "duration": 10, "velocity": 98}, {"time": 15957, "pitch": 64, "duration": 10, "velocity": 107}, {"time": 16077, "pitch": 42, "duration": 10, "velocity": 93}, {"time": 16077, "pitch": 60, "duration": 10, "velocity": 107}, {"time": 16318, "pitch": 38, "duration": 10, "velocity": 117}, {"time": 16318, "pitch": 42, "duration": 10, "velocity": 123}, {"time": 16318, "pitch": 62, "duration": 10, "velocity": 107}, {"time": 16438, "pitch": 62, "duration": 10, "velocity": 107}, {"time": 16559, "pitch": 36, "duration": 10, "velocity": 117}, {"time": 16559, "pitch": 42, "duration": 10, "velocity": 102}, {"time": 16559, "pitch": 61, "duration": 10, "velocity": 107}, {"time": 16679, "pitch": 42, "duration": 10, "velocity": 127}, {"time": 16679, "pitch": 64, "duration": 10, "velocity": 107}, {"time": 16799, "pitch": 36, "duration": 10, "velocity": 117}, {"time": 16799, "pitch": 42, "duration": 10, "velocity": 117}, {"time": 16920, "pitch": 64, "duration": 10, "velocity": 107}, {"time": 17040, "pitch": 42, "duration": 10, "velocity": 127}, {"time": 17040, "pitch": 60, "duration": 10, "velocity": 107}, {"time": 17281, "pitch": 38, "duration": 10, "velocity": 117}, {"time": 17281, "pitch": 42, "duration": 10, "velocity": 127}, {"time": 17281, "pitch": 62, "duration": 10, "velocity": 107}, {"time": 17401, "pitch": 62, "duration": 10, "velocity": 107}, {"time": 17521, "pitch": 46, "duration": 10, "velocity": 127}, {"time": 17521, "pitch": 61, "duration": 10, "velocity": 107}, {"time": 17762, "pitch": 36, "duration": 10, "velocity": 117}, {"time": 17762, "pitch": 42, "duration": 10, "velocity": 117}, {"time": 17762, "pitch": 64, "duration": 10, "velocity": 107}, {"time": 17882, "pitch": 64, "duration": 10, "velocity": 107}, {"time": 18003, "pitch": 42, "duration": 10, "velocity": 119}, {"time": 18003, "pitch": 60, "duration": 10, "velocity": 107}, {"time": 18243, "pitch": 38, "duration": 10, "velocity": 117}, {"time": 18243, "pitch": 42, "duration": 10, "velocity": 117}, {"time": 18243, "pitch": 62, "duration": 10, "velocity": 107}, {"time": 18362, "pitch": 62, "duration": 10, "velocity": 107}, {"time": 18480, "pitch": 36, "duration": 10, "velocity": 117}, {"time": 18480, "pitch": 42, "duration": 10, "velocity": 125}, {"time": 18480, "pitch": 61, "duration": 10, "velocity": 107}, {"time": 18599, "pitch": 42, "duration": 10, "velocity": 127}, {"time": 18599, "pitch": 64, "duration": 10, "velocity": 107}, {"time": 18717, "pitch": 36, "duration": 10, "velocity": 117}, {"time": 18717, "pitch": 42, "duration": 10, "velocity": 99}, {"time": 18838, "pitch": 64, "duration": 10, "velocity": 107}, {"time": 18958, "pitch": 42, "duration": 10, "velocity": 127}, {"time": 18958, "pitch": 60, "duration": 10, "velocity": 107}, {"time": 19199, "pitch": 38, "duration": 10, "velocity": 117}, {"time": 19199, "pitch": 42, "duration": 10, "velocity": 118}, {"time": 19199, "pitch": 62, "duration": 10, "velocity": 107}, {"time": 19319, "pitch": 62, "duration": 10, "velocity": 107}, {"time": 19439, "pitch": 36, "duration": 10, "velocity": 117}, {"time": 19439, "pitch": 46, "duration": 10, "velocity": 127}, {"time": 19439, "pitch": 63, "duration": 10, "velocity": 107}, {"time": 19680, "pitch": 36, "duration": 10, "velocity": 117}, {"time": 19680, "pitch": 42, "duration": 10, "velocity": 110}, {"time": 19680, "pitch": 64, "duration": 10, "velocity": 107}, {"time": 19800, "pitch": 64, "duration": 10, "velocity": 107}, {"time": 19921, "pitch": 42, "duration": 10, "velocity": 127}, {"time": 19921, "pitch": 60, "duration": 10, "velocity": 107}, {"time": 20161, "pitch": 38, "duration": 10, "velocity": 117}, {"time": 20161, "pitch": 42, "duration": 10, "velocity": 95}, {"time": 20161, "pitch": 62, "duration": 10, "velocity": 107}, {"time": 20282, "pitch": 62, "duration": 10, "velocity": 107}, {"time": 20402, "pitch": 36, "duration": 10, "velocity": 117}, {"time": 20402, "pitch": 42, "duration": 10, "velocity": 121}, {"time": 20402, "pitch": 61, "duration": 10, "velocity": 107}, {"time": 20522, "pitch": 42, "duration": 10, "velocity": 119}, {"time": 20522, "pitch": 64, "duration": 10, "velocity": 107}, {"time": 20643, "pitch": 36, "duration": 9, "velocity": 117}, {"time": 20643, "pitch": 42, "duration": 9, "velocity": 111}, {"time": 20761, "pitch": 64, "duration": 10, "velocity": 107}, {"time": 20880, "pitch": 42, "duration": 10, "velocity": 124}, {"time": 20880, "pitch": 60, "duration": 10, "velocity": 107}, {"time": 21117, "pitch": 38, "duration": 10, "velocity": 117}, {"time": 21117, "pitch": 42, "duration": 10, "velocity": 127}, {"time": 21117, "pitch": 62, "duration": 10, "velocity": 107}, {"time": 21237, "pitch": 62, "duration": 10, "velocity": 107}, {"time": 21357, "pitch": 36, "duration": 10, "velocity": 117}, {"time": 21357, "pitch": 46, "duration": 10, "velocity": 127}, {"time": 21357, "pitch": 63, "duration": 10, "velocity": 107}, {"time": 21598, "pitch": 36, "duration": 10, "velocity": 117}, {"time": 21598, "pitch": 42, "duration": 10, "velocity": 127}, {"time": 21598, "pitch": 64, "duration": 10, "velocity": 107}, {"time": 21718, "pitch": 64, "duration": 10, "velocity": 107}, {"time": 21839, "pitch": 46, "duration": 10, "velocity": 127}, {"time": 21839, "pitch": 60, "duration": 10, "velocity": 107}, {"time": 22079, "pitch": 38, "duration": 10, "velocity": 117}, {"time": 22079, "pitch": 42, "duration": 10, "velocity": 127}, {"time": 22079, "pitch": 62, "duration": 10, "velocity": 107}, {"time": 22320, "pitch": 36, "duration": 10, "velocity": 117}, {"time": 22320, "pitch": 42, "duration": 10, "velocity": 116}, {"time": 22320, "pitch": 61, "duration": 10, "velocity": 107}, {"time": 22440, "pitch": 42, "duration": 10, "velocity": 124}, {"time": 22440, "pitch": 64, "duration": 10, "velocity": 107}, {"time": 22561, "pitch": 36, "duration": 10, "velocity": 117}, {"time": 22561, "pitch": 42, "duration": 10, "velocity": 112}, {"time": 22681, "pitch": 64, "duration": 10, "velocity": 107}, {"time": 22801, "pitch": 38, "duration": 10, "velocity": 117}, {"time": 22801, "pitch": 39, "duration": 10, "velocity": 127}, {"time": 22801, "pitch": 42, "duration": 10, "velocity": 127}, {"time": 22801, "pitch": 60, "duration": 10, "velocity": 107}, {"time": 22922, "pitch": 62, "duration": 10, "velocity": 107}, {"time": 23042, "pitch": 38, "duration": 10, "velocity": 31}, {"time": 23042, "pitch": 42, "duration": 10, "velocity": 108}, {"time": 23042, "pitch": 62, "duration": 10, "velocity": 107}, {"time": 23093, "pitch": 38, "duration": 10, "velocity": 38}, {"time": 23159, "pitch": 38, "duration": 10, "velocity": 55}, {"time": 23210, "pitch": 38, "duration": 10, "velocity": 74}, {"time": 23283, "pitch": 38, "duration": 10, "velocity": 117}, {"time": 23283, "pitch": 39, "duration": 10, "velocity": 127}, {"time": 23283, "pitch": 42, "duration": 10, "velocity": 127}, {"time": 23283, "pitch": 63, "duration": 10, "velocity": 107}, {"time": 23403, "pitch": 38, "duration": 10, "velocity": 117}, {"time": 23403, "pitch": 39, "duration": 10, "velocity": 127}, {"time": 23523, "pitch": 36, "duration": 10, "velocity": 117}, {"time": 23523, "pitch": 42, "duration": 10, "velocity": 113}, {"time": 23523, "pitch": 57, "duration": 10, "velocity": 127}, {"time": 23523, "pitch": 64, "duration": 10, "velocity": 107}, {"time": 23642, "pitch": 42, "duration": 10, "velocity": 98}, {"time": 23642, "pitch": 64, "duration": 10, "velocity": 107}, {"time": 23760, "pitch": 42, "duration": 10, "velocity": 93}, {"time": 23760, "pitch": 60, "duration": 10, "velocity": 107}, {"time": 23997, "pitch": 38, "duration": 10, "velocity": 117}, {"time": 23997, "pitch": 42, "duration": 10, "velocity": 123}, {"time": 23997, "pitch": 62, "duration": 10, "velocity": 107}, {"time": 24118, "pitch": 62, "duration": 10, "velocity": 107}, {"time": 24238, "pitch": 36, "duration": 10, "velocity": 117}, {"time": 24238, "pitch": 42, "duration": 10, "velocity": 102}, {"time": 24238, "pitch": 61, "duration": 10, "velocity": 107}, {"time": 24358, "pitch": 42, "duration": 10, "velocity": 127}, {"time": 24358, "pitch": 64, "duration": 10, "velocity": 107}, {"time": 24479, "pitch": 36, "duration": 10, "velocity": 117}, {"time": 24479, "pitch": 42, "duration": 10, "velocity": 117}, {"time": 24599, "pitch": 64, "duration": 10, "velocity": 107}, {"time": 24719, "pitch": 42, "duration": 10, "velocity": 127}, {"time": 24719, "pitch": 60, "duration": 10, "velocity": 107}, {"time": 24960, "pitch": 38, "duration": 10, "velocity": 117}, {"time": 24960, "pitch": 42, "duration": 10, "velocity": 127}, {"time": 24960, "pitch": 62, "duration": 10, "velocity": 107}, {"time": 25080, "pitch": 62, "duration": 10, "velocity": 107}, {"time": 25201, "pitch": 46, "duration": 10, "velocity": 127}, {"time": 25201, "pitch": 61, "duration": 10, "velocity": 107}, {"time": 25441, "pitch": 36, "duration": 10, "velocity": 117}, {"time": 25441, "pitch": 42, "duration": 10, "velocity": 117}, {"time": 25441, "pitch": 64, "duration": 10, "velocity": 107}, {"time": 25562, "pitch": 64, "duration": 10, "velocity": 107}, {"time": 25682, "pitch": 42, "duration": 10, "velocity": 119}, {"time": 25682, "pitch": 60, "duration": 10, "velocity": 107}, {"time": 25923, "pitch": 38, "duration": 9, "velocity": 117}, {"time": 25923, "pitch": 42, "duration": 9, "velocity": 117}, {"time": 25923, "pitch": 62, "duration": 9, "velocity": 107}, {"time": 26041, "pitch": 62, "duration": 10, "velocity": 107}, {"time": 26160, "pitch": 36, "duration": 10, "velocity": 117}, {"time": 26160, "pitch": 42, "duration": 10, "velocity": 125}, {"time": 26160, "pitch": 61, "duration": 10, "velocity": 107}, {"time": 26278, "pitch": 42, "duration": 10, "velocity": 127}, {"time": 26278, "pitch": 64, "duration": 10, "velocity": 107}, {"time": 26397, "pitch": 36, "duration": 10, "velocity": 117}, {"time": 26397, "pitch": 42, "duration": 10, "velocity": 99}, {"time": 26517, "pitch": 64, "duration": 10, "velocity": 107}, {"time": 26637, "pitch": 42, "duration": 10, "velocity": 127}, {"time": 26637, "pitch": 60, "duration": 10, "velocity": 107}, {"time": 26878, "pitch": 38, "duration": 10, "velocity": 117}, {"time": 26878, "pitch": 42, "duration": 10, "velocity": 118}, {"time": 26878, "pitch": 62, "duration": 10, "velocity": 107}, {"time": 26998, "pitch": 62, "duration": 10, "velocity": 107}, {"time": 27119, "pitch": 36, "duration": 10, "velocity": 117}, {"time": 27119, "pitch": 46, "duration": 10, "velocity": 127}, {"time": 27119, "pitch": 63, "duration": 10, "velocity": 107}, {"time": 27359, "pitch": 36, "duration": 10, "velocity": 117}, {"time": 27359, "pitch": 42, "duration": 10, "velocity": 110}, {"time": 27359, "pitch": 64, "duration": 10, "velocity": 107}, {"time": 27480, "pitch": 64, "duration": 10, "velocity": 107}, {"time": 27600, "pitch": 42, "duration": 10, "velocity": 127}, {"time": 27600, "pitch": 60, "duration": 10, "velocity": 107}, {"time": 27841, "pitch": 38, "duration": 10, "velocity": 117}, {"time": 27841, "pitch": 42, "duration": 10, "velocity": 95}, {"time": 27841, "pitch": 62, "duration": 10, "velocity": 107}, {"time": 27961, "pitch": 62, "duration": 10, "velocity": 107}, {"time": 28081, "pitch": 36, "duration": 10, "velocity": 117}, {"time": 28081, "pitch": 42, "duration": 10, "velocity": 121}, {"time": 28081, "pitch": 61, "duration": 10, "velocity": 107}, {"time": 28202, "pitch": 42, "duration": 10, "velocity": 119}, {"time": 28202, "pitch": 64, "duration": 10, "velocity": 107}, {"time": 28322, "pitch": 36, "duration": 10, "velocity": 117}, {"time": 28322, "pitch": 42, "duration": 10, "velocity": 111}, {"time": 28442, "pitch": 64, "duration": 10, "velocity": 107}, {"time": 28563, "pitch": 42, "duration": 10, "velocity": 124}, {"time": 28563, "pitch": 60, "duration": 10, "velocity": 107}, {"time": 28803, "pitch": 38, "duration": 10, "velocity": 117}, {"time": 28803, "pitch": 42, "duration": 10, "velocity": 127}, {"time": 28803, "pitch": 62, "duration": 10, "velocity": 107}, {"time": 28922, "pitch": 62, "duration": 10, "velocity": 107}, {"time": 29040, "pitch": 36, "duration": 10, "velocity": 117}, {"time": 29040, "pitch": 46, "duration": 10, "velocity": 127}, {"time": 29040, "pitch": 63, "duration": 10, "velocity": 107}, {"time": 29277, "pitch": 36, "duration": 10, "velocity": 117}, {"time": 29277, "pitch": 42, "duration": 10, "velocity": 127}, {"time": 29277, "pitch": 64, "duration": 10, "velocity": 107}, {"time": 29398, "pitch": 64, "duration": 10, "velocity": 107}, {"time": 29518, "pitch": 46, "duration": 10, "velocity": 127}, {"time": 29518, "pitch": 60, "duration": 10, "velocity": 107}, {"time": 29759, "pitch": 38, "duration": 10, "velocity": 117}, {"time": 29759, "pitch": 42, "duration": 10, "velocity": 127}, {"time": 29759, "pitch": 62, "duration": 10, "velocity": 107}, {"time": 29999, "pitch": 36, "duration": 10, "velocity": 117}, {"time": 29999, "pitch": 42, "duration": 10, "velocity": 116}, {"time": 29999, "pitch": 61, "duration": 10, "velocity": 107}, {"time": 30120, "pitch": 42, "duration": 10, "velocity": 124}, {"time": 30120, "pitch": 64, "duration": 10, "velocity": 107}, {"time": 30240, "pitch": 36, "duration": 10, "velocity": 117}, {"time": 30240, "pitch": 42, "duration": 10, "velocity": 112}, {"time": 30360, "pitch": 64, "duration": 10, "velocity": 107}, {"time": 30481, "pitch": 38, "duration": 10, "velocity": 117}, {"time": 30481, "pitch": 39, "duration": 10, "velocity": 127}, {"time": 30481, "pitch": 42, "duration": 10, "velocity": 127}, {"time": 30481, "pitch": 60, "duration": 10, "velocity": 107}, {"time": 30601, "pitch": 62, "duration": 10, "velocity": 107}, {"time": 30721, "pitch": 38, "duration": 10, "velocity": 31}, {"time": 30721, "pitch": 42, "duration": 10, "velocity": 108}, {"time": 30721, "pitch": 62, "duration": 10, "velocity": 107}, {"time": 30772, "pitch": 38, "duration": 10, "velocity": 38}, {"time": 30839, "pitch": 38, "duration": 10, "velocity": 55}, {"time": 30890, "pitch": 38, "duration": 10, "velocity": 74}, {"time": 30962, "pitch": 38, "duration": 10, "velocity": 117}, {"time": 30962, "pitch": 39, "duration": 10, "velocity": 127}, {"time": 30962, "pitch": 42, "duration": 10, "velocity": 127}, {"time": 30962, "pitch": 63, "duration": 10, "velocity": 107}, {"time": 31082, "pitch": 38, "duration": 10, "velocity": 117}, {"time": 31082, "pitch": 39, "duration": 10, "velocity": 127}, {"time": 31203, "pitch": 38, "duration": 9, "velocity": 117}, {"time": 31203, "pitch": 42, "duration": 9, "velocity": 117}, {"time": 31203, "pitch": 43, "duration": 9, "velocity": 90}, {"time": 31203, "pitch": 64, "duration": 9, "velocity": 107}, {"time": 31220, "pitch": 43, "duration": 10, "velocity": 127}, {"time": 31321, "pitch": 64, "duration": 10, "velocity": 107}, {"time": 31440, "pitch": 46, "duration": 10, "velocity": 118}, {"time": 31440, "pitch": 60, "duration": 10, "velocity": 107}, {"time": 31558, "pitch": 38, "duration": 10, "velocity": 117}, {"time": 31558, "pitch": 43, "duration": 10, "velocity": 90}, {"time": 31558, "pitch": 62, "duration": 10, "velocity": 107}, {"time": 31576, "pitch": 43, "duration": 10, "velocity": 127}, {"time": 31677, "pitch": 42, "duration": 10, "velocity": 112}, {"time": 31797, "pitch": 62, "duration": 10, "velocity": 107}, {"time": 31917, "pitch": 38, "duration": 10, "velocity": 117}, {"time": 31917, "pitch": 42, "duration": 10, "velocity": 127}, {"time": 31917, "pitch": 43, "duration": 10, "velocity": 90}, {"time": 31917, "pitch": 61, "duration": 10, "velocity": 107}, {"time": 31938, "pitch": 43, "duration": 11, "velocity": 127}, {"time": 32158, "pitch": 48, "duration": 10, "velocity": 100}, {"time": 32173, "pitch": 48, "duration": 10, "velocity": 127}, {"time": 32399, "pitch": 38, "duration": 10, "velocity": 37}, {"time": 32453, "pitch": 38, "duration": 10, "velocity": 46}, {"time": 32519, "pitch": 38, "duration": 10, "velocity": 65}, {"time": 32573, "pitch": 38, "duration": 10, "velocity": 88}, {"time": 32639, "pitch": 38, "duration": 10, "velocity": 117}, {"time": 32760, "pitch": 38, "duration": 10, "velocity": 117}, {"time": 32880, "pitch": 45, "duration": 10, "velocity": 100}, {"time": 32895, "pitch": 45, "duration": 10, "velocity": 127}, {"time": 33121, "pitch": 36, "duration": 10, "velocity": 117}, {"time": 33121, "pitch": 42, "duration": 10, "velocity": 120}, {"time": 33121, "pitch": 60, "duration": 10, "velocity": 75}, {"time": 33241, "pitch": 42, "duration": 10, "velocity": 99}, {"time": 33361, "pitch": 46, "duration": 10, "velocity": 124}, {"time": 33361, "pitch": 64, "duration": 10, "velocity": 89}, {"time": 33482, "pitch": 64, "duration": 10, "velocity": 87}, {"time": 33602, "pitch": 38, "duration": 10, "velocity": 117}, {"time": 33602, "pitch": 42, "duration": 10, "velocity": 127}, {"time": 33602, "pitch": 61, "duration": 10, "velocity": 70}, {"time": 33843, "pitch": 42, "duration": 10, "velocity": 90}, {"time": 33843, "pitch": 62, "duration": 10, "velocity": 83}, {"time": 33963, "pitch": 42, "duration": 10, "velocity": 108}, {"time": 33963, "pitch": 62, "duration": 10, "velocity": 66}, {"time": 34083, "pitch": 36, "duration": 10, "velocity": 117}, {"time": 34083, "pitch": 42, "duration": 10, "velocity": 112}, {"time": 34083, "pitch": 60, "duration": 10, "velocity": 78}, {"time": 34202, "pitch": 64, "duration": 10, "velocity": 89}, {"time": 34320, "pitch": 42, "duration": 10, "velocity": 117}, {"time": 34439, "pitch": 42, "duration": 10, "velocity": 84}, {"time": 34439, "pitch": 64, "duration": 10, "velocity": 98}, {"time": 34557, "pitch": 38, "duration": 10, "velocity": 117}, {"time": 34557, "pitch": 42, "duration": 10, "velocity": 110}, {"time": 34557, "pitch": 61, "duration": 10, "velocity": 80}, {"time": 34798, "pitch": 36, "duration": 10, "velocity": 117}, {"time": 34798, "pitch": 42, "duration": 10, "velocity": 114}, {"time": 34798, "pitch": 62, "duration": 10, "velocity": 71}, {"time": 34918, "pitch": 42, "duration": 10, "velocity": 104}, {"time": 34918, "pitch": 62, "duration": 10, "velocity": 68}, {"time": 35039, "pitch": 36, "duration": 10, "velocity": 117}, {"time": 35039, "pitch": 42, "duration": 10, "velocity": 124}, {"time": 35039, "pitch": 60, "duration": 10, "velocity": 80}, {"time": 35159, "pitch": 42, "duration": 10, "velocity": 127}, {"time": 35279, "pitch": 46, "duration": 10, "velocity": 125}, {"time": 35279, "pitch": 64, "duration": 10, "velocity": 82}, {"time": 35400, "pitch": 36, "duration": 10, "velocity": 117}, {"time": 35400, "pitch": 64, "duration": 10, "velocity": 80}, {"time": 35520, "pitch": 38, "duration": 10, "velocity": 117}, {"time": 35520, "pitch": 42, "duration": 10, "velocity": 127}, {"time": 35520, "pitch": 61, "duration": 10, "velocity": 78}, {"time": 35761, "pitch": 36, "duration": 10, "velocity": 117}, {"time": 35761, "pitch": 42, "duration": 10, "velocity": 104}, {"time": 35761, "pitch": 62, "duration": 10, "velocity": 66}, {"time": 35881, "pitch": 42, "duration": 10, "velocity": 104}, {"time": 35881, "pitch": 62, "duration": 10, "velocity": 68}, {"time": 36001, "pitch": 36, "duration": 10, "velocity": 117}, {"time": 36001, "pitch": 42, "duration": 10, "velocity": 88}, {"time": 36001, "pitch": 60, "duration": 10, "velocity": 77}, {"time": 36122, "pitch": 42, "duration": 10, "velocity": 127}, {"time": 36122, "pitch": 64, "duration": 10, "velocity": 96}, {"time": 36242, "pitch": 42, "duration": 10, "velocity": 105}, {"time": 36362, "pitch": 64, "duration": 10, "velocity": 104}, {"time": 36483, "pitch": 38, "duration": 9, "velocity": 117}, {"time": 36483, "pitch": 42, "duration": 9, "velocity": 127}, {"time": 36483, "pitch": 63, "duration": 9, "velocity": 73}, {"time": 36601, "pitch": 64, "duration": 10, "velocity": 67}, {"time": 36720, "pitch": 42, "duration": 10, "velocity": 93}, {"time": 36838, "pitch": 42, "duration": 10, "velocity": 120}, {"time": 36838, "pitch": 64, "duration": 10, "velocity": 97}, {"time": 36957, "pitch": 36, "duration": 10, "velocity": 117}, {"time": 36957, "pitch": 42, "duration": 10, "velocity": 122}, {"time": 36957, "pitch": 60, "duration": 10, "velocity": 80}, {"time": 37077, "pitch": 42, "duration": 10, "velocity": 127}, {"time": 37197, "pitch": 46, "duration": 10, "velocity": 118}, {"time": 37197, "pitch": 62, "duration": 10, "velocity": 78}, {"time": 37318, "pitch": 62, "duration": 10, "velocity": 68}, {"time": 37438, "pitch": 38, "duration": 10, "velocity": 117}, {"time": 37438, "pitch": 42, "duration": 10, "velocity": 127}, {"time": 37438, "pitch": 61, "duration": 10, "velocity": 63}, {"time": 37679, "pitch": 36, "duration": 10, "velocity": 117}, {"time": 37679, "pitch": 42, "duration": 10, "velocity": 76}, {"time": 37679, "pitch": 64, "duration": 10, "velocity": 31}, {"time": 37799, "pitch": 42, "duration": 10, "velocity": 86}, {"time": 37799, "pitch": 64, "duration": 10, "velocity": 84}, {"time": 37919, "pitch": 36, "duration": 10, "velocity": 117}, {"time": 37919, "pitch": 42, "duration": 10, "velocity": 106}, {"time": 37919, "pitch": 60, "duration": 10, "velocity": 83}, {"time": 38040, "pitch": 42, "duration": 10, "velocity": 127}, {"time": 38160, "pitch": 42, "duration": 10, "velocity": 127}, {"time": 38160, "pitch": 62, "duration": 10, "velocity": 62}, {"time": 38280, "pitch": 62, "duration": 10, "velocity": 71}, {"time": 38401, "pitch": 38, "duration": 10, "velocity": 117}, {"time": 38401, "pitch": 42, "duration": 10, "velocity": 127}, {"time": 38401, "pitch": 61, "duration": 10, "velocity": 71}, {"time": 38521, "pitch": 64, "duration": 10, "velocity": 84}, {"time": 38641, "pitch": 42, "duration": 10, "velocity": 95}, {"time": 38762, "pitch": 42, "duration": 10, "velocity": 123}, {"time": 38762, "pitch": 64, "duration": 10, "velocity": 91}, {"time": 38882, "pitch": 36, "duration": 10, "velocity": 117}, {"time": 38882, "pitch": 42, "duration": 10, "velocity": 114}, {"time": 38882, "pitch": 60, "duration": 10, "velocity": 80}, {"time": 39002, "pitch": 42, "duration": 10, "velocity": 127}, {"time": 39123, "pitch": 46, "duration": 10, "velocity": 120}, {"time": 39123, "pitch": 62, "duration": 10, "velocity": 63}, {"time": 39243, "pitch": 36, "duration": 10, "velocity": 117}, {"time": 39243, "pitch": 62, "duration": 10, "velocity": 72}, {"time": 39363, "pitch": 38, "duration": 10, "velocity": 117}, {"time": 39363, "pitch": 42, "duration": 10, "velocity": 127}, {"time": 39363, "pitch": 61, "duration": 10, "velocity": 74}, {"time": 39600, "pitch": 36, "duration": 10, "velocity": 117}, {"time": 39600, "pitch": 46, "duration": 10, "velocity": 112}, {"time": 39600, "pitch": 64, "duration": 10, "velocity": 80}, {"time": 39719, "pitch": 64, "duration": 10, "velocity": 78}, {"time": 39837, "pitch": 36, "duration": 10, "velocity": 117}, {"time": 39837, "pitch": 42, "duration": 10, "velocity": 127}, {"time": 39837, "pitch": 60, "duration": 10, "velocity": 76}, {"time": 39843, "pitch": 38, "duration": 10, "velocity": 38}, {"time": 39895, "pitch": 38, "duration": 10, "velocity": 46}, {"time": 39955, "pitch": 38, "duration": 10, "velocity": 61}, {"time": 40006, "pitch": 38, "duration": 10, "velocity": 78}, {"time": 40078, "pitch": 38, "duration": 10, "velocity": 90}, {"time": 40078, "pitch": 46, "duration": 10, "velocity": 119}, {"time": 40078, "pitch": 62, "duration": 10, "velocity": 67}, {"time": 40090, "pitch": 38, "duration": 10, "velocity": 117}, {"time": 40198, "pitch": 62, "duration": 10, "velocity": 77}, {"time": 40319, "pitch": 38, "duration": 10, "velocity": 117}, {"time": 40319, "pitch": 42, "duration": 10, "velocity": 118}, {"time": 40319, "pitch": 63, "duration": 10, "velocity": 66}, {"time": 40439, "pitch": 38, "duration": 10, "velocity": 117}, {"time": 40439, "pitch": 42, "duration": 10, "velocity": 104}, {"time": 40439, "pitch": 64, "duration": 10, "velocity": 97}, {"time": 40559, "pitch": 41, "duration": 10, "velocity": 100}, {"time": 40559, "pitch": 42, "duration": 10, "velocity": 86}, {"time": 40574, "pitch": 41, "duration": 10, "velocity": 127}, {"time": 40680, "pitch": 64, "duration": 10, "velocity": 93}, {"time": 40800, "pitch": 36, "duration": 10, "velocity": 117}, {"time": 40800, "pitch": 42, "duration": 10, "velocity": 118}, {"time": 40800, "pitch": 55, "duration": 10, "velocity": 127}, {"time": 40800, "pitch": 60, "duration": 10, "velocity": 75}, {"time": 41041, "pitch": 42, "duration": 10, "velocity": 110}, {"time": 41041, "pitch": 64, "duration": 10, "velocity": 89}, {"time": 41161, "pitch": 42, "duration": 10, "velocity": 127}, {"time": 41161, "pitch": 64, "duration": 10, "velocity": 87}, {"time": 41281, "pitch": 38, "duration": 10, "velocity": 117}, {"time": 41281, "pitch": 42, "duration": 10, "velocity": 117}, {"time": 41281, "pitch": 57, "duration": 10, "velocity": 127}, {"time": 41281, "pitch": 61, "duration": 10, "velocity": 70}, {"time": 41522, "pitch": 36, "duration": 10, "velocity": 117}, {"time": 41522, "pitch": 42, "duration": 10, "velocity": 106}, {"time": 41522, "pitch": 62, "duration": 10, "velocity": 83}, {"time": 41642, "pitch": 42, "duration": 10, "velocity": 126}, {"time": 41642, "pitch": 62, "duration": 10, "velocity": 66}, {"time": 41763, "pitch": 36, "duration": 9, "velocity": 117}, {"time": 41763, "pitch": 42, "duration": 9, "velocity": 114}, {"time": 41763, "pitch": 60, "duration": 9, "velocity": 78}, {"time": 41881, "pitch": 42, "duration": 10, "velocity": 127}, {"time": 41881, "pitch": 64, "duration": 10, "velocity": 89}, {"time": 42000, "pitch": 46, "duration": 10, "velocity": 116}, {"time": 42118, "pitch": 64, "duration": 10, "velocity": 98}, {"time": 42237, "pitch": 38, "duration": 10, "velocity": 117}, {"time": 42237, "pitch": 42, "duration": 10, "velocity": 115}, {"time": 42237, "pitch": 61, "duration": 10, "velocity": 80}, {"time": 42477, "pitch": 42, "duration": 10, "velocity": 106}, {"time": 42477, "pitch": 62, "duration": 10, "velocity": 71}, {"time": 42598, "pitch": 42, "duration": 10, "velocity": 117}, {"time": 42598, "pitch": 62, "duration": 10, "velocity": 68}, {"time": 42718, "pitch": 36, "duration": 10, "velocity": 117}, {"time": 42718, "pitch": 42, "duration": 10, "velocity": 94}, {"time": 42718, "pitch": 60, "duration": 10, "velocity": 80}, {"time": 42959, "pitch": 42, "duration": 10, "velocity": 113}, {"time": 42959, "pitch": 64, "duration": 10, "velocity": 82}, {"time": 43079, "pitch": 36, "duration": 10, "velocity": 117}, {"time": 43079, "pitch": 42, "duration": 10, "velocity": 127}, {"time": 43079, "pitch": 64, "duration": 10, "velocity": 80}, {"time": 43199, "pitch": 38, "duration": 10, "velocity": 117}, {"time": 43199, "pitch": 46, "duration": 10, "velocity": 116}, {"time": 43199, "pitch": 61, "duration": 10, "velocity": 78}, {"time": 43320, "pitch": 36, "duration": 10, "velocity": 117}, {"time": 43440, "pitch": 42, "duration": 10, "velocity": 111}, {"time": 43440, "pitch": 62, "duration": 10, "velocity": 66}, {"time": 43560, "pitch": 36, "duration": 10, "velocity": 117}, {"time": 43560, "pitch": 42, "duration": 10, "velocity": 119}, {"time": 43560, "pitch": 62, "duration": 10, "velocity": 68}, {"time": 43681, "pitch": 36, "duration": 10, "velocity": 117}, {"time": 43681, "pitch": 42, "duration": 10, "velocity": 97}, {"time": 43681, "pitch": 60, "duration": 10, "velocity": 77}, {"time": 43801, "pitch": 42, "duration": 10, "velocity": 99}, {"time": 43801, "pitch": 64, "duration": 10, "velocity": 96}, {"time": 43921, "pitch": 42, "duration": 10, "velocity": 106}, {"time": 44042, "pitch": 36, "duration": 10, "velocity": 117}, {"time": 44042, "pitch": 42, "duration": 10, "velocity": 127}, {"time": 44042, "pitch": 64, "duration": 10, "velocity": 104}, {"time": 44162, "pitch": 38, "duration": 10, "velocity": 117}, {"time": 44162, "pitch": 63, "duration": 10, "velocity": 73}, {"time": 44282, "pitch": 42, "duration": 10, "velocity": 118}, {"time": 44282, "pitch": 64, "duration": 10, "velocity": 67}, {"time": 44403, "pitch": 36, "duration": 10, "velocity": 117}, {"time": 44403, "pitch": 46, "duration": 10, "velocity": 124}, {"time": 44523, "pitch": 64, "duration": 10, "velocity": 97}, {"time": 44643, "pitch": 36, "duration": 10, "velocity": 117}, {"time": 44643, "pitch": 42, "duration": 10, "velocity": 124}, {"time": 44643, "pitch": 60, "duration": 10, "velocity": 80}, {"time": 44880, "pitch": 42, "duration": 10, "velocity": 104}, {"time": 44880, "pitch": 62, "duration": 10, "velocity": 78}, {"time": 44999, "pitch": 42, "duration": 10, "velocity": 127}, {"time": 44999, "pitch": 62, "duration": 10, "velocity": 68}, {"time": 45117, "pitch": 38, "duration": 10, "velocity": 117}, {"time": 45117, "pitch": 42, "duration": 10, "velocity": 117}, {"time": 45117, "pitch": 61, "duration": 10, "velocity": 63}, {"time": 45358, "pitch": 36, "duration": 10, "velocity": 117}, {"time": 45358, "pitch": 42, "duration": 10, "velocity": 110}, {"time": 45358, "pitch": 64, "duration": 10, "velocity": 31}, {"time": 45478, "pitch": 42, "duration": 10, "velocity": 127}, {"time": 45478, "pitch": 64, "duration": 10, "velocity": 84}, {"time": 45599, "pitch": 36, "duration": 10, "velocity": 117}, {"time": 45599, "pitch": 42, "duration": 10, "velocity": 107}, {"time": 45599, "pitch": 60, "duration": 10, "velocity": 83}, {"time": 45719, "pitch": 42, "duration": 10, "velocity": 127}, {"time": 45839, "pitch": 46, "duration": 10, "velocity": 114}, {"time": 45839, "pitch": 62, "duration": 10, "velocity": 62}, {"time": 45960, "pitch": 62, "duration": 10, "velocity": 71}, {"time": 46080, "pitch": 38, "duration": 10, "velocity": 117}, {"time": 46080, "pitch": 42, "duration": 10, "velocity": 127}, {"time": 46080, "pitch": 61, "duration": 10, "velocity": 71}, {"time": 46200, "pitch": 64, "duration": 10, "velocity": 84}, {"time": 46321, "pitch": 36, "duration": 10, "velocity": 117}, {"time": 46321, "pitch": 42, "duration": 10, "velocity": 78}, {"time": 46441, "pitch": 42, "duration": 10, "velocity": 127}, {"time": 46441, "pitch": 64, "duration": 10, "velocity": 91}, {"time": 46561, "pitch": 36, "duration": 10, "velocity": 117}, {"time": 46561, "pitch": 42, "duration": 10, "velocity": 88}, {"time": 46561, "pitch": 60, "duration": 10, "velocity": 80}, {"time": 46682, "pitch": 42, "duration": 10, "velocity": 127}, {"time": 46802, "pitch": 46, "duration": 10, "velocity": 120}, {"time": 46802, "pitch": 62, "duration": 10, "velocity": 63}, {"time": 46922, "pitch": 36, "duration": 10, "velocity": 117}, {"time": 46922, "pitch": 62, "duration": 10, "velocity": 72}, {"time": 47043, "pitch": 38, "duration": 9, "velocity": 117}, {"time": 47043, "pitch": 42, "duration": 9, "velocity": 127}, {"time": 47043, "pitch": 61, "duration": 9, "velocity": 74}, {"time": 47161, "pitch": 36, "duration": 10, "velocity": 117}, {"time": 47280, "pitch": 46, "duration": 10, "velocity": 116}, {"time": 47280, "pitch": 64, "duration": 10, "velocity": 80}, {"time": 47398, "pitch": 36, "duration": 10, "velocity": 117}, {"time": 47398, "pitch": 64, "duration": 10, "velocity": 78}, {"time": 47517, "pitch": 36, "duration": 10, "velocity": 117}, {"time": 47517, "pitch": 42, "duration": 10, "velocity": 127}, {"time": 47517, "pitch": 60, "duration": 10, "velocity": 76}, {"time": 47523, "pitch": 38, "duration": 10, "velocity": 38}, {"time": 47574, "pitch": 38, "duration": 10, "velocity": 46}, {"time": 47634, "pitch": 38, "duration": 10, "velocity": 61}, {"time": 47685, "pitch": 38, "duration": 10, "velocity": 78}, {"time": 47757, "pitch": 38, "duration": 10, "velocity": 90}, {"time": 47757, "pitch": 46, "duration": 10, "velocity": 119}, {"time": 47757, "pitch": 62, "duration": 10, "velocity": 67}, {"time": 47769, "pitch": 38, "duration": 10, "velocity": 117}, {"time": 47878, "pitch": 62, "duration": 10, "velocity": 77}, {"time": 47998, "pitch": 38, "duration": 10, "velocity": 117}, {"time": 47998, "pitch": 42, "duration": 10, "velocity": 118}, {"time": 47998, "pitch": 63, "duration": 10, "velocity": 66}, {"time": 48118, "pitch": 38, "duration": 10, "velocity": 117}, {"time": 48118, "pitch": 42, "duration": 10, "velocity": 104}, {"time": 48118, "pitch": 64, "duration": 10, "velocity": 97}, {"time": 48239, "pitch": 41, "duration": 10, "velocity": 100}, {"time": 48239, "pitch": 42, "duration": 10, "velocity": 86}, {"time": 48254, "pitch": 41, "duration": 10, "velocity": 127}, {"time": 48359, "pitch": 64, "duration": 10, "velocity": 93}, {"time": 48479, "pitch": 38, "duration": 10, "velocity": 117}, {"time": 48479, "pitch": 42, "duration": 10, "velocity": 117}, {"time": 48479, "pitch": 43, "duration": 10, "velocity": 90}, {"time": 48479, "pitch": 64, "duration": 10, "velocity": 107}, {"time": 48497, "pitch": 43, "duration": 10, "velocity": 127}, {"time": 48600, "pitch": 64, "duration": 10, "velocity": 107}, {"time": 48720, "pitch": 46, "duration": 10, "velocity": 118}, {"time": 48720, "pitch": 60, "duration": 10, "velocity": 107}, {"time": 48840, "pitch": 38, "duration": 10, "velocity": 117}, {"time": 48840, "pitch": 43, "duration": 10, "velocity": 90}, {"time": 48840, "pitch": 62, "duration": 10, "velocity": 107}, {"time": 48858, "pitch": 43, "duration": 10, "velocity": 127}, {"time": 48961, "pitch": 42, "duration": 10, "velocity": 112}, {"time": 49081, "pitch": 62, "duration": 10, "velocity": 107}, {"time": 49201, "pitch": 38, "duration": 10, "velocity": 117}, {"time": 49201, "pitch": 42, "duration": 10, "velocity": 127}, {"time": 49201, "pitch": 43, "duration": 10, "velocity": 90}, {"time": 49201, "pitch": 61, "duration": 10, "velocity": 107}, {"time": 49222, "pitch": 43, "duration": 10, "velocity": 127}, {"time": 49442, "pitch": 42, "duration": 10, "velocity": 126}, {"time": 49442, "pitch": 64, "duration": 10, "velocity": 107}, {"time": 49562, "pitch": 64, "duration": 10, "velocity": 107}, {"time": 49683, "pitch": 36, "duration": 10, "velocity": 117}, {"time": 49683, "pitch": 39, "duration": 10, "velocity": 127}, {"time": 49683, "pitch": 44, "duration": 10, "velocity": 115}, {"time": 49683, "pitch": 60, "duration": 10, "velocity": 107}, {"time": 49923, "pitch": 44, "duration": 10, "velocity": 127}, {"time": 49923, "pitch": 62, "duration": 10, "velocity": 107}, {"time": 50160, "pitch": 36, "duration": 10, "velocity": 117}, {"time": 50160, "pitch": 39, "duration": 10, "velocity": 127}, {"time": 50160, "pitch": 44, "duration": 10, "velocity": 127}, {"time": 50160, "pitch": 61, "duration": 10, "velocity": 107}, {"time": 50279, "pitch": 36, "duration": 10, "velocity": 117}, {"time": 50279, "pitch": 39, "duration": 10, "velocity": 127}, {"time": 50397, "pitch": 36, "duration": 10, "velocity": 117}, {"time": 50397, "pitch": 42, "duration": 10, "velocity": 120}, {"time": 50397, "pitch": 49, "duration": 10, "velocity": 127}, {"time": 50397, "pitch": 62, "duration": 10, "velocity": 107}, {"time": 50518, "pitch": 42, "duration": 10, "velocity": 112}, {"time": 50518, "pitch": 62, "duration": 10, "velocity": 105}, {"time": 50638, "pitch": 46, "duration": 10, "velocity": 127}, {"time": 50758, "pitch": 64, "duration": 10, "velocity": 101}, {"time": 50879, "pitch": 38, "duration": 10, "velocity": 117}, {"time": 50879, "pitch": 42, "duration": 10, "velocity": 127}, {"time": 50879, "pitch": 63, "duration": 10, "velocity": 102}, {"time": 51119, "pitch": 36, "duration": 10, "velocity": 117}, {"time": 51119, "pitch": 42, "duration": 10, "velocity": 71}, {"time": 51119, "pitch": 67, "duration": 10, "velocity": 123}, {"time": 51240, "pitch": 42, "duration": 10, "velocity": 127}, {"time": 51240, "pitch": 67, "duration": 10, "velocity": 98}, {"time": 51360, "pitch": 36, "duration": 10, "velocity": 117}, {"time": 51360, "pitch": 42, "duration": 10, "velocity": 127}, {"time": 51360, "pitch": 62, "duration": 10, "velocity": 107}, {"time": 51480, "pitch": 64, "duration": 10, "velocity": 79}, {"time": 51601, "pitch": 42, "duration": 10, "velocity": 112}, {"time": 51721, "pitch": 42, "duration": 10, "velocity": 124}, {"time": 51721, "pitch": 64, "duration": 10, "velocity": 99}, {"time": 51841, "pitch": 38, "duration": 10, "velocity": 117}, {"time": 51841, "pitch": 42, "duration": 10, "velocity": 127}, {"time": 51841, "pitch": 63, "duration": 10, "velocity": 102}, {"time": 52082, "pitch": 67, "duration": 10, "velocity": 83}, {"time": 52202, "pitch": 42, "duration": 10, "velocity": 127}, {"time": 52202, "pitch": 67, "duration": 10, "velocity": 119}, {"time": 52323, "pitch": 36, "duration": 9, "velocity": 117}, {"time": 52323, "pitch": 42, "duration": 9, "velocity": 113}, {"time": 52323, "pitch": 62, "duration": 9, "velocity": 104}, {"time": 52441, "pitch": 42, "duration": 10, "velocity": 127}, {"time": 52441, "pitch": 64, "duration": 10, "velocity": 43}, {"time": 52560, "pitch": 46, "duration": 10, "velocity": 124}, {"time": 52678, "pitch": 64, "duration": 10, "velocity": 105}, {"time": 52797, "pitch": 38, "duration": 10, "velocity": 117}, {"time": 52797, "pitch": 42, "duration": 10, "velocity": 127}, {"time": 52797, "pitch": 63, "duration": 10, "velocity": 106}, {"time": 53037, "pitch": 36, "duration": 10, "velocity": 117}, {"time": 53037, "pitch": 42, "duration": 10, "velocity": 95}, {"time": 53037, "pitch": 67, "duration": 10, "velocity": 127}, {"time": 53158, "pitch": 42, "duration": 10, "velocity": 99}, {"time": 53278, "pitch": 36, "duration": 10, "velocity": 117}, {"time": 53278, "pitch": 42, "duration": 10, "velocity": 115}, {"time": 53278, "pitch": 62, "duration": 10, "velocity": 107}, {"time": 53398, "pitch": 38, "duration": 10, "velocity": 117}, {"time": 53398, "pitch": 64, "duration": 10, "velocity": 95}, {"time": 53519, "pitch": 36, "duration": 10, "velocity": 117}, {"time": 53519, "pitch": 42, "duration": 10, "velocity": 124}, {"time": 53639, "pitch": 42, "duration": 10, "velocity": 127}, {"time": 53639, "pitch": 64, "duration": 10, "velocity": 104}, {"time": 53759, "pitch": 38, "duration": 10, "velocity": 117}, {"time": 53759, "pitch": 42, "duration": 10, "velocity": 127}, {"time": 53759, "pitch": 63, "duration": 10, "velocity": 106}, {"time": 53880, "pitch": 42, "duration": 10, "velocity": 127}, {"time": 53880, "pitch": 68, "duration": 10, "velocity": 103}, {"time": 54000, "pitch": 36, "duration": 10, "velocity": 117}, {"time": 54000, "pitch": 42, "duration": 10, "velocity": 127}, {"time": 54120, "pitch": 42, "duration": 10, "velocity": 127}, {"time": 54120, "pitch": 68, "duration": 10, "velocity": 107}, {"time": 54241, "pitch": 36, "duration": 10, "velocity": 117}, {"time": 54241, "pitch": 42, "duration": 10, "velocity": 126}, {"time": 54241, "pitch": 62, "duration": 10, "velocity": 87}, {"time": 54361, "pitch": 42, "duration": 10, "velocity": 127}, {"time": 54361, "pitch": 64, "duration": 10, "velocity": 96}, {"time": 54481, "pitch": 46, "duration": 10, "velocity": 120}, {"time": 54602, "pitch": 64, "duration": 10, "velocity": 107}, {"time": 54722, "pitch": 38, "duration": 10, "velocity": 117}, {"time": 54722, "pitch": 42, "duration": 10, "velocity": 127}, {"time": 54722, "pitch": 63, "duration": 10, "velocity": 95}, {"time": 54963, "pitch": 42, "duration": 10, "velocity": 36}, {"time": 54963, "pitch": 67, "duration": 10, "velocity": 127}, {"time": 55083, "pitch": 42, "duration": 10, "velocity": 120}, {"time": 55083, "pitch": 67, "duration": 10, "velocity": 121}, {"time": 55203, "pitch": 36, "duration": 10, "velocity": 117}, {"time": 55203, "pitch": 42, "duration": 10, "velocity": 127}, {"time": 55203, "pitch": 62, "duration": 10, "velocity": 99}, {"time": 55440, "pitch": 42, "duration": 10, "velocity": 86}, {"time": 55440, "pitch": 64, "duration": 10, "velocity": 89}, {"time": 55559, "pitch": 42, "duration": 10, "velocity": 127}, {"time": 55559, "pitch": 64, "duration": 10, "velocity": 91}, {"time": 55677, "pitch": 38, "duration": 10, "velocity": 117}, {"time": 55677, "pitch": 42, "duration": 10, "velocity": 118}, {"time": 55677, "pitch": 63, "duration": 10, "velocity": 100}, {"time": 55918, "pitch": 36, "duration": 10, "velocity": 117}, {"time": 55918, "pitch": 42, "duration": 10, "velocity": 113}, {"time": 55918, "pitch": 67, "duration": 10, "velocity": 110}, {"time": 56038, "pitch": 42, "duration": 10, "velocity": 127}, {"time": 56038, "pitch": 67, "duration": 10, "velocity": 114}, {"time": 56159, "pitch": 36, "duration": 10, "velocity": 117}, {"time": 56159, "pitch": 42, "duration": 10, "velocity": 112}, {"time": 56159, "pitch": 62, "duration": 10, "velocity": 98}, {"time": 56279, "pitch": 42, "duration": 10, "velocity": 127}, {"time": 56279, "pitch": 64, "duration": 10, "velocity": 77}, {"time": 56399, "pitch": 46, "duration": 10, "velocity": 120}, {"time": 56520, "pitch": 64, "duration": 10, "velocity": 107}, {"time": 56640, "pitch": 38, "duration": 10, "velocity": 117}, {"time": 56640, "pitch": 42, "duration": 10, "velocity": 127}, {"time": 56640, "pitch": 63, "duration": 10, "velocity": 107}, {"time": 56881, "pitch": 46, "duration": 10, "velocity": 126}, {"time": 56881, "pitch": 67, "duration": 10, "velocity": 93}, {"time": 57001, "pitch": 67, "duration": 10, "velocity": 127}, {"time": 57121, "pitch": 36, "duration": 10, "velocity": 117}, {"time": 57121, "pitch": 42, "duration": 10, "velocity": 127}, {"time": 57121, "pitch": 62, "duration": 10, "velocity": 107}, {"time": 57242, "pitch": 38, "duration": 10, "velocity": 117}, {"time": 57359, "pitch": 38, "duration": 10, "velocity": 24}, {"time": 57362, "pitch": 36, "duration": 10, "velocity": 117}, {"time": 57362, "pitch": 46, "duration": 10, "velocity": 119}, {"time": 57362, "pitch": 64, "duration": 10, "velocity": 104}, {"time": 57413, "pitch": 38, "duration": 10, "velocity": 32}, {"time": 57482, "pitch": 64, "duration": 10, "velocity": 86}, {"time": 57488, "pitch": 38, "duration": 10, "velocity": 53}, {"time": 57542, "pitch": 38, "duration": 10, "velocity": 77}, {"time": 57603, "pitch": 38, "duration": 9, "velocity": 117}, {"time": 57603, "pitch": 42, "duration": 9, "velocity": 127}, {"time": 57603, "pitch": 63, "duration": 9, "velocity": 93}, {"time": 57721, "pitch": 38, "duration": 10, "velocity": 117}, {"time": 57721, "pitch": 68, "duration": 10, "velocity": 94}, {"time": 57840, "pitch": 38, "duration": 10, "velocity": 117}, {"time": 57840, "pitch": 42, "duration": 10, "velocity": 113}, {"time": 57958, "pitch": 38, "duration": 10, "velocity": 117}, {"time": 57958, "pitch": 42, "duration": 10, "velocity": 113}, {"time": 57958, "pitch": 68, "duration": 10, "velocity": 127}, {"time": 58077, "pitch": 36, "duration": 10, "velocity": 117}, {"time": 58077, "pitch": 42, "duration": 10, "velocity": 112}, {"time": 58077, "pitch": 57, "duration": 10, "velocity": 127}, {"time": 58077, "pitch": 62, "duration": 10, "velocity": 105}, {"time": 58197, "pitch": 64, "duration": 10, "velocity": 91}, {"time": 58317, "pitch": 42, "duration": 10, "velocity": 114}, {"time": 58438, "pitch": 42, "duration": 10, "velocity": 127}, {"time": 58438, "pitch": 64, "duration": 10, "velocity": 103}, {"time": 58558, "pitch": 38, "duration": 10, "velocity": 117}, {"time": 58558, "pitch": 42, "duration": 10, "velocity": 80}, {"time": 58558, "pitch": 63, "duration": 10, "velocity": 100}, {"time": 58799, "pitch": 36, "duration": 10, "velocity": 117}, {"time": 58799, "pitch": 42, "duration": 10, "velocity": 94}, {"time": 58799, "pitch": 67, "duration": 10, "velocity": 122}, {"time": 58919, "pitch": 42, "duration": 10, "velocity": 127}, {"time": 59039, "pitch": 36, "duration": 10, "velocity": 117}, {"time": 59039, "pitch": 42, "duration": 10, "velocity": 127}, {"time": 59039, "pitch": 62, "duration": 10, "velocity": 104}, {"time": 59160, "pitch": 42, "duration": 10, "velocity": 127}, {"time": 59280, "pitch": 46, "duration": 10, "velocity": 127}, {"time": 59280, "pitch": 64, "duration": 10, "velocity": 107}, {"time": 59521, "pitch": 38, "duration": 10, "velocity": 117}, {"time": 59521, "pitch": 42, "duration": 10, "velocity": 127}, {"time": 59521, "pitch": 63, "duration": 10, "velocity": 99}, {"time": 59761, "pitch": 36, "duration": 10, "velocity": 117}, {"time": 59761, "pitch": 42, "duration": 10, "velocity": 99}, {"time": 59761, "pitch": 67, "duration": 10, "velocity": 127}, {"time": 59882, "pitch": 42, "duration": 10, "velocity": 123}, {"time": 59882, "pitch": 67, "duration": 10, "velocity": 105}, {"time": 60002, "pitch": 36, "duration": 10, "velocity": 117}, {"time": 60002, "pitch": 42, "duration": 10, "velocity": 111}, {"time": 60002, "pitch": 62, "duration": 10, "velocity": 96}, {"time": 60243, "pitch": 42, "duration": 10, "velocity": 127}, {"time": 60243, "pitch": 64, "duration": 10, "velocity": 48}, {"time": 60363, "pitch": 64, "duration": 10, "velocity": 84}, {"time": 60483, "pitch": 38, "duration": 10, "velocity": 117}, {"time": 60483, "pitch": 42, "duration": 10, "velocity": 127}, {"time": 60483, "pitch": 63, "duration": 10, "velocity": 104}, {"time": 60720, "pitch": 36, "duration": 10, "velocity": 117}, {"time": 60720, "pitch": 38, "duration": 10, "velocity": 28}, {"time": 60720, "pitch": 42, "duration": 10, "velocity": 118}, {"time": 60720, "pitch": 67, "duration": 10, "velocity": 112}, {"time": 60774, "pitch": 38, "duration": 10, "velocity": 36}, {"time": 60839, "pitch": 38, "duration": 10, "velocity": 55}, {"time": 60839, "pitch": 42, "duration": 10, "velocity": 110}, {"time": 60839, "pitch": 67, "duration": 10, "velocity": 101}, {"time": 60892, "pitch": 38, "duration": 10, "velocity": 78}, {"time": 60957, "pitch": 36, "duration": 10, "velocity": 117}, {"time": 60957, "pitch": 42, "duration": 10, "velocity": 101}, {"time": 60957, "pitch": 62, "duration": 10, "velocity": 105}, {"time": 61078, "pitch": 38, "duration": 10, "velocity": 117}, {"time": 61078, "pitch": 42, "duration": 10, "velocity": 127}, {"time": 61078, "pitch": 64, "duration": 10, "velocity": 104}, {"time": 61198, "pitch": 36, "duration": 10, "velocity": 117}, {"time": 61198, "pitch": 46, "duration": 10, "velocity": 120}, {"time": 61318, "pitch": 64, "duration": 10, "velocity": 107}, {"time": 61439, "pitch": 38, "duration": 10, "velocity": 117}, {"time": 61439, "pitch": 42, "duration": 10, "velocity": 127}, {"time": 61439, "pitch": 63, "duration": 10, "velocity": 89}, {"time": 61559, "pitch": 68, "duration": 10, "velocity": 119}, {"time": 61679, "pitch": 36, "duration": 10, "velocity": 117}, {"time": 61679, "pitch": 42, "duration": 10, "velocity": 127}, {"time": 61800, "pitch": 42, "duration": 10, "velocity": 118}, {"time": 61800, "pitch": 68, "duration": 10, "velocity": 126}, {"time": 61920, "pitch": 36, "duration": 10, "velocity": 117}, {"time": 61920, "pitch": 42, "duration": 10, "velocity": 108}, {"time": 61920, "pitch": 55, "duration": 10, "velocity": 127}, {"time": 61920, "pitch": 62, "duration": 10, "velocity": 102}, {"time": 62161, "pitch": 42, "duration": 10, "velocity": 127}, {"time": 62161, "pitch": 64, "duration": 10, "velocity": 107}, {"time": 62281, "pitch": 64, "duration": 10, "velocity": 100}, {"time": 62401, "pitch": 38, "duration": 10, "velocity": 117}, {"time": 62401, "pitch": 42, "duration": 10, "velocity": 127}, {"time": 62401, "pitch": 63, "duration": 10, "velocity": 105}, {"time": 62642, "pitch": 36, "duration": 10, "velocity": 117}, {"time": 62642, "pitch": 46, "duration": 10, "velocity": 117}, {"time": 62642, "pitch": 67, "duration": 10, "velocity": 127}, {"time": 62762, "pitch": 67, "duration": 10, "velocity": 119}, {"time": 62883, "pitch": 36, "duration": 9, "velocity": 117}, {"time": 62883, "pitch": 42, "duration": 9, "velocity": 127}, {"time": 62883, "pitch": 62, "duration": 9, "velocity": 88}, {"time": 63120, "pitch": 42, "duration": 10, "velocity": 127}, {"time": 63120, "pitch": 64, "duration": 10, "velocity": 97}, {"time": 63238, "pitch": 64, "duration": 10, "velocity": 92}, {"time": 63357, "pitch": 38, "duration": 10, "velocity": 117}, {"time": 63357, "pitch": 42, "duration": 10, "velocity": 127}, {"time": 63357, "pitch": 63, "duration": 10, "velocity": 107}, {"time": 63597, "pitch": 36, "duration": 10, "velocity": 117}, {"time": 63597, "pitch": 42, "duration": 10, "velocity": 117}, {"time": 63597, "pitch": 67, "duration": 10, "velocity": 127}, {"time": 63718, "pitch": 42, "duration": 10, "velocity": 127}, {"time": 63838, "pitch": 36, "duration": 10, "velocity": 117}, {"time": 63838, "pitch": 42, "duration": 10, "velocity": 123}, {"time": 63838, "pitch": 62, "duration": 10, "velocity": 99}, {"time": 64079, "pitch": 46, "duration": 10, "velocity": 111}, {"time": 64079, "pitch": 64, "duration": 10, "velocity": 91}, {"time": 64199, "pitch": 64, "duration": 10, "velocity": 84}, {"time": 64319, "pitch": 38, "duration": 10, "velocity": 117}, {"time": 64319, "pitch": 42, "duration": 10, "velocity": 127}, {"time": 64319, "pitch": 63, "duration": 10, "velocity": 103}, {"time": 64560, "pitch": 36, "duration": 10, "velocity": 117}, {"time": 64560, "pitch": 42, "duration": 10, "velocity": 122}, {"time": 64560, "pitch": 67, "duration": 10, "velocity": 127}, {"time": 64680, "pitch": 42, "duration": 10, "velocity": 127}, {"time": 64680, "pitch": 67, "duration": 10, "velocity": 108}, {"time": 64801, "pitch": 42, "duration": 10, "velocity": 113}, {"time": 64801, "pitch": 45, "duration": 10, "velocity": 100}, {"time": 64801, "pitch": 62, "duration": 10, "velocity": 107}, {"time": 64819, "pitch": 45, "duration": 10, "velocity": 127}, {"time": 64921, "pitch": 64, "duration": 10, "velocity": 97}, {"time": 65041, "pitch": 38, "duration": 10, "velocity": 33}, {"time": 65041, "pitch": 42, "duration": 10, "velocity": 120}, {"time": 65092, "pitch": 38, "duration": 10, "velocity": 39}, {"time": 65153, "pitch": 38, "duration": 10, "velocity": 54}, {"time": 65162, "pitch": 64, "duration": 10, "velocity": 105}, {"time": 65204, "pitch": 38, "duration": 10, "velocity": 74}, {"time": 65282, "pitch": 38, "duration": 10, "velocity": 117}, {"time": 65282, "pitch": 42, "duration": 10, "velocity": 127}, {"time": 65282, "pitch": 63, "duration": 10, "velocity": 102}, {"time": 65402, "pitch": 38, "duration": 10, "velocity": 117}, {"time": 65523, "pitch": 43, "duration": 10, "velocity": 100}, {"time": 65523, "pitch": 68, "duration": 10, "velocity": 121}, {"time": 65541, "pitch": 43, "duration": 10, "velocity": 127}, {"time": 65763, "pitch": 38, "duration": 10, "velocity": 117}, {"time": 65763, "pitch": 42, "duration": 10, "velocity": 127}, {"time": 65763, "pitch": 44, "duration": 10, "velocity": 127}, {"time": 65763, "pitch": 50, "duration": 10, "velocity": 90}, {"time": 65763, "pitch": 64, "duration": 10, "velocity": 107}, {"time": 65787, "pitch": 50, "duration": 10, "velocity": 127}, {"time": 66000, "pitch": 60, "duration": 10, "velocity": 107}, {"time": 66113, "pitch": 45, "duration": 10, "velocity": 90}, {"time": 66119, "pitch": 38, "duration": 10, "velocity": 117}, {"time": 66119, "pitch": 44, "duration": 10, "velocity": 127}, {"time": 66119, "pitch": 62, "duration": 10, "velocity": 107}, {"time": 66140, "pitch": 45, "duration": 10, "velocity": 127}, {"time": 66358, "pitch": 62, "duration": 10, "velocity": 107}, {"time": 66478, "pitch": 38, "duration": 10, "velocity": 117}, {"time": 66478, "pitch": 43, "duration": 10, "velocity": 90}, {"time": 66478, "pitch": 44, "duration": 10, "velocity": 127}, {"time": 66478, "pitch": 61, "duration": 10, "velocity": 107}, {"time": 66505, "pitch": 43, "duration": 10, "velocity": 127}, {"time": 66959, "pitch": 38, "duration": 10, "velocity": 34}, {"time": 67013, "pitch": 38, "duration": 11, "velocity": 42}, {"time": 67086, "pitch": 38, "duration": 10, "velocity": 61}, {"time": 67140, "pitch": 38, "duration": 10, "velocity": 81}, {"time": 67200, "pitch": 38, "duration": 10, "velocity": 117}, {"time": 67320, "pitch": 38, "duration": 10, "velocity": 117}, {"time": 67441, "pitch": 41, "duration": 10, "velocity": 90}, {"time": 67459, "pitch": 41, "duration": 10, "velocity": 127}, {"time": 67681, "pitch": 36, "duration": 10, "velocity": 117}, {"time": 67681, "pitch": 42, "duration": 10, "velocity": 113}, {"time": 67681, "pitch": 57, "duration": 10, "velocity": 127}, {"time": 67681, "pitch": 64, "duration": 10, "velocity": 107}, {"time": 67802, "pitch": 42, "duration": 10, "velocity": 98}, {"time": 67802, "pitch": 64, "duration": 10, "velocity": 107}, {"time": 67922, "pitch": 42, "duration": 10, "velocity": 93}, {"time": 67922, "pitch": 60, "duration": 10, "velocity": 107}, {"time": 68163, "pitch": 38, "duration": 9, "velocity": 117}, {"time": 68163, "pitch": 42, "duration": 9, "velocity": 123}, {"time": 68163, "pitch": 62, "duration": 9, "velocity": 107}, {"time": 68281, "pitch": 62, "duration": 10, "velocity": 107}, {"time": 68400, "pitch": 36, "duration": 10, "velocity": 117}, {"time": 68400, "pitch": 42, "duration": 10, "velocity": 102}, {"time": 68400, "pitch": 61, "duration": 10, "velocity": 107}, {"time": 68518, "pitch": 42, "duration": 10, "velocity": 127}, {"time": 68518, "pitch": 64, "duration": 10, "velocity": 107}, {"time": 68637, "pitch": 36, "duration": 10, "velocity": 117}, {"time": 68637, "pitch": 42, "duration": 10, "velocity": 117}, {"time": 68757, "pitch": 64, "duration": 10, "velocity": 107}, {"time": 68877, "pitch": 42, "duration": 10, "velocity": 127}, {"time": 68877, "pitch": 60, "duration": 10, "velocity": 107}, {"time": 69118, "pitch": 38, "duration": 10, "velocity": 117}, {"time": 69118, "pitch": 42, "duration": 10, "velocity": 127}, {"time": 69118, "pitch": 62, "duration": 10, "velocity": 107}, {"time": 69238, "pitch": 62, "duration": 10, "velocity": 107}, {"time": 69359, "pitch": 46, "duration": 10, "velocity": 127}, {"time": 69359, "pitch": 61, "duration": 10, "velocity": 107}, {"time": 69599, "pitch": 36, "duration": 10, "velocity": 117}, {"time": 69599, "pitch": 42, "duration": 10, "velocity": 117}, {"time": 69599, "pitch": 64, "duration": 10, "velocity": 107}, {"time": 69720, "pitch": 64, "duration": 10, "velocity": 107}, {"time": 69840, "pitch": 42, "duration": 10, "velocity": 119}, {"time": 69840, "pitch": 60, "duration": 10, "velocity": 107}, {"time": 70081, "pitch": 38, "duration": 10, "velocity": 117}, {"time": 70081, "pitch": 42, "duration": 10, "velocity": 117}, {"time": 70081, "pitch": 62, "duration": 10, "velocity": 107}, {"time": 70201, "pitch": 62, "duration": 10, "velocity": 107}, {"time": 70321, "pitch": 36, "duration": 10, "velocity": 117}, {"time": 70321, "pitch": 42, "duration": 10, "velocity": 125}, {"time": 70321, "pitch": 61, "duration": 10, "velocity": 107}, {"time": 70442, "pitch": 42, "duration": 10, "velocity": 127}, {"time": 70442, "pitch": 64, "duration": 10, "velocity": 107}, {"time": 70562, "pitch": 36, "duration": 10, "velocity": 117}, {"time": 70562, "pitch": 42, "duration": 10, "velocity": 99}, {"time": 70682, "pitch": 64, "duration": 10, "velocity": 107}, {"time": 70803, "pitch": 42, "duration": 10, "velocity": 127}, {"time": 70803, "pitch": 60, "duration": 10, "velocity": 107}, {"time": 71043, "pitch": 38, "duration": 10, "velocity": 117}, {"time": 71043, "pitch": 42, "duration": 10, "velocity": 118}, {"time": 71043, "pitch": 62, "duration": 10, "velocity": 107}, {"time": 71162, "pitch": 62, "duration": 10, "velocity": 107}, {"time": 71280, "pitch": 36, "duration": 10, "velocity": 117}, {"time": 71280, "pitch": 46, "duration": 10, "velocity": 127}, {"time": 71280, "pitch": 63, "duration": 10, "velocity": 107}, {"time": 71517, "pitch": 36, "duration": 10, "velocity": 117}, {"time": 71517, "pitch": 42, "duration": 10, "velocity": 110}, {"time": 71517, "pitch": 64, "duration": 10, "velocity": 107}, {"time": 71638, "pitch": 64, "duration": 10, "velocity": 107}, {"time": 71758, "pitch": 42, "duration": 10, "velocity": 127}, {"time": 71758, "pitch": 60, "duration": 10, "velocity": 107}, {"time": 71999, "pitch": 38, "duration": 10, "velocity": 117}, {"time": 71999, "pitch": 42, "duration": 10, "velocity": 95}, {"time": 71999, "pitch": 62, "duration": 10, "velocity": 107}, {"time": 72119, "pitch": 62, "duration": 10, "velocity": 107}, {"time": 72239, "pitch": 36, "duration": 10, "velocity": 117}, {"time": 72239, "pitch": 42, "duration": 10, "velocity": 121}, {"time": 72239, "pitch": 61, "duration": 10, "velocity": 107}, {"time": 72360, "pitch": 42, "duration": 10, "velocity": 119}, {"time": 72360, "pitch": 64, "duration": 10, "velocity": 107}, {"time": 72480, "pitch": 36, "duration": 10, "velocity": 117}, {"time": 72480, "pitch": 42, "duration": 10, "velocity": 111}, {"time": 72600, "pitch": 64, "duration": 10, "velocity": 107}, {"time": 72721, "pitch": 42, "duration": 10, "velocity": 124}, {"time": 72721, "pitch": 60, "duration": 10, "velocity": 107}, {"time": 72961, "pitch": 38, "duration": 10, "velocity": 117}, {"time": 72961, "pitch": 42, "duration": 10, "velocity": 127}, {"time": 72961, "pitch": 62, "duration": 10, "velocity": 107}, {"time": 73082, "pitch": 62, "duration": 10, "velocity": 107}, {"time": 73202, "pitch": 36, "duration": 10, "velocity": 117}, {"time": 73202, "pitch": 46, "duration": 10, "velocity": 127}, {"time": 73202, "pitch": 63, "duration": 10, "velocity": 107}, {"time": 73443, "pitch": 36, "duration": 9, "velocity": 117}, {"time": 73443, "pitch": 42, "duration": 9, "velocity": 127}, {"time": 73443, "pitch": 64, "duration": 9, "velocity": 107}, {"time": 73561, "pitch": 64, "duration": 10, "velocity": 107}, {"time": 73680, "pitch": 46, "duration": 10, "velocity": 127}, {"time": 73680, "pitch": 60, "duration": 10, "velocity": 107}, {"time": 73917, "pitch": 38, "duration": 10, "velocity": 117}, {"time": 73917, "pitch": 42, "duration": 10, "velocity": 127}, {"time": 73917, "pitch": 62, "duration": 10, "velocity": 107}, {"time": 74157, "pitch": 36, "duration": 10, "velocity": 117}, {"time": 74157, "pitch": 42, "duration": 10, "velocity": 116}, {"time": 74157, "pitch": 61, "duration": 10, "velocity": 107}, {"time": 74278, "pitch": 42, "duration": 10, "velocity": 124}, {"time": 74278, "pitch": 64, "duration": 10, "velocity": 107}, {"time": 74398, "pitch": 36, "duration": 10, "velocity": 117}, {"time": 74398, "pitch": 42, "duration": 10, "velocity": 112}, {"time": 74518, "pitch": 64, "duration": 10, "velocity": 107}, {"time": 74639, "pitch": 38, "duration": 10, "velocity": 117}, {"time": 74639, "pitch": 39, "duration": 10, "velocity": 127}, {"time": 74639, "pitch": 42, "duration": 10, "velocity": 127}, {"time": 74639, "pitch": 60, "duration": 10, "velocity": 107}, {"time": 74759, "pitch": 62, "duration": 10, "velocity": 107}, {"time": 74879, "pitch": 38, "duration": 10, "velocity": 31}, {"time": 74879, "pitch": 42, "duration": 10, "velocity": 108}, {"time": 74879, "pitch": 62, "duration": 10, "velocity": 107}, {"time": 74930, "pitch": 38, "duration": 11, "velocity": 38}, {"time": 74997, "pitch": 38, "duration": 10, "velocity": 55}, {"time": 75048, "pitch": 38, "duration": 10, "velocity": 74}, {"time": 75120, "pitch": 38, "duration": 10, "velocity": 117}, {"time": 75120, "pitch": 39, "duration": 10, "velocity": 127}, {"time": 75120, "pitch": 42, "duration": 10, "velocity": 127}, {"time": 75120, "pitch": 63, "duration": 10, "velocity": 107}, {"time": 75240, "pitch": 38, "duration": 10, "velocity": 117}, {"time": 75240, "pitch": 39, "duration": 10, "velocity": 127}, {"time": 75361, "pitch": 36, "duration": 10, "velocity": 117}, {"time": 75361, "pitch": 42, "duration": 10, "velocity": 113}, {"time": 75361, "pitch": 57, "duration": 10, "velocity": 127}, {"time": 75361, "pitch": 64, "duration": 10, "velocity": 107}, {"time": 75481, "pitch": 42, "duration": 10, "velocity": 98}, {"time": 75481, "pitch": 64, "duration": 10, "velocity": 107}, {"time": 75601, "pitch": 42, "duration": 10, "velocity": 93}, {"time": 75601, "pitch": 60, "duration": 10, "velocity": 107}, {"time": 75842, "pitch": 38, "duration": 10, "velocity": 117}, {"time": 75842, "pitch": 42, "duration": 10, "velocity": 123}, {"time": 75842, "pitch": 62, "duration": 10, "velocity": 107}, {"time": 75962, "pitch": 62, "duration": 10, "velocity": 107}, {"time": 76083, "pitch": 36, "duration": 10, "velocity": 117}, {"time": 76083, "pitch": 42, "duration": 10, "velocity": 102}, {"time": 76083, "pitch": 61, "duration": 10, "velocity": 107}, {"time": 76203, "pitch": 42, "duration": 10, "velocity": 127}, {"time": 76203, "pitch": 64, "duration": 10, "velocity": 107}, {"time": 76323, "pitch": 36, "duration": 10, "velocity": 117}, {"time": 76323, "pitch": 42, "duration": 10, "velocity": 117}, {"time": 76442, "pitch": 64, "duration": 10, "velocity": 107}, {"time": 76560, "pitch": 42, "duration": 10, "velocity": 127}, {"time": 76560, "pitch": 60, "duration": 10, "velocity": 107}, {"time": 76797, "pitch": 38, "duration": 10, "velocity": 117}, {"time": 76797, "pitch": 42, "duration": 10, "velocity": 127}, {"time": 76797, "pitch": 62, "duration": 10, "velocity": 107}, {"time": 76918, "pitch": 62, "duration": 10, "velocity": 107}, {"time": 77038, "pitch": 46, "duration": 10, "velocity": 127}, {"time": 77038, "pitch": 61, "duration": 10, "velocity": 107}, {"time": 77279, "pitch": 36, "duration": 10, "velocity": 117}, {"time": 77279, "pitch": 42, "duration": 10, "velocity": 117}, {"time": 77279, "pitch": 64, "duration": 10, "velocity": 107}, {"time": 77399, "pitch": 64, "duration": 10, "velocity": 107}, {"time": 77519, "pitch": 42, "duration": 10, "velocity": 119}, {"time": 77519, "pitch": 60, "duration": 10, "velocity": 107}, {"time": 77760, "pitch": 38, "duration": 10, "velocity": 117}, {"time": 77760, "pitch": 42, "duration": 10, "velocity": 117}, {"time": 77760, "pitch": 62, "duration": 10, "velocity": 107}, {"time": 77880, "pitch": 62, "duration": 10, "velocity": 107}, {"time": 78001, "pitch": 36, "duration": 10, "velocity": 117}, {"time": 78001, "pitch": 42, "duration": 10, "velocity": 125}, {"time": 78001, "pitch": 61, "duration": 10, "velocity": 107}, {"time": 78121, "pitch": 42, "duration": 10, "velocity": 127}, {"time": 78121, "pitch": 64, "duration": 10, "velocity": 107}, {"time": 78241, "pitch": 36, "duration": 10, "velocity": 117}, {"time": 78241, "pitch": 42, "duration": 10, "velocity": 99}, {"time": 78362, "pitch": 64, "duration": 10, "velocity": 107}, {"time": 78482, "pitch": 42, "duration": 10, "velocity": 127}, {"time": 78482, "pitch": 60, "duration": 10, "velocity": 107}, {"time": 78723, "pitch": 38, "duration": 9, "velocity": 117}, {"time": 78723, "pitch": 42, "duration": 9, "velocity": 118}, {"time": 78723, "pitch": 62, "duration": 9, "velocity": 107}, {"time": 78841, "pitch": 62, "duration": 10, "velocity": 107}, {"time": 78960, "pitch": 36, "duration": 10, "velocity": 117}, {"time": 78960, "pitch": 46, "duration": 10, "velocity": 127}, {"time": 78960, "pitch": 63, "duration": 10, "velocity": 107}, {"time": 79197, "pitch": 36, "duration": 10, "velocity": 117}, {"time": 79197, "pitch": 42, "duration": 10, "velocity": 110}, {"time": 79197, "pitch": 64, "duration": 10, "velocity": 107}, {"time": 79317, "pitch": 64, "duration": 10, "velocity": 107}, {"time": 79437, "pitch": 42, "duration": 10, "velocity": 127}, {"time": 79437, "pitch": 60, "duration": 10, "velocity": 107}, {"time": 79678, "pitch": 38, "duration": 10, "velocity": 117}, {"time": 79678, "pitch": 42, "duration": 10, "velocity": 95}, {"time": 79678, "pitch": 62, "duration": 10, "velocity": 107}, {"time": 79798, "pitch": 62, "duration": 10, "velocity": 107}, {"time": 79919, "pitch": 36, "duration": 10, "velocity": 117}, {"time": 79919, "pitch": 42, "duration": 10, "velocity": 121}, {"time": 79919, "pitch": 61, "duration": 10, "velocity": 107}, {"time": 80039, "pitch": 42, "duration": 10, "velocity": 119}, {"time": 80039, "pitch": 64, "duration": 10, "velocity": 107}, {"time": 80159, "pitch": 36, "duration": 10, "velocity": 117}, {"time": 80159, "pitch": 42, "duration": 10, "velocity": 111}, {"time": 80280, "pitch": 64, "duration": 10, "velocity": 107}, {"time": 80400, "pitch": 42, "duration": 10, "velocity": 124}, {"time": 80400, "pitch": 60, "duration": 10, "velocity": 107}, {"time": 80641, "pitch": 38, "duration": 10, "velocity": 117}, {"time": 80641, "pitch": 42, "duration": 10, "velocity": 127}, {"time": 80641, "pitch": 62, "duration": 10, "velocity": 107}, {"time": 80761, "pitch": 62, "duration": 10, "velocity": 107}, {"time": 80881, "pitch": 36, "duration": 10, "velocity": 117}, {"time": 80881, "pitch": 46, "duration": 10, "velocity": 127}, {"time": 80881, "pitch": 63, "duration": 10, "velocity": 107}, {"time": 81122, "pitch": 36, "duration": 10, "velocity": 117}, {"time": 81122, "pitch": 42, "duration": 10, "velocity": 127}, {"time": 81122, "pitch": 64, "duration": 10, "velocity": 107}, {"time": 81242, "pitch": 64, "duration": 10, "velocity": 107}, {"time": 81363, "pitch": 46, "duration": 10, "velocity": 127}, {"time": 81363, "pitch": 60, "duration": 10, "velocity": 107}, {"time": 81603, "pitch": 38, "duration": 10, "velocity": 117}, {"time": 81603, "pitch": 42, "duration": 10, "velocity": 127}, {"time": 81603, "pitch": 62, "duration": 10, "velocity": 107}, {"time": 81840, "pitch": 36, "duration": 10, "velocity": 117}, {"time": 81840, "pitch": 42, "duration": 10, "velocity": 116}, {"time": 81840, "pitch": 61, "duration": 10, "velocity": 107}, {"time": 81959, "pitch": 42, "duration": 10, "velocity": 124}, {"time": 81959, "pitch": 64, "duration": 10, "velocity": 107}, {"time": 82077, "pitch": 36, "duration": 10, "velocity": 117}, {"time": 82077, "pitch": 42, "duration": 10, "velocity": 112}, {"time": 82198, "pitch": 64, "duration": 10, "velocity": 107}, {"time": 82318, "pitch": 38, "duration": 10, "velocity": 117}, {"time": 82318, "pitch": 39, "duration": 10, "velocity": 127}, {"time": 82318, "pitch": 42, "duration": 10, "velocity": 127}, {"time": 82318, "pitch": 60, "duration": 10, "velocity": 107}, {"time": 82438, "pitch": 62, "duration": 10, "velocity": 107}, {"time": 82559, "pitch": 38, "duration": 10, "velocity": 31}, {"time": 82559, "pitch": 42, "duration": 10, "velocity": 108}, {"time": 82559, "pitch": 62, "duration": 10, "velocity": 107}, {"time": 82610, "pitch": 38, "duration": 10, "velocity": 38}, {"time": 82676, "pitch": 38, "duration": 10, "velocity": 55}, {"time": 82727, "pitch": 38, "duration": 10, "velocity": 74}, {"time": 82799, "pitch": 38, "duration": 10, "velocity": 117}, {"time": 82799, "pitch": 39, "duration": 10, "velocity": 127}, {"time": 82799, "pitch": 42, "duration": 10, "velocity": 127}, {"time": 82799, "pitch": 63, "duration": 10, "velocity": 107}, {"time": 82920, "pitch": 38, "duration": 10, "velocity": 117}, {"time": 82920, "pitch": 39, "duration": 10, "velocity": 127}, {"time": 83040, "pitch": 38, "duration": 10, "velocity": 117}, {"time": 83040, "pitch": 42, "duration": 10, "velocity": 117}, {"time": 83040, "pitch": 43, "duration": 10, "velocity": 90}, {"time": 83040, "pitch": 64, "duration": 10, "velocity": 107}, {"time": 83058, "pitch": 43, "duration": 10, "velocity": 127}, {"time": 83160, "pitch": 64, "duration": 10, "velocity": 107}, {"time": 83281, "pitch": 46, "duration": 10, "velocity": 118}, {"time": 83281, "pitch": 60, "duration": 10, "velocity": 107}, {"time": 83401, "pitch": 38, "duration": 10, "velocity": 117}, {"time": 83401, "pitch": 43, "duration": 10, "velocity": 90}, {"time": 83401, "pitch": 62, "duration": 10, "velocity": 107}, {"time": 83419, "pitch": 43, "duration": 10, "velocity": 127}, {"time": 83521, "pitch": 42, "duration": 10, "velocity": 112}, {"time": 83642, "pitch": 62, "duration": 10, "velocity": 107}, {"time": 83762, "pitch": 38, "duration": 10, "velocity": 117}, {"time": 83762, "pitch": 42, "duration": 10, "velocity": 127}, {"time": 83762, "pitch": 43, "duration": 10, "velocity": 90}, {"time": 83762, "pitch": 61, "duration": 10, "velocity": 107}, {"time": 83783, "pitch": 43, "duration": 10, "velocity": 127}, {"time": 84003, "pitch": 48, "duration": 9, "velocity": 100}, {"time": 84017, "pitch": 48, "duration": 10, "velocity": 127}, {"time": 84240, "pitch": 38, "duration": 10, "velocity": 37}, {"time": 84293, "pitch": 38, "duration": 10, "velocity": 46}, {"time": 84358, "pitch": 38, "duration": 10, "velocity": 65}, {"time": 84412, "pitch": 38, "duration": 9, "velocity": 88}, {"time": 84477, "pitch": 38, "duration": 10, "velocity": 117}, {"time": 84597, "pitch": 38, "duration": 10, "velocity": 117}, {"time": 84717, "pitch": 45, "duration": 10, "velocity": 100}, {"time": 84732, "pitch": 45, "duration": 10, "velocity": 127}, {"time": 84958, "pitch": 36, "duration": 10, "velocity": 117}, {"time": 84958, "pitch": 42, "duration": 10, "velocity": 120}, {"time": 84958, "pitch": 60, "duration": 10, "velocity": 75}, {"time": 85078, "pitch": 42, "duration": 10, "velocity": 99}, {"time": 85199, "pitch": 46, "duration": 10, "velocity": 124}, {"time": 85199, "pitch": 64, "duration": 10, "velocity": 89}, {"time": 85319, "pitch": 64, "duration": 10, "velocity": 87}, {"time": 85439, "pitch": 38, "duration": 10, "velocity": 117}, {"time": 85439, "pitch": 42, "duration": 10, "velocity": 127}, {"time": 85439, "pitch": 61, "duration": 10, "velocity": 70}, {"time": 85680, "pitch": 42, "duration": 10, "velocity": 90}, {"time": 85680, "pitch": 62, "duration": 10, "velocity": 83}, {"time": 85800, "pitch": 42, "duration": 10, "velocity": 108}, {"time": 85800, "pitch": 62, "duration": 10, "velocity": 66}, {"time": 85921, "pitch": 36, "duration": 10, "velocity": 117}, {"time": 85921, "pitch": 42, "duration": 10, "velocity": 112}, {"time": 85921, "pitch": 60, "duration": 10, "velocity": 78}, {"time": 86041, "pitch": 64, "duration": 10, "velocity": 89}, {"time": 86161, "pitch": 42, "duration": 10, "velocity": 117}, {"time": 86282, "pitch": 42, "duration": 10, "velocity": 84}, {"time": 86282, "pitch": 64, "duration": 10, "velocity": 98}, {"time": 86402, "pitch": 38, "duration": 10, "velocity": 117}, {"time": 86402, "pitch": 42, "duration": 10, "velocity": 110}, {"time": 86402, "pitch": 61, "duration": 10, "velocity": 80}, {"time": 86643, "pitch": 36, "duration": 10, "velocity": 117}, {"time": 86643, "pitch": 42, "duration": 10, "velocity": 114}, {"time": 86643, "pitch": 62, "duration": 10, "velocity": 71}, {"time": 86763, "pitch": 42, "duration": 10, "velocity": 104}, {"time": 86763, "pitch": 62, "duration": 10, "velocity": 68}, {"time": 86883, "pitch": 36, "duration": 10, "velocity": 117}, {"time": 86883, "pitch": 42, "duration": 10, "velocity": 124}, {"time": 86883, "pitch": 60, "duration": 10, "velocity": 80}, {"time": 87002, "pitch": 42, "duration": 10, "velocity": 127}, {"time": 87120, "pitch": 46, "duration": 10, "velocity": 125}, {"time": 87120, "pitch": 64, "duration": 10, "velocity": 82}, {"time": 87239, "pitch": 36, "duration": 10, "velocity": 117}, {"time": 87239, "pitch": 64, "duration": 10, "velocity": 80}, {"time": 87357, "pitch": 38, "duration": 10, "velocity": 117}, {"time": 87357, "pitch": 42, "duration": 10, "velocity": 127}, {"time": 87357, "pitch": 61, "duration": 10, "velocity": 78}, {"time": 87598, "pitch": 36, "duration": 10, "velocity": 117}, {"time": 87598, "pitch": 42, "duration": 10, "velocity": 104}, {"time": 87598, "pitch": 62, "duration": 10, "velocity": 66}, {"time": 87718, "pitch": 42, "duration": 10, "velocity": 104}, {"time": 87718, "pitch": 62, "duration": 10, "velocity": 68}, {"time": 87839, "pitch": 36, "duration": 10, "velocity": 117}, {"time": 87839, "pitch": 42, "duration": 10, "velocity": 88}, {"time": 87839, "pitch": 60, "duration": 10, "velocity": 77}, {"time": 87959, "pitch": 42, "duration": 10, "velocity": 127}, {"time": 87959, "pitch": 64, "duration": 10, "velocity": 96}, {"time": 88079, "pitch": 42, "duration": 10, "velocity": 105}, {"time": 88200, "pitch": 64, "duration": 10, "velocity": 104}, {"time": 88320, "pitch": 38, "duration": 10, "velocity": 117}, {"time": 88320, "pitch": 42, "duration": 10, "velocity": 127}, {"time": 88320, "pitch": 63, "duration": 10, "velocity": 73}, {"time": 88440, "pitch": 64, "duration": 10, "velocity": 67}, {"time": 88561, "pitch": 42, "duration": 10, "velocity": 93}, {"time": 88681, "pitch": 42, "duration": 10, "velocity": 120}, {"time": 88681, "pitch": 64, "duration": 10, "velocity": 97}, {"time": 88801, "pitch": 36, "duration": 10, "velocity": 117}, {"time": 88801, "pitch": 42, "duration": 10, "velocity": 122}, {"time": 88801, "pitch": 60, "duration": 10, "velocity": 80}, {"time": 88922, "pitch": 42, "duration": 10, "velocity": 127}, {"time": 89042, "pitch": 46, "duration": 10, "velocity": 118}, {"time": 89042, "pitch": 62, "duration": 10, "velocity": 78}, {"time": 89162, "pitch": 62, "duration": 10, "velocity": 68}, {"time": 89283, "pitch": 38, "duration": 9, "velocity": 117}, {"time": 89283, "pitch": 42, "duration": 9, "velocity": 127}, {"time": 89283, "pitch": 61, "duration": 9, "velocity": 63}, {"time": 89520, "pitch": 36, "duration": 10, "velocity": 117}, {"time": 89520, "pitch": 42, "duration": 10, "velocity": 76}, {"time": 89520, "pitch": 64, "duration": 10, "velocity": 31}, {"time": 89638, "pitch": 42, "duration": 10, "velocity": 86}, {"time": 89638, "pitch": 64, "duration": 10, "velocity": 84}, {"time": 89757, "pitch": 36, "duration": 10, "velocity": 117}, {"time": 89757, "pitch": 42, "duration": 10, "velocity": 106}, {"time": 89757, "pitch": 60, "duration": 10, "velocity": 83}, {"time": 89877, "pitch": 42, "duration": 10, "velocity": 127}, {"time": 89997, "pitch": 42, "duration": 10, "velocity": 127}, {"time": 89997, "pitch": 62, "duration": 10, "velocity": 62}, {"time": 90118, "pitch": 62, "duration": 10, "velocity": 71}, {"time": 90238, "pitch": 38, "duration": 10, "velocity": 117}, {"time": 90238, "pitch": 42, "duration": 10, "velocity": 127}, {"time": 90238, "pitch": 61, "duration": 10, "velocity": 71}, {"time": 90358, "pitch": 64, "duration": 10, "velocity": 84}, {"time": 90479, "pitch": 42, "duration": 10, "velocity": 95}, {"time": 90599, "pitch": 42, "duration": 10, "velocity": 123}, {"time": 90599, "pitch": 64, "duration": 10, "velocity": 91}, {"time": 90719, "pitch": 36, "duration": 10, "velocity": 117}, {"time": 90719, "pitch": 42, "duration": 10, "velocity": 114}, {"time": 90719, "pitch": 60, "duration": 10, "velocity": 80}, {"time": 90840, "pitch": 42, "duration": 10, "velocity": 127}, {"time": 90960, "pitch": 46, "duration": 10, "velocity": 120}, {"time": 90960, "pitch": 62, "duration": 10, "velocity": 63}, {"time": 91080, "pitch": 36, "duration": 10, "velocity": 117}, {"time": 91080, "pitch": 62, "duration": 10, "velocity": 72}, {"time": 91201, "pitch": 38, "duration": 10, "velocity": 117}, {"time": 91201, "pitch": 42, "duration": 10, "velocity": 127}, {"time": 91201, "pitch": 61, "duration": 10, "velocity": 74}, {"time": 91441, "pitch": 36, "duration": 10, "velocity": 117}, {"time": 91441, "pitch": 46, "duration": 10, "velocity": 112}, {"time": 91441, "pitch": 64, "duration": 10, "velocity": 80}, {"time": 91562, "pitch": 64, "duration": 10, "velocity": 78}, {"time": 91682, "pitch": 36, "duration": 10, "velocity": 117}, {"time": 91682, "pitch": 42, "duration": 10, "velocity": 127}, {"time": 91682, "pitch": 60, "duration": 10, "velocity": 76}, {"time": 91688, "pitch": 38, "duration": 10, "velocity": 38}, {"time": 91739, "pitch": 38, "duration": 10, "velocity": 46}, {"time": 91799, "pitch": 38, "duration": 10, "velocity": 61}, {"time": 91850, "pitch": 38, "duration": 10, "velocity": 78}, {"time": 91923, "pitch": 38, "duration": 10, "velocity": 90}, {"time": 91923, "pitch": 46, "duration": 10, "velocity": 119}, {"time": 91923, "pitch": 62, "duration": 10, "velocity": 67}, {"time": 91935, "pitch": 38, "duration": 10, "velocity": 117}, {"time": 92043, "pitch": 62, "duration": 10, "velocity": 77}, {"time": 92163, "pitch": 38, "duration": 10, "velocity": 117}, {"time": 92163, "pitch": 42, "duration": 10, "velocity": 118}, {"time": 92163, "pitch": 63, "duration": 10, "velocity": 66}, {"time": 92282, "pitch": 38, "duration": 10, "velocity": 117}, {"time": 92282, "pitch": 42, "duration": 10, "velocity": 104}, {"time": 92282, "pitch": 64, "duration": 10, "velocity": 97}, {"time": 92400, "pitch": 41, "duration": 10, "velocity": 100}, {"time": 92400, "pitch": 42, "duration": 10, "velocity": 86}, {"time": 92415, "pitch": 41, "duration": 10, "velocity": 127}, {"time": 92519, "pitch": 64, "duration": 10, "velocity": 93}, {"time": 92637, "pitch": 36, "duration": 10, "velocity": 117}, {"time": 92637, "pitch": 42, "duration": 10, "velocity": 118}, {"time": 92637, "pitch": 55, "duration": 10, "velocity": 127}, {"time": 92637, "pitch": 60, "duration": 10, "velocity": 75}, {"time": 92878, "pitch": 42, "duration": 10, "velocity": 110}, {"time": 92878, "pitch": 64, "duration": 10, "velocity": 89}, {"time": 92998, "pitch": 42, "duration": 10, "velocity": 127}, {"time": 92998, "pitch": 64, "duration": 10, "velocity": 87}, {"time": 93119, "pitch": 38, "duration": 10, "velocity": 117}, {"time": 93119, "pitch": 42, "duration": 10, "velocity": 117}, {"time": 93119, "pitch": 57, "duration": 10, "velocity": 127}, {"time": 93119, "pitch": 61, "duration": 10, "velocity": 70}, {"time": 93359, "pitch": 36, "duration": 10, "velocity": 117}, {"time": 93359, "pitch": 42, "duration": 10, "velocity": 106}, {"time": 93359, "pitch": 62, "duration": 10, "velocity": 83}, {"time": 93480, "pitch": 42, "duration": 10, "velocity": 126}, {"time": 93480, "pitch": 62, "duration": 10, "velocity": 66}, {"time": 93600, "pitch": 36, "duration": 10, "velocity": 117}, {"time": 93600, "pitch": 42, "duration": 10, "velocity": 114}, {"time": 93600, "pitch": 60, "duration": 10, "velocity": 78}, {"time": 93720, "pitch": 42, "duration": 10, "velocity": 127}, {"time": 93720, "pitch": 64, "duration": 10, "velocity": 89}, {"time": 93841, "pitch": 46, "duration": 10, "velocity": 116}, {"time": 93961, "pitch": 64, "duration": 10, "velocity": 98}, {"time": 94081, "pitch": 38, "duration": 10, "velocity": 117}, {"time": 94081, "pitch": 42, "duration": 10, "velocity": 115}, {"time": 94081, "pitch": 61, "duration": 10, "velocity": 80}, {"time": 94322, "pitch": 42, "duration": 10, "velocity": 106}, {"time": 94322, "pitch": 62, "duration": 10, "velocity": 71}, {"time": 94442, "pitch": 42, "duration": 10, "velocity": 117}, {"time": 94442, "pitch": 62, "duration": 10, "velocity": 68}, {"time": 94563, "pitch": 36, "duration": 9, "velocity": 117}, {"time": 94563, "pitch": 42, "duration": 9, "velocity": 94}, {"time": 94563, "pitch": 60, "duration": 9, "velocity": 80}, {"time": 94800, "pitch": 42, "duration": 10, "velocity": 113}, {"time": 94800, "pitch": 64, "duration": 10, "velocity": 82}, {"time": 94918, "pitch": 36, "duration": 10, "velocity": 117}, {"time": 94918, "pitch": 42, "duration": 10, "velocity": 127}, {"time": 94918, "pitch": 64, "duration": 10, "velocity": 80}, {"time": 95037, "pitch": 38, "duration": 10, "velocity": 117}, {"time": 95037, "pitch": 46, "duration": 10, "velocity": 116}, {"time": 95037, "pitch": 61, "duration": 10, "velocity": 78}, {"time": 95157, "pitch": 36, "duration": 10, "velocity": 117}, {"time": 95277, "pitch": 42, "duration": 10, "velocity": 111}, {"time": 95277, "pitch": 62, "duration": 10, "velocity": 66}, {"time": 95398, "pitch": 36, "duration": 10, "velocity": 117}, {"time": 95398, "pitch": 42, "duration": 10, "velocity": 119}, {"time": 95398, "pitch": 62, "duration": 10, "velocity": 68}, {"time": 95518, "pitch": 36, "duration": 10, "velocity": 117}, {"time": 95518, "pitch": 42, "duration": 10, "velocity": 97}, {"time": 95518, "pitch": 60, "duration": 10, "velocity": 77}, {"time": 95638, "pitch": 42, "duration": 10, "velocity": 99}, {"time": 95638, "pitch": 64, "duration": 10, "velocity": 96}, {"time": 95759, "pitch": 42, "duration": 10, "velocity": 106}, {"time": 95879, "pitch": 36, "duration": 10, "velocity": 117}, {"time": 95879, "pitch": 42, "duration": 10, "velocity": 127}, {"time": 95879, "pitch": 64, "duration": 10, "velocity": 104}, {"time": 95999, "pitch": 38, "duration": 10, "velocity": 117}, {"time": 95999, "pitch": 63, "duration": 10, "velocity": 73}, {"time": 96120, "pitch": 42, "duration": 10, "velocity": 118}, {"time": 96120, "pitch": 64, "duration": 10, "velocity": 67}, {"time": 96240, "pitch": 36, "duration": 10, "velocity": 117}, {"time": 96240, "pitch": 46, "duration": 10, "velocity": 124}, {"time": 96360, "pitch": 64, "duration": 10, "velocity": 97}, {"time": 96481, "pitch": 36, "duration": 10, "velocity": 117}, {"time": 96481, "pitch": 42, "duration": 10, "velocity": 124}, {"time": 96481, "pitch": 60, "duration": 10, "velocity": 80}, {"time": 96721, "pitch": 42, "duration": 10, "velocity": 104}, {"time": 96721, "pitch": 62, "duration": 10, "velocity": 78}, {"time": 96842, "pitch": 42, "duration": 10, "velocity": 127}, {"time": 96842, "pitch": 62, "duration": 10, "velocity": 68}, {"time": 96962, "pitch": 38, "duration": 10, "velocity": 117}, {"time": 96962, "pitch": 42, "duration": 10, "velocity": 117}, {"time": 96962, "pitch": 61, "duration": 10, "velocity": 63}, {"time": 97203, "pitch": 36, "duration": 10, "velocity": 117}, {"time": 97203, "pitch": 42, "duration": 10, "velocity": 110}, {"time": 97203, "pitch": 64, "duration": 10, "velocity": 31}, {"time": 97323, "pitch": 42, "duration": 10, "velocity": 127}, {"time": 97323, "pitch": 64, "duration": 10, "velocity": 84}, {"time": 97443, "pitch": 36, "duration": 10, "velocity": 117}, {"time": 97443, "pitch": 42, "duration": 10, "velocity": 107}, {"time": 97443, "pitch": 60, "duration": 10, "velocity": 83}, {"time": 97562, "pitch": 42, "duration": 10, "velocity": 127}, {"time": 97680, "pitch": 46, "duration": 10, "velocity": 114}, {"time": 97680, "pitch": 62, "duration": 10, "velocity": 62}, {"time": 97799, "pitch": 62, "duration": 10, "velocity": 71}, {"time": 97917, "pitch": 38, "duration": 10, "velocity": 117}, {"time": 97917, "pitch": 42, "duration": 10, "velocity": 127}, {"time": 97917, "pitch": 61, "duration": 10, "velocity": 71}, {"time": 98038, "pitch": 64, "duration": 10, "velocity": 84}, {"time": 98158, "pitch": 36, "duration": 10, "velocity": 117}, {"time": 98158, "pitch": 42, "duration": 10, "velocity": 78}, {"time": 98278, "pitch": 42, "duration": 10, "velocity": 127}, {"time": 98278, "pitch": 64, "duration": 10, "velocity": 91}, {"time": 98399, "pitch": 36, "duration": 10, "velocity": 117}, {"time": 98399, "pitch": 42, "duration": 10, "velocity": 88}, {"time": 98399, "pitch": 60, "duration": 10, "velocity": 80}, {"time": 98519, "pitch": 42, "duration": 10, "velocity": 127}, {"time": 98639, "pitch": 46, "duration": 10, "velocity": 120}, {"time": 98639, "pitch": 62, "duration": 10, "velocity": 63}, {"time": 98760, "pitch": 36, "duration": 10, "velocity": 117}, {"time": 98760, "pitch": 62, "duration": 10, "velocity": 72}, {"time": 98880, "pitch": 38, "duration": 10, "velocity": 117}, {"time": 98880, "pitch": 42, "duration": 10, "velocity": 127}, {"time": 98880, "pitch": 61, "duration": 10, "velocity": 74}, {"time": 99000, "pitch": 36, "duration": 10, "velocity": 117}, {"time": 99121, "pitch": 46, "duration": 10, "velocity": 116}, {"time": 99121, "pitch": 64, "duration": 10, "velocity": 80}, {"time": 99241, "pitch": 36, "duration": 10, "velocity": 117}, {"time": 99241, "pitch": 64, "duration": 10, "velocity": 78}, {"time": 99361, "pitch": 36, "duration": 10, "velocity": 117}, {"time": 99361, "pitch": 42, "duration": 10, "velocity": 127}, {"time": 99361, "pitch": 60, "duration": 10, "velocity": 76}, {"time": 99367, "pitch": 38, "duration": 10, "velocity": 38}, {"time": 99418, "pitch": 38, "duration": 10, "velocity": 46}, {"time": 99479, "pitch": 38, "duration": 10, "velocity": 61}, {"time": 99530, "pitch": 38, "duration": 10, "velocity": 78}, {"time": 99602, "pitch": 38, "duration": 10, "velocity": 90}, {"time": 99602, "pitch": 46, "duration": 10, "velocity": 119}, {"time": 99602, "pitch": 62, "duration": 10, "velocity": 67}, {"time": 99614, "pitch": 38, "duration": 10, "velocity": 117}, {"time": 99722, "pitch": 62, "duration": 10, "velocity": 77}, {"time": 99843, "pitch": 38, "duration": 9, "velocity": 117}, {"time": 99843, "pitch": 42, "duration": 9, "velocity": 118}, {"time": 99843, "pitch": 63, "duration": 9, "velocity": 66}, {"time": 99961, "pitch": 38, "duration": 10, "velocity": 117}, {"time": 99961, "pitch": 42, "duration": 10, "velocity": 104}, {"time": 99961, "pitch": 64, "duration": 10, "velocity": 97}, {"time": 100080, "pitch": 41, "duration": 10, "velocity": 100}, {"time": 100080, "pitch": 42, "duration": 10, "velocity": 86}, {"time": 100094, "pitch": 41, "duration": 10, "velocity": 127}, {"time": 100198, "pitch": 64, "duration": 10, "velocity": 93}, {"time": 100317, "pitch": 36, "duration": 10, "velocity": 117}, {"time": 100317, "pitch": 42, "duration": 10, "velocity": 127}, {"time": 100317, "pitch": 57, "duration": 10, "velocity": 127}, {"time": 100317, "pitch": 70, "duration": 10, "velocity": 127}, {"time": 100437, "pitch": 42, "duration": 10, "velocity": 127}, {"time": 100437, "pitch": 70, "duration": 10, "velocity": 127}, {"time": 100557, "pitch": 46, "duration": 10, "velocity": 127}, {"time": 100557, "pitch": 54, "duration": 10, "velocity": 117}, {"time": 100678, "pitch": 36, "duration": 10, "velocity": 117}, {"time": 100798, "pitch": 38, "duration": 10, "velocity": 117}, {"time": 100798, "pitch": 42, "duration": 10, "velocity": 127}, {"time": 100798, "pitch": 70, "duration": 10, "velocity": 127}, {"time": 101039, "pitch": 36, "duration": 10, "velocity": 117}, {"time": 101039, "pitch": 46, "duration": 10, "velocity": 127}, {"time": 101039, "pitch": 54, "duration": 10, "velocity": 117}, {"time": 101279, "pitch": 36, "duration": 10, "velocity": 117}, {"time": 101279, "pitch": 42, "duration": 10, "velocity": 127}, {"time": 101279, "pitch": 70, "duration": 10, "velocity": 127}, {"time": 101400, "pitch": 70, "duration": 10, "velocity": 127}, {"time": 101520, "pitch": 46, "duration": 10, "velocity": 127}, {"time": 101520, "pitch": 54, "duration": 10, "velocity": 117}, {"time": 101761, "pitch": 38, "duration": 10, "velocity": 117}, {"time": 101761, "pitch": 42, "duration": 10, "velocity": 127}, {"time": 101761, "pitch": 70, "duration": 10, "velocity": 127}, {"time": 102001, "pitch": 46, "duration": 10, "velocity": 127}, {"time": 102001, "pitch": 54, "duration": 10, "velocity": 117}, {"time": 102242, "pitch": 36, "duration": 10, "velocity": 117}, {"time": 102242, "pitch": 42, "duration": 10, "velocity": 127}, {"time": 102242, "pitch": 70, "duration": 10, "velocity": 127}, {"time": 102362, "pitch": 42, "duration": 10, "velocity": 127}, {"time": 102362, "pitch": 70, "duration": 10, "velocity": 127}, {"time": 102483, "pitch": 46, "duration": 10, "velocity": 127}, {"time": 102483, "pitch": 54, "duration": 10, "velocity": 117}, {"time": 102603, "pitch": 36, "duration": 10, "velocity": 117}, {"time": 102603, "pitch": 70, "duration": 10, "velocity": 127}, {"time": 102723, "pitch": 38, "duration": 10, "velocity": 117}, {"time": 102723, "pitch": 42, "duration": 10, "velocity": 127}, {"time": 102842, "pitch": 70, "duration": 10, "velocity": 127}, {"time": 102960, "pitch": 36, "duration": 10, "velocity": 117}, {"time": 102960, "pitch": 46, "duration": 10, "velocity": 127}, {"time": 102960, "pitch": 54, "duration": 10, "velocity": 117}, {"time": 103197, "pitch": 36, "duration": 10, "velocity": 117}, {"time": 103197, "pitch": 42, "duration": 10, "velocity": 127}, {"time": 103197, "pitch": 70, "duration": 10, "velocity": 127}, {"time": 103318, "pitch": 70, "duration": 10, "velocity": 127}, {"time": 103321, "pitch": 38, "duration": 10, "velocity": 15}, {"time": 103372, "pitch": 38, "duration": 10, "velocity": 26}, {"time": 103429, "pitch": 38, "duration": 10, "velocity": 47}, {"time": 103438, "pitch": 46, "duration": 10, "velocity": 127}, {"time": 103438, "pitch": 54, "duration": 10, "velocity": 117}, {"time": 103480, "pitch": 38, "duration": 10, "velocity": 74}, {"time": 103558, "pitch": 50, "duration": 10, "velocity": 100}, {"time": 103579, "pitch": 50, "duration": 10, "velocity": 127}, {"time": 103679, "pitch": 42, "duration": 10, "velocity": 127}, {"time": 103679, "pitch": 45, "duration": 10, "velocity": 100}, {"time": 103679, "pitch": 70, "duration": 10, "velocity": 127}, {"time": 103700, "pitch": 45, "duration": 10, "velocity": 127}, {"time": 103919, "pitch": 38, "duration": 10, "velocity": 117}, {"time": 103919, "pitch": 43, "duration": 10, "velocity": 100}, {"time": 103919, "pitch": 46, "duration": 10, "velocity": 127}, {"time": 103919, "pitch": 54, "duration": 10, "velocity": 117}, {"time": 103940, "pitch": 43, "duration": 10, "velocity": 127}, {"time": 104160, "pitch": 36, "duration": 10, "velocity": 117}, {"time": 104160, "pitch": 42, "duration": 10, "velocity": 127}, {"time": 104160, "pitch": 55, "duration": 10, "velocity": 127}, {"time": 104160, "pitch": 70, "duration": 10, "velocity": 127}, {"time": 104280, "pitch": 42, "duration": 10, "velocity": 127}, {"time": 104280, "pitch": 70, "duration": 10, "velocity": 127}, {"time": 104401, "pitch": 46, "duration": 10, "velocity": 127}, {"time": 104401, "pitch": 54, "duration": 10, "velocity": 117}, {"time": 104521, "pitch": 36, "duration": 10, "velocity": 117}, {"time": 104641, "pitch": 38, "duration": 10, "velocity": 117}, {"time": 104641, "pitch": 42, "duration": 10, "velocity": 127}, {"time": 104641, "pitch": 70, "duration": 10, "velocity": 127}, {"time": 104882, "pitch": 36, "duration": 10, "velocity": 117}, {"time": 104882, "pitch": 46, "duration": 10, "velocity": 127}, {"time": 104882, "pitch": 54, "duration": 10, "velocity": 117}, {"time": 105123, "pitch": 36, "duration": 9, "velocity": 117}, {"time": 105123, "pitch": 42, "duration": 9, "velocity": 127}, {"time": 105123, "pitch": 70, "duration": 9, "velocity": 127}, {"time": 105241, "pitch": 70, "duration": 10, "velocity": 127}, {"time": 105360, "pitch": 46, "duration": 10, "velocity": 127}, {"time": 105360, "pitch": 54, "duration": 10, "velocity": 117}, {"time": 105597, "pitch": 38, "duration": 10, "velocity": 117}, {"time": 105597, "pitch": 42, "duration": 10, "velocity": 127}, {"time": 105597, "pitch": 70, "duration": 10, "velocity": 127}, {"time": 105837, "pitch": 46, "duration": 10, "velocity": 127}, {"time": 105837, "pitch": 54, "duration": 10, "velocity": 117}, {"time": 106078, "pitch": 36, "duration": 10, "velocity": 117}, {"time": 106078, "pitch": 42, "duration": 10, "velocity": 127}, {"time": 106078, "pitch": 70, "duration": 10, "velocity": 127}, {"time": 106198, "pitch": 42, "duration": 10, "velocity": 127}, {"time": 106198, "pitch": 70, "duration": 10, "velocity": 127}, {"time": 106319, "pitch": 46, "duration": 10, "velocity": 127}, {"time": 106319, "pitch": 54, "duration": 10, "velocity": 117}, {"time": 106439, "pitch": 36, "duration": 10, "velocity": 117}, {"time": 106439, "pitch": 70, "duration": 10, "velocity": 127}, {"time": 106559, "pitch": 38, "duration": 10, "velocity": 117}, {"time": 106559, "pitch": 42, "duration": 10, "velocity": 127}, {"time": 106559, "pitch": 70, "duration": 10, "velocity": 127}, {"time": 106800, "pitch": 36, "duration": 10, "velocity": 117}, {"time": 106800, "pitch": 46, "duration": 10, "velocity": 127}, {"time": 106800, "pitch": 54, "duration": 10, "velocity": 117}, {"time": 107041, "pitch": 36, "duration": 10, "velocity": 117}, {"time": 107041, "pitch": 42, "duration": 10, "velocity": 127}, {"time": 107041, "pitch": 70, "duration": 10, "velocity": 127}, {"time": 107161, "pitch": 70, "duration": 10, "velocity": 127}, {"time": 107164, "pitch": 38, "duration": 10, "velocity": 15}, {"time": 107215, "pitch": 38, "duration": 10, "velocity": 26}, {"time": 107272, "pitch": 38, "duration": 10, "velocity": 47}, {"time": 107281, "pitch": 46, "duration": 10, "velocity": 127}, {"time": 107281, "pitch": 54, "duration": 10, "velocity": 117}, {"time": 107323, "pitch": 38, "duration": 10, "velocity": 74}, {"time": 107402, "pitch": 50, "duration": 10, "velocity": 100}, {"time": 107402, "pitch": 70, "duration": 10, "velocity": 127}, {"time": 107423, "pitch": 50, "duration": 10, "velocity": 127}, {"time": 107522, "pitch": 42, "duration": 10, "velocity": 127}, {"time": 107522, "pitch": 45, "duration": 10, "velocity": 100}, {"time": 107522, "pitch": 70, "duration": 10, "velocity": 127}, {"time": 107543, "pitch": 45, "duration": 10, "velocity": 127}, {"time": 107763, "pitch": 38, "duration": 10, "velocity": 117}, {"time": 107763, "pitch": 43, "duration": 10, "velocity": 100}, {"time": 107763, "pitch": 46, "duration": 10, "velocity": 127}, {"time": 107763, "pitch": 54, "duration": 10, "velocity": 117}, {"time": 107784, "pitch": 43, "duration": 10, "velocity": 127}, {"time": 108003, "pitch": 36, "duration": 10, "velocity": 117}, {"time": 108003, "pitch": 42, "duration": 10, "velocity": 127}, {"time": 108003, "pitch": 55, "duration": 10, "velocity": 127}, {"time": 108003, "pitch": 70, "duration": 10, "velocity": 127}, {"time": 108122, "pitch": 42, "duration": 10, "velocity": 127}, {"time": 108122, "pitch": 70, "duration": 10, "velocity": 127}, {"time": 108240, "pitch": 46, "duration": 10, "velocity": 127}, {"time": 108240, "pitch": 54, "duration": 10, "velocity": 117}, {"time": 108359, "pitch": 36, "duration": 10, "velocity": 117}, {"time": 108477, "pitch": 38, "duration": 10, "velocity": 117}, {"time": 108477, "pitch": 42, "duration": 10, "velocity": 127}, {"time": 108477, "pitch": 70, "duration": 10, "velocity": 127}, {"time": 108598, "pitch": 36, "duration": 10, "velocity": 117}, {"time": 108718, "pitch": 46, "duration": 10, "velocity": 127}, {"time": 108718, "pitch": 54, "duration": 10, "velocity": 117}, {"time": 108838, "pitch": 36, "duration": 10, "velocity": 117}, {"time": 108959, "pitch": 42, "duration": 10, "velocity": 127}, {"time": 108959, "pitch": 70, "duration": 10, "velocity": 127}, {"time": 109079, "pitch": 70, "duration": 10, "velocity": 127}, {"time": 109199, "pitch": 46, "duration": 10, "velocity": 127}, {"time": 109199, "pitch": 54, "duration": 10, "velocity": 117}, {"time": 109440, "pitch": 38, "duration": 10, "velocity": 117}, {"time": 109440, "pitch": 42, "duration": 10, "velocity": 127}, {"time": 109440, "pitch": 70, "duration": 10, "velocity": 127}, {"time": 109560, "pitch": 70, "duration": 10, "velocity": 127}, {"time": 109681, "pitch": 46, "duration": 10, "velocity": 127}, {"time": 109681, "pitch": 54, "duration": 10, "velocity": 117}, {"time": 109801, "pitch": 36, "duration": 10, "velocity": 117}, {"time": 109921, "pitch": 36, "duration": 10, "velocity": 117}, {"time": 109921, "pitch": 42, "duration": 10, "velocity": 127}, {"time": 109921, "pitch": 70, "duration": 10, "velocity": 127}, {"time": 110042, "pitch": 42, "duration": 10, "velocity": 127}, {"time": 110042, "pitch": 70, "duration": 10, "velocity": 127}, {"time": 110162, "pitch": 46, "duration": 10, "velocity": 127}, {"time": 110162, "pitch": 54, "duration": 10, "velocity": 117}, {"time": 110282, "pitch": 36, "duration": 10, "velocity": 117}, {"time": 110282, "pitch": 70, "duration": 10, "velocity": 127}, {"time": 110403, "pitch": 38, "duration": 9, "velocity": 117}, {"time": 110403, "pitch": 42, "duration": 9, "velocity": 127}, {"time": 110403, "pitch": 70, "duration": 9, "velocity": 127}, {"time": 110640, "pitch": 36, "duration": 10, "velocity": 117}, {"time": 110640, "pitch": 46, "duration": 10, "velocity": 127}, {"time": 110640, "pitch": 54, "duration": 10, "velocity": 117}, {"time": 110877, "pitch": 36, "duration": 10, "velocity": 117}, {"time": 110877, "pitch": 42, "duration": 10, "velocity": 127}, {"time": 110877, "pitch": 70, "duration": 10, "velocity": 127}, {"time": 110997, "pitch": 70, "duration": 10, "velocity": 127}, {"time": 111000, "pitch": 38, "duration": 10, "velocity": 15}, {"time": 111051, "pitch": 38, "duration": 10, "velocity": 26}, {"time": 111108, "pitch": 38, "duration": 10, "velocity": 47}, {"time": 111117, "pitch": 46, "duration": 10, "velocity": 127}, {"time": 111117, "pitch": 54, "duration": 10, "velocity": 117}, {"time": 111160, "pitch": 38, "duration": 10, "velocity": 74}, {"time": 111238, "pitch": 50, "duration": 10, "velocity": 100}, {"time": 111238, "pitch": 70, "duration": 10, "velocity": 127}, {"time": 111259, "pitch": 50, "duration": 10, "velocity": 127}, {"time": 111358, "pitch": 42, "duration": 10, "velocity": 127}, {"time": 111358, "pitch": 45, "duration": 10, "velocity": 100}, {"time": 111358, "pitch": 70, "duration": 10, "velocity": 127}, {"time": 111379, "pitch": 45, "duration": 10, "velocity": 127}, {"time": 111599, "pitch": 38, "duration": 10, "velocity": 117}, {"time": 111599, "pitch": 43, "duration": 10, "velocity": 100}, {"time": 111599, "pitch": 46, "duration": 10, "velocity": 127}, {"time": 111599, "pitch": 54, "duration": 10, "velocity": 117}, {"time": 111620, "pitch": 43, "duration": 10, "velocity": 127}, {"time": 111839, "pitch": 36, "duration": 10, "velocity": 117}, {"time": 111839, "pitch": 42, "duration": 10, "velocity": 127}, {"time": 111839, "pitch": 55, "duration": 10, "velocity": 127}, {"time": 111839, "pitch": 70, "duration": 10, "velocity": 127}, {"time": 111960, "pitch": 42, "duration": 10, "velocity": 127}, {"time": 111960, "pitch": 70, "duration": 10, "velocity": 127}, {"time": 112080, "pitch": 46, "duration": 10, "velocity": 127}, {"time": 112080, "pitch": 54, "duration": 10, "velocity": 117}, {"time": 112200, "pitch": 36, "duration": 10, "velocity": 117}, {"time": 112321, "pitch": 38, "duration": 10, "velocity": 117}, {"time": 112321, "pitch": 42, "duration": 10, "velocity": 127}, {"time": 112321, "pitch": 70, "duration": 10, "velocity": 127}, {"time": 112441, "pitch": 70, "duration": 10, "velocity": 127}, {"time": 112561, "pitch": 36, "duration": 10, "velocity": 117}, {"time": 112561, "pitch": 46, "duration": 10, "velocity": 127}, {"time": 112561, "pitch": 54, "duration": 10, "velocity": 117}, {"time": 112802, "pitch": 36, "duration": 10, "velocity": 117}, {"time": 112802, "pitch": 42, "duration": 10, "velocity": 127}, {"time": 112802, "pitch": 70, "duration": 10, "velocity": 127}, {"time": 112922, "pitch": 70, "duration": 10, "velocity": 127}, {"time": 113043, "pitch": 46, "duration": 10, "velocity": 127}, {"time": 113043, "pitch": 54, "duration": 10, "velocity": 117}, {"time": 113283, "pitch": 38, "duration": 10, "velocity": 117}, {"time": 113283, "pitch": 42, "duration": 10, "velocity": 127}, {"time": 113283, "pitch": 70, "duration": 10, "velocity": 127}, {"time": 113402, "pitch": 70, "duration": 10, "velocity": 127}, {"time": 113520, "pitch": 46, "duration": 10, "velocity": 127}, {"time": 113520, "pitch": 54, "duration": 10, "velocity": 117}, {"time": 113757, "pitch": 36, "duration": 10, "velocity": 117}, {"time": 113757, "pitch": 42, "duration": 10, "velocity": 127}, {"time": 113757, "pitch": 70, "duration": 10, "velocity": 127}, {"time": 113878, "pitch": 42, "duration": 10, "velocity": 127}, {"time": 113878, "pitch": 70, "duration": 10, "velocity": 127}, {"time": 113998, "pitch": 46, "duration": 10, "velocity": 127}, {"time": 113998, "pitch": 54, "duration": 10, "velocity": 117}, {"time": 114118, "pitch": 36, "duration": 10, "velocity": 117}, {"time": 114118, "pitch": 70, "duration": 10, "velocity": 127}, {"time": 114239, "pitch": 38, "duration": 10, "velocity": 117}, {"time": 114239, "pitch": 42, "duration": 10, "velocity": 127}, {"time": 114239, "pitch": 70, "duration": 10, "velocity": 127}, {"time": 114479, "pitch": 36, "duration": 10, "velocity": 117}, {"time": 114479, "pitch": 46, "duration": 10, "velocity": 127}, {"time": 114479, "pitch": 54, "duration": 10, "velocity": 117}, {"time": 114720, "pitch": 36, "duration": 10, "velocity": 117}, {"time": 114720, "pitch": 42, "duration": 10, "velocity": 127}, {"time": 114720, "pitch": 70, "duration": 10, "velocity": 127}, {"time": 114840, "pitch": 70, "duration": 10, "velocity": 127}, {"time": 114843, "pitch": 38, "duration": 10, "velocity": 15}, {"time": 114894, "pitch": 38, "duration": 10, "velocity": 26}, {"time": 114952, "pitch": 38, "duration": 10, "velocity": 47}, {"time": 114961, "pitch": 46, "duration": 10, "velocity": 127}, {"time": 114961, "pitch": 54, "duration": 10, "velocity": 117}, {"time": 115003, "pitch": 38, "duration": 10, "velocity": 74}, {"time": 115081, "pitch": 50, "duration": 10, "velocity": 100}, {"time": 115081, "pitch": 70, "duration": 10, "velocity": 127}, {"time": 115102, "pitch": 50, "duration": 10, "velocity": 127}, {"time": 115201, "pitch": 42, "duration": 10, "velocity": 127}, {"time": 115201, "pitch": 45, "duration": 10, "velocity": 100}, {"time": 115201, "pitch": 70, "duration": 10, "velocity": 127}, {"time": 115222, "pitch": 45, "duration": 10, "velocity": 127}, {"time": 115442, "pitch": 38, "duration": 10, "velocity": 117}, {"time": 115442, "pitch": 43, "duration": 10, "velocity": 100}, {"time": 115442, "pitch": 46, "duration": 10, "velocity": 127}, {"time": 115442, "pitch": 54, "duration": 10, "velocity": 117}, {"time": 115463, "pitch": 43, "duration": 10, "velocity": 127}, {"time": 115682, "pitch": 36, "duration": 10, "velocity": 117}, {"time": 115682, "pitch": 42, "duration": 10, "velocity": 127}, {"time": 115682, "pitch": 55, "duration": 10, "velocity": 127}, {"time": 115682, "pitch": 70, "duration": 10, "velocity": 127}, {"time": 115801, "pitch": 42, "duration": 10, "velocity": 127}, {"time": 115801, "pitch": 70, "duration": 10, "velocity": 127}, {"time": 115920, "pitch": 46, "duration": 10, "velocity": 127}, {"time": 115920, "pitch": 54, "duration": 10, "velocity": 117}, {"time": 116038, "pitch": 36, "duration": 10, "velocity": 117}, {"time": 116157, "pitch": 38, "duration": 10, "velocity": 117}, {"time": 116157, "pitch": 42, "duration": 10, "velocity": 127}, {"time": 116157, "pitch": 70, "duration": 10, "velocity": 127}, {"time": 116277, "pitch": 70, "duration": 10, "velocity": 127}, {"time": 116397, "pitch": 36, "duration": 10, "velocity": 117}, {"time": 116397, "pitch": 46, "duration": 10, "velocity": 127}, {"time": 116397, "pitch": 54, "duration": 10, "velocity": 117}, {"time": 116638, "pitch": 36, "duration": 10, "velocity": 117}, {"time": 116638, "pitch": 42, "duration": 10, "velocity": 127}, {"time": 116638, "pitch": 70, "duration": 10, "velocity": 127}, {"time": 116758, "pitch": 70, "duration": 10, "velocity": 127}, {"time": 116879, "pitch": 46, "duration": 10, "velocity": 127}, {"time": 116879, "pitch": 54, "duration": 10, "velocity": 117}, {"time": 116882, "pitch": 38, "duration": 10, "velocity": 22}, {"time": 116948, "pitch": 38, "duration": 10, "velocity": 36}, {"time": 116999, "pitch": 36, "duration": 10, "velocity": 117}, {"time": 117000, "pitch": 38, "duration": 10, "velocity": 60}, {"time": 117066, "pitch": 38, "duration": 10, "velocity": 106}, {"time": 117119, "pitch": 38, "duration": 10, "velocity": 117}, {"time": 117119, "pitch": 42, "duration": 10, "velocity": 127}, {"time": 117119, "pitch": 70, "duration": 10, "velocity": 127}, {"time": 117240, "pitch": 38, "duration": 10, "velocity": 117}, {"time": 117240, "pitch": 70, "duration": 10, "velocity": 127}, {"time": 117360, "pitch": 38, "duration": 10, "velocity": 117}, {"time": 117360, "pitch": 46, "duration": 10, "velocity": 127}, {"time": 117360, "pitch": 54, "duration": 10, "velocity": 117}, {"time": 117480, "pitch": 38, "duration": 10, "velocity": 117}, {"time": 117601, "pitch": 38, "duration": 10, "velocity": 117}, {"time": 117601, "pitch": 42, "duration": 10, "velocity": 127}, {"time": 117601, "pitch": 57, "duration": 10, "velocity": 127}, {"time": 121437, "pitch": 36, "duration": 10, "velocity": 117}, {"time": 121437, "pitch": 50, "duration": 10, "velocity": 90}, {"time": 121455, "pitch": 50, "duration": 10, "velocity": 127}, {"time": 121798, "pitch": 36, "duration": 10, "velocity": 117}, {"time": 121798, "pitch": 47, "duration": 10, "velocity": 90}, {"time": 121816, "pitch": 47, "duration": 10, "velocity": 127}, {"time": 122159, "pitch": 36, "duration": 10, "velocity": 117}, {"time": 122159, "pitch": 44, "duration": 10, "velocity": 127}, {"time": 122159, "pitch": 45, "duration": 10, "velocity": 90}, {"time": 122180, "pitch": 45, "duration": 10, "velocity": 127}, {"time": 122399, "pitch": 36, "duration": 10, "velocity": 117}, {"time": 122399, "pitch": 64, "duration": 10, "velocity": 107}, {"time": 122520, "pitch": 64, "duration": 10, "velocity": 107}, {"time": 122640, "pitch": 36, "duration": 10, "velocity": 117}, {"time": 122640, "pitch": 39, "duration": 10, "velocity": 127}, {"time": 122640, "pitch": 44, "duration": 10, "velocity": 115}, {"time": 122640, "pitch": 60, "duration": 10, "velocity": 107}, {"time": 122881, "pitch": 44, "duration": 10, "velocity": 127}, {"time": 122881, "pitch": 62, "duration": 10, "velocity": 107}, {"time": 123121, "pitch": 36, "duration": 10, "velocity": 117}, {"time": 123121, "pitch": 39, "duration": 10, "velocity": 127}, {"time": 123121, "pitch": 44, "duration": 10, "velocity": 127}, {"time": 123121, "pitch": 61, "duration": 10, "velocity": 107}, {"time": 123242, "pitch": 36, "duration": 10, "velocity": 117}, {"time": 123242, "pitch": 39, "duration": 10, "velocity": 127}, {"time": 123362, "pitch": 36, "duration": 10, "velocity": 117}, {"time": 123362, "pitch": 42, "duration": 10, "velocity": 118}, {"time": 123362, "pitch": 49, "duration": 10, "velocity": 100}, {"time": 123362, "pitch": 60, "duration": 10, "velocity": 75}, {"time": 123482, "pitch": 42, "duration": 10, "velocity": 127}, {"time": 123603, "pitch": 46, "duration": 10, "velocity": 118}, {"time": 123603, "pitch": 62, "duration": 10, "velocity": 78}, {"time": 123723, "pitch": 62, "duration": 10, "velocity": 68}, {"time": 123843, "pitch": 38, "duration": 10, "velocity": 117}, {"time": 123843, "pitch": 42, "duration": 10, "velocity": 127}, {"time": 123843, "pitch": 61, "duration": 10, "velocity": 63}, {"time": 124080, "pitch": 36, "duration": 10, "velocity": 117}, {"time": 124080, "pitch": 42, "duration": 10, "velocity": 76}, {"time": 124080, "pitch": 64, "duration": 10, "velocity": 31}, {"time": 124199, "pitch": 42, "duration": 10, "velocity": 86}, {"time": 124199, "pitch": 64, "duration": 10, "velocity": 84}, {"time": 124317, "pitch": 36, "duration": 10, "velocity": 117}, {"time": 124317, "pitch": 42, "duration": 10, "velocity": 106}, {"time": 124317, "pitch": 60, "duration": 10, "velocity": 83}, {"time": 124438, "pitch": 42, "duration": 10, "velocity": 127}, {"time": 124558, "pitch": 42, "duration": 10, "velocity": 127}, {"time": 124558, "pitch": 62, "duration": 10, "velocity": 62}, {"time": 124678, "pitch": 62, "duration": 10, "velocity": 71}, {"time": 124799, "pitch": 38, "duration": 10, "velocity": 117}, {"time": 124799, "pitch": 42, "duration": 10, "velocity": 127}, {"time": 124799, "pitch": 61, "duration": 10, "velocity": 71}, {"time": 124919, "pitch": 64, "duration": 10, "velocity": 84}, {"time": 125039, "pitch": 42, "duration": 10, "velocity": 95}, {"time": 125160, "pitch": 42, "duration": 10, "velocity": 123}, {"time": 125160, "pitch": 64, "duration": 10, "velocity": 91}, {"time": 125280, "pitch": 36, "duration": 10, "velocity": 117}, {"time": 125280, "pitch": 42, "duration": 10, "velocity": 114}, {"time": 125280, "pitch": 60, "duration": 10, "velocity": 80}, {"time": 125400, "pitch": 42, "duration": 10, "velocity": 127}, {"time": 125521, "pitch": 46, "duration": 10, "velocity": 120}, {"time": 125521, "pitch": 62, "duration": 10, "velocity": 63}, {"time": 125641, "pitch": 36, "duration": 10, "velocity": 117}, {"time": 125641, "pitch": 62, "duration": 10, "velocity": 72}, {"time": 125761, "pitch": 38, "duration": 10, "velocity": 117}, {"time": 125761, "pitch": 42, "duration": 10, "velocity": 127}, {"time": 125761, "pitch": 61, "duration": 10, "velocity": 74}, {"time": 126002, "pitch": 36, "duration": 10, "velocity": 117}, {"time": 126002, "pitch": 46, "duration": 10, "velocity": 112}, {"time": 126002, "pitch": 64, "duration": 10, "velocity": 80}, {"time": 126122, "pitch": 64, "duration": 10, "velocity": 78}, {"time": 126242, "pitch": 36, "duration": 10, "velocity": 117}, {"time": 126242, "pitch": 42, "duration": 10, "velocity": 127}, {"time": 126242, "pitch": 60, "duration": 10, "velocity": 76}, {"time": 126248, "pitch": 38, "duration": 10, "velocity": 38}, {"time": 126299, "pitch": 38, "duration": 10, "velocity": 46}, {"time": 126358, "pitch": 38, "duration": 10, "velocity": 61}, {"time": 126409, "pitch": 38, "duration": 9, "velocity": 78}, {"time": 126480, "pitch": 38, "duration": 10, "velocity": 90}, {"time": 126480, "pitch": 46, "duration": 10, "velocity": 119}, {"time": 126480, "pitch": 62, "duration": 10, "velocity": 67}, {"time": 126492, "pitch": 38, "duration": 9, "velocity": 117}, {"time": 126598, "pitch": 62, "duration": 10, "velocity": 77}, {"time": 126717, "pitch": 38, "duration": 10, "velocity": 117}, {"time": 126717, "pitch": 42, "duration": 10, "velocity": 118}, {"time": 126717, "pitch": 63, "duration": 10, "velocity": 66}, {"time": 126837, "pitch": 38, "duration": 10, "velocity": 117}, {"time": 126837, "pitch": 42, "duration": 10, "velocity": 104}, {"time": 126837, "pitch": 64, "duration": 10, "velocity": 97}, {"time": 126957, "pitch": 41, "duration": 10, "velocity": 100}, {"time": 126957, "pitch": 42, "duration": 10, "velocity": 86}, {"time": 126972, "pitch": 41, "duration": 10, "velocity": 127}, {"time": 127078, "pitch": 64, "duration": 10, "velocity": 93}, {"time": 127198, "pitch": 36, "duration": 10, "velocity": 117}, {"time": 127198, "pitch": 42, "duration": 10, "velocity": 120}, {"time": 127198, "pitch": 60, "duration": 10, "velocity": 75}, {"time": 127318, "pitch": 42, "duration": 10, "velocity": 99}, {"time": 127439, "pitch": 46, "duration": 10, "velocity": 124}, {"time": 127439, "pitch": 64, "duration": 10, "velocity": 89}, {"time": 127559, "pitch": 64, "duration": 10, "velocity": 87}, {"time": 127679, "pitch": 38, "duration": 10, "velocity": 117}, {"time": 127679, "pitch": 42, "duration": 10, "velocity": 127}, {"time": 127679, "pitch": 61, "duration": 10, "velocity": 70}, {"time": 127920, "pitch": 42, "duration": 10, "velocity": 90}, {"time": 127920, "pitch": 62, "duration": 10, "velocity": 83}, {"time": 128040, "pitch": 42, "duration": 10, "velocity": 108}, {"time": 128040, "pitch": 62, "duration": 10, "velocity": 66}, {"time": 128161, "pitch": 36, "duration": 10, "velocity": 117}, {"time": 128161, "pitch": 42, "duration": 10, "velocity": 112}, {"time": 128161, "pitch": 60, "duration": 10, "velocity": 78}, {"time": 128281, "pitch": 64, "duration": 10, "velocity": 89}, {"time": 128401, "pitch": 42, "duration": 10, "velocity": 117}, {"time": 128522, "pitch": 42, "duration": 10, "velocity": 84}, {"time": 128522, "pitch": 64, "duration": 10, "velocity": 98}, {"time": 128642, "pitch": 38, "duration": 10, "velocity": 117}, {"time": 128642, "pitch": 42, "duration": 10, "velocity": 110}, {"time": 128642, "pitch": 61, "duration": 10, "velocity": 80}, {"time": 128883, "pitch": 36, "duration": 10, "velocity": 117}, {"time": 128883, "pitch": 42, "duration": 10, "velocity": 114}, {"time": 128883, "pitch": 62, "duration": 10, "velocity": 71}, {"time": 129003, "pitch": 42, "duration": 10, "velocity": 104}, {"time": 129003, "pitch": 62, "duration": 10, "velocity": 68}, {"time": 129123, "pitch": 36, "duration": 10, "velocity": 117}, {"time": 129123, "pitch": 42, "duration": 10, "velocity": 124}, {"time": 129123, "pitch": 60, "duration": 10, "velocity": 80}, {"time": 129242, "pitch": 42, "duration": 10, "velocity": 127}, {"time": 129360, "pitch": 46, "duration": 10, "velocity": 125}, {"time": 129360, "pitch": 64, "duration": 10, "velocity": 82}, {"time": 129479, "pitch": 36, "duration": 10, "velocity": 117}, {"time": 129479, "pitch": 64, "duration": 10, "velocity": 80}, {"time": 129597, "pitch": 38, "duration": 10, "velocity": 117}, {"time": 129597, "pitch": 42, "duration": 10, "velocity": 127}, {"time": 129597, "pitch": 61, "duration": 10, "velocity": 78}, {"time": 129838, "pitch": 36, "duration": 10, "velocity": 117}, {"time": 129838, "pitch": 42, "duration": 10, "velocity": 104}, {"time": 129838, "pitch": 62, "duration": 10, "velocity": 66}, {"time": 129958, "pitch": 42, "duration": 10, "velocity": 104}, {"time": 129958, "pitch": 62, "duration": 10, "velocity": 68}, {"time": 130079, "pitch": 36, "duration": 10, "velocity": 117}, {"time": 130079, "pitch": 42, "duration": 10, "velocity": 88}, {"time": 130079, "pitch": 60, "duration": 10, "velocity": 77}, {"time": 130199, "pitch": 42, "duration": 10, "velocity": 127}, {"time": 130199, "pitch": 64, "duration": 10, "velocity": 96}, {"time": 130319, "pitch": 42, "duration": 10, "velocity": 105}, {"time": 130440, "pitch": 64, "duration": 10, "velocity": 104}, {"time": 130560, "pitch": 38, "duration": 10, "velocity": 117}, {"time": 130560, "pitch": 42, "duration": 10, "velocity": 127}, {"time": 130560, "pitch": 63, "duration": 10, "velocity": 73}, {"time": 130680, "pitch": 64, "duration": 10, "velocity": 67}, {"time": 130801, "pitch": 42, "duration": 10, "velocity": 93}, {"time": 130921, "pitch": 42, "duration": 10, "velocity": 120}, {"time": 130921, "pitch": 64, "duration": 10, "velocity": 97}, {"time": 131041, "pitch": 36, "duration": 10, "velocity": 117}, {"time": 131041, "pitch": 42, "duration": 10, "velocity": 122}, {"time": 131041, "pitch": 60, "duration": 10, "velocity": 80}, {"time": 131162, "pitch": 42, "duration": 10, "velocity": 127}, {"time": 131282, "pitch": 46, "duration": 10, "velocity": 118}, {"time": 131282, "pitch": 62, "duration": 10, "velocity": 78}, {"time": 131402, "pitch": 62, "duration": 10, "velocity": 68}, {"time": 131522, "pitch": 38, "duration": 10, "velocity": 117}, {"time": 131522, "pitch": 42, "duration": 10, "velocity": 127}, {"time": 131522, "pitch": 61, "duration": 10, "velocity": 63}, {"time": 131760, "pitch": 36, "duration": 10, "velocity": 117}, {"time": 131760, "pitch": 42, "duration": 10, "velocity": 76}, {"time": 131760, "pitch": 64, "duration": 10, "velocity": 31}, {"time": 131878, "pitch": 42, "duration": 10, "velocity": 86}, {"time": 131878, "pitch": 64, "duration": 10, "velocity": 84}, {"time": 131997, "pitch": 36, "duration": 10, "velocity": 117}, {"time": 131997, "pitch": 42, "duration": 10, "velocity": 106}, {"time": 131997, "pitch": 60, "duration": 10, "velocity": 83}, {"time": 132117, "pitch": 42, "duration": 10, "velocity": 127}, {"time": 132237, "pitch": 42, "duration": 10, "velocity": 127}, {"time": 132237, "pitch": 62, "duration": 10, "velocity": 62}, {"time": 132358, "pitch": 62, "duration": 10, "velocity": 71}, {"time": 132478, "pitch": 38, "duration": 10, "velocity": 117}, {"time": 132478, "pitch": 42, "duration": 10, "velocity": 127}, {"time": 132478, "pitch": 61, "duration": 10, "velocity": 71}, {"time": 132598, "pitch": 64, "duration": 10, "velocity": 84}, {"time": 132719, "pitch": 42, "duration": 10, "velocity": 95}, {"time": 132839, "pitch": 42, "duration": 10, "velocity": 123}, {"time": 132839, "pitch": 64, "duration": 10, "velocity": 91}, {"time": 132959, "pitch": 36, "duration": 10, "velocity": 117}, {"time": 132959, "pitch": 42, "duration": 10, "velocity": 114}, {"time": 132959, "pitch": 60, "duration": 10, "velocity": 80}, {"time": 133080, "pitch": 42, "duration": 10, "velocity": 127}, {"time": 133200, "pitch": 46, "duration": 10, "velocity": 120}, {"time": 133200, "pitch": 62, "duration": 10, "velocity": 63}, {"time": 133320, "pitch": 36, "duration": 10, "velocity": 117}, {"time": 133320, "pitch": 62, "duration": 10, "velocity": 72}, {"time": 133441, "pitch": 38, "duration": 10, "velocity": 117}, {"time": 133441, "pitch": 42, "duration": 10, "velocity": 127}, {"time": 133441, "pitch": 61, "duration": 10, "velocity": 74}, {"time": 133681, "pitch": 36, "duration": 10, "velocity": 117}, {"time": 133681, "pitch": 46, "duration": 10, "velocity": 112}, {"time": 133681, "pitch": 64, "duration": 10, "velocity": 80}, {"time": 133802, "pitch": 64, "duration": 10, "velocity": 78}, {"time": 133922, "pitch": 36, "duration": 10, "velocity": 117}, {"time": 133922, "pitch": 42, "duration": 10, "velocity": 127}, {"time": 133922, "pitch": 60, "duration": 10, "velocity": 76}, {"time": 133928, "pitch": 38, "duration": 10, "velocity": 38}, {"time": 133979, "pitch": 38, "duration": 10, "velocity": 46}, {"time": 134039, "pitch": 38, "duration": 10, "velocity": 61}, {"time": 134090, "pitch": 38, "duration": 10, "velocity": 78}, {"time": 134163, "pitch": 38, "duration": 10, "velocity": 90}, {"time": 134163, "pitch": 46, "duration": 10, "velocity": 119}, {"time": 134163, "pitch": 62, "duration": 10, "velocity": 67}, {"time": 134175, "pitch": 38, "duration": 10, "velocity": 117}, {"time": 134283, "pitch": 62, "duration": 10, "velocity": 77}, {"time": 134403, "pitch": 38, "duration": 10, "velocity": 117}, {"time": 134403, "pitch": 42, "duration": 10, "velocity": 118}, {"time": 134403, "pitch": 63, "duration": 10, "velocity": 66}, {"time": 134522, "pitch": 38, "duration": 10, "velocity": 117}, {"time": 134522, "pitch": 42, "duration": 10, "velocity": 104}, {"time": 134522, "pitch": 64, "duration": 10, "velocity": 97}, {"time": 134640, "pitch": 41, "duration": 10, "velocity": 100}, {"time": 134640, "pitch": 42, "duration": 10, "velocity": 86}, {"time": 134655, "pitch": 41, "duration": 10, "velocity": 127}, {"time": 134759, "pitch": 64, "duration": 10, "velocity": 93}, {"time": 134877, "pitch": 36, "duration": 10, "velocity": 117}, {"time": 134877, "pitch": 42, "duration": 10, "velocity": 120}, {"time": 134877, "pitch": 60, "duration": 10, "velocity": 75}, {"time": 134998, "pitch": 42, "duration": 10, "velocity": 99}, {"time": 135118, "pitch": 46, "duration": 10, "velocity": 124}, {"time": 135118, "pitch": 64, "duration": 10, "velocity": 89}, {"time": 135238, "pitch": 64, "duration": 10, "velocity": 87}, {"time": 135359, "pitch": 38, "duration": 10, "velocity": 117}, {"time": 135359, "pitch": 42, "duration": 10, "velocity": 127}, {"time": 135359, "pitch": 61, "duration": 10, "velocity": 70}, {"time": 135599, "pitch": 42, "duration": 10, "velocity": 90}, {"time": 135599, "pitch": 62, "duration": 10, "velocity": 83}, {"time": 135720, "pitch": 42, "duration": 10, "velocity": 108}, {"time": 135720, "pitch": 62, "duration": 10, "velocity": 66}, {"time": 135840, "pitch": 36, "duration": 10, "velocity": 117}, {"time": 135840, "pitch": 42, "duration": 10, "velocity": 112}, {"time": 135840, "pitch": 60, "duration": 10, "velocity": 78}, {"time": 135960, "pitch": 64, "duration": 10, "velocity": 89}, {"time": 136081, "pitch": 42, "duration": 10, "velocity": 117}, {"time": 136201, "pitch": 42, "duration": 10, "velocity": 84}, {"time": 136201, "pitch": 64, "duration": 10, "velocity": 98}, {"time": 136321, "pitch": 38, "duration": 10, "velocity": 117}, {"time": 136321, "pitch": 42, "duration": 10, "velocity": 110}, {"time": 136321, "pitch": 61, "duration": 10, "velocity": 80}, {"time": 136562, "pitch": 36, "duration": 10, "velocity": 117}, {"time": 136562, "pitch": 42, "duration": 10, "velocity": 114}, {"time": 136562, "pitch": 62, "duration": 10, "velocity": 71}, {"time": 136682, "pitch": 42, "duration": 10, "velocity": 104}, {"time": 136682, "pitch": 62, "duration": 10, "velocity": 68}, {"time": 136802, "pitch": 36, "duration": 10, "velocity": 117}, {"time": 136802, "pitch": 42, "duration": 10, "velocity": 124}, {"time": 136802, "pitch": 60, "duration": 10, "velocity": 80}, {"time": 136921, "pitch": 42, "duration": 10, "velocity": 127}, {"time": 137040, "pitch": 46, "duration": 10, "velocity": 125}, {"time": 137040, "pitch": 64, "duration": 10, "velocity": 82}, {"time": 137158, "pitch": 36, "duration": 10, "velocity": 117}, {"time": 137158, "pitch": 64, "duration": 10, "velocity": 80}, {"time": 137277, "pitch": 38, "duration": 10, "velocity": 117}, {"time": 137277, "pitch": 42, "duration": 10, "velocity": 127}, {"time": 137277, "pitch": 61, "duration": 10, "velocity": 78}, {"time": 137517, "pitch": 36, "duration": 10, "velocity": 117}, {"time": 137517, "pitch": 42, "duration": 10, "velocity": 104}, {"time": 137517, "pitch": 62, "duration": 10, "velocity": 66}, {"time": 137638, "pitch": 42, "duration": 10, "velocity": 104}, {"time": 137638, "pitch": 62, "duration": 10, "velocity": 68}, {"time": 137758, "pitch": 36, "duration": 10, "velocity": 117}, {"time": 137758, "pitch": 42, "duration": 10, "velocity": 88}, {"time": 137758, "pitch": 60, "duration": 10, "velocity": 77}, {"time": 137878, "pitch": 42, "duration": 10, "velocity": 127}, {"time": 137878, "pitch": 64, "duration": 10, "velocity": 96}, {"time": 137999, "pitch": 42, "duration": 10, "velocity": 105}, {"time": 138119, "pitch": 64, "duration": 10, "velocity": 104}, {"time": 138239, "pitch": 38, "duration": 10, "velocity": 117}, {"time": 138239, "pitch": 42, "duration": 10, "velocity": 127}, {"time": 138239, "pitch": 63, "duration": 10, "velocity": 73}, {"time": 138360, "pitch": 64, "duration": 10, "velocity": 67}, {"time": 138480, "pitch": 42, "duration": 10, "velocity": 93}, {"time": 138600, "pitch": 42, "duration": 10, "velocity": 120}, {"time": 138600, "pitch": 64, "duration": 10, "velocity": 97}, {"time": 138721, "pitch": 36, "duration": 10, "velocity": 117}, {"time": 138721, "pitch": 42, "duration": 10, "velocity": 122}, {"time": 138721, "pitch": 60, "duration": 10, "velocity": 80}, {"time": 138841, "pitch": 42, "duration": 10, "velocity": 127}, {"time": 138961, "pitch": 46, "duration": 10, "velocity": 118}, {"time": 138961, "pitch": 62, "duration": 10, "velocity": 78}, {"time": 139082, "pitch": 62, "duration": 10, "velocity": 68}, {"time": 139202, "pitch": 38, "duration": 10, "velocity": 117}, {"time": 139202, "pitch": 42, "duration": 10, "velocity": 127}, {"time": 139202, "pitch": 61, "duration": 10, "velocity": 63}, {"time": 139443, "pitch": 36, "duration": 10, "velocity": 117}, {"time": 139443, "pitch": 42, "duration": 10, "velocity": 76}, {"time": 139443, "pitch": 64, "duration": 10, "velocity": 31}, {"time": 139563, "pitch": 42, "duration": 10, "velocity": 86}, {"time": 139563, "pitch": 64, "duration": 10, "velocity": 84}, {"time": 139683, "pitch": 36, "duration": 10, "velocity": 117}, {"time": 139683, "pitch": 42, "duration": 10, "velocity": 106}, {"time": 139683, "pitch": 60, "duration": 10, "velocity": 83}, {"time": 139802, "pitch": 42, "duration": 10, "velocity": 127}, {"time": 139920, "pitch": 42, "duration": 10, "velocity": 127}, {"time": 139920, "pitch": 62, "duration": 10, "velocity": 62}, {"time": 140039, "pitch": 62, "duration": 10, "velocity": 71}, {"time": 140157, "pitch": 38, "duration": 10, "velocity": 117}, {"time": 140157, "pitch": 42, "duration": 10, "velocity": 127}, {"time": 140157, "pitch": 61, "duration": 10, "velocity": 71}, {"time": 140278, "pitch": 64, "duration": 10, "velocity": 84}, {"time": 140398, "pitch": 42, "duration": 10, "velocity": 95}, {"time": 140518, "pitch": 42, "duration": 10, "velocity": 123}, {"time": 140518, "pitch": 64, "duration": 10, "velocity": 91}, {"time": 140639, "pitch": 36, "duration": 10, "velocity": 117}, {"time": 140639, "pitch": 42, "duration": 10, "velocity": 114}, {"time": 140639, "pitch": 60, "duration": 10, "velocity": 80}, {"time": 140759, "pitch": 42, "duration": 10, "velocity": 127}, {"time": 140879, "pitch": 46, "duration": 10, "velocity": 120}, {"time": 140879, "pitch": 62, "duration": 10, "velocity": 63}, {"time": 141000, "pitch": 36, "duration": 10, "velocity": 117}, {"time": 141000, "pitch": 62, "duration": 10, "velocity": 72}, {"time": 141120, "pitch": 38, "duration": 10, "velocity": 117}, {"time": 141120, "pitch": 42, "duration": 10, "velocity": 127}, {"time": 141120, "pitch": 61, "duration": 10, "velocity": 74}, {"time": 141361, "pitch": 36, "duration": 10, "velocity": 117}, {"time": 141361, "pitch": 46, "duration": 10, "velocity": 112}, {"time": 141361, "pitch": 64, "duration": 10, "velocity": 80}, {"time": 141481, "pitch": 64, "duration": 10, "velocity": 78}, {"time": 141601, "pitch": 36, "duration": 10, "velocity": 117}, {"time": 141601, "pitch": 42, "duration": 10, "velocity": 127}, {"time": 141601, "pitch": 60, "duration": 10, "velocity": 76}, {"time": 141607, "pitch": 38, "duration": 10, "velocity": 38}, {"time": 141658, "pitch": 38, "duration": 10, "velocity": 46}, {"time": 141719, "pitch": 38, "duration": 10, "velocity": 61}, {"time": 141770, "pitch": 38, "duration": 10, "velocity": 78}, {"time": 141842, "pitch": 38, "duration": 10, "velocity": 90}, {"time": 141842, "pitch": 46, "duration": 10, "velocity": 119}, {"time": 141842, "pitch": 62, "duration": 10, "velocity": 67}, {"time": 141854, "pitch": 38, "duration": 10, "velocity": 117}, {"time": 141962, "pitch": 62, "duration": 10, "velocity": 77}, {"time": 142082, "pitch": 38, "duration": 10, "velocity": 117}, {"time": 142082, "pitch": 42, "duration": 10, "velocity": 118}, {"time": 142082, "pitch": 63, "duration": 10, "velocity": 66}, {"time": 142201, "pitch": 38, "duration": 10, "velocity": 117}, {"time": 142201, "pitch": 42, "duration": 10, "velocity": 104}, {"time": 142201, "pitch": 64, "duration": 10, "velocity": 97}, {"time": 142320, "pitch": 41, "duration": 10, "velocity": 100}, {"time": 142320, "pitch": 42, "duration": 10, "velocity": 86}, {"time": 142334, "pitch": 41, "duration": 10, "velocity": 127}, {"time": 142438, "pitch": 64, "duration": 10, "velocity": 93}, {"time": 142557, "pitch": 36, "duration": 10, "velocity": 117}, {"time": 142557, "pitch": 42, "duration": 10, "velocity": 118}, {"time": 142557, "pitch": 55, "duration": 10, "velocity": 127}, {"time": 142557, "pitch": 60, "duration": 10, "velocity": 75}, {"time": 142797, "pitch": 42, "duration": 10, "velocity": 110}, {"time": 142797, "pitch": 64, "duration": 10, "velocity": 89}, {"time": 142918, "pitch": 42, "duration": 10, "velocity": 127}, {"time": 142918, "pitch": 64, "duration": 10, "velocity": 87}, {"time": 143038, "pitch": 38, "duration": 10, "velocity": 117}, {"time": 143038, "pitch": 42, "duration": 10, "velocity": 117}, {"time": 143038, "pitch": 57, "duration": 10, "velocity": 127}, {"time": 143038, "pitch": 61, "duration": 10, "velocity": 70}, {"time": 143279, "pitch": 36, "duration": 10, "velocity": 117}, {"time": 143279, "pitch": 42, "duration": 10, "velocity": 106}, {"time": 143279, "pitch": 62, "duration": 10, "velocity": 83}, {"time": 143399, "pitch": 42, "duration": 10, "velocity": 126}, {"time": 143399, "pitch": 62, "duration": 10, "velocity": 66}, {"time": 143519, "pitch": 36, "duration": 10, "velocity": 117}, {"time": 143519, "pitch": 42, "duration": 10, "velocity": 114}, {"time": 143519, "pitch": 60, "duration": 10, "velocity": 78}, {"time": 143640, "pitch": 42, "duration": 10, "velocity": 127}, {"time": 143640, "pitch": 64, "duration": 10, "velocity": 89}, {"time": 143760, "pitch": 46, "duration": 10, "velocity": 116}, {"time": 143880, "pitch": 64, "duration": 10, "velocity": 98}, {"time": 144001, "pitch": 38, "duration": 10, "velocity": 117}, {"time": 144001, "pitch": 42, "duration": 10, "velocity": 115}, {"time": 144001, "pitch": 61, "duration": 10, "velocity": 80}, {"time": 144241, "pitch": 42, "duration": 10, "velocity": 106}, {"time": 144241, "pitch": 62, "duration": 10, "velocity": 71}, {"time": 144362, "pitch": 42, "duration": 10, "velocity": 117}, {"time": 144362, "pitch": 62, "duration": 10, "velocity": 68}, {"time": 144482, "pitch": 36, "duration": 10, "velocity": 117}, {"time": 144482, "pitch": 42, "duration": 10, "velocity": 94}, {"time": 144482, "pitch": 60, "duration": 10, "velocity": 80}, {"time": 144723, "pitch": 42, "duration": 10, "velocity": 113}, {"time": 144723, "pitch": 64, "duration": 10, "velocity": 82}, {"time": 144843, "pitch": 36, "duration": 10, "velocity": 117}, {"time": 144843, "pitch": 42, "duration": 10, "velocity": 127}, {"time": 144843, "pitch": 64, "duration": 10, "velocity": 80}, {"time": 144963, "pitch": 38, "duration": 10, "velocity": 117}, {"time": 144963, "pitch": 46, "duration": 10, "velocity": 116}, {"time": 144963, "pitch": 61, "duration": 10, "velocity": 78}, {"time": 145082, "pitch": 36, "duration": 10, "velocity": 117}, {"time": 145200, "pitch": 42, "duration": 10, "velocity": 111}, {"time": 145200, "pitch": 62, "duration": 10, "velocity": 66}, {"time": 145319, "pitch": 36, "duration": 10, "velocity": 117}, {"time": 145319, "pitch": 42, "duration": 10, "velocity": 119}, {"time": 145319, "pitch": 62, "duration": 10, "velocity": 68}, {"time": 145437, "pitch": 36, "duration": 10, "velocity": 117}, {"time": 145437, "pitch": 42, "duration": 10, "velocity": 97}, {"time": 145437, "pitch": 60, "duration": 10, "velocity": 77}, {"time": 145558, "pitch": 42, "duration": 10, "velocity": 99}, {"time": 145558, "pitch": 64, "duration": 10, "velocity": 96}, {"time": 145678, "pitch": 42, "duration": 10, "velocity": 106}, {"time": 145798, "pitch": 36, "duration": 10, "velocity": 117}, {"time": 145798, "pitch": 42, "duration": 10, "velocity": 127}, {"time": 145798, "pitch": 64, "duration": 10, "velocity": 104}, {"time": 145919, "pitch": 38, "duration": 10, "velocity": 117}, {"time": 145919, "pitch": 63, "duration": 10, "velocity": 73}, {"time": 146039, "pitch": 42, "duration": 10, "velocity": 118}, {"time": 146039, "pitch": 64, "duration": 10, "velocity": 67}, {"time": 146159, "pitch": 36, "duration": 10, "velocity": 117}, {"time": 146159, "pitch": 46, "duration": 10, "velocity": 124}, {"time": 146280, "pitch": 64, "duration": 10, "velocity": 97}, {"time": 146400, "pitch": 36, "duration": 10, "velocity": 117}, {"time": 146400, "pitch": 42, "duration": 10, "velocity": 124}, {"time": 146400, "pitch": 60, "duration": 10, "velocity": 80}, {"time": 146641, "pitch": 42, "duration": 10, "velocity": 104}, {"time": 146641, "pitch": 62, "duration": 10, "velocity": 78}, {"time": 146761, "pitch": 42, "duration": 10, "velocity": 127}, {"time": 146761, "pitch": 62, "duration": 10, "velocity": 68}, {"time": 146881, "pitch": 38, "duration": 10, "velocity": 117}, {"time": 146881, "pitch": 42, "duration": 10, "velocity": 117}, {"time": 146881, "pitch": 61, "duration": 10, "velocity": 63}, {"time": 147122, "pitch": 36, "duration": 10, "velocity": 117}, {"time": 147122, "pitch": 42, "duration": 10, "velocity": 110}, {"time": 147122, "pitch": 64, "duration": 10, "velocity": 31}, {"time": 147242, "pitch": 42, "duration": 10, "velocity": 127}, {"time": 147242, "pitch": 64, "duration": 10, "velocity": 84}, {"time": 147362, "pitch": 36, "duration": 10, "velocity": 117}, {"time": 147362, "pitch": 42, "duration": 10, "velocity": 107}, {"time": 147362, "pitch": 60, "duration": 10, "velocity": 83}, {"time": 147481, "pitch": 42, "duration": 10, "velocity": 127}, {"time": 147600, "pitch": 46, "duration": 10, "velocity": 114}, {"time": 147600, "pitch": 62, "duration": 10, "velocity": 62}, {"time": 147718, "pitch": 62, "duration": 10, "velocity": 71}, {"time": 147837, "pitch": 38, "duration": 10, "velocity": 117}, {"time": 147837, "pitch": 42, "duration": 10, "velocity": 127}, {"time": 147837, "pitch": 61, "duration": 10, "velocity": 71}, {"time": 147957, "pitch": 64, "duration": 10, "velocity": 84}, {"time": 148077, "pitch": 36, "duration": 10, "velocity": 117}, {"time": 148077, "pitch": 42, "duration": 10, "velocity": 78}, {"time": 148198, "pitch": 42, "duration": 10, "velocity": 127}, {"time": 148198, "pitch": 64, "duration": 10, "velocity": 91}, {"time": 148318, "pitch": 36, "duration": 10, "velocity": 117}, {"time": 148318, "pitch": 42, "duration": 10, "velocity": 88}, {"time": 148318, "pitch": 60, "duration": 10, "velocity": 80}, {"time": 148438, "pitch": 42, "duration": 10, "velocity": 127}, {"time": 148559, "pitch": 46, "duration": 10, "velocity": 120}, {"time": 148559, "pitch": 62, "duration": 10, "velocity": 63}, {"time": 148679, "pitch": 36, "duration": 10, "velocity": 117}, {"time": 148679, "pitch": 62, "duration": 10, "velocity": 72}, {"time": 148799, "pitch": 38, "duration": 10, "velocity": 117}, {"time": 148799, "pitch": 42, "duration": 10, "velocity": 127}, {"time": 148799, "pitch": 61, "duration": 10, "velocity": 74}, {"time": 148920, "pitch": 36, "duration": 10, "velocity": 117}, {"time": 149040, "pitch": 46, "duration": 10, "velocity": 116}, {"time": 149040, "pitch": 64, "duration": 10, "velocity": 80}, {"time": 149160, "pitch": 36, "duration": 10, "velocity": 117}, {"time": 149160, "pitch": 64, "duration": 10, "velocity": 78}, {"time": 149281, "pitch": 36, "duration": 10, "velocity": 117}, {"time": 149281, "pitch": 42, "duration": 10, "velocity": 127}, {"time": 149281, "pitch": 60, "duration": 10, "velocity": 76}, {"time": 149287, "pitch": 38, "duration": 10, "velocity": 38}, {"time": 149338, "pitch": 38, "duration": 10, "velocity": 46}, {"time": 149398, "pitch": 38, "duration": 10, "velocity": 61}, {"time": 149449, "pitch": 38, "duration": 10, "velocity": 78}, {"time": 149521, "pitch": 38, "duration": 10, "velocity": 90}, {"time": 149521, "pitch": 46, "duration": 10, "velocity": 119}, {"time": 149521, "pitch": 62, "duration": 10, "velocity": 67}, {"time": 149533, "pitch": 38, "duration": 10, "velocity": 117}, {"time": 149642, "pitch": 62, "duration": 10, "velocity": 77}, {"time": 149762, "pitch": 38, "duration": 10, "velocity": 117}, {"time": 149762, "pitch": 42, "duration": 10, "velocity": 118}, {"time": 149762, "pitch": 63, "duration": 10, "velocity": 66}, {"time": 149882, "pitch": 38, "duration": 10, "velocity": 117}, {"time": 149882, "pitch": 42, "duration": 10, "velocity": 104}, {"time": 149882, "pitch": 64, "duration": 10, "velocity": 97}, {"time": 150003, "pitch": 41, "duration": 10, "velocity": 100}, {"time": 150003, "pitch": 42, "duration": 10, "velocity": 86}, {"time": 150018, "pitch": 41, "duration": 10, "velocity": 127}, {"time": 150123, "pitch": 64, "duration": 10, "velocity": 93}, {"time": 150243, "pitch": 36, "duration": 10, "velocity": 117}, {"time": 150243, "pitch": 42, "duration": 10, "velocity": 127}, {"time": 150243, "pitch": 64, "duration": 10, "velocity": 107}, {"time": 150362, "pitch": 42, "duration": 10, "velocity": 127}, {"time": 150362, "pitch": 64, "duration": 10, "velocity": 107}, {"time": 150480, "pitch": 46, "duration": 10, "velocity": 127}, {"time": 150480, "pitch": 60, "duration": 10, "velocity": 107}, {"time": 150717, "pitch": 36, "duration": 10, "velocity": 117}, {"time": 150717, "pitch": 42, "duration": 10, "velocity": 127}, {"time": 150717, "pitch": 62, "duration": 10, "velocity": 107}, {"time": 150838, "pitch": 62, "duration": 10, "velocity": 107}, {"time": 150958, "pitch": 46, "duration": 10, "velocity": 127}, {"time": 150958, "pitch": 61, "duration": 10, "velocity": 107}, {"time": 151078, "pitch": 64, "duration": 10, "velocity": 107}, {"time": 151199, "pitch": 36, "duration": 10, "velocity": 117}, {"time": 151199, "pitch": 42, "duration": 10, "velocity": 127}, {"time": 151319, "pitch": 64, "duration": 10, "velocity": 107}, {"time": 151439, "pitch": 46, "duration": 10, "velocity": 127}, {"time": 151439, "pitch": 60, "duration": 10, "velocity": 107}, {"time": 151680, "pitch": 36, "duration": 10, "velocity": 117}, {"time": 151680, "pitch": 42, "duration": 10, "velocity": 127}, {"time": 151680, "pitch": 62, "duration": 10, "velocity": 107}, {"time": 151800, "pitch": 62, "duration": 10, "velocity": 107}, {"time": 151921, "pitch": 39, "duration": 10, "velocity": 127}, {"time": 151921, "pitch": 46, "duration": 10, "velocity": 127}, {"time": 151921, "pitch": 61, "duration": 10, "velocity": 107}, {"time": 152161, "pitch": 36, "duration": 10, "velocity": 117}, {"time": 152161, "pitch": 42, "duration": 10, "velocity": 127}, {"time": 152161, "pitch": 64, "duration": 10, "velocity": 107}, {"time": 152282, "pitch": 42, "duration": 10, "velocity": 127}, {"time": 152282, "pitch": 64, "duration": 10, "velocity": 107}, {"time": 152402, "pitch": 46, "duration": 10, "velocity": 127}, {"time": 152402, "pitch": 60, "duration": 10, "velocity": 107}, {"time": 152642, "pitch": 36, "duration": 10, "velocity": 117}, {"time": 152642, "pitch": 42, "duration": 10, "velocity": 127}, {"time": 152642, "pitch": 62, "duration": 10, "velocity": 107}, {"time": 152880, "pitch": 46, "duration": 10, "velocity": 127}, {"time": 152880, "pitch": 61, "duration": 10, "velocity": 107}, {"time": 152998, "pitch": 64, "duration": 10, "velocity": 107}, {"time": 153117, "pitch": 36, "duration": 10, "velocity": 117}, {"time": 153117, "pitch": 42, "duration": 10, "velocity": 127}, {"time": 153237, "pitch": 64, "duration": 10, "velocity": 107}, {"time": 153357, "pitch": 46, "duration": 10, "velocity": 127}, {"time": 153357, "pitch": 60, "duration": 10, "velocity": 107}, {"time": 153598, "pitch": 36, "duration": 10, "velocity": 117}, {"time": 153598, "pitch": 42, "duration": 10, "velocity": 127}, {"time": 153598, "pitch": 62, "duration": 10, "velocity": 107}, {"time": 153718, "pitch": 62, "duration": 10, "velocity": 107}, {"time": 153839, "pitch": 39, "duration": 10, "velocity": 127}, {"time": 153839, "pitch": 46, "duration": 10, "velocity": 127}, {"time": 153839, "pitch": 63, "duration": 10, "velocity": 107}, {"time": 154079, "pitch": 36, "duration": 10, "velocity": 117}, {"time": 154079, "pitch": 42, "duration": 10, "velocity": 127}, {"time": 154079, "pitch": 64, "duration": 10, "velocity": 107}, {"time": 154200, "pitch": 42, "duration": 10, "velocity": 127}, {"time": 154200, "pitch": 64, "duration": 10, "velocity": 107}, {"time": 154320, "pitch": 46, "duration": 10, "velocity": 127}, {"time": 154320, "pitch": 60, "duration": 10, "velocity": 107}, {"time": 154561, "pitch": 36, "duration": 10, "velocity": 117}, {"time": 154561, "pitch": 42, "duration": 10, "velocity": 127}, {"time": 154561, "pitch": 62, "duration": 10, "velocity": 107}, {"time": 154681, "pitch": 62, "duration": 10, "velocity": 107}, {"time": 154801, "pitch": 46, "duration": 10, "velocity": 127}, {"time": 154801, "pitch": 61, "duration": 10, "velocity": 107}, {"time": 154922, "pitch": 64, "duration": 10, "velocity": 107}, {"time": 155042, "pitch": 36, "duration": 10, "velocity": 117}, {"time": 155042, "pitch": 42, "duration": 10, "velocity": 127}, {"time": 155162, "pitch": 64, "duration": 10, "velocity": 107}, {"time": 155283, "pitch": 46, "duration": 10, "velocity": 127}, {"time": 155283, "pitch": 60, "duration": 10, "velocity": 107}, {"time": 155523, "pitch": 36, "duration": 10, "velocity": 117}, {"time": 155523, "pitch": 42, "duration": 10, "velocity": 127}, {"time": 155523, "pitch": 62, "duration": 10, "velocity": 107}, {"time": 155642, "pitch": 62, "duration": 10, "velocity": 107}, {"time": 155760, "pitch": 39, "duration": 10, "velocity": 127}, {"time": 155760, "pitch": 46, "duration": 10, "velocity": 127}, {"time": 155760, "pitch": 63, "duration": 10, "velocity": 107}, {"time": 155997, "pitch": 38, "duration": 10, "velocity": 117}, {"time": 155997, "pitch": 42, "duration": 10, "velocity": 127}, {"time": 155997, "pitch": 44, "duration": 10, "velocity": 127}, {"time": 155997, "pitch": 50, "duration": 10, "velocity": 90}, {"time": 155997, "pitch": 64, "duration": 10, "velocity": 107}, {"time": 156021, "pitch": 50, "duration": 10, "velocity": 127}, {"time": 156238, "pitch": 60, "duration": 10, "velocity": 107}, {"time": 156352, "pitch": 45, "duration": 10, "velocity": 90}, {"time": 156358, "pitch": 38, "duration": 10, "velocity": 117}, {"time": 156358, "pitch": 44, "duration": 10, "velocity": 127}, {"time": 156358, "pitch": 62, "duration": 10, "velocity": 107}, {"time": 156379, "pitch": 45, "duration": 10, "velocity": 127}, {"time": 156599, "pitch": 62, "duration": 10, "velocity": 107}, {"time": 156719, "pitch": 38, "duration": 10, "velocity": 117}, {"time": 156719, "pitch": 43, "duration": 10, "velocity": 90}, {"time": 156719, "pitch": 44, "duration": 10, "velocity": 127}, {"time": 156719, "pitch": 61, "duration": 10, "velocity": 107}, {"time": 156746, "pitch": 43, "duration": 10, "velocity": 127}, {"time": 157201, "pitch": 38, "duration": 10, "velocity": 34}, {"time": 157255, "pitch": 38, "duration": 10, "velocity": 42}, {"time": 157327, "pitch": 38, "duration": 10, "velocity": 61}, {"time": 157381, "pitch": 38, "duration": 10, "velocity": 81}, {"time": 157441, "pitch": 38, "duration": 10, "velocity": 117}, {"time": 157562, "pitch": 38, "duration": 10, "velocity": 117}, {"time": 157682, "pitch": 41, "duration": 10, "velocity": 90}, {"time": 157700, "pitch": 41, "duration": 10, "velocity": 127}, {"time": 157922, "pitch": 36, "duration": 10, "velocity": 117}, {"time": 157922, "pitch": 57, "duration": 10, "velocity": 127}, {"time": 161040, "pitch": 38, "duration": 10, "velocity": 47}, {"time": 161097, "pitch": 38, "duration": 9, "velocity": 55}, {"time": 161162, "pitch": 38, "duration": 10, "velocity": 70}, {"time": 161218, "pitch": 38, "duration": 10, "velocity": 88}, {"time": 161277, "pitch": 38, "duration": 10, "velocity": 117}, {"time": 161518, "pitch": 38, "duration": 10, "velocity": 117}, {"time": 161638, "pitch": 38, "duration": 10, "velocity": 90}, {"time": 161653, "pitch": 38, "duration": 10, "velocity": 117}], "annotations": [{"time": 211, "annotation": {"number": 7, "value": 120}, "group": "control_change"}, {"time": 230, "annotation": {"number": 11, "value": 110}, "group": "control_change"}, {"time": 249, "annotation": {"number": 91, "value": 30}, "group": "control_change"}, {"time": 460, "annotation": {"number": 101, "value": 127}, "group": "control_change"}, {"time": 479, "annotation": {"number": 100, "value": 127}, "group": "control_change"}]}, {"program": 0, "is_drum": false, "name": "DIST GT 2", "annotations": [{"time": 191, "annotation": {"number": 0, "value": 0}, "group": "control_change"}, {"time": 191, "annotation": {"number": 32, "value": 2}, "group": "control_change"}]}, {"program": 30, "is_drum": false, "name": "DIST GT 2", "notes": [{"time": 100482, "pitch": 59, "duration": 610, "velocity": 94}, {"time": 100482, "pitch": 71, "duration": 610, "velocity": 94}, {"time": 101204, "pitch": 66, "duration": 105, "velocity": 94}, {"time": 101204, "pitch": 78, "duration": 105, "velocity": 94}, {"time": 101445, "pitch": 66, "duration": 2285, "velocity": 94}, {"time": 101445, "pitch": 78, "duration": 2285, "velocity": 94}, {"time": 103850, "pitch": 64, "duration": 192, "velocity": 94}, {"time": 103850, "pitch": 76, "duration": 192, "velocity": 94}, {"time": 104091, "pitch": 62, "duration": 181, "velocity": 94}, {"time": 104091, "pitch": 74, "duration": 181, "velocity": 94}, {"time": 104331, "pitch": 61, "duration": 708, "velocity": 94}, {"time": 104331, "pitch": 73, "duration": 708, "velocity": 94}, {"time": 105047, "pitch": 57, "duration": 82, "velocity": 94}, {"time": 105047, "pitch": 69, "duration": 82, "velocity": 94}, {"time": 105286, "pitch": 57, "duration": 2323, "velocity": 94}, {"time": 105286, "pitch": 69, "duration": 2323, "velocity": 94}, {"time": 107687, "pitch": 54, "duration": 199, "velocity": 94}, {"time": 107687, "pitch": 66, "duration": 199, "velocity": 94}, {"time": 107928, "pitch": 57, "duration": 149, "velocity": 94}, {"time": 107928, "pitch": 69, "duration": 149, "velocity": 94}, {"time": 108166, "pitch": 59, "duration": 1329, "velocity": 94}, {"time": 108166, "pitch": 71, "duration": 1329, "velocity": 94}, {"time": 109605, "pitch": 57, "duration": 159, "velocity": 94}, {"time": 109605, "pitch": 69, "duration": 159, "velocity": 94}, {"time": 109846, "pitch": 59, "duration": 176, "velocity": 94}, {"time": 109846, "pitch": 71, "duration": 176, "velocity": 94}, {"time": 110087, "pitch": 61, "duration": 1393, "velocity": 94}, {"time": 110087, "pitch": 73, "duration": 1393, "velocity": 94}, {"time": 111523, "pitch": 59, "duration": 150, "velocity": 94}, {"time": 111523, "pitch": 71, "duration": 150, "velocity": 94}, {"time": 111764, "pitch": 61, "duration": 199, "velocity": 94}, {"time": 111764, "pitch": 73, "duration": 199, "velocity": 94}, {"time": 112005, "pitch": 62, "duration": 664, "velocity": 94}, {"time": 112005, "pitch": 74, "duration": 664, "velocity": 94}, {"time": 112727, "pitch": 61, "duration": 640, "velocity": 94}, {"time": 112727, "pitch": 73, "duration": 640, "velocity": 94}, {"time": 113431, "pitch": 62, "duration": 465, "velocity": 94}, {"time": 113431, "pitch": 74, "duration": 465, "velocity": 94}, {"time": 113923, "pitch": 64, "duration": 1192, "velocity": 94}, {"time": 113923, "pitch": 76, "duration": 1192, "velocity": 94}, {"time": 115126, "pitch": 62, "duration": 203, "velocity": 94}, {"time": 115126, "pitch": 74, "duration": 203, "velocity": 94}, {"time": 115367, "pitch": 61, "duration": 136, "velocity": 94}, {"time": 115367, "pitch": 73, "duration": 136, "velocity": 94}, {"time": 115607, "pitch": 59, "duration": 130, "velocity": 94}, {"time": 115607, "pitch": 71, "duration": 130, "velocity": 94}, {"time": 115846, "pitch": 57, "duration": 1569, "velocity": 94}, {"time": 115846, "pitch": 69, "duration": 1569, "velocity": 94}, {"time": 117766, "pitch": 57, "duration": 144, "velocity": 94}, {"time": 117766, "pitch": 69, "duration": 144, "velocity": 94}, {"time": 161518, "pitch": 43, "duration": 110, "velocity": 127}, {"time": 161518, "pitch": 55, "duration": 110, "velocity": 127}, {"time": 161638, "pitch": 43, "duration": 111, "velocity": 127}, {"time": 161638, "pitch": 55, "duration": 111, "velocity": 127}], "annotations": [{"time": 211, "annotation": {"number": 7, "value": 80}, "group": "control_change"}, {"time": 230, "annotation": {"number": 11, "value": 110}, "group": "control_change"}, {"time": 249, "annotation": {"number": 10, "value": 114}, "group": "control_change"}, {"time": 268, "annotation": {"number": 91, "value": 40}, "group": "control_change"}, {"time": 287, "annotation": {"number": 93, "value": 30}, "group": "control_change"}, {"time": 306, "annotation": {"number": 94, "value": 0}, "group": "control_change"}, {"time": 326, "annotation": {"number": 101, "value": 0}, "group": "control_change"}, {"time": 345, "annotation": {"number": 100, "value": 0}, "group": "control_change"}, {"time": 364, "annotation": {"number": 6, "value": 12}, "group": "control_change"}, {"time": 383, "annotation": {"number": 101, "value": 127}, "group": "control_change"}, {"time": 402, "annotation": {"number": 100, "value": 127}, "group": "control_change"}, {"time": 100325, "annotation": {"number": 1, "value": 106}, "group": "control_change"}, {"time": 100349, "annotation": {"number": 1, "value": 75}, "group": "control_change"}, {"time": 100374, "annotation": {"number": 1, "value": 5}, "group": "control_change"}, {"time": 100423, "annotation": {"number": 1, "value": 0}, "group": "control_change"}, {"time": 114218, "annotation": {"number": 1, "value": 3}, "group": "control_change"}, {"time": 114242, "annotation": {"number": 1, "value": 8}, "group": "control_change"}, {"time": 114291, "annotation": {"number": 1, "value": 12}, "group": "control_change"}, {"time": 114316, "annotation": {"number": 1, "value": 15}, "group": "control_change"}, {"time": 114340, "annotation": {"number": 1, "value": 21}, "group": "control_change"}, {"time": 114365, "annotation": {"number": 1, "value": 29}, "group": "control_change"}, {"time": 114390, "annotation": {"number": 1, "value": 38}, "group": "control_change"}, {"time": 114414, "annotation": {"number": 1, "value": 48}, "group": "control_change"}, {"time": 114438, "annotation": {"number": 1, "value": 58}, "group": "control_change"}, {"time": 114463, "annotation": {"number": 1, "value": 69}, "group": "control_change"}, {"time": 114488, "annotation": {"number": 1, "value": 79}, "group": "control_change"}, {"time": 114512, "annotation": {"number": 1, "value": 88}, "group": "control_change"}, {"time": 114537, "annotation": {"number": 1, "value": 96}, "group": "control_change"}, {"time": 114563, "annotation": {"number": 1, "value": 103}, "group": "control_change"}, {"time": 114587, "annotation": {"number": 1, "value": 111}, "group": "control_change"}, {"time": 114612, "annotation": {"number": 1, "value": 117}, "group": "control_change"}, {"time": 114636, "annotation": {"number": 1, "value": 121}, "group": "control_change"}, {"time": 114882, "annotation": {"number": 1, "value": 119}, "group": "control_change"}, {"time": 114907, "annotation": {"number": 1, "value": 116}, "group": "control_change"}, {"time": 114932, "annotation": {"number": 1, "value": 111}, "group": "control_change"}, {"time": 114957, "annotation": {"number": 1, "value": 99}, "group": "control_change"}, {"time": 114982, "annotation": {"number": 1, "value": 88}, "group": "control_change"}, {"time": 115006, "annotation": {"number": 1, "value": 69}, "group": "control_change"}, {"time": 115031, "annotation": {"number": 1, "value": 44}, "group": "control_change"}, {"time": 115055, "annotation": {"number": 1, "value": 11}, "group": "control_change"}, {"time": 115080, "annotation": {"number": 1, "value": 0}, "group": "control_change"}, {"time": 116700, "annotation": {"number": 1, "value": 3}, "group": "control_change"}, {"time": 116723, "annotation": {"number": 1, "value": 10}, "group": "control_change"}, {"time": 116748, "annotation": {"number": 1, "value": 16}, "group": "control_change"}, {"time": 116773, "annotation": {"number": 1, "value": 23}, "group": "control_change"}, {"time": 116797, "annotation": {"number": 1, "value": 28}, "group": "control_change"}, {"time": 116823, "annotation": {"number": 1, "value": 30}, "group": "control_change"}, {"time": 116872, "annotation": {"number": 1, "value": 35}, "group": "control_change"}, {"time": 116946, "annotation": {"number": 1, "value": 38}, "group": "control_change"}, {"time": 116970, "annotation": {"number": 1, "value": 40}, "group": "control_change"}, {"time": 116995, "annotation": {"number": 1, "value": 43}, "group": "control_change"}, {"time": 117020, "annotation": {"number": 1, "value": 46}, "group": "control_change"}, {"time": 117044, "annotation": {"number": 1, "value": 51}, "group": "control_change"}, {"time": 117069, "annotation": {"number": 1, "value": 56}, "group": "control_change"}, {"time": 117093, "annotation": {"number": 1, "value": 61}, "group": "control_change"}, {"time": 117118, "annotation": {"number": 1, "value": 65}, "group": "control_change"}, {"time": 117143, "annotation": {"number": 1, "value": 67}, "group": "control_change"}, {"time": 117167, "annotation": {"number": 1, "value": 70}, "group": "control_change"}, {"time": 117217, "annotation": {"number": 1, "value": 72}, "group": "control_change"}, {"time": 117316, "annotation": {"number": 1, "value": 75}, "group": "control_change"}, {"time": 117365, "annotation": {"number": 1, "value": 79}, "group": "control_change"}, {"time": 117414, "annotation": {"number": 1, "value": 81}, "group": "control_change"}, {"time": 117488, "annotation": {"number": 1, "value": 84}, "group": "control_change"}, {"time": 117537, "annotation": {"number": 1, "value": 88}, "group": "control_change"}, {"time": 117591, "annotation": {"number": 1, "value": 92}, "group": "control_change"}, {"time": 117636, "annotation": {"number": 1, "value": 88}, "group": "control_change"}, {"time": 117661, "annotation": {"number": 1, "value": 78}, "group": "control_change"}, {"time": 117686, "annotation": {"number": 1, "value": 58}, "group": "control_change"}, {"time": 117761, "annotation": {"number": 1, "value": 0}, "group": "control_change"}]}, {"program": 0, "is_drum": false, "name": "DIST GT 3", "annotations": [{"time": 191, "annotation": {"number": 0, "value": 0}, "group": "control_change"}, {"time": 191, "annotation": {"number": 32, "value": 2}, "group": "control_change"}]}, {"program": 30, "is_drum": false, "name": "DIST GT 3", "notes": [{"time": 8157, "pitch": 50, "duration": 132, "velocity": 110}, {"time": 8398, "pitch": 50, "duration": 98, "velocity": 110}, {"time": 8639, "pitch": 50, "duration": 102, "velocity": 110}, {"time": 8879, "pitch": 50, "duration": 123, "velocity": 110}, {"time": 9120, "pitch": 47, "duration": 104, "velocity": 110}, {"time": 9361, "pitch": 47, "duration": 96, "velocity": 110}, {"time": 9601, "pitch": 47, "duration": 67, "velocity": 110}, {"time": 9842, "pitch": 47, "duration": 97, "velocity": 110}, {"time": 10083, "pitch": 43, "duration": 105, "velocity": 110}, {"time": 10320, "pitch": 43, "duration": 76, "velocity": 110}, {"time": 10557, "pitch": 43, "duration": 58, "velocity": 110}, {"time": 10797, "pitch": 43, "duration": 108, "velocity": 110}, {"time": 10918, "pitch": 45, "duration": 83, "velocity": 110}, {"time": 11158, "pitch": 45, "duration": 94, "velocity": 110}, {"time": 11399, "pitch": 45, "duration": 38, "velocity": 110}, {"time": 11519, "pitch": 45, "duration": 112, "velocity": 110}, {"time": 11760, "pitch": 45, "duration": 156, "velocity": 110}, {"time": 12001, "pitch": 47, "duration": 91, "velocity": 110}, {"time": 12241, "pitch": 47, "duration": 99, "velocity": 110}, {"time": 12482, "pitch": 47, "duration": 97, "velocity": 110}, {"time": 12723, "pitch": 47, "duration": 65, "velocity": 110}, {"time": 12843, "pitch": 43, "duration": 113, "velocity": 110}, {"time": 13082, "pitch": 43, "duration": 82, "velocity": 110}, {"time": 13319, "pitch": 43, "duration": 50, "velocity": 110}, {"time": 13437, "pitch": 43, "duration": 115, "velocity": 110}, {"time": 13678, "pitch": 43, "duration": 116, "velocity": 110}, {"time": 13919, "pitch": 40, "duration": 247, "velocity": 110}, {"time": 14280, "pitch": 40, "duration": 241, "velocity": 110}, {"time": 14641, "pitch": 45, "duration": 423, "velocity": 110}, {"time": 15837, "pitch": 50, "duration": 121, "velocity": 110}, {"time": 16077, "pitch": 50, "duration": 122, "velocity": 110}, {"time": 16318, "pitch": 50, "duration": 99, "velocity": 110}, {"time": 16559, "pitch": 50, "duration": 106, "velocity": 110}, {"time": 16679, "pitch": 49, "duration": 160, "velocity": 110}, {"time": 16920, "pitch": 49, "duration": 111, "velocity": 110}, {"time": 17160, "pitch": 49, "duration": 63, "velocity": 110}, {"time": 17281, "pitch": 49, "duration": 120, "velocity": 110}, {"time": 17521, "pitch": 49, "duration": 157, "velocity": 110}, {"time": 17762, "pitch": 47, "duration": 129, "velocity": 110}, {"time": 18003, "pitch": 47, "duration": 114, "velocity": 110}, {"time": 18243, "pitch": 47, "duration": 96, "velocity": 110}, {"time": 18480, "pitch": 47, "duration": 90, "velocity": 110}, {"time": 18599, "pitch": 45, "duration": 140, "velocity": 110}, {"time": 18838, "pitch": 45, "duration": 93, "velocity": 110}, {"time": 19078, "pitch": 45, "duration": 44, "velocity": 110}, {"time": 19199, "pitch": 45, "duration": 154, "velocity": 110}, {"time": 19439, "pitch": 45, "duration": 157, "velocity": 110}, {"time": 19680, "pitch": 43, "duration": 118, "velocity": 110}, {"time": 19921, "pitch": 43, "duration": 122, "velocity": 110}, {"time": 20161, "pitch": 43, "duration": 98, "velocity": 110}, {"time": 20402, "pitch": 43, "duration": 94, "velocity": 110}, {"time": 20522, "pitch": 42, "duration": 166, "velocity": 110}, {"time": 20761, "pitch": 42, "duration": 71, "velocity": 110}, {"time": 20998, "pitch": 42, "duration": 50, "velocity": 110}, {"time": 21117, "pitch": 42, "duration": 111, "velocity": 110}, {"time": 21357, "pitch": 42, "duration": 101, "velocity": 110}, {"time": 21598, "pitch": 40, "duration": 135, "velocity": 110}, {"time": 21839, "pitch": 40, "duration": 170, "velocity": 110}, {"time": 22079, "pitch": 40, "duration": 198, "velocity": 110}, {"time": 22320, "pitch": 40, "duration": 71, "velocity": 110}, {"time": 22440, "pitch": 40, "duration": 115, "velocity": 110}, {"time": 22561, "pitch": 45, "duration": 139, "velocity": 110}, {"time": 22801, "pitch": 45, "duration": 75, "velocity": 110}, {"time": 22922, "pitch": 45, "duration": 65, "velocity": 110}, {"time": 23042, "pitch": 45, "duration": 161, "velocity": 110}, {"time": 23283, "pitch": 45, "duration": 81, "velocity": 110}, {"time": 23403, "pitch": 45, "duration": 80, "velocity": 110}, {"time": 23523, "pitch": 50, "duration": 120, "velocity": 110}, {"time": 23760, "pitch": 50, "duration": 120, "velocity": 110}, {"time": 23997, "pitch": 50, "duration": 100, "velocity": 110}, {"time": 24238, "pitch": 50, "duration": 106, "velocity": 110}, {"time": 24358, "pitch": 49, "duration": 161, "velocity": 110}, {"time": 24599, "pitch": 49, "duration": 111, "velocity": 110}, {"time": 24840, "pitch": 49, "duration": 63, "velocity": 110}, {"time": 24960, "pitch": 49, "duration": 120, "velocity": 110}, {"time": 25201, "pitch": 49, "duration": 156, "velocity": 110}, {"time": 25441, "pitch": 47, "duration": 130, "velocity": 110}, {"time": 25682, "pitch": 47, "duration": 114, "velocity": 110}, {"time": 25923, "pitch": 47, "duration": 95, "velocity": 110}, {"time": 26160, "pitch": 47, "duration": 90, "velocity": 110}, {"time": 26278, "pitch": 45, "duration": 141, "velocity": 110}, {"time": 26517, "pitch": 45, "duration": 93, "velocity": 110}, {"time": 26758, "pitch": 45, "duration": 43, "velocity": 110}, {"time": 26878, "pitch": 45, "duration": 154, "velocity": 110}, {"time": 27119, "pitch": 45, "duration": 156, "velocity": 110}, {"time": 27359, "pitch": 43, "duration": 119, "velocity": 110}, {"time": 27600, "pitch": 43, "duration": 122, "velocity": 110}, {"time": 27841, "pitch": 43, "duration": 97, "velocity": 110}, {"time": 28081, "pitch": 43, "duration": 95, "velocity": 110}, {"time": 28202, "pitch": 42, "duration": 166, "velocity": 110}, {"time": 28442, "pitch": 42, "duration": 72, "velocity": 110}, {"time": 28683, "pitch": 42, "duration": 50, "velocity": 110}, {"time": 28803, "pitch": 42, "duration": 110, "velocity": 110}, {"time": 29040, "pitch": 42, "duration": 99, "velocity": 110}, {"time": 29277, "pitch": 40, "duration": 136, "velocity": 110}, {"time": 29518, "pitch": 40, "duration": 171, "velocity": 110}, {"time": 29759, "pitch": 40, "duration": 197, "velocity": 110}, {"time": 29999, "pitch": 40, "duration": 72, "velocity": 110}, {"time": 30120, "pitch": 40, "duration": 114, "velocity": 110}, {"time": 30240, "pitch": 45, "duration": 139, "velocity": 110}, {"time": 30481, "pitch": 45, "duration": 75, "velocity": 110}, {"time": 30601, "pitch": 45, "duration": 65, "velocity": 110}, {"time": 30721, "pitch": 45, "duration": 162, "velocity": 110}, {"time": 30962, "pitch": 45, "duration": 81, "velocity": 110}, {"time": 31082, "pitch": 45, "duration": 80, "velocity": 110}, {"time": 31203, "pitch": 40, "duration": 335, "velocity": 110}, {"time": 31558, "pitch": 45, "duration": 265, "velocity": 110}, {"time": 31917, "pitch": 50, "duration": 298, "velocity": 110}, {"time": 33121, "pitch": 50, "duration": 194, "velocity": 110}, {"time": 33361, "pitch": 50, "duration": 60, "velocity": 110}, {"time": 33482, "pitch": 50, "duration": 45, "velocity": 110}, {"time": 33602, "pitch": 50, "duration": 165, "velocity": 110}, {"time": 33843, "pitch": 50, "duration": 68, "velocity": 110}, {"time": 33963, "pitch": 50, "duration": 55, "velocity": 110}, {"time": 34083, "pitch": 49, "duration": 192, "velocity": 110}, {"time": 34320, "pitch": 49, "duration": 60, "velocity": 110}, {"time": 34439, "pitch": 49, "duration": 44, "velocity": 110}, {"time": 34557, "pitch": 49, "duration": 166, "velocity": 110}, {"time": 34798, "pitch": 49, "duration": 68, "velocity": 110}, {"time": 34918, "pitch": 49, "duration": 56, "velocity": 110}, {"time": 35039, "pitch": 47, "duration": 203, "velocity": 110}, {"time": 35279, "pitch": 47, "duration": 69, "velocity": 110}, {"time": 35400, "pitch": 47, "duration": 30, "velocity": 110}, {"time": 35520, "pitch": 47, "duration": 147, "velocity": 110}, {"time": 35761, "pitch": 47, "duration": 57, "velocity": 110}, {"time": 35881, "pitch": 47, "duration": 50, "velocity": 110}, {"time": 36001, "pitch": 43, "duration": 167, "velocity": 110}, {"time": 36242, "pitch": 43, "duration": 86, "velocity": 110}, {"time": 36362, "pitch": 43, "duration": 47, "velocity": 110}, {"time": 36483, "pitch": 43, "duration": 175, "velocity": 110}, {"time": 36720, "pitch": 43, "duration": 79, "velocity": 110}, {"time": 36838, "pitch": 43, "duration": 111, "velocity": 110}, {"time": 36957, "pitch": 50, "duration": 194, "velocity": 110}, {"time": 37197, "pitch": 50, "duration": 61, "velocity": 110}, {"time": 37318, "pitch": 50, "duration": 45, "velocity": 110}, {"time": 37438, "pitch": 50, "duration": 166, "velocity": 110}, {"time": 37679, "pitch": 50, "duration": 68, "velocity": 110}, {"time": 37799, "pitch": 50, "duration": 55, "velocity": 110}, {"time": 37919, "pitch": 47, "duration": 204, "velocity": 110}, {"time": 38160, "pitch": 47, "duration": 68, "velocity": 110}, {"time": 38280, "pitch": 47, "duration": 30, "velocity": 110}, {"time": 38401, "pitch": 47, "duration": 147, "velocity": 110}, {"time": 38641, "pitch": 47, "duration": 57, "velocity": 110}, {"time": 38762, "pitch": 47, "duration": 50, "velocity": 110}, {"time": 38882, "pitch": 52, "duration": 194, "velocity": 110}, {"time": 39123, "pitch": 52, "duration": 60, "velocity": 110}, {"time": 39243, "pitch": 52, "duration": 45, "velocity": 110}, {"time": 39363, "pitch": 52, "duration": 163, "velocity": 110}, {"time": 39600, "pitch": 52, "duration": 67, "velocity": 110}, {"time": 39719, "pitch": 52, "duration": 54, "velocity": 110}, {"time": 39837, "pitch": 45, "duration": 195, "velocity": 110}, {"time": 40078, "pitch": 45, "duration": 60, "velocity": 110}, {"time": 40198, "pitch": 45, "duration": 46, "velocity": 110}, {"time": 40319, "pitch": 45, "duration": 165, "velocity": 110}, {"time": 40559, "pitch": 45, "duration": 69, "velocity": 110}, {"time": 40680, "pitch": 45, "duration": 55, "velocity": 110}, {"time": 40800, "pitch": 50, "duration": 195, "velocity": 110}, {"time": 41041, "pitch": 50, "duration": 60, "velocity": 110}, {"time": 41161, "pitch": 50, "duration": 45, "velocity": 110}, {"time": 41281, "pitch": 50, "duration": 166, "velocity": 110}, {"time": 41522, "pitch": 50, "duration": 68, "velocity": 110}, {"time": 41642, "pitch": 50, "duration": 55, "velocity": 110}, {"time": 41763, "pitch": 49, "duration": 191, "velocity": 110}, {"time": 42000, "pitch": 49, "duration": 59, "velocity": 110}, {"time": 42118, "pitch": 49, "duration": 45, "velocity": 110}, {"time": 42237, "pitch": 49, "duration": 165, "velocity": 110}, {"time": 42477, "pitch": 49, "duration": 69, "velocity": 110}, {"time": 42598, "pitch": 49, "duration": 55, "velocity": 110}, {"time": 42718, "pitch": 47, "duration": 204, "velocity": 110}, {"time": 42959, "pitch": 47, "duration": 68, "velocity": 110}, {"time": 43079, "pitch": 47, "duration": 30, "velocity": 110}, {"time": 43199, "pitch": 47, "duration": 148, "velocity": 110}, {"time": 43440, "pitch": 47, "duration": 57, "velocity": 110}, {"time": 43560, "pitch": 47, "duration": 50, "velocity": 110}, {"time": 43681, "pitch": 43, "duration": 166, "velocity": 110}, {"time": 43921, "pitch": 43, "duration": 87, "velocity": 110}, {"time": 44042, "pitch": 43, "duration": 47, "velocity": 110}, {"time": 44162, "pitch": 43, "duration": 178, "velocity": 110}, {"time": 44403, "pitch": 43, "duration": 80, "velocity": 110}, {"time": 44523, "pitch": 43, "duration": 112, "velocity": 110}, {"time": 44643, "pitch": 50, "duration": 192, "velocity": 110}, {"time": 44880, "pitch": 50, "duration": 60, "velocity": 110}, {"time": 44999, "pitch": 50, "duration": 44, "velocity": 110}, {"time": 45117, "pitch": 50, "duration": 166, "velocity": 110}, {"time": 45358, "pitch": 50, "duration": 68, "velocity": 110}, {"time": 45478, "pitch": 50, "duration": 56, "velocity": 110}, {"time": 45599, "pitch": 47, "duration": 203, "velocity": 110}, {"time": 45839, "pitch": 47, "duration": 69, "velocity": 110}, {"time": 45960, "pitch": 47, "duration": 30, "velocity": 110}, {"time": 46080, "pitch": 47, "duration": 147, "velocity": 110}, {"time": 46321, "pitch": 47, "duration": 57, "velocity": 110}, {"time": 46441, "pitch": 47, "duration": 50, "velocity": 110}, {"time": 46561, "pitch": 52, "duration": 195, "velocity": 110}, {"time": 46802, "pitch": 52, "duration": 60, "velocity": 110}, {"time": 46922, "pitch": 52, "duration": 45, "velocity": 110}, {"time": 47043, "pitch": 52, "duration": 163, "velocity": 110}, {"time": 47280, "pitch": 52, "duration": 67, "velocity": 110}, {"time": 47398, "pitch": 52, "duration": 55, "velocity": 110}, {"time": 47517, "pitch": 45, "duration": 194, "velocity": 110}, {"time": 47757, "pitch": 45, "duration": 61, "velocity": 110}, {"time": 47878, "pitch": 45, "duration": 45, "velocity": 110}, {"time": 47998, "pitch": 45, "duration": 166, "velocity": 110}, {"time": 48239, "pitch": 45, "duration": 68, "velocity": 110}, {"time": 48359, "pitch": 45, "duration": 55, "velocity": 110}, {"time": 48479, "pitch": 40, "duration": 341, "velocity": 110}, {"time": 48840, "pitch": 45, "duration": 267, "velocity": 110}, {"time": 49201, "pitch": 50, "duration": 298, "velocity": 110}, {"time": 50397, "pitch": 43, "duration": 199, "velocity": 110}, {"time": 50638, "pitch": 43, "duration": 40, "velocity": 110}, {"time": 50758, "pitch": 43, "duration": 46, "velocity": 110}, {"time": 50879, "pitch": 43, "duration": 152, "velocity": 110}, {"time": 51119, "pitch": 43, "duration": 36, "velocity": 110}, {"time": 51240, "pitch": 43, "duration": 44, "velocity": 110}, {"time": 51360, "pitch": 43, "duration": 199, "velocity": 110}, {"time": 51601, "pitch": 43, "duration": 40, "velocity": 110}, {"time": 51721, "pitch": 43, "duration": 45, "velocity": 110}, {"time": 51841, "pitch": 43, "duration": 153, "velocity": 110}, {"time": 52082, "pitch": 43, "duration": 36, "velocity": 110}, {"time": 52202, "pitch": 43, "duration": 44, "velocity": 110}, {"time": 52323, "pitch": 45, "duration": 195, "velocity": 110}, {"time": 52560, "pitch": 45, "duration": 39, "velocity": 110}, {"time": 52678, "pitch": 45, "duration": 45, "velocity": 110}, {"time": 52797, "pitch": 45, "duration": 152, "velocity": 110}, {"time": 53037, "pitch": 45, "duration": 37, "velocity": 110}, {"time": 53158, "pitch": 45, "duration": 44, "velocity": 110}, {"time": 53278, "pitch": 45, "duration": 199, "velocity": 110}, {"time": 53519, "pitch": 45, "duration": 40, "velocity": 110}, {"time": 53639, "pitch": 45, "duration": 45, "velocity": 110}, {"time": 53759, "pitch": 45, "duration": 153, "velocity": 110}, {"time": 54000, "pitch": 45, "duration": 36, "velocity": 110}, {"time": 54120, "pitch": 45, "duration": 44, "velocity": 110}, {"time": 54241, "pitch": 42, "duration": 198, "velocity": 110}, {"time": 54481, "pitch": 42, "duration": 40, "velocity": 110}, {"time": 54602, "pitch": 42, "duration": 45, "velocity": 110}, {"time": 54722, "pitch": 42, "duration": 152, "velocity": 110}, {"time": 54963, "pitch": 42, "duration": 36, "velocity": 110}, {"time": 55083, "pitch": 42, "duration": 44, "velocity": 110}, {"time": 55203, "pitch": 42, "duration": 196, "velocity": 110}, {"time": 55440, "pitch": 42, "duration": 40, "velocity": 110}, {"time": 55559, "pitch": 42, "duration": 44, "velocity": 110}, {"time": 55677, "pitch": 42, "duration": 153, "velocity": 110}, {"time": 55918, "pitch": 42, "duration": 36, "velocity": 110}, {"time": 56038, "pitch": 42, "duration": 44, "velocity": 110}, {"time": 56159, "pitch": 47, "duration": 198, "velocity": 110}, {"time": 56399, "pitch": 47, "duration": 40, "velocity": 110}, {"time": 56520, "pitch": 47, "duration": 45, "velocity": 110}, {"time": 56640, "pitch": 47, "duration": 152, "velocity": 110}, {"time": 56881, "pitch": 47, "duration": 36, "velocity": 110}, {"time": 57001, "pitch": 47, "duration": 44, "velocity": 110}, {"time": 57121, "pitch": 47, "duration": 199, "velocity": 110}, {"time": 57362, "pitch": 47, "duration": 40, "velocity": 110}, {"time": 57482, "pitch": 47, "duration": 45, "velocity": 110}, {"time": 57603, "pitch": 47, "duration": 150, "velocity": 110}, {"time": 57840, "pitch": 47, "duration": 35, "velocity": 110}, {"time": 57958, "pitch": 47, "duration": 44, "velocity": 110}, {"time": 58077, "pitch": 43, "duration": 198, "velocity": 110}, {"time": 58317, "pitch": 43, "duration": 41, "velocity": 110}, {"time": 58438, "pitch": 43, "duration": 45, "velocity": 110}, {"time": 58558, "pitch": 43, "duration": 152, "velocity": 110}, {"time": 58799, "pitch": 43, "duration": 36, "velocity": 110}, {"time": 58919, "pitch": 43, "duration": 44, "velocity": 110}, {"time": 59039, "pitch": 43, "duration": 199, "velocity": 110}, {"time": 59280, "pitch": 43, "duration": 40, "velocity": 110}, {"time": 59400, "pitch": 43, "duration": 45, "velocity": 110}, {"time": 59521, "pitch": 43, "duration": 152, "velocity": 110}, {"time": 59761, "pitch": 43, "duration": 36, "velocity": 110}, {"time": 59882, "pitch": 43, "duration": 44, "velocity": 110}, {"time": 60002, "pitch": 45, "duration": 198, "velocity": 110}, {"time": 60243, "pitch": 45, "duration": 40, "velocity": 110}, {"time": 60363, "pitch": 45, "duration": 45, "velocity": 110}, {"time": 60483, "pitch": 45, "duration": 150, "velocity": 110}, {"time": 60720, "pitch": 45, "duration": 36, "velocity": 110}, {"time": 60839, "pitch": 45, "duration": 43, "velocity": 110}, {"time": 60957, "pitch": 45, "duration": 199, "velocity": 110}, {"time": 61198, "pitch": 45, "duration": 40, "velocity": 110}, {"time": 61318, "pitch": 45, "duration": 45, "velocity": 110}, {"time": 61439, "pitch": 45, "duration": 152, "velocity": 110}, {"time": 61679, "pitch": 45, "duration": 36, "velocity": 110}, {"time": 61800, "pitch": 45, "duration": 44, "velocity": 110}, {"time": 61920, "pitch": 42, "duration": 199, "velocity": 110}, {"time": 62161, "pitch": 42, "duration": 40, "velocity": 110}, {"time": 62281, "pitch": 42, "duration": 45, "velocity": 110}, {"time": 62401, "pitch": 42, "duration": 153, "velocity": 110}, {"time": 62642, "pitch": 42, "duration": 36, "velocity": 110}, {"time": 62762, "pitch": 42, "duration": 44, "velocity": 110}, {"time": 62883, "pitch": 42, "duration": 195, "velocity": 110}, {"time": 63120, "pitch": 42, "duration": 39, "velocity": 110}, {"time": 63238, "pitch": 42, "duration": 45, "velocity": 110}, {"time": 63357, "pitch": 42, "duration": 152, "velocity": 110}, {"time": 63597, "pitch": 42, "duration": 37, "velocity": 110}, {"time": 63718, "pitch": 42, "duration": 44, "velocity": 110}, {"time": 63838, "pitch": 47, "duration": 199, "velocity": 110}, {"time": 64079, "pitch": 47, "duration": 40, "velocity": 110}, {"time": 64199, "pitch": 47, "duration": 45, "velocity": 110}, {"time": 64319, "pitch": 47, "duration": 153, "velocity": 110}, {"time": 64560, "pitch": 47, "duration": 36, "velocity": 110}, {"time": 64680, "pitch": 47, "duration": 44, "velocity": 110}, {"time": 64801, "pitch": 47, "duration": 198, "velocity": 110}, {"time": 65041, "pitch": 47, "duration": 40, "velocity": 110}, {"time": 65162, "pitch": 47, "duration": 45, "velocity": 110}, {"time": 65282, "pitch": 47, "duration": 152, "velocity": 110}, {"time": 65523, "pitch": 47, "duration": 36, "velocity": 110}, {"time": 65643, "pitch": 47, "duration": 44, "velocity": 110}, {"time": 65763, "pitch": 40, "duration": 244, "velocity": 110}, {"time": 66119, "pitch": 40, "duration": 240, "velocity": 110}, {"time": 66478, "pitch": 45, "duration": 423, "velocity": 110}, {"time": 67681, "pitch": 50, "duration": 122, "velocity": 110}, {"time": 67922, "pitch": 50, "duration": 121, "velocity": 110}, {"time": 68163, "pitch": 50, "duration": 97, "velocity": 110}, {"time": 68400, "pitch": 50, "duration": 104, "velocity": 110}, {"time": 68518, "pitch": 49, "duration": 159, "velocity": 110}, {"time": 68757, "pitch": 49, "duration": 111, "velocity": 110}, {"time": 68998, "pitch": 49, "duration": 63, "velocity": 110}, {"time": 69118, "pitch": 49, "duration": 120, "velocity": 110}, {"time": 69359, "pitch": 49, "duration": 156, "velocity": 110}, {"time": 69599, "pitch": 47, "duration": 130, "velocity": 110}, {"time": 69840, "pitch": 47, "duration": 114, "velocity": 110}, {"time": 70081, "pitch": 47, "duration": 97, "velocity": 110}, {"time": 70321, "pitch": 47, "duration": 92, "velocity": 110}, {"time": 70442, "pitch": 45, "duration": 142, "velocity": 110}, {"time": 70682, "pitch": 45, "duration": 93, "velocity": 110}, {"time": 70923, "pitch": 45, "duration": 43, "velocity": 110}, {"time": 71043, "pitch": 45, "duration": 152, "velocity": 110}, {"time": 71280, "pitch": 45, "duration": 154, "velocity": 110}, {"time": 71517, "pitch": 43, "duration": 119, "velocity": 110}, {"time": 71758, "pitch": 43, "duration": 122, "velocity": 110}, {"time": 71999, "pitch": 43, "duration": 97, "velocity": 110}, {"time": 72239, "pitch": 43, "duration": 95, "velocity": 110}, {"time": 72360, "pitch": 42, "duration": 166, "velocity": 110}, {"time": 72600, "pitch": 42, "duration": 72, "velocity": 110}, {"time": 72841, "pitch": 42, "duration": 50, "velocity": 110}, {"time": 72961, "pitch": 42, "duration": 112, "velocity": 110}, {"time": 73202, "pitch": 42, "duration": 100, "velocity": 110}, {"time": 73443, "pitch": 40, "duration": 133, "velocity": 110}, {"time": 73680, "pitch": 40, "duration": 168, "velocity": 110}, {"time": 73917, "pitch": 40, "duration": 197, "velocity": 110}, {"time": 74157, "pitch": 40, "duration": 72, "velocity": 110}, {"time": 74278, "pitch": 40, "duration": 114, "velocity": 110}, {"time": 74398, "pitch": 45, "duration": 139, "velocity": 110}, {"time": 74639, "pitch": 45, "duration": 75, "velocity": 110}, {"time": 74759, "pitch": 45, "duration": 65, "velocity": 110}, {"time": 74879, "pitch": 45, "duration": 162, "velocity": 110}, {"time": 75120, "pitch": 45, "duration": 81, "velocity": 110}, {"time": 75240, "pitch": 45, "duration": 81, "velocity": 110}, {"time": 75361, "pitch": 50, "duration": 121, "velocity": 110}, {"time": 75601, "pitch": 50, "duration": 122, "velocity": 110}, {"time": 75842, "pitch": 50, "duration": 99, "velocity": 110}, {"time": 76083, "pitch": 50, "duration": 106, "velocity": 110}, {"time": 76203, "pitch": 49, "duration": 160, "velocity": 110}, {"time": 76442, "pitch": 49, "duration": 109, "velocity": 110}, {"time": 76679, "pitch": 49, "duration": 62, "velocity": 110}, {"time": 76797, "pitch": 49, "duration": 121, "velocity": 110}, {"time": 77038, "pitch": 49, "duration": 156, "velocity": 110}, {"time": 77279, "pitch": 47, "duration": 129, "velocity": 110}, {"time": 77519, "pitch": 47, "duration": 115, "velocity": 110}, {"time": 77760, "pitch": 47, "duration": 97, "velocity": 110}, {"time": 78001, "pitch": 47, "duration": 91, "velocity": 110}, {"time": 78121, "pitch": 45, "duration": 142, "velocity": 110}, {"time": 78362, "pitch": 45, "duration": 93, "velocity": 110}, {"time": 78602, "pitch": 45, "duration": 43, "velocity": 110}, {"time": 78723, "pitch": 45, "duration": 152, "velocity": 110}, {"time": 78960, "pitch": 45, "duration": 154, "velocity": 110}, {"time": 79197, "pitch": 43, "duration": 118, "velocity": 110}, {"time": 79437, "pitch": 43, "duration": 123, "velocity": 110}, {"time": 79678, "pitch": 43, "duration": 97, "velocity": 110}, {"time": 79919, "pitch": 43, "duration": 94, "velocity": 110}, {"time": 80039, "pitch": 42, "duration": 166, "velocity": 110}, {"time": 80280, "pitch": 42, "duration": 72, "velocity": 110}, {"time": 80520, "pitch": 42, "duration": 50, "velocity": 110}, {"time": 80641, "pitch": 42, "duration": 111, "velocity": 110}, {"time": 80881, "pitch": 42, "duration": 101, "velocity": 110}, {"time": 81122, "pitch": 40, "duration": 135, "velocity": 110}, {"time": 81363, "pitch": 40, "duration": 170, "velocity": 110}, {"time": 81603, "pitch": 40, "duration": 195, "velocity": 110}, {"time": 81840, "pitch": 40, "duration": 70, "velocity": 110}, {"time": 81959, "pitch": 40, "duration": 113, "velocity": 110}, {"time": 82077, "pitch": 45, "duration": 140, "velocity": 110}, {"time": 82318, "pitch": 45, "duration": 75, "velocity": 110}, {"time": 82438, "pitch": 45, "duration": 66, "velocity": 110}, {"time": 82559, "pitch": 45, "duration": 161, "velocity": 110}, {"time": 82799, "pitch": 45, "duration": 82, "velocity": 110}, {"time": 82920, "pitch": 45, "duration": 80, "velocity": 110}, {"time": 83040, "pitch": 40, "duration": 341, "velocity": 110}, {"time": 83401, "pitch": 45, "duration": 267, "velocity": 110}, {"time": 83762, "pitch": 50, "duration": 297, "velocity": 110}, {"time": 84958, "pitch": 50, "duration": 195, "velocity": 110}, {"time": 85199, "pitch": 50, "duration": 60, "velocity": 110}, {"time": 85319, "pitch": 50, "duration": 45, "velocity": 110}, {"time": 85439, "pitch": 50, "duration": 166, "velocity": 110}, {"time": 85680, "pitch": 50, "duration": 68, "velocity": 110}, {"time": 85800, "pitch": 50, "duration": 55, "velocity": 110}, {"time": 85921, "pitch": 49, "duration": 194, "velocity": 110}, {"time": 86161, "pitch": 49, "duration": 60, "velocity": 110}, {"time": 86282, "pitch": 49, "duration": 45, "velocity": 110}, {"time": 86402, "pitch": 49, "duration": 165, "velocity": 110}, {"time": 86643, "pitch": 49, "duration": 68, "velocity": 110}, {"time": 86763, "pitch": 49, "duration": 55, "velocity": 110}, {"time": 86883, "pitch": 47, "duration": 201, "velocity": 110}, {"time": 87120, "pitch": 47, "duration": 67, "velocity": 110}, {"time": 87239, "pitch": 47, "duration": 30, "velocity": 110}, {"time": 87357, "pitch": 47, "duration": 148, "velocity": 110}, {"time": 87598, "pitch": 47, "duration": 57, "velocity": 110}, {"time": 87718, "pitch": 47, "duration": 51, "velocity": 110}, {"time": 87839, "pitch": 43, "duration": 166, "velocity": 110}, {"time": 88079, "pitch": 43, "duration": 87, "velocity": 110}, {"time": 88200, "pitch": 43, "duration": 47, "velocity": 110}, {"time": 88320, "pitch": 43, "duration": 178, "velocity": 110}, {"time": 88561, "pitch": 43, "duration": 80, "velocity": 110}, {"time": 88681, "pitch": 43, "duration": 112, "velocity": 110}, {"time": 88801, "pitch": 50, "duration": 195, "velocity": 110}, {"time": 89042, "pitch": 50, "duration": 60, "velocity": 110}, {"time": 89162, "pitch": 50, "duration": 45, "velocity": 110}, {"time": 89283, "pitch": 50, "duration": 163, "velocity": 110}, {"time": 89520, "pitch": 50, "duration": 67, "velocity": 110}, {"time": 89638, "pitch": 50, "duration": 55, "velocity": 110}, {"time": 89757, "pitch": 47, "duration": 203, "velocity": 110}, {"time": 89997, "pitch": 47, "duration": 69, "velocity": 110}, {"time": 90118, "pitch": 47, "duration": 30, "velocity": 110}, {"time": 90238, "pitch": 47, "duration": 147, "velocity": 110}, {"time": 90479, "pitch": 47, "duration": 57, "velocity": 110}, {"time": 90599, "pitch": 47, "duration": 50, "velocity": 110}, {"time": 90719, "pitch": 52, "duration": 195, "velocity": 110}, {"time": 90960, "pitch": 52, "duration": 60, "velocity": 110}, {"time": 91080, "pitch": 52, "duration": 45, "velocity": 110}, {"time": 91201, "pitch": 52, "duration": 165, "velocity": 110}, {"time": 91441, "pitch": 52, "duration": 68, "velocity": 110}, {"time": 91562, "pitch": 52, "duration": 55, "velocity": 110}, {"time": 91682, "pitch": 45, "duration": 194, "velocity": 110}, {"time": 91923, "pitch": 45, "duration": 60, "velocity": 110}, {"time": 92043, "pitch": 45, "duration": 45, "velocity": 110}, {"time": 92163, "pitch": 45, "duration": 163, "velocity": 110}, {"time": 92400, "pitch": 45, "duration": 67, "velocity": 110}, {"time": 92519, "pitch": 45, "duration": 54, "velocity": 110}, {"time": 92637, "pitch": 50, "duration": 195, "velocity": 110}, {"time": 92878, "pitch": 50, "duration": 60, "velocity": 110}, {"time": 92998, "pitch": 50, "duration": 45, "velocity": 110}, {"time": 93119, "pitch": 50, "duration": 165, "velocity": 110}, {"time": 93359, "pitch": 50, "duration": 69, "velocity": 110}, {"time": 93480, "pitch": 50, "duration": 55, "velocity": 110}, {"time": 93600, "pitch": 49, "duration": 194, "velocity": 110}, {"time": 93841, "pitch": 49, "duration": 60, "velocity": 110}, {"time": 93961, "pitch": 49, "duration": 45, "velocity": 110}, {"time": 94081, "pitch": 49, "duration": 166, "velocity": 110}, {"time": 94322, "pitch": 49, "duration": 68, "velocity": 110}, {"time": 94442, "pitch": 49, "duration": 55, "velocity": 110}, {"time": 94563, "pitch": 47, "duration": 200, "velocity": 110}, {"time": 94800, "pitch": 47, "duration": 67, "velocity": 110}, {"time": 94918, "pitch": 47, "duration": 30, "velocity": 110}, {"time": 95037, "pitch": 47, "duration": 147, "velocity": 110}, {"time": 95277, "pitch": 47, "duration": 58, "velocity": 110}, {"time": 95398, "pitch": 47, "duration": 50, "velocity": 110}, {"time": 95518, "pitch": 43, "duration": 166, "velocity": 110}, {"time": 95759, "pitch": 43, "duration": 86, "velocity": 110}, {"time": 95879, "pitch": 43, "duration": 47, "velocity": 110}, {"time": 95999, "pitch": 43, "duration": 179, "velocity": 110}, {"time": 96240, "pitch": 43, "duration": 80, "velocity": 110}, {"time": 96360, "pitch": 43, "duration": 113, "velocity": 110}, {"time": 96481, "pitch": 50, "duration": 194, "velocity": 110}, {"time": 96721, "pitch": 50, "duration": 60, "velocity": 110}, {"time": 96842, "pitch": 50, "duration": 45, "velocity": 110}, {"time": 96962, "pitch": 50, "duration": 165, "velocity": 110}, {"time": 97203, "pitch": 50, "duration": 68, "velocity": 110}, {"time": 97323, "pitch": 50, "duration": 55, "velocity": 110}, {"time": 97443, "pitch": 47, "duration": 201, "velocity": 110}, {"time": 97680, "pitch": 47, "duration": 67, "velocity": 110}, {"time": 97799, "pitch": 47, "duration": 30, "velocity": 110}, {"time": 97917, "pitch": 47, "duration": 148, "velocity": 110}, {"time": 98158, "pitch": 47, "duration": 57, "velocity": 110}, {"time": 98278, "pitch": 47, "duration": 51, "velocity": 110}, {"time": 98399, "pitch": 52, "duration": 194, "velocity": 110}, {"time": 98639, "pitch": 52, "duration": 60, "velocity": 110}, {"time": 98760, "pitch": 52, "duration": 45, "velocity": 110}, {"time": 98880, "pitch": 52, "duration": 165, "velocity": 110}, {"time": 99121, "pitch": 52, "duration": 68, "velocity": 110}, {"time": 99241, "pitch": 52, "duration": 55, "velocity": 110}, {"time": 99361, "pitch": 45, "duration": 195, "velocity": 110}, {"time": 99602, "pitch": 45, "duration": 60, "velocity": 110}, {"time": 99722, "pitch": 45, "duration": 45, "velocity": 110}, {"time": 99843, "pitch": 45, "duration": 163, "velocity": 110}, {"time": 100080, "pitch": 45, "duration": 67, "velocity": 110}, {"time": 100198, "pitch": 45, "duration": 55, "velocity": 110}, {"time": 123362, "pitch": 50, "duration": 194, "velocity": 110}, {"time": 123603, "pitch": 50, "duration": 60, "velocity": 110}, {"time": 123723, "pitch": 50, "duration": 45, "velocity": 110}, {"time": 123843, "pitch": 50, "duration": 163, "velocity": 110}, {"time": 124080, "pitch": 50, "duration": 67, "velocity": 110}, {"time": 124199, "pitch": 50, "duration": 54, "velocity": 110}, {"time": 124317, "pitch": 47, "duration": 204, "velocity": 110}, {"time": 124558, "pitch": 47, "duration": 68, "velocity": 110}, {"time": 124678, "pitch": 47, "duration": 30, "velocity": 110}, {"time": 124799, "pitch": 47, "duration": 147, "velocity": 110}, {"time": 125039, "pitch": 47, "duration": 57, "velocity": 110}, {"time": 125160, "pitch": 47, "duration": 50, "velocity": 110}, {"time": 125280, "pitch": 52, "duration": 194, "velocity": 110}, {"time": 125521, "pitch": 52, "duration": 60, "velocity": 110}, {"time": 125641, "pitch": 52, "duration": 45, "velocity": 110}, {"time": 125761, "pitch": 52, "duration": 166, "velocity": 110}, {"time": 126002, "pitch": 52, "duration": 68, "velocity": 110}, {"time": 126122, "pitch": 52, "duration": 55, "velocity": 110}, {"time": 126242, "pitch": 45, "duration": 192, "velocity": 110}, {"time": 126480, "pitch": 45, "duration": 59, "velocity": 110}, {"time": 126598, "pitch": 45, "duration": 45, "velocity": 110}, {"time": 126717, "pitch": 45, "duration": 165, "velocity": 110}, {"time": 126957, "pitch": 45, "duration": 69, "velocity": 110}, {"time": 127078, "pitch": 45, "duration": 55, "velocity": 110}, {"time": 127198, "pitch": 50, "duration": 195, "velocity": 110}, {"time": 127439, "pitch": 50, "duration": 60, "velocity": 110}, {"time": 127559, "pitch": 50, "duration": 45, "velocity": 110}, {"time": 127679, "pitch": 50, "duration": 166, "velocity": 110}, {"time": 127920, "pitch": 50, "duration": 68, "velocity": 110}, {"time": 128040, "pitch": 50, "duration": 55, "velocity": 110}, {"time": 128161, "pitch": 49, "duration": 194, "velocity": 110}, {"time": 128401, "pitch": 49, "duration": 60, "velocity": 110}, {"time": 128522, "pitch": 49, "duration": 45, "velocity": 110}, {"time": 128642, "pitch": 49, "duration": 165, "velocity": 110}, {"time": 128883, "pitch": 49, "duration": 68, "velocity": 110}, {"time": 129003, "pitch": 49, "duration": 55, "velocity": 110}, {"time": 129123, "pitch": 47, "duration": 201, "velocity": 110}, {"time": 129360, "pitch": 47, "duration": 67, "velocity": 110}, {"time": 129479, "pitch": 47, "duration": 30, "velocity": 110}, {"time": 129597, "pitch": 47, "duration": 148, "velocity": 110}, {"time": 129838, "pitch": 47, "duration": 57, "velocity": 110}, {"time": 129958, "pitch": 47, "duration": 50, "velocity": 110}, {"time": 130079, "pitch": 43, "duration": 166, "velocity": 110}, {"time": 130319, "pitch": 43, "duration": 87, "velocity": 110}, {"time": 130440, "pitch": 43, "duration": 47, "velocity": 110}, {"time": 130560, "pitch": 43, "duration": 178, "velocity": 110}, {"time": 130801, "pitch": 43, "duration": 80, "velocity": 110}, {"time": 130921, "pitch": 43, "duration": 112, "velocity": 110}, {"time": 131041, "pitch": 50, "duration": 195, "velocity": 110}, {"time": 131282, "pitch": 50, "duration": 60, "velocity": 110}, {"time": 131402, "pitch": 50, "duration": 45, "velocity": 110}, {"time": 131522, "pitch": 50, "duration": 164, "velocity": 110}, {"time": 131760, "pitch": 50, "duration": 67, "velocity": 110}, {"time": 131878, "pitch": 50, "duration": 55, "velocity": 110}, {"time": 131997, "pitch": 47, "duration": 203, "velocity": 110}, {"time": 132237, "pitch": 47, "duration": 69, "velocity": 110}, {"time": 132358, "pitch": 47, "duration": 30, "velocity": 110}, {"time": 132478, "pitch": 47, "duration": 147, "velocity": 110}, {"time": 132719, "pitch": 47, "duration": 57, "velocity": 110}, {"time": 132839, "pitch": 47, "duration": 50, "velocity": 110}, {"time": 132959, "pitch": 52, "duration": 195, "velocity": 110}, {"time": 133200, "pitch": 52, "duration": 60, "velocity": 110}, {"time": 133320, "pitch": 52, "duration": 45, "velocity": 110}, {"time": 133441, "pitch": 52, "duration": 165, "velocity": 110}, {"time": 133681, "pitch": 52, "duration": 68, "velocity": 110}, {"time": 133802, "pitch": 52, "duration": 55, "velocity": 110}, {"time": 133922, "pitch": 45, "duration": 194, "velocity": 110}, {"time": 134163, "pitch": 45, "duration": 60, "velocity": 110}, {"time": 134283, "pitch": 45, "duration": 45, "velocity": 110}, {"time": 134403, "pitch": 45, "duration": 163, "velocity": 110}, {"time": 134640, "pitch": 45, "duration": 67, "velocity": 110}, {"time": 134759, "pitch": 45, "duration": 54, "velocity": 110}, {"time": 134877, "pitch": 50, "duration": 195, "velocity": 110}, {"time": 135118, "pitch": 50, "duration": 60, "velocity": 110}, {"time": 135238, "pitch": 50, "duration": 45, "velocity": 110}, {"time": 135359, "pitch": 50, "duration": 165, "velocity": 110}, {"time": 135599, "pitch": 50, "duration": 69, "velocity": 110}, {"time": 135720, "pitch": 50, "duration": 55, "velocity": 110}, {"time": 135840, "pitch": 49, "duration": 194, "velocity": 110}, {"time": 136081, "pitch": 49, "duration": 60, "velocity": 110}, {"time": 136201, "pitch": 49, "duration": 45, "velocity": 110}, {"time": 136321, "pitch": 49, "duration": 166, "velocity": 110}, {"time": 136562, "pitch": 49, "duration": 68, "velocity": 110}, {"time": 136682, "pitch": 49, "duration": 55, "velocity": 110}, {"time": 136802, "pitch": 47, "duration": 201, "velocity": 110}, {"time": 137040, "pitch": 47, "duration": 67, "velocity": 110}, {"time": 137158, "pitch": 47, "duration": 30, "velocity": 110}, {"time": 137277, "pitch": 47, "duration": 147, "velocity": 110}, {"time": 137517, "pitch": 47, "duration": 58, "velocity": 110}, {"time": 137638, "pitch": 47, "duration": 50, "velocity": 110}, {"time": 137758, "pitch": 43, "duration": 166, "velocity": 110}, {"time": 137999, "pitch": 43, "duration": 86, "velocity": 110}, {"time": 138119, "pitch": 43, "duration": 47, "velocity": 110}, {"time": 138239, "pitch": 43, "duration": 179, "velocity": 110}, {"time": 138480, "pitch": 43, "duration": 80, "velocity": 110}, {"time": 138600, "pitch": 43, "duration": 113, "velocity": 110}, {"time": 138721, "pitch": 50, "duration": 194, "velocity": 110}, {"time": 138961, "pitch": 50, "duration": 60, "velocity": 110}, {"time": 139082, "pitch": 50, "duration": 45, "velocity": 110}, {"time": 139202, "pitch": 50, "duration": 165, "velocity": 110}, {"time": 139443, "pitch": 50, "duration": 68, "velocity": 110}, {"time": 139563, "pitch": 50, "duration": 55, "velocity": 110}, {"time": 139683, "pitch": 47, "duration": 201, "velocity": 110}, {"time": 139920, "pitch": 47, "duration": 67, "velocity": 110}, {"time": 140039, "pitch": 47, "duration": 30, "velocity": 110}, {"time": 140157, "pitch": 47, "duration": 148, "velocity": 110}, {"time": 140398, "pitch": 47, "duration": 57, "velocity": 110}, {"time": 140518, "pitch": 47, "duration": 50, "velocity": 110}, {"time": 140639, "pitch": 52, "duration": 194, "velocity": 110}, {"time": 140879, "pitch": 52, "duration": 60, "velocity": 110}, {"time": 141000, "pitch": 52, "duration": 45, "velocity": 110}, {"time": 141120, "pitch": 52, "duration": 165, "velocity": 110}, {"time": 141361, "pitch": 52, "duration": 68, "velocity": 110}, {"time": 141481, "pitch": 52, "duration": 55, "velocity": 110}, {"time": 141601, "pitch": 45, "duration": 195, "velocity": 110}, {"time": 141842, "pitch": 45, "duration": 60, "velocity": 110}, {"time": 141962, "pitch": 45, "duration": 45, "velocity": 110}, {"time": 142082, "pitch": 45, "duration": 164, "velocity": 110}, {"time": 142320, "pitch": 45, "duration": 67, "velocity": 110}, {"time": 142438, "pitch": 45, "duration": 55, "velocity": 110}, {"time": 142557, "pitch": 50, "duration": 194, "velocity": 110}, {"time": 142797, "pitch": 50, "duration": 61, "velocity": 110}, {"time": 142918, "pitch": 50, "duration": 45, "velocity": 110}, {"time": 143038, "pitch": 50, "duration": 165, "velocity": 110}, {"time": 143279, "pitch": 50, "duration": 68, "velocity": 110}, {"time": 143399, "pitch": 50, "duration": 55, "velocity": 110}, {"time": 143519, "pitch": 49, "duration": 195, "velocity": 110}, {"time": 143760, "pitch": 49, "duration": 60, "velocity": 110}, {"time": 143880, "pitch": 49, "duration": 45, "velocity": 110}, {"time": 144001, "pitch": 49, "duration": 165, "velocity": 110}, {"time": 144241, "pitch": 49, "duration": 68, "velocity": 110}, {"time": 144362, "pitch": 49, "duration": 55, "velocity": 110}, {"time": 144482, "pitch": 47, "duration": 203, "velocity": 110}, {"time": 144723, "pitch": 47, "duration": 68, "velocity": 110}, {"time": 144843, "pitch": 47, "duration": 30, "velocity": 110}, {"time": 144963, "pitch": 47, "duration": 145, "velocity": 110}, {"time": 145200, "pitch": 47, "duration": 57, "velocity": 110}, {"time": 145319, "pitch": 47, "duration": 49, "velocity": 110}, {"time": 145437, "pitch": 43, "duration": 167, "velocity": 110}, {"time": 145678, "pitch": 43, "duration": 86, "velocity": 110}, {"time": 145798, "pitch": 43, "duration": 47, "velocity": 110}, {"time": 145919, "pitch": 43, "duration": 178, "velocity": 110}, {"time": 146159, "pitch": 43, "duration": 81, "velocity": 110}, {"time": 146280, "pitch": 43, "duration": 112, "velocity": 110}, {"time": 146400, "pitch": 50, "duration": 194, "velocity": 110}, {"time": 146641, "pitch": 50, "duration": 60, "velocity": 110}, {"time": 146761, "pitch": 50, "duration": 45, "velocity": 110}, {"time": 146881, "pitch": 50, "duration": 166, "velocity": 110}, {"time": 147122, "pitch": 50, "duration": 68, "velocity": 110}, {"time": 147242, "pitch": 50, "duration": 55, "velocity": 110}, {"time": 147362, "pitch": 47, "duration": 201, "velocity": 110}, {"time": 147600, "pitch": 47, "duration": 67, "velocity": 110}, {"time": 147718, "pitch": 47, "duration": 30, "velocity": 110}, {"time": 147837, "pitch": 47, "duration": 147, "velocity": 110}, {"time": 148077, "pitch": 47, "duration": 58, "velocity": 110}, {"time": 148198, "pitch": 47, "duration": 50, "velocity": 110}, {"time": 148318, "pitch": 52, "duration": 195, "velocity": 110}, {"time": 148559, "pitch": 52, "duration": 60, "velocity": 110}, {"time": 148679, "pitch": 52, "duration": 45, "velocity": 110}, {"time": 148799, "pitch": 52, "duration": 166, "velocity": 110}, {"time": 149040, "pitch": 52, "duration": 68, "velocity": 110}, {"time": 149160, "pitch": 52, "duration": 55, "velocity": 110}, {"time": 149281, "pitch": 45, "duration": 194, "velocity": 110}, {"time": 149521, "pitch": 45, "duration": 60, "velocity": 110}, {"time": 149642, "pitch": 45, "duration": 45, "velocity": 110}, {"time": 149762, "pitch": 45, "duration": 165, "velocity": 110}, {"time": 150003, "pitch": 45, "duration": 68, "velocity": 110}, {"time": 150123, "pitch": 45, "duration": 55, "velocity": 110}, {"time": 150243, "pitch": 50, "duration": 130, "velocity": 110}, {"time": 150480, "pitch": 50, "duration": 97, "velocity": 110}, {"time": 150717, "pitch": 50, "duration": 103, "velocity": 110}, {"time": 150958, "pitch": 50, "duration": 122, "velocity": 110}, {"time": 151199, "pitch": 47, "duration": 104, "velocity": 110}, {"time": 151439, "pitch": 47, "duration": 97, "velocity": 110}, {"time": 151680, "pitch": 47, "duration": 67, "velocity": 110}, {"time": 151921, "pitch": 47, "duration": 97, "velocity": 110}, {"time": 152161, "pitch": 43, "duration": 108, "velocity": 110}, {"time": 152402, "pitch": 43, "duration": 77, "velocity": 110}, {"time": 152642, "pitch": 43, "duration": 58, "velocity": 110}, {"time": 152880, "pitch": 43, "duration": 105, "velocity": 110}, {"time": 152998, "pitch": 45, "duration": 82, "velocity": 110}, {"time": 153237, "pitch": 45, "duration": 93, "velocity": 110}, {"time": 153478, "pitch": 45, "duration": 38, "velocity": 110}, {"time": 153598, "pitch": 45, "duration": 111, "velocity": 110}, {"time": 153839, "pitch": 45, "duration": 156, "velocity": 110}, {"time": 154079, "pitch": 47, "duration": 92, "velocity": 110}, {"time": 154320, "pitch": 47, "duration": 98, "velocity": 110}, {"time": 154561, "pitch": 47, "duration": 97, "velocity": 110}, {"time": 154801, "pitch": 47, "duration": 65, "velocity": 110}, {"time": 154922, "pitch": 43, "duration": 113, "velocity": 110}, {"time": 155162, "pitch": 43, "duration": 83, "velocity": 110}, {"time": 155403, "pitch": 43, "duration": 51, "velocity": 110}, {"time": 155523, "pitch": 43, "duration": 113, "velocity": 110}, {"time": 155760, "pitch": 43, "duration": 115, "velocity": 110}, {"time": 155997, "pitch": 40, "duration": 248, "velocity": 110}, {"time": 156358, "pitch": 40, "duration": 242, "velocity": 110}, {"time": 156719, "pitch": 45, "duration": 423, "velocity": 110}, {"time": 157922, "pitch": 43, "duration": 1643, "velocity": 110}, {"time": 159600, "pitch": 55, "duration": 255, "velocity": 110}, {"time": 159841, "pitch": 43, "duration": 1629, "velocity": 110}, {"time": 161518, "pitch": 43, "duration": 108, "velocity": 110}, {"time": 161638, "pitch": 43, "duration": 109, "velocity": 110}], "annotations": [{"time": 211, "annotation": {"number": 7, "value": 110}, "group": "control_change"}, {"time": 230, "annotation": {"number": 11, "value": 110}, "group": "control_change"}, {"time": 249, "annotation": {"number": 10, "value": 24}, "group": "control_change"}, {"time": 268, "annotation": {"number": 91, "value": 40}, "group": "control_change"}, {"time": 287, "annotation": {"number": 93, "value": 30}, "group": "control_change"}, {"time": 306, "annotation": {"number": 94, "value": 0}, "group": "control_change"}, {"time": 326, "annotation": {"number": 101, "value": 0}, "group": "control_change"}, {"time": 345, "annotation": {"number": 100, "value": 0}, "group": "control_change"}, {"time": 364, "annotation": {"number": 6, "value": 12}, "group": "control_change"}, {"time": 383, "annotation": {"number": 101, "value": 127}, "group": "control_change"}, {"time": 402, "annotation": {"number": 100, "value": 127}, "group": "control_change"}]}, {"program": 0, "is_drum": false, "name": "BRIGHTNESS", "annotations": [{"time": 191, "annotation": {"number": 0, "value": 0}, "group": "control_change"}, {"time": 191, "annotation": {"number": 32, "value": 2}, "group": "control_change"}]}, {"program": 100, "is_drum": false, "name": "BRIGHTNESS", "notes": [{"time": 32639, "pitch": 69, "duration": 90, "velocity": 115}, {"time": 32760, "pitch": 69, "duration": 89, "velocity": 115}, {"time": 32880, "pitch": 74, "duration": 99, "velocity": 117}, {"time": 33000, "pitch": 81, "duration": 526, "velocity": 120}, {"time": 33722, "pitch": 78, "duration": 89, "velocity": 115}, {"time": 33843, "pitch": 78, "duration": 89, "velocity": 115}, {"time": 33963, "pitch": 79, "duration": 114, "velocity": 127}, {"time": 34083, "pitch": 81, "duration": 438, "velocity": 124}, {"time": 34798, "pitch": 78, "duration": 212, "velocity": 126}, {"time": 35039, "pitch": 83, "duration": 226, "velocity": 126}, {"time": 35279, "pitch": 81, "duration": 116, "velocity": 126}, {"time": 35400, "pitch": 78, "duration": 260, "velocity": 126}, {"time": 35761, "pitch": 81, "duration": 112, "velocity": 126}, {"time": 35881, "pitch": 74, "duration": 399, "velocity": 126}, {"time": 36601, "pitch": 81, "duration": 69, "velocity": 118}, {"time": 36720, "pitch": 81, "duration": 94, "velocity": 120}, {"time": 36838, "pitch": 81, "duration": 107, "velocity": 122}, {"time": 36957, "pitch": 74, "duration": 319, "velocity": 124}, {"time": 37558, "pitch": 81, "duration": 71, "velocity": 118}, {"time": 37679, "pitch": 81, "duration": 95, "velocity": 120}, {"time": 37799, "pitch": 81, "duration": 108, "velocity": 122}, {"time": 37919, "pitch": 74, "duration": 319, "velocity": 124}, {"time": 38641, "pitch": 74, "duration": 96, "velocity": 120}, {"time": 38762, "pitch": 74, "duration": 108, "velocity": 122}, {"time": 38882, "pitch": 79, "duration": 135, "velocity": 124}, {"time": 39123, "pitch": 78, "duration": 243, "velocity": 123}, {"time": 39363, "pitch": 76, "duration": 105, "velocity": 121}, {"time": 39482, "pitch": 74, "duration": 235, "velocity": 120}, {"time": 39719, "pitch": 76, "duration": 327, "velocity": 118}, {"time": 40319, "pitch": 69, "duration": 89, "velocity": 115}, {"time": 40439, "pitch": 69, "duration": 89, "velocity": 115}, {"time": 40559, "pitch": 74, "duration": 100, "velocity": 117}, {"time": 40680, "pitch": 81, "duration": 525, "velocity": 120}, {"time": 41402, "pitch": 78, "duration": 102, "velocity": 115}, {"time": 41522, "pitch": 79, "duration": 114, "velocity": 127}, {"time": 41642, "pitch": 81, "duration": 440, "velocity": 124}, {"time": 42477, "pitch": 78, "duration": 212, "velocity": 126}, {"time": 42718, "pitch": 83, "duration": 227, "velocity": 126}, {"time": 42959, "pitch": 81, "duration": 115, "velocity": 126}, {"time": 43079, "pitch": 78, "duration": 261, "velocity": 126}, {"time": 43440, "pitch": 81, "duration": 112, "velocity": 126}, {"time": 43560, "pitch": 74, "duration": 399, "velocity": 126}, {"time": 44282, "pitch": 81, "duration": 70, "velocity": 118}, {"time": 44403, "pitch": 81, "duration": 95, "velocity": 120}, {"time": 44523, "pitch": 81, "duration": 108, "velocity": 122}, {"time": 44643, "pitch": 74, "duration": 314, "velocity": 124}, {"time": 45238, "pitch": 81, "duration": 70, "velocity": 118}, {"time": 45358, "pitch": 81, "duration": 95, "velocity": 120}, {"time": 45478, "pitch": 81, "duration": 109, "velocity": 122}, {"time": 45599, "pitch": 74, "duration": 319, "velocity": 124}, {"time": 46321, "pitch": 74, "duration": 95, "velocity": 120}, {"time": 46441, "pitch": 74, "duration": 108, "velocity": 122}, {"time": 46561, "pitch": 79, "duration": 190, "velocity": 124}, {"time": 46802, "pitch": 78, "duration": 243, "velocity": 123}, {"time": 47043, "pitch": 76, "duration": 104, "velocity": 121}, {"time": 47161, "pitch": 74, "duration": 235, "velocity": 120}, {"time": 47398, "pitch": 78, "duration": 110, "velocity": 125}, {"time": 47517, "pitch": 76, "duration": 312, "velocity": 124}, {"time": 47998, "pitch": 74, "duration": 243, "velocity": 116}, {"time": 48239, "pitch": 73, "duration": 133, "velocity": 97}, {"time": 48359, "pitch": 74, "duration": 1565, "velocity": 126}, {"time": 84477, "pitch": 69, "duration": 89, "velocity": 115}, {"time": 84597, "pitch": 69, "duration": 89, "velocity": 115}, {"time": 84717, "pitch": 74, "duration": 100, "velocity": 117}, {"time": 84838, "pitch": 81, "duration": 525, "velocity": 120}, {"time": 85560, "pitch": 78, "duration": 89, "velocity": 115}, {"time": 85680, "pitch": 78, "duration": 89, "velocity": 115}, {"time": 85800, "pitch": 79, "duration": 115, "velocity": 127}, {"time": 85921, "pitch": 81, "duration": 444, "velocity": 124}, {"time": 86643, "pitch": 78, "duration": 101, "velocity": 126}, {"time": 86763, "pitch": 78, "duration": 101, "velocity": 126}, {"time": 86883, "pitch": 83, "duration": 223, "velocity": 126}, {"time": 87120, "pitch": 81, "duration": 114, "velocity": 126}, {"time": 87239, "pitch": 78, "duration": 259, "velocity": 126}, {"time": 87598, "pitch": 81, "duration": 112, "velocity": 126}, {"time": 87718, "pitch": 74, "duration": 399, "velocity": 126}, {"time": 88440, "pitch": 81, "duration": 70, "velocity": 118}, {"time": 88561, "pitch": 81, "duration": 95, "velocity": 120}, {"time": 88681, "pitch": 81, "duration": 108, "velocity": 122}, {"time": 88801, "pitch": 74, "duration": 319, "velocity": 124}, {"time": 89401, "pitch": 81, "duration": 69, "velocity": 118}, {"time": 89520, "pitch": 81, "duration": 94, "velocity": 120}, {"time": 89638, "pitch": 81, "duration": 107, "velocity": 122}, {"time": 89757, "pitch": 74, "duration": 319, "velocity": 124}, {"time": 90479, "pitch": 74, "duration": 95, "velocity": 120}, {"time": 90599, "pitch": 74, "duration": 108, "velocity": 122}, {"time": 90719, "pitch": 79, "duration": 136, "velocity": 124}, {"time": 90960, "pitch": 78, "duration": 244, "velocity": 123}, {"time": 91201, "pitch": 76, "duration": 106, "velocity": 121}, {"time": 91321, "pitch": 74, "duration": 239, "velocity": 120}, {"time": 91562, "pitch": 78, "duration": 88, "velocity": 118}, {"time": 91682, "pitch": 76, "duration": 227, "velocity": 121}, {"time": 92163, "pitch": 69, "duration": 88, "velocity": 115}, {"time": 92282, "pitch": 69, "duration": 88, "velocity": 115}, {"time": 92400, "pitch": 74, "duration": 98, "velocity": 117}, {"time": 92519, "pitch": 81, "duration": 523, "velocity": 120}, {"time": 93239, "pitch": 78, "duration": 102, "velocity": 115}, {"time": 93359, "pitch": 79, "duration": 115, "velocity": 127}, {"time": 93480, "pitch": 81, "duration": 444, "velocity": 124}, {"time": 94322, "pitch": 78, "duration": 211, "velocity": 126}, {"time": 94563, "pitch": 83, "duration": 223, "velocity": 126}, {"time": 94800, "pitch": 81, "duration": 179, "velocity": 126}, {"time": 95037, "pitch": 78, "duration": 96, "velocity": 126}, {"time": 95157, "pitch": 78, "duration": 96, "velocity": 126}, {"time": 95277, "pitch": 81, "duration": 113, "velocity": 126}, {"time": 95398, "pitch": 74, "duration": 399, "velocity": 126}, {"time": 96120, "pitch": 81, "duration": 70, "velocity": 118}, {"time": 96240, "pitch": 81, "duration": 95, "velocity": 120}, {"time": 96360, "pitch": 81, "duration": 109, "velocity": 122}, {"time": 96481, "pitch": 74, "duration": 318, "velocity": 124}, {"time": 97082, "pitch": 81, "duration": 70, "velocity": 118}, {"time": 97203, "pitch": 81, "duration": 95, "velocity": 120}, {"time": 97323, "pitch": 81, "duration": 108, "velocity": 122}, {"time": 97443, "pitch": 74, "duration": 314, "velocity": 124}, {"time": 98158, "pitch": 74, "duration": 95, "velocity": 120}, {"time": 98278, "pitch": 74, "duration": 109, "velocity": 122}, {"time": 98399, "pitch": 79, "duration": 189, "velocity": 124}, {"time": 98639, "pitch": 78, "duration": 244, "velocity": 123}, {"time": 98880, "pitch": 76, "duration": 106, "velocity": 121}, {"time": 99000, "pitch": 74, "duration": 239, "velocity": 120}, {"time": 99241, "pitch": 78, "duration": 111, "velocity": 125}, {"time": 99361, "pitch": 76, "duration": 312, "velocity": 124}, {"time": 99843, "pitch": 74, "duration": 239, "velocity": 116}, {"time": 100080, "pitch": 73, "duration": 131, "velocity": 97}, {"time": 100198, "pitch": 74, "duration": 1564, "velocity": 126}, {"time": 119037, "pitch": 69, "duration": 90, "velocity": 115}, {"time": 119158, "pitch": 69, "duration": 89, "velocity": 115}, {"time": 119278, "pitch": 74, "duration": 99, "velocity": 117}, {"time": 119398, "pitch": 81, "duration": 526, "velocity": 120}, {"time": 120120, "pitch": 78, "duration": 90, "velocity": 115}, {"time": 120241, "pitch": 78, "duration": 89, "velocity": 115}, {"time": 120361, "pitch": 79, "duration": 114, "velocity": 127}, {"time": 120481, "pitch": 81, "duration": 444, "velocity": 124}, {"time": 121200, "pitch": 78, "duration": 208, "velocity": 126}, {"time": 121437, "pitch": 83, "duration": 226, "velocity": 126}, {"time": 121677, "pitch": 81, "duration": 116, "velocity": 126}, {"time": 121798, "pitch": 78, "duration": 260, "velocity": 126}, {"time": 122159, "pitch": 81, "duration": 112, "velocity": 126}, {"time": 122279, "pitch": 74, "duration": 399, "velocity": 126}, {"time": 123001, "pitch": 81, "duration": 70, "velocity": 118}, {"time": 123121, "pitch": 81, "duration": 96, "velocity": 120}, {"time": 123242, "pitch": 81, "duration": 108, "velocity": 122}, {"time": 123362, "pitch": 74, "duration": 319, "velocity": 124}, {"time": 123962, "pitch": 81, "duration": 69, "velocity": 118}, {"time": 124080, "pitch": 81, "duration": 94, "velocity": 120}, {"time": 124199, "pitch": 81, "duration": 107, "velocity": 122}, {"time": 124317, "pitch": 74, "duration": 319, "velocity": 124}, {"time": 125039, "pitch": 74, "duration": 96, "velocity": 120}, {"time": 125160, "pitch": 74, "duration": 108, "velocity": 122}, {"time": 125280, "pitch": 79, "duration": 135, "velocity": 124}, {"time": 125521, "pitch": 78, "duration": 243, "velocity": 123}, {"time": 125761, "pitch": 76, "duration": 107, "velocity": 121}, {"time": 125882, "pitch": 74, "duration": 238, "velocity": 120}, {"time": 126122, "pitch": 76, "duration": 326, "velocity": 118}, {"time": 126717, "pitch": 69, "duration": 89, "velocity": 115}, {"time": 126837, "pitch": 69, "duration": 89, "velocity": 115}, {"time": 126957, "pitch": 74, "duration": 100, "velocity": 117}, {"time": 127078, "pitch": 81, "duration": 525, "velocity": 120}, {"time": 127800, "pitch": 78, "duration": 102, "velocity": 115}, {"time": 127920, "pitch": 79, "duration": 114, "velocity": 127}, {"time": 128040, "pitch": 81, "duration": 444, "velocity": 124}, {"time": 128883, "pitch": 78, "duration": 211, "velocity": 126}, {"time": 129123, "pitch": 83, "duration": 223, "velocity": 126}, {"time": 129360, "pitch": 81, "duration": 114, "velocity": 126}, {"time": 129479, "pitch": 78, "duration": 259, "velocity": 126}, {"time": 129838, "pitch": 81, "duration": 112, "velocity": 126}, {"time": 129958, "pitch": 74, "duration": 399, "velocity": 126}, {"time": 130680, "pitch": 81, "duration": 70, "velocity": 118}, {"time": 130801, "pitch": 81, "duration": 95, "velocity": 120}, {"time": 130921, "pitch": 81, "duration": 108, "velocity": 122}, {"time": 131041, "pitch": 74, "duration": 319, "velocity": 124}, {"time": 131641, "pitch": 81, "duration": 69, "velocity": 118}, {"time": 131760, "pitch": 81, "duration": 94, "velocity": 120}, {"time": 131878, "pitch": 81, "duration": 107, "velocity": 122}, {"time": 131997, "pitch": 74, "duration": 319, "velocity": 124}, {"time": 132719, "pitch": 74, "duration": 95, "velocity": 120}, {"time": 132839, "pitch": 74, "duration": 108, "velocity": 122}, {"time": 132959, "pitch": 79, "duration": 136, "velocity": 124}, {"time": 133080, "pitch": 78, "duration": 243, "velocity": 123}, {"time": 133320, "pitch": 76, "duration": 227, "velocity": 121}, {"time": 133681, "pitch": 74, "duration": 239, "velocity": 120}, {"time": 133922, "pitch": 78, "duration": 134, "velocity": 119}, {"time": 134042, "pitch": 76, "duration": 209, "velocity": 118}, {"time": 134403, "pitch": 69, "duration": 88, "velocity": 115}, {"time": 134522, "pitch": 69, "duration": 88, "velocity": 115}, {"time": 134640, "pitch": 74, "duration": 98, "velocity": 117}, {"time": 134759, "pitch": 81, "duration": 523, "velocity": 120}, {"time": 135479, "pitch": 78, "duration": 89, "velocity": 115}, {"time": 135599, "pitch": 78, "duration": 90, "velocity": 115}, {"time": 135720, "pitch": 79, "duration": 114, "velocity": 127}, {"time": 135840, "pitch": 81, "duration": 444, "velocity": 124}, {"time": 136562, "pitch": 78, "duration": 101, "velocity": 126}, {"time": 136682, "pitch": 78, "duration": 101, "velocity": 126}, {"time": 136802, "pitch": 83, "duration": 224, "velocity": 126}, {"time": 137040, "pitch": 81, "duration": 113, "velocity": 126}, {"time": 137158, "pitch": 78, "duration": 259, "velocity": 126}, {"time": 137517, "pitch": 81, "duration": 113, "velocity": 126}, {"time": 137638, "pitch": 74, "duration": 399, "velocity": 126}, {"time": 138360, "pitch": 81, "duration": 70, "velocity": 118}, {"time": 138480, "pitch": 81, "duration": 95, "velocity": 120}, {"time": 138600, "pitch": 81, "duration": 109, "velocity": 122}, {"time": 138721, "pitch": 74, "duration": 318, "velocity": 124}, {"time": 139322, "pitch": 81, "duration": 70, "velocity": 118}, {"time": 139443, "pitch": 81, "duration": 95, "velocity": 120}, {"time": 139563, "pitch": 81, "duration": 108, "velocity": 122}, {"time": 139683, "pitch": 74, "duration": 314, "velocity": 124}, {"time": 140398, "pitch": 74, "duration": 95, "velocity": 120}, {"time": 140518, "pitch": 74, "duration": 109, "velocity": 122}, {"time": 140639, "pitch": 79, "duration": 135, "velocity": 124}, {"time": 140879, "pitch": 78, "duration": 244, "velocity": 123}, {"time": 141120, "pitch": 76, "duration": 106, "velocity": 121}, {"time": 141240, "pitch": 74, "duration": 239, "velocity": 120}, {"time": 141481, "pitch": 78, "duration": 88, "velocity": 118}, {"time": 141601, "pitch": 76, "duration": 227, "velocity": 121}, {"time": 142082, "pitch": 69, "duration": 88, "velocity": 115}, {"time": 142201, "pitch": 69, "duration": 88, "velocity": 115}, {"time": 142320, "pitch": 74, "duration": 97, "velocity": 117}, {"time": 142438, "pitch": 81, "duration": 524, "velocity": 120}, {"time": 143158, "pitch": 78, "duration": 103, "velocity": 115}, {"time": 143279, "pitch": 79, "duration": 114, "velocity": 127}, {"time": 143399, "pitch": 81, "duration": 444, "velocity": 124}, {"time": 144241, "pitch": 78, "duration": 212, "velocity": 126}, {"time": 144482, "pitch": 83, "duration": 226, "velocity": 126}, {"time": 144723, "pitch": 81, "duration": 181, "velocity": 126}, {"time": 144963, "pitch": 78, "duration": 95, "velocity": 126}, {"time": 145082, "pitch": 78, "duration": 95, "velocity": 126}, {"time": 145200, "pitch": 81, "duration": 111, "velocity": 126}, {"time": 145319, "pitch": 74, "duration": 397, "velocity": 126}, {"time": 146039, "pitch": 81, "duration": 70, "velocity": 118}, {"time": 146159, "pitch": 81, "duration": 96, "velocity": 120}, {"time": 146280, "pitch": 81, "duration": 108, "velocity": 122}, {"time": 146400, "pitch": 74, "duration": 319, "velocity": 124}, {"time": 147002, "pitch": 81, "duration": 70, "velocity": 118}, {"time": 147122, "pitch": 81, "duration": 95, "velocity": 120}, {"time": 147242, "pitch": 81, "duration": 108, "velocity": 122}, {"time": 147362, "pitch": 74, "duration": 315, "velocity": 124}, {"time": 148077, "pitch": 74, "duration": 96, "velocity": 120}, {"time": 148198, "pitch": 74, "duration": 108, "velocity": 122}, {"time": 148318, "pitch": 79, "duration": 190, "velocity": 124}, {"time": 148559, "pitch": 78, "duration": 243, "velocity": 123}, {"time": 148799, "pitch": 76, "duration": 107, "velocity": 121}, {"time": 148920, "pitch": 74, "duration": 238, "velocity": 120}, {"time": 149160, "pitch": 78, "duration": 112, "velocity": 125}, {"time": 149281, "pitch": 76, "duration": 311, "velocity": 124}, {"time": 149762, "pitch": 74, "duration": 243, "velocity": 116}, {"time": 150003, "pitch": 73, "duration": 133, "velocity": 97}, {"time": 150123, "pitch": 74, "duration": 1558, "velocity": 126}], "annotations": [{"time": 211, "annotation": {"number": 7, "value": 90}, "group": "control_change"}, {"time": 230, "annotation": {"number": 11, "value": 110}, "group": "control_change"}, {"time": 249, "annotation": {"number": 10, "value": 84}, "group": "control_change"}, {"time": 268, "annotation": {"number": 91, "value": 50}, "group": "control_change"}, {"time": 287, "annotation": {"number": 93, "value": 0}, "group": "control_change"}, {"time": 306, "annotation": {"number": 94, "value": 0}, "group": "control_change"}, {"time": 326, "annotation": {"number": 101, "value": 0}, "group": "control_change"}, {"time": 345, "annotation": {"number": 100, "value": 0}, "group": "control_change"}, {"time": 364, "annotation": {"number": 6, "value": 12}, "group": "control_change"}, {"time": 383, "annotation": {"number": 101, "value": 127}, "group": "control_change"}, {"time": 402, "annotation": {"number": 100, "value": 127}, "group": "control_change"}]}]}